<svg width="400" height="400" xmlns="http://www.w3.org/2000/svg" xmlns:xlink="http://www.w3.org/1999/xlink">
 <style type="text/css">.st0{fill:#F2F3F4;}
	.st1{fill:#BFD3C9;stroke:#91BCA6;stroke-width:6;stroke-miterlimit:10;}
	.st2{fill:#8C8B98;stroke:#77768C;stroke-width:7;stroke-miterlimit:10;}
	.st3{fill:#C9E3E8;stroke:#9DD1DE;stroke-width:6;stroke-miterlimit:10;}
	.st4{fill:#FEFEFD;}
	.st5{fill:#C0784C;stroke:#AA5B30;stroke-width:4;stroke-miterlimit:10;}
	.st6{fill:none;stroke:#4F4D52;stroke-width:11;stroke-miterlimit:10;}
	.st7{fill:#F9F9F9;}
	.st8{fill:#B0D8DD;stroke:#86C2CC;stroke-width:4;stroke-miterlimit:10;}
	.st9{fill:#EEBB91;stroke:#E9A475;stroke-width:3;stroke-miterlimit:10;}
	.st10{fill:#F4CEA7;stroke:#F1B687;stroke-width:3;stroke-miterlimit:10;}
	.st11{fill:#544544;stroke:#423434;stroke-width:4;stroke-miterlimit:10;}
	.st12{fill:#1D8484;stroke:#18706D;stroke-width:4;stroke-miterlimit:10;}
	.st13{fill:#969E9C;}
	.st14{fill:#124745;stroke:#0D2D2B;stroke-width:4;stroke-miterlimit:10;}
	.st15{fill:#212121;}
	.st16{fill:#9F5A37;stroke:#844428;stroke-width:4;stroke-miterlimit:10;}
	.st17{fill:#4A5055;stroke:#393E42;stroke-width:6;stroke-miterlimit:10;}
	.st18{fill:#969E9C;stroke:#7A7A7A;stroke-width:3;stroke-miterlimit:10;}
	.st19{fill:#303030;stroke:#212121;stroke-width:3;stroke-miterlimit:10;}
	.st20{fill:#DBAD2C;stroke:#BF921F;stroke-width:4;stroke-miterlimit:10;}
	.st21{fill:#AD3431;stroke:#892121;stroke-width:4;stroke-miterlimit:10;}
	.st22{fill:#7C4B31;stroke:#6C3B24;stroke-width:4;stroke-miterlimit:10;}
	.st23{fill:#28719A;stroke:#1D5A87;stroke-width:4;stroke-miterlimit:10;}
	.st24{fill:#185666;stroke:#134E51;stroke-width:4;stroke-miterlimit:10;}
	.st25{fill:#E4E1DF;stroke:#B7B7B7;stroke-width:5;stroke-miterlimit:10;}
	.st26{fill:#BCB0A4;stroke:#92867A;stroke-width:3;stroke-miterlimit:10;}
	.st27{fill:#EEBB91;stroke:#E9A475;stroke-width:5;stroke-miterlimit:10;}
	.st28{fill:#F4CEA7;stroke:#F1B687;stroke-width:4;stroke-miterlimit:10;}
	.st29{fill:#F4CEA7;}
	.st30{fill:#F1B687;}
	.st31{fill:#999999;}
	.st32{fill:#DB8F5D;}
	.st33{fill:#595959;stroke:#3A3A3A;stroke-width:2;stroke-miterlimit:10;}
	.st34{fill:#FFFFFF;stroke:#BABABA;stroke-width:3;stroke-miterlimit:10;}
	.st35{fill:#DD3031;stroke:#BA161C;stroke-width:4;stroke-miterlimit:10;}
	.st36{fill:none;stroke:#3A3A3A;stroke-width:5;stroke-miterlimit:10;}
	.st37{fill:#282828;stroke:#141414;stroke-width:3;stroke-miterlimit:10;}
	.st38{display:none;}
	.st39{display:inline;}
	.st40{fill:#F4CEA7;stroke:#F1B687;stroke-width:5;stroke-miterlimit:10;}
	.st41{display:inline;fill:#595959;stroke:#3A3A3A;stroke-width:5;stroke-miterlimit:10;}
	.st42{clip-path:url(#SVGID_2_);fill:#722021;}
	.st43{clip-path:url(#SVGID_4_);fill:#D82D2E;}
	.st44{clip-path:url(#SVGID_6_);fill:#FFFFFF;}
	.st45{clip-path:url(#SVGID_8_);fill:#722021;}
	.st46{clip-path:url(#SVGID_10_);fill:#D82D2E;}
	.st47{clip-path:url(#SVGID_12_);fill:#FFFFFF;}
	.st48{fill:#FFFFFF;}
	.st49{fill:#141414;}
	.st50{fill:#2B2B2B;stroke:#111111;stroke-width:4;stroke-miterlimit:10;}
	.st51{fill:#238CB1;stroke:#1A7489;stroke-width:6;stroke-miterlimit:10;}
	.st52{fill:#D1292A;stroke:#A31415;stroke-width:7;stroke-miterlimit:10;}
	.st53{fill:#D1292A;stroke:#A31415;stroke-width:5;stroke-miterlimit:10;}
	.st54{fill:#E5A376;}
	.st55{fill:#EFB88C;stroke:#E9A373;stroke-width:9;stroke-miterlimit:10;}
	.st56{fill:#89442C;stroke:#723525;stroke-width:4;stroke-miterlimit:10;}
	.st57{clip-path:url(#SVGID_14_);fill:#682727;}
	.st58{clip-path:url(#SVGID_16_);fill:#FFFFFF;}
	.st59{clip-path:url(#SVGID_18_);fill:#B21E22;}
	.st60{fill:#D1292A;stroke:#A31415;stroke-width:4;stroke-miterlimit:10;}
	.st61{display:none;fill:#F4CEA7;stroke:#F1B687;stroke-width:7;stroke-miterlimit:10;}
	.st62{display:none;fill:#D1292A;stroke:#A31415;stroke-width:10;stroke-miterlimit:10;}
	.st63{fill:#89442C;}
	.st64{fill:#682727;}
	    #back{
    animation : slide 8s ease-in-out
    }
    @keyframes slide{
    0%{
    transform : translateX(0)
    }
    100%{
    transform : translateX(-400px)
    }
    }
    /*#closed_mouth2{
    animation : zoom1 linear 8s infinite
    }
    @keyframes zoom1{
    0%,20%{
    visibility : hidden
    }
    21%,30%{
    visibility : visible
    }
    41%,50%{
    visible : hidden
    }
    51%,60%{
    visible : visible
    }
    61%,100%{
    visibility : hidden
    }
    }
    #closed_mouth1{
    animation : zoom2 linear 8s infinite
    }
    @keyframes zoom2{
    0%,52%{
    visibility : hidden
    }
    62%,75%{
    visibility : visible
    }
    76%,89%{
    visibility : hidden
    }
    90%,100%{
    visibility : visible
    }
    }*/
    #closed_mouth1{
    animation : talk linear 8s infinite;
    
    }
    @keyframes talk{
    0%,10%{
    visibility : hidden
    }
    12%,15%{
    visibility : visible;
    
    }
    16%,18%{
     visibility : hidden;
    
    }
    20%,22%{
     visibility : visible;
    
    }
    24%,26%{
     visibility : hidden;
     
    }
    28%,30%{
     visibility : visible;
    
    }
    32%,34%{
    visibility : hidden;
    
    }
    36%,38%{
     visibility : visible;
    
    }
    40%,42%{
    visibility : hidden;
    
    }
     44%,46%{
    visibility : visible;
    
    }
     48%,50%{
    visibility : hidden;
    
    }
    52%,54%{
    visibility : visible;
    
    }
    56%,58%{
    visibility : hidden;
    
    }
    60%,62%{
    visibility : visible;
    
    }
    64%,100%{
    visibility : hidden;
    
    }
    }
    #closed_mouth{
    animation : fade 8s linear infinite
    }
    @keyframes fade{
    0%,20%{
    visibility : visible
    }
    22%,100%{
    visibility : hidden
    }
    }
    #closed_mouth2{
   
    }
    #mouth2{
    animation : tomove 8s linear infinite
    }
    @keyframes tomove{
    0%,3%{
    visibility : visible
    }
    9%,12%{
    visibility : hidden
    }
    15%,18%{
    visibility : visible
    }
    21%,24%{
    visibility : hidden
    }
    27%,31%{
    visibility : visible
    }
    34%,37%{
    visibility : hidden
    }
    40%,43%{
    visibility : visible
    }
    46%,49%{
    visibility : hidden
    }
    52%,55%{
    visibility : visible
    }
    58%,61%{
    visibility : hidden
    }
    64%,67%{
    visibility : visible
    }
    70%,73%{
    visibility : hidden
    }
    76%,79%{
    visibility : visible
    }
    82%,100%{
    visibility : hidden
    }
    }
    #left-arm{
    animation : wave1 1.5s linear alternate infinite;
    transform-origin:0% 0%;
    transform-box:fill-box;
    }
    @keyframes wave1{
      0%{transform:translateY(2px) rotateZ(-30deg)}
       100%{transform:translateY(2px) rotateZ(-12deg)}
    
   
    }
    #left-arm-up{
    animation : point1 8s ease-in-out infinite;
    }
    @keyframes point1{
    0%,100%{
    visibility : hidden
    }
    
    }
    #eyes_2,#eyes1{
    animation : blink 8s linear infinite;
    
    }
    #eyes3,#eyes4{
    animation : blink 8s linear infinite;
    
    }
     @keyframes blink{
    0%,5%{
    visibility : visible
    }
    8%,12%{
     visibility : hidden
    }
    
    16%,70%{
    visibility : visible
    }
    73%,77%{
    visibility : hidden
    }
    80%,100%{
    visibility : visible
    }
    }</style>
 <g>
  <title>Layer 1</title>
  <g id="Jack">
   <g id="svg_216">
    <path class="st50" d="m218.7,346.2c0,0 39.7,22.9 31.5,26.5s-49.4,-1.8 -49.4,-1.8l-1.9,-23.3l19.8,-1.4z" id="svg_217"/>
    <path class="st50" d="m183,346.2c0,0 39.7,22.9 31.5,26.5s-49.4,-1.7 -49.4,-1.7l-1.9,-23.3l19.8,-1.5z" id="svg_218"/>
    <path class="st51" d="m206.1,237l-15.1,1.2c-0.7,0.1 -1.3,0.3 -1.8,0.8l-14.9,-1c-1.7,-0.1 -3.2,1.2 -3.3,2.8l-6.9,104.6c-0.1,1.7 1.2,3.1 2.9,3.2l15.1,1c1.7,0.1 3.2,-1.2 3.3,-2.8l6.2,-88.4l5.1,87.6c0.1,1.7 1.6,2.9 3.3,2.8l15.1,-1.2c1.7,-0.1 3,-1.6 2.8,-3.3l-8.5,-104.5c-0.2,-1.7 -1.6,-3 -3.3,-2.8z" id="svg_219"/>
   </g>
   <g id="svg_220">
    <g id="svg_221">
     <path class="st40" d="m149.8,250l3.5,-9.9c0.7,-1.9 -0.6,-3.9 -2.8,-4.4l0,0c-2.2,-0.5 -4.6,0.6 -5.2,2.5l-3.5,9.9c-0.7,1.9 0.6,3.9 2.8,4.4l0,0c2.2,0.5 4.5,-0.6 5.2,-2.5z" id="svg_222"/>
     <g id="svg_223">
      <path class="st28" d="m127.6,300.8c-4,-1.7 2.5,-16.8 6,-24c-0.1,-0.1 -0.3,-0.2 -0.4,-0.3c-4.4,6.9 -14,20.9 -16.4,16.7c-2.4,-4.2 8.3,-16.2 13.5,-21.7c-0.4,-1.8 -0.4,-3.8 -0.1,-6.1c-4.2,-0.5 -11.5,-2.1 -9.7,-6.9c1.9,-5 9.5,-3.3 13.1,-2.1c2.4,-3.7 5.7,-6.3 8.9,-6.6c5.2,-0.5 8.3,5.3 6.8,13c-0.6,3 -1.7,5.8 -3.3,8.1c0.7,3.8 4.1,24.1 -1.7,25.9c-4.7,1.4 -4.2,-12.8 -3.7,-20.4c-0.6,0.3 -1.2,0.6 -1.7,0.8c-1.8,7 -7,25.4 -11.3,23.6z" id="svg_224"/>
      <g id="svg_225">
       <path class="st30" d="m134.4,265.9c1.5,-0.5 2.4,-0.6 3.3,-0.8c0.8,-0.1 1.5,-0.1 2,-0.1s0.8,0.2 1.4,0.5c0.6,0.3 1.4,0.5 3,0.7c0.3,1.5 -0.2,2.9 -1.3,3.8s-2.6,1.2 -3.9,1c-1.3,-0.2 -2.4,-0.8 -3.2,-1.6c-0.8,-0.9 -1.4,-2 -1.3,-3.5z" id="svg_226"/>
      </g>
      <g id="svg_227">
       <path class="st30" d="m144.2,257.3c0.1,1.1 0,2 -0.3,2.9c-0.2,0.9 -0.6,1.7 -1,2.5s-0.9,1.5 -1.6,2.2c-0.6,0.7 -1.3,1.3 -2.3,1.8c-0.1,-1.1 0,-2 0.3,-2.9c0.2,-0.9 0.6,-1.7 1,-2.5s1,-1.5 1.6,-2.2c0.6,-0.7 1.3,-1.3 2.3,-1.8z" id="svg_228"/>
      </g>
     </g>
    </g>
    <polyline class="st52" points="172.0999984741211,150.79998779296875 141,238.5 158,242.5 189.0999984741211,154.79998779296875 " id="svg_229"/>
   </g>
   <path class="st28" d="m239,253.7c-0.3,0.6 -0.7,1.1 -1.1,1.6c3.7,5.7 3.1,15.1 -1.4,15.2c-5,0.1 -3.5,-6.1 -6.5,-12.1c-0.7,0 -1.4,0 -2.1,0c-1.6,5.3 -6.4,14.5 -11.3,13.5c-5,-1 1.5,-11.3 3.8,-16.6c-1.1,-1.1 -2,-2.3 -2.7,-3.6c-2.7,3.8 -11.3,7.3 -11,3.8c0.4,-3.4 4.5,-8.7 9.5,-10.9c0.6,-2.7 2.5,-4.9 5,-6.4c-0.4,-0.5 -0.8,-1.1 -0.9,-1.9l-1.1,-6.4c-0.4,-2.2 1,-4.3 3.2,-4.8l2.9,-0.6c2.1,-0.5 4.2,0.9 4.6,3.1l1.1,6.4c0.1,0.8 0,1.7 -0.3,2.4c4.3,0.8 7.6,4 8.9,8c3.2,1.2 15.1,13.1 10.3,16.1c-5,3.4 -4.4,-3.5 -10.9,-6.8z" id="svg_230"/>
   <polyline class="st53" points="211.5,154.70001220703125 233.60000610351562,232.70001220703125 215.6999969482422,235.79998779296875 201.1999969482422,158.89999389648438 " id="svg_231"/>
   <g id="svg_232">
    <g id="svg_233">
     <g id="svg_234">
      <path class="st29" d="m162.2,98.8c-1.5,-2.7 -4,-4.5 -6.9,-4.5c-4.6,0 -8.3,4.5 -8.3,10.1s3.7,10.1 8.3,10.1c3.5,0 6.6,-2.6 7.8,-6.4" id="svg_235"/>
      <path class="st30" d="m162.2,98.8c-1.8,-1.3 -3.6,-2 -5.2,-1.9c-0.8,0 -1.4,0.2 -2,0.4c-0.6,0.3 -1,0.6 -1.4,1c-1.6,1.6 -2.4,4.2 -2.1,6.8c0.2,2.5 1.4,4.8 3.2,5.8c0.9,0.5 2.2,0.8 3.7,0.3c1.5,-0.4 3.2,-1.5 4.7,-3.1c0.3,2.2 -0.4,4.7 -2.1,6.7s-4.7,3.3 -7.7,3.1c-3.1,-0.2 -5.9,-2 -7.7,-4.2c-1.9,-2.2 -2.8,-5 -3.1,-7.7c-0.1,-1.4 0,-2.8 0.2,-4.1c0.3,-1.4 0.7,-2.7 1.4,-3.9c1.3,-2.5 3.5,-4.7 6.2,-5.7c2.8,-1.1 6,-0.8 8.3,0.7c2.3,1.2 3.5,3.5 3.6,5.8z" id="svg_236"/>
     </g>
     <g id="svg_237">
      <path class="st54" d="m153.4,98.5c1.8,0.7 3.3,1.8 4.5,3.3c0.6,0.7 1.2,1.5 1.6,2.6c0.2,0.5 0.4,1.1 0.4,1.9c0,0.7 -0.2,1.6 -0.7,2.4c-0.5,0.7 -1.3,1.2 -1.9,1.4c-0.6,0.2 -1.3,0.4 -1.7,0.4c-0.5,0 -1,0.1 -1.6,0s-1.2,-0.2 -2,-0.6c-0.4,-0.2 -0.7,-0.6 -0.9,-1s-0.3,-0.9 -0.3,-1.2c0,-0.8 0.3,-1.3 0.5,-1.8c0.6,-0.9 1.3,-1.5 2.1,-2c-0.1,1 -0.3,1.8 -0.2,2.6c0,0.4 0.1,0.7 0.2,0.8c0.1,0.1 0.1,-0.1 0.1,-0.2c0.1,-0.1 0.3,-0.1 0.6,-0.1c0.3,-0.1 0.6,-0.1 1,-0.2s0.6,-0.2 0.8,-0.3c0.2,-0.1 0.2,-0.1 0.2,-0.1s0,0.1 0,-0.1c0,-0.1 0,-0.4 -0.1,-0.7c-0.1,-0.6 -0.4,-1.3 -0.7,-2.1c-0.6,-1.6 -1.3,-3.2 -1.9,-5z" id="svg_238"/>
     </g>
    </g>
    <g id="svg_239">
     <g id="svg_240">
      <path class="st29" d="m218.5,98.8c1.5,-2.7 4,-4.5 6.9,-4.5c4.6,0 8.3,4.5 8.3,10.1s-3.7,10.1 -8.3,10.1c-3.5,0 -6.6,-2.6 -7.8,-6.4" id="svg_241"/>
      <path class="st30" d="m218.5,98.8c0.1,-2.2 1.3,-4.5 3.6,-6c2.2,-1.5 5.5,-1.8 8.3,-0.7c2.8,1.1 4.9,3.3 6.2,5.7c0.7,1.2 1.1,2.6 1.4,3.9c0.3,1.4 0.3,2.7 0.2,4.1c-0.2,2.8 -1.2,5.5 -3.1,7.7c-1.8,2.2 -4.6,4 -7.7,4.2c-3.1,0.3 -6,-1 -7.7,-3.1c-1.7,-2 -2.4,-4.4 -2.1,-6.7c1.6,1.6 3.2,2.7 4.7,3.1c1.5,0.4 2.8,0.2 3.7,-0.3c1.8,-1 2.9,-3.3 3.2,-5.8c0.2,-2.6 -0.5,-5.2 -2.1,-6.8c-0.4,-0.4 -0.9,-0.7 -1.4,-1c-0.6,-0.3 -1.2,-0.4 -2,-0.4c-1.6,0.1 -3.4,0.8 -5.2,2.1z" id="svg_242"/>
     </g>
     <g id="svg_243">
      <path class="st54" d="m227.3,97.9c-0.6,1.8 -1.3,3.4 -1.9,4.9c-0.3,0.7 -0.5,1.5 -0.7,2.1c-0.1,0.3 -0.1,0.6 -0.1,0.7c0,0.2 0,0.1 0,0.1s0,0 0.2,0.1s0.4,0.2 0.8,0.3c0.4,0.1 0.7,0.1 1,0.2c0.3,0 0.5,0.1 0.6,0.1c0,0 0,0.3 0.1,0.2c0.1,-0.1 0.2,-0.5 0.2,-0.8c0,-0.8 -0.1,-1.7 -0.2,-2.6c0.8,0.5 1.6,1.1 2.1,2c0.3,0.5 0.5,1 0.5,1.8c0,0.4 -0.1,0.8 -0.3,1.2c-0.2,0.4 -0.6,0.8 -0.9,1c-0.7,0.4 -1.4,0.6 -2,0.6c-0.6,0.1 -1.1,0.1 -1.6,0c-0.5,0 -1.1,-0.2 -1.7,-0.4c-0.6,-0.3 -1.3,-0.7 -1.9,-1.4c-0.5,-0.8 -0.7,-1.7 -0.7,-2.4c0,-0.7 0.2,-1.3 0.4,-1.9c0.4,-1.1 1,-1.9 1.6,-2.6c1.3,-1.3 2.7,-2.4 4.5,-3.2z" id="svg_244"/>
     </g>
    </g>
    <g id="svg_245">
     <path class="st55" d="m190.2,158.9l0,0c4.1,0 7.4,-3.3 7.4,-7.4l0,-2.2c0,-4.1 -3.3,-7.4 -7.4,-7.4l0,0c-4.1,0 -7.4,3.3 -7.4,7.4l0,2.2c0.1,4.1 3.4,7.4 7.4,7.4z" id="svg_246"/>
     <path class="st40" d="m189.7,145l0,0c16.9,0 30.7,-13.8 30.7,-30.7l0,-24.3c0,-16.9 -13.8,-30.7 -30.7,-30.7l0,0c-16.9,0 -30.7,13.8 -30.7,30.7l0,24.4c0,16.8 13.8,30.6 30.7,30.6z" id="svg_247"/>
     <g id="svg_248">
      <path class="st54" d="m190,92.7c2.4,0.8 4.7,1.8 7,2.9c2.2,1.2 4.4,2.5 6.5,4.1c1,0.8 2,1.7 2.9,2.6c0.9,1 1.7,2.1 2.4,3.3c0.7,1.2 1.1,2.7 1,4.3c0,1.6 -0.6,3.1 -1.5,4.3c-0.8,1.2 -1.9,2.2 -3,2.9c-1.1,0.7 -2.1,1.6 -3.4,2.1c-1.2,0.7 -2.5,1 -3.8,1.4l-2,0.4c-0.7,0.1 -1.3,0.1 -2,0.1c-2.7,0 -5.3,-0.7 -7.6,-1.9c-2.3,-1.2 -4.3,-2.8 -5.9,-4.8c4,3 8.8,4.7 13.4,4.3c1.2,-0.1 2.3,-0.4 3.4,-0.6c1.1,-0.4 2.2,-0.8 3.1,-1.4c1,-0.5 2,-1.2 2.9,-1.9c0.9,-0.7 1.7,-1.5 2.3,-2.3c1.3,-1.7 1.3,-3.6 0.4,-5.6s-2.6,-3.8 -4.3,-5.4c-3.4,-3.3 -7.6,-6.1 -11.8,-8.8z" id="svg_249"/>
     </g>
     <path class="st56" d="m160.1,49.2c9.6,-3 28.7,-20.3 35.4,-14.9c6.7,5.4 -5.8,12.5 -5.8,12.5s28.8,-16.6 33.1,-8.1c1.4,2.7 0.8,5.2 -0.6,7.3c7.4,1.2 10,3.3 9.8,6.9c0,0.2 -6.1,2.3 -6.2,2.5c6.2,1.3 19.6,2.9 16.9,6.3c-5.8,7.4 -10.1,9.1 -17.3,7.1c5.5,4.1 8.5,9.1 6.7,12.1c-1.1,1.9 -3.8,2.6 -7.3,2.2c-0.3,4.9 -0.9,13.2 -1.3,13.3c-0.5,0.2 -5.8,0 -5.8,0l0,-15.3c-1.1,-0.5 -2.2,-1 -3.2,-1.6c-3.7,-2.1 -6.7,-4.8 -8.6,-7.3c-1.4,1.9 -3.3,3.1 -5.4,3.1c-1.7,0 -3.2,-0.7 -4.5,-2c-1.3,3 -3.7,5 -6.5,5c-3.6,0 -6.6,-3.5 -7.3,-8.1c-1.3,3.3 -3.8,5.5 -6.6,5.5c-1.9,0 -3.7,-1 -5,-2.6c0.7,1.5 1,3.3 1,5.2c0,4.3 -5.4,2.8 -8.1,4.4c-1.4,4.2 0.6,12.8 -0.4,12.7c-2.5,-0.3 -8.1,-2.6 -8.1,-2.6s-4.5,-40.5 5.1,-43.6z" id="svg_250"/>
    </g>
   </g>
   <g class="st38" id="svg_251">
    <g class="st39" id="svg_252">
     <g id="svg_253">
      <defs transform="translate(95 0) translate(0 -176)">
       <path id="SVGID_13_" d="m90.7,272.6c-4.3,-2 -10.3,-4.4 -17.7,-5.5c-7.2,-1.1 -13.3,-0.8 -17.8,-0.2c0.6,-1.6 3.2,-7.5 9.3,-10.3c2.8,-1.3 6.3,-1.9 10.7,-1.1c14.7,3 15.5,17.1 15.5,17.1z"/>
      </defs>
      <clipPath id="SVGID_14_" transform="translate(95 0) translate(0 -176)">
       <use xlink:href="#SVGID_13_" id="svg_254"/>
      </clipPath>
      <path class="st57" d="m185.7,96.6c-4.3,-2 -10.3,-4.4 -17.7,-5.5c-7.2,-1.1 -13.3,-0.8 -17.8,-0.2c0.6,-1.6 3.2,-7.5 9.3,-10.3c2.8,-1.3 6.3,-1.9 10.7,-1.1c14.7,3 15.5,17.1 15.5,17.1z" id="svg_255"/>
     </g>
    </g>
    <g class="st39" id="svg_256">
     <g id="svg_257">
      <defs transform="translate(95 0) translate(0 -176)">
       <path id="SVGID_15_" d="m90.7,272.6c-4.3,-2 -10.3,-4.4 -17.7,-5.5c-7.2,-1.1 -13.3,-0.8 -17.8,-0.2c0.6,-1.6 3.2,-7.5 9.3,-10.3c2.8,-1.3 6.3,-1.9 10.7,-1.1c14.7,3 15.5,17.1 15.5,17.1z"/>
      </defs>
      <clipPath id="SVGID_16_" transform="translate(95 0) translate(0 -176)">
       <use xlink:href="#SVGID_15_" id="svg_258"/>
      </clipPath>
      <path class="st58" d="m185.2,86.8l-32.7,-7.8c-1.9,-0.4 -3.1,-2.5 -2.7,-4.5l0.2,-1.2c0.4,-2 2.3,-3.3 4.1,-2.9l32.7,7.8c1.9,0.4 3.1,2.5 2.7,4.5l-0.2,1.2c-0.4,2.1 -2.2,3.4 -4.1,2.9z" id="svg_259"/>
     </g>
    </g>
    <g class="st39" id="svg_260">
     <g id="svg_261">
      <defs transform="translate(95 0) translate(0 -176)">
       <path id="SVGID_17_" d="m49.9,243.7c2.1,4.2 5.4,9.8 10.5,15.3c4.9,5.3 10,8.8 13.9,11.2c-1.5,0.9 -7.2,3.9 -13.7,2.3c-3,-0.7 -6.1,-2.4 -9.1,-5.8c-9.7,-11.4 -1.6,-23 -1.6,-23z"/>
      </defs>
      <clipPath id="SVGID_18_" transform="translate(95 0) translate(0 -176)">
       <use xlink:href="#SVGID_17_" id="svg_262"/>
      </clipPath>
      <ellipse transform="matrix(0.3272 -0.945 0.945 0.3272 -206.658 240.194)" class="st59" cx="262.68724" cy="297.38507" rx="5.6" ry="6.6" id="svg_263"/>
     </g>
    </g>
   </g>
   <path class="st60" d="m210.2,242.2l-39.7,0c-1.7,0 2.8,-5.6 2.8,-7.5l0,-78.1c0,-1 0.3,-1.8 0.9,-2.5c0.8,-0.9 1.8,-1 2.2,-1c3.7,-0.4 9.8,5.2 15.4,4.8c4.7,-0.4 9.8,-5.1 12.7,-4.8c0.4,0 1.4,0.2 2.2,1c0.6,0.6 0.9,1.5 0.9,2.5l0,78.1c-1.1,1.2 3.6,6.3 2.6,7.5z" id="svg_264"/>
   <path class="st61" d="m195,118.9c-0.2,-0.7 -0.5,-1.4 -0.8,-2c5,-5.8 6.2,-16.4 1.4,-17.3c-5.3,-1 -4.9,6.3 -9.2,12.4c-0.7,-0.2 -1.4,-0.3 -2.2,-0.4c-0.7,-6.2 -3.9,-17.4 -9.3,-17.2c-5.5,0.3 -0.6,12.9 0.8,19.3c-1.3,1 -2.5,2.3 -3.5,3.5c-2.1,-4.8 -10.5,-10.2 -10.8,-6.2c-0.3,3.9 3.1,10.6 7.9,13.9c0.1,3.1 1.7,5.9 4,8c-0.6,0.5 -1,1.1 -1.3,1.9l-2.4,6.9c-0.8,2.4 0.3,5 2.4,5.9l2.9,1.2c2.2,0.9 4.6,-0.3 5.4,-2.7l2.4,-6.9c0.3,-0.9 0.3,-1.9 0.1,-2.8c4.7,-0.2 8.8,-3.1 11,-7.4c3.6,-0.8 18.4,-12 13.9,-16.3c-4.6,-4.2 -5.3,3.6 -12.7,6.2z" id="svg_265"/>
   <path class="st62" d="m153.7,118.5c0,0 -49.7,70 -27.6,81.3c7.6,3.9 57.1,-45.4 58.4,-61.5l-13.5,-4.2l-27.3,31.2c0,0 17,-29.2 14.9,-36.9" id="svg_266"/>
   <g id="eyes4">
    <ellipse class="st48" cx="179.6" cy="91.3" rx="7.2" ry="7.1" id="svg_267"/>
    <g id="svg_268">
     <ellipse class="st48" cx="204.7" cy="91.3" rx="7.2" ry="7.1" id="svg_269"/>
    </g>
   </g>
   <g id="eyes4-closed">
    <ellipse class="st48" cx="179.6" cy="91.3" rx="7.2" ry="2" id="svg_270"/>
    <g id="svg_271">
     <ellipse class="st48" cx="204.7" cy="91.3" rx="7.2" ry="2" id="svg_272"/>
    </g>
   </g>
   <g id="eyes3">
    <g id="svg_273">
     <ellipse class="st49" cx="204.1" cy="91.5" rx="4" ry="4" id="svg_274"/>
     <ellipse class="st48" cx="202" cy="89.6" rx="1.3" ry="1.3" id="svg_275"/>
    </g>
    <g id="svg_276">
     <ellipse class="st49" cx="181.1" cy="91.5" rx="4" ry="4" id="svg_277"/>
     <ellipse class="st48" cx="179" cy="89.6" rx="1.3" ry="1.3" id="svg_278"/>
    </g>
   </g>
   <g id="eyes3-closed">
    <g id="svg_279">
     <ellipse class="st49" cx="204.1" cy="91.5" rx="4" ry="0.5" id="svg_280"/>
     <ellipse class="st48" cx="202" cy="91.3" rx="1.3" ry="0.2" id="svg_281"/>
    </g>
    <g id="svg_282">
     <ellipse class="st49" cx="181.1" cy="91.5" rx="4" ry="0.5" id="svg_283"/>
     <ellipse class="st48" cx="179" cy="91.3" rx="1.3" ry="0.2" id="svg_284"/>
    </g>
   </g>
   <g id="svg_285">
    <path class="st63" d="m187,78.5c-2,2.7 -3.2,4.1 -4.2,5.2c-1,1 -1.7,1.5 -2.3,1.6c-0.6,0.1 -1,-0.3 -1.9,-1.1c-0.9,-0.8 -2.2,-2 -5.4,-3.1c-1.6,-3 -0.9,-5.7 0.4,-7.6c1.3,-1.9 3.3,-2.9 5.2,-3.1c1.9,-0.2 3.6,0.3 5.1,1.6c0.7,0.6 1.4,1.4 1.9,2.5c0.5,1.2 1,2.3 1.2,4z" id="svg_286"/>
   </g>
   <g id="svg_287">
    <path class="st63" d="m212.7,80.6c-2.8,1.7 -4.5,2.7 -5.8,3.3c-1.3,0.6 -2.1,0.8 -2.7,0.7c-0.6,-0.1 -0.8,-0.6 -1.4,-1.8c-0.6,-1.1 -1.3,-2.7 -3.9,-4.9c-0.4,-3.3 1.2,-5.6 3.2,-6.9c1.9,-1.2 4.1,-1.4 6,-1c1.8,0.5 3.3,1.6 4.2,3.3c0.5,0.9 0.8,1.9 0.9,3c-0.1,1.4 0,2.7 -0.5,4.3z" id="svg_288"/>
   </g>
   <g id="closed_mouth">
    <ellipse id="ellipse2907_3_" class="st64" cx="186.1" cy="127.6" rx="7" ry="3.5"/>
   </g>
   <g id="closed_mouth2">
    <ellipse id="ellipse2907_2_" class="st64" cx="182.6" cy="127.6" rx="8.8" ry="3.5"/>
   </g>
   <g id="closed_mouth1">
    <ellipse id="ellipse2907_1_" class="st64" cx="182.8" cy="127.9" rx="11.5" ry="3.3"/>
   </g>
  </g>
 </g>
</svg>