<?xml version="1.0" encoding="utf-8"?>
<!-- Generator: Adobe Illustrator 17.0.0, SVG Export Plug-In . SVG Version: 6.00 Build 0)  -->
<!DOCTYPE svg PUBLIC "-//W3C//DTD SVG 1.1//EN" "http://www.w3.org/Graphics/SVG/1.1/DTD/svg11.dtd">
<svg version="1.1" id="Ebene_1" xmlns="http://www.w3.org/2000/svg" xmlns:xlink="http://www.w3.org/1999/xlink" x="0px" y="0px"
	 width="1000px" height="1000px" viewBox="0 0 1000 1000" enable-background="new 0 0 1000 1000" xml:space="preserve">
<g>
	<g>
		<ellipse fill="#DBDBDB" cx="482" cy="973.002" rx="115" ry="23.998"/>
		<g>
			
				<radialGradient id="SVGID_1_" cx="455.4476" cy="13.3046" r="47.0695" gradientTransform="matrix(1.0008 0 0 -1 83.6802 975)" gradientUnits="userSpaceOnUse">
				<stop  offset="0" style="stop-color:#3A3A3A"/>
				<stop  offset="0.5716" style="stop-color:#272725"/>
				<stop  offset="1" style="stop-color:#1D1D1B"/>
			</radialGradient>
			<path fill="url(#SVGID_1_)" d="M494.397,968.678c2.932,1.052,25.441,5.062,28.205,4.76c0.217-1.215,0.712-3.854,0.64-5.106
				c15.286,8.166,38.252,10.316,32.235-2.311c-4.135-8.685-57.337-35.234-57.486-34.282L494.397,968.678z"/>
			
				<radialGradient id="SVGID_2_" cx="383.2444" cy="-0.1755" r="48.3506" gradientTransform="matrix(1.0008 0 0 -1 83.6802 975)" gradientUnits="userSpaceOnUse">
				<stop  offset="0" style="stop-color:#3A3A3A"/>
				<stop  offset="0.5716" style="stop-color:#272725"/>
				<stop  offset="1" style="stop-color:#1D1D1B"/>
			</radialGradient>
			<path fill="url(#SVGID_2_)" d="M419.681,978.227c2.859,1.24,25.059,6.704,27.834,6.584c0.297-1.197,0.963-3.802,0.973-5.054
				c14.723,9.143,37.498,12.779,32.316-0.211c-3.559-8.934-54.921-38.89-55.132-37.948L419.681,978.227z"/>
			<g>
				
					<linearGradient id="SVGID_3_" gradientUnits="userSpaceOnUse" x1="384.6529" y1="221.4517" x2="354.9417" y2="10.171" gradientTransform="matrix(1 0 0 -1 84 975)">
					<stop  offset="0" style="stop-color:#423F44"/>
					<stop  offset="0.3088" style="stop-color:#555257"/>
					<stop  offset="0.7194" style="stop-color:#69666B"/>
					<stop  offset="1" style="stop-color:#706D72"/>
				</linearGradient>
				<path fill="url(#SVGID_3_)" d="M457.402,746.562l-4.213,19.545c-16.577,76.827-26.583,123.202-34.103,196.821l32.951,3.361
					c7.333-71.799,16.639-114.921,33.531-193.207l4.216-19.565L457.402,746.562z"/>
				<path fill="#88838C" d="M472.581,749.822l-4.214,19.555c-17.024,78.898-26.403,122.359-33.835,195.125l2.06,0.211
					c7.421-72.651,16.79-116.072,33.798-194.899l4.216-19.558L472.581,749.822z"/>
				<g>
					<path fill="#AFAFAF" d="M443.529,861.759l0.121-2.065c-3.329-0.2-6.618-0.151-9.808,0.031
						c-0.129,0.704-0.257,1.403-0.387,2.104C436.731,861.625,440.112,861.562,443.529,861.759z"/>
					<path fill="#AFAFAF" d="M443.392,855.39l0.441-2.021c-1.833-0.398-3.738-0.758-5.667-1.12
						c-0.931-0.177-1.871-0.356-2.809-0.538c-0.13,0.675-0.261,1.354-0.389,2.029c0.94,0.182,1.881,0.364,2.814,0.541
						C439.691,854.641,441.578,854.994,443.392,855.39z"/>
				</g>
			</g>
			<g>
				
					<linearGradient id="SVGID_4_" gradientUnits="userSpaceOnUse" x1="438.2343" y1="226.9671" x2="421.7281" y2="23.3893" gradientTransform="matrix(1 0 0 -1 84 975)">
					<stop  offset="0" style="stop-color:#423F44"/>
					<stop  offset="0.3088" style="stop-color:#555257"/>
					<stop  offset="0.7194" style="stop-color:#69666B"/>
					<stop  offset="1" style="stop-color:#706D72"/>
				</linearGradient>
				<path fill="url(#SVGID_4_)" d="M503.861,739.632c-3.21,42.7-5.189,81.938-7.103,119.883c-1.588,31.476-3.088,61.203-5.22,92.293
					l33.045,2.264c2.154-31.39,3.659-61.263,5.255-92.892c1.902-37.746,3.874-76.775,7.051-119.068L503.861,739.632z"/>
				<path fill="#88838C" d="M519.342,740.795c-3.194,42.507-5.168,81.649-7.076,119.502c-1.593,31.545-3.094,61.342-5.237,92.572
					l2.066,0.143c2.142-31.251,3.645-61.056,5.237-92.613c1.908-37.84,3.882-76.966,7.077-119.45L519.342,740.795z"/>
				<g>
					<path fill="#AFAFAF" d="M507.357,843.185c-2.986-0.727-6.199-1.263-9.687-1.625c-0.036,0.69-0.071,1.383-0.107,2.069
						c3.354,0.348,6.44,0.869,9.306,1.565L507.357,843.185z"/>
					<path fill="#AFAFAF" d="M506.859,848.315c-3.124,0.791-6.41,1.232-9.617,1.641c-0.035,0.701-0.072,1.399-0.107,2.101
						c3.384-0.428,6.87-0.884,10.232-1.736L506.859,848.315z"/>
				</g>
			</g>
			<g>
				<polygon fill="#606060" points="593.605,368.15 571.771,420.052 579.405,423.259 601.239,371.357 				"/>
				<path fill="#E3BB94" d="M603.297,453.324c-1.184-5.473-8.284-14.629-10.964-17.841c-8.125-9.74-18.314-22.165-24.229-42.952
					c-9.829-34.561-17.766-56.719-17.766-56.719s-13.098,1.557-32.841,6.904c-19.001,34.576-27.058,109.913-27.429,134.222
					c-1.907,55.049,11.856,79.584,46.602,90.135v0.003C567.375,538.898,615.101,507.842,603.297,453.324z"/>
				<g>
					<path fill="#C1916B" d="M567.135,425.576c-6.9,3.56-14.895,1.804-17.857-3.931c-2.96-5.728,0.232-13.258,7.136-16.818
						c6.899-3.56,14.893-1.803,17.851,3.925C577.227,414.487,574.035,422.014,567.135,425.576z"/>
					<path fill="#FFFFFF" d="M565.993,426.165c-5.796,2.99-12.683,1.198-15.375-4.011c-2.689-5.208-0.162-11.855,5.63-14.844
						c5.806-2.998,12.695-1.207,15.389,4C574.326,416.52,571.799,423.169,565.993,426.165z"/>
					
						<radialGradient id="SVGID_5_" cx="2854.1123" cy="555.9933" r="5.4869" gradientTransform="matrix(-1.0008 0 0 -1 3417.467 975)" gradientUnits="userSpaceOnUse">
						<stop  offset="0" style="stop-color:#3A3A3A"/>
						<stop  offset="0.5716" style="stop-color:#272725"/>
						<stop  offset="1" style="stop-color:#1D1D1B"/>
					</radialGradient>
					<path fill="url(#SVGID_5_)" d="M556.528,421.347c1.482,2.863,4.712,4.143,7.224,2.848c2.517-1.298,3.34-4.672,1.862-7.536
						c-1.479-2.863-4.716-4.134-7.226-2.839C555.879,415.116,555.049,418.482,556.528,421.347z"/>
					<path fill="#FFFFFF" d="M558.639,416.964c0.929,1.792,0.515,3.843-0.918,4.581c-1.436,0.741-3.345-0.111-4.27-1.901
						c-0.926-1.793-0.514-3.843,0.919-4.583C555.801,414.324,557.717,415.173,558.639,416.964z"/>
				</g>
				<path fill="#1D1D1B" d="M604.891,381.623c-3.032-7.465-6.164-19.466-6.164-19.466c-4.793,0.607-14.308,2.945-20.736,5.675
					c-7.97,3.39-23.643,11.989-37.505,27.81c-2.36,2.685-5.484,4.341-5.965,4.558l5.592,12.696c0,0,5.447,15.566,29.532,24.221
					c12.321,4.427,32.327-4.649,38.174-20.307C613.664,401.154,606.806,386.337,604.891,381.623z M602.752,417.276
					c-5.701,9.099-19.416,17.325-29.923,15.778c-10.261-1.511-19.946-13.369-24.471-25.039c-2.941-7.611,5.421-17.565,9.95-22.02
					c5.439-5.339,21.159-16.784,30.061-13.232c2.26,0.906,9.033,3.651,12.713,12.562
					C604.76,394.236,608.448,408.167,602.752,417.276z"/>
				
					<radialGradient id="SVGID_6_" cx="2862.6094" cy="453.1552" r="33.4265" gradientTransform="matrix(-1.0008 0 0 -1 3417.467 975)" gradientUnits="userSpaceOnUse">
					<stop  offset="0" style="stop-color:#D2948B"/>
					<stop  offset="1" style="stop-color:#AA6963"/>
				</radialGradient>
				<path fill="url(#SVGID_6_)" d="M575.29,520.005c-8.212,3.206-22.378,11.345-24.484-18.65
					c-10.035-0.469-35.466,1.273-35.466,1.273s12.145,37.148,30.163,34.626C563.523,534.732,575.29,520.005,575.29,520.005z"/>
				
					<linearGradient id="SVGID_7_" gradientUnits="userSpaceOnUse" x1="94.2096" y1="539.8814" x2="-58.8246" y2="461.9012" gradientTransform="matrix(1 0 0 -1 496.2168 975)">
					<stop  offset="0" style="stop-color:#F9E8D8"/>
					<stop  offset="0.8321" style="stop-color:#F5DCC4"/>
					<stop  offset="1" style="stop-color:#F4D9BF"/>
				</linearGradient>
				<path fill="url(#SVGID_7_)" d="M592.659,435.101c-27.604,2.574-44.057-9.208-50.661-18.982
					c-6.4-9.454-19.414-47.506-25.574-72.639c-16.27,4.675-37.041,12.009-58.699,23.249c-17.285,8.97-48.066,38.932-59.306,45.915
					c19.767,31.432,68.583,111.832,79.426,194.383c5.854,7.359,25.672,14.412,37.976,0c0.335-12.653,9.259-26.972,23.184-39.505
					c28.36-25.526,36.285-47.518,36.285-47.518c-25.521,24.585-54.076,10.259-56.78-16.6c12.738,5.824,54.202,1.449,59.195-7.494
					c-7.446-6.211-9.235-16.475-7.341-23.803c15.854-3.754,26.93-11.359,33.529-19.338
					C610.647,444.61,610.13,433.47,592.659,435.101z"/>
				
					<radialGradient id="SVGID_8_" cx="-16.0639" cy="624.0854" r="153.2561" gradientTransform="matrix(1.0008 0 0 -1 496.2227 975)" gradientUnits="userSpaceOnUse">
					<stop  offset="0" style="stop-color:#CA9E67"/>
					<stop  offset="1" style="stop-color:#7D4E24"/>
				</radialGradient>
				<path fill="url(#SVGID_8_)" d="M469.823,483.015c-16.711-13.36-39.85-39.348-42.994-59.367
					c26.514-21.892,35.882-51.175,42.581-53.498c7.867-2.728,42.474,2.911,50.391,0c33.795-12.425,59.967-63.6,31.003-97.404
					c-1.651,14.224-1.651,24.052-5.619,30.412c0-11.334-7.128-36.401-19.543-45.158c-4.888,18.04-18.017,40.135-35.587,48.891
					c4.915-14.594,0-27-4.39-37.216c-15.933,67.714-92.937,116.993-114.115,123.808c13.876,34.679,48.333,88.015,70.323,105.204
					L469.823,483.015z"/>
				<g>
					<path fill="#CA9E67" d="M423.386,445.103l-1.289,0.661c0.85,1.661,2.101,3.725,3.423,5.909
						c1.666,2.748,3.551,5.863,4.875,8.586l1.304-0.633c-1.353-2.782-3.258-5.928-4.938-8.703
						C425.453,448.762,424.214,446.72,423.386,445.103z"/>
					<path fill="#CA9E67" d="M414.832,443.508l-1.162,0.864c1.439,1.935,3.244,4.926,4.988,7.816
						c1.893,3.137,3.85,6.381,5.458,8.487l1.154-0.878c-1.561-2.043-3.498-5.253-5.372-8.357
						C418.138,448.52,416.315,445.499,414.832,443.508z"/>
					<path fill="#CA9E67" d="M413.028,450.435l-1.18,0.838l1.2,1.684c2.464,3.452,4.797,6.713,6.138,9.067l1.259-0.718
						c-1.38-2.417-3.729-5.707-6.219-9.19L413.028,450.435z"/>
					<path fill="#CA9E67" d="M538.969,302.093l-1.441,0.157c1.249,11.482-6.136,29.145-15.196,36.345l0.903,1.134
						C532.616,332.272,540.266,313.982,538.969,302.093z"/>
					<path fill="#CA9E67" d="M526.609,321.284c-2.244,6.687-8.896,17.134-14.105,20.582l0.801,1.208
						c5.531-3.662,12.312-14.28,14.679-21.327L526.609,321.284z"/>
					<path fill="#CA9E67" d="M526.147,315.252l-1.419-0.302c-0.786,3.699-2.596,8.452-3.947,10.379l1.188,0.832
						C523.411,324.101,525.324,319.106,526.147,315.252z"/>
					<path fill="#CA9E67" d="M428.014,410.546l1.283,0.673c1.555-2.967,4.153-7.931,5.772-13.53l-1.393-0.402
						C432.221,402.324,430.082,406.6,428.014,410.546z"/>
					<path fill="#CA9E67" d="M429.38,392.71h-1.45c0,5.648-3.607,20.366-4.548,23.32l1.379,0.439
						C425.751,413.367,429.38,398.606,429.38,392.71z"/>
					<path fill="#CA9E67" d="M422.299,407.046l0.123-1.71l-1.445-0.105l-0.124,1.712c-0.186,2.569-0.345,4.79-0.548,6.443
						l1.438,0.177C421.951,411.873,422.111,409.636,422.299,407.046z"/>
					<path fill="#CA9E67" d="M422.897,397.52l-1.449-0.063c-0.042,0.969-0.115,2.385-0.218,4.032l1.447,0.088
						C422.779,399.919,422.854,398.495,422.897,397.52z"/>
				</g>
				<g>
					<path fill="#DDB180" d="M459.352,339.95l0.54,1.342c12.883-5.18,22.524-19.79,26.189-27.605l-1.313-0.616
						C481.441,320.172,471.843,334.926,459.352,339.95z"/>
					<path fill="#DDB180" d="M454.008,351.379v1.448c4.593,0,11.143-3.023,14.971-5.867l-0.863-1.162
						C464.42,348.542,458.134,351.379,454.008,351.379z"/>
					<path fill="#DDB180" d="M458.104,346.358l0.361,1.403c6.22-1.597,14.219-6.551,18.61-11.524l-1.087-0.958
						C471.767,340.061,464.078,344.824,458.104,346.358z"/>
				</g>
				<polygon fill="#1D1D1B" points="445.144,439.245 433.343,488.589 441.367,490.627 453.17,441.284 				"/>
				
					<linearGradient id="SVGID_9_" gradientUnits="userSpaceOnUse" x1="90.0691" y1="548.0744" x2="-62.8021" y2="470.1772" gradientTransform="matrix(1 0 0 -1 496.2168 975)">
					<stop  offset="0" style="stop-color:#F9E8D8"/>
					<stop  offset="0.8321" style="stop-color:#F5DCC4"/>
					<stop  offset="1" style="stop-color:#F4D9BF"/>
				</linearGradient>
				<path fill="url(#SVGID_9_)" d="M449.6,478.457c-3.349,0-32.629,10.983-16.754,32.164c9.643,12.861,28.77,0.525,31.395-6.255
					L449.6,478.457z"/>
				<path fill="#D8AC7C" d="M439.438,494.501c2.967-2.255,8.197-1.209,10.771,2.978c2.572,4.186-3.334,5.491-4.037,1.35
					C445.007,491.98,439.438,494.501,439.438,494.501z"/>
				
					<radialGradient id="SVGID_10_" cx="3465.4919" cy="583.4994" r="51.9295" gradientTransform="matrix(-1.0008 0 0 -1 3975.8186 975)" gradientUnits="userSpaceOnUse">
					<stop  offset="0" style="stop-color:#CA9E67"/>
					<stop  offset="1" style="stop-color:#7D4E24"/>
				</radialGradient>
				<path fill="url(#SVGID_10_)" d="M463.701,422.903c0.374-0.268,2.362-9.603,3.412-11.219
					c2.741-4.225,29.757-28.935,29.757-28.935l10.755,9.851C507.303,399.572,472.95,416.276,463.701,422.903z"/>
				
					<radialGradient id="SVGID_11_" cx="3403.3855" cy="612.4148" r="46.6498" gradientTransform="matrix(-1.0008 0 0 -1 3975.8186 975)" gradientUnits="userSpaceOnUse">
					<stop  offset="0" style="stop-color:#CA9E67"/>
					<stop  offset="1" style="stop-color:#7D4E24"/>
				</radialGradient>
				<path fill="url(#SVGID_11_)" d="M531.776,388.698c0.322-0.233,2.048-8.321,2.955-9.723c2.375-3.657,25.786-25.07,25.786-25.07
					l9.316,8.537C569.555,368.482,539.788,382.957,531.776,388.698z"/>
				<g>
					<path fill="#E3BB94" d="M506.928,458.181c8.961-4.622,13.498-13.643,10.129-20.16c-3.364-6.509-13.352-8.037-22.311-3.414
						c-8.962,4.624-13.496,13.646-10.133,20.155C487.981,461.278,497.966,462.806,506.928,458.181z"/>
					<path fill="#FFFFFF" d="M508.408,457.418c7.525-3.883,11.161-11.833,8.101-17.751c-3.058-5.916-11.647-7.557-19.174-3.674
						c-7.537,3.889-11.174,11.839-8.116,17.755C492.278,459.668,500.869,461.308,508.408,457.418z"/>
					
						<radialGradient id="SVGID_12_" cx="2914.5977" cy="524.2181" r="6.2153" gradientTransform="matrix(-1.0008 0 0 -1 3417.467 975)" gradientUnits="userSpaceOnUse">
						<stop  offset="0" style="stop-color:#3A3A3A"/>
						<stop  offset="0.5716" style="stop-color:#272725"/>
						<stop  offset="1" style="stop-color:#1D1D1B"/>
					</radialGradient>
					<path fill="url(#SVGID_12_)" d="M495.346,453.458c1.666,3.219,5.337,4.641,8.207,3.16c2.875-1.484,3.84-5.296,2.176-8.517
						c-1.665-3.223-5.339-4.634-8.206-3.154C494.652,446.427,493.68,450.232,495.346,453.458z"/>
					<path fill="#FFFFFF" d="M498.322,448.177c0.926,1.792,0.224,3.993-1.569,4.918c-1.793,0.923-3.995,0.222-4.919-1.568
						c-0.928-1.793-0.223-3.992,1.568-4.917C495.194,445.686,497.396,446.386,498.322,448.177z"/>
				</g>
				<path fill="#1D1D1B" d="M541.449,411.966l-6.929-11.767c-1.93,1.131-8.248,3.876-12.513,4.384
					c-25.104,2.973-45.434,12.58-54.915,18.123c-7.646,4.473-17.487,12.243-21.949,16.539c0,0,7.84,11.143,11.828,19.139
					c2.517,5.048,9.739,21.743,28.117,26.526c18.384,4.792,42.693-8.742,48.954-23.816c6.008-14.455,2.366-34.052,2.114-40.086
					C535.908,414.974,541.449,411.966,541.449,411.966z M527.905,461.491c-7.28,11.351-25.678,19.287-38.249,18.762
					c-12.581-0.533-21.637-13.517-26.346-23.121c-4.71-9.6-1.533-18.092-0.459-20.922c4.225-11.126,27.058-18.865,36.155-20.615
					c7.579-1.448,23.081-2.961,27.266,5.04C532.685,432.923,535.017,450.399,527.905,461.491z"/>
			</g>
			<g>
				<path fill="#E3BB94" d="M342.309,639.719l6.767-20.898c0,0,0.134-13.309,12.582-18.739c0,0-2.563-3.233-5.855-3.438
					c-3.697-0.232-11.689,2.194-12.865,11.225c-2.235-4.638-17.731-38.303-19.681-42.002c0,0-5.55,1.958-3.662,5.975
					c1.884,4.022,8.945,19.726,9.391,21.079c0.445,1.352-2.343,2.427-3.054,1.326c-0.707-1.104-12.391-20.732-14.746-22.143
					c-3.107-1.862-5.689,1.943-5.689,1.943s14.926,21.1,15.834,22.83c0.909,1.727-1.198,3.167-2.19,2.123
					c-0.987-1.037-11.781-13.607-14.856-15.313c-3.071-1.701-5.285,1.711-5.285,1.711s15.362,17.179,16.284,18.282
					c0.921,1.105-0.524,3.207-1.869,1.921c-1.349-1.288-6.759-8.463-9.247-9.355c-2.485-0.898-4.968,2.365-4.968,2.365
					l12.762,12.152l16.953,34.527L342.309,639.719z"/>
				
					<linearGradient id="SVGID_13_" gradientUnits="userSpaceOnUse" x1="348.5348" y1="288.8352" x2="232.9036" y2="316.3668" gradientTransform="matrix(1 0 0 -1 84 975)">
					<stop  offset="0" style="stop-color:#423F44"/>
					<stop  offset="0.3088" style="stop-color:#555257"/>
					<stop  offset="0.7194" style="stop-color:#69666B"/>
					<stop  offset="1" style="stop-color:#706D72"/>
				</linearGradient>
				<path fill="url(#SVGID_13_)" d="M435.895,635.452c-11.793,38.271-33.314,58.133-47.615,57.406
					c-11.888-0.61-27.793-17.365-36.78-62.568l-32.487,6.447c14.979,75.342,48.762,88.209,67.568,89.175
					c0.827,0.043,1.648,0.063,2.474,0.063c32.169,0,63.48-32.06,78.495-80.783L435.895,635.452z"/>
				<g>
					<path fill="#AFAFAF" d="M388.064,702.658c-2.551-3.389-5.414-8.127-7.809-12.505c-1.274-0.781-2.563-1.735-3.858-2.882
						c2.709,5.324,6.63,12.135,10.012,16.63L388.064,702.658z"/>
					<path fill="#AFAFAF" d="M394.354,702.1c-1.704-2.588-3.318-5.804-4.691-9.235c-0.468,0.019-0.93,0.017-1.383-0.006
						c-0.292-0.015-0.588-0.049-0.884-0.083c1.494,3.888,3.312,7.549,5.23,10.462L394.354,702.1z"/>
				</g>
			</g>
			<g>
				<g>
					<path fill="#E3BB94" d="M673.087,478.035c0,0,1.144-21.644,1.3-25.386c0.156-3.741-5.088-4.786-5.088-4.786l-6.16,48.494
						c-0.802-5.744-6.795-14.586-11.901-14.394c-3.829,0.143-5.154,3.503-5.154,3.503c5.724,3.125,11.074,12.761,10.325,18.884
						l8.924,16.818l16.323,6.508l18.271-20.134L701,487.9L673.087,478.035z"/>
					<polygon fill="#FFFFFF" points="686.341,502.672 680.32,500.885 683.584,481.748 682.161,481.248 678.963,500.006 
						673.72,495.595 674.648,478.591 673.192,478.073 672.195,496.255 678.996,501.975 686.378,504.231 694.248,504.686 
						698.173,495.606 696.809,495.017 693.298,503.148 687.826,502.848 691.996,484.718 690.588,484.225 					"/>
				</g>
				
					<linearGradient id="SVGID_14_" gradientUnits="userSpaceOnUse" x1="467.4939" y1="307.7508" x2="610.6048" y2="443.1563" gradientTransform="matrix(1 0 0 -1 84 975)">
					<stop  offset="0" style="stop-color:#423F44"/>
					<stop  offset="0.3088" style="stop-color:#555257"/>
					<stop  offset="0.7194" style="stop-color:#69666B"/>
					<stop  offset="1" style="stop-color:#706D72"/>
				</linearGradient>
				<path fill="url(#SVGID_14_)" d="M659.315,520.815c-5.977,102.574-86.299,117.89-133.644,117.89v33.098
					c43.679,0,81.72-11.226,110.013-32.465c34.63-25.996,53.706-65.224,56.698-116.599L659.315,520.815z"/>
				<g>
					<path fill="#AFAFAF" d="M634.628,615.975l1.786-1.049c-0.145-0.248-0.402-0.67-0.744-1.234
						c-1.453-2.396-4.546-7.505-7.083-12.274c-0.496,0.527-0.997,1.055-1.505,1.57c2.506,4.653,5.414,9.462,6.818,11.776
						C634.235,615.316,634.485,615.732,634.628,615.975z"/>
					<path fill="#AFAFAF" d="M628.95,621.733c-2.395-4.271-4.075-10.31-4.977-15.721c-0.596,0.556-1.192,1.109-1.799,1.645
						c0.986,5.273,2.649,10.949,4.972,15.088L628.95,621.733z"/>
				</g>
			</g>
			<g>
				<polygon fill="#635F66" points="432.364,634.218 441.164,770.592 543.495,751.11 538.769,623.896 517.541,626.527 
					493.885,629.461 475.21,626.804 				"/>
				<g>
					<polygon fill="#D4E6E8" points="515.821,607.027 515.821,619.761 516.623,628.566 506.414,722.877 480.139,632.631 
						477.457,615.479 477.845,607.027 503.277,611.662 					"/>
					<polygon fill="#D60712" points="505.488,634.597 516.828,674.818 505.872,722.877 491.444,683.683 500.021,634.438 
						496.475,627.796 503.557,616.639 507.71,626.642 					"/>
					<polygon fill="#9B989E" points="515.821,619.761 504.137,740.872 528.644,648.881 517.992,645.813 527.964,639.357 					"/>
					<polygon fill="#9B989E" points="477.457,615.479 507.799,723.826 506.211,728.512 467.053,652.447 477.564,648.196 
						463.631,640.42 					"/>
					<polygon fill="#A3B6B7" points="512.068,626.265 509.136,629.059 503.703,614.985 494.56,630.122 481.523,621.493 
						480.717,622.711 495.026,632.18 503.412,618.29 508.559,631.624 513.074,627.322 					"/>
				</g>
			</g>
		</g>
		<g>
			<g>
				
					<radialGradient id="SVGID_15_" cx="248.1514" cy="532.8651" r="78.5296" gradientTransform="matrix(1.5438 0 0 -1.5458 -224.5941 1251.3995)" gradientUnits="userSpaceOnUse">
					<stop  offset="0" style="stop-color:#FCEA10"/>
					<stop  offset="0.2897" style="stop-color:#F9D00B"/>
					<stop  offset="1" style="stop-color:#F39200"/>
				</radialGradient>
				<path fill="url(#SVGID_15_)" d="M140.838,354.26C110.676,367.947,90,395.871,90,428.121c0,45.754,41.587,82.843,92.888,82.843
					c10.569,0,20.714-1.596,30.182-4.496c17.844,29.755,50.42,53.83,81.066,54.532c-32.363-13.99-48.958-42.479-56.723-65.827
					c23.239-15.058,38.362-39.474,38.362-67.053c0-22.831-10.358-43.501-27.106-58.485c-11.917,3.441-24.44,5.225-37.081,5.225
					C185.097,374.86,160.608,367.193,140.838,354.26z"/>
				<g>
					<path fill="#FFFFFF" d="M174.509,410.65c0.249,7.971-0.163,15.963-0.606,23.957c-4.835,0.486-9.613,1.388-14.438,1.973
						c-0.115-8.508-0.193-17.013-0.142-25.553c0.018-2.99-4.614-2.99-4.632,0c-0.09,15.107,0.211,30.105,0.438,45.2
						c0.045,2.987,4.677,2.992,4.631,0c-0.075-5.015-0.155-10.018-0.229-15.019c4.714-0.576,9.391-1.446,14.115-1.936
						c-0.297,5.527-0.552,11.054-0.552,16.575c0,2.99,4.631,2.99,4.631,0c0-15.058,1.885-30.164,1.414-45.197
						C179.047,407.668,174.415,407.658,174.509,410.65z"/>
					<path fill="#FFFFFF" d="M207.536,409.628c-0.202-0.119-0.403-0.192-0.599-0.247c-20.793-7.147-26.556,38.416-12.292,47.704
						c4.139,2.695,9.33,1.407,12.951-1.309c5.167-3.876,5.696-11.08,6.487-16.967c0.751-5.59,0.276-11.954,0.083-17.636
						C213.996,416.15,211.859,412.149,207.536,409.628z M209.48,429.986c0.28,7.227,0.896,25.902-11.306,23.562
						c-13.609-2.612-6.926-44.006,7.248-39.765C211.152,417.339,209.259,424.301,209.48,429.986z"/>
					<path fill="#FFFFFF" d="M142.255,410.673c-0.118,6.542-0.961,13.129-1.652,19.628c-0.538,5.058-1.179,10.107-2.004,15.128
						c-0.197,1.203-0.344,3.09-0.683,4.855c-2.681-4.958-5.643-9.774-8.331-14.719c-0.764-1.406-3.3-1.621-3.998,0
						c-2.007,4.652-3.353,9.771-5.53,14.405c-2.623-12.768-3.765-26.495-3.905-39.298c-0.033-2.988-4.665-2.991-4.631,0
						c0.165,15.082,1.711,31.495,5.34,46.171c0.526,2.128,3.116,2.059,4.232,0.553c3.332-4.492,4.966-9.997,6.861-15.276
						c2.79,4.863,5.691,9.676,8.147,14.707c0.639,1.312,2.681,1.526,3.637,0.47c4.209-4.653,3.983-14.586,4.731-20.425
						c1.106-8.636,2.261-17.48,2.418-26.2C146.941,407.682,142.31,407.688,142.255,410.673z"/>
					<path fill="#FFFFFF" d="M231.775,410.417c-1.907,2.273,1.353,5.572,3.275,3.279c6.014-7.17,23.07,0.03,15.803,9.299
						c-4.958,6.325-11.276,10.503-11.105,19.376c0.057,2.987,4.689,2.991,4.632,0c-0.216-11.283,16.926-16.157,12.143-28.04
						C252.961,405.478,237.852,403.171,231.775,410.417z"/>
					<path fill="#FFFFFF" d="M241.198,452.941c-4.233,0-4.233,6.573,0,6.573C245.432,459.514,245.432,452.941,241.198,452.941z"/>
				</g>
			</g>
			<g>
				
					<radialGradient id="SVGID_16_" cx="267.651" cy="637.8597" r="97.2656" gradientTransform="matrix(1.5438 0 0 -1.5458 -224.5941 1251.3995)" gradientUnits="userSpaceOnUse">
					<stop  offset="0" style="stop-color:#F53D45"/>
					<stop  offset="1" style="stop-color:#D30909"/>
				</radialGradient>
				<path fill="url(#SVGID_16_)" d="M232.219,174.638c-6.689-1.085-13.578-1.679-20.629-1.679
					c-61.925,0-112.121,43.726-112.121,97.663c0,53.94,50.196,97.665,112.121,97.665c20.525,0,39.746-4.829,56.294-13.217
					c15.268,27.39,37.953,52.369,67.21,61.763c-19.291-20.413-35.825-49.877-43.172-78.113
					c19.66-17.594,31.789-41.605,31.789-68.098c0-6.752-0.787-13.345-2.286-19.71c-22.043-4.897-42.216-15.03-58.441-29.611
					C248.238,208.051,237.796,192.042,232.219,174.638z"/>
				<g>
					<path fill="#FFFFFF" d="M227.39,285.943c0.271-0.853,0.089-1.857-0.541-2.484c-0.421-1.832-0.898-3.652-1.488-5.449
						c-2.563-7.819-5.147-15.657-7.039-23.668c-0.452-1.917-3.311-2.321-4.232-0.553c-3.846,7.374-7.33,15.064-10.575,22.72
						c-3.106,7.328-7.041,14.966-9.262,22.619c-0.835,2.878,3.635,4.098,4.466,1.233c1.09-3.756,2.778-7.349,4.458-10.95
						c6.562-0.584,13.073-1.571,19.655-1.846c0.976,4.571,1.894,9.142,3.373,13.554c0.945,2.82,5.419,1.61,4.466-1.232
						C229.148,295.345,228.367,290.632,227.39,285.943z M205.35,284.57c0.497-1.172,0.975-2.352,1.395-3.549
						c2.31-6.611,5.406-13.228,8.624-19.598c1.444,5.218,3.112,10.378,4.779,15.529c0.644,1.987,1.181,4,1.663,6.023
						C216.301,283.265,210.837,284.016,205.35,284.57z"/>
					<path fill="#FFFFFF" d="M260.112,252.929c-8.494,0.027-16.985,0.35-25.479,0.379c-2.987,0.011-2.987,4.647,0,4.637
						c3.262-0.01,6.525-0.068,9.788-0.132c-0.173,14.24-1.189,28.514,0.636,42.689c0.377,2.923,5.013,2.96,4.631,0
						c-1.83-14.206-0.805-28.509-0.635-42.779c3.687-0.075,7.373-0.145,11.059-0.156
						C263.099,257.558,263.099,252.92,260.112,252.929z"/>
					<path fill="#FFFFFF" d="M187.886,254.925c-0.094-2.982-4.725-2.992-4.631,0c0.25,7.971-0.163,15.962-0.607,23.957
						c-4.836,0.486-9.614,1.386-14.437,1.973c-0.115-8.508-0.193-17.015-0.142-25.553c0.018-2.992-4.613-2.989-4.631,0
						c-0.09,15.105,0.211,30.106,0.435,45.2c0.045,2.987,4.677,2.992,4.632,0c-0.074-5.015-0.154-10.018-0.228-15.019
						c4.716-0.577,9.392-1.446,14.115-1.937c-0.297,5.528-0.552,11.055-0.552,16.576c0,2.99,4.632,2.99,4.632,0
						C186.472,285.064,188.356,269.957,187.886,254.925z"/>
					<path fill="#FFFFFF" d="M147.639,254.947c-0.118,6.542-0.96,13.129-1.652,19.626c-0.538,5.06-1.179,10.109-2.003,15.131
						c-0.198,1.202-0.344,3.089-0.683,4.855c-2.681-4.958-5.643-9.776-8.331-14.72c-0.764-1.405-3.3-1.619-3.998,0
						c-2.007,4.651-3.353,9.771-5.53,14.406c-2.622-12.771-3.765-26.496-3.905-39.299c-0.033-2.988-4.665-2.992-4.631,0
						c0.165,15.082,1.711,31.495,5.34,46.171c0.526,2.128,3.116,2.059,4.232,0.553c3.332-4.494,4.966-9.998,6.861-15.278
						c2.79,4.864,5.691,9.679,8.147,14.709c0.639,1.313,2.681,1.526,3.637,0.469c4.21-4.653,3.985-14.584,4.731-20.422
						c1.107-8.638,2.261-17.482,2.419-26.202C152.325,251.955,147.693,251.96,147.639,254.947z"/>
					<path fill="#FFFFFF" d="M278.564,254.691c-1.907,2.273,1.352,5.572,3.274,3.279c6.014-7.172,23.07,0.03,15.803,9.301
						c-4.958,6.323-11.276,10.503-11.105,19.373c0.058,2.986,4.689,2.992,4.632,0c-0.216-11.282,16.926-16.156,12.143-28.041
						C299.75,249.753,284.64,247.444,278.564,254.691z"/>
					<path fill="#FFFFFF" d="M287.987,297.215c-4.234,0-4.234,6.573,0,6.573S292.221,297.215,287.987,297.215z"/>
				</g>
			</g>
			<g>
				
					<radialGradient id="SVGID_17_" cx="356.15" cy="724.8553" r="108.0994" gradientTransform="matrix(1.5438 0 0 -1.5458 -224.5941 1251.3995)" gradientUnits="userSpaceOnUse">
					<stop  offset="0" style="stop-color:#ED5797"/>
					<stop  offset="0.4368" style="stop-color:#E12E72"/>
					<stop  offset="0.7893" style="stop-color:#D9155B"/>
					<stop  offset="1" style="stop-color:#D60B52"/>
				</radialGradient>
				<path fill="url(#SVGID_17_)" d="M447.182,90.202c0-2.061,0.105-4.1,0.258-6.129c-21.492-25.508-56.141-42.078-95.247-42.078
					c-65.221,0-118.093,46.059-118.093,102.867c0,55.63,50.704,100.907,114.046,102.778c7.475,22.165,24.473,57.054,61.728,74.916
					c-20.736-27.659-33.302-58.811-36.392-76.528c53.95-8.563,95.103-49.04,96.724-98.165
					C455.326,131.442,447.182,111.202,447.182,90.202z"/>
				<g>
					<path fill="#FFFFFF" d="M351.799,170.539c-6.438-0.142-12.87-0.228-19.306-0.15c1.099-7.345,0.81-14.673,0.249-22.009
						c2.831-0.013,5.661-0.069,8.48-0.374c2.937-0.317,2.968-4.958,0-4.638c-2.944,0.318-5.9,0.366-8.857,0.374
						c-0.392-4.622-0.787-9.252-0.917-13.894c6.518,0.01,13.023,0.509,19.541,0.559c2.988,0.023,2.985-4.615,0-4.638
						c-7.305-0.054-14.593-0.711-21.9-0.567c-1.431,0.026-2.169,1.111-2.227,2.224c-0.055,0.203-0.092,0.419-0.089,0.663
						c0.178,14.428,3.608,28.923,0.891,43.285c-0.003,0.012-0.001,0.025-0.003,0.039c-0.896,1.374-0.292,3.698,1.832,3.653
						c7.438-0.158,14.868-0.055,22.306,0.111C354.787,175.241,354.781,170.603,351.799,170.539z"/>
					<path fill="#FFFFFF" d="M414.936,170.539c-6.438-0.142-12.87-0.228-19.306-0.15c1.099-7.345,0.81-14.673,0.249-22.009
						c2.831-0.013,5.661-0.069,8.479-0.374c2.936-0.317,2.967-4.958,0-4.638c-2.943,0.318-5.9,0.366-8.856,0.374
						c-0.392-4.622-0.787-9.252-0.918-13.894c6.518,0.01,13.022,0.509,19.541,0.559c2.988,0.023,2.985-4.615,0-4.638
						c-7.306-0.054-14.591-0.711-21.9-0.567c-1.431,0.026-2.169,1.111-2.229,2.224c-0.053,0.203-0.09,0.419-0.087,0.663
						c0.178,14.428,3.612,28.923,0.891,43.285c-0.003,0.012-0.001,0.025-0.003,0.039c-0.896,1.374-0.293,3.698,1.831,3.653
						c7.439-0.158,14.87-0.055,22.308,0.111C417.925,175.241,417.918,170.603,414.936,170.539z"/>
					<path fill="#FFFFFF" d="M371.266,149.149c3.781-2.953,6.828-7.104,7.596-11.57c1.369-7.96-8.467-11.522-14.519-12.269
						c-1.007-0.124-1.658,0.336-1.977,1.005c-0.441,0.375-0.739,0.936-0.74,1.692c-0.022,14.949-0.405,29.903,0,44.849
						c0.082,2.984,4.713,2.992,4.632,0c-0.187-6.876-0.198-13.752-0.163-20.628c0.428-0.182,0.854-0.379,1.279-0.593
						c5.073,7.187,8.924,15.177,13.979,22.392c1.701,2.427,5.718,0.114,3.998-2.34C380.26,164.423,376.392,156.372,371.266,149.149z
						 M373.805,138.664c-1.46,3.346-4.375,6.518-7.68,8.403c0.045-5.594,0.098-11.189,0.119-16.783
						C370.452,131.228,375.933,133.782,373.805,138.664z"/>
					<path fill="#FFFFFF" d="M313.179,127.28c0.25,7.97-0.163,15.962-0.606,23.957c-4.837,0.486-9.614,1.386-14.437,1.973
						c-0.115-8.508-0.193-17.013-0.142-25.552c0.018-2.991-4.614-2.991-4.632,0c-0.09,15.107,0.211,30.105,0.436,45.199
						c0.045,2.988,4.677,2.992,4.631,0c-0.074-5.014-0.154-10.018-0.228-15.018c4.716-0.577,9.391-1.446,14.115-1.937
						c-0.297,5.527-0.552,11.054-0.552,16.575c0,2.991,4.631,2.991,4.631,0c0-15.058,1.884-30.165,1.414-45.196
						C317.717,124.297,313.085,124.289,313.179,127.28z"/>
					<path fill="#FFFFFF" d="M283.272,153.503c1.107-8.637,2.262-17.481,2.418-26.2c0.054-2.992-4.577-2.986-4.631,0
						c-0.118,6.543-0.961,13.129-1.652,19.627c-0.54,5.059-1.179,10.108-2.004,15.129c-0.197,1.204-0.344,3.09-0.683,4.855
						c-2.68-4.958-5.643-9.774-8.331-14.718c-0.765-1.407-3.3-1.621-3.999,0c-2.006,4.65-3.353,9.769-5.53,14.404
						c-2.623-12.768-3.765-26.494-3.905-39.296c-0.033-2.989-4.665-2.992-4.632,0c0.166,15.082,1.711,31.494,5.34,46.171
						c0.526,2.127,3.116,2.058,4.232,0.553c3.332-4.493,4.965-9.998,6.861-15.277c2.789,4.864,5.691,9.676,8.148,14.708
						c0.639,1.312,2.681,1.526,3.636,0.47C282.751,169.275,282.525,159.342,283.272,153.503z"/>
					<path fill="#FFFFFF" d="M428.349,127.046c-1.907,2.273,1.353,5.572,3.274,3.279c6.014-7.171,23.07,0.029,15.803,9.299
						c-4.958,6.325-11.274,10.504-11.105,19.376c0.057,2.987,4.689,2.992,4.631,0c-0.216-11.283,16.926-16.157,12.143-28.04
						C449.534,122.107,434.424,119.8,428.349,127.046z"/>
					<path fill="#FFFFFF" d="M437.771,169.57c-4.233,0-4.233,6.573,0,6.573S442.005,169.57,437.771,169.57z"/>
				</g>
			</g>
			<g>
				
					<radialGradient id="SVGID_18_" cx="650.1428" cy="603.3604" r="90.619" gradientTransform="matrix(1.5438 0 0 -1.5458 -224.5941 1251.3995)" gradientUnits="userSpaceOnUse">
					<stop  offset="0" style="stop-color:#36A9E1"/>
					<stop  offset="1" style="stop-color:#1D71B8"/>
				</radialGradient>
				<path fill="url(#SVGID_18_)" d="M823.035,244.884c-22.054,26.593-58.307,43.999-99.246,43.999c-1.234,0-2.47-0.019-3.699-0.05
					c-7.777,12.124-12.194,26.014-12.194,40.778c0,22.798,10.554,43.496,27.729,58.837c-5.295,16.764-19.372,45.368-37.604,59.635
					c17.732-5.684,44.593-20.06,58.009-45.564c15.396,8.011,33.514,12.659,52.918,12.659c55.794,0,101.053-38.309,101.053-85.566
					C910,286.405,872.161,250.694,823.035,244.884z"/>
				<g>
					<path fill="#FFFFFF" d="M808.608,310.841c0.249,7.97-0.163,15.963-0.606,23.956c-4.835,0.487-9.612,1.388-14.437,1.973
						c-0.115-8.508-0.193-17.013-0.142-25.552c0.018-2.991-4.614-2.991-4.632,0c-0.091,15.106,0.211,30.104,0.438,45.199
						c0.045,2.988,4.677,2.992,4.631,0c-0.075-5.014-0.155-10.018-0.229-15.018c4.714-0.577,9.391-1.446,14.114-1.937
						c-0.297,5.527-0.552,11.054-0.552,16.575c0,2.991,4.632,2.991,4.632,0c0-15.058,1.885-30.164,1.414-45.196
						C813.146,307.858,808.515,307.849,808.608,310.841z"/>
					<path fill="#FFFFFF" d="M773.234,310.864c-0.117,6.543-0.961,13.129-1.652,19.627c-0.54,5.058-1.179,10.107-2.004,15.128
						c-0.197,1.204-0.344,3.09-0.683,4.855c-2.681-4.958-5.643-9.774-8.331-14.718c-0.765-1.407-3.301-1.621-3.999,0
						c-2.007,4.65-3.352,9.769-5.53,14.404c-2.623-12.768-3.765-26.495-3.904-39.297c-0.033-2.989-4.665-2.992-4.632,0
						c0.166,15.082,1.711,31.494,5.341,46.172c0.525,2.126,3.116,2.057,4.232,0.552c3.332-4.493,4.965-9.998,6.861-15.277
						c2.789,4.864,5.691,9.677,8.148,14.709c0.64,1.311,2.681,1.526,3.637,0.469c4.209-4.652,3.983-14.586,4.73-20.424
						c1.107-8.637,2.262-17.481,2.419-26.2C777.92,307.872,773.289,307.877,773.234,310.864z"/>
					<path fill="#FFFFFF" d="M842.449,310.755c0.012-2.992-4.619-2.989-4.631,0c-0.03,7.22-0.252,14.437-0.352,21.657
						c-4.444,0.761-8.693,0.569-8.913-4.78c-0.219-5.263-0.299-10.97,0.467-16.153c0.432-2.925-4.03-4.185-4.466-1.235
						c-0.696,4.716-0.303,9.308-0.516,14.038c-0.096,2.181-0.175,4.263,0.24,6.423c1.227,6.396,7.757,7.054,13.136,6.368
						c-0.012,3.886,0.246,7.768,0.371,11.65c0.217,6.784-8.039,6.88-8.683,0.233c-0.285-2.95-4.919-2.977-4.632,0
						c0.762,7.85,9.538,13.024,16.07,7.4c3.972-3.419,1.672-12.494,1.535-16.857C841.774,329.933,842.41,320.326,842.449,310.755z"
						/>
					<path fill="#FFFFFF" d="M881.549,314.52c-3.56-8.852-18.671-11.159-24.746-3.913c-1.907,2.273,1.352,5.573,3.274,3.28
						c6.014-7.171,23.07,0.029,15.803,9.299c-4.958,6.324-11.275,10.503-11.106,19.375c0.058,2.987,4.69,2.992,4.632,0
						C869.19,331.277,886.333,326.403,881.549,314.52z"/>
					<path fill="#FFFFFF" d="M866.226,353.131c-4.234,0-4.234,6.573,0,6.573C870.459,359.704,870.459,353.131,866.226,353.131z"/>
				</g>
			</g>
			<g>
				
					<radialGradient id="SVGID_19_" cx="594.6432" cy="697.8566" r="91.2383" gradientTransform="matrix(1.5438 0 0 -1.5458 -224.5941 1251.3995)" gradientUnits="userSpaceOnUse">
					<stop  offset="0" style="stop-color:#66C745"/>
					<stop  offset="1" style="stop-color:#1A8434"/>
				</radialGradient>
				<path fill="url(#SVGID_19_)" d="M689.663,277.95c10.783,2.833,22.244,4.36,34.126,4.36c63.55,0,115.066-43.629,115.066-97.445
					c0-53.814-51.517-97.446-115.066-97.446c-21.961,0-42.479,5.216-59.938,14.256c-2.67,18.747-11.823,36.422-26.473,50.679
					c-7.968,7.751-17.305,14.245-27.572,19.294c-0.693,4.326-1.082,8.73-1.082,13.217c0,34.94,21.725,65.565,54.345,82.764
					c-5.874,20.845-19.308,51.662-37.908,68.664C645.504,328.029,675.715,308.838,689.663,277.95z"/>
				<g>
					<path fill="#FFFFFF" d="M739.139,210.604c-6.437-0.142-12.868-0.228-19.306-0.15c1.1-7.344,0.81-14.671,0.249-22.011
						c2.831-0.012,5.661-0.067,8.481-0.373c2.937-0.317,2.967-4.958,0-4.638c-2.944,0.319-5.901,0.368-8.857,0.374
						c-0.393-4.622-0.785-9.252-0.917-13.893c6.518,0.011,13.021,0.508,19.541,0.559c2.988,0.022,2.985-4.615,0-4.638
						c-7.306-0.056-14.591-0.711-21.9-0.567c-1.431,0.028-2.169,1.111-2.229,2.224c-0.053,0.203-0.09,0.419-0.087,0.663
						c0.178,14.428,3.607,28.921,0.891,43.283c-0.003,0.016-0.001,0.027-0.003,0.041c-0.896,1.375-0.292,3.698,1.832,3.653
						c7.438-0.158,14.868-0.053,22.306,0.111C742.127,215.308,742.121,210.67,739.139,210.604z"/>
					<path fill="#FFFFFF" d="M773.343,168.474c2.361,11.259,2.048,23.269,1.794,34.947c-6.077-12.339-10.059-25.735-17.962-37.113
						c-1.297-1.87-4.236-1.232-4.315,1.169c-0.491,15.161-1.925,30.271-2.021,45.445c-0.02,2.992,4.612,2.989,4.632,0
						c0.08-12.62,1.079-25.197,1.699-37.796c6.839,12.341,10.72,26.206,18.148,38.281c1.198,1.952,4.306,1.17,4.314-1.17
						c0.063-14.806,1.235-30.415-1.822-44.997C777.195,164.315,772.73,165.556,773.343,168.474z"/>
					<path fill="#FFFFFF" d="M698.465,167.346c0.249,7.97-0.162,15.962-0.605,23.956c-4.837,0.487-9.615,1.386-14.44,1.973
						c-0.114-8.508-0.191-17.014-0.14-25.552c0.018-2.992-4.614-2.989-4.632,0c-0.091,15.105,0.21,30.105,0.436,45.199
						c0.045,2.988,4.677,2.992,4.632,0c-0.075-5.014-0.154-10.018-0.229-15.018c4.716-0.577,9.393-1.446,14.116-1.937
						c-0.297,5.527-0.552,11.054-0.552,16.575c0,2.991,4.632,2.991,4.632,0c0-15.058,1.885-30.165,1.414-45.196
						C703.003,164.363,698.371,164.354,698.465,167.346z"/>
					<path fill="#FFFFFF" d="M664.293,167.368c-0.118,6.541-0.961,13.129-1.653,19.626c-0.538,5.061-1.179,10.11-2.003,15.133
						c-0.198,1.202-0.344,3.088-0.684,4.855c-2.679-4.958-5.643-9.776-8.331-14.72c-0.765-1.406-3.3-1.62-3.998,0
						c-2.007,4.65-3.354,9.77-5.53,14.406c-2.622-12.771-3.765-26.496-3.905-39.299c-0.033-2.989-4.664-2.992-4.631,0
						c0.166,15.082,1.711,31.494,5.34,46.17c0.526,2.129,3.116,2.06,4.232,0.555c3.331-4.494,4.966-9.998,6.861-15.278
						c2.787,4.864,5.691,9.679,8.147,14.709c0.641,1.313,2.68,1.526,3.636,0.47c4.21-4.655,3.985-14.584,4.732-20.424
						c1.106-8.638,2.262-17.482,2.418-26.201C668.978,164.376,664.347,164.381,664.293,167.368z"/>
					<path fill="#FFFFFF" d="M794.483,167.111c-1.907,2.273,1.352,5.572,3.274,3.279c6.014-7.172,23.07,0.029,15.804,9.3
						c-4.959,6.324-11.274,10.504-11.105,19.374c0.057,2.986,4.688,2.992,4.631,0c-0.215-11.283,16.927-16.157,12.144-28.042
						C815.669,162.173,800.56,159.866,794.483,167.111z"/>
					<path fill="#FFFFFF" d="M803.906,209.636c-4.233,0-4.233,6.573,0,6.573C808.14,216.208,808.14,209.636,803.906,209.636z"/>
				</g>
			</g>
			<g>
				
					<radialGradient id="SVGID_20_" cx="486.6462" cy="756.3539" r="94.5441" gradientTransform="matrix(1.5438 0 0 -1.5458 -224.5941 1251.3995)" gradientUnits="userSpaceOnUse">
					<stop  offset="0" style="stop-color:#BFE54A"/>
					<stop  offset="0.1472" style="stop-color:#B9E044"/>
					<stop  offset="0.3514" style="stop-color:#A7D132"/>
					<stop  offset="0.5091" style="stop-color:#95C11F"/>
					<stop  offset="1" style="stop-color:#708C18"/>
				</radialGradient>
				<path fill="url(#SVGID_20_)" d="M658.125,90.202C658.125,42.041,612.355,3,555.935,3C499.51,3,453.747,42.041,453.747,90.202
					c0,44.194,38.575,80.692,88.547,86.401c7.36,19.042,20.863,52.642,21.822,72.179c9.06-22.384,10.363-50.104,6.115-72.254
					C619.896,170.594,658.125,134.203,658.125,90.202z"/>
				<g>
					<path fill="#FFFFFF" d="M538.792,68.843c-0.202-0.117-0.402-0.194-0.599-0.248c-20.793-7.154-26.555,38.415-12.292,47.702
						c4.139,2.696,9.329,1.407,12.951-1.308c5.167-3.875,5.695-11.08,6.487-16.967c0.751-5.591,0.274-11.954,0.083-17.638
						C545.252,75.364,543.116,71.363,538.792,68.843z M540.735,89.198c0.279,7.225,0.9,25.904-11.305,23.564
						c-13.609-2.611-6.929-44.01,7.248-39.764C542.409,76.554,540.516,83.513,540.735,89.198z"/>
					<path fill="#FFFFFF" d="M584.456,69.887c-0.118,6.54-0.96,13.129-1.652,19.625c-0.538,5.061-1.179,10.11-2.004,15.133
						c-0.197,1.202-0.344,3.088-0.683,4.854c-2.68-4.958-5.644-9.776-8.332-14.72c-0.764-1.406-3.3-1.62-3.998,0
						c-2.007,4.65-3.353,9.769-5.53,14.406c-2.621-12.771-3.765-26.496-3.904-39.299c-0.033-2.988-4.665-2.992-4.632,0
						c0.166,15.082,1.711,31.494,5.34,46.169c0.526,2.129,3.117,2.06,4.233,0.555c3.332-4.494,4.966-9.998,6.861-15.279
						c2.788,4.865,5.691,9.68,8.147,14.71c0.641,1.314,2.681,1.525,3.637,0.47c4.209-4.655,3.984-14.584,4.73-20.423
						c1.107-8.638,2.262-17.482,2.419-26.201C589.142,66.895,584.51,66.898,584.456,69.887z"/>
					<path fill="#FFFFFF" d="M505.135,69.864c0.249,7.97-0.162,15.962-0.605,23.956c-4.837,0.486-9.614,1.386-14.44,1.973
						c-0.114-8.508-0.191-17.015-0.14-25.552c0.018-2.992-4.613-2.989-4.632,0c-0.091,15.104,0.21,30.105,0.435,45.199
						c0.046,2.987,4.677,2.992,4.632,0c-0.075-5.014-0.154-10.018-0.229-15.018c4.716-0.577,9.393-1.446,14.116-1.937
						c-0.297,5.527-0.552,11.054-0.552,16.575c0,2.991,4.632,2.991,4.632,0c0-15.058,1.885-30.165,1.414-45.196
						C509.673,66.881,505.042,66.872,505.135,69.864z"/>
					<path fill="#FFFFFF" d="M600.948,69.629c-1.907,2.273,1.353,5.572,3.274,3.278c6.015-7.171,23.07,0.03,15.804,9.301
						c-4.959,6.323-11.274,10.503-11.105,19.374c0.058,2.985,4.688,2.992,4.632,0c-0.216-11.283,16.926-16.157,12.143-28.043
						C622.134,64.691,607.024,62.384,600.948,69.629z"/>
					<path fill="#FFFFFF" d="M610.371,112.154c-4.233,0-4.233,6.573,0,6.573S614.604,112.154,610.371,112.154z"/>
				</g>
			</g>
		</g>
	</g>
</g>
</svg>
