<svg width="400" height="400" xmlns="http://www.w3.org/2000/svg">
 <g>
  <title>background</title>
 
 </g>

 <style type="text/css">.st0 {
			fill: #89c9f6;
		}

		.st1 {
			opacity: 0.4;
		}

		.st2 {
			fill: #FFFFFF;
		}

		.st3 {
			fill: #040A10;
		}

		.st4 {
			fill: #DEE0E2;
		}

		.st5 {
			opacity: 0.1;
		}

		.st6 {
			fill: #003975;
		}

		.st7 {
			fill: #E4E5EA;
		}

		.st8 {
			opacity: 0.15;
		}

		.st9 {
			fill: #1CA79B;
		}

		.st10 {
			opacity: 0.8;
		}

		.st11 {
			opacity: 0.4;
			fill: #FFFFFF;
			enable-background: new;
		}

		.st12 {
			opacity: 0.7;
			fill: #FFFFFF;
			enable-background: new;
		}

		.st13 {
			opacity: 0.7;
		}

		.st14 {
			fill: #0097F8;
		}

		.st15 {
			fill: #FF5A33;
		}

		.st16 {
			fill: #273864;
		}

		.st17 {
			fill: #95C6EB;
		}

		.st18 {
			opacity: 0.5;
		}

		.st19 {
			fill: #ED9766;
		}

		.st20 {
			opacity: 7.000000e-02;
			enable-background: new;
		}

		.st21 {
			fill: #0D2B49;
		}

		.st22 {
			opacity: 0.2;
			enable-background: new;
		}

		.st23 {
			opacity: 7.000000e-02;
		}

		.st24 {
			fill: #081B2A;
		}

		.st25 {
			opacity: 0.1;
			enable-background: new;
		}

		.st26 {
			fill: #2B2B2B;
		}

		.st27 {
			fill: #E7E7E7;
		}

		.st28 {
			opacity: 0.3;
			enable-background: new;
		}

		.st29 {
			fill: #466874;
		}

		.st30 {
			fill: #004F80;
		}

		.st31 {
			fill: #DB855A;
			display: none;
		}

		.st32 {
			fill: #020202;
		}

		.st33 {
			opacity: 0.5;
			fill: #FFFFFF;
			enable-background: new;
		}

		.st34 {
			fill: #A66E4F;
		}

		.st35 {
			fill: #5F7485;
		}

		.st36 {
			fill: #362221;
		}

		.st37 {
			opacity: 0.15;
			enable-background: new;
		}

		.st38 {
			fill: #D9EDFF;
		}

		.st39 {
			display: none;
			fill: #B7866E;
		}

		#mbruone {
			display: none;
			animation: ab11 10s ;
		}

		/* Mady By 
Name:  Freelancer Tajul Rasel
Web and Graphic Desiner. (Map design and coding)
Web: https://freelancertajulrasel.com/nataliafiona
WhatsApp : +8801821010080
Mail: freelancertajulrasel@gmail.com
fiverr: https://fiverr.com/natalia_fiona
 */
		@keyframes ab11 {


			60% {
				transform: translate(0px, 0px);
			}



			65% {
				transform: translate(0px, -3px);
			}

			70% {
				transform: translate(0px, 0px);
			}


		}

		#meyeone&gt;path {
			animation: ab12 10s ;
			display: none;
		}

		@keyframes ab12 {




			60% {
				d: path("M 220.4 135.3 c 0 1.1 -0.9 1.9 -1.9 1.9 c -1.1 0 -1.9 -0.9 -1.9 -1.9 s 0.9 -1.9 1.9 -1.9 c 0.5 0 0.9 0.2 1.3 0.5 C 220.2 134.1 220.4 134.7 220.4 135.3 Z");
			}

			65% {
				d: path("M 220.4 135.3 c 0 1.1 -0.9 1.9 -1.9 1.9 c -1.1 0 -1.9 -0.9 -1.9 -1.9 s 0.9 0.1 1.9 0.1 C 219.6 135.3 220.4 134.2 220.4 135.3 Z");
			}

			70% {
				d: path("M 220.4 135.3 c 0 1.1 -0.9 1.9 -1.9 1.9 c -1.1 0 -1.9 -0.9 -1.9 -1.9 s 0.9 -1.9 1.9 -1.9 c 0.5 0 0.9 0.2 1.3 0.5 C 220.2 134.1 220.4 134.7 220.4 135.3 Z");
			}


		}

		#meyetwo&gt;path {
			animation: ab13 10s ;
			display: none;
		}

		@keyframes ab13 {




			60% {
				d: path("M 231.2 131.8 c 0 1.1 -0.9 1.9 -1.9 1.9 c -1.1 0 -1.9 -0.9 -1.9 -1.9 c 0 -0.7 0.3 -1.3 0.9 -1.6 c 0.3 -0.2 0.7 -0.3 1.1 -0.3 C 230.4 129.9 231.2 130.8 231.2 131.8 Z");
			}

			65% {
				d: path("M 231.2 131.8 c 0 1.1 -0.9 1.9 -1.9 1.9 c -1.1 0 -1.9 -0.9 -1.9 -1.9 s 0.9 0.7 1.9 0.7 C 230.4 132.6 231.2 130.8 231.2 131.8 Z");
			}

			70% {
				d: path("M 231.2 131.8 c 0 1.1 -0.9 1.9 -1.9 1.9 c -1.1 0 -1.9 -0.9 -1.9 -1.9 c 0 -0.7 0.3 -1.3 0.9 -1.6 c 0.3 -0.2 0.7 -0.3 1.1 -0.3 C 230.4 129.9 231.2 130.8 231.2 131.8 Z");
			}


		}

		#mmouthone&gt;path {
			animation: ab14 10s infinite;
			transform-box: fill-box;
			transform-origin: center;
			display: none;
		}

		@keyframes ab14 {


			70% {
				/* d: path("M 221.1 149.1 l 11.5 -1.4 C 230.9 160.1 221.1 149.1 221.1 149.1 Z"); */
				transform: scale(0.5);
			}



			80% {
				/* d: path("M 221 149.2 l 11.4 -1.3 C 231.1 154.2 221 149.2 221 149.2 Z"); */
				transform: scale(1.5);
			}

			90% {
				/* d: path("M 221.1 149.1 l 11.5 -1.4 C 230.9 160.1 221.1 149.1 221.1 149.1 Z"); */
				transform: scale(0.6);
			}

			100% {

				transform: scale(1);
			}

		}

		#menlhand {
			animation: ab15 10s infinite;
			transform-box: fill-box;
			transform-origin: revert;
		}

		@keyframes ab15 {
			0% {
				transform: rotate3d(1, 1, 5,
						10deg);
			}

			30% {
				transform: rotate3d(1, 1, 5,
						10deg);
			}

			36% {
				transform: rotate3d(1, 1, 1,
						0deg);
			}

			40% {
				transform: rotate3d(1, 1, 1,
						0deg);
			}

			48% {
				transform: rotate3d(1, 1, 5,
						10deg);
			}

			50% {
				transform: rotate3d(1, 1, 1,
						0deg);
			}

		}

		#handrm {
			animation: ab16 10s infinite;
			transform-box: fill-box;
			transform-origin: top;
		}

		@keyframes ab16 {


			60% {
				transform: rotate(0deg);
			}

			70% {
				transform: rotate(-10deg);
			}

			80% {
				transform: rotate(0deg);
			}
		}

		.dotone {
			animation: ab17 1s infinite linear;
		}

		.dottwo {
			animation: ab17 2s infinite linear;
		}

		.dotthree {
			animation: ab17 3s infinite linear;
		}

		@keyframes ab17 {
			0% {
				opacity: 0;
			}

			100% {
				opacity: 1;
			}
		}

		#dotsix {
			animation: ab17as 10s infinite linear;
		}

		#linedotani {
			animation: ab17as 10s infinite;
		}

		@keyframes ab17as {
			0% {
				opacity: 0;
			}

			30% {
				opacity: 0;
			}

			32% {
				opacity: 1;
			}

			100% {
				opacity: 1;
			}
		}


		#dotfour,
		#dotthreee,
		#dotfive {
			animation: ab3a9a 10s infinite;

		}

		@keyframes ab3a9a {
			0% {
				opacity: 0;
			}

			40% {
				opacity: 0;
			}

			43% {
				opacity: 1;
			}
		}

		#dotroundopa {
			animation: ab3a9 10s infinite;

		}

		@keyframes ab3a9 {
			0% {
				opacity: 0;
			}

			35% {
				opacity: 0;
			}

			40% {
				opacity: 1;
			}
		}

		#dotround {
			/*animation: ab18 10s linear 4s infinite;*/
			transform-box: fill-box;
			transform-origin: center;
		}

		@keyframes ab18 {
			0% {
				transform: rotate(0turn);
			}

			100% {
				transform: rotate(1turn);
			}
		}

		.settingone {
			animation: ab18 8s linear infinite;
			transform-box: fill-box;
			transform-origin: center;
		}

		.settingtwo {
			animation: ab18 8s linear infinite reverse;
			transform-box: fill-box;
			transform-origin: center;
		}


		#dotplus {
			animation: ab25 3s infinite alternate;
			transform-box: fill-box;
			transform-origin: center;
		}

		@keyframes ab25 {

			0% {}

			50% {
				transform: rotate(90deg);
			}
		}

		#dotmin {
			animation: ab26 3s infinite alternate;
			fill: white;
		}

		@keyframes ab26 {
			0% {}

			50% {
				opacity: 0;
			}
		}

		#whead {
			animation: ab4aa5 10s infinite;
			transform-box: fill-box;
			transform-origin: bottom;
		}

		@keyframes ab4aa5 {

			12% {
				transform: rotate(10deg);
			}

			15% {
				transform: rotate(10deg);
			}

			20% {
				transform: rotate(0deg);
			}

			30% {
				transform: rotate(0deg);
			}


			45% {
				transform: rotate(0deg);
			}



			50% {
				transform: rotate(10deg);
			}

			55% {
				transform: rotate(10deg);
			}

			100% {
				transform: rotate(10deg);
			}

		}

		#whandr {
			animation: ab45 10s infinite;
			transform-box: fill-box;
			transform-origin: top;
		}

		@keyframes ab45 {
			25% {
				transform: rotate(-6deg);
			}

			30% {
				transform: rotate(0deg);
			}

			40% {
				transform: rotate(-6deg);
			}
		}

		#whandl {
			animation: ab27 10s infinite;
			transform-box: fill-box;
			transform-origin: right;
		}

		@keyframes ab27 {
			0% {
				transform: rotate(-10deg);
			}

			15% {
				transform: rotate(-10deg);
			}

			20% {
				transform: rotate(0deg);
			}

			30% {
				transform: rotate(0deg);
			}

			35% {
				transform: rotate(-10deg);
			}

			100% {
				transform: rotate(-10deg);
			}
		}

		#whandl&gt;g {
			animation: ab27a 10s infinite;
			transform-box: fill-box;
			transform-origin: bottom;
		}

		@keyframes ab27a {
			12% {
				transform: rotate(0deg);
			}

			15% {
				transform: rotate(10deg);
			}

			20% {
				transform: rotate(45deg);
			}

			30% {
				transform: rotate(-10deg);
			}


			45% {
				transform: rotate(-10deg);
			}



			50% {
				transform: rotate(45deg);
			}

			55% {
				transform: rotate(-10deg);
			}

			100% {
				transform: rotate(-10deg);
			}
		}

		#wbru {
			animation: ab28 10s infinite;
			display: none;
		}

		@keyframes ab28 {




			25% {
				transform: translate(0px, 0px);
			}

			30% {
				transform: translate(0px, -3px);
			}

			40% {
				transform: translate(0px, 0px);
			}





		}

		#weyetwo&gt;path {
			animation: ab29 10s infinite;
			display: none;
		}

		@keyframes ab29 {
			0% {}



			25% {
				d: path("M 568.4 149.9 c 0 1.1 -0.9 2 -2 2 s -2 -0.9 -2 -2 s 0.9 -2 2 -2 c 0.4 0 0.8 0.1 1.1 0.3 C 568 148.6 568.4 149.2 568.4 149.9 Z");
			}

			30% {
				d: path("M 568.4 150.3 c -0.2 1.1 -1.3 1.8 -2.4 1.6 s -1.8 -1.3 -1.6 -2.4 s 0.7 1.1 1.8 1.4 C 567.3 151.1 568.6 149.2 568.4 150.3 Z");
			}

			40% {
				d: path("M 568.4 149.9 c 0 1.1 -0.9 2 -2 2 s -2 -0.9 -2 -2 s 0.9 -2 2 -2 c 0.4 0 0.8 0.1 1.1 0.3 C 568 148.6 568.4 149.2 568.4 149.9 Z");
			}





		}

		#weyeone&gt;path {
			animation: ab30 10s infinite;
			display: none;
		}

		@keyframes ab30 {
			0% {}



			25% {
				d: path("M 581.7 153.3 c 0 1.1 -0.9 2 -2 2 s -2 -0.9 -2 -2 s 0.9 -2 2 -2 c 0.6 0 1.1 0.2 1.4 0.6 C 581.5 152.3 581.7 152.8 581.7 153.3 Z");
			}

			30% {
				d: path("M 581.7 153.8 c -0.4 1.5 -2.3 2.2 -3.6 0.8 c -0.3 -0.3 -0.4 -0.8 -0.4 -1.2 c 0.3 -2.4 1.2 0.8 3.1 -0.1 C 581.5 152.9 581.9 153.1 581.7 153.8 Z");
			}

			40% {
				d: path("M 581.7 153.3 c 0 1.1 -0.9 2 -2 2 s -2 -0.9 -2 -2 s 0.9 -2 2 -2 c 0.6 0 1.1 0.2 1.4 0.6 C 581.5 152.3 581.7 152.8 581.7 153.3 Z");
			}






		}

		#wmouth&gt;path {
			animation: ab33 10s infinite;
			transform-box: fill-box;
			transform-origin: center;
			display: none;
		}

		@keyframes ab33 {


			25% {
				/* d: path("M 564.3 166.2 l 8.5 2.1 C 565 173.1 564.3 166.2 564.3 166.2 Z"); */
				transform: scale(0.5);
			}

			30% {
				/* d: path("M 562.7 165.5 l 12.5 3 C 564.2 177.8 562.7 165.5 562.7 165.5 Z"); */
				transform: scale(1.5);
			}

			40% {
				/* d: path("M 562.7 165.5 l 12.5 3 C 564.2 177.8 562.7 165.5 562.7 165.5 Z"); */
				transform: scale(0.6);
			}

			50% {

				transform: scale(1);
			}

			60% {

				transform: scale(0.5);
			}

		}

		#mobileone {
			animation: ab34 10s ;
		}

		@keyframes ab34 {
			0% {
				transform: translate(-279px, 0px);
			}

			10% {
				transform: translate(0px, 0px);
			}
		}

		#mobiletwo {
			animation: ab35 10s ;
		}

		@keyframes ab35 {
			0% {
				transform: translate(279px, 0px);
			}

			10% {
				transform: translate(0px, 0px);
			}
		}

		#menopa,
		#wenopa {
			animation: ab36 10s ;
		}

		@keyframes ab36 {
			0% {
				opacity: 0;
			}

			10% {
				opacity: 0;
			}

			12% {
				opacity: 1;
			}


		}

		#mmentonet {
			animation: ab36ae 10s ;
			transform-box: fill-box;

			transform-origin: bottom;
		}

		@keyframes ab36ae {
			0% {
				transform: rotate(-2deg);
			}

			10% {
				transform: rotate(-2deg) translate(-18px, 0px);
			}

			12% {
				transform: rotate(-2deg) translate(0px, 0px);
			}

			28% {
				transform: rotate(-2deg);
			}

			30% {
				transform: rotate(0deg);
			}

			36% {
				transform: rotate(0deg);
			}

			40% {
				transform: rotate(-1deg);
			}

			48% {
				transform: rotate(0deg);
			}

			50% {
				transform: rotate(0deg);
			}

		}

		#womanonets {
			animation: ab36aea 10s ;
			transform-box: fill-box;

			transform-origin: bottom;
		}

		@keyframes ab36aea {
			0% {
				transform: rotate(3deg);
			}

			10% {
				transform: rotate(3deg) translate(18px, 0px);
			}

			12% {
				transform: rotate(3deg) translate(0px, 0px);
			}

			15% {
				transform: rotate(3deg);
			}

			20% {
				transform: rotate(0deg);
			}

			36% {
				transform: rotate(0deg);
			}


		}

		#cartrect {
			animation: ab37aa 10s infinite;
			transform-box: fill-box;
		}

		@keyframes ab37aa {


			38% {

				transform: scaleY(0.5);
			}

			45% {

				transform: scaleY(1);
			}
		}

		.dotshowone {
			animation: ab37aas 10s infinite;
		}

		@keyframes ab37aas {


			45% {

				opacity: 0;
			}

			48% {

				opacity: 1;
			}
		}

		.dotshowtwo {
			animation: ab37aast 10s ;
		}

		@keyframes ab37aast {


			48% {

				opacity: 0;
			}

			50% {

				opacity: 1;
			}
		}

		.dotshowthree {
			animation: ab37aastaa 10s ;
		}

		@keyframes ab37aastaa {


			50% {

				opacity: 0;
			}

			52% {

				opacity: 1;
			}
		}

		.dotshowfour {
			animation: ab37aastaaa 10s ;
		}

		@keyframes ab37aastaaa {


			52% {

				opacity: 0;
			}

			54% {

				opacity: 1;
			}
		}

		.dotshowfive {
			animation: ab37aastaae 10s ;
		}

		@keyframes ab37aastaae {


			54% {

				opacity: 0;
			}

			56% {

				opacity: 1;
			}
		}

		#cartopa {
			animation: ab37 10s ;
		}

		@keyframes ab37 {
			0% {
				opacity: 0;
			}

			35% {
				opacity: 0;
				transform: scaleY(0.5);
			}

			37% {
				opacity: 1;
				transform: scaleY(1);
			}
		}

		#dotnetopa {
			animation: ab38 10s ;
		}

		@keyframes ab38 {
			0% {
				opacity: 0;
			}

			25% {
				opacity: 0;
				transform: scaleY(0.5);
			}

			30% {
				opacity: 1;
				transform: scaleY(1);
			}
		}



		#dotthreeopa {
			animation: ab40 10s ;
		}

		@keyframes ab40 {
			0% {
				opacity: 0;
			}

			30% {
				opacity: 0;
				transform: scaleY(0.5);

			}

			34% {
				opacity: 1;
				transform: scaleY(1);
			}
		}

		#dotseteopa {
			animation: ab41 10s ;
		}

		@keyframes ab41 {
			0% {
				opacity: 0;
			}

			34% {
				opacity: 0;
				transform: scaleY(0.5);
			}

			38% {
				opacity: 1;
				transform: scaleY(1);
			}
		}</style>
 <g>
  <title>Layer 1</title>
  <g id="weyeone">
   <path class="st32" d="m583.7,153.3c0,1.1 -0.9,2 -2,2s-2,-0.9 -2,-2s0.9,-2 2,-2c0.6,0 1.1,0.2 1.4,0.6c0.4,0.4 0.6,0.9 0.6,1.4z" id="svg_215"/>
  </g>
  <g id="weyetwo">
   <path class="st32" d="m570.4,149.9c0,1.1 -0.9,2 -2,2s-2,-0.9 -2,-2s0.9,-2 2,-2c0.4,0 0.8,0.1 1.1,0.3c0.5,0.4 0.9,1 0.9,1.7z" id="svg_216"/>
  </g>
  <path class="st39" d="m573.8,159.6l1.3,-3.3c0.3,-0.5 0.5,-1 0.6,-1.5c0,-0.5 -0.3,-0.6 -0.7,-0.8c-0.6,-0.3 -1.3,-0.5 -1.9,-0.7c-0.7,-0.1 -0.7,0.4 -1,1c-0.6,1.2 -1.1,2.5 -1.7,3.7c-0.2,0.3 -0.3,0.7 -0.2,1.1c0.1,0.6 0.7,0.9 1.3,1.2s1.3,0.5 1.8,0.1c0.2,-0.2 0.4,-0.5 0.5,-0.8z" id="svg_219"/>
  <g id="wmouth">
   <path class="st33" d="m566.3,166.2l8.5,2.1c-7.8,4.8 -8.5,-2.1 -8.5,-2.1z" id="svg_220"/>
  </g>
  <g stroke="null" id="svg_1">
   <path stroke="null" class="st3" d="m266.77138,389.39316l0,0c5.90431,-0.92617 11.114,-6.71471 11.92439,-13.77673l58.92734,-353.33251c0,-0.34731 0.11577,-0.69462 0.11577,-1.04194c0,-0.11577 0,-0.23154 0,-0.34731c0,-0.23154 0,-0.46308 0,-0.69462c0,-0.11577 0,-0.23154 0,-0.34731c0,-0.23154 0,-0.46308 0,-0.57885s0,-0.23154 0,-0.34731c0,-0.11577 0,-0.34731 -0.11577,-0.46308c0,-0.34731 -0.11577,-0.57885 -0.11577,-0.8104c0,-0.11577 0,-0.23154 -0.11577,-0.34731c-0.11577,-0.34731 -0.23154,-0.69462 -0.34731,-1.04194c0,0 0,-0.11577 -0.11577,-0.11577c-0.11577,-0.34731 -0.23154,-0.57885 -0.34731,-0.92617c0,-0.11577 -0.11577,-0.23154 -0.11577,-0.34731c-0.11577,-0.23154 -0.23154,-0.46308 -0.34731,-0.69462c-0.11577,-0.11577 -0.11577,-0.23154 -0.23154,-0.23154c-0.23154,-0.23154 -0.34731,-0.46308 -0.57885,-0.69462c0,0 0,-0.11577 -0.11577,-0.11577c-0.23154,-0.23154 -0.46308,-0.57885 -0.69462,-0.8104c-0.11577,-0.11577 -0.11577,-0.11577 -0.23154,-0.23154c-0.23154,-0.11577 -0.34731,-0.34731 -0.57885,-0.46308c-0.11577,-0.11577 -0.23154,-0.11577 -0.23154,-0.23154c-0.23154,-0.11577 -0.46308,-0.23154 -0.69462,-0.46308c-0.11577,0 -0.11577,-0.11577 -0.23154,-0.11577c-0.23154,-0.11577 -0.34731,-0.23154 -0.57885,-0.23154c-0.11577,0 -0.23154,-0.11577 -0.23154,-0.11577c-0.23154,-0.11577 -0.57885,-0.23154 -0.92617,-0.34731l0,0l0,0l0,0l8.3355,2.43119c0.34731,0.11577 0.57885,0.23154 0.92617,0.34731c0.11577,0 0.23154,0.11577 0.23154,0.11577c0.23154,0.11577 0.34731,0.11577 0.57885,0.23154c0,0 0,0 0.11577,0l0.11577,0.11577c0.23154,0.11577 0.46308,0.23154 0.69462,0.46308c0.11577,0.11577 0.23154,0.11577 0.23154,0.23154c0.23154,0.11577 0.34731,0.34731 0.57885,0.46308c0.11577,0.11577 0.11577,0.11577 0.23154,0.23154c0.23154,0.23154 0.46308,0.46308 0.69462,0.8104c0,0 0,0.11577 0.11577,0.11577c0.23154,0.23154 0.34731,0.46308 0.57885,0.8104c0.11577,0.11577 0.11577,0.23154 0.23154,0.23154c0.11577,0.23154 0.23154,0.46308 0.34731,0.69462c0,0.11577 0.11577,0.23154 0.11577,0.34731c0.11577,0.23154 0.23154,0.57885 0.34731,0.92617c0,0 0,0.11577 0.11577,0.11577c0.11577,0.34731 0.23154,0.69462 0.34731,1.04194c0,0.11577 0,0.23154 0.11577,0.34731c0.11577,0.23154 0.11577,0.57885 0.11577,0.8104c0,0.11577 0,0.11577 0,0.23154s0,0.23154 0,0.23154c0,0.11577 0,0.23154 0,0.34731c0,0.23154 0,0.46308 0,0.57885s0,0.23154 0,0.34731c0,0.23154 0,0.46308 0,0.69462c0,0.11577 0,0.23154 0,0.34731c0,0.34731 0,0.69462 -0.11577,1.04194l-58.81157,353.79559c-0.92617,7.64087 -6.94625,13.8925 -13.42941,13.8925l-144.25043,0.23154c-1.04194,0 -2.08387,-0.23154 -3.12581,-0.57885l-8.10396,-2.89427c0.92617,0.34731 1.9681,0.57885 3.12581,0.57885l145.52391,-0.46308z" id="svg_163"/>
   <g stroke="null" id="svg_164">
    <path stroke="null" class="st2" d="m181.21675,32.7033c0.34731,-2.43119 2.31542,-4.51506 4.39929,-4.63083l141.24039,-7.5251c2.19965,-0.11577 3.70467,1.85233 3.35735,4.28352l-58.58003,348.5859c-0.34731,2.54696 -2.31542,4.7466 -4.51506,4.7466l-143.5558,0.69462c-2.08387,0 -3.5889,-2.08387 -3.24158,-4.63083l60.89545,-341.52388z" id="svg_165"/>
   </g>
   <g stroke="null" id="svg_166">
    <path stroke="null" class="st7" d="m327.08797,20.54736c2.19965,-0.11577 3.70467,1.85233 3.35735,4.28352l-58.58003,348.5859c-0.34731,2.54696 -2.31542,4.7466 -4.51506,4.7466l-143.5558,0.69462c-2.08387,0 -3.5889,-2.08387 -3.24158,-4.63083l206.53512,-353.67982z" id="svg_167"/>
   </g>
   <g stroke="null" class="st8" id="svg_168">
    <path stroke="null" class="st6" d="m185.50027,28.07247l141.24039,-7.5251c2.19965,-0.11577 3.70467,1.85233 3.35735,4.28352l-3.35735,19.91258l-148.64972,4.63083l3.01004,-16.78677c0.34731,-2.31542 2.31542,-4.39929 4.39929,-4.51506z" id="svg_169"/>
   </g>
   <path stroke="null" d="m112.21735,376.42683c-0.92617,7.5251 3.24158,13.54518 9.49321,13.54518l144.13466,-0.34731c6.48317,0 12.50325,-6.25162 13.42941,-13.8925l58.92734,-353.33251c0.92617,-7.29356 -3.5889,-12.96633 -9.95629,-12.61902l-141.70347,7.75664c-6.13585,0.34731 -11.92439,6.36739 -12.85056,13.54518l-61.4743,345.34432zm8.10396,-2.19965l60.89545,-341.52388c0.34731,-2.43119 2.31542,-4.51506 4.39929,-4.63083l141.24039,-7.5251c2.19965,-0.11577 3.70467,1.85233 3.35735,4.28352l-58.58003,348.5859c-0.34731,2.54696 -2.31542,4.7466 -4.51506,4.7466l-143.5558,0c-2.08387,0.11577 -3.5889,-1.38925 -3.24158,-3.93621z" id="svg_170"/>
   <g stroke="null" id="whandl">
    <path stroke="null" class="st34" d="m77.02302,146.27446c-0.34731,-4.63083 -0.69462,-8.56704 -1.04194,-11.57708c-0.69462,-5.67277 8.91435,-12.96633 9.60898,-8.68281c0.92617,6.25162 3.24158,11.46131 5.09392,15.39752c-4.63083,1.62079 -9.14589,3.24158 -13.66096,4.86237z" id="svg_171"/>
    <path stroke="null" class="st24" d="m89.87358,137.36011c1.04194,3.35735 15.97637,36.69935 20.37566,45.03484c21.88068,-7.64087 31.7212,-22.11222 48.3922,-32.5316c17.01831,-10.18783 36.93089,25.46958 19.79681,35.42587c-20.72297,11.57708 -55.1069,32.18428 -79.18723,29.52156c-7.87241,-1.27348 -11.80862,-8.79858 -13.77673,-15.51329c-3.35735,-10.76669 -8.68281,-43.06674 -9.95629,-56.14884c0.11577,0.11577 14.23981,-5.78854 14.35558,-5.78854z" id="svg_172"/>
    <path stroke="null" class="st22" d="m104.69225,201.96022c6.48317,-0.92617 12.85056,-3.01004 18.75487,-5.90431c3.24158,-1.50502 6.13585,-3.35735 9.03012,-5.557c3.47312,-2.7785 6.25162,-6.13585 8.91435,-9.60898c4.86237,-6.48317 8.68281,-13.66096 13.54518,-20.14412c1.85233,-2.31542 0.57885,-5.78854 -1.50502,-7.40933c1.62079,-1.15771 3.35735,-2.43119 5.20969,-3.47312c17.01831,-10.18783 36.93089,25.46958 19.79681,35.42587c-20.72297,11.57708 -55.1069,32.18428 -79.18723,29.52156c-7.17779,-1.15771 -10.99823,-7.40933 -13.0821,-13.54518c5.90431,1.85233 12.38748,1.62079 18.52333,0.69462z" id="svg_173"/>
    <g stroke="null" id="svg_174">
     <g stroke="null" id="svg_175">
      <path stroke="null" class="st34" d="m88.25279,134.35007c1.50502,-5.67277 1.50502,-22.228 0.57885,-23.73302s-9.95629,-3.47312 -14.12404,3.01004s-3.5889,16.20791 -2.89427,19.68104c0.92617,4.16775 5.557,6.71471 7.40933,6.13585c5.557,-1.50502 8.21973,-2.19965 9.03012,-5.09392z" id="svg_176"/>
      <path stroke="null" class="st34" d="m72.27642,97.53495c6.02008,6.48317 7.75664,10.65091 10.3036,14.58712c1.04194,1.50502 7.98819,1.15771 6.02008,-1.9681c-0.57885,-1.04194 -1.38925,-2.31542 -2.08387,-3.24158c-3.93621,-5.20969 -8.56704,-9.84052 -13.42941,-14.23981c-1.9681,-1.85233 -3.12581,2.31542 -0.8104,4.86237z" id="svg_177"/>
      <path stroke="null" class="st25" d="m72.97104,96.37724c1.38925,2.89427 3.93621,5.20969 6.02008,7.64087c0.92617,1.15771 1.73656,2.43119 2.43119,3.70467c0.57885,1.50502 1.04194,3.12581 1.50502,4.63083l0,0c-0.11577,-0.11577 -0.23154,-0.23154 -0.34731,-0.34731c-2.54696,-3.93621 -4.39929,-7.98819 -10.3036,-14.58712c-1.62079,-1.73656 -1.50502,-4.28352 -0.69462,-5.09392c0.23154,1.50502 0.69462,2.7785 1.38925,4.05198z" id="svg_178"/>
     </g>
     <path stroke="null" class="st34" d="m69.61369,113.04824c0.11577,0 0.11577,0 0.23154,0.11577c0.34731,1.15771 0.69462,2.31542 1.38925,3.35735c0.57885,0.92617 1.27348,1.85233 2.08387,2.54696c-0.11577,0 -0.11577,0 -0.23154,0l1.27348,3.35735c0.69462,1.73656 -1.9681,3.01004 -2.89427,1.38925l-4.39929,-7.06202c-1.27348,-1.9681 0.46308,-4.28352 2.54696,-3.70467z" id="svg_179"/>
     <path stroke="null" class="st25" d="m73.08682,124.27801c1.50502,-1.27348 -3.70467,-9.03012 -4.7466,-10.41937c-0.11577,-0.23154 -0.23154,-0.46308 -0.46308,-0.69462c0.46308,-0.23154 1.04194,-0.34731 1.62079,-0.11577c0.11577,0 0.11577,0 0.23154,0.11577c0.34731,1.15771 0.69462,2.31542 1.38925,3.35735c0.57885,0.92617 1.27348,1.85233 2.08387,2.54696c-0.11577,0 -0.11577,0 -0.23154,0l1.27348,3.35735c0.46308,0.8104 -0.23154,1.62079 -1.15771,1.85233z" id="svg_180"/>
     <path stroke="null" class="st34" d="m71.11871,109.2278c0.23154,0.11577 0.57885,0.11577 0.92617,0.23154c0.34731,1.15771 0.69462,2.31542 1.27348,3.24158c0.57885,1.04194 1.38925,1.85233 2.31542,2.66273c-0.34731,-0.11577 -0.69462,-0.11577 -0.92617,-0.23154l1.27348,3.35735c0.69462,1.73656 -1.9681,3.01004 -2.89427,1.38925l-4.39929,-7.06202c-1.27348,-1.85233 0.46308,-4.16775 2.43119,-3.5889z" id="svg_181"/>
     <path stroke="null" class="st25" d="m74.47606,120.45757c1.04194,-0.8104 0.23154,-2.19965 -0.34731,-3.5889c-0.23154,-0.69462 -3.35735,-5.32546 -3.5889,-5.78854c-0.34731,-0.57885 -0.8104,-1.15771 -1.27348,-1.73656c0.46308,-0.34731 1.15771,-0.46308 1.85233,-0.23154c0.23154,0.11577 0.57885,0.11577 0.92617,0.23154c0.34731,1.15771 0.69462,2.31542 1.27348,3.24158c0.57885,1.04194 1.38925,1.85233 2.31542,2.66273c-0.34731,-0.11577 -0.69462,-0.11577 -0.92617,-0.23154l1.27348,3.35735c0.23154,1.04194 -0.57885,1.9681 -1.50502,2.08387z" id="svg_182"/>
     <path stroke="null" class="st34" d="m72.62373,105.52314c1.9681,0.46308 4.97814,1.15771 6.83048,1.62079c4.28352,0.69462 7.5251,9.84052 -1.50502,4.63083c-0.34731,-0.23154 -1.38925,-0.34731 -1.85233,-0.46308l1.27348,3.35735c0.69462,1.73656 -1.9681,3.01004 -2.89427,1.38925l-4.39929,-7.06202c-1.27348,-1.62079 0.46308,-4.05198 2.54696,-3.47312z" id="svg_183"/>
     <path stroke="null" class="st25" d="m72.7395,107.72278c3.47312,0.92617 7.98819,2.43119 8.10396,2.54696c4.28352,3.82044 4.63083,6.25162 4.97814,7.40933c-0.57885,0.8104 -4.51506,-4.05198 -7.87241,-5.90431c-0.34731,-0.23154 -1.38925,-0.34731 -1.85233,-0.46308l1.27348,3.35735c0.46308,1.27348 -0.8104,2.31542 -1.85233,2.08387c2.08387,-1.27348 -2.43119,-3.47312 -3.70467,-6.13585c-0.57885,-1.04194 -0.11577,-2.19965 0.92617,-2.89427z" id="svg_184"/>
     <path stroke="null" class="st34" d="m88.71587,125.8988c0,0 -2.43119,-7.98819 -4.16775,-10.18783c-1.73656,-2.19965 -3.82044,-4.51506 -4.63083,-4.97814c-0.57885,-0.34731 -6.36739,-2.19965 -6.36739,-2.19965c-0.57885,-0.23154 -0.92617,-0.11577 -1.27348,0.46308c-0.34731,0.92617 -0.57885,2.31542 1.04194,3.5889c2.54696,2.08387 4.51506,3.12581 4.51506,3.12581l0.92617,6.25162c0,0 -0.46308,12.50325 6.94625,11.22977c4.28352,-0.69462 3.01004,-7.29356 3.01004,-7.29356z" id="svg_185"/>
     <path stroke="null" class="st25" d="m77.37034,114.55326c0.69462,0.46308 1.38925,0.8104 2.08387,1.15771c0,0.34731 0,0.69462 0,1.04194c0.23154,2.43119 0.11577,4.7466 0.46308,7.06202c0.23154,1.85233 0.69462,3.5889 1.04194,5.44123c0.23154,1.04194 0.46308,2.08387 0.92617,3.01004c-3.24158,-2.7785 -2.89427,-10.18783 -2.89427,-10.18783l-0.92617,-6.25162c0,0 -1.9681,-1.04194 -4.51506,-3.12581c-0.57885,-0.46308 -0.92617,-0.92617 -1.04194,-1.38925c0.34731,0.46308 3.70467,2.54696 4.86237,3.24158z" id="svg_186"/>
    </g>
   </g>
   <path stroke="null" class="st35" d="m155.97871,378.85802c3.12581,-18.40756 9.03012,-56.14884 7.75664,-73.28292l84.86,-26.39574c0,0 6.83048,25.81689 9.03012,39.94093c1.62079,10.3036 3.93621,42.8352 5.09392,59.73774l-106.74069,0l0,0z" id="svg_187"/>
   <path stroke="null" class="st25" d="m243.50145,378.85802c2.31542,-7.87241 3.82044,-15.97637 4.05198,-24.08033c0.34731,-12.38748 -2.89427,-25.35381 -11.22977,-34.73124c-7.29356,-8.21973 -18.6391,-12.15593 -29.29001,-14.12404c-9.26166,-1.73656 -18.75487,-2.31542 -27.90076,-4.63083c-0.23154,-0.11577 -0.46308,-0.11577 -0.69462,-0.11577l70.27288,-21.88068c0,0 6.83048,25.81689 9.03012,39.94093c1.62079,10.3036 3.93621,42.8352 5.09392,59.73774l-19.33373,0l0,-0.11577z" id="svg_188"/>
   <g stroke="null" id="svg_189">
    <path stroke="null" class="st9" d="m148.56938,162.82969c1.62079,-8.68281 4.86237,-14.35558 31.14235,-20.95452c7.87241,-1.9681 13.0821,-4.39929 19.21795,-3.5889c21.30183,3.01004 39.94093,9.14589 38.0886,21.76491c-3.01004,21.18606 -7.40933,61.82161 -6.94625,78.60838c0.23154,10.07206 20.14412,34.4997 20.6072,49.78145c0,0 -8.3355,10.07206 -20.95452,15.16598c-31.37389,12.73479 -68.07324,0.8104 -68.07324,0.8104s-6.94625,-55.33845 -9.37744,-77.91375c0,0 -13.19787,-5.67277 -10.41937,-23.96456c1.38925,-7.64087 4.97814,-29.98464 6.71471,-39.70939z" id="svg_190"/>
    <path stroke="null" class="st24" d="m199.04545,150.78952c1.04194,-2.31542 3.01004,-11.22977 3.35735,-11.92439c18.98641,3.24158 36.35203,9.72475 34.73124,21.30183c-3.01004,21.18606 -4.16775,61.82161 -3.70467,78.60838c0.23154,10.07206 21.88068,48.73951 22.34377,64.02126c0,0 -8.3355,10.07206 -20.95452,15.16598c-9.14589,3.70467 -18.75487,5.32546 -27.78499,5.78854c-0.11577,-2.7785 -10.07206,-51.63378 -13.77673,-65.98936c-3.47312,-13.19787 -7.75664,-26.39574 -9.03012,-39.94093c-2.66273,-24.1961 8.45127,-51.98109 14.81866,-67.0313z" id="svg_191"/>
    <path stroke="null" class="st24" d="m141.97045,202.77062c1.15771,-7.75664 4.86237,-30.21618 6.59894,-39.82516c1.27348,-6.94625 3.5889,-12.73479 20.37566,-17.8287c-7.75664,15.05021 -9.60898,18.40756 -12.96633,63.21086c-0.8104,11.114 2.08387,22.228 4.51506,33.11045c4.28352,19.4495 16.671,77.10336 16.78677,81.15534c-9.95629,-1.50502 -16.55523,-3.5889 -16.55523,-3.5889s-7.87241,-65.41051 -10.3036,-87.98581c0,-0.23154 -11.22977,-10.07206 -8.45127,-28.24808z" id="svg_192"/>
    <g stroke="null" id="whead">
     <path stroke="null" class="st34" d="m173.22856,127.05651c0.69462,-3.5889 6.83048,-8.91435 10.65091,-9.26166c4.7466,-0.46308 7.5251,1.73656 9.84052,10.18783c1.85233,6.83048 4.39929,10.41937 4.39929,10.41937c-1.38925,7.64087 -10.88246,11.46131 -18.98641,10.3036c-3.24158,-0.46308 -6.48317,-1.62079 -6.36739,-4.86237c0,-0.23154 0.46308,-16.78677 0.46308,-16.78677z" id="svg_193"/>
     <path stroke="null" class="st25" d="m190.1311,125.43572c-0.46308,2.7785 -1.15771,5.557 -2.08387,8.21973c-0.57885,1.15771 -1.27348,2.31542 -1.9681,3.35735c-0.69462,0.8104 -1.50502,1.62079 -2.31542,2.31542c-1.04194,0.69462 -2.08387,1.27348 -3.24158,1.85233c-2.08387,0.69462 -4.28352,1.27348 -6.36739,1.62079c-0.46308,0 -0.8104,0.11577 -1.27348,0.11577c0.11577,-3.12581 0.46308,-15.97637 0.46308,-15.97637c0.69462,-3.5889 6.83048,-8.91435 10.65091,-9.26166c2.7785,-0.23154 4.86237,0.34731 6.48317,2.43119c0,1.85233 -0.11577,3.5889 -0.34731,5.32546z" id="svg_194"/>
     <path stroke="null" class="st36" d="m222.08385,86.18941c5.44123,9.26166 -5.09392,32.76314 -14.58712,25.70112c-12.15593,-9.03012 -2.66273,-28.24808 -2.66273,-28.24808s11.80862,-6.71471 17.24985,2.54696z" id="svg_195"/>
     <path stroke="null" class="st37" d="m202.86589,93.94606c3.5889,2.31542 7.98819,2.54696 11.92439,1.04194c3.35735,-1.27348 6.13585,-4.16775 7.29356,-7.5251c0.11577,-0.23154 0.11577,-0.46308 0.23154,-0.69462c4.51506,9.60898 -5.67277,31.83697 -14.93443,25.00649c-6.48317,-4.86237 -6.83048,-12.61902 -5.67277,-18.75487c0.34731,0.34731 0.8104,0.69462 1.15771,0.92617z" id="svg_196"/>
     <path stroke="null" class="st34" d="m210.96985,85.95787c6.94625,12.15593 -18.98641,40.75132 -18.98641,40.75132s-14.00827,16.09214 -30.21618,6.59894c-16.671,-9.72475 3.47312,-55.1069 3.47312,-55.1069s40.28824,-1.73656 45.72947,7.75664z" id="svg_197"/>
     <path stroke="null" class="st36" d="m193.72,126.36188l0,0c0,0 -0.11577,0.11577 0,0z" id="svg_198"/>
     <path stroke="null" class="st36" d="m170.68161,71.25498c13.66096,-4.05198 24.08033,-2.19965 35.3101,6.25162c12.73479,9.60898 6.83048,32.06851 -3.12581,42.95097c-7.17779,7.87241 -8.56704,9.49321 -8.79858,9.84052l-2.66273,-10.88246c2.54696,1.50502 6.48317,-1.73656 6.48317,-9.14589c0,-7.29356 -9.60898,0.57885 -9.60898,0.57885s2.08387,-9.72475 0.23154,-14.47135c-1.73656,-4.7466 -26.51152,-9.49321 -26.51152,-9.49321s-4.51506,-11.80862 8.68281,-15.62906z" id="svg_199"/>
     <path stroke="null" class="st37" d="m197.88775,110.26974c0,-0.46308 0,-0.92617 -0.11577,-1.27348c1.85233,-0.92617 3.5889,-2.08387 5.09392,-3.5889c3.35735,-3.35735 5.09392,-6.59894 5.90431,-11.22977c1.04194,-5.67277 0,-12.04016 -3.12581,-17.01831c0.11577,0.11577 0.23154,0.11577 0.34731,0.23154c12.73479,9.60898 6.83048,32.06851 -3.12581,42.95097c-7.17779,7.87241 -8.56704,9.49321 -8.79858,9.84052l-2.66273,-10.88246c2.54696,1.62079 6.59894,-1.62079 6.48317,-9.03012z" id="svg_200"/>
     <path stroke="null" class="st37" d="m189.20494,109.69089c0.11577,0 0.23154,0.11577 0.46308,0.11577c-0.8104,0.57885 -1.38925,1.04194 -1.38925,1.04194s0.11577,-0.57885 0.23154,-1.38925c0.23154,0.11577 0.46308,0.23154 0.69462,0.23154z" id="svg_201"/>
     <g stroke="null" id="svg_202">
      <path stroke="null" d="m191.17304,110.50128l-1.9681,5.09392c-0.11577,0.34731 -0.23154,0.69462 -0.11577,1.15771c-1.85233,4.05198 -4.05198,7.98819 -6.59894,11.69285c-1.62079,2.43119 -3.70467,4.63083 -6.02008,6.48317c-1.9681,1.85233 -4.51506,2.89427 -7.29356,3.12581c-1.73656,-0.11577 -3.47312,-0.34731 -5.20969,-0.8104l-5.67277,-1.15771c-0.92617,-0.23154 -1.04194,1.27348 -0.23154,1.38925l5.20969,1.04194c1.62079,0.46308 3.35735,0.69462 5.09392,0.92617c2.7785,0.11577 5.44123,-0.8104 7.64087,-2.43119c4.97814,-3.47312 8.68281,-8.91435 11.46131,-14.23981c0.8104,-1.50502 1.62079,-3.01004 2.31542,-4.63083c0.23154,0.23154 0.57885,0.34731 0.92617,0.34731c0.34731,0.11577 0.69462,0 0.92617,-0.11577c0.34731,-0.11577 0.57885,-0.23154 0.8104,-0.46308c0.23154,-0.23154 0.46308,-0.46308 0.57885,-0.8104l1.9681,-5.09392c0.11577,-0.57885 0.11577,-1.04194 -0.11577,-1.62079c-0.23154,-0.46308 -0.57885,-0.92617 -1.15771,-1.15771c-0.57885,-0.23154 -1.04194,-0.23154 -1.62079,0c-0.34731,0.34731 -0.69462,0.8104 -0.92617,1.27348z" id="svg_203"/>
      <path stroke="null" d="m158.52567,135.27624l10.18783,1.73656c0.92617,0.11577 1.04194,-1.27348 0.23154,-1.38925l-10.18783,-1.73656c-0.92617,-0.23154 -1.04194,1.15771 -0.23154,1.38925z" id="svg_204"/>
     </g>
    </g>
   </g>
   <g stroke="null" id="whandr">
    <path stroke="null" class="st25" d="m140.23388,268.29689c3.70467,-0.11577 7.40933,-0.8104 10.76669,-1.9681c3.12581,-1.04194 5.44123,-2.7785 7.17779,-5.44123c0.23154,-0.34731 0.34731,-0.57885 0.57885,-0.92617c2.31542,-0.46308 4.7466,-0.92617 7.06202,-1.27348c0.46308,-0.11577 0.8104,-0.23154 1.27348,-0.34731c0.11577,0.11577 0.11577,0.11577 0.23154,0.23154c0.11577,0.11577 0.23154,0.23154 0.34731,0.34731c0.11577,0.23154 0.46308,0.69462 0.57885,0.8104l0,0c0,0.11577 0.11577,0.23154 0.11577,0.34731c0.11577,0.34731 0.34731,0.8104 0.34731,0.92617c0,0.11577 0,0.23154 0.11577,0.23154c-2.7785,0.34731 -5.67277,0.69462 -8.68281,1.04194l-0.11577,0c-3.35735,8.21973 -16.78677,8.68281 -20.37566,8.45127l-4.86237,1.62079c-0.34731,0.11577 -0.57885,0.11577 -0.92617,0.11577c-0.92617,0 -1.73656,-0.46308 -2.31542,-1.15771c3.01004,-0.69462 5.78854,-1.62079 8.68281,-3.01004z" id="svg_205"/>
    <g stroke="null" id="svg_206">
     <path stroke="null" class="st22" d="m193.37269,261.81373c-7.64087,1.85233 -4.05198,1.27348 -11.34554,3.82044c-6.25162,2.19965 -12.73479,3.70467 -19.33373,4.97814c-0.92617,0.11577 -1.85233,0.23154 -2.7785,0.23154c-0.8104,-8.68281 -1.73656,-18.06025 -2.66273,-26.62729c1.62079,0.23154 3.12581,0.46308 4.51506,0.57885c4.16775,0.34731 6.25162,0.69462 10.41937,0.34731c2.7785,-0.23154 8.3355,-0.11577 8.3355,-0.11577c2.66273,-0.57885 5.90431,-2.31542 8.45127,-3.47312c0.11577,0 31.83697,-14.00827 34.61547,-17.71293c1.50502,-2.08387 2.19965,-28.13231 2.19965,-33.57353c0,-1.15771 -0.34731,-2.08387 -0.92617,-3.01004c-0.11577,-0.46308 -0.23154,-0.92617 -0.57885,-1.38925c0.11577,-2.08387 0.11577,-4.16775 0.11577,-6.25162c0,-0.57885 -0.11577,-1.15771 -0.23154,-1.73656c2.08387,-0.46308 3.82044,-1.62079 5.67277,-3.01004c3.01004,-2.43119 6.02008,-4.86237 9.03012,-7.29356c-2.7785,22.228 -6.02008,54.64382 -5.67277,69.23094c0,1.73656 0.57885,3.82044 1.62079,6.13585c-1.62079,0.23154 -3.35735,0.57885 -4.97814,1.04194c-6.02008,1.50502 -12.15593,4.16775 -16.671,8.68281c-2.43119,2.43119 -13.31364,1.9681 -13.42941,5.67277l-6.36739,3.47312z" id="svg_207"/>
     <path stroke="null" class="st34" d="m132.47724,254.98325c0.8104,-0.23154 1.9681,-0.57885 2.7785,-0.92617l12.73479,-3.82044l0,0c0,0 3.35735,-1.73656 9.60898,-1.9681c4.86237,-0.23154 16.32368,-0.46308 20.49143,0l0,0c3.35735,-1.15771 7.5251,-2.43119 12.15593,-3.93621c1.04194,1.73656 2.08387,3.47312 2.89427,5.32546c0.34731,0.69462 0.69462,1.50502 1.04194,2.31542c0,0.11577 0.11577,0.34731 0.11577,0.34731c0.11577,0.46308 0.34731,0.8104 0.46308,1.27348c0.69462,1.73656 1.27348,3.35735 1.73656,5.09392c0.11577,0.46308 0.34731,1.04194 0.46308,1.50502c-5.09392,0.57885 -10.53514,1.27348 -16.43945,1.9681l-0.11577,0c-3.35735,8.21973 -16.78677,8.68281 -20.37566,8.45127l-4.86237,1.62079c-0.34731,0.11577 -0.57885,0.11577 -0.92617,0.11577c-1.27348,0 -2.31542,-0.8104 -2.66273,-2.08387c-0.34731,-1.38925 0.46308,-2.89427 1.85233,-3.35735l3.01004,-1.04194l-4.7466,1.15771c-0.34731,0.11577 -0.57885,0.11577 -0.92617,0.11577c-1.15771,0 -2.31542,-0.8104 -2.66273,-1.9681c-0.34731,-1.38925 0.46308,-2.7785 1.85233,-3.35735l3.5889,-1.27348l-6.48317,1.85233c-0.34731,0.11577 -0.57885,0.11577 -0.92617,0.11577c-1.15771,0 -2.31542,-0.8104 -2.66273,-1.9681c-0.34731,-1.38925 0.46308,-2.7785 1.85233,-3.35735l5.32546,-1.85233l-14.12404,2.7785c-0.23154,0.11577 -3.70467,1.27348 -4.97814,-1.85233c-0.11577,-0.34731 0.23154,-1.04194 0.92617,-1.27348z" id="svg_208"/>
     <path stroke="null" class="st24" d="m183.18485,245.37427c14.70289,-4.86237 35.65741,-12.50325 49.20259,-18.29179c-6.71471,-20.49143 -8.79858,-39.94093 -20.6072,-58.00118c-10.99823,-20.37566 18.87064,-33.22622 28.13231,-10.3036c2.66273,4.97814 4.86237,10.07206 6.83048,15.05021c6.25162,16.20791 14.47135,33.80508 18.52333,50.59184c1.9681,8.10396 5.44123,19.10218 -4.28352,23.84879c-18.06025,8.91435 -36.00472,9.49321 -73.16715,14.00827c-0.11577,-0.8104 -4.16775,-15.8606 -4.63083,-16.90254z" id="svg_209"/>
     <path stroke="null" class="st22" d="m210.39099,252.89938c3.82044,-0.8104 7.5251,-1.85233 11.34554,-2.66273c2.43119,-0.57885 4.97814,-1.04194 7.40933,-1.73656c5.90431,-1.62079 11.80862,-3.93621 16.32368,-7.98819c4.97814,-4.51506 6.71471,-11.114 6.59894,-17.71293c-0.23154,-12.38748 -5.78854,-23.96456 -8.21973,-36.00472c-2.54696,-12.04016 -3.70467,-24.77495 -9.26166,-36.00472c2.08387,1.9681 3.93621,4.63083 5.32546,8.10396c2.66273,4.97814 4.86237,10.07206 6.83048,15.05021c6.25162,16.20791 14.47135,33.80508 18.52333,50.59184c1.9681,8.10396 5.44123,19.10218 -4.28352,23.84879c-18.06025,8.91435 -36.00472,9.49321 -73.16715,14.00827c0,-0.34731 -0.69462,-2.7785 -1.38925,-5.67277c7.98819,-1.04194 15.97637,-2.19965 23.96456,-3.82044z" id="svg_210"/>
    </g>
   </g>
   <path stroke="null" class="st37" d="m203.56052,139.09667l-7.40933,-5.20969c0,0 -2.54696,14.00827 -17.01831,14.58712l4.63083,11.57708c0,0 16.78677,-6.59894 19.79681,-20.95452z" id="svg_211"/>
   <path stroke="null" class="st38" d="m203.56052,139.09667l-7.40933,-5.20969c0,0 -2.54696,14.00827 -17.01831,14.58712l5.09392,8.91435c0,0 13.0821,-2.89427 19.33373,-18.29179z" id="svg_212"/>
   <path stroke="null" class="st37" d="m172.88125,139.09667c0,0 0,8.10396 6.25162,9.49321l-6.36739,8.91435c0,0 -4.51506,-5.90431 -3.82044,-12.38748l3.93621,-6.02008z" id="svg_213"/>
   <path stroke="null" class="st38" d="m172.88125,139.09667c0,0 0,8.10396 6.25162,9.49321l-6.25162,6.83048c0,0 -3.82044,-5.44123 -3.82044,-10.3036l3.82044,-6.02008z" id="svg_214"/>
   <g stroke="null" id="wbru">
    <path stroke="null" class="st32" d="m174.96513,101.23962c1.85233,-0.34731 3.5889,-0.34731 5.44123,0.11577c1.73656,0.46308 3.35735,1.38925 4.7466,2.66273c0.69462,0.69462 1.85233,-0.46308 1.04194,-1.04194c-1.50502,-1.38925 -3.35735,-2.43119 -5.44123,-3.01004s-4.16775,-0.57885 -6.13585,-0.11577c-1.04194,0.11577 -0.57885,1.62079 0.34731,1.38925z" id="svg_217"/>
    <path stroke="null" class="st32" d="m162.69342,95.21954c1.50502,0 3.01004,0.46308 4.16775,1.27348c1.27348,0.8104 2.31542,2.08387 3.01004,3.5889c0.34731,0.8104 1.50502,0 1.15771,-0.8104c-0.8104,-1.73656 -1.9681,-3.12581 -3.47312,-4.05198c-1.38925,-0.92617 -3.12581,-1.50502 -4.86237,-1.50502c-0.8104,0 -0.8104,1.50502 0,1.50502z" id="svg_218"/>
   </g>
  </g>
 </g>
</svg>