<?xml version="1.0" encoding="utf-8"?>
<!-- Generator: Adobe Illustrator 16.0.0, SVG Export Plug-In . SVG Version: 6.00 Build 0)  -->
<!DOCTYPE svg PUBLIC "-//W3C//DTD SVG 1.1//EN" "http://www.w3.org/Graphics/SVG/1.1/DTD/svg11.dtd">
<svg version="1.1" id="Layer_1" xmlns="http://www.w3.org/2000/svg" xmlns:xlink="http://www.w3.org/1999/xlink" x="0px" y="0px"
	 width="20px" height="20px" viewBox="0 0 20 20" enable-background="new 0 0 20 20" xml:space="preserve">
<polygon fill-rule="evenodd" clip-rule="evenodd" fill="#2C3E50" points="19.034,12.747 19.034,13.14 19.03,13.16 19.022,13.182 
	19.011,13.202 19,13.222 18.986,13.242 18.971,13.262 18.955,13.281 18.938,13.299 18.917,13.317 18.896,13.337 18.873,13.352 
	18.847,13.369 18.821,13.388 10.146,18.396 10.119,18.41 10.089,18.424 10.059,18.438 10.029,18.452 9.996,18.464 9.964,18.472 
	9.929,18.483 9.896,18.491 9.861,18.499 9.826,18.503 9.791,18.511 9.755,18.515 9.719,18.52 9.683,18.521 9.646,18.523 
	9.61,18.523 9.573,18.523 9.537,18.521 9.5,18.52 9.464,18.515 9.429,18.511 9.394,18.503 9.358,18.499 9.324,18.491 9.29,18.481 
	9.256,18.472 9.224,18.464 9.192,18.45 9.161,18.438 9.13,18.424 9.102,18.408 9.073,18.396 1.05,13.758 1.023,13.741 0.999,13.724 
	0.975,13.706 0.954,13.688 0.933,13.671 0.915,13.65 0.9,13.632 0.884,13.612 0.871,13.592 0.86,13.572 0.851,13.553 0.842,13.531 
	0.836,13.509 0.836,13.118 0.842,13.14 0.851,13.16 0.86,13.182 0.871,13.201 0.884,13.222 0.9,13.242 0.915,13.26 0.933,13.279 
	0.954,13.297 0.975,13.317 0.999,13.333 1.023,13.35 1.05,13.365 9.073,18.004 9.102,18.02 9.13,18.031 9.161,18.047 9.192,18.059 
	9.224,18.07 9.256,18.083 9.29,18.091 9.324,18.099 9.358,18.106 9.394,18.113 9.429,18.117 9.464,18.121 9.5,18.125 9.537,18.129 
	9.573,18.129 9.61,18.131 9.646,18.129 9.683,18.129 9.719,18.125 9.755,18.121 9.791,18.117 9.826,18.113 9.861,18.106 
	9.896,18.099 9.929,18.091 9.964,18.083 9.996,18.07 10.029,18.059 10.059,18.047 10.089,18.033 10.119,18.02 10.146,18.004 
	18.821,12.994 18.847,12.979 18.873,12.963 18.896,12.943 18.917,12.927 18.938,12.908 18.955,12.889 18.971,12.869 18.986,12.851 
	19,12.829 19.011,12.81 19.022,12.79 19.03,12.769 "/>
<path fill-rule="evenodd" clip-rule="evenodd" fill="#415A73" d="M1.051,12.747l8.674-5.011c0.295-0.17,0.778-0.169,1.074,0.001
	l8.022,4.638c0.295,0.169,0.295,0.45,0,0.619l-8.675,5.01c-0.295,0.169-0.778,0.169-1.074,0L1.05,13.365
	C0.755,13.195,0.756,12.915,1.051,12.747z"/>
<polygon fill-rule="evenodd" clip-rule="evenodd" fill="#2C3E50" points="17.96,12.442 17.96,12.785 17.956,12.806 17.948,12.825 
	17.94,12.841 17.931,12.86 17.919,12.879 17.905,12.896 17.891,12.912 17.876,12.927 17.858,12.945 17.839,12.961 17.818,12.977 
	17.795,12.99 17.771,13.006 10.122,17.424 10.097,17.438 10.071,17.449 10.044,17.461 10.017,17.473 9.988,17.482 9.961,17.493 
	9.931,17.501 9.901,17.509 9.87,17.515 9.839,17.521 9.807,17.524 9.776,17.528 9.745,17.531 9.712,17.533 9.681,17.535 
	9.648,17.535 9.617,17.535 9.584,17.533 9.552,17.531 9.521,17.528 9.489,17.524 9.458,17.521 9.427,17.515 9.396,17.509 
	9.366,17.501 9.337,17.493 9.308,17.482 9.279,17.473 9.252,17.461 9.226,17.449 9.2,17.438 9.174,17.422 2.099,13.333 
	2.074,13.319 2.053,13.304 2.032,13.289 2.013,13.273 1.996,13.256 1.98,13.24 1.965,13.222 1.953,13.204 1.94,13.188 1.931,13.17 
	1.922,13.151 1.915,13.132 1.91,13.114 1.91,12.77 1.915,12.787 1.922,12.806 1.931,12.825 1.94,12.841 1.953,12.86 1.965,12.877 
	1.98,12.895 1.996,12.912 2.013,12.927 2.032,12.943 2.053,12.959 2.074,12.973 2.099,12.986 9.174,17.078 9.2,17.092 9.226,17.103 
	9.252,17.114 9.279,17.127 9.308,17.139 9.337,17.146 9.366,17.154 9.396,17.162 9.427,17.168 9.458,17.174 9.489,17.18 
	9.521,17.184 9.552,17.186 9.584,17.189 9.617,17.189 9.648,17.189 9.681,17.189 9.712,17.189 9.745,17.186 9.776,17.184 
	9.807,17.18 9.839,17.174 9.87,17.17 9.901,17.162 9.931,17.154 9.961,17.146 9.988,17.139 10.017,17.127 10.044,17.114 
	10.071,17.104 10.097,17.092 10.122,17.078 17.771,12.66 17.795,12.646 17.818,12.632 17.839,12.615 17.858,12.602 17.876,12.584 
	17.891,12.565 17.905,12.55 17.919,12.532 17.931,12.515 17.94,12.497 17.948,12.479 17.956,12.462 "/>
<path fill-rule="evenodd" clip-rule="evenodd" fill="#415A73" d="M2.099,12.44l7.65-4.418c0.26-0.149,0.687-0.149,0.946,0
	l7.076,4.091c0.261,0.149,0.26,0.397,0,0.547l-7.649,4.418c-0.261,0.151-0.687,0.151-0.948,0l-7.075-4.092
	C1.838,12.837,1.838,12.592,2.099,12.44z"/>
<polygon fill-rule="evenodd" clip-rule="evenodd" fill="#E6EAEB" points="9.216,15.338 9.216,15.631 9.223,15.662 9.231,15.694 
	9.243,15.726 9.258,15.757 9.274,15.788 9.294,15.816 9.318,15.848 9.342,15.877 9.369,15.906 9.4,15.934 9.433,15.96 9.469,15.987 
	9.507,16.013 9.549,16.038 9.591,16.062 9.636,16.085 9.682,16.104 9.73,16.123 9.777,16.141 9.828,16.156 9.878,16.172 
	9.931,16.186 9.983,16.197 10.036,16.205 10.09,16.215 10.144,16.221 10.198,16.227 10.254,16.23 10.309,16.232 10.364,16.232 
	10.419,16.232 10.476,16.23 10.53,16.227 10.584,16.221 10.64,16.215 10.693,16.205 10.747,16.197 10.799,16.186 10.85,16.172 
	10.901,16.158 10.951,16.143 11,16.123 11.047,16.104 11.093,16.085 11.138,16.062 11.181,16.038 11.222,16.013 11.261,15.987 
	11.297,15.96 11.328,15.934 11.359,15.906 11.387,15.877 11.412,15.848 11.435,15.816 11.454,15.788 11.471,15.757 11.485,15.726 
	11.498,15.694 11.507,15.662 11.514,15.631 11.514,15.338 11.507,15.371 11.498,15.401 11.485,15.433 11.471,15.464 11.454,15.495 
	11.435,15.523 11.412,15.553 11.387,15.584 11.359,15.611 11.328,15.641 11.297,15.667 11.261,15.694 11.222,15.72 11.181,15.745 
	11.138,15.769 11.093,15.79 11.047,15.811 11,15.83 10.951,15.848 10.901,15.863 10.85,15.879 10.799,15.891 10.747,15.902 
	10.693,15.914 10.64,15.922 10.584,15.93 10.53,15.934 10.476,15.938 10.419,15.939 10.364,15.941 10.309,15.939 10.254,15.938 
	10.198,15.934 10.144,15.93 10.09,15.922 10.036,15.914 9.983,15.902 9.931,15.891 9.878,15.879 9.828,15.863 9.777,15.848 
	9.73,15.83 9.682,15.811 9.636,15.79 9.591,15.769 9.549,15.745 9.507,15.72 9.469,15.694 9.433,15.667 9.4,15.641 9.369,15.611 
	9.342,15.584 9.318,15.553 9.294,15.523 9.274,15.495 9.258,15.464 9.243,15.433 9.231,15.401 9.223,15.371 "/>
<path fill-rule="evenodd" clip-rule="evenodd" fill="#9C9C9C" d="M10.698,14.928c-0.457-0.265-1.198-0.265-1.653,0
	c-0.458,0.263-0.458,0.691,0,0.955c0.456,0.263,1.197,0.263,1.653,0C11.156,15.619,11.156,15.19,10.698,14.928z"/>
<path fill-rule="evenodd" clip-rule="evenodd" fill="#E74C3C" d="M10.477,10.753c-0.334-0.194-0.876-0.194-1.211,0
	c-0.334,0.192-0.334,0.505,0,0.699c0.334,0.193,0.876,0.193,1.211,0C10.813,11.259,10.813,10.946,10.477,10.753z"/>
<path fill-rule="evenodd" clip-rule="evenodd" fill="#E6EAEB" d="M9.269,14.935c0.333-0.19,0.872-0.19,1.206,0
	c0.333,0.192,0.333,0.506,0,0.696c-0.333,0.192-0.873,0.192-1.206,0C8.936,15.44,8.936,15.127,9.269,14.935z"/>
<polygon fill-rule="evenodd" clip-rule="evenodd" fill="#A3ADB5" points="10.721,15.33 10.721,15.414 10.715,15.438 10.708,15.462 
	10.699,15.483 10.688,15.508 10.676,15.53 10.662,15.552 10.646,15.573 10.626,15.596 10.605,15.617 10.584,15.639 10.558,15.658 
	10.532,15.678 10.504,15.695 10.474,15.715 10.442,15.733 10.409,15.749 10.375,15.765 10.34,15.778 10.305,15.79 10.269,15.802 
	10.23,15.813 10.193,15.823 10.153,15.831 10.114,15.839 10.074,15.845 10.035,15.849 9.994,15.854 9.953,15.856 9.912,15.858 
	9.871,15.86 9.831,15.858 9.79,15.856 9.75,15.854 9.708,15.849 9.669,15.845 9.629,15.839 9.59,15.831 9.55,15.823 9.512,15.813 
	9.475,15.802 9.438,15.79 9.402,15.778 9.367,15.765 9.333,15.749 9.3,15.733 9.269,15.715 9.238,15.695 9.21,15.678 9.184,15.658 
	9.16,15.639 9.137,15.617 9.117,15.596 9.098,15.573 9.081,15.552 9.066,15.53 9.053,15.508 9.043,15.483 9.035,15.462 
	9.028,15.438 9.023,15.414 9.023,15.33 9.028,15.354 9.035,15.377 9.043,15.4 9.053,15.424 9.066,15.446 9.081,15.468 9.098,15.491 
	9.117,15.511 9.137,15.534 9.16,15.554 9.184,15.573 9.21,15.594 9.238,15.613 9.269,15.631 9.3,15.648 9.333,15.664 9.367,15.68 
	9.402,15.695 9.438,15.707 9.475,15.719 9.512,15.731 9.55,15.739 9.59,15.747 9.629,15.755 9.669,15.763 9.708,15.767 9.75,15.771 
	9.79,15.774 9.831,15.774 9.871,15.774 9.912,15.774 9.953,15.774 9.994,15.771 10.035,15.767 10.074,15.763 10.114,15.755 
	10.153,15.747 10.193,15.739 10.23,15.731 10.269,15.719 10.305,15.707 10.34,15.695 10.375,15.68 10.409,15.664 10.442,15.648 
	10.474,15.631 10.504,15.613 10.532,15.594 10.558,15.573 10.584,15.554 10.605,15.534 10.626,15.511 10.646,15.491 10.662,15.468 
	10.676,15.446 10.688,15.424 10.699,15.4 10.708,15.377 10.715,15.354 "/>
<path fill-rule="evenodd" clip-rule="evenodd" fill="#C5CCD1" d="M9.281,14.942c0.327-0.188,0.854-0.188,1.181,0
	c0.326,0.187,0.326,0.494,0,0.683c-0.327,0.188-0.855,0.188-1.182,0C8.955,15.437,8.955,15.129,9.281,14.942z"/>
<polygon fill-rule="evenodd" clip-rule="evenodd" fill="#E6EAEB" points="10.688,11.306 10.688,15.307 10.684,15.33 10.678,15.352 
	10.67,15.373 10.659,15.396 10.647,15.418 10.632,15.44 10.616,15.462 10.599,15.483 10.579,15.503 10.556,15.522 10.533,15.542 
	10.508,15.562 10.481,15.58 10.45,15.598 10.42,15.615 10.388,15.629 10.354,15.645 10.321,15.658 10.287,15.672 10.251,15.684 
	10.214,15.691 10.178,15.701 10.141,15.711 10.102,15.717 10.063,15.723 10.024,15.729 9.985,15.733 9.946,15.735 9.907,15.737 
	9.866,15.737 9.827,15.737 9.788,15.735 9.749,15.733 9.708,15.729 9.67,15.723 9.63,15.719 9.593,15.711 9.556,15.701 
	9.519,15.691 9.482,15.684 9.447,15.672 9.412,15.658 9.377,15.645 9.345,15.629 9.313,15.615 9.282,15.598 9.252,15.58 
	9.225,15.562 9.2,15.542 9.176,15.522 9.155,15.503 9.134,15.483 9.117,15.462 9.101,15.44 9.087,15.418 9.074,15.396 9.063,15.373 
	9.055,15.352 9.049,15.33 9.044,15.307 9.044,11.306 9.049,11.328 9.055,11.351 9.063,11.373 9.074,11.396 9.087,11.418 
	9.101,11.439 9.117,11.461 9.134,11.481 9.155,11.502 9.176,11.521 9.2,11.542 9.225,11.562 9.252,11.579 9.282,11.598 
	9.313,11.615 9.345,11.63 9.377,11.645 9.412,11.658 9.447,11.671 9.482,11.682 9.519,11.693 9.556,11.702 9.593,11.711 
	9.63,11.718 9.67,11.724 9.708,11.729 9.749,11.732 9.788,11.735 9.827,11.736 9.866,11.737 9.907,11.736 9.946,11.735 
	9.985,11.732 10.024,11.729 10.063,11.724 10.102,11.718 10.141,11.711 10.178,11.702 10.214,11.693 10.251,11.682 10.287,11.671 
	10.321,11.658 10.354,11.645 10.388,11.63 10.42,11.615 10.45,11.598 10.481,11.579 10.508,11.562 10.533,11.542 10.556,11.521 
	10.579,11.502 10.599,11.481 10.616,11.461 10.632,11.439 10.647,11.418 10.659,11.396 10.67,11.373 10.678,11.351 10.684,11.328 
	"/>
<path fill-rule="evenodd" clip-rule="evenodd" fill="#C5CCD1" d="M9.283,15.389c0,0.069-0.124,0.039-0.124-0.043
	c0-0.481,0-3.042,0-3.525c0-0.082,0.124-0.042,0.124,0.028C9.283,12.359,9.283,14.878,9.283,15.389z"/>
<path fill-rule="evenodd" clip-rule="evenodd" fill="#C5CCD1" d="M10.477,15.404c0,0.062-0.104,0.06-0.104-0.006v-3.513
	c0-0.065,0.104-0.068,0.104-0.008V15.404z"/>
<path fill-rule="evenodd" clip-rule="evenodd" fill="#AFB6B8" d="M10.374,15.387v-3.501c0-0.037,0.036-0.055,0.064-0.05
	c0.007,0.015,0.01,0.031,0.01,0.042v3.515C10.447,15.456,10.374,15.44,10.374,15.387z"/>
<path fill-rule="evenodd" clip-rule="evenodd" fill="#AFB6B8" d="M10.655,15.249c0,0.023-0.045,0.021-0.045-0.008
	c0-0.413,0-3.115,0-3.527c0-0.032,0.045-0.032,0.045-0.008C10.655,12.123,10.655,14.83,10.655,15.249z"/>
<path fill-rule="evenodd" clip-rule="evenodd" fill="#C5CCD1" d="M10.141,15.508c0,0.098-0.162,0.098-0.162,0
	c0-0.591,0-2.908,0-3.499c0-0.097,0.162-0.097,0.162,0C10.141,12.6,10.141,14.917,10.141,15.508z"/>
<path fill-rule="evenodd" clip-rule="evenodd" fill="#AFB6B8" d="M10.12,12.009c0-0.045-0.035-0.068-0.071-0.072
	c-0.038,0.004-0.071,0.027-0.071,0.072c0,0.591,0,2.896,0,3.488c0,0.045,0.033,0.068,0.071,0.072
	c0.036-0.004,0.071-0.027,0.071-0.072C10.12,14.905,10.12,12.6,10.12,12.009z"/>
<path fill-rule="evenodd" clip-rule="evenodd" fill="#C5CCD1" d="M9.673,11.984c0-0.084-0.143-0.073-0.143,0.017
	c0,0.585,0,2.912,0,3.498c0,0.089,0.143,0.099,0.143,0.016C9.673,14.917,9.673,12.58,9.673,11.984z"/>
<path fill-rule="evenodd" clip-rule="evenodd" fill="#AFB6B8" d="M9.283,15.377c0,0.067-0.086,0.029-0.086-0.041v-3.561
	c0.036-0.005,0.086,0.028,0.086,0.073C9.283,12.194,9.283,15.031,9.283,15.377z"/>
<path fill-rule="evenodd" clip-rule="evenodd" fill="#AFB6B8" d="M9.673,11.984c0-0.057-0.064-0.07-0.106-0.047
	c-0.007,0.011-0.009,0.023-0.009,0.037c0,0.585,0,2.927,0,3.513c0,0.095,0.116,0.09,0.116,0.016
	C9.673,14.907,9.673,12.58,9.673,11.984z"/>
<path fill-rule="evenodd" clip-rule="evenodd" fill="#E6EAEB" d="M9.269,11.051c0.333-0.192,0.873-0.192,1.206,0
	c0.333,0.192,0.333,0.505,0,0.696c-0.333,0.191-0.872,0.192-1.206,0C8.936,11.556,8.936,11.243,9.269,11.051z"/>
<polygon fill-rule="evenodd" clip-rule="evenodd" fill="#7F8C8D" points="8.708,11.041 8.708,11.339 8.714,11.37 8.723,11.403 
	8.735,11.435 8.75,11.467 8.766,11.497 8.787,11.527 8.811,11.559 8.835,11.588 8.863,11.616 8.895,11.646 8.928,11.673 8.964,11.7 
	9.002,11.727 9.045,11.752 9.088,11.775 9.133,11.797 9.179,11.818 9.229,11.838 9.276,11.855 9.328,11.872 9.379,11.887 
	9.432,11.899 9.485,11.911 9.538,11.921 9.593,11.93 9.648,11.937 9.703,11.941 9.759,11.946 9.815,11.948 9.871,11.949 
	9.927,11.948 9.984,11.946 10.04,11.941 10.094,11.937 10.15,11.93 10.205,11.921 10.259,11.911 10.312,11.899 10.364,11.887 
	10.415,11.872 10.466,11.855 10.515,11.838 10.563,11.818 10.609,11.797 10.655,11.775 10.698,11.752 10.74,11.727 10.779,11.7 
	10.816,11.673 10.848,11.646 10.88,11.616 10.907,11.588 10.934,11.559 10.956,11.527 10.976,11.497 10.992,11.467 11.008,11.435 
	11.021,11.403 11.029,11.37 11.036,11.339 11.036,11.041 11.029,11.073 11.021,11.105 11.008,11.138 10.992,11.169 10.976,11.199 
	10.956,11.229 10.934,11.262 10.907,11.29 10.88,11.321 10.848,11.348 10.816,11.375 10.779,11.403 10.74,11.43 10.698,11.454 
	10.655,11.478 10.609,11.5 10.563,11.521 10.515,11.541 10.466,11.559 10.415,11.574 10.364,11.59 10.312,11.603 10.259,11.615 
	10.205,11.624 10.15,11.633 10.094,11.64 10.04,11.646 9.984,11.648 9.927,11.651 9.871,11.651 9.815,11.651 9.759,11.648 
	9.703,11.646 9.648,11.64 9.593,11.633 9.538,11.624 9.485,11.615 9.432,11.603 9.379,11.59 9.328,11.574 9.276,11.559 
	9.229,11.541 9.179,11.521 9.133,11.5 9.088,11.478 9.045,11.454 9.002,11.43 8.964,11.403 8.928,11.375 8.895,11.348 8.863,11.321 
	8.835,11.29 8.811,11.262 8.787,11.229 8.766,11.2 8.75,11.169 8.735,11.138 8.723,11.105 8.714,11.073 "/>
<path fill-rule="evenodd" clip-rule="evenodd" fill="#9C9C9C" d="M10.698,10.499c-0.457-0.264-1.198-0.264-1.653,0
	c-0.458,0.265-0.458,0.692,0,0.956c0.456,0.264,1.197,0.265,1.653,0C11.156,11.19,11.156,10.763,10.698,10.499z"/>
<polygon fill-rule="evenodd" clip-rule="evenodd" fill="#E6EAEB" points="14.164,12.267 14.164,12.565 14.17,12.598 14.18,12.628 
	14.193,12.66 14.207,12.691 14.225,12.724 14.245,12.755 14.267,12.783 14.291,12.813 14.319,12.843 14.351,12.873 14.387,12.9 
	14.422,12.927 14.461,12.953 14.5,12.977 14.546,13.002 14.59,13.024 14.638,13.046 14.686,13.064 14.733,13.08 14.783,13.099 
	14.835,13.112 14.889,13.126 14.94,13.138 14.996,13.147 15.051,13.156 15.105,13.164 15.16,13.168 15.216,13.172 15.271,13.176 
	15.327,13.176 15.385,13.176 15.439,13.172 15.495,13.168 15.552,13.164 15.606,13.156 15.66,13.147 15.716,13.138 15.768,13.126 
	15.821,13.112 15.872,13.099 15.924,13.08 15.973,13.064 16.02,13.046 16.066,13.024 16.112,13.002 16.156,12.977 16.198,12.953 
	16.236,12.927 16.273,12.9 16.305,12.873 16.336,12.843 16.364,12.813 16.392,12.783 16.413,12.755 16.433,12.724 16.45,12.691 
	16.466,12.66 16.478,12.628 16.485,12.598 16.493,12.565 16.493,12.267 16.485,12.3 16.478,12.332 16.466,12.363 16.45,12.395 
	16.433,12.427 16.413,12.456 16.392,12.486 16.364,12.517 16.336,12.546 16.305,12.574 16.273,12.602 16.236,12.628 16.198,12.656 
	16.156,12.68 16.112,12.703 16.066,12.728 16.02,12.747 15.973,12.767 15.924,12.785 15.872,12.802 15.821,12.815 15.768,12.829 
	15.716,12.841 15.66,12.851 15.606,12.858 15.552,12.865 15.495,12.873 15.439,12.877 15.385,12.879 15.327,12.879 15.271,12.879 
	15.216,12.877 15.16,12.871 15.105,12.865 15.051,12.858 14.996,12.851 14.94,12.841 14.889,12.829 14.835,12.815 14.783,12.802 
	14.733,12.785 14.686,12.767 14.638,12.747 14.59,12.728 14.546,12.703 14.5,12.68 14.461,12.656 14.422,12.628 14.387,12.602 
	14.351,12.574 14.319,12.546 14.291,12.517 14.267,12.486 14.245,12.456 14.225,12.427 14.207,12.395 14.193,12.363 14.18,12.332 
	14.17,12.3 "/>
<path fill-rule="evenodd" clip-rule="evenodd" fill="#9C9C9C" d="M16.156,11.726c-0.457-0.265-1.198-0.265-1.656,0
	c-0.456,0.265-0.456,0.69,0,0.954c0.458,0.264,1.199,0.264,1.656,0C16.611,12.416,16.611,11.989,16.156,11.726z"/>
<path fill-rule="evenodd" clip-rule="evenodd" fill="#E74C3C" d="M15.936,7.551c-0.335-0.193-0.877-0.194-1.214,0
	c-0.333,0.193-0.333,0.505,0,0.698c0.337,0.194,0.879,0.194,1.214,0C16.27,8.057,16.27,7.744,15.936,7.551z"/>
<path fill-rule="evenodd" clip-rule="evenodd" fill="#E6EAEB" d="M14.724,11.733c0.335-0.191,0.873-0.192,1.208,0
	c0.332,0.191,0.334,0.503,0,0.697c-0.333,0.19-0.873,0.19-1.208,0C14.393,12.236,14.395,11.925,14.724,11.733z"/>
<polygon fill-rule="evenodd" clip-rule="evenodd" fill="#A3ADB5" points="16.177,12.129 16.177,12.213 16.171,12.235 16.165,12.259 
	16.156,12.283 16.146,12.306 16.134,12.328 16.118,12.351 16.103,12.372 16.085,12.393 16.063,12.416 16.041,12.437 16.016,12.456 
	15.99,12.476 15.963,12.495 15.932,12.513 15.899,12.53 15.867,12.546 15.833,12.562 15.798,12.578 15.762,12.59 15.725,12.602 
	15.688,12.613 15.648,12.621 15.61,12.628 15.572,12.636 15.532,12.645 15.491,12.648 15.451,12.652 15.409,12.656 15.369,12.656 
	15.327,12.658 15.287,12.656 15.247,12.656 15.206,12.652 15.164,12.648 15.126,12.645 15.086,12.636 15.047,12.628 15.007,12.621 
	14.969,12.613 14.933,12.602 14.896,12.59 14.858,12.578 14.825,12.562 14.791,12.546 14.758,12.53 14.724,12.513 14.695,12.495 
	14.667,12.476 14.642,12.456 14.616,12.437 14.594,12.416 14.572,12.393 14.556,12.372 14.54,12.351 14.523,12.328 14.512,12.306 
	14.5,12.283 14.492,12.259 14.484,12.235 14.48,12.213 14.48,12.129 14.484,12.153 14.492,12.176 14.5,12.198 14.512,12.222 
	14.523,12.244 14.54,12.267 14.556,12.289 14.572,12.311 14.594,12.332 14.616,12.353 14.642,12.372 14.667,12.393 14.695,12.412 
	14.724,12.431 14.758,12.448 14.791,12.464 14.825,12.479 14.858,12.492 14.896,12.507 14.933,12.517 14.969,12.528 15.007,12.538 
	15.047,12.546 15.086,12.554 15.126,12.56 15.164,12.565 15.206,12.57 15.247,12.572 15.287,12.574 15.327,12.574 15.369,12.574 
	15.409,12.572 15.451,12.57 15.491,12.565 15.532,12.56 15.572,12.554 15.61,12.546 15.648,12.538 15.688,12.528 15.725,12.517 
	15.762,12.507 15.798,12.492 15.833,12.479 15.867,12.464 15.899,12.448 15.932,12.431 15.963,12.412 15.99,12.393 16.016,12.373 
	16.041,12.353 16.063,12.332 16.085,12.311 16.103,12.289 16.118,12.267 16.134,12.244 16.146,12.222 16.156,12.198 16.165,12.176 
	16.171,12.153 "/>
<path fill-rule="evenodd" clip-rule="evenodd" fill="#C5CCD1" d="M14.737,11.74c0.327-0.188,0.855-0.188,1.182,0
	c0.327,0.188,0.327,0.493,0,0.683c-0.326,0.188-0.854,0.188-1.182,0C14.412,12.233,14.414,11.929,14.737,11.74z"/>
<polygon fill-rule="evenodd" clip-rule="evenodd" fill="#E6EAEB" points="16.148,8.104 16.148,12.104 16.143,12.126 16.136,12.149 
	16.128,12.172 16.116,12.193 16.104,12.216 16.089,12.238 16.073,12.259 16.057,12.281 16.035,12.301 16.014,12.321 15.99,12.34 
	15.965,12.359 15.938,12.378 15.907,12.396 15.876,12.412 15.845,12.429 15.813,12.444 15.778,12.456 15.742,12.47 15.708,12.48 
	15.672,12.49 15.635,12.501 15.597,12.509 15.561,12.515 15.521,12.522 15.481,12.526 15.443,12.53 15.402,12.534 15.363,12.534 
	15.323,12.534 15.283,12.534 15.243,12.534 15.204,12.53 15.164,12.526 15.126,12.522 15.088,12.515 15.051,12.509 15.011,12.501 
	14.977,12.49 14.94,12.48 14.903,12.47 14.869,12.456 14.835,12.444 14.803,12.429 14.771,12.412 14.739,12.396 14.709,12.378 
	14.682,12.359 14.657,12.34 14.634,12.321 14.61,12.301 14.59,12.281 14.574,12.259 14.56,12.238 14.544,12.216 14.532,12.193 
	14.52,12.172 14.512,12.149 14.504,12.126 14.5,12.104 14.5,8.104 14.504,8.125 14.512,8.148 14.52,8.171 14.532,8.193 
	14.544,8.216 14.56,8.237 14.574,8.26 14.59,8.28 14.61,8.301 14.634,8.32 14.657,8.34 14.682,8.358 14.709,8.377 14.739,8.395 
	14.771,8.412 14.803,8.428 14.835,8.443 14.869,8.457 14.903,8.469 14.94,8.48 14.977,8.49 15.011,8.5 15.051,8.508 15.088,8.515 
	15.126,8.522 15.164,8.526 15.204,8.53 15.243,8.533 15.283,8.535 15.323,8.536 15.363,8.535 15.402,8.533 15.443,8.53 
	15.481,8.526 15.521,8.522 15.561,8.515 15.597,8.508 15.635,8.5 15.672,8.49 15.708,8.48 15.742,8.469 15.778,8.457 15.813,8.443 
	15.845,8.427 15.876,8.412 15.907,8.395 15.938,8.377 15.965,8.358 15.99,8.34 16.014,8.32 16.035,8.301 16.057,8.28 16.073,8.26 
	16.089,8.237 16.104,8.216 16.116,8.193 16.128,8.171 16.136,8.148 16.143,8.125 "/>
<path fill-rule="evenodd" clip-rule="evenodd" fill="#C5CCD1" d="M14.739,12.187c0,0.069-0.121,0.041-0.121-0.041
	c0-0.484,0-3.043,0-3.526c0-0.083,0.121-0.042,0.121,0.027C14.739,9.158,14.739,11.676,14.739,12.187z"/>
<path fill-rule="evenodd" clip-rule="evenodd" fill="#C5CCD1" d="M15.936,12.203c0,0.061-0.104,0.058-0.104-0.008V8.683
	c0-0.064,0.104-0.067,0.104-0.007V12.203z"/>
<path fill-rule="evenodd" clip-rule="evenodd" fill="#AFB6B8" d="M15.831,12.186V8.683c0-0.038,0.034-0.054,0.064-0.049
	c0.004,0.014,0.008,0.032,0.008,0.042v3.515C15.903,12.255,15.831,12.238,15.831,12.186z"/>
<path fill-rule="evenodd" clip-rule="evenodd" fill="#AFB6B8" d="M16.112,12.047c0,0.024-0.043,0.024-0.043-0.007
	c0-0.413,0-3.115,0-3.528c0-0.032,0.043-0.033,0.043-0.008C16.112,8.922,16.112,11.629,16.112,12.047z"/>
<path fill-rule="evenodd" clip-rule="evenodd" fill="#C5CCD1" d="M15.597,12.307c0,0.096-0.16,0.096-0.16,0c0-0.591,0-2.909,0-3.5
	c0-0.097,0.16-0.097,0.16,0C15.597,9.398,15.597,11.716,15.597,12.307z"/>
<path fill-rule="evenodd" clip-rule="evenodd" fill="#AFB6B8" d="M15.578,8.807c0-0.043-0.036-0.068-0.071-0.072
	c-0.04,0.004-0.07,0.027-0.07,0.072c0,0.591,0,2.898,0,3.488c0,0.044,0.03,0.068,0.07,0.071c0.035-0.003,0.071-0.027,0.071-0.071
	C15.578,11.705,15.578,9.398,15.578,8.807z"/>
<path fill-rule="evenodd" clip-rule="evenodd" fill="#C5CCD1" d="M15.13,8.782c0-0.083-0.142-0.073-0.142,0.016
	c0,0.586,0,2.913,0,3.498c0,0.089,0.142,0.099,0.142,0.017C15.13,11.717,15.13,9.378,15.13,8.782z"/>
<path fill-rule="evenodd" clip-rule="evenodd" fill="#AFB6B8" d="M14.739,12.176c0,0.067-0.086,0.028-0.086-0.041V8.573
	c0.036-0.004,0.086,0.03,0.086,0.074C14.739,8.994,14.739,11.828,14.739,12.176z"/>
<path fill-rule="evenodd" clip-rule="evenodd" fill="#AFB6B8" d="M15.13,8.782c0-0.056-0.063-0.07-0.107-0.046
	c-0.006,0.011-0.01,0.023-0.01,0.037c0,0.585,0,2.927,0,3.512c0,0.095,0.117,0.09,0.117,0.017C15.13,11.706,15.13,9.378,15.13,8.782
	z"/>
<path fill-rule="evenodd" clip-rule="evenodd" fill="#E6EAEB" d="M14.724,7.85c0.335-0.193,0.873-0.193,1.208,0
	c0.332,0.192,0.334,0.503,0,0.696c-0.333,0.192-0.873,0.192-1.208,0C14.393,8.353,14.395,8.042,14.724,7.85z"/>
<polygon fill-rule="evenodd" clip-rule="evenodd" fill="#7F8C8D" points="14.164,7.839 14.164,8.136 14.17,8.169 14.18,8.201 
	14.193,8.233 14.207,8.264 14.225,8.296 14.245,8.327 14.267,8.356 14.291,8.386 14.319,8.416 14.351,8.443 14.387,8.472 
	14.422,8.498 14.461,8.524 14.5,8.55 14.546,8.574 14.59,8.597 14.638,8.616 14.686,8.636 14.733,8.653 14.783,8.67 14.835,8.685 
	14.889,8.698 14.94,8.709 14.996,8.719 15.051,8.728 15.105,8.735 15.16,8.741 15.216,8.744 15.271,8.746 15.327,8.748 
	15.385,8.746 15.439,8.744 15.495,8.741 15.552,8.735 15.606,8.728 15.66,8.719 15.716,8.709 15.768,8.698 15.821,8.685 
	15.872,8.67 15.924,8.653 15.973,8.636 16.02,8.616 16.066,8.597 16.112,8.574 16.156,8.55 16.198,8.524 16.236,8.498 16.273,8.472 
	16.305,8.443 16.336,8.416 16.364,8.386 16.392,8.356 16.413,8.327 16.433,8.296 16.45,8.264 16.466,8.233 16.478,8.2 16.485,8.169 
	16.493,8.136 16.493,7.839 16.485,7.872 16.478,7.904 16.466,7.936 16.45,7.968 16.433,7.998 16.413,8.029 16.392,8.059 
	16.364,8.089 16.336,8.118 16.305,8.146 16.273,8.174 16.236,8.201 16.198,8.227 16.156,8.252 16.112,8.276 16.066,8.299 
	16.02,8.319 15.973,8.339 15.924,8.356 15.872,8.374 15.821,8.388 15.768,8.401 15.716,8.412 15.66,8.422 15.606,8.43 15.552,8.438 
	15.495,8.443 15.439,8.447 15.385,8.449 15.327,8.45 15.271,8.449 15.216,8.447 15.16,8.443 15.105,8.438 15.051,8.43 14.996,8.422 
	14.94,8.412 14.889,8.401 14.835,8.388 14.783,8.374 14.733,8.356 14.686,8.339 14.638,8.319 14.59,8.299 14.546,8.276 14.5,8.252 
	14.461,8.227 14.422,8.201 14.387,8.174 14.351,8.146 14.319,8.118 14.291,8.089 14.267,8.059 14.245,8.029 14.225,7.998 
	14.207,7.968 14.193,7.936 14.18,7.904 14.17,7.872 "/>
<path fill-rule="evenodd" clip-rule="evenodd" fill="#9C9C9C" d="M16.156,7.297c-0.457-0.263-1.198-0.263-1.656,0
	c-0.456,0.264-0.456,0.692,0,0.956c0.458,0.264,1.199,0.264,1.656,0C16.611,7.989,16.611,7.561,16.156,7.297z"/>
<polygon fill-rule="evenodd" clip-rule="evenodd" fill="#E6EAEB" points="11.496,10.67 11.496,10.967 11.502,11 11.512,11.032 
	11.524,11.064 11.54,11.095 11.555,11.127 11.574,11.157 11.599,11.187 11.624,11.217 11.653,11.246 11.684,11.275 11.716,11.302 
	11.752,11.329 11.791,11.355 11.834,11.38 11.877,11.405 11.921,11.427 11.969,11.448 12.015,11.468 12.066,11.484 12.118,11.501 
	12.168,11.516 12.22,11.528 12.274,11.541 12.326,11.551 12.381,11.56 12.436,11.566 12.491,11.571 12.549,11.575 12.604,11.577 
	12.66,11.579 12.715,11.577 12.772,11.575 12.829,11.571 12.884,11.566 12.939,11.56 12.994,11.551 13.047,11.541 13.101,11.528 
	13.151,11.516 13.205,11.501 13.254,11.484 13.305,11.468 13.353,11.448 13.399,11.427 13.442,11.405 13.487,11.38 13.529,11.355 
	13.567,11.329 13.604,11.302 13.637,11.274 13.669,11.246 13.696,11.217 13.722,11.187 13.745,11.157 13.765,11.127 13.78,11.095 
	13.797,11.064 13.809,11.032 13.818,11 13.824,10.967 13.824,10.67 13.818,10.702 13.809,10.734 13.797,10.767 13.78,10.798 
	13.765,10.829 13.745,10.859 13.722,10.891 13.696,10.919 13.669,10.949 13.637,10.978 13.604,11.004 13.567,11.032 13.529,11.058 
	13.487,11.083 13.442,11.107 13.399,11.13 13.353,11.15 13.305,11.17 13.254,11.188 13.205,11.203 13.151,11.218 13.101,11.231 
	13.047,11.243 12.994,11.254 12.939,11.262 12.884,11.269 12.829,11.274 12.772,11.278 12.715,11.281 12.66,11.281 12.604,11.281 
	12.549,11.278 12.491,11.274 12.436,11.269 12.381,11.262 12.326,11.254 12.274,11.243 12.22,11.231 12.168,11.218 12.118,11.203 
	12.066,11.188 12.015,11.17 11.969,11.15 11.921,11.13 11.877,11.107 11.834,11.083 11.791,11.058 11.752,11.032 11.716,11.004 
	11.684,10.978 11.653,10.949 11.624,10.919 11.599,10.891 11.574,10.859 11.555,10.829 11.54,10.798 11.524,10.767 11.512,10.734 
	11.502,10.702 "/>
<path fill-rule="evenodd" clip-rule="evenodd" fill="#9C9C9C" d="M13.487,10.128c-0.458-0.264-1.197-0.264-1.653,0
	c-0.457,0.264-0.457,0.69,0,0.955c0.456,0.264,1.195,0.264,1.653,0C13.946,10.819,13.944,10.393,13.487,10.128z"/>
<path fill-rule="evenodd" clip-rule="evenodd" fill="#E74C3C" d="M13.266,5.954c-0.334-0.193-0.877-0.194-1.211,0
	c-0.335,0.193-0.335,0.506,0,0.699c0.334,0.192,0.877,0.192,1.211,0C13.6,6.459,13.6,6.146,13.266,5.954z"/>
<path fill-rule="evenodd" clip-rule="evenodd" fill="#E6EAEB" d="M12.059,10.136c0.332-0.192,0.871-0.192,1.203,0
	c0.334,0.192,0.334,0.504,0,0.696c-0.332,0.192-0.871,0.192-1.203,0C11.724,10.639,11.724,10.329,12.059,10.136z"/>
<polygon fill-rule="evenodd" clip-rule="evenodd" fill="#A3ADB5" points="13.51,10.532 13.51,10.616 13.506,10.639 13.497,10.662 
	13.489,10.686 13.478,10.708 13.466,10.731 13.45,10.753 13.435,10.776 13.415,10.796 13.396,10.818 13.372,10.839 13.348,10.859 
	13.32,10.879 13.293,10.898 13.262,10.917 13.23,10.934 13.198,10.95 13.163,10.965 13.127,10.979 13.093,10.992 13.057,11.004 
	13.02,11.015 12.982,11.024 12.943,11.032 12.903,11.04 12.862,11.047 12.823,11.051 12.782,11.055 12.742,11.058 12.701,11.06 
	12.66,11.06 12.621,11.06 12.577,11.058 12.538,11.055 12.497,11.051 12.457,11.047 12.418,11.04 12.377,11.032 12.34,11.024 
	12.302,11.015 12.263,11.004 12.228,10.992 12.192,10.979 12.156,10.965 12.121,10.95 12.09,10.934 12.059,10.917 12.026,10.898 
	11.999,10.879 11.973,10.859 11.948,10.839 11.925,10.818 11.905,10.796 11.886,10.776 11.869,10.753 11.854,10.731 11.842,10.708 
	11.83,10.686 11.823,10.662 11.817,10.639 11.812,10.616 11.812,10.531 11.817,10.556 11.823,10.578 11.83,10.602 11.842,10.625 
	11.854,10.647 11.869,10.669 11.886,10.691 11.905,10.714 11.925,10.734 11.948,10.755 11.973,10.776 11.999,10.794 12.026,10.814 
	12.059,10.832 12.09,10.851 12.121,10.866 12.156,10.882 12.192,10.896 12.228,10.909 12.263,10.92 12.302,10.931 12.34,10.941 
	12.377,10.949 12.418,10.957 12.457,10.962 12.497,10.967 12.538,10.972 12.577,10.975 12.621,10.977 12.66,10.978 12.701,10.977 
	12.742,10.975 12.782,10.972 12.823,10.967 12.862,10.962 12.903,10.957 12.943,10.949 12.982,10.941 13.02,10.931 13.057,10.92 
	13.093,10.909 13.127,10.896 13.163,10.882 13.198,10.866 13.23,10.851 13.262,10.832 13.293,10.814 13.32,10.794 13.348,10.776 
	13.372,10.755 13.396,10.734 13.415,10.714 13.435,10.691 13.45,10.669 13.466,10.647 13.478,10.625 13.489,10.602 13.497,10.578 
	13.506,10.556 "/>
<path fill-rule="evenodd" clip-rule="evenodd" fill="#C5CCD1" d="M12.07,10.144c0.327-0.188,0.854-0.188,1.18,0
	c0.326,0.188,0.326,0.494,0,0.682c-0.326,0.188-0.853,0.188-1.18,0C11.744,10.637,11.744,10.332,12.07,10.144z"/>
<polygon fill-rule="evenodd" clip-rule="evenodd" fill="#E6EAEB" points="13.478,6.507 13.478,10.506 13.474,10.529 13.466,10.552 
	13.458,10.574 13.448,10.597 13.435,10.62 13.422,10.642 13.405,10.662 13.388,10.684 13.368,10.704 13.346,10.724 13.322,10.743 
	13.297,10.763 13.27,10.781 13.24,10.798 13.211,10.815 13.177,10.832 13.144,10.846 13.11,10.859 13.075,10.872 13.039,10.883 
	13.002,10.895 12.967,10.904 12.93,10.912 12.892,10.918 12.853,10.924 12.813,10.93 12.774,10.933 12.734,10.936 12.695,10.938 
	12.656,10.938 12.617,10.938 12.577,10.936 12.536,10.934 12.499,10.93 12.459,10.924 12.42,10.918 12.383,10.912 12.346,10.904 
	12.306,10.895 12.271,10.883 12.235,10.872 12.2,10.859 12.166,10.846 12.133,10.832 12.102,10.815 12.07,10.798 12.043,10.781 
	12.015,10.763 11.987,10.743 11.965,10.724 11.944,10.704 11.925,10.684 11.905,10.662 11.89,10.642 11.873,10.62 11.861,10.597 
	11.854,10.574 11.844,10.552 11.838,10.529 11.834,10.506 11.834,6.507 11.838,6.529 11.844,6.552 11.854,6.574 11.861,6.597 
	11.873,6.619 11.89,6.641 11.905,6.662 11.925,6.683 11.944,6.703 11.965,6.723 11.987,6.743 12.015,6.762 12.043,6.78 12.07,6.798 
	12.102,6.814 12.133,6.831 12.166,6.846 12.2,6.86 12.235,6.873 12.271,6.883 12.306,6.894 12.346,6.903 12.383,6.912 12.42,6.917 
	12.459,6.924 12.499,6.929 12.536,6.933 12.577,6.937 12.617,6.938 12.656,6.938 12.695,6.938 12.734,6.937 12.774,6.933 
	12.813,6.929 12.853,6.924 12.892,6.917 12.93,6.912 12.967,6.903 13.002,6.894 13.039,6.883 13.075,6.873 13.11,6.86 13.144,6.846 
	13.177,6.831 13.211,6.814 13.24,6.798 13.27,6.78 13.297,6.762 13.322,6.743 13.346,6.723 13.368,6.703 13.388,6.683 13.405,6.662 
	13.422,6.641 13.435,6.619 13.448,6.597 13.458,6.574 13.466,6.552 13.474,6.529 "/>
<path fill-rule="evenodd" clip-rule="evenodd" fill="#C5CCD1" d="M12.072,10.59c0,0.069-0.124,0.041-0.124-0.042
	c0-0.483,0-3.043,0-3.526c0-0.083,0.124-0.042,0.124,0.027C12.072,7.561,12.072,10.079,12.072,10.59z"/>
<path fill-rule="evenodd" clip-rule="evenodd" fill="#C5CCD1" d="M13.266,10.606c0,0.061-0.103,0.058-0.103-0.007V7.087
	c0-0.065,0.103-0.068,0.103-0.008V10.606z"/>
<path fill-rule="evenodd" clip-rule="evenodd" fill="#AFB6B8" d="M13.163,10.588V7.087c0-0.038,0.035-0.055,0.063-0.051
	c0.008,0.015,0.01,0.031,0.01,0.043v3.516C13.236,10.658,13.163,10.642,13.163,10.588z"/>
<path fill-rule="evenodd" clip-rule="evenodd" fill="#AFB6B8" d="M13.442,10.449c0,0.025-0.043,0.025-0.043-0.007
	c0-0.413,0-3.116,0-3.528c0-0.031,0.043-0.032,0.043-0.008C13.442,7.324,13.442,10.032,13.442,10.449z"/>
<path fill-rule="evenodd" clip-rule="evenodd" fill="#C5CCD1" d="M12.93,10.709c0,0.096-0.163,0.096-0.163,0
	c0-0.591,0-2.909,0-3.499c0-0.098,0.163-0.098,0.163,0C12.93,7.8,12.93,10.118,12.93,10.709z"/>
<path fill-rule="evenodd" clip-rule="evenodd" fill="#AFB6B8" d="M12.907,7.21c0-0.044-0.031-0.069-0.069-0.073
	c-0.036,0.004-0.071,0.029-0.071,0.073c0,0.59,0,2.898,0,3.488c0,0.044,0.035,0.068,0.071,0.071
	c0.038-0.003,0.069-0.027,0.069-0.071C12.907,10.108,12.907,7.8,12.907,7.21z"/>
<path fill-rule="evenodd" clip-rule="evenodd" fill="#C5CCD1" d="M12.461,7.185c0-0.083-0.144-0.073-0.144,0.017
	c0,0.585,0,2.912,0,3.497c0,0.089,0.144,0.1,0.144,0.017C12.461,10.119,12.461,7.781,12.461,7.185z"/>
<path fill-rule="evenodd" clip-rule="evenodd" fill="#AFB6B8" d="M12.072,10.578c0,0.069-0.087,0.03-0.087-0.041V6.977
	c0.037-0.004,0.087,0.029,0.087,0.073C12.072,7.396,12.072,10.232,12.072,10.578z"/>
<path fill-rule="evenodd" clip-rule="evenodd" fill="#AFB6B8" d="M12.461,7.185c0-0.056-0.063-0.069-0.105-0.045
	c-0.006,0.01-0.01,0.023-0.01,0.037c0,0.584,0,2.926,0,3.511c0,0.095,0.115,0.09,0.115,0.017
	C12.461,10.108,12.461,7.781,12.461,7.185z"/>
<path fill-rule="evenodd" clip-rule="evenodd" fill="#E6EAEB" d="M12.059,6.252c0.332-0.192,0.871-0.192,1.203,0
	c0.334,0.192,0.334,0.504,0,0.696c-0.332,0.191-0.871,0.191-1.203,0C11.724,6.756,11.724,6.444,12.059,6.252z"/>
<polygon fill-rule="evenodd" clip-rule="evenodd" fill="#7F8C8D" points="11.496,6.242 11.496,6.539 11.502,6.572 11.512,6.604 
	11.524,6.635 11.54,6.667 11.555,6.698 11.574,6.729 11.599,6.759 11.624,6.789 11.653,6.818 11.684,6.846 11.716,6.875 
	11.752,6.901 11.791,6.927 11.834,6.952 11.877,6.977 11.921,6.999 11.969,7.02 12.015,7.039 12.066,7.057 12.118,7.073 
	12.168,7.088 12.22,7.101 12.274,7.112 12.326,7.122 12.381,7.131 12.436,7.138 12.491,7.144 12.549,7.147 12.604,7.149 
	12.66,7.149 12.715,7.149 12.772,7.147 12.829,7.144 12.884,7.138 12.939,7.131 12.994,7.122 13.047,7.112 13.101,7.101 
	13.151,7.088 13.205,7.073 13.254,7.057 13.305,7.039 13.353,7.02 13.399,6.999 13.442,6.977 13.487,6.952 13.529,6.927 
	13.567,6.901 13.604,6.875 13.637,6.846 13.669,6.818 13.696,6.789 13.722,6.759 13.745,6.729 13.765,6.698 13.78,6.667 
	13.797,6.635 13.809,6.604 13.818,6.572 13.824,6.539 13.824,6.242 13.818,6.275 13.809,6.306 13.797,6.338 13.78,6.37 13.765,6.4 
	13.745,6.432 13.722,6.461 13.696,6.492 13.669,6.521 13.637,6.549 13.604,6.578 13.567,6.604 13.529,6.629 13.487,6.655 
	13.442,6.679 13.399,6.701 13.353,6.723 13.305,6.742 13.254,6.759 13.205,6.776 13.151,6.791 13.101,6.804 13.047,6.815 
	12.994,6.825 12.939,6.833 12.884,6.841 12.829,6.846 12.772,6.85 12.715,6.853 12.66,6.853 12.604,6.853 12.549,6.85 12.491,6.846 
	12.436,6.841 12.381,6.833 12.326,6.825 12.274,6.815 12.22,6.804 12.168,6.791 12.118,6.776 12.066,6.759 12.015,6.742 
	11.969,6.723 11.921,6.701 11.877,6.679 11.834,6.655 11.791,6.629 11.752,6.604 11.716,6.578 11.684,6.549 11.653,6.521 
	11.624,6.492 11.599,6.461 11.574,6.432 11.555,6.4 11.54,6.37 11.524,6.338 11.512,6.306 11.502,6.275 "/>
<path fill-rule="evenodd" clip-rule="evenodd" fill="#9C9C9C" d="M13.487,5.701c-0.458-0.264-1.197-0.264-1.653,0
	c-0.457,0.263-0.457,0.691,0,0.955c0.456,0.263,1.195,0.263,1.653,0C13.946,6.392,13.944,5.964,13.487,5.701z"/>
<polygon fill-rule="evenodd" clip-rule="evenodd" fill="#E6EAEB" points="5.996,10.72 5.996,11.019 6.002,11.051 6.011,11.081 
	6.023,11.113 6.038,11.145 6.055,11.177 6.076,11.207 6.098,11.236 6.123,11.268 6.152,11.296 6.182,11.325 6.216,11.353 
	6.253,11.379 6.292,11.406 6.333,11.431 6.377,11.455 6.421,11.477 6.467,11.497 6.517,11.517 6.565,11.534 6.616,11.552 
	6.667,11.565 6.72,11.579 6.773,11.591 6.827,11.601 6.881,11.609 6.936,11.615 6.992,11.621 7.047,11.625 7.104,11.627 
	7.16,11.629 7.216,11.627 7.272,11.625 7.327,11.621 7.383,11.615 7.438,11.609 7.493,11.601 7.546,11.591 7.6,11.579 7.653,11.565 
	7.704,11.552 7.754,11.534 7.803,11.517 7.852,11.497 7.898,11.477 7.944,11.455 7.987,11.431 8.029,11.406 8.067,11.379 
	8.104,11.353 8.137,11.325 8.168,11.296 8.196,11.268 8.221,11.236 8.245,11.207 8.264,11.177 8.282,11.145 8.296,11.113 
	8.309,11.081 8.317,11.051 8.324,11.019 8.324,10.72 8.317,10.753 8.309,10.785 8.296,10.817 8.282,10.848 8.264,10.879 
	8.245,10.91 8.221,10.94 8.196,10.969 8.168,10.999 8.137,11.027 8.104,11.055 8.067,11.081 8.029,11.108 7.987,11.134 
	7.944,11.157 7.898,11.181 7.852,11.2 7.803,11.22 7.754,11.237 7.704,11.254 7.653,11.269 7.6,11.282 7.546,11.293 7.493,11.303 
	7.438,11.313 7.383,11.32 7.327,11.325 7.272,11.328 7.216,11.33 7.16,11.331 7.104,11.33 7.047,11.328 6.992,11.325 6.936,11.32 
	6.881,11.313 6.827,11.303 6.773,11.293 6.72,11.282 6.667,11.269 6.616,11.254 6.565,11.237 6.517,11.219 6.467,11.2 6.421,11.181 
	6.377,11.157 6.333,11.134 6.292,11.108 6.253,11.081 6.216,11.055 6.182,11.027 6.152,10.999 6.123,10.969 6.098,10.94 
	6.076,10.91 6.055,10.879 6.038,10.848 6.023,10.817 6.011,10.785 6.002,10.753 "/>
<path fill-rule="evenodd" clip-rule="evenodd" fill="#9C9C9C" d="M7.987,10.178c-0.457-0.264-1.197-0.264-1.654,0
	s-0.457,0.691,0,0.956c0.456,0.264,1.197,0.264,1.654,0C8.444,10.869,8.444,10.441,7.987,10.178z"/>
<path fill-rule="evenodd" clip-rule="evenodd" fill="#E74C3C" d="M7.765,6.003c-0.333-0.193-0.876-0.193-1.21,0
	C6.22,6.197,6.22,6.51,6.554,6.703c0.334,0.193,0.878,0.193,1.212,0C8.1,6.51,8.1,6.197,7.765,6.003z"/>
<path fill-rule="evenodd" clip-rule="evenodd" fill="#E6EAEB" d="M6.557,10.186c0.333-0.192,0.873-0.193,1.206,0
	c0.333,0.192,0.333,0.504,0,0.696c-0.333,0.192-0.874,0.192-1.206,0C6.224,10.69,6.225,10.378,6.557,10.186z"/>
<polygon fill-rule="evenodd" clip-rule="evenodd" fill="#A3ADB5" points="8.009,10.581 8.009,10.665 8.003,10.688 7.997,10.712 
	7.989,10.735 7.977,10.758 7.964,10.781 7.951,10.803 7.934,10.825 7.915,10.847 7.895,10.868 7.872,10.889 7.848,10.91 
	7.821,10.928 7.793,10.948 7.763,10.966 7.73,10.983 7.698,11 7.664,11.016 7.629,11.029 7.593,11.042 7.556,11.055 7.519,11.065 
	7.481,11.073 7.441,11.082 7.402,11.09 7.363,11.096 7.323,11.102 7.282,11.105 7.242,11.108 7.201,11.109 7.16,11.111 7.119,11.11 
	7.079,11.108 7.037,11.105 6.997,11.102 6.957,11.096 6.917,11.09 6.878,11.082 6.839,11.073 6.801,11.065 6.763,11.055 
	6.726,11.042 6.69,11.029 6.655,11.016 6.622,11 6.588,10.984 6.557,10.966 6.526,10.948 6.499,10.928 6.472,10.91 6.448,10.889 
	6.426,10.868 6.404,10.847 6.385,10.825 6.37,10.803 6.354,10.781 6.342,10.758 6.332,10.735 6.323,10.712 6.315,10.688 
	6.311,10.665 6.311,10.581 6.315,10.606 6.323,10.629 6.332,10.651 6.342,10.674 6.354,10.697 6.37,10.72 6.385,10.742 
	6.404,10.763 6.426,10.785 6.448,10.805 6.472,10.825 6.499,10.846 6.526,10.864 6.557,10.882 6.588,10.9 6.622,10.917 
	6.655,10.932 6.69,10.946 6.726,10.958 6.763,10.971 6.801,10.981 6.839,10.991 6.878,10.999 6.917,11.006 6.957,11.013 
	6.997,11.019 7.037,11.021 7.079,11.024 7.119,11.026 7.16,11.026 7.201,11.026 7.242,11.024 7.282,11.021 7.323,11.019 
	7.363,11.013 7.402,11.006 7.441,10.999 7.481,10.991 7.519,10.981 7.556,10.971 7.593,10.958 7.629,10.946 7.664,10.932 
	7.698,10.917 7.73,10.9 7.763,10.882 7.793,10.864 7.821,10.846 7.848,10.825 7.872,10.805 7.895,10.785 7.915,10.763 7.934,10.742 
	7.951,10.72 7.964,10.697 7.977,10.674 7.989,10.651 7.997,10.629 8.003,10.606 "/>
<path fill-rule="evenodd" clip-rule="evenodd" fill="#C5CCD1" d="M6.569,10.194c0.326-0.189,0.854-0.189,1.181,0
	c0.325,0.188,0.326,0.494,0,0.681c-0.326,0.189-0.855,0.189-1.181,0C6.243,10.688,6.243,10.381,6.569,10.194z"/>
<polygon fill-rule="evenodd" clip-rule="evenodd" fill="#E6EAEB" points="7.978,6.556 7.978,10.557 7.973,10.58 7.966,10.602 
	7.958,10.625 7.948,10.647 7.935,10.669 7.921,10.691 7.905,10.712 7.887,10.732 7.867,10.754 7.845,10.773 7.822,10.793 
	7.796,10.812 7.769,10.831 7.739,10.849 7.708,10.865 7.676,10.882 7.644,10.896 7.61,10.91 7.575,10.922 7.54,10.934 7.503,10.945 
	7.466,10.954 7.429,10.961 7.391,10.968 7.352,10.975 7.313,10.98 7.273,10.983 7.234,10.986 7.194,10.988 7.155,10.988 
	7.115,10.988 7.076,10.986 7.036,10.983 6.997,10.98 6.959,10.975 6.919,10.968 6.881,10.961 6.844,10.954 6.808,10.945 
	6.771,10.934 6.735,10.922 6.7,10.91 6.666,10.896 6.633,10.882 6.601,10.865 6.57,10.849 6.541,10.831 6.514,10.812 6.488,10.793 
	6.464,10.773 6.443,10.754 6.422,10.732 6.405,10.712 6.388,10.691 6.375,10.669 6.363,10.647 6.352,10.625 6.343,10.602 
	6.336,10.579 6.332,10.557 6.332,6.556 6.336,6.58 6.343,6.602 6.352,6.624 6.363,6.646 6.375,6.669 6.388,6.69 6.405,6.712 
	6.422,6.733 6.443,6.753 6.464,6.773 6.488,6.793 6.514,6.812 6.541,6.831 6.57,6.849 6.601,6.865 6.633,6.88 6.666,6.896 
	6.7,6.909 6.735,6.921 6.771,6.934 6.808,6.943 6.844,6.953 6.881,6.961 6.919,6.967 6.959,6.975 6.997,6.979 7.036,6.982 
	7.076,6.985 7.115,6.987 7.155,6.988 7.194,6.987 7.234,6.985 7.273,6.982 7.313,6.979 7.352,6.975 7.391,6.967 7.429,6.961 
	7.466,6.953 7.503,6.943 7.54,6.934 7.575,6.921 7.61,6.909 7.644,6.895 7.676,6.88 7.708,6.865 7.739,6.849 7.769,6.831 
	7.796,6.812 7.822,6.793 7.845,6.773 7.867,6.753 7.887,6.733 7.905,6.712 7.92,6.69 7.935,6.669 7.948,6.646 7.958,6.624 
	7.966,6.602 7.973,6.58 "/>
<path fill-rule="evenodd" clip-rule="evenodd" fill="#C5CCD1" d="M6.571,10.639c0,0.07-0.122,0.042-0.122-0.042
	c0-0.483,0-3.043,0-3.527c0-0.081,0.122-0.04,0.122,0.028C6.571,7.61,6.571,10.129,6.571,10.639z"/>
<path fill-rule="evenodd" clip-rule="evenodd" fill="#C5CCD1" d="M7.766,10.656c0,0.061-0.103,0.058-0.103-0.007V7.136
	c0-0.065,0.103-0.067,0.103-0.007V10.656z"/>
<path fill-rule="evenodd" clip-rule="evenodd" fill="#AFB6B8" d="M7.663,10.638V7.136c0-0.037,0.034-0.054,0.064-0.049
	c0.006,0.015,0.009,0.031,0.009,0.042v3.516C7.735,10.708,7.663,10.691,7.663,10.638z"/>
<path fill-rule="evenodd" clip-rule="evenodd" fill="#AFB6B8" d="M7.943,10.5c0,0.024-0.044,0.024-0.044-0.006
	c0-0.414,0-3.115,0-3.529c0-0.031,0.044-0.032,0.044-0.007C7.943,7.375,7.943,10.083,7.943,10.5z"/>
<path fill-rule="evenodd" clip-rule="evenodd" fill="#C5CCD1" d="M7.43,10.759c0,0.096-0.164,0.096-0.164,0c0-0.591,0-2.91,0-3.5
	c0-0.096,0.164-0.096,0.164,0C7.43,7.85,7.43,10.168,7.43,10.759z"/>
<path fill-rule="evenodd" clip-rule="evenodd" fill="#AFB6B8" d="M7.408,7.259c0-0.044-0.034-0.067-0.071-0.07
	C7.3,7.192,7.266,7.215,7.266,7.259c0,0.59,0,2.898,0,3.488c0,0.044,0.034,0.069,0.071,0.072c0.037-0.003,0.071-0.027,0.071-0.072
	C7.408,10.157,7.408,7.85,7.408,7.259z"/>
<path fill-rule="evenodd" clip-rule="evenodd" fill="#C5CCD1" d="M6.96,7.234c0-0.083-0.142-0.072-0.142,0.017
	c0,0.585,0,2.913,0,3.498c0,0.089,0.142,0.099,0.142,0.016C6.96,10.169,6.96,7.831,6.96,7.234z"/>
<path fill-rule="evenodd" clip-rule="evenodd" fill="#AFB6B8" d="M6.571,10.629c0,0.067-0.086,0.028-0.086-0.042v-3.56
	c0.037-0.005,0.086,0.027,0.086,0.072C6.571,7.446,6.571,10.282,6.571,10.629z"/>
<path fill-rule="evenodd" clip-rule="evenodd" fill="#AFB6B8" d="M6.96,7.234c0-0.056-0.064-0.069-0.106-0.044
	c-0.006,0.009-0.01,0.022-0.01,0.036c0,0.585,0,2.927,0,3.512c0,0.096,0.116,0.091,0.116,0.017C6.96,10.158,6.96,7.831,6.96,7.234z"
	/>
<path fill-rule="evenodd" clip-rule="evenodd" fill="#E6EAEB" d="M6.557,6.302c0.333-0.193,0.873-0.193,1.206,0
	c0.333,0.192,0.333,0.503,0,0.696C7.43,7.19,6.89,7.19,6.557,6.998C6.225,6.806,6.225,6.494,6.557,6.302z"/>
<polygon fill-rule="evenodd" clip-rule="evenodd" fill="#7F8C8D" points="5.996,6.292 5.996,6.59 6.002,6.622 6.011,6.654 
	6.023,6.686 6.038,6.717 6.055,6.749 6.076,6.779 6.098,6.809 6.123,6.839 6.152,6.869 6.182,6.896 6.216,6.924 6.253,6.951 
	6.292,6.977 6.333,7.002 6.377,7.027 6.421,7.049 6.467,7.07 6.517,7.089 6.565,7.106 6.616,7.123 6.667,7.138 6.72,7.15 
	6.773,7.163 6.827,7.172 6.881,7.181 6.936,7.188 6.992,7.194 7.047,7.198 7.104,7.199 7.16,7.201 7.216,7.199 7.272,7.198 
	7.327,7.194 7.383,7.188 7.438,7.181 7.493,7.172 7.546,7.163 7.6,7.15 7.653,7.138 7.704,7.123 7.754,7.106 7.803,7.089 
	7.852,7.07 7.898,7.049 7.944,7.027 7.987,7.002 8.029,6.977 8.067,6.951 8.104,6.924 8.137,6.896 8.168,6.869 8.196,6.839 
	8.221,6.809 8.245,6.779 8.264,6.749 8.282,6.717 8.296,6.686 8.309,6.654 8.317,6.622 8.324,6.59 8.324,6.292 8.317,6.325 
	8.309,6.356 8.296,6.389 8.282,6.42 8.264,6.452 8.245,6.482 8.221,6.512 8.196,6.542 8.168,6.571 8.137,6.599 8.104,6.626 
	8.067,6.654 8.029,6.68 7.987,6.705 7.944,6.729 7.898,6.751 7.852,6.772 7.803,6.792 7.754,6.81 7.704,6.826 7.653,6.841 
	7.6,6.854 7.546,6.865 7.493,6.875 7.438,6.884 7.383,6.89 7.327,6.896 7.272,6.9 7.216,6.903 7.16,6.903 7.104,6.903 7.047,6.9 
	6.992,6.896 6.936,6.89 6.881,6.884 6.827,6.875 6.773,6.865 6.72,6.854 6.667,6.84 6.616,6.826 6.565,6.809 6.517,6.791 
	6.467,6.772 6.421,6.751 6.377,6.729 6.333,6.705 6.292,6.68 6.253,6.654 6.216,6.626 6.182,6.599 6.152,6.571 6.123,6.542 
	6.098,6.512 6.076,6.482 6.055,6.452 6.038,6.42 6.023,6.389 6.011,6.356 6.002,6.325 "/>
<path fill-rule="evenodd" clip-rule="evenodd" fill="#9C9C9C" d="M7.987,5.75c-0.457-0.264-1.197-0.264-1.654,0
	s-0.457,0.691,0,0.955c0.456,0.264,1.197,0.264,1.654,0C8.444,6.442,8.444,6.014,7.987,5.75z"/>
<polygon fill-rule="evenodd" clip-rule="evenodd" fill="#E6EAEB" points="3.285,12.324 3.285,12.621 3.292,12.652 3.302,12.686 
	3.314,12.718 3.328,12.749 3.346,12.779 3.366,12.81 3.389,12.841 3.413,12.871 3.441,12.9 3.473,12.927 3.506,12.955 3.543,12.982 
	3.581,13.011 3.623,13.034 3.667,13.058 3.711,13.08 3.758,13.101 3.806,13.12 3.855,13.14 3.906,13.156 3.958,13.17 4.01,13.184 
	4.063,13.195 4.117,13.202 4.171,13.212 4.227,13.218 4.282,13.226 4.337,13.228 4.394,13.23 4.45,13.23 4.506,13.23 4.563,13.228 
	4.617,13.226 4.673,13.218 4.728,13.212 4.784,13.202 4.837,13.195 4.891,13.184 4.942,13.17 4.994,13.156 5.045,13.14 5.094,13.12 
	5.141,13.101 5.188,13.08 5.233,13.058 5.277,13.034 5.318,13.011 5.357,12.982 5.394,12.955 5.427,12.927 5.458,12.9 5.485,12.871 
	5.512,12.841 5.534,12.81 5.554,12.779 5.572,12.749 5.587,12.718 5.598,12.686 5.608,12.652 5.615,12.621 5.615,12.324 
	5.608,12.356 5.598,12.389 5.587,12.42 5.572,12.452 5.554,12.482 5.534,12.513 5.512,12.542 5.485,12.574 5.458,12.602 
	5.427,12.63 5.394,12.658 5.357,12.686 5.318,12.711 5.277,12.737 5.233,12.761 5.188,12.781 5.141,12.804 5.094,12.823 
	5.045,12.841 4.994,12.856 4.942,12.873 4.891,12.885 4.837,12.896 4.784,12.908 4.728,12.915 4.673,12.923 4.617,12.927 
	4.563,12.931 4.506,12.933 4.45,12.936 4.394,12.933 4.337,12.931 4.282,12.927 4.227,12.923 4.171,12.915 4.117,12.908 
	4.063,12.896 4.01,12.885 3.958,12.873 3.906,12.856 3.855,12.841 3.806,12.823 3.758,12.804 3.711,12.781 3.667,12.761 
	3.623,12.737 3.581,12.711 3.543,12.686 3.506,12.658 3.473,12.63 3.441,12.602 3.413,12.574 3.389,12.542 3.366,12.515 
	3.346,12.482 3.328,12.452 3.314,12.42 3.302,12.389 3.292,12.356 "/>
<path fill-rule="evenodd" clip-rule="evenodd" fill="#9C9C9C" d="M5.277,11.782c-0.457-0.265-1.197-0.265-1.654,0
	c-0.457,0.263-0.457,0.691,0,0.955C4.08,13,4.82,13,5.277,12.737C5.734,12.474,5.734,12.045,5.277,11.782z"/>
<path fill-rule="evenodd" clip-rule="evenodd" fill="#E74C3C" d="M5.056,7.608c-0.335-0.193-0.877-0.193-1.211,0
	c-0.335,0.192-0.335,0.505,0,0.699c0.334,0.193,0.876,0.193,1.211,0C5.39,8.113,5.39,7.8,5.056,7.608z"/>
<path fill-rule="evenodd" clip-rule="evenodd" fill="#E6EAEB" d="M3.848,11.79c0.332-0.192,0.872-0.192,1.205,0s0.333,0.505,0,0.694
	c-0.333,0.193-0.873,0.193-1.205,0C3.513,12.295,3.514,11.982,3.848,11.79z"/>
<polygon fill-rule="evenodd" clip-rule="evenodd" fill="#A3ADB5" points="5.299,12.186 5.299,12.269 5.294,12.293 5.287,12.316 
	5.278,12.339 5.268,12.362 5.255,12.384 5.24,12.406 5.223,12.429 5.205,12.452 5.185,12.472 5.162,12.492 5.137,12.513 
	5.111,12.532 5.083,12.55 5.053,12.57 5.021,12.588 4.988,12.604 4.953,12.619 4.919,12.632 4.883,12.646 4.846,12.658 
	4.809,12.668 4.771,12.678 4.731,12.688 4.693,12.693 4.652,12.699 4.612,12.705 4.572,12.709 4.532,12.711 4.491,12.713 
	4.45,12.716 4.409,12.713 4.367,12.711 4.327,12.709 4.287,12.705 4.247,12.699 4.208,12.693 4.168,12.688 4.129,12.678 
	4.09,12.668 4.053,12.658 4.017,12.646 3.98,12.632 3.946,12.619 3.912,12.604 3.879,12.588 3.848,12.57 3.816,12.55 3.789,12.532 
	3.761,12.513 3.737,12.492 3.715,12.472 3.695,12.452 3.676,12.429 3.66,12.406 3.644,12.384 3.632,12.362 3.622,12.339 
	3.613,12.316 3.607,12.293 3.601,12.269 3.601,12.186 3.607,12.208 3.613,12.231 3.622,12.255 3.632,12.278 3.644,12.301 
	3.66,12.323 3.676,12.345 3.695,12.366 3.715,12.389 3.737,12.408 3.761,12.429 3.789,12.448 3.816,12.468 3.848,12.486 
	3.879,12.503 3.912,12.519 3.946,12.534 3.98,12.55 4.017,12.562 4.053,12.574 4.09,12.586 4.129,12.594 4.168,12.604 4.208,12.609 
	4.247,12.617 4.287,12.621 4.327,12.625 4.367,12.628 4.409,12.628 4.45,12.63 4.491,12.628 4.532,12.628 4.572,12.625 
	4.612,12.621 4.652,12.617 4.693,12.609 4.731,12.604 4.771,12.594 4.809,12.586 4.846,12.574 4.883,12.562 4.919,12.55 
	4.953,12.534 4.988,12.519 5.021,12.503 5.053,12.486 5.083,12.468 5.111,12.448 5.137,12.429 5.162,12.408 5.185,12.389 
	5.205,12.366 5.223,12.345 5.24,12.323 5.255,12.301 5.268,12.278 5.278,12.255 5.287,12.231 5.294,12.208 "/>
<path fill-rule="evenodd" clip-rule="evenodd" fill="#C5CCD1" d="M3.859,11.797c0.326-0.188,0.854-0.188,1.181,0
	c0.326,0.188,0.327,0.494,0,0.683c-0.326,0.188-0.854,0.188-1.181,0S3.534,11.985,3.859,11.797z"/>
<polygon fill-rule="evenodd" clip-rule="evenodd" fill="#E6EAEB" points="5.268,8.16 5.268,12.161 5.263,12.184 5.256,12.206 
	5.248,12.229 5.237,12.251 5.225,12.272 5.211,12.295 5.195,12.316 5.177,12.336 5.157,12.357 5.135,12.377 5.112,12.396 
	5.086,12.416 5.059,12.435 5.029,12.452 4.999,12.47 4.967,12.484 4.934,12.499 4.9,12.513 4.865,12.526 4.83,12.538 4.793,12.546 
	4.756,12.558 4.719,12.565 4.68,12.574 4.642,12.578 4.604,12.584 4.563,12.588 4.525,12.59 4.485,12.592 4.444,12.594 
	4.405,12.592 4.365,12.59 4.326,12.588 4.287,12.584 4.249,12.578 4.209,12.574 4.172,12.565 4.134,12.558 4.096,12.546 
	4.061,12.538 4.024,12.526 3.99,12.513 3.956,12.499 3.923,12.484 3.892,12.47 3.861,12.452 3.831,12.435 3.803,12.416 
	3.778,12.396 3.754,12.377 3.733,12.357 3.713,12.336 3.695,12.316 3.679,12.295 3.665,12.272 3.653,12.251 3.643,12.229 
	3.634,12.206 3.626,12.184 3.623,12.161 3.623,8.16 3.626,8.183 3.634,8.205 3.643,8.228 3.653,8.25 3.665,8.272 3.679,8.294 
	3.695,8.315 3.713,8.336 3.733,8.356 3.754,8.377 3.778,8.396 3.803,8.416 3.831,8.433 3.861,8.452 3.892,8.469 3.923,8.484 
	3.956,8.499 3.99,8.513 4.024,8.526 4.061,8.538 4.096,8.548 4.134,8.556 4.172,8.565 4.209,8.572 4.249,8.578 4.287,8.583 
	4.326,8.587 4.365,8.59 4.405,8.591 4.444,8.592 4.485,8.591 4.525,8.59 4.563,8.587 4.604,8.583 4.642,8.578 4.68,8.572 
	4.719,8.565 4.756,8.556 4.793,8.548 4.83,8.537 4.865,8.526 4.9,8.513 4.934,8.499 4.967,8.484 4.999,8.469 5.029,8.452 
	5.059,8.433 5.086,8.416 5.112,8.396 5.135,8.377 5.157,8.356 5.177,8.336 5.195,8.315 5.211,8.294 5.225,8.272 5.237,8.25 
	5.248,8.228 5.256,8.205 5.263,8.183 "/>
<path fill-rule="evenodd" clip-rule="evenodd" fill="#C5CCD1" d="M3.862,12.243c0,0.069-0.124,0.041-0.124-0.041
	c0-0.483,0-3.043,0-3.527c0-0.083,0.124-0.042,0.124,0.027C3.862,9.214,3.862,11.732,3.862,12.243z"/>
<path fill-rule="evenodd" clip-rule="evenodd" fill="#C5CCD1" d="M5.056,12.26c0,0.062-0.104,0.058-0.104-0.007V8.74
	c0-0.065,0.104-0.068,0.104-0.008V12.26z"/>
<path fill-rule="evenodd" clip-rule="evenodd" fill="#AFB6B8" d="M4.952,12.241V8.74c0-0.038,0.035-0.054,0.064-0.049
	c0.006,0.015,0.009,0.03,0.009,0.042v3.517C5.025,12.313,4.952,12.295,4.952,12.241z"/>
<path fill-rule="evenodd" clip-rule="evenodd" fill="#AFB6B8" d="M5.232,12.104c0,0.025-0.044,0.022-0.044-0.008
	c0-0.413,0-3.115,0-3.528c0-0.03,0.044-0.031,0.044-0.008C5.232,8.978,5.232,11.686,5.232,12.104z"/>
<path fill-rule="evenodd" clip-rule="evenodd" fill="#C5CCD1" d="M4.72,12.362c0,0.098-0.164,0.098-0.164,0c0-0.59,0-2.909,0-3.499
	c0-0.096,0.164-0.096,0.164,0C4.72,9.454,4.72,11.772,4.72,12.362z"/>
<path fill-rule="evenodd" clip-rule="evenodd" fill="#AFB6B8" d="M4.698,8.864c0-0.044-0.034-0.068-0.071-0.073
	C4.589,8.796,4.556,8.82,4.556,8.864c0,0.59,0,2.897,0,3.488c0,0.045,0.033,0.068,0.071,0.073c0.037-0.005,0.071-0.028,0.071-0.073
	C4.698,11.761,4.698,9.454,4.698,8.864z"/>
<path fill-rule="evenodd" clip-rule="evenodd" fill="#C5CCD1" d="M4.251,8.838c0-0.082-0.144-0.072-0.144,0.017
	c0,0.585,0,2.913,0,3.498c0,0.09,0.144,0.1,0.144,0.017C4.251,11.773,4.251,9.434,4.251,8.838z"/>
<path fill-rule="evenodd" clip-rule="evenodd" fill="#AFB6B8" d="M3.862,12.232c0,0.067-0.086,0.028-0.086-0.042V8.63
	c0.035-0.004,0.086,0.029,0.086,0.073C3.862,9.05,3.862,11.886,3.862,12.232z"/>
<path fill-rule="evenodd" clip-rule="evenodd" fill="#AFB6B8" d="M4.251,8.838c0-0.056-0.065-0.069-0.107-0.045
	c-0.006,0.01-0.01,0.023-0.01,0.037c0,0.585,0,2.926,0,3.511c0,0.096,0.117,0.092,0.117,0.017C4.251,11.762,4.251,9.434,4.251,8.838
	z"/>
<path fill-rule="evenodd" clip-rule="evenodd" fill="#E6EAEB" d="M3.848,7.905c0.332-0.191,0.872-0.191,1.205,0
	c0.333,0.193,0.333,0.504,0,0.696c-0.333,0.192-0.873,0.192-1.205,0C3.514,8.41,3.514,8.098,3.848,7.905z"/>
<polygon fill-rule="evenodd" clip-rule="evenodd" fill="#7F8C8D" points="3.285,7.896 3.285,8.193 3.292,8.226 3.302,8.258 
	3.314,8.289 3.328,8.32 3.346,8.352 3.366,8.382 3.389,8.414 3.413,8.443 3.441,8.472 3.473,8.5 3.506,8.528 3.543,8.555 
	3.581,8.581 3.623,8.606 3.667,8.63 3.711,8.651 3.758,8.673 3.806,8.693 3.855,8.71 3.906,8.727 3.958,8.742 4.01,8.755 
	4.063,8.766 4.117,8.775 4.171,8.784 4.227,8.791 4.282,8.797 4.337,8.801 4.394,8.803 4.45,8.804 4.506,8.803 4.563,8.801 
	4.617,8.797 4.673,8.791 4.728,8.784 4.784,8.775 4.837,8.766 4.891,8.755 4.942,8.742 4.994,8.727 5.045,8.71 5.094,8.693 
	5.141,8.674 5.188,8.651 5.233,8.63 5.277,8.606 5.318,8.581 5.357,8.555 5.394,8.528 5.427,8.5 5.458,8.472 5.485,8.443 
	5.512,8.414 5.534,8.382 5.554,8.352 5.572,8.32 5.587,8.289 5.598,8.258 5.608,8.226 5.615,8.193 5.615,7.896 5.608,7.928 
	5.598,7.96 5.587,7.992 5.572,8.023 5.554,8.055 5.534,8.085 5.512,8.116 5.485,8.146 5.458,8.175 5.427,8.203 5.394,8.231 
	5.357,8.258 5.318,8.284 5.277,8.309 5.233,8.333 5.188,8.355 5.141,8.376 5.094,8.395 5.045,8.414 4.994,8.429 4.942,8.444 
	4.891,8.457 4.837,8.469 4.784,8.479 4.728,8.488 4.673,8.494 4.617,8.5 4.563,8.504 4.506,8.506 4.45,8.506 4.394,8.506 
	4.337,8.504 4.282,8.5 4.227,8.494 4.171,8.488 4.117,8.479 4.063,8.469 4.01,8.457 3.958,8.444 3.906,8.429 3.855,8.414 
	3.806,8.395 3.758,8.376 3.711,8.355 3.667,8.333 3.623,8.309 3.581,8.284 3.543,8.258 3.506,8.231 3.473,8.203 3.441,8.175 
	3.413,8.146 3.389,8.116 3.366,8.085 3.346,8.055 3.328,8.023 3.314,7.992 3.302,7.961 3.292,7.928 "/>
<path fill-rule="evenodd" clip-rule="evenodd" fill="#9C9C9C" d="M5.277,7.353C4.82,7.09,4.08,7.09,3.623,7.353
	c-0.457,0.264-0.457,0.692,0,0.956c0.457,0.264,1.197,0.264,1.654,0C5.734,8.045,5.734,7.617,5.277,7.353z"/>
<polygon fill-rule="evenodd" clip-rule="evenodd" fill="#E6EAEB" points="6.039,13.871 6.039,14.17 6.045,14.202 6.055,14.232 
	6.067,14.265 6.082,14.296 6.098,14.327 6.119,14.358 6.142,14.39 6.167,14.418 6.195,14.449 6.227,14.478 6.26,14.504 
	6.296,14.531 6.334,14.556 6.377,14.583 6.42,14.606 6.464,14.629 6.512,14.649 6.56,14.669 6.608,14.687 6.659,14.703 
	6.711,14.717 6.763,14.73 6.816,14.742 6.871,14.752 6.924,14.76 6.979,14.768 7.035,14.774 7.092,14.776 7.146,14.78 7.204,14.78 
	7.259,14.78 7.316,14.776 7.372,14.774 7.427,14.768 7.481,14.76 7.536,14.752 7.59,14.742 7.644,14.73 7.696,14.717 7.747,14.703 
	7.798,14.687 7.847,14.669 7.895,14.649 7.942,14.629 7.987,14.606 8.03,14.583 8.072,14.556 8.111,14.531 8.147,14.504 
	8.181,14.478 8.211,14.449 8.24,14.418 8.265,14.39 8.288,14.358 8.308,14.327 8.325,14.296 8.34,14.265 8.352,14.232 8.361,14.202 
	8.368,14.17 8.368,13.871 8.361,13.905 8.352,13.936 8.34,13.97 8.325,14.001 8.308,14.032 8.288,14.063 8.265,14.091 8.24,14.123 
	8.211,14.15 8.181,14.178 8.147,14.208 8.111,14.232 8.072,14.261 8.03,14.284 7.987,14.308 7.942,14.332 7.895,14.354 7.847,14.37 
	7.798,14.39 7.747,14.406 7.696,14.422 7.644,14.434 7.59,14.445 7.536,14.455 7.481,14.463 7.427,14.471 7.372,14.478 
	7.316,14.481 7.259,14.481 7.204,14.485 7.146,14.481 7.092,14.481 7.035,14.478 6.979,14.471 6.924,14.463 6.871,14.455 
	6.816,14.445 6.763,14.434 6.711,14.422 6.659,14.406 6.608,14.39 6.56,14.37 6.512,14.354 6.464,14.332 6.42,14.308 6.377,14.284 
	6.334,14.261 6.296,14.232 6.26,14.208 6.227,14.178 6.195,14.15 6.167,14.123 6.142,14.091 6.119,14.063 6.098,14.032 
	6.082,14.001 6.067,13.97 6.055,13.936 6.045,13.905 "/>
<path fill-rule="evenodd" clip-rule="evenodd" fill="#9C9C9C" d="M8.03,13.329c-0.456-0.265-1.198-0.265-1.653,0
	c-0.458,0.263-0.458,0.691,0,0.955c0.456,0.263,1.197,0.263,1.653,0C8.487,14.021,8.487,13.592,8.03,13.329z"/>
<path fill-rule="evenodd" clip-rule="evenodd" fill="#E74C3C" d="M7.809,9.155c-0.334-0.192-0.876-0.192-1.211,0
	c-0.334,0.193-0.334,0.507,0,0.7c0.334,0.194,0.876,0.194,1.211,0C8.144,9.662,8.143,9.347,7.809,9.155z"/>
<path fill-rule="evenodd" clip-rule="evenodd" fill="#E6EAEB" d="M6.6,13.339c0.333-0.193,0.873-0.193,1.206,0
	c0.332,0.19,0.333,0.503,0,0.695c-0.333,0.19-0.873,0.19-1.206,0C6.268,13.842,6.268,13.529,6.6,13.339z"/>
<polygon fill-rule="evenodd" clip-rule="evenodd" fill="#A3ADB5" points="8.052,13.733 8.052,13.815 8.047,13.84 8.04,13.863 
	8.031,13.887 8.021,13.911 8.007,13.932 7.993,13.953 7.976,13.978 7.958,13.999 7.938,14.021 7.915,14.041 7.891,14.061 
	7.865,14.079 7.836,14.099 7.806,14.119 7.774,14.135 7.741,14.15 7.708,14.166 7.672,14.182 7.636,14.194 7.6,14.206 7.562,14.217 
	7.524,14.225 7.485,14.234 7.445,14.24 7.406,14.248 7.366,14.252 7.326,14.256 7.285,14.261 7.244,14.261 7.204,14.263 
	7.162,14.261 7.122,14.261 7.081,14.256 7.04,14.252 7,14.248 6.96,14.24 6.92,14.234 6.882,14.225 6.844,14.217 6.807,14.206 
	6.77,14.194 6.734,14.182 6.698,14.166 6.665,14.15 6.632,14.135 6.6,14.119 6.569,14.099 6.542,14.079 6.516,14.061 6.491,14.041 
	6.468,14.021 6.449,13.999 6.429,13.978 6.413,13.953 6.398,13.932 6.385,13.911 6.375,13.887 6.366,13.863 6.359,13.84 
	6.354,13.815 6.354,13.733 6.359,13.758 6.366,13.78 6.375,13.804 6.385,13.826 6.398,13.85 6.413,13.871 6.429,13.896 
	6.449,13.915 6.468,13.936 6.491,13.957 6.516,13.978 6.542,13.997 6.569,14.017 6.6,14.034 6.632,14.053 6.665,14.067 
	6.698,14.083 6.734,14.097 6.77,14.111 6.807,14.123 6.844,14.133 6.882,14.143 6.92,14.15 6.96,14.158 7,14.164 7.04,14.17 
	7.081,14.174 7.122,14.176 7.162,14.178 7.204,14.178 7.244,14.178 7.285,14.176 7.326,14.174 7.366,14.17 7.406,14.164 
	7.445,14.158 7.485,14.15 7.524,14.143 7.562,14.133 7.6,14.123 7.636,14.111 7.672,14.097 7.708,14.083 7.741,14.067 7.774,14.053 
	7.806,14.034 7.836,14.017 7.865,13.997 7.891,13.978 7.915,13.957 7.938,13.936 7.958,13.915 7.976,13.896 7.993,13.871 
	8.007,13.85 8.021,13.826 8.031,13.804 8.04,13.78 8.047,13.758 "/>
<path fill-rule="evenodd" clip-rule="evenodd" fill="#C5CCD1" d="M6.612,13.345c0.326-0.188,0.855-0.188,1.181,0
	c0.326,0.188,0.326,0.493,0.001,0.684c-0.327,0.187-0.856,0.187-1.182,0C6.287,13.838,6.287,13.533,6.612,13.345z"/>
<polygon fill-rule="evenodd" clip-rule="evenodd" fill="#E6EAEB" points="8.021,9.708 8.021,13.71 8.017,13.731 8.011,13.754 
	8.001,13.777 7.991,13.798 7.979,13.82 7.964,13.842 7.948,13.863 7.93,13.885 7.911,13.905 7.889,13.926 7.865,13.945 
	7.839,13.964 7.812,13.981 7.782,14.001 7.752,14.017 7.721,14.032 7.687,14.049 7.654,14.063 7.618,14.073 7.583,14.085 
	7.546,14.095 7.509,14.104 7.472,14.113 7.434,14.121 7.395,14.127 7.356,14.131 7.318,14.135 7.277,14.139 7.238,14.139 
	7.198,14.141 7.158,14.139 7.119,14.139 7.08,14.135 7.04,14.131 7.002,14.127 6.962,14.121 6.924,14.113 6.888,14.104 
	6.851,14.095 6.814,14.085 6.779,14.073 6.744,14.063 6.709,14.049 6.676,14.032 6.644,14.017 6.614,14.001 6.584,13.981 
	6.557,13.964 6.531,13.945 6.509,13.926 6.486,13.905 6.466,13.885 6.449,13.863 6.432,13.842 6.418,13.82 6.406,13.798 
	6.396,13.777 6.386,13.754 6.381,13.731 6.376,13.71 6.376,9.708 6.381,9.731 6.386,9.753 6.396,9.776 6.406,9.799 6.418,9.82 
	6.432,9.842 6.449,9.863 6.466,9.884 6.486,9.905 6.509,9.925 6.531,9.945 6.557,9.964 6.584,9.982 6.614,9.999 6.644,10.017 
	6.676,10.033 6.709,10.047 6.744,10.062 6.779,10.074 6.814,10.084 6.851,10.096 6.888,10.104 6.924,10.113 6.962,10.12 
	7.002,10.126 7.04,10.131 7.08,10.135 7.119,10.138 7.158,10.139 7.198,10.14 7.238,10.139 7.277,10.138 7.318,10.135 7.356,10.131 
	7.395,10.126 7.434,10.12 7.472,10.113 7.509,10.104 7.546,10.096 7.583,10.084 7.618,10.074 7.654,10.062 7.687,10.047 
	7.721,10.033 7.752,10.017 7.782,9.999 7.812,9.982 7.839,9.964 7.865,9.945 7.889,9.925 7.911,9.905 7.93,9.884 7.948,9.863 
	7.964,9.842 7.979,9.82 7.991,9.799 8.001,9.776 8.011,9.753 8.017,9.731 "/>
<path fill-rule="evenodd" clip-rule="evenodd" fill="#C5CCD1" d="M6.616,13.792c0,0.067-0.124,0.04-0.124-0.042
	c0-0.484,0-3.044,0-3.527c0-0.083,0.124-0.042,0.124,0.028C6.616,10.762,6.616,13.281,6.616,13.792z"/>
<path fill-rule="evenodd" clip-rule="evenodd" fill="#C5CCD1" d="M7.809,13.808c0,0.06-0.104,0.058-0.104-0.008v-3.512
	c0-0.065,0.104-0.068,0.104-0.007V13.808z"/>
<path fill-rule="evenodd" clip-rule="evenodd" fill="#AFB6B8" d="M7.706,13.788v-3.5c0-0.037,0.035-0.054,0.064-0.05
	c0.006,0.015,0.01,0.031,0.01,0.042v3.515C7.779,13.859,7.706,13.842,7.706,13.788z"/>
<path fill-rule="evenodd" clip-rule="evenodd" fill="#AFB6B8" d="M7.987,13.65c0,0.026-0.044,0.024-0.044-0.008
	c0-0.412,0-3.114,0-3.526c0-0.031,0.044-0.032,0.044-0.008C7.987,10.526,7.987,13.234,7.987,13.65z"/>
<path fill-rule="evenodd" clip-rule="evenodd" fill="#C5CCD1" d="M7.472,13.911c0,0.096-0.162,0.096-0.162,0c0-0.59,0-2.909,0-3.5
	c0-0.096,0.162-0.096,0.162,0C7.472,11.002,7.472,13.321,7.472,13.911z"/>
<path fill-rule="evenodd" clip-rule="evenodd" fill="#AFB6B8" d="M7.451,10.411c0-0.043-0.034-0.068-0.071-0.072
	c-0.037,0.004-0.071,0.028-0.071,0.072c0,0.591,0,2.898,0,3.488c0,0.044,0.034,0.068,0.071,0.072
	c0.037-0.004,0.071-0.028,0.071-0.072C7.451,13.31,7.451,11.002,7.451,10.411z"/>
<path fill-rule="evenodd" clip-rule="evenodd" fill="#C5CCD1" d="M7.005,10.387c0-0.084-0.144-0.073-0.144,0.017
	c0,0.585,0,2.914,0,3.498c0,0.088,0.144,0.1,0.144,0.018C7.005,13.321,7.005,10.982,7.005,10.387z"/>
<path fill-rule="evenodd" clip-rule="evenodd" fill="#AFB6B8" d="M6.616,13.78c0,0.067-0.088,0.027-0.088-0.043v-3.559
	c0.037-0.004,0.088,0.029,0.088,0.073C6.616,10.598,6.616,13.435,6.616,13.78z"/>
<path fill-rule="evenodd" clip-rule="evenodd" fill="#AFB6B8" d="M7.005,10.387c0-0.056-0.065-0.07-0.107-0.046
	c-0.006,0.012-0.009,0.023-0.009,0.037c0,0.585,0,2.928,0,3.514c0,0.094,0.117,0.088,0.117,0.016
	C7.005,13.31,7.005,10.982,7.005,10.387z"/>
<path fill-rule="evenodd" clip-rule="evenodd" fill="#E6EAEB" d="M6.6,9.454c0.333-0.191,0.873-0.191,1.206,0
	c0.332,0.192,0.333,0.504,0,0.696c-0.333,0.193-0.873,0.193-1.206,0C6.268,9.958,6.268,9.646,6.6,9.454z"/>
<polygon fill-rule="evenodd" clip-rule="evenodd" fill="#7F8C8D" points="6.039,9.444 6.039,9.742 6.045,9.773 6.055,9.806 
	6.067,9.837 6.082,9.868 6.098,9.9 6.119,9.931 6.142,9.961 6.167,9.991 6.195,10.02 6.227,10.048 6.26,10.076 6.296,10.103 
	6.334,10.129 6.377,10.154 6.42,10.178 6.464,10.201 6.512,10.221 6.56,10.24 6.608,10.258 6.659,10.275 6.711,10.289 6.763,10.303 
	6.816,10.314 6.871,10.325 6.924,10.333 6.979,10.339 7.035,10.344 7.092,10.35 7.146,10.353 7.204,10.353 7.259,10.353 
	7.316,10.35 7.372,10.344 7.427,10.339 7.481,10.333 7.536,10.325 7.59,10.314 7.644,10.303 7.696,10.289 7.747,10.276 
	7.798,10.259 7.847,10.24 7.895,10.221 7.942,10.201 7.987,10.178 8.03,10.154 8.072,10.129 8.111,10.103 8.147,10.076 
	8.181,10.048 8.211,10.02 8.24,9.991 8.265,9.961 8.288,9.931 8.308,9.9 8.325,9.868 8.34,9.837 8.352,9.806 8.361,9.773 
	8.368,9.742 8.368,9.444 8.361,9.477 8.352,9.508 8.34,9.541 8.325,9.571 8.308,9.603 8.288,9.632 8.265,9.664 8.24,9.694 
	8.211,9.723 8.181,9.75 8.147,9.779 8.111,9.806 8.072,9.831 8.03,9.856 7.987,9.88 7.942,9.904 7.895,9.924 7.847,9.943 
	7.798,9.961 7.747,9.977 7.696,9.992 7.644,10.005 7.59,10.017 7.536,10.027 7.481,10.036 7.427,10.042 7.372,10.048 7.316,10.051 
	7.259,10.054 7.204,10.055 7.146,10.054 7.092,10.051 7.035,10.048 6.979,10.042 6.924,10.036 6.871,10.027 6.816,10.017 
	6.763,10.005 6.711,9.992 6.659,9.977 6.608,9.961 6.56,9.943 6.512,9.924 6.464,9.904 6.42,9.88 6.377,9.856 6.334,9.831 
	6.296,9.806 6.26,9.779 6.227,9.75 6.195,9.723 6.167,9.694 6.142,9.664 6.119,9.632 6.098,9.603 6.082,9.571 6.067,9.541 
	6.055,9.508 6.045,9.477 "/>
<path fill-rule="evenodd" clip-rule="evenodd" fill="#9C9C9C" d="M8.03,8.901c-0.456-0.264-1.198-0.264-1.653,0
	c-0.458,0.264-0.458,0.692,0,0.955c0.456,0.264,1.197,0.265,1.653,0C8.487,9.593,8.487,9.166,8.03,8.901z"/>
<polygon fill-rule="evenodd" clip-rule="evenodd" fill="#E6EAEB" points="11.417,13.865 11.417,14.162 11.423,14.194 11.433,14.227 
	11.445,14.259 11.461,14.29 11.477,14.321 11.496,14.354 11.521,14.382 11.545,14.412 11.572,14.441 11.604,14.469 11.638,14.499 
	11.674,14.523 11.712,14.552 11.756,14.575 11.799,14.599 11.842,14.622 11.89,14.643 11.937,14.661 11.987,14.681 12.039,14.696 
	12.09,14.711 12.141,14.725 12.194,14.736 12.247,14.746 12.302,14.754 12.357,14.76 12.414,14.768 12.469,14.77 12.526,14.774 
	12.581,14.774 12.637,14.774 12.694,14.77 12.75,14.768 12.806,14.76 12.86,14.754 12.916,14.746 12.969,14.736 13.021,14.725 
	13.073,14.711 13.124,14.696 13.175,14.681 13.227,14.661 13.272,14.643 13.32,14.622 13.364,14.599 13.409,14.575 13.45,14.552 
	13.489,14.523 13.525,14.499 13.561,14.469 13.59,14.441 13.617,14.412 13.643,14.382 13.667,14.354 13.687,14.321 13.704,14.29 
	13.717,14.259 13.729,14.227 13.739,14.194 13.745,14.162 13.745,13.865 13.739,13.899 13.729,13.93 13.717,13.961 13.704,13.993 
	13.687,14.024 13.667,14.057 13.643,14.085 13.617,14.115 13.59,14.145 13.561,14.172 13.525,14.202 13.489,14.227 13.45,14.252 
	13.409,14.278 13.364,14.304 13.32,14.325 13.272,14.346 13.227,14.364 13.175,14.382 13.124,14.397 13.073,14.414 13.021,14.426 
	12.969,14.438 12.916,14.449 12.86,14.457 12.806,14.465 12.75,14.469 12.694,14.473 12.637,14.475 12.581,14.478 12.526,14.475 
	12.469,14.473 12.414,14.469 12.357,14.465 12.302,14.457 12.247,14.449 12.194,14.438 12.141,14.426 12.09,14.414 12.039,14.397 
	11.987,14.382 11.937,14.364 11.89,14.346 11.842,14.325 11.799,14.304 11.756,14.278 11.712,14.252 11.674,14.227 11.638,14.202 
	11.604,14.172 11.572,14.145 11.545,14.115 11.521,14.085 11.496,14.057 11.477,14.024 11.461,13.993 11.445,13.961 11.433,13.93 
	11.423,13.899 "/>
<path fill-rule="evenodd" clip-rule="evenodd" fill="#9C9C9C" d="M13.407,13.325c-0.456-0.267-1.195-0.267-1.651,0
	c-0.46,0.263-0.46,0.689,0,0.953c0.456,0.265,1.195,0.265,1.653,0C13.867,14.015,13.867,13.588,13.407,13.325z"/>
<path fill-rule="evenodd" clip-rule="evenodd" fill="#E74C3C" d="M13.187,9.149c-0.334-0.193-0.877-0.193-1.211,0
	c-0.334,0.193-0.334,0.506,0,0.7c0.334,0.193,0.877,0.193,1.211,0C13.521,9.655,13.521,9.342,13.187,9.149z"/>
<path fill-rule="evenodd" clip-rule="evenodd" fill="#E6EAEB" d="M11.979,13.333c0.332-0.193,0.871-0.193,1.203,0
	c0.335,0.192,0.335,0.503,0,0.695c-0.33,0.192-0.873,0.192-1.203,0C11.646,13.836,11.646,13.525,11.979,13.333z"/>
<polygon fill-rule="evenodd" clip-rule="evenodd" fill="#A3ADB5" points="13.431,13.726 13.431,13.81 13.424,13.834 13.418,13.857 
	13.411,13.879 13.399,13.903 13.388,13.926 13.372,13.949 13.356,13.97 13.336,13.993 13.316,14.013 13.293,14.034 13.27,14.057 
	13.242,14.073 13.215,14.093 13.183,14.111 13.151,14.129 13.12,14.145 13.085,14.16 13.051,14.174 13.014,14.188 12.979,14.198 
	12.939,14.21 12.903,14.219 12.864,14.229 12.825,14.234 12.786,14.24 12.744,14.246 12.703,14.25 12.664,14.252 12.621,14.254 
	12.581,14.256 12.542,14.254 12.499,14.252 12.459,14.25 12.418,14.246 12.379,14.24 12.338,14.234 12.298,14.229 12.26,14.219 
	12.224,14.21 12.185,14.198 12.148,14.188 12.112,14.174 12.078,14.16 12.043,14.145 12.011,14.129 11.979,14.111 11.948,14.093 
	11.921,14.073 11.894,14.057 11.869,14.034 11.846,14.013 11.827,13.993 11.807,13.97 11.791,13.949 11.775,13.926 11.764,13.903 
	11.752,13.879 11.744,13.857 11.738,13.834 11.731,13.81 11.731,13.726 11.738,13.75 11.744,13.773 11.752,13.796 11.764,13.82 
	11.775,13.842 11.791,13.863 11.807,13.887 11.827,13.909 11.846,13.93 11.869,13.949 11.894,13.97 11.921,13.991 11.948,14.009 
	11.979,14.028 12.011,14.045 12.043,14.063 12.078,14.075 12.112,14.091 12.148,14.103 12.185,14.115 12.224,14.127 12.26,14.135 
	12.298,14.145 12.338,14.15 12.379,14.158 12.418,14.162 12.459,14.166 12.499,14.17 12.542,14.172 12.581,14.172 12.621,14.172 
	12.664,14.17 12.703,14.166 12.744,14.162 12.786,14.158 12.825,14.15 12.864,14.145 12.903,14.135 12.939,14.127 12.979,14.115 
	13.014,14.103 13.051,14.091 13.085,14.075 13.12,14.063 13.151,14.045 13.183,14.028 13.215,14.009 13.242,13.991 13.27,13.97 
	13.293,13.949 13.316,13.93 13.336,13.909 13.356,13.887 13.372,13.863 13.388,13.842 13.399,13.82 13.411,13.796 13.418,13.773 
	13.424,13.75 "/>
<path fill-rule="evenodd" clip-rule="evenodd" fill="#C5CCD1" d="M11.991,13.339c0.326-0.188,0.854-0.189,1.18,0
	c0.326,0.188,0.326,0.493,0,0.682c-0.326,0.189-0.854,0.189-1.18,0C11.666,13.832,11.666,13.527,11.991,13.339z"/>
<polygon fill-rule="evenodd" clip-rule="evenodd" fill="#E6EAEB" points="13.399,9.702 13.399,13.702 13.396,13.726 13.388,13.748 
	13.38,13.77 13.37,13.792 13.356,13.813 13.342,13.836 13.326,13.857 13.309,13.879 13.289,13.899 13.266,13.919 13.242,13.938 
	13.219,13.957 13.19,13.978 13.161,13.993 13.129,14.011 13.099,14.026 13.065,14.041 13.031,14.057 12.996,14.067 12.961,14.079 
	12.926,14.089 12.888,14.099 12.849,14.106 12.813,14.115 12.774,14.119 12.734,14.125 12.695,14.129 12.656,14.131 12.617,14.135 
	12.577,14.135 12.536,14.135 12.497,14.131 12.459,14.129 12.418,14.125 12.381,14.119 12.342,14.115 12.302,14.106 12.267,14.099 
	12.228,14.089 12.192,14.079 12.156,14.067 12.121,14.057 12.088,14.041 12.055,14.026 12.022,14.011 11.991,13.993 11.963,13.978 
	11.935,13.957 11.909,13.938 11.886,13.919 11.865,13.899 11.844,13.879 11.827,13.857 11.812,13.836 11.795,13.813 11.783,13.792 
	11.773,13.77 11.766,13.748 11.758,13.726 11.754,13.702 11.754,9.702 11.758,9.725 11.766,9.747 11.773,9.77 11.783,9.792 
	11.795,9.814 11.812,9.836 11.827,9.856 11.844,9.878 11.865,9.898 11.886,9.919 11.909,9.938 11.935,9.957 11.963,9.976 
	11.991,9.993 12.022,10.01 12.055,10.026 12.088,10.041 12.121,10.055 12.156,10.067 12.192,10.079 12.228,10.088 12.267,10.099 
	12.302,10.106 12.342,10.113 12.381,10.119 12.418,10.124 12.459,10.128 12.497,10.131 12.536,10.132 12.577,10.133 12.617,10.132 
	12.656,10.131 12.695,10.128 12.734,10.124 12.774,10.119 12.813,10.113 12.849,10.106 12.888,10.099 12.926,10.088 12.961,10.078 
	12.996,10.067 13.031,10.055 13.065,10.041 13.099,10.026 13.129,10.01 13.161,9.993 13.19,9.976 13.219,9.957 13.242,9.938 
	13.266,9.919 13.289,9.898 13.309,9.878 13.326,9.856 13.342,9.836 13.356,9.814 13.37,9.792 13.38,9.77 13.388,9.747 13.396,9.725 
	"/>
<path fill-rule="evenodd" clip-rule="evenodd" fill="#C5CCD1" d="M11.993,13.784c0,0.071-0.124,0.04-0.124-0.04
	c0-0.484,0-3.044,0-3.528c0-0.081,0.124-0.041,0.124,0.028C11.993,10.755,11.993,13.273,11.993,13.784z"/>
<path fill-rule="evenodd" clip-rule="evenodd" fill="#C5CCD1" d="M13.187,13.8c0,0.063-0.102,0.06-0.102-0.006v-3.513
	c0-0.065,0.102-0.068,0.102-0.006V13.8z"/>
<path fill-rule="evenodd" clip-rule="evenodd" fill="#AFB6B8" d="M13.085,13.782v-3.501c0-0.037,0.033-0.054,0.063-0.049
	c0.008,0.014,0.01,0.031,0.01,0.043v3.515C13.157,13.854,13.085,13.836,13.085,13.782z"/>
<path fill-rule="evenodd" clip-rule="evenodd" fill="#AFB6B8" d="M13.364,13.645c0,0.026-0.044,0.023-0.044-0.006
	c0-0.413,0-3.117,0-3.529c0-0.031,0.044-0.032,0.044-0.007C13.364,10.52,13.364,13.226,13.364,13.645z"/>
<path fill-rule="evenodd" clip-rule="evenodd" fill="#C5CCD1" d="M12.851,13.905c0,0.096-0.163,0.096-0.163,0c0-0.592,0-2.91,0-3.5
	c0-0.097,0.163-0.097,0.163,0C12.851,10.995,12.851,13.313,12.851,13.905z"/>
<path fill-rule="evenodd" clip-rule="evenodd" fill="#AFB6B8" d="M12.829,10.405c0-0.044-0.033-0.068-0.071-0.072
	c-0.035,0.004-0.07,0.027-0.07,0.072c0,0.59,0,2.898,0,3.488c0,0.044,0.035,0.067,0.07,0.072c0.038-0.005,0.071-0.028,0.071-0.072
	C12.829,13.304,12.829,10.995,12.829,10.405z"/>
<path fill-rule="evenodd" clip-rule="evenodd" fill="#C5CCD1" d="M12.383,10.379c0-0.083-0.144-0.072-0.144,0.017
	c0,0.585,0,2.913,0,3.499c0,0.088,0.144,0.098,0.144,0.016C12.383,13.315,12.383,10.976,12.383,10.379z"/>
<path fill-rule="evenodd" clip-rule="evenodd" fill="#AFB6B8" d="M11.993,13.773c0,0.068-0.088,0.03-0.088-0.04v-3.561
	c0.039-0.005,0.088,0.028,0.088,0.072C11.993,10.591,11.993,13.427,11.993,13.773z"/>
<path fill-rule="evenodd" clip-rule="evenodd" fill="#AFB6B8" d="M12.383,10.379c0-0.055-0.065-0.068-0.106-0.045
	c-0.006,0.01-0.01,0.022-0.01,0.036c0,0.585,0,2.926,0,3.512c0,0.095,0.116,0.091,0.116,0.017
	C12.383,13.304,12.383,10.976,12.383,10.379z"/>
<path fill-rule="evenodd" clip-rule="evenodd" fill="#E6EAEB" d="M11.979,9.448c0.332-0.192,0.873-0.192,1.203,0
	c0.335,0.191,0.335,0.503,0,0.696c-0.33,0.192-0.871,0.192-1.203,0C11.646,9.951,11.646,9.639,11.979,9.448z"/>
<polygon fill-rule="evenodd" clip-rule="evenodd" fill="#7F8C8D" points="11.417,9.438 11.417,9.735 11.423,9.768 11.433,9.8 
	11.445,9.831 11.461,9.862 11.477,9.893 11.496,9.924 11.521,9.954 11.545,9.985 11.572,10.013 11.604,10.042 11.638,10.069 
	11.674,10.097 11.712,10.122 11.756,10.147 11.799,10.172 11.842,10.194 11.89,10.215 11.937,10.234 11.987,10.252 12.039,10.269 
	12.09,10.283 12.141,10.296 12.194,10.308 12.247,10.318 12.302,10.326 12.357,10.333 12.414,10.339 12.469,10.342 12.526,10.344 
	12.581,10.345 12.637,10.344 12.694,10.342 12.75,10.339 12.806,10.333 12.86,10.326 12.916,10.318 12.969,10.308 13.021,10.296 
	13.073,10.283 13.124,10.269 13.175,10.252 13.227,10.234 13.272,10.215 13.32,10.194 13.364,10.172 13.409,10.147 13.45,10.122 
	13.489,10.097 13.525,10.069 13.561,10.042 13.59,10.013 13.617,9.985 13.643,9.954 13.667,9.924 13.687,9.893 13.704,9.862 
	13.717,9.831 13.729,9.8 13.739,9.768 13.745,9.735 13.745,9.438 13.739,9.47 13.729,9.502 13.717,9.533 13.704,9.565 13.687,9.597 
	13.667,9.627 13.643,9.657 13.617,9.688 13.59,9.716 13.561,9.745 13.525,9.772 13.489,9.8 13.45,9.825 13.409,9.851 13.364,9.875 
	13.32,9.897 13.272,9.918 13.227,9.936 13.175,9.954 13.124,9.971 13.073,9.986 13.021,9.999 12.969,10.01 12.916,10.021 
	12.86,10.029 12.806,10.036 12.75,10.042 12.694,10.045 12.637,10.047 12.581,10.048 12.526,10.047 12.469,10.045 12.414,10.042 
	12.357,10.036 12.302,10.029 12.247,10.021 12.194,10.01 12.141,9.999 12.09,9.986 12.039,9.971 11.987,9.954 11.937,9.936 
	11.89,9.918 11.842,9.897 11.799,9.875 11.756,9.851 11.712,9.825 11.674,9.8 11.638,9.772 11.604,9.745 11.572,9.716 11.545,9.688 
	11.521,9.657 11.496,9.627 11.477,9.597 11.461,9.565 11.445,9.533 11.433,9.502 11.423,9.47 "/>
<path fill-rule="evenodd" clip-rule="evenodd" fill="#9C9C9C" d="M13.407,8.896c-0.456-0.264-1.195-0.264-1.651,0
	c-0.46,0.263-0.46,0.692,0,0.955c0.456,0.264,1.195,0.264,1.653,0C13.867,9.587,13.867,9.159,13.407,8.896z"/>
<polygon fill-rule="evenodd" clip-rule="evenodd" fill="#2C3E50" points="17.445,7.39 9.875,3.019 9.847,3.003 9.814,2.995 
	9.779,2.995 5.938,3.273 5.91,3.277 5.881,3.284 5.852,3.296 5.823,3.311 5.794,3.33 5.765,3.353 5.736,3.379 5.708,3.409 
	1.837,7.663 1.801,7.706 1.768,7.752 1.739,7.8 1.715,7.85 1.697,7.9 1.683,7.951 1.674,8 1.67,8.049 1.669,8.244 1.67,8.264 
	1.676,8.281 1.685,8.295 1.697,8.304 9.267,12.674 9.255,12.664 9.246,12.652 9.24,12.632 9.238,12.613 9.24,12.42 9.243,12.37 
	9.252,12.321 9.266,12.271 9.285,12.221 9.31,12.171 9.338,12.122 9.37,12.076 9.407,12.033 13.276,7.779 13.305,7.75 13.334,7.723 
	13.364,7.7 13.392,7.682 13.422,7.667 13.45,7.655 13.479,7.647 13.51,7.643 17.347,7.366 17.384,7.366 17.418,7.375 "/>
<path fill-rule="evenodd" clip-rule="evenodd" fill="#E6EAEB" d="M15.928,8.067l-5.099,2.997c-0.017,0.01-0.03,0.006-0.035-0.01
	c-0.002-0.019,0.006-0.041,0.022-0.058l2.558-2.742c0.01-0.01,0.02-0.016,0.029-0.017l2.54-0.255
	c0.016-0.002,0.023,0.012,0.02,0.033S15.943,8.058,15.928,8.067z"/>
<path fill-rule="evenodd" clip-rule="evenodd" fill="#3D566E" d="M17.347,7.366L13.51,7.643c-0.077,0.005-0.155,0.051-0.233,0.136
	l-3.87,4.254c-0.103,0.113-0.166,0.259-0.167,0.387l-0.002,0.193c0,0.061,0.043,0.084,0.097,0.055l8.075-4.749
	c0.055-0.03,0.098-0.104,0.098-0.166l0.002-0.195C17.512,7.431,17.449,7.358,17.347,7.366z"/>
<polygon fill-rule="evenodd" clip-rule="evenodd" fill="#9C9C9C" points="16.368,8.011 10.387,11.525 13.388,8.226 "/>
<polygon fill-rule="evenodd" clip-rule="evenodd" fill="#E6EAEB" points="10.848,11.018 13.388,8.226 15.907,8.044 "/>
<polygon fill-rule="evenodd" clip-rule="evenodd" fill="#415A73" points="17.445,7.39 9.875,3.019 9.847,3.003 9.814,2.995 
	9.779,2.995 5.938,3.273 5.91,3.277 5.881,3.284 5.852,3.296 5.823,3.311 5.794,3.33 5.765,3.353 5.736,3.379 5.708,3.409 
	1.837,7.663 1.801,7.706 1.768,7.752 1.739,7.8 1.715,7.85 1.697,7.9 1.683,7.951 1.674,8 1.67,8.049 9.24,12.42 9.243,12.37 
	9.252,12.321 9.266,12.271 9.285,12.221 9.31,12.171 9.338,12.122 9.37,12.076 9.407,12.033 13.276,7.779 13.305,7.75 13.334,7.723 
	13.364,7.7 13.392,7.682 13.422,7.667 13.45,7.655 13.479,7.647 13.51,7.643 17.347,7.366 17.384,7.366 17.418,7.375 "/>
<polygon fill-rule="evenodd" clip-rule="evenodd" fill="#2C3E50" points="17.445,7.39 9.875,3.019 9.847,3.003 9.814,2.995 
	9.779,2.995 5.938,3.273 5.91,3.277 5.881,3.284 5.852,3.296 5.823,3.311 13.422,7.667 13.45,7.655 13.479,7.647 13.51,7.643 
	17.347,7.366 17.384,7.366 17.418,7.375 "/>
<polygon fill-rule="evenodd" clip-rule="evenodd" fill="#2C3E50" points="13.557,8.6 13.521,8.579 13.521,8.578 13.521,8.575 
	13.521,8.573 13.521,8.571 13.521,8.569 13.521,8.566 13.521,8.563 13.52,8.56 13.52,8.544 13.518,8.53 13.518,8.518 13.514,8.506 
	13.51,8.497 13.506,8.491 13.5,8.486 13.533,8.506 13.541,8.511 13.545,8.518 13.549,8.527 13.549,8.538 13.553,8.55 13.555,8.564 
	13.555,8.581 13.555,8.583 13.555,8.586 13.555,8.589 13.555,8.591 13.555,8.593 13.555,8.596 13.555,8.597 "/>
<path fill-rule="evenodd" clip-rule="evenodd" fill="#415A73" d="M13.407,8.55v0.257c0.066-0.037,0.122-0.061,0.165-0.075
	c0.043-0.013,0.077-0.008,0.103,0.014c0.027,0.022,0.038,0.07,0.038,0.142c0,0.075-0.008,0.139-0.026,0.19
	c-0.02,0.053-0.05,0.101-0.091,0.143c-0.039,0.042-0.094,0.084-0.163,0.126l-0.025,0.016v0.1l-0.091,0.051v-0.1
	c-0.047,0.028-0.088,0.047-0.126,0.061c-0.035,0.012-0.066,0.017-0.094,0.012c-0.027-0.004-0.05-0.021-0.063-0.05
	c-0.016-0.026-0.023-0.069-0.023-0.124l-0.002-0.032l0.142-0.083c0,0.042,0.002,0.072,0.01,0.091
	c0.006,0.019,0.016,0.03,0.027,0.033c0.012,0.004,0.028,0.001,0.044-0.006c0.016-0.007,0.044-0.021,0.086-0.042V8.994
	c-0.055,0.027-0.098,0.047-0.13,0.06c-0.031,0.012-0.063,0.017-0.086,0.014c-0.027-0.002-0.048-0.018-0.062-0.043
	c-0.014-0.028-0.021-0.071-0.021-0.129c0-0.073,0.012-0.136,0.037-0.189c0.026-0.053,0.06-0.098,0.101-0.137
	c0.043-0.038,0.099-0.076,0.161-0.113V8.37l0.091-0.052v0.088c0.07-0.037,0.126-0.062,0.165-0.072c0.039-0.009,0.068,0,0.091,0.027
	c0.02,0.027,0.031,0.079,0.031,0.158L13.557,8.6c-0.002-0.006-0.002-0.012-0.002-0.019c0-0.046-0.01-0.072-0.025-0.078
	c-0.02-0.007-0.048,0.003-0.087,0.026L13.407,8.55L13.407,8.55z M13.407,8.942v0.28l0.025-0.016
	c0.049-0.026,0.081-0.057,0.104-0.089c0.023-0.033,0.035-0.076,0.035-0.128c0-0.042-0.009-0.068-0.02-0.081
	c-0.012-0.012-0.029-0.015-0.051-0.009C13.481,8.907,13.45,8.922,13.407,8.942L13.407,8.942z M13.316,8.601l-0.021,0.013
	c-0.031,0.019-0.057,0.035-0.074,0.051c-0.019,0.015-0.034,0.034-0.046,0.057c-0.01,0.024-0.016,0.053-0.016,0.089
	c0,0.052,0.014,0.081,0.039,0.084c0.026,0.004,0.067-0.009,0.118-0.04V8.601z"/>
<path fill-rule="evenodd" clip-rule="evenodd" fill="#1B2630" d="M7.483,4.729C7.299,4.622,7.285,4.436,7.47,4.33l0.146-0.079
	c0.192-0.103,0.488-0.107,0.672,0c0.918,0.53,2.563,1.477,3.48,2.005c0.185,0.107,0.187,0.282,0,0.389L11.63,6.725
	c-0.189,0.107-0.498,0.107-0.685-0.002C9.716,6.014,8.711,5.438,7.483,4.729z"/>
<path fill-rule="evenodd" clip-rule="evenodd" fill="#233240" d="M8.288,4.251c0.918,0.53,2.563,1.477,3.48,2.005
	c0.185,0.107,0.187,0.282,0,0.389L11.63,6.725c-0.189,0.107-0.498,0.107-0.685-0.002c-0.951-0.549-1.768-1.018-2.658-1.53V4.251z"/>
<polygon fill-rule="evenodd" clip-rule="evenodd" fill="#F0B11D" points="8.227,1.302 8.62,1.075 8.682,1.042 8.746,1.015 
	8.813,0.992 8.883,0.976 8.955,0.964 9.03,0.958 9.106,0.957 9.187,0.961 9.266,0.971 9.349,0.985 9.433,1.007 9.52,1.034 
	9.608,1.067 9.695,1.104 9.787,1.148 9.878,1.198 9.97,1.255 10.06,1.315 10.149,1.378 10.237,1.447 10.323,1.52 10.407,1.597 
	10.49,1.676 10.57,1.76 10.649,1.846 10.726,1.936 10.801,2.028 10.873,2.124 10.943,2.221 11.01,2.321 11.075,2.422 11.134,2.527 
	11.195,2.633 11.251,2.739 11.304,2.847 11.353,2.956 11.397,3.066 11.44,3.176 11.48,3.288 11.519,3.399 11.549,3.511 
	11.576,3.623 11.601,3.734 11.622,3.845 11.636,3.955 11.647,4.065 11.653,4.172 11.657,4.279 11.653,4.383 11.647,4.485 
	11.636,4.582 11.622,4.672 11.601,4.761 11.576,4.845 11.549,4.924 11.519,4.999 11.48,5.069 11.44,5.135 11.397,5.196 
	11.353,5.252 11.304,5.304 11.251,5.352 11.195,5.394 11.134,5.432 10.743,5.659 10.802,5.621 10.857,5.579 10.91,5.531 
	10.96,5.479 11.006,5.423 11.049,5.362 11.088,5.296 11.124,5.225 11.156,5.15 11.184,5.072 11.207,4.988 11.229,4.899 
	11.243,4.808 11.254,4.711 11.26,4.61 11.264,4.506 11.26,4.399 11.254,4.292 11.243,4.182 11.229,4.072 11.207,3.961 11.184,3.85 
	11.156,3.739 11.124,3.627 11.088,3.514 11.049,3.403 11.006,3.293 10.96,3.183 10.91,3.073 10.857,2.966 10.802,2.859 
	10.743,2.754 10.681,2.649 10.616,2.548 10.549,2.448 10.48,2.351 10.407,2.256 10.333,2.163 10.256,2.073 10.177,1.987 
	10.096,1.904 10.014,1.823 9.929,1.747 9.844,1.674 9.756,1.605 9.667,1.542 9.576,1.481 9.485,1.426 9.394,1.375 9.303,1.332 
	9.214,1.293 9.126,1.261 9.04,1.234 8.956,1.212 8.873,1.196 8.793,1.187 8.713,1.183 8.637,1.184 8.562,1.191 8.49,1.202 
	8.42,1.219 8.354,1.242 8.289,1.269 "/>
<path fill-rule="evenodd" clip-rule="evenodd" fill="#F0B11D" d="M9.485,1.426c0.981,0.567,1.778,1.947,1.778,3.081
	c0,1.135-0.797,1.594-1.778,1.027c-0.982-0.566-1.78-1.946-1.78-3.08C7.706,1.319,8.503,0.858,9.485,1.426L9.485,1.426z
	 M9.485,5.236c0.419,0.242,0.8,0.266,1.074,0.106c0.275-0.158,0.447-0.499,0.447-0.985s-0.172-1.022-0.447-1.5
	c-0.274-0.476-0.655-0.893-1.074-1.135C9.064,1.48,8.684,1.457,8.408,1.617c-0.275,0.158-0.445,0.5-0.445,0.985
	c0,0.485,0.17,1.023,0.445,1.499C8.684,4.578,9.064,4.994,9.485,5.236z"/>
<path fill-rule="evenodd" clip-rule="evenodd" fill="#F0B11D" d="M9.485,1.426c0.981,0.567,1.778,1.947,1.778,3.081
	c0,1.135-0.797,1.594-1.778,1.027c-0.982-0.566-1.78-1.946-1.78-3.08C7.706,1.319,8.503,0.858,9.485,1.426z"/>
<polygon fill-rule="evenodd" clip-rule="evenodd" fill="#F0B11D" points="9.485,5.236 9.766,5.075 9.688,5.026 9.61,4.975 
	9.534,4.92 9.459,4.862 9.386,4.8 9.314,4.734 9.242,4.666 9.173,4.594 9.105,4.52 9.041,4.443 8.977,4.365 8.915,4.283 8.855,4.2 
	8.798,4.114 8.743,4.026 8.69,3.938 8.408,4.1 8.462,4.189 8.518,4.276 8.575,4.362 8.635,4.445 8.695,4.527 8.76,4.605 
	8.826,4.682 8.894,4.756 8.961,4.828 9.033,4.896 9.104,4.961 9.178,5.024 9.253,5.083 9.33,5.138 9.407,5.188 "/>
<polygon fill-rule="evenodd" clip-rule="evenodd" fill="#F0B11D" points="8.408,4.1 8.69,3.938 8.64,3.849 8.591,3.757 8.546,3.665 
	8.504,3.572 8.465,3.477 8.427,3.383 8.395,3.287 8.364,3.192 8.336,3.096 8.313,3.001 8.292,2.905 8.276,2.811 8.262,2.716 
	8.252,2.623 8.247,2.531 8.245,2.439 7.963,2.602 7.965,2.693 7.971,2.786 7.981,2.878 7.994,2.973 8.012,3.067 8.032,3.163 
	8.056,3.259 8.083,3.354 8.114,3.45 8.146,3.545 8.184,3.64 8.224,3.733 8.265,3.826 8.311,3.919 8.358,4.011 "/>
<polygon fill-rule="evenodd" clip-rule="evenodd" fill="#F0B11D" points="7.963,2.602 8.245,2.439 8.247,2.35 8.252,2.264 
	8.262,2.182 8.276,2.103 8.292,2.027 8.313,1.957 8.336,1.889 8.364,1.824 8.395,1.764 8.427,1.708 8.465,1.655 8.504,1.607 
	8.546,1.562 8.591,1.522 8.64,1.485 8.69,1.454 8.408,1.617 8.358,1.648 8.311,1.685 8.265,1.725 8.224,1.769 8.184,1.818 
	8.146,1.87 8.114,1.926 8.083,1.986 8.056,2.05 8.032,2.119 8.012,2.189 7.994,2.265 7.981,2.344 7.971,2.426 7.965,2.512 "/>
<polygon fill-rule="evenodd" clip-rule="evenodd" fill="#F0B11D" points="10.56,5.343 10.841,5.181 10.79,5.208 10.733,5.231 
	10.676,5.251 10.616,5.266 10.554,5.275 10.491,5.281 10.425,5.282 10.357,5.278 10.289,5.27 10.218,5.256 10.146,5.238 
	10.073,5.215 9.998,5.188 9.921,5.155 9.844,5.117 9.766,5.075 9.485,5.236 9.563,5.28 9.64,5.317 9.717,5.351 9.792,5.378 
	9.865,5.401 9.937,5.418 10.008,5.433 10.077,5.44 10.145,5.444 10.21,5.443 10.273,5.438 10.335,5.428 10.396,5.414 10.452,5.394 
	10.508,5.371 "/>
<path fill-rule="evenodd" clip-rule="evenodd" fill="#E6EAEB" d="M9.57,5.187c-0.419-0.242-0.8-0.659-1.075-1.135
	C8.22,3.573,8.05,3.037,8.05,2.551c0-0.485,0.17-0.826,0.445-0.985C8.77,1.408,9.151,1.431,9.57,1.673
	c0.42,0.242,0.801,0.659,1.077,1.135c0.274,0.477,0.446,1.015,0.446,1.5c0,0.485-0.172,0.826-0.446,0.985
	C10.372,5.453,9.991,5.43,9.57,5.187z"/>
<path fill-rule="evenodd" clip-rule="evenodd" fill="#FAC13C" d="M9.485,1.426c0.981,0.567,1.778,1.947,1.778,3.081
	c0,1.135-0.797,1.594-1.778,1.027c-0.982-0.566-1.78-1.946-1.78-3.08C7.706,1.319,8.503,0.858,9.485,1.426L9.485,1.426z
	 M9.485,5.236c0.419,0.242,0.8,0.266,1.074,0.106c0.275-0.158,0.447-0.499,0.447-0.985s-0.172-1.022-0.447-1.5
	c-0.274-0.476-0.655-0.893-1.074-1.135C9.064,1.48,8.684,1.457,8.408,1.617c-0.275,0.158-0.445,0.5-0.445,0.985
	c0,0.485,0.17,1.023,0.445,1.499C8.684,4.578,9.064,4.994,9.485,5.236z"/>
<path fill-rule="evenodd" clip-rule="evenodd" fill="#9C9C9C" d="M9.559,2.597L9.64,2.55v0.664c0.229,0.133,0.446,0.263,0.61,0.475
	l0.029,0.044l0.029,0.048l0.027,0.047l0.023,0.051c0.091,0.233,0.114,0.569,0.022,0.805l-0.017,0.033l-0.021,0.028L10.32,4.771
	l-0.024,0.021l-0.027,0.016l-0.082,0.047l0.027-0.017l0.024-0.02l0.022-0.024l0.019-0.028l0.017-0.034l0.016-0.039
	c0.075-0.255,0.052-0.576-0.06-0.816c-0.146-0.269-0.315-0.381-0.568-0.539L9.623,3.299L9.559,3.262V2.597L9.559,2.597z
	 M9.133,2.878C9.207,2.954,9.271,3,9.361,3.056l0.05,0.027L9.329,3.13C9.206,3.063,9.117,3.002,9.025,2.895L9.001,2.861
	c-0.059-0.103-0.133-0.39-0.023-0.486l0.011-0.008L9.071,2.32L9.059,2.328l-0.01,0.009L9.039,2.35L9.03,2.365
	C8.965,2.531,9.023,2.748,9.133,2.878L9.133,2.878z M9.98,4.392L9.957,4.398L9.93,4.399L9.901,4.397L9.869,4.391L9.835,4.38
	C9.764,4.354,9.707,4.323,9.64,4.289V3.565L9.559,3.612v0.724L9.63,4.373l0.043,0.022c0.053,0.024,0.09,0.039,0.146,0.049
	l0.029,0.003l0.026-0.002L9.898,4.44L9.918,4.43l0.083-0.046L9.98,4.392L9.98,4.392z M10.377,3.151
	c-0.019-0.195-0.046-0.32-0.147-0.49l-0.027-0.042l-0.03-0.041l-0.032-0.037C10.013,2.411,9.861,2.315,9.708,2.22L9.64,2.181V1.954
	L9.411,1.832L9.329,1.879l0.23,0.123v0.226l0.068,0.041l0.063,0.038c0.167,0.107,0.31,0.2,0.432,0.36
	c0.121,0.179,0.154,0.318,0.175,0.531l0.003,0.071l0.002,0.075l0.082-0.047l-0.001-0.075L10.377,3.151L10.377,3.151z M9.291,1.998
	L9.35,2.025l0.061,0.033L9.329,2.105l-0.06-0.032C9.133,2.007,8.989,1.939,8.837,1.928L8.802,1.929L8.767,1.935l-0.031,0.01
	L8.708,1.959l0.082-0.047l0.029-0.015l0.032-0.01C9.002,1.862,9.157,1.936,9.291,1.998L9.291,1.998z M9.274,4.082L9.304,4.1
	l0.033,0.02l0.035,0.023l0.039,0.022L9.329,4.212L9.29,4.189C8.995,4.008,8.91,3.952,8.899,3.581V3.542L8.535,3.348l0.082-0.046
	L8.98,3.495l0.001,0.039l0.001,0.038C8.997,3.846,9.047,3.937,9.274,4.082L9.274,4.082z M9.559,4.699v0.256L9.64,4.908V4.652
	L9.559,4.699z"/>
<path fill-rule="evenodd" clip-rule="evenodd" fill="#BDBDBD" d="M9.559,2.597v0.665c0.175,0.101,0.317,0.195,0.428,0.284
	c0.109,0.088,0.199,0.199,0.267,0.33c0.066,0.132,0.101,0.291,0.101,0.478c0,0.191-0.024,0.328-0.074,0.411
	c-0.048,0.082-0.125,0.119-0.229,0.111C9.947,4.868,9.806,4.821,9.63,4.736L9.559,4.699v0.256l-0.23-0.124V4.576
	C9.208,4.511,9.101,4.443,9.004,4.372C8.91,4.299,8.828,4.219,8.758,4.128c-0.07-0.089-0.124-0.193-0.164-0.307
	C8.556,3.706,8.537,3.578,8.537,3.437L8.535,3.348l0.365,0.194c0,0.107,0.008,0.192,0.022,0.257c0.015,0.064,0.04,0.119,0.071,0.164
	c0.034,0.043,0.071,0.081,0.113,0.109c0.042,0.029,0.117,0.077,0.223,0.14V3.489C9.188,3.403,9.076,3.33,8.992,3.27
	C8.91,3.209,8.835,3.139,8.768,3.058C8.701,2.977,8.649,2.881,8.613,2.771c-0.036-0.11-0.055-0.241-0.055-0.392
	c0-0.186,0.033-0.313,0.097-0.379c0.062-0.066,0.15-0.088,0.26-0.063c0.111,0.023,0.248,0.08,0.413,0.167V1.879l0.23,0.123v0.226
	C9.744,2.335,9.885,2.432,9.987,2.52c0.1,0.088,0.178,0.196,0.232,0.326s0.082,0.295,0.082,0.499L9.943,3.153
	c-0.001-0.014-0.002-0.03-0.002-0.049c0-0.119-0.022-0.21-0.067-0.276C9.83,2.763,9.754,2.702,9.649,2.646L9.559,2.597L9.559,2.597z
	 M9.559,3.612v0.724L9.63,4.373C9.75,4.438,9.84,4.46,9.898,4.44c0.059-0.02,0.087-0.098,0.087-0.234
	c0-0.107-0.016-0.194-0.049-0.262C9.904,3.877,9.86,3.823,9.809,3.782C9.756,3.74,9.673,3.684,9.559,3.612L9.559,3.612z
	 M9.329,2.475l-0.056-0.03c-0.08-0.043-0.146-0.07-0.192-0.083C9.033,2.349,8.994,2.356,8.966,2.384
	c-0.028,0.029-0.042,0.09-0.042,0.183c0,0.134,0.034,0.242,0.101,0.328C9.092,2.98,9.193,3.058,9.329,3.13V2.475z"/>
</svg>
