<svg width="352" height="352" xmlns="http://www.w3.org/2000/svg" xmlns:xlink="http://www.w3.org/1999/xlink">

 <style>@-webkit-keyframes animRoket1{
		0%{
			-webkit-transform: translateY(0%);
			        transform: translateY(0%);
		}
		100%{
			-webkit-transform: translateY(-4%);
			        transform: translateY(-4%);
		}
	}
	@keyframes animRoket1{
		0%{
			-webkit-transform: translateY(0%);
			        transform: translateY(0%);
		}
		100%{
			-webkit-transform: translateY(-4%);
			        transform: translateY(-4%);
		}
	}
	@-webkit-keyframes animRoket2{
		0%{
			-webkit-transform: scaleX(1);
			        transform: scaleX(1);
		}
		50%{
			-webkit-transform: scaleX(-1);
			        transform: scaleX(-1);
		}
	}
	@keyframes animRoket2{
		0%{
			-webkit-transform: scaleX(1);
			        transform: scaleX(1);
		}
		50%{
			-webkit-transform: scaleX(-1);
			        transform: scaleX(-1);
		}
	}
	@-webkit-keyframes animRoket4{
		0%{
			-webkit-transform: scale(1);
			        transform: scale(1);
		}
		100%{
			-webkit-transform: scale(0.8);
			        transform: scale(0.8);
		}
	}
	@keyframes animRoket4{
		0%{
			-webkit-transform: scale(1);
			        transform: scale(1);
		}
		100%{
			-webkit-transform: scale(0.8);
			        transform: scale(0.8);
		}
	}
	
	#gRoket{
		-webkit-animation: animRoket1 2.1s infinite alternate linear -1.1s;
		        animation: animRoket1 2.1s infinite alternate linear -1.1s;
	}
	#gRoketTini{
		-webkit-transform-origin: center;
		    -ms-transform-origin: center;
		        transform-origin: center;
		-webkit-animation: animRoket4 2.1s infinite alternate linear -1.1s;
		        animation: animRoket4 2.1s infinite alternate linear -1.1s;
	}
	#roketFire{
		-webkit-transform-origin: 172px 156px;
		    -ms-transform-origin: 172px 156px;
		        transform-origin: 172px 156px;
		-webkit-animation: animRoket2 0.5s infinite alternate linear -1.1s;
		        animation: animRoket2 0.5s infinite alternate linear -1.1s;
	}</style>
 <g>
  <title>Layer 1</title>
  <g id="svg_28">
   <g id="svg_29">
    <g id="svg_30">
     <g id="svg_31">
      <path id="svg_32" d="m432.44603,219.65397l-26.2,15.2c-3.1,1.8 -8.6,1.6 -12.2,-0.5l-23.8,-13.7c-3.6,-2.1 -4,-5.2 -0.9,-7l26.2,-15.2c3.1,-1.8 8.6,-1.6 12.2,0.5l23.8,13.7c3.7,2.1 4.1,5.2 0.9,7z" fill="#FFFFFF"/>
      <path id="svg_33" d="m432.44603,219.15397l-26.2,15.2c-3.1,1.8 -8.6,1.6 -12.2,-0.5l-23.8,-13.7c-3.6,-2.1 -4,-5.2 -0.9,-7l26.2,-15.2c3.1,-1.8 8.6,-1.6 12.2,0.5l23.8,13.7c3.7,2.1 4.1,5.2 0.9,7z" fill="#FDFDFF"/>
      <path id="svg_34" d="m432.44603,218.75397l-26.2,15.2c-3.1,1.8 -8.6,1.6 -12.2,-0.5l-23.8,-13.7c-3.6,-2.1 -4,-5.2 -0.9,-7l26.2,-15.2c3.1,-1.8 8.6,-1.6 12.2,0.5l23.8,13.7c3.7,2 4.1,5.2 0.9,7z" fill="#FAFCFF"/>
      <path id="svg_35" d="m432.44603,218.25397l-26.2,15.2c-3.1,1.8 -8.6,1.6 -12.2,-0.5l-23.8,-13.7c-3.6,-2.1 -4,-5.2 -0.9,-7l26.2,-15.2c3.1,-1.8 8.6,-1.6 12.2,0.5l23.8,13.7c3.7,2 4.1,5.2 0.9,7z" fill="#F8FAFF"/>
      <path id="svg_36" d="m432.44603,217.75397l-26.2,15.2c-3.1,1.8 -8.6,1.6 -12.2,-0.5l-23.8,-13.7c-3.6,-2.1 -4,-5.2 -0.9,-7l26.2,-15.2c3.1,-1.8 8.6,-1.6 12.2,0.5l23.8,13.7c3.7,2 4.1,5.2 0.9,7z" fill="#F5F9FF"/>
      <path id="svg_37" d="m432.44603,217.25397l-26.2,15.2c-3.1,1.8 -8.6,1.6 -12.2,-0.5l-23.8,-13.7c-3.6,-2.1 -4,-5.2 -0.9,-7l26.2,-15.2c3.1,-1.8 8.6,-1.6 12.2,0.5l23.8,13.7c3.7,2 4.1,5.2 0.9,7z" fill="#F3F7FF"/>
      <path id="svg_38" d="m432.44603,216.75397l-26.2,15.2c-3.1,1.8 -8.6,1.6 -12.2,-0.5l-23.8,-13.7c-3.6,-2.1 -4,-5.2 -0.9,-7l26.2,-15.2c3.1,-1.8 8.6,-1.6 12.2,0.5l23.8,13.7c3.7,2.1 4.1,5.2 0.9,7z" fill="#F0F5FF"/>
      <path id="svg_39" d="m432.44603,216.25397l-26.2,15.2c-3.1,1.8 -8.6,1.6 -12.2,-0.5l-23.8,-13.7c-3.6,-2.1 -4,-5.2 -0.9,-7l26.2,-15.2c3.1,-1.8 8.6,-1.6 12.2,0.5l23.8,13.7c3.7,2.1 4.1,5.2 0.9,7z" fill="#EEF4FF"/>
      <path id="svg_40" d="m432.44603,215.75397l-26.2,15.2c-3.1,1.8 -8.6,1.6 -12.2,-0.5l-23.8,-13.7c-3.6,-2.1 -4,-5.2 -0.9,-7l26.2,-15.2c3.1,-1.8 8.6,-1.6 12.2,0.5l23.8,13.7c3.7,2.1 4.1,5.2 0.9,7z" fill="#ECF2FF"/>
      <path id="svg_41" d="m432.44603,215.25397l-26.2,15.2c-3.1,1.8 -8.6,1.6 -12.2,-0.5l-23.8,-13.7c-3.6,-2.1 -4,-5.2 -0.9,-7l26.2,-15.2c3.1,-1.8 8.6,-1.6 12.2,0.5l23.8,13.7c3.7,2.1 4.1,5.2 0.9,7z" fill="#E9F0FF"/>
      <path id="svg_42" d="m432.44603,214.85397l-26.2,15.2c-3.1,1.8 -8.6,1.6 -12.2,-0.5l-23.8,-13.7c-3.6,-2.1 -4,-5.2 -0.9,-7l26.2,-15.2c3.1,-1.8 8.6,-1.6 12.2,0.5l23.8,13.7c3.7,2 4.1,5.2 0.9,7z" fill="#E7EFFF"/>
      <path id="svg_43" d="m432.44603,214.35397l-26.2,15.2c-3.1,1.8 -8.6,1.6 -12.2,-0.5l-23.8,-13.8c-3.6,-2.1 -4,-5.2 -0.9,-7l26.2,-15.2c3.1,-1.8 8.6,-1.6 12.2,0.5l23.8,13.7c3.7,2.1 4.1,5.3 0.9,7.1z" fill="#E4EDFF"/>
      <path id="svg_44" d="m432.44603,213.85397l-26.2,15.2c-3.1,1.8 -8.6,1.6 -12.2,-0.5l-23.8,-13.7c-3.6,-2.1 -4,-5.2 -0.9,-7l26.2,-15.2c3.1,-1.8 8.6,-1.6 12.2,0.5l23.8,13.7c3.7,2 4.1,5.2 0.9,7z" fill="#E2ECFF"/>
      <path id="svg_45" d="m432.44603,213.35397l-26.2,15.2c-3.1,1.8 -8.6,1.6 -12.2,-0.5l-23.8,-13.8c-3.6,-2.1 -4,-5.2 -0.9,-7l26.2,-15.2c3.1,-1.8 8.6,-1.6 12.2,0.5l23.8,13.7c3.7,2.1 4.1,5.3 0.9,7.1z" fill="#DFEAFF"/>
      <path id="svg_46" d="m432.44603,212.85397l-26.2,15.2c-3.1,1.8 -8.6,1.6 -12.2,-0.5l-23.8,-13.7c-3.6,-2.1 -4,-5.2 -0.9,-7l26.2,-15.2c3.1,-1.8 8.6,-1.6 12.2,0.5l23.8,13.7c3.7,2.1 4.1,5.2 0.9,7z" fill="#DDE8FF"/>
      <path id="svg_47" d="m432.44603,212.35397l-26.2,15.2c-3.1,1.8 -8.6,1.6 -12.2,-0.5l-23.8,-13.8c-3.6,-2.1 -4,-5.2 -0.9,-7l26.2,-15.2c3.1,-1.8 8.6,-1.6 12.2,0.5l23.8,13.7c3.7,2.2 4.1,5.3 0.9,7.1z" fill="#DBE7FF"/>
      <path id="svg_48" d="m432.44603,211.85397l-26.2,15.2c-3.1,1.8 -8.6,1.6 -12.2,-0.5l-23.8,-13.7c-3.6,-2.1 -4,-5.2 -0.9,-7l26.2,-15.2c3.1,-1.8 8.6,-1.6 12.2,0.5l23.8,13.7c3.7,2.1 4.1,5.2 0.9,7z" fill="#D8E5FF"/>
      <path id="svg_49" d="m432.44603,211.35397l-26.2,15.2c-3.1,1.8 -8.6,1.6 -12.2,-0.5l-23.8,-13.8c-3.6,-2.1 -4,-5.2 -0.9,-7l26.2,-15.2c3.1,-1.8 8.6,-1.6 12.2,0.5l23.8,13.7c3.7,2.2 4.1,5.3 0.9,7.1z" fill="#D6E3FF"/>
      <path id="svg_50" d="m432.44603,210.95397l-26.2,15.2c-3.1,1.8 -8.6,1.6 -12.2,-0.5l-23.8,-13.7c-3.6,-2.1 -4,-5.2 -0.9,-7l26.2,-15.2c3.1,-1.8 8.6,-1.6 12.2,0.5l23.8,13.7c3.7,2 4.1,5.1 0.9,7z" fill="#D3E2FF"/>
      <path id="svg_51" d="m432.44603,210.45397l-26.2,15.2c-3.1,1.8 -8.6,1.6 -12.2,-0.5l-23.8,-13.7c-3.6,-2.1 -4,-5.2 -0.9,-7l26.2,-15.2c3.1,-1.8 8.6,-1.6 12.2,0.5l23.8,13.7c3.7,2 4.1,5.2 0.9,7z" fill="#D1E0FF"/>
      <path id="svg_52" d="m432.44603,209.95397l-26.2,15.2c-3.1,1.8 -8.6,1.6 -12.2,-0.5l-23.8,-13.7c-3.6,-2.1 -4,-5.2 -0.9,-7l26.2,-15.2c3.1,-1.8 8.6,-1.6 12.2,0.5l23.8,13.7c3.7,2 4.1,5.2 0.9,7z" fill="#CEDFFF"/>
      <path id="svg_53" d="m432.44603,209.45397l-26.2,15.2c-3.1,1.8 -8.6,1.6 -12.2,-0.5l-23.8,-13.7c-3.6,-2.1 -4,-5.2 -0.9,-7l26.2,-15.2c3.1,-1.8 8.6,-1.6 12.2,0.5l23.8,13.7c3.7,2 4.1,5.2 0.9,7z" fill="#CCDDFF"/>
     </g>
     <path id="svg_54" d="m432.44603,209.45397l-26.2,15.2c-3.1,1.8 -8.6,1.6 -12.2,-0.5l-23.8,-13.7c-3.6,-2.1 -4,-5.2 -0.9,-7l26.2,-15.2c3.1,-1.8 8.6,-1.6 12.2,0.5l23.8,13.7c3.7,2 4.1,5.2 0.9,7z" fill="#FF3900"/>
    </g>
   </g>
   <g id="svg_55">
    <g id="svg_56">
     <g id="svg_57">
      <defs>
       <polygon points="248.2,251.9 247.4,223.5 289.7,222.4 290.5,250.8       " id="SVGID_1_"/>
       <radialGradient gradientUnits="userSpaceOnUse" gradientTransform="matrix(1 0 0 0.5172 0 -3870.0188)" r="54.5874" cy="7811.769" cx="172.8069" id="gRoketTini_1_">
        <stop stop-color="#5A5A5A" offset="0"/>
        <stop stop-color="#885141" stop-opacity="0.7021" offset="0.2979"/>
        <stop stop-color="#FA3A03" stop-opacity="0.02899" offset="0.971"/>
        <stop stop-color="#FF3900" stop-opacity="0" offset="1"/>
       </radialGradient>
      </defs>
      <clipPath id="SVGID_2_">
       <use x="131.74603" y="-31.74603" id="svg_58" xlink:href="#SVGID_1_"/>
      </clipPath>
      <g id="svg_59" clip-path="url(#SVGID_2_)">
       <g id="svg_60">
        <g id="svg_61">
         <g id="svg_62">
          <g id="svg_63">
           <defs>
            <polyline points="268.9,251.4 247.9,239.8 269,223 290,234.5 268.9,251.4            " id="SVGID_3_"/>
           </defs>
           <clipPath id="SVGID_4_">
            <use x="131.74603" y="-31.74603" id="svg_64" xlink:href="#SVGID_3_"/>
           </clipPath>
           <path id="svg_65" d="m406.04603,195.75397c-0.7,0 -1.5,0.1 -2.2,0.3l9.6,6.3c0.9,-1.8 0.2,-3.8 -1.9,-5.1c0,0 0,0 0,0l-0.9,-0.5c-1.3,-0.7 -3,-1 -4.6,-1m-12.7,17l-4.8,-3.1l10.6,-7.2l0.4,-2.9l8.7,5.7l-4.3,0.3l-10.6,7.2m3.3,-18.3l0,0l-1.1,7.1l-9.5,6.4l-0.2,0.1c-1.1,0.9 -1,2.2 0.2,3l4.8,3.1l0.5,0.3c0.6,0.3 1.3,0.4 2,0.4c0.8,0 1.6,-0.2 2.3,-0.7l1.2,-0.8l4.8,3.1c0.3,0.2 0.8,0.3 1.2,0.3c0.4,0 0.8,-0.1 1.1,-0.3l2.4,-1.6l0.1,-0.1l0,0c0.5,-0.4 0.5,-1.1 -0.1,-1.5l-4.8,-3.1l3.6,-2.4l10.7,-0.8l-19.2,-12.5" fill="#FFFFFF" clip-path="url(#SVGID_4_)"/>
          </g>
         </g>
        </g>
       </g>
      </g>
     </g>
    </g>
   </g>
  </g>
  <path d="m134.6,147.8c21,-12.1 55.4,-12.1 76.5,0c21,12.1 21,32 0,44.1c-21,12.1 -55.4,12.1 -76.5,0c-21,-12.1 -21,-32 0,-44.1z" fill="url(#gRoketTini_1_)" id="gRoketTini"/>
  <g id="gRoket">
   <g id="svg_104">
    <g id="svg_105">
     <path id="svg_106" d="m204.7,116c0,0 -0.1,0 -0.1,0c0,0 0,0 0,0c0,0 -0.1,0 -0.1,0c-0.7,0.4 -1.5,3.7 -1.5,3.8l-0.5,3.8l-0.8,5.9l-0.7,4.5l2.1,-0.4l2.5,-14.1c-0.3,-2.3 -0.6,-3.3 -0.9,-3.5z" fill="#666666"/>
     <path id="svg_107" d="m198.7,121.6l0,0l0.5,-3.8l0,0c0.1,0 0.8,-3.4 1.5,-3.8c0.1,0 0.2,-0.1 0.2,0l3.6,2.1c0,0 0,0 0,0c0,0 -0.1,0 -0.1,0c0,0 0,0 0,0c0,0 -0.1,0 -0.1,0c-0.7,0.4 -1.5,3.7 -1.5,3.8l0,0l-2,14.2l-3.6,-2.1l1.5,-10.4z" fill="#999999"/>
     <polygon id="svg_108" points="202.4,123.7 187.9,116.9 187,116.5 185,134.4 185.6,134.2 197.4,130.8 201.5,129.6     " fill="#B3B3B3"/>
    </g>
    <path d="m166,144.2c-2.5,1.5 -7.8,7.9 -7.8,13.3c0,5.4 4.2,6 4.2,11.9c0,0 2.3,-3.6 1,-7.7c0,0 3.4,2.5 3.4,8.8c0,6.3 4.8,10.4 7.7,11.8c0,0 -5.1,-4.3 0.4,-11.5c3.9,-5.1 7.9,-6.9 7.2,-14.2c0,0 2.8,5.5 0.7,9.3c0,0 5.9,-6.6 1.5,-16s-13.5,-8.6 -18.3,-5.7z" fill="#FFE600" id="roketFire"/>
    <path id="svg_109" d="m168.2,128.8c1.7,-0.3 3.6,-0.7 5.7,-1.4c0.7,-0.2 1.4,-0.5 2.2,-0.7c2.9,-1.1 6.2,-2.6 9.5,-4.7c1.1,-0.7 3.1,3.2 3.1,3.2c0,9.7 -5,19.3 -5.1,19.7c0,2.2 -4.8,4 -10.8,4c-6,0 -10.8,-1.8 -10.8,-4c0,0 -5,-11.1 -5,-19.3c-0.1,0 8.9,3.6 11.2,3.2z" fill="#303030"/>
    <path id="svg_110" d="m165,64.1c0,0 15.7,-0.1 16.1,-0.4c4.5,12.4 9.8,32.7 7.9,56l-0.3,5.3c0,3.3 -7.1,6 -15.9,6c-8.8,0 -15.9,-2.7 -15.9,-6c-2.4,-22.5 1.8,-44.8 8.1,-60.9z" fill="#E6E6E6"/>
    <g id="svg_111">
     <path id="svg_112" d="m177.6,82.6c-1.6,3.5 -1.1,8.9 1.1,12c2.2,3.1 5.3,2.8 7,-0.7c1.6,-3.5 1.1,-8.9 -1.1,-12c-2.3,-3.1 -5.4,-2.8 -7,0.7zm4.8,-0.3l0,0c0.1,0 0.1,0.1 0.2,0.1c0.1,0 0.1,0.1 0.2,0.1c0.1,0 0.1,0.1 0.2,0.2c0,0 0.1,0.1 0.2,0.1c0.2,0.2 0.4,0.5 0.6,0.7c0.3,0.4 0.6,0.9 0.8,1.5c0.2,0.5 0.4,1.1 0.5,1.7c0.1,0.6 0.2,1.2 0.2,1.8c0.1,1.4 -0.2,2.8 -0.7,3.9c-0.2,0.4 -0.5,0.8 -0.7,1.1c0,0 0,0.1 -0.1,0.1c0,0 0,0 0,0c-0.6,0.6 -1.2,0.9 -1.9,0.8c-0.2,0 -0.5,-0.1 -0.7,-0.2c-0.6,-0.2 -1.2,-0.7 -1.7,-1.4l0,0l0,0c-0.2,-0.3 -0.4,-0.6 -0.6,-0.9c-0.2,-0.3 -0.3,-0.7 -0.4,-1.1c-0.1,-0.4 -0.2,-0.7 -0.3,-1.1c-0.1,-0.4 -0.1,-0.8 -0.2,-1.2c-0.1,-1.6 0.1,-3.2 0.6,-4.5c0.5,-1.1 1.3,-1.8 2,-2c0,0 0,0 0,0c0.1,0 0.1,0 0.2,0c0.1,0 0.1,0 0.2,0c0.1,0 0.1,0 0.2,0c0.1,0 0.1,0 0.2,0c0.1,0 0.1,0 0.2,0c0.1,0 0.1,0 0.2,0c0.2,0.1 0.4,0.2 0.6,0.3z" fill="#FF3900"/>
     <path id="svg_113" d="m179.7,102.7c-2,3.3 -2.1,8.7 -0.3,12c1.9,3.4 5,3.4 7,0.1c2,-3.3 2.1,-8.7 0.3,-12.1c-1.8,-3.3 -5,-3.3 -7,0zm4.9,0.3l0,0c0.1,0 0.1,0.1 0.2,0.1c0,0 0.1,0.1 0.1,0.1c0.1,0.1 0.1,0.1 0.2,0.2c0,0 0.1,0.1 0.1,0.1c0.2,0.2 0.4,0.5 0.6,0.8c0.3,0.5 0.5,1 0.6,1.5c0.2,0.6 0.3,1.1 0.3,1.7c0.1,0.6 0.1,1.2 0,1.8c-0.1,1.4 -0.5,2.8 -1.1,3.8c-0.3,0.4 -0.5,0.8 -0.8,1c0,0 0,0.1 -0.1,0.1c0,0 0,0 0,0c-0.6,0.5 -1.3,0.7 -2,0.6c-0.2,0 -0.5,-0.1 -0.7,-0.2c-0.6,-0.3 -1.1,-0.8 -1.5,-1.6l0,0l0,0c-0.2,-0.3 -0.3,-0.6 -0.4,-1c-0.1,-0.3 -0.2,-0.7 -0.3,-1.1c-0.1,-0.4 -0.1,-0.8 -0.2,-1.2c0,-0.4 0,-0.8 0,-1.2c0,-1.6 0.4,-3.2 1.2,-4.4c0.6,-1.1 1.4,-1.6 2.3,-1.8c0,0 0,0 0,0c0.1,0 0.1,0 0.2,0c0.1,0 0.1,0 0.2,0c0.1,0 0.1,0 0.2,0c0.1,0 0.1,0 0.2,0c0.1,0 0.1,0 0.2,0c0.1,0 0.1,0 0.2,0c-0.2,0.4 0.1,0.5 0.3,0.7z" fill="#FF3900"/>
    </g>
    <g id="svg_114">
     <path id="svg_115" d="m181.7,82.1c-0.1,0 -0.1,0 -0.2,0c-0.1,0 -0.1,0 -0.2,0c-0.1,0 -0.1,0 -0.2,0c-0.1,0 -0.1,0 -0.2,0c-0.1,0 -0.1,0 -0.2,0c-0.1,0 -0.1,0 -0.2,0c0,0 0,0 0,0c-0.8,0.2 -1.5,0.9 -2,2c-0.6,1.3 -0.8,2.9 -0.6,4.5c0,0.4 0.1,0.8 0.2,1.2c0.1,0.4 0.2,0.8 0.3,1.1c0.1,0.4 0.3,0.7 0.4,1.1c0.2,0.3 0.3,0.6 0.6,0.9l0,0c0.5,0.7 1.1,1.2 1.7,1.4c0.2,0.1 0.5,0.1 0.7,0.2c0.7,0 1.4,-0.2 1.9,-0.8c0,0 0,0 0,0c0,0 0,-0.1 0.1,-0.1c0.3,-0.3 0.5,-0.7 0.7,-1.1c0.5,-1.1 0.7,-2.5 0.7,-3.9c0,-0.6 -0.1,-1.2 -0.2,-1.8c-0.1,-0.6 -0.3,-1.1 -0.5,-1.7c-0.2,-0.5 -0.5,-1 -0.8,-1.5c-0.2,-0.3 -0.4,-0.5 -0.6,-0.7c0,0 -0.1,-0.1 -0.2,-0.1c-0.1,-0.1 -0.1,-0.1 -0.2,-0.2c-0.1,0 -0.1,-0.1 -0.2,-0.1c-0.1,0 -0.1,-0.1 -0.2,-0.1l0,0c-0.1,-0.2 -0.3,-0.3 -0.6,-0.3z" fill="#FFFFFF"/>
     <path id="svg_116" d="m183.9,102.6c-0.1,0 -0.1,0 -0.2,0c-0.1,0 -0.1,0 -0.2,0c-0.1,0 -0.1,0 -0.2,0c-0.1,0 -0.1,0 -0.2,0c-0.1,0 -0.1,0 -0.2,0c-0.1,0 -0.1,0 -0.2,0c0,0 0,0 0,0c-0.8,0.1 -1.6,0.7 -2.3,1.8c-0.7,1.2 -1.1,2.8 -1.2,4.4c0,0.4 0,0.8 0,1.2c0,0.4 0.1,0.8 0.2,1.2c0.1,0.4 0.2,0.7 0.3,1.1c0.1,0.4 0.3,0.7 0.4,1l0,0c0.4,0.8 0.9,1.3 1.5,1.6c0.2,0.1 0.5,0.2 0.7,0.2c0.7,0.1 1.4,-0.1 2,-0.6c0,0 0,0 0,0c0,0 0,0 0.1,-0.1c0.3,-0.3 0.6,-0.6 0.8,-1c0.6,-1.1 1,-2.4 1.1,-3.8c0,-0.6 0,-1.2 0,-1.8c-0.1,-0.6 -0.2,-1.2 -0.3,-1.7c-0.2,-0.6 -0.4,-1.1 -0.6,-1.5c-0.2,-0.3 -0.4,-0.6 -0.6,-0.8c0,-0.1 -0.1,-0.1 -0.1,-0.1c-0.1,-0.1 -0.1,-0.1 -0.2,-0.2c0,0 -0.1,-0.1 -0.1,-0.1c-0.1,-0.1 -0.1,-0.1 -0.2,-0.2l0,0c0.2,-0.4 -0.1,-0.5 -0.3,-0.6z" fill="#FFFFFF"/>
    </g>
    <path id="svg_117" d="m172.8,49.7c0,0 5.4,6 8.3,14c-7.6,3.4 -16.1,0.4 -16.1,0.4c1.6,-5.7 7.8,-14.4 7.8,-14.4z" fill="#303030"/>
    <g id="svg_118">
     <path id="svg_119" d="m146.5,149.8l0,0c0.6,0.3 1.1,2 1.2,2.1l0.6,3.2l14.4,-23.6l-3.6,-2.1l-12.6,20.4l0,0c0,0 0,0 0,0z" fill="#999999"/>
     <path id="svg_120" d="m147.6,151.8c0,-0.1 -0.6,-1.7 -1.2,-2.1c0,0 0,0 0,0c0,0 -0.1,0 -0.1,0c0,0 0,0 0,0c-0.1,0 -0.1,0 -0.2,0c-0.4,0.2 -0.8,1.5 -1,4.7l2.5,11.2l2.1,-2l-0.7,-3.8l-0.9,-4.9l-0.5,-3.1z" fill="#666666"/>
     <path id="svg_121" d="m142.4,147.6c0.1,-0.1 0.3,-0.1 0.4,0l3.6,2.1l0,0c0,0 0,0 0,0c0,0 0,0 0,0c0,0 -0.1,0 -0.1,0c0,0 0,0 0,0c-0.1,0 -0.1,0 -0.2,0c-0.4,0.2 -0.8,1.5 -1,4.7l2.5,11.2l-3.6,-2.1l-2.5,-11.2c0.1,-3.2 0.5,-4.4 0.9,-4.7z" fill="#999999"/>
     <polygon id="svg_122" points="165.6,145.6 162.6,131.4 148.2,155 149.1,159.9     " fill="#B3B3B3"/>
    </g>
   </g>
  </g>
 </g>
</svg>