<?xml version="1.0" encoding="utf-8"?>
<!-- Generator: Adobe Illustrator 15.1.0, SVG Export Plug-In . SVG Version: 6.00 Build 0)  -->
<!DOCTYPE svg PUBLIC "-//W3C//DTD SVG 1.1//EN" "http://www.w3.org/Graphics/SVG/1.1/DTD/svg11.dtd">
<svg version="1.1" id="_x23_Layer_1" xmlns="http://www.w3.org/2000/svg" xmlns:xlink="http://www.w3.org/1999/xlink" x="0px"
	 y="0px" width="337.328px" height="380.976px" viewBox="0 0 337.328 380.976" enable-background="new 0 0 337.328 380.976"
	 xml:space="preserve">
<path fill-rule="evenodd" clip-rule="evenodd" fill="#91877D" stroke="#000000" stroke-width="1.0001" stroke-linecap="round" stroke-miterlimit="2.6131" d="
	M154.239,40.286c-5.194,0.236-9.917,2.243-12.042,3.306s-3.778,2.125-6.965,5.667c-3.188,3.542-5.549,5.667-5.549,6.493
	s-0.59-4.958-1.653-5.667c-1.063-0.708-1.299-0.118-2.007-0.473c-0.708-0.354-0.708-4.25-2.833-8.028
	c-2.125-3.777-7.083-10.625-9.208-13.813c-2.125-3.188-6.729-10.744-11.452-15.112c-4.723-4.368-9.209-8.264-11.57-9.917
	C88.599,1.091,85.529,0.5,84.349,0.5s-2.007,0.827-0.591,1.417c1.417,0.59,4.841,2.125,6.612,4.014
	c1.771,1.889,6.847,7.319,8.854,10.861c2.007,3.542,5.313,6.847,7.438,13.813c2.125,6.965,3.778,9.917,4.84,13.577
	s2.361,7.319,2.007,7.91c-0.354,0.591-2.833,2.125-2.125,5.195s1.417,8.028,2.598,9.327s1.299,3.542,1.063,6.257
	s-0.236,5.313-0.236,5.313s-2.361-0.236-3.542-1.653c-1.181-1.417-8.5-5.785-12.042-7.91c-3.542-2.125-9.09-3.778-12.042-4.959
	c-2.952-1.181-10.98-4.25-13.223-4.722c-2.243-0.473-9.917-0.827-12.75,0.118c-2.833,0.944-4.368,2.715-4.368,2.715
	s3.424,2.479,4.604,3.542c1.18,1.063,5.313,3.188,6.375,4.369c1.063,1.18,1.889,2.361,1.889,2.361l-1.771,3.306
	c0,0,1.298,0.708,5.549,1.771c4.25,1.063,9.798,3.069,11.097,5.313s2.715,6.375,3.896,6.729s2.361-0.236,2.598,0.944
	c0.236,1.181,0.826,3.66,1.771,4.486c0.944,0.827,2.125,1.417,3.306,3.306s1.653,2.952,2.952,4.132
	c1.298,1.181,3.542,0.945,5.549,2.243c2.007,1.299,2.951,1.653,4.604,1.417c1.653-0.236,5.431-1.653,5.431-1.653
	s-1.535,5.076-1.771,6.493c-0.236,1.417-0.709,2.598-1.771,8.619c-1.063,6.021-2.007,15.229-2.243,17
	c-0.236,1.771-2.007,3.188-4.368,5.076c-2.361,1.889-5.077,3.188-8.5,10.39c-3.423,7.201-4.25,10.507-4.486,15.819
	c-0.236,5.313-1.652,11.216-0.944,14.285c0.708,3.07,1.535,5.313,1.063,6.139c-0.472,0.827-0.944,2.007-2.479,2.833
	s-5.195,0.708-7.202,1.653c-2.007,0.944-4.84,2.125-6.729,5.077c-1.889,2.951-4.722,8.854-4.722,8.854s-4.014-0.354-4.722-0.709
	c-0.708-0.354-11.452-7.674-13.459-8.382c-2.007-0.708-4.368,0.473-7.083-0.118c-2.715-0.59-11.098-2.833-14.167-0.826
	c-3.069,2.007-7.201,5.194-8.736,7.91c-1.535,2.715-2.007,5.313-3.07,6.611c-1.063,1.298-1.417,0.59-2.361,3.424
	c-0.944,2.833,0,3.305-2.006,4.958c-2.007,1.653-6.375,3.069-7.674,6.966c-1.299,3.896-1.653,4.132-1.299,6.611
	c0.354,2.479,1.299,3.306,0.708,4.25s-2.361,2.007-2.597,4.84c-0.236,2.834-0.827,4.841-1.417,6.611
	c-0.591,1.771-0.236,4.487-0.118,6.14s1.062,2.598,0.118,4.132c-0.945,1.535-2.361,1.889-2.125,3.896
	c0.236,2.008,0.236,2.716,0.827,3.66c0.59,0.944,11.688,2.598,12.869,2.479c1.18-0.118,2.361-0.236,2.597-0.826
	c0.236-0.591,0.944-2.008,0-3.07c-0.945-1.063-0.354-2.479-0.354-2.479s0.472-2.598,0-3.778c-0.473-1.181-1.653-2.951-1.653-2.951
	s1.771-1.417,1.889-3.188c0.118-1.771,0-4.959,0.944-5.903s3.896-1.652,3.896-1.652s-0.354,0.235-0.708,3.069
	c-0.354,2.833,3.542,7.319,4.722,8.028c1.181,0.708,13.459-2.243,13.459-2.243s1.652-0.591,1.535-1.535
	c-0.119-0.944-0.708-2.597-1.417-4.132s-0.827,0.235-1.889-3.306c-1.062-3.542-3.188-8.265-3.188-8.265s2.244-3.777,2.715-4.486
	c0.472-0.708,1.063-3.777,1.889-4.485c0.826-0.709,4.25,0.472,4.958-0.119c0.708-0.59,5.549,6.494,5.903,8.028
	c0.354,1.535,4.486,4.486,7.202,7.674s3.188,5.313,6.848,5.785c3.66,0.472,8.618,1.417,12.16,0.826
	c3.542-0.59,4.958,0.118,6.847-1.889s2.715-4.014,4.722-5.431s4.369-2.951,7.32-6.257c2.952-3.306,4.486-3.896,6.611-4.841
	s2.951-1.889,4.958-0.826c2.007,1.063,5.903,0.59,6.021,2.243c0.118,1.652-0.944,6.021-0.708,8.5
	c0.236,2.479-0.118,2.833,0.708,3.542c0.826,0.708,1.889,0.826,1.063,5.431s-0.826,4.368-0.944,7.674s-0.945,4.132-0.236,7.083
	c0.708,2.952,1.653,6.021,1.889,8.383c0.236,2.361,0,3.305-0.473,5.666c-0.472,2.362-1.771,2.716-1.298,6.14
	s0.708,9.681,0.118,12.515c-0.59,2.833-1.417,5.784-0.354,10.034s3.542,11.807,4.014,15.23s1.181,2.715,1.181,7.319
	s0.472,7.438,0.236,8.5c-0.236,1.063-1.653-0.59-1.298,2.243c0.354,2.833,1.417,5.667,0.944,6.966s-1.181,1.417-2.479,5.313
	c-1.298,3.896-2.479,5.076-3.423,7.792c-0.944,2.715-2.007,2.479-2.833,5.431c-0.827,2.951-0.236,2.833-1.535,4.486
	c-1.299,1.652-2.598,0.944-1.889,2.715c0.708,1.771,1.889,2.952,2.479,3.069c0.59,0.118,2.361-0.708,2.361-0.708
	s-0.354,1.181,1.653,2.007c2.007,0.827,4.014-0.708,4.014-0.708s0.944,0.944,3.069,1.771c2.125,0.827,3.542,0.591,4.014-0.472
	s0.354-2.834,1.181-2.479s1.299,2.361,2.125,2.598c0.827,0.235,3.777,0.944,4.604,0.354c0.827-0.59,1.299-2.361,1.653-1.771
	c0.354,0.59,1.771,0.473,3.424,2.007c1.652,1.535,4.722,1.299,6.257,0.473c1.535-0.827,2.716-1.535,2.952-2.598
	s-0.945-1.299-0.945-4.958c0-3.66-0.708-3.306-1.417-6.021c-0.708-2.716-2.833-5.903-3.778-7.083
	c-0.945-1.181-1.417-0.945-2.479-4.368c-1.062-3.424-1.653-5.432-1.062-7.557c0.59-2.125,0.944-3.541,0.826-4.958
	c-0.118-1.417-1.063-1.771-1.535-4.014c-0.473-2.244-1.771-12.16-1.889-13.223s-1.063-3.425-0.236-5.195
	c0.826-1.771,4.25-7.792,5.076-10.152c0.827-2.361,2.125-0.944,0.944-5.667c-1.18-4.723-3.188-7.556-3.542-11.098
	s-1.299-5.785-0.354-6.848c0.944-1.063,3.305-3.069,3.896-2.715c0.59,0.354,3.778,2.715,5.195,3.777s3.66,3.778,4.723,4.604
	s1.771,0.236,2.243,1.652c0.472,1.417,5.549,13.695,5.549,13.695s1.889-2.243,2.597-4.486c0.709-2.243,1.181-6.729,2.479-8.618
	s4.958-4.014,6.021-5.549c1.063-1.534,1.89-2.715,2.479-2.951c0.591-0.236,2.361-1.89,2.361-1.89l4.015,0.236
	c0,0,0.472,2.479,1.416,3.07c0.944,0.59,2.125-0.591,1.89,1.534c-0.236,2.125,1.298,3.069,0.59,3.896
	c-0.709,0.827-2.598,3.896-3.188,6.376c-0.591,2.479,0.472,5.549,1.771,8.382s4.015,3.777,3.778,8.5s0.59,9.799-0.118,12.396
	c-0.709,2.598-1.89,0.826-2.243,4.25c-0.354,3.424,2.479,3.188,0.826,7.201c-1.652,4.015-4.25,9.445-5.431,11.216
	c-1.181,1.771-0.59,2.007-1.534,3.778c-0.945,1.771-2.243,2.007-2.125,4.958c0.117,2.952-0.118,4.841,1.416,6.375
	c1.535,1.535,4.368,0.354,5.667,0.236c1.299-0.117,3.424-2.715,3.424-2.715c2.782,1.224,1.584,2.104,6.139,1.545
	c3.193-0.393,1.136-5.386,4.574,0.344c0.899,1.499,3.104,0.36,4.044,0.118c0.126-0.361,1.063-1.013,1.063-2.007
	c1.385,1.503,4.543,1.282,5.863-0.385c0.146-0.184,8.068,0.314,4.378-4.102c-0.174-0.208-1.212-0.844-1.505-0.944
	c0-0.009,0.119,0.708-0.354-0.591c-0.473-1.298-0.354-2.361-1.417-4.368s-1.653-1.889-2.479-4.84
	c-0.826-2.952-1.771-6.729-2.715-7.674c-0.944-0.945-1.889-2.716-2.007-4.132c-0.118-1.417-0.118-4.723,0.235-5.667
	c0.354-0.945-0.117-1.299-0.354-2.952c-0.236-1.652-1.063-4.014-0.118-6.965c0.944-2.952,1.534-4.369,1.889-5.785
	c0.354-1.417,1.417-8.854,1.417-8.854s1.417-5.667,1.063-8.618c-0.354-2.952,0.118-6.966-0.473-9.209
	c-0.59-2.243-1.652-4.723-1.771-7.319c-0.118-2.598,0.591-7.438,0.826-9.563c0.236-2.125,0.708-4.369,0.59-6.376
	c-0.117-2.007-1.062-9.326-1.771-12.986c-0.708-3.66-2.007-6.021-1.771-7.083s2.361-3.66,2.361-6.966s-1.889-6.848-0.826-8.973
	s8.735-4.014,11.451-2.715s6.493,2.951,8.382,5.548c1.89,2.598,7.084,4.959,8.146,7.91c1.063,2.952,3.424,6.493,4.959,8.265
	c1.534,1.771,6.375,1.889,8.146,3.069s7.792,1.534,10.035,1.181c2.243-0.354,4.841-2.243,6.611-4.84
	c1.771-2.598,6.611-8.737,7.556-9.918c0.944-1.18,2.243-4.132,3.542-4.132c1.298,0,5.785-1.771,6.611-2.007s2.125-1.653,2.833,0.236
	c0.709,1.889,2.952,10.389,4.959,12.278c2.007,1.889,10.861-2.479,12.868-3.778s3.777-2.951,3.777-2.951s1.181,1.534,2.716,2.951
	s2.243,0.354,2.479,2.125c0.236,1.771,2.243,2.479,2.715,4.604c0.473,2.125,0.709,2.715,2.007,3.778
	c1.299,1.063,4.369,0.708,7.32-0.473s5.431-7.674,5.313-8.854s-1.181-3.778-2.361-4.604s-3.306-1.416-3.896-1.889
	c-0.59-0.473-1.416-1.771-2.951-4.486c-1.534-2.715-2.242-3.66-3.896-5.076c-1.653-1.417-3.188-0.708-3.306-1.653
	c-0.118-0.944,0.236-3.777-1.653-6.257c-1.889-2.479-5.549-3.778-8.264-3.778c-2.716,0-2.597,0.118-5.076-1.889
	s-5.549-4.014-7.792-5.313s-7.438-3.896-9.917-3.778c-2.479,0.118-9.8,3.07-11.452,3.306c-1.652,0.236-4.604,2.243-5.902,1.653
	c-1.299-0.591-2.126-1.299-2.952-1.299s-3.188,0.118-3.188,0.118s0.118,2.951-1.535,3.188c-1.652,0.236-5.431,0.354-5.902-1.181
	c-0.473-1.535-0.472-4.25-1.535-5.902c-1.063-1.653-3.659-6.14-7.319-8.973s-10.743-9.917-12.396-10.389
	c-1.652-0.472,0.236-3.778,0.236-7.556c0-3.777-0.354-12.16-1.181-16.41c-0.826-4.25-1.417-8.028-3.778-11.688
	c-2.36-3.66-3.659-7.438-6.375-9.09c-2.715-1.653-4.722-1.535-5.313-2.952c-0.59-1.417-3.069-10.507-3.424-12.278
	c-0.354-1.771-2.007-10.507-2.479-12.042c-0.473-1.535-1.063-6.021-1.063-6.021s2.834,1.889,4.604,1.535
	c1.771-0.354,4.133-1.771,5.785-2.715c1.652-0.945,3.306-0.708,3.896-1.535c0.591-0.827,1.181-3.424,2.834-5.077
	c1.652-1.653,4.25-3.305,4.25-3.305s0.473-3.07,1.063-3.778c0.591-0.708,5.313-5.667,5.667-6.375
	c0.354-0.708,5.076-3.66,7.084-4.722c2.007-1.063,9.563-3.542,9.563-3.542s1.416-0.826,0.944-1.417s-2.007-1.063-1.652-2.007
	c0.354-0.944,4.722-4.014,6.257-5.077c1.534-1.063,5.902-2.951,5.902-4.84c0-1.889-0.944-2.243-4.014-2.833
	c-3.069-0.59-9.681-0.354-11.57-0.118c-1.889,0.236-6.139,1.063-8.027,1.889c-1.889,0.827-5.194,3.07-7.792,3.896
	c-2.598,0.827-8.028,2.125-10.39,3.424c-2.361,1.299-5.902,2.833-8.5,4.958c-2.597,2.125-5.194,5.313-6.139,4.486
	c-0.944-0.827-0.827-3.896-1.181-5.195c-0.354-1.298-0.826-0.826-0.473-2.833c0.354-2.007,2.716-7.32,3.069-8.973
	c0.354-1.653,1.181-3.778,0.591-5.077c-0.591-1.299-1.652-0.827-1.417-2.479c0.236-1.652,0.236-3.542,0.944-6.729
	c0.708-3.187,1.417-7.673,3.542-12.75s3.424-8.618,4.958-10.625c1.535-2.007,3.307-6.139,5.077-8.028
	c1.771-1.889,2.833-3.896,4.486-5.313c1.652-1.417,6.021-3.778,6.021-3.778s1.299-0.944,0.354-0.944s-4.132-1.063-7.084,1.417
	c-2.951,2.479-6.847,5.903-10.625,9.208c-3.778,3.305-7.556,10.035-9.799,13.341c-2.243,3.305-4.25,7.201-6.611,11.333
	s-4.604,7.32-4.368,8.5c0.236,1.18-0.473,0.59-1.417,1.652c-0.944,1.063-1.889,4.486-1.889,4.486s-1.063-0.827-3.424-3.069
	c-2.361-2.243-9.208-8.973-13.341-9.917C159.67,41.112,158.961,40.05,154.239,40.286z"/>
<path fill-rule="evenodd" clip-rule="evenodd" fill="#787068" d="M222.241,5.577c-2.007,1.181-6.139,2.833-8.146,5.785
	c-2.007,2.952-3.896,4.604-6.257,9.445s-4.368,8.736-6.139,13.223c-1.771,4.486-3.188,8.736-3.778,12.278
	c-0.59,3.542-0.118,8.973-0.708,7.438c-0.591-1.535-2.834-2.952-3.778-3.542c-0.944-0.591-1.181-4.841,0-7.438
	s9.799-20.306,10.979-21.841s2.479-4.25,5.194-7.202c2.716-2.952,7.792-6.729,8.619-7.083
	C219.054,6.285,222.241,5.577,222.241,5.577z"/>
<path fill-rule="evenodd" clip-rule="evenodd" fill="#787068" d="M97.689,8.646c3.305,3.07,9.681,10.507,11.215,13.931
	c1.535,3.424,4.486,5.549,6.257,11.334c1.771,5.785,5.195,14.285,5.903,14.521c0.708,0.236,3.778,0.59,3.778,0.59
	s1.298-0.355-1.299-5.903c-2.597-5.548-6.729-11.569-8.264-13.223c-1.535-1.653-5.785-8.736-7.674-10.979
	C105.717,16.674,97.807,8.646,97.689,8.646z"/>
<path fill-rule="evenodd" clip-rule="evenodd" fill="none" stroke="#000000" stroke-width="1.0001" stroke-linecap="round" stroke-miterlimit="2.6131" d="
	M113.509,52.564c0.375-0.828,1.356-1.018,1.535-1.535c1.323-0.34,3.697-1.88,6.257-1.771c1.233,0.053,3.701-0.609,5.549,0.59"/>
<path fill-rule="evenodd" clip-rule="evenodd" fill="none" stroke="#000000" stroke-width="1.0001" stroke-linecap="round" stroke-miterlimit="2.6131" d="
	M184.462,49.495c3.375,0,2.418-0.492,6.493,0.01c2.191,0.271,2.869,0.385,4.723,1.761"/>
<path fill-rule="evenodd" clip-rule="evenodd" fill="#CCCCCC" stroke="#000000" stroke-width="1.0001" stroke-linecap="round" stroke-miterlimit="2.6131" d="
	M122.363,77.829c0.944-2.479,0.708-4.014,3.306-4.84c2.597-0.827,5.312-1.417,7.673-0.236c2.362,1.18,5.077,3.188,6.14,4.84
	c1.063,1.652-0.709,2.833-3.306,4.014c-2.597,1.181-5.667,2.598-8.618,1.299c-2.951-1.299-4.014-1.299-4.368-1.889
	C122.835,80.426,122.245,78.183,122.363,77.829z"/>
<path fill-rule="evenodd" clip-rule="evenodd" fill="#CCCCCC" stroke="#000000" stroke-width="1.0001" stroke-linecap="round" stroke-miterlimit="2.6131" d="
	M169.351,78.419c0.347-1.198,0.59-2.361,1.181-2.833c0.59-0.472,4.014-3.069,6.257-3.424c2.243-0.354,6.729,0.236,7.91,1.771
	s2.361,4.132,2.243,4.958c-0.118,0.827-0.708,1.889-2.479,2.833c-1.771,0.944-6.139,0.944-7.674,0.354
	C175.254,81.489,169.351,78.773,169.351,78.419z"/>
<path fill-rule="evenodd" clip-rule="evenodd" fill="#513427" stroke="#000000" stroke-width="1.0001" stroke-linecap="round" stroke-miterlimit="2.6131" d="
	M173.482,79.718c0.709-1.653,1.89-3.424,3.778-2.833c1.889,0.59,4.368,1.417,4.014,3.069c-0.354,1.653-0.59,2.715-1.652,2.479
	C178.559,82.197,173.364,79.954,173.482,79.718z"/>
<path fill-rule="evenodd" clip-rule="evenodd" fill="none" stroke="#000000" stroke-width="1.0001" stroke-linecap="round" stroke-miterlimit="2.6131" d="
	M177.732,80.308"/>
<path fill-rule="evenodd" clip-rule="evenodd" fill="#513427" stroke="#000000" stroke-width="1.0001" stroke-linecap="round" stroke-miterlimit="2.6131" d="
	M136.058,81.253c-0.59-1.771-0.827-4.84-3.66-5.313c-2.834-0.472-4.368,1.063-5.077,2.716c-0.708,1.652,0.826,4.25,1.535,4.368
	C129.564,83.142,135.822,81.607,136.058,81.253z"/>
<path fill-rule="evenodd" clip-rule="evenodd" fill="none" stroke="#000000" stroke-width="1.0001" stroke-linecap="round" stroke-miterlimit="2.6131" d="
	M130.746,79.482c0,1.321,0.243,1.298,1.298,1.298c0-0.254,0.354,0.091,0.354-1.062l-0.236-0.118"/>
<path fill-rule="evenodd" clip-rule="evenodd" fill="none" stroke="#000000" stroke-width="1.0001" stroke-linecap="round" stroke-miterlimit="2.6131" d="
	M115.87,64.252c0.912-1.323,6.964-7.1,8.973-7.438c5.163-0.868,1.939-1.224,8.224-0.58c3.473,0.356,9.444,2.219,12.781,0.847
	c3.647-1.5,13.47-1.308,17.442-0.59c1.896,0.342,15.623,0.126,16.528-0.779c0.436-0.435,0.457-0.901,0.749-1.022"/>
<path fill-rule="evenodd" clip-rule="evenodd" fill="none" stroke="#000000" stroke-width="1.0001" stroke-linecap="round" stroke-miterlimit="2.6131" d="
	M145.148,74.405c0.387-0.399,7.305-6.45,7.319-6.493c0.742-0.191,1.892-0.882,3.306,0.59c1.434,1.492,7.282,6.996,8.737,7.91"/>
<path fill-rule="evenodd" clip-rule="evenodd" fill="none" stroke="#000000" stroke-width="1.0001" stroke-linecap="round" stroke-miterlimit="2.6131" d="
	M166.989,74.405c8.204-4.765,7.563-5.847,16.903-3.866c1.423,0.302,3.74,2.794,6.354,3.984"/>
<path fill-rule="evenodd" clip-rule="evenodd" fill="none" stroke="#000000" stroke-width="1.0001" stroke-linecap="round" stroke-miterlimit="2.6131" d="
	M169.94,82.906c2.897,2.809,11.658,5.14,15.861,3.306c2.059-0.898,2.655-0.64,5.271-2.007"/>
<path fill-rule="evenodd" clip-rule="evenodd" fill="none" stroke="#000000" stroke-width="1.0001" stroke-linecap="round" stroke-miterlimit="2.6131" d="
	M174.663,89.635c5.138,1.522,4.045,2.549,10.595,1.623c3.333-0.472,5.245-1.056,8.295-2.449"/>
<path fill-rule="evenodd" clip-rule="evenodd" fill="none" stroke="#000000" stroke-width="1.0001" stroke-linecap="round" stroke-miterlimit="2.6131" d="
	M142.905,74.759c-1.115-2.729-8.217-5.925-11.215-5.785c-6.633,0.31-7.666,1.823-11.334,7.448l-0.59,1.17"/>
<path fill-rule="evenodd" clip-rule="evenodd" fill="none" stroke="#000000" stroke-width="1.0001" stroke-linecap="round" stroke-miterlimit="2.6131" d="
	M141.017,79.6c-3.497,5.333-15.106,8.325-20.661,5.431c-0.975-0.508-2.434-1.105-3.542-1.063"/>
<path fill-rule="evenodd" clip-rule="evenodd" fill="none" stroke="#000000" stroke-width="1.0001" stroke-linecap="round" stroke-miterlimit="2.6131" d="
	M116.342,88.218c6.79,2.266,13.136,1.438,19.402-2.115c1.065-0.604,3.902-1.84,5.39-2.607"/>
<path fill-rule="evenodd" clip-rule="evenodd" fill="none" stroke="#000000" stroke-width="1.0001" stroke-linecap="round" stroke-miterlimit="2.6131" d="
	M141.134,87.274c-1.877,1.096-3.226,2.378-4.958,3.542"/>
<path fill-rule="evenodd" clip-rule="evenodd" fill="none" stroke="#000000" stroke-width="1.0001" stroke-linecap="round" stroke-miterlimit="2.6131" d="
	M146.565,75.114c-0.887,1.049-5.333,6.634-3.069,7.998c1.047,0.631,1.007,0.621,2.243,0.621"/>
<path fill-rule="evenodd" clip-rule="evenodd" fill="none" stroke="#000000" stroke-width="1.0001" stroke-linecap="round" stroke-miterlimit="2.6131" d="
	M164.864,78.773c0.662,1.464,2.65,5.883,0.678,6.406c-1.017,0.269-1.85-0.586-2.566-1.211"/>
<path fill-rule="evenodd" clip-rule="evenodd" fill="none" stroke="#000000" stroke-width="1.0001" stroke-linecap="round" stroke-miterlimit="2.6131" d="
	M144.913,78.773c-2.919,4.072,2.286,6.083,2.587,2.253C147.748,77.867,145.23,78.33,144.913,78.773z"/>
<path fill-rule="evenodd" clip-rule="evenodd" fill="none" stroke="#000000" stroke-width="1.0001" stroke-linecap="round" stroke-miterlimit="2.6131" d="
	M163.211,78.479c-1.969,0.181-4.056,4.937,0.827,3.247C164.328,80.595,164.563,78.354,163.211,78.479z"/>
<path fill-rule="evenodd" clip-rule="evenodd" fill="none" stroke="#000000" stroke-width="1.0001" stroke-linecap="round" stroke-miterlimit="2.6131" d="
	M150.815,80.545c-0.809,0.278-4.173,4.808-6.227,6.375c-0.187,0.142-5.413,6.007-6.2,6.816
	c-2.263,2.326-12.633,12.091-13.556,13.648c-1.924,3.244-2.469,5.158-2.469,9.05"/>
<path fill-rule="evenodd" clip-rule="evenodd" fill="none" stroke="#000000" stroke-width="1.0001" stroke-linecap="round" stroke-miterlimit="2.6131" d="
	M163.33,85.975c1.997,4.653,7.404,8.811,10.646,12.761c1.308,1.594,7.466,9.408,7.89,9.67"/>
<path fill-rule="evenodd" clip-rule="evenodd" fill="none" stroke="#000000" stroke-width="1.0001" stroke-linecap="round" stroke-miterlimit="2.6131" d="
	M82.577,69.329c3.002,0,0.597,3.029,8.089,3.296c2.491,0.088,6.423,1.501,7.218,3.994c1.109,3.478,6.972,7.246,8.217,9.475
	c0.336,0.602,5.445,4.436,6.699,4.014"/>
<path fill-rule="evenodd" clip-rule="evenodd" fill="none" stroke="#000000" stroke-width="1.0001" stroke-linecap="round" stroke-miterlimit="2.6131" d="
	M105.363,87.038c-2.509-0.152-6.344,5.288-4.84,9.799l0.118,0.354"/>
<path fill-rule="evenodd" clip-rule="evenodd" fill="none" stroke="#000000" stroke-width="1.0001" stroke-linecap="round" stroke-miterlimit="2.6131" d="
	M198.334,90.993c9.062-2.892,5.891-10.402,15.584-14.167c5.28-2.051,9.639-7.883,13.735-8.736c1.204-0.251,4.241-4.673,9.404-3.069"
	/>
<path fill-rule="evenodd" clip-rule="evenodd" fill="none" stroke="#000000" stroke-width="1.0001" stroke-linecap="round" stroke-miterlimit="2.6131" d="
	M206.126,85.798c-1.113,3.981,3.069,2.73,3.069,8.5"/>
<path fill-rule="evenodd" clip-rule="evenodd" fill="#936D59" stroke="#000000" stroke-width="1.0001" stroke-linecap="round" stroke-miterlimit="2.6131" d="
	M128.62,111.948c0.59,6.612,0.826,6.966,2.479,13.813c1.653,6.847,2.361,9.798,2.951,15.111c0.59,5.313,1.063,4.604,0.827,9.091
	c-0.236,4.486,0.118,3.423-1.299,8.5c-1.417,5.077-2.952,5.903-2.007,10.271c0.944,4.368,12.042,10.743,15.229,11.333
	c3.187,0.59,6.611,1.298,7.792,1.535s5.667-0.59,10.035-2.479s7.438-3.07,8.618-4.369c1.181-1.298,1.181-1.653,2.716-2.243
	c1.534-0.591,3.896-0.708,4.486-2.952c0.59-2.243,0-3.188-0.354-5.077c-0.354-1.889-3.188-3.542-4.132-7.201
	c-0.944-3.66-2.243-7.911-1.417-12.396c0.826-4.486,2.361-8.5,2.716-11.57c0.354-3.07,0.235-5.785,0.235-8.972
	c0-3.188,0.709-7.91-0.235-10.862s-3.542-4.722-7.792-6.257s-14.521-3.424-19.952-2.952s-9.917,0.473-13.577,2.952
	S128.384,112.185,128.62,111.948z"/>
<path fill-rule="evenodd" clip-rule="evenodd" fill="none" stroke="#000000" stroke-width="1.0001" stroke-linecap="round" stroke-miterlimit="2.6131" d="
	M129.329,108.052c2.934-0.82,6.031-3.348,10.585-4.132c2.344-0.404,5.6-2.027,8.952-2.135c9.188-0.297,17.749-0.778,25.619,5.107
	c0.328,0.245,0.51,0.33,0.887,0.452"/>
<path fill-rule="evenodd" clip-rule="evenodd" fill="#E6E6E6" stroke="#000000" stroke-width="1.0001" stroke-linecap="round" stroke-miterlimit="2.6131" d="
	M132.28,112.834c-0.261,3.947-0.688,4.81,0.421,8.421c-0.038,0.011,0.866-3.399,1.113-4.112c0.592,2.132,0.286,4.162,1.859,5.333
	c0.916,0.682,1.663,3.7,2.047-2.54c0.507-8.231,0.768,1.818,1.879-4.061c0.174-0.923,3.046-10.359,1.535-9.799
	c-2.632,0.976-7.327,3.162-8.264,5.872C132.866,111.96,132.299,112.545,132.28,112.834z"/>
<path fill-rule="evenodd" clip-rule="evenodd" fill="none" stroke="#000000" stroke-width="1.0001" stroke-linecap="round" stroke-miterlimit="2.6131" d="
	M136.412,108.761c0.201,2.86,0.808,4.966,1.535,7.556"/>
<path fill-rule="evenodd" clip-rule="evenodd" fill="none" stroke="#000000" stroke-width="1.0001" stroke-linecap="round" stroke-miterlimit="2.6131" d="
	M134.523,110.059c-1.123,4.017-0.118,5.482-0.118,8.854"/>
<path fill-rule="evenodd" clip-rule="evenodd" fill="#E6E6E6" stroke="#000000" stroke-width="1.0001" stroke-linecap="round" stroke-miterlimit="2.6131" d="
	M143.377,105.278c-1.016,2.549,1.443,10.656,4.25,11.628c0.097-0.564,4.162-3.663,4.722-8.146c0.628-5.03,3.624-3.738-6.375-3.778
	C145.498,104.98,143.426,105.156,143.377,105.278z"/>
<path fill-rule="evenodd" clip-rule="evenodd" fill="#E6E6E6" stroke="#000000" stroke-width="1.0001" stroke-linecap="round" stroke-miterlimit="2.6131" d="
	M155.065,105.337c0.296,3.353,1.704,8.54,4.723,10.301c0.996,0.582,0.816,2.156,2.863-1.771c0.703-1.35,2.866-8.216,1.622-7.971
	c-0.505,0.1-8.972-1.714-8.972-1.268L155.065,105.337z"/>
<path fill-rule="evenodd" clip-rule="evenodd" fill="#E6E6E6" stroke="#000000" stroke-width="1.0001" stroke-linecap="round" stroke-miterlimit="2.6131" d="
	M166.34,106.695c-0.004,0.058,2.442,10.475,3.139,9.622c1.082-1.324-0.25-1.086,1.997,3.08c1.222,2.265,1.88,5.578,2.351,0.54
	c0.306-3.26,1.836,7.605,3.444-4.091c0.472-3.427-1.173-3.781-3.7-5.882C171.951,108.615,166.332,106.813,166.34,106.695z"/>
<path fill-rule="evenodd" clip-rule="evenodd" fill="none" stroke="#000000" stroke-width="1.0001" stroke-linecap="round" stroke-miterlimit="2.6131" d="
	M171.712,109.351c0.055,2.039-0.591,4.558-0.591,6.139"/>
<path fill-rule="evenodd" clip-rule="evenodd" fill="none" stroke="#000000" stroke-width="1.0001" stroke-linecap="round" stroke-miterlimit="2.6131" d="
	M174.899,112.066c-0.268,0.913-0.485,6.35-0.236,7.319"/>
<path fill-rule="evenodd" clip-rule="evenodd" fill="none" stroke="#000000" stroke-width="1.0001" stroke-linecap="round" stroke-miterlimit="2.6131" d="
	M128.738,140.046c0.61,6.107,1.091,5.832,0.462,11.836c-0.357,3.404-0.905,5.857-2.233,9.061c-0.097,0.234-1.199,6.128-1.319,6.473
	c-1.076,0.222,0.241,8.968,3.414,10.922c1.5,0.924,8.967,8.174,10.45,9.958c1.197,1.439,4.34,3.342,6.109,3.815"/>
<path fill-rule="evenodd" clip-rule="evenodd" fill="none" stroke="#000000" stroke-width="1.0001" stroke-linecap="round" stroke-miterlimit="2.6131" d="
	M157.427,195.062c3.87-1.754,5.229-2.41,8.895-4.497c5.369-3.058,6.641-6.367,10.821-10.379c4.329-4.155,5.147-2.327,8.027-9.091
	c0.604-1.459-3.762-10.102-4.485-12.996c-2.592-10.361-1.95-6.455-1.063-17.699"/>
<path fill-rule="evenodd" clip-rule="evenodd" fill="#481C16" d="M143.613,111.771c-1.349-0.246-3.498,1.705-3.423,3.601
	c0.081,2.055-3.07,9.463-3.07,15.112c0.292,0-0.144,2.285,0.867,3.147c0.085,0.072,1.835,2.241,2.793,2.166
	c1.067,1.561,9.553,4.292,11.954,4.25c3.539-0.061,8.696,1.163,11.972,0.267c6.063-1.66,9.018-5.261,11.107-10.892
	c0.823-2.218,0.776-4.629,0.374-6.601c-0.043-0.213-2.721-5.565-2.351-1.072c0.228,2.769-2.499-2.398-2.567-2.51
	c-2.604-4.296-1.068-1.691-2.401-2.469c-0.305-0.178-0.686-1.724-2.233-2.961c-0.633-0.506-2.845-1.786-3.069-0.914
	c-1.641,6.383-5.407,1.345-7.586-1.407c-1.615-2.039-0.015-2.095-3.167-1.673c-0.501,0.067-0.393,2.021-1.997,3.464
	c-0.807,0.725-3.363,4.161-3.63,3.275c-0.143-0.476-3.453-3.354-3.336-4.84C143.686,111.769,143.768,111.799,143.613,111.771z"/>
<path fill-rule="evenodd" clip-rule="evenodd" fill="#8A6E5B" stroke="#000000" stroke-width="1.0001" stroke-linecap="round" stroke-miterlimit="2.6131" d="
	M141.843,130.188c-0.578-1.941,1.735-3.837,4.014-3.837c2.775,0,4.249-0.103,7.084,0.246c2.293,0.282,8.343-0.835,10.271-0.04
	c2.042,0.841,5.864-0.619,3.866,6.682c-1.393,5.087-1.728,7.421-1.869,12.854c-0.077,2.978-2.541,11.125-4.152,14.012
	c-1.393,2.496-5.73,11.312-9.444,7.596c-3.869-3.871-2.814-3.202-4.18-9.06c-1.278-5.488-3.143-13.721-3.454-19.217
	c-0.111-1.961-1.899-5.715-1.899-7.289C141.87,132.137,141.927,130.473,141.843,130.188z"/>
<path fill-rule="evenodd" clip-rule="evenodd" fill="none" stroke="#000000" stroke-width="1.0001" stroke-linecap="round" stroke-miterlimit="2.6131" d="
	M154.711,129.303c0.713,1.58,0.031,11.733,0.441,15.27c0.17,1.456,0.041,16.306,0.031,16.37"/>
<path fill-rule="evenodd" clip-rule="evenodd" fill="#E6E6E6" stroke="#000000" stroke-width="1.0001" stroke-linecap="round" stroke-miterlimit="2.6131" d="
	M137.829,139.575c-0.611,0.059-1.929,0.566-2.027,1.042c-0.483,0.1-0.334,1.251-0.334,1.791c0.013,0-1.062,1.868-0.266,2.982
	c0.904,1.268-0.683,2.484,0.266,3.629c0.767,0.925-1.312,4.379-1.181,7.438c0.083,1.934-0.482,3.105-1.386,4.654
	c-0.019-0.001,1.999,1.647,2.881,3.609c2.56,5.694,1.929-6.334,1.929-6.375c0-0.526-0.236-1.141-0.236-1.889
	c-0.04,0-1.177-3.695-0.354-3.394c0.338,0.124,1.7,0.324,2.007,0.324c0,0.051,1.437,0.269,1.771,0.354
	c0-1.06-1.22-4.842-1.181-4.841c1.195,0.047,0.125-1.789,0.364-3.423c0.072-0.492,1.219-2.086-0.6-2.716
	c0.894-0.141,0.724-3.057-1.859-3.13c-0.478-0.014,0.011,0.061-0.62,0.061L137.829,139.575z"/>
<path fill-rule="evenodd" clip-rule="evenodd" fill="none" stroke="#000000" stroke-width="1.0001" stroke-linecap="round" stroke-miterlimit="2.6131" d="
	M135.704,151.262c0.167,0.485,1.063,2.215,1.063,2.597"/>
<path fill-rule="evenodd" clip-rule="evenodd" fill="#E6E6E6" stroke="#000000" stroke-width="1.0001" stroke-linecap="round" stroke-miterlimit="2.6131" d="
	M172.42,139.633c-0.365-0.36-3.021,0.608-2.823,3.098c0.062,0.778,1.137-0.018-0.395,2.273c-0.51,0.763,1.055,0.174,0.533,1.771
	c-1.118,3.418,1.527,0.768-0.729,3.424c-1.073,1.264,3.669,5.757,4.015,2.951c0.272-2.221,2.072-2.052,0.954-4.486
	c-0.768-1.672-0.597,1.137,0.54-0.739c0.264-0.437-0.214-1.935-0.678-2.095c0-0.75-0.466,0.143,0.323-1.771
	c0.929-2.251-1.235-0.75,0.118-2.982c0.32-0.528-0.772-1.128-1.15-1.386c-0.057,0.274-0.773,0.021-0.944-0.035L172.42,139.633z"/>
<path fill-rule="evenodd" clip-rule="evenodd" fill="#E6E6E6" stroke="#000000" stroke-width="1.0001" stroke-linecap="round" stroke-miterlimit="2.6131" d="
	M172.42,163.954c-1.809-2.449,1.786-17.434,2.135-12.485c0.163,2.318,0.816,5.148,0.816,6.759c0.205,0,0.396,1.352,0.493,1.632
	c0.035,0.007,3.89-6.236,4.938-6.236c0.12-0.7,7.401-6.667,4.122-3.188c-1.085,1.151-7.781,19.339-7.781,21.605
	c-1.107,0-2.533-0.592-3.542,0c-0.017-0.08-0.92,0.085-0.709-2.479c0.004-0.039-0.485-0.559,0.345-1.535
	c0.5-0.588,1.221-3.505,1.053-3.994C173.638,163.898,172.748,164.397,172.42,163.954z"/>
<path fill-rule="evenodd" clip-rule="evenodd" fill="none" stroke="#000000" stroke-width="1.0001" stroke-linecap="round" stroke-miterlimit="2.6131" d="
	M175.962,159.408c-0.246,0.821-1.299,3.738-1.771,4.84"/>
<path fill-rule="evenodd" clip-rule="evenodd" fill="#E6E6E6" stroke="#000000" stroke-width="1.0001" stroke-linecap="round" stroke-miterlimit="2.6131" d="
	M136.589,169.208c-1.823-3.297-2.269-3.265-3.247-7.32c-0.65-2.698-4.831-8.338-6.965-10.389c-0.063-0.061-3.897-2.746-2.392-0.591
	c1.291,1.848,2.242,7.186,3.376,9.691c0.656,1.45,2.513,10.592,3.255,10.743c1.65,0.336,6.021,2.83,6.031,2.587
	c0.044-1.018-0.735-4.915,1.309-4.064C137.948,169.809,136.745,169.489,136.589,169.208z"/>
<path fill-rule="evenodd" clip-rule="evenodd" fill="#E6E6E6" stroke="#000000" stroke-width="1.0001" stroke-linecap="round" stroke-miterlimit="2.6131" d="
	M145.621,179.124c0.009,0.237-1.393-4.326,0.354-4.871c1.766-0.55,0.286-0.796,1.889-0.796c0,0.02,3.334,5.178,3.69,5.657
	c0.944,1.271,1.591,1.798-0.62,1.426c-0.972-0.163-1.246-0.526-2.223-0.728c-0.063-0.303-2.345-0.201-2.382-0.216L145.621,179.124z"
	/>
<path fill-rule="evenodd" clip-rule="evenodd" fill="#E6E6E6" stroke="#000000" stroke-width="1.0001" stroke-linecap="round" stroke-miterlimit="2.6131" d="
	M155.715,181.603c0.16-1.424,4.492-7.905,4.821-7.468c0.771,1.025,2.779,4.464,1.889,5.266c-0.069,0.063-5.771,1.961-6.415,2.172
	C155.775,181.649,155.697,181.754,155.715,181.603z"/>
<path fill-rule="evenodd" clip-rule="evenodd" fill="#E6E6E6" stroke="#000000" stroke-width="1.0001" stroke-linecap="round" stroke-miterlimit="2.6131" d="
	M166.163,178.298c1.316-3.224,0.214-2.554,2.52-6.365c0.573-0.949,4.411-4.53,2.115-0.827c-1.138,1.834-1.093,4.337-1.093,6.011
	c0.039,0-1.735,0.524-2.598,0.984l-0.236,0.078L166.163,178.298z"/>
<path fill-rule="evenodd" clip-rule="evenodd" fill="none" stroke="#000000" stroke-width="1.0001" stroke-linecap="round" stroke-miterlimit="2.6131" d="
	M70.712,206.101c5.135,5.301,13.145,4.862,16.528,14.639c0.108,0.313,0.601,0.87,0.708,1.181"/>
<path fill-rule="evenodd" clip-rule="evenodd" fill="none" stroke="#000000" stroke-width="1.0001" stroke-linecap="round" stroke-miterlimit="2.6131" d="
	M38.541,200.139c2.741,2.018,1.798,0.303,3.896-0.236c0.444-1.284,3.057-1.904,4.132-2.243"/>
<path fill-rule="evenodd" clip-rule="evenodd" fill="#36372F" stroke="#000000" stroke-width="1.0001" stroke-linecap="round" stroke-miterlimit="2.6131" d="
	M51.882,197.423c-1.961-0.753-5.903,2.376-5.903,6.258c0,3.126,1.739,8.618,5.903,8.618c1.198,0,0.342,0.399,2.715,0.107
	c0.874-0.107,3.263,6.842,4.527,8.244c1.21,1.342,0.828,1.629,3.07-0.283c2.221-1.895,0.779-12.881-1.133-15.742
	c-0.934-1.397-0.969-3.936-4.22-5.354c-0.417-0.182-3.657-1.62-3.737-1.693c-0.006,0.004-0.985,0.086-0.985-0.114L51.882,197.423z"
	/>
<path fill-rule="evenodd" clip-rule="evenodd" fill="none" stroke="#000000" stroke-width="1.0001" stroke-linecap="round" stroke-miterlimit="2.6131" d="
	M45.625,199.548c-2.11,4.662-1.048,6.558,1.15,10.41l0.266,0.688"/>
<path fill-rule="evenodd" clip-rule="evenodd" fill="none" stroke="#000000" stroke-width="1.0001" stroke-linecap="round" stroke-miterlimit="2.6131" d="
	M51.173,215.368c-1.006,2.502-1.006,6.18-2.213,8.059c-1.008,1.569-3.079,3.85-4.871,4.102"/>
<path fill-rule="evenodd" clip-rule="evenodd" fill="none" stroke="#000000" stroke-width="1.0001" stroke-linecap="round" stroke-miterlimit="2.6131" d="
	M17.054,228.591c0-0.039,0.821,4.644-0.087,6.847c-1.102,2.672,3.428,6.909,3.983,9.682"/>
<path fill-rule="evenodd" clip-rule="evenodd" fill="#36372F" stroke="#000000" stroke-width="1.0001" stroke-linecap="round" stroke-miterlimit="2.6131" d="
	M24.138,249.487c0.236,4.132,0.944,8.264,3.306,12.514c2.361,4.251,6.493,12.633,10.507,17.474
	c4.014,4.84,7.792,8.972,11.688,11.924c3.896,2.951,6.493,4.486,7.674,5.076c1.18,0.591,2.951,1.535,2.951,1.535
	s0.827-1.181-1.299-5.903c-2.125-4.723-4.604-6.257-7.083-11.806c-2.479-5.549-4.486-7.674-6.375-13.223s-3.66-9.327-4.723-11.569
	c-1.062-2.244-2.125-5.432-3.66-7.32s-3.896-3.069-7.438-2.716C26.145,245.827,23.666,247.599,24.138,249.487z"/>
<path fill-rule="evenodd" clip-rule="evenodd" fill="#36372F" stroke="#000000" stroke-width="1.0001" stroke-linecap="round" stroke-miterlimit="2.6131" d="
	M1.588,264.835c0.59,5.903,0.118,12.396,2.007,20.542c1.889,8.146,3.424,16.528,5.785,20.778c2.361,4.251,5.194,10.271,6.729,12.515
	c1.535,2.243,3.66,4.25,3.66,4.25s1.298-0.944,1.063-4.723c-0.236-3.777-1.063-4.132-1.653-9.09
	c-0.59-4.959-2.597-12.396-2.715-18.182s-0.354-12.75-0.354-15.701c0-2.952,0-6.967,0-8.028c0-1.063-4.25-4.368-6.729-4.604
	S1.942,262.474,1.588,264.835z"/>
<path fill-rule="evenodd" clip-rule="evenodd" fill="none" stroke="#000000" stroke-width="1.0001" stroke-linecap="round" stroke-miterlimit="2.6131" d="
	M113.685,245.887c3.542,3.777,8.501,5.666,12.987,13.223c4.486,7.556,8.737,10.389,12.042,12.514
	c3.306,2.125,3.778,4.014,7.083,6.375"/>
<path fill-rule="evenodd" clip-rule="evenodd" fill="none" stroke="#000000" stroke-width="1.0001" stroke-linecap="round" stroke-miterlimit="2.6131" d="
	M171.299,281.776c-1.417-4.25-1.182-5.194,1.652-9.209c2.833-4.014,7.556-9.681,10.153-12.277c2.597-2.598,3.069-3.542,5.902-6.848
	c2.834-3.306,2.598-2.598,5.194-5.195c2.598-2.597,3.306-3.306,3.306-3.306"/>
<path fill-rule="evenodd" clip-rule="evenodd" fill="none" stroke="#000000" stroke-width="1.0001" stroke-linecap="round" stroke-miterlimit="2.6131" d="
	M114.158,232.9c6.897-2.454,9.88-20.321,9.445-27.134c-0.183-2.854-0.46-5.469-0.708-8.284"/>
<path fill-rule="evenodd" clip-rule="evenodd" fill="none" stroke="#000000" stroke-width="1.0001" stroke-linecap="round" stroke-miterlimit="2.6131" d="
	M197.035,184.023c0.002,0.005-2.22,21.708-2.125,26.897c0.2,10.911,5.263,13.562,6.139,18.674"/>
<path fill-rule="evenodd" clip-rule="evenodd" fill="none" stroke="#000000" stroke-width="1.0001" stroke-linecap="round" stroke-miterlimit="2.6131" d="
	M112.917,367.311c-1.289,3.646-0.815,3.261-2.803,6.051c-0.045,0.064-0.502,2.835-0.62,3.157"/>
<path fill-rule="evenodd" clip-rule="evenodd" fill="none" stroke="#000000" stroke-width="1.0001" stroke-linecap="round" stroke-miterlimit="2.6131" d="
	M118.466,367.782c-0.244,2.688-0.643,4.499-2.007,6.493c0-0.089-0.708,1.035-0.708,2.834"/>
<path fill-rule="evenodd" clip-rule="evenodd" fill="none" stroke="#000000" stroke-width="1.0001" stroke-linecap="round" stroke-miterlimit="2.6131" d="
	M124.133,368.137c-0.2,0.883-1.054,7.915-0.472,8.618"/>
<path fill-rule="evenodd" clip-rule="evenodd" fill="none" stroke="#000000" stroke-width="1.0001" stroke-linecap="round" stroke-miterlimit="2.6131" d="
	M132.751,371.324c-0.564,2.02-1.025,4.123-0.708,6.139"/>
<path fill-rule="evenodd" clip-rule="evenodd" fill="none" stroke="#000000" stroke-width="1.0001" stroke-linecap="round" stroke-miterlimit="2.6131" d="
	M182.927,358.456c0,1.335,0.005,3.959-0.826,5.076"/>
<path fill-rule="evenodd" clip-rule="evenodd" fill="none" stroke="#000000" stroke-width="1.0001" stroke-linecap="round" stroke-miterlimit="2.6131" d="
	M189.774,356.331c0.086,1.563,0.354,3.715,0.354,5.194"/>
<path fill-rule="evenodd" clip-rule="evenodd" fill="none" stroke="#000000" stroke-width="1.0001" stroke-linecap="round" stroke-miterlimit="2.6131" d="
	M195.441,355.977c0.682,2.356,0.456,4.639,2.007,6.729"/>
<path fill-rule="evenodd" clip-rule="evenodd" fill="none" stroke="#000000" stroke-width="1.0001" stroke-linecap="round" stroke-miterlimit="2.6131" d="
	M201.226,356.095c0.737,4.194,2.612,0.531,2.834,6.139l-0.118,0.236"/>
<path fill-rule="evenodd" clip-rule="evenodd" fill="none" stroke="#000000" stroke-width="1.0001" stroke-linecap="round" stroke-miterlimit="2.6131" d="
	M247.269,221.508c1.646,3.897,3.115-2.02,6.052,1.149c2.037,2.198,4.58-0.445,5.549,2.274c0.071,0.201,0.318,0.608,0.56,0.59"/>
<path fill-rule="evenodd" clip-rule="evenodd" fill="none" stroke="#000000" stroke-width="1.0001" stroke-linecap="round" stroke-miterlimit="2.6131" d="
	M262.262,229.653c0.465,1.234,4.297,4.591,5.195,3.778"/>
<path fill-rule="evenodd" clip-rule="evenodd" fill="#36372F" stroke="#000000" stroke-width="1.0001" stroke-linecap="round" stroke-miterlimit="2.6131" d="
	M249.63,207.341c-3.306-0.354-9.563-1.063-13.694,0.472c-4.133,1.535-7.32,2.479-8.619,5.431c-1.298,2.951-3.305,5.076-2.242,5.785
	c1.063,0.708,3.777-0.709,6.021-0.944c2.243-0.236,5.667,0.235,8.973,1.063c3.306,0.826,5.313,1.652,6.375,1.299
	c1.063-0.354,4.604-0.354,5.667-4.133c1.063-3.777,0.354-5.194-0.236-6.729C251.282,208.049,249.63,207.341,249.63,207.341z"/>
<path fill-rule="evenodd" clip-rule="evenodd" fill="none" stroke="#000000" stroke-width="1.0001" stroke-linecap="round" stroke-miterlimit="2.6131" d="
	M254.234,208.521c1.223,1.581,0.451,8.042-1.181,10.358l-0.354,0.503"/>
<path fill-rule="evenodd" clip-rule="evenodd" fill="none" stroke="#000000" stroke-width="1.0001" stroke-linecap="round" stroke-miterlimit="2.6131" d="
	M271.471,223.633c-0.575,1.846,2.938,2.818,3.306,4.25c0.5,0,1.462,3.283,2.007,4.014"/>
<path fill-rule="evenodd" clip-rule="evenodd" fill="none" stroke="#000000" stroke-width="1.0001" stroke-linecap="round" stroke-miterlimit="2.6131" d="
	M287.409,215.132c-0.795,2.712,2.304,4.446,2.833,7.556c0.007,0.044,2.066,2.88,2.746,4.959c0.545,1.668,1.934-0.506,3.156,4.25
	c0.891,3.46,1.571,1.313,0.354,5.667"/>
<path fill-rule="evenodd" clip-rule="evenodd" fill="#36372F" stroke="#000000" stroke-width="1.0001" stroke-linecap="round" stroke-miterlimit="2.6131" d="
	M284.575,231.07c-2.833,4.368-4.014,6.021-2.833,10.153s2.951,5.194,3.777,11.806s2.598,12.986,2.598,18.89
	c0,5.902,2.125,8.973,2.598,9.563c0.472,0.591,2.243-1.063,2.951-4.486s1.416-8.973,2.479-14.285
	c1.063-5.313,2.008-12.16,1.535-16.41c-0.472-4.25-1.298-8.027-2.597-11.451s-1.417-4.724-2.716-5.077
	C291.068,229.417,286.11,228.591,284.575,231.07z"/>
<path fill-rule="evenodd" clip-rule="evenodd" fill="none" stroke="#000000" stroke-width="1.0001" stroke-linecap="round" stroke-miterlimit="2.6131" d="
	M315.389,235.438c-4.697,1.364-8.282,1.991-8.727,8.342c-0.018,0.26-0.021,2.171-0.128,2.401"/>
<path fill-rule="evenodd" clip-rule="evenodd" fill="#36372F" stroke="#000000" stroke-width="1.0001" stroke-linecap="round" stroke-miterlimit="2.6131" d="
	M311.61,238.98c-2.243,2.479-2.951,5.549-2.597,8.146c0.354,2.598,2.243,4.959,4.958,8.501c2.716,3.541,5.667,6.257,8.028,10.034
	c2.361,3.778,5.785,9.445,6.729,12.16c0.944,2.716,2.243,7.084,4.132,8.736c1.89,1.653,2.479,2.834,2.951,2.125
	c0.473-0.708,1.417-5.193,0.827-8.854c-0.591-3.66-2.951-11.452-4.133-16.411c-1.181-4.958-3.777-9.681-5.313-12.042
	c-1.534-2.36-2.715-5.313-4.722-8.146c-2.007-2.834-3.07-5.194-5.431-5.549C314.681,237.327,312.083,237.682,311.61,238.98z"/>
<path fill-rule="evenodd" clip-rule="evenodd" fill="none" stroke="#000000" stroke-width="1.0001" stroke-linecap="round" stroke-miterlimit="2.6131" d="
	M184.757,341.515c3.737,2.209,8.066,2.125,12.514,2.125"/>
<path fill-rule="evenodd" clip-rule="evenodd" fill="none" stroke="#000000" stroke-width="1.0001" stroke-linecap="round" stroke-miterlimit="2.6131" d="
	M184.521,332.542c3.593,0,3.948,1.1,8.264,0"/>
<path fill-rule="evenodd" clip-rule="evenodd" fill="none" stroke="#000000" stroke-width="1.0001" stroke-linecap="round" stroke-miterlimit="2.6131" d="
	M185.229,297.124c3.354,1.567,5.747,2.048,9.445,1.181"/>
<path fill-rule="evenodd" clip-rule="evenodd" fill="none" stroke="#000000" stroke-width="1.0001" stroke-linecap="round" stroke-miterlimit="2.6131" d="
	M185.229,291.93c2.378-1.226,6.057-1.652,8.736-1.652"/>
<path fill-rule="evenodd" clip-rule="evenodd" fill="none" stroke="#000000" stroke-width="1.0001" stroke-linecap="round" stroke-miterlimit="2.6131" d="
	M183.34,283.901c3.833-3.832,9.597-3.01,14.639-2.36"/>
<path fill-rule="evenodd" clip-rule="evenodd" fill="none" stroke="#000000" stroke-width="1.0001" stroke-linecap="round" stroke-miterlimit="2.6131" d="
	M117.699,343.403c1.328-4.745,9.566-2.766,13.695-2.125"/>
<path fill-rule="evenodd" clip-rule="evenodd" fill="none" stroke="#000000" stroke-width="1.0001" stroke-linecap="round" stroke-miterlimit="2.6131" d="
	M118.644,351.195c3.652-2.396,7.68-1.653,11.569-1.653"/>
<path fill-rule="evenodd" clip-rule="evenodd" fill="none" stroke="#000000" stroke-width="1.0001" stroke-linecap="round" stroke-miterlimit="2.6131" d="
	M116.991,287.916c3.778,2.769,5.964,3.623,10.625,2.361"/>
<path fill-rule="evenodd" clip-rule="evenodd" fill="none" stroke="#000000" stroke-width="1.0001" stroke-linecap="round" stroke-miterlimit="2.6131" d="
	M118.171,277.054c1.759-2.411,7.909-1.405,10.389-0.708"/>
<path fill-rule="evenodd" clip-rule="evenodd" fill="none" stroke="#000000" stroke-width="1.0001" stroke-linecap="round" stroke-miterlimit="2.6131" d="
	M118.171,281.304c0.676,0.051,6.372,0.709,6.375,0.709"/>
<path fill-rule="evenodd" clip-rule="evenodd" fill="none" stroke="#000000" stroke-width="1.0001" stroke-linecap="round" stroke-miterlimit="2.6131" d="
	M119.115,284.374c1.605,0.513,1.517,0.57,3.306,0.708"/>
<path fill-rule="evenodd" clip-rule="evenodd" fill="none" stroke="#000000" stroke-width="1.0001" stroke-linecap="round" stroke-miterlimit="2.6131" d="
	M126.199,236.914c7.206,2.248,12.665,3.788,19.382,8.265c9.885,6.587,19.682-1.881,29.596-3.697
	c7.404-1.356,7.54-3.096,13.121-5.275"/>
<path fill-rule="evenodd" clip-rule="evenodd" fill="none" stroke="#000000" stroke-width="1.0001" stroke-linecap="round" stroke-miterlimit="2.6131" d="
	M129.741,222.983c11.792,7.732,9.661,12.629,27.842,11.253c13.787-1.044,15.686,1.912,28.118-8.42"/>
<path fill-rule="evenodd" clip-rule="evenodd" fill="none" stroke="#000000" stroke-width="1.0001" stroke-linecap="round" stroke-miterlimit="2.6131" d="
	M138.949,214.011c3.205,2.904,13.87,11.098,18.182,11.098"/>
<path fill-rule="evenodd" clip-rule="evenodd" fill="none" stroke="#000000" stroke-width="1.0001" stroke-linecap="round" stroke-miterlimit="2.6131" d="
	M167.283,224.164c7.873-5.247,13.54-4.912,20.778-13.223"/>
<path fill-rule="evenodd" clip-rule="evenodd" fill="none" stroke="#000000" stroke-width="1.0001" stroke-linecap="round" stroke-miterlimit="2.6131" d="
	M133.519,195.357c5.209,5.209,11.415,12.623,19.321,11.354c0.85-0.136-0.129,0.05,0.749-0.021"/>
<path fill-rule="evenodd" clip-rule="evenodd" fill="none" stroke="#000000" stroke-width="1.0001" stroke-linecap="round" stroke-miterlimit="2.6131" d="
	M165.395,206.455c5.803-2.226,15.902-8.438,21.486-11.806"/>
<path fill-rule="evenodd" clip-rule="evenodd" fill="none" stroke="#000000" stroke-width="1.0001" stroke-linecap="round" stroke-miterlimit="2.6131" d="
	M222.535,190.163c-6.169,1.127-13.17,10.705-14.875,15.82"/>
<path fill-rule="evenodd" clip-rule="evenodd" fill="none" stroke="#000000" stroke-width="1.0001" stroke-linecap="round" stroke-miterlimit="2.6131" d="
	M93.379,189.455c-1.762-0.05,4.397,2.687,6.611,4.331c3.903,2.899,4.246,4.669,5.903,9.127"/>
<path fill-rule="evenodd" clip-rule="evenodd" fill="none" stroke="#000000" stroke-width="1.0001" stroke-linecap="round" stroke-miterlimit="2.6131" d="
	M94.559,187.093c2.575-0.078,10.22,6.4,11.57,8.972"/>
<path fill-rule="evenodd" clip-rule="evenodd" fill="none" stroke="#000000" stroke-width="1.0001" stroke-linecap="round" stroke-miterlimit="2.6131" d="
	M202.465,134.675c0.039,1.386-3.752,12.705-4.25,18.181"/>
<path fill-rule="evenodd" clip-rule="evenodd" fill="none" stroke="#000000" stroke-width="1.0001" stroke-linecap="round" stroke-miterlimit="2.6131" d="
	M108.727,137.508c1.953,3.013,4.907,11.176,4.958,14.639"/>
<path fill-rule="evenodd" clip-rule="evenodd" fill="none" stroke="#000000" stroke-width="1.0001" stroke-linecap="round" stroke-miterlimit="2.6131" d="
	M195.854,104.452c-5.806-1.81-4.854,25.791-4.959,27.862"/>
<path fill-rule="evenodd" clip-rule="evenodd" fill="none" stroke="#000000" stroke-width="1.0001" stroke-linecap="round" stroke-miterlimit="2.6131" d="
	M116.991,111.063c-1.748,6.046,0.836,18.489,2.833,24.321"/>
</svg>
