<?xml version="1.0" encoding="utf-8"?>
<!-- Generator: Adobe Illustrator 24.0.0, SVG Export Plug-In . SVG Version: 6.00 Build 0)  -->
<svg version="1.1" id="w2pose1Svg" xmlns="http://www.w3.org/2000/svg" xmlns:xlink="http://www.w3.org/1999/xlink" x="0px" y="0px" viewBox="0 0 1400 1400" enable-background="new 0 0 1400 1400" xml:space="preserve">
<g id="gHead">
	<path id="gHair" fill="#FFCD5E" d="M873.12,486.15c0,42.25,30.07,76.45,11.96,122.53c-28.23,71.84-91.84,56.11-138.93,56.11h-61.71
		c-48.41,0-105.59,5.75-126.04-63.49c-14.09-47.71,10.99-72.89,10.99-110.97l-2.17-96.43c0-79.61,55.67-164.97,154.3-164.97l0,0
		c106.5,0,154.31,85.36,154.31,164.97L873.12,486.15z"/>
	<path fill="#FF9A6A" d="M813.68,320.44c-19.2-28.47-39.61-49.46-72.63-50.82c0,0-0.64-0.03-1.7-0.07l0.03-1.33
		c0,0-8.01,0.33-16.26,0.67c-8.27-0.34-16.27-0.67-16.27-0.67l0.03,1.33c-1.06,0.04-1.71,0.07-1.71,0.07
		c-33.01,1.36-52.6,22.94-72.62,50.82c-33.14,46.15-25.33,99.94-25.33,149.28c0,81,69.51,108.48,115.89,108.48
		c46.37,0,116.64-28.06,116.64-108.48C839.76,420.6,847.53,370.65,813.68,320.44z"/>
	<rect x="698.73" y="565.06" fill="#FF9A6A" width="49.44" height="68.85"/>
	<path fill="#FFCD5E" d="M794.8,322.38c0,0-55.61,54.09-210.09,89.56c0,0-0.98-131.08,74.17-152.68
		c132.42-38.07,156.01,14.64,156.01,14.64s59.23,26.85,46.03,158.97C860.91,432.87,815.81,418.54,794.8,322.38z"/>
	<g id="gEyesz">
		<g id="gMouse">
			<defs>
				<path id="SVGID_1_" d="M757.34,517.24c1.46,3.54-14.27,15.55-32.19,15.55c-17.93,0-33.66-12.01-32.19-15.55
					c0.96-2.33,8.95,0,32.19,0C748.39,517.24,756.38,514.91,757.34,517.24z"/>
			</defs>
			<clipPath id="SVGID_2_">
				<use xlink:href="#SVGID_1_"  overflow="visible"/>
			</clipPath>
			<path clip-path="url(#SVGID_2_)" fill="#914134" d="M757.34,517.24c1.46,3.54-14.27,15.55-32.19,15.55
				c-17.93,0-33.66-12.01-32.19-15.55c0.96-2.33,8.95,0,32.19,0C748.39,517.24,756.38,514.91,757.34,517.24z"/>
			<ellipse clip-path="url(#SVGID_2_)" fill="#912C2C" cx="725.26" cy="533.55" rx="13.91" ry="12.21"/>
		</g>
		<g id="gEyes">
			<path fill="#3F1801" d="M684.64,447.73c0,7.22-5.86,13.09-13.09,13.09c-7.23,0-13.1-5.87-13.1-13.09c0-7.24,5.87-13.1,13.1-13.1
				C678.78,434.63,684.64,440.49,684.64,447.73z"/>
			<path fill="#3F1801" d="M786.57,447.73c0,7.22-5.86,13.09-13.1,13.09c-7.23,0-13.1-5.87-13.1-13.09c0-7.24,5.87-13.1,13.1-13.1
				C780.72,434.63,786.57,440.49,786.57,447.73z"/>
		</g>
	</g>
</g>
<g>
	<g>
		<path fill="#FF9A6A" d="M648.75,971.37c1.69,124.08,8.26,310.69,5.82,329.81c-0.53,4.12-23.71,20.58-15.28,26.81
			c14.07,10.43,68.24,14.34,69.23,5.45l5.99-292.34C692.18,1017.4,672.46,992.17,648.75,971.37z"/>
		<path fill="#FF9A6A" d="M738.65,1333.45c1,8.88,55.17,4.98,69.23-5.45c8.43-6.24-14.75-22.69-15.28-26.81
			c-2.24-17.52,1.9-175.65,5.15-297.46c-21.85,3.48-43.7,10.27-65.55,15.21L738.65,1333.45z"/>
		<path fill="#371200" d="M802.47,1310.12c16.8,10.55,32.36,16.43,32.87,21.61c0.49,4.99-2.98,8.26-6.23,8.26l-90.73,0
			c-0.7,0-3.07-9.98,0-19.82C750.27,1329.55,791.2,1334.18,802.47,1310.12z"/>
		<path fill="#443D39" d="M809.22,937.47c-0.21-17.54-1.6-34.1-4.25-50.12c-1.25-7.62-13.15-15.12-14.97-22.53
			c-0.21-0.85-0.91-1.44-1.73-1.44H654.9c-0.81,0-1.52,0.59-1.73,1.45c-1.82,7.5-8.99,10.3-10.26,17.86
			c-2.73,16.31-5.62,40.42-5.62,57.64c-0.01,53.39,4.42,98.79,5.47,112.62c0.07,0.99,0.82,1.77,1.75,1.79h158.72
			c0,0,1.72-0.78,1.79-1.79C808.99,998.57,809.56,965.45,809.22,937.47z"/>
		<path fill="#371200" d="M644.7,1310.12c-16.8,10.55-32.36,16.43-32.87,21.61c-0.49,4.99,2.98,8.26,6.23,8.26l90.73,0
			c0.7,0,3.07-9.98,0-19.82C696.9,1329.55,655.97,1334.18,644.7,1310.12z"/>
	</g>
	<path fill="#FF9A6A" d="M780.29,707.03c3.29-4.88,4.89-9.34,5.58-13.31c-0.02-1.12-0.04-2.23-0.07-3.36
		c-1.21-5.12-2.43-10.16-3.68-15.07c0,0,2.33,2.97,3.52,8c-0.44-25.01-5.89-46.41,11.84-53.4c-8.76-12.37-30.47-18.91-56.97-36.59
		c-7.79-2.81-11.81,6.29-17.06,7.93c-5.26-1.64-16.96-4.66-24.73-1.84c-10.08,4.54-32.49,12.37-39.4,15.76
		c11.73,38.49,25.2,68.29,13.35,104.2c6.13,16.2,6.48,41.12,3.59,68.95c-0.92,8.93-3.43,17.26-6.7,25.83
		c34.87-2.69,69.83-6.04,104.73-8.84c-1.76-5.48-3.07-11.05-3.69-16.99C766.86,751.9,771.33,720.42,780.29,707.03z"/>
	<g>
		<path fill="#8D837F" d="M780.63,725.63c0.55-3.18,17.5-22.16,10.06-52.43c9.54-4.6,18.08-8.48,28.99-11.06
			c-8.03-29.53-22.2-43.25-41.08-51.98c0.01-0.13-23.64-9.04-23.79-8.76c0.14-0.28-6.64,90.63-31.36,90.63
			c-18.7,0-32.25-89.85-32.25-89.85s-25.85,7.45-25.8,7.96c-0.04-0.25-19.95,4.64-33.44,30.51c-0.65,1.25-0.1,7.28-1.35,9.2
			c9.56,7.17,18.14,13.8,22.98,25.69c0.01-0.01-0.61,5.34-0.6,5.33c-1.94,31,9.47,43.38,10.47,54.4c2.55,28.14-2.21,73.1-6.71,91.16
			c-5.08,20.4-11.42,39.14-14.22,58.62l162.02-0.27c-5.81-22.38-10.75-48.38-15.51-61.83C784.9,811.26,775.08,757.86,780.63,725.63z
			"/>
		<path fill="#FFFFFF" d="M754.81,601.41c-4.22,14.57-42.2,30.4-63.61,0.79v282.87h63.61V601.41z"/>
	</g>
</g>
<g id="gHL">
	<g id="gHLp">
		<path fill="#FFAA74" d="M767.87,893.27c-0.66,14.18,29.84-8.24,32.24,0.24c-2.58,9.48-32.03,41.73-22.49,51.5
			c8.08,8.27,23.94-31.6,28.35-30.25c4.35,1.24-21.15,38.81-9.49,43.88c8.97,3.91,16.78-20.93,19.17-25.68
			c1.68-3.32,7.1-13.94,8.87-8.62c0.57,1.7-1.79,11.35-2.8,15.53c-0.99,4.06-3.05,14.22,3.53,15.18c7.5,1.1,9.61-12.36,10.03-14.23
			c1.97-8.98,4.56-17.39,7.78-25.81c2.93-7.64,8.08-15.4,8.51-23.69c0.61-11.42-8-18.7-18.11-22.06
			C821.15,865.17,768.66,876.4,767.87,893.27z"/>
		<path fill="#8D837F" d="M861.33,875.9l68.15-110.3c6.63-10.73,3.28-24.94-7.46-31.57v0c-10.73-6.63-24.94-3.28-31.57,7.46
			l-68.15,110.3c-6.63,10.73-3.28,24.94,7.46,31.57h0C840.49,889.99,854.69,886.63,861.33,875.9z"/>
	</g>
	<path fill="#8D837F" d="M784.76,673.71l96.68,86.4c9.41,8.41,23.98,7.59,32.39-1.82v0c8.41-9.41,7.59-23.98-1.82-32.39l-96.68-86.4
		c-9.41-8.41-23.98-7.59-32.39,1.82h0C774.53,650.73,775.35,665.31,784.76,673.71z"/>
</g>
<g id="gHR">
	<g id="gHRp">
		<path fill="#FFAA74" d="M502.2,550.19c-11.34-8.54-10.02,29.28-18.37,26.49c-6.38-7.48-16.4-49.98-29.86-47.61
			c-11.38,2.01,12.6,37.59,9,40.47c-3.48,2.89-20.12-39.35-30.89-32.58c-8.29,5.21,7.83,25.66,10.4,30.31
			c1.8,3.26,7.51,13.72,2.12,12.18c-1.72-0.49-8.36-7.88-11.24-11.07c-2.79-3.11-10.03-10.54-14.52-5.65
			c-5.13,5.58,4.79,14.91,6.1,16.31c6.31,6.69,11.79,13.57,16.93,20.98c4.66,6.72,8.16,15.36,14.77,20.39
			c9.09,6.94,19.96,3.94,28.43-2.52C495.37,610.04,515.69,560.36,502.2,550.19z"/>
		<path fill="#8D837F" d="M500.05,620.8l63.9,112.82c6.22,10.98,2.32,25.04-8.65,31.26l0,0c-10.98,6.22-25.04,2.32-31.26-8.65
			l-63.9-112.82c-6.22-10.98-2.32-25.04,8.65-31.26h0C479.77,605.93,493.84,609.82,500.05,620.8z"/>
	</g>
	<path fill="#8D837F" d="M663.92,667.62l-96.68,86.4c-9.41,8.41-23.98,7.59-32.39-1.82h0c-8.41-9.41-7.59-23.98,1.82-32.39
		l96.68-86.4c9.41-8.41,23.98-7.59,32.39,1.82l0,0C674.15,644.64,673.33,659.21,663.92,667.62z"/>
</g>
	<style>

		#w2pose1Svg #gEyes{
			transform-box: fill-box;
			-webkit-transform-origin: 50% 50%;
			-ms-transform-origin: 50% 50%;
			transform-origin: 50% 50%;
			-webkit-animation: animw2pose1eye1 3s infinite ease-in-out;
			animation: animw2pose1eye1 3s infinite ease-in-out;
		}

		@-webkit-keyframes animw2pose1eye1  {
			0%{-webkit-transform: scaleY(1);transform: scaleY(1);}
			5%{-webkit-transform: scaleY(0.1);transform: scaleY(0.1);}
			10%{-webkit-transform: scaleY(1);transform: scaleY(1);}
			60%{-webkit-transform: scaleY(1);transform: scaleY(1);}
			65%{-webkit-transform: scaleY(0.1);transform: scaleY(0.1);}
			70%{-webkit-transform: scaleY(1);transform: scaleY(1);}
			75%{-webkit-transform: scaleY(0.1);transform: scaleY(0.1);}
			80%{-webkit-transform: scaleY(1);transform: scaleY(1);}
			100%{-webkit-transform: scaleY(1);transform: scaleY(1);}
		}

		@keyframes animw2pose1eye1  {
			0%{-webkit-transform: scaleY(1);transform: scaleY(1);}
			5%{-webkit-transform: scaleY(0.1);transform: scaleY(0.1);}
			10%{-webkit-transform: scaleY(1);transform: scaleY(1);}
			60%{-webkit-transform: scaleY(1);transform: scaleY(1);}
			65%{-webkit-transform: scaleY(0.1);transform: scaleY(0.1);}
			70%{-webkit-transform: scaleY(1);transform: scaleY(1);}
			75%{-webkit-transform: scaleY(0.1);transform: scaleY(0.1);}
			80%{-webkit-transform: scaleY(1);transform: scaleY(1);}
			100%{-webkit-transform: scaleY(1);transform: scaleY(1);}
		}

		/************************/

		#w2pose1Svg #gEyesz{
			transform-box: fill-box;
			-webkit-transform-origin: 50% 50%;
			-ms-transform-origin: 50% 50%;
			transform-origin: 50% 50%;
			-webkit-animation: animw2pose1eye2 5s infinite ease-in-out;
			animation: animw2pose1eye2 5s infinite ease-in-out;
		}

		@-webkit-keyframes animw2pose1eye2{
			0%,20%{-webkit-transform: translateX(0px);transform: translateX(0px);}
			40%{-webkit-transform: translateX(-15px);transform: translateX(-15px);}
			50%{-webkit-transform: translateX(-15px);transform: translateX(-15px);}
			70%{-webkit-transform: translateX(10px);transform: translateX(10px);}
			80%{-webkit-transform: translateX(10px);transform: translateX(10px);}
			100%{-webkit-transform: translateX(0px);transform: translateX(0px);}
		}

		@keyframes animw2pose1eye2{
			0%,20%{-webkit-transform: translateX(0px);transform: translateX(0px);}
			40%{-webkit-transform: translateX(-15px);transform: translateX(-15px);}
			50%{-webkit-transform: translateX(-15px);transform: translateX(-15px);}
			70%{-webkit-transform: translateX(10px);transform: translateX(10px);}
			80%{-webkit-transform: translateX(10px);transform: translateX(10px);}
			100%{-webkit-transform: translateX(0px);transform: translateX(0px);}
		}

		/************************/

		#w2pose1Svg #gHRp{
			transform-box: fill-box;
			-webkit-transform-origin: 90% 90%;
			-ms-transform-origin: 90% 90%;
			transform-origin: 90% 90%;
			-webkit-animation: animw2pose1gHRp1 2s infinite alternate ease-in-out;
			animation: animw2pose1gHRp1 2s infinite alternate ease-in-out;
		}

		@-webkit-keyframes animw2pose1gHRp1{
			0%{-webkit-transform: rotate(0deg);transform: rotate(0deg);}
			100%{-webkit-transform: rotate(-15deg);transform: rotate(-15deg);}
		}

		@keyframes animw2pose1gHRp1{
			0%{-webkit-transform: rotate(0deg);transform: rotate(0deg);}
			100%{-webkit-transform: rotate(-15deg);transform: rotate(-15deg);}
		}

		/************************/

		#w2pose1Svg #gMouse{
			transform-box: fill-box;
			-webkit-transform-origin: 50% 0%;
			-ms-transform-origin: 50% 0%;
			transform-origin: 50% 0%;
			-webkit-animation: animw2pose1gMouse 0.8s infinite alternate ease-in-out;
			animation: animw2pose1gMouse 0.8s infinite alternate ease-in-out;
		}

		@-webkit-keyframes animw2pose1gMouse{
			0%{-webkit-transform: scaleY(1);transform: scaleY(1);}
			20%{-webkit-transform: scaleY(0.2);transform: scaleY(0.2);}
			40%{-webkit-transform: scaleY(1);transform: scaleY(1);}
			60%{-webkit-transform: scaleY(1);transform: scaleY(1);}
			80%{-webkit-transform: scaleY(0.2);transform: scaleY(0.2);}
			100%{-webkit-transform: scaleY(1);transform: scaleY(1);}
		}

		@keyframes animw2pose1gMouse{
			0%{-webkit-transform: scaleY(1);transform: scaleY(1);}
			20%{-webkit-transform: scaleY(0.2);transform: scaleY(0.2);}
			40%{-webkit-transform: scaleY(1);transform: scaleY(1);}
			60%{-webkit-transform: scaleY(1);transform: scaleY(1);}
			80%{-webkit-transform: scaleY(0.2);transform: scaleY(0.2);}
			100%{-webkit-transform: scaleY(1);transform: scaleY(1);}
		}

		/************************/

		#w2pose1Svg #gHair{
			transform-box: fill-box;
			-webkit-transform-origin: 50% 0%;
			-ms-transform-origin: 50% 0%;
			transform-origin: 50% 0%;
			-webkit-animation: animw2pose1gHair1 5s infinite alternate ease-in-out;
			animation: animw2pose1gHair1 5s infinite alternate ease-in-out;
		}

		@-webkit-keyframes animw2pose1gHair1{
			0%{-webkit-transform: rotate(-2deg);transform: rotate(-2deg);}
			100%{-webkit-transform: rotate(2deg);transform: rotate(2deg);}
		}

		@keyframes animw2pose1gHair1{
			0%{-webkit-transform: rotate(-2deg);transform: rotate(-2deg);}
			100%{-webkit-transform: rotate(2deg);transform: rotate(2deg);}
		}
	</style>
</svg>
