<?xml version="1.0" encoding="utf-8"?>
<svg viewBox="0 0 100 100" xmlns="http://www.w3.org/2000/svg" style="height: 100%; width: 100%; background: none; shape-rendering: auto;" width="200px" height="200px"><g class="ldl-scale" style="transform-origin: 50% 50%; transform: rotate(0deg) scale(0.8, 0.8);"><g class="ldl-ani"><linearGradient y2="79.344" x2="50" y1="22.624" x1="50" gradientUnits="userSpaceOnUse" id="a"><stop stop-color="#f5e6c8" offset="0" style="stop-color: rgb(244, 222, 18);"></stop><stop stop-color="#f8c788" offset=".509" style="stop-color: rgb(254, 144, 30);"></stop><stop stop-color="#f5e6c8" offset="1" style="stop-color: rgb(244, 222, 18);"></stop></linearGradient><g class="ldl-layer"><g class="ldl-ani" style="transform-origin: 50px 50px; transform: matrix(1, 0, 0, 1, 0, 0); animation: 2.43902s linear -1.32114s infinite normal forwards running tremble-913a88c2-8cfc-4cb9-88da-bd8a53661c8d;"><circle stroke-miterlimit="10" stroke-width="3" stroke="#f8b26a" fill="url(#a)" r="40" cy="50" cx="50" style="stroke: rgb(248, 178, 106);"></circle></g></g><g class="ldl-layer"><g class="ldl-ani"><g><g class="ldl-layer"><g class="ldl-ani" style="transform-origin: 50px 50px; transform: matrix(1, 0, 0, 1, 0, 0); animation: 2.43902s linear -1.42276s infinite normal forwards running tremble-913a88c2-8cfc-4cb9-88da-bd8a53661c8d;"><path stroke-miterlimit="10" stroke-width="4.336" stroke="#666" fill="#fff" d="M55.061 41.294c.62 5.851 5.571 10.409 11.587 10.409 6.435 0 11.652-5.217 11.652-11.652 0-4.501-2.552-8.406-6.288-10.347" style="fill: rgb(255, 255, 255); stroke: rgb(102, 102, 102);"></path></g></g><g class="ldl-layer"><g class="ldl-ani" style="transform-origin: 50px 50px; transform: matrix(1, 0, 0, 1, 0, 0); animation: 2.43902s linear -1.52439s infinite normal forwards running tremble-913a88c2-8cfc-4cb9-88da-bd8a53661c8d;"><circle r="5" cy="39.25" cx="65.75" style=""></circle></g></g><g class="ldl-layer"><g class="ldl-ani" style="transform-origin: 50px 50px; transform: matrix(1, 0, 0, 1, 0, 0); animation: 2.43902s linear -1.62602s infinite normal forwards running tremble-913a88c2-8cfc-4cb9-88da-bd8a53661c8d;"><path d="M73.691 27.663L53.877 41.207" stroke-miterlimit="10" stroke-linejoin="round" stroke-linecap="round" stroke-width="5" stroke="#000" fill="none" style=""></path></g></g></g></g></g><g class="ldl-layer"><g class="ldl-ani" style="transform-origin: 50px 50px; transform: matrix(1, 0, 0, 1, 0, 0); animation: 2.43902s linear -1.72764s infinite normal forwards running tremble-913a88c2-8cfc-4cb9-88da-bd8a53661c8d;"><path fill="#c33737" d="M81.43 27.772V64.57a4.93 4.93 0 1 1-9.86 0V18.1c3.286 1.866 6.573 5.237 9.86 9.672z" style="fill: rgb(195, 55, 55);"></path></g></g><g class="ldl-layer"><g class="ldl-ani" style="transform-origin: 50px 50px; transform: matrix(1, 0, 0, 1, 0, 0); animation: 2.43902s linear -1.82927s infinite normal forwards running tremble-913a88c2-8cfc-4cb9-88da-bd8a53661c8d;"><path fill="#c33737" d="M58.718 32.25a3.657 3.657 0 0 1-3.657-3.657V11.834c2.438.278 4.876.833 7.314 1.667v15.093a3.656 3.656 0 0 1-3.657 3.656z" style="fill: rgb(195, 55, 55);"></path></g></g><g class="ldl-layer"><g class="ldl-ani"><g><g class="ldl-layer"><g class="ldl-ani" style="transform-origin: 50px 50px; transform: matrix(1, 0, 0, 1, 0, 0); animation: 2.43902s linear -1.93089s infinite normal forwards running tremble-913a88c2-8cfc-4cb9-88da-bd8a53661c8d;"><path d="M65 70.241c0 6.787-6.716 2.584-15 2.584s-15 4.203-15-2.584 6.716-12.288 15-12.288 15 5.501 15 12.288z" style=""></path></g></g><g class="ldl-layer"><g class="ldl-ani" style="transform-origin: 50px 50px; transform: matrix(1, 0, 0, 1, 0, 0); animation: 2.43902s linear -2.03252s infinite normal forwards running tremble-913a88c2-8cfc-4cb9-88da-bd8a53661c8d;"><path fill="#c33737" d="M40.635 84.786a3.39 3.39 0 0 1-3.389-3.389v-7.421c2.285.461 3.785-.258 6.777-.579v7.999a3.388 3.388 0 0 1-3.388 3.39z" style="fill: rgb(195, 55, 55);"></path></g></g></g></g></g><g class="ldl-layer"><g class="ldl-ani"><g><g class="ldl-layer"><g class="ldl-ani" style="transform-origin: 50px 50px; transform: matrix(1, 0, 0, 1, 0, 0); animation: 2.43902s linear -2.13415s infinite normal forwards running tremble-913a88c2-8cfc-4cb9-88da-bd8a53661c8d;"><path fill="#fff" d="M44.94 40.397C44.367 45.795 39.8 50 34.25 50c-5.937 0-10.75-4.813-10.75-10.75a10.75 10.75 0 0 1 5.801-9.546" style="fill: rgb(255, 255, 255);"></path></g></g><g class="ldl-layer"><g class="ldl-ani" style="transform-origin: 50px 50px; transform: matrix(1, 0, 0, 1, 0, 0); animation: 2.43902s linear -2.23577s infinite normal forwards running tremble-913a88c2-8cfc-4cb9-88da-bd8a53661c8d;"><circle r="5" cy="39.25" cx="34.25" style=""></circle></g></g><g class="ldl-layer"><g class="ldl-ani" style="transform-origin: 50px 50px; transform: matrix(1, 0, 0, 1, 0, 0); animation: 2.43902s linear -2.3374s infinite normal forwards running tremble-913a88c2-8cfc-4cb9-88da-bd8a53661c8d;"><path d="M26.309 27.663l19.814 13.544" stroke-miterlimit="10" stroke-linejoin="round" stroke-linecap="round" stroke-width="5" stroke="#000" fill="none" style=""></path></g></g><g class="ldl-layer"><g class="ldl-ani" style="transform-origin: 50px 50px; transform: matrix(1, 0, 0, 1, 0, 0); animation: 2.43902s linear -2.43902s infinite normal forwards running tremble-913a88c2-8cfc-4cb9-88da-bd8a53661c8d;"><path fill="#c33737" d="M29.161 60.552a3.548 3.548 0 0 1-3.548-3.548V45.635c2.404 2.651 4.771 4.147 7.096 4.365v7.004a3.549 3.549 0 0 1-3.548 3.548z" style="fill: rgb(195, 55, 55);"></path></g></g></g></g></g><metadata xmlns:d="https://loading.io/stock/">
<d:name>wounded</d:name>
<d:tags>wounded,hit,injured,hurt,harm,beat,bruises,blood,bleeding,battle,war,combat,fight,bullied,victim</d:tags>
<d:license>by</d:license>
<d:slug>eu3iib</d:slug>
</metadata></g></g><style id="tremble-913a88c2-8cfc-4cb9-88da-bd8a53661c8d" data-anikit="">@keyframes tremble-913a88c2-8cfc-4cb9-88da-bd8a53661c8d {
  0% { transform: translate(0px,0px) rotate(0deg) scale(1) }
  16.66667% { transform: translate(0.43789px,-0.17134px) rotate(0deg) scale(1) }
  33.33333% { transform: translate(-0.47963px,-0.384px) rotate(0deg) scale(1) }
  50% { transform: translate(0.35523px,-0.25102px) rotate(0deg) scale(1) }
  66.66667% { transform: translate(0.13669px,-0.08764px) rotate(0deg) scale(1) }
  83.33333% { transform: translate(-0.23717px,0.49287px) rotate(0deg) scale(1) }
  100% { transform: translate(0,0) rotate(0) scale(1) }
}</style><!-- [ldio] generated by https://loading.io/ --></svg>