<?xml version="1.0" encoding="utf-8"?>
<!-- Generator: Adobe Illustrator 16.0.0, SVG Export Plug-In . SVG Version: 6.00 Build 0)  -->
<!DOCTYPE svg PUBLIC "-//W3C//DTD SVG 1.1//EN" "http://www.w3.org/Graphics/SVG/1.1/DTD/svg11.dtd">
<svg version="1.1" id="Layer_1" xmlns="http://www.w3.org/2000/svg" xmlns:xlink="http://www.w3.org/1999/xlink" x="0px" y="0px"
	 width="60px" height="60px" viewBox="0 0 60 60" enable-background="new 0 0 60 60" xml:space="preserve">
<g>
	<path fill-rule="evenodd" clip-rule="evenodd" fill="#00BBE7" d="M28.804,37.914c0,0-7.156-8.911-18.796-10.402
		c-0.97-0.124-3.921-0.867-3.667,1.09c0.078,0.604,1.329,0.812,3.257,0.942c1.93,0.13,4.535,0.225,7.922,1.915
		c-4.469-1.103-9.739-1.568-14.14,0.084c-1.203,0.451-2.131,1.036-0.835,1.517c0.715,0.266,1.678-0.189,2.564-0.507
		c3.36-1.207,6.753-1.365,10.788-0.068c-5.595-0.081-7.42,0.113-9.422,1.595c-0.703,0.521-0.914,1.852,1.582,0.647
		c0.858-0.415,1.802-0.581,2.646-0.729c2.323-0.402,5.064-0.297,7.751,0.229c3.347,0.654,7.517,2.514,9.919,4.11
		C29.155,37.993,28.804,37.914,28.804,37.914z"/>
	<g>
		<path fill-rule="evenodd" clip-rule="evenodd" fill="#F37A54" d="M42.831,26.072c0.01-0.071,0.055-0.404,0.268-0.575
			c0.214-0.172,0.252,0.106,0.109,0.398c0.171-0.096,0.436-0.283,0.592-0.204c0.157,0.08-0.146,0.335-0.42,0.44
			c0,0,0.411-0.148,0.6-0.058c0.188,0.09-0.222,0.325-0.52,0.341c0,0,0.32-0.01,0.444,0.13c0.123,0.139-0.5,0.274-0.868,0.074
			c-0.005-0.002-0.011-0.006-0.016-0.009c-1.313,0.484-2.764,0.851-4.167,0.92l-0.022-0.454c1.347-0.068,2.787-0.301,3.992-0.937
			C42.824,26.118,42.827,26.095,42.831,26.072z"/>
		<path fill-rule="evenodd" clip-rule="evenodd" fill="#F37A54" d="M37.513,29.42c0.037-0.094,0.378-0.344,0.528-0.316
			c0.818,0.185,2.234,0.152,2.05,0.884c-0.122,0.487-0.943,1.192-1.328,1.4c1.239,0.047,1.909,0.322,2.745,0.781
			c0,0.15-0.097,0.354-0.396,0.307c-0.155-0.024-0.328-0.096-0.461-0.183c-0.675,0.16-1.548-0.397-1.897-0.335
			c-0.289,0.054-0.926-0.035-0.982-0.166c-0.083-0.193,0.137-0.379,0.403-0.521c0.214-0.113,1.138-0.551,1.333-1.192
			C39.66,29.577,38.146,29.596,37.513,29.42z"/>
		<path fill-rule="evenodd" clip-rule="evenodd" fill="#FFC132" d="M55.199,28.576c0,0,1.785,0.748,2.743,1.396
			c0,0-2.211,4.281-7.032,6.277c-4.82,1.994-18.583,2.254-22.497,2.15c-0.777-0.454-2.298-1.664-3.214-2.825
			c0,0,1.322-1.115,2.436-1.633c0,0,1.075-2.042,1.607-2.488c0,0,0.336-0.621,3.059-0.389c2.721,0.234,6.635,1.115,8.837,0.311
			c2.203-0.803,5.651-3.654,8.088-3.939C51.662,27.15,54.723,28.148,55.199,28.576z"/>
		<path fill-rule="evenodd" clip-rule="evenodd" fill="#76A360" d="M37.493,29.43c0.57,0.188,1.454,0.261,1.766,0.452
			c0.251-0.183,0.39-0.3,0.624-0.442c-0.47-0.176-1.479-0.319-2.188-0.467C37.631,29.057,37.456,29.256,37.493,29.43z"/>
		<path fill-rule="evenodd" clip-rule="evenodd" fill="#3D3838" d="M37.493,29.43c0.389,0.127,0.921,0.202,1.319,0.297
			c0.211-0.134,0.426-0.263,0.548-0.433c-0.506-0.114-1.162-0.216-1.666-0.321C37.631,29.057,37.456,29.256,37.493,29.43z"/>
		<path fill-rule="evenodd" clip-rule="evenodd" fill="#3D3838" d="M46.245,27.254c0,0-2.281-2.073-3.966-2.488
			c0,0-0.829,0.104,0.078,1.166s1.348,2.281,1.374,2.566C43.757,28.784,46.245,27.254,46.245,27.254z"/>
		<path fill-rule="evenodd" clip-rule="evenodd" fill="#3D3838" d="M57.786,29.795c-0.008,0.001-0.222,0.047-0.813,0.167
			c-4.243,0.863-21.979,4.411-31.793,5.41c-0.282,0.018-0.21,0.432,0.04,0.405c9.816-1.001,27.522-4.539,31.81-5.412
			c0.607-0.123,0.831-0.17,0.838-0.172C58.209,30.123,58.113,29.728,57.786,29.795z"/>
		<path fill-rule="evenodd" clip-rule="evenodd" fill="#3D3838" d="M54.723,28.148c-2.013-0.897-4.705-1.838-7.337-1.956
			c0,0-5.936,3.447-8.035,3.887c-2.1,0.441-8.604-0.259-12.052-0.077c0,0-0.285,0.26-0.233,0.545
			c0.052,0.285,2.178,0.906,2.178,0.906s0.958-0.233,5.728,0.467c4.769,0.7,6.66,0.622,10.627-2.125
			c3.965-2.748,7.857-1.898,9.602-1.218C55.189,28.495,55.083,28.329,54.723,28.148z"/>
		<path fill-rule="evenodd" clip-rule="evenodd" fill="#F37A54" d="M39.938,20.516c1.539,0.832,2.231,2.605,1.855,4.23
			c-0.256,0.907-0.59,1.754-1.059,2.575c-0.391,0.681-0.852,1.318-1.363,1.863c-1.966,2.095-7.15-0.899-6.305-3.521
			c0.386-1.201,0.903-2.447,1.624-3.504c-0.065-0.017-0.126-0.047-0.179-0.093c-0.209-0.182-0.202-0.532,0.015-0.781
			s0.563-0.304,0.771-0.122c0.037,0.032,0.067,0.07,0.091,0.111C36.553,20.055,38.416,19.694,39.938,20.516z"/>
		<path fill-rule="evenodd" clip-rule="evenodd" fill="#76A360" d="M39.371,29.184c-1.966,2.095-7.15-0.899-6.305-3.521
			C34.136,27.625,37.172,29.034,39.371,29.184z"/>
		<path fill-rule="evenodd" clip-rule="evenodd" fill="#CD1432" d="M40.693,27.391c-0.381,0.654-0.828,1.267-1.322,1.793
			c-2.629-0.137-5.678-1.999-6.305-3.521c0.217-0.677,0.477-1.368,0.791-2.032C34.403,24.196,36.594,26.234,40.693,27.391z"/>
		<ellipse fill-rule="evenodd" clip-rule="evenodd" fill="#F37A54" cx="37.472" cy="26.791" rx="0.474" ry="0.479"/>
		<path fill-rule="evenodd" clip-rule="evenodd" fill="#3D3838" d="M35.384,21.28c0.686,0.586,2.076,0.605,3.007-0.637
			c0.377,1.586,2.262,1.673,3.493,2.948c-0.087-1.25-0.769-2.438-1.946-3.074C38.414,19.693,36.549,20.056,35.384,21.28z"/>
		<polygon fill-rule="evenodd" clip-rule="evenodd" fill="#3D3838" points="37.443,20.252 36.987,19.762 37.44,19.979 
			37.405,19.389 37.755,20.026 38.139,19.568 37.928,20.161 		"/>
		<g>
			<path fill-rule="evenodd" clip-rule="evenodd" fill="#3D3838" d="M38.508,24.699c-0.42,0.105-0.317,0.595-0.024,0.768
				c0.362,0.213,0.829-0.065,0.655-0.495c0.271,0.418-0.239,0.84-0.704,0.578c-0.252-0.141-0.352-0.444-0.258-0.648
				C38.228,24.79,38.347,24.669,38.508,24.699z"/>
			<path fill-rule="evenodd" clip-rule="evenodd" fill="#3D3838" d="M37.083,24.246l0.112,0.005
				c-0.292,1.099,1.667,1.794,2.377,2.037C38.692,26.239,36.769,25.429,37.083,24.246z"/>
			<path fill-rule="evenodd" clip-rule="evenodd" fill="#3D3838" d="M37.372,24.405c-0.194-0.19-0.378-0.134-0.534-0.061
				C37.009,24.06,37.318,24.147,37.372,24.405z"/>
			<path fill-rule="evenodd" clip-rule="evenodd" fill="#3D3838" d="M38.207,22.17c0,0,0.583,0.532,1.104,0.474l0.071-0.41
				C39.383,22.234,39.069,22.514,38.207,22.17z"/>
			<path fill-rule="evenodd" clip-rule="evenodd" fill="#3D3838" d="M41.364,23.875c0,0-0.766-0.195-1.002-0.664l0.303-0.285
				C40.665,22.927,40.604,23.342,41.364,23.875z"/>
		</g>
		<path fill-rule="evenodd" clip-rule="evenodd" fill="#3D3838" d="M41.279,26.219c-1.162,0.381-2.43,0.652-3.598,0.601
			c-0.056-0.249-0.031-0.352-0.022-0.455c1.325-0.105,3.078-0.49,3.953-1.028C41.512,25.636,41.403,25.93,41.279,26.219z"/>
		<path fill-rule="evenodd" clip-rule="evenodd" fill="#F37A54" d="M36.67,29.776c0.037-0.094,0.379-0.344,0.529-0.316
			c0.817,0.184,2.234,0.152,2.05,0.884c-0.123,0.486-0.944,1.192-1.328,1.401c1.094-0.068,1.746-0.15,2.81,0.05
			c0.049,0.519-0.637,0.632-0.931,0.44c-0.796,0.378-1.54,0.016-1.89,0.08c-0.289,0.053-0.926-0.035-0.981-0.167
			c-0.083-0.193,0.136-0.38,0.402-0.521c0.215-0.113,1.138-0.551,1.333-1.192C38.817,29.933,37.304,29.952,36.67,29.776z"/>
		<path fill-rule="evenodd" clip-rule="evenodd" fill="#3D3838" d="M39.97,27.171c-0.162,0.293-0.621,1.051-1.462,1.911
			c0.061,0.011,0.121,0.021,0.182,0.031c0.831-0.865,1.279-1.62,1.427-1.894C40.067,27.203,40.018,27.187,39.97,27.171z"/>
		<path fill-rule="evenodd" clip-rule="evenodd" fill="#3D3838" d="M38.834,29.596c-0.518-0.129-1.362-0.244-1.966-0.271
			c0.009,0.088-0.068,0.32-0.201,0.457C37.447,29.959,38.22,29.927,38.834,29.596z"/>
		<path fill-rule="evenodd" clip-rule="evenodd" fill="#3D3838" d="M39.127,29.819c0.043-0.027,0.087-0.054,0.12-0.076
			c-0.121-0.053-0.229-0.1-0.494-0.163c-0.153-0.036-0.297,0.023-0.383,0.054C38.662,29.691,38.938,29.747,39.127,29.819z"/>
		<path fill-rule="evenodd" clip-rule="evenodd" fill="#76A360" d="M36.667,29.783c0.571,0.187,1.453,0.261,1.766,0.452
			c0.251-0.183,0.389-0.3,0.624-0.442c-0.47-0.176-1.479-0.319-2.188-0.467C36.804,29.409,36.629,29.61,36.667,29.783z"/>
		<g>
			<path fill-rule="evenodd" clip-rule="evenodd" fill="#3D3838" d="M39.307,23.497l0.514,0.275l-0.146,0.29
				c0,0-0.152-0.324-0.506-0.272L39.307,23.497z"/>
			<path fill-rule="evenodd" clip-rule="evenodd" fill="#3D3838" d="M39.817,23.563c-1.28,2.072,1.249,3.083,2.113,1.133
				L39.817,23.563z"/>
			<path fill-rule="evenodd" clip-rule="evenodd" fill="#3D3838" d="M39.484,23.384c-1.017,2.213-3.259,0.667-2.114-1.133
				L39.484,23.384z"/>
			<polygon fill-rule="evenodd" clip-rule="evenodd" fill="#3D3838" points="37.394,22.371 35.653,20.938 35.384,21.28 
				37.266,22.571 			"/>
			<g>
				<path fill-rule="evenodd" clip-rule="evenodd" fill="#978E8B" d="M41.171,25.52l-0.39-1.392l-0.6-0.321l0.646,1.855
					C40.943,25.633,41.059,25.586,41.171,25.52z"/>
				<path fill-rule="evenodd" clip-rule="evenodd" fill="#978E8B" d="M40.555,25.696l-0.758-1.977
					c-0.049,0.085-0.091,0.17-0.126,0.252l0.746,1.718C40.463,25.695,40.509,25.697,40.555,25.696z"/>
			</g>
			<g>
				<path fill-rule="evenodd" clip-rule="evenodd" fill="#978E8B" d="M38.772,24.221l-0.391-1.378l-0.594-0.318l0.64,1.866
					C38.544,24.356,38.659,24.301,38.772,24.221z"/>
				<path fill-rule="evenodd" clip-rule="evenodd" fill="#978E8B" d="M38.165,24.431l-0.791-2.063
					c-0.049,0.081-0.091,0.162-0.126,0.242l0.773,1.813C38.069,24.429,38.117,24.432,38.165,24.431z"/>
			</g>
		</g>
		<path fill-rule="evenodd" clip-rule="evenodd" fill="#F37A54" d="M41.659,25.362c0.01-0.072,0.055-0.403,0.268-0.576
			c0.128-0.103,0.368-0.113,0.552-0.048c0.225,0.08,0.365,0.229,0.362,0.465c-0.003,0.122-0.041,0.253-0.178,0.253
			c-0.166-0.001-0.177-0.075-0.172-0.144c0.009-0.171-0.142-0.215-0.232-0.157c-0.126,0.08,0.002,0.359-0.084,0.591
			c-0.068,0.184-0.25,0.162-0.326,0.15c-1.313,0.484-2.765,0.851-4.167,0.921c-0.38,0.051-0.404-0.424-0.022-0.455
			c1.347-0.067,2.787-0.301,3.991-0.936C41.652,25.408,41.654,25.386,41.659,25.362z"/>
	</g>
</g>
</svg>
