<svg width="400" height="400" xmlns="http://www.w3.org/2000/svg" xmlns:xlink="http://www.w3.org/1999/xlink">
 <g>
  <title>background</title>
 </g>
 <style>#big{ animation: big 10s ease-in forwards;


}
@keyframes big {
	0%{ transform:translateX(-600px);}
	7%{ transform:translateX(-40px);}
	100%{ transform:translateX(-40px);}
}
#coin1,#coin2,#coin3{ animation: coin1 10s linear forwards;
}
@keyframes coin1 {
	0%{ transform:translateX(150px);}
	100%{ transform:translateX(-750px);}}

	#buildings{ animation: bd 15s linear forwards;
}
@keyframes bd {
	0%{ transform:translateX(50px);}
	100%{ transform:translateX(-80px);}}

#cloud1_1_,#cloud3,#cloud2{ animation: cl 15s linear forwards;
}
@keyframes cl {
	0%{ transform:translateX(150px);}
	100%{ transform:translateX(-350px);}}

	

#arm1 { animation: arm1 2s linear alternate infinite;

    transform-origin:90% 90%;
    transform-box: fill-box;}

  @keyframes arm1{
    0%{transform:rotateZ(-5deg);}
	100%{transform: rotateZ(5deg);}}

  #arm2 { animation: arm2 2s linear alternate infinite;

    transform-origin:10% 10%;
    transform-box: fill-box;}

  @keyframes arm2{
    0%{transform:rotateZ(5deg);}
	100%{transform: rotateZ(-5deg);}}

  #leg1 { animation: l1 2s linear alternate infinite;

    transform-origin:10% 10%;
    transform-box: fill-box;}

  @keyframes l1{
    0%{transform:rotateZ(-5deg);}
	100%{transform: rotateZ(5deg);}

  }
  #leg2 { animation: l2 2s linear alternate infinite;

    transform-origin:80% 0%;
    transform-box: fill-box;}

  @keyframes l2{
    0%{transform:rotateZ(5deg);}
	100%{transform: rotateZ(-3deg);}

  }


}
@keyframes bad {
	0%{ transform:translateX(-400px);}
	5%{ transform:translateX(-400px);}
	50%{ transform:translateX(-100px);}

	100%{ transform:translateX(-100px);}
	}


#speed { animation: sd 10s linear forwards;}

@keyframes sd {
	0%{ transform:translateX(-400px);}
	10%{ transform:translateX(-400px);}
	50%{ transform:translateX(0px);}
    100%{ transform:translateX(-50px);}
}

#red { animation: red 2s linear alternate infinite;

    transform-origin:80% 30%;
    transform-box: fill-box;}

  @keyframes red {
    0%{transform:rotateZ(10deg);}
	100%{transform: rotateZ(-5deg);}

  }

    #eyes { animation: ey 10s linear alternate infinite;

    transform-origin:50% 50%;
    transform-box: fill-box;}

  @keyframes ey{
    0%{transform:rotateX(0deg);}
	20%{transform:rotateX(0deg);}
	22%{transform:rotateX(80deg);}
	24%{transform:rotateX(0deg);}
	26%{transform:rotateX(80deg);}
	28%{transform:rotateX(0deg);}
	60%{transform:rotateX(0deg);}
	62%{transform:rotateX(80deg);}
	64%{transform:rotateX(0deg);}
	66%{transform:rotateX(80deg);}
	68%{transform:rotateX(0deg);}
    100%{transform: rotateX(0deg);}

  }
  #eyes1{ animation: ey1 8s linear alternate infinite;}
@keyframes ey1 {
	0%{ transform:translateX(0px);}
	30%{ transform:translateX(0px);}
	40%{ transform:translateX(-5px);}
	70%{ transform:translateX(-5px);}
	80%{ transform:translateX(0px);}

    100%{ transform:translateX(0px);}
}

  #eyebrow{ animation: eyb 8s linear alternate infinite;}
@keyframes eyb {
	0%{ transform:translateY(0px);}
	30%{ transform:translateY(0px);}
	40%{ transform:translateY(-2px);}
	70%{ transform:translateY(-2x);}
	80%{ transform:translateY(0px);}

    100%{ transform:translateY(0px);}
}</style>
 <g>
  <title>Layer 1</title>
  <g stroke="null" id="man">
   <g stroke="null" id="red">
    <path stroke="null" fill="#E24640" d="m273.00913,204.82166c-14.03935,28.24992 -28.76355,35.95444 -53.0756,46.05592c-16.43631,6.84846 -36.8105,6.84846 -36.8105,6.84846s-32.01657,4.28029 -49.82258,-6.33483c-4.10908,-2.39696 -7.3621,-5.64998 -9.41664,-9.93027c-10.61512,-22.77114 -11.29997,-34.07111 -60.78012,-54.10287c-41.60442,-16.77874 -37.66655,-51.87712 -35.26959,-62.66345c0.51363,-2.05454 0.85606,-3.25302 0.85606,-3.25302c36.8105,30.13324 126.35417,-0.51363 169.4995,-2.05454c19.86055,-0.68485 39.37867,6.67725 54.6165,14.89541c17.97722,9.58785 22.25751,21.91509 24.31205,26.88022c3.25302,7.87573 5.64998,24.48326 -4.10908,43.65896" id="svg_108"/>
    <g stroke="null" opacity="0.4" id="svg_109">
     <g stroke="null" id="svg_110">
      <g stroke="null" id="svg_111">
       <defs stroke="null" transform="translate(0 -5) translate(11.1803 0) translate(-23.7697 23.7697) translate(-13.0384 0) translate(-24.99 -24.99) translate(0 31.9531) translate(-120.509 -120.509) translate(63.6787 7.71887) scale(1.31946 1.31946) translate(-63.6787 -7.71887) translate(50.5634 30.0667) scale(1.11015 1.11015) translate(-50.5634 -30.0667) translate(26.3991 10.0231) scale(1.0899 1.0899) translate(-26.3991 -10.0231) translate(10.2773 9.19639) scale(1.02007 1.02007) translate(-10.2773 -9.19639) translate(-1.35402 23.6113) scale(1.05133 1.05133) translate(1.35402 -23.6113)">
        <rect stroke="null" id="SVGID_19_" x="168" y="82.9" width="145.1" height="75.7"/>
       </defs>
       <clipPath stroke="null" transform="translate(0 -5) translate(11.1803 0) translate(-23.7697 23.7697) translate(-13.0384 0) translate(-24.99 -24.99) translate(0 31.9531) translate(-120.509 -120.509) translate(63.6787 7.71887) scale(1.31946 1.31946) translate(-63.6787 -7.71887) translate(50.5634 30.0667) scale(1.11015 1.11015) translate(-50.5634 -30.0667) translate(26.3991 10.0231) scale(1.0899 1.0899) translate(-26.3991 -10.0231) translate(10.2773 9.19639) scale(1.02007 1.02007) translate(-10.2773 -9.19639) translate(-1.35402 23.6113) scale(1.05133 1.05133) translate(1.35402 -23.6113)" id="SVGID_20_">
        <use stroke="null" xlink:href="#SVGID_19_" id="svg_112" y="3.94418" x="-147.01948"/>
       </clipPath>
       <path stroke="null" clip-path="url(#SVGID_20_)" fill="#E24640" d="m136.8959,252.07606c-1.19848,-0.17121 -2.22575,-0.34242 -3.42423,-0.51363c-4.10908,-2.39696 -7.3621,-5.64998 -9.41664,-9.93027c-10.61512,-22.77114 -11.29997,-34.24232 -60.78012,-54.10287c-14.21056,-5.64998 -23.11357,-13.52572 -28.59234,-21.91509c0,0 0,0 0,0c-10.61512,-16.09389 -8.21816,-33.72869 -6.67725,-40.74836c5.30756,8.56058 14.03935,17.12116 28.93476,20.88782c52.21954,12.84087 171.0404,-21.05903 204.9403,0.68485c31.67415,20.37418 12.66966,124.64205 -124.98448,105.63757" id="svg_113"/>
      </g>
     </g>
    </g>
    <g stroke="null" opacity="0.5" id="svg_114">
     <g stroke="null" id="svg_115">
      <g stroke="null" id="svg_116">
       <defs stroke="null" transform="translate(0 -5) translate(11.1803 0) translate(-23.7697 23.7697) translate(-13.0384 0) translate(-24.99 -24.99) translate(0 31.9531) translate(-120.509 -120.509) translate(63.6787 7.71887) scale(1.31946 1.31946) translate(-63.6787 -7.71887) translate(50.5634 30.0667) scale(1.11015 1.11015) translate(-50.5634 -30.0667) translate(26.3991 10.0231) scale(1.0899 1.0899) translate(-26.3991 -10.0231) translate(10.2773 9.19639) scale(1.02007 1.02007) translate(-10.2773 -9.19639) translate(-1.35402 23.6113) scale(1.05133 1.05133) translate(1.35402 -23.6113)">
        <rect stroke="null" id="SVGID_21_" x="172.7" y="106.7" width="88.5" height="50.5"/>
       </defs>
       <clipPath stroke="null" transform="translate(0 -5) translate(11.1803 0) translate(-23.7697 23.7697) translate(-13.0384 0) translate(-24.99 -24.99) translate(0 31.9531) translate(-120.509 -120.509) translate(63.6787 7.71887) scale(1.31946 1.31946) translate(-63.6787 -7.71887) translate(50.5634 30.0667) scale(1.11015 1.11015) translate(-50.5634 -30.0667) translate(26.3991 10.0231) scale(1.0899 1.0899) translate(-26.3991 -10.0231) translate(10.2773 9.19639) scale(1.02007 1.02007) translate(-10.2773 -9.19639) translate(-1.35402 23.6113) scale(1.05133 1.05133) translate(1.35402 -23.6113)" id="SVGID_22_">
        <use stroke="null" xlink:href="#SVGID_21_" id="svg_117" y="3.94418" x="-147.01948"/>
       </clipPath>
       <path stroke="null" clip-path="url(#SVGID_22_)" fill="#E24640" d="m136.8959,252.07606c-1.19848,-0.17121 -2.22575,-0.34242 -3.42423,-0.51363c-4.10908,-2.39696 -7.3621,-5.64998 -9.41664,-9.93027c-10.61512,-22.77114 -11.29997,-34.24232 -60.78012,-54.10287c-14.21056,-5.64998 -23.11357,-13.52572 -28.59234,-21.91509c15.23783,10.95754 35.95444,22.59993 58.72558,25.51053c47.25441,6.33483 36.46807,15.23783 31.50294,24.82568c-4.96514,9.58785 29.61961,20.03176 53.58923,15.58026c19.1757,-3.59544 1.19848,15.75147 -41.60442,20.54539" id="svg_118"/>
      </g>
     </g>
    </g>
   </g>
   <g stroke="null" id="leg2">
    <path stroke="null" d="m54.54311,355.14546c-1.36969,-1.71212 -8.73179,-5.13635 -13.52572,-7.70452c-0.68485,-2.05454 -1.36969,-3.76666 -1.5409,-4.79393c-0.17121,-1.02727 0,-2.22575 0.17121,-3.59544c0.17121,0 0.34242,-0.17121 0.34242,-0.34242c0.17121,-0.34242 0,-0.51363 -0.17121,-0.68485l0,0c0.17121,-0.68485 0.17121,-1.19848 0.34242,-1.71212l0.17121,0c0.17121,0.17121 0.51363,0 0.51363,-0.34242c0,-0.17121 0,-0.51363 -0.17121,-0.51363l-0.34242,0.17121c0.17121,-0.51363 0.17121,-1.02727 0.34242,-1.5409l0.17121,0c0.17121,0.17121 0.51363,-0.17121 0.68485,-0.34242c0.17121,-0.17121 0,-0.51363 -0.34242,-0.51363l-0.34242,-0.17121c0.34242,-1.02727 0.51363,-1.71212 0.51363,-1.71212l-1.19848,-1.19848l10.61512,-5.13635l-3.76666,-11.64239l-14.03935,6.50604l-2.22575,-0.85606c0,0 -6.50604,1.19848 -9.75906,3.76666c-3.25302,2.73939 -4.10908,4.10908 -4.10908,4.10908s3.25302,9.58785 4.10908,10.44391l3.59544,-0.85606c0,0 0.17121,1.36969 0.68485,3.42423c0.85606,4.79393 2.39696,13.01208 3.76666,15.40905c0.68485,1.02727 1.5409,1.5409 2.9106,2.22575c4.4515,2.22575 18.31964,5.47877 20.37418,4.10908c1.88333,-1.02727 4.10908,-4.10908 2.22575,-6.50604" id="svg_119"/>
    <polygon stroke="null" fill="#24241D" points="188.9442901611328,227.9352569580078 116.00814819335938,291.79718017578125 42.90067672729492,332.71673583984375 37.07954406738281,315.7668151855469 97.17487335205078,272.6214904785156 153.33218383789062,196.94593811035156 " id="svg_120"/>
   </g>
   <g stroke="null" id="leg1">
    <path stroke="null" d="m142.03225,355.31667c-0.17121,-2.9106 -8.21816,-14.7242 -9.07422,-18.31964c-0.34242,-1.02727 -0.34242,-2.22575 -0.34242,-3.59544c0.17121,0 0.34242,-0.17121 0.34242,-0.34242c0,-0.34242 0,-0.51363 -0.34242,-0.51363l0,0c0,-0.68485 0,-1.19848 0.17121,-1.71212l0.17121,0c0.17121,0 0.51363,-0.17121 0.51363,-0.34242c0,-0.17121 -0.17121,-0.51363 -0.17121,-0.51363l-0.34242,-0.17121c0,-0.51363 0.17121,-1.02727 0.17121,-1.5409l0.17121,0c0.17121,0.17121 0.51363,-0.17121 0.51363,-0.34242c0.17121,-0.17121 -0.17121,-0.51363 -0.34242,-0.51363l-0.34242,-0.17121c0.17121,-1.02727 0.34242,-1.88333 0.34242,-1.88333l-1.36969,-1.02727l9.93027,-6.50604l-5.30756,-10.95754l-13.01208,8.38937l-2.39696,-0.51363c0,0 -6.33483,2.05454 -9.24543,4.96514c-2.73939,3.08181 -3.59544,4.62271 -3.59544,4.62271s4.4515,9.24543 5.47877,9.93027l3.42423,-1.36969c0,0 2.39696,7.3621 4.28029,11.98481c1.88333,4.4515 12.15602,14.89541 14.55299,14.7242c2.56817,0 5.99241,-1.36969 5.82119,-4.28029" id="svg_121"/>
    <path stroke="null" fill="#31312A" d="m162.92006,190.43988c-4.79393,-3.76666 -11.64239,-3.76666 -16.2651,0.17121c-5.99241,4.96514 -22.0863,16.43631 -18.66207,26.36659c4.96514,14.7242 23.6272,29.79082 38.18019,39.20746c17.46358,11.12875 22.25751,15.06662 22.25751,15.06662l-65.74526,42.63169l13.18329,10.10149l78.24371,-35.95444c0,0 19.68934,-8.04695 20.20297,-15.75147c0.68485,-8.38937 -8.04695,-14.7242 -8.04695,-14.7242l-63.3483,-67.11495z" id="svg_122"/>
   </g>
   <g stroke="null" id="arm2">
    <path stroke="null" fill="#FDCB9A" d="m330.36502,197.63077l4.62271,12.32724l6.84846,-3.08181c2.22575,2.73939 6.16362,3.59544 9.93027,2.56817c3.76666,-1.02727 11.8136,-3.93787 15.75147,-5.30756c3.42423,-1.19848 6.50604,-2.73939 6.33483,-4.10908c0,-0.17121 0,-0.34242 -0.17121,-0.51363c-1.02727,-1.5409 -3.59544,-0.17121 -7.3621,1.02727c-3.76666,1.02727 -7.53331,1.36969 -6.84846,0.51363c0.68485,-0.85606 5.30756,-2.05454 9.93027,-3.42423c4.79393,-1.36969 7.3621,-3.08181 7.19089,-4.62271c0,-0.17121 0,-0.17121 0,-0.34242c-0.51363,-1.5409 -4.4515,-0.34242 -8.903,0.85606c-3.25302,1.02727 -7.87573,2.05454 -8.21816,2.05454l0,0c0.85606,-0.68485 9.75906,-4.4515 13.69693,-5.99241c3.08181,-1.19848 4.4515,-2.73939 4.10908,-3.76666c0,-0.34242 -0.34242,-0.68485 -0.85606,-1.02727c-1.19848,-0.68485 -11.29997,3.25302 -15.23783,4.4515c-1.19848,0.34242 -3.76666,1.19848 -3.76666,1.02727c0,-0.68485 4.4515,-2.39696 9.07422,-4.79393c3.59544,-2.05454 6.16362,-3.08181 5.47877,-4.96514c0,0 0,0 0,0c-0.68485,-1.88333 -2.9106,-1.02727 -7.53331,1.19848c-4.28029,1.88333 -12.49845,5.30756 -13.01208,4.79393c-0.51363,-0.51363 0.68485,-2.05454 2.9106,-4.62271c2.22575,-2.56817 3.08181,-4.79393 1.71212,-6.84846c-0.34242,-0.68485 -0.85606,-1.02727 -1.19848,-1.19848c-0.68485,-0.17121 -1.36969,0.34242 -1.36969,0.34242c-1.71212,3.25302 -3.42423,4.96514 -3.42423,4.96514c-2.22575,3.08181 -6.33483,6.50604 -10.10149,9.41664c-3.59544,2.73939 -3.25302,5.82119 -3.25302,5.82119l-6.33483,3.25302z" id="svg_123"/>
    <g stroke="null" opacity="0.7" id="svg_124">
     <g stroke="null" id="svg_125">
      <g stroke="null" id="svg_126">
       <defs stroke="null" transform="translate(0 -5) translate(11.1803 0) translate(-23.7697 23.7697) translate(-13.0384 0) translate(-24.99 -24.99) translate(0 31.9531) translate(-120.509 -120.509) translate(63.6787 7.71887) scale(1.31946 1.31946) translate(-63.6787 -7.71887) translate(50.5634 30.0667) scale(1.11015 1.11015) translate(-50.5634 -30.0667) translate(26.3991 10.0231) scale(1.0899 1.0899) translate(-26.3991 -10.0231) translate(10.2773 9.19639) scale(1.02007 1.02007) translate(-10.2773 -9.19639) translate(-1.35402 23.6113) scale(1.05133 1.05133) translate(1.35402 -23.6113)">
        <rect stroke="null" id="SVGID_23_" x="345.4" y="111.5" width="25.4" height="21.1"/>
       </defs>
       <clipPath stroke="null" transform="translate(0 -5) translate(11.1803 0) translate(-23.7697 23.7697) translate(-13.0384 0) translate(-24.99 -24.99) translate(0 31.9531) translate(-120.509 -120.509) translate(63.6787 7.71887) scale(1.31946 1.31946) translate(-63.6787 -7.71887) translate(50.5634 30.0667) scale(1.11015 1.11015) translate(-50.5634 -30.0667) translate(26.3991 10.0231) scale(1.0899 1.0899) translate(-26.3991 -10.0231) translate(10.2773 9.19639) scale(1.02007 1.02007) translate(-10.2773 -9.19639) translate(-1.35402 23.6113) scale(1.05133 1.05133) translate(1.35402 -23.6113)" id="SVGID_24_">
        <use stroke="null" xlink:href="#SVGID_23_" id="svg_127" y="3.94418" x="-147.01948"/>
       </clipPath>
       <path stroke="null" clip-path="url(#SVGID_24_)" fill="#F0B491" d="m330.36502,197.63077l4.62271,12.32724l6.84846,-3.08181c2.22575,2.73939 6.16362,3.59544 9.93027,2.56817c3.76666,-1.02727 11.8136,-3.93787 15.75147,-5.30756c3.42423,-1.19848 6.50604,-2.73939 6.33483,-4.10908c-1.02727,0.85606 -3.42423,2.39696 -8.903,4.10908c-7.3621,2.39696 -17.97722,6.33483 -21.91509,1.71212c-3.93787,-4.62271 -5.47877,-11.64239 -3.42423,-15.06662c2.22575,-3.25302 4.79393,-3.76666 8.903,-8.38937c3.76666,-4.10908 4.79393,-7.53331 6.50604,-8.38937c-0.68485,-0.17121 -1.36969,0.34242 -1.36969,0.34242c-1.71212,3.25302 -3.42423,4.96514 -3.42423,4.96514c-2.22575,3.08181 -6.33483,6.50604 -10.10149,9.41664c-3.59544,2.73939 -3.25302,5.82119 -3.25302,5.82119l-6.50604,3.08181z" id="svg_128"/>
      </g>
     </g>
    </g>
    <polygon stroke="null" fill="#BDB3AF" points="331.73480224609375,195.74746704101562 335.672607421875,194.54898071289062 340.6376953125,207.90347290039062 336.87115478515625,210.12924194335938 " id="svg_129"/>
    <path stroke="null" fill="#35352E" d="m253.3198,190.43988l19.68934,-30.9893l18.83328,49.82258l40.91958,-14.89541l5.82119,15.23783l-35.61202,16.60753c0,0 -16.09389,5.99241 -20.54539,4.96514c-5.47877,-1.02727 -12.84087,-13.86814 -12.84087,-13.86814l-16.2651,-26.88022z" id="svg_130"/>
    <g stroke="null" opacity="0.7" id="svg_131">
     <g stroke="null" id="svg_132">
      <g stroke="null" id="svg_133">
       <defs stroke="null" transform="translate(0 -5) translate(11.1803 0) translate(-23.7697 23.7697) translate(-13.0384 0) translate(-24.99 -24.99) translate(0 31.9531) translate(-120.509 -120.509) translate(63.6787 7.71887) scale(1.31946 1.31946) translate(-63.6787 -7.71887) translate(50.5634 30.0667) scale(1.11015 1.11015) translate(-50.5634 -30.0667) translate(26.3991 10.0231) scale(1.0899 1.0899) translate(-26.3991 -10.0231) translate(10.2773 9.19639) scale(1.02007 1.02007) translate(-10.2773 -9.19639) translate(-1.35402 23.6113) scale(1.05133 1.05133) translate(1.35402 -23.6113)">
        <rect stroke="null" id="SVGID_25_" x="362.5" y="122.7" width="10" height="4.6"/>
       </defs>
       <clipPath stroke="null" transform="translate(0 -5) translate(11.1803 0) translate(-23.7697 23.7697) translate(-13.0384 0) translate(-24.99 -24.99) translate(0 31.9531) translate(-120.509 -120.509) translate(63.6787 7.71887) scale(1.31946 1.31946) translate(-63.6787 -7.71887) translate(50.5634 30.0667) scale(1.11015 1.11015) translate(-50.5634 -30.0667) translate(26.3991 10.0231) scale(1.0899 1.0899) translate(-26.3991 -10.0231) translate(10.2773 9.19639) scale(1.02007 1.02007) translate(-10.2773 -9.19639) translate(-1.35402 23.6113) scale(1.05133 1.05133) translate(1.35402 -23.6113)" id="SVGID_26_">
        <use stroke="null" xlink:href="#SVGID_25_" id="svg_134" y="3.94418" x="-147.01948"/>
       </clipPath>
       <path stroke="null" clip-path="url(#SVGID_26_)" fill="#F0B491" d="m369.57248,197.45956c-4.62271,1.36969 -9.24543,2.39696 -9.93027,3.25302c0.34242,-1.02727 2.39696,-1.88333 9.93027,-4.28029c4.62271,-1.36969 6.16362,-2.39696 7.01968,-3.59544c0.17121,1.71212 -2.22575,3.25302 -7.01968,4.62271" id="svg_135"/>
      </g>
     </g>
    </g>
    <g stroke="null" opacity="0.7" id="svg_136">
     <g stroke="null" id="svg_137">
      <g stroke="null" id="svg_138">
       <defs stroke="null" transform="translate(0 -5) translate(11.1803 0) translate(-23.7697 23.7697) translate(-13.0384 0) translate(-24.99 -24.99) translate(0 31.9531) translate(-120.509 -120.509) translate(63.6787 7.71887) scale(1.31946 1.31946) translate(-63.6787 -7.71887) translate(50.5634 30.0667) scale(1.11015 1.11015) translate(-50.5634 -30.0667) translate(26.3991 10.0231) scale(1.0899 1.0899) translate(-26.3991 -10.0231) translate(10.2773 9.19639) scale(1.02007 1.02007) translate(-10.2773 -9.19639) translate(-1.35402 23.6113) scale(1.05133 1.05133) translate(1.35402 -23.6113)">
        <rect stroke="null" id="SVGID_27_" x="362.4" y="118.5" width="10.5" height="5.7"/>
       </defs>
       <clipPath stroke="null" transform="translate(0 -5) translate(11.1803 0) translate(-23.7697 23.7697) translate(-13.0384 0) translate(-24.99 -24.99) translate(0 31.9531) translate(-120.509 -120.509) translate(63.6787 7.71887) scale(1.31946 1.31946) translate(-63.6787 -7.71887) translate(50.5634 30.0667) scale(1.11015 1.11015) translate(-50.5634 -30.0667) translate(26.3991 10.0231) scale(1.0899 1.0899) translate(-26.3991 -10.0231) translate(10.2773 9.19639) scale(1.02007 1.02007) translate(-10.2773 -9.19639) translate(-1.35402 23.6113) scale(1.05133 1.05133) translate(1.35402 -23.6113)" id="SVGID_28_">
        <use stroke="null" xlink:href="#SVGID_27_" id="svg_139" y="3.94418" x="-147.01948"/>
       </clipPath>
       <path stroke="null" clip-path="url(#SVGID_28_)" fill="#F0B491" d="m373.16792,189.58383c-3.93787,1.5409 -12.84087,5.30756 -13.69693,5.99241c1.71212,-2.22575 7.53331,-4.28029 12.32724,-6.33483c3.42423,-1.36969 4.96514,-2.73939 5.64998,-3.42423c0.17121,1.02727 -1.19848,2.39696 -4.28029,3.76666" id="svg_140"/>
      </g>
     </g>
    </g>
    <g stroke="null" opacity="0.7" id="svg_141">
     <g stroke="null" id="svg_142">
      <g stroke="null" id="svg_143">
       <defs stroke="null" transform="translate(0 -5) translate(11.1803 0) translate(-23.7697 23.7697) translate(-13.0384 0) translate(-24.99 -24.99) translate(0 31.9531) translate(-120.509 -120.509) translate(63.6787 7.71887) scale(1.31946 1.31946) translate(-63.6787 -7.71887) translate(50.5634 30.0667) scale(1.11015 1.11015) translate(-50.5634 -30.0667) translate(26.3991 10.0231) scale(1.0899 1.0899) translate(-26.3991 -10.0231) translate(10.2773 9.19639) scale(1.02007 1.02007) translate(-10.2773 -9.19639) translate(-1.35402 23.6113) scale(1.05133 1.05133) translate(1.35402 -23.6113)">
        <rect stroke="null" id="SVGID_29_" x="361.3" y="115.3" width="8.6" height="5.8"/>
       </defs>
       <clipPath stroke="null" transform="translate(0 -5) translate(11.1803 0) translate(-23.7697 23.7697) translate(-13.0384 0) translate(-24.99 -24.99) translate(0 31.9531) translate(-120.509 -120.509) translate(63.6787 7.71887) scale(1.31946 1.31946) translate(-63.6787 -7.71887) translate(50.5634 30.0667) scale(1.11015 1.11015) translate(-50.5634 -30.0667) translate(26.3991 10.0231) scale(1.0899 1.0899) translate(-26.3991 -10.0231) translate(10.2773 9.19639) scale(1.02007 1.02007) translate(-10.2773 -9.19639) translate(-1.35402 23.6113) scale(1.05133 1.05133) translate(1.35402 -23.6113)" id="SVGID_30_">
        <use stroke="null" xlink:href="#SVGID_29_" id="svg_144" y="3.94418" x="-147.01948"/>
       </clipPath>
       <path stroke="null" clip-path="url(#SVGID_30_)" fill="#F0B491" d="m366.49067,185.47475c-4.62271,2.56817 -9.07422,4.10908 -9.07422,4.79393c-0.51363,-1.5409 5.99241,-4.10908 11.47118,-7.3621c1.71212,-1.02727 2.73939,-2.05454 3.08181,-2.56817c0,0 0,0 0,0c0.85606,1.88333 -1.71212,3.08181 -5.47877,5.13635" id="svg_145"/>
      </g>
     </g>
    </g>
    <g stroke="null" opacity="0.7" id="svg_146">
     <g stroke="null" id="svg_147">
      <g stroke="null" id="svg_148">
       <defs stroke="null" transform="translate(0 -5) translate(11.1803 0) translate(-23.7697 23.7697) translate(-13.0384 0) translate(-24.99 -24.99) translate(0 31.9531) translate(-120.509 -120.509) translate(63.6787 7.71887) scale(1.31946 1.31946) translate(-63.6787 -7.71887) translate(50.5634 30.0667) scale(1.11015 1.11015) translate(-50.5634 -30.0667) translate(26.3991 10.0231) scale(1.0899 1.0899) translate(-26.3991 -10.0231) translate(10.2773 9.19639) scale(1.02007 1.02007) translate(-10.2773 -9.19639) translate(-1.35402 23.6113) scale(1.05133 1.05133) translate(1.35402 -23.6113)">
        <rect stroke="null" id="SVGID_31_" x="351.1" y="119.8" width="6.3" height="6.1"/>
       </defs>
       <clipPath stroke="null" transform="translate(0 -5) translate(11.1803 0) translate(-23.7697 23.7697) translate(-13.0384 0) translate(-24.99 -24.99) translate(0 31.9531) translate(-120.509 -120.509) translate(63.6787 7.71887) scale(1.31946 1.31946) translate(-63.6787 -7.71887) translate(50.5634 30.0667) scale(1.11015 1.11015) translate(-50.5634 -30.0667) translate(26.3991 10.0231) scale(1.0899 1.0899) translate(-26.3991 -10.0231) translate(10.2773 9.19639) scale(1.02007 1.02007) translate(-10.2773 -9.19639) translate(-1.35402 23.6113) scale(1.05133 1.05133) translate(1.35402 -23.6113)" id="SVGID_32_">
        <use stroke="null" xlink:href="#SVGID_31_" id="svg_149" y="3.94418" x="-147.01948"/>
       </clipPath>
       <path stroke="null" clip-path="url(#SVGID_32_)" fill="#F0B491" d="m347.99982,196.08987c-3.08181,3.25302 -6.67725,2.22575 -7.87573,1.19848c0,0 4.96514,0 7.3621,-3.08181c2.39696,-2.9106 3.25302,-6.33483 3.25302,-6.33483s1.19848,4.10908 -2.73939,8.21816" id="svg_150"/>
      </g>
     </g>
    </g>
   </g>
   <g stroke="null" id="arm1">
    <path stroke="null" fill="#FDCB9A" d="m115.32324,114.93556l-1.02727,-14.03935l-7.87573,1.36969c-1.36969,-3.08181 -4.62271,-4.10908 -8.21816,-3.93787c-3.59544,0 -11.64239,0.85606 -15.58026,1.19848c-3.42423,0.34242 -6.50604,0.85606 -6.67725,2.22575c0,0.17121 0,0.34242 0,0.51363c0.51363,1.5409 3.25302,1.02727 6.84846,0.85606c3.76666,-0.17121 7.19089,0.51363 6.33483,1.19848c-0.85606,0.68485 -5.30756,0.51363 -9.75906,0.68485c-4.62271,0.17121 -7.3621,1.02727 -7.53331,2.56817c0,0.17121 0,0.17121 0,0.34242c0,1.5409 3.93787,1.36969 8.38937,1.36969c3.08181,-0.17121 7.53331,0 7.87573,0.17121l0,0c-0.85606,0.51363 -9.93027,1.71212 -13.86814,2.22575c-3.08181,0.51363 -4.62271,1.36969 -4.62271,2.39696c0,0.34242 0.17121,0.68485 0.51363,1.02727c1.02727,1.02727 11.12875,-0.34242 14.89541,-0.51363c1.19848,0 3.76666,-0.17121 3.76666,0c-0.17121,0.68485 -4.62271,1.02727 -9.41664,2.22575c-3.76666,1.02727 -6.33483,1.36969 -6.16362,3.25302c0,0 0,0 0,0c0.17121,1.88333 2.39696,1.5409 7.19089,0.68485c4.28029,-0.68485 12.66966,-1.88333 12.84087,-1.36969c0.34242,0.51363 -1.19848,1.71212 -3.76666,3.42423c-2.56817,1.71212 -3.93787,3.59544 -3.25302,5.82119c0.17121,0.68485 0.51363,1.19848 0.85606,1.36969c0.68485,0.34242 1.19848,0 1.19848,0c2.39696,-2.56817 4.28029,-3.76666 4.28029,-3.76666c2.73939,-2.39696 7.3621,-4.4515 11.47118,-6.16362c3.93787,-1.5409 4.4515,-4.62271 4.4515,-4.62271l6.84846,-0.51363z" id="svg_151"/>
    <g stroke="null" opacity="0.7" id="svg_152">
     <g stroke="null" id="svg_153">
      <g stroke="null" id="svg_154">
       <defs stroke="null" transform="translate(0 -5) translate(11.1803 0) translate(-23.7697 23.7697) translate(-13.0384 0) translate(-24.99 -24.99) translate(0 31.9531) translate(-120.509 -120.509) translate(63.6787 7.71887) scale(1.31946 1.31946) translate(-63.6787 -7.71887) translate(50.5634 30.0667) scale(1.11015 1.11015) translate(-50.5634 -30.0667) translate(26.3991 10.0231) scale(1.0899 1.0899) translate(-26.3991 -10.0231) translate(10.2773 9.19639) scale(1.02007 1.02007) translate(-10.2773 -9.19639) translate(-1.35402 23.6113) scale(1.05133 1.05133) translate(1.35402 -23.6113)">
        <rect stroke="null" id="SVGID_33_" x="196.8" y="67.4" width="23" height="12.4"/>
       </defs>
       <clipPath stroke="null" transform="translate(0 -5) translate(11.1803 0) translate(-23.7697 23.7697) translate(-13.0384 0) translate(-24.99 -24.99) translate(0 31.9531) translate(-120.509 -120.509) translate(63.6787 7.71887) scale(1.31946 1.31946) translate(-63.6787 -7.71887) translate(50.5634 30.0667) scale(1.11015 1.11015) translate(-50.5634 -30.0667) translate(26.3991 10.0231) scale(1.0899 1.0899) translate(-26.3991 -10.0231) translate(10.2773 9.19639) scale(1.02007 1.02007) translate(-10.2773 -9.19639) translate(-1.35402 23.6113) scale(1.05133 1.05133) translate(1.35402 -23.6113)" id="SVGID_34_">
        <use stroke="null" xlink:href="#SVGID_33_" id="svg_155" y="3.94418" x="-147.01948"/>
       </clipPath>
       <path stroke="null" clip-path="url(#SVGID_34_)" fill="#F0B491" d="m105.9066,117.50374c-0.51363,1.02727 -1.5409,2.05454 -1.5409,2.05454c3.25302,-1.71212 3.76666,-4.28029 3.76666,-4.28029l7.01968,-0.34242l-1.02727,-14.03935l-7.87573,1.36969c-1.36969,-3.08181 -4.62271,-4.10908 -8.21816,-3.93787c-3.59544,0 -11.64239,0.85606 -15.58026,1.19848c-3.42423,0.34242 -6.50604,0.85606 -6.67725,2.22575c1.02727,-0.51363 3.76666,-1.36969 9.07422,-1.71212c7.19089,-0.34242 17.80601,-1.36969 20.20297,3.59544c2.56817,5.13635 2.56817,10.44391 0.85606,13.86814" id="svg_156"/>
      </g>
     </g>
    </g>
    <polygon stroke="null" fill="#BDB3AF" points="113.09742736816406,100.21137237548828 109.84449005126953,100.72500610351562 109.50201416015625,115.62042999267578 114.1248779296875,115.27798461914062 " id="svg_157"/>
    <path stroke="null" fill="#3F3F37" d="m221.30322,135.13853l-27.56507,-28.24992c0,0 -12.32724,-13.86814 -18.66207,-15.92268c-6.16362,-1.88333 -24.9969,1.71212 -24.9969,1.71212l-38.00898,7.01968l0,16.43631l55.81499,-4.96514l29.79082,53.24681l23.6272,-29.27719z" id="svg_158"/>
   </g>
   <g stroke="null" opacity="0.7" id="svg_159">
    <g stroke="null" id="svg_160">
     <g stroke="null" id="svg_161">
      <defs stroke="null" transform="translate(0 -5) translate(11.1803 0) translate(-23.7697 23.7697) translate(-13.0384 0) translate(-24.99 -24.99) translate(0 31.9531) translate(-120.509 -120.509) translate(63.6787 7.71887) scale(1.31946 1.31946) translate(-63.6787 -7.71887) translate(50.5634 30.0667) scale(1.11015 1.11015) translate(-50.5634 -30.0667) translate(26.3991 10.0231) scale(1.0899 1.0899) translate(-26.3991 -10.0231) translate(10.2773 9.19639) scale(1.02007 1.02007) translate(-10.2773 -9.19639) translate(-1.35402 23.6113) scale(1.05133 1.05133) translate(1.35402 -23.6113)">
       <rect stroke="null" id="SVGID_35_" x="195.1" y="76.7" width="9.1" height="3.3"/>
      </defs>
      <clipPath stroke="null" transform="translate(0 -5) translate(11.1803 0) translate(-23.7697 23.7697) translate(-13.0384 0) translate(-24.99 -24.99) translate(0 31.9531) translate(-120.509 -120.509) translate(63.6787 7.71887) scale(1.31946 1.31946) translate(-63.6787 -7.71887) translate(50.5634 30.0667) scale(1.11015 1.11015) translate(-50.5634 -30.0667) translate(26.3991 10.0231) scale(1.0899 1.0899) translate(-26.3991 -10.0231) translate(10.2773 9.19639) scale(1.02007 1.02007) translate(-10.2773 -9.19639) translate(-1.35402 23.6113) scale(1.05133 1.05133) translate(1.35402 -23.6113)" id="SVGID_36_">
       <use stroke="null" xlink:href="#SVGID_35_" id="svg_162" y="3.94418" x="-147.01948"/>
      </clipPath>
      <path stroke="null" clip-path="url(#SVGID_36_)" fill="#F0B491" d="m79.19758,116.47647c4.79393,-1.19848 9.24543,-1.71212 9.41664,-2.22575c0,1.5409 -6.50604,2.22575 -12.15602,3.93787c-1.88333,0.51363 -2.9106,1.19848 -3.42423,1.5409c0,0 0,0 0,0c-0.17121,-1.71212 2.39696,-2.22575 6.16362,-3.25302" id="svg_163"/>
     </g>
    </g>
   </g>
   <g stroke="null" opacity="0.7" id="svg_164">
    <g stroke="null" id="svg_165">
     <g stroke="null" id="svg_166">
      <defs stroke="null" transform="translate(0 -5) translate(11.1803 0) translate(-23.7697 23.7697) translate(-13.0384 0) translate(-24.99 -24.99) translate(0 31.9531) translate(-120.509 -120.509) translate(63.6787 7.71887) scale(1.31946 1.31946) translate(-63.6787 -7.71887) translate(50.5634 30.0667) scale(1.11015 1.11015) translate(-50.5634 -30.0667) translate(26.3991 10.0231) scale(1.0899 1.0899) translate(-26.3991 -10.0231) translate(10.2773 9.19639) scale(1.02007 1.02007) translate(-10.2773 -9.19639) translate(-1.35402 23.6113) scale(1.05133 1.05133) translate(1.35402 -23.6113)">
       <rect stroke="null" id="SVGID_37_" x="193" y="73.7" width="10.8" height="2.7"/>
      </defs>
      <clipPath stroke="null" transform="translate(0 -5) translate(11.1803 0) translate(-23.7697 23.7697) translate(-13.0384 0) translate(-24.99 -24.99) translate(0 31.9531) translate(-120.509 -120.509) translate(63.6787 7.71887) scale(1.31946 1.31946) translate(-63.6787 -7.71887) translate(50.5634 30.0667) scale(1.11015 1.11015) translate(-50.5634 -30.0667) translate(26.3991 10.0231) scale(1.0899 1.0899) translate(-26.3991 -10.0231) translate(10.2773 9.19639) scale(1.02007 1.02007) translate(-10.2773 -9.19639) translate(-1.35402 23.6113) scale(1.05133 1.05133) translate(1.35402 -23.6113)" id="SVGID_38_">
       <use stroke="null" xlink:href="#SVGID_37_" id="svg_167" y="3.94418" x="-147.01948"/>
      </clipPath>
      <path stroke="null" clip-path="url(#SVGID_38_)" fill="#F0B491" d="m74.23245,111.34012c3.93787,-0.51363 13.01208,-1.88333 13.86814,-2.22575c-2.05454,1.5409 -7.87573,2.05454 -12.66966,2.73939c-3.42423,0.51363 -5.13635,1.36969 -5.82119,1.88333c-0.17121,-1.02727 1.5409,-2.05454 4.62271,-2.39696" id="svg_168"/>
     </g>
    </g>
   </g>
   <g stroke="null" opacity="0.7" id="svg_169">
    <g stroke="null" id="svg_170">
     <g stroke="null" id="svg_171">
      <defs stroke="null" transform="translate(0 -5) translate(11.1803 0) translate(-23.7697 23.7697) translate(-13.0384 0) translate(-24.99 -24.99) translate(0 31.9531) translate(-120.509 -120.509) translate(63.6787 7.71887) scale(1.31946 1.31946) translate(-63.6787 -7.71887) translate(50.5634 30.0667) scale(1.11015 1.11015) translate(-50.5634 -30.0667) translate(26.3991 10.0231) scale(1.0899 1.0899) translate(-26.3991 -10.0231) translate(10.2773 9.19639) scale(1.02007 1.02007) translate(-10.2773 -9.19639) translate(-1.35402 23.6113) scale(1.05133 1.05133) translate(1.35402 -23.6113)">
       <rect stroke="null" id="SVGID_39_" x="194.4" y="70.8" width="10.1" height="1.9"/>
      </defs>
      <clipPath stroke="null" transform="translate(0 -5) translate(11.1803 0) translate(-23.7697 23.7697) translate(-13.0384 0) translate(-24.99 -24.99) translate(0 31.9531) translate(-120.509 -120.509) translate(63.6787 7.71887) scale(1.31946 1.31946) translate(-63.6787 -7.71887) translate(50.5634 30.0667) scale(1.11015 1.11015) translate(-50.5634 -30.0667) translate(26.3991 10.0231) scale(1.0899 1.0899) translate(-26.3991 -10.0231) translate(10.2773 9.19639) scale(1.02007 1.02007) translate(-10.2773 -9.19639) translate(-1.35402 23.6113) scale(1.05133 1.05133) translate(1.35402 -23.6113)" id="SVGID_40_">
       <use stroke="null" xlink:href="#SVGID_39_" id="svg_172" y="3.94418" x="-147.01948"/>
      </clipPath>
      <path stroke="null" clip-path="url(#SVGID_40_)" fill="#F0B491" d="m79.3688,104.83408c4.4515,-0.17121 9.07422,0 9.75906,-0.68485c-0.51363,0.85606 -2.56817,1.19848 -10.10149,1.5409c-4.62271,0.17121 -6.16362,0.68485 -7.3621,1.71212c0.34242,-1.36969 3.08181,-2.39696 7.70452,-2.56817" id="svg_173"/>
     </g>
    </g>
   </g>
   <path stroke="null" fill="#3F3F37" d="m180.04122,250.87758c0,0 67.7998,-39.89231 99.98758,-79.27098c0,0 -5.13635,-10.61512 -10.61512,-18.66207c0,0 -27.56507,-17.46358 -60.09528,-21.57266l-35.95444,42.46048l-38.00898,16.60753l44.68623,60.4377z" id="svg_174"/>
   <polygon stroke="null" fill="#31312A" points="218.3925323486328,138.3915557861328 204.86705017089844,153.11575317382812 221.64576721191406,164.0733184814453 212.57138061523438,171.4353790283203 232.77435302734375,197.28836059570312 241.33494567871094,178.11265563964844 233.97296142578125,144.89759826660156 " id="svg_175"/>
   <polygon stroke="null" fill="#31312A" points="269.0711364746094,154.827880859375 274.7214050292969,174.6884307861328 258.6273193359375,173.4899444580078 259.8258972167969,188.72779846191406 232.77435302734375,197.28836059570312 241.1637725830078,168.6959991455078 " id="svg_176"/>
   <path stroke="null" fill="#DBDBDD" d="m230.71986,154.48544c0,0 -1.88333,29.96203 3.59544,39.54988c0,0 15.58026,-8.903 28.59234,-31.50294l-9.41664,-13.01208l-5.13635,-1.36969l-17.6348,6.33483z" id="svg_177"/>
   <path stroke="null" fill="#CE392F" d="m249.03951,159.96422l1.19848,3.93787l-4.96514,21.91509l-11.47118,8.903c0,0 -3.76666,-8.38937 -3.42423,-18.31964l10.95754,-14.89541l7.70452,-1.5409z" id="svg_178"/>
   <polygon stroke="null" fill="#EA4136" points="238.42440795898438,151.57484436035156 241.33494567871094,161.505126953125 250.2378387451172,163.90208435058594 257.771240234375,157.224853515625 256.05914306640625,151.232421875 247.3275146484375,147.9794158935547 " id="svg_179"/>
   <path stroke="null" fill="#FFFFFF" d="m251.60768,151.40364l9.93027,14.03935c0,0 8.04695,-7.01968 9.93027,-11.98481l-52.04833,-21.05903l-3.93787,7.01968c0,0 3.76666,10.10149 13.86814,16.77874l22.25751,-4.79393z" id="svg_180"/>
   <path stroke="null" fill="#54413E" d="m311.87417,92.16442c-3.42423,2.22575 -8.21816,4.28029 -14.21056,5.82119c-30.13324,7.70452 -70.19676,20.37418 -70.19676,20.37418l-12.84087,-30.64688c0,0 0.85606,-12.15602 4.28029,-24.48326c2.22575,-8.21816 5.30756,-16.43631 9.93027,-21.23024c11.64239,-11.8136 17.29237,5.30756 17.29237,5.30756s4.96514,-19.00449 26.02417,-12.49845s30.81809,42.63169 50.33621,36.29686c-0.17121,0 3.25302,12.15602 -10.61512,21.05903" id="svg_181"/>
   <g stroke="null" opacity="0.3" id="svg_182">
    <g stroke="null" id="svg_183">
     <g stroke="null" id="svg_184">
      <defs stroke="null" transform="translate(0 -5) translate(11.1803 0) translate(-23.7697 23.7697) translate(-13.0384 0) translate(-24.99 -24.99) translate(0 31.9531) translate(-120.509 -120.509) translate(63.6787 7.71887) scale(1.31946 1.31946) translate(-63.6787 -7.71887) translate(50.5634 30.0667) scale(1.11015 1.11015) translate(-50.5634 -30.0667) translate(26.3991 10.0231) scale(1.0899 1.0899) translate(-26.3991 -10.0231) translate(10.2773 9.19639) scale(1.02007 1.02007) translate(-10.2773 -9.19639) translate(-1.35402 23.6113) scale(1.05133 1.05133) translate(1.35402 -23.6113)">
       <rect stroke="null" id="SVGID_41_" x="277.7" y="38.3" width="57.2" height="40.7"/>
      </defs>
      <clipPath stroke="null" transform="translate(0 -5) translate(11.1803 0) translate(-23.7697 23.7697) translate(-13.0384 0) translate(-24.99 -24.99) translate(0 31.9531) translate(-120.509 -120.509) translate(63.6787 7.71887) scale(1.31946 1.31946) translate(-63.6787 -7.71887) translate(50.5634 30.0667) scale(1.11015 1.11015) translate(-50.5634 -30.0667) translate(26.3991 10.0231) scale(1.0899 1.0899) translate(-26.3991 -10.0231) translate(10.2773 9.19639) scale(1.02007 1.02007) translate(-10.2773 -9.19639) translate(-1.35402 23.6113) scale(1.05133 1.05133) translate(1.35402 -23.6113)" id="SVGID_42_">
       <use stroke="null" xlink:href="#SVGID_41_" id="svg_185" y="3.94418" x="-147.01948"/>
      </clipPath>
      <path stroke="null" clip-path="url(#SVGID_42_)" fill="#54413E" d="m311.87417,92.16442c-3.42423,2.22575 -8.21816,4.28029 -14.21056,5.82119c-30.13324,7.70452 -70.19676,20.37418 -70.19676,20.37418l-12.84087,-30.64688c0,0 0.85606,-12.15602 4.28029,-24.48326c0.51363,2.39696 1.19848,5.13635 1.88333,6.50604c0,0 1.02727,-5.13635 4.96514,-9.07422c0,0 -0.51363,7.87573 0,9.75906c0,0 8.73179,-11.12875 13.86814,-12.49845c0,0 -2.56817,5.82119 -2.9106,8.56058c0,0 7.87573,-5.82119 11.12875,-7.3621c0,0 -1.19848,-6.84846 -0.85606,-10.61512c0,0 2.73939,7.19089 4.28029,7.87573c1.71212,0.85606 7.70452,-6.84846 12.15602,-1.36969s26.70901,25.68174 47.08319,22.59993c0,0.17121 3.08181,6.84846 1.36969,14.55299" id="svg_186"/>
     </g>
    </g>
   </g>
   <path stroke="null" fill="#FDCB9A" d="m271.29701,153.8006c1.71212,-1.19848 10.44391,-7.87573 17.80601,-17.80601c20.54539,-27.90749 19.51812,-56.15741 19.51812,-56.15741c-0.17121,0 -0.51363,0 -0.68485,0c-28.76355,3.42423 -51.87712,-21.05903 -51.87712,-21.05903c-5.82119,3.93787 -10.10149,10.78633 -13.69693,17.97722c-5.47877,10.95754 -9.07422,22.25751 -13.01208,21.91509c-6.33483,-0.51363 1.36969,-13.52572 -3.08181,-21.05903c-4.96514,-8.56058 -14.89541,-4.28029 -17.97722,6.67725l0,0c-0.34242,1.5409 -0.68485,3.25302 -0.85606,5.13635c-1.19848,20.03176 11.98481,11.8136 11.98481,11.8136c-2.05454,15.23783 -0.17121,30.64688 0.34242,34.41353l51.5347,18.14843z" id="svg_187"/>
   <g stroke="null" opacity="0.6" id="svg_188">
    <g stroke="null" id="svg_189">
     <g stroke="null" id="svg_190">
      <defs stroke="null" transform="translate(0 -5) translate(11.1803 0) translate(-23.7697 23.7697) translate(-13.0384 0) translate(-24.99 -24.99) translate(0 31.9531) translate(-120.509 -120.509) translate(63.6787 7.71887) scale(1.31946 1.31946) translate(-63.6787 -7.71887) translate(50.5634 30.0667) scale(1.11015 1.11015) translate(-50.5634 -30.0667) translate(26.3991 10.0231) scale(1.0899 1.0899) translate(-26.3991 -10.0231) translate(10.2773 9.19639) scale(1.02007 1.02007) translate(-10.2773 -9.19639) translate(-1.35402 23.6113) scale(1.05133 1.05133) translate(1.35402 -23.6113)">
       <rect stroke="null" id="SVGID_43_" x="307.3" y="69.2" width="6.7" height="11.2"/>
      </defs>
      <clipPath stroke="null" transform="translate(0 -5) translate(11.1803 0) translate(-23.7697 23.7697) translate(-13.0384 0) translate(-24.99 -24.99) translate(0 31.9531) translate(-120.509 -120.509) translate(63.6787 7.71887) scale(1.31946 1.31946) translate(-63.6787 -7.71887) translate(50.5634 30.0667) scale(1.11015 1.11015) translate(-50.5634 -30.0667) translate(26.3991 10.0231) scale(1.0899 1.0899) translate(-26.3991 -10.0231) translate(10.2773 9.19639) scale(1.02007 1.02007) translate(-10.2773 -9.19639) translate(-1.35402 23.6113) scale(1.05133 1.05133) translate(1.35402 -23.6113)" id="SVGID_44_">
       <use stroke="null" xlink:href="#SVGID_43_" id="svg_191" y="3.94418" x="-147.01948"/>
      </clipPath>
      <path stroke="null" clip-path="url(#SVGID_44_)" fill="#F8A28A" d="m276.43336,101.40984c0,0 -4.96514,12.84087 0.17121,17.46358c0,0 -2.39696,3.08181 -9.07422,0.85606c-1.5409,-0.51363 -2.9106,-1.71212 -2.39696,-1.88333c0.17121,-0.17121 2.22575,0.34242 2.22575,0.34242s3.59544,0.85606 6.16362,-0.34242c0,0 -1.36969,-3.25302 -0.51363,-8.73179c1.19848,-5.47877 3.42423,-7.70452 3.42423,-7.70452" id="svg_192"/>
     </g>
    </g>
   </g>
   <g stroke="null" opacity="0.4" id="svg_193">
    <g stroke="null" id="svg_194">
     <g stroke="null" id="svg_195">
      <defs stroke="null" transform="translate(0 -5) translate(11.1803 0) translate(-23.7697 23.7697) translate(-13.0384 0) translate(-24.99 -24.99) translate(0 31.9531) translate(-120.509 -120.509) translate(63.6787 7.71887) scale(1.31946 1.31946) translate(-63.6787 -7.71887) translate(50.5634 30.0667) scale(1.11015 1.11015) translate(-50.5634 -30.0667) translate(26.3991 10.0231) scale(1.0899 1.0899) translate(-26.3991 -10.0231) translate(10.2773 9.19639) scale(1.02007 1.02007) translate(-10.2773 -9.19639) translate(-1.35402 23.6113) scale(1.05133 1.05133) translate(1.35402 -23.6113)">
       <rect stroke="null" id="SVGID_45_" x="277.3" y="56.9" width="5.1" height="6.8"/>
      </defs>
      <clipPath stroke="null" transform="translate(0 -5) translate(11.1803 0) translate(-23.7697 23.7697) translate(-13.0384 0) translate(-24.99 -24.99) translate(0 31.9531) translate(-120.509 -120.509) translate(63.6787 7.71887) scale(1.31946 1.31946) translate(-63.6787 -7.71887) translate(50.5634 30.0667) scale(1.11015 1.11015) translate(-50.5634 -30.0667) translate(26.3991 10.0231) scale(1.0899 1.0899) translate(-26.3991 -10.0231) translate(10.2773 9.19639) scale(1.02007 1.02007) translate(-10.2773 -9.19639) translate(-1.35402 23.6113) scale(1.05133 1.05133) translate(1.35402 -23.6113)" id="SVGID_46_">
       <use stroke="null" xlink:href="#SVGID_45_" id="svg_196" y="3.94418" x="-147.01948"/>
      </clipPath>
      <path stroke="null" clip-path="url(#SVGID_46_)" fill="#DC917C" d="m214.28355,82.91899c0,0 3.93787,-4.10908 7.01968,-1.88333c2.39696,1.71212 0.17121,3.93787 -2.22575,5.64998c-2.05454,1.36969 0.51363,1.5409 0,3.76666c-0.51363,2.22575 -2.56817,1.88333 -2.22575,0.85606c0.34242,-0.85606 1.36969,-1.02727 0.51363,-2.39696c-0.68485,-1.5409 -0.68485,-2.39696 1.36969,-4.10908c2.05454,-1.71212 -0.85606,-2.56817 -2.73939,-1.02727c-1.5409,1.36969 -3.25302,1.02727 -1.71212,-0.85606" id="svg_197"/>
     </g>
    </g>
   </g>
   <g stroke="null" opacity="0.4" id="svg_198">
    <g stroke="null" id="svg_199">
     <g stroke="null" id="svg_200">
      <defs stroke="null" transform="translate(0 -5) translate(11.1803 0) translate(-23.7697 23.7697) translate(-13.0384 0) translate(-24.99 -24.99) translate(0 31.9531) translate(-120.509 -120.509) translate(63.6787 7.71887) scale(1.31946 1.31946) translate(-63.6787 -7.71887) translate(50.5634 30.0667) scale(1.11015 1.11015) translate(-50.5634 -30.0667) translate(26.3991 10.0231) scale(1.0899 1.0899) translate(-26.3991 -10.0231) translate(10.2773 9.19639) scale(1.02007 1.02007) translate(-10.2773 -9.19639) translate(-1.35402 23.6113) scale(1.05133 1.05133) translate(1.35402 -23.6113)">
       <rect stroke="null" id="SVGID_47_" x="294" y="44.4" width="38.3" height="13.9"/>
      </defs>
      <clipPath stroke="null" transform="translate(0 -5) translate(11.1803 0) translate(-23.7697 23.7697) translate(-13.0384 0) translate(-24.99 -24.99) translate(0 31.9531) translate(-120.509 -120.509) translate(63.6787 7.71887) scale(1.31946 1.31946) translate(-63.6787 -7.71887) translate(50.5634 30.0667) scale(1.11015 1.11015) translate(-50.5634 -30.0667) translate(26.3991 10.0231) scale(1.0899 1.0899) translate(-26.3991 -10.0231) translate(10.2773 9.19639) scale(1.02007 1.02007) translate(-10.2773 -9.19639) translate(-1.35402 23.6113) scale(1.05133 1.05133) translate(1.35402 -23.6113)" id="SVGID_48_">
       <use stroke="null" xlink:href="#SVGID_47_" id="svg_201" y="3.94418" x="-147.01948"/>
      </clipPath>
      <path stroke="null" clip-path="url(#SVGID_48_)" fill="#DC917C" d="m307.9363,80.00839c-17.29237,11.29997 -51.70591,-15.75147 -51.70591,-15.75147c-4.62271,1.36969 -9.58785,6.67725 -13.86814,12.49845c3.59544,-7.01968 7.87573,-14.03935 13.69693,-17.97722c0,0.17121 23.28478,24.65447 51.87712,21.23024" id="svg_202"/>
     </g>
    </g>
   </g>
   <path stroke="null" fill="#74544E" d="m297.83482,62.88723c0,0 -6.84846,-4.96514 -8.73179,-8.56058c0,0 0.34242,3.25302 1.5409,4.96514c0,0 -7.01968,-4.79393 -9.07422,-11.8136c0,0 -0.51363,5.47877 1.5409,8.56058c0,0 -8.38937,-4.10908 -11.47118,-10.61512c0,0 -1.02727,10.2727 9.58785,15.75147c0,0 -1.5409,-2.05454 -2.56817,-4.28029c0,0 5.30756,4.79393 14.03935,5.64998l-1.02727,-1.88333c0.17121,0.17121 2.39696,2.22575 6.16362,2.22575" id="svg_203"/>
   <g stroke="null" opacity="0.6" id="svg_204">
    <g stroke="null" id="svg_205">
     <g stroke="null" id="svg_206">
      <defs stroke="null" transform="translate(0 -5) translate(11.1803 0) translate(-23.7697 23.7697) translate(-13.0384 0) translate(-24.99 -24.99) translate(0 31.9531) translate(-120.509 -120.509) translate(63.6787 7.71887) scale(1.31946 1.31946) translate(-63.6787 -7.71887) translate(50.5634 30.0667) scale(1.11015 1.11015) translate(-50.5634 -30.0667) translate(26.3991 10.0231) scale(1.0899 1.0899) translate(-26.3991 -10.0231) translate(10.2773 9.19639) scale(1.02007 1.02007) translate(-10.2773 -9.19639) translate(-1.35402 23.6113) scale(1.05133 1.05133) translate(1.35402 -23.6113)">
       <rect stroke="null" id="SVGID_49_" x="300.3" y="91.3" width="9.2" height="4.8"/>
      </defs>
      <clipPath stroke="null" transform="translate(0 -5) translate(11.1803 0) translate(-23.7697 23.7697) translate(-13.0384 0) translate(-24.99 -24.99) translate(0 31.9531) translate(-120.509 -120.509) translate(63.6787 7.71887) scale(1.31946 1.31946) translate(-63.6787 -7.71887) translate(50.5634 30.0667) scale(1.11015 1.11015) translate(-50.5634 -30.0667) translate(26.3991 10.0231) scale(1.0899 1.0899) translate(-26.3991 -10.0231) translate(10.2773 9.19639) scale(1.02007 1.02007) translate(-10.2773 -9.19639) translate(-1.35402 23.6113) scale(1.05133 1.05133) translate(1.35402 -23.6113)" id="SVGID_50_">
       <use stroke="null" xlink:href="#SVGID_49_" id="svg_207" y="3.94418" x="-147.01948"/>
      </clipPath>
      <path stroke="null" clip-path="url(#SVGID_50_)" fill="#F8A28A" d="m253.14858,139.93246c0.34242,2.22575 1.5409,6.84846 6.84846,7.53331c5.99241,0.85606 8.21816,-3.08181 8.903,-5.82119c0.17121,-0.51363 0,-0.68485 -0.34242,0c-1.02727,1.71212 -3.42423,4.79393 -7.70452,4.28029c-4.28029,-0.51363 -6.50604,-4.28029 -7.3621,-6.16362c-0.34242,-0.68485 -0.51363,-0.51363 -0.34242,0.17121" id="svg_208"/>
     </g>
    </g>
   </g>
   <g stroke="null" id="eyebrow">
    <path stroke="null" fill="#54413E" d="m247.15618,83.26141c0,0 9.41664,-2.05454 19.86055,3.25302c0,0 -1.36969,-4.28029 -9.93027,-5.47877c-7.19089,-0.85606 -9.93027,2.22575 -9.93027,2.22575" id="svg_209"/>
    <path stroke="null" fill="#54413E" d="m303.4848,97.8144c0,0 -4.96514,-6.84846 -14.21056,-8.38937c0,0 3.25302,-2.73939 9.24543,1.02727c5.13635,3.08181 4.96514,7.3621 4.96514,7.3621" id="svg_210"/>
   </g>
   <g stroke="null" id="eyes">
    <path stroke="null" fill="#C79980" d="m257.94251,94.73259c0,0 -1.02727,-1.19848 -3.93787,-1.5409c-2.9106,-0.34242 -7.53331,0 -10.61512,3.25302c0,0 0,0.68485 1.88333,-0.68485c2.39696,-1.71212 4.28029,-2.05454 8.21816,-2.05454c3.93787,0.17121 4.4515,1.02727 4.4515,1.02727" id="svg_211"/>
    <path stroke="null" fill="#C79980" d="m244.41679,101.58106c-1.36969,5.47877 1.5409,10.95754 6.50604,12.15602c4.96514,1.19848 10.2727,-2.22575 11.47118,-7.70452c1.36969,-5.47877 -1.5409,-10.95754 -6.67725,-12.15602c-4.79393,-1.19848 -9.93027,2.22575 -11.29997,7.70452" id="svg_212"/>
    <path stroke="null" fill="#FFFFFF" d="m245.27285,101.75227c-1.36969,5.13635 1.5409,10.2727 6.16362,11.29997c4.62271,1.19848 9.41664,-2.05454 10.78633,-7.19089c1.19848,-5.13635 -1.88333,-10.44391 -6.67725,-11.47118c-4.79393,-1.19848 -9.07422,2.22575 -10.2727,7.3621" id="svg_213"/>
    <path stroke="null" fill="#C79980" d="m300.40299,102.09469c1.36969,5.47877 -1.5409,10.95754 -6.50604,12.32724c-4.96514,1.36969 -10.2727,-2.05454 -11.64239,-7.53331c-1.36969,-5.47877 1.5409,-10.95754 6.50604,-12.32724c4.96514,-1.36969 10.2727,2.05454 11.64239,7.53331" id="svg_214"/>
    <path stroke="null" fill="#FFFFFF" d="m299.54693,102.2659c1.36969,5.13635 -1.36969,10.2727 -5.99241,11.47118c-4.62271,1.19848 -9.41664,-1.88333 -10.78633,-7.01968c-1.36969,-5.13635 1.71212,-10.44391 6.50604,-11.64239c4.62271,-1.36969 8.903,2.05454 10.2727,7.19089" id="svg_215"/>
    <path stroke="null" fill="#C79980" d="m298.17724,94.21896c0,0 -6.67725,-2.56817 -11.47118,1.02727c0,0 0.17121,0.34242 1.19848,-0.17121s3.93787,-1.19848 5.82119,-1.19848c1.88333,0 3.08181,0.34242 3.59544,0.34242c0.85606,0.17121 0.85606,0 0.85606,0" id="svg_216"/>
    <g stroke="null" id="eyes1">
     <path stroke="null" fill="#411C00" d="m254.34707,104.32044c-0.51363,1.5409 0.51363,3.59544 2.05454,4.10908c1.71212,0.51363 3.42423,-0.85606 3.76666,-2.39696c0.51363,-1.5409 -0.68485,-3.76666 -2.22575,-4.28029c-1.5409,-0.51363 -3.08181,1.02727 -3.59544,2.56817" id="svg_217"/>
     <path stroke="null" fill="#411C00" d="m298.34845,104.32044c0.51363,1.5409 -0.34242,3.59544 -2.05454,4.10908c-1.71212,0.51363 -3.42423,-0.85606 -3.93787,-2.39696s0.51363,-3.93787 2.22575,-4.28029c1.71212,-0.34242 3.25302,1.02727 3.76666,2.56817" id="svg_218"/>
    </g>
   </g>
   <path stroke="null" fill="#EF916D" d="m249.72435,118.87343c0,0 15.40905,11.12875 32.87263,9.24543c0,0 -7.01968,11.64239 -20.03176,8.21816c-14.89541,-3.59544 -12.84087,-17.46358 -12.84087,-17.46358" id="svg_219"/>
   <path stroke="null" fill="#FFFFFF" d="m251.60768,120.92797c0,0 13.69693,9.41664 29.10597,8.04695c0,0 -6.16362,9.58785 -17.6348,6.67725c-13.18329,-3.42423 -11.47118,-14.7242 -11.47118,-14.7242" id="svg_220"/>
  </g>
 </g>
</svg>