<?xml version="1.0" encoding="utf-8"?>
<!-- Generator: Adobe Illustrator 16.0.0, SVG Export Plug-In . SVG Version: 6.00 Build 0)  -->
<!DOCTYPE svg PUBLIC "-//W3C//DTD SVG 1.1//EN" "http://www.w3.org/Graphics/SVG/1.1/DTD/svg11.dtd">
<svg version="1.1" id="Layer_1" xmlns="http://www.w3.org/2000/svg" xmlns:xlink="http://www.w3.org/1999/xlink" x="0px" y="0px"
	 width="60px" height="60px" viewBox="0 0 60 60" enable-background="new 0 0 60 60" xml:space="preserve">
<g>
	<path opacity="0.15" fill="#262626" d="M19.095,54.729c0.561,0.068,1.082,0.105,1.5,0.105c0.627,0,1.115-0.037,1.465-0.105
		c0.908,0.068,1.883,0.068,2.965,0l2.652-2.059c1.186-0.556,2.232-1.219,3.174-2.022l2.057-1.08c1.115-0.453,1.953-0.87,2.545-1.221
		h0.037c0.732-0.453,1.045-0.838,0.941-1.15c-0.07-0.071-0.139-0.141-0.176-0.247c0-0.137,0.037-0.311,0.176-0.487
		c0.383-0.276,1.256-0.627,2.615-0.975c0.734-0.069,1.357-0.177,1.85-0.314c0.068-0.036,0.105-0.036,0.174-0.036
		c0.383-0.174,0.697-0.349,0.941-0.522v-0.07c0.629-0.734,1.57-1.428,2.826-2.128c1.01-0.768,0.555-1.078-1.361-1.011
		c-0.105,0-0.209,0-0.316,0.033c-2.508,0.141-4.078,0.524-4.635,1.154c0,0-0.035,0-0.072,0.034
		c-0.941,0.523-1.049,0.905-0.381,1.047l-1.779,0.136c-1.115,0.107-2.479,0.454-4.084,0.944l-3.172,0.697
		c0,0.036-0.07,0.036-0.107,0.036c-0.521,0.175-0.871,0.277-1.043,0.417c-0.174,0.104-0.174,0.175,0,0.21
		c0.244,0.071,0.662,0.071,1.221,0.071h0.906v0.069l0.35-0.069l0.07,0.069c-0.49,0.207-0.943,0.45-1.293,0.694
		c-0.242,0.176-0.453,0.314-0.66,0.454c-0.037,0.071-0.072,0.071-0.107,0.105v0.035l-1.916,1.502l-2.059,2.893l-1.223,1.116v0.174
		l-1.08,0.245l-1.953,0.732h-1.115c-0.594,0-0.594,0.07,0.068,0.241C18.085,54.487,18.085,54.555,19.095,54.729z"/>
	<path fill="#916852" d="M20.065,13.501c0.246,0.176,0.543,0.298,0.873,0.349c1.395,0.923,2.215,2.285,2.441,4.044
		c1.063-0.68,1.291-2.389,0.646-5.158c-0.609-4.412-1.43-6.991-2.479-7.741c-2.281,0.541-3.205,1.987-2.789,4.357
		c0,0.053,0,0.09,0,0.14C18.708,11.568,19.146,12.891,20.065,13.501L20.065,13.501z"/>
	<path fill="#5B6F5F" d="M20.938,13.85c-0.33-0.051-0.627-0.173-0.873-0.349l-0.295,0.087c1.186,1.343,1.588,3.017,1.205,5.022
		c-0.158,0.784-0.418,1.638-0.818,2.525l1.725,0.438c-0.539,1.255-0.783,2.423-0.697,3.502c-0.801,1.448-2.371,2.302-4.707,2.528
		c0.016,0.14,0.033,0.279,0.053,0.42h0.018c2.754-0.087,5.244-0.523,7.494-1.291c-0.191-0.264-0.367-0.558-0.523-0.871
		c-0.26-0.541-0.473-1.135-0.59-1.778c-0.086-1.149,0.26-2.405,1.027-3.749c-0.754,0.262-1.742,0.296-3.018,0.106
		c0.352-0.421,0.609-0.855,0.805-1.308c0.049-0.157,0.121-0.297,0.176-0.454C22.317,17.233,22.003,15.626,20.938,13.85L20.938,13.85
		z"/>
	<path fill="#7E9684" d="M19.771,13.588l-0.748,0.191c1.029,0.507,1.188,1.536,0.488,3.121l-2.439,3.189l0.471,1.604
		c0.383,0.75,0.383,1.15,0,1.202c0.051,0.435-0.09,0.628-0.385,0.575h-0.244h-0.191l-0.174-0.277
		c-0.123,0.889-0.176,1.777-0.158,2.667c0,0.575,0.035,1.165,0.088,1.742c2.336-0.227,3.906-1.08,4.707-2.528
		c-0.086-1.079,0.158-2.247,0.697-3.502l-1.725-0.438c0.4-0.888,0.66-1.741,0.818-2.525C21.358,16.604,20.956,14.931,19.771,13.588
		L19.771,13.588z"/>
	<path fill="#AB8262" d="M19.022,13.779l-0.088,0.02c0.088,1.341-0.488,2.876-1.762,4.566c-0.365,0.487-0.801,0.996-1.271,1.5
		c-0.645,0.643-1.025,1.288-1.148,1.936c-0.455,0.397-0.908,0.397-1.344,0c-0.018,0.435,0.123,0.729,0.418,0.921
		c0.297,0.192,0.715,0.263,1.291,0.212l0.889-0.037l-0.316-0.628v-0.574l0.123-0.14v0.732l0.402,0.784l0.174-0.138l-0.541-0.871
		l0.09-0.646l0.051-0.07l0.105,0.644l0.818,1.482h0.244c0.295,0.053,0.436-0.141,0.385-0.575c0.383-0.052,0.383-0.452,0-1.202
		l-0.471-1.604l2.439-3.189C20.21,15.315,20.052,14.286,19.022,13.779L19.022,13.779z M16.651,20.562l0.209-0.228l0.105,0.944
		l0.627,1.235l-0.104,0.245l-0.75-1.395L16.651,20.562L16.651,20.562z M16.181,21.801v-0.665l0.279-0.348v0.838l0.732,1.395
		l-0.158,0.226L16.181,21.801L16.181,21.801z"/>
	<polygon fill="#D9AD85" points="16.86,20.334 16.651,20.562 16.739,21.364 17.489,22.759 17.593,22.514 16.966,21.278 
		16.86,20.334 	"/>
	<polygon fill="#D9AD85" points="16.181,21.136 16.181,21.801 17.034,23.246 17.192,23.021 16.46,21.626 16.46,20.788 
		16.181,21.136 	"/>
	<path fill="#D9AD85" d="M18.935,13.799l-0.471,0.123c-0.922,0.522-1.76,1.724-2.545,3.589l-2.039,2.668
		c-0.016,0.052-0.035,0.087-0.053,0.103c-0.26,0.61-0.4,1.116-0.418,1.52c0.436,0.397,0.889,0.397,1.344,0
		c0.123-0.647,0.504-1.293,1.148-1.936c0.471-0.504,0.906-1.013,1.271-1.5C18.446,16.675,19.022,15.14,18.935,13.799L18.935,13.799z
		"/>
	<path fill="#5D4233" d="M21.743,19.133c-0.195,0.452-0.453,0.887-0.805,1.308c1.275,0.189,2.264,0.155,3.018-0.106
		c0.627-0.226,1.064-0.627,1.307-1.201c0.037-0.087,0.066-0.157,0.088-0.229c0.156-0.539,0.193-1.201,0.086-1.985l-0.033-0.174
		c-0.559-2.736-0.75-5.439-0.594-8.071c-0.191-2.774-1.166-4.029-2.963-3.731c-0.104,0.017-0.211,0.035-0.299,0.052
		c1.049,0.75,1.869,3.329,2.479,7.741c0.645,2.77,0.416,4.479-0.646,5.158c-0.227-1.759-1.047-3.121-2.441-4.044
		c1.064,1.776,1.379,3.384,0.98,4.829C21.864,18.836,21.792,18.976,21.743,19.133L21.743,19.133z"/>
	<polygon fill="#D9AD85" points="16.095,21.989 15.989,21.346 15.938,21.416 15.849,22.063 16.39,22.934 16.548,23.194 
		16.722,23.472 16.913,23.472 16.095,21.989 	"/>
	<polygon fill="#D9AD85" points="15.813,21.555 15.69,21.694 15.69,22.269 16.007,22.896 16.112,23.142 16.216,23.071 
		15.813,22.287 15.813,21.555 	"/>
	<path fill="#B6BBC2" d="M22.735,30.968V30.95c0.035-0.296,0.068-0.574,0.088-0.872c0,0.298,0,0.595,0.02,0.89
		c0.033,2.18,0.068,3.573,0.086,4.184l0.488,6.488l0.66,5.784c0.313-2.057,0.281-4.601-0.088-7.636l0.332-4.079
		c0.402-1.689,0.611-3.205,0.629-4.566v-0.017c0.018-1.728-0.297-3.189-0.908-4.394c-2.25,0.768-4.74,1.204-7.494,1.291v0.051
		l0.504,5.684l2.564,10.878l0.572,4.2l0.281,0.662l0.279,0.663l-1.029,3.645l-0.176,0.574c0.438,0.226,0.857,0.418,1.291,0.576
		l2.27-4.917L21.394,36.39C22.04,34.752,22.476,32.939,22.735,30.968L22.735,30.968z"/>
	<path fill="#91989E" d="M22.735,30.95v0.018c-0.26,1.972-0.695,3.784-1.342,5.422l1.711,13.649l-2.27,4.917
		c0.314,0.122,0.629,0.208,0.924,0.277c0.996,0.228,1.986,0.211,2.945-0.034l-0.627-7.775l-0.66-5.784l-0.488-6.488
		c-0.018-0.61-0.053-2.004-0.086-4.184c-0.02-0.295-0.02-0.592-0.02-0.89C22.804,30.376,22.771,30.654,22.735,30.95L22.735,30.95z"
		/>
	<polygon fill="#B7BDC6" points="16.548,28.023 16.53,28.023 16.548,28.074 16.548,28.023 	"/>
	<polygon fill="#91989E" points="20.749,50.161 20.47,49.498 19.808,50.492 19.04,53.299 19.72,53.806 20.749,50.161 	"/>
	<path d="M21.759,55.233c-0.295-0.069-0.609-0.155-0.924-0.277c-0.434-0.158-0.854-0.351-1.291-0.576l0.176-0.574l-0.68-0.507
		l-1.168-0.122c-0.611,0.036-0.42,0.4,0.539,1.083c-0.994,0.034-0.854,0.381,0.42,1.062c0.662,0.191,1.221,0.314,1.674,0.332
		C21.132,55.688,21.548,55.548,21.759,55.233L21.759,55.233z"/>
</g>
</svg>
