<?xml version="1.0" encoding="utf-8"?>
<!-- Generator: Adobe Illustrator 15.1.0, SVG Export Plug-In . SVG Version: 6.00 Build 0)  -->
<!DOCTYPE svg PUBLIC "-//W3C//DTD SVG 1.1//EN" "http://www.w3.org/Graphics/SVG/1.1/DTD/svg11.dtd">
<svg version="1.1" id="_x23_Layer_1" xmlns="http://www.w3.org/2000/svg" xmlns:xlink="http://www.w3.org/1999/xlink" x="0px"
	 y="0px" width="500px" height="300px" viewBox="0 0 500 300" enable-background="new 0 0 500 300" xml:space="preserve">
<path fill-rule="evenodd" clip-rule="evenodd" fill="#FF4001" stroke="#000000" stroke-width="1.0001" stroke-linecap="round" stroke-miterlimit="2.6131" d="
	M258.199,126.029c-0.418,7.727-0.836,14.409-0.836,22.553s0,10.232,1.044,15.871c1.045,5.639,1.88,21.718,2.298,22.971
	c0.417,1.253,7.936,3.968,11.694,3.55c3.758-0.417,22.762-1.67,24.015-1.462c1.253,0.209,3.55-19.212,4.177-22.344
	c0.626-3.133,1.67-10.65,1.879-13.156s-2.297-27.982-2.924-29.862c-0.626-1.879-17.959-2.924-20.674-3.132
	S257.99,125.612,258.199,126.029z"/>
<path fill-rule="evenodd" clip-rule="evenodd" fill="#B200B3" stroke="#000000" stroke-width="1.0001" stroke-linecap="round" stroke-miterlimit="2.6131" d="
	M248.384,59.832c-1.671,3.341-1.879,7.1-3.968,12.529c-2.088,5.43-3.968,6.056-2.924,7.936c1.044,1.879,6.056,6.056,6.056,6.056
	s2.715-5.638,2.715-6.682s2.089,0.209,3.55,5.847c1.462,5.638,5.221,13.365,5.012,21.509s-1.671,14.618-2.506,18.376
	c-0.835,3.759,5.847,4.803,9.188,3.341c3.341-1.462,7.936-3.968,9.188-4.176c1.253-0.209,12.32,1.879,15.661,1.253
	c3.342-0.626,10.65-4.177,10.65-4.177s-2.506-11.277-3.132-16.706c-0.627-5.429-5.222-13.156-5.639-15.662
	c-0.418-2.506-3.968-13.782-3.968-13.782l7.309-6.474c0,0-5.221-10.858-6.265-12.529c-1.044-1.67-3.968-6.474-8.144-6.474
	c-4.177,0-15.454,4.594-17.124,5.221C262.375,55.864,248.384,58.579,248.384,59.832z"/>
<path fill-rule="evenodd" clip-rule="evenodd" fill="#FC3C03" stroke="#000000" stroke-width="1.0001" stroke-linecap="round" stroke-miterlimit="2.6131" d="
	M257.781,57.744c-2.297,2.924-5.43,3.968-5.012,5.639s3.341,4.385,3.341,4.385s-2.923,2.506-1.67,4.594s4.803,3.341,7.309,7.518
	c2.506,4.176,2.714,7.935,3.55,5.847c0.835-2.088,2.506-5.221,5.012-7.518s5.847-6.265,5.847-7.936s-3.967-3.758-4.385-4.803
	c-0.418-1.044,6.265-3.759,6.265-3.759l-1.462-6.474c0,0-3.55-1.253-5.429-1.253C269.267,53.985,258.199,55.029,257.781,57.744z"/>
<path fill-rule="evenodd" clip-rule="evenodd" fill="#FDFD06" stroke="#000000" stroke-width="1.0001" stroke-linecap="round" stroke-miterlimit="2.6131" d="
	M246.609,9.923c-2.845,0.5-9.849,2.561-10.232,4.803c-6.412,7.362-2.401,12.169-1.688,20.119c0.288,3.208,4.979,8.463,1.951,15.799
	c-1.342,3.25-0.391,7.518,4.958,7.518c4.439,0,4.986-0.872,8.771,0.364c6.096,1.991,5.21,0.539,8.633-2.381
	c6.681-5.698,10.662-1.641,20.029-6.283c0.138-0.068,2.429-4.906,3.306-5.901c5.777-6.547-4.473-6.569-6.754-10.65
	c-0.604-1.08-6.798-5.447-8.091-11.485c-0.698-3.262-6.352-10.1-10.877-10.841C253.691,10.506,250.104,8.958,246.609,9.923z"/>
<path fill-rule="evenodd" clip-rule="evenodd" fill="#EFD7B6" stroke="#000000" stroke-width="1.0001" stroke-linecap="round" stroke-miterlimit="2.6131" d="
	M239.718,22.87c2.04,2.464-3.405,10.292,1.826,18.43c4.432,6.896,6.408,8.987,13.836,8.073c5.935-0.73,4.956,17.26,6.628,21.318
	c0.642,1.556,0.621,7.932,2.298,10.286c1.011,1.419,1.414-7.019,1.986-8.407c0.427-1.033,1.071-15.679,3.705-16.289
	c-0.517-1.122,1.022-0.537-0.698-3.759c-0.386-0.722-1.72-7.196-4.104-5.221c0-4.08,0.294-21.976-5.221-21.718
	c-4.117,0.193-11.873-0.273-15.715-1.408C243.803,24.042,239.784,22.949,239.718,22.87z"/>
<path fill-rule="evenodd" clip-rule="evenodd" fill="none" stroke="#000000" stroke-width="1.0001" stroke-linecap="round" stroke-miterlimit="2.6131" d="
	M242.485,37.958c3.365,0,2.334-1.222,3.968-2.297"/>
<path fill-rule="evenodd" clip-rule="evenodd" fill="none" stroke="#000000" stroke-width="1.0001" stroke-linecap="round" stroke-miterlimit="2.6131" d="
	M252.299,33.154c3.542-0.128,3.388-1.263,4.604-3.541l0.096-0.009"/>
<path fill-rule="evenodd" clip-rule="evenodd" fill="none" stroke="#000000" stroke-width="1.0001" stroke-linecap="round" stroke-miterlimit="2.6131" d="
	M248.437,35.765c0.177,0.574,1.115,5.268,1.148,5.257c0.037-0.012,3.226-0.045,3.236-0.036"/>
<path fill-rule="evenodd" clip-rule="evenodd" fill="none" stroke="#000000" stroke-width="1.0001" stroke-linecap="round" stroke-miterlimit="2.6131" d="
	M251.36,45.162c2.708,0.084,4.761-2.362,6.473-4.072"/>
<path fill-rule="evenodd" clip-rule="evenodd" fill="none" stroke="#000000" stroke-width="1.0001" stroke-linecap="round" stroke-miterlimit="2.6131" d="
	M256.58,49.547c4.442,0.232,5.482-1.727,6.787-5.012"/>
<path fill-rule="evenodd" clip-rule="evenodd" fill="none" stroke="#000000" stroke-width="1.0001" stroke-linecap="round" stroke-miterlimit="2.6131" d="
	M251.099,75.599c-0.062,0.619-0.418,2.447-0.418,2.923"/>
<path fill-rule="evenodd" clip-rule="evenodd" fill="none" stroke="#000000" stroke-width="1.0001" stroke-linecap="round" stroke-miterlimit="2.6131" d="
	M284.511,70.378c1.269,0.846,3.327,3.606,3.55,3.759"/>
<path fill-rule="evenodd" clip-rule="evenodd" fill="none" stroke="#000000" stroke-width="1.0001" stroke-linecap="round" stroke-miterlimit="2.6131" d="
	M269.788,93.349c-1.871-0.041-2.401,1.09-2.401,2.714c-1.685,0,3.968,2.773,3.968-1.879
	C270.999,94.093,270.266,93.359,269.788,93.349z"/>
<path fill-rule="evenodd" clip-rule="evenodd" fill="none" stroke="#000000" stroke-width="1.0001" stroke-linecap="round" stroke-miterlimit="2.6131" d="
	M271.668,103.477c-6.797,1.254,1.775,8.819,1.775,0.94C273.443,103.775,272.149,103.388,271.668,103.477z"/>
<path fill-rule="evenodd" clip-rule="evenodd" fill="#FFFFFF" stroke="#000000" stroke-width="1.0001" stroke-linecap="round" stroke-miterlimit="2.6131" d="
	M211.631,121.331c-5.012,5.012-8.979,10.441-12.112,13.783c-3.132,3.341-12.321,8.562-11.903,10.441
	c0.418,1.879,6.265,6.266,9.188,8.354s15.453,4.176,15.453,4.176s5.22-6.265,8.771-11.276s11.277-12.32,11.277-12.32
	s-6.056-2.506-8.979-4.803C220.401,127.387,211.84,121.54,211.631,121.331z"/>
<path fill-rule="evenodd" clip-rule="evenodd" fill="#EFD7B6" stroke="#000000" stroke-width="1.0001" stroke-linecap="round" stroke-miterlimit="2.6131" d="
	M241.91,81.237c-1.462,3.759-5.22,12.112-7.1,15.453c-1.879,3.341-6.474,10.858-10.65,14.618c-4.176,3.759-6.265,6.264-7.518,6.682
	s-3.968,0-5.012,1.253c-1.044,1.253-3.132,10.65-3.132,10.65s4.176-5.011,5.429-5.429c1.253-0.417,2.506-1.879,2.506-1.879
	s4.595,5.221,5.639,6.056c1.044,0.835-1.253-4.594-0.209-5.638c1.044-1.044,6.891-3.759,10.023-8.353
	c3.132-4.594,7.935-10.65,9.188-12.947c1.253-2.297,6.265-15.244,6.265-15.244S241.701,81.237,241.91,81.237z"/>
<path fill-rule="evenodd" clip-rule="evenodd" fill="#EFD7B6" stroke="#000000" stroke-width="1.0001" stroke-linecap="round" stroke-miterlimit="2.6131" d="
	M289.731,74.972c2.088,2.297,8.771,10.858,9.396,13.573c0.627,2.715,10.441-4.385,10.441-4.385s-3.55-5.221-6.056-7.518
	s-7.1-7.1-7.1-7.1S289.94,74.972,289.731,74.972z"/>
<path fill-rule="evenodd" clip-rule="evenodd" fill="#FCFEFF" stroke="#000000" stroke-width="1.0001" stroke-linecap="round" stroke-miterlimit="2.6131" d="
	M290.566,92.513c-1.462,3.55-3.132,13.574-4.594,16.498s-2.297,5.847-2.297,5.847l3.341,5.012c0,0,14.2-4.803,19.003-7.727
	c4.803-2.923,9.814-4.803,10.65-6.056c0.835-1.253-0.418-8.562-2.089-11.485c-1.67-2.923-4.176-11.276-4.176-11.276
	s-6.265,2.088-8.354,3.55C299.964,88.337,290.357,92.305,290.566,92.513z"/>
<path fill-rule="evenodd" clip-rule="evenodd" fill="none" stroke="#000000" stroke-width="1.0001" stroke-linecap="round" stroke-miterlimit="2.6131" d="
	M285.973,113.813c3.341-1.671,19.212-6.056,21.091-7.518c1.88-1.462,8.145-4.177,8.145-4.177"/>
<path fill-rule="evenodd" clip-rule="evenodd" fill="#EFD7B6" stroke="#000000" stroke-width="1.0001" stroke-linecap="round" stroke-miterlimit="2.6131" d="
	M292.133,110.89c-1.6,7.064,6.741,6.365,6.995,7.1c6.327,0,8.034,1.24,12.393-5.412c0.494-0.754,1.854-6.184-1.671-2.661
	c-3.083,3.083-7.089,3.073-8.024-1.516c-0.563-2.762-4.534,1.932-4.367-0.018c-2.684,0-2.055,2.727-5.012,2.506
	C292.179,110.87,292.059,111.218,292.133,110.89z"/>
<path fill-rule="evenodd" clip-rule="evenodd" fill="#BFFEDF" stroke="#000000" stroke-width="1.0001" stroke-linecap="round" stroke-miterlimit="2.6131" d="
	M124.76,173.955c-1.253,3.133-4.176,18.168-4.176,20.465s-0.626,4.177-0.626,4.177h3.759c0,0,0.417,6.265,0.208,13.155
	c-0.208,6.892,0.209,23.18,0,27.774c-0.208,4.594-0.626,15.87-0.626,15.87l4.176-1.253l-0.208-27.982c0,0,55.129,0.418,58.262-0.417
	c3.133-0.836,28.609,1.461,28.609,1.461l0.208,29.027l4.594,26.729V267.3c0,0,1.253-23.389,1.044-26.729
	c-0.209-3.342-0.418-25.895-0.209-29.026c0.209-3.133-0.835-13.156-0.835-13.156l4.594,0.209c0,0,0.209-3.968-0.417-6.265
	c-0.626-2.298-1.462-21.509-1.462-21.509s-9.397-0.627-14.618,0c-5.221,0.626-31.324-1.045-36.753-0.209
	c-5.429,0.835-29.026,3.759-31.95,3.968C135.41,174.79,124.968,174.164,124.76,173.955z"/>
<path fill-rule="evenodd" clip-rule="evenodd" fill="#FC26FE" stroke="#000000" stroke-width="1.0001" stroke-linecap="round" stroke-miterlimit="2.6131" d="
	M140.63,168.316c-5.221,2.924-8.562,1.254-8.562,7.936c0,6.683,0.209,10.441,1.044,12.947s6.474,4.386,6.682,5.43
	c0.209,1.044,3.55,10.023,4.177,11.067s36.335,0.209,36.335,0.209s0.626-1.253,0.626-5.43c0-4.176,1.67-8.979,0.209-9.605
	c-1.462-0.627-1.462-3.342-1.462-3.342s7.727-1.879,8.144-6.682c0.417-4.804-5.221-13.156-7.518-13.783
	c-2.297-0.626-15.871,0-19.838,0S139.795,168.943,140.63,168.316z"/>
<path fill-rule="evenodd" clip-rule="evenodd" fill="#B08401" stroke="#000000" stroke-width="1.0001" stroke-linecap="round" stroke-miterlimit="2.6131" d="
	M137.498,171.867c7.923,1.521,0.798,7.006,2.243,9.033c2.371,3.324,0.116,0.757,3.831,3.007c2.787,1.688-0.58,2.243,4.594,6.39
	c4.425,3.547,2.297-8.637,4.731-5.221c1.631,2.289-3.419,1.462,4.075,5.531c3.91,2.123-3.435,19.266,6.683,6.718
	c3.082-3.821,0.155-2.154,0.155-8.961c0-3.314,6.874,6.37,5.692,0.054c-1.215-6.493,1.357-2.373,4.278-9.451
	c1.842-4.464-6.346-2.44-1.462-10.495c2.109-3.479-4.835-0.523,1.307-6.42c7.529-7.228-4.59-9.267-1.724-15.87
	c0.572-1.319-1.132-4.311,0.209-7.953c1.881-5.113,2.654-10.84-3.55-13.92c-2.499-1.241-10.711-8.922-13.938-7.989
	c-6.265,2.715-12.738,8.145-16.08,11.903c-3.341,3.759-3.55,7.309-2.088,9.814c1.461,2.506,3.132,10.023,3.341,11.694
	c0.209,1.671-3.55,2.506-4.594,6.056c-1.044,3.551,3.758,5.848,3.758,8.771C138.959,167.481,136.872,170.822,137.498,171.867z"/>
<path fill-rule="evenodd" clip-rule="evenodd" fill="#FD5E27" stroke="#000000" stroke-width="1.0001" stroke-linecap="round" stroke-miterlimit="2.6131" d="
	M140.63,141.169c-0.094-0.908-0.332-0.208-1.462-0.208c0,0.241-0.044,0.333,0.054,0.519c1.322,0.078-1.082,8.878,3.287,8.878
	c3.087,0,8.261,2.714,9.606,2.714c0-2.741,3.307-1.879,3.759-2.088c1.691,1.693,4.167,0.696,5.621,0.4
	c9.214-1.88,10.041-6.087,10.041-6.039c0-0.098,1.056-3.653,1.116-3.759c1.566-2.745-0.699-2.522-2.231-0.907
	c-4.732,4.987-6.695,6.318-14.355,6.981C147.923,148.365,145.836,146.933,140.63,141.169z"/>
<path fill-rule="evenodd" clip-rule="evenodd" fill="none" stroke="#000000" stroke-width="1.0001" stroke-linecap="round" stroke-miterlimit="2.6131" d="
	M151.698,125.925c-2.703,0.169-3.759,7.479-3.759,9.815c-1.51,0,4.883,3.636,2.959,10.095c-0.141,0.474-0.245,1.106-0.245,1.599"/>
<path fill-rule="evenodd" clip-rule="evenodd" fill="none" stroke="#000000" stroke-width="1.0001" stroke-linecap="round" stroke-miterlimit="2.6131" d="
	M165.063,132.19c-0.305,9.736-2.251,6.797-6.683,13.782"/>
<path fill-rule="evenodd" clip-rule="evenodd" fill="none" stroke="#000000" stroke-width="1.0001" stroke-linecap="round" stroke-miterlimit="2.6131" d="
	M151.907,147.643c-3.364,1.267-0.717,4.064,0.208,5.429c-9.115,13.002,1.702,10.016-1.933,15.453
	c-0.877,1.313,1.022,3.523,1.098,4.177c3.354,0.775,3.274,8.898,5.847,3.741c2.346-4.703,2.653-0.372,0.472-7.763
	c-0.919-3.113,7.456-4.463,2.189-6.491c-4.044-1.558-3.553-1.602-3.914-5.984c-0.02-0.24,1.771-2.804,2.088-3.341"/>
<path fill-rule="evenodd" clip-rule="evenodd" fill="none" stroke="#000000" stroke-width="1.0001" stroke-linecap="round" stroke-miterlimit="2.6131" d="
	M157.336,147.017c0.785,1.215,1.316,2.494,1.253,3.968"/>
<path fill-rule="evenodd" clip-rule="evenodd" fill="#D8A203" stroke="#000000" stroke-width="1.0001" stroke-linecap="round" stroke-miterlimit="2.6131" d="
	M188.66,181.891c-1.006,0.142-3.96,4.435-7.727,5.603l-0.417,0.662c2.418,4.091,4.711,4.557,5.584,6.318
	c0.507,1.023,6.036,10.436,7.416,6.211c2.017-6.175,7.434-13.788,8.281-20.674c0.438-3.555-0.486-12.103,1.88-13.836
	c1.552-1.137,7.312-8.403,3.097-10.96c-2.227-1.351-5.167,6.816-5.167-1.098c-0.129,0-1.133-4.598-5.709,3.968
	c-1.438,2.69,1.633,13.382-3.843,23.023C189.693,185.268,192.853,184.832,188.66,181.891z"/>
<path fill-rule="evenodd" clip-rule="evenodd" fill="none" stroke="#000000" stroke-width="1.0001" stroke-linecap="round" stroke-miterlimit="2.6131" d="
	M191.166,184.188c0.112,0.156,0.957,1.601,1.253,1.462"/>
<path fill-rule="evenodd" clip-rule="evenodd" fill="#D8A203" stroke="#000000" stroke-width="1.0001" stroke-linecap="round" stroke-miterlimit="2.6131" d="
	M135.097,191.287c-1.078,4.672,2.605,17.636,8.457,14.2c0.466,1.555,0.349-1.813-1.044-2.297c0.149-1.735-2.571-11.326-5.847-11.067
	c0.049-0.619-0.724-0.418-1.253-0.418L135.097,191.287z"/>
<path fill-rule="evenodd" clip-rule="evenodd" fill="none" stroke="#000000" stroke-width="1.0001" stroke-linecap="round" stroke-miterlimit="2.6131" d="
	M121.627,194.42c6,0,5.101-0.873,11.694,0.227c0.008,0.002,1.855-0.018,2.088-0.018"/>
<path fill-rule="evenodd" clip-rule="evenodd" fill="none" stroke="#000000" stroke-width="1.0001" stroke-linecap="round" stroke-miterlimit="2.6131" d="
	M123.924,199.223c5.13-0.549,6.563-0.676,11.085-0.626l0.4-0.209"/>
<path fill-rule="evenodd" clip-rule="evenodd" fill="none" stroke="#000000" stroke-width="1.0001" stroke-linecap="round" stroke-miterlimit="2.6131" d="
	M196.387,194.002c2.902-2.09,22.16,0.627,26.312,0.627"/>
<path fill-rule="evenodd" clip-rule="evenodd" fill="none" stroke="#000000" stroke-width="1.0001" stroke-linecap="round" stroke-miterlimit="2.6131" d="
	M181.769,198.179c3.03,0,3.32,0.091,6.474,0.627"/>
<path fill-rule="evenodd" clip-rule="evenodd" fill="none" stroke="#000000" stroke-width="1.0001" stroke-linecap="round" stroke-miterlimit="2.6131" d="
	M197.013,198.179c1.694,0.528,12.338-1.425,15.662-0.054c0.227,0.094,5.804,0.681,6.474,0.681"/>
<path fill-rule="evenodd" clip-rule="evenodd" fill="none" stroke="#000000" stroke-width="1.0001" stroke-linecap="round" stroke-miterlimit="2.6131" d="
	M182.187,194.42c0.657,0,3.332-0.083,3.341,0.209"/>
<path fill-rule="evenodd" clip-rule="evenodd" fill="#FFFFFF" stroke="#000000" stroke-width="1.0001" stroke-linecap="round" stroke-miterlimit="2.6131" d="
	M130.816,206.949c0.208,4.386,0.835,22.345,1.879,29.653c1.044,7.309,0.208,16.706,0.417,17.959s40.303,1.253,41.974,0.417
	c1.671-0.835,15.244-10.023,15.244-10.023s-2.506-19.421-2.715-21.927c-0.208-2.505-3.341-18.167-3.341-18.167
	s-32.576,0.209-36.961,0.417C142.927,205.487,130.398,206.949,130.816,206.949z"/>
<path fill-rule="evenodd" clip-rule="evenodd" fill="#BFFEDF" stroke="#000000" stroke-width="1.0001" stroke-linecap="round" stroke-miterlimit="2.6131" d="
	M117.033,253.1c-1.462,5.43-4.386,16.915-4.803,22.345c-0.417,5.429-1.461,12.32-1.461,12.32s67.242-0.417,74.55-0.209
	c7.309,0.209,34.874-0.626,34.874-0.626s-3.968-20.048-4.803-23.389s0.417-9.814-1.044-10.023
	c-1.461-0.209-12.32,2.088-25.476,1.253c-13.156-0.836-56.8-1.253-60.768-1.671S117.033,253.518,117.033,253.1z"/>
<path fill-rule="evenodd" clip-rule="evenodd" fill="#FFFF00" stroke="#000000" stroke-width="1.0001" stroke-linecap="round" stroke-miterlimit="2.6131" d="
	M151.489,285.676c6.474-2.506,7.518-4.803,18.167-3.341c10.65,1.462,21.718,0.835,23.806,2.924
	c2.088,2.088-8.562,2.297-10.023,2.088s-34.665,0.627-34.665,0.627S151.28,285.676,151.489,285.676z"/>
<path fill-rule="evenodd" clip-rule="evenodd" fill="#F9DDBC" stroke="#000000" stroke-width="1.0001" stroke-linecap="round" stroke-miterlimit="2.6131" d="
	M165.689,272.938c0.209,3.55,0.417,10.44,0.417,10.44l10.859,0.627l-1.67-10.859C175.295,273.146,166.107,273.146,165.689,272.938z"
	/>
<path fill-rule="evenodd" clip-rule="evenodd" fill="#FC26FE" stroke="#000000" stroke-width="1.0001" stroke-linecap="round" stroke-miterlimit="2.6131" d="
	M187.251,216.765c0.86-0.039,8.022,2.242,9.083,2.749c2.82,1.346,6.215,2.679,7.795,5.352c2.182,3.692,2.968,10.382,4.039,14.913
	c0.569,2.404,0.223,6.103,1.294,8.875c0.011,0.028,0.505,4.194,0.609,4.794c-0.762,0.229-7.985,1.26-8.404,0.681
	c-2.027-2.807-2.015-6.767-4.394-10.313c-0.254-0.379-6.823-14.919-7.014-15.627c-0.361-1.342-1.771-1.993-2.27-6.047
	C187.903,221.428,186.868,216.782,187.251,216.765z"/>
<path fill-rule="evenodd" clip-rule="evenodd" fill="#D96D00" stroke="#000000" stroke-width="1.0001" stroke-linecap="round" stroke-miterlimit="2.6131" d="
	M164.019,229.503c-4.581-1.09-4.101-0.418-8.144-0.418c0,0.139-3,0.796-3.514,0.954c-0.249-0.829-5.667,3.578-1.289,7.607
	c-9,0-8.2,8.339-5.43,8.979c-5.165-1.33-6.787,3.975-3.896,8.753c1.811,2.992,3.206,4.721,7.237,4.403
	c-6.632,1.138-6.301,15.335,3.985,13.591c6.62-1.121,1.976-7.331,5.883,0.556c2.091,4.22,9.156-0.747,8.926,1.933
	c8.109,2.808,9.267-6.078,10.65-1.652c0.591,1.89,6.384,2.014,7.989-1.217c0.724-1.458,3.86,2.781,9.987-4.439
	c2.651-3.124,0.451-7.309-2.941-7.309c8.266,0,14.507-14.618,7.1-14.618c-0.462,0,7.934-2.519,0.835-8.198
	c-4.755-3.805-6.763-0.104-5.847-2.869c1.947-5.881-5.281-12.308-10.65-8.717c-0.506,0.338-3.447,0.275-3.341,1.616
	c-1.32-6.454-9.042-6.688-13.574-3.132C166.424,226.553,165.244,229.794,164.019,229.503z"/>
<path fill-rule="evenodd" clip-rule="evenodd" fill="#FEDFBF" stroke="#000000" stroke-width="1.0001" stroke-linecap="round" stroke-miterlimit="2.6131" d="
	M263.42,189.304c0,5.012-0.521,20.883,0.313,29.653s0.417,17.332,1.044,24.224c0.626,6.892,1.879,11.067,0,16.079
	c-1.88,5.012-2.297,8.979-2.297,8.979s7.517-1.879,9.396-4.594s4.803-1.671,3.55,1.671c-1.253,3.341-5.221,10.231-3.55,14.408
	s7.936,3.968,8.563,1.671c0.626-2.297,1.044-2.088,1.253-7.309c0.208-5.221,0-6.056,1.253-11.485s3.132-22.762,4.176-29.235
	s3.133-21.301,3.551-25.686c0.417-4.386,1.565-14.723,2.61-18.063c-2.089-0.522-4.595-0.104-6.683,0.313
	c-2.089,0.417-13.052,1.356-15.14,1.147C269.371,190.87,262.585,189.304,263.42,189.304z"/>
<path fill-rule="evenodd" clip-rule="evenodd" fill="none" stroke="#000000" stroke-width="1.0001" stroke-linecap="round" stroke-miterlimit="2.6131" d="
	M277.829,190.87c-0.209,3.132-1.044,15.035-1.044,22.762s0.208,12.738-0.209,19.63c-0.418,6.891-1.253,11.902-1.253,17.123
	s-0.418,12.32-0.418,12.32"/>
<path fill-rule="evenodd" clip-rule="evenodd" fill="#BB05FB" stroke="#000000" stroke-width="1.0001" stroke-linecap="round" stroke-miterlimit="2.6131" d="
	M263.368,263.228c-0.05,0.015-4.197,5.502-4.803,6.108c-1.087,1.087-5.595,4.266-5.438,5.533c0.048,0.392,0.445,1.865,0.426,2.089
	c3.643,1.257,8.664-1.659,11.694-3.705c3.901-2.634,5.423-6.275,8.422-10c0.499-0.62,2.728-5.401,0.141-4.331
	c-4.066,1.68-3.749,3.648-6.614,6.098c-1.773,1.516,0.133,1.951-3.854,3.027C262.766,268.202,263.303,263.247,263.368,263.228z"/>
<path fill-rule="evenodd" clip-rule="evenodd" fill="#BB05FB" stroke="#000000" stroke-width="1.0001" stroke-linecap="round" stroke-miterlimit="2.6131" d="
	M271.616,276.906c-0.159,0.125-1.355,10.634,1.357,11.814c5.108,2.224,6.928,1.251,7.944-4.454c0.167-0.935,1.207-7.77,0.305-7.005
	c-0.604,0.514-3.539,1.669-3.55,1.68c-0.078-0.219-3.416-0.042-3.786-0.268C273.43,279.025,271.241,277.201,271.616,276.906z"/>
<path fill-rule="evenodd" clip-rule="evenodd" fill="#C1FDDF" stroke="#000000" stroke-width="1.0001" stroke-linecap="round" stroke-miterlimit="2.6131" d="
	M304.871,167.168c-0.208,5.847-1.044,27.565-0.417,37.38c0.626,9.814,0.208,32.367,0.417,39.677
	c0.209,7.309,0.627,13.573,0.418,21.091c-0.209,7.519,0.418,17.541,0.627,19.003s4.594,1.253,5.847,0.627
	c1.253-0.627,45.315-9.188,50.327-15.662s24.433-40.094,25.895-45.314c1.461-5.221,14.199-23.18,13.364-28.191
	c-0.835-5.013-2.297-28.4-3.341-28.818c-1.045-0.417-15.871,1.044-23.18,0.418c-7.309-0.627-53.251,0.208-55.965,0
	C316.148,167.168,304.454,166.959,304.871,167.168z"/>
<path fill-rule="evenodd" clip-rule="evenodd" fill="#FFFFFF" stroke="#000000" stroke-width="1.0001" stroke-linecap="round" stroke-miterlimit="2.6131" d="
	M299.86,178.653c4.385,3.968,9.813,12.112,11.693,15.871s9.397,13.782,11.276,17.75c1.88,3.968,13.574,15.662,14.618,17.541
	c1.044,1.88,5.43-21.718,7.1-25.059c1.671-3.342,0.418-16.706-2.088-19.63s-13.991-17.332-13.991-17.332s-3.759,0.208-7.727,2.297
	c-3.968,2.088-12.946,5.43-14.617,6.265s-7.101,3.132-7.101,3.132L299.86,178.653z"/>
<path fill-rule="evenodd" clip-rule="evenodd" fill="#FAE0C4" stroke="#000000" stroke-width="1.0001" stroke-linecap="round" stroke-miterlimit="2.6131" d="
	M334.942,176.461c-0.489,3.341,5.986,11.427,10.912,9.973c2.872-0.848,16.443,2.413,16.443-1.933c0-1.783-0.417-3.253-0.417-3.968
	c-1.711,0,4.495-12.738-15.071-12.738c-3.834,0-11.404,4.954-11.641,8.135L334.942,176.461z"/>
<path fill-rule="evenodd" clip-rule="evenodd" fill="#001A63" stroke="#000000" stroke-width="1.0001" stroke-linecap="round" stroke-miterlimit="2.6131" d="
	M320.324,224.908c-5.726-2.749-6.803,5.626-6.038,9.919c0.675,3.788,0.272,15.823,1.916,18.532c2.062,3.398,0.817,9.79,12.666,6.998
	c9.627-2.269,13.809,2.15,13.156-9.17c-0.255-4.425,1.213-12.314,0.209-16.76c-0.419-1.854-1.918-11.982-3.741-5.257
	c-0.5,1.847-2.685-2.487-7.727-2.487C324.592,226.684,325.605,227.443,320.324,224.908z"/>
<path fill-rule="evenodd" clip-rule="evenodd" fill="#FAD9B9" stroke="#000000" stroke-width="1.0001" stroke-linecap="round" stroke-miterlimit="2.6131" d="
	M313.016,199.745c-0.513-3.132,6.955-4.688,3.622-8.008c-0.263-0.261-0.609-0.297-1.116-0.346
	c-6.502,1.818-9.086,6.422-8.335,12.529c0.017,0.13,4.896,3.856,5.692,5.203c3.012,5.092,4.992,15.931,5.758,22.153
	c0.868,7.062,6.807,4.854,12.076,2.243c3.489-1.729,6.092-17.856,5.064-17.434c-7.721,3.182-9.6-11.604-9.396-2.017
	c0.072,3.43-4.074,12.468-3.759,5.095c0.021-0.479-0.418-2.522-0.418-3.759c-0.535,0,0.896-5.908-0.907-7.446
	c-1.911-1.628-0.831-5.699-0.346-7.589c3.897,0.308,2.33-10.968-4.749,0.054c-1.869,2.909,0.951,1.027-2.769-0.263
	C313.434,199.988,312.919,200.255,313.016,199.745z"/>
<path fill-rule="evenodd" clip-rule="evenodd" fill="none" stroke="#000000" stroke-width="1.0001" stroke-linecap="round" stroke-miterlimit="2.6131" d="
	M318.236,243.807c2.834,1.95,5.089,7.656,7.936,9.606"/>
<path fill-rule="evenodd" clip-rule="evenodd" fill="#B18500" stroke="#000000" stroke-width="1.0001" stroke-linecap="round" stroke-miterlimit="2.6131" d="
	M366.684,130.624c2.462-1.867-1.799-6.882-10.441-1.098c-0.836,0.56-2.954,1.699-3.168,2.733c-0.068,0.014-4.217-7.812-5.34-8.598
	c-3.648-2.557-1.459,0.332-2.613,4.302c-0.777,2.672-0.503,6.545-0.346,8.997l-0.228-0.489c-1.187-1.78-16.098-9.167-12.529-5.012
	c0.559,0.65,5.104,11.089,3.568,10.495c-3.045-1.177-22.023,6.42-12.619,6.42c0.42,0,10.086,0.617,5.346,1.253
	c-5.138,0.689-14.417,12.345-10.686,11.885c3.015-0.372,9.135-0.121,11.85-1.062c0.226-1.097-6.508,18.194-0.382,11.521
	c6.535-7.12-1.051,8.145,5.429,8.145c2.344,0,7.345-8.207,8.145-8.145c-0.772,3.567-1.182,13.218,5.43,8.145
	c3.825-2.937,2.882,0.194,8.979-0.645c4.251-0.585,6.242,2.602,6.873-3.741c0.107-1.085,3.786-3.607,6.545-1.533
	c2.407,1.81,1.544-6.37,1.617-8.072c0.136-3.164-4.671-5.054,1.879-2.351c3.243,1.338,0.803-5.291,0.645-7.255
	c-0.162-2.018-4.449-5.082,2.07-4.804c0.382,0.017,3.264-1.844,3.968-2.088c-1.163-4.522-8.281-6.265-11.902-6.265
	c0.268-1.163,6.79-3.426-5.239-6.265C354.828,135.044,363.042,134.265,366.684,130.624z"/>
<path fill-rule="evenodd" clip-rule="evenodd" fill="#4E79FE" stroke="#000000" stroke-width="1.0001" stroke-linecap="round" stroke-miterlimit="2.6131" d="
	M325.44,208.62c1.663,3.405,4.803,6.995,9.084,6.995c0,1.071,36.16-0.313,40.459-1.408c1.407-0.358,16.346-2.477,15.787-3.604
	c-2.183-4.397-1.115-0.173-1.516-6.42c-0.069-1.079-7.115-12.371-7.327-12.583c-4.971-4.972-1.757-5.265-9.396-8.699
	c-5.534-2.487-25.734-1.039-32.159,2.089c-0.859,0.418-3.603,1.493-3.968,2.225C333.115,187.538,323.036,203.696,325.44,208.62z"/>
<path fill-rule="evenodd" clip-rule="evenodd" fill="#FFFFFF" stroke="#000000" stroke-width="1.0001" stroke-linecap="round" stroke-miterlimit="2.6131" d="
	M339.119,208.933c-0.209,10.232-0.418,18.795-0.418,29.027c0,10.231-3.341,20.673,0,20.882c3.342,0.209,55.547,0,57.636-0.835
	c2.088-0.835,3.133-32.368,2.924-34.874s-3.133-14.617-8.145-16.497c-5.012-1.879-27.565-0.835-31.532-0.418
	C355.616,206.636,338.701,208.933,339.119,208.933z"/>
<path fill-rule="evenodd" clip-rule="evenodd" fill="#BFFEDF" stroke="#000000" stroke-width="1.0001" stroke-linecap="round" stroke-miterlimit="2.6131" d="
	M315.939,254.874c-0.418,11.068,1.253,25.686,1.044,30.28c-0.209,4.594-0.418,11.067-0.418,11.067l4.386-0.418l0.418-10.44
	l2.923,4.176c0,0,16.288,0.836,24.015,0.418c7.728-0.418,47.612-1.044,49.492-1.253c1.879-0.209,22.762-1.462,24.015-1.462
	s-16.706-22.553-18.585-24.433c-1.88-1.879-8.145-8.353-11.486-8.771c-3.341-0.418-37.797,1.253-43.644,0.418
	c-5.848-0.836-24.851-0.835-26.104-1.044S316.148,254.666,315.939,254.874z"/>
<path fill-rule="evenodd" clip-rule="evenodd" fill="none" stroke="#000000" stroke-width="1.0001" stroke-linecap="round" stroke-miterlimit="2.6131" d="
	M317.818,261.348c0.627,6.474,3.968,20.674,3.968,20.674"/>
</svg>
