<?xml version="1.0" encoding="UTF-8" standalone="no"?>
<!-- Created with Inkscape (http://www.inkscape.org/) -->

<svg
   xmlns:dc="http://purl.org/dc/elements/1.1/"
   xmlns:cc="http://creativecommons.org/ns#"
   xmlns:rdf="http://www.w3.org/1999/02/22-rdf-syntax-ns#"
   xmlns:svg="http://www.w3.org/2000/svg"
   xmlns="http://www.w3.org/2000/svg"
   xmlns:xlink="http://www.w3.org/1999/xlink"
   xmlns:sodipodi="http://sodipodi.sourceforge.net/DTD/sodipodi-0.dtd"
   xmlns:inkscape="http://www.inkscape.org/namespaces/inkscape"
   width="312.83954"
   height="243.42575"
   id="svg26630"
   version="1.1"
   inkscape:version="0.48.5 r10040"
   sodipodi:docname="HummingBirdRider Animation.svg">
  <defs
     id="defs26632" />
  <sodipodi:namedview
     inkscape:document-units="in"
     pagecolor="#ffffff"
     bordercolor="#666666"
     borderopacity="1.0"
     inkscape:pageopacity="0.0"
     inkscape:pageshadow="2"
     inkscape:zoom="0.95874429"
     inkscape:cx="-71.693887"
     inkscape:cy="83.26231"
     inkscape:current-layer="layer1"
     id="namedview26634"
     showgrid="false"
     inkscape:window-width="1366"
     inkscape:window-height="705"
     inkscape:window-x="-8"
     inkscape:window-y="-8"
     inkscape:window-maximized="1"
     units="px"
     fit-margin-top="40"
     fit-margin-left="40"
     fit-margin-right="40"
     fit-margin-bottom="40" />
  <metadata
     id="metadata26636">
    <rdf:RDF>
      <cc:Work
         rdf:about="">
        <dc:format>image/svg+xml</dc:format>
        <dc:type
           rdf:resource="http://purl.org/dc/dcmitype/StillImage" />
        <dc:title></dc:title>
      </cc:Work>
    </rdf:RDF>
  </metadata>
  <g
     inkscape:label="Layer 1"
     inkscape:groupmode="layer"
     id="layer1"
     transform="translate(-279.77315,-278.33885)">
    <g
       transform="matrix(-1.59,0,0,1.59,2010.1419,147.56648)"
       id="HummingBirdGrouped-8"
       inkscape:label="#g5467">
      <animateTransform
         type="translate"
         to="0 0"
         from="0 0"
         fill="freeze"
         dur="5s"
         begin="0s"
         attributeName="transform"
         id="animateTransform5543-4"
         repeatCount="1200"
         additive="sum"
         valuesH="0 -180; 0 -340;0 -520;0 -740"
         values="0 -12; 0 -22;9 -18;2 -22;0 -12" />
      <g
         inkscape:label="#g4363"
         id="Frame1-8-0"
         transform="translate(810,-182)">
        <animate
           values="visible;hidden;hidden;hidden;hidden;hidden;hidden;hidden"
           type="display"
           to="visible"
           from="hidden"
           fill="freeze"
           attributeName="visibility"
           repeatCount="6000"
           dur="200ms"
           begin="1s"
           id="animate5204-5-7" />
        <path
           style="fill:#a744b8;fill-opacity:1;fill-rule:nonzero;stroke:#000000;stroke-width:0.40000001;stroke-linecap:round;stroke-linejoin:round;stroke-miterlimit:4;stroke-opacity:1;stroke-dasharray:none;stroke-dashoffset:0"
           d="m 172.49071,341.70384 c -5.34215,-8.37119 -7.87553,-10.71182 -11.56547,-14.209 -6.19579,-5.81027 -11.4286,-9.78651 -17.84387,-12.22636 0.11015,1.21162 -0.71434,1.95593 0.33044,3.63487 -0.11015,1.43191 -1.33017,2.04602 -0.33044,4.29574 -0.55074,1.54206 -1.86086,1.79901 -1.65221,4.62619 0.66088,1.32177 -0.31384,2.64353 1.98265,3.9653 0.55074,1.10147 -1.05986,2.08612 1.65221,3.30442 1.32177,1.54206 -0.16035,3.25937 3.96531,4.62619 1.10147,1.21162 -0.77619,3.00738 3.30442,3.63486 0.48633,0.93299 -0.86331,1.99711 3.63486,2.64354 0.66088,0.88118 -0.72274,1.87918 1.98265,2.64353 0.77103,0.99133 -0.96976,2.27473 2.31309,2.97398 1.87251,0.44059 1.35002,3.86032 5.61752,1.32177 3.76181,-1.38018 3.90192,-2.29305 4.62618,-3.96531"
           id="path3347-6-6"
           inkscape:connector-curvature="0"
           sodipodi:nodetypes="ccccccccccccccc"
           sodipodi:insensitive="true" />
        <use
           x="0"
           y="0"
           xlink:href="#HummingBirdBody-1-0"
           id="use4127-1-3"
           transform="translate(-110,0)"
           width="1260"
           height="765" />
        <path
           style="fill:#a744b8;fill-opacity:1;fill-rule:nonzero;stroke:#000000;stroke-width:0.40000001;stroke-linecap:round;stroke-linejoin:round;stroke-miterlimit:4;stroke-opacity:1;stroke-dasharray:none;stroke-dashoffset:0"
           d="m 169.86919,343.01409 c 0,-2.49235 -14.48678,-10.59248 -21.73017,-15.88872 -15.73296,-10.98192 -28.42836,-16.82336 -40.89011,-15.42142 1.24617,1.40195 -0.72044,2.92072 3.73852,4.20584 0.44667,1.21429 -2.5997,2.91222 2.33658,3.50487 2.02503,2.10292 0.9249,6.36717 6.0751,6.30876 0.85675,1.24617 -1.23644,3.07649 2.57024,3.73852 1.16829,1.32406 -1.72323,3.64118 3.50486,3.97219 1.79138,1.94715 -0.18498,5.76355 5.37413,5.84144 1.47983,1.0904 -0.31154,3.40751 4.4395,3.27121 1.0904,0.93463 -0.47705,3.44645 3.27121,2.80389 1.01252,1.6356 -0.66203,4.38108 3.03755,4.90681 1.24617,0.70097 -0.22392,2.57024 3.73852,2.10292 1.47983,0.70097 0.91516,3.15438 4.4395,2.10292 1.55772,0.46732 0.95411,2.07371 4.67316,1.40195 0.69124,1.45062 2.02503,0.62309 3.03755,0.93463 1.32406,-0.77886 2.64812,-1.55772 3.97218,-2.33658 1.40195,-0.85674 2.80389,-1.71349 4.20584,-2.57023"
           id="path3345-8-6"
           inkscape:connector-curvature="0"
           sodipodi:nodetypes="cccccccccccccccccc"
           sodipodi:insensitive="true" />
      </g>
      <g
         inkscape:label="#g4370"
         id="Frame2-9-5"
         transform="translate(700,-182)">
        <animate
           id="animate5218-5-4"
           begin="1s"
           dur="200ms"
           repeatCount="6000"
           attributeName="visibility"
           fill="freeze"
           from="hidden"
           to="visible"
           type="display"
           values="hidden;visible;hidden;hidden;hidden;hidden;hidden;hidden" />
        <path
           style="fill:#a744b8;fill-opacity:1;fill-rule:nonzero;stroke:#000000;stroke-width:0.40000001;stroke-linecap:round;stroke-linejoin:round;stroke-miterlimit:4;stroke-opacity:1;stroke-dasharray:none;stroke-dashoffset:0"
           d="m 286.82363,356.90417 c 2.75368,-1.32177 4.80639,-3.69499 8.26105,-3.9653 2.63017,0.29035 5.37717,1.04802 8.59149,2.97398 10.8813,3.68487 18.72504,8.65486 28.08756,14.209 -2.0928,2.20087 -4.18559,0.66089 -6.27839,0.99133 -1.21162,-0.99133 -3.4208,-3.10491 -4.63242,-4.09624 1.21162,0.66088 3.04671,2.94281 4.25833,3.60369 -1.939,2.14892 -3.75332,0.18289 -6.1911,-1.78314 -0.88118,-0.99133 -2.13645,-1.35917 -3.01763,-2.3505 1.43192,1.21162 2.86383,2.42324 4.29575,3.63486 -0.94768,1.82678 -2.64354,0.66089 -3.96531,0.99133 -1.32177,-1.10147 -4.13987,-3.4499 -5.46164,-4.55137 0.88118,0.99132 3.88217,3.1049 4.76335,4.09622 -1.76236,2.07618 -4.77167,0.91029 -7.1575,0.99133 -1.21162,-0.77103 -2.29855,-3.0384 -3.51017,-3.80943 0.44059,0.66088 2.00344,2.94281 2.44403,3.60369 -1.9016,1.85588 -3.30442,0.22029 -4.95663,0.33044 -1.21162,-1.54206 -2.42324,-3.08413 -3.63486,-4.62619 1.21162,1.32177 2.42324,2.64354 3.63486,3.96531 -1.66676,1.62104 -3.08413,0 -4.62619,0 -0.88118,-0.99133 -1.76235,-1.98265 -2.64353,-2.97398 0.55074,0.88118 1.10147,1.76235 1.65221,2.64353 -2.0263,1.15136 -3.30442,-0.44059 -4.95663,-0.66088 -0.11015,-0.99133 -0.2203,-1.98265 -0.33045,-2.97398 0,1.10147 0,2.20295 0,3.30442 -2.05539,0.90197 -2.86383,-0.44059 -4.29574,-0.66088 0.66088,-1.87251 1.32177,-3.74501 1.98265,-5.61752 -0.99133,1.87251 -1.23448,3.86971 -2.22581,5.74222 -1.84964,0.44682 -2.95112,-1.22617 -4.05259,-1.77691 0.88118,-1.32177 1.76236,-2.64354 2.64354,-3.96531 -0.88118,0.88118 -1.76236,1.76236 -2.64354,2.64354 -0.33044,-0.55074 -0.66088,-1.10147 -0.99132,-1.65221 0.88118,-1.21162 1.76235,-2.42324 2.64353,-3.63486"
           id="path6114-3-2"
           inkscape:connector-curvature="0"
           sodipodi:nodetypes="ccccccccccccccccccccccccccccccccc" />
        <g
           id="HummingBirdBody-1-0"
           inkscape:label="#g4117">
          <path
             sodipodi:nodetypes="ccccccccccccc"
             inkscape:connector-curvature="0"
             id="path6116-2-9"
             d="m 310.28501,330.79926 c -6.61228,1.01785 -9.25238,8.81178 -13.87857,13.21767 -0.0767,3.00738 -0.6208,5.66429 -1.98265,7.26973 -2.64354,3.52471 -5.28707,7.04943 -7.93061,10.57414 -3.85515,4.51604 -2.92033,6.81233 -11.56546,13.54812 -3.19427,0.70765 -6.62221,1.29849 -9.58282,-0.33044 -1.82898,3.92197 -5.17673,6.55883 -13.54812,8.26105 -4.51604,2.86383 -9.03208,5.72766 -13.54812,8.59149 6.60884,-10.2437 14.97011,-23.87544 21.3453,-30.26378 6.0581,-7.82046 10.59742,-16.10824 16.65552,-23.9287 3.20764,-5.92467 5.94796,-8.81179 8.92194,-13.21768 3.30766,-2.74376 8.9519,-5.838 15.53077,-2.97398 3.19427,3.08413 5.45392,4.06533 9.58282,9.25238 z"
             style="fill:#ff00ff;fill-opacity:1;stroke:#000000;stroke-width:0.5;stroke-linecap:round;stroke-linejoin:round;stroke-miterlimit:4;stroke-opacity:1;stroke-dasharray:none;stroke-dashoffset:0" />
          <path
             sodipodi:nodetypes="ccccccccc"
             inkscape:connector-curvature="0"
             id="path6162-3-7"
             d="m 251.13589,372.43494 c 2.25802,-3.24934 5.50737,-7.49002 7.93061,-9.58281 6.0581,-8.20598 9.14223,-13.43797 15.69599,-22.30483 4.57112,-5.4523 16.08151,-15.696 6.11318,3.46963 -1.26669,5.72766 -7.02905,10.13355 -9.28707,13.21768 -3.74501,4.73634 -7.3248,8.31613 -9.25238,9.25238 -4.29575,0.38552 -2.93928,2.42324 -4.92193,3.63486 -3.80008,2.58847 -7.43494,5.67259 -11.40025,10.73937 1.70729,-2.80876 3.41457,-5.61752 5.12185,-8.42628 z"
             style="opacity:0.76754384;fill:#999999;fill-opacity:1;fill-rule:nonzero;stroke:#000000;stroke-width:0.1;stroke-linecap:round;stroke-linejoin:round;stroke-miterlimit:4;stroke-opacity:1;stroke-dasharray:none;stroke-dashoffset:0" />
          <path
             sodipodi:nodetypes="ccc"
             inkscape:connector-curvature="0"
             id="path6118-3-3"
             d="m 305.97483,327.12537 26.52016,2.4534 -24.88455,1.28512"
             style="fill:#999999;stroke:#000000;stroke-width:0.5;stroke-linecap:round;stroke-linejoin:round;stroke-miterlimit:4;stroke-opacity:1;stroke-dasharray:none;stroke-dashoffset:0" />
          <path
             sodipodi:nodetypes="cccccccccccccc"
             inkscape:connector-curvature="0"
             id="path6140-4-7"
             d="m 296.86218,343.71507 c -3.81641,-3.77747 -11.24061,7.64672 -17.15994,7.84144 -0.19471,-0.23366 3.26008,-3.88317 4.58415,-5.51877 5.06258,-8.45062 5.52711,-10.22809 6.968,-12.72044 0.50626,-0.73992 1.01252,-1.47983 1.51878,-2.21975 1.16828,-0.93463 0.70097,-2.21975 -1.40195,-3.50487 -3.42698,0.15577 -7.78859,4.51739 -16.23921,12.38386 3.85535,-5.60779 7.46132,-11.0597 11.7531,-16.51162 2.57023,-1.6828 4.95343,-2.181 7.52366,-3.11563 2.6015,0.36592 4.36132,0.60716 6.49522,1.87713 1.63561,1.28512 3.45825,2.91315 5.09386,4.19827 -1.16829,-0.2726 -4.69617,5.76327 3.36502,3.6214 -2.18081,1.59666 -4.36161,3.19332 -6.54242,4.78998 -1.98609,2.95967 -3.97218,5.91933 -5.95827,8.879 z"
             style="opacity:0.76754384;fill:#8c58a3;fill-opacity:1;fill-rule:nonzero;stroke:#000000;stroke-width:0.1;stroke-linecap:round;stroke-linejoin:round;stroke-miterlimit:4;stroke-opacity:1;stroke-dasharray:none;stroke-dashoffset:0" />
          <path
             sodipodi:nodetypes="aaaaa"
             inkscape:connector-curvature="0"
             id="path6120-1-2"
             d="m 294.17511,327.70951 c 0.10431,1.54247 1.95893,3.05055 3.50487,3.03755 1.51672,-0.0127 3.49163,-1.52431 3.38804,-3.03755 -0.11876,-1.73491 -2.59781,-3.14178 -4.32267,-2.92072 -1.28634,0.16486 -2.65774,1.62681 -2.57024,2.92072 z"
             style="fill:#1a1a1a;stroke:#000000;stroke-width:1;stroke-linecap:round;stroke-linejoin:round;stroke-miterlimit:4;stroke-opacity:1;stroke-dasharray:none;stroke-dashoffset:0" />
          <path
             sodipodi:nodetypes="aaaaa"
             inkscape:connector-curvature="0"
             id="path6120-5-1-6"
             d="m 296.93993,327.10573 c 0.0436,0.64493 0.81905,1.27549 1.46545,1.27005 0.63416,-0.009 1.45992,-0.63734 1.41661,-1.27005 -0.0497,-0.72541 -1.08618,-1.31365 -1.8074,-1.22122 -0.53784,0.0691 -1.11125,0.68021 -1.07466,1.22122 z"
             style="fill:#ffffff;stroke:#000000;stroke-width:0.41812027;stroke-linecap:round;stroke-linejoin:round;stroke-miterlimit:4;stroke-opacity:1;stroke-dasharray:none;stroke-dashoffset:0" />
          <path
             sodipodi:nodetypes="cccc"
             inkscape:connector-curvature="0"
             id="path6142-3-0"
             d="m 247.00537,385.4874 c 3.24935,-3.91023 7.32479,-4.51604 10.73936,-6.60884 2.53339,-2.42324 4.57112,-2.53338 7.10451,-4.95662 0.88117,4.18559 -1.87251,4.57111 -3.80009,6.11317"
             style="opacity:0.67105264;fill:#ffffff;fill-opacity:1;fill-rule:nonzero;stroke:#000000;stroke-width:0.1;stroke-linecap:round;stroke-linejoin:round;stroke-miterlimit:4;stroke-opacity:1;stroke-dasharray:none;stroke-dashoffset:0" />
          <path
             sodipodi:nodetypes="cccc"
             inkscape:connector-curvature="0"
             id="path6142-0-8-1"
             d="m 280.23645,370.14099 c 5.55091,-4.49424 -15.65199,13.67632 0.76401,-5.07105 0.41143,-2.50676 1.87432,-5.94815 5.20648,-11.72612 5.03187,-4.68154 9.83007,-6.44236 8.78684,-3.88051"
             style="opacity:0.67105264;fill:#ffffff;fill-opacity:1;fill-rule:nonzero;stroke:#000000;stroke-width:0.1;stroke-linecap:round;stroke-linejoin:round;stroke-miterlimit:4;stroke-opacity:1;stroke-dasharray:none;stroke-dashoffset:0" />
        </g>
        <path
           style="fill:#a744b8;fill-opacity:1;fill-rule:nonzero;stroke:#000000;stroke-width:0.5;stroke-linecap:round;stroke-linejoin:round;stroke-miterlimit:4;stroke-opacity:1;stroke-dasharray:none;stroke-dashoffset:0"
           d="m 279.22346,348.64312 c -10.13355,-18.06416 -24.89329,-21.58887 -37.33994,-27.42668 0.33044,1.32177 0.66089,2.64353 0.99133,3.9653 -0.33044,0.99133 -0.66089,1.98265 -0.99133,2.97398 0.55074,1.10147 1.10147,2.20295 1.65221,3.30442 -0.55074,1.21162 -1.10147,2.42324 -1.65221,3.63486 0.66088,0.99133 1.32177,1.98265 1.98265,2.97398 0,1.32177 0,2.64353 0,3.9653 0.99133,0.77103 1.98265,1.54207 2.97398,2.3131 0.33044,1.10147 0.66088,2.20295 0.99132,3.30442 0,1.32177 0,2.64353 0,3.9653 1.32177,1.10147 2.64354,2.20295 3.96531,3.30442 0.88118,0.88118 1.76235,1.76236 2.64353,2.64354 0.77103,1.10147 1.54207,2.20294 2.3131,3.30441 1.32177,0.33044 2.64353,0.66089 3.9653,0.99133 1.10147,0 2.20295,0 3.30442,0 1.21162,-0.33044 2.42324,-0.66089 3.63486,-0.99133 0.99133,-0.44059 1.15655,-1.37683 2.14788,-1.81742 0.22029,-1.32177 1.26669,-2.14788 1.48698,-3.46965 l 0,0"
           id="path6112-7-6"
           inkscape:connector-curvature="0"
           sodipodi:nodetypes="cccccccccccccccccccc"
           sodipodi:insensitive="true" />
      </g>
      <g
         inkscape:label="#g4385"
         id="Frame3-7-7"
         transform="translate(592,-182)">
        <animate
           id="animate5206-7-5"
           begin="1s"
           dur="200ms"
           repeatCount="6000"
           attributeName="visibility"
           from="hidden"
           to="visible"
           type="display"
           values="hidden;hidden;visible;hidden;hidden;hidden;hidden;hidden"
           fill="freeze" />
        <path
           style="fill:#a744b8;fill-opacity:1;stroke:#000000;stroke-width:0.40000001;stroke-linecap:round;stroke-linejoin:round;stroke-miterlimit:4;stroke-opacity:1;stroke-dasharray:none;stroke-dashoffset:0"
           d="m 395.04337,359.71293 c 3.9653,-1.59714 9.58282,0.44059 14.37423,0.66088 3.52471,0.93625 7.37987,1.0464 10.57414,2.80876 5.39722,1.26669 10.46399,2.86383 15.69599,2.31309 6.55376,-1.0464 14.09886,-1.43191 16.68732,-5.12185 -8.48134,1.15655 -14.81482,0.82611 -23.46138,-2.47831 -5.45229,-2.53339 -10.90458,-5.06678 -16.35687,-7.60017 -4.24068,-0.71596 -9.80312,0.2203 -13.54813,0.82611 l 0,0"
           id="path6104-3-4"
           inkscape:connector-curvature="0"
           sodipodi:nodetypes="cccccccc" />
        <path
           style="fill:#ffabff;fill-opacity:1;stroke:none"
           d="m 418.66997,353.93019 -7.1045,-3.9653 -12.39157,1.65221 0,2.14787"
           id="path6106-1-1"
           inkscape:connector-curvature="0" />
        <use
           x="0"
           y="0"
           xlink:href="#HummingBirdBody-1-0"
           id="use4160-9-2"
           transform="translate(108,0)"
           width="1260"
           height="765" />
        <path
           style="fill:#ffabff;fill-opacity:1;stroke:none"
           d="m 367.94713,356.57373 0.57827,2.3957 1.98266,1.23916 4.04791,-0.0826 3.71747,-2.31309 3.80008,-3.63487 2.97398,-4.87401 1.65221,-4.7088 -0.24783,-2.89137 -1.65221,-1.73482 -3.05659,0.49566 -1.23916,0.16522"
           id="path6110-6-0"
           inkscape:connector-curvature="0" />
        <path
           style="fill:#a744b8;fill-opacity:1;stroke:#000000;stroke-width:0.40000001;stroke-linecap:round;stroke-linejoin:round;stroke-miterlimit:4;stroke-opacity:1;stroke-dasharray:none;stroke-dashoffset:0"
           d="m 381.33003,340.05163 c 2.56092,-0.0275 3.80008,-0.96379 5.61751,1.81743 4.15806,-5.8378 7.15958,-7.04943 10.73937,-10.57414 1.21162,-0.38552 2.34063,0.55074 2.14787,2.80876 -0.77103,0.88118 -1.54206,1.76235 -2.31309,2.64353 2.616,2.69861 1.67974,4.07545 -0.33045,6.11318 2.0928,0.13769 1.87251,1.10147 2.80876,1.65221 -0.35798,2.01019 -2.616,3.68993 -4.79141,4.79141 3.22181,2.58846 0.99133,2.616 0,3.80008 -2.0928,0.27537 -4.1856,0.55073 -6.2784,0.8261 1.54206,0.88118 3.08413,1.76236 4.62619,2.64354 1.21162,1.0464 0.4406,2.42324 -0.8261,2.14787 -5.34214,-0.27537 -6.05811,-1.8725 -9.08716,-2.80875 1.43192,1.8725 1.8725,3.91023 4.29575,5.61751 1.07394,2.20295 -0.33045,3.00151 -1.48699,3.63486 -2.89136,-1.7899 -4.29575,-4.07545 -6.44362,-6.11318 0.16522,2.56093 1.5696,5.12185 3.46964,7.43495 0.49566,1.40437 -0.24783,2.06526 -0.99132,2.47831 -3.27689,-2.64353 -4.40589,-5.28707 -6.60884,-7.9306 0.8261,2.53339 1.65221,5.06677 2.47831,7.60016 -3.49718,0.0551 -3.52471,-3.85515 -5.28707,-5.78273 0.55074,2.75368 1.10147,5.50737 1.65221,8.26105 -1.59713,-0.79856 -2.616,-1.59714 -3.30442,-5.12185 -0.16522,2.25802 -0.33044,4.51604 -0.49566,6.77406 -1.59714,-2.25802 -3.19427,-4.51604 -4.79141,-6.77406 -0.22029,-1.59714 -0.44059,-3.19427 -0.66088,-4.79141"
           id="path6108-8-0"
           inkscape:connector-curvature="0"
           sodipodi:nodetypes="cccccccccccccccccccccccccc" />
      </g>
      <g
         inkscape:label="#g4394"
         id="Frame4-2-4"
         transform="translate(482,-182)">
        <animate
           values="hidden;hidden;hidden;visible;hidden;hidden;hidden;hidden"
           type="display"
           to="visible"
           from="hidden"
           fill="freeze"
           attributeName="visibility"
           repeatCount="6000"
           dur="200ms"
           begin="1s"
           id="animate5208-8-6" />
        <path
           style="fill:#a744b8;fill-opacity:1;stroke:#000000;stroke-width:0.40000001;stroke-linecap:round;stroke-linejoin:round;stroke-miterlimit:4;stroke-opacity:1;stroke-dasharray:none;stroke-dashoffset:0"
           d="m 511.85461,347.98224 c 19.11056,-0.77103 36.89935,-0.88118 54.85336,1.15654 1.16278,1.11603 1.328,2.73082 0.49566,2.97398 -0.69829,1.87874 -2.64353,1.76236 -3.9653,2.64354 0.17146,2.05851 -1.65221,1.87251 -2.47831,2.80876 -1.44334,1.1368 -3.63487,-0.2203 -5.4523,-0.33045 -0.50709,2.80357 -1.76235,2.86383 -2.64353,4.29575 -1.46101,-0.37721 -2.42324,0.99133 -3.63486,1.48699 -1.78834,1.46724 -4.07545,0.44059 -6.11318,0.66088 -1.95979,-0.0177 -2.42324,1.21162 -3.63486,1.81743 -1.22305,1.35398 -3.19427,1.21162 -4.79141,1.81743 -1.42049,-0.85832 -2.0928,-0.22029 -3.1392,-0.33044 -1.48699,0.38552 -2.97398,0.77103 -4.46097,1.15655 -1.48699,0.38551 -2.97397,0.77103 -4.46096,1.15654 -1.26669,0 -2.53339,0 -3.80008,0 -1.15655,-0.66088 -2.31309,-1.32177 -3.46964,-1.98265 -1.48699,1.328 -2.97398,0.66089 -4.46097,0.99133 -1.88706,0.26706 -3.52471,-1.21162 -5.28707,-1.81743 -0.60581,-0.66088 -1.21162,-1.32177 -1.81743,-1.98265"
           id="path6100-0-0"
           inkscape:connector-curvature="0"
           sodipodi:nodetypes="ccccccccccccccccccc"
           sodipodi:insensitive="true" />
        <use
           x="0"
           y="0"
           xlink:href="#HummingBirdBody-1-0"
           id="use4158-2-7"
           transform="translate(218,0)"
           width="1260"
           height="765" />
        <path
           style="fill:#a744b8;fill-opacity:1;stroke:#000000;stroke-width:0.40000001;stroke-linecap:round;stroke-linejoin:round;stroke-miterlimit:4;stroke-opacity:1;stroke-dasharray:none;stroke-dashoffset:0"
           d="m 496.8195,342.03428 c -1.2667,8.04076 -0.38552,10.79444 4.79141,14.04379 1.32177,0.11015 2.64353,0.22029 3.9653,0.33044 3.08412,0.22029 3.52471,-1.21162 5.28707,-1.81743 0.60581,-0.71596 1.21162,-1.43192 1.81743,-2.14788 1.0464,-0.99132 2.0928,-1.98265 3.1392,-2.97397 1.21162,-0.60581 2.42324,-1.21162 3.63486,-1.81743 1.48699,-0.0551 2.97398,-0.11015 4.46097,-0.16522 0.93625,-0.77103 1.8725,-1.54207 2.80875,-2.3131 0.49566,-0.71596 0.99133,-1.43191 1.48699,-2.14787 1.70728,-0.71596 3.41457,-1.43191 5.12185,-2.14787 0.77103,-0.82611 1.54207,-1.65221 2.3131,-2.47832 1.21162,-0.55074 2.42324,-1.10147 3.63486,-1.65221 0.71596,-0.71596 1.43191,-1.43191 2.14787,-2.14787 1.65221,-0.27537 3.30442,-0.55074 4.95663,-0.82611 0.93625,-1.10147 1.87251,-2.20295 2.80876,-3.30442 0.38551,-1.54206 -0.0551,-3.24934 -2.3131,-3.63486 -13.82349,-0.77103 -34.42104,4.73633 -47.41842,10.07848"
           id="path6102-4-1"
           inkscape:connector-curvature="0"
           sodipodi:nodetypes="cccccccccccccccccc"
           sodipodi:insensitive="true" />
      </g>
      <g
         inkscape:label="#g4401"
         id="Frame5-5-7"
         transform="translate(368,-182)">
        <animate
           id="animate5210-0-7"
           begin="1s"
           dur="200ms"
           repeatCount="6000"
           attributeName="visibility"
           fill="freeze"
           from="hidden"
           to="visible"
           type="display"
           values="hidden;hidden;hidden;hidden;visible;hidden;hidden;hidden" />
        <path
           style="fill:#a744b8;fill-opacity:1;stroke:#000000;stroke-width:0.40000001;stroke-linecap:round;stroke-linejoin:round;stroke-miterlimit:4;stroke-opacity:1;stroke-dasharray:none;stroke-dashoffset:0"
           d="m 627.50929,350.791 c 23.18601,-1.76236 50.99821,-4.51604 67.41016,7.43494 -1.0464,2.31309 -2.75368,1.32177 -4.13052,1.98265 -1.15654,1.70729 -2.64353,0.77103 -3.9653,1.15655 -1.65221,1.37684 -3.30442,0.77103 -4.95663,1.15654 -1.98265,2.0928 -3.9653,1.21162 -5.94796,1.81743 -1.0464,-0.11015 -2.0928,-0.22029 -3.1392,-0.33044 -0.93625,1.65221 -2.86382,1.32177 -4.29574,1.98265 -2.20294,-0.22029 -4.40589,-0.44059 -6.60884,-0.66088 -0.0551,0 -0.11014,0 -0.16522,0 -2.20294,0.16522 -4.40589,0.33044 -6.60884,0.49566 -1.37684,0.0551 -2.75368,0.11015 -4.13053,0.16522 -0.49566,0.82611 0.16522,1.81744 -1.48699,2.47832 -2.36816,0.11015 -3.08412,-0.44059 -4.62618,-0.66088 -0.55073,0 -1.10147,0 -1.65221,0 -1.32177,1.81743 -2.97398,0.66088 -4.46097,0.99132 -1.26669,0.11015 -2.53338,0.22029 -3.80008,0.33044 -8.20598,0.60581 -19.22071,0.0551 -20.65263,-2.64353"
           id="path6098-0-7"
           inkscape:connector-curvature="0"
           sodipodi:nodetypes="cccccccccccccccccc"
           sodipodi:insensitive="true" />
        <use
           x="0"
           y="0"
           xlink:href="#HummingBirdBody-1-0"
           id="use4156-0-3"
           transform="translate(332,0)"
           width="1260"
           height="765" />
        <path
           style="fill:#a744b8;fill-opacity:1;stroke:#000000;stroke-width:0.40000001;stroke-linecap:round;stroke-linejoin:round;stroke-miterlimit:4;stroke-opacity:1;stroke-dasharray:none;stroke-dashoffset:0"
           d="m 609.33499,339.06031 c 0.11015,1.54206 1.12901,2.75368 0.33044,4.62618 17.29313,-5.50737 34.58626,-6.71899 49.89674,-1.65221 -0.35798,1.10147 -0.96379,2.20295 -3.30442,2.3131 0.63335,1.92757 -0.2203,3.27688 -1.32177,4.29574 -4.10299,1.07393 -3.74501,0.66089 -5.61752,0.99133 -2.64353,0.77103 -5.28707,1.54206 -7.9306,2.31309 -1.43192,1.21162 -2.86383,2.42324 -4.29575,3.63486 -1.45945,3.85516 -2.42324,1.76236 -3.63486,2.64354 -4.37836,-1.15655 -5.94795,-3.30442 -8.92193,-4.95663 1.2696,3.06669 3.56451,3.9468 5.03923,5.78274 -2.6986,2.83629 -3.16673,1.37683 -4.37835,1.81742 -1.90005,-1.07394 -1.98265,-2.64353 -2.97398,-3.9653 -0.44059,2.28555 -1.54206,3.08413 -2.31309,4.62619 -2.64353,-1.54206 -4.54358,-3.6624 -5.94796,-5.61751 0.66089,1.65221 1.32177,3.30441 1.98266,4.95662 -7.57263,1.51453 -10.84951,0.30291 -12.5568,-4.62618 0.55074,-9.00454 2.42324,-6.60884 3.63486,-9.91326"
           id="path6096-6-3"
           inkscape:connector-curvature="0"
           sodipodi:nodetypes="cccccccccccccccccc"
           sodipodi:insensitive="true" />
      </g>
      <g
         inkscape:label="#g4408"
         id="Frame6-8-9"
         transform="translate(238,-182)">
        <animate
           values="hidden;hidden;hidden;hidden;hidden;visible;hidden;hidden"
           type="display"
           to="visible"
           from="hidden"
           fill="freeze"
           attributeName="visibility"
           repeatCount="6000"
           dur="200ms"
           begin="1s"
           id="animate5212-9-9" />
        <path
           style="fill:#a744b8;fill-opacity:1;stroke:#000000;stroke-width:0.40000001;stroke-linecap:round;stroke-linejoin:round;stroke-miterlimit:4;stroke-opacity:1;stroke-dasharray:none;stroke-dashoffset:0"
           d="m 749.6076,351.28666 c 3.63486,-0.0551 7.26973,-0.11015 10.90459,-0.16522 3.1392,0.55074 6.27839,0.77103 9.41759,1.65221 3.80008,1.15655 7.43495,1.65221 11.40025,3.46964 3.46964,1.15654 7.1045,2.47831 12.88724,4.46096 4.29575,1.76236 6.60884,3.85516 9.91326,5.78274 -1.65221,1.15655 -3.80009,0.49566 -5.94796,-0.49566 -1.59714,0.8261 -2.86383,0.8261 -4.79141,0 -1.70728,0.49566 -2.9189,0.66088 -5.12185,-0.99133 -1.26669,1.15655 -2.03772,1.65221 -3.80008,0.49566 -0.60009,1.09486 -2.61002,0.42741 -4.95663,-0.66088 -1.70728,0.60581 -3.41457,0.38551 -5.12185,-0.66089 -0.99133,-0.49566 -1.98265,-0.99132 -2.97398,-1.48698 -1.54206,1.43191 -3.08413,-0.44059 -4.62619,-0.66089 -1.26669,1.0464 -2.53339,0.11015 -3.80008,0.16522 -1.15655,0.44059 -2.31309,-0.44059 -3.46964,-0.66088 -1.43192,-0.38552 -2.86383,-0.77103 -4.29575,-1.15655 -1.37684,-0.55074 -2.75368,-1.10147 -4.13052,-1.65221"
           id="path5752-4-8"
           inkscape:connector-curvature="0"
           sodipodi:nodetypes="cccccccccccccccccc"
           sodipodi:insensitive="true" />
        <use
           x="0"
           y="0"
           xlink:href="#HummingBirdBody-1-0"
           id="use4133-4-1"
           transform="translate(462,0)"
           width="1260"
           height="765" />
        <path
           style="fill:#a744b8;fill-opacity:1;stroke:#000000;stroke-width:0.40000001;stroke-linecap:round;stroke-linejoin:round;stroke-miterlimit:4;stroke-opacity:1;stroke-dasharray:none;stroke-dashoffset:0"
           d="m 749.51249,351.6545 c 0.38552,-2.25802 2.42325,-5.17692 5.61752,-5.78273 3.85516,1.15655 7.71031,2.31309 11.56547,3.46964 5.5405,1.59698 12.02347,6.13921 16.52209,11.73069 -1.37684,2.3131 -3.08412,1.65221 -4.62618,2.47832 -0.88118,2.42324 -2.75369,1.21162 -4.13053,1.81743 0.11015,3.08413 -2.75368,2.20295 -4.13052,3.30442 -0.60581,-0.66089 -1.21162,-1.32177 -1.81743,-1.98266 -0.11015,1.65221 -0.2203,3.30442 -0.33045,4.95663 -1.98265,0.93625 -3.63486,-0.11015 -5.45229,-0.16522 -0.16522,-0.33044 -0.33044,-0.66088 -0.49566,-0.99132 -1.54206,2.14787 -3.41457,0.99133 -5.12185,1.48699 -0.99133,1.54206 -1.98265,1.10147 -2.97398,1.65221 -0.8261,-0.38552 -1.65221,-0.77103 -2.47831,-1.15655 -1.10147,-0.99133 -2.20295,-1.98265 -3.30442,-2.97398 -0.77103,-1.37684 -1.54207,-2.75368 -2.3131,-4.13052 0.33044,-2.75368 0.66089,-5.50737 0.99133,-8.26105 0.8261,-1.81743 1.65221,-3.63487 2.47831,-5.4523 z"
           id="path5750-6-8"
           inkscape:connector-curvature="0"
           sodipodi:nodetypes="cccccccccccccccccc"
           sodipodi:insensitive="true" />
      </g>
      <g
         inkscape:label="#g4415"
         id="Frame7-6-6"
         transform="translate(122,-182)">
        <animate
           id="animate5214-1-6"
           begin="1s"
           dur="200ms"
           repeatCount="6000"
           attributeName="visibility"
           fill="freeze"
           from="hidden"
           to="visible"
           type="display"
           values="hidden;hidden;hidden;hidden;hidden;hidden;visible;hidden" />
        <path
           style="fill:#a744b8;fill-opacity:1;stroke:#000000;stroke-width:0.40000001;stroke-linecap:round;stroke-linejoin:round;stroke-miterlimit:4;stroke-opacity:1;stroke-dasharray:none;stroke-dashoffset:0"
           d="m 868.81454,349.71706 c 0.66088,9.88572 1.40438,15.39309 6.93928,22.47005 -7.54509,-0.88118 -13.27275,-2.75368 -14.70466,-5.36968 -0.85364,-2.28556 -1.70729,-4.57111 -2.56093,-6.85667"
           id="path5240-4-0"
           inkscape:connector-curvature="0"
           sodipodi:nodetypes="cccc"
           sodipodi:insensitive="true" />
        <use
           x="0"
           y="0"
           xlink:href="#HummingBirdBody-1-0"
           id="use4131-9-3"
           transform="translate(578,0)"
           width="1260"
           height="765" />
        <path
           style="fill:#a744b8;fill-opacity:1;stroke:#000000;stroke-width:0.40000001;stroke-linecap:round;stroke-linejoin:round;stroke-miterlimit:4;stroke-opacity:1;stroke-dasharray:none;stroke-dashoffset:0"
           d="m 856.91977,363.46745 c -0.77886,-3.42698 -1.88816,-7.68007 -2.66702,-11.10705 0.0448,-2.81334 0.66791,-5.46146 1.86927,-7.94436 0.80019,-1.62143 0.0308,-3.57331 -2.8039,-5.60779 -14.64499,-0.72675 -28.05081,-6.49274 -40.63054,-12.75439 0.90142,7.66603 7.50297,11.11893 13.1958,13.25005 4.34272,5.49225 8.85065,7.76269 14.34991,9.78529 0.46731,1.0904 0.93463,2.1808 1.40194,3.2712 1.0904,0.62309 1.02426,1.90706 2.11466,2.53015 3.8943,2.80389 6.3016,7.26 13.16988,8.5769 z"
           id="path5238-6-8"
           inkscape:connector-curvature="0"
           sodipodi:nodetypes="cccccccccc"
           sodipodi:insensitive="true" />
      </g>
      <g
         inkscape:label="#g4422"
         id="Frame8-8-1"
         transform="translate(1.3681412e-7,-182)">
        <animate
           values="hidden;hidden;hidden;hidden;hidden;hidden;hidden;visible"
           type="display"
           to="visible"
           from="hidden"
           fill="freeze"
           attributeName="visibility"
           repeatCount="6000"
           dur="200ms"
           begin="1s"
           id="animate5216-8-2" />
        <path
           style="fill:#a744b8;fill-opacity:1;stroke:#000000;stroke-width:0.40000001;stroke-linecap:round;stroke-linejoin:round;stroke-miterlimit:4;stroke-opacity:1;stroke-dasharray:none;stroke-dashoffset:0"
           d="m 979.96063,335.53705 c -2.33658,-2.95967 -4.67316,-5.91933 -7.00974,-8.879 -3.27121,-3.58275 -5.66069,-7.16551 -9.81362,-10.74826 -2.82447,-2.56289 -5.29625,-1.24617 -7.94437,-1.86926 -0.15577,0.15577 -0.31154,0.31155 -0.46731,0.46732 0.93463,0.93463 1.86926,1.86926 2.80389,2.80389 -1.40195,-0.15577 -2.80389,-1.36961 -4.20584,-0.46731 -0.15577,0 -0.31154,0 -0.46731,0 0.46731,0.77886 0.93463,1.55771 1.40194,2.33657 -0.93463,0.46732 -1.86926,0.93463 -2.80389,1.40195 -2.23077,0.49965 -0.93463,3.11543 -1.40195,4.67315 0.77886,0.31155 1.55772,-0.34681 2.33658,0.93464 -0.80531,0.99635 -2.49235,0.93463 -3.73852,1.40194 0.46731,0.77886 0.93463,1.55772 1.40194,2.33658 2.65106,5.46377 9.35807,15.68887 17.29949,22.38706"
           id="path5236-9-5"
           inkscape:connector-curvature="0"
           sodipodi:nodetypes="ccccccccccccccc"
           sodipodi:insensitive="true" />
        <use
           x="0"
           y="0"
           xlink:href="#HummingBirdBody-1-0"
           id="use4129-1-0"
           transform="translate(700,0)"
           width="1260"
           height="765" />
        <path
           style="fill:#a744b8;fill-opacity:1;stroke:#000000;stroke-width:0.40000001;stroke-linecap:round;stroke-linejoin:round;stroke-miterlimit:4;stroke-opacity:1;stroke-dasharray:none;stroke-dashoffset:0"
           d="m 980.42794,340.67752 c -6.85396,-4.51738 -13.35523,-9.74015 -20.56188,-14.25753 -6.67761,-5.7518 -13.17888,-9.38746 -20.56188,-12.84677 -4.82893,-2.85385 -9.65785,-2.18081 -14.48678,-3.27121 -2.64812,-0.70538 -5.82529,-1.76345 -7.94437,0 1.40195,1.40195 1.56947,4.56734 4.20584,4.20584 1.0904,0.15577 2.18081,0.31154 3.27121,0.46731 -1.40195,0.62309 -2.80389,1.24618 -4.20584,1.86927 1.55772,0.62309 1.88102,3.36232 4.67316,1.86926 0.46731,0.15577 0.93463,0.31154 1.40194,0.46731 -0.62309,0.77886 -1.24617,1.55772 -1.86926,2.33658 1.86926,1.0904 1.79873,3.76792 5.60779,3.27121 0.93463,0 1.86926,0 2.80389,0 -1.0904,0.31154 -2.18081,0.62309 -3.27121,0.93463 1.24617,1.0904 1.08159,3.23888 3.73852,3.27121 1.40195,0 2.80389,0 4.20584,0 -1.40195,0.62309 -2.80389,1.24617 -4.20584,1.86926 0.93463,1.0904 0.45851,2.70985 2.8039,3.27121 1.55772,-0.46732 3.11543,-0.93463 4.67315,-1.40195 -1.0904,0.93463 -2.18081,1.86927 -3.27121,2.8039 1.40195,0.77886 0.5114,3.32116 4.20584,2.33657 1.55772,-0.77886 3.11544,-1.55771 4.67316,-2.33657 -1.55772,0.62309 -3.11544,1.24617 -4.67316,1.86926 1.40195,1.24617 1.21678,3.72677 4.20584,3.73852 1.55772,-0.31154 3.11544,-0.62309 4.67316,-0.93463 -1.24618,1.24618 -3.55042,1.61062 -3.73853,3.73853 0.81119,1.66059 2.68046,2.61578 5.60779,2.33657 -0.62309,0.93463 -1.24617,1.86927 -1.86926,2.8039 2.18081,-0.31155 4.36161,0.43498 6.54242,-0.93464 0,1.0904 0,2.18081 0,3.27121 1.71349,0.80825 3.42698,-1.55771 5.14047,-2.33657 -1.24618,1.71349 -1.96331,4.30871 -3.73853,5.14047 0.93463,0.46731 1.86926,0.93463 2.80389,1.40194 1.40195,0.15577 2.80389,0.31155 4.20584,0.46732 0.31155,-0.46732 0.62309,-0.93463 0.93464,-1.40195"
           id="path5234-3-9"
           inkscape:connector-curvature="0"
           sodipodi:nodetypes="ccccccccccccccccccccccccccccccccccc"
           sodipodi:insensitive="true" />
      </g>
      <path
         style="opacity:0.91799999;fill:#c87137;stroke:#000000;stroke-width:0.3144654;stroke-linecap:round;stroke-linejoin:round;stroke-miterlimit:4;stroke-opacity:1;stroke-dasharray:none;stroke-dashoffset:0"
         d="m 1009.7852,149.29935 c -0.769,-1.33008 -1.0392,-2.41077 -0.4366,-3.49146 0.9768,-1.12226 1.5796,-1.49634 2.6186,-1.3093 0.9977,0.16626 1.7458,1.08069 1.9952,1.49634 -0.5819,-0.33252 -1.2885,-0.29096 -1.8704,-0.62348 -0.3325,0 -0.6651,0.37409 -0.9976,0.37409 -0.6755,0.49878 -0.6962,1.80808 -0.226,2.86799 0.2056,0.46343 -0.8754,0.18704 -1.0832,0.68582 z"
         id="path6591"
         inkscape:connector-curvature="0"
         sodipodi:nodetypes="ccccccsc" />
      <path
         style="opacity:0.91799999;fill:#c87137;fill-opacity:1;fill-rule:nonzero;stroke:#000000;stroke-width:0.38844872;stroke-linecap:round;stroke-linejoin:round;stroke-miterlimit:4;stroke-opacity:1;stroke-dasharray:none;stroke-dashoffset:0"
         d="m 1009.2542,148.97777 c -10.80082,1.54317 -22.1742,-0.8595 -36.28405,-11.49517 -0.19734,-0.90061 0.37694,-1.40828 2.5624,-0.44933 8.62972,8.42914 21.90222,12.0453 33.72155,11.94405 z"
         id="path7101"
         inkscape:connector-curvature="0"
         sodipodi:nodetypes="cccc" />
      <g
         id="HummingBirdRider"
         transform="matrix(0.62893082,0,0,0.62893082,799.1621,45.142287)"
         inkscape:label="#g7419-0">
        <title
           id="title7454-0">HummingBirdRider</title>
        <path
           style="fill:#0000ff;fill-opacity:1;fill-rule:nonzero;stroke:#000000;stroke-width:0.405;stroke-linecap:round;stroke-linejoin:round;stroke-miterlimit:4;stroke-opacity:1;stroke-dasharray:none;stroke-dashoffset:0"
           d="m 295.54777,170.03858 c -0.45816,5.70967 2.07715,6.64007 5.97583,12.7922 1.88959,-1.32231 3.48298,-0.90485 5.37257,-2.22716 -1.73607,-6.90149 -2.68362,-10.92552 -2.2278,-15.83254 -0.34467,-0.5142 -0.68925,-1.02843 -1.0339,-1.54264 -1.99229,-0.30415 -2.60231,-0.91373 -4.5946,-1.21788"
           id="path31358-2-0-1"
           inkscape:connector-curvature="0"
           sodipodi:nodetypes="cccccc"
           inkscape:transform-center-x="-7.6349195"
           inkscape:transform-center-y="-1.3745571" />
        <path
           style="fill:#000000;fill-opacity:1;fill-rule:nonzero;stroke:#000000;stroke-width:0.405;stroke-linecap:round;stroke-linejoin:round;stroke-miterlimit:4;stroke-opacity:1;stroke-dasharray:none;stroke-dashoffset:0"
           d="m 318.51231,187.69432 c -5.79897,2.86676 -11.59791,5.73353 -17.39688,8.6003 -0.7194,-1.27979 -1.43881,-2.55958 -2.15821,-3.83936 -0.25541,-1.65289 -0.51091,-3.30576 -0.76634,-4.95864 1.68296,0.69397 4.08454,-0.0878 5.69469,-1.85379 0.65328,-0.53566 1.30656,-1.07129 1.95983,-1.60693 3.58544,0.28626 7.17087,0.57252 10.7563,0.85878 0.63688,0.93321 1.27373,1.86643 1.91061,2.79964 z"
           id="path31360-45-2-4"
           inkscape:connector-curvature="0"
           inkscape:transform-center-x="3.7692003"
           inkscape:transform-center-y="8.261268"
           sodipodi:nodetypes="cccccccc" />
        <path
           style="fill:#ffccaa;fill-opacity:1;fill-rule:nonzero;stroke:#000000;stroke-width:0.405;stroke-linecap:round;stroke-linejoin:round;stroke-miterlimit:4;stroke-opacity:1;stroke-dasharray:none;stroke-dashoffset:0"
           d="m 294.09197,138.90982 c -0.3915,1.95751 -0.783,3.91502 -1.1745,5.87253 2.44688,0.88088 4.89377,1.76176 7.34067,2.64265 0.48938,-1.56601 0.97875,-3.13202 1.46813,-4.69804 -2.54477,-1.27238 -5.08953,-2.54476 -7.6343,-3.81714 z"
           id="path30832-4-0-6"
           inkscape:connector-curvature="0"
           sodipodi:nodetypes="ccccc" />
        <path
           style="fill:#ffccaa;fill-opacity:1;fill-rule:nonzero;stroke:#000000;stroke-width:0.405;stroke-linecap:round;stroke-linejoin:round;stroke-miterlimit:4;stroke-opacity:1;stroke-dasharray:none;stroke-dashoffset:0"
           d="m 301.39439,142.5858 c 2.34901,1.07663 4.69803,2.15327 7.04705,3.22989 -0.48939,1.07664 -0.97876,2.15327 -1.46814,3.2299 -2.44689,-0.53831 -4.89378,-1.07663 -7.34068,-1.61495"
           id="path30834-09-2-0"
           inkscape:connector-curvature="0"
           sodipodi:nodetypes="cccc" />
        <path
           style="fill:#ffccaa;fill-opacity:1;fill-rule:nonzero;stroke:#000000;stroke-width:0.405;stroke-linecap:round;stroke-linejoin:round;stroke-miterlimit:4;stroke-opacity:1;stroke-dasharray:none;stroke-dashoffset:0"
           d="m 307.28523,145.09406 c 2.10724,-0.91063 3.98587,-1.10097 5.75521,-1.04871 1.2158,-0.23681 2.70352,0.37553 3.70942,0.53458 1.25438,0.47349 1.54856,0.65899 2.13754,1.73258 0.20118,0.52985 0.55256,1.07811 0.46125,2.53176 -0.17648,0.36702 -0.63537,0.84295 -0.81185,1.20996 -0.15098,-0.62236 -0.30196,-1.24471 -0.45294,-1.86707 0.14497,0.57379 0.28994,1.14758 0.43491,1.72137 -0.0845,0.81176 -0.71982,1.6547 -1.40925,2.06054 -0.20834,-0.88646 0.0982,-2.09553 -0.11014,-2.98201 -0.0468,1.01666 -0.0936,2.03332 -0.14033,3.04999 -0.73375,0.64556 -1.49004,1.10898 -2.2959,1.17172 -0.65629,-0.36257 -0.76842,-0.79251 -0.45367,-1.27525 0.26808,-0.82216 0.53617,-1.64431 0.80426,-2.46647 -0.30871,-0.70146 -0.50224,-0.22261 -1.25399,-0.50895 -1.63098,-0.42044 -2.69454,-0.44546 -4.2105,0.0568 -1.32339,0.52384 -1.82653,-0.47854 -2.26529,0.15137 0.43711,-0.0541 0.62639,1.32923 1.06349,1.27514 0.17203,0.62418 0.009,1.31698 -0.0292,1.55684 l -2e-5,0 c -0.44035,0.22708 -0.48039,0.70048 -1.32106,0.68124 -0.80261,-0.11025 -1.82229,-2.21142 -2.21418,-4.05167"
           id="path30836-4-8-7"
           inkscape:connector-curvature="0"
           sodipodi:nodetypes="cccccccccccccccccccccc" />
        <path
           style="fill:#0000ff;fill-opacity:1;fill-rule:nonzero;stroke:#000000;stroke-width:0.405;stroke-linecap:round;stroke-linejoin:round;stroke-miterlimit:4;stroke-opacity:1;stroke-dasharray:none;stroke-dashoffset:0"
           d="m 306.13036,172.04288 c -2.47436,-7.44725 -10.87582,-12.10228 -22.39535,-13.9578 -8.24363,4.31463 -6.77681,7.82098 -0.89312,13.32365 6.05503,0.13898 11.32746,0.8758 17.09561,4.20836"
           id="path31356-88-6-1"
           inkscape:connector-curvature="0"
           sodipodi:nodetypes="cccc"
           inkscape:transform-center-x="7.5900604"
           inkscape:transform-center-y="7.5164852" />
        <path
           style="fill:#0000ff;fill-opacity:1;fill-rule:nonzero;stroke:#000000;stroke-width:0.405;stroke-linecap:round;stroke-linejoin:round;stroke-miterlimit:4;stroke-opacity:1;stroke-dasharray:none;stroke-dashoffset:0"
           d="m 306.65011,164.21537 c -8.3781,-2.62853 -16.75619,-5.25706 -25.13427,-7.88559 -0.81786,2.67012 -6.26769,6.81317 -7.08553,9.48329 -0.81787,2.67012 0.73575,5.58443 2.17841,6.53743 2.31366,0.34541 4.62732,0.69082 6.94098,1.03624 7.12782,0.56832 14.25566,1.13665 21.38349,1.70496"
           id="path31362-8-4-7"
           inkscape:connector-curvature="0"
           inkscape:transform-center-x="-9.319218"
           inkscape:transform-center-y="-4.39233"
           sodipodi:nodetypes="ccsccc" />
        <path
           style="fill:#ffff00;fill-opacity:1;fill-rule:nonzero;stroke:#000000;stroke-width:0.405;stroke-linecap:round;stroke-linejoin:round;stroke-miterlimit:4;stroke-opacity:1;stroke-dasharray:none;stroke-dashoffset:0"
           d="m 291.49577,138.09869 c 2.7007,0.54126 5.50052,0.78513 8.1021,2.91251 0.91193,3.33303 0.43598,4.78253 -0.23824,6.43031 -3.57023,0.71031 -4.95956,-0.76028 -7.43933,-1.14042"
           id="path31388-5-8-7"
           inkscape:connector-curvature="0"
           sodipodi:nodetypes="cccc" />
        <path
           style="fill:#ffff00;fill-opacity:1;fill-rule:nonzero;stroke:#000000;stroke-width:0.405;stroke-linecap:round;stroke-linejoin:round;stroke-miterlimit:4;stroke-opacity:1;stroke-dasharray:none;stroke-dashoffset:0"
           d="m 293.04922,139.07345 c -2.83755,-1.17654 -5.88273,-4.53316 -7.99359,-2.38769 -1.18519,0.0259 -3.44096,2.21899 -5.09492,5.10628 -1.35252,2.36105 -3.32904,4.39258 -4.80621,6.67646 -1.47717,2.28388 -2.75645,4.61967 -3.61885,6.9879 -0.8624,2.36823 0.27819,7.5446 0.46851,9.95825 7.62108,3.53378 16.9253,-0.12792 19.7993,-4.54053 -2.35309,-4.77538 0.69209,-10.38127 1.03814,-15.57191 1.21113,-3.01057 0.65747,-3.42582 0.20762,-6.22876 z"
           id="path31384-7-6-7"
           inkscape:connector-curvature="0"
           sodipodi:nodetypes="ccssscccc" />
        <path
           style="fill:#ffccaa;fill-opacity:1;fill-rule:nonzero;stroke:#000000;stroke-width:0.405;stroke-linecap:round;stroke-linejoin:round;stroke-miterlimit:4;stroke-opacity:1;stroke-dasharray:none;stroke-dashoffset:0"
           d="m 286.42064,144.90998 -0.39652,-0.79307 c -3.89055,2.12879 -5.69933,5.64545 -9.58988,7.77424 -0.53832,-0.44044 -1.77057,-0.98001 -2.30889,-1.42045 -0.3915,-0.61172 -0.78301,-1.22344 -1.17451,-1.83516 0.36703,-1.32132 0.0401,-2.64264 1.1011,-3.96396 3.93949,-1.77182 6.392,-2.35404 10.33149,-3.3328"
           id="path30838-6-5-7"
           inkscape:connector-curvature="0"
           sodipodi:nodetypes="ccccccc" />
        <path
           style="fill:#ffff00;fill-opacity:1;fill-rule:nonzero;stroke:#000000;stroke-width:0.405;stroke-linecap:round;stroke-linejoin:round;stroke-miterlimit:4;stroke-opacity:1;stroke-dasharray:none;stroke-dashoffset:0"
           d="m 284.43191,139.8095 c -3.11439,1.10733 -4.04785,0.92594 -7.16223,3.52027 1.38417,1.62639 1.08309,2.85627 4.15251,4.8792 3.97381,-0.58643 3.78405,-1.56939 6.17175,-2.84975"
           id="path31386-18-0-3"
           inkscape:connector-curvature="0"
           sodipodi:nodetypes="cccc" />
        <path
           style="fill:#ffccaa;fill-opacity:1;fill-rule:nonzero;stroke:#000000;stroke-width:0.405;stroke-linecap:round;stroke-linejoin:round;stroke-miterlimit:4;stroke-opacity:1;stroke-dasharray:none;stroke-dashoffset:0"
           d="m 280.16197,147.73461 4.57649,2.36523 -1.18736,3.29678 -3.04015,0.10593 -2.98445,-0.74828 -2.87672,-1.78629"
           id="path31348-92-9-3"
           inkscape:connector-curvature="0"
           sodipodi:nodetypes="cccccc" />
        <path
           style="fill:#ffccaa;fill-opacity:1;fill-rule:nonzero;stroke:#000000;stroke-width:0.405;stroke-linecap:round;stroke-linejoin:round;stroke-miterlimit:4;stroke-opacity:1;stroke-dasharray:none;stroke-dashoffset:0"
           d="m 294.00769,134.22557 c -1.55718,2.00706 -1.88343,2.26835 -2.92156,5.52115 -1.90323,1.07273 -3.59884,-1.38417 -5.39827,-2.07626 1.41878,-2.83754 1.69561,-5.25984 1.76482,-7.26689"
           id="path31390-4-6-9"
           inkscape:connector-curvature="0"
           sodipodi:nodetypes="cccc" />
        <path
           style="fill:#ffccaa;fill-opacity:1;fill-rule:nonzero;stroke:#000000;stroke-width:0.405;stroke-linecap:round;stroke-linejoin:round;stroke-miterlimit:4;stroke-opacity:1;stroke-dasharray:none;stroke-dashoffset:0"
           d="m 282.49372,148.78741 c 0.90535,0.46491 2.69158,-0.83194 4.03736,-1.24791 0.44045,-0.24469 1.68098,0.20246 2.04802,1.13226 0.61172,-0.12233 1.89822,0.34779 2.50994,1.25315 1.53923,0.48421 1.43471,0.35986 1.76545,0.70189 0.82231,0.95457 0.84009,1.45281 0.65023,2.41821 0.23951,1.2479 0.2195,2.13248 -0.29363,3.74374 -0.46491,0.63619 -0.20312,1.27237 -1.39472,1.90856 -0.88088,-0.049 -1.2427,0.26548 -2.2274,-0.40634 -0.0122,-0.15904 -0.43971,-0.0586 -0.45195,-0.21762 -0.0122,-0.15904 1.03961,-4.0813 1.02737,-4.24035 -0.39149,-0.25692 -0.87343,3.01044 -1.27831,3.48486 -0.21222,0.24867 -1.06849,0.2395 -2.05692,-0.64031 -1.15007,-0.94394 0.94399,-3.57483 0.65036,-3.844 -0.14682,-0.13456 -0.54093,2.6711 -1.38774,2.76905 -0.74373,0.086 -1.26686,-0.14588 -1.56939,-1.13691 0.049,-0.68514 0.56503,-1.39621 0.61396,-2.08134 l 0,-2e-5 c -0.22021,0.53832 -0.44044,1.07664 -0.66065,1.61495 -1.17451,-0.0245 -2.34902,-0.3464 -3.52353,-0.3708"
           id="path31350-31-1-8"
           inkscape:connector-curvature="0"
           sodipodi:nodetypes="cccccccccscscssccccc" />
        <g
           id="Head-3-5-2-3-1"
           inkscape:label="#g26508"
           transform="matrix(0.69255,0,0,0.59377505,-27.715352,-245.9554)">
          <path
             style="fill:#ffccaa;fill-opacity:1;fill-rule:evenodd;stroke:#3f2d10;stroke-width:1.1484226;stroke-linecap:butt;stroke-linejoin:miter;stroke-miterlimit:4;stroke-opacity:1;stroke-dasharray:none;display:inline"
             d="m 458.30789,587.45688 c 16.28244,0.69423 24.3704,6.875 25.32192,19.16673 0.15362,2.56907 -0.31746,7.62938 -2.84306,12.87586 1.09866,3.64578 2.15689,7.02824 0.76523,11.84214 -0.77246,3.41556 -1.96399,9.81695 -4.91935,10.36369 -2.68544,0.49687 -3.36834,-0.68575 -5.61691,-0.53563 -3.11166,0.60861 -1.65376,0.57007 -5.71815,1.75705 -3.59587,1.05036 -10.42092,-4.82414 -13.08165,-7.02383 -7.57569,-5.56922 -8.46783,-16.60958 -11.60163,-24.46284 -1.39113,-7.42454 -5.27761,-10.01008 -3.30403,-16.77908 2.87136,-7.37339 12.81267,-8.64605 20.99761,-7.20399 z"
             id="path3714-3-6-4-4-8-6-6-3-8-8"
             sodipodi:nodetypes="ccccscsccccc"
             inkscape:connector-curvature="0" />
          <path
             style="fill:#ffffff;fill-rule:evenodd;stroke:#333333;stroke-width:1.32699144px;stroke-linecap:butt;stroke-linejoin:miter;stroke-opacity:1;display:inline"
             d="m 471.1023,610.73118 c 0.89037,1.99747 0.98532,3.58759 0.37673,4.61046 -0.60856,1.02271 -0.83117,1.92399 -2.75498,1.65232 -1.51028,-0.50289 -2.38569,-0.76875 -2.8689,-1.67547 -0.4836,-0.90559 -0.74741,-2.1225 -0.46049,-3.09777 0.53603,-1.67569 1.36286,-2.99338 2.3557,-3.41935 0.99289,-0.42612 2.15178,0.0394 3.35194,1.92981 z"
             id="path3724-2-6-6-0-4-3-6-3-9-2"
             sodipodi:nodetypes="cscscsc"
             inkscape:connector-curvature="0" />
          <path
             style="fill:#ffffff;fill-rule:evenodd;stroke:#333333;stroke-width:1.32699144px;stroke-linecap:butt;stroke-linejoin:miter;stroke-opacity:1;display:inline"
             d="m 477.65613,607.91331 c 1.35252,-0.23337 1.84325,0.11475 2.35809,0.42807 0.5148,0.31353 0.90482,0.7047 1.17875,1.18684 0.27385,0.4823 0.43173,1.05527 0.48244,1.73168 0.0507,0.67639 -0.006,1.45623 -0.16021,2.35192 -0.90123,1.68699 -1.96893,2.39382 -2.96294,2.44589 -0.99403,0.0522 -1.9143,-0.55044 -2.52051,-1.48292 -0.60621,-0.93247 -0.89829,-2.19487 -0.63603,-3.4618 0.2622,-1.2668 0.53178,-2.67899 2.26041,-3.19968 z"
             id="path3726-4-1-0-6-8-9-3-4-3-6"
             sodipodi:nodetypes="cssscsssc"
             inkscape:connector-curvature="0" />
          <path
             sodipodi:nodetypes="ccccccc"
             inkscape:connector-curvature="0"
             id="path3734-2-8-7-1-6-21-0-1-4-6"
             d="m 476.64377,633.90095 c -1.68691,1.50677 -7.64448,1.33457 -9.47892,-0.10055 -0.44468,0.41977 -0.34404,0.83686 0.0336,1.26645 0.24492,0.17733 0.72006,0.45532 1.00981,0.47613 1.30913,0.29575 2.52618,0.42964 3.86288,0.52659 1.14193,0.055 3.24067,-0.0976 4.35645,-0.3851 0.38922,-0.0956 -1.15129,-1.28246 0.15014,-1.93253"
             style="fill:#784421;fill-opacity:1;stroke:#3f2d10;stroke-width:0.76088762;stroke-linecap:butt;stroke-linejoin:miter;stroke-miterlimit:4;stroke-opacity:1;stroke-dasharray:none;display:inline" />
          <path
             style="fill:#000000;fill-rule:evenodd;stroke:#000000;stroke-width:1.32699144px;stroke-linecap:butt;stroke-linejoin:miter;stroke-opacity:1;display:inline"
             d="m 468.3622,611.32569 c 0.33999,-0.0704 0.80286,-0.28166 1.25675,-0.10495 0.45341,0.17839 0.94875,0.75166 0.85941,2.10541 -0.0693,1.04915 -0.64415,1.41087 -1.30551,1.43777 -0.66136,0.0269 -1.40907,-0.28131 -1.8238,-0.57221 -0.83294,-0.58413 -0.61988,-1.35961 -0.0981,-1.93779 0.52183,-0.57816 0.66667,-0.83649 1.11121,-0.92865 z"
             id="path3736-1-4-1-8-0-9-0-1-4-0"
             sodipodi:nodetypes="sssssss"
             inkscape:connector-curvature="0" />
          <path
             style="fill:#a05a2c;fill-opacity:1;fill-rule:evenodd;stroke:#603b00;stroke-width:1.10582614;stroke-linecap:butt;stroke-linejoin:miter;stroke-miterlimit:4;stroke-opacity:1;stroke-dasharray:none;display:inline"
             d="m 483.52879,599.17036 c 1.02592,-14.29323 -25.98479,-25.20062 -41.29625,-11.12071 -12.32822,7.30777 -8.02419,23.4898 -1.573,34.39018 1.93709,0.0105 8.15354,5.00149 6.94691,2.73184 -2.8683,-5.39595 -5.04071,-13.78459 0.29944,-16.07614 1.51698,2.02824 2.87945,7.71148 4.3037,9.87035 0.55385,0.83952 1.36434,-6.51352 2.54511,-6.21457 4.91283,-2.98785 -2.93191,-8.43314 5.03285,-11.57797 1.9773,0.78815 8.65035,2.76386 10.58498,2.14584 0.96723,-0.3088 -1.36185,-2.79963 0.0259,-3.67732 1.38778,-0.87785 3.59979,1.26112 4.59631,0.31207 1.7385,0.0263 -1.63895,-2.82337 0.55791,-1.96932 0.52701,0.20477 4.71126,4.85487 5.43403,6.26841 1.46982,2.87384 1.80783,-4.81038 2.54216,-5.08264 z"
             id="path3716-9-9-7-9-9-8-8-3-6-3"
             sodipodi:nodetypes="cccscsccsscsscc"
             inkscape:connector-curvature="0" />
          <path
             style="fill:#ffccaa;fill-opacity:1;fill-rule:evenodd;stroke:#3f2d10;stroke-width:1.10582614;stroke-linecap:butt;stroke-linejoin:miter;stroke-miterlimit:4;stroke-opacity:1;stroke-dasharray:none;display:inline"
             d="m 451.38692,616.66909 c 0.40833,-3.06149 -3.50892,-12.97605 -8.13954,-6.25835 -2.07042,3.00357 -1.68299,4.68383 -1.48449,6.37731 0.20104,1.72214 1.05019,3.56495 2.47321,4.90194 1.42302,1.337 2.78553,1.71507 5.13989,1.41108"
             id="path3730-1-6-7-4-3-23-8-8-0-8"
             sodipodi:nodetypes="csssc"
             inkscape:connector-curvature="0" />
          <path
             style="fill:#ffccaa;fill-opacity:1;fill-rule:evenodd;stroke:#3f2d10;stroke-width:1.03931344;stroke-linecap:butt;stroke-linejoin:miter;stroke-miterlimit:4;stroke-opacity:1;stroke-dasharray:none;display:inline"
             d="m 448.55036,615.46171 c -0.58002,-0.78113 -0.87473,-3.95573 -2.41154,-3.5019 -1.3752,0.40609 -1.78689,1.56898 -2.06631,2.20723 -0.27926,0.638 0.70011,2.94924 1.28709,3.84455 0.58703,0.89515 2.76606,3.45937 3.12632,1.71225"
             id="path3732-8-3-7-1-0-4-2-7-6-0"
             sodipodi:nodetypes="cssss"
             inkscape:connector-curvature="0" />
          <path
             style="fill:#000000;fill-rule:evenodd;stroke:#000000;stroke-width:1.32699144px;stroke-linecap:butt;stroke-linejoin:miter;stroke-opacity:1;display:inline"
             d="m 478.3671,610.53579 c 0.79799,-0.0435 0.92049,-0.11703 1.47644,0.0886 0.55291,0.21403 1.07341,0.93622 0.62157,2.40403 -0.31178,1.01291 -1.02308,1.22633 -1.67133,1.16711 -0.64814,-0.0596 -1.23303,-0.3924 -1.28998,-0.47813 -0.60893,-0.80391 -0.7078,-1.93128 -0.23735,-2.45424 0.57727,-0.64164 0.63972,-0.71008 1.10355,-0.73542 z"
             id="path3738-1-7-3-4-0-0-3-4-6-1"
             sodipodi:nodetypes="sssssss"
             inkscape:connector-curvature="0" />
          <path
             sodipodi:nodetypes="ccssccccc"
             inkscape:connector-curvature="0"
             id="path4597-2-8-0-8-23-0-2-1-2"
             d="m 475.6799,634.76808 0.42552,0.87972 c 0,0 -1.35427,0.44082 -3.35265,0.4224 -0.83109,-0.007 -2.25549,-0.10082 -3.04279,-0.1977 -0.82593,-0.10156 -1.7678,-0.39986 -1.7678,-0.39986 l -0.94665,-0.73093 -0.28277,-0.60852 c 0.80849,0.34216 2.5012,0.73015 4.35753,0.88696 1.61428,0.0645 3.21968,0.0155 4.60961,-0.2521 z"
             style="fill:#ffffff;fill-opacity:1;stroke:#000000;stroke-width:0.24238849;stroke-linecap:round;stroke-linejoin:round;stroke-miterlimit:4;stroke-opacity:1;stroke-dasharray:none;stroke-dashoffset:0.5389892;display:inline" />
          <path
             style="fill:#ffccaa;fill-opacity:1;fill-rule:evenodd;stroke:#3f2d10;stroke-width:1.10582614;stroke-linecap:butt;stroke-linejoin:miter;stroke-miterlimit:4;stroke-opacity:1;stroke-dasharray:none;display:inline"
             d="m 476.46057,618.03596 c 0.41056,2.70321 3.78858,4.47856 3.64471,6.76624 -0.0865,1.3769 -0.75844,1.80506 -1.48134,1.66284 -4.26651,-0.81357 -4.94044,2.55635 -5.33424,-0.67144"
             id="path3728-6-9-2-7-7-1-6-7-8-5"
             sodipodi:nodetypes="cscc"
             inkscape:connector-curvature="0" />
          <path
             sodipodi:nodetypes="cssccc"
             inkscape:connector-curvature="0"
             id="path4898-6-3-6-9-5-7-4-0"
             d="m 466.34552,593.15541 c 0,0 15.30897,-8.34984 19.88603,0.8017 1.5305,3.06021 0.13624,8.11837 -0.25422,10.47982 -0.24177,1.46218 -2.40271,5.73192 -2.40271,5.73192 1.25418,-7.26647 -2.50606,-7.28921 -3.32386,-9.45349 l -1.27412,-0.78187"
             style="fill:#a05a2c;fill-opacity:1;stroke:#603b00;stroke-width:0.97787488;stroke-linecap:round;stroke-linejoin:round;stroke-miterlimit:4;stroke-opacity:1;stroke-dasharray:none;stroke-dashoffset:0.5389892;display:inline" />
          <path
             sodipodi:nodetypes="cssccc"
             inkscape:connector-curvature="0"
             id="path4898-9-0-8-3-8-0-9-9-9"
             d="m 438.06112,614.26133 c 0,0 -2.52126,3.35991 -1.76266,6.41393 0.75849,3.05402 4.30215,6.87293 6.33147,7.53516 1.74531,0.5695 5.88954,0.039 5.88954,0.039 -5.36862,-3.92925 -4.9487,-3.4561 -5.80974,-5.39261 l 0.29523,-1.32941"
             style="fill:#a05a2c;fill-opacity:1;stroke:#603b00;stroke-width:0.88023758;stroke-linecap:round;stroke-linejoin:round;stroke-miterlimit:4;stroke-opacity:1;stroke-dasharray:none;stroke-dashoffset:0.5389892;display:inline" />
          <path
             style="fill:#d38d5f;fill-opacity:1;stroke:#000000;stroke-width:0.10063333;stroke-linecap:round;stroke-linejoin:round;stroke-miterlimit:4;stroke-opacity:1;stroke-dasharray:none;stroke-dashoffset:0.5389892;display:inline"
             d="m 461.56986,623.77167 c 0.55227,0.0761 0.99099,0.92707 0.81991,1.45771 -0.14385,0.44613 -0.83977,0.76508 -1.27545,0.5922 -0.38002,-0.15087 -0.53773,-0.73837 -0.45553,-1.13886 0.0863,-0.4207 0.48558,-0.96949 0.91107,-0.91105 z"
             id="use58993-5-98-9-3-6-4"
             inkscape:connector-curvature="0"
             sodipodi:nodetypes="sssss" />
          <path
             style="fill:#d38d5f;fill-opacity:1;stroke:#000000;stroke-width:0.10063333;stroke-linecap:round;stroke-linejoin:round;stroke-miterlimit:4;stroke-opacity:1;stroke-dasharray:none;stroke-dashoffset:0.5389892;display:inline"
             d="m 457.56984,625.77167 c 0.55227,0.0761 0.99099,0.92707 0.81991,1.45771 -0.14385,0.44613 -0.83977,0.76508 -1.27545,0.5922 -0.38002,-0.15087 -0.53773,-0.73837 -0.45553,-1.13886 0.0863,-0.4207 0.48558,-0.96949 0.91107,-0.91105 z"
             id="use58993-5-6-9-7-1-3-7"
             inkscape:connector-curvature="0"
             sodipodi:nodetypes="sssss" />
          <path
             style="fill:#d38d5f;fill-opacity:1;stroke:#000000;stroke-width:0.10063333;stroke-linecap:round;stroke-linejoin:round;stroke-miterlimit:4;stroke-opacity:1;stroke-dasharray:none;stroke-dashoffset:0.5389892;display:inline"
             d="m 457.56984,621.77167 c 0.55227,0.0761 0.99099,0.92707 0.81991,1.45771 -0.14385,0.44613 -0.83977,0.76508 -1.27545,0.5922 -0.38002,-0.15087 -0.53773,-0.73837 -0.45553,-1.13886 0.0863,-0.4207 0.48558,-0.96949 0.91107,-0.91105 z"
             id="use58993-5-5-1-2-9-7-8"
             inkscape:connector-curvature="0"
             sodipodi:nodetypes="sssss" />
        </g>
        <path
           style="fill:#803300;fill-opacity:1;fill-rule:nonzero;stroke:#000000;stroke-width:0.5;stroke-linecap:round;stroke-linejoin:round;stroke-miterlimit:4;stroke-opacity:1;stroke-dasharray:none;stroke-dashoffset:0"
           d="m 273.74426,167.74001 c 1.45395,1.58612 1.61917,3.27138 4.36183,4.75837 2.34614,1.1235 11.53242,0.95833 16.95168,0.49567 1.72797,0.44384 1.85535,1.81654 1.58612,3.3705 -1.58612,0 -4.5601,0.79306 -6.14622,0.79306 -4.59314,0.36349 -8.69062,0.62783 -13.55047,-0.0955 -0.5594,-0.20187 -1.9803,-0.8958 -2.80641,-2.18452 -2.37918,-2.34614 -2.08178,-5.18794 -2.37918,-7.13755 0.36349,-0.39653 1.32177,-0.79306 1.98265,0 z"
           id="path7662"
           inkscape:connector-curvature="0"
           sodipodi:nodetypes="cccccccccc" />
        <path
           style="fill:#0000ff;fill-opacity:1;fill-rule:nonzero;stroke:#000000;stroke-width:0.405;stroke-linecap:round;stroke-linejoin:round;stroke-miterlimit:4;stroke-opacity:1;stroke-dasharray:none;stroke-dashoffset:0"
           d="m 306.73724,164.28121 c -0.37898,7.75144 -0.11359,16.94029 -0.49257,24.69173 -2.02007,1.10094 -4.04013,2.20188 -6.06021,3.30282 -0.54258,-0.76063 -1.08516,-1.52125 -1.62774,-2.28188 -0.80383,-7.50277 -1.40941,-11.04025 -2.21323,-18.54301"
           id="path31364-7-0-5"
           inkscape:connector-curvature="0"
           inkscape:transform-center-x="-9.2666646"
           inkscape:transform-center-y="5.2747687"
           sodipodi:nodetypes="ccccc" />
        <path
           style="fill:#000000;fill-opacity:1;fill-rule:nonzero;stroke:#000000;stroke-width:0.405;stroke-linecap:round;stroke-linejoin:round;stroke-miterlimit:4;stroke-opacity:1;stroke-dasharray:none;stroke-dashoffset:0"
           d="m 319.16571,189.34629 c -5.69664,3.06504 -11.39329,6.13011 -17.08992,9.19514 -0.76312,-1.25423 -1.52623,-2.50844 -2.28934,-3.76266 -0.31231,-1.64309 -0.6246,-3.28617 -0.9369,-4.92925 1.93552,0.29451 3.82315,-0.0144 5.62738,-2.04909 0.63442,-0.55783 1.26883,-1.11569 1.90324,-1.67355 3.59318,0.16244 7.18636,0.32488 10.77953,0.48732 0.66868,0.91069 1.33735,1.82139 2.00602,2.73208 z"
           id="path31360-2-95-0-9"
           inkscape:connector-curvature="0"
           inkscape:transform-center-x="2.057131"
           inkscape:transform-center-y="8.5848295"
           sodipodi:nodetypes="cccccccc" />
        <path
           style="fill:#803300;fill-opacity:1;fill-rule:nonzero;stroke:#000000;stroke-width:0.5;stroke-linecap:round;stroke-linejoin:round;stroke-miterlimit:4;stroke-opacity:1;stroke-dasharray:none;stroke-dashoffset:0"
           d="m 432.11896,166.69145 6.54275,-0.19827 22.60223,17.44734 3.27138,-1.68526 -23.29616,-16.1586 3.3705,0"
           id="path7707"
           inkscape:connector-curvature="0"
           sodipodi:nodetypes="cccccc"
           transform="translate(-148.77734,9.2280706)" />
      </g>
    </g>
  </g>
</svg>
