<?xml version="1.0" encoding="UTF-8"?>
<!DOCTYPE svg PUBLIC "-//W3C//DTD SVG 1.1//EN" "http://www.w3.org/Graphics/SVG/1.1/DTD/svg11.dtd">
<!-- Creator: CorelDRAW X6 -->
<svg xmlns="http://www.w3.org/2000/svg" xml:space="preserve" width="199.331mm" height="259.934mm" version="1.1" style="shape-rendering:geometricPrecision; text-rendering:geometricPrecision; image-rendering:optimizeQuality; fill-rule:evenodd; clip-rule:evenodd"
viewBox="0 0 2117 2761"
 xmlns:xlink="http://www.w3.org/1999/xlink">
 <defs>
  <style type="text/css">
   <![CDATA[
    .str0 {stroke:#332C2B;stroke-width:2.1241}
    .fil8 {fill:#332C2B}
    .fil18 {fill:#366B5E}
    .fil17 {fill:#45AB91}
    .fil3 {fill:#5F5D5D}
    .fil5 {fill:#633234}
    .fil2 {fill:#757475}
    .fil13 {fill:#856D37}
    .fil11 {fill:#8B8B8C}
    .fil7 {fill:#A1A1A1}
    .fil14 {fill:#A68845}
    .fil10 {fill:#AA977C}
    .fil1 {fill:#B6B6B7}
    .fil21 {fill:#D4C1A5}
    .fil4 {fill:#E62129}
    .fil6 {fill:#EEEEEF}
    .fil12 {fill:#FEFEFE}
    .fil19 {fill:black}
    .fil15 {fill:#100E11}
    .fil0 {fill:#9E9696}
    .fil22 {fill:#C9A37D}
    .fil9 {fill:#EFD0B3}
    .fil20 {fill:#366B5E}
    .fil16 {fill:#45AB91}
   ]]>
  </style>
 </defs>
 <rect class="fil0" x="-11544" y="-2959" width="3154" height="4461"/>
 <rect class="fil1" transform="matrix(0.00880473 -0.999961 1.47761 0.0130105 1912.43 2660.47)" width="1644" height="51"/>
 <path class="fil1" d="M2002 1017l-75 -1c-5,-167 68,-158 174,-157l-1 85c-38,2 -98,-20 -99,73z"/>
 <rect class="fil2" transform="matrix(0.00880472 -0.999961 0.925048 0.00814511 1922.74 1015.06)" width="26" height="98"/>
 <path class="fil3" d="M1441 2373l-13 -1c-7,-214 330,-153 287,3l-11 -6c-10,-169 -262,-150 -263,4z"/>
 <polygon class="fil4" points="1426,2311 1969,2343 1969,2662 1426,2727 "/>
 <polygon class="fil5" points="1969,2449 1426,2449 1426,2464 1969,2464 "/>
 <rect class="fil6" x="1698" y="2406" width="64" height="172" rx="17" ry="17"/>
 <polygon class="fil7" points="1698,2449 1763,2449 1763,2406 1698,2406 "/>
 <rect class="fil8" x="1722" y="2466" width="18" height="87" rx="9" ry="9"/>
 <polygon class="fil5" points="1436,2311 1210,2343 1210,2662 1436,2727 "/>
 <path class="fil9" d="M1671 1509c-15,-67 16,-118 57,-129 61,-17 89,15 90,34 2,32 95,-27 69,94 -24,116 -201,71 -216,1z"/>
 <path class="fil10" d="M1698 1430c11,16 31,21 50,17 -22,31 -10,49 12,52 -11,30 -2,38 21,71 -13,-26 -18,-48 -10,-72 21,-10 30,-50 42,-77 -18,18 -33,68 -45,69 -32,3 -22,-21 -11,-48 -30,-2 -48,-2 -60,-11z"/>
 <path class="fil9" d="M1089 1302l43 -124c86,65 177,87 258,149 175,29 284,91 358,105l-43 85c-76,3 -159,-14 -371,-66 -90,-22 -180,-92 -245,-150z"/>
 <rect class="fil11" transform="matrix(-0.0379712 -0.0593562 -0.0352764 0.0225669 1985.86 1210.23)" width="1012" height="7441" rx="36" ry="36"/>
 <rect class="fil4" transform="matrix(-0.0566147 -0.0884996 -0.0884996 0.0566147 1994.07 1386.32)" width="1012" height="7441" rx="53" ry="53"/>
 <rect class="fil4" transform="matrix(-0.050068 -0.0782658 -0.0725455 0.0464086 1994.07 1386.32)" width="2698" height="1281"/>
 <path class="fil11" d="M1898 1182l35 63c35,-19 49,-31 73,2 32,46 19,61 -19,86 4,9 21,36 28,45 61,-33 93,-86 50,-154 -52,-82 -88,-91 -165,-41z"/>
 <rect class="fil4" transform="matrix(-0.0297117 -0.0464451 -0.169625 0.108512 2005.33 1403.94)" width="2698" height="1281"/>
 <rect class="fil5" transform="matrix(-0.0566147 -0.0884996 -0.0884996 0.0566147 1935.19 1390.7)" width="495" height="1664"/>
 <circle class="fil12" transform="matrix(-0.0566147 -0.0884996 -0.0884996 0.0566147 1349.85 1735.71)" r="259"/>
 <rect class="fil13" x="958" y="1854" width="84" height="211"/>
 <rect class="fil14" x="925" y="1854" width="84" height="211"/>
 <polygon class="fil15" points="594,1061 575,1336 632,1344 647,1498 696,1577 696,1589 699,1583 700,1583 700,1583 748,1504 764,1350 820,1342 801,1067 803,1051 787,1046 728,1283 698,1387 698,1437 697,1381 661,1274 611,1042 591,1044 "/>
 <path class="fil16" d="M787 1035c0,0 183,48 185,69 25,284 139,573 25,837 -22,11 -506,-8 -573,-7 -85,-216 -92,-804 132,-893 33,-13 55,-11 55,-11l176 5z"/>
 <path class="fil17" d="M907 1069l19 236c15,11 171,74 263,101 3,1 22,22 25,23 2,1 12,-12 14,-11 2,0 3,19 4,19 3,1 6,-19 9,-18 2,1 6,20 8,21 8,1 12,-11 13,-16l7 -205c-2,-1 -6,15 -10,13 -1,-1 -3,-8 -4,-8 -2,-1 -4,4 -6,3 -3,-1 1,-12 -2,-13 -2,-1 -29,-6 -32,-7 -78,-39 -236,-123 -307,-136z"/>
 <path class="fil18" d="M723 1182c6,1 12,2 18,4 53,252 60,501 28,749 -4,0 -7,0 -11,0 18,-246 11,-496 -34,-753z"/>
 <path class="fil9" d="M620 915l155 0 0 109c1,71 -44,170 -44,170 0,0 -113,-103 -111,-172l0 -107z"/>
 <path class="fil19" d="M1005 2659l118 0c83,75 185,45 188,61 8,14 -2,39 -80,41 -28,0 -81,-2 -81,-2 -8,-2 -59,-19 -57,-14l0 13 -83 0c-14,-33 -19,-58 -4,-99z"/>
 <path class="fil17" d="M428 1970c111,0 274,-12 311,0 111,0 223,-14 260,-2 0,0 205,136 190,387 -10,161 -40,261 -47,311l-141 -7c0,-31 -32,-94 -23,-225 0,-4 -26,-27 -26,-31 0,-3 17,-40 17,-40 0,0 -25,10 -26,-2 -1,-9 5,-26 6,-35 8,-97 -169,-210 -209,-233 -1,89 -6,216 -20,354 -17,161 -184,196 -577,96l-61 -101c0,-31 221,-17 437,8 0,0 -18,-6 -18,-9 0,-3 21,-2 21,-2 0,0 -23,-6 -24,-18 -1,-9 13,-9 12,-19 -10,-197 -83,-274 -83,-435z"/>
 <path class="fil19" d="M83 2444l61 101c-21,110 57,181 45,193 -8,14 -35,18 -76,-48 -15,-24 -40,-71 -40,-71 -2,-8 -14,-60 -17,-56l-12 6 -43 -71c20,-29 40,-46 83,-54z"/>
 <polygon class="fil8 str0" points="1005,1970 428,1970 415,1900 1014,1896 "/>
 <polygon class="fil20" points="619,1220 726,1188 598,1253 601,1043 "/>
 <polygon class="fil20" points="810,1205 734,1189 830,1232 801,1043 "/>
 <path class="fil18" d="M551 1331c51,-1 103,-2 154,-3 7,135 49,212 -57,212 -106,5 -98,-74 -97,-209z"/>
 <path class="fil17" d="M557 1339c47,-1 94,-2 141,-3 7,124 44,195 -54,195 -97,4 -89,-68 -88,-192z"/>
 <path class="fil18" d="M556 1371c24,19 43,59 73,58 27,-3 47,-41 71,-61 -1,-10 -2,-21 -2,-32l-141 3c0,11 0,22 -1,32z"/>
 <circle class="fil12" transform="matrix(0.796319 -0.0171674 0.0215535 0.999768 628.101 1399.64)" r="15"/>
 <rect class="fil17" x="564" y="1880" width="21" height="108"/>
 <rect class="fil17" x="946" y="1880" width="21" height="108"/>
 <rect class="fil12" x="704" y="1898" width="153" height="72"/>
 <path class="fil9" d="M426 595c41,677 658,590 699,97 14,-163 9,-361 -5,-407 -15,-46 -216,-74 -314,-95 -98,-22 -343,47 -375,78 -32,31 -5,327 -5,327z"/>
 <path class="fil8" d="M1092 532c-79,-54 -194,-63 -158,-37 14,10 30,-12 158,37z"/>
 <path class="fil21" d="M563 984c-39,-106 -33,-401 6,-589 -14,-6 -135,-7 -147,-14 -5,46 2,98 8,148 1,4 1,9 1,13 11,104 -12,281 131,442z"/>
 <path class="fil22" d="M932 729c-10,20 -32,32 -52,35l0 0 0 0 0 0 0 0c-21,-2 -42,-14 -52,-35 44,24 67,23 105,0z"/>
 <path class="fil8" d="M676 536c74,-61 188,-79 154,-51 -13,11 -31,-10 -154,51z"/>
 <path class="fil21" d="M442 353l-6 23c79,51 485,105 648,-25l0 -4 -642 5z"/>
 <path class="fil8" d="M825 104c-173,-6 -332,193 -430,255 -89,56 -45,516 76,476 14,-5 -25,-69 -21,-90 11,16 56,58 105,108 -116,-217 104,-304 -10,-524 162,-63 287,-18 287,-18l0 -1 0 -206c-2,0 -4,0 -6,0z"/>
 <path class="fil17" d="M394 359c0,-190 35,-359 376,-359 340,0 376,169 376,359 -250,0 -501,0 -751,0z"/>
 <path class="fil18" d="M1145 359l-627 0c83,125 1041,171 624,0 1,-1 0,-2 3,0z"/>
 <path class="fil18" d="M456 359c-10,-119 -9,-258 178,-347 -214,41 -239,187 -239,347l62 0z"/>
 <path class="fil21" d="M481 787c-85,-42 -217,-221 -65,-299 14,-7 23,-7 38,-7 0,9 0,14 0,14 0,0 -2,175 27,292z"/>
 <path class="fil10" d="M431 662c0,0 -8,-37 -25,-75 -17,-38 -35,-5 -35,-5 0,0 22,15 30,34 7,19 -9,11 -15,19 6,-8 45,27 45,27z"/>
 <path class="fil18" d="M809 1331c51,-1 103,-2 154,-3 7,135 49,212 -57,212 -106,5 -98,-74 -97,-209z"/>
 <path class="fil17" d="M815 1339c47,-1 94,-2 141,-3 7,124 44,195 -54,195 -97,4 -89,-68 -88,-192z"/>
 <path class="fil18" d="M814 1371c24,19 43,59 73,58 27,-3 47,-41 71,-61 -1,-10 -2,-21 -2,-32l-141 3c0,11 0,22 -1,32z"/>
 <circle class="fil12" transform="matrix(0.796319 -0.0171674 0.0215535 0.999768 885.869 1399.64)" r="15"/>
 <path class="fil21" d="M646 1501l108 -80 19 -14c-7,-11 -14,-19 -20,-27 -2,2 -4,4 -7,6 -36,31 -73,63 -110,98 3,6 6,12 9,18z"/>
 <path class="fil9" d="M662 1574l31 -149c125,57 171,101 245,169 202,32 276,114 349,134l-38 70c-134,-15 -139,-17 -362,-80 -76,-21 -147,-81 -224,-144z"/>
 <path class="fil17" d="M523 1153l-88 155c9,16 102,163 196,214 3,1 3,28 5,30 2,1 17,-9 19,-7 1,1 -6,18 -5,20 3,2 15,-13 17,-11 2,2 -1,14 1,16 7,5 16,-5 19,-9l137 -87c-2,-2 47,-35 -16,-26 -1,0 13,-18 12,-19 -1,-1 -28,-2 -29,-4 -2,-3 15,-22 12,-25 -2,-2 -63,-53 -65,-56 -54,-69 -156,-147 -215,-189z"/>
 <rect class="fil18" x="983" y="274" width="135" height="43"/>
 <path class="fil9" d="M1237 1812c-15,-67 16,-118 57,-129 61,-17 89,15 90,34 2,32 95,-27 69,94 -24,116 -201,71 -216,1z"/>
 <path class="fil8" d="M840 571c-19,-18 -53,-25 -85,-23l0 0 0 0 0 0 0 0c-31,7 -62,24 -75,46 63,-33 98,-38 159,-23z"/>
 <path class="fil8" d="M963 572c16,-18 45,-25 72,-23l0 0 0 0 0 0 0 0c26,7 53,24 64,46 -54,-33 -84,-38 -136,-23z"/>
 <path class="fil22" d="M884 885c78,-48 19,-64 -22,-38 75,-58 81,28 52,28 50,16 8,105 -45,51 70,29 82,-56 14,-41z"/>
 <rect class="fil2" transform="matrix(0.999961 0.00880472 -0.00814511 0.925048 2091 856.025)" width="26" height="98"/>
 <rect class="fil2" transform="matrix(0.00880472 -0.999961 0.925048 0.00814511 1911.5 1755.68)" width="26" height="98"/>
</svg>
