<?xml version="1.0" encoding="utf-8"?>
<!-- Generator: Adobe Illustrator 15.1.0, SVG Export Plug-In . SVG Version: 6.00 Build 0)  -->
<!DOCTYPE svg PUBLIC "-//W3C//DTD SVG 1.1//EN" "http://www.w3.org/Graphics/SVG/1.1/DTD/svg11.dtd">
<svg version="1.1" id="Layer_1" xmlns="http://www.w3.org/2000/svg" xmlns:xlink="http://www.w3.org/1999/xlink" x="0px" y="0px"
	 width="300px" height="300px" viewBox="0 0 300 300" enable-background="new 0 0 300 300" xml:space="preserve">
<path fill-rule="evenodd" clip-rule="evenodd" fill="#FDFDFD" stroke="#000000" stroke-width="0.9601" stroke-linecap="round" stroke-miterlimit="2.6131" d="
	M169.556,79.907c-15.327,0.748-41.496,3.738-56.824,7.851c-15.327,4.112-49.721,25.795-50.842,36.262
	c-1.122,10.468,2.617,42.245,5.608,50.842c2.991,8.599,14.954,25.048,19.066,29.908c4.112,4.859,9.345,7.477,9.719,10.093
	c0.374,2.617,1.122,29.907,1.496,33.646c0.374,3.738,0.374,6.355,2.99,8.225c2.617,1.869,16.075,3.738,16.449-0.748
	s1.87-6.729,1.496-17.196c-0.374-10.468-1.87-26.169,0.748-26.169s10.841,0.374,10.841,0.374s1.87,29.533,2.243,33.646
	c0.374,4.112-1.869,9.72,1.122,10.841c2.991,1.122,8.225,2.244,11.963,1.869c3.738-0.374,9.72-2.99,8.973-11.589
	c-0.748-8.599-1.496-34.768-2.243-37.384c-0.748-2.617,16.449-1.869,21.683-2.617s9.72-0.374,12.71-1.869
	c2.991-1.495,16.076,11.589,19.44,11.963s1.495,22.805,1.122,28.412c-0.375,5.607,2.242,11.589,6.729,11.589
	s8.599,1.122,10.094-4.485c1.495-5.608-0.374-36.264,2.243-37.011c2.617-0.748,8.972-6.729,9.346-4.112
	c0.374,2.616,2.99,23.926,3.738,29.907s-0.747,14.58,1.496,15.701s10.842,5.607,14.953,0.748c4.112-4.86,4.486-8.599,4.486-28.412
	s-0.374-38.132,1.122-41.122c1.495-2.991,9.719-17.945,7.85-28.412c-1.869-10.468-0.748-37.385-10.467-45.983
	c-9.72-8.598-41.123-28.786-50.469-29.533C199.09,84.393,182.267,79.533,169.556,79.907z"/>
<path fill-rule="evenodd" clip-rule="evenodd" fill="#7C8083" stroke="#000000" stroke-width="0.9601" stroke-linecap="round" stroke-miterlimit="2.6131" d="
	M240.5,101.83c-14.206-8.972-22.43-15.888-31.776-16.636s-26.169-5.607-38.88-5.234c-11.269,0.55-32.463,1.428-41.858,4.034
	c-5.98,4.679,0.445,6.898,1.943,10.867c1.736,4.601,4.86,23.926,6.729,34.02c1.869,10.093,2.616,17.944,11.215,23.178
	c8.599,5.234,13.459,7.104,19.814-3.364c6.354-10.468,14.953-0.748,20.561,4.112c5.608,4.859,17.197,11.963,20.562,0.374
	c3.364-11.589,2.99-16.823,13.458-18.319c10.468-1.495,25.422-0.747,22.057-10.841C240.96,113.927,245.446,107.198,240.5,101.83z"/>
<path fill-rule="evenodd" clip-rule="evenodd" fill="#E7BD7C" stroke="#000000" stroke-width="0.9601" stroke-linecap="round" stroke-miterlimit="2.6131" d="
	M49.833,88.225c-3.885-1.57-14.563,5.235-17.854-1.399c-5.728-11.548,9.439-14.938-2.895-15.424
	c-3.739-0.147-17.264,15.143-5.736,26.671c3.419,3.42,21.017,5.591,20.379,2.617c0.782-0.821,4.259-9.045,4.893-10.03
	C48.662,90.658,49.771,88.2,49.833,88.225z"/>
<path fill-rule="evenodd" clip-rule="evenodd" fill="#FDFDFD" stroke="#000000" stroke-width="0.9601" stroke-linecap="round" stroke-miterlimit="2.6131" d="
	M41.796,103.179c-5.672,2.138-24.458,2.806-33.923,5.009c-5.9,1.374,10.784,20.974,20.188,15.274
	c8.678-5.261,11.947-5.767,13.394-16.578C41.567,106.036,42.166,103.039,41.796,103.179z"/>
<path fill-rule="evenodd" clip-rule="evenodd" fill="#E7BD7C" stroke="#000000" stroke-width="0.9601" stroke-linecap="round" stroke-miterlimit="2.6131" d="
	M101.05,85.795c3.531,0.392,21.56-4.361,12.395-14.425c-5.291-5.811,4.308-7.914,11.215,6.013c2.34,4.719,7.015,13.738-0.149,17.293
	c-8.732,4.333-6.416,3.617-16.545,4.016C104.752,98.819,102.302,85.934,101.05,85.795z"/>
<path fill-rule="evenodd" clip-rule="evenodd" fill="#FDFDFD" stroke="#000000" stroke-width="0.9601" stroke-linecap="round" stroke-miterlimit="2.6131" d="
	M107.031,98.505c0.564,2.577,5.165,15.889,6.414,17.138c4.453,4.45,10.166,5.8,15.733,1.613c3.503-2.635,12.433-8.819,12.433-13.33
	c-0.146,0.012-5.566,0.002-6.355,0c-5.768-0.02-24.607-4.404-25.176-4.176C109.613,99.937,107.203,99.291,107.031,98.505z"/>
<path fill-rule="evenodd" clip-rule="evenodd" fill="#FDFDFD" stroke="#000000" stroke-width="0.9601" stroke-linecap="round" stroke-miterlimit="2.6131" d="
	M53.572,82.804c-4.813,2.565-15.974,31.243-15.515,36.823c0.033,0.398-1.975,14.009-1.624,20.807
	c0.356,6.876,6.325,23.075,9.101,27.387c3.317,5.152,20.937,7.37,26.917,7.135c17.427-0.688,15.252-2.158,29.533-7.103
	c10.064-3.485,12.402-11.514,12.614-20.936c0.097-4.287,0.661-16.833,0.064-21.683c-0.68-5.536-0.354-7.909-2.489-13.426
	c-1.366-3.53-3.639-11.968-6.109-14.612c-1.014-1.084-2.167-8.125-6.078-11.835c-7.087-6.721-8.771-6.188-18.906-5.394
	c-7.066,0.554-13.864,1.315-20.561,2.681C59.404,82.877,54.03,82.561,53.572,82.804z"/>
<path fill-rule="evenodd" clip-rule="evenodd" fill="#7C7F82" stroke="#000000" stroke-width="0.9601" stroke-linecap="round" stroke-miterlimit="2.6131" d="
	M78.432,80.561c-5.391,3.902-7.101,33.079,0.935,39.814c0.044,0.037,5.4,4.843,9.816,5.832c4.763,1.066,10.669,2.03,16.913-0.315
	c3.837-1.441,8.592-1.361,7.509-6.67c-1.69-8.292-12.866-37.301-18.724-38.067c-2.565-0.336-6.328-2.606-13.458-0.876
	C80.564,80.486,79.01,80.143,78.432,80.561z"/>
<path fill-rule="evenodd" clip-rule="evenodd" stroke="#000000" stroke-width="0.9601" stroke-linecap="round" stroke-miterlimit="2.6131" d="
	M59.366,107.945c-4.575,0.801-7.318,7.188-2.011,10.905c5.934,4.156,10.683-2.619,6.638-8.663
	C62.84,108.463,61.438,107.582,59.366,107.945z"/>
<path fill-rule="evenodd" clip-rule="evenodd" stroke="#000000" stroke-width="0.9601" stroke-linecap="round" stroke-miterlimit="2.6131" d="
	M92.077,106.73c-5.898,0.837-5.068,7.236-1.263,9.301c2.851,1.547,6.35-0.249,6.762-3.6c0.378-3.077,0.524-3.247-2.462-5.373
	C94.763,106.81,92.65,106.649,92.077,106.73z"/>
<path fill-rule="evenodd" clip-rule="evenodd" fill="#E8BCAF" stroke="#000000" stroke-width="0.9601" stroke-linecap="round" stroke-miterlimit="2.6131" d="
	M62.263,146.825c-4.012,2.039-4.931,5.589-3.937,8.262c1.175,3.157,5.021,5.091,9.592,1.864c3.32-2.345,3.815-5.158,1.383-8.396
	C66.679,145.061,64.666,146.23,62.263,146.825z"/>
<path fill-rule="evenodd" clip-rule="evenodd" fill="#E8BCAF" stroke="#000000" stroke-width="0.9601" stroke-linecap="round" stroke-miterlimit="2.6131" d="
	M88.433,144.395c-10.192,2.422-6.178,12.849-0.375,12.134c0.943-0.116,2.313,0.371,3.381-0.528c0.545,0.142,2.497-0.823,2.633-1.479
	c0.422-0.088,3.051-6.524-1.666-8.866c-0.01-0.005-1.986-1.627-2.292-1.356C89.68,143.936,88.908,144.282,88.433,144.395z"/>
<path fill-rule="evenodd" clip-rule="evenodd" fill="#FF9933" stroke="#000000" stroke-width="0.9601" stroke-linecap="round" stroke-miterlimit="2.6131" d="
	M98.152,244.865c-0.86,7.241-0.615,9.333,5.653,13.133c2.656,1.611,13.584,1.065,13.319-2.291c-0.003-0.044,1.154-5.227,1.292-6.355
	c1.159-9.425-1.839-0.058-10.654-1.854C103.745,246.681,101.822,246.3,98.152,244.865z"/>
<path fill-rule="evenodd" clip-rule="evenodd" fill="#FF9933" stroke="#000000" stroke-width="0.9601" stroke-linecap="round" stroke-miterlimit="2.6131" d="
	M133.667,246.361c-0.634,0.662-2.647,6.354-0.862,9.894c1.021,2.024,3.79,2.967,7.498,2.816c2.622-0.106,4.227,0.835,7.167-0.342
	c2.055-0.821,6.222-2.464,6.104-5.452c-0.084-2.155,1.302-3.003,0.545-6.714c-1.055-5.173,0.085-3.343-5.079-0.063
	c-1.26,0.8-7.475,2.233-9.485,1.404C139.533,247.895,133.772,246.252,133.667,246.361z"/>
<path fill-rule="evenodd" clip-rule="evenodd" fill="#FF9933" stroke="#000000" stroke-width="0.9601" stroke-linecap="round" stroke-miterlimit="2.6131" d="
	M208.155,247.108l-0.935-1.121c0,3.521,2.332,13.945,7.477,11.824c2.267-0.935,8.939,0.906,9.55-5.656
	c0.083-0.896,2.72-9.841-1.837-5.73c-1.654,1.491-7.788,2.79-9.63,1.479C212.647,247.81,208.956,247.342,208.155,247.108z"/>
<path fill-rule="evenodd" clip-rule="evenodd" fill="#FF9933" stroke="#000000" stroke-width="0.9601" stroke-linecap="round" stroke-miterlimit="2.6131" d="
	M239.605,246.408c-0.983,3.648,0.578,7.455,0.48,9.488c0.921,0.796,2.019,2.556,4.209,2.927c1.744,0.295,3.612,2.535,8.006,1.201
	c5.609-1.703,4.264-3.279,7.07-7.215c0.021-0.028,1.447-9.437-0.651-7.941c-3.529,2.514-11.811,3.84-15.798,2.445
	C242.529,247.177,239.627,246.329,239.605,246.408z"/>
<path fill-rule="evenodd" clip-rule="evenodd" fill="#FDFDFD" stroke="#000000" stroke-width="0.9601" stroke-linecap="round" stroke-miterlimit="2.6131" d="
	M263.479,120.879c0.2,0.578,7.685,11.378,8.36,12.054c8.695,8.696,6.665,17.964,8.688,27.887c0.602,2.95,0.359,22.536,1.98,24.813
	c0.311,0.436-0.057,2.089,3.232,5.735c4.058,4.5,6.627,24.554-2.309,26.016c-15.861,2.596-14.06-20.355-7.303-29.843
	c0.07-0.098-1.167-26.933-1.167-30.087c0-8.919-2.79-10.98-6.488-18.178C265.833,134.136,265.539,126.827,263.479,120.879z"/>
<path fill-rule="evenodd" clip-rule="evenodd" fill="none" stroke="#000000" stroke-width="0.9601" stroke-linecap="round" stroke-miterlimit="2.6131" d="
	M277.089,201.684c2.066,6.629,0.851,10.356,0.851,16.161"/>
<path fill-rule="evenodd" clip-rule="evenodd" fill="none" stroke="#000000" stroke-width="0.9601" stroke-linecap="round" stroke-miterlimit="2.6131" d="
	M283.894,200.833c0.505,5.055,2.126,9.688,2.126,14.886"/>
</svg>
