<?xml version="1.0" encoding="utf-8"?>
<!-- Generator: Adobe Illustrator 17.0.0, SVG Export Plug-In . SVG Version: 6.00 Build 0)  -->
<!DOCTYPE svg PUBLIC "-//W3C//DTD SVG 1.1//EN" "http://www.w3.org/Graphics/SVG/1.1/DTD/svg11.dtd">
<svg version="1.1" id="Layer_1" xmlns="http://www.w3.org/2000/svg" xmlns:xlink="http://www.w3.org/1999/xlink" x="0px" y="0px"
	 width="300px" height="300px" viewBox="0 0 300 300" enable-background="new 0 0 300 300" xml:space="preserve">
<path fill="#FFFFFF" stroke="#000000" stroke-miterlimit="10" d="M199.945,196.878c0,0-0.552-1.398-0.652-2.301
	c-0.1-0.903-0.76-3.996-0.656-5.26c0.104-1.264-0.104-6.232,0-7.136l-1.201-0.953c-0.1,0.703,0.151,2.911,0,3.714
	c-0.151,0.803-0.152,4.617,0.049,5.37c0.201,0.753,0.352,4.818,0.352,5.169c0,0.351-0.255,1.398-0.255,1.398H199.945z"/>
<path fill="#FFFFFF" stroke="#000000" stroke-miterlimit="10" d="M222.477,191.315c-2.71,0.151-1.807,1.054-2.559,1.556
	c-0.753,0.502-8.431,3.262-9.736,3.463c-1.305,0.201-18.718,0.703-20.625,0.903c-1.907,0.201-14.152,0.903-16.36,0.703
	c-2.208-0.201-1.556-5.721-1.556-6.775c0-1.054-0.853-2.71-0.928-4.316c-0.075-1.606-0.477-4.215-0.326-5.821
	c0.15-1.606,0.652-3.111,0.652-3.111h-1.606c-0.301,0.552-0.301,3.312-0.552,4.366c-0.251,1.054,0.502,7.226,0.452,8.682
	c-0.05,1.455,1.154,5.721,1.154,6.574c0,0.853-8.682,2.308-8.933,3.011c-0.251,0.703,10.438-1.004,12.496-1.004
	s13.248-0.552,16.661-0.703c3.412-0.151,18.417-0.652,20.374-0.868s6.574-2.244,8.23-3.147c1.656-0.903,3.162-1.054,5.721-2.559
	C227.596,190.763,225.187,191.164,222.477,191.315z"/>
<path fill="#FFFFFF" stroke="#000000" stroke-miterlimit="10" d="M167.952,192.309c0.289,0.404,5.268,0.773,6.392,0.702
	c1.124-0.07,10.887-0.2,13.065-0.346c2.177-0.146,11.73-0.427,13.767-0.357c2.037,0.07,9.553,0.118,10.466-0.011
	c0.913-0.129,6.392-0.621,7.235-0.481c0.843,0.14,5.443-0.536,6.251-0.351c0.808,0.185,1.686-0.281,1.756-0.913
	c0.07-0.632-1.124-0.702-4.566-0.843s-13.486,0.632-16.296,0.632s-10.185,0.211-14.751,0.211s-10.466,0.211-13.416,0.351
	C174.906,191.044,167.249,191.325,167.952,192.309z"/>
<path fill="#FFFFFF" stroke="#000000" stroke-miterlimit="10" d="M49.307,167.144c0,0-6.314-5.84-7.893-8.05
	s-8.524-10.734-8.524-10.734l-2.526-2.526c0,0,4.262-2.052,5.683-1.421c1.421,0.631,8.05,5.998,8.997,7.103
	s13.733,12.154,14.68,14.049c0.947,1.894,2.841,6.945,1.579,9.629c-1.263,2.683-1.263,5.209-2.999,5.209
	c-1.736,0-5.367-0.947-5.367-0.947s-1.421-8.208-2.526-10.26C49.307,167.144,49.307,167.144,49.307,167.144z"/>
<path fill="#FFFFFF" stroke="#000000" stroke-miterlimit="10" d="M92.74,153.55c-0.513,0-4.309,0.41-4.309,0.41l-3.129,9.233
	l9.848-0.844c0,0,2.359-7.876,2.411-8.44C97.613,153.344,93.253,153.55,92.74,153.55z"/>
<path fill="#FFFFFF" stroke="#000000" stroke-miterlimit="10" d="M44.033,168.063c0.104,1.035,0.728,1.977,10.404,1.977
	s21.848,0.52,24.657,0.624c2.809,0.104,14.669,0.416,20.6,0.624c5.93,0.208,32.46,1.248,37.974,1.04
	c5.514-0.208,12.589,0.104,15.294,1.04s24.345,7.5,31.836,7.86c7.491,0.359,16.23,2.336,22.576,1.192
	c6.346-1.144,10.82-0.728,17.686-2.601c6.867-1.873,14.877-3.537,17.27-5.826c2.393-2.289,5.41-4.37,5.514-8.947
	c0.104-4.578-4.578-7.803-7.387-8.947c-2.809-1.144-20.287-12.381-22.68-12.797s-15.814,0.728-18.311,1.04
	c-2.497,0.312-3.537,0.312-3.537,0.312s-0.312-2.393-6.242-2.393c-5.93,0-18.935,0.52-22.576,0.52s-8.011,0-10.3,1.248
	c-2.289,1.248-3.329,2.601-3.329,4.057c0,0-1.665,1.457-1.873,3.849c-0.208,2.393-0.728,6.242-0.728,6.242
	s-8.115-0.208-14.045-0.104s-18.415,1.04-23.721,1.769c-5.306,0.728-9.259,1.144-13.317,1.144s-15.086,0.873-19.039,1.529
	c-3.953,0.656-9.988,1.072-9.988,1.072s0.104-1-1.352-1.072c-1.457-0.072-11.47,0.991-11.47,0.991s-0.287,1.226,1.482,1.746
	s0.312,1.873,0.312,1.873S43.825,165.982,44.033,168.063z"/>
<path fill="#FFFFFF" stroke="#000000" stroke-miterlimit="10" d="M83.405,168.938c0,0-5.078,12.464-4.103,12.772
	c0.975,0.308,8.361,1.334,9.233,0.462c0.872-0.872,4.309-12.823,4.309-12.823"/>
<path fill="#376E83" stroke="#000000" stroke-miterlimit="10" d="M95.94,161.12c0.587-0.03,18.439,3.463,23.227,4.624
	c4.788,1.161,27.565,5.134,34.094,5.904c6.529,0.77,49.395,7.73,59.589,5.338l-1.702-0.941c0,0-18.425-0.725-23.938-1.451
	c-5.513-0.725-13.72-1.129-14.836-1.516c-1.116-0.386-8.051-5.887-9.008-7.003c-0.957-1.116-2.87-3.686-3.507-4.394
	c-0.638-0.708-8.713-5.554-8.713-5.554l-0.265,2.051c0,0-19.429,0.053-23.866,0.384S95.94,161.12,95.94,161.12z"/>
<path fill="#EF4136" stroke="#000000" stroke-miterlimit="10" d="M165.702,143.061c0,0-0.823,4.951-0.823,5.569
	c0,0.617,4.012,5.761,4.732,7.921c0.72,2.16,5.349,11.123,6.378,12.152c1.029,1.029,1.234,2.572,3.909,2.675
	c2.675,0.103,19.708,2.238,23.867,1.701c4.158-0.537,26.541-0.994,29.628-1.919c3.086-0.926,6.893-1.568,8.847-2.687
	c1.955-1.119,5.504-6.503,3.865-8.204c0,0,4.674,5.541-1.87,11.958c-1.856,1.82-9.371,5.014-11.434,5.56
	c-2.063,0.546-0.62-1.958-10.107-2.717c-9.487-0.759-17.384-0.206-20.574-0.514c-3.19-0.309-18.593-1.847-21.399-1.88
	c-2.806-0.033-7.407-1.037-8.847-2.041c-1.44-1.004-6.584-4-7.715-5.646c-1.132-1.646-2.778-3.806-4.424-4.938
	c-1.646-1.132-5.247-3.417-6.172-3.92c-0.926-0.503-2.186-1.946-2.186-1.946s0.376-5.505,2.104-6.095c0,0-0.044-3.236,4.494-4.536
	C162.513,142.251,165.702,143.061,165.702,143.061z"/>
<path fill="#BAD2DE" stroke="#000000" stroke-miterlimit="10" d="M213.677,143.266c-0.148,0.883-1.294,2.38,0.563,2.69
	s6.992,1.176,6.93,0.433c-0.062-0.742-2.638-3.018-3.393-3.087S213.752,142.818,213.677,143.266z"/>
<path fill="#BAD2DE" stroke="#000000" stroke-miterlimit="10" d="M213.192,151.462c-0.263,0.393-0.747,4.826,0.305,5.136
	c1.052,0.309,3.156,1.238,4.455,0.619c1.299-0.619,3.837-4.022,3.218-5.012S213.939,150.348,213.192,151.462z"/>
<path fill="#BAD2DE" stroke="#000000" stroke-miterlimit="10" d="M194.254,163.652c-0.613,0.268-1.39,3.589-0.417,5.321
	c0.974,1.732,1.571,4.95,4.799,4.702c3.228-0.247,3.29-0.309,3.476-1.794s-2.908-7.611-4.146-8.229
	C196.729,163.033,195.244,163.218,194.254,163.652z"/>
<path fill="#BAD2DE" stroke="#000000" stroke-miterlimit="10" d="M208.547,176.583c0.433,0.866,2.166,3.156,3.836,3.279
	c1.671,0.124,3.217,0.248,5.631,0c2.413-0.247,9.529-1.732,10.147-2.351c0.619-0.619,0.99-2.104,0-2.908
	c-0.99-0.804-5.507-0.619-7.239-0.619c-1.733,0-11.199,0.371-11.756,0.804c-0.557,0.433-1.327,1.528-0.619,2.197"/>
<path fill="#BAD2DE" stroke="#000000" stroke-miterlimit="10" d="M205.392,162.517c-0.958,0.271-3.279,1.506-2.723,2.682
	c0.557,1.176,2.413,6.806,4.331,7.177c1.918,0.371,5.136,0.804,7.796,0.681c2.661-0.124,9.529,0,9.9-1.361s-1.671-4.084-2.475-5.321
	c-0.804-1.237-2.908-4.393-3.898-4.641C217.334,161.486,206.555,162.187,205.392,162.517z"/>
<path fill="#BAD2DE" stroke="#000000" stroke-miterlimit="10" d="M222.582,145.68c0,0,1.496,2.942,1.063,5.259
	c-0.433,2.317-2.035,6.586-2.379,7.143c-0.344,0.557-0.901,1.671-0.468,2.042c0.433,0.371,2.874,4.084,3.943,5.569
	s4.225,6.249,5.091,5.94c0.866-0.309,6.373-3.279,7.796-4.702s4.022-5.198,3.712-7.116s0.327-3.172-0.597-3.594
	S224.296,145.567,222.582,145.68z"/>
<path fill="#BAD2DE" stroke="#000000" stroke-miterlimit="10" d="M232.864,173.078c-0.423,0.662,1.369,4.16,2.475,3.908
	c1.106-0.252,5.582-1.327,6.027-1.947c0.445-0.621,2.45-2.292,2.078-2.725c-0.371-0.433-0.99-1.794-2.97-1.609
	C238.495,170.891,233.483,172.11,232.864,173.078z"/>
<ellipse fill="#5A5B5D" stroke="#000000" stroke-miterlimit="10" cx="179.871" cy="145.413" rx="5" ry="2.353"/>
<path fill="#FFFFFF" stroke="#000000" stroke-miterlimit="10" d="M183.733,133.98h-8.74c-0.386,1.403,1.198,5.795,1.83,7.664
	c0.632,1.869-0.316,4.035,2.914,4.035c2.438,0,3.335-0.343,3.206-1.418C182.814,143.186,183.733,133.98,183.733,133.98z"/>
<path fill="#4D4D4F" stroke="#000000" stroke-miterlimit="10" d="M269.606,100.224c-0.587-0.705,0.352-4.464-4.699-2.82
	s-17.622,7.401-21.381,8.341c-3.759,0.94-20.324,6.696-23.614,8.106c-3.289,1.41-25.023,10.103-28.195,11.631
	s-9.516,6.344-9.868,6.461l1.885,1.41c0,0,5.398-1.517,7.865-2.697c2.467-1.18,29.84-12.928,35.832-14.69
	c5.991-1.762,27.021-8.811,30.662-10.221C261.734,104.335,270.193,100.929,269.606,100.224z"/>
<path fill="#4D4D4F" stroke="#000000" stroke-miterlimit="10" d="M165.635,130.656c-3.055-0.934-21.147-5.997-24.553-7.01
	s-21.969-6.036-27.138-7.093s-11.396-3.407-15.742-4.347c-4.347-0.94-4.582,2.966-4.582,2.966s9.633,3.848,13.745,5.023
	c4.112,1.175,22.439,6.696,29.488,8.811c7.049,2.115,18.797,3.759,24.698,4.974c5.901,1.215,13.953,1.252,13.953,1.252v-1.88
	C175.504,133.353,168.69,131.591,165.635,130.656z"/>
<path fill="#4D4D4F" stroke="#000000" stroke-miterlimit="10" d="M208.497,183.66c-3.153-6.055-10.064-17.706-11.774-21.231
	c-1.711-3.525-6.393-9.763-7.379-13.007c-0.986-3.244-7.675-14.538-7.675-14.538l-2.336,0.152c0,0,1.428,2.595,1.63,4.249
	c0.202,1.654,4.72,9.268,5.141,12.493c0.421,3.225,6.799,13.125,8.132,15.205c1.333,2.08,8.437,16.451,9.069,17.773
	c0.632,1.323,4.697,13.51,5.891,15.222c1.194,1.712,3.44,3.076,5.514,3.012C216.784,202.925,211.65,189.715,208.497,183.66z"/>
<ellipse fill="#FFFFFF" stroke="#000000" stroke-miterlimit="10" cx="179.373" cy="133.98" rx="5.817" ry="3.324"/>
<polygon fill="#EF4136" stroke="#000000" stroke-miterlimit="10" points="34.722,150.617 43.737,150.288 51.843,157.75 
	40.866,158.353 "/>
</svg>
