<svg width="400" height="400" xmlns="http://www.w3.org/2000/svg">
 <g>
  <title>background</title>
  
 </g>

 <style type="text/css">.st0{fill:#ED6522;}
	.st1{fill:url(#SVGID_1_);}
	.st2{fill:#FFFFFF;}
	.st3{fill:#FFFFFE;}
	.st4{fill:#FFFEFD;}
	.st5{fill:#FFFEFC;}
	.st6{fill:#FFFEFB;}
	.st7{fill:#FFFEFA;}
	.st8{fill:#FFFDF9;}
	.st9{fill:#FFFDF8;}
	.st10{fill:#FFFDF7;}
	.st11{fill:#FFFCF6;}
	.st12{fill:#FFFCF5;}
	.st13{fill:#FFFCF4;}
	.st14{fill:#FFFBF3;}
	.st15{fill:#FFFBF2;}
	.st16{fill:#FFFBF1;}
	.st17{fill:#FFFBF0;}
	.st18{fill:#FFFAEF;}
	.st19{fill:#FFFAEE;}
	.st20{fill:#FFFAED;}
	.st21{fill:#FFF9EC;}
	.st22{fill:#FFF9EB;}
	.st23{fill:#FFF9EA;}
	.st24{fill:#FFF8E9;}
	.st25{fill:#FFF8E8;}
	.st26{fill:#FFF8E7;}
	.st27{fill:#FFF8E6;}
	.st28{fill:#FFF7E5;}
	.st29{fill:#FFF7E4;}
	.st30{fill:#FFF7E3;}
	.st31{fill:#FFF6E2;}
	.st32{fill:#FFF6E1;}
	.st33{fill:#FFF6E0;}
	.st34{fill:#FFF6DF;}
	.st35{fill:#FFF5DE;}
	.st36{fill:#FFF5DD;}
	.st37{fill:#FFF5DC;}
	.st38{fill:#FFF4DB;}
	.st39{fill:#FFF4DA;}
	.st40{fill:#FFF4D9;}
	.st41{fill:#FFF3D8;}
	.st42{fill:#FFF3D7;}
	.st43{fill:#FFF3D6;}
	.st44{fill:#FFF3D5;}
	.st45{fill:#FFF2D4;}
	.st46{fill:#FFF2D3;}
	.st47{fill:#FFF2D2;}
	.st48{fill:#FFF1D1;}
	.st49{fill:#FFF1D0;}
	.st50{fill:#FFF1CF;}
	.st51{fill:#FFF0CE;}
	.st52{fill:#FFF0CD;}
	.st53{fill:#FFF0CC;}
	.st54{fill:#FFF0CB;}
	.st55{fill:#FFEFCA;}
	.st56{fill:#FFEFC9;}
	.st57{fill:#FFEFC8;}
	.st58{fill:#FFEEC7;}
	.st59{fill:#FFEEC6;}
	.st60{fill:#FFEEC5;}
	.st61{fill:#FFEDC4;}
	.st62{fill:#FFEDC3;}
	.st63{fill:#FFEDC2;}
	.st64{fill:#FFEDC1;}
	.st65{fill:#FFECC0;}
	.st66{fill:#FFECBF;}
	.st67{fill:#FFEBBE;}
	.st68{fill:#FFEBBD;}
	.st69{fill:#FFEBBC;}
	.st70{fill:#FFEBBB;}
	.st71{fill:#FFEABA;}
	.st72{fill:#FFEAB9;}
	.st73{fill:#FFEAB8;}
	.st74{fill:#FFE9B7;}
	.st75{fill:#FFE9B6;}
	.st76{fill:#FFE9B5;}
	.st77{fill:#FFE8B4;}
	.st78{fill:#FFE8B3;}
	.st79{fill:#FFE8B2;}
	.st80{fill:#FFE8B1;}
	.st81{fill:#FFE7B0;}
	.st82{fill:#FFE7AF;}
	.st83{fill:#FFE7AE;}
	.st84{fill:#FFE6AD;}
	.st85{fill:#FFE6AC;}
	.st86{fill:#FFE6AB;}
	.st87{fill:#FFE5AA;}
	.st88{fill:#FFE5A9;}
	.st89{fill:#FFE5A8;}
	.st90{fill:#FFE5A7;}
	.st91{fill:#FFE4A6;}
	.st92{fill:#FFE4A5;}
	.st93{fill:#FFE4A4;}
	.st94{fill:#FFE3A3;}
	.st95{fill:#FFE3A2;}
	.st96{fill:#FFE3A1;}
	.st97{fill:#FFE3A0;}
	.st98{fill:#FFE29F;}
	.st99{fill:#FFE29E;}
	.st100{fill:#FFE29D;}
	.st101{fill:#FFE19C;}
	.st102{fill:#FFE19B;}
	.st103{fill:#FFE19A;}
	.st104{fill:#FFE099;}
	.st105{fill:#FFE098;}
	.st106{fill:#FFE097;}
	.st107{fill:#FFE096;}
	.st108{fill:#FFDF95;}
	.st109{fill:#FFDF94;}
	.st110{fill:#FFDF93;}
	.st111{fill:#FFDE92;}
	.st112{fill:#FFDE91;}
	.st113{fill:#FFDE90;}
	.st114{fill:#FFDD8F;}
	.st115{fill:#FFDD8E;}
	.st116{fill:#FFDD8D;}
	.st117{fill:#FFDD8C;}
	.st118{fill:#FFDC8B;}
	.st119{fill:#FFDC8A;}
	.st120{fill:#FFDC89;}
	.st121{fill:#FFDB88;}
	.st122{fill:#FFDB87;}
	.st123{fill:#FFDB86;}
	.st124{fill:#FFDA85;}
	.st125{fill:#FFDA84;}
	.st126{fill:#FFDA83;}
	.st127{fill:#FFDA82;}
	.st128{fill:#FFD981;}
	.st129{fill:#FFD980;}
	.st130{fill:url(#SVGID_2_);}
	.st131{fill:url(#SVGID_3_);}
	.st132{fill:url(#SVGID_4_);}
	.st133{fill:url(#SVGID_5_);}
	.st134{fill:#E5E8EC;}
	.st135{fill:#2C7EEA;}
	.st136{fill:#2366BD;}
	.st137{fill:#484F59;}
	.st138{fill:#F4DA80;}
	.st139{fill:#B91E2D;}
	.st140{fill:#E2C59C;}
	.st141{fill:#E9D6B8;}
	.st142{fill:#163F59;}
	.st143{fill:#194866;}
	.st144{fill:#FFAB01;}
	.st145{fill:#15100C;}
	.st146{fill:#CDD5D7;}
	.st147{fill:#B7BEC0;}
	.st148{fill:#F99B0F;}
	.st149{opacity:0.6;}
	.st150{fill:#EED2CE;}
	.st151{fill:#C49189;}
	.st152{fill:#FFEBE8;}
	.st153{fill:#E0B6AF;}
	.st154{fill:#FF8B5D;}
	.st155{fill:#EF8357;}
	.st156{fill:#D5E1F2;}
	.st157{fill:#3C463B;}
	.st158{fill:#2771D1;}
	.st159{fill:#161711;}
	.st160{fill:#323B31;}
	.st161{fill:#B6C2C9;}
	.st162{fill:#879BA6;}
	.st163{fill:#E4EEF3;}
	.st164{fill:#FF5931;}
	.st165{enable-background:new    ;}
	.st166{fill:#FFC910;}
	.st167{fill:#FFCA10;}
	.st168{fill:#282723;}
	.st169{fill:#B0BFDE;}
	.st170{fill:#D1DBEA;}
	.st171{fill:#19486D;}
	.st172{fill:#265880;}
	.st173{fill:#FBBC3E;}
	.st174{fill:#E59E0E;}
	.st175{fill:url(#SVGID_6_);}
	.st176{fill:url(#SVGID_7_);}
	.st177{fill:#081832;}
	.st178{fill:#EDEEF0;}
	.st179{fill:#BCD0E2;}
	.st180{fill:#4E99FF;}

		#t3  {
    animation-name: p;
    animation-duration: 0;
	
	
    animation-timing-function: linear;
    animation-iteration-count: infinite;
    transform-origin:center;
    
    transform-box: fill-box;
  }
  @keyframes p{
    0%{opacity:0; transform:rotateZ(0deg)}
	20%{opacity:1; transform:rotateZ(0deg)}
	100%{opacity:1; transform:rotateZ(-10deg)}
}
#t2  {
    animation-name: t2;
    animation-duration: 0;
	
	
    animation-timing-function: linear;
    animation-iteration-count: infinite;
    transform-origin:center;
    
    transform-box: fill-box;
  }
  @keyframes t2{
    0%{opacity:0; transform:rotateZ(-10deg)}
	50%{opacity:1;}
	100%{opacity:1; transform:rotateZ(0deg)}
}
#t1  {
    animation-name: t1;
    animation-duration: 0;
	
	
    animation-timing-function: linear;
    animation-iteration-count: infinite;
    transform-origin:center;
    
    transform-box: fill-box;
  }
  @keyframes t1{
    0%{opacity:0; }
	30%{opacity:1;}
	100%{opacity:1;}
}

 #BUTTON {
    animation-name: box1;
    animation-duration: 0;
    animation-timing-function: ease-in;
    animation-iteration-count: infinite;
    transform-origin:bottom;
    
    transform-box: fill-box;
  }
  @keyframes box1{
    0%{transform:scale(0) }
    13%{transform:scale(0)}
     15%{transform:scale(1.2)}
     
     16%{transform:scale(1)}
     100%{transform:scale(1) }
}
 #CELLPHONE {
    animation-name: box1;
    animation-duration: 0;
    animation-timing-function: ease-in;
    animation-iteration-count: infinite;
    transform-origin:bottom;
    
    transform-box: fill-box;
  }
  @keyframes box1{
    0%{transform:scale(0) }
    17%{transform:scale(0)}
     19%{transform:scale(1.2)}
     
     21%{transform:scale(1)}
     100%{transform:scale(1) }
	 22%{transform:scale(1)}
	 50%{transform:translateY(10px)}
	 70%{transform:translateY(-10px)}
}
 #MEN_LAPTOP {
    animation-name: m1;
    animation-duration: 0;
    animation-timing-function: ease-in;
    animation-iteration-count: infinite;
    transform-origin:bottom;
    
    transform-box: fill-box;
  }
  @keyframes m1{
    0%{transform:scale(0) }
    20%{transform:scale(0)}
     21%{transform:scale(1.2)}
     
     22%{transform:scale(1)}
	 50%{transform:translateY(10px)}
	 70%{transform:translateY(-10px)}
     
}

#m2{
    animation-name: m2;
    animation-duration: 0;
    animation-iteration-count: infinite;
    transform-origin: bottom;
    transform-box: fill-box;
}
@keyframes m2 {
    0% { opacity: 0; transform: translate(-25px, 25px); }
    22% { opacity: 0; transform: translate(-25px, 0px); }
    24% { opacity: 1; transform: translate(0px, 0px); }
}
#w2{
    animation-name: w2;
    animation-duration: 0;
    animation-iteration-count: infinite;
    transform-origin: bottom;
    transform-box: fill-box;
}
@keyframes w2 {
    0% { opacity: 0; transform: translate(-25px, 25px); }
    25% { opacity: 0; transform: translate(-25px, 0px); }
    28% { opacity: 1; transform: translate(0px, 0px); }
	22%{transform:scale(1)}
	 50%{transform:translateY(-10px)}
	 70%{transform:translateY(10px)}
}
#w1{
    animation-name: w1;
    animation-duration: 0;
    animation-iteration-count: infinite;
    transform-origin: bottom;
    transform-box: fill-box;
}
@keyframes w1 {
    0% { opacity: 0; transform: translate(25px, 25px); }
    29% { opacity: 0; transform: translate(25px, 0px); }
    32% { opacity: 1; transform: translate(0px, 0px); }
}
#heart {
    animation-name: ht;
    animation-duration: 0;
    animation-timing-function: ease-in;
    animation-iteration-count: infinite;
    transform-origin:bottom;
    
    transform-box: fill-box;
  }
  @keyframes ht{
    0%{transform:scale(0) }
    31%{transform:scale(0)}
     33%{transform:scale(1.2)}
     
     34%{transform:scale(1)}
     100%{transform:scale(1) }
}
#like {
    animation-name: lt;
    animation-duration: 0;
    animation-timing-function: ease-in;
    animation-iteration-count: infinite;
    transform-origin:bottom;
    
    transform-box: fill-box;
  }
  @keyframes lt{
    0%{transform:scale(0) }
    31%{transform:scale(0)}
     33%{transform:scale(1.2)}
     
     34%{transform:scale(1)}
     100%{transform:scale(1) }
}
#box1 {
    animation-name: bt;
    animation-duration: 0;
    animation-timing-function: ease-in;
    animation-iteration-count: infinite;
    transform-origin:bottom;
    
    transform-box: fill-box;
  }
  @keyframes bt{
    0%{transform:scale(0) }
    35%{transform:scale(0)}
     36%{transform:scale(1.2)}
     
     38%{transform:scale(1)}
     100%{transform:scale(1) }
}
#box2 {
    animation-name: b2;
    animation-duration: 0;
    animation-timing-function: ease-in;
    animation-iteration-count: infinite;
    transform-origin:bottom;
    
    transform-box: fill-box;
  }
  @keyframes b2{
    0%{transform:scale(0) }
    38%{transform:scale(0)}
     39%{transform:scale(1.2)}
     
     40%{transform:scale(1)}
     100%{transform:scale(1) }
}
#w1l {
    animation-name: pa;
    animation-duration: 2s;
	animation-direction: alternate;
	
    animation-timing-function: linear;
    animation-iteration-count: infinite;
    transform-origin:95% 0%;
    
    transform-box: fill-box;
  }
  @keyframes pa{
    0%{transform:rotateZ(3deg);}
	100%{transform:rotateZ(-3deg);}
	
}
#w2a {
    animation-name: w2a;
    animation-duration: 1.5s;
	animation-direction: alternate;
	
    animation-timing-function: linear;
    animation-iteration-count: infinite;
    transform-origin:5% 90%;
    
    transform-box: fill-box;
  }
  @keyframes w2a{
    0%{transform:rotateZ(4deg);}
	100%{transform:rotateZ(-4deg);}
}
#m2l1 {
    animation-name: m2a;
    animation-duration: 1.5s;
	animation-direction: alternate;
	
    animation-timing-function: linear;
    animation-iteration-count: infinite;
    transform-origin:95% 0%;
    
    transform-box: fill-box;
  }
  @keyframes m2a{
    0%{transform:rotateZ(0deg);}
	100%{transform:rotateZ(-25deg);}
}
#m2l2 {
    animation-name: m2b;
    animation-duration: 1.5s;
	animation-direction: alternate;
	
    animation-timing-function: linear;
    animation-iteration-count: infinite;
    transform-origin:5% 10%;
    
    transform-box: fill-box;
  }
  @keyframes m2b{
    0%{transform:rotateZ(0deg);}
	100%{transform:rotateZ(25deg);}
}
#m1h {
    animation-name: m1h;
    animation-duration: 3s;
	animation-direction: alternate;
	
    animation-timing-function: linear;
    animation-iteration-count: infinite;
    transform-origin:5% 10%;
    
    transform-box: fill-box;
  }
  @keyframes m1h{
    0%{transform:translateY(0px);}
	20%{transform:translateY(0px);}
	 30%{transform:translateY(2px);}
	50%{transform:translateY(0px);}
	
	60%{transform:translatey(0px);}
	100%{transform:translatey(2px);}
}
#m2h {
    animation-name: m2h;
    animation-duration: 1.5s;
	animation-direction: alternate;
	
    animation-timing-function: linear;
    animation-iteration-count: infinite;
    transform-origin:5% 90%;
    
    transform-box: fill-box;
  }
  @keyframes m2h{
    0%{transform:rotateZ(4deg);}
	100%{transform:rotateZ(-4deg);}
}</style>
 <g>
  <title>Layer 1</title>
  <g stroke="null" id="w2">
   <g stroke="null" id="svg_137">
    <g stroke="null" id="svg_138">
     <path stroke="null" class="st134" d="m342.40516,347.20339c0,8.06934 -6.58289,14.65223 -14.65223,14.65223l-255.88317,0c-8.06934,0 -14.65223,-6.58289 -14.65223,-14.65223l0,-149.07053c0,-8.06934 6.58289,-14.65223 14.65223,-14.65223l256.09553,0c8.06934,0 14.65223,6.58289 14.65223,14.65223l0,149.07053l-0.21235,0z" id="svg_139"/>
     <path stroke="null" class="st135" d="m342.40516,345.50458c0,8.06934 -6.58289,14.65223 -14.65223,14.65223l-255.88317,0c-8.06934,0 -14.65223,-6.58289 -14.65223,-14.65223l0,-149.07053c0,-8.06934 6.58289,-14.65223 14.65223,-14.65223l256.09553,0c8.06934,0 14.65223,6.58289 14.65223,14.65223l0,149.07053l-0.21235,0z" id="svg_140"/>
     <g stroke="null" id="svg_141">
      <path stroke="null" class="st136" d="m175.28478,223.40265c0.63705,0 0.4247,-0.8494 1.06176,-0.63705c1.06176,0.4247 1.69881,1.27411 3.18527,1.27411c1.06176,-0.63705 -1.48646,-1.27411 -0.63705,-1.91116c0.4247,0.21235 0.63705,0.4247 1.06176,0.63705c0.21235,-1.06176 -0.21235,-1.27411 -0.63705,-1.91116c2.33586,-0.21235 1.48646,-3.18527 1.27411,-4.88408c0.63705,-0.21235 1.48646,-0.4247 2.54821,-0.21235c0,-1.27411 -1.48646,-1.27411 -2.33586,-1.91116c0.8494,0.21235 0.63705,-0.8494 1.69881,-0.63705c0.21235,-0.8494 -0.4247,-0.8494 -0.21235,-1.91116c1.06176,0.21235 0.63705,-1.06176 1.69881,-0.8494c0.63705,-0.21235 2.54821,0.63705 2.33586,-0.63705c0.21235,-1.06176 -1.27411,-0.21235 -1.48646,-0.8494c-0.63705,0 -0.63705,-1.06176 -1.48646,-0.8494c-1.27411,-0.21235 -2.54821,1.06176 -3.18527,0.63705c0.21235,-1.48646 2.54821,-0.8494 2.97292,-2.12351c-0.63705,-0.8494 -1.91116,-1.06176 -3.39762,-0.8494c-0.8494,-0.4247 -2.12351,-0.8494 -2.54821,0c-0.21235,-0.4247 -0.8494,-0.4247 -1.48646,-0.63705c-1.06176,0.8494 -4.03467,-0.21235 -5.09643,0.63705c-1.27411,0 -2.97292,-0.21235 -3.39762,0.63705c0,0.63705 0.8494,1.91116 0.21235,2.12351c-2.12351,-0.4247 -3.18527,0.21235 -5.09643,-0.21235c-2.97292,0.4247 -4.24702,2.33586 -7.21994,2.76057c-0.21235,1.06176 1.27411,0.21235 1.06176,1.27411c-0.8494,0.63705 -2.33586,0.63705 -3.18527,1.48646c-0.63705,-0.4247 -1.69881,-0.4247 -2.12351,0.8494c0.8494,-0.21235 0.8494,0.4247 1.48646,0.63705c0,-0.8494 1.48646,-0.8494 1.48646,0c0.63705,-0.21235 1.91116,-1.27411 2.12351,0.4247c-1.27411,0.21235 -2.97292,-0.21235 -3.82232,0.21235c0.21235,1.06176 1.27411,1.48646 2.33586,1.91116c0.8494,0.21235 0.63705,-0.8494 1.48646,-0.63705c0.8494,0.63705 1.69881,1.27411 3.39762,0.8494c-0.21235,1.27411 0.21235,2.12351 0.63705,2.76057c0,0.63705 -0.4247,1.06176 -0.21235,2.12351c1.06176,0.63705 1.27411,-1.48646 2.12351,-0.21235c0.21235,1.06176 -0.8494,0.8494 -1.69881,0.8494c0.21235,1.27411 2.12351,0.8494 2.54821,2.12351c-0.63705,0.4247 -1.48646,0.8494 -1.91116,1.48646c0.8494,0.4247 -0.8494,0.63705 -0.63705,1.48646c2.12351,1.48646 0.4247,4.88408 1.91116,7.00759c0.63705,0 1.27411,0 2.12351,0s0.4247,1.27411 1.48646,1.27411c0.21235,-0.63705 0.4247,-1.27411 1.06176,-1.48646c-0.4247,-2.33586 1.48646,-2.33586 1.06176,-4.67173c0.63705,0 0.4247,-1.27411 1.06176,-1.27411c1.06176,0.63705 1.06176,-0.63705 2.33586,0c0.4247,-0.4247 0.8494,-0.8494 1.48646,-1.27411c1.48646,-0.4247 1.91116,-1.48646 3.39762,-1.91116c0.21235,-1.06176 2.54821,-1.27411 1.69881,-2.54821c-0.4247,0.8494 -1.69881,-0.4247 -2.54821,-0.4247zm2.97292,-1.27411c-0.8494,-0.63705 0,-2.12351 0.8494,-1.91116c-0.21235,0.8494 -0.8494,1.06176 -0.8494,1.91116zm1.91116,-14.65223c0,0.8494 -0.63705,1.06176 -1.06176,1.48646c-0.8494,-0.63705 -2.12351,-0.63705 -3.82232,-0.63705c1.06176,-1.27411 3.82232,-0.63705 4.88408,-0.8494z" id="svg_142"/>
      <path stroke="null" class="st136" d="m139.39743,212.14804c0,0.63705 0,1.27411 0,1.91116c0.8494,-0.21235 1.06176,0.4247 1.69881,0.21235c0.21235,-1.48646 1.91116,-2.76057 2.97292,-2.12351c0.4247,1.27411 -1.48646,0 -1.48646,0.8494c0.8494,0.4247 -1.06176,0.63705 -0.8494,1.27411c0.8494,-0.21235 1.06176,0.21235 0.8494,0.8494c-0.63705,0 -0.8494,-0.4247 -1.69881,-0.21235c0,0.8494 -1.06176,0.63705 -0.63705,1.91116c1.69881,-0.21235 2.97292,-0.4247 3.82232,0.8494c-2.33586,0.4247 -3.82232,-1.27411 -5.30878,-0.63705c-0.21235,1.48646 1.69881,0.63705 1.69881,1.91116c2.12351,-0.4247 5.09643,1.27411 5.73348,-0.8494c0.8494,0 1.27411,-0.21235 1.06176,-0.8494c0.21235,-0.8494 -1.27411,0.21235 -1.06176,-0.63705c0.63705,0 1.27411,0 1.91116,0c0,-1.69881 1.69881,-1.48646 1.48646,-3.39762c1.48646,0 1.69881,-1.48646 3.60997,-1.27411c0.4247,-0.63705 0.8494,-1.27411 1.91116,-1.27411c0.4247,-0.8494 -0.63705,-1.48646 0,-1.48646c1.27411,-0.63705 2.97292,0.21235 3.39762,-1.48646c0,-0.4247 -0.8494,-0.21235 -0.8494,-0.63705c-4.67173,0.63705 -11.25461,-0.8494 -16.13869,1.27411c-0.4247,1.91116 1.27411,1.48646 1.48646,2.76057c-1.91116,0.21235 -1.27411,-2.33586 -3.39762,-1.91116c0,0.4247 -0.4247,0.63705 -0.21235,1.27411c-0.4247,0 -1.06176,0 -0.8494,0.63705c-0.21235,0.8494 0.8494,0.4247 0.8494,1.06176zm6.15818,5.52113c0.21235,0.21235 -0.21235,0.4247 -0.21235,0.21235c-0.21235,-0.21235 0,-0.4247 0.21235,-0.21235z" id="svg_143"/>
      <path stroke="null" class="st136" d="m210.53508,211.51098c0.21235,-0.8494 1.48646,-0.4247 1.06176,-1.91116c-2.54821,-0.4247 -5.09643,-0.63705 -7.43229,-0.63705c0,0.63705 0,0.8494 0.21235,1.27411c1.91116,0.63705 3.39762,1.69881 6.15818,1.27411z" id="svg_144"/>
      <path stroke="null" class="st136" d="m199.28047,212.99744c0,0.8494 -0.63705,0.8494 0,1.48646c1.27411,0 1.27411,-1.27411 2.54821,-1.27411c0,1.27411 -1.48646,1.27411 -1.48646,2.76057c0.4247,0.4247 1.06176,0.8494 2.12351,0.63705c-0.21235,1.06176 0.63705,1.06176 1.48646,0.8494c0.21235,-1.06176 0.4247,-2.33586 0.8494,-3.39762c0.8494,0.8494 1.27411,1.91116 3.18527,1.48646c0.21235,-2.33586 -1.48646,-2.54821 -2.33586,-3.60997c0,0.63705 -0.8494,-0.4247 -1.27411,-0.4247c-0.63705,0 -1.27411,-0.21235 -1.48646,-0.63705c0.63705,-0.8494 -0.21235,-1.69881 -1.48646,-1.48646c-0.8494,0.4247 0.4247,1.48646 -0.21235,1.91116c-0.63705,-1.48646 -3.39762,-2.97292 -3.39762,0c0.21235,1.06176 1.27411,0.8494 1.48646,1.69881z" id="svg_145"/>
      <path stroke="null" class="st136" d="m228.58493,210.87393c0,-1.91116 -2.76057,-1.27411 -2.54821,0.21235c0.8494,1.06176 1.48646,-0.4247 2.54821,-0.21235z" id="svg_146"/>
      <path stroke="null" class="st136" d="m244.72362,212.78509c2.33586,-0.4247 4.67173,1.06176 5.09643,-0.8494c-0.63705,-1.27411 -3.39762,-1.69881 -4.88408,-0.8494c-0.4247,-0.21235 0,1.06176 -0.21235,1.69881z" id="svg_147"/>
      <path stroke="null" class="st136" d="m303.33254,231.04729c0.63705,0 0.63705,-1.06176 1.48646,-0.8494c1.48646,0 1.27411,1.91116 3.18527,1.48646c0.4247,-0.63705 -0.21235,-1.48646 0.21235,-2.33586c-0.8494,-0.4247 -1.91116,-1.91116 -2.54821,-0.63705c0,-0.63705 0,-1.06176 -0.21235,-1.48646c-1.48646,-0.63705 -2.33586,-1.91116 -4.88408,-1.48646c-0.4247,-0.63705 -1.06176,-0.63705 -1.48646,-1.27411c-1.91116,0.21235 -2.33586,-1.06176 -4.24702,-0.63705c-0.4247,0.8494 0.8494,1.48646 0,1.91116c-0.8494,-0.21235 -0.63705,-1.27411 -1.48646,-1.48646c-0.8494,1.06176 -2.33586,0 -4.03467,0.63705c-1.06176,-0.63705 -1.06176,-2.54821 -3.18527,-2.12351c-0.4247,0 0,0.8494 -0.63705,0.8494c-1.27411,-0.63705 -2.33586,-1.06176 -3.39762,-1.91116c-0.21235,0.21235 -0.21235,0.4247 -0.63705,0.63705c0.4247,-1.27411 -0.63705,-0.8494 -1.48646,-0.8494c0.63705,-0.63705 -0.21235,-0.63705 -0.63705,-1.27411c-1.48646,0.63705 -1.27411,-0.21235 -2.54821,-0.21235c0,0.4247 -0.63705,0.21235 -1.06176,0.21235c-0.21235,0.63705 0.8494,1.06176 0,1.27411c-2.54821,-0.4247 -5.73348,0.63705 -7.85699,0c-0.8494,-0.21235 -1.06176,-1.06176 -1.69881,-0.8494c-1.27411,0.21235 -2.33586,-0.4247 -3.18527,-0.63705c-0.4247,-0.21235 -0.8494,0 -1.06176,0c-0.63705,-0.21235 -1.27411,-1.06176 -2.97292,-0.63705c0.21235,-0.8494 0.8494,-0.8494 0.8494,-1.91116c-0.4247,-0.8494 -1.27411,-1.27411 -1.69881,-2.12351c-0.8494,0.4247 -2.12351,0.4247 -3.39762,0.4247c-0.63705,-0.21235 -0.63705,-1.48646 -1.69881,-1.27411c-0.63705,0.21235 -0.8494,1.06176 -0.8494,2.12351c-1.48646,-0.4247 -0.8494,1.06176 -2.12351,0.8494c-0.63705,-0.21235 -0.21235,-1.27411 -1.06176,-0.8494c-0.63705,0.8494 -1.69881,1.27411 -3.39762,1.27411c-0.63705,0.4247 -0.8494,1.06176 -1.69881,0.8494c-0.4247,0.4247 -0.21235,1.48646 -0.8494,1.48646c-0.63705,0.21235 -1.91116,-0.4247 -1.69881,0.63705c0,1.06176 1.69881,0.4247 1.48646,1.91116c-1.06176,-0.4247 -1.27411,-1.48646 -2.97292,-1.27411c0,0.8494 0.21235,1.91116 -0.63705,1.91116c-0.4247,-0.4247 -0.4247,-1.06176 -0.21235,-1.91116c-1.06176,-0.21235 -0.4247,1.27411 -1.69881,0.8494c-0.4247,-0.63705 -0.4247,-1.69881 -1.69881,-1.27411c-0.8494,1.27411 -1.91116,2.33586 -2.97292,3.39762c-1.91116,0.21235 -1.69881,-0.63705 -3.82232,-0.63705c-0.4247,1.48646 1.48646,0.4247 1.06176,1.91116c-1.27411,-0.21235 -2.54821,0.21235 -4.24702,0c-1.27411,0.63705 -1.91116,1.69881 -3.39762,2.12351c0,-0.63705 0,-1.27411 0,-1.91116c-0.63705,0 -1.48646,0 -1.69881,-0.21235c0,1.69881 0,3.18527 -1.69881,2.97292c0,1.06176 -1.06176,0.8494 -1.69881,1.27411s0.4247,0.8494 -0.21235,1.27411c-1.69881,0.4247 -1.69881,-2.12351 -1.69881,-2.76057c1.27411,0 2.76057,-0.21235 3.82232,0.21235c0.8494,-1.91116 -1.69881,-2.97292 -3.39762,-2.97292c-0.4247,-0.8494 -1.27411,-1.06176 -2.33586,-1.27411c-0.4247,-0.63705 -0.8494,-1.27411 -1.48646,-1.91116c-0.8494,0 -1.69881,0 -2.54821,0c-0.8494,0.63705 -1.48646,1.27411 -2.33586,1.91116c-0.21235,-0.4247 -0.4247,0.21235 -0.8494,0c-1.06176,1.06176 -2.33586,2.12351 -3.39762,2.97292c-0.4247,1.48646 -0.8494,2.54821 -1.69881,3.39762c0,-0.4247 -0.4247,-0.21235 -0.8494,-0.21235c0,0.4247 0,0.8494 0,1.27411c-1.91116,0.21235 -2.12351,1.91116 -2.54821,3.39762c0.63705,0.63705 0.63705,1.91116 0.63705,3.39762c0.21235,0.8494 1.91116,0.4247 2.33586,0.8494c-0.63705,0.8494 -1.27411,1.27411 -1.27411,2.12351c0.63705,-0.21235 0.63705,0.4247 0.63705,0.8494c-1.06176,0 -1.69881,0.4247 -2.54821,0.63705c-0.21235,0.63705 -0.8494,0.8494 -0.63705,1.91116c-1.69881,-0.4247 -0.63705,1.69881 -2.12351,1.48646c0,0.4247 0,0.63705 -0.21235,0.63705c-1.27411,-0.21235 -1.48646,0.8494 -2.33586,1.27411c-0.63705,0.21235 -1.48646,0.21235 -1.48646,1.27411c0.4247,0.4247 1.27411,0.21235 1.91116,0.21235c-0.21235,1.27411 1.27411,1.06176 1.06176,2.54821c-0.21235,0.4247 -0.21235,1.06176 -0.8494,1.27411c-1.27411,-0.63705 -2.54821,0.21235 -4.24702,0c-0.21235,1.06176 0.63705,3.39762 -0.63705,3.39762c0.21235,0.8494 0.8494,1.27411 0.63705,2.76057c1.27411,-0.21235 1.69881,0.4247 2.54821,0.63705c1.06176,-0.63705 1.27411,-0.63705 2.33586,0c0.63705,-1.27411 1.69881,-2.12351 1.48646,-4.24702c1.27411,-0.4247 1.06176,-2.33586 2.54821,-2.54821c1.27411,0.8494 1.69881,-0.21235 2.97292,-0.21235c-0.8494,1.27411 -0.4247,3.18527 0,4.67173c1.91116,-0.21235 0.63705,-1.69881 0.8494,-3.39762c-0.21235,0 -0.4247,-0.63705 0,-0.63705c0,0.21235 0,0.4247 0,0.63705c0.63705,0 0.63705,0.8494 0.8494,1.27411c1.48646,0 2.33586,0.63705 2.54821,1.91116c0,0.63705 -0.63705,0.63705 -1.48646,0.63705c0,1.06176 1.06176,1.06176 1.48646,1.48646c-0.21235,-1.27411 0.8494,-1.69881 1.48646,-2.12351c0.21235,-0.63705 -0.63705,-0.4247 -0.63705,-0.8494c0.4247,-1.06176 1.06176,1.06176 1.48646,0c-0.8494,-1.69881 -4.45937,-1.91116 -3.39762,-4.24702c0.8494,1.48646 2.54821,2.12351 3.39762,3.39762c0.21235,0.21235 0.4247,0.8494 0.63705,1.27411s0.63705,0.63705 0.63705,1.27411c0,0.63705 0,1.27411 0,1.91116c0.4247,0.4247 1.27411,0.21235 2.12351,0.21235c0.4247,-1.06176 -0.4247,-2.54821 0.21235,-3.60997c0.21235,0 0.63705,0 0.8494,0c-0.4247,1.27411 0,1.06176 -0.21235,2.33586c0.63705,0 0.4247,0.8494 0.8494,1.27411c1.06176,0.8494 2.97292,0.4247 3.82232,0c0.8494,0.4247 -0.8494,1.48646 0.63705,1.48646c1.27411,0.21235 0,-1.91116 1.48646,-1.48646c0,0.63705 0,1.27411 0,1.91116c-0.8494,0.4247 -0.21235,2.54821 -1.48646,2.76057c-2.12351,-0.8494 -4.67173,-1.06176 -7.43229,-1.27411c-0.8494,0.21235 -0.63705,1.48646 -1.48646,1.91116c-1.27411,-1.48646 -4.03467,-1.48646 -5.09643,-2.97292c0.21235,-1.06176 -0.4247,-1.27411 -0.63705,-1.91116c0.63705,0 0.63705,-0.8494 0.21235,-1.27411c-1.69881,0 -3.18527,0.4247 -4.24702,0.8494c-2.33586,-0.21235 -4.45937,0 -5.52113,1.27411c-0.21235,-0.63705 -0.8494,-0.8494 -1.69881,-0.8494c-0.21235,1.06176 -1.27411,1.27411 -2.12351,1.91116c-0.8494,1.48646 -0.4247,3.39762 -1.06176,4.67173c-0.4247,0.8494 -1.91116,1.69881 -2.54821,2.54821c0,1.69881 -0.63705,2.97292 -1.48646,4.03467c0,2.54821 0,5.30878 0,7.85699c1.06176,1.27411 1.91116,2.54821 2.33586,4.24702c1.27411,0.8494 2.12351,2.12351 4.03467,2.54821c1.06176,-0.21235 2.54821,-0.4247 4.03467,-0.21235c0.63705,-0.4247 0.63705,-1.69881 1.69881,-1.48646c0.4247,0 0.21235,1.06176 0.63705,1.27411c1.27411,-0.21235 1.91116,0.4247 2.97292,0.63705c0.4247,-0.21235 0.8494,-0.8494 1.69881,-0.63705c0.21235,2.33586 -0.63705,3.39762 -0.63705,5.52113c0.8494,1.48646 2.33586,2.76057 1.69881,4.88408c0.8494,1.06176 0.8494,2.76057 1.06176,4.24702c-0.63705,1.48646 -0.63705,3.60997 -1.06176,5.30878c1.27411,1.27411 2.12351,2.76057 2.54821,4.88408c0,0.8494 0,1.91116 0,2.76057c1.27411,1.48646 1.27411,4.45937 2.54821,6.15818c2.76057,-0.21235 4.24702,-1.91116 6.58289,-2.54821c0.4247,-1.69881 1.27411,-2.97292 2.54821,-3.60997c-0.21235,-1.27411 0.63705,-1.48646 0.21235,-2.76057c0.4247,-0.21235 0.8494,-0.8494 1.69881,-0.63705c0,-3.60997 1.27411,-5.73348 3.39762,-7.00759c0.4247,-2.54821 0.4247,-6.15818 0,-8.49405c0.63705,-1.27411 1.06176,-2.54821 1.48646,-4.03467c0.63705,-0.4247 1.27411,-1.06176 2.12351,-1.48646c1.48646,-2.12351 2.54821,-4.45937 4.03467,-6.37054c0.21235,-1.06176 0.63705,-2.76057 -0.4247,-3.39762c-1.27411,-0.21235 -1.06176,1.06176 -2.33586,0.8494c-0.8494,0 -1.69881,0 -2.54821,0c-0.21235,-2.12351 -1.48646,-2.76057 -2.54821,-4.03467c0.21235,-2.12351 -1.69881,-1.69881 -1.06176,-4.03467c-0.4247,-0.63705 -1.48646,-1.06176 -1.69881,-1.91116c0.21235,-0.8494 -0.4247,-2.33586 0,-2.33586c0.63705,0.4247 1.48646,2.12351 1.06176,2.76057c1.27411,1.27411 1.91116,2.97292 3.18527,4.24702c0.63705,1.27411 0.63705,3.18527 2.12351,4.24702c2.12351,-0.63705 3.39762,-2.12351 5.73348,-2.54821c0.4247,-0.21235 0,-1.27411 0.63705,-1.27411c1.27411,-0.21235 1.69881,-1.27411 2.97292,-1.48646c-0.21235,-1.27411 0.8494,-1.27411 0.8494,-2.33586c-0.4247,-1.06176 -1.91116,-1.27411 -1.69881,-2.97292c-1.06176,-0.21235 -1.91116,0 -2.33586,0.63705c-0.21235,-1.06176 -1.27411,-1.48646 -1.27411,-2.97292c-0.8494,0 -0.8494,-0.8494 -1.48646,-1.27411c0.4247,-0.21235 0.63705,-0.4247 1.06176,-0.63705c1.48646,1.06176 1.06176,4.24702 4.03467,4.03467c0,0.63705 0.8494,0.63705 0.63705,1.48646c1.48646,0.21235 1.69881,-0.8494 2.97292,-0.8494c0.21235,0.21235 0.21235,0.63705 0.8494,0.63705c1.91116,-0.21235 2.54821,1.06176 3.82232,1.48646c-0.4247,-0.21235 -0.63705,0.21235 -0.63705,0.63705c0.21235,0.63705 1.27411,0.4247 1.69881,0.8494c-0.21235,1.06176 0.63705,1.06176 0.21235,2.12351c0.8494,1.06176 1.27411,2.54821 1.69881,4.03467c0.63705,0.63705 1.27411,1.27411 1.48646,2.12351c0,0.63705 0,1.27411 0,1.91116c0.4247,0.4247 1.27411,0.21235 1.91116,0.21235c0.4247,-1.91116 1.48646,-3.18527 1.06176,-5.73348c0.4247,0 0.8494,0 1.27411,0c0,-0.4247 0,-0.8494 0,-1.27411c1.06176,0.4247 0.63705,-0.8494 1.48646,-0.63705c0,-1.48646 1.06176,-1.48646 1.48646,-2.54821c0.63705,-0.63705 1.48646,-1.06176 2.54821,-1.27411c0.63705,0.8494 0.63705,2.33586 1.69881,2.76057c0,0.63705 -0.63705,0.63705 -0.21235,1.48646c0.4247,1.06176 2.33586,0.21235 2.97292,0.8494c-0.4247,0.63705 0.21235,0.8494 -0.21235,1.91116c0.8494,0.21235 1.27411,0.8494 1.48646,1.91116c-0.21235,0.63705 -0.8494,0.63705 -0.63705,1.48646c0,0.8494 0.8494,1.06176 0.63705,2.54821c1.48646,1.27411 2.76057,2.54821 4.24702,3.60997c0,-2.12351 -1.27411,-2.33586 -1.48646,-4.24702c-0.8494,-0.63705 -1.48646,-1.27411 -2.12351,-2.12351c0.21235,-1.06176 -0.4247,-2.54821 0.63705,-2.76057c0.63705,0.8494 1.06176,1.91116 2.33586,2.12351c0.21235,0.21235 0.21235,0.63705 0.21235,1.27411c2.76057,-0.4247 3.39762,-2.97292 3.18527,-6.79524c-0.4247,-0.21235 -1.06176,-0.21235 -1.48646,-0.63705c0.4247,-1.27411 -1.48646,-1.27411 -0.63705,-2.12351s0.8494,1.06176 2.12351,0.63705c0.21235,-1.27411 1.69881,-1.27411 3.18527,-1.27411c0.8494,-1.48646 2.12351,-2.54821 2.54821,-4.67173c0.4247,0 0.4247,-0.21235 0.8494,-0.21235c0.4247,-1.27411 0,-3.60997 0.8494,-4.24702c-0.63705,-0.21235 -0.8494,-0.8494 -0.8494,-1.91116c-0.4247,-0.4247 -1.06176,-0.63705 -1.06176,-1.48646c-0.21235,-0.63705 0.4247,-0.63705 0.21235,-1.48646c0.63705,0 0.8494,0 0.8494,-0.63705c0.8494,-0.4247 -1.27411,-1.91116 0.63705,-1.91116c0.4247,1.06176 1.27411,1.27411 1.69881,2.12351c-0.21235,1.69881 0.63705,2.12351 1.48646,2.54821c1.69881,-1.27411 0,-4.67173 0.8494,-7.00759c0.63705,-0.63705 1.48646,-0.8494 2.33586,-1.27411c0.63705,-1.48646 1.27411,-2.97292 2.33586,-4.03467c0.4247,-2.54821 -0.63705,-5.09643 0,-6.79524c-0.4247,1.69881 0.63705,1.91116 0.8494,2.97292c0,1.91116 0.21235,3.82232 1.48646,4.24702c0.63705,-0.63705 -0.21235,-0.8494 0,-1.91116c0.8494,0 0.63705,0.4247 1.06176,0c0,-1.06176 -0.8494,-1.06176 -0.63705,-2.12351c-1.06176,-0.21235 -1.27411,-1.27411 -1.69881,-2.12351c-0.21235,-1.06176 0.21235,-2.54821 -0.8494,-2.76057c-0.63705,0 0,1.27411 -0.8494,1.27411c-0.4247,-2.33586 -2.54821,1.48646 -3.18527,-0.8494c0.21235,-0.63705 0.63705,-1.06176 1.06176,-1.48646c0.4247,-1.06176 0.21235,-2.33586 1.27411,-2.76057c0.63705,0.8494 0.4247,-0.4247 1.48646,-0.21235c1.27411,0.21235 2.54821,0.8494 4.24702,0.63705c0,0.4247 0.21235,0.63705 0.63705,0.63705c0.4247,-0.4247 1.27411,-0.21235 2.12351,-0.21235c0.21235,-1.06176 -0.4247,-1.06176 -0.21235,-2.12351c0.63705,0 0.63705,-0.8494 1.06176,-0.8494c0.63705,0.21235 0.63705,0.8494 1.06176,0.8494c-0.21235,-0.63705 0.8494,-1.69881 1.06176,-0.8494c-0.8494,1.91116 -2.33586,3.39762 -2.54821,6.15818c0.21235,0.8494 0.8494,1.27411 1.06176,1.91116c0.21235,1.27411 0.4247,2.33586 1.27411,2.76057c0.63705,-0.8494 1.06176,-1.91116 1.91116,-2.54821c-0.21235,-1.48646 0.8494,-1.27411 0.21235,-2.54821c0,-0.63705 0.8494,-0.63705 0.8494,-1.27411c-0.4247,-0.4247 -1.27411,-0.21235 -1.06176,-1.27411c0.21235,-2.76057 2.12351,-2.12351 4.24702,-1.91116c0.4247,-0.4247 0.4247,-1.48646 0.8494,-1.91116c1.69881,-0.21235 2.97292,-1.06176 4.03467,-0.8494c-0.63705,-2.76057 -1.91116,-2.54821 -1.91116,-3.82232zm-97.25684,3.39762c0.63705,0.63705 1.27411,1.06176 2.33586,1.27411c0,1.06176 0,2.12351 0,2.97292c-0.63705,-0.21235 0.21235,-1.69881 -1.06176,-1.27411c-0.63705,1.06176 -0.21235,3.18527 -1.06176,4.03467c-1.06176,0 -1.69881,-0.21235 -2.33586,0c-0.8494,0.21235 -1.06176,0.8494 -1.69881,0.8494c0,-0.4247 -0.8494,-1.06176 -0.8494,-0.21235c-0.63705,0 -0.63705,-0.8494 0,-0.8494c-0.63705,-0.63705 -1.06176,-1.69881 -1.27411,-2.97292c1.48646,0.21235 0.8494,4.24702 3.39762,2.97292c0.63705,-1.27411 1.06176,-2.76057 1.69881,-4.03467c0,-0.63705 -0.4247,-1.27411 -0.63705,-1.91116c0.21235,-2.97292 2.12351,-3.82232 3.18527,-5.73348c0.4247,0 0.4247,0 0.63705,0.21235c-0.4247,2.12351 -2.76057,1.91116 -2.33586,4.67173zm3.18527,2.12351c0,-0.8494 1.06176,-0.8494 1.69881,-0.8494c0,0.8494 -0.8494,0.8494 -1.69881,0.8494zm2.33586,-11.89167c-0.21235,-0.21235 0.21235,-0.4247 0.21235,-0.21235c0.21235,0 -0.21235,0.21235 -0.21235,0.21235zm5.09643,43.95669c-0.21235,-0.21235 0.21235,-0.4247 0.21235,-0.21235c0.21235,0.21235 -0.21235,0.4247 -0.21235,0.21235zm0.21235,-37.79851c-0.21235,-0.21235 0.21235,-0.4247 0.21235,-0.21235c0.21235,0 0,0.21235 -0.21235,0.21235zm21.44747,-4.88408c-0.63705,-0.21235 -1.27411,-0.21235 -1.27411,-0.8494c-0.8494,0 0.21235,-1.27411 0,0c0.4247,0.21235 1.48646,-0.21235 1.27411,0.8494zm18.04985,-5.52113c-0.21235,-0.21235 0.21235,-0.4247 0.21235,-0.4247c0.21235,0.21235 -0.21235,0.4247 -0.21235,0.4247zm0.8494,-0.4247c-0.21235,-0.21235 0.21235,-0.4247 0.21235,-0.21235c0.21235,0 -0.21235,0.4247 -0.21235,0.21235zm0.8494,-0.63705c-0.21235,-0.21235 0.21235,-0.4247 0.21235,-0.4247c0.21235,0.4247 -0.21235,0.63705 -0.21235,0.4247zm12.95342,38.64792c0.4247,-0.63705 0.63705,-1.27411 1.69881,-1.27411c0,0.4247 -0.21235,1.06176 0.21235,1.27411c-0.21235,0.8494 -1.06176,-0.21235 -1.91116,0z" id="svg_148"/>
      <path stroke="null" class="st136" d="m168.27719,294.11559c-0.4247,-0.63705 -0.8494,0.21235 -1.48646,0.21235c-0.4247,-1.06176 -1.48646,-1.48646 -2.54821,-1.91116c-0.63705,0 -1.27411,0 -2.12351,0c-0.4247,-0.8494 -2.54821,-0.21235 -2.54821,-1.48646c-0.8494,0 -1.69881,0.21235 -1.69881,-0.63705c0.8494,-1.48646 -0.8494,-5.30878 -3.39762,-4.03467c-0.8494,-0.63705 -1.48646,-1.48646 -1.69881,-2.76057c-1.48646,-0.4247 -2.54821,-1.27411 -4.03467,-1.91116c-0.4247,0.21235 -0.4247,0.4247 -0.8494,0.63705c-0.4247,-1.06176 -1.91116,-1.06176 -2.12351,-2.54821c-0.8494,-0.21235 -0.63705,0.8494 -1.06176,0.8494c-0.63705,-0.21235 -0.8494,-1.06176 -1.48646,-1.27411c-0.21235,0.63705 -0.4247,1.06176 -1.48646,0.8494c-0.4247,1.27411 -1.69881,1.69881 -2.33586,2.76057c0,-1.06176 -0.4247,-1.48646 -1.27411,-1.48646c-0.63705,0.4247 -1.06176,1.06176 -2.12351,1.27411c-0.63705,-1.48646 0.21235,-2.97292 0,-4.88408c-0.63705,-1.06176 -2.54821,-0.63705 -3.39762,-1.27411c0.21235,-1.27411 1.06176,-2.12351 0.8494,-4.03467c-1.48646,0.21235 -1.48646,0.21235 -2.97292,0c-0.63705,0.63705 -0.21235,2.12351 -1.06176,2.33586c-3.82232,0.21235 -1.48646,-5.30878 -2.33586,-7.64464c1.06176,-0.21235 1.69881,-0.8494 2.54821,-1.27411c1.69881,-0.21235 1.91116,1.06176 3.39762,0.8494c0,-0.4247 0,-0.8494 0.21235,-0.8494c1.48646,0 3.18527,-0.4247 3.39762,0.8494c-0.21235,1.69881 0.63705,2.54821 1.91116,2.76057c-0.4247,-1.48646 -0.21235,-2.12351 0,-3.18527c-0.21235,-0.4247 -0.8494,-0.8494 -0.8494,-1.48646c0.4247,-1.91116 1.69881,-3.18527 3.82232,-3.60997c0.21235,-0.8494 0.21235,-0.8494 0,-1.91116c0.63705,0 1.06176,0 1.48646,-0.21235c-0.63705,-1.69881 0.8494,-1.27411 0.63705,-3.39762c1.06176,-0.4247 1.91116,-0.8494 2.97292,-1.27411c0.21235,-1.06176 -0.8494,-0.63705 -0.63705,-1.91116c1.06176,-0.8494 2.54821,-1.27411 4.03467,-1.91116c0.21235,0.8494 -0.63705,0.63705 -0.63705,1.27411c1.06176,-0.4247 2.33586,-0.8494 3.18527,-1.91116c-0.63705,-0.4247 -2.12351,-0.21235 -2.12351,-1.48646c0.21235,-0.8494 1.06176,-0.8494 1.69881,-1.27411c0.21235,-0.8494 -0.63705,-0.63705 -0.21235,-1.48646c1.48646,1.06176 2.97292,-1.48646 4.03467,-0.8494c-0.63705,1.69881 -2.12351,2.54821 -2.54821,4.24702c1.06176,0.21235 1.27411,-0.4247 2.33586,-0.21235c0,0.4247 -0.21235,1.06176 0.21235,1.27411c0.21235,-0.8494 1.06176,0.4247 2.12351,0c-0.21235,-0.63705 -0.63705,-1.48646 0,-2.12351c-1.06176,0 -1.27411,-1.06176 -1.69881,-1.91116c0,-1.91116 0,-2.12351 0,-4.03467c-0.63705,-0.63705 -0.63705,0 -1.48646,0c0,-1.48646 -1.27411,-1.48646 -1.48646,-2.76057c0.21235,-0.21235 0.21235,-0.63705 0.21235,-1.27411c-1.06176,-0.63705 -0.63705,-2.97292 -2.33586,-2.97292c-0.21235,0.4247 0.4247,1.48646 -0.21235,1.48646c-0.63705,-0.21235 -1.91116,0.4247 -2.12351,-0.4247c0,-1.06176 0,-2.12351 0,-2.97292c-1.48646,0.63705 -1.27411,-0.63705 -2.54821,-0.8494c-0.8494,0.8494 -0.63705,-0.4247 -1.48646,-0.21235c-0.63705,-0.21235 -0.63705,0.63705 -1.48646,0.21235c0.4247,2.97292 -0.8494,4.67173 -0.21235,7.00759c-0.4247,0 -1.48646,-0.8494 -1.69881,0c0.21235,0.8494 1.06176,0.21235 1.06176,0.63705c-1.06176,0.63705 -1.06176,2.33586 -1.48646,3.60997c-0.63705,-1.06176 -0.8494,-2.54821 -1.06176,-3.60997c-0.63705,-0.63705 -0.63705,0.21235 -1.06176,0.21235c-0.21235,-0.8494 -0.4247,-0.4247 -1.27411,-0.21235c-0.8494,-0.8494 -1.91116,-1.69881 -3.18527,-2.12351c0.4247,-1.48646 -1.06176,-1.06176 -0.8494,-2.12351c0.63705,0.21235 0.63705,-0.4247 0.63705,-0.8494c0.8494,-0.4247 1.27411,-1.69881 2.33586,-2.12351c0.63705,-1.06176 1.06176,-2.33586 2.54821,-2.54821c0,-0.63705 -0.4247,-0.63705 -0.21235,-1.27411c1.91116,-0.4247 2.97292,-0.63705 4.24702,-1.27411c0,-1.27411 0,-2.33586 0.21235,-2.97292c-0.4247,-0.4247 -1.06176,-0.4247 -1.48646,-0.8494c1.06176,0 2.12351,0 2.54821,0.63705c0.63705,-0.8494 1.48646,0.4247 2.33586,0c-0.4247,1.48646 1.27411,0.8494 1.06176,2.12351c-0.21235,2.33586 -3.39762,1.48646 -3.82232,3.60997c0.4247,0.63705 1.69881,0.63705 2.97292,0.63705c1.69881,0.8494 2.54821,2.97292 4.88408,2.97292c-0.63705,-1.48646 0.4247,-1.48646 0.21235,-3.39762c-0.21235,-0.8494 -0.8494,-0.8494 -0.8494,-1.91116c1.06176,0 1.48646,1.06176 2.33586,1.27411c0,-0.8494 0,-1.48646 0.8494,-1.27411c-0.21235,-0.8494 0.21235,-1.06176 0.21235,-1.91116c-0.8494,0.21235 -0.63705,-0.63705 -0.8494,-0.8494c-1.06176,-0.21235 -1.69881,-0.63705 -2.54821,-0.8494c0,-0.63705 0.8494,-0.63705 0.8494,-1.27411c-0.4247,-0.63705 -1.27411,-0.8494 -1.27411,-2.12351c-0.8494,0 -1.69881,0 -2.54821,0c0.21235,-1.06176 -0.8494,-0.8494 -0.8494,-1.48646c-1.27411,-0.21235 -1.91116,0.21235 -2.97292,0.21235c0.21235,-1.91116 -2.33586,-1.27411 -2.54821,-0.21235c0,-1.06176 -0.21235,-1.69881 -1.06176,-1.91116c-1.48646,1.06176 -3.18527,4.03467 -1.48646,5.73348c0.4247,0.21235 1.48646,-0.4247 1.48646,0.21235c-0.21235,0.8494 -0.8494,1.48646 -1.48646,2.12351c-0.63705,-0.8494 0.63705,-0.63705 0.21235,-1.91116c-1.06176,-0.63705 -1.91116,-1.48646 -2.33586,-2.76057c-1.06176,0.21235 -0.8494,-1.06176 -2.33586,-0.63705c0,0.63705 -0.63705,0.63705 -0.21235,1.48646c1.06176,0.4247 0.63705,2.76057 0,3.39762c-0.4247,-0.21235 -0.63705,-0.8494 -0.63705,-1.48646c-1.48646,-0.21235 -1.48646,1.06176 -2.54821,1.27411c-1.06176,-0.4247 -2.33586,-0.8494 -2.97292,-1.91116c1.27411,-0.21235 1.69881,0.4247 2.97292,0.21235c0.63705,-0.63705 -0.21235,-0.8494 0,-1.91116c1.69881,-0.4247 2.33586,-1.69881 3.82232,-2.12351c-0.63705,-0.8494 -0.4247,-1.69881 -0.63705,-2.33586c-1.48646,0 -2.97292,0 -4.24702,0c-0.63705,0.8494 -2.12351,0.8494 -2.33586,2.12351c-0.21235,-0.4247 -0.4247,-0.8494 -0.63705,-1.27411c-0.8494,0 -1.69881,0.21235 -1.48646,-0.8494c2.12351,0.4247 4.67173,-1.06176 6.58289,-1.91116c0,1.48646 2.54821,1.06176 2.97292,0.21235c-0.21235,-0.63705 -0.21235,-1.48646 -0.63705,-2.12351c-1.69881,0.21235 -2.54821,1.48646 -4.24702,1.48646c0,-0.63705 0,-1.27411 0,-1.91116c-1.48646,-0.63705 -1.91116,1.48646 -0.8494,1.91116c-1.69881,0.21235 -2.54821,-0.4247 -4.03467,-0.21235c0.4247,1.48646 -1.27411,0.8494 -1.48646,1.91116c0.63705,0.4247 0.8494,-0.21235 1.06176,0.21235c-0.21235,0.4247 -0.63705,0.63705 -1.06176,0.63705c-0.4247,-1.69881 -2.76057,-1.48646 -4.88408,-1.48646c-0.21235,1.48646 -0.8494,2.33586 -1.69881,2.97292c0,1.06176 0.8494,1.06176 0.63705,2.12351c1.48646,0 2.12351,-0.63705 3.18527,-0.8494c-0.63705,1.69881 1.48646,0.4247 1.69881,1.27411c0.21235,0.8494 -1.27411,-0.21235 -1.27411,0.63705c0,1.69881 3.18527,0 2.54821,2.12351c1.06176,-0.63705 1.48646,-0.4247 2.54821,0l0.21235,0c0,-0.4247 0.8494,-1.06176 0.8494,-0.21235c0,0.4247 -0.4247,0.4247 -0.8494,0.21235c0,0.8494 1.27411,1.69881 0,2.12351c-0.4247,0 -0.21235,-0.63705 -0.21235,-0.8494c-2.54821,-0.21235 -3.82232,-1.91116 -7.00759,-1.48646c-0.8494,-0.21235 -0.8494,-1.48646 -1.91116,-1.48646c-0.21235,0.8494 -0.8494,1.06176 -1.69881,1.27411c0,-0.63705 0,-1.27411 -0.21235,-1.48646c-1.06176,0 -1.06176,1.27411 -2.33586,1.27411c-1.06176,0.21235 -1.48646,-0.4247 -2.33586,-0.21235c-0.4247,0 -0.21235,0.63705 -0.63705,0.63705c-0.21235,0 -0.21235,-0.4247 -0.21235,-0.63705c-0.63705,0 -1.06176,0.4247 -2.12351,0.21235c-2.33586,-1.48646 -6.79524,-0.8494 -9.34345,-2.12351c-2.12351,1.06176 -4.88408,1.27411 -6.37054,1.48646c-0.63705,1.27411 0.4247,1.27411 0.8494,2.12351c1.06176,-0.21235 1.91116,0.21235 2.12351,0.8494c-1.27411,-0.4247 -1.06176,0.63705 -1.48646,0.8494c-0.4247,-0.21235 -0.8494,-0.8494 -1.48646,-0.8494c-1.06176,1.27411 -3.82232,0.63705 -4.67173,2.12351c1.69881,0 2.12351,1.06176 2.33586,2.54821c1.48646,-0.63705 2.76057,0 4.03467,-0.4247c-1.48646,2.76057 -7.43229,0.4247 -7.00759,5.30878c1.06176,0.8494 1.27411,0.8494 0.8494,2.54821c0.4247,0 0.63705,-0.4247 1.06176,-0.21235c0,0.4247 -0.21235,1.27411 0.21235,1.27411c0.4247,-1.06176 0.21235,1.27411 0.8494,0.8494c0.4247,-1.27411 1.69881,-1.48646 2.54821,-0.63705c-1.27411,1.06176 -1.69881,2.97292 -3.18527,3.60997c-1.27411,0.4247 -1.69881,1.69881 -3.39762,1.91116c0.21235,1.06176 -0.4247,0.8494 -0.63705,1.48646c1.27411,0.21235 1.69881,-0.63705 3.18527,-0.21235c0.21235,-0.8494 1.27411,-1.06176 2.33586,-1.27411c1.06176,-2.12351 2.97292,-3.39762 4.67173,-4.88408c0.21235,0 0.4247,0 0.63705,0c0.21235,-0.21235 0,-1.06176 0.8494,-0.8494c0,-0.21235 0,-0.4247 0.21235,-0.21235c0,0.21235 0,0.4247 -0.21235,0.21235c0.21235,1.27411 -0.8494,1.69881 -1.06176,2.33586c2.33586,0.21235 2.97292,-1.27411 4.88408,-1.48646c0.21235,-1.27411 -0.21235,-2.33586 -0.21235,-3.39762c1.27411,0.21235 1.48646,-0.8494 2.54821,-0.63705c0.8494,0.63705 1.48646,1.27411 2.12351,2.12351c1.91116,0.63705 3.39762,1.48646 3.18527,4.24702c1.48646,-0.21235 0,-1.69881 1.27411,-1.91116c0,2.54821 0,5.30878 0.8494,7.00759c-0.8494,0.8494 -0.21235,1.06176 0,2.12351c0,0.63705 -0.8494,0.4247 -0.63705,1.27411c-0.21235,3.39762 -0.21235,5.52113 0,8.91875c0.8494,0.4247 1.27411,1.27411 2.12351,1.91116c0.8494,1.27411 0.63705,3.18527 1.69881,4.24702c-0.4247,0 -0.21235,0.63705 -0.21235,0.8494c1.27411,0.4247 1.48646,1.91116 2.12351,2.97292c0.8494,-0.21235 0.8494,0.63705 1.69881,0.21235c0,-1.27411 -0.63705,-1.06176 -0.63705,-2.76057c-0.21235,0 -0.21235,-0.21235 0,-0.21235l0,0.21235c0.63705,-0.21235 0.63705,0.4247 0.63705,0.8494c0.8494,0.63705 1.69881,1.48646 2.33586,2.54821c-0.21235,2.12351 0.63705,3.18527 1.06176,4.67173c2.33586,0.63705 3.82232,2.12351 6.58289,1.48646c0.4247,0.8494 0.63705,1.48646 1.06176,2.12351c1.06176,-0.21235 1.48646,0.4247 2.33586,0.21235c0.21235,0.63705 0.8494,1.06176 1.48646,1.48646c0,0.21235 0,0.63705 0,0.8494c1.69881,0.21235 1.91116,1.69881 3.39762,2.12351c0.21235,-0.4247 0.21235,-1.06176 0.8494,-1.27411c0.21235,1.06176 0.63705,1.91116 0.8494,2.76057c0,0.63705 -0.8494,0.4247 -0.63705,1.27411c0.21235,1.69881 -0.8494,1.91116 -1.06176,2.97292c-0.63705,2.12351 1.27411,3.18527 0,4.24702c0.4247,0.63705 1.48646,0.63705 2.12351,1.27411c-0.21235,0.4247 -0.8494,0.4247 -1.48646,0.63705c-0.21235,2.54821 1.06176,3.39762 2.54821,4.03467c0.21235,0.63705 -0.63705,0.63705 -0.21235,1.48646c1.06176,0.8494 1.48646,2.54821 3.18527,2.76057c0.63705,1.27411 1.48646,2.33586 1.48646,4.24702c-0.21235,0.4247 -0.21235,1.06176 -0.63705,1.48646c0.4247,0.21235 0.4247,0.63705 0.63705,1.27411c-0.8494,1.48646 0.4247,2.97292 0,4.88408c-1.48646,1.06176 -0.8494,4.45937 -1.48646,6.37054c0.4247,0.8494 1.27411,-0.4247 1.48646,0.21235c0.21235,1.48646 -1.06176,1.48646 -1.48646,2.12351c-0.4247,1.06176 0.8494,0.21235 0.63705,1.27411c-0.63705,0.63705 0.21235,1.48646 -0.21235,2.54821c0.21235,2.12351 1.27411,3.18527 0.63705,4.88408c0.8494,0.63705 0.63705,2.54821 1.69881,2.97292c0,0.63705 0.4247,0.63705 0.21235,1.27411c0.63705,0.21235 1.27411,0.63705 1.69881,0.8494c1.06176,-0.21235 2.97292,0.4247 3.18527,-0.63705c-0.8494,-0.21235 -1.27411,-0.63705 -1.69881,-1.27411c0.21235,-1.06176 -1.06176,-0.4247 -0.8494,-1.48646c0,-1.27411 0.8494,-1.48646 0.8494,-2.76057c0.8494,0 1.06176,-0.4247 1.27411,-1.27411c0.21235,-1.06176 -1.06176,-0.8494 -0.8494,-1.91116c0.8494,-0.8494 1.91116,-4.03467 0,-4.24702c1.91116,0.4247 1.91116,-1.06176 2.33586,-2.12351c1.48646,0.21235 2.12351,-0.8494 3.18527,-1.27411c0.21235,-1.48646 -0.4247,-1.91116 -0.63705,-2.97292c0.8494,0 1.48646,0 2.33586,0c0,-0.21235 0.4247,-0.21235 0.63705,-0.21235c0.21235,-0.8494 0.21235,-1.48646 1.27411,-1.48646c-0.21235,-1.69881 1.06176,-2.12351 1.69881,-2.97292c0,-0.63705 0,-1.48646 0,-2.12351c0.63705,-0.63705 0.8494,-1.27411 1.48646,-1.91116c1.27411,-0.4247 1.27411,-0.4247 2.54821,-0.8494c0.21235,-1.91116 1.48646,-3.60997 0.63705,-5.73348c0.4247,-0.21235 0.63705,-0.8494 0.63705,-1.48646c0.4247,0.21235 0.4247,-0.21235 0.8494,-0.21235c0,-1.06176 0.8494,-1.27411 1.06176,-2.12351c0.8494,-0.8494 0,-1.48646 0.8494,-1.91116c-0.21235,-0.8494 0.21235,-1.06176 0.21235,-1.91116c0.8494,0.21235 0.63705,-0.4247 0.21235,-1.27411zm-13.16577,-50.75193c0.21235,0.21235 -0.21235,0.4247 -0.21235,0.21235c-0.21235,-0.21235 0,-0.4247 0.21235,-0.21235zm-22.29687,-23.99568c0.8494,0.21235 -0.21235,0.8494 -0.21235,1.27411c-1.06176,-0.21235 0,-1.06176 0.21235,-1.27411zm-1.27411,1.48646c0.8494,-0.21235 1.06176,0.63705 2.12351,0.21235c0,1.27411 -1.06176,1.27411 -2.12351,1.48646c0,-0.4247 0,-1.06176 0,-1.69881zm-8.91875,0.63705c-0.21235,-0.21235 0.21235,-0.4247 0.21235,-0.4247c0.21235,0.4247 -0.21235,0.63705 -0.21235,0.4247zm-6.15818,44.16905c0,-0.4247 0.21235,-0.21235 0,0c0.4247,0.4247 0,0.21235 0,0zm0.4247,0.63705c0.63705,0 0.63705,0.8494 1.06176,1.27411c-0.21235,0.63705 -1.27411,-0.4247 -1.06176,-1.27411z" id="svg_149"/>
      <path stroke="null" class="st136" d="m227.52317,224.0397c-0.4247,-1.48646 -1.69881,-1.69881 -1.48646,-4.03467c2.12351,-0.21235 2.76057,-1.69881 4.45937,-2.54821c1.91116,0.21235 2.76057,-0.63705 2.97292,-2.12351c-0.4247,0 -1.06176,0 -1.48646,0c0,0.21235 0,0.63705 -0.21235,0.63705c-2.12351,0.21235 -3.82232,1.06176 -5.52113,1.91116c0.21235,1.48646 -1.48646,1.48646 -1.06176,2.97292c-0.4247,0.63705 -1.06176,0.8494 -1.06176,1.91116c0.8494,0.63705 1.91116,1.27411 2.97292,1.91116c-0.4247,-0.4247 -0.21235,-0.63705 0.4247,-0.63705z" id="svg_150"/>
      <path stroke="null" class="st136" d="m275.72689,218.51857c0.63705,-0.4247 1.06176,-1.27411 1.69881,-1.91116c-1.06176,-0.21235 -1.27411,-1.48646 -2.33586,-1.27411c-0.21235,0 -0.21235,0.63705 -0.63705,0.63705c-0.63705,0 -1.06176,0 -1.69881,0c-0.21235,2.33586 2.12351,1.48646 2.97292,2.54821z" id="svg_151"/>
      <path stroke="null" class="st136" d="m183.35413,232.3214c0,-0.8494 1.06176,-0.4247 1.48646,-0.8494c0.4247,-1.48646 -0.63705,-1.69881 -0.63705,-2.97292c-1.27411,0.4247 -1.69881,-0.21235 -2.97292,0.21235c-0.8494,-0.21235 -0.63705,-1.27411 -1.69881,-1.27411c0.4247,1.48646 -1.06176,1.06176 -1.06176,2.12351c0.8494,0.21235 0.8494,-0.4247 1.48646,-0.21235c-0.21235,0.63705 -1.06176,0.63705 -0.8494,1.91116c1.48646,-0.4247 1.06176,1.06176 2.12351,1.27411c0.21235,-0.8494 1.91116,-0.63705 2.12351,-0.21235z" id="svg_152"/>
      <path stroke="null" class="st136" d="m143.85681,232.3214c-1.06176,-0.4247 -0.4247,-0.8494 -1.06176,-1.48646c-0.8494,0.21235 -0.8494,-0.63705 -1.69881,-0.21235c-0.4247,0.63705 -0.21235,1.91116 -1.48646,1.48646c0,1.06176 0.8494,1.27411 2.12351,1.27411c-0.4247,-2.54821 1.69881,0.8494 2.12351,-1.06176z" id="svg_153"/>
      <path stroke="null" class="st136" d="m194.82109,243.36366c-0.4247,-0.21235 -0.8494,-0.4247 -1.27411,-0.8494c0.4247,-1.91116 -1.91116,-2.12351 -0.8494,-3.60997c-0.4247,-0.21235 -0.8494,-0.4247 -1.06176,-0.8494c0.4247,-0.21235 0.8494,-0.4247 0.8494,-1.27411c-1.06176,0 -1.69881,0.4247 -2.33586,0.63705c0.21235,1.69881 -0.4247,2.33586 -0.21235,4.03467c0.63705,0.4247 1.06176,0.4247 1.48646,0.63705c0.21235,1.06176 -1.06176,1.69881 -1.48646,1.27411c-0.21235,1.48646 0.21235,2.12351 0.63705,2.76057c-0.4247,0.21235 -1.48646,0 -1.48646,0.8494c1.48646,-0.21235 2.97292,-0.4247 4.67173,-0.21235c0,-1.69881 -0.21235,-2.54821 1.06176,-3.39762z" id="svg_154"/>
      <path stroke="null" class="st136" d="m186.9641,244.42542c0.63705,-0.4247 1.69881,-0.21235 2.33586,-0.63705c-0.4247,-1.27411 0,-1.27411 0,-2.76057c-0.4247,0 -1.06176,0 -1.48646,0c0,1.27411 -0.63705,0.4247 -1.06176,0.8494c-0.21235,1.06176 -0.21235,2.12351 0.21235,2.54821z" id="svg_155"/>
      <path stroke="null" class="st136" d="m286.1321,253.34417c0.63705,0 0.21235,1.06176 0.8494,0.8494c0.63705,-0.8494 0.63705,-2.33586 1.69881,-2.54821c-1.48646,-0.21235 -2.54821,-1.06176 -4.03467,-1.27411c0.21235,1.48646 -0.21235,2.12351 -0.21235,3.39762c0.8494,1.06176 0.63705,-0.63705 1.69881,-0.4247z" id="svg_156"/>
      <path stroke="null" class="st136" d="m279.54921,262.89997c0,1.06176 0.63705,1.27411 1.06176,1.91116c0.21235,-1.06176 0.8494,-1.69881 1.69881,-2.12351c0.4247,0 0.63705,0.21235 0.8494,0.21235c0.8494,-1.27411 2.76057,-1.27411 3.82232,-2.54821c0,-2.12351 -0.63705,-3.82232 -0.63705,-6.15818c-0.4247,0 -0.8494,0 -1.27411,0c0.4247,1.48646 -0.21235,2.12351 0.21235,3.60997c-0.21235,0 -0.4247,0.21235 -0.21235,0.63705c-1.06176,0.4247 -1.48646,0.8494 -2.54821,1.91116c-1.06176,0.63705 -2.76057,0.21235 -2.97292,1.91116c-0.21235,0.8494 1.48646,-0.21235 1.48646,0.63705c-0.4247,0 -0.8494,0 -1.48646,0z" id="svg_157"/>
      <path stroke="null" class="st136" d="m208.83627,260.35175c0,0.8494 1.06176,0.21235 1.69881,0.8494c0.21235,-1.06176 -0.4247,-1.27411 -1.48646,-1.27411c0.21235,0.4247 0,0.4247 -0.21235,0.4247z" id="svg_158"/>
      <path stroke="null" class="st136" d="m273.39103,270.75696c0.4247,0.4247 0.63705,1.06176 0.8494,1.91116c1.27411,0 1.06176,-1.48646 1.27411,-2.76057c-0.8494,-0.63705 -1.69881,0.21235 -2.12351,0.8494z" id="svg_159"/>
      <path stroke="null" class="st136" d="m139.39743,269.90756c0,0.4247 0,0.8494 0,1.27411c0.4247,0 0.8494,0 1.06176,0c0,-0.8494 -0.21235,-1.27411 -1.06176,-1.27411z" id="svg_160"/>
      <path stroke="null" class="st136" d="m142.5827,271.39402c0,-0.63705 0,-1.27411 -0.21235,-1.48646c-0.21235,0 -0.63705,0 -0.8494,0c-0.21235,1.06176 0,1.69881 1.06176,1.48646z" id="svg_161"/>
      <path stroke="null" class="st136" d="m142.79505,271.18166c0,0.4247 0,1.06176 0,1.48646c0.63705,0.21235 0.8494,-0.21235 1.06176,-0.4247c0.21235,-0.63705 -0.21235,-1.06176 -1.06176,-1.06176z" id="svg_162"/>
      <path stroke="null" class="st136" d="m142.37035,276.06574c1.06176,-0.21235 1.48646,0.4247 2.12351,0.63705c0,-0.8494 1.27411,-0.63705 1.91116,-0.63705c-0.4247,-2.12351 -1.91116,-1.69881 -3.82232,-1.91116c0.21235,-0.8494 -0.63705,-0.63705 -0.63705,-1.27411c-0.63705,-0.4247 -1.48646,-0.4247 -1.69881,-1.27411c-1.48646,0 -2.97292,0 -4.24702,0c-0.21235,0.63705 -0.63705,0.8494 -0.63705,1.48646c1.27411,0.21235 1.06176,-1.06176 2.54821,-0.63705c1.27411,0.21235 1.27411,1.69881 2.54821,1.91116c0.63705,0.21235 2.12351,-0.4247 2.33586,0.21235c-1.06176,0.21235 -0.63705,0.63705 -0.4247,1.48646z" id="svg_163"/>
      <path stroke="null" class="st136" d="m145.13091,272.66812c0,-0.4247 -0.63705,-0.21235 -1.06176,-0.4247c-0.63705,1.27411 1.48646,1.48646 1.06176,0.4247z" id="svg_164"/>
      <path stroke="null" class="st136" d="m274.66513,276.06574c0.4247,0.63705 1.06176,1.27411 1.69881,1.91116c0.4247,-0.8494 1.27411,-1.27411 1.27411,-2.76057c-0.8494,-1.27411 -3.18527,-0.63705 -2.97292,0.8494z" id="svg_165"/>
      <path stroke="null" class="st136" d="m267.65755,276.91515c0.8494,-0.21235 0.8494,-1.27411 1.27411,-1.91116c-0.21235,-0.21235 -0.63705,-0.4247 -1.27411,-0.21235c-0.63705,1.27411 -0.4247,0.21235 0,2.12351z" id="svg_166"/>
      <path stroke="null" class="st136" d="m139.18508,275.42869c0,0.4247 0,0.8494 0,1.27411c1.06176,-0.4247 1.06176,0 2.12351,-0.21235c0,-1.27411 -1.27411,-1.06176 -2.12351,-1.06176z" id="svg_167"/>
      <path stroke="null" class="st136" d="m147.04207,276.7028c1.06176,0 1.91116,0 1.69881,-1.27411c-0.63705,0 -1.06176,0 -1.69881,0c0,0.4247 0,0.8494 0,1.27411z" id="svg_168"/>
      <path stroke="null" class="st136" d="m177.40829,276.7028c0,0.63705 -0.8494,0.4247 -0.63705,1.27411c0.4247,0 0.8494,0 1.06176,0c0.21235,-0.8494 0,-1.27411 -0.4247,-1.27411z" id="svg_169"/>
      <path stroke="null" class="st136" d="m277.001,281.58687c0.63705,0.63705 0.8494,-0.21235 1.69881,0c0,0.63705 -0.63705,1.27411 0.21235,1.48646c0.4247,-0.8494 1.27411,-1.27411 2.54821,-1.27411c0.21235,-1.48646 -0.8494,-1.27411 -1.48646,-1.91116c0,-1.06176 -0.4247,-1.48646 -1.06176,-1.48646c-0.4247,0.4247 -0.21235,1.27411 -0.21235,2.12351c-1.06176,-0.4247 -1.27411,0.21235 -1.69881,1.06176z" id="svg_170"/>
      <path stroke="null" class="st136" d="m248.33359,282.43628c0.4247,1.91116 -1.06176,2.12351 0,2.97292c0.8494,0.21235 0.8494,-0.8494 1.48646,-0.8494c-0.4247,-0.8494 -1.06176,-1.48646 -1.48646,-2.12351z" id="svg_171"/>
      <path stroke="null" class="st136" d="m267.23284,290.71797c0.21235,1.27411 1.48646,1.48646 1.48646,2.97292c1.91116,-0.4247 1.48646,1.27411 3.39762,0.8494c0,-0.63705 0.8494,-0.4247 0.8494,-0.8494c-0.21235,0 -0.63705,0 -0.63705,-0.21235c0.8494,-0.4247 0.4247,-2.33586 1.48646,-2.76057c-0.63705,-1.06176 0.21235,-2.12351 -0.21235,-2.76057c0.4247,-0.21235 1.06176,-0.63705 0.8494,-1.48646c-0.63705,-0.63705 -1.27411,-1.27411 -2.54821,-1.27411c-0.21235,3.18527 -4.03467,2.54821 -4.67173,5.52113z" id="svg_172"/>
      <path stroke="null" class="st136" d="m261.92406,288.59446c-0.4247,-0.63705 -1.27411,-1.27411 -1.06176,-2.12351c-0.8494,0.21235 -0.63705,-0.63705 -1.06176,-0.63705c0,1.27411 -0.63705,0 -1.48646,0.21235c0,3.60997 4.03467,2.76057 3.39762,7.00759c1.48646,0.21235 1.91116,2.12351 3.18527,1.48646c0.63705,-1.06176 -0.63705,-2.54821 -0.63705,-4.03467c-1.06176,-0.4247 -1.91116,-1.27411 -2.33586,-1.91116z" id="svg_173"/>
      <path stroke="null" class="st136" d="m278.06275,291.14268c0,-1.27411 -1.91116,-0.8494 -2.33586,-1.91116c-1.48646,1.27411 -2.54821,4.67173 -0.21235,5.73348c0,-0.8494 0,-1.48646 0.63705,-1.91116c0.63705,0.63705 0.63705,1.48646 1.69881,0.8494c-0.21235,-1.27411 -1.06176,-1.69881 -1.06176,-2.97292c0.21235,0.4247 0.8494,0.4247 1.27411,0.21235z" id="svg_174"/>
      <path stroke="null" class="st136" d="m284.43329,289.86857c-0.8494,-0.63705 -3.18527,-0.4247 -3.18527,0.8494c1.06176,0.63705 3.18527,0.4247 3.18527,-0.8494z" id="svg_175"/>
      <path stroke="null" class="st136" d="m287.61856,291.14268c-0.63705,0 -1.27411,0 -1.91116,0c-0.21235,0.4247 -0.4247,1.06176 -1.06176,0.8494c-0.8494,0.21235 -0.63705,-0.8494 -1.48646,-0.63705c0,0.8494 -1.06176,0.21235 -0.8494,1.27411c0,0.63705 0.63705,-0.4247 1.48646,0c1.27411,1.06176 2.97292,1.69881 4.03467,2.97292c0,0.63705 0,1.27411 0,1.91116c1.48646,-1.06176 1.91116,0.63705 3.18527,0.8494c1.06176,0 0.63705,-1.48646 2.12351,-1.27411c0.63705,0.4247 1.48646,2.33586 2.54821,1.27411c-0.63705,-0.21235 -0.8494,-0.8494 -0.8494,-1.91116c-0.8494,-0.63705 -1.91116,-1.06176 -2.33586,-2.12351c0,-0.21235 0,-0.63705 0,-0.8494c-2.54821,0 -3.18527,-1.91116 -4.88408,-2.33586z" id="svg_176"/>
      <path stroke="null" class="st136" d="m272.32927,298.15027c0.21235,-1.06176 -1.06176,-0.8494 -0.8494,-1.91116c-2.33586,0 -4.03467,-0.63705 -5.73348,-1.27411c-0.21235,0.63705 -0.8494,0.8494 -0.63705,1.91116c2.76057,0 4.03467,1.48646 7.21994,1.27411z" id="svg_177"/>
      <path stroke="null" class="st136" d="m293.56439,310.04193c0.21235,-1.48646 -0.4247,-2.12351 -0.21235,-3.60997c-0.63705,-0.21235 -0.63705,-0.8494 -1.27411,-1.27411c0,-2.33586 -2.12351,-2.76057 -1.69881,-5.52113c-0.63705,0 -0.63705,-0.4247 -1.06176,-0.21235c-0.8494,1.27411 0.21235,4.45937 -0.8494,5.30878c-1.06176,0.4247 -0.63705,-1.06176 -1.69881,-0.63705c0,-0.8494 -1.27411,-0.4247 -1.06176,-1.48646c-0.21235,-1.06176 1.48646,0 1.06176,-1.27411c-1.06176,-1.27411 -4.03467,-0.21235 -5.52113,-0.8494c-0.4247,0.21235 0,1.48646 -0.63705,1.48646c-1.06176,0.21235 -2.12351,0.4247 -2.97292,0.8494c-0.4247,0.8494 0,2.54821 -1.06176,2.76057c-0.63705,-0.63705 -1.48646,0 -2.33586,0c-0.63705,0.21235 0,1.69881 -0.63705,1.91116c-0.63705,-0.21235 -0.63705,-0.8494 -1.06176,-0.21235c-0.63705,0.8494 -0.4247,2.76057 -1.48646,2.97292c-0.63705,0.4247 -1.91116,0.21235 -2.33586,0.8494c0.21235,1.27411 1.06176,2.97292 0.21235,4.67173c0.63705,0.21235 0.63705,0.8494 0.8494,1.48646c0.21235,1.48646 -0.4247,1.91116 -0.21235,3.39762c0.8494,0 0.8494,0.63705 1.69881,0.63705c1.27411,-0.63705 1.91116,-1.69881 4.03467,-1.27411c1.06176,-1.27411 2.97292,-1.69881 5.52113,-1.48646c0.8494,0.63705 1.27411,1.69881 1.69881,2.76057c1.06176,-0.63705 0.8494,0.63705 2.12351,0c0,0.8494 0.21235,1.69881 -0.21235,2.12351c1.91116,1.06176 2.97292,1.27411 5.73348,1.27411c0.63705,-0.63705 1.27411,-1.27411 2.33586,-1.48646c-0.21235,-1.48646 1.48646,-1.27411 1.06176,-2.97292c1.06176,0 0.8494,-1.48646 1.69881,-1.48646c-0.4247,-1.06176 0.4247,-1.69881 0.63705,-2.76057c0.21235,-1.91116 -0.63705,-3.82232 -0.8494,-5.52113c-0.63705,-0.8494 -1.06176,0.4247 -1.48646,-0.4247z" id="svg_178"/>
      <path stroke="null" class="st136" d="m226.24907,300.27378c-0.4247,0.8494 -1.06176,1.91116 -1.06176,2.97292c-1.27411,0.21235 -1.91116,1.27411 -2.54821,2.12351c-0.21235,1.06176 0.4247,1.27411 0.21235,2.12351c-0.21235,0.63705 -0.4247,1.27411 -0.8494,1.91116c0.63705,1.48646 -0.21235,2.54821 0.8494,3.60997c0.8494,0 1.27411,-0.63705 2.33586,-0.21235c0.63705,-1.27411 0.4247,-1.91116 1.06176,-3.39762c0,-0.4247 0,-1.06176 0,-1.48646s0.21235,-0.4247 0.63705,-0.63705c-0.63705,-1.27411 0.63705,-2.54821 0.63705,-4.88408c-1.27411,0 0,-2.33586 -1.27411,-2.12351z" id="svg_179"/>
      <path stroke="null" class="st136" d="m309.70308,321.08419c0,-0.8494 0,-1.69881 -0.8494,-1.48646c0,0.8494 0,1.69881 0,2.33586c-0.21235,0.8494 -1.48646,0.8494 -1.06176,2.12351c1.91116,-0.21235 0.63705,0.8494 0.63705,1.91116c1.91116,0 1.91116,-2.12351 2.54821,-3.39762c0.4247,-0.4247 1.27411,-0.63705 1.48646,-1.27411c-0.8494,-0.8494 -1.48646,-0.21235 -2.76057,-0.21235z" id="svg_180"/>
      <path stroke="null" class="st136" d="m306.51781,324.69416c-0.21235,0.63705 -0.8494,0.8494 -0.8494,1.91116c-0.4247,0 -0.8494,0 -1.27411,0.21235c-0.4247,0.63705 -0.63705,1.48646 -1.48646,1.91116c-1.27411,0.4247 -1.48646,1.91116 -2.12351,3.18527c0.8494,-0.4247 1.48646,-0.21235 2.54821,0c0.21235,-0.63705 1.06176,-0.8494 0.8494,-2.12351c0.4247,0 0.8494,0 1.27411,0c0,-1.69881 2.33586,-1.27411 2.33586,-2.97292c0,-1.27411 -0.8494,-1.69881 -1.27411,-2.12351z" id="svg_181"/>
      <path stroke="null" class="st136" d="m286.76915,325.54357c-0.4247,0.4247 1.06176,1.91116 1.06176,2.76057c1.48646,-0.21235 2.33586,-0.8494 2.12351,-2.76057c-1.27411,0.21235 -2.76057,-0.4247 -3.18527,0z" id="svg_182"/>
      <path stroke="null" class="st136" d="m155.53612,335.09937c0.4247,0 0.8494,0 1.27411,0c0.21235,-1.27411 -1.27411,-1.06176 -1.27411,0z" id="svg_183"/>
     </g>
     <g stroke="null" id="svg_184">
      <path stroke="null" class="st134" d="m313.73775,231.47199c10.82991,0 19.74866,-8.7064 19.74866,-19.74866c0,-10.82991 -8.7064,-19.74866 -19.74866,-19.74866l-24.42039,0c-10.82991,0 -19.74866,8.91875 -19.74866,19.74866s8.7064,19.74866 19.74866,19.74866l24.42039,0z" id="svg_185"/>
      <g stroke="null" id="svg_186">
       <g stroke="null" id="svg_187">
        <path stroke="null" class="st136" d="m290.80382,228.92378l0,0l0,0c-4.45937,0 -8.7064,-1.91116 -11.89167,-5.09643s-4.88408,-7.64464 -4.88408,-12.10402c0,-9.34345 7.64464,-16.98809 16.98809,-16.98809s16.98809,7.64464 16.98809,17.20045c-0.21235,9.34345 -7.85699,16.98809 -17.20045,16.98809zm0,-31.42797c-7.85699,0 -14.22753,6.37054 -14.22753,14.43988c0,3.82232 1.48646,7.43229 4.03467,10.19286c2.76057,2.76057 6.15818,4.24702 9.98051,4.24702l0,1.48646l0,-1.27411c7.85699,0 14.22753,-6.37054 14.22753,-14.22753c0.21235,-8.2817 -6.15818,-14.86458 -14.01518,-14.86458z" id="svg_188"/>
       </g>
       <g stroke="null" id="svg_189">
        <path stroke="null" class="st136" d="m313.31305,229.13613l0,0l0,0c-9.34345,0 -16.98809,-7.64464 -16.98809,-17.20045c0,-9.34345 7.64464,-17.20045 16.98809,-16.98809c9.34345,0 16.98809,7.64464 16.98809,17.20045c0,9.34345 -7.64464,16.98809 -16.98809,16.98809zm0,-31.64033c-7.85699,0 -14.22753,6.37054 -14.22753,14.22753s6.37054,14.43988 14.22753,14.43988l0,1.27411l0,-1.27411c7.85699,0 14.22753,-6.37054 14.22753,-14.22753s-6.37054,-14.43988 -14.22753,-14.43988z" id="svg_190"/>
       </g>
       <g stroke="null" id="svg_191">
        <path stroke="null" class="st136" d="m290.80382,228.49908l0,0l0,0c-1.27411,0 -2.54821,-0.63705 -3.39762,-1.69881c-2.76057,-2.76057 -4.24702,-8.49405 -4.24702,-15.07693c0,-9.5558 3.39762,-16.56339 7.85699,-16.56339c4.45937,0 7.85699,7.21994 7.85699,16.77574c-0.21235,9.5558 -3.60997,16.56339 -8.06934,16.56339zm0,-30.57857c-2.12351,0 -5.09643,5.30878 -5.09643,14.01518c0,6.58289 1.69881,11.46696 3.60997,13.16577c0.63705,0.63705 1.06176,0.8494 1.48646,0.8494l0,0c2.12351,0 5.09643,-5.30878 5.09643,-13.80283c0,-8.91875 -2.97292,-14.22753 -5.09643,-14.22753z" id="svg_192"/>
       </g>
       <g stroke="null" id="svg_193">
        <polygon stroke="null" class="st136" points="306.30538845062256,213.2097930908203 275.30221462249756,213.2097930908203 275.30221462249756,210.44921875 306.30538845062256,210.44921875 " id="svg_194"/>
       </g>
       <g stroke="null" id="svg_195">
        <g stroke="null" id="svg_196">
         <polygon stroke="null" class="st136" points="303.75717067718506,205.98985290527344 277.8504629135132,205.98985290527344 277.8504629135132,203.2292938232422 303.75717067718506,203.2292938232422 " id="svg_197"/>
        </g>
        <g stroke="null" id="svg_198">
         <polygon stroke="null" class="st136" points="303.75717067718506,220.64207458496094 277.8504629135132,220.64207458496094 277.8504629135132,217.8815155029297 303.75717067718506,217.8815155029297 " id="svg_199"/>
        </g>
       </g>
      </g>
     </g>
     <rect stroke="null" x="152.35085" y="205.56515" class="st134" width="105.53854" height="14.86458" id="svg_200"/>
    </g>
    <g stroke="null" id="svg_201">
     <path stroke="null" class="st137" d="m87.79609,259.7147c-2.54821,0 -4.88408,-2.12351 -4.88408,-4.88408l0,-29.30446c0,-2.76057 2.12351,-4.88408 4.88408,-4.88408l32.27738,0c2.76057,0 4.88408,2.12351 4.88408,4.88408l0,29.30446c0,2.76057 -2.12351,4.88408 -4.88408,4.88408l-32.27738,0z" id="svg_202"/>
     <g stroke="null" id="svg_203">
      <path stroke="null" class="st138" d="m120.07347,221.27914l-6.15818,0l0,8.2817l10.19286,0l0,-4.03467c0.21235,-2.33586 -1.69881,-4.24702 -4.03467,-4.24702z" id="svg_204"/>
      <path stroke="null" class="st138" d="m98.626,244.63777l0,-4.67173l-14.86458,0l0,8.91875l10.82991,0c2.12351,0 4.03467,-1.91116 4.03467,-4.24702z" id="svg_205"/>
      <path stroke="null" class="st138" d="m94.59133,230.41024l0,0l0,0l-10.82991,0l0,8.91875l14.86458,0l0,-4.67173c0,-2.33586 -1.91116,-4.24702 -4.03467,-4.24702z" id="svg_206"/>
      <path stroke="null" class="st138" d="m99.47541,234.23256l9.5558,0c0.21235,-2.33586 1.91116,-4.24702 4.24702,-4.67173l0,-8.2817l-18.04985,0l0,8.2817c2.33586,0.4247 4.03467,2.33586 4.24702,4.67173z" id="svg_207"/>
      <rect stroke="null" x="99.47541" y="235.08196" class="st138" width="9.5558" height="9.5558" id="svg_208"/>
      <path stroke="null" class="st138" d="m109.03121,245.48717l-9.76815,0c-0.21235,2.12351 -2.12351,4.03467 -4.24702,4.24702l0,9.34345l18.04985,0l0,-9.34345c-1.91116,-0.4247 -3.60997,-2.12351 -4.03467,-4.24702z" id="svg_209"/>
      <path stroke="null" class="st138" d="m109.88062,244.63777c0,2.33586 1.91116,4.24702 4.24702,4.24702l10.40521,0l0,-8.91875l-14.43988,0l0,4.67173l-0.21235,0z" id="svg_210"/>
      <path stroke="null" class="st138" d="m114.12764,230.41024l0,0c-2.33586,0 -4.24702,1.91116 -4.24702,4.24702l0,4.67173l14.43988,0l0,-8.91875l-10.19286,0l0,0z" id="svg_211"/>
      <path stroke="null" class="st138" d="m94.37898,221.27914l-6.58289,0c-2.33586,0 -4.03467,1.91116 -4.03467,4.24702l0,4.03467l10.61756,0l0,-8.2817z" id="svg_212"/>
      <path stroke="null" class="st138" d="m83.76142,254.83062c0,2.33586 1.91116,4.24702 4.03467,4.24702l6.58289,0l0,-9.34345l-10.61756,0l0,5.09643z" id="svg_213"/>
      <path stroke="null" class="st138" d="m114.12764,259.07765l6.15818,0c2.33586,0 4.24702,-1.91116 4.24702,-4.24702l0,-5.09643l-10.19286,0l0,9.34345l-0.21235,0z" id="svg_214"/>
     </g>
    </g>
    <g stroke="null" id="svg_215">
     <g stroke="null" id="svg_216">
      <rect stroke="null" x="126.46209" y="304.56618" transform="matrix(2.12351 -0.00508069 0.00508069 2.12351 -132.82 -330.861)" class="st134" width="41.7" height="2.5" id="svg_217"/>
     </g>
     <g stroke="null" id="svg_218">
      <rect stroke="null" x="134.84738" y="296.38968" transform="matrix(2.12351 -0.0127406 0.0127406 2.12351 -135 -326.163)" class="st134" width="24.9" height="1.3" id="svg_219"/>
     </g>
     <g stroke="null" id="svg_220">
      <rect stroke="null" x="78.87735" y="293.90324" class="st134" width="15.92634" height="2.76057" id="svg_221"/>
     </g>
     <g stroke="null" id="svg_222">
      <rect stroke="null" x="78.87735" y="340.40815" class="st134" width="125.92425" height="5.30878" id="svg_223"/>
     </g>
     <g stroke="null" id="svg_224">
      <rect stroke="null" x="142.79505" y="280.73747" class="st134" width="55.84836" height="5.30878" id="svg_225"/>
     </g>
     <g stroke="null" id="svg_226">
      <polygon stroke="null" class="st134" points="78.87737941741943,286.2586364746094 78.87737941741943,280.73748779296875 134.72569179534912,280.73748779296875 134.72569179534912,286.2586364746094 " id="svg_227"/>
     </g>
     <g stroke="null" id="svg_228">
      <rect stroke="null" x="206.92511" y="280.73747" class="st134" width="55.84836" height="5.30878" id="svg_229"/>
     </g>
     <g stroke="null" id="svg_230">
      <polygon stroke="null" class="st134" points="270.84271144866943,286.2586364746094 270.84271144866943,280.73748779296875 326.6911916732788,280.73748779296875 326.6911916732788,286.2586364746094 " id="svg_231"/>
     </g>
    </g>
   </g>
   <g stroke="null" id="svg_232">
    <path stroke="null" class="st139" d="m193.75933,60.954c0,7.43229 6.15818,13.59048 13.59048,13.59048l3.39762,-6.37054c7.43229,0 13.59048,-11.25461 13.59048,-18.89926l0,-5.09643c0,-7.43229 -6.15818,-13.59048 -13.59048,-13.59048l-3.39762,0c-7.43229,0 -13.59048,6.15818 -13.59048,13.59048l0,16.77574z" id="svg_233"/>
    <path stroke="null" class="st139" d="m221.57734,43.75355c0.8494,-0.21235 1.91116,-0.21235 2.76057,-0.21235c0,1.06176 0,2.33586 0.21235,3.60997c1.69881,11.46696 11.89167,19.74866 23.35863,19.32396c-0.21235,11.04226 -8.49405,20.59806 -19.96101,22.29687c-12.74107,1.91116 -24.42039,-6.79524 -26.1192,-19.11161c-1.69881,-12.52872 7.00759,-23.99568 19.74866,-25.90684z" id="svg_234"/>
    <g stroke="null" id="w2a">
     <path stroke="null" class="st140" d="m257.88939,87.28554c0,0 0.8494,0.4247 1.27411,-0.21235c0.63705,-1.06176 0.63705,-3.60997 0.63705,-4.45937c0,-1.06176 -0.8494,-5.73348 -0.8494,-5.73348s-0.8494,1.48646 -0.63705,3.39762c0.4247,2.54821 -0.4247,7.00759 -0.4247,7.00759z" id="svg_235"/>
     <path stroke="null" class="st140" d="m257.88939,86.64849c0.63705,-1.69881 0.21235,-3.60997 -1.06176,-5.94583c-1.06176,-2.12351 -0.4247,-3.39762 -0.4247,-3.39762s0.8494,1.27411 2.33586,4.67173c0.4247,1.06176 0.8494,2.12351 0.8494,2.97292c0,3.18527 -3.39762,5.73348 -1.69881,1.69881z" id="svg_236"/>
     <path stroke="null" class="st141" d="m241.96305,125.08405c-0.4247,-7.00759 11.46696,-25.69449 11.46696,-25.69449s6.58289,-5.52113 -4.24702,21.65982c-3.39762,8.49405 -7.21994,5.94583 -7.21994,4.03467z" id="svg_237"/>
     <path stroke="null" class="st141" d="m257.88939,84.52498l0.8494,0.4247l0.63705,2.97292c0,0 -1.06176,5.52113 -2.12351,7.43229s-2.54821,10.19286 -2.97292,11.25461c-0.4247,0.8494 -5.30878,1.27411 -5.30878,1.27411s3.39762,-8.06934 4.67173,-11.46696c1.06176,-3.39762 1.06176,-8.49405 1.48646,-9.98051c0.63705,-2.33586 0.8494,-3.39762 0.8494,-3.39762s1.06176,0.4247 0.21235,4.03467c-0.21235,0.8494 1.06176,0.63705 1.06176,0.63705l0.63705,-3.18527z" id="svg_238"/>
     <path stroke="null" class="st141" d="m258.31409,88.3473c0,0 0.63705,-2.76057 0.21235,-4.03467c-0.4247,-0.8494 -2.76057,-5.09643 -2.76057,-5.09643s-0.21235,1.69881 0.63705,3.39762c1.27411,2.54821 1.91116,5.73348 1.91116,5.73348z" id="svg_239"/>
     <path stroke="null" class="st140" d="m255.97823,87.07319c0.63705,-2.33586 0.21235,-3.39762 0,-3.82232c-0.21235,0.63705 -0.4247,1.48646 -0.63705,2.76057c-0.21235,0.4247 -0.21235,1.48646 -0.4247,2.54821c0,0.21235 0.8494,0.4247 1.27411,2.33586c0,0.4247 0.63705,-1.69881 0.63705,-2.97292c-0.4247,0 -1.06176,0 -0.8494,-0.8494z" id="svg_240"/>
     <path stroke="null" class="st142" d="m250.8818,115.95295c0,-1.06176 -5.30878,-2.33586 -6.37054,-0.63705l-0.8494,1.06176c0,0 -7.00759,10.19286 -1.27411,13.16577c0,0.21235 6.37054,0.8494 8.49405,-13.59048z" id="svg_241"/>
     <path stroke="null" class="st140" d="m256.82764,87.9226c0,0 -0.8494,0.21235 -1.06176,0c0,0.21235 0,0.4247 0.21235,0.63705c0,0.4247 0,3.60997 0,3.60997s0.4247,-2.33586 0.8494,-2.97292c0.21235,-0.4247 0.4247,-1.27411 0.4247,-2.12351c0,0 0,-0.21235 0,-0.4247l-0.4247,1.27411z" id="svg_242"/>
    </g>
    <path stroke="null" class="st141" d="m199.06811,35.89656c0,1.27411 0.21235,2.54821 0.4247,3.82232c1.27411,8.7064 6.58289,15.28929 12.52872,16.13869c0.21235,4.03467 1.48646,7.43229 1.91116,10.61756c0.8494,6.79524 8.2817,7.64464 8.2817,7.64464c1.06176,6.15818 -19.96101,9.5558 -19.53631,8.49405s2.54821,-3.18527 4.24702,-9.76815c1.06176,-4.67173 -0.4247,-8.2817 -2.12351,-11.04226c-3.18527,-3.82232 -7.85699,-3.82232 -7.85699,-3.82232c-0.4247,0 -0.8494,-0.21235 -1.06176,-0.4247c-0.21235,-0.8494 -0.4247,-1.91116 -0.4247,-2.76057l0,-11.25461c0,-3.18527 1.48646,-5.94583 3.60997,-7.64464z" id="svg_243"/>
    <path stroke="null" class="st143" d="m184.41588,160.75905c0,-0.21235 0,-0.21235 0,0c0,-0.21235 0,-0.21235 0,-0.4247c1.91116,-9.5558 4.67173,-18.89926 9.1311,-27.3933c3.18527,-5.94583 9.34345,-11.67931 12.10402,-14.43988c7.00759,3.82232 14.01518,2.12351 20.59806,7.00759c0.8494,2.76057 1.48646,5.73348 2.12351,8.91875c1.06176,5.73348 1.91116,11.25461 2.54821,16.13869c10.19286,1.06176 35.675,2.97292 45.2308,4.88408c5.73348,1.27411 5.94583,3.39762 6.79524,4.24702c-0.4247,9.1311 -8.06934,14.43988 -12.52872,21.87217c-0.8494,1.27411 -61.36949,0.21235 -71.7747,0.63705c1.48646,0.63705 -20.59806,0.8494 -14.22753,-21.44747z" id="svg_244"/>
    <path stroke="null" class="st140" d="m279.12451,172.65072c1.69881,-1.91116 2.54821,-4.24702 3.82232,-6.37054c1.06176,-4.03467 0.8494,-6.79524 -0.21235,-7.85699c-4.45937,-3.60997 -19.74866,4.03467 -58.18422,61.58184c-8.2817,12.52872 -25.69449,36.94911 -20.59806,33.55149c8.91875,-5.73348 11.04226,-12.52872 16.77574,-18.47455c45.86786,-47.77902 50.96428,-53.72485 58.39657,-62.43125z" id="svg_245"/>
    <path stroke="null" class="st142" d="m201.82868,251.85771l6.79524,-10.82991c0.63705,-1.06176 1.69881,-1.69881 2.76057,-1.48646l-5.30878,8.49405c-1.06176,1.69881 -0.8494,3.82232 0.63705,4.88408c0.4247,0.4247 1.06176,0.63705 1.48646,0.63705l-1.48646,2.54821c-1.06176,1.69881 -2.97292,2.12351 -4.24702,1.06176c-1.48646,-1.48646 -1.69881,-3.82232 -0.63705,-5.30878z" id="svg_246"/>
    <path stroke="null" class="st141" d="m200.55457,109.15771l-10.61756,-18.6869c-3.82232,-5.52113 -1.91116,-12.74107 4.24702,-14.43988l33.12678,-7.64464c4.03467,-0.63705 10.61756,4.88408 9.34345,11.67931l-6.79524,22.50923l-29.30446,6.58289z" id="svg_247"/>
    <path stroke="null" class="st142" d="m232.6196,72.42096c-4.45937,20.59806 6.58289,56.91012 6.58289,56.91012s6.37054,1.27411 7.64464,-2.12351c1.48646,-4.45937 -2.33586,-14.86458 -4.88408,-43.31964c-1.48646,-17.8375 -8.7064,-14.86458 -9.34345,-11.46696z" id="svg_248"/>
    <path stroke="null" class="st142" d="m187.8135,80.70265c-2.76057,25.05744 -9.76815,57.12247 -9.76815,57.12247s6.79524,5.52113 9.1311,2.54821c2.76057,-4.03467 5.52113,-18.47455 8.49405,-46.08021c1.91116,-17.20045 -7.43229,-16.98809 -7.85699,-13.59048z" id="svg_249"/>
    <path stroke="null" class="st144" d="m227.52317,116.37765c0,2.54821 -1.91116,8.49405 -3.82232,8.49405l-19.53631,-1.48646c-1.91116,0 -6.79524,-1.69881 -6.79524,-4.24702l-0.21235,-8.7064c0,-2.54821 1.48646,-4.67173 3.39762,-4.67173l24.42039,-6.79524c1.91116,0 3.60997,2.12351 3.60997,4.67173l-1.06176,12.74107z" id="svg_250"/>
    <path stroke="null" class="st145" d="m226.03671,125.08405c0,0.21235 -1.48646,0.4247 -2.97292,0.4247l-18.89926,-1.27411c-1.69881,0 -2.97292,-0.4247 -2.97292,-0.63705l0,-1.06176c0,-0.21235 1.48646,-0.4247 2.97292,-0.4247l18.89926,1.27411c1.69881,0 2.97292,0.4247 2.97292,0.63705l0,1.06176z" id="svg_251"/>
    <path stroke="null" class="st144" d="m232.6196,77.94209c-0.4247,-1.27411 -0.8494,-2.33586 -1.48646,-3.39762c-16.98809,13.16577 -29.51681,8.2817 -38.64792,6.58289c0,0.4247 0,1.06176 -0.21235,1.69881c0,6.15818 0.63705,12.31637 0.63705,18.47455c0,4.88408 7.00759,8.91875 10.40521,8.91875c12.31637,0 15.07693,-0.8494 26.9686,-4.45937c3.18527,-1.06176 8.91875,-6.37054 7.43229,-10.82991c-1.69881,-5.73348 -3.39762,-11.25461 -5.09643,-16.98809z" id="svg_252"/>
    <path stroke="null" class="st143" d="m201.61633,74.33212c0,0 -11.67931,0 -13.59048,6.37054c-2.12351,6.37054 2.54821,15.07693 2.54821,15.07693s3.82232,11.25461 4.88408,17.62515c1.06176,6.15818 -2.54821,12.31637 -1.48646,11.04226c0.21235,-0.21235 3.18527,0 7.64464,-2.54821c4.67173,-2.33586 1.69881,-10.82991 1.06176,-13.37812c-0.63705,-2.76057 -3.39762,-16.13869 -2.97292,-18.2622c0.63705,-2.33586 1.91116,-15.92634 1.91116,-15.92634z" id="svg_253"/>
    <path stroke="null" class="st143" d="m239.20249,76.88033c0,0 0.8494,-5.30878 -1.69881,-7.21994c-3.60997,-2.97292 -12.31637,-2.12351 -15.07693,-1.27411s-4.67173,1.69881 -4.67173,1.69881s9.98051,3.18527 10.19286,20.81042c0,2.97292 -0.63705,9.1311 -1.48646,14.01518c-1.06176,4.67173 -1.06176,14.01518 -1.06176,14.01518s5.94583,0.8494 6.15818,1.48646c0.21235,0.63705 0.4247,-5.52113 4.03467,-11.46696c4.03467,-6.15818 3.60997,-32.06503 3.60997,-32.06503z" id="svg_254"/>
    <path stroke="null" class="st142" d="m227.73552,67.74923c4.88408,3.82232 7.85699,7.00759 8.06934,27.60565c0,3.39762 -0.8494,9.5558 -1.27411,15.28929c0.21235,-0.63705 2.12351,-3.60997 2.54821,-4.24702c3.18527,-6.15818 2.54821,-29.51681 2.54821,-29.51681s0.4247,-4.67173 -1.69881,-6.58289c-2.76057,-2.12351 -7.00759,-2.97292 -10.19286,-2.54821z" id="svg_255"/>
    <path stroke="null" class="st141" d="m268.50695,176.89774c1.27411,-2.12351 1.69881,-4.67173 2.54821,-6.79524c0.21235,-4.24702 -0.4247,-6.58289 -1.69881,-7.64464c-5.09643,-4.67173 -16.56339,4.03467 -34.82559,41.83318c-9.34345,19.11161 -16.77574,36.73675 -29.30446,46.92961c-1.91116,1.48646 -2.33586,1.69881 -2.97292,3.39762c-1.91116,5.30878 -1.06176,12.10402 -0.8494,11.89167c2.76057,-2.54821 7.85699,-11.04226 14.43988,-19.32396c14.65223,-17.8375 35.88735,-43.74434 52.66309,-70.28824z" id="svg_256"/>
    <path stroke="null" class="st143" d="m197.79401,262.68762l5.94583,-11.46696c0.63705,-1.06176 1.48646,-1.69881 2.54821,-1.69881l-4.45937,8.7064c-0.8494,1.69881 -0.4247,3.82232 0.8494,4.88408c0.4247,0.4247 1.06176,0.4247 1.48646,0.4247l-1.27411,2.54821c-0.8494,1.69881 -2.76057,2.33586 -4.24702,1.27411c-1.27411,-0.8494 -1.69881,-2.97292 -0.8494,-4.67173z" id="svg_257"/>
    <g stroke="null" id="svg_258">
     <path stroke="null" class="st140" d="m150.65204,177.74715c0,0 -2.12351,1.91116 -2.33586,3.39762c-0.21235,1.06176 -0.21235,5.73348 -0.21235,5.73348s1.06176,-1.27411 1.27411,-3.18527c0,-2.97292 1.27411,-5.94583 1.27411,-5.94583z" id="svg_259"/>
     <path stroke="null" class="st140" d="m149.59029,180.72006c-1.48646,1.06176 -1.91116,3.18527 -1.91116,5.52113s-1.27411,3.18527 -1.27411,3.18527s-0.21235,-1.48646 0.21235,-5.09643c0.21235,-1.06176 0.21235,-2.12351 0.4247,-2.97292c0.63705,-3.39762 6.15818,-3.39762 2.54821,-0.63705z" id="svg_260"/>
     <path stroke="null" class="st141" d="m152.56321,175.62363c0.21235,1.27411 -0.8494,3.18527 -0.63705,4.03467c1.06176,1.91116 2.12351,2.76057 2.12351,2.76057c-2.54821,0.8494 -4.03467,-2.54821 -5.30878,-3.39762c-1.27411,-0.8494 3.18527,-6.58289 3.82232,-3.39762z" id="svg_261"/>
     <path stroke="null" class="st141" d="m162.11901,164.58137c-3.60997,2.97292 -7.85699,6.15818 -9.1311,8.49405c-1.91116,3.39762 -1.27411,5.94583 -3.39762,7.64464c-0.21235,0.21235 -0.4247,0.4247 -0.63705,0.63705c-0.63705,0.63705 -1.27411,1.06176 -1.48646,1.27411c-0.21235,0.21235 -0.8494,1.27411 -0.63705,0.8494c0.63705,-4.03467 1.69881,-8.2817 2.12351,-9.1311c1.27411,-1.48646 8.2817,-9.98051 11.67931,-12.52872c3.60997,-2.97292 6.58289,-1.06176 1.48646,2.76057z" id="svg_262"/>
     <path stroke="null" class="st141" d="m149.37794,180.50771c0,0 -0.63705,-0.8494 -1.27411,-0.21235c-1.06176,0.63705 -2.33586,2.97292 -2.54821,3.60997c-0.4247,0.8494 -1.91116,5.30878 -1.91116,5.30878s1.48646,-0.8494 2.12351,-2.76057c0.63705,-2.76057 3.60997,-5.94583 3.60997,-5.94583z" id="svg_263"/>
     <path stroke="null" class="st141" d="m165.09192,156.29968c3.18527,-0.21235 10.82991,-4.88408 11.46696,-3.39762c-5.30878,7.64464 -26.33155,19.96101 -26.33155,19.96101l14.86458,-16.56339z" id="svg_264"/>
    </g>
    <path stroke="null" class="st142" d="m163.18076,160.5467c1.27411,0.63705 1.91116,1.48646 1.91116,2.97292c5.52113,-4.24702 21.02277,-16.13869 22.50923,-23.99568c0.4247,-2.33586 -4.24702,-8.49405 -11.46696,0.21235c-8.91875,10.61756 -13.16577,16.56339 -14.65223,20.38571c0.63705,0 1.27411,0.21235 1.69881,0.4247z" id="svg_265"/>
    <g stroke="null" id="svg_266">
     <rect stroke="null" x="215.84386" y="154.38852" class="st146" width="57.75952" height="1.27411" id="svg_267"/>
     <path stroke="null" class="st146" d="m241.326,154.38852c0,0.8494 0.63705,1.69881 1.48646,1.69881l29.72917,0c0.8494,0 1.91116,-0.63705 2.97292,-2.97292l14.65223,-26.75625c0,-1.06176 -0.8494,-1.91116 -1.69881,-1.69881l-30.36622,0.8494c-0.8494,0.21235 -1.48646,0.8494 -1.91116,2.12351l-14.86458,26.75625z" id="svg_268"/>
     <path stroke="null" class="st147" d="m244.93597,155.66262l0,0l-29.09211,0c1.06176,0.63705 2.76057,0.8494 4.67173,0.8494l24.20803,0l0.21235,0l24.20803,0c1.91116,0 3.60997,-0.4247 4.67173,-0.8494l-28.87976,0z" id="svg_269"/>
    </g>
   </g>
  </g>
 </g>
</svg>