<svg width="450" height="449.99999999999994" xmlns="http://www.w3.org/2000/svg">
 <g>
  <title>background</title>
  
 </g>

 <style type="text/css">.st0 {
			fill: url(#SVGID_1_);
		}

		.st1 {
			opacity: 0.3;
		}

		.st2 {
			opacity: 0.4;
			fill: #FFFFFF;
			enable-background: new;
		}

		.st3 {
			opacity: 0.8;
		}

		.st4 {
			opacity: 0.1;
			fill: #FFFFFF;
			enable-background: new;
		}

		.st5 {
			opacity: 0.15;
			fill: #FFFFFF;
			enable-background: new;
		}

		.st6 {
			fill: #E5D9CE;
		}

		.st7 {
			fill: #FFFFFF;
		}

		.st8 {
			opacity: 0.2;
			enable-background: new;
		}

		.st9 {
			opacity: 5.000000e-02;
			enable-background: new;
		}

		.st10 {
			fill: #DC5149;
		}

		.st11 {
			opacity: 0.15;
			enable-background: new;
		}

		.st12 {
			fill: #D4393A;
		}

		.st13 {
			opacity: 8.000000e-02;
			fill: #FFFFFF;
			enable-background: new;
		}

		.st14 {
			opacity: 8.000000e-02;
			enable-background: new;
		}

		.st15 {
			fill: #3D312F;
		}

		.st16 {
			fill: #D9D9D9;
		}

		.st17 {
			fill: #BFBFBF;
		}

		.st18 {
			opacity: 0.6;
		}

		.st19 {
			opacity: 0.5;
			fill: #FFFFFF;
			enable-background: new;
		}

		.st20 {
			fill: #F6F3EF;
		}

		.st21 {
			fill: #00533E;
		}

		.st22 {
			fill: #D14242;
		}

		.st23 {
			fill: #E8D4D4;
		}

		.st24 {
			fill: #BA8666;
		}

		.st25 {
			opacity: 6.000000e-02;
			enable-background: new;
		}

		.st26 {
			fill: #6E473C;
		}

		.st27 {
			fill: #DDD2C0;
		}

		.st28 {
			opacity: 0.1;
			enable-background: new;
		}

		.st29 {
			fill: #C29071;
		}

		.st30 {
			fill: #9F2B2C;
		}

		.st31 {
			fill: #EDBA8E;
		}

		.st32 {
			fill: #DD6161;
		}

		.st33 {
			fill: #F4D6BB;
		}

		.st34 {
			fill: #E0AE82;
		}

		.st35 {
			fill: #E6B993;
		}

		.st36 {
			fill: #25795E;
		}

		.st37 {
			fill: #00674B;
		}

		.st38 {
			fill: #C89E85;
		}

		.st39 {
			fill: #E8B594;
		}

		.st40 {
			fill: #F1C9AE;
		}

		.st41 {
			font-family: 'Arial-BoldMT';
		}

		.st42 {
			font-size: 29.5892px;
		}

		#planea {
			animation: plna linear 12s forwards;
			transform-box: fill-box;
		}

		@keyframes plna {
			0% {
				transform: translate(-256px, -66px);
			}

			10% {
				transform: translate(0px, 0px);
			}

			12% {
				transform: translate(0px, 0px);
			}

			25% {
				transform: translate(824px, -133px) rotate(-36deg);
			}

			100% {
				transform: translate(824px, -133px) rotate(-36deg);
			}
		}

		#boxa {
			
		}

		@keyframes boxa {
			0% {
				visibility: visible;
			}

			10% {
				visibility: hidden;
			}

			100% {
				visibility: hidden;
			}
		}

		#boxah {
			
		}

		@keyframes boxbg {
			0% {
				visibility: hidden;
			}

			10% {
				visibility: hidden;
			}

			11% {
				visibility: visible;
			}

			100% {
				visibility: visible;
			}
		}

			
			
			
			
			/* hand moving part */
			
		#handa {
			
		}

	

			100% {
				
			}
		}</style>
 <g>
  <title>Layer 1</title>
  <text x="-280.16855" y="39.22222" id="svg_2045" class="st7 st41 st42">Big Discount</text>
  <style type="text/css">:root {
        --animate-duration: 1s;
        --animate-delay: 1s;
        --animate-repeat: 1;
      }
      
       .animate__animated {
        -webkit-animation-duration: 1s;
        animation-duration: 1s;
        -webkit-animation-duration: var(--animate-duration);
        animation-duration: var(--animate-duration);
        -webkit-animation-fill-mode: both;
        animation-fill-mode: both;
      }
    @-webkit-keyframes pulse {
            from {
                -webkit-transform: scale3d(1, 1, 1);
                transform: scale3d(1, 1, 1)
            }

            50% {
                -webkit-transform: scale3d(1.05, 1.05, 1.05);
                transform: scale3d(1.05, 1.05, 1.05)
            }

            to {
                -webkit-transform: scale3d(1, 1, 1);
                transform: scale3d(1, 1, 1)
            }
        }
        @keyframes pulse {
          from {
              -webkit-transform: scale3d(1, 1, 1);
              transform: scale3d(1, 1, 1)
          }

          50% {
              -webkit-transform: scale3d(1.05, 1.05, 1.05);
              transform: scale3d(1.05, 1.05, 1.05)
          }

          to {
              -webkit-transform: scale3d(1, 1, 1);
              transform: scale3d(1, 1, 1)
          }
        }
        .animate__pulse {
            -webkit-animation-name: pulse;
            animation-name: pulse
        }
        
    .animate__animated.animate__infinite {
          -webkit-animation-iteration-count: infinite;
          animation-iteration-count: infinite;
        }
    .animate__animated.animate__delay-1s {
          -webkit-animation-delay: 1s;
          animation-delay: 1s;
          -webkit-animation-delay: var(--animate-delay);
          animation-delay: var(--animate-delay);
        }
    .animate__animated.animate__slower {
          -webkit-animation-duration: calc(1s * 8);
          animation-duration: calc(1s * 8);
          -webkit-animation-duration: calc(var(--animate-duration) * 8);
          animation-duration: calc(var(--animate-duration) * 8);
        }</style>
  <style type="text/css">:root {
        --animate-duration: 1s;
        --animate-delay: 1s;
        --animate-repeat: 1;
      }
      
       .animate__animated {
        -webkit-animation-duration: 1s;
        animation-duration: 1s;
        -webkit-animation-duration: var(--animate-duration);
        animation-duration: var(--animate-duration);
        -webkit-animation-fill-mode: both;
        animation-fill-mode: both;
      }
    @-webkit-keyframes pulse {
            from {
                -webkit-transform: scale3d(1, 1, 1);
                transform: scale3d(1, 1, 1)
            }

            50% {
                -webkit-transform: scale3d(1.05, 1.05, 1.05);
                transform: scale3d(1.05, 1.05, 1.05)
            }

            to {
                -webkit-transform: scale3d(1, 1, 1);
                transform: scale3d(1, 1, 1)
            }
        }
        @keyframes pulse {
          from {
              -webkit-transform: scale3d(1, 1, 1);
              transform: scale3d(1, 1, 1)
          }

          50% {
              -webkit-transform: scale3d(1.05, 1.05, 1.05);
              transform: scale3d(1.05, 1.05, 1.05)
          }

          to {
              -webkit-transform: scale3d(1, 1, 1);
              transform: scale3d(1, 1, 1)
          }
        }
        .animate__pulse {
            -webkit-animation-name: pulse;
            animation-name: pulse
        }
        
    .animate__animated.animate__infinite {
          -webkit-animation-iteration-count: infinite;
          animation-iteration-count: infinite;
        }
    
    .animate__animated.animate__slower {
          -webkit-animation-duration: calc(1s * 8);
          animation-duration: calc(1s * 8);
          -webkit-animation-duration: calc(var(--animate-duration) * 8);
          animation-duration: calc(var(--animate-duration) * 8);
        }</style>
  <style type="text/css">:root {
        --animate-duration: 1s;
        --animate-delay: 1s;
        --animate-repeat: 1;
      }
      
       .animate__animated {
        -webkit-animation-duration: 1s;
        animation-duration: 1s;
        -webkit-animation-duration: var(--animate-duration);
        animation-duration: var(--animate-duration);
        -webkit-animation-fill-mode: both;
        animation-fill-mode: both;
      }
    @-webkit-keyframes pulse {
            from {
                -webkit-transform: scale3d(1, 1, 1);
                transform: scale3d(1, 1, 1)
            }

            50% {
                -webkit-transform: scale3d(1.05, 1.05, 1.05);
                transform: scale3d(1.05, 1.05, 1.05)
            }

            to {
                -webkit-transform: scale3d(1, 1, 1);
                transform: scale3d(1, 1, 1)
            }
        }
        @keyframes pulse {
          from {
              -webkit-transform: scale3d(1, 1, 1);
              transform: scale3d(1, 1, 1)
          }

          50% {
              -webkit-transform: scale3d(1.05, 1.05, 1.05);
              transform: scale3d(1.05, 1.05, 1.05)
          }

          to {
              -webkit-transform: scale3d(1, 1, 1);
              transform: scale3d(1, 1, 1)
          }
        }
        .animate__pulse {
            -webkit-animation-name: pulse;
            animation-name: pulse
        }
        
    .animate__animated.animate__infinite {
          -webkit-animation-iteration-count: infinite;
          animation-iteration-count: infinite;
        }
    
    .animate__animated.animate__slower {
          -webkit-animation-duration: calc(1s * 8);
          animation-duration: calc(1s * 8);
          -webkit-animation-duration: calc(var(--animate-duration) * 8);
          animation-duration: calc(var(--animate-duration) * 8);
        }</style>
  <g id="svg_4" class="animate__animated animate__pulse animate__infinite animate__slower">
   <g id="svg_3">
    <g id="svg_1944">
     <g id="svg_1945">
      <g id="svg_1946">
       <g id="svg_1947">
        <polygon id="svg_1948" points="240.3314666748047,94.4555587768555 246.8314666748047,94.65555572509768 246.63145446777344,99.15555572509768 252.13145446777344,99.35555267333987 252.53147888183594,87.35555267333987 240.53147888183594,87.75555419921878 " class="st16"/>
       </g>
       <path id="svg_1949" d="m209.63145,98.65556c0,1 0.8,1.8 1.8,1.9l19.2,0.6c1,0 1.8,-0.8 1.9,-1.8l0.4,-12.8l-22.8,-0.7l-0.5,12.8z" class="st16"/>
       <g id="svg_1950">
        <path id="svg_1951" d="m188.03145,110.65556c-0.3,3.6 -0.3,8.1 -0.3,8.1s1.3,3.5 3.7,5.6l0.5,-15.2l5.9,-11.6l-5.5,-0.2c0,0 -4,9.6 -4.3,13.3z" class="st15"/>
       </g>
       <g id="svg_1952">
        <path id="svg_1953" d="m160.53145,77.85556l-12.2,-0.4c-2.2,-0.1 -4.1,1.7 -4.2,3.9s1.7,4.1 3.9,4.2l16.2,0.5l0.1,-4.1c0.2,-2.2 -1.6,-4 -3.8,-4.1z" class="st15"/>
       </g>
       <g id="svg_1954">
        <polygon id="svg_1955" points="192.3314666748047,97.35555267333987 197.73146057128906,97.55554962158206 197.9314727783203,93.05554962158206 204.4314727783203,93.25555419921878 204.63145446777344,86.55554962158206 192.73146057128906,85.35555267333987 " class="st16"/>
       </g>
       <g id="svg_1956">
        <g id="svg_1957">
         <polygon id="svg_1958" points="147.3314666748047,77.55554962158206 160.23146057128906,77.95555114746097 160.53147888183594,72.35555267333987 147.63145446777344,71.85555267333987 " class="st7"/>
        </g>
        <g id="svg_1959">
         <g id="svg_1960">
          <polygon id="svg_1961" points="152.3314666748047,72.05554962158206 155.53147888183594,72.15555572509768 155.9314727783203,64.55554962158206 152.73146057128906,64.45555114746097 " class="st16"/>
         </g>
         <g id="svg_1962">
          <rect id="svg_1963" height="5.7" width="3.9" class="st7" transform="matrix(0.0326135,-0.9995,0.9995,0.0326135,414.24,447.988) " y="-275.0944" x="374.80694"/>
         </g>
         <g id="svg_1964">
          <path id="svg_1965" d="m154.63145,57.45556c-1.6,-0.1 -2.9,1.2 -2.9,2.8l0,0.3l5.7,0.2l0,-0.3c0,-1.6 -1.3,-3 -2.8,-3z" class="st7"/>
         </g>
        </g>
       </g>
       <g id="svg_1966">
        <g id="svg_1967" class="st18">
         <g id="svg_1968">
          <rect id="svg_1969" height="8.7" width="4" class="st7" transform="matrix(0.0326199,-0.9995,0.9995,0.0326199,425.128,494.805) " y="-258.89394" x="404.40515"/>
         </g>
         <g id="svg_1970">
          <g id="svg_1971">
           <rect id="svg_1972" height="2.2" width="5.2" class="st7" transform="matrix(0.0325702,-0.9995,0.9995,0.0325702,429.435,490.867) " y="-259.79747" x="403.91906"/>
          </g>
          <g id="svg_1973">
           <rect id="svg_1974" height="3.8" width="2.6" class="st7" transform="matrix(0.0326134,-0.9995,0.9995,0.0326134,433.41,487.244) " y="-264.4944" x="405.30696"/>
          </g>
          <g id="svg_1975">
           <path id="svg_1976" d="m184.33145,68.85556c-1.1,0 -1.9,0.8 -2,1.9l0,0.2l3.8,0.1l0,-0.2c0.1,-1.1 -0.7,-2 -1.8,-2z" class="st7"/>
          </g>
         </g>
        </g>
        <g id="svg_1977" class="st18">
         <g id="svg_1978">
          <rect id="svg_1979" height="8.7" width="4" class="st7" transform="matrix(0.0326199,-0.9995,0.9995,0.0326199,499.08,576.5) " y="-256.19394" x="483.60515"/>
         </g>
         <g id="svg_1980">
          <g id="svg_1981">
           <rect id="svg_1982" height="2.2" width="5.2" class="st7" transform="matrix(0.032607,-0.9995,0.9995,0.032607,503.474,572.467) " y="-257.29485" x="483.10877"/>
          </g>
          <g id="svg_1983">
           <rect id="svg_1984" height="3.8" width="2.6" class="st7" transform="matrix(0.0326134,-0.9995,0.9995,0.0326134,507.466,568.847) " y="-261.8944" x="484.50696"/>
          </g>
          <g id="svg_1985">
           <path id="svg_1986" d="m263.53145,71.45556c-1.1,0 -1.9,0.8 -2,1.9l0,0.2l3.8,0.1l0,-0.2c0.1,-1.1 -0.7,-2 -1.8,-2z" class="st7"/>
          </g>
         </g>
        </g>
       </g>
       <g id="svg_1987">
        <path id="svg_1988" d="m252.13145,99.35556l-5.5,-0.2l5.1,11.9l-0.5,15.2c2.5,-1.9 4,-5.3 4,-5.3s0.3,-4.5 0.3,-8.1c-0.1,-3.7 -3.4,-13.5 -3.4,-13.5z" class="st15"/>
       </g>
       <g id="svg_1989">
        <polygon id="svg_1990" points="195.73146057128906,81.85555267333987 156.4314727783203,80.55554962158206 156.23146057128906,85.85555267333987 197.73146057128906,87.15555572509768 209.8314666748047,94.05554962158206 232.9314422607422,94.65555572509768 245.8314666748047,89.4555587768555 291.13145446777344,90.25555419921878 291.2314910888672,84.9555587768555 250.63145446777344,83.65555572509768 " class="st15"/>
       </g>
       <g id="svg_1991">
        <path id="svg_1992" d="m224.03145,61.05556l-0.2,0c-19.2,-0.6 -26.5,17.4 -27.8,20.2l54.5,1.8c-1.3,-2.8 -7.3,-21.3 -26.5,-22z" class="st7"/>
       </g>
       <g id="svg_1993">
        <path id="svg_1994" d="m222.93145,79.55556c-7.9,0.4 -16.6,-0.5 -23.8,-4.3c-1.8,2.8 -3.4,5.7 -3.8,6.6l55.4,1.8c-0.5,-1.2 -2.3,-6 -5.4,-10.5c-6.3,4.5 -14.7,6 -22.4,6.4z" class="st16"/>
       </g>
       <g id="svg_1995">
        <path id="svg_1996" d="m297.23145,82.35556l-12.2,-0.4c-2.2,-0.1 -4.1,1.7 -4.2,3.9l-0.1,4.1l16.2,0.5c2.2,0.1 4.1,-1.7 4.2,-3.9l0,0c0.1,-2.3 -1.6,-4.2 -3.9,-4.2z" class="st15"/>
       </g>
       <g id="svg_1997">
        <g id="svg_1998">
         <polygon id="svg_1999" points="285.13145446777344,81.95555114746097 298.03147888183594,82.35555267333987 298.3314666748047,76.85555267333987 285.4314422607422,76.35555267333987 " class="st7"/>
        </g>
        <g id="svg_2000">
         <g id="svg_2001">
          <polygon id="svg_2002" points="290.2314910888672,76.65555572509768 293.4314422607422,76.75555419921878 293.7314910888672,69.05554962158206 290.53147888183594,68.95555114746097 " class="st16"/>
         </g>
         <g id="svg_2003">
          <rect id="svg_2004" height="5.7" width="3.9" class="st7" transform="matrix(0.0326135,-0.9995,0.9995,0.0326135,543.062,590.016) " y="-270.6944" x="512.60694"/>
         </g>
         <g id="svg_2005">
          <path id="svg_2006" d="m292.33145,61.95556c-1.6,-0.1 -2.9,1.2 -2.9,2.8l0,0.3l5.7,0.2l0,-0.3c0,-1.6 -1.2,-3 -2.8,-3z" class="st7"/>
         </g>
        </g>
       </g>
      </g>
      <g id="svg_2007">
       <path id="svg_2008" d="m154.43145,56.05556c-14.9,-0.5 -27.1,0.8 -27.2,2.9s12,4.2 26.9,4.7s27.1,-0.8 27.2,-2.9s-11.9,-4.2 -26.9,-4.7z" class="st2"/>
       <path id="svg_2009" d="m127.33145,58.95556c0,1.4 5,2.7 12.5,3.6l14.5,-2.8l-14.3,-3.7c-7.6,0.5 -12.7,1.5 -12.7,2.9z" class="st19"/>
       <path id="svg_2010" d="m171.03145,57.35556l-14.8,2.8l14.6,3.2c6.4,-0.5 10.5,-1.4 10.5,-2.7c0.1,-1.1 -4,-2.4 -10.3,-3.3z" class="st19"/>
      </g>
      <g id="svg_2011">
       <path id="svg_2012" d="m291.73145,61.45556c-14.9,-0.5 -27.1,0.8 -27.2,2.9c-0.1,2.1 12,4.2 26.9,4.7s27.1,-0.8 27.2,-2.9c0.1,-2.1 -11.9,-4.2 -26.9,-4.7z" class="st2"/>
       <path id="svg_2013" d="m264.63145,64.35556c0,1.4 5,2.7 12.5,3.6l14.5,-2.8l-14.3,-3.7c-7.6,0.5 -12.7,1.5 -12.7,2.9z" class="st19"/>
       <path id="svg_2014" d="m308.33145,62.75556l-14.8,2.8l14.6,3.2c6.4,-0.5 10.5,-1.4 10.5,-2.7c0.1,-1.2 -4,-2.4 -10.3,-3.3z" class="st19"/>
      </g>
      <g id="svg_2015" class="st18">
       <path id="svg_2016" d="m263.53145,70.45556c-9.9,-0.3 -17.9,0.5 -17.9,1.9s7.9,2.8 17.8,3.1c9.9,0.3 17.9,-0.5 17.9,-1.9c0,-1.4 -8,-2.8 -17.8,-3.1z" class="st2"/>
       <path id="svg_2017" d="m245.53145,72.35556c0,0.9 3.3,1.8 8.3,2.4l9.6,-1.8l-9.5,-2.4c-5,0.2 -8.3,0.9 -8.4,1.8z" class="st19"/>
       <path id="svg_2018" d="m274.43145,71.35556l-9.8,1.8l9.6,2.1c4.2,-0.3 6.9,-1 7,-1.8c0.1,-0.7 -2.6,-1.5 -6.8,-2.1z" class="st19"/>
      </g>
      <g id="svg_2019" class="st18">
       <path id="svg_2020" d="m183.63145,67.85556c-9.9,-0.3 -17.9,0.5 -17.9,1.9s7.9,2.8 17.8,3.1c9.9,0.3 17.9,-0.5 17.9,-1.9s-7.9,-2.8 -17.8,-3.1z" class="st2"/>
       <path id="svg_2021" d="m165.73145,69.75556c0,0.9 3.3,1.8 8.3,2.4l9.6,-1.8l-9.5,-2.4c-5,0.2 -8.4,0.9 -8.4,1.8z" class="st19"/>
       <path id="svg_2022" d="m194.63145,68.75556l-9.8,1.8l9.6,2.1c4.2,-0.3 6.9,-1 7,-1.8c0.1,-0.7 -2.6,-1.5 -6.8,-2.1z" class="st19"/>
      </g>
     </g>
    </g>
    <rect id="svg_2023" height="211.1" width="151" class="st10" transform="matrix(0.00598978,-1,1,0.00598978,359.614,647.787) " y="-246.33558" x="374.51101"/>
    <g id="svg_2024">
     <path id="svg_2025" d="m204.53145,125.85556c-4.1,13.1 -20.7,11.3 -30.8,7.8c-10.3,-3.6 -21.4,-9.5 -32.6,-6c-6.4,2 -13.3,9.4 -8.1,16c4.2,5.3 15.5,8.2 19,0.7c1.2,-2.6 0.9,-6.3 -2.3,-7.1c-2.9,-0.8 -5.5,1.2 -5.9,4c-0.2,1.6 1.5,0.6 1.7,-0.4c0.3,-1.7 2.9,-1.7 3.9,-1.1c0.3,0.3 0.7,0.6 1,0.9c-1,2 -2,3.9 -3,5.9c-2.3,1.3 -6.6,-0.3 -8.7,-1.3s-4,-2.4 -5.1,-4.5c-2,-4.1 1.2,-8.1 4.9,-9.9c9.9,-5 21.9,0.6 31.3,4.1c7.5,2.8 15.6,5.2 23.5,2.9c5.9,-1.7 10.8,-5.7 12.7,-11.7c0.5,-1.6 -1.1,-1.5 -1.5,-0.3z" class="st7"/>
    </g>
    <g id="svg_2026">
     <path id="svg_2027" d="m304.03145,128.45556c-11,-3.2 -21.8,3.3 -31.3,7.9c-10.3,5 -28,9.4 -33.9,-4.5c-0.5,-1.1 -2,0.6 -1.7,1.4c2.6,6.2 8.7,9.5 15.2,10.2c8.4,0.8 16.3,-3.1 23.6,-6.8c8.7,-4.3 20.7,-10.3 30.3,-4.8c2,1.2 4.2,3.1 4.7,5.5c1,4.2 -2.6,7.1 -5.8,8.6c-3,1.4 -6.8,2.3 -9.6,0c-3.6,-2.9 2,-8.9 3.3,-3.7c0.3,1.2 1.9,-0.6 1.7,-1.4c-1.5,-5.8 -9.7,-1.9 -8.6,3.4c1.7,9 14.1,4.5 18.2,0.1c5.7,-6.1 1.3,-13.8 -6.1,-15.9z" class="st7"/>
    </g>
    <g id="svg_2028">
     <g id="svg_2029">
      <path id="svg_2030" d="m204.53145,119.55556c-4.7,3.8 -11.9,8.7 -11.9,8.7l9.3,2.3l0.3,10.3c0,0 10.5,-8 13.3,-11.4c2.4,-2.8 4.5,-7.5 5.6,-13.8l-2.9,-2c0.1,0.1 -9.1,2.2 -13.7,5.9z" class="st20"/>
      <path id="svg_2031" d="m204.53145,119.55556c-1.6,1.3 -3.4,2.6 -5.2,3.9c3.6,0.6 7.3,0.8 11,0.6c1.7,-0.2 3.4,-0.5 5.1,-1c1.4,-0.5 2.7,-1.1 4,-1.8c0.1,-0.1 0.3,-0.1 0.4,-0.2c0.5,-1.6 1,-3.4 1.3,-5.4l-2.9,-2c0.1,0.1 -9.1,2.2 -13.7,5.9z" class="st11"/>
     </g>
     <g id="svg_2032">
      <path id="svg_2033" d="m224.33145,114.05556l-3.1,1.7c0.4,6.3 2,11.2 4.1,14.3c2.5,3.6 12,12.8 12,12.8l1.4,-10.2l9.5,-1.3c0,0 -6.6,-5.6 -10.9,-9.9c-4.2,-4.3 -13,-7.4 -13,-7.4z" class="st20"/>
      <path id="svg_2034" d="m224.33145,114.05556l-3.1,1.7c0.1,2 0.4,3.8 0.7,5.5c0.1,0.1 0.3,0.2 0.4,0.2c1.2,0.8 2.5,1.5 3.8,2.2c1.6,0.7 3.3,1.2 5,1.6c3.6,0.6 7.3,0.8 11,0.6c-1.6,-1.5 -3.3,-3 -4.7,-4.5c-4.3,-4.2 -13.1,-7.3 -13.1,-7.3z" class="st11"/>
     </g>
     <g id="svg_2035">
      <path id="svg_2036" d="m209.73145,104.65556c-2.9,-0.8 -4.7,-1.3 -5.8,-1.6c-0.9,-0.2 -1.8,0.2 -2,1.1l-4.1,14c-0.2,0.8 0.2,1.7 0.9,2c1.6,0.7 4.4,1.7 7.8,1.9c4.1,0.3 11,-2.2 13.5,-3.3c0.6,-0.2 1,-0.8 1,-1.4l0.1,-2.3c0,-0.3 -0.1,-0.7 -0.2,-1c-1.1,-1.7 -5.3,-7.8 -11.2,-9.4z" class="st20"/>
      <path id="svg_2037" d="m242.03145,106.25556c-0.2,-0.9 -1,-1.5 -1.9,-1.3c-1.1,0.2 -2.9,0.5 -5.9,1c-6.1,1 -10.9,6.6 -12.1,8.1c-0.2,0.3 -0.3,0.6 -0.4,0.9l-0.1,2.3c0,0.6 0.3,1.2 0.9,1.5c2.4,1.3 8.9,4.6 13.1,4.7c3.3,0.1 6.3,-0.6 7.9,-1.1c0.8,-0.2 1.3,-1 1.1,-1.9l-2.6,-14.2z" class="st20"/>
      <path id="svg_2038" d="m241.63145,115.45556c-0.5,-2 -0.3,-4 -0.3,-6l0,-0.1c0,0 0,0 0,-0.1c0,-0.2 -0.1,-0.5 -0.1,-0.7c0,-0.3 0,-2.1 -2.3,-2.2c-0.4,0 -4.4,-0.2 -10.5,2.8c-0.5,0.3 -3.6,2.4 -3.6,2.5l0,0c0.9,-0.3 1.8,-0.4 2.7,-0.6c2.3,-0.3 5.5,-0.5 7.1,1.4c1.3,1.5 1.1,3.5 0,5l0,0l0,0c0,0.1 0.6,1.3 4.9,1.6c3.1,0.2 2.8,-1.3 2.8,-1.4c-0.3,-0.6 -0.5,-1.4 -0.7,-2.2z" class="st13"/>
      <path id="svg_2039" d="m214.73145,109.05556c-5.7,-3.7 -9.7,-3.9 -10.1,-3.9c-2.3,-0.1 -2.5,1.6 -2.5,1.9c-0.1,0.2 -0.1,0.4 -0.2,0.7c0,0 0,0 0,0.1c0,0 0,0 0,0.1c-0.2,2 -0.3,4 -1,6c-0.3,0.8 -0.6,1.5 -1,2.3c0,0.1 -0.5,1.6 2.6,1.7c4.3,0.2 5,-0.9 5,-1l0,0l0,0c-0.9,-1.6 -0.9,-3.7 0.5,-5c1.9,-1.8 5,-1.2 7.3,-0.7c0.9,0.2 1.8,0.5 2.7,0.8l0,0c0,-0.3 -2.8,-2.7 -3.3,-3z" class="st13"/>
      <path id="svg_2040" d="m215.13145,117.75556c3.7,-1.3 5.9,-1.2 5.9,-1.2l0.1,-1.6c0,0 -6.3,-3.2 -8.6,-3.7c-5.3,-1 -4.9,9.2 2.6,6.5z" class="st14"/>
      <path id="svg_2041" d="m222.63145,115.05556l-0.1,1.8c0,0 2.3,0.9 6.6,2.1c4.5,1.3 5.1,-4 3.2,-6c-1.5,-1.6 -9.7,2.1 -9.7,2.1z" class="st14"/>
     </g>
     <path id="svg_2042" d="m221.63145,112.35556c-1,-0.1 -1.9,0.7 -2,1.8l-0.2,3.4c-0.1,1 0.7,1.9 1.8,2s1.9,-0.7 2,-1.8l0.2,-3.4c0,-1 -0.8,-1.9 -1.8,-2z" class="st7"/>
     <path id="svg_2043" d="m220.53145,116.35556c-0.2,-0.4 -0.3,-0.8 -0.2,-1.3c0,-0.5 0.1,-1 0.1,-1.5c0,-0.4 0.1,-0.8 0.3,-1.1c-0.6,0.2 -1,0.7 -1.1,1.3l-0.2,4.2c0,0.8 0.6,1.5 1.4,1.6l0.8,0c0.7,0 1.3,-0.4 1.5,-1c-0.7,-0.1 -1.4,-0.5 -1.9,-1c-0.3,-0.4 -0.6,-0.7 -0.7,-1.2z" class="st14"/>
    </g>
    <g id="svg_5" class="animate__animated animate__pulse animate__infinite animate__delay-1s animate__slower">
     <text fill="#fafafa" stroke-width="null" stroke-opacity="null" fill-opacity="null" x="196.59906" y="188.2865" id="svg_1" font-size="20" font-family="'Palatino Linotype'" text-anchor="start" xml:space="preserve" transform="matrix(1.4639255754268414,0,0,1.4639255754268414,-133.56322974871176,-81.5952540209617) " stroke="null" font-weight="bold"></text>
    </g>
    <g id="svg_6" class="animate__animated animate__pulse animate__infinite animate__slower">
     <text fill="#fafafa" stroke-width="null" stroke-opacity="null" fill-opacity="null" x="144.85698" y="226.83801" id="svg_2" font-size="20" font-family="'Palatino Linotype'" text-anchor="start" xml:space="preserve" transform="matrix(1.22890787023033,0,0,1.22890787023033,-38.782093654929824,-48.35575177611046) " stroke="null" font-weight="bold"></text>
    </g>
   </g>
  </g>
 </g>
</svg>