<?xml version="1.0" encoding="utf-8"?>
<!-- Generator: Adobe Illustrator 17.0.0, SVG Export Plug-In . SVG Version: 6.00 Build 0)  -->
<!DOCTYPE svg PUBLIC "-//W3C//DTD SVG 1.1//EN" "http://www.w3.org/Graphics/SVG/1.1/DTD/svg11.dtd">
<svg version="1.1" id="Layer_1" xmlns="http://www.w3.org/2000/svg" xmlns:xlink="http://www.w3.org/1999/xlink" x="0px" y="0px"
	 width="300px" height="300px" viewBox="0 0 300 300" enable-background="new 0 0 300 300" xml:space="preserve">
<path fill="#1E1E1D" stroke="#000000" stroke-linecap="round" stroke-linejoin="round" stroke-miterlimit="10" d="M100.117,96.366
	c-1.224,0.184-3.691,3.471-4.297,4.628c-0.606,1.157-1.322,2.755-0.937,4.187c0.386,1.432,1.983,3.14,2.865,3.746
	c0.881,0.606,1.543,3.25,1.322,3.801c-0.22,0.551-0.992,1.818-0.331,2.7c0.661,0.881,6.391-3.636,8.044-4.848
	s2.92-6.115,2.369-7.162c-0.551-1.047-3.03-4.683-4.077-5.509C104.028,97.083,103.422,95.871,100.117,96.366z"/>
<path fill="#FFFFFF" stroke="#000000" stroke-linecap="round" stroke-linejoin="round" stroke-miterlimit="10" d="M111.686,102.757
	c-1.65,0.151-4.738,0.661-6.226,1.763c-1.488,1.102-4.132,4.407-4.407,5.179c-0.275,0.771,0,4.187,1.873,4.793
	c1.873,0.606,19.503-3.14,19.448-3.857s-2.589-3.967-4.132-5.289C116.7,104.024,113.916,102.553,111.686,102.757z"/>
<path fill="#1E1E1D" stroke="#000000" stroke-linecap="round" stroke-linejoin="round" stroke-miterlimit="10" d="M66.4,93.997
	c-0.665,0.762-1.818,7.713-1.818,8.65c0,0.937-1.322,2.975-1.818,4.352c-0.496,1.377,0.11,8.594,0.826,9.531
	c0.716,0.937,3.581,5.895,4.903,6.336c1.322,0.441,6.446,0.826,8.154-2.81c1.708-3.636,0.606-8.759,0.551-11.487
	s-0.551-7.851-0.055-9.559s0.331-4.738-1.212-5.785C74.388,92.179,70.201,89.645,66.4,93.997z"/>
<path fill="#FFFFFF" stroke="#000000" stroke-linecap="round" stroke-linejoin="round" stroke-miterlimit="10" d="M76.926,101.82
	c-1.109-0.068-2.428-0.275-3.529,0.386c-1.102,0.661-4.738,3.766-5.013,5.133c-0.275,1.368-0.661,4.343,0.606,5.83
	c1.267,1.488,3.936,5.584,5.399,6.832s5.124,5.73,5.509,6.501s6.832,9.917,7.658,11.129c0.826,1.212,10.082,8.76,12.231,8.87
	c2.149,0.11,7.878,1.267,10.192,0.22s11.57-16.473,13.002-17.244c1.432-0.771,18.236-9.862,18.181-10.743
	c-0.055-0.881-2.259-4.793-3.967-6.666c-1.708-1.873-10.357-5.675-11.184-5.84c-0.826-0.165-4.017-0.496-4.623-0.109
	c-0.606,0.387-6.175,3.47-7.773,4.131c-1.598,0.661-6.611,1.763-8.209,2.204c-1.598,0.441-6.06,2.706-6.887,3.088
	s-2.369,0.609-3.361,0c-0.992-0.609-1.543-1.38-3.526-3.143c-1.983-1.763-7.107-5.454-7.988-6.005
	c-0.881-0.551-0.937-1.212-2.149-2.149C80.283,103.308,78.528,101.918,76.926,101.82z"/>
<path fill="none" stroke="#000000" stroke-linecap="round" stroke-linejoin="round" stroke-miterlimit="10" d="M106.507,139.394
	c-0.771,0-4.683-1.047-6.17-1.267c-1.488-0.22-7.878-0.771-9.531-1.708c-1.653-0.937-6.556-6.942-7.493-8.099
	c-0.937-1.157-4.709-6.556-5.715-8.374c-1.006-1.818-5.855-9.035-6.35-10.247c-0.496-1.212-1.373-3.683-2.174-3.577"/>
<path fill="none" stroke="#000000" stroke-linecap="round" stroke-linejoin="round" stroke-miterlimit="10" d="M86.619,118.018
	c1.157-0.22,8.705-1.488,9.476-1.377"/>
<path fill="none" stroke="#000000" stroke-linecap="round" stroke-linejoin="round" stroke-miterlimit="10" d="M113.422,110.323
	c0,0,3.773,5.05,3.884,5.822"/>
<path fill="#1F2234" stroke="#000000" stroke-linecap="round" stroke-linejoin="round" stroke-miterlimit="10" d="M109.283,121.819
	c-0.574,0.112-4.596,5.289-4.65,5.73s1.563,2.369,2.325,2.038c0.762-0.331,5.023-4.333,4.711-5.142
	C111.356,123.637,110.13,121.654,109.283,121.819z"/>
<path fill="#FFFFFF" stroke="#000000" stroke-linecap="round" stroke-linejoin="round" stroke-miterlimit="10" d="M115.364,120.277
	c-1.311,0.244-5.014,3.995-6.081,5.441c-1.067,1.446-4.042,9.655-4.042,10.426s0.165,4.518,0.716,5.84
	c0.551,1.322,4.738,6.556,5.95,6.942s2.452,1.157,3.457,1.598c1.005,0.441,4.972,1.267,6.184,1.653s3.471,1.488,6.226,1.432
	c2.755-0.055,14.655-0.826,16.363-1.102c1.708-0.275,10.688-2.094,13.167-3.306c2.479-1.212,8.65-5.73,10.082-5.013
	s4.573,0.496,5.013,1.377c0.441,0.881,1.267,5.013,2.534,5.564s15.701-4.903,15.371-5.73c-0.331-0.826-2.7-5.234-3.195-6.226
	c-0.496-0.992-1.983-2.975-1.983-4.352s0.165-1.873-0.441-2.589c-0.606-0.716-0.496,0-1.708-2.204
	c-1.212-2.204-8.099-8.484-8.539-9.035c-0.441-0.551-2.7-1.047-4.738-1.983c-2.038-0.937-13.057-5.895-15.536-6.005
	c-2.479-0.11-9.311-0.331-10.137,0c-0.826,0.331-4.187,2.81-5.289,2.975c-1.102,0.165-4.683,0.992-6.115,1.267
	s-5.895,1.157-6.997,1.212S118.325,119.726,115.364,120.277z"/>
<path fill="#F8D3AD" stroke="#000000" stroke-linecap="round" stroke-linejoin="round" stroke-miterlimit="10" d="M130.582,156.9
	c-0.154,0.346-0.149,2.38,0.446,3.346c0.595,0.967,1.636,2.528,1.71,3.644c0.074,1.115,1.115,4.09,1.339,4.982
	c0.223,0.892-0.297,1.933,0,4.313c0.297,2.38,1.703,11.601,2.339,13.609c0.636,2.008,3.61,11.898,3.238,12.196
	c-0.372,0.297-0.595,2.826-0.669,3.941c-0.074,1.115-0.159,3.421,0.701,3.569c0.86,0.149,1.678-0.744,2.273,0
	s1.933,1.636,2.603,1.71c0.669,0.074,4.164-0.074,4.313-0.297c0.149-0.223,0-2.677,0.892-2.082s4.09,3.459,4.387,2.399
	c0.297-1.06,0-2.771,0.669-2.473s4.834,0.967,4.834,0.297c0-0.669-0.669-1.785-2.082-2.9c-1.413-1.115-9.202-4.387-9.249-6.172
	s-1.311-11.422-1.162-14.3c0.149-2.878-1.339-12.396-1.339-13.14s2.305-7.436,1.562-9.072
	C146.645,158.833,131.474,154.892,130.582,156.9z"/>
<path fill="none" stroke="#000000" stroke-linecap="round" stroke-linejoin="round" stroke-miterlimit="10" d="M142.034,203.079
	c0,0-0.134,2.237-0.587,3.126"/>
<path fill="none" stroke="#000000" stroke-linecap="round" stroke-linejoin="round" stroke-miterlimit="10" d="M145.678,204.643
	c0,0-0.043,3.592,0.607,3.561"/>
<path fill="none" stroke="#000000" stroke-linecap="round" stroke-linejoin="round" stroke-miterlimit="10" d="M153.114,203.972
	c0,0,0.372,1.859,1.71,1.785"/>
<path fill="#FFFFFF" stroke="#000000" stroke-linecap="round" stroke-linejoin="round" stroke-miterlimit="10" d="M129.02,133.549
	c-1.868,0.305-3.346,4.476-3.793,5.844c-0.446,1.369-1.041,2.782-0.521,4.492c0.521,1.71,1.819,6.804,2.055,8.254
	s1.886,3.941,1.812,4.536c-0.074,0.595,0.669,2.082,1.785,1.933s11.675,0.297,12.121,0.595s5.235,2.305,5.295,2.305
	s-0.208-2.528,0-4.908c0.208-2.38-0.907-8.031-1.279-9.072c-0.372-1.041,0.223-2.38,0.892-3.867
	c0.669-1.487,1.517-4.536,0.387-6.172c-1.13-1.636-7.377-5.652-9.459-5.875C136.234,131.393,132.664,132.955,129.02,133.549z"/>
<path fill="#F8D3AD" stroke="#000000" stroke-linecap="round" stroke-linejoin="round" stroke-miterlimit="10" d="M185.3,142.474
	c-3.085-0.487-8.687,5.277-9.255,6.089c-0.568,0.812-1.299,2.192,0.406,3.085c1.705,0.893,2.675,1.948,3.895,2.76
	c1.22,0.812,2.356,1.542,3.412,3.329c1.055,1.786,3.166,3.325,4.952,3.773c1.786,0.448,9.011,4.589,14.776,3.858
	c5.764-0.731,6.657-5.439,6.576-5.926c-0.081-0.487-3.491-2.464-4.871-3.099c-1.38-0.635-3.734-2.502-5.033-4.451
	s-2.841-2.517-4.384-3.004c-1.543-0.487-4.796-2.942-5.463-3.897S186.663,142.69,185.3,142.474z"/>
<path fill="#352E28" stroke="#000000" stroke-linecap="round" stroke-linejoin="round" stroke-miterlimit="10" d="M220.858,144.179
	c-2.312,0.925-4.465,4.14-6.089,6.008c-1.624,1.867-6.332,7.307-7.631,9.011c-1.299,1.705-4.465,8.118-3.41,9.499
	c1.055,1.38,12.99,4.628,19.078,2.354c6.089-2.273,14.938-10.148,14.207-14.288c-0.731-4.14-3.734-9.823-5.196-10.879
	C230.357,144.829,226.541,141.906,220.858,144.179z"/>
<ellipse fill="#FFFFFF" stroke="#000000" stroke-linecap="round" stroke-linejoin="round" stroke-miterlimit="10" cx="211.794" cy="159.702" rx="5.468" ry="5.752"/>
<path fill="#171818" stroke="#000000" stroke-linecap="round" stroke-linejoin="round" stroke-miterlimit="10" d="M212.578,164.313
	c-0.811-0.032-3.897,1.867-5.439,2.354c-1.543,0.487-3.346,1.461-3.622,2.03c-0.275,0.568-0.519,2.707,0.78,3.14
	c1.299,0.432,4.79,1.813,8.281,1.975c3.491,0.162,6.65,0,7.709,0s1.14-0.406,5.199-1.461c4.059-1.055,6.901-2.273,8.362-4.628
	c1.461-2.354,2.683-3.491,3.209-5.683c0.526-2.192,0.433-7.174,0-7.063c-0.433,0.111-1.26,0.104-1.585,2.609
	s-1.624,4.941-3.166,5.753c-1.543,0.812-3.816,2.354-6.495,2.841c-2.679,0.487-5.277,0.893-6.332,0.244
	C218.423,165.774,214.607,164.394,212.578,164.313z"/>
<path fill="#F8D3AD" stroke="#000000" stroke-linecap="round" stroke-linejoin="round" stroke-miterlimit="10" d="M162.042,131.594
	c-0.913-0.43-5.96,4.798-6.576,4.49s-4.213-11.499-4.624-12.942c-0.411-1.443-0.925-8.715-0.822-9.908s0.925-4.944,2.363-5.894
	s8.323-2.594,10.892-2.183s13.871,1.695,13.358,2.183c-0.514,0.488-1.046,2.852-1.242,3.468c-0.196,0.617-0.402,3.611-0.402,4.734
	s-2.877,3.951-3.083,5.054s-1.233,4.597-1.541,5.624s-1.541,6.576-4.11,6.268C163.686,132.18,162.762,131.934,162.042,131.594z"/>
<path fill="#F8D3AD" stroke="#000000" stroke-linecap="round" stroke-linejoin="round" stroke-miterlimit="10" d="M154.233,116.145
	c-0.308,0.314-1.233,1.075-1.85,0.489c-0.617-0.586-3.699-4.843-2.877-6.311c0.822-1.468,0-2.396,3.185-1.675"/>
<path fill="none" stroke="#000000" stroke-linecap="round" stroke-linejoin="round" stroke-miterlimit="10" d="M168.721,119.336
	c0.411,0,3.431,0.599,3.868,0c0.437-0.599,0.169-3.068,0-3.794c-0.169-0.727-1.094-4.015-1.094-4.015"/>
<path fill="none" stroke="#000000" stroke-linecap="round" stroke-linejoin="round" stroke-miterlimit="10" d="M168.429,112.523
	c0,0-1.22,0-3.15,0.306"/>
<path fill="none" stroke="#000000" stroke-linecap="round" stroke-linejoin="round" stroke-miterlimit="10" d="M162.042,131.594
	c-0.925-1.161-2.98-3.524-4.007-4.86"/>
<path fill="#F09391" stroke="#000000" stroke-linecap="round" stroke-linejoin="round" stroke-miterlimit="10" d="M170.515,125.717
	c0,0,0.989-2.092,0.259-2.1c-2.345-0.027-4.827,0.233-4.724,0.801c0.103,0.569,2.933,2.418,3.447,2.316
	C170.01,126.631,170.515,125.717,170.515,125.717z"/>
<path fill="#387392" stroke="#000000" stroke-linecap="round" stroke-linejoin="round" stroke-miterlimit="10" d="M175.918,105.896
	c0,0,0.469-6.323-0.938-8.668c-1.407-2.345-3.095-4.22-5.721-4.408c-2.626-0.188-11.007,0-11.224,0s-7.586,3.657-8.028,5.064
	c-0.442,1.407-1.454,10.483,0,10.513s3.966,0.366,4.997,0.647c1.032,0.281,6.283,0.375,8.909,0
	C166.54,108.67,175.845,107.906,175.918,105.896z"/>
<path fill="#387392" stroke="#000000" stroke-linecap="round" stroke-linejoin="round" stroke-miterlimit="10" d="M171.322,105.092
	c-1.321,0.095-12.098,1.515-13.88,1.796c-1.782,0.281-5.158,1.433-0.844,2.404c4.314,0.972,7.409,2.472,8.628,1.722
	c1.219-0.75,7.315-2.389,8.534-2.367c1.219,0.022,3.095-0.96,4.314,0c1.219,0.96,4.033,1.736,3.189,0.645
	c-0.844-1.091-4.899-3.934-5.872-4.201C174.417,104.825,174.021,104.897,171.322,105.092z"/>
<path fill="none" stroke="#000000" stroke-linecap="round" stroke-linejoin="round" stroke-miterlimit="10" d="M175.205,112.013
	c-0.493,0.006-1.81-0.19-2.379,0"/>
</svg>
