<?xml version="1.0" encoding="utf-8"?>
<!-- Generator: Adobe Illustrator 17.0.0, SVG Export Plug-In . SVG Version: 6.00 Build 0)  -->
<!DOCTYPE svg PUBLIC "-//W3C//DTD SVG 1.1//EN" "http://www.w3.org/Graphics/SVG/1.1/DTD/svg11.dtd">
<svg version="1.1" id="Layer_1" xmlns="http://www.w3.org/2000/svg" xmlns:xlink="http://www.w3.org/1999/xlink" x="0px" y="0px"
	 width="800px" height="600px" viewBox="0 0 800 600" enable-background="new 0 0 800 600" xml:space="preserve">
<g>
	<g>
		<g>
			<g>
				<path d="M570.381,155.389c-8.826-20.781-24.651-32.062-44.514-41.428c-22.67-10.697-50.388-35.481-48.479-51.556
					c2.755-5.468,6.645-17.401,2.751-22.151c-5.176-6.317-14.021-7.317-17.877-14.541c1.024-2.344-0.234-4.566-3.023-4.671
					c-5.698-0.206-9.903,4.006-13.256,5.972c-3.349,1.952-5.789,3.246-8.769,3.354c-2.99,0.105-4.645-0.626-6.314,1.488
					c-1.669,2.122-5.616,15.213-5.918,18.396c-0.885,8.998-1.464,26.328,6.473,32.831c0.627,0.509,1.55,0.727,2.31,0.409
					c0.928-0.402,1.809-0.876,2.665-1.414c13.179,16.344,26.258,34.666,29.244,55.95c2.937,20.934-0.196,42.347-1.512,63.389
					c-2.301,36.551-10.4,73.838-32.578,103.702c-26.249,35.348-65.189,52.125-106.373,63.702
					c-19.021,5.346-37.759,10.087-55.134,19.851c-15.739,8.859-28.067,24.077-45.25,30.217c-1.072,0.385-2.531,1.225-2.598,3.224
					c-0.048,1.114,0.053,4.559-0.253,8.071c-0.249,2.803-0.957,5.539-1.804,7.384c-1.191,2.586,2.995,3.093,4.004,3.195
					c-0.172,4.849,0.44,10.652,5.702,11.807c1.421,0.32,3.21-0.189,3.976-1.138c9.08,2.772,15.461,9.752,23.465,14.667
					c9.266,5.695,18.399,11.414,28.416,15.727c19.585,8.438,41.323,3.906,61.53,0.641c9.444-1.516,18.93-2.272,28.254-4.487
					c9.233-2.189,18.174-5.614,26.823-9.448c17.695-7.836,34.085-18.509,49.934-29.516c30.119-20.912,58.841-42.303,81.124-71.801
					c21.633-28.663,36.764-62.212,44.6-97.186C586.411,232.497,585.55,191.091,570.381,155.389z"/>
				<path fill="#B9BB00" d="M511.41,114.769c-4.98,0.794-9.434,3.322-12.864,7.063c-4.616,5.054-6.128,11.993-6.597,18.607
					c-0.364,5.318,0.009,10.644,0.746,15.935c-2.995-10.907-6.563-22.096-6.41-33.288c0.067-5.138,1.66-10.376,6.755-12.515
					c2.627-1.093,5.516-1.332,8.482-1.11C504.698,111.442,508.028,113.169,511.41,114.769z"/>
				<path fill="#C6CA00" d="M496.317,105.859c0.985,0.768,2.004,1.49,3.033,2.191c-7.008,0.191-12.998,3.238-14.117,12.06
					c-0.813,6.362,0.703,13.024,2.157,19.178c0.689,2.954,1.612,6.858,2.454,9.776c-0.718-1.498-9.18-19.301-12.783-26.058
					c-8.544-16.028-21.58-31.435-24.751-49.644c5.037-1.217,16.38-2.437,21.106-6.384
					C474.737,83.316,483.123,95.715,496.317,105.859z"/>
				<path fill="#A1AD00" d="M471.652,78.639c1.612,0.457,3.167,1.009,4.679,1.646c-1.531-4.135-2.536-8.551-2.913-13.306
					c-4.727,3.947-16.069,5.167-21.106,6.384c0.469,2.691,1.177,5.325,2.033,7.905C459.63,78.307,465.906,77.046,471.652,78.639z"/>
				<path fill="#8C7245" d="M436.199,33.688c0.541-0.469,4.53-0.06,8.3-1.433c3.755-1.375,13.414-9.46,13.146-6.506
					c-0.641,7.255-18.49,14.627-24.378,12.658C434.429,36.656,435.251,34.537,436.199,33.688z"/>
				<path fill="#785C2D" d="M434.988,35.398c-0.521,0.928-1.052,2.021-1.722,3.009c5.525,1.847,21.58-4.523,24.068-11.309
					C451.416,32.889,443.102,36.529,434.988,35.398z"/>
				<path fill="#92B300" d="M430.405,59.831c-0.363-5.728-0.11-11.615,1.162-17.224c0.225-1.017,0.512-1.84,0.842-2.574
					c4.219,2.021,9.123,1.4,13.811-0.507c4.798-1.954,11.462-6.159,14.275-11.388c2.31,3.511,5.563,5.946,9.156,9.156
					c2.918,2.608,5.722,4.464,6.721,6.712c-2.162,10.663-32.066,12.321-45.47,21.822C430.673,63.819,430.525,61.802,430.405,59.831z
					"/>
				<path fill="#7A9C00" d="M432.085,42.796c11.663,3.935,23.761-3.062,29.32-13.381c-0.315-0.409-0.627-0.837-0.909-1.277
					c-2.813,5.229-9.477,9.434-14.275,11.388c-4.688,1.907-9.592,2.528-13.811,0.507c-0.33,0.734-0.617,1.557-0.842,2.574
					c-0.01,0.034-0.019,0.062-0.029,0.094C431.706,42.705,431.883,42.724,432.085,42.796z"/>
				<path fill="#679D00" d="M435.261,78.907c-2.579,0.294-3.846-9.003-4.176-11.534c7.606-5.372,17.566-7.011,26.416-9.197
					c6.138-1.526,13.347-2.432,18.442-6.286c0.459,3.739-1.526,9.25-3.382,11.536c-1.847,2.284-6.607,3.669-9.2,4.605
					c-2.114,0.763-8.276,2.224-11.323,3.219c-3.028,0.995-6.688,1.899-7.367,2.382C443.188,74.705,437.849,78.606,435.261,78.907z"
					/>
				<path fill="#5C8A00" d="M451.292,62.12c2.42-0.694,4.856-1.251,7.319-1.758c5.587-1.846,11.318-3.595,17.121-4.698
					c0.239-1.327,0.349-2.64,0.211-3.774c-5.095,3.854-12.304,4.76-18.442,6.286c-8.85,2.186-18.81,3.825-26.416,9.197
					c0.105,0.777,0.291,2.184,0.574,3.753C436.778,66.383,445.608,63.737,451.292,62.12z"/>
				<path fill="#A2AF00" d="M470.996,129.962c-3.454-12.9-11.605-24.555-19.609-35.599c-3.731-5.159-7.788-9.749-12.314-14.107
					c2.239-1.713,4.353-3.655,6.578-5.346c1.124-0.354,2.244-0.668,3.373-0.967c3.095,18.549,16.16,34.219,24.933,50.412
					c1.402,2.593,2.765,5.196,4.105,7.814c-0.062-0.053-0.124-0.115-0.182-0.174c-1.617-1.5-4.057-3.365-6.353-2.344
					C471.331,129.745,471.164,129.843,470.996,129.962z"/>
				<path fill="#829900" d="M450.722,81.086c-0.713-2.337-1.301-4.712-1.698-7.142c-1.129,0.299-2.248,0.612-3.373,0.967
					c-2.224,1.691-4.339,3.633-6.578,5.346c1.952,1.873,3.803,3.813,5.587,5.805C445.503,82.808,447.814,80.598,450.722,81.086z"/>
				<path fill="#CDC200" d="M471.403,131.634c0.416-0.629,1-0.99,1.809-0.856c2.813,0.467,4.923,2.196,7.147,6.081
					c2.22,3.891,4.784,10.153,6.845,15.279c-2.1-2.42-4.425-4.547-6.874-6.107c-3.856-2.433-6.353-0.878-7.917,1.894
					C473.077,142.257,472.618,136.842,471.403,131.634z"/>
				<path fill="#78613B" d="M229.656,447.854c-2.162,0.572-3.942-4.506-3.296-8.558c-0.847-0.256-3.344-0.344-2.995-1.992
					c0.34-1.653,1.1-4.621,1.129-7.13c0.033-3.284-0.306-6.284-0.057-7.061c0.421-1.378,1.813-1.048,2.339,0.498
					c0.531,1.54,2.684,5.343,4.181,7.975c1.359,2.39,2.277,5.272,2.421,8.042C233.655,445.106,231.818,447.271,229.656,447.854z"/>
				<path fill="#674D22" d="M233.378,439.626c-0.144-2.77-1.062-5.652-2.421-8.042c-1.497-2.631-3.65-6.434-4.181-7.975
					c-0.526-1.546-1.918-1.875-2.339-0.498c-0.033,0.094-0.048,0.23-0.062,0.378c2.129,3.7,3.827,7.408,4.788,11.29
					c0.493,1.302,0.895,2.617,1.196,4.033c0.651,3.023,0.435,6.047-0.416,8.927C231.981,447.046,233.641,444.842,233.378,439.626z"
					/>
				<path fill="#FFE13B" d="M249.567,430.929c-2.966,0.469-12.324,3.633-14.055,4.738c-0.871-1.777-1.899-3.566-2.928-5.293
					c3.028-4.243,10.802-8.161,13.366-9.505c0.148-0.089,0.019-0.347-0.134-0.282c-2.937,1.239-6.018,2.09-8.831,3.619
					c-1.344,0.73-4.679,2.559-5.382,4.552c-1.23-2.019-2.416-3.949-3.325-5.684c17.36-6.379,30.047-21.893,45.992-30.98
					c17.815-10.142,37.912-14.505,57.373-20.274c39.022-11.579,74.174-28.758,101.523-59.667
					c24.345-27.504,32.492-65.087,35.051-100.594c1.474-20.468,0.823-40.792,3.89-61.138c0.794-1.835,1.899-3.428,3.598-3.999
					c2.612-0.878,5.525,1.983,7.171,3.576c2.641,2.54,4.971,4.767,6.765,8.53c1.803,3.76,5.669,17.803,7.257,27.136
					c6.41,37.872,2.712,77.534-8.491,114.136c-11.386,37.204-31.97,69.973-61.616,95.23c-16.466,14.029-35.218,25.184-54.899,34.049
					c-18.284,8.247-39.414,16.822-59.578,18.238c-20.757,1.459-42.084-6.417-62.693-3.983c-3.425,0.405-11.323,2.155-11.849,2.272
					c0.469-2.476-0.22-5.276-1.45-8.154c1.808-0.773,10.529-5.2,13.323-6.179C249.83,431.208,249.762,430.893,249.567,430.929z"/>
				<path fill="#FFF07A" d="M324.835,389.262c31.98-3.968,58.789-16.651,84.607-36.614c25.335-19.604,47.767-51.051,54.565-82.579
					c3.612-16.731,4.382-26.165,2.645-42.495c-3.789,30.495-12.773,61.178-33.487,84.578
					c-27.349,30.909-62.501,48.087-101.523,59.667c-19.461,5.769-39.558,10.132-57.373,20.274c-3.415,1.949-6.683,4.205-9.874,6.582
					C284.02,393.232,305.159,391.706,324.835,389.262z"/>
				<path fill="#FFD211" d="M290.865,444.187c9.539-2.268,19.025-4.787,28.345-7.87c18.513-6.131,36.534-13.95,53.033-24.44
					c17.992-11.429,33.181-25.579,48.193-40.598c16.079-16.105,31.779-32.597,45.112-51.096c0.139-0.203,0.301-0.335,0.474-0.421
					c19.537-33.224,33.109-70.658,33.664-108.503c-0.459-8.577-1.359-17.133-2.789-25.596c-0.526-3.112-1.306-6.743-2.186-10.354
					c-6.099,32.896-15.174,70.014-26.895,101.341c-11.252,30.066-24.22,53.706-49.02,74.721
					c-26.086,22.113-57.875,40.476-91.582,47.924c-8.616,1.897-17.485,3.633-25.632,7.109c-8.616,3.674-15.911,9.311-23.747,14.347
					c-12.333,7.929-24.962,15.497-36.807,24.153c2.722-0.572,6.497-1.32,8.592-1.572c11.501-1.358,23.221,0.486,34.946,2.139
					C286.679,445.084,288.78,444.675,290.865,444.187z"/>
				<path fill="#FFD211" d="M418.671,377.178c-14.419,14.309-29.263,27.737-46.695,38.328c-16.294,9.893-33.74,17.753-51.871,23.608
					c-8.157,2.626-16.394,4.958-24.718,6.984c22.499-2.064,44.48-7.893,64.84-18.822c29.354-15.751,54.947-39.531,76.03-65.125
					c4.669-5.679,9.233-11.589,13.634-17.703C439.964,355.794,429.377,366.557,418.671,377.178z"/>
				<path fill="#F6C22F" d="M534.473,354.296c-10.367,15.313-22.575,29.323-36.247,41.746
					c-13.696,12.455-29.335,22.917-44.399,33.633c-15.371,10.936-31.195,21.254-48.101,29.664
					c-17.638,8.769-35.285,12.866-54.631,15.476c-23.025,3.093-45.093,8.46-67.185-1.689c-9.491-4.356-18.217-10.338-27.148-15.682
					c-4.951-2.961-9.175-6.516-13.935-9.288c1.454,0.438,2.837,0.952,4.004,1.332c5.19,1.674,10.721,1.811,15.93,3.439
					c0.196,0.062,0.349-0.239,0.134-0.32c-5.64-2.035-11.486-3.359-17.131-5.363c-0.789-0.287-1.722-0.651-2.717-0.974
					c18.351-2.856,36.429,1.27,54.89,3.004c19.81,1.861,38.467-3.729,57.018-10.139c36.07-12.481,69.959-33.633,95.423-62.226
					c23.953-26.895,38.63-61.279,46.59-96.084c8.008-35.011,9.29-73.511,0.641-108.541c-0.822-3.332-2.114-6.243-2.884-9.886
					c-2.019-9.553-3.779-26.88,3.626-37.658c3.382-4.908,10.663-8.546,16.313-8.467c13.222,5.927,27.129,10.582,37.61,21.255
					c13.811,14.074,19.432,35.544,22.647,54.418c3.224,18.887,2.927,38.422,0.469,57.358
					C570.51,286.938,555.656,322.981,534.473,354.296z"/>
				<path fill="#FFAB00" d="M514.328,155.704c11.845-1.361,17.825,11.063,20.532,20.788c7.415,26.72,1.201,56.361-4.583,82.801
					c-3.339,15.22-6.989,30.215-11.706,44.856c13.888-33.322,24.355-70.734,22.35-106.933c-0.722-13.036-2.306-28.901-10.543-39.612
					c-5.047-6.575-14.634-11.115-22.604-6.288c-5.956,3.619-9.701,9.506-11.668,16.009c0.359,1.103,0.703,2.198,1.033,3.301
					C500.608,163.368,506.55,156.601,514.328,155.704z"/>
				<path fill="#FFAB00" d="M501.498,338.938c10.137-20.652,17.442-42.765,22.383-64.56c5.449-24.044,11.61-48.752,11.185-73.58
					c-0.187-11.582-1.373-24.531-7.711-34.602c-9.903-15.736-24.163-3.339-29.014,9.319c7.802,34.161,6.386,71.37-1.373,105.314
					c-7.96,34.805-22.637,69.189-46.59,96.084c-25.464,28.593-59.353,49.744-95.423,62.226c-10.295,3.554-20.628,6.858-31.162,8.778
					c15.289,2.921,31.616,1.543,47.561-3.248c32.224-9.673,61.802-28.708,86.53-51.283
					C475.402,377.385,489.758,359.075,501.498,338.938z"/>
				<path fill="#FFAB00" d="M543.194,305.965c3.1-5.372,6.343-11.089,9.85-16.794c-3.798,4.559-7.448,9.24-10.941,13.997
					c-15.413,20.934-28.469,43.684-38.313,67.764c-3.918,9.611-7.344,19.377-10.3,29.268c1.598-1.361,3.186-2.746,4.736-4.157
					c1.034-0.935,2.043-1.911,3.062-2.868C510.692,362.013,526.805,334.314,543.194,305.965z"/>
				<path fill="#FFAB00" d="M566.587,274.382c-8.941,11.397-16.064,24.747-22.661,36.19c-14.734,25.594-29.072,50.591-38.204,78.321
					c10.668-10.575,20.322-22.149,28.751-34.597c17.375-25.685,30.478-54.553,37.333-84.861c-1.521,1.385-3.023,2.787-4.501,4.217
					C567.061,273.892,566.826,274.145,566.587,274.382z"/>
			</g>
			<path fill="#978568" d="M224.901,428.833c0.053,1.859,0.163,5.989-0.407,7.726c-0.569,1.734,3.196,2.38,3.463-0.535
				C228.235,433.108,224.839,426.585,224.901,428.833z"/>
			<path fill="#978568" d="M229.159,444.11c-0.235-2.112-1.598-4.956-2.239-2.547c-0.373,1.45,0.321,3.614,1.196,4.736
				C228.508,446.811,229.35,445.845,229.159,444.11z"/>
			<path fill="#FFF07A" d="M472.465,331.236c-4.583,9.365-16.011,27.307-25.794,38.747c-9.792,11.441-19.619,21.061-26.479,25.443
				c-6.869,4.379,12.075-21.824,23.058-36.633C454.224,343.987,479.076,317.738,472.465,331.236z"/>
			<path fill="#FFF07A" d="M239.367,426.637c4.66-3.195,15.686-9.376,21.413-12.385c5.727-3.019,0.134,8.195-7.606,11.544
				C245.433,429.142,232.493,431.335,239.367,426.637z"/>
			<path fill="#FFD55B" d="M552.929,155.217c4.224,12.199,8.037,24.629,10.96,37.216c3.057,13.17,5.597,27.11,5.774,40.909
				c1.211-0.031,2.043-1.679,2.34-5.396c2.88-36.242-9.855-77.061-20.609-87.528c-3.803-3.702-6.587-5.176-8.515-4.906
				C547.418,141.293,550.532,148.27,552.929,155.217z"/>
			<path fill="#FFD55B" d="M561.095,193.337c-2.712-11.273-6.028-22.377-9.664-33.384c-2.593-7.846-5.702-16.145-10.864-22.704
				c-6.865,11.926,15.504,81.35,26.201,94.113C566.4,218.44,564.004,205.447,561.095,193.337z"/>
			<path fill="#FFD55B" d="M341.191,456.589c20.15-2.105,57.506-0.603,42.103,4.188c-15.4,4.786-58.344,13.739-74.198,11.254
				C293.257,469.56,319.186,458.895,341.191,456.589z"/>
			<path fill="#8ABB4D" d="M467.403,60.145c-6.013,2.624-17.251,9.474-12.447,8.9c4.741-0.569,12.601-3.27,15.959-5.798
				C472.35,62.171,475.914,56.43,467.403,60.145z"/>
			<path fill="#ADC73E" d="M453.148,45.573c5.918-3.131,21.642-1.969,17.801,0.672c-3.861,2.641-15.754,5.844-23.872,9.881
				C438.964,60.155,447.866,48.367,453.148,45.573z"/>
			<path fill="#DEE06C" d="M461.936,92.266c2.349,5.179,11.448,18.841,13.845,23.795c2.411,4.961,1.32-12.287-1.344-17.076
				C471.757,94.201,458.171,83.971,461.936,92.266z"/>
			<path fill="#F7BF00" d="M481.176,265.752c8.573-23.707,14.84-46.545,14.873-37.175c0.052,11.601-7.97,45.361-26.856,77.549
				C458.927,323.596,471.006,293.912,481.176,265.752z"/>
		</g>
		<g>
			<path d="M503.44,208.746c-6.75-3.215-15.519-2.053-20.628,4.753c-4.597,6.118-6.903,15.466-3.946,24.426
				c0.842,2.526,2.095,4.662,3.636,6.422c-2.569-0.524-5.191-0.507-7.564,0.405c-1.134,0.428-0.416,2.104,0.679,1.909
				c4.52-0.84,13.089,3.55,17.37,7.147c1.244,1.048,1.698-1.547-0.742-3.853c6.31,1.236,13.256-0.923,17.715-6.767
				C518.127,232.466,515.792,214.637,503.44,208.746z"/>
			<path fill="#FFFFFF" d="M510.109,235.023c-3.148,14.227-22.9,16.538-28.062,1.098c-1.555-4.657-1.268-10.66,0.196-15.361
				c1.67-5.327,5.927-10.931,13.084-11.254c6.377-0.287,11.17,3.143,13.696,8.776C511.549,223.912,511.463,228.921,510.109,235.023z
				"/>
			<path d="M562.818,257.433c-4.023-4.066-9.257-5.509-14.653-5.382c3.454-1.978,6.309-5.018,8.314-8.654
				c5.291-9.57,3.885-23.948-1.071-30.595c-6.554-8.855-16.418-10.606-25.436-4.968c-5.659,3.54-9.104,9.728-11.036,18.611
				c-1.952,8.881-0.148,21.422,11.782,26.321c2.081,0.856,4.095,1.366,6.028,1.591c-2.272,0.83-4.449,1.82-6.43,2.887
				c-0.339,0.199-0.091,0.708,0.249,0.694c10.371-0.644,19.858-3.48,28.918,3.291C561.794,262.961,564.86,259.497,562.818,257.433z"
				/>
			<path fill="#FFFFFF" d="M522.81,225.298c2.138-10.06,9.051-19.913,19.528-17.791c12.783,2.576,14.012,15.531,13.242,23.9
				c-1.076,11.623-9.132,21.937-22.695,17.607C523.442,245.995,520.705,235.155,522.81,225.298z"/>
			<path d="M507.138,229.588c-0.522,4.514-4.616,7.762-9.128,7.243c-4.526-0.522-7.759-4.602-7.248-9.128
				c0.516-4.519,4.597-7.759,9.132-7.245C504.411,220.98,507.65,225.07,507.138,229.588z"/>
			<path d="M549.389,231.088c-0.795,4.875-5.391,8.194-10.271,7.408c-4.88-0.794-8.204-5.391-7.405-10.276
				c0.789-4.879,5.382-8.199,10.266-7.405C546.873,221.611,550.169,226.211,549.389,231.088z"/>
			<path fill="#FFFFFF" d="M505.282,226.898c-0.12,1.406-1.358,2.452-2.77,2.342c-1.397-0.124-2.444-1.349-2.334-2.763
				c0.124-1.406,1.358-2.457,2.765-2.342C504.344,224.25,505.397,225.486,505.282,226.898z"/>
			<path fill="#FFFFFF" d="M501.938,222.961c-0.057,0.651-0.622,1.136-1.277,1.084c-0.646-0.06-1.124-0.624-1.076-1.277
				c0.057-0.649,0.622-1.132,1.277-1.081C501.507,221.738,501.991,222.312,501.938,222.961z"/>
			<path fill="#FFFFFF" d="M547.963,228.436c-0.258,1.61-1.784,2.71-3.396,2.444c-1.612-0.256-2.698-1.772-2.444-3.384
				c0.263-1.617,1.784-2.712,3.387-2.452C547.131,225.3,548.226,226.826,547.963,228.436z"/>
			<path fill="#FFFFFF" d="M543.869,223.846c-0.11,0.694-0.77,1.172-1.469,1.057c-0.689-0.11-1.162-0.763-1.053-1.464
				c0.115-0.691,0.771-1.167,1.464-1.053C543.51,222.497,543.983,223.154,543.869,223.846z"/>
		</g>
		<g>
			<path d="M560.076,283.337c0.043-7.487-3.798-13.074-10.084-15.313c-6.277-2.229-10.735-1.105-14.748-0.084
				c-0.67,0.172-0.842,1.27-0.024,1.326c3.822,0.265,7.53,0.294,11.017,1.509c-7.377,16.672-19.245,32.597-36.434,39.734
				c-4.636,1.921-15.557,4.66-24.953,0.062c-7.764-3.813-9.237-11.501-10.481-19.272c-0.148-0.911-2.373,1.514-2.009,4.473
				c1.794,14.66,9.932,19.48,20.93,21.066c2.301,4.355,2.454,9.618,2.961,14.406c0.545,5.255,2.105,15.287-2.287,19.394
				c-1.344-0.337-2.65-0.646-3.918-0.828c-8.462-1.229-14.476,5.334-13.423,13.689c1.09,8.723,12.323,12.103,18.652,8.001
				c2.626-1.717,4.105-4.009-0.503-3.854c-3.88,0.144-8.62,0.644-12.18-3.19c-2.114-2.289-2.33-6.277,1.708-9.628
				c4.038-3.339,14.213,1.33,19.193,1.708c8.563,0.658,17.184-5.2,22.279-11.295c7.123-8.503,12.371-19.195,16.528-29.397
				c5.568-13.662,7.176-34.719,6.334-43.988c3.669,2.608,6.137,7.676,8.596,11.907C557.895,284.892,560.062,285.007,560.076,283.337
				z"/>
			<path fill="#FFFFFF" d="M497.24,316.793c2.435,0.033,4.932-0.136,7.487-0.567c18.303-3.11,30.827-17.002,38.873-32.839
				c-1.832,16.643-14.132,34.948-22.627,40.457c-7.559,4.906-17.179,5.31-21.001,3.662
				C499.474,323.773,498.642,320.047,497.24,316.793z"/>
			<path fill="#FFFFFF" d="M542.534,306.355c-1.822,8.697-5.894,16.868-11.639,25.706c-5.836,8.989-12.476,17.963-23.455,20.367
				c-2.852,0.625-5.956,0.103-9.041-0.651c2.674-3.679,2.353-11.098,2.282-14.474c-0.014-0.562-0.048-1.153-0.072-1.737
				C525.632,346.814,538.204,316.148,542.534,306.355z"/>
		</g>
		<path d="M511.334,196.697c-4.98-8.597-15.619-6.98-23.513-2.287c-4.421,2.631-9.635,8.724-12.376,14.988
			c-1.674,3.846-1.134,7.785,0.029,6.006c3.334-5.075,9.161-10.842,16.547-14.05c8.286-3.595,13.495,0.765,15.854,1.971
			C510.41,204.631,513.922,201.173,511.334,196.697z"/>
		<path d="M557.536,182.877c-3.593-7.389-11.668-12.199-20.269-11.436c-6.596,0.584-10.725,8.793-3.593,9.42
			c11.17,0.971,20.26,11.981,22.221,23.486C556.842,209.896,565.061,198.343,557.536,182.877z"/>
		<path d="M458.233,255.522c-7.731-3.365-33.492,4.207-52.407,10.809c-2.42,0.847-1.957-3.765-2.55-8.087
			c-0.78-5.61-1.961-10.843-5.578-18.727c-3.631-7.884-9.907-15.234-12.993-18.114c-3.076-2.892,2.363-8.048,7.764-3.547
			c2.028,1.696,5.162-1.615,4.191-4.148c-3.171-8.357-14.916-4.731-16.246,2.248c-3.205-2.311-7.204-3.253-11.151-1.988
			c-4.525-8.125-12.993-13.184-21.742-11.422c-6.224,1.256-6.406,7.293-3.038,6.532c2.005-0.459,12.486,0.357,22.341,6.425
			c-1.206,0.612-2.143,1.191-2.707,2.086c-3.407-2.945-8.994-4.389-13.051-4.908c-4.521-0.584-12.739,1.423-13.031,6.901
			c-0.062,1.397,0.852,3.593,2.272,2.987c4.085-1.743,6.535-2.528,10.328-2.803c3.865-0.29,8.247,0.15,12.452,1.354
			c-0.029,0.988,0.244,2.533,0.397,2.787c-3.44-0.995-9.42-2.813-14.132-0.153c-8.616,4.836-4.597,9.381-3.11,8.341
			c1.493-1.04,3.091-2.06,7.276-3.418c4.176-1.361,8.047-1.54,11.974-1.466c6.645,3.521,14.089,1.643,16.892,0.069
			c6.171,6.736,10.084,15.942,12.438,25.254c2.775,11.075,0.631,25.579,7.41,22.991c7.448-2.856,16.964-6.607,25.091-9.534
			c11.792-4.251,21.321-6.64,30.856-7.334C458.697,258.624,458.788,255.759,458.233,255.522z"/>
		<path d="M636.694,315.983c-7.989-11.247-17.073-21.461-27.435-30.573c-7.831-6.891-21.216-17.042-32.874-21.656
			c0,0.012,0.005,0.019,0.005,0.028v0.481c0,2.454-0.675,4.753-1.761,6.81c7.434,3.282,19.04,10.754,29.564,20.156
			c8.223,7.346,15.284,16.012,21.972,24.802c-15.858,4.334-37.386,16.366-39.495,31.913c-1.311,9.697,0.043,29.363,8.032,28.308
			c4.482,1.937,8.716,3.978,12.849,6.662c3.784,2.451,6.592,5.618,9.979,8.503c2.42,2.069,7.137,0.055,6.415-3.404
			c-1.78-8.539-13.084-14.605-22.714-16.15c0.1-0.333,0.368-1.292,0.483-2.016c7.372,0.849,12.553,4.255,17.031,7.36
			c1.115,0.766,2.229,1.809,3.42,0.866c1.186-0.935,0-4.705-2.076-6.035c-3.956-2.547-12.568-6.142-18.045-6.305
			c-0.024-0.638-0.038-1.488-0.062-1.892c6.458,0.318,11.749,2.095,18.126,5.855c1.54,0.909,1.225-2.193-0.856-3.698
			c-4.708-3.415-13.921-4.301-17.504-4.198c-0.168-3.794-1.358-10.312-7.219-14.349c5.769-12.149,26.522-24.34,38.816-24.34
			C637.311,323.106,638.799,318.951,636.694,315.983z"/>
	</g>
	<path d="M324.285,479.099c-32.362,3.947-69.763,48.896-103.288,40.644c2.306-14.199,5.033-48.886,8.602-57.937
		c3.047-7.733-11.534,4.674-14.553,12.081c-6.061,14.883-7.3,35.932-9.333,51.876c-1.607,12.715,10.989,13.172,13.452,5.76
		c39.878,11.787,82.924-36.572,119.118-48.03C343.502,481.843,335.537,477.734,324.285,479.099z"/>
	<path d="M501.857,504.346c-23.326,4.397-37.869-4.389-69.303-0.675c-1.387-10.847,1.473-46.272,2.066-56.961
		c0.187-3.356-8.17,1.981-8.788,5.214c-2.454,12.95-2.612,44.196-4.923,57.117c-0.559,3.141,1.717,6.98,5.119,7.259
		c19.638,1.574,46.145-0.349,65.95-0.98c-11.634,11.036-34.204,26.787-49.402,33.764c-10.156,4.667,10.706,10.156,27.727,1.918
		c20.891-10.11,31.014-22.226,44.184-38.969C519.184,506.069,511.472,495.565,501.857,504.346z"/>
</g>
</svg>
