<?xml version="1.0" encoding="utf-8"?>
<!-- Generator: Adobe Illustrator 16.0.0, SVG Export Plug-In . SVG Version: 6.00 Build 0)  -->
<!DOCTYPE svg PUBLIC "-//W3C//DTD SVG 1.1//EN" "http://www.w3.org/Graphics/SVG/1.1/DTD/svg11.dtd">
<svg version="1.1" id="Layer_1" xmlns="http://www.w3.org/2000/svg" xmlns:xlink="http://www.w3.org/1999/xlink" x="0px" y="0px"
	 width="50px" height="50px" viewBox="0 0 50 50" enable-background="new 0 0 50 50" xml:space="preserve">
<g>
	<g>
		<g>
			<path fill-rule="evenodd" clip-rule="evenodd" fill="#E4EBF0" d="M22.009,16.62c0.954-1.182,2.318-3.328,2.537-3.773
				c0.572-1.158,0.426-2.433,0.01-2.868c-0.42-0.437-1.456-0.067-2.394,0.92c-0.636,0.667-1.218,1.691-1.703,2.524
				c-0.343,0.59-1.428,2.128-1.618,3.252c-0.068,0.402,0.003,0.892,0.297,1.236C19.96,18.877,21.506,17.244,22.009,16.62z"/>
			<path fill-rule="evenodd" clip-rule="evenodd" fill="#F8FAFC" d="M22.348,10.712c-0.063,0.06-0.124,0.122-0.186,0.188
				c-0.636,0.667-1.218,1.691-1.703,2.524c-0.11,0.189-0.296,0.476-0.505,0.815c0.01,0.543,0.038,1.123,0.193,1.571
				C20.918,13.333,21.415,12.48,22.348,10.712L22.348,10.712z M19.917,14.3c-0.193,0.315-0.4,0.672-0.585,1.037
				c0.162,0.222,0.296,0.389,0.388,0.479c0.099,0.097,0.112-0.287,0.118-0.451C19.851,14.978,19.882,14.666,19.917,14.3z"/>
			<path fill-rule="evenodd" clip-rule="evenodd" fill="#E4EBF0" d="M16.405,11.828c0.356-0.015,1.111-0.508,1.258-0.774
				c0.025-0.045-0.004-0.226-0.017-0.244c-0.229-0.329-1.492,0.591-1.311,0.946C16.35,11.784,16.376,11.806,16.405,11.828z"/>
			<g>
				<path fill-rule="evenodd" clip-rule="evenodd" fill="#F1B287" d="M16.742,12.203c0.342-0.022,0.916-0.246,1.183-0.619
					c-0.208-0.389-0.307-0.605-0.333-0.736c-0.035-0.173,0.083-0.198,0.137-0.458c0.047-0.221,0.037-0.554,0.056-0.761
					c0.028-0.284-0.07-0.452-0.106-0.696c-0.025-0.174-0.17-0.343-0.376-0.3c-0.078,0.017-0.168,0.043-0.335,0.104
					c-0.199-0.143-0.244-0.16-0.48-0.244c-0.186-0.066-0.283-0.044-0.434,0.091c-0.231,0.206-0.423,0.404-0.492,0.544
					C15.495,9.259,15.416,9.64,15.363,10c-0.045,0.31-0.051,0.43,0.081,0.603c0.286,0.377,0.461,0.463,0.667,0.672
					C16.287,11.456,16.49,11.745,16.742,12.203z"/>
				<path fill-rule="evenodd" clip-rule="evenodd" fill="#DB9669" d="M16.742,12.203c0.149-0.01,0.343-0.058,0.537-0.14
					c-0.092-0.14-0.137-0.256-0.43-0.767c-0.117-0.366-0.471-0.606-0.812-0.746c0.15-0.082,0.125-0.024,0.223-0.163
					c0.082,0.125,0.251,0.202,0.297,0.151c0.062-0.088,0.074-0.176,0.042-0.259c-0.061-0.16-0.231-0.296-0.426-0.303
					c-0.099-0.003-0.441,0.206-0.824,0.435c0.014,0.065,0.045,0.124,0.096,0.191c0.286,0.377,0.461,0.463,0.667,0.672
					C16.287,11.456,16.49,11.745,16.742,12.203z"/>
				<path fill-rule="evenodd" clip-rule="evenodd" fill="#F1B287" d="M17.233,8.649c-0.064,0.018-0.145,0.043-0.264,0.086
					c-0.199-0.143-0.244-0.16-0.48-0.244c-0.186-0.066-0.283-0.044-0.434,0.091c-0.231,0.206-0.423,0.404-0.492,0.544
					C15.495,9.259,15.416,9.64,15.363,10c-0.031,0.214-0.043,0.338-0.004,0.451c0.272-0.138,0.582-0.324,0.847-0.48
					c0.119,0.046,0.555,0.306,0.34,0.578c0.174-0.194,0.274-0.603,0.376-0.941c0.106-0.352,0.212-0.75,0.227-0.902L17.233,8.649z"/>
				<path fill-rule="evenodd" clip-rule="evenodd" fill="#E8A476" d="M17.233,8.649c-0.064,0.018-0.145,0.043-0.264,0.086
					c-0.199-0.143-0.244-0.16-0.48-0.244c-0.065-0.022-0.119-0.035-0.168-0.036L16.206,9.97c0.119,0.046,0.555,0.306,0.34,0.578
					c0.174-0.194,0.274-0.603,0.376-0.941c0.106-0.352,0.212-0.75,0.227-0.902L17.233,8.649z"/>
				<path fill-rule="evenodd" clip-rule="evenodd" fill="#F1B287" d="M17.786,9.628c0.028-0.284-0.07-0.452-0.106-0.696
					c-0.025-0.174-0.17-0.343-0.376-0.3c-0.078,0.017-0.168,0.043-0.335,0.104c-0.133,0.026-0.14,0.035-0.196,0.116
					c-0.025,0.035-0.002,0.205,0.096,0.288C17.127,9.359,17.705,9.575,17.786,9.628z"/>
				<path fill-rule="evenodd" clip-rule="evenodd" fill="#E8A476" d="M16.773,8.854c0.095,0.218,0.411,0.392,0.788,0.211
					c-0.114,0.195-0.29,0.271-0.45,0.262C16.874,9.316,16.672,9.116,16.773,8.854z"/>
			</g>
			<path fill-rule="evenodd" clip-rule="evenodd" fill="#E4EBF0" d="M17.939,11.384c-0.031-0.026-0.211-0.399-0.297-0.586
				c0.085,0.399-1.053,1.037-1.313,0.947l0.214,0.476c-0.005,0.037-0.001,0.064,0.01,0.111c0.536,2.115,1.234,3.695,2.487,5.439
				c0.137,0.192,0.279,0.325,0.447,0.31c1.809-0.152,1.481-1.538,1.079-2.425c-0.292-0.992-1.58-2.769-2.569-4.221
				C17.981,11.412,17.965,11.392,17.939,11.384z"/>
			<path fill-rule="evenodd" clip-rule="evenodd" fill="#F8FAFC" d="M17.916,11.35c-0.06-0.101-0.201-0.394-0.274-0.552
				c0.036,0.167-0.144,0.376-0.383,0.556c0.047,0.15,0.107,0.298,0.179,0.429C17.605,11.731,17.77,11.553,17.916,11.35L17.916,11.35
				z M20.362,15.14c-0.109-0.231-0.246-0.484-0.404-0.752c0.013,0.499,0.049,1.015,0.189,1.422
				C20.222,15.572,20.293,15.35,20.362,15.14L20.362,15.14z M19.915,14.316c-0.033,0.358-0.064,0.667-0.078,1.049
				c-0.005,0.164-0.019,0.548-0.118,0.451c-0.391-0.383-1.588-2.197-2.144-3.571c0.256-0.24,0.368-0.503,0.447-0.772
				C18.647,12.387,19.385,13.427,19.915,14.316z"/>
			<path fill-rule="evenodd" clip-rule="evenodd" fill="#CED5DB" d="M16.934,11.561c-0.253,0.138-0.5,0.22-0.606,0.183l0.214,0.476
				c-0.005,0.037-0.001,0.064,0.01,0.111c0.536,2.115,1.234,3.695,2.487,5.439c0.137,0.192,0.279,0.325,0.447,0.31
				c1.527-0.128,1.531-1.136,1.253-1.98c-0.083,0.157-0.181,0.314-0.301,0.474c-0.325,0.436-0.715,0.794-0.897,0.557
				c-0.923-1.211-1.985-3.44-2.324-4.964c0.303-0.084,0.561-0.369,0.634-0.581c-0.157,0.174-0.404,0.381-0.669,0.437
				C17.093,11.879,17.01,11.724,16.934,11.561z"/>
			<path fill-rule="evenodd" clip-rule="evenodd" fill="#CED5DB" d="M22.009,16.62c0.954-1.182,2.318-3.328,2.537-3.773
				c0.572-1.158,0.426-2.433,0.01-2.868c-0.227-0.235-0.63-0.237-1.101-0.034c-0.534,0.507-1.052,0.753-1.482,1.635
				c-0.249,0.509-0.442,1.064-0.628,1.625l-0.003,0.088c-0.216,1.222-0.096,2.201-0.902,3.279c-0.325,0.436-0.715,0.794-0.897,0.557
				c-0.049-0.066-0.1-0.136-0.152-0.208l-0.506,0.508c0.052,0.174,0.135,0.339,0.254,0.481C19.96,18.877,21.506,17.244,22.009,16.62
				z"/>
		</g>
		<g>
			<path fill-rule="evenodd" clip-rule="evenodd" fill="#E4EBF0" d="M29.009,12.305c-0.876-0.485-3.891-2.4-4.772-2.27
				c-1.017,0.15-1.653,0.634-2.042,1.394c-0.517,1.009-0.814,2.441-0.69,4.289c0.073,1.077,0.405,2.117,0.418,3.456
				c0.007,0.77,0.019,1.798,0.039,2.848c0.559,1.869,4.284,2.534,6.232,1.17c-0.125-0.308-0.222-0.661-0.253-1.137
				c-0.105-1.533,2.581-5.72,2.561-7.839C30.492,13.275,29.7,12.689,29.009,12.305z"/>
			<path fill-rule="evenodd" clip-rule="evenodd" fill="#F8FAFC" d="M21.574,16.288c0.241,0.896,0.352,3.234,0.354,3.498
				c0.005,0.444,0.006,0.943,0.014,1.482c0.583,1.215,2.419,1.94,3.941,1.69c-0.005-0.363,0.075-3.585,0.19-4.569
				C24.354,18.497,22.367,16.921,21.574,16.288z"/>
			<path fill-rule="evenodd" clip-rule="evenodd" fill="#CED5DB" d="M29.009,12.305c-0.876-0.485-3.891-2.4-4.772-2.27
				c-0.332,0.048-0.623,0.133-0.877,0.251c1.269,0.317,4.031,1.643,5.271,2.811c-1.263,0.97-1.544,1.767-1.684,3.033
				c-0.042,0.38,0.18,0.787,0.077,1.292c-0.408,1.988-0.513,3.633-0.453,5.641c-0.495,0.231-1.331,0.254-2.148,0.056
				c-1.088-0.264-1.566-0.418-2.325-1.05l-0.139-0.173c0.372,2.809,6.34,2.396,6.209,1.231c-0.112-0.292-0.197-0.629-0.228-1.073
				c-0.105-1.533,2.581-5.72,2.561-7.839C30.492,13.275,29.7,12.689,29.009,12.305z"/>
			<path fill-rule="evenodd" clip-rule="evenodd" fill="#F8FAFC" d="M23.801,11.128c-0.497,0.725-0.661,1.322-0.641,2.165
				c0.019,0.78,0.184,1.04-0.161,2.834c-0.777-0.268-1.134-0.594-1.499-1.111c-0.115-1.558,0.447-3.959,1.479-4.455
				C23.169,10.67,23.388,10.82,23.801,11.128z"/>
			<path fill-rule="evenodd" clip-rule="evenodd" fill="#F8FAFC" d="M27.341,12.608c0.395,0.24,0.433,0.231,0.772,0.544
				c-0.584,0.772-0.972,1.053-1.275,1.555c-0.623,1.028-0.322,2.162-0.388,2.858c-0.542,0.301-1.733-0.209-2.499-0.899
				c-0.065-0.313,0.318-0.991,0.401-1.37c0.137-0.11,0.291-0.06,0.44-0.049c0.065-0.173,0.245-0.929,0.301-1.229
				C25.749,13.63,26.427,13.342,27.341,12.608z"/>
		</g>
		<path fill-rule="evenodd" clip-rule="evenodd" fill="#9EB0BA" d="M27.324,11.337c-0.123-0.004-0.259,0.056-0.372-0.03
			c0.055,0.854-1.496,0.877-2.405,1.091c-0.047-0.122-0.07-0.37-0.122-0.587c-0.046-0.193-0.235-0.628-0.28-0.727
			c-0.256,0.101-0.592,1.316-0.673,1.806c0.147-0.103,0.379-0.161,0.585-0.194c-0.004,0.154,0.021,0.36,0.094,0.608
			c-0.106,0.031-0.242,0.066-0.427,0.184c-0.045,0.315-0.086,0.621-0.121,0.917c0.278,0.162-0.24,1.997,0.039,2.157
			c0.095-0.259,1.007-2.109,1.077-2.36c-0.049-0.24-0.119-0.412-0.186-0.645c0.188-0.19,0.259-0.103,0.354-0.213
			c0.045,0.11,0.087,0.259,0.096,0.362c0.642-0.175,2.578-0.968,2.534-1.936C27.509,11.575,27.415,11.441,27.324,11.337z"/>
		<g>
			<g>
				<path fill-rule="evenodd" clip-rule="evenodd" fill="#131917" d="M23.181,40.699c-0.149,0.529-0.188,0.802-0.408,1.109
					c-0.439,0.615-1.085,1.053-2.025,1.72c-0.447,0.318-0.542,0.619-0.089,0.895c0.357,0.219,1.231,0.044,1.776-0.084
					c1.023-0.239,1.438-0.855,1.787-1.017l0.265,0.061c0.217,0.004,1.07-0.34,1.236-0.563c0.043-0.19,0.113-0.524,0.134-0.792
					c0.031-0.867-0.104-0.779-0.336-1.457C24.733,40.628,23.97,40.672,23.181,40.699z"/>
				<path fill-rule="evenodd" clip-rule="evenodd" d="M20.362,44.026c-0.004,0.138,0.088,0.27,0.296,0.396
					c0.357,0.219,1.231,0.044,1.776-0.084c1.023-0.239,1.438-0.855,1.787-1.017l0.265,0.061c0.217,0.004,1.07-0.34,1.236-0.563
					c0.043-0.19,0.113-0.524,0.134-0.792c0.031-0.867-0.104-0.779-0.336-1.457c-0.349,0.026-0.692,0.048-1.036,0.069
					c-0.062,0.569,0.021,1.554-0.447,1.919c-0.524,0.41-0.935,0.518-1.284,0.731C21.635,43.97,20.897,44.521,20.362,44.026z"/>
				<path fill-rule="evenodd" clip-rule="evenodd" fill="#242E2A" d="M22.933,41.671c0.113,0.165,0.332,0.258,0.694,0.348
					c-0.585,0.661-0.667,0.6-1.454,1.041c-0.396,0.453-0.45,0.538-0.704,0.684c-0.301,0.175-0.727,0.354-0.907,0.227
					c-0.077-0.057,0.027-0.211,0.359-0.452c0.377-0.273,0.761-0.55,1.107-0.839C22.374,42.392,22.685,42.076,22.933,41.671z"/>
			</g>
			<g>
				<path fill-rule="evenodd" clip-rule="evenodd" fill="#0B3A4F" d="M21.717,24.249c-0.093,2.087,0.555,5.921,0.854,8.246
					c0.384,2.976,0.25,5.935,0.428,8.918c0.371,0.607,2.157,0.645,2.767-0.209c0.092-2.36,0.239-4.224,0.173-5.516
					c-0.056-1.074-0.106-1.693-0.454-2.648c0.281-1.935,1.036-7.554,1.035-9.398c0-0.132-0.175-0.05-0.18-0.166
					c-1.354,0.264-3.849-0.371-4.422-1.988C21.77,22.36,21.756,23.35,21.717,24.249z"/>
				<path fill-rule="evenodd" clip-rule="evenodd" fill="#062533" d="M21.918,21.487c-0.086,0.513-0.137,1.243-0.163,1.978
					c0.174,0.132,0.99,0.924,1.766,1.45c0.134,0.906,0.069,2.343,0.46,2.815c0.15,1.409,0.024,3.878,0.048,5.3
					c0.587,2.77,0.733,4.723,0.36,8.82c0.539-0.04,1.088-0.243,1.376-0.646c0.092-2.36,0.239-4.224,0.173-5.516
					c-0.056-1.074-0.106-1.693-0.454-2.648c0.281-1.94,1.036-6.944,1.035-9.398c0-0.132-0.175-0.05-0.18-0.166
					C24.985,23.738,22.491,23.104,21.918,21.487z"/>
				<path fill-rule="evenodd" clip-rule="evenodd" fill="#124F6B" d="M21.731,24.04c0.444,0.625,0.784,1.065,1.289,1.533
					c0.177,1.559,0.283,5.038,0.491,7.603c0.248,3.039,0.25,5.449,0.224,8.525c-0.405-0.09-0.612-0.261-0.685-0.355l-0.318-7.554
					c-0.216-1.429-0.444-3.201-0.647-4.83c-0.05-0.401-0.202-1.52-0.295-2.673C21.724,25.477,21.686,24.647,21.731,24.04z"/>
			</g>
			<g>
				<path fill-rule="evenodd" clip-rule="evenodd" fill="#131917" d="M29.091,43.966c0.131,0.382,0.251,0.679,0.239,0.919
					c-0.014,0.248-0.081,0.491-0.078,0.805c0.002,0.271,0.016,0.5,0.048,0.805c0.032,0.313-0.001,0.461-0.138,0.586
					c-0.224,0.203-0.887,0.518-1.202,0.624c-0.168,0.057-0.322,0.092-0.551,0.074c-0.264-0.021-0.476-0.036-0.737-0.135
					c-0.068-0.025-0.138-0.289-0.144-0.518c-0.01-0.479,0.033-0.438,0.231-1.197c0.067-0.258,0.123-0.506,0.216-0.809
					c0.115-0.377,0.26-0.708,0.274-1.08l1.402-0.055L29.091,43.966z"/>
				<path fill-rule="evenodd" clip-rule="evenodd" d="M29.091,43.966c0.131,0.382,0.251,0.679,0.239,0.919
					c-0.014,0.248-0.081,0.491-0.078,0.805c0.002,0.271,0.016,0.5,0.048,0.805c0.032,0.313-0.001,0.461-0.138,0.586
					c-0.224,0.203-0.887,0.518-1.202,0.624c-0.168,0.057-0.322,0.092-0.551,0.074c-0.264-0.021-0.476-0.036-0.737-0.135
					c-0.063-0.023-0.124-0.241-0.141-0.452h0.004c0.43,0.146,0.845,0.204,1.256,0.003c0.869-0.424,0.756-0.776,0.675-1.777
					c-0.566-0.1-0.787-0.201-1.074-0.51c0.482,0.141,0.999,0.167,1.255-0.127l0.08-0.798L29.091,43.966z"/>
				<path fill-rule="evenodd" clip-rule="evenodd" fill="#242E2A" d="M27.178,44.985c0.405,0.318,0.263,0.459,0.854,0.535
					c-0.146,0.586-0.164,0.614-0.46,1.154c-0.024,0.224-0.043,0.516-0.477,0.519c-0.811,0.005-0.248-0.664-0.246-0.688
					C26.891,46.134,26.99,45.464,27.178,44.985z"/>
			</g>
			<g>
				<path fill-rule="evenodd" clip-rule="evenodd" fill="#0B3A4F" d="M26.222,34.569c0.467,2.965,0.54,6.703,0.802,9.68
					c0.405,0.634,1.932,0.764,2.517-0.024c0.024-2.361,0.239-5.267,0.137-6.556c-0.086-1.072-0.264-1.723-0.639-2.669
					c0.039-1.222,0.476-4.814,0.393-7.523c0.01-0.602-0.012-1.164-0.103-1.645c-0.216-1.143-1.062-2.394-1.319-3.336
					c-0.597,0.776-1.247,1.104-2.902,0.966c-0.162-0.012-0.736-0.099-1.183-0.214c0.032,0.66-0.086,2.351,0.201,3.776
					c0.061,0.304,0.409,0.559,1.036,0.763C25.285,28.537,26.064,33.576,26.222,34.569z"/>
				<path fill-rule="evenodd" clip-rule="evenodd" fill="#062533" d="M23.923,23.248c0.01,0.208-0.013,0.977,0.008,1.346
					c0.635,0.531,3.357,1.122,3.483,1.122c0.837,2.112,0.481,7.455,0.614,9.029c0.036,0.423-0.082,0.82-0.13,1.172
					c0.499,2.357,0.51,6.81,0.513,8.852c0.439-0.03,0.874-0.199,1.128-0.543c0.024-2.361,0.239-5.267,0.137-6.556
					c-0.086-1.072-0.264-1.723-0.639-2.669c0.048-1.502,0.742-6.549,0.29-9.168c-0.114-0.653-1.02-2.509-1.319-3.336
					c-0.597,0.776-1.247,1.104-2.902,0.966C24.944,23.449,24.37,23.362,23.923,23.248z"/>
				<path fill-rule="evenodd" clip-rule="evenodd" fill="#124F6B" d="M27.514,35.932l0.743,8.625
					c-0.292,0.07-1.055-0.021-1.215-0.318c-0.17-2.535-0.389-6.197-0.728-9.069c-0.292-2.467-0.744-4.932-1.154-7.383
					c-0.627-0.204-0.976-0.459-1.036-0.763c-0.14-0.691-0.183-1.444-0.194-2.112c0.677,0.668,2.207,1.454,2.891,1.794
					C27.307,30.106,27.312,32.428,27.514,35.932z"/>
			</g>
			<g>
				<path fill-rule="evenodd" clip-rule="evenodd" fill="#131917" d="M28.468,23.604c-0.186-0.43-0.356-0.828-0.459-1.109
					c-0.597,0.776-1.247,1.104-2.902,0.966c-0.125-0.009-0.497-0.063-0.865-0.141c-1.022-0.295-1.992-0.9-2.323-1.834
					c-0.066,0.392-0.112,0.913-0.14,1.465C22.149,24.159,26.462,25.799,28.468,23.604z"/>
				<path fill-rule="evenodd" clip-rule="evenodd" d="M28.468,23.604c-0.186-0.43-0.356-0.828-0.459-1.109
					c-0.597,0.776-1.247,1.104-2.902,0.966c-0.125-0.009-0.497-0.063-0.865-0.141c-0.344-0.099-0.681-0.234-0.99-0.404l0.001,0.013
					c0.913,0.688,2.284,0.928,3.531,0.691c0.444-0.085,0.503,0.496,0.121,0.642c-0.559,0.213-1.288,0.248-1.996,0.195v-0.002
					c-2.157-0.338-2.723-1.134-3.125-1.592c-0.002,0.029-0.003,0.059-0.005,0.088c0.286,0.933,2.144,1.533,3.144,1.673l0,0
					C26.19,24.804,27.564,24.593,28.468,23.604z"/>
				<path fill-rule="evenodd" clip-rule="evenodd" fill="#212B28" d="M25.016,23.412c-0.385-0.146-1.216-0.323-1.554-0.442
					c-0.252,0.188-0.31,1.039-0.225,1.261c0.257,0.215,1.25,0.415,1.553,0.362C24.895,24.474,25.021,23.61,25.016,23.412z"/>
				<path fill-rule="evenodd" clip-rule="evenodd" d="M25.016,23.412c-0.385-0.146-1.216-0.323-1.554-0.442
					c0.312,0.204,0.982,0.543,1.11,0.661c0.069,0.063,0.162,0.682,0.218,0.962C24.895,24.474,25.021,23.61,25.016,23.412z"/>
				<path fill-rule="evenodd" clip-rule="evenodd" fill="#3C4A45" d="M23.462,22.97c-0.252,0.188-0.31,1.039-0.225,1.261
					c0.257,0.215,1.25,0.415,1.553,0.362c-0.186-0.076-0.631-0.384-0.907-0.765C23.607,23.448,23.491,23.22,23.462,22.97z"/>
				<path fill-rule="evenodd" clip-rule="evenodd" fill="#5A6B65" d="M23.396,23.058c-0.121,0.305-0.169,0.95-0.096,1.139
					c0.181,0.152,0.846,0.336,1.202,0.384C23.718,24.352,23.264,24.093,23.396,23.058z"/>
				<path fill-rule="evenodd" clip-rule="evenodd" fill="#212B28" d="M25.107,23.81c0.28,0.028,1.005-0.008,1.392-0.036
					c0.47-0.036,0.456,0.415-0.032,0.502c-0.542,0.096-0.952,0.116-1.499,0.086C25.045,24.148,25.07,24.034,25.107,23.81z"/>
				<path fill-rule="evenodd" clip-rule="evenodd" fill="#212B28" d="M21.894,21.667c0.346,0.755,0.764,1.063,1.346,1.45
					c-0.075,0.252-0.12,0.5-0.155,0.65c-0.45-0.196-1.059-0.663-1.294-1.064C21.813,22.343,21.846,22.023,21.894,21.667z"/>
			</g>
		</g>
		<g>
			<g>
				<path fill-rule="evenodd" clip-rule="evenodd" fill="#12131A" d="M27.924,29.033c-0.023-0.152,0.007-0.271,0.073-0.349
					c0.01-0.011,0.021-0.021,0.032-0.029l4.253-3.456c0.03,0.044,0.032,0.159,0.048,0.253l0.183,1.182l-2.918,4.126l-1.488-0.545
					L27.924,29.033z"/>
				<polygon fill-rule="evenodd" clip-rule="evenodd" fill="#333647" points="27.829,29.217 29.376,29.813 29.213,29.99 
					27.65,29.366 				"/>
				<polygon fill-rule="evenodd" clip-rule="evenodd" fill="#333647" points="29.284,30.088 29.011,29.995 28.999,29.856 
					33.355,26.318 33.604,26.383 				"/>
				<path fill-rule="evenodd" clip-rule="evenodd" fill="#242633" d="M29.665,33.209l-0.371-2.455l-0.096-0.791l4.406-3.582
					l0.499,3.243c0.013,0.083,0.014,0.157,0.004,0.225c-0.007,0.045-0.02,0.086-0.035,0.123c-0.009,0.017-0.018,0.035-0.028,0.051
					c-0.021,0.032-0.046,0.061-0.074,0.084l-4.406,3.58C29.678,33.593,29.699,33.43,29.665,33.209z"/>
				<path fill-rule="evenodd" clip-rule="evenodd" fill="#2B2E3D" d="M29.665,33.209l-0.371-2.455l-0.096-0.791
					c1.01,1.903,3.583,0.925,4.771,0.144l-0.559,0.454l-3.848,3.126C29.678,33.593,29.699,33.43,29.665,33.209z"/>
				<path fill-rule="evenodd" clip-rule="evenodd" fill="#242633" d="M27.65,29.366l1.548,0.597l0.499,3.239
					c0.069,0.447-0.218,0.676-0.641,0.515l-0.016-0.008c-0.423-0.162-0.821-0.656-0.89-1.103L27.65,29.366z"/>
				<path fill-rule="evenodd" clip-rule="evenodd" fill="#2B2E3D" d="M28.365,28.559c-0.33,0.007-0.591,0.244-0.527,0.664l0.06,0.33
					l0.273-0.206c-0.031-0.179,0.018-0.301,0.107-0.374c0.282-0.227,0.742,0.17,0.894,0.371c0.11,0.146,0.189,0.314,0.214,0.475
					l0.071,0.33l0.333,0.128l-0.07-0.329c-0.063-0.363-0.235-0.747-0.512-1.022C28.966,28.686,28.707,28.553,28.365,28.559z"/>
				<polygon fill-rule="evenodd" clip-rule="evenodd" fill="#ACACB5" points="31.79,30.494 31.546,30.399 31.675,31.219 
					31.917,31.314 31.856,30.846 				"/>
				<path fill-rule="evenodd" clip-rule="evenodd" fill="#333647" d="M32.219,25.228c0.051-0.042,0.141-0.084,0.205-0.098
					c0.229-0.048,0.5,0.066,0.68,0.178c0.162,0.099,0.309,0.229,0.431,0.37c0.191,0.218,0.348,0.489,0.412,0.766
					c0.009,0.031,0.014,0.063,0.021,0.094l0.149,0.967l-1.824,2.758l-0.391,0.317l-2.192,0.502l-0.028-0.019l-0.082-0.445
					c-0.041-0.264-0.272-1.033-0.444-1.258c-0.239-0.313-0.968-0.836-1.341-0.552L32.219,25.228z"/>
				<path fill-rule="evenodd" clip-rule="evenodd" fill="#4A4E67" d="M33.337,25.747c0.272,0.229,0.445,0.638,0.481,0.869
					l0.143,0.919l-1.734,2.622l-0.371,0.303l-1.99,0.431l-0.025-0.018c-0.094-0.505-0.11-1.24-0.464-1.645
					c-0.214-0.247-0.108-0.346,0.053-0.505l3.346-2.854C32.978,25.697,33.113,25.559,33.337,25.747z"/>
				<path fill-rule="evenodd" clip-rule="evenodd" fill="#555A75" d="M32.227,30.156l-0.371,0.303l-1.99,0.431l-0.025-0.018
					c-0.094-0.505-0.11-1.24-0.464-1.645c-0.141-0.162-0.144-0.26-0.083-0.353c0.413,0.138,2.336,1.087,3.632,0.22L32.227,30.156z"
					/>
				<path fill-rule="evenodd" clip-rule="evenodd" fill="#242633" d="M28.11,28.708c-0.331,0.005-0.525,0.267-0.461,0.688
					l0.182,1.182l0.333,0.128l-0.181-1.183c-0.027-0.173,0.015-0.306,0.105-0.378c0.282-0.228,0.773,0.168,0.923,0.368
					c0.111,0.148,0.19,0.317,0.215,0.476l0.151,0.964l0.332,0.129l-0.15-0.964c-0.062-0.362-0.234-0.747-0.512-1.021
					C28.807,28.854,28.451,28.701,28.11,28.708z"/>
				<polygon fill-rule="evenodd" clip-rule="evenodd" fill="#ACACB5" points="31.79,30.494 31.699,30.459 31.828,31.279 
					31.917,31.314 31.856,30.846 				"/>
				<polygon fill-rule="evenodd" clip-rule="evenodd" fill="#E8E8F7" points="32.351,30.032 32.017,30.338 31.79,30.494 
					31.699,30.459 32.26,29.998 				"/>
				<polygon fill-rule="evenodd" clip-rule="evenodd" fill="#D8D8E6" points="32.351,30.032 31.79,30.494 31.917,31.313 
					32.479,30.851 				"/>
				<polygon fill-rule="evenodd" clip-rule="evenodd" fill="#E8E8F7" points="32.331,30.09 31.938,31.256 32.448,30.834 				"/>
				<g>
					<path fill-rule="evenodd" clip-rule="evenodd" fill="#783C18" d="M31.217,25.932c-0.003-0.014-0.008-0.028-0.013-0.041
						c0-0.002,0-0.003-0.001-0.005c-0.005-0.012-0.011-0.024-0.016-0.036c-0.001-0.002-0.002-0.004-0.003-0.006
						c-0.006-0.01-0.013-0.021-0.019-0.03c0-0.001-0.001-0.002-0.001-0.002c-0.008-0.011-0.015-0.021-0.022-0.03
						c-0.012-0.013-0.024-0.024-0.037-0.033c-0.004-0.002-0.007-0.005-0.009-0.007c-0.015-0.009-0.028-0.017-0.043-0.022
						l0.462,0.179c0.015,0.006,0.028,0.014,0.042,0.023c0.005,0.002,0.008,0.004,0.011,0.007c0.013,0.01,0.024,0.021,0.036,0.034
						c0.001,0,0.001,0,0.001,0c0.009,0.009,0.015,0.019,0.021,0.028c0,0,0,0,0,0c0.001,0.001,0.001,0.001,0.002,0.002
						c0.005,0.007,0.009,0.014,0.013,0.02c0.003,0.004,0.004,0.008,0.006,0.012c0.002,0.002,0.003,0.004,0.004,0.006
						c0,0.002,0.001,0.004,0.002,0.006c0.004,0.007,0.007,0.014,0.01,0.021c0.001,0.002,0.002,0.006,0.003,0.008
						c0,0.002,0.001,0.004,0.001,0.005c0.001,0.003,0.003,0.005,0.004,0.009c0.002,0.007,0.004,0.014,0.006,0.021
						c0.001,0.003,0.002,0.008,0.003,0.012c0.001,0.001,0.001,0.003,0.001,0.004c0.001,0.002,0.001,0.003,0.002,0.005
						c0.002,0.008,0.005,0.015,0.005,0.021c0.002,0.007,0.003,0.014,0.004,0.021c0,0.001,0,0.001,0.001,0.002l0.034,0.228
						l-0.461-0.181l-0.037-0.227c-0.002-0.017-0.006-0.033-0.011-0.048C31.218,25.935,31.217,25.933,31.217,25.932z"/>
					<path fill-rule="evenodd" clip-rule="evenodd" fill="#8C491F" d="M30.714,25.504c0.009-0.006,0.019-0.013,0.026-0.019
						c0.006-0.004,0.011-0.007,0.019-0.011c0,0,0.001-0.002,0.003-0.003c0.001-0.001,0.003-0.002,0.005-0.003
						c0.008-0.005,0.016-0.011,0.025-0.016c0.01-0.005,0.018-0.01,0.026-0.015c0.001,0,0.003-0.002,0.005-0.003
						c0.001,0,0.002-0.001,0.004-0.002c0.005-0.003,0.012-0.006,0.017-0.009c0.011-0.004,0.019-0.009,0.027-0.012
						c0.005-0.002,0.009-0.004,0.015-0.006c0.002,0,0.004-0.001,0.006-0.002s0.005-0.002,0.008-0.002
						c0.01-0.004,0.019-0.007,0.029-0.01c0.007-0.001,0.012-0.002,0.018-0.004c0.003-0.001,0.005-0.001,0.006-0.002
						c0.002-0.001,0.004-0.001,0.006-0.001c0.012-0.002,0.022-0.004,0.032-0.005c0.006-0.001,0.01-0.001,0.015-0.002
						c0.004,0,0.008-0.001,0.012-0.001s0.007-0.001,0.011-0.001c0.014-0.001,0.027-0.001,0.041,0c0.001,0,0.001,0,0.001,0
						c0.003,0,0.006,0.001,0.01,0.001c0.013,0.001,0.027,0.002,0.04,0.004c0.001,0,0.001,0.001,0.002,0.001
						c0.021,0.004,0.039,0.01,0.058,0.017l0.463,0.179c-0.178-0.012-0.35,0.064-0.485,0.176l-0.27-0.133l-0.192-0.097
						C30.701,25.515,30.708,25.509,30.714,25.504z"/>
					<path fill-rule="evenodd" clip-rule="evenodd" fill="#333647" d="M29.873,27.501c0,0-0.039-0.017-0.039-0.016
						c0,0.028,0.001,0.056,0.004,0.083c0,0.002,0,0.005,0,0.007c0.003,0.027,0.004,0.054,0.009,0.079l-0.464-0.179
						c0-0.011-0.002-0.021-0.003-0.032c-0.009-0.068-0.01-0.14-0.007-0.209c0.001-0.005,0.001-0.01,0.001-0.014
						c0.001-0.003,0.001-0.006,0.001-0.008c0.001-0.006,0.001-0.01,0.001-0.016c0.008-0.087,0.022-0.17,0.045-0.254
						c0.035-0.123,0.074-0.237,0.135-0.351c0.002-0.001,0.021-0.04,0.025-0.046s0.017-0.031,0.021-0.035
						c0.024-0.076,0.21-0.277,0.277-0.334c0.003-0.001,0.005-0.002,0.007-0.004l0.229,0.068l0.251,0.115
						C30.037,26.621,29.875,27.074,29.873,27.501z"/>
					<path fill-rule="evenodd" clip-rule="evenodd" fill="#242633" d="M30.349,26.354l0.809-0.654
						c0.347-0.28,0.687-0.151,0.757,0.287l0.036,0.227l-0.224,0.18l-0.034-0.228c-0.046-0.283-0.267-0.366-0.489-0.185l-0.81,0.653
						c-0.225,0.182-0.37,0.561-0.324,0.844l0.036,0.227l-0.222,0.179l-0.037-0.228C29.776,27.217,30.002,26.633,30.349,26.354z"/>
					<path fill-rule="evenodd" clip-rule="evenodd" fill="#2B2E3D" d="M29.847,27.654l0.037,0.228l-0.464-0.179l-0.037-0.228
						c0-0.011-0.002-0.021-0.003-0.032c-0.002-0.01-0.003-0.021-0.004-0.033c-0.001-0.005-0.001-0.01-0.001-0.016
						c0-0.002-0.001-0.004-0.001-0.006c0-0.004,0-0.008-0.001-0.012c-0.001-0.012-0.002-0.023-0.002-0.034l0.463,0.141v0.002
						c0,0.028,0.001,0.056,0.004,0.083c0,0.002,0,0.005,0,0.007C29.841,27.603,29.842,27.629,29.847,27.654z"/>
					<polygon fill-rule="evenodd" clip-rule="evenodd" fill="#8F4C22" points="30.694,25.52 31.175,25.707 30.365,26.36 
						29.886,26.174 					"/>
				</g>
				<path fill-rule="evenodd" clip-rule="evenodd" fill="#333647" d="M27.877,29.685l1.158,0.455l0.44,2.854
					c0.054,0.354-0.152,0.544-0.489,0.414l-0.014-0.005c-0.336-0.13-0.599-0.51-0.653-0.865L27.877,29.685z"/>
			</g>
			<path fill-rule="evenodd" clip-rule="evenodd" fill="#F1B287" d="M31.672,24.505c-0.105,1.079,0.134,1.616,0.06,1.847
				c-0.065,0.193-0.996,1.057-1.31,1.256c-0.099,0.058-0.318-0.062-0.348-0.104c-0.141-0.223,0.053-0.504,0.004-0.963
				c-0.015-0.154-0.271-0.248-0.342-0.18c-0.123,0.119-0.22,0.329-0.289,0.475c0.061-0.621-0.126-1.127,0.278-1.577
				c0.181-0.201,0.415-0.385,0.506-0.76L31.672,24.505z"/>
			<path fill-rule="evenodd" clip-rule="evenodd" fill="#E8A476" d="M31.672,24.505c-0.105,1.079,0.134,1.616,0.06,1.847
				c-0.065,0.193-0.996,1.057-1.31,1.256c0.378-0.826,0.071-1.699,0.223-3.106L31.672,24.505z"/>
			<path fill-rule="evenodd" clip-rule="evenodd" fill="#E4EBF0" d="M29.689,12.956c1.136,0.51,1.778,4.061,2.279,6.289
				c-0.01,1.901,0.034,3.452-0.119,5.348c-0.308,0.399-1.655,0.932-1.912,0.217c-0.046-1.634-0.268-3.559,0.029-5.185
				c-0.524-0.848-0.884-1.77-1.208-2.657c-0.191-0.524-0.456-1.147-0.566-1.674C28.334,14.429,28.646,13.251,29.689,12.956z"/>
			<path fill-rule="evenodd" clip-rule="evenodd" fill="#F8FAFC" d="M30.729,19.625c-0.161,0.751-0.27,3.383-0.329,5.527
				c-0.213-0.028-0.386-0.131-0.463-0.343c-0.046-1.634-0.268-3.559,0.029-5.185c-0.524-0.848-0.884-1.77-1.208-2.657
				c-0.191-0.524-0.456-1.147-0.566-1.674c0.081-0.49,0.216-1.082,0.508-1.555C29.125,15.005,30.537,18.772,30.729,19.625z"/>
			<path fill-rule="evenodd" clip-rule="evenodd" fill="#CED5DB" d="M30.424,13.732c0.706,1.301,1.164,3.816,1.545,5.512
				c-0.01,1.901,0.034,3.452-0.119,5.348c-0.153,0.2-0.567,0.433-0.975,0.526l0.058-0.144c0.217-1.769,0.26-3.651,0.337-5.431
				c-0.702-2.488-1.293-3.792-2.315-6.144c0.288-0.346,0.542-0.513,0.773-0.452C29.987,13.017,30.22,13.356,30.424,13.732z"/>
		</g>
		<g>
			<path fill-rule="evenodd" clip-rule="evenodd" fill="#CED5DB" d="M27.311,11.347c-0.122-0.003-0.259,0.057-0.372-0.03
				c0.054,0.854-1.496,0.877-2.404,1.091c-0.047-0.121-0.072-0.37-0.122-0.585c-0.047-0.195-0.236-0.628-0.281-0.728
				c-0.256,0.101-0.592,1.316-0.673,1.807c0.147-0.103,0.378-0.161,0.584-0.195c-0.003,0.155,0.022,0.361,0.095,0.607
				c-0.105,0.033-0.242,0.067-0.427,0.185c-0.046,0.315-0.086,0.62-0.122,0.917c0.278,0.162-0.24,1.996,0.039,2.157
				c0.096-0.26,1.008-2.109,1.077-2.36c-0.049-0.24-0.12-0.413-0.186-0.646c0.188-0.19,0.259-0.103,0.354-0.214
				c0.046,0.112,0.087,0.26,0.095,0.363c0.643-0.175,2.578-0.969,2.535-1.936C27.494,11.585,27.402,11.451,27.311,11.347z"/>
			<g>
				<path fill-rule="evenodd" clip-rule="evenodd" fill="#3C5466" d="M24.956,12.694c-0.098,0.48-0.118,0.479-0.544,0.81
					c0.063,0.244,0.105,0.455,0.147,0.706c-0.808,2.069-1.334,4.987-1.255,7.412c-0.351-2.318-0.024-6.101,0.334-8.151
					c0.195-0.11,0.336-0.137,0.446-0.164c-0.137-0.53-0.081-0.872,0.024-0.936C24.5,12.356,24.665,12.402,24.956,12.694z"/>
				<path fill-rule="evenodd" clip-rule="evenodd" fill="#2A3C4A" d="M24.956,12.694c-0.098,0.48-0.118,0.479-0.544,0.81
					c0.063,0.244,0.105,0.455,0.147,0.706c-0.808,2.069-1.28,5.039-1.256,7.4c-0.283-2.189,0.292-5.739,0.954-7.487
					c0.017-0.312,0.013-0.456-0.014-0.725c0.345-0.241,0.483-0.531,0.542-0.858c-0.006-0.004-0.011-0.009-0.016-0.013l0.017,0.025
					v-0.012C24.84,12.583,24.896,12.633,24.956,12.694z"/>
				<path fill-rule="evenodd" clip-rule="evenodd" fill="#56738A" d="M24.052,12.461l0.296,0.049l0.123,0.317l-0.315,0.504
					l0.006,0.002c-0.074,0.155-0.095,0.452-0.104,0.679c-0.531,1.388-0.81,3.52-0.905,5.034c-0.042-1.531,0.28-4.393,0.486-5.577
					c0.195-0.109,0.336-0.137,0.446-0.164C24.011,12.968,23.955,12.707,24.052,12.461z"/>
			</g>
			<g>
				<path fill-rule="evenodd" clip-rule="evenodd" fill="#E8A476" d="M24.358,11.649c-0.029-0.083-0.064-0.164-0.096-0.253
					c-0.093-0.252-0.096-0.786-0.258-1.377l2.33-1.014l0.497-0.265c-0.18,0.877-0.073,1.4,0.175,2.023
					c0.024,0.842-1.571,1.429-2.473,1.645C24.453,12.204,24.448,11.904,24.358,11.649z"/>
				<path fill-rule="evenodd" clip-rule="evenodd" fill="#DB9669" d="M26.794,11.304c-0.845-0.297-1.505,0.073-2.601-0.219
					c-0.041-0.28-0.077-0.659-0.188-1.065l2.33-1.014l0.497-0.265c-0.18,0.877-0.073,1.4,0.175,2.023
					C27.013,10.958,26.934,11.139,26.794,11.304z"/>
			</g>
			<g>
				<path fill-rule="evenodd" clip-rule="evenodd" fill="#E4EBF0" d="M24.534,12.409c-0.047-0.12-0.072-0.37-0.122-0.586
					c-0.047-0.195-0.22-0.671-0.222-0.796c-0.198,0.051-0.323,1.173-0.547,1.646C23.992,12.429,24.144,12.408,24.534,12.409z"/>
				<path fill-rule="evenodd" clip-rule="evenodd" fill="#E4EBF0" d="M27.007,10.742c0.053,0.856-1.573,1.452-2.48,1.667
					c0.228,0.275,0.521,0.621,0.51,0.896c0.654-0.179,1.766-0.487,2.213-1.324C27.558,11.409,27.305,10.97,27.007,10.742z"/>
				<path fill-rule="evenodd" clip-rule="evenodd" fill="#F8FAFC" d="M24.432,12.341c-0.044-0.23-0.06-0.387-0.15-0.404
					c-0.151-0.029-0.392,0.246-0.577,0.633C24.005,12.361,24.096,12.34,24.432,12.341z"/>
				<path fill-rule="evenodd" clip-rule="evenodd" fill="#F8FAFC" d="M25.978,12.048c-0.5,0.154-0.894,0.332-1.237,0.415
					c0.261,0.247,0.428,0.442,0.417,0.695c0.366-0.101,0.869-0.286,1.351-0.589C26.825,12.239,26.571,11.833,25.978,12.048z"/>
			</g>
			<g>
				<path fill-rule="evenodd" clip-rule="evenodd" fill="#F1B287" d="M25.691,10.437c0.415-0.159,0.575-0.475,0.802-0.903
					c0.086-0.077,0.187-0.15,0.31-0.216c0.574-0.166,0.72-0.417,0.864-0.696c0.318-0.617,0.314-1.391,0.001-1.978
					c-0.049-0.11-0.104-0.214-0.168-0.311c-0.338-0.523-0.838-0.813-1.486-0.893c-1.259-0.157-2.052,0.557-2.472,1.546
					c-0.036,0.085-0.052,0.167-0.056,0.263c-0.009,0.225,0.036,0.278,0.015,0.431c-0.014,0.1-0.098,0.186-0.156,0.338
					c-0.022,0.056-0.04,0.114-0.056,0.174c-0.015,0.036-0.028,0.074-0.038,0.115c-0.095,0.388-0.077,0.639-0.125,1.088
					c-0.017,0.152-0.016,0.333-0.042,0.487c-0.046,0.237-0.078,0.455-0.02,0.531c0.035,0.046,0.082,0.092,0.138,0.134
					c0.028,0.026,0.058,0.051,0.089,0.076c0.17,0.135,0.371,0.241,0.485,0.262c0.113,0.021,0.228,0.031,0.334,0.018
					c0.309-0.077,1.134-0.281,1.418-0.387C25.589,10.494,25.643,10.466,25.691,10.437z"/>
				<path fill-rule="evenodd" clip-rule="evenodd" fill="#E8A476" d="M24.121,10.903c0.309-0.077,1.257-0.306,1.539-0.391
					c0.508-0.153,0.622-0.517,0.866-1.014c0.765-0.369,0.911-0.315,1.209-1.005c0.164-0.381,0.218-0.811,0.151-1.231
					c-0.051-0.335-0.215-0.664-0.387-0.929c-0.338-0.523-0.838-0.813-1.486-0.893c-1.095-0.136-1.836,0.385-2.287,1.173
					c0.018,0.074,0.552,0.501,1.107,0.728c0.355,0.145,0.608,0.03,0.993-0.006c-0.017,0.313-0.441,0.954-0.494,1.16
					c-0.012,0.05,0.085,0.314-0.094,0.483c-0.049,0.046-0.162,0.086-0.166,0.183c-0.052,1.017-0.982,1.485-1.356,1.705
					C23.852,10.9,23.925,10.928,24.121,10.903z"/>
				<g>
					<path fill-rule="evenodd" clip-rule="evenodd" fill="#361D07" d="M24.484,6.87c0.328-0.073,1.555-0.348,2.094-0.493
						c0.552-0.149,1.152-0.304,1.47,0.105c0.233,0.523,0.13,1.328-0.055,1.744c-0.266,0.595-0.817,1.032-1.514,1.462
						c-0.261,0.162-0.007-0.713-0.024-0.916c-0.088,0.128-0.184,0.258-0.281,0.394l-0.431,0.145
						c0.515-1.076,0.032-1.231,0.333-1.687c0.194-0.294,0.265-0.533,0.228-0.678C25.848,6.855,25.082,7.198,24.484,6.87z"/>
					<path fill-rule="evenodd" clip-rule="evenodd" fill="#4F2B0C" d="M28.054,6.532c0.123,0.21,0.195,0.708,0.104,1.007
						c0.016-0.223,0.022-0.438-0.164-0.651c0.084,0.339,0.089,0.488-0.054,0.836c0.04-0.272,0.021-0.557-0.173-0.751
						c0.14,0.472,0.005,0.958-0.133,1.194c0.105-0.397,0.054-0.869-0.183-1.141c0.104,0.34-0.042,0.665-0.136,0.95
						c0.017-0.406,0.053-0.623-0.18-0.89c0.015,0.364-0.121,0.722-0.288,0.936c0.047-0.125,0.019-0.718-0.038-0.924
						c-0.066,0.224-0.178,0.431-0.317,0.502c0.089-0.301,0.073-0.515,0.065-0.673c-0.003-0.07-0.132-0.095-0.229-0.134
						C27.027,6.754,27.898,6.385,28.054,6.532z"/>
					<path fill-rule="evenodd" clip-rule="evenodd" fill="#4F2B0C" d="M28.071,6.53c-0.921-0.265-2.795,0.841-3.781,0.286
						c-0.329-0.184-0.541-0.465-0.555-0.635C23.538,3.644,28.023,4.379,28.071,6.53z"/>
					<path fill-rule="evenodd" clip-rule="evenodd" fill="#361D07" d="M26.321,6.87c-0.497-0.086-1.214,0.252-1.743,0.043
						c-0.103-0.016-0.2-0.047-0.288-0.098c-0.329-0.184-0.541-0.465-0.555-0.635c-0.007-0.096-0.006-0.187,0-0.273
						c0.152-0.644,0.605-0.751,0.94-0.778c-0.341,0.138-0.598,0.467-0.705,0.893c0.342-0.344,0.574-0.613,1.201-0.649
						c-0.423,0.214-0.627,0.43-0.88,0.8c0.419-0.297,0.726-0.457,1.161-0.552c-0.327,0.205-0.506,0.382-0.7,0.8
						c0.352-0.351,0.47-0.414,1.247-0.622c-0.425,0.229-0.576,0.411-0.785,0.736c0.412-0.315,0.71-0.53,1.164-0.632
						c-0.16,0.079-0.384,0.305-0.627,0.579c0.51-0.178,0.535-0.406,1.239-0.443c-0.251,0.112-0.487,0.25-0.678,0.453
						c0.343-0.164,0.721-0.375,1.198-0.444c-0.178,0.104-0.365,0.205-0.604,0.407c0.455-0.212,0.666-0.464,1.249-0.146
						c-0.276-0.048-0.481-0.063-0.739,0.098c0.385-0.14,0.648-0.105,0.904,0.159C27.679,6.327,27.017,6.991,26.321,6.87z"/>
					<path fill-rule="evenodd" clip-rule="evenodd" fill="#241304" d="M26.183,6.422c-0.113,0.126-0.202,0.207-0.23,0.292
						c0.383-0.161,0.804-0.388,1.184-0.512c-0.311,0.164-0.46,0.331-0.632,0.512c0.272-0.126,0.833-0.475,1.128-0.457
						c-0.27,0.059-0.385,0.213-0.583,0.387c0.297-0.074,0.773-0.271,1.063-0.143c-0.575-0.019-1.202,0.466-1.781,0.366
						c-0.536-0.093-1.104,0.214-1.665,0.078c-0.285-0.069-0.568-0.18-0.769-0.459c-0.072-0.086-0.131-0.165-0.15-0.262
						c-0.083-0.387,0.183-0.84,0.558-0.97c-0.355,0.252-0.423,0.834-0.407,0.993c0.091-0.114,0.257-0.401,0.537-0.525
						c-0.206,0.221-0.246,0.473-0.353,0.731c0.02,0.065,0.383-0.364,0.64-0.443c-0.224,0.27-0.259,0.557-0.217,0.703
						c0.211,0.079,0.291-0.355,0.683-0.459c-0.191,0.191-0.233,0.413-0.281,0.552c0.353-0.169,0.471-0.262,0.798-0.459
						c-0.122,0.138-0.225,0.235-0.296,0.376C25.757,6.599,25.879,6.57,26.183,6.422z"/>
					<g>
						<path fill-rule="evenodd" clip-rule="evenodd" fill="#E8A476" d="M26.776,8.476C27.287,8.433,27.155,8.978,27,9.291
							c-0.105,0.214-0.288,0.151-0.4,0.313c-0.134,0.194-0.324,0.252-0.465,0.214c-0.286-0.08-0.003-0.462,0.074-0.623
							C26.244,8.909,26.451,8.504,26.776,8.476z"/>
						<g>
							<path fill-rule="evenodd" clip-rule="evenodd" fill="#DB9669" d="M26.957,9.079c0.086-0.314,0.039-0.354-0.063-0.408
								c-0.129-0.065-0.393,0.189-0.425,0.285c0.075-0.012,0.19-0.016,0.223,0.071c-0.047-0.029-0.096-0.024-0.146-0.015
								c-0.046,0.009-0.088,0.048-0.147,0.03c-0.007-0.04,0.041-0.123,0.064-0.155c0.11-0.165,0.302-0.343,0.464-0.255
								C27.008,8.677,27.092,8.787,26.957,9.079z"/>
							<path fill-rule="evenodd" clip-rule="evenodd" fill="#DB9669" d="M26.402,9.303c0.032-0.047,0.023-0.132,0.126-0.167
								c-0.096-0.02-0.146,0.006-0.183,0.055c-0.045,0.06-0.053,0.112-0.043,0.125C26.309,9.325,26.347,9.386,26.402,9.303z"/>
						</g>
					</g>
				</g>
				<path fill-rule="evenodd" clip-rule="evenodd" fill="#E8A476" d="M23.499,7.125c-0.048,0.179,0.025,0.332,0.006,0.495
					c-0.005,0.044-0.001,0.09-0.02,0.127c-0.042,0.09-0.163,0.236-0.219,0.464c-0.083,0.342-0.09,0.553-0.111,0.914
					c0.052-0.054,0.131,0.008,0.161,0.04c0.085,0.087,0.129,0.143,0.223,0.18c0.017,0.006,0.011,0.039-0.002,0.075
					c-0.004,0.012-0.008,0.022-0.006,0.025c0.002,0.002,0.01,0,0.022-0.016c0.018-0.027,0.038-0.056,0.067-0.049
					c0.012,0.002,0.037,0.034,0.046,0.049c0.014,0.024,0,0.076-0.015,0.111c-0.017,0.042-0.002,0.037,0.021,0.009
					c0.044-0.054,0.121-0.103,0.192-0.091c0.083,0.016,0.206,0.042,0.291-0.034c-0.193-0.266-0.126-0.144-0.446-0.21
					c-0.134-0.027-0.294-0.098-0.213-0.228c0.122-0.198,0.337-0.371,0.436-0.564c0.127-0.246,0.162-0.585,0.045-0.782
					C23.873,7.443,23.574,7.344,23.499,7.125z"/>
				<path fill-rule="evenodd" clip-rule="evenodd" fill="#E6E6E6" d="M24.534,8.49c-0.037,0.015,0.002,0.026,0.017,0.023
					c0.033-0.006,0.084,0.009,0.094,0.024c0.05,0.08,0.102,0.16,0.176,0.219c0.072,0.058,0.149,0.074,0.308,0.096
					c0.038,0.005,0.077,0.006,0.124,0.017c0.012,0.003,0.029,0.011,0.03-0.009c0.001-0.043-0.025-0.09-0.049-0.125
					C25.136,8.597,25.026,8.373,24.534,8.49z"/>
				<g>
					<path fill-rule="evenodd" clip-rule="evenodd" fill="#032836" d="M24.79,8.458c-0.021,0.061-0.049,0.183-0.036,0.223
						c0.013,0.036,0.051,0.063,0.139,0.102C24.94,8.803,25,8.813,25.072,8.749c0.015-0.014,0.089-0.096,0.105-0.117l-0.05-0.054
						l-0.133-0.083l-0.131-0.038L24.79,8.458z"/>
					<path fill-rule="evenodd" clip-rule="evenodd" d="M24.844,8.459c-0.01,0.021-0.021,0.069-0.023,0.111
						c-0.011,0.121,0.118,0.187,0.219,0.104c0.028-0.023,0.056-0.06,0.081-0.092C25.045,8.504,24.94,8.469,24.844,8.459z"/>
					<path fill-rule="evenodd" clip-rule="evenodd" fill="#096282" d="M24.787,8.521c-0.033,0.148-0.009,0.181,0.054,0.218
						c0.135,0.08,0.208,0.025,0.291-0.076l-0.037-0.025c-0.04,0.046-0.127,0.128-0.234,0.068c-0.036-0.02-0.073-0.093-0.038-0.197
						L24.787,8.521z"/>
					<path fill-rule="evenodd" clip-rule="evenodd" fill="#FFFFFF" d="M24.779,8.555c0.018,0.011,0.093,0.071,0.115,0.098
						c-0.054,0.006-0.098-0.029-0.122-0.045C24.773,8.587,24.775,8.575,24.779,8.555z"/>
				</g>
				<path opacity="0.5" fill-rule="evenodd" clip-rule="evenodd" fill="#756E6E" d="M24.534,8.49
					c-0.005,0.002-0.019,0.012-0.016,0.014C24.525,8.51,24.61,8.5,24.624,8.501c0.213,0.023,0.51,0.215,0.656,0.368
					c0.004-0.006,0.003-0.022,0.001-0.028c-0.024-0.062-0.064-0.144-0.125-0.215c-0.038-0.044-0.083-0.084-0.139-0.112
					C24.876,8.439,24.673,8.444,24.534,8.49z"/>
				<path fill-rule="evenodd" clip-rule="evenodd" fill="#C2845B" d="M25.066,8.512c0.187,0.111,0.221,0.279,0.323,0.451
					c0.015,0.021,0.028,0.033,0.006,0.024c-0.026-0.01-0.078-0.069-0.088-0.084c-0.057-0.096-0.124-0.269-0.25-0.354
					c-0.146-0.1-0.329-0.079-0.488-0.057c-0.051,0.007-0.07,0.033-0.06-0.013c0.004-0.003,0.009-0.006,0.014-0.008
					C24.688,8.396,24.95,8.442,25.066,8.512z"/>
				<path fill-rule="evenodd" clip-rule="evenodd" fill="#704A31" d="M24.51,8.502c0.005,0.004,0.032-0.003,0.057-0.008
					c0.044-0.01,0.081-0.013,0.071,0.002c0.015,0,0.044-0.017,0.047-0.017c0.012,0,0.003,0.018-0.003,0.032
					c0.015-0.003,0.039-0.035,0.045-0.035c0.013,0-0.008,0.029-0.014,0.043c0.023-0.006,0.063-0.045,0.063-0.045
					c0.007,0.004-0.002,0.024-0.031,0.051c0.029-0.011,0.074-0.048,0.074-0.048c0.018,0.001-0.021,0.051-0.041,0.064
					c0.044-0.016,0.063-0.033,0.093-0.061c0.022,0.005-0.03,0.052-0.056,0.074c0.038-0.003,0.096-0.053,0.113-0.063
					c0.006,0.009-0.024,0.055-0.072,0.076c0.062,0.003,0.118-0.061,0.123-0.056c0.016,0.006-0.025,0.067-0.077,0.081
					c0.064,0.005,0.112-0.04,0.135-0.054c0.028,0.013-0.028,0.069-0.064,0.075c0.049,0.005,0.085-0.011,0.118-0.026
					c-0.005,0.029-0.049,0.056-0.081,0.058c0.074,0.011,0.102-0.012,0.118-0.026c0.02,0.014-0.019,0.062-0.054,0.066
					c0.045,0.015,0.067,0.003,0.098-0.012c0.018,0.001-0.032,0.062-0.081,0.061c0.04,0.008,0.069,0.014,0.121-0.003
					c-0.004,0.035-0.069,0.047-0.09,0.049c0.033,0.009,0.088,0.019,0.119,0.007c-0.003,0.021-0.021,0.035-0.034,0.038
					c0.025,0.016,0.061,0,0.068,0.023c0.015,0.043,0.053,0.094,0.109,0.13c-0.006-0.003-0.046-0.051-0.08-0.12
					c-0.058-0.119-0.149-0.263-0.253-0.331C24.918,8.438,24.621,8.438,24.51,8.502z"/>
				<path fill-rule="evenodd" clip-rule="evenodd" fill="#E8A476" d="M24.7,8.335c0.374-0.07,0.614,0.109,0.727,0.417
					C25.313,8.502,24.997,8.309,24.7,8.335z"/>
				<path fill-rule="evenodd" clip-rule="evenodd" fill="#E8A476" d="M24.04,9.055c0.188-0.033,0.3,0.038,0.256,0.207
					C24.418,9.1,24.261,8.958,24.04,9.055z"/>
				<path fill-rule="evenodd" clip-rule="evenodd" fill="#E8A476" d="M24.551,7.854c-0.07,0.103-0.147,0.405-0.18,0.623
					c0.158-0.223,0.221-0.326,0.406-0.31c0.112,0.01,0.322,0.063,0.479,0.164c0.085,0.057,0.146,0.211,0.196,0.234l-0.152-0.338
					l-0.459-0.206L24.551,7.854z"/>
				<path fill-rule="evenodd" clip-rule="evenodd" fill="#DB9669" d="M23.559,6.954c-0.061,0.128-0.111,0.287-0.016,0.387
					c0.233,0.243,0.455,0.419,0.406,0.9c0.036-0.161,0.156-0.556,0.107-0.69C23.999,7.392,23.711,7.08,23.559,6.954z"/>
				<path fill-rule="evenodd" clip-rule="evenodd" fill="#361D07" d="M24.598,7.66c-0.027,0.103-0.093,0.243,0.017,0.296
					c0.196,0.095,0.317,0.145,0.561,0.248c0.101,0.043,0.15,0.083,0.206,0.214c0.059,0.138,0.114,0.234,0.206,0.346
					c-0.045-0.132-0.071-0.323-0.11-0.457c-0.025-0.089-0.035-0.197-0.169-0.285C25.093,7.879,24.711,7.696,24.598,7.66z"/>
				<path fill-rule="evenodd" clip-rule="evenodd" fill="#361D07" d="M23.595,6.85c0.056,0.086,0.294,0.278,0.382,0.391
					c-0.004-0.032-0.008-0.03-0.023-0.07c0.043,0.055,0.149,0.175,0.143,0.236c-0.004,0.043-0.038,0.176-0.064,0.196
					c-0.046,0.033-0.179-0.148-0.215-0.195c-0.09-0.112-0.264-0.308-0.289-0.387C23.513,6.971,23.559,6.871,23.595,6.85z"/>
				<path fill-rule="evenodd" clip-rule="evenodd" fill="#E6E6E6" d="M23.933,8.167c-0.02-0.019-0.033-0.035-0.053-0.043
					c-0.145-0.064-0.187-0.052-0.263-0.116c-0.08-0.066-0.094-0.126-0.113-0.192c-0.006-0.017,0.012-0.133,0.028-0.134
					c0.115,0.008,0.225,0.061,0.301,0.157c0.069,0.087,0.108,0.221,0.133,0.32C23.975,8.195,23.952,8.184,23.933,8.167z"/>
				<g>
					<path fill-rule="evenodd" clip-rule="evenodd" fill="#032836" d="M23.565,7.817c-0.016,0.084,0,0.144,0.098,0.2
						c0.09,0.052,0.166,0.039,0.236-0.023c-0.035-0.121-0.084-0.192-0.161-0.246c-0.036-0.024-0.071-0.042-0.133-0.057
						C23.588,7.735,23.575,7.769,23.565,7.817z"/>
					<path fill-rule="evenodd" clip-rule="evenodd" d="M23.63,7.815c-0.019,0.083,0.044,0.17,0.131,0.155
						c0.033-0.006,0.07-0.024,0.107-0.056l-0.055-0.112l-0.148-0.089C23.653,7.747,23.637,7.781,23.63,7.815z"/>
					<path fill-rule="evenodd" clip-rule="evenodd" fill="#096282" d="M23.598,7.742c-0.064,0.16,0.024,0.248,0.082,0.271
						c0.067,0.028,0.136,0.013,0.194-0.021L23.85,7.957c-0.06,0.019-0.091,0.049-0.161,0.021c-0.046-0.019-0.1-0.106-0.051-0.224
						L23.598,7.742z"/>
					<path fill-rule="evenodd" clip-rule="evenodd" fill="#FFFFFF" d="M23.586,7.769c0.017,0.014,0.089,0.083,0.11,0.112
						c-0.052,0-0.095-0.041-0.118-0.06C23.579,7.801,23.582,7.788,23.586,7.769z"/>
				</g>
				<path opacity="0.5" fill-rule="evenodd" clip-rule="evenodd" fill="#6E6A6A" d="M23.511,7.738
					c0.006-0.024,0.013-0.053,0.018-0.054c0.243,0.03,0.313,0.179,0.357,0.258c0.047,0.079,0.07,0.176,0.08,0.216
					c0.003,0.016-0.006,0.018-0.013,0.019c-0.064-0.091-0.118-0.162-0.188-0.248C23.709,7.862,23.613,7.792,23.511,7.738z"/>
				<path fill-rule="evenodd" clip-rule="evenodd" fill="#C2845B" d="M23.524,7.69c0.016,0.004,0.034,0.007,0.054,0.01
					c0.138,0.019,0.234,0.12,0.294,0.237c0.042,0.081,0.061,0.17,0.084,0.229c0.015,0.027,0.017,0.007,0.013-0.008
					c-0.062-0.217-0.11-0.471-0.39-0.492l-0.052-0.005L23.524,7.69z"/>
				<path fill-rule="evenodd" clip-rule="evenodd" fill="#C2845B" d="M23.925,8.179c-0.021-0.019-0.032-0.032-0.052-0.041
					c-0.146-0.065-0.188-0.053-0.264-0.116c-0.099-0.081-0.114-0.169-0.116-0.261C23.51,7.834,23.551,7.938,23.632,8
					c0.073,0.058,0.164,0.061,0.252,0.11c0.02,0.011,0.034,0.024,0.057,0.05c0.009,0.009,0.013,0.014,0.031,0.012
					C23.969,8.19,23.937,8.189,23.925,8.179z"/>
				<path fill-rule="evenodd" clip-rule="evenodd" fill="#704A31" d="M23.562,7.75c0.037-0.001,0.063-0.016,0.084-0.028
					c0.021,0.009-0.032,0.039-0.05,0.041c0.039,0.007,0.07-0.009,0.099-0.014c0.008,0.009-0.013,0.026-0.055,0.03
					c0.064,0.019,0.088-0.01,0.092-0.006c0.022,0.013-0.009,0.034-0.059,0.039c0.048,0.013,0.083,0.006,0.106-0.001
					c0.018,0.025-0.041,0.036-0.083,0.028c0.048,0.021,0.078,0.015,0.119,0.021c0.011,0.011,0.003,0.03-0.081,0.027
					c0.038,0.019,0.065,0.021,0.109,0.026c0.004,0.013-0.027,0.013-0.072,0.01c0.052,0.014,0.048,0.019,0.092,0.032
					c0.003,0.018-0.004,0.014-0.05,0.013c0.029,0.013,0.032,0.021,0.066,0.021c-0.01,0.008-0.028,0.016-0.052,0.011
					c0.016,0.007,0.047,0.014,0.066,0.017c0.002,0.008-0.002,0.011-0.019,0.017c0.008,0.013,0.026,0.013,0.033,0.023
					c0.004,0.007-0.006,0.005-0.018,0.005c0.019,0.016,0.058,0.085,0.067,0.106c-0.035-0.175-0.095-0.352-0.238-0.45
					c-0.065-0.045-0.195-0.029-0.269-0.058c0.017,0.029,0.048,0.029,0.061,0.034c0.017,0.006-0.023,0.021-0.034,0.022
					c0.046,0.007,0.087-0.017,0.087-0.014c0.001,0.003-0.024,0.033-0.051,0.031c0.034,0.013,0.088-0.024,0.087-0.023
					C23.609,7.714,23.581,7.744,23.562,7.75z"/>
				<g>
					<path fill-rule="evenodd" clip-rule="evenodd" fill="#DB9669" d="M23.784,9.285c0.107,0.015,0.218,0.186,0.385,0.116
						C24.266,9.36,24.026,9.15,23.784,9.285z"/>
					<path fill-rule="evenodd" clip-rule="evenodd" fill="#F1B287" d="M24.066,7.582c0.016,0.172-0.085,0.554-0.131,0.701
						c-0.053,0.17-0.171,0.337-0.358,0.53c-0.092,0.094-0.203,0.202-0.214,0.243c-0.02,0.068,0.05,0.167,0.134,0.218
						c0.132,0.082,0.256-0.031,0.424,0.028c0.029,0.011,0.057,0.023,0.083,0.036c0.092,0.046,0.175,0.121,0.244-0.006
						c0.033-0.06,0.024-0.143-0.004-0.201c-0.03-0.065-0.113-0.107-0.223-0.106C24.208,8.571,24.473,7.951,24.066,7.582z"/>
					<path fill-rule="evenodd" clip-rule="evenodd" fill="#F5BC95" d="M24.001,8.061c-0.039,0.217-0.141,0.478-0.411,0.755
						c-0.088,0.09-0.197,0.193-0.208,0.232c-0.018,0.064,0.037,0.159,0.118,0.208c0.089,0.055,0.194,0.022,0.29,0.008
						c-0.231-0.031-0.333-0.152-0.228-0.275C24.014,8.496,24.004,8.144,24.001,8.061z"/>
				</g>
				<path fill-rule="evenodd" clip-rule="evenodd" fill="#C2845B" d="M24.572,8.51c0.03,0.002,0.046,0.008,0.065,0.019
					c0.034,0.021,0.054,0.057,0.075,0.099c0.027,0.057,0.063,0.088,0.103,0.114c0.063,0.042,0.17,0.074,0.271,0.092
					c0.062,0.011,0.123,0.014,0.166,0.028c0.016,0.005,0.024,0.014,0.036,0.023c-0.036-0.003-0.16-0.025-0.204-0.031
					c-0.169-0.025-0.336-0.063-0.416-0.212c-0.021-0.039-0.04-0.07-0.052-0.083c-0.01-0.011-0.022-0.023-0.048-0.03
					c-0.01-0.002-0.017-0.003-0.022-0.003c-0.006-0.001-0.046-0.003-0.031-0.026c0.012,0.011,0.02,0.014,0.032,0.012
					C24.556,8.51,24.563,8.508,24.572,8.51z"/>
				<g>
					<path fill-rule="evenodd" clip-rule="evenodd" fill="#E8A476" d="M23.81,9.719c0.046,0.086,0.202,0.243,0.303,0.319
						c0.019,0.015,0.046,0.015,0.075-0.012c0.016-0.014,0.05,0.011,0.046,0.04c-0.003,0.027-0.03,0.037-0.062,0.044
						c-0.042,0.01-0.07,0.014-0.1,0.017c-0.089,0.01-0.225,0.069-0.358,0.108c-0.083,0.023-0.188,0.061-0.267,0.036
						c-0.042-0.013-0.108-0.051-0.167-0.099c-0.091-0.072-0.093-0.163-0.085-0.282c0.035-0.076,0.151-0.036,0.19-0.096
						c0.038-0.059,0.13-0.069,0.303-0.15L23.81,9.719z"/>
					<path fill-rule="evenodd" clip-rule="evenodd" fill="#DB9669" d="M23.897,9.808c0.059,0.081,0.135,0.175,0.221,0.25
						c0.008,0.007,0.025,0.01,0.041,0.007c0.023-0.006,0.021-0.029,0.039-0.015c0.008,0.007,0.013,0.022,0.001,0.031
						s-0.039,0.017-0.07,0.022c-0.033,0.006-0.069,0.012-0.088,0.017c-0.059,0.015-0.225,0.05-0.327,0.08
						c-0.096,0.027-0.224,0.033-0.297-0.013c-0.042-0.027-0.098-0.058-0.141-0.093c-0.052-0.044-0.087-0.096-0.078-0.19
						c0.02-0.068,0.152-0.037,0.188-0.111c0.03-0.064,0.13-0.069,0.303-0.15C23.796,9.705,23.833,9.718,23.897,9.808z"/>
					<path fill-rule="evenodd" clip-rule="evenodd" fill="#5E3920" d="M23.232,9.814l0.231,0.272l0.397,0.005l0.211-0.026
						l-0.288-0.264l-0.157-0.17l-0.211-0.057l-0.11-0.041C23.233,9.529,23.233,9.732,23.232,9.814z"/>
					<path fill-rule="evenodd" clip-rule="evenodd" fill="#EBD3C3" d="M23.718,9.887c0.046,0.033,0.095,0.065,0.144,0.093
						c0.059,0.034,0.148,0.078,0.192,0.06l-0.217-0.14L23.72,9.706L23.583,9.64c0,0-0.084,0.005-0.088,0.005
						c-0.005,0-0.085-0.02-0.085-0.02l-0.084-0.077l-0.05-0.018c-0.007,0.022-0.025,0.064-0.007,0.084
						c0.022,0.025,0.101,0.097,0.204,0.133C23.6,9.794,23.606,9.807,23.718,9.887z"/>
					<path fill-rule="evenodd" clip-rule="evenodd" fill="#E8A476" d="M23.238,9.704c0-0.073-0.01-0.246,0.06-0.264
						c0.131-0.035,0.143,0.074,0.239,0.111c0.078,0.029,0.106,0.028,0.167,0.053c0.04,0.016,0.132,0.122,0.235,0.271
						c0.037,0.053,0.102,0.119,0.148,0.161c0.021,0.019,0.012,0.025-0.006,0.023c-0.068-0.009-0.166-0.063-0.21-0.1
						c-0.095-0.077-0.156-0.199-0.221-0.215c-0.05-0.013-0.109-0.051-0.175-0.066C23.434,9.669,23.37,9.617,23.34,9.58
						c-0.027-0.033-0.062-0.039-0.074-0.004C23.255,9.605,23.239,9.655,23.238,9.704z"/>
					<path fill-rule="evenodd" clip-rule="evenodd" fill="#F1B287" d="M23.233,9.727c-0.018,0.023-0.033,0.07-0.036,0.118
						c-0.005,0.084-0.002,0.135,0.03,0.18c0.028,0.039,0.081,0.073,0.151,0.12c0.08,0.052,0.141,0.067,0.268,0.053
						c0.104-0.014,0.314-0.062,0.414-0.091c0.027-0.008,0.053-0.023,0.019-0.045c-0.022-0.014-0.349-0.019-0.44-0.052
						c-0.079-0.029-0.152-0.047-0.225-0.07c-0.032-0.01-0.073-0.049-0.108-0.092C23.271,9.804,23.24,9.75,23.233,9.727z"/>
				</g>
			</g>
		</g>
	</g>
</g>
</svg>
