<?xml version="1.0" encoding="utf-8"?><svg id="spinningGlobe_1" image-rendering="auto" baseProfile="basic" version="1.1" x="0px" y="0px" width="300" height="300" xmlns="http://www.w3.org/2000/svg" xmlns:xlink="http://www.w3.org/1999/xlink"><defs><radialGradient id="Gradient_1" gradientUnits="userSpaceOnUse" cx="0" cy="0" r="217.737" fx="0" fy="0" gradientTransform="translate(108.05 103.8)" spreadMethod="pad"><stop offset="0%" stop-color="#FFF"/><stop offset="100%" stop-color="#283C3A"/></radialGradient></defs><g id="Scene-1" overflow="visible"><g display="none" id="Layer7_0_FILL"><path fill="#131C1B" stroke="none" d="M51.7 226L56.35 231.95Q63.25 239.5 73.8 239.5 65.9 230.95 55.65 226.35L51.7 226M52.7 152.55L54 159.15 54 159.45Q41.85 176.6 52.7 197L52.7 197.35Q54.35 198.65 55 201.65L55 202.3 79.7 231.3 80.05 231.3Q81.7 233.25 83.65 231.3L84 230.95Q87.95 222.7 84.35 214.8L95.2 203.3 95.55 203.6Q109.35 206.55 120.25 200.65 122.2 198 122.2 193.4L121.9 193.4 116.95 188.15 116.95 187.8 122.2 177.6 121.9 177.6Q121.55 173.3 117.95 172.65L117.6 172.3 116.6 169.7 116.3 169.7 99.5 160.15Q96.85 156.85 96.5 151.9L96.2 151.9Q92.9 149.6 88.6 148.6L83 143 82.7 143Q71.5 140.35 71.8 132.8 51.7 127.5 39.2 144.3 39.55 149.6 42.15 152.9L42.15 153.2Q39.55 157.8 40.85 162.1L41.15 162.45Q45.45 161.75 47.45 157.15L47.45 156.85Q51.05 155.85 52.35 152.55L52.7 152.55M72.15 123.25L75.45 128.5 79.7 131.15 82 132.15Q85 132.15 87.6 130.15L88.95 116.95 80.7 117.3 72.15 123.25M64.25 94.25Q60.95 84.05 66.85 75.15 58.3 79.1 56 89.3L56 89.65 58.65 95.9Q62.25 96.9 63.9 94.55L64.25 94.25M89.95 48.8L90.6 45.5 88.3 43.2 81.35 51.4Q84.65 55.35 90.25 55.35 94.2 55.05 96.2 51.75L95.2 51.1 89.95 48.8M131.75 258.95L131.45 258.95Q125.85 256.65 121.9 260.6L123.55 266.85 123.85 266.85 142.3 272.8 130.1 272.45Q136.35 274.1 128.8 274.75L128.8 275.1 131.45 275.75 151.2 277.05 183.15 273.45Q184.45 272.45 183.5 270.5L177.55 270.5 177.55 270.8 162.4 274.1 159.1 267.5 162.75 265.2 165.05 259.3 164.7 259.3Q148.9 251.7 131.75 258.95M107.4 122.25L103.1 121.25 100.15 119.6 98.15 112.35 90.25 116.95 91.55 122.25Q93.9 131.15 87.95 137.75 91.25 144.3 101.45 144.3L101.45 144.65Q110.35 142.65 116.95 138.05L117.25 137.75 109.05 128.5 107.4 122.25M145.95 118.95L146.6 109.05Q140.65 111.7 134.4 111.05L132.4 112.35 132.4 113Q133.75 120.6 128.8 127.2L129.45 128.85Q132.1 133.75 136.35 130.5L136.7 130.5 137.05 130.15 142.65 126.85 144.95 124.9 145.25 124.9 145.95 118.95M96.2 98.2Q95.2 92.6 92.25 90.6 85.65 94.25 84 102.15L85 103.8Q88.3 108.75 93.55 105.1L94.2 107.1 98.15 111.05 97.15 104.1Q98.8 101.8 98.5 100.5L98.15 100.15 94.2 99.5Q95.55 99.5 95.85 98.5L96.2 98.5 96.2 98.2M109.7 46.5L109.35 46.5 99.15 47.8Q99.5 55.05 94.85 60.95L95.85 62.6 101.15 65.9 101.45 65.9Q107.7 62.6 104.4 54.7L104.75 54.7 109.7 46.5M99.5 36.6L100.15 35.3 100.15 34.95 96.2 37.25 96.5 38.9 100.15 41.55 100.45 41.55 108.7 36.25Q106.05 37.25 104.75 36.25L99.5 36.6M235.2 154.55L235.85 162.1 234.85 167.05 237.85 172.95 246.05 175.3Q245.4 172.95 247.05 171L247.7 170Q246.05 158.8 239.5 149.9 235.55 150.25 235.2 154.55M191.05 73.5L190.75 73.5Q188.4 73.8 188.75 75.8L188.4 76.1 177.2 83.7 177.2 84.05 182.15 90.95 176.9 95.9 178.85 98.5 184.8 102.5Q190.4 102.8 194.7 98.2 194 90.6 198.3 84.7L200.6 76.45 200.6 76.1 191.05 73.5M168 32.95L168 32.65Q165.05 29.7 158.75 28.7L172.3 30.35 162.05 27.05 161.75 27.05 155.15 24.75 154.8 24.75 154.8 25.4 154.5 25.4 154.8 24.75 154.8 24.4Q137.35 23.75 118.6 29.7L112.65 34.3 127.5 32.3Q128.15 34.95 135.7 33.65L136.05 33.65 142.95 30.65 143.3 30.65 154.8 29.7 155.15 29.7Q161.4 33.3 168 32.95M253 88.65L245.1 73.8Q242.75 74.8 240.8 73.8L231.25 59 231.55 59 225.95 54.7 220.05 53.4 219.05 52.75 216.4 49.75Q206.55 44.85 199.3 36.9L198.95 36.6Q191.05 31.3 182.15 28.05L171.6 24.75 165.35 23.75 161.1 24.4 170.95 27.35 182.8 33.3 192.7 36.9 195.35 40.2 182.8 40.2 187.75 47.45 179.85 47.15Q174.6 45.8 172.6 40.55L166 35.3 153.85 32.3Q155.5 35.6 158.75 37.9L161.1 38.55Q166.35 39.25 169.3 42.2L167 44.85 164.7 46.8 165.35 47.45 166.35 48.1 167.35 48.45 168.35 49.1 168.65 48.8 168.65 48.1 169 45.8Q173.25 46.8 176.25 50.45L178.2 52.75Q182.5 57.35 189.4 59.3L191.7 63.3 197.65 65.9 202.9 74.15 205.2 69.55 205.2 67.9 213.15 68.55Q220.35 83.35 235.55 90.95L237.15 92.25Q241.15 96.9 247.05 98.5L246.4 100.85Q243.45 100.85 241.45 99.2L235.55 95.9 232.55 94.9Q231.55 96.55 233.55 98.5 234.55 99.5 236.2 99.85 240.8 108.75 246.4 117.95L250.35 126.85 252.35 136.4Q253 142.65 251 148.95L249.7 157.8 249.7 163.75 251 170.35 251.35 176.6 253.3 182.2 252.65 184.85 248.7 191.4 248.7 191.75Q249.05 196.35 246.4 199.65 246.4 212.15 248.35 221.75 268.8 203.6 276.35 169.7L277.05 166.05 277.7 139.7 276.05 144Q272.4 143 269.45 140.7L264.85 125.55 264.5 125.55 260.55 122.55 257.95 116.3 258.25 109.4Q252.65 99.85 253 88.65M197.65 62.95L197.65 62.6Q205.55 63.95 200.95 67.9L200.6 67.9 200.6 67.55Q197.95 65.9 197.65 62.95M225.3 68.55L225.95 73.15Q221.7 74.5 219.7 70.5L217.1 64.25 222.35 64.9 225.3 68.55Z" test="Scene 1"/><path fill="url(#Gradient_1)" stroke="none" d="M136.35 177.9L136.7 178.25Q138.7 186.5 147.25 182.2L147.25 181.85Q144.95 172.3 136.35 177.9M55 202.3L55 201.65Q54.35 198.65 52.7 197.35 48.75 197.35 45.8 199.65L47.45 204.25 48.75 206.55Q51.4 209.85 55.35 207.9L55 202.3M144.95 124.9L142.65 126.85Q145.95 136.1 150.55 128.15L150.55 127.85Q150.2 123.9 145.25 125.2L144.95 124.9M177.55 125.85L168.65 124.9 170.65 134.75 170.95 134.75Q186.75 138.05 191.05 130.8L189.4 130.8 189.4 131.15Q180.2 131.8 177.55 126.2L177.55 125.85M166.35 48.1L165.35 47.45 164.7 46.8 167 44.85 169.3 42.2Q166.35 39.25 161.1 38.55L158.75 37.9Q155.5 35.6 153.85 32.3L166 35.3 172.6 40.55Q174.6 45.8 179.85 47.15L187.75 47.45 182.8 40.2 195.35 40.2 192.7 36.9 182.8 33.3 170.95 27.35 161.1 24.4 165.35 23.75 161.1 23.4 140.65 23.4 132.75 24.4Q120.9 25.7 110 29.7L100.15 34.95 100.15 35.3 99.5 36.6 104.75 36.25Q106.05 37.25 108.7 36.25L100.45 41.55 100.15 41.55 97.5 45.5 97.5 47.15 99.15 47.8 109.35 46.5 109.7 46.5 104.75 54.7 104.4 54.7Q107.7 62.6 101.45 65.9L101.15 65.9 92.25 90.6Q95.2 92.6 96.2 98.2 98.5 94.9 98.5 100.15L98.5 100.5Q98.8 101.8 97.15 104.1L98.15 111.05 98.15 112.35 100.15 119.6 103.1 121.25 107.4 122.25 109.05 128.5 117.25 137.75Q125.85 138.05 133.1 141.7L135.05 144.3Q140.65 146.95 146.6 149.9L150.55 157.15 156.15 162.1 166.35 161.45 174.25 165.75Q166 173.3 160.4 183.2L160.4 193.4 161.4 198 161.1 199.65 165.05 205.9 166.7 207.55 168.65 208.55Q170.65 216.45 178.55 219.1L178.55 229.95 178.2 231.6Q178.2 235.25 175.55 238.2L174.6 240.5Q173.25 244.15 173.95 247.75L166 253.35 165.05 259.3 162.75 265.2 159.1 267.5 162.4 274.1 177.55 270.8 177.55 270.5 183.5 270.5 183.8 270.5Q186.1 267.85 183.5 266.55L182.15 266.55 181.5 265.55 185.8 263.55Q188.4 259.95 192.7 257.3L198.65 253 240.45 213.15 240.8 208.55 242.45 204.95 242.45 203.3 242.1 202.3 248.7 191.4 252.65 184.85 253.3 182.2 251.35 176.6 251.35 176.95 246.05 175.3 237.85 172.95 234.85 167.05 235.85 162.1 233.55 164.75Q231.9 166.05 229.95 164.75L224 158.8 223.35 158.8 221.7 158.15 220.35 155.85Q216.75 154.55 214.1 156.85 207.2 154.85 204.9 148.25L182.15 149.25 177.2 155.5Q168 157.8 158.75 155.5L156.15 152.55Q162.05 148.95 161.75 141.7L149.55 138.4 144.95 137.75 141.3 134.75 140 134.45 136.35 130.5Q132.1 133.75 129.45 128.85L128.8 127.2Q133.75 120.6 132.4 113L132.4 112.35 134.4 111.05Q140.65 111.7 146.6 109.05L145.95 118.95 148.55 109.05 149.9 110.7Q151.85 113.35 150.55 116.65L154.5 119.3 159.1 121.25 167.65 104.45 168.65 100.85 168 94.55Q170.65 87.3 177.2 84.05L177.2 83.7 188.4 76.1 188.75 75.8Q188.4 73.8 190.75 73.5L191.05 73.5 200.6 76.1 200.95 76.45 202.9 74.5 202.9 74.15 197.65 65.9 191.7 63.3 189.4 59.3Q182.5 57.35 178.2 52.75L176.25 50.45Q173.25 46.8 169 45.8L168.65 48.1 168.65 48.8 168.35 49.1 167.35 48.45 166.35 48.1M168 32.65L168 32.95Q161.4 33.3 155.15 29.7L154.8 29.7 143.3 30.65 142.95 30.65 136.05 33.65 135.7 33.65Q128.15 34.95 127.5 32.3L112.65 34.3 118.6 29.7Q137.35 23.75 154.8 24.4L155.15 24.4 155.15 24.75 161.75 27.05 162.05 27.05 172.3 30.35 158.75 28.7Q165.05 29.7 168 32.65M245.1 73.8L253 88.65Q252.65 99.85 258.25 109.4L257.95 116.3 260.55 122.55 264.5 125.55 264.85 125.55 269.45 140.7Q272.4 143 276.05 144L277.7 139.7 277.7 139.35Q275.7 112.7 263.55 90.3L245.1 64.25 244.4 64.6 244.75 66.55Q241.45 64.6 239.15 60.95L237.5 58.35 236.85 57 237.15 56.35Q210.8 32.3 177.55 25.7L171.6 24.75 182.15 28.05Q191.05 31.3 198.95 36.6L199.3 36.6 199.3 36.9Q206.55 44.85 216.4 49.75L219.05 52.75 220.05 53.4 225.95 54.7 231.55 59 231.25 59 240.8 73.8Q242.75 74.8 245.1 73.8M200.95 36.9L200.95 36.6Q207.85 38.25 213.15 41.85L200.95 36.9M225.95 73.15L225.3 68.55 222.35 64.9 217.1 64.25 219.7 70.5Q221.7 74.5 225.95 73.15M197.65 62.6L197.65 62.95Q197.95 65.9 200.6 67.55L200.95 67.9Q205.55 63.95 197.65 62.6Z" test="Scene 1"/><path fill="#666" stroke="none" d="M41.15 162.45L40.85 162.1 40.85 162.45 41.15 162.45M240.45 59.65L237.85 57.35 236.85 57 237.5 58.35 240.45 59.65M155.15 24.4L154.8 24.4 154.8 24.75 155.15 24.75 155.15 24.4M200.95 36.6L200.95 36.9 213.15 41.85Q207.85 38.25 200.95 36.6Z" test="Scene 1"/><path fill="#8F4343" stroke="none" d="M64.25 94.55L64.25 94.25 63.9 94.55 64.25 94.55Z" test="Scene 1"/><path fill="#000" stroke="none" d="M183.5 266.55Q186.75 265.55 185.8 263.55L181.5 265.55 182.15 266.55 183.5 266.55Z" test="Scene 1"/><path fill="#924545" stroke="none" d="M128.45 274.75L128.8 275.1 128.8 274.75 128.45 274.75M98.15 100.15L98.5 100.5 98.5 100.15 98.15 100.15Z" test="Scene 1"/><path fill="#534343" stroke="none" d="M145.25 124.9L144.95 124.9 145.25 125.2 145.25 124.9Z" test="Scene 1"/><path fill="#564545" stroke="none" d="M137.05 130.15L136.7 130.5 137.05 130.5 137.05 130.15Z" test="Scene 1"/><path fill="#999" stroke="none" d="M237.15 56.35L236.85 57 237.85 57.35 237.15 56.35M200.6 76.1L200.6 76.45 200.95 76.45 200.6 76.1M199.3 36.9L199.3 36.6 198.95 36.6 199.3 36.9M245.1 64.25L244.4 63.6 244.4 64.6 245.1 64.25Z" test="Scene 1"/><path fill="#6A4646" stroke="none" d="M154.5 25.4L154.8 25.4 154.8 24.75 154.5 25.4Z" test="Scene 1"/><path fill="#5A4646" stroke="none" d="M200.6 67.55L200.6 67.9 200.95 67.9 200.6 67.55Z" test="Scene 1"/><animate attributeName="display" repeatCount="indefinite" dur="0.583s" keyTimes="0;.857;1" values="none;inline;inline"/></g><g display="none" id="Layer6_0_FILL"><path fill="#131C1B" stroke="none" d="M61.95 229.3Q69.85 236.55 80.35 235.25 73.15 227.65 63.55 223.05L55 221.05 61.95 229.3M257.25 155.5Q255.95 153.85 253.3 154.55L248.7 176.95 248.35 189.1 249.05 191.4Q258.9 188.8 260.9 172.95L260.9 172.65Q257.95 163.75 257.6 155.85L257.25 155.5M147.25 259.95Q146.6 257.65 144.95 256.95L140.35 258.3 133.75 256.95 133.4 256.95Q127.8 258.6 126.8 264.55 131.1 269.8 138.7 269.5L143.95 272.8 132.4 271.8 132.4 272.45 125.85 273.75 125.85 274.1 127.15 275.1 151.2 277.05 179.55 274.1 179.55 273.75 183.8 269.15 189.1 265.85 187.75 264.2 189.1 261.9 173.6 261.6 167.35 266.2 168 267.5 171.3 268.85Q170.95 271.45 167.65 271.45L164.7 271.45Q158.1 275.1 150.2 274.45L143.95 266.85Q148.55 264.55 147.25 259.95M109.2 128.5Q109.75 128.4 110.35 127.5 112 123.55 110 119.95L106.75 125.85 107.05 126.85Q107.05 128.15 108.35 128.5L109.2 128.5M57 136.4L53.35 139.35 54 144 55 145.3 55.65 146.6 56.65 149.25 55 151.55 54 153.55 54.35 155.5 55 157.5 57.65 156.85 61.6 154.2 62.9 152.55 66.85 150.55 69.85 148.25 71.15 154.85 61.95 166.4Q60.6 183.2 67.55 198.65L70.15 202.6 91.9 228.95 94.2 228.65 96.85 227 98.8 224.7 99.15 224.7 98.8 212.85Q105.4 205.25 114.65 200.3L132.1 202.95 136.35 200.3 135.05 183.2 142.3 172.65 140 169.35 139.65 168.35Q125.15 163.75 119.55 149.9L109.7 144.95Q106.75 139.7 100.45 138.4L97.5 137.05Q93.2 134.45 90.6 130.5L91.25 130.5 89.6 126.85Q71.5 125.85 57 136.4M111.65 176.6L120.9 177.25 122.85 181.2 113.95 181.55Q111 179.9 111.65 176.6M81.35 76.8L83.65 74.5 84 71.5 77.4 73.5 74.45 78.75Q72.45 82.05 73.15 86 73.8 91.95 79.7 91.95L78.75 85Q80.35 83.7 79.7 82.05L81.35 76.8M98.15 43.85L97.85 43.85 94.85 48.1 96.85 50.1Q102.45 48.45 103.45 43.85L103.45 43.5 98.15 43.85M274.75 143.35L273.1 145.3 266.5 150.55 266.5 150.9Q260.9 166.4 262.55 186.5L262.2 186.5 260.55 188.8 260.55 189.1 251 224.05 258.6 218.45Q276.7 190.45 278 155.2L274.75 143.35M235.85 78.75L235.85 79.1 242.1 88.3 242.45 88.3Q241.8 78.45 235.85 78.75M176.55 76.8L173.95 76.45 164.35 82.7 156.45 86 149.2 94.25 148.9 99.5 147.55 103.8Q141 111.35 137.7 121.25 131.75 120.6 128.8 115L129.15 114Q129.8 111.35 128.45 109.4L128.15 109.05 121.9 109.4Q118.6 112.7 113.65 114L114.3 116Q116.6 122.25 113.95 128.15 115.95 133.75 121.2 137.05L121.9 137.4 136.35 139.35 141.95 136.75 143.95 136.1Q149.2 133.45 145.95 127.5 145.25 124.2 147.9 124.55L148.25 124.55Q155.8 123.55 156.15 130.15L156.15 130.5 161.4 130.15Q165.35 127.85 170.3 126.2L170.65 126.2 172.6 108.1Q178.2 108.1 179.85 104.1L179.85 103.8Q178.2 99.2 173.25 97.55 170.65 96.55 170.65 93.6L170.65 92.9Q173.95 90.3 172.6 86L172.3 86Q170.65 84.35 170.65 81.4 176.25 81.4 177.55 77.1L177.2 77.1 176.55 76.8M127.8 128.5L127.8 128.85Q125.15 133.1 120.25 129.8L120.25 129.5Q124.2 119.3 127.8 128.5M164.05 33.65L164.05 33.3Q162.05 29.7 155.8 28.35L155.8 28.05 169.95 31 155.15 25.05 154.8 25.05Q131.75 22.1 111.65 32.65L112 32.65 138.35 30.35 138.7 30.35Q141.65 30 138.7 32.3L139 32.3 154.15 30.35 154.5 30.35Q159.1 34.6 164.05 33.65M168 24.4L167.65 24.4 162.05 25.4Q172.6 26.7 178.85 35.6 186.75 35.6 191.4 41.55L187.45 42.5 177.2 41.2 177.2 42.5 179.55 48.45 171.95 48.8 169.3 47.45Q165.7 45.15 165.7 41.55L160.4 35.6 149.2 33.95 153.5 38.55 161.75 42.85 155.5 47.8 156.45 48.8 158.45 49.45 159.1 49.45 159.75 45.8Q165.7 47.8 167.35 54.4 174.6 58 178.55 64.9L180.2 65.6Q185.15 66.9 187.45 71.85L196.65 80.75 197.65 82.4Q200.3 88 204.9 92.25L204.9 92.6Q200.95 95.9 200.6 101.5 207.55 105.1 215.45 104.1 218.05 96.55 218.05 88.65L220.35 84.7 220.05 80.75 221.35 79.1Q224 75.15 223.35 70.85L224.65 70.85Q228.95 70.85 231.9 74.15 230.6 68.55 225 65.25L225 62.95 227.6 62.95Q221.7 56.7 213.45 56.05L200.3 43.5 196.35 38.9 212.15 45.15 183.15 30.35 178.55 26.4 177.55 26.05 168 24.4M206.55 68.2L213.8 68.55 215.45 71.5 215.45 76.45Q210.15 78.45 207.85 73.5L206.55 68.2M246.4 67.55L253 74.15 253 73.8 244.75 64.25Q240.15 61.3 235.55 62.6 236.5 65.6 238.5 67.55L238.8 67.55 241.45 77.45Q240.8 70.85 244.75 70.5L245.1 70.5Q243.75 66.25 246.4 67.55Z" test="Scene 1"/><path fill="url(#Gradient_1)" stroke="none" d="M35.55 194.05L35.55 194.4Q36.55 200.65 41.15 203.6L41.5 203.95Q43.5 203.95 42.8 201.3L42.8 200.95Q41.85 191.1 35.55 194.05M145.95 127.5Q149.2 133.45 143.95 136.1L165.7 136.1Q174.6 133.1 161.4 130.15L156.15 130.5 156.15 130.15Q155.8 123.55 148.25 124.55L147.9 124.55Q145.25 124.2 145.95 127.5M120.9 177.25L111.65 176.6Q111 179.9 113.95 181.55L122.85 181.2 120.9 177.25M127.8 128.85L127.8 128.5Q124.2 119.3 120.25 129.5L120.25 129.8Q125.15 133.1 127.8 128.85M167.65 24.4L168 24.1 161.1 23.4 140.65 23.4 132.75 24.4 108.7 30 102.75 33.65 103.1 33.95 107.4 33.95Q101.45 36.25 93.55 44.15 95.55 45.15 97.5 44.15L97.85 43.85 98.15 43.85 103.45 43.5 103.45 43.85Q102.45 48.45 96.85 50.1L95.55 60 95.55 60.3 88.6 65.9Q85.65 74.8 79.7 82.05 80.35 83.7 78.75 85L79.7 91.95Q84.35 94.9 81.7 99.5L80.7 100.85 80.7 116.3Q83 118.6 87.3 119.3L89.6 126.85 91.25 130.5 93.2 132.15Q100.45 137.75 109.7 139.35L111 141Q115.3 146.95 122.85 148.6L123.2 150.9 125.15 156.85 126.8 157.8 131.1 161.75 141.95 161.75 142.65 162.45Q145.6 164.75 149.55 165.75L149.55 166.05 142.3 172.65 135.05 183.2 136.35 200.3Q138.7 205.6 143.6 208.55L143.95 208.9 147.55 215.8 155.15 220.1 155.5 233.9 154.5 236.9 153.15 238.55Q152.2 241.15 152.85 244.45L153.85 247.75 144.95 256.95Q146.6 257.65 147.25 259.95 148.55 264.55 143.95 266.85L150.2 274.45Q158.1 275.1 164.7 271.45L167.65 271.45Q170.95 271.45 171.3 268.85L168 267.5 167.35 266.2 173.6 261.6 173.6 260.25 216.75 223.7 220.7 219.1Q224.65 212.85 223.65 205.6L230.9 196.7 236.5 186.15 231.25 181.55 222 177.9 219.05 177.25 219.05 176.95 211.15 169 197.65 158.5 197.3 158.8 196.35 158.5 195.35 158.5Q192.35 158.15 190.4 160.15L189.1 159.15 182.15 150.55 172.3 148.25 159.75 148.95 152.2 156.5 141.65 157.15Q135.7 155.5 132.1 150.9L135.05 149.6Q139.35 146.6 137.7 141.7L136.35 139.35 121.9 137.4 121.2 137.05Q115.95 133.75 113.95 128.15L109.2 128.5 108.35 128.5Q107.05 128.15 107.05 126.85L106.75 125.85 110 119.95 110.35 119.6 110 118.95Q112.35 114.65 112.65 110.05L121.9 109.4 128.15 109.05 128.45 109.4Q129.8 111.35 129.15 114L128.8 115Q131.75 120.6 137.7 121.25 141 111.35 147.55 103.8L148.9 99.5 149.2 94.25 156.45 86 164.35 82.7 173.95 76.45 176.55 76.8 176.55 75.15Q182.15 78.45 188.4 77.1 186.45 74.8 187.45 71.85 185.15 66.9 180.2 65.6L178.55 64.9Q174.6 58 167.35 54.4 165.7 47.8 159.75 45.8L159.1 49.45 158.45 49.45 156.45 48.8 155.5 47.8 161.75 42.85 153.5 38.55 149.2 33.95 160.4 35.6 165.7 41.55Q165.7 45.15 169.3 47.45L171.95 48.8 179.55 48.45 177.2 42.5 177.2 41.2 187.45 42.5 191.4 41.55Q186.75 35.6 178.85 35.6 172.6 26.7 162.05 25.4L167.65 24.4M164.05 33.3L164.35 33.65 164.05 33.65Q159.1 34.6 154.5 30.35L154.15 30.35 139 32.3 138.7 32.65 138.7 32.3Q141.65 30 138.7 30.35L138.35 30.35 112 32.65 111.65 32.95 111.65 32.65Q131.75 22.1 154.8 25.05L155.15 25.05 169.95 31 155.8 28.05 155.8 28.35Q162.05 29.7 164.05 33.3M213.8 68.55L206.55 68.2 207.85 73.5Q210.15 78.45 215.45 76.45L215.45 71.5 213.8 68.55M263.55 90.3L253 74.15 246.4 67.55Q243.75 66.25 245.1 70.5L244.75 70.5Q240.8 70.85 241.45 77.45L238.8 67.55 238.5 67.55Q236.5 65.6 235.55 62.6 240.15 61.3 244.75 64.25L241.15 60.3Q213.8 33.3 178.85 25.7L177.55 25.7 177.55 26.05 178.55 26.4 183.15 30.35 212.15 45.15 196.35 38.9 200.3 43.5 213.45 56.05Q221.7 56.7 227.6 62.95L225 62.95 225 65.25Q230.6 68.55 231.9 74.15L232.25 74.15 232.25 74.5Q232.55 77.75 235.55 79.1L235.85 78.75Q241.8 78.45 242.45 88.3L242.1 88.65 245.1 92.6Q242.1 103.8 247.4 114.65L246.4 120.25 247.05 125.85 251.35 128.85 252.65 129.5 256.6 142 257.95 144 258.6 144.65 258.9 145.95 266.5 150.55 273.1 145.3 274.75 143.35 278 155.2 278 150.25Q278 116.95 263.55 90.3Z" test="Scene 1"/><path fill="#924545" stroke="none" d="M132.1 271.8L131.45 272.15 132.1 272.15 132.4 272.45 132.4 271.8 132.1 271.8Z" test="Scene 1"/><path fill="#999" stroke="none" d="M110.35 119.6L110 119.95Q112 123.55 110.35 127.5 112.35 123.55 110.7 119.6L110.35 119.6M235.85 78.75L235.55 79.1 235.85 79.1 235.85 78.75M167.65 24.4L168 24.4 177.55 26.05 177.55 25.7 168 24.1 167.65 24.4Z" test="Scene 1"/><path fill="#564545" stroke="none" d="M102.75 33.95L103.1 33.95 102.75 33.65 102.75 33.95M242.1 88.65L242.45 88.3 242.1 88.3 242.1 88.65Z" test="Scene 1"/><path fill="#934545" stroke="none" d="M111.65 32.95L112 32.65 111.65 32.65 111.65 32.95M139 32.3L138.7 32.3 138.7 32.65 139 32.3M164.05 33.3L164.05 33.65 164.35 33.65 164.05 33.3Z" test="Scene 1"/><animate attributeName="display" repeatCount="indefinite" dur="0.583s" keyTimes="0;.714;.857;1" values="none;inline;none;none"/></g><g display="none" id="Layer5_0_FILL"><path fill="#131C1B" stroke="none" d="M81.05 232.95L89.6 232.25 87.95 229.3 85 226.35 70.8 218.75 69.15 218.1 61.95 217.1 66.55 222.7 72.15 227.65 81.05 232.95M258.6 197.35L265.85 187.8Q271.75 173.65 267.15 159.8 260.25 177.9 258.6 197.35M151.2 267.5L155.15 268.85 158.1 271.15 154.8 271.8 151.2 271.8 150.85 272.15 147.25 273.75 137.7 274.1 131.75 269.5 131.1 270.15 132.4 271.15 132.75 271.15Q132.4 273.1 125.5 272.8L124.5 272.45 124.5 273.1 125.5 274.45 126.8 275.1 151.2 277.05 176.9 274.75 182.15 272.8 186.45 269.5 193.35 262.25 179.55 263.9Q176.55 259.6 171.95 256.95L169.95 256.3 163.4 256 151.2 267.5M141.3 147.3L134.75 144.3 130.45 139.7 114.95 131.15 114.3 128.85 115.6 126.55 115.3 125.85Q112.35 122.9 108.05 123.25L108.05 123.55Q104.4 132.15 98.8 126.85L99.5 124.55 99.5 124.2 90.25 126.2 89.25 126.2 88.95 126.85 95.2 129.8 99.15 135.1Q107.7 135.1 114.65 140.35 114.95 147.3 108.35 151.25L110.7 153.85 127.8 155.85 132.1 150.55 141.3 147.3M136.35 114L135.7 113.35 126.5 112.35 126.5 112.7Q122.85 115 118.6 116.65L117.6 119.6 122.55 123.9Q129.15 123.25 133.1 126.55L133.4 126.55Q136.05 120.6 136.35 114M75.1 144L75.1 144.3Q73.8 147.6 70.5 148.95 71.15 155.5 77.1 152.55L77.4 152.55Q83 147.95 89.95 144.65L91.25 151.25 91.25 151.55 87.6 155.85 87.6 156.15Q83 158.8 79.4 162.45L79.05 162.75Q77.4 175.95 80.7 190.45L80.7 190.75 86.65 202.6 100.15 218.1 102.45 221.75Q101.45 225 105.1 225.7 108.35 226.35 111.35 224.35L114.3 220.1 115.3 217.45 115.6 211.2 117.95 208.2 113.95 202.95 113.95 201.65 112.35 198.65 111 181.85 111.65 181.55 113.65 176.95 113.95 176.95 116.3 174.3 117.95 171.35 124.5 165.4 117.95 160.45 107.4 160.45 106.4 159.8 105.1 156.85 100.45 152.2 99.8 149.6 99.8 147.95 96.85 145.65 95.55 145.3 89.95 140.7 88.6 137.75 87.95 136.75 76.4 131.45 76.1 131.45Q67.55 136.1 75.1 144M88.95 174.3L88.6 173.95Q97.85 169.7 98.8 179.25L98.8 179.55Q90.6 183.2 88.95 174.3M272.4 163.75L271.45 171.65Q267.5 200.3 255.6 222.4L267.8 201.3 269.45 196.05Q274.05 179.9 272.4 163.75M180.5 28.35L178.55 27.05 135.05 24.75 135.05 25.05 134.75 26.4 122.85 30.65 138 29.35 151.55 30.35Q155.15 35.3 160.1 33.95L160.1 33.65Q160.1 30.35 155.15 28.7 162.75 29 168.65 32.65L168.65 32.3 161.1 28.05 160.75 28.05 161.1 27.05 160.4 26.7 161.1 26.7 161.4 26.7 170.95 28.7 171.3 29 170.65 29.35 169.65 29.35 175.25 36.25Q180.85 37.9 185.15 41.85L185.15 42.2Q182.15 44.15 178.85 44.15L170.3 42.5Q168.35 46.15 170.65 49.45 166.7 50.75 162.75 49.45 160.75 48.8 159.1 47.8L155.8 37.25Q153.15 33.65 148.9 33.3L146.6 33.3 144.6 34.3Q148.55 39.55 154.8 43.2L146.25 47.45 147.9 49.45 149.9 49.1 151.2 46.15 154.5 49.45 156.15 55.05Q162.05 59 165.35 65.25L165.35 65.6 170.95 68.9 172.95 79.1 159.75 76.45 159.75 76.8Q160.4 85.35 167.65 90.6 165.35 94.55 166 99.2L158.75 104.1 156.45 101.15 152.85 99.2 141.65 96.55 142.65 95.25Q145.6 90.3 141 87L140.65 87Q132.75 87.65 131.75 94.9L130.1 97.55 129.8 100.85 139.35 101.8 140.65 101.15 146.6 109.4 138.7 112.7 140.65 123.55 137.7 130.8 147.9 134.1Q142.65 137.05 136.7 136.75L136.7 137.05 136.7 137.75 154.15 142.35 154.5 142.35Q160.4 139.05 167 137.05L167.35 136.75 167.35 135.75 182.8 134.75 189.1 129.15Q192.05 129.8 194 127.2 196 124.55 195.35 121.25L195.35 111.35 197 109.7Q199.95 109.7 202.6 107.75L203.25 107.1Q200.95 100.5 195 97.2L194.35 95.25 196 93.25 193.7 83.05 199.3 81.7 199.3 81.4Q195.65 79.1 193.7 73.5 197.65 65.6 204.9 72.85L204.9 73.15Q213.45 77.1 218.75 84.7L219.05 84.7Q221.05 91.6 225.95 95.55L225.95 95.9Q222.35 98.85 222.35 104.45L222.35 104.8Q225.3 107.4 229.6 107.1L229.95 107.1 233.55 97.55 230.9 90.95 230.6 84.05 229.95 82.7 226.3 82.4 222.7 81.05 222.35 76.45 216.1 68.2 216.4 67.55 217.4 66.9 219.05 66.25 221.05 66.25Q216.1 60 208.2 60.65L207.2 60.3Q201.95 56.05 197.65 50.1L192.7 41.2 207.55 47.45 183.5 32.3 180.5 28.35M243.1 71.5L252.35 79.75 249.35 72.5 253.65 76.45 255.3 77.45 248.7 68.55 247.4 70.2 245.1 69.85Q241.8 68.2 240.8 66.25L229.95 67.25 233.2 73.15 232.55 81.7Q234.55 77.45 238.5 74.5L239.15 74.5Q242.1 74.15 243.1 71.5Z" test="Scene 1"/><path fill="#999" stroke="none" d="M34.25 198L33.95 198.35 34.25 198.35 34.25 198M161.1 27.05L161.4 26.7 161.1 26.7 161.1 27.05M269.8 196.05L269.45 196.05 267.8 201.3 269.8 196.05M170.95 28.7L170.65 29.35 171.3 29 170.95 28.7Z" test="Scene 1"/><path fill="url(#Gradient_1)" stroke="none" d="M29.95 186.5L29.95 186.8 30.3 190.45 32.3 195.7 33.95 198.35 34.25 198Q33.95 191.1 29.95 186.5M108.05 123.55L108.05 123.25 99.5 123.9 99.5 124.2 99.5 124.55 98.8 126.85Q104.4 132.15 108.05 123.55M133.4 126.55L133.1 126.55Q129.15 123.25 122.55 123.9 125.15 127.5 124.2 131.8L123.85 133.1Q123.85 134.75 126.5 135.4L131.45 135.4 136.7 137.75 136.7 137.05 136.05 136.4 136.7 136.75Q142.65 137.05 147.9 134.1L137.7 130.8Q133.1 131.8 133.1 127.2L133.4 126.55M88.6 173.95L88.95 174.3Q90.6 183.2 98.8 179.55L98.8 179.25Q97.85 169.7 88.6 173.95M199.3 81.4L199.3 81.7 204.9 73.15 204.9 72.85Q197.65 65.6 193.7 73.5 195.65 79.1 199.3 81.4M252.35 79.75L243.1 71.5Q242.1 74.15 239.15 74.5L238.5 74.5Q234.55 77.45 232.55 81.7L233.2 73.15 229.95 67.25 240.8 66.25Q241.8 68.2 245.1 69.85L247.4 70.2 248.7 68.55 241.15 60.3Q217.75 36.9 188.4 28.35L161.4 23.4 140.65 23.4 134.4 24.1 109.7 29.7 105.4 31.65 107.7 31.3 107.4 31.65 108.05 32.3Q99.15 35.6 91.55 41.55L94.2 41.2 99.8 41.55 88.95 52.4 87.95 56.7Q72.8 68.2 67.2 85.7L68.2 89.95 68.2 93.6Q64.9 101.8 64.55 111.05L65.9 113 70.5 117.3 70.5 119.6Q71.15 126.2 76.4 131.45L87.95 136.75 88.6 137.75 89.95 140.7 95.55 145.3 96.85 145.65 99.8 147.95 99.8 149.6 100.45 152.2 105.1 156.85 106.4 159.8 107.4 160.45 117.95 160.45 124.5 165.4 117.95 171.35 116.3 174.3 113.95 176.95 113.65 176.95 111.65 181.55 111 181.85 112.35 198.65 113.95 201.65 113.95 202.95 117.95 208.2Q121.55 209.55 123.55 213.5L124.2 214.8 130.75 219.4Q132.75 225.7 133.75 232.95 134.05 236.2 131.75 238.55 130.75 243.45 133.4 247.75L127.8 253 130.1 259.95Q130.75 262.9 128.8 264.9L130.45 268.15 131.75 269.5 137.7 274.1 147.25 273.75 150.85 272.15 151.2 271.8 154.8 271.8 158.1 271.15 155.15 268.85 151.2 267.5 163.4 256 188.1 231.6 195 228.3 196.65 226.65 202.6 219.4 202.9 211.5 202.6 209.2 209.15 201.95Q214.45 196.35 216.4 189.1L212.8 186.15 194.7 179.25Q185.8 168.7 174.25 160.8L169 159.8 165.35 159.8Q159.45 157.5 158.1 151.25L141.3 147.3 132.1 150.55 127.8 155.85 110.7 153.85 108.35 151.25Q114.95 147.3 114.65 140.35 107.7 135.1 99.15 135.1L95.2 129.8 88.95 126.85 88.3 126.55 88.3 126.2 86.65 123.9 86.65 122.9 92.55 112.7Q91.25 109.7 93.55 108.1L108.05 107.1Q110.7 110.7 108.35 115 111 119.3 117.25 119.6L117.6 119.6 118.6 116.65 117.95 115 122.2 109.05Q127.15 106.45 129.8 100.85L130.1 97.55Q128.8 94.25 131.45 92.9L131.75 94.9Q132.75 87.65 140.65 87L137.05 86Q146.9 83.7 155.8 78.1L157.15 77.1 158.45 76.45 159.75 76.8 159.75 76.45 172.95 79.1 170.95 68.9 165.35 65.6 165.35 65.25Q162.05 59 156.15 55.05L154.5 49.45 151.2 46.15 149.9 49.1 147.9 49.45 146.25 47.45 154.8 43.2Q148.55 39.55 144.6 34.3L146.6 33.3 148.9 33.3Q153.15 33.65 155.8 37.25L159.1 47.8Q160.75 48.8 162.75 49.45 166.7 50.75 170.65 49.45 168.35 46.15 170.3 42.5L178.85 44.15Q182.15 44.15 185.15 42.2L185.15 41.85Q180.85 37.9 175.25 36.25L169.65 29.35 170.65 29.35 170.95 28.7 161.4 26.7 161.1 27.05 160.75 28.05 161.1 28.05 168.65 32.3 169 32.65 168.65 32.65Q162.75 29 155.15 28.7 160.1 30.35 160.1 33.65L160.1 33.95Q155.15 35.3 151.55 30.35L138 29.35 122.85 30.65 122.55 29.7 112.35 30.65 123.2 26.7 134.75 26.4 135.05 25.05 134.4 24.75 135.05 24.75 178.55 27.05 180.5 28.35 183.5 32.3 207.55 47.45 192.7 41.2 197.65 50.1Q201.95 56.05 207.2 60.3L208.2 60.65Q216.1 60 221.05 66.25L219.05 66.25 217.4 66.9 216.4 67.55 216.1 68.2 222.35 76.45 222.7 81.05 226.3 82.4 229.95 82.7 230.6 84.05 230.9 90.95 233.55 97.55 229.95 107.1 231.9 116.3 233.2 119.6Q230.9 122.25 230.9 125.85 230.6 129.5 232.9 132.15L237.85 136.1 241.45 146.95 241.45 147.3 242.45 147.95 242.75 148.6 243.45 149.6 243.75 150.55 254.65 155.85 266.5 149.25 272.4 163.75Q274.05 179.9 269.45 196.05L269.8 196.05Q278 174.6 278 150.25L278 142.35 274.4 117.65 263.55 90.3 255.3 77.45 253.65 76.45 249.35 72.5 252.35 79.75Z" test="Scene 1"/><path fill="#666" stroke="none" d="M131.1 269.5L131.1 270.15 131.75 269.5 131.1 269.5M89.25 126.2L88.3 126.55 88.95 126.85 89.25 126.2Z" test="Scene 1"/><path fill="#564545" stroke="none" d="M88.3 126.55L89.25 126.2 88.3 126.2 88.3 126.55M160.4 26.7L161.1 27.05 161.1 26.7 160.4 26.7Z" test="Scene 1"/><path fill="#934545" stroke="none" d="M136.05 136.4L136.7 137.05 136.7 136.75 136.05 136.4M134.4 24.75L135.05 25.05 135.05 24.75 134.4 24.75M169 32.65L168.65 32.3 168.65 32.65 169 32.65Z" test="Scene 1"/><animate attributeName="display" repeatCount="indefinite" dur="0.583s" keyTimes="0;.571;.714;1" values="none;inline;none;none"/></g><g display="none" id="Layer4_0_FILL"><path fill="#131C1B" stroke="none" d="M81.7 224.05Q84.35 227 88.3 228.65L101.8 229.3 98.8 225 97.15 223.35Q89.25 218.1 81.05 213.8L72.15 213.15 81.7 224.05M161.4 113.7L151.2 112.7Q145.6 113.35 141.65 116.65L145.95 121.9 152.5 126.55 160.1 125.85 160.1 123.9Q159.75 118.6 161.4 113.7M143.95 271.45L143.3 271.45 137.7 271.45 136.05 272.45Q129.8 274.75 123.55 272.45L123.2 273.1 128.45 275.4 151.2 277.05 179.85 274.1 190.4 269.8 191.4 268.5Q193.05 266.2 195.65 265.2L182.8 264.55 181.85 261.25 179.2 257.3 148.55 256.3Q143.6 256.65 140.35 259.95L138.35 262.55 137.05 265.55Q147.9 268.85 143.95 271.45M119.25 86L119.9 86.35 123.2 87Q127.8 87.3 127.15 84.35L126.8 84.05Q122.2 82.7 119.25 86M150.85 49.45L151.2 49.1 149.2 45.8 145.25 44.5 139.35 46.15 143.95 48.45 144.95 50.1 150.85 49.45M129.45 25.05L128.8 25.05 126.5 25.4 125.5 26.05 125.5 26.4 123.85 27.35 125.5 28.35Q130.1 27.05 130.1 25.4L129.45 25.05M169.65 157.5L167.35 148.6 158.45 143.35Q154.15 138.05 148.25 135.1L139 129.8 138.35 127.5 140.35 125.55 138.35 124.55Q128.15 119.6 117.95 122.55L116.95 122.9 113 123.55 111.35 126.55Q117.25 131.45 124.85 133.45 112.35 138.05 101.45 131.15L102.75 128.15 101.8 126.85 98.5 127.5Q94.55 127.85 91.55 131.15L92.25 133.75Q93.2 137.75 96.5 140.35 94.55 144 90.6 145.65L92.55 149.6 97.85 149.25 104.4 145.65 113.3 142.65 113 145.3 134.05 151.25 135.7 154.2 141 161.1 148.9 161.45 171.3 180.55 174.25 182.2 182.5 184.85 182.5 184.5 187.1 180.9 188.4 177.6 187.75 175.3Q180.85 164.1 169.65 157.5M165.05 32.95L165.05 32.65 159.45 27.7Q154.15 25.7 154.15 24.75L153.85 24.75 144.95 23.4 135.05 24.4 135.05 24.75 145.95 25.4 136.7 29.35 148.55 29.7 148.55 30Q150.2 33.95 154.15 35.3L154.5 35.3Q158.45 32.65 154.5 29.7 158.45 28.7 165.05 32.95M245.75 77.75Q249.7 77.45 251.65 80.4L251 78.75 255.3 81.05 248.35 72.15Q245.75 75.15 242.1 75.45L236.5 70.5 221.7 71.2 223.65 76.1Q226.95 76.45 228.6 78.75 232.55 79.75 234.85 76.8L235.55 76.1Q242.45 78.1 246.75 84.05L245.75 77.75M180.85 33.65L180.5 32.95 180.5 31 180.85 30 181.15 29.35Q172.95 25.05 164.05 27.05 167 28.7 170.3 29.35L170.95 30.35 168.65 30.65 170.95 36.9 170.65 37.25Q175.55 39.55 178.85 43.2L177.55 44.5 169.65 45.5 166 43.2 161.4 43.2 161.4 45.15Q161.4 51.1 155.5 50.75L155.5 53.4 155.5 57.35 159.75 60.95Q170.65 64.25 180.2 70.85L188.4 72.5 188.75 72.85Q190.75 78.75 185.15 82.7L184.8 82.7Q186.45 88.95 191.7 92.6L190.05 95.9Q189.4 98.5 190.75 100.85 187.1 104.45 182.8 104.45L180.2 101.8 176.9 99.5 166.7 96.2 167.35 95.55Q169 91.6 166.7 88.3L158.1 88 154.5 97.2Q155.15 100.5 158.1 101.8L165.35 101.5 171.3 110.05 164.05 112.7 164.7 124.2Q164.35 130.5 159.45 134.1 160.1 137.05 162.75 138.7L167.35 140.7Q180.2 145.3 192.05 137.4L202.6 137.75Q207.85 136.75 211.15 132.45L211.15 129.5 214.75 121.6Q212.15 115 214.1 107.75L218.75 101.15Q216.4 99.5 217.1 97.2L217.4 97.2 217.1 91.95 217.4 90.3 214.75 85.7 210.15 85 209.5 84.35 209.5 83.7 210.8 80.1 205.55 72.15Q205.55 69.55 207.85 69.2L211.15 69.2 203.9 63.6 201.95 63.6Q197 63.95 194.7 60.3 189.1 51.75 186.45 43.5 194.7 45.5 200.95 49.75L189.1 41.2 187.75 38.25 180.85 33.65Z" test="Scene 1"/><path fill="url(#Gradient_1)" stroke="none" d="M68.2 170.65Q68.5 178.25 76.1 176.95 77.4 166.7 68.2 170.35L68.2 170.65M29 184.15L28 181.85 30.3 190.45 29 184.15M79.7 123.55L79.7 123.9Q81.05 127.85 84.65 125.55L84.65 125.2Q86.65 115.35 79.7 123.55M157.45 69.55L157.45 71.2Q165.7 66.9 157.45 69.55M107.4 122.25L107.05 122.25Q101.15 122.9 101.8 126.55L101.8 126.85 102.75 128.15 101.45 131.15Q112.35 138.05 124.85 133.45 117.25 131.45 111.35 126.55L113 123.55Q109.7 123.9 107.4 122.25M188.75 72.85L188.4 72.5 180.2 70.85Q181.5 73.15 179.55 75.15L178.85 75.45Q179.2 81.4 184.8 82.7L185.15 82.7Q190.75 78.75 188.75 72.85M180.5 32.95L180.85 33.65 187.75 38.25 189.1 41.2 200.95 49.75Q194.7 45.5 186.45 43.5 189.1 51.75 194.7 60.3 197 63.95 201.95 63.6L203.9 63.6 211.15 69.2 207.85 69.2Q205.55 69.55 205.55 72.15L210.8 80.1 209.5 83.7 209.5 84.35 210.15 85 214.75 85.7Q220.35 85 217.4 90.3L217.1 91.95 217.4 97.2Q219.4 97.85 219.05 101.15L218.75 101.15 214.1 107.75Q212.15 115 214.75 121.6L211.15 129.5 211.15 132.45 219.4 139.35 223.35 151.55Q229.6 158.15 238.5 160.45L243.45 158.5Q248.7 154.55 255.3 154.85L258.25 164.1 262.55 170.65Q268.8 183.2 262.2 196.05L257.6 210.85Q254.65 222.05 248.35 231.95 278 197 278 150.25 278 116.95 263.55 90.3 254.65 74.15 241.15 60.3 225.95 45.5 208.85 36.6 185.8 25.7 161.1 23.4L144.95 23.4 153.85 24.75 154.15 24.75Q154.15 25.7 159.45 27.7L165.05 32.65 165.35 32.95 165.05 32.95Q158.45 28.7 154.5 29.7 158.45 32.65 154.5 35.3L154.15 35.3Q150.2 33.95 148.55 30L148.55 29.7 136.7 29.35 131.1 30Q126.15 31.65 121.2 30L125.5 28.35 123.85 27.35 123.55 27.35 113.65 29 113.65 28.35 111.35 29 110.7 30 109.05 30.35 93.55 37.9 92.9 38.9 95.85 38.25Q94.55 43.5 89.6 46.5 82.7 50.45 76.75 55.7 63.25 66.55 59.6 83.35L52.35 106.1Q56.65 115 57.65 124.9L69.5 133.45Q71.8 140.35 78.05 143.65 79.7 152.2 85.65 158.15L94.2 158.15 98.8 163.4 97.85 166.4 94.55 169.35 93.55 171 89.95 174.6 89.95 177.9 89.6 177.6 87.6 178.9 88.3 189.45 92.55 201.95 96.2 205.25 101.45 212.15 107.7 217.75 110 222.4 110.7 228 112 230.95 110 236.9Q110 242.15 113.65 246.45L109.7 251.35Q112.65 256.65 113.95 262.9L123.55 272.45Q129.8 274.75 136.05 272.45L137.7 271.45 143.3 271.45Q139.65 267.85 135.05 266.55L137.05 265.55 138.35 262.55 137.7 262.25 140.35 259.95 141.95 256.65Q152.2 250.05 158.1 239.5L161.1 238.2Q164.35 231.95 170.65 230.6L175.25 228.65 180.5 222.05 179.55 211.2 191.7 197 193.7 192.1Q191.05 187.45 186.45 186.5L182.8 184.85 182.5 184.85 174.25 182.2 171.3 180.55 148.9 161.45 141 161.1 135.7 154.2 134.05 151.25 113 145.3 104.75 153.85 103.45 154.55Q92.25 156.15 86.3 146.6 90.25 145.95 91.55 142.65 93.2 139.05 91.25 135.4L80.05 132.45 68.85 119.3 75.75 109.4 75.1 108.1Q74.45 105.75 76.4 104.8L76.4 104.45 89.6 104.8 90.9 108.1 90.25 110.4 89.25 112.05Q90.9 115.65 94.85 116.95L96.2 117.3 96.85 116.65 97.85 113 98.15 113 102.75 107.1 107.7 103.8 108.35 102.15 110 100.15 112 91.6 114.3 89.65Q118.25 86.65 123.2 87.3L123.2 87 119.9 86.35 119.25 86Q122.2 82.7 126.8 84.05L126.8 83.35Q131.45 83.05 134.4 79.4 138.35 79.4 141.3 77.1L142.65 75.8 155.5 80.4Q157.45 74.5 155.15 68.55 151.55 68.2 151.55 64.6L151.55 61.95Q143.95 58.35 144.95 50.1L143.95 48.45 139.35 46.15 145.25 44.5 142.3 43.5 145.6 43.2Q144.95 39.9 142.3 37.9L141.3 36.9 141.3 35.3 140.65 33.65 147.25 34.3 149.55 37.9 150.2 39.25Q151.2 41.85 149.2 43.5L149.2 45.8 151.2 49.1 151.2 49.45Q155.15 49.1 155.5 53.4L155.5 50.75Q161.4 51.1 161.4 45.15L161.4 43.2 166 43.2 169.65 45.5 177.55 44.5 178.85 43.2Q175.55 39.55 170.65 37.25L170.3 37.25 170.95 36.9 168.65 30.65 170.95 30.35 170.3 29.35Q167 28.7 164.05 27.05 172.95 25.05 181.15 29.35L182.8 30.35 180.85 30 180.5 31 180.5 32.95M251.65 80.4Q249.7 77.45 245.75 77.75L246.75 84.05Q242.45 78.1 235.55 76.1L234.85 76.8Q232.55 79.75 228.6 78.75L228.6 79.1 220.35 85 223.65 76.1 221.7 71.2 236.5 70.5 242.1 75.45Q245.75 75.15 248.35 72.15L255.3 81.05 255.3 81.4Q254.95 86.65 251.65 80.4Z" test="Scene 1"/><path fill="#924545" stroke="none" d="M123.55 272.45L122.55 272.45 123.2 273.1 123.55 272.45M165.05 32.65L165.05 32.95 165.35 32.95 165.05 32.65Z" test="Scene 1"/><path fill="#302727" stroke="none" d="M89.6 177.6L89.95 177.9 89.95 174.6 89.6 177.6Z" test="Scene 1"/><path fill="#666" stroke="none" d="M126.8 84.05L127.15 84.35 127.15 84.05 126.8 84.05M130.1 24.75L129.45 24.75 129.45 25.05 130.1 25.4 130.1 25.05 130.1 24.75M181.15 29.35L180.85 30 182.8 30.35 181.15 29.35Z" test="Scene 1"/><path fill="#934545" stroke="none" d="M151.2 49.1L150.85 49.45 151.2 49.45 151.2 49.1M170.3 37.25L170.65 37.25 170.95 36.9 170.3 37.25Z" test="Scene 1"/><path fill="#999" stroke="none" d="M125.5 26.05L126.5 25.4 125.15 25.4 113.65 28.35 113.65 29 125.5 26.05Z" test="Scene 1"/><path fill="#554545" stroke="none" d="M129.45 24.75L128.8 25.05 129.45 25.05 129.45 24.75M136.7 23.75L135.05 24.1 135.05 24.4 144.95 23.4 136.7 23.75Z" test="Scene 1"/><path fill="#333" stroke="none" d="M140.65 33.65L141.3 35.3 149.55 37.9 147.25 34.3 140.65 33.65Z" test="Scene 1"/><path fill="#000" stroke="none" d="M135.05 24.4L135.05 24.1 130.1 24.75 130.1 25.05 135.05 24.75 135.05 24.4Z" test="Scene 1"/><animate attributeName="display" repeatCount="indefinite" dur="0.583s" keyTimes="0;.429;.571;1" values="none;inline;none;none"/></g><g display="none" id="Layer3_0_FILL"><path fill="url(#Gradient_1)" stroke="none" d="M87.3 120.25L85 121.25Q81.05 123.25 81.7 127.85 91.25 135.75 102.45 131.15L90.9 126.55 90.25 123.25 88.95 120.95 87.3 120.25M51.05 166.05L51.05 166.4Q50.75 172.3 56 173.3 60.3 163.75 51.05 166.05M66.85 122.55L67.2 122.55Q69.5 111.35 62.9 119.6L62.9 119.95Q63.25 123.55 66.85 122.55M172.95 72.85L169.3 72.5Q163.7 73.15 163.05 78.75L163.7 80.1Q166.35 84.35 171.6 82.05L173.95 77.1 172.95 72.85M147.25 66.25Q143.3 66.9 142.3 71.2L142.95 71.5 144.95 75.15 144.95 72.5 147.55 69.55 147.55 66.25 147.25 66.25M168 31.3L168 31 168.35 30.65 168.35 30.35 163.4 27.7Q173.95 25.05 182.5 31.65 178.55 31 177.55 34.6L183.15 42.85 195.35 53.05 188.4 48.45 179.85 45.15Q178.2 46.15 178.2 48.8L179.55 52.4Q182.8 57 183.15 62.6L199.3 72.15 199.3 72.5Q192.05 70.2 192.35 74.8L192.35 75.15Q196 78.45 196 83.7L195.65 83.7Q192.35 86 195 88.3L195.35 88.3 203.25 88.95 203.55 88.95Q200.6 93.6 201.25 101.5L200.95 101.8Q201.6 107.4 195 110.05L195.35 111.05 194.7 111.7 194.7 112.05 194.35 122.25Q194.7 128.15 189.75 132.15L197.65 143.65 197.65 144Q200.6 147.6 200.95 152.55L200.95 153.85 204.55 158.15Q214.1 164.4 225.3 162.45L234.85 159.45 238.5 159.45Q242.1 163.1 243.1 169 248.05 172.95 251.65 178.9L251.65 179.25 253 189.45Q252.35 197.7 246.75 204.95L243.1 227 236.85 240.15 250.7 229.3Q278 195.35 278 150.25 278 135.75 275.4 122.9L274.75 121.25 273.1 113.7 263.55 90.3Q254.65 74.15 241.15 60.3 213.45 32.65 177.55 25.7L146.25 23.1 148.25 23.75 148.25 24.1Q156.15 23.75 155.8 26.05L156.15 26.4 161.1 33.3 152.5 28.35 151.55 28.35 151.55 28.7 152.5 32.65 152.2 32.95 145.95 32.65 145.95 32.3Q140 28.05 133.1 28.35L120.9 29 125.5 26.7 123.85 26.05 123.55 26.05 122.2 26.05 121.2 26.7 105.4 31.3 97.85 34.6 96.85 35.95Q96.2 37.9 89.6 41.85 63.9 56.05 51.7 83.7L51.4 84.05Q45.8 91.3 43.15 101.5L46.1 122.9 46.1 123.25 53.05 128.5 53.35 128.5Q55 135.75 60.3 139.35L60.6 139.7Q59.95 146.3 63.55 149.6L66.55 154.2 73.8 154.85 74.1 154.85 79.4 160.8 69.15 171 68.85 171Q69.5 174.6 67.55 176.25L67.2 176.25Q67.2 187.45 71.15 194.7L71.5 194.7Q71.5 200.65 76.1 202.3L76.4 202.3 80.05 209.85 80.05 210.2 86.95 215.45 87.3 215.45 88.6 223.35 88.6 223.7 91.25 228 91.9 231.6 91.9 231.95 91.25 236.55 95.2 243.8 95.55 244.15 92.9 248.75 100.45 259.95 100.8 259.95Q105.4 269.8 122.85 272.45L123.2 272.45 130.1 270.15 119.9 265.2 123.85 255.65 123.85 255.35Q129.8 251.35 132.75 244.8L132.75 244.45Q139.65 234.25 151.85 229.65L152.2 229.3Q156.15 224.35 155.8 219.75L155.8 219.4Q158.45 215.45 155.8 211.85L155.5 211.85 164.35 202.6 166 200.95 169.65 193.05Q159.1 184.85 146.25 181.55L122.2 157.5Q115.95 160.8 112.35 154.85L109.7 149.9 108.35 148.25 99.8 146.95Q93.9 143.65 87.95 146.95L82 151.25 71.15 148.95 68.2 146.6 66.85 144.65 71.15 139.7 72.45 137.4Q73.15 135.4 72.8 132.8 67.85 129.5 61.95 128.5L56 118.95 54.35 115Q59.95 109.4 62.25 101.15L73.8 100.5Q74.75 103.8 73.45 106.75L72.45 108.4Q73.15 112.05 76.75 114L92.9 97.2 95.85 89.3 104.1 82.7Q116.3 81.4 127.15 74.8L138 80.1Q143.3 73.15 139 67.25L138.7 66.9Q137.35 60.3 133.1 55.05 135.05 50.45 135.05 45.8 131.75 48.1 127.8 47.8 130.75 44.5 135.4 43.5L138.7 42.85 138 40.55 135.7 37.25Q135.05 34.95 137.05 33.3L141.3 31.65 144.6 36.25 141 45.8Q142.3 49.45 146.6 50.45L148.9 49.45 151.55 45.8Q154.8 41.2 159.1 44.85L160.4 45.8 169.3 47.15 171.6 44.85 170.95 41.55 162.75 38.55 165.7 37.9Q167.65 34.3 164.35 31.3L164.35 31 168 31.3M250.35 85.7L249.05 88.65 249.05 88.95Q246.4 89.3 245.4 84.7 242.75 81.4 238.8 82.7L237.85 83.05 238.15 86.35 234.2 86Q231.55 83.7 230.25 80.4L225.65 79.75 207.55 87 211.15 80.1Q210.5 76.8 211.8 73.8L228.95 74.5Q231.25 79.1 236.5 80.1L244.1 76.8Q250 79.4 250.35 85.7Z" test="Scene 1"/><path fill="#131C1B" stroke="none" d="M32.3 178.55Q30.95 174.95 28 174.95L31.6 186.8Q33.6 182.55 32.3 178.55M138 23.75L136.7 23.75 131.25 24.75Q135.05 24.15 135.05 27.05L135.05 27.35Q142.3 26.7 139.65 24.4L139.35 24.1 138 23.75M186.1 114.35L183.15 113.7Q174.25 112.05 166.7 116.3 169.95 123.25 176.55 127.5L185.15 126.85 184.8 124.2 186.1 114.35M141.95 263.55L148.55 270.15 143.3 270.5 138 269.15 135.7 268.15 136.35 270.15 130.1 270.15 123.2 272.45Q126.8 273.45 130.1 275.4L151.2 277.05 180.85 273.75 189.1 271.15 192.05 269.5Q193.7 268.15 195.65 267.5L185.8 266.2 186.75 263.25 186.75 262.25 185.8 258.95 152.5 257.3 141.95 263.55M142.3 71.2Q143.3 66.9 147.25 66.25L138.7 66.9 139 67.25Q143.3 73.15 138 80.1 141 87 148.9 86L150.85 85.35 150.55 82.7 147.9 81.05 144.95 77.1 144.95 75.15 142.95 71.5 142.3 71.2M152.2 32.65L152.5 32.65 151.55 28.7 149.2 29.35 150.2 32.3 152.2 32.65M155.8 26.4L155.5 26.4Q153.15 26.7 152.5 28.35L161.1 33.3 156.15 26.4 155.8 26.4M148.25 24.1L148.25 23.75 146.25 23.1 140.65 23.4 140.65 23.75 148.25 24.1M164.7 130.15L163.7 127.5 165.7 126.2 165.05 125.55Q163.4 121.9 159.45 121.6L142.65 121.6Q128.15 123.25 115.6 128.85L115.6 129.15 114.95 129.15Q116.3 134.45 119.55 138.05L119.55 138.4 119.9 138.7 114.3 142.65 114.3 143 113.65 143.35 114.3 144.65Q117.25 149.6 122.55 146.6 128.8 143 136.05 141.35L137.7 142 136.7 144.3 136.7 146.95 135.4 149.25Q129.8 154.85 122.2 157.5L146.25 181.55Q159.1 184.85 169.65 193.05L166 200.95 164.35 202.6Q169.65 200 175.25 199.65 186.45 206.55 198.95 201.95L202.9 196.05 201.25 189.1 209.5 179.55Q203.9 166.05 192.35 157.15L191.05 149.9 164.7 130.15M194.35 122.25L194.7 112.05Q184.45 113.7 190.05 125.2L190.05 125.55Q188.4 131.45 183.8 134.75 187.75 142 197.3 144L197.65 143.65 189.75 132.15Q194.7 128.15 194.35 122.25M191.4 90.95Q188.75 87 184.15 88.3 180.5 92.6 178.85 98.2L180.2 100.5 181.5 102.15 189.75 102.5 195 110.05Q201.6 107.4 200.95 101.8L200.95 101.5 191.4 98.2 191.7 91.95 191.4 90.95M169.65 47.8L169.3 47.15 160.4 45.8 159.1 44.85Q154.8 41.2 151.55 45.8 163.7 51.75 169.65 47.8M245.4 84.7L249.05 88.65 250.35 85.7Q250 79.4 244.1 76.8L236.5 80.1Q231.25 79.1 228.95 74.5L211.8 73.8Q210.5 76.8 211.15 80.1L207.55 87 225.65 79.75 230.25 80.4Q231.55 83.7 234.2 86L238.15 86.35Q236.2 84.7 236.2 82.05 241.45 77.75 245.4 84.35L245.4 84.7M168 31L168 31.3 164.35 31 164.35 31.3Q167.65 34.3 165.7 37.9 170.65 38.25 170.95 41.55L171.6 44.85Q176.25 49.1 176.55 55.7L176.55 57.7 183.15 62.6Q182.8 57 179.55 52.4L178.2 48.8Q178.2 46.15 179.85 45.15L188.4 48.45 195.35 53.05 183.15 42.85 177.55 34.6Q178.55 31 182.5 31.65 173.95 25.05 163.4 27.7L168.35 30.35 168.35 30.65 168 31Z" test="Scene 1"/><path fill="#8C4343" stroke="none" d="M135.05 27.35L135.05 27.05 134.75 27.35 135.05 27.35Z" test="Scene 1"/><path fill="#554545" stroke="none" d="M139.65 24.1L139.35 24.1 139.65 24.4 139.65 24.1M139 23.75L138 23.75 139.35 24.1 139 23.75M152.2 32.95L152.5 32.65 152.2 32.65 152.2 32.95M156.15 26.4L155.8 26.05 155.8 26.4 156.15 26.4M140 23.75L140.35 23.75 140.35 23.4 140 23.75Z" test="Scene 1"/><path fill="#604141" stroke="none" d="M119.9 26.7L121.2 26.7 122.2 26.05 119.9 26.7M127.15 25.4L127.15 25.05 123.55 26.05 123.85 26.05 128.15 25.4 127.15 25.4Z" test="Scene 1"/><path fill="#666" stroke="none" d="M127.15 25.05L127.15 25.4 128.15 25.4 130.45 24.75 127.15 25.05M140.35 23.4L140.35 23.75 140.65 23.75 140.65 23.4 140.35 23.4M169.3 47.15L169.65 47.8 170.3 47.15 169.3 47.15Z" test="Scene 1"/><path fill="#8F4444" stroke="none" d="M197.3 144L197.65 144 197.65 143.65 197.3 144Z" test="Scene 1"/><path fill="#999" stroke="none" d="M201.25 101.5L200.95 101.5 200.95 101.8 201.25 101.5Z" test="Scene 1"/><animate attributeName="display" repeatCount="indefinite" dur="0.583s" keyTimes="0;.286;.429;1" values="none;inline;none;none"/></g><g display="none" id="Layer2_0_FILL"><path fill="#666" stroke="none" d="M126.5 275.1L127.15 275.1 127.15 274.45 126.5 275.1M132.75 24.4L131.45 24.4 126.8 25.4 131.45 25.05 132.75 24.75 132.75 24.4Z" test="Scene 1"/><path fill="#131C1B" stroke="none" d="M150.55 266.85L151.2 270.5 145.95 269.8 139 267.5 129.15 269.5 121.2 269.8 127.15 274.45 127.15 275.1 151.2 277.05 189.1 271.8 194.7 269.15 188.75 268.85 190.75 260.95 184.8 260.25 174.25 257.65 162.75 257.3Q153.85 258.6 147.25 263.9L148.25 264.55 150.55 266.85M32.95 170.65L37.2 180.55 39.2 178.9Q42.15 175.6 40.2 171L39.2 170Q35.25 167.05 32.95 170.65M151.55 24.4L151.2 24.4 148.55 23.4 146.25 23.1 137.05 23.75 137.05 24.1Q143.3 23.75 146.25 26.05L146.6 26.4Q152.5 27.7 151.55 24.4M271.75 122.25L272.75 122.9 273.4 121.9 272.4 113.35 271.45 118.3 271.75 122.25M168.65 121.9L168.35 121.9 167.65 121.9 148.55 124.55 143.3 126.2 139.35 129.5 144.3 138.05 137.7 142Q137.7 147.6 142.65 147.3 146.9 146.6 149.2 143.65L162.05 142.35 161.1 147.95 155.15 151.55Q147.9 154.2 143.95 160.15L142.3 170.65Q139.35 177.6 140.35 185.15L143.3 191.75 143.95 192.4Q144.95 193.75 144.3 195.7L143.6 198.35 147.9 206.9Q152.2 211.85 150.85 219.1L150.55 222.05Q160.4 225 166.7 216.45L171.3 208.55Q182.8 203.6 195.35 200.95 200.6 206.25 207.55 206.25L212.8 205.6 218.4 201.95 219.4 199.35 219.4 191.4 226.95 185.5 227.3 179.25 225.65 175.3 223 171 215.75 163.1 215.45 163.1Q193.05 172 177.9 156.15L177.55 153.85 175.9 144 167.35 136.75Q167 133.45 169 130.5L170.65 129.5Q173.6 127.2 172.95 123.9L172.3 123.25 168.65 121.9M176.25 43.85L172.95 40.2Q168 35.95 161.4 36.25L161.4 37.9 169.95 46.5 175.9 46.5 179.55 49.75 183.15 51.1 183.15 50.75Q179.2 47.8 176.25 44.15L176.25 43.85M170.3 67.9L168.65 66.9Q163.05 63.95 159.75 69.85L160.1 78.45 163.4 83.05 169.3 86.35Q172.95 87.65 175.25 85.35L168.35 76.45 168.35 73.8Q168.35 70.5 170.3 67.9M180.2 33.3L180.5 33.3 179.2 30 177.55 29.35 166.35 28.35 164.05 29.35Q167.35 31 165.7 32.3L172.95 35.3 180.2 33.3M238.5 82.05L237.5 81.7 225.95 84.05 225.95 85.35 226.95 86 233.2 87Q236.5 88.95 237.15 93.6L239.5 93.9 242.75 91.95 243.75 90.6Q242.45 85.7 238.5 82.05Z" test="Scene 1"/><path fill="url(#Gradient_1)" stroke="none" d="M37.55 160.45L37.55 160.8Q37.2 166.4 40.85 168.05L41.15 168.05Q45.45 159.8 37.55 160.45M275.05 179.55L274.75 179.25 259.9 215.15 262.55 212.15Q271.1 196.7 275.05 179.55M49.4 116L49.4 116.3Q50.05 118.6 52.7 117.95L52.7 117.65Q55.65 107.1 49.4 116M67.85 116.95L66.85 117.65Q63.9 120.25 64.55 124.55 72.15 132.15 82.35 128.15L72.45 122.9 72.45 120.95Q72.15 117.95 69.85 116L67.85 116.95M155.5 72.85L153.85 72.85Q147.9 73.5 146.25 79.1 147.9 84.35 153.5 82.7L155.15 81.7Q160.1 76.8 155.5 72.85M180.5 33.3L180.2 33.3 172.95 35.3Q176.55 38.55 176.55 43.85L176.25 44.15Q179.2 47.8 183.15 50.75L183.15 51.1 183.5 51.4Q187.1 59 179.55 49.75L175.9 46.5 169.95 46.5 168.65 51.75 170.65 58.35 170.65 63.6 186.45 73.5 177.2 74.5 177.9 75.8 178.2 77.1 179.85 79.75 179.85 83.35 178.55 86 176.9 88 180.2 89.65 187.45 90.95 186.75 91.6 186.1 92.6 185.8 93.25 185.8 95.25 184.8 95.9Q182.15 97.85 182.8 100.85L182.8 106.1 175.25 112.05 172.3 121.25 168.65 121.6 168.65 121.9 172.3 123.25 172.95 123.9Q173.6 127.2 170.65 129.5L169 130.5Q167 133.45 167.35 136.75L175.9 144 177.55 153.85 177.9 155.85 177.9 156.15Q193.05 172 215.45 163.1L215.75 163.1Q218.75 162.75 221.05 165.4L223 171 225.65 175.3 232.55 181.55 232.9 181.55Q237.15 188.45 236.5 198L236.5 198.35 229.95 209.55Q230.6 223.7 227.3 237.55L225.95 240.85 224.65 243.15Q241.15 237.85 252 224.35 264.2 208.55 269.45 188.8 273.75 171 274.4 152.9L273.4 121.9 272.75 122.9 272.75 123.25Q272.1 132.15 269.15 126.2 271.45 126.2 271.75 122.55L271.75 122.25 271.45 118.3 272.4 113.35 271.1 106.75 263.55 90.3Q254.65 74.15 241.15 60.3 213.45 32.65 177.55 25.7L161.1 23.4 152.5 23.1 152.5 23.75 152.85 23.75 158.75 27.05 156.45 30 158.1 32 156.8 34.3Q154.8 29.35 150.2 29 149.9 32.95 146.6 34.6 143.6 33.95 142.3 31.65L143.95 30.35 142.65 29.35 136.35 28.35 134.05 27.35 131.75 27.7 122.55 27.35 131.45 25.05 126.8 25.4 106.05 31 99.15 33.95 79.7 45.8Q54 62.95 41.5 90.6L38.85 97.85 36.9 110.7Q35.55 118.6 41.5 123.9L42.5 128.85 43.5 131.15 45.45 134.45 46.75 144 49.1 149.25 56.35 151.25 60.3 157.15 55 161.75 53.05 165.75 51.7 166.7Q49.1 179.25 53.35 191.4L57.3 198.65Q60.95 206.25 67.85 211.85L71.15 218.45Q74.75 224.35 73.8 231.6L77.75 239.5 78.05 243.45 81.35 250.4 87.3 255.65 88.95 259.6Q98.8 266.85 110.7 270.5L117.25 268.85 106.4 263.9 106.75 262.25 106.75 260.95 106.4 259.6 105.75 258.6 106.05 253 120.9 232.6 127.15 229.95 129.15 228.65 132.1 224.05 133.4 222.4 132.75 217.1Q132.4 214.15 131.1 212.15L142.65 198 147.9 206.9 143.6 198.35 144.3 195.7Q144.95 193.75 143.95 192.4L143.3 191.75 140.35 185.15 140 189.1 120.9 180.55 105.1 162.1Q102.1 161.45 101.8 158.5 98.8 156.15 95.2 157.5L94.55 157.5 93.55 156.5Q89.25 152.9 88.3 147.3 85.3 143.65 80.7 144L79.4 143.65 76.4 142 67.85 142.65 63.55 146.6 61.95 146.95 51.7 143.35 50.75 139.35 52.35 138.4 55 135.75Q56.65 132.45 56.35 128.5L56 128.5 55 127.2 50.05 125.2 49.75 124.9 47.45 121.9 46.45 117.65Q43.5 114.65 43.15 110.7 48.4 104.1 51.4 96.55L60.95 96.2 59.6 108.4 61.25 109.7 63.55 109.7Q68.5 100.15 77.4 94.55L80.7 87 88.95 81.05 90.25 80.4 96.5 79.1Q104.4 77.45 112 73.5L122.55 79.1Q125.85 73.5 126.15 67.25L125.15 66.9 124.2 65.9 124.5 62.6 125.5 60.65Q122.85 57.7 122.2 53.7L125.5 48.8 125.15 44.5 124.5 44.85 122.2 47.15 121.55 47.15Q120.25 46.5 120.25 44.85L131.75 41.85 131.75 39.25 130.1 36.9Q132.4 32.3 137.05 31L138.35 32.3 139 34.3 138.35 36.9 131.45 46.8 132.4 48.1Q135.05 50.75 139 50.75L147.25 42.85 151.55 46.5 155.15 47.15Q159.75 47.8 163.4 44.85L163.4 44.5 159.75 38.9 160.1 38.25 161.4 37.9 161.4 36.25 160.75 32.95 160.1 32 165.7 32.3Q167.35 31 164.05 29.35L160.4 28.05 166.35 28.35 177.55 29.35 179.2 30 180.5 33.3M189.75 90.3Q194 86.65 196 82.05L197.65 76.8 202.6 75.15Q209.85 79.75 218.4 78.1 221.05 82.05 225.95 85.35L225.95 84.05 237.5 81.7 238.5 82.05Q242.45 85.7 243.75 90.6L242.75 91.95 239.5 93.9 237.15 93.6Q236.5 88.95 233.2 87L226.95 86 226.3 93.25Q222.35 91.95 221.35 88.3 220.05 83.7 215.45 83.35L206.2 84.7 189.75 90.3Z" test="Scene 1"/><path fill="#999" stroke="none" d="M274.75 179.25L275.05 179.55 275.05 177.9 274.75 179.25M146.25 23.1L148.55 23.4 152.2 23.4 152.5 23.75 152.5 23.1 146.25 23.1M168.35 121.9L168.65 121.9 168.65 121.6 168.35 121.9Z" test="Scene 1"/><path fill="#333" stroke="none" d="M137.05 24.1L136.7 23.75 132.75 24.4 132.75 24.75 137.05 24.1Z" test="Scene 1"/><path fill="#000" stroke="none" d="M137.05 24.1L137.05 23.75 136.7 23.75 137.05 24.1Z" test="Scene 1"/><path fill="#6E4646" stroke="none" d="M177.9 156.15L177.9 155.85 177.55 153.85 177.9 156.15Z" test="Scene 1"/><path fill="#554545" stroke="none" d="M168.35 121.9L168.65 121.6 167.65 121.9 168.35 121.9M176.25 44.15L176.55 43.85 176.25 43.85 176.25 44.15Z" test="Scene 1"/><animate attributeName="display" repeatCount="indefinite" dur="0.583s" keyTimes="0;.143;.286;1" values="none;inline;none;none"/></g><g id="Layer1_0_FILL"><path fill="url(#Gradient_1)" stroke="none" d="M257.6 201.65L256.95 205.9 254.95 209.85Q252.35 214.8 250.7 220.75L257.95 213.5Q268.15 200 268.15 184.15L257.6 201.65M28.35 154.85Q27.65 159.8 30.3 162.1 33.6 155.5 28.35 154.55L28.35 154.85M39.85 110.4L40.2 112.05Q46.45 103.45 39.85 110.4M57.95 118.3L57 115Q56 110.7 52.7 111.35 52.35 116.3 50.05 120.6 56 127.2 64.9 124.2 59.95 122.55 57.95 118.3M140 72.5L139.65 72.5Q131.75 72.85 129.45 79.1L129.45 79.4Q133.75 85.7 140.35 80.1L140.35 79.75Q143.3 75.15 140 72.5M175.9 30L176.25 30 178.85 34.6 178.55 34.6Q172.95 33.65 169 37.9 170.3 41.85 168.65 46.15L169 46.5 175.25 56.35 174.9 56.35Q170.3 53.7 165.7 47.15 159.45 46.8 158.45 51.75L158.1 52.1 157.8 62.95 157.45 62.95Q155.5 65.6 158.45 66.9L163.05 67.55 163.4 67.55 171.3 74.15 171.3 74.5 161.75 76.45 161.4 76.8Q163.7 81.05 162.75 85L163.05 85Q160.1 86.65 159.1 90.3L169.65 92.6 169.65 92.9 163.7 99.5 163.7 99.85 162.4 107.1 162.05 107.1Q158.45 110.4 154.5 112.7L154.15 112.7Q153.5 117.3 150.55 119.3L150.2 128.15Q144.6 130.15 144.3 137.05L144.3 137.4 151.55 143.65 151.55 144 153.5 156.15 153.5 156.5 157.15 161.1Q164.7 162.45 166.35 170 168.65 166.4 173.25 166.4L195 166.05 197 166.7 200.3 170 201.25 175.3 203.25 177.25 203.25 177.9Q209.85 181.55 213.8 188.45L216.4 194.4 217.1 200.95 214.45 204.95Q214.45 208.55 211.8 210.85L210.5 212.15Q213.15 225 210.8 238.2 212.45 239.5 211.5 242.15L209.85 244.8 219.05 245.75 232.9 236.55 245.75 220.75 248.05 215.45 248.05 213.8Q255.6 205.9 258.9 195.7L261.2 186.5 268.15 126.55 264.2 133.75 263.55 134.1 261.9 134.1 259.9 131.8Q265.15 130.5 264.85 124.55L266.5 121.9 267.8 118.3 267.8 117.95 262.55 98.2Q265.15 94.55 270.75 106.1L263.55 90.3Q254.65 74.15 241.15 60.3 213.45 32.65 177.55 25.7L161.1 23.4 154.5 23.1 155.5 24.1 155.5 24.4 156.45 26.05Q156.45 30.35 153.5 33.3L152.5 33.65 150.2 29Q145.25 34.95 138.7 32L141.65 29.7 132.4 27.35 132.4 26.7 125.85 26.7 125.5 25.4 106.05 31 90.6 38.25 77.4 46.5 57.3 64.25Q46.75 75.8 39.55 88.65L31.95 110.7 35.55 130.5 35.55 130.8Q33.25 138.4 37.55 144.65L37.9 144.65Q42.15 145.3 44.8 150.9L40.85 156.5 40.5 156.5Q39.85 159.45 38.2 161.1L37.9 161.1Q38.2 195.05 54.35 216.8L59.95 224.7 65.9 240.5 65.9 240.85 80.05 255.65 95.85 264.9 104.1 267.5 104.4 267.5Q102.75 263.9 95.2 261.6L91.9 256.3 91.55 256.3 90.9 251.05 90.6 250.7 92.9 247.4 92.9 247.1 95.55 236.2 95.55 235.9 100.15 230.3 100.15 229.95 106.4 227.65 106.4 227.35 110.35 221.05Q110.35 214.5 107.7 210.55L107.4 210.2Q108.35 206.9 112.65 205.25L112.65 204.95 113.95 201.65 113.95 201.3Q117.95 199.35 119.9 195.05L119.9 194.7Q118.9 190.1 115.95 187.8L115.6 187.8 98.15 178.9 97.85 178.9 79.7 155.5 79.4 155.2 74.1 154.55 73.8 154.55Q69.5 150.25 68.85 144.3L68.5 144Q67.55 141 64.25 140.05L54 137.4 53.7 137.05 46.45 142.65 46.1 143Q40.5 140.7 38.2 135.4L38.2 135.1 42.8 129.8 42.8 129.5Q44.45 124.9 42.5 121.6L42.15 121.25Q38.85 120.6 37.9 117.95L37.55 117.95Q37.9 112.05 36.55 107.1L36.55 106.75Q40.5 97.2 46.1 90.95 50.05 90.95 51.05 92.9L51.4 93.25Q48.1 98.5 49.4 105.1L49.75 105.1Q60.3 95.9 69.15 83.05L69.15 82.7Q74.45 80.1 78.75 76.45L79.05 76.45Q89.95 75.8 98.8 71.2L99.15 71.2Q102.1 74.8 107.05 77.1L107.4 77.1Q113 70.5 112 65.6L111.65 65.25Q110.7 61.95 113.3 59.65L113.3 59.3 112.35 53.05 112.35 52.75Q117.95 47.45 118.6 42.85L118.6 42.5Q113 47.45 113.65 43.5L113.65 43.2 117.95 41.85 126.15 40.2 126.15 39.9 125.85 35.6 125.85 35.3Q129.15 31.3 135.4 30.35L135.7 30.35 136.05 33.65 135.7 33.95Q131.1 38.55 125.5 42.2 121.2 46.5 126.5 49.45L126.8 49.75 130.75 49.1 131.1 49.1 133.4 45.5 133.4 45.15Q136.35 42.2 141.3 43.2L143.6 46.5 143.95 46.8Q151.2 48.8 155.15 44.85L155.15 44.5 150.2 38.9Q158.45 37.25 157.8 31 164.05 34.3 161.75 30.35L161.4 30.35 161.4 30Q161.75 28.35 164.05 28.35L164.35 28.35 175.9 30M171.6 91.6Q177.9 88.95 180.5 83.05L183.15 78.75 188.75 77.45 193.35 80.1 205.55 82.05Q209.15 89.3 217.4 86.65L223.65 86.35Q225.65 84.35 227.95 86.35L231.25 89.95 232.25 95.25 231.9 95.25Q229.6 98.85 225.3 97.55L225.3 95.25Q224.35 99.85 223.65 94.55L223.65 94.25Q220.05 88.3 213.8 90.3L213.45 90.6 210.5 96.2 210.15 95.9Q206.2 93.9 205.9 88.95 202.9 85.7 197.95 85.7L197.95 86 192.7 88 182.15 88 178.55 88.95 176.55 91.3 171.6 91.6Z" test="Scene 1"/><path fill="#131C1B" stroke="none" d="M152.85 271.15L142.95 266.85 130.45 267.2 124.85 268.15 123.55 269.15 125.15 270.5 125.85 272.8 122.85 274.1 151.2 277.05Q172.3 277.05 190.75 271.15L186.75 270.5 191.7 267.5 194 262.55 180.85 259.3 176.55 258.6 169.95 258.3Q160.4 259.3 152.85 264.2 157.15 267.85 152.85 271.15M125.85 217.45Q132.4 225 142.95 226 146.25 226.35 147.25 223.35 144.3 218.75 140.65 215.15L136.05 210.85 131.1 207.55Q124.2 203.3 118.25 205.6L125.85 217.45M155.5 24.1L154.5 23.1 133.75 24.1 133.75 24.75 155.15 24.4 155.5 24.1M267.8 118.3L266.5 121.9 264.85 124.55Q265.15 130.5 259.9 131.8L261.9 134.1 263.55 134.1 264.2 133.75 268.15 126.55 268.45 126.55Q271.75 123.25 267.8 118.3M195 166.05L173.25 166.4Q168.65 166.4 166.35 170L166.35 170.65 162.05 177.25 162.05 182.2Q161.1 187.8 163.4 193.05L163.7 200 165.7 202.6Q165.7 205.9 167.65 208.9L168.65 210.55 167 221.75 174.6 223.05Q179.2 222.7 182.15 219.1L184.8 217.1 188.75 209.85Q200.6 203.95 214.45 204.95L217.1 200.95 216.4 194.4 213.8 188.45Q209.85 181.55 203.25 177.9L203.25 177.25 201.25 175.3 200.3 170 197 166.7 195 166.05M225.3 95.25L225.3 97.55Q229.6 98.85 231.9 95.25L231.9 94.9 225.3 95.25M197.95 86L197.65 85.7Q194.7 83.7 193.35 80.1L188.75 77.45 183.15 78.75 186.45 84.05 192.7 88 197.95 86Z" test="Scene 1"/><path fill="#333" stroke="none" d="M131.75 24.75L131.75 25.05 133.1 24.75 133.1 24.4 131.75 24.75Z" test="Scene 1"/><path fill="#554545" stroke="none" d="M134.05 27.05L132.4 26.7 132.4 27.35 133.75 27.35 134.05 27.05M168.65 46.15L168.65 46.5 169 46.5 168.65 46.15Z" test="Scene 1"/><path fill="#000" stroke="none" d="M133.75 24.1L133.1 24.4 133.1 24.75 133.75 24.75 133.75 24.1Z" test="Scene 1"/><path fill="#999" stroke="none" d="M133.1 24.4L133.75 24.1 132.75 24.4 125.5 25.4 125.85 26.7 129.45 25.05 131.75 25.05 131.75 24.75 133.1 24.4Z" test="Scene 1"/><path fill="#8D4343" stroke="none" d="M155.15 24.4L155.5 24.4 155.5 24.1 155.15 24.4Z" test="Scene 1"/><path fill="#492222" stroke="none" d="M162.05 182.2L162.05 177.25 161.75 181.55Q160.4 187.8 163.4 193.05 161.1 187.8 162.05 182.2Z" test="Scene 1"/><path fill="#904444" stroke="none" d="M232.25 95.25L231.9 94.9 231.9 95.25 232.25 95.25M197.95 86L197.95 85.7 197.65 85.7 197.95 86Z" test="Scene 1"/><animate attributeName="display" repeatCount="indefinite" dur="0.583s" keyTimes="0;.143;1" values="inline;none;none"/></g></g></svg>