<?xml version="1.0" encoding="UTF-8"?>
<!DOCTYPE svg PUBLIC "-//W3C//DTD SVG 1.1//EN" "http://www.w3.org/Graphics/SVG/1.1/DTD/svg11.dtd">
<!-- Creator: CorelDRAW X6 -->
<svg xmlns="http://www.w3.org/2000/svg" xml:space="preserve" width="42.6007mm" height="56.6083mm" version="1.1" style="shape-rendering:geometricPrecision; text-rendering:geometricPrecision; image-rendering:optimizeQuality; fill-rule:evenodd; clip-rule:evenodd"
viewBox="0 0 523 695"
 xmlns:xlink="http://www.w3.org/1999/xlink">
 <defs>
  <style type="text/css">
   <![CDATA[
    .str0 {stroke:#373435;stroke-width:2.4567}
    .fil8 {fill:#373435}
    .fil0 {fill:#4E5A62}
    .fil12 {fill:#848688}
    .fil18 {fill:#A59482}
    .fil22 {fill:#BDBFC1}
    .fil2 {fill:#C37950}
    .fil1 {fill:#CE8F64}
    .fil21 {fill:#E9C047}
    .fil11 {fill:#F5874F}
    .fil5 {fill:#FEFEFE}
    .fil19 {fill:#FFCC29}
    .fil15 {fill:black}
    .fil9 {fill:#100E11}
    .fil7 {fill:#333333}
    .fil14 {fill:#C9A37D}
    .fil4 {fill:#EFD0B3}
    .fil13 {fill:#FBFFFF}
    .fil10 {fill:white}
    .fil17 {fill:#6E6048}
    .fil3 {fill:#7B543A}
    .fil16 {fill:#8A765C}
    .fil23 {fill:#AD997C}
    .fil20 {fill:#C0AA49}
    .fil6 {fill:#CEBAA3}
   ]]>
  </style>
 </defs>
 <rect class="fil0" x="-3456" y="17" width="2652" height="3432"/>
 <polygon class="fil1" points="275,361 506,619 490,633 260,375 "/>
 <polygon class="fil2" points="523,621 505,618 490,632 508,635 "/>
 <polygon class="fil3" points="294,364 523,621 504,618 275,362 "/>
 <path class="fil4" d="M277 335l18 -36c25,7 41,16 42,18 1,-13 10,-59 20,-63l24 6c5,23 2,89 -33,100 -11,4 -65,-18 -71,-26z"/>
 <path class="fil5" d="M252 282l-21 31c4,4 44,28 49,25l22 -36c-6,-3 -30,-16 -50,-20z"/>
 <path class="fil6" d="M342 312c2,-16 5,-36 14,-50 -1,-1 -2,-2 -3,-3 -8,11 -15,46 -16,59 1,2 3,4 3,6 0,-1 1,-9 1,-11z"/>
 <polygon class="fil1" points="39,153 457,342 446,367 28,178 "/>
 <polygon class="fil2" points="480,335 457,342 446,367 469,360 "/>
 <polygon class="fil3" points="62,147 479,335 456,342 39,154 "/>
 <polygon class="fil1" points="57,130 476,319 464,344 46,155 "/>
 <polygon class="fil2" points="498,312 475,319 464,344 487,337 "/>
 <polygon class="fil3" points="81,124 497,312 474,319 57,131 "/>
 <polygon class="fil1" points="43,91 462,280 450,305 32,116 "/>
 <polygon class="fil2" points="484,273 461,280 450,305 473,298 "/>
 <polygon class="fil3" points="66,85 483,273 460,281 43,92 "/>
 <path class="fil7" d="M119 455c21,5 51,9 58,13l0 0c20,4 39,10 45,14 0,0 25,45 10,99 -10,34 -34,80 -38,90l-22 -4c1,-7 1,-57 18,-80 0,-1 -2,-2 -2,-3 0,-1 3,-3 3,-3 0,0 -4,-4 -4,-7 0,-2 4,-4 4,-6 7,-38 -18,-62 -22,-71 -5,19 -41,20 -49,48 -10,34 -34,80 -38,90l-22 -4c-1,-36 10,-69 15,-90 9,-42 26,-57 43,-86z"/>
 <path class="fil8" d="M163 506c-29,2 -40,24 -46,39 -2,4 -6,4 -10,3 3,2 3,5 6,6 -1,1 -4,2 -6,1 -11,24 -6,48 -27,77 0,1 -1,1 -1,2l3 1c0,0 0,0 0,0 4,-8 27,-48 32,-72 0,-1 4,-3 4,-4 0,-1 -2,-4 -2,-4 0,0 4,-2 5,-4 1,-2 -1,-6 0,-7 7,-26 26,-22 40,-38z"/>
 <path class="fil8" d="M168 494c14,8 32,63 29,78 -1,4 3,7 6,8 -4,0 -6,3 -8,2 0,1 2,4 4,4 -5,26 -22,43 -22,79 0,1 0,1 0,2l-3 -1c0,0 0,0 0,0 1,-9 1,-57 18,-79 0,-1 -2,-2 -2,-3 0,-1 3,-3 3,-3 0,0 -4,-4 -4,-7 0,-2 4,-4 4,-6 7,-43 -17,-68 -24,-74z"/>
 <polygon class="fil9" points="194,260 176,320 188,325 184,360 191,380 190,383 191,382 191,382 191,382 206,366 217,333 230,334 240,271 241,268 238,266 213,316 201,338 198,349 201,336 198,311 198,256 194,256 "/>
 <polygon class="fil10" points="126,423 229,446 221,483 118,460 "/>
 <path class="fil4" d="M115 287l20 35c-20,17 -47,29 -49,29 -4,14 -39,47 -46,52l-18 -10c0,-14 19,-51 38,-60 0,-14 46,-45 56,-46z"/>
 <path class="fil11" d="M238 266c0,0 30,17 29,22 -9,65 -17,114 -39,187l-5 1c-9,-1 -22,-4 -37,-22 -29,12 -62,0 -70,-2 4,-64 28,-134 42,-189 3,-1 5,-2 6,-3 6,-2 15,-3 22,-4 8,-1 13,0 13,0l39 10z"/>
 <polygon class="fil12" points="209,346 211,346 187,455 185,455 "/>
 <path class="fil13" d="M201 257c0,2 7,104 7,104 14,-28 26,-63 28,-96 0,0 -31,-8 -34,-9z"/>
 <polygon class="fil5" points="236,261 219,283 234,272 251,275 "/>
 <path class="fil12" d="M234 276l-14 7 15 -11c-1,1 0,2 0,4z"/>
 <path class="fil6" d="M206 237l32 7 -4 18c0,6 -15,21 -15,21 0,0 -19,-22 -17,-28l4 -17z"/>
 <path class="fil4" d="M186 136c0,0 -17,62 -3,79 45,54 72,58 122,33 13,-6 21,-21 33,-56 11,-36 20,-80 19,-91 -1,-11 -45,-27 -65,-37 -21,-10 -79,-7 -88,-1 -9,5 -17,73 -17,73z"/>
 <path class="fil8 str0" d="M192 84c-16,35 -21,78 -19,109 6,10 9,12 20,14l7 -41 16 -75 -24 -7z"/>
 <path class="fil14" d="M293 191c-3,4 -9,6 -13,5l0 0 0 0 0 0 0 0c-4,-2 -9,-5 -10,-10 9,7 14,9 23,5z"/>
 <path class="fil8" d="M228 126c21,-20 56,-3 46,7 -4,4 -10,-14 -46,-7z"/>
 <path class="fil6" d="M197 195c-17,-14 -37,-60 0,-70 4,-1 5,0 9,0 0,2 -1,3 -1,3 0,0 -9,39 -9,66z"/>
 <path class="fil8" d="M308 49c-43,-10 -107,-1 -104,72 0,11 -11,53 -6,58 22,-25 13,-100 63,-108 39,-6 37,23 37,23 0,0 103,-22 10,-45z"/>
 <path class="fil15" d="M85 629l-24 -5c-21,13 -40,1 -41,5 -2,3 -2,9 14,13 6,1 17,3 17,3 2,0 13,-2 12,-1l-1 3 17 4c5,-7 7,-12 6,-22z"/>
 <path class="fil15" d="M174 661l24 5c13,20 35,18 35,22 1,4 -2,9 -18,5 -6,-1 -16,-4 -16,-4 -1,-1 -11,-7 -11,-6l-1 3 -17 -4c-1,-8 -1,-14 4,-22z"/>
 <path class="fil8" d="M256 279c-16,-4 -54,-52 -53,-67 17,13 35,42 48,35 11,-5 21,-6 29,7 6,9 9,-2 31,-8 -6,15 -39,37 -55,34z"/>
 <path class="fil4" d="M243 224c4,-9 6,-13 27,-10 18,5 19,10 19,20 0,10 -11,2 -24,-1 -12,-3 -25,0 -22,-9z"/>
 <path class="fil12" d="M219 283c-3,23 -8,53 -13,77 0,3 0,6 2,1 5,-24 10,-53 11,-78z"/>
 <circle class="fil12" transform="matrix(0.114699 0.0254523 -0.0254523 0.114699 224.426 299.643)" r="28"/>
 <circle class="fil10" transform="matrix(0.093157 0.020672 -0.020672 0.093157 225.068 299.263)" r="28"/>
 <circle class="fil12" transform="matrix(0.114699 0.0254523 -0.0254523 0.114699 220.165 318.846)" r="28"/>
 <circle class="fil10" transform="matrix(0.093157 0.020672 -0.020672 0.093157 220.807 318.466)" r="28"/>
 <path class="fil10" d="M297 150c2,-10 39,2 38,11 -1,12 -43,8 -38,-11z"/>
 <path class="fil16" d="M304 163c5,3 11,4 17,5 1,-1 2,-3 3,-6 1,-5 -3,-10 -8,-11 -5,-1 -10,3 -11,8 0,1 0,3 0,4z"/>
 <path class="fil8" d="M307 164c3,1 7,2 10,3 1,-1 2,-3 3,-4 1,-4 -2,-7 -6,-8 -4,-1 -7,2 -8,6 0,1 0,2 0,3z"/>
 <circle class="fil5" transform="matrix(-0.158942 -0.0228578 0.0228578 -0.158942 308.097 159.766)" r="24"/>
 <path class="fil17" d="M320 153c1,4 3,10 -1,14 1,0 1,0 2,0 1,-1 2,-3 3,-6 0,-3 -1,-7 -3,-9z"/>
 <path class="fil8" d="M348 153c-11,-27 -50,-26 -45,-13 2,5 15,-9 45,13z"/>
 <path class="fil12" d="M201 270l18 13 -18 -18c0,1 0,3 0,5z"/>
 <path class="fil6" d="M128 323c-10,6 -30,21 -42,29 2,0 25,-10 44,-25l-2 -4z"/>
 <path class="fil6" d="M86 350c-7,9 -36,44 -48,53l1 1c11,-3 44,-41 47,-53z"/>
 <path class="fil16" d="M167 353c17,4 18,-18 20,-29 -9,-2 -18,-4 -26,-6 -3,11 -11,31 6,35z"/>
 <path class="fil2" d="M170 354c17,4 18,-18 20,-29 -9,-2 -18,-4 -27,-6 -3,11 -10,31 6,35z"/>
 <path class="fil16" d="M178 322l-2 0 -12 -3c-2,4 6,10 12,11 5,1 15,0 15,-5l-12 -3z"/>
 <path class="fil16" d="M235 368c17,4 18,-18 20,-29 -9,-2 -18,-4 -26,-6 -3,11 -11,31 6,35z"/>
 <path class="fil2" d="M237 369c17,4 18,-18 20,-29 -9,-2 -18,-4 -27,-6 -3,11 -10,31 6,35z"/>
 <path class="fil16" d="M245 337l-2 0 -12 -3c-2,4 6,10 12,11 5,1 15,0 15,-5l-12 -3z"/>
 <path class="fil16" d="M156 404c17,4 18,-18 20,-29 -9,-2 -18,-4 -26,-6 -3,11 -11,31 6,35z"/>
 <path class="fil2" d="M158 404c17,4 18,-18 20,-29 -9,-2 -18,-4 -27,-6 -3,11 -10,31 6,35z"/>
 <path class="fil16" d="M166 373l-2 0 -12 -3c-2,4 6,10 12,11 5,1 15,0 15,-5l-12 -3z"/>
 <path class="fil16" d="M224 419c17,4 18,-18 20,-29 -9,-2 -18,-4 -26,-6 -3,11 -11,31 6,35z"/>
 <path class="fil2" d="M226 419c17,4 18,-18 20,-29 -9,-2 -18,-4 -27,-6 -3,11 -10,31 6,35z"/>
 <path class="fil16" d="M234 388l-2 0 -12 -3c-2,4 6,10 12,11 5,1 15,0 15,-5l-12 -3z"/>
 <path class="fil18" d="M197 165c0,0 0,-9 -2,-18 -2,-9 -8,-3 -8,-3 0,0 4,4 5,9 1,5 -3,2 -4,3 2,-1 9,8 9,8z"/>
 <path class="fil19" d="M179 86c11,-51 30,-95 111,-77 81,18 80,66 68,117 -60,-13 -120,-27 -180,-40z"/>
 <path class="fil20" d="M340 30c-15,-11 -21,-13 -20,-11 27,26 29,56 17,102l15 3c15,-55 -1,-79 -12,-94z"/>
 <path class="fil20" d="M257 4c-15,-11 -29,3 -29,5 27,24 46,45 38,96l20 4c15,-55 -19,-90 -29,-105z"/>
 <path class="fil20" d="M313 15c-25,-20 -43,-13 -43,-10 32,41 40,59 29,107l26 6c18,-58 -4,-85 -12,-103z"/>
 <path class="fil21" d="M359 124l-180 -40c84,65 237,82 179,40 0,0 0,-1 1,0z"/>
 <path class="fil21" d="M317 16c-25,-20 -46,-15 -46,-13 32,32 43,61 32,110l26 6c18,-58 -4,-85 -12,-103z"/>
 <path class="fil21" d="M260 5c-15,-11 -32,1 -31,3 29,22 48,47 40,98l20 4c15,-55 -19,-90 -29,-105z"/>
 <path class="fil21" d="M343 30c-15,-11 -21,-13 -20,-11 27,26 29,56 17,102l15 3c15,-55 -1,-79 -12,-94z"/>
 <path class="fil6" d="M207 216c-5,-20 17,-91 21,-102 -2,-1 -4,-2 -6,-3 -9,25 -11,55 -24,68 0,0 0,0 -1,-1 0,5 -1,11 -1,16 -1,-1 -2,-1 -3,-2l-2 14c-7,-1 -11,-3 -15,-6 1,6 2,11 5,15 17,21 32,34 46,41l0 0c-14,-16 -27,-36 -26,-45 2,1 3,3 5,4z"/>
 <polygon class="fil5" points="203,253 219,283 200,265 184,260 "/>
 <path class="fil5" d="M159 262c-5,2 -48,21 -48,27l18 38c33,-21 40,-31 30,-65z"/>
 <path class="fil22" d="M144 312c-4,3 -8,6 -11,8 -2,2 -4,3 -6,3l2 4c5,-3 9,-6 13,-9 10,-7 16,-13 19,-21 -4,4 -11,10 -17,15z"/>
 <path class="fil2" d="M130 424c6,-39 18,-93 28,-120 -3,5 -8,9 -15,14 -12,43 -24,90 -27,134 1,0 2,0 3,1 2,0 4,1 7,2 0,-2 0,-5 0,-5 1,-7 2,-16 3,-26z"/>
 <path class="fil5" d="M22 390c8,4 12,7 20,11 20,24 13,32 -3,12 4,21 7,37 1,37 -3,0 -5,-20 -9,-21 -4,-1 1,27 -6,25 -3,-1 -2,-24 -4,-25 -2,-1 -6,22 -10,20 -5,-3 4,-23 1,-24 -2,-1 -8,14 -13,12 -1,-1 7,-43 22,-48z"/>
 <ellipse class="fil23" transform="matrix(0.313492 0.130772 -0.130772 0.313492 277.206 221.422)" rx="28" ry="41"/>
 <path class="fil10" d="M272 144c2,-10 -36,-14 -39,-6 -4,12 35,25 39,6z"/>
 <path class="fil16" d="M243 150c5,2 11,3 17,3 1,-2 2,-4 2,-6 0,-5 -4,-10 -10,-10 -5,0 -10,4 -10,10 0,1 0,3 1,4z"/>
 <path class="fil8" d="M246 151c3,1 7,2 10,2 1,-1 2,-3 2,-5 0,-4 -3,-7 -6,-7 -4,0 -7,3 -7,6 0,1 0,2 1,3z"/>
 <circle class="fil5" transform="matrix(-0.158942 -0.0228578 0.0228578 -0.158942 247.569 147.044)" r="24"/>
 <path class="fil17" d="M258 139c2,3 4,9 0,14 1,0 1,0 2,0 1,-2 2,-4 2,-6 0,-3 -2,-7 -4,-8z"/>
</svg>
