<?xml version="1.0" encoding="UTF-8"?>
<!DOCTYPE svg PUBLIC "-//W3C//DTD SVG 1.1//EN" "http://www.w3.org/Graphics/SVG/1.1/DTD/svg11.dtd">
<!-- Creator: CorelDRAW X6 -->
<svg xmlns="http://www.w3.org/2000/svg" xml:space="preserve" width="6.17561in" height="5.01318in" version="1.1" style="shape-rendering:geometricPrecision; text-rendering:geometricPrecision; image-rendering:optimizeQuality; fill-rule:evenodd; clip-rule:evenodd"
viewBox="0 0 292 237"
 xmlns:xlink="http://www.w3.org/1999/xlink">
 <defs>
  <style type="text/css">
   <![CDATA[
    .str0 {stroke:#CC9E3C;stroke-width:0.142049}
    .fil27 {fill:#262729}
    .fil28 {fill:#2C2D2F}
    .fil29 {fill:#313335}
    .fil22 {fill:#34302C}
    .fil26 {fill:#35393B}
    .fil7 {fill:#3B62AC}
    .fil23 {fill:#423830}
    .fil21 {fill:#5D352B}
    .fil5 {fill:#70A8B0}
    .fil12 {fill:#795030}
    .fil1 {fill:#7C8182}
    .fil0 {fill:#8BD3DE}
    .fil3 {fill:#919495}
    .fil11 {fill:#9B6636}
    .fil2 {fill:#A6A8A8}
    .fil25 {fill:#DDDDDC}
    .fil9 {fill:#DE7938}
    .fil20 {fill:#E2B590}
    .fil4 {fill:#E2E3E3}
    .fil8 {fill:#EAA63A}
    .fil10 {fill:#EEF8F9}
    .fil13 {fill:#F6D0AE}
    .fil19 {fill:#FDD6B2}
    .fil6 {fill:#373435}
    .fil31 {fill:#3D3A3B}
    .fil16 {fill:#4B4B4D}
    .fil24 {fill:#606062}
    .fil14 {fill:#CC9E3C}
    .fil30 {fill:#D2D3D5}
    .fil36 {fill:#E6E7E8}
    .fil17 {fill:#F9FBFC}
    .fil15 {fill:#FEFEFE}
    .fil35 {fill:black}
    .fil34 {fill:#0F6AA7}
    .fil37 {fill:#292025}
    .fil32 {fill:#A17F67}
    .fil33 {fill:white}
    .fil18 {fill:#506F83}
   ]]>
  </style>
 </defs>
 <rect class="fil0" x="2892" y="2056" width="391" height="554"/>
 <polygon class="fil1" points="191,93 191,105 203,108 203,111 199,111 185,108 186,93 "/>
 <path class="fil2" d="M188 95l0 12 11 1 0 4 -32 0 1 -3 11 -1 0 -12c0,0 6,-2 9,0z"/>
 <path class="fil3" d="M143 90c0,2 2,4 4,4l79 0c2,0 4,-2 4,-4l0 -49c0,-2 -2,-4 -4,-4l-79 0c-2,0 -4,2 -4,4l0 49z"/>
 <path class="fil4" d="M139 90c0,2 2,4 4,4l79 0c2,0 4,-2 4,-4l0 -49c0,-2 -2,-4 -4,-4l-79 0c-2,0 -4,2 -4,4l0 49z"/>
 <path class="fil5" d="M144 85c0,2 2,3 4,3l69 0c2,0 4,-2 4,-3l0 -40c0,-2 -2,-3 -4,-3l-69 0c-2,0 -4,2 -4,3l0 40z"/>
 <path class="fil6" d="M148 83c0,2 1,3 3,3l62 0c2,0 3,-1 3,-3l0 -36c0,-2 -1,-3 -3,-3l-62 0c-2,0 -3,1 -3,3l0 36z"/>
 <path class="fil7" d="M261 88c0,0 2,-7 3,-9 0,-1 -3,-2 -3,-2 0,0 -6,20 -7,22 -1,2 0,6 0,6 0,0 5,-12 7,-17z"/>
 <path class="fil8" d="M252 72c0,0 2,-1 3,0 1,1 0,26 0,26 0,0 -3,3 -3,1 0,-2 0,-27 0,-27z"/>
 <path class="fil9" d="M242 80c2,-2 4,-3 4,-1 1,1 6,16 6,16 0,0 1,5 -1,4 -2,-1 -9,-19 -9,-19z"/>
 <path class="fil10" d="M263 111c0,0 1,-21 0,-22 -1,-1 -16,0 -17,0 -2,0 -1,22 -1,22 0,0 15,1 18,0z"/>
 <path class="fil10" d="M245 93c0,0 -6,0 -6,3 0,4 0,11 1,11 1,0 5,0 5,0l0 -1c0,0 -2,0 -3,-2 -1,-2 -1,-8 0,-9 1,-1 3,-1 3,-1 0,0 1,-1 0,-1z"/>
 <path class="fil11" d="M242 220c0,2 2,4 4,4l1 0c2,0 4,-2 4,-4l0 -100c0,-2 -2,-4 -4,-4l-1 0c-2,0 -4,2 -4,4l0 100z"/>
 <path class="fil12" d="M279 216c0,2 2,4 4,4l1 0c2,0 4,-2 4,-4l0 -97c0,-2 -2,-4 -4,-4l-1 0c-2,0 -4,2 -4,4l0 97z"/>
 <path class="fil11" d="M88 220c0,2 2,4 4,4l1 0c2,0 4,-2 4,-4l0 -100c0,-2 -2,-4 -4,-4l-1 0c-2,0 -4,2 -4,4l0 100z"/>
 <path class="fil12" d="M125 216c0,2 2,4 4,4l1 0c2,0 4,-2 4,-4l0 -97c0,-2 -2,-4 -4,-4l-1 0c-2,0 -4,2 -4,4l0 97z"/>
 <polygon class="fil11" points="87,122 258,122 258,111 87,111 "/>
 <polygon class="fil12" points="258,122 292,122 292,111 258,111 "/>
 <path class="fil13" d="M120 21c0,0 -9,3 -11,6 -2,3 -4,7 -2,7 2,0 13,-14 13,-13z"/>
 <path class="fil13" d="M127 58c0,0 6,-12 6,-21 0,-9 -3,-5 -3,-5 0,0 -6,15 -6,16 0,1 -5,1 -6,3 -1,3 2,5 2,5 0,0 4,2 8,1z"/>
 <path class="fil14" d="M127 19c2,1 7,6 9,7 1,1 3,2 0,6 -3,4 -17,22 -18,22 -1,1 -2,1 -6,-2 -4,-3 -7,-6 -7,-7 -1,-1 -2,-2 2,-7 4,-5 13,-16 14,-17 1,-1 4,-3 6,-2z"/>
 <path class="fil15" d="M125 17c2,1 9,7 10,8 1,1 1,3 -2,7 -3,4 -16,20 -17,21 -1,1 -2,1 -6,-2 -4,-3 -7,-6 -7,-7 -1,-1 -2,-2 2,-7 4,-5 13,-16 14,-17 1,-1 4,-3 6,-2z"/>
 <path class="fil16" d="M125 19c2,1 7,5 8,6 1,1 1,2 -1,5 -2,3 -12,16 -13,16 -1,0 -2,1 -5,-2 -3,-3 -5,-5 -6,-5 -1,-1 -1,-1 2,-6 3,-4 10,-12 11,-13 1,-1 3,-3 5,-1z"/>
 <path class="fil6" d="M125 20c2,1 6,5 7,6 1,1 1,2 -2,5 -2,3 -12,15 -12,15 -1,0 -1,1 -4,-1 -3,-2 -5,-4 -5,-5 -1,-1 -1,-1 2,-5 3,-4 9,-12 10,-13 1,-1 3,-3 5,-1z"/>
 <path class="fil17 str0" d="M108 47c1,1 2,1 2,0 1,-1 1,-2 0,-2 -1,-1 -2,-1 -2,0 -1,1 -1,2 0,2z"/>
 <path class="fil18" d="M109 24c0,0 -24,-15 -54,-1 -31,13 -23,45 -17,61 7,16 9,4 8,0 -1,-4 -5,-14 -6,-24 0,-8 1,-28 26,-33 22,-5 41,7 41,7 0,0 8,-6 2,-9z"/>
 <path class="fil19" d="M109 27c0,0 6,-4 7,-3 1,0 5,6 5,7 0,1 -2,3 -3,3 -1,0 -5,-4 -5,-4 0,0 0,4 -3,4 -2,1 -4,0 -5,-1 0,-1 2,-5 3,-6z"/>
 <path class="fil20" d="M69 69c0,0 -10,3 -16,3 -6,1 -10,-3 -12,-5 -1,-3 -2,-18 2,-19 3,-1 26,21 26,21z"/>
 <path class="fil19" d="M64 9c3,-3 3,9 8,22 5,15 2,34 -1,37 -3,2 -16,4 -19,-2 -4,-6 -6,-23 -6,-28 0,-5 -8,-30 20,-29z"/>
 <path class="fil19" d="M72 36c0,0 2,0 5,1 2,0 0,5 -1,6 -1,1 -5,1 -5,1l0 -7z"/>
 <path class="fil20" d="M55 80c0,0 1,-5 1,-6 0,-1 -2,-5 -5,-6 -3,-1 -3,3 -4,5 -1,3 -2,6 -2,6 0,0 9,1 10,1z"/>
 <path class="fil21" d="M71 56c0,0 -5,1 -14,-7 0,0 4,6 8,8 2,1 4,0 6,-1z"/>
 <path class="fil19" d="M42 44c-1,-5 2,-13 8,-14 5,-1 3,6 1,9 -2,3 -2,8 -1,10 1,2 2,5 0,6 -3,1 -7,-5 -8,-11z"/>
 <path class="fil19" d="M119 56c0,0 -1,-4 2,-7 0,0 -6,-8 -5,-9 1,-1 3,-2 5,-2 1,0 6,7 6,7 0,0 6,4 2,9 -4,5 -9,1 -9,1z"/>
 <path class="fil18" d="M56 85c1,-3 6,-3 13,2 7,5 19,15 32,9 20,-9 15,-38 18,-40 2,-3 9,-2 11,2 2,3 -2,42 -24,49 -22,7 -53,-12 -50,-21z"/>
 <path class="fil22" d="M207 97c0,0 13,-9 15,-13 2,-4 5,-13 6,-13 1,0 9,5 11,6 1,2 -7,16 -10,19 -4,2 -11,5 -11,5 0,0 2,4 0,5 -1,1 -6,4 -8,4 -3,0 -6,-2 -6,-3 0,0 3,-10 3,-10z"/>
 <path class="fil6" d="M96 140c0,0 51,-50 109,-43 0,0 3,8 0,11 0,0 -26,-2 -52,6 -26,8 -50,40 -64,44 -14,4 -25,0 -26,-3 -1,-3 34,-15 34,-15z"/>
 <path class="fil23" d="M208 98c0,0 5,-8 5,-13 0,-5 -2,-16 -2,-16 1,0 6,-2 11,-1 0,0 6,15 3,22 -4,7 -8,11 -8,11 0,0 3,6 2,8 -1,3 -6,3 -9,2 -3,-1 -5,-6 -5,-6l2 -7z"/>
 <path class="fil6" d="M89 136c0,0 29,-29 58,-40 29,-11 56,-4 64,0 0,0 1,8 -5,11 0,0 -22,-12 -43,-6 -22,6 -66,37 -66,37 0,0 -8,3 -7,-2z"/>
 <path class="fil24" d="M203 106c0,0 -35,-22 -88,18 0,0 44,-37 88,-18z"/>
 <path class="fil25" d="M60 82c0,0 -1,-1 -2,-3 -1,-1 -9,-5 -14,-1 0,0 -1,1 -1,3 0,2 17,1 17,1z"/>
 <path class="fil18" d="M38 83c0,0 3,-4 11,-4 8,0 13,5 13,5 0,0 9,25 19,36 10,11 16,15 16,15 0,0 -1,10 -11,15 -9,5 -19,5 -19,5l-4 -3 1 3c0,0 -3,0 -6,0 -2,0 -7,-9 -12,-20 -5,-11 -13,-34 -9,-52z"/>
 <path class="fil26" d="M96 142c0,0 -6,10 -28,13l-4 -3 0 3 -5 0 6 2 0 -3 4 3c0,0 20,-3 27,-15z"/>
 <path class="fil27" d="M104 223c3,0 6,4 5,7 0,3 -5,5 -7,5 -5,0 -10,-12 2,-12z"/>
 <path class="fil28" d="M67 204c0,0 3,4 10,4 7,0 24,0 28,2 4,3 5,12 3,13 -1,1 -8,3 -10,1 -2,-2 -1,-9 -6,-10 -5,-2 -23,-3 -25,-5 -2,-2 0,-6 0,-6z"/>
 <path class="fil27" d="M30 224c3,0 6,4 6,7 0,4 -5,5 -8,5 -5,0 -10,-13 2,-13z"/>
 <path class="fil27" d="M82 224c3,0 6,4 6,8 0,4 -6,6 -9,6 -5,0 -11,-14 2,-14z"/>
 <path class="fil29" d="M58 181c0,0 1,23 -1,25 -2,2 -19,-1 -26,4 -7,5 -10,15 -8,17 2,3 9,1 11,0 2,-1 -2,-11 9,-14 11,-3 27,0 28,3 1,3 0,11 2,11 2,1 13,2 14,0 1,-2 0,-12 -5,-14 -5,-2 -13,-3 -14,-7 -1,-4 -2,-23 -1,-26 0,-3 -9,0 -9,0z"/>
 <path class="fil30" d="M31 152c9,1 24,3 31,-8 6,-11 0,-36 -8,-52 -9,-16 -19,-25 -31,-27 -12,-2 -22,15 -21,25 2,10 7,40 7,45 0,5 -1,14 22,16z"/>
 <path class="fil29" d="M49 145c6,-4 3,-17 1,-30 -2,-13 -14,-47 -34,-48 -20,-1 -18,26 -15,33 1,3 9,31 7,39 -1,5 10,10 24,10 9,0 13,-2 17,-5z"/>
 <path class="fil28" d="M32 147c8,0 10,-9 10,-14 0,-5 -6,-17 -13,-18 -7,-1 -10,1 -12,4 -4,5 -3,16 -2,21 1,4 2,8 17,8z"/>
 <path class="fil30" d="M42 155c10,1 49,0 59,3 0,0 3,8 1,10 -2,2 -34,1 -38,0 -4,-1 -30,-2 -32,-3 -2,-1 1,-10 10,-9z"/>
 <path class="fil27" d="M78 174c0,0 -4,8 -13,8 -9,0 -14,-5 -15,-8l28 0z"/>
 <path class="fil29" d="M102 166c0,0 -30,1 -40,0 -10,-1 -31,-3 -31,-3 0,0 0,9 6,11 6,2 24,3 24,3 0,0 27,0 32,-2 5,-1 10,-5 9,-9z"/>
 <path class="fil29" d="M23 139l9 0c0,0 -3,11 -3,13 0,2 2,11 12,14 0,0 -4,1 -10,0 -6,-1 -13,-8 -14,-13 0,-5 3,-11 6,-14z"/>
 <path class="fil27" d="M32 139c0,0 -8,13 -5,18 3,5 8,9 14,9l1 -2c0,0 -12,-4 -12,-9 -1,-5 5,-13 5,-13l-2 -3z"/>
 <path class="fil27" d="M91 166l-3 1c0,0 9,-19 8,-24 -1,-5 -9,-11 -41,-10l2 -3c0,0 36,2 42,6 5,4 -2,27 -8,31z"/>
 <path class="fil29" d="M53 128c0,0 39,-3 48,5 8,8 -4,34 -4,34 0,0 -2,2 -5,0 0,0 10,-16 8,-26 -2,-10 -42,-7 -45,-8 -3,-1 -4,-5 0,-5z"/>
 <path class="fil6" d="M41 62c-5,-8 -22,-29 -20,-37 3,-11 7,-13 11,-14 0,0 3,-4 4,-5 2,0 9,-2 10,-2 1,0 3,-2 3,-3l1 1 2 -2 3 2 1 -1c0,0 0,0 2,1 2,0 4,1 6,1 2,2 1,5 1,7 -4,2 -8,7 -13,6 -1,0 -3,0 -5,0 -4,6 -4,14 -3,19 -2,3 -3,7 -2,10 0,2 1,3 1,5 0,8 0,17 -2,14z"/>
 <path class="fil31" d="M37 8c2,0 3,-1 5,-1 1,0 2,0 3,-1 1,0 2,0 2,-1 1,0 2,-1 3,-2l1 1 2 -2 3 2 1 -1c0,0 1,0 1,0 1,0 2,0 3,1 1,0 2,0 3,1 1,1 0,2 0,3 -10,1 -5,4 -11,5 -7,1 -12,-2 -13,10 0,3 2,7 2,9 0,0 0,0 0,0 0,-2 -5,-4 -5,-6 0,-3 -5,-8 -2,-11 2,-2 -2,-2 0,-3l1 0 0 0c1,-1 1,-4 2,-5z"/>
 <path class="fil32" d="M59 31c-1,-1 0,-2 4,-2 3,0 4,1 4,3 -3,0 -5,-1 -8,-1z"/>
 <path class="fil33" d="M60 35c3,1 5,2 6,0 2,-3 1,-5 -4,-5 -7,0 -5,5 -3,6z"/>
 <circle class="fil34" transform="matrix(0.0921392 0.0206423 -0.0230361 0.0825646 64.0388 32.1316)" r="30"/>
 <circle class="fil35" transform="matrix(-0.0637296 0.0142776 0.0159333 0.0571072 64.5511 32.0702)" r="30"/>
 <circle class="fil35" transform="matrix(-0.0422305 0.00946104 0.0105582 0.0378421 64.5511 32.0702)" r="30"/>
 <circle class="fil33" transform="matrix(-0.0214991 0.00481653 0.00537508 0.0192651 65.6436 31.8908)" r="30"/>
 <path class="fil36" d="M58 33c0,0 2,2 6,2 1,0 1,0 1,0 -1,1 -4,0 -5,-1 0,0 0,0 0,0 0,0 0,0 0,0 -1,0 -1,-1 -1,-1z"/>
 <path class="fil37" d="M68 27c-3,4 -3,-2 -8,-1 -2,1 -2,1 -3,1 4,-5 11,0 11,0z"/>
</svg>
