<?xml version="1.0" encoding="utf-8"?>
<!-- Generator: Adobe Illustrator 16.0.0, SVG Export Plug-In . SVG Version: 6.00 Build 0)  -->
<!DOCTYPE svg PUBLIC "-//W3C//DTD SVG 1.1//EN" "http://www.w3.org/Graphics/SVG/1.1/DTD/svg11.dtd">
<svg version="1.1" id="Layer_1" xmlns="http://www.w3.org/2000/svg" xmlns:xlink="http://www.w3.org/1999/xlink" x="0px" y="0px"
	 width="50px" height="50px" viewBox="0 0 50 50" enable-background="new 0 0 50 50" xml:space="preserve">
<g>
	<g>
		<g>
			<g>
				<g>
					<path fill-rule="evenodd" clip-rule="evenodd" fill="#1854AC" d="M26.982,1.738c6.84,0,12.414,2.209,12.686,4.975
						c0.008,0.005,0.016,0.011,0.021,0.016l-0.027,9.679c-0.939-2.27-5.676-4.079-11.336-4.329c-0.969-0.064-1.809-0.02-2.712,0
						c-0.683,0.029-1.349,0.081-1.995,0.151V1.922C24.69,1.802,25.818,1.738,26.982,1.738z"/>
					<path fill-rule="evenodd" clip-rule="evenodd" fill="#1D64C2" d="M26.736,3.205c-7.976,0-14.479,2.576-14.793,5.802
						c-0.009,0.007-0.017,0.013-0.025,0.02l0.018,11.306c1.097-2.646,6.635-4.776,13.237-5.066c1.126-0.075,2.106-0.024,3.161-0.001
						c0.797,0.034,1.572,0.094,2.326,0.178V3.42C29.41,3.28,28.096,3.205,26.736,3.205z"/>
					<path fill-rule="evenodd" clip-rule="evenodd" fill="#2B7CD3" d="M26.707,4.243c-5.597,0-11.222,1.494-12.041,3.458
						l0.015,9.071c1.09-0.951,5.307-2.765,12.053-2.765c4.697,0,8.764,1.101,10.744,2.704V6.969
						C35.51,5.353,32.307,4.243,26.707,4.243z"/>
				</g>
				<g>
					<g>
						<circle fill-rule="evenodd" clip-rule="evenodd" fill="#1854AC" cx="34.802" cy="6.451" r="0.63"/>
						<path fill-rule="evenodd" clip-rule="evenodd" fill="#41FFFF" d="M34.484,6.159l-0.066,0.121
							c-4.953-1.741-12.714-0.845-17.063,0.568C22.251,5.019,30.031,4.535,34.484,6.159z"/>
						<circle fill-rule="evenodd" clip-rule="evenodd" fill="#41FFFF" cx="34.801" cy="6.451" r="0.443"/>
						<path fill-rule="evenodd" clip-rule="evenodd" fill="#FFFFFF" d="M34.766,6.227c0.125-0.02,0.242,0.064,0.262,0.188
							c0.018,0.124-0.064,0.24-0.188,0.26c-0.125,0.02-0.242-0.064-0.262-0.189C34.559,6.362,34.643,6.247,34.766,6.227z"/>
					</g>
					<g>
						<circle fill-rule="evenodd" clip-rule="evenodd" fill="#2E79CF" cx="14.319" cy="15.816" r="0.499"/>
						<path fill-rule="evenodd" clip-rule="evenodd" fill="#41FFFF" d="M14.519,15.539l0.075,0.083
							c3.997-2.223,10.829-2.892,14.804-2.561C24.887,12.503,18.1,13.497,14.519,15.539z"/>
						<circle fill-rule="evenodd" clip-rule="evenodd" fill="#41FFFF" cx="14.319" cy="15.816" r="0.35"/>
						<circle fill-rule="evenodd" clip-rule="evenodd" fill="#FFFFFF" cx="14.318" cy="15.816" r="0.18"/>
					</g>
				</g>
			</g>
			<g>
				<g>
					<path fill-rule="evenodd" clip-rule="evenodd" fill="#8AC6FF" d="M29.5,8.471c-0.396,1.233,0.234,2.805,1.484,3.363
						c2.121,0.947,3.52-1.401,2.789-3.035c-0.246,0.094-0.494,0.188-0.74,0.281c0.389,0.846-0.383,2.673-1.791,1.954
						c-0.781-0.4-1.207-1.368-0.951-2.16C30.031,8.74,29.766,8.605,29.5,8.471z"/>
					<path fill-rule="evenodd" clip-rule="evenodd" fill="#61B3FF" d="M30.662,7.221c-0.531,0.199-0.961,0.632-1.162,1.25
						c0.266,0.134,0.531,0.27,0.791,0.403c0.127-0.396,0.402-0.675,0.744-0.803C30.908,7.788,30.785,7.505,30.662,7.221z"/>
					<path fill-rule="evenodd" clip-rule="evenodd" fill="#73BBFF" d="M32.432,7.362c-0.607-0.312-1.24-0.342-1.77-0.143
						c0.123,0.285,0.246,0.569,0.373,0.852c0.34-0.128,0.748-0.109,1.137,0.091c0.391,0.2,0.695,0.542,0.867,0.933
						c0.246-0.092,0.494-0.186,0.74-0.279C33.514,8.207,33.045,7.674,32.432,7.362z"/>
				</g>
				<path fill-rule="evenodd" clip-rule="evenodd" fill="#73BBFF" d="M17.322,12.99l-0.001-0.398l2.091-0.497l0.001,0.398
					L17.322,12.99L17.322,12.99z M17.307,8.303l4.515-1.073l0.001,0.398l-4.515,1.074L17.307,8.303L17.307,8.303z M19.604,8.397
					l-2.295,0.545l0.001,0.398l2.294-0.546L19.604,8.397L19.604,8.397z M17.317,11.243l4.515-1.073l-0.006-1.662l-4.516,1.074
					L17.317,11.243L17.317,11.243z M17.32,12.082l-0.002-0.524l4.516-1.073l0.001,0.524L17.32,12.082z"/>
			</g>
		</g>
		<g>
			<path fill-rule="evenodd" clip-rule="evenodd" fill="#9C9CA8" d="M24.63,30.779l0.527-0.959l-0.13-1.629l-0.541-0.02
				c-0.356,0.438-0.73,0.934-0.769,1.373C23.644,30.371,23.956,31.102,24.63,30.779z"/>
			<g>
				<g>
					<g>
						<path fill-rule="evenodd" clip-rule="evenodd" fill="#F1B287" d="M27.969,35.098c-0.395,0.764-0.795,0.797-1.352,1.775
							c-0.677,1.189-0.626,2.891-1.255,4.248c-0.082,0.109-0.179,0.201-0.306,0.271c-0.834,0.453-0.231,0.598-0.661,1.473
							c-0.038,0.078-0.31,1.566-0.31,1.566s0.719,0.564,0.785,0.582c0.064,0.014,0.645,0.045,0.645,0.045
							c-0.008-0.092,0.017-0.293,0.015-0.373c-0.038-0.934,0.316-1.914,0.688-2.799c0.509-1.211,2.038-3.92,2.835-4.953
							C30.016,35.65,28.328,34.713,27.969,35.098z"/>
						<g>
							<path fill-rule="evenodd" clip-rule="evenodd" fill="#4A4E67" d="M25.527,44.389c0.019,0.199,0.016,0.471,0.022,0.678
								c0.009,0.268-0.002,0.438-0.026,0.637c-0.012,0.098-0.053,0.178-0.112,0.213c-0.308,0.186-1.09-0.705-1.297-1.135
								c-0.134-0.275-0.044-0.5,0.021-0.797c0.098-0.439,0.104-0.492,0.184-0.953l-0.593,1.1l-0.159,0.008
								c0.177-0.477,0.429-1.104,0.524-1.531c0.039-0.17,0.066-0.371,0.097-0.463c0.177-0.537,0.541-0.686,0.837-0.738
								c-0.22,0.281-0.208,0.891-0.377,1.578c-0.176,0.721-0.114,1.611,0.152,1.795c0.112,0.078,0.45,0.035,0.634,0.01
								C25.506,44.781,25.523,44.563,25.527,44.389z"/>
							<path fill-rule="evenodd" clip-rule="evenodd" fill="#191B26" d="M25.104,45.873c-0.358-0.193-0.834-0.77-0.989-1.092
								c-0.134-0.275-0.044-0.5,0.021-0.797c0.098-0.439,0.104-0.492,0.184-0.953l-0.593,1.1l-0.159,0.008
								c0.177-0.477,0.429-1.104,0.524-1.531c0.039-0.17,0.066-0.371,0.097-0.463c0.177-0.537,0.541-0.686,0.837-0.738
								c-0.22,0.281-0.208,0.891-0.377,1.578c-0.145,0.592-0.129,1.301,0.03,1.637C24.749,45.051,24.91,45.453,25.104,45.873z"/>
						</g>
					</g>
					<g>
						<path fill-rule="evenodd" clip-rule="evenodd" fill="#333647" d="M28.334,34.525c-0.365,0.697-0.604,0.713-1.119,1.604
							c-0.623,1.08-1.356,3.305-1.938,4.539c-0.079,0.326,0.131,1.254,1.146,1.061c0.561-1.063,2.654-4.82,3.451-5.871
							c0.496-0.563,0.717-1.09,0.607-1.619C30.367,33.641,29.191,33.076,28.334,34.525z"/>
						<path fill-rule="evenodd" clip-rule="evenodd" fill="#191B26" d="M28.334,34.525c-0.541,0.486-0.996,0.635-1.51,1.525
							c-0.625,1.08-0.947,3.188-1.529,4.42c-0.048,0.195-0.13,0.658,0.236,0.99c0.678-1.443,1.54-3.609,2.415-4.883
							c0.361-0.523,0.729-0.9,0.971-1.174c0.158-0.182,0.262-0.33,0.275-0.387c0.072-0.348,0.152-0.828-0.023-1.313
							C28.887,33.832,28.596,34.086,28.334,34.525z"/>
						<path fill-rule="evenodd" clip-rule="evenodd" fill="#4A4E67" d="M29.943,35.664c-0.32,0.066-0.453-0.213-0.602-0.248
							c-0.527,0.5-1.055,1.232-1.453,1.824c-0.094,0.287-0.102,1.09-0.008,1.607c0.24-0.383,0.531-0.871,0.693-1.137
							C29.217,36.656,29.334,36.324,29.943,35.664z"/>
					</g>
					<path fill-rule="evenodd" clip-rule="evenodd" fill="#333647" d="M26.711,27.353c-0.068,0.845-1.135,1.101-0.607,2.386
						c0.527,1.283,1.75,3.682,2.152,4.941c0.17,1.379,1.953,1.039,2.225,0.273c0.117-0.807-0.02-1.162-0.094-1.93
						c-0.174-1.734-0.432-3.996-0.789-5.503c-0.08-0.64-0.088-0.821-0.266-1.325L26.711,27.353z"/>
					<path fill-rule="evenodd" clip-rule="evenodd" fill="#122536" d="M26.711,27.353c-0.068,0.845-1.135,1.101-0.607,2.386
						c0.527,1.283,1.75,3.682,2.152,4.941c0.057,0.445,0.279,0.709,0.563,0.842c0.223-0.248,0.369-0.422,0.391-0.484
						c0.256-0.799-0.949-2.916-1.631-5.32c0.699-0.916,1.979-2.385,1.92-2.924c-0.021-0.197-0.037-0.28-0.135-0.554L26.711,27.353z"
						/>
					<path fill-rule="evenodd" clip-rule="evenodd" fill="#4A4E67" d="M27.961,29.746c0.27,0.494,1.584,5.027,1.65,5.133
						c0.16,0.262,0.781,0.363,0.834-0.557c0.01-0.199-0.914-6.074-1.006-6.438C29.055,28.283,28.447,29.096,27.961,29.746z"/>
				</g>
				<g>
					<g>
						<path fill-rule="evenodd" clip-rule="evenodd" fill="#F1B287" d="M25.111,37.617c0.052,0.855-0.278,1.086-0.256,2.207
							c0.026,1.359,0.944,2.781,1.1,4.26c-0.016,0.135-0.052,0.266-0.125,0.389c-0.489,0.816,0.107,0.625,0.184,1.592
							c0.007,0.086,0.54,1.494,0.54,1.494s0.908,0.111,0.973,0.09c0.066-0.02,0.582-0.291,0.582-0.291
							c-0.053-0.076-0.133-0.262-0.18-0.326c-0.512-0.775-0.707-1.791-0.84-2.734c-0.184-1.291-0.254-4.383-0.096-5.674l0.021-0.625
							L25.111,37.617z"/>
						<path fill-rule="evenodd" clip-rule="evenodd" fill="#4A4E67" d="M27.775,46.781c0.119,0.156,0.254,0.391,0.367,0.561
							c0.148,0.227,0.223,0.377,0.307,0.557c0.039,0.09,0.045,0.182,0.014,0.238c-0.172,0.318-1.307-0.037-1.705-0.293
							c-0.26-0.17-0.297-0.408-0.391-0.689c-0.145-0.428-0.164-0.477-0.333-0.91l0.052,1.242l-0.134,0.086
							c-0.091-0.494-0.196-1.158-0.333-1.57c-0.055-0.166-0.134-0.35-0.155-0.443c-0.121-0.549,0.115-0.863,0.346-1.057
							c-0.046,0.35,0.276,0.861,0.485,1.535c0.219,0.703,0.73,1.432,1.055,1.449c0.137,0.008,0.408-0.201,0.553-0.318
							C27.959,47.123,27.861,46.928,27.775,46.781z"/>
						<path fill-rule="evenodd" clip-rule="evenodd" fill="#191B26" d="M28.172,48.26c-0.41,0.021-1.117-0.223-1.414-0.416
							c-0.26-0.17-0.297-0.408-0.391-0.689c-0.145-0.428-0.164-0.477-0.333-0.91l0.052,1.242l-0.134,0.086
							c-0.091-0.494-0.196-1.158-0.333-1.57c-0.055-0.166-0.134-0.35-0.155-0.443c-0.121-0.549,0.115-0.863,0.346-1.057
							c-0.046,0.35,0.276,0.861,0.485,1.535c0.18,0.578,0.557,1.172,0.867,1.375C27.443,47.74,27.789,48.004,28.172,48.26z"/>
					</g>
					<path fill-rule="evenodd" clip-rule="evenodd" fill="#333647" d="M25.061,26.606c-0.18,0.702-0.851,1.149-1.097,2.401
						c-0.154,0.789-0.133,1.643,0.367,3.213c0.229,0.719,0.527,1.863,0.669,2.512c0.419,1.922,0.31,1.785-0.028,3.381
						c-0.394,1.859,0.46,3.756,0.813,5.592c0.296,0.355,1.372,0.35,1.394-0.07c-0.078-1.563-0.186-3.492-0.111-4.758
						c0.066-1.135,0.031-1.191,0.346-2.33c0.145-0.535,0.176-0.91,0.105-1.475l-0.441-5.039c0.777-0.914,1.639-1.859,2.258-2.955
						l-0.08-0.529L25.061,26.606z"/>
					<path fill-rule="evenodd" clip-rule="evenodd" fill="#191B26" d="M24.462,27.699c-0.196,0.332-0.389,0.736-0.499,1.309
						c-0.15,0.789-0.133,1.643,0.367,3.213c0.229,0.719,0.527,1.863,0.669,2.512c0.15,0.689,0.277,1.139,0.266,1.479
						c-0.02,0.539-0.317,1.379-0.435,1.936c-0.317,2.15,0.501,3.426,0.953,5.559c0.094,0.113,0.269,0.191,0.463,0.229
						c-0.032-0.248-0.056-0.436-0.067-0.506c-0.357-2.623-0.52-4.264,0.038-6.432c0.077-0.396,0.162-0.605,0.099-1.008
						c-0.231-1.463-1.571-5.826-1.2-6.961c0.901,0.025,2.565-0.109,3.768-1.735C26.768,28.326,25.526,28.164,24.462,27.699z"/>
					<path fill-rule="evenodd" clip-rule="evenodd" fill="#4A4E67" d="M25.259,29.436c0.114,0.574,1.251,6.232,1.437,6.395
						c0.158,0.135,0.664,0.293,0.813-0.264c0.08-0.311-0.143-1.82-0.152-1.926c-0.104-1.004-0.256-3.303-0.283-3.59
						c0.471-0.426,1.121-1.355,1.594-1.957C27.627,29.1,25.645,29.486,25.259,29.436z"/>
					<path fill-rule="evenodd" clip-rule="evenodd" fill="#4A4E67" d="M27.365,36.619c-0.367,0.199-0.428,0.27-0.836,0.35
						c-0.797,2.184-0.191,3.943,0.076,6.834c0.277-0.035,0.441-0.143,0.551-0.305c-0.115-1.977-0.146-2.936-0.096-4.885
						C27.09,37.547,27.057,37.545,27.365,36.619z"/>
				</g>
			</g>
			<g>
				<g>
					<path fill-rule="evenodd" clip-rule="evenodd" fill="#9C9CA8" d="M33.258,18.527c-0.002-0.061,0.018-0.1,0.041-0.126
						c0.035-0.042,0.084-0.063,0.135-0.064c0.381-0.021,0.965,0.846,0.797,0.998C34.016,19.525,33.268,18.952,33.258,18.527z"/>
					<g>
						<path fill-rule="evenodd" clip-rule="evenodd" fill="#E8A476" d="M32.363,21.303c0.111,0.001,0.26-0.026,0.4-0.121
							c1.232-0.851,1.531-2.378,2.441-3.577l0.154-0.155c-0.145-0.141-0.271-0.233-0.395-0.33c-0.029-0.035-0.061-0.063-0.1-0.079
							c-0.084-0.071-0.174-0.151-0.266-0.258c-0.158,0.334-0.305,0.6-0.535,0.933c-0.453,0.587-1.217,1.309-1.598,1.811
							C32.195,19.884,31.783,21.288,32.363,21.303z"/>
						<path fill-rule="evenodd" clip-rule="evenodd" fill="#F1B287" d="M34.287,17.376c-0.068,0.11-0.141,0.221-0.223,0.341
							c-0.453,0.587-1.217,1.309-1.598,1.811c-0.176,0.229-0.406,0.889-0.398,1.337c0.842-1.051,1.504-1.91,2.295-3.075
							C34.316,17.62,34.301,17.529,34.287,17.376z"/>
						<path fill-rule="evenodd" clip-rule="evenodd" fill="#DB9669" d="M32.363,21.303c0.111,0.001,0.26-0.026,0.4-0.121
							c1.469-1.014,1.676-2.795,2.498-3.614l0.098-0.118l-0.346-0.245c-0.027-0.067-0.07-0.118-0.121-0.15l-0.023,0.046l-0.309-0.22
							l-0.129,0.227c-0.07,0.223,0.016,0.471,0.107,0.613c-0.398,0.723-0.74,1.212-1.355,2.003L32.363,21.303z"/>
						<path fill-rule="evenodd" clip-rule="evenodd" fill="#E8A476" d="M36.074,16.276l-0.377-0.581l-0.285,0.317
							c0.008-0.092,0.025-0.35,0.039-0.607c0.018-0.323,0.086-0.603-0.127-0.613c-0.189-0.01-0.209,0.215-0.238,0.501
							c-0.043,0.406-0.094,0.669-0.145,0.86c-0.063,0.238-0.223,0.394-0.295,0.528c-0.1,0.177-0.156,0.343-0.164,0.49
							c-0.012,0.198,0.064,0.359,0.189,0.463c0.113,0.094,0.227,0.053,0.398,0.069c0.279,0.024,0.363-0.048,0.453-0.113
							C35.682,17.475,35.957,16.47,36.074,16.276z"/>
						<path fill-rule="evenodd" clip-rule="evenodd" fill="#DB9669" d="M36.271,16.4l-0.574-0.706l-0.285,0.317
							c0.008-0.092,0.025-0.35,0.039-0.607c0.018-0.313,0.08-0.583-0.109-0.612c0.119,0.137,0.033,0.927-0.01,1.241
							c-0.035,0.263-0.035,0.46-0.152,0.742c-0.143,0.343-0.215,0.479-0.074,0.616c0.113,0.112,0.201,0.023,0.375,0.138l0.053,0.051
							C35.832,17.239,35.791,16.789,36.271,16.4z"/>
						<path fill-rule="evenodd" clip-rule="evenodd" fill="#E8A476" d="M34.482,17.179c0.008-0.141,0.012-0.444,0.082-0.663
							c0.025-0.081,0.248-0.233,0.467-0.602c0.314,0.223,0.006,0.456-0.078,0.775c-0.035,0.135,0.111,0.485-0.102,0.706
							C34.699,17.55,34.49,17.387,34.482,17.179z"/>
						<path fill-rule="evenodd" clip-rule="evenodd" fill="#DB9669" d="M34.762,16.627c0.025-0.079,0.389-0.421,0.27-0.713
							c0.314,0.223-0.021,0.492-0.137,0.766c-0.053,0.13,0.17,0.495-0.043,0.715C34.938,16.954,34.76,16.64,34.762,16.627z"/>
						<path fill-rule="evenodd" clip-rule="evenodd" fill="#DB9669" d="M35.721,15.69c0.006-0.001,0.006-0.021,0.043-0.022
							c0.107-0.003,0.346,0.014,0.49,0.016c0.191,0.002,0.197,0.02,0.256,0.157l0.07,0.275c0.045,0.18,0.027,0.166-0.037,0.355
							c-0.041,0.11-0.084,0.18-0.145,0.202c-0.039,0.015-0.52,0.045-0.572,0.019c-0.029-0.013,0.201-0.196,0.182-0.452
							C35.988,16.004,35.719,15.691,35.721,15.69z"/>
						<path fill-rule="evenodd" clip-rule="evenodd" fill="#E8A476" d="M35.695,15.686c0.043-0.029,0.131-0.017,0.166-0.006
							c0.051,0.019,0.104,0.157,0.15,0.301c0.064,0.21,0.109,0.261,0.047,0.469c-0.063,0.208-0.145,0.296-0.295,0.224
							c-0.055-0.028-0.012-0.133-0.023-0.37l-0.078-0.148c-0.074,0.004-0.268,0.207-0.404,0.349
							c-0.061,0.02-0.033-0.377,0.059-0.543C35.434,15.87,35.574,15.773,35.695,15.686z"/>
						<path fill-rule="evenodd" clip-rule="evenodd" fill="#F1B287" d="M35.324,14.864c-0.074-0.095-0.137,0.081-0.141,0.118
							l-0.105,0.835l0.145,0.201c0.117-0.195,0.094-0.328,0.109-0.556C35.375,15.299,35.398,14.96,35.324,14.864z"/>
						<path fill-rule="evenodd" clip-rule="evenodd" fill="#F1B287" d="M36.031,16.313c-0.076,0.271-0.125,0.332-0.188,0.321
							c-0.059-0.011-0.08-0.241-0.025-0.407c-0.072-0.084-0.094-0.11-0.145-0.209c-0.15,0.15-0.301,0.272-0.457,0.415
							c-0.072,0.224-0.115,0.425-0.234,0.649c-0.061-0.387,0.023-0.461,0.141-0.663c0.037-0.072,0.096-0.296,0.15-0.341
							c0.158-0.132,0.391-0.324,0.479-0.34C35.869,15.714,35.885,15.82,36.031,16.313z"/>
						<path fill-rule="evenodd" clip-rule="evenodd" fill="#E8A476" d="M35.977,15.725c0.131,0.259,0.189,0.396,0.188,0.541
							c-0.006,0.111-0.049,0.228-0.129,0.408c0.127-0.005,0.244-0.017,0.367-0.029c0.092-0.173,0.137-0.268,0.145-0.369
							c0.014-0.152-0.07-0.332-0.104-0.413c-0.033-0.082-0.066-0.104-0.137-0.12C36.215,15.723,36.078,15.726,35.977,15.725z"/>
						<path fill-rule="evenodd" clip-rule="evenodd" fill="#F1B287" d="M35.016,16.001c-0.078,0.127-0.23,0.294-0.369,0.451
							c-0.061,0.067-0.086,0.204-0.104,0.346c-0.035,0.334-0.025,0.68,0.213,0.802c0.031,0.018,0.162,0.013,0.295,0.02
							c0.107,0.004,0.211,0.02,0.246,0.016c0.057-0.007,0.111-0.027,0.172-0.063c-0.176-0.107-0.32,0.002-0.469-0.199
							c-0.084,0.068-0.186,0.112-0.186-0.043c0-0.138-0.002-0.286-0.023-0.413c-0.031-0.189-0.119-0.224-0.045-0.391
							C34.869,16.391,35.027,16.271,35.016,16.001z"/>
					</g>
				</g>
				<path fill-rule="evenodd" clip-rule="evenodd" fill="#C4C4CC" d="M32.021,20.239c0.477,0.275,0.365,1.702-0.463,1.547
					c-1.145-0.534-2.461-0.897-3.15-1.391c-0.813-0.583-1.199-1.231-1.012-1.505c0.326-0.476,0.279-0.713,0.754-0.671
					C29.24,18.32,31.043,19.758,32.021,20.239z"/>
				<path fill-rule="evenodd" clip-rule="evenodd" fill="#ADADB3" d="M31.748,21.9c-1.076-0.5-2.65-1.011-3.34-1.505
					c-0.813-0.583-1.199-1.231-1.012-1.505c0.258-0.376,0.309-0.778,0.797-0.654c0.322,0.086,0.406,1.302,1.695,2.067
					c0.766,0.452,0.768,0.322,1.949,0.789C32.039,21.07,32.631,21.973,31.748,21.9z"/>
				<path fill-rule="evenodd" clip-rule="evenodd" fill="#C4C4CC" d="M31.789,20.124c0.445-0.429,0.908-0.953,1.156-1.239
					c-0.063,0.441,0.555,1.208,0.867,1.185c-0.467,0.684-0.99,1.183-1.361,1.535c-0.352,0.333-0.453,0.185-0.584,0.042
					L31.789,20.124z"/>
				<path fill-rule="evenodd" clip-rule="evenodd" fill="#ADADB3" d="M33.205,19.609c0.191,0.264,0.439,0.474,0.607,0.46
					c-0.494,0.727-1.047,1.243-1.426,1.598c-0.189,0.18-0.434,0.291-0.617,0.25c-0.182-0.042-0.348-0.143-0.451-0.295
					c0.135-0.108-0.209-0.752,0.121-0.66C32.076,21.14,32.824,20.124,33.205,19.609z"/>
				<g>
					<path fill-rule="evenodd" clip-rule="evenodd" fill="#9C9CA8" d="M33.576,20.41c0.236-0.322,0.41-0.631,0.615-1.02
						c-0.447-0.048-0.967-0.485-0.967-0.908c-0.129,0.183-0.215,0.299-0.338,0.471C32.891,19.408,33.174,20.06,33.576,20.41z"/>
					<path fill-rule="evenodd" clip-rule="evenodd" fill="#E8E8F7" d="M33.814,20.241c0.158-0.227,0.359-0.662,0.416-0.907
						c-0.465-0.169-0.955-0.628-0.959-0.893c-0.119,0.037-0.242,0.187-0.363,0.343C33.111,19.407,33.418,19.903,33.814,20.241z"/>
				</g>
				<path fill-rule="evenodd" clip-rule="evenodd" fill="#E8E8F7" d="M28.523,18.304c0.652,1.092,1.1,1.414,2.184,2.013
					c0.262,0.143,0.615,0.286,0.896,0.37c0.174,0.054,0.139,0.035,0.281-0.062c0.371-0.251,0.631-0.668,0.98-1.042
					c-0.08-0.196-0.074-0.316-0.092-0.494c-0.18,0.175-0.922,0.961-0.967,1.038C31.332,19.811,29.275,18.479,28.523,18.304z"/>
			</g>
			<g>
				<path fill-rule="evenodd" clip-rule="evenodd" fill="#592F00" d="M24.884,14.98c-0.658,2.059-0.432,4.405-1.124,5.873
					c0,0,2.771-2.034,2.819-2.065c0.049-0.031,0.117-1.084,0.117-1.084l-1.019-1.377L24.884,14.98z"/>
				<g>
					<path fill-rule="evenodd" clip-rule="evenodd" fill="#E8A476" d="M28.184,22.423c-0.313,0.158-0.617,0.622-1.109,0.891
						c-0.324,0.18-1.019,0.291-1.512-0.295c-0.089-0.266-0.158-0.521-0.169-0.781c-0.045-1.002-0.184-1.538-0.752-2.344
						c0.356-0.194,0.719-0.401,0.916-0.615l2.248-1.226l0.717,0.189c0.236,0.676,0.354,1.031,0.799,1.683
						c0.258,0.376,0.359,0.811,0.254,1.271C29.406,21.905,28.75,22.135,28.184,22.423z"/>
					<path fill-rule="evenodd" clip-rule="evenodd" fill="#C4C4CC" d="M24.984,23.985c0.978,2.323-0.548,2.351-0.603,4.515
						c0.193-0.291-0.013,0.143-0.019,0.313c-0.034,0.947,0.383,1.477,0.967,1.684c0.487,0.174,1.147,0.111,1.627-0.064
						c1.094-0.402,2.836-1.352,3.057-2.074c-0.014-0.307-0.973-3.125-1.006-3.916c-0.031-0.675,0.26-0.937,0.24-1.706
						c-0.006-0.229-0.066-0.702-0.088-0.908c-0.07-0.702-0.141-1.09-0.221-1.704c-0.102-0.79-0.195-1.463-0.297-1.78
						c-0.027-0.115-0.09-0.223-0.154-0.315c-0.207-0.299-0.584-0.451-1.238-0.176c-0.096,0.04-0.213,0.087-0.344,0.142l0.498,0.048
						c0.393,0.649,0.336,1.334,0.6,1.785c0.201,0.343,0.23,0.57,0.225,0.864l-0.035,1.548c-0.262-1.049-1.018-1.596-0.994-1.844
						c0.023-0.239-0.58-0.336-0.77-0.401l-0.907-1.278l0.154-0.167c-0.161,0.081-0.25,0.026-0.329,0.11
						c-0.211,0.223-0.404,0.364-0.727,0.574c-0.16,0.102-0.333,0.196-0.491,0.279c-0.411,0.213-0.558,0.664-0.591,1.02
						C23.444,21.561,24.596,23.065,24.984,23.985z"/>
					<path fill-rule="evenodd" clip-rule="evenodd" fill="#ADADB3" d="M27.074,23.895c0.531-0.199,0.803-0.454,1.025-0.682
						c0.191-0.193,0.27-0.227,0.379-0.281c0.26-0.125,0.523-0.253,0.76-0.361c-0.008-0.14-0.051-0.468-0.07-0.703
						c-0.23,0.192-0.467,0.313-0.715,0.425c-0.084,0.039-0.17,0.063-0.26,0.109c-0.055,0.028-0.16,0.123-0.26,0.21
						c-0.232,0.209-0.504,0.506-0.859,0.7c-0.154,0.085-0.441,0.16-0.706,0.146c-0.716-0.104-0.945-0.537-0.976-1.222
						c-0.045-0.995-0.177-1.527-0.747-2.337c-0.057-0.074-0.243-0.278-0.404-0.448c-0.553,0.219-0.803,0.507-0.839,0.892
						c-0.096,1.027,1.194,2.721,1.582,3.641c0.605,1.439-0.152,2.284-0.736,3.357c-0.358,0.661-0.574,1.606-0.542,2.435
						c0.08-0.902,0.602-1.277,0.597-1.111c-0.033,0.967,0.404,1.633,1.012,1.822c-0.117-1.551,0.386-2.584,0.713-3.52
						c0.298-0.852,0.165-1.391,0.129-2.102c-0.012-0.213,0.044-0.417,0.219-0.625C26.529,24.055,26.852,23.978,27.074,23.895z"/>
					<path fill-rule="evenodd" clip-rule="evenodd" fill="#9C9CA8" d="M25.53,22.203c-0.299-0.433-0.384-0.785-0.482-1.139
						c-0.08-0.29-0.19-0.607-0.362-0.853c-0.33-0.475-1.211-0.535-1.284,0.133c-0.113,1.026,1.194,2.721,1.582,3.641
						c0.199,0.474,0.256,0.874,0.225,1.233C26.223,24.64,25.991,22.87,25.53,22.203z"/>
					<g>
						<path fill-rule="evenodd" clip-rule="evenodd" fill="#E8A476" d="M25.591,18.676c-0.104,0.912,1.667,1.243,1.952,0.66
							c0.031-0.634,0.072-1.092,0.428-1.781l-1.693-0.668L25.849,16.7C26.067,17.594,25.899,17.907,25.591,18.676z"/>
						<path fill-rule="evenodd" clip-rule="evenodd" fill="#DB9669" d="M25.591,18.658c-0.002,0.008-0.004,0.024-0.002,0.031
							c0.782-0.846,1.485-0.276,2.063-0.306c0.016-0.043,0.201-0.583,0.219-0.62c0.053-0.149,0.074-0.129,0.145-0.32l-1.752-0.686
							l-0.43-0.188C26.053,17.466,25.899,17.89,25.591,18.658z"/>
					</g>
					<path fill-rule="evenodd" clip-rule="evenodd" fill="#C4C4CC" d="M27.381,23.088c-0.939,0.699-1.934,0.359-1.988-0.851
						c-0.045-1.002-0.184-1.538-0.752-2.344c0.356-0.194,0.719-0.401,0.916-0.615l0.263-0.143l0.61,0.859l0.736,0.16
						c0.049,0.081,0.047,0.205,0.041,0.256c-0.057,0.616-0.086,1.172-0.086,1.701C27.119,22.511,27.244,22.792,27.381,23.088
						L27.381,23.088z M27.768,18.58l0.037-0.527l0.717,0.189c0.236,0.676,0.377,1.029,0.822,1.68
						c0.256,0.374,0.361,0.81,0.254,1.269c-0.107,0.456-0.428,0.716-0.791,0.919c-0.041-0.569-0.123-1.057-0.266-1.557
						C28.348,19.876,28.33,19.54,27.768,18.58z"/>
					<path fill-rule="evenodd" clip-rule="evenodd" fill="#B5B5BF" d="M27.543,19.329c0.168,0.229,0.24,0.392,0.385,0.637
						c0.176,0.035,0.258,0.206,0.307,0.752c0.115-0.313,0.107-0.63-0.014-0.934c0.232-0.236,0.273-0.255,0.568-0.406
						c-0.209-0.816-0.617-1.273-1.006-1.369c-0.088,0.257-0.156,0.449-0.184,0.649C27.57,18.857,27.545,19.05,27.543,19.329z"/>
					<path fill-rule="evenodd" clip-rule="evenodd" fill="#9C9CA8" d="M27.928,19.966c0.156-0.111,0.365-0.499,0.801-0.605
						c-0.209-0.815-0.586-1.149-0.975-1.246c-0.092,0.258-0.127,0.344-0.154,0.543C27.594,18.691,27.91,19.935,27.928,19.966z"/>
					<path fill-rule="evenodd" clip-rule="evenodd" fill="#B5B5BF" d="M27.104,20.065c0.184,0.227,0.096,0.486-0.002,0.607
						c-0.168,0.215-0.525,0.232-0.851,0.423c-0.693-0.591-1.29-1.42-1.112-2.125c0.067-0.264,0.361-0.53,0.642-0.758
						c-0.077,0.178-0.133,0.259-0.144,0.395C25.582,19.348,26.316,19.597,27.104,20.065z"/>
					<path fill-rule="evenodd" clip-rule="evenodd" fill="#9C9CA8" d="M27.104,20.065c0.078,0.096,0.105,0.198,0.109,0.292
						c-0.09-0.201-0.742,0.541-0.996,0.652c-0.495-0.57-1.008-1.554-0.884-2.155c0.055-0.267,0.167-0.414,0.448-0.642
						c-0.077,0.178-0.133,0.259-0.144,0.395C25.582,19.348,26.316,19.597,27.104,20.065z"/>
					<path fill-rule="evenodd" clip-rule="evenodd" fill="#C4C4CC" d="M25.708,18.313c-0.447,0.532,1.065,1.132,1.47,1.854
						c-0.41,0.043-0.785,0.376-0.961,0.756C25.684,20.017,24.844,18.876,25.708,18.313z"/>
					<path fill-rule="evenodd" clip-rule="evenodd" fill="#E8E8F7" d="M27.178,20.167c-0.41,0.043-0.785,0.376-0.961,0.756
						c-0.341-0.581-0.808-1.256-0.874-1.816C25.729,20.003,26.343,20.009,27.178,20.167z"/>
					<path fill-rule="evenodd" clip-rule="evenodd" fill="#C4C4CC" d="M27.6,18.656c0.088,0.134,0.402,0.886,0.377,1.243
						c0.193-0.375,0.428-0.504,0.721-0.577c-0.211-0.562-0.576-1.169-0.93-1.256C27.688,18.247,27.635,18.459,27.6,18.656z"/>
					<path fill-rule="evenodd" clip-rule="evenodd" fill="#E8E8F7" d="M27.977,19.899c0.193-0.375,0.428-0.504,0.721-0.577
						c-0.211-0.562-0.57-1.168-0.924-1.256C28.543,18.759,28.012,19.403,27.977,19.899z"/>
					<path fill-rule="evenodd" clip-rule="evenodd" fill="#E8E8F7" d="M24.49,19.475c0.013,0.115,0.854,1.136,1.042,2.012
						c0.098,0.455,0.044,1.034,0.181,1.387c0.206,0.523,0.937,0.472,1.292,0.299c0.184-0.088,0.891-0.734,1.053-0.81
						c-0.164-0.59-0.484-1.168-0.787-1.572c-0.17,0.139-0.875,0.514-1.096,0.515c-0.113,0.001-1.051-1.03-1.212-2.121
						C24.827,19.185,24.698,19.254,24.49,19.475z"/>
					<path fill-rule="evenodd" clip-rule="evenodd" fill="#E8E8F7" d="M28.877,19.456c0.65,0.837,0.756,1.505,0.467,2
						c-0.092,0.164-0.549,0.48-0.938,0.667c0.021-0.844,0.137-1.7,0.066-2.35C28.672,19.703,28.818,19.582,28.877,19.456z"/>
					<path fill-rule="evenodd" clip-rule="evenodd" fill="#E8E8F7" d="M29.225,22.874c-0.266,0.187-0.445,0.262-0.75,0.378
						c-0.17,0.055-0.223,0.145-0.318,0.239c-0.467,0.41-0.635,0.441-1.195,0.712c-0.443,0.161-0.618,0.47-0.606,0.939
						c0.014,0.456,0.042,0.895,0.005,1.281c-0.066,0.701-0.366,1.382-0.554,2.081c-0.261,0.98-0.313,1.463-0.195,1.703
						c0.052,0.107,0.513,0.107,1.081-0.025c0.908-0.217,2.715-1.195,3.168-1.922c-0.096-1.011-0.766-2.682-0.861-3.955
						C28.975,23.972,29.191,23.562,29.225,22.874z"/>
				</g>
				<g>
					<g>
						<g>
							<path fill-rule="evenodd" clip-rule="evenodd" fill="#7D4900" d="M27.926,17.996c0.779,0.825,0.797,2.489,0.309,3.848
								c0.047-0.917,0.078-2.35-0.639-2.933C27.639,18.77,27.738,17.997,27.926,17.996z"/>
							<path fill-rule="evenodd" clip-rule="evenodd" fill="#592F00" d="M28.234,21.753c-0.074-0.866-0.064-2.156-0.662-2.873
								c0.041-0.336,0.094-0.53,0.164-0.732C28.436,19.453,28.4,20.999,28.234,21.753z"/>
						</g>
						<g>
							<path fill-rule="evenodd" clip-rule="evenodd" fill="#7D4900" d="M28.197,16.555l-0.758-0.407l0.209-1.302l0.529-0.959
								C29.195,14.437,28.803,16.425,28.197,16.555z"/>
							<path fill-rule="evenodd" clip-rule="evenodd" fill="#7D4900" d="M25.687,17.891c-0.711-0.412-1.04-1.776-0.894-2.62
								c0.062-0.361,0.245-0.843,0.471-1.169c0.314-0.457,0.86-0.725,1.669-0.614c0.24,0.033-0.482,0.134-0.191,0.313l-0.566,2.12
								C26.1,16.943,26.172,16.987,25.687,17.891z"/>
							<path fill-rule="evenodd" clip-rule="evenodd" fill="#F1B287" d="M27.514,18.123c-0.943-0.329-1.244-0.771-1.519-1.698
								c-0.419-0.245-0.606-0.459-0.666-0.707c-0.14-0.59,0.141-1.268,0.565-1.662c0.37-0.346,0.822-0.475,1.35-0.409
								c1.021,0.125,1.441,0.748,1.574,1.61c0.025,0.167-0.045,0.528-0.082,0.7c-0.066,0.289,0.061,0.203,0.07,0.492
								c0.002,0.126-0.061,0.581-0.201,1.081c-0.086,0.289-0.082,0.58-0.223,0.635C28.238,18.222,27.941,18.273,27.514,18.123z"/>
							<path fill-rule="evenodd" clip-rule="evenodd" fill="#E8A476" d="M27.514,18.123c-0.945-0.33-1.244-0.771-1.519-1.698
								c-0.419-0.245-0.606-0.459-0.666-0.707c-0.14-0.59,0.141-1.268,0.565-1.662c0.37-0.346,0.822-0.475,1.35-0.409
								c0.641,0.077,1.168,0.499,1.387,0.948c-0.182,0.58-0.994,1.202-1.33,1.378c-0.209,0.11-0.275,0.153-0.301,0.316
								c-0.051,0.342,0.344,0.342,0.359,0.503c0.018,0.164-0.395,0.208-0.281,0.646c0.031,0.122,0.344,0.566,0.494,0.704
								C27.553,18.138,27.531,18.13,27.514,18.123z"/>
							<path fill-rule="evenodd" clip-rule="evenodd" fill="#7D4900" d="M28.672,14.445c-1.023,1.749-2.654,1.854-2.702,2.257
								c-0.038,0.311-0.595-0.287-0.717-0.583c-0.334-0.809-0.053-1.825,0.69-2.35C26.875,13.113,28.318,13.599,28.672,14.445z"/>
							<path fill-rule="evenodd" clip-rule="evenodd" fill="#592F00" d="M25.971,17.289c-0.857-0.604-1.251-1.483-1.079-2.334
								c0,0.019,0,0.038,0.001,0.057c0.104-0.27,0.261-0.648,0.55-0.774c-0.211,0.236-0.462,0.765-0.434,1.192
								c0.088-0.426,0.237-0.606,0.547-0.978c-0.194,0.393-0.253,0.569-0.341,1.037c0.114-0.308,0.435-0.766,0.634-0.864
								c-0.229,0.229-0.441,0.672-0.396,1.198c0.076-0.402,0.391-0.932,0.698-1.053c-0.158,0.165-0.386,0.574-0.38,0.834
								c0.196-0.316,0.202-0.385,0.556-0.676c-0.177,0.245-0.254,0.47-0.326,0.735c0.16-0.212,0.289-0.409,0.498-0.642
								c-0.09,0.165-0.33,0.721-0.322,0.901c0.064-0.102,0.619-0.501,0.859-0.656c-0.25,0.33-0.531,0.681-0.775,0.828
								c-0.035,0.058,0.932-0.273,2.063-1.223c-0.594,0.826-1.426,1.082-2.191,1.6l-0.027,0.371
								C26.096,16.961,26.039,17.191,25.971,17.289z"/>
							<g>
								<path fill-rule="evenodd" clip-rule="evenodd" fill="#E8A476" d="M25.882,15.805c-0.387-0.157-0.414,0.299-0.369,0.579
									c0.033,0.193,0.189,0.186,0.238,0.339c0.058,0.182,0.192,0.273,0.312,0.276c0.24,0.007,0.109-0.358,0.09-0.501
									C26.192,16.267,26.128,15.903,25.882,15.805z"/>
								<path fill-rule="evenodd" clip-rule="evenodd" fill="#DB9669" d="M26.023,16.352c-0.074-0.19-0.098-0.433-0.367-0.419
									C25.889,15.965,25.93,16.179,26.023,16.352z"/>
							</g>
							<path fill-rule="evenodd" clip-rule="evenodd" fill="#592F00" d="M24.83,15.132c-0.21,0.536-0.145,1.96,0.872,2.981
								c0.091-0.083,0.296-0.646,0.306-0.889C25.019,16.228,25.24,16.627,24.83,15.132z"/>
							<path fill-rule="evenodd" clip-rule="evenodd" fill="#A6640E" d="M28.592,14.508c-0.033-0.53-0.805-1.026-1.725-1.029
								c-0.426-0.038-1.049,0.045-1.366,0.395c0.432-0.235,0.803-0.309,1.315-0.305c-0.297,0.031-0.954,0.193-1.254,0.628
								c0.37-0.337,0.838-0.507,1.286-0.504c-0.479,0.118-0.602,0.239-0.901,0.531c0.34-0.206,0.688-0.387,1.067-0.432
								c-0.352,0.137-0.494,0.253-0.729,0.583c0.418-0.291,0.449-0.412,0.965-0.472c-0.18,0.106-0.578,0.371-0.783,0.633
								c0.342-0.196,0.645-0.343,1.006-0.472c-0.23,0.169-0.518,0.399-0.662,0.59c0.293-0.177,0.531-0.345,0.957-0.467
								c-0.387,0.26-0.66,0.456-0.957,0.814c0.32-0.221,0.594-0.425,1.078-0.659c-0.262,0.272-0.438,0.427-0.697,0.699
								c0.318-0.149,0.758-0.462,1.059-0.693c-0.225,0.24-0.895,0.915-1.168,1.134c0.309-0.166,1.08-0.787,1.309-1.007
								c-0.113,0.277-0.371,0.557-0.654,0.775C28.072,15.093,28.348,14.813,28.592,14.508z"/>
						</g>
					</g>
					<g>
						<g>
							<g>
								<path fill-rule="evenodd" clip-rule="evenodd" fill="#E8E8F7" d="M29.744,16.437c-0.078,0.421-0.18,0.6-0.512,0.841
									c-0.285,0.207-0.969,0.574-1.32,0.666c-0.088,0.024-0.176,0.038-0.26,0.038c-0.482,0-0.76-0.368-0.965-0.767
									C27.543,18.328,29.232,17.246,29.744,16.437z"/>
								<path fill-rule="evenodd" clip-rule="evenodd" fill="#8D8D99" d="M29.742,16.438c-0.076,0.407-0.193,0.581-0.525,0.817
									c-0.285,0.201-0.953,0.563-1.301,0.651c-0.092,0.023-0.18,0.037-0.262,0.037c-0.484-0.001-0.762-0.362-0.967-0.751
									C27.543,18.277,29.23,17.226,29.742,16.438z"/>
							</g>
							<path fill-rule="evenodd" clip-rule="evenodd" fill="#160004" d="M26.543,16.892c-0.135-0.171-0.436-0.55-0.38-0.771
								c0.022-0.088,0.12-0.138,0.356-0.139c0.32-0.001,0.803,0.173,1.277-0.021l-1.141,1.157L26.543,16.892z"/>
							<path fill-rule="evenodd" clip-rule="evenodd" fill="#242736" d="M29.719,15.358c0.031,0.047,0.053,0.095,0.063,0.148
								c0.039,0.206,0.031,0.582-0.035,0.912c-0.08,0.407-0.189,0.573-0.521,0.808c-0.285,0.201-0.961,0.566-1.313,0.655
								c-0.088,0.022-0.176,0.035-0.26,0.035c-0.482,0-0.77-0.352-0.975-0.739c-0.082-0.156-0.205-0.479-0.135-0.641
								c0.033-0.079,0.131-0.13,0.301-0.035c0.441,0.247,1.104,0.035,1.73-0.286C29.262,15.863,29.564,15.709,29.719,15.358z"/>
							<path fill-rule="evenodd" clip-rule="evenodd" fill="#191B26" d="M29.719,15.358c0.031,0.047,0.053,0.095,0.063,0.148
								c0.004,0.022,0.008,0.046,0.012,0.074c0.014,0.121-0.004,0.205-0.078,0.307c-0.236,0.321-0.834,0.686-1.322,0.928
								c-0.266,0.133-0.404,0.198-0.486,0.317c-0.125,0.192-0.102,0.392-0.066,0.601c0.008,0.05,0.021,0.105,0.037,0.156
								c-0.076,0.017-0.152,0.026-0.225,0.026c-0.234,0-0.422-0.082-0.578-0.212c0.018-0.305-0.008-0.779-0.381-0.951
								c-0.057-0.027-0.109-0.012-0.135,0.125c-0.035-0.164-0.037-0.291-0.016-0.342c0.033-0.079,0.131-0.13,0.301-0.035
								c0.441,0.247,1.104,0.035,1.73-0.286C29.262,15.863,29.564,15.709,29.719,15.358z"/>
							<path fill-rule="evenodd" clip-rule="evenodd" d="M29.719,15.358c0.031,0.047,0.053,0.095,0.063,0.148
								c0.086,0.453-1.189,0.995-1.512,1.156c-0.266,0.133-0.496,0.218-0.576,0.334c-0.211,0.298-0.1,0.612,0.043,0.915
								c-0.027,0.002-0.057,0.004-0.084,0.004c-0.166,0-0.311-0.042-0.436-0.113c0.061-0.257-0.008-0.626-0.078-0.77
								c-0.09-0.179-0.293-0.314-0.436-0.373c-0.053-0.021-0.15-0.019-0.141,0.205c-0.033-0.164-0.041-0.279-0.02-0.33
								c0.033-0.079,0.131-0.13,0.301-0.035c0.441,0.247,1.104,0.035,1.73-0.286C29.262,15.863,29.564,15.709,29.719,15.358z"/>
							<path fill-rule="evenodd" clip-rule="evenodd" fill="#160004" d="M29.184,15.741c-0.424,0.274-0.885,0.504-1.357,0.646
								c-0.217,0.064-0.461,0.09-0.625,0.067c-0.227-0.031-0.35-0.116-0.518-0.087c-0.221,0.037-0.158,0.366-0.115,0.503
								c-0.02-0.107-0.016-0.193,0.025-0.232c0.037-0.034,0.105-0.025,0.16,0.009c0.133,0.083,0.232,0.156,0.359,0.192
								c0.266,0.076,0.559,0.044,0.875-0.072c0.402-0.149,0.992-0.447,1.363-0.695c0.166-0.111,0.506-0.333,0.424-0.579
								c-0.012-0.024-0.025-0.051-0.041-0.076C29.521,15.205,29.629,15.456,29.184,15.741z"/>
							<path fill-rule="evenodd" clip-rule="evenodd" d="M28.787,14.974c0.186,0.025,0.344,0.018,0.582,0.122l0.064,0.051
								l0.137,0.139l-0.018,0.16l-0.777,0.645l-1.393,0.454c-0.244-0.099-0.408-0.154-0.633-0.294
								c-0.271-0.166-0.432-0.224-0.539-0.203c0.054-0.042,0.148-0.064,0.309-0.065c0.32-0.003,0.609-0.007,1.084-0.201
								c0.273-0.112,1.059-0.409,1.15-0.563C28.809,15.132,28.818,15.112,28.787,14.974z"/>
							<path fill-rule="evenodd" clip-rule="evenodd" fill="#333647" d="M28.787,14.974c0.158,0.021,0.299,0.019,0.48,0.083
								c-0.033,0.249-0.723,0.576-1.086,0.747c-0.414,0.193-0.824,0.323-1.182,0.391c-0.078,0.016-0.182,0.025-0.293,0.029
								c-0.246-0.146-0.396-0.197-0.496-0.177c0.054-0.042,0.148-0.064,0.309-0.065c0.32-0.003,0.609-0.007,1.084-0.201
								c0.273-0.112,1.059-0.409,1.15-0.563C28.809,15.132,28.818,15.112,28.787,14.974z"/>
							<path fill-rule="evenodd" clip-rule="evenodd" fill="#E8E8F7" d="M29.322,15.083c0.143,0.074,0.209,0.162,0.197,0.248
								c-0.01,0.129-0.158,0.235-0.344,0.353c-0.426,0.273-0.885,0.504-1.357,0.645c-0.219,0.066-0.461,0.091-0.625,0.069
								c-0.227-0.031-0.352-0.129-0.52-0.087c-0.316,0.077-0.113,0.645,0.01,0.872c-0.111-0.242-0.176-0.504-0.09-0.583
								c0.037-0.035,0.098-0.044,0.152-0.009c0.131,0.083,0.23,0.154,0.359,0.192c0.264,0.077,0.557,0.044,0.875-0.072
								c0.398-0.149,0.992-0.447,1.361-0.695c0.168-0.113,0.504-0.333,0.422-0.578c-0.043-0.13-0.223-0.275-0.438-0.358
								L29.322,15.083z"/>
							<path fill-rule="evenodd" clip-rule="evenodd" fill="#C4C4CC" d="M29.322,15.083c0.143,0.074,0.209,0.162,0.197,0.248
								c-0.01,0.129-0.158,0.235-0.344,0.353c-0.426,0.273-0.885,0.504-1.357,0.645c-0.219,0.066-0.461,0.091-0.625,0.069
								c-0.227-0.031-0.352-0.129-0.52-0.087c-0.084,0.02-0.131,0.075-0.152,0.15c0.121-0.119,0.225-0.108,0.387-0.038
								c0.111,0.047,0.191,0.109,0.213,0.198c0.012,0.051-0.025,0.07-0.057,0.063c-0.094-0.02-0.254-0.119-0.303-0.138
								c-0.076-0.031-0.15-0.009-0.176,0.063c0.002-0.003,0.006-0.005,0.008-0.008c0.037-0.035,0.098-0.044,0.152-0.009
								c0.131,0.083,0.23,0.154,0.359,0.192c0.264,0.077,0.557,0.044,0.875-0.072c0.398-0.149,0.992-0.447,1.361-0.695
								c0.115-0.078,0.314-0.208,0.398-0.361c-0.248,0.305-1.367,0.869-1.965,1.044c-0.082,0.024-0.254,0.082-0.244-0.063
								c0.006-0.087,0.064-0.075,0.221-0.123c0.557-0.179,1.182-0.458,1.633-0.84c0.195-0.165,0.271-0.351,0.059-0.539
								c-0.037-0.021-0.074-0.038-0.117-0.054L29.322,15.083z"/>
							<path fill-rule="evenodd" clip-rule="evenodd" fill="#9C9CA8" d="M29.322,15.083c0.143,0.074,0.209,0.162,0.197,0.248
								c-0.01,0.129-0.158,0.235-0.344,0.353c-0.426,0.273-0.885,0.504-1.357,0.645c-0.219,0.066-0.461,0.091-0.625,0.069
								c-0.227-0.031-0.348-0.121-0.516-0.081c-0.084,0.021-0.131,0.068-0.152,0.144c0.088-0.141,0.223-0.133,0.385-0.063
								c0.143,0.062,0.291,0.088,0.313,0.233c0.016,0.115-0.045,0.154-0.146,0.118c-0.102-0.037-0.246-0.126-0.287-0.157
								c-0.074-0.05-0.156-0.043-0.203,0.016c0.002-0.003,0.006-0.005,0.008-0.008c0.037-0.035,0.098-0.044,0.152-0.009
								c0.131,0.083,0.23,0.154,0.359,0.192c0.264,0.077,0.557,0.044,0.875-0.072c0.398-0.149,0.992-0.447,1.361-0.695
								c0.115-0.078,0.314-0.208,0.398-0.361c-0.197,0.308-1.371,0.922-1.973,1.08c-0.184,0.048-0.373,0.054-0.359-0.091
								c0.006-0.087,0.049-0.134,0.254-0.184c0.361-0.086,0.791-0.27,1.141-0.456c0.166-0.091,0.422-0.239,0.568-0.363
								c0.195-0.166,0.285-0.319,0.072-0.507c-0.037-0.021-0.074-0.038-0.117-0.054L29.322,15.083z"/>
							<path fill-rule="evenodd" clip-rule="evenodd" fill="#E8E8F7" d="M29.322,15.083c0.143,0.074,0.209,0.162,0.197,0.248
								c-0.01,0.129-0.158,0.235-0.344,0.353c-0.426,0.273-0.885,0.504-1.357,0.645c-0.219,0.066-0.461,0.091-0.625,0.069
								c-0.227-0.031-0.352-0.129-0.52-0.087c-0.162,0.039-0.188,0.208-0.156,0.394c-0.02-0.164,0.018-0.33,0.152-0.366
								c0.127-0.037,0.229,0.031,0.375,0.075c0.078,0.023,0.199,0.037,0.283,0.037c0.152,0.001,0.344-0.025,0.512-0.077
								c0.473-0.141,0.934-0.373,1.357-0.645c0.186-0.119,0.355-0.239,0.365-0.369c0.008-0.068-0.023-0.164-0.127-0.232
								c-0.035-0.018-0.072-0.033-0.109-0.048L29.322,15.083z"/>
							<path fill-rule="evenodd" clip-rule="evenodd" fill="#333647" d="M29.758,15.93c-0.037,0.334-0.781,0.729-1.301,0.991
								c-0.232,0.115-0.354,0.178-0.424,0.283c-0.109,0.167-0.078,0.406-0.049,0.587c0.523-0.199,1.256-0.582,1.494-0.875
								C29.715,16.627,29.754,16.203,29.758,15.93z"/>
							<path fill-rule="evenodd" clip-rule="evenodd" fill="#4A4E67" d="M29.758,15.93c-0.016,0.904-1.709,1.433-1.773,1.861
								c0.523-0.199,1.256-0.582,1.494-0.875C29.715,16.627,29.754,16.203,29.758,15.93z"/>
							<path fill-rule="evenodd" clip-rule="evenodd" fill="#4A4E67" d="M26.699,16.869c0.094,0.024,0.191,0.142,0.242,0.306
								c0.047,0.144,0.072,0.288,0.088,0.433c-0.07-0.078-0.156-0.196-0.232-0.324C26.773,17.245,26.553,16.83,26.699,16.869z"/>
						</g>
						<g>
							<g>
								<polygon fill-rule="evenodd" clip-rule="evenodd" fill="#83BD53" points="25.692,15.392 25.692,15.392 25.685,15.393 
																	"/>
								<path fill-rule="evenodd" clip-rule="evenodd" fill="#242736" d="M25.511,15.45c0.148-0.074,0.288-0.087,0.451-0.013
									c0.268,0.122,0.479,0.454,0.558,0.662c0.053,0.142,0.086,0.305,0.078,0.451c-0.01,0.243-0.113,0.436-0.307,0.504
									L25.511,15.45z"/>
								<path fill-rule="evenodd" clip-rule="evenodd" fill="#7BBB50" d="M25.819,15.715c0.274,0.187,0.478,0.606,0.452,0.936
									c-0.024,0.33-0.268,0.447-0.543,0.259c-0.275-0.187-0.478-0.606-0.454-0.937C25.3,15.644,25.544,15.528,25.819,15.715z"/>
								<path fill-rule="evenodd" clip-rule="evenodd" d="M25.465,15.465c0.133-0.078,0.313-0.059,0.491,0.062
									c0.095,0.064,0.179,0.147,0.253,0.243c0.08,0.106,0.146,0.225,0.197,0.347c0.066,0.17,0.107,0.344,0.092,0.541
									c-0.016,0.198-0.088,0.339-0.207,0.397c-0.076,0.035-0.146,0.047-0.217,0.042c-0.279-0.015-0.625-0.369-0.778-0.782
									C25.173,15.981,25.173,15.633,25.465,15.465z"/>
								<path fill-rule="evenodd" clip-rule="evenodd" fill="#C4C4CC" d="M25.657,16.015c-0.141-0.157-0.345-0.294-0.524-0.205
									c0.091-0.045,0.312-0.186,0.441-0.183c0.078,0.005,0.121,0.019,0.19,0.054c0.057,0.038,0.098,0.062,0.15,0.108
									c0.216,0.195,0.38,0.567,0.359,0.858c-0.022,0.286-0.219,0.451-0.499,0.479c0.213-0.141,0.196-0.451,0.104-0.715
									C25.819,16.24,25.722,16.087,25.657,16.015z"/>
								<path fill-rule="evenodd" clip-rule="evenodd" fill="#9C9CA8" d="M26.215,16.858c-0.08,0.157-0.239,0.248-0.44,0.268
									c0.05-0.034,0.087-0.076,0.114-0.125c0.055-0.062,0.088-0.15,0.097-0.268c0.063-0.048,0.193-0.118,0.26-0.156
									C26.253,16.67,26.242,16.766,26.215,16.858z"/>
								<path fill-rule="evenodd" clip-rule="evenodd" fill="#E8E8F7" d="M25.657,16.015c-0.141-0.157-0.345-0.294-0.524-0.205
									c0.128-0.063,0.157-0.033,0.302-0.034l0.25-0.108c-0.045-0.022-0.111-0.039-0.188-0.031c0.026-0.008,0.055-0.01,0.076-0.009
									c0.078,0.005,0.121,0.019,0.19,0.054c0.057,0.038,0.098,0.062,0.15,0.108c0.216,0.195,0.38,0.567,0.359,0.858
									c-0.004-0.221-0.105-0.545-0.304-0.748l-0.27,0.108c0.209,0.24,0.335,0.709,0.22,0.917c0.046-0.152,0.019-0.342-0.042-0.514
									C25.819,16.24,25.722,16.087,25.657,16.015z"/>
								<path fill-rule="evenodd" clip-rule="evenodd" fill="#8D8D99" d="M25.036,15.893c0.068-0.087,0.149-0.12,0.259-0.106
									c0,0,0.003,0.002,0.004,0.002c0.134,0.024,0.251,0.107,0.342,0.206c0.075,0.069,0.18,0.244,0.22,0.344
									c0.06,0.127,0.098,0.304,0.09,0.444c0,0.008,0,0.016,0,0.022c-0.004,0.042-0.01,0.078-0.018,0.11
									c-0.044,0.171-0.153,0.236-0.271,0.234C25.55,17.148,25.429,17.086,25.33,17c-0.531-0.459,0.467-0.802-0.347-0.59
									c-0.008-0.044-0.018-0.089-0.021-0.133c-0.001-0.005-0.001-0.009-0.001-0.013C24.949,16.147,24.961,15.989,25.036,15.893z"
									/>
								<path fill-rule="evenodd" clip-rule="evenodd" fill="#B5B5BF" d="M25.417,16.012c0.227,0.154,0.393,0.499,0.373,0.77
									c-0.021,0.271-0.221,0.366-0.447,0.212c-0.227-0.153-0.393-0.498-0.373-0.769C24.992,15.954,25.192,15.859,25.417,16.012z"
									/>
								<path fill-rule="evenodd" clip-rule="evenodd" fill="#333647" d="M25.827,15.497c0.12,0.056,0.237,0.146,0.339,0.269
									c0.178,0.223,0.305,0.527,0.297,0.763c0,0.104-0.049,0.161-0.09,0.159c-0.027-0.001-0.045-0.024-0.053-0.145
									c-0.02-0.325-0.238-0.774-0.591-0.928C25.547,15.537,25.722,15.447,25.827,15.497z"/>
								<path fill-rule="evenodd" clip-rule="evenodd" fill="#4A4E67" d="M25.947,15.576c0.181,0.136,0.267,0.289,0.333,0.513
									c-0.078-0.151-0.282-0.335-0.422-0.445c-0.038-0.029-0.121-0.107-0.115-0.115C25.759,15.506,25.912,15.549,25.947,15.576z"
									/>
							</g>
							<g>
								<path fill-rule="evenodd" clip-rule="evenodd" fill="#242736" d="M28.211,13.877c-0.014-0.201-0.113-0.407-0.24-0.521
									c-0.197-0.18-0.498-0.201-0.826-0.084c0.063,0.003,0.402-0.144,0.66,0.388C27.92,13.702,28.096,13.79,28.211,13.877z"/>
								<path fill-rule="evenodd" clip-rule="evenodd" fill="#242736" d="M27.918,13.168c-0.234-0.134-0.51-0.114-0.76-0.025
									c-0.471,0.168-0.896,0.609-1.143,0.964c-0.176,0.253-0.321,0.538-0.418,0.821c-0.091,0.263-0.15,0.54-0.149,0.817
									l-0.259-0.15c0-0.234,0.042-0.479,0.112-0.707c0.098-0.318,0.25-0.628,0.439-0.905c0.266-0.392,0.773-0.915,1.316-1.036
									C27.443,12.861,27.596,12.981,27.918,13.168z"/>
								<path fill-rule="evenodd" clip-rule="evenodd" fill="#333647" d="M26.016,14.107c-0.103,0.146-0.192,0.302-0.27,0.463
									c-0.039,0.081-0.075,0.163-0.107,0.244c-0.116,0.295-0.192,0.614-0.191,0.931c-0.022-0.307-0.003-0.567,0.052-0.767
									l-0.123-0.052c-0.105,0.187-0.134,0.282-0.188,0.669c0-0.234,0.042-0.479,0.112-0.707c0.022-0.068,0.046-0.138,0.071-0.205
									c0.031-0.081,0.066-0.161,0.104-0.239c0.075-0.161,0.165-0.315,0.264-0.461l-0.119,0.325l0.135,0.065L26.016,14.107z"/>
								<path fill-rule="evenodd" clip-rule="evenodd" fill="#4A4E67" d="M26.016,14.107c-0.103,0.146-0.192,0.302-0.27,0.463
									c-0.039,0.081-0.075,0.163-0.107,0.244c-0.116,0.295-0.192,0.614-0.191,0.931c-0.022-0.307,0.08-0.721,0.137-0.922
									l-0.186-0.093c-0.102,0.271-0.144,0.34-0.209,0.865c0-0.234,0.042-0.479,0.112-0.707c0.022-0.068,0.046-0.138,0.071-0.205
									c0.031-0.081,0.066-0.161,0.104-0.239c0.075-0.161,0.165-0.315,0.264-0.461l-0.217,0.447l0.169,0.082L26.016,14.107z"/>
								<path fill-rule="evenodd" clip-rule="evenodd" d="M26.875,13.282l0.029-0.017c0.754-0.434,1.373-0.113,1.426,0.709
									c-0.045-0.041-0.09-0.074-0.119-0.097c-0.115-0.631-0.664-0.862-1.307-0.492L26.875,13.4
									c-0.73,0.421-1.325,1.446-1.324,2.285l0.001,0.948c-0.017,0.186-0.107,0.22-0.192,0.218l0.069-0.193l0.019-0.914
									C25.447,14.841,26.086,13.735,26.875,13.282z"/>
								<polygon fill-rule="evenodd" clip-rule="evenodd" fill="#8D8D99" points="26.085,14.058 26.176,14.152 25.789,13.925 
									25.698,13.832 								"/>
								<path fill-rule="evenodd" clip-rule="evenodd" fill="#C4C4CC" d="M26.085,14.058l-0.387-0.226
									c0.194-0.267,0.419-0.516,0.693-0.704c0.297-0.205,0.691-0.392,1.059-0.284l0.389,0.225
									c-0.338-0.065-0.66,0.034-0.941,0.208C26.57,13.478,26.307,13.746,26.085,14.058z"/>
								<path fill-rule="evenodd" clip-rule="evenodd" fill="#B5B5BF" d="M27.139,12.817c0.104-0.01,0.207-0.003,0.311,0.027
									l0.375,0.217c-0.271-0.06-0.453-0.066-0.674,0.008l-0.256-0.148C26.988,12.866,27.066,12.837,27.139,12.817z"/>
								<path fill-rule="evenodd" clip-rule="evenodd" fill="#E8E8F7" d="M26.436,13.569l-0.294-0.18
									c-0.083,0.04-0.308,0.279-0.444,0.442c0.108-0.149,0.228-0.293,0.359-0.425c0.194-0.187,0.572-0.513,1.018-0.583
									c-0.145,0.038-0.391,0.149-0.629,0.319l0.299,0.183c0.225-0.13,0.451-0.282,0.723-0.278
									c-0.197,0.031-0.396,0.121-0.57,0.228c-0.32,0.197-0.58,0.456-0.799,0.763C26.218,13.839,26.364,13.656,26.436,13.569z"/>
								<path fill-rule="evenodd" clip-rule="evenodd" fill="#9C9CA8" d="M26.936,13.254l0.029-0.018
									c0.316-0.183,0.617-0.24,0.873-0.168l-0.094,0.197c-0.229-0.064-0.496-0.014-0.779,0.15l-0.029,0.016
									c-0.273,0.159-0.539,0.407-0.76,0.72l-0.091-0.094C26.334,13.709,26.627,13.43,26.936,13.254z"/>
								<path fill-rule="evenodd" clip-rule="evenodd" fill="#242736" d="M25.448,15.745v0.913c0.001,0.201-0.072,0.225-0.136,0.177
									c-0.065-0.051-0.122-0.183-0.122-0.321l-0.001-0.919L25.448,15.745z"/>
								<path fill-rule="evenodd" clip-rule="evenodd" fill="#B5B5BF" d="M26.038,13.523c0.089,0.048,0.183,0.089,0.261,0.153
									c-0.082,0.13-0.145,0.242-0.217,0.378l-0.383-0.22C25.822,13.709,25.9,13.634,26.038,13.523z"/>
							</g>
						</g>
					</g>
				</g>
			</g>
			<g>
				<g>
					<g>
						<path fill-rule="evenodd" clip-rule="evenodd" fill="#9C9CA8" d="M29.732,21.476c0.029-0.059,0.064-0.087,0.098-0.102
							c0.057-0.021,0.111-0.019,0.16,0.003c0.371,0.167,0.514,1.188,0.279,1.249C29.973,22.704,29.533,21.884,29.732,21.476z"/>
						<g>
							<path fill-rule="evenodd" clip-rule="evenodd" fill="#E8A476" d="M31.371,21.652c-0.119,0.06-0.154,0.114-0.35,0.243
								c-0.795,0.617-1.566,1.503-2.924,1.684c-0.178,0.022-0.295,0.007-0.4-0.05c-0.545-0.295,0.529-1.428,0.961-1.639
								c0.156-0.077,0.34-0.121,0.545-0.201c0.662-0.264,1.502-0.583,1.99-0.858L31.371,21.652z"/>
							<path fill-rule="evenodd" clip-rule="evenodd" fill="#DB9669" d="M31.371,21.652c-0.119,0.06-0.154,0.114-0.35,0.243
								c-0.795,0.617-1.566,1.517-2.924,1.695c-0.178,0.024-0.295-0.005-0.4-0.062c-0.105-0.059-0.152-0.149-0.152-0.257
								c0.627-0.155,1.16-0.387,2.078-0.927c0.66-0.386,1.324-0.849,1.67-1.07L31.371,21.652z"/>
							<path fill-rule="evenodd" clip-rule="evenodd" fill="#DB9669" d="M33.131,20.102c-0.027,0.17-0.064,0.258-0.119,0.319
								c-0.125,0.14-0.156,0.196-0.283,0.297c-0.121,0.098-0.27,0.48-0.441,0.527c-0.004-0.039,0.006-0.114,0.025-0.262
								c0.023-0.167,0.09-0.334,0.137-0.518l0.314-0.786c0.283,0.025,0.283,0.035,0.42-0.005c0.184-0.055,0.24-0.04,0.416-0.098
								c0.207-0.068,0.248,0.015,0.271,0.096C33.945,19.954,33.354,19.905,33.131,20.102z"/>
							<path fill-rule="evenodd" clip-rule="evenodd" fill="#E8A476" d="M32.898,18.916c-0.266,0.223-0.436,0.551-0.648,0.839
								c-0.346,0.473-0.721,0.911-1.201,1.157l0.047,0.928c0.305-0.235,0.643-0.49,0.887-0.587c0.082-0.052,0.166,0.004,0.258,0.004
								c0.045-0.001,0.092-0.015,0.146-0.061c0.063-0.052,0.158-0.235,0.256-0.378c0.051,0.008,0.148,0,0.262,0.013
								c0.279,0.035,0.604,0.157,0.623,0.002c0.018-0.147-0.166-0.221-0.502-0.279c-0.188-0.034-0.379-0.088-0.346-0.204
								c0.029-0.115,0.432-0.098,0.639-0.085c0.08,0.022,0.502,0.145,0.605,0.127c0.094-0.016,0.215-0.098,0.172-0.216
								c-0.037-0.105-0.271-0.16-0.488-0.22c-0.154-0.043-0.375-0.073-0.662-0.114c-0.09-0.012-0.086-0.105-0.002-0.17
								c0.043-0.033,0.16-0.06,0.184-0.062c0.201-0.016,0.629-0.031,0.791-0.055c0.172-0.041,0.213-0.094,0.209-0.176
								c-0.012-0.233-0.527-0.119-1.016-0.119c-0.115,0,0.002-0.146,0.008-0.148c0.143-0.077,0.266-0.11,0.449-0.2
								c0.211-0.104,0.283-0.172,0.262-0.257c-0.027-0.096-0.262-0.014-0.525,0.068C33.152,18.772,32.998,18.833,32.898,18.916z"/>
							<path fill-rule="evenodd" clip-rule="evenodd" fill="#E8A476" d="M33.082,19.256c-0.064-0.024,0.031-0.141,0.037-0.144
								c0.143-0.077,0.266-0.11,0.449-0.2c0.197-0.098,0.275-0.163,0.266-0.243c-0.098,0.098-0.289,0.184-0.467,0.244
								c-0.176,0.058-0.268,0.094-0.328,0.148c-0.084,0.07-0.088,0.111-0.195,0.287C32.912,19.29,32.977,19.268,33.082,19.256z"/>
							<path fill-rule="evenodd" clip-rule="evenodd" fill="#DB9669" d="M30.998,21.475l-0.141,0.543
								c0.285-0.202,0.838-0.632,1.1-0.762c0.072-0.043,0.172-0.008,0.264-0.003c-0.014-0.188-0.049-0.276,0.076-0.356
								c0.066-0.044,0.156-0.093,0.314-0.082c0.053,0.008,0.152,0,0.264,0.015c0.178,0.021,0.467,0.115,0.598,0.071
								c0.025-0.008,0.039-0.021,0.049-0.042c-0.107,0.064-0.465-0.059-0.633-0.09c-0.164-0.03-0.357-0.031-0.51-0.021
								c-0.27,0.019-0.457,0.063-0.668,0.257C31.484,21.211,31.037,21.43,30.998,21.475z"/>
						</g>
					</g>
					<path fill-rule="evenodd" clip-rule="evenodd" fill="#F1B287" d="M29.672,21.495c-0.018,0.161,0.016,0.398,0.041,0.554
						c0.209-0.089,1.701-0.99,1.832-1.094c0.223-0.174,0.434-0.304,0.883-0.308c0.27-0.002,0.551,0.065,0.563,0
						c0.008-0.05-0.045-0.106-0.248-0.125c-0.168-0.013-0.27-0.038-0.318-0.076c-0.141-0.108-0.01-0.25,0.17-0.32
						c0.203-0.081,0.35-0.082,0.48-0.075c0.059,0.002,0.24,0.018,0.26-0.053c0.014-0.045-0.033-0.073-0.1-0.09
						c-0.113-0.031-0.281-0.032-0.318-0.032c-0.297,0.005-0.316-0.013-0.273-0.173c0.059-0.214,0.326-0.264,0.582-0.283
						c0.229-0.017,0.256-0.043,0.256-0.078c-0.004-0.077-0.023-0.078-0.283-0.078c-0.258,0.027-0.281,0.068-0.367,0.101
						c-0.076,0.027-0.012-0.169,0.123-0.316c0.164-0.176,0.357-0.18,0.33-0.254c-0.027-0.072-0.26,0.004-0.449,0.21
						c-0.324,0.357-0.418,0.607-0.738,1.022c-0.168,0.214-0.414,0.455-0.66,0.642C31.309,20.763,30.859,21.058,29.672,21.495z"/>
				</g>
				<g>
					<g>
						<g>
							<path fill-rule="evenodd" clip-rule="evenodd" fill="#C4C4CC" d="M23.641,21.069c0.472,0.815,1.639,1.706,2.589,2.406
								c0.484,0.355,0.887,0.6,1.299,0.321c0.391-0.266,0.289-0.867-0.016-1.241c-0.361-0.444-0.721-0.334-1.922-1.748
								c-0.616-0.726-1.385-1.134-1.916-0.836C23.39,20.132,23.409,20.667,23.641,21.069z"/>
							<path fill-rule="evenodd" clip-rule="evenodd" fill="#B5B5BF" d="M23.512,21.025c0.421,0.997,1.698,1.792,2.71,2.467
								c0.5,0.333,0.895,0.582,1.307,0.303c0.275-0.187,0.307-0.538,0.195-0.86c-0.137,0.124-0.275,0.242-0.424,0.351
								c-0.127,0.097-0.156-0.743-0.436-0.962c-0.221,0.154-0.469,0.377-0.562,0.473c-1.06-0.834-2.056-1.672-2.695-2.763
								C23.37,20.211,23.355,20.652,23.512,21.025z"/>
						</g>
						<path fill-rule="evenodd" clip-rule="evenodd" fill="#E8E8F7" d="M23.673,20.009c1.162-0.319,1.472,1.001,3.034,2.137
							c-0.15,0.199-0.328,0.322-0.461,0.481C25.158,21.625,24.735,21.325,23.673,20.009z"/>
					</g>
					<g>
						<path fill-rule="evenodd" clip-rule="evenodd" fill="#C4C4CC" d="M27.104,22.376c0.697-0.155,1.725-0.536,2.201-0.732
							c-0.254,0.366-0.057,1.329,0.234,1.45c-0.725,0.397-1.42,0.604-1.912,0.749c-0.463,0.137-0.865,0.062-1.016-0.482
							C26.482,22.891,26.662,22.536,27.104,22.376z"/>
						<path fill-rule="evenodd" clip-rule="evenodd" fill="#B5B5BF" d="M29.209,22.408c0.047,0.322,0.176,0.623,0.33,0.686
							c-0.771,0.422-1.498,0.631-1.996,0.775c-0.25,0.072-0.52,0.061-0.662-0.059c-0.145-0.12-0.246-0.284-0.27-0.468
							C27.15,23.297,28.301,23.147,29.209,22.408z"/>
						<g>
							<path fill-rule="evenodd" clip-rule="evenodd" fill="#9C9CA8" d="M29.168,23.283c0.395-0.183,0.656-0.371,1.02-0.622
								c-0.379-0.247-0.643-0.873-0.451-1.249c-0.197,0.104-0.326,0.17-0.516,0.266C29.02,22.086,28.969,22.79,29.168,23.283z"/>
							<path fill-rule="evenodd" clip-rule="evenodd" fill="#E8E8F7" d="M29.463,23.247c0.244-0.13,0.668-0.436,0.832-0.629
								c-0.371,0.035-0.549-0.809-0.527-1.097c0.004-0.044,0.01-0.098,0.045-0.127c0.018-0.015,0.047-0.029,0.096-0.034
								c-0.129-0.002-0.422,0.085-0.609,0.187C29.076,22.059,29.264,22.767,29.463,23.247z"/>
						</g>
						<path fill-rule="evenodd" clip-rule="evenodd" fill="#E8E8F7" d="M26.703,23.262c-0.109-0.314,0.158-0.707,0.445-0.781
							c0.604-0.157,1.314-0.382,1.912-0.637c-0.063,0.24-0.08,0.349-0.096,0.597C28.404,22.827,27.514,23.129,26.703,23.262z"/>
					</g>
				</g>
			</g>
		</g>
		<g>
			<path opacity="0.5" fill-rule="evenodd" clip-rule="evenodd" fill="#41FFFF" d="M24.372,26.555
				c5.903,0,11.835-1.495,12.698-3.458l-0.016-9.071c-1.15,0.951-5.596,2.763-12.71,2.763c-4.954,0-9.242-1.1-11.329-2.704v9.744
				C15.092,25.444,18.471,26.555,24.372,26.555z"/>
			<path opacity="0.5" fill-rule="evenodd" clip-rule="evenodd" fill="#459EF2" d="M24.102,27.626
				c8.412,0,15.266-2.575,15.598-5.801c0.012-0.006,0.02-0.013,0.027-0.02L39.709,10.5c-1.158,2.646-6.998,4.775-13.958,5.065
				c-1.188,0.075-2.222,0.024-3.333,0.001c-0.839-0.034-1.66-0.094-2.453-0.178v12.023C21.282,27.551,22.669,27.626,24.102,27.626z"
				/>
			<g>
				<g>
					<circle fill-rule="evenodd" clip-rule="evenodd" fill="#2E79CF" cx="35.333" cy="14.917" r="0.541"/>
					<circle fill-rule="evenodd" clip-rule="evenodd" fill="#41FFFF" cx="35.333" cy="14.917" r="0.38"/>
					<path fill-rule="evenodd" clip-rule="evenodd" fill="#FFFFFF" d="M35.332,15.112c0.107,0,0.197-0.087,0.197-0.195
						c-0.004-0.108-0.09-0.194-0.197-0.194c-0.109,0-0.195,0.089-0.195,0.196C35.139,15.026,35.225,15.113,35.332,15.112z"/>
				</g>
				<g>
					<path fill-rule="evenodd" clip-rule="evenodd" fill="#2E79CF" d="M30.969,19.825c0.297-0.001,0.537-0.244,0.535-0.542
						c0-0.298-0.244-0.54-0.541-0.539c-0.301,0.003-0.539,0.246-0.539,0.545C30.426,19.586,30.67,19.827,30.969,19.825z"/>
					<path fill-rule="evenodd" clip-rule="evenodd" fill="#41FFFF" d="M30.965,19.665c0.209,0,0.381-0.172,0.379-0.381
						c0-0.209-0.172-0.378-0.381-0.377c-0.209,0-0.379,0.171-0.379,0.381C30.588,19.497,30.756,19.666,30.965,19.665z"/>
					<circle fill-rule="evenodd" clip-rule="evenodd" fill="#FFFFFF" cx="30.964" cy="19.285" r="0.195"/>
				</g>
				<g>
					<circle fill-rule="evenodd" clip-rule="evenodd" fill="#2E79CF" cx="26.696" cy="17.274" r="0.541"/>
					<circle fill-rule="evenodd" clip-rule="evenodd" fill="#41FFFF" cx="26.697" cy="17.274" r="0.38"/>
					<path fill-rule="evenodd" clip-rule="evenodd" fill="#FFFFFF" d="M26.697,17.468c0.107,0,0.195-0.087,0.195-0.195
						c-0.002-0.107-0.088-0.195-0.197-0.194c-0.105,0-0.193,0.087-0.193,0.196C26.504,17.383,26.592,17.47,26.697,17.468z"/>
				</g>
				<g>
					<circle fill-rule="evenodd" clip-rule="evenodd" fill="#2E79CF" cx="23.683" cy="18.335" r="0.541"/>
					<circle fill-rule="evenodd" clip-rule="evenodd" fill="#41FFFF" cx="23.683" cy="18.335" r="0.38"/>
					<circle fill-rule="evenodd" clip-rule="evenodd" fill="#FFFFFF" cx="23.683" cy="18.335" r="0.194"/>
				</g>
				<path fill-rule="evenodd" clip-rule="evenodd" fill="#FFFFFF" d="M20.882,16.716c0.492,0.56,1.037,1.006,1.618,1.296
					c0.545,0.271,1.123,0.404,1.719,0.361c0.687-0.048,1.115-0.358,1.494-0.636c0.335-0.241,0.632-0.458,1.035-0.436
					c0.582,0.032,1.158,0.473,1.766,0.936c0.699,0.534,1.436,1.096,2.271,1.104c1.277,0.011,1.98-1.234,2.643-2.408
					c0.273-0.485,0.541-0.96,0.84-1.324c0.594-0.726,1.314-1.011,2.473-0.063l0.043-0.055c-1.201-0.983-1.949-0.684-2.572,0.074
					c-0.299,0.367-0.568,0.845-0.844,1.333c-0.652,1.156-1.346,2.382-2.582,2.371c-0.813-0.006-1.539-0.562-2.229-1.089
					c-0.615-0.47-1.201-0.916-1.805-0.949c-0.428-0.024-0.734,0.198-1.079,0.449c-0.373,0.271-0.792,0.576-1.458,0.623
					c-0.585,0.042-1.149-0.088-1.684-0.354c-0.574-0.286-1.11-0.727-1.596-1.278L20.882,16.716z"/>
			</g>
		</g>
	</g>
</g>
</svg>
