<?xml version="1.0" encoding="utf-8"?>
<!-- Generator: Adobe Illustrator 16.0.0, SVG Export Plug-In . SVG Version: 6.00 Build 0)  -->
<!DOCTYPE svg PUBLIC "-//W3C//DTD SVG 1.1//EN" "http://www.w3.org/Graphics/SVG/1.1/DTD/svg11.dtd">
<svg version="1.1" id="Layer_1" xmlns="http://www.w3.org/2000/svg" xmlns:xlink="http://www.w3.org/1999/xlink" x="0px" y="0px"
	 width="20px" height="20px" viewBox="0 0 20 20" enable-background="new 0 0 20 20" xml:space="preserve">
<g>
	<polygon fill-rule="evenodd" clip-rule="evenodd" fill="#34485C" points="13.48,1.123 12.458,0.534 12.427,0.523 12.392,0.516 
		12.356,0.509 12.321,0.508 12.285,0.509 12.248,0.512 12.21,0.518 12.172,0.528 12.132,0.538 12.091,0.552 12.049,0.57 
		12.007,0.588 11.964,0.612 6.37,3.846 6.328,3.873 6.285,3.901 6.243,3.931 6.203,3.963 6.162,3.998 6.124,4.034 6.085,4.072 
		6.047,4.113 6.01,4.155 5.976,4.197 5.942,4.244 5.908,4.29 5.875,4.338 5.845,4.387 5.815,4.436 5.785,4.488 5.758,4.538 
		5.732,4.591 5.708,4.645 5.684,4.7 5.664,4.752 5.644,4.806 5.625,4.863 5.609,4.917 5.595,4.974 5.583,5.028 5.571,5.083 
		5.561,5.141 5.555,5.196 5.549,5.248 5.545,5.305 5.545,5.357 5.549,18.241 5.55,18.294 5.553,18.346 5.559,18.395 5.565,18.439 
		5.575,18.484 5.587,18.525 5.599,18.564 5.613,18.605 5.631,18.641 5.647,18.678 5.668,18.71 5.69,18.734 5.712,18.766 
		5.738,18.79 5.762,18.811 6.786,19.403 6.759,19.38 6.734,19.355 6.713,19.327 6.691,19.299 6.671,19.266 6.652,19.23 
		6.636,19.195 6.62,19.157 6.608,19.112 6.596,19.073 6.588,19.028 6.58,18.984 6.576,18.936 6.571,18.883 6.569,18.831 
		6.566,5.946 6.568,5.894 6.569,5.839 6.576,5.785 6.582,5.728 6.591,5.674 6.604,5.62 6.616,5.563 6.632,5.508 6.648,5.452 
		6.664,5.397 6.685,5.343 6.707,5.288 6.729,5.234 6.753,5.182 6.779,5.129 6.807,5.077 6.836,5.026 6.866,4.976 6.896,4.928 
		6.931,4.879 6.964,4.833 6.997,4.788 7.034,4.746 7.069,4.704 7.108,4.663 7.145,4.625 7.185,4.589 7.225,4.552 7.265,4.52 
		7.306,4.49 7.348,4.461 7.39,4.436 12.986,1.204 13.029,1.18 13.071,1.159 13.111,1.142 13.152,1.127 13.192,1.117 13.232,1.109 
		13.269,1.103 13.307,1.099 13.345,1.099 13.38,1.101 13.412,1.104 13.446,1.115 	"/>
	<path fill-rule="evenodd" clip-rule="evenodd" fill="#3D566E" d="M7.397,19.387l5.596-3.232c0.453-0.264,0.822-0.942,0.822-1.511
		L13.812,1.76c0-0.571-0.371-0.819-0.825-0.556L7.39,4.436C6.937,4.7,6.566,5.377,6.566,5.946l0.003,12.885
		C6.569,19.4,6.941,19.65,7.397,19.387z"/>
	<path fill-rule="evenodd" clip-rule="evenodd" fill="#9DD6F5" d="M9.613,4.962l3.521-2.035c0.165-0.095,0.301-0.035,0.338,0.135
		c0.006,0.014,0.01,0.033,0.01,0.053V3.14v0.021l0.005,10.048v0.021v0.025c0,0.021-0.005,0.041-0.011,0.065
		c-0.038,0.213-0.175,0.431-0.339,0.526l-4.738,2.738c-0.006,0.004-0.013,0.006-0.019,0.012l-1.134,0.654
		c-0.163,0.094-0.301,0.032-0.336-0.136c-0.009-0.016-0.01-0.034-0.01-0.053v-0.028v-0.019L6.896,6.967v-0.02V6.92
		c0-0.022,0.004-0.044,0.01-0.066c0.038-0.21,0.173-0.43,0.337-0.525l2.37-1.37V4.962z"/>
	<path fill-rule="evenodd" clip-rule="evenodd" fill="#2C3E50" d="M10.743,3.543c0.301-0.174,0.301-0.676-0.002-0.502l-1.105,0.64
		c-0.3,0.173-0.3,0.678,0,0.504L10.743,3.543z"/>
	<path fill-rule="evenodd" clip-rule="evenodd" fill="#2C3E50" d="M10.743,3.592c0.127-0.073,0.21-0.2,0.246-0.321
		c0.015-0.047,0.021-0.091,0.021-0.133s-0.006-0.079-0.021-0.109c-0.036-0.079-0.119-0.111-0.248-0.036L9.636,3.632
		c-0.127,0.075-0.21,0.2-0.246,0.321C9.375,4,9.368,4.046,9.368,4.086c0,0.042,0.008,0.079,0.022,0.111
		c0.036,0.079,0.119,0.109,0.246,0.036L10.743,3.592L10.743,3.592z M10.911,3.28c-0.024,0.08-0.082,0.165-0.168,0.215l-1.107,0.64
		C9.547,4.187,9.49,4.167,9.466,4.114c-0.01-0.021-0.014-0.046-0.014-0.077c0-0.028,0.004-0.059,0.014-0.092
		C9.49,3.864,9.547,3.78,9.636,3.729l1.105-0.64c0.088-0.051,0.146-0.032,0.17,0.02c0.01,0.022,0.014,0.048,0.014,0.077
		C10.925,3.217,10.921,3.247,10.911,3.28z"/>
	<polygon fill-rule="evenodd" clip-rule="evenodd" fill="#E6EAEB" points="12.833,5.343 7.546,8.394 7.546,15.451 12.833,12.397 	
		"/>
	<polygon fill-rule="evenodd" clip-rule="evenodd" fill="#2980B9" points="12.833,5.343 7.546,8.394 7.546,7.376 12.833,4.324 	"/>
	<path fill-rule="evenodd" clip-rule="evenodd" fill="#9B59B6" d="M8.288,8.841L8.288,8.841c-0.099,0.056-0.18,0.204-0.18,0.327l0,0
		c0,0.123,0.081,0.177,0.18,0.121l0,0C8.385,9.23,8.463,9.085,8.463,8.962l0,0C8.463,8.839,8.385,8.784,8.288,8.841z"/>
	<path fill-rule="evenodd" clip-rule="evenodd" fill="#FFCB05" d="M8.288,10.042L8.288,10.042c-0.099,0.057-0.18,0.202-0.18,0.325
		l0,0c0,0.124,0.081,0.178,0.18,0.121l0,0c0.097-0.057,0.175-0.204,0.175-0.325l0,0C8.463,10.039,8.385,9.985,8.288,10.042z"/>
	<path fill-rule="evenodd" clip-rule="evenodd" fill="#6699FF" d="M8.288,11.317L8.288,11.317c-0.099,0.054-0.18,0.203-0.18,0.324
		l0,0c0,0.123,0.081,0.177,0.18,0.12l0,0c0.097-0.059,0.175-0.204,0.175-0.326l0,0C8.463,11.313,8.385,11.258,8.288,11.317z"/>
	<polygon fill-rule="evenodd" clip-rule="evenodd" fill="#9C9C9C" points="8.958,11.261 11.721,9.668 11.721,9.446 8.958,11.04 	"/>
	<polygon fill-rule="evenodd" clip-rule="evenodd" fill="#9C9C9C" points="8.958,10.062 11.945,8.339 11.945,8.115 8.958,9.84 	"/>
	<polygon fill-rule="evenodd" clip-rule="evenodd" fill="#9C9C9C" points="8.958,8.789 11.311,7.431 11.311,7.207 8.958,8.564 	"/>
	<g>
		<path fill-rule="evenodd" clip-rule="evenodd" fill="#2C3E50" d="M10.621,15.98c0.094-0.054,0.182-0.06,0.244-0.017
			c0.061,0.043,0.102,0.127,0.102,0.248c0,0.119-0.038,0.25-0.102,0.364c-0.062,0.115-0.149,0.212-0.244,0.269l0,0l-0.86,0.496
			c-0.095,0.054-0.181,0.056-0.242,0.013c-0.063-0.041-0.101-0.129-0.101-0.248c0-0.117,0.039-0.248,0.101-0.362
			c0.061-0.115,0.147-0.212,0.242-0.269l0,0L10.621,15.98z"/>
		<path fill-rule="evenodd" clip-rule="evenodd" fill="#2C3E50" d="M10.621,16.029c0.04-0.024,0.079-0.035,0.114-0.039
			c0.037-0.002,0.071,0.005,0.098,0.025c0.028,0.02,0.05,0.049,0.068,0.086c0.014,0.038,0.022,0.082,0.022,0.135
			c0,0.052-0.008,0.106-0.022,0.162c-0.018,0.056-0.041,0.11-0.068,0.162c-0.027,0.051-0.061,0.101-0.098,0.141
			c-0.036,0.041-0.074,0.07-0.114,0.095l0,0l-0.86,0.492l0,0c-0.038,0.026-0.076,0.037-0.115,0.041
			c-0.037,0.002-0.069-0.007-0.097-0.025c-0.028-0.02-0.051-0.049-0.067-0.086c-0.014-0.039-0.022-0.084-0.022-0.137
			c0-0.05,0.008-0.106,0.022-0.16c0.016-0.056,0.039-0.112,0.067-0.164c0.028-0.051,0.06-0.099,0.097-0.139
			c0.036-0.039,0.077-0.07,0.115-0.095l0,0L10.621,16.029L10.621,16.029L10.621,16.029z M10.77,15.882
			c-0.046,0.002-0.098,0.019-0.149,0.049l0,0l-0.86,0.496l0,0c-0.052,0.029-0.103,0.072-0.147,0.123
			c-0.048,0.052-0.09,0.111-0.127,0.177c-0.034,0.065-0.063,0.137-0.083,0.203c-0.019,0.069-0.028,0.137-0.028,0.2
			c0,0.065,0.01,0.121,0.028,0.166c0.02,0.049,0.048,0.084,0.083,0.108c0.037,0.024,0.079,0.037,0.127,0.033
			c0.044-0.002,0.095-0.019,0.147-0.049l0,0l0.86-0.496l0,0c0.052-0.029,0.103-0.072,0.149-0.123
			c0.046-0.05,0.088-0.113,0.124-0.179c0.037-0.063,0.065-0.133,0.085-0.203c0.019-0.065,0.027-0.135,0.027-0.2
			s-0.008-0.121-0.027-0.164c-0.02-0.049-0.048-0.086-0.085-0.11C10.858,15.89,10.816,15.88,10.77,15.882z"/>
	</g>
	<polygon fill-rule="evenodd" clip-rule="evenodd" fill="#2C3E50" points="5.738,4.579 5.732,4.591 5.708,4.645 5.684,4.7 
		5.664,4.752 5.644,4.806 5.625,4.863 5.609,4.917 5.595,4.974 5.581,5.028 5.571,5.083 5.561,5.141 5.555,5.196 5.549,5.248 
		5.545,5.305 5.545,5.357 5.549,18.241 5.55,18.294 5.553,18.346 5.559,18.395 5.565,18.439 5.575,18.484 5.587,18.525 
		5.599,18.564 5.613,18.605 5.631,18.641 5.647,18.678 5.668,18.71 5.69,18.734 5.712,18.766 5.738,18.79 5.762,18.811 
		6.786,19.403 6.759,19.38 6.734,19.355 6.713,19.327 6.691,19.299 6.671,19.266 6.652,19.23 6.636,19.195 6.62,19.157 
		6.608,19.112 6.596,19.073 6.588,19.028 6.58,18.984 6.576,18.936 6.571,18.883 6.569,18.831 6.566,5.946 6.568,5.894 6.569,5.839 
		6.576,5.785 6.582,5.728 6.591,5.674 6.604,5.62 6.616,5.563 6.632,5.508 6.648,5.452 6.664,5.397 6.685,5.343 6.707,5.288 
		6.729,5.234 6.753,5.182 6.761,5.167 	"/>
</g>
</svg>
