<?xml version="1.0" encoding="utf-8"?>
<!-- Generator: Adobe Illustrator 16.0.0, SVG Export Plug-In . SVG Version: 6.00 Build 0)  -->
<!DOCTYPE svg PUBLIC "-//W3C//DTD SVG 1.1//EN" "http://www.w3.org/Graphics/SVG/1.1/DTD/svg11.dtd">
<svg version="1.1" id="Layer_1" xmlns="http://www.w3.org/2000/svg" xmlns:xlink="http://www.w3.org/1999/xlink" x="0px" y="0px"
	 width="60px" height="60px" viewBox="0 0 60 60" enable-background="new 0 0 60 60" xml:space="preserve">
<g>
	<g>
		<g>
			<path opacity="0.35" fill="#FFFFFF" d="M92.613,3.791L78.152,3.768c-0.369,0-0.668-0.231-0.668-0.515l0.014-8.644l0.001-0.973
				c0.001-0.284,0.3-0.513,0.669-0.513l14.461,0.022c0.369,0,0.668,0.231,0.668,0.515l-0.015,9.617
				C93.281,3.562,92.982,3.791,92.613,3.791z"/>
			<path fill="#FFFFFF" d="M78.639-5.491L78.639-5.491c-0.176,0-0.316-0.143-0.316-0.318c0-0.175,0.143-0.317,0.316-0.317l0,0
				c0.085,0,0.164,0.033,0.225,0.093c0.06,0.06,0.092,0.14,0.092,0.225c0,0.085-0.033,0.165-0.093,0.225
				C78.803-5.524,78.723-5.491,78.639-5.491z M78.639-5.988c-0.1,0-0.18,0.081-0.18,0.18s0.08,0.18,0.18,0.18l0,0
				c0.048,0,0.093-0.019,0.127-0.053c0.033-0.034,0.053-0.079,0.053-0.127l0,0c0-0.048-0.019-0.093-0.053-0.127
				C78.732-5.97,78.688-5.988,78.639-5.988L78.639-5.988z"/>
			<path fill="#FFFFFF" d="M79.57-5.49L79.57-5.49c-0.085,0-0.164-0.033-0.225-0.093c-0.06-0.06-0.092-0.14-0.092-0.225
				c0-0.175,0.143-0.317,0.316-0.317l0,0c0.085,0,0.164,0.033,0.225,0.093c0.06,0.06,0.092,0.14,0.092,0.225
				c0,0.085-0.033,0.165-0.093,0.225C79.734-5.522,79.654-5.49,79.57-5.49z M79.57-5.987c-0.1,0-0.18,0.081-0.18,0.18
				c0,0.048,0.019,0.093,0.053,0.127c0.033,0.034,0.078,0.053,0.127,0.053l0,0c0.048,0,0.094-0.019,0.127-0.053
				c0.034-0.034,0.053-0.079,0.053-0.127l0,0c0-0.048-0.019-0.093-0.053-0.127C79.664-5.968,79.619-5.987,79.57-5.987L79.57-5.987z"
				/>
			<path fill="#FFFFFF" d="M80.484-5.488L80.484-5.488c-0.175,0-0.316-0.143-0.316-0.318c0-0.175,0.143-0.317,0.316-0.317l0,0
				c0.176,0,0.317,0.143,0.316,0.318l0,0C80.801-5.63,80.659-5.488,80.484-5.488z M80.484-5.986c-0.099,0-0.18,0.081-0.18,0.18
				c0,0.099,0.08,0.18,0.18,0.18l0,0c0.1,0,0.18-0.081,0.18-0.18C80.664-5.905,80.584-5.985,80.484-5.986L80.484-5.986z"/>
			<path opacity="0.69" fill="#FFFFFF" d="M91.158-2.171L91.158-2.171l-6.334-0.01c-0.039,0-0.068-0.031-0.068-0.069
				s0.03-0.068,0.068-0.068l0,0l6.334,0.01c0.037,0,0.068,0.031,0.068,0.069C91.227-2.202,91.195-2.171,91.158-2.171z"/>
			<path opacity="0.69" fill="#FFFFFF" d="M87.986,0.612L87.986,0.612l-3.167-0.005c-0.038,0-0.069-0.031-0.069-0.069
				c0-0.038,0.031-0.068,0.069-0.068l0,0l3.167,0.005c0.038,0,0.068,0.031,0.068,0.069C88.055,0.582,88.023,0.612,87.986,0.612z"/>
			<path opacity="0.69" fill="#FFFFFF" d="M86.662-1.341L86.662-1.341l-1.841-0.004c-0.038,0-0.068-0.031-0.068-0.069
				c0-0.038,0.03-0.068,0.069-0.068l0,0l1.84,0.003c0.038,0,0.068,0.031,0.068,0.069C86.73-1.372,86.7-1.341,86.662-1.341z"/>
			<path opacity="0.69" fill="#FFFFFF" d="M88.402-0.352L88.402-0.352l-3.581-0.003c-0.038,0-0.068-0.031-0.068-0.069
				s0.03-0.069,0.069-0.069l0,0l3.58,0.004c0.037,0,0.068,0.031,0.068,0.069S88.439-0.352,88.402-0.352z"/>
		</g>
		<path fill="#FFFFFF" d="M81.506-0.944v-2.421c-1.335,0-2.418,1.084-2.418,2.421c0,1.337,1.083,2.421,2.418,2.421
			c1.336,0,2.418-1.084,2.418-2.421H81.506z"/>
		<path fill="#1A6CBE" d="M81.506-0.944v-2.421c-1.335,0-2.418,1.084-2.418,2.421C79.088-0.878,81.506-0.944,81.506-0.944z"/>
		<path fill="#102465" d="M83.838-1.211c0-0.58-0.237-1.104-0.621-1.479c-0.372-0.365-0.882-0.59-1.444-0.59v2.069H83.838z"/>
		<path fill="#FFFFFF" d="M83.217-2.69c-0.372-0.365-0.882-0.59-1.444-0.59v2.069"/>
		<path fill="#1A6CBE" d="M83.217-2.69c-0.372-0.365-0.882-0.59-1.444-0.59v2.069"/>
	</g>
	<g>
		<path opacity="0.1" fill="#1C1918" d="M78.512,52.258c0,0-0.352,1.551,7.993,1.893c2.732,0.112,18.101-0.33,17.327-0.871
			s-3.502-1.042-3.502-1.042L78.512,52.258z"/>
		<path fill="#FF5252" d="M80.25,22.462c0,0-2.513-2.812-2.604-2.812s-0.148,0.159-0.148,0.159l2.627,2.824L80.25,22.462z"/>
		<path fill="#06497F" d="M89.645,17.035c0,0,0.831,0.569,0.99,0.983s1.076,1.886,1.076,2.281c0,0.395,0.113,0.918,0.099,1.139
			s-0.007,1.556-0.121,1.738c0.015,0.486,0.015,0.888,0.015,1.131c0,0.243,0.031,1.73,0.061,2.437
			c0.031,0.706,0.076,1.814,0.183,2.088c0.106,0.272,0.102,1.403,0.147,1.532c0.045,0.129,0.25,0.288,0.182,0.395
			s-0.334,0.304-0.455,0.312c-0.121,0.129-0.011,1.261-0.299,1.359c-0.287,0.099-0.424,0.189-1.221,0.182
			c-0.795-0.007-2.683,0.267-3.63,0.068c-0.947-0.197-0.593-0.648-0.623-0.74c-0.03-0.091-0.651-0.144-0.826-0.759
			s0.315-2.152,0.347-2.608c0.029-0.455-0.248-5.213-0.196-5.525c0.428-2.569,1.653-3.601,1.751-3.776
			c0.099-0.174,0.685-1.484,1.178-1.811C88.793,17.133,89.645,17.035,89.645,17.035z"/>
		<path fill="#F0BEB9" d="M89.125,13.202c0,0,0.108,1.222,0.199,1.374c0.09,0.152,0.389,1.544,0.494,1.771s0.524,1.173,0.524,1.173
			s-1.257,0.897-1.951,0.92c-0.694,0.023-1.185,0.18-1.185,0.18s0.342-0.702,0.429-0.963c0.087-0.262,0.12-0.571,0.1-0.625
			s-0.241-0.015-0.241-0.015s-1.477-2.522-0.84-3.474C87.292,12.591,89.125,13.202,89.125,13.202z"/>
		<path fill="#FFE1E1" d="M97.215,47.137l0.875,1.406c0,0-0.422,1.349-0.959,1.539c-0.539,0.189,0.369-0.02-0.533,0.152
			c-0.029,0.006-1.021-1.731-1.021-1.731L97.215,47.137z"/>
		<path fill="#176396" d="M97.986,48.242c0,0,0.973,0.975,0.994,1.035c0.02,0.061,0.174,0,0.174,0l0.316,0.315l-1.256,1.204
			l-0.275-0.155c0,0-0.899,1.438-1.215,1.58s-1.154,0.612-2.523,0.363c-0.195-0.047-0.162-0.229-0.121-0.249
			c-0.088-0.256,0.02-0.585,0.55-0.604c0.53-0.021,0.839-0.102,0.873-0.155c0.033-0.054,0.081-0.369,0.255-0.363
			c-0.201-0.269-0.066-1.378-0.066-1.445s0.201-0.672,0.201-0.672s0.604,0.383,0.799,0.383c0.194,0,0.939-0.35,1.113-0.746
			C97.98,48.336,97.986,48.242,97.986,48.242z"/>
		<path fill="#176396" d="M84.237,51.749c0,0,0.188,0.891,0.159,1.026c0.063,0.126,0.116,0.484,0.063,0.557
			c-0.053,0.072-1.953,0.116-1.953,0.116v-0.175c0,0-0.933,0.247-1.503,0.214c-0.571-0.034-2.8-0.896-2.819-0.935
			c-0.019-0.039,0.049-0.199,0.111-0.17c0.044-0.146,0.029-0.373,0.416-0.368s1.074,0.02,1.286-0.033
			c0.213-0.054,0.406-0.165,0.552-0.209c0.145-0.043,0.98-0.688,1.082-0.73c0.102-0.044,0.837,0.314,1.373,0.445
			c0.537,0.131,1.195,0.053,1.195,0.053L84.237,51.749z"/>
		<path fill="#102465" d="M90.236,31.557c0,0,0.729,2.664,0.648,2.983c-0.079,0.318-0.045,0.33,0.006,0.467s0.143,0.216,0.143,0.455
			s-0.046,0.239,0.022,0.479s0.284,0.58,0.341,0.944c0.057,0.365,0.034,0.969,0.068,1.196s0.057,0.262,0.045,0.648
			c-0.011,0.388-0.045,0.559,0.023,0.729c0.068,0.171,0.182,0.251,0.238,0.399c0.057,0.147,0.171,0.614,0.171,0.614
			s0.011,0.217,0.046,0.364c0.033,0.148-0.308-0.045,0.079,0.205c0.387,0.251,5.821,6.251,5.821,6.251s-1.148,1.139-1.398,1.446
			s-0.955,0.547-0.955,0.547s-0.943-0.854-1.137-1.207c-0.193-0.354-2.172-2.995-2.627-3.325s-2.819-2.209-3.035-2.732
			c-0.217-0.523-2.012-6.217-2.012-6.217v-4.372L90.236,31.557z"/>
		<path fill="#FFE1E1" d="M82.205,23.427c0,0-0.308-0.268-0.41-0.416c-0.102-0.148-0.272-0.558-0.455-0.672
			c-0.182-0.114-0.557-0.456-0.631-0.512c-0.073-0.057-0.517-0.365-0.517-0.365s-0.381,0.014-0.449,0.014
			c-0.11-0.048-0.339-0.094-0.31,0.012c0.028,0.105,0.15,0.418,0.56,0.353c0.185,0.208,0.31,0.265,0.256,0.282
			s-0.577-0.213-0.653-0.219c-0.162-0.165-0.5-0.347-0.5-0.347s0.025-0.16-0.068-0.168c-0.094-0.009-0.526,0.068-0.354,0.355
			c0.174,0.288,0.205,0.25,0.205,0.25s-0.127-0.028-0.116,0.194s-0.003,0.31,0.065,0.375s0.461,0.319,0.461,0.319
			s-0.078,0.45-0.041,0.51c0.037,0.06,0.186,0.085,0.186,0.085s-0.143,0.271,0.133,0.416c0.276,0.145,0.976,0.313,1.535,0.358
			c0.461,0.242,0.967,0.641,0.967,0.641s0.315-0.085,0.497-0.413C82.748,24.152,82.762,24.024,82.205,23.427z"/>
		<path fill="#C3FFFF" d="M82.807,23.683c-0.021-0.046-0.688-0.438-0.688-0.438s-0.653,1.309-0.648,1.474
			c0.006,0.166,0,0.638,0,0.638l0.949,0.273L82.807,23.683z"/>
		<path fill="#043370" d="M91.771,31.078c0,0,0.023,2.209-0.625,3.018s-1.964,2.391-2.073,2.688
			c-0.109,0.296-1.759,3.541-1.815,3.894c-0.057,0.354,0.273,0.193-0.09,0.763c-0.364,0.569-0.752,0.524-0.695,1.07
			c0.059,0.547-0.135,2.072-0.42,2.915c-0.283,0.843-1.185,3.826-1.223,4.076c-0.039,0.251,0.038,0.523,0,0.569
			c-0.039,0.046-0.555,1.78-0.555,1.78s-0.77,0.025-1.088,0c-0.318-0.026-1.528-0.721-1.528-0.721s0.051-1.879,0.323-2.209
			c0.273-0.331,0.205-0.513,0.16-1.207c-0.046-0.695,0.591-2.973,0.807-3.655c0.217-0.684,0.057-1.275,0.08-1.594
			c0.022-0.319,0.932-4.009,1.012-4.657c0.079-0.649,1.592-4.372,1.592-4.372s-0.16-1.993-0.114-2.209
			c0.046-0.217,5.549-0.581,6.253-0.194"/>
		<path fill="#FFE1E1" d="M85.621,11.75c-0.209,0.164-1.115,0.706-1.197,1.622c-0.08,0.915,0.084,1.517,0.552,2.123
			s0.163,1.065,0.224,1.153c0.06,0.088,0.396,0.179,0.578,0.129c0.328,0.297,0.807,0.708,0.858,0.762s0.295,0.087,0.423,0.041
			c0.127-0.046,0.494-0.455,0.552-0.544c0.057-0.088,0.777-0.995,0.751-1.235c-0.026-0.24-0.652-1.249-0.652-1.249
			s2.038,0.15,1.354-1.517C88.379,11.366,86.485,11.067,85.621,11.75z"/>
		<path fill="#176396" d="M89.635,18.895c0,0,0.758,0.307,0.971,0.523c0.211,0.217,0.666,1.093,0.711,1.367
			c0.047,0.273,0.012,0.694-0.067,0.945s-2.001,3.542-2.364,3.985c-0.365,0.444-1.695,2.106-2.15,2.016
			c-0.453-0.091-1.522-0.353-1.852-0.58c-0.33-0.229-1.934-1.048-2.234-1.048c-0.302,0-1.109-0.661-0.824-1.35
			c0.283-0.688,0.533-1.395,0.92-1.338c0.387,0.057,0.273,0.262,0.626,0.433c0.353,0.17,0.637,0.148,0.772,0.296
			c0.137,0.148,0.318,0.091,0.592,0.262s0.284,0.182,0.592,0.296c0.307,0.114,0.642,0.102,0.75,0.131
			c0.012-0.199-0.006-0.233,0.153-0.37s0.136-0.353,0.302-0.546c0.164-0.194,0.42-0.957,0.59-1.202
			c0.172-0.245,0.068-1.395,0.223-1.805C87.497,20.5,87.719,18.713,89.635,18.895z"/>
		<path fill="#C3FFFF" d="M90.192,16.891c0,0,0.351,0.285,0.34,0.61s0.21,0.348,0.147,0.417c-0.063,0.069-1.123,0.123-1.289,0.328
			c-0.164,0.205-2.414,1.366-2.591,1.467c-0.005-0.27,0.192-0.237,0.202-0.555c0.01-0.318-0.148-0.672-0.096-0.772
			c0.054-0.1,0.779-0.181,1.139-0.382c0.361-0.201,1.078-0.843,1.395-0.95C89.754,16.948,90.192,16.891,90.192,16.891z"/>
		<path fill="#120236" d="M89.525,15.271c0,0-1.264-0.148-1.68-0.727c-0.416-0.578-0.305-0.68-0.379-0.68
			c-0.528,0-0.198,0.897-0.42,0.752c-0.24-0.158-0.417-0.681-0.448-0.79s-0.582,0.042-0.743-0.417c0,0-0.357,1.15-1.067,1.313
			c-0.603,0.139-1.475,0.316-1.345-0.85s1.782-3.581,4.143-3.041c1.912-0.85,1.93,3.405,1.94,3.582
			C89.537,14.591,89.545,14.79,89.525,15.271z"/>
		<path fill="#FFE1E1" d="M87.136,14.384c-0.003-0.844,0.644-0.651,0.808-0.312c0.163,0.34,0.188,0.909-0.012,1.042
			c-0.201,0.133-0.41-0.078-0.422-0.081L87.136,14.384z"/>
	</g>
</g>
<g>
	<path opacity="0.1" fill="#1C1918" d="M17.802,55.473c0,0-0.438,1.926,9.928,2.352c3.395,0.139,22.482-0.41,21.521-1.082
		s-4.35-1.295-4.35-1.295L17.802,55.473z"/>
	<path fill="#FF5252" d="M19.96,18.464c0,0-3.121-3.494-3.234-3.494c-0.112,0-0.183,0.198-0.183,0.198l3.262,3.507L19.96,18.464z"/>
	<path fill="#06497F" d="M31.629,11.721c0,0,1.033,0.708,1.23,1.221c0.199,0.514,1.338,2.343,1.338,2.833s0.141,1.141,0.121,1.414
		c-0.018,0.274-0.008,1.933-0.15,2.16c0.02,0.603,0.02,1.103,0.02,1.405c0,0.301,0.037,2.15,0.076,3.026
		c0.037,0.877,0.094,2.254,0.225,2.592c0.131,0.34,0.127,1.744,0.182,1.904c0.059,0.16,0.313,0.358,0.227,0.49
		c-0.084,0.132-0.412,0.377-0.563,0.387c-0.152,0.16-0.016,1.566-0.373,1.688s-0.525,0.235-1.516,0.226
		c-0.988-0.01-3.333,0.33-4.509,0.086c-1.177-0.246-0.736-0.808-0.773-0.92c-0.038-0.113-0.81-0.179-1.027-0.942
		c-0.216-0.765,0.393-2.675,0.43-3.24c0.038-0.566-0.307-6.477-0.243-6.864c0.531-3.191,2.053-4.473,2.175-4.689
		c0.122-0.217,0.85-1.844,1.462-2.25C30.572,11.844,31.629,11.721,31.629,11.721z"/>
	<path fill="#F0BEB9" d="M30.984,6.961c0,0,0.135,1.519,0.247,1.707c0.113,0.188,0.484,1.918,0.615,2.199
		c0.133,0.281,0.652,1.456,0.652,1.456s-1.563,1.115-2.424,1.144c-0.862,0.029-1.471,0.224-1.471,0.224s0.424-0.872,0.532-1.196
		c0.108-0.325,0.149-0.709,0.124-0.777c-0.025-0.067-0.3-0.018-0.3-0.018s-1.833-3.133-1.042-4.315
		C28.708,6.202,30.984,6.961,30.984,6.961z"/>
	<path fill="#FFE1E1" d="M41.031,49.111l1.088,1.746c0,0-0.521,1.678-1.191,1.912c-0.668,0.236,0.459-0.023-0.66,0.189
		C40.23,52.967,39,50.809,39,50.809L41.031,49.111z"/>
	<path fill="#176396" d="M41.992,50.484c0,0,1.209,1.211,1.232,1.285c0.025,0.076,0.219,0,0.219,0l0.391,0.393l-1.559,1.496
		l-0.342-0.191c0,0-1.117,1.787-1.51,1.961c-0.391,0.176-1.434,0.762-3.135,0.451c-0.242-0.059-0.201-0.283-0.15-0.309
		c-0.107-0.316,0.025-0.727,0.684-0.752s1.043-0.125,1.084-0.191s0.1-0.459,0.318-0.451c-0.252-0.334-0.086-1.713-0.086-1.797
		c0-0.082,0.252-0.834,0.252-0.834s0.75,0.477,0.99,0.477c0.242,0,1.168-0.436,1.385-0.926
		C41.982,50.602,41.992,50.484,41.992,50.484z"/>
	<path fill="#176396" d="M24.913,54.84c0,0,0.234,1.107,0.198,1.275c0.078,0.156,0.145,0.602,0.078,0.691
		c-0.066,0.092-2.426,0.145-2.426,0.145v-0.217c0,0-1.159,0.307-1.868,0.264c-0.708-0.041-3.477-1.111-3.5-1.16
		c-0.024-0.047,0.06-0.246,0.138-0.209c0.054-0.182,0.036-0.465,0.516-0.457c0.48,0.006,1.333,0.023,1.598-0.043
		c0.264-0.066,0.504-0.203,0.684-0.258c0.18-0.055,1.219-0.854,1.346-0.908c0.125-0.055,1.039,0.391,1.705,0.553
		c0.667,0.162,1.483,0.066,1.483,0.066L24.913,54.84z"/>
	<path fill="#102465" d="M32.365,29.76c0,0,0.904,3.31,0.805,3.705c-0.098,0.396-0.055,0.41,0.008,0.58
		c0.064,0.17,0.176,0.27,0.176,0.566s-0.057,0.297,0.029,0.594c0.084,0.297,0.352,0.721,0.424,1.174
		c0.07,0.453,0.043,1.201,0.084,1.484c0.043,0.283,0.07,0.326,0.057,0.807s-0.057,0.693,0.029,0.904
		c0.084,0.213,0.225,0.311,0.295,0.496c0.07,0.184,0.213,0.764,0.213,0.764s0.014,0.268,0.057,0.453
		c0.041,0.184-0.383-0.059,0.098,0.252c0.48,0.313,7.23,7.766,7.23,7.766s-1.426,1.416-1.736,1.797
		c-0.311,0.383-1.188,0.678-1.188,0.678s-1.17-1.059-1.412-1.498c-0.24-0.438-2.697-3.719-3.262-4.129
		c-0.564-0.412-3.501-2.744-3.77-3.395c-0.268-0.652-2.499-7.723-2.499-7.723v-5.432L32.365,29.76z"/>
	<path fill="#FFE1E1" d="M22.389,19.661c0,0-0.382-0.333-0.509-0.516s-0.339-0.693-0.564-0.834
		c-0.226-0.142-0.692-0.566-0.784-0.637s-0.642-0.452-0.642-0.452s-0.473,0.017-0.558,0.017c-0.138-0.06-0.42-0.117-0.385,0.015
		c0.035,0.13,0.187,0.52,0.695,0.438c0.23,0.258,0.385,0.329,0.318,0.349c-0.067,0.022-0.717-0.265-0.812-0.271
		c-0.202-0.205-0.622-0.431-0.622-0.431s0.032-0.199-0.085-0.209c-0.116-0.01-0.653,0.084-0.438,0.442s0.254,0.311,0.254,0.311
		s-0.159-0.035-0.145,0.241c0.015,0.275-0.003,0.385,0.082,0.467c0.085,0.081,0.572,0.396,0.572,0.396s-0.095,0.559-0.049,0.633
		s0.229,0.106,0.229,0.106s-0.177,0.336,0.166,0.516c0.342,0.181,1.211,0.389,1.906,0.446c0.572,0.3,1.201,0.795,1.201,0.795
		s0.392-0.106,0.618-0.513C23.063,20.563,23.081,20.404,22.389,19.661z"/>
	<path fill="#C3FFFF" d="M23.137,19.979c-0.028-0.057-0.855-0.544-0.855-0.544s-0.812,1.626-0.805,1.832
		c0.007,0.206,0,0.792,0,0.792l1.179,0.339L23.137,19.979z"/>
	<path fill="#043370" d="M34.271,29.166c0,0,0.029,2.742-0.775,3.747c-0.807,1.005-2.439,2.97-2.576,3.337
		c-0.136,0.369-2.185,4.4-2.254,4.838c-0.071,0.438,0.338,0.24-0.113,0.947s-0.933,0.65-0.862,1.33
		c0.071,0.678-0.168,2.574-0.522,3.619c-0.353,1.049-1.472,4.752-1.52,5.064c-0.048,0.311,0.047,0.65,0,0.707
		c-0.048,0.057-0.688,2.211-0.688,2.211s-0.956,0.033-1.351,0c-0.396-0.033-1.9-0.895-1.9-0.895s0.064-2.336,0.403-2.744
		c0.338-0.41,0.254-0.637,0.198-1.5c-0.057-0.863,0.734-3.691,1.002-4.539c0.269-0.85,0.071-1.584,0.099-1.98
		s1.158-4.979,1.256-5.785c0.099-0.805,1.977-5.43,1.977-5.43s-0.197-2.476-0.141-2.745c0.056-0.268,6.892-0.721,7.767-0.239"/>
	<path fill="#FFE1E1" d="M26.631,5.157c-0.258,0.204-1.385,0.877-1.485,2.015c-0.101,1.137,0.104,1.884,0.684,2.636
		c0.581,0.751,0.202,1.323,0.278,1.433c0.075,0.109,0.493,0.223,0.718,0.16c0.407,0.369,1.002,0.879,1.067,0.946
		c0.063,0.067,0.366,0.108,0.524,0.051c0.158-0.058,0.615-0.565,0.686-0.675c0.07-0.11,0.966-1.236,0.933-1.535
		c-0.033-0.299-0.81-1.551-0.81-1.551s2.532,0.186,1.682-1.885C30.058,4.681,27.706,4.31,26.631,5.157z"/>
	<path fill="#176396" d="M31.617,14.033c0,0,0.941,0.382,1.205,0.65s0.83,1.358,0.885,1.697c0.057,0.339,0.014,0.862-0.086,1.173
		c-0.098,0.312-2.484,4.399-2.936,4.951s-2.105,2.616-2.669,2.503c-0.564-0.113-1.892-0.439-2.301-0.722s-2.402-1.301-2.776-1.301
		c-0.373,0-1.376-0.82-1.023-1.676c0.353-0.856,0.664-1.732,1.144-1.662c0.48,0.07,0.339,0.325,0.777,0.538
		c0.437,0.212,0.791,0.184,0.96,0.368c0.169,0.184,0.396,0.113,0.734,0.325c0.339,0.212,0.353,0.226,0.734,0.368
		c0.381,0.141,0.798,0.127,0.932,0.162c0.014-0.247-0.007-0.289,0.19-0.459c0.198-0.17,0.17-0.438,0.375-0.679
		c0.205-0.241,0.522-1.188,0.735-1.492c0.211-0.305,0.084-1.733,0.275-2.242C28.962,16.027,29.238,13.807,31.617,14.033z"/>
	<path fill="#C3FFFF" d="M32.309,11.543c0,0,0.438,0.354,0.424,0.757s0.26,0.433,0.184,0.519c-0.078,0.086-1.396,0.153-1.602,0.407
		c-0.205,0.254-2.999,1.697-3.218,1.823c-0.006-0.335,0.239-0.294,0.251-0.689c0.013-0.395-0.184-0.834-0.118-0.958
		c0.066-0.125,0.966-0.225,1.414-0.475c0.447-0.25,1.338-1.047,1.731-1.18C31.766,11.614,32.309,11.543,32.309,11.543z"/>
	<path fill="#120236" d="M31.48,9.531c0,0-1.568-0.185-2.084-0.902c-0.517-0.717-0.38-0.845-0.471-0.845
		c-0.657,0-0.247,1.114-0.521,0.934c-0.299-0.196-0.519-0.846-0.558-0.981c-0.039-0.136-0.723,0.051-0.923-0.517
		c0,0-0.443,1.428-1.326,1.631c-0.749,0.172-1.832,0.392-1.67-1.056c0.161-1.449,2.213-4.447,5.146-3.777
		c2.376-1.055,2.397,4.229,2.409,4.449C31.496,8.687,31.506,8.933,31.48,9.531z"/>
	<path fill="#FFE1E1" d="M28.514,8.43c-0.003-1.049,0.8-0.81,1.003-0.388c0.203,0.421,0.233,1.129-0.015,1.294
		c-0.249,0.165-0.508-0.098-0.522-0.101L28.514,8.43z"/>
</g>
</svg>
