<?xml version="1.0" encoding="utf-8"?>
<!-- Generator: Adobe Illustrator 17.0.0, SVG Export Plug-In . SVG Version: 6.00 Build 0)  -->
<!DOCTYPE svg PUBLIC "-//W3C//DTD SVG 1.1//EN" "http://www.w3.org/Graphics/SVG/1.1/DTD/svg11.dtd">
<svg version="1.1" id="Layer_1" xmlns="http://www.w3.org/2000/svg" xmlns:xlink="http://www.w3.org/1999/xlink" x="0px" y="0px"
	 width="800px" height="600px" viewBox="0 0 800 600" enable-background="new 0 0 800 600" xml:space="preserve">
<g>
	<path d="M613.542,265.886c-10.802-6.414-39.883-17.221-53.174-19.525c-7.387,1.458-26.923,9.689-34.53,14.787
		c-10.968,1.411-29.97,6.21-31.407,11.359c-21.657,4.263-43.604,15.947-64.578,22.628c-10.577,23.486-7.53,49.55-5.815,64.698
		c15.407,3.547,43,18.139,64.533,26.818c23.798-10.388,37.855-32.586,49.675-41.772c10.296-3.803,23.843-9.21,28.22-15.093
		c2.754-2.858,19.874-11.931,40.53-16.947C605.677,305.908,607.179,278.664,613.542,265.886z"/>
	<path fill="#E3E5CD" d="M427.228,355.009c-0.126-8.27-0.368-16.524-0.02-24.692c8.824,7.788,38.462,24.472,52.578,28.87
		c1.007,0.315,1.553-0.889,0.551-1.212c-15.668-5.006-43.36-21.144-53.028-29.771c0.194-3.494,0.501-6.973,0.996-10.426
		c10.234,4.598,19.371,11.776,29.146,17.242c10.92,6.117,22.391,12.439,34.822,14.602c-0.332,1.63-0.602,3.273-0.892,4.916
		c-3.663-1.366-7.542-2.107-11.17-3.719c-5.055-2.251-10.115-4.342-15.052-6.871c-10.186-5.217-19.86-11.404-29.545-17.49
		c-0.883-0.558-1.924,0.727-1.035,1.287c9.392,5.901,18.777,11.813,28.569,17.022c4.878,2.591,9.882,4.916,14.991,7.009
		c4.149,1.695,8.54,2.733,12.684,4.318c0.056,0.114,0.132,0.214,0.225,0.29c-0.65,3.948-1.17,7.921-1.587,11.909
		c-1.319-0.404-2.757-1.099-3.8-1.392c-4.433-1.241-8.796-2.716-13.12-4.289c-8.296-3.017-16.335-6.725-24.15-10.843
		c-0.934-0.494-1.598,1.024-0.669,1.509c8.287,4.37,16.81,8.176,25.61,11.381c3.975,1.446,8.012,2.703,12.073,3.878
		c1.103,0.319,2.529,0.989,3.902,1.384c-0.368,3.799-0.647,7.605-0.819,11.421C467.935,372.796,448.657,361.3,427.228,355.009z"/>
	<path fill="#E3E5CD" d="M497.064,331.561c-11.244-2.176-20.892-6.553-31.013-11.917c-9.258-4.907-18.988-8.833-28.561-13.078
		c-0.099,0.935,1.322,1.918,7.454,4.859c4.999,2.398,13.095,5.84,21.795,10.449c9.722,5.154,19.069,9.164,29.812,11.269
		c-0.548,1.702-3.409,12.463-3.924,14.858c-12.321-2.129-23.666-8.471-34.504-14.492c-9.921-5.505-19.154-12.833-29.565-17.424
		c0.166-1.017,0.363-2.028,0.56-3.035c9.812,4.75,19.199,10.314,28.712,15.639c4.695,2.629,9.562,4.897,14.361,7.344
		c5.103,2.592,8.532,4.048,14.462,6.148c0.996,0.352,1.688-1.233,0.672-1.515c-5.544-1.53-23.711-10.65-28.819-13.49
		c-9.646-5.356-19.114-11.01-29.047-15.798c0.411-6.342,3.367-11.428,3.865-12.643c12.855,4.495,24.735,11.265,37.455,16.098
		c9.077,3.454,18.608,6.965,28.864,9.661C498.718,326.827,497.86,329.184,497.064,331.561z"/>
	<path fill="#CED5B8" d="M540.344,323.27c-12.456,7.055-42.676,31.929-43.244,32.341c-0.574,0.419-0.788,1.717,0.059,1.069
		c7.868-6,33.888-28.071,42.819-31.497c-1.091,5.599-2.124,11.217-3.016,16.861c-16.352,11.29-27.582,29.408-45.196,38.718
		c0.191-3.934,0.481-7.861,0.872-11.778c1.893-3.103,33.337-28.603,40.938-34.081c0.861-0.619,0.36-1.407-0.501-0.785
		c-8.031,5.788-38.448,30.493-40.13,32.002c0.661-5.843,1.598-11.646,2.824-17.384c4.341-3.975,24.158-19.687,30.414-22.391
		c0.97-0.418,0.43-1.348-0.475-0.798c-6.591,3.965-24.709,16.339-29.328,20.455c1.713-7.387,3.949-14.656,6.864-21.719
		c15.477-6.477,27.325-19.49,42.687-26.04C543.869,306.545,542.015,314.888,540.344,323.27z"/>
	<path fill="#A8C995" d="M501.258,321.537c-24.341-5.364-50.347-19.988-64.443-25.098c22.589-8.956,44.024-17.109,60.286-22.096
		c1.257,0.245,2.734,0.53,4.366,0.862c-7.297,1.759-14.462,4.173-21.52,6.688c-9.387,3.342-24.265,10.661-27.424,14.732
		c2.158,0.93,16.158,7.75,24.732,10.431c7.854,2.459,15.722,5.671,24.375,9.087c2.146-2.251,6.031-5.269,8.619-7.664
		c3.142-2.903,6.658-5.17,10.217-7.501c7.184-4.709,14.495-9.494,22.659-12.224c2.374,1.759,3.764,3.631,3.66,5.603
		C530.125,300.684,517.798,314.907,501.258,321.537z"/>
	<path fill="#E8EECD" d="M513.739,288.804c6.45,3.92,16.448,0.263,21.863-3.949c0.042-0.037,4.186,1.757,5.817,2.755
		c-7.387,2.664-14.065,6.951-20.656,11.213c-3.604,2.329-7.224,4.602-10.476,7.421c-2.951,2.557-5.64,5.349-8.836,7.603
		c-5.218-2.097-9.362-3.66-13.646-5.582c-2.076-6.556-3.241-20.342-2.65-26.493c6.613-2.303,13.367-4.349,20.203-5.754
		c1.08,0.232,2.217,0.48,3.373,0.738C506.138,281.224,509.503,286.225,513.739,288.804z"/>
	<path fill="#798763" d="M510.436,277.142c7.691,1.765,16.49,4.096,23.506,6.872c-3.995,2.882-8.67,4.366-13.567,4.577
		C514.878,288.832,506.273,282.989,510.436,277.142z"/>
	<path fill="#798763" d="M485.826,307.748c-2.217-0.572-22.757-7.865-30.4-11.622c5.975-4.712,15.255-9.039,23.823-12.225
		c1.407-0.523,2.824-1.035,4.245-1.54C482.869,286.932,484.427,304.247,485.826,307.748z"/>
	<path fill="#E5DEA2" d="M540.685,339.65c2.431-14.75,5.469-31.438,9.148-45.929c0.087-6.551-14.093-11.263-19.618-13.429
		c-9.646-3.779-20.422-5.938-30.678-7.944c0.242-2.671,17.708-8.353,26.411-8.795c0.011,0,33.475,5.429,43.562,17.626
		c-0.008,0.016-0.017,0.027-0.02,0.045c-3.072,15.441-5.86,43.561-6.388,46.696C554.165,336.086,540.851,339.556,540.685,339.65z"/>
	<path fill="#E8EECD" d="M539.568,263.581c-0.565-0.128-1.128-0.269-1.685-0.389c7.128-4.182,17.691-9.266,22.029-10.978
		c2.83,0.101,26.92,10.657,31.407,13.176c-3.654,0.827-7.26,2.071-10.636,3.671c-4.38,2.079-8.498,5.052-13.365,5.772
		c-2.346-1.726-5.041-3.249-7.921-4.629C564.134,260.395,545.149,261.23,539.568,263.581z"/>
	<path fill="#798763" d="M557.917,269.499c-4.709-2.113-9.893-3.803-15.106-5.139C549.124,263.039,560.781,263.007,557.917,269.499z
		"/>
	<path fill="#A8C995" d="M571.262,278.217c-0.686-0.703-1.44-1.373-2.219-2.028c3.187-0.769,6.113-2.357,9.021-3.913
		c4.88-2.611,11.393-5.393,16.85-6.374c-4.048-2.689-16.504-7.962-19.829-9.428c-2.743-1.205-11.606-4.543-15.207-5.353
		c-3.71,1.509-16.788,7.096-24.395,11.578c-2.005-0.393-3.98-0.736-5.893-1.034c10.104-4.761,24.355-11.121,30.684-13.19
		c12.768,2.672,34.921,11.943,48.187,17.65C596.146,269.187,577.521,274.56,571.262,278.217z"/>
	<path fill="#CED5B8" d="M566.733,325.515c0.239-1.747,0.472-3.55,0.7-5.388c11.387-6.191,22.656-10.563,32.004-14.304
		c0.973-0.393,1.182-1.349,0.138-1.156c-6.135,1.141-27.359,10.691-31.885,13.369c1.587-12.978,3.055-27.278,5.03-36.313
		c8.087-5.951,24.085-9.373,35.717-12.221c-1.997,3.539-4.112,18.057-4.821,29.178c-11.885,2.624-23.731,8.387-32.009,12.068
		c-0.968,0.432-0.312,1.087,0.664,0.695c9.342-3.741,20.209-9.855,31.244-11.079c-0.225,4.266-0.219,7.882,0.124,9.935
		C591.139,314.763,577.912,318.057,566.733,325.515z"/>
	<path d="M515.565,295.322c-3.733-2.166-7.815-4.143-11.601-4.262c-5.758,2.862-13.252,12.482-13.252,12.482
		s8.397,3.046,11.48,5.389C506.346,304.773,513.295,297.699,515.565,295.322z"/>
	<path fill="#B4C19B" d="M502.062,306.728c-2.022-1.246-5.826-2.844-8.692-3.8c5.55-7.037,10.791-10.593,10.791-10.593
		s3.851,0.196,8.971,3.525C509.528,299.43,505.604,303.033,502.062,306.728z"/>
	<path d="M560.497,254.247c0,0-5.423,2.934-7.378,4.695c1.558,0.557,7.182,3.169,7.182,3.169s5.092-3.86,6.692-5.277
		C565.957,256.163,560.497,254.247,560.497,254.247z"/>
	<path fill="#798763" d="M560.244,260.713c-1.663-0.665-3.353-1.644-5.086-2.053c1.274-1.128,5.415-3.368,5.415-3.368
		s3.347,1.063,4.641,1.627C564.027,258.018,561.608,259.735,560.244,260.713z"/>
	<path fill="#F3EEC8" d="M504.256,272.058c1.497,0.062,18.017,3.682,26.842,6.845c10.76,3.861,17.182,7.729,19.246,10.585
		c5.595-2.692,15.646-7.232,16.594-7.935c0.937-0.703-21.39-9.722-25.93-10.598C528.192,268.468,504.256,272.058,504.256,272.058z"
		/>
	<path fill="#CFC98C" d="M552.258,293.34l14.42-7.936c0,0-8.884,29.438-9.601,30.849c-0.72,1.413-13.885,20.712-13.708,19.553
		C543.549,334.651,552.258,293.34,552.258,293.34z"/>
	<path fill="#BBC2A3" d="M599.122,280.979c-9.173,1.09-18.166,2.774-26.341,7.107c-0.051,0.31-0.096,0.613-0.149,0.945
		c-0.039,0.257-0.082,0.536-0.121,0.826c6.602-3.338,13.542-5.726,21.12-6.592c3.381-0.387,6.757-0.601,10.133-0.719
		c0.076-0.731,0.155-1.409,0.247-2.004C602.38,280.649,600.748,280.787,599.122,280.979z"/>
	<path fill="#BBC2A3" d="M598.937,279.334c1.795-0.189,3.586-0.318,5.373-0.419c0.692-3.177,2.036-7.027,2.036-7.027
		s-12.574,2.461-20.152,5.018c-7.578,2.556-12.456,6.032-12.456,6.032s-0.256,1.141-0.61,3.116
		C581.17,282.044,589.972,280.28,598.937,279.334z"/>
	<path fill="#BBC2A3" d="M593.997,286.462c-8.107,1.198-15.154,3.647-22.009,7.295c-0.439,3.501-0.841,7.062-0.841,7.062
		s11.64-6.159,18.273-8.014c6.636-1.854,13.767-2.616,13.767-2.616s0.112-2.129,0.301-4.574
		C600.309,285.751,597.139,286,593.997,286.462z"/>
	<path fill="#BBC2A3" d="M570.106,310.814c0,0,11.502-6.35,18.945-9.097c7.438-2.744,13.041-4.415,13.041-4.415
		s-6.501-1.175-18.6,2.544c-12.101,3.72-12.495,5.183-12.495,5.183L570.106,310.814z"/>
	<path fill="#BBC2A3" d="M506.948,336.957c0,0,12.448-9.248,21.272-14.488c8.83-5.241,12.872-7.663,12.872-7.663l1.589-7.035
		c0,0-6.878,4.526-17.238,11.052c-10.36,6.528-16.656,12.667-17.272,13.419C507.559,332.989,506.948,336.957,506.948,336.957z"/>
	<path fill="#BBC2A3" d="M510.459,327.174c0,0,8.189-6.522,17.278-12.398c9.089-5.877,14.948-9.204,14.948-9.204l1.454-4.009
		c0,0-4.611,1.642-11.528,6.518C517.244,318.911,510.459,327.174,510.459,327.174z"/>
	<path fill="#BBC2A3" d="M494.717,368.586c0,0,32.605-27.299,36.243-30.292c3.637-2.997,6.591-5.926,6.591-5.926l-1.232,6.92
		c0,0-12.239,8.945-19.193,13.967C510.172,358.275,494.717,368.586,494.717,368.586z"/>
	<path fill="#A2B69C" d="M474.126,287.349c-1.153,4.405-0.962,9.311,0.366,13.851l1.311,0.491c0,0-0.484-4.473-1.052-7.272
		c-0.574-2.795,1.058-7.96,1.058-7.96S475.156,286.819,474.126,287.349z"/>
	<path fill="#A2B69C" d="M471.083,288.84c-0.402,1.154-0.706,2.353-0.793,3.646c-0.166,2.429-0.065,4.875,0.371,7.27l1.921,0.723
		c-0.993-4.016-1.153-8.246-0.371-12.176C471.853,288.476,471.468,288.659,471.083,288.84z"/>
	<path fill="#A2B69C" d="M468.821,291.031c0.076-0.447,0.177-0.876,0.29-1.3c-0.056,0.022-0.107,0.046-0.163,0.07
		c-3.758,1.62-9.879,5.588-9.879,5.588l9.843,3.708C468.542,296.439,468.36,293.683,468.821,291.031z"/>
	<path fill="#667354" d="M512.881,278.974c0,0,6.07,1.782,10.127,2.577c4.051,0.796,8.028,2.083,8.028,2.083
		s-2.357,3.362-8.973,1.834C515.452,283.941,512.881,278.974,512.881,278.974z"/>
	<path fill="#CBCFB6" d="M449.186,355.134c0,0,10.374,4.854,16.721,7.487c9.73,4.041,22.504,7.868,22.504,7.868l-1.117,5.08
		c0,0-13.109-4.903-24.431-10.542C451.538,359.392,449.186,355.134,449.186,355.134z"/>
	<path fill="#CBCFB6" d="M428.736,332.855c0,0,11.381,8.528,24.698,15.321c13.32,6.789,24.656,11.246,24.656,11.246
		s-8.11,0.61-25.984-8.068c-17.865-8.681-23.365-15.283-23.365-15.283L428.736,332.855z"/>
	<path fill="#CBCFB6" d="M428.032,354.75c0,0,5.933,1.591,19.131,7.01c12.428,5.106,40.749,18.473,40.749,18.473l-0.186-2.062
		c0,0-18.329-8.919-38.814-18.002c-20.484-9.08-20.774-8.277-20.774-8.277L428.032,354.75z"/>
	<path fill="#F3F6E9" d="M444.145,304.427c0,0,15.868,6.509,27.618,11.538c11.755,5.025,26.785,9.376,26.785,9.376l-1.19,3.37
		c0,0-10.02-3.237-26.279-10.481C454.826,310.984,444.145,304.427,444.145,304.427z"/>
	<path fill="#F3F6E9" d="M434.069,312.352c0,0,17.041,9.733,26.271,14.881c9.224,5.148,23.165,11.188,23.165,11.188
		s-5.19-5.37-23.475-14.618C441.746,314.554,434.069,312.352,434.069,312.352z"/>
	<path fill="#F6F7E6" d="M489.834,282.19l13.668-4.156c0,0,0.166,5.444,3.094,8.094c2.931,2.653,7.134,4.654,7.134,4.654
		L489.834,282.19z"/>
	<path fill="#F6F7E6" d="M570.469,257.555c0,0,5.885,1.923,10.411,3.975c4.529,2.051,7.314,3.497,7.314,3.497
		s-2.99-0.124-7.525,2.225c-4.54,2.345-11.314,6.211-11.314,6.211L570.469,257.555z"/>
</g>
<g>
	<path d="M679.4,267.495c-10.805-6.414-39.883-17.221-53.174-19.525c-7.387,1.458-26.926,9.689-34.53,14.787
		c-10.968,1.411-29.973,6.208-31.407,11.359c-21.657,4.262-43.604,15.946-64.581,22.626c-10.577,23.487-7.528,49.551-5.812,64.698
		c15.407,3.547,42.999,18.139,64.533,26.818c23.795-10.388,37.852-32.584,49.675-41.772c10.296-3.803,23.843-9.21,28.22-15.093
		c2.754-2.857,19.874-11.931,40.53-16.947C671.535,307.516,673.04,280.273,679.4,267.495z"/>
	<path fill="#E3E5CD" d="M493.086,356.616c-0.126-8.269-0.366-16.522-0.022-24.691c8.827,7.786,38.462,24.472,52.581,28.87
		c1.007,0.314,1.553-0.89,0.551-1.214c-15.669-5.006-43.36-21.144-53.028-29.771c0.194-3.492,0.501-6.973,0.993-10.425
		c10.237,4.596,19.373,11.775,29.146,17.242c10.923,6.117,22.394,12.438,34.828,14.601c-0.338,1.63-0.608,3.275-0.894,4.916
		c-3.663-1.364-7.542-2.107-11.17-3.719c-5.055-2.249-10.118-4.342-15.055-6.871c-10.183-5.217-19.857-11.404-29.542-17.49
		c-0.886-0.558-1.927,0.727-1.035,1.288c9.392,5.9,18.777,11.813,28.569,17.02c4.878,2.592,9.882,4.917,14.991,7.01
		c4.146,1.695,8.54,2.73,12.684,4.318c0.056,0.114,0.132,0.212,0.225,0.288c-0.65,3.95-1.17,7.923-1.587,11.91
		c-1.319-0.404-2.757-1.1-3.8-1.392c-4.433-1.242-8.797-2.716-13.12-4.289c-8.296-3.018-16.335-6.725-24.147-10.844
		c-0.937-0.492-1.601,1.024-0.672,1.509c8.287,4.371,16.81,8.177,25.607,11.382c3.978,1.447,8.014,2.704,12.076,3.877
		c1.1,0.319,2.529,0.99,3.902,1.384c-0.368,3.799-0.647,7.606-0.819,11.422C533.793,374.403,514.516,362.908,493.086,356.616z"/>
	<path fill="#E3E5CD" d="M562.922,333.169c-11.244-2.174-20.889-6.551-31.013-11.916c-9.257-4.907-18.988-8.833-28.56-13.079
		c-0.099,0.935,1.322,1.918,7.454,4.859c4.999,2.398,13.095,5.84,21.795,10.45c9.722,5.154,19.069,9.162,29.809,11.269
		c-0.548,1.7-3.406,12.462-3.924,14.857c-12.321-2.128-23.663-8.47-34.501-14.491c-9.922-5.507-19.154-12.833-29.565-17.424
		c0.166-1.018,0.363-2.028,0.56-3.035c9.809,4.75,19.199,10.314,28.712,15.637c4.695,2.63,9.562,4.897,14.358,7.344
		c5.103,2.592,8.535,4.049,14.462,6.149c0.996,0.35,1.688-1.233,0.675-1.516c-5.544-1.53-23.714-10.649-28.822-13.49
		c-9.643-5.356-19.114-11.01-29.044-15.798c0.411-6.342,3.364-11.428,3.862-12.642c12.858,4.494,24.738,11.265,37.455,16.097
		c9.08,3.453,18.608,6.964,28.867,9.66C564.576,328.436,563.718,330.792,562.922,333.169z"/>
	<path fill="#CED5B8" d="M606.203,324.879c-12.456,7.055-42.676,31.929-43.244,32.341c-0.574,0.418-0.79,1.716,0.059,1.069
		c7.865-6.002,33.888-28.071,42.82-31.499c-1.091,5.599-2.124,11.217-3.019,16.863c-16.349,11.29-27.579,29.407-45.194,38.717
		c0.191-3.934,0.481-7.859,0.872-11.777c1.893-3.103,33.337-28.603,40.938-34.081c0.861-0.619,0.36-1.408-0.501-0.786
		c-8.031,5.788-38.451,30.493-40.133,32.002c0.664-5.843,1.598-11.645,2.824-17.385c4.344-3.973,24.164-19.687,30.417-22.391
		c0.968-0.418,0.43-1.348-0.475-0.796c-6.591,3.964-24.709,16.339-29.329,20.453c1.711-7.386,3.947-14.654,6.864-21.719
		c15.474-6.477,27.326-19.489,42.685-26.04C609.727,308.153,607.874,316.496,606.203,324.879z"/>
	<path fill="#A8C995" d="M567.116,323.145c-24.341-5.363-50.347-19.988-64.44-25.098c22.586-8.955,44.021-17.109,60.283-22.095
		c1.258,0.243,2.732,0.53,4.366,0.861c-7.297,1.761-14.462,4.173-21.522,6.688c-9.384,3.342-24.262,10.663-27.424,14.732
		c2.16,0.93,16.161,7.75,24.732,10.432c7.857,2.458,15.725,5.671,24.378,9.086c2.146-2.249,6.031-5.269,8.619-7.664
		c3.142-2.902,6.658-5.169,10.217-7.502c7.184-4.706,14.495-9.492,22.659-12.222c2.374,1.761,3.764,3.633,3.663,5.603
		C595.98,302.292,583.656,316.516,567.116,323.145z"/>
	<path fill="#E8EECD" d="M579.594,290.413c6.453,3.92,16.451,0.262,21.865-3.951c0.039-0.035,4.183,1.757,5.818,2.755
		c-7.387,2.665-14.065,6.952-20.659,11.214c-3.604,2.329-7.221,4.602-10.473,7.419c-2.951,2.557-5.637,5.35-8.836,7.605
		c-5.218-2.097-9.362-3.661-13.646-5.582c-2.079-6.557-3.238-20.342-2.65-26.494c6.613-2.303,13.367-4.348,20.203-5.753
		c1.077,0.231,2.217,0.478,3.37,0.737C571.996,282.831,575.358,287.833,579.594,290.413z"/>
	<path fill="#798763" d="M576.295,278.75c7.691,1.767,16.487,4.097,23.506,6.874c-3.994,2.881-8.67,4.366-13.567,4.575
		C580.736,290.441,572.131,284.598,576.295,278.75z"/>
	<path fill="#798763" d="M551.681,309.355c-2.214-0.572-22.757-7.865-30.395-11.621c5.972-4.713,15.249-9.041,23.821-12.225
		c1.407-0.523,2.824-1.037,4.242-1.542C548.727,288.54,550.286,305.856,551.681,309.355z"/>
	<path fill="#E5DEA2" d="M606.543,341.259c2.428-14.751,5.468-31.439,9.145-45.931c0.087-6.55-14.09-11.263-19.618-13.429
		c-9.643-3.778-20.42-5.938-30.676-7.944c0.242-2.67,17.708-8.352,26.411-8.794c0.011-0.001,33.475,5.428,43.562,17.624
		c-0.005,0.017-0.017,0.028-0.022,0.046c-3.069,15.441-5.857,43.561-6.388,46.696C620.023,337.695,606.709,341.165,606.543,341.259z
		"/>
	<path fill="#E8EECD" d="M605.423,265.19c-0.563-0.129-1.125-0.269-1.682-0.39c7.128-4.184,17.688-9.267,22.026-10.979
		c2.83,0.103,26.923,10.658,31.41,13.178c-3.654,0.826-7.26,2.071-10.636,3.671c-4.38,2.077-8.498,5.052-13.364,5.773
		c-2.349-1.727-5.044-3.251-7.921-4.63C629.992,262.003,611.007,262.839,605.423,265.19z"/>
	<path fill="#798763" d="M623.775,271.107c-4.712-2.113-9.893-3.803-15.106-5.138C614.982,264.647,626.636,264.616,623.775,271.107z
		"/>
	<path fill="#A8C995" d="M637.118,279.824c-0.686-0.703-1.438-1.373-2.217-2.028c3.187-0.768,6.113-2.357,9.019-3.911
		c4.881-2.611,11.395-5.393,16.853-6.374c-4.048-2.689-16.504-7.964-19.829-9.429c-2.743-1.205-11.607-4.541-15.207-5.353
		c-3.713,1.509-16.788,7.096-24.395,11.579c-2.006-0.391-3.98-0.734-5.893-1.032c10.102-4.763,24.355-11.123,30.682-13.192
		c12.768,2.674,34.923,11.943,48.187,17.65C662.004,270.796,643.379,276.167,637.118,279.824z"/>
	<path fill="#CED5B8" d="M632.591,327.122c0.236-1.747,0.47-3.548,0.698-5.387c11.39-6.193,22.659-10.563,32.006-14.306
		c0.97-0.391,1.181-1.348,0.141-1.156c-6.138,1.141-27.362,10.692-31.888,13.369c1.587-12.978,3.055-27.278,5.03-36.313
		c8.084-5.951,24.085-9.373,35.717-12.221c-2,3.539-4.113,18.057-4.821,29.178c-11.885,2.626-23.733,8.387-32.009,12.069
		c-0.968,0.432-0.315,1.086,0.661,0.693c9.345-3.741,20.208-9.855,31.244-11.079c-0.225,4.266-0.217,7.882,0.127,9.935
		C656.997,316.372,643.77,319.665,632.591,327.122z"/>
	<path d="M581.42,296.93c-3.733-2.166-7.812-4.142-11.598-4.261c-5.758,2.862-13.255,12.482-13.255,12.482s8.397,3.045,11.483,5.389
		C572.205,306.382,579.153,299.309,581.42,296.93z"/>
	<path fill="#B4C19B" d="M567.918,308.336c-2.02-1.246-5.823-2.842-8.689-3.8c5.547-7.037,10.788-10.591,10.788-10.591
		s3.854,0.194,8.976,3.525C575.386,301.039,571.465,304.641,567.918,308.336z"/>
	<path d="M626.352,255.855c0,0-5.423,2.934-7.376,4.695c1.558,0.558,7.182,3.169,7.182,3.169s5.091-3.86,6.692-5.276
		C631.815,257.77,626.352,255.855,626.352,255.855z"/>
	<path fill="#798763" d="M626.102,262.32c-1.665-0.664-3.353-1.643-5.086-2.052c1.274-1.129,5.415-3.37,5.415-3.37
		s3.345,1.065,4.641,1.629C629.885,259.627,627.466,261.343,626.102,262.32z"/>
	<path fill="#F3EEC8" d="M570.112,273.664c1.499,0.063,18.017,3.685,26.845,6.848c10.76,3.861,17.182,7.728,19.246,10.585
		c5.592-2.692,15.646-7.234,16.591-7.935c0.939-0.703-21.387-9.722-25.928-10.599C594.05,270.076,570.112,273.664,570.112,273.664z"
		/>
	<path fill="#CFC98C" d="M618.116,294.947l14.417-7.934c0,0-8.881,29.437-9.601,30.847c-0.717,1.415-13.882,20.712-13.705,19.553
		C609.406,336.26,618.116,294.947,618.116,294.947z"/>
	<path fill="#BBC2A3" d="M664.98,282.588c-9.17,1.089-18.166,2.772-26.341,7.106c-0.051,0.311-0.099,0.613-0.152,0.947
		c-0.039,0.257-0.079,0.536-0.118,0.826c6.599-3.339,13.542-5.726,21.123-6.592c3.379-0.387,6.754-0.602,10.13-0.72
		c0.073-0.731,0.155-1.408,0.248-2.004C668.238,282.256,666.609,282.394,664.98,282.588z"/>
	<path fill="#BBC2A3" d="M664.795,280.941c1.792-0.189,3.587-0.318,5.373-0.418c0.692-3.177,2.034-7.027,2.034-7.027
		s-12.571,2.46-20.15,5.018c-7.578,2.554-12.456,6.031-12.456,6.031s-0.256,1.141-0.61,3.117
		C647.025,283.651,655.827,281.889,664.795,280.941z"/>
	<path fill="#BBC2A3" d="M659.855,288.071c-8.107,1.198-15.156,3.647-22.009,7.296c-0.439,3.499-0.841,7.06-0.841,7.06
		s11.643-6.159,18.271-8.013c6.639-1.854,13.769-2.618,13.769-2.618s0.113-2.128,0.301-4.573
		C666.167,287.359,662.997,287.609,659.855,288.071z"/>
	<path fill="#BBC2A3" d="M635.967,312.422c0,0,11.5-6.35,18.94-9.096c7.438-2.746,13.044-4.416,13.044-4.416
		s-6.501-1.173-18.603,2.546c-12.099,3.72-12.493,5.182-12.493,5.182L635.967,312.422z"/>
	<path fill="#BBC2A3" d="M572.804,338.565c0,0,12.448-9.249,21.275-14.488c8.827-5.241,12.875-7.663,12.875-7.663l1.584-7.037
		c0,0-6.878,4.528-17.235,11.054c-10.36,6.526-16.656,12.666-17.275,13.418C573.414,334.598,572.804,338.565,572.804,338.565z"/>
	<path fill="#BBC2A3" d="M576.315,328.783c0,0,8.191-6.523,17.28-12.4c9.086-5.875,14.948-9.203,14.948-9.203l1.454-4.01
		c0,0-4.611,1.643-11.528,6.519C583.102,320.52,576.315,328.783,576.315,328.783z"/>
	<path fill="#BBC2A3" d="M560.573,370.195c0,0,32.608-27.299,36.246-30.293c3.637-2.997,6.588-5.924,6.588-5.924l-1.232,6.918
		c0,0-12.234,8.945-19.19,13.967C576.03,359.884,560.573,370.195,560.573,370.195z"/>
	<path fill="#A2B69C" d="M539.984,288.958c-1.153,4.404-0.962,9.31,0.366,13.85l1.311,0.492c0,0-0.484-4.474-1.052-7.272
		c-0.574-2.796,1.058-7.959,1.058-7.959S541.014,288.427,539.984,288.958z"/>
	<path fill="#A2B69C" d="M536.941,290.448c-0.405,1.156-0.703,2.353-0.793,3.646c-0.166,2.429-0.067,4.876,0.371,7.272l1.921,0.722
		c-0.993-4.016-1.153-8.245-0.371-12.175C537.712,290.083,537.326,290.266,536.941,290.448z"/>
	<path fill="#A2B69C" d="M534.679,292.639c0.076-0.446,0.174-0.875,0.289-1.3c-0.053,0.022-0.107,0.046-0.166,0.069
		c-3.755,1.621-9.876,5.589-9.876,5.589l9.843,3.709C534.398,298.046,534.215,295.29,534.679,292.639z"/>
	<path fill="#667354" d="M578.736,280.581c0,0,6.073,1.783,10.127,2.578c4.051,0.795,8.028,2.083,8.028,2.083
		s-2.354,3.36-8.97,1.833C581.31,285.549,578.736,280.581,578.736,280.581z"/>
	<path fill="#CBCFB6" d="M515.044,356.743c0,0,10.375,4.852,16.721,7.487c9.73,4.04,22.504,7.868,22.504,7.868l-1.117,5.08
		c0,0-13.108-4.903-24.431-10.542C517.396,360.999,515.044,356.743,515.044,356.743z"/>
	<path fill="#CBCFB6" d="M494.594,334.463c0,0,11.379,8.529,24.698,15.323c13.317,6.788,24.656,11.246,24.656,11.246
		s-8.107,0.61-25.984-8.069c-17.868-8.681-23.365-15.282-23.365-15.282L494.594,334.463z"/>
	<path fill="#CBCFB6" d="M493.888,356.359c0,0,5.936,1.591,19.134,7.009c12.428,5.106,40.749,18.473,40.749,18.473l-0.186-2.06
		c0,0-18.33-8.919-38.814-18.002c-20.484-9.082-20.774-8.277-20.774-8.277L493.888,356.359z"/>
	<path fill="#F3F6E9" d="M510.003,306.036c0,0,15.866,6.508,27.618,11.536c11.756,5.027,26.783,9.375,26.783,9.375l-1.187,3.37
		c0,0-10.023-3.237-26.279-10.48C520.682,312.592,510.003,306.036,510.003,306.036z"/>
	<path fill="#F3F6E9" d="M499.927,313.96c0,0,17.038,9.734,26.271,14.881c9.224,5.148,23.162,11.189,23.162,11.189
		s-5.187-5.368-23.472-14.618C507.604,316.163,499.927,313.96,499.927,313.96z"/>
	<path fill="#F6F7E6" d="M555.692,283.799l13.668-4.158c0,0,0.163,5.444,3.094,8.093c2.931,2.655,7.134,4.655,7.134,4.655
		L555.692,283.799z"/>
	<path fill="#F6F7E6" d="M636.327,259.163c0,0,5.885,1.924,10.411,3.976c4.526,2.051,7.311,3.495,7.311,3.495
		s-2.987-0.122-7.522,2.226c-4.54,2.343-11.317,6.211-11.317,6.211L636.327,259.163z"/>
</g>
<g>
	<path d="M736.206,252.219c-10.802-6.414-39.883-17.221-53.174-19.525c-7.387,1.458-26.923,9.689-34.53,14.785
		c-10.968,1.412-29.973,6.211-31.407,11.359c-21.657,4.265-43.604,15.947-64.578,22.628c-10.577,23.487-7.53,49.551-5.814,64.699
		c15.407,3.547,43,18.138,64.533,26.817c23.798-10.388,37.855-32.584,49.675-41.772c10.296-3.802,23.843-9.208,28.22-15.092
		c2.754-2.859,19.874-11.933,40.53-16.948C728.341,292.241,729.843,264.996,736.206,252.219z"/>
	<path fill="#E3E5CD" d="M549.892,341.342c-0.129-8.272-0.368-16.524-0.02-24.693c8.824,7.787,38.459,24.472,52.575,28.871
		c1.01,0.312,1.556-0.89,0.554-1.214c-15.669-5.006-43.36-21.144-53.028-29.771c0.194-3.494,0.501-6.975,0.996-10.427
		c10.234,4.598,19.37,11.775,29.146,17.243c10.917,6.117,22.391,12.438,34.822,14.601c-0.332,1.63-0.605,3.274-0.892,4.916
		c-3.663-1.365-7.542-2.107-11.17-3.718c-5.055-2.25-10.118-4.343-15.052-6.872c-10.186-5.215-19.86-11.403-29.545-17.488
		c-0.883-0.56-1.924,0.727-1.035,1.287c9.393,5.9,18.777,11.813,28.569,17.02c4.878,2.592,9.882,4.916,14.99,7.01
		c4.147,1.695,8.54,2.731,12.684,4.318c0.056,0.114,0.132,0.212,0.225,0.29c-0.65,3.948-1.17,7.92-1.587,11.909
		c-1.319-0.404-2.757-1.099-3.803-1.392c-4.431-1.242-8.794-2.716-13.117-4.289c-8.296-3.018-16.338-6.725-24.15-10.844
		c-0.934-0.492-1.598,1.024-0.672,1.511c8.29,4.37,16.813,8.176,25.612,11.381c3.975,1.445,8.011,2.703,12.073,3.878
		c1.103,0.319,2.529,0.987,3.902,1.383c-0.368,3.799-0.647,7.608-0.819,11.422C590.599,359.127,571.321,347.632,549.892,341.342z"/>
	<path fill="#E3E5CD" d="M619.725,317.893c-11.241-2.174-20.89-6.551-31.011-11.917c-9.257-4.906-18.988-8.831-28.563-13.076
		c-0.096,0.935,1.322,1.918,7.457,4.859c4.999,2.398,13.095,5.84,21.792,10.449c9.725,5.155,19.072,9.163,29.815,11.269
		c-0.551,1.7-3.409,12.462-3.927,14.857c-12.318-2.127-23.663-8.47-34.501-14.491c-9.921-5.506-19.154-12.834-29.568-17.425
		c0.169-1.017,0.366-2.027,0.563-3.034c9.812,4.75,19.199,10.314,28.712,15.639c4.695,2.629,9.562,4.897,14.361,7.343
		c5.103,2.592,8.532,4.048,14.462,6.148c0.996,0.35,1.685-1.232,0.672-1.515c-5.544-1.53-23.711-10.65-28.819-13.49
		c-9.646-5.357-19.114-11.011-29.047-15.799c0.411-6.342,3.364-11.426,3.865-12.643c12.855,4.495,24.735,11.266,37.453,16.099
		c9.08,3.453,18.611,6.963,28.867,9.661C621.379,313.16,620.524,315.516,619.725,317.893z"/>
	<path fill="#CED5B8" d="M663.008,309.602c-12.456,7.056-42.676,31.93-43.244,32.341c-0.574,0.419-0.788,1.717,0.059,1.07
		c7.868-6,33.888-28.071,42.82-31.499c-1.091,5.599-2.124,11.218-3.016,16.863c-16.352,11.29-27.582,29.407-45.196,38.718
		c0.191-3.934,0.481-7.861,0.872-11.779c1.893-3.103,33.337-28.601,40.938-34.08c0.861-0.619,0.36-1.408-0.501-0.785
		c-8.031,5.786-38.448,30.491-40.13,32.002c0.661-5.843,1.598-11.646,2.824-17.386c4.341-3.975,24.158-19.687,30.414-22.391
		c0.97-0.418,0.43-1.346-0.475-0.796c-6.591,3.965-24.712,16.339-29.329,20.455c1.713-7.386,3.95-14.656,6.864-21.721
		c15.474-6.477,27.326-19.488,42.684-26.038C666.533,292.878,664.679,301.22,663.008,309.602z"/>
	<path fill="#A8C995" d="M623.922,307.869c-24.341-5.363-50.35-19.986-64.443-25.096c22.589-8.957,44.024-17.109,60.286-22.096
		c1.258,0.243,2.734,0.53,4.366,0.862c-7.297,1.76-14.462,4.172-21.522,6.687c-9.387,3.342-24.262,10.663-27.421,14.733
		c2.157,0.928,16.158,7.748,24.732,10.431c7.854,2.459,15.722,5.671,24.375,9.086c2.146-2.249,6.028-5.268,8.619-7.664
		c3.142-2.902,6.655-5.169,10.217-7.501c7.184-4.708,14.495-9.494,22.659-12.223c2.374,1.76,3.764,3.632,3.66,5.602
		C652.786,287.017,640.462,301.24,623.922,307.869z"/>
	<path fill="#E8EECD" d="M636.403,275.136c6.45,3.922,16.448,0.262,21.863-3.949c0.042-0.037,4.186,1.757,5.818,2.754
		c-7.387,2.665-14.065,6.952-20.656,11.214c-3.604,2.329-7.224,4.602-10.476,7.419c-2.951,2.558-5.64,5.351-8.836,7.605
		c-5.218-2.097-9.365-3.661-13.646-5.582c-2.076-6.556-3.241-20.342-2.65-26.493c6.613-2.302,13.367-4.349,20.203-5.754
		c1.08,0.23,2.217,0.478,3.37,0.738C628.802,267.555,632.167,272.558,636.403,275.136z"/>
	<path fill="#798763" d="M633.101,263.475c7.691,1.765,16.49,4.096,23.506,6.872c-3.994,2.882-8.67,4.365-13.57,4.577
		C637.542,275.165,628.937,269.322,633.101,263.475z"/>
	<path fill="#798763" d="M608.49,294.079c-2.219-0.572-22.76-7.864-30.4-11.621c5.975-4.713,15.255-9.04,23.823-12.225
		c1.404-0.523,2.824-1.037,4.245-1.542C605.533,273.266,607.089,290.58,608.49,294.079z"/>
	<path fill="#E5DEA2" d="M663.349,325.983c2.43-14.751,5.468-31.438,9.145-45.931c0.09-6.55-14.09-11.262-19.618-13.428
		c-9.643-3.779-20.423-5.94-30.676-7.945c0.242-2.669,17.708-8.352,26.411-8.793c0.011,0,33.475,5.429,43.562,17.625
		c-0.008,0.017-0.017,0.028-0.02,0.045c-3.072,15.44-5.86,43.561-6.388,46.696C676.829,322.419,663.515,325.889,663.349,325.983z"/>
	<path fill="#E8EECD" d="M662.229,249.912c-0.563-0.128-1.128-0.267-1.682-0.388c7.128-4.183,17.691-9.266,22.026-10.978
		c2.83,0.1,26.923,10.657,31.41,13.175c-3.654,0.827-7.26,2.071-10.636,3.672c-4.38,2.077-8.498,5.054-13.364,5.771
		c-2.346-1.724-5.041-3.247-7.921-4.629C686.798,246.726,667.813,247.563,662.229,249.912z"/>
	<path fill="#798763" d="M680.578,255.831c-4.709-2.111-9.891-3.802-15.103-5.138C671.788,249.372,683.442,249.34,680.578,255.831z"
		/>
	<path fill="#A8C995" d="M693.926,264.55c-0.686-0.703-1.44-1.374-2.22-2.028c3.187-0.769,6.113-2.359,9.022-3.913
		c4.88-2.61,11.392-5.392,16.85-6.373c-4.048-2.69-16.504-7.964-19.829-9.431c-2.745-1.206-11.606-4.542-15.207-5.352
		c-3.71,1.508-16.791,7.096-24.395,11.578c-2.006-0.392-3.98-0.735-5.896-1.035c10.107-4.76,24.358-11.121,30.687-13.189
		c12.768,2.673,34.918,11.943,48.184,17.65C718.81,255.521,700.185,260.891,693.926,264.55z"/>
	<path fill="#CED5B8" d="M689.397,311.846c0.239-1.746,0.472-3.547,0.7-5.387c11.387-6.192,22.656-10.563,32.004-14.304
		c0.973-0.392,1.181-1.349,0.138-1.157c-6.135,1.141-27.359,10.691-31.885,13.369c1.584-12.978,3.055-27.278,5.03-36.313
		c8.084-5.951,24.085-9.373,35.717-12.221c-1.997,3.54-4.113,18.058-4.821,29.179c-11.885,2.624-23.731,8.385-32.009,12.068
		c-0.968,0.432-0.315,1.087,0.664,0.693c9.342-3.741,20.209-9.855,31.244-11.078c-0.225,4.266-0.22,7.882,0.124,9.935
		C713.803,301.095,700.576,304.389,689.397,311.846z"/>
	<path d="M638.229,281.656c-3.736-2.166-7.817-4.145-11.601-4.262c-5.758,2.861-13.252,12.48-13.252,12.48s8.394,3.048,11.48,5.39
		C629.01,291.106,635.959,284.033,638.229,281.656z"/>
	<path fill="#B4C19B" d="M624.726,293.061c-2.025-1.246-5.826-2.844-8.695-3.802c5.553-7.037,10.794-10.59,10.794-10.59
		s3.848,0.194,8.971,3.523C632.192,285.764,628.268,289.366,624.726,293.061z"/>
	<path d="M683.161,240.58c0,0-5.423,2.933-7.378,4.694c1.558,0.557,7.182,3.17,7.182,3.17s5.091-3.861,6.692-5.277
		C688.621,242.496,683.161,240.58,683.161,240.58z"/>
	<path fill="#798763" d="M682.908,247.046c-1.662-0.665-3.353-1.644-5.086-2.054c1.274-1.128,5.412-3.368,5.412-3.368
		s3.35,1.063,4.644,1.627C686.691,244.351,684.272,246.067,682.908,247.046z"/>
	<path fill="#F3EEC8" d="M626.92,258.389c1.496,0.062,18.017,3.684,26.842,6.848c10.757,3.859,17.182,7.727,19.246,10.584
		c5.595-2.692,15.646-7.232,16.591-7.936c0.94-0.703-21.387-9.72-25.928-10.598C650.856,254.8,626.92,258.389,626.92,258.389z"/>
	<path fill="#CFC98C" d="M674.922,279.672l14.417-7.935c0,0-8.881,29.437-9.598,30.847c-0.72,1.414-13.888,20.712-13.708,19.555
		C666.212,320.983,674.922,279.672,674.922,279.672z"/>
	<path fill="#BBC2A3" d="M721.786,267.312c-9.173,1.09-18.166,2.772-26.341,7.106c-0.051,0.311-0.099,0.615-0.149,0.947
		c-0.042,0.258-0.081,0.535-0.121,0.827c6.602-3.339,13.542-5.727,21.12-6.594c3.381-0.387,6.757-0.601,10.132-0.72
		c0.076-0.731,0.155-1.406,0.248-2.003C725.044,266.98,723.412,267.118,721.786,267.312z"/>
	<path fill="#BBC2A3" d="M721.601,265.666c1.795-0.19,3.587-0.318,5.37-0.419c0.692-3.177,2.039-7.027,2.039-7.027
		s-12.574,2.46-20.152,5.018c-7.578,2.554-12.456,6.032-12.456,6.032s-0.259,1.141-0.61,3.114
		C703.831,268.376,712.635,266.613,721.601,265.666z"/>
	<path fill="#BBC2A3" d="M716.661,272.795c-8.107,1.2-15.156,3.647-22.009,7.296c-0.439,3.501-0.841,7.062-0.841,7.062
		s11.64-6.159,18.273-8.016c6.636-1.854,13.767-2.615,13.767-2.615s0.113-2.13,0.301-4.575
		C722.973,272.084,719.803,272.333,716.661,272.795z"/>
	<path fill="#BBC2A3" d="M692.77,297.146c0,0,11.502-6.35,18.945-9.095c7.438-2.745,13.041-4.418,13.041-4.418
		s-6.501-1.173-18.6,2.544c-12.101,3.722-12.495,5.184-12.495,5.184L692.77,297.146z"/>
	<path fill="#BBC2A3" d="M629.612,323.289c0,0,12.448-9.248,21.272-14.488c8.83-5.241,12.872-7.662,12.872-7.662l1.587-7.037
		c0,0-6.878,4.528-17.235,11.055c-10.36,6.526-16.656,12.664-17.272,13.417C630.22,319.322,629.612,323.289,629.612,323.289z"/>
	<path fill="#BBC2A3" d="M633.123,313.507c0,0,8.189-6.522,17.278-12.398c9.089-5.876,14.948-9.204,14.948-9.204l1.454-4.009
		c0,0-4.611,1.64-11.528,6.518C639.908,305.244,633.123,313.507,633.123,313.507z"/>
	<path fill="#BBC2A3" d="M617.382,354.919c0,0,32.605-27.299,36.243-30.292c3.637-2.999,6.591-5.925,6.591-5.925l-1.232,6.92
		c0,0-12.24,8.945-19.193,13.966C632.836,344.609,617.382,354.919,617.382,354.919z"/>
	<path fill="#A2B69C" d="M596.79,273.682c-1.153,4.405-0.962,9.31,0.366,13.85l1.311,0.492c0,0-0.484-4.473-1.052-7.272
		c-0.574-2.795,1.058-7.959,1.058-7.959S597.82,273.152,596.79,273.682z"/>
	<path fill="#A2B69C" d="M593.747,275.171c-0.402,1.155-0.706,2.353-0.793,3.647c-0.166,2.428-0.065,4.875,0.371,7.269l1.921,0.724
		c-0.993-4.016-1.153-8.246-0.371-12.176C594.517,274.807,594.132,274.99,593.747,275.171z"/>
	<path fill="#A2B69C" d="M591.485,277.364c0.076-0.447,0.174-0.876,0.289-1.301c-0.056,0.024-0.107,0.048-0.163,0.07
		c-3.761,1.622-9.879,5.589-9.879,5.589l9.843,3.708C591.204,282.771,591.024,280.016,591.485,277.364z"/>
	<path fill="#667354" d="M635.542,265.306c0,0,6.073,1.782,10.127,2.577c4.053,0.796,8.028,2.083,8.028,2.083
		s-2.355,3.36-8.97,1.834C638.116,270.274,635.542,265.306,635.542,265.306z"/>
	<path fill="#CBCFB6" d="M571.85,341.467c0,0,10.375,4.852,16.718,7.487c9.733,4.039,22.507,7.866,22.507,7.866l-1.117,5.08
		c0,0-13.108-4.901-24.434-10.54C574.199,345.725,571.85,341.467,571.85,341.467z"/>
	<path fill="#CBCFB6" d="M551.399,319.188c0,0,11.381,8.527,24.698,15.32c13.32,6.791,24.656,11.248,24.656,11.248
		s-8.11,0.611-25.984-8.069c-17.868-8.68-23.365-15.282-23.365-15.282L551.399,319.188z"/>
	<path fill="#CBCFB6" d="M550.696,341.083c0,0,5.933,1.591,19.131,7.009c12.428,5.105,40.749,18.473,40.749,18.473l-0.186-2.061
		c0,0-18.329-8.919-38.814-18.002c-20.484-9.08-20.774-8.277-20.774-8.277L550.696,341.083z"/>
	<path fill="#F3F6E9" d="M566.809,290.76c0,0,15.866,6.509,27.618,11.537c11.753,5.026,26.786,9.376,26.786,9.376l-1.19,3.368
		c0,0-10.023-3.235-26.279-10.481C577.487,297.316,566.809,290.76,566.809,290.76z"/>
	<path fill="#F3F6E9" d="M556.733,298.684c0,0,17.041,9.734,26.271,14.882c9.224,5.147,23.165,11.187,23.165,11.187
		s-5.19-5.368-23.475-14.618C564.41,300.887,556.733,298.684,556.733,298.684z"/>
	<path fill="#F6F7E6" d="M612.498,268.523l13.668-4.156c0,0,0.163,5.443,3.094,8.093c2.931,2.654,7.134,4.655,7.134,4.655
		L612.498,268.523z"/>
	<path fill="#F6F7E6" d="M693.133,243.887c0,0,5.885,1.924,10.411,3.975c4.529,2.051,7.311,3.496,7.311,3.496
		s-2.99-0.122-7.522,2.227c-4.54,2.345-11.317,6.211-11.317,6.211L693.133,243.887z"/>
</g>
<g>
	<path fill-rule="evenodd" clip-rule="evenodd" d="M461.802,310.488c-5.263-12.993-15.238-24.016-27.002-32.043
		c-6.298-4.297-13.46-7.394-20.791-9.795c-4.076-1.336-8.279-2.387-12.552-2.999c-4.031-0.58-9.055-0.976-11.646-0.701
		c0.233-0.747-0.259-1.269-0.366-1.436c0.295-0.869-0.225-1.744-0.844-2.429c0.58-1.041,0.771-2.425-0.056-3.017
		c-0.627-0.451-1.308-0.866-2.177-1.011c1.663-1.952,3.314-3.834,4.518-6.093c1.288-2.399,2.059-4.937,3.609-7.232
		c1.921-2.85,4.585-3.094,7.525-4.168c1.37-0.505,1.952-1.401,1.651-2.72c-1.572-6.955-15.747-7.265-21.092-5.393
		c-3.215,1.129-5.84,2.509-9.353,2.334c-2.906-0.146-5.44-0.139-8.312,0.461c-4.141,0.869-8.433,3.194-10.177,7.066
		c-0.779,1.74-1.685,4.678,0.588,5.705c1.035,0.473,2.253-0.058,3.218-0.474c0.625-0.264,1.198-0.636,1.767-1.023
		c0.034,0.029,0.053,0.064,0.084,0.09c2.869,2.009,4.551,5.154,7.407,7.214c3.111,2.245,6.594,3.989,9.367,6.642
		c0.02,0.018,0.045,0.024,0.067,0.042c-0.509,0.626-0.748,1.4-0.501,2.386c0.022,0.087,0.068,0.157,0.113,0.225
		c-0.816,1.142-0.965,2.543,0.194,3.947c0.005,0.004,0.005,0.006,0.014,0.014c-0.067,0.134-0.143,0.262-0.191,0.408
		c-0.504,1.697,0.203,3.695,2.18,3.893c0,0.012-0.546,0.715-1.322,1.775c-16.307,22.368-28.743,53.422-15.286,79.043
		c6.436,12.258,20.453,20.729,34.856,21.352c10.4,0.451,20.293-4.101,29.649-9.277c13.289-4.322,30.037-1.716,37.458-15.669
		C470.43,336.26,466.21,321.367,461.802,310.488z"/>
	<path fill-rule="evenodd" clip-rule="evenodd" fill="#7A624A" d="M387.621,260.5c-1.755-0.94-3.592-0.701-5.339-0.525
		c-1.103,0.116-3.35,0.822-4.281,1.428c0.444-1.221,1.246-2.443,4.169-3.052C385.089,257.748,389.368,258.52,387.621,260.5z"/>
	<path fill-rule="evenodd" clip-rule="evenodd" fill="#7A624A" d="M389.37,266.82c-4.402,0.564-6.681,2.243-8.298,3.477
		c-0.011,0.007-1.159-0.311-0.987-1.114c0.172-0.805,0.669-1.636,2.841-2.439c2.174-0.799,4.853-0.809,5.677-0.756
		C389.421,266.042,389.711,266.53,389.37,266.82z"/>
	<path fill-rule="evenodd" clip-rule="evenodd" fill="#D1BC95" d="M369.533,252.181c-3.117-2.104-4.712-5.256-7.649-7.481
		c1.331-0.854,4.754-2.492,6.352-2.862c0.996-0.226,0.591-0.872-1.089-0.565c-3.559,0.652-6.234,2.232-9.331,3.961
		c-2.807,1.57-2.425-1.314-1.885-2.816c0.83-2.33,2.878-4.022,5.05-5.215c4.16-2.28,8.813-2.087,13.339-1.861
		c4.622,0.234,8.692-3.091,13.26-3.492c2.982-0.259,6.299,0.605,9.083,1.428c1.826,0.542,3.747,1.383,4.821,2.947
		c1.254,1.838-4.045,3.171-5.044,3.685c-2.295,1.186-3.876,3.664-4.912,5.839c-1.933,4.072-3.274,7.739-6.934,11.206
		c-0.25,0.01-0.492,0.027-0.72,0.052c2.512-3.914,3.117-8.997,3.513-13.275c0.09-0.953-0.478-1.16-0.669-0.211
		c-0.914,4.407-1.778,9.425-4.47,13.75c-0.506,0.101-1.024,0.22-1.564,0.367c-0.861-4.561-5.083-7.446-7.41-11.315
		c-0.492-0.826-1.384-0.38-0.883,0.452c2.256,3.757,5.927,7.881,6.819,11.397c-0.304,0.086-0.636,0.256-0.799,0.376
		C376.208,256.495,372.534,254.208,369.533,252.181z"/>
	<path fill-rule="evenodd" clip-rule="evenodd" fill="#7A624A" d="M382.529,260.856c3.922-0.456,6.355,0.669,5.713,2.083
		c-1.603-0.338-5.938-0.504-10.132,2.214C376.672,263.028,380.675,261.07,382.529,260.856z"/>
	<path fill-rule="evenodd" clip-rule="evenodd" fill="#7A624A" d="M378.307,266.569c0.383-0.677,1.511-1.297,2.183-1.664
		c0.951-0.525,3.629-1.277,6.102-1.331c2.464-0.055,2.191,1.415,2.191,1.415c-3.013-0.121-7.494,0.699-9.111,2.872
		c-0.211,0.284-0.357,0.619-0.47,0.971C378.203,268.346,377.739,267.552,378.307,266.569z"/>
	<path fill-rule="evenodd" clip-rule="evenodd" fill="#D1BC95" d="M463.8,338.291c-1.277,15.932-14.796,17.446-27.714,19.784
		c2.146-1.219,5.995-3.705,7.722-5.006c1.614-1.21,0.309-2.74-1.494-1.813c-12.158,6.223-25.005,15.083-38.673,17.796
		c-17.353,3.449-33.598-8.634-40.158-22.842c-10.695-23.156,4.183-54.56,17.126-73.076c1.657-2.369,4.712-3.521,7.902-4.297
		c4.366-1.066,7.514-0.892,10.18-0.602c8.262,0.899,16.231,3.55,23.702,6.844c13.139,5.789,23.798,15.428,31.416,27.013
		C460.703,312.578,464.804,325.747,463.8,338.291z"/>
	<path fill-rule="evenodd" clip-rule="evenodd" d="M395.658,237.133c-4.554-3.329-8.509-0.501-13.536,0.537
		c-0.998,0.205-0.889,0.902,0.11,0.696c4.518-0.937,8.411-3.001,12.569,0.042C395.596,238.989,396.445,237.712,395.658,237.133z"/>
	<path fill-rule="evenodd" clip-rule="evenodd" d="M419.107,308.749c-3.519-1.477-8.082-1.587-11.812-1.075
		c-1.578-3.641-3.559-8.093-5.151-11.73c4.374-0.547,6.664,3.257,7.424,4.37c0.754,1.111,5.246-4.155,4.16-5.595
		c-2.824-3.761-9.235-5.362-14.048-4.376c-1.668-3.867-4.127-10.099-4.627-11.249c-0.501-1.148-4.827,1.332-4.293,2.495
		c0.289,0.631,2.956,6.668,4.543,10.332c-7.207,3.674-12.023,13.017-4.059,20.117c2.726,2.429,7.232,2.69,10.706,2.412
		c1.064-0.087,2.085-0.201,3.078-0.321c1.705,4.014,7.162,18.984,8.366,22.337c-1.806,0.781-3.516,1.122-5.474,1.495
		c-1.814,0.25-3.654,0.318-5.376-0.229c-4.366-1.381-3.311-7.448-3.125-8.803c0.242-1.783-7.854-1.933-8.158,0.667
		c-0.782,6.651,2.658,11.125,6.774,12.993c5.631,2.554,11.666,2.045,17.258-0.467c0.686,1.977,3.865,11.142,3.949,11.459
		c0.312,1.21,5.364-1.141,4.968-2.553c-0.146-0.519-3.68-9.923-4.236-11.505c2.754-1.809,5.007-3.937,6.878-6.349
		C433.864,324.128,429,312.887,419.107,308.749z M397.635,297.218c1.637,3.716,3.286,7.429,4.912,11.154
		C395.525,310.23,390.825,301.949,397.635,297.218z M417.72,333.813c-0.74-2.022-1.485-4.042-2.234-6.056
		c-1.764-4.747-3.668-9.433-5.634-14.097c3.705-0.175,7.066,0.419,10.526,3.734C426.074,322.846,423.048,329.565,417.72,333.813z"/>
	<path fill-rule="evenodd" clip-rule="evenodd" fill="#E8D5B0" d="M447.639,322.468c-1.184-8.998-0.754-21.297,3.243-19.01
		c4,2.287,11.052,18.097,10.386,29.272C460.607,343.903,450.036,340.781,447.639,322.468z"/>
	<path fill-rule="evenodd" clip-rule="evenodd" fill="#E8D5B0" d="M430.238,281.433c4.546,2.561,9.199,6.046,11.983,10.639
		c2.777,4.592-4.903,4.007-9.272,0.063C428.578,288.193,423.259,277.498,430.238,281.433z"/>
	<path fill-rule="evenodd" clip-rule="evenodd" fill="#E8D5B0" d="M361.339,238.41c2.242-1.474,5.758-2.754,9.319-2.397
		c3.564,0.354-1.918,3.046-6.09,5.146C360.402,243.261,355.28,242.39,361.339,238.41z"/>
	<path fill-rule="evenodd" clip-rule="evenodd" fill="#E8D5B0" d="M365.131,310.368c1.3-5.286,4.099-11.372,6.661-15.431
		c2.562-4.064,2.672,9.256,0.191,18.812c-2.478,9.554-6.672,21.815-8.251,18.688C362.157,329.313,362.554,320.81,365.131,310.368z"
		/>
	<path fill-rule="evenodd" clip-rule="evenodd" fill="#B29975" d="M391.5,355.171c5.941-0.288,20.594-0.014,24.805,1.934
		c4.214,1.952-5.983,9.475-18.408,9.674C385.466,366.978,370.262,356.199,391.5,355.171z"/>
	<path fill-rule="evenodd" clip-rule="evenodd" fill="#B29975" d="M445.782,352.767c2.431-1.148,11.674-6.12,13.455-5.944
		c1.781,0.179-2.588,5.23-7.499,6.625C446.837,354.85,443.422,353.88,445.782,352.767z"/>
	<path fill-rule="evenodd" clip-rule="evenodd" fill="#B29975" d="M364.863,243.663c0.731-0.288,4.661-2.077,7.499-2.843
		c2.844-0.764,6.326-1.127,8.915-1.409c2.582-0.284-5.139,3.15-8.054,3.869C370.307,244.001,360.599,245.349,364.863,243.663z"/>
	<path fill-rule="evenodd" clip-rule="evenodd" fill="#B29975" d="M389.207,237.678c1.581-0.198,4.374,0.4,5.227,0.987
		c0.864,0.592,0.329,1.979-0.734,2.339C392.636,241.366,384.985,238.21,389.207,237.678z"/>
</g>
<g>
	<polygon points="54.389,341.4 79.664,341.594 148.459,285.899 195.726,308.13 230.36,278.411 274.588,284.495 280.673,262.031 
		317.411,242.375 311.09,232.313 270.844,254.074 266.164,270.456 226.756,262.471 194.089,288.474 146.121,263.669 	"/>
	
		<linearGradient id="SVGID_1_" gradientUnits="userSpaceOnUse" x1="-7266.334" y1="143.3632" x2="-7003.458" y2="143.3632" gradientTransform="matrix(-0.9983 0.058 -0.0293 -0.5041 -6932.9907 774.2847)">
		<stop  offset="0" style="stop-color:#FFBD00"/>
		<stop  offset="1" style="stop-color:#E77E10"/>
	</linearGradient>
	<polygon fill="url(#SVGID_1_)" points="56.982,340.919 75.557,340.919 148.692,282.002 195.76,303.672 229.552,274.584 
		271.857,280.504 278.718,259.991 314.483,240.871 310.547,234.595 272.285,255.251 267.204,272.181 226.914,264.732 
		194.744,291.144 146.245,266.486 	"/>
	<g>
		<path fill-rule="evenodd" clip-rule="evenodd" d="M52.088,266.682v75.67h2.923l2.712-1.979c0,0,0-73.691,0.005-73.691H52.088z"/>
		<polygon fill-rule="evenodd" clip-rule="evenodd" points="42.842,278.537 54.614,255.485 66.389,278.537 		"/>
		<polygon fill-rule="evenodd" clip-rule="evenodd" points="368.99,337.397 54.074,337.397 52.088,342.352 367.358,342.331 		"/>
		<polygon fill-rule="evenodd" clip-rule="evenodd" points="354.157,331.509 382.996,340.919 354.157,350.332 		"/>
	</g>
</g>
</svg>
