<?xml version="1.0" encoding="utf-8"?>
<!-- Generator: Adobe Illustrator 16.0.0, SVG Export Plug-In . SVG Version: 6.00 Build 0)  -->
<!DOCTYPE svg PUBLIC "-//W3C//DTD SVG 1.1//EN" "http://www.w3.org/Graphics/SVG/1.1/DTD/svg11.dtd">
<svg version="1.1" id="Layer_1" xmlns="http://www.w3.org/2000/svg" xmlns:xlink="http://www.w3.org/1999/xlink" x="0px" y="0px"
	 width="60px" height="60px" viewBox="0 0 60 60" enable-background="new 0 0 60 60" xml:space="preserve">
<g>
	<path opacity="0.15" fill="#262626" d="M-25.6,68.096l0.684-0.238c-0.122,0.118-0.24,0.238-0.403,0.362l-2.503,2.176l-7.674,4.444
		c0.485,0.043,1.051,0.043,1.576,0.085c-0.403,0.196,0,0.32,1.088,0.32c1.01,0,1.616-0.124,1.697-0.362c0.364,0,0.728,0,1.091-0.043
		l4.968-3.713l4.887-3.151l-0.766,0.686l-1.373,1.659l-2.789,4.726c1.374-0.121,2.707-0.206,3.959-0.323l-0.161,0.202
		c-0.041,0.157,0.04,0.281,0.364,0.32c1.09-0.124,2.057-0.32,2.867-0.522l0.041-3.276l0.281-1.449
		c1.332-0.813,2.424-1.536,3.232-2.183c0.117-0.041,0.281-0.124,0.4-0.198c1.213-0.206,2.342-0.447,3.436-0.813l5.494-1.455
		c0.281-0.119,0.482-0.16,0.482-0.28c0.08-0.242,0.123-0.443,0.123-0.646c-0.043-0.082-0.043-0.2-0.082-0.324
		c-0.082-0.203-0.121-0.404-0.285-0.564l-0.199-0.529c0.363-0.199,0.443-0.317,0.281-0.44l-1.088-0.28l0.525-1.416
		c0.039-0.405-0.566-0.606-1.861-0.644h-0.041c-0.078,0-0.158,0-0.242,0c-0.201-0.042-0.404-0.042-0.604,0
		c-0.971,0-2.021,0.238-3.191,0.644c-0.727,0.284-1.291,0.483-1.654,0.768c-1.334,0.486-2.586,0.929-3.717,1.455
		c-0.365,0.161-0.488,0.282-0.365,0.404c0.041,0.039,0.084,0.039,0.203,0.079c-0.119,0-0.242,0.041-0.363,0.084
		c-0.242,0.079-0.566,0.198-0.846,0.323c-0.125,0.036-0.162,0.075-0.285,0.156c-0.283,0.124-0.566,0.327-0.889,0.526
		c-0.402,0.205-0.768,0.367-1.09,0.524c-1.295,0.403-2.343,0.807-3.151,1.253l-2.099,1.176l-1.415,0.561l-0.119,0.442
		c0.039,0,0.119,0,0.158,0c0.203,0,0.366,0,0.568,0l0.483-0.2c0.04,0,0,0-0.242,0c0.081,0,0.164-0.038,0.242-0.118L-25.6,68.096z
		 M-9.165,64.825c0.361-0.284,0.891-0.604,1.533-0.845l0.648,1.05c-0.809,0.28-1.617,0.561-2.424,0.927l-1.736,0.526
		C-10.216,65.957-9.567,65.391-9.165,64.825z"/>
	<g>
		<path fill="#5E432C" d="M-25.463,20.21c-0.079,0.021-0.18,0.059-0.281,0.082c0,0,0,0-0.02,0c-0.141,0.059-0.261,0.117-0.405,0.177
			c-0.927,0.486-1.673,1.637-2.241,3.437l-0.644,2.905l1.374-2.688c0.14-0.906,0.625-1.654,1.473-2.257
			c0.686,0.038,1.21,0.284,1.574,0.707c0.767,0.504,1.269,1.615,1.492,3.37c-0.423,2.06-0.122,3.472,0.93,4.24
			c0.321,1.105,0,2.119-0.988,2.986c0.222,0.021,0.422,0.021,0.605,0c0.302-0.021,0.544-0.061,0.765-0.14
			c0.14-0.063,0.264-0.124,0.365-0.184c0.121-0.081,0.22-0.184,0.304-0.28c0.261-0.344,0.341-0.85,0.28-1.475
			c-0.323-1.915-0.787-3.756-1.412-5.512c0.081-0.986-0.041-1.978-0.383-2.944c-0.546-1.517-1.252-2.325-2.14-2.445
			C-25.019,20.171-25.239,20.171-25.463,20.21L-25.463,20.21z M-24.834,20.351c0.829,0.141,1.492,0.908,1.998,2.343
			c0.343,0.943,0.467,1.897,0.383,2.884c0,0.021,0,0.041,0.019,0.059c0.628,1.738,1.092,3.555,1.393,5.474
			c0.063,0.527,0,0.928-0.18,1.228c-0.203-2.197-0.687-4.379-1.453-6.579l-0.587-3.271c-0.403-1.109-1.332-1.733-2.763-1.916
			c0.102-0.06,0.18-0.103,0.281-0.12l0,0c0.02,0,0.042,0,0.06-0.021c0.102-0.022,0.182-0.039,0.262-0.06
			C-25.218,20.329-25.019,20.329-24.834,20.351L-24.834,20.351z"/>
		<path fill="#A97053" d="M-25.422,20.372c0.204-0.043,0.403-0.043,0.587-0.021c0.829,0.141,1.492,0.908,1.998,2.343
			c0.343,0.943,0.467,1.897,0.383,2.884c0,0.021,0,0.041,0.019,0.059c0.628,1.738,1.092,3.555,1.393,5.474
			c0.063,0.527,0,0.928-0.18,1.228c-0.203-2.197-0.687-4.379-1.453-6.579l-0.587-3.271c-0.403-1.109-1.332-1.733-2.763-1.916
			c0.102-0.06,0.18-0.103,0.281-0.12l0,0c0.02,0,0.042,0,0.06-0.021C-25.582,20.41-25.502,20.393-25.422,20.372L-25.422,20.372z"/>
		<path fill="#432B1B" d="M-25.764,20.292c-0.141,0.059-0.261,0.117-0.405,0.177c-0.927,0.486-1.673,1.637-2.241,3.437l-0.644,2.905
			l1.374-2.688c-0.102,0.608-0.043,1.276,0.179,2.02l0.485,1.033l0.02,0.039c0.018,0.021,0.018,0.059,0.018,0.081
			c0.466,1.248,0.243,1.977-0.703,2.198c-0.083,0.021-0.162,0.043-0.264,0.043c-0.099,0.021-0.202,0.021-0.301,0.021
			c-0.224,0.017-0.465,0-0.728-0.043c-0.223-0.141-0.423-0.243-0.646-0.34c-0.625-0.248-1.232-0.248-1.837-0.026l-0.869,1.599
			c-0.102-0.667,0.042-1.211,0.426-1.676l1.532-1.049l1.754-5.329C-28.005,21.117-27.055,20.31-25.764,20.292L-25.764,20.292z"/>
		<path fill="#BFBFBF" d="M-32.93,31.838l0.606-1.09l0.869-1.599c0.605-0.222,1.211-0.222,1.837,0.026
			c0.02,0.297,0.039,0.583,0.02,0.868c-0.969-0.748-1.818-0.026-2.523,2.155C-32.385,32.015-32.666,31.897-32.93,31.838
			L-32.93,31.838z"/>
		<path fill="#D9AD85" d="M-31.011,33.675l-1.736-1.132l-2.806,5.894c-0.163,0.588-0.022,1.149,0.403,1.72l3.049,5.467l1.147,1.311
			c-0.019-0.646,0-1.271,0.083-1.857l-1.05-0.906c0-0.104,0-0.204-0.021-0.301l-0.887-2.021c-0.263-1.254-0.587-2.381-0.968-3.391
			l2.42-4.141L-31.011,33.675L-31.011,33.675z M-31.214,33.734l-2.726,4.644c-0.021,0.016-0.021,0.039-0.021,0.059
			c0,0.021,0,0.043,0.021,0.06c0.384,1.008,0.688,2.141,0.95,3.373c0,0.018,0,0.018,0,0.038l0.909,1.999c0,0.104,0,0.18,0,0.264
			c0,0.016,0,0.016,0,0.043l0.058,0.076c-0.021-0.017-0.021-0.017-0.039-0.039c0-0.021,0-0.021-0.019-0.037l-1.151-2.1l-1.05-3.596
			l2.806-4.963L-31.214,33.734L-31.214,33.734z"/>
		<path fill="#ECDDD5" d="M-31.477,33.555l0.262,0.18l-2.726,4.644c-0.021,0.016-0.021,0.039-0.021,0.059
			c0,0.021,0,0.043,0.021,0.06c0.384,1.008,0.688,2.141,0.95,3.373c0,0.018,0,0.018,0,0.038l0.909,1.999c0,0.104,0,0.18,0,0.264
			c0,0.016,0,0.016,0,0.043l-1.151-2.1l-1.05-3.596L-31.477,33.555L-31.477,33.555z"/>
		<path d="M-31.375,34.316l0.364-0.642l0.161-0.243l0.868-1.496c0.221-0.625,0.364-1.251,0.384-1.893
			c0.019-0.286,0-0.571-0.02-0.868c0.222,0.098,0.422,0.2,0.646,0.34c0.263,0.043,0.504,0.06,0.728,0.043
			c0.019,0.162,0.019,0.302,0.038,0.443l-0.706,0.28c-0.463,1.616-1.13,3.09-1.978,4.443l0.423,3.712l-0.949,5.307
			c1.434,1.617,2.929,0.2,4.459-4.239l-0.422,1.455l-0.483,1.734c1.856-0.424,3.693-0.36,5.511,0.146
			c-0.083-0.183-0.164-0.386-0.224-0.587c-0.141-0.424-0.261-0.846-0.343-1.309c-0.041-0.243-0.079-0.489-0.101-0.75
			c-0.081-0.668-0.081-1.373-0.02-2.123c0-0.017,0-0.061,0-0.08c0.405-1.471,0.564-2.866,0.505-4.154
			c-0.02-0.227-0.042-0.446-0.06-0.668c0.302-0.021,0.544-0.061,0.765-0.14l0.042,0.808L-22.17,34.1l-0.463,3.588
			c-0.203,0.971-0.203,1.898,0,2.791c0.241,1.429,0.787,2.621,1.614,3.607c0.099,0.363,0.181,0.73,0.243,1.091l-1.313-1.778
			c-0.019-0.016-0.019-0.037-0.041-0.059h-5.268l-0.747,0.324l-0.042,0.182c-0.461,0.728-1.048,1.23-1.753,1.537l0.242,8.296
			l0.242,3.228l-2.179,6.682l-3.694,9.202l3.793,2.93l-0.142,0.462c-1.27-0.304-2.42-0.687-3.449-1.167l-0.182,0.824
			c-0.224,0.627-0.508,0.991-0.828,1.051c-0.91-0.404-1.616-1.012-2.082-1.838l5.229-12.454l2.059-5.49
			c-0.08-2.985,0-5.713,0.262-8.196c-0.06-0.221-0.099-0.442-0.122-0.663c-0.079-0.468-0.14-0.889-0.162-1.314
			c-0.019-0.646,0-1.271,0.083-1.857l-1.05-0.906c0-0.104,0-0.204-0.021-0.301c-0.02-2.08,0.202-4.16,0.688-6.24
			C-31.174,36.52-31.214,35.426-31.375,34.316L-31.375,34.316z"/>
		<path fill="#AB8262" d="M-32.122,32.198c0.423,0.28,0.849,0.689,1.271,1.233l-0.161,0.243l-1.736-1.132l-2.806,5.894
			c-0.163,0.588-0.022,1.149,0.403,1.72l3.049,5.467l1.147,1.311c0.022,0.426,0.083,0.847,0.162,1.314
			c-0.868-0.809-1.573-1.838-2.12-3.107l-3.107-5.572c-0.183-0.306-0.222-0.668-0.082-1.072c0.263-0.785,0.566-1.556,0.908-2.322
			c0.205-0.42,0.407-0.866,0.627-1.309c0.383-0.748,0.79-1.494,1.213-2.242l0.422-0.785C-32.666,31.897-32.385,32.015-32.122,32.198
			L-32.122,32.198z"/>
		<path fill="#E6E6E6" d="M-30.851,33.432c-0.422-0.544-0.848-0.953-1.271-1.233c0.706-2.182,1.555-2.903,2.523-2.155
			c-0.02,0.641-0.164,1.268-0.384,1.893L-30.851,33.432L-30.851,33.432z"/>
		<path fill="#AB8262" d="M-26.207,21.865c0.686,0.038,1.21,0.284,1.574,0.707c0.019,0.705,0.2,1.393,0.543,2.041
			c0.265,0.543,0.343,1.109,0.243,1.654c-0.06,0.102-0.121,0.222-0.181,0.319c0.1-0.826-0.143-1.574-0.686-2.281l-0.326-1.552
			l-1.048-0.442c-1.149,0.947-1.354,2.458-0.647,4.542c0.748,0.949,1.638,0.868,2.707-0.267c-0.304,0.467-0.686,0.872-1.171,1.173
			c-0.02,0.023-0.061,0.023-0.082,0.043c-0.362,0.098-0.687,0.098-0.991,0.017c-0.059,1.013-0.282,1.719-0.687,2.14
			c0.105,1.313,0.75,2.688,1.939,4.116c-1.208-0.783-2.058-2.114-2.543-4.031c-0.039-0.183-0.08-0.365-0.118-0.549
			c0.946-0.222,1.169-0.95,0.703-2.198l0,0l-0.018-0.081l-0.02-0.039l-0.485-1.033c-0.222-0.744-0.281-1.412-0.179-2.02
			C-27.54,23.217-27.055,22.469-26.207,21.865L-26.207,21.865z"/>
		<path fill="#D9AD85" d="M-26.086,22.311c-1.149,0.947-1.354,2.458-0.647,4.542c0.748,0.949,1.638,0.868,2.707-0.267
			c0.1-0.826-0.143-1.574-0.686-2.281l-0.326-1.552L-26.086,22.311L-26.086,22.311z M-24.15,26.122
			c-0.041,0.549-0.361,0.91-0.989,1.071c0.606-0.625,0.871-1.271,0.808-1.934L-24.15,26.122L-24.15,26.122z"/>
		<path fill="#ECDDD5" d="M-24.332,25.259l0.181,0.863c-0.041,0.549-0.361,0.91-0.989,1.071
			C-24.534,26.568-24.269,25.922-24.332,25.259L-24.332,25.259z"/>
		<path fill="#432B1B" d="M-24.089,24.612c-0.343-0.647-0.524-1.335-0.543-2.041c0.767,0.504,1.269,1.615,1.492,3.37
			c-0.423,2.06-0.122,3.472,0.93,4.24c0.321,1.105,0,2.119-0.988,2.986c-0.222-0.021-0.464-0.037-0.707-0.102
			c0.929-0.664,1.129-1.455,0.605-2.339c-0.262-0.141-0.504-0.286-0.705-0.426c-0.104-0.059-0.185-0.119-0.244-0.182
			c-0.706-0.625-0.807-1.288-0.344-2.037c0.465-0.586,0.708-1.191,0.747-1.815C-23.746,25.722-23.825,25.156-24.089,24.612
			L-24.089,24.612z"/>
		<path fill="#D9AD85" d="M-25.198,27.758c0.485-0.301,0.867-0.706,1.171-1.173c0.06-0.098,0.121-0.218,0.181-0.319
			c-0.039,0.625-0.282,1.229-0.747,1.815c-0.463,0.75-0.362,1.413,0.344,2.037c0.059,0.063,0.141,0.124,0.244,0.182
			c0.079,1.434-0.263,2.685-1.013,3.773c-1.188-1.429-1.834-2.803-1.939-4.116c0.405-0.421,0.628-1.127,0.687-2.14
			c0.304,0.081,0.628,0.081,0.991-0.017C-25.259,27.782-25.218,27.782-25.198,27.758L-25.198,27.758z"/>
		<path fill="#D9AD85" d="M-26.977,27.296L-26.977,27.296c0-0.022,0-0.06-0.018-0.081L-26.977,27.296L-26.977,27.296z"/>
		<path fill="#BFBFBF" d="M-24.006,30.301c0.201,0.141,0.442,0.286,0.705,0.426c0.524,0.884,0.324,1.675-0.605,2.339
			c0.241,0.064,0.485,0.08,0.707,0.102c0.222,0.021,0.422,0.021,0.605,0c0.018,0.222,0.041,0.441,0.06,0.668l-1.453-0.242
			l-1.032,0.48C-24.269,32.985-23.927,31.734-24.006,30.301L-24.006,30.301z"/>
		<path fill="#E6E6E6" d="M-23.987,33.594l1.453,0.242c0.059,1.288-0.1,2.684-0.505,4.154c0,0.02,0,0.063,0,0.08
			c-0.061,0.75-0.061,1.455,0.02,2.123l-3.067-0.402v-0.767l-1.718-8.782l0.243-0.199c0.485,1.917,1.334,3.248,2.543,4.031
			L-23.987,33.594L-23.987,33.594z"/>
		<path fill="#BFBFBF" d="M-21.829,33.028c0.14-0.063,0.264-0.124,0.365-0.184c0.08,0.06,0.16,0.184,0.22,0.345l-0.243,0.281
			l0.143,1.109l-0.383,0.064l-0.061-0.809L-21.829,33.028L-21.829,33.028z"/>
		<path fill="#E6E6E6" d="M-21.486,33.471l0.243-0.281c0.124,0.281,0.224,0.728,0.284,1.312l-0.383,0.079L-21.486,33.471
			L-21.486,33.471z"/>
		<path fill="#AB8262" d="M-21.343,34.58l0.383-0.079c0.021,0.164,0.021,0.343,0.039,0.525l-0.422,0.485v1.816
			c-0.849,1.108-0.748,2.828,0.301,5.145c0.709,2.123,1.092,4.258,1.194,6.379v0.624l0.242,1.919c0.059-0.016,0.1-0.038,0.162-0.08
			v-1.633l0.279,0.624l-0.322,1.633c-0.182,0.022-0.361-0.017-0.525-0.079l-0.24-0.545c-0.021-0.122,0.061-0.161,0.281-0.103
			c-0.059-0.104-0.08-0.221-0.102-0.399v-0.808l-0.322-0.889c0.104-1.497-0.041-2.808-0.382-3.939
			c-0.062-0.36-0.144-0.728-0.243-1.091c-0.265-1.006-0.585-2.016-1.01-3.025c-0.849-1.433-0.706-2.844,0.425-4.261l-0.121-2.155
			L-21.343,34.58L-21.343,34.58z"/>
		<path fill="#2B2B2B" d="M-21.787,33.836l0.061,0.809l0.121,2.155c-1.131,1.417-1.274,2.828-0.425,4.261
			c0.425,1.01,0.746,2.02,1.01,3.025c-0.827-0.986-1.373-2.179-1.614-3.607c-0.203-0.893-0.203-1.82,0-2.791l0.463-3.588
			L-21.787,33.836L-21.787,33.836z"/>
		<path fill="#D9AD85" d="M-21.343,35.512v1.816c-0.849,1.108-0.748,2.828,0.301,5.145c0.709,2.123,1.092,4.258,1.194,6.379v0.624
			l0.242,1.919c0.059-0.016,0.1-0.038,0.162-0.08v-1.633l0.279,0.624l-0.322,1.633c0.061-0.017,0.121-0.017,0.182-0.017l0.566-1.659
			l-0.523-2.099l-0.203-4.479c-0.141-1.637-0.506-3.249-1.092-4.801c-0.14-0.506-0.239-1.137-0.281-1.88
			c-0.02-0.766-0.041-1.434-0.082-1.978L-21.343,35.512L-21.343,35.512z M-21.042,35.389c0.022,0.463,0.041,1.008,0.041,1.615l0,0
			c0.062,0.766,0.163,1.413,0.304,1.919v0.017c0.585,1.557,0.948,3.131,1.091,4.768l0.201,4.457c0,0.021,0,0.021,0,0.041l0.32,1.294
			l-0.402-0.465l-0.283-3.271l-0.625-4.563l-0.808-3.873V35.57L-21.042,35.389L-21.042,35.389z"/>
		<path fill="#ECDDD5" d="M-21.203,35.57l0.161-0.182c0.022,0.463,0.041,1.008,0.041,1.615l0,0c0.062,0.766,0.163,1.413,0.304,1.919
			v0.017c0.585,1.557,0.948,3.131,1.091,4.768l0.201,4.457c0,0.021,0,0.021,0,0.041l0.32,1.294l-0.402-0.465l-0.283-3.271
			l-0.625-4.563l-0.808-3.873V35.57L-21.203,35.57z"/>
		<path fill="#BFBFBF" d="M-28.208,30.001c-0.019-0.141-0.019-0.281-0.038-0.443c0.099,0,0.202,0,0.301-0.021
			c0.102,0,0.181-0.022,0.264-0.043c0.038,0.184,0.079,0.366,0.118,0.549l-0.243,0.199l1.718,8.782v0.767l3.067,0.402
			c0.022,0.261,0.06,0.507,0.101,0.75c-1.171-0.307-2.341-0.35-3.53-0.168c-0.304,0.043-0.627,0.102-0.931,0.184l0.422-1.455
			l0.083-0.26C-27.5,36.057-27.944,32.965-28.208,30.001L-28.208,30.001z"/>
		<path fill="#2B2B2B" d="M-28.913,30.281c-0.463,1.616-1.13,3.09-1.978,4.443l0.423,3.712l-0.949,5.307
			c1.434,1.617,2.929,0.2,4.459-4.239l0.083-0.26c-0.625-3.188-1.069-6.279-1.333-9.243L-28.913,30.281L-28.913,30.281z
			 M-28.409,31.047l1.213,7.935l-1.17,2.969l0.745-3.39l-1.049-7.349L-28.409,31.047L-28.409,31.047z"/>
		<polygon fill="#999999" points="-28.67,31.212 -28.409,31.047 -27.196,38.981 -28.366,41.95 -27.622,38.561 -28.67,31.212 		"/>
		<path fill="#3C3C3C" d="M-26.449,40.775l-0.404,1.154c1.514-0.199,2.925-0.102,4.277,0.322c0.06,0.201,0.141,0.404,0.224,0.587
			c-1.818-0.506-3.654-0.569-5.511-0.146l0.483-1.734C-27.076,40.877-26.753,40.818-26.449,40.775L-26.449,40.775z"/>
		<path fill="#555555" d="M-26.853,41.93l0.404-1.154c1.189-0.182,2.359-0.139,3.53,0.168c0.082,0.463,0.202,0.885,0.343,1.309
			C-23.927,41.828-25.338,41.73-26.853,41.93L-26.853,41.93z"/>
		<path fill="#333333" d="M-22.131,43.34h-5.268l-0.747,0.324l-0.042,0.182c-0.461,0.728-1.048,1.23-1.753,1.537l0.242,8.296
			l0.242,3.228l-2.179,6.682l-3.694,9.202l3.793,2.93l1.091-3.738l3.571-13.642l1.253-6.238l0.341-2.626l1.514,5.25l-0.362,7.892
			c0,0.103,0,0.2,0,0.304l-0.504,11.387l3.59,0.805l-0.463-13.341v-3.13l0.968-8.254c0.064-0.447,0.102-0.873,0.143-1.271
			c0.104-1.497-0.041-2.808-0.382-3.939l-1.314-1.778C-22.109,43.383-22.109,43.361-22.131,43.34L-22.131,43.34z M-20.697,50.366
			l-0.949,8.256c0,0.02,0,0.02,0,0.02v3.13l0.443,13.158l-0.564-0.141l-0.282-4.036l-0.283-12.554l1.01-7.754
			c0.243-2.219,0.243-4.137-0.021-5.77l0.422,0.583c0.346,1.11,0.467,2.381,0.363,3.857c-0.018,0.383-0.078,0.803-0.14,1.232V50.366
			L-20.697,50.366z M-27.035,58.299l-3.554,13.644l0,0l-1.028,3.536l-0.665-0.528l4.318-14.713l1.23-6.438l1.312-4.34l-0.342,2.643
			v-0.017L-27.035,58.299L-27.035,58.299L-27.035,58.299z"/>
		<path fill="#777777" d="M-20.697,50.349v0.018l-0.949,8.256c0,0.02,0,0.02,0,0.02v3.13l0.443,13.158l-0.564-0.141l-0.282-4.036
			l-0.283-12.554l1.01-7.754c0.243-2.219,0.243-4.137-0.021-5.77l0.422,0.583c0.346,1.11,0.467,2.381,0.363,3.857
			C-20.575,49.499-20.636,49.919-20.697,50.349L-20.697,50.349z"/>
		<polygon fill="#777777" points="-27.035,58.299 -27.035,58.299 -30.589,71.942 -30.589,71.942 -31.618,75.479 -32.282,74.95 
			-27.964,60.237 -26.734,53.799 -25.422,49.459 -25.764,52.102 -25.764,52.085 -27.035,58.299 		"/>
		<path d="M-24.128,62.617c0,0.103,0,0.2,0,0.304l-0.504,11.387l3.59,0.805l0.022,0.383c-0.566,0.14-1.131,0.225-1.676,0.284
			c0.063,0.744-0.465,1.127-1.614,1.153c-0.989-0.026-1.374-0.447-1.153-1.232c-0.342-0.065-0.663-0.121-0.986-0.205l0.341-7.103
			l0.666-6.987l0.161-3.33v-8.6l1.514,5.25L-24.128,62.617L-24.128,62.617z"/>
	</g>
</g>
<g>
	<path opacity="0.15" fill="#262626" d="M24.781,52.235l-0.039,0.038c-0.802,0.536-1.187,0.993-1.145,1.339l-2.945,1.832
		l-2.062,0.194c-1.264,0.112-1.491,0.19-0.575,0.383c1.223,0.074,2.485,0,3.785-0.192l-0.727,0.458c0.115,0.04,0.19,0.04,0.345,0.04
		L19.2,56.67c-1.415,0.228-1.529,0.342-0.345,0.419c0.038,0,0.117,0,0.19,0c1.262,0.038,2.484,0,3.748-0.191l0.955-0.188h0.502
		l1.104-0.156l0.458-0.266l0.992-0.879l1.414-0.649l3.749-2.332c1.188-0.458,2.256-0.995,3.209-1.57l1.416-0.61
		c0.306,0.115,0.765,0.154,1.413,0.154l4.094-0.343l0.077-1.606l0.342-0.23l0.689-0.113l1.526-0.61l0.729-0.46
		c2.447-1.338,3.173-2.102,2.139-2.331l-2.944-0.266l-0.533-0.307v-0.079l0.077-0.115l0.686-0.229c0.041,0,0.153-0.038,0.23-0.076
		c0.112-0.039,0.191-0.074,0.305-0.112h0.041c0.381-0.156,0.647-0.309,0.647-0.382l0.079-0.196c0.15-0.15,0.115-0.303-0.118-0.38
		c-0.268-0.112-0.801-0.191-1.604-0.191c-0.953-0.077-2.138,0.079-3.514,0.421c-0.269,0.112-0.387,0.192-0.387,0.308l-0.038,0.039
		c-0.227,0.151-0.303,0.267-0.265,0.382l-0.077,0.073c-0.265,0.271-0.229,0.501,0.077,0.69h0.038c0,0,0.036,0,0.075,0
		c0,0.035,0.076,0.035,0.115,0.035l-0.076,0.229l-0.494,0.12l-3.098,0.342l-1.034,0.267l-2.751,1.3
		c-1.341,0.611-2.449,1.184-3.366,1.758l0.117,0.115c-1.032,0.268-1.301,0.495-0.882,0.651l-1.26,0.8L24.781,52.235z"/>
	<path fill="#AB8262" d="M21.604,4.097l0.248,1.529l0.459,0.498V5.189l-0.497-1.24c-0.535-0.115-0.996-0.402-1.358-0.88
		c-0.018-0.02-0.057-0.058-0.094-0.118c-0.994,0.252-1.643,0.768-1.967,1.513l0.172,1.416v0.457l0.248-0.325V4.425
		c0.247-0.575,0.744-0.897,1.491-0.99L21.604,4.097L21.604,4.097z"/>
	<path fill="#D9AD85" d="M21.852,5.626L21.604,4.1l-1.299-0.665c-0.747,0.093-1.244,0.416-1.491,0.99V6.01l-0.248,0.325l0.057,0.287
		c0.17,0.934,0.535,1.757,1.089,2.444c0.038,0.022,0.056,0.041,0.076,0.063c0.038,0.036,0.075,0.071,0.114,0.093
		c0.804,0.246,1.721-0.575,2.751-2.468c0.536,0.058,0.878-0.344,1.013-1.222c-0.094-0.269-0.365-0.4-0.762-0.381l-0.25,0.974h-0.343
		L21.852,5.626L21.852,5.626z M18.776,6.432l0.154-0.327c0.209,1.071,0.706,2.025,1.47,2.868l-0.383,0.156
		C19.351,8.343,18.93,7.443,18.776,6.432L18.776,6.432z"/>
	<path fill="#ECDDD5" d="M18.93,6.105l-0.154,0.327c0.154,1.012,0.575,1.912,1.241,2.697L20.4,8.973
		C19.635,8.13,19.139,7.176,18.93,6.105L18.93,6.105z"/>
	<path fill="#513513" d="M23.573,4.119c-0.115-0.629-0.366-1.108-0.748-1.471L22.56,3.813l-2.103-0.745
		c0.362,0.479,0.823,0.765,1.358,0.88l0.497,1.24v0.935h0.346l0.248-0.974c0.397-0.019,0.668,0.113,0.762,0.381
		c0.059,0.174,0.059,0.383,0,0.672l0.059,0.02c0.17-0.556,0.208-1.034,0.074-1.414L23.573,4.119L23.573,4.119z"/>
	<path fill="#774F23" d="M22.56,3.813l0.266-1.166c-0.458-0.44-1.109-0.709-1.969-0.781c-1.047-0.25-1.988,0.302-2.787,1.661
		c-0.058,0.399-0.041,0.761,0.075,1.13l0.02,0.074c0.019,0.569,0.152,1.105,0.403,1.603V5.879l-0.172-1.416
		c0.324-0.745,0.974-1.26,1.967-1.513c0.038,0.061,0.077,0.099,0.094,0.118L22.56,3.813L22.56,3.813z M20.819,2.096l0.249,0.073
		c-1.279,0.133-2.253,0.729-2.923,1.78V3.583C18.967,2.324,19.845,1.826,20.819,2.096L20.819,2.096z"/>
	<path fill="#B5742F" d="M21.068,2.169l-0.249-0.073c-0.974-0.27-1.852,0.228-2.674,1.487v0.366
		C18.815,2.898,19.789,2.302,21.068,2.169L21.068,2.169z"/>
	<path fill="#AB8262" d="M19.903,9.222c0.057,0.039,0.114,0.076,0.173,0.093c0.553,0.27,1.125,0.039,1.738-0.704l0.229,0.476
		L20.574,10.5l0.209,0.171l2.424-2.463L23.17,7.865l-0.095-0.652c0.132-0.016,0.266-0.097,0.365-0.267V6.929
		c0.033-0.06,0.073-0.156,0.133-0.25c0.035-0.133,0.073-0.306,0.094-0.476c0.059-0.287,0.059-0.498,0-0.672
		c-0.134,0.878-0.477,1.28-1.01,1.222C21.625,8.647,20.707,9.468,19.903,9.222L19.903,9.222z"/>
	<path d="M17.479,11.857l-0.384,0.67l-1.299,12.109l0.133,0.154c-0.515,1.166-0.42,2.043,0.268,2.618v-0.364l0.439-1.469
		l-0.457-0.52c-0.04-1.927,0.114-3.97,0.475-6.132l0.021-0.17C16.693,16.421,16.961,14.13,17.479,11.857L17.479,11.857z"/>
	<path fill="#333333" d="M17.094,12.527l-0.229,0.361l-0.572,5.004c-0.401,2.219-0.614,4.436-0.595,6.65l0.098,0.095L17.094,12.527
		L17.094,12.527z"/>
	<path fill="#007699" d="M20.763,10.672l-0.153,0.096l0.077,0.764l-0.191,0.421l-0.535,0.211h0.307l-0.67,4.257
		c-0.729,2.123-1.127,4.949-1.203,8.446l-0.61,1.532l0.36,0.531l0.575-0.839l0.516-0.745c-0.039-0.247-0.058-0.514-0.076-0.764
		c-0.173-2.544,0.135-5.143,0.877-7.776l0.555-4.642l0.573-0.556l0.399-0.422l-0.78-0.514H20.763L20.763,10.672z"/>
	<polygon fill="#F7F7F7" points="20.609,10.768 20.763,10.672 20.783,10.672 20.574,10.5 20.38,10.309 20.341,10.138 20.056,10.598 
		20.056,10.998 20.268,10.902 20.609,10.768 	"/>
	<path fill="#333333" d="M20.056,10.598l-0.306,0.151l-1.071,0.934l0.48,0.289l-0.783,0.613c-0.804,2.503-1.245,4.947-1.3,7.352
		c0.877-3.112,1.833-5.979,2.848-8.578c0.056-0.112,0.093-0.229,0.132-0.361V10.598L20.056,10.598z M19.864,10.961
		c-0.037,0.093-0.075,0.205-0.114,0.321c-0.015,0.019-0.015,0.06-0.038,0.077l-0.384,0.25l0.23,0.193
		c-0.058,0.151-0.115,0.305-0.173,0.457L18.7,13.044l-0.994,4.124c-0.115,0.364-0.227,0.746-0.345,1.146
		c0.173-1.853,0.558-3.722,1.186-5.617l0.728-0.575c0.02-0.036,0.036-0.074,0.055-0.09c0-0.061,0-0.099,0-0.134
		c-0.019-0.041-0.055-0.061-0.075-0.08l-0.248-0.151l0.858-0.785V10.961L19.864,10.961z"/>
	<path fill="#999999" d="M19.75,11.282c0.039-0.117,0.077-0.228,0.114-0.321v-0.078l-0.858,0.785l0.248,0.151
		c0.021,0.019,0.057,0.039,0.075,0.08c0,0.036,0,0.074,0,0.134c-0.019,0.017-0.035,0.055-0.055,0.09l-0.728,0.575
		c-0.627,1.896-1.012,3.765-1.186,5.617c0.118-0.4,0.229-0.783,0.345-1.146l0.994-4.124l0.686-0.786
		c0.058-0.152,0.116-0.306,0.173-0.457l-0.23-0.193l0.384-0.25C19.735,11.342,19.735,11.301,19.75,11.282L19.75,11.282z"/>
	<path fill="#D9AD85" d="M20.341,10.138l0.039,0.17l0.193,0.192l1.469-1.413l-0.229-0.476c-0.612,0.742-1.185,0.974-1.738,0.704
		L20.341,10.138L20.341,10.138z M20.268,9.544h0.171l0.285,0.651h-0.247L20.268,9.544L20.268,9.544z"/>
	<polygon fill="#ECDDD5" points="20.439,9.544 20.268,9.544 20.477,10.196 20.724,10.196 20.439,9.544 	"/>
	<path fill="#E1E1E1" d="M20.056,10.998c-0.039,0.132-0.077,0.249-0.132,0.361h0.245l0.099-0.457L20.056,10.998L20.056,10.998z"/>
	<path fill="#F7F7F7" d="M20.169,11.359h-0.245c-1.015,2.599-1.971,5.466-2.848,8.578c-0.017,0.077-0.041,0.155-0.057,0.229
		L17,20.377l-0.364,3.267l0.478,0.344c0.115-2.297,0.534-4.584,1.263-6.878l1.584-4.946L20.169,11.359L20.169,11.359z"/>
	<polygon fill="#0091CB" points="20.609,10.768 20.268,10.902 20.169,11.359 19.96,12.164 20.495,11.953 20.687,11.532 
		20.609,10.768 	"/>
	<path d="M18.986,11.13l-0.765,0.688l0.421,0.134l-0.669,0.61c-0.59,2.123-0.914,4.719-0.974,7.814l0.02-0.211
		c0.017-0.074,0.04-0.152,0.057-0.229c0.056-2.405,0.497-4.849,1.3-7.352l0.783-0.613l-0.48-0.289l1.071-0.934L18.986,11.13
		L18.986,11.13z"/>
	<path fill="#333333" d="M18.221,11.818l0.765-0.688l-1.507,0.727c-0.518,2.273-0.786,4.564-0.804,6.898l-0.021,0.17
		c-0.36,2.162-0.515,4.205-0.475,6.132l0.457,0.52l-0.439,1.469v0.364v3l0.839,8.769l0.041,0.17
		c0.038,2.006,0.363,3.671,0.994,5.026v6.937l0.897,0.248l0.019-7.639l-0.324-14.736l1.355,2.046v13.545l-0.172,8.045l-0.036,1.658
		c0.151,0.076,0.303,0.156,0.458,0.214c0.171,0.055,0.342,0.113,0.495,0.17l2.101-1.089l-0.706-2.292V41.45l1.93-9.073
		c-0.668-1.109-0.974-2.367-0.917-3.784l-1.223-2.313l-3.228-0.189l-0.575,0.839l-0.36-0.531l-0.726-1.04
		c0-0.168,0-0.319,0.017-0.492l-0.44-0.134v-1.089L17,20.377c0.06-3.095,0.383-5.691,0.974-7.814l0.669-0.61L18.221,11.818
		L18.221,11.818z M16.388,27.083l0.401-1.316h0.27l-0.309,1.352v3.311l0.804,9.07l1.013,5.007l-0.058,6.723l-0.269-0.073v-6.783
		c0-0.02,0-0.039,0-0.058c-0.611-1.336-0.938-3.001-0.973-4.969c0-0.017,0-0.017,0-0.017l-0.04-0.173l-0.841-8.749V27.083
		L16.388,27.083z M20.191,31.229c0-0.039-0.022-0.074-0.041-0.094l-1.357-2.047l1.874,1.721l-0.229,9.897l0.17,3.168L20.38,54.04
		l0.382,0.61c-0.153-0.036-0.286-0.074-0.421-0.132h0.021c-0.135-0.041-0.25-0.077-0.362-0.136l0.191-9.608V31.229L20.191,31.229z"
		/>
	<path fill="#999999" d="M16.789,25.767l-0.401,1.316v3.325l0.841,8.749l0.04,0.173c0,0,0,0,0,0.017
		c0.035,1.968,0.361,3.633,0.973,4.969c0,0.019,0,0.038,0,0.058v6.783l0.269,0.073l0.058-6.723L17.555,39.5l-0.804-9.07v-3.311
		l0.309-1.352H16.789L16.789,25.767z"/>
	<path fill="#999999" d="M20.151,31.136c0.018,0.02,0.041,0.055,0.041,0.094v13.545L20,54.383c0.112,0.059,0.227,0.095,0.362,0.136
		h-0.021c0.136,0.058,0.268,0.096,0.421,0.135L20.38,54.04l0.229-10.165l-0.17-3.168l0.229-9.897l-1.874-1.721L20.151,31.136
		L20.151,31.136z"/>
	<path fill="#0091CB" d="M20.268,12.164H19.96l-1.584,4.946c-0.729,2.293-1.148,4.581-1.263,6.878
		c-0.02,0.307-0.038,0.594-0.038,0.879c-0.017,0.173-0.017,0.324-0.017,0.492l0.726,1.04l0.61-1.532
		c0.076-3.497,0.474-6.324,1.203-8.446L20.268,12.164L20.268,12.164z"/>
	<path fill="#F7F7F7" d="M21.165,11.608l-0.573,0.556l-0.555,4.642c-0.742,2.633-1.05,5.232-0.877,7.776l3.248-0.077
		c-0.267-0.325-0.497-0.669-0.708-0.997c-0.649-0.992-1.089-2-1.336-3.057c-0.057-0.244-0.095-0.473-0.115-0.723
		c-0.171-1.397-0.021-2.81,0.497-4.281c0.075-0.247,0.154-0.513,0.21-0.761l0.497-2.908L21.165,11.608L21.165,11.608z"/>
	<path fill="#513513" d="M23.17,7.865l0.271-0.919c-0.1,0.17-0.233,0.251-0.365,0.267L23.17,7.865L23.17,7.865z"/>
	<path fill="#F7F7F7" d="M23.399,8.59l-0.191-0.381l-2.424,2.463l0.78,0.514l0.519,0.346C22.483,10.539,22.924,9.563,23.399,8.59
		L23.399,8.59z"/>
	<path fill="#333333" d="M24.375,9.638L23.399,8.59c-0.475,0.974-0.916,1.949-1.316,2.942c-0.424,1.053-0.803,2.101-1.128,3.154
		c-0.056,0.248-0.136,0.514-0.21,0.761c-0.517,1.471-0.667,2.884-0.497,4.281c0.841-2.54,2.159-4.988,3.975-7.338l-0.862-0.668
		l1.014-0.918V9.638L24.375,9.638z M23.458,8.898L23.726,9.2l-1.987,4.757c-0.574,1.625-0.92,2.98-1.052,4.069
		c-0.113,0.288-0.23,0.555-0.324,0.821c-0.039-1.086,0.153-2.196,0.555-3.341c0.058-0.247,0.133-0.498,0.208-0.745
		c0.327-1.072,0.707-2.12,1.13-3.154C22.615,10.708,23.017,9.794,23.458,8.898L23.458,8.898z"/>
	<path fill="#999999" d="M23.726,9.2l-0.268-0.302c-0.441,0.896-0.843,1.809-1.204,2.71c-0.423,1.034-0.803,2.082-1.13,3.154
		c-0.075,0.247-0.15,0.498-0.208,0.745c-0.402,1.145-0.593,2.255-0.555,3.341c0.094-0.266,0.211-0.534,0.324-0.821
		c0.132-1.089,0.478-2.444,1.052-4.069L23.726,9.2L23.726,9.2z"/>
	<path fill="#E1E1E1" d="M22.083,11.532l-0.519-0.346l-0.399,0.422l0.287,0.17l-0.497,2.908
		C21.28,13.633,21.658,12.585,22.083,11.532L22.083,11.532z"/>
	<path d="M23.361,11.722l0.862,0.668c-1.816,2.351-3.134,4.799-3.975,7.338c0.02,0.25,0.058,0.479,0.115,0.723
		c0.938-2.689,2.348-5.387,4.203-8.08l-0.631-0.629l0.879-0.593l-0.134-1.415l-0.304-0.096v1.166L23.361,11.722L23.361,11.722z"/>
	<path fill="#333333" d="M24.679,9.734l0.134,1.415l-0.879,0.593l0.631,0.629c-1.854,2.693-3.265,5.391-4.203,8.08
		c0.247,1.058,0.688,2.065,1.336,3.057l3-3.511v-3.23c0.172-2.981,1.031-5.026,2.618-6.134L24.679,9.734L24.679,9.734z
		 M21.872,23.015l-0.155,0.192c-0.552-0.9-0.934-1.814-1.143-2.755c0.898-2.575,2.216-5.139,3.953-7.714l-3.495,7.621L21.872,23.015
		L21.872,23.015z"/>
	<path fill="#999999" d="M21.717,23.207l0.155-0.192l-0.841-2.657l3.495-7.621c-1.737,2.575-3.055,5.139-3.953,7.714
		C20.783,21.392,21.165,22.307,21.717,23.207L21.717,23.207z"/>
	<path d="M25.541,20.399l-0.401-3.481c0.057-3.437,0.955-5.48,2.671-6.115l-0.496-0.17c-1.587,1.108-2.446,3.153-2.618,6.134v3.23
		l-3,3.511c0.211,0.328,0.441,0.672,0.708,0.997c0.191,0.25,0.401,0.496,0.649,0.745l-3.82,0.096l-0.516,0.745l3.228,0.189
		l1.223,2.313c-0.057,1.417,0.249,2.674,0.917,3.784l-1.93,9.073v10.03l0.706,2.292l-2.101,1.089
		c-0.153-0.057-0.324-0.115-0.495-0.17l-1.7,1.222c-1.089,0.78-0.956,1.355,0.362,1.7c0.056,0,0.132,0,0.189,0
		c1.32,0.114,2.445-0.15,3.401-0.821l0.688-0.706h0.459l0.898-0.501v-1.107l-0.383-3.248l0.345-2.521v-8.806
		c0.439-1.738,0.688-3.686,0.746-5.846l0.439-2.291c-0.898-0.594-1.241-1.683-1.05-3.268l0.245,0.285
		c0.9-0.819,1.759-1.718,2.583-2.73l1.282,2.922c0.721,1.395-0.291,2.313-3.06,2.791c0.418,0.281,0.954,0.438,1.604,0.498
		l3.591-1.224l-2.561-6.173v-0.842l0.478-0.497l0.536-2.311v-1.662c0.365-5.004-0.151-7.928-1.548-8.752
		c0.937,3.269,1.051,6.517,0.366,9.785c-0.861,2.847-2.351,5.101-4.51,6.799l0.747,0.82v0.23l-0.039,1.015l-0.708-1.529
		l-0.459-1.068l-0.497-0.537l0.538-0.861L25.541,20.399L25.541,20.399z"/>
	<path fill="#333333" d="M25.14,16.918l0.401,3.481l-2.293,5.059l-0.538,0.861l0.497,0.537l0.459,0.532
		c2.16-1.699,3.649-3.952,4.51-6.799c0.686-3.268,0.571-6.516-0.366-9.785C26.095,11.438,25.197,13.482,25.14,16.918L25.14,16.918z
		 M25.711,20.473c0-0.022,0-0.06,0-0.096L25.33,16.88c0.056-3.19,0.841-5.12,2.348-5.826c-1.949,1.892-2.481,5.044-1.623,9.455
		L23.17,26.55l-0.229-0.251l0.479-0.745l0,0L25.711,20.473L25.711,20.473z"/>
	<path fill="#999999" d="M25.711,20.377c0,0.036,0,0.074,0,0.096l-2.292,5.081l0,0l-0.479,0.745l0.229,0.251l2.885-6.041
		c-0.858-4.41-0.326-7.563,1.623-9.455c-1.507,0.707-2.292,2.636-2.348,5.826L25.711,20.377L25.711,20.377z"/>
	<path fill="#774F23" d="M19.159,24.582c0.018,0.25,0.037,0.517,0.076,0.764l3.82-0.096c-0.248-0.249-0.458-0.495-0.649-0.745
		L19.159,24.582L19.159,24.582z"/>
	<path fill="#774F23" d="M17.076,24.867c0-0.285,0.018-0.572,0.038-0.879l-0.478-0.344v1.089L17.076,24.867L17.076,24.867z"/>
	<polygon fill="#F7F7F7" points="24.414,28.208 23.667,27.388 23.208,26.856 23.667,27.924 24.414,28.438 24.414,28.208 	"/>
	<polygon fill="#D9AD85" points="24.414,28.438 23.667,27.924 24.375,29.453 24.414,28.438 	"/>
	<path fill="#333333" d="M27.489,26.052c-0.824,1.012-1.682,1.912-2.583,2.73l-0.245-0.285c-0.191,1.585,0.152,2.674,1.05,3.268
		c2.769-0.479,3.781-1.396,3.06-2.791L27.489,26.052L27.489,26.052z"/>
	<path d="M18.967,51.558L18.07,51.31l-1.74,0.763c-1.167,0.288-1.167,0.761,0,1.398c1.357,0.322,2.539,0.093,3.516-0.651
		l0.172-8.045V31.229l-1.355-2.046l0.324,14.736L18.967,51.558L18.967,51.558z"/>
</g>
</svg>
