<?xml version="1.0" encoding="utf-8"?>
<!-- Generator: Adobe Illustrator 16.0.0, SVG Export Plug-In . SVG Version: 6.00 Build 0)  -->
<!DOCTYPE svg PUBLIC "-//W3C//DTD SVG 1.1//EN" "http://www.w3.org/Graphics/SVG/1.1/DTD/svg11.dtd">
<svg version="1.1" id="Layer_1" xmlns="http://www.w3.org/2000/svg" xmlns:xlink="http://www.w3.org/1999/xlink" x="0px" y="0px"
	 width="100px" height="100px" viewBox="0 0 100 100" enable-background="new 0 0 100 100" xml:space="preserve">
<g>
	<g>
		<path fill="#125E0F" d="M48.288,94.297c-1.375-3.406-2.07-7.047-3.533-10.421c-0.157-0.361-0.678-0.181-0.7,0.166
			c-0.126,1.906-0.278,3.385,0.075,5.339c0.18,0.99,0.344,1.965,0.542,2.933c-2.346-0.61-4.691-0.36-7.133,0.992
			c-1.359,0.752-1.314,2.829,0.39,3.119c1.446,0.243,2.816,0.349,4.279,0.232c1.229-0.1,2.563-0.482,3.771-0.093
			c0.981,0.316,1.772-0.214,2.136-0.934C48.379,95.261,48.484,94.784,48.288,94.297z"/>
	</g>
	<g>
		<path fill="#125E0F" d="M68.624,93.442c-0.907-0.533-1.872-0.661-2.791-0.489c-0.246-2.066-0.757-4.176-1.177-6.148
			c-0.202-0.941-1.662-0.836-1.524,0.163c0.198,1.454-0.212,3.189-0.222,4.682c-0.01,1.165,0.277,2.313,0.258,3.479
			c-0.003,0.141,0.028,0.275,0.076,0.404c-0.037,0.229-0.009,0.48,0.091,0.742c0.028,0.088,0.064,0.174,0.111,0.259
			c0.976,1.745,6.572,2.787,7.606,0.449C71.813,95.26,69.837,94.157,68.624,93.442z"/>
	</g>
	<g>
		<g>
			<path fill="#D60051" d="M54.71,21.581c4.985-1.465,8.561-3.938,10.729-8.655c-2.716-0.158-4.902,0.55-6.839,1.795
				c1.277-3.113,1.395-7.061,0.755-9.703c-1.883,0.624-3.894,2.334-4.685,4.143c-0.601,1.373-0.599,2.988-0.791,4.526
				c-0.05-1.571-0.409-3.182-0.764-4.532c-0.407-1.549-0.979-6.541-2.316-7.359c-1.396,2.344-2.92,4.273-2.642,7.172
				c0.006,0.051,0.012,0.108,0.017,0.162c-1.026-2.986-2.728-5.596-5.595-6.894c-2.253,2.764-0.631,7.121,1.222,10.948
				c-2.523-3.006-6.233-5.802-9.222-5.709c-0.257,3.661,3.872,8.683,4.768,9.7c0.075,0.085,0.168,0.171,0.254,0.257
				c-2.528-1.408-5.634-1.944-8.146-1.189c1.293,4.621,6.412,6.297,10.681,6.424c-0.312-1.494,0.217-1.968,1.026-1.977
				c0.033,0.042,0.071,0.085,0.102,0.127c-0.025-0.042-0.047-0.087-0.073-0.129c1.135,0.004,2.806,0.897,3.544,1.227
				c3.952,1.752,7.818,3.835,12.054,2.125c2.067-0.835,4.202-2.194,6.381-2.672C62.438,18.033,57.964,21.146,54.71,21.581z"/>
		</g>
	</g>
	<g>
		<path fill="#5057B8" d="M50.008,12.931c-6.847,0.425-9.835,6.774-9.938,12.837c-0.127,7.41,2.126,13.837-0.412,21.171
			c-2.746,7.93-9.174,14.73-9.944,23.329c-1.576,17.583,23.69,25.681,36.849,18.416c14.748-8.145,10.195-23.795,3.034-35.269
			c-4.817-7.72-8.253-16.165-8.506-25.352C60.904,21.325,58.964,12.373,50.008,12.931z"/>
	</g>
	<g>
		<g>
			<path fill="#D60051" d="M58.023,77.461c1.552,0.545,3.206,2.966,4.945,3.063c0.136-0.021,0.273-0.046,0.42-0.09
				c2.129-0.634,2.97-3.393,2.461-5.752c-0.65-3.018-3.076-4.543-5.464-5.286c-5.45-1.698-12.248-0.971-16.398,3.573
				c-3.21,3.52-0.672,8.564,3.656,7.251c2.092-0.634,3.954-1.656,5.856-2.248C54.786,77.338,56.748,77.014,58.023,77.461z"/>
		</g>
		<g>
			<g>
				<path fill="#FFFFFF" d="M57.386,74.986c0.122,0.868,0.205,1.601,0.139,2.345c0.175,0.034,0.343,0.076,0.499,0.13
					c0.765,0.27,1.556,0.993,2.368,1.671c0.578-0.408,1.192-0.789,1.815-1.07C60.99,76.98,59.152,74.813,57.386,74.986z"/>
			</g>
			<g>
				<path fill="#FFFFFF" d="M53.615,77.923c-0.099-0.757-0.178-1.527-0.333-2.256c-1.831,0.079-4.043,1.035-5.715,1.745
					c0.791,0.614,1.08,1.476,1.374,2.354c1.58-0.6,3.06-1.328,4.559-1.794C53.536,77.953,53.577,77.938,53.615,77.923z"/>
			</g>
			<g>
				<path fill="#FFFFFF" d="M51.319,68.925c0.249,1.221,0.276,2.466,0.245,3.796c1.591-0.186,3.101-0.451,4.729-0.438
					c-1.04-0.885-1.347-2.297-1.38-3.723C53.708,68.556,52.499,68.678,51.319,68.925z"/>
			</g>
			<g>
				<path fill="#FFFFFF" d="M47.692,70.182c-1.21,0.608-2.327,1.408-3.318,2.402c0.422,0.677,0.749,1.442,1.282,2.108
					c1.291-0.726,2.496-1.733,3.77-2.503C48.835,71.43,48.218,70.834,47.692,70.182z"/>
			</g>
			<g>
				<path fill="#FFFFFF" d="M64.72,72.227c-1.088-1.447-2.715-2.326-4.334-2.831c-0.513-0.158-1.038-0.29-1.57-0.406
					c-0.122,1.077-0.365,2.109-1.189,2.837c2.373,0.733,3.734,1.531,5.579,3.15C63.688,73.992,64.13,73.04,64.72,72.227z"/>
			</g>
		</g>
		<g>
			<path fill="#176B13" d="M63.389,79.075c-0.146,0.044-0.284,0.067-0.42,0.091c-1.739-0.097-3.394-2.518-4.945-3.063
				c-1.275-0.447-3.237-0.122-4.523,0.511c-1.902,0.59-3.765,1.612-5.856,2.248c-2.702,0.819-4.707-0.84-5.05-3.061
				c-0.416,2.83,1.814,5.399,5.05,4.418c2.092-0.634,3.954-1.656,5.856-2.248c1.286-0.634,3.248-0.958,4.523-0.511
				c1.552,0.545,3.206,2.966,4.945,3.063c0.136-0.021,0.273-0.046,0.42-0.09c1.928-0.572,2.787-2.887,2.559-5.068
				C65.768,77.073,64.915,78.623,63.389,79.075z"/>
		</g>
	</g>
	<g>
		<g>
			<path fill="#D60051" d="M47.124,60.646c0.869-0.278,2.412,0.237,3.213-0.302c0.051-0.054,0.104-0.111,0.156-0.179
				c0.728-0.994,0.177-2.496-0.838-3.367c-1.298-1.117-2.881-0.98-4.185-0.51c-2.979,1.073-5.742,3.668-6.057,7.067
				c-0.243,2.629,2.567,4.012,4.043,1.983c0.713-0.98,1.195-2.056,1.838-2.955C45.653,61.675,46.412,60.875,47.124,60.646z"/>
		</g>
		<g>
			<g>
				<path fill="#FFFFFF" d="M46.015,59.764c0.345,0.344,0.626,0.641,0.847,0.991c0.088-0.044,0.177-0.081,0.263-0.109
					c0.429-0.138,1.021-0.082,1.607-0.054c0.118-0.374,0.264-0.749,0.444-1.081C48.276,59.44,46.738,59.098,46.015,59.764z"/>
			</g>
			<g>
				<path fill="#FFFFFF" d="M45.329,62.325c-0.296-0.304-0.588-0.617-0.902-0.887c-0.782,0.648-1.44,1.81-1.942,2.683
					c0.556,0.009,0.972,0.293,1.396,0.58c0.498-0.791,0.908-1.61,1.415-2.317C45.304,62.365,45.318,62.344,45.329,62.325z"/>
			</g>
			<g>
				<path fill="#FFFFFF" d="M41.304,59.113c0.519,0.456,0.946,0.998,1.377,1.598c0.643-0.615,1.221-1.237,1.945-1.776
					c-0.754-0.043-1.364-0.565-1.855-1.186C42.235,58.151,41.742,58.609,41.304,59.113z"/>
			</g>
			<g>
				<path fill="#FFFFFF" d="M40.119,60.883c-0.33,0.674-0.557,1.401-0.662,2.174c0.411,0.157,0.814,0.385,1.272,0.504
					c0.328-0.755,0.523-1.603,0.827-2.369C41.042,61.053,40.572,60.998,40.119,60.883z"/>
			</g>
			<g>
				<path fill="#FFFFFF" d="M48.334,56.091c-0.965-0.277-1.979-0.123-2.863,0.197c-0.28,0.102-0.557,0.218-0.83,0.346
					c0.306,0.517,0.543,1.054,0.423,1.652c1.296-0.469,2.164-0.572,3.521-0.472C48.47,57.216,48.345,56.646,48.334,56.091z"/>
			</g>
		</g>
		<g>
			<path fill="#176B13" d="M49.655,56.798C49.588,56.74,49.52,56.7,49.45,56.65c0.835,0.888,1.23,2.201,0.57,3.099
				c-0.051,0.068-0.104,0.126-0.157,0.181c-0.801,0.539-2.343,0.022-3.212,0.301c-0.713,0.229-1.472,1.029-1.828,1.74
				c-0.644,0.897-1.126,1.974-1.838,2.953c-0.811,1.114-2.021,1.194-2.91,0.61c0.878,0.991,2.414,1.135,3.382-0.195
				c0.713-0.98,1.195-2.056,1.838-2.955c0.358-0.709,1.117-1.509,1.829-1.738c0.869-0.278,2.412,0.237,3.213-0.302
				c0.051-0.054,0.104-0.111,0.156-0.179C51.221,59.171,50.67,57.669,49.655,56.798z"/>
		</g>
	</g>
	<g>
		<g>
			<path fill="#D60051" d="M61.479,56.676c0.647,0.92,0.609,2.923,1.539,3.666c0.082,0.041,0.17,0.083,0.27,0.118
				c1.436,0.489,2.998-0.713,3.648-2.228c0.835-1.938,0.091-3.747-0.942-5.107c-2.36-3.106-6.432-5.398-10.545-4.514
				c-3.182,0.684-3.77,4.497-0.84,5.484c1.415,0.477,2.856,0.645,4.15,1.071C59.727,55.325,60.946,55.923,61.479,56.676z"/>
		</g>
		<g>
			<g>
				<path fill="#FFFFFF" d="M62.105,55.046c-0.276,0.532-0.521,0.973-0.854,1.36c0.085,0.087,0.162,0.178,0.227,0.27
					c0.319,0.452,0.472,1.171,0.656,1.869c0.483,0.001,0.977,0.035,1.436,0.126C63.32,57.587,63.156,55.651,62.105,55.046z"/>
			</g>
			<g>
				<path fill="#FFFFFF" d="M58.842,55.184c0.246-0.46,0.508-0.919,0.711-1.387c-1.052-0.682-2.66-1.026-3.873-1.294
					c0.196,0.655,0.016,1.249-0.169,1.854c1.119,0.292,2.23,0.474,3.248,0.81C58.785,55.171,58.815,55.179,58.842,55.184z"/>
			</g>
			<g>
				<path fill="#FFFFFF" d="M61.134,49.267c-0.347,0.779-0.825,1.48-1.371,2.209c0.961,0.53,1.907,0.98,2.806,1.633
					c-0.228-0.905,0.162-1.813,0.711-2.619C62.608,50.007,61.887,49.598,61.134,49.267z"/>
			</g>
			<g>
				<path fill="#FFFFFF" d="M58.616,48.528c-0.914-0.141-1.854-0.139-2.8,0.021c-0.035,0.544-0.153,1.101-0.123,1.683
					c1.008,0.108,2.078,0.025,3.091,0.101C58.758,49.675,58.649,49.103,58.616,48.528z"/>
			</g>
			<g>
				<path fill="#FFFFFF" d="M67.281,56.42c-0.032-1.238-0.588-2.372-1.288-3.295c-0.223-0.292-0.464-0.573-0.713-0.848
					c-0.496,0.551-1.041,1.026-1.787,1.105c1.03,1.351,1.47,2.332,1.854,3.965C66.007,56.991,66.631,56.638,67.281,56.42z"/>
			</g>
		</g>
		<g>
			<path fill="#176B13" d="M63.554,59.808c-0.1-0.035-0.187-0.076-0.27-0.116c-0.929-0.744-0.891-2.747-1.539-3.668
				c-0.532-0.753-1.752-1.349-2.719-1.508c-1.294-0.425-2.736-0.595-4.15-1.072c-1.596-0.536-2.142-1.91-1.799-3.163
				c-0.773,1.388-0.349,3.182,1.531,3.815c1.415,0.477,2.856,0.645,4.15,1.071c0.968,0.158,2.188,0.756,2.72,1.509
				c0.647,0.92,0.609,2.923,1.539,3.666c0.082,0.041,0.17,0.083,0.27,0.118c1.436,0.489,2.998-0.713,3.648-2.228
				c0.057-0.129,0.088-0.256,0.13-0.386C66.353,59.229,64.902,60.268,63.554,59.808z"/>
		</g>
	</g>
	<g>
		<g>
			<g>
				<path fill="#F0D907" d="M52.188,46.229c-2.484,0-4.502-2.021-4.502-4.502c0-0.221,0.023-0.447,0.069-0.714
					c0.342-2.188,2.208-3.789,4.433-3.789c2.482,0,4.501,2.021,4.501,4.503C56.688,44.208,54.67,46.229,52.188,46.229z"/>
			</g>
			<g>
				<path fill="#D60051" d="M52.188,46.56c-2.782,0-5.046-2.264-5.046-5.045c0-0.248,0.025-0.501,0.079-0.801
					c0.382-2.45,2.474-4.244,4.967-4.244c2.78,0,5.044,2.263,5.044,5.045C57.231,44.296,54.968,46.56,52.188,46.56z"/>
			</g>
			<g>
				<path fill="#F0D907" d="M52.188,46.229c-2.484,0-4.502-2.021-4.502-4.502c0-0.221,0.023-0.447,0.069-0.714
					c0.342-2.188,2.208-3.789,4.433-3.789c2.482,0,4.501,2.021,4.501,4.503C56.688,44.208,54.67,46.229,52.188,46.229z"/>
			</g>
			<g>
				<g>
					<g>
						<circle fill="#FFFFFF" cx="51.989" cy="41.266" r="3.72"/>
					</g>
					<g>
						<path fill="#E8E8E8" d="M48.409,40.316c0.117,1.945,1.718,3.493,3.694,3.493c1.725,0,3.161-1.177,3.583-2.769
							c0.005,0.076,0.022,0.146,0.022,0.225c0,2.055-1.666,3.719-3.72,3.719s-3.721-1.664-3.721-3.719
							C48.269,40.935,48.325,40.619,48.409,40.316z"/>
					</g>
				</g>
				<g>
					<g>
						<circle cx="52.356" cy="42.479" r="1.854"/>
					</g>
					<g>
						<path fill="#FFFFFF" d="M52.688,41.646c0,0.364,0.295,0.66,0.659,0.66c0.363,0,0.658-0.296,0.658-0.66
							c0-0.361-0.295-0.656-0.658-0.656C52.982,40.99,52.688,41.285,52.688,41.646z"/>
					</g>
				</g>
			</g>
		</g>
		<g>
			<circle fill="#FFFFFF" cx="51.066" cy="43.341" r="0.436"/>
		</g>
	</g>
	<g>
		<g>
			<g>
				<path fill="#F0D907" d="M51.502,34.286c-1.86,0-3.372-1.515-3.372-3.374c0-0.164,0.018-0.334,0.052-0.533
					c0.257-1.641,1.654-2.838,3.32-2.838c1.862,0,3.374,1.512,3.374,3.371S53.364,34.286,51.502,34.286z"/>
			</g>
			<g>
				<path fill="#D60051" d="M51.502,34.534c-2.082,0-3.779-1.698-3.779-3.781c0-0.184,0.018-0.374,0.06-0.598
					c0.286-1.837,1.854-3.183,3.72-3.183c2.084,0,3.781,1.698,3.781,3.78C55.283,32.836,53.586,34.534,51.502,34.534z"/>
			</g>
			<g>
				<path fill="#F0D907" d="M51.502,34.286c-1.86,0-3.372-1.515-3.372-3.374c0-0.164,0.018-0.334,0.052-0.533
					c0.257-1.641,1.654-2.838,3.32-2.838c1.862,0,3.374,1.512,3.374,3.371S53.364,34.286,51.502,34.286z"/>
			</g>
			<g>
				<g>
					<g>
						<circle fill="#FFFFFF" cx="51.354" cy="30.567" r="2.787"/>
					</g>
					<g>
						<path fill="#E8E8E8" d="M48.672,29.854c0.088,1.459,1.288,2.618,2.769,2.618c1.291,0,2.368-0.881,2.685-2.073
							c0.003,0.057,0.017,0.11,0.017,0.168c0,1.538-1.247,2.786-2.787,2.786c-1.539,0-2.787-1.248-2.787-2.786
							C48.567,30.318,48.609,30.083,48.672,29.854z"/>
					</g>
				</g>
				<g>
					<g>
						<circle cx="51.629" cy="31.477" r="1.389"/>
					</g>
					<g>
						<circle fill="#FFFFFF" cx="52.371" cy="30.853" r="0.493"/>
					</g>
				</g>
			</g>
		</g>
		<g>
			<circle fill="#FFFFFF" cx="50.663" cy="32.122" r="0.327"/>
		</g>
	</g>
	<g>
		<g>
			<g>
				<path fill="#F0D907" d="M50.681,25.831c-1.399,0-2.536-1.139-2.536-2.538c0-0.124,0.014-0.251,0.039-0.401
					c0.193-1.23,1.243-2.135,2.497-2.135c1.399,0,2.536,1.139,2.536,2.536C53.217,24.692,52.08,25.831,50.681,25.831z"/>
			</g>
			<g>
				<path fill="#D60051" d="M50.681,26.017c-1.567,0-2.843-1.276-2.843-2.842c0-0.14,0.014-0.283,0.045-0.45
					c0.216-1.382,1.393-2.393,2.798-2.393c1.566,0,2.843,1.274,2.843,2.843C53.523,24.74,52.247,26.017,50.681,26.017z"/>
			</g>
			<g>
				<path fill="#F0D907" d="M50.681,25.831c-1.399,0-2.536-1.139-2.536-2.538c0-0.124,0.014-0.251,0.039-0.401
					c0.193-1.23,1.243-2.135,2.497-2.135c1.399,0,2.536,1.139,2.536,2.536C53.217,24.692,52.08,25.831,50.681,25.831z"/>
			</g>
			<g>
				<g>
					<g>
						<circle fill="#FFFFFF" cx="50.569" cy="23.035" r="2.096"/>
					</g>
					<g>
						<path fill="#E8E8E8" d="M48.553,22.499c0.064,1.097,0.968,1.968,2.08,1.968c0.973,0,1.781-0.663,2.02-1.558
							c0.003,0.042,0.013,0.081,0.013,0.126c0,1.157-0.938,2.095-2.096,2.095c-1.158,0-2.097-0.938-2.097-2.095
							C48.473,22.848,48.505,22.671,48.553,22.499z"/>
					</g>
				</g>
				<g>
					<g>
						<circle cx="50.776" cy="23.718" r="1.044"/>
					</g>
					<g>
						<circle fill="#FFFFFF" cx="51.333" cy="23.248" r="0.371"/>
					</g>
				</g>
			</g>
		</g>
		<g>
			<circle fill="#FFFFFF" cx="50.049" cy="24.203" r="0.247"/>
		</g>
	</g>
	<g>
		<path d="M49.447,19.617c0,0-0.063,0.045-0.176,0.123c-0.057,0.039-0.124,0.084-0.204,0.138c-0.09,0.06-0.149,0.107-0.206,0.154
			c-0.124,0.091-0.284,0.21-0.457,0.399c-0.185,0.167-0.335,0.387-0.511,0.597c-0.143,0.228-0.311,0.452-0.418,0.687
			c-0.129,0.228-0.21,0.453-0.284,0.651c-0.089,0.195-0.104,0.365-0.142,0.485c-0.03,0.12-0.048,0.188-0.048,0.188l-0.909,0.002
			c0,0-0.007-0.086-0.021-0.232c-0.005-0.148-0.052-0.37-0.032-0.624c0.007-0.258,0.015-0.563,0.071-0.884
			c0.034-0.327,0.133-0.659,0.218-1.005c0.118-0.328,0.222-0.673,0.379-0.975c0.129-0.301,0.31-0.601,0.486-0.858
			c0.088-0.135,0.165-0.248,0.217-0.313c0.057-0.075,0.106-0.142,0.146-0.197c0.082-0.109,0.128-0.172,0.128-0.172L49.447,19.617z"
			/>
	</g>
	<g>
		<path d="M54.378,24.293c0,0,0.268,0.229,0.668,0.575c0.222,0.216,0.495,0.441,0.743,0.729c0.258,0.273,0.508,0.598,0.729,0.943
			c0.116,0.167,0.198,0.358,0.293,0.532c0.099,0.173,0.163,0.354,0.227,0.528c0.143,0.344,0.208,0.666,0.28,0.939
			c0.065,0.271,0.091,0.497,0.122,0.654c0.026,0.156,0.042,0.246,0.042,0.246l-0.872,0.253c0,0-0.038-0.076-0.104-0.209
			c-0.068-0.13-0.152-0.325-0.277-0.536c-0.129-0.205-0.263-0.458-0.448-0.676c-0.087-0.117-0.172-0.235-0.281-0.334
			c-0.107-0.101-0.195-0.215-0.314-0.303c-0.224-0.187-0.461-0.357-0.707-0.495c-0.233-0.147-0.479-0.243-0.667-0.348
			c-0.477-0.211-0.794-0.353-0.794-0.353L54.378,24.293z"/>
	</g>
	<g>
		<path d="M49.344,36.363c0,0-0.069,0.037-0.191,0.104c-0.06,0.032-0.134,0.073-0.218,0.12c-0.105,0.054-0.123,0.079-0.192,0.123
			c-0.064,0.039-0.134,0.083-0.208,0.128c-0.086,0.077-0.178,0.156-0.272,0.241c-0.2,0.159-0.378,0.381-0.579,0.585
			c-0.355,0.435-0.711,0.913-0.879,1.286c-0.11,0.189-0.154,0.34-0.193,0.449c-0.04,0.109-0.064,0.175-0.064,0.175l-0.906-0.042
			c0,0,0-0.091-0.001-0.249c0-0.163-0.002-0.403,0.046-0.656c0.06-0.539,0.266-1.188,0.514-1.841
			c0.146-0.314,0.271-0.645,0.449-0.933c0.085-0.148,0.166-0.29,0.244-0.425c0.112-0.15,0.219-0.289,0.316-0.417
			c0.096-0.123,0.211-0.269,0.266-0.322c0.065-0.07,0.123-0.133,0.17-0.184c0.094-0.103,0.147-0.16,0.147-0.16L49.344,36.363z"/>
	</g>
	<g>
		<path d="M51.75,17.115c0,0,0.064,0.043,0.177,0.117c0.056,0.036,0.123,0.081,0.201,0.132c0.082,0.056,0.154,0.098,0.283,0.196
			c0.233,0.175,0.517,0.369,0.751,0.618c0.257,0.229,0.482,0.524,0.698,0.81c0.194,0.305,0.378,0.604,0.5,0.898
			c0.147,0.289,0.221,0.568,0.308,0.798c0.141,0.468,0.215,0.776,0.215,0.776l-0.802,0.323c0,0-0.158-0.253-0.406-0.607
			c-0.137-0.167-0.271-0.379-0.456-0.557c-0.168-0.193-0.374-0.359-0.569-0.521c-0.217-0.14-0.415-0.28-0.635-0.369
			c-0.206-0.113-0.404-0.153-0.56-0.211c-0.063-0.025-0.188-0.058-0.272-0.081c-0.09-0.023-0.169-0.046-0.234-0.063
			c-0.129-0.035-0.203-0.056-0.203-0.056L51.75,17.115z"/>
	</g>
	<g>
		<path d="M48.65,27.341c0,0-0.065,0.062-0.181,0.166c-0.058,0.053-0.128,0.116-0.208,0.19c-0.038,0.035-0.079,0.071-0.121,0.113
			l-0.06,0.084c-0.045,0.058-0.098,0.12-0.163,0.189c-0.063,0.065-0.121,0.212-0.19,0.322c-0.151,0.232-0.244,0.53-0.363,0.822
			c-0.054,0.147-0.085,0.304-0.129,0.456c-0.042,0.153-0.083,0.307-0.1,0.456c-0.055,0.299-0.091,0.582-0.091,0.823
			c-0.023,0.248,0.001,0.438,0.012,0.577c0.01,0.14,0.017,0.219,0.017,0.219l-0.824,0.267c0,0-0.034-0.093-0.096-0.253
			c-0.061-0.163-0.156-0.401-0.209-0.684c-0.079-0.286-0.131-0.62-0.166-0.984c-0.027-0.184-0.033-0.371-0.034-0.564
			c0-0.192-0.015-0.393-0.001-0.59c0.04-0.396,0.058-0.802,0.164-1.186c0.052-0.196,0.068-0.368,0.149-0.567
			c0.08-0.199,0.164-0.39,0.246-0.564c0.041-0.088,0.082-0.17,0.121-0.25c0.032-0.055,0.063-0.106,0.093-0.155
			c0.058-0.092,0.108-0.173,0.149-0.239c0.083-0.131,0.13-0.207,0.13-0.207L48.65,27.341z"/>
	</g>
	<g>
		<path d="M54.519,33.875c0,0,0.082,0.038,0.224,0.108c0.07,0.033,0.157,0.075,0.256,0.124c0.095,0.046,0.204,0.096,0.374,0.202
			c0.153,0.097,0.318,0.2,0.494,0.311c0.185,0.107,0.303,0.248,0.46,0.379c0.315,0.253,0.571,0.589,0.837,0.901
			c0.225,0.342,0.458,0.669,0.612,1.006c0.179,0.325,0.294,0.645,0.4,0.913c0.192,0.543,0.283,0.906,0.282,0.906l-0.803,0.317
			c0,0-0.173-0.302-0.464-0.715c-0.153-0.201-0.321-0.438-0.539-0.656c-0.195-0.237-0.451-0.433-0.683-0.641
			c-0.262-0.169-0.5-0.357-0.759-0.457c-0.121-0.052-0.245-0.139-0.345-0.149c-0.1-0.029-0.192-0.058-0.278-0.081
			c-0.063-0.027-0.188-0.052-0.301-0.07c-0.108-0.02-0.202-0.037-0.279-0.052c-0.155-0.028-0.245-0.044-0.245-0.044L54.519,33.875z"
			/>
	</g>
	<g>
		<path fill="#11500E" d="M32.134,35.147c0.006-0.042-0.008-0.069-0.031-0.088c-0.005-0.033-0.005-0.07-0.023-0.1
			c-0.02-0.033-0.081-0.035-0.102-0.001c-0.027,0.046-0.035,0.094-0.04,0.146c-0.007,0.015-0.018,0.026-0.016,0.046
			c0.002,0.013,0.005,0.024,0.007,0.037c0.001,0.008,0.009,0.009,0.012,0.016c0.005,0.018,0.01,0.032,0.024,0.042
			c0.01,0.007,0.019,0.011,0.029,0.014c0.011,0.005,0.021,0.007,0.033,0.007c0.014,0,0.025-0.002,0.038-0.008
			c0.011-0.004,0.018-0.008,0.026-0.016c0.012-0.009,0.019-0.021,0.024-0.039c0.003-0.007,0.011-0.008,0.013-0.02
			C32.13,35.173,32.132,35.159,32.134,35.147z"/>
	</g>
	<g>
		<path fill="#125E0F" d="M34.345,61.71c-1.129-1.074-2.565-1.872-3.871-2.724c-1.856-1.209-4.813-2.222-6.018-4.143
			c-0.178-0.28-0.405-0.456-0.649-0.545c0.145-0.232,0.309-0.454,0.509-0.637c0.535,0.396,1.168,0.653,1.902,0.543
			c1.126-0.168,1.115-1.848,0.097-2.164c-0.585-0.183-1.235-0.487-1.862-0.424c-0.589,0.062-0.93,0.318-1.305,0.768
			c-0.4,0.478-0.864,1.188-0.844,1.841c-0.084-0.065-0.171-0.128-0.283-0.192c-0.816-0.46-1.513-1.103-2.207-1.725
			c-0.997-0.892-1.562-2.518-2.973-2.822c-0.751-0.16-1.574,0.321-1.559,1.16c0.001,0.047-0.067,0.597,0.066,0.489
			c-1.357,1.087,0.891,2.974,1.807,1.77c0.104,0.157,0.201,0.297,0.286,0.39c0.564,0.612,1.324,1.054,2.006,1.521
			c0.068,0.046,0.142,0.086,0.211,0.131c-0.02,0.004-0.041,0.009-0.06,0.013c-1.364,0.346-2.873,0.364-4.188,0.831
			c-0.859,0.307-1.326,1.598-0.343,2.122c1.205,0.645,1.507,2.11,2.574,2.933c0.816,0.628,1.785-0.236,1.864-1.051
			c0.003-0.031,0.007-0.062,0.01-0.091c0.074-0.762-0.67-1.233-1.348-1.138c0.809-0.114,0.285-0.622-0.087-1.045
			c0.489-0.079,0.979-0.159,1.438-0.301c0.847-0.26,1.882-0.423,2.733-0.824c1.344,2.028,3.809,3.015,5.82,4.19
			c1.854,1.084,3.888,2.346,6.084,1.74C34.41,62.256,34.556,61.912,34.345,61.71z"/>
	</g>
	<g>
		<path fill="#125E0F" d="M72.708,26.782c0.316,0.302,0.53,0.685,0.778,1.074c0.965,1.513,3.285,0.015,2.337-1.511
			c-0.066-0.109-0.135-0.218-0.202-0.327c-0.107-0.172-0.244-0.292-0.395-0.388c-0.566-0.648-1.153-1.16-2.113-1.308
			c-0.837-0.13-1.982,0.788-2.574,1.267c-1.147,0.926-1.649,2.302-1.957,3.736c-0.107-0.292-0.219-0.58-0.33-0.873
			c-0.235-0.627-0.275-1.295-0.486-1.916c-0.612-1.804-3.192-1.829-4.701-1.268c-1.168,0.434-1.181,2.367,0.259,2.334
			c0.09-0.002,0.18-0.004,0.27-0.006c0.307-0.008,0.62-0.135,0.851-0.347c0.45-0.128,0.927-0.165,1.381-0.304
			c0.401-0.12,0.817,1.422,0.901,1.649c0.31,0.833,0.688,1.516,0.638,2.439c-0.017,0.313,0.046,0.556,0.131,0.798
			c-0.079,0.023-0.159,0.044-0.232,0.085c0.002,0,0.003-0.002,0.005-0.004c-0.004,0.002-0.006,0.005-0.011,0.007
			c-0.174,0.101-0.328,0.244-0.443,0.453c-0.188,0.338-0.361,0.674-0.514,1.03c-0.449,1.038-0.768,2.006-1.487,2.907
			c-1.196,1.496-2.787,2.605-4.212,3.863c-0.274,0.241-0.181,0.793,0.156,0.933c1.675,0.696,3.603-1.017,4.841-1.971
			c1.848-1.427,2.817-3.647,3.549-5.795c0.145-0.423,0.044-0.792-0.18-1.067c0.873,0.196,1.713,0.037,2.659-0.19
			c0.809-0.195,0.949-0.166,1.093,0.593c0.036,0.191,0.172,0.418,0.257,0.597c0.066,0.138,0.092,0.226,0.104,0.273
			c-0.189,1.014,1.16,1.969,1.988,1.084c0.608-0.648,0.467-1.304,0.161-2.058c-0.29-0.715-0.585-1.516-1.086-2.107
			c-0.998-1.178-2.803-0.559-4.289,0.148c0.149-0.255,0.289-0.52,0.413-0.793C70.8,28.643,71.469,27.307,72.708,26.782z"/>
	</g>
	<g>
		<path fill="#125E0F" d="M80.174,42.331c-1.244-0.388-2.571,0.183-3.809,0.7c0.369-0.474,0.603-1.044,0.74-1.777
			c0.149-0.786-0.014-1.837,0.376-2.557c0.154-0.283,0.285-0.573,0.41-0.867c0.413,0.118,0.824,0.253,1.253,0.231
			c0.069-0.005,0.128-0.017,0.189-0.028c0.032-0.004,0.063-0.007,0.095-0.016c0.02-0.003,0.036-0.01,0.057-0.016
			c0.064-0.019,0.128-0.04,0.187-0.07c0.033-0.017,0.06-0.037,0.091-0.056c0.029-0.021,0.061-0.037,0.089-0.059
			c0.229-0.176,0.362-0.425,0.411-0.693c0.09-0.422-0.027-0.882-0.383-1.15c-0.014-0.01-0.028-0.019-0.042-0.027
			c-0.034-0.024-0.065-0.048-0.104-0.068c-0.154-0.086-0.338-0.139-0.553-0.132c-0.418-0.021-0.938-0.061-1.317-0.221
			c-0.545-0.231-1.104,0.131-1.32,0.622c-0.518,1.175-1.166,2.194-1.209,3.511c-0.02,0.584-0.092,1.13-0.182,1.685
			c-0.106-0.307-0.237-0.587-0.386-0.8c-0.462-0.655-1.163-0.846-1.902-1.051c-0.69-0.189-0.935-0.885-1.676-1.039
			c-0.646-0.136-1.454,0.2-1.442,0.982c0.004,0.297,0.104,0.587,0.108,0.875c0.022,1.209,1.183,1.407,1.938,1.021
			c0.419,0.182,0.896,0.233,1.325,0.387c0.305,0.107,0.303,1.173,0.316,1.42c0.01,0.183,0.037,0.372,0.079,0.56
			c-1.387,1.146-2.331,2.735-4.101,3.428c-1.372,0.537-3.164,1.494-4.118,2.626c-0.222,0.263-0.186,0.634,0.117,0.817
			c1.578,0.967,3.625-0.676,5.188-1.16c2.117-0.652,3.782-2.515,5.046-4.237c0.184-0.25,0.23-0.524,0.187-0.786
			c0.753,0.191,1.468,0.319,2.305,0.285c0.354-0.012,0.684-0.14,1.029-0.188c0.003,0.034,0.009,0.073,0.018,0.125
			c-0.026,0.253-0.012,0.504,0.045,0.754c0.16,1.438,2.156,0.938,2.328-0.255C81.714,44.011,81.343,42.695,80.174,42.331z"/>
	</g>
	<g>
		<path fill="#125E0F" d="M41.026,51.115c-3.855-0.537-7.919-1.601-11.512-3.171c0.771-0.517,1.468-1.156,2.146-1.785
			c0.304-0.28,0.667-0.621,1.047-0.93c0.828,1.137,2.824-0.067,1.994-1.276c-0.105-0.153-0.231-0.278-0.366-0.386
			c0.025-0.016,0.046-0.027,0.071-0.044c-0.056-0.148-0.117-0.295-0.188-0.438c-0.257-0.561-0.938-0.705-1.46-0.474
			c-0.858,0.377-1.57,1.128-2.292,1.718c-0.54,0.44-1.116,0.965-1.625,1.524c-0.032-0.172-0.063-0.339-0.086-0.494
			c-0.16-1.123-0.632-2.145-1.427-2.945c-0.673-0.684-1.552-0.216-2.126,0.342c-0.321,0.311-0.975,0.52-1.378,0.73
			c-0.25,0.132-0.636,0.273-1.029,0.271c-0.743-0.003-1.397,0.713-1.179,1.469c0.153,0.524,0.433,0.87,0.824,1.239
			c0.825,0.777,1.965,0.075,2.109-0.747c0.133-0.063,0.255-0.133,0.35-0.216c0.361-0.311,0.764-0.564,1.134-0.86
			c0.122-0.087,0.225-0.192,0.329-0.3c0.417,0.724,0.538,1.541,0.751,2.406c0.039,0.165,0.071,0.32,0.102,0.474
			c-0.606-0.16-1.299-0.203-1.918-0.24c-1.31-0.081-2.688-0.108-3.869,0.534c-1.18,0.641-0.544,2.33,0.667,2.384
			c0.501,0.022,0.993,0.098,1.492,0.12c0.571,0.023,0.937-0.267,1.105-0.657c0.873,0.007,1.775,0.109,2.601-0.085
			c0.087,0.177,0.222,0.348,0.438,0.487c0.084,0.056,0.175,0.106,0.279,0.151c4.365,1.896,8.356,2.521,13.086,1.913
			C41.537,51.772,41.398,51.167,41.026,51.115z"/>
	</g>
	<g>
		<path fill="#125E0F" d="M86.746,59.619c-0.014-0.039-0.026-0.078-0.039-0.115c-0.102-0.304-0.274-0.507-0.468-0.659
			c-0.031-0.093-0.053-0.189-0.103-0.276c-0.161-0.255-0.334-0.438-0.596-0.591c-0.602-0.351-1.342-0.224-1.998-0.175
			c-0.976,0.072-1.787,0.337-2.597,0.897c-0.455,0.313-0.897,0.448-1.257,0.767c-0.019-0.028-0.035-0.058-0.057-0.082
			c0.219-0.398,0.383-0.835,0.535-1.233c0.56-1.46,1.438-2.75,2.116-4.155c0.325-0.672,0.195-1.71-0.266-2.293
			c-0.571-0.729-1.77-0.355-2.542-0.377c-1.446-0.043-1.512,2.288-0.11,2.21c0.697-0.038,1.2-0.249,1.853-0.454
			c-0.76,0.238-0.658,0.438-1.015,1.156c-0.232,0.465-0.493,0.922-0.737,1.381c-0.491,0.912-1.027,2.049-1.24,3.153
			c-1.348-0.231-2.895,0.202-4.14,0.568c-1.288,0.379-2.918,0.418-3.572,1.778c-0.204,0.427,0.124,1.055,0.649,0.97
			c1.346-0.221,2.705-0.364,4.051-0.608c1.378-0.25,2.684,0.137,3.914-0.436c0.033,0.317,0.114,0.638,0.186,0.901
			c0.158,0.588,0.34,1.165,0.521,1.747c-1.33,0.033-2.102,1.956-0.656,2.682c0.776,0.388,1.975,1.115,2.869,0.823
			c1.302-0.427,1.139-1.743,0.855-2.784c-0.332-1.217-0.887-2.493-1.632-3.513c-0.047-0.065-0.112-0.159-0.185-0.261
			c0.44-0.086,0.868-0.211,1.358-0.364c0.337-0.104,0.845-0.184,1.32-0.189c0.009,0.036,0.008,0.078,0.018,0.11
			c0.166,0.521,0.527,0.835,0.982,1.103C85.844,61.938,87.122,60.744,86.746,59.619z"/>
	</g>
	<g>
		<path fill="#125E0F" d="M42.486,38.862c-0.494-0.798-1.446-0.958-2.285-1.188c-1.313-0.364-2.586-0.826-3.749-1.539
			c-0.748-0.458-2.083-1.146-2.561-1.913c-0.36-0.583-0.933-0.719-1.45-0.583c-0.058-0.146-0.151-0.283-0.298-0.399
			c-0.108-0.087-0.229-0.159-0.354-0.22c0.1-0.683,0.177-1.376,0.19-2.054c0.01-0.513-0.102-1.432-0.06-2.207
			c0.6,0.412,1.271,0.534,1.947-0.225c0.534-0.601,0.478-1.545-0.253-1.973c-0.249-0.146-0.541-0.188-0.822-0.146
			c-0.045-0.026-0.094-0.049-0.138-0.078c-1.429-0.848-2.24,0.445-2.289,1.744c-0.038,1.007,0.056,2.042,0.077,3.052
			c0.006,0.284-0.003,0.554-0.012,0.816c-0.037-0.037-0.077-0.081-0.109-0.111c-0.255-0.241-0.742-0.235-1.005-0.017
			c-0.438,0.364-0.873,0.733-1.302,1.106c-1.49,0.145-2.944,2.126-3.358,3.355c-0.386,1.146,1.104,1.836,1.82,0.935
			c1.066-1.339,2.28-2.63,3.546-3.805c-0.443,0.656-0.662,1.745-0.932,2.462c-0.485,1.293-0.731,2.735-0.772,4.111
			c-0.043,1.448,2.229,1.548,2.243,0.1c0.014-1.202,0.165-2.353,0.485-3.515c0.096-0.349,0.228-0.687,0.351-1.026
			c0.036,0.077,0.075,0.153,0.129,0.23c1.121,1.585,3.408,2.595,5.224,3.104c1.135,0.319,4.727,1.158,5.714,0.176
			C42.522,38.999,42.53,38.933,42.486,38.862z"/>
	</g>
</g>
</svg>
