<svg width="800" height="800" xmlns="http://www.w3.org/2000/svg">
 <g>
  <title>background</title>
 </g>

 <style>#ba { animation: arm1 20s linear alternate infinite;

    transform-origin:10% 10%;
    transform-box: fill-box;}

  @keyframes arm1{
  0%{transform:rotateZ(0deg);}
  10%{transform:rotateZ(0deg);}
  12%{transform: rotateZ(-25deg);}
  15%{transform: rotateZ(-25deg);}
  17%{transform: rotateZ(0deg);}
  60%{transform:rotateZ(0deg);}
  62%{transform: rotateZ(-25deg);}
  65%{transform: rotateZ(-25deg);}
  67%{transform: rotateZ(0deg);}

  


  100%{transform: rotateZ(0deg);}

}
#bb { animation: bb 20s linear alternate infinite;

    transform-origin:90% 10%;
    transform-box: fill-box;}

  @keyframes bb{
  0%{transform:rotateZ(0deg);}
  30%{transform:rotateZ(0deg);}
  32%{transform: rotateZ(25deg);}
  35%{transform: rotateZ(25deg);}
  37%{transform: rotateZ(0deg);}
  80%{transform:rotateZ(0deg);}
  82%{transform: rotateZ(25deg);}
  85%{transform: rotateZ(25deg);}
  87%{transform: rotateZ(0deg);}

  


  100%{transform: rotateZ(0deg);}

  }
  #body{ animation: body .4s ease-in-out alternate infinite;

    transform-origin:bottom;
    transform-box: fill-box;

  }
@keyframes body {
  0%{transform: scale(1,1);}
   100%{transform: scale(1,1.02);}
}
#amouth { animation: arm1 .3s linear alternate infinite;

    transform-origin:40% 40%;
    transform-box: fill-box;}

  @keyframes arm1{
   0%{transform: scale(1,1);}
   100%{transform: scale(1,1.3);}

  }
#ctail { animation: ct .7s cubic-bezier(0.455, 0.03, 0.515, 0.955) alternate infinite;

    transform-origin:90% 90%;
    transform-box: fill-box;}

  @keyframes ct {
  0%{transform:rotateZ(-8deg);}
  100%{transform: rotateZ(8deg);}

  }
  #d { animation: d 10s linear  infinite;
  transform-origin:90% 90%;
    transform-box: fill-box;}
  @keyframes d {
    0%{transform: translate(0px,0px);}
    30%{transform: translate(-30px, 30px);}
    50%{transform: translate(-30px, 30px);}
  }
  #da { animation: da .7s cubic-bezier(0.455, 0.03, 0.515, 0.955) alternate infinite;

    transform-origin:0% 100%;
    transform-box: fill-box;}

  @keyframes da {
  0%{transform:rotateZ(0deg);}
  100%{transform: rotateZ(8deg);}

  }
   #db { animation: db .7s cubic-bezier(0.455, 0.03, 0.515, 0.955) alternate infinite;

    transform-origin:90% 90%;
    transform-box: fill-box;}

  @keyframes db {
  0%{transform:rotateZ(0deg);}
  100%{transform: rotateZ(-8deg);}

  }
   #ea { animation: ea .7s cubic-bezier(0.455, 0.03, 0.515, 0.955) alternate infinite;

    transform-origin:10% 95%;
    transform-box: fill-box;}

  @keyframes ea {
  0%{transform:rotateZ(0deg);}
  100%{transform: rotateZ(-10deg);}

  }

  #f { animation: f 50s linear  infinite;
 
    
  }
  #g { animation: g 25s linear  infinite;
  transform-origin:center;
    transform-box: fill-box;}
  @keyframes g {
    0%{transform: translate(-490px,0px) rotateY(0deg);}

    50%{transform: translate(490px, 0px) rotateY(0deg);}
    55%{transform: translate(490px, 0px) rotateY(0deg);}
     52%{transform: translate(490px, 0px) rotateY(180deg);}

     54%{transform: translate(490px, 0px) rotateY(180deg);}

     55%{transform: translate(490px, 0px) rotateY(180deg);}
    
    100%{transform: translate(-490px, 0px) rotateY(180deg);}
    
  }
    #h { animation: h 20s linear  infinite;
 
    
  }
      #j { animation: j 15s linear  infinite;
 
  }

#km { animation: km .3s linear alternate infinite;

    transform-origin:40% 40%;
    transform-box: fill-box;}

  @keyframes km {
   0%{transform: scale(1,1);}
100%{transform: scale(1,1.2);} 

}
#lha { animation: lh1 2s linear alternate infinite;

    transform-origin:10% 60%;
    transform-box: fill-box;}

  @keyframes lh1 {
  0%{transform:rotateZ(-8deg);}
  100%{transform: rotateZ(8deg);}

  }
   #clouds { animation: cld 45s linear  infinite;
  transform-origin:center;
    transform-box: fill-box;}
  @keyframes cld {
    0%{transform: translate(470px,0px) rotateY(0deg);}

    100%{transform: translate(-490px, 0px) rotateY(0deg);}
  }
 #iha { animation: i1 1s linear alternate infinite;

   

  }
   #ihb { animation: i2 1s linear alternate infinite;

    transform-origin:10% 60%;
    transform-box: fill-box;}

  @keyframes i2 {
  0%{transform:rotateZ(8deg);}
  100%{transform: rotateZ(-8deg);}

  }
   #ihd { animation: i3 1s linear alternate infinite;

    transform-origin:100% 100%;
    transform-box: fill-box;}

  @keyframes i3 {
  0%{transform:rotateZ(8deg);}
  100%{transform: rotateZ(-8deg);}

  }
      #i { animation: i 20s linear  infinite;
  transform-origin:center;
    transform-box: fill-box;}
  @keyframes i {
    0%{transform: translate(170px,0px) rotateY(0deg);}

    50%{transform: translate(-150px, 0px) rotateY(0deg);}
    55%{transform: translate(-150px, 0px) rotateY(0deg);}
     52%{transform: translate(-150px, 0px) rotateY(180deg);}

     54%{transform: translate(-150px, 0px) rotateY(180deg);}

     55%{transform: translate(-150px, 0px) rotateY(180deg);}
    
    100%{transform: translate(170px, 0px) rotateY(180deg);}
    
  }
    #hh { animation: hh 1s linear alternate infinite;

    transform-origin:20% 80%;
    transform-box: fill-box;}

  @keyframes hh {
  0%{transform:rotateZ(20deg);}
  100%{transform: rotateZ(-20deg);}

  }</style>
 <g>
  <title>Layer 1</title>
  <g id="clouds">
   <path id="svg_3" fill-rule="evenodd" fill="#fff" d="m492.89,45.69a4.53,4.53 0 0 1 -0.08,-1.35a0.86,0.86 0 0 1 0.58,-0.23a0.88,0.88 0 0 1 0,1.75a0.8,0.8 0 0 1 -0.5,-0.17zm2.27,-4.47a7.47,7.47 0 0 1 1.4,-0.5a0.87,0.87 0 0 1 -0.85,0.7a0.88,0.88 0 0 1 -0.55,-0.2zm2,-0.63a12.06,12.06 0 0 1 1.73,-0.18s0,0.09 0,0.14a0.87,0.87 0 0 1 -1.74,0l0.01,0.04zm2.32,-0.19a13.94,13.94 0 0 1 1.73,0.13l0,0a0.87,0.87 0 0 1 -1.74,0a0.76,0.76 0 0 1 0,-0.15l0.01,0.02zm2.31,0.23a10.55,10.55 0 0 1 1.59,0.41a0.87,0.87 0 0 1 -1.59,-0.41zm3.34,0.77a9,9 0 0 1 -0.05,-1.72a0.87,0.87 0 0 1 0.05,1.72zm45.64,-1.5a5.22,5.22 0 0 1 0.95,1.44a0.91,0.91 0 0 1 -0.37,0.08a0.87,0.87 0 0 1 -0.87,-0.87a0.86,0.86 0 0 1 0.29,-0.65zm16.21,1.3a6.86,6.86 0 0 1 1.19,0a0.82,0.82 0 0 1 -0.6,0.25a0.88,0.88 0 0 1 -0.59,-0.22l0,-0.03zm-59.64,-1.52a0.87,0.87 0 1 1 -0.87,0.87a0.87,0.87 0 0 1 0.87,-0.87zm2.32,0a0.87,0.87 0 1 1 -0.87,0.87a0.87,0.87 0 0 1 0.87,-0.87zm2.31,0a0.87,0.87 0 1 1 -0.87,0.87a0.87,0.87 0 0 1 0.87,-0.87zm2.32,0a0.87,0.87 0 1 1 -0.87,0.87a0.87,0.87 0 0 1 0.87,-0.87zm2.32,0a0.87,0.87 0 1 1 -0.87,0.87a0.87,0.87 0 0 1 0.87,-0.87zm2.31,0a0.87,0.87 0 1 1 -0.87,0.87a0.87,0.87 0 0 1 0.87,-0.87zm2.32,0a0.87,0.87 0 1 1 -0.87,0.87a0.87,0.87 0 0 1 0.87,-0.87zm2.32,0a0.87,0.87 0 1 1 -0.88,0.87a0.87,0.87 0 0 1 0.88,-0.87zm2.31,0a0.87,0.87 0 1 1 -0.87,0.87a0.87,0.87 0 0 1 0.87,-0.87zm2.32,0a0.87,0.87 0 1 1 -0.87,0.87a0.87,0.87 0 0 1 0.87,-0.87zm2.31,0a0.87,0.87 0 1 1 -0.87,0.87a0.87,0.87 0 0 1 0.87,-0.87zm2.32,0a0.87,0.87 0 1 1 -0.87,0.87a0.87,0.87 0 0 1 0.87,-0.87zm2.32,0a0.87,0.87 0 1 1 -0.87,0.87a0.87,0.87 0 0 1 0.87,-0.87zm2.31,0a0.87,0.87 0 1 1 -0.87,0.87a0.87,0.87 0 0 1 0.87,-0.87zm2.32,0a0.87,0.87 0 1 1 -0.87,0.87a0.87,0.87 0 0 1 0.87,-0.87zm2.32,0a0.87,0.87 0 1 1 -0.88,0.87a0.87,0.87 0 0 1 0.88,-0.87zm2.31,0a0.87,0.87 0 1 1 -0.87,0.87a0.87,0.87 0 0 1 0.87,-0.87zm2.32,0a0.87,0.87 0 1 1 -0.87,0.87a0.87,0.87 0 0 1 0.87,-0.87zm2.32,0a0.87,0.87 0 1 1 -0.88,0.87a0.87,0.87 0 0 1 0.88,-0.87zm-37.85,-9.84a15.63,15.63 0 0 1 1.45,-0.94a0.85,0.85 0 0 1 0.2,0.56a0.87,0.87 0 0 1 -1.65,0.38zm16.77,-1.22c0.36,0.19 0.72,0.4 1.07,0.62a0.78,0.78 0 0 1 0,0.22a0.87,0.87 0 1 1 -1.1,-0.84l0.03,0zm1.69,1c0.31,0.21 0.62,0.44 0.93,0.68l-0.08,0a0.88,0.88 0 0 1 -0.85,-0.68zm-15.36,-1.06a0.87,0.87 0 1 1 -0.87,0.87a0.87,0.87 0 0 1 0.87,-0.87zm2.32,0a0.87,0.87 0 1 1 -0.87,0.87a0.87,0.87 0 0 1 0.87,-0.87zm2.31,0a0.87,0.87 0 1 1 -0.87,0.87a0.87,0.87 0 0 1 0.87,-0.87zm2.32,0a0.87,0.87 0 1 1 -0.87,0.87a0.87,0.87 0 0 1 0.87,-0.87zm2.32,0a0.87,0.87 0 1 1 -0.88,0.87a0.87,0.87 0 0 1 0.88,-0.87zm2.31,0a0.87,0.87 0 1 1 -0.87,0.87a0.87,0.87 0 0 1 0.87,-0.87zm-20.7,10.6a9.83,9.83 0 0 1 0.31,-1.6a0.87,0.87 0 0 1 0.42,0.74a0.88,0.88 0 0 1 -0.73,0.86zm41.57,-1.73a4.58,4.58 0 0 1 0.36,1.5l0.3,-0.09a0.87,0.87 0 1 1 -0.68,-1.41l0.02,0zm1.54,1.3a3.18,3.18 0 0 1 1.27,0.27a0.82,0.82 0 0 1 -0.51,0.17a0.87,0.87 0 0 1 -0.76,-0.44zm-40.94,-1.3a0.87,0.87 0 1 1 -0.87,0.87a0.87,0.87 0 0 1 0.87,-0.87zm2.32,0a0.87,0.87 0 1 1 -0.87,0.87a0.87,0.87 0 0 1 0.87,-0.87zm2.31,0a0.87,0.87 0 1 1 -0.87,0.87a0.87,0.87 0 0 1 0.87,-0.87zm2.32,0a0.87,0.87 0 1 1 -0.87,0.87a0.87,0.87 0 0 1 0.87,-0.87zm2.32,0a0.87,0.87 0 1 1 -0.87,0.87a0.87,0.87 0 0 1 0.87,-0.87zm2.31,0a0.87,0.87 0 1 1 -0.87,0.87a0.87,0.87 0 0 1 0.87,-0.87zm2.32,0a0.87,0.87 0 1 1 -0.87,0.87a0.87,0.87 0 0 1 0.87,-0.87zm2.32,0a0.87,0.87 0 1 1 -0.88,0.87a0.87,0.87 0 0 1 0.88,-0.87zm2.31,0a0.87,0.87 0 1 1 -0.87,0.87a0.87,0.87 0 0 1 0.87,-0.87zm2.32,0a0.87,0.87 0 1 1 -0.87,0.87a0.87,0.87 0 0 1 0.87,-0.87zm2.31,0a0.87,0.87 0 1 1 -0.87,0.87a0.87,0.87 0 0 1 0.87,-0.87zm2.32,0a0.87,0.87 0 1 1 -0.87,0.87a0.87,0.87 0 0 1 0.87,-0.87zm2.32,0a0.87,0.87 0 1 1 -0.87,0.87a0.87,0.87 0 0 1 0.87,-0.87zm2.31,0a0.87,0.87 0 1 1 -0.87,0.87a0.87,0.87 0 0 1 0.87,-0.87zm2.32,0a0.87,0.87 0 1 1 -0.87,0.87a0.87,0.87 0 0 1 0.87,-0.87zm2.32,0a0.87,0.87 0 1 1 -0.88,0.87a0.87,0.87 0 0 1 0.88,-0.87zm2.31,0a0.87,0.87 0 1 1 -0.87,0.87a0.87,0.87 0 0 1 0.87,-0.87zm-37.63,-2.87a13.42,13.42 0 0 1 1,-1.43a0.86,0.86 0 0 1 0.45,0.76a0.87,0.87 0 0 1 -0.87,0.88a0.86,0.86 0 0 1 -0.56,-0.21l-0.02,0zm27.45,-0.56q0.28,0.34 0.57,0.72a0.87,0.87 0 0 1 -0.57,-0.72zm2.63,0.58a5.89,5.89 0 0 1 1.42,-0.58a0.87,0.87 0 0 1 -1.42,0.58zm2,-0.71a7.67,7.67 0 0 1 1.73,-0.1a0.57,0.57 0 0 1 0,0.13a0.87,0.87 0 1 1 -1.74,0l0,0l0.01,-0.03zm2.32,0a8,8 0 0 1 1.68,0.39a0.87,0.87 0 0 1 -1.69,-0.31s0,0 0,-0.08l0.01,0zm-31.56,-0.87a0.88,0.88 0 1 1 -0.87,0.87a0.87,0.87 0 0 1 0.87,-0.87zm2.31,0a0.88,0.88 0 1 1 -0.87,0.87a0.87,0.87 0 0 1 0.87,-0.87zm2.32,0a0.88,0.88 0 1 1 -0.87,0.87a0.87,0.87 0 0 1 0.87,-0.87zm2.32,0a0.88,0.88 0 1 1 -0.87,0.87a0.87,0.87 0 0 1 0.87,-0.87zm2.31,0a0.88,0.88 0 1 1 -0.87,0.87a0.87,0.87 0 0 1 0.87,-0.87zm2.32,0a0.88,0.88 0 1 1 -0.87,0.87a0.87,0.87 0 0 1 0.87,-0.87zm2.32,0a0.88,0.88 0 1 1 -0.88,0.87a0.87,0.87 0 0 1 0.88,-0.87zm2.31,0a0.88,0.88 0 1 1 -0.87,0.87a0.87,0.87 0 0 1 0.87,-0.87zm2.32,0a0.88,0.88 0 1 1 -0.87,0.87a0.87,0.87 0 0 1 0.87,-0.87zm2.31,0a0.88,0.88 0 1 1 -0.87,0.87a0.87,0.87 0 0 1 0.87,-0.87zm2.32,0a0.88,0.88 0 1 1 -0.87,0.87a0.87,0.87 0 0 1 0.87,-0.87zm-39,15a7,7 0 0 1 -0.74,-1.57a0.75,0.75 0 0 1 0.33,-0.07a0.87,0.87 0 0 1 0.41,1.64zm79.19,-1a6.31,6.31 0 0 1 -0.21,0.83a0.85,0.85 0 0 1 -0.63,0.27a0.87,0.87 0 1 1 0.84,-1.1zm0.67,0.56a10.31,10.31 0 0 1 1.62,-0.64a1,1 0 0 1 0.06,0.31a0.87,0.87 0 0 1 -0.88,0.87a0.86,0.86 0 0 1 -0.8,-0.54zm2.44,-0.87c0.36,-0.09 0.72,-0.16 1.09,-0.23a0.87,0.87 0 1 1 -1.09,0.23zm7,0a3.26,3.26 0 0 1 1.48,0.86a0.87,0.87 0 0 1 -1.69,-0.3a0.86,0.86 0 0 1 0.21,-0.56zm-87.36,-0.31a0.87,0.87 0 1 1 -0.87,0.87a0.87,0.87 0 0 1 0.87,-0.87zm2.32,0a0.87,0.87 0 1 1 -0.88,0.87a0.87,0.87 0 0 1 0.88,-0.87zm2.31,0a0.87,0.87 0 1 1 -0.87,0.87a0.87,0.87 0 0 1 0.87,-0.87zm2.32,0a0.87,0.87 0 1 1 -0.87,0.87a0.87,0.87 0 0 1 0.87,-0.87zm2.31,0a0.87,0.87 0 1 1 -0.87,0.87a0.87,0.87 0 0 1 0.87,-0.87zm2.32,0a0.87,0.87 0 1 1 -0.87,0.87a0.87,0.87 0 0 1 0.87,-0.87zm2.32,0a0.87,0.87 0 1 1 -0.87,0.87a0.87,0.87 0 0 1 0.87,-0.87zm2.31,0a0.87,0.87 0 1 1 -0.87,0.87a0.87,0.87 0 0 1 0.87,-0.87zm2.32,0a0.87,0.87 0 1 1 -0.87,0.87a0.87,0.87 0 0 1 0.87,-0.87zm2.32,0a0.87,0.87 0 1 1 -0.87,0.87a0.87,0.87 0 0 1 0.87,-0.87zm2.31,0a0.87,0.87 0 1 1 -0.87,0.87a0.87,0.87 0 0 1 0.87,-0.87zm2.32,0a0.87,0.87 0 1 1 -0.87,0.87a0.87,0.87 0 0 1 0.87,-0.87zm2.32,0a0.87,0.87 0 1 1 -0.88,0.87a0.87,0.87 0 0 1 0.88,-0.87zm2.31,0a0.87,0.87 0 1 1 -0.87,0.87a0.87,0.87 0 0 1 0.87,-0.87zm2.32,0a0.87,0.87 0 1 1 -0.87,0.87a0.87,0.87 0 0 1 0.87,-0.87zm2.31,0a0.87,0.87 0 1 1 -0.87,0.87a0.87,0.87 0 0 1 0.87,-0.87zm2.32,0a0.87,0.87 0 1 1 -0.87,0.87a0.87,0.87 0 0 1 0.87,-0.87zm2.32,0a0.87,0.87 0 1 1 -0.87,0.87a0.87,0.87 0 0 1 0.87,-0.87zm2.31,0a0.87,0.87 0 1 1 -0.87,0.87a0.87,0.87 0 0 1 0.87,-0.87zm2.32,0a0.87,0.87 0 1 1 -0.87,0.87a0.87,0.87 0 0 1 0.87,-0.87zm2.32,0a0.87,0.87 0 1 1 -0.88,0.87a0.87,0.87 0 0 1 0.88,-0.87zm2.31,0a0.87,0.87 0 1 1 -0.87,0.87a0.87,0.87 0 0 1 0.87,-0.87zm2.32,0a0.87,0.87 0 1 1 -0.87,0.87a0.87,0.87 0 0 1 0.87,-0.87zm2.32,0a0.87,0.87 0 1 1 -0.88,0.87a0.87,0.87 0 0 1 0.88,-0.87zm2.31,0a0.87,0.87 0 1 1 -0.87,0.87a0.87,0.87 0 0 1 0.87,-0.87zm2.32,0a0.87,0.87 0 1 1 -0.87,0.87a0.87,0.87 0 0 1 0.87,-0.87zm2.31,0a0.87,0.87 0 1 1 -0.87,0.87a0.86,0.86 0 0 1 0.87,-0.87zm2.32,0a0.87,0.87 0 1 1 -0.87,0.87a0.87,0.87 0 0 1 0.87,-0.87zm2.32,0a0.87,0.87 0 1 1 -0.87,0.87a0.87,0.87 0 0 1 0.87,-0.87zm2.31,0a0.87,0.87 0 1 1 -0.87,0.87a0.87,0.87 0 0 1 0.87,-0.87zm2.32,0a0.87,0.87 0 1 1 -0.87,0.87a0.87,0.87 0 0 1 0.87,-0.87zm2.32,0a0.87,0.87 0 1 1 -0.88,0.87a0.87,0.87 0 0 1 0.88,-0.87zm2.31,0a0.87,0.87 0 1 1 -0.87,0.87a0.87,0.87 0 0 1 0.87,-0.87zm9.27,0a0.87,0.87 0 1 1 -0.87,0.87a0.87,0.87 0 0 1 0.87,-0.87zm2.31,0a0.87,0.87 0 1 1 -0.87,0.87a0.87,0.87 0 0 1 0.87,-0.87zm-47.77,3.11a8,8 0 0 1 -1.24,0.77a0.88,0.88 0 0 1 -0.5,-0.79a0.87,0.87 0 1 1 1.74,0l0,0l0,0.02zm-37.74,0.83a9.79,9.79 0 0 1 -1.06,-1a0.87,0.87 0 1 1 1.06,1zm56.17,-0.44a4.6,4.6 0 0 1 -0.19,-0.56a2.08,2.08 0 0 1 -0.48,1l-0.1,0a0.87,0.87 0 1 1 0.87,-0.87a0.8,0.8 0 0 1 -0.1,0.41l0,0.02zm-16.2,0a7.67,7.67 0 0 1 -1.05,-1.21a0.77,0.77 0 0 1 0.27,0a0.87,0.87 0 0 1 0.87,0.87a0.79,0.79 0 0 1 -0.09,0.38l0,-0.04zm-37.84,-1.25a0.87,0.87 0 1 1 -0.88,0.87a0.87,0.87 0 0 1 0.88,-0.87zm2.31,0a0.87,0.87 0 1 1 -0.87,0.87a0.87,0.87 0 0 1 0.87,-0.87zm2.32,0a0.87,0.87 0 1 1 -0.87,0.87a0.87,0.87 0 0 1 0.87,-0.87zm2.31,0a0.87,0.87 0 1 1 -0.87,0.87a0.87,0.87 0 0 1 0.87,-0.87zm2.32,0a0.87,0.87 0 1 1 -0.87,0.87a0.87,0.87 0 0 1 0.87,-0.87zm2.32,0a0.87,0.87 0 1 1 -0.87,0.87a0.87,0.87 0 0 1 0.87,-0.87zm2.31,0a0.87,0.87 0 1 1 -0.87,0.87a0.87,0.87 0 0 1 0.87,-0.87zm2.32,0a0.87,0.87 0 1 1 -0.87,0.87a0.87,0.87 0 0 1 0.87,-0.87zm2.32,0a0.87,0.87 0 1 1 -0.87,0.87a0.87,0.87 0 0 1 0.87,-0.87zm2.31,0a0.87,0.87 0 1 1 -0.87,0.87a0.87,0.87 0 0 1 0.87,-0.87zm2.32,0a0.87,0.87 0 1 1 -0.87,0.87a0.87,0.87 0 0 1 0.87,-0.87zm2.32,0a0.87,0.87 0 1 1 -0.88,0.87a0.87,0.87 0 0 1 0.88,-0.87zm2.31,0a0.87,0.87 0 1 1 -0.87,0.87a0.87,0.87 0 0 1 0.87,-0.87zm2.32,0a0.87,0.87 0 1 1 -0.87,0.87a0.87,0.87 0 0 1 0.87,-0.87zm2.31,0a0.87,0.87 0 1 1 -0.87,0.87a0.87,0.87 0 0 1 0.87,-0.87zm7,0a0.87,0.87 0 1 1 -0.87,0.87a0.87,0.87 0 0 1 0.87,-0.87zm2.32,0a0.87,0.87 0 1 1 -0.87,0.87a0.87,0.87 0 0 1 0.87,-0.87zm2.32,0a0.87,0.87 0 1 1 -0.88,0.87a0.87,0.87 0 0 1 0.88,-0.87zm2.31,0a0.87,0.87 0 1 1 -0.87,0.87a0.87,0.87 0 0 1 0.87,-0.87zm2.32,0a0.87,0.87 0 1 1 -0.87,0.87a0.87,0.87 0 0 1 0.87,-0.87zm2.32,0a0.87,0.87 0 1 1 -0.88,0.87a0.87,0.87 0 0 1 0.88,-0.87zm4.63,0a0.87,0.87 0 1 1 -0.87,0.87a0.87,0.87 0 0 1 0.87,-0.87zm2.31,0a0.87,0.87 0 1 1 -0.87,0.87a0.86,0.86 0 0 1 0.87,-0.87zm2.32,0a0.87,0.87 0 1 1 -0.87,0.87a0.87,0.87 0 0 1 0.87,-0.87zm2.32,0a0.87,0.87 0 1 1 -0.87,0.87a0.87,0.87 0 0 1 0.87,-0.87zm2.31,0a0.87,0.87 0 1 1 -0.87,0.87a0.87,0.87 0 0 1 0.87,-0.87zm2.32,0a0.87,0.87 0 1 1 -0.87,0.87a0.87,0.87 0 0 1 0.87,-0.87zm2.32,0a0.87,0.87 0 1 1 -0.88,0.87a0.87,0.87 0 0 1 0.88,-0.87zm2.31,0a0.87,0.87 0 1 1 -0.87,0.87a0.87,0.87 0 0 1 0.87,-0.87zm2.32,0a0.87,0.87 0 1 1 -0.87,0.87a0.87,0.87 0 0 1 0.87,-0.87zm2.31,0a0.87,0.87 0 1 1 -0.87,0.87a0.87,0.87 0 0 1 0.87,-0.87zm2.32,0a0.87,0.87 0 1 1 -0.87,0.87a0.87,0.87 0 0 1 0.87,-0.87zm2.32,0a0.87,0.87 0 1 1 -0.87,0.87a0.87,0.87 0 0 1 0.87,-0.87zm2.31,0a0.87,0.87 0 1 1 -0.87,0.87a0.87,0.87 0 0 1 0.87,-0.87zm2.32,0a0.87,0.87 0 1 1 -0.87,0.87a0.87,0.87 0 0 1 0.87,-0.87zm-48.55,-13.3l0.31,0.42l0.19,-0.2a0.88,0.88 0 0 1 0.28,0.64a0.87,0.87 0 1 1 -0.87,-0.87l0.09,0.01zm10.62,0.83a5.35,5.35 0 0 1 0.63,0.87a0.87,0.87 0 0 1 -0.63,-0.84l0,0l0,-0.03zm-38.51,-0.84a0.87,0.87 0 1 1 -0.87,0.87a0.87,0.87 0 0 1 0.87,-0.87zm2.32,0a0.87,0.87 0 1 1 -0.87,0.87a0.87,0.87 0 0 1 0.87,-0.87zm2.31,0a0.87,0.87 0 1 1 -0.87,0.87a0.87,0.87 0 0 1 0.87,-0.87zm2.32,0a0.87,0.87 0 1 1 -0.87,0.87a0.87,0.87 0 0 1 0.87,-0.87zm2.32,0a0.87,0.87 0 1 1 -0.87,0.87a0.87,0.87 0 0 1 0.87,-0.87zm2.31,0a0.87,0.87 0 1 1 -0.87,0.87a0.87,0.87 0 0 1 0.87,-0.87zm2.32,0a0.87,0.87 0 1 1 -0.87,0.87a0.87,0.87 0 0 1 0.87,-0.87zm2.32,0a0.87,0.87 0 1 1 -0.88,0.87a0.87,0.87 0 0 1 0.88,-0.87zm2.31,0a0.87,0.87 0 1 1 -0.87,0.87a0.87,0.87 0 0 1 0.87,-0.87zm2.32,0a0.87,0.87 0 1 1 -0.87,0.87a0.87,0.87 0 0 1 0.87,-0.87zm2.31,0a0.87,0.87 0 1 1 -0.87,0.87a0.87,0.87 0 0 1 0.87,-0.87zm2.32,0a0.87,0.87 0 1 1 -0.87,0.87a0.87,0.87 0 0 1 0.87,-0.87zm4.63,0a0.87,0.87 0 1 1 -0.87,0.87a0.87,0.87 0 0 1 0.87,-0.87zm2.32,0a0.87,0.87 0 1 1 -0.87,0.87a0.87,0.87 0 0 1 0.87,-0.87zm2.32,0a0.87,0.87 0 1 1 -0.88,0.87a0.87,0.87 0 0 1 0.88,-0.87zm2.31,0a0.87,0.87 0 1 1 -0.87,0.87a0.87,0.87 0 0 1 0.87,-0.87zm-13.5,15.57q-0.6,0.24 -1.26,0.45a0.85,0.85 0 0 1 0.81,-0.57a0.84,0.84 0 0 1 0.45,0.12zm-1.9,0.64q-0.81,0.22 -1.68,0.42a1.06,1.06 0 0 1 0,-0.31a0.87,0.87 0 0 1 1.73,-0.11l-0.05,0zm-2.44,0.58c-0.42,0.08 -0.84,0.15 -1.27,0.21a0.84,0.84 0 0 1 -0.34,-0.68a0.87,0.87 0 1 1 1.74,0a1,1 0 0 1 -0.13,0.47zm-9.8,0.38l-0.63,-0.09a0.87,0.87 0 1 1 0.63,0.09zm-1.84,-0.31c-0.53,-0.11 -1,-0.23 -1.54,-0.38a0.86,0.86 0 0 1 0,-0.16a0.87,0.87 0 1 1 1.55,0.54l-0.01,0zm-2.15,-0.57a14.84,14.84 0 0 1 -1.49,-0.58a0.88,0.88 0 0 1 0.62,-0.26a0.86,0.86 0 0 1 0.87,0.84zm-2.59,-0.61q-0.74,0.32 -1.44,0.57a0.88,0.88 0 0 1 0.87,-0.78a0.89,0.89 0 0 1 0.57,0.21zm-2,0.76c-0.53,0.17 -1,0.32 -1.56,0.43a0.89,0.89 0 0 1 -0.18,-0.53a0.87,0.87 0 1 1 1.74,0l0,0.1zm-2.77,0.66l-0.62,0.09a0.88,0.88 0 0 1 -0.67,-0.85a0.88,0.88 0 1 1 1.29,0.76zm-4.6,0a11.25,11.25 0 0 1 -1.18,-0.27a0.84,0.84 0 0 1 -0.14,-0.47a0.87,0.87 0 1 1 1.32,0.74zm-1.93,-0.5a10.7,10.7 0 0 1 -1.57,-0.71a0.88,0.88 0 0 1 1.61,0.47a0.67,0.67 0 0 1 0,0.24l-0.04,0zm84.71,-1.1c-0.16,0.11 -0.34,0.22 -0.52,0.32a0.86,0.86 0 0 1 0.52,-0.32zm-1.31,0.67a10,10 0 0 1 -1.68,0.45a1.17,1.17 0 0 1 0,-0.26a0.87,0.87 0 0 1 0.87,-0.87a0.86,0.86 0 0 1 0.85,0.68l-0.04,0zm-2.37,0.55c-0.5,0.06 -1,0.1 -1.52,0.11a0.84,0.84 0 0 1 -0.14,-0.47a0.87,0.87 0 1 1 1.66,0.36zm-2.38,0.11c-0.51,0 -1,0 -1.52,-0.11a0.87,0.87 0 1 1 1.66,-0.36a0.84,0.84 0 0 1 -0.14,0.47zm-2.22,-0.2a13.94,13.94 0 0 1 -1.69,-0.39a0.87,0.87 0 0 1 1.74,0.12a0.86,0.86 0 0 1 -0.05,0.27zm-2.34,-0.61a6.4,6.4 0 0 1 -1,-0.5a1,1 0 0 1 0.25,0a0.87,0.87 0 0 1 0.8,0.53l-0.05,-0.03zm-2.29,0.06a10.67,10.67 0 0 1 -1.63,0.61a0.75,0.75 0 0 1 -0.07,-0.33a0.87,0.87 0 0 1 1.7,-0.28zm-2.45,0.8c-0.4,0.08 -0.8,0.15 -1.2,0.19a0.89,0.89 0 0 1 -0.37,-0.71a0.88,0.88 0 0 1 1.75,0a0.84,0.84 0 0 1 -0.18,0.52zm-2.64,0.27c-0.26,0 -0.52,0 -0.77,0a0.85,0.85 0 0 1 -0.47,-0.77a0.87,0.87 0 0 1 1.74,0a0.88,0.88 0 0 1 -0.5,0.79l0,-0.02zm-2.11,-0.14a9.52,9.52 0 0 1 -1.35,-0.26a0.87,0.87 0 1 1 1.35,0.26zm-2,-0.47c-0.67,-0.24 -1.11,-0.52 -1.2,-0.79a3.3,3.3 0 0 1 -0.52,0.6a0.87,0.87 0 0 1 1.74,0a1.1,1.1 0 0 1 0,0.18l-0.02,0.01zm-2.47,0.33a4.7,4.7 0 0 1 -0.83,0.35a0.87,0.87 0 1 1 1,-0.86a0.82,0.82 0 0 1 -0.17,0.51zm-4.67,0.06a4.4,4.4 0 0 1 -1.39,-1.05a0.86,0.86 0 0 1 0.73,-0.39a0.87,0.87 0 0 1 0.66,1.44zm-4.44,-0.75a10.26,10.26 0 0 1 -1.6,0.63a0.86,0.86 0 0 1 0.75,-1.32a0.86,0.86 0 0 1 0.85,0.69zm-2.69,0.9l-0.68,0.13a0.88,0.88 0 0 1 -0.67,-0.85a0.87,0.87 0 0 1 1.74,0a0.84,0.84 0 0 1 -0.39,0.72zm-6.77,-0.15a11.93,11.93 0 0 1 -1.53,-0.51l0,-0.06a0.87,0.87 0 1 1 1.53,0.57zm-2.13,-0.78a10.1,10.1 0 0 1 -1.11,-0.62a0.78,0.78 0 0 1 0.26,0a0.87,0.87 0 0 1 0.85,0.66l0,-0.04zm-35.59,-0.66a0.87,0.87 0 1 1 -0.87,0.87a0.87,0.87 0 0 1 0.87,-0.87zm16.21,0a0.87,0.87 0 1 1 -0.87,0.87a0.87,0.87 0 0 1 0.87,-0.87zm2.32,0a0.87,0.87 0 1 1 -0.87,0.87a0.87,0.87 0 0 1 0.87,-0.87zm2.32,0a0.87,0.87 0 1 1 -0.88,0.87a0.87,0.87 0 0 1 0.88,-0.87zm18.53,0a0.87,0.87 0 1 1 -0.88,0.87a0.87,0.87 0 0 1 0.88,-0.87zm2.31,0a0.87,0.87 0 1 1 -0.87,0.87a0.87,0.87 0 0 1 0.87,-0.87zm11.58,0a0.87,0.87 0 1 1 -0.87,0.87a0.86,0.86 0 0 1 0.87,-0.87zm-41.82,-22.7c0.24,-0.11 0.48,-0.21 0.73,-0.3a0.89,0.89 0 0 1 -0.66,0.3l-0.07,0zm1.56,-0.59a16,16 0 0 1 1.68,-0.45a0.88,0.88 0 0 1 0,0.17a0.87,0.87 0 0 1 -1.7,0.28l0.02,0zm2.32,-0.57a13.29,13.29 0 0 1 1.56,-0.18a1,1 0 0 1 0.13,0.47a0.87,0.87 0 0 1 -1.74,0a0.93,0.93 0 0 1 0,-0.29l0.05,0zm2.43,-0.21c0.48,0 1,0 1.46,0.06a0.83,0.83 0 0 1 0.12,0.44a0.87,0.87 0 0 1 -1.74,0a0.85,0.85 0 0 1 0.16,-0.5zm2.23,0.15a17,17 0 0 1 1.67,0.33l0,0a0.88,0.88 0 0 1 -1.75,0a0.85,0.85 0 0 1 0.08,-0.35l0,0.02zm2.25,0.5c0.48,0.15 1,0.31 1.43,0.51a0.88,0.88 0 0 1 -1.43,-0.51zm-16.19,4.5c0.35,-0.36 0.72,-0.71 1.1,-1.05a0.87,0.87 0 1 1 -1.1,1.05zm23.16,-0.38q0.51,0.48 1,1l-0.17,0a0.87,0.87 0 0 1 -0.87,-0.87a0.47,0.47 0 0 1 0,-0.17l0.04,0.04zm-20,-0.7a0.87,0.87 0 1 1 -0.87,0.87a0.87,0.87 0 0 1 0.87,-0.87zm2.32,0a0.87,0.87 0 1 1 -0.87,0.87a0.87,0.87 0 0 1 0.87,-0.87zm2.32,0a0.87,0.87 0 1 1 -0.87,0.87a0.87,0.87 0 0 1 0.87,-0.87zm2.31,0a0.87,0.87 0 1 1 -0.87,0.87a0.87,0.87 0 0 1 0.87,-0.87zm2.32,0a0.87,0.87 0 1 1 -0.87,0.87a0.87,0.87 0 0 1 0.87,-0.87zm2.32,0a0.87,0.87 0 1 1 -0.88,0.87a0.87,0.87 0 0 1 0.88,-0.87zm2.31,0a0.87,0.87 0 1 1 -0.87,0.87a0.87,0.87 0 0 1 0.87,-0.87zm2.32,0a0.87,0.87 0 1 1 -0.87,0.87a0.87,0.87 0 0 1 0.87,-0.87zm2.31,0a0.87,0.87 0 1 1 -0.87,0.87a0.87,0.87 0 0 1 0.87,-0.87zm-37.49,12.72a3.51,3.51 0 0 1 0.94,-1.47a0.9,0.9 0 0 1 0.35,0.71a0.87,0.87 0 0 1 -1.29,0.76zm12.14,-1.62l0.12,0.09s0,0 0,-0.07a0.88,0.88 0 0 1 0.63,0.84a0.88,0.88 0 1 1 -0.88,-0.88l0.14,0l-0.01,0.02zm46.88,0.33a5.77,5.77 0 0 1 0.16,0.72a0.88,0.88 0 1 1 -0.16,-0.72zm0.86,0.93a5.09,5.09 0 0 1 1.38,-1a0.84,0.84 0 0 1 0.26,0.62a0.87,0.87 0 0 1 -0.87,0.87a0.85,0.85 0 0 1 -0.77,-0.47l0,-0.02zm7,-0.89a2.8,2.8 0 0 1 1,1.33a0.91,0.91 0 0 1 -0.23,0a0.87,0.87 0 0 1 -0.87,-0.87a0.91,0.91 0 0 1 0.14,-0.49l-0.04,0.03zm2.31,1a13.81,13.81 0 0 1 1.47,-0.94a0.89,0.89 0 0 1 0.13,0.47a0.87,0.87 0 0 1 -0.87,0.87a0.88,0.88 0 0 1 -0.73,-0.4zm9.18,-0.78a5.21,5.21 0 0 1 1,1.16l-0.17,0a0.87,0.87 0 0 1 -0.87,-0.87a1.06,1.06 0 0 1 0,-0.31l0.04,0.02zm-75.62,-0.57a0.88,0.88 0 1 1 -0.87,0.88a0.87,0.87 0 0 1 0.87,-0.88zm2.32,0a0.88,0.88 0 1 1 -0.88,0.88a0.87,0.87 0 0 1 0.88,-0.88zm2.31,0a0.88,0.88 0 1 1 -0.87,0.88a0.87,0.87 0 0 1 0.87,-0.88zm2.32,0a0.88,0.88 0 1 1 -0.87,0.88a0.87,0.87 0 0 1 0.87,-0.88zm4.63,0a0.88,0.88 0 1 1 -0.87,0.88a0.87,0.87 0 0 1 0.87,-0.88zm2.32,0a0.88,0.88 0 1 1 -0.87,0.88a0.87,0.87 0 0 1 0.87,-0.88zm2.31,0a0.88,0.88 0 1 1 -0.87,0.88a0.87,0.87 0 0 1 0.87,-0.88zm2.32,0a0.88,0.88 0 1 1 -0.87,0.88a0.87,0.87 0 0 1 0.87,-0.88zm2.32,0a0.88,0.88 0 1 1 -0.87,0.88a0.87,0.87 0 0 1 0.87,-0.88zm2.31,0a0.88,0.88 0 1 1 -0.87,0.88a0.87,0.87 0 0 1 0.87,-0.88zm2.32,0a0.88,0.88 0 1 1 -0.87,0.88a0.87,0.87 0 0 1 0.87,-0.88zm2.32,0a0.88,0.88 0 1 1 -0.88,0.88a0.87,0.87 0 0 1 0.88,-0.88zm2.31,0a0.88,0.88 0 1 1 -0.87,0.88a0.87,0.87 0 0 1 0.87,-0.88zm2.32,0a0.88,0.88 0 1 1 -0.87,0.88a0.87,0.87 0 0 1 0.87,-0.88zm2.31,0a0.88,0.88 0 1 1 -0.87,0.88a0.87,0.87 0 0 1 0.87,-0.88zm2.32,0a0.88,0.88 0 1 1 -0.87,0.88a0.87,0.87 0 0 1 0.87,-0.88zm2.32,0a0.88,0.88 0 1 1 -0.87,0.88a0.87,0.87 0 0 1 0.87,-0.88zm2.31,0a0.88,0.88 0 1 1 -0.87,0.88a0.87,0.87 0 0 1 0.87,-0.88zm2.32,0a0.88,0.88 0 1 1 -0.87,0.88a0.87,0.87 0 0 1 0.87,-0.88zm2.32,0a0.88,0.88 0 1 1 -0.88,0.88a0.87,0.87 0 0 1 0.88,-0.88zm2.31,0a0.88,0.88 0 1 1 -0.87,0.88a0.87,0.87 0 0 1 0.87,-0.88zm2.32,0a0.88,0.88 0 1 1 -0.87,0.88a0.87,0.87 0 0 1 0.87,-0.88zm2.32,0a0.88,0.88 0 1 1 -0.88,0.88a0.87,0.87 0 0 1 0.88,-0.88zm6.94,0a0.88,0.88 0 1 1 -0.87,0.88a0.87,0.87 0 0 1 0.87,-0.88zm2.32,0a0.88,0.88 0 1 1 -0.87,0.88a0.87,0.87 0 0 1 0.87,-0.88zm6.95,0a0.88,0.88 0 1 1 -0.87,0.88a0.87,0.87 0 0 1 0.87,-0.88zm2.32,0a0.88,0.88 0 1 1 -0.88,0.88a0.87,0.87 0 0 1 0.88,-0.88zm2.31,0a0.88,0.88 0 1 1 -0.87,0.88a0.87,0.87 0 0 1 0.87,-0.88zm-8.91,2.3l0,0.05l0,0a0.86,0.86 0 0 1 0.48,0.77a0.87,0.87 0 1 1 -0.87,-0.87a0.85,0.85 0 0 1 0.35,0.08l0.04,-0.03zm11.74,0.09a4.93,4.93 0 0 1 0.31,1a0.89,0.89 0 0 1 -0.82,0.57a0.88,0.88 0 0 1 0,-1.75a0.89,0.89 0 0 1 0.51,0.17l0,0.01zm-76.95,-0.17a0.88,0.88 0 1 1 -0.87,0.87a0.87,0.87 0 0 1 0.87,-0.87zm2.32,0a0.88,0.88 0 1 1 -0.88,0.87a0.87,0.87 0 0 1 0.88,-0.87zm2.31,0a0.88,0.88 0 1 1 -0.87,0.87a0.87,0.87 0 0 1 0.87,-0.87zm2.32,0a0.88,0.88 0 1 1 -0.9,0.85a0.87,0.87 0 0 1 0.87,-0.87l0.03,0.02zm2.31,0a0.88,0.88 0 1 1 -0.87,0.87a0.87,0.87 0 0 1 0.87,-0.87zm2.32,0a0.88,0.88 0 1 1 -0.87,0.87a0.87,0.87 0 0 1 0.87,-0.87zm2.32,0a0.88,0.88 0 1 1 -0.85,0.85a0.87,0.87 0 0 1 0.87,-0.87l-0.02,0.02zm2.31,0a0.88,0.88 0 1 1 -0.87,0.87a0.87,0.87 0 0 1 0.87,-0.87zm2.32,0a0.88,0.88 0 1 1 -0.87,0.87a0.87,0.87 0 0 1 0.87,-0.87zm2.32,0a0.88,0.88 0 1 1 -0.87,0.87a0.87,0.87 0 0 1 0.87,-0.87zm2.31,0a0.88,0.88 0 1 1 -0.87,0.87a0.87,0.87 0 0 1 0.87,-0.87zm2.32,0a0.88,0.88 0 1 1 -0.87,0.87a0.87,0.87 0 0 1 0.87,-0.87zm2.32,0a0.88,0.88 0 1 1 -0.88,0.87a0.87,0.87 0 0 1 0.88,-0.87zm2.31,0a0.88,0.88 0 1 1 -0.87,0.87a0.87,0.87 0 0 1 0.87,-0.87zm2.32,0a0.88,0.88 0 1 1 -0.87,0.87a0.87,0.87 0 0 1 0.87,-0.87zm2.31,0a0.88,0.88 0 1 1 -0.87,0.87a0.87,0.87 0 0 1 0.87,-0.87zm2.32,0a0.88,0.88 0 1 1 -0.87,0.87a0.87,0.87 0 0 1 0.87,-0.87zm2.32,0a0.88,0.88 0 1 1 -0.87,0.87a0.87,0.87 0 0 1 0.87,-0.87zm2.31,0a0.88,0.88 0 1 1 -0.87,0.87a0.87,0.87 0 0 1 0.87,-0.87zm2.32,0a0.88,0.88 0 1 1 -0.87,0.87a0.87,0.87 0 0 1 0.87,-0.87zm2.32,0a0.88,0.88 0 1 1 -0.88,0.87a0.87,0.87 0 0 1 0.88,-0.87zm2.31,0a0.88,0.88 0 1 1 -0.87,0.87a0.87,0.87 0 0 1 0.87,-0.87zm2.32,0a0.88,0.88 0 1 1 -0.91,0.85a0.87,0.87 0 0 1 0.87,-0.87l0.04,0.02zm2.32,0a0.88,0.88 0 1 1 -0.88,0.87a0.87,0.87 0 0 1 0.88,-0.87zm2.31,0a0.88,0.88 0 1 1 -0.87,0.87a0.87,0.87 0 0 1 0.87,-0.87zm2.32,0a0.88,0.88 0 1 1 -0.86,0.85a0.87,0.87 0 0 1 0.87,-0.87l-0.01,0.02zm2.31,0a0.88,0.88 0 1 1 -0.87,0.87a0.86,0.86 0 0 1 0.87,-0.87zm2.32,0a0.88,0.88 0 1 1 -0.87,0.87a0.87,0.87 0 0 1 0.87,-0.87zm4.63,0a0.88,0.88 0 1 1 -0.87,0.87a0.87,0.87 0 0 1 0.87,-0.87zm2.32,0a0.88,0.88 0 1 1 -0.87,0.87a0.87,0.87 0 0 1 0.87,-0.87zm2.32,0a0.88,0.88 0 1 1 -0.88,0.87a0.87,0.87 0 0 1 0.88,-0.87zm2.31,0a0.88,0.88 0 1 1 -0.87,0.87a0.87,0.87 0 0 1 0.86,-0.91l0.01,0.04z"/>
   <path id="svg_4" fill-rule="evenodd" fill="#fff" d="m584.99,69.58c-1.3,4.22 -13.67,5 -15.38,1.92c-1.65,1.94 -9.59,3.17 -12.74,-0.67c-4.62,3.68 -17.39,3.59 -21.6,-2.66c-0.08,3.28 -3.85,5.28 -7.41,5.17c-4.88,-0.16 -10.18,-2.69 -11,-7.75c-0.91,-5.72 6.32,-8.51 15.84,-1.46c-2.48,-5.17 -2.43,-9.48 -1.46,-12.78c4,-13.58 31,-11.33 28.85,6.13c5.76,-6 18.33,1.88 11.44,11.06c7.04,-4.76 14.58,-2.54 13.46,1.04z"/>
   <path id="svg_5" fill-rule="evenodd" fill="#fff" d="m294.3,45.79a14.2,14.2 0 0 1 1.46,-0.56a0.87,0.87 0 0 1 -0.87,0.79a0.89,0.89 0 0 1 -0.59,-0.23zm-34.9,15.33a10.2,10.2 0 0 1 1.56,-0.74a0.73,0.73 0 0 1 0.06,0.3a0.87,0.87 0 0 1 -0.87,0.87a0.86,0.86 0 0 1 -0.75,-0.43zm2.41,-1c0.32,-0.09 0.65,-0.17 1,-0.23a0.87,0.87 0 1 1 -1.2,0.81a0.85,0.85 0 0 1 0.22,-0.58l-0.02,0zm5,-0.26l0.83,0.18a0.87,0.87 0 1 1 -0.83,-0.18zm1.78,0.46a11.77,11.77 0 0 1 1.6,0.7a0.87,0.87 0 0 1 -1.68,-0.32a1,1 0 0 1 0.08,-0.38zm3.18,1.23a8.79,8.79 0 0 1 -0.12,-1.74l0.12,0a0.86,0.86 0 0 1 0.87,0.87a0.88,0.88 0 0 1 -0.81,0.87l-0.06,0zm40,-1.44c-0.1,0.22 -0.2,0.45 -0.32,0.67q0.22,-0.24 0.45,-0.45a0.78,0.78 0 0 1 0.08,0.35a0.88,0.88 0 1 1 -0.88,-0.87a0.9,0.9 0 0 1 0.67,0.3zm8.66,-0.3a5.42,5.42 0 0 1 0.8,0.7a1,1 0 0 1 0,0.17a0.87,0.87 0 1 1 -0.87,-0.87l0.07,0zm-55.65,0a0.87,0.87 0 1 1 -0.87,0.87a0.86,0.86 0 0 1 0.87,-0.87zm9.26,0a0.87,0.87 0 1 1 -0.87,0.87a0.86,0.86 0 0 1 0.87,-0.87zm2.32,0a0.87,0.87 0 1 1 -0.87,0.87a0.86,0.86 0 0 1 0.87,-0.87zm2.32,0a0.87,0.87 0 0 1 0,1.74a0.87,0.87 0 1 1 0,-1.74zm2.31,0a0.87,0.87 0 1 1 -0.87,0.87a0.86,0.86 0 0 1 0.87,-0.87zm2.32,0a0.87,0.87 0 1 1 -0.87,0.87a0.86,0.86 0 0 1 0.87,-0.87zm2.32,0a0.87,0.87 0 1 1 -0.88,0.87a0.86,0.86 0 0 1 0.88,-0.87zm2.31,0a0.87,0.87 0 1 1 -0.87,0.87a0.86,0.86 0 0 1 0.87,-0.87zm2.32,0a0.87,0.87 0 1 1 -0.87,0.87a0.86,0.86 0 0 1 0.87,-0.87zm2.31,0a0.87,0.87 0 1 1 -0.87,0.87a0.87,0.87 0 0 1 0.87,-0.87zm2.32,0a0.87,0.87 0 1 1 -0.87,0.87a0.86,0.86 0 0 1 0.87,-0.87zm2.32,0a0.87,0.87 0 1 1 -0.87,0.87a0.86,0.86 0 0 1 0.87,-0.87zm2.31,0a0.87,0.87 0 1 1 -0.87,0.87a0.86,0.86 0 0 1 0.87,-0.87zm2.32,0a0.87,0.87 0 1 1 -0.87,0.87a0.86,0.86 0 0 1 0.87,-0.87zm2.32,0a0.87,0.87 0 1 1 -0.88,0.87a0.86,0.86 0 0 1 0.88,-0.87zm2.31,0a0.87,0.87 0 1 1 -0.87,0.87a0.86,0.86 0 0 1 0.87,-0.87zm2.32,0a0.87,0.87 0 1 1 -0.87,0.87a0.86,0.86 0 0 1 0.87,-0.87zm4.63,0a0.87,0.87 0 1 1 -0.87,0.87a0.86,0.86 0 0 1 0.87,-0.87zm2.32,0a0.87,0.87 0 1 1 -0.87,0.87a0.86,0.86 0 0 1 0.87,-0.87zm2.31,0a0.87,0.87 0 1 1 0,1.74a0.87,0.87 0 1 1 0,-1.74zm-46.56,8.9l-0.34,0.18a1,1 0 0 1 0.34,-0.18zm-1.24,0.6a16.12,16.12 0 0 1 -1.66,0.53a0.93,0.93 0 0 1 -0.05,-0.29a0.87,0.87 0 0 1 1.71,-0.24zm-2.41,0.69c-0.44,0.09 -0.88,0.15 -1.32,0.2a0.87,0.87 0 1 1 1.32,-0.2zm-2.59,0.28c-0.32,0 -0.63,0 -0.94,0a0.86,0.86 0 0 1 -0.4,-0.73a0.87,0.87 0 0 1 1.74,0a0.86,0.86 0 0 1 -0.4,0.73zm-2.2,-0.09c-0.46,-0.06 -0.92,-0.13 -1.36,-0.23a0.92,0.92 0 0 1 -0.1,-0.41a0.87,0.87 0 0 1 1.74,0a0.88,0.88 0 0 1 -0.28,0.64zm-2.06,-0.42a8.58,8.58 0 0 1 -1.61,-0.64a0.88,0.88 0 0 1 1.64,0.42a0.78,0.78 0 0 1 0,0.22l-0.03,0zm78.7,-0.58a8.66,8.66 0 0 1 -1.65,0.51a0.76,0.76 0 0 1 0,-0.15a0.87,0.87 0 0 1 1.66,-0.36l-0.01,0zm-2.28,0.63a15.36,15.36 0 0 1 -1.57,0.18a0.87,0.87 0 1 1 1.62,-0.45a0.81,0.81 0 0 1 -0.05,0.27zm-2.42,0.21q-0.74,0 -1.47,0a0.87,0.87 0 1 1 1.62,-0.45a0.88,0.88 0 0 1 -0.15,0.48l0,-0.03zm-2.26,-0.1a14,14 0 0 1 -1.64,-0.27a0.37,0.37 0 0 1 0,-0.11a0.87,0.87 0 0 1 1.74,0a0.79,0.79 0 0 1 -0.09,0.38l-0.01,0zm-2.22,-0.41a8.83,8.83 0 0 1 -1.51,-0.56a0.83,0.83 0 0 1 0.64,-0.28a0.87,0.87 0 0 1 0.87,0.84zm-3,-0.83a4.44,4.44 0 0 1 -1,1.09a0.85,0.85 0 0 1 0,-0.23a0.87,0.87 0 0 1 0.87,-0.87l0.13,0.01zm-4.47,1.66a3.67,3.67 0 0 1 -1.18,-0.61a0.65,0.65 0 0 1 0,-0.19a0.87,0.87 0 1 1 1.2,0.8l-0.02,0zm-2.54,-1.67a6.2,6.2 0 0 1 -0.93,0.56a0.88,0.88 0 0 1 0.82,-0.56l0.11,0zm-1.56,0.86a9.48,9.48 0 0 1 -1.59,0.5a0.91,0.91 0 0 1 -0.15,-0.49a0.87,0.87 0 0 1 1.74,0l0,-0.01zm-2.62,0.67a9.24,9.24 0 0 1 -1,0.06a0.87,0.87 0 1 1 1,-0.06zm-2.27,0a7,7 0 0 1 -1.45,-0.39a0.85,0.85 0 0 1 0,-0.23a0.87,0.87 0 1 1 1.48,0.62l-0.03,0zm-2.06,-0.67a5,5 0 0 1 -1.1,-0.79a0.91,0.91 0 0 1 0.23,0a0.86,0.86 0 0 1 0.87,0.82l0,-0.03zm-9.48,-0.54c-0.5,0.16 -1,0.3 -1.53,0.43a0.87,0.87 0 0 1 1.53,-0.43zm-2.12,0.56c-0.54,0.12 -1.1,0.23 -1.67,0.33a0.88,0.88 0 0 1 -0.07,-0.33a0.87,0.87 0 0 1 1.74,0zm-2.44,0.46l-1.34,0.18a0.87,0.87 0 1 1 1.47,-0.64a0.91,0.91 0 0 1 -0.13,0.46zm-2.67,0.32l-0.65,0a0.87,0.87 0 1 1 0.65,0zm-11.56,0l-1,-0.12a0.86,0.86 0 0 1 -0.29,-0.65a0.87,0.87 0 0 1 1.74,0a0.89,0.89 0 0 1 -0.46,0.77l0.01,0zm-2,-0.27c-0.53,-0.08 -1.05,-0.17 -1.55,-0.28a0.83,0.83 0 0 1 0,-0.22a0.87,0.87 0 1 1 1.74,0a0.85,0.85 0 0 1 -0.16,0.5l-0.03,0zm-2.16,-0.41c-0.58,-0.14 -1.13,-0.29 -1.66,-0.45a0.87,0.87 0 0 1 1.67,0.36a0.28,0.28 0 0 1 0,0.09l-0.01,0zm-2.69,-0.81l-0.35,-0.14a0.83,0.83 0 0 1 0.35,0.14zm8.78,-0.15a0.87,0.87 0 1 1 -0.88,0.87a0.87,0.87 0 0 1 0.88,-0.87zm2.31,0a0.87,0.87 0 1 1 -0.87,0.87a0.87,0.87 0 0 1 0.87,-0.87zm2.32,0a0.87,0.87 0 1 1 -0.87,0.87a0.87,0.87 0 0 1 0.87,-0.87zm2.31,0a0.87,0.87 0 1 1 -0.87,0.87a0.87,0.87 0 0 1 0.87,-0.87zm32.43,0a0.87,0.87 0 1 1 -0.87,0.87a0.87,0.87 0 0 1 0.87,-0.87zm-47.13,-16.51a12.23,12.23 0 0 1 1.65,-0.45a0.13,0.13 0 0 1 0,0.06a0.87,0.87 0 0 1 -0.87,0.88a0.88,0.88 0 0 1 -0.79,-0.49l0.01,0zm2.25,-0.56a11.83,11.83 0 0 1 1.67,-0.12a0.71,0.71 0 0 1 0,0.29a0.87,0.87 0 1 1 -1.74,0a1.11,1.11 0 0 1 0,-0.17l0.07,0zm2.34,-0.1a9.28,9.28 0 0 1 1.7,0.26l0,0a0.87,0.87 0 1 1 -1.74,0a0.84,0.84 0 0 1 0,-0.27l0.04,0.01zm2.29,0.47a6.73,6.73 0 0 1 1.31,0.59a0.87,0.87 0 0 1 -1.31,-0.59zm3.8,0.44c0.07,-0.25 0.15,-0.5 0.23,-0.74a0.61,0.61 0 0 1 0,0.14a0.84,0.84 0 0 1 -0.24,0.6l0.01,0zm24,-0.78q0.13,0.39 0.24,0.81a0.88,0.88 0 0 1 -0.26,-0.63a1.1,1.1 0 0 1 0,-0.18l0.02,0zm-22.31,-0.69a0.88,0.88 0 1 1 -0.87,0.87a0.87,0.87 0 0 1 0.87,-0.87zm2.31,0a0.88,0.88 0 1 1 -0.87,0.87a0.87,0.87 0 0 1 0.87,-0.87zm2.32,0a0.88,0.88 0 1 1 -0.87,0.87a0.87,0.87 0 0 1 0.87,-0.87zm2.32,0a0.88,0.88 0 1 1 -0.87,0.87a0.87,0.87 0 0 1 0.87,-0.87zm2.31,0a0.88,0.88 0 1 1 -0.87,0.87a0.87,0.87 0 0 1 0.87,-0.87zm2.32,0a0.88,0.88 0 1 1 -0.87,0.87a0.87,0.87 0 0 1 0.87,-0.87zm2.32,0a0.88,0.88 0 1 1 -0.88,0.87a0.87,0.87 0 0 1 0.88,-0.87zm2.31,0a0.88,0.88 0 1 1 -0.87,0.87a0.87,0.87 0 0 1 0.87,-0.87zm2.32,0a0.88,0.88 0 1 1 -0.87,0.87a0.87,0.87 0 0 1 0.87,-0.87zm2.31,0a0.88,0.88 0 1 1 -0.87,0.87a0.87,0.87 0 0 1 0.87,-0.87zm-38.73,5.9c0.06,-0.14 0.14,-0.28 0.21,-0.42a0.93,0.93 0 0 1 -0.21,0.42zm40.69,-1.38a11,11 0 0 1 -0.2,1.45a0.85,0.85 0 0 1 -0.31,-0.66a0.86,0.86 0 0 1 0.51,-0.79zm-39,-0.08a0.87,0.87 0 1 1 -0.87,0.87a0.87,0.87 0 0 1 0.87,-0.87zm2.32,0a0.87,0.87 0 1 1 -0.87,0.87a0.87,0.87 0 0 1 0.87,-0.87zm2.32,0a0.87,0.87 0 1 1 -0.88,0.87a0.87,0.87 0 0 1 0.88,-0.87zm2.31,0a0.87,0.87 0 1 1 -0.87,0.87a0.87,0.87 0 0 1 0.87,-0.87zm2.32,0a0.87,0.87 0 1 1 -0.87,0.87a0.87,0.87 0 0 1 0.87,-0.87zm2.32,0a0.87,0.87 0 1 1 -0.88,0.87a0.87,0.87 0 0 1 0.88,-0.87zm2.31,0a0.87,0.87 0 1 1 -0.87,0.87a0.87,0.87 0 0 1 0.87,-0.87zm2.32,0a0.87,0.87 0 1 1 -0.87,0.87a0.87,0.87 0 0 1 0.87,-0.87zm2.31,0a0.87,0.87 0 1 1 -0.87,0.87a0.87,0.87 0 0 1 0.87,-0.87zm2.32,0a0.87,0.87 0 1 1 -0.87,0.87a0.87,0.87 0 0 1 0.87,-0.87zm2.32,0a0.87,0.87 0 1 1 -0.87,0.87a0.87,0.87 0 0 1 0.87,-0.87zm2.31,0a0.87,0.87 0 1 1 -0.87,0.87a0.87,0.87 0 0 1 0.87,-0.87zm2.32,0a0.87,0.87 0 1 1 -0.87,0.87a0.87,0.87 0 0 1 0.87,-0.87zm2.32,0a0.87,0.87 0 1 1 -0.88,0.87a0.87,0.87 0 0 1 0.88,-0.87zm2.31,0a0.87,0.87 0 1 1 -0.87,0.87a0.87,0.87 0 0 1 0.87,-0.87zm2.32,0a0.87,0.87 0 1 1 -0.87,0.87a0.87,0.87 0 0 1 0.87,-0.87zm2.31,0a0.87,0.87 0 1 1 -0.87,0.87a0.87,0.87 0 0 1 0.87,-0.87zm17.65,9.64a7.27,7.27 0 0 1 1.28,-0.7a0.86,0.86 0 0 1 0.46,0.76a0.88,0.88 0 0 1 -1.75,0s0,0 0,-0.06l0.01,0zm10.19,-0.81a7,7 0 0 1 0.72,0.49a0.79,0.79 0 0 1 0.09,0.38a0.87,0.87 0 1 1 -0.87,-0.87l0.06,0zm1.42,1.12a3.18,3.18 0 0 1 0.3,0.33a1.92,1.92 0 0 1 0.18,0.22a0.9,0.9 0 0 1 -0.48,-0.55zm-31,0.35c0,-0.19 0,-0.38 0,-0.58c-0.28,0.28 -0.57,0.54 -0.88,0.8a0.86,0.86 0 0 1 -0.57,-0.82a0.87,0.87 0 1 1 1.5,0.6l-0.05,0zm-51.59,-1.47a0.87,0.87 0 1 1 -0.87,0.87a0.87,0.87 0 0 1 0.87,-0.87zm2.32,0a0.87,0.87 0 1 1 -0.88,0.87a0.87,0.87 0 0 1 0.88,-0.87zm2.31,0a0.87,0.87 0 1 1 -0.87,0.87a0.87,0.87 0 0 1 0.87,-0.87zm2.32,0a0.87,0.87 0 1 1 -0.87,0.87a0.87,0.87 0 0 1 0.87,-0.87zm2.31,0a0.87,0.87 0 1 1 -0.87,0.87a0.87,0.87 0 0 1 0.87,-0.87zm2.32,0a0.87,0.87 0 1 1 -0.87,0.87a0.87,0.87 0 0 1 0.87,-0.87zm2.32,0a0.87,0.87 0 1 1 -0.87,0.87a0.87,0.87 0 0 1 0.87,-0.87zm2.31,0a0.87,0.87 0 1 1 -0.87,0.87a0.87,0.87 0 0 1 0.87,-0.87zm2.32,0a0.87,0.87 0 1 1 -0.87,0.87a0.87,0.87 0 0 1 0.87,-0.87zm2.32,0a0.87,0.87 0 1 1 -0.88,0.87a0.87,0.87 0 0 1 0.88,-0.87zm2.31,0a0.87,0.87 0 1 1 -0.87,0.87a0.87,0.87 0 0 1 0.87,-0.87zm2.32,0a0.87,0.87 0 1 1 -0.87,0.87a0.87,0.87 0 0 1 0.87,-0.87zm2.32,0a0.87,0.87 0 1 1 -0.88,0.87a0.87,0.87 0 0 1 0.88,-0.87zm2.31,0a0.87,0.87 0 1 1 -0.87,0.87a0.87,0.87 0 0 1 0.87,-0.87zm2.32,0a0.87,0.87 0 1 1 -0.87,0.87a0.87,0.87 0 0 1 0.87,-0.87zm2.31,0a0.87,0.87 0 1 1 -0.87,0.87a0.87,0.87 0 0 1 0.87,-0.87zm2.32,0a0.87,0.87 0 1 1 -0.87,0.87a0.87,0.87 0 0 1 0.87,-0.87zm2.32,0a0.87,0.87 0 1 1 -0.87,0.87a0.87,0.87 0 0 1 0.87,-0.87zm2.31,0a0.87,0.87 0 1 1 -0.87,0.87a0.87,0.87 0 0 1 0.87,-0.87zm2.32,0a0.87,0.87 0 1 1 -0.87,0.87a0.87,0.87 0 0 1 0.87,-0.87zm2.32,0a0.87,0.87 0 1 1 -0.88,0.87a0.87,0.87 0 0 1 0.88,-0.87zm2.31,0a0.87,0.87 0 1 1 -0.87,0.87a0.87,0.87 0 0 1 0.87,-0.87zm4.63,0a0.87,0.87 0 1 1 -0.87,0.87a0.87,0.87 0 0 1 0.87,-0.87zm2.32,0a0.87,0.87 0 1 1 -0.87,0.87a0.87,0.87 0 0 1 0.87,-0.87zm2.32,0a0.87,0.87 0 1 1 -0.87,0.87a0.87,0.87 0 0 1 0.87,-0.87zm2.31,0a0.87,0.87 0 1 1 -0.87,0.87a0.86,0.86 0 0 1 0.87,-0.87zm2.32,0a0.87,0.87 0 1 1 -0.87,0.87a0.87,0.87 0 0 1 0.87,-0.87zm2.32,0a0.87,0.87 0 1 1 -0.87,0.87a0.87,0.87 0 0 1 0.87,-0.87zm2.31,0a0.87,0.87 0 1 1 -0.87,0.87a0.87,0.87 0 0 1 0.87,-0.87zm2.32,0a0.87,0.87 0 1 1 -0.87,0.87a0.87,0.87 0 0 1 0.87,-0.87zm4.63,0a0.87,0.87 0 1 1 -0.87,0.87a0.87,0.87 0 0 1 0.87,-0.87zm2.32,0a0.87,0.87 0 1 1 -0.87,0.87a0.87,0.87 0 0 1 0.87,-0.87zm2.31,0a0.87,0.87 0 1 1 -0.87,0.87a0.87,0.87 0 0 1 0.87,-0.87zm-44.84,-16.82a10.85,10.85 0 0 1 1.18,-0.87a0.89,0.89 0 0 1 0.57,0.82a0.88,0.88 0 0 1 -1.75,0.05zm16.59,-0.77a11.56,11.56 0 0 1 1.34,1a0.87,0.87 0 0 1 -1.71,-0.23a0.89,0.89 0 0 1 0.37,-0.72l0,-0.05zm-13.4,-0.15a0.87,0.87 0 1 1 -0.87,0.87a0.87,0.87 0 0 1 0.87,-0.87zm2.32,0a0.87,0.87 0 1 1 -0.87,0.87a0.87,0.87 0 0 1 0.87,-0.87zm2.31,0a0.87,0.87 0 1 1 -0.87,0.87a0.87,0.87 0 0 1 0.87,-0.87zm2.32,0a0.87,0.87 0 1 1 -0.87,0.87a0.87,0.87 0 0 1 0.87,-0.87zm2.32,0a0.87,0.87 0 1 1 -0.88,0.87a0.87,0.87 0 0 1 0.88,-0.87zm2.31,0a0.87,0.87 0 1 1 -0.87,0.87a0.87,0.87 0 0 1 0.87,-0.87zm-34.78,12.83a8.21,8.21 0 0 1 0.35,-1.68a0.86,0.86 0 0 1 0.56,0.81a0.87,0.87 0 0 1 -0.87,0.87l-0.04,0zm41.68,0a4.87,4.87 0 0 1 0.71,-0.3a0.88,0.88 0 0 1 -0.66,0.3l-0.05,0zm1.56,-0.55a7.19,7.19 0 0 1 1.66,-0.16a0.87,0.87 0 0 1 -1.66,0.16zm2.27,-0.13a7.32,7.32 0 0 1 1.57,0.35a0.87,0.87 0 0 1 -1.56,-0.32l-0.01,-0.03zm-43.16,-1.06a0.87,0.87 0 1 1 -0.87,0.87a0.87,0.87 0 0 1 0.87,-0.87zm2.32,0a0.87,0.87 0 1 1 -0.87,0.87a0.87,0.87 0 0 1 0.87,-0.87zm2.32,0a0.87,0.87 0 1 1 -0.88,0.87a0.87,0.87 0 0 1 0.88,-0.87zm2.31,0a0.87,0.87 0 1 1 -0.87,0.87a0.87,0.87 0 0 1 0.87,-0.87zm2.32,0a0.87,0.87 0 1 1 -0.87,0.87a0.87,0.87 0 0 1 0.87,-0.87zm2.32,0a0.87,0.87 0 1 1 -0.88,0.87a0.87,0.87 0 0 1 0.88,-0.87zm2.31,0a0.87,0.87 0 1 1 -0.87,0.87a0.87,0.87 0 0 1 0.87,-0.87zm2.32,0a0.87,0.87 0 1 1 -0.87,0.87a0.87,0.87 0 0 1 0.87,-0.87zm2.31,0a0.87,0.87 0 1 1 -0.87,0.87a0.87,0.87 0 0 1 0.87,-0.87zm2.32,0a0.87,0.87 0 1 1 -0.87,0.87a0.87,0.87 0 0 1 0.87,-0.87zm2.32,0a0.87,0.87 0 1 1 -0.87,0.87a0.87,0.87 0 0 1 0.87,-0.87zm2.31,0a0.87,0.87 0 1 1 -0.87,0.87a0.87,0.87 0 0 1 0.87,-0.87zm2.32,0a0.87,0.87 0 1 1 -0.87,0.87a0.87,0.87 0 0 1 0.87,-0.87zm2.32,0a0.87,0.87 0 1 1 -0.88,0.87a0.87,0.87 0 0 1 0.88,-0.87zm2.31,0a0.87,0.87 0 1 1 -0.87,0.87a0.87,0.87 0 0 1 0.87,-0.87zm2.32,0a0.87,0.87 0 1 1 -0.87,0.87a0.87,0.87 0 0 1 0.87,-0.87zm2.31,0a0.87,0.87 0 1 1 -0.87,0.87a0.87,0.87 0 0 1 0.87,-0.87zm-37.54,9.24a5,5 0 0 1 -0.39,0.52l0,0a0.87,0.87 0 1 1 1.6,0.48a6.31,6.31 0 0 1 -1.21,-1zm-15.55,1.35a4.36,4.36 0 0 1 -1,-1.23a0.86,0.86 0 0 1 0.78,-0.49a0.87,0.87 0 0 1 0.18,1.72l0.04,0zm83.19,-1.72a1.57,1.57 0 0 1 -0.12,1.73a0.86,0.86 0 0 1 -0.73,-0.86a0.87,0.87 0 0 1 0.85,-0.87zm-34,0.4a14.84,14.84 0 0 1 -1.51,0.87a0.91,0.91 0 0 1 -0.1,-0.4a0.87,0.87 0 0 1 0.87,-0.87a0.89,0.89 0 0 1 0.74,0.4zm-47.06,-0.4a0.87,0.87 0 1 1 -0.88,0.87a0.87,0.87 0 0 1 0.88,-0.87zm2.31,0a0.87,0.87 0 1 1 -0.87,0.87a0.87,0.87 0 0 1 0.87,-0.87zm2.32,0a0.87,0.87 0 1 1 -0.87,0.87a0.87,0.87 0 0 1 0.87,-0.87zm2.31,0a0.87,0.87 0 1 1 -0.87,0.87a0.87,0.87 0 0 1 0.87,-0.87zm2.32,0a0.87,0.87 0 1 1 -0.87,0.87a0.87,0.87 0 0 1 0.87,-0.87zm2.32,0a0.87,0.87 0 1 1 -0.87,0.87a0.87,0.87 0 0 1 0.87,-0.87zm4.63,0a0.87,0.87 0 1 1 -0.87,0.87a0.87,0.87 0 0 1 0.87,-0.87zm2.32,0a0.87,0.87 0 1 1 -0.88,0.87a0.87,0.87 0 0 1 0.88,-0.87zm2.31,0a0.87,0.87 0 1 1 -0.87,0.87a0.87,0.87 0 0 1 0.87,-0.87zm2.32,0a0.87,0.87 0 1 1 -0.87,0.87a0.87,0.87 0 0 1 0.87,-0.87zm2.32,0a0.87,0.87 0 1 1 -0.88,0.87a0.87,0.87 0 0 1 0.88,-0.87zm2.31,0a0.87,0.87 0 1 1 -0.87,0.87a0.87,0.87 0 0 1 0.87,-0.87zm2.32,0a0.87,0.87 0 1 1 -0.87,0.87a0.87,0.87 0 0 1 0.87,-0.87zm2.31,0a0.87,0.87 0 1 1 -0.87,0.87a0.87,0.87 0 0 1 0.87,-0.87zm2.32,0a0.87,0.87 0 1 1 -0.87,0.87a0.87,0.87 0 0 1 0.87,-0.87zm2.32,0a0.87,0.87 0 1 1 -0.87,0.87a0.87,0.87 0 0 1 0.87,-0.87zm2.31,0a0.87,0.87 0 1 1 -0.87,0.87a0.87,0.87 0 0 1 0.87,-0.87zm2.32,0a0.87,0.87 0 1 1 -0.87,0.87a0.87,0.87 0 0 1 0.87,-0.87zm2.32,0a0.87,0.87 0 1 1 -0.88,0.87a0.87,0.87 0 0 1 0.88,-0.87zm6.94,0a0.87,0.87 0 1 1 -0.87,0.87a0.87,0.87 0 0 1 0.87,-0.87zm2.32,0a0.87,0.87 0 1 1 -0.87,0.87a0.87,0.87 0 0 1 0.87,-0.87zm2.32,0a0.87,0.87 0 1 1 -0.87,0.87a0.87,0.87 0 0 1 0.87,-0.87zm2.31,0a0.87,0.87 0 1 1 -0.87,0.87a0.86,0.86 0 0 1 0.87,-0.87zm2.32,0a0.87,0.87 0 1 1 -0.87,0.87a0.87,0.87 0 0 1 0.87,-0.87zm2.32,0a0.87,0.87 0 1 1 -0.87,0.87a0.87,0.87 0 0 1 0.87,-0.87zm2.31,0a0.87,0.87 0 1 1 -0.87,0.87a0.87,0.87 0 0 1 0.87,-0.87zm2.32,0a0.87,0.87 0 1 1 -0.87,0.87a0.87,0.87 0 0 1 0.87,-0.87zm2.32,0a0.87,0.87 0 1 1 -0.88,0.87a0.87,0.87 0 0 1 0.88,-0.87zm2.31,0a0.87,0.87 0 1 1 -0.87,0.87a0.87,0.87 0 0 1 0.87,-0.87zm2.32,0a0.87,0.87 0 1 1 -0.87,0.87a0.87,0.87 0 0 1 0.87,-0.87zm2.31,0a0.87,0.87 0 1 1 -0.87,0.87a0.87,0.87 0 0 1 0.87,-0.87zm2.32,0a0.87,0.87 0 1 1 -0.87,0.87a0.87,0.87 0 0 1 0.87,-0.87zm-49.37,-16.41a8.54,8.54 0 0 1 0.9,-1.32a0.87,0.87 0 0 1 -0.16,1.73a0.88,0.88 0 0 1 -0.74,-0.41zm21.32,-1.29a8.36,8.36 0 0 1 1,1.32a0.86,0.86 0 0 1 -0.72,0.38a0.87,0.87 0 0 1 -0.26,-1.7l-0.02,0zm-18.27,0a0.87,0.87 0 1 1 -0.87,0.87a0.87,0.87 0 0 1 0.87,-0.87zm2.32,0a0.87,0.87 0 1 1 -0.87,0.87a0.87,0.87 0 0 1 0.87,-0.87zm2.32,0a0.87,0.87 0 1 1 -0.87,0.87a0.87,0.87 0 0 1 0.87,-0.87zm2.31,0a0.87,0.87 0 1 1 -0.87,0.87a0.87,0.87 0 0 1 0.87,-0.87zm2.32,0a0.87,0.87 0 1 1 -0.87,0.87a0.87,0.87 0 0 1 0.87,-0.87zm2.32,0a0.87,0.87 0 1 1 -0.88,0.87a0.87,0.87 0 0 1 0.88,-0.87zm2.31,0a0.87,0.87 0 1 1 -0.87,0.87a0.87,0.87 0 0 1 0.87,-0.87zm2.32,0a0.87,0.87 0 1 1 -0.87,0.87a0.87,0.87 0 0 1 0.87,-0.87zm-35.02,6.07a9.48,9.48 0 0 1 1.16,-1a0.85,0.85 0 0 1 0,0.23a0.87,0.87 0 0 1 -1.19,0.81l0.03,-0.04zm13.54,-1.35a5.07,5.07 0 0 1 0.93,1.38a1,1 0 0 1 -0.25,0a0.87,0.87 0 0 1 -0.68,-1.41l0,0.03zm0.94,1.37a12.92,12.92 0 0 1 0.18,-1.58a0.87,0.87 0 0 1 -0.18,1.58zm24.78,-1.58a8.82,8.82 0 0 1 0.11,1.56a0.87,0.87 0 0 1 -0.11,-1.56zm-36.62,-0.12a0.87,0.87 0 1 1 -0.87,0.87a0.87,0.87 0 0 1 0.87,-0.87zm2.32,0a0.87,0.87 0 1 1 -0.96,0.85a0.87,0.87 0 0 1 0.88,-0.87l0.08,0.02zm2.31,0a0.87,0.87 0 1 1 -0.87,0.87a0.87,0.87 0 0 1 0.87,-0.87zm2.32,0a0.87,0.87 0 1 1 -0.87,0.87a0.87,0.87 0 0 1 0.87,-0.87zm2.32,0a0.87,0.87 0 1 1 -0.91,0.85a0.87,0.87 0 0 1 0.88,-0.87l0.03,0.02zm4.63,0a0.87,0.87 0 1 1 -0.87,0.87a0.87,0.87 0 0 1 0.87,-0.87zm2.31,0a0.87,0.87 0 1 1 -0.87,0.87a0.87,0.87 0 0 1 0.87,-0.87zm2.32,0a0.87,0.87 0 1 1 -0.87,0.87a0.87,0.87 0 0 1 0.87,-0.87zm2.32,0a0.87,0.87 0 1 1 -0.87,0.87a0.87,0.87 0 0 1 0.87,-0.87zm2.31,0a0.87,0.87 0 1 1 -0.87,0.87a0.87,0.87 0 0 1 0.87,-0.87zm2.32,0a0.87,0.87 0 1 1 -0.87,0.87a0.87,0.87 0 0 1 0.87,-0.87zm2.32,0a0.87,0.87 0 1 1 -0.88,0.87a0.87,0.87 0 0 1 0.88,-0.87zm2.31,0a0.87,0.87 0 1 1 -0.87,0.87a0.87,0.87 0 0 1 0.87,-0.87zm2.32,0a0.87,0.87 0 1 1 -0.87,0.87a0.87,0.87 0 0 1 0.87,-0.87zm2.31,0a0.87,0.87 0 1 1 -0.87,0.87a0.87,0.87 0 0 1 0.87,-0.87zm-54,10.19a5.53,5.53 0 0 1 1,-1.27a0.88,0.88 0 0 1 -0.29,1.7a0.88,0.88 0 0 1 -0.75,-0.43l0.04,0zm14.62,-1.34l0.09,0.06l0,-0.06a0.85,0.85 0 1 1 -0.16,0l0.07,0zm50.32,0.2a3.89,3.89 0 0 1 0,1.37a0.88,0.88 0 0 1 0,-1.37zm0.25,1.48a4.26,4.26 0 0 1 1.18,-0.86l0,0a0.87,0.87 0 0 1 -0.87,0.88a0.81,0.81 0 0 1 -0.31,-0.06l0,0.04zm1.8,-1.09a3.11,3.11 0 0 1 1.66,0a0.93,0.93 0 0 1 0,0.24a0.87,0.87 0 1 1 -1.74,0a0.86,0.86 0 0 1 0.05,-0.27l0.03,0.03zm2.27,0.26a4,4 0 0 1 1.11,0.85a0.93,0.93 0 0 1 -0.24,0a0.87,0.87 0 0 1 -0.87,-0.88l0,0.03zm5.29,0.86c0.26,-0.07 0.52,-0.14 0.8,-0.2a0.89,0.89 0 0 1 -0.59,0.23a0.76,0.76 0 0 1 -0.21,0l0,-0.03zm1.79,-0.38a12.82,12.82 0 0 1 1.53,-0.1a0.87,0.87 0 0 1 -0.79,0.51a0.9,0.9 0 0 1 -0.74,-0.41zm2.28,-0.07a9.46,9.46 0 0 1 1.38,0.23a0.89,0.89 0 0 1 -0.61,0.25a0.87,0.87 0 0 1 -0.77,-0.48zm-75.62,-1.26a0.88,0.88 0 1 1 -0.88,0.87a0.87,0.87 0 0 1 0.88,-0.87zm2.31,0a0.88,0.88 0 1 1 -0.87,0.87a0.87,0.87 0 0 1 0.87,-0.87zm2.31,0a0.88,0.88 0 1 1 -0.87,0.87a0.87,0.87 0 0 1 0.87,-0.87zm2.31,0a0.88,0.88 0 1 1 -0.87,0.87a0.87,0.87 0 0 1 0.87,-0.87zm2.32,0a0.88,0.88 0 1 1 -0.87,0.87a0.87,0.87 0 0 1 0.87,-0.87zm4.63,0a0.88,0.88 0 1 1 -0.87,0.87a0.87,0.87 0 0 1 0.87,-0.87zm2.32,0a0.88,0.88 0 1 1 -0.87,0.87a0.87,0.87 0 0 1 0.87,-0.87zm2.32,0a0.88,0.88 0 0 1 0,1.75a0.88,0.88 0 1 1 0,-1.75zm2.31,0a0.88,0.88 0 1 1 -0.87,0.87a0.87,0.87 0 0 1 0.87,-0.87zm2.32,0a0.88,0.88 0 1 1 -0.87,0.87a0.87,0.87 0 0 1 0.87,-0.87zm2.32,0a0.88,0.88 0 1 1 -0.88,0.87a0.87,0.87 0 0 1 0.88,-0.87zm2.31,0a0.88,0.88 0 1 1 -0.87,0.87a0.87,0.87 0 0 1 0.87,-0.87zm2.32,0a0.88,0.88 0 1 1 -0.87,0.87a0.87,0.87 0 0 1 0.87,-0.87zm2.31,0a0.88,0.88 0 1 1 -0.87,0.87a0.87,0.87 0 0 1 0.87,-0.87zm2.32,0a0.88,0.88 0 1 1 -0.87,0.87a0.87,0.87 0 0 1 0.87,-0.87zm2.32,0a0.88,0.88 0 1 1 -0.87,0.87a0.87,0.87 0 0 1 0.87,-0.87zm2.31,0a0.88,0.88 0 1 1 -0.87,0.87a0.87,0.87 0 0 1 0.87,-0.87zm2.32,0a0.88,0.88 0 1 1 -0.87,0.87a0.87,0.87 0 0 1 0.87,-0.87zm2.32,0a0.88,0.88 0 1 1 -0.88,0.87a0.87,0.87 0 0 1 0.88,-0.87zm2.31,0a0.88,0.88 0 1 1 -0.87,0.87a0.87,0.87 0 0 1 0.87,-0.87zm2.31,0a0.88,0.88 0 1 1 -0.87,0.87a0.87,0.87 0 0 1 0.87,-0.87zm2.31,0a0.88,0.88 0 1 1 -0.87,0.87a0.87,0.87 0 0 1 0.87,-0.87zm2.32,0a0.88,0.88 0 1 1 -0.87,0.87a0.87,0.87 0 0 1 0.87,-0.87zm2.37,0a0.88,0.88 0 1 1 -0.87,0.87a0.87,0.87 0 0 1 0.87,-0.87zm2.31,0a0.88,0.88 0 1 1 -0.87,0.87a0.86,0.86 0 0 1 0.87,-0.87zm2.32,0a0.88,0.88 0 1 1 -0.87,0.87a0.87,0.87 0 0 1 0.87,-0.87zm-24,-17a14.7,14.7 0 0 1 1.63,-0.33a0.85,0.85 0 0 1 0.11,0.42a0.87,0.87 0 0 1 -1.74,0l0,-0.09zm2.49,-0.44c0.44,0 0.88,-0.06 1.33,-0.07a0.91,0.91 0 0 1 0.23,0.6a0.87,0.87 0 0 1 -1.74,0a0.89,0.89 0 0 1 0.18,-0.53zm2.36,0c0.47,0 0.93,0.07 1.4,0.14a0.83,0.83 0 0 1 0.12,0.44a0.87,0.87 0 1 1 -1.52,-0.58zm2.16,0.26a13.11,13.11 0 0 1 1.67,0.4a0.87,0.87 0 1 1 -1.67,-0.4zm2.3,0.6a13.12,13.12 0 0 1 1.23,0.49a0.92,0.92 0 0 1 -0.41,0.1a0.87,0.87 0 0 1 -0.88,-0.58l0.06,-0.01z"/>
  </g>
  <g stroke="null" id="g">
   <g stroke="null" id="svg_103">
    <path stroke="null" id="svg_104" fill-rule="evenodd" fill="#0094bb" d="m183.01093,412.78581c44.83587,0 81.20027,4.14325 81.20027,9.24832s-36.36441,9.24832 -81.20027,9.24832s-81.21877,-4.14325 -81.21877,-9.24832s36.36441,-9.24832 81.21877,-9.24832z"/>
    <path stroke="null" id="svg_105" fill-rule="evenodd" fill="#f47a55" d="m193.48003,353.89249a5.21605,5.21605 0 0 1 1.51672,-3.25541c1.20228,-0.98032 1.42424,0.61039 0.61039,2.25659c0.96183,-0.5549 2.46005,-1.60921 3.34789,-1.16529s-0.83235,1.84966 -2.38607,2.49705c0,0 2.34907,-0.83235 3.40338,-0.33294s-1.25777,1.84966 -2.94097,1.94215c0,0 1.84966,0 2.51554,0.72137s-2.82999,1.55372 -4.90161,0.42542l-0.09248,0a81.38524,81.38524 0 0 1 -23.58322,5.10507l-0.12948,-2.57103a54.95353,54.95353 0 0 0 22.5844,-5.29004l0.05549,-0.33294z"/>
    <path stroke="null" id="svg_106" fill-rule="evenodd" fill="#f47a55" d="m163.38599,372.83305a4.55017,4.55017 0 0 1 2.97796,-1.84966c4.62416,1.05431 12.65171,0.86934 11.5974,5.01259c-0.68438,2.756 -5.32703,6.75128 -7.50964,7.93506a30.57496,30.57496 0 0 1 15.53718,4.4022a1.73868,1.73868 0 0 1 -2.23809,1.73868a6.65879,6.65879 0 0 1 -2.60803,-1.03581c-3.82881,0.90634 -8.76741,-2.25659 -10.74655,-1.84966c-1.6462,0.29595 -5.23455,-0.20346 -5.54899,-0.94333c-0.46242,-1.0913 0.77686,-2.14561 2.29358,-2.94097c1.20228,-0.64738 6.43683,-3.12593 7.52813,-6.75128c0.85085,-2.82999 -7.7131,-2.71901 -11.28295,-3.71783z"/>
    <path stroke="null" id="svg_107" fill-rule="evenodd" fill="#ffc233" d="m263.47134,368.06092a115.8075,115.8075 0 0 1 15.51869,7.89807a84.88111,84.88111 0 0 1 -39.78628,35.51356c-27.28255,11.30145 -105.17193,12.76269 -127.31241,12.17079a78.18532,78.18532 0 0 1 -18.2007,-15.9811a77.27899,77.27899 0 0 1 13.7985,-9.24832s6.0854,-11.5604 9.08185,-14.09444c0,0 1.84966,-3.51436 17.31286,-2.2011s37.54819,6.30736 49.94094,1.84966s31.9807,-20.67925 45.7607,-22.30695s31.18534,3.97678 33.88585,6.39984z"/>
    <path stroke="null" id="svg_108" fill-rule="evenodd" fill="#76a460" d="m163.27501,372.88854c3.21842,1.07281 8.21251,1.47973 9.98819,2.57103c1.42424,-1.03581 2.2011,-1.70169 3.53286,-2.51554a124.83386,124.83386 0 0 0 -12.39275,-2.64502c-0.35144,0.48091 -1.35026,1.60921 -1.1283,2.58953z"/>
    <path stroke="null" id="svg_109" fill-rule="evenodd" fill="#3c3838" d="m163.27501,372.88854c2.1826,0.72137 5.19756,1.14679 7.39866,1.68319a11.09799,11.09799 0 0 0 3.10744,-2.44156c-2.86698,-0.64738 -6.56631,-1.23928 -9.43329,-1.84966c-0.29595,0.49941 -1.29477,1.6277 -1.07281,2.60803z"/>
    <path stroke="null" id="svg_110" fill-rule="evenodd" fill="#3c3838" d="m212.79053,360.58827s-12.94765,-11.74537 -22.43643,-14.07595c0,0 -4.69815,0.5734 0.44392,6.58481a36.60486,36.60486 0 0 1 7.76859,14.51987c0.14797,1.6277 14.22392,-7.02873 14.22392,-7.02873z"/>
    <path stroke="null" id="svg_111" fill-rule="evenodd" fill="#3c3838" d="m278.10219,375.03415l-4.60566,0.94333c-24.04564,4.88311 -124.37144,24.95197 -179.91687,30.61195c-1.59071,0.11098 -1.18379,2.44156 0.24046,2.29358c55.48994,-5.65997 155.74176,-25.69184 179.99086,-30.61195l4.75364,-0.98032c1.92365,-0.40693 1.38725,-2.70051 -0.46242,-2.25659z"/>
    <path stroke="null" id="svg_112" fill-rule="evenodd" fill="#3c3838" d="m260.77083,365.63786c-11.39393,-5.06808 -26.63517,-10.39511 -41.52497,-11.09799c0,0 -33.58991,19.49546 -45.46475,21.99251s-48.70167,-1.46123 -68.19713,-0.44392a4.03227,4.03227 0 0 0 -1.33176,3.08894c0.29595,1.60921 12.31877,5.12357 12.31877,5.12357s5.43801,-1.31326 32.42462,2.64502s37.69616,3.51436 60.13259,-12.02282a57.83901,57.83901 0 0 1 54.34314,-6.89925c-0.05549,-0.38843 -0.66588,-1.35026 -2.70051,-2.38607z"/>
    <path stroke="null" id="svg_113" fill-rule="evenodd" fill="#f47a55" d="m177.1105,322.44819a21.60408,21.60408 0 0 1 10.4876,23.93466a63.01807,63.01807 0 0 1 -5.99291,14.57536a56.2298,56.2298 0 0 1 -7.7131,10.54309c-11.09799,11.85635 -40.45216,-5.08658 -35.68003,-19.92089a77.90787,77.90787 0 0 1 9.24832,-19.8284a2.58953,2.58953 0 0 1 -0.99882,-0.51791a3.44038,3.44038 0 0 1 4.43919,-5.12357a2.756,2.756 0 0 1 0.51791,0.62889a21.58559,21.58559 0 0 1 25.69184,-4.29122z"/>
    <path stroke="null" id="svg_114" fill-rule="evenodd" fill="#76a460" d="m173.89209,371.50129c-11.09799,11.85635 -40.45216,-5.08658 -35.68003,-19.92089c6.0669,11.09799 23.23179,19.07004 35.68003,19.92089z"/>
    <path stroke="null" id="svg_115" fill-rule="evenodd" fill="#ce1432" d="m181.38323,361.34664a56.32229,56.32229 0 0 1 -7.49114,10.15466c-14.79732,-0.77686 -32.12867,-11.31995 -35.68003,-19.92089a96.53399,96.53399 0 0 1 4.47619,-11.50491c3.08894,3.19992 15.48169,14.72333 38.69498,21.27114z"/>
    <path stroke="null" id="svg_116" fill-rule="evenodd" fill="#f47a55" d="m163.14553,355.26124a2.71901,2.71901 0 1 0 2.68201,2.70051a2.68201,2.68201 0 0 0 -2.68201,-2.70051z"/>
    <path stroke="null" id="svg_117" fill-rule="evenodd" fill="#3c3838" d="m151.32618,326.77641c3.8843,3.3109 11.74537,3.42188 17.01691,-3.69933c2.14561,8.97087 12.79968,9.47028 19.77291,16.64698a21.32663,21.32663 0 0 0 -11.0055,-17.40534a21.56709,21.56709 0 0 0 -25.78432,4.45769z"/>
    <polygon stroke="null" id="svg_118" fill-rule="evenodd" fill="#3c3838" points="162.9790382385254,320.9684753417969 160.40803909301758,318.17547607421875 162.9790382385254,319.4147644042969 162.77560806274414,316.0853576660156 164.75470352172852,319.6921691894531 166.9188575744629,317.0841369628906 165.73503494262695,320.43206787109375 162.9790382385254,320.9684753417969 "/>
    <g stroke="null" id="svg_119">
     <path stroke="null" id="svg_120" fill-rule="evenodd" fill="#3c3838" d="m169.00897,346.1239c-2.36757,0.59189 -1.84966,3.36639 -0.12948,4.34671c2.05313,1.20228 4.67965,-0.36993 3.69933,-2.81149c1.53522,2.36757 -1.35026,4.75364 -3.97678,3.27391a3.01495,3.01495 0 0 1 -1.46123,-3.69933a1.84966,1.84966 0 0 1 1.86816,-1.1098z"/>
     <path stroke="null" id="svg_121" fill-rule="evenodd" fill="#3c3838" d="m160.94443,343.58986l0.64738,0c-1.6647,6.21487 9.41479,10.15466 13.44706,11.52341c-4.9756,-0.27745 -15.87012,-4.86462 -14.09444,-11.52341z"/>
     <path stroke="null" id="svg_122" fill-rule="evenodd" fill="#3c3838" d="m162.59063,344.4592a2.40456,2.40456 0 0 0 -3.03345,-0.35144a1.57221,1.57221 0 0 1 3.03345,0.35144z"/>
     <path stroke="null" id="svg_123" fill-rule="evenodd" fill="#3c3838" d="m167.30728,331.80749s3.2924,3.01495 6.25187,2.68201l0.40693,-2.31208s-1.77568,1.57221 -6.65879,-0.36993z"/>
     <path stroke="null" id="svg_124" fill-rule="evenodd" fill="#3c3838" d="m185.17504,341.46274s-4.32822,-1.1098 -5.67847,-3.69933l1.72019,-1.60921s-0.35144,2.29358 3.95828,5.30854z"/>
    </g>
    <path stroke="null" id="svg_125" fill-rule="evenodd" fill="#3c3838" d="m184.69413,354.68784a59.18927,59.18927 0 0 1 -20.34631,3.40338a6.76977,6.76977 0 0 1 -0.12948,-2.57103c7.50964,-0.59189 17.42384,-2.7745 22.38094,-5.82644c-0.59189,1.73868 -1.20228,3.40338 -1.90515,4.99409z"/>
    <path stroke="null" id="svg_126" fill-rule="evenodd" fill="#f47a55" d="m158.61386,374.84919a4.49468,4.49468 0 0 1 2.99646,-1.84966c4.62416,1.03581 12.63321,0.85085 11.5974,4.99409c-0.70287,2.756 -5.34553,6.75128 -7.50964,7.93506c6.17788,-0.38843 9.87721,-0.85085 15.88862,0.27745c0.27745,2.92247 -3.69933,3.56985 -5.25305,2.49705c-4.51318,2.12711 -8.73042,0 -10.70956,0.44392c-1.6277,0.29595 -5.23455,-0.20346 -5.54899,-0.94333c-0.48091,-1.0913 0.75836,-2.14561 2.27509,-2.94097c1.22078,-0.64738 6.43683,-3.12593 7.54663,-6.75128c0.86934,-2.7745 -7.6946,-2.66352 -11.28295,-3.66234z"/>
    <path stroke="null" id="svg_127" fill-rule="evenodd" fill="#3c3838" d="m177.27697,360.10736a51.03225,51.03225 0 0 1 -8.268,10.82054l1.03581,0.16647a51.14322,51.14322 0 0 0 8.06454,-10.70956l-0.83235,-0.27745z"/>
    <path stroke="null" id="svg_128" fill-rule="evenodd" fill="#3c3838" d="m170.85864,373.83187a66.58792,66.58792 0 0 0 -11.09799,-1.53522a4.43919,4.43919 0 0 1 -1.14679,2.58953a17.71979,17.71979 0 0 0 12.24478,-1.05431z"/>
    <path stroke="null" id="svg_129" fill-rule="evenodd" fill="#3c3838" d="m172.50484,375.03415l0.68438,-0.42542a14.94529,14.94529 0 0 0 -2.79299,-0.92483a3.69933,3.69933 0 0 0 -2.16411,0.31444a27.89294,27.89294 0 0 1 4.27273,1.03581z"/>
    <path stroke="null" id="svg_130" fill-rule="evenodd" fill="#76a460" d="m158.59536,374.88618c3.21842,1.07281 8.23101,1.47973 9.98819,2.57103c1.42424,-1.03581 2.2011,-1.70169 3.53286,-2.51554a125.51824,125.51824 0 0 0 -12.37426,-2.64502c-0.36993,0.48091 -1.36875,1.60921 -1.14679,2.58953z"/>
    <g stroke="null" id="svg_131">
     <path stroke="null" id="svg_132" fill-rule="evenodd" fill="#3c3838" d="m173.54065,339.31713l2.90397,1.55372l-0.83235,1.6462a2.81149,2.81149 0 0 0 -2.86698,-1.53522l0.79536,-1.6647z"/>
     <path stroke="null" id="svg_133" fill-rule="evenodd" fill="#3c3838" d="m176.42613,339.68706c-7.25069,11.72687 7.06572,17.44234 11.94883,6.41834l-11.94883,-6.41834z"/>
     <path stroke="null" id="svg_134" fill-rule="evenodd" fill="#3c3838" d="m174.53947,338.68825c-5.75246,12.52223 -18.49665,3.69933 -11.96733,-6.41834l11.96733,6.41834z"/>
     <polygon stroke="null" id="svg_135" fill-rule="evenodd" fill="#3c3838" points="162.70161819458008,332.954345703125 152.8613624572754,324.8342590332031 151.32619094848633,326.7763977050781 161.9802131652832,334.0826110839844 162.70161819458008,332.954345703125 "/>
     <g stroke="null" id="svg_136">
      <path stroke="null" id="svg_137" fill-rule="evenodd" fill="#978e8c" d="m184.06524,350.76656l-2.2011,-7.87957l-3.40338,-1.84966l3.69933,10.4876a6.95474,6.95474 0 0 0 1.90515,-0.75836z"/>
      <path stroke="null" id="svg_138" fill-rule="evenodd" fill="#978e8c" d="m180.58787,351.76537l-4.29122,-11.09799c-0.27745,0.49941 -0.49941,0.96183 -0.70287,1.42424l4.21724,9.72924a5.54899,5.54899 0 0 0 0.77686,-0.05549z"/>
     </g>
     <g stroke="null" id="svg_139">
      <path stroke="null" id="svg_140" fill-rule="evenodd" fill="#978e8c" d="m170.5072,343.42339l-2.2011,-7.80558l-3.36639,-1.84966l3.69933,10.54309a6.69579,6.69579 0 0 0 1.86816,-0.88784z"/>
      <path stroke="null" id="svg_141" fill-rule="evenodd" fill="#978e8c" d="m167.06682,344.60717l-4.47619,-11.67138a9.43329,9.43329 0 0 0 -0.72137,1.40575l4.36521,10.26564l0.83235,0z"/>
     </g>
    </g>
    <path stroke="null" id="svg_142" fill-rule="evenodd" fill="#f47a55" d="m186.83974,349.87872a5.27154,5.27154 0 0 1 1.51672,-3.25541a3.51436,3.51436 0 0 1 3.12593,-0.27745a2.64502,2.64502 0 0 1 2.03463,2.62652c0,0.70287 -0.22196,1.44274 -0.99882,1.44274s-0.99882,-0.42542 -0.96183,-0.81385a0.86934,0.86934 0 0 0 -1.33176,-0.88784c-0.70287,0.44392 0,2.03463 -0.46242,3.34789a1.53522,1.53522 0 0 1 -1.84966,0.85085a81.90315,81.90315 0 0 1 -23.58322,5.21605c-2.14561,0.29595 -2.27509,-2.40456 -0.12948,-2.57103a54.82406,54.82406 0 0 0 22.6029,-5.30854a2.7745,2.7745 0 0 1 0.03699,-0.36993z"/>
   </g>
  </g>
 </g>
</svg>