<svg width="400" height="400" xmlns="http://www.w3.org/2000/svg" xmlns:xlink="http://www.w3.org/1999/xlink">
 <g>
  <title>background</title>
  
 </g>
 <style>#jsana{animation: hja linear 10s;
   
}
#jisanb{animation: hjb linear 10s;
    
		}
}
#hasana{animation: hjd linear 10s;
  
		}
		100% {
				 
		}
}
#hasnfa{animation: hjna linear 10s;
    transform-box: fill-box;
    transform-origin: center;}
@keyframes hjna{
			0% {  
			visibility: hidden;
			         transform: scale(0.1);
		}
		45% {
		 
			visibility: hidden; opacity:0;
			         transform: scale(0.1);
		}
		50% { opacity:1;
			transform: scale(1);
		}
		100% {
				 
		}
}
#hanifaa{animation: hjna linear 10s;
    transform-box: fill-box;
    transform-origin: center;}
@keyframes hjna{
			0% {  
			visibility: hidden;
			         transform: scale(0.1);
		}
		45% {
		 
			visibility: hidden; opacity:0;
			         transform: scale(0.1);
		}
		50% { opacity:1;
			transform: scale(1);
		}
		100% {
				 
		}
}
#hasang{animation: hjo linear 10s;
    transform-box: fill-box;
    transform-origin: center;}
@keyframes hjo{
			0% {  
			visibility: hidden;
			         transform: scale(0.1);
		}
		40% {
		 
			visibility: hidden; opacity:0;
			         transform: scale(0.1);
		}
		45% { opacity:1;
			transform: scale(1);
		}
		100% {
				 
		}
}
#hasanhaand{animation: hjp linear 2s infinite;
        
    transform-box: fill-box;
    transform-origin: left;}
@keyframes hjp{
			0% { transform: rotate(-7deg);
			}
	 
		50% {
			transform: rotate(0deg);
		}
		100% {
				transform: rotate(-7deg);
		}
}
#hand3 {animation: pp linear 2s infinite;
        
    transform-box: fill-box;
    transform-origin: 20% 10%;}

	@keyframes pp {
			0% { transform: rotateZ(7deg);
			}
	 
		50% {
			transform: rotateZ(0deg);
		}
		100% {
				transform: rotateZ(7deg);
		}
}
#hand1 {animation: h1 linear 1s infinite;
        
    transform-box: fill-box;
    transform-origin: 10% 90%;}

	@keyframes h1 {
			0% { transform: rotateZ(7deg);
			}
	 
		50% {
			transform: rotateZ(0deg);
		}
		100% {
				transform: rotateZ(7deg);
		}
}
#hand2 {animation: h2 linear 1s infinite;
        
    transform-box: fill-box;
    transform-origin: 10% 90%;}

	@keyframes h2 {
			0% { transform: rotateZ(7deg);
			}
	 
		50% {
			transform: rotateZ(0deg);
		}
		100% {
				transform: rotateZ(7deg);
		}
}

	#hasandahand{animation: hj linear 4s infinite;
        
    transform-box: fill-box;
    transform-origin: right;}
    @keyframes hj{
			0% { transform: rotate(-5deg);
			}
	 
		50% {
			transform: rotate(15deg);
		}
		100% {
				transform: rotate(-5deg);
		}
 #handxaa2{animation: hjq linear 2s infinite;
        
    transform-box: fill-box;
    transform-origin: bottom;}
    }

	#hasancloud{animation: hju linear 4s infinite;
        
    transform-box: fill-box;
    transform-origin: bottom;}
	@keyframes hju{
			0% {     transform: translate(0px, 0px);
			}
	 
		50% {
			    transform: translate(7px, -4px);
		}
		100% {
				    transform: translate(0px, 0px);
		}
}</style>
 <defs>
  <clipPath id="clip-path">
   <polygon points="597.6 174.8 597.1 174.8 630.5 191.5 630.5 193.5 630.5 194.7 630.5 196.7 596.2 213.9 589.8 213.9 555.5 196.7 555.5 194.7 555.5 193.5 555.5 191.5 588.9 174.8 588.4 174.8 548.8 193.3 548.8 197 589.2 217.2 596.8 217.2 637.2 197 637.2 193.3 597.7 174.9 597.6 174.8" fill="none" id="svg_1"/>
  </clipPath>
  <clipPath id="clip-path-2">
   <path d="m536.2,203.9z" fill="none" id="svg_2"/>
  </clipPath>
  <clipPath id="clip-path-3">
   <polygon points="646.9 201.3 646.6 200.5 646.6 201.5 646.9 201.3" fill="none" id="svg_3"/>
  </clipPath>
  <clipPath id="clip-path-4">
   <polygon points="429.8 307.8 482.1 333.9 488 331 435.7 304.9 429.8 307.8" fill="none" id="svg_4"/>
  </clipPath>
  <clipPath id="clip-path-5">
   <polygon points="467.7 331.9 467.7 331.9 462.2 334.6 472.2 339.6 478.2 336.7 467.7 331.5 467.7 331.9" fill="none" id="svg_5"/>
  </clipPath>
  <clipPath id="clip-path-6">
   <polygon points="409.5 319.3 461.8 345.3 467.7 342.4 415.4 316.3 409.5 319.3" fill="none" id="svg_6"/>
  </clipPath>
  <linearGradient id="linear-gradient-2" x1="0.5" y1="0.99996" x2="0.5" y2="-0.38239">
   <stop offset="0" stop-color="#2375a1"/>
   <stop offset="0.43" stop-color="#1c6997"/>
   <stop offset="0.99" stop-color="#105385"/>
  </linearGradient>
  <linearGradient id="linear-gradient-107" x1="-Infinity" y1="Infinity" x2="-Infinity" y2="Infinity">
   <stop offset="0" stop-color="#6bcfda"/>
   <stop offset="0.19" stop-color="#81d6e0"/>
   <stop offset="0.57" stop-color="#bbe9ee"/>
   <stop offset="0.98" stop-color="#fff"/>
  </linearGradient>
  <linearGradient id="linear-gradient-1070" x1="710.68" y1="168.35" x2="778.06" y2="168.35" xlink:href="#linear-gradient-2"/>
  <linearGradient id="linear-gradient-1071" x1="710.68" y1="169.95" x2="778.06" y2="169.95" xlink:href="#linear-gradient-2"/>
  <linearGradient id="linear-gradient-1072" x1="684.7" y1="289.6" x2="684.7" y2="289.6" xlink:href="#linear-gradient-107"/>
  <linearGradient id="linear-gradient-1073" x1="684.65" y1="285.78" x2="690.9" y2="285.78" xlink:href="#linear-gradient-107"/>
  <linearGradient id="linear-gradient-1074" x1="684.65" y1="287.95" x2="690.9" y2="287.95" xlink:href="#linear-gradient-107"/>
 </defs>
 <g>
  <title>Layer 1</title>
  <g stroke="null" id="svg_4196">
   <g stroke="null" id="jsana">
    <path stroke="null" d="m284.18151,328.44774l-4.04313,-2.17707l0,0.31101a11.04086,11.04086 0 0 1 -0.62202,3.1101l0,0c0,0.31101 0,0.31101 -0.31101,0.62202a16.85675,16.85675 0 0 1 -8.39727,7.46424l-67.48921,33.90011a55.51531,55.51531 0 0 1 -11.50738,3.73212c-0.62202,0 -0.93303,0.31101 -1.55505,0.31101l-0.31101,0c-1.55505,0.31101 -3.1101,0.31101 -4.97616,0.62202l0,0a57.78569,57.78569 0 0 1 -26.74687,-4.35414l-67.1782,-34.21112a24.321,24.321 0 0 1 -6.84222,-4.97616c2.17707,6.53121 12.1294,13.99546 19.90465,18.03859l67.48921,33.90011a55.98183,55.98183 0 0 0 44.78546,0l67.48921,-33.90011c12.75142,-6.2202 12.75142,-16.17253 0.31101,-22.39273z" opacity="0.45" fill="url(#linear-gradient-1070)" id="svg_3106"/>
    <path stroke="null" d="m91.0442,337.77804l67.48921,33.90011a52.87173,52.87173 0 0 0 26.74687,4.35414l0,-21.14869a55.98183,55.98183 0 0 1 -27.36889,-4.66515l-69.66628,-34.83314a22.51714,22.51714 0 0 1 -6.53121,-4.97616l0,15.86152a9.89012,9.89012 0 0 0 2.48808,6.2202a16.88785,16.88785 0 0 0 6.84222,5.28717z" fill="#246e91" id="svg_3107"/>
    <path stroke="null" d="m190.25644,375.72128c-1.55505,0.31101 -3.1101,0.31101 -4.97616,0.62202a24.16549,24.16549 0 0 1 4.97616,-0.62202z" fill="#246e91" id="svg_3108"/>
    <path stroke="null" d="m279.82737,325.64865a6.2202,6.2202 0 0 1 -0.62202,4.04313a11.04086,11.04086 0 0 0 0.62202,-3.1101l0,-0.93303z" fill="#246e91" id="svg_3109"/>
    <polygon stroke="null" points="280.13830184936523,323.47168350219727 280.13830184936523,310.7202796936035 280.13830184936523,310.7202796936035 280.13830184936523,323.47168350219727 " fill="#1a5273" opacity="0.78" id="svg_3110"/>
    <path stroke="null" d="m270.80807,337.77804l-67.48921,33.90011a55.51531,55.51531 0 0 1 -11.50738,3.73212a35.73507,35.73507 0 0 0 11.50738,-3.73212l67.48921,-33.90011a16.85675,16.85675 0 0 0 8.39727,-7.46424a15.55051,15.55051 0 0 1 -8.39727,7.46424z" opacity="0.45" fill="url(#linear-gradient-1071)" id="svg_3111"/>
    <path stroke="null" d="m270.80807,337.77804l-67.48921,33.90011a55.51531,55.51531 0 0 1 -11.50738,3.73212a35.73507,35.73507 0 0 0 11.50738,-3.73212l67.48921,-33.90011a16.85675,16.85675 0 0 0 8.39727,-7.46424a15.55051,15.55051 0 0 1 -8.39727,7.46424z" fill="#1a5273" opacity="0.78" id="svg_3112"/>
    <path stroke="null" d="m273.60716,315.69632l-69.66628,34.83314a56.69715,56.69715 0 0 1 -18.66061,4.66515l0,21.14869l0,0a31.10102,31.10102 0 0 0 4.97616,-0.62202l0.31101,0c0.62202,0 0.93303,-0.31101 1.55505,-0.31101a35.73507,35.73507 0 0 0 11.50738,-3.73212l67.48921,-33.90011a18.3185,18.3185 0 0 0 8.39727,-7.46424c0,-0.31101 0.31101,-0.31101 0.31101,-0.62202l0,0a9.3303,9.3303 0 0 0 0.62202,-4.04313l0,0l0,-14.92849a29.88808,29.88808 0 0 1 -6.84222,4.97616z" fill="#246e91" id="svg_3113"/>
    <path stroke="null" d="m273.60716,315.69632l-69.66628,34.83314a56.69715,56.69715 0 0 1 -18.66061,4.66515l0,21.14869l0,0a31.10102,31.10102 0 0 0 4.97616,-0.62202l0.31101,0c0.62202,0 0.93303,-0.31101 1.55505,-0.31101a35.73507,35.73507 0 0 0 11.50738,-3.73212l67.48921,-33.90011a18.3185,18.3185 0 0 0 8.39727,-7.46424c0,-0.31101 0.31101,-0.31101 0.31101,-0.62202l0,0a9.3303,9.3303 0 0 0 0.62202,-4.04313l0,0l0,-14.92849a29.88808,29.88808 0 0 1 -6.84222,4.97616z" fill="#1a5273" opacity="0.78" id="svg_3114"/>
    <path stroke="null" d="m88.55612,315.69632l69.66628,34.83314a55.98183,55.98183 0 0 0 27.36889,4.66515a44.66106,44.66106 0 0 0 18.66061,-4.66515l69.66628,-34.83314a29.57707,29.57707 0 0 0 6.53121,-4.66515l0,0a9.3303,9.3303 0 0 0 0,-13.37344a9.79682,9.79682 0 0 1 -3.1101,6.84222l0,0l-0.62202,0.62202a1.08854,1.08854 0 0 1 -0.62202,0.31101l0,0a17.26106,17.26106 0 0 1 -5.28717,3.42111l-67.48921,33.90011a55.98183,55.98183 0 0 1 -44.78546,0l-67.48921,-33.90011c-6.2202,-3.1101 -9.3303,-7.15323 -9.3303,-11.19637l0,-0.31101a9.3303,9.3303 0 0 0 0,13.37344a20.49557,20.49557 0 0 0 6.84222,4.97616z" fill="#fff" id="svg_3115"/>
    <path stroke="null" d="m91.0442,308.8541l67.48921,33.90011a55.98183,55.98183 0 0 0 44.78546,0l67.48921,-33.90011a22.14392,22.14392 0 0 0 5.28717,-3.42111a25.93825,25.93825 0 0 1 -5.28717,3.42111l-67.48921,33.90011a46.65152,46.65152 0 0 1 -18.03859,4.35414l0,-25.81384a55.98183,55.98183 0 0 1 -27.36889,-4.66515l-69.66628,-34.83314a22.51714,22.51714 0 0 1 -6.53121,-4.97616l0,21.14869c0,3.73212 3.1101,7.77525 9.3303,10.88536z" fill="#246e91" id="svg_3116"/>
    <path stroke="null" d="m280.13838,276.82005l0,20.21566l0,0l0,-20.21566z" fill="#1a5273" opacity="0.78" id="svg_3117"/>
    <path stroke="null" d="m280.13838,297.65773l0,0a10.07673,10.07673 0 0 1 -2.79909,6.53121a9.79682,9.79682 0 0 0 3.1101,-6.84222l0,0l0,0.31101l-0.31101,0z" fill="#fff" id="svg_3118"/>
    <path stroke="null" d="m280.13838,297.65773l0,0a10.07673,10.07673 0 0 1 -2.79909,6.53121a9.79682,9.79682 0 0 0 3.1101,-6.84222l0,0l0,0.31101l-0.31101,0z" fill="#1a5273" opacity="0.78" id="svg_3119"/>
    <path stroke="null" d="m280.13838,297.65773l0,-20.83768l0,0a17.63428,17.63428 0 0 1 -6.53121,4.66515l-69.66628,34.83314a56.69715,56.69715 0 0 1 -18.66061,4.66515l0,25.81384a46.65152,46.65152 0 0 0 18.03859,-4.35414l67.48921,-33.90011a22.14392,22.14392 0 0 0 5.28717,-3.42111l0,0c0.31101,0 0.31101,-0.31101 0.62202,-0.31101l0.62202,-0.62202l0,0a8.95709,8.95709 0 0 0 2.79909,-6.53121z" fill="#246e91" id="svg_3120"/>
    <path stroke="null" d="m280.13838,297.65773l0,-20.83768l0,0a17.63428,17.63428 0 0 1 -6.53121,4.66515l-69.66628,34.83314a56.69715,56.69715 0 0 1 -18.66061,4.66515l0,25.81384a46.65152,46.65152 0 0 0 18.03859,-4.35414l67.48921,-33.90011a22.14392,22.14392 0 0 0 5.28717,-3.42111l0,0c0.31101,0 0.31101,-0.31101 0.62202,-0.31101l0.62202,-0.62202l0,0a8.95709,8.95709 0 0 0 2.79909,-6.53121z" fill="#1a5273" opacity="0.78" id="svg_3121"/>
    <path stroke="null" d="m88.55612,281.79621l69.66628,34.83314a55.98183,55.98183 0 0 0 27.36889,4.66515a44.66106,44.66106 0 0 0 18.66061,-4.66515l69.66628,-34.83314a29.57707,29.57707 0 0 0 6.53121,-4.66515l0,0a9.3303,9.3303 0 0 0 0,-13.68445a10.97866,10.97866 0 0 1 -0.93303,4.35414l0,0c-0.31101,0.31101 -0.31101,0.62202 -0.62202,0.93303l0,0c-0.31101,0.31101 -0.31101,0.62202 -0.62202,0.93303l0,0l-0.93303,0.93303l0,0l-0.62202,0.62202l0,0l-0.62202,0.62202l-0.31101,0.31101l-0.62202,0.62202a0.31101,0.31101 0 0 0 -0.31101,0.31101c-0.31101,0.31101 -0.31101,0.31101 -0.62202,0.31101a0.31101,0.31101 0 0 0 -0.31101,0.31101a1.08854,1.08854 0 0 0 -0.62202,0.31101a0.31101,0.31101 0 0 0 -0.31101,0.31101c-0.31101,0.31101 -0.62202,0.31101 -1.24404,0.62202l0,0l-14.30647,7.15323l-53.18274,26.74687l-1.86606,0.93303l-0.31101,0c-12.44041,5.28717 -31.10102,4.97616 -42.60839,-0.93303l-68.42224,-33.90011c-6.2202,-3.1101 -9.3303,-7.15323 -9.3303,-11.50738a9.3303,9.3303 0 0 0 0,13.37344a20.49557,20.49557 0 0 0 6.84222,4.97616z" fill="#fff" id="svg_3122"/>
    <path stroke="null" d="m91.0442,274.95399l67.48921,33.90011c11.50738,5.90919 30.16799,6.2202 42.60839,0.93303a51.40998,51.40998 0 0 1 -15.86152,3.42111l0,-23.63677a57.78569,57.78569 0 0 1 -26.74687,-4.35414l-67.48921,-34.21112c-6.2202,-3.1101 -9.3303,-7.15323 -9.3303,-11.19637l0,22.70374l0,0l0,0.93303c0,4.04313 3.1101,8.39727 9.3303,11.50738z" fill="#246e91" id="svg_3123"/>
    <path stroke="null" d="m201.45281,309.47612l1.86606,-0.93303l53.18274,-26.74687l-53.18274,26.74687l-1.86606,0.93303z" fill="#246e91" id="svg_3124"/>
    <path stroke="null" d="m81.71389,238.87681l0,0z" fill="#246e91" id="svg_3125"/>
    <path stroke="null" d="m277.6503,269.66682l-0.93303,0.93303l0.93303,-0.93303z" fill="#246e91" id="svg_3126"/>
    <path stroke="null" d="m278.89434,267.80076a7.40204,7.40204 0 0 0 0.93303,-4.35414l0,-0.62202a7.49535,7.49535 0 0 1 -0.93303,4.97616z" fill="#246e91" id="svg_3127"/>
    <path stroke="null" d="m280.13838,240.43186z" fill="#1a5273" opacity="0.78" id="svg_3128"/>
    <path stroke="null" d="m256.50161,282.10722l14.30647,-7.15323l0,0l-14.30647,7.15323z" fill="#fff" id="svg_3129"/>
    <path stroke="null" d="m256.50161,282.10722l14.30647,-7.15323l0,0l-14.30647,7.15323z" fill="#1a5273" opacity="0.78" id="svg_3130"/>
    <path stroke="null" d="m270.80807,251.00621l-67.48921,33.90011a46.65152,46.65152 0 0 1 -18.03859,4.35414l0,23.63677a51.40998,51.40998 0 0 0 15.86152,-3.42111l0.31101,0l1.86606,-0.93303l53.18274,-26.74687l14.30647,-7.15323l0,0c0.31101,-0.31101 0.62202,-0.31101 1.24404,-0.62202a0.31101,0.31101 0 0 0 0.31101,-0.31101a1.08854,1.08854 0 0 0 0.62202,-0.31101a0.31101,0.31101 0 0 0 0.31101,-0.31101a1.08854,1.08854 0 0 0 0.62202,-0.31101a0.31101,0.31101 0 0 0 0.31101,-0.31101l0.62202,-0.62202l0.31101,-0.31101l0.62202,-0.62202l0,0l0.62202,-0.62202l0,0l0.93303,-0.93303l0,0c0.31101,-0.31101 0.31101,-0.62202 0.62202,-0.93303l0,0c0.31101,-0.31101 0.31101,-0.62202 0.62202,-0.93303l0,0a7.21544,7.21544 0 0 0 0.93303,-4.97616l0,-22.39273l0,0c0.31101,4.04313 -2.79909,8.08626 -8.70828,10.88536z" fill="#246e91" id="svg_3131"/>
    <path stroke="null" d="m270.80807,251.00621l-67.48921,33.90011a46.65152,46.65152 0 0 1 -18.03859,4.35414l0,23.63677a51.40998,51.40998 0 0 0 15.86152,-3.42111l0.31101,0l1.86606,-0.93303l53.18274,-26.74687l14.30647,-7.15323l0,0c0.31101,-0.31101 0.62202,-0.31101 1.24404,-0.62202a0.31101,0.31101 0 0 0 0.31101,-0.31101a1.08854,1.08854 0 0 0 0.62202,-0.31101a0.31101,0.31101 0 0 0 0.31101,-0.31101a1.08854,1.08854 0 0 0 0.62202,-0.31101a0.31101,0.31101 0 0 0 0.31101,-0.31101l0.62202,-0.62202l0.31101,-0.31101l0.62202,-0.62202l0,0l0.62202,-0.62202l0,0l0.93303,-0.93303l0,0c0.31101,-0.31101 0.31101,-0.62202 0.62202,-0.93303l0,0c0.31101,-0.31101 0.31101,-0.62202 0.62202,-0.93303l0,0a7.21544,7.21544 0 0 0 0.93303,-4.97616l0,-22.39273l0,0c0.31101,4.04313 -2.79909,8.08626 -8.70828,10.88536z" fill="#1a5273" opacity="0.78" id="svg_3132"/>
    <path stroke="null" d="m199.89775,228.61347a6.2202,6.2202 0 0 0 4.66515,0a1.30624,1.30624 0 0 0 0,-2.48808a6.2202,6.2202 0 0 0 -4.66515,0a1.30624,1.30624 0 0 0 0,2.48808z" fill="#33879e" id="svg_3133"/>
    <path stroke="null" d="m185.28028,221.46024a6.2202,6.2202 0 0 0 4.66515,0a1.30624,1.30624 0 0 0 0,-2.48808a6.2202,6.2202 0 0 0 -4.66515,0c-1.24404,0.62202 -1.24404,1.55505 0,2.48808z" fill="#33879e" id="svg_3134"/>
    <path stroke="null" d="m214.82624,236.07772a6.2202,6.2202 0 0 0 4.66515,0a1.30624,1.30624 0 0 0 0,-2.48808a6.2202,6.2202 0 0 0 -4.66515,0c-1.24404,0.93303 -1.24404,1.86606 0,2.48808z" fill="#33879e" id="svg_3135"/>
    <path stroke="null" d="m91.0442,251.00621l67.48921,33.90011a52.87173,52.87173 0 0 0 26.74687,4.35414a46.65152,46.65152 0 0 0 18.03859,-4.35414l67.48921,-33.90011c5.90919,-3.1101 9.01929,-6.84222 9.3303,-10.88536l0,0c0.31101,-4.04313 -2.79909,-8.39727 -9.3303,-11.50738l-67.48921,-33.90011a55.98183,55.98183 0 0 0 -44.78546,0l-67.48921,33.90011c-5.59818,2.79909 -8.70828,6.53121 -9.01929,10.26334l0,0.93303c-0.31101,4.04313 2.79909,8.08626 9.01929,11.19637zm131.86831,-18.97162c3.1101,1.55505 3.1101,4.04313 0,5.90919l-43.23041,21.4597a14.77298,14.77298 0 0 1 -11.50738,0c-3.1101,-1.55505 -3.1101,-4.04313 0,-5.90919l43.23041,-21.4597a14.77298,14.77298 0 0 1 11.50738,0zm-14.92849,-7.46424c3.1101,1.55505 3.1101,4.04313 0,5.90919l-43.23041,21.4597a14.77298,14.77298 0 0 1 -11.50738,0c-3.1101,-1.55505 -3.1101,-4.04313 0,-5.90919l43.23041,-21.4597a14.77298,14.77298 0 0 1 11.50738,0zm-69.35527,14.30647l43.23041,-21.4597a14.77298,14.77298 0 0 1 11.50738,0c3.1101,1.55505 3.1101,4.04313 0,5.90919l-43.23041,21.4597a14.77298,14.77298 0 0 1 -11.50738,0c-3.1101,-1.86606 -3.1101,-4.35414 0,-5.90919z" fill="#33879e" id="svg_3136"/>
    <path stroke="null" d="m138.62875,244.786a14.77298,14.77298 0 0 0 11.50738,0l43.23041,-21.4597c3.1101,-1.55505 3.1101,-4.04313 0,-5.90919a14.77298,14.77298 0 0 0 -11.50738,0l-43.23041,21.4597c-3.1101,1.55505 -3.1101,4.04313 0,5.90919zm46.65152,-25.81384a6.2202,6.2202 0 0 1 4.66515,0a1.30624,1.30624 0 0 1 0,2.48808a6.2202,6.2202 0 0 1 -4.66515,0c-1.24404,-0.93303 -1.24404,-1.86606 0,-2.48808z" fill="#fff" id="svg_3137"/>
    <path stroke="null" d="m153.24623,251.93924a14.77298,14.77298 0 0 0 11.50738,0l43.23041,-21.4597c3.1101,-1.55505 3.1101,-4.04313 0,-5.90919a14.77298,14.77298 0 0 0 -11.50738,0l-43.23041,21.4597c-3.1101,1.86606 -3.1101,4.35414 0,5.90919zm46.65152,-25.81384a6.2202,6.2202 0 0 1 4.66515,0a1.30624,1.30624 0 0 1 0,2.48808a6.2202,6.2202 0 0 1 -4.66515,0a1.30624,1.30624 0 0 1 0,-2.48808z" fill="#fff" id="svg_3138"/>
    <path stroke="null" d="m168.17472,259.40348a14.77298,14.77298 0 0 0 11.50738,0l43.23041,-21.4597c3.1101,-1.55505 3.1101,-4.04313 0,-5.90919a14.77298,14.77298 0 0 0 -11.50738,0l-43.23041,21.4597c-3.1101,1.86606 -3.1101,4.35414 0,5.90919zm46.65152,-25.50283a6.2202,6.2202 0 0 1 4.66515,0a1.30624,1.30624 0 0 1 0,2.48808a6.2202,6.2202 0 0 1 -4.66515,0a1.30624,1.30624 0 0 1 0,-2.48808z" fill="#fff" id="svg_3139"/>
   </g>
   <g stroke="null" id="hasnfa">
    <path stroke="null" d="m174.60216,113.09616a31.50533,31.50533 0 0 0 2.79909,-12.1294a5.28717,5.28717 0 0 1 -2.17707,-0.31101a37.32122,37.32122 0 0 1 0,5.90919a42.32848,42.32848 0 0 1 -0.62202,6.53121z" fill="none" id="svg_3699"/>
    <path stroke="null" d="m179.57832,49.9611l-0.93303,3.73212c0,0.31101 0,0.31101 -0.31101,0.62202c0.31101,-0.31101 0.62202,-0.31101 0.93303,-0.62202c0,-1.24404 0.31101,-2.48808 0.31101,-3.73212z" fill="none" id="svg_3700"/>
    <path stroke="null" d="m260.12995,216.97356l-1.55505,0l-51.9387,17.72758c-0.31101,0.93303 -0.93303,4.35414 -2.17707,4.97616l8.70828,0.93303l-61.269,18.3496l-0.31101,0.93303a13.21793,13.21793 0 0 1 -2.17707,4.35414l116.00679,-23.63677s81.17365,-30.16799 -5.28717,-23.63677z" fill="#7fcadb" opacity="0.51" id="svg_3701"/>
    <path stroke="null" d="m151.89841,169.389c0.93303,-12.44041 0.93303,-44.78546 -1.86606,-50.07264c-1.24404,-2.17707 -3.42111,-3.42111 -5.59818,0c-5.28717,8.39727 2.48808,43.23041 4.04313,49.45062c0,-0.31101 3.42111,1.55505 3.42111,0.62202z" fill="#fff" id="svg_3702"/>
    <path stroke="null" d="m207.88024,61.15746a19.25153,19.25153 0 0 1 -2.48808,7.46424c4.66515,6.53121 10.57435,13.37344 15.86152,20.21566c5.90919,7.46424 7.15323,-0.62202 7.15323,-0.62202c-2.79909,-10.26334 -14.30647,-37.01021 -22.39273,-39.49829a13.37344,13.37344 0 0 0 -4.97616,0c4.66515,1.86606 6.84222,6.84222 6.84222,12.44041z" fill="#e1feff" id="svg_3703"/>
    <path stroke="null" d="m150.65437,114.96222c2.17707,-4.66515 6.84222,-13.99546 10.88536,-23.32576a13.46674,13.46674 0 0 0 3.73212,1.55505c0,0.62202 -0.31101,0.93303 -0.31101,1.55505c0,2.79909 3.1101,4.66515 7.46424,5.59818c0,2.17707 -0.31101,4.97616 -0.31101,8.08626s-0.31101,5.90919 -0.31101,7.77525c0,3.73212 8.70828,1.24404 14.30647,-0.93303c7.15323,-3.1101 8.39727,-6.2202 8.70828,-7.46424c-0.62202,0 -0.93303,-0.31101 -1.24404,-0.31101c-2.17707,-1.24404 -3.1101,-4.35414 -2.79909,-8.39727a10.91646,10.91646 0 0 0 2.48808,-1.55505c8.39727,-5.90919 10.88536,-20.21566 10.88536,-25.81384l0,0a28.76844,28.76844 0 0 0 1.55505,-3.1101a19.25153,19.25153 0 0 0 2.48808,-7.46424c0,-5.59818 -2.17707,-10.57435 -6.84222,-12.44041a15.55051,15.55051 0 0 0 -3.73212,-0.62202l2.17707,-10.26334c0.31101,-0.93303 0.31101,-2.17707 0.62202,-3.73212a10.23223,10.23223 0 0 1 -1.86606,1.86606a25.81384,25.81384 0 0 1 -14.92849,3.1101c-3.1101,-0.31101 -5.28717,-0.62202 -6.84222,-0.93303a3.85653,3.85653 0 0 1 -3.73212,3.1101l2.79909,6.2202l1.24404,0.62202c-0.62202,1.86606 -1.55505,4.04313 -2.17707,6.53121c-0.31101,0.62202 -0.31101,1.55505 -0.62202,2.17707c-3.1101,1.55505 -6.2202,3.42111 -8.70828,4.97616a8.14847,8.14847 0 0 0 -9.95233,3.42111c-5.59818,9.01929 -7.46424,28.61294 -9.01929,44.78546c-1.55505,9.95233 4.04313,4.97616 4.04313,4.97616zm45.40748,-72.15436l-0.62202,3.1101a14.89739,14.89739 0 0 1 -8.08626,2.79909l-0.62202,-2.79909a17.44767,17.44767 0 0 0 9.3303,-3.1101zm-4.66515,28.92395c4.97616,-2.79909 9.3303,0.31101 9.3303,6.53121a19.22043,19.22043 0 0 1 -9.3303,16.17253c-4.97616,2.79909 -9.3303,-0.31101 -9.3303,-6.53121a20.43337,20.43337 0 0 1 9.3303,-16.17253zm-12.75142,-18.03859c0.31101,-1.24404 0.62202,-2.79909 0.93303,-3.73212a19.12713,19.12713 0 0 1 -0.31101,4.04313c-0.31101,0.31101 -0.62202,0.31101 -0.93303,0.62202a1.15074,1.15074 0 0 0 0.31101,-0.93303zm-3.42111,46.96254a5.28717,5.28717 0 0 1 2.17707,0.31101a30.23019,30.23019 0 0 1 -2.79909,12.1294a38.81407,38.81407 0 0 0 0.62202,-6.53121l0,-5.90919zm-19.59364,-31.72304c1.86606,-2.79909 4.35414,-3.73212 5.90919,-2.17707a7.12213,7.12213 0 0 1 -0.62202,8.08626c-1.86606,2.79909 -4.35414,3.73212 -5.90919,2.17707a7.74415,7.74415 0 0 1 0.62202,-8.08626z" fill="#fff" id="svg_3704"/>
    <path stroke="null" d="m193.26277,107.18697c0,-1.86606 -0.31101,-5.28717 -0.31101,-9.3303l0,-0.31101a17.35437,17.35437 0 0 1 -2.48808,1.55505c-0.31101,3.73212 0.31101,6.84222 2.79909,8.08626z" fill="#c2dfff" id="svg_3705"/>
    <path stroke="null" d="m197.3059,125.22556l-9.64132,13.99546c-0.31101,0.31101 -0.62202,0.31101 -0.93303,0.62202s-0.31101,0.93303 -0.62202,1.24404l1.86606,8.39727c6.53121,23.63677 10.26334,27.36889 10.26334,27.36889s7.77525,9.3303 9.95233,-5.28717c2.17707,-16.48354 -5.90919,-56.29284 -5.90919,-56.29284a5.19387,5.19387 0 0 0 -4.66515,1.24404a42.20408,42.20408 0 0 1 -0.31101,8.70828z" fill="#e1feff" id="svg_3706"/>
    <path stroke="null" d="m185.79852,114.96222c-5.59818,2.48808 -14.30647,4.97616 -14.30647,0.93303l0,0c0,-1.55505 -4.66515,4.97616 -4.66515,7.15323c2.48808,1.86606 14.92849,4.35414 22.70374,-0.31101s7.77525,-9.01929 7.77525,-9.64132a7.58865,7.58865 0 0 0 -1.24404,-4.04313c-1.24404,-2.17707 -1.24404,-2.48808 -1.55505,-1.55505s-1.55505,4.66515 -8.70828,7.46424z" fill="#002866" id="svg_3707"/>
    <path stroke="null" d="m189.53064,122.73748c-7.77525,4.66515 -20.21566,2.17707 -22.70374,0.31101c-0.93303,-0.62202 -2.17707,3.73212 -2.79909,6.2202c9.3303,-5.90919 14.30647,8.39727 19.28263,11.50738a3.94983,3.94983 0 0 1 -1.86606,0.31101a10.48104,10.48104 0 0 0 5.28717,-1.55505c0.31101,-0.31101 0.62202,-0.31101 0.93303,-0.62202l9.64132,-13.99546a27.18229,27.18229 0 0 0 0,-8.70828c0,-1.24404 -0.31101,-2.17707 -0.31101,-3.1101l0,0c0.31101,0.62202 0,4.97616 -7.46424,9.64132z" fill="#fff" id="svg_3708"/>
    <path stroke="null" d="m164.02781,129.5797z" opacity="0.43" fill="url(#linear-gradient-1072)" id="svg_3709"/>
    <path stroke="null" d="m178.64529,141.39809l0,0a8.45948,8.45948 0 0 0 2.79909,0l-2.79909,0z" opacity="0.43" fill="url(#linear-gradient-1073)" id="svg_3710"/>
    <path stroke="null" d="m164.02781,129.5797l0,0l0,0.62202l0,0l0,0.31101l0,0c6.84222,-2.17707 10.88536,6.53121 14.92849,10.88536l2.79909,0c0.62202,0 1.24404,-0.31101 1.86606,-0.31101c-5.28717,-3.42111 -9.95233,-17.72758 -19.59364,-11.50738z" fill="#fff" id="svg_3711"/>
    <path stroke="null" d="m164.02781,129.5797l0,0l0,0.62202l0,0l0,0.31101l0,0c6.84222,-2.17707 10.88536,6.53121 14.92849,10.88536l2.79909,0c0.62202,0 1.24404,-0.31101 1.86606,-0.31101c-5.28717,-3.42111 -9.95233,-17.72758 -19.59364,-11.50738z" opacity="0.43" fill="url(#linear-gradient-1074)" id="svg_3712"/>
    <path stroke="null" d="m164.02781,130.51273l0,0a12.87582,12.87582 0 0 0 -4.97616,3.1101s-7.77525,46.0295 -3.42111,59.40294c3.73212,11.81839 13.06243,-4.35414 13.06243,-4.35414s4.35414,-6.84222 11.19637,-35.76617c2.48808,-10.88536 1.24404,-9.64132 1.24404,-9.64132a5.81589,5.81589 0 0 1 -2.17707,-1.86606l-0.31101,-0.31101c-3.73212,-4.04313 -8.08626,-12.44041 -14.61748,-10.57435zm3.73212,13.37344c-1.24404,4.97616 -3.1101,11.19637 -7.15323,10.26334c-2.17707,-0.62202 -1.86606,-7.15323 -0.93303,-12.1294s2.79909,-6.53121 5.28717,-5.90919s4.04313,2.79909 2.79909,7.77525z" fill="#fff" id="svg_3713"/>
    <path stroke="null" d="m164.64983,136.11091c-2.17707,-0.62202 -4.04313,0.93303 -5.28717,5.90919s-1.55505,11.81839 0.93303,12.1294c4.04313,0.93303 5.90919,-5.28717 7.15323,-10.26334s0.31101,-6.84222 -2.79909,-7.77525z" fill="#002b69" id="svg_3714"/>
    <path stroke="null" d="m151.89841,258.95993l13.06243,-42.29738c1.86606,-6.2202 1.55505,-11.50738 -1.24404,-13.68445s-8.39727,-6.53121 -10.57435,1.86606c-4.35414,15.86152 -5.59818,56.60385 -5.59818,56.60385s0.62202,4.66515 2.17707,3.1101a13.21793,13.21793 0 0 0 2.17707,-4.35414l0,-1.24404z" fill="#fff" id="svg_3715"/>
    <path stroke="null" d="m206.6362,235.01215l0,0c0,-0.31101 1.24404,-34.83314 -0.93303,-47.27355c-1.24404,-6.53121 -4.66515,-3.1101 -7.46424,1.86606a21.77071,21.77071 0 0 0 -3.1101,15.86152l7.77525,32.03405c0.62202,2.17707 1.24404,2.79909 1.86606,2.48808a23.57457,23.57457 0 0 0 1.86606,-4.97616z" fill="#e1feff" id="svg_3716"/>
    <path stroke="null" d="m191.3967,94.43555a20.43337,20.43337 0 0 0 9.3303,-16.17253c0,-6.2202 -4.04313,-9.3303 -9.3303,-6.53121a20.43337,20.43337 0 0 0 -9.3303,16.17253c0,6.2202 4.35414,9.3303 9.3303,6.53121z" fill="#002b69" id="svg_3717"/>
    <path stroke="null" d="m172.73609,24.76927a11.41407,11.41407 0 0 1 3.73212,6.53121a34.95754,34.95754 0 0 0 9.95233,1.24404a39.18728,39.18728 0 0 0 11.50738,-3.42111a4.44745,4.44745 0 0 0 1.86606,-3.42111a33.558,33.558 0 0 0 -1.86606,-10.26334a20.24676,20.24676 0 0 0 -22.39273,-5.28717a12.96912,12.96912 0 0 0 -8.39727,13.37344l0,2.79909a3.54552,3.54552 0 0 1 5.59818,-1.55505z" fill="#fff" id="svg_3718"/>
    <path stroke="null" d="m195.43984,45.91796l0.62202,-3.1101a17.44767,17.44767 0 0 1 -9.3303,3.1101l0.62202,2.79909a22.85925,22.85925 0 0 0 8.08626,-2.79909z" fill="#002b69" id="svg_3719"/>
    <path stroke="null" d="m175.8462,38.45372c1.55505,0.31101 3.73212,0.62202 6.84222,0.93303a25.81384,25.81384 0 0 0 14.92849,-3.1101a9.57911,9.57911 0 0 0 1.86606,-1.86606a0.96413,0.96413 0 0 0 0.31101,-0.62202a62.45084,62.45084 0 0 0 -0.31101,-7.46424l0,0a4.44745,4.44745 0 0 1 -1.86606,3.42111a43.04381,43.04381 0 0 1 -11.50738,3.42111a51.25448,51.25448 0 0 1 -9.95233,-1.24404a10.48104,10.48104 0 0 0 -3.73212,-6.53121a3.48331,3.48331 0 0 0 -5.59818,1.55505c0,0.31101 -0.31101,0.62202 -0.31101,0.93303a2.42588,2.42588 0 0 1 3.42111,-0.31101a10.63655,10.63655 0 0 1 2.79909,8.39727c-0.62202,3.1101 -2.48808,4.35414 -4.66515,2.79909l-0.31101,-0.31101a8.39727,8.39727 0 0 0 2.17707,2.48808a3.35891,3.35891 0 0 0 2.17707,0.93303a5.13167,5.13167 0 0 0 3.73212,-3.42111z" fill="#002b69" id="svg_3720"/>
    <path stroke="null" d="m172.73609,35.34362a8.86379,8.86379 0 0 0 -2.79909,-8.39727a2.42588,2.42588 0 0 0 -3.42111,0.31101a3.54552,3.54552 0 0 0 -0.93303,2.48808a10.57435,10.57435 0 0 0 2.48808,8.08626l0.31101,0.31101c1.86606,1.55505 4.04313,0.31101 4.35414,-2.79909z" fill="#fff" id="svg_3721"/>
    <path stroke="null" d="m160.91771,74.84191a7.74415,7.74415 0 0 0 0.62202,-8.08626c-1.55505,-1.55505 -4.04313,-0.62202 -5.90919,2.17707a7.74415,7.74415 0 0 0 -0.62202,8.08626c1.55505,1.55505 4.04313,0.62202 5.90919,-2.17707z" fill="#002b69" id="svg_3722"/>
    <g stroke="null" id="hand1">
     <path stroke="null" d="m249.2446,49.33908c-3.73212,6.53121 -24.25879,35.14415 -19.59364,39.18728c1.86606,1.55505 5.90919,-0.62202 8.08626,-2.79909c5.59818,-5.59818 14.30647,-28.92395 16.79455,-38.87627c2.17707,-6.2202 -2.79909,-1.55505 -5.28717,2.48808z" fill="#e1feff" id="svg_3723"/>
    </g>
   </g>
  </g>
 </g>
</svg>