<?xml version="1.0" encoding="utf-8"?>
<!-- Generator: Adobe Illustrator 17.0.0, SVG Export Plug-In . SVG Version: 6.00 Build 0)  -->
<!DOCTYPE svg PUBLIC "-//W3C//DTD SVG 1.1//EN" "http://www.w3.org/Graphics/SVG/1.1/DTD/svg11.dtd">
<svg version="1.1" id="Layer_1" xmlns="http://www.w3.org/2000/svg" xmlns:xlink="http://www.w3.org/1999/xlink" x="0px" y="0px"
	 width="800px" height="600px" viewBox="0 0 800 600" enable-background="new 0 0 800 600" xml:space="preserve">
<path fill-rule="evenodd" clip-rule="evenodd" d="M411.14,303.682c-3.449-3.099-11.873-5.988-14.559-5.06
	c-5.268-0.413-38.727-0.862-55.755,1.06c-5.899-0.026-13.024,3.28-16.363,6.772c-18.888,4.177-58.946,14.554-68.02,22.631
	c-1.864,5.422-4.252,20.975-3.273,27.502c-8.175,26.52-16.406,81.259-11.696,102.894c-5.298,13.833-2.559,33.526-1.324,35.616
	c1.912,3.238,12.766,6.713,19.28,7.506c1.501,14.229-0.291,33.196-0.826,48.398h162.037c0,0,0.747-42.271,0.613-44.937
	c3.733-0.401,9.952-5.329,12.439-8.883c2.487-3.554,4.975-34.117,7.108-54.37c2.641-25.1,11.727-68.941,19.899-108.03
	C458.223,327.034,425.702,303.063,411.14,303.682z"/>
<path fill-rule="evenodd" clip-rule="evenodd" fill="#FFFFFF" d="M365.71,301.367c-3.692,3.324-14.41,18.87-19.196,28.919
	c-0.74-8.121-1.231-19.579-1.231-27.934C351.269,300.436,363.865,300.505,365.71,301.367z"/>
<path fill-rule="evenodd" clip-rule="evenodd" fill="#FFFFFF" d="M391.675,301.614c-0.795,9.033-2.925,22.225-4.921,31.257
	l-17.598-30.889C371.552,299.613,391.675,301.614,391.675,301.614z"/>
<path fill-rule="evenodd" clip-rule="evenodd" fill="#74A5C0" d="M341.846,302.238c1.726,33.536,3.236,69.932,6.959,103.578
	c-10.643-12.084-42.399-51.054-46.923-55.455c7.789-4.92,19.162-4.566,29.947-2.684c1.517-1.886-5.475-4.862-14.34-5.434
	c1.996-12.081,6.041-23.811,9.797-33.397C331.704,303.151,341.846,302.238,341.846,302.238z"/>
<path fill-rule="evenodd" clip-rule="evenodd" fill="#74A5C0" d="M407.332,306.117l-9.312,37.939l0,0
	c-2.258,0-4.386,1.012-5.85,2.596c7.137,0.737,21.411,2.46,26.334,6.548c-1.848,4.033-54.515,85.498-58.328,86.361
	c18.088-34.948,32.363-115.431,36.544-137.208C399.675,301.86,405.203,303.748,407.332,306.117L407.332,306.117L407.332,306.117z"/>
<path fill-rule="evenodd" clip-rule="evenodd" fill="#3081B6" d="M456.08,335.491c-3.908,27.362-15.635,79.246-18.834,99.503
	c-2.797,17.722-2.487,30.203-3.908,40.154c-1.512,10.582-1.423,17.058-3.91,19.901c-2.488,2.844-26.946,12.705-36.913,9.461
	c3.806-6.461,1.998-13.46-0.933-19.323c2.106-1.176,1.927-5.93-2.108-12.385c4.639-6.949,29.403-17.859,36.283-10.016
	c2.05-3.579-2.456-6.987-7.124-7.894c13.301-36.016,13.74-80.864,19.324-88.484c-3.199,0.356-5.834,6.593-6.751,11.726
	c-1.778,9.95-1.646,40.111-16.491,75.628c-12.649,1.843-23.666,10.017-27.752,15.902c-5.469-6.275-16.375-19.881-27.281-18.413
	c-0.492-1.353-0.492-4.184-0.492-6.275c15.963-15.922,61.282-86.141,66.362-94.825c-5.942-3.623-17.531-5.745-23.784-6.083
	c2.338-10.336,5.784-24.981,9.352-37.163C426.873,309.363,457.275,331.651,456.08,335.491z"/>
<path fill-rule="evenodd" clip-rule="evenodd" fill="#C1001F" d="M374.693,319.705c-2.214,4.426-8.49,10.951-10.951,11.688
	c-4.306-2.706-8.616-9.475-8.861-10.704c1.723-3.692,10.337-15.136,12.061-15.75C369.156,307.644,374.569,317.242,374.693,319.705z"
	/>
<path fill-rule="evenodd" clip-rule="evenodd" fill="#3081B6" d="M313.758,342.305c-3.719,0.516-13.563,2.923-17.591,6.333
	c4.843,6.993,45.841,53.659,54.287,70.493c1.353,7.877,3.568,20.305,3.673,28.12c-3.457-2.484-8.859-4.308-13.61-1.528
	c-4.751,2.779-7.532,8.247-14.189,12.481c-11.545-10.151-31.542-9.253-45.976-8.986c2.931-27.185,1.158-83.434-2.574-85.034
	c-1.066,6.129,2.399,55.97-1.066,85.021c-10.527-4.29-23.798,4.946-19.136,6.829c4.934-3.586,13.632-6.634,14.438-4.213
	c-5.559,1.971-16.14,7.531-13.654,10.224c9.351-4.578,16.541-8.549,21.008-9.597c10.579-0.988,38.555,0,43.845,7.531
	c-3.991,1.469-11.567,4.574-17.573,8.069c-7.451,4.337-8.61,18.381-8.61,22.684c0,4.305,3.677,5.739,3.946,3.139
	c0.269-2.601-0.089-5.737,1.255-8.427c1.794,1.343,5.031,3.324,8.417,3.91c-1.177,4.712-2.06,8.098-4.267,10.744
	c-36.794,2.063-60.344-5.442-61.814-7.061c-1.472-1.62-4.161-20.381,0.095-32.575c-3.662-19.254,3.267-73.892,12.595-104.274
	c-0.8-8.529-0.283-18.114,2.133-25.853c7.539-6.814,61.394-20.769,64.284-20.354C319.438,317.314,315.41,333.528,313.758,342.305z"
	/>
<path fill-rule="evenodd" clip-rule="evenodd" fill="#FFFFFF" d="M349.837,371.14c-0.495-8.981-2.094-25.597-1.97-35.686
	c0.984-4.187,5.061-10.981,5.538-11.567c2.091,4.429,5.642,8.858,7.373,10.458C358.325,339.514,351.83,359.961,349.837,371.14z"/>
<path fill-rule="evenodd" clip-rule="evenodd" fill="#FFFFFF" d="M385.646,336.315c-1.109,12.921-6.03,36.302-9.477,47.007
	c-1.353-11.567-5.783-37.532-9.968-49.592c2.093-1.599,9.232-8.861,10.216-11.567C380.601,326.962,384.537,333.361,385.646,336.315z
	"/>
<path fill-rule="evenodd" clip-rule="evenodd" fill="#E3E6E6" d="M345.283,302.352c0,4.649,0.153,10.26,0.415,15.723
	c2.366,0.315,4.733,0.595,7.077,1.025c4.873-7.842,10.472-15.512,12.935-17.733C363.865,300.505,351.269,300.436,345.283,302.352z"
	/>
<path fill-rule="evenodd" clip-rule="evenodd" fill="#E3E6E6" d="M389.622,317.499c0.9-5.641,1.649-11.299,2.052-15.885
	c0,0-20.123-2.001-22.519,0.368l9.104,15.98C382.105,317.238,385.882,316.991,389.622,317.499z"/>
<path fill-rule="evenodd" clip-rule="evenodd" fill="#E3E6E6" d="M356.799,329.582c-1.229-1.729-2.457-3.713-3.394-5.696
	c-0.434,0.533-3.846,6.212-5.197,10.383C350.882,332.424,353.788,330.765,356.799,329.582z"/>
<path fill-rule="evenodd" clip-rule="evenodd" fill="#E3E6E6" d="M349.529,366.36c0.124,1.743,0.229,3.362,0.308,4.779
	c0.216-1.222,0.492-2.557,0.806-3.968C350.269,366.903,349.893,366.639,349.529,366.36z"/>
<path fill-rule="evenodd" clip-rule="evenodd" fill="#E3E6E6" d="M375.357,330.677c3.431,2.311,6.918,5.354,9.961,8.844
	c0.129-1.123,0.241-2.2,0.328-3.207c-1.109-2.954-5.045-9.353-9.228-14.152c-0.517,1.418-2.72,4.081-5.001,6.528
	C372.754,329.161,374.071,329.811,375.357,330.677z"/>
<path fill-rule="evenodd" clip-rule="evenodd" fill="#E3E6E6" d="M375.153,375.799c0.426,2.866,0.772,5.432,1.016,7.523
	c0.658-2.046,1.371-4.572,2.101-7.381C377.234,375.93,376.192,375.877,375.153,375.799z"/>
<path fill-rule="evenodd" clip-rule="evenodd" fill="#C1001F" d="M373.833,387.505c-0.86,12.797-12.848,44.744-15.627,50.208
	c-0.812-11.272-6.03-54.266-6.399-59.559c1.475-15.259,10.211-39.625,11.567-41.225C366.45,343.327,372.974,379.999,373.833,387.505
	z"/>
<path fill-rule="evenodd" clip-rule="evenodd" fill="#9F001F" d="M359.044,321.716c2.465-1.312,5.093-1.973,7.91-1.718
	c2.274,0.208,4.496,0.803,6.527,1.757c0.471-0.711,0.889-1.404,1.213-2.05c-0.124-2.463-5.538-12.061-7.752-14.767
	c-1.723,0.614-10.337,12.058-12.061,15.75c0.081,0.403,0.601,1.401,1.408,2.653C357.195,322.779,358.105,322.218,359.044,321.716z"
	/>
<path fill-rule="evenodd" clip-rule="evenodd" fill="#9F001F" d="M366.369,347.27c-1.126-4.826-2.182-8.649-2.995-10.34
	c-0.556,0.655-2.352,5.144-4.381,11.258C361.42,347.452,363.917,347.043,366.369,347.27z"/>
<path fill-rule="evenodd" clip-rule="evenodd" fill="#9F001F" d="M358.594,398.365c-1.384,1.099-2.812,2.017-4.268,2.786
	c0.288,2.543,0.585,5.162,0.881,7.78c1.713-1.206,3.316-2.579,4.76-4.166c4.366-4.804,7.63-10.81,10.278-16.708
	c0.986-2.195,1.895-4.444,2.684-6.734c-0.089-0.545-0.18-1.109-0.276-1.692C369.091,386.687,364.712,393.52,358.594,398.365z"/>
<path fill-rule="evenodd" clip-rule="evenodd" fill="#9F001F" d="M370.793,389.405c-2.99,6.305-6.485,12.989-11.71,17.755
	c-1.183,1.077-2.436,2.057-3.743,2.953c1.283,11.401,2.507,22.608,2.866,27.6c2.779-5.464,14.767-37.41,15.627-50.208
	c-0.104-0.915-0.294-2.271-0.552-3.943C372.529,385.551,371.693,387.505,370.793,389.405z"/>
<path fill-rule="evenodd" clip-rule="evenodd" fill="#F2D5A5" d="M367.238,455.676c5.11,2.332,17.394,13.538,22.403,23.529
	c1.33,3.163-1.154,4.985-4.023,4.536c-2.87-0.449-4.483-2.869-7.442-8.07c-2.959-5.202-12.734-17.485-14.078-14.528
	c6.816,8.52,16.23,22.955,16.677,26.452c0.449,3.498-4.212,2.872-8.248-0.179c-4.035-3.047-17.395-21.879-19.367-25.553
	c-7.584,8.355-17.127,22.954-30.576,24.567c-10.382,1.246-15.691-1.704-20.354-4.93c0.529-16.937,22.685-15.156,32.369-26.094
	c3.685-4.163,6.186-7.441,10.85-7.53c4.663-0.092,10.669,2.331,12.105,4.572C358.988,454.689,362.127,453.344,367.238,455.676z"/>
<path fill-rule="evenodd" clip-rule="evenodd" fill="#F2D5A5" d="M372.437,491.811c4.572,2.69,8.008,1.916,9.953,0.359
	c2.242-1.792,1.614-4.213,0.986-6.188c1.704,1.347,4.664,0.986,6.007,0.448c3.725,6.658,2.421,15.513-1.165,19.638
	c-3.587,4.124-10.029,1.005-15.961,2.151c-7.892,6.007-20.802,7.801-18.202,1.704c4.519-2.821,17.486-10.849,14.884-13.002
	c-2.511,1.793-13.09,8.069-15.78,9.952c-2.69,1.882-12.375,2.958-10.76-0.36c1.613-3.317,19.267-15.667,22.058-18.378
	c-2.423-4.753-22.506,14.345-25.735,16.766c-3.228,2.419-8.788-0.719-5.56-4.84c3.229-4.125,18.114-15.064,25.645-20.265
	c-1.728-1.695-3.945-1.168-5.738,0.179c-1.793,1.345-20.435,16.329-21.971,17.754c-2.51,2.333-7.531-1.792-4.571-5.738
	c2.252-3.004,9.415-6.008,16.945-13.272c3.611-3.482,6.906-7.531,9.326-11.026C355.489,471.635,367.866,489.121,372.437,491.811z"/>
<path fill-rule="evenodd" clip-rule="evenodd" fill="#3081B6" d="M323.839,498.536c2.331,2.78,4.664,3.316,6.097,2.51
	c-3.406,5.468,2.781,8.606,7.434,7.516c0.098,2.796,6.913,4.946,11.839,2.372c-0.803,9.372-0.32,34.657-0.32,34.994
	c-14.342,1.003-65.644-1.367-85.329,0.328c1.023-12.304,0.874-39.973,0.727-42.623c6.182,1.62,35.911,1.766,44.006,0.148
	c4.121-3.825,4.331-10.904,4.856-13.982c2.718,1.009,8.174,1.895,11.315,0.697C323.211,492.708,321.508,495.753,323.839,498.536z"/>
<path fill-rule="evenodd" clip-rule="evenodd" fill="#3081B6" d="M416.28,507.843c0.667,6.53,0.691,27.405-0.109,38.471
	c-15.212-1.568-63.016-0.386-63.016-0.386c0.265-8.467-0.075-21.958,0.721-30.089c7.532,1.974,17.127-3.854,19.457-5.201
	c2.332-1.344,13.271,2.69,17.849-2.932C396.514,511.971,413.082,508.507,416.28,507.843z"/>
<path fill-rule="evenodd" clip-rule="evenodd" fill="#0D6F9F" d="M405.82,332.522c0.387-3.487,0.826-6.934,1.172-10.375
	c-1.998,7.882-3.814,15.684-5.224,21.919c0.846,0.047,1.794,0.127,2.809,0.239C405.317,340.452,405.394,336.391,405.82,332.522z"/>
<path fill-rule="evenodd" clip-rule="evenodd" fill="#0D6F9F" d="M420.068,358.95c-5.09,7.988-12.934,20.035-21.468,32.715
	c7.809-9.932,16.147-19.615,24.45-29.155C422.165,361.259,421.21,359.971,420.068,358.95z"/>
<path fill-rule="evenodd" clip-rule="evenodd" fill="#0D6F9F" d="M422.967,419.277c-2.779,11.81-8.147,22.937-10.394,34.864
	c0.709-0.143,1.422-0.276,2.142-0.381c9.559-22.868,12.905-43.507,14.553-57.967C426.787,403.503,424.824,411.389,422.967,419.277z"
	/>
<path fill-rule="evenodd" clip-rule="evenodd" fill="#0D6F9F" d="M311.309,342.746c0.956-0.2,1.8-0.352,2.448-0.44
	c1.652-8.777,5.68-24.992,9.914-32.322c-0.51-0.074-2.624,0.303-5.788,1.01C313.862,321.124,311.936,331.832,311.309,342.746z"/>
<path fill-rule="evenodd" clip-rule="evenodd" fill="#0D6F9F" d="M298.474,362.217c6.742,1.907,11.951,9.144,16.377,14.025
	c7.002,7.72,12.996,16.17,18.803,24.807c6.086,9.053,13.476,18.403,18.557,28.556c-0.603-3.812-1.242-7.474-1.757-10.474
	c-6.693-13.341-33.814-45.398-47.199-61.618C301.527,358.918,299.986,360.531,298.474,362.217z"/>
<path fill-rule="evenodd" clip-rule="evenodd" fill="#0D6F9F" d="M283.625,449.154c1.477-11.074,2.979-22.173,3.139-33.342
	c0.155-10.713-0.224-24.043-5.936-33.885c1.345,19.222,1.443,49.49-0.476,67.293C281.413,449.2,282.508,449.177,283.625,449.154z"/>
<path fill-rule="evenodd" clip-rule="evenodd" fill="#0D6F9F" d="M337.369,508.562c-4.653,1.091-10.841-2.048-7.434-7.516
	c-1.433,0.806-3.766,0.27-6.097-2.51c-2.331-2.783-0.628-5.829,0.624-8.04c-3.141,1.198-8.596,0.312-11.315-0.697
	c-0.525,3.078-0.736,10.157-4.856,13.982c-8.095,1.618-37.823,1.472-44.006-0.148c0.04,0.706,0.079,3.2,0.097,6.696
	c14.831,3.528,30.264,3.607,45.498,3.585c2.241-4.515,5.091-8.735,5.896-13.812c0.089-0.578,0.526-0.78,0.969-0.731
	c0.588-0.608,1.854-0.405,1.782,0.651c-0.278,4.021,2.172,7.32,6.422,7.135c0.552-0.025,1.058,0.49,1.039,1.037
	c-0.144,4.268,3.886,6.255,7.569,5.04c0.679-0.223,1.275,0.363,1.316,1.004c0.437,6.622,9.275,4.092,14.054,1.826
	c0.068-1.973,0.159-3.731,0.28-5.13C344.283,513.508,337.468,511.358,337.369,508.562z"/>
<path fill-rule="evenodd" clip-rule="evenodd" fill="#0D6F9F" d="M370.798,516.093c6.878-2.032,14.556-0.095,20.792-4.174
	c1.03-0.672,1.966,0.767,1.27,1.578c7.642,2.46,16.14,4.681,23.82,2.51c-0.081-3.473-0.218-6.365-0.401-8.164
	c-3.198,0.664-19.765,4.128-25.098-0.136c-4.578,5.622-15.517,1.589-17.849,2.932c-2.331,1.346-11.925,7.175-19.457,5.201
	c-0.178,1.822-0.297,3.923-0.382,6.167C359.805,521.459,364.772,517.875,370.798,516.093z"/>
<path fill-rule="evenodd" clip-rule="evenodd" d="M409.684,135.224c0.439,7.547-6.816,18.358-11.207,22.272
	c1.207,8.295,0.987,26.283,0.987,27.775c4.327,2.211,44.569,8.944,57.613,11.686c10.441,2.194,37.013,7.967,49.59,11.677
	c3.135,0.926,4.739,1.427,7.208,1.427c5.428,0,1.643,10.364-2.741,11.163c-2.779,0.505-100.807-3.892-106.076-5.477
	c-0.396,6.21,9.153,9.778,7.026,16.216c-3.402,1.026-7.466,2.795-11.264,3.215c1.465,2.82,0.531,7.002,0.663,9.825
	c-4.664,2.231-10.587,2.992-15.089,1.781c-4.502,0.838-11.309,0.092-15.369-1.027c-2.965,0.281-8.455,0-11.421-1.211
	c-2.129,4.064,2.641,8.923,2.909,13.665c17.826,11.742,13.301,31.84,13.301,49.23c-2.657,4.514-7.58,9.033-13.569,9.823
	c-7.047,1.243-13.395-2.484-18.561-6.174c-5.17-3.692-13.041-14.7-16.489-23.751c-6.893-18.09-8.736-44.916-7.384-60.42
	c-2.092,0.369-6.379,1.599-7.309-1.223c1.859-9.486,2.438-21.067,2.438-29.986c-3.046,0.481-9.444,0.744-12.956-4.381
	c-3.067-4.478-3.026-10.137-0.524-13.735c2.502-3.599,7.405-4.466,11.393-3.787c-2.964-3.634-4.741-7.727-6.073-11.908
	c-0.93-4.402-5.788-22.015,3.324-22.202c7.466-14.727,27.888-34.95,51.713-32.62c8.562-4.38,21.335-2.794,32.059,3.357
	C404.596,116.583,409.245,127.674,409.684,135.224z"/>
<path fill-rule="evenodd" clip-rule="evenodd" fill="#FFFFFF" d="M400.128,121.709c-9.331-7.178-24.263-12.674-39.413-10.905
	c2.522,1.399,4.5,2.611,6.036,3.262c-17.234,0.373-33.814,8.855-54.249,27.398c7.979-15.018,26.856-32.077,49.198-31.964
	C376.414,102.603,400.55,114.464,400.128,121.709z"/>
<path fill-rule="evenodd" clip-rule="evenodd" fill="#FFFFFF" d="M399.36,123.48c-10.539-2.424-25.253-7.363-31.51-10.625
	C374.215,111.549,396.948,120.405,399.36,123.48z"/>
<path fill-rule="evenodd" clip-rule="evenodd" fill="#FFFFFF" d="M367.52,115.93c-9.332,2.33-35.819,16.369-48.857,27.773
	c-2.629-0.647,4.502-9.973,17.128-17.428C348.616,118.703,362.471,114.627,367.52,115.93z"/>
<path fill-rule="evenodd" clip-rule="evenodd" fill="#FFFFFF" d="M392.772,128.511c-5.599-3.635-20.575-8.747-25.361-8.294
	C371.915,115.185,392.772,125.25,392.772,128.511z"/>
<path fill-rule="evenodd" clip-rule="evenodd" fill="#FFFFFF" d="M362.797,120.029c-2.856,4.102-39.303,24.048-41.06,23.674
	C331.948,134.57,359.944,119.749,362.797,120.029z"/>
<path fill-rule="evenodd" clip-rule="evenodd" fill="#FFFFFF" d="M338.096,137.832c3.402-1.773,16.469-9.415,22.399-13.516
	C357.038,129.736,340.621,139.229,338.096,137.832z"/>
<path fill-rule="evenodd" clip-rule="evenodd" fill="#FFFFFF" d="M364.118,136.712c-2.526,0.375-10.979,2.424-13.973,3.734
	C350.394,138.018,363.571,135.126,364.118,136.712z"/>
<path fill-rule="evenodd" clip-rule="evenodd" fill="#B66249" d="M359.455,243.871c0,0-6.767-1.19-8.914-2.597
	c-1.359,4.27-0.473,20.496,0.522,27.927c0.828,6.164,2.918,12.148,4.592,18.126c2.411,8.618,5.52,18.397,12.955,23.657
	c7.446-5.148,2.675-16.429,4.145-24.206c1.063-10.839-4.124-19.645-12.368-27.213C358.658,254.372,359.852,249.066,359.455,243.871z
	"/>
<path fill-rule="evenodd" clip-rule="evenodd" fill="#F2D5A5" d="M511.898,212.859c-1.315,0.064-3.125-0.417-4.754-0.901
	c-9.292-2.75-39.205-10.105-51.814-12.379c-14.819-2.675-52.678-8.407-55.92-10.484c-6.528-4.184-12.424-9.809-17.212-16.358
	c-1.859-3.273,2.008-13.47,5.96-11.978c-0.551,1.491-2.635,5.684-2.525,8.666c0.112,2.983,8.345,11.092,10.211,12.117
	c0.878-6.616-0.55-23.486-0.55-23.486c-12.502-0.904-34.243-7.448-43.821,4.52c-0.664-0.341-0.133-1.357-0.398-1.92
	c7.584-12.872,31.103-5.434,44-5.21c0.932-3.612,1.759-9.133,0.77-13.516c-0.99-4.379-12.844-4.471-23.489-3.064
	c-10.214,1.351-31.51,8.007-42.708,15.741c-2.086,13.89,5.709,37.465,9.331,43.804c-1.647,1.677-11.304,2.941-16.798,0.746
	c0.951,8.18-2.09,52.124,7.14,82.202c7.349,23.945,23.817,32.842,29.736,32.517c5.919-0.327,9.078-2.162,10.226-2.787
	c-6.833-5.085-11.765-13.378-14.112-21.565c-1.714-5.976-6.44-27.166-7.955-37.371c-0.718-5.644,0.273-14.605,2.07-20.195
	c3.203-9.96,8.786-20.314,19.107-23.296c1.975-9.04,15.15-8.388,18.115-6.897c2.963,1.494,2.514,3.274,1.317,4.289
	c-6.039-2.609-11.196-2.143-14.055,0.651c-2.853,2.797-2.85,6.152,0.44,7.643c3.293,1.49,9.535-1.584,12.628-2.703
	c3.208-1.159,31.355,1.965,58.884,3.952c29.925,2.162,61.469,3.623,62.726,3.676C512.393,219.438,515.352,212.694,511.898,212.859z"
	/>
<path fill-rule="evenodd" clip-rule="evenodd" fill="#E6BD90" d="M331.337,157.242c3.39-2.867,7.947-4.781,11.948-6.649
	c7.895-3.68,16.353-6.693,25.017-7.885c10.235-1.407,20.152-0.219,27.95,4.974c0.086-1.97-0.003-3.955-0.409-5.753
	c-0.99-4.379-12.844-4.471-23.489-3.064c-10.214,1.351-31.51,8.007-42.708,15.741c-0.217,1.45-0.322,3.006-0.341,4.635
	C330.113,158.416,330.831,157.672,331.337,157.242z"/>
<path fill-rule="evenodd" clip-rule="evenodd" fill="#E6BD90" d="M339.707,205.205c-1.268-1.828-2.523-3.664-3.655-5.572
	c-3.719,0.886-9.887,1.117-13.873-0.475c0.131,1.123,0.185,2.941,0.206,5.283C327.654,206.582,334.137,206.878,339.707,205.205z"/>
<path fill-rule="evenodd" clip-rule="evenodd" fill="#E6BD90" d="M355.168,289.524c-0.663-2.313-1.777-6.905-2.982-12.255
	c0.27,13.696,2.236,28.055,11.98,35.853c2.717-0.684,4.358-1.62,5.114-2.033C362.448,306.004,357.515,297.711,355.168,289.524z"/>
<path fill-rule="evenodd" clip-rule="evenodd" fill="#E6BD90" d="M367.782,195.29c3.544-2.269,6.04-5.249,7.432-8.79
	c-6.359,3.822-14.498,5.161-21.925,5.17C357.431,195.294,362.834,198.459,367.782,195.29z"/>
<path fill-rule="evenodd" clip-rule="evenodd" fill="#E6BD90" d="M395.844,181.543c0.191-1.435,0.272-3.353,0.283-5.475
	c-3.983-1.706-7.642-3.599-10.491-7.122c-0.004,0.161-0.009,0.324-0.003,0.479C385.745,172.408,393.978,180.517,395.844,181.543z"/>
<path fill-rule="evenodd" clip-rule="evenodd" fill="#FFFFFF" d="M328.105,152.277c-1.536-2.05,16.142-13.141,19.982-11.184
	C342.598,143.142,332.277,149.201,328.105,152.277z"/>
<path fill-rule="evenodd" clip-rule="evenodd" fill="#FFFFFF" d="M324.594,153.023c0.878-2.796,7.792-8.017,14.708-10.811
	c-0.438-1.305-4.718,0-10.04,3.428C324.018,149.015,322.071,153.023,324.594,153.023z"/>
<path fill-rule="evenodd" clip-rule="evenodd" d="M382.669,150.787c-4.522-1.017-15.37-1.772-22.282,0.16
	c-0.663-3.328,12.304-3.029,16.794-2.397C382.043,149.233,383.337,150.11,382.669,150.787z"/>
<path fill-rule="evenodd" clip-rule="evenodd" fill="#FFFFFF" d="M316.365,171.94c-7.446-3.614-10.541-24.417-6.588-25.535
	C309.777,153.674,315.302,166.296,316.365,171.94z"/>
<path fill-rule="evenodd" clip-rule="evenodd" d="M370.26,174.688c4.939,2.516,2.526,7.549-1.209,8.294
	c-3.733,0.746-6.146-1.212-5.599-3.354c-2.307,1.396-7.247,4.94-9.731,4.344c1.498-2.761,14.649-9.477,14.782-12.64
	c0,0-5.268-4.099-9.879-3.915c-4.61,0.186-7.906,2.892-11.291,5.492c-1.885-1.113,2.396-6.05,8.985-7.636
	c5.228-1.338,12.072,1.719,14.604,4.287c1.535-1.303,5.049-3.447,5.925-1.676C375.53,168.91,371.796,171.706,370.26,174.688z"/>
<path fill-rule="evenodd" clip-rule="evenodd" fill="#F2D5A5" d="M317.409,191.166c-1.811,1.374-4.265,2.253-6.531,1.84
	c-7.138-1.307-9.332-6.803-8.014-11.555c1.315-4.755,6.934-6.136,11.819-4.064C316.119,182.873,316.98,187.264,317.409,191.166z"/>
<path fill-rule="evenodd" clip-rule="evenodd" fill="#F2D5A5" d="M383.212,217.05c4.06-2.145,7.439-2.701,10.54-2.702
	c0.329,4.848,2.306,14.447,7.069,14.506c-1.731-4.4-3.592-9.665-3.665-14.32c0,0,2.964,0.095,4.611,0.655
	c0.219,7.639,6.46,9.915,6.794,14.553c-12.598,5.679-36.956,3.683-54.114,0.636c0.665-5.335,7.356-16.123,13.833-17.521
	C370.268,218.641,379.15,219.195,383.212,217.05z"/>
<path fill-rule="evenodd" clip-rule="evenodd" fill="#E6BD90" d="M401.929,216.846c-0.083-0.526-0.146-1.071-0.162-1.657
	c-1.648-0.561-4.611-0.655-4.611-0.655c0.006,0.457,0.045,0.922,0.084,1.387C398.863,216.031,400.418,216.358,401.929,216.846z"/>
<path fill-rule="evenodd" clip-rule="evenodd" fill="#E6BD90" d="M378.877,221.181c5.408-0.427,9.346-4.29,14.536-5.105
	c0.17-0.029,0.334-0.035,0.501-0.057c-0.071-0.595-0.128-1.163-0.163-1.671c-3.101,0.002-6.48,0.557-10.54,2.702
	c-4.062,2.145-12.943,1.59-14.932-4.193c-0.859,0.184-1.72,0.544-2.571,1.024C367.69,218.986,373.508,221.607,378.877,221.181z"/>
<path fill-rule="evenodd" clip-rule="evenodd" fill="#FFFFFF" d="M386.61,236.995c-1.423,2.89-1.642,6.526-1.535,7.27
	c-5.49,2.052-12.72-0.394-12.72-0.394l0,0c-0.673-2.213,0.094-4.64,0.533-6.407c-3.072,0.091-2.853,4.564-3.292,5.869
	c-8.673-1.211-13.285-2.796-17.678-4.567c0.109-3.821,1.1-4.659,1.536-5.592C358.944,235.225,382.329,237.183,386.61,236.995z"/>
<path fill-rule="evenodd" clip-rule="evenodd" fill="#FFFFFF" d="M399.351,243.799c-2.746,1.211-9.005,2.238-11.859,0.839
	c-0.332-1.864,0.126-5.107,0.767-7.829c2.525,0.229,9.222-0.84,10.432-1.118C400.119,237.65,399.462,242.958,399.351,243.799z"/>
<path fill-rule="evenodd" clip-rule="evenodd" d="M397.921,257.591c0.11-2.142,0.267-3.614,0.66-6.243
	c-4.235-1.19-10.21-2.05-15.152-1.024c-3.73-1.306-10.321-2.985-14.69-3.294c-2.794-1.161-5.975-2.501-8.834-3.544
	c0.111-0.094,0.193-0.222,0.201-0.386c0.056-1.03-0.098-2.052-0.034-3.089c0.071-1.129,0.587-2.275,0.38-3.385
	c-0.027-0.143-0.204-0.207-0.314-0.112c-1.493,1.274-1.83,4.801-1.255,6.609c-1.483-0.518-2.862-0.945-3.997-1.189
	c-1.32,1.865-1.32,6.336-1.32,6.336s-4.642-0.088-5.314-0.766c-0.671-0.678-0.724,2.446-1.039,4.649
	c0.598,8.512,1.706,15.761,3.979,25.34c2.828,11.938,7.133,27.689,15.503,33.226c4.956,3.28,8.799,3.736,15.245,2.69
	c8.259-1.338,14.411-9.458,16.293-16.026c1.735-6.059,3.82-25.197,4.75-30.774C403.915,261.032,405.256,255.972,397.921,257.591z"/>
<path fill-rule="evenodd" clip-rule="evenodd" fill="#FFFFFF" d="M366.633,248.846c-0.206,2.48,0.598,9.031,0.103,12.29
	c-3.304-0.104-8.054-1.961-9.706-4.131c-0.414-2.169-0.516-9.396-0.31-10.843C359.301,245.026,365.806,247.401,366.633,248.846z"/>
<path fill-rule="evenodd" clip-rule="evenodd" fill="#FFFFFF" d="M379.25,262.714c-2.496,0.899-7.247,0.486-10.242-0.855
	c0.206-1.754,0.103-9.294,0-12.084c1.754-0.309,9.294,0.62,11.884,2.842c-0.318,2.219,0,0,0,0S379.475,260.986,379.25,262.714z"/>
<path fill-rule="evenodd" clip-rule="evenodd" fill="#F2D5A5" d="M354.241,250.912c0.015,1.861,1.082,8.357,1.082,8.357
	c6.043,6.205,37.85,10.749,42.703,5.791c-0.103-1.654,0.104-4.956,0.104-4.956s2.788-1.138,3.512,0.31
	c0.722,1.445-3.719,27.469-4.854,33.976c-1.137,6.505-4.957,10.74-8.779,13.735c-3.821,2.992-9.918,5.236-18.178,1.276
	c-8.26-3.962-11.95-14.829-14.706-24.403c-2.337-8.121-5.768-23.418-5.784-34.454C350.575,250.545,352.296,250.42,354.241,250.912z"
	/>
<path fill-rule="evenodd" clip-rule="evenodd" fill="#E6BD90" d="M382.824,295.527c5.029-1.704,8.82,2.581,10.328,7.39
	c1.693-2.317,3.037-5.105,3.636-8.527c0.177-1.022,0.436-2.521,0.744-4.332c-0.505-0.08-1.015-0.138-1.534-0.15
	C391.287,289.788,385.897,291.734,382.824,295.527z"/>
<path fill-rule="evenodd" clip-rule="evenodd" fill="#FFFFFF" d="M396.27,253.391c-0.412,3.614-0.204,8.571-0.204,9.809
	c-2.788,2.789-13.221,1.552-13.632,0.62c-0.412-2.478,0.406-7.605,1.445-10.946C387.286,251.429,395.063,252.645,396.27,253.391z"/>
<path fill-rule="evenodd" clip-rule="evenodd" d="M393.181,297.787c-2.993-4.045-9.257-2.565-13.362-1.8
	c-0.189,0.035-0.197,0.342,0.009,0.347c3.889,0.103,8.639-0.88,11.729,2.088c2.558,2.465,0.57,6.335-1.125,8.607
	c-0.56,0.748,0.409,1.569,1.081,0.942C394.247,305.416,395.561,301.007,393.181,297.787z"/>
<path fill-rule="evenodd" clip-rule="evenodd" d="M346.384,232.161c1.14-5.112,3.005-10.158,6.369-14.233
	c0.091-0.11-0.064-0.254-0.159-0.15c-6.424,6.847-8.493,16.876-9.844,25.879c-1.76,11.724-0.438,24.16,3.348,35.37
	c0.334,0.988,1.89,0.638,1.597-0.391c-2.996-10.448-4.527-21.051-3.687-31.924C344.387,241.819,345.316,236.942,346.384,232.161z"/>
<path fill-rule="evenodd" clip-rule="evenodd" d="M342.294,233.525c0.054-0.138-0.142-0.243-0.208-0.106
	c-4.358,9.146-4.583,19.979-3.148,29.875c0.076,0.524,0.957,0.509,0.945-0.036C339.665,253.221,338.512,243.122,342.294,233.525z"/>
<path fill-rule="evenodd" clip-rule="evenodd" d="M376.376,182.61c-6.366-1.678-11.12,2.671-17.012,4.106
	c-0.471,0.114-0.295,0.927,0.181,0.829c2.084-0.414,4.012-1.117,5.989-1.881c3.662-1.42,6.712-2.089,10.659-1.714
	C376.98,184.027,377.108,182.802,376.376,182.61z"/>
<path fill-rule="evenodd" clip-rule="evenodd" d="M373.635,185.254c-2.09-0.177-3.975,0.817-5.907,1.513
	c-3.139,1.132-6.36,2.021-9.563,2.952c-0.357,0.102-0.158,0.639,0.196,0.538c2.567-0.717,5.107-1.522,7.638-2.36
	c2.38-0.787,5.122-2.238,7.654-2.132C373.989,185.778,373.954,185.28,373.635,185.254z"/>
<path fill-rule="evenodd" clip-rule="evenodd" d="M403.01,170.768c-2.492-0.909-5.285-0.518-7.892-0.439
	c-2.372,0.074-4.734-0.337-7.094-0.022c-0.134,0.016-0.149,0.19-0.02,0.228c1.732,0.516,3.488,0.956,5.262,1.275
	c-0.383,1.159-0.416,2.364,0.593,3.234c0.979,0.845,2.791,0.751,3.632-0.232c0.591-0.691,0.666-1.706,0.231-2.496
	c1.655,0.078,3.321,0.03,4.998-0.207C403.335,172.023,403.751,171.037,403.01,170.768z"/>
<path fill-rule="evenodd" clip-rule="evenodd" d="M395.21,160.066c-4.459,0.208-5.68,5.568-6.39,8.962
	c-0.051,0.243,0.271,0.362,0.372,0.126c1.122-2.608,2.156-5.381,4.81-6.775c3.141-1.651,2.803,2.591,3.018,4.467
	c0.103,0.915,1.53,0.778,1.577-0.105C398.728,164.194,398.856,159.896,395.21,160.066z"/>
<path fill-rule="evenodd" clip-rule="evenodd" d="M321.134,187.23c-1.785-4.077-15.167-11.354-14.388-2.648
	c0.028,0.316,0.434,0.316,0.526,0.037c1.285-3.906,4.378-2.557,7.173-0.926c1.973,1.15,3.83,2.625,5.301,4.379
	C320.268,188.694,321.464,187.982,321.134,187.23z"/>
<path fill-rule="evenodd" clip-rule="evenodd" d="M379.398,146.098c-4.516-0.492-9.148-1.053-13.694-0.774
	c-4.772,0.296-8.98,2.198-13.211,4.237c-0.101,0.048-0.025,0.224,0.079,0.181c4.003-1.688,7.831-3.166,12.247-3.206
	c4.855-0.044,9.665,0.985,14.508,0.869C380.168,147.386,380.243,146.191,379.398,146.098z"/>
<path fill-rule="evenodd" clip-rule="evenodd" d="M278.007,449.524c-3.055-7.48-13.652-4.168-18.734-1.325
	c-0.137,0.079-0.011,0.318,0.131,0.25c2.836-1.38,6.273-2.045,9.413-2.091c3.486-0.05,5.876,1.228,7.887,4.012
	C277.247,451.121,278.325,450.304,278.007,449.524z"/>
<path fill-rule="evenodd" clip-rule="evenodd" d="M415.115,456.83c-0.327,0.621,0.329,1.304,0.931,0.842
	c2.972-2.266,7.507-5.298,10.618-1.489c0.136,0.167,0.451,0.008,0.375-0.201C425.158,450.75,417.236,452.798,415.115,456.83z"/>
<path fill-rule="evenodd" clip-rule="evenodd" d="M370.381,467.594c-1.432-0.364-2.87,0.538-3.681,1.656
	c-0.119,0.165,0.105,0.331,0.243,0.193c0.946-0.955,2.121-1.001,3.371-1.035C370.793,468.393,370.822,467.706,370.381,467.594z"/>
<path fill-rule="evenodd" clip-rule="evenodd" d="M372.224,470.042c-0.935-0.547-2.092,0.036-2.891,0.592
	c-0.963,0.671-1.548,1.687-2.083,2.702c-0.084,0.16,0.18,0.314,0.279,0.16c0.482-0.766,1.122-1.438,1.825-2.01
	c0.308-0.249,0.657-0.438,1.019-0.594c0.566-0.241,1.134-0.131,1.715-0.255C372.344,470.583,372.489,470.196,372.224,470.042z"/>
<path fill-rule="evenodd" clip-rule="evenodd" d="M372.628,471.892c-1.94-0.107-3.294,1.971-3.858,3.566
	c-0.078,0.221,0.251,0.34,0.345,0.124c0.301-0.707,0.687-1.333,1.231-1.883c0.69-0.701,1.451-0.821,2.333-1.115
	C373.035,472.463,373.052,471.915,372.628,471.892z"/>
<path fill-rule="evenodd" clip-rule="evenodd" d="M379.287,463.649c-1.997-0.947-4.686,1.131-4.737,3.173
	c-0.005,0.195,0.296,0.291,0.353,0.08c0.517-1.911,2.392-2.832,4.23-2.642C379.503,464.298,379.604,463.801,379.287,463.649z"/>
<path fill-rule="evenodd" clip-rule="evenodd" d="M381.099,465.404c-2.025-1.192-4.197,0.334-5.16,2.144
	c-0.081,0.156,0.168,0.302,0.264,0.158c1.04-1.566,2.789-2.456,4.587-1.706C381.142,466.145,381.432,465.597,381.099,465.404z"/>
<path fill-rule="evenodd" clip-rule="evenodd" d="M383.333,468.048c-1.33-2.44-4.462-1.777-5.835,0.236
	c-0.096,0.143,0.089,0.362,0.225,0.227c1.535-1.515,3.574-1.79,5.047-0.109C383.015,468.682,383.52,468.391,383.333,468.048z"/>
<path fill-rule="evenodd" clip-rule="evenodd" d="M348.536,488.672c-1.073-0.692-2.625-1.097-3.753-0.299
	c-0.299,0.213-0.015,0.696,0.313,0.615c0.983-0.242,1.81-0.292,2.786,0.037c1.199,0.403,1.78,1.649,1.529,2.837
	c-0.064,0.31,0.392,0.422,0.478,0.116C350.269,490.616,349.703,489.425,348.536,488.672z"/>
<path fill-rule="evenodd" clip-rule="evenodd" d="M347.964,485.729c-0.411,0.098-0.345,0.772,0.062,0.82
	c0.669,0.081,1.188,0.089,1.726,0.555c0.809,0.707,1.207,1.99,1.487,2.943c0.05,0.175,0.333,0.1,0.304-0.078
	C351.263,488.209,350.371,485.175,347.964,485.729z"/>
<path fill-rule="evenodd" clip-rule="evenodd" d="M356.913,497.3c-0.561-1.385-1.85-2.259-3.357-1.926
	c-0.516,0.115-0.258,0.815,0.181,0.831c1.156,0.046,1.997,0.3,2.548,1.408c0.516,1.043,0.639,2.627,0.574,3.767
	c-0.009,0.146,0.211,0.146,0.243,0.018C357.45,499.974,357.473,498.689,356.913,497.3z"/>
<path fill-rule="evenodd" clip-rule="evenodd" d="M338.464,481.254c-0.284,0.168-0.056,0.587,0.23,0.556
	c0.959-0.106,1.766-0.139,2.584,0.457c0.767,0.561,1.085,1.614,1.192,2.514c0.034,0.296,0.451,0.308,0.469,0
	C343.058,482.589,340.785,479.875,338.464,481.254z"/>
<path fill-rule="evenodd" clip-rule="evenodd" d="M346.497,480.634c-1.169-1.571-4.25-3.749-5.831-1.451
	c-0.079,0.117-0.074,0.235-0.023,0.334c-0.39,0.027-0.78,0.127-1.163,0.331c-0.349,0.187-0.175,0.649,0.195,0.629
	c1.11-0.061,2.012-0.134,3.028,0.416c0.939,0.51,1.674,1.486,2.142,2.427c0.096,0.189,0.431,0.097,0.365-0.118
	c-0.488-1.59-2.087-3.354-3.85-3.654c1.53-1.167,3.767-0.035,4.883,1.276C346.374,480.977,346.62,480.802,346.497,480.634z"/>
<path fill-rule="evenodd" clip-rule="evenodd" d="M362.276,506.169c-0.808-0.802-2.244-1.52-3.405-1.241
	c-0.284,0.068-0.381,0.459-0.08,0.588c0.963,0.413,1.986,0.418,2.892,1.024c0.894,0.598,1.109,1.746,1.038,2.747
	c-0.019,0.272,0.431,0.326,0.475,0.058C363.399,508.133,363.159,507.048,362.276,506.169z"/>
<path fill-rule="evenodd" clip-rule="evenodd" d="M363.17,504.161c-0.905-0.783-2.472-1.009-3.387-0.17
	c-0.262,0.24-0.036,0.686,0.298,0.674c0.936-0.038,1.677-0.202,2.619,0.188c1.116,0.461,1.783,1.597,1.984,2.741
	c0.041,0.234,0.437,0.205,0.421-0.04C365.013,506.107,364.234,505.086,363.17,504.161z"/>
<path fill-rule="evenodd" clip-rule="evenodd" d="M340.016,448.762c-3.397,1.894-5.387,5.607-7.378,8.809
	c-1.403,2.257-2.908,4.43-5.047,6.06c-1.843,1.409-4.099,2.242-6.162,3.263c-0.162,0.083-0.077,0.338,0.102,0.272
	c4.075-1.489,7.515-2.862,10.237-6.386c1.317-1.708,2.411-3.597,3.577-5.407c1.462-2.266,3.227-4.104,5.108-6.016
	C340.748,449.062,340.394,448.549,340.016,448.762z"/>
<path fill-rule="evenodd" clip-rule="evenodd" d="M389.609,485.207c-1.158-0.752-2.15-1.606-3.03-2.671
	c-0.872-1.053-1.314-2.265-1.41-3.604c-0.156-2.207,1.478-2.692,3.117-2.92c0.139-0.02,0.17-0.241,0.014-0.26
	c-2.222-0.258-3.586,1.055-3.675,3.217c-0.118,2.905,2.311,5.506,4.439,7.131C389.593,486.504,390.181,485.579,389.609,485.207z"/>
<path fill-rule="evenodd" clip-rule="evenodd" d="M379.798,482.007c-5-1.958-5.118,8.639-1.452,10.431
	c0.577,0.283,1.113-0.482,0.552-0.855c-1.783-1.181-2.394-3.386-2.472-5.429c-0.037-0.935,0.167-1.888,0.61-2.709
	c0.575-1.062,1.674-1.053,2.715-1.196C379.866,482.232,379.926,482.059,379.798,482.007z"/>
<path fill-rule="evenodd" clip-rule="evenodd" d="M347.993,505.196c-0.85-1.911-3.273-2.286-4.876-1.163
	c-0.115,0.08-0.028,0.285,0.11,0.228c1.823-0.793,3.864-0.195,4.38,1.866c0.442,1.769-1.414,2.727-2.382,3.804
	c-0.239,0.264-0.036,0.737,0.349,0.632C347.898,509.94,348.923,507.28,347.993,505.196z"/>
<path fill-rule="evenodd" clip-rule="evenodd" d="M355.267,508.001c-0.091,0.053-0.03,0.201,0.07,0.171
	c1.44-0.44,3.759,0.531,3.023,2.361c-0.353,0.876-1.508,1.352-2.312,1.676c-1.54,0.619-3.262,0.508-4.771,1.099
	c-0.282,0.11-0.241,0.555,0.037,0.637c1.161,0.34,2.67-0.15,3.797-0.455c1.361-0.368,2.843-0.926,3.723-2.082
	C360.589,509.096,357.459,506.736,355.267,508.001z"/>
<path fill-rule="evenodd" clip-rule="evenodd" d="M334.221,496.915c-0.111,0.148,0.098,0.369,0.239,0.234
	c1.844-1.761,3.606,1.129,3.364,2.661c-0.158,0.999-0.872,1.906-1.511,2.637c-1.39,1.59-3.446,2.323-4.876,3.805
	c-0.203,0.214,0.051,0.525,0.304,0.448c2.91-0.872,6.558-4.065,6.855-7.217C338.788,497.463,335.739,494.904,334.221,496.915z"/>
<path fill-rule="evenodd" clip-rule="evenodd" d="M332.501,490.989c-1.061-2.871-4.959-1.453-6.578-0.012
	c-0.198,0.177,0.059,0.456,0.268,0.305c1.791-1.3,5.434-2.327,5.747,0.875c0.311,3.179-3.742,5.181-6.25,5.999
	c-0.639,0.205-0.395,1.188,0.267,1.017C329.433,498.276,334.042,495.161,332.501,490.989z"/>
<g>
	<path fill-rule="evenodd" clip-rule="evenodd" d="M568.921,291.554c12.461-6.795-1.426-27.152-9.69-25.222
		c9.131-13.051-10.345-31.813-23.882-23.975c-3.562-14.371-30.045-18.645-40.997-2.016c-7.901-8.541-19.306-0.042-21.767,9.668
		c-3.542-0.206-6.405-1.357-8.986-3.87c-1.775-1.726-3.3-3.667-5.432-4.964c-2.364-1.441-5.072-1.716-7.684-0.921
		c-3.661,1.119-6.189,4.516-10.037,5.207c-2.416,0.434-4.116,0.225-6.373-0.738c-1.711-0.73-3.32-1.526-5.167-1.849
		c-2.871-0.501-5.483,0.007-7.931,1.504c-6.083,3.723-14.216,10.297-19.187,5.078c-0.26,0.392,0.024,1.322,0.991,2.66
		c0.967,1.338,2.913,2.761,5.573,2.793c3.637,0.046,6.959-1.849,10.168-3.395c3.777-1.822,7.501-3.319,11.563-1.466
		c2.929,1.335,5.346,3.539,8.438,4.552c2.73,0.895,5.876,0.707,8.422-0.657c3.184-1.705,5.821-4.956,9.647-2.785
		c4.11,2.34,4.176,6.805,4.458,11.03c0.241,3.662,1.235,6.833,3.861,9.266c-9.629,8.209-4.391,27.499,7.579,31.07
		c-0.249,5.657,1.576,11.05,5.717,15.314c4.866,5.01,12.228,7.255,19.014,6.828c2.65,28.437,43.28,20.45,46.586,6.677
		c10.33,6.335,36.441-7.723,23.544-28.721C570.663,301.49,571.621,293.822,568.921,291.554z"/>
	<path fill-rule="evenodd" clip-rule="evenodd" fill="#FFFFFF" d="M540.725,328.275c-0.445-0.337,0.022,1.928,1.968,2.58
		c-3.583,6.335-13.071,12.47-27.119,10.131c-14.049-2.344-17.771-15.584-17.127-21.512c0.059-0.561-1.235,1.182-1.256,3.845
		c-6.781-0.136-13.411-1.975-18.327-6.993c-4.811-4.911-6.018-12.071-4.686-18.684c0.124-0.606-1.206,0.844-1.616,3.763
		c-10.238-4.466-17.449-23.433-4.11-31.087c0.541-0.312-0.971-0.655-2.492,0.328c-3.009-3.022-3.208-6.845-3.435-11.023
		c-0.169-3.121-0.762-6.314-3.187-8.461c-2.53-2.237-5.299-3.194-8.434-1.721c-1.258,0.589-2.387,1.483-3.532,2.269
		c-1.957,1.345-3.93,1.875-6.282,1.736c-3.205-0.189-5.88-2.277-8.554-3.861c-2.587-1.536-5.3-2.293-8.283-1.777
		c-6.872,1.185-14.811,9.578-20.779,3.767c5.146,1.734,9.548-1.166,13.995-4.137c2.866-1.918,5.872-3.681,9.411-3.482
		c3.824,0.218,6.698,3.034,10.421,3.369c3.247,0.291,6.198-0.977,8.881-2.729c3.681-2.409,7.222-4.37,11.388-1.815
		c2.294,1.407,3.918,3.774,5.909,5.559c2.472,2.219,5.572,3.101,8.803,3.097c-0.151,1.436,0.831,2.749,0.855,2.077
		c0.191-5.061,3.102-9.806,7.08-12.7c4.527-3.294,9.397-3.165,13.381,0.355c-1.16,2.172-1.086,4.208-0.97,3.987
		c8.873-16.811,36.068-18.592,41.293-1.136c-1.445,1.656-1.83,3.911-1.459,3.4c11.019-15.15,35.066,6.576,25.567,18.569
		c-1.902,0.524-4,2.434-3.633,2.301c6.176-2.243,11.883,0.86,14.958,6.537c5.373,9.917,1.136,14.067-1.132,15.424
		c-1.394-1.744-3.875-1.786-3.486-1.481c6.449,5.054,4.793,13.244-2.266,15.161c-0.626,0.17,2.284,0.119,3.573-0.436
		C579.378,322.837,551.521,336.439,540.725,328.275z"/>
</g>
<path fill-rule="evenodd" clip-rule="evenodd" fill="#E6BD90" d="M366.884,271.523c4.604,2.167,15.28,3.909,20.968,3.909
	c5.686,0-2.843,10.662-9.239,8.884C372.215,282.54,360.844,268.681,366.884,271.523z"/>
<path fill-rule="evenodd" clip-rule="evenodd" fill="#FFE3BD" d="M388.207,184.104c3.275,3.276,9.949,7.109,11.017,8.885
	c1.065,1.777-7.109,0.356-9.595-1.421C387.141,189.79,382.522,178.418,388.207,184.104z"/>
<path fill-rule="evenodd" clip-rule="evenodd" fill="#FFE3BD" d="M348.405,194.765c5.197-1.387,13.149,5.329,13.859,8.174
	C362.976,205.78,337.745,197.609,348.405,194.765z"/>
<path fill-rule="evenodd" clip-rule="evenodd" fill="#FFE3BD" d="M385.362,268.68c7.783,0.755,9.24,4.621,1.069,3.911
	C378.256,271.879,374.349,267.614,385.362,268.68z"/>
<circle fill-rule="evenodd" clip-rule="evenodd" fill="#FFFFFF" cx="366.235" cy="178.772" r="1.166"/>
<circle fill-rule="evenodd" clip-rule="evenodd" fill="#FFFFFF" cx="395.017" cy="172.766" r="0.717"/>
<path fill-rule="evenodd" clip-rule="evenodd" fill="#FFE3BD" d="M432.122,199.371c7.923,0.094,20.891,2.467,25.002,3.454
	c4.113,0.986,22.535,4.112,23.194,6.742C480.975,212.202,418.304,199.205,432.122,199.371z"/>
</svg>
