<?xml version="1.0" encoding="utf-8"?>
<!-- Generator: Adobe Illustrator 16.0.0, SVG Export Plug-In . SVG Version: 6.00 Build 0)  -->
<!DOCTYPE svg PUBLIC "-//W3C//DTD SVG 1.1//EN" "http://www.w3.org/Graphics/SVG/1.1/DTD/svg11.dtd">
<svg version="1.1" id="Layer_1" xmlns="http://www.w3.org/2000/svg" xmlns:xlink="http://www.w3.org/1999/xlink" x="0px" y="0px"
	 width="20px" height="20px" viewBox="0 0 20 20" enable-background="new 0 0 20 20" xml:space="preserve">
<path fill-rule="evenodd" clip-rule="evenodd" fill="#D0DEFA" d="M16.022,3.794c-0.808-0.807-1.771-1.456-2.838-1.9
	c-1.028-0.425-2.157-0.66-3.344-0.66c-1.183,0-2.312,0.235-3.342,0.66c-1.067,0.444-2.03,1.093-2.836,1.9
	c-0.807,0.805-1.457,1.77-1.898,2.837C1.337,7.66,1.101,8.791,1.101,9.976c0,1.184,0.236,2.311,0.663,3.342
	c0.442,1.068,1.091,2.031,1.898,2.838c0.807,0.805,1.769,1.457,2.836,1.898c1.03,0.424,2.16,0.662,3.342,0.662
	c1.187,0,2.316-0.238,3.344-0.662c1.067-0.441,2.03-1.094,2.838-1.898c0.807-0.807,1.456-1.77,1.897-2.838
	c0.427-1.031,0.661-2.158,0.661-3.342c0-1.186-0.234-2.316-0.661-3.345C17.479,5.563,16.829,4.599,16.022,3.794z"/>
<g>
	<path fill-rule="evenodd" clip-rule="evenodd" fill="#B4CCFA" d="M15.482,4.334c-0.734-0.737-1.614-1.329-2.588-1.733
		c-0.939-0.388-1.971-0.603-3.054-0.603c-1.079,0-2.111,0.215-3.049,0.603C5.815,3.005,4.937,3.597,4.199,4.334
		C3.465,5.069,2.87,5.948,2.468,6.923c-0.391,0.94-0.605,1.971-0.605,3.053c0,1.081,0.215,2.11,0.605,3.049
		C2.87,14,3.465,14.881,4.199,15.615c0.737,0.734,1.616,1.33,2.592,1.734c0.938,0.389,1.97,0.604,3.049,0.604
		c1.083,0,2.115-0.215,3.054-0.604c0.974-0.404,1.854-1,2.588-1.734c0.736-0.734,1.33-1.615,1.736-2.59
		c0.388-0.939,0.603-1.969,0.603-3.049c0-1.082-0.215-2.112-0.603-3.053C16.813,5.948,16.219,5.069,15.482,4.334z"/>
	<path fill-rule="evenodd" clip-rule="evenodd" fill="#27AE60" d="M15.907,4.786c0.292,0.338,1.03,1.422,1.344,2.211
		c0.396,0.978,0.581,2.021,0.573,3.063c-0.011,1.041-0.223,2.082-0.637,3.051c-0.398,0.934-0.988,1.811-1.763,2.566
		c-0.772,0.758-1.662,1.328-2.606,1.705c-0.392,0.16,0.725-1.164,0.034-1.893c-0.688-0.729-3.621,0.117-3.538-1.379
		c0.08-1.496,0.736-1.488,1.079-2.27s0.757-0.15,2.221-0.648c1.462-0.5,3.413-0.428,4.047-1.09c0.638-0.666-2.429,0.129-2.992-0.013
		c-0.564-0.142-0.679-0.819-1.083-0.797c-0.406,0.022-0.177,0.754-0.629,0.893c-0.453,0.14-1.666,0.35-1.739-0.167
		c-0.285-1.978,1.243-1.353,1.335-1.459c0.403-0.467-0.48-0.837,0.063-1.498c0.547-0.66,1.088-0.777,1.373-1.237
		c0.287-0.462-0.669-0.815-0.229-1.174S15.603,4.431,15.907,4.786z"/>
</g>
<path fill-rule="evenodd" clip-rule="evenodd" fill="#27AE60" d="M9.307,2.011C7.446,2.135,5.62,2.907,4.198,4.33
	C3.433,5.097,2.854,5.978,2.467,6.916c-0.809,1.952-0.809,4.165,0,6.118c0.324,0.781,0.779,1.523,1.364,2.193
	c0.044,0.047,0.1,0.078,0.165,0.078c0.066,0.002,0.127-0.016,0.169-0.066c0.532-0.613,2.07-1.037,2.175-1.842
	c0.078-0.6-0.914-0.836-1.177-1.383c-0.295-0.617-0.06-1.438-0.444-2.004C4.318,9.421,2.803,9.369,2.393,8.787
	c-0.225-0.315-0.06-0.793,0.06-1.164c0.052-0.16,0.247-0.255,0.413-0.297c0.232-0.06,0.48,0.006,0.721,0.008
	c0.016,0,2.275-0.342,2.97-0.641c0.695-0.301,0.313-0.699,0.617-0.824c0.304-0.124,0.784,0.796,1.253,0.39
	c0.472-0.406,0.84-2.377,1.007-2.831c0.167-0.454,0.792-0.012,0.954,0.084c0.165,0.095-0.287,0.978-0.078,1.139
	c0.21,0.162,1.095-0.398,1.206-0.507c0.661-0.657,0.496-1.261,0.124-1.556C11.27,2.29,10.133,2.683,9.479,2.071
	C9.431,2.027,9.372,2.005,9.307,2.011z"/>
<path fill-rule="evenodd" clip-rule="evenodd" fill="#8DA4D1" d="M12.746,2.541c-0.9-0.352-1.878-0.543-2.906-0.543
	c-1.079,0-2.111,0.215-3.049,0.603C5.815,3.003,4.937,3.597,4.199,4.334C3.465,5.069,2.87,5.948,2.468,6.923
	c-0.391,0.94-0.605,1.971-0.605,3.053c0,1.081,0.215,2.11,0.605,3.049C2.87,14,3.465,14.881,4.199,15.615
	c0.737,0.734,1.616,1.33,2.592,1.734c0.938,0.389,1.97,0.604,3.049,0.604c1.083,0,2.115-0.215,3.054-0.604
	c0.974-0.404,1.854-1,2.588-1.734c0.215-0.215,0.42-0.439,0.608-0.68c-1.325,1.295-3.141,2.096-5.14,2.096
	c-4.064,0-7.357-3.295-7.357-7.356c0-4.063,3.293-7.354,7.357-7.354C11.569,2.32,12.172,2.397,12.746,2.541z"/>
<path fill-rule="evenodd" clip-rule="evenodd" fill="#05883B" d="M9.307,2.011C7.446,2.135,5.62,2.907,4.198,4.33
	C3.433,5.097,2.854,5.978,2.467,6.916c-0.809,1.952-0.809,4.165,0,6.118c0.324,0.781,0.779,1.523,1.364,2.193
	c0.044,0.047,0.1,0.078,0.165,0.078c0.066,0.002,0.127-0.016,0.169-0.066c0.252-0.293,0.731-0.539,1.175-0.805
	c-1.09-1.283-1.747-2.945-1.747-4.759c0-0.087,0.002-0.179,0.006-0.266C3.105,9.245,2.604,9.087,2.393,8.787
	c-0.225-0.315-0.06-0.793,0.06-1.164c0.052-0.16,0.247-0.255,0.413-0.297c0.232-0.06,0.48,0.006,0.721,0.008
	c0.004,0,0.163-0.021,0.41-0.061c0.902-2.614,3.237-4.558,6.064-4.899C9.848,2.32,9.647,2.23,9.479,2.071
	C9.431,2.027,9.372,2.005,9.307,2.011z"/>
<path fill-rule="evenodd" clip-rule="evenodd" fill="#05883B" d="M16.895,15.177c-0.205,0.264-0.432,0.514-0.677,0.755
	c-0.758,0.743-1.63,1.302-2.557,1.672c-0.192,0.078-0.009-0.214,0.132-0.617C14.98,16.65,16.043,16.021,16.895,15.177z"/>
<path fill-rule="evenodd" clip-rule="evenodd" fill="#E6EAEB" d="M9.941,18.598c1.541-0.016,2.984-0.438,4.228-1.158
	c-1.261,0.527-2.745,0.801-4.229,0.809C9.939,18.398,9.941,18.51,9.941,18.598L9.941,18.598z M18.475,9.954
	c-0.005-1.255-0.483-2.425-1.304-3.417c-0.056,0.199-0.127,0.398-0.23,0.592c-0.327,0.646-0.924,1.255-1.783,1.77
	c0.748,1.4,1.233,2.865,1.353,4.22c0.558-0.389,1.001-0.814,1.322-1.262c0.414-0.584,0.63-1.203,0.643-1.822l0.003-0.067
	L18.475,9.954L18.475,9.954z M17.004,6.344c-0.048,0.235-0.128,0.466-0.247,0.694c-0.311,0.609-0.876,1.189-1.696,1.681
	c-0.148-0.268-0.305-0.532-0.473-0.794c-1.126-1.771-2.657-3.374-4.357-4.435c2.236,0.073,4.248,0.786,5.727,1.902
	C16.343,5.683,16.693,6.003,17.004,6.344L17.004,6.344z M9.457,3.49c-2.235,0.073-4.25,0.786-5.728,1.902
	C3.343,5.683,2.992,6.003,2.686,6.344C2.731,6.579,2.811,6.81,2.929,7.038C3.239,7.644,3.803,8.222,4.62,8.714
	C4.767,8.451,4.92,8.19,5.084,7.932C6.213,6.157,7.751,4.551,9.457,3.49L9.457,3.49z M2.519,6.537
	C2.57,6.736,2.646,6.936,2.745,7.129c0.331,0.646,0.923,1.252,1.776,1.765c-0.75,1.401-1.238,2.862-1.356,4.217
	c-0.514-0.357-0.925-0.748-1.236-1.156c-0.429-0.564-0.664-1.158-0.708-1.759c-0.005-0.051-0.008-0.104-0.008-0.154V10.04v-0.005
	v-0.001V9.968C1.213,8.708,1.691,7.533,2.519,6.537L2.519,6.537z M1.496,7.768c0.242-0.527,0.57-1.028,0.968-1.484
	c-0.041-0.265-0.041-0.532,0-0.797C2.038,6.188,1.71,6.954,1.496,7.768L1.496,7.768z M2.647,6.083
	c-0.03-0.351,0.018-0.704,0.146-1.048l-0.026-0.01c0.29-0.415,0.616-0.802,0.975-1.161C4.13,3.474,4.558,3.122,5.014,2.812
	c0.48-0.249,1.048-0.368,1.681-0.346c0.829,0.026,1.767,0.293,2.768,0.819C7.18,3.356,5.12,4.087,3.605,5.228
	C3.255,5.491,2.937,5.776,2.647,6.083L2.647,6.083z M10.226,3.284c2.281,0.074,4.341,0.803,5.855,1.944
	c0.35,0.263,0.673,0.548,0.96,0.855c0.026-0.351-0.021-0.704-0.148-1.048l0.028-0.01c-0.291-0.415-0.618-0.802-0.976-1.161
	c-0.207-0.208-0.423-0.405-0.651-0.591l-0.002,0.002L15.263,3.25c-0.148-0.121-0.305-0.236-0.462-0.348
	c-0.507-0.305-1.127-0.453-1.824-0.429C12.153,2.5,11.219,2.762,10.226,3.284L10.226,3.284z M17.224,6.284
	c0.04-0.265,0.04-0.532,0-0.797c0.426,0.701,0.752,1.466,0.967,2.281C17.952,7.241,17.622,6.74,17.224,6.284L17.224,6.284z
	 M18.677,9.938v0.03l0,0v0.018l0,0c0,0.017,0,0.035,0,0.056c-0.011,2.019-0.709,3.878-1.864,5.359
	c-0.178,0.293-0.414,0.572-0.703,0.838c-0.114,0.104-0.235,0.207-0.366,0.309c-1.564,1.404-3.631,2.258-5.898,2.258
	c-2.269,0-4.337-0.854-5.901-2.258c-0.131-0.102-0.252-0.205-0.367-0.309C3.29,15.973,3.054,15.693,2.875,15.4
	c-1.157-1.482-1.852-3.342-1.866-5.36v-0.006v-0.001L1.006,9.986l0,0V9.968c0-2.441,0.99-4.65,2.587-6.25
	C3.803,3.511,4.02,3.313,4.247,3.129L4.239,3.121c0.199-0.193,0.423-0.354,0.668-0.484c1.408-0.949,3.108-1.505,4.938-1.505
	c1.888,0,3.638,0.593,5.072,1.601c0.17,0.102,0.327,0.222,0.476,0.357c0.244,0.197,0.479,0.409,0.698,0.629
	C17.686,5.312,18.674,7.509,18.677,9.938L18.677,9.938z M3.612,15.936c-0.022-0.041-0.046-0.082-0.064-0.127
	c-0.265-0.568-0.411-1.262-0.411-2.07c0-0.129,0.004-0.258,0.012-0.389c-0.579-0.391-1.041-0.82-1.383-1.271
	c-0.178-0.234-0.327-0.475-0.44-0.719c0.235,1.451,0.832,2.781,1.696,3.896l0.002-0.002l0.016,0.027
	C3.219,15.51,3.411,15.727,3.612,15.936L3.612,15.936z M9.933,3.208c0-0.624,0.003-1.056,0.006-1.361
	c0.001-0.24,0.003-0.4,0.004-0.51c1.422,0.016,2.761,0.375,3.939,1c-0.287-0.058-0.592-0.08-0.91-0.069
	C12.062,2.298,11.027,2.603,9.933,3.208L9.933,3.208z M9.727,3.563v0.183C9.721,5.571,9.719,7.814,9.719,9.968V10
	C7.937,9.98,6.167,9.587,4.797,8.818c0.144-0.263,0.297-0.52,0.46-0.774C6.407,6.234,7.983,4.606,9.727,3.563L9.727,3.563z
	 M4.699,8.998c-0.756,1.411-1.241,2.887-1.336,4.244c0.114,0.076,0.231,0.148,0.357,0.221c1.659,0.957,3.827,1.443,6.002,1.461
	c-0.001-1.473-0.003-3.115-0.003-4.72C7.906,10.187,6.1,9.783,4.699,8.998L4.699,8.998z M3.349,13.479
	c-0.002,0.088-0.006,0.174-0.006,0.26c0,0.777,0.139,1.441,0.39,1.982c0.147,0.316,0.333,0.59,0.554,0.82
	c0.138,0.098,0.285,0.189,0.441,0.281c1.382,0.797,3.189,1.203,5.003,1.219c-0.002-0.406-0.003-1.004-0.003-1.854l-0.005-1.059
	c-2.21-0.016-4.416-0.512-6.106-1.49C3.526,13.586,3.435,13.533,3.349,13.479L3.349,13.479z M15.331,16.586
	c-0.118,0.084-0.241,0.16-0.371,0.236c-1.389,0.801-3.201,1.207-5.024,1.219c-0.001-0.406-0.003-1.004-0.005-1.854l-0.003-1.059
	c2.224-0.01,4.442-0.508,6.145-1.49c0.085-0.049,0.17-0.102,0.253-0.152c0.002,0.084,0.003,0.162,0.003,0.244
	c0,0.777-0.137,1.439-0.389,1.982C15.78,16.053,15.576,16.348,15.331,16.586L15.331,16.586z M9.734,18.248
	c-1.482-0.012-2.959-0.283-4.215-0.809c1.245,0.721,2.682,1.143,4.218,1.158C9.735,18.51,9.735,18.398,9.734,18.248L9.734,18.248z
	 M16.646,15.281c-0.191,0.244-0.396,0.477-0.612,0.699c0.031-0.057,0.063-0.119,0.093-0.182c0.265-0.566,0.408-1.26,0.408-2.068
	c0-0.123-0.003-0.246-0.008-0.373c0.629-0.422,1.12-0.887,1.471-1.381c0.146-0.201,0.266-0.408,0.369-0.617
	c-0.239,1.451-0.837,2.781-1.7,3.896l-0.005-0.002L16.646,15.281L16.646,15.281z M14.98,9.001c0.755,1.415,1.238,2.892,1.331,4.251
	c-0.109,0.072-0.224,0.141-0.343,0.211c-1.667,0.963-3.852,1.451-6.041,1.461c-0.003-1.373-0.003-3.02-0.003-4.72
	C11.75,10.193,13.57,9.791,14.98,9.001L14.98,9.001z M9.925,10c1.793-0.013,3.578-0.405,4.958-1.178
	c-0.146-0.268-0.301-0.529-0.468-0.789c-1.152-1.813-2.734-3.445-4.484-4.487v0.199C9.926,5.357,9.925,7.619,9.925,9.968V10
	L9.925,10z M9.727,3.194C9.729,2.577,9.73,2.149,9.734,1.848c0.001-0.24,0.003-0.4,0.004-0.51C8.333,1.354,7.006,1.707,5.839,2.32
	C6.112,2.27,6.4,2.25,6.701,2.26C7.605,2.289,8.636,2.593,9.727,3.194z"/>
</svg>
