<svg width="450" height="451" xmlns="http://www.w3.org/2000/svg">
 <style>#JUAN{
    animation : anime1 7s ease-in-out infinite;
	
	}
	@keyframes anime1{
	0%,10%{
          transform : translateX(0px)
	}
	20%,40%{
	 transform : translateX(50px)
	}
	50%,62%{
	visibility : hidden 
	}
	70%,100%{
	visibility : visible;
	transform :  translateX(50px)
	}
	}
	#JUAN-aligned ,#ESPOSA-aligned{
	animation : skew 7s ease-in-out infinite
	}
	@keyframes skew{
	0%,51%{
	visibility : hidden
	}
	52%,60%{
	visibility : visible
	}
	61%,100%{
	visibility : hidden
	}
	}
	#ESPOSA{
	animation : anime2 7s ease-in-out infinite;
	
	}
	@keyframes anime2{
	0%,40%{
	visibility : visible 
	}
   50%,62%{
   visibility : hidden 
	}
	70%,100%{
    visibility : visible 
	}
}
#Heart{
	animation : beat 7s linear infinite
}
@keyframes beat{
	0%,49%{
	visibility : hidden;
	
	}
	50%,60%{
	visibility : visible;
	
	}
	61%,100%{
	visibility : hidden;
	}
}
#OJOS_JUAN ,#OJOS_ESPOSA {
	animation : blinking 7s ease-in-out infinite;
	
     }

	
	@keyframes blinking{
	0%,35%{
	visibility : visible
	}
	33%,35%{
	visibility : hidden
	}
	47%,51%{
	visibility : hidden
	}
	61%,65%{
	 visibility : hidden
	}
    66%,90%{
     visibility : visible
    }
    92%,95%{
    visibility : hidden
    }
    96%,100%{
    visibility : visible
    }
	}
	
#girl_arm2{
    animation : hand1 12s linear alternate infinite;
    transform-origin:90% 40%;
    transform-box:fill-box;
    }
    @keyframes hand1{
      0%{transform: rotateZ(0deg)}
      20%{transform: rotateZ(0deg)}
      30%{transform: rotateZ(120deg)}
      40%{transform: rotateZ(80deg)}
      50%{transform: rotateZ(120deg)}
      60%{transform: rotateZ(80deg)}
      70%{transform: rotateZ(120deg)}
      80%{transform: rotateZ(80deg)}
      85%{transform: rotateZ(0deg)}




       100%{transform: rotateZ(0deg)}
    
   
    }
    #boy_arm2{
    animation : hand2 12s linear alternate infinite;
    transform-origin:90% 40%;
    transform-box:fill-box;
    }
    @keyframes hand2{
      0%{transform: rotateZ(0deg)}
      20%{transform: rotateZ(0deg)}
      30%{transform: rotateZ(120deg)}
      40%{transform: rotateZ(80deg)}
      50%{transform: rotateZ(120deg)}
      60%{transform: rotateZ(80deg)}
      70%{transform: rotateZ(120deg)}
      80%{transform: rotateZ(80deg)}
      85%{transform: rotateZ(0deg)}




       100%{transform: rotateZ(0deg)}
    
   
    }

	

#OJOS_4 ,#OJOS_3{
	animation : look 7s ease-in-out infinite
}
@keyframes look{
	0%,70%{
	transform : translateX(0px)
	}
	72%,100%{
	 transform : translateX(-2px)
	}
}</style>

 <g>
  <title>Layer 1</title>
  <g stroke="null" id="svg_1">
   <g stroke="null" id="NINO">
    <path stroke="null" fill="#8fbfb7" d="m350.48508,173.04884a4.43862,4.43862 0 0 1 3.52155,0.71532c5.70418,2.84292 12.16036,3.77833 18.158,5.90594c13.15079,4.64038 16.50727,3.35648 18.48815,7.13481c1.65073,2.98965 1.63239,7.4833 -0.56858,9.72095a7.50164,7.50164 0 0 1 -5.6675,1.65073c-20.59741,-0.66029 -30.88694,-0.97209 -34.11503,-5.50242c-4.76877,-6.69462 -3.4115,-18.158 0.18341,-19.62531z" id="svg_435"/>
    <path stroke="null" fill="#8fbfb7" d="m304.63154,176.16688c-4.95218,-2.38438 -38.15014,6.96974 -42.00184,6.78632s-2.20097,9.90436 4.03511,12.28875s27.14529,-0.55024 34.48186,0.36683s8.25364,-17.05752 3.48487,-19.4419z" id="svg_436"/>
    <path stroke="null" fill="#39281c" d="m367.17577,125.36116c-8.25364,19.07507 -11.73851,24.21067 -35.0321,23.11018s-25.67798,3.30145 -36.13259,-16.14044c-11.00485,-20.35897 -2.5678,-42.7355 7.88681,-54.84083c12.10533,-13.93948 39.61746,-14.3063 47.68768,-2.38438c20.90921,4.40194 23.84384,31.18041 15.5902,50.25548z" id="svg_437"/>
    <path stroke="null" fill="#c18972" d="m320.9554,164.24496c0,6.23608 -6.23608,6.4195 -9.53754,8.98729c-15.22337,12.65558 45.67012,13.75606 38.51697,2.38438c-2.38438,-3.66828 -10.27119,-5.1356 -10.27119,-11.55509l0,-29.89651l-18.70824,0l0,30.07992z" id="svg_438"/>
    <polygon stroke="null" opacity="0.4" fill="#c18972" points="320.77203369140625,155.8079071044922 339.6636657714844,155.8079071044922 339.6636657714844,161.6771697998047 320.77203369140625,166.81277465820312 320.77203369140625,155.8079071044922 " id="svg_439"/>
    <g stroke="null" id="svg_440">
     <path stroke="null" fill="#c18972" d="m297.6618,111.78852c2.75121,-0.91707 6.23608,2.38438 7.51998,7.51998s0,9.90436 -2.75121,10.82143s-6.23608,-2.38438 -7.51998,-7.51998s-0.18341,-9.90436 2.75121,-10.82143z" id="svg_441"/>
     <path stroke="null" fill="#c18972" d="m363.32407,111.78852c-2.75121,-0.91707 -6.23608,2.38438 -7.51998,7.51998s0,9.90436 2.75121,10.82143s6.23608,-2.38438 7.51998,-7.51998s0,-9.90436 -2.75121,-10.82143z" id="svg_442"/>
    </g>
    <path stroke="null" fill="#c18972" d="m330.85976,162.22741c-5.86925,0 -22.0097,-9.53754 -26.59505,-16.32386s-6.23608,-30.99699 -5.1356,-41.63501s11.73851,-30.44675 31.36382,-30.44675s30.26333,19.80873 31.36382,30.44675s-0.73366,34.84869 -5.1356,41.63501s-19.99214,16.32386 -25.86139,16.32386z" id="svg_443"/>
    <g stroke="null" id="svg_444">
     <path stroke="null" fill="#bc8e5e" d="m341.13096,129.94652a0.55024,0.55024 0 1 0 0,-1.10048a0.55024,0.55024 0 0 0 0,1.10048z" id="svg_445"/>
     <circle stroke="null" fill="#bc8e5e" r="0.55024" cy="127.56213" cx="338.37974" id="svg_446"/>
     <path stroke="null" fill="#bc8e5e" d="m343.33193,132.14749a0.55024,0.55024 0 1 0 -0.55024,-0.55024q0.27512,0.55024 0.55024,0.55024z" id="svg_447"/>
     <path stroke="null" fill="#bc8e5e" d="m339.1134,132.69773a0.55024,0.55024 0 1 0 -0.55024,-0.55024a0.49522,0.49522 0 0 0 0.55024,0.55024z" id="svg_448"/>
     <path stroke="null" fill="#bc8e5e" d="m336.5456,130.86359a0.58693,0.58693 0 0 0 0.55024,-0.55024a0.49522,0.49522 0 0 0 -0.55024,-0.55024a0.58693,0.58693 0 0 0 -0.55024,0.55024a0.49522,0.49522 0 0 0 0.55024,0.55024z" id="svg_449"/>
     <path stroke="null" fill="#bc8e5e" d="m346.08314,129.94652a0.55024,0.55024 0 1 0 -0.55024,-0.55024q0.27512,0.55024 0.55024,0.55024z" id="svg_450"/>
     <path stroke="null" fill="#bc8e5e" d="m347.00021,132.51432a0.55024,0.55024 0 1 0 -0.55024,-0.55024q0.27512,0.55024 0.55024,0.55024z" id="svg_451"/>
     <path stroke="null" fill="#bc8e5e" d="m351.76898,130.86359a0.55024,0.55024 0 1 0 -0.55024,-0.55024c0.18341,0.18341 0.36683,0.55024 0.55024,0.55024z" id="svg_452"/>
     <path stroke="null" fill="#bc8e5e" d="m342.04803,134.71529a0.55024,0.55024 0 1 0 -0.55024,-0.55024a0.49522,0.49522 0 0 0 0.55024,0.55024z" id="svg_453"/>
     <path stroke="null" fill="#bc8e5e" d="m334.16122,125.91141a0.55024,0.55024 0 1 0 -0.55024,-0.55024c0.18341,0.18341 0.36683,0.55024 0.55024,0.55024z" id="svg_454"/>
     <path stroke="null" fill="#bc8e5e" d="m332.51049,128.66262a0.55024,0.55024 0 1 0 0,-1.10048a0.49522,0.49522 0 0 0 -0.55024,0.55024q0.27512,0.55024 0.55024,0.55024z" id="svg_455"/>
     <path stroke="null" fill="#bc8e5e" d="m316.55346,135.08211a0.55024,0.55024 0 1 0 -0.55024,-0.55024q0.27512,0.55024 0.55024,0.55024z" id="svg_456"/>
     <path stroke="null" fill="#bc8e5e" d="m329.57587,127.56213a0.58693,0.58693 0 0 0 0.55024,-0.55024a0.49522,0.49522 0 0 0 -0.55024,-0.55024a0.55024,0.55024 0 1 0 0,1.10048z" id="svg_457"/>
     <path stroke="null" fill="#bc8e5e" d="m323.89003,127.1953a0.55024,0.55024 0 1 0 -0.55024,-0.55024a0.58693,0.58693 0 0 0 0.55024,0.55024z" id="svg_458"/>
     <path stroke="null" fill="#bc8e5e" d="m322.78954,130.31335a0.55024,0.55024 0 1 0 -0.55024,-0.55024q0.27512,0.55024 0.55024,0.55024z" id="svg_459"/>
     <path stroke="null" fill="#bc8e5e" d="m319.12126,129.21286a0.55024,0.55024 0 1 0 -0.55024,-0.55024a0.49522,0.49522 0 0 0 0.55024,0.55024z" id="svg_460"/>
     <path stroke="null" fill="#bc8e5e" d="m320.40516,132.3309a0.55024,0.55024 0 1 0 -0.55024,-0.55024a0.49522,0.49522 0 0 0 0.55024,0.55024z" id="svg_461"/>
     <path stroke="null" fill="#bc8e5e" d="m314.71932,132.14749a0.55024,0.55024 0 1 0 -0.55024,-0.55024a0.49522,0.49522 0 0 0 0.55024,0.55024z" id="svg_462"/>
     <path stroke="null" fill="#bc8e5e" d="m312.70176,129.94652a0.55024,0.55024 0 1 0 -0.55024,-0.55024a0.82536,0.82536 0 0 0 0.55024,0.55024z" id="svg_463"/>
     <path stroke="null" fill="#bc8e5e" d="m309.76714,129.7631a0.55024,0.55024 0 1 0 -0.55024,-0.55024q0.27512,0.55024 0.55024,0.55024z" id="svg_464"/>
     <path stroke="null" fill="#bc8e5e" d="m321.50564,134.53187a0.55024,0.55024 0 1 0 -0.55024,-0.55024a0.49522,0.49522 0 0 0 0.55024,0.55024z" id="svg_465"/>
     <path stroke="null" fill="#bc8e5e" d="m311.78469,133.6148a0.58693,0.58693 0 0 0 0.55024,-0.55024a0.49522,0.49522 0 0 0 -0.55024,-0.55024a0.55024,0.55024 0 0 0 0,1.10048z" id="svg_466"/>
     <path stroke="null" fill="#bc8e5e" d="m329.39245,123.52702a0.55024,0.55024 0 1 0 -0.55024,-0.55024q0.27512,0.55024 0.55024,0.55024z" id="svg_467"/>
    </g>
    <path stroke="null" fill="#98b5d8" d="m303.53106,239.44476c-2.5678,8.80388 -3.11804,27.87895 -2.20097,44.93647c1.10048,18.70824 0.91707,47.87109 2.5678,66.21251c6.05267,0 17.60776,0 23.11018,0.18341c0.73366,-12.65558 -4.95218,-80.88564 3.48487,-80.70222c11.00485,0 6.23608,65.84568 7.33657,80.70222a179.10391,179.10391 0 0 0 23.11018,-1.10048c0,-13.57265 0.18341,-48.78816 -0.18341,-63.64471c-0.36683,-12.28875 0.55024,-38.15014 -2.38438,-46.77061c-1.83414,0.73366 -52.45645,0.73366 -54.84083,0.18341z" id="svg_468"/>
    <path stroke="null" fill="#6a9d8f" d="m295.64425,177.08395c-5.68584,2.5678 6.78632,49.70523 2.93463,77.03394c-0.36683,2.75121 9.72095,5.50242 31.54723,5.1356c21.82628,0.36683 31.91406,-2.38438 31.54723,-5.1356c-2.38438,-16.8741 -2.5678,-41.81843 -1.2839,-51.35596c2.20097,-17.24093 7.88681,-24.02725 4.21853,-25.67798a120.31968,120.31968 0 0 0 -21.45946,-6.4195c-2.5678,2.01756 -7.51998,3.30145 -13.20582,3.30145s-10.63802,-1.2839 -13.20582,-3.30145a125.49196,125.49196 0 0 0 -21.09263,6.4195z" id="svg_469"/>
    <line stroke="#1a374a" stroke-width="2.4" stroke-miterlimit="22.93" fill="none" y2="111.42169" x2="298.76229" y1="123.52702" x1="304.99837" id="svg_470"/>
    <path stroke="#1a374a" stroke-width="2.4" stroke-miterlimit="22.93" fill="none" d="m345.16607,134.8987a9.92271,9.92271 0 1 0 -9.35412,-9.90436a9.75763,9.75763 0 0 0 9.35412,9.90436z" id="svg_471"/>
    <path stroke="#1a374a" stroke-width="2.4" stroke-miterlimit="22.93" fill="none" d="m314.90273,134.8987a9.92271,9.92271 0 1 0 -9.35412,-9.90436a9.51919,9.51919 0 0 0 9.35412,9.90436z" id="svg_472"/>
    <path stroke="#1a374a" stroke-width="2.4" stroke-miterlimit="22.93" fill="none" d="m324.07344,127.1953a6.01598,6.01598 0 0 1 6.05267,-4.58535a6.16272,6.16272 0 0 1 6.05267,4.58535" id="svg_473"/>
    <line stroke="#1a374a" stroke-width="2.4" stroke-miterlimit="22.93" fill="none" y2="111.42169" x2="364.05773" y1="123.52702" x1="355.07043" id="svg_474"/>
    <path stroke="null" fill="#39281c" d="m358.73872,93.81393c-10.27119,1.10048 -20.54238,22.19311 -47.87109,25.67798c-0.91707,0.18341 21.09263,-11.55509 26.04481,-24.39408c-9.90436,11.55509 -25.86139,22.0097 -35.39893,22.37653c-1.83414,0 -0.91707,-6.96974 -0.91707,-14.48972c0,-9.53754 18.70824,-51.35596 58.14228,-9.17071z" id="svg_475"/>
    <path stroke="null" fill="#39281c" d="m348.28411,95.64807c4.76877,0 11.55509,20.90921 12.65558,24.02725s2.20097,-24.39408 -2.5678,-31.54723s-36.49942,-6.4195 -10.08778,7.51998z" id="svg_476"/>
    <path stroke="null" fill="#b25349" d="m338.01292,357.9303l25.49457,0c3.48487,0 2.20097,-14.85655 -13.75606,-14.85655s-16.8741,14.85655 -11.73851,14.85655z" id="svg_477"/>
    <path stroke="null" opacity="0.4" fill="#c18972" d="m331.41001,136.36601c-5.86925,-0.91707 -4.76877,-4.95218 -4.95218,-8.62046c-1.83414,4.58535 -3.30145,8.98729 4.95218,8.62046z" id="svg_478"/>
    <path stroke="null" fill="#b25349" d="m303.71447,357.9303l25.49457,0c3.48487,0 2.20097,-14.85655 -13.75606,-14.85655s-16.69069,14.85655 -11.73851,14.85655z" id="svg_479"/>
    <path stroke="null" fill="#8fbfb7" d="m330.12611,174.14933c-5.68584,0 -10.63802,-1.2839 -13.20582,-3.30145l-3.48487,0.73366l0,0l2.5678,10.08778l14.12289,-7.51998z" id="svg_480"/>
    <path stroke="null" fill="#8fbfb7" d="m330.12611,174.14933c5.68584,0 10.63802,-1.2839 13.20582,-3.30145l3.48487,0.73366l0,0l-2.5678,10.08778l-14.12289,-7.51998z" id="svg_481"/>
    <path stroke="null" fill="#cd5d48" d="m339.29682,145.90355c0,4.21853 -4.03511,7.70339 -8.98729,7.70339s-8.98729,-3.48487 -8.98729,-7.70339" id="svg_482"/>
    <path stroke="null" fill="#fff" d="m334.89488,148.83817l-9.72095,0a2.82458,2.82458 0 0 1 -2.75121,-2.75121l0,-0.18341l15.03996,0l0,0.18341a2.54946,2.54946 0 0 1 -2.5678,2.75121z" id="svg_483"/>
    <path stroke="null" fill="#39281c" d="m305.54861,97.84904c3.66828,-3.48487 18.158,-13.57265 21.45946,-10.63802s5.1356,2.93463 8.07022,0.36683s11.55509,5.31901 17.05752,7.33657c9.17071,3.30145 6.78632,25.12774 9.17071,29.34626c1.2839,2.38438 2.93463,-10.82143 3.48487,-19.25849c1.2839,-21.27604 -14.85655,-33.56479 -33.38137,-33.7482c-13.75606,-0.18341 -34.66527,10.27119 -33.7482,31.36382c0.36683,9.72095 1.83414,22.74335 4.21853,19.99214s-1.46731,-19.80873 3.66828,-24.76091z" id="svg_484"/>
    <g stroke="null" id="boy_arm2">
     <path stroke="null" fill="#c18972" d="m348.81601,188.03378l0.55024,0c0.36683,0 0.95375,0.29346 1.504,0.23844c1.11883,0.27512 2.7879,0.33015 4.29189,0.752a25.67798,25.67798 0 0 1 4.45696,0.55024c1.11883,0.09171 2.0359,0.20176 2.0359,0.20176l-0.752,10.72973s-0.93541,-0.11005 -2.23765,-0.18341s-3.13638,-0.29346 -4.82379,-0.51356s-3.35648,-0.64195 -4.65872,-0.71532c-0.55024,0 -1.11883,-0.27512 -1.48565,-0.23844l-0.55024,0a4.95218,4.95218 0 0 1 -3.66828,-6.32779a4.65872,4.65872 0 0 1 5.31901,-4.49365l0.01834,0z" id="svg_489"/>
     <g stroke="null" id="svg_490">
      <path stroke="null" fill="#8fbfb7" d="m385.71894,197.86478c-4.53033,0.91707 -25.86139,3.42984 -25.86139,3.42984l-1.83414,-11.99529a72.30186,72.30186 0 0 0 12.25207,-1.63239c4.42028,-0.99044 8.96895,-1.41229 13.37089,-2.43941a7.0431,7.0431 0 0 1 5.08057,0a6.4195,6.4195 0 0 1 2.97131,5.9793a7.72174,7.72174 0 0 1 -5.9793,6.65793z" id="svg_491"/>
      <path stroke="null" fill="#6a9d8f" d="m363.87431,200.78106a37.10468,37.10468 0 0 0 -3.83336,0.49522l-1.83414,-11.97694s1.44897,-0.12839 3.66828,-0.49522l1.99921,11.97694z" id="svg_492"/>
     </g>
    </g>
    <g stroke="null" id="svg_497">
     <g stroke="null" id="svg_498">
      <g stroke="null" id="svg_499">
       <path stroke="null" fill="#fff" d="m350.66849,203.679c-1.2839,-1.65073 -2.38438,-3.11804 -3.66828,-4.76877s-2.38438,-3.11804 -3.66828,-4.76877l-41.81843,0c-0.36683,1.65073 -0.73366,3.30145 -1.10048,4.76877s-0.73366,3.30145 -1.10048,4.76877l0.18341,0c8.43705,0 17.05752,0 25.49457,-0.18341c8.62046,0.36683 17.05752,0.18341 25.67798,0.18341z" id="svg_500"/>
      </g>
      <g stroke="null" id="svg_501">
       <g stroke="null" id="svg_502">
        <path stroke="null" fill="#e3e3e3" d="m343.51534,202.57852l-33.01455,0l0,-0.91707l32.28089,0c0.36683,0.36683 0.55024,0.73366 0.73366,0.91707z" id="svg_503"/>
        <path stroke="null" fill="#e3e3e3" d="m342.78168,201.29462l-37.04966,0l0,-0.36683l36.86624,0a0.64195,0.64195 0 0 0 0.18341,0.36683z" id="svg_504"/>
        <path stroke="null" fill="#e3e3e3" d="m342.23144,200.56096l-22.37653,0l0,-0.36683l22.0097,0c0.36683,0.18341 0.36683,0.36683 0.36683,0.36683z" id="svg_505"/>
        <path stroke="null" fill="#e3e3e3" d="m341.86461,200.01072l-22.0097,0l0,-0.36683l22.0097,0c-0.18341,0 0,0.18341 0,0.36683z" id="svg_506"/>
        <path stroke="null" fill="#e3e3e3" d="m341.49779,199.27706l-21.64287,0l0,-0.36683l21.64287,0c-0.18341,0.18341 -0.18341,0.18341 0,0.36683z" id="svg_507"/>
        <path stroke="null" fill="#e3e3e3" d="m340.94754,198.54341l-34.84869,0l0,-0.36683l34.84869,0c-0.18341,0.18341 0,0.18341 0,0.36683z" id="svg_508"/>
        <path stroke="null" fill="#e3e3e3" d="m340.58071,197.80975l-34.48186,0l0,-0.36683l34.11503,0l0.36683,0.36683z" id="svg_509"/>
        <path stroke="null" fill="#e3e3e3" d="m340.03047,197.0761l-20.54238,0l0,-0.36683l20.54238,0c-0.18341,0.18341 0,0.18341 0,0.36683z" id="svg_510"/>
        <path stroke="null" fill="#e3e3e3" d="m339.66364,196.34244l-20.17556,0l0,-0.36683l20.17556,0c-0.18341,0.18341 -0.18341,0.36683 0,0.36683z" id="svg_511"/>
        <path stroke="null" fill="#e3e3e3" d="m339.1134,195.60878l-20.17556,0l0,-0.36683l19.80873,0l0.36683,0.36683z" id="svg_512"/>
        <path stroke="null" fill="#e3e3e3" d="m338.74657,194.87513l-32.28089,0l0,-0.36683l31.91406,0c0.18341,0.18341 0.18341,0.36683 0.36683,0.36683z" id="svg_513"/>
       </g>
       <path stroke="null" fill="#e3e3e3" d="m318.02077,200.74438l-12.10533,0c0,-0.55024 0.18341,-1.10048 0.18341,-1.83414l11.73851,0a5.64916,5.64916 0 0 0 0.18341,1.83414z" id="svg_514"/>
       <path stroke="null" fill="#e3e3e3" d="m317.47053,197.0761l-11.37168,0c0,-0.55024 0.18341,-1.10048 0.18341,-1.83414l10.82143,0c0.18341,0.73366 0.18341,1.2839 0.36683,1.83414z" id="svg_515"/>
      </g>
     </g>
    </g>
    <g stroke="null" id="BRAZO_IZQ_NINO">
     <g stroke="null" id="svg_516">
      <g stroke="null" id="svg_517">
       <polygon stroke="null" fill="#ecbe31" points="292.5262145996094,187.3551483154297 293.8101501464844,185.88783264160156 309.03350830078125,198.72682189941406 307.93304443359375,200.1941375732422 292.5262145996094,187.3551483154297 " id="svg_518"/>
       <polygon stroke="null" fill="#7e7f7f" points="310.1339111328125,200.74440002441406 309.03350830078125,198.72682189941406 307.93304443359375,200.1941375732422 310.1339111328125,200.74440002441406 " id="svg_519"/>
      </g>
      <path stroke="null" fill="#fff" d="m293.81011,185.88783l-1.2839,1.46731c-0.55024,-0.55024 0.73366,-2.01756 1.2839,-1.46731z" id="svg_520"/>
     </g>
     <path stroke="null" fill="#c18972" d="m301.5135,190.6566l-0.55024,0c-0.36683,0 -0.91707,0.18341 -1.46731,0.18341c-1.10048,0.18341 -2.75121,0.18341 -4.40194,0.36683s-3.11804,0.18341 -4.40194,0.18341l-2.01756,0l-0.55024,10.08778a6.23608,6.23608 0 0 0 2.75121,0.73366c1.2839,0 3.11804,-0.18341 4.76877,-0.18341s3.48487,-0.36683 4.76877,-0.36683c0.55024,0 1.10048,-0.18341 1.46731,-0.18341l0.55024,0a5.15394,5.15394 0 0 0 4.21853,-6.05267a4.89716,4.89716 0 0 0 -5.1356,-4.76877z" id="svg_521"/>
     <g stroke="null" id="svg_522">
      <path stroke="null" fill="#8fbfb7" d="m262.81312,197.0761c4.40194,1.2839 25.49457,5.1356 25.49457,5.1356l2.75121,-11.73851s-23.66043,-4.40194 -26.22822,-6.05267c-8.07022,-5.1356 -7.51998,11.18826 -2.01756,12.65558z" id="svg_523"/>
      <path stroke="null" fill="#6a9d8f" d="m284.45599,201.66145c2.38438,0.36683 3.8517,0.73366 3.8517,0.73366l2.75121,-11.73851a34.33513,34.33513 0 0 1 -3.66828,-0.73366l-2.93463,11.73851z" id="svg_524"/>
     </g>
    </g>
    <g stroke="null" id="OJOS_4">
     <g stroke="null" id="svg_534">
      <g stroke="null" id="svg_535">
       <g stroke="null" id="svg_536">
        <path stroke="null" fill="#39281d" d="m320.40516,123.52702a4.64038,4.64038 0 0 1 -4.21853,4.76877a4.34692,4.34692 0 0 1 -4.40194,-4.40194a4.64038,4.64038 0 0 1 4.21853,-4.76877a4.58535,4.58535 0 0 1 4.40194,4.40194z" id="svg_537"/>
        <path stroke="null" fill="#fff" d="m318.57102,122.24312a1.0638,1.0638 0 0 1 -1.10048,1.10048a1.19219,1.19219 0 0 1 -1.10048,-1.10048a1.10048,1.10048 0 0 1 2.20097,0z" id="svg_538"/>
       </g>
       <g stroke="null" id="svg_539">
        <path stroke="null" fill="#39281d" d="m347.73387,123.52702a4.64038,4.64038 0 0 1 -4.21853,4.76877a4.34692,4.34692 0 0 1 -4.40194,-4.40194a4.64038,4.64038 0 0 1 4.21853,-4.76877a4.58535,4.58535 0 0 1 4.40194,4.40194z" id="svg_540"/>
        <path stroke="null" fill="#fff" d="m345.89972,122.24312a1.0638,1.0638 0 0 1 -1.10048,1.10048a1.19219,1.19219 0 0 1 -1.10048,-1.10048a1.10048,1.10048 0 0 1 2.20097,0z" id="svg_541"/>
       </g>
      </g>
     </g>
    </g>
    <g stroke="null" id="OJOS_4-2">
     <g stroke="null" id="svg_542">
      <g stroke="null" id="svg_543">
       <g stroke="null" id="svg_544">
        <path stroke="null" fill="#39281d" d="m320.40516,123.71044c0,1.10048 -1.83414,1.83414 -4.21853,1.83414s-4.40194,-0.73366 -4.40194,-1.83414s1.83414,-1.83414 4.21853,-1.83414s4.21853,0.73366 4.40194,1.83414z" id="svg_545"/>
        <path stroke="null" fill="#fff" d="m318.57102,123.16019c0,0.18341 -0.36683,0.36683 -1.10048,0.36683s-1.10048,-0.18341 -1.10048,-0.36683s0.36683,-0.36683 1.10048,-0.36683s1.10048,0 1.10048,0.36683z" id="svg_546"/>
       </g>
       <g stroke="null" id="svg_547">
        <path stroke="null" fill="#39281d" d="m347.73387,123.71044c0,1.10048 -1.83414,1.83414 -4.21853,1.83414s-4.40194,-0.73366 -4.40194,-1.83414s1.83414,-1.83414 4.21853,-1.83414s4.21853,0.73366 4.40194,1.83414z" id="svg_548"/>
        <path stroke="null" fill="#fff" d="m345.89972,123.16019c0,0.18341 -0.36683,0.36683 -1.10048,0.36683s-1.10048,-0.18341 -1.10048,-0.36683s0.36683,-0.36683 1.10048,-0.36683s1.10048,0 1.10048,0.36683z" id="svg_549"/>
       </g>
      </g>
     </g>
    </g>
   </g>
   <g stroke="null" id="NINA">
    <path stroke="null" fill="#48320f" d="m138.27491,77.8569c-2.20097,-10.63802 -31.91406,-15.22337 -45.30329,-6.23608c-43.10232,28.97944 -11.55509,84.37051 -0.91707,94.6417c7.33657,-5.50242 14.85655,-18.158 22.0097,-38.33356a212.02675,212.02675 0 0 0 25.31115,39.80087c11.73851,-15.40679 32.83113,-79.41833 -1.10048,-89.87293z" id="svg_550"/>
    <path stroke="null" fill="#c18972" d="m103.79305,160.76009c0,6.60291 -7.33657,6.78632 -11.00485,9.53754c-17.42434,13.20582 52.63986,14.67313 44.38622,2.5678c-2.75121,-3.8517 -11.73851,-5.50242 -11.73851,-12.10533l0,-31.54723l-21.64287,0l0,31.54723z" id="svg_551"/>
    <polygon stroke="null" opacity="0.4" fill="#c18972" points="103.79300689697266,152.87327575683594 125.43595886230469,152.87327575683594 125.43595886230469,159.47621154785156 103.79300689697266,164.97862243652344 103.79300689697266,152.87327575683594 " id="svg_552"/>
    <g stroke="null" id="svg_553">
     <path stroke="null" fill="#c18972" d="m77.56483,109.77096c3.11804,-0.91707 6.96974,2.5678 8.43705,7.88681s0,10.45461 -3.11804,11.37168s-6.96974,-2.5678 -8.43705,-7.88681s0,-10.27119 3.11804,-11.37168z" id="svg_554"/>
     <path stroke="null" fill="#c18972" d="m151.48073,109.77096c-3.11804,-0.91707 -6.96974,2.5678 -8.43705,7.88681s0,10.45461 3.11804,11.37168s6.96974,-2.5678 8.43705,-7.88681s0,-10.27119 -3.11804,-11.37168z" id="svg_555"/>
    </g>
    <path stroke="null" fill="#c18972" d="m114.24766,160.39327c-6.60291,0 -15.77362,-5.1356 -23.47701,-15.77362s-12.83899,-29.89651 -11.55509,-41.08477s13.38923,-32.09748 35.21552,-32.09748s34.11503,20.90921 35.39893,32.09748s-5.50242,31.54723 -10.82143,40.53453s-18.158,16.32386 -24.76091,16.32386z" id="svg_556"/>
    <path stroke="null" fill="#c18972" d="m83.25067,251.73351c-2.93463,8.25364 -2.20097,22.55994 -1.10048,38.70039c1.2839,17.60776 7.51998,44.75305 4.76877,61.62715c-1.10048,6.60291 23.84384,8.43705 21.64287,-0.36683c-4.40194,-17.60776 -4.03511,-75.93346 5.50242,-75.93346c12.65558,0 17.05752,62.54422 13.93948,78.13443a158.46982,158.46982 0 0 0 21.09263,-0.18341c-3.66828,-15.77362 -0.36683,-50.98913 -0.36683,-64.92861c0,-11.18826 0.73366,-28.97944 -2.5678,-37.23307c-2.38438,0.73366 -60.34325,0.73366 -62.91105,0.18341z" id="svg_557"/>
    <path stroke="null" fill="#1a374a" d="m85.45164,242.74622c-7.88681,19.80873 -5.31901,46.03695 -5.1356,46.58719c6.96974,0 22.92677,-0.18341 29.34626,0c0.36683,-2.93463 2.75121,-8.80388 5.68584,-8.62046c4.21853,0 6.05267,5.50242 6.78632,8.80388c8.62046,0.18341 22.19311,0.18341 28.79602,-0.55024c0,-1.10048 0.36683,-36.316 -5.86925,-46.22037c-2.75121,0.55024 -54.29059,2.01756 -59.6096,0z" id="svg_558"/>
    <path stroke="null" fill="#d58ca1" d="m89.11992,173.04884l0,0c3.11804,3.11804 2.20097,8.25364 -2.38438,10.82143l-24.39408,13.57265c-5.1356,-2.75121 -9.17071,-6.78632 -10.45461,-12.28875l23.47701,-13.0224c4.76877,-2.38438 10.63802,-2.38438 13.75606,0.91707z" id="svg_559"/>
    <path stroke="null" fill="#c46a7d" d="m75.54727,175.0664c7.15315,12.47216 6.60291,21.64287 9.17071,44.75305c1.46731,12.83899 -4.21853,27.87895 -5.86925,38.51697c-0.36683,2.93463 11.18826,5.86925 35.94917,5.50242c24.94432,0.36683 36.49942,-2.5678 35.94917,-5.50242c-1.65073,-11.55509 -8.25364,-25.67798 -8.07022,-37.78331c0,-7.88681 0.73366,-31.91406 11.55509,-45.30329a151.64682,151.64682 0 0 0 -24.39408,-6.96974c-2.93463,2.20097 -8.62046,3.66828 -15.03996,3.66828s-12.10533,-1.46731 -15.03996,-3.66828a137.81739,137.81739 0 0 0 -24.21067,6.78632z" id="svg_560"/>
    <text stroke="null" x="-424.108" y="-108.02361" font-family="Roboto-Regular, Roboto" fill="#d58ca1" font-size="32.74" transform="matrix(1.90751 0 0 1.83414 513.376 257.244)" id="svg_561">A</text>
    <path stroke="null" fill="#98b5d8" d="m123.78519,363.0659l28.97944,0c4.03511,0 2.5678,-14.67313 -15.5902,-14.67313s-19.07507,14.67313 -13.38923,14.67313z" id="svg_562"/>
    <path stroke="null" opacity="0.4" fill="#c18972" d="m115.71497,135.63236c-6.78632,-0.91707 -5.50242,-5.1356 -5.68584,-9.17071c-1.83414,4.95218 -3.8517,9.53754 5.68584,9.17071z" id="svg_563"/>
    <path stroke="null" fill="#48320f" d="m134.2398,94.18076c-13.20582,-1.65073 -51.35596,5.31901 -50.6223,26.04481c-1.83414,-6.96974 -3.30145,-6.60291 -6.96974,-15.03996s8.07022,-32.64772 21.64287,-35.76576s24.76091,-5.68584 37.78331,7.70339s19.25849,30.26333 17.42434,31.36382s-5.31901,2.93463 -6.96974,10.45461c-0.91707,-6.4195 -7.33657,-9.90436 -12.28875,-24.76091z" id="svg_564"/>
    <path stroke="null" fill="#98b5d8" d="m83.98432,363.0659l28.97944,0c4.03511,0 2.5678,-14.67313 -15.5902,-14.67313s-19.07507,14.67313 -13.38923,14.67313z" id="svg_565"/>
    <path stroke="#6c84a7" stroke-width="1.2" stroke-linejoin="round" stroke-linecap="round" fill="none" d="m137.72467,366.9176" id="svg_566"/>
    <path stroke="#6c84a7" stroke-width="1.2" stroke-linejoin="round" stroke-linecap="round" fill="none" d="m137.72467,366.9176" id="svg_567"/>
    <path stroke="#6c84a7" stroke-width="1.2" stroke-linejoin="round" stroke-linecap="round" fill="none" d="m97.74038,366.9176" id="svg_568"/>
    <path stroke="#6c84a7" stroke-width="1.2" stroke-linejoin="round" stroke-linecap="round" fill="none" d="m97.74038,366.9176" id="svg_569"/>
    <path stroke="null" fill="#465d76" d="m80.13263,287.31586a134.13077,134.13077 0 0 0 29.71309,0c2.38438,-0.36683 3.8517,3.48487 0,3.8517a107.48069,107.48069 0 0 1 -29.71309,0c-3.66828,-0.55024 -2.38438,-4.21853 0,-3.8517z" id="svg_570"/>
    <path stroke="null" fill="#465d76" d="m121.21739,287.31586a134.13077,134.13077 0 0 0 29.71309,0c2.38438,-0.36683 3.8517,3.48487 0,3.8517a107.48069,107.48069 0 0 1 -29.71309,0c-3.8517,-0.55024 -2.38438,-4.21853 0,-3.8517z" id="svg_571"/>
    <path stroke="null" fill="#d58ca1" d="m135.70711,169.38056c-1.83414,-0.36683 -3.66828,-0.91707 -5.68584,-1.2839c-2.93463,2.38438 -8.62046,3.8517 -15.03996,3.8517s-12.10533,-1.65073 -15.03996,-3.8517c-1.83414,0.36683 -3.66828,0.73366 -5.68584,1.2839c3.48487,4.40194 11.37168,7.33657 20.54238,7.33657c9.53754,0.18341 17.42434,-2.93463 20.90921,-7.33657z" id="svg_572"/>
    <path stroke="null" fill="#48320f" d="m95.53941,171.58153c-0.36683,12.28875 -6.78632,26.96188 -20.35897,25.49457c5.31901,-4.21853 6.60291,-8.80388 4.21853,-18.70824c-4.95218,-21.09263 16.50727,-19.80873 16.14044,-6.78632z" id="svg_573"/>
    <g stroke="null" id="svg_574">
     <path stroke="null" fill="#6a83a7" d="m78.84873,162.22741c0,0.91707 -1.10048,2.38438 -0.73366,3.48487c0.91707,2.38438 9.53754,0.18341 9.35412,-3.30145c0,-3.8517 -7.51998,-5.31901 -8.80388,-4.03511c-0.91707,1.2839 0.18341,2.75121 0.18341,3.8517z" id="svg_575"/>
     <path stroke="null" fill="#6a83a7" d="m96.08966,162.22741c0,0.91707 1.10048,2.38438 0.73366,3.48487c-0.91707,2.38438 -9.53754,0.18341 -9.35412,-3.30145c0,-3.8517 7.51998,-5.31901 8.80388,-4.03511c0.91707,1.2839 -0.18341,2.75121 -0.18341,3.8517z" id="svg_576"/>
     <path stroke="null" fill="#98b5d8" d="m80.31604,162.41082c0,0.73366 -0.91707,2.01756 -0.55024,2.93463c0.73366,2.01756 7.70339,0.18341 7.70339,-2.75121c0,-3.30145 -6.23608,-4.40194 -7.15315,-3.30145c-0.91707,0.73366 0,2.20097 0,3.11804z" id="svg_577"/>
     <path stroke="null" fill="#98b5d8" d="m94.62234,162.41082c0,0.73366 0.91707,2.01756 0.55024,2.93463c-0.73366,2.01756 -7.70339,0.18341 -7.70339,-2.75121c0,-3.30145 6.23608,-4.40194 7.15315,-3.30145c0.91707,0.73366 0,2.20097 0,3.11804z" id="svg_578"/>
     <path stroke="null" fill="#6a83a7" d="m87.28578,166.0791a3.66828,3.66828 0 0 0 3.48487,-3.48487a3.37482,3.37482 0 0 0 -3.48487,-3.48487a3.48487,3.48487 0 1 0 0,6.96974z" id="svg_579"/>
     <path stroke="null" fill="#98b5d8" d="m87.28578,165.34545a2.93463,2.93463 0 1 0 -2.75121,-2.93463a2.86126,2.86126 0 0 0 2.75121,2.93463z" id="svg_580"/>
    </g>
    <path stroke="null" fill="#cd5d48" d="m122.13446,142.05185c0,4.21853 -3.8517,7.51998 -8.80388,7.51998s-8.80388,-3.30145 -8.80388,-7.51998" id="svg_581"/>
    <path stroke="null" fill="#fff" d="m118.09935,144.80306l-9.35412,0a2.51277,2.51277 0 0 1 -2.5678,-2.5678l0,-0.18341l14.48972,0l0,0.18341a2.51277,2.51277 0 0 1 -2.5678,2.5678z" id="svg_582"/>
    <path stroke="null" fill="#d58ca1" d="m142.67685,174.14933c-3.48487,2.75121 -2.93463,7.70339 1.65073,10.63802l24.79759,13.73772a7.72174,7.72174 0 0 0 10.25285,-10.01441l-22.39487,-14.17791a13.05909,13.05909 0 0 0 -7.55666,-2.21931a13.20582,13.20582 0 0 0 -6.74964,2.0359z" id="svg_583"/>
    <path stroke="null" fill="#48320f" d="m135.34028,171.58153c0.36683,12.28875 6.78632,26.96188 20.35897,25.49457c-5.31901,-4.21853 -6.60291,-8.80388 -4.21853,-18.70824c4.95218,-21.09263 -16.50727,-19.80873 -16.14044,-6.78632z" id="svg_584"/>
    <g stroke="null" id="svg_585">
     <path stroke="null" fill="#6a83a7" d="m152.03097,162.22741c0,0.91707 1.10048,2.38438 0.73366,3.48487c-0.91707,2.38438 -9.53754,0.18341 -9.35412,-3.30145c0,-3.8517 7.51998,-5.31901 8.80388,-4.03511c0.91707,1.2839 -0.18341,2.75121 -0.18341,3.8517z" id="svg_586"/>
     <path stroke="null" fill="#6a83a7" d="m134.60663,162.22741c0,0.91707 -1.10048,2.38438 -0.73366,3.48487c0.91707,2.38438 9.53754,0.18341 9.35412,-3.30145c0,-3.8517 -7.51998,-5.31901 -8.80388,-4.03511c-0.91707,1.2839 0.18341,2.75121 0.18341,3.8517z" id="svg_587"/>
     <path stroke="null" fill="#98b5d8" d="m150.38024,162.41082c0,0.73366 0.91707,2.01756 0.55024,2.93463c-0.73366,2.01756 -7.70339,0.18341 -7.70339,-2.75121c0,-3.30145 6.23608,-4.40194 7.15315,-3.30145c0.91707,0.73366 0,2.20097 0,3.11804z" id="svg_588"/>
     <path stroke="null" fill="#98b5d8" d="m136.25735,162.41082c0,0.73366 -0.91707,2.01756 -0.55024,2.93463c0.73366,2.01756 7.70339,0.18341 7.70339,-2.75121c0,-3.30145 -6.23608,-4.40194 -7.15315,-3.30145c-0.91707,0.73366 0,2.20097 0,3.11804z" id="svg_589"/>
     <path stroke="null" fill="#6a83a7" d="m143.59392,166.0791a3.66828,3.66828 0 0 0 3.48487,-3.48487a3.37482,3.37482 0 0 0 -3.48487,-3.48487a3.66828,3.66828 0 0 0 -3.48487,3.48487a3.48487,3.48487 0 0 0 3.48487,3.48487z" id="svg_590"/>
     <path stroke="null" fill="#98b5d8" d="m143.41051,165.34545a2.93463,2.93463 0 1 0 -2.75121,-2.93463a2.86126,2.86126 0 0 0 2.75121,2.93463z" id="svg_591"/>
    </g>
    <polygon stroke="null" fill="#fff" points="88.01941680908203,202.9453582763672 139.008544921875,202.9453582763672 135.34027099609375,197.6263427734375 91.87108612060547,197.6263427734375 88.01941680908203,202.9453582763672 " id="svg_592"/>
    <g stroke="null" id="svg_593">
     <path stroke="null" fill="#e3e3e3" d="m130.57152,199.09365l-16.14044,0l0,-0.18341l16.14044,0l0,0.18341z" id="svg_594"/>
     <path stroke="null" fill="#e3e3e3" d="m112.04669,199.09365l-16.14044,0l0.18341,-0.18341l16.14044,0a0.18341,0.18341 0 0 0 -0.18341,0.18341z" id="svg_595"/>
     <path stroke="null" fill="#e3e3e3" d="m131.48859,200.56096l-16.8741,0l0,-0.18341l16.8741,0l0,0.18341z" id="svg_596"/>
     <path stroke="null" fill="#e3e3e3" d="m111.86327,200.56096l-16.8741,0l0.18341,-0.18341l16.8741,0a0.18341,0.18341 0 0 0 -0.18341,0.18341z" id="svg_597"/>
     <path stroke="null" fill="#e3e3e3" d="m132.40566,202.02828l-17.97459,0l0,-0.18341l17.60776,0c0.36683,0 0.36683,0.18341 0.36683,0.18341z" id="svg_598"/>
     <path stroke="null" fill="#e3e3e3" d="m111.86327,202.02828l-17.97459,0l0.18341,-0.18341l17.60776,0a0.18341,0.18341 0 0 1 0.18341,0.18341z" id="svg_599"/>
    </g>
    <rect stroke="null" fill="#e3e3e3" height="0.91707" width="50.98913" y="202.94535" x="88.01943" id="svg_600"/>
    <path stroke="#e3e3e3" stroke-width="2.4" stroke-miterlimit="22.93" fill="none" d="m136.25735,202.57852c0.18341,-0.36683 1.2839,-0.73366 2.75121,-0.73366s2.75121,0.36683 2.75121,0.73366s-1.2839,0.73366 -2.75121,0.73366l-0.55024,0" id="svg_601"/>
    <path stroke="#e3e3e3" stroke-width="2.4" stroke-miterlimit="22.93" fill="none" d="m135.89053,200.56096c0.18341,-0.36683 1.2839,-0.73366 2.75121,-0.73366s2.75121,0.36683 2.75121,0.73366s-1.2839,0.73366 -2.75121,0.73366l-0.55024,0" id="svg_602"/>
    <g stroke="null" id="girl_arm2">
     <path stroke="null" fill="#c18972" d="m123.8769,191.44528l0.55024,0c0.36683,0 0.91707,0.18341 1.46731,0.16507c1.10048,0.18341 2.75121,0.34849 4.40194,0.5319s3.11804,0.33015 4.40194,0.33015l2.01756,0l-0.45854,10.82143a19.1301,19.1301 0 0 1 -2.20097,-0.16507a36.49942,36.49942 0 0 0 -4.76877,-0.33015c-1.65073,-0.16507 -3.50321,-0.5319 -4.78711,-0.51356c-0.55024,0 -1.10048,-0.18341 -1.46731,-0.16507l-0.55024,0a4.86047,4.86047 0 0 1 -3.66828,-6.21774a4.51199,4.51199 0 0 1 5.09891,-4.43862l-0.03668,-0.01834z" id="svg_605"/>
     <path stroke="null" fill="#d58ca1" d="m135.15687,204.02749l28.22744,-2.60448c23.66043,-1.2839 14.67313,-19.36853 -3.96175,-14.28796l-24.8893,5.70418s-0.3118,8.07022 0.62361,11.18826z" id="svg_606"/>
    </g>
    <g stroke="null" id="BRAZO_IZQ_NINA_1">
     <g stroke="null" id="svg_609">
      <g stroke="null" id="svg_610">
       <polygon stroke="null" fill="#ecbe31" points="94.80577087402344,184.05369567871094 96.4564437866211,182.95321655273438 107.64476013183594,199.27708435058594 105.99401092529297,200.3775634765625 94.80577087402344,184.05369567871094 " id="svg_611"/>
       <polygon stroke="null" fill="#7e7f7f" points="108.01162719726562,201.47802734375 107.64476013183594,199.27708435058594 105.99401092529297,200.3775634765625 108.01162719726562,201.47802734375 " id="svg_612"/>
      </g>
      <path stroke="null" fill="#fff" d="m96.45648,182.95321l-1.65073,1.10048c-0.36683,-0.73366 1.2839,-1.65073 1.65073,-1.10048z" id="svg_613"/>
     </g>
     <path stroke="null" fill="#c18972" d="m101.59208,189.3727l-0.55024,0c-0.36683,0 -0.91707,0.18341 -1.46731,0.18341c-1.10048,0.18341 -2.75121,0.18341 -4.40194,0.36683s-3.11804,0.18341 -4.40194,0.18341l-2.01756,0l-0.55024,10.08778a6.23608,6.23608 0 0 0 2.75121,0.73366c1.2839,0 3.11804,-0.18341 4.76877,-0.18341s3.48487,-0.36683 4.76877,-0.36683c0.73366,0 1.10048,-0.18341 1.46731,-0.18341l0.55024,0a5.15394,5.15394 0 0 0 4.21853,-6.05267a4.80545,4.80545 0 0 0 -5.1356,-4.76877z" id="svg_614"/>
     <path stroke="null" fill="#d58ca1" d="m88.9365,201.66145l-26.96188,-2.75121c-22.55994,-2.38438 -12.47216,-21.27604 4.21853,-15.03996l24.02725,7.15315a41.9835,41.9835 0 0 1 -1.2839,10.63802z" id="svg_615"/>
    </g>
    <g stroke="null" id="OJOS_3">
     <g stroke="null" id="svg_623">
      <g stroke="null" id="svg_624">
       <g stroke="null" id="svg_625">
        <path stroke="null" fill="#39281d" d="m103.42622,117.65777a4.76877,4.76877 0 0 1 -4.76877,4.95218a4.89716,4.89716 0 0 1 -5.1356,-4.58535a4.76877,4.76877 0 0 1 4.76877,-4.95218a4.9155,4.9155 0 0 1 5.1356,4.58535z" id="svg_626"/>
        <path stroke="null" fill="#fff" d="m101.40867,116.37387a1.24722,1.24722 0 0 1 -1.2839,1.2839a1.22887,1.22887 0 0 1 -1.2839,-1.10048a1.24722,1.24722 0 0 1 1.2839,-1.2839a1.02712,1.02712 0 0 1 1.2839,1.10048z" id="svg_627"/>
       </g>
       <g stroke="null" id="svg_628">
        <path stroke="null" fill="#39281d" d="m134.97346,117.65777a4.76877,4.76877 0 0 1 -4.76877,4.95218a4.89716,4.89716 0 0 1 -5.1356,-4.58535a4.76877,4.76877 0 0 1 4.76877,-4.95218a5.04389,5.04389 0 0 1 5.1356,4.58535z" id="svg_629"/>
        <path stroke="null" fill="#fff" d="m132.9559,116.37387a1.24722,1.24722 0 0 1 -1.2839,1.2839a1.22887,1.22887 0 0 1 -1.2839,-1.10048a1.24722,1.24722 0 0 1 1.2839,-1.2839a1.10048,1.10048 0 0 1 1.2839,1.10048z" id="svg_630"/>
       </g>
      </g>
      <path stroke="null" fill="#39281d" d="m91.32089,113.98949a4.43862,4.43862 0 0 0 4.21853,0.55024c-0.36683,0 -1.2839,1.46731 -1.65073,1.46731a3.4115,3.4115 0 0 1 -2.5678,-2.01756z" id="svg_631"/>
      <path stroke="null" fill="#39281d" d="m92.23796,112.70559a4.09014,4.09014 0 0 0 4.21853,0.91707c-0.36683,0 -1.46731,1.46731 -1.83414,1.2839c-1.65073,-0.55024 -2.38438,-1.65073 -2.38438,-2.20097z" id="svg_632"/>
      <path stroke="null" fill="#39281d" d="m136.8076,113.98949a4.43862,4.43862 0 0 1 -4.21853,0.55024c0.36683,0 1.2839,1.46731 1.65073,1.46731a3.4115,3.4115 0 0 0 2.5678,-2.01756z" id="svg_633"/>
      <path stroke="null" fill="#39281d" d="m136.07394,112.70559a4.09014,4.09014 0 0 1 -4.21853,0.91707c0.36683,0 1.46731,1.46731 1.83414,1.2839a3.52155,3.52155 0 0 0 2.38438,-2.20097z" id="svg_634"/>
     </g>
    </g>
    <g stroke="null" id="OJOS_3-2">
     <g stroke="null" id="svg_635">
      <g stroke="null" id="svg_636">
       <g stroke="null" id="svg_637">
        <path stroke="null" fill="#39281d" d="m103.42622,117.65777c0.18341,1.10048 -2.01756,2.20097 -4.76877,2.20097s-4.95218,-0.91707 -5.1356,-2.01756s2.01756,-2.20097 4.76877,-2.20097s5.1356,0.91707 5.1356,2.01756z" id="svg_638"/>
        <path stroke="null" fill="#fff" d="m101.40867,117.10753c0,0.36683 -0.55024,0.55024 -1.2839,0.55024s-1.2839,-0.18341 -1.2839,-0.55024s0.55024,-0.55024 1.2839,-0.55024s1.2839,0.18341 1.2839,0.55024z" id="svg_639"/>
       </g>
       <g stroke="null" id="svg_640">
        <path stroke="null" fill="#39281d" d="m134.97346,117.65777c0.18341,1.10048 -2.01756,2.20097 -4.76877,2.20097s-4.95218,-0.91707 -5.1356,-2.01756s2.01756,-2.20097 4.76877,-2.20097s4.95218,0.91707 5.1356,2.01756z" id="svg_641"/>
        <path stroke="null" fill="#fff" d="m132.9559,117.10753c0,0.36683 -0.55024,0.55024 -1.2839,0.55024s-1.2839,-0.18341 -1.2839,-0.55024s0.55024,-0.55024 1.2839,-0.55024s1.2839,0.18341 1.2839,0.55024z" id="svg_642"/>
       </g>
      </g>
      <path stroke="null" fill="#39281d" d="m91.32089,116.00704a8.62046,8.62046 0 0 0 4.21853,0.18341c-0.36683,0 -1.2839,0.73366 -1.65073,0.73366a4.42028,4.42028 0 0 1 -2.5678,-0.91707z" id="svg_643"/>
      <path stroke="null" fill="#39281d" d="m92.23796,115.4568a7.44661,7.44661 0 0 0 4.21853,0.36683c-0.36683,0 -1.46731,0.73366 -1.83414,0.55024c-1.65073,-0.18341 -2.38438,-0.73366 -2.38438,-0.91707z" id="svg_644"/>
      <path stroke="null" fill="#39281d" d="m136.8076,116.00704a8.62046,8.62046 0 0 1 -4.21853,0.18341c0.36683,0 1.2839,0.73366 1.65073,0.73366a4.42028,4.42028 0 0 0 2.5678,-0.91707z" id="svg_645"/>
      <path stroke="null" fill="#39281d" d="m136.07394,115.4568a7.44661,7.44661 0 0 1 -4.21853,0.36683c0.36683,0 1.46731,0.73366 1.83414,0.55024a3.66828,3.66828 0 0 0 2.38438,-0.91707z" id="svg_646"/>
     </g>
    </g>
   </g>
   <g stroke="null" id="MESA">
    <g stroke="null" id="svg_647">
     <g stroke="null" opacity="0.15" id="svg_648">
      <path stroke="null" fill="#000307" d="m207.42204,247.14816a46.01861,46.01861 0 0 1 3.30145,7.33657a47.13744,47.13744 0 0 1 2.38438,9.72095a58.34404,58.34404 0 0 1 0.73366,11.55509a64.85524,64.85524 0 0 1 -1.65073,12.83899a86.4064,86.4064 0 0 1 -4.58535,13.75606c-2.01756,4.76877 -4.21853,9.53754 -6.23608,14.3063a87.26845,87.26845 0 0 0 -4.76877,14.3063c-0.55024,2.38438 -0.91707,4.58535 -1.2839,6.96974s-0.55024,4.58535 -0.55024,6.78632a103.84909,103.84909 0 0 0 1.10048,24.39408c0.55024,3.66828 1.2839,6.78632 2.01756,9.72095a74.37444,74.37444 0 0 0 2.38438,7.51998a40.79131,40.79131 0 0 0 2.01756,4.58535c-4.58535,-0.36683 -9.90436,-0.36683 -15.22337,-0.36683c-3.48487,0 -7.15315,0.18341 -10.82143,0.36683a79.62008,79.62008 0 0 0 -11.18826,1.10048a65.46051,65.46051 0 0 0 -11.18826,3.48487c-3.66828,1.46731 -7.33657,2.93463 -10.82143,4.03511a40.62623,40.62623 0 0 1 -10.08778,1.46731a69.56899,69.56899 0 0 1 -8.98729,-0.55024a47.35753,47.35753 0 0 1 -7.70339,-1.83414a35.19717,35.19717 0 0 1 -5.86925,-2.5678a15.90201,15.90201 0 0 1 -3.48487,-2.38438a2.42107,2.42107 0 0 1 -1.10048,-1.10048l0,17.42434l238.98863,0l0,-17.42434a8.12525,8.12525 0 0 0 -1.83414,1.10048c-0.91707,0.55024 -2.38438,1.46731 -4.03511,2.38438a50.05372,50.05372 0 0 1 -6.05267,2.5678a43.17569,43.17569 0 0 1 -7.70339,1.83414a47.33919,47.33919 0 0 1 -8.98729,0.55024a40.62623,40.62623 0 0 1 -10.08778,-1.46731a98.51174,98.51174 0 0 1 -10.82143,-4.03511a60.76511,60.76511 0 0 0 -11.18826,-3.48487c-3.66828,-0.73366 -7.51998,-0.73366 -11.18826,-1.10048s-7.33657,-0.36683 -10.82143,-0.36683c-6.05267,0 -11.55509,0.18341 -16.69069,0.55024c0.55024,-1.10048 1.2839,-2.75121 2.01756,-4.58535a74.37444,74.37444 0 0 0 2.38438,-7.51998c0.73366,-2.93463 1.46731,-6.23608 2.01756,-9.72095a129.03185,129.03185 0 0 0 1.10048,-24.39408c-0.18341,-2.20097 -0.36683,-4.58535 -0.55024,-6.78632s-0.73366,-4.58535 -1.2839,-6.96974a87.26845,87.26845 0 0 0 -4.76877,-14.3063c-2.20097,-4.76877 -4.21853,-9.53754 -6.23608,-14.3063a75.60331,75.60331 0 0 1 -4.58535,-13.75606a64.85524,64.85524 0 0 1 -1.65073,-12.83899a59.26111,59.26111 0 0 1 0.73366,-11.55509a62.83769,62.83769 0 0 1 2.38438,-9.72095a71.53152,71.53152 0 0 1 3.30145,-7.33657c0.18341,-0.55024 0.55024,-1.10048 0.73366,-1.10048l-34.29845,0c0.18341,-0.18341 0.55024,0.55024 0.73366,0.91707z" id="svg_649"/>
      <polygon stroke="null" fill="#000307" points="68.76094055175781,246.04766845703125 206.68838500976562,246.04766845703125 240.98684692382812,246.04766845703125 380.7483825683594,246.04766845703125 380.7483825683594,234.30917358398438 68.76094055175781,234.30917358398438 68.76094055175781,246.04766845703125 " id="svg_650"/>
      <polygon stroke="null" fill="#000307" points="32.0781135559082,234.30917358398438 67.47703552246094,234.30917358398438 380.0147705078125,234.30917358398438 415.2303161621094,234.30917358398438 415.2303161621094,212.84970092773438 32.0781135559082,212.84970092773438 32.0781135559082,234.30917358398438 " id="svg_651"/>
      <polygon stroke="null" fill="#000307" points="422.2000427246094,205.32972717285156 26.57569122314453,205.32972717285156 26.57569122314453,218.71897888183594 32.62833786010742,218.71897888183594 414.86346435546875,218.71897888183594 422.2000427246094,218.71897888183594 422.2000427246094,205.32972717285156 " id="svg_652"/>
     </g>
     <g stroke="null" id="svg_653">
      <g stroke="null" id="svg_654">
       <path stroke="null" fill="#45585e" d="m205.5879,245.31402a46.01861,46.01861 0 0 1 3.30145,7.33657a47.13744,47.13744 0 0 1 2.38438,9.72095a58.34404,58.34404 0 0 1 0.73366,11.55509a64.85524,64.85524 0 0 1 -1.65073,12.83899a86.4064,86.4064 0 0 1 -4.58535,13.75606c-2.01756,4.76877 -4.21853,9.53754 -6.23608,14.3063a87.26845,87.26845 0 0 0 -4.76877,14.3063c-0.55024,2.38438 -0.91707,4.58535 -1.2839,6.96974s-0.55024,4.58535 -0.55024,6.78632a103.84909,103.84909 0 0 0 1.10048,24.39408c0.55024,3.66828 1.2839,6.78632 2.01756,9.72095a74.37444,74.37444 0 0 0 2.38438,7.51998a40.79131,40.79131 0 0 0 2.01756,4.58535c-4.58535,-0.36683 -9.90436,-0.36683 -15.22337,-0.36683c-3.48487,0 -7.15315,0.18341 -10.82143,0.36683a79.62008,79.62008 0 0 0 -11.18826,1.10048a65.46051,65.46051 0 0 0 -11.18826,3.48487c-3.66828,1.46731 -7.33657,2.93463 -10.82143,4.03511a40.62623,40.62623 0 0 1 -10.08778,1.46731a69.56899,69.56899 0 0 1 -8.98729,-0.55024a47.35753,47.35753 0 0 1 -7.70339,-1.83414a35.19717,35.19717 0 0 1 -5.86925,-2.5678a15.90201,15.90201 0 0 1 -3.48487,-2.38438a2.42107,2.42107 0 0 1 -1.10048,-1.10048l0,17.42434l238.98863,0l0,-17.42434a8.12525,8.12525 0 0 0 -1.83414,1.10048c-0.91707,0.55024 -2.38438,1.46731 -4.03511,2.38438a50.05372,50.05372 0 0 1 -6.05267,2.5678a43.17569,43.17569 0 0 1 -7.70339,1.83414a47.33919,47.33919 0 0 1 -8.98729,0.55024a40.62623,40.62623 0 0 1 -10.08778,-1.46731a98.51174,98.51174 0 0 1 -10.82143,-4.03511a60.76511,60.76511 0 0 0 -11.18826,-3.48487c-3.66828,-0.73366 -7.51998,-0.73366 -11.18826,-1.10048s-7.33657,-0.36683 -10.82143,-0.36683c-6.05267,0 -11.55509,0.18341 -16.69069,0.55024c0.55024,-1.10048 1.2839,-2.75121 2.01756,-4.58535a74.37444,74.37444 0 0 0 2.38438,-7.51998c0.73366,-2.93463 1.46731,-6.23608 2.01756,-9.72095a129.03185,129.03185 0 0 0 1.10048,-24.39408c-0.18341,-2.20097 -0.36683,-4.58535 -0.55024,-6.78632s-0.73366,-4.58535 -1.2839,-6.96974a87.26845,87.26845 0 0 0 -4.76877,-14.3063c-2.20097,-4.76877 -4.21853,-9.53754 -6.23608,-14.3063a75.60331,75.60331 0 0 1 -4.58535,-13.75606a64.85524,64.85524 0 0 1 -1.65073,-12.83899a59.26111,59.26111 0 0 1 0.73366,-11.55509a62.83769,62.83769 0 0 1 2.38438,-9.72095a71.53152,71.53152 0 0 1 3.30145,-7.33657c0.18341,-0.55024 0.55024,-1.10048 0.73366,-1.10048l-34.29845,0c0.18341,-0.18341 0.55024,0.55024 0.73366,0.91707z" id="svg_655"/>
       <polygon stroke="null" fill="#383b40" points="66.92681121826172,244.21353149414062 204.85426330566406,244.21353149414062 239.15274047851562,244.21353149414062 378.9142150878906,244.21353149414062 378.9142150878906,232.47503662109375 66.92681121826172,232.47503662109375 66.92681121826172,244.21353149414062 " id="svg_656"/>
       <polygon stroke="null" fill="#45585e" points="30.243976593017578,232.47503662109375 65.64289093017578,232.47503662109375 378.1806335449219,232.47503662109375 413.39617919921875,232.47503662109375 413.39617919921875,211.0155487060547 30.243976593017578,211.0155487060547 30.243976593017578,232.47503662109375 " id="svg_657"/>
       <polygon stroke="null" fill="#383b40" points="420.36590576171875,203.49559020996094 24.741554260253906,203.49559020996094 24.741554260253906,216.88482666015625 30.794200897216797,216.88482666015625 413.0293273925781,216.88482666015625 420.36590576171875,216.88482666015625 420.36590576171875,203.49559020996094 " id="svg_658"/>
      </g>
     </g>
    </g>
    <g stroke="null" id="svg_659">
     <g stroke="null" opacity="0.15" id="svg_660">
      <path stroke="null" fill="#000307" d="m220.07762,145.16989a3.79667,3.79667 0 0 0 -2.75121,-2.75121a4.49365,4.49365 0 0 0 -2.5678,-7.33657a5.08057,5.08057 0 0 0 -1.2839,-9.35412c1.65073,-3.48487 0,-8.80388 -4.95218,-8.80388a5.39238,5.39238 0 0 0 -5.1356,2.38438a6.93305,6.93305 0 0 0 -6.78632,-8.25364a6.56623,6.56623 0 0 0 -3.48487,0.73366l-0.18341,-0.18341a10.72973,10.72973 0 0 0 -1.83414,-3.11804a6.56623,6.56623 0 0 0 -4.03511,-2.01756c-0.73366,0 -1.2839,-0.18341 -2.01756,-0.18341a8.34534,8.34534 0 0 0 -3.66828,0.91707a7.33657,7.33657 0 0 0 -3.66828,6.23608a7.33657,7.33657 0 0 0 2.20097,5.1356a7.33657,7.33657 0 0 0 3.30145,1.83414a6.12603,6.12603 0 0 0 3.11804,0.18341a2.71453,2.71453 0 0 0 1.2839,-0.18341c0.55024,-0.18341 1.2839,-0.36683 1.83414,-0.55024a7.4833,7.4833 0 0 0 13.20582,2.75121a5.79589,5.79589 0 0 0 4.76877,6.4195a6.5112,6.5112 0 0 0 -0.36683,1.83414a5.31901,5.31901 0 0 0 4.76877,5.1356c-2.75121,2.01756 -2.38438,6.96974 1.2839,7.88681a3.66828,3.66828 0 0 0 -0.73366,1.46731a5.50242,5.50242 0 0 0 1.10048,5.50242a4.1635,4.1635 0 0 0 2.93463,1.10048a5.19062,5.19062 0 0 0 2.93463,-1.10048a6.91471,6.91471 0 0 0 0.73366,-5.68584z" id="svg_661"/>
      <path stroke="null" fill="#000307" d="m266.11457,102.06757a8.45539,8.45539 0 0 0 -1.65073,-3.11804a9.17071,9.17071 0 0 0 -2.38438,-2.20097a8.58378,8.58378 0 0 0 -6.4195,-0.73366a6.5112,6.5112 0 0 0 -1.65073,0.73366a8.96895,8.96895 0 0 0 -3.8517,3.48487a7.68505,7.68505 0 0 0 -1.10048,5.68584l-0.73366,0a8.69383,8.69383 0 0 0 -7.51998,4.21853a8.05188,8.05188 0 0 0 -0.73366,6.78632a7.46496,7.46496 0 0 0 -3.8517,13.0224a5.64916,5.64916 0 0 0 -1.83414,-0.18341c-7.51998,0 -8.98729,9.35412 -4.03511,12.65558a3.87004,3.87004 0 0 0 0.73366,1.83414a3.15472,3.15472 0 0 0 -2.75121,2.20097c0,0.36683 -0.18341,0.55024 -0.18341,0.91707a3.66828,3.66828 0 1 0 6.96974,0c0,-0.36683 -0.18341,-0.55024 -0.18341,-0.91707s-0.18341,-0.18341 -0.18341,-0.36683a3.66828,3.66828 0 0 0 3.30145,-1.83414a4.51199,4.51199 0 0 0 0.73366,-2.01756a7.33657,7.33657 0 0 0 0.91707,-10.82143a7.7951,7.7951 0 0 0 2.01756,0.36683a7.88681,7.88681 0 0 0 7.88681,-7.51998a2.32936,2.32936 0 0 0 -0.18341,-1.10048c0.55024,0 1.10048,-0.18341 1.46731,-0.18341a8.98729,8.98729 0 0 0 3.66828,-2.01756a17.20425,17.20425 0 0 0 1.65073,-2.20097a9.28076,9.28076 0 0 0 1.2839,-5.86925l0.73366,0a8.71217,8.71217 0 0 0 4.40194,-1.10048a8.47373,8.47373 0 0 0 3.11804,-3.11804a11.31665,11.31665 0 0 0 0.36683,-6.60291z" id="svg_662"/>
      <path stroke="null" fill="#000307" d="m226.49711,139.66747a5.74086,5.74086 0 0 0 1.65073,-2.01756a6.62125,6.62125 0 0 0 0.55024,-4.95218a4.54867,4.54867 0 0 0 -2.93463,-3.11804c8.43705,-1.46731 8.80388,-13.38923 1.2839,-15.95703a6.38281,6.38281 0 0 0 -1.2839,-10.45461a5.06223,5.06223 0 0 0 -0.73366,-10.08778c-5.86925,0 -6.60291,7.51998 -2.5678,9.72095a6.14437,6.14437 0 0 0 -2.75121,11.37168c-6.23608,3.30145 -5.31901,14.12289 2.5678,15.40679a4.54867,4.54867 0 0 0 -2.93463,3.11804a6.1994,6.1994 0 0 0 0.36683,4.76877a5.15394,5.15394 0 0 0 1.83414,2.20097a5.70418,5.70418 0 1 0 8.25364,5.1356a5.64916,5.64916 0 0 0 -3.30145,-5.1356z" id="svg_663"/>
      <polygon stroke="null" fill="#000307" points="231.0824432373047,206.06338500976562 213.47474670410156,206.06338500976562 206.87176513671875,148.2879180908203 237.1351318359375,148.2879180908203 231.0824432373047,206.06338500976562 " id="svg_664"/>
      <path stroke="null" fill="#000307" d="m242.08732,110.68803a3.20975,3.20975 0 0 1 -5.86925,-1.2839a3.06302,3.06302 0 0 0 -1.65073,5.68584c-3.66828,2.20097 -2.75121,8.98729 2.5678,8.98729a4.6037,4.6037 0 0 0 4.58535,-6.05267l0.36683,0c6.05267,0 6.05267,-7.33657 0,-7.33657z" id="svg_665"/>
      <path stroke="null" fill="#000307" d="m225.21322,88.86175a3.75999,3.75999 0 0 0 -2.5678,1.46731a3.04467,3.04467 0 0 0 -3.11804,-2.75121a3.06302,3.06302 0 0 0 -1.65073,5.68584c-3.66828,2.20097 -2.75121,8.98729 2.5678,8.98729a4.67706,4.67706 0 0 0 4.58535,-6.05267l0.18341,0c6.78632,0 6.78632,-7.33657 0,-7.33657z" id="svg_666"/>
      <path stroke="null" fill="#000307" d="m216.77616,120.77581a2.82458,2.82458 0 0 0 -2.75121,1.46731a3.19141,3.19141 0 1 0 -5.1356,2.93463c-3.66828,2.20097 -2.75121,8.98729 2.5678,8.98729a4.71374,4.71374 0 0 0 4.76877,-6.05267l0.36683,0c6.23608,0 6.23608,-7.33657 0.18341,-7.33657z" id="svg_667"/>
      <path stroke="null" fill="#000307" d="m205.5879,107.56999a2.58614,2.58614 0 0 0 -2.5678,-1.83414c-0.36683,0 -0.91707,0.18341 -1.10048,0.18341a2.97131,2.97131 0 0 0 -2.93463,-2.20097a3.00799,3.00799 0 0 0 -2.93463,3.66828l0,0.18341a1.39395,1.39395 0 0 0 0.18341,0.73366a1.83414,1.83414 0 0 0 1.10048,1.83414a4.45696,4.45696 0 0 0 -1.65073,3.30145a4.31023,4.31023 0 0 0 4.40194,4.21853a4.43862,4.43862 0 0 0 4.40194,-4.21853c0,-0.18341 -0.18341,-0.36683 -0.18341,-0.55024l0.18341,0c0.55024,0.18341 1.2839,0.36683 1.2839,0.36683c4.03511,0 4.21853,-5.50242 -0.18341,-5.68584z" id="svg_668"/>
     </g>
     <g stroke="null" id="svg_669">
      <g stroke="null" id="svg_670">
       <path stroke="null" fill="#a3bc64" d="m218.24348,143.33575a3.79667,3.79667 0 0 0 -2.75121,-2.75121a4.49365,4.49365 0 0 0 -2.5678,-7.33657a5.08057,5.08057 0 0 0 -1.2839,-9.35412c1.65073,-3.48487 0,-8.80388 -4.95218,-8.80388a5.39238,5.39238 0 0 0 -5.1356,2.38438a6.93305,6.93305 0 0 0 -6.78632,-8.25364a6.56623,6.56623 0 0 0 -3.48487,0.73366l-0.18341,-0.18341a10.72973,10.72973 0 0 0 -1.83414,-3.11804a6.56623,6.56623 0 0 0 -4.03511,-2.01756c-0.73366,0 -1.2839,-0.18341 -2.01756,-0.18341a8.34534,8.34534 0 0 0 -3.66828,0.91707a7.33657,7.33657 0 0 0 -3.66828,6.23608a7.33657,7.33657 0 0 0 2.20097,5.1356a7.33657,7.33657 0 0 0 3.30145,1.83414a6.12603,6.12603 0 0 0 3.11804,0.18341a2.71453,2.71453 0 0 0 1.2839,-0.18341c0.55024,-0.18341 1.2839,-0.36683 1.83414,-0.55024a7.4833,7.4833 0 0 0 13.20582,2.75121a5.79589,5.79589 0 0 0 4.76877,6.4195a6.5112,6.5112 0 0 0 -0.36683,1.83414a5.31901,5.31901 0 0 0 4.76877,5.1356c-2.75121,2.01756 -2.38438,6.96974 1.2839,7.88681a3.66828,3.66828 0 0 0 -0.73366,1.46731a5.50242,5.50242 0 0 0 1.10048,5.50242a4.1635,4.1635 0 0 0 2.93463,1.10048a5.19062,5.19062 0 0 0 2.93463,-1.10048a6.91471,6.91471 0 0 0 0.73366,-5.68584z" id="svg_671"/>
       <path stroke="null" fill="#a3bc64" d="m264.28043,100.23343a8.45539,8.45539 0 0 0 -1.65073,-3.11804a9.17071,9.17071 0 0 0 -2.38438,-2.20097a8.58378,8.58378 0 0 0 -6.4195,-0.73366a6.5112,6.5112 0 0 0 -1.65073,0.73366a8.96895,8.96895 0 0 0 -3.8517,3.48487a7.68505,7.68505 0 0 0 -1.10048,5.68584l-0.73366,0a8.69383,8.69383 0 0 0 -7.51998,4.21853a8.05188,8.05188 0 0 0 -0.73366,6.78632a7.46496,7.46496 0 0 0 -3.8517,13.0224a5.64916,5.64916 0 0 0 -1.83414,-0.18341c-7.51998,0 -8.98729,9.35412 -4.03511,12.65558a3.87004,3.87004 0 0 0 0.73366,1.83414a3.15472,3.15472 0 0 0 -2.75121,2.20097c0,0.36683 -0.18341,0.55024 -0.18341,0.91707a3.66828,3.66828 0 1 0 6.96974,0c0,-0.36683 -0.18341,-0.55024 -0.18341,-0.91707s-0.18341,-0.18341 -0.18341,-0.36683a3.66828,3.66828 0 0 0 3.30145,-1.83414a4.51199,4.51199 0 0 0 0.73366,-2.01756a7.33657,7.33657 0 0 0 0.91707,-10.82143a7.7951,7.7951 0 0 0 2.01756,0.36683a7.88681,7.88681 0 0 0 7.88681,-7.51998a2.32936,2.32936 0 0 0 -0.18341,-1.10048c0.55024,0 1.10048,-0.18341 1.46731,-0.18341a8.98729,8.98729 0 0 0 3.66828,-2.01756a17.20425,17.20425 0 0 0 1.65073,-2.20097a9.28076,9.28076 0 0 0 1.2839,-5.86925l0.73366,0a8.71217,8.71217 0 0 0 4.40194,-1.10048a8.47373,8.47373 0 0 0 3.11804,-3.11804a11.31665,11.31665 0 0 0 0.36683,-6.60291z" id="svg_672"/>
       <path stroke="null" fill="#899e73" d="m224.66297,137.83333a5.74086,5.74086 0 0 0 1.65073,-2.01756a6.62125,6.62125 0 0 0 0.55024,-4.95218a4.54867,4.54867 0 0 0 -2.93463,-3.11804c8.43705,-1.46731 8.80388,-13.38923 1.2839,-15.95703a6.38281,6.38281 0 0 0 -1.2839,-10.45461a5.06223,5.06223 0 0 0 -0.73366,-10.08778c-5.86925,0 -6.60291,7.51998 -2.5678,9.72095a6.14437,6.14437 0 0 0 -2.75121,11.37168c-6.23608,3.30145 -5.31901,14.12289 2.5678,15.40679a4.54867,4.54867 0 0 0 -2.93463,3.11804a6.1994,6.1994 0 0 0 0.36683,4.76877a5.15394,5.15394 0 0 0 1.83414,2.20097a5.70418,5.70418 0 1 0 8.25364,5.1356a5.64916,5.64916 0 0 0 -3.30145,-5.1356z" id="svg_673"/>
       <polygon stroke="null" fill="#e9c08f" points="229.24832153320312,204.22923278808594 211.640625,204.22923278808594 205.0376434326172,146.4537811279297 235.30096435546875,146.4537811279297 229.24832153320312,204.22923278808594 " id="svg_674"/>
       <path stroke="null" fill="#d37f52" d="m240.25318,108.85389a3.20975,3.20975 0 0 1 -5.86925,-1.2839a3.06302,3.06302 0 0 0 -1.65073,5.68584c-3.66828,2.20097 -2.75121,8.98729 2.5678,8.98729a4.6037,4.6037 0 0 0 4.58535,-6.05267l0.36683,0c6.05267,0 6.05267,-7.33657 0,-7.33657z" id="svg_675"/>
       <path stroke="null" fill="#d37f52" d="m223.37907,87.02761a3.75999,3.75999 0 0 0 -2.5678,1.46731a3.04467,3.04467 0 0 0 -3.11804,-2.75121a3.06302,3.06302 0 0 0 -1.65073,5.68584c-3.66828,2.20097 -2.75121,8.98729 2.5678,8.98729a4.67706,4.67706 0 0 0 4.58535,-6.05267l0.18341,0c6.78632,0 6.78632,-7.33657 0,-7.33657z" id="svg_676"/>
       <path stroke="null" fill="#d37f52" d="m214.94202,118.94167a2.82458,2.82458 0 0 0 -2.75121,1.46731a3.19141,3.19141 0 1 0 -5.1356,2.93463c-3.66828,2.20097 -2.75121,8.98729 2.5678,8.98729a4.71374,4.71374 0 0 0 4.76877,-6.05267l0.36683,0c6.23608,0 6.23608,-7.33657 0.18341,-7.33657z" id="svg_677"/>
       <path stroke="null" fill="#d37f52" d="m203.75376,105.73585a2.58614,2.58614 0 0 0 -2.5678,-1.83414c-0.36683,0 -0.91707,0.18341 -1.10048,0.18341a2.97131,2.97131 0 0 0 -2.93463,-2.20097a3.00799,3.00799 0 0 0 -2.93463,3.66828l0,0.18341a1.39395,1.39395 0 0 0 0.18341,0.73366a1.83414,1.83414 0 0 0 1.10048,1.83414a4.45696,4.45696 0 0 0 -1.65073,3.30145a4.31023,4.31023 0 0 0 4.40194,4.21853a4.43862,4.43862 0 0 0 4.40194,-4.21853c0,-0.18341 -0.18341,-0.36683 -0.18341,-0.55024l0.18341,0c0.55024,0.18341 1.2839,0.36683 1.2839,0.36683c4.03511,0 4.21853,-5.50242 -0.18341,-5.68584z" id="svg_678"/>
      </g>
     </g>
    </g>
   </g>
  </g>
 </g>
</svg>