<?xml version="1.0" encoding="utf-8"?>
<!-- Generator: Adobe Illustrator 17.0.0, SVG Export Plug-In . SVG Version: 6.00 Build 0)  -->
<!DOCTYPE svg PUBLIC "-//W3C//DTD SVG 1.1//EN" "http://www.w3.org/Graphics/SVG/1.1/DTD/svg11.dtd">
<svg version="1.1" id="Layer_1" xmlns="http://www.w3.org/2000/svg" xmlns:xlink="http://www.w3.org/1999/xlink" x="0px" y="0px"
	 width="300px" height="300px" viewBox="0 0 300 300" enable-background="new 0 0 300 300" xml:space="preserve">
<path fill="#BBC9CE" stroke="#000000" stroke-linecap="round" stroke-linejoin="round" stroke-miterlimit="10" d="M119.604,143.357
	c0.982-0.693,6.143-3.879,7.032-5.415c0.889-1.536,5.658-12.366,7.112-15.033c1.455-2.667,8.001-8.567,10.749-9.456
	c2.748-0.889,2.182,0.889,1.536,1.616c-0.647,0.727-5.981,4.769-6.789,7.032s-1.455,8.567-0.727,11.477s0.242,3.96,3.233,3.718
	s4.041-0.485,6.385,0.242c2.344,0.727,5.9,1.536,8.244,1.374c2.344-0.162,6.304,1.051,10.103,2.91
	c3.799,1.859-14.063,3.233-19.721,3.233C141.103,145.054,115.901,145.971,119.604,143.357z"/>
<path fill="none" stroke="#000000" stroke-linecap="round" stroke-linejoin="round" stroke-miterlimit="10" d="M125.908,143.033
	c0,0,4.769-6.708,4.849-9.618s1.741-8.061,2.366-9.284"/>
<path fill="none" stroke="#000000" stroke-linecap="round" stroke-linejoin="round" stroke-miterlimit="10" d="M131.081,141.659
	c1.697-3.637,3.879-16.973,5.011-18.751c1.132-1.778,4.827-3.232,5.799-4.14"/>
<path fill="none" stroke="#000000" stroke-linecap="round" stroke-linejoin="round" stroke-miterlimit="10" d="M134.233,142.064
	c1.212-2.505,3.799-7.678,4.284-8.486"/>
<path fill="none" stroke="#000000" stroke-linecap="round" stroke-linejoin="round" stroke-miterlimit="10" d="M141.891,140.609
	c0.586-0.889,1.811-3.105,2.532-3.533"/>
<path fill="none" stroke="#000000" stroke-linecap="round" stroke-linejoin="round" stroke-miterlimit="10" d="M147.165,141.659
	c0.404-0.081,4.126-2.772,4.569-3.204"/>
<path fill="#BBC9CE" stroke="#000000" stroke-linecap="round" stroke-linejoin="round" stroke-miterlimit="10" d="M235.584,152.813
	c1.389-0.529,6.385-3.718,6.304-4.284c-0.081-0.566-3.475-1.051-4.93-0.404c-1.455,0.647-4.526,4.122-5.738,4.688
	C230.008,153.379,233.887,153.46,235.584,152.813z"/>
<path fill="#BBC9CE" stroke="#000000" stroke-linecap="round" stroke-linejoin="round" stroke-miterlimit="10" d="M251.587,155.642
	c0.364-1.275,2.263-2.682,3.718-5.099c1.455-2.417,9.456-12.924,11.234-14.379c1.778-1.455,6.062-4.364,7.759-4.849
	c1.697-0.485,3.071-0.485,1.616,1.051c-1.455,1.536-5.092,6.789-6.142,8.81c-1.051,2.021-4.364,8.18-4.93,9.586
	c-0.566,1.406-2.667,9.488-1.778,11.59c0.889,2.101,2.425,5.092,3.799,7.032c1.374,1.94,2.91,5.496,3.637,7.032
	c0.727,1.536,1.051,3.233,2.263,4.607s3.152,3.395,2.667,3.637c-0.485,0.242-5.9-2.344-7.274-3.395
	c-1.374-1.051-10.022-8.971-10.83-10.426s-4.364-6.385-5.738-8.001C250.213,161.218,251.102,157.339,251.587,155.642z"/>
<linearGradient id="SVGID_1_" gradientUnits="userSpaceOnUse" x1="175.4857" y1="163.0965" x2="175.4857" y2="139.5335">
	<stop  offset="0" style="stop-color:#EEEBE7"/>
	<stop  offset="1" style="stop-color:#1B1C1D"/>
</linearGradient>
<path fill="url(#SVGID_1_)" stroke="#000000" stroke-linecap="round" stroke-linejoin="round" stroke-miterlimit="10" d="
	M94.792,152.086c0.731-0.531,5.496-2.425,6.627-2.748s4.607-0.485,5.819-1.374s11.719-6.223,17.538-7.355
	c5.819-1.132,22.725-1.459,31.278-0.552c8.553,0.907,25.459,3.138,28.126,3.461c2.667,0.323,27.641,4.152,30.308,4.298
	c2.667,0.147,21.256,4.026,24.651,4.269c3.395,0.242,11.625,2.93,12.925,2.637s1.865-1.667,2.835-0.455
	c0.97,1.212,2.667,4.203,1.536,5.334c-1.132,1.132-21.418,1.94-35.077,1.94c-13.659,0-37.178,2.021-47.119,1.455
	c-9.941-0.566-59.809-4.526-65.224-4.769C103.601,157.986,91.236,154.672,94.792,152.086z"/>
<linearGradient id="SVGID_2_" gradientUnits="userSpaceOnUse" x1="23.4718" y1="165.1589" x2="256.9295" y2="165.1589">
	<stop  offset="0" style="stop-color:#BBC9CE"/>
	<stop  offset="1" style="stop-color:#FFFFFF"/>
</linearGradient>
<path fill="url(#SVGID_2_)" stroke="#000000" stroke-linecap="round" stroke-linejoin="round" stroke-miterlimit="10" d="
	M111.36,154.187c-1.127,0.096-5.173,0.727-6.385,0c-1.212-0.727-6.358-3.539-7.328-3.426c-0.97,0.113-8.998,4.316-11.504,4.962
	s-16.003,3.475-19.317,3.556s-23.843,1.536-26.995,1.051c-3.152-0.485-14.952-0.808-15.922-0.889
	c-0.97-0.081-0.323,0.602,1.859,0.988s13.417,1.356,16.892,1.518s23.115,0.242,27.803,0c4.688-0.242,19.074-1.051,22.954-0.647
	s13.174,2.505,12.366,2.829s-11.638,1.697-14.306,1.455c-2.667-0.242-4.203,0.647-3.233,1.051c0.97,0.404,9.86,2.99,11.962,3.556
	c2.101,0.566,7.678,2.586,11.154,3.152s21.008,4.445,31.76,5.577s28.695,0.808,37.666-1.293c8.971-2.101,28.207-5.981,33.299-6.87
	s18.023-5.011,21.337-5.011s12.689-2.182,13.982-2.263c1.293-0.081,3.799,0.727,5.173,0.323s2.771-4.203,2.234-4.607
	c-0.537-0.404-3.446-0.162-5.386-0.242c-1.94-0.081-10.749-1.725-12.689-1.105s-8.486,2.156-10.507,2.156
	c-2.021,0-18.912-2.21-22.711-2.156c-3.799,0.054-6.304-0.835-14.467-1.077s-13.659-0.404-18.751-0.242
	c-5.092,0.162-10.264-0.647-17.377-0.404c-7.112,0.242-19.882,1.778-24.57,0.404C125.666,155.157,114.672,153.905,111.36,154.187z"
	/>
<path fill="none" stroke="#000000" stroke-linecap="round" stroke-linejoin="round" stroke-miterlimit="10" d="M93.494,154.703
	c-1.775,0.654-6.261,2.336-5.794,2.803c0.467,0.467,6.448,1.24,7.289,1.788"/>
<path fill="#EFF3E3" stroke="#000000" stroke-linecap="round" stroke-linejoin="round" stroke-miterlimit="10" d="M101.985,151.924
	c-1.845-0.692-4.445,0.485-4.769,2.263c-0.323,1.778,0.081,4.93,2.91,5.092c2.829,0.162,4.564-0.903,4.93-2.91
	C105.422,154.362,103.278,152.409,101.985,151.924z"/>
<path fill="#070809" stroke="#000000" stroke-linecap="round" stroke-linejoin="round" stroke-miterlimit="10" d="M101.11,154.118
	c-0.664,0.056-1.392,0.46-1.446,1.217c-0.054,0.758,0.406,1.136,1.109,1.163c0.703,0.027,1.082-0.766,1.163-1.194
	C102.017,154.875,101.566,154.079,101.11,154.118z"/>
<linearGradient id="SVGID_3_" gradientUnits="userSpaceOnUse" x1="114.7532" y1="172.6659" x2="114.7532" y2="147.6771">
	<stop  offset="0" style="stop-color:#FFFFFF"/>
	<stop  offset="1" style="stop-color:#5D6466"/>
</linearGradient>
<path fill="url(#SVGID_3_)" stroke="#000000" stroke-linecap="round" stroke-linejoin="round" stroke-miterlimit="10" d="
	M118.517,147.677c-0.253-0.003-6.917,2.292-7.667,2.833s-1.458,1.333-0.542,2.667c0.917,1.333,4,8.797,3.292,9.919
	c-0.708,1.122-2.917,2.456-3.292,2.956s-1.292,0.958-2.625,1.542c-1.333,0.583-6.564,2.623-6.324,2.937s5.949,2.563,9.449,2.063
	s8.833-2.375,10.25-3.208c1.417-0.833,6.625-3.917,7-5.625c0.375-1.708-0.458-3.708-0.75-5.417c-0.292-1.708-0.542-5.25-0.875-5.917
	C126.101,151.76,121.684,147.719,118.517,147.677z"/>
<linearGradient id="SVGID_4_" gradientUnits="userSpaceOnUse" x1="145.1019" y1="178.8711" x2="145.1019" y2="166.6445">
	<stop  offset="0" style="stop-color:#FFFFFF"/>
	<stop  offset="1" style="stop-color:#8B9C9E"/>
</linearGradient>
<path fill="url(#SVGID_4_)" stroke="#000000" stroke-linecap="round" stroke-linejoin="round" stroke-miterlimit="10" d="
	M130.059,168.344c-1.002,0.053-1.75,1.292-0.958,1.5c0.792,0.208,2.833,0.833,2.917,1.917c0.083,1.083,0.75,2.958,1.917,3.917
	c1.167,0.958,3.127,3.484,4.542,3.167c1.414-0.317,2.542-0.5,2.708-1.542c0.167-1.042-0.208-2.125,1.458-3.458
	c1.667-1.333,2.125-2.167,5.583-2.667s5.875-1.208,6.792-0.667c0.917,0.542,6.5,3.375,6.417,2.833
	c-0.083-0.542-4.583-4.708-7.25-5.375c-2.667-0.667-10.25-1.5-13.25-1.292C137.934,166.885,131.642,168.26,130.059,168.344z"/>
<path fill="none" stroke="#000000" stroke-linecap="round" stroke-linejoin="round" stroke-miterlimit="10" d="M130.472,170.31
	c0.712-0.3,10.003-2.341,12.712-2.341c2.708,0,10.984-0.05,11.453,0.141"/>
<path fill="none" stroke="#000000" stroke-linecap="round" stroke-linejoin="round" stroke-miterlimit="10" d="M131.93,171.446
	c1.17-0.311,13.86-1.595,17.973-0.536"/>
<path fill="none" stroke="#000000" stroke-linecap="round" stroke-linejoin="round" stroke-miterlimit="10" d="M132.206,172.758
	c1.144-0.081,9.977,0.544,10.436,1.086"/>
<path fill="none" stroke="#000000" stroke-linecap="round" stroke-linejoin="round" stroke-miterlimit="10" d="M132.71,174.06
	c1.474,0.492,7.301,3.106,7.679,4.237"/>
<path fill="#8B9C9E" stroke="#000000" stroke-linecap="round" stroke-linejoin="round" stroke-miterlimit="10" d="M216.236,170.306
	c-1.422,0.132-26.669,4.992-25.757,5.181s3.079,1.606,4.163,2.231c1.083,0.625,10.333,7.583,14.917,8.333
	c4.583,0.75,10.958,1,11.292,0.417c0.333-0.583-0.875-2.417-1.583-3.25c-0.708-0.833-4.458-2-4.333-5.167
	c0.125-3.167,0.125-4.625,1.333-5.125c1.208-0.5,2.583-0.542,2.083-1.083C217.851,171.302,216.792,170.255,216.236,170.306z"/>
<path fill="none" stroke="#000000" stroke-linecap="round" stroke-linejoin="round" stroke-miterlimit="10" d="M216.142,185.51
	c-1.208-0.542-16.042-6.833-17.333-7.708c-1.292-0.875-3.366-2.665-3.704-3.437"/>
<path fill="none" stroke="#000000" stroke-linecap="round" stroke-linejoin="round" stroke-miterlimit="10" d="M215.476,182.135
	c-1.833-0.583-12.667-4.708-13.5-5.375s-3.322-2.359-3.661-3.054"/>
<path fill="none" stroke="#000000" stroke-linecap="round" stroke-linejoin="round" stroke-miterlimit="10" d="M212.976,178.719
	c-1.167-1.042-8.977-4.222-10.51-5.84"/>
<path fill="none" stroke="#000000" stroke-linecap="round" stroke-linejoin="round" stroke-miterlimit="10" d="M213.434,175.302
	c-0.458-0.625-4.843-2.305-5.713-3.444"/>
<path fill="none" stroke="#000000" stroke-linecap="round" stroke-linejoin="round" stroke-miterlimit="10" d="M215.445,173.706
	c-0.511-0.571-2.511-2.031-3.011-2.738"/>
<path fill="#8B9C9E" stroke="#000000" stroke-linecap="round" stroke-linejoin="round" stroke-miterlimit="10" d="M232.826,166.097
	c-0.386,0.058-4.85,0.626-4.433,1.04c0.416,0.414,6.083,3.829,6.708,3.83s0.344-0.874,1.339-0.874c0.994,0,1.661-0.333,1.203-0.917
	C237.184,168.594,233.53,165.991,232.826,166.097z"/>
<path fill="none" stroke="#000000" stroke-linecap="round" stroke-linejoin="round" stroke-miterlimit="10" d="M235.806,170.304
	c-0.581-0.544-4.759-3.537-5.191-3.874"/>
</svg>
