<?xml version="1.0" encoding="utf-8"?>
<!-- Generator: Adobe Illustrator 16.0.0, SVG Export Plug-In . SVG Version: 6.00 Build 0)  -->
<!DOCTYPE svg PUBLIC "-//W3C//DTD SVG 1.1//EN" "http://www.w3.org/Graphics/SVG/1.1/DTD/svg11.dtd">
<svg version="1.1" id="Layer_1" xmlns="http://www.w3.org/2000/svg" xmlns:xlink="http://www.w3.org/1999/xlink" x="0px" y="0px"
	 width="100px" height="100px" viewBox="0 0 100 100" enable-background="new 0 0 100 100" xml:space="preserve">
<g>
	<g>
		<g>
			<path fill="#473441" d="M3.419,71.732v-1.962l1.317,0.125c0.016-0.01,0.03-0.02,0.046-0.029L60.635,37.62
				c1.649-0.952,4.168-1.056,5.596-0.232l30.572,17.651h1.711l-0.006,1.756c0.002,0.032,0,0.064,0,0.097v0.001l0,0
				c-0.01,0.631-0.469,1.293-1.361,1.809L41.295,90.947c-1.649,0.951-4.167,1.055-5.596,0.23L4.381,73.098
				C3.75,72.732,3.434,72.244,3.419,71.732z"/>
			<path fill="#70596B" d="M4.381,71.139l31.318,18.082c1.429,0.824,3.946,0.719,5.596-0.232l55.852-32.246
				c1.65-0.952,1.83-2.406,0.402-3.23L66.23,35.43c-1.428-0.825-3.946-0.72-5.596,0.232L4.783,67.908
				C3.133,68.86,2.953,70.314,4.381,71.139z"/>
			<path fill="#997E94" d="M5.372,70.92l30.625,17.744c1.339,0.773,3.701,0.676,5.247-0.217l55.227-31.762
				c1.547-0.893,1.717-2.256,0.377-3.029L66.223,35.912c-1.339-0.773-3.699-0.675-5.246,0.217L5.748,67.891
				C4.202,68.783,4.032,70.146,5.372,70.92z"/>
			<polygon fill="#70596B" points="62.912,37.198 93.836,55.051 85.631,59.766 41.287,85.256 18.567,72.139 10.364,67.402 			"/>
			<path fill="#FFFFFF" d="M62.723,36.347l32.465,18.763l-8.521,4.898L41.173,86.209L8.708,67.445L62.723,36.347z M41.287,85.256
				l44.344-25.49l8.205-4.715L62.912,37.198L10.364,67.402l8.203,4.736L41.287,85.256z"/>
			<path fill="#FFFFFF" d="M18.988,77.867l3.215,1.855c0.603,0.348,1.666,0.305,2.362-0.098l0,0c0.696-0.4,0.772-1.016,0.169-1.363
				l-3.216-1.857c-0.603-0.348-1.666-0.303-2.362,0.099l0,0C18.461,76.904,18.385,77.52,18.988,77.867z"/>
			<ellipse fill="#FFFFFF" cx="79.239" cy="44.636" rx="0.702" ry="0.421"/>
			<ellipse fill="#FFFFFF" cx="77.211" cy="43.42" rx="0.506" ry="0.303"/>
		</g>
		<g>
			<g>
				<polygon fill="#FFFFFF" points="33.864,70.947 31.656,72.213 30.76,71.695 32.968,70.43 				"/>
				<polygon fill="#FFFFFF" points="35.186,71.711 32.978,72.976 32.082,72.459 34.29,71.193 				"/>
				<path fill="#FFFFFF" d="M41.755,73.549l2.438,1.396l-0.156,0.092c-0.936,0.539-2.195,0.838-3.547,0.838
					c-1.598,0-3.166-0.396-4.417-1.113l2.4-1.376C39.547,73.688,40.754,73.747,41.755,73.549z"/>
				<polygon fill="#FFFFFF" points="36.532,72.488 34.325,73.753 33.404,73.221 35.611,71.957 				"/>
				<polygon fill="#FFFFFF" points="29.874,68.644 27.666,69.909 26.77,69.392 28.978,68.127 				"/>
				<path fill="#FFFFFF" d="M37.152,72.847c0.24,0.138,0.502,0.257,0.777,0.361l-2.283,1.308l-0.896-0.517l2.208-1.265
					L37.152,72.847z"/>
				<polygon fill="#FFFFFF" points="31.22,69.422 29.013,70.686 28.092,70.154 30.299,68.89 				"/>
				<polygon fill="#FFFFFF" points="32.542,70.185 30.335,71.449 29.439,70.932 31.646,69.667 				"/>
			</g>
			<g>
				<polygon fill="#FFFFFF" points="42.28,73.271 44.689,74.662 45.697,74.094 43.289,72.703 				"/>
				<polygon fill="#FFFFFF" points="45.254,71.596 47.663,72.986 48.672,72.418 46.263,71.027 				"/>
				<polygon fill="#FFFFFF" points="43.784,72.424 46.193,73.814 47.167,73.266 44.759,71.875 				"/>
				<polygon fill="#FFFFFF" points="54.398,66.441 56.807,67.832 57.815,67.264 55.406,65.873 				"/>
				<polygon fill="#FFFFFF" points="57.434,64.73 59.842,66.121 60.85,65.553 58.441,64.162 				"/>
				<polygon fill="#FFFFFF" points="55.902,65.594 58.311,66.984 59.347,66.4 56.938,65.01 				"/>
				<polygon fill="#FFFFFF" points="58.938,63.884 61.346,65.273 62.377,64.693 59.969,63.302 				"/>
				<polygon fill="#FFFFFF" points="61.985,62.165 64.395,63.556 65.402,62.988 62.994,61.597 				"/>
				<polygon fill="#FFFFFF" points="60.455,63.028 62.863,64.418 63.898,63.835 61.49,62.444 				"/>
				<polygon fill="#FFFFFF" points="63.49,61.317 65.898,62.709 66.93,62.127 64.521,60.736 				"/>
				<polygon fill="#FFFFFF" points="52.871,67.303 55.28,68.693 56.312,68.111 53.902,66.721 				"/>
				<polygon fill="#FFFFFF" points="46.758,70.748 49.166,72.139 50.198,71.557 47.79,70.166 				"/>
				<polygon fill="#FFFFFF" points="49.789,69.039 52.197,70.43 53.281,69.82 50.872,68.429 				"/>
				<polygon fill="#FFFFFF" points="48.285,69.887 50.693,71.277 51.702,70.709 49.293,69.318 				"/>
				<polygon fill="#FFFFFF" points="51.367,68.15 53.776,69.541 54.785,68.973 52.376,67.582 				"/>
			</g>
			<g>
				<polygon fill="#FFFFFF" points="64.91,60.483 67.319,61.875 68.328,61.307 65.92,59.916 				"/>
				<polygon fill="#FFFFFF" points="67.885,58.808 70.293,60.198 71.302,59.631 68.893,58.239 				"/>
				<polygon fill="#FFFFFF" points="66.414,59.637 68.823,61.027 69.797,60.478 67.389,59.087 				"/>
				<polygon fill="#FFFFFF" points="77.029,53.654 79.438,55.044 80.446,54.477 78.037,53.086 				"/>
				<polygon fill="#FFFFFF" points="80.064,51.943 82.473,53.334 83.48,52.766 81.072,51.375 				"/>
				<polygon fill="#FFFFFF" points="78.533,52.806 80.941,54.197 81.977,53.613 79.568,52.223 				"/>
				<polygon fill="#FFFFFF" points="81.568,51.096 83.977,52.486 85.008,51.904 82.6,50.514 				"/>
				<polygon fill="#FFFFFF" points="83.086,50.24 85.494,51.631 86.529,51.047 84.121,49.656 				"/>
				<polygon fill="#FFFFFF" points="75.502,54.515 77.91,55.905 78.942,55.324 76.533,53.933 				"/>
				<polygon fill="#FFFFFF" points="69.389,57.96 71.797,59.352 72.828,58.77 70.42,57.379 				"/>
				<polygon fill="#FFFFFF" points="72.42,56.252 74.828,57.643 75.911,57.032 73.502,55.641 				"/>
				<polygon fill="#FFFFFF" points="70.916,57.1 73.324,58.49 74.332,57.922 71.924,56.531 				"/>
				<polygon fill="#FFFFFF" points="73.998,55.361 76.406,56.753 77.415,56.185 75.006,54.794 				"/>
			</g>
			<polygon fill="#FFFFFF" points="24.214,66.84 30.514,66.645 27.195,68.561 23.875,70.477 			"/>
		</g>
		<polygon opacity="0.5" fill="#473441" points="79.869,47.085 38.798,70.781 21.576,60.846 62.646,37.148 		"/>
	</g>
	<g>
		<g>
			<polygon fill="#AEC3FF" points="57.514,57.501 45.127,50.35 45.127,13.537 57.514,20.688 			"/>
			<polygon fill="#8FB0F9" points="57.514,57.501 77.695,46.134 77.695,9.32 57.514,20.688 			"/>
			<polygon fill="#FFFFFF" points="65.309,2.177 45.127,13.537 57.514,20.688 77.695,9.32 			"/>
			<polygon fill="#AEC3FF" points="65.239,3.405 47.267,13.519 57.523,19.441 75.496,9.32 			"/>
			<polygon fill="#8FB0F9" points="57.514,57.501 45.127,50.35 45.127,46.577 57.514,53.729 			"/>
			<polygon fill="#75A2F2" points="57.514,57.501 77.695,46.134 77.695,42.361 57.514,53.729 			"/>
		</g>
		<g>
			<g>
				<polygon fill="#FFFFFF" points="60.42,15.546 57.379,17.302 50.225,13.171 53.266,11.416 				"/>
				<polygon fill="#DCF4FF" points="59.615,15.546 57.344,16.868 50.941,13.171 53.213,11.85 				"/>
				<polygon fill="#FFFFFF" points="59.615,14.898 57.344,16.22 50.941,12.523 53.213,11.203 				"/>
				<polygon fill="#8FB0F9" points="57.379,17.302 57.379,17.78 50.225,13.649 50.225,13.171 				"/>
				<polygon fill="#8FB0F9" points="60.42,15.546 57.379,17.302 57.379,17.78 60.42,16.024 				"/>
			</g>
			<polygon fill="#AEC3FF" points="50.941,12.523 50.941,13.171 57.344,16.868 57.344,16.22 			"/>
			<polygon fill="#8FB0F9" points="59.615,14.898 59.615,15.546 57.344,16.868 57.344,16.22 			"/>
		</g>
		<g>
			<g>
				<polygon fill="#FFFFFF" points="65.225,12.877 62.184,14.633 55.029,10.502 58.07,8.747 				"/>
				<polygon fill="#DCF4FF" points="64.42,12.877 62.148,14.198 55.746,10.502 58.018,9.181 				"/>
				<polygon fill="#FFFFFF" points="64.42,12.23 62.148,13.551 55.746,9.854 58.018,8.533 				"/>
				<polygon fill="#8FB0F9" points="62.184,14.633 62.184,15.111 55.029,10.98 55.029,10.502 				"/>
				<polygon fill="#8FB0F9" points="65.225,12.877 62.184,14.633 62.184,15.111 65.225,13.355 				"/>
			</g>
			<polygon fill="#AEC3FF" points="55.746,9.854 55.746,10.502 62.148,14.198 62.148,13.551 			"/>
			<polygon fill="#8FB0F9" points="64.42,12.23 64.42,12.877 62.148,14.198 62.148,13.551 			"/>
		</g>
		<g>
			<g>
				<polygon fill="#455DD6" points="60.293,24.251 59.18,24.893 59.18,22.275 60.293,21.633 				"/>
				<polygon fill="#455DD6" points="62.26,23.142 61.147,23.784 61.147,21.165 62.26,20.523 				"/>
				<polygon fill="#455DD6" points="64.227,22.027 63.114,22.67 63.114,20.051 64.227,19.409 				"/>
				<polygon fill="#455DD6" points="66.193,20.927 65.08,21.569 65.08,18.951 66.193,18.309 				"/>
				<polygon fill="#455DD6" points="68.16,19.818 67.048,20.46 67.048,17.842 68.16,17.2 				"/>
				<polygon fill="#455DD6" points="70.127,18.703 69.015,19.346 69.015,16.728 70.127,16.085 				"/>
				<polygon fill="#455DD6" points="72.094,17.585 70.98,18.228 70.98,15.609 72.094,14.967 				"/>
				<polygon fill="#455DD6" points="74.061,16.476 72.948,17.118 72.948,14.5 74.061,13.857 				"/>
				<polygon fill="#455DD6" points="76.027,15.379 74.915,16.021 74.915,13.403 76.027,12.761 				"/>
			</g>
			<g>
				<polygon fill="#455DD6" points="60.293,27.915 59.18,28.558 59.18,25.939 60.293,25.297 				"/>
				<polygon fill="#455DD6" points="62.26,26.806 61.147,27.448 61.147,24.83 62.26,24.188 				"/>
				<polygon fill="#455DD6" points="64.227,25.692 63.114,26.334 63.114,23.716 64.227,23.073 				"/>
				<polygon fill="#455DD6" points="66.193,24.591 65.08,25.233 65.08,22.615 66.193,21.973 				"/>
				<polygon fill="#455DD6" points="68.16,23.481 67.048,24.125 67.048,21.506 68.16,20.863 				"/>
				<polygon fill="#455DD6" points="70.127,22.368 69.015,23.01 69.015,20.392 70.127,19.75 				"/>
				<polygon fill="#455DD6" points="72.094,21.25 70.98,21.892 70.98,19.274 72.094,18.631 				"/>
				<polygon fill="#455DD6" points="74.061,20.14 72.948,20.782 72.948,18.164 74.061,17.522 				"/>
				<polygon fill="#455DD6" points="76.027,19.043 74.915,19.686 74.915,17.067 76.027,16.425 				"/>
			</g>
			<g>
				<polygon fill="#455DD6" points="60.293,31.58 59.18,32.222 59.18,29.604 60.293,28.961 				"/>
				<polygon fill="#455DD6" points="62.26,30.471 61.147,31.113 61.147,28.495 62.26,27.852 				"/>
				<polygon fill="#455DD6" points="64.227,29.356 63.114,29.999 63.114,27.38 64.227,26.738 				"/>
				<polygon fill="#455DD6" points="66.193,28.256 65.08,28.898 65.08,26.28 66.193,25.638 				"/>
				<polygon fill="#455DD6" points="68.16,27.146 67.048,27.789 67.048,25.17 68.16,24.528 				"/>
				<polygon fill="#455DD6" points="70.127,26.032 69.015,26.674 69.015,24.056 70.127,23.414 				"/>
				<polygon fill="#455DD6" points="72.094,24.914 70.98,25.556 70.98,22.938 72.094,22.296 				"/>
				<polygon fill="#455DD6" points="74.061,23.804 72.948,24.447 72.948,21.829 74.061,21.186 				"/>
				<polygon fill="#455DD6" points="76.027,22.708 74.915,23.35 74.915,20.732 76.027,20.089 				"/>
			</g>
			<g>
				<polygon fill="#455DD6" points="60.293,35.244 59.18,35.886 59.18,33.268 60.293,32.626 				"/>
				<polygon fill="#455DD6" points="62.26,34.134 61.147,34.777 61.147,32.159 62.26,31.516 				"/>
				<polygon fill="#455DD6" points="64.227,33.021 63.114,33.663 63.114,31.044 64.227,30.402 				"/>
				<polygon fill="#455DD6" points="66.193,31.92 65.08,32.563 65.08,29.944 66.193,29.302 				"/>
				<polygon fill="#455DD6" points="68.16,30.811 67.048,31.453 67.048,28.834 68.16,28.192 				"/>
				<polygon fill="#455DD6" points="70.127,29.697 69.015,30.339 69.015,27.721 70.127,27.079 				"/>
				<polygon fill="#455DD6" points="72.094,28.579 70.98,29.221 70.98,26.603 72.094,25.96 				"/>
				<polygon fill="#455DD6" points="74.061,27.469 72.948,28.111 72.948,25.493 74.061,24.851 				"/>
				<polygon fill="#455DD6" points="76.027,26.372 74.915,27.014 74.915,24.396 76.027,23.754 				"/>
			</g>
			<g>
				<polygon fill="#455DD6" points="60.293,38.919 59.18,39.562 59.18,36.944 60.293,36.301 				"/>
				<polygon fill="#455DD6" points="62.26,37.81 61.147,38.453 61.147,35.834 62.26,35.192 				"/>
				<polygon fill="#455DD6" points="64.227,36.696 63.114,37.338 63.114,34.72 64.227,34.078 				"/>
				<polygon fill="#455DD6" points="66.193,35.596 65.08,36.238 65.08,33.62 66.193,32.978 				"/>
				<polygon fill="#455DD6" points="68.16,34.486 67.048,35.129 67.048,32.511 68.16,31.868 				"/>
				<polygon fill="#455DD6" points="70.127,33.372 69.015,34.014 69.015,31.396 70.127,30.754 				"/>
				<polygon fill="#455DD6" points="72.094,32.254 70.98,32.896 70.98,30.278 72.094,29.635 				"/>
				<polygon fill="#455DD6" points="74.061,31.145 72.948,31.787 72.948,29.168 74.061,28.526 				"/>
				<polygon fill="#455DD6" points="76.027,30.048 74.915,30.69 74.915,28.072 76.027,27.429 				"/>
			</g>
			<g>
				<polygon fill="#455DD6" points="60.293,42.584 59.18,43.226 59.18,40.608 60.293,39.966 				"/>
				<polygon fill="#455DD6" points="62.26,41.475 61.147,42.117 61.147,39.499 62.26,38.856 				"/>
				<polygon fill="#455DD6" points="64.227,40.36 63.114,41.003 63.114,38.385 64.227,37.742 				"/>
				<polygon fill="#455DD6" points="66.193,39.26 65.08,39.902 65.08,37.284 66.193,36.642 				"/>
				<polygon fill="#455DD6" points="68.16,38.15 67.048,38.792 67.048,36.174 68.16,35.532 				"/>
				<polygon fill="#455DD6" points="70.127,37.037 69.015,37.679 69.015,35.061 70.127,34.418 				"/>
				<polygon fill="#455DD6" points="72.094,35.918 70.98,36.561 70.98,33.942 72.094,33.3 				"/>
				<polygon fill="#455DD6" points="74.061,34.809 72.948,35.451 72.948,32.833 74.061,32.19 				"/>
				<polygon fill="#455DD6" points="76.027,33.712 74.915,34.354 74.915,31.736 76.027,31.094 				"/>
			</g>
			<g>
				<polygon fill="#455DD6" points="60.293,46.249 59.18,46.891 59.18,44.272 60.293,43.63 				"/>
				<polygon fill="#455DD6" points="62.26,45.139 61.147,45.782 61.147,43.163 62.26,42.521 				"/>
				<polygon fill="#455DD6" points="64.227,44.025 63.114,44.667 63.114,42.049 64.227,41.407 				"/>
				<polygon fill="#455DD6" points="66.193,42.924 65.08,43.567 65.08,40.949 66.193,40.306 				"/>
				<polygon fill="#455DD6" points="68.16,41.815 67.048,42.458 67.048,39.839 68.16,39.197 				"/>
				<polygon fill="#455DD6" points="70.127,40.701 69.015,41.343 69.015,38.725 70.127,38.083 				"/>
				<polygon fill="#455DD6" points="72.094,39.583 70.98,40.225 70.98,37.607 72.094,36.964 				"/>
				<polygon fill="#455DD6" points="74.061,38.473 72.948,39.115 72.948,36.498 74.061,35.855 				"/>
				<polygon fill="#455DD6" points="76.027,37.376 74.915,38.019 74.915,35.4 76.027,34.758 				"/>
			</g>
			<g>
				<polygon fill="#455DD6" points="60.293,49.913 59.18,50.555 59.18,47.937 60.293,47.295 				"/>
				<polygon fill="#455DD6" points="62.26,48.803 61.147,49.445 61.147,46.827 62.26,46.185 				"/>
				<polygon fill="#455DD6" points="64.227,47.689 63.114,48.332 63.114,45.713 64.227,45.071 				"/>
				<polygon fill="#455DD6" points="66.193,46.589 65.08,47.231 65.08,44.613 66.193,43.971 				"/>
				<polygon fill="#455DD6" points="68.16,45.479 67.048,46.122 67.048,43.503 68.16,42.861 				"/>
				<polygon fill="#455DD6" points="70.127,44.365 69.015,45.008 69.015,42.39 70.127,41.747 				"/>
				<polygon fill="#455DD6" points="72.094,43.247 70.98,43.89 70.98,41.271 72.094,40.629 				"/>
				<polygon fill="#455DD6" points="74.061,42.138 72.948,42.78 72.948,40.162 74.061,39.52 				"/>
				<polygon fill="#455DD6" points="76.027,41.041 74.915,41.683 74.915,39.065 76.027,38.423 				"/>
			</g>
		</g>
		<polygon fill="#4D70EF" points="48.58,23.957 53.303,26.683 53.303,20.386 48.58,17.661 		"/>
		<polygon fill="#4D70EF" points="48.58,31.416 53.303,34.142 53.303,27.846 48.58,25.12 		"/>
		<polygon fill="#4D70EF" points="48.58,38.753 53.303,41.48 53.303,35.184 48.58,32.458 		"/>
		<polygon fill="#4D70EF" points="48.58,46.213 53.303,48.939 53.303,42.644 48.58,39.917 		"/>
	</g>
	<g>
		<g>
			<polygon fill="#AEC3FF" points="53.654,53.983 39.019,62.433 39.019,67.795 53.654,59.345 			"/>
			<polygon fill="#FFFFFF" points="24.607,54.111 24.607,59.494 39.019,67.814 39.019,62.433 			"/>
			<g>
				<polygon fill="#AEC3FF" points="39.019,63.75 23.364,54.711 23.364,52.687 39.019,61.725 				"/>
				<polygon fill="#8FB0F9" points="39.019,63.73 54.675,54.691 54.675,52.687 39.019,61.725 				"/>
				<polygon fill="#FFFFFF" points="54.675,52.687 39.019,43.666 23.364,52.687 39.019,61.725 				"/>
			</g>
			<polygon fill="#4D70EF" points="24.607,50.768 24.607,52.793 39.019,61.113 39.019,59.088 			"/>
			<polygon fill="#455DD6" points="53.654,50.639 39.019,59.088 39.019,61.093 53.654,52.643 			"/>
			<g>
				<polygon fill="#AEC3FF" points="39.019,59.365 23.364,50.327 23.364,48.302 39.019,57.34 				"/>
				<polygon fill="#8FB0F9" points="39.019,59.345 54.675,50.307 54.675,48.302 39.019,57.34 				"/>
				<polygon fill="#FFFFFF" points="54.675,48.302 39.019,39.281 23.364,48.302 39.019,57.34 				"/>
			</g>
			<polygon fill="#4D70EF" points="24.607,46.4 24.607,48.425 39.019,56.746 39.019,54.721 			"/>
			<polygon fill="#455DD6" points="53.654,46.271 39.019,54.721 39.019,56.726 53.654,48.276 			"/>
			<g>
				<polygon fill="#AEC3FF" points="39.019,54.998 23.364,45.959 23.364,43.935 39.019,52.973 				"/>
				<polygon fill="#8FB0F9" points="39.019,54.979 54.675,45.939 54.675,43.935 39.019,52.973 				"/>
				<polygon fill="#FFFFFF" points="54.675,43.935 39.019,34.914 23.364,43.935 39.019,52.973 				"/>
				<polygon fill="#AEC3FF" points="53.233,43.935 39.055,35.766 24.876,43.935 39.055,52.121 				"/>
			</g>
		</g>
		<polygon fill="#4D70EF" points="30.897,59.888 28.789,58.671 28.789,61.922 30.897,63.14 		"/>
		<polygon fill="#4D70EF" points="33.241,61.242 31.133,60.024 31.133,63.276 33.241,64.493 		"/>
		<g>
			<g>
				<polygon fill="#8FB0F9" points="43.947,41.687 43.947,40.949 40.531,42.921 40.531,43.659 				"/>
				<polygon fill="#DCF4FF" points="43.947,40.949 40.531,38.98 37.115,40.949 40.531,42.921 				"/>
				<polygon fill="#8FB0F9" points="37.115,40.949 37.115,41.687 40.531,43.659 40.531,42.921 				"/>
			</g>
			<g>
				<polygon fill="#8FB0F9" points="43.194,40.896 43.194,40.32 40.531,41.857 40.531,42.433 				"/>
				<polygon fill="#FFFFFF" points="43.194,40.32 40.531,38.786 37.869,40.32 40.531,41.857 				"/>
				<polygon fill="#AEC3FF" points="37.869,40.32 37.869,40.896 40.531,42.433 40.531,41.857 				"/>
			</g>
		</g>
		<g>
			<g>
				<polygon fill="#8FB0F9" points="49.182,44.772 49.182,44.034 45.766,46.006 45.766,46.745 				"/>
				<polygon fill="#DCF4FF" points="49.182,44.034 45.766,42.065 42.35,44.034 45.766,46.006 				"/>
				<polygon fill="#8FB0F9" points="42.35,44.034 42.35,44.772 45.766,46.745 45.766,46.006 				"/>
			</g>
			<g>
				<polygon fill="#8FB0F9" points="48.429,43.98 48.429,43.405 45.766,44.943 45.766,45.518 				"/>
				<polygon fill="#FFFFFF" points="48.429,43.405 45.766,41.871 43.104,43.405 45.766,44.943 				"/>
				<polygon fill="#AEC3FF" points="43.104,43.405 43.104,43.98 45.766,45.518 45.766,44.943 				"/>
			</g>
		</g>
	</g>
	<g>
		<path fill="#D33962" d="M27.276,47.632c0-1.104-0.48-3.521-0.48-3.521l-1.345-0.779c-0.054-0.032-0.106-0.066-0.162-0.094
			l-0.02-0.011l-0.002,0.002c-0.915-0.449-2.074-0.367-3.337,0.362c-2.952,1.705-5.345,6.278-5.345,10.213
			c0,1.123,0.198,2.069,0.547,2.813c0.066,0.141,3.71,7.761,3.71,7.761l1.212,0.702l0.15-2.501c0,0,3.778-8.86,4.4-11.108
			C26.913,50.362,27.276,48.886,27.276,47.632z"/>
		<path fill="#ED5A73" d="M28.488,48.334c0-3.936-2.394-5.745-5.345-4.041c-2.952,1.704-5.345,6.276-5.345,10.213
			c0,1.124,0.199,2.069,0.547,2.813c0.066,0.142,3.71,7.761,3.71,7.761c0.153-0.123,4.918-9.856,5.763-12.906
			C28.125,51.064,28.488,49.588,28.488,48.334z"/>
		<path fill="#FFFFFF" d="M19.649,53.342c0,2.73,1.66,3.984,3.708,2.803s3.708-4.354,3.708-7.083c0-2.731-1.66-3.985-3.708-2.803
			S19.649,50.611,19.649,53.342z"/>
	</g>
	<g>
		<g>
			<path fill="#3A2934" d="M73.907,38.818c-0.11-0.036-1.167-0.851-1.672-0.911c-0.505-0.06-0.437,0.913-0.347,1.827
				c0.088,0.915,0.25,1.547,0.967,1.809c0.479,0.174,1.095-0.799,1.052-1.363C73.863,39.615,73.907,38.818,73.907,38.818z"/>
		</g>
		<g>
			<g>
				<g>
					
						<rect x="76.782" y="40.467" transform="matrix(0.9749 0.2227 -0.2227 0.9749 11.5317 -16.0697)" fill="#AEC3FF" width="0.465" height="5.253"/>
				</g>
			</g>
			<g>
				<g>
					<path fill="#D33962" d="M74.121,47.39l-0.002-0.313l-0.556-0.139l-0.892-0.514c-0.199-0.115-0.551-0.101-0.78,0.032
						L71.814,46.5l-0.223-0.055v0.303c-0.001,0.011,0,0.021,0,0.032v0.021l0.002,0.001c0.01,0.063,0.051,0.123,0.131,0.168
						l1.314,0.759c0.199,0.115,0.551,0.101,0.781-0.033l0.111-0.064C74.053,47.564,74.115,47.476,74.121,47.39L74.121,47.39z"/>
				</g>
				<g>
					<path fill="#ED5A73" d="M71.725,46.669l1.314,0.759c0.199,0.115,0.551,0.101,0.781-0.033l0.111-0.064
						c0.23-0.133,0.256-0.336,0.057-0.452l-1.316-0.758c-0.199-0.116-0.551-0.101-0.78,0.032l-0.111,0.064
						C71.55,46.352,71.525,46.555,71.725,46.669z"/>
				</g>
			</g>
			<g>
				<g>
					<path fill="#FFBD03" d="M71.539,45.39c0,0-0.068,0.394-0.454,0.861c-0.385,0.468-1.174,0.868-1.205,1.439
						c-0.03,0.571,0.659,0.515,1.424,0.542c0.967-0.471,1.123-0.754,1.353-0.931c0.23-0.176,0.692-0.861,0.738-1.263
						c-0.176-0.52-0.577-1.024-0.577-1.024S72.314,45.597,71.539,45.39z"/>
				</g>
				<g>
					<path fill="#3A2934" d="M69.879,47.563c0,0,0.25-0.089,0.939,0.237c0.689,0.326,0.882,0.052,1.496-0.376
						c0.779-0.543,0.799-0.799,1.08-1.385c0.057,0.171,0.045,0.438-0.014,0.582c-0.135,0.331-0.631,0.806-0.995,1.071
						c-0.364,0.264-1.26,1-2.128,0.625C69.693,48.072,69.879,47.563,69.879,47.563z"/>
				</g>
				<g>
					<path fill="#3A2934" d="M71.648,45.415c0,0,0.021,0.356-0.381,0.828c-0.4,0.471-0.475,0.544-0.238,0.677
						c0.235,0.133,0.688-0.147,0.992-0.618c0.303-0.471,0.244-0.886,0.244-0.886H71.648z"/>
				</g>
			</g>
			<g>
				<g>
					<path fill="#8FB0F9" d="M74.359,51.002c-0.006-0.004-0.521-0.354-0.768-0.503c-0.078-0.048-0.13-0.119-0.15-0.208
						c-0.068-0.298,0.219-0.746,0.523-1.222c0.146-0.228,0.284-0.443,0.354-0.604c0.158-0.369,0.012-0.487-0.437-0.776
						c-0.062-0.04-0.063-0.06-0.131-0.106l0.196-0.127c0.065,0.044,0,0,0.061,0.039c0.411,0.266,0.768,0.495,0.523,1.063
						c-0.077,0.178-0.22,0.401-0.371,0.637c-0.24,0.375-0.54,0.84-0.492,1.044c0.006,0.028,0.02,0.047,0.045,0.062
						c0.25,0.152,0.755,0.494,0.776,0.509L74.359,51.002z"/>
				</g>
			</g>
			<g>
				<g>
					<path fill="#3A2934" d="M75.422,50.619c-0.012,0.528-0.334,1.15-0.719,1.388s-0.686,0.002-0.674-0.526
						c0.012-0.529,0.333-1.15,0.718-1.389S75.434,50.09,75.422,50.619z"/>
				</g>
			</g>
			<g>
				<g>
					<path fill="#D33962" d="M68.72,48.881c0.143-0.074,0.354-0.053,0.65,0.065c0.189,0.076,0.36,0.177,0.446,0.36
						c0.128-0.077,0.26-0.148,0.394-0.217c-0.124-0.241-0.344-0.431-0.67-0.561c-0.427-0.17-0.765-0.186-1.032-0.046
						c-0.391,0.203-0.546,0.698-0.639,1.108c-0.225,0.998-1.203,4.242-1.469,5.371c-0.059,0.242,0.095,0.483,0.34,0.54
						c0,0,1.295-4.575,1.574-5.813C68.418,49.227,68.547,48.971,68.72,48.881z"/>
				</g>
			</g>
			<g>
				<g>
					<g>
						<g>
							<path fill="#3A2934" d="M66.657,56.506c-0.089,0-0.173-0.021-0.248-0.064c-0.206-0.119-0.324-0.391-0.324-0.742
								c0-0.647,0.397-1.403,0.885-1.686c0.224-0.129,0.442-0.145,0.616-0.045c0.207,0.119,0.324,0.391,0.324,0.742
								c0,0.647-0.396,1.403-0.885,1.686C66.899,56.469,66.773,56.506,66.657,56.506z M67.338,54.018
								c-0.097,0-0.203,0.032-0.313,0.096c-0.455,0.263-0.827,0.975-0.827,1.586c0,0.311,0.098,0.545,0.269,0.644
								c0.137,0.079,0.315,0.063,0.503-0.045c0.456-0.264,0.827-0.976,0.827-1.587c0-0.311-0.097-0.545-0.268-0.643
								C67.473,54.035,67.408,54.018,67.338,54.018z"/>
						</g>
					</g>
					<g>
						<path fill="#3A2934" d="M67.572,54.863c-0.01,0.42-0.266,0.912-0.57,1.102c-0.305,0.188-0.545,0.002-0.535-0.418
							s0.265-0.913,0.569-1.102C67.342,54.257,67.581,54.443,67.572,54.863z"/>
					</g>
				</g>
				<g>
					<g>
						<g>
							<path fill="#D33962" d="M66.99,50.809c-1.881,1.113-3.405,4.1-3.405,6.672c0,2.57,1.524,3.752,3.405,2.639
								c1.88-1.113,3.404-4.1,3.404-6.671S68.87,49.695,66.99,50.809z M66.886,59.547c-1.57,1.029-2.784,0.042-2.71-2.207
								c0.072-2.247,1.404-4.904,2.975-5.934s2.783-0.042,2.711,2.205C69.788,55.86,68.457,58.518,66.886,59.547z"/>
						</g>
					</g>
					<g>
						<g>
							<path fill="#3A2934" d="M67.029,50.432c-2.08,1.2-3.766,4.42-3.766,7.192s1.686,4.046,3.766,2.847
								c2.078-1.201,3.764-4.422,3.764-7.193S69.107,49.231,67.029,50.432z M66.883,60.088c-1.754,1.084-3.047-0.19-2.967-2.614
								c0.082-2.423,1.555-5.288,3.291-6.398c1.736-1.109,3.268-0.051,3.188,2.373C70.313,55.871,68.891,58.849,66.883,60.088z"/>
						</g>
					</g>
				</g>
				<g>
					<g>
						<g>
							<path fill="#ED5A73" d="M67.307,51.008c-1.881,1.113-3.404,4.102-3.404,6.672c0,2.572,1.523,3.754,3.404,2.641
								c1.88-1.113,3.404-4.101,3.404-6.672S69.187,49.896,67.307,51.008z M67.203,59.746c-1.57,1.03-2.784,0.043-2.711-2.205
								c0.072-2.248,1.404-4.906,2.975-5.935c1.57-1.03,2.784-0.042,2.711,2.206S68.773,58.718,67.203,59.746z"/>
						</g>
					</g>
					<g>
						<g>
							<path fill="#473441" d="M67.346,50.631c-2.079,1.201-3.764,4.422-3.764,7.193s1.685,4.046,3.764,2.846
								s3.765-4.42,3.765-7.192S69.425,49.432,67.346,50.631z M67.23,60.053c-1.735,1.109-3.078,0.045-2.997-2.379
								s1.554-5.288,3.29-6.398c1.736-1.109,3.078-0.045,2.997,2.379C70.44,56.078,68.967,58.942,67.23,60.053z"/>
						</g>
					</g>
				</g>
				<g>
					<g>
						<g>
							<polygon fill="#AEC3FF" points="66.116,60.061 65.934,60.084 68.758,51.203 68.873,51.22 							"/>
						</g>
					</g>
					<g>
						<g>
							<polygon fill="#AEC3FF" points="68.32,58.339 66.423,52.564 66.509,52.463 68.403,58.225 							"/>
						</g>
					</g>
					<g>
						<g>
							<polygon fill="#AEC3FF" points="69.539,56.104 64.99,55.11 65.036,55.004 69.58,55.998 							"/>
						</g>
					</g>
					<g>
						<g>
							<polygon fill="#AEC3FF" points="64.539,58.437 64.52,58.297 69.979,53.04 70.013,53.165 							"/>
						</g>
					</g>
				</g>
				<g>
					<g>
						<g>
							<path fill="#473441" d="M67.264,56.865c-0.09,0-0.174-0.021-0.249-0.066c-0.206-0.118-0.324-0.389-0.324-0.74
								c0-0.647,0.397-1.403,0.885-1.686c0.224-0.129,0.443-0.145,0.616-0.045c0.207,0.119,0.324,0.389,0.324,0.742
								c0,0.646-0.396,1.402-0.885,1.684C67.505,56.828,67.379,56.865,67.264,56.865z M67.943,54.377
								c-0.097,0-0.203,0.031-0.313,0.094c-0.455,0.265-0.826,0.977-0.826,1.588c0,0.311,0.097,0.545,0.268,0.643
								c0.137,0.08,0.315,0.064,0.503-0.045c0.456-0.264,0.828-0.975,0.828-1.586c0-0.312-0.098-0.546-0.269-0.645
								C68.078,54.393,68.014,54.377,67.943,54.377z"/>
						</g>
					</g>
					<g>
						<path fill="#473441" d="M68.178,55.223c-0.01,0.42-0.266,0.912-0.57,1.102c-0.305,0.188-0.544,0-0.535-0.418
							c0.01-0.42,0.265-0.913,0.57-1.102C67.947,54.615,68.187,54.803,68.178,55.223z"/>
					</g>
				</g>
			</g>
			<g>
				<g>
					<g>
						<path fill="#3A2934" d="M80.278,48.639c-0.089,0-0.173-0.021-0.248-0.065c-0.206-0.119-0.325-0.389-0.325-0.742
							c0-0.647,0.398-1.403,0.885-1.685c0.225-0.13,0.443-0.145,0.617-0.045c0.206,0.119,0.324,0.389,0.324,0.741
							c0,0.647-0.396,1.403-0.885,1.685C80.52,48.602,80.395,48.639,80.278,48.639z M80.959,46.151
							c-0.097,0-0.203,0.032-0.313,0.095c-0.456,0.263-0.828,0.975-0.828,1.586c0,0.311,0.098,0.545,0.269,0.644
							c0.138,0.079,0.315,0.063,0.503-0.045c0.457-0.264,0.828-0.976,0.828-1.587c0-0.311-0.098-0.545-0.268-0.643
							C81.094,46.167,81.028,46.151,80.959,46.151z"/>
					</g>
				</g>
				<g>
					<path fill="#3A2934" d="M81.192,46.997c-0.009,0.419-0.265,0.913-0.569,1.101c-0.305,0.189-0.545,0.002-0.535-0.417
						c0.01-0.419,0.264-0.912,0.569-1.101C80.963,46.39,81.202,46.577,81.192,46.997z"/>
				</g>
			</g>
			<g>
				<path fill="#8FB0F9" d="M81.152,46.837c-0.053-0.345-0.286-0.585-0.642-0.658c-0.43-0.089-2.796-0.929-3.957-1.409v0.251
					c1.192,0.492,3.468,1.293,3.91,1.384c0.259,0.053,0.422,0.219,0.46,0.466c0.049,0.327-0.145,0.809-0.598,1.058
					c-1.085,0.595-3.686,1.779-5.111,2.421v0.254c1.404-0.631,4.107-1.859,5.223-2.472C80.924,47.866,81.225,47.321,81.152,46.837z"
					/>
			</g>
			<g>
				<g>
					<g>
						<g>
							<path fill="#D33962" d="M80.611,42.941c-1.881,1.113-3.405,4.1-3.405,6.672c0,2.571,1.524,3.752,3.405,2.639
								c1.879-1.113,3.404-4.1,3.404-6.671C84.016,43.01,82.49,41.828,80.611,42.941z M80.508,51.68
								c-1.571,1.029-2.785,0.042-2.712-2.207c0.073-2.247,1.405-4.904,2.976-5.934c1.57-1.03,2.783-0.042,2.711,2.206
								C83.408,47.993,82.078,50.65,80.508,51.68z"/>
						</g>
					</g>
					<g>
						<g>
							<path fill="#3A2934" d="M80.65,42.564c-2.08,1.2-3.765,4.421-3.765,7.192c0,2.772,1.685,4.046,3.765,2.847
								c2.078-1.201,3.764-4.421,3.764-7.193C84.414,42.638,82.729,41.364,80.65,42.564z M80.504,52.221
								c-1.768,1.061-3.047-0.189-2.967-2.613c0.082-2.424,1.554-5.289,3.29-6.398c1.737-1.11,3.269-0.052,3.188,2.372
								C83.934,48.004,82.459,51.049,80.504,52.221z"/>
						</g>
					</g>
				</g>
				<g>
					<g>
						<g>
							<path fill="#ED5A73" d="M80.928,43.142c-1.881,1.113-3.404,4.1-3.404,6.671c0,2.572,1.523,3.754,3.404,2.641
								c1.879-1.113,3.404-4.101,3.404-6.672C84.332,43.21,82.807,42.028,80.928,43.142z M80.824,51.88
								c-1.57,1.03-2.784,0.042-2.711-2.206c0.072-2.248,1.404-4.905,2.975-5.935c1.57-1.03,2.783-0.042,2.711,2.206
								S82.395,50.851,80.824,51.88z"/>
						</g>
					</g>
					<g>
						<g>
							<path fill="#473441" d="M80.967,42.765c-2.079,1.2-3.764,4.421-3.764,7.192s1.685,4.046,3.764,2.846
								c2.08-1.2,3.764-4.42,3.764-7.192C84.73,42.838,83.047,41.564,80.967,42.765z M80.852,52.186
								c-1.736,1.109-3.078,0.045-2.997-2.379s1.554-5.288,3.29-6.398s3.078-0.045,2.996,2.379
								C84.061,48.211,82.588,51.075,80.852,52.186z"/>
						</g>
					</g>
				</g>
				<g>
					<g>
						<g>
							<polygon fill="#AEC3FF" points="79.737,52.193 79.554,52.218 82.377,43.337 82.494,43.353 							"/>
						</g>
					</g>
					<g>
						<g>
							<polygon fill="#AEC3FF" points="81.941,50.472 80.044,44.697 80.129,44.596 82.023,50.357 							"/>
						</g>
					</g>
					<g>
						<g>
							<polygon fill="#AEC3FF" points="83.16,48.238 78.611,47.243 78.657,47.137 83.201,48.13 							"/>
						</g>
					</g>
					<g>
						<g>
							<polygon fill="#AEC3FF" points="78.159,50.569 78.141,50.43 83.6,45.174 83.635,45.298 							"/>
						</g>
					</g>
				</g>
			</g>
			<g>
				<path fill="#AEC3FF" d="M81.939,47.247c-0.053-0.345-0.286-0.585-0.642-0.658c-0.579-0.12-4.661-1.676-4.702-1.693l-0.089,0.214
					c0.163,0.068,4.144,1.582,4.744,1.705c0.259,0.053,0.422,0.219,0.458,0.466c0.051,0.327-0.143,0.809-0.596,1.058
					c-1.225,0.672-4.385,2.096-5.602,2.639c0.014,0.023,0.028,0.045,0.041,0.068c0.023,0.041,0.055,0.086,0.08,0.131
					c1.238-0.553,4.369-1.964,5.592-2.635C81.711,48.275,82.012,47.731,81.939,47.247z"/>
			</g>
			<g>
				<g>
					<polygon fill="#AEC3FF" points="69.764,48.984 69.035,48.674 70.492,43.198 71.25,43.406 					"/>
				</g>
			</g>
			<g>
				<g>
					<path fill="#AEC3FF" d="M71.154,47.986c-0.939-0.836-1.291-0.967-1.377-0.987l-0.201,0.535c0,0,0.288,0,1.402,0.992
						c0.461,0.411,1.623,1.65,2.496,2.311c0.742,0.563,1.385,0.766,1.385,0.766l0.15-0.548c-0.123-0.043-0.703-0.259-1.359-0.757
						C72.777,49.637,71.615,48.397,71.154,47.986z"/>
				</g>
			</g>
			<g>
				<g>
					<path fill="#ED5A73" d="M75.889,41.881c0.527-0.109,1.189-0.159,1.635-0.215c0.406-0.052,0.947-0.106,1.387-0.163
						c0.345-0.044,0.531-0.244,0.631-0.475c-0.035-0.251-0.198-0.502-0.51-0.706c-0.91-0.591-1.701-0.815-2.229-0.414
						c-0.483,0.368-0.898,0.621-1.426,1.331c-0.143,0.193-0.204,0.368-0.206,0.519C75.368,41.878,75.59,41.943,75.889,41.881z"/>
				</g>
				<g>
					<path fill="#D33962" d="M75.953,42.307c0.601-0.063,1.242-0.008,2.449-0.197c0.793-0.124,1.205-0.602,1.139-1.083
						c-0.1,0.231-0.286,0.431-0.631,0.475c-0.439,0.057-0.98,0.111-1.387,0.163c-0.445,0.056-1.107,0.106-1.635,0.215
						c-0.299,0.062-0.521-0.002-0.718-0.123C75.166,42.13,75.527,42.352,75.953,42.307z"/>
				</g>
			</g>
			<g>
				<path fill="#FFB9A4" d="M72.271,40.502c0,0,1.507,0.779,2.567,0.779c0.396-0.879-0.24-1.72-0.68-2.627
					c-0.26-0.535-1.355-0.497-2.028-0.493c-0.481-0.018-1.336,0.004-1.622,0.206c-0.644,0.452-0.851,0.925-0.658,1.813
					c0.09,0.417,0.287,1.245,0.666,2.176c0.379,0.932,1.226,3.297,1.226,3.297s0.675,0.314,1.114-0.216
					c-0.117-0.732-0.112-2.039-0.135-2.692C72.668,41.195,72.271,40.502,72.271,40.502z"/>
			</g>
			<g>
				<path fill="#3A2934" d="M75.344,37.695c0,0-0.621,0-0.777,0.636c-0.551-0.246-1.463-0.374-2.331-0.424
					c0.468,0.47,0.694,0.541,0.895,1.621c0.074,0.4,0.302,1.711-0.274,2.015c0.357,0.251,1.605,0.442,2.357,0
					c0.896,0.572,1.877,0.084,2.242-0.64c0.365-0.725,1.001-1.521,1.001-1.521L75.344,37.695z"/>
			</g>
			<g>
				<g>
					<path fill="#AEC3FF" d="M75.395,51.354l-0.451-0.102l1.313-5.88c0,0-2.121-0.088-3.964,0.396
						c-1.049,0.276-2.195,0.311-2.195,0.311l0.215-0.906c0,0,0.798,0.173,1.979-0.102c0.94-0.219,1.979-0.277,2.878-0.301
						c1.017-0.027,1.683,0.067,1.683,0.067L75.395,51.354z"/>
				</g>
			</g>
			<g>
				<g>
					<path fill="#D33962" d="M69.54,48.528c-0.427-0.17-0.765-0.186-1.032-0.046c-0.338,0.175-0.5,0.571-0.598,0.939
						c0.092,0.034,0.181,0.071,0.266,0.107c0.051,0.022,0.105,0.046,0.16,0.07c0.1-0.403,0.223-0.634,0.384-0.718
						c0.143-0.074,0.354-0.053,0.65,0.065c0.374,0.15,0.682,0.398,0.39,1.196c-0.189,0.521-1.59,3.78-2.135,5.046
						c-0.066,0.152-0.318,0.617-0.063,0.695c0.233,0.07,0.395-0.316,0.443-0.43c0.518-1.201,1.98-4.607,2.183-5.158
						C70.508,49.422,70.289,48.827,69.54,48.528z"/>
				</g>
			</g>
			<g>
				<g>
					<g>
						<path fill="#473441" d="M80.934,48.984c-0.088,0-0.172-0.022-0.248-0.065c-0.205-0.119-0.324-0.389-0.324-0.742
							c0-0.647,0.397-1.403,0.885-1.684c0.225-0.13,0.443-0.146,0.617-0.046c0.205,0.119,0.324,0.39,0.324,0.742
							c0,0.647-0.397,1.403-0.885,1.685C81.176,48.948,81.051,48.984,80.934,48.984z M81.614,46.497
							c-0.097,0-0.202,0.032-0.312,0.095c-0.457,0.263-0.828,0.975-0.828,1.586c0,0.311,0.098,0.545,0.268,0.644
							c0.138,0.079,0.316,0.063,0.504-0.045c0.457-0.264,0.828-0.976,0.828-1.587c0-0.311-0.098-0.545-0.268-0.643
							C81.748,46.513,81.684,46.497,81.614,46.497z"/>
					</g>
				</g>
				<g>
					<path fill="#473441" d="M81.848,47.342c-0.009,0.419-0.264,0.913-0.568,1.101c-0.306,0.189-0.545,0.002-0.536-0.418
						c0.01-0.419,0.265-0.912,0.569-1.101C81.618,46.735,81.857,46.922,81.848,47.342z"/>
				</g>
			</g>
			<g>
				<g>
					<path fill="#473441" d="M75.865,50.871c-0.012,0.529-0.334,1.15-0.718,1.389c-0.385,0.238-0.687,0.002-0.675-0.527
						c0.012-0.527,0.333-1.15,0.718-1.388C75.574,50.106,75.877,50.343,75.865,50.871z"/>
				</g>
			</g>
			<g>
				<path fill="#AEC3FF" d="M75.986,51.699c-0.178-0.111-0.35-0.213-0.492-0.295c-0.06-0.034-0.325,0.08-0.109,0.205
					c0.142,0.081,0.311,0.182,0.486,0.291c0.182,0.114,0.387,0.243-0.05,1.088c-0.253,0.486-0.325,0.849-0.228,1.137
					c0.072,0.213,0.236,0.377,0.5,0.502l0.1-0.211c-0.205-0.096-0.328-0.215-0.379-0.365c-0.076-0.222-0.006-0.535,0.213-0.957
					C76.521,52.141,76.281,51.885,75.986,51.699z"/>
			</g>
			<g>
				<path fill="#3A2934" d="M74.158,44.476c-0.213,0.375,0.273,0.482,0.852,0.911s1.77,1.382,2.029,0.996s-0.34-1.016-1.232-1.617
					C74.913,44.165,74.478,43.911,74.158,44.476z"/>
			</g>
			<g>
				<path fill="#FFC9B6" d="M75.096,43.341c-0.133,0.101-0.893,1.367-1.188,2.059c-0.295,0.692-0.344,0.82,0.098,1.737
					c0.441,0.919,1.801,4.451,2.193,5.875c0.213,0.057,1.334-0.387,1.021-1.182c-0.072-0.186-0.195-2.733-0.369-3.562
					c-0.176-0.829-0.621-1.545-0.621-1.545s0.769-0.999,0.701-1.665C76.863,44.392,75.096,43.341,75.096,43.341z"/>
			</g>
			<g>
				<path fill="#473441" d="M77.015,38.213c0,0-0.737,0.563-0.994,1.316c-0.257,0.753-0.214,1.753-0.214,1.753
					s-0.443,0.638-0.592,1.031s-1.057,2.163-1.057,2.163s0.755-0.039,1.354,0.42c0.833,0.639,1.527,1.487,1.527,1.487
					s0.783-1.133,1.102-1.787c0.59-1.213,0.773-1.828,0.773-1.828s0.799-0.691,0.904-1.353c0.226-1.399,0-2.247,0-2.247
					L77.015,38.213z"/>
			</g>
			<g>
				<g>
					<path fill="#D33962" d="M77.783,55.21l-0.001-0.313l-0.556-0.139l-0.891-0.514c-0.2-0.116-0.553-0.102-0.782,0.031
						l-0.077,0.045l-0.222-0.056v0.304c-0.002,0.011,0,0.021,0,0.031v0.022h0.001c0.01,0.063,0.053,0.123,0.131,0.169l1.314,0.76
						c0.2,0.114,0.552,0.1,0.781-0.033l0.111-0.064C77.715,55.384,77.777,55.295,77.783,55.21L77.783,55.21z"/>
				</g>
				<g>
					<path fill="#ED5A73" d="M75.387,54.489l1.314,0.759c0.2,0.115,0.552,0.1,0.781-0.032l0.111-0.063
						c0.23-0.134,0.256-0.336,0.057-0.452l-1.314-0.759c-0.2-0.115-0.553-0.101-0.782,0.032l-0.11,0.063
						C75.213,54.17,75.188,54.373,75.387,54.489z"/>
				</g>
			</g>
			<g>
				
					<ellipse transform="matrix(0.9643 0.2647 -0.2647 0.9643 13.9895 -17.2147)" fill="#8FB0F9" cx="70.871" cy="43.302" rx="0.393" ry="0.13"/>
			</g>
			<g>
				<path fill="#8FB0F9" d="M71.618,42.793c-0.257-0.145-0.476-0.192-0.665-0.296c-0.604-0.329-1.109-0.634-1.109-0.634
					s-0.471,0.437-0.24,0.763c0.141,0.2,0.258,0.24,0.455,0.402c0.222,0.182,0.104,0.614,0.104,0.614
					c-0.029,0.105,0.203,0.26,0.52,0.348c0.316,0.087,0.568,0.057,0.625-0.033C71.307,43.958,72.021,43.021,71.618,42.793z"/>
			</g>
		</g>
		<g>
			<g>
				<g>
					<path fill="#D33962" d="M65.66,37.167c-0.059-0.046-0.142-0.046-0.233,0.011c-0.185,0.114-0.338,0.411-0.343,0.664
						c-0.004,0.13,0.034,0.223,0.096,0.266l0,0l2.084,1.183l0.445-0.969L65.66,37.167z"/>
				</g>
				<g>
					<path fill="#ED5A73" d="M67.832,38.612c-0.006,0.252-0.158,0.55-0.343,0.664c-0.183,0.113-0.328,0.001-0.322-0.252
						c0.006-0.252,0.159-0.55,0.343-0.664C67.694,38.247,67.838,38.359,67.832,38.612z"/>
				</g>
				<g>
					<path fill="#473441" d="M67.674,38.769c-0.002,0.11-0.068,0.239-0.148,0.288c-0.08,0.05-0.143,0-0.141-0.109
						c0.002-0.11,0.069-0.239,0.148-0.288C67.613,38.61,67.676,38.66,67.674,38.769z"/>
				</g>
			</g>
			<g>
				<g>
					<path fill="#473441" d="M71.416,43.151c-0.371,0-0.809-0.096-1.32-0.37l-0.199-0.107c-1.275-0.679-1.979-1.053-1.605-2.268
						c0.02-0.063,0.18-0.625-0.133-0.852c-0.498-0.363-0.669-0.447-0.722-0.484l0.192-0.416c0.01,0.005,0.268,0.135,0.803,0.525
						c0.434,0.316,0.44,0.911,0.303,1.362c-0.252,0.822,0.025,1.003,1.379,1.724l0.202,0.107c1.088,0.582,1.718,0.228,2.178-0.031
						c0.095-0.053,0.184-0.104,0.268-0.139c0.606-0.26,0.945-0.059,1.622,0.342c0.102,0.061,0.215,0.127,0.34,0.199l-0.232,0.401
						c-0.127-0.073-0.24-0.141-0.344-0.202c-0.672-0.398-0.827-0.477-1.203-0.315c-0.066,0.028-0.139,0.07-0.223,0.117
						C72.421,42.914,71.998,43.151,71.416,43.151z"/>
				</g>
			</g>
			<g>
				<g>
					<path fill="#D33962" d="M74.582,42.323c-0.059-0.046-0.141-0.046-0.233,0.011c-0.184,0.114-0.337,0.411-0.343,0.664
						c-0.003,0.13,0.035,0.223,0.096,0.267l0,0l2.135,1.211l0.445-0.968L74.582,42.323z"/>
				</g>
				<g>
					<path fill="#ED5A73" d="M76.755,43.768c-0.006,0.253-0.159,0.55-0.343,0.664c-0.185,0.114-0.328,0-0.322-0.252
						c0.005-0.253,0.158-0.55,0.343-0.664C76.615,43.402,76.76,43.515,76.755,43.768z"/>
				</g>
			</g>
			<g>
				<g>
					<path fill="#AEC3FF" d="M69.094,41.44c-0.045-0.036-0.107-0.036-0.178,0.008c-0.142,0.088-0.26,0.316-0.264,0.51
						c-0.002,0.1,0.025,0.17,0.073,0.204l0,0l1.64,0.931l0.297-0.764L69.094,41.44z"/>
				</g>
				<g>
					<path fill="#84766B" d="M70.764,42.55c-0.004,0.194-0.122,0.422-0.264,0.509c-0.142,0.088-0.252,0.001-0.248-0.193
						c0.005-0.194,0.123-0.422,0.264-0.51C70.656,42.269,70.768,42.356,70.764,42.55z"/>
				</g>
				<g>
					<path fill="#473441" d="M70.703,42.648c-0.002,0.11-0.068,0.241-0.149,0.291s-0.144,0-0.142-0.11
						c0.002-0.11,0.07-0.241,0.15-0.291C70.643,42.487,70.707,42.537,70.703,42.648z"/>
				</g>
			</g>
			<g>
				<path fill="#473441" d="M70.852,42.6l-0.2-0.075l-0.198,0.419c0,0,0.105,0.045,0.217,0.084
					C70.703,43.04,70.852,42.6,70.852,42.6z"/>
			</g>
		</g>
		<g>
			<path fill="#FFB9A4" d="M73.563,32.029c0,0-0.79,0.078-1.271,0.305c-0.68,0.322-1.988,0.981-2.195,1.156
				c-0.611,0.513-2.091,2.316-3.107,3.24c-0.602,0.547-0.914,0.68-1.205,1.206c-0.292,0.527-0.038,0.603,0.19,0.862
				c0.517,0.586,0.933,0.242,0.933,0.242l-0.295-0.25c0,0,0.41-0.68,0.592-0.707c0.181-0.027,0.486,0.215,0.486,0.215
				s-0.122-0.596-0.217-0.74c0.299-0.354,1.128-0.717,1.561-1.062c0.658-0.524,1.523-1.604,1.523-1.604s2.391-0.63,2.916-1.002
				C73.998,33.518,73.563,32.029,73.563,32.029z"/>
		</g>
		<g>
			<path fill="#3A2934" d="M73.92,30.913c0,0-0.629,0.092-1.221,0.544s-1.676,1.121-1.676,1.121s-0.039,0.442,0.38,1.165
				s0.633,1.008,0.633,1.008s3.325-0.88,3.407-1.662C75.523,32.306,74.9,30.856,73.92,30.913z"/>
		</g>
		<g>
			<path fill="#FFAF04" d="M74.164,31.658c0,0-0.527,1.691-0.178,2.76c0.348,1.068,0.961,1.892,0.961,1.892
				s-0.283,0.806,0.063,1.107c-0.049,0.114-0.25,0.042-0.398,0.279c-0.051,0.079-0.313,0.279-0.073,0.518
				c0.257-0.155,0.252-0.209,0.36-0.307c0.396,0.164,0.776,0.757,1.244,1.152c0.294,0.25,0.508,0.878,1.924,1.249
				c0.916,0.24,1.978,0.473,1.978,0.473s-0.219-1.389-0.153-1.635c0.214-0.811,0.668-1.823,0.596-3.56
				c-0.071-1.736,0.282-2.604-1.501-3.72C77.203,30.749,74.957,30.373,74.164,31.658z"/>
		</g>
		<g>
			<path fill="#473441" d="M74.906,32.472c-0.065,0.024-0.334,0.84,0.074,1.772c0.406,0.932,0.875,0.813,1.641,0.08
				c0.769-0.732,1.573-1.92,1.532-2.425c-0.04-0.504-1.196-1.128-1.321-1.051C76.708,30.925,74.906,32.472,74.906,32.472z"/>
		</g>
		<g>
			<path fill="#FFB9A4" d="M75.016,32.031c0,0-0.176-0.292,0.113,0.604c-0.139,0.928,0.104,1.756,0.421,1.882
				c0.589,0.232,1.421-1.067,1.89-1.748c0.594-0.864,0.322-0.916,0.074-1.285c-0.653-0.974-0.838-1.192-0.838-1.192L75.016,32.031z"
				/>
		</g>
		<g>
			<path fill="#FFC9B6" d="M76.781,30.438c-0.211,2.008-1.271,2.675-2.016,2.413c-0.648-0.229-1.081-0.77-1.248-1.8
				c-0.248-1.538,0.455-2.487,1.142-2.516C75.346,28.506,76.989,28.453,76.781,30.438z"/>
		</g>
		<g>
			<path fill="#473441" d="M74.252,28.901l2.424,1.391c0,0,0.393,1.009,0.685,0.964c0.083-0.771,0.678-2.043-0.021-2.834
				C76.643,27.631,74.252,28.901,74.252,28.901z"/>
		</g>
		<g>
			<path fill="#3A2934" d="M76.774,29.462c0.061,0.048,0.081,0.8-0.015,1.153c-0.098,0.353-0.315,0.963-0.315,0.963l-0.143,0.481
				c0,0,0.534-0.639,0.704-1.318s0.111-1.294,0.111-1.294L76.774,29.462z"/>
		</g>
		<g>
			<path fill="#FFC9B6" d="M76.244,30.24c0,0,0.404-0.376,0.549-0.023c0.213,0.526-0.296,0.966-0.296,0.966L76.244,30.24z"/>
		</g>
		<g>
			<g>
				<path fill="#3A2934" d="M76.039,30.096c0,0,0.021-0.088,0.193,0.567c0.148,0.563,0.069,1.397,0.069,1.397l0.246-0.536
					c0,0,0.143-0.742-0.277-1.515C76.091,29.679,76.039,30.096,76.039,30.096z"/>
			</g>
			<g>
				<path fill="#FFBD03" d="M73.416,30.432c0.084,0.148,1.303,0.765,2.381,0.179s1.607-1.253,1.741-1.889
					c0.179-0.844-0.415-1.415-1.802-1.534c-1.273-0.11-2.487,0.955-2.633,1.781C72.959,29.795,73.234,30.111,73.416,30.432z"/>
			</g>
			<g>
				<path fill="#473441" d="M73.813,30.282c0,0-0.033-0.469,0.211-0.754c0.244-0.286,0.867-0.446,0.867-0.446
					s-0.246,0.533-0.558,0.79C74.098,30.064,73.813,30.282,73.813,30.282z"/>
			</g>
			<g>
				<path fill="#473441" d="M73.41,30.128c0,0-0.127-0.642-0.139-0.91c-0.012-0.269-0.061-0.667-0.061-0.667
					s-0.148,0.282-0.148,0.856C73.062,29.982,73.41,30.128,73.41,30.128z"/>
			</g>
			<g>
				<path fill="#473441" d="M74.693,30.18c0,0,0.439-0.442,0.774-0.603c0.335-0.16,1.167-0.518,1.167-0.518
					s-0.337,0.633-0.822,0.908C75.327,30.243,74.693,30.18,74.693,30.18z"/>
			</g>
			<g>
				<path fill="#473441" d="M74.248,28.785c0,0,0.598-0.782,1.472-0.979c0.565-0.127,1.12,0.124,1.12,0.124s-0.87,0.331-1.295,0.459
					C75.121,28.519,74.248,28.785,74.248,28.785z"/>
			</g>
			<g>
				<path fill="#473441" d="M74.538,27.41c-0.205,0.209-0.433,0.38-0.623,0.701c-0.118,0.198-0.174,0.462-0.174,0.462
					s-0.165-0.427-0.091-0.527C73.857,27.761,74.322,27.483,74.538,27.41z"/>
			</g>
			<g>
				<path fill="#FFFFFF" d="M77.055,27.963c0,0-1.313,0.514-1.738,0.974s-1.22,1.333-1.22,1.333s0.331,0.062,0.829-0.391
					c0.496-0.453,1.012-0.691,1.492-1.044C76.899,28.482,77.055,27.963,77.055,27.963z"/>
			</g>
			<g>
				<path fill="#FFFFFF" d="M74.583,27.561c-0.236,0.229-0.478,0.377-0.838,1.099c-0.315,0.632-0.247,1.333-0.247,1.333
					s0.34-0.765,0.629-1.202c0.44-0.666,0.744-0.924,1.032-1.054c0.483-0.217,1.085-0.398,1.085-0.398S75.097,27.064,74.583,27.561z
					"/>
			</g>
		</g>
		<g>
			<g>
				<path fill="#FFBD03" d="M75.981,52.318c0,0-0.034,0.398-0.376,0.898s-1.092,0.969-1.072,1.541
					c0.02,0.57,0.701,0.453,1.466,0.413c0.921-0.555,1.052-0.851,1.265-1.047s0.613-0.921,0.623-1.325
					c-0.221-0.502-0.666-0.969-0.666-0.969S76.773,52.455,75.981,52.318z"/>
			</g>
			<g>
				<path fill="#3A2934" d="M74.52,54.63c0,0,0.242-0.11,0.957,0.153c0.717,0.263,0.885-0.027,1.457-0.508
					c0.729-0.61,0.726-0.866,0.953-1.477c0.072,0.166,0.084,0.434,0.038,0.581c-0.104,0.343-0.558,0.859-0.896,1.155
					c-0.339,0.295-1.166,1.107-2.063,0.812C74.38,55.152,74.52,54.63,74.52,54.63z"/>
			</g>
			<g>
				<path fill="#3A2934" d="M76.092,52.333c0,0,0.054,0.353-0.305,0.857c-0.357,0.505-0.424,0.585-0.178,0.696
					s0.672-0.208,0.934-0.703c0.26-0.497,0.164-0.904,0.164-0.904L76.092,52.333z"/>
			</g>
		</g>
		<g>
			<path fill="#FFA71A" d="M75.426,37.273c0.12,0.099,0.799,0.81,1.229,1.29c0.43,0.48,0.961,0.671,0.961,0.671
				s-0.317-0.705-0.927-1.277C76.08,37.382,75.426,37.273,75.426,37.273z"/>
		</g>
		<g>
			<path fill="#FFC9B6" d="M79.131,34.327c0,0-0.168,1.847-0.087,2.566c0.083,0.72,0.192,1.842,0.192,1.842
				s-0.916,0.851-1.713,1.583c-0.564,0.518-1.238,0.997-1.768,1.283c-0.527,0.285-0.924,0.431-1.273,0.899
				c-0.351,0.468-0.424,0.699-0.113,0.98s0.436,0.398,0.646,0.491c0.211,0.094,0.338-0.004,0.338-0.004l-0.291-0.299
				c0,0,0.072-0.331,0.497-0.405s0.661-0.095,0.835-0.415s0.25-0.578,0.25-0.578s1.82-1.152,2.494-1.507
				c0.674-0.354,1.127-0.775,1.414-0.994c0.086-0.066,0.387-0.97,0.445-1.493c0.113-1.019,0.287-1.708,0.182-3.01
				C81.075,33.966,79.131,34.327,79.131,34.327z"/>
		</g>
		<g>
			<path fill="#473441" d="M79.742,32.911c-0.602,0.146-1.243,0.76-1.198,1.722c0.042,0.9,0.304,2.146,0.304,2.883
				c0.27,0.274,1.001,0.307,1.421,0.274c0.876-0.068,1.22-0.417,1.22-0.417s0.153-2.193-0.119-3.008
				C81.02,33.318,80.411,32.749,79.742,32.911z"/>
		</g>
		<g>
			<path fill="#FFB9A4" d="M67.508,37.522c-0.084-0.11-0.179-0.215-0.295-0.317c-0.173-0.15,0.218-0.595,0.025-0.71
				c-0.371,0.378-1.244,1.063-1.453,1.44c-0.292,0.527-0.038,0.603,0.19,0.862c0.517,0.586,0.933,0.242,0.933,0.242l-0.295-0.25
				c0,0,0.41-0.68,0.592-0.707c0.181-0.027,0.486,0.215,0.486,0.215s-0.122-0.596-0.217-0.74
				C67.484,37.546,67.497,37.533,67.508,37.522z"/>
		</g>
	</g>
</g>
</svg>
