<?xml version="1.0" encoding="utf-8"?>
<!-- Generator: Adobe Illustrator 17.0.0, SVG Export Plug-In . SVG Version: 6.00 Build 0)  -->
<!DOCTYPE svg PUBLIC "-//W3C//DTD SVG 1.1//EN" "http://www.w3.org/Graphics/SVG/1.1/DTD/svg11.dtd">
<svg version="1.1" id="Layer_1" xmlns="http://www.w3.org/2000/svg" xmlns:xlink="http://www.w3.org/1999/xlink" x="0px" y="0px"
	 width="800px" height="600px" viewBox="0 0 800 600" enable-background="new 0 0 800 600" xml:space="preserve">
<g>
	<path d="M625.624,327.858c-4.528-1.061-9.188-1.571-13.812-1.983c-7.197-0.646-12.628-3.715-8.009-12.843
		c11.313-22.363-8.46-27.378-16.209-29.693c2.906,14.937-8.814,24.239-12.448,32.026c-2.962,6.345-1.754,14.009,3.347,18.85
		c6.321,6.006,14.897,9.868,22.701,13.564c5.393,2.553,11.383,4.977,14.687,10.249c6.034,9.636-7.002,15.41-13.895,17.607
		c-14.86,4.734-31.725-0.109-46.608-2.38c-14.981-2.285-28.836-5.992-43.308-10.495c-14.058-4.377-24.616-11.151-33.127-23.263
		c-6.659-9.481-10.875-20.368-16.869-30.232c7.957-4.286,15.496-7.512,24.551-9.616c17.765-4.127,30.298-2.756,40.118,0.148
		c9.819,2.903,16.921,6.858,19.085,8.16c2.166,1.3,6.777-4.289,5.116-6.5c-1.658-2.213-9.404-11.203-10.005-14.689
		c-0.373-2.166,1.396-2.4,3.509-2.1c1.938,0.276,3.798,1.104,5.697,1.569c2.548,0.622,8.13,2.081,10.344-3.035
		c1.775-4.104-1.246-5.671-6.085-7.192c-2.72-0.856-8.852-4.564-10.338-6.711c3.699-2.971,14.349-9.332,15.594-16.939
		c0.696-4.265-3.735-7.746-5.948-6.085c-2.214,1.66-11.97,8.837-18.729,9.274c-8.41,0.545-5.353-10.366-8.725-14.589
		c-2.474-3.097-5.155,0.23-6.432,2.327c-2.3,3.772-3.404,8.83-2.09,13.085c-9.802,8.296-21.369,11.443-33.029,16.596
		c-10.172,4.494-19.426,9.099-29.319,14.46c-3.53-13.106-4.8-28.302-13.546-38.064c17.005-6.828,36.498-8.247,52.846-17.223
		c8.212-4.509,16.982-12.423,17.479-22.295c0.248-4.938-3.851-9.863-6.67-13.393c-1.82-2.279-3.939-4.355-5.898-6.516
		c-0.397-0.438-0.758-0.897-1.13-1.35c-1.769-8.833-1.314-15.785,1.012-24.777c1.571-6.067,2.867-13.08,1.246-19.284
		c-2.962-11.335-14.566-16.208-25.246-12.198c-5.567,2.088-21.177,16.704-24.028,5.404c-0.669-2.646-1.696-6.49-5.093-6.773
		c-7.407-0.615-11.548,5.282-14.586,11.85c-3.014,2.025-5.767,4.227-6.917,7.479c-0.211,0.593,0.528,1.251,0.975,0.917
		c0.94-0.702,2.712-2.177,3.842-3.039c-0.599,1.504-2.753,5.39-3.599,6.843c-1.757,0.095-3.483,0.23-5.124,0.455
		c-0.758,0.104-1.041,1.315-0.152,1.448c1.171,0.175,2.337,0.322,3.5,0.464c-4.718,6.327-9.029,12.125-17.344,14.622
		c-9.9,2.971-21.392-0.306-31.773,0.571c-5.353-2.37-12.061-3.166-17.028-1.987c-4.993-2.566-10.859-3.691-15.972-2.544
		c-0.038-0.016-0.073-0.034-0.112-0.049c-5.674-2.405-11.594-4.356-17.371-6.566c-0.87-1.799-1.54-3.772-1.978-6.144
		c-0.764-4.135-1.146-8.061-2.799-11.97c-2.299-5.443-7.553-7.911-13.073-7.752c-5.119,0.148-10.492,4.637-14.132,7.741
		c-5.825,4.967-11.565,10.283-16.895,15.837c-6.384,0.765-12.516,3.121-11.939,9.686c0.485,5.522,4.3,7.906,8.389,11.312
		c6.108,5.083,13.448,8.848,20.808,12.109c-0.512,9.552,3.978,15.275,8.782,17.737c0.48,0.247-1.886-9.599-0.169-13.813
		c0.805,3.453,4.134,6.874,6.822,9.294c0.247,0.223,3.807-2.117,4.946-2.814c0.596,1.109,1.278,2.643,1.782,3.304
		c1.544,0.619,3.931,1.215,5.125,1.557c-1.612,3.935-2.38,9.013-2.202,12.889c-2.16-0.244-4.311-0.662-6.451-1.2
		c-0.076-1.441-1.324-9.472-2.518-12.287c-4.435,1.962-6.351,8.007-6.874,9.637c-5.246-1.467-10.481-2.587-15.761-1.802
		c-2.082,0.309-3.495,2.203-3.059,4.266c0.35,1.652,1.245,2.847,2.417,3.749c-1.203,9.823,5.352,20.945,15.139,23.225
		c5.593,1.303,11.329-1.427,15.429-5.011c3.794-3.315,4.794-5.609,10.681-6.775c4.546-0.901,9.562-0.32,14.163-0.301
		c12.745,0.051,25.438,0.346,38.127,1.565c3.118,0.3,6.231,0.656,9.319,1.171c-1.593,11.198-5.412,19.678-12.555,29.043
		c-7.757,10.172-16.391,16.914-23.348,27.783c-1.77,2.768-3.086,5.896-4.095,8.302c-5.757,2.658-14.937,3.499-23.126,1.959
		c-12.605-2.37-27.14-9.28-34.639-14.058c3.148-2.793,9.607-10.376,7.835-10.154c-6.328,0.792-12.562,1.257-18.905,2.261
		c-2.019-6.359-8.329-23.407-11.498-30.033c-0.002-0.007-0.009-0.01-0.014-0.016c0.924-0.424,3.066-1.709,2.904-2.57
		c-0.162-0.863-5.902-11.988-8.022-15.034c2.645-3.342,2.059-8.684-0.644-12.132c-1.782-2.272-4.357-3.63-7.086-4.064
		c3.974-2.644,11.604-10.374,9.916-13.965c-6.735-14.313-20.17-39.419-22.889-45.342c-2.72-5.923-10.717-3.178-15.437-0.865
		c-6.473,3.171-24.272,13.208-21.872,19.465c5.645,14.725,22.602,44.065,25.573,48.932c2.971,4.868,11.165-0.066,12.678-1.069
		c-1.142,4.258,0.076,9.383,3.35,12.003c1.528,1.22,3.017,1.991,5.007,2.131c0.773,4.649,4.117,14.723,4.992,15.388
		c0.874,0.665,2.99,0.356,4.528-0.111c2.435,7.418,8.747,23.693,10.883,28.831c-1.619,0.427-7.176,2.123-7.561,2.612
		c-6.089,7.749,3.299,27.369,6.889,35.825c1.683,3.962,3.305,11.868,7.442,13.849c3.157,1.508,6.149,1.663,10.356,0.701
		c7.97,25.906,17.824,53.582,26.194,77.616c-2.281,2.759-2.729,7.547-1.179,9.706c-8.937,1.439-20.3,1.254-22.81,12.147
		c-1.379,5.98,0.921,15.962-6.612,18.087c-4.988,1.407-8.669,1.101-13.111,4.366c-0.352,0.257,0.325,1.506,0.703,1.287
		c8.043-4.656,17.704,0.027,20.401-11.43c2.048-8.695-0.65-17.534,11.158-20.326c3.207-0.759,6.559-0.226,9.345-1.25
		c-4.163,11.203-8.435,23.742-11.603,32.699c-6.476,0.758-6.614,6.337-4.872,9.33c1.71,2.942,5.881,4.02,8.867,2.243
		c2.346-1.397,3.886-5.772,1.654-9.092c3.031-7.579,10.196-26.593,12.257-34.929c0.801,0.062,1.597-0.024,2.364-0.221
		c4.529,6.491,13.743,19.131,17.756,23.851c-1.516,6.476,3.719,11.436,8.043,9.329c3.813-1.855,5.494-5.552,4.107-9.14
		c-1.133-2.939-4.031-4.8-6.827-4.35c-5.185-6.998-13.842-17.175-18.55-22.568c0.414-0.139,0.64-1.26,0.944-2.17
		c0.001-0.002,0.001-0.003,0.001-0.006c7.752,1.663,15.666,2.817,23.53,3.75c0.326,2.834,4.598,7.794,9.918,4.164
		c3.231-2.207,3.285-6.454,1.077-9.461c-1.739-2.369-6.81-5.51-9.98-1.65c-6.974-0.997-18.714-2.493-25.879-2.906
		c-0.142-0.914-1.504-2.159-2.245-2.466c-2.974-9.123-21.699-63.989-26.681-78.823c2.315-0.83,6.803-3.88,5.647-4.318
		c-2.931-1.109-6.134-3.597-8.474-5.229c1.075-0.281,2.142-0.597,3.208-0.914c6.458,2.559,13.522,4.832,20.577,5.979
		c0.097,0.068,0.222,0.097,0.377,0.063c2.836,0.445,5.671,0.72,8.462,0.728c4.665,0.014,10.866-1.677,15.006-5.032
		c-1.364,12.143,0.14,24.487,4.761,36.659c4.071,10.718,10.671,20.41,18.216,28.962c6.849,7.767,15.367,12.976,23.317,19.3
		c-2.844,5.715,1.754,15.94,7.351,22.791c-9.731-1.891-30.497-2.339-30.323,3.996c6.131-0.198,12.187,1.568,12.102,2.83
		c-0.083,1.26-1.613,1.815-4.206,2.775c-4.035,1.497-11.686,3.615-12.889,8.252c8.518-0.182,20.794-0.35,21.625,3.019
		c0.456,1.853-7.389,2.94-11.257,4.62c-3.867,1.681-7.232,4.37-7.232,7.232c11.52-0.171,27.234-0.877,33.38-1.011
		c8.429-0.182,20.718,1.759,25.56-1.346c7.737-4.96,2.793-15.312-4.558-20.768c-0.991-4.285,0.151-8.865,0.595-10.024
		c9.515,5.234,25,6.448,36.779,4.745c1.459,1.673,8.138,9.535,9.934,11.833c-21.814-4.368-30.642,0.342-30.894,2.445
		c3.616,0.756,12.947,2.5,14.546,5.034c1.596,2.531-14.546,3.961-16.901,7.155c2.439,3.45,14.931,2.861,18.25,4.086
		c5.798,2.138-15.643,14.415-16.232,15.508c4.877,2.271,14.592,0.423,20.076-0.153c9.773-1.025,18.351-2.37,29.321-3.481
		c10.452-1.056,30.494-1.778,25.862-15.949c-2.207-6.75-8.028-11.123-12.971-15.869c-3.491-3.35-11.165-8.607-12.956-13.679
		c5.138,1.332,14.019,1.819,19.617,1.035c9.127-1.277,15.729-4.033,24.12-9.17c9.459,2.389,19.615-0.344,29.003-2.623
		c15.605-3.79,31.036-8.136,46.562-12.226c13.417-3.535,25.123-5.394,35.629-15.093c8.822-8.148,14.255-19.826,15.9-31.594
		C657.142,344.288,644.106,332.184,625.624,327.858z M341.832,215.032c-0.574,0.403-2.35,1.776-3.219,2.985
		c-1.532-1.559-4.517-3.946-5.967-4.287c-1.43,1.325-3.289,3.848-4.305,5.637c-0.556-3.164-1.25-8.946-1.383-10.049
		c6.283,2.11,13.404,2.909,16.515,2.877c0.063,0.475,0.171,1.96,0.427,2.814c3.049,0.01,7.743,0.167,10.149-2.132
		c1.79,0.596,4.385,1.816,4.878,2.316c-2.661,0.669-8.896,1.758-13.39,2.565C344.769,216.831,343.134,215.435,341.832,215.032z
		 M366.264,210.737c0.803,0.709,3.668,2.276,4.19,2.491c-3.367,0.524-6.726,1.113-10.079,1.74
		C362.406,213.473,364.367,212.024,366.264,210.737z M382.377,209.323c7.041-0.359,19.954-1.535,20.536-1.563
		c0.585-0.028,2.019,1.416,2.047,2.132c-7.142,0.853-26.666,2.361-29.421,2.729C375.538,212.578,381.506,210.05,382.377,209.323z"/>
	<path d="M259.478,129.561c-8.271-6.48-21.319-19.101-30.049-28.1c-0.682-0.705-1.966,0.731-1.503,1.581
		c4.179,7.676,17.482,21.575,24.884,26.439c-11.58,6.308-12.945,18.843-6.864,23.449c5.356,4.058,12.301-3.096,14.368-8.138
		C262.094,140.449,264.229,133.284,259.478,129.561z"/>
	<path d="M302.253,91.277c-3.108-2.765-8.151-2.38-11.96-2.274c-3.744,0.103-9.666-0.372-14.954-8.816
		c-0.163-0.26-1.751,0.424-1.704,0.769c0.766,5.543,7.358,29.221,13.558,38.374c-1.761-0.284-6.97-2.419-13.643,2.132
		c-3.752,2.558-4.354,6.125-3.055,8.852c2.707,5.689,11.166,6.137,16.504,4.932c3.607-0.816,7.152-2.684,8.333-6.381
		c0.702-2.193-0.142-4.67-3.022-9.961c-3.667-6.737-7.078-13.475-8.101-18.676c4.69,3.496,9.209,1.791,12.791,0.086
		c2.703-1.287,6.224,4.263,3.224,7.57c-0.305,0.337,0.275,0.73,0.653,0.523c2.097-1.139,3.9-3.922,4.475-6.159
		C306.462,97.921,305.666,94.315,302.253,91.277z"/>
	<path fill="#C5C5C5" d="M355.52,419.659c3.169-1.79,5.789,3.579,5.098,5.375c-0.61,1.584-2.812,2.861-4.547,2.065
		C354.372,426.32,352.351,421.452,355.52,419.659z"/>
	<path fill="#C5C5C5" d="M350.973,419.935c-0.275,0.689-0.584,2.087-0.313,3.161c-6.975-1.105-15.167-2.102-22.725-3.516
		c-0.011-0.845-0.202-1.686-0.527-2.461C331.227,417.735,347.087,419.621,350.973,419.935z"/>
	<path fill="#C4C642" d="M649.361,357.812c-1.364-0.813-2.933-1.295-4.456-1.391c-3.33-3.376-0.625-7.31,2.442-7.632
		C648.181,350.793,649.361,354.766,649.361,357.812z"/>
	<path fill="#F0EBC2" d="M295.581,190.294c1.269,1.21,2.93,2.583,4.233,3.226c-1.303,4.131-0.171,9.637,0.352,13.287
		C295.235,203.012,294.356,194.969,295.581,190.294z"/>
	<path fill="#CC705E" d="M298.705,189.767c-3.496-3.07-8.277-7.888-10.832-11.81c-1.73-2.657-4.863-9.295,0.428-10.703
		c4.248-1.13,12.281,2.047,19.949,6.169c-2.96,3.306-4.087,15.661,0.791,23.146C306.886,195.505,302.202,192.837,298.705,189.767z"
		/>
	<path fill="#F0EBC2" d="M312.179,200.853c0.683,0.256-2.324,1.696-3.398,2.608c-1.202-1.173-4.277-4.57-5.129-6.956
		C305.961,198.339,310.575,200.252,312.179,200.853z"/>
	<path fill="#F0EBC2" d="M313.013,198.064c-6.811-4.896-5.95-17.506-3.241-23.833c2.315,1.264,4.589,2.617,6.862,3.965
		C315.165,182.348,312.946,192.497,313.013,198.064z"/>
	<path fill="#CC705E" d="M328.894,192.582c2.463,0.821,6.072-1.52,9.145-3.82c0.07,1.652,1.559,5.623,2.348,5.915
		c0.785,0.293,6.159,0.844,6.926,0.89c0.767,0.047,1.877-1.533,2.559-2.216c0.425,1.108,1.109,3.836,1.535,4.007
		c0.328,0.131,8.037,1.454,8.784,1.45c0.747-0.004,2.578-1.601,3.241-2.387c1.694,1.44,3.836,3.239,4.604,3.239
		s3.316-0.883,5.335-2.119c1.666,1.81,3.64,4.025,5.751,5.189c1.706-1.791,3.148-3.512,4.006-4.178
		c0.397,0.736,2.324,2.922,2.73,2.984c6.056,0.938,17.652,0.087,18.42-0.255c0.767-0.342,2.985-4.519,3.668-5.798
		c1.278,1.619,3.16,3.127,4.931,4.397c0.561,0.402,8.004-5.48,8.03-5.506c0.85-0.063,2.205-0.164,3.056-0.223
		c-4.752,2.921-7.916,9.089-7.082,13.699c-3.305,0.683-6.644,1.233-9.999,1.679c-0.557-1.426-2.007-2.876-3.285-3.558
		c-1.705,0.171-17.52,1.132-19.691,1.325c-10.927,0.973-22.266,0.677-33.174-0.246c-8.213-0.697-16.551-2.187-24.485-3.979
		c0.005-0.681,0.005-1.705-0.165-2.557c-0.612,0.384-2.093,1.692-2.611,2.187c-1.907-0.567-5.612-1.96-8.389-2.955
		c0.427-5.019,1.143-14.15,3.836-19.527C320.511,184.264,326.846,191.9,328.894,192.582z"/>
	<path fill="#B34738" d="M306.433,177.41c0.446-1.753,1.073-3.155,1.817-3.987c-7.668-4.122-15.701-7.299-19.949-6.169
		c-2.863,0.761-3.251,3.055-2.739,5.419C291.57,169.713,300.578,174.193,306.433,177.41z"/>
	<path fill="#B34738" d="M356.895,198.899c6.395,1.039,12.674,1.32,18.982,1.276c-0.891-0.868-1.732-1.795-2.507-2.636
		c-2.019,1.236-4.567,2.119-5.335,2.119s-2.91-1.799-4.604-3.239c-0.663,0.786-2.494,2.383-3.241,2.387
		c-0.747,0.004-8.456-1.319-8.784-1.45c-0.426-0.171-1.109-2.899-1.535-4.007c-0.682,0.683-1.791,2.263-2.559,2.216
		c-0.562-0.033-3.598-0.338-5.489-0.615C346.674,196.673,351.672,198.05,356.895,198.899z"/>
	<path fill="#B34738" d="M339.965,194.275c-0.805-1.102-1.868-4.124-1.926-5.514c-1.423,1.065-2.959,2.134-4.445,2.899
		C335.693,192.59,337.815,193.465,339.965,194.275z"/>
	<path fill="#B34738" d="M423.962,194.15c-0.851,0.06-2.206,0.161-3.056,0.223c-0.026,0.026-7.469,5.909-8.03,5.506
		c-1.771-1.269-3.652-2.778-4.931-4.397c-0.238,0.444-0.659,1.238-1.143,2.098c1.279-0.152,2.614-0.1,3.674,0.673
		c3.289,2.404,2.873,6.527,1.185,10.56c1.747-0.289,3.488-0.606,5.219-0.964C416.046,203.239,419.21,197.071,423.962,194.15z"/>
	<path fill="#B34738" d="M322.716,186.365c-1.652-2.165-3.137-4.465-3.801-6.148c-0.507,1.014-0.945,2.163-1.324,3.392
		C319.295,184.541,321.002,185.464,322.716,186.365z"/>
	<path fill="#B34738" d="M316.159,190.085c-0.572,3.592-0.865,7.142-1.08,9.659c0.868,0.311,1.827,0.661,2.793,1.012
		C317.017,197.304,316.331,193.602,316.159,190.085z"/>
	<path fill="#F0EBC2" d="M322.225,181.389c3.599,1.897,10.036,4.782,14.413,6.192c-2.118,1.247-4.784,2.913-7.148,2.441
		C328.151,189.757,322.498,183.031,322.225,181.389z"/>
	<path fill="#F0EBC2" d="M339.638,188.744c7.759,2.644,51.081,7.59,65.908,6.38c-0.075,0.784-1.951,3.853-2.377,4.195
		c-0.428,0.341-16.288,0.255-16.628,0.255c-0.344,0-2.645-3.069-3.271-3.894c-0.653,0.483-3.364,2.824-4.32,4.404
		c-1.522-1.01-4.519-3.58-6.005-5.241c-1.422,0.918-4.049,2.696-4.74,2.683c-0.689-0.014-3.369-2.863-4.409-3.883
		c-1.049,1.07-3.348,2.525-3.862,2.776c-0.512,0.251-6.868-0.701-7.078-0.847c-0.256-0.177-2.328-4.084-2.814-4.015
		c-0.741,0.106-2.303,1.792-2.645,2.218c-0.341,0.426-5.712-0.256-6.225-0.767C340.992,192.827,340.064,190.535,339.638,188.744z"/>
	<path fill="#F0EBC2" d="M409.82,194.97c2.13-0.09,5.977-0.366,8.101-0.512c-1.214,1.197-4.263,3.326-4.69,3.496
		C412.805,198.124,410.764,195.72,409.82,194.97z"/>
	<path fill="#F0EBC2" d="M344.072,218.079c-1.051,0.183-3.126,0.427-4.178,0.597c0.55-0.651,1.364-1.535,2.302-2.133
		C342.963,217.055,343.634,217.715,344.072,218.079z"/>
	<path fill="#F0EBC2" d="M337.084,219.146c-2.437,0.357-4.878,0.661-7.327,0.91c0.927-1.467,2.121-3.086,3.314-4.11
		C334.606,216.799,336.653,218.249,337.084,219.146z"/>
	<path fill="#F0EBC2" d="M353.877,211.171c-2.303,1.705-6.567,2.047-8.868,1.961c-0.139-0.288-0.085-1.536-0.442-2.575
		c-1.434,0.272-13.202-0.75-17.802-2.863c-0.103-0.908-0.208-1.818-0.308-2.726c10.465,4.823,24.992,5.113,36.631,5.264
		c-0.939,1.024-2.473,2.218-3.497,2.986C357.847,212.4,355.768,211.535,353.877,211.171z"/>
	<path fill="#F0EBC2" d="M368.897,210.126c2.464-0.153,6.082-0.393,10.076-0.618c-1.047,0.641-3.605,2.003-5.397,2.516
		C371.99,211.949,369.483,210.83,368.897,210.126z"/>
	<path fill="#F0EBC2" d="M316.273,204.861c-1.189-2.267-1.148-2.179-1.675-3.125c2.614,0.936,5.171,1.675,7.473,2.443
		c-0.285,0.412-0.797,1.333-1.045,1.78C319.342,205.8,316.273,204.861,316.273,204.861z"/>
	<path fill="#F0EBC2" d="M324.835,204.203c-0.069,2.499,0.496,13.631,1.685,16.166c-1.975,0.61-4.533,0.864-6.645,0.193
		C319.961,217.262,320.621,206.652,324.835,204.203z"/>
	<path fill="#F0EBC2" d="M308.342,209.381c0.582,1.664,1.194,6.822,1.213,9.244c-1.813-0.501-3.623-1.039-5.429-1.565
		C304.846,213.73,306.389,210.893,308.342,209.381z"/>
	<path fill="#DBD4A1" d="M298.85,197.218c0.195,0.147,0.304,0.33,0.38,0.52c0.022-1.473,0.173-2.916,0.584-4.218
		c-1.303-0.644-2.964-2.016-4.233-3.226c-0.366,1.399-0.523,3.106-0.461,4.904C296.435,195.731,297.705,196.349,298.85,197.218z"/>
	<path fill="#DBD4A1" d="M311.662,201.566c0.497-0.344,0.777-0.616,0.517-0.713c-1.605-0.601-6.218-2.515-8.527-4.348
		c0.373,1.043,1.171,2.269,2.05,3.426C307.728,200.351,309.707,200.919,311.662,201.566z"/>
	<path fill="#DBD4A1" d="M314.355,187.069c0.711-3.555,1.579-6.896,2.278-8.873c-2.272-1.349-4.546-2.701-6.862-3.965
		c-0.317,0.742-0.606,1.576-0.864,2.466C311.27,179.845,313.145,183.362,314.355,187.069z"/>
	<path fill="#DBD4A1" d="M334.034,189.028c0.915-0.452,1.802-0.973,2.605-1.446c-4.377-1.411-10.814-4.295-14.413-6.192
		c0.071,0.426,0.508,1.196,1.134,2.105C327.123,184.983,330.708,186.754,334.034,189.028z"/>
	<path fill="#DBD4A1" d="M348.864,192.293c0.436-0.379,0.874-0.692,1.178-0.735c0.165-0.023,0.512,0.416,0.906,1.004
		c4.131,0.535,8.268,1.013,12.406,1.481c0.156-0.136,0.316-0.272,0.441-0.399c0.14,0.137,0.317,0.316,0.509,0.508
		c2.746,0.311,5.492,0.624,8.236,0.955c0.136-0.088,0.284-0.186,0.405-0.263c0.098,0.111,0.218,0.234,0.332,0.353
		c1.488,0.182,2.978,0.368,4.466,0.566c1.582,0.209,3.149,0.41,4.714,0.589c0.359-0.311,0.651-0.551,0.813-0.671
		c0.14,0.184,0.364,0.48,0.63,0.829c3.794,0.396,7.576,0.633,11.461,0.472c3.157-0.131,6.279-0.245,9.403-0.079
		c0.414-0.746,0.752-1.454,0.783-1.778c-14.827,1.211-58.149-3.736-65.908-6.38c0.174,0.732,0.433,1.535,0.689,2.256
		C343.167,191.477,346.012,191.907,348.864,192.293z"/>
	<path fill="#DBD4A1" d="M414.953,196.825c1.045-0.746,2.289-1.698,2.967-2.367c-1.22,0.085-3.009,0.21-4.716,0.319
		C413.791,195.458,414.371,196.143,414.953,196.825z"/>
	<path fill="#DBD4A1" d="M340.83,217.661c-0.359,0.354-0.678,0.71-0.936,1.015c1.052-0.169,3.127-0.414,4.178-0.597
		c-0.194-0.162-0.44-0.385-0.715-0.624C342.522,217.574,341.679,217.634,340.83,217.661z"/>
	<path fill="#DBD4A1" d="M335.786,217.729c-1.661,0.834-3.524,1.087-5.369,1.422c-0.22,0.337-0.432,0.674-0.627,1.002
		c2.44-0.312,4.872-0.683,7.299-1.104C336.896,218.673,336.402,218.205,335.786,217.729z"/>
	<path fill="#DBD4A1" d="M344.694,209.56c0.778,0.207,1.56,0.414,2.327,0.636c0.273,0.079,0.463,0.227,0.593,0.408
		c0.002,0,0.005,0.001,0.009,0.002c3.752,0.44,7.537,0.577,11.312,0.858c0.128,0.009,0.239,0.039,0.339,0.082
		c0.98-0.1,1.949-0.243,2.901-0.427c0.331-0.298,0.649-0.597,0.912-0.886c-5.867-0.076-12.464-0.198-18.909-0.908
		C344.35,209.404,344.521,209.484,344.694,209.56z"/>
	<path fill="#DBD4A1" d="M337.144,208.275c-3.814-0.755-7.445-1.812-10.686-3.306c0.1,0.909,0.205,1.818,0.308,2.726
		c1.201,0.551,2.892,1.026,4.757,1.425C333.362,208.464,335.245,208.228,337.144,208.275z"/>
	<path fill="#DBD4A1" d="M371.882,209.937c0.358,0.65,0.692,1.313,0.988,1.997c0.248,0.047,0.486,0.08,0.707,0.091
		c1.792-0.513,4.351-1.875,5.397-2.516C376.376,209.654,373.946,209.806,371.882,209.937z"/>
	<path fill="#DBD4A1" d="M320.617,204.74c0.379,0.129,0.598,0.391,0.707,0.687c0.251-0.444,0.551-0.965,0.748-1.248
		c-2.302-0.768-4.86-1.507-7.473-2.443c0.258,0.463,0.384,0.686,0.583,1.054C316.99,203.447,318.795,204.118,320.617,204.74z"/>
	<path fill="#DBD4A1" d="M320.059,217.368c-0.113,1.315-0.165,2.446-0.184,3.193c2.112,0.671,4.669,0.417,6.645-0.193
		c-0.42-0.895-0.76-2.868-1.024-5.148C323.808,216.397,322.02,217.273,320.059,217.368z"/>
	<path fill="#DBD4A1" d="M304.751,214.915c-0.243,0.688-0.463,1.396-0.625,2.145c1.806,0.526,3.616,1.064,5.429,1.565
		c-0.004-0.577-0.046-1.318-0.11-2.121C307.879,216.324,306.233,215.627,304.751,214.915z"/>
	<path fill="#C5C5C5" d="M254.458,200.042l-1.671-3.268c1.702-0.259,3.265-0.488,4.131-0.611c0.673,1.34,1.284,2.565,1.812,3.634
		l-4.079,0.631C254.586,200.298,254.524,200.172,254.458,200.042z"/>
	<path fill="#C5C5C5" d="M245.406,173.59l-4.044,0.847l-2.016-3.944c1.61-0.304,3.135-0.58,4.076-0.749
		C244.044,170.95,244.709,172.239,245.406,173.59z"/>
	<path fill="#C5C5C5" d="M246.907,176.507c0.6,1.168,1.212,2.359,1.831,3.566l-4.061,0.85l-1.871-3.661
		C244.415,176.958,245.947,176.679,246.907,176.507z"/>
	<path fill="#C5C5C5" d="M250.237,182.998c0.592,1.16,1.184,2.317,1.766,3.46l-4.058,0.85l-1.818-3.557
		C247.797,183.437,249.345,183.158,250.237,182.998z"/>
	<path fill="#C5C5C5" d="M253.495,189.389c0.669,1.316,1.317,2.593,1.932,3.814l-4.103,0.713l-1.93-3.777
		C251.106,189.82,252.667,189.538,253.495,189.389z"/>
	<path fill="#C5C5C5" d="M232.755,222.934c-0.379-0.357-1.796-2.747-3.75-6.25l6.316-4.59c0.666-0.485,0.816-1.42,0.33-2.088
		c-0.486-0.667-1.421-0.816-2.088-0.329l-6.014,4.369c-0.566-1.032-1.16-2.129-1.773-3.267l6.113-4.442
		c0.668-0.486,0.815-1.419,0.331-2.087c-0.487-0.668-1.421-0.816-2.089-0.329l-5.78,4.199c-0.632-1.184-1.275-2.395-1.923-3.632
		l6.14-4.462c0.666-0.485,0.815-1.42,0.33-2.087c-0.486-0.668-1.42-0.816-2.088-0.331l-5.782,4.201
		c-0.592-1.137-1.182-2.275-1.766-3.413l5.985-4.349c0.665-0.485,0.815-1.42,0.329-2.088c-0.485-0.668-1.42-0.815-2.088-0.329
		l-5.602,4.07c-0.711-1.401-1.402-2.775-2.065-4.112l6.214-4.516c0.667-0.485,0.815-1.42,0.331-2.087
		c-0.487-0.668-1.42-0.817-2.089-0.331l-5.795,4.21c-0.637-1.309-1.229-2.548-1.771-3.71l5.893-4.283
		c0.666-0.484,0.815-1.419,0.331-2.087c-0.486-0.668-1.421-0.814-2.089-0.33l-5.403,3.926c-1.222-2.761-1.946-4.703-1.892-5.32
		c0.287-3.284,7.983-9.255,12.938-11.868c8.494-4.48,14.604-7.476,16.575-3.814c0.386,0.717,1.425,2.708,2.846,5.446l-4.029,0.844
		c-1.328-2.451-2.503-4.138-2.76-3.913c-0.236,0.207,0.372,1.954,1.412,4.195l-4.45,0.931c-0.437,0.097-1.52,0.785-1.732,0.938
		l-6.808,4.946c-0.667,0.485-0.815,1.42-0.329,2.087c0.485,0.668,1.42,0.815,2.087,0.33c0,0,6.454-4.846,7.451-5.288
		c0.437-0.194,2.734-0.668,5.172-1.136l2.029,3.968l-4.328,0.906c-0.437,0.097-1.521,0.785-1.732,0.938l-6.808,4.946
		c-0.667,0.485-0.815,1.42-0.33,2.087c0.486,0.668,1.421,0.816,2.088,0.331c0,0,6.454-4.845,7.451-5.288
		c0.433-0.193,2.683-0.657,5.091-1.118l1.884,3.686l-4.546,0.951c-0.437,0.097-1.52,0.784-1.732,0.936l-6.808,4.947
		c-0.667,0.485-0.815,1.419-0.33,2.087c0.486,0.668,1.42,0.817,2.088,0.331c0,0,6.454-4.846,7.451-5.288
		c0.446-0.199,2.822-0.685,5.31-1.161l1.833,3.582l-4.712,0.988c-0.437,0.096-1.52,0.782-1.732,0.937l-6.806,4.945
		c-0.668,0.486-0.816,1.421-0.331,2.088c0.486,0.668,1.42,0.816,2.088,0.331c0,0,6.454-4.846,7.451-5.288
		c0.456-0.203,2.929-0.706,5.478-1.195l1.92,3.757l-4.53,0.786c-0.44,0.082-1.546,0.731-1.763,0.877l-6.973,4.709
		c-0.684,0.461-0.864,1.389-0.403,2.074c0.462,0.685,1.392,0.865,2.076,0.402c0,0,6.616-4.62,7.628-5.028
		c0.455-0.184,2.886-0.594,5.412-0.988l1.869,3.654l-4.466,0.689c-0.442,0.074-1.559,0.703-1.778,0.844l-7.06,4.579
		c-0.692,0.449-0.89,1.373-0.442,2.066c0.451,0.692,1.376,0.89,2.068,0.441c0,0,6.703-4.497,7.721-4.886
		c0.464-0.177,2.942-0.546,5.502-0.896c0.992,1.686,1.79,2.749,1.999,2.569c0.181-0.161-0.137-1.232-0.764-2.735
		c1.694-0.227,3.269-0.427,4.181-0.541c0.304,0.65,0.516,1.119,0.589,1.331c0.886,2.546-3.875,8.082-11.403,12.954
		C241.833,221.937,234.427,224.509,232.755,222.934z"/>
	<path fill="#9E9E9E" d="M249.36,193.117l-1.384-2.709c-1.639,0.314-3.24,0.633-4.299,0.876
		C246.33,193.903,249.36,193.117,249.36,193.117z"/>
	<path fill="#9E9E9E" d="M240.653,187.138c0.285,0.505,0.6,1.02,0.938,1.533c0.088-0.036,0.171-0.067,0.236-0.081l4.712-0.988
		l-1.833-3.582c-2.126,0.407-4.162,0.82-4.99,1.057C239.979,185.784,240.279,186.476,240.653,187.138z"/>
	<path fill="#9E9E9E" d="M240.529,179.84c-0.647,0.972-0.947,2.149-0.947,2.149l3.691-0.772l-1.424-2.785
		C241.849,178.432,241.176,178.866,240.529,179.84z"/>
	<path fill="#C5C5C5" d="M248.702,233.917c-3.568-2.921-2.084-10.079,1.911-11.854c3.262-1.449,7.645,0.329,9.666,3.028
		c0.514,0.689,0.785,1.389,0.889,2.098c-0.52-0.692-1.134-1.308-1.866-1.819c-3.376-2.361-7.043,0.745-7.682,4.234
		c-0.567,3.091,2.044,5.303,4.678,5.588c-0.319,0.107-0.649,0.208-1.018,0.274C252.914,235.891,250.578,235.452,248.702,233.917z"/>
	<path fill="#C5C5C5" d="M259.808,232.454c-1.038,2.214-6.683,0.554-6.267-2.679c0.254-1.973,2.351-3.742,4.455-2.413
		C260.1,228.69,260.844,230.24,259.808,232.454z"/>
	<path fill="#C5C5C5" d="M258.373,251.501c-0.93-0.67-3.23-8.667-4.141-12.293c2.019,0.082,5.938-2.198,7.059-3.521
		c1.908,3.299,6.131,11.553,6.068,12.241C267.296,248.617,259.304,252.168,258.373,251.501z"/>
	<path fill="#C5C5C5" d="M263.421,253.823c0.481-0.163,2.168-0.717,3.21-1.109c2.769,6.864,9.299,24.577,11.144,29.423
		c-1.239,0.221-1.952,0.409-3.173,0.69C272.355,277.13,265.524,259.245,263.421,253.823z"/>
	<path fill="#C5C5C5" d="M301.019,468.789c-2.821-1.119-3.304-5.477-0.452-6.745c2.295-1.02,3.985-0.046,5.162,1.948
		C306.907,465.983,304.326,470.103,301.019,468.789z"/>
	<path fill="#C5C5C5" d="M305.747,460.499c-0.276-0.205-1.484-0.734-1.755-0.768c3.306-9.483,8.342-23.249,12.354-34.225
		c0.357,0.244,1.57,0.825,1.789,0.9C315.933,431.517,307.978,454.506,305.747,460.499z"/>
	<path fill="#C5C5C5" d="M349.734,451.074c0.773,2.062,0,5.785-3.031,6.199c-3.316,0.454-5.925-4.132-3.308-7.025
		C346.013,447.353,348.907,448.868,349.734,451.074z"/>
	<path fill="#C5C5C5" d="M325.426,424.771c5.294,6.599,13.148,16.657,17.343,22.571c-0.159,0.127-0.613,0.425-1.164,1.39
		c-4.272-5.236-14.888-18.892-17.718-22.868C324.444,425.57,324.95,425.188,325.426,424.771z"/>
	<path fill="#C5C5C5" d="M323.772,420.642c-0.731,2.163-3.817,2.793-5.471,1.407c-1.559-1.309-1.962-6.147,1.581-6.812
		C323.426,414.573,324.441,418.657,323.772,420.642z"/>
	<path fill="#C5C5C5" d="M321.544,412.138c-1.289-0.264-2.658,0.221-3.695,0.541c-8.042-24.898-17.34-51.025-25.749-77.136
		c0.887-0.236,1.765-0.502,2.628-0.782C299.733,349.256,317.266,400.029,321.544,412.138z"/>
	<path fill="#9E9E9E" d="M357.742,424.305c-1.628,0.427-2.902,0.073-3.798-0.708c0.289,1.6,1.248,3.099,2.127,3.502
		c1.735,0.796,3.938-0.482,4.547-2.065c0.231-0.604,0.085-1.61-0.326-2.611C359.636,423.332,358.762,424.038,357.742,424.305z"/>
	<path fill="#9E9E9E" d="M332.426,417.809c-2.203-0.282-4.024-0.53-5.018-0.69c0.325,0.776,0.516,1.616,0.527,2.461
		c1.634,0.305,3.299,0.586,4.973,0.856C332.704,419.57,332.565,418.691,332.426,417.809z"/>
	<path fill="#9E9E9E" d="M350.973,419.935c-1.158-0.093-3.385-0.328-6.035-0.625c0.1,0.732,0.199,1.461,0.317,2.173
		c0.045,0.273,0.088,0.547,0.133,0.821c1.807,0.264,3.581,0.525,5.271,0.793C350.388,422.022,350.698,420.625,350.973,419.935z"/>
	<path fill="#9E9E9E" d="M255.459,200.303l3.27-0.505c-0.528-1.069-1.139-2.293-1.812-3.634c-0.335,0.048-0.799,0.115-1.312,0.19
		C255.652,197.704,255.619,199.04,255.459,200.303z"/>
	<path fill="#9E9E9E" d="M243.131,177.897l1.547,3.026l4.061-0.85c-0.279-0.543-0.549-1.069-0.824-1.604
		C246.543,177.518,244.845,177.172,243.131,177.897z"/>
	<path fill="#9E9E9E" d="M250.237,182.998c0.592,1.16,1.184,2.317,1.766,3.46l-4.058,0.85l-1.818-3.557
		C247.797,183.437,249.345,183.158,250.237,182.998z"/>
	<path fill="#9E9E9E" d="M252.745,189.524c-0.868,0.157-2.068,0.377-3.351,0.615l1.311,2.564
		C250.705,192.703,252.972,191.523,252.745,189.524z"/>
	<path fill="#9E9E9E" d="M210.54,174.818c-0.568,0.822-0.931,1.588-0.989,2.245c-0.054,0.616,0.671,2.559,1.892,5.32l2.128-1.546
		C212.507,178.865,211.543,176.829,210.54,174.818z"/>
	<path fill="#9E9E9E" d="M215.058,183.451l-2.346,1.705c0.542,1.162,1.134,2.402,1.771,3.71l2.624-1.906
		C216.42,185.792,215.738,184.623,215.058,183.451z"/>
	<path fill="#9E9E9E" d="M218.62,189.556l-2.798,2.034c0.663,1.337,1.354,2.711,2.065,4.112l3.034-2.204
		C220.157,192.182,219.392,190.868,218.62,189.556z"/>
	<path fill="#9E9E9E" d="M260.763,204.113c-0.073-0.212-0.285-0.681-0.589-1.331c-0.912,0.114-2.488,0.314-4.181,0.541
		c0.628,1.503,0.946,2.574,0.764,2.735c-0.208,0.18-1.007-0.884-1.999-2.569c-0.043,0.007-0.084,0.012-0.127,0.017
		c-2.412,5.477-10.129,8.737-15.785,9.017c-1.137,0.057-2.247-0.186-3.324-0.647c-0.067,0.074-0.118,0.158-0.201,0.219l-6.316,4.59
		c1.954,3.502,3.371,5.893,3.75,6.25c1.672,1.575,9.078-0.998,16.605-5.868C256.888,212.195,261.649,206.659,260.763,204.113z"/>
	<path fill="#9E9E9E" d="M230.1,207.637l-4.323,3.142c0.613,1.138,1.208,2.235,1.773,3.267l5.26-3.823
		C231.869,209.484,230.964,208.603,230.1,207.637z"/>
	<path fill="#9E9E9E" d="M222.428,196.098l-3.165,2.299c0.584,1.137,1.174,2.276,1.766,3.413l3.301-2.398
		C223.613,198.197,222.977,197.065,222.428,196.098z"/>
	<path fill="#9E9E9E" d="M225.895,201.969l-3.467,2.519c0.649,1.236,1.291,2.447,1.923,3.632l3.853-2.799
		C227.382,204.228,226.612,203.092,225.895,201.969z"/>
	<path fill="#9E9E9E" d="M248.82,225.846c1.328-1.036,2.747-2.334,4.284-3.043c0.799-0.368,1.622-0.638,2.451-0.89
		c-1.655-0.495-3.42-0.528-4.942,0.149c-2.019,0.897-3.394,3.17-3.802,5.576C247.439,226.981,248.133,226.382,248.82,225.846z"/>
	<path fill="#9E9E9E" d="M252.155,232.607c-0.948,0.624-1.941,1.177-2.998,1.64c1.794,1.257,3.942,1.611,6.123,1.218
		c0.369-0.066,0.699-0.168,1.018-0.274C254.638,235.01,253.006,234.056,252.155,232.607z"/>
	<path fill="#9E9E9E" d="M257.6,230.688c-1.174-0.507-2.562-1.749-2.898-3.072c-0.62,0.541-1.055,1.331-1.161,2.159
		c-0.416,3.234,5.23,4.893,6.267,2.679c0.235-0.503,0.367-0.967,0.423-1.408C259.435,231.191,258.549,231.097,257.6,230.688z"/>
	<path fill="#9E9E9E" d="M262.99,238.778c-0.639-1.202-1.237-2.293-1.699-3.091c-1.121,1.324-5.039,3.604-7.059,3.521
		c0.214,0.85,0.505,1.945,0.836,3.126C258.056,242.11,260.796,240.778,262.99,238.778z"/>
	<path fill="#9E9E9E" d="M268.62,257.796c-0.764-1.988-1.448-3.743-1.988-5.082c-1.042,0.391-2.729,0.945-3.21,1.109
		c0.451,1.162,1.121,2.901,1.914,4.966C266.452,258.494,267.55,258.174,268.62,257.796z"/>
	<path fill="#9E9E9E" d="M273.414,279.783c0.468,1.207,0.875,2.248,1.189,3.044c1.22-0.282,1.934-0.47,3.173-0.69
		c-0.319-0.837-0.779-2.062-1.334-3.545C275.45,279.03,274.44,279.423,273.414,279.783z"/>
	<path fill="#9E9E9E" d="M302.996,467.742c-1.953-0.755-3.297-2.373-3.909-4.27c-0.957,1.812-0.193,4.474,1.932,5.316
		c1.392,0.554,2.643,0.134,3.549-0.675C304.052,468.053,303.53,467.948,302.996,467.742z"/>
	<path fill="#9E9E9E" d="M315.767,432.551c1.008-2.734,1.849-4.942,2.369-6.146c-0.219-0.075-1.432-0.656-1.789-0.9
		c-0.785,2.148-1.61,4.406-2.454,6.714C314.479,432.397,315.105,432.505,315.767,432.551z"/>
	<path fill="#9E9E9E" d="M305.251,456.153c-0.438,1.241-0.863,2.449-1.258,3.578c0.271,0.034,1.479,0.563,1.755,0.768
		c0.332-0.894,0.799-2.184,1.349-3.719C306.479,456.578,305.862,456.372,305.251,456.153z"/>
	<path fill="#9E9E9E" d="M346.674,453.877c-1.781,0.551-3.268,0.219-4.314-0.695c0.106,2.291,2.04,4.406,4.343,4.091
		c2.712-0.369,3.609-3.383,3.215-5.492C349.041,452.735,347.945,453.481,346.674,453.877z"/>
	<path fill="#9E9E9E" d="M328.512,428.645c-1.087-1.373-2.13-2.681-3.086-3.873c-0.477,0.417-0.982,0.798-1.539,1.094
		c0.617,0.867,1.619,2.211,2.829,3.811C327.353,429.342,327.954,428.997,328.512,428.645z"/>
	<path fill="#9E9E9E" d="M338.525,444.889c1.192,1.504,2.257,2.833,3.08,3.844c0.551-0.965,1.004-1.263,1.164-1.39
		c-0.827-1.165-1.804-2.499-2.868-3.929C339.421,443.884,338.961,444.375,338.525,444.889z"/>
	<path fill="#9E9E9E" d="M319.956,419.647c-1.352-0.202-2.204-0.974-2.638-1.972c-0.436,1.639,0.072,3.608,0.984,4.373
		c1.653,1.387,4.74,0.756,5.471-1.407c0.244-0.725,0.261-1.731,0.014-2.682C322.932,419.097,321.499,419.878,319.956,419.647z"/>
	<path fill="#9E9E9E" d="M296.67,340.384c-0.761-2.204-1.423-4.119-1.942-5.624c-0.863,0.28-1.741,0.546-2.628,0.782
		c0.64,1.99,1.295,3.979,1.945,5.969C294.921,341.138,295.794,340.753,296.67,340.384z"/>
	<path fill="#9E9E9E" d="M315.469,405.433c0.794,2.417,1.606,4.851,2.38,7.246c1.037-0.32,2.406-0.805,3.695-0.541
		c-0.598-1.693-1.46-4.152-2.505-7.151C317.888,405.081,316.648,405.208,315.469,405.433z"/>
	<path fill="#8CA300" d="M291.709,322.423c-1.201-0.925-2.406-1.885-3.664-2.866c-0.406-0.318-0.887,0.142-0.742,0.578
		c1.618,4.904,5.873,7.863,10.414,10.03c-6.564,2.343-16.349,4.641-19.26-1.687c-1.876-4.079-3.537-8.293-5.238-12.446
		c-2.357-5.766-8.468-24.901-6.032-28.113c1.152-1.519,19.152-4.538,23.69-3.431c-0.775,2.214-9.41,9.854-12.146,12.042
		c-1.01-0.273-2.017-0.55-3.009-0.837c-0.542-0.156-1.121,0.571-0.641,1.001c5.856,5.229,14.304,6.397,21.887,8.386
		c-3.374,1.109-13.28,4.213-11.957,5.203c4.604,3.444,10.801,6.055,15.217,9.732C297.377,320.784,294.54,321.602,291.709,322.423z"
		/>
	<path fill="#8CA300" d="M322.569,326.502c1.409-2.822-0.169-6.069-1.801-8.58c-1.438-2.214-2.989-2.99-2.39-1.984
		c1.8,3.021,4.049,8.184,1.372,10.377c-1.538-0.162-3.054-0.398-4.552-0.694c3.798-3.271,1.901-7.111,0.477-9.801
		c-0.996-1.883-1.947-2.031-1.77-1.661c2.103,4.428,3.431,8.635-1.512,10.86c-3.582-0.829-7.113-1.821-10.734-2.509
		c0.523-0.14,3.241-1.83,2.465-2.67c-3.882-4.215-9.228-6.248-13.935-9.29c4.096-0.912,13.834-5.845,12.507-6.462
		c-6.313-2.935-13.37-4.754-20.259-6.567c2.278-2.241,3.138-3.09,5.489-5.224c8.886,5.949,22.198,11.945,32.52,14.589
		c8.515,2.181,18.665,3.678,26.228,0.078c-1.16,3.325-2.525,7.518-3.241,10.896C338.924,322.793,328.296,327.444,322.569,326.502z"
		/>
	<path fill="#8CA300" d="M419.765,460.219c-3.372,1.611-7.468,1.115-11.075,1.118c-7.598,0.007-14.239,0.175-21.883,0.425
		c-4.87,0.16-10.685,0.398-15.478,0.843c1.206-4.204,15.133-4.202,13.873-8.66c-1.263-4.457-10.259-5.381-17.572-5.718
		c0.645-1.581,4.421-3.114,7.062-3.614c3.11-0.59,5.717-2.439,6.054-4.203c0.512-2.692-3.212-4.015-7.016-4.929
		c0.539-1.882,16.096-0.874,24.755,0.555c1.683,1.534,4.046,3.251,5.521,3.743c0.571,0.188,2.43,0.054,2.049-0.294
		c-8.073-7.401-14.547-21.358-13.905-26.179c7.745,6.646,14.988,13.494,24,18.176c-1.786,1.849-2.044,5.816-1.772,8.59
		c-1.681-1.092-4.159-0.484-3.531,0.083C419.509,447.977,426.641,456.935,419.765,460.219z"/>
	<path fill="#C4C642" d="M442.201,433.428c-1.337-0.673-3.355-3.447-3.788-9.138c-0.363-4.745,1.057-12.13,3.376-16.253
		c0.755-1.346-0.672-0.085-1.636,1.47c-3.006,4.857-3.681,10.446-3.394,16.168c0.154,3.045,0.899,5.216,2.383,7.47
		c-8.261-0.899-16.338-3.217-23.772-7.115c-2.158-7.226-0.893-13.106,2.354-20.372c3.858-8.632,12.966-16.202,19.105-20.659
		c0.388-0.284-0.758-0.842-3.7,1.26c-9.046,6.46-14.598,11.602-19.021,22.075c-1.926,4.56-3.62,10.773-2.145,15.728
		c-8.599-5.381-15.807-13.169-23.531-19.607c-1.294-9.2,2.553-19.084,9.215-26.437c4.834-5.329,13.79-9.752,20.095-12.947
		c0.449-0.226-2.016-0.674-5.38,0.841c-7.54,3.392-14.209,7.65-18.599,13.593c-4.459,6.037-9.327,15.324-7.5,23.169
		c-7.257-5.905-14.436-11.249-20.61-18.529c-0.661-0.777-1.283-1.587-1.914-2.392c-2.111-10.733,2.527-20.306,10.795-27.81
		c6.452-5.856,16.81-8.633,24.123-10.566c0.486-0.128-0.421-1.346-4.539-0.504c-11.035,2.251-18.932,5.69-26.134,14.649
		c-4.179,5.197-8.128,12.937-7.439,19.892c-5.415-7.91-9.481-16.739-12.051-25.956c-0.116-0.418-0.212-0.837-0.319-1.255
		c0.572-6.918,3.135-12.787,8.813-18.03c6.785-6.265,17.766-10.373,26.967-10.786c0.38-0.017,0.361-0.59-0.019-0.59
		c-10.958,0.008-20.115,2.616-28.658,9.718c-4.062,3.376-7.09,7.862-8.485,12.747c-1.665-11.982,0.136-24.146,4.54-35.345
		c3.006-4.561,6.952-7.531,13.065-9.669c7.713-2.694,17.584-2.884,24.732,1.421c0.359,0.219,0.722-0.358,0.399-0.613
		c-7.765-6.151-18.449-5.447-27.343-2.432c-2.078,0.704-4.322,1.757-6.416,3.107c6.381-11.606,18.235-23.652,31.928-18.834
		c0.291,0.103,0.481-0.388,0.195-0.507c-7.224-2.959-14.164-1.957-19.987,1.411c3.943-4.518,7.97-9.128,11.583-13.97
		c6.152-0.968,16.777-1.994,20.354,3.479c1.849,2.825-0.641,5.919-1.383,8.738c-1.708-1.065-3.228-2.192-4.371-3.478
		c-0.227-0.254-0.621,0.051-0.531,0.341c3.299,10.654,20.878,9.95,19.364,22.828c-0.885,7.522-5.067,13.026-2.383,20.058
		c-1.517-0.613-3.29-0.194-2.79,0.001c4.315,1.698,13.851,6.86,16.265,11.748c2.797,5.658-1.275,13.333-2.737,18.795
		c-0.212,0.787,0.755,1.16,1.325,0.841c17.86-9.972,24.364,11.383,20.517,25.191c-0.373,1.332,1.069,2.512,2.294,1.824
		c7.623-4.28,15.181,3.066,15.323,10.437c0.045,2.351-0.657,4.886-1.062,7.188c-0.109,0.623,0.578,1.195,1.168,1.064
		c4.993-1.337,8.629,0.485,10.946,5.383c-3.358,0.501-6.709,0.953-10.041,1.626c-6.413,1.294-13.052,3.905-16.316,9.885
		c-3.515,6.439,2.539,14.597,6.635,19.63C448.771,433.642,445.477,433.642,442.201,433.428z"/>
	<path fill="#A19C0B" d="M393.762,379.507c0.228-0.309,0.489-0.596,0.729-0.897c-6.283-8.313-11.612-18.3-20.036-24.59
		c-8.219,7.493-12.821,17.038-10.718,27.736c0.631,0.804,1.254,1.615,1.914,2.392c6.174,7.28,13.353,12.624,20.61,18.529
		C384.435,394.831,389.303,385.543,393.762,379.507z"/>
	<path fill="#A19C0B" d="M367.982,357.524c1.482-1.843,2.998-3.444,4.561-4.858c-5.097-3.35-12.15-6.474-17.754-2.55
		c-2.338,1.636-3.868,3.734-4.815,6.08c2.55,7.5,6.09,14.678,10.569,21.221C359.854,370.461,363.803,362.721,367.982,357.524z"/>
	<path fill="#A19C0B" d="M417.242,402.099c-6.979-7.476-15.06-13.815-21.465-21.838c-5.491,7.05-8.512,15.898-7.346,24.195
		c7.725,6.438,14.932,14.226,23.531,19.607c-1.475-4.955,0.219-11.168,2.145-15.728
		C415.088,406.014,416.129,403.968,417.242,402.099z"/>
	<path fill="#A19C0B" d="M420.176,405.401c-0.481-0.572-0.989-1.117-1.484-1.673c-0.349,0.637-0.677,1.28-0.967,1.93
		c-3.247,7.266-4.511,13.145-2.354,20.372c5.637,2.956,11.647,5,17.825,6.209C432.314,422.487,425.914,412.235,420.176,405.401z"/>
	<path fill="#A19C0B" d="M398.757,376.884c-0.389,0.374-0.762,0.751-1.111,1.135c-0.092,0.103-0.18,0.211-0.27,0.313
		c3.668,4.496,7.579,8.682,11.992,12.717c3.146,2.877,6.276,5.831,9.189,8.978c0.656-0.965,1.353-1.864,2.071-2.742
		C413.466,390.328,404.702,385.058,398.757,376.884z"/>
	<path fill="#A19C0B" d="M377.509,348.197c-9.78-6.667-22.104-5.93-28.938,3.524c0.153,0.531,0.318,1.059,0.477,1.588
		c2.71-4.777,7.536-7.858,14.456-7.005c4.088,0.504,7.751,2.235,11.066,4.656c1.128-0.878,2.292-1.647,3.484-2.361
		C377.87,348.468,377.698,348.324,377.509,348.197z"/>
	<path fill="#A19C0B" d="M380.01,350.135c-1.252,0.699-2.469,1.44-3.586,2.275c6.18,5.176,11.1,12.605,15.289,18.491
		c1.436,2.016,2.894,3.958,4.388,5.847c0.486-0.515,0.992-1.012,1.513-1.5C391.971,366.906,387.745,356.736,380.01,350.135z"/>
	<path fill="#A19C0B" d="M437.833,430.718c-0.627-1.489-0.974-3.085-1.074-5.043c-0.021-0.428-0.026-0.854-0.036-1.28
		c-2.077-8.187-6.419-15.751-11.936-22.596c-0.869-1.079-1.79-2.102-2.743-3.092c-0.736,0.942-1.439,1.899-2.077,2.885
		c1.563,1.772,3.052,3.604,4.419,5.528c5.02,7.078,10.43,16.339,11.119,25.524c0.831,0.134,1.664,0.238,2.498,0.344
		C437.968,432.227,437.907,431.469,437.833,430.718z"/>
	<path fill="#C4C642" d="M564.17,416.893c-6.966,1.709-13.605,4.027-20.774,5.238c1.23-4.098,4.753-10.9,8.443-9.508
		c2.036,0.769,4.495,1.718,6.883,1.639c7.54-0.245,11.39-6.638,15.602-0.008C570.947,415.17,567.566,416.057,564.17,416.893z"/>
	<path fill="#C4C642" d="M578.081,413.212c0.884-2.965,3.8-6.366,7.472-7.791c4.885-1.892,8.491-0.09,10.002,2.94
		C589.721,409.952,583.906,411.603,578.081,413.212z"/>
	<path fill="#C4C642" d="M619.158,401.824c-1.186-2.557,0.865-5.917,4.672-7.051c2.805-0.84,6.356-1.078,8.387,0.214
		C628.273,398.027,623.875,400.148,619.158,401.824z"/>
	<path fill="#8CA300" d="M639.889,381.634c0.119,1.043,0.313,2.075,0.524,3.102c0.084,0.39,0.207,0.648,0.344,0.876
		c-0.122,0.187-0.236,0.381-0.357,0.563c-1.679,2.533-3.525,4.681-5.505,6.544c-7.046-2.75-20.261,0.6-17.218,9.623
		c-4.072,1.357-8.363,2.436-12.782,3.552c-2.226,0.56-4.447,1.146-6.662,1.739c-2.182-4.323-8.419-6.603-12.831-4.528
		c-4.095,1.926-7.804,5.978-9.092,10.446c-1.445-1.965-3.342-4.004-5.795-4.071c-5.472-0.153-9.009,4.426-14.98,2.849
		c-2.682-0.708-3.732-2.16-6.457-0.907c-3.802,1.749-5.9,6.982-7.487,10.805c-3.211,0.486-6.434,0.756-9.665,0.672
		c5.123-3.512,5.588-8.546,4.436-7.792c-9.233,6.046-19.278,11.156-30.166,13.97c-15.221,3.933-27.328,0.065-40.363-2.795
		c-0.595-0.131-0.085,2.607,13.773,6.926c1.084,8.913,13.077,18.17,18.759,23.92c6.587,6.667,7.788,14.832-2.714,17.331
		c-7.787,1.851-29.274,3.626-36.868,4.559c-4.128,0.506-14.51,2.745-17.079,2.422c3.661-1.679,15.218-8.744,13.311-14.088
		c-1.001-2.808-14.152-2.309-17.516-3.401c4.468-2.072,10.18-1.957,14.246-3.967c2.332-1.153,2.226-3.42,0.388-4.87
		c-1.529-1.208-8.411-3.521-13.036-4.615c8.724-1.596,18.837-0.591,28.309,1.609c0.541,0.852,1.056,1.737,1.518,2.691
		c1.077,2.24,1.405,4.515,2.584,6.731c0.292,0.544,1.148,0.418,1.288-0.174c2.293-9.571-7.368-19.799-13.392-26.19
		c-3.814-4.05-8.037-7.671-10.408-12.821c-0.432-0.939-0.64-1.815-0.699-2.644c1.359-0.722,3.655-0.008,5.516,1.337
		c0.304,0.219-0.159-0.989-0.791-1.503c-1.062-0.863-2.456-1.899-4.611-1.577c0.282-1.251,0.847-2.233,1.76-3.215
		c3.089,0.079,6.297,1.704,9.848,5.16c0.358,0.35,0.526-0.725-0.661-2.071c-2.069-2.346-4.815-4.256-7.839-4.631
		c1.044-1.091,2.852-1.94,4.354-2.415c3.272,0.538,4.711,2.534,6.614,6.374c0.192,0.389,0.237-1.348-0.239-2.536
		c-0.912-2.278-1.586-3.388-3.425-5.052c6.948-3.024,17.71-4.277,26.193-6.437c5.683-1.448,10.568-8.691,3.874-12.59
		c-1.613-0.94-3.225-0.515-2.619,0.066c7.653,7.352-3.238,9.999-6.008,10.562c-1.991,0.406-4.079,0.504-6.114,0.763
		c-0.983-2.654-4.108-8.632-11.644-7.498c4.146-14.347-8.269-21.484-15.694-19.97c2.102-11.544-2.154-27.591-15.871-27.804
		c-2.332-0.037-6.331,1.21-7.004,2.377c1.939-3.344,2.936-7.654,3.504-11.426c1.574-10.461-7-13.866-14.871-16.998
		c-1.528-8.378,3.5-15.432,3.466-23.713c-0.035-7.997-8.133-11.538-14.937-15.311c1.458-5.011,4.504-11.14-1.198-14.664
		c-5.758-3.558-12.975-2.482-19.288-0.618c6.235-8.678,10.948-18.125,11.171-29.115c0.208,0.043,0.416,0.076,0.622,0.12
		c6.391,1.38,11.673,5.881,17.421,8.79c5.642,2.852,11.973,3.918,18.123,2.398c7.368-1.822,11.032-10.152,16.249-14.788
		c0.89-0.788-0.145-2.392-1.195-1.744c-4.892,3.025-9.065,6.847-13.824,10.038c-8.031,5.378-18.143-0.833-25.326-4.835
		c-12.915-7.198-30.322-5.787-44.69-5.915c-8.068-0.071-16.137-0.094-24.204-0.026c-5.869,0.051-13.291-0.245-18.122,3.745
		c-6.202,5.122-12.666,10.353-20.558,4.89c-5.116-3.541-6.447-9.918-7.762-15.678c1.707,0.68,3.574,1.071,5.173,1.416
		c0.921,0.199,1.22-1.112,0.344-1.405c-1.34-0.449-9.595-5.946-3.977-5.821c2.73,0.061,5.486,0.714,8.135,1.325
		c8.389,1.935,15.974,4.347,24.701,4.16c9.848-0.209,19.546-2.604,29.116-4.701c12.177-2.667,24.395-3.681,36.801-4.515
		c14.883-0.999,33.111-1.821,46.697-9.011c7.416-3.925,10.097-12.765,0.231-15.355c-4.969-1.306-10.834,0.116-15.845,0.583
		c-12.189,1.136-24.232,1.996-36.484,1.584c-12.216-0.41-24.414-2.328-36.363-4.842c-12.411-2.611-22.202-8.08-32.994-14.435
		c-4.864-2.867-27.216-15.335-31.035-4.959c-2.512,6.825,4.909,15.663,10.844,20.201c-0.013,0.499-0.269,1.608-0.269,2.12
		c-5.542-2.729-16.053-8.975-22.605-15.718c-8.772-9.027,3.037-11.255,8.753-11.691c2.559-0.196,5.482-0.93,7.735-2.166
		c0.927-0.508,0.647-1.958-0.438-2.013c-1.745-0.088-4.339-0.207-7.167-0.113c9.05-7.064,17.964-18.521,29.025-18.628
		c13.716-0.132,6.97,27.874,20.671,30.41c0.705,0.131,1.119-0.634,0.674-1.174c-1.09-1.321-2.069-2.552-2.959-3.777
		c9.837,2.742,19.774,7.46,24.219,12.195c0.871,0.927,1.215-1.883-4.903-7.596c6.348,0.036,13,3.82,19.861,8.883
		c0.497,0.366-0.897-3.113-4.854-6.452c2.648,0.203,11.066,1.217,20.254,6.07c1.026,0.542-1.396-2.996-2.699-3.947
		c4.891,0.681,10.814,1.221,15.989,1.386c2.066,1.587,2.877,4.24,2.984,5.58c0.028,0.363,0.534,0.405,0.625,0.054
		c0.505-1.94,0.007-3.913-1.134-5.511c1.599-0.122,2.574,0.107,3.488,1.168c0.978,1.134,1.114,2.904,1.168,4.304
		c0.039,1.058,0.671-0.031,0.844-1.063c0.281-1.698-0.058-3.498-1.29-4.58c11.862-0.847,18.321-4.767,26.145-18.374
		c0.507,0.051,1.011,0.098,1.518,0.148c-6.588,9.043-9.333,15.762-6.785,19.972c2.547,4.209,7.054,4.601,11.665,2.891
		c3.555-1.32,7.189-3.931,9.576-6.194c0.057,3.211,1.204,6.825,3.425,8.469c-2.192,0.202-4.347,0.607-6.387,1.28
		c-0.529,0.175-0.313,0.924,0.162,0.993c7.558,1.102,15.933,1.529,23.071,2.299c0.961,0.105,0.997-1.405,0.236-1.751
		c-0.905-0.409-1.84-0.779-2.797-1.107c0.85-0.346,1.613-0.758,2.247-1.23c4.206-3.136,6.591-8.528,7.272-13.892
		c3.235,1.766,6.455,3.595,9.772,5.354c0.571,0.304,1.241-0.355,0.773-0.888c-2.83-3.236-6.366-6.057-10.352-8.475
		c-0.527-8.483-6.842-12.994-13.797-10.654c-1.778,0.597-3.481,1.598-5.029,2.881c-0.819-0.218-1.64-0.424-2.466-0.618
		c-1.43-4.14-5.143-6.96-11.02-5.876c-2.602,0.48-4.835,1.785-6.777,3.531c-1.217-0.035-2.417-0.043-3.598-0.021
		c1.389-1.51,4.872-7.979,5.323-8.858c3.066-1.559,6.254-2.102,8.991,0.328c0.474,0.419,1.101,0.131,1.172-0.469
		c0.547-4.647-3.178-6.128-6.934-5.471c3.213-4.897,7.452-9.247,10.139-3.761c1.51,3.086,1.58,6.063,4.12,8.619
		c3.222,3.24,7.745,1.623,11.207,0.014c6.892-3.203,12.21-8.77,20.159-9.406c9.391-0.754,13.794,7.646,14.19,15.456
		c0.462,9.082-4.674,18.991-4.409,28.013c-1.445-2.872-2.746-5.841-4.078-8.819c-0.186-0.412-0.77-0.342-0.856,0.1
		c-2.468,12.671,10.16,23.365,16.616,32.719c11.228,16.27-16.921,29.273-29.312,33.06c-8.582,2.623-17.283,4.458-25.533,7.065
		c-5.259,1.663-12.172,4.713-15.072,6.337c-2.9,1.622,3.574,1.094,5.168,0.415c6.918,12.633,9.63,32.681,11.865,39.394
		c-5.348,2.938-10.643,5.937-15.857,8.96c-0.48,0.28-0.015,0.921,0.441,0.79c16.596-4.78,30.962-13.956,46.598-21.156
		c9.284-4.274,31.766-10.486,36.222-19.392c0.982,2.796,3,2.967,2.779,2.381c-1.66-4.426-3.042-14.384,2.21-17.162
		c1.424-0.752,1.524,3.33,1.939,6.374c0.415,3.043,1.698,6.572,5.395,8.576c6.638,3.594,21.713-8.714,22.958-9.546
		c1.245-0.829,3.043,2.074,1.245,4.842c-1.796,2.766-9.873,9.804-13,11.895c-0.239-0.591-0.714-2.007-1.012-2.617
		c-0.19-0.389-0.797-0.459-1.03-0.063c-1.831,3.139,0.02,6.932,2.457,9.318c4.501,4.403,8.576,6.224,13.276,7.054
		c2.115,0.372,0.968,2.766-1.107,3.872c-2.072,1.106-11.476-4.011-14.889-1.454c-0.003-1.09,0.125-2.253,0.426-3.514
		c0.112-0.466-0.497-0.605-0.769-0.335c-7.525,7.522,7.488,22.59,8.18,23.42c0.689,0.829-1.232,3.222-2.349,2.656
		c-4.427-2.241-17.765-9.419-25.052-10.762c5.096-1.368,9.648-5.1,10.721-10.316c1.604-7.814-4.729-14.793-12.639-14.908
		c-6.304-0.091-13.003,4.15-13.972,10.511c-0.757,4.949,1.109,10.236,5.836,12.953c-6.248-1.197-9.435-7.912-9.82-10.994
		c-0.041-0.328-0.532-0.341-0.524,0.006c0.092,4.068,0.915,8.96,5.128,11.717c-6.426,0.011-15.415,1.255-21.568,3.199
		c-3.856-0.672-5.603-4.156-3.471-8.366c0.215-0.423-0.509-0.647-0.79-0.34c-1.963,2.171-2.56,7.046,1.041,9.587
		c-0.589,0.174-2.143,0.602-2.728,0.791c-3.906-3.402-3.483-9.189-2.288-11.182c0.133-0.223-0.246-0.438-0.442-0.248
		c-2.364,2.271-3.225,7.392,0.316,12.253c-2.394,0.863-4.735,1.838-6.973,2.991c-8.482,4.376-16.099,10.206-25.503,12.757
		c-0.373,0.1-0.352,0.635,0.601,0.803c6.14,1.087,11.609-2.285,16.172-4.36c5.469,12.109,10.813,24.533,18.532,35.388
		c8.534,12,21.148,17.732,34.796,21.995c8.094,2.528,16.196,5.167,24.4,7.303c7.561,1.969,15.465,2.296,23.166,3.487
		c15.226,2.357,30.529,5.233,45.495,0.077c8.931-3.078,17.004-10.205,14.202-20.303c-2.598-9.359-15.013-12.705-22.535-16.641
		c-11.936-6.246-26.534-13.114-16.558-28.712c4.369-6.833,11.479-15.353,10.196-24.12c3.318,0.183,10.411,2.682,11.655,9.598
		c1.245,6.916-2.398,11.514-3.504,14.366c-2.145,5.525-1.444,12.159,4.626,14.842c8.021,3.543,17.466,3.246,25.85,5.96
		c7.599,2.46,13.498,6.904,16.741,13.407c-4.015,0.881-6.563,5.522-3.789,9.282c-2.441,0.487-4.379,2.224-4.471,5.61
		c-0.081,2.925,1.877,5.917,3.466,8.206c0.294,0.43,0.609,0.886,0.938,1.35c-0.219-0.017-0.443-0.011-0.675,0.037
		c-1.551,0.316-2.054,1.97-2.279,3.34C639.487,377.257,639.635,379.467,639.889,381.634z"/>
	<path fill="#FFFFFF" d="M439.463,158.954c-0.331,3.259,4.256,6.24,7.339,3.839c-1.018,9.741-17.712,22.007-22.235,13.641
		c-2.293-4.243,4.602-14.359,8.143-18.178C434.799,158.456,437.383,158.702,439.463,158.954z"/>
	<path fill="#8CA300" d="M437.475,155.237c1.758-0.708,3.706-1.004,5.483-0.753c1.473,0.206,2.454,0.93,3.081,1.929
		C443.171,155.878,440.304,155.489,437.475,155.237z"/>
	<path fill="#FFFFFF" d="M457.321,163.054c-0.903,2.287,0.39,4.57,2.507,5.871c2.433,1.496,5.739,0.973,7.883-0.846
		c-0.302,3.882-1.673,8.041-3.978,11.051c-4.107,5.363-13.82,4.76-15.803-1.544c-1.541-4.887,0.091-12.045,4.964-16.117
		C454.127,161.743,456.086,162.587,457.321,163.054z"/>
	<path fill="#8CA300" d="M456.833,159.135c0.847-0.467,1.734-0.877,2.679-1.18c4.604-1.48,7.17,1.575,7.982,5.54
		C464.139,161.789,460.55,160.333,456.833,159.135z"/>
	<path fill="#738200" d="M278.11,327.703c0.117,0.258,0.227,0.52,0.346,0.776c1.489,3.238,4.781,4.21,8.515,4.081
		C284.461,330.134,281.474,328.339,278.11,327.703z"/>
	<path fill="#738200" d="M289.419,320.636c0.771,0.605,1.535,1.205,2.29,1.787c2.012-0.585,4.029-1.159,6.05-1.723
		C294.982,320.519,292.201,320.495,289.419,320.636z"/>
	<path fill="#738200" d="M288.288,298.509c0.813-1.492,1.495-3.033,2.282-4.527c-0.914-0.561-1.805-1.122-2.645-1.685
		c-2.352,2.134-3.211,2.982-5.489,5.224c1.898,0.499,3.808,1.002,5.712,1.525C288.153,298.864,288.194,298.68,288.288,298.509z"/>
	<path fill="#738200" d="M301.659,322.51c3.317,0.631,6.561,1.512,9.835,2.292c-3.441-5.184-7.63-9.681-13.116-13.029
		c-0.679-0.413-0.812-1.601,0-1.98c2.388-1.113,5.209-1.806,7.189-3.621c-1.006-0.489-2.055-0.951-3.12-1.402
		c-1.682,1.546-8.881,5.028-12.259,5.779c4.707,3.043,10.053,5.075,13.935,9.29C304.9,320.68,302.182,322.37,301.659,322.51z"/>
	<path fill="#738200" d="M339.182,308.951c-0.081,3.811,0.45,7.57,1.664,11.217c0.983-0.749,1.869-1.524,2.587-2.309
		c0.716-3.379,2.081-7.571,3.241-10.896C344.376,308.056,341.838,308.674,339.182,308.951z"/>
	<path fill="#738200" d="M323.085,326.554c3.667,0.382,9.029-1.257,13.605-3.727C331.946,321.602,325.686,322.866,323.085,326.554z"
		/>
	<path fill="#738200" d="M414.47,435.612c0.244-1.639,0.754-3.171,1.68-4.13c-9.012-4.682-16.255-11.53-24-18.176
		c-0.334,2.513,1.275,7.512,4.027,12.769C402.742,428.391,408.988,431.505,414.47,435.612z"/>
	<path fill="#738200" d="M379.988,447.923c-1.7,0.061-3.33,0.471-4.953,0.933c4.698,0.659,8.812,1.951,9.972,4.611
		c0.159-0.37,0.27-0.756,0.267-1.174C385.256,449.691,382.446,447.836,379.988,447.923z"/>
	<path fill="#738200" d="M380.746,440.409c-0.105,0.55-0.452,1.106-0.945,1.632c0.503-0.335,1.004-0.674,1.526-1.003
		c0.277-0.398,0.513-0.795,0.683-1.186c1.007-2.305-1.152-3.978-3.38-3.908c-0.766,0.023-1.516,0.131-2.261,0.27
		C379.061,437.1,381.138,438.356,380.746,440.409z"/>
	<path fill="#738200" d="M394.878,458.56c-2.766,0.548-5.346,1.829-7.896,3.197c7.57-0.248,14.169-0.414,21.708-0.421
		c1.322,0,2.711,0.063,4.105,0.068C407.353,458.534,401.069,457.331,394.878,458.56z"/>
	<path fill="#738200" d="M470.345,458.681c-0.429-1.294-0.802-2.594-1.421-3.884c-0.462-0.954-0.977-1.839-1.518-2.691
		c-3.658-0.848-7.413-1.514-11.143-1.924c2.265,0.845,4.49,1.797,6.596,3.121C465.456,454.941,468.03,456.67,470.345,458.681z"/>
	<path fill="#738200" d="M482.688,440.635c-1.616-2.448-2.78-4.95-3.081-7.428c-9.043-2.818-12.4-4.962-13.478-6.076
		C468.59,434.671,475.221,438.613,482.688,440.635z"/>
	<path fill="#738200" d="M480.413,470.905c-8.173,0.561-15.777,4.411-22.888,8.29c0.458-0.07,0.89-0.134,1.258-0.177
		c7.594-0.933,29.08-2.708,36.868-4.559c0.722-0.173,1.376-0.377,1.988-0.598C492.004,471.864,486.278,470.501,480.413,470.905z"/>
	<path fill="#738200" d="M453.334,456.731c0.424,1.195-0.018,2.475-1.589,3.252c-2.633,1.301-5.954,1.717-9.181,2.413
		c1.021,0.063,2.046,0.112,3.072,0.147c0.495-0.087,0.959-0.169,1.352-0.24c2.507-0.442,5.415-0.884,7.951-1.889
		C455.634,459.398,455.429,458.162,453.334,456.731z"/>
	<path fill="#738200" d="M536.44,417.544c-0.64,1.586-2.022,3.648-4.513,5.354c3.231,0.084,6.454-0.187,9.665-0.672
		c0.516-1.242,1.087-2.634,1.753-4.008C541.015,418.345,538.703,418.213,536.44,417.544z"/>
	<path fill="#738200" d="M573.282,410.446c1.176,0.791,2.182,1.954,3.028,3.105c0.476-1.652,1.285-3.243,2.32-4.695
		C576.821,409.323,575.028,409.822,573.282,410.446z"/>
	<path fill="#738200" d="M608.557,380.911c6.68-1.559,15.552-5.107,18.484-11.951c3.641-8.504-2.806-13.173-9.952-15.863
		c1.412,1.573,2.512,3.361,3.096,5.469c2.802,10.098-5.271,17.225-14.202,20.303c-3.978,1.372-7.982,2.161-12.001,2.557
		C598.844,382.049,603.816,382.017,608.557,380.911z"/>
	<path fill="#738200" d="M602.907,304.513c-2.202,2.52-4.622,5-7.044,7.667c-4.256,4.687-5.042,9.971,0.171,14.253
		c3.776,3.1,7.952,4.414,12.853,4.125c1.041-0.06,2.075-0.147,3.11-0.238c-2.731-0.568-5.401-1.303-7.929-2.42
		c-6.07-2.683-6.771-9.317-4.626-14.842C600.202,311.095,602.161,308.31,602.907,304.513z"/>
	<path fill="#738200" d="M444.698,315.139c5.681,5.015,12.891,7.27,20.168,7.068c-1.794-3.856-3.531-7.738-5.271-11.59
		C455.349,312.548,450.321,315.596,444.698,315.139z"/>
	<path fill="#738200" d="M541.562,264.05c0.279,0.692,0.618,1.673,0.807,2.14c3.126-2.091,11.204-9.129,13-11.895
		c0.625-0.962,0.81-1.937,0.74-2.77C553.001,257.002,546.909,261.5,541.562,264.05z"/>
	<path fill="#738200" d="M461.96,302.076c-1.379,1.662-2.507,3.465-3.818,5.123c3.371-1.955,6.706-3.987,10.183-5.78
		c2.238-1.153,4.579-2.128,6.973-2.991c-0.761-1.045-1.308-2.101-1.692-3.141C469.431,296.791,464.767,298.692,461.96,302.076z"/>
	<path fill="#738200" d="M483.66,295.932c2.489-0.786,5.442-1.452,8.5-1.972c-4.001-0.933-8.1-1.204-12.269-0.477
		C480.608,294.745,481.916,295.628,483.66,295.932z"/>
	<path fill="#738200" d="M477.713,297.604c0.584-0.189,2.139-0.616,2.728-0.791c-1.145-0.807-1.864-1.852-2.249-2.97
		c-0.894,0.213-1.788,0.461-2.687,0.775C475.997,295.7,476.711,296.732,477.713,297.604z"/>
	<path fill="#738200" d="M531.331,279.209c0.21,1.359,0.189,2.784-0.11,4.24c-1.072,5.216-5.625,8.948-10.721,10.316
		c1.784,0.329,3.93,1.009,6.217,1.879c3.45-2.718,6.129-6.359,6.031-10.696C532.697,282.718,532.182,280.826,531.331,279.209z"/>
	<path fill="#738200" d="M504.609,279.052c0.137-0.903,0.402-1.759,0.754-2.571c-2.299,1.82-3.768,4.423-3.962,7.269
		c1.329,3.265,4.305,7.347,9.044,8.255C505.718,289.287,503.853,284.001,504.609,279.052z"/>
	<path fill="#738200" d="M554.953,283.754c0.35-0.186,0.671-0.412,0.958-0.657c-5.199-0.798-10.039-4.306-15.502-3.845
		c-0.227,1.078-0.347,2.098-0.344,3.048C543.477,279.743,552.88,284.86,554.953,283.754z"/>
	<path fill="#738200" d="M340.417,228.183c-7.114-0.39-15.899,0.339-22.156,4.234c-2.507,1.561-4.136,3.758-5.753,5.967
		c1.465-1.056,2.905-2.232,4.327-3.408c4.831-3.989,12.253-3.693,18.122-3.745c8.068-0.068,16.136-0.045,24.204,0.026
		c1.288,0.012,2.607,0.008,3.938,0.003C355.772,229.306,348.041,228.6,340.417,228.183z"/>
	<path fill="#738200" d="M307.59,151.26c-0.761-0.781-2.175-2.284-3.434-1.803c-1.86,0.711-2.491,3.651-2.45,5.373
		c0.055,2.278,0.632,4.654,2.029,6.506c1.118,1.482,3.677,3.77,5.766,3.015c2.452-0.887,2.614-4.086,2.124-6.586
		C310.724,155.393,309.307,153.022,307.59,151.26z"/>
	<path fill="#738200" d="M293.858,188.416c-4.53-3.465-9.911-9.432-11.095-15.098c-0.796,4.883,2.846,11.269,5.891,14.153
		c0.402,0.381,0.811,0.746,1.225,1.106c1.378,0.769,2.639,1.43,3.71,1.959C293.589,190.023,293.845,188.915,293.858,188.416z"/>
	<path fill="#738200" d="M434.006,146.035c-0.206,0.397-1.027,1.935-1.994,3.639c3.524-0.51,7.852-1.6,10.424-3.726
		C439.83,144.043,436.867,144.579,434.006,146.035z"/>
	<path fill="#738200" d="M460.866,240.284c4.688-1.223,9.434-2.426,14.145-3.867c6.159-1.883,16.208-6.042,23.38-11.747
		C484.522,226.019,469.483,229.633,460.866,240.284z"/>
	<path fill="#738200" d="M338.356,177.855c-2.932-0.199-5.86-0.342-8.786-0.547c4.149,2.315,8.414,4.533,12.948,5.803
		c5.387,1.507,10.963,2.478,16.467,3.453c5.391,0.953,10.797,1.785,16.214,2.532c-5.99-2.611-12.074-5.005-18.299-6.992
		C350.831,180.166,344.753,178.292,338.356,177.855z"/>
	<path fill="#738200" d="M437.771,215.486c8.007,1.04,18.383-1.781,20.692-9.509c3.853-12.888-11.163-18.686-21.58-18.954
		c7.679,2.944,17.031,8.271,13.898,17.651C449.048,209.873,443.405,213.349,437.771,215.486z"/>
	<path fill="#738200" d="M472.502,170.389c-0.443-0.245-0.884-0.489-1.325-0.73c-0.681,5.363-3.066,10.755-7.272,13.892
		c-0.634,0.473-1.397,0.884-2.247,1.23c0.826,0.282,1.622,0.611,2.411,0.954C469.794,183.132,472.988,176.968,472.502,170.389z"/>
	<path fill="#738200" d="M477.004,152.673c-4.188-5.673-9.777-3.988-15.392-2.886c5.975,4.355,12.755,8.912,15.283,15.68
		C478.722,161.178,479.373,155.885,477.004,152.673z"/>
	<path fill="#738200" d="M475.319,168.332c-0.843-4.13-3.432-7.423-6.632-10.288c1.506,1.903,2.489,4.483,2.684,7.606
		C472.753,166.488,474.058,167.394,475.319,168.332z"/>
	<path fill="#738200" d="M435.113,244.078c-2.042,2.05-4.327,3.722-7.166,4.424c-6.149,1.52-12.481,0.455-18.123-2.398
		c-5.748-2.909-11.029-7.41-17.421-8.79c-0.206-0.044-0.414-0.077-0.622-0.12c-0.056,2.772-0.4,5.445-0.978,8.032
		c2.575,0.539,5.093,1.36,7.591,2.434c6.231,2.678,12.98,6.988,19.99,6.77C427.044,254.162,431.365,249.637,435.113,244.078z"/>
	<path fill="#738200" d="M439.901,296.114c3.815-2.182,7.657-4.354,11.539-6.487c-0.272-0.819-0.553-1.836-0.846-3.012
		C446.673,289.358,443.051,292.355,439.901,296.114z"/>
	<path fill="#738200" d="M617.483,398.056c-5.726,1.991-11.595,3.553-17.599,5.128c-1.504,0.394-3.003,0.81-4.501,1.217
		c1.199,0.862,2.205,1.954,2.85,3.232c2.216-0.594,4.436-1.179,6.662-1.739c4.419-1.115,8.71-2.195,12.782-3.552
		C617.134,400.731,617.118,399.304,617.483,398.056z"/>
	<path fill="#738200" d="M640.305,384.16c-2.409,3.097-5.323,5.753-8.851,7.744c1.233,0.143,2.405,0.412,3.442,0.816
		c1.98-1.862,3.826-4.011,5.505-6.544c0.121-0.183,0.234-0.377,0.357-0.563c-0.138-0.228-0.26-0.486-0.344-0.876
		C640.376,384.545,640.342,384.353,640.305,384.16z"/>
	<path fill="#738200" d="M477.596,398.822c-1.314,0.523-2.717,1.048-4.157,1.513c0.304,0.595,0.539,1.147,0.707,1.6
		c2.034-0.26,4.123-0.357,6.114-0.763c2.62-0.533,12.489-2.932,7.09-9.405C485.455,395.276,481.07,397.44,477.596,398.822z"/>
	<path fill="#738200" d="M442.36,155.834c1.223,0.168,2.45,0.35,3.679,0.578c-0.627-0.999-1.608-1.723-3.081-1.929
		c-0.32-0.045-0.648-0.063-0.977-0.067C442.107,154.889,442.233,155.361,442.36,155.834z"/>
	<path fill="#738200" d="M463.611,161.694c1.321,0.568,2.625,1.161,3.885,1.8c-0.589-2.871-2.11-5.24-4.646-5.779
		C463.102,159.042,463.357,160.368,463.611,161.694z"/>
	<path fill="#C4C642" d="M517.612,291.637c-2.96,0-12.033-3.595-10.801-11.36c0.773-4.881,4.854-8.555,9.793-9.414
		c7.064-1.23,12.799,4.477,12.127,11.271C528.157,287.94,522.59,291.637,517.612,291.637z"/>
	<path fill="#C4C642" d="M642.251,382.986c-1.057-1.941-1.741-6.583-0.402-9.416c0.415-0.872,3.004-0.281,4.35,1.707
		C645.097,378.004,643.543,381.402,642.251,382.986z"/>
	<path fill="#C4C642" d="M647.148,373.206c-1.802-0.819-4.015-3.36-5.9-7.54c-1.047-2.323-1.201-5.129,1.258-6.701
		c2.099-1.343,4.696-0.908,6.905,0.028C649.528,363.755,648.731,368.672,647.148,373.206z"/>
	<path fill="#A19C0B" d="M643.455,352.368c-0.239,1.263,0.115,2.701,1.45,4.053c1.522,0.096,3.092,0.578,4.456,1.391
		c0-0.544-0.048-1.124-0.115-1.709C647.082,355.501,644.997,354.136,643.455,352.368z"/>
	<path fill="#A19C0B" d="M461.744,403.898c1.788-0.361,3.583-0.657,5.38-0.933c-9.209-1.508-18.251-4.469-27.093,0.885
		c-11.187,6.776-9.574,18.557-5.093,28.694c1.396,0.237,2.796,0.447,4.205,0.6c-1.485-2.253-2.229-4.425-2.383-7.47
		c-0.287-5.722,0.388-11.31,3.394-16.168c0.964-1.556,2.391-2.816,1.636-1.47c-2.318,4.123-3.738,11.508-3.376,16.253
		c0.433,5.692,2.451,8.466,3.788,9.138c3.276,0.215,6.57,0.215,9.861-0.014c-4.096-5.033-10.15-13.191-6.635-19.63
		C448.691,407.803,455.331,405.192,461.744,403.898z"/>
	<path fill="#A19C0B" d="M393.762,379.507c4.308-5.835,10.823-10.042,18.194-13.403c-9.265,1.001-18.824,8.069-23.549,15.269
		c-3.625,5.526-5.797,11.524-6.419,17.857c1.417,1.141,2.844,2.281,4.273,3.446C384.435,394.831,389.303,385.543,393.762,379.507z"
		/>
	<path fill="#A19C0B" d="M432.32,386.844c-6.095,1.892-12.695,7.991-15.897,12.022c-5.353,6.738-8.046,14.607-7.696,23.02
		c1.06,0.759,2.134,1.488,3.234,2.176c-1.475-4.955,0.219-11.168,2.145-15.728C418.396,398.179,423.754,393.036,432.32,386.844z"/>
	<path fill="#A19C0B" d="M367.982,357.524c7.202-8.959,15.1-12.398,26.134-14.649c0.17-0.036,0.328-0.061,0.49-0.09
		c-11.633-2.843-25.176,3.823-31.269,13.855c-3.023,4.973-4.923,10.43-5.777,16.063c0.948,1.6,1.931,3.179,2.983,4.714
		C359.854,370.461,363.803,362.721,367.982,357.524z"/>
	<path fill="#A19C0B" d="M355.275,330.518c7.361-6.12,15.181-8.897,24.214-9.556c-7.352-1.433-16.179,1.846-21.925,5.796
		c-5.027,3.455-8.741,7.839-11.147,13.072c0.096,1.145,0.214,2.291,0.373,3.435C348.185,338.379,351.213,333.894,355.275,330.518z"
		/>
	<path fill="#A19C0B" d="M376.355,294.41c-6.252-1.161-12.827-0.552-18.568,1.934c-0.722,1.124-1.397,2.259-2.019,3.389
		c2.094-1.35,4.338-2.403,6.416-3.107C366.655,295.111,371.576,294.182,376.355,294.41z"/>
	<path fill="#A19C0B" d="M396.584,278.778c0.594,0.435,1.213,0.861,1.874,1.273c0.742-2.819,3.232-5.913,1.383-8.738
		c-0.686-1.051-1.636-1.859-2.76-2.476C398.179,271.998,397.503,275.458,396.584,278.778z"/>
	<path fill="#A19C0B" d="M409.453,297.623c-1.479,7.405-3.113,14.764-0.608,21.856c0.509,0.005,1.119,0.089,1.691,0.321
		c-2.683-7.032,1.498-12.535,2.383-20.058c0.458-3.899-0.838-6.551-2.954-8.653C410.178,293.203,409.893,295.422,409.453,297.623z"
		/>
	<path fill="#A19C0B" d="M384.955,279.407c-3.464-2.842-8.784-2.914-13.564-1.623c-1.163,1.348-2.329,2.69-3.488,4.019
		C372.934,278.895,378.797,277.758,384.955,279.407z"/>
	<path fill="#A19C0B" d="M572.82,412.42c-8.596,3.333-18.349,5.042-27.6,5.32c-0.792,1.505-1.43,3.083-1.823,4.392
		c7.168-1.211,13.808-3.529,20.774-5.238c3.395-0.836,6.777-1.723,10.154-2.639C573.82,413.461,573.322,412.871,572.82,412.42z"/>
	<path fill="#A19C0B" d="M594.21,406.525c-4.561,1.47-9.184,2.515-13.942,2.818c-1.032,1.245-1.806,2.594-2.187,3.87
		c5.825-1.609,11.64-3.261,17.473-4.851C595.211,407.675,594.757,407.056,594.21,406.525z"/>
	<path fill="#A19C0B" d="M620.141,397.086c-1.249,1.445-1.683,3.23-0.983,4.738c2.317-0.823,4.558-1.757,6.708-2.852
		C623.916,398.487,621.996,397.836,620.141,397.086z"/>
	<path fill="#A19C0B" d="M517.121,287.991c-4.081-0.059-7.035-2.714-8.12-6.63c-0.511-1.846-0.661-3.633-0.507-5.345
		c-0.846,1.263-1.435,2.7-1.683,4.262c-1.232,7.766,7.84,11.36,10.801,11.36c4.907,0,10.375-3.595,11.081-9.258
		C525.324,285.69,521.164,288.05,517.121,287.991z"/>
	<path fill="#A19C0B" d="M641.138,376.828c-0.118,2.363,0.405,4.86,1.113,6.158c0.568-0.696,1.186-1.752,1.794-2.937
		C642.96,379.075,641.972,377.982,641.138,376.828z"/>
	<path fill="#A19C0B" d="M640.752,363.922c-0.032-0.02-0.059-0.044-0.092-0.064c0.125,0.616,0.326,1.228,0.589,1.809
		c1.885,4.18,4.098,6.72,5.9,7.54c0.586-1.676,1.06-3.406,1.426-5.159c-0.808-0.178-1.596-0.409-2.336-0.683
		C643.871,366.494,642.123,365.412,640.752,363.922z"/>
	<path d="M243.34,178.881c-1.843,0.884-1.982,4.413-0.314,7.885c1.668,3.469,4.513,5.563,6.357,4.678
		c1.841-0.887,1.981-4.417,0.311-7.887C248.027,180.089,245.182,177.993,243.34,178.881z"/>
	
		<ellipse transform="matrix(-0.4333 -0.9013 0.9013 -0.4333 187.1984 487.2876)" fill="#D6D6D6" cx="246.802" cy="184.789" rx="4.85" ry="2.387"/>
	<path fill="#AFB5AF" d="M248.717,187.081c-1.264,0.726-2.373,0.183-3.056-0.979c-0.64-1.091-1.325-2.151-1.834-3.302
		c0.051,0.906,0.313,1.957,0.824,3.021c1.161,2.414,3.065,3.91,4.253,3.339c0.795-0.383,1.063-1.596,0.808-3.079
		C249.444,186.493,249.124,186.846,248.717,187.081z"/>
	<path d="M212.532,137.225c-0.293-0.571-1.3-0.283-1.099,0.37c1.783,5.804,3.727,11.499,5.889,17.171
		c0.268,0.702,1.318,0.241,1.186-0.439C217.329,148.254,215.355,142.735,212.532,137.225z"/>
	<path d="M198.855,167.778c-4.964-4.068-10.185-7.315-16.07-9.907c-0.575-0.254-1.015,0.637-0.498,0.973
		c5.205,3.386,10.201,7.058,15.425,10.418C198.719,169.909,199.8,168.551,198.855,167.778z"/>
	<path d="M200.225,187.062c-5.329,0.509-10.317,2.538-15.006,5.047c-0.671,0.36-0.252,1.432,0.485,1.237
		c5.049-1.345,10.167-2.709,14.916-4.921C201.286,188.115,200.936,186.994,200.225,187.062z"/>
	<path d="M208.734,209.745c-5.007,3.298-7.79,8.74-11.77,13.065c-0.353,0.384,0.199,0.859,0.594,0.622
		c5.12-3.059,8.622-8.032,12.092-12.747C210.05,210.142,209.284,209.382,208.734,209.745z"/>
	<path d="M222.301,230.272c-2.67,5.04-4.863,10.2-6.963,15.497c-0.264,0.665,0.731,1.075,1.106,0.515
		c3.259-4.838,5.52-9.837,6.897-15.503C223.486,230.182,222.63,229.652,222.301,230.272z"/>
	<path d="M236.547,242.356c-0.082-0.705-1.245-1.017-1.359-0.176c-0.702,5.18-1.701,10.113-0.981,15.383
		c0.098,0.719,1.169,0.62,1.337,0.001C236.936,252.429,237.158,247.605,236.547,242.356z"/>
	<path d="M434.658,186.012c-1.661-0.115-1.959,0.6-1.545,0.67c7.911,1.337,15.264,5.881,16.431,14.003
		c1.041,7.233-10.866,11.968-15.68,14.502c-0.85,0.447-0.702,2.048,0.403,1.978c8.503-0.537,18.895-5.387,19.754-14.917
		C455.001,191.38,442.635,186.563,434.658,186.012z"/>
	<path d="M311.141,155.245c-1.606-3.254-5.358-9.394-8.311-6.381c-2.155,2.198-2.334,4.491-1.992,6.707
		c0.265,1.72,1.791,3.326,1.45,2.133c-0.706-2.465,0.682-5.629,1.609-6.476c1.109-1.016,3.058,3.106,3.934,4.94
		c-4.179,2.815,1.003,10.717,4.616,6.723C314.055,161.116,312.218,157.425,311.141,155.245z"/>
	<path d="M402.803,425.372c-2.027-2.322-4.369-4.251-7.155-5.585c-1.35-0.646-3.185-1.529-4.616-0.887
		c-0.202,0.091-0.275,0.414-0.064,0.545c0.694,0.428,0.722,0.436,1.552,0.485c1.444,0.087,2.775,0.699,4.052,1.331
		c2.229,1.099,4.184,2.684,5.967,4.394C402.723,425.832,402.964,425.556,402.803,425.372z"/>
	<path d="M401.333,427.409c-1.288-1.042-2.488-2.389-4.109-2.905c-1.517-0.483-3.271-0.406-3.733,1.346
		c-0.063,0.238,0.095,0.504,0.358,0.507c1.188,0.022,2.208-0.466,3.414-0.286c1.39,0.204,2.69,0.893,3.852,1.64
		C401.294,427.826,401.495,427.541,401.333,427.409z"/>
	<path d="M499.22,407.143c-1.747-2.556-3.362-5.07-5.957-6.84c-1.989-1.358-4.871-1.873-6.614,0.083
		c-0.19,0.215,0.044,0.477,0.272,0.475c0.038,0,0.075-0.003,0.113-0.005c-0.479,0.075-0.932,0.255-1.322,0.62
		c-0.162,0.152-0.145,0.449,0.115,0.485c1.679,0.237,3.105,0.091,4.684,0.874c1.482,0.734,2.846,1.924,3.669,3.356
		c0.119,0.205,0.408,0.02,0.31-0.186c-0.956-2.006-2.414-3.488-4.397-4.472c-0.686-0.341-1.482-0.639-2.258-0.708
		c1.465-0.092,2.8-0.29,4.309,0.253c2.808,1.009,5.1,3.942,6.787,6.233C499.057,407.482,499.346,407.322,499.22,407.143z"/>
	<path d="M500.773,400.513c-1.646-1.863-3.228-3.564-5.489-4.675c-1.708-0.84-4.232-1.16-5.532,0.469
		c-0.239,0.3-0.107,0.689,0.29,0.734c1.592,0.178,3.089-0.288,4.688,0.174c2.059,0.592,4.077,2.327,5.638,3.685
		C500.607,401.109,500.984,400.753,500.773,400.513z"/>
	<path d="M622.49,369.939c-2.276-1.599-5.363-1.934-7.195,0.352c-0.205,0.256,0.091,0.564,0.369,0.473
		c2.184-0.736,4.06-0.804,6.081,0.381c2.219,1.295,4.378,3.848,5.064,6.309c0.065,0.236,0.409,0.126,0.359-0.106
		C626.507,374.315,625.05,371.739,622.49,369.939z"/>
	<path d="M631.401,371.495c-1.779-3.122-3.984-5.717-7.632-6.453c-2.701-0.545-5.634,0.384-7.032,2.815
		c-0.166,0.293,0.094,0.748,0.459,0.624c1.956-0.668,3.593-1.787,5.703-2.025c3.345-0.378,6.538,2.712,8.151,5.263
		C631.194,371.946,631.533,371.727,631.401,371.495z"/>
	<path d="M630.503,359.183c-2.378-1.733-4.681-2.907-7.713-2.329c-2.297,0.438-4.717,2.469-4.388,4.949
		c0.033,0.235,0.372,0.407,0.574,0.267c1.332-0.921,2.056-2.328,3.513-3.107c2.249-1.198,5.582-0.567,7.804,0.509
		C630.466,359.558,630.672,359.308,630.503,359.183z"/>
	<path d="M624.627,354.308c-1.894-0.227-3.382-0.197-5.028,0.848c-1.616,1.026-2.476,2.415-2.704,4.27
		c-0.045,0.357,0.423,0.485,0.624,0.226c1.853-2.373,3.729-4.914,7.076-4.934C624.83,354.717,624.864,354.336,624.627,354.308z"/>
	<path d="M601.608,323.159c-1.648-1.324-3.815-0.101-5.076,1.231c-1.47,1.552-2.042,3.438-2.358,5.496
		c-0.036,0.229,0.288,0.31,0.352,0.082c0.378-1.413,1.337-2.774,2.238-3.915c1.3-1.647,2.74-1.985,4.702-2.299
		C601.76,323.704,601.827,323.335,601.608,323.159z"/>
	<path d="M600.753,321.715c-0.246-0.455-0.583-0.782-0.968-1.025c0.237,0.041,0.508-0.064,0.479-0.36
		c-0.124-1.247-0.207-1.892-1.128-2.769c-0.657-0.623-1.429-1.056-2.281-1.345c-1.689-0.57-3.505,0.067-5.01,0.828
		c-0.198,0.099-0.047,0.426,0.159,0.353c1.793-0.644,3.549-0.711,5.042,0.6c0.474,0.419,0.794,0.973,1.174,1.471
		c0.349,0.463,0.773,0.679,1.205,1.019c-0.929-0.419-2.084-0.402-3.123-0.211c-2.225,0.41-3.942,1.906-5.344,3.584
		c-0.159,0.191,0.112,0.449,0.284,0.265c1.195-1.275,2.645-2.214,4.317-2.728c1.814-0.558,3.169,0.516,4.842,0.839
		C600.67,322.289,600.874,321.937,600.753,321.715z"/>
	<path d="M382.102,275.369c-3.576-0.741-7.279-0.933-10.272,0.348c2.531-2.128,6.037-2.908,9.319-2.542
		c0.276,0.032,0.353-0.341,0.085-0.421c-4.342-1.301-8.805-0.769-10.978,3.69c-0.026,0.055-0.029,0.105-0.025,0.151
		c-1.356,0.94-2.495,2.288-3.299,4.188c-0.12,0.286,0.307,0.559,0.483,0.286c3.206-4.958,9.236-5.575,14.652-5.301
		C382.301,275.779,382.321,275.415,382.102,275.369z"/>
	<path d="M366.534,355.671c-4.687,4.818-14.434,14.753-9.305,22.136c0.163,0.236,0.541,0.078,0.508-0.2
		c-0.524-4.385-0.421-7.391,1.615-11.428c1.875-3.721,4.694-7.138,7.455-10.252C366.967,355.746,366.703,355.496,366.534,355.671z"
		/>
	<path d="M388.723,381.539c-3.175,2.804-5.458,6.161-7.005,10.109c-1.21,3.086-2.307,7.963,0.058,10.763
		c0.213,0.254,0.608,0.073,0.572-0.25c-0.447-4.108-0.821-7.115,0.677-11.142c1.267-3.403,3.389-6.626,6.007-9.132
		C389.224,381.706,388.922,381.364,388.723,381.539z"/>
	<path d="M382.568,385.698c-3.097,3.027-7.141,11.368-3.519,15.344c0.219,0.237,0.588,0.079,0.563-0.243
		c-0.386-5.171-0.326-10.563,3.243-14.836C383.013,385.77,382.747,385.522,382.568,385.698z"/>
	<path d="M399.91,243.363c-2.021-1.238-8.747-5.629-10.45-2.355c-0.103,0.201-0.063,0.477,0.184,0.551
		c0.574,0.168,0.713,0.143,1.316,0.007c1.239-0.28,2.991-0.234,4.181,0.113c1.605,0.468,3.138,1.201,4.593,2.016
		C399.948,243.813,400.114,243.488,399.91,243.363z"/>
	<path d="M396.001,244.148c-1.567-0.671-5.696-2.237-6.287,0.301c-0.056,0.232,0.207,0.36,0.394,0.307
		c1.861-0.525,3.851-0.834,5.758-0.233C396.085,244.591,396.211,244.238,396.001,244.148z"/>
	<path d="M476.927,150.2c-1.973-1.793-4.472-2.725-7.105-2.963c-4.092-0.369-7.188,0.983-10.789,2.531
		c-0.331,0.14-0.284,0.708,0.122,0.659c2.468-0.299,5.631-0.134,8.092,0.199c1.904,0.258,3.962,0.794,5.545,1.921
		c4.202,2.993,2.583,10.147,2.663,14.422c0.015,0.747,1.082,1.038,1.518,0.468C480.744,162.528,482.026,154.837,476.927,150.2z"/>
	<path d="M410.486,174.091c-1.508-1.104-3.25-0.474-4.745,0.246c-0.754-0.112-1.381,0.019-2.197,0.215
		c-0.286,0.069-0.345,0.505-0.01,0.548c0.655,0.081,1.296,0.275,1.957,0.365c0.637,0.088,1.36,0.262,1.936,0.56
		c1.43,0.742,1.661,2.581,1.816,3.999c0.028,0.245,0.391,0.284,0.439,0.029c0.313-1.651-0.078-3.305-1.342-4.467
		c-0.232-0.213-0.476-0.387-0.727-0.545c0.792,0.027,1.587,0.115,2.29,0.247c1.525,0.287,2.025,1.702,2.188,3.081
		c0.03,0.255,0.415,0.245,0.402-0.017C412.409,176.695,411.863,175.098,410.486,174.091z"/>
	<path d="M300.088,232.258c-0.08-0.227-0.438-0.123-0.36,0.106c0.698,2.057,0.238,4.566-0.689,6.469
		c-1.097,2.253-2.845,2.871-5.14,2.073c-0.359-0.125-0.641,0.329-0.402,0.608c0.93,1.084,1.628,1.558,3.192,1.3
		c1.208-0.199,2.037-1.365,2.547-2.374C300.359,238.224,300.928,234.646,300.088,232.258z"/>
	<path d="M309.231,232.94c-0.174-0.136-0.416,0.054-0.299,0.251c1.055,1.788,1.74,3.778,1.14,5.84
		c-0.492,1.689-2.233,3.289-3.582,4.354c0.554-0.989,0.909-2.102,0.992-3.031c0.265-2.952-0.571-6.007-2.449-8.281
		c-0.174-0.211-0.52,0.002-0.362,0.239c1.41,2.099,1.792,5.485,1.369,7.907c-0.562,3.225-2.269,3.228-4.744,4.348
		c-0.312,0.141-0.24,0.56-0.004,0.723c2.025,1.399,3.795,0.273,4.921-1.444c0.027,0.217,0.205,0.428,0.433,0.397
		C312.201,243.455,313.459,236.264,309.231,232.94z"/>
	<path d="M301.256,168.489c-1.088-0.859-2.12-1.18-3.075-1.116c-2.041-0.951-4.097-1.283-6.393-0.453
		c-2.274,0.822-3.367,3.019-3.608,5.27c-0.02,0.192,0.266,0.345,0.349,0.13c0.73-1.89,1.733-3.557,3.703-4.319
		c1.238-0.479,2.817-0.393,4.306-0.123c-3.003,1.703-4.871,7.185-4.626,10.258c0.023,0.289,0.435,0.254,0.442-0.026
		c0.103-4.3,3.419-10.868,8.624-9.165C301.254,169.035,301.508,168.689,301.256,168.489z"/>
	<path d="M306.986,171.808c-1.109-1.095-1.89-1.501-3.524-1.424c-1.578,0.075-2.941,1.117-4.037,2.151
		c-2.257,2.13-3.352,5.613-3.211,8.653c0.011,0.206,0.319,0.205,0.322-0.003c0.029-2.679,1.295-5.264,3.051-7.241
		c1.925-2.168,4.382-2.362,7.041-1.658C306.88,172.353,307.232,172.051,306.986,171.808z"/>
	<path d="M310.335,173.378c-1.986-1.819-5.239,1.118-6.495,2.633c-2.063,2.487-3.094,5.776-3.406,8.948
		c-0.02,0.204,0.326,0.239,0.357,0.037c0.408-2.679,1.615-5.277,3.254-7.423c0.705-0.926,1.569-1.672,2.55-2.293
		c1.179-0.745,2.648-0.538,3.712-1.339C310.469,173.819,310.484,173.516,310.335,173.378z"/>
	<path d="M363.23,224.956c-0.063-0.24-0.399-0.126-0.359,0.106c0.292,1.71,0.47,4.2-0.359,5.768c-0.383,0.723-0.855,1-1.387,1.567
		c-0.332,0.354-0.242,0.769,0.035,1.096c0.183,0.213,0.516,0.237,0.764,0.174C365.336,232.806,363.825,227.239,363.23,224.956z"/>
	<path d="M368.383,223.893c-0.206-0.142-0.48,0.066-0.341,0.299c1.074,1.791,1.863,3.768,1.508,5.886
		c-0.142,0.848-0.525,1.58-1.124,2.186c-0.548,0.555-1.184,0.719-1.53,1.473c-0.103,0.227-0.056,0.485,0.172,0.617
		c2.503,1.466,4-2.664,3.975-4.496C371.015,227.767,370.164,225.12,368.383,223.893z"/>
	<path d="M373.341,226.324c-0.111-0.183-0.402-0.053-0.341,0.151c0.374,1.238,0.883,2.746,0.684,4.053
		c-0.206,1.344-1.494,1.891-1.686,3.093c-0.041,0.255,0.1,0.528,0.371,0.58c1.55,0.291,2.223-1.584,2.397-2.811
		C375.023,229.616,374.227,227.807,373.341,226.324z"/>
	<path d="M382.179,224.893c-0.184-0.335-0.717-0.137-0.561,0.23c0.63,1.467,0.992,3.12,1.054,4.716
		c0.089,2.234-1.658,2.958-2.51,4.711c-0.102,0.208,0.094,0.435,0.295,0.459c2.077,0.245,3.275-1.91,3.607-3.697
		C384.501,228.941,383.271,226.874,382.179,224.893z"/>
	<path d="M386.624,224.813c-0.259-0.319-0.732,0.059-0.498,0.39c2.524,3.586,2.002,7.198-1.165,10.13
		c-0.252,0.232-0.067,0.732,0.306,0.634c2.477-0.654,3.611-2.062,3.798-4.617C389.237,228.978,388.078,226.597,386.624,224.813z"/>
	<circle fill="#FFFFFF" cx="464.973" cy="166.149" r="1.672"/>
	<circle fill="#FFFFFF" cx="462.162" cy="164.452" r="0.739"/>
	<circle fill="#FFFFFF" cx="445.82" cy="159.86" r="1.134"/>
	<circle fill="#FFFFFF" cx="443.697" cy="159.19" r="0.501"/>
	<path fill="#E5E5E8" d="M215.758,172.119c2.598-2.412,10.415-7.618,11.815-8.084c1.399-0.466-2.333,4.819-3.576,5.752
		C222.753,170.72,213.581,174.14,215.758,172.119z"/>
	<path fill="#E5E5E8" d="M226.484,181.136c2.202-1.468,5.441-3.886,6.529-4.508c1.087-0.622-1.555-2.176-3.265-0.622
		C228.039,177.56,222.753,183.623,226.484,181.136z"/>
	<path fill="#E5E5E8" d="M228.816,188.132c2.183-1.389,5.752-4.043,7.151-4.664c1.399-0.621-1.555-2.176-2.799-0.933
		C231.926,183.778,225.395,190.308,228.816,188.132z"/>
	<path fill="#E5E5E8" d="M231.77,195.128c2.191-1.535,6.529-4.82,7.462-5.442c0.933-0.622-1.088-1.865-2.798-0.467
		C234.724,190.619,228.661,197.303,231.77,195.128z"/>
	<path fill="#E5E5E8" d="M270.169,263.84c0.831,2.218,2.798,7.773,3.731,10.261c0.932,2.488-2.799-1.865-3.577-4.353
		C269.547,267.26,268.769,260.109,270.169,263.84z"/>
	<path fill="#E5E5E8" d="M301.416,355.561c1.748,4.806,10.571,31.092,11.97,35.29c1.399,4.197-4.508-7.152-7.773-16.945
		C302.348,364.112,299.55,350.431,301.416,355.561z"/>
	<path fill="#E5E5E8" d="M319.329,416.519c0.616-0.959,1.967-0.968,2.566,0.267C322.496,418.02,318.73,417.454,319.329,416.519z"/>
	<path fill="#D3D566" d="M360.06,304.097c5.166-4.894,15.266-5.621,21.22-2.221C384.733,303.85,350.684,312.98,360.06,304.097z"/>
	<path fill="#D3D566" d="M370.176,327.785c4.488-3.809,13.327-5.428,22.454-1.727C401.76,329.759,362.034,334.693,370.176,327.785z"
		/>
	<path fill="#D3D566" d="M390.409,349.005c4.901-3.968,13.077-6.169,18.998-4.688C415.33,345.796,385.227,353.198,390.409,349.005z"
		/>
	<path fill="#D3D566" d="M373.878,283.864c3.215-1.963,9.623-3.453,14.558,0.742C393.371,288.799,369.438,286.579,373.878,283.864z"
		/>
	<path fill="#D3D566" d="M408.915,372.444c2.869-2.573,10.325-6.773,15.544-7.154C434.577,364.549,399.292,381.081,408.915,372.444z
		"/>
	<path fill="#D3D566" d="M411.629,377.132c5.045-0.658,12.83-5.428,15.792-7.648c2.961-2.222,1.973,3.454-6.168,7.401
		C413.109,380.833,405.955,377.872,411.629,377.132z"/>
	<path fill="#D3D566" d="M514.766,273.995c3.565-2.251,8.635-0.246,9.87,3.208C525.871,280.656,505.39,279.917,514.766,273.995z"/>
	<path fill="#B0BF40" d="M483.925,139.273c4.03-1.697,8.884,2.715,8.884,9.623S479.237,141.248,483.925,139.273z"/>
	<path fill="#B0BF40" d="M308.738,142.727c3.754-0.395,6.168,2.221,6.908,6.169C316.387,152.844,304.05,143.221,308.738,142.727z"/>
	<path fill="#B0BF40" d="M300.102,223.412c4.841,1.075,12.584,2.961,16.532,3.948c3.948,0.986-5.428,3.207-9.87,1.973
		C302.323,228.1,293.44,221.932,300.102,223.412z"/>
	<path fill="#B0BF40" d="M467.886,192.816c4.128-3.774,12.831-8.389,18.259-0.493C491.575,200.218,459.25,200.712,467.886,192.816z"
		/>
	<path fill="#B0BF40" d="M446.667,198.738c1.488,3.53,0,7.155-4.442,9.129C437.785,209.841,444.693,194.05,446.667,198.738z"/>
	<path fill="#B0BF40" d="M480.718,281.643c4.871-1.443,13.817-5.921,18.259-7.156c4.44-1.233-3.454,5.675-7.895,8.143
		C486.639,285.097,474.056,283.617,480.718,281.643z"/>
	<path fill="#B0BF40" d="M275.429,304.097c-1.097-5.852-5.458-14.709-6.168-12.337c-0.83,2.766,2.22,15.298,4.194,19.738
		C274.481,313.806,276.616,310.423,275.429,304.097z"/>
	<path fill="#B0BF40" d="M438.033,300.643c4.743-1.007,14.806-5.182,19.987-7.404c5.181-2.22-2.959,6.17-8.142,8.636
		C444.695,304.343,429.891,302.37,438.033,300.643z"/>
	<path fill="#B0BF40" d="M441.982,261.41c1.681,4.206,4.194,15.545,4.688,18.999c0.492,3.454-6.17-1.973-7.156-6.169
		C438.526,270.045,439.514,255.242,441.982,261.41z"/>
	<path fill="#B0BF40" d="M471.59,341.6c3.833,6.087,15.054,19.493,25.663,23.687c10.609,4.195-15.794,1.235-21.961-4.934
		C469.125,354.184,467.395,334.939,471.59,341.6z"/>
	<path fill="#B0BF40" d="M467.642,409.455c5.158-0.859,11.353-2.713,15.792-3.453c4.442-0.741,0.492,4.933-4.934,7.155
		C473.07,415.377,458.759,410.935,467.642,409.455z"/>
	<path fill="#B0BF40" d="M313.677,306.316c5.4,2.049,13.818,4.193,17.766,4.441c3.948,0.247-3.454,5.181-8.883,3.7
		C317.131,312.978,306.522,303.602,313.677,306.316z"/>
	<path fill="#B0BF40" d="M547.588,379.844c7.321,1.196,34.051,3.947,40.96,4.195c6.907,0.248-7.648,7.157-21.468,5.429
		C553.263,387.742,535.499,377.872,547.588,379.844z"/>
	<path fill="#B0BF40" d="M581.392,318.654c0.583-4.957,6.908-12.09,9.622-17.026c2.714-4.936,2.466,3.455-0.248,8.882
		C588.054,315.938,580.898,322.85,581.392,318.654z"/>
	<path fill="#B0BF40" d="M616.921,333.457c6.356,0.908,18.26,3.209,21.961,7.155c4.93,5.258-10.116,1.975-13.323,1.235
		C622.351,341.106,610.013,332.471,616.921,333.457z"/>
	
		<ellipse transform="matrix(-0.961 -0.2767 0.2767 -0.961 447.1868 346.6418)" fill="#FFFFFF" cx="248.046" cy="141.775" rx="1.83" ry="3.263"/>
	
		<ellipse transform="matrix(-0.2289 -0.9735 0.9735 -0.2289 223.1515 426.6101)" fill="#FFFFFF" cx="280.55" cy="124.918" rx="2.122" ry="3.261"/>
</g>
</svg>
