<?xml version="1.0" encoding="utf-8"?>
<!-- Generator: Adobe Illustrator 17.0.0, SVG Export Plug-In . SVG Version: 6.00 Build 0)  -->
<!DOCTYPE svg PUBLIC "-//W3C//DTD SVG 1.1//EN" "http://www.w3.org/Graphics/SVG/1.1/DTD/svg11.dtd">
<svg version="1.1" id="Layer_1" xmlns="http://www.w3.org/2000/svg" xmlns:xlink="http://www.w3.org/1999/xlink" x="0px" y="0px"
	 width="300px" height="300px" viewBox="0 0 300 300" enable-background="new 0 0 300 300" xml:space="preserve">
<path fill="#516CB4" stroke="#000000" stroke-linecap="round" stroke-linejoin="round" stroke-miterlimit="10" d="M128.641,164.898
	c-5.609-28.043-27.438-48.164-55.095-46.353c-37.775,2.474-57.075,39.425-49.157,65.158s27.548,43.219,56.085,41.074
	C109.012,222.632,134.25,192.94,128.641,164.898z M86.152,215.214c-21.686,6.673-52.826-9.592-54.911-41.426
	c-1.527-23.308,15.431-41.705,39.063-46.431c23.633-4.727,48.655,16.543,50.462,40.592
	C122.574,191.998,107.838,208.541,86.152,215.214z"/>
<path fill="#71C273" stroke="#000000" stroke-linecap="round" stroke-linejoin="round" stroke-miterlimit="10" d="M92.818,158.706
	c3.82-1.602,4.942-9.012-0.484-8.333c-5.426,0.678-21.318,3.933-22.384,4.147c-1.066,0.214-3.973,2.927-2.519,5.349
	c1.453,2.422,7.267,9.593,5.717,10.562c-1.55,0.969-21.318,11.531-21.027,11.822c0.291,0.291,2.422,1.744,5.233,1.357
	s4.845-2.132,7.655-1.453c2.81,0.678,6.395,1.778,8.236,1.519c1.841-0.259,5.911-2.585,8.043-1.809s6.492,1.565,7.461,1.848
	c0.969,0.284,2.713-0.298,2.132-0.879s-12.306-21.609-11.531-21.802S91.578,159.226,92.818,158.706z"/>
<path fill="#71C273" stroke="#000000" stroke-linecap="round" stroke-linejoin="round" stroke-miterlimit="10" d="M93.884,163.551
	c-2.816-0.224-6.686,2.907-6.492,6.783c0.194,3.876,1.55,7.655,6.492,7.752c4.942,0.097,7.655-3.876,7.849-7.267
	C101.926,167.427,99.988,164.036,93.884,163.551z"/>
<path fill="#71C273" stroke="#000000" stroke-linecap="round" stroke-linejoin="round" stroke-miterlimit="10" d="M41.979,194.249
	c0,0-0.578-5.258,0-5.49s1.502,0.289,3.583-0.809c2.08-1.098,5.143-0.867,6.934-0.289c1.791,0.578,6.414,1.271,7.743,0.693
	s5.258-1.734,7.801-0.751c2.543,0.982,5.721,1.329,7.339,0.636c1.618-0.693,6.183-1.676,7.743-0.751s4.97,1.445,6.299,1.213
	c1.329-0.231,5.258-2.314,7.628-1.59c2.369,0.724,3.409,1.186,4.392,1.475c0.982,0.289,1.676,0,1.791,0.52s0.52,5.143,0,5.143
	s-5.49-1.734-6.934-1.56c-1.445,0.173-6.442,2.138-8.913,1.791c-2.471-0.347-3.858-1.849-6.342-1.849
	c-2.485,0-5.49,1.873-7.396,1.89c-1.907,0.017-7.685-2.121-9.419-1.774s-5.258,1.816-6.876,1.775
	c-1.618-0.041-5.201-1.89-7.396-1.948S43.829,194.596,41.979,194.249z"/>
<path fill="#516CB4" stroke="#000000" stroke-linecap="round" stroke-linejoin="round" stroke-miterlimit="10" d="M144.485,75.832
	c-28.043,5.609-48.164,27.438-46.353,55.095c2.474,37.775,39.425,57.075,65.158,49.157s43.219-27.548,41.074-56.085
	C202.22,95.462,172.528,70.224,144.485,75.832z M194.801,118.322c6.673,21.686-9.592,52.826-41.426,54.911
	c-23.308,1.527-41.705-15.431-46.431-39.063s16.543-48.655,40.592-50.462C171.586,81.9,188.129,96.636,194.801,118.322z"/>
<path fill="#71C273" stroke="#000000" stroke-linecap="round" stroke-linejoin="round" stroke-miterlimit="10" d="M136.801,130.367
	c-0.584,0.5-10.851,0.078-13.818,0s-4.528,6.167,0,7.026s16.706,0.312,17.721,0s2.966-2.03,3.435-2.498
	c0.468-0.468,5.777-6.737,6.557-6.452c0.781,0.285,8.119,7.623,8.119,8.404c0,0.781-3.435,14.442-3.591,15.769
	c-0.156,1.327,1.093,2.966,3.123,3.123c2.03,0.156,2.966-0.39,3.591-2.264c0.625-1.874,4.528-17.33,4.606-19.282
	s0.156-2.966-0.937-4.216c-1.093-1.249-7.494-6.714-7.104-7.416c0.39-0.703,7.653-9.368,8.081-8.899
	c0.428,0.468,5.19,4.996,6.127,5.465s1.561,0.485,3.123-0.694c1.561-1.179,8.197-8.049,9.212-9.532s-1.171-4.918-3.513-3.903
	c-2.342,1.015-6.714,7.572-7.807,7.26c-1.093-0.312-4.762-4.45-4.294-4.45c0.468,0,4.45-0.625,6.089-3.747
	c1.639-3.123,0.859-7.572-2.42-8.119c-3.279-0.546-5.23,0.312-6.089,1.249s-1.717,2.264-2.186,3.435
	c-0.468,1.171-0.39,2.576-1.015,2.576c-0.625,0-14.676-0.156-16.472,0.546c-1.796,0.703-9.914,8.978-10.617,10.383
	c-0.703,1.405,1.171,6.557,3.825,3.981c2.654-2.576,7.584-8.275,9.451-9.212s5.381-0.234,4.991,0.312
	S137.894,129.43,136.801,130.367z"/>
<path fill="#516CB4" stroke="#000000" stroke-linecap="round" stroke-linejoin="round" stroke-miterlimit="10" d="M278.308,164.898
	c-5.609-28.043-27.438-48.164-55.095-46.353c-37.775,2.474-57.075,39.425-49.157,65.158s27.548,43.219,56.085,41.074
	C258.678,222.632,283.917,192.94,278.308,164.898z M235.818,215.214c-21.686,6.673-52.826-9.592-54.911-41.426
	c-1.527-23.308,15.431-41.705,39.063-46.431c23.633-4.727,48.655,16.543,50.462,40.592
	C272.24,191.998,257.505,208.541,235.818,215.214z"/>
<path fill="#71C273" stroke="#000000" stroke-linecap="round" stroke-linejoin="round" stroke-miterlimit="10" d="M254.935,177.134
	c-1.775-1.253-4.248-2.642-5.372-2.975s-2.997-0.192-3.331-0.367s-1.166-4.838-0.833-4.629c0.333,0.208,1.374-0.125,1.79-0.458
	c0.416-0.333,0.791-1.707,0.833-2.123s1.499-0.333,1.499,0.708c0,1.041,0.042,2.873-0.083,3.289s0.625,1.665,1.207,0.791
	c0.583-0.874,0.874-1.707,0.749-3.081c-0.125-1.374-1.124-3.705-3.081-3.955s-9.95-0.958-10.242-1.374s-1.79-8.41-2.456-9.451
	c-0.666-1.041-3.789-3.081-6.162-2.29c-2.373,0.791-6.328,5.412-7.785,7.369s-4.621,6.869-5.412,7.993s-1.582,3.206-1.582,3.997
	s0.458,2.748,0.874,2.998c0.416,0.25,1.457,0.999,1.207,1.207c-0.25,0.208-1.998,2.123-2.373,1.998
	c-0.375-0.125-3.35-3.273-8.523-2.989c-4.17,0.228-8.875,3.775-10.964,8.048c-2.088,4.273-0.104,9.807,2.193,12.94
	c2.297,3.133,7.727,5.638,12.843,3.655c5.116-1.984,6.474-3.968,7.414-5.116c0.94-1.149,0.522-1.88,1.88-1.566
	c1.357,0.313,4.383,2.402,6.473,1.044s2.194-2.924,5.222-4.49c3.028-1.566,3.028-1.671,3.028-0.313
	c0,1.357,3.446,11.437,11.277,11.148s12.843-4.883,13.47-10.626C259.321,182.772,256.71,178.387,254.935,177.134z M244.817,175.866
	c0.291,0.04,0.167,0.5-0.371,0.874c-0.538,0.375-7.581,5.412-7.872,5.662c-0.291,0.25,0.167-1.457,0.681-1.832
	c0.514-0.375,1.776-2.415,3.941-3.58C243.359,175.824,244.61,175.838,244.817,175.866z M215.424,192.727
	c-0.541,0.958-1.499,2.748-6.12,4.205c-4.621,1.457-8.202-0.833-11.033-3.539c-2.831-2.706-2.581-7.952-2.165-10.033
	c0.416-2.082,4.352-7.654,8.909-7.869c4.558-0.215,8.16,2.373,8.16,2.54c0,0.416-7.244,7.244-7.785,7.785
	c-0.541,0.541-0.708,1.166,0.662,1.457c1.37,0.291,9.996,3.289,10.162,3.664C216.381,191.312,215.965,191.77,215.424,192.727z
	 M217.006,189.147c-0.416,0.125-9.159-2.873-9.367-3.039c-0.208-0.167,6.56-6.643,6.869-6.869c0.314-0.23,1.957,2.498,2.706,4.58
	C217.964,185.9,217.422,189.022,217.006,189.147z M222.835,188.106c-0.333,0.708-0.833,2.082-0.916,2.415
	c-0.083,0.333-2.789-0.375-2.968-0.458c-0.178-0.083-0.113-1.582-0.029-2.082c0.084-0.5-0.042-3.122,0-4.58
	s-2.498-4.871-2.669-5.204c-0.171-0.333,1.973-2.741,2.294-2.719c0.416,0.029,9.284,3.177,9.576,3.427
	C228.413,179.155,223.168,187.398,222.835,188.106z M227.456,171.12c-0.458,0-2.706-1.582-2.956-1.998
	c-0.25-0.416,5.873-9.343,6.869-9.201c0.583,0.083,1.207,4.288,1.416,4.746c0.208,0.458,0.208,2.706,1.957,2.956
	c1.749,0.25,7.993,1.207,8.576,1.249c0.583,0.042,0.625,2.664,0.333,2.821S227.914,171.12,227.456,171.12z M234.16,184.188
	c-0.626,0.338-4.373,3.169-4.081,2.586s4.621-7.244,4.704-8.701c0.083-1.457-0.416-2.789-1.707-3.289
	c-1.291-0.5-3.163-1.699-2.498-1.707c0.263-0.003,14.114,0.375,13.864,0.583c-0.25,0.208-2.331,0.955-3.206,1.435
	c-0.874,0.48-4.33,2.104-5.079,3.894C235.408,180.779,234.786,183.85,234.16,184.188z M253.31,194.934
	c-2.248,2.248-6.703,2.665-10.158,1.832c-3.456-0.833-5.912-4.829-6.669-6.156s-0.867-4.585-0.7-5.168
	c0.167-0.583,9.453-7.116,9.576-7.202c0.321-0.225,1.957,4.33,1.915,5.412s-0.708,2.456-1.249,2.998
	c-0.541,0.541,0.749,1.291,1.166,1.041c0.416-0.25,0.833-0.958,1.207-1.375c0.375-0.418,0.625-2.83,0.416-3.887
	c-0.208-1.058-2.04-6.02-2.199-6.395c-0.159-0.375,0.408-0.833,1.866-0.375c1.457,0.458,2.873,0.708,3.747,1.332
	c0.874,0.625,2.914,2.581,3.789,4.247c0.874,1.665,1.499,3.955,1.499,5.953S255.558,192.686,253.31,194.934z"/>
<path fill="#71C273" stroke="#000000" stroke-linecap="round" stroke-linejoin="round" stroke-miterlimit="10" d="M232.469,148.98
	c0.088,0.167,0.797,2.296,2.416,2.996c1.619,0.701,3.117,0.652,3.891,0.242c0.773-0.411,2.392-1.571,2.489-2.247
	s0.145-1.933,0.459-1.957c0.314-0.024,1.305-0.362,1.281-1.353c-0.024-0.991-1.45-4.132-2.537-4.93s-2.996-0.604-4.712,0.411
	c-1.716,1.015-4.326,4.736-4.93,5.268c-0.604,0.532-0.556,1.643,0,1.643C231.382,149.052,232.334,148.725,232.469,148.98z"/>
</svg>
