<?xml version="1.0" encoding="utf-8"?>
<!-- Generator: Adobe Illustrator 16.0.0, SVG Export Plug-In . SVG Version: 6.00 Build 0)  -->
<!DOCTYPE svg PUBLIC "-//W3C//DTD SVG 1.1//EN" "http://www.w3.org/Graphics/SVG/1.1/DTD/svg11.dtd">
<svg version="1.1" id="Layer_1" xmlns="http://www.w3.org/2000/svg" xmlns:xlink="http://www.w3.org/1999/xlink" x="0px" y="0px"
	 width="60px" height="60px" viewBox="0 0 60 60" enable-background="new 0 0 60 60" xml:space="preserve">
<g>
	<path opacity="0.15" fill="#262626" d="M44.676,41.837c1.765-0.631,1.532-0.966-0.667-1.099c-0.332-0.034-0.666,0-0.965,0.032
		c-0.267,0-0.534,0-0.731,0.068c-1.301,0.199-2.167,0.432-2.601,0.732l-0.502,0.199c-0.364,0.2-0.631,0.434-0.697,0.6
		c0,0.066,0,0.101,0.034,0.134c0.099,0.066,0.234,0.1,0.431,0.133l-0.03,0.101c-0.102,0.034-0.135,0.034-0.236,0.034l0.07,0.03
		c-0.136,0.069-0.269,0.069-0.4,0.136l-2.935,0.366c-0.93,0.168-1.764,0.398-2.463,0.733l-3.201,1.465l-2.795-0.033l-0.303,0.234
		l1.601,0.499l-3.931,1.565l-0.732,0.101c-0.269,0.1-0.434,0.168-0.499,0.266c-0.137,0.133,0.065,0.267,0.598,0.4h0.833l0.034-0.101
		c0.267,0.034,0.466,0,0.601-0.066l0.431-0.266c0.232,0,0.534,0,0.832,0l1.301-0.468l-2.098,1.133c0.131,0,0.299,0,0.433,0
		l-1.699,2.266l-2.099,1.667l-2.399,0.832l-1.565,0.234c-1.133-0.069-2.099,0.032-2.866,0.229l0.835,0.103
		c2.398,0.035,4.763,0.035,7.162,0l0.566-0.365c0.066,0,0.132,0,0.167,0l0.065-0.036l0.3,0.102l2.964-0.065l0.634-0.234
		c0.033-0.034,0.134-0.034,0.2-0.034c2-0.6,3.532-1.333,4.531-2.167l3.931-2.763c0.099,0,0.199,0,0.3-0.033l2.399-1.5l2.031-1.066
		c0.769-0.065,1.431-0.167,2.032-0.399c0.5-0.268,0.899-0.498,1.234-0.733c0.199-0.165,0.332-0.298,0.465-0.431
		c0,0,0.032-0.068,0.066-0.068c0.832-0.601,0.766-1.032-0.301-1.267l-2.03-0.331v-0.269c-0.036,0-0.068,0-0.101,0l0.032-0.098
		l0.2-0.135C43.677,42.104,44.209,42.006,44.676,41.837z"/>
	<path fill="#5D4233" d="M22.417,4.244c-0.35-0.018-0.668,0-0.935,0.067c1.333,0.282,2.213,1.147,2.631,2.563
		c0.219,0.948-0.131,1.682-1.05,2.182c-0.881,0.016-1.8-0.283-2.747-0.917c0.019,0.033,0.033,0.069,0.051,0.118l0.415,0.698
		c0.9,0.95,1.948,1.233,3.146,0.882c0.419-0.313,0.719-0.781,0.935-1.416C25.61,6.075,24.796,4.679,22.417,4.244L22.417,4.244z"/>
	<path fill="#916852" d="M21.482,4.312c-0.249,0.066-0.45,0.165-0.598,0.316C19.868,5.31,19.4,6.26,19.485,7.442l0.197,0.664
		c0.069-0.25,0.15-0.382,0.251-0.399C20,7.691,20.066,7.725,20.151,7.841c0.049,0.083,0.097,0.184,0.165,0.299
		c0.947,0.634,1.866,0.933,2.747,0.917c0.919-0.5,1.269-1.233,1.05-2.182C23.695,5.459,22.815,4.594,21.482,4.312L21.482,4.312z"/>
	<path fill="#D9AD85" d="M19.934,7.707c-0.101,0.018-0.182,0.149-0.251,0.399l-0.197-0.664l-0.151,0.815
		c-0.081,0.748,0,1.515,0.232,2.264c0.069,0.149,0.15,0.301,0.236,0.417c0.231,0.082,0.298-0.185,0.214-0.801l0.435,1.332
		l0.099,0.334c0.416-0.516,0.933-0.898,1.548-1.133h0.017l-0.066-0.399l-1.148-0.633l-0.55-0.896
		c-0.015,0.363-0.168,0.563-0.416,0.58c0.116-0.25,0.183-0.484,0.233-0.698L19.934,7.707L19.934,7.707z"/>
	<path fill="#AB8262" d="M20.316,8.14c-0.068-0.115-0.116-0.216-0.165-0.299C20.066,7.725,20,7.691,19.934,7.707l0.233,0.917
		c-0.051,0.214-0.117,0.448-0.233,0.698c0.248-0.017,0.401-0.217,0.416-0.58l0.55,0.896l1.148,0.633l0.066,0.399l0.02-0.016
		c0.514-0.2,1.113-0.299,1.794-0.317v-0.5c-1.197,0.352-2.245,0.068-3.146-0.882l-0.415-0.698l-0.032,0.016
		C20.316,8.225,20.316,8.191,20.316,8.14L20.316,8.14z"/>
	<path fill="#CCCCCC" d="M20.316,8.14c0,0.052,0,0.085,0.019,0.134l0.032-0.016C20.35,8.209,20.335,8.173,20.316,8.14L20.316,8.14z"
		/>
	<path d="M24.146,10.706c-0.019,0-0.051,0-0.099-0.02c-0.317-0.016-0.615,0-0.898,0.033h-0.02l0.267,0.335
		c-1.182,0.185-2.148,0.551-2.861,1.099l0.098,0.167c0.783-0.434,1.55-0.684,2.314-0.767c2.815,1.483,4.563,3.664,5.245,6.544
		l-1.481,6.478l-0.65,6.327c-0.516,1.698-3.512,2.515-9.023,2.447l-0.101,1.282c0.15,0.018,0.317,0.05,0.481,0.065
		c3.183,0.351,6.179,0.151,8.993-0.599l0.648,11.805l-1.414,4.78l-1.982,0.914l0.8-6.576V34.815l-1.598,4.945l-0.35,8.657
		l-0.767,2.898l-2.664,0.732l-0.2,0.648l-1.266,0.733c-1.181-0.102-2.015,0.217-2.462,0.966l0.979,0.366
		c2.483,0.217,4.879,0.217,7.179,0v-1.365l0.147-0.151l0.484,0.384l2.831-0.281l0.232-0.884c0.049-0.017,0.116-0.051,0.183-0.084
		c1.051-2.281,1.414-4.978,1.101-8.126l-0.567-10.539c0.082-0.033,0.185-0.065,0.266-0.101v-5.678l0.334-4.011l0.149-1.85
		l0.95-4.096l0.05-0.25c-0.119-2.246-0.883-3.829-2.299-4.712l-2.613-1.396L24.146,10.706L24.146,10.706z"/>
	<path fill="#CCCCCC" d="M24.048,10.687l-0.12-0.349c-0.681,0.019-1.28,0.117-1.794,0.317l0.063,0.266
		c0.285-0.099,0.603-0.167,0.933-0.201h0.02C23.433,10.687,23.73,10.671,24.048,10.687L24.048,10.687z"/>
	<path fill="#333333" d="M23.13,10.72c-0.33,0.034-0.647,0.103-0.933,0.201c-0.715,0.234-1.263,0.65-1.662,1.232
		c0.713-0.548,1.68-0.914,2.861-1.099L23.13,10.72L23.13,10.72z"/>
	<path fill="#EEEEEE" d="M22.114,10.671h-0.017c-0.615,0.234-1.132,0.617-1.548,1.133c-0.049,0.051-0.083,0.116-0.134,0.184
		l0.119,0.166c0.399-0.582,0.947-0.998,1.662-1.232l-0.063-0.266L22.114,10.671L22.114,10.671z"/>
	<path fill="#EA2D2E" d="M20.535,12.153c-0.084,0.117-0.168,0.234-0.236,0.366c0.117-0.065,0.217-0.132,0.334-0.199L20.535,12.153
		L20.535,12.153z"/>
	<path fill="#333333" d="M20.633,12.32c-0.117,0.067-0.217,0.134-0.334,0.199l-2.296,1.499c-0.683,0.615-1.132,1.499-1.334,2.646
		l-0.83,5.61l-0.301,1.934l-0.097,0.632l-0.168,1.1l-1.233,4.861c0.282,0.383,0.583,0.7,0.932,0.916l4.063-10.256l0.784-6.079
		c0.648,0.95,0.931,2.166,0.88,3.646v0.018c-0.046,1.114-0.298,2.382-0.748,3.812l-2.696,7.512l-0.217,2.979
		c5.512,0.067,8.508-0.749,9.023-2.447l0.65-6.327l1.481-6.478c-0.682-2.88-2.43-5.061-5.245-6.544
		C22.183,11.637,21.416,11.887,20.633,12.32L20.633,12.32z"/>
	<path fill="#AB8262" d="M20.017,10.138c0.084,0.616,0.018,0.883-0.214,0.801c0.183,0.249,0.397,0.415,0.648,0.531L20.017,10.138
		L20.017,10.138z"/>
	<path d="M20.698,19.047v-0.018c0.051-1.48-0.231-2.696-0.88-3.646l-0.784,6.079l-4.063,10.256c0.15,0.083,0.316,0.166,0.484,0.217
		c0.116,0.05,0.248,0.082,0.363,0.101c0.269,0.05,0.552,0.05,0.835,0.033l0.6-1.698l2.696-7.512
		C20.4,21.429,20.652,20.161,20.698,19.047L20.698,19.047z"/>
	<path fill="#CCCCCC" d="M29.491,17.981c-0.016-0.081-0.016-0.166-0.016-0.25l-0.05,0.25H29.491L29.491,17.981z"/>
	<path fill="#333333" d="M29.725,19.629c-0.051-0.582-0.116-1.133-0.233-1.647h-0.065l-0.95,4.096l-0.149,1.851
		c0.667-0.185,1.115-0.701,1.348-1.55C29.757,21.41,29.776,20.496,29.725,19.629L29.725,19.629z"/>
	<polygon fill="#666666" points="13.024,22.942 15.441,24.841 15.538,24.209 13.024,22.244 13.024,22.942 	"/>
	<polygon fill="#CCCCCC" points="15.839,22.275 13.024,22.244 15.538,24.209 15.839,22.275 	"/>
	<path fill="#AB8262" d="M15.819,32.035c-0.115-0.019-0.247-0.051-0.363-0.101l0.082,0.615l-0.432,0.2l0.098-0.218l-0.698,0.317
		c-0.449,0.017-0.833-0.198-1.115-0.65c0.084,0.551,0.499,1.034,1.232,1.451h0.833l-0.084-0.249c0.332,0.116,0.483-0.02,0.447-0.37
		V32.035L15.819,32.035z"/>
	<path fill="#D9AD85" d="M14.04,30.802l-0.514,0.499c-0.136,0.318-0.186,0.616-0.136,0.898c0.282,0.452,0.666,0.667,1.115,0.65
		l0.698-0.317l-0.098,0.218l0.432-0.2l-0.082-0.615c-0.168-0.051-0.334-0.134-0.484-0.217C14.623,31.502,14.322,31.185,14.04,30.802
		L14.04,30.802z"/>
	<path fill="#333333" d="M26.411,34.099c-2.814,0.75-5.811,0.949-8.993,0.599l1.883,8.427l0.567,6.311l-0.783,2.614l2.664-0.732
		l0.767-2.898l0.35-8.657l1.598-4.945v10.206l-0.8,6.576l1.982-0.914l1.414-4.78L26.411,34.099L26.411,34.099z"/>
	<path fill="#CCCCCC" d="M23.447,53.38l0.016-0.134l-0.147,0.151C23.364,53.397,23.396,53.397,23.447,53.38L23.447,53.38z"/>
</g>
</svg>
