<?xml version="1.0" encoding="UTF-8" ?>
<!DOCTYPE svg PUBLIC "-//W3C//DTD SVG 1.1//EN" "http://www.w3.org/Graphics/SVG/1.1/DTD/svg11.dtd">
<svg width="382pt" height="277pt" viewBox="0 0 382 277" version="1.1" xmlns="http://www.w3.org/2000/svg">
<g id="#71d8f4ff">
<path fill="#71d8f4" opacity="1.00" d=" M 0.00 0.00 L 382.00 0.00 L 382.00 206.37 C 371.74 202.24 361.76 196.35 350.49 195.68 C 348.64 189.56 345.90 183.76 343.76 177.74 C 356.06 178.16 365.89 186.34 375.91 192.48 C 371.44 184.03 365.26 175.45 355.84 172.22 C 355.30 170.70 354.03 169.42 353.89 167.80 C 355.61 167.43 357.40 167.74 359.15 167.77 C 362.97 168.31 366.44 170.14 369.80 171.95 C 372.70 173.94 375.53 176.04 378.51 177.91 C 376.30 172.73 373.31 167.63 368.58 164.37 C 363.80 160.92 357.77 160.34 352.23 158.88 C 355.02 156.06 357.99 153.32 361.60 151.58 C 366.42 149.06 371.91 148.56 377.15 147.41 C 376.62 147.30 375.56 147.08 375.03 146.97 C 375.38 139.83 374.86 132.55 372.12 125.87 C 366.93 112.47 361.20 98.62 361.96 83.96 C 363.02 67.85 368.89 52.24 368.02 35.98 C 367.74 28.04 363.45 20.56 357.02 15.99 C 347.65 9.28 336.15 6.34 324.83 5.22 C 316.25 4.27 307.60 3.57 298.97 4.13 C 264.52 6.18 230.56 13.25 197.33 22.32 C 185.38 25.49 173.56 30.25 161.01 30.13 C 151.94 30.18 143.08 28.11 134.15 26.87 C 111.23 23.69 88.74 17.87 65.72 15.35 C 54.57 14.57 42.56 13.88 32.41 19.44 C 24.66 23.55 20.27 31.81 18.05 39.99 C 13.79 55.01 14.31 70.91 16.80 86.19 C 18.28 97.79 21.19 109.25 21.11 121.01 C 21.29 129.01 20.56 136.99 20.00 144.97 C 19.81 150.27 19.40 155.78 21.13 160.89 C 22.80 165.41 27.43 167.70 31.61 169.42 C 46.99 175.45 64.14 176.19 78.80 184.21 C 98.09 194.56 114.18 210.58 135.10 217.92 C 146.92 222.36 159.87 223.07 172.29 221.26 C 185.94 218.73 199.02 213.68 211.35 207.35 C 231.97 196.20 252.22 184.18 270.70 169.69 C 276.14 165.67 281.56 161.09 288.25 159.37 C 292.67 158.25 297.25 159.08 301.61 160.04 C 300.58 160.69 299.57 161.36 298.59 162.06 C 295.54 164.22 292.83 166.84 290.63 169.86 C 289.13 171.84 287.75 173.91 286.47 176.03 C 292.37 172.12 298.29 167.82 305.37 166.35 C 311.32 164.80 317.47 165.72 323.41 166.81 C 319.15 171.13 314.09 174.71 310.69 179.83 C 308.38 182.91 306.91 186.51 305.42 190.04 C 302.05 187.85 298.66 185.70 295.15 183.74 C 297.72 186.62 300.41 189.42 302.58 192.64 C 286.33 195.39 270.34 199.77 255.22 206.36 C 235.45 215.06 215.78 224.24 194.95 230.17 C 173.20 236.93 149.71 239.90 127.27 234.84 C 107.97 231.32 91.65 219.03 72.28 215.73 C 57.23 211.95 41.18 212.93 26.40 217.42 C 16.72 220.46 7.32 225.14 0.00 232.29 L 0.00 0.00 Z" />
<path fill="#71d8f4" opacity="1.00" d=" M 322.55 177.35 C 323.88 176.77 325.21 176.19 326.55 175.61 C 323.57 180.50 321.17 185.75 320.21 191.43 C 316.03 191.81 311.83 192.09 307.63 192.25 C 311.05 185.94 316.66 181.26 322.55 177.35 Z" />
<path fill="#71d8f4" opacity="1.00" d=" M 334.00 180.66 C 334.38 180.37 335.13 179.79 335.50 179.50 C 337.05 183.76 338.52 188.05 339.83 192.39 C 335.51 192.30 331.19 191.97 326.91 191.33 C 328.88 187.53 331.31 183.98 334.00 180.66 Z" />
</g>
<g id="#7ce0f7ff">
<path fill="#7ce0f7" opacity="1.00" d=" M 197.33 22.32 C 230.56 13.25 264.52 6.18 298.97 4.13 C 307.60 3.57 316.25 4.27 324.83 5.22 C 336.15 6.34 347.65 9.28 357.02 15.99 C 363.45 20.56 367.74 28.04 368.02 35.98 C 368.89 52.24 363.02 67.85 361.96 83.96 C 361.20 98.62 366.93 112.47 372.12 125.87 C 374.86 132.55 375.38 139.83 375.03 146.97 C 366.99 145.17 358.37 146.44 351.54 151.19 C 350.29 151.49 349.04 151.77 347.78 152.03 C 349.47 149.10 350.77 145.98 352.35 142.99 C 353.01 142.12 353.67 141.24 354.31 140.36 C 358.00 135.40 362.55 131.19 366.85 126.79 C 355.52 130.98 345.80 139.41 340.77 150.48 C 340.21 151.30 339.67 152.12 339.13 152.95 C 336.56 142.40 333.61 131.11 325.15 123.62 C 322.52 120.87 319.46 118.57 316.23 116.57 C 318.55 119.66 321.11 122.61 322.94 126.04 C 326.76 132.91 328.49 140.66 330.38 148.23 C 330.46 148.92 330.63 150.32 330.72 151.02 C 325.58 147.54 320.65 143.57 314.66 141.60 C 309.21 139.56 303.26 138.84 297.53 139.94 C 293.10 140.51 288.78 141.82 284.76 143.75 C 291.52 142.78 298.55 141.53 305.23 143.71 C 311.80 145.37 317.01 149.83 322.15 153.98 C 322.34 154.44 322.73 155.34 322.92 155.80 C 315.58 155.11 308.01 156.20 301.61 160.04 C 297.25 159.08 292.67 158.25 288.25 159.37 C 281.56 161.09 276.14 165.67 270.70 169.69 C 252.22 184.18 231.97 196.20 211.35 207.35 C 199.02 213.68 185.94 218.73 172.29 221.26 C 159.87 223.07 146.92 222.36 135.10 217.92 C 114.18 210.58 98.09 194.56 78.80 184.21 C 64.14 176.19 46.99 175.45 31.61 169.42 C 27.43 167.70 22.80 165.41 21.13 160.89 C 19.40 155.78 19.81 150.27 20.00 144.97 C 20.56 136.99 21.29 129.01 21.11 121.01 C 21.19 109.25 18.28 97.79 16.80 86.19 C 14.31 70.91 13.79 55.01 18.05 39.99 C 20.27 31.81 24.66 23.55 32.41 19.44 C 42.56 13.88 54.57 14.57 65.72 15.35 C 88.74 17.87 111.23 23.69 134.15 26.87 C 143.08 28.11 151.94 30.18 161.01 30.13 C 173.56 30.25 185.38 25.49 197.33 22.32 M 72.08 35.07 C 72.03 38.98 71.99 42.90 71.98 46.81 C 65.47 46.96 59.33 51.61 57.59 57.91 C 57.04 59.37 57.03 61.17 55.86 62.32 C 52.33 62.68 48.78 62.45 45.25 62.41 C 45.25 62.70 45.26 63.27 45.26 63.55 C 48.83 63.50 52.40 63.32 55.97 63.59 C 57.42 67.21 58.46 71.02 60.68 74.29 C 58.94 76.18 57.18 78.07 55.73 80.21 C 57.80 78.75 59.63 77.01 61.41 75.22 C 64.79 77.45 68.74 78.46 72.39 80.08 C 72.68 83.63 72.49 87.19 72.44 90.74 C 72.73 90.74 73.29 90.75 73.58 90.75 C 73.53 87.20 73.34 83.64 73.63 80.09 C 77.29 78.49 81.21 77.41 84.61 75.21 C 86.39 77.00 88.22 78.74 90.28 80.20 C 88.83 78.04 87.05 76.14 85.28 74.23 C 86.27 72.54 87.22 70.83 88.15 69.10 C 88.86 67.49 89.08 65.72 89.15 63.99 C 93.32 63.67 98.17 65.20 101.70 62.39 C 97.53 61.82 93.32 61.93 89.12 61.95 C 89.01 53.96 82.06 46.94 74.05 46.82 C 74.04 42.89 74.01 38.96 73.95 35.03 C 73.49 35.04 72.55 35.06 72.08 35.07 M 55.77 45.63 C 57.06 47.73 58.85 49.50 61.02 50.68 C 59.64 48.65 57.85 46.93 55.77 45.63 M 85.00 50.70 C 87.18 49.53 88.97 47.77 90.26 45.66 C 88.18 46.96 86.39 48.68 85.00 50.70 M 237.05 48.88 C 239.99 49.84 242.83 51.10 245.31 52.97 C 246.88 51.96 248.47 50.98 250.01 49.93 C 248.40 50.47 246.82 51.07 245.24 51.70 C 242.69 50.29 239.93 49.33 237.05 48.88 M 282.99 62.75 C 285.01 64.21 287.06 65.64 289.04 67.15 C 290.97 65.65 292.94 64.20 294.93 62.76 C 292.92 63.28 290.97 63.94 289.00 64.56 C 287.01 63.91 285.01 63.29 282.99 62.75 M 154.99 69.98 C 151.94 74.04 147.44 76.70 144.55 80.90 C 146.40 83.41 147.76 87.04 151.28 87.48 C 154.59 88.22 157.67 89.62 160.64 91.22 C 164.07 93.20 167.72 90.62 170.89 89.34 C 174.11 90.49 177.80 93.00 181.19 91.09 C 184.44 89.07 187.53 86.78 190.66 84.58 C 192.68 83.16 194.77 80.39 193.12 77.95 C 191.83 74.93 188.32 74.37 185.66 73.12 C 182.42 71.94 180.16 69.12 177.05 67.73 C 173.90 66.79 170.80 68.41 167.86 69.36 C 163.84 67.80 158.19 65.84 154.99 69.98 M 207.51 98.45 C 203.45 100.95 199.41 103.61 195.97 106.92 C 200.26 111.24 206.65 111.04 212.07 112.91 C 215.95 114.41 219.73 111.39 223.65 112.24 C 226.36 112.52 229.13 113.52 231.83 112.70 C 236.53 111.29 240.92 108.96 244.88 106.07 C 243.05 103.98 240.84 102.18 237.98 101.83 C 234.14 101.23 231.08 98.64 227.45 97.50 C 223.84 97.34 220.29 98.73 216.68 98.11 C 213.66 97.88 210.26 96.55 207.51 98.45 Z" />
</g>
<g id="#b9c4a0ff">
<path fill="#b9c4a0" opacity="1.00" d=" M 72.08 35.07 C 72.55 35.06 73.49 35.04 73.95 35.03 C 74.01 38.96 74.04 42.89 74.05 46.82 C 73.54 46.82 72.50 46.81 71.98 46.81 C 71.99 42.90 72.03 38.98 72.08 35.07 Z" />
</g>
<g id="#f4a94dff">
<path fill="#f4a94d" opacity="1.00" d=" M 55.77 45.63 C 57.85 46.93 59.64 48.65 61.02 50.68 C 58.85 49.50 57.06 47.73 55.77 45.63 Z" />
<path fill="#f4a94d" opacity="1.00" d=" M 85.00 50.70 C 86.39 48.68 88.18 46.96 90.26 45.66 C 88.97 47.77 87.18 49.53 85.00 50.70 Z" />
<path fill="#f4a94d" opacity="1.00" d=" M 55.86 62.32 C 57.03 61.17 57.04 59.37 57.59 57.91 C 57.90 61.08 58.35 64.33 59.80 67.21 C 62.96 73.45 70.59 77.01 77.40 75.44 C 81.55 74.51 85.04 71.87 88.15 69.10 C 87.22 70.83 86.27 72.54 85.28 74.23 C 87.05 76.14 88.83 78.04 90.28 80.20 C 88.22 78.74 86.39 77.00 84.61 75.21 C 81.21 77.41 77.29 78.49 73.63 80.09 C 73.34 83.64 73.53 87.20 73.58 90.75 C 73.29 90.75 72.73 90.74 72.44 90.74 C 72.49 87.19 72.68 83.63 72.39 80.08 C 68.74 78.46 64.79 77.45 61.41 75.22 C 59.63 77.01 57.80 78.75 55.73 80.21 C 57.18 78.07 58.94 76.18 60.68 74.29 C 58.46 71.02 57.42 67.21 55.97 63.59 C 52.40 63.32 48.83 63.50 45.26 63.55 C 45.26 63.27 45.25 62.70 45.25 62.41 C 48.78 62.45 52.33 62.68 55.86 62.32 Z" />
</g>
<g id="#f7da4bff">
<path fill="#f7da4b" opacity="1.00" d=" M 57.59 57.91 C 59.33 51.61 65.47 46.96 71.98 46.81 C 72.50 46.81 73.54 46.82 74.05 46.82 C 82.06 46.94 89.01 53.96 89.12 61.95 C 89.13 62.46 89.14 63.48 89.15 63.99 C 89.08 65.72 88.86 67.49 88.15 69.10 C 85.04 71.87 81.55 74.51 77.40 75.44 C 70.59 77.01 62.96 73.45 59.80 67.21 C 58.35 64.33 57.90 61.08 57.59 57.91 Z" />
</g>
<g id="#4c2f23ff">
<path fill="#4c2f23" opacity="1.00" d=" M 237.05 48.88 C 239.93 49.33 242.69 50.29 245.24 51.70 C 246.82 51.07 248.40 50.47 250.01 49.93 C 248.47 50.98 246.88 51.96 245.31 52.97 C 242.83 51.10 239.99 49.84 237.05 48.88 Z" />
<path fill="#4c2f23" opacity="1.00" d=" M 335.50 179.50 C 337.28 178.81 339.09 178.22 340.95 177.79 C 347.91 193.36 352.60 209.89 355.33 226.71 C 358.43 243.27 358.59 260.23 357.48 277.00 L 346.27 277.00 C 346.86 271.87 347.09 266.72 347.16 261.56 C 347.96 240.44 346.62 219.08 341.42 198.53 C 340.92 196.48 340.41 194.42 339.83 192.39 C 338.52 188.05 337.05 183.76 335.50 179.50 Z" />
<path fill="#4c2f23" opacity="1.00" d=" M 318.51 222.40 C 320.58 222.18 322.66 222.07 324.75 222.13 C 331.83 235.18 336.94 249.30 339.65 263.91 C 340.31 268.27 340.90 272.65 341.69 277.00 L 332.24 277.00 C 331.86 272.93 331.31 268.88 330.94 264.81 C 330.65 262.06 330.11 259.35 329.55 256.65 C 327.44 244.79 323.95 233.17 318.51 222.40 Z" />
</g>
<g id="#b9c4a1ff">
<path fill="#b9c4a1" opacity="1.00" d=" M 89.12 61.95 C 93.32 61.93 97.53 61.82 101.70 62.39 C 98.17 65.20 93.32 63.67 89.15 63.99 C 89.14 63.48 89.13 62.46 89.12 61.95 Z" />
</g>
<g id="#538f9cff">
<path fill="#538f9c" opacity="1.00" d=" M 282.99 62.75 C 285.01 63.29 287.01 63.91 289.00 64.56 C 290.97 63.94 292.92 63.28 294.93 62.76 C 292.94 64.20 290.97 65.65 289.04 67.15 C 287.06 65.64 285.01 64.21 282.99 62.75 Z" />
</g>
<g id="#92edfcff">
<path fill="#92edfc" opacity="1.00" d=" M 154.99 69.98 C 158.19 65.84 163.84 67.80 167.86 69.36 C 170.80 68.41 173.90 66.79 177.05 67.73 C 180.16 69.12 182.42 71.94 185.66 73.12 C 188.32 74.37 191.83 74.93 193.12 77.95 C 194.77 80.39 192.68 83.16 190.66 84.58 C 187.53 86.78 184.44 89.07 181.19 91.09 C 177.80 93.00 174.11 90.49 170.89 89.34 C 167.72 90.62 164.07 93.20 160.64 91.22 C 157.67 89.62 154.59 88.22 151.28 87.48 C 147.76 87.04 146.40 83.41 144.55 80.90 C 147.44 76.70 151.94 74.04 154.99 69.98 Z" />
<path fill="#92edfc" opacity="1.00" d=" M 207.51 98.45 C 210.26 96.55 213.66 97.88 216.68 98.11 C 220.29 98.73 223.84 97.34 227.45 97.50 C 231.08 98.64 234.14 101.23 237.98 101.83 C 240.84 102.18 243.05 103.98 244.88 106.07 C 240.92 108.96 236.53 111.29 231.83 112.70 C 229.13 113.52 226.36 112.52 223.65 112.24 C 219.73 111.39 215.95 114.41 212.07 112.91 C 206.65 111.04 200.26 111.24 195.97 106.92 C 199.41 103.61 203.45 100.95 207.51 98.45 Z" />
</g>
<g id="#438e20ff">
<path fill="#438e20" opacity="1.00" d=" M 316.23 116.57 C 319.46 118.57 322.52 120.87 325.15 123.62 C 327.28 131.73 330.61 139.69 330.38 148.23 C 328.49 140.66 326.76 132.91 322.94 126.04 C 321.11 122.61 318.55 119.66 316.23 116.57 Z" />
<path fill="#438e20" opacity="1.00" d=" M 340.77 150.48 C 345.80 139.41 355.52 130.98 366.85 126.79 C 362.55 131.19 358.00 135.40 354.31 140.36 C 355.18 138.39 355.92 136.38 356.70 134.37 C 349.99 138.23 345.58 144.65 340.77 150.48 Z" />
<path fill="#438e20" opacity="1.00" d=" M 314.92 208.66 C 316.13 207.37 317.37 206.11 318.58 204.82 C 318.42 206.56 318.27 208.30 318.11 210.04 C 319.12 209.28 320.15 208.52 321.17 207.77 C 322.29 209.15 323.30 210.68 324.73 211.79 C 328.12 212.90 331.77 212.70 335.26 213.32 C 334.84 213.47 334.01 213.77 333.59 213.92 C 330.88 213.96 328.17 214.01 325.50 214.44 C 322.61 215.40 319.86 216.72 317.06 217.91 C 322.78 219.77 329.14 220.29 333.95 224.26 C 330.94 223.33 327.87 222.56 324.75 222.13 C 322.66 222.07 320.58 222.18 318.51 222.40 C 316.63 223.40 314.88 224.66 313.41 226.22 C 312.95 223.55 312.65 220.86 312.43 218.17 C 311.14 219.64 309.96 221.22 308.55 222.57 C 308.67 220.99 309.00 219.43 309.17 217.85 C 306.50 220.99 303.38 223.84 299.44 225.24 C 301.31 222.37 303.61 219.81 305.67 217.07 C 301.15 217.14 296.45 217.27 292.30 219.27 C 288.14 221.14 284.97 224.50 281.44 227.27 C 282.11 225.73 282.79 224.18 283.63 222.71 C 289.67 218.31 296.86 216.04 304.25 215.32 C 306.41 214.90 308.33 213.74 310.26 212.73 C 307.75 211.80 305.24 210.87 302.69 210.07 L 303.88 210.00 C 306.82 209.90 309.75 209.96 312.69 210.03 C 311.85 208.61 311.03 207.19 310.21 205.77 C 311.78 206.73 313.35 207.69 314.92 208.66 Z" />
</g>
<g id="#71c452ff">
<path fill="#71c452" opacity="1.00" d=" M 325.15 123.62 C 333.61 131.11 336.56 142.40 339.13 152.95 C 339.67 152.12 340.21 151.30 340.77 150.48 C 345.58 144.65 349.99 138.23 356.70 134.37 C 355.92 136.38 355.18 138.39 354.31 140.36 C 353.67 141.24 353.01 142.12 352.35 142.99 C 346.28 146.44 342.00 152.16 339.60 158.64 C 339.43 158.98 339.09 159.66 338.92 160.01 C 338.69 158.94 338.45 157.88 338.21 156.82 C 337.25 152.71 335.48 148.86 333.79 145.01 C 333.19 147.18 333.24 150.13 330.72 151.02 C 330.63 150.32 330.46 148.92 330.38 148.23 C 330.61 139.69 327.28 131.73 325.15 123.62 Z" />
<path fill="#71c452" opacity="1.00" d=" M 351.43 161.35 C 359.51 161.00 367.29 164.38 372.84 170.19 C 372.45 170.42 371.68 170.87 371.29 171.09 C 367.86 169.34 364.61 167.23 360.98 165.93 C 357.65 164.73 354.39 163.30 351.43 161.35 Z" />
</g>
<g id="#73c856ff">
<path fill="#73c856" opacity="1.00" d=" M 297.53 139.94 C 303.26 138.84 309.21 139.56 314.66 141.60 C 318.54 147.76 324.30 152.54 331.27 154.79 C 328.49 154.58 325.70 154.44 322.93 154.10 C 316.88 146.01 307.35 141.44 297.53 139.94 Z" />
</g>
<g id="#398217ff">
<path fill="#398217" opacity="1.00" d=" M 284.76 143.75 C 288.78 141.82 293.10 140.51 297.53 139.94 C 307.35 141.44 316.88 146.01 322.93 154.10 L 322.15 153.98 C 317.01 149.83 311.80 145.37 305.23 143.71 C 298.55 141.53 291.52 142.78 284.76 143.75 Z" />
</g>
<g id="#56a532ff">
<path fill="#56a532" opacity="1.00" d=" M 331.27 154.79 C 324.30 152.54 318.54 147.76 314.66 141.60 C 320.65 143.57 325.58 147.54 330.72 151.02 C 333.24 150.13 333.19 147.18 333.79 145.01 C 335.48 148.86 337.25 152.71 338.21 156.82 C 336.82 155.53 335.44 154.24 334.06 152.96 C 334.76 155.45 335.49 157.93 336.23 160.40 C 332.79 159.04 329.24 158.01 325.61 157.33 C 328.11 158.60 330.67 159.76 333.21 160.94 C 330.52 162.55 327.81 164.32 324.69 164.99 C 322.42 165.27 320.21 164.50 318.03 163.99 C 311.88 161.29 305.11 161.91 298.59 162.06 C 299.57 161.36 300.58 160.69 301.61 160.04 C 308.01 156.20 315.58 155.11 322.92 155.80 C 322.73 155.34 322.34 154.44 322.15 153.98 L 322.93 154.10 C 325.70 154.44 328.49 154.58 331.27 154.79 Z" />
<path fill="#56a532" opacity="1.00" d=" M 333.54 177.59 C 335.00 174.75 335.60 169.39 339.86 170.00 C 344.00 171.37 347.60 173.89 351.05 176.50 C 345.19 175.85 339.28 176.30 333.54 177.59 Z" />
<path fill="#56a532" opacity="1.00" d=" M 289.60 215.17 C 293.35 212.24 297.86 210.12 302.69 210.07 C 305.24 210.87 307.75 211.80 310.26 212.73 C 308.33 213.74 306.41 214.90 304.25 215.32 C 299.37 215.55 294.48 215.32 289.60 215.17 Z" />
</g>
<g id="#55a431ff">
<path fill="#55a431" opacity="1.00" d=" M 339.60 158.64 C 342.00 152.16 346.28 146.44 352.35 142.99 C 350.77 145.98 349.47 149.10 347.78 152.03 C 346.69 153.59 345.47 155.05 344.38 156.61 C 342.76 157.23 341.15 157.88 339.60 158.64 Z" />
</g>
<g id="#57a734ff">
<path fill="#57a734" opacity="1.00" d=" M 351.54 151.19 C 358.37 146.44 366.99 145.17 375.03 146.97 C 375.56 147.08 376.62 147.30 377.15 147.41 C 371.91 148.56 366.42 149.06 361.60 151.58 C 357.99 153.32 355.02 156.06 352.23 158.88 C 357.77 160.34 363.80 160.92 368.58 164.37 C 373.31 167.63 376.30 172.73 378.51 177.91 C 375.53 176.04 372.70 173.94 369.80 171.95 C 370.17 171.73 370.92 171.30 371.29 171.09 C 371.68 170.87 372.45 170.42 372.84 170.19 C 367.29 164.38 359.51 161.00 351.43 161.35 C 354.39 163.30 357.65 164.73 360.98 165.93 C 356.53 165.12 352.07 166.09 347.79 167.26 C 348.23 167.41 349.10 167.69 349.54 167.83 L 350.33 168.19 C 348.48 168.64 349.19 170.82 350.90 170.63 C 349.70 170.68 348.50 170.68 347.31 170.66 C 345.96 169.29 344.63 167.91 343.29 166.53 C 344.54 165.91 345.79 165.28 347.05 164.66 C 345.82 164.35 344.61 164.03 343.39 163.71 C 344.17 162.35 344.95 160.99 345.72 159.62 C 345.15 159.62 344.00 159.62 343.43 159.62 C 349.71 156.23 356.50 153.70 361.99 148.99 C 358.53 149.81 355.04 150.53 351.54 151.19 Z" />
</g>
<g id="#6dbf51ff">
<path fill="#6dbf51" opacity="1.00" d=" M 351.54 151.19 C 355.04 150.53 358.53 149.81 361.99 148.99 C 356.50 153.70 349.71 156.23 343.43 159.62 L 342.40 159.64 C 343.04 158.62 343.70 157.61 344.38 156.61 C 345.47 155.05 346.69 153.59 347.78 152.03 C 349.04 151.77 350.29 151.49 351.54 151.19 Z" />
</g>
<g id="#3a8318ff">
<path fill="#3a8318" opacity="1.00" d=" M 334.06 152.96 C 335.44 154.24 336.82 155.53 338.21 156.82 C 338.45 157.88 338.69 158.94 338.92 160.01 C 339.09 159.66 339.43 158.98 339.60 158.64 C 341.15 157.88 342.76 157.23 344.38 156.61 C 343.70 157.61 343.04 158.62 342.40 159.64 L 343.43 159.62 C 344.00 159.62 345.15 159.62 345.72 159.62 C 344.95 160.99 344.17 162.35 343.39 163.71 C 344.61 164.03 345.82 164.35 347.05 164.66 C 345.79 165.28 344.54 165.91 343.29 166.53 C 344.63 167.91 345.96 169.29 347.31 170.66 C 344.82 170.48 342.35 170.16 339.86 170.00 C 335.60 169.39 335.00 174.75 333.54 177.59 C 339.28 176.30 345.19 175.85 351.05 176.50 C 358.38 176.99 362.82 183.96 369.62 186.01 C 366.23 179.58 360.05 175.63 354.23 171.67 C 354.63 171.81 355.44 172.08 355.84 172.22 C 365.26 175.45 371.44 184.03 375.91 192.48 C 365.89 186.34 356.06 178.16 343.76 177.74 C 343.06 177.75 341.65 177.78 340.95 177.79 C 339.09 178.22 337.28 178.81 335.50 179.50 C 335.13 179.79 334.38 180.37 334.00 180.66 C 331.75 176.80 332.77 172.47 334.43 168.63 C 331.85 171.01 329.22 173.34 326.55 175.61 C 325.21 176.19 323.88 176.77 322.55 177.35 C 326.52 173.85 330.19 170.01 333.34 165.75 C 330.03 166.07 326.73 166.56 323.41 166.81 C 317.47 165.72 311.32 164.80 305.37 166.35 C 298.29 167.82 292.37 172.12 286.47 176.03 C 287.75 173.91 289.13 171.84 290.63 169.86 C 294.82 168.40 298.85 166.52 303.11 165.23 C 307.93 163.78 313.04 163.66 318.03 163.99 C 320.21 164.50 322.42 165.27 324.69 164.99 C 327.81 164.32 330.52 162.55 333.21 160.94 C 330.67 159.76 328.11 158.60 325.61 157.33 C 329.24 158.01 332.79 159.04 336.23 160.40 C 335.49 157.93 334.76 155.45 334.06 152.96 Z" />
</g>
<g id="#74c856ff">
<path fill="#74c856" opacity="1.00" d=" M 290.63 169.86 C 292.83 166.84 295.54 164.22 298.59 162.06 C 305.11 161.91 311.88 161.29 318.03 163.99 C 313.04 163.66 307.93 163.78 303.11 165.23 C 298.85 166.52 294.82 168.40 290.63 169.86 Z" />
</g>
<g id="#57a633ff">
<path fill="#57a633" opacity="1.00" d=" M 323.41 166.81 C 326.73 166.56 330.03 166.07 333.34 165.75 C 330.19 170.01 326.52 173.85 322.55 177.35 C 316.66 181.26 311.05 185.94 307.63 192.25 C 306.69 193.97 305.86 195.73 304.98 197.49 C 304.37 198.72 303.76 199.96 303.18 201.21 L 303.28 200.19 C 303.49 197.65 303.80 194.98 302.58 192.64 C 300.41 189.42 297.72 186.62 295.15 183.74 C 298.66 185.70 302.05 187.85 305.42 190.04 C 310.32 184.98 315.49 180.19 320.96 175.74 C 317.51 177.03 314.04 178.28 310.69 179.83 C 314.09 174.71 319.15 171.13 323.41 166.81 Z" />
</g>
<g id="#428d25ff">
<path fill="#428d25" opacity="1.00" d=" M 347.79 167.26 C 352.07 166.09 356.53 165.12 360.98 165.93 C 364.61 167.23 367.86 169.34 371.29 171.09 C 370.92 171.30 370.17 171.73 369.80 171.95 C 366.44 170.14 362.97 168.31 359.15 167.77 C 355.95 167.42 352.74 167.68 349.54 167.83 C 349.10 167.69 348.23 167.41 347.79 167.26 Z" />
</g>
<g id="#73c654ff">
<path fill="#73c654" opacity="1.00" d=" M 349.54 167.83 C 352.74 167.68 355.95 167.42 359.15 167.77 C 357.40 167.74 355.61 167.43 353.89 167.80 C 354.03 169.42 355.30 170.70 355.84 172.22 C 355.44 172.08 354.63 171.81 354.23 171.67 C 360.05 175.63 366.23 179.58 369.62 186.01 C 362.82 183.96 358.38 176.99 351.05 176.50 C 347.60 173.89 344.00 171.37 339.86 170.00 C 342.35 170.16 344.82 170.48 347.31 170.66 C 348.50 170.68 349.70 170.68 350.90 170.63 C 351.81 169.61 351.62 168.80 350.33 168.19 L 349.54 167.83 Z" />
</g>
<g id="#65b646ff">
<path fill="#65b646" opacity="1.00" d=" M 326.55 175.61 C 329.22 173.34 331.85 171.01 334.43 168.63 C 332.77 172.47 331.75 176.80 334.00 180.66 C 331.31 183.98 328.88 187.53 326.91 191.33 C 325.31 194.71 324.32 198.34 323.43 201.97 C 328.28 199.19 333.80 197.00 339.47 198.32 C 333.40 199.78 327.76 203.06 324.14 208.24 C 327.55 208.72 331.03 208.82 334.36 209.77 C 338.70 211.13 341.63 214.87 344.21 218.39 C 340.58 217.11 337.10 215.47 333.59 213.92 C 334.01 213.77 334.84 213.47 335.26 213.32 C 331.77 212.70 328.12 212.90 324.73 211.79 C 323.30 210.68 322.29 209.15 321.17 207.77 C 320.15 208.52 319.12 209.28 318.11 210.04 C 318.27 208.30 318.42 206.56 318.58 204.82 C 317.37 206.11 316.13 207.37 314.92 208.66 C 313.35 207.69 311.78 206.73 310.21 205.77 C 311.03 207.19 311.85 208.61 312.69 210.03 C 309.75 209.96 306.82 209.90 303.88 210.00 C 301.36 207.89 298.60 206.03 295.49 204.90 C 289.29 202.55 282.71 204.07 276.56 205.67 C 283.74 200.35 293.19 199.55 301.60 202.04 C 302.02 201.58 302.86 200.65 303.28 200.19 L 303.18 201.21 C 303.04 201.65 302.75 202.52 302.60 202.96 C 304.54 203.81 306.48 204.64 308.44 205.45 C 307.41 202.74 306.27 200.08 304.98 197.49 C 305.86 195.73 306.69 193.97 307.63 192.25 C 310.13 196.74 312.47 201.33 314.45 206.07 C 316.14 201.10 318.86 196.52 320.21 191.43 C 321.17 185.75 323.57 180.50 326.55 175.61 Z" />
</g>
<g id="#69c9bbff">
<path fill="#69c9bb" opacity="1.00" d=" M 350.90 170.63 C 349.19 170.82 348.48 168.64 350.33 168.19 C 351.62 168.80 351.81 169.61 350.90 170.63 Z" />
</g>
<g id="#71c559ff">
<path fill="#71c559" opacity="1.00" d=" M 310.69 179.83 C 314.04 178.28 317.51 177.03 320.96 175.74 C 315.49 180.19 310.32 184.98 305.42 190.04 C 306.91 186.51 308.38 182.91 310.69 179.83 Z" />
</g>
<g id="#674132ff">
<path fill="#674132" opacity="1.00" d=" M 340.95 177.79 C 341.65 177.78 343.06 177.75 343.76 177.74 C 345.90 183.76 348.64 189.56 350.49 195.68 C 351.24 198.10 352.00 200.52 352.74 202.95 C 357.32 218.03 359.69 233.72 360.59 249.44 C 360.79 253.02 360.86 256.61 360.93 260.20 C 360.99 265.80 360.58 271.40 360.35 277.00 L 357.48 277.00 C 358.59 260.23 358.43 243.27 355.33 226.71 C 352.60 209.89 347.91 193.36 340.95 177.79 Z" />
</g>
<g id="#a0f6feff">
<path fill="#a0f6fe" opacity="1.00" d=" M 307.63 192.25 C 311.83 192.09 316.03 191.81 320.21 191.43 C 318.86 196.52 316.14 201.10 314.45 206.07 C 312.47 201.33 310.13 196.74 307.63 192.25 Z" />
</g>
<g id="#9ff6feff">
<path fill="#9ff6fe" opacity="1.00" d=" M 326.91 191.33 C 331.19 191.97 335.51 192.30 339.83 192.39 C 340.41 194.42 340.92 196.48 341.42 198.53 C 340.93 198.48 339.96 198.37 339.47 198.32 C 333.80 197.00 328.28 199.19 323.43 201.97 C 324.32 198.34 325.31 194.71 326.91 191.33 Z" />
</g>
<g id="#a1f6ffff">
<path fill="#a1f6ff" opacity="1.00" d=" M 255.22 206.36 C 270.34 199.77 286.33 195.39 302.58 192.64 C 303.80 194.98 303.49 197.65 303.28 200.19 C 302.86 200.65 302.02 201.58 301.60 202.04 C 293.19 199.55 283.74 200.35 276.56 205.67 C 282.71 204.07 289.29 202.55 295.49 204.90 C 285.63 211.16 273.65 210.64 262.55 212.52 C 256.02 213.61 250.49 217.44 245.17 221.13 C 232.82 229.79 218.49 235.24 203.92 238.84 C 189.99 242.41 175.53 242.41 161.27 243.31 C 152.19 244.03 143.06 244.07 133.96 243.85 C 123.33 243.57 113.02 240.54 103.14 236.81 C 95.67 234.15 87.51 231.29 79.57 233.56 C 71.15 236.40 65.56 244.21 57.14 247.08 C 47.73 250.59 37.68 247.74 28.00 247.67 C 22.52 247.58 16.07 247.68 12.18 252.18 C 8.83 255.78 10.17 261.06 10.38 265.47 C 8.98 264.63 7.18 264.04 6.38 262.52 C 5.65 257.37 7.48 252.22 6.89 247.06 C 6.52 242.68 4.47 238.60 4.36 234.20 C 5.10 231.38 7.81 229.67 10.02 228.02 C 21.90 220.24 35.97 216.24 50.05 215.20 C 57.46 214.79 64.87 215.56 72.28 215.73 C 91.65 219.03 107.97 231.32 127.27 234.84 C 149.71 239.90 173.20 236.93 194.95 230.17 C 215.78 224.24 235.45 215.06 255.22 206.36 M 33.15 230.64 C 29.27 230.51 25.46 231.86 22.79 234.73 C 28.33 233.91 34.09 232.39 39.58 234.37 C 48.16 237.01 57.13 242.22 66.27 238.63 C 61.82 237.90 57.27 237.51 52.98 236.04 C 46.50 233.87 40.13 230.70 33.15 230.64 Z" />
<path fill="#a1f6ff" opacity="1.00" d=" M 350.49 195.68 C 361.76 196.35 371.74 202.24 382.00 206.37 L 382.00 244.63 C 379.72 248.90 376.77 252.98 372.69 255.70 C 369.16 258.07 364.98 259.11 360.93 260.20 C 360.86 256.61 360.79 253.02 360.59 249.44 C 366.81 248.41 373.90 248.31 378.85 243.88 C 382.26 240.96 380.52 236.18 379.45 232.58 C 377.44 226.94 375.97 221.06 373.25 215.70 C 369.14 208.24 360.74 204.56 352.74 202.95 C 352.00 200.52 351.24 198.10 350.49 195.68 Z" />
<path fill="#a1f6ff" opacity="1.00" d=" M 291.59 264.49 C 304.49 263.32 317.12 260.16 329.55 256.65 C 330.11 259.35 330.65 262.06 330.94 264.81 C 322.95 265.86 315.14 268.51 307.00 268.21 C 298.21 267.91 289.45 266.97 280.74 265.81 C 284.36 265.43 287.96 264.86 291.59 264.49 Z" />
<path fill="#a1f6ff" opacity="1.00" d=" M 163.96 269.14 C 194.71 267.65 225.46 264.86 256.27 266.27 C 251.57 266.91 246.90 267.73 242.19 268.25 C 226.82 270.07 211.55 273.41 196.00 273.17 C 174.78 273.13 153.56 272.77 132.34 272.63 C 119.22 273.13 106.09 272.98 93.00 272.11 C 86.46 271.94 80.04 270.70 73.71 269.15 C 89.18 268.40 104.53 271.24 120.00 271.10 C 134.67 271.09 149.31 269.81 163.96 269.14 Z" />
</g>
<g id="#a5f1edff">
<path fill="#a5f1ed" opacity="1.00" d=" M 303.18 201.21 C 303.76 199.96 304.37 198.72 304.98 197.49 C 306.27 200.08 307.41 202.74 308.44 205.45 C 306.48 204.64 304.54 203.81 302.60 202.96 C 302.75 202.52 303.04 201.65 303.18 201.21 Z" />
</g>
<g id="#b3fbffff">
<path fill="#b3fbff" opacity="1.00" d=" M 324.14 208.24 C 327.76 203.06 333.40 199.78 339.47 198.32 C 339.96 198.37 340.93 198.48 341.42 198.53 C 346.62 219.08 347.96 240.44 347.16 261.56 C 344.54 261.88 341.73 262.10 339.65 263.91 C 336.94 249.30 331.83 235.18 324.75 222.13 C 327.87 222.56 330.94 223.33 333.95 224.26 C 337.03 225.98 340.30 227.33 343.65 228.43 C 341.97 226.12 340.25 223.80 338.04 221.97 C 334.29 218.77 329.34 217.51 325.50 214.44 C 328.17 214.01 330.88 213.96 333.59 213.92 C 337.10 215.47 340.58 217.11 344.21 218.39 C 341.63 214.87 338.70 211.13 334.36 209.77 C 331.03 208.82 327.55 208.72 324.14 208.24 Z" />
<path fill="#b3fbff" opacity="1.00" d=" M 352.74 202.95 C 360.74 204.56 369.14 208.24 373.25 215.70 C 375.97 221.06 377.44 226.94 379.45 232.58 C 380.52 236.18 382.26 240.96 378.85 243.88 C 373.90 248.31 366.81 248.41 360.59 249.44 C 359.69 233.72 357.32 218.03 352.74 202.95 Z" />
<path fill="#b3fbff" opacity="1.00" d=" M 295.49 204.90 C 298.60 206.03 301.36 207.89 303.88 210.00 L 302.69 210.07 C 297.86 210.12 293.35 212.24 289.60 215.17 C 287.13 217.26 285.18 219.89 283.63 222.71 C 282.79 224.18 282.11 225.73 281.44 227.27 C 284.97 224.50 288.14 221.14 292.30 219.27 C 296.45 217.27 301.15 217.14 305.67 217.07 C 303.61 219.81 301.31 222.37 299.44 225.24 C 295.93 230.55 295.51 237.10 294.97 243.25 C 296.95 238.58 298.25 233.51 301.41 229.45 C 303.47 226.86 306.00 224.68 308.62 222.67 C 304.19 231.55 306.02 241.82 310.35 250.33 C 308.83 242.18 309.45 233.62 313.41 226.22 C 314.88 224.66 316.63 223.40 318.51 222.40 C 323.95 233.17 327.44 244.79 329.55 256.65 C 317.12 260.16 304.49 263.32 291.59 264.49 C 287.96 264.86 284.36 265.43 280.74 265.81 C 272.58 265.90 264.42 265.85 256.27 266.27 C 225.46 264.86 194.71 267.65 163.96 269.14 C 149.31 269.81 134.67 271.09 120.00 271.10 C 104.53 271.24 89.18 268.40 73.71 269.15 C 65.80 267.83 57.78 266.90 49.75 267.57 C 36.60 268.56 23.32 268.09 10.38 265.47 C 10.17 261.06 8.83 255.78 12.18 252.18 C 16.07 247.68 22.52 247.58 28.00 247.67 C 37.68 247.74 47.73 250.59 57.14 247.08 C 65.56 244.21 71.15 236.40 79.57 233.56 C 87.51 231.29 95.67 234.15 103.14 236.81 C 113.02 240.54 123.33 243.57 133.96 243.85 C 143.06 244.07 152.19 244.03 161.27 243.31 C 175.53 242.41 189.99 242.41 203.92 238.84 C 218.49 235.24 232.82 229.79 245.17 221.13 C 250.49 217.44 256.02 213.61 262.55 212.52 C 273.65 210.64 285.63 211.16 295.49 204.90 Z" />
</g>
<g id="#83f6fcff">
<path fill="#83f6fc" opacity="1.00" d=" M 26.40 217.42 C 41.18 212.93 57.23 211.95 72.28 215.73 C 64.87 215.56 57.46 214.79 50.05 215.20 C 35.97 216.24 21.90 220.24 10.02 228.02 C 7.81 229.67 5.10 231.38 4.36 234.20 C 4.47 238.60 6.52 242.68 6.89 247.06 C 7.48 252.22 5.65 257.37 6.38 262.52 C 7.18 264.04 8.98 264.63 10.38 265.47 C 23.32 268.09 36.60 268.56 49.75 267.57 C 57.78 266.90 65.80 267.83 73.71 269.15 C 80.04 270.70 86.46 271.94 93.00 272.11 C 106.09 272.98 119.22 273.13 132.34 272.63 C 153.56 272.77 174.78 273.13 196.00 273.17 C 211.55 273.41 226.82 270.07 242.19 268.25 C 246.90 267.73 251.57 266.91 256.27 266.27 C 264.42 265.85 272.58 265.90 280.74 265.81 C 289.45 266.97 298.21 267.91 307.00 268.21 C 315.14 268.51 322.95 265.86 330.94 264.81 C 331.31 268.88 331.86 272.93 332.24 277.00 L 0.00 277.00 L 0.00 232.29 C 7.32 225.14 16.72 220.46 26.40 217.42 Z" />
<path fill="#83f6fc" opacity="1.00" d=" M 372.69 255.70 C 376.77 252.98 379.72 248.90 382.00 244.63 L 382.00 277.00 L 360.35 277.00 C 360.58 271.40 360.99 265.80 360.93 260.20 C 364.98 259.11 369.16 258.07 372.69 255.70 Z" />
<path fill="#83f6fc" opacity="1.00" d=" M 339.65 263.91 C 341.73 262.10 344.54 261.88 347.16 261.56 C 347.09 266.72 346.86 271.87 346.27 277.00 L 341.69 277.00 C 340.90 272.65 340.31 268.27 339.65 263.91 Z" />
</g>
<g id="#70c353ff">
<path fill="#70c353" opacity="1.00" d=" M 317.06 217.91 C 319.86 216.72 322.61 215.40 325.50 214.44 C 329.34 217.51 334.29 218.77 338.04 221.97 C 340.25 223.80 341.97 226.12 343.65 228.43 C 340.30 227.33 337.03 225.98 333.95 224.26 C 329.14 220.29 322.78 219.77 317.06 217.91 Z" />
</g>
<g id="#6fc254ff">
<path fill="#6fc254" opacity="1.00" d=" M 283.63 222.71 C 285.18 219.89 287.13 217.26 289.60 215.17 C 294.48 215.32 299.37 215.55 304.25 215.32 C 296.86 216.04 289.67 218.31 283.63 222.71 Z" />
</g>
<g id="#6abd4aff">
<path fill="#6abd4a" opacity="1.00" d=" M 299.44 225.24 C 303.38 223.84 306.50 220.99 309.17 217.85 C 309.00 219.43 308.67 220.99 308.55 222.57 C 309.96 221.22 311.14 219.64 312.43 218.17 C 312.65 220.86 312.95 223.55 313.41 226.22 C 309.45 233.62 308.83 242.18 310.35 250.33 C 306.02 241.82 304.19 231.55 308.62 222.67 C 306.00 224.68 303.47 226.86 301.41 229.45 C 298.25 233.51 296.95 238.58 294.97 243.25 C 295.51 237.10 295.93 230.55 299.44 225.24 Z" />
</g>
<g id="#bffdffff">
<path fill="#bffdff" opacity="1.00" d=" M 33.15 230.64 C 40.13 230.70 46.50 233.87 52.98 236.04 C 57.27 237.51 61.82 237.90 66.27 238.63 C 57.13 242.22 48.16 237.01 39.58 234.37 C 34.09 232.39 28.33 233.91 22.79 234.73 C 25.46 231.86 29.27 230.51 33.15 230.64 Z" />
</g>
</svg>
