<svg width="450" height="450" xmlns="http://www.w3.org/2000/svg">


 <style type="text/css">.st0{fill:#EE4B4D;}
	.st1{fill:#BA313E;}
	.st2{fill:#CC3A41;}
	.st3{fill:#FF7171;}
	.st4{fill:#3F332B;}
	.st5{fill:#261E18;}
	.st6{fill:#5E4F45;}
	.st7{fill:#352B25;}
	.st8{fill:#25302C;}
	.st9{fill:#131917;}
	.st10{fill:#D4D6D5;}
	.st11{fill:#C94949;}
	.st12{fill:#FAA284;}
	.st13{fill:#EF8D72;}
	.st14{fill:#F0F2F1;}
	.st15{fill:#1B2320;}
	.st16{fill:#E5EAE8;}
	.st17{fill:#3B221D;}
	.st18{fill:#502F26;}
	.st19{fill:#DB7C65;}
	.st20{fill:#674434;}
	.st21{fill:#823321;}
	.st22{fill:#FFFFFF;}
	#eyes {
	animation: ey 3s linear infinite;
  animation-direction: alternate;
  transform-origin: 50% 50%;
  transform-box: fill-box;
}
@keyframes ey {
	0%{transform: rotateX(0deg)}
	20%{transform: rotateX(0deg)}
	23%{transform: rotateX(88deg)}
26%{transform: rotateX(0deg)}
}
#pink {
  animation: pink 5s linear infinite;
  animation-direction: initial;
  transform-origin: 90% 0%  ;
  transform-box: fill-box;
}
@keyframes pink {
 0%{ transform: rotateZ(0deg);}
 15%{ transform: rotateZ(15deg);}
 30%{ transform: rotateZ(4deg);}
 30.01%{ transform: rotateZ(4deg);}
 36%{ transform: rotateZ(0deg);}
 50%{ transform: rotateZ(15deg);}
 60%{ transform: rotateZ(0deg);}
 70%{ transform: rotateZ(15deg);}
 
  
}</style>
 <g>
  <title>Layer 1</title>
  <g id="pink">
   <path id="svg_1" d="m234.02,115.89333c0,0 -45.8,13.84 -71.84,47.11c-26.04,33.26 -58.08,55.09 -107.03,46.72c0,0 42.29,8.89 52.48,47.34c10.19,38.45 13.38,50.01 44.82,44.38c36.65,-6.56 55.07,-6.03 74.96,36.66c0,0 140.21,-174.55 65.2,-220.64l-58.59,-1.57z" class="st0"/>
   <path id="svg_2" d="m222.44,322.79333l-7.14,-60.2l4.35,-35.6c-13.75,-5.49 -18.29,-37.65 -18.29,-37.65c-4.26,-49.02 10.18,-61.06 14.51,-66.28c10.65,-4.9 18.15,-7.17 18.15,-7.17l58.71,1.56c58.98,36.24 -15.04,151.93 -49.36,199.69l-0.06,-0.23c-13.61,5.88 -20.87,5.88 -20.87,5.88" class="st1"/>
   <path id="svg_3" d="m222.44,230.71333c0,0 -0.11,39.15 -21.31,72.99c-12.72,-7.45 -27.72,-6.02 -48.68,-2.27c-1.62,0.29 -3.16,0.53 -4.64,0.73c12.51,-7.33 61.77,-37.91 74.63,-71.45" class="st1"/>
   <path id="svg_4" d="m55.14,209.72333c48.95,8.37 80.99,-13.45 107.03,-46.72c6.42,-8.2 14.03,-15.21 21.87,-21.13c-7.49,15.42 -9.13,26.84 -10.75,38.1c-3.91,27.19 -19.56,71.53 -65.77,76.73c-10.36,-38.15 -52.38,-46.98 -52.38,-46.98" class="st2"/>
   <path id="svg_5" d="m55.14,209.72333c0,0 -42.59,-1.9 16.42,60.7c0,0 2.3,-26.24 50.54,-47.13c55.43,-24 25.4,-45.04 71.33,-87.97c0,0 -22.73,10.9 -38.52,33.44c-15.78,22.53 -42.96,45.77 -99.77,40.96" class="st3"/>
  </g>
  <path id="svg_6" d="m242.2,429.36333l-27.88,0c0,0 -1.64,-7.5 4.18,-17.28l18.78,0.28c0,-0.01 5.41,7.7 4.92,17" class="st4"/>
  <rect id="svg_7" height="4.4" width="27.88" class="st5" y="429.36333" x="214.29"/>
  <path id="svg_8" d="m217.74,421.43333c0,1.91 4.71,3.45 10.51,3.45c5.81,0 10.51,-1.55 10.51,-3.45c0,-1.91 -4.71,-3.45 -10.51,-3.45c-5.8,0 -10.51,1.54 -10.51,3.45" class="st6"/>
  <path id="svg_9" d="m269.95,410.37333c0,0 -2.16,11.16 -0.53,18.99l52.49,0c0,0 1.79,-11.47 -21.03,-11.45l-14.64,-9.9l-16.29,2.36z" class="st4"/>
  <path id="svg_10" d="m269.55,433.76333l17.09,0l0.21,-3.12c0,0 7.41,2.91 17.37,2.91c4.84,0 17.66,0.14 17.66,0.14l0,-4.33l-52.33,0l0,4.4z" class="st5"/>
  <path id="svg_11" d="m302.36,417.89333c0,0 0.77,8.09 18.89,7.7c-0.01,0 -2.5,-7.36 -18.89,-7.7" class="st6"/>
  <path id="svg_12" d="m286.38,429.36333c0,0 -0.51,-13.29 -17.21,-13.37c0,0 -0.89,8.97 0.42,13.37l16.79,0z" class="st7"/>
  <path id="svg_13" d="m295.99,229.82333l0.98,182.26c0,0 -14.26,7.12 -27.71,1.53l-5.14,-151.79l-3.97,-0.2l-19.42,151.97c0,0 -10.27,4.69 -25.43,-0.9l15.39,-182.87l65.3,0z" class="st8"/>
  <path id="svg_14" d="m296.6,341.96333l0.38,70.08c0,0 -14.26,7.14 -27.71,1.55l-3.17,-93.75c7.51,29.94 23.87,25.41 30.5,22.12" class="st9"/>
  <path id="svg_15" d="m222.18,330.87333c10.07,27.32 23.4,9.79 29.12,0.02l-10.57,82.7c0,0 -10.27,4.66 -25.43,-0.93l6.88,-81.79z" class="st9"/>
  <path id="svg_16" d="m230.69,229.82333l65.27,0l0,25.31c-5.38,2.35 -16.12,6.13 -31.75,8.88l-0.1,-2.19l-3.97,-0.19l-0.44,3.13c-9.1,1.39 -19.72,2.44 -31.88,2.66l2.87,-37.6z" class="st9"/>
  <path id="svg_17" d="m240.64,114.60333c9.89,-2.16 22.03,-3.42 34.58,-1.45c-0.08,8.19 -0.32,43.56 -8.37,71.67c-0.01,0 -22.62,-51.36 -26.21,-70.22" class="st10"/>
  <polygon id="svg_18" points="267.7900085449219,124.50333142280579 263.2900085449219,132.44333386421204 274.260009765625,180.98332715034485 266.82000732421875,190.61333203315735 259.1199951171875,183.6233265399933 258.3800048828125,132.8033344745636 254.47000122070312,126.53333020210266 260.0299987792969,118.4533360004425 " class="st11"/>
  <path id="svg_19" d="m267.33,107.35333l0.33,12.1l-20.04,0.55l-0.43,-15.74c8.42,3.82 16.73,3.5 20.14,3.09" class="st12"/>
  <path id="svg_20" d="m247.19,104.26333l-0.33,-12.13l20.04,-0.55l0.43,15.77c-3.41,0.41 -11.72,0.73 -20.14,-3.09" class="st13"/>
  <path id="svg_21" d="m217.26,122.42333c0,0 11.42,-6.24 25.33,-9.27c3.58,18.86 24.26,71.67 24.26,71.67c8.06,-28.11 6.38,-64.2 6.46,-72.39c6.33,1 14.16,2.09 20.47,5.03c0,0 8.5,38.16 4.76,125.05c0,0 -28.24,10.15 -73.57,1.51c0,0 4.26,-60.86 -1.62,-84.65c-0.02,0 -4.23,-22 -6.09,-36.95" class="st8"/>
  <path id="svg_22" d="m223.33,159.37333c0,0 -1.88,-9.81 -3.68,-20.79l7.77,2.18c2.18,12.77 10.52,31.6 10.52,31.6c4.94,5.56 15.19,2 24.54,1.06c2.59,6.87 4.37,11.4 4.37,11.4c1.15,-4.01 2.1,-8.19 2.89,-12.42c7.03,-1.26 14.36,-2.89 16.31,-3.44c5.02,-1.42 5.77,-23.13 5.77,-23.13l4.44,-12.63c1.39,13.46 2.89,37.11 2.29,73.66c-6.17,1.03 -18.76,2.28 -30.73,-1.76c0,0 -18.14,6.3 -24.88,6.95c-5.05,0.49 -12,4.31 -16.42,11.24c0.54,-18.64 0.66,-48.33 -3.19,-63.92" class="st9"/>
  <path id="svg_23" d="m293.77,117.46333c0,0 9.81,-3.13 17.15,32.82c5.28,25.85 4.18,42.72 1.02,43.77c-3.16,1.05 -23.17,9.65 -57.83,-7.07l4.11,-5.79l33.88,-4.56l-0.29,-32.81l1.96,-26.36z" class="st8"/>
  <path id="svg_24" d="m267.37,108.62333c0,0 -0.93,6.99 -7.34,9.83c0,0 -11.94,-2.04 -12.78,-9.85l-6.02,5.88c0,0 3.69,11.18 12.94,14.63l5.78,-8.82l7.86,7.27c0,0 7.27,-8.7 6.65,-14.39l-7.09,-4.55z" class="st14"/>
  <path id="svg_25" d="m279.47,139.11333l3.5,3.18c0,0 -9.36,36.8 -16.08,50.14c0,0 -19.41,-32.51 -25.52,-46.71l2.92,-4.64l-6.41,-1.97c0,0 -2.57,-13.45 -1.85,-24.27c2.09,-0.62 4.28,-1.2 6.54,-1.69c3.58,18.86 24.26,71.67 24.26,71.67c8.06,-28.11 6.38,-64.2 6.46,-72.39c1.86,0.29 3.9,0.72 6,1.25l4.48,21.25l-4.3,4.18z" class="st15"/>
  <path id="svg_26" d="m258.21,181.18333l33.88,-4.56c0,0 -13.46,11.11 -14.7,19.03c-6.48,-1.58 -14.19,-4.29 -23.3,-8.68l4.12,-5.79z" class="st15"/>
  <path id="svg_27" d="m271.14,174.73333c17.97,-8.7 20.96,1.9 20.96,1.9c-5.49,3.86 -10.67,7.14 -15.52,9.95c-3.35,-6.07 -5.44,-11.85 -5.44,-11.85" class="st12"/>
  <path id="svg_28" d="m265.62,174.60333l4.9,-0.75c0,0 6.07,4.12 6.06,12.72c-1.7,0.98 -3.36,1.9 -4.98,2.77c-2.2,-7.15 -4.54,-11.43 -5.98,-14.74" class="st16"/>
  <path id="svg_29" d="m217.26,122.42333c9.42,-2.02 17.92,56.85 17.92,56.85l30.28,-5.3c2.46,2.52 7.36,9.5 6.91,16.51c-30.03,16.06 -47.07,11.76 -47.07,11.76s-11.28,1.57 -14.54,-36.73c-3.27,-38.29 6.5,-43.09 6.5,-43.09" class="st8"/>
  <path id="svg_30" d="m247.19,177.17333c0,0 -11.4,-7.48 -13.65,-7.97c-2.24,-0.49 -10.54,-3.39 -10.54,-3.39s-0.98,1.22 0.37,2.57c1.34,1.34 6.4,2.57 6.4,2.57s-5.91,0.73 -8.23,2.08c0,0 -1.02,2.36 1.67,2.53c0,0 -3.02,1.96 0.65,2.7c0,0 3.63,-0.86 5.01,-0.58l-4.65,3.46c0,0 -0.24,1.06 1.79,0.98c2.04,-0.08 4.97,-4.2 9.16,-2.84l12.02,-2.11z" class="st12"/>
  <path id="svg_31" d="m242.25,47.08333c0,0 19.31,9.19 23.96,8.69c4.65,-0.5 19.55,-7.64 19.55,-7.64c1.91,8.94 -2.78,16.7 -2.78,16.7l-41.97,9.69l-7.08,1.86c-1.92,-7.57 -3.55,-15.34 -3.53,-19.79c8.65,-1.97 11.85,-9.51 11.85,-9.51" class="st17"/>
  <path id="svg_32" d="m235.72,41.98333c3.77,-15.2 29.72,-16.24 29.72,-16.24c13.63,-8.29 8.52,2.32 8.52,2.32c22.81,-8.16 11.95,12.38 11.95,12.38c8.45,-0.3 -0.13,7.69 -0.13,7.69s-14.89,7.13 -19.55,7.64c-4.65,0.51 -23.96,-8.69 -23.96,-8.69s-3.2,7.54 -11.85,9.51c0.03,-13.54 5.3,-14.61 5.3,-14.61" class="st18"/>
  <path id="svg_33" d="m235.73,70.88333l3.15,2.66c0.66,-1.57 1.2,-3.22 1.64,-4.87c2.55,-9.58 1.73,-21.58 1.73,-21.58c22.01,8.54 40.83,2.36 40.83,2.36c-1.05,10.92 2.56,34.97 -5.8,47.32c-2.49,3.68 -5.64,6.77 -10.93,7.59c-23.03,3.61 -28.94,-18.92 -28.94,-18.92s-7.22,1.92 -8.69,-8.72c-1.22,-8.82 7.01,-5.84 7.01,-5.84" class="st12"/>
  <path id="svg_34" d="m245.51,50.99333c0,0 -1.85,10.16 -4.65,16.3c2.13,-9.14 1.4,-20.21 1.4,-20.21c22.01,8.54 40.83,2.36 40.83,2.36c-0.11,1.19 -0.16,2.55 -0.16,4.03c-8.57,1.19 -23.9,2.24 -37.42,-2.48" class="st13"/>
  <path id="svg_35" d="m263.21,84.90333c4.45,1.8 6.85,-0.3 7.03,-2.4c0.12,-1.37 -0.66,-2.59 -1.98,-3.11c-2.71,-1.06 -4.63,-5.23 -4.64,-5.27c-0.01,0.96 0.96,4.56 4.4,6.57c0.74,0.43 1.21,0.89 1.15,1.57c-0.1,1.17 -1.81,2.93 -5.96,2.64" class="st19"/>
  <path id="svg_36" d="m283.99,26.22333c0,0 -9.6,9.43 -32.02,9.41c0,0 14.65,10.21 34.59,3.41c0,-0.01 5.09,-12.11 -2.57,-12.82" class="st20"/>
  <path id="svg_37" d="m239.15,82.78333c1.96,5.71 9.25,19.77 24.99,18.91c8.51,-0.46 12.84,-6.08 15.67,-10c-0.67,1.84 -1.51,3.55 -2.54,5.08c-2.49,3.68 -5.64,6.77 -10.93,7.59c-23.03,3.61 -28.94,-18.92 -28.94,-18.92s-5.52,1.54 -7.97,-5.5c4.3,7.14 9.72,2.84 9.72,2.84" class="st13"/>
  <path id="svg_38" d="m255.47,87.99333c0,0 8.38,1.71 16.17,0c0,0 -1.38,7.17 -8.09,7.15c-6.32,-0.01 -8.01,-5.76 -8.08,-7.15" class="st21"/>
  <path id="svg_39" d="m263.73,91.42333c5.15,0 6.67,-2.14 7.32,-3.3c-6.05,1.19 -10.92,0.48 -15.17,-0.05c0.46,1.29 2.99,3.35 7.85,3.35" class="st22"/>
  <path id="svg_40" d="m279.4,63.43333l0.19,-1.34c-0.29,-0.02 -4.89,-1.27 -10.28,-0.82l-0.05,2.1c4.42,-0.65 10.06,0.06 10.14,0.06" class="st18"/>
  <path id="svg_41" d="m246.71,64.14333c3.6,-1.4 10.28,-1.66 10.35,-1.67l-0.44,-1.92c-0.26,0.05 -6.32,0.26 -10.36,2.42l0.45,1.17z" class="st18"/>
  <g id="eyes">
   <path id="svg_42" d="m270.35,73.65333c0.02,1.98 1.22,3.49 2.69,3.37c1.46,-0.12 2.64,-1.82 2.62,-3.8c-0.02,-1.98 -1.22,-3.49 -2.69,-3.38c-1.47,0.13 -2.64,1.83 -2.62,3.81" class="st18"/>
   <path id="svg_43" d="m250.22,73.07333c0.02,1.98 1.22,3.49 2.69,3.38c1.46,-0.12 2.64,-1.82 2.62,-3.8c-0.02,-1.98 -1.22,-3.49 -2.69,-3.38c-1.47,0.12 -2.64,1.82 -2.62,3.8" class="st18"/>
  </g>
 </g>
</svg>