<svg width="450" height="451" xmlns="http://www.w3.org/2000/svg">
 <style>#BODY {animation: a .4s ease-in-out alternate infinite}
@keyframes a {
  0%{transform:translateY(5px)}
  100%{transform:translateY(-5px)}
}
#ARM_1 {animation: a1 .4s ease-in-out alternate infinite}
@keyframes a1 {
  0%{transform:translateX(0px)}
  100%{transform:translateX(-5px)}
}
#ARM_2 {animation: a2 .4s ease-in-out alternate infinite}
@keyframes a2 {
  0%{transform:translateX(0px)}
  100%{transform:translateX(5px)}
}
#EYES {animation: E .4s ease-in-out alternate infinite}
@keyframes E {
  0%{transform:translateY(2px)}
  100%{transform:translateY(-2px)}
}
#MOUTH {
    animation: mouth .4s ease-in-out alternate infinite;
    transform-origin: top;
   transform-box:fill-box; }
  
  @keyframes mouth {
    0%{transform:scale(1,1);}
    100%{transform:scale(1,1.12);}
  }</style>

 <g>
  <title>Layer 1</title>
  <g id="LEGS">
   <path id="svg_2" fill="#653514" d="m276.33,355.71c0.16,1.15 -0.12,2.24 0.07,3.4a15.78,15.78 0 0 0 1,3.14c0.7,1.79 1.52,3.55 2.37,5.28a43.37,43.37 0 0 0 6.6,9.19c2.66,3.1 5.76,6.05 8.11,9.4c1.1,1.57 0.77,2.12 -0.44,3a18.62,18.62 0 0 0 -2.64,2.38c-4.17,4.68 -7,10.8 -9.57,16.43a242,242 0 0 0 -9.05,22.66c-1,2.76 2.42,5 4.76,3.66a17.46,17.46 0 0 1 17.5,0.15l0.63,-4.83c-5.67,1.14 -11.34,0.69 -17.05,0.21c-3.55,-0.3 -4.23,5.32 -0.83,6.17c6.41,1.6 13.09,0.7 19.28,-1.29a2.67,2.67 0 0 0 0.63,-4.82a26,26 0 0 0 -23.43,-1.19l4.76,3.66a241.6,241.6 0 0 1 9.24,-22.86c2.52,-5.32 5.25,-10.82 9.26,-15.19c2.48,-2.7 2.07,-5.45 0.47,-8.55a20.18,20.18 0 0 0 -3,-3.81a37.43,37.43 0 0 1 -3.94,-5.74c-2.11,-3.55 -3.5,-7.49 -5.36,-11.18c-0.87,-1.72 -1.64,-3.48 -2.42,-5.24a20.94,20.94 0 0 0 -1.44,-2.93c-0.6,-0.94 -1.45,-1.62 -2,-2.59c-1.13,-2.08 -3.8,-0.52 -3.52,1.48l0.01,0.01z"/>
   <path id="svg_3" fill="#653514" d="m221.09,347.84c-1.79,2.61 -1.65,7.25 -1.89,10.35c-0.29,3.78 -0.23,7.61 -0.33,11.4s-0.17,7.61 -0.24,11.41c0,1.86 0,3.74 -0.13,5.6a6.94,6.94 0 0 1 -1.69,4c-2.12,2.9 -3.47,6.23 -5.56,9.13a87.12,87.12 0 0 1 -7.32,8.61a54.23,54.23 0 0 1 -8.13,6.76a85.7,85.7 0 0 0 -8.3,7.4c-2.07,1.94 -0.62,6.41 2.5,6c4.56,-0.55 8.26,0.16 11.57,3.58l1.43,-5.42a17.65,17.65 0 0 1 -7,1.18a15.38,15.38 0 0 1 -3.09,-0.46a15.63,15.63 0 0 1 -1.91,-0.59a4.55,4.55 0 0 1 -0.72,-0.3c-0.62,-0.35 -0.53,-0.13 0.27,0.69l-0.83,3.15l0.21,-0.21l-2.3,0.95l0.33,0l-2.29,-0.95l0.22,0.18l-0.51,-3.93l-0.1,0.21c-1.77,3.76 3.82,7.05 5.61,3.28l0.09,-0.21c0.57,-1.2 0.66,-3 -0.5,-3.93c-1.95,-1.58 -4.91,-1.6 -6,1c-1.22,2.9 1.39,4.84 3.7,5.81a22.7,22.7 0 0 0 16.54,0.31a3.29,3.29 0 0 0 1.43,-5.42a20.23,20.23 0 0 0 -17.1,-5.93l3.45,6.01c2.65,-2.71 5.57,-5.52 7.63,-8.72a72.57,72.57 0 0 1 6.86,-9.32c2.48,-2.78 4.93,-5.71 7.63,-8.28s5.93,-4.74 8.23,-7.88s2.15,-6.37 2.22,-9.95q0.13,-5.94 0.24,-11.88c0.07,-4.11 0.28,-8.24 0.22,-12.35c0,-1.9 -0.19,-3.81 -0.35,-5.71s-0.15,-3.93 -1.19,-5.59a1.69,1.69 0 0 0 -2.89,0l-0.01,0.02z"/>
  </g>
  <g id="BODY">
   <g data-name="ARM 1" id="ARM_1">
    <path id="svg_4" fill="#653514" d="m304.32,194.69c3.31,2.27 8.26,1 12,0.77q6.53,-0.41 13.07,-0.37a200.36,200.36 0 0 1 26.14,1.82c2.25,0.31 4,-0.84 4.17,-3.18a432.47,432.47 0 0 0 1.5,-56.57l-2.39,3.13c6.87,-1.83 15.09,-3.78 21.23,0.94l0,-5.6a17,17 0 0 1 -16.61,-1.1c-3.53,-2.25 -6.79,3.36 -3.27,5.6a23.62,23.62 0 0 0 23.15,1.1c2.44,-1.19 1.74,-4.26 0,-5.6c-7.56,-5.82 -17.72,-3.76 -26.23,-1.6a3.29,3.29 0 0 0 -2.39,3.13a479,479 0 0 1 -1.58,56.57l4.17,-3.17a202.78,202.78 0 0 0 -27.42,-2c-4.52,0 -9,0.14 -13.54,0.42c-3.94,0.25 -9.49,-0.08 -12.35,3.09a1.7,1.7 0 0 0 0.34,2.63l0.01,-0.01z"/>
   </g>
   <g data-name="ARM 2" id="ARM_2">
    <path id="svg_5" fill="#653514" d="m156.38,189.5c-2.57,0 -5.09,-0.45 -7.66,-0.51l-6.71,-0.16c-4.63,-0.12 -9.26,0.16 -13.89,0.15c-9.37,0 -18.93,-0.35 -28.26,0.59a2.48,2.48 0 0 0 -2.41,2.41c-0.25,4.77 -0.7,9.54 -1,14.32a67.64,67.64 0 0 1 -0.64,7.92a55.8,55.8 0 0 0 -1.12,6.41c-0.66,9.5 -1.35,19.2 -0.71,28.71l4.94,-2.83a41.67,41.67 0 0 0 -15.92,-5c-4.72,-0.45 -11.55,-0.23 -13.06,5.4c-1.69,6.28 5.11,7.67 9.68,8.12a54,54 0 0 0 18.43,-1.5c4,-1 2.33,-7.28 -1.72,-6.26a47.64,47.64 0 0 1 -11.27,1.51a48.46,48.46 0 0 1 -5.9,-0.28a10.34,10.34 0 0 0 -2.53,-0.38l-0.69,-0.18c0.13,0.74 0.22,0.93 0.28,0.58c0.31,0 1.4,-0.55 1.8,-0.6a18.52,18.52 0 0 1 2.47,-0.06a30.73,30.73 0 0 1 5,0.44a28.7,28.7 0 0 1 10.14,3.9c2.25,1.4 4.75,-0.47 4.93,-2.84c0.75,-9.52 0.53,-19.16 0.72,-28.71c0,-2.27 -0.46,-4.43 -0.56,-6.69a69.68,69.68 0 0 1 0.39,-7.64c0.34,-4.77 0.61,-9.57 1.17,-14.32l-2.41,2.41c9.31,1.19 18.88,1.1 28.26,1.35c4.63,0.13 9.26,0.52 13.89,0.54l6.71,0c2.56,0 5.1,-0.34 7.66,-0.31c4.18,0.06 4.18,-6.43 0,-6.49l-0.01,0z"/>
   </g>
   <g id="svg_6">
    <circle transform="rotate(-3.26 -7354.82 -6563.83)" id="svg_7" opacity="0.36" fill="#fff" r="10.54" cy="747.93992" cx="-151.27982"/>
    <g id="svg_8">
     <path id="svg_9" fill="#fc6" d="m110.71,50.94c0,19.1 5.63,32.44 9.72,46.83c19.35,68 41.29,137 60.68,205.06a76.64,76.64 0 0 0 29.18,41.5c19.34,14.09 45.05,19.24 68.45,14.18c4.67,-1 10.52,-4.31 9,-8.86a12.27,12.27 0 0 0 -2.42,-3.56c-4.06,-5.1 -7.13,-16.29 -7.24,-22.81c-1.09,-68.45 31,-127.62 41.43,-195.27c1.58,-10.21 4.6,-24.5 5.59,-34.78c1,-10.67 6.5,-17.36 7.53,-28a12.1,12.1 0 0 0 -0.24,-5.16c-1.35,-3.91 -6,-5.36 -10.05,-6.26c-18.26,-4.09 -36.71,-8.2 -55.42,-8.14c-9.22,0 -18.41,1.07 -27.63,1.38c-34.84,1.18 -69.59,-8.09 -104.31,-5c-9.8,0.87 -20.63,-4.85 -21.73,4.92"/>
     <path id="svg_10" fill="#faf39a" d="m325.76,81.69c-2.74,26.26 -3.94,48.75 -10.95,74.7c-8.52,31.58 -16.58,58.41 -25.11,90c-7.41,27.43 -16.14,66.62 -8.17,92.73c0.41,1.32 1.08,2.67 0.72,4a5.17,5.17 0 0 1 -2.16,2.67c-6.53,4.77 -15.52,4 -23.42,2.23a135.56,135.56 0 0 1 -32.73,-11.75c-9.7,-5 -19.48,-12 -22.4,-22.51c-1.61,-5.81 -0.9,-12 -1.21,-18s-2,-12.54 -6.91,-16c-3.28,-2.33 -7.69,-3.07 -10.32,-6.11c-3.15,-3.63 -2.59,-9.17 -1,-13.69s4.17,-8.84 4.45,-13.64c0.63,-10.67 -9.47,-18.33 -16.11,-26.71c-20.28,-25.62 -13.74,-62.23 -27.59,-91.83c-4.49,-9.61 -7.31,-20.21 -10.58,-30.29a41.6,41.6 0 0 1 1.83,-30.16a25.18,25.18 0 0 1 8,-10.26c3.89,-2.7 8.65,-3.76 13.31,-4.61c31.92,-5.83 64.68,-4.7 97,-2.3c13.14,1 26.26,2.15 39.37,3.38c8.58,0.8 17.47,1.73 24.87,6.13s12.85,13.33 10.44,21.6"/>
     <path id="svg_11" fill="#ec1e24" d="m325.81,86.02c-2.65,-1.46 -6.13,0.06 -7.93,2.5s-2.37,5.54 -3.07,8.49s-1.58,5.83 -3.54,8.05s-5.25,3.52 -8,2.36c-4,-1.69 -4.49,-6.94 -5.3,-11.18s-4.42,-9.22 -8.37,-7.47c-1.45,0.65 -2.4,2.08 -3.76,2.9c-3,1.83 -6.9,0.25 -9.77,-1.78s-5.67,-4.61 -9.17,-4.85c-7.08,-0.49 -13,8.76 -19.65,6.36c-3.71,-1.34 -5.58,-5.86 -9.33,-7.06c-4,-1.27 -8.18,1.93 -9.9,5.73s-1.78,8.12 -2.63,12.21s-2.89,8.41 -6.8,9.87c-3.6,-3.93 -3,-10 -2.85,-15.29s-1.48,-11.86 -6.62,-13.23c-5.71,-1.53 -10.76,4.53 -16.65,5c-8.41,0.63 -14.38,-10.1 -22.8,-9.64c-6.23,0.34 -11.42,6.87 -17.52,5.57c-3.48,-0.74 -5.86,-3.82 -8.41,-6.31s-6.33,-4.62 -9.51,-3c-2.91,1.48 -3.63,5.21 -4.58,8.34s-3.51,6.61 -6.68,5.81c-2.28,-0.57 -3.42,-3.08 -4.19,-5.3a152.59,152.59 0 0 1 -6,-23.05c-1.26,-7 -1.74,-15.15 3,-20.47c3.87,-4.31 10.28,-5.5 16,-4.67s11.06,3.37 16.45,5.49c20.39,8 42.51,10.27 64.31,12.44c12.17,1.22 24.43,2.43 36.61,1.25c14.42,-1.41 28.3,-6.14 42.62,-8.37s30,-1.65 41.89,6.58a7.18,7.18 0 0 1 3.06,3.42c0.59,1.79 -0.15,3.72 -0.88,5.45q-5.16,12.3 -10.31,24.6"/>
     <g id="svg_12" opacity="0.36">
      <path id="svg_13" fill="#653514" d="m327.37,82.61c-4.58,-0.34 -8.87,2 -13.28,3.27c-14.25,4.13 -23.54,-3.66 -38,-0.48c-3.27,0.72 -12.42,-2.35 -15.74,-1.93c-7,0.88 -13.83,-0.66 -20.69,-2.26c-6.3,-1.47 -13,1.89 -19.49,1.51c-16.21,-1 -34.22,-4.3 -50.45,-3.76c-6.45,0.22 -10.59,0.82 -17,-0.2s-15.22,-5.24 -19.67,-9.91c-3.48,-3.65 -3.12,-11.26 -7.23,-14.21s-12.07,4.89 -13.34,9.78c-1.73,-5.84 -2.71,-12.09 -1.34,-18s5.43,-11.51 11.22,-13.38c5.32,-1.72 11.09,-0.17 16.43,1.46c16.45,5 32.74,10.89 49.71,13.72c38.73,6.44 78.53,-3.26 117.57,1c5.53,0.6 11.16,1.51 16.09,4.1s9.11,7.12 10,12.62c0.94,5.76 -1.77,11.42 -4.41,16.63"/>
     </g>
     <path id="svg_14" fill="#f79838" d="m344.84,52.65c2.32,-9.52 2.65,-15.3 -2.36,-23.72c-5.54,-9.3 -18,-12.13 -28.71,-10.84s-20.92,5.7 -31.64,7.26c-19.55,2.84 -39,-4 -58.53,-7.22c-16.43,-2.72 -33.16,-2.89 -49.81,-3.06l-37.76,-0.38c-9.58,-0.09 -20.88,0.7 -26,8.8c-6.85,10.86 3.1,25 1,37.69c0.83,-4.66 2.39,-16.16 6.12,-19.07s10.48,-2.22 14.28,0.62c4,3 8.38,18.88 8.14,23.88s13.85,6.55 22.64,6.69c8.46,0.12 16.86,1.42 25.26,2.47c14.07,1.74 28.36,-1.57 42.4,0.45c17.64,2.54 31.54,5.7 43.71,4.85c23.37,-1.63 38.16,-2.06 61.56,-3.06c2.73,-0.12 5.8,-0.6 7.37,-2.84a9.58,9.58 0 0 0 1.27,-5.1q0.52,-8.71 1,-17.42"/>
     <g id="svg_15" opacity="0.52">
      <path id="svg_16" fill="#fc6" d="m329.5,23.66c3.83,0.85 6.83,4 8.37,7.62s1.84,7.61 1.88,11.53a97.68,97.68 0 0 1 -1.51,18.07a10.82,10.82 0 0 1 -2.1,5.46c-2.15,2.43 -5.82,2.59 -9.06,2.57l-72.18,-0.42a60.88,60.88 0 0 1 -10.46,-0.66c-4.15,-0.75 -8.1,-2.35 -12.24,-3.18c-6.61,-1.33 -13.43,-0.66 -20.17,-0.45c-16.9,0.54 -34.05,-1.88 -49.57,-8.59c-5.39,-2.33 -10.7,-5.29 -14.34,-9.89s-5.26,-11.18 -2.76,-16.49c2.73,-5.78 9.56,-8.62 16,-8.8s12.64,1.72 18.92,2.9c12.85,2.42 26.05,1.82 39.11,2.58c24.64,1.43 49.41,7.69 73.73,3.48c4.57,-0.79 9.08,-2 13.69,-2.34c7.78,-0.65 16.43,0.68 22.71,-4"/>
     </g>
     <g id="svg_17" opacity="0.94">
      <path id="svg_18" fill="#fc6" d="m329.17,34.5a87.17,87.17 0 0 1 1.56,13.28a15.38,15.38 0 0 1 -0.44,5.2c-1.46,4.65 -6.54,7.11 -11.31,8.13c-6.13,1.31 -12.46,1.13 -18.73,0.94l-46.16,-1.38c-4,-0.12 -8.36,-0.42 -11.1,-3.28c-2.56,-2.68 -2.85,-6.74 -3,-10.44c-0.1,-2.56 -0.17,-5.25 1,-7.54c2.15,-4.28 7.62,-5.55 12.4,-5.75c11.1,-0.46 22.06,2.2 33,4s22.52,2.63 32.92,-1.25c3.46,-1.3 7.25,-3.11 10.66,-1.68"/>
      <path id="svg_19" fill="#fc6" d="m328.67,34.65a85.94,85.94 0 0 1 1.47,11.75a21.57,21.57 0 0 1 -0.13,5.62a8.56,8.56 0 0 1 -2,3.89a15.36,15.36 0 0 1 -7.2,4.21a43.08,43.08 0 0 1 -10.83,1.52c-3.9,0.13 -7.8,0 -11.69,-0.14l-11.78,-0.35l-23.8,-0.72c-3.74,-0.11 -7.49,-0.1 -11.22,-0.38c-3,-0.22 -6.2,-0.84 -8.3,-3.14s-2.49,-5.65 -2.65,-8.63c-0.18,-3.23 -0.5,-6.94 1.53,-9.7c1.62,-2.19 4.3,-3.28 6.89,-3.85a39.47,39.47 0 0 1 10,-0.52c7.78,0.34 15.44,1.88 23.1,3.23c7.21,1.27 14.5,2.38 21.85,2.21a51.6,51.6 0 0 0 10.72,-1.3a42.48,42.48 0 0 0 5.18,-1.6a39.77,39.77 0 0 1 5.06,-1.74a8,8 0 0 1 4.93,0.21c0.62,0.24 0.89,-0.76 0.27,-1c-3.41,-1.37 -7,0.18 -10.23,1.41a44.13,44.13 0 0 1 -10.92,2.66c-7.59,0.85 -15.26,0 -22.77,-1.19c-7.92,-1.3 -15.79,-3 -23.81,-3.7a57.21,57.21 0 0 0 -11.18,-0.07a16.47,16.47 0 0 0 -8,2.71a8.9,8.9 0 0 0 -2.67,3.05a11.58,11.58 0 0 0 -1.13,5.05a47.81,47.81 0 0 0 0.15,5.08a20,20 0 0 0 0.83,4.74a9.48,9.48 0 0 0 6,6.2c3.11,1.09 6.53,1 9.78,1.11l24.76,0.75c8.23,0.24 16.46,0.62 24.7,0.7a66.67,66.67 0 0 0 11.81,-0.78a23,23 0 0 0 8.68,-3.11a10.49,10.49 0 0 0 4.87,-7a25.35,25.35 0 0 0 0.09,-5.71q-0.18,-3 -0.56,-6t-0.95,-5.82c-0.12,-0.65 -1.12,-0.38 -1,0.27l0.15,0.08z"/>
     </g>
     <g id="svg_20" opacity="0.94">
      <path id="svg_21" fill="#fc6" d="m215.63,37.28c2.9,0 5,2.78 6.24,5.39s2.29,5.63 1.32,8.37a8.38,8.38 0 0 1 -1.68,2.71c-3.65,4.08 -10.47,5 -14.87,1.75s-5.37,-10.42 -1.72,-14.5a11.34,11.34 0 0 1 3.66,-2.66a14.55,14.55 0 0 1 8.3,-1.23"/>
      <path id="svg_22" fill="#fc6" d="m215.63,37.8c2.09,0.05 3.65,1.62 4.73,3.26a16.52,16.52 0 0 1 2.61,6.4a7.26,7.26 0 0 1 -2.28,6.4a11,11 0 0 1 -4.92,2.73a9.68,9.68 0 0 1 -11.94,-12.83c1.9,-4.89 8.11,-6.83 12.91,-6.15c0.65,0.09 0.93,-0.91 0.28,-1c-4.86,-0.68 -10.79,0.94 -13.46,5.37a11,11 0 0 0 0.42,11.42a10.84,10.84 0 0 0 10.93,4.42c4.34,-0.69 8.93,-4 9.17,-8.72c0.15,-2.87 -1.14,-5.86 -2.63,-8.25c-1.3,-2.09 -3.21,-4 -5.82,-4.09a0.52,0.52 0 0 0 0,1l0,0.04z"/>
     </g>
     <g id="svg_23" opacity="0.94">
      <path id="svg_24" fill="#fc6" d="m183.74,30.11a5.83,5.83 0 0 1 5.17,9.75a7,7 0 0 1 -2.63,1.69a7.1,7.1 0 0 1 -7.17,-1.18a5.45,5.45 0 0 1 -0.95,-6.93c1.14,-1.6 3.14,-2.32 5.05,-2.76a6.86,6.86 0 0 1 4.67,0.13"/>
      <path id="svg_25" fill="#fc6" d="m183.88,30.61a5.42,5.42 0 0 1 5.87,3.75a5.51,5.51 0 0 1 -3.05,6.45a6.62,6.62 0 0 1 -7.34,-0.91a4.88,4.88 0 0 1 -0.56,-6.44a7.48,7.48 0 0 1 3.85,-2.11c1.58,-0.43 3.42,-0.83 5,-0.09c0.6,0.28 1.12,-0.61 0.52,-0.9a7.54,7.54 0 0 0 -5.07,-0.18a10.38,10.38 0 0 0 -4.38,1.94a5.75,5.75 0 0 0 -0.67,7.81c1.85,2.49 5.4,3.16 8.24,2.18a6.66,6.66 0 0 0 4.66,-7.13a6.43,6.43 0 0 0 -7.31,-5.37c-0.66,0.1 -0.38,1.09 0.27,1l-0.03,0z"/>
     </g>
     <g id="svg_26" opacity="0.94">
      <path id="svg_27" fill="#fc6" d="m173.62,46.99a4.76,4.76 0 0 1 5.87,3.05a4.69,4.69 0 0 1 -3.39,5.66a4.62,4.62 0 0 1 -5.33,-3.84a4.56,4.56 0 0 1 4.39,-4.87"/>
      <path id="svg_28" fill="#fc6" d="m173.75,47.5a4.31,4.31 0 0 1 4.5,1.33a3.83,3.83 0 0 1 0.2,4.59a3.73,3.73 0 0 1 -4.28,1.68a4,4 0 0 1 -2.9,-3.72a4.06,4.06 0 0 1 3.89,-3.86a0.52,0.52 0 0 0 0,-1a5.11,5.11 0 0 0 -4.8,3.91a4.85,4.85 0 0 0 2.61,5.31a4.72,4.72 0 0 0 5.77,-1a5.07,5.07 0 0 0 0.85,-5.78a5.35,5.35 0 0 0 -6.09,-2.46c-0.63,0.21 -0.36,1.21 0.27,1l-0.02,0z"/>
     </g>
     <path id="svg_29" fill="#dace61" d="m286.35,253.9c-9.16,-2.53 -19.82,-0.53 -26.43,6.31s-8,18.62 -2,26c5,6.17 13.42,8.17 21.2,9.79a298.31,298.31 0 0 1 7.59,-42.25"/>
     <path id="svg_30" fill="#dace61" d="m225.32,333.3c8.45,-4.36 14.92,-13.07 15.13,-22.57s-6.78,-19.09 -16.19,-20.46c-7.86,-1.14 -15.4,3.11 -22.21,7.2a297.13,297.13 0 0 1 23.09,36.18"/>
     <path id="svg_31" fill="#933" d="m225.96,330.82c8.43,-4.39 14.86,-13.13 15,-22.63s-6.86,-19.06 -16.28,-20.39c-7.87,-1.1 -15.38,3.18 -22.18,7.3a298.44,298.44 0 0 1 23.26,36.08"/>
     <path id="svg_32" fill="#b12525" d="m223.9,327.79s9.4,-6.92 11.08,-10.94c1.41,-3.37 4.83,-8.86 0.09,-16.31s-8.75,-9.16 -13.14,-9.19s-17.65,4.56 -17.51,6.29l10.54,15.15l8.94,15z"/>
     <path id="svg_33" fill="#facbcb" d="m230.84,308.91a1.8,1.8 0 1 0 1.8,-1.8a1.8,1.8 0 0 0 -1.8,1.8z"/>
     <circle id="svg_34" fill="#facbcb" r="1.91" cy="301.07" cx="227.14"/>
     <circle id="svg_35" fill="#facbcb" r="1.75" cy="310.65" cx="222.7"/>
     <path id="svg_36" fill="#facbcb" d="m225.23,319.44a2.29,2.29 0 1 0 2.29,-2.29a2.29,2.29 0 0 0 -2.29,2.29z"/>
     <path id="svg_37" fill="#facbcb" d="m214.88,301.17a2,2 0 1 0 2,-2a2,2 0 0 0 -2,2z"/>
     <path id="svg_38" fill="#facbcb" d="m220.5,294.5a0.62,0.62 0 0 0 0.62,0.62a0.62,0.62 0 0 0 0.62,-0.62a0.61,0.61 0 0 0 -0.62,-0.62a0.62,0.62 0 0 0 -0.62,0.62z"/>
     <path id="svg_39" fill="#facbcb" d="m208.21,298.14a1,1 0 1 0 1,-1a1,1 0 0 0 -1,1z"/>
     <path id="svg_40" fill="#faf39a" d="m174.5,206.03q1.24,4.73 2.48,9.45a10,10 0 0 1 0.48,4.49a3.46,3.46 0 0 1 -3,2.93c-1.74,0 -2.94,-1.65 -4,-3s-2.78,-2.79 -4.35,-2c-1.32,0.62 -1.61,2.31 -2,3.7s-1.7,2.94 -3,2.38a2.73,2.73 0 0 1 -1.15,-1.11c-3.46,-5.11 -4.49,-11.52 -4.29,-17.68c0.12,-3.75 1,-8 4.23,-9.9s8,-0.28 10.38,2.85a23.73,23.73 0 0 1 1.72,2.81l2.88,5.24"/>
     <path id="svg_41" fill="#dace61" d="m278.09,196.6a9.42,9.42 0 1 0 9.42,-9.43a9.42,9.42 0 0 0 -9.42,9.43zm3.13,0a6.29,6.29 0 1 1 6.29,6.28a6.29,6.29 0 0 1 -6.29,-6.28z"/>
     <path id="svg_42" fill="#dace61" d="m184.77,224.01a9.43,9.43 0 1 0 9.42,-9.42a9.42,9.42 0 0 0 -9.42,9.42zm3.14,0a6.29,6.29 0 1 1 6.28,6.29a6.29,6.29 0 0 1 -6.28,-6.29z"/>
     <path id="svg_43" fill="#dace61" d="m249.5,331.18a9.42,9.42 0 1 0 9.42,-9.43a9.42,9.42 0 0 0 -9.42,9.43zm3.13,0a6.29,6.29 0 1 1 6.29,6.28a6.29,6.29 0 0 1 -6.28,-6.28l-0.01,0z"/>
     <path id="svg_44" fill="#653514" d="m185.82,222.18a9.42,9.42 0 1 0 9.42,-9.42a9.42,9.42 0 0 0 -9.42,9.42zm3.13,0a6.29,6.29 0 1 1 6.29,6.29a6.29,6.29 0 0 1 -6.29,-6.29z"/>
     <path id="svg_45" fill="#653514" d="m278.09,194.74a9.42,9.42 0 1 0 9.42,-9.42a9.43,9.43 0 0 0 -9.42,9.42zm3.13,0a6.29,6.29 0 1 1 6.29,6.29a6.29,6.29 0 0 1 -6.29,-6.29z"/>
     <path id="svg_46" fill="#653514" d="m250.21,329.11a9.42,9.42 0 1 0 9.42,-9.42a9.43,9.43 0 0 0 -9.42,9.42zm3.13,0a6.29,6.29 0 1 1 6.29,6.29a6.29,6.29 0 0 1 -6.29,-6.29z"/>
     <path id="svg_47" fill="#cb3233" d="m288.17,251.69c-9.08,-2.8 -19.79,-1.1 -26.6,5.54s-8.51,18.38 -2.74,25.94c4.82,6.32 13.17,8.56 20.9,10.4a299.07,299.07 0 0 1 8.82,-42"/>
     <path id="svg_48" fill="#ee3a39" d="m287.5,255.29s-11.54,-1.67 -15.57,0c-3.37,1.41 -9.66,2.91 -11.52,11.54s-0.23,12.67 2.88,15.77s15.76,9.16 16.88,7.84l3.15,-18.19l4.18,-16.96z"/>
     <path id="svg_49" fill="#f16667" d="m278.5,276.2a24.16,24.16 0 0 1 -4.49,4.08c-1.2,0.83 -2.64,1.86 -2.5,3.31c0.12,1.28 1.42,2.06 2.57,2.63c1.35,0.67 2.86,1.37 4.32,1a42.25,42.25 0 0 0 2.31,-11.71a5,5 0 0 0 -2.52,1.53"/>
     <path id="svg_50" fill="#f16667" d="m281.91,271.27a83.08,83.08 0 0 0 2.58,-9.33a3.6,3.6 0 0 0 -0.28,-3a3.66,3.66 0 0 0 -2.24,-1a14.69,14.69 0 0 0 -4.22,-0.41a4.38,4.38 0 0 0 -3.44,7.1a14.57,14.57 0 0 0 3.85,3.82l3.75,2.88"/>
     <path id="svg_51" fill="#86c440" d="m188.36,110.17c0.86,-3.86 -0.84,-8 -3.61,-10.79s-6.48,-4.53 -10.23,-5.78s-7.64,-2.1 -11.33,-3.54c-0.29,4.38 -0.41,9.06 1.81,12.84a15.38,15.38 0 0 0 3.6,4a23.72,23.72 0 0 0 11.75,5.14c2.41,0.34 5,0.34 7.08,1.55l0.48,-3.2"/>
     <path id="svg_52" fill="#86c440" d="m188.13,201.5a5.39,5.39 0 0 0 -0.95,-5.7a10.58,10.58 0 0 0 -5.2,-3a21.52,21.52 0 0 0 -7.18,-0.88c-3.94,0.19 -7.89,1.47 -11.77,0.74a16.57,16.57 0 0 0 13.94,12.92a32.63,32.63 0 0 0 4.42,0.11c1.77,0 3.83,-0.24 4.75,-1.75c0.59,-1 2,-2.39 1.42,-3"/>
     <path id="svg_53" fill="#86c440" d="m270.14,111.66a5.37,5.37 0 0 0 5.14,2.64a10.67,10.67 0 0 0 5.55,-2.36a21.61,21.61 0 0 0 5,-5.24c2.19,-3.28 3.53,-7.2 6.42,-9.88a16.55,16.55 0 0 0 -18.68,3.48a32.93,32.93 0 0 0 -2.73,3.48c-1,1.44 -2.09,3.22 -1.42,4.85c0.42,1.05 0.73,3 1.59,3"/>
     <path id="svg_54" fill="#86c440" d="m231.75,260.3c2.2,-1.95 5.79,-1.69 8.14,0.08a11.19,11.19 0 0 1 4,7.61a39.32,39.32 0 0 1 -0.26,8.8a25.56,25.56 0 0 0 0.29,8.77a13.68,13.68 0 0 0 1.72,4c-1.51,-1.27 -3.6,-1.48 -5.45,-2.17a15.46,15.46 0 0 1 -6.16,-4.69c-4.42,-5.21 -6.79,-12.77 -4,-19a9.78,9.78 0 0 1 3.2,-4.12"/>
     <path id="svg_55" fill="#fcf8cd" d="m256.42,303.13a4,4 0 1 0 4,-4a4,4 0 0 0 -4,4z"/>
     <path id="svg_56" fill="#fcf8cd" d="m209.22,273.96a3.75,3.75 0 1 0 3.75,-3.75a3.75,3.75 0 0 0 -3.75,3.75z"/>
     <path id="svg_57" fill="#fcf8cd" d="m245.9,256.23a2.16,2.16 0 1 0 2.15,-2.16a2.15,2.15 0 0 0 -2.15,2.16z"/>
     <circle id="svg_58" fill="#fcf8cd" r="2.93" cy="220.24" cx="285.62"/>
     <path id="svg_59" fill="#fcf8cd" d="m190.5,203.3a2.38,2.38 0 1 0 2.38,-2.38a2.38,2.38 0 0 0 -2.38,2.38z"/>
     <path id="svg_60" fill="#fcf8cd" d="m241,173.89a2.45,2.45 0 1 0 2.45,-2.45a2.44,2.44 0 0 0 -2.45,2.45z"/>
     <path id="svg_61" fill="#fcf8cd" d="m195.82,98.41a3.43,3.43 0 1 0 3.43,-3.43a3.44,3.44 0 0 0 -3.43,3.43z"/>
     <path id="svg_62" fill="#fcf8cd" d="m243.11,101.61a3.2,3.2 0 1 0 3.2,-3.2a3.2,3.2 0 0 0 -3.2,3.2z"/>
     <path id="svg_63" fill="#fcf8cd" d="m142.08,97.5a4.31,4.31 0 1 0 4.3,-4.3a4.31,4.31 0 0 0 -4.3,4.3z"/>
     <path id="svg_64" fill="#fcf8cd" d="m195.82,269.63a2,2 0 1 0 2,-2a2,2 0 0 0 -2,2z"/>
     <path id="svg_65" fill="#fcf8cd" d="m241.95,335.3a1.84,1.84 0 1 0 1.84,-1.83a1.84,1.84 0 0 0 -1.84,1.83z"/>
     <path id="svg_66" fill="#fcf8cd" d="m268.35,312.28a1.58,1.58 0 1 0 1.58,-1.57a1.58,1.58 0 0 0 -1.58,1.57z"/>
     <path id="svg_67" fill="#fcf8cd" d="m248.05,314.13a1.08,1.08 0 1 0 1.08,-1.08a1.07,1.07 0 0 0 -1.08,1.08z"/>
     <path id="svg_68" fill="#fcf8cd" d="m249.13,285.5a0.54,0.54 0 1 0 0.54,-0.54a0.54,0.54 0 0 0 -0.54,0.54z"/>
     <path id="svg_69" fill="#fcf8cd" d="m218.92,260.83a1.89,1.89 0 1 0 1.89,-1.89a1.88,1.88 0 0 0 -1.89,1.89z"/>
     <path id="svg_70" fill="#fcf8cd" d="m208.21,228.19a2.38,2.38 0 1 0 2.38,-2.39a2.39,2.39 0 0 0 -2.38,2.39z"/>
     <path id="svg_71" fill="#fcf8cd" d="m241,158.91a1.4,1.4 0 1 0 1.39,-1.39a1.4,1.4 0 0 0 -1.39,1.39z"/>
     <path id="svg_72" fill="#fcf8cd" d="m232.64,95.19a2,2 0 1 0 2,-2a2,2 0 0 0 -2,2z"/>
     <path id="svg_73" fill="#fcf8cd" d="m137.11,87.97a0.85,0.85 0 1 0 0.85,-0.85a0.85,0.85 0 0 0 -0.85,0.85z"/>
     <g id="svg_74" opacity="0.28">
      <path id="svg_75" fill="#f16622" d="m110.5,41.1c1.11,-9.77 -0.26,-10.67 9.57,-10.88s12.27,17.09 14.47,17c1.92,7.62 3.76,18 5.83,25.3c19.34,68.06 26.79,133.23 53.09,202.58c6,15.81 24.88,36.83 39.78,47.68c11.75,8.56 39.31,14.39 45.5,2.51c0.64,6.6 3.48,16 7.1,20.57a12.18,12.18 0 0 1 2.43,3.56c1.48,4.54 -4.36,7.85 -9,8.86c-23.4,5 -49.1,-0.09 -68.45,-14.19a76.67,76.67 0 0 1 -29.18,-41.49c-19.38,-68 -41.32,-137 -60.67,-205.07c-4.09,-14.38 -9.72,-27.72 -9.72,-46.82l-0.75,-9.61z"/>
     </g>
     <circle transform="rotate(-22.5 -9088.54 -3673.98)" id="svg_76" opacity="0.36" fill="#fff" r="8.77" cy="3356.10002" cx="-1833.49004"/>
     <path id="svg_77" fill="#dace61" d="m245.62,298.69a1.56,1.56 0 0 0 3.11,0a1.56,1.56 0 1 0 -3.11,0z"/>
     <path id="svg_78" fill="#dace61" d="m246.31,276.18a1.95,1.95 0 1 0 1.95,-2a1.95,1.95 0 0 0 -1.95,2z"/>
     <path id="svg_79" fill="#dace61" d="m269.2,300.28a2.14,2.14 0 1 0 2.14,-2.14a2.14,2.14 0 0 0 -2.14,2.14z"/>
     <path id="svg_80" fill="#dace61" d="m221.76,283.01a1.34,1.34 0 1 0 1.34,-1.34a1.34,1.34 0 0 0 -1.34,1.34z"/>
     <path id="svg_81" fill="#dace61" d="m256.42,249.28a1.26,1.26 0 1 0 1.25,-1.26a1.25,1.25 0 0 0 -1.25,1.26z"/>
     <circle id="svg_82" fill="#dace61" r="0.81" cy="229" cx="276.68"/>
     <path id="svg_83" fill="#dace61" d="m248.05,171.5a1.08,1.08 0 1 0 1.08,-1.07a1.08,1.08 0 0 0 -1.08,1.07z"/>
     <path id="svg_84" fill="#dace61" d="m229.5,104.72a2.55,2.55 0 1 0 2.54,-2.54a2.55,2.55 0 0 0 -2.54,2.54z"/>
     <circle id="svg_85" fill="#dace61" r="1.73" cy="94.95" cx="260.66"/>
     <path id="svg_86" fill="#dace61" d="m202.68,104.96a1.32,1.32 0 1 0 1.32,-1.32a1.32,1.32 0 0 0 -1.32,1.32z"/>
     <path id="svg_87" fill="#dace61" d="m182.65,91.64a1.59,1.59 0 1 0 1.59,-1.58a1.59,1.59 0 0 0 -1.59,1.58z"/>
     <path id="svg_88" fill="#dace61" d="m154.39,105.5a1.82,1.82 0 1 0 1.81,-1.82a1.81,1.81 0 0 0 -1.81,1.82z"/>
     <path id="svg_89" fill="#dace61" d="m197.78,280.58a2.45,2.45 0 1 0 2.45,-2.45a2.45,2.45 0 0 0 -2.45,2.45z"/>
     <path id="svg_90" fill="#dace61" d="m198.5,239.5a2.09,2.09 0 1 0 2.09,-2.09a2.08,2.08 0 0 0 -2.09,2.09z"/>
     <path id="svg_91" fill="#dace61" d="m190.5,190.5a1.86,1.86 0 1 0 1.86,-1.86a1.85,1.85 0 0 0 -1.86,1.86z"/>
     <path id="svg_92" fill="#dace61" d="m292.24,211.5a2.35,2.35 0 1 0 2.35,-2.34a2.35,2.35 0 0 0 -2.35,2.34z"/>
     <circle id="svg_93" fill="#dace61" r="1.24" cy="185.93" cx="299.68"/>
     <path id="svg_94" fill="#f16667" d="m278.89,273.5q-4.92,-4.39 -9.82,-8.81a1.63,1.63 0 0 0 -0.87,-0.49a1.35,1.35 0 0 0 -0.93,0.41c-2,1.67 -2.66,4.46 -3,7.06a10.23,10.23 0 0 0 0,3.49a3.83,3.83 0 0 0 2,2.73a5.41,5.41 0 0 0 3.51,0a39.59,39.59 0 0 0 8.55,-3.23a1.45,1.45 0 0 0 0.75,-0.67c0.12,-0.32 -0.14,-0.77 -0.48,-0.69"/>
    </g>
   </g>
   <g id="EYES">
    <g id="svg_95">
     <path id="svg_96" fill="#dace61" d="m139.61,117.16l0.38,4.27c6.21,3 8.52,18 9.85,24.91s3.06,14.95 6.44,21.05c3.24,5.83 9,9.94 15.23,12.13s12.94,2.6 19.53,2.36c9.85,-0.37 26.63,-1.86 32.75,-9.72c3.33,-4.29 7.33,-7.31 11.26,-31.31c0.77,-4.7 1.45,-8.76 6.1,-9.28c9.22,-1 6.66,20.86 10.68,29.26c2.78,5.8 6.65,11.31 12.18,14.47a42.7,42.7 0 0 0 14.47,5.14a77.5,77.5 0 0 0 21,0.19a35.38,35.38 0 0 0 9.36,-2.43s2.11,-8.44 3.21,-11.56c4.17,-11.83 13.92,-18.41 19,-29.92c1.37,-3.05 1.42,-5.12 4.55,-6.19c-0.46,-4 -0.51,-1.54 -0.93,-12.46c-20.77,-5.49 -41.11,-9.27 -62.37,-6.27c-11.54,1.62 -23,4.5 -34.62,4.57c-10.2,0.06 -20.28,-2 -30.41,-3.33a193.39,193.39 0 0 0 -68.48,3.59"/>
     <path id="svg_97" fill="#653514" d="m144.75,113.41c-5.95,0.44 -17.34,-6.37 -24.7,-9.4a3.16,3.16 0 0 0 -1.66,-0.35c-1.24,0.21 -1.74,1.7 -1.94,2.93a42.3,42.3 0 0 0 -0.45,8.78a6,6 0 0 0 1.19,3.86c0.93,1 2.85,1.17 3.54,0c0.31,-0.54 0.36,-1.27 0.89,-1.58a1.73,1.73 0 0 1 1.6,0.23c6.55,3.46 12.31,9.11 19.67,9.88"/>
     <path id="svg_98" fill="#653514" d="m139.63,114.37l1.14,12.81c6.31,3 9.28,10.33 10.64,17.19s1.72,14.14 5.16,20.23c3.29,5.84 9.14,9.95 15.48,12.13s13.15,2.61 19.85,2.36c10,-0.36 27.06,-1.85 33.28,-9.72c3.39,-4.28 7.45,-7.31 11.45,-31.31c0.78,-4.7 1.46,-8.75 6.2,-9.28c9.36,-1 6.76,20.87 10.85,29.26c2.83,5.8 6.76,11.31 12.38,14.47a43.88,43.88 0 0 0 14.71,5.14a79.61,79.61 0 0 0 21.31,0.19c7,-0.84 14,-3.57 18.84,-8.78c8.56,-9.29 8.08,-23.61 13.29,-35.12c1.39,-3.06 1.44,-5.13 4.62,-6.19c-0.47,-4 -0.52,-1.54 -0.94,-12.47c-21.12,-5.49 -41.78,-9.26 -63.39,-6.27c-11.73,1.62 -23.35,4.5 -35.19,4.57c-10.37,0.06 -20.61,-2 -30.9,-3.32a199.48,199.48 0 0 0 -69.61,3.59"/>
     <path id="svg_99" fill="#996733" d="m161.5,122.38c-1.76,9.95 -0.9,20.63 1,30.55c1.24,6.38 3.55,13.06 8.92,16.88c3.92,2.79 8.93,3.63 13.77,4a80.55,80.55 0 0 0 17.69,-0.78a35,35 0 0 0 11.89,-3.67c6.49,-3.66 10.7,-10.41 12.75,-17.46s2.19,-14.49 2.24,-21.83a16.56,16.56 0 0 0 -0.55,-5.3c-1.73,-5.17 -7.86,-7.37 -13.29,-8.51a124.55,124.55 0 0 0 -30.7,-2.54c-8.71,0.36 -18.23,2.09 -23.75,8.7"/>
     <g id="svg_100" opacity="0.51">
      <path id="svg_101" fill="#cb9866" d="m210.21,162.21c2.05,-7.06 2.19,-14.49 2.24,-21.83a16,16 0 0 0 -0.55,-5.3c-1.72,-5.17 -7.86,-7.37 -13.29,-8.51a124.55,124.55 0 0 0 -30.7,-2.54a64.33,64.33 0 0 0 -7,0.64c0.11,-0.81 0.23,-1.63 0.38,-2.44c5.51,-6.6 15,-8.34 23.74,-8.7a124.55,124.55 0 0 1 30.7,2.54c5.43,1.14 11.56,3.34 13.29,8.51a16.28,16.28 0 0 1 0.55,5.3c0,7.34 -0.19,14.77 -2.24,21.83s-6.26,13.8 -12.75,17.46a31.05,31.05 0 0 1 -9.19,3.19a33.83,33.83 0 0 0 4.82,-10.15z"/>
     </g>
     <path id="svg_102" fill="#996733" d="m260.39,120.69c-2,7.29 -1.59,15 -0.82,22.56a45.73,45.73 0 0 0 2,10.34c3,8.71 10.9,15.23 19.71,17.93s18.42,1.9 27.23,-0.83a20.56,20.56 0 0 0 8.17,-4.21a18.07,18.07 0 0 0 3.69,-5.24c3.35,-6.72 4.51,-14.32 5,-21.82c0.39,-6.68 0.52,-14.42 -4.25,-19.11c-11.11,-10.88 -51.18,-5.55 -54,-4.56a10.68,10.68 0 0 0 -6.65,5.78"/>
     <g id="svg_103" opacity="0.51">
      <path id="svg_104" fill="#cb9866" d="m304.11,171.05c3.36,-6.72 4.52,-14.32 5,-21.82c0.39,-6.67 0.52,-14.42 -4.26,-19.1c-8.24,-8.08 -32.45,-7.23 -45.54,-5.85a33.62,33.62 0 0 1 0.79,-3.55l-0.06,0.84a10.69,10.69 0 0 1 6.64,-5.78c2.87,-1 42.93,-6.32 54,4.57c4.78,4.68 4.65,12.43 4.26,19.1c-0.44,7.5 -1.6,15.1 -5,21.82a18.22,18.22 0 0 1 -3.68,5.25a20.58,20.58 0 0 1 -8.18,4.2q-2.21,0.69 -4.47,1.2c0.2,-0.29 0.36,-0.59 0.5,-0.88z"/>
     </g>
     <circle id="svg_105" opacity="0.5" fill="#fff" r="7.81" cy="129.95" cx="213.13"/>
     <path id="svg_106" opacity="0.5" fill="#fff" d="m201.3,134.84a5.89,5.89 0 1 0 4.63,-4.63a5.9,5.9 0 0 0 -4.63,4.63z"/>
     <circle id="svg_107" opacity="0.5" fill="#fff" r="7.81" cy="131.83" cx="308.87"/>
     <path id="svg_108" opacity="0.5" fill="#fff" d="m297.04,136.72a5.9,5.9 0 1 0 4.63,-4.63a5.9,5.9 0 0 0 -4.63,4.63z"/>
    </g>
   </g>
   <g id="MOUTH">
    <g id="svg_109" opacity="0.94">
     <path id="svg_110" fill="#fff" d="m275.39,183.2c-4.49,4.44 -7.88,16.94 -8,19.11c-0.05,1.48 4.2,8.44 6.21,13.7c-12.32,0.27 -23.7,1.69 -36,1.52c-6.83,-0.09 -20.6,-0.63 -26.12,-4.34c-3.15,-2.12 -10.57,-19.65 -11.64,-30c16.27,4.42 24.58,4.7 47.32,4.87a105.32,105.32 0 0 0 26.33,-2.74"/>
    </g>
    <path id="svg_111" fill="#dace61" d="m274.5,215.93c-4.93,0.59 -51.28,0.64 -61,-1.57a4.15,4.15 0 0 1 -1.51,-0.55a4,4 0 0 1 -1,-1.13c-2.87,-4.25 -4.05,-8.4 -6.16,-13.06s-3.31,-10.9 -5.46,-15.36c1.68,10.67 9.8,32.5 10.45,32.75c10,4 65.22,2 67.63,1.95l-2.72,-2.76"/>
    <path id="svg_112" opacity="0.22" fill="#cccbcb" d="m272.89,186.6l-2.52,5.37s-17.35,0.52 -27.16,0.61c-16.82,0.15 -40.09,-3.81 -42.8,-6l-0.55,-3.4s21.68,4.6 32.24,4.65s42,-3.16 42,-3.16l-1.21,1.93z"/>
    <path id="svg_113" fill="#dace61" d="m194.19,181.5s42.9,5.95 78.17,1.67l6.56,-0.95l-2.19,3.43a48.44,48.44 0 0 0 -7.07,0.45c-2.72,0.5 -31.79,2.39 -43.51,1.47c-24.46,-1.89 -31.96,-6.07 -31.96,-6.07z"/>
   </g>
  </g>
 </g>
</svg>