<?xml version="1.0" encoding="utf-8"?>
<!-- Generator: Adobe Illustrator 16.0.0, SVG Export Plug-In . SVG Version: 6.00 Build 0)  -->
<!DOCTYPE svg PUBLIC "-//W3C//DTD SVG 1.1//EN" "http://www.w3.org/Graphics/SVG/1.1/DTD/svg11.dtd">
<svg version="1.1" id="Layer_1" xmlns="http://www.w3.org/2000/svg" xmlns:xlink="http://www.w3.org/1999/xlink" x="0px" y="0px"
	 width="20px" height="20px" viewBox="0 0 20 20" enable-background="new 0 0 20 20" xml:space="preserve">
<g>
	<path fill-rule="evenodd" clip-rule="evenodd" fill="#FACC4D" d="M4.755,18.83l12.342-7.125c0.607-0.349,1.103-1.206,1.103-1.907
		v-6.85c0-0.703-0.495-0.987-1.103-0.639L4.755,9.436c-0.606,0.351-1.1,1.208-1.1,1.906v6.855
		C3.655,18.893,4.149,19.182,4.755,18.83z"/>
	<polygon fill-rule="evenodd" clip-rule="evenodd" fill="#D19917" points="17.413,3.167 15.955,2.324 15.999,2.367 16.036,2.425 
		16.056,2.5 16.06,2.587 16.06,2.796 16.06,3.002 16.06,3.211 16.06,3.418 16.06,3.625 16.06,3.831 16.06,4.04 16.06,4.249 
		16.06,4.455 16.06,4.662 16.06,4.868 16.06,5.077 16.06,5.284 16.06,5.492 16.06,5.699 16.06,5.905 16.06,6.114 16.06,6.321 
		16.06,6.527 16.06,6.736 16.06,6.943 16.06,7.149 16.06,7.355 16.06,7.564 16.06,7.771 16.06,7.98 16.06,8.186 16.06,8.393 
		16.06,8.601 16.06,8.808 16.06,9.017 16.06,9.223 16.056,9.32 16.036,9.42 15.999,9.519 15.955,9.612 15.897,9.701 15.837,9.78 
		15.769,9.847 15.695,9.899 15.307,10.125 14.913,10.35 14.527,10.574 14.139,10.799 13.75,11.023 13.358,11.247 12.968,11.473 
		12.579,11.697 12.19,11.922 11.802,12.146 11.413,12.371 11.022,12.596 10.635,12.82 10.246,13.043 9.857,13.27 9.466,13.494 
		9.078,13.721 8.688,13.943 8.3,14.17 7.911,14.393 7.521,14.617 7.131,14.842 6.744,15.066 6.355,15.293 5.966,15.518 
		5.576,15.742 5.186,15.965 4.797,16.188 4.409,16.414 4.019,16.641 3.63,16.863 3.239,17.086 3.167,17.123 3.098,17.135 
		3.035,17.127 2.98,17.104 4.44,17.945 4.496,17.971 4.559,17.979 4.627,17.967 4.702,17.93 5.091,17.707 5.48,17.482 5.869,17.258 
		6.258,17.033 6.647,16.811 7.038,16.584 7.427,16.357 7.813,16.135 8.203,15.91 8.594,15.686 8.982,15.461 9.371,15.238 
		9.76,15.012 10.149,14.787 10.538,14.561 10.929,14.336 11.318,14.113 11.705,13.889 12.094,13.664 12.484,13.439 12.873,13.213 
		13.262,12.988 13.65,12.764 14.042,12.541 14.431,12.314 14.82,12.092 15.209,11.867 15.598,11.643 15.987,11.417 16.376,11.192 
		16.765,10.968 17.153,10.742 17.227,10.69 17.3,10.623 17.356,10.544 17.413,10.457 17.462,10.361 17.494,10.264 17.515,10.163 
		17.522,10.066 17.522,9.859 17.522,9.651 17.522,9.444 17.522,9.238 17.522,9.029 17.522,8.823 17.522,8.616 17.522,8.409 
		17.522,8.201 17.522,7.992 17.522,7.785 17.522,7.579 17.522,7.372 17.522,7.164 17.522,6.957 17.522,6.748 17.522,6.542 
		17.522,6.335 17.522,6.126 17.522,5.919 17.522,5.713 17.522,5.504 17.522,5.298 17.522,5.091 17.522,4.882 17.522,4.676 
		17.522,4.469 17.522,4.26 17.522,4.054 17.522,3.848 17.522,3.639 17.522,3.432 17.515,3.343 17.494,3.268 17.462,3.209 	"/>
	<polygon fill-rule="evenodd" clip-rule="evenodd" fill="#F0B11D" points="17.875,2.235 15.89,1.088 15.728,1.025 15.541,1.018 
		15.33,1.062 15.112,1.164 2.768,8.29 2.656,8.36 2.547,8.443 2.441,8.537 2.34,8.638 2.245,8.745 2.154,8.862 2.069,8.984 
		1.99,9.112 1.921,9.243 1.856,9.377 1.802,9.515 1.755,9.653 1.719,9.789 1.69,9.926 1.674,10.063 1.668,10.196 1.668,17.047 
		1.69,17.293 1.755,17.492 1.856,17.65 1.99,17.76 3.979,18.91 3.843,18.797 3.742,18.643 3.677,18.439 3.655,18.197 3.655,11.342 
		3.661,11.211 3.677,11.074 3.706,10.937 3.742,10.799 3.789,10.662 3.843,10.524 3.908,10.39 3.979,10.259 4.056,10.13 
		4.141,10.009 4.232,9.894 4.33,9.784 4.429,9.683 4.534,9.59 4.644,9.509 4.755,9.436 17.097,2.31 17.32,2.208 17.525,2.164 
		17.712,2.172 	"/>
	<path fill-rule="evenodd" clip-rule="evenodd" fill="#FACC4D" d="M4.755,18.83l12.342-7.125c0.607-0.349,1.103-1.206,1.103-1.907
		V2.946c0-0.698-0.495-0.984-1.103-0.636L4.755,9.436c-0.606,0.351-1.1,1.208-1.1,1.906v6.855
		C3.655,18.893,4.149,19.182,4.755,18.83L4.755,18.83z M17.153,3.181c0.203-0.118,0.369-0.004,0.369,0.251c0,2.212,0,4.422,0,6.634
		c0,0.255-0.166,0.559-0.369,0.676c-4.149,2.396-8.301,4.793-12.452,7.188c-0.204,0.121-0.37,0.008-0.37-0.248
		c0-2.211,0-4.424,0-6.635c0-0.256,0.167-0.56,0.37-0.677C8.853,7.974,13.004,5.577,17.153,3.181z"/>
	<path fill-rule="evenodd" clip-rule="evenodd" fill="#F0B11D" d="M17.161,3.177c0,0.015,0,0.03,0,0.046c0,2.212,0,4.424,0,6.634
		c0,0.257-0.161,0.561-0.368,0.679c-4.15,2.396-8.301,4.792-12.45,7.19h-0.01c0-0.016-0.002-0.027-0.002-0.045
		c0-2.211,0-4.424,0-6.635c0-0.256,0.167-0.56,0.37-0.677c4.151-2.396,8.302-4.792,12.452-7.188L17.161,3.177z"/>
	<polygon fill-rule="evenodd" clip-rule="evenodd" fill="#D19917" points="10.998,9.902 10.801,9.789 10.933,9.72 11.057,9.657 
		11.174,9.598 11.287,9.547 11.393,9.503 11.49,9.462 11.584,9.428 11.671,9.399 11.867,9.513 11.78,9.541 11.688,9.576 
		11.587,9.616 11.484,9.661 11.371,9.713 11.253,9.771 11.13,9.833 	"/>
	<polygon fill-rule="evenodd" clip-rule="evenodd" fill="#D19917" points="11.867,9.513 11.671,9.399 11.753,9.379 11.83,9.367 
		11.903,9.363 11.975,9.367 12.039,9.381 12.1,9.403 12.158,9.432 12.355,9.545 12.296,9.515 12.235,9.493 12.17,9.48 12.1,9.477 
		12.027,9.478 11.948,9.493 	"/>
	<polygon fill-rule="evenodd" clip-rule="evenodd" fill="#D19917" points="10.53,13.617 10.333,13.502 10.333,12.98 10.53,13.094 	
		"/>
	<polygon fill-rule="evenodd" clip-rule="evenodd" fill="#D19917" points="9.221,13.42 9.024,13.307 8.982,13.277 8.944,13.242 
		8.907,13.201 8.873,13.156 8.843,13.104 9.037,13.217 9.069,13.27 9.102,13.316 9.14,13.355 9.179,13.391 	"/>
	<polygon fill-rule="evenodd" clip-rule="evenodd" fill="#D19917" points="9.037,13.217 8.843,13.104 8.814,13.043 8.79,12.979 
		8.77,12.908 8.751,12.828 8.739,12.744 8.731,12.654 8.725,12.557 8.723,12.453 8.919,12.566 8.922,12.668 8.926,12.768 
		8.936,12.859 8.948,12.943 8.966,13.021 8.986,13.092 9.011,13.156 	"/>
	<polygon fill-rule="evenodd" clip-rule="evenodd" fill="#D19917" points="8.919,12.566 8.723,12.453 8.719,12.279 8.914,12.393 	
		"/>
	<polygon fill-rule="evenodd" clip-rule="evenodd" fill="#D19917" points="8.914,12.393 8.719,12.279 9.46,11.852 9.655,11.961 	"/>
	<polygon fill-rule="evenodd" clip-rule="evenodd" fill="#D19917" points="9.8,12.584 9.604,12.473 9.626,12.482 9.653,12.49 
		9.677,12.494 9.703,12.5 9.732,12.5 9.758,12.494 9.787,12.488 9.819,12.482 9.847,12.473 9.88,12.461 10.076,12.574 
		10.044,12.586 10.013,12.596 9.983,12.602 9.955,12.607 9.926,12.609 9.897,12.609 9.874,12.607 9.847,12.604 9.823,12.596 	"/>
	<polygon fill-rule="evenodd" clip-rule="evenodd" fill="#D19917" points="10.076,12.574 9.88,12.461 9.914,12.443 9.957,12.428 
		10.003,12.406 10.058,12.379 10.119,12.35 10.184,12.318 10.254,12.281 10.333,12.242 10.53,12.355 10.451,12.393 10.378,12.43 
		10.313,12.463 10.252,12.492 10.199,12.518 10.151,12.541 10.111,12.557 	"/>
	<polygon fill-rule="evenodd" clip-rule="evenodd" fill="#D19917" points="10.53,12.355 10.333,12.242 10.333,10.771 10.53,10.884 	
		"/>
	<polygon fill-rule="evenodd" clip-rule="evenodd" fill="#D19917" points="9.251,11.229 9.056,11.115 9.013,11.089 8.976,11.057 
		8.94,11.018 8.909,10.976 8.879,10.925 9.076,11.039 9.106,11.087 9.136,11.133 9.173,11.17 9.209,11.203 	"/>
	<polygon fill-rule="evenodd" clip-rule="evenodd" fill="#D19917" points="9.076,11.039 8.879,10.925 8.853,10.868 8.83,10.804 
		8.812,10.73 8.796,10.649 8.784,10.562 8.776,10.465 8.772,10.361 8.77,10.252 8.772,10.112 8.782,9.977 8.796,9.847 8.816,9.72 
		8.845,9.6 8.879,9.483 8.917,9.372 8.962,9.266 9.158,9.379 9.114,9.484 9.076,9.596 9.041,9.713 9.013,9.835 8.993,9.958 
		8.976,10.088 8.968,10.224 8.966,10.366 8.966,10.477 8.972,10.581 8.98,10.675 8.993,10.763 9.009,10.844 9.027,10.917 
		9.049,10.981 	"/>
	<polygon fill-rule="evenodd" clip-rule="evenodd" fill="#D19917" points="9.158,9.379 8.962,9.266 9.013,9.163 9.069,9.063 
		9.128,8.968 9.193,8.877 9.262,8.79 9.335,8.705 9.412,8.624 9.495,8.547 9.691,8.66 9.608,8.737 9.531,8.816 9.458,8.901 
		9.389,8.991 9.325,9.082 9.266,9.177 9.209,9.276 	"/>
	<polygon fill-rule="evenodd" clip-rule="evenodd" fill="#D19917" points="9.691,8.66 9.495,8.547 9.582,8.472 9.673,8.396 
		9.77,8.322 9.874,8.247 9.981,8.176 10.092,8.101 10.21,8.028 10.333,7.955 10.53,8.068 10.406,8.142 10.289,8.215 10.177,8.288 
		10.068,8.36 9.967,8.436 9.87,8.51 9.776,8.583 	"/>
	<polygon fill-rule="evenodd" clip-rule="evenodd" fill="#D19917" points="10.53,8.068 10.333,7.955 10.333,7.496 10.53,7.609 	"/>
	<polygon fill-rule="evenodd" clip-rule="evenodd" fill="#D19917" points="10.53,7.609 10.333,7.496 10.801,7.224 10.998,7.337 	"/>
	<polygon fill-rule="evenodd" clip-rule="evenodd" fill="#D19917" points="10.998,7.799 10.801,7.684 10.939,7.615 11.066,7.55 
		11.188,7.493 11.3,7.443 11.405,7.4 11.502,7.364 11.592,7.335 11.673,7.311 11.868,7.426 11.786,7.449 11.699,7.478 11.602,7.514 
		11.495,7.559 11.382,7.607 11.264,7.664 11.136,7.729 	"/>
	<polygon fill-rule="evenodd" clip-rule="evenodd" fill="#D19917" points="11.868,7.426 11.673,7.311 11.747,7.297 11.818,7.292 
		11.883,7.295 11.946,7.309 12.002,7.332 12.196,7.443 12.141,7.421 12.08,7.408 12.013,7.406 11.943,7.411 	"/>
	<polygon fill-rule="evenodd" clip-rule="evenodd" fill="#D19917" points="11.78,8.812 11.584,8.698 11.584,8.689 11.581,8.678 
		11.581,8.667 11.581,8.656 11.579,8.644 11.579,8.63 11.579,8.616 11.579,8.601 11.577,8.517 11.568,8.441 11.559,8.375 
		11.545,8.32 11.524,8.273 11.502,8.237 11.476,8.21 11.671,8.324 11.699,8.35 11.721,8.387 11.741,8.433 11.755,8.488 
		11.766,8.553 11.771,8.63 11.775,8.715 11.775,8.729 11.775,8.743 11.775,8.756 11.775,8.77 11.778,8.78 11.778,8.792 11.78,8.802 
			"/>
	<polygon fill-rule="evenodd" clip-rule="evenodd" fill="#D19917" points="10.998,12.086 10.801,11.971 10.945,11.889 
		11.035,11.834 11.117,11.779 11.194,11.723 11.267,11.664 11.332,11.605 11.391,11.545 11.443,11.482 11.492,11.42 11.688,11.531 
		11.64,11.596 11.587,11.656 11.526,11.719 11.461,11.777 11.391,11.836 11.313,11.893 11.23,11.947 11.141,12.002 	"/>
	<polygon fill-rule="evenodd" clip-rule="evenodd" fill="#D19917" points="11.688,11.531 11.492,11.42 11.532,11.35 11.568,11.279 
		11.602,11.203 11.626,11.121 11.646,11.035 11.66,10.943 11.668,10.848 11.671,10.745 11.668,10.667 11.665,10.597 11.655,10.532 
		11.646,10.477 11.632,10.428 11.613,10.386 11.594,10.354 11.568,10.325 11.766,10.439 11.789,10.465 11.81,10.5 11.828,10.542 
		11.842,10.591 11.853,10.645 11.86,10.71 11.865,10.779 11.867,10.858 11.865,10.959 11.854,11.057 11.842,11.147 11.822,11.234 
		11.796,11.316 11.766,11.393 11.729,11.463 	"/>
	<polygon fill-rule="evenodd" clip-rule="evenodd" fill="#FACC4D" points="11.766,10.439 11.568,10.325 11.542,10.303 
		11.516,10.287 11.711,10.4 11.739,10.418 	"/>
	<polygon fill-rule="evenodd" clip-rule="evenodd" fill="#FACC4D" points="9.863,10.346 9.669,10.232 9.716,10.246 9.912,10.36 	"/>
	<polygon fill-rule="evenodd" clip-rule="evenodd" fill="#D19917" points="9.912,10.36 9.716,10.246 9.77,10.25 9.831,10.246 
		9.897,10.232 9.971,10.212 10.054,10.182 10.139,10.143 10.234,10.096 10.333,10.04 10.53,10.155 10.429,10.21 10.337,10.256 
		10.25,10.294 10.167,10.325 10.094,10.346 10.027,10.357 9.967,10.364 	"/>
	<polygon fill-rule="evenodd" clip-rule="evenodd" fill="#D19917" points="10.53,10.155 10.333,10.04 10.333,8.709 10.53,8.82 	"/>
	<path fill-rule="evenodd" clip-rule="evenodd" fill="#FACC4D" d="M10.998,8.551v1.351c0.355-0.19,0.646-0.32,0.869-0.389
		c0.223-0.067,0.404-0.043,0.541,0.071c0.137,0.116,0.205,0.364,0.205,0.746c0,0.386-0.05,0.721-0.149,0.999
		s-0.253,0.523-0.465,0.744c-0.211,0.221-0.497,0.441-0.858,0.67l-0.143,0.08v0.523l-0.468,0.271v-0.523
		c-0.245,0.141-0.466,0.246-0.659,0.316c-0.194,0.066-0.36,0.09-0.504,0.063c-0.142-0.025-0.251-0.109-0.33-0.256
		c-0.079-0.146-0.118-0.365-0.118-0.65l-0.006-0.174l0.741-0.432c0,0.219,0.017,0.373,0.047,0.473
		c0.03,0.098,0.079,0.154,0.146,0.17c0.067,0.018,0.142,0.006,0.229-0.029c0.085-0.035,0.237-0.111,0.454-0.219v-1.471
		c-0.286,0.141-0.515,0.245-0.683,0.309c-0.17,0.066-0.32,0.09-0.456,0.078c-0.138-0.015-0.241-0.094-0.316-0.232
		C9,10.896,8.966,10.671,8.966,10.366c0-0.381,0.063-0.709,0.192-0.986C9.288,9.1,9.464,8.861,9.691,8.66
		c0.225-0.202,0.504-0.399,0.838-0.592V7.609l0.468-0.271v0.462c0.374-0.199,0.664-0.322,0.87-0.373
		c0.205-0.05,0.363-0.005,0.473,0.136s0.165,0.419,0.165,0.83L11.78,8.812c-0.002-0.026-0.005-0.056-0.005-0.097
		c0-0.241-0.047-0.376-0.136-0.407c-0.091-0.035-0.242,0.012-0.46,0.137L10.998,8.551L10.998,8.551z M10.998,10.613v1.473L11.141,12
		c0.248-0.139,0.428-0.297,0.548-0.469c0.119-0.171,0.179-0.396,0.179-0.673c0-0.217-0.034-0.356-0.102-0.419
		c-0.066-0.063-0.154-0.078-0.261-0.045C11.398,10.428,11.229,10.501,10.998,10.613L10.998,10.613z M10.53,8.82l-0.115,0.067
		c-0.164,0.095-0.294,0.184-0.391,0.268c-0.097,0.079-0.174,0.18-0.231,0.301C9.736,9.578,9.707,9.734,9.707,9.922
		c0,0.27,0.069,0.416,0.205,0.438s0.342-0.047,0.618-0.205V8.82z"/>
	<polygon fill-rule="evenodd" clip-rule="evenodd" fill="#D19917" points="2.12,8.911 2.069,8.984 1.99,9.112 1.921,9.243 
		1.856,9.377 1.802,9.515 1.755,9.653 1.719,9.789 1.69,9.926 1.674,10.063 1.668,10.196 1.668,17.047 1.69,17.293 1.755,17.492 
		1.856,17.65 1.99,17.76 3.979,18.91 3.843,18.797 3.742,18.643 3.677,18.439 3.655,18.197 3.655,11.342 3.661,11.211 3.677,11.074 
		3.706,10.937 3.742,10.799 3.789,10.662 3.843,10.524 3.908,10.39 3.979,10.259 4.056,10.13 4.107,10.06 	"/>
</g>
</svg>
