<?xml version="1.0" encoding="utf-8"?>
<!-- Generator: Adobe Illustrator 16.0.0, SVG Export Plug-In . SVG Version: 6.00 Build 0)  -->
<!DOCTYPE svg PUBLIC "-//W3C//DTD SVG 1.1//EN" "http://www.w3.org/Graphics/SVG/1.1/DTD/svg11.dtd">
<svg version="1.1" id="Layer_1" xmlns="http://www.w3.org/2000/svg" xmlns:xlink="http://www.w3.org/1999/xlink" x="0px" y="0px"
	 width="622px" height="482px" viewBox="0 0 622 482" enable-background="new 0 0 622 482" xml:space="preserve">
<g>
	<g>
		<g>
			<ellipse fill="#77AFAE" cx="167" cy="448.121" rx="82.633" ry="12.6"/>
		</g>
		<g>
			<g>
				<path fill="#653614" d="M373.425,305.8c-11.782,4.956-26.511-0.162-36.049-7.695c-11.421-9.021-14.383-21.558-17.709-35
					c-0.369-1.493-2.926-1.208-2.731,0.37c1.769,14.378,7.456,29.452,19.305,38.497c9.511,7.26,27.402,15.177,38.501,6.951
					C376.159,307.872,375.353,304.989,373.425,305.8L373.425,305.8z"/>
			</g>
		</g>
		<g>
			<path fill="#653614" d="M318.654,262.494c5.008-2.884,6.291-9.741,5.035-15.382c-0.658-2.958-1.958-5.923-4.371-7.754
				c-2.414-1.832-6.128-2.168-8.383-0.144c-2.602,2.337-2.269,6.526-1.059,9.809c1.738,4.717,4.866,8.911,8.891,11.925"/>
			<g>
				<path fill="#653614" d="M319.097,264.098c11.21-4.349,8.38-23.704-1.631-27.632c-5.436-2.132-9.531,2.417-10.156,7.299
					c-0.894,6.992,5.321,14.321,10.014,18.627c2.175,1.994,4.924-1.522,2.474-3.206c-3.088-2.121-5.476-4.99-7.26-8.251
					c-0.996-1.819-1.607-3.791-1.875-5.841c-0.754-5.78,5.045-6.563,8.34-3.602c5.834,5.245,2.974,15.14-1.524,19.826
					C316.406,262.435,317.462,264.732,319.097,264.098L319.097,264.098z"/>
			</g>
		</g>
		<g>
			<ellipse fill="#77AFAE" cx="451.446" cy="448.121" rx="78.013" ry="11.756"/>
			<g>
				<g>
					<path fill="#F8B051" d="M357.342,302.619c3.512,44.511,42.031,82.277,96.832,82.351c82.379,0.109,96.115-72.345,96.844-80.734
						c3.891-44.706-27.02-83.62-95.392-83.712C385.472,220.429,353.899,258.967,357.342,302.619z"/>
				</g>
				<path opacity="0.2" fill="#D58128" d="M395.318,233.148c-6.57,12.058-9.227,25.86-8.094,40.218
					c3.511,44.511,42.031,82.276,96.832,82.351c21.697,0.028,38.627-4.979,51.816-12.521c-13.25,20.663-37.693,41.591-81.994,41.532
					c-54.802-0.074-93.322-37.84-96.833-82.351C354.818,274.131,367.258,248.03,395.318,233.148z"/>
				<g>
					<path fill="#F8991D" d="M489.496,235.452c69.12,28.941,38.939,121.896-17.672,147.786c-3.077,1.408-11.258,0.113-8.206-1.281
						c23.919-10.941,46.917-37.992,56.255-61.878c13.224-33.825,1.114-65.763-32.622-79.889
						C484.124,238.878,486.385,234.146,489.496,235.452L489.496,235.452z"/>
				</g>
				<g>
					<path fill="#F8991D" d="M460.604,377.664c17.489-14.688,30.912-28.413,39.382-50.397c9.64-25.02,7.923-78.711-25.247-86.644
						c-3.275-0.785-2.332-5.948,0.969-5.158c26.186,6.264,37.752,44.308,35.133,68.262c-3.743,34.207-22.09,57.127-47.222,78.23
						C461.021,384.136,458.037,379.82,460.604,377.664L460.604,377.664z"/>
				</g>
				<g>
					<path fill="#F8991D" d="M467.154,242.421c28.814,48.8,19.574,104.315-12.702,148.876c-1.989,2.746-5.987-0.656-4.016-3.378
						c30.754-42.456,39.978-95.823,12.425-142.482C461.15,242.54,465.436,239.509,467.154,242.421L467.154,242.421z"/>
				</g>
				<g>
					<path fill="#F8991D" d="M434.342,231.122c-35.488,14.183-60.023,42.117-51.349,81.835c5.782,26.481,25.396,53.226,50.353,64.44
						c3.091,1.39,0.84,6.126-2.244,4.738c-27.248-12.245-48.583-41.93-53.844-71.079c-7.469-41.367,18.584-70.193,55.32-84.877
						C435.723,224.923,437.476,229.867,434.342,231.122L434.342,231.122z"/>
				</g>
				<g>
					<path fill="#F8991D" d="M439.371,380.839c-24.29-21.276-38.108-46.906-43.584-78.966
						c-4.787-28.014,20.656-64.617,47.871-69.861c3.313-0.64,3.672,4.598,0.386,5.232c-35.88,6.911-47.151,51.783-39.228,81.878
						c6.156,23.388,20.078,42.065,37.929,57.699C445.293,379.053,441.915,383.068,439.371,380.839L439.371,380.839z"/>
				</g>
				<g>
					<path fill="#F8991D" d="M449.094,239.566c-25.713,42.968-30.365,100.479-0.416,142.939c1.953,2.768-2.348,5.773-4.295,3.012
						c-30.98-43.92-26.691-103.645-0.027-148.196C446.078,234.443,450.834,236.664,449.094,239.566L449.094,239.566z"/>
				</g>
				<path fill="#F8991D" d="M429.352,231.916c-0.009,6.708,14.086,12.17,31.479,12.19c17.396,0.026,31.504-5.395,31.512-12.106
					c0.01-6.712-14.084-12.171-31.477-12.191C443.471,219.784,429.362,225.206,429.352,231.916z"/>
				<g>
					<path fill="#39B54A" d="M471.777,218.148c0,0,20.65,9.133,7.447,16.867c-6.061,3.552-16.822,3.283-24.093,2.376
						c-10.809-1.356-15.729-5.434-15.694-10.47c0.041-5.765,12.372-9.082,12.372-9.082c4.882-19.324,1.019-71.534-0.583-92.769
						c-1.322-17.519-10.717-67.772-17.516-82.851c25.91,21.729,26.359,141.748,26.318,172.465
						c1.563-16.422,9.752-122.839,12.561-145.089c1.825-13.85,0.64-40.536,7.537-57.43c3.602,18.239,2.954,42.768,0.523,59.024
						c-1.832,18.069-14.686,129.271-18.322,146.731c12.204-117.358,26.713-115.398,41.776-120.198
						c-11.199,12.654-12.49,13.528-18.571,27.356c-11.068,25.181-21.338,90.039-9.9,94.875L471.777,218.148z"/>
				</g>
				<g opacity="0.52">
					<path fill="#026735" d="M480.666,17.855c5.4,14.46,1.759,34.333-0.066,49.387c-1.83,17.463-11.246,99.518-14.282,116.981
						c0.132-33.892,16.108-131.436,16.153-165.765L480.666,17.855z"/>
				</g>
				<g>
					<path fill="#F8991D" d="M471.389,383.822c1.967,7.011,0.054,14.487-5.282,20.646c0.43-3.601,0.349-7.229-0.242-10.82
						c-3.366,4.615-5.437,9.66-6.071,14.788c-1.87-4.368-3.076-8.867-3.592-13.401c-1.615,2.105-3.229,4.212-4.844,6.317
						c-1.678-2.035-3.02-4.196-3.992-6.431c-5.505,3.213-8.305,8.412-7.145,13.264c-5.922-7.915-8.471-16.966-7.264-25.797
						c12.715,1.234,25.563,1.837,38.408,1.803"/>
				</g>
				<g>
					
						<ellipse transform="matrix(-0.9976 -0.0689 0.0689 -0.9976 951.046 618.9385)" fill="#F8991D" cx="486.199" cy="293.064" rx="25.592" ry="32.188"/>
					
						<ellipse transform="matrix(-0.9976 -0.0689 0.0689 -0.9976 950.2245 623.9529)" fill="#FFFFFF" cx="485.877" cy="295.582" rx="21.378" ry="26.888"/>
					<path fill="#DDD8A9" d="M466.83,308.275c-0.514-2.699-0.697-5.56-0.493-8.506c1.023-14.814,11.402-26.164,23.181-25.351
						c7.719,0.533,14.123,6.158,17.334,14.141c-2.072-10.878-9.545-19.14-18.98-19.792c-11.779-0.813-22.158,10.536-23.182,25.351
						C464.337,299.225,465.143,304.076,466.83,308.275z"/>
					
						<radialGradient id="SVGID_1_" cx="4155.4834" cy="2084.127" r="14.8652" gradientTransform="matrix(-0.9976 -0.0689 0.0689 -0.9976 4488.2104 2654.9634)" gradientUnits="userSpaceOnUse">
						<stop  offset="0" style="stop-color:#996632"/>
						<stop  offset="0.4373" style="stop-color:#986532"/>
						<stop  offset="0.6174" style="stop-color:#93602F"/>
						<stop  offset="0.7501" style="stop-color:#8A5829"/>
						<stop  offset="0.8597" style="stop-color:#7E4D22"/>
						<stop  offset="0.9538" style="stop-color:#6E3E19"/>
						<stop  offset="1" style="stop-color:#653614"/>
					</radialGradient>
					<circle fill="url(#SVGID_1_)" cx="486.296" cy="289.524" r="14.864"/>
					<circle cx="485.901" cy="295.236" r="8.218"/>
					<circle opacity="0.63" fill="#FFFFFF" cx="478.375" cy="292.345" r="3.496"/>
					<circle opacity="0.63" fill="#FFFFFF" cx="480.657" cy="288.906" r="2.04"/>
					<path fill="#F8991D" d="M485.879,299.463c8.888,0.613,16.869-0.023,22.007-1.51c-1.239,14.551-11.72,25.604-23.615,24.781
						s-20.757-13.211-19.983-27.793C469.172,297.12,476.99,298.849,485.879,299.463z"/>
				</g>
				<g>
					
						<ellipse transform="matrix(-1 6.295760e-004 -6.295760e-004 -1 867.6073 585.8568)" fill="#F8991D" cx="433.711" cy="293.065" rx="25.592" ry="32.188"/>
					
						<ellipse transform="matrix(-1 6.395896e-004 -6.395896e-004 -1 867.3208 590.9199)" fill="#FFFFFF" cx="433.566" cy="295.599" rx="21.378" ry="26.889"/>
					<path fill="#DDD8A9" d="M415.448,309.586c-0.701-2.657-1.083-5.498-1.085-8.45c-0.009-14.851,9.555-26.895,21.361-26.902
						c7.738-0.005,14.518,5.16,18.275,12.9c-2.824-10.707-10.852-18.43-20.312-18.424c-11.807,0.008-21.37,12.052-21.361,26.901
						C412.33,300.73,413.471,305.515,415.448,309.586z"/>
					
						<radialGradient id="SVGID_2_" cx="4170.0557" cy="2206.4004" r="14.8643" gradientTransform="matrix(-1 7.000000e-004 -7.000000e-004 -1 4605.1621 2493.0063)" gradientUnits="userSpaceOnUse">
						<stop  offset="0" style="stop-color:#996632"/>
						<stop  offset="0.4373" style="stop-color:#986532"/>
						<stop  offset="0.6174" style="stop-color:#93602F"/>
						<stop  offset="0.7501" style="stop-color:#8A5829"/>
						<stop  offset="0.8597" style="stop-color:#7E4D22"/>
						<stop  offset="0.9538" style="stop-color:#6E3E19"/>
						<stop  offset="1" style="stop-color:#653614"/>
					</radialGradient>
					<circle fill="url(#SVGID_2_)" cx="433.562" cy="289.526" r="14.864"/>
					<circle cx="433.565" cy="295.251" r="8.218"/>
					<circle opacity="0.63" fill="#FFFFFF" cx="425.856" cy="292.891" r="3.496"/>
					<circle opacity="0.63" fill="#FFFFFF" cx="427.894" cy="289.301" r="2.04"/>
					<path fill="#F8991D" d="M433.836,299.469c8.91-0.005,16.828-1.195,21.85-3.035c-0.225,14.601-9.91,26.355-21.834,26.363
						c-11.925,0.007-21.625-11.735-21.867-26.336C417.008,298.295,424.927,299.475,433.836,299.469z"/>
				</g>
				<path fill="#9E6427" d="M397.291,333.63c0,4.179,26.145,17.644,58.395,17.644s58.395-13.465,58.395-17.644
					c0-4.18-26.145,0.071-58.395,0.071S397.291,329.45,397.291,333.63z"/>
				<circle opacity="0.56" fill="#FFFFFF" cx="521.942" cy="261.24" r="13.931"/>
				<circle opacity="0.56" fill="#FFFFFF" cx="521.943" cy="271.784" r="9.386"/>
				<g>
					<g>
						<path fill="#653614" d="M489.659,381.215c-0.537,5.099,0.602,9.895,1.789,14.843c0.39,1.624,0.871,3.256,1.53,4.792
							c1.243,2.898,4.225,5.756,2.974,9.22c-3.859,10.689-9.137,21.101-12.215,32.049c-0.253,0.9,1.048,1.457,1.509,0.637
							c3.101-5.517,5.232-11.587,7.897-17.321c2.446-5.265,4.952-10.55,6.918-16.018c1.38-3.837-3.132-8.073-4.343-11.368
							c-2.101-5.712-2.432-11.652-5.701-16.931C489.91,380.944,489.679,381.03,489.659,381.215L489.659,381.215z"/>
					</g>
				</g>
				<g>
					<g>
						<path fill="#653614" d="M414.379,378.828c-1.699,4.833-2.185,10.059-3.95,14.948c-1.54,4.261-5.471,8.649-4.163,13.328
							c0.468,1.673,1.889,3.358,2.751,4.849c1.724,2.979,3.104,6.186,4.419,9.359c2.315,5.591,3.7,11.394,5.409,17.173
							c0.603,2.04,3.404,1.146,3.104-0.855c-1.534-10.222-6.004-19.961-10.65-29.097c-2.468-4.851,1.764-10.588,3.357-15.376
							c1.424-4.277,2.929-9.438,2.426-13.963C416.91,377.663,414.914,377.307,414.379,378.828L414.379,378.828z"/>
					</g>
				</g>
				<g>
					<g>
						<path fill="#653614" d="M548.631,303.675c11.505,0.594,22.087-12.398,28.124-20.714c6.817-9.39,13.014-23.35,11.966-35.185
							c-0.069-0.788-1.114-0.957-1.378-0.187c-1.729,5.048-2.755,10.304-4.563,15.346c-1.938,5.407-4.676,10.476-7.839,15.254
							c-3.169,4.786-6.856,9.107-11.013,13.058c-4.856,4.615-10.077,7.006-15.991,9.864
							C546.623,301.746,547.365,303.609,548.631,303.675L548.631,303.675z"/>
					</g>
				</g>
				<g>
					<path fill="#653614" d="M485.389,439.977c4.399-0.453,8.854-0.367,13.232,0.254c1.722,0.245,3.517,0.61,4.844,1.733
						c1.328,1.122,1.973,3.232,0.959,4.645c-0.938,1.304-2.77,1.491-4.374,1.562c-5.32,0.234-10.812,0.442-15.794-1.436
						c-0.893-0.336-1.793-0.762-2.387-1.507c-0.975-1.222-0.795-3.203,0.384-4.229c1.179-1.027,3.165-0.935,4.243,0.198"/>
					<g>
						<path fill="#653614" d="M485.389,442.002c2.761,0.122,5.521,0.136,8.281,0.279c1.104,0.078,2.205,0.175,3.306,0.288
							c0.755,0.111,1.51,0.223,2.265,0.334c1.808,0.006,2.078,1.012,0.81,3.018c-2.661,0.243-5.354,0.273-8.023,0.216
							c-1.947-0.041-3.842-0.376-5.725-0.846c-0.427-0.951-0.854-1.902-1.28-2.854c0.49,0.071,0.981,0.127,1.475,0.167
							c1.141,0.116,1.649-1.261,1.216-2.119c-2.517-4.983-8.722-0.831-8.354,3.71c0.564,6.972,14.532,6.334,19.091,6.263
							c5.593-0.088,10.934-2.639,7.922-9.001c-1.259-2.66-5.211-3.453-7.75-3.773c-4.662-0.589-9.173-0.683-13.771,0.34
							C482.537,438.539,483.181,441.903,485.389,442.002L485.389,442.002z"/>
					</g>
				</g>
				<g>
					<path fill="#653614" d="M419.557,440.337c-5.58-1.688-11.846-0.965-16.895,1.95c-1.596,0.921-3.213,2.998-1.983,4.37
						c0.444,0.495,1.13,0.681,1.78,0.821c5.862,1.268,12.092,0.784,17.689-1.371c1.18-0.454,2.406-1.046,3.037-2.142
						c1.207-2.099-1.178-5.136-3.502-4.462"/>
					<g>
						<path fill="#653614" d="M420.095,438.384c-6.24-2.489-14.153-1.51-19.65,2.389c-1.641,1.164-3.214,3.548-2.631,5.666
							c0.803,2.918,3.605,3.518,6.253,3.856c6.295,0.808,16.328,0.688,20.827-4.621c3.119-3.682-1.326-9.846-5.728-8.046
							c-1.64,0.67-2.055,3.252,0,3.752c1.216-0.015,1.525,0.691,0.929,2.118c-1.421,0.91-3.667,1.247-5.301,1.628
							c-3.255,0.76-6.771,0.685-10.06,0.23c-1.839,0.047-2.104-0.249-0.797-0.887c1.373-1.008,3.161-1.489,4.768-1.968
							c3.329-0.992,6.932-0.679,10.313-0.212C421.598,442.645,422.55,439.364,420.095,438.384L420.095,438.384z"/>
					</g>
				</g>
				<g>
					<path fill="#653614" d="M587.895,250.366c4.154-5.079,6.566-11.556,6.749-18.115c0.056-2.025-0.177-4.248-1.606-5.684
						c-1.794-1.802-4.941-1.611-7.008-0.129c-2.065,1.483-3.221,3.929-3.928,6.371c-1.878,6.497,0.032,15.126,6.514,17.059"/>
					<g>
						<path fill="#653614" d="M589.338,251.81c4.998-5.409,7.306-12.281,7.723-19.559c0.364-6.354-4.261-10.798-10.554-8.745
							c-5.895,1.923-7.557,10.042-7.402,15.365c0.164,5.652,3.219,11.553,8.913,13.163c2.401,0.68,4.079-3.008,1.731-4.105
							c-6.99-3.271-7.894-13.346-2.996-18.99c2.551-2.939,5.198-0.682,5.462,2.082c0.209,2.186-0.231,4.461-0.67,6.587
							c-0.882,4.272-3.075,8.106-5.412,11.729C584.873,251.288,587.767,253.509,589.338,251.81L589.338,251.81z"/>
					</g>
				</g>
				<g>
					<path fill="#D2EDF3" d="M454.699,295.969c-0.37-1.993-3.004-2.677-4.957-2.138c-1.954,0.539-3.656,1.835-5.646,2.217
						c-4.271,0.817-8.276-2.734-12.623-2.671c-4.483,0.065-8.6,3.962-12.949,2.879c-1.643-0.408-3.055-1.498-4.703-1.882
						c-3.563-0.829-4.722,0.354-6.045,3.766c-1.324,3.411-3.389,8.862-3.001,12.5c0.259,2.426,1.209,5.528,3.647,5.571
						c1.411,0.024,2.615-1.166,3.061-2.505c0.446-1.339,0.299-2.796,0.118-4.195c-0.476-3.667-1.153-7.308-2.032-10.899
						c2.631-1.752,5.932,0.67,8.986,1.482c2.822,0.752,5.795,0.048,8.705-0.198c4.693-0.396,9.401,0.414,14.111,0.435
						c4.711,0.021,13.328-0.638,13.152-4.13"/>
				</g>
				<g>
					<path fill="#D2EDF3" d="M509.303,297.419c0.323-2.282-3.912-2.614-6.112-1.928c-2.199,0.687-4.13,2.332-6.433,2.403
						c-3.525,0.109-6.422-3.508-9.936-3.192c-2.451,0.22-4.473,2.341-6.934,2.361c-2.377,0.021-4.294-1.899-6.56-2.617
						c-2.938-0.932-6.087,0.237-8.946,1.391c1.62,3.516,6.293,4.056,10.16,4.2c9.902,0.368,19.102,0.774,30.902-0.293
						c-0.505,2.289-2.36,7.892-2.866,10.181c-0.62,2.807-0.852,6.5,1.723,7.78c2.659,1.322,5.644-1.444,6.579-4.263
						C512.604,308.259,510.951,302.626,509.303,297.419"/>
				</g>
			</g>
		</g>
		<g>
			<g>
				<path fill="#653614" d="M202.237,357.502c-3.001,13.876-3.432,28.967-4.094,43.127c-0.334,7.149-0.783,14.28-1.364,21.414
					c-0.362,4.438-1.121,8.761-1.92,13.138c-0.38,2.082-1.146,5.151-0.403,7.152c0.66,1.779,2.88,1.724,3.558,0
					c0.589-1.495,0.03-2.563-1.197-3.397c-1.243-0.845-2.982,0.849-2.096,2.097c0.07-0.165,0.14-0.329,0.209-0.494
					c1.028,0.271,2.056,0.543,3.084,0.814c-0.518-2.021,0.46-5.484,0.439-7.63c-0.038-3.932,0.021-7.761,0.375-11.68
					c0.646-7.154,1.399-14.289,2.316-21.414c1.792-13.916,3.892-28.793,3.307-42.827
					C204.401,356.573,202.516,356.213,202.237,357.502L202.237,357.502z"/>
			</g>
		</g>
		<g>
			<g>
				<path fill="#653614" d="M136.083,358.239c-1.746,5.726-1.494,12.581-1.211,18.503c0.365,7.632,1.052,15.242,1.418,22.876
					c0.367,7.653,0.1,15.232,0.047,22.887c-0.023,3.383,0.125,6.772,0.148,10.155c0.02,3.037-0.463,6.068,0.96,8.804
					c0.467,0.897,1.876,0.874,2.35,0c2.483-4.588,0.814-12.163,0.586-17.24c-0.343-7.641-1.685-15.182-2.02-22.827
					c-0.335-7.656-0.262-15.271-0.138-22.929c0.107-6.599,0.861-13.704-0.25-20.229
					C137.801,357.229,136.345,357.379,136.083,358.239L136.083,358.239z"/>
			</g>
		</g>
		<g>
			<path fill="#653614" d="M196.674,443.104c4.526-1.295,9.232-1.958,13.94-1.962c3.387-0.004,6.879,0.362,9.859,1.972
				s5.354,4.688,5.31,8.075c-7.341-0.763-14.718-1.181-22.099-1.254c-2.303-0.022-4.819-0.085-6.576-1.575
				c-1.757-1.489-1.799-4.964,0.401-5.645"/>
		</g>
		<g>
			<path fill="#653614" d="M138.426,442.653c-0.008-1.86-2.411-2.56-4.266-2.709c-4.778-0.384-9.636-0.763-14.326,0.23
				s-9.272,3.571-11.552,7.787c7.296,0.649,14.593,1.299,21.89,1.948c2.479,0.221,5.132,0.406,7.302-0.813
				c2.17-1.218,3.379-4.43,1.698-6.265"/>
		</g>
		<g>
			<g>
				<g>
					<path fill="#FFCD05" d="M218.012,210.676c-11.224-25.138-72.99-21.497-83.096-5.079c0,0-38.179-8.342-52.78,20.346
						c-19.234,37.806,11.229,85.455,12.354,123.818c1.124,17.438,2.248,50.354,29.197,58.207c17.967,6.104,33.398-7.522,51.372-5.78
						c14.593,0.874,19.374,12.443,44.078,6.356c27.833-6.856,31.451-53.854,34.813-72.166c4.496-24.41,2.245-40.68,12.351-63.348
						c5.614-13.082,12.357-32.262,5.614-45.341C266.3,216.354,231.49,199.341,218.012,210.676"/>
				</g>
				<g>
					<path fill="#FCDC56" d="M196.391,387.131c12.211-17.269,10.76-45.972,20.352-73.985c7.811-22.816,13.076-39.243,9.588-64.531
						c-3.481-27.903-37.495-34.006-61.905-32.261c-25.29,1.744-33.133,18.31-35.747,43.595c-2.617,24.416,1.739,54.937,6.101,80.221
						c2.617,12.208,4.356,36.621,11.334,47.084c7.855,10.466,14.248,2.613,24.416,5.233
						C183.609,395.857,189.413,394.109,196.391,387.131"/>
				</g>
				<g opacity="0.41">
					<path fill="#FFFFFF" d="M243.362,297.973c1.662-11.099,6.223-55.05-2.726-68.326c2.917-5.011,7.563-3.404,11.854-0.215
						c28.778-13.078,2.613,49.7,0.874,55.804c-6.104,22.671-6.104,47.088-11.334,70.63c-2.62,9.591-4.362,22.667-10.463,32.262
						c-2.183,3.82-10.68,9.654-18.443,10.707C235.102,372.057,238.926,330.928,243.362,297.973z"/>
				</g>
				<g opacity="0.36">
					<path fill="#FFFFFF" d="M165.553,239.254c-15.918-2.487-26.016,6.283-36.954,14.498c3.164-22.378,11.583-36.849,35.111-38.472
						c24.416-1.744,58.43,4.358,61.911,32.261c3.488,25.287-1.778,41.715-9.592,64.531c-9.591,28.014-8.141,56.717-20.351,73.985
						c-6.215,6.214-11.516,8.271-21.839,6.265c0.366-1.091,0.788-2.2,1.273-3.313c12.749-33.137,26.765-76.471,21.036-112.795
						C192.957,258.373,185.946,243.077,165.553,239.254z"/>
				</g>
				<g opacity="0.31">
					<path fill="#CD6733" d="M78.153,236.097c16.4,14.185,24.08,31.843,30.55,55.735c10.195,38.878,12.805,109.349,69.309,104.024
						c12.383-1.166,41.108,12.618,61.867-5.296c-4.792,8.76-11.402,15.606-20.759,17.914c-24.708,6.083-29.485-5.488-44.078-6.359
						c-17.973-1.742-33.404,11.881-51.371,5.776c-26.953-7.85-28.073-40.763-29.2-58.203
						C93.447,314.708,68.05,272.013,78.153,236.097z"/>
				</g>
				<g opacity="0.54">
					<path fill="#FFFFFF" d="M208.459,209.448c-8.919-22.304-54.805-17.206-66.912-1.274
						C165.122,198.615,187.43,194.153,208.459,209.448"/>
				</g>
				<g opacity="0.54">
					<path fill="#FFFFFF" d="M224.39,211.996c12.746-4.46,36.963,0.638,40.79,15.933C258.518,219.495,244.785,211.42,224.39,211.996
						"/>
				</g>
				<g opacity="0.42">
					<path fill="#CD6733" d="M202.513,208.583c5.438,2.416,10.281,7.861,12.095,13.307c-12.095,0-26.653-8.026-39.349-6.814
						c-12.098,0.604-22.343,3.186-34.435,5.606C149.893,198.908,184.367,198.908,202.513,208.583"/>
				</g>
				<g>
					<path fill="#31783B" d="M188.066,205.623c6.372,2.551,12.75,6.373,17.845,10.836c-18.8-5.667-37.596-8.285-56.72-0.639
						c3.827-3.824,8.923-7.012,14.022-8.92c8.286-3.188,10.195-0.638,8.922-10.836c-0.636-10.195-8.575-24.8-17.498-29.899
						c5.739-0.64,10.484-1.963,14.311-5.786C177.871,169.938,188.703,192.242,188.066,205.623"/>
				</g>
				<g opacity="0.18">
					<path fill="#CD6733" d="M225.026,227.313c13.305,27.819,11.349,46.59,5.911,76.827c-2.417,13.911-4.837,27.82-10.281,41.126
						c-3.023,7.863-3.904,10.854-7.531,18.716c-4.23,7.864-10.004,20.596-15.452,27.854c4.234-18.144,13.306-35.078,18.752-53.221
						c4.231-15.122,9.19-42.25,11.007-57.372c3.024-24.189-0.71-27.853-1.795-50.905
						C225.317,223.576,225.636,230.337,225.026,227.313"/>
				</g>
				<g opacity="0.18">
					<path fill="#CD6733" d="M134.17,217.049c-8.468,25.4-11.89,57.769-9.47,84.379c2.414,29.031,9.428,52.433,13.1,82.543
						c0.074,0.601,0.604,2.42,0.604,3.63c-5.441-11.491-8.405-19.979-12.033-32.075c-4.837-16.328-9.134-36.264-10.95-53.196
						c-3.627-30.848,1.811-54.433,16.329-81.043C132.354,220.075,132.963,218.866,134.17,217.049"/>
				</g>
				<g>
					<g>
						
							<ellipse transform="matrix(0.9988 0.0489 -0.0489 0.9988 13.1715 -7.128)" fill="#C4752C" cx="152.248" cy="265.6" rx="26.079" ry="32.799"/>
					</g>
					<g>
						
							<ellipse transform="matrix(0.9988 0.0489 -0.0489 0.9988 13.0466 -7.1448)" fill="#FFFFFF" cx="152.524" cy="263.028" rx="21.785" ry="27.399"/>
					</g>
					<g>
						<path fill="#E6E7E8" d="M171.67,249.707c0.579,2.74,0.823,5.65,0.676,8.655c-0.74,15.114-11.082,26.89-23.099,26.301
							c-7.875-0.386-14.514-5.984-17.948-14.052c2.333,11.04,10.114,19.305,19.742,19.776c12.017,0.588,22.358-11.187,23.099-26.301
							C174.396,258.877,173.476,253.95,171.67,249.707z"/>
					</g>
					<g>
						<g>
							<defs>
								<circle id="SVGID_3_" cx="152.221" cy="269.208" r="15.147"/>
							</defs>
							<clipPath id="SVGID_4_">
								<use xlink:href="#SVGID_3_"  overflow="visible"/>
							</clipPath>
							
								<rect x="137.006" y="253.994" transform="matrix(0.9984 0.0571 -0.0571 0.9984 15.627 -8.256)" clip-path="url(#SVGID_4_)" fill="#653614" width="30.43" height="30.43"/>
							<circle clip-path="url(#SVGID_4_)" fill="#653614" cx="152.221" cy="269.208" r="15.147"/>
							<circle clip-path="url(#SVGID_4_)" fill="#683815" cx="152.221" cy="269.208" r="14.948"/>
							<circle clip-path="url(#SVGID_4_)" fill="#6A3B17" cx="152.221" cy="269.208" r="14.748"/>
							<circle clip-path="url(#SVGID_4_)" fill="#6D3D19" cx="152.221" cy="269.208" r="14.549"/>
							<circle clip-path="url(#SVGID_4_)" fill="#70401A" cx="152.221" cy="269.208" r="14.349"/>
							<circle clip-path="url(#SVGID_4_)" fill="#72421C" cx="152.221" cy="269.208" r="14.15"/>
							<circle clip-path="url(#SVGID_4_)" fill="#74441D" cx="152.221" cy="269.208" r="13.951"/>
							<circle clip-path="url(#SVGID_4_)" fill="#76461E" cx="152.221" cy="269.208" r="13.752"/>
							<circle clip-path="url(#SVGID_4_)" fill="#79481F" cx="152.221" cy="269.208" r="13.552"/>
							<circle clip-path="url(#SVGID_4_)" fill="#7B4A21" cx="152.221" cy="269.208" r="13.353"/>
							<circle clip-path="url(#SVGID_4_)" fill="#7D4C22" cx="152.221" cy="269.208" r="13.153"/>
							<circle clip-path="url(#SVGID_4_)" fill="#7E4D23" cx="152.221" cy="269.208" r="12.954"/>
							<circle clip-path="url(#SVGID_4_)" fill="#804F24" cx="152.221" cy="269.208" r="12.755"/>
							<circle clip-path="url(#SVGID_4_)" fill="#825125" cx="152.221" cy="269.208" r="12.556"/>
							<circle clip-path="url(#SVGID_4_)" fill="#835226" cx="152.221" cy="269.208" r="12.357"/>
							<circle clip-path="url(#SVGID_4_)" fill="#855327" cx="152.221" cy="269.208" r="12.157"/>
							<circle clip-path="url(#SVGID_4_)" fill="#865527" cx="152.221" cy="269.208" r="11.958"/>
							<circle clip-path="url(#SVGID_4_)" fill="#885628" cx="152.221" cy="269.208" r="11.758"/>
							<circle clip-path="url(#SVGID_4_)" fill="#895729" cx="152.221" cy="269.208" r="11.559"/>
							<circle clip-path="url(#SVGID_4_)" fill="#8A582A" cx="152.221" cy="269.208" r="11.36"/>
							<circle clip-path="url(#SVGID_4_)" fill="#8B592A" cx="152.221" cy="269.208" r="11.161"/>
							<circle clip-path="url(#SVGID_4_)" fill="#8C5A2B" cx="152.221" cy="269.208" r="10.961"/>
							<circle clip-path="url(#SVGID_4_)" fill="#8D5B2B" cx="152.221" cy="269.208" r="10.762"/>
							<circle clip-path="url(#SVGID_4_)" fill="#8E5C2C" cx="152.221" cy="269.208" r="10.563"/>
							<circle clip-path="url(#SVGID_4_)" fill="#8F5D2D" cx="152.221" cy="269.208" r="10.363"/>
							<circle clip-path="url(#SVGID_4_)" fill="#905E2D" cx="152.221" cy="269.208" r="10.164"/>
							<circle clip-path="url(#SVGID_4_)" fill="#915F2E" cx="152.221" cy="269.208" r="9.965"/>
							<circle clip-path="url(#SVGID_4_)" fill="#925F2E" cx="152.221" cy="269.208" r="9.766"/>
							<circle clip-path="url(#SVGID_4_)" fill="#92602E" cx="152.221" cy="269.208" r="9.566"/>
							<circle clip-path="url(#SVGID_4_)" fill="#93602F" cx="152.221" cy="269.208" r="9.367"/>
							<circle clip-path="url(#SVGID_4_)" fill="#94612F" cx="152.221" cy="269.208" r="9.168"/>
							<circle clip-path="url(#SVGID_4_)" fill="#94612F" cx="152.221" cy="269.208" r="8.968"/>
							<circle clip-path="url(#SVGID_4_)" fill="#956230" cx="152.221" cy="269.208" r="8.769"/>
							<circle clip-path="url(#SVGID_4_)" fill="#956230" cx="152.221" cy="269.208" r="8.57"/>
							<circle clip-path="url(#SVGID_4_)" fill="#956330" cx="152.221" cy="269.208" r="8.371"/>
							<circle clip-path="url(#SVGID_4_)" fill="#966330" cx="152.221" cy="269.208" r="8.171"/>
							<circle clip-path="url(#SVGID_4_)" fill="#966431" cx="152.221" cy="269.208" r="7.972"/>
							<circle clip-path="url(#SVGID_4_)" fill="#976431" cx="152.221" cy="269.208" r="7.772"/>
							<circle clip-path="url(#SVGID_4_)" fill="#976431" cx="152.221" cy="269.208" r="7.573"/>
							<circle clip-path="url(#SVGID_4_)" fill="#976431" cx="152.221" cy="269.208" r="7.374"/>
							<circle clip-path="url(#SVGID_4_)" fill="#976531" cx="152.221" cy="269.208" r="7.175"/>
							<circle clip-path="url(#SVGID_4_)" fill="#986531" cx="152.221" cy="269.208" r="6.975"/>
							<circle clip-path="url(#SVGID_4_)" fill="#986532" cx="152.221" cy="269.208" r="6.776"/>
							<circle clip-path="url(#SVGID_4_)" fill="#986532" cx="152.221" cy="269.208" r="6.577"/>
							<circle clip-path="url(#SVGID_4_)" fill="#986532" cx="152.221" cy="269.208" r="6.378"/>
							<circle clip-path="url(#SVGID_4_)" fill="#986632" cx="152.221" cy="269.208" r="6.178"/>
							<circle clip-path="url(#SVGID_4_)" fill="#986632" cx="152.221" cy="269.208" r="5.979"/>
							<circle clip-path="url(#SVGID_4_)" fill="#996632" cx="152.221" cy="269.208" r="5.78"/>
							<circle clip-path="url(#SVGID_4_)" fill="#996632" cx="152.221" cy="269.208" r="5.58"/>
							<circle clip-path="url(#SVGID_4_)" fill="#996632" cx="152.221" cy="269.208" r="5.381"/>
							<circle clip-path="url(#SVGID_4_)" fill="#996632" cx="152.221" cy="269.208" r="5.182"/>
							<circle clip-path="url(#SVGID_4_)" fill="#996632" cx="152.221" cy="269.208" r="4.983"/>
							<circle clip-path="url(#SVGID_4_)" fill="#996632" cx="152.221" cy="269.208" r="4.783"/>
							<circle clip-path="url(#SVGID_4_)" fill="#996632" cx="152.221" cy="269.208" r="4.584"/>
							<circle clip-path="url(#SVGID_4_)" fill="#996632" cx="152.221" cy="269.208" r="4.385"/>
							<circle clip-path="url(#SVGID_4_)" fill="#996632" cx="152.221" cy="269.208" r="4.185"/>
							<circle clip-path="url(#SVGID_4_)" fill="#996632" cx="152.221" cy="269.208" r="3.986"/>
							<circle clip-path="url(#SVGID_4_)" fill="#996632" cx="152.221" cy="269.208" r="3.787"/>
							<circle clip-path="url(#SVGID_4_)" fill="#996632" cx="152.221" cy="269.208" r="3.587"/>
							<circle clip-path="url(#SVGID_4_)" fill="#996632" cx="152.221" cy="269.208" r="3.388"/>
							<circle clip-path="url(#SVGID_4_)" fill="#996632" cx="152.221" cy="269.208" r="3.189"/>
							<circle clip-path="url(#SVGID_4_)" fill="#996632" cx="152.221" cy="269.208" r="2.989"/>
							<circle clip-path="url(#SVGID_4_)" fill="#996632" cx="152.221" cy="269.208" r="2.79"/>
							<circle clip-path="url(#SVGID_4_)" fill="#996632" cx="152.221" cy="269.208" r="2.591"/>
							<circle clip-path="url(#SVGID_4_)" fill="#996632" cx="152.221" cy="269.208" r="2.392"/>
							<circle clip-path="url(#SVGID_4_)" fill="#996632" cx="152.221" cy="269.208" r="2.192"/>
							<circle clip-path="url(#SVGID_4_)" fill="#996632" cx="152.221" cy="269.208" r="1.993"/>
							<circle clip-path="url(#SVGID_4_)" fill="#996632" cx="152.221" cy="269.208" r="1.794"/>
							<circle clip-path="url(#SVGID_4_)" fill="#996632" cx="152.221" cy="269.208" r="1.594"/>
							<circle clip-path="url(#SVGID_4_)" fill="#996632" cx="152.221" cy="269.208" r="1.395"/>
							<circle clip-path="url(#SVGID_4_)" fill="#996632" cx="152.221" cy="269.208" r="1.196"/>
							<circle clip-path="url(#SVGID_4_)" fill="#996632" cx="152.221" cy="269.208" r="0.997"/>
							<circle clip-path="url(#SVGID_4_)" fill="#996632" cx="152.221" cy="269.208" r="0.797"/>
							<circle clip-path="url(#SVGID_4_)" fill="#996632" cx="152.221" cy="269.208" r="0.598"/>
							<circle clip-path="url(#SVGID_4_)" fill="#996632" cx="152.221" cy="269.208" r="0.398"/>
							<circle clip-path="url(#SVGID_4_)" fill="#996632" cx="152.221" cy="269.208" r="0.199"/>
						</g>
					</g>
					<g>
						<circle cx="152.506" cy="263.381" r="8.374"/>
					</g>
					<g opacity="0.63">
						<circle fill="#FFFFFF" cx="160.234" cy="266.173" r="3.562"/>
					</g>
					<g opacity="0.63">
						<circle fill="#FFFFFF" cx="157.979" cy="269.723" r="2.078"/>
					</g>
					<g>
						<path fill="#C4752C" d="M152.444,259.075c-9.068-0.444-17.186,0.367-22.39,1.986c0.965-14.849,11.417-26.323,23.553-25.729
							c12.137,0.594,21.417,13.034,20.926,27.906C169.511,261.12,161.512,259.519,152.444,259.075z"/>
					</g>
				</g>
				<g>
					<g>
						
							<ellipse transform="matrix(1 -0.0082 0.0082 1 -2.1768 1.6791)" fill="#C4752C" cx="203.184" cy="265.666" rx="26.079" ry="32.799"/>
					</g>
					<g>
						
							<ellipse transform="matrix(1 -0.0082 0.0082 1 -2.1572 1.6813)" fill="#FFFFFF" cx="203.313" cy="263.083" rx="21.785" ry="27.399"/>
					</g>
					<g>
						<path fill="#E6E7E8" d="M221.666,248.689c0.734,2.702,1.146,5.594,1.17,8.603c0.125,15.132-9.528,27.479-21.559,27.577
							c-7.884,0.064-14.833-5.146-18.721-13.004c2.96,10.889,11.2,18.695,20.839,18.616c12.031-0.099,21.683-12.445,21.559-27.577
							C224.911,257.688,223.712,252.822,221.666,248.689z"/>
					</g>
					<g>
						<g>
							<defs>
								<circle id="SVGID_5_" cx="203.364" cy="269.27" r="15.146"/>
							</defs>
							<clipPath id="SVGID_6_">
								<use xlink:href="#SVGID_5_"  overflow="visible"/>
							</clipPath>
							<rect x="188.149" y="254.055" clip-path="url(#SVGID_6_)" fill="#653614" width="30.43" height="30.43"/>
							<circle clip-path="url(#SVGID_6_)" fill="#653614" cx="203.364" cy="269.27" r="15.146"/>
							<circle clip-path="url(#SVGID_6_)" fill="#683815" cx="203.364" cy="269.27" r="14.947"/>
							<circle clip-path="url(#SVGID_6_)" fill="#6A3B17" cx="203.363" cy="269.27" r="14.748"/>
							<circle clip-path="url(#SVGID_6_)" fill="#6D3D19" cx="203.364" cy="269.27" r="14.549"/>
							<circle clip-path="url(#SVGID_6_)" fill="#70401A" cx="203.364" cy="269.27" r="14.349"/>
							<circle clip-path="url(#SVGID_6_)" fill="#72421C" cx="203.364" cy="269.27" r="14.15"/>
							<circle clip-path="url(#SVGID_6_)" fill="#74441D" cx="203.364" cy="269.27" r="13.951"/>
							<circle clip-path="url(#SVGID_6_)" fill="#76461E" cx="203.364" cy="269.27" r="13.751"/>
							<circle clip-path="url(#SVGID_6_)" fill="#79481F" cx="203.364" cy="269.27" r="13.552"/>
							<circle clip-path="url(#SVGID_6_)" fill="#7B4A21" cx="203.364" cy="269.27" r="13.353"/>
							<circle clip-path="url(#SVGID_6_)" fill="#7D4C22" cx="203.364" cy="269.27" r="13.154"/>
							<circle clip-path="url(#SVGID_6_)" fill="#7E4D23" cx="203.364" cy="269.27" r="12.954"/>
							<circle clip-path="url(#SVGID_6_)" fill="#804F24" cx="203.364" cy="269.27" r="12.755"/>
							<circle clip-path="url(#SVGID_6_)" fill="#825125" cx="203.364" cy="269.27" r="12.556"/>
							<circle clip-path="url(#SVGID_6_)" fill="#835226" cx="203.364" cy="269.27" r="12.356"/>
							<circle clip-path="url(#SVGID_6_)" fill="#855327" cx="203.364" cy="269.27" r="12.157"/>
							<circle clip-path="url(#SVGID_6_)" fill="#865527" cx="203.364" cy="269.27" r="11.958"/>
							<circle clip-path="url(#SVGID_6_)" fill="#885628" cx="203.364" cy="269.27" r="11.758"/>
							<circle clip-path="url(#SVGID_6_)" fill="#895729" cx="203.364" cy="269.27" r="11.559"/>
							<circle clip-path="url(#SVGID_6_)" fill="#8A582A" cx="203.364" cy="269.27" r="11.36"/>
							<circle clip-path="url(#SVGID_6_)" fill="#8B592A" cx="203.364" cy="269.27" r="11.161"/>
							<circle clip-path="url(#SVGID_6_)" fill="#8C5A2B" cx="203.364" cy="269.27" r="10.962"/>
							<circle clip-path="url(#SVGID_6_)" fill="#8D5B2B" cx="203.364" cy="269.27" r="10.762"/>
							<circle clip-path="url(#SVGID_6_)" fill="#8E5C2C" cx="203.364" cy="269.27" r="10.563"/>
							<circle clip-path="url(#SVGID_6_)" fill="#8F5D2D" cx="203.364" cy="269.271" r="10.363"/>
							<circle clip-path="url(#SVGID_6_)" fill="#905E2D" cx="203.364" cy="269.27" r="10.164"/>
							<circle clip-path="url(#SVGID_6_)" fill="#915F2E" cx="203.364" cy="269.27" r="9.965"/>
							<circle clip-path="url(#SVGID_6_)" fill="#925F2E" cx="203.364" cy="269.27" r="9.765"/>
							<circle clip-path="url(#SVGID_6_)" fill="#92602E" cx="203.364" cy="269.27" r="9.566"/>
							<circle clip-path="url(#SVGID_6_)" fill="#93602F" cx="203.364" cy="269.27" r="9.367"/>
							<circle clip-path="url(#SVGID_6_)" fill="#94612F" cx="203.364" cy="269.27" r="9.168"/>
							<circle clip-path="url(#SVGID_6_)" fill="#94612F" cx="203.364" cy="269.27" r="8.968"/>
							<circle clip-path="url(#SVGID_6_)" fill="#956230" cx="203.364" cy="269.27" r="8.769"/>
							<circle clip-path="url(#SVGID_6_)" fill="#956230" cx="203.364" cy="269.27" r="8.57"/>
							<circle clip-path="url(#SVGID_6_)" fill="#956330" cx="203.364" cy="269.27" r="8.371"/>
							<circle clip-path="url(#SVGID_6_)" fill="#966330" cx="203.364" cy="269.27" r="8.171"/>
							<circle clip-path="url(#SVGID_6_)" fill="#966431" cx="203.364" cy="269.27" r="7.972"/>
							<circle clip-path="url(#SVGID_6_)" fill="#976431" cx="203.364" cy="269.27" r="7.773"/>
							<circle clip-path="url(#SVGID_6_)" fill="#976431" cx="203.364" cy="269.27" r="7.573"/>
							<circle clip-path="url(#SVGID_6_)" fill="#976431" cx="203.364" cy="269.27" r="7.374"/>
							<circle clip-path="url(#SVGID_6_)" fill="#976531" cx="203.364" cy="269.27" r="7.175"/>
							<circle clip-path="url(#SVGID_6_)" fill="#986531" cx="203.364" cy="269.27" r="6.975"/>
							<circle clip-path="url(#SVGID_6_)" fill="#986532" cx="203.364" cy="269.27" r="6.776"/>
							<circle clip-path="url(#SVGID_6_)" fill="#986532" cx="203.364" cy="269.27" r="6.577"/>
							<circle clip-path="url(#SVGID_6_)" fill="#986532" cx="203.364" cy="269.27" r="6.377"/>
							<circle clip-path="url(#SVGID_6_)" fill="#986632" cx="203.364" cy="269.27" r="6.178"/>
							<circle clip-path="url(#SVGID_6_)" fill="#986632" cx="203.364" cy="269.27" r="5.979"/>
							<circle clip-path="url(#SVGID_6_)" fill="#996632" cx="203.363" cy="269.27" r="5.779"/>
							<circle clip-path="url(#SVGID_6_)" fill="#996632" cx="203.364" cy="269.27" r="5.58"/>
							<circle clip-path="url(#SVGID_6_)" fill="#996632" cx="203.363" cy="269.27" r="5.381"/>
							<circle clip-path="url(#SVGID_6_)" fill="#996632" cx="203.364" cy="269.27" r="5.182"/>
							<circle clip-path="url(#SVGID_6_)" fill="#996632" cx="203.364" cy="269.27" r="4.982"/>
							<circle clip-path="url(#SVGID_6_)" fill="#996632" cx="203.364" cy="269.27" r="4.783"/>
							<circle clip-path="url(#SVGID_6_)" fill="#996632" cx="203.364" cy="269.27" r="4.584"/>
							<circle clip-path="url(#SVGID_6_)" fill="#996632" cx="203.364" cy="269.27" r="4.385"/>
							<circle clip-path="url(#SVGID_6_)" fill="#996632" cx="203.364" cy="269.27" r="4.185"/>
							<circle clip-path="url(#SVGID_6_)" fill="#996632" cx="203.364" cy="269.27" r="3.986"/>
							<circle clip-path="url(#SVGID_6_)" fill="#996632" cx="203.364" cy="269.27" r="3.787"/>
							<circle clip-path="url(#SVGID_6_)" fill="#996632" cx="203.364" cy="269.27" r="3.587"/>
							<circle clip-path="url(#SVGID_6_)" fill="#996632" cx="203.364" cy="269.27" r="3.388"/>
							<circle clip-path="url(#SVGID_6_)" fill="#996632" cx="203.364" cy="269.27" r="3.189"/>
							<circle clip-path="url(#SVGID_6_)" fill="#996632" cx="203.364" cy="269.27" r="2.99"/>
							<circle clip-path="url(#SVGID_6_)" fill="#996632" cx="203.364" cy="269.27" r="2.79"/>
							<circle clip-path="url(#SVGID_6_)" fill="#996632" cx="203.364" cy="269.27" r="2.591"/>
							<circle clip-path="url(#SVGID_6_)" fill="#996632" cx="203.364" cy="269.27" r="2.391"/>
							<circle clip-path="url(#SVGID_6_)" fill="#996632" cx="203.364" cy="269.27" r="2.192"/>
							<circle clip-path="url(#SVGID_6_)" fill="#996632" cx="203.364" cy="269.27" r="1.993"/>
							<circle clip-path="url(#SVGID_6_)" fill="#996632" cx="203.364" cy="269.27" r="1.794"/>
							<circle clip-path="url(#SVGID_6_)" fill="#996632" cx="203.364" cy="269.27" r="1.595"/>
							<circle clip-path="url(#SVGID_6_)" fill="#996632" cx="203.364" cy="269.27" r="1.395"/>
							<circle clip-path="url(#SVGID_6_)" fill="#996632" cx="203.364" cy="269.27" r="1.196"/>
							<circle clip-path="url(#SVGID_6_)" fill="#996632" cx="203.364" cy="269.27" r="0.996"/>
							<circle clip-path="url(#SVGID_6_)" fill="#996632" cx="203.364" cy="269.27" r="0.797"/>
							<circle clip-path="url(#SVGID_6_)" fill="#996632" cx="203.364" cy="269.27" r="0.598"/>
							<circle clip-path="url(#SVGID_6_)" fill="#996632" cx="203.364" cy="269.27" r="0.399"/>
							<circle clip-path="url(#SVGID_6_)" fill="#996632" cx="203.364" cy="269.27" r="0.199"/>
						</g>
					</g>
					<g>
						<circle cx="203.315" cy="263.436" r="8.374"/>
					</g>
					<g opacity="0.63">
						<circle fill="#FFFFFF" cx="211.19" cy="265.782" r="3.562"/>
					</g>
					<g opacity="0.63">
						<circle fill="#FFFFFF" cx="209.141" cy="269.456" r="2.078"/>
					</g>
					<g>
						<path fill="#C4752C" d="M203.007,259.141c-9.079,0.074-17.137,1.349-22.24,3.262c0.115-14.88,9.894-26.932,22.044-27.032
							c12.151-0.1,22.126,11.791,22.486,26.667C220.164,260.207,212.086,259.065,203.007,259.141z"/>
					</g>
				</g>
				<path fill="#965624" d="M119.562,321.9c0,13.769,24.455,39.508,54.621,39.508c30.167,0,54.621-25.739,54.621-39.508
					s-24.454-3.063-54.621-3.063C144.016,318.837,119.562,308.132,119.562,321.9z"/>
				<g>
					<path fill="#359A46" d="M168.236,159.471c0.594,0.312,0.796,1.111,0.605,1.755c-0.19,0.644-2.54,3.236-8.588,4.892
						c-1.231,0.337-2.479,0.727-3.753,0.656c-0.663-0.036-1.339-0.201-1.863-0.608c-0.523-0.407-0.863-1.091-0.732-1.741
						c0.081-0.402,0.325-0.75,0.583-1.069c2.244-2.777,5.833-4.178,9.378-4.596C165.312,158.588,167.12,158.536,168.236,159.471"/>
				</g>
				<g>
					<path fill="#FFFFFF" d="M176.741,331.654c0.447-4.304,0.728-8.625,0.842-12.949c4.705-0.153,9.241-0.53,13.534-0.997
						c-0.28,4.597-0.56,9.193-0.839,13.79C185.808,332.229,181.228,332.281,176.741,331.654z"/>
				</g>
				<g>
					<path fill="#FFFFFF" d="M160.645,331.793c-0.276-4.531-0.552-9.063-0.828-13.595c4.234,0.368,8.659,0.614,13.219,0.614
						c0.101,0,0.2-0.003,0.301-0.003c0.112,4.389,0.392,8.773,0.845,13.14C169.696,332.576,165.115,332.523,160.645,331.793z"/>
				</g>
				<g>
					<path fill="#CB2027" d="M160.007,345.416c5.326-1.855,11.74-1.098,15.861,2.753c0.342,0.319,0.704,0.676,1.168,0.732
						c0.539,0.066,1.026-0.288,1.468-0.604c3.895-2.776,9.051-3.702,13.668-2.455c4.331,1.169,8.086,4.242,10.162,8.215
						c-8.158,4.413-17.682,7.351-27.862,7.351c-9.532,0-18.49-2.574-26.29-6.523C151.174,350.687,155.159,347.105,160.007,345.416z"
						/>
				</g>
			</g>
			<g>
				<g>
					<path fill="#653614" d="M257.183,302.022c26.779,6.452,52.284-18.369,54.364-43.913c0.164-2.011-2.922-1.972-3.113,0
						c-1.254,12.931-7.069,24.297-17.462,32.272c-9.776,7.503-21.503,8.872-33.414,8.872
						C255.981,299.254,255.617,301.645,257.183,302.022L257.183,302.022z"/>
				</g>
			</g>
			<g>
				<g>
					<path fill="#653614" d="M85.113,301.608c-12.905,0.314-24.102-1.527-34.899-9.084c-9.389-6.571-19.544-20.352-14.959-32.225
						c0.473-1.226-1.462-1.98-2.083-0.878c-2.835,5.035,0.185,11.704,2.191,16.525c2.535,6.092,6.666,11.671,11.12,16.498
						c9.217,9.988,25.812,15.186,39.005,11.932C87.034,303.995,86.704,301.569,85.113,301.608L85.113,301.608z"/>
				</g>
			</g>
			<g>
				<path fill="#653614" d="M310.43,259.529c5.627-0.838,10.814-4.264,13.793-9.109c1.025-1.669,1.816-3.594,1.605-5.541
					c-0.418-3.883-4.99-6.379-8.791-5.481c-3.802,0.897-6.592,4.341-7.781,8.061c-1.189,3.721-1.049,7.72-0.835,11.619"/>
			</g>
			<g>
				<path fill="#653614" d="M34.287,258.708c0.744-0.123,0.955-1.079,0.98-1.833c0.22-6.627-1.444-14.174-7.176-17.509
					c-1.087-0.632-2.318-1.087-3.574-1.037c-2.733,0.108-4.91,2.687-5.293,5.395c-0.382,2.708,0.671,5.431,2.115,7.754
					c2.647,4.257,6.694,7.628,11.361,9.459"/>
			</g>
		</g>
	</g>
</g>
</svg>
