<?xml version="1.0" encoding="utf-8"?>
<!-- Generator: Adobe Illustrator 17.0.0, SVG Export Plug-In . SVG Version: 6.00 Build 0)  -->
<!DOCTYPE svg PUBLIC "-//W3C//DTD SVG 1.1//EN" "http://www.w3.org/Graphics/SVG/1.1/DTD/svg11.dtd">
<svg version="1.1" id="Layer_1" xmlns="http://www.w3.org/2000/svg" xmlns:xlink="http://www.w3.org/1999/xlink" x="0px" y="0px"
	 width="800px" height="600px" viewBox="0 0 800 600" enable-background="new 0 0 800 600" xml:space="preserve">
<path d="M509.252,344.118c-7.953-16.638-21.72-30.137-39.679-33.519c-23.97-4.513-46.734,8.241-63.255,25.389
	c-6.706,6.961-28.273,37.422-32.008,45.581c-7.135,15.585-14.557,38.032-14.136,55.741c18.131,4.849,87.207,11.433,149.091,0.447
	c4.363-9.054,9.25-25.862,10.07-35.841C520.946,382.319,517.691,361.772,509.252,344.118z"/>
<path fill="#73341B" d="M506.702,434.461c-16.233,2.952-85.842,12.828-142.745-0.526c-0.231-24.806,13.338-51.75,24.381-69.281
	c13.921-22.102,31.998-43.9,57.997-50.14c9.867-2.368,20.22-2.331,29.857,1.066c8.463,2.984,16.05,8.489,21.5,15.753
	c10.314,13.748,18.412,38.381,18.325,57.81c-0.006,1.464-0.61,7.065-0.884,8.43c-0.545,2.709-1.283,5.399-2.407,7.929
	c-2.443,5.504-7.062,8.969-12.613,11.002c-6.321,2.314-13.22,2.479-19.254-0.715c-5.57-2.948-9.353-8.377-12.035-13.945
	c2.194-0.568,4.385-1.165,6.609-1.524c3.519,13.578,20.871,16.59,30.018,6.361c4.497-5.03,6.804-12.198,7.668-18.772
	c0.844-6.426,0.608-13.768-3.231-19.275c-0.727-1.044-1.741-0.414-1.006,0.64c3.297,4.729,2.946,11.183,2.467,16.755
	c-0.535,6.237-2.558,12.612-6.142,17.77c-3.387,4.875-9.088,7.473-14.975,7.099c-6.615-0.421-11.579-5.349-13.017-11.619
	c5.526-7.545,9.18-16.245,14.522-23.912c3.206-4.602,8.06-8.122,10.725-13.079c2.303-4.283-1.563-7.39-5.713-5.504
	c-4.621,2.101-7.243,7.872-9.843,12.135c-0.434-0.426-0.895-0.819-1.38-1.181c2.486-3.397,5.458-6.442,7.762-9.994
	c1.78-2.744,4.368-7.501,0.874-9.992c-5.27-3.759-13.188,17.446-13.105,17.678c-0.663-0.232-1.337-0.441-2.027-0.616
	c2.206-4.163,4.236-8.44,5.86-12.863c0.886-2.414,3.751-9.926-0.444-11.105c-4.101-1.153-6.477,5.573-7.584,8.299
	c-1.865,4.591-3.202,9.436-4.322,14.26c-0.035,0.154-0.037,0.296-0.013,0.425c-0.753-0.053-1.498-0.09-2.227-0.115
	c2.421-4.634,3.355-9.918,2.668-15.121c-0.311-2.35-1.42-7.98-5.737-5.874c-3.174,1.548-2.787,6.503-3.019,11.535
	c-0.176,3.832-0.264,9.67-1.812,13.259c-1.111,2.575-2.437,4.939-2.958,7.711c-0.885-0.494-1.688-1.16-2.439-1.812
	c-2.235-1.941-4.454-4.003-7.553-4.293c-3.023-0.283-5.75,0.701-8.361,2.157c-2.022,1.127-5.151,3.589-4.329,6.322
	c0.898,2.983,3.549,2.747,6.078,2.031c4.588-1.3,8.992-0.277,11.418,3.986c-5.607,4.304-9.608,16.213-1.163,19.38
	c3.554,1.332,7.88,0.519,11.48-0.163c0.766-0.145,1.529-0.318,2.29-0.5c2.97,6.323,7.241,12.13,13.527,15.457
	c6.531,3.457,14.155,2.861,20.896,0.394c5.837-2.136,10.5-6.025,13.155-11.678c0.273-0.582,0.517-1.175,0.747-1.775
	C513.513,419.644,509.63,426.489,506.702,434.461z"/>
<path fill="#EDC483" d="M457.012,384.138c-3.251-6.968-9.472-7.906-15.222-6.278c-1.632,0.462-3.949,0.2-2.827-2.101
	c0.683-1.401,2.325-2.318,3.626-3.043c2.536-1.415,5.35-2.137,8.195-1.278c2.449,0.741,4.159,2.981,6.133,4.471
	c2.091,1.578,4.171,2.115,6.757,2.211c6.547,0.244,14.23,0.582,15.865,8.03c0.275,1.252,1.402,1.362,1.128,0.113
	c-1.567-7.137-7.497-9.438-14.158-9.98c-1.715-0.14-3.497-0.028-5.188-0.359c0.748-4.296,3.523-7.856,4.296-12.164
	c0.876-4.886,0.374-9.893,0.606-14.848c0.083-1.77,0.221-3.346,1.703-4.335c2.09-1.394,3.14,4.629,3.231,5.592
	c0.444,4.663-1.062,12.059-3.375,15.487c4.641,0.025,13.305-0.409,19.577,6.017c2.665-4.088,5.487-9.809,9.586-12.702
	c1.602-1.131,4.959-1.279,4.158,1.476c-0.605,2.076-2.418,3.918-3.83,5.475c-3.684,4.063-7.121,7.971-10.033,12.685
	c-4.028,6.52-7.229,13.515-11.775,19.712c-6.064,0.936-11.826,3.303-18.048,3.324c-3.106,0.01-6.192-0.905-7.063-4.199
	C449.261,393.305,452.445,386.306,457.012,384.138z"/>
<path fill="#EDC483" d="M474.433,364.004c0.007-0.025,0.018-0.046,0.024-0.071c0.845-3.643,1.86-7.251,3.05-10.796
	c0.779-2.321,1.666-4.611,2.791-6.788c0.525-1.014,1.888-3.871,3.388-3.652c3.899,0.569-4.981,18.45-6.672,21.679
	C476.157,364.221,475.295,364.099,474.433,364.004z"/>
<path fill="#EDC483" d="M482.547,366.012c0.101-0.083,2.789-6.188,4.252-9.021c0.683-1.324,4.171-8.674,6.36-7.523
	c3.893,2.047-5.671,12.931-9.218,17.242C483.49,366.458,483.026,366.224,482.547,366.012z"/>
<path d="M316.603,165.488c-1.279-0.763-3.064,0.828-3.55,1.661c-1.04,1.781-2.051,4.927-2.509,5.895
	c0.264-1.237,1.15-6.094,1.359-7.285c0.577-3.281,1.934-9.154-0.941-9.346c-3.642-0.244-4.403,5.737-4.713,8.486
	c-0.178,1.584-0.391,3.154-0.62,4.721c-0.064-2.586-0.276-5.169-0.512-7.663c-0.209-2.201-0.113-9.185-2.924-9.223
	c-3.42-0.047-2.843,5.497-2.761,6.715c0.186,2.818,0.236,5.631,0.317,8.443c-0.337-1.187-0.712-2.369-1.124-3.549
	c-0.733-2.103-1.31-4.898-4.49-4.957c-2.613-0.048-1.667,4.412-1.307,6.183c1.124,5.525,2.456,10.017,3.972,13.612
	c-0.47,1.343-0.459,6.601-0.424,6.686c-0.514,0.126-1.029,0.264-1.543,0.406c-1.165-4.748-5.209-7.87-10.786-7.14
	c-5.488,0.719-5.027,4.111-4.025,5.225c1.725,1.917,5.331-0.049,8.154,2.492c2.378,2.139,2.231,4.144,2.22,6.827
	c-0.015,3.933,1.748,9.4,6.277,10.515c-0.176,7.732-11.665,146.467-14.296,149.779c2.936,0.448,8.806,2.242,11.578,4.038
	c0.805-7.015,12.325-143.692,13.405-152.709c3.005-1.728,4.364-5.505,5.429-8.439c1.867-5.14,0.402-11.583-0.1-16.817
	c0.567-0.758,2.712-6.158,3.554-7.91C317.31,169.91,318.907,166.86,316.603,165.488z"/>
<path fill="#E6B07C" d="M310.336,157.85c2.56-0.288,0.209,8.436-0.314,12.126c-0.523,3.69-1.347,8.453-1.359,8.483
	c-0.675-0.173-2.055-0.521-2.736-0.652C306.63,174.358,307.775,158.138,310.336,157.85z"/>
<path fill="#E6B07C" d="M301.815,154.256c1.943-0.278,1.934,4.026,2.248,9.298c0.314,5.272,0.826,10.171,0.209,13.994
	c-0.494-0.042-2.012-0.095-2.509-0.096c-0.366-2.396-0.68-8.722-0.941-13.131C300.561,159.911,299.864,154.534,301.815,154.256z"/>
<path fill="#E6B07C" d="M294.133,160.775c1.925-0.848,3.265,4.235,3.972,6.422c1.181,3.651,2.099,6.439,2.195,10.256
	c-0.298,0.047-1.27,0.223-1.569,0.29c-0.412,0.091-0.754,0.236-1.049,0.418C296.154,174.012,292.826,161.349,294.133,160.775z"/>
<path fill="#C1001F" d="M292.324,355.315c-2.446-0.748-5.219-1.346-7.072-1.575c1.787-3.048,13.304-144.436,13.627-148.693
	c1.992-0.302,6.181-0.21,6.91,1.043C304.974,212.221,293.791,349.034,292.324,355.315z"/>
<path fill="#E6B07C" d="M311.792,193.314c-0.292,3.287-2.036,8.705-5.247,10.604c-1.123-1.303-6.192-1.973-8.132-1.085
	c-5.662,0.011-6.345-6.899-6.299-10.682c0.036-2.885-0.873-4.821-3.524-6.456c-1.584-0.977-3.048-1.617-4.902-1.443
	c-2.622,0.246-4.765-2.388-0.793-3.587c5.748-1.734,10.072,1.978,11.08,7.524c3.698-1.349,8.479-2.639,11.689,0.466
	c0.757,0.733,1.288-0.117,0.594-0.897c-2.3-2.588-5.055-2.836-8.236-2.252c0.006-1.278-0.071-2.552-0.075-3.831
	c-0.009-2.711,2.43-2.784,4.696-2.753c2.844,0.04,6.163,1.083,8.842,1.934C311.866,185.066,312.17,189.06,311.792,193.314z"/>
<path fill="#E6B07C" d="M314.151,174.338c-0.889,2.397-1.993,4.152-2.416,5.034c-0.522-0.163-1.046-0.322-1.571-0.479
	c0.61-2.502,1.341-5.297,2.262-7.718c0.059-0.157,1.777-4.985,3.397-4.458C317.443,167.244,314.907,172.3,314.151,174.338z"/>
<path d="M634.753,293.602c-3.965-0.471-9.432,3.907-12.257,6.689c-0.05-0.086-0.533-1.04-0.795-1.25
	c2.638-1.836,6.253-5.054,8.354-7.476c1.713-1.976,5.196-6.028,2.779-7.293c-4.885-2.556-11.247,10.735-13.746,12.78
	c-0.772-0.581-1.106-0.727-1.931-1.193c0.018-0.03,2.033-4.572,3.862-9.145c1.801-4.502,3.442-9.027,0.515-10.231
	c-5.257-2.163-7.45,15.714-8.127,18.524c-0.001,0.007-0.771-0.04-1.192,0.057c0.109-4.138,0.495-10.293-0.348-14.39
	c-0.355-1.731-2.798-6.132-4.645-3.249c-1.678,2.618-1.125,7.465-0.734,10.334c0.513,3.768,1.822,7.397,2.125,11.196
	c0.224,2.792-0.254,5.605-0.778,8.381c-0.296-0.515-0.663-0.998-1.007-1.443c-2.466-3.186-5.687-4.065-9.594-3.845
	c-3.88,0.218-7.779,1.637-9.829,5.112c-1.226,2.079-0.255,4.704,2.243,5.009c3.51,0.429,5.957-2.42,9.315-2.594
	c3.639-0.189,0.161,4.677-0.572,5.627c-0.785,1.016-1.731,2.201-1.859,3.532c-0.533,5.528,7.875,7.506,12.434,8.234
	c3.349,9.728,6.256,19.718,6.635,30.063c0.171,4.656,0.046,10.405-1.974,14.702c-0.891,1.895-3.7-3.814-3.89-4.334
	c-0.656-1.8-1.03-3.708-1.391-5.585c-1.404-7.298-2.996-13.964-6.731-20.502c-3.932-6.883-9.769-12.823-17.286-15.625
	c-0.096-0.036-0.186-0.052-0.273-0.059c-7.7-5.871-17.55-11.177-25.244-10.907c-5.058,0.177-12.008,3.25-18.543,7.48
	c-0.058-0.013-0.118-0.024-0.183-0.027c-12.812-0.633-32.104,2.428-44.374,5.722c2.556,2.669,5.33,6.503,6.362,8.805
	c4.214-1.352,21.698-5.737,26.931-5.572c-2.735,2.682-4.938,5.384-6.243,7.837c-7.927,14.902,0,31.624,5.692,34.641
	c-0.079,5.765-4.817,20.686-6.527,26.173c-1.862,5.974-3.734,10.734-6.122,16.532c-2.788,6.771-7.95,15.781-8.372,21.442
	c8.239,3.113,54.759,14.151,87.852-0.21c-3.7-6.202-6.35-13.528-6.522-20.671c-0.155-6.484-0.03-31.547,2.095-38.831
	c5.527-3.777,8.213-9.177,9.481-13.705c1.672,10.681,4.642,22.42,15.082,17.572c7.436-3.453,8.445-15.031,8.95-22.059
	c0.414-5.767,0.123-11.488-1.019-17.163c-0.69-3.424-1.772-6.76-3.066-10.001c-1.016-2.545-2.025-5.562-3.715-7.737
	c-0.024-0.031-0.049-0.052-0.074-0.078c0.894-0.618,4.18-2.43,5.917-6.326c1.86-4.171,1.474-8.197,1.546-12.613
	c0.046-2.886,5.444-5.129,7.623-6.041C636.47,297.848,637.038,293.872,634.753,293.602z"/>
<path fill="#ECC6B8" d="M620.054,297.394c2.296-1.674,4.476-6.121,6.93-9.145c1.836-2.262,4.195-3.607,4.862-3.053
	c1.556,1.293-2.574,5.077-4.096,6.703c-1.738,1.857-6.793,6.393-6.844,6.461C620.677,298.175,620.004,297.43,620.054,297.394z"/>
<path fill="#ECC6B8" d="M616.333,286.098c0.55-1.956,1.846-7.973,4.483-8.221c2.885-0.273-0.724,7.817-1.099,8.643
	c-1.049,2.307-2.683,6.711-3.356,9.171c-0.573-0.241-1.393-0.509-1.988-0.625C614.926,292.743,615.687,288.399,616.333,286.098z"/>
<path fill="#ECC6B8" d="M503.723,333.806c-0.909-1.364-2.443-3.408-3.805-4.829c12.099-3.294,26.163-4.905,37.556-4.877
	c-2.236,1.59-4.375,3.294-6.327,5.033c-0.001,0-0.002,0-0.003,0C525.762,329.034,509.063,332.158,503.723,333.806z"/>
<path fill="#ECC6B8" d="M560.711,317.463c13.939-0.174,35.208,20.871,36.895,32.045c-12.228,4.817-25.721,4.593-39.003,2.707
	c-0.812-0.115-1.693-0.247-2.626-0.399c0.027-6.989,5.194-11.632,11.819-13.297c1.243-0.313,0.602-2.46-0.641-2.147
	c-3.072,0.772-5.846,2.198-8.048,4.155c-0.663-2.262-2.267-5.272-4.857-5.433c-1.281-0.08-1.25,1.732,0,1.988
	c2.299,0.471,3.069,3.678,3.321,4.617c-2.499,2.954-3.5,6.023-3.577,9.778c-7.864-1.417-18.812-4.274-28.702-10.825
	C526.348,335.967,543.846,317.674,560.711,317.463z"/>
<path fill="#67A62F" d="M588.751,376.633c-2.277,7.187-2.898,31.947-2.973,39.488c-0.073,7.362,1.365,13.348,4.96,19.806
	c-25.932,11.698-72.502,1.647-79.276-1.282c1.054-8.068,9.262-22.55,11.331-28.206c2.481-6.785,9.407-30.108,8.825-34.241
	c-8.222-5.109-11.806-21.634-7.379-29.224c10.275,5.921,20.066,10.461,39.213,12.595c5.853,0.653,23.649,0.626,34.847-3.433
	c0.28,0.972,0.521,2.17,0.75,3.528C599.376,366.352,592.357,374.092,588.751,376.633z"/>
<path fill="#ECC6B8" d="M630.676,298.927c-3.2,1.71-7.423,3.282-8.085,5.968c-0.334,1.354-0.035,2.852,0.026,4.217
	c0.11,2.473-0.306,4.924-1,7.288c-0.748,2.547-2.925,6.099-7.412,8.144c1.079,1.477,3.87,7.929,4.492,9.488
	c1.187,2.972,2.062,6.06,2.74,9.185c1.122,5.162,1.306,10.426,1.009,15.682c-0.386,6.852-1.148,17.621-8.026,21.296
	c-9.266,4.951-11.336-9.222-12.825-19.864c0.113-9.316-3.635-18.858-10.147-28.265c5.188,4.271,8.974,10.311,11.506,16.477
	c1.496,3.641,2.362,7.376,3.023,11.24c0.64,3.737,1.254,7.616,3.105,10.979c0.974,1.771,4.201,5.179,6.001,2.385
	c2.318-3.596,2.405-9.322,2.522-13.458c0.322-11.291-6.127-31.167-7.184-34.496c-3.082-0.437-14.111-2.426-11.462-7.353
	c1.072-1.993,3.687-3.856,3.621-6.348c-0.058-2.193-1.432-3.733-3.613-3.901c-2.276-0.176-5.015,2.056-7.028,2.869
	c-2.011,0.811-4.235-0.777-2.784-3.238c1.194-2.024,4.038-3.059,6.192-3.522c4.22-0.907,7.781-0.143,10.452,3.351
	c1.34,1.753,0.568,4.658-1.469,6.673c-0.812,0.803,0.8,2.016,1.561,1.205c3.623-3.86,8.066-4.181,12.632-2.083
	c1.156,0.531,1.748-0.683,0.585-1.217c-3.677-1.689-7.16-2.3-10.36-1.072c0.828-4.866,1.888-9.622,0.968-14.571
	c-0.824-4.434-2.197-8.707-1.987-13.266c0.064-1.388,0.196-2.788,0.603-4.122c0.359-1.174,1.146,0.27,1.431,0.722
	c0.617,0.981,0.795,2.21,0.924,3.337c0.435,3.794,0.504,15.033,0.963,14.852c4.341-1.712,8.237,2.215,10.395,4.828
	c2.395-2.54,9.259-8.577,12.156-7.328C635.572,295.602,633.565,297.383,630.676,298.927z"/>
<path d="M748.432,208.772c-2.316-0.945-5.965-1.195-8.46-0.818c-3.094,0.469-7.115,0.53-9.471,0.481
	c0.826-2.336,2.815-4.016,4.663-5.961c2.676-2.815,5.493-4.458,8.268-7.019c2.119-1.955,7.968-7.655,3.107-9.78
	c-4.598-2.011-8.69,2.514-11.519,5.406c-1.756,1.795-3.792,4.426-5.288,6.441c-2.378,3.203-3.354,5.571-5.192,9.086
	c-0.625-0.144-1.584-0.3-2.211-0.288c1.106-7.176,6.624-11.251,10.734-16.897c1.5-2.062,5.412-8.194,1.813-10.119
	c-4.729-2.529-9.124,3.919-11.21,7.263c-1.466,2.352-2.661,4.876-3.75,7.419c-1.623,3.791-2.07,7.873-2.758,11.9
	c-0.306-0.005-0.611-0.021-0.912-0.06c-0.018-3.92-0.134-7.955,0.649-11.797c0.722-3.543,2.16-6.941,2.139-10.605
	c-0.011-1.916-0.073-4.113-2.012-5.062c-1.942-0.951-4.279,0.01-5.632,1.471c-3.12,3.369-3.148,9.755-3.195,14.06
	c-0.08,7.391,2.987,14.221,5.314,21.092c-0.331,0.011-0.648,0.024-0.934,0.054c-0.503-0.68-1.679-4.131-3.42-6.27
	c-1.916-2.354-5.114-2.684-7.979-2.403c-2.863,0.281-5.717,0.902-7.881,2.831c-1.857,1.655-2.487,4.938-0.568,6.814
	c2.035,1.99,5.096,2.348,7.566,0.955c1.309-0.737,2.265-1.994,3.734-2.457c2.209-0.697,2.948,2.903,2.754,4.27
	c-0.189,1.332-0.829,2.73-1.403,3.928c-1.415,2.951-2.411,5.064-0.142,7.864c1.892,2.334,6.61,3.801,9.948,3.713
	c0.792,4.216,2.247,8.246,3.518,12.333c1.464,4.707,2.261,9.539,2.716,14.441c0.906,9.744,0.395,19.794-0.969,29.471
	c-1.212,8.606-2.881,17.291-6.486,25.207c-4.036,8.861-8.863,15.639-13.895,22.931c-2.282-3.019-4.422-5.23-7.281-7.511
	c-4.642-3.704-9.987-6.559-15.415-8.808c-8.731-3.618-11.047-7.15-13.209-0.664c-0.536,1.611-3.728,15.435-6.943,26.733
	c-8.712,10.906-17.747,21.744-29.089,30.015c-10.257,7.48-27.245,14.15-40.854,15.124c-0.517,2.041-0.454,5.965-0.341,8.407
	c7.782,1.42,23.573-2.841,38.329-12.244c9.03-5.755,18.117-12.374,25.604-20.206c-4.186,13.392-9.289,28.824-12.809,36.948
	c-5.782,13.342-16.678,29.131-21.125,34.246c16.01,2.446,58.909,4.875,89.374,4.207c5.818-16.964,8.29-26.918,9.344-44.866
	c1.043-17.788-1.158-36.051-9.427-51.73c-0.397-0.752-0.814-1.503-1.243-2.25c11.092-16.941,22.155-34.359,25.997-54.56
	c3.784-19.89-0.081-41.188-8.786-59.346c5.322-1.553,9.762-4.455,11.767-9.741c0.525-1.385,0.882-3.381,0.756-4.839
	c-0.131-1.507-1.236-3.189-1.044-3.67c0.192-0.48,2.788-0.24,4.855,0.433c2.067,0.673,5.323,2.361,8.557,2.548
	c2.38,0.137,4.526-1.205,5.15-3.377C752.989,210.903,750.482,209.607,748.432,208.772z"/>
<path fill="#3EAAE4" d="M624.957,387.556c-10.066,6.627-23.38,12.264-35.576,12.479c-0.04-1.156-0.125-3.513,0-4.658
	c13.178-0.966,28.68-7.33,39.187-14.816c10.538-7.509,19.109-17.212,27.222-27.213c-0.968,3.279-2.178,7.302-3.528,11.685
	C644.572,373.942,634.726,381.125,624.957,387.556z"/>
<path fill="#56B1E6" d="M705.331,351.814c7.466,15.269,9.186,33.067,7.856,50.052c-1.075,13.716-3.515,24.292-8.863,40.07
	c-20.236,0.445-59.59-0.559-82.049-3.227c4.878-7.277,13.785-18.111,21.894-38.109c8.108-19.998,22.581-76.634,23.025-78.858
	c0.445-2.224,19.902,7.942,24.502,11.669C697.512,338.125,702.015,345.029,705.331,351.814z"/>
<path fill="#3EAAE4" d="M728.906,291.82c-3.673,19.308-14.445,36.151-25.05,52.351c-0.679-1.101-1.602-2.589-2.348-3.652
	c0.118-0.08,5.056-7.779,7.6-11.708c2.382-3.681,4.748-7.716,6.449-11.751c3.6-8.534,5.642-17.704,6.931-26.849
	c1.352-9.601,1.719-19.486,0.92-29.15c-0.394-4.773-1.195-9.509-2.529-14.11c-1.305-4.502-2.981-8.868-3.838-13.493
	c0.502-0.547,2.12-1.2,3.178-0.814C729.032,250.786,732.692,271.914,728.906,291.82z"/>
<path fill="#ECC298" d="M748.607,215.017c-2.098,1.11-6.397-1.053-8.998-2.006c-1.945-0.713-8.095-1.583-7.664,0.568
	c0.288,1.442,0.673,2.692,0.859,4.534c0.332,3.304-2.092,6.607-4.307,8.547c-2.027,1.775-4.565,2.969-7.176,3.682
	c-1.908-0.855-5.083-0.015-6.576,2.007c-1.681-0.062-4.422-0.857-6.203-1.74c-2.494-1.235-3.255-3.209-2.063-5.67
	c1.534-3.169,3.252-6.46,1.654-9.92c-1.301-2.818-4.279-2.423-6.521-0.864c-1.501,1.044-2.636,1.623-4.59,1.682
	c-3.116,0.095-4.377-3.059-2.318-5.233c2.212-2.336,6.564-3.025,9.607-2.598c2.044,0.286,3.641,1.439,4.75,3.14
	c0.846,1.296,2.192,4.371,2.886,5.702c3.125-0.865,7.403-1.97,13.172-0.528c1.238,0.31,1.573-1.093,0.341-1.445
	c-2.84-0.814-5.052-0.814-9.914-0.07c-1.8-5.379-4.04-10.623-4.997-16.243c-0.794-4.666-0.482-10.135,0.916-14.686
	c0.53-1.727,2.77-5.481,5.076-3.497c1.499,1.29,0.199,6.25-0.172,7.773c-0.637,2.616-1.447,5.157-1.797,7.835
	c-0.458,3.497,0.31,7.633,0.309,11.152c1.153,0.192,2.692,0.144,3.654,0c0.648-3.614,1.477-7.235,2.577-10.751
	c0.722-2.309,1.909-4.542,3.042-6.67c1.291-2.427,3.032-4.559,4.732-6.73c1.906-2.432,5.079-3.041,5.175-0.413
	c0.066,1.816-0.768,2.927-1.702,4.377c-1.321,2.051-2.844,4.002-4.338,5.926c-3.739,4.817-6.477,8.408-7.083,14.693
	c1.539,0.096,2.943,0.101,4.038,0.481c1.664-3.017,2.964-4.43,4.649-7.436c1.044-1.863,2.459-3.519,3.85-5.126
	c2.532-2.924,7.331-8.908,11.746-8.154c3.105,0.53-0.891,4.634-1.808,5.617c-1.698,1.822-3.645,3.346-5.597,4.883
	c-4.021,3.166-8.308,6.115-9.235,11.419c2.643,0.865,12.825-0.308,16.097,0.199C747.279,209.855,753.559,212.397,748.607,215.017z"
	/>
<path d="M429.528,320.268c-8.593-0.387-29.011,2.989-29.057,3.001c-2.707-1.376-6.006-1.726-8.926-1.925
	c-15.346-1.044-31.12-0.948-46.402,0.727c-7.445,0.816-15.119,2.017-22.037,5.014c-4.765,2.065-9.361,6.118-9.782,10.756
	c-3.561,7.897-11.011,19.469-13.238,21.058c-1.084,9.29-7.201,15.716-8.671,17.651c3.183,0.275,20.572-11.631,21.327-12.388
	c0.768,7.987,4.487,15.31,5.047,23.314c0.626,8.944-3.559,46.396-3.318,55.639c23.823,1.898,61.302-1.594,65.777-2.53
	c2.951-8.643,5.348-28.06,6.957-37.948c1.476-9.066,7.812-22.024,12.409-34.827c3.893-10.841,6.842-22.806,6.465-34.428
	c-0.019-0.585-0.063-1.17-0.136-1.749c1.318-0.441,5.548-1.144,9.651-1.376C418.844,327.235,422.948,323.673,429.528,320.268z"/>
<path fill="#0D3B8F" d="M312.627,360.756c-4.05,3.295-11.202,8.565-13.78,9.522c3.02-4.955,3.369-9.599,3.484-10.452
	c5.186-5.806,9.008-10.747,10.497-14.366C312.542,350.673,312.393,355.921,312.627,360.756z"/>
<path fill="#0D3B8F" d="M401.377,350.739c-2.641,13.855-9.324,27.862-14.594,41.565c-2.155,5.602-2.775,9.845-3.604,15.804
	c-0.823,5.911-2.089,17.507-5.462,29.313c-7.252,1.202-42.304,4.44-60.295,2.319c-0.234-17.551,3.634-33.845,3.386-51.388
	c-0.116-8.17-4.077-15.624-5.033-23.663c-1.059-8.902,0.085-24.161,1.015-28.043c0.93-3.882,7.028-6.888,11.514-8.318
	c8.211-2.618,16.983-3.475,25.543-4.022c8.455-0.54,16.939-0.576,25.406-0.396c3.022,0.064,6.042,0.166,9.062,0.28
	c3.847,0.145,8.027,0.127,11.452,2.119c2.98,1.732,3.351,5.319,3.351,8.434C403.119,340.042,402.365,345.554,401.377,350.739z"/>
<path fill="#0D3B8F" d="M413.425,328.319c-0.813,0.247-7.068,1.192-7.854,1.395c-0.481-1.82-1.344-3.504-2.778-4.844
	c5.445-1.273,13.968-2.443,19.38-2.899C418.767,323.907,415.98,326.074,413.425,328.319z"/>
<path d="M285.115,405.241c-1.298-5.733-1.893-12.101,0.759-17.53c2.045-4.185,5.513-7.506,8.516-10.993
	c5.363-6.229,8.38-13.16,7.111-21.423c-1.129-7.352-3.656-14.587-6.472-21.442c-3.532-8.6-15.362-33.142-26.731-21.789
	c-0.172,0.037-0.349,0.108-0.527,0.23c-6.285,4.322-10.451,10.595-14.783,16.729c-2.445,3.463-4.988,6.586-8.399,9.148
	c-3.137,2.356-6.624,4.223-9.961,6.274c-0.692,0.425-1.397,0.867-2.102,1.327c-6.186-1.813-13.477-2.397-19.892-1.89
	c-7.266,0.574-19.065,1.487-26.587,2.186c1.399,2.361,5.422,6.472,9.096,10.845c8.133-2.536,19.94-5.859,28.65-3.014
	c-1.002,1.649-1.682,3.476-1.874,5.519c-0.56,5.983,3.678,10.888,8.434,13.914c-5.025,21.591-4.523,43.708-7.101,65.645
	c31.135,4.559,64.656,4.348,80.069,3.031C295.442,430.842,288.162,418.702,285.115,405.241z"/>
<path fill="#C1001F" d="M224.543,352.058c-4.075-1.547-8.848-1.181-13.484-0.744c-4.635,0.437-10.932,2.187-15.392,3.673
	c-0.833-1.714-5.768-6.283-7.259-7.434c5.727-0.309,16.355-1.574,23.788-2.012c7.434-0.437,12.076,0.146,18.181,1.701
	c-2.034,1.471-3.961,3.128-5.466,5.046C224.814,352.194,224.692,352.114,224.543,352.058z"/>
<path fill="#C1001F" d="M226.558,436.156c2.45-21.621,2.9-43.056,8.011-64.301c-6.957-3.373-10.6-8.903-8.544-15.201
	c1.071-3.279,4.165-5.563,6.836-7.486c2.754-1.982,5.745-3.627,8.642-5.386c2.819-1.711,5.519-3.589,7.972-5.798
	c2.382-2.144,4.239-4.86,6.088-7.457c3.676-5.163,10.208-15.595,17.165-18.757c6.957-3.162,18.12,19.409,20.553,25.703
	c2.499,6.464,4.888,13.423,5.565,20.363c0.936,9.591-6.12,15.904-11.673,22.647c-2.76,3.35-4.986,7.058-5.79,11.371
	c-1.054,5.655,0.163,11.876,1.642,17.342c3.14,11.607,7.56,20.049,14.369,29.912C273.044,439.871,250.592,439.951,226.558,436.156z"
	/>
<path d="M229.951,393.206c0,0-16.46-14.298-20.831-20.113c-3.857-5.131-15.901-21.69-22.223-26.014
	c-1.416-3.901-2.783-7.151-3.998-9.534c-2.175-4.266-5.356-8.067-9.677-9.34c-4.022-1.184-8.225,0.485-11.887,2.262
	c-7.39,3.585-14.4,8.265-20.902,13.675c-10.356,3.062-39.503,10.372-40.342,9.162c-2.389-3.446-9.195-34.779-9.24-34.905
	c2.621-1.043,4.718-2.814,5.607-5.893c0.62-2.15-0.005-4.39-0.634-6.45c-0.432-1.417-0.779-2.758-0.738-4.255
	c0.045-1.669,1.874-1.854,3.136-1.879c2.225-0.043,4.265,2.142,6.462,2.576c1.821,0.36,3.661-0.48,4.766-1.904
	c2.494-3.215-0.269-6.755-3.126-8.362c-2.951-1.66-6.442-2.057-9.77-1.841c-2.803,0.182-5.614,1.052-7.631,2.591
	c0.071-1.444,0.458-2.964,0.661-4.289c0.499-3.259,0.503-6.389,0.732-9.679c0.235-3.378-0.016-6.775-0.503-10.118
	c-0.27-1.844-0.609-5.749-2.493-6.852c-3.383-1.982-4.041,6.69-4.056,8.24c-0.056,5.607,1.371,10.712,0.899,16.313
	c-0.454,0.051-0.857,0.048-1.312,0c-0.227-6.227-0.392-11.821-1.139-18.015c-0.513-4.255-0.611-12.86-5.158-12.16
	c-4.548,0.7-4.223,10.053-3.309,15.452c0.544,3.214,3.134,14.808,3.134,14.808s-1.147,0.543-2.163,0.799
	c-0.759-5.196-2.079-10.371-3.442-15.426c-0.898-3.33-1.909-6.641-3.204-9.84c-0.823-2.035-3.696-6.926-6.757-2.641
	c-1.639,2.295-0.699,6.062-0.263,8.571c0.563,3.232,0.942,4.096,1.875,7.233c1.457,4.896,2.996,9.961,5.963,14.178
	c-1.06,0.467-2.043,0.997-2.83,1.749c-1.247-6.806-3.17-12.753-6.406-18.613c-1.224-2.215-3.533-5.297-5.684-3.06
	c-1.945,2.021,0.269,9.058,0.874,11.369c2.336,8.925,4.301,11.972,6.672,20.915c1.78,6.714,5.663,14.868,12.979,16.748
	c1.995,0.849,4.087,1.225,6.206,1.307c-1.068,1.063-1.597,2.588-1.18,4.782c0.663,3.497,2.458,7.019,3.924,10.235
	c1.956,4.287,4.194,8.445,6.538,12.531c1.788,3.116,3.646,6.221,5.568,9.258c1.566,2.475,3.513,5.057,6.668,5.291
	c4.246,0.314,8.843-0.747,13.059-1.267c3.644-0.449,7.27-1.041,10.856-1.826c-16.493,20.169-36.136,55.905-39.269,72.123
	c40.267,10.752,89.178,11.385,111.315,2.741c4.318-17.907,0.559-45.202-4.544-66.168c13.556,14.78,29.209,35.882,35.245,42.678
	C228.464,404.4,229.951,393.206,229.951,393.206z"/>
<path fill="#ECC3A6" d="M73.578,316.983c-6.909-2.84-9.253-9.117-10.97-14.893c-1.126-3.79-2.157-7.51-3.615-11.198
	c-1.372-3.47-2.206-6.83-3.168-9.892c-0.865-2.754-2.519-10.562-0.437-10.232c1.506,0.239,4,5.2,4.46,6.472
	c1.836,5.073,3.849,9.183,4.635,16.439c2.186-1.924,4.285-3.061,5.685-3.761c-4.529-5.964-5.623-11.23-7.346-18.45
	c-0.716-3.004-2.013-6.383-1.224-9.445c0.712-2.762,2.749-2.533,3.498-1.312c2.925,4.771,3.67,9.39,5.025,14.755
	c1.09,4.314,2.508,8.9,3.107,13.315c1.569,0.187,4.636-1.486,4.636-1.486s-1.072-6.277-1.618-8.621
	c-1.484-6.371-4.155-17.441,0.218-20.415c2.652-1.804,3.523,8.048,3.965,12.168c0.622,5.796,1.063,11.924,1.282,17.745
	c1.225-0.084,2.053-0.3,3.236,0c0.653-4.326,0.454-8.789,0.079-12.879c-0.174-1.9-0.287-3.802-0.267-5.711
	c0.01-1.032,0.231-3.65,0.953-5.038c0.722-1.388,1.971-1.246,2.471,0.624c1.312,4.897,0.962,12.856,0.875,15.392
	c-0.088,2.536-1.165,11.966-1.487,13.119c-0.911,1.304-1.755,3.986-1.525,5.854c-5.518-1.354-12.595-1.461-16.011,3.505
	c-0.911,1.324,0.543,1.834,1.444,0.523c3.108-4.518,11.528-2.473,15.946-1.058c0.861,0.276,1.935-0.68,1.527-1.529
	c-3.043-6.333,3.668-9.226,8.589-9.307c2.687-0.044,7.107,0.914,9.182,2.624c2.974,2.449,3.109,5.91-0.437,6.297
	c-1.785,0.195-4.17-2.06-5.762-2.641c-2.187-0.799-5.502-0.79-7.042,1.294c-1.929,2.612-0.397,6.233,0.388,8.976
	C96.609,317.797,80.486,319.824,73.578,316.983z"/>
<path fill="#E9B200" d="M102.177,360.847c-2.117,0.011-4.005-2.553-5.16-4.11c-1.693-2.282-11.423-19.344-14.255-26.15
	c-0.818-1.965-2.531-7.134-0.87-9.033c1.264-1.444,4.414-1.518,6.63-1.516c0.529,7.784,9.807,34.075,10.419,35.037
	c0.613,0.962,34.636-6.39,37.394-7.368c-1.303,1.184-2.585,2.393-3.841,3.631c-1.438,1.417-3.864,3.816-5.392,5.574
	C114.596,359.36,103.749,360.839,102.177,360.847z"/>
<path fill="#E9B200" d="M195.145,430.675c-25.72,9.909-91.497,0.844-102.713-2.64c4.259-16.966,28.161-62.947,49.054-80.617
	c5.21-4.406,10.787-7.97,16.533-11.379c4.272-2.534,9.414-5.75,14.411-4.579c5.904,1.384,9.386,9.503,11.276,15.168
	C190.929,368.271,198.307,396.732,195.145,430.675z"/>
<path fill="#E9B200" d="M192.111,363.882c-1.331-4.986-2.734-9.607-4.118-13.677c5.663,4.871,16.66,19.794,20.181,24.461
	c4.009,5.315,19.852,19.153,19.852,19.153s-1.124,9.388-1.399,11.369C221.683,399.085,203.714,375.19,192.111,363.882z"/>
<g>
	<path d="M615.462,211.863c-0.002,0.005-0.004,0.009-0.006,0.014C615.458,211.872,615.461,211.867,615.462,211.863L615.462,211.863z
		"/>
	<path d="M697.471,306.928c-0.811-8.878-3.009-17.654-5.073-26.331c-2.27-9.545-4.719-19.072-6.095-28.785
		c-0.753-5.46-1.595-11.853-2.377-18.265c4.366-0.593,7.822-4.405,7.822-8.912c0-4.908-4.095-9.003-9.001-9.003
		c-0.264,0-0.524,0.017-0.783,0.04c-0.518-5.556-0.833-10.258-0.795-13.201c3.826-2.7,8.102-5.627,11.591-7.877
		c-4.614-2.813-13.921-0.186-17.451,1.037c-0.007-0.036-0.015-0.07-0.022-0.104c5.056-4.207,11.11-8.671,7.686-15.544
		c-2.464-4.946-8.775-6.169-14.47-6.169c-1.853,0-3.64,0.129-5.207,0.301c-3.405,0.375-18.453,5.402-21.476,7.05
		c4.651,1.651,10.09,2.926,13.691,3.526c-8.389-0.387-14.45,1.011-21.831,2.813c-7.38,1.802-18.005,7.99-16.759,11.157
		c3.179-2.221,7.377-4.873,10.252-5.546c-4.746,3.504-8.507,9.283-11.815,14.867c-2.634,4.445-4.451,10.62-2.608,15.645
		c3.376-0.788,7.427-3.264,10.338-5.961c-0.16,1.794-0.154,3.524-0.015,5.215c-1.284,1.521-2.363,3.261-3.269,4.913
		c-0.618,1.127,1.103,2.133,1.721,1.006c0.563-1.027,1.191-2.107,1.901-3.133c0.251,1.436,0.595,2.852,1.028,4.262
		c-1.942,0.494-7.188,2.91-7.26,8.15c-0.08,5.848,4.599,7.81,8.109,7.734c0,0.944-0.154,2.081-0.19,2.453
		c-3.086,1.006-5.802,2.786-7.791,4.908c-5.642,6.022-3.654,15.665,2.561,20.44c4.514,3.469,9.124,3.374,12.962,1.814
		c5.012,3.99,9.229,19.606,11.486,23.405c2.258,3.8,5.408,8.546,6.875,10.398c7.718,9.757,15.812,13.941,24.237,17.301
		c6.605,2.634,16.255,5.708,20.153-1.982C698.169,319.48,697.968,312.369,697.471,306.928z"/>
	<path fill="#F7DF8D" d="M621.486,216.582c-2.092,1.761-4.619,3.485-7.144,4.684c-0.579-2.366-0.917-6.53,2.797-12.494
		c3.714-5.964,7.99-12.941,15.53-18.229c3.322-2.33,15.945-4.67,30.383-4.839c-5.739-1.913-12.265-3.601-16.092-4.952
		c4.388-1.913,11.904-4.207,15.799-4.748c3.895-0.541,6.383-0.307,9.471-0.086c3.088,0.22,6.346,1.309,8.262,3.634
		c1.916,2.325,2.749,4.623-0.256,8.988c-3.005,4.365-9.419,7.517-11.332,12.017c1.37-0.895,12.603-6.189,20.255-5.401
		c-3.02,1.892-7.582,3.9-10.073,6.424c0.018,3.297,0.341,8.444,0.877,14.51c-1.038,0.347-1.995,0.881-2.833,1.561
		c-3.151-6.78-6.58-13.352-12.068-18.544c-2.693-2.547-6.448-5.417-10.308-5.813c3.937-1.804,7.885-3.382,11.335-4.438
		c0.737-0.227-0.127-1.182-0.675-1.014c-12.828,3.939-21.054,8.185-30.542,14.643C628.28,206.973,625.016,213.611,621.486,216.582z"
		/>
	<path fill="#FFFFFF" d="M618.88,238.947c-0.694-4.302,5.871-9.893,11.405-6.719c2.874,1.649,2.981,5.736,1.848,8.075
		c-1.132,2.34-3.063,3.41-5.735,3.623C623.077,244.191,619.568,243.21,618.88,238.947z"/>
	<path fill="#ECC298" d="M695.434,315.355c-0.386,4.571-1.157,8.149-3.924,10.369c-1.815,1.455-5.358,1.548-7.419,1.195
		c-3.539-0.606-7.69-2.198-11.626-4.108c7.396,1.126,15.498-0.882,15.364-9.317c-0.015-0.963-1.51-0.964-1.495,0
		c0.165,10.29-13.843,9.177-20.654,5.606c-2.335-1.426-4.326-2.811-5.691-3.932c-4.533-3.723-11.788-14.232-14.501-19.252
		c-2.712-5.021-6.054-17.425-11.065-21.787c0.65-0.612,4.958-4.422,6.656-9.238c0.224-0.636-1.315-1.428-1.646-0.922
		c-0.333,0.506-2.92,7.389-8.426,9.757c-5.508,2.367-9.587-1.388-11.402-3.227c-1.814-1.839-4.455-6.283-3.575-10.889
		c0.88-4.607,4.349-7.139,5.946-8.131c1.597-0.99,3.194-1.707,6.811-2.098c1.189-0.129,4.78-0.133,8.276,1.806
		c0.525,0.291,1.658-1.08,0.961-1.575c-1.891-1.344-5.816-2.703-10.457-1.873c-0.076-0.528,0.113-1.321,0.189-2.113
		c3.811-0.793,7.995-5.095,6.416-10.905c-1.058-3.888-4.678-4.769-7.805-5.016c-0.352-0.596-1.05-2.878-1.407-5.991
		c1.852-2.043,4.174-3.478,7.156-3.123c1.274,0.151,1.34-2.737,0.081-2.888c-2.923-0.348-5.426,1.664-7.435,3.437
		c-0.053-1.415-0.022-2.928,0.142-4.49c2.026-3.376,6.189-9.002,11.392-12.93c3.565-2.692,8.433-5.576,14.89-8.678
		c5.07-1.1,11.225,3.579,14.433,6.897c4.608,4.764,7.989,10.462,10.746,16.415c-0.21,0.215-0.414,0.435-0.604,0.668
		c0.286,0.188,0.558,0.393,0.816,0.617c1.365-1.484,3.308-2.43,5.445-2.43c4.047,0,7.426,3.378,7.426,7.426
		c0,4.047-3.379,7.425-7.426,7.425c-1.049,0-2.047-0.234-2.957-0.642c-0.148,0.392-0.326,0.77-0.535,1.128
		c1.001,0.546,2.109,0.914,3.285,1.04c1.035,8.527,2.276,17.209,3.559,24.346c2.645,14.7,7.241,29.028,9.337,43.827
		C695.438,307.009,695.818,310.784,695.434,315.355z"/>
	<path d="M656.566,221.935c0.672-0.16,1.172-1.038,0.531-1.671c-4.114-4.054-11.833-11.433-17.847-7.851
		c-1.102,0.657,0.354,3.816,1.462,3.156c4.891-2.914,11.176,2.408,14.648,5.782c-1.039-0.413-2.162-0.65-3.335-0.65
		c-5.031,0-9.227,4.198-9.227,9.228c0,5.03,4.197,9.227,9.227,9.227s9.227-4.197,9.227-9.227
		C661.251,226.542,659.345,223.539,656.566,221.935z"/>
	<path fill="#FFFFFF" d="M651.828,237.003c-3.964,0-7.271-3.307-7.271-7.271c0-3.963,3.307-7.27,7.271-7.27
		c3.963,0,7.27,3.307,7.27,7.27C659.098,233.696,655.791,237.003,651.828,237.003z"/>
	<path fill="#1F1E21" d="M650.454,229.634c-2.025,0-2.025,3.142,0,3.142C652.479,232.776,652.479,229.634,650.454,229.634z"/>
	<path d="M623.568,237.257c-2.032,0-2.032,3.15,0,3.15S625.599,237.257,623.568,237.257z"/>
	<path d="M682.494,290.519c-0.409-5.306-1.047-9.983-1.65-13.821c-0.877-5.587-1.834-11.162-3.074-16.691
		c-1.168-5.201-2.79-10.828-5.146-13.909c2.316,0.941,4.433,2.448,6.12,4.431c0.833,0.981,1.333-0.579,0.506-1.551
		c-5.162-6.073-13.106-7.844-20.153-3.983c-1.128,0.617-0.122,2.338,1.005,1.72c3.478-1.904,7.392-2.185,10.972-1.154
		c-2.349,2.964-12.171,15.648-15.726,19.977c-3.967,4.828-10.574,11.932-12.232,13.809c0.293,0.584,0.572,1.176,0.844,1.771
		c0.761-0.744,1.508-1.5,2.248-2.265c1.156,4.042,2.605,8.021,4.185,11.912c2.69,6.62,5.892,13.233,10.451,18.882
		c3.303,4.093,8.48,8.81,14.398,7.855c5.091-0.824,6.551-6.921,7.249-11C683.209,302.303,682.901,295.826,682.494,290.519z"/>
	<path fill="#FFFFFF" d="M650.886,286.885c-1.15-3.082-2.272-6.492-3.14-9.653c2.898-3.105,5.649-6.341,8.315-9.622
		c5.162-6.346,10.031-12.905,15.156-19.28c0.869,0.34,1.64,1.992,2.135,3.258c0.812,2.075,1.612,4.564,1.707,5.451
		C669.277,266.456,653.364,285.068,650.886,286.885z"/>
	<path fill="#FFFFFF" d="M681.103,299.931c-0.039,2.016-0.166,4.034-0.443,6.034c-0.286,1.954-0.713,3.911-1.5,5.74
		c-0.341,0.753-0.751,1.477-1.264,2.134c-0.313,0.373-0.656,0.716-1.042,1.019c-0.329,0.233-0.681,0.433-1.054,0.594
		c-0.372,0.14-0.757,0.237-1.153,0.3c-0.615,0.065-1.237,0.039-1.851-0.032c-0.878-0.128-1.729-0.364-2.55-0.686
		c-1.125-0.473-2.17-1.094-3.151-1.805c-0.707-0.531-1.375-1.105-2.013-1.709c0.029-0.021,0.058-0.038,0.085-0.063
		c5.442-4.957,10.745-10.057,15.914-15.279C681.114,297.43,681.126,298.681,681.103,299.931z"/>
	<path fill="#F5DFC6" d="M618.922,256.914c0.783-1.782,3.614-5.061,7.951-5.784c4.338-0.722,4.338,5.423,3.073,8.315
		c-1.264,2.892-5.783,7.229-8.494,6.868C618.741,265.951,616.933,261.432,618.922,256.914z"/>
	<path fill="#F5DFC6" d="M676.937,221.49c1.577-2.027,6.327-3.796,8.856-1.084c2.53,2.711-1.446,3.253-4.338,3.615
		C678.564,224.382,675.672,223.117,676.937,221.49z"/>
	<path fill="#F5DFC6" d="M660.671,242.636c2.151-0.774,6.955-2.122,12.47,0c2.35,0.903,6.145,3.072,6.688,3.976
		c0.542,0.905,0.18-9.398-7.591-10.302C664.467,235.407,656.153,244.263,660.671,242.636z"/>
	<path fill="#F5DFC6" d="M681.817,313.484c1.173-1.76,3.073-3.072,3.433,0c0.363,3.073-2.169,5.422-4.157,5.964
		C679.106,319.99,679.648,316.736,681.817,313.484z"/>
	<path fill="#DEB181" d="M627.777,213.538c0,0,6.146-7.41,11.206-10.664c5.06-3.253,11.025-6.687,12.833-7.048
		c1.807-0.362,5.72,0.439,9.035,3.072c6.146,4.88,10.123,11.025,10.123,11.025s-15.76-10.167-18.797-9.579
		C640.971,202.513,627.777,213.538,627.777,213.538z"/>
	<path fill="#FCF2D3" d="M653.53,188.059c-2.411,0.432-4.791,1.053-7.113,1.883c-6.005,2.145-11.603,5.521-16,10.179
		c-4.287,4.542-8.446,9.619-11.339,15.244c1.812-1.796,6.493-6.311,14.664-13.393c10.844-9.398,25.484-13.736,25.484-13.736
		S656.932,188.023,653.53,188.059z"/>
	<path fill="#FCF2D3" d="M629.417,199.121c4.477-4.57,9.914-8.146,15.951-10.302c0.298-0.106,0.596-0.207,0.895-0.307
		c-6.255,0.743-13.312,2.596-17.582,6.952c-5.869,5.987-8.535,12.961-9.683,17.117C621.836,207.652,625.535,203.084,629.417,199.121
		z"/>
	<path fill="#FCF2D3" d="M655.971,179.922c0,0,6.868-3.796,16.267-2.531s6.687,10.482,6.687,10.482s-1.265-5.422-7.952-6.687
		C664.285,179.922,655.971,179.922,655.971,179.922z"/>
	<path fill="#E1C174" d="M678.021,202.513c0,0,0.362,5.422,0.542,7.41c0.181,1.988,0.904,5.241,0.904,5.241l-2.169,1.446
		c0,0-1.446-3.977-2.711-6.145c-1.266-2.17-3.072-5.061-3.072-5.061L678.021,202.513z"/>
	<path fill="#E1C174" d="M668.623,199.623c0,0,0.723-2.169,2.891-4.157c2.169-1.988,6.506-6.145,6.506-6.145
		s-5.061,0.903-8.313,3.434C666.454,195.285,668.623,199.623,668.623,199.623z"/>
</g>
<g>
	<path d="M130.35,266.653c-0.009,0.002-0.018,0.002-0.026,0.003c0.02-0.003,0.04-0.005,0.06-0.007
		C130.374,266.652,130.362,266.652,130.35,266.653z"/>
	<path d="M229.632,269.042c-2.076-1.555-4.633-2.775-7.346-3.567c-2.718-0.792-5.591-1.155-8.295-0.999
		c1.081-7.678,3.036-31.749,3.041-31.751c2.147-0.689,3.101-2.599,3.107-4.795c0.012-4.328-6.372-7.913-12.799-10.552
		c-6.468-2.656-13.143-4.666-19.72-6.964c-1.854-0.646-3.687-1.351-5.481-2.142c-2.937-1.327-5.789-2.859-8.267-4.929
		c-4.468-3.731-7.221-8.861-7.761-12.656c-5.283,3.015-10.417,13.006-3.195,21.553c4.698,5.561,12.435,8.326,19.173,10.52
		c-5.601,4.037-28.942,26.561-36.536,40.673c-4.128-0.114-8.258-0.031-12.374,0.302c-11.222,0.91-22.598,3.746-31.756,10.557
		c-0.666,0.493-0.488,1.722,0.214,2.088c10.809,5.625,23.847,6.585,35.936,6.062c-0.771,5.726,2.46,12.046,4.217,17.525
		c2.034,6.331,3.775,12.173,6.21,18.364c1.811,4.722,2.984,11.413,6.817,15.024c2.476,2.335,5.986,3.347,9.317,2.887
		c7.163-0.988,13.084-7.969,16.762-13.185c3.678-5.217,7.117-10.843,9.831-15.376c2.713-4.534,14.575-23.632,16.61-28.968
		c7.23,1.46,15.296-2.805,19.079-4.927c1.33-0.747,2.78-1.631,3.65-2.925C230.493,270.223,230.189,269.46,229.632,269.042z"/>
	<path fill="#995D2A" d="M167.121,212.643c-1.075-0.893-2.103-1.862-2.908-3.01c-1.319-1.883-1.78-3.893-1.886-4.68
		c-0.083-0.896-0.058-1.793,0.065-2.683c0.215-1.263,0.61-2.484,1.114-3.657c0.374-0.815,0.798-1.603,1.258-2.371
		c3.185,5.692,7.719,10.077,13.608,13.139c6.218,3.235,13.027,5.081,19.67,7.203c6.753,2.157,13.041,4.758,16.465,7.326
		c1.967,1.474,2.99,2.479,3.278,3.743c0.16,0.702-0.338,2.163-1.256,2.717c-1.577,0.951-5.109-0.06-4.742-1.765
		c-5.925-2.603-12.186-3.706-18.406-5.339c-6.132-1.609-13.888-3.897-17.792-5.617C171.689,215.929,169.564,214.597,167.121,212.643
		z"/>
	<path fill="#ECC3A6" d="M220.917,273.608c-2.654,0.993-5.498,1.688-8.448,2.062c-1.267,0.134-3.682,0.452-5.056-0.089
		c-1.373-0.539-2.408-2.552-2.408-2.557c-0.568-1.591-2.624-0.244-2.051,1.368c0.37,1.043,0.927,1.861,1.628,2.492
		c-3.341,6.501-8.557,16.028-11.722,21.812c-3.166,5.785-12.399,20.465-16.629,25.709c-1.981,2.421-4.154,4.725-6.675,6.59
		c-1.124,0.802-2.317,1.503-3.595,2.03c-0.828,0.311-1.685,0.541-2.566,0.663c-0.725,0.066-1.451,0.058-2.171-0.038
		c-0.726-0.127-1.431-0.34-2.111-0.625c-0.807-0.379-1.569-0.849-2.272-1.398c-0.33-0.289-0.618-0.616-0.884-0.966
		c-0.805-1.161-1.402-2.454-1.932-3.763c-1.23-3.136-7.39-20.599-9.199-26.124c-0.852-2.605-2.507-7.113-3.069-8.796
		c-0.561-1.684-2.379-6.349-1.736-9.657c1.729-0.098,16.728-1.75,24.626-4.086c1.631-0.482,1-3.054-0.642-2.568
		c-5.605,1.658-11.378,2.725-17.176,3.415c-9.309,1.067-18.812,1.194-28.097-0.2c-4.671-0.734-13.344-3.27-13.812-3.832
		c-0.467-0.563,5.563-3.216,8.554-4.404c5.38-2.076,11.051-3.299,16.771-3.978c-0.044,0.005-0.088,0.01-0.132,0.014
		c0.051-0.004,0.101-0.011,0.153-0.017c-0.007,0-0.013,0.002-0.021,0.003c0.012-0.002,0.024-0.003,0.036-0.004
		c0.015-0.002,0.03-0.003,0.046-0.006c-0.012,0.002-0.024,0.003-0.037,0.005c0.022-0.002,0.042-0.005,0.063-0.008
		c0.034-0.004,0.069-0.008,0.102-0.012c-0.023,0.003-0.045,0.006-0.068,0.008c11.038-1.228,22.249-0.534,33.206,1.116
		c1.867,0.288,3.711,0.713,5.585,0.95c1.021,0.13,1.452-1.789,0.673-1.963c-6.971-1.552-14.087-2.829-21.241-3.197
		c1.256-2.592,5.145-7.931,7.977-11.422c6.674-8.133,26.723-26.962,28.502-28.434c6.66,1.996,21.788,4.302,25.02,6.467
		c-0.263,1.981,2.42,3.003,4.365,2.929c-0.645,9.103-2.908,30.905-3.069,31.709c-1.925,0.38-2.475,1.552-2.08,2.251
		c1.909-0.283,5.715-0.471,8.502-0.097c2.787,0.375,9.099,2.475,9.035,3.415C226.799,271.311,223.573,272.616,220.917,273.608z"/>
	<path d="M160.636,257.637c2.344,0.684,3.405-2.951,1.06-3.634C159.351,253.319,158.29,256.954,160.636,257.637z"/>
	<path d="M174.897,258.758c2.664,0.776,3.868-3.353,1.204-4.13C173.439,253.851,172.234,257.98,174.897,258.758z"/>
	<path d="M184.656,288.708c2.214-8.865,3.162-16.578,3.21-17.44c0,0,0,0-0.001,0v0c-5.64,3.185-24.559,14.136-30.298,16.637
		c-5.741,2.501-11.822,5-13.979,5.581c-0.035,0.009-0.069,0.018-0.103,0.024c-0.118,0.841,0.524,1.806,1.59,1.52
		c1.628-0.438,3.233-0.935,4.823-1.469c0.313,1.682,1.032,3.405,1.543,4.811c1.132,3.101,2.548,6.196,4.16,9.074
		c1.431,2.557,3.449,5.137,6.481,5.744c3.143,0.629,6.385-0.799,8.985-2.459C178.817,305.783,182.441,297.573,184.656,288.708z"/>
	<path fill="#FFFFFF" d="M152.357,292.881c11.531-4.272,22.296-11.016,32.839-17.305c-0.539,3.289-1.194,6.572-2.033,9.802
		c-14.878,9.039-25.086,13.021-28.85,13.362C153.271,296.905,152.628,294.458,152.357,292.881z"/>
	<path d="M187.074,259.241c-2.763-0.963-5.336-1.252-8.231-0.445c-0.728,0.203-0.62,0.926,0.113,0.721
		c2.695-0.752,5.226-0.041,7.788,0.853C187.462,260.619,187.787,259.489,187.074,259.241z"/>
	<path d="M179.403,251.297c-0.11-1.926-0.224-7.202-2.137-8.526c-0.493-0.342-1.731,1.219-1.979,1.631
		c-0.391,0.65,0.611,1.266,1.002,0.617c0.002-0.005,0.006-0.008,0.007-0.012c1.245,1.909,1.373,4.431,1.966,6.576
		C178.464,252.313,179.446,252.058,179.403,251.297z"/>
	<path d="M168.159,244.544c-0.965-0.205-1.841,0.347-2.598,0.886c-0.947,0.674-2.182,1.679-2.676,2.218
		c-0.514,0.562,0.088,1.112,0.674,0.642c0.64-0.513,1.313-1.252,2.045-1.621c0.709-0.358,1.67-0.664,2.406-0.508
		C168.748,246.317,168.9,244.701,168.159,244.544z"/>
	<path fill="#C17C3D" d="M173.145,209.217c4.562,3.233,10.042,5.216,15.368,6.791c8.33,2.463,16.794,4.535,24.784,7.88
		c-1.358-0.91-3.737-2.258-7.691-4.064c-5.63-2.573-13.567-3.159-25.403-8.605c-10.644-4.898-12.983-9.52-13.346-10.403
		C166.03,203.863,171.17,207.817,173.145,209.217z"/>
	<path fill="#C17C3D" d="M201.633,220.685c-7.029-2.209-14.325-3.455-21.133-6.365c-4.291-1.834-8.508-4.05-11.747-7.484
		c-1.209-1.281-2.587-2.955-2.921-4.679c-0.711,1.635-1.012,4.483,2.615,7.894c5.737,5.395,14.905,8.601,22.749,9.957
		c5.891,1.019,16.555,3.656,21.148,4.578C208.816,223.088,205.188,221.802,201.633,220.685z"/>
	<path fill="#E4AB8C" d="M185.388,224.429c0,0,5.778,1.153,9.734,2.173c3.955,1.022,8.3,1.623,10.014,2.123
		c1.715,0.5,4.216,1.496,4.216,1.496s0.061,1.613,1.179,2.338c1.118,0.725,3.553,1.035,3.553,1.035l-0.439,3.328
		c0,0-3.66-3.858-11.132-6.038c-7.472-2.179-22.514-1.648-22.514-1.648L185.388,224.429z"/>
	<path fill="#E4AB8C" d="M212.89,272.325c3.191-0.207,9.887-0.173,8.585,0.644c-1.301,0.816-10.551,2.905-12.827,2.506
		C206.372,275.076,208.42,272.617,212.89,272.325z"/>
	<path fill="#E4AB8C" d="M140.881,282.693c0,0,5.385-0.689,10.402-1.485c5.017-0.797,12.142-2.44,12.142-2.44
		s-5.191,3.67-11.948,5.421c-6.758,1.751-9.974,3.097-10.336,2.169C140.381,284.409,140.881,282.693,140.881,282.693z"/>
	<path fill="#E4AB8C" d="M156.863,318.591c0,0,1.006,2.02,5.334,2.219c4.328,0.199,7.794-2.113,7.794-2.113
		s-1.542,6.197-7.468,6.461C156.598,325.425,156.863,318.591,156.863,318.591z"/>
	<path d="M170.827,316.724c-2.983,1.909-11.547,4.882-13.044-0.114c-0.326-1.085-2.041-0.665-1.712,0.428
		c1.93,6.434,11.501,3.859,15.605,1.232C172.629,317.66,171.787,316.109,170.827,316.724z"/>
	<path fill="#E4AB8C" d="M178.672,260.22c0,0,1.949-0.761,3.981-0.434c2.031,0.327,3.342,0.841,4.042,1.179
		c0.7,0.337-0.591,2.486-1.133,2.062c-0.541-0.424-2.041-1.659-3.267-2.016C181.07,260.653,177.037,260.806,178.672,260.22z"/>
	<path fill="#F4DECA" d="M209.128,267.905c1.523-0.489,5.421-0.812,7.646-0.695c2.225,0.118,5.252,1.133,6.824,2.124
		C225.17,270.324,204.141,269.508,209.128,267.905z"/>
	<path fill="#F4DECA" d="M118.479,270.179c1.546-0.612,8.742-2.634,17.895-3.021c9.152-0.389,18.313,0.555,21.657,1.398
		c3.343,0.842-11.286,2.69-20.155,3.027C129.004,271.919,115.774,271.251,118.479,270.179z"/>
	<path fill="#F4DECA" d="M155.606,256.816c0.888-0.162,3.394,1.122,4.338,1.531c0.945,0.408-0.914,0.398-1.684,0.307
		c-0.77-0.092-2.98,0.193-3.751,0.102C153.738,258.663,154.763,256.968,155.606,256.816z"/>
	<path fill="#F4DECA" d="M165.617,314.099c2.538-0.396,7.008,0.581,4.44,2.092c-2.567,1.51-5.834,2.685-8.406,1.934
		C159.079,317.376,161.161,314.793,165.617,314.099z"/>
	<path fill="#F4DECA" d="M211.333,249.407c-0.019,1.494-0.582,10.199-1.031,12.195c-0.449,1.996-3.475,0.98-2.996-3.4
		C207.785,253.823,211.393,244.64,211.333,249.407z"/>
</g>
<g>
	<path d="M608.986,228.684c-0.382-2.166-0.828-5.479-3.25-7.837c0.094,0.043,2.549,0.127,4.587-0.956
		c-0.127-3.886-4.46-9.238-11.787-10.831c0.513-0.381,3.186-1.911,4.779-3.568c-2.582-1.634-7.136-2.994-12.615-2.931
		c1.735-1.323,4.014-2.612,4.778-3.887c-8.536-4.969-17.775-4.014-24.593-1.72c0.379-0.794,2.358-4.842,2.166-6.754
		c-8.392,0-17.393,1.274-26.618,5.894c-0.841-1.244-2-5.004-2.052-5.321c-6.627,2.485-9.876,6.817-12.158,11.414
		c-1.095-1.092-2.115-5.425-2.434-7.997c-14.589,5.439-13.378,29.586-0.649,33.734c-0.45,2.572-0.717,8.317-0.233,12.125
		c-4.851,5.708-7.136,15.234-7.272,22.4c-1.413,7.291-5.734,21.598-10.576,29.562c5.16,2.804,14.845,2.612,22.299,0.255
		c2.012,2.989,4.65,6.202,6.753,9.514c2.102,3.313,7.342,11.149,11.66,13.358c3.189,1.633,8.128,1.259,11.277-0.254
		c6.572-3.163,10.353-10.507,13.699-16.629c1.968-3.607,3.999-7.914,5.988-11.596c0.128,3.249,0.574,5.989,1.21,8.028
		c5.925-5.415,16.457-11.282,19.514-12.1c-7.186-4.749-5.225-15.363-3.204-20.01c2.243-0.81,3.605-3.451,4.205-5.671
		c1.419-5.251-0.045-10.61-2.294-13.061c3.274-3.216,2.231-11.277,0.829-14.653C604.177,229.35,606.947,229.067,608.986,228.684z"/>
	<path fill="#7C1025" d="M515.964,289.979c3.698-6.566,6.143-16.358,6.948-20.838c0.7,7.072,5.205,14.517,8.726,20.143
		C527.18,291.759,519.471,291.313,515.964,289.979z"/>
	<path fill="#7C1025" d="M598.691,281.797c-4.943,1.861-9.506,4.587-13.661,7.859c-1.401-10.513,4.906-25.548,7.002-28.503
		c1.358,1.815,3.257,3.01,5.643,2.543C594.65,269.842,595.224,277.552,598.691,281.797z"/>
	<path fill="#ECC6B8" d="M602.197,251.391c0.172,1.251,0.672,7.238-3.087,8.959c-3.759,1.72-5.734,0.064-6.093-2.485
		c-0.232-1.647,1.284-4.696,1.386-5.056c0.1-0.36-0.896-0.955-1.647-0.955h-0.014c-0.515,0.864-1.596,3.526-1.85,7.412
		c-3.25,4.97-6.837,18.605-7.964,23.51c-2.931,4.523-5.097,9.302-8.41,15.419c-3.313,6.116-6.243,10.194-10.385,13.06
		c-4.141,2.868-8.664,2.74-11.149,1.274c-2.486-1.465-5.023-4.689-6.156-6.166c-4.633-6.042-15.385-21.491-18.428-28.472
		c-1.366-3.132-2.669-8.002-3.265-12.191c-0.407-3.125-0.455-6.284-0.067-9.413c0.395-2.832,1.144-5.595,2.24-8.236
		c1.166-2.701,2.675-5.232,4.447-7.583c-0.456-5.526,0.119-13.247,0.585-16.738c0.673-5.054,1.623-8.331,2.814-10.778
		c1.198-0.891,3.741-1.902,8.049-2.41c10.416-1.226,20.853,0.988,31.166,2.048c1.311,0.135,2.631,0.125,3.94,0.011
		c1.879-0.163,4.693-0.22,6.403,0.92c3.441,2.293,4.008,7.28,4.258,9.012c1.079,8.281-1.101,20.921-0.167,25.69
		c0.945-0.585,2.356-1.15,3.38-1.377c0.163,0.642,1.942,1.698,2.231,1.377c0.322-0.36,1.307-1.817,2.027-2.488
		c0.721-0.671,2.208-0.967,3.093-0.216c0.884,0.752,1.339,1.592,1.796,2.573C601.787,249.073,602.024,250.14,602.197,251.391z"/>
	<path fill="#7C1025" d="M600.628,226.932c2.37,7.932,1.413,13.921-0.371,15.896c-2.113-0.848-5.15,0.015-7.594,2.647
		c-0.299,0.027-1.551,0.188-2.444,0.564c0.259-5.811,1.737-15.957,1.432-22.404c-0.182-3.851-1.268-7.892-3.928-10.833
		c-2.653-2.93-6.251-2.845-9.857-2.761c-1.41,0.034-2.821,0.067-4.175-0.08c-7.909-0.852-17.283-2.243-23.869-2.368
		c-6.586-0.125-12.575,0.958-16.589,3.251c-1.912,2.294-3.878,10.696-4.142,13.379c-6.179-0.573-12.615-16.31-0.892-26.758
		c0.464,2.23,2.039,7.9,4.778,8.282c1.274-4.905,6.563-10.576,10.002-11.66c0.255,1.657,1.593,3.887,2.74,4.97
		c7.11-3.894,16.891-6.498,24.466-7.008c0.318,1.592-2.23,5.925-3.695,8.218c12.105-3.568,19.814-3.95,25.23-0.955
		c-1.912,1.529-3.529,2.534-7.518,4.906c2.74-0.064,10.13,0.063,15.035,1.72c-1.21,1.146-2.859,2.22-5.861,2.676
		c9.685,3.122,13.826,5.989,14.591,10.194c-0.573,0.54-4.142-0.319-7.2-2.039c-0.127,0.573-0.254,1.529-0.191,2.039
		c0.659,0.694,5.259,2.166,6.308,8.41C606.367,227.252,603.762,227.411,600.628,226.932z"/>
	<path d="M540.537,247.553c-1.161,0.176-2.023,1.135-1.87,1.947c0.73,3.899,3.233,7.281,6.916,9.263
		c0.29,0.155,2.176-1.544,1.806-1.808c-3.855-2.744-5.454-5.798-5.414-6.627c0.041-0.829,7.283-1.023,13.85,0.405
		c0.586,0.127,1.12-2.354,0.68-2.464C552.997,247.397,546.689,246.619,540.537,247.553z"/>
	<path d="M551.868,233.692c-0.611,0.455-1.241,0.88-1.879,1.278c-0.365-3.943-1.439-9.442-6.03-7.47
		c-1.895,0.814-2.718,3.491-3.229,5.272c-0.599,2.089-0.918,4.34-0.98,6.525c-2.159,0.582-3.678,0.811-3.925,0.819
		c-0.621,0.021-0.165,1.885,0.444,1.818c0.608-0.067,12.494-0.953,17.021-4.966C554.088,236.261,552.556,233.179,551.868,233.692z"
		/>
	<path fill="#CABBD9" d="M542.949,229.945c1.298-2.298,3.826-2.225,5.1,0.126c0.861,1.589,0.962,3.565,1.023,5.447
		c-2.886,1.659-5.245,2.522-7.659,3.237C541.52,235.682,541.449,232.603,542.949,229.945z"/>
	<path d="M572.777,241.596c-0.288-0.05-0.924-0.188-1.766-0.486c1.671-3.889,2.905-11.769-1.387-13.729
		c-3.131-1.43-5.189,3.585-6.216,7.003c-0.132-0.26-0.239-0.471-0.326-0.615c-0.467-0.78-2.882,1.362-2.22,2.687
		c1.518,3.037,5.724,6.152,11.579,6.844C573.076,243.375,573.424,241.706,572.777,241.596z"/>
	<path fill="#CABBD9" d="M564.101,235.66c0.804-2.99,2.638-8.481,5.358-7.238c3.378,1.543,1.494,8.919,0.156,12.12
		c-0.869-0.376-1.42-0.708-2.446-1.438C565.719,238.07,564.753,236.752,564.101,235.66z"/>
	<path d="M581.908,258.119c-0.828-5.288-8.652-6.945-9.04-7.073c-0.389-0.127-0.971,1.178-0.342,1.361
		c1.673,0.487,3.395,1.009,4.986,2.717c-1.254,2.697-3.503,6.117-6.116,7.455c-2.612,1.338-5.798,1.465-6.945-1.593
		c-0.255-0.68-2.091,0.315-2.293,0.829c-0.322,0.822-0.892,5.861-3.695,7.136c-2.804,1.274-4.268-2.039-4.268-2.676
		c0-0.637-2.103,0.063-2.421,0.637c-0.318,0.573-2.258,3.565-4.205,5.989c-2.895-2.106-2.867-3.823-2.995-4.333
		c-0.127-0.51-2.229,1.744-1.975,2.294c1.529,3.313,4.437,5.239,7.508,5.702c0.396,7.406,1.36,16.819,2.368,22.841
		c-4.523,0.892-4.076,5.899-0.254,8.537c2.676,1.848,6.018,1.564,8.473,0.891c5.006-1.37,7.429-6.411,8.206-11.615
		c0.778-5.204,2.276-11.739,3.304-15.978c1.479-6.113,5.038-19.435,7.031-24.332c0.891,0.637,1.082,1.848,1.21,2.358
		C580.571,259.776,582.028,258.885,581.908,258.119z"/>
	<path fill="#C10076" d="M549.161,273.793c1.245-1.611,2.849-3.475,3.886-5.225c1.483,2.25,4.219,3.009,6.562,1.593
		c2.74-1.657,3.632-4.268,3.841-6.446c1.316,1.665,5.59,1.862,8.073,1.158C556.615,277.233,551.258,274.854,549.161,273.793z"/>
	<path fill="#C10076" d="M561.266,307.177c-2.785,1.311-6.683,0.56-8.155-0.254c-2.995-1.657-3.059-6.244-0.192-5.734
		c0.956,2.103,4.721,4.349,7.709,3.632c3.186-0.764,4.779-2.421,5.926-5.161C567.128,302.781,564.516,305.648,561.266,307.177z"/>
	<path fill="#FFFFFF" d="M565.598,298.194c-0.955,2.548-3.105,5.355-5.989,5.287c-2.739-0.064-4.204-1.72-4.651-2.995
		c-0.255-0.727-1.019-2.803-1.149-4.877c3.953,0.673,10.005-0.41,13.237-2.871C566.873,294.244,566.554,295.646,565.598,298.194z"/>
	<path fill="#FFFFFF" d="M571.333,276.213c-7.455,5.926-14.972,7.072-17.394,7.009c-1.491-0.039-1.647-3.521-1.974-6.435
		c1.884-0.203,5.331-0.929,7.158-1.722c6.273-2.716,11.959-7.485,16.376-12.731C574.045,266.79,572.655,271.724,571.333,276.213z"/>
	<path d="M571.089,262.647c-0.011,0.004-0.02,0.009-0.031,0.013c0.006-0.002,0.01-0.004,0.014-0.005
		C571.077,262.652,571.084,262.649,571.089,262.647z"/>
	<path d="M554.48,217.939c-5.45-0.652-9.435,2.361-12.918,6.22c-0.44,0.486,0.279,1.209,0.72,0.721
		c3.307-3.662,6.609-5.793,11.809-5.17C554.743,219.787,555.124,218.016,554.48,217.939z"/>
	<path d="M571.104,220.501c-0.544-0.372-1.671,1.028-1.133,1.397c3.304,2.26,4.496,6.675,4.98,10.444c0.082,0.643,1.103,0.65,1.02,0
		C575.436,228.184,574.745,222.991,571.104,220.501z"/>
	<path fill="#AB182B" d="M527.645,198.651c0,0,0.675,4.078,1.777,5.527c1.874,2.467,4.046,2.368,4.046,2.368s-3.85,2.27-6.711-0.296
		C523.894,203.684,527.645,198.651,527.645,198.651z"/>
	<path fill="#AB182B" d="M542.448,194.901c0,0,0.789,2.171,2.171,3.947c1.381,1.777,5.428,4.145,5.428,4.145s-5.23,1.48-7.796-1.875
		C539.685,197.763,542.448,194.901,542.448,194.901z"/>
	<path fill="#AB182B" d="M548.665,198.75c0,0,4.342-2.764,10.164-4.342c5.823-1.579,10.659-1.875,10.659-1.875
		s-3.75,3.158-9.573,5.033C554.093,199.441,548.665,198.75,548.665,198.75z"/>
	<path fill="#AB182B" d="M560.409,202.599c0,0,12.706-3.855,17.468-4.342c8.684-0.889,12.533,0.986,12.533,0.986
		s-9.21,1.943-12.139,2.468C568.896,203.388,560.409,202.599,560.409,202.599z"/>
	<path fill="#AB182B" d="M524.882,205.559c0,0,0.849,1.918,2.763,2.368c3.355,0.79,5.823-0.691,5.823-0.691
		s-1.679,3.356-5.725,2.764C523.697,209.408,524.882,205.559,524.882,205.559z"/>
	<path fill="#AB182B" d="M574.62,205.164c0,0,7.5-0.987,13.52-0.494c6.021,0.494,9.968,1.283,9.968,1.283s-5.033,0.988-11.053,0.691
		C581.034,206.349,574.62,205.164,574.62,205.164z"/>
	<path fill="#AB182B" d="M590.41,208.422c0,0,6.722,1.553,10.461,3.552c5.724,3.06,6.513,6.218,6.513,6.218
		s-4.144-3.158-8.783-5.526C593.963,210.296,590.41,208.422,590.41,208.422z"/>
	<path fill="#5D1321" d="M531.296,213.158c0,0-4.24,3.978-4.737,6.711c-0.592,3.257,2.27,3.948,2.27,3.948s0.297-2.27,0.79-4.54
		C530.112,217.007,531.296,213.158,531.296,213.158z"/>
	<path fill="#5D1321" d="M593.075,220.658c0,0,3.75,5.329,7.006,5.921c3.258,0.592,6.12,0.296,6.12,0.296s-4.243-2.27-5.921-3.06
		C598.601,223.026,593.075,220.658,593.075,220.658z"/>
	<path fill="#5D1321" d="M592.384,226.678c0,0,2.664,3.75,2.664,8.487c0,4.737-4.243,9.278-4.243,9.278s0.691-5.823,0.987-9.87
		C592.087,230.527,592.384,226.678,592.384,226.678z"/>
	<path fill="#5D1321" d="M592.581,223.224c0,0,3.257,5.033,3.158,10.658c-0.099,5.625-1.678,7.599-1.678,7.599
		s6.217-3.75,3.75-12.138C596.269,224.101,592.581,223.224,592.581,223.224z"/>
	<path fill="#5D1321" d="M574.028,205.658c0,0,4.737,1.184,8.487,1.48c3.751,0.297,7.402,0.297,7.402,0.297s-3.158,1.48-8.191,1.085
		C576.692,208.125,574.028,205.658,574.028,205.658z"/>
	<path fill="#5D1321" d="M560.804,203.486c0,0,5.33,0.099,10.165-0.296c4.835-0.395,12.928-1.974,12.928-1.974
		s-4.244,3.06-12.336,3.651C563.468,205.46,560.804,203.486,560.804,203.486z"/>
	<path fill="#5D1321" d="M524.191,276.517c0,0,1.283,3.75,3.059,6.809c1.776,3.06,3.651,5.527,3.651,5.527s-0.987,1.086-2.763,1.283
		c-1.776,0.197-3.158,0.099-3.553-2.566C524.191,284.905,524.191,276.517,524.191,276.517z"/>
	<path fill="#5D1321" d="M590.41,265.267c0,0-2.665,6.118-3.85,11.546c-1.184,5.428-0.987,11.645-0.987,11.645
		s3.257-7.698,4.342-12.829C591.002,270.497,590.41,265.267,590.41,265.267z"/>
	<path fill="#AB182B" d="M596.233,265.365c0,0-1.48,4.145-1.085,8.586c0.394,4.441,2.861,7.5,2.861,7.5s-4.431,0.948-4.835-2.862
		C592.483,272.076,596.233,265.365,596.233,265.365z"/>
	<path fill="#AB182B" d="M522.414,273.655c0,0-1.381,5.033-2.664,8.684c-1.283,3.651-2.763,6.711-2.763,6.711
		s3.848-1.283,4.836-6.513C522.809,277.307,522.414,273.655,522.414,273.655z"/>
	<path fill="#E3A99C" d="M536.132,212.863c0.28-0.22,4.835-2.171,9.671-2.27c4.836-0.099,11.547,0,16.185,0.79
		c4.639,0.79,9.573,1.184,11.843,1.579c2.27,0.395,6.119-0.691,8.882,0.099c2.763,0.79,4.145,2.566,4.738,4.639
		c0.592,2.072,1.085,4.441,1.085,4.441s-6.118-5.724-21.613-7.401c-15.494-1.678-22.106-0.493-25.659,0.395
		c-3.553,0.888-7.5,3.849-7.5,3.849S534.75,213.948,536.132,212.863z"/>
	<path fill="#E3A99C" d="M539.783,253.818c0,0,2.072,3.06,3.355,3.948c1.282,0.888,3.651,2.171,3.651,2.171
		s-2.566,1.184-6.611-0.295C536.132,258.161,539.783,253.818,539.783,253.818z"/>
	<path fill="#E3A99C" d="M549.849,281.55c0,0,0.494,5.428,0.79,8.882c0.296,3.454,1.283,8.191,1.283,8.191s-4.441,0-4.737-4.441
		C546.889,289.741,549.849,281.55,549.849,281.55z"/>
	<path fill="#F5E1D8" d="M544.421,250.266c0.691-0.029,3.159-0.198,6.612,0.197c1.874,0.214,4.146,0.691,4.639,0.79
		c0.492,0.099-4.341,2.17-6.513,2.17C546.988,253.423,542.053,250.365,544.421,250.266z"/>
	<path fill="#F5E1D8" d="M570.377,249.081c1.802,0.389,7.796,1.678,10.264,4.046c2.466,2.368,3.256,4.441,3.354,5.823
		c0.099,1.382,3.652-6.809-1.085-9.77C578.173,246.22,565.343,247.996,570.377,249.081z"/>
	<path fill="#F5E1D8" d="M526.362,262.011c-0.028-1.886,0.299-8.425,2.565-8.586c1.382-0.099,2.369,4.244,2.665,10.855
		c0.296,6.612,0.987,11.252-0.888,10.955C528.915,274.952,526.46,268.721,526.362,262.011z"/>
	<path fill="#FFFFFF" d="M554.29,272.175c1.086-0.09,2.664,0.099,2.664,0.79c0,0.691-2.762,1.085-4.342,1.085
		C551.033,274.05,550.738,272.472,554.29,272.175z"/>
	<path fill="#FFFFFF" d="M554.389,303.854c1.029,0.514,0.592,1.579-0.494,0.987C552.81,304.249,552.81,303.065,554.389,303.854z"/>
</g>
<g>
	<path d="M416.104,188.064c-1.496-2.779-6.411-4.346-11.139-5.694c-4.728-1.349-9.773-1.697-14.678-1.78
		c-0.196-0.003-0.391-0.006-0.586-0.006c-3.825,0-7.547,0.641-11.264,1.586c-4.679,1.191-9.196,2.472-13.974,7.353
		c-4.778,4.881-11.469,13.958-18.483,19.432c-1.761,1.347-4.339,3.071-5.581,3.607c-1.199,0.517-3.938,1.289-5.566,0.601
		c-0.745-0.315-1.21-1.321-1.015-2.241c0.195-0.919,0.804-1.894,1.441-2.159c-2.584-1.889-4.713,1.458-4.916,5.108
		c-0.203,3.65,0.324,6.092,1.915,7.104c3.918,2.493,9.629,0.051,12.999-1.368c4.026-1.695,7.102-3.761,10.508-5.892
		c0.072,1.775-0.284,3.77-0.726,6.043c-3.762,0.647-7.943,1.682-8.366,3.586c-0.3,1.341,1.58,1.723,2.059,0.568
		c0.48-1.155,4.37-2.05,6.036-2.295c-0.535,3.246-2.137,9.617-3.029,12.623l-0.002,0.003c-8.743,2.719-17.449,9.171-21.179,16.59
		c-0.829,1.649-1.363,3.397-1.547,5.233c-0.051,0.499,0.624,1.224,1.038,1.383c5.082,1.949,11.256,1.282,15.316,0.427
		c1.282,1.639,1.92,4.998,2.137,6.483c0.477,3.715,0.2,7.625-0.284,11.326c-0.949,6.871-2.859,13.392-3.989,20.232
		c-1.353,8.191-2.565,18.949-5.342,24.007c-2.85,0.64-3.297,4.932-1.71,7.764c2.999,5.356,12.103,5.428,17.411,5.334
		c13.461-0.24,24.682-7.421,29.464-20.237c4.487-12.024,4.238-21.999,4.629-28.052c4.881-12.469,9.447-34.785,9.873-41.753
		c4.018,2.288,6.867-1.559,9.29-6.118c2.422-4.559,5.983-15.885-1.354-16.384c3.562-6.981,7.184-22.385,6.982-28.779
		C413.845,191.474,415.249,189.773,416.104,188.064z"/>
	<path fill="#D6A274" d="M406.487,223.681c2.921,2.066-2.422,15.672-5.201,17.026c-2.778,1.354-3.747-1.58-4.06-3.277
		c-0.63-0.387-1.674-0.193-1.71,0.713c-0.356,9.189-1.237,13.013-2.506,19.756c-1.269,6.744-4.953,17.491-7.823,26.833
		c-0.164,2.867-0.926,20.73-4.89,29.276c-1.027,2.214-2.044,4.465-3.633,6.319c-3.191,3.721-7.358,7.859-18.04,10.18
		c-3.69,0.802-11.978,0.718-17.408-1.41c-1.654-0.648-4.613-3.052-3.513-5.744c0.548-1.34,1.927-2.42,3.965-0.694
		c0.911,0.772,3.035-1.081,2.055-1.765c-0.684-0.478-2.199-1.215-3.942-0.96c3.263-6.896,4.262-14.689,5.506-22.14
		c1.177-7.06,3.044-13.988,4.098-21.069c0.851-5.729,1.316-15.407-1.669-19.489c3.269-0.762,6.839-2.066,10.259-3.989
		c3.449-1.94,5.343-4.274,5.514-5.394c-0.043-0.902-0.527-2.228-1.842-1.937c1.418,2.562-6.098,5.832-7.425,6.395
		c-3.22,1.348-9.71,3.287-12.735,3.806c-4.199,0.721-9.167-0.194-9.584-0.875c-0.418-0.681,0.498-3.989,2.535-6.558
		c1.815-2.289,4.304-4.697,6.796-6.407c2.494-1.71,6.158-3.959,8.646-4.842c3.821-1.355,8.38-2.496,9.924-2.429
		c0.023-0.922-1.259-2.346-5.961-1.349c0.832-2.862,1.525-5.399,2.137-8.264c1.03,1.332,2.842,2.269,4.826,2.052
		c3.215-0.351,6.079-2.954,5.763-6.373c0.54-0.023,1.08-0.046,1.621-0.069c-0.004,3.389,2.039,6.26,5.751,6.188
		c4.621-0.088,7.756-5.004,6.972-9.491c-0.076,0-16.647,0.911-23.637,1.754c0.197-1.586,0.812-6.866,0.961-7.285
		c7.788-5.724,15.709-8.544,23.095-9.677c6.277-0.963,13.381-0.611,19.863,0.179c-0.276,1.071-3.609,16.856-4.396,23.15
		C399.15,224.607,404.588,222.339,406.487,223.681z"/>
	<path fill="#FFFFFF" d="M360.916,223.501c0.996,0.385,1.863-0.386,2.121-0.9c0.257-0.513,0.22-1.189,0.032-1.477
		c0.405-0.019,1.714-0.111,2.121-0.128c0.352,2.474-1.543,4.53-3.759,4.979c-2.218,0.449-3.727-0.418-4.37-1.51
		c-0.642-1.092-0.385-2.152-0.161-2.891c1.076-0.123,2.448-0.275,3.534-0.354c-0.073,0.272-0.353,0.803-0.353,1.156
		C360.082,222.73,360.253,223.244,360.916,223.501z"/>
	<path fill="#FFFFFF" d="M375.437,222.859c1.64,0,1.929-1.928,1.318-2.603c0.642-0.064,1.606-0.192,2.409-0.128
		c0.128,1.638-1.671,5.365-4.53,5.719c-3.363,0.415-5.173-2.153-4.915-5.076c1.558-0.085,2.955-0.29,4.497-0.225
		C373.8,221.156,373.799,222.859,375.437,222.859z"/>
	<path fill="#7E4E1A" d="M410.133,190.423c1.412,8.539-3.218,22.929-6.638,30.551c-0.843,0.166-2.993,0.641-4.253,1.388
		c0.406-2.172,2.758-13.926,4.04-18.983c1.21,0.356,3.212,1.326,3.419,1.638c0.207,0.313,1.224-1.585,0.499-2.066
		c-5.271-3.49-15.787-3.088-19.145-3.03c-6.286,0.109-13.547,1.54-19.465,4.17c-8.81,3.916-16.616,10.339-25.472,14.142
		c-1.686,0.706-3.432,1.317-5.245,1.593c-0.654,0.079-1.312,0.105-1.972,0.036c-0.344-0.057-0.678-0.142-1.004-0.263
		c-0.207-0.098-0.403-0.211-0.591-0.341c-0.149-0.128-0.285-0.266-0.413-0.414c-0.2-0.282-0.369-0.581-0.514-0.895
		c-0.242-0.614-0.398-1.251-0.498-1.901c-0.075-0.639-0.091-1.279-0.067-1.92c1.851,1.733,5.615,1.573,8.456,0.327
		c6.527-2.864,11.643-8.755,16.243-13.995c3.024-3.448,6.816-7.224,10.435-10.546c4.345-3.989,12.319-5.856,15.527-6.419
		c3.208-0.562,9.084-0.931,15.3-0.141c6.216,0.79,13.054,2.927,14.765,4.85C413.165,189.111,411.83,189.987,410.133,190.423z"/>
	<path d="M391.955,231.09c-4.56,3.134-16.234,16.796-24.941,23.485c-3.554,2.73-5.833,4.012-9.254,4.939
		c-0.142,1.709,2.433,1.385,2.487,1.364c0.016,0.086,0.292,5.046-0.326,9.962c-1.86,14.772-8.492,28.778-7.828,43.885
		c0.02,0.448,0.309,0.938,0.785,1.029c6.605,1.261,10.525-4.668,13.508-9.57c4.159-6.828,7.617-12.334,10.608-21.31
		c2.992-8.976,6.055-19.377,7.836-26.785c1.781-7.409,3.089-13.244,4.216-17.485C390.174,236.362,391.384,233.155,391.955,231.09z"
		/>
	<path fill="#FFFFFF" d="M361.645,309.499c-0.795,1.013-1.661,1.959-2.662,2.763c-0.562,0.418-1.154,0.776-1.791,1.066
		c-0.52,0.203-2.492,0.676-2.991,0.465c-0.499-0.211,0.131-6.171,0.537-9.235c0.331-2.356,0.777-4.691,1.286-7.015
		c5.09,0.592,9.76-1.18,14.48-2.945C368.045,299.821,365.107,304.976,361.645,309.499z"/>
	<path fill="#FFFFFF" d="M383.335,256.236c-3.704,4.702-14.389,11.042-21.157,13.82c0.214-3.49,0.376-8.359,0.121-9.795
		c10.564-5.449,17.608-16.181,26.236-23.829C386.343,241.485,383.834,254.099,383.335,256.236z"/>
	<path fill="#AC6B21" d="M345.353,214.091c3.094-2.029,5.899-4.334,8.527-6.936c4.923-4.876,9.702-9.735,15.555-13.523
		c7.121-4.607,15.102-8.436,23.439-10.171c-0.202-0.006-0.4-0.015-0.607-0.018c-7.328-0.09-14.924,1.698-19.84,4.468
		c-4.916,2.77-12.064,9.92-15.372,13.763c-3.307,3.843-8.758,9.026-12.512,11.797c-1.614,1.191-3.292,1.869-4.683,2.255
		C341.852,215.785,343.669,215.196,345.353,214.091z"/>
	<path fill="#AC6B21" d="M366.423,196.917c-5.61,4.241-10.016,9.687-15.378,14.183c-2.17,1.82-4.633,3.925-7.307,4.935
		c-2.462,0.929-4.635,0.179-7.025,0.392c0.193,0.708,1.418,3.067,8.991-0.719c8.757-4.379,23.325-14.925,32.351-21.896
		c9.027-6.972,26.544-8.312,26.544-8.312s-5.826-1.859-9.116-1.519C387.708,184.785,375.066,190.383,366.423,196.917z"/>
	<path fill="#693D19" d="M369.387,203.108c0,0,5.452-2.324,12.244-3.129c6.792-0.804,10.546-0.715,15.819-0.268
		c5.272,0.447,9.383,2.325,9.383,2.325s0.016-6.129-11.082-6.793C380.827,194.348,369.387,203.108,369.387,203.108z"/>
	<path fill="#C88959" d="M362.327,210.435c0,0,6.792-5.541,18.946-7.15c12.155-1.608,19.125,0,19.125,0l-1.519,7.329
		c0,0-5.988-3.216-16.533-2.502C371.8,208.827,362.327,210.435,362.327,210.435z"/>
	<path fill="#C88959" d="M348.564,257.447c0,0,3.038-0.447,7.418-2.681c4.379-2.234,7.418-5.72,7.418-5.72s0.715,5.094-5.094,8.58
		c-5.81,3.485-8.312,3.664-8.312,3.664s-0.179-1.519-0.625-2.324C348.921,258.161,348.564,257.447,348.564,257.447z"/>
	<path fill="#C88959" d="M350.262,320.099c0,0,2.601,0.926,7.149-0.536c7.507-2.413,10.635-8.848,10.635-8.848
		s-0.447,9.741-9.921,12.78C348.653,326.533,347.224,319.384,350.262,320.099z"/>
	<path fill="#C88959" d="M373.051,317.06c2.69-3.429,8.401-10.814,8.222-8.133c-0.179,2.68-3.842,10.814-9.473,15.282
		C366.17,328.678,369.476,321.618,373.051,317.06z"/>
	<path fill="#C88959" d="M379.844,226.077c0.956-0.85,5.54-1.609,7.06-1.787c1.519-0.179,0.893,2.414-0.447,2.234
		C385.116,226.346,379.039,226.793,379.844,226.077z"/>
	<path fill="#EEC99F" d="M336.857,247.795c1.017-1.556,3.843-4.647,8.848-7.239c5.004-2.592,10.724-4.11,12.064-3.753
		c1.341,0.357-5.898,5.987-10.813,8.401C342.04,247.616,335.337,250.118,336.857,247.795z"/>
	<path fill="#EEC99F" d="M397.897,226.614c1.228-0.962,5.987-3.039,7.864-1.698c1.877,1.341-0.893,2.77-2.055,3.217
		C402.543,228.58,395.841,228.222,397.897,226.614z"/>
	<path fill="#EEC99F" d="M338.822,325.102c-0.409-1.611,0.816-3.068,3.486-1.162c0.911,0.652,1.161,4.737-1.073,3.664
		C340.363,327.186,339.084,326.135,338.822,325.102z"/>
</g>
<g>
	<path d="M502.74,263.61c-1.48-7.942-4.585-16.047-9.305-22.088c1.519-2.111,5.666-8.834,2.908-12.811
		c-1.267-1.826-3.037-2.399-4.925-2.505c-2.716-0.154-6.218,1.398-8.069,2.898c-0.551-1.5-0.8-4.301-0.95-7.052
		c-0.15-2.751,2.901-12.906-6.252-16.157c-4.302-1.528-9.289-2.451-14.305-2.451c-3.07,0-6.002,0.1-9.351,0.908
		c-6.189,1.494-11.326,5.168-15.054,10.239c-6.808,9.261-13.738,34.432-15.232,39.962c-2.763,10.229-10.988,32.236-3.567,47.263
		c7.464,15.11,25.679,20.409,41.531,19.536c13.297-0.731,27.868-5.556,36.498-16.216C505.693,293.989,505.237,277.011,502.74,263.61
		z"/>
	<path fill="#EDC483" d="M493.025,229.211c2.9,2.612,0.176,8.567-1.522,9.998c-0.003,0.002-3.562-5.396-7.646-7.96
		C485.24,229.911,490.123,226.601,493.025,229.211z"/>
	<path fill="#EDC483" d="M500.275,289.08c-1.986,10.395-7.344,16.521-12.305,20.341c-9.008,6.932-18.344,7.054-23.204,7.741
		c-4.921,0.642-15.973,0.546-24.526-2.478c-3.276-1.159-13.404-5.988-16.683-11.728c-3.26-5.704-4.995-11.692-4.278-22.001
		c0.877-12.621,8.149-36.954,11.183-45.868c2.835-8.333,5.953-17.866,13.467-24.414c2.204-1.92,6.315-4.278,13.039-5.296
		c9.27-1.406,18.832,1.683,21.796,4.278c4.018,3.515,1.222,9.976,1.422,13.377c0.199,3.401,0.277,6.279,1.227,9.031
		c3.482,2.397,11.488,10.205,15.849,21.105C501.622,264.068,501.588,282.205,500.275,289.08z"/>
	<path d="M447.836,229.356c0.15-0.5-0.432-1.686-0.85-1.201c-2.801,3.252-9.762,7.392-10.454,7.753
		c-0.692,0.361,1.504,2.706,2.001,2.352c1.75-1.251,3.251-2.301,4.15-3.451c0.2,1.15,1.503,2.401,3.102,1.299
		c1.6-1.1,1.25-3.601-0.15-3.951C446.168,231.756,447.686,229.855,447.836,229.356z"/>
	<path d="M466.842,238.109c-2.8-3.101-4.601-8.053-4.75-8.603c-0.15-0.551-1.563-0.305-1.501,0.25c0.1,0.9,0.351,2.151,0.75,3.101
		c-1.4-0.5-2.806,0.92-2.551,2.501c0.3,1.851,2.801,1.451,3.301,0.642c0.341,0.889,0.75,3.06,1.2,3.411
		C463.742,239.76,467.373,238.695,466.842,238.109z"/>
	<path d="M485.342,264.362c-1.006-5.224-3.401-16.449-4.547-19.312c-1.409-3.52-2.577-5.394-5.831-6.597
		c-1.51-0.558-2.556-0.495-3.067,0.903c5.144,1.857,6.889,5.516,6.781,9.041c-0.161,5.316-8.691,18.308-16.825,24.108
		c-4.615,3.291-12.89,4.37-18.333,4.019c-5.53-0.357-9.795-3.265-10.685-9.381c-3.675,1.322-0.82,7.207,2.612,9.359
		c6.947,4.35,17.481,3.511,24.477,0.412c2.41,4.392,4.907,8.315,7.88,11.158c3.307,3.161,8.515,4.622,12.705,1.943
		C490.055,283.912,486.496,270.357,485.342,264.362z"/>
	<path fill="#FFFFFF" d="M479.032,254.688c1.116,4.55,2.203,9.537,2.943,14.011c-0.839,2.031-2.058,3.691-3.758,4.902
		c-0.169-0.676-0.34-1.352-0.513-2.026c-0.796-3.11-1.48-6.534-2.726-9.58C476.475,259.646,477.869,257.163,479.032,254.688z"/>
	<path fill="#FFFFFF" d="M474.014,263.466c0.809,2.284,1.324,4.75,1.928,7.01c0.345,1.296,0.671,2.596,0.991,3.9
		c-0.537,0.272-1.1,0.521-1.717,0.717c-1.789,0.571-3.713,0.545-5.562,0.425c-0.735-0.048-1.43-2.368-1.881-4.179
		C469.807,269.229,471.981,266.49,474.014,263.466z"/>
	<path d="M447.758,218.484c-3.384,0.481-8.324,1.803-8.841,5.948c-0.064,0.514,1.189,1.093,1.322,0.438
		c0.607-2.999,5.01-3.689,7.478-4.077C448.498,220.671,448.434,218.388,447.758,218.484z"/>
	<path d="M465.922,224.367c-1.414-3.15-4.018-5.351-7.565-5.106c-0.858,0.059-0.826,2.148,0,2.14
		c2.812-0.029,5.215,1.509,6.523,3.876C465.086,225.653,466.193,224.972,465.922,224.367z"/>
	<path fill="#F6DEA9" d="M456.414,207.302c2.744-0.589,10.755-0.835,14.649,1.298c4.322,2.367-0.649,3.894-8.437,3.245
		C454.838,211.196,448.626,208.971,456.414,207.302z"/>
	<path fill="#F6DEA9" d="M439.631,247.45c1.624-0.604,5.378-0.092,7.788,1.206c2.411,1.297-4.821,4.821-8.344,4.45
		C435.551,252.735,435.644,248.934,439.631,247.45z"/>
	<path fill="#F6DEA9" d="M485.713,231.038c0.328-0.328,2.134-2.317,5.007-1.761s2.874,2.967,2.317,3.616
		C492.482,233.542,485.25,231.501,485.713,231.038z"/>
	<path fill="#F6DEA9" d="M490.257,242.535c1.686,1.924,6.305,9.55,7.603,14.557c1.298,5.007-5.377,0.186-9.086-6.304
		C485.064,244.297,482.376,233.542,490.257,242.535z"/>
	<path fill="#F6DEA9" d="M478.295,292.42c2.135-0.169,4.522-0.655,4.637,0.834c0.092,1.206-1.669,3.06-6.583,3.431
		C471.434,297.056,471.249,292.977,478.295,292.42z"/>
	<path fill="#F6DEA9" d="M475.7,304.751c4.308-0.423,7.787,0.649,7.417,2.688c-0.371,2.04-5.377,4.914-11.497,4.45
		C465.5,311.427,465.314,305.773,475.7,304.751z"/>
	<path fill="#E3A561" d="M436.664,277.862c0,0,3.244,1.948,10.477,2.319c7.232,0.371,12.61-2.504,12.61-2.504l3.43,5.563
		c0,0-6.026,2.967-15.205,1.483C438.796,283.24,436.664,277.862,436.664,277.862z"/>
	<path fill="#E3A561" d="M465.5,296.036c0,0,3.895,5.656,12.425,3.246c8.53-2.412,12.053-7.975,12.053-7.975
		s-0.463,12.054-13.351,12.704C463.738,304.659,465.5,296.036,465.5,296.036z"/>
	<path d="M489.041,290.376c-6.064,7.669-15.78,10.192-22.597,3.71c-1.14-1.083-3.926,1.317-2.683,2.559
		c4.102,4.102,8.025,5.172,13.911,4.102c5.958-1.083,9.275-4.637,13.299-9.235C491.608,290.784,489.667,289.585,489.041,290.376z"/>
	<path fill="#E3A561" d="M427.298,303.361c1.941,2.911,7.418,7.974,16.227,10.478c8.809,2.504,16.505,0.185,13.444-2.133
		C453.91,309.388,420.994,293.905,427.298,303.361z"/>
	<path fill="#E3A561" d="M433.697,257.372c0,0,1.669,4.45,7.882,4.636c6.212,0.185,7.138-1.762,7.138-1.762s1.484,8.438-8.716,6.955
		C429.803,265.717,433.697,257.372,433.697,257.372z"/>
	<path d="M433.882,260.118c2.828,2.929,7.302,3.2,10.353,2.751c3.052-0.45,5.603-1.251,4.703-3.751
		c-4.751,0.649-8.852,1.194-11.927-1.544c-2.479-2.207-2.683-5.111-1.779-7.259c1.759-4.177,7.534-5.182,14.817-1.917
		c0.753-2.763-2.963-4.136-7.714-4.435c-3.678-0.232-8.454,1.05-10.054,5.301C430.681,253.515,431.257,257.401,433.882,260.118z"/>
	<path fill="#E3A561" d="M479.687,222.787c-0.031,0.834,0.555,7.603,0.927,8.623c0.37,1.02-3.616,1.854-5.007-1.112
		C474.215,227.33,479.965,215.09,479.687,222.787z"/>
</g>
<g>
	<path d="M305.416,241.013c-2.196-7.142-6.812-17.136-21.023-19.652c-14.21-2.515-25.775,2.762-31.44,7.574
		c-1.234-1.803-3.215-3.945-7.247-2.128c-4.535,2.044-4.651,5.966-4.18,9.432c-3.721,2.324-6.759,5.502-9.245,9.566
		c-3.015,4.93-4.629,10.309-5.684,15.909c-2.679,14.232-2.243,24.669-0.309,37.031c0.973,6.219,2.446,13.116,4.018,19.208
		c1.595,6.176,4.101,11.919,5.682,18.094c1.724,6.742,2.496,17.993,3.516,24.868c8.357-5.071,18.125-17.819,19.302-33.796
		c0.444-6.021,2.775-12.229,3.758-14.29c3.68,1.556,8.482,3.744,12.572,2.629c3.201-0.871,6.864-3.17,9.88-7.565
		c5.694,10.707,18.81,29.881,24.471,33.498C321.378,319.174,311.616,261.17,305.416,241.013z"/>
	<path fill="#5D5253" d="M256.095,325.734c-0.587,4.897-1.97,11.235-3.62,15.14c-3.678,8.699-8.371,12.343-10.692,13.99
		c-0.43-6.012-1.477-12.893-3.451-19.958c-1.975-7.064-4.082-12.144-5.657-18.283c-2.179-8.489-3.87-17.119-4.778-25.841
		c-0.884-8.81-0.961-17.747,0.432-26.508c0.693-4.224,1.456-8.809,3.23-12.723c2.612-5.761,5.173-9.263,10.557-13.142
		c0.315,0.707,1.48,1.789,1.998,2.371c-3.135,3.84-5.552,8.142-7.695,12.564c-2.811,5.804-5.785,16.556-5.76,21.25
		c0.044,8.074,6.101,16.527,9.042,20.036c7.071,8.44,15.252,14.803,20.425,16.819C258.526,314.958,256.682,320.838,256.095,325.734z
		"/>
	<path fill="#E6B07C" d="M274.58,311.924c-6.081,1.528-20.073-6.962-23.237-9.618c-3.164-2.655-9.571-9.046-11.944-12.457
		c-2.508-3.603-5.03-8.882-5.666-11.242c-0.637-2.361-0.848-5.2-0.116-8.94c2.009-10.266,7.723-22.921,12.697-29.214
		c-3.089-2.518-3.743-6.64-1.946-9.684c1.108-1.878,3.487-3.282,5.567-2.057c2.324,1.37,3.187,4.309,3.708,7.129
		c3.062-0.724,6.169-1.319,9.265-1.392c13.967-0.557,21.683,1.489,29.428,4.779c2.628,1.116,6.488,3.038,7.394,5.674
		c0.908,2.635,0.323,10.307-0.769,16.527c-1.09,6.22-2.375,13.808-4.764,20.767c-1.208,3.517-2.554,6.987-4.066,10.384
		C287.807,297.765,281.178,310.267,274.58,311.924z"/>
	<path fill="#5D5253" d="M311.106,289.268c0.982,12.026,2.446,36.391-2.741,46.443c-4.986-3.769-14.884-19.395-21.429-30.656
		c6.51-11.149,10.746-25.909,12.636-33.279c1.667-6.496,2.647-14.889,2.926-19.048c0.279-4.161-0.28-8.494-1.575-10.36
		c-1.044-1.504-2.68-2.483-4.104-3.362c-2.54-1.574-5.489-2.534-8.347-3.343c-6.702-1.904-12.599-2.948-19.553-3.309
		c-4.384-0.228-9.596,0.492-13.84,1.362c-0.287-1.036-0.702-2.173-1.235-3.243c5.091-5.155,17.759-8.684,27.985-7.411
		c10.226,1.272,17.432,7.638,21.11,17.206C307.049,250.966,310.123,277.241,311.106,289.268z"/>
	<polygon points="233.938,280.26 233.94,280.265 233.941,280.265 	"/>
	<path d="M280.667,239.331c-0.548,0.313-2.29,1.82-6.387,3.146c-4.097,1.327-9.607,3.012-10.953,8.959
		c-1.174-0.944-2.265-1.622-3.865-1.379c-1.567,0.239-3.675,1.443-5.322,4.136c-2.631,4.303-4.285,10.408-5.264,12.546
		c-3.839,1.265-5.389,0.755-6.614-0.869c-0.309-0.411-1.568,0.904-1.097,1.572c2.169,3.079,7.111,2.16,12.362-0.435
		c1.151,2.758,2.356,5.496,3.696,8.165c4.969,9.895,12.222,19.575,16.137,20.995c-1.658,0.223-3.428,0.242-4.736,1.208
		c-1.499,1.109-1.434,3.137-0.744,4.528c0.794,1.596,2.734,3.098,4.458,3.273c6.545,0.665,12.927-5.561,15.612-12.459
		c2.644-6.79,1.364-14.929,0.707-18.947c-1.072-6.556-3.682-14.198-4.87-19.298c-1.186-5.1-2.575-9.453-1.393-13.404
		C282.602,240.369,281.216,239.018,280.667,239.331z"/>
	<path fill="#950411" d="M250.627,265.961c1.172-2.735,2.251-5.315,3.386-8.068c1.587-3.847,4.688-6.629,6.366-6.289
		c1.677,0.339,3.197,2.558,3.842,2.131c0.645-0.427,0.531-4,3.257-6.219c2.28-1.858,10.596-4.807,12.366-5.63
		c-1.353,2.264-7.485,7.948-10.956,11.201c-2.98,2.794-7.054,6.251-9.535,8.073C256.868,262.979,253.616,264.985,250.627,265.961z"
		/>
	<path fill="#FFFFFF" d="M257.697,271.204c-0.421-0.955-1.867-4.257-2.269-5.219c3.505-2.006,6.751-4.542,9.819-7.092
		c4.212-3.501,11.643-10.658,14.377-14.046c0.133,1.716,0.823,6.381,1.182,8.082c-0.018,0.003-1.961,4.884-9.625,11.084
		C265.862,268.317,258.721,271.228,257.697,271.204z"/>
	<path fill="#950411" d="M283.609,297.03c-1.239,1.529-3.258,3.906-5.736,5.183c-2.479,1.277-5.553,1.556-7.338,0.315
		c-1.785-1.241-1.421-3.473-0.419-4.069c1.003-0.597,3.941-1.082,7.018-1.57c4.122-0.654,7.438-2.404,9.888-6.063
		C286.647,293.236,284.686,295.673,283.609,297.03z"/>
	<path fill="#FFFFFF" d="M287.087,284.91c-0.607,3.406-2.465,5.786-3.139,6.652c-0.646,0.785-1.933,2.925-5.539,3.523
		c-3.605,0.598-6.358-1.923-7.229-2.605c1.701-0.39,4.208-0.625,5.842-1.281c2.411-0.967,4.023-2.951,5.446-5.031
		c1.582-2.315,2.689-4.961,3.674-7.574c0.344-0.915,0.519-1.865,0.626-2.83C287.504,277.336,287.525,282.445,287.087,284.91z"/>
	<path fill="#F2D3AF" d="M244.617,232.125c0.354-0.945,1.687-2.932,3.422-2.958c1.734-0.026,2.86,1.574,2.472,2.495
		c-0.387,0.921-4.153,5.702-5.478,4.541C244.429,235.673,244.061,233.608,244.617,232.125z"/>
	<path fill="#F2D3AF" d="M262.855,235.575c2.18,0.018,11.344-0.232,13.731,0.445c2.388,0.675-6.058,3.128-8.976,3.136
		C264.693,239.164,257.84,235.532,262.855,235.575z"/>
	<path fill="#F2D3AF" d="M237.965,282.863c-0.848-1.885,7.67,0.098,14.182,9.234c6.511,9.136,3.938,11.147,0.386,8.527
		C248.982,298.003,240.957,289.51,237.965,282.863z"/>
	<path fill="#FFFFFF" d="M256.65,255.977c0.819-1.18,2.251-2.394,3.031-1.843c1.173,0.83-1.771,4.306-2.787,4.413
		C255.88,258.655,255.72,257.314,256.65,255.977z"/>
	<path fill="#FFFFFF" d="M275.616,298.042c0.795-0.143,2.544-0.473,2.661,0.32c0.085,0.584-1.719,0.964-2.88,1.051
		C274.236,299.501,273.799,298.37,275.616,298.042z"/>
	<path fill="#7F7573" d="M284.091,228.804c5.022,1.347,9.546,3.562,13.791,6.566c1.142,0.808,1.825,1.781,2.552,2.774
		c0.419,0.226,0.635,0.356,0.635,0.356s-6.542-12.876-20.16-14.548c-11.143-1.37-19.813,3.3-22.597,5.042
		C266.819,227.205,275.586,226.522,284.091,228.804z"/>
	<path fill="#7F7573" d="M296.145,235.258c-4.05-2.644-8.291-4.683-13.019-5.792c-7.926-1.858-15.855-1.362-23.717,0.201
		c3.82,0.096,12.186,0.4,18.098,1.299c10.102,1.535,17.438,4.513,21.045,6.23C297.865,236.506,297.1,235.882,296.145,235.258z"/>
	<path fill="#7F7573" d="M229.52,267.718c0,0-0.94-7.894,3.092-16.298c4.031-8.404,8.925-11.511,8.925-11.511
		s-4.931,7.52-7.211,12.337C232.044,257.063,229.52,267.718,229.52,267.718z"/>
	<path fill="#7F7573" d="M307.248,273.233c-0.356,6.907-1.845,13.696-1.611,20.644c0.422,12.503,0.692,25.332,3.082,37.68
		c1.097-3.286,3.293-12.637,1.993-32.48c-0.822-12.574-2.497-27.984-3.121-33.537C307.425,268.104,307.38,270.685,307.248,273.233z"
		/>
	<path fill="#7F7573" d="M305.173,315.244c-0.521-7.42-1.103-14.966-1.109-22.405c-0.005-7.459,1.462-14.781,1.731-22.225
		c0.035-0.954,0.071-1.908,0.116-2.861c-1.993,6.539-5.285,19.544-4.686,32.51c0.585,12.639,3.642,23.38,5.495,28.855
		C305.972,324.525,305.5,319.885,305.173,315.244z"/>
	<path fill="#7F7573" d="M228.473,285.012c0,0,1.552,17.977,4.936,28.561c3.385,10.584,6.263,19.066,7.466,24.059
		c1.204,4.993,1.58,14.634,1.58,14.634s4.523-7.764,1.81-20.178c-2.713-12.414-8.283-20.526-10.255-27.558
		C232.039,297.499,228.473,285.012,228.473,285.012z"/>
	<path fill="#403C3B" d="M237.56,295.184c1.77,3.798,4.268,7.051,7.251,9.978c4.587,4.499,9.01,8.971,10.84,15.231
		c0.439-3.983,2.361-8.577,2.361-8.577s-8.48-5.186-14.267-10.743c-2.936-2.819-5.464-6.021-7.241-8.494
		C236.818,293.464,237.164,294.335,237.56,295.184z"/>
	<path fill="#403C3B" d="M253.742,319.535c-2.704-7.375-9.192-11.408-13.777-17.426c-3.072-4.034-4.735-8.461-6.128-13.127
		c0.254,1.492,1.135,6.003,3.166,10.656c2.484,5.693,6.688,11.596,9.245,15.289c5.117,7.386,6.779,20.054,6.779,20.054
		s1.228-5.914,2.024-10.561C254.754,322.761,254.325,321.128,253.742,319.535z"/>
	<path fill="#403C3B" d="M288.82,304.669c0,0,4.262-7.701,7.292-17.049c3.03-9.351,5.271-18.51,5.271-18.51
		s-0.45,14.288-3.615,24.228C294.602,303.276,288.82,304.669,288.82,304.669z"/>
</g>
<path d="M445.3,385.105c-2.171-1.37-4.787-0.514-6.932,0.458c-3.073,1.392-5.822,3.655-8.257,5.955
	c-0.004,0.003-0.007,0.007-0.01,0.01c1.721-5.938,3.369-11.897,4.629-17.954c0.717-3.452,1.253-6.94,1.583-10.451
	c0.23-2.446,0.489-5.23-0.671-7.495c-1.491-2.914-4.399-0.549-5.983,1.273c0.087-1.389-0.076-2.781-0.856-3.914
	c-0.993-1.443-2.872-1.125-4.051-0.11c-1.431,1.23-2.501,2.699-3.333,4.316c-0.288-2.03-1.315-3.262-3.595-2.92
	c-3.896,0.585-4.98,6.236-5.582,9.338c-0.737,3.801-1.049,7.731-1.098,11.609c-0.643,0.102-0.89,0.021-1.512,0.169
	c0.697-3.948,0.697-9.755,0.542-13.084c-0.155-3.329-2.026-6.549-4.552-4.018c-2.068,2.071-1.935,6.397-2.088,9.091
	c-0.289,5.123,0.59,10.196,0.601,15.322c0.009,3.367-0.493,6.664-1.439,9.892c-0.751,2.564-1.996,4.901-2.421,7.559
	c-0.505,3.16,0.14,6.348,1.894,9.026c1.037,1.584,2.395,2.875,3.942,3.908c-1.699,4.435-8.109,5.761-11.67,2.734
	c-2.129-1.81-2.65-5.358-3.058-7.954c-0.436-2.779-0.544-5.611-0.623-8.417c-0.017-0.602-1.41,0.018-1.41,0.482
	c0,5.993-0.45,14.427,5.419,18.038c4.583,2.819,10.924,0.889,13.065-3.879c1.734,0.878,3.633,1.48,5.564,1.825
	c-4.71,10.453-20.827,10.094-24.977-1.197c-0.697-0.31-1.549,0.464-1.6,1.394c4.888,13.302,23.329,12.619,28.614,0.062
	c1.25,0.109,2.495,0.125,3.698,0.031c5.742-0.445,11.119-3.425,13.813-8.619c1.805-3.478,1.237-7.965,4.297-10.725
	c2.595-2.342,7.775-2.03,9.62-5.154C448.051,389.694,447.336,386.389,445.3,385.105z"/>
<path fill="#EDC483" d="M422.04,361.225c0.751-2.448,2.117-5.544,4.303-7.055c1.888-1.304,2.025,2.948,1.241,5.926
	c-2.388,4.76-2.863,10.531-3.838,15.683c-1.207-0.363-3.275-0.7-4.77-0.803C420.258,370.449,420.658,365.729,422.04,361.225z"/>
<path fill="#EDC483" d="M413.742,366.758c0.381-3.029,0.877-8.564,3.807-10.344c3.506-2.129-0.18,14.93-0.717,18.355
	c-0.858,0.008-2.833,0.132-3.688,0.207C413.195,372.23,413.399,369.481,413.742,366.758z"/>
<path fill="#EDC483" d="M444.556,391.252c-1.68,1.28-4.086,1.544-5.985,2.421c-4.765,2.203-5.215,6.072-6.462,10.624
	c-3.925,14.328-30.992,12.989-29.979-3.01c0.145-2.296,1.134-4.391,1.929-6.509c1.177-3.132,1.391-6.309,1.625-9.635
	c0.394-5.61-0.233-12.308-0.465-16.025c-0.232-3.716,0.232-7.432,0.929-8.826c0.479-0.959,1.971-0.833,2.245,0.387
	c1.161,5.187,0.003,13.76-0.774,16.181c3.639-0.697,15.406-1.626,18.458,2.975c0.705,1.063,2.321,0.692,1.917-0.528
	c-0.422-1.273-1.298-2.141-2.378-2.751c1.011-5.171,1.535-10.547,3.712-15.399c0.713-1.59,1.708-3.089,3.004-4.259
	c2-1.807,2.124,1.646,2.164,2.969c0.18,5.815-1.327,11.889-2.643,17.513c-1.304,5.582-3.874,15.504-5.549,18.51
	c-1.908-2.126-4.181-3.708-7.208-3.741c-3.697-0.039-7.377,2.462-10.453,4.203c-1.115,0.631-0.113,2.348,1.004,1.716
	c2.604-1.474,5.484-3.79,8.423-4.488c3.462-0.822,5.788,2.318,7.765,4.83c2.531-2.971,4.996-5.774,7.254-7.617
	c2.346-1.914,7.395-5.222,10.671-4.265C445.627,387.076,445.945,390.193,444.556,391.252z"/>
<path fill="#F4DECA" d="M65.406,294.079c1.408-1.056,6.267-3.581,9.749-4.277c3.481-0.697,7.858-0.796,8.953,0.199
	c1.094,0.994,0,3.282-3.183,2.984c-3.183-0.299-9.649,0.398-12.235,1.492C66.102,295.571,63.018,295.87,65.406,294.079z"/>
<path fill="#F4DECA" d="M71.673,305.817c1.164-2.104,3.979-4.277,9.052-3.68c5.073,0.597,6.764,2.388,7.162,3.78
	C88.285,307.309,69.087,310.492,71.673,305.817z"/>
<path fill="#F4DECA" d="M97.635,292.289c2.089-0.104,6.266,0.497,8.554,2.487c2.288,1.989-1.492,2.587-3.979,1.393
	C99.724,294.975,93.656,292.488,97.635,292.289z"/>
<path fill="#F4DECA" d="M85.897,266.725c0.39-1.337,1.89-1.89,2.288,1.194c0.398,3.084-1.492,4.476-1.989,3.879
	C85.698,271.201,85.201,269.112,85.897,266.725z"/>
<path fill="#F4DECA" d="M74.955,263.641c0-1.793,0.791-3.78,1.889-3.78c1.592,0,1.791,3.482,1.691,5.371
	C78.437,267.122,74.955,267.918,74.955,263.641z"/>
<path fill="#F4DECA" d="M62.223,264.934c-0.352-1.581-0.099-3.283,1.094-3.681c1.193-0.397,2.487,1.99,2.885,4.277
	C66.6,267.818,63.218,269.411,62.223,264.934z"/>
<path fill="#F4DECA" d="M55.161,275.478c-0.361-1.378-0.597-3.183,0.298-3.581c0.895-0.398,1.835,1.439,2.387,2.984
	C58.841,277.667,56.255,279.656,55.161,275.478z"/>
<path fill="#E4AB8C" d="M69.783,302.833c0,0,1.889-3.283,6.466-4.178c4.576-0.895,9.151,0.298,9.151,0.298s0-1.79,0.299-2.586
	c0.299-0.796-0.755-2.675-6.764-1.691C67.992,296.467,69.783,302.833,69.783,302.833z"/>
<path fill="#F1CC5C" d="M123.907,371.62c3.815-5.907,11.181-15.653,17.144-19.38c5.963-3.727-8.803,22.241-15.156,32.301
	c-8.945,14.162-22.859,28.325-19.38,18.883C109.993,393.982,116.205,383.546,123.907,371.62z"/>
<path fill="#DE9205" d="M108.005,429.761c7.013,1.197,36.027,4.224,47.954,4.224c11.926,0,34.537-3.23,36.773-4.472
	c2.236-1.243-31.058-10.187-39.755-10.684C144.281,418.331,97.818,428.022,108.005,429.761z"/>
<path fill="#D47450" d="M294.603,351.245c1.262,4.542-0.994,12.175-8.447,15.902c-7.454,3.727-16.151-3.23-18.387-7.702
	C265.533,354.973,292.118,342.301,294.603,351.245z"/>
<path fill="#D47450" d="M229.256,353.73c2.018-1.775,5.218-3.23,6.46-2.733c1.243,0.497-3.478,13.914-4.721,13.914
	C229.753,364.911,223.045,359.197,229.256,353.73z"/>
<path fill="#D47450" d="M279.198,408.393c1.365,3.767,7.206,15.902,9.69,20.125c2.485,4.224-11.926-6.46-13.666-9.442
	C273.483,416.095,272.987,391.249,279.198,408.393z"/>
<path fill="#A8001B" d="M250.128,377.583c9.843-2.417,16.15,12.175,14.908,23.604c-1.243,11.43-34.04,12.175-33.791,6.957
	C231.493,402.926,235.965,381.062,250.128,377.583z"/>
<path fill="#F2D3AF" d="M296.307,188.582c1.887-0.839,6.518-1.342,9.01,1.15c2.493,2.492-7.285,3.259-8.435,2.875
	C295.732,192.224,294.581,189.35,296.307,188.582z"/>
<path fill="#F2D3AF" d="M300.333,179.955c1.199-0.184,7.284,0.192,8.627,1.151c1.342,0.959-2.493,1.917-4.793,1.342
	C301.867,181.872,297.84,180.338,300.333,179.955z"/>
<path fill="#F2D3AF" d="M287.297,181.298c1.567,0.209,2.3,1.725-0.192,1.917C284.613,183.406,281.545,180.531,287.297,181.298z"/>
<path fill="#A8001B" d="M267.934,316.26c0,0,2.684,0.958,5.368,0.575c2.684-0.383,5.559-1.725,5.559-1.725s0,5.943-5.751,6.901
	C267.359,322.97,267.934,316.26,267.934,316.26z"/>
<path fill="#DE9205" d="M158.66,337.157c0,0,1.917,0.959,5.943,0c4.026-0.958,9.01-4.217,9.01-4.217s-1.725,8.052-9.777,9.585
	C155.784,344.058,158.66,337.157,158.66,337.157z"/>
<path fill="#0A2E6F" d="M335.416,329.105c0,0,1.534,4.602,15.146,4.985c13.611,0.383,24.156-6.327,24.156-6.327
	s-3.835,9.586-14.378,11.886c-10.544,2.3-18.213,0.383-23.773-2.876C331.007,333.514,335.416,329.105,335.416,329.105z"/>
<path fill="#0A2E6F" d="M320.081,439.339c2.308,0,23.964,0,34.124-0.767c10.161-0.767,20.13-2.109,21.28-2.684
	c1.15-0.575-11.311-9.394-21.663-9.01C343.469,427.261,315.48,439.339,320.081,439.339z"/>
<path fill="#3C5AA3" d="M322.183,359.445c-1.724,5.297,1.88,23.182,4.756,24.524c2.876,1.343,41.956,1.317,45.434-1.665
	c3.478-2.982,2.441-16.37,1.491-17.889C371.379,360.439,323.907,354.148,322.183,359.445z"/>
<path fill="#5D2919" d="M436.477,319.69c0,0,7.454,2.982,18.883,3.478c11.43,0.497,23.853-4.472,23.853-4.472
	s0.248,10.933-24.847,11.43C429.272,330.623,436.477,319.69,436.477,319.69z"/>
<path fill="#5D2919" d="M466.293,403.92c0,0,1.988,7.702,10.933,13.914c8.945,6.211,21.617,2.236,21.617,2.236
	s-8.355,11.816-24.35,3.976c-12.672-6.211-13.666-18.883-13.666-18.883L466.293,403.92z"/>
<path fill="#5D2919" d="M387.53,420.319c0,0,2.733,5.466,10.435,6.709c7.702,1.242,15.902-5.467,15.902-5.467
	s-0.745,8.696-14.908,9.442C384.797,431.749,387.53,420.319,387.53,420.319z"/>
<path fill="#F6DEA9" d="M464.305,380.068c2.731-0.273,8.2-0.248,10.933,2.982c2.733,3.23-8.696,5.963-11.678,5.466
	C460.579,388.019,459.336,380.565,464.305,380.068z"/>
<path fill="#F6DEA9" d="M470.517,367.645c3.226-0.154,11.678,1.242,14.66,3.975c2.981,2.733-3.23,1.988-7.702,0.994
	C473.002,371.62,465.299,367.893,470.517,367.645z"/>
<path fill="#F6DEA9" d="M410.637,378.328c3.948-0.526,7.702-0.497,11.429,1.988c3.727,2.485-1.49,3.23-7.454,2.981
	C408.649,383.049,406.91,378.825,410.637,378.328z"/>
<path fill="#F6DEA9" d="M411.133,399.2c2.141-2.355,5.964-3.727,8.945-2.982c2.981,0.745,5.466,4.473,4.472,5.715
	C423.557,403.175,406.165,404.666,411.133,399.2z"/>
<path fill="#F6DEA9" d="M434.738,390.752c2.173-1.75,6.957-4.721,8.696-2.982c1.739,1.739-6.46,4.969-9.193,5.715
	C431.508,394.23,431.599,393.28,434.738,390.752z"/>
<path fill="#E3A561" d="M466.045,375.347c0,0,5.715,0,10.187,2.981c4.472,2.982,4.224,5.715,4.224,5.715s6.212-6.211-4.472-9.69
	C465.299,370.875,466.045,375.347,466.045,375.347z"/>
<path fill="#E3A561" d="M408.649,395.224c0,0,6.708-4.472,10.932-3.975c4.224,0.497,5.467,2.484,5.467,2.484s2.236-6.46-5.715-6.211
	C411.382,387.77,408.649,395.224,408.649,395.224z"/>
<path fill="#F5E1D8" d="M543.069,336.834c4.231,0,7.205,2.236,7.454,4.224c0.248,1.988-12.423,1.988-15.653,0.745
	C531.64,340.562,535.615,336.834,543.069,336.834z"/>
<path fill="#F5E1D8" d="M568.164,342.549c3.043-1.469,11.429-1.988,14.908-1.242c3.479,0.745-0.497,4.472-7.205,4.969
	C569.158,346.773,560.958,346.028,568.164,342.549z"/>
<path fill="#F5E1D8" d="M609.161,314.473c2.51-1.19,7.205-1.491,8.945,0.248c1.739,1.74-3.975,5.964-8.696,5.715
	C604.689,320.187,604.44,316.709,609.161,314.473z"/>
<path fill="#F5E1D8" d="M612.888,299.068c2.223,0.247,5.714,1.243,7.205,3.478c1.491,2.236-0.745,3.976-1.988,2.733
	c-1.243-1.242-4.224-2.733-5.218-2.981C611.894,302.05,610.652,298.819,612.888,299.068z"/>
<path fill="#E3A99C" d="M556.983,335.344c0,0,1.491,1.242,1.988,2.485c0.497,1.242,0.497,1.242,0.497,1.242s0.994-0.497,3.479-1.739
	c2.485-1.242,4.721-1.988,5.715-1.988c0.994,0-1.243-3.478-5.466-3.478C558.971,331.865,554.747,334.598,556.983,335.344z"/>
<path fill="#E3A99C" d="M610.155,309.503c0,0,3.478-0.994,5.964,0c2.484,0.994,3.478,1.739,4.223,2.485
	c0.746,0.745,0-4.472-4.223-5.218C611.894,306.025,610.155,309.503,610.155,309.503z"/>
<path fill="#9FC164" d="M533.876,356.215c6.094,3.216,11.926,10.684,12.92,12.92c0.994,2.236-9.939,0.249-15.156-4.721
	C526.422,359.445,524.931,351.494,533.876,356.215z"/>
<path fill="#9FC164" d="M578.103,359.942c7.078-2.2,13.168-1.988,14.411-0.497s-6.46,8.945-13.914,9.193
	C571.145,368.887,559.717,365.656,578.103,359.942z"/>
<path fill="#4B902F" d="M534.373,369.384c2.261,0.617,8.945,2.485,12.423,1.988c3.479-0.497,5.195,3.753,1.243,4.969
	C538.348,379.322,526.174,367.147,534.373,369.384z"/>
<path fill="#4B902F" d="M565.679,371.123c4.948,2.284,12.424,2.485,16.399,0.745c3.975-1.739,6.709-3.23,8.945-4.473
	c2.236-1.242,0.745,10.187-14.908,12.672C560.462,382.552,559.219,368.141,565.679,371.123z"/>
<path fill="#9FC164" d="M551.269,405.411c8.485-0.471,17.144,2.982,21.368,6.211c4.224,3.23-7.454,6.212-21.865,5.715
	C536.361,416.841,528.907,406.654,551.269,405.411z"/>
<path fill="#009CDD" d="M632.268,436.718c3.996,0.292,36.028,1.739,45.718,1.739c9.69,0,23.108,0.248,24.847-0.745
	c1.739-0.994-14.908-13.168-32.549-13.666C652.642,423.549,622.081,435.972,632.268,436.718z"/>
<path fill="#009CDD" d="M668.296,325.405c0,0,5.466,2.485,8.696,3.479c3.23,0.994,8.448,1.739,8.448,1.739
	s-3.479,2.982-10.435,1.739C668.047,331.12,668.296,325.405,668.296,325.405z"/>
<path fill="#8BC6ED" d="M646.431,425.289c6.373-1.72,19.628-4.721,30.064-3.23c10.436,1.491,17.89,4.472,20.126,5.963
	c2.236,1.491,0.745-13.666-21.865-15.654C652.146,410.381,630.778,429.513,646.431,425.289z"/>
</svg>
