<?xml version="1.0" encoding="utf-8"?>
<!-- Generator: Adobe Illustrator 16.0.0, SVG Export Plug-In . SVG Version: 6.00 Build 0)  -->
<!DOCTYPE svg PUBLIC "-//W3C//DTD SVG 1.1//EN" "http://www.w3.org/Graphics/SVG/1.1/DTD/svg11.dtd">
<svg version="1.1" id="Layer_1" xmlns="http://www.w3.org/2000/svg" xmlns:xlink="http://www.w3.org/1999/xlink" x="0px" y="0px"
	 width="20px" height="20px" viewBox="0 0 20 20" enable-background="new 0 0 20 20" xml:space="preserve">
<path fill-rule="evenodd" clip-rule="evenodd" fill="#F5F5F5" d="M246.335,220.861c0.933,0.539,0.933,1.413,0,1.952
	c-0.934,0.538-2.446,0.538-3.379,0c-0.934-0.539-0.934-1.413,0-1.952C243.889,220.322,245.401,220.322,246.335,220.861z"/>
<polygon fill-rule="evenodd" clip-rule="evenodd" fill="#89B04D" points="246.756,219.633 245.247,218.762 242.599,220.29 
	244.108,221.161 "/>
<polygon fill-rule="evenodd" clip-rule="evenodd" fill="#9BC957" points="244.107,221.273 246.756,219.745 246.756,219.633 
	244.108,221.161 "/>
<polygon fill-rule="evenodd" clip-rule="evenodd" fill="#70913F" points="244.108,221.161 242.599,220.29 242.599,220.402 
	244.107,221.273 "/>
<path fill-rule="evenodd" clip-rule="evenodd" fill="#BFC7C9" d="M245.712,219.507c0.034,0,0.068-0.008,0.095-0.022
	c0.026-0.016,0.039-0.035,0.039-0.055s-0.013-0.04-0.039-0.055c-0.026-0.016-0.061-0.022-0.095-0.022s-0.068,0.007-0.095,0.022
	c-0.026,0.015-0.039,0.035-0.039,0.055s0.013,0.039,0.039,0.055C245.644,219.499,245.678,219.507,245.712,219.507z"/>
<path fill-rule="evenodd" clip-rule="evenodd" fill="#FAC13C" d="M245.81,219.481c0.052-0.032,0.036-0.08,0.036-0.139
	c0-0.444,0.005-0.893,0-1.336c0-0.015,0.001,0.011-0.017,0.029c-0.062,0.062-0.224,0.058-0.251-0.035c-0.004,0.004,0,1.279,0,1.4
	c0,0.078,0.045,0.098,0.12,0.104C245.733,219.509,245.779,219.5,245.81,219.481z"/>
<path fill-rule="evenodd" clip-rule="evenodd" fill="#F5BE3D" d="M245.712,218.075c0.034,0,0.068-0.007,0.095-0.022
	c0.026-0.015,0.039-0.035,0.039-0.055s-0.013-0.04-0.039-0.055s-0.061-0.022-0.095-0.022s-0.068,0.008-0.095,0.022
	s-0.039,0.035-0.039,0.055s0.013,0.04,0.039,0.055C245.644,218.068,245.678,218.075,245.712,218.075z"/>
<polygon fill-rule="evenodd" clip-rule="evenodd" fill="#FFDC6A" points="245.807,219.483 245.81,219.481 245.812,219.48 
	245.813,219.479 245.816,219.478 245.816,219.477 245.816,218.047 245.816,218.047 245.813,218.049 245.812,218.05 245.81,218.052 
	245.807,218.053 245.804,218.055 245.802,218.056 245.799,218.057 245.797,218.059 245.794,218.06 245.791,218.061 245.788,218.062 
	245.786,218.063 245.783,218.063 245.78,218.064 245.777,218.065 245.774,218.066 245.771,218.067 245.769,218.068 245.766,218.069 
	245.763,218.069 245.76,218.07 245.756,218.071 245.755,218.071 245.755,219.502 245.756,219.502 245.76,219.501 245.763,219.5 
	245.766,219.5 245.769,219.499 245.771,219.498 245.774,219.497 245.777,219.496 245.78,219.495 245.783,219.494 245.786,219.493 
	245.788,219.492 245.791,219.491 245.794,219.489 245.797,219.488 245.799,219.487 245.802,219.486 245.804,219.484 "/>
<polygon fill-rule="evenodd" clip-rule="evenodd" fill="#E6B543" points="245.674,218.072 245.671,218.071 245.668,218.071 
	245.664,218.07 245.661,218.069 245.658,218.069 245.655,218.068 245.652,218.067 245.649,218.066 245.646,218.065 245.644,218.064 
	245.641,218.063 245.638,218.063 245.635,218.062 245.633,218.061 245.63,218.06 245.627,218.059 245.625,218.057 245.622,218.056 
	245.619,218.055 245.617,218.053 245.614,218.052 245.612,218.05 245.61,218.049 245.607,218.047 245.607,218.047 245.607,219.478 
	245.607,219.478 245.61,219.479 245.612,219.48 245.614,219.481 245.617,219.483 245.619,219.484 245.622,219.486 245.625,219.487 
	245.627,219.488 245.63,219.489 245.633,219.491 245.635,219.492 245.638,219.493 245.641,219.494 245.644,219.495 245.646,219.496 
	245.649,219.497 245.652,219.498 245.655,219.499 245.658,219.5 245.661,219.5 245.664,219.501 245.668,219.502 245.671,219.502 
	245.674,219.503 "/>
<path fill-rule="evenodd" clip-rule="evenodd" fill="#D19917" d="M245.712,218.055c0.03,0,0.061-0.007,0.084-0.021
	c0.023-0.013,0.035-0.03,0.035-0.049c0-0.017-0.012-0.034-0.035-0.048s-0.054-0.021-0.084-0.021s-0.061,0.007-0.084,0.021
	s-0.035,0.031-0.035,0.048c0,0.019,0.012,0.036,0.035,0.049C245.651,218.048,245.682,218.055,245.712,218.055z"/>
<rect x="246.307" y="217.814" transform="matrix(0.8673 0.4979 -0.4979 0.8673 141.1429 -93.729)" fill-rule="evenodd" clip-rule="evenodd" fill="#D1CACA" width="0.061" height="0"/>
<polygon fill-rule="evenodd" clip-rule="evenodd" fill="#D1CACA" points="246.275,217.704 246.223,217.674 245.87,217.642 
	245.871,217.651 245.871,217.661 245.871,217.671 245.87,217.681 245.869,217.691 245.868,217.702 245.866,217.712 245.864,217.723 
	245.918,217.754 245.92,217.742 245.921,217.732 245.922,217.722 245.924,217.712 245.924,217.702 245.924,217.692 245.924,217.682 
	245.924,217.673 "/>
<polygon fill-rule="evenodd" clip-rule="evenodd" fill="#D1CACA" points="245.918,217.754 245.864,217.723 245.858,217.747 
	245.852,217.771 245.843,217.795 245.832,217.819 245.819,217.844 245.806,217.867 245.791,217.89 245.773,217.912 245.826,217.942 
	245.843,217.92 245.858,217.897 245.872,217.874 245.885,217.85 245.896,217.826 245.904,217.802 245.912,217.777 "/>
<rect x="245.815" y="217.953" transform="matrix(0.8712 0.491 -0.491 0.8712 138.695 -92.6306)" fill-rule="evenodd" clip-rule="evenodd" fill="#D1CACA" width="0.062" height="0.001"/>
<polygon fill-rule="evenodd" clip-rule="evenodd" fill="#D1CACA" points="245.872,217.971 245.818,217.939 245.817,217.941 
	245.815,217.944 245.813,217.946 245.813,217.948 245.811,217.95 245.809,217.952 245.807,217.954 245.806,217.956 245.858,217.986 
	245.86,217.984 245.861,217.982 245.863,217.98 245.865,217.979 245.867,217.977 245.868,217.975 245.87,217.973 "/>
<path fill-rule="evenodd" clip-rule="evenodd" fill="#EBEBEB" d="M245.813,217.96l0.11,0.01l0.241,0.021l0.176-0.102
	c0.005-0.003,0.01-0.007,0.014-0.012l0.001-0.001c0.003-0.005,0.007-0.011,0.009-0.017s0.004-0.013,0.004-0.018
	c0-0.006-0.002-0.01-0.004-0.014l0,0l-0.088-0.125l-0.352-0.031c0.002,0.024-0.001,0.053-0.006,0.081
	c-0.014,0.063-0.045,0.131-0.092,0.188l-0.001,0.001C245.821,217.949,245.817,217.955,245.813,217.96z"/>
<polygon fill-rule="evenodd" clip-rule="evenodd" fill="#82888A" points="245.617,217.929 245.732,217.995 245.741,217.999 
	245.75,218.001 245.76,218.001 245.77,218.001 245.779,217.998 245.79,217.995 245.801,217.99 245.812,217.984 245.822,217.978 
	245.833,217.969 245.844,217.96 245.854,217.949 245.864,217.938 245.865,217.936 245.876,217.923 245.885,217.909 245.893,217.896 
	245.899,217.882 245.905,217.868 245.911,217.854 245.915,217.84 245.918,217.826 245.921,217.813 245.922,217.799 245.922,217.787 
	245.922,217.774 245.92,217.763 245.917,217.752 245.912,217.742 245.907,217.733 245.9,217.726 245.894,217.72 245.886,217.715 
	245.777,217.652 245.785,217.646 245.804,217.633 245.823,217.622 245.842,217.614 245.859,217.608 245.878,217.604 
	245.895,217.604 245.911,217.604 245.927,217.607 245.941,217.613 245.762,217.51 245.747,217.504 245.731,217.5 245.716,217.499 
	245.698,217.501 245.681,217.505 245.662,217.511 245.644,217.519 245.625,217.529 245.606,217.541 245.587,217.556 
	245.568,217.572 245.551,217.591 245.533,217.611 245.532,217.612 245.529,217.615 245.527,217.619 245.524,217.622 
	245.521,217.626 245.52,217.629 245.517,217.633 245.515,217.636 245.512,217.64 245.512,217.64 245.512,217.64 245.511,217.642 
	245.511,217.642 245.51,217.643 245.498,217.662 245.486,217.682 245.476,217.701 245.467,217.722 245.459,217.741 245.452,217.762 
	245.446,217.781 245.441,217.802 245.44,217.806 245.439,217.81 245.439,217.813 245.438,217.817 245.438,217.821 245.438,217.825 
	245.437,217.829 245.437,217.833 245.437,217.834 245.437,217.834 245.437,217.834 245.437,217.835 245.435,217.854 
	245.435,217.871 245.436,217.889 245.438,217.904 245.441,217.92 245.446,217.935 245.453,217.948 245.46,217.961 245.461,217.962 
	245.472,217.975 245.483,217.985 245.497,217.993 245.677,218.097 245.663,218.089 245.65,218.078 245.641,218.065 245.64,218.064 
	245.633,218.053 245.626,218.039 245.621,218.024 245.617,218.009 245.615,217.992 245.614,217.976 245.614,217.957 
	245.615,217.938 245.615,217.938 245.615,217.938 245.615,217.938 245.615,217.938 245.616,217.934 245.617,217.93 "/>
<path fill-rule="evenodd" clip-rule="evenodd" fill="#BFC7C9" d="M245.621,217.905c-0.003,0.011-0.004,0.021-0.006,0.032l0,0l0,0
	v0.001l0,0c-0.005,0.05,0.003,0.095,0.024,0.126l0.001,0.001c0.026,0.038,0.068,0.049,0.116,0.037h0.001l0,0l0,0h0.001l0,0
	c0.032-0.009,0.066-0.028,0.101-0.059l0,0l0.002-0.001v-0.001l0,0c0.008-0.007,0.015-0.014,0.021-0.021l0.001-0.001l0,0l0,0
	l0.001-0.002c0.007-0.007,0.015-0.015,0.021-0.023v-0.001c0.047-0.059,0.078-0.126,0.092-0.189c0.013-0.063,0.007-0.121-0.02-0.159
	c-0.027-0.039-0.07-0.05-0.119-0.037c-0.048,0.013-0.101,0.05-0.147,0.107v0.001c-0.007,0.009-0.014,0.018-0.021,0.026l0,0v0.001
	l-0.001,0.001l-0.001,0.001l0,0C245.655,217.797,245.632,217.854,245.621,217.905L245.621,217.905z M245.711,217.977
	c-0.016-0.022-0.019-0.056-0.011-0.092c0.007-0.037,0.025-0.076,0.053-0.11c0.026-0.033,0.058-0.055,0.086-0.063
	c0.027-0.007,0.053-0.001,0.068,0.021s0.019,0.056,0.011,0.093c-0.007,0.036-0.025,0.076-0.053,0.109l-0.001,0.002
	c-0.026,0.032-0.057,0.054-0.085,0.061C245.752,218.006,245.727,217.999,245.711,217.977L245.711,217.977z"/>
<polygon fill-rule="evenodd" clip-rule="evenodd" fill="#D1CACA" points="245.748,216.956 245.695,216.926 245.693,216.925 
	245.692,216.925 245.691,216.924 245.689,216.924 245.688,216.924 245.687,216.924 245.686,216.924 245.684,216.925 
	245.682,216.925 245.68,216.926 245.678,216.927 245.676,216.928 245.675,216.929 245.672,216.931 245.671,216.932 245.669,216.934 
	245.667,216.935 245.666,216.937 245.664,216.938 245.662,216.939 245.661,216.94 245.66,216.942 245.659,216.944 245.658,216.946 
	245.656,216.948 245.655,216.95 245.654,216.952 245.653,216.955 245.652,216.957 245.652,216.958 245.564,217.184 245.564,217.652 
	245.617,217.684 245.617,217.214 245.705,216.989 245.705,216.988 245.706,216.985 245.707,216.982 245.709,216.981 245.71,216.979 
	245.711,216.977 245.712,216.975 245.714,216.973 245.715,216.971 245.716,216.971 245.717,216.969 245.719,216.967 245.72,216.965 
	245.722,216.964 245.724,216.962 245.726,216.961 245.727,216.96 245.729,216.958 245.731,216.957 245.732,216.957 245.734,216.956 
	245.736,216.955 245.738,216.955 245.74,216.955 245.741,216.954 245.743,216.955 245.744,216.955 245.745,216.955 245.747,216.955 
	"/>
<path fill-rule="evenodd" clip-rule="evenodd" fill="#EBEBEB" d="M245.841,217.555v-0.177v-0.292l-0.088-0.126
	c-0.003-0.003-0.006-0.005-0.01-0.005c-0.004-0.001-0.009,0-0.014,0.003c-0.006,0.003-0.01,0.008-0.014,0.013h-0.001
	c-0.004,0.005-0.007,0.011-0.01,0.017v0.002l-0.088,0.225v0.47c0.005-0.007,0.01-0.013,0.015-0.019l0.001-0.001
	c0.046-0.058,0.099-0.094,0.146-0.107C245.802,217.552,245.822,217.551,245.841,217.555z"/>
<g>
	<path fill-rule="evenodd" clip-rule="evenodd" fill="#D1CACA" d="M245.534,217.897l-0.053-0.031l-0.352,0.438l-0.088,0.226v0.001
		l0.053,0.03l0,0l0,0l0.088-0.227L245.534,217.897L245.534,217.897z M245.042,218.531l0.053,0.03l-0.001,0.002l-0.001,0.003v0.002
		l-0.001,0.002v0.003v0.002l-0.001,0.002v0.002l0.027,0.016l0,0l-0.027-0.016l0,0v0.002l0.001,0.002v0.002v0.002l0.001,0.001v0.002
		l0.001,0.002l0.001,0.001l0.001,0.001l0.001,0.001l0.001,0.001l0.002,0.001l-0.053-0.03l-0.002-0.001l-0.001-0.001l-0.001-0.001
		l-0.001-0.001l-0.001-0.002l-0.001-0.001v-0.002l-0.001-0.001v-0.002l-0.001-0.002v-0.002v-0.002v-0.002v-0.002l0.001-0.003v-0.002
		l0.001-0.002v-0.003l0.001-0.002L245.042,218.531L245.042,218.531L245.042,218.531z"/>
</g>
<path fill-rule="evenodd" clip-rule="evenodd" fill="#EBEBEB" d="M245.534,217.898l-0.352,0.437l-0.088,0.227l0,0l0,0
	c-0.002,0.006-0.004,0.013-0.004,0.018c0,0.006,0.002,0.01,0.004,0.014c0.003,0.004,0.006,0.006,0.01,0.006l0,0l0,0
	c0.004,0,0.009-0.001,0.014-0.004l0,0l0.176-0.102l0.236-0.294l0.103-0.128l-0.038-0.021l-0.013-0.009l-0.013-0.01l-0.011-0.013
	v-0.001l-0.008-0.013l-0.006-0.014l-0.005-0.015l-0.004-0.016l-0.002-0.016l-0.001-0.018v-0.018L245.534,217.898z"/>
<path fill-rule="evenodd" clip-rule="evenodd" fill="#707E82" d="M245.696,217.915l0.16,0.093l-0.006-0.003l-0.005-0.004
	l-0.004-0.006l-0.001-0.001l-0.003-0.006l-0.003-0.006l-0.002-0.008l-0.001-0.008l-0.001-0.008l0.001-0.009v-0.009l0.002-0.009
	l0.002-0.01l0.003-0.01l0.004-0.01l0.004-0.01l0.005-0.009l0.006-0.01l0.006-0.009l0.007-0.009l0.007-0.008l0.008-0.008l0.007-0.007
	l0.008-0.006l0.007-0.005l0.008-0.004l0.007-0.003l0.008-0.003l0.007-0.001l0.007-0.001h0.007l0.006,0.002l0.006,0.002l-0.155-0.09
	c-0.019,0.012-0.036,0.027-0.053,0.048c-0.027,0.034-0.046,0.073-0.053,0.11C245.698,217.896,245.696,217.905,245.696,217.915z"/>
<path fill-rule="evenodd" clip-rule="evenodd" fill="#899EA3" d="M245.834,217.933c-0.005,0.024-0.003,0.047,0.007,0.062
	l0.001,0.001c0.011,0.016,0.027,0.02,0.047,0.015c0.019-0.005,0.039-0.02,0.058-0.042l0.001-0.001
	c0.019-0.022,0.03-0.05,0.036-0.074c0.005-0.025,0.003-0.049-0.008-0.063s-0.028-0.02-0.047-0.015
	c-0.02,0.005-0.04,0.021-0.059,0.043C245.852,217.881,245.839,217.907,245.834,217.933z"/>
<g>
	<polygon fill-rule="evenodd" clip-rule="evenodd" fill="#CFD1D1" points="244.037,219.966 242.98,219.356 242.98,220.288 
		244.036,220.897 	"/>
	<polygon fill-rule="evenodd" clip-rule="evenodd" fill="#CFD1D1" points="244.753,218.538 243.697,217.928 242.828,219.444 
		243.884,220.055 	"/>
</g>
<polygon fill-rule="evenodd" clip-rule="evenodd" fill="#E6EAEB" points="245.476,220.067 245.476,219.136 245.629,219.048 
	244.753,218.538 243.884,220.055 244.037,219.966 244.036,220.897 "/>
<polygon fill-rule="evenodd" clip-rule="evenodd" fill="#999999" points="244.509,220.625 244.98,220.353 244.98,219.46 
	244.509,219.732 "/>
<polygon fill-rule="evenodd" clip-rule="evenodd" fill="#666565" points="244.553,220.6 244.937,220.378 244.938,219.545 
	244.553,219.767 "/>
<polygon fill-rule="evenodd" clip-rule="evenodd" fill="#FAC13C" points="244.553,220.543 244.888,220.35 244.888,219.573 
	244.553,219.767 "/>
<path fill-rule="evenodd" clip-rule="evenodd" fill="#D19917" d="M243.467,219.715l0.2,0.115l0.003,0.002l0.002,0.002l0.003,0.002
	l0.002,0.002l0.002,0.002l0.002,0.003l0.002,0.003l0.002,0.003l0,0l0.001,0.003l0.002,0.003l0.001,0.003l0.001,0.003l0.001,0.003
	l0.001,0.003v0.003v0.003v0.515v0.002v0.003l-0.001,0.003l-0.001,0.002l-0.001,0.001l-0.001,0.002l-0.002,0.002l-0.001,0.001
	l-0.032,0.019l0.001-0.001l0.002-0.002l0.001-0.001l0.001-0.002l0.001-0.002l0.001-0.003v-0.002v-0.003v-0.515v-0.003v-0.003
	l-0.001-0.003l-0.001-0.003l-0.001-0.003l-0.001-0.003l-0.002-0.003l-0.001-0.003l0,0l-0.002-0.003l-0.002-0.003l-0.002-0.002
	l-0.002-0.003l-0.002-0.002l-0.003-0.002l-0.002-0.002l-0.003-0.002l-0.2-0.115l-0.044-0.025l-0.2-0.116l-0.003-0.001l-0.003-0.001
	l-0.002-0.001h-0.002h-0.002h-0.002l-0.002,0.001h-0.002l0.032-0.019l0.002-0.001h0.001h0.002h0.003h0.002l0.002,0.001l0.003,0.001
	l0.002,0.001l0.201,0.116L243.467,219.715L243.467,219.715z M243.43,219.77L243.43,219.77L243.43,219.77l-0.001,0.002v0.002v0.482
	v0.002v0.001l0.001,0.002v0.001l0.001,0.002l0.001,0.001l0.002,0.001l0.001,0.001l0.188,0.108h0.001h0.001h0.001h0.001l0.032-0.019
	h-0.001l-0.001,0.001l-0.001-0.001h-0.002l-0.187-0.108l-0.002-0.001l-0.001-0.001l-0.001-0.001l-0.001-0.002v-0.001l-0.001-0.002
	l-0.001-0.001v-0.002v-0.482v-0.002l0.001-0.001l0.001-0.001v-0.001L243.43,219.77L243.43,219.77z M243.423,220.223l-0.188-0.108
	h-0.001l-0.001-0.002l-0.001-0.001l-0.001-0.001l-0.001-0.002v-0.001l-0.001-0.002v-0.001v-0.287v-0.001l0.001-0.001v-0.001
	l0.001-0.001l-0.032,0.019l-0.001,0.001l-0.001,0.001v0.001v0.001v0.287v0.001v0.002l0.001,0.001l0.001,0.002l0.001,0.001
	l0.001,0.001l0.001,0.001l0.001,0.001l0.188,0.108l0.001,0.001h0.001h0.002l0,0l0.032-0.019h-0.001h-0.001L243.423,220.223
	L243.423,220.223L243.423,220.223z M243.423,219.886l-0.188-0.108l-0.001-0.001l-0.001-0.001l-0.001-0.001l-0.001-0.002
	l-0.001-0.001v-0.002l-0.001-0.001v-0.002v-0.146v-0.001l0.001-0.002l0,0l0.001-0.001l-0.032,0.019l-0.001,0.001h-0.001v0.002v0.001
	v0.146v0.002v0.001l0.001,0.002l0.001,0.002l0.001,0.001l0.001,0.001l0.001,0.001l0.001,0.001l0.188,0.108h0.001l0.001,0.001h0.002
	v-0.001l0.032-0.019l-0.001,0.001h-0.001L243.423,219.886L243.423,219.886z"/>
<polygon fill-rule="evenodd" clip-rule="evenodd" fill="#2192FC" points="243.449,219.761 243.449,220.244 243.456,220.255 
	243.643,220.362 243.648,220.359 243.648,219.876 243.643,219.865 243.456,219.757 "/>
<polygon fill-rule="evenodd" clip-rule="evenodd" fill="#2192FC" points="243.418,220.226 243.418,219.938 243.412,219.929 
	243.225,219.82 243.219,219.824 243.219,220.11 243.225,220.121 243.412,220.229 "/>
<polygon fill-rule="evenodd" clip-rule="evenodd" fill="#2192FC" points="243.418,219.889 243.418,219.742 243.412,219.732 
	243.225,219.624 243.219,219.627 243.219,219.773 243.225,219.784 243.412,219.892 "/>
<path fill-rule="evenodd" clip-rule="evenodd" fill="#FAC13C" d="M243.435,219.733l0.2,0.115c0.007,0.004,0.013,0.011,0.018,0.019
	l0,0c0.004,0.008,0.007,0.016,0.007,0.023v0.515c0,0.008-0.003,0.013-0.007,0.016c-0.005,0.002-0.011,0.002-0.018-0.002l-0.2-0.116
	l-0.044-0.025l-0.2-0.115c-0.007-0.004-0.013-0.011-0.018-0.019l0,0c-0.005-0.007-0.007-0.016-0.007-0.023v-0.515
	c0-0.007,0.002-0.013,0.007-0.016c0.005-0.002,0.011-0.002,0.018,0.002l0.2,0.116L243.435,219.733L243.435,219.733z M243.396,219.9
	v-0.146c0-0.004-0.002-0.009-0.006-0.011l-0.188-0.107c-0.003-0.003-0.006-0.001-0.006,0.003v0.146c0,0.004,0.003,0.009,0.006,0.011
	l0.188,0.108C243.395,219.906,243.396,219.904,243.396,219.9L243.396,219.9z M243.396,220.237v-0.286
	c0-0.004-0.002-0.009-0.006-0.011l-0.188-0.108c-0.003-0.001-0.006,0-0.006,0.004v0.287c0,0.004,0.003,0.008,0.006,0.01l0.188,0.108
	C243.395,220.243,243.396,220.242,243.396,220.237L243.396,220.237z M243.429,219.773v0.482c0,0.004,0.002,0.009,0.006,0.011
	l0.188,0.108c0.003,0.002,0.006,0,0.006-0.004v-0.482c0-0.005-0.003-0.009-0.006-0.011l-0.188-0.108
	C243.431,219.768,243.429,219.77,243.429,219.773z"/>
<g>
	<polygon fill-rule="evenodd" clip-rule="evenodd" fill="#D14232" points="244.824,218.596 243.6,217.889 244.51,218.419 
		245.734,219.127 	"/>
	<polygon fill-rule="evenodd" clip-rule="evenodd" fill="#E74C3C" points="244.824,218.408 243.599,217.701 242.534,219.56 
		243.759,220.267 	"/>
</g>
<polygon fill-rule="evenodd" clip-rule="evenodd" fill="#C0392B" points="245.734,219.127 245.896,219.033 244.824,218.408 
	243.759,220.267 243.92,220.173 244.824,218.596 "/>
<path fill-rule="evenodd" clip-rule="evenodd" fill="#323A3D" d="M244.163,218.893l-0.662-0.386
	c-0.016-0.009-0.021-0.029-0.012-0.045l0.19-0.323c0.009-0.017,0.029-0.021,0.045-0.013l0.663,0.386
	c0.016,0.009,0.021,0.029,0.012,0.045l-0.19,0.323C244.2,218.896,244.179,218.901,244.163,218.893z"/>
<path fill-rule="evenodd" clip-rule="evenodd" fill="#475459" d="M244.097,218.695l-0.069,0.118l0.124,0.072
	c0.012,0.006,0.023,0.009,0.034,0.008l0,0c0.01-0.001,0.019-0.006,0.023-0.014l0.052-0.089L244.097,218.695z"/>
<rect x="244.154" y="218.576" transform="matrix(0.5092 -0.8606 0.8606 0.5092 -68.3362 317.5081)" fill-rule="evenodd" clip-rule="evenodd" fill="#475459" width="0.136" height="0.191"/>
<rect x="243.968" y="218.468" transform="matrix(-0.5061 0.8625 -0.8625 -0.5061 556.0469 118.697)" fill-rule="evenodd" clip-rule="evenodd" fill="#475459" width="0.137" height="0.19"/>
<rect x="243.89" y="218.599" transform="matrix(-0.5061 0.8625 -0.8625 -0.5061 556.0437 118.9625)" fill-rule="evenodd" clip-rule="evenodd" fill="#475459" width="0.137" height="0.191"/>
<path fill-rule="evenodd" clip-rule="evenodd" fill="#475459" d="M244.182,218.55l0.165,0.096l0.053-0.089
	c0.005-0.008,0.004-0.018,0-0.027c-0.004-0.009-0.013-0.019-0.023-0.024l-0.125-0.072L244.182,218.55z"/>
<rect x="243.706" y="218.492" transform="matrix(0.5092 -0.8606 0.8606 0.5092 -68.4834 317.0819)" fill-rule="evenodd" clip-rule="evenodd" fill="#475459" width="0.136" height="0.191"/>
<rect x="243.783" y="218.36" transform="matrix(0.5092 -0.8606 0.8606 0.5092 -68.3325 317.0839)" fill-rule="evenodd" clip-rule="evenodd" fill="#475459" width="0.136" height="0.191"/>
<polygon fill-rule="evenodd" clip-rule="evenodd" fill="#475459" points="243.881,218.217 243.813,218.335 243.977,218.431 
	244.046,218.313 243.974,218.271 "/>
<path fill-rule="evenodd" clip-rule="evenodd" fill="#475459" d="M243.792,218.322l0.069-0.117l-0.125-0.072
	c-0.011-0.006-0.022-0.009-0.033-0.008l0,0c-0.011,0.001-0.02,0.006-0.023,0.014l-0.053,0.088L243.792,218.322z"/>
<rect x="243.599" y="218.252" transform="matrix(-0.5039 0.8638 -0.8638 -0.5039 555.0471 117.8927)" fill-rule="evenodd" clip-rule="evenodd" fill="#475459" width="0.136" height="0.191"/>
<path fill-rule="evenodd" clip-rule="evenodd" fill="#475459" d="M243.637,218.586l0.069-0.117l-0.165-0.096l-0.052,0.089
	c-0.005,0.008-0.005,0.018,0,0.026c0.004,0.01,0.013,0.019,0.023,0.025L243.637,218.586z"/>
<polygon fill-rule="evenodd" clip-rule="evenodd" fill="#475459" points="244.139,218.367 244.066,218.325 243.997,218.442 
	244.162,218.538 244.23,218.421 "/>
<path fill-rule="evenodd" clip-rule="evenodd" fill="#323A3D" d="M243.898,219.342l-0.662-0.385c-0.016-0.01-0.021-0.03-0.012-0.046
	l0.189-0.323c0.01-0.016,0.03-0.021,0.046-0.012l0.663,0.385c0.016,0.01,0.021,0.03,0.012,0.046l-0.19,0.323
	C243.935,219.346,243.914,219.352,243.898,219.342z"/>
<path fill-rule="evenodd" clip-rule="evenodd" fill="#475459" d="M243.832,219.146l-0.069,0.117l0.124,0.072
	c0.012,0.007,0.023,0.01,0.033,0.009h0.001c0.01-0.001,0.019-0.006,0.023-0.014l0.052-0.089L243.832,219.146z"/>
<rect x="243.889" y="219.025" transform="matrix(0.5092 -0.8606 0.8606 0.5092 -68.8531 317.501)" fill-rule="evenodd" clip-rule="evenodd" fill="#475459" width="0.136" height="0.191"/>
<rect x="243.704" y="218.917" transform="matrix(-0.5039 0.8638 -0.8638 -0.5039 555.7802 118.8018)" fill-rule="evenodd" clip-rule="evenodd" fill="#475459" width="0.136" height="0.191"/>
<rect x="243.626" y="219.049" transform="matrix(-0.5092 0.8606 -0.8606 -0.5092 556.3912 121.0024)" fill-rule="evenodd" clip-rule="evenodd" fill="#475459" width="0.136" height="0.191"/>
<path fill-rule="evenodd" clip-rule="evenodd" fill="#475459" d="M243.917,219l0.165,0.096l0.052-0.089
	c0.005-0.008,0.005-0.018,0.001-0.027c-0.005-0.009-0.013-0.019-0.023-0.024l-0.125-0.073L243.917,219z"/>
<rect x="243.441" y="218.942" transform="matrix(0.5039 -0.8638 0.8638 0.5039 -68.3876 319.0088)" fill-rule="evenodd" clip-rule="evenodd" fill="#475459" width="0.136" height="0.191"/>
<rect x="243.519" y="218.81" transform="matrix(0.5092 -0.8606 0.8606 0.5092 -68.8494 317.0768)" fill-rule="evenodd" clip-rule="evenodd" fill="#475459" width="0.136" height="0.191"/>
<polygon fill-rule="evenodd" clip-rule="evenodd" fill="#475459" points="243.616,218.667 243.548,218.784 243.712,218.88 
	243.781,218.763 243.709,218.721 "/>
<path fill-rule="evenodd" clip-rule="evenodd" fill="#475459" d="M243.527,218.772l0.069-0.117l-0.125-0.072
	c-0.011-0.007-0.022-0.009-0.033-0.009v0.001c-0.011,0.001-0.02,0.005-0.024,0.013l-0.052,0.089L243.527,218.772z"/>
<rect x="243.333" y="218.702" transform="matrix(-0.5092 0.8606 -0.8606 -0.5092 555.6508 120.7313)" fill-rule="evenodd" clip-rule="evenodd" fill="#475459" width="0.136" height="0.191"/>
<path fill-rule="evenodd" clip-rule="evenodd" fill="#475459" d="M243.372,219.036l0.069-0.117l-0.165-0.097l-0.052,0.089
	c-0.005,0.008-0.005,0.019,0,0.027c0.004,0.01,0.013,0.019,0.023,0.025L243.372,219.036z"/>
<polygon fill-rule="evenodd" clip-rule="evenodd" fill="#475459" points="243.874,218.816 243.802,218.774 243.732,218.892 
	243.897,218.988 243.966,218.87 "/>
<path fill-rule="evenodd" clip-rule="evenodd" fill="#323A3D" d="M243.634,219.792l-0.662-0.386
	c-0.016-0.009-0.021-0.029-0.012-0.045l0.189-0.323c0.01-0.016,0.03-0.021,0.046-0.012l0.662,0.385
	c0.017,0.01,0.021,0.03,0.013,0.046l-0.19,0.323C243.67,219.796,243.649,219.801,243.634,219.792z"/>
<path fill-rule="evenodd" clip-rule="evenodd" fill="#475459" d="M243.566,219.596l-0.068,0.117l0.124,0.072
	c0.012,0.007,0.023,0.009,0.033,0.008l0,0c0.011-0.001,0.02-0.005,0.024-0.013l0.052-0.089L243.566,219.596z"/>
<rect x="243.624" y="219.475" transform="matrix(0.5092 -0.8606 0.8606 0.5092 -69.37 317.494)" fill-rule="evenodd" clip-rule="evenodd" fill="#475459" width="0.136" height="0.191"/>
<rect x="243.439" y="219.368" transform="matrix(-0.5092 0.8606 -0.8606 -0.5092 556.3823 121.6442)" fill-rule="evenodd" clip-rule="evenodd" fill="#475459" width="0.136" height="0.191"/>
<rect x="243.362" y="219.499" transform="matrix(-0.5092 0.8606 -0.8606 -0.5092 556.3793 121.9096)" fill-rule="evenodd" clip-rule="evenodd" fill="#475459" width="0.136" height="0.191"/>
<path fill-rule="evenodd" clip-rule="evenodd" fill="#475459" d="M243.652,219.449l0.165,0.096l0.052-0.088
	c0.005-0.008,0.005-0.019,0.001-0.027c-0.005-0.01-0.013-0.019-0.023-0.025l-0.125-0.072L243.652,219.449z"/>
<rect x="243.176" y="219.391" transform="matrix(0.5008 -0.8656 0.8656 0.5008 -68.5466 320.1279)" fill-rule="evenodd" clip-rule="evenodd" fill="#475459" width="0.137" height="0.191"/>
<rect x="243.254" y="219.259" transform="matrix(0.5092 -0.8606 0.8606 0.5092 -69.3663 317.0698)" fill-rule="evenodd" clip-rule="evenodd" fill="#475459" width="0.136" height="0.191"/>
<polygon fill-rule="evenodd" clip-rule="evenodd" fill="#475459" points="243.352,219.117 243.283,219.234 243.447,219.33 
	243.517,219.213 243.444,219.171 "/>
<path fill-rule="evenodd" clip-rule="evenodd" fill="#475459" d="M243.263,219.223l0.068-0.117l-0.124-0.072
	c-0.011-0.007-0.023-0.01-0.033-0.009l0,0c-0.011,0.001-0.02,0.006-0.024,0.014l-0.052,0.089L243.263,219.223z"/>
<rect x="243.068" y="219.152" transform="matrix(-0.5061 0.8625 -0.8625 -0.5061 555.282 120.5041)" fill-rule="evenodd" clip-rule="evenodd" fill="#475459" width="0.137" height="0.191"/>
<path fill-rule="evenodd" clip-rule="evenodd" fill="#475459" d="M243.107,219.485l0.069-0.117l-0.165-0.096l-0.052,0.089
	c-0.005,0.008-0.005,0.018,0,0.027c0.004,0.009,0.012,0.019,0.023,0.024L243.107,219.485z"/>
<polygon fill-rule="evenodd" clip-rule="evenodd" fill="#475459" points="243.609,219.267 243.537,219.225 243.468,219.342 
	243.633,219.438 243.701,219.32 "/>
<g>
	<path fill-rule="evenodd" clip-rule="evenodd" fill="#E6EAEB" d="M16.051,13.839v-1.866c0.003-1.492-1.837-2.034-3.108-2.144
		c-0.108,0.222-0.218,0.44-0.33,0.651l-0.039,0.067c0.334,0.792-0.834,1.95-2.048,2.4c-0.891,0.335-1.844,0.205-2.714-0.133
		c-0.918-0.355-1.478-0.859-1.39-1.316C5.78,12.325,4.9,12.94,4.192,13.708l-0.126,0.145L3.942,14l-0.119,0.146L3.71,14.292
		l-0.109,0.152l-0.102,0.151l-0.095,0.15l-0.088,0.155l-0.081,0.155l-0.07,0.158l-0.06,0.162l-0.053,0.165L3.01,15.707l-0.028,0.17
		L2.96,16.049l-0.003,0.176v0.057v0.06v0.057v0.061v0.059v0.057v0.06v0.057v0.061v0.056v0.06v0.057v0.06v0.057v0.061v0.059v0.057
		v0.06v0.057v0.061v0.056v0.06v0.057v0.06v0.057v0.061c-0.003,0.559,0.07,0.707,0.679,1.063
		C8.346,21.519,16.051,14.937,16.051,13.839z"/>
	<path fill-rule="evenodd" clip-rule="evenodd" fill="#F79903" d="M16.051,13.839v-1.866c0.003-1.348-1.5-1.921-2.728-2.098
		c0.116,0.141,0.193,0.327,0.235,0.525c0.066,0.298,0.06,0.625,0.008,0.866c-0.05,0.207-0.13,0.415-0.24,0.616
		c-0.112,0.208-0.257,0.411-0.426,0.602c-0.236,0.271-0.523,0.524-0.841,0.749c-0.316,0.226-0.662,0.423-1.011,0.571
		c0,0-0.024,0.007-0.056,0.021l-0.127,0.045c-0.268,0.099-0.539,0.169-0.813,0.207c-0.285,0.047-0.57,0.057-0.855,0.043
		C8.909,14.105,8.621,14.063,8.339,14c-0.302-0.066-0.599-0.158-0.88-0.267c-0.292-0.113-0.56-0.243-0.792-0.381
		c-0.239-0.14-0.447-0.295-0.616-0.453c-0.18-0.174-0.324-0.353-0.43-0.543c-0.476,0.451-0.985,0.873-1.429,1.352l-0.126,0.145
		L3.942,14l-0.119,0.146L3.71,14.292l-0.109,0.152l-0.102,0.151l-0.095,0.15l-0.088,0.155l-0.081,0.155l-0.07,0.158l-0.06,0.162
		l-0.053,0.165L3.01,15.707l-0.028,0.17L2.96,16.049l-0.003,0.176v0.057v0.06v0.057v0.061v0.059v0.057v0.06v0.057v0.061v0.056v0.06
		v0.057v0.06v0.057v0.061v0.059v0.057v0.06v0.057v0.061v0.056v0.06v0.057v0.06v0.057v0.061c-0.003,0.559,0.07,0.707,0.679,1.063
		C8.346,21.519,16.051,14.937,16.051,13.839z"/>
	<path fill-rule="evenodd" clip-rule="evenodd" fill="#E3CCA4" d="M6.421,11.498c0.095-0.124,0.376-0.416,0.454-0.543
		c0.152-0.26,0.148-0.358,0.18-0.661c1.295,1.503,4.347,2.387,5.519,0.253l0,0c0.334,0.792-0.834,1.95-2.048,2.4
		c-0.891,0.335-1.844,0.205-2.714-0.133C6.892,12.459,6.333,11.955,6.421,11.498z"/>
	<path fill-rule="evenodd" clip-rule="evenodd" fill="#9C9C9C" d="M13.302,9.872c-0.014-0.003-0.028-0.003-0.042-0.007h-0.021
		c-0.014-0.003-0.024-0.007-0.039-0.007c-0.01,0-0.017,0-0.024-0.003c-0.014,0-0.024-0.004-0.035-0.004s-0.021-0.003-0.028-0.003
		c-0.01,0-0.021-0.003-0.031-0.003S13.056,9.84,13.045,9.84c-0.007,0-0.018,0-0.024-0.003c-0.011,0-0.024,0-0.031,0
		c-0.012-0.004-0.019-0.004-0.025-0.004c0.014,0.004,0.028,0.011,0.042,0.018c0.019,0.011,0.035,0.021,0.05,0.036
		c0.134,0.109,0.232,0.359,0.277,0.563c0.061,0.263,0.057,0.556,0.008,0.764c-0.043,0.189-0.116,0.377-0.219,0.56
		c-0.105,0.193-0.239,0.38-0.395,0.56c-0.221,0.253-0.499,0.5-0.803,0.714c-0.302,0.215-0.629,0.402-0.967,0.542
		c-0.007,0.004-0.025,0.012-0.049,0.019c-0.053,0.021-0.095,0.035-0.124,0.045c-0.25,0.096-0.507,0.162-0.764,0.197
		c-0.271,0.043-0.545,0.053-0.813,0.043c-0.278-0.015-0.549-0.057-0.821-0.116c-0.289-0.063-0.573-0.152-0.848-0.261
		c-0.278-0.105-0.532-0.229-0.757-0.362c-0.221-0.13-0.415-0.274-0.573-0.423c-0.179-0.169-0.317-0.353-0.412-0.541l0,0l0,0
		c-0.014,0.01-0.024,0.021-0.035,0.035l0,0l0,0l0,0c-0.011,0.01-0.021,0.021-0.032,0.031H5.728l0,0l-0.004,0.003
		c-0.01,0.011-0.021,0.021-0.032,0.032l0,0l0,0l-0.003,0.003c-0.01,0.007-0.018,0.018-0.028,0.028l-0.007,0.004L5.65,12.328
		c-0.007,0.007-0.014,0.014-0.025,0.025l-0.003,0.003c0.106,0.19,0.25,0.369,0.43,0.543c0.168,0.158,0.376,0.313,0.616,0.453
		c0.232,0.138,0.5,0.268,0.792,0.381c0.281,0.108,0.578,0.2,0.88,0.267c0.282,0.063,0.57,0.105,0.859,0.12
		c0.285,0.014,0.57,0.004,0.855-0.043c0.275-0.038,0.546-0.108,0.813-0.207l0.127-0.045c0.031-0.015,0.053-0.021,0.053-0.021
		c0.352-0.148,0.697-0.346,1.014-0.571c0.317-0.225,0.604-0.479,0.841-0.749c0.169-0.19,0.313-0.394,0.426-0.602
		c0.11-0.201,0.19-0.409,0.24-0.616c0.052-0.24,0.059-0.567-0.008-0.866c-0.042-0.198-0.119-0.384-0.235-0.525L13.302,9.872z"/>
	<path fill-rule="evenodd" clip-rule="evenodd" fill="#FFE7BD" d="M11.854,11.564c0.49-0.472,0.892-1.331,1.274-2.115
		c0.521-1.07,0.496-2.291,0.504-3.277l-0.18-0.584c-0.066-0.243-0.07-0.5-0.073-0.742c-0.007-0.32-0.015-0.616-0.181-0.768
		c-0.264-0.239-0.679,0.127-1.168,0.56c-0.335,0.295-0.697,0.616-1.091,0.845c-0.395,0.225-0.757,0.324-1.091,0.415l0,0
		C9.525,5.986,9.236,6.063,8.997,6.264c-0.366,0.31-0.352,0.56-0.345,1.003c0.007,0.419,0.028,0.831-0.229,1.722
		C8.419,8.957,8.416,8.925,8.409,8.893C8.406,8.861,8.398,8.83,8.392,8.802C8.388,8.77,8.381,8.742,8.375,8.71
		C8.367,8.682,8.36,8.654,8.353,8.625C8.346,8.597,8.339,8.573,8.332,8.544C8.321,8.52,8.314,8.496,8.307,8.467l0,0
		c-0.01-0.024-0.018-0.046-0.024-0.07c-0.011-0.025-0.018-0.049-0.028-0.07C8.244,8.302,8.233,8.281,8.226,8.259
		c-0.01-0.021-0.021-0.042-0.032-0.063C8.184,8.178,8.173,8.158,8.163,8.14c-0.01-0.021-0.021-0.039-0.032-0.057
		C8.121,8.066,8.11,8.048,8.099,8.034C8.085,8.017,8.075,7.999,8.064,7.985l0,0C8.05,7.967,8.04,7.953,8.029,7.939
		C8.015,7.925,8.005,7.911,7.991,7.897C7.98,7.886,7.966,7.872,7.955,7.862l0,0C7.941,7.848,7.927,7.837,7.917,7.827
		c-0.014-0.01-0.024-0.021-0.039-0.032l0,0c-0.014-0.01-0.025-0.018-0.039-0.028C7.825,7.756,7.811,7.75,7.797,7.742l0,0
		C7.786,7.735,7.772,7.728,7.758,7.721C7.744,7.714,7.73,7.707,7.72,7.7c-0.014-0.003-0.028-0.01-0.042-0.014
		C7.663,7.679,7.649,7.675,7.635,7.672l0,0C7.625,7.668,7.61,7.665,7.596,7.661c-0.014,0-0.028-0.003-0.042-0.007
		c-0.014,0-0.024-0.004-0.039-0.004l0,0c-0.014,0-0.028,0-0.042,0l0,0c-0.014,0-0.028,0-0.039,0l0,0c-0.014,0-0.028,0-0.042,0.004
		l0,0c-0.014,0-0.028,0.003-0.039,0.007l0,0c-0.014,0-0.028,0.003-0.039,0.007l0,0C7.301,7.672,7.287,7.675,7.276,7.682l0,0
		C7.262,7.686,7.248,7.689,7.237,7.696C7.223,7.7,7.212,7.707,7.198,7.71l0,0c-0.01,0.007-0.024,0.014-0.035,0.021l0,0
		C7.149,7.739,7.139,7.746,7.128,7.753l0,0C7.114,7.76,7.103,7.767,7.089,7.777l0,0c-0.01,0.007-0.021,0.014-0.031,0.025
		C7.047,7.809,7.037,7.82,7.026,7.831l0,0c-0.014,0.01-0.025,0.021-0.032,0.027l0,0C6.984,7.872,6.973,7.879,6.963,7.894l0,0
		c-0.011,0.01-0.021,0.021-0.028,0.035l0,0C6.924,7.939,6.914,7.95,6.906,7.964l0,0C6.896,7.975,6.889,7.988,6.878,8.002l0,0
		C6.871,8.013,6.86,8.031,6.854,8.042C6.846,8.056,6.839,8.069,6.832,8.087l0,0C6.825,8.101,6.818,8.115,6.811,8.129l0,0
		C6.801,8.144,6.797,8.161,6.79,8.175l0,0C6.783,8.189,6.776,8.207,6.772,8.224l0,0C6.765,8.238,6.762,8.256,6.755,8.273
		C6.751,8.291,6.748,8.305,6.745,8.323l0,0C6.738,8.34,6.734,8.358,6.73,8.376C6.727,8.394,6.724,8.411,6.72,8.432
		c0,0.018-0.003,0.035-0.003,0.057l0,0C6.713,8.506,6.709,8.523,6.709,8.544c0,0.018-0.003,0.039-0.003,0.06c0,0.018,0,0.039,0,0.06
		c0,0.018,0.003,0.039,0.003,0.06c0.003,0.021,0.003,0.042,0.007,0.063c0,0.021,0.003,0.042,0.007,0.063
		c0.003,0.021,0.007,0.046,0.01,0.067l0,0C6.738,8.939,6.745,8.96,6.748,8.985C6.814,9.28,6.984,9.629,7.117,9.882
		c0.046,0.085-0.01,0.307-0.049,0.43c0.937,1.063,2.298,1.792,3.382,1.792C10.933,12.1,11.503,11.906,11.854,11.564z"/>
	<path fill-rule="evenodd" clip-rule="evenodd" fill="#947050" d="M5.872,3.511c-0.862,1.587-0.32,5.928,1.172,6.867
		c0.032-0.077,0.13-0.394,0.073-0.497C6.984,9.629,6.814,9.28,6.748,8.985C6.424,7.552,8.127,6.883,8.423,8.988
		c0.257-0.891,0.236-1.302,0.229-1.722C8.645,6.824,8.631,6.573,8.997,6.264c0.239-0.201,0.528-0.278,0.852-0.366l0,0
		c0.334-0.091,0.697-0.19,1.091-0.415c0.394-0.229,0.756-0.549,1.091-0.845c0.489-0.433,0.904-0.799,1.168-0.56
		c0.166,0.151,0.174,0.447,0.181,0.768c0.003,0.243,0.007,0.5,0.073,0.742l0.18,0.584c0.049-0.771,0.032-1.665-0.078-2.397
		c-0.203-1.419-0.837-1.471-2.583-2.394c-0.282-0.148-0.64-0.394-1.183-0.412C8.473,0.932,6.522,2.462,5.872,3.511z"/>
	<path fill-rule="evenodd" clip-rule="evenodd" fill="#3F5973" d="M9.184,8.386V8.372V8.369V8.351V8.333V8.319V8.302V8.288
		l0.003-0.014V8.259l0.003-0.01l0.004-0.014l0.003-0.011V8.213l0.003-0.01l0.003-0.011l0.007-0.011l0.003-0.01l0.007-0.007
		l0.004-0.01l0.007-0.007L9.24,8.14l0.007-0.011l0.007-0.007l0.007-0.007l0.007-0.007l0.011-0.007l0.007-0.007l0.011-0.007
		l0.011-0.011l0.01-0.007l0.014-0.007l0.011-0.007l0.014-0.007l0.01-0.007l0.18-0.103l1.883-1.087l0.111-0.063l0,0l0.313-0.184
		l1.719-0.993l0.144-0.081l0.015-0.01l0.011-0.007l0.01-0.003l0.015-0.007l0.01-0.007l0.011-0.003l0.011-0.003l0.007-0.004
		l0.011-0.007h0.008l0.01-0.003l0.007-0.003h0.007h0.008h0.007l0.007,0.003h0.004l0.099,0.056h-0.004L13.96,5.528h-0.007h-0.008
		l-0.007,0.003h-0.01l-0.007,0.004l-0.008,0.003l-0.011,0.003l-0.007,0.003l-0.01,0.003l-0.012,0.007l-0.01,0.003l-0.011,0.007
		L13.84,5.57l-0.01,0.007l-0.015,0.011l-0.144,0.081l-1.719,0.993l-0.285,0.166l0,0l-0.137,0.081L9.645,7.996l-0.18,0.102
		L9.451,8.105L9.44,8.115L9.426,8.123l-0.01,0.007L9.405,8.137L9.395,8.144l-0.01,0.007L9.377,8.158L9.366,8.165L9.36,8.172
		L9.353,8.178L9.346,8.189L9.339,8.196L9.332,8.203L9.325,8.21L9.317,8.221L9.314,8.228L9.311,8.238L9.304,8.249L9.3,8.259
		L9.296,8.27L9.293,8.281v0.01L9.29,8.305L9.286,8.316V8.33L9.282,8.344v0.014v0.018L9.279,8.39v0.018v0.018v0.003v0.014v0.964
		v0.011v0.01l0.003,0.014v0.011v0.01l0.003,0.011v0.01l0.004,0.01v0.011l0.003,0.007l0.003,0.011L9.3,9.534v0.007l0.004,0.011
		l0.003,0.007l0.003,0.007l0.007,0.01l0.004,0.007L9.325,9.59l0.003,0.007l0.003,0.007l0.007,0.007l0.003,0.007l0.007,0.007
		l0.004,0.004L9.36,9.636l0.006,0.007L9.37,9.646L9.272,9.59L9.268,9.583L9.261,9.58L9.254,9.572L9.25,9.569L9.247,9.562L9.24,9.555
		L9.236,9.548L9.229,9.541L9.226,9.534L9.222,9.526L9.215,9.52L9.212,9.509L9.208,9.502L9.205,9.495l-0.003-0.01L9.198,9.478v-0.01
		L9.194,9.457L9.19,9.446V9.439L9.187,9.428v-0.01L9.184,9.407V9.396V9.382v-0.01V9.361V9.351V8.386L9.184,8.386z M11.668,7.682V7.7
		l0.005,0.018v0.018v0.018l0.003,0.018v0.014l0.004,0.018l0.003,0.014l0.004,0.014l0.003,0.014l0.004,0.014l0.003,0.014L11.7,7.886
		L11.708,7.9l0.003,0.014l0.007,0.01l0.004,0.011l0.007,0.014l0.008,0.011l0.007,0.01l0.007,0.011l0.007,0.011l0.007,0.007
		l0.008,0.011l0.01,0.01l0.007,0.007L11.8,8.038l0.007,0.007l0.01,0.007l0.01,0.007l0.008,0.003l0.011,0.007l0.099,0.057
		l-0.011-0.003l-0.008-0.007l-0.01-0.007l-0.011-0.007l-0.007-0.01l-0.011-0.007L11.88,8.077l-0.007-0.011l-0.012-0.007
		l-0.007-0.011l-0.007-0.01l-0.007-0.011l-0.007-0.011l-0.008-0.01l-0.007-0.014l-0.003-0.011L11.81,7.967l-0.003-0.011L11.8,7.943
		l-0.005-0.014l-0.003-0.014L11.788,7.9l-0.007-0.014V7.872l-0.003-0.014l-0.004-0.017V7.827l-0.003-0.018V7.792l-0.004-0.018V7.756
		V7.739V7.095l-0.1-0.06V7.682z"/>
	<path fill-rule="evenodd" clip-rule="evenodd" fill="#2C3E50" d="M9.279,8.443V8.429V8.425c0-0.194,0.046-0.244,0.187-0.328
		l0.18-0.102l1.886-1.088l0.137-0.081l-0.031,0.018l0.316-0.183l1.719-0.993l0.144-0.081c0.138-0.081,0.19-0.105,0.212,0.095v0.021
		v0.961c0,0.127-0.046,0.268-0.117,0.395l0,0c-0.073,0.123-0.172,0.235-0.28,0.299l-1.265,0.729
		c-0.162,0.094-0.313,0.102-0.422,0.039c-0.109-0.06-0.176-0.197-0.176-0.387V7.095l-0.227,0.13v0.647
		c0,0.19-0.069,0.401-0.175,0.592c-0.109,0.187-0.261,0.352-0.426,0.443L9.68,9.636C9.571,9.699,9.469,9.707,9.398,9.664l0,0
		c-0.073-0.042-0.119-0.13-0.119-0.257V8.443z"/>
	<path fill-rule="evenodd" clip-rule="evenodd" fill="#3F5973" d="M13.745,5.95l-1.661,0.961l-0.035,0.018v0.648
		c0,0.102,0.035,0.173,0.095,0.208c0.057,0.032,0.138,0.028,0.222-0.025l1.265-0.725c0.031-0.021,0.059-0.053,0.084-0.092v0.004
		c0.021-0.039,0.031-0.081,0.031-0.12V5.95z"/>
	<path fill-rule="evenodd" clip-rule="evenodd" fill="#3F5973" d="M11.261,7.387l-1.7,0.982v0.876c0,0.035,0.014,0.063,0.035,0.078
		l0,0c0.021,0.01,0.053,0.01,0.084-0.011l1.26-0.729c0.087-0.05,0.169-0.137,0.225-0.236c0.057-0.099,0.096-0.211,0.096-0.313V7.387
		z"/>
	<path fill-rule="evenodd" clip-rule="evenodd" fill="#2C3E50" d="M9.874,8.475l-0.218,0.57V8.527c0-0.014,0.004-0.035,0.011-0.052
		C9.677,8.446,9.697,8.421,9.718,8.4C9.722,8.397,9.729,8.394,9.736,8.39l1.257-0.729v0.046V7.76c0,0.025-0.018,0.057-0.039,0.071
		L9.909,8.432C9.895,8.443,9.88,8.457,9.874,8.475z"/>
	<path fill-rule="evenodd" clip-rule="evenodd" fill="#2C3E50" d="M12.594,6.904l-0.217,0.57V6.957c0-0.053,0.038-0.112,0.08-0.141
		l1.257-0.725V6.19c0,0.025-0.018,0.056-0.039,0.067l-1.046,0.602C12.615,6.87,12.602,6.883,12.594,6.904z"/>
	<path fill-rule="evenodd" clip-rule="evenodd" fill="#947050" d="M10.257,11.019c0.334-0.193,1.27-0.636,1.549-1.129
		c0.281,0.169,1.214-0.464,1.552-0.658c-0.208-0.507-1.281-0.349-1.552,0.13C11.534,9.196,10.465,10.273,10.257,11.019z"/>
	<path fill-rule="evenodd" clip-rule="evenodd" fill="#2C3E50" d="M7.181,7.696l0.025-0.113c0.039-0.172,0.218-0.2,0.38-0.13
		l1.623,0.735L9.205,8.192L9.201,8.203l-0.003,0.01v0.011L9.194,8.235L9.19,8.249l-0.003,0.01v0.014L9.184,8.288v0.014v0.018v0.014
		v0.018v0.018v0.003v0.014v0.147l-1.095-0.57C8.082,7.95,8.071,7.939,8.064,7.929l0,0C8.05,7.915,8.04,7.897,8.029,7.883
		C8.015,7.869,8.005,7.854,7.991,7.841C7.98,7.831,7.966,7.816,7.955,7.806l0,0C7.941,7.792,7.927,7.781,7.917,7.771
		C7.902,7.76,7.892,7.75,7.878,7.739l0,0C7.864,7.728,7.853,7.718,7.839,7.71C7.825,7.7,7.811,7.693,7.797,7.686l0,0
		C7.786,7.675,7.772,7.668,7.758,7.665C7.744,7.658,7.73,7.65,7.72,7.644C7.706,7.637,7.691,7.633,7.677,7.629
		C7.663,7.623,7.649,7.619,7.635,7.615l0,0C7.625,7.612,7.61,7.608,7.596,7.605C7.582,7.601,7.568,7.601,7.554,7.598
		c-0.014,0-0.024-0.003-0.039-0.003l0,0c-0.014,0-0.028-0.003-0.042-0.003l0,0c-0.014,0-0.028,0.003-0.039,0.003l0,0
		c-0.014,0-0.028,0.003-0.042,0.003l0,0c-0.014,0-0.028,0.003-0.039,0.007l0,0c-0.014,0-0.028,0.003-0.039,0.007l0,0
		C7.301,7.615,7.287,7.619,7.276,7.626l0,0C7.262,7.629,7.248,7.633,7.237,7.64C7.223,7.644,7.212,7.65,7.198,7.654l0,0
		C7.191,7.658,7.191,7.693,7.181,7.696L7.181,7.696z M9.279,8.425v0.158l0,0V8.443V8.429V8.425L9.279,8.425z"/>
	<path fill-rule="evenodd" clip-rule="evenodd" fill="#3F5973" d="M7.174,7.725l0.021-0.088c0.039-0.172,0.215-0.204,0.38-0.13
		l1.718,0.778C9.286,8.323,9.279,8.369,9.279,8.425v0.003v0.014V8.64l-1.19-0.62C8.082,8.006,8.071,7.996,8.064,7.985l0,0
		C8.05,7.967,8.04,7.953,8.029,7.939C8.015,7.925,8.005,7.911,7.991,7.897C7.98,7.886,7.966,7.872,7.955,7.862l0,0
		C7.941,7.848,7.927,7.837,7.917,7.827c-0.014-0.01-0.024-0.021-0.039-0.032l0,0c-0.014-0.01-0.025-0.018-0.039-0.028
		C7.825,7.756,7.811,7.75,7.797,7.742l0,0C7.786,7.735,7.772,7.728,7.758,7.721C7.744,7.714,7.73,7.707,7.72,7.7
		c-0.014-0.003-0.028-0.01-0.042-0.014C7.663,7.679,7.649,7.675,7.635,7.672l0,0C7.625,7.668,7.61,7.665,7.596,7.661
		c-0.014,0-0.028-0.003-0.042-0.007c-0.014,0-0.024-0.004-0.039-0.004l0,0c-0.014,0-0.028,0-0.042,0l0,0c-0.014,0-0.028,0-0.039,0
		l0,0c-0.014,0-0.028,0-0.042,0.004l0,0c-0.014,0-0.028,0.003-0.039,0.007l0,0c-0.014,0-0.028,0.003-0.039,0.007l0,0
		C7.301,7.672,7.287,7.675,7.276,7.682l0,0C7.262,7.686,7.248,7.689,7.237,7.696C7.223,7.7,7.212,7.707,7.198,7.71l0,0
		C7.191,7.714,7.184,7.721,7.174,7.725z"/>
	<path fill-rule="evenodd" clip-rule="evenodd" fill="#947050" d="M8.392,8.802c-0.767,3.09,1.658,3.695,2.78,3.58
		c0.473-0.05,0.859-0.275,1.257-0.909c0.542-0.858,1.095-2.309,1.095-3.318c-0.141,1.221-1.179,2.89-1.563,2.467
		C11.834,10.959,9.645,12.198,8.392,8.802z"/>
</g>
</svg>
