<?xml version="1.0" encoding="utf-8"?>
<!-- Generator: Adobe Illustrator 16.0.0, SVG Export Plug-In . SVG Version: 6.00 Build 0)  -->
<!DOCTYPE svg PUBLIC "-//W3C//DTD SVG 1.1//EN" "http://www.w3.org/Graphics/SVG/1.1/DTD/svg11.dtd">
<svg version="1.1" id="Layer_1" xmlns="http://www.w3.org/2000/svg" xmlns:xlink="http://www.w3.org/1999/xlink" x="0px" y="0px"
	 width="21.039px" height="26.405px" viewBox="0 0 21.039 26.405" enable-background="new 0 0 21.039 26.405" xml:space="preserve">
<g>
	<path fill="#8B1F1F" d="M17.067,18.356c-1.132-1.154-3.737-1.959-6.766-1.955c-3.003,0.009-5.582,0.81-6.719,1.955H2.961v1.964
		c0.009,1.8,3.308,3.249,7.371,3.241c4.035-0.009,7.306-1.456,7.337-3.241h0.002v-1.964H17.067z"/>
	<path fill="#F9B120" d="M17.671,18.341c0.007,1.8-3.278,3.265-7.339,3.274c-4.063,0.007-7.362-1.444-7.371-3.242
		c-0.007-1.801,3.281-3.265,7.341-3.273C14.365,15.091,17.664,16.542,17.671,18.341z"/>
</g>
<g>
	<path fill="#F9C45D" d="M18.259,16.726c-1.332-1.36-4.396-2.306-7.96-2.3c-3.531,0.009-6.567,0.954-7.905,2.3H1.664v1.899
		c0.01,2.117,3.89,3.824,8.67,3.815c4.749-0.013,8.597-1.715,8.635-3.815l0,0v-1.899H18.259z"/>
	<path fill="#F9B120" d="M18.969,16.707c0.008,2.119-3.857,3.843-8.635,3.854c-4.78,0.009-8.66-1.698-8.67-3.815
		c-0.01-2.116,3.859-3.838,8.635-3.851C15.078,12.885,18.961,14.592,18.969,16.707z"/>
	<path fill="#F3F3F3" d="M10.334,12.894c-0.01,0-0.022,0-0.035,0c-4.775,0.013-8.645,1.734-8.635,3.851
		c0.01,2.113,3.869,3.815,8.633,3.815c0.013,0,0.023,0,0.037,0c4.777-0.011,8.643-1.734,8.635-3.854
		C18.961,14.596,15.098,12.894,10.334,12.894z M18.064,18.088c-0.639,0.642-1.686,1.192-3.026,1.59
		c-1.394,0.412-3.021,0.631-4.705,0.638h-0.036c-2.271,0-4.402-0.39-6.002-1.095c-0.763-0.336-1.358-0.727-1.772-1.158
		c-0.406-0.425-0.613-0.867-0.614-1.318c-0.002-0.474,0.219-0.937,0.658-1.379c0.639-0.642,1.684-1.192,3.027-1.59
		c1.392-0.414,3.021-0.633,4.707-0.638h0.033l0,0h0.002c2.27,0,4.4,0.388,6.001,1.095c0.764,0.336,1.358,0.725,1.773,1.158
		c0.405,0.423,0.613,0.865,0.616,1.318C18.728,17.183,18.503,17.646,18.064,18.088z"/>
	<path fill="#FEF383" d="M3.411,19.044c-1.094-0.638-1.743-1.435-1.747-2.3v1.881c0.004,0.865,0.653,1.662,1.747,2.298V19.044z"/>
	<path fill="#F26122" d="M3.411,20.923c1.038,0.608,2.477,1.073,4.143,1.319v-1.878c-1.666-0.249-3.104-0.712-4.143-1.32V20.923z"/>
	<path fill="#FAE605" d="M7.554,22.243c0.872,0.13,1.808,0.198,2.78,0.198c0.96-0.002,1.883-0.074,2.746-0.204v-1.881
		c-0.863,0.13-1.786,0.202-2.746,0.204c-0.973,0-1.908-0.068-2.78-0.195V22.243z"/>
	<path fill="#C44927" d="M13.08,22.237c1.666-0.251,3.104-0.719,4.143-1.33v-1.881c-1.039,0.609-2.477,1.079-4.143,1.33V22.237z"/>
	<path fill="#C8B92E" d="M17.223,19.026v1.881c1.082-0.636,1.731-1.427,1.746-2.281l0,0v-1.899l0,0
		C18.962,17.588,18.313,18.386,17.223,19.026z"/>
	<path fill="#FEF383" d="M4.521,21.461c0.497,0.197,1.045,0.369,1.635,0.512v-1.881c-0.59-0.143-1.138-0.314-1.635-0.512V21.461z"/>
	<path fill="#C8B92E" d="M14.475,21.962c0.592-0.145,1.142-0.316,1.637-0.517v-1.883c-0.495,0.2-1.045,0.374-1.637,0.519V21.962z"/>
	<path fill="#AA4124" d="M18.178,18.32v1.881c0.498-0.482,0.78-1.014,0.791-1.575l0,0v-1.899l0,0
		C18.966,17.293,18.682,17.833,18.178,18.32z"/>
	<path fill="#F37434" d="M2.456,18.341c-0.505-0.487-0.789-1.026-0.792-1.597v1.881c0.003,0.57,0.287,1.112,0.792,1.597V18.341z"/>
	<path fill="#C94B27" d="M9.159,22.409c0.384,0.02,0.776,0.032,1.175,0.032c0.386-0.002,0.765-0.013,1.138-0.036v-1.881
		c-0.373,0.021-0.752,0.036-1.138,0.036c-0.398,0-0.791-0.011-1.175-0.034V22.409z"/>
</g>
<path fill="#9C702A" d="M17.771,16.713c0.005,1.698-3.323,3.079-7.439,3.086c-4.118,0.008-7.461-1.36-7.471-3.059
	c-0.008-1.698,3.324-3.079,7.44-3.088C14.421,13.649,17.763,15.015,17.771,16.713z"/>
<path fill="#F9C45D" d="M2.012,16.726v0.019c0-0.006,0.002-0.012,0.002-0.019H2.012z"/>
<path fill="#E8D8D7" d="M15.807,14.341h-0.308v4.531c0,0,0.035,0.07,0.161,0.07c0.124,0,0.146-0.07,0.146-0.07V14.341z"/>
<path fill="#E8D8D7" d="M5.069,14.116H4.764v4.531c0,0,0.033,0.07,0.158,0.07c0.127,0,0.147-0.07,0.147-0.07V14.116z"/>
<path fill="#E2A026" d="M18.969,16.707c-0.008-2.114-3.891-3.821-8.67-3.813c-0.297,0-0.588,0.009-0.876,0.021
	c-0.702,0.387-1.556,0.716-2.52,0.974c-0.078,0.049-0.156,0.1-0.229,0.15c0,0.002,0.001,0.004,0.001,0.007
	c0.003,0.844-0.549,1.628-1.504,2.288c0.064-0.002,0.129-0.004,0.199-0.004c1.524,0.746,2.451,1.736,2.457,2.822
	c0,0.034-0.001,0.068-0.003,0.103c0.003,0,0.004,0.002,0.006,0.002c0.021,0.011,0.045,0.019,0.066,0.029
	c0.03-0.031,0.063-0.063,0.094-0.096c1.566,0.238,2.948,0.653,4.025,1.188c0.002,0.002,0.005,0.002,0.007,0.002
	c0.002-0.006,0.006-0.013,0.009-0.02c0.613-0.082,1.255-0.136,1.913-0.161C16.916,19.588,18.974,18.254,18.969,16.707z"/>
<path fill="#835D25" d="M17.771,16.713c-0.009-1.698-3.351-3.064-7.47-3.061c-1.317,0.002-2.555,0.146-3.627,0.397
	c0.003,0.84-0.551,1.626-1.504,2.284c0.064-0.002,0.129-0.004,0.199-0.004c1.524,0.746,2.451,1.736,2.457,2.822
	c0,0.034-0.001,0.068-0.003,0.103c0.003,0,0.004,0.002,0.006,0.002c0.021,0.011,0.045,0.019,0.066,0.029
	c0.03-0.031,0.063-0.063,0.094-0.096c0.938,0.143,1.811,0.349,2.589,0.606C14.582,19.738,17.776,18.375,17.771,16.713z"/>
<path fill="#CCCCCC" d="M18.962,16.578c-0.001-0.023-0.003-0.045-0.006-0.068c-0.001-0.011-0.002-0.023-0.004-0.034
	c-0.004-0.019-0.005-0.042-0.009-0.062c-0.002-0.013-0.006-0.023-0.009-0.036c-0.003-0.02-0.007-0.043-0.011-0.06
	c-0.003-0.013-0.007-0.025-0.011-0.036c-0.005-0.021-0.012-0.04-0.017-0.062c-0.003-0.011-0.004-0.023-0.01-0.034
	c-0.007-0.019-0.012-0.042-0.018-0.062c-0.005-0.011-0.011-0.023-0.014-0.034c-0.009-0.021-0.018-0.04-0.023-0.06
	c-0.005-0.011-0.009-0.023-0.015-0.034c-0.008-0.021-0.018-0.04-0.027-0.059c-0.004-0.014-0.01-0.021-0.016-0.032
	c-0.011-0.021-0.02-0.04-0.03-0.06c-0.006-0.013-0.012-0.023-0.017-0.034c-0.011-0.019-0.023-0.04-0.034-0.062
	c-0.006-0.009-0.012-0.02-0.018-0.029c-0.013-0.02-0.024-0.041-0.037-0.06c-0.008-0.009-0.015-0.02-0.021-0.03
	c-0.012-0.019-0.026-0.04-0.042-0.062c-0.005-0.011-0.014-0.017-0.02-0.027c-0.014-0.02-0.031-0.043-0.046-0.062
	c-0.007-0.009-0.012-0.018-0.022-0.025c-0.015-0.02-0.032-0.043-0.047-0.064c-0.009-0.008-0.015-0.015-0.021-0.023
	c-0.018-0.021-0.036-0.042-0.055-0.063c-0.007-0.007-0.015-0.015-0.022-0.023c-0.018-0.021-0.038-0.042-0.059-0.062
	c-0.007-0.009-0.015-0.017-0.022-0.023c-0.02-0.021-0.04-0.043-0.062-0.063c-0.009-0.007-0.017-0.013-0.023-0.021
	c-0.022-0.021-0.044-0.04-0.066-0.062c-0.007-0.007-0.016-0.015-0.023-0.021c-0.022-0.021-0.046-0.04-0.069-0.062
	c-0.008-0.004-0.017-0.013-0.023-0.021c-0.025-0.019-0.05-0.04-0.074-0.062c-0.009-0.004-0.016-0.011-0.023-0.017
	c-0.026-0.021-0.053-0.043-0.08-0.062c-0.008-0.007-0.016-0.014-0.024-0.02c-0.026-0.02-0.054-0.04-0.081-0.062
	c-0.01-0.007-0.018-0.013-0.024-0.017c-0.03-0.021-0.059-0.041-0.089-0.063c-0.007-0.006-0.014-0.01-0.022-0.017
	c-0.03-0.02-0.06-0.04-0.09-0.058c-0.011-0.006-0.018-0.013-0.025-0.017c-0.031-0.02-0.063-0.04-0.094-0.062
	c-0.009-0.005-0.017-0.009-0.025-0.013c-0.033-0.02-0.064-0.041-0.097-0.06c-0.01-0.005-0.02-0.011-0.026-0.016
	c-0.034-0.019-0.066-0.038-0.101-0.057c-0.011-0.007-0.02-0.011-0.027-0.016c-0.035-0.021-0.069-0.038-0.104-0.057
	c-0.007-0.005-0.018-0.009-0.026-0.016c-0.037-0.019-0.072-0.035-0.107-0.055c-0.009-0.004-0.018-0.009-0.027-0.015
	c-0.036-0.018-0.073-0.036-0.11-0.054c-0.011-0.004-0.021-0.011-0.027-0.013c-0.041-0.019-0.076-0.036-0.114-0.055
	c-0.011-0.005-0.019-0.009-0.03-0.011c-0.039-0.02-0.077-0.036-0.115-0.054c-0.012-0.006-0.021-0.008-0.03-0.015
	c-0.041-0.017-0.078-0.031-0.119-0.049c-0.01-0.004-0.021-0.009-0.031-0.013c-0.039-0.017-0.078-0.034-0.12-0.051
	c-0.012-0.005-0.022-0.007-0.033-0.013c-0.04-0.018-0.081-0.032-0.123-0.047c-0.01-0.004-0.02-0.009-0.033-0.013
	c-0.041-0.018-0.082-0.032-0.124-0.047c-0.014-0.007-0.024-0.009-0.036-0.013c-0.041-0.015-0.084-0.03-0.126-0.045
	c-0.012-0.004-0.024-0.009-0.037-0.013c-0.042-0.013-0.087-0.029-0.128-0.045c-0.014-0.002-0.027-0.006-0.038-0.011
	c-0.045-0.013-0.086-0.027-0.129-0.04c-0.014-0.004-0.028-0.011-0.041-0.013c-0.044-0.015-0.089-0.027-0.131-0.04
	c-0.015-0.005-0.03-0.009-0.044-0.011c-0.042-0.015-0.087-0.027-0.132-0.041c-0.014-0.004-0.029-0.006-0.044-0.012
	c-0.043-0.012-0.088-0.023-0.132-0.037c-0.017-0.004-0.031-0.008-0.047-0.01c-0.044-0.014-0.089-0.023-0.133-0.034
	c-0.017-0.005-0.032-0.009-0.049-0.013c-0.045-0.011-0.091-0.023-0.132-0.034c-0.02-0.005-0.037-0.007-0.055-0.011
	c-0.042-0.011-0.088-0.021-0.133-0.032c-0.018-0.004-0.035-0.006-0.054-0.013c-0.044-0.008-0.089-0.017-0.134-0.027
	c-0.018-0.004-0.037-0.009-0.058-0.013c-0.044-0.009-0.087-0.02-0.132-0.025c-0.021-0.005-0.039-0.009-0.06-0.013
	c-0.045-0.009-0.087-0.018-0.134-0.025c-0.02-0.002-0.041-0.007-0.062-0.011c-0.045-0.009-0.09-0.018-0.133-0.023
	c-0.021-0.005-0.044-0.007-0.066-0.013c-0.043-0.005-0.087-0.013-0.132-0.02c-0.021-0.004-0.045-0.008-0.066-0.013
	c-0.045-0.006-0.088-0.013-0.133-0.021c-0.023-0.002-0.046-0.004-0.07-0.008c-0.044-0.007-0.087-0.013-0.131-0.02
	c-0.025-0.002-0.051-0.004-0.075-0.009c-0.043-0.006-0.085-0.013-0.129-0.017c-0.026-0.004-0.053-0.007-0.077-0.011
	c-0.044-0.004-0.085-0.009-0.128-0.015c-0.026-0.002-0.054-0.005-0.081-0.009c-0.043-0.004-0.083-0.009-0.127-0.013
	c-0.028-0.004-0.057-0.007-0.084-0.009c-0.041-0.002-0.083-0.008-0.126-0.013c-0.029-0.002-0.058-0.004-0.088-0.006
	c-0.041-0.005-0.083-0.007-0.124-0.011c-0.027-0.002-0.061-0.004-0.09-0.007c-0.041-0.004-0.082-0.006-0.124-0.006
	c-0.03-0.005-0.063-0.007-0.095-0.009c-0.039-0.002-0.08-0.004-0.118-0.006c-0.033-0.003-0.066-0.003-0.101-0.007
	c-0.038-0.002-0.077-0.002-0.116-0.004c-0.035-0.003-0.068-0.005-0.102-0.005c-0.039,0-0.079-0.002-0.118-0.004
	c-0.034-0.002-0.068-0.002-0.104-0.004c-0.037,0-0.076-0.002-0.116-0.002c-0.035-0.003-0.07-0.003-0.107-0.003
	c-0.038,0-0.076,0-0.113-0.002c-0.037,0-0.073,0-0.11,0c-0.044,0-0.085,0-0.131,0c-0.073,0-0.146,0-0.22,0.002
	c-0.072,0-0.147,0-0.22,0.003c0,0,0,0-0.002,0c-0.146,0.004-0.29,0.01-0.435,0.017c-0.175,0.096-0.361,0.189-0.557,0.28
	c0.47-0.036,0.949-0.058,1.435-0.058h0.033l0,0h0.002c2.27,0,4.4,0.388,6.001,1.095c0.764,0.336,1.358,0.725,1.773,1.158
	c0.405,0.423,0.613,0.865,0.616,1.318c0.001,0.474-0.224,0.937-0.662,1.379c-0.639,0.642-1.686,1.192-3.026,1.59
	c-0.996,0.293-2.109,0.49-3.277,0.582c0.086,0.038,0.172,0.079,0.255,0.119c0.002,0.002,0.005,0.002,0.007,0.002
	c0.002-0.006,0.006-0.013,0.009-0.02c0.613-0.082,1.255-0.136,1.913-0.161c0.139-0.027,0.271-0.055,0.403-0.087
	c0.007-0.002,0.015-0.002,0.02-0.007c0.128-0.029,0.254-0.062,0.379-0.093c0.005,0,0.01-0.002,0.014-0.005
	c0.04-0.011,0.08-0.021,0.119-0.031c0.006-0.005,0.013-0.007,0.019-0.007c0.119-0.034,0.238-0.065,0.355-0.102
	c0.007-0.002,0.016-0.007,0.023-0.009c0.036-0.011,0.073-0.023,0.109-0.036c0.006,0,0.011-0.002,0.015-0.002
	c0.115-0.038,0.227-0.074,0.336-0.115c0.01-0.004,0.021-0.006,0.028-0.013c0.107-0.038,0.211-0.076,0.313-0.116
	c0.009-0.005,0.018-0.009,0.024-0.011c0.033-0.013,0.064-0.026,0.095-0.038c0.011-0.003,0.023-0.009,0.033-0.016
	c0.094-0.038,0.188-0.078,0.28-0.121c0.012-0.004,0.023-0.011,0.036-0.017c0.027-0.013,0.055-0.023,0.08-0.036
	c0.014-0.007,0.028-0.013,0.039-0.02c0.05-0.023,0.102-0.049,0.152-0.074c0.008-0.004,0.017-0.009,0.025-0.015
	c0.024-0.011,0.049-0.023,0.073-0.036c0.015-0.007,0.029-0.016,0.043-0.023c0.021-0.013,0.048-0.023,0.068-0.036
	c0.016-0.009,0.03-0.017,0.046-0.023c0.037-0.023,0.074-0.045,0.111-0.065c0.016-0.009,0.033-0.018,0.048-0.028
	c0.021-0.013,0.04-0.023,0.062-0.034c0.014-0.01,0.031-0.021,0.047-0.029c0.02-0.013,0.037-0.025,0.058-0.036
	c0.023-0.015,0.044-0.027,0.064-0.043c0.025-0.017,0.051-0.031,0.075-0.049c0.018-0.013,0.032-0.023,0.049-0.034
	c0.018-0.01,0.034-0.023,0.051-0.033c0.017-0.013,0.033-0.025,0.051-0.036c0.015-0.011,0.03-0.021,0.045-0.032
	c0.028-0.023,0.057-0.043,0.082-0.063c0.015-0.011,0.028-0.023,0.042-0.032c0.017-0.015,0.034-0.027,0.049-0.04
	c0.014-0.011,0.027-0.021,0.042-0.032c0.019-0.017,0.036-0.031,0.055-0.047c0.014-0.015,0.029-0.027,0.045-0.038
	c0.02-0.019,0.041-0.038,0.061-0.056c0.009-0.008,0.022-0.019,0.032-0.031c0.017-0.015,0.033-0.03,0.049-0.045
	c0.011-0.011,0.02-0.021,0.03-0.031c0.023-0.021,0.047-0.045,0.071-0.07c0.006-0.007,0.012-0.016,0.019-0.023
	c0.019-0.018,0.034-0.036,0.052-0.054c0.009-0.011,0.018-0.019,0.024-0.029c0.017-0.018,0.032-0.036,0.045-0.054
	c0.009-0.008,0.017-0.017,0.023-0.025c0.019-0.023,0.039-0.049,0.059-0.076c0.005-0.007,0.014-0.015,0.018-0.023
	c0.015-0.02,0.028-0.038,0.043-0.055c0.006-0.014,0.012-0.02,0.019-0.03c0.015-0.02,0.028-0.042,0.043-0.063
	c0.003-0.005,0.007-0.011,0.011-0.018c0.017-0.027,0.033-0.053,0.049-0.078c0.005-0.011,0.009-0.018,0.013-0.025
	c0.012-0.021,0.024-0.041,0.033-0.06c0.007-0.009,0.011-0.02,0.014-0.028c0.014-0.027,0.028-0.053,0.042-0.08
	c0-0.005,0.002-0.007,0.003-0.011c0.011-0.025,0.021-0.049,0.032-0.074c0.003-0.009,0.006-0.018,0.009-0.026
	c0.01-0.021,0.018-0.042,0.024-0.065c0.004-0.007,0.006-0.013,0.008-0.021c0.01-0.027,0.021-0.055,0.026-0.083
	c0.001-0.006,0.002-0.015,0.007-0.019c0.004-0.023,0.011-0.047,0.018-0.07c0-0.009,0.001-0.017,0.004-0.025
	c0.007-0.023,0.01-0.047,0.016-0.072c0-0.007,0-0.011,0.002-0.015c0.007-0.03,0.009-0.058,0.011-0.088
	c0.003-0.008,0.003-0.017,0.003-0.023c0.003-0.022,0.007-0.044,0.007-0.067c0-0.009,0.002-0.017,0.002-0.025
	c0.001-0.028,0.001-0.058,0.001-0.09c0-0.031,0-0.063-0.003-0.098C18.966,16.6,18.966,16.588,18.962,16.578z"/>
<circle fill="#FFFFFF" cx="1.654" cy="16.733" r="0.298"/>
<circle fill="#FFFFFF" cx="2.803" cy="18.341" r="0.299"/>
<circle fill="#FFFFFF" cx="3.76" cy="19.044" r="0.298"/>
<circle fill="#FFFFFF" cx="4.899" cy="19.606" r="0.297"/>
<circle fill="#FFFFFF" cx="6.212" cy="20.161" r="0.297"/>
<circle fill="#FFFFFF" cx="7.552" cy="20.392" r="0.298"/>
<circle fill="#FFFFFF" cx="9.161" cy="20.526" r="0.297"/>
<circle fill="#FFFFFF" cx="11.474" cy="20.524" r="0.298"/>
<circle fill="#FFFFFF" cx="13.08" cy="20.356" r="0.298"/>
<path fill="#FFFFFF" d="M14.145,20.069c0-0.163,0.132-0.297,0.295-0.297c0.167,0,0.301,0.134,0.301,0.297
	c0,0.166-0.134,0.3-0.301,0.3C14.276,20.369,14.145,20.235,14.145,20.069z"/>
<circle fill="#FFFFFF" cx="16.112" cy="19.563" r="0.298"/>
<circle fill="#FFFFFF" cx="17.223" cy="19.026" r="0.297"/>
<circle fill="#FFFFFF" cx="18.177" cy="18.32" r="0.297"/>
<circle fill="#FFFFFF" cx="18.969" cy="16.707" r="0.297"/>
<path fill="#E8D8D7" d="M10.447,15.245h-0.307v4.533c0,0,0.035,0.068,0.16,0.068c0.124,0,0.146-0.068,0.146-0.068V15.245z"/>
<path fill="#2E4EA1" d="M19.792,11.88C19.792,11.895,19.822,11.911,19.792,11.88L19.792,11.88z"/>
<path fill="#7AC143" d="M-1.386,13.049C-1.385,13.035-1.42,13.017-1.386,13.049L-1.386,13.049z"/>
<g>
	<path fill="#8B1F1F" d="M12.98,12.563c-0.447-0.455-1.476-0.773-2.669-0.771c-1.184,0.004-2.202,0.318-2.65,0.771H7.416v4.514
		c0.002,0.71,1.305,1.281,2.906,1.279c1.593-0.004,2.883-0.576,2.895-1.279h0.001v-4.514H12.98z"/>
	<path fill="#F9B120" d="M13.218,12.558c0.002,0.708-1.294,1.286-2.896,1.29c-1.602,0.002-2.904-0.569-2.906-1.277
		c-0.005-0.709,1.292-1.287,2.896-1.292C11.913,11.277,13.216,11.848,13.218,12.558z"/>
</g>
<g>
	<g>
		<g>
			<path fill="#F15C27" d="M3.84,15.223c-0.499-0.289-0.558,0.085-0.558,0.585l0.558,0.32V15.223z"/>
		</g>
		<g>
			<g>
				<path fill="#FFFFFF" d="M7.393,16.97L7.01,16.365c0.01-0.021,0.014-0.025,0.014-0.025l0.384-0.164c0,0-0.444-0.255-0.992-0.573
					c-0.55-0.316-0.995-0.128-0.995,0.421c0,0.04,0.005,0.078,0.009,0.116L3.84,15.223v0.236v0.112c0,0.157,0.067,0.343,0.183,0.531
					v0.919c-0.156-0.196-0.271-0.39-0.327-0.562c-0.028-0.087-0.107-0.164-0.178-0.177c-0.067-0.013-0.101,0.047-0.073,0.132
					c0.202,0.616,0.909,1.373,1.721,1.839c0.808,0.467,1.515,0.529,1.718,0.146c0.027-0.053-0.005-0.151-0.074-0.219
					c-0.07-0.066-0.147-0.079-0.176-0.028c-0.058,0.108-0.174,0.171-0.331,0.184v-0.818l0,0v-1.237l0.576,0.905
					c0.142,0.226,0.373,0.359,0.515,0.3C7.537,17.427,7.537,17.196,7.393,16.97z M5.165,17.984
					c-0.322-0.183-0.625-0.418-0.873-0.667l0.025,0.017V16.49c0.237,0.262,0.547,0.513,0.884,0.706
					c0.302,0.174,0.58,0.28,0.807,0.316v0.797l0.026,0.016C5.786,18.286,5.481,18.171,5.165,17.984z"/>
			</g>
			<g>
				<path fill="#C94B27" d="M4.401,15.548c0,0.383,0.459,0.755,1.027,1.082v-0.491L4.401,15.548z"/>
			</g>
		</g>
		<g>
			<path fill="#F15C27" d="M5.588,16.356c-0.097-0.057-0.173-0.181-0.173-0.276v-0.214c0-0.54,0.438-0.723,0.979-0.413l0.271,0.157
				c0.097,0.058,0.175,0.177,0.175,0.274c0,0.096-0.078,0.13-0.175,0.074l-0.271-0.157c-0.349-0.199-0.631-0.08-0.631,0.266v0.215
				C5.764,16.377,5.687,16.41,5.588,16.356z"/>
		</g>
	</g>
	<polygon fill="#C95228" points="3.983,15.791 4.401,15.548 5.429,16.139 5.009,16.384 	"/>
	<polygon fill="#FFFFFF" points="3.421,15.465 3.84,15.223 4.401,15.548 3.983,15.791 	"/>
	<polygon fill="#FFFFFF" points="6.988,16.417 7.407,16.175 6.826,15.842 6.003,15.536 5.811,15.738 6.425,16.126 	"/>
	<polygon fill="#FFFFFF" points="6.978,17.725 7.396,17.485 6.816,17.151 6.332,16.59 6.142,16.794 6.754,17.183 	"/>
	<polygon fill="#F15C27" points="6.419,16.095 6.841,15.848 5.971,15.494 5.837,15.718 	"/>
	<polygon fill="#F15C27" points="5.226,15.613 5.646,15.373 5.747,15.483 5.569,15.655 5.298,15.704 	"/>
	<polygon fill="#F15C27" points="3.021,15.393 3.441,15.149 3.545,15.264 3.366,15.436 3.094,15.485 	"/>
	<polygon fill="#FFFFFF" points="5.846,17.789 6.302,17.519 6.302,17.062 5.835,17.205 	"/>
	<path fill="#E8D8D7" d="M5.067,11.456H4.763v4.531c0,0,0.034,0.069,0.159,0.069s0.146-0.069,0.146-0.069V11.456z"/>
	<g>
		<g>
			<path fill="#F15C27" d="M3.421,15.465c-0.501-0.289-0.557,0.083-0.557,0.585l0.557,0.321V15.465z"/>
		</g>
		<g>
			<g>
				<path fill="#F3F3F3" d="M6.975,17.212l-0.384-0.605C6.6,16.588,6.605,16.58,6.605,16.58l0.383-0.162
					c0,0-0.443-0.257-0.993-0.571c-0.549-0.318-0.991-0.13-0.991,0.419c0,0.038,0.001,0.076,0.005,0.119l-1.588-0.919v0.236v0.112
					c0,0.159,0.066,0.341,0.184,0.531v0.916c-0.155-0.193-0.272-0.387-0.329-0.561c-0.029-0.085-0.105-0.161-0.175-0.175
					c-0.069-0.013-0.103,0.047-0.073,0.132c0.2,0.616,0.907,1.371,1.717,1.839s1.517,0.529,1.718,0.145
					c0.028-0.051-0.003-0.148-0.072-0.217c-0.068-0.068-0.147-0.079-0.176-0.027c-0.058,0.107-0.174,0.167-0.331,0.183v-0.818
					c0.002,0,0.002,0,0.002,0v-1.237l0.574,0.905c0.143,0.226,0.373,0.359,0.516,0.298C7.117,17.667,7.117,17.438,6.975,17.212z
					 M4.744,18.229c-0.318-0.186-0.622-0.421-0.873-0.67l0.026,0.015V16.73c0.239,0.262,0.546,0.513,0.888,0.708
					c0.299,0.174,0.58,0.278,0.803,0.316v0.795l0.03,0.018C5.367,18.526,5.064,18.412,4.744,18.229z"/>
			</g>
			<g>
				<path fill="#C94B27" d="M3.983,15.791c0,0.383,0.46,0.755,1.025,1.082v-0.488L3.983,15.791z"/>
			</g>
		</g>
		<g>
			<path fill="#F15C27" d="M5.169,16.596c-0.095-0.055-0.173-0.179-0.173-0.273v-0.215c0-0.538,0.44-0.725,0.979-0.415l0.274,0.159
				c0.095,0.056,0.176,0.179,0.176,0.274s-0.081,0.13-0.176,0.074l-0.274-0.159c-0.346-0.199-0.631-0.08-0.631,0.268v0.213
				C5.344,16.62,5.266,16.652,5.169,16.596z"/>
		</g>
	</g>
	<g>
		<path fill="#E8D8D7" d="M5.067,17.929c-0.102-0.063-0.205-0.134-0.305-0.208v0.273c0.1,0.072,0.203,0.141,0.305,0.204V17.929z"/>
	</g>
</g>
<g>
	<g>
		<g>
			<path fill="#F15C27" d="M14.17,16.748c-0.498,0.289-0.557,0.727-0.557,1.229l0.557-0.323V16.748z"/>
		</g>
		<g>
			<g>
				<path fill="#F2F2F2" d="M17.724,14.39l-0.382-0.161c0.009-0.032,0.013-0.043,0.013-0.043l0.385-0.605
					c0,0-0.444,0.255-0.993,0.572c-0.549,0.316-0.993,1.02-0.993,1.568c0,0.038,0.001,0.074,0.007,0.11l-1.59,0.916v0.235v0.113
					c0,0.159,0.068,0.266,0.185,0.32v0.918c-0.156-0.015-0.271-0.076-0.33-0.183c-0.027-0.053-0.106-0.04-0.175,0.028
					c-0.067,0.065-0.102,0.163-0.074,0.214c0.201,0.385,0.91,0.325,1.72-0.145c0.808-0.467,1.514-1.222,1.717-1.838
					c0.026-0.085-0.004-0.143-0.074-0.132c-0.067,0.013-0.146,0.089-0.175,0.177c-0.057,0.172-0.174,0.367-0.332,0.563v-0.822
					c0.004,0,0.004,0,0.004,0v-1.234l0.574,0.242c0.142,0.06,0.372-0.074,0.515-0.298C17.868,14.681,17.868,14.45,17.724,14.39z
					 M15.495,17.982c-0.321,0.183-0.623,0.298-0.874,0.338l0.028-0.015v-0.844c0.235-0.015,0.547-0.121,0.885-0.314
					c0.301-0.175,0.579-0.389,0.804-0.614v0.797l0.029-0.015C16.118,17.561,15.814,17.797,15.495,17.982z"/>
			</g>
			<g>
				<path fill="#C94B27" d="M14.732,16.422c0,0.385,0.46,0.225,1.027-0.103v-0.488L14.732,16.422z"/>
			</g>
		</g>
		<g>
			<path fill="#F15C27" d="M15.92,15.859c-0.096,0.056-0.174,0.023-0.174-0.072V15.57c0-0.538,0.438-1.23,0.979-1.543l0.273-0.155
				c0.097-0.057,0.174-0.023,0.174,0.072s-0.077,0.219-0.174,0.274l-0.273,0.157c-0.349,0.2-0.631,0.646-0.631,0.997v0.212
				C16.095,15.68,16.016,15.803,15.92,15.859z"/>
		</g>
	</g>
	<polygon fill="#F15C27" points="13.613,17.976 14.031,18.215 14.59,16.99 14.17,16.748 	"/>
	<polygon fill="#F2F2F2" points="15.15,16.667 14.732,16.422 14.17,16.748 14.59,16.99 	"/>
	<polygon fill="#C95228" points="15.15,16.667 14.732,16.422 15.76,15.832 16.18,16.072 	"/>
	<polygon fill="#F2F2F2" points="18.156,13.823 17.739,13.581 17.395,14.05 17.587,14.15 	"/>
	<polygon fill="#FFFFFF" points="18.169,14.65 17.75,14.408 17.405,14.877 17.597,14.975 	"/>
	<polygon fill="#F15C27" points="17.553,14.097 17.134,13.857 16.132,14.875 15.76,15.832 16.18,16.072 16.589,15.017 	"/>
	<g>
		<g>
			<path fill="#D85227" d="M14.59,16.99c-0.501,0.289-0.559,0.727-0.559,1.226l0.559-0.32V16.99z"/>
		</g>
		<g>
			<g>
				<path fill="#D9D9D9" d="M18.142,14.632l-0.381-0.163c0.008-0.03,0.014-0.043,0.014-0.043l0.382-0.604
					c0,0-0.443,0.255-0.992,0.572c-0.548,0.316-0.991,1.018-0.991,1.566c0,0.04,0.001,0.076,0.007,0.11l-1.59,0.918v0.235v0.113
					c0,0.157,0.066,0.264,0.184,0.32v0.916c-0.158-0.015-0.272-0.074-0.329-0.183c-0.029-0.051-0.107-0.04-0.176,0.028
					c-0.07,0.067-0.103,0.165-0.074,0.216c0.202,0.383,0.907,0.323,1.72-0.144c0.81-0.466,1.516-1.223,1.717-1.839
					c0.029-0.085-0.004-0.145-0.073-0.132c-0.069,0.011-0.147,0.09-0.176,0.174c-0.056,0.175-0.173,0.368-0.329,0.563v-0.818
					c0,0,0,0,0.001,0v-1.238l0.573,0.244c0.142,0.06,0.373-0.074,0.515-0.298C18.285,14.924,18.285,14.694,18.142,14.632z
					 M15.914,18.222c-0.32,0.185-0.623,0.3-0.873,0.34l0.025-0.015v-0.844c0.238-0.013,0.547-0.121,0.885-0.314
					c0.301-0.174,0.581-0.391,0.807-0.614v0.797l0.027-0.015C16.534,17.803,16.233,18.04,15.914,18.222z"/>
			</g>
			<g>
				<path fill="#C94B27" d="M15.15,16.667c0,0.383,0.46,0.223,1.029-0.104v-0.49L15.15,16.667z"/>
			</g>
		</g>
		<g>
			<path fill="#D85227" d="M16.338,16.101c-0.095,0.054-0.174,0.023-0.174-0.074v-0.213c0-0.539,0.44-1.234,0.979-1.545l0.272-0.159
				c0.097-0.056,0.174-0.021,0.174,0.076c0,0.096-0.077,0.219-0.174,0.274l-0.272,0.157c-0.348,0.2-0.631,0.646-0.631,0.995v0.212
				C16.513,15.922,16.436,16.045,16.338,16.101z"/>
		</g>
	</g>
	<path fill="#E8D8D7" d="M15.807,11.602h-0.308v4.533c0,0,0.035,0.07,0.161,0.07c0.124,0,0.146-0.07,0.146-0.07V11.602z"/>
	<g>
		<path fill="#E8D8D7" d="M15.807,17.78c-0.1,0.07-0.202,0.139-0.308,0.198v0.27c0.105-0.062,0.208-0.125,0.308-0.195V17.78z"/>
	</g>
</g>
<g>
	<g>
		<path fill="#F15C27" d="M8.693,17.333c-0.596,0-0.663,0.404-0.663,0.908h0.663V17.333z"/>
	</g>
	<g>
		<g>
			<path fill="#F3F3F3" d="M12.936,17.03l-0.457-0.385c0.011-0.025,0.016-0.036,0.016-0.036l0.458-0.382c0,0-0.53,0-1.185,0
				c-0.656,0-1.187,0.443-1.187,0.992c0,0.04,0.005,0.078,0.009,0.114H8.693v0.238v0.11c0,0.157,0.08,0.302,0.219,0.428v0.916
				c-0.185-0.106-0.323-0.232-0.393-0.372c-0.032-0.068-0.126-0.103-0.209-0.074c-0.081,0.029-0.12,0.106-0.089,0.176
				c0.243,0.495,1.086,0.847,2.053,0.847c0.966,0,1.81-0.352,2.051-0.847c0.033-0.069-0.007-0.146-0.088-0.176
				c-0.083-0.028-0.177,0.006-0.209,0.074c-0.069,0.14-0.208,0.27-0.395,0.372v-0.82l0,0V16.97l0.687,0.576
				c0.17,0.143,0.444,0.143,0.615,0C13.104,17.402,13.104,17.172,12.936,17.03z M10.274,19.333c-0.382,0-0.744-0.062-1.043-0.165
				h0.033v-0.844c0.285,0.123,0.652,0.195,1.056,0.195c0.36,0,0.691-0.056,0.961-0.149v0.798h0.034
				C11.016,19.272,10.653,19.333,10.274,19.333z"/>
		</g>
		<g>
			<path fill="#C94B27" d="M9.365,17.333c0,0.383,0.547,0.491,1.225,0.491v-0.491H9.365z"/>
		</g>
	</g>
	<g>
		<path fill="#F15C27" d="M10.781,17.455c-0.114,0-0.207-0.078-0.207-0.174v-0.213c0-0.539,0.524-0.979,1.17-0.979h0.324
			c0.113,0,0.207,0.079,0.207,0.174c0,0.096-0.094,0.175-0.207,0.175h-0.324c-0.417,0-0.756,0.282-0.756,0.631v0.213
			C10.988,17.376,10.898,17.455,10.781,17.455z"/>
	</g>
</g>
<g>
	<g>
		<g>
			<path fill="#C8B92E" d="M18.405,9.676c0-0.017,0-0.029,0.002-0.044c-0.09-0.062-2.118-0.485-3.03-1.331
				c-0.022-0.004-0.041-0.011-0.064-0.017c-0.013,0.004-0.029,0.009-0.044,0.013c0-0.013,0.001-0.025,0.001-0.036
				c-2.756,0-4.961-3.188-4.961-3.188s-0.004,0.005-0.008,0.014v10.339c0.963,0,1.893,0.408,2.771,0.525
				c0,0,0.002,0.002,0.002,0.004c0.007,0,0.011,0,0.017-0.002c0.004,0,0.007,0,0.008,0c1.105-0.54,2.521-0.954,4.119-1.19
				c0.007-1.113,0.984-2.125,2.575-2.882c0.019,0.017-0.651-0.325-1.037-0.844C18.445,10.614,18.407,10.048,18.405,9.676z"/>
			<path fill="#FEF383" d="M10.301,5.086c-0.137,0.21-2.119,3.196-4.934,3.196c0,0.011,0,0.019,0,0.027
				C5.363,8.308,5.356,8.308,5.352,8.308c-0.764,0.47-1.736,0.869-2.86,1.169c-0.078,0.049-0.156,0.1-0.229,0.15
				c0,0.002,0,0.005,0,0.009c0.003,0.842-0.55,1.628-1.504,2.289c0.065-0.005,0.129-0.005,0.199-0.005
				c1.522,0.744,2.453,1.734,2.458,2.82c0,0.036-0.002,0.068-0.003,0.103c0.002,0,0.004,0.002,0.006,0.002
				c0.021,0.011,0.043,0.019,0.066,0.029c0.03-0.031,0.062-0.063,0.095-0.095c1.566,0.237,2.947,0.652,4.022,1.188
				c0.004,0,0.005,0,0.008,0c0.003-0.006,0.005-0.011,0.01-0.017c0.849-0.113,1.747-0.523,2.678-0.525c0.001,0,0.001,0,0.003,0
				V5.086z"/>
			<g>
				<path fill="#AA4124" d="M18.407,9.632C18.426,9.645,18.387,9.617,18.407,9.632L18.407,9.632z"/>
				<path fill="#AA4124" d="M18.407,9.632C18.407,9.838,18.407,9.632,18.407,9.632L18.407,9.632z"/>
				<path fill="#AA4124" d="M13.071,15.951c0,0,0.002,0.002,0.002,0.004c0.007,0,0.011,0,0.017-0.002c0.004,0,0.007,0,0.008,0
					c1.105-0.54,2.521-0.954,4.119-1.19c0.007-1.113,0.984-2.125,2.575-2.882c0.03,0.03,0,0.015,0,0
					c-0.928-0.65-1.385-1.375-1.387-2.204c0-0.017,0-0.029,0.002-0.044c-4.47,0-8.106-5.303-8.106-5.303v11.096
					C11.264,15.425,12.193,15.833,13.071,15.951z"/>
			</g>
			<path fill="#F37434" d="M2.285,9.562c0,0.017,0,0.034,0.002,0.051V9.611C2.279,9.617,2.27,9.622,2.263,9.627
				c0,0.002,0,0.005,0,0.009c0.003,0.842-0.55,1.628-1.504,2.289c0.065-0.005,0.129-0.005,0.199-0.005
				c1.522,0.744,2.453,1.734,2.458,2.82c0,0.036-0.002,0.068-0.003,0.103c0.002,0,0.004,0.002,0.006,0.002
				c0.021,0.011,0.043,0.019,0.066,0.029c0.03-0.031,0.062-0.063,0.095-0.095c1.566,0.237,2.947,0.652,4.022,1.188
				c0.004,0,0.005,0,0.008,0c0.003-0.006,0.005-0.011,0.01-0.017c0.849-0.113,1.747-0.523,2.678-0.525c0.001,0,0.001,0,0.003,0V4.33
				C10.301,4.33,7.018,9.562,2.285,9.562z M2.29,9.67c0.011,0.119,0.04,0.242,0.085,0.363C2.33,9.927,2.301,9.806,2.29,9.67z"/>
			<path fill="#FEF383" d="M10.37,4.449C10.324,4.37,10.301,4.33,10.301,4.33s-3.817,7.408-9.343,7.591
				c1.522,0.744,2.453,1.734,2.458,2.82c0,0.036-0.002,0.068-0.003,0.103c0.024,0.011,0.048,0.021,0.072,0.031
				c0.03-0.031,0.062-0.063,0.095-0.095c1.566,0.237,2.947,0.652,4.022,1.188c0.004,0,0.005,0,0.008,0
				c0.003-0.006,0.005-0.011,0.01-0.017c0.849-0.113,1.747-0.523,2.678-0.525c0.024,0,0.047,0.002,0.072,0.002V4.449z"/>
			<path fill="#C8B92E" d="M10.37,4.449v10.979c0.938,0,1.844,0.408,2.701,0.523c0,0,0.002,0.002,0.002,0.004
				c0.007,0,0.011,0,0.017-0.002c0.004,0,0.007,0,0.008,0c1.105-0.54,2.521-0.954,4.119-1.19c0.007-1.113,0.984-2.125,2.575-2.882
				C14.903,11.806,10.932,5.398,10.37,4.449z"/>
			<path fill="#C44927" d="M10.301,4.33c0,0-0.022,0.058-0.069,0.165v10.933c0.021,0,0.045-0.002,0.066-0.002
				c0.964-0.002,1.896,0.408,2.773,0.525c0,0,0.002,0.002,0.002,0.004c0.007,0,0.016-0.002,0.024-0.002
				c1.116-0.544,2.545-0.963,4.161-1.194C13.08,10.637,10.301,4.33,10.301,4.33z"/>
			<path fill="#F26122" d="M10.288,4.359c-0.193,0.462-2.883,6.504-6.869,10.486c1.566,0.238,3.108,0.587,4.184,1.122
				c0.004,0,0.005,0,0.008,0c0.003-0.006,0.005-0.011,0.01-0.017c0.846-0.113,1.742-0.523,2.668-0.523V4.359z"/>
			<path fill="#FAE605" d="M10.298,15.774c0.964,0,1.896,0.06,2.773,0.177C11.844,12.018,10.301,4.33,10.301,4.33
				S8.854,11.946,7.62,15.951C8.469,15.837,9.367,15.776,10.298,15.774z"/>
		</g>
		<g>
			<path fill="#C44927" d="M13.92,2.041c0,0-0.344,0.345-0.932,0.345c-0.672,0-0.609-0.604-1.424-0.681
				c-0.563-0.056-1.154,0.191-1.154,0.191v0.721v0.087l-0.04,0.074c0,0,0.407-0.226,1.152-0.226c0.681,0,0.739,0.307,1.454,0.289
				C13.692,2.823,13.92,2.041,13.92,2.041z"/>
			<linearGradient id="SVGID_1_" gradientUnits="userSpaceOnUse" x1="10.2056" y1="3.019" x2="10.4358" y2="3.019">
				<stop  offset="0.0033" style="stop-color:#F3F3F3"/>
				<stop  offset="0.5508" style="stop-color:#E3E3E3"/>
				<stop  offset="0.8358" style="stop-color:#D9D9D9"/>
			</linearGradient>
			<path fill="url(#SVGID_1_)" d="M10.435,4.516c0,0-0.036,0.034-0.115,0.034c-0.082,0-0.117-0.034-0.117-0.034V1.488h0.232V4.516z"
				/>
			<g>
				<g>
					<path fill="#FAE605" d="M10.136,1.499c0-0.102,0.083-0.183,0.184-0.183c0.1,0,0.182,0.081,0.182,0.183
						c0,0.098-0.082,0.181-0.182,0.181C10.219,1.679,10.136,1.596,10.136,1.499z"/>
				</g>
			</g>
		</g>
	</g>
	<g>
		<circle fill="#FFFFFF" cx="0.822" cy="11.833" r="0.298"/>
		<circle fill="#FFFFFF" cx="2.26" cy="9.581" r="0.298"/>
		<circle fill="#FFFFFF" cx="5.365" cy="8.283" r="0.298"/>
		<circle fill="#FFFFFF" cx="3.484" cy="14.875" r="0.298"/>
		<circle fill="#FFFFFF" cx="7.61" cy="15.958" r="0.298"/>
		<circle fill="#FFFFFF" cx="13.099" cy="15.953" r="0.298"/>
		<circle fill="#FFFFFF" cx="17.14" cy="14.771" r="0.298"/>
		<circle fill="#FFFFFF" cx="19.793" cy="11.88" r="0.297"/>
		<circle fill="#FFFFFF" cx="18.356" cy="9.676" r="0.298"/>
		<circle fill="#FFFFFF" cx="15.376" cy="8.301" r="0.298"/>
	</g>
</g>
</svg>
