<?xml version="1.0" encoding="utf-8"?><svg id="BeeTrySvg" image-rendering="auto" baseProfile="basic" version="1.1" x="0px" y="0px" width="500" height="500" xmlns="http://www.w3.org/2000/svg" xmlns:xlink="http://www.w3.org/1999/xlink"><defs><g id="Symbol-2f0" overflow="visible"><g><path fill="#BCBEC0" stroke="none" d="M315.1 139.6Q313 138.9 304.5 143.8 298.25 147.4 290 153.1 284.85 156.75 282.45 161L281.05 164.5 285.75 168Q290.7 171.35 291.65 170.7 292.45 170.25 298.7 166.65 304.9 162.85 306.8 160.75 311.35 155.8 312.65 152.1 314.45 148.1 315.4 145.4 317.1 140.3 315.1 139.6Z"/><path stroke="#231F20" stroke-width="1.7" stroke-linejoin="miter" stroke-linecap="butt" stroke-miterlimit="10" fill="none" d="M165.35 156.85Q169.6 153.7 171.25 152.9 175.7 150.75 179.95 151.5 184.95 152.35 190.05 154.8 195.15 157.3 196.85 159.7 198.3 161.75 198.75 163.6 198.95 164.55 198.9 165.1 198.95 168.3 198.7 169.45 198.5 170.25 198.1 171.35M205.8 173.15Q206 172.5 206.2 172 206.65 171 208.65 168.45L209.7 167.4Q211.25 166.15 213.6 165.45 216.45 164.55 222 165.7 227.45 166.85 232 169.25 235.8 171.25 237.35 174.7 238 176.15 238.65 178.75M166.45 180.5Q163.8 178.05 162 174.35 160 170.1 161.15 164.45 162.2 159.1 164.95 157.1 165.15 156.95 165.35 156.85M198.1 171.35Q197.35 173.1 195.95 175.6 192.95 180.95 189.45 183.35 184.85 186.6 178.6 185.65 172.05 184.7 167.9 181.7 167.15 181.15 166.45 180.5M225.4 199.15Q224.2 199.35 223.1 199.3 219.1 199.15 213.25 195.9 207.55 192.7 205.5 188.05 203.8 184.05 204.6 178.55 205.15 175.1 205.8 173.15M225.4 199.15Q228.1 198.7 231.25 197.1 235.35 195 237.8 189.4 240.1 184.15 239.15 180.85 238.9 179.7 238.65 178.75"/></g><g><path fill="#BCBEC0" stroke="none" d="M331 171.25Q337.55 165.1 338.85 157.7 339.9 151.95 338.15 150.35 337.3 149.55 327.1 152.85 314.2 157.25 308.5 159.1 301.2 161.5 294.65 166.3 291.7 168.45 287.4 172.5 285.8 174 284.15 175.8L282.85 177.3 281.5 185.75 286.6 183.9Q292.7 181.9 297.7 181.05 301.7 180.4 313.55 179.25 324.7 177.25 331 171.25Z"/><path stroke="#231F20" stroke-width="1.2" stroke-linejoin="round" stroke-linecap="butt" fill="none" d="M167.55 161.65L167.05 161.65Q167.45 161.1 168.2 160.35 169.7 158.85 171.4 157.75 175.1 155.45 179 155.55 181 155.6 183.05 156.3M189.9 166.55Q189.8 166.5 189.7 166.45 183.8 163.45 178.05 162.25 177.25 162.1 176.5 161.95L176.45 161.95Q173.35 161.45 170.2 161.5L167.55 161.65M190.1 160Q192.5 161.95 193.65 164.45 194.85 167.15 194.4 169.25 192.65 168.05 189.9 166.55M217.35 170.05Q216.3 170.4 215.25 170.95 213.65 171.75 212.4 172.95L211.55 173.95 211.45 174 211.5 174 215.45 174.4 216.5 174.5Q220.45 175.15 224.05 176.45 224.6 176.65 225.15 176.9 226.55 177.45 227.9 178.1 229.15 178.7 230.2 179.3 233.35 180.9 234.5 181.9 234.7 182.05 234.85 182.2 235.15 180.1 234.25 177.55 232.5 172.45 226.45 170.4 221.5 168.75 217.35 170.05Z"/></g><g><path fill="#231F20" stroke="none" d="M211.35 174L216.4 174.5Q222.5 175.5 227.8 178.1 233.5 180.9 234.75 182.2 235.05 180.1 234.15 177.55 232.4 172.45 226.35 170.4 220.15 168.3 215.15 170.95 213.55 171.75 212.3 172.95L211.35 174Z"/></g><g><path fill="#231F20" stroke="none" d="M193.6 164.45Q191.2 159.1 183 156.3 176.95 154.25 171.35 157.75 169.65 158.85 168.15 160.35 167.4 161.1 167 161.65L170.15 161.5Q174.1 161.45 178 162.25 183.75 163.45 189.65 166.45 192.55 168 194.35 169.25 194.8 167.15 193.6 164.45Z"/></g></g><g id="Symbol 2_1.1" overflow="visible"><g><path fill="#231F20" stroke="none" d="M189.65 166.5Q192.55 168.05 194.35 169.3 194.8 167.2 193.6 164.5 191.2 159.15 183 156.35 176.95 154.3 171.35 157.8 169.65 158.9 168.15 160.4 167.4 161.15 167 161.7L170.15 161.55Q174.1 161.5 178 162.3 183.75 163.5 189.65 166.5Z"/></g></g><g id="Symbol 2_2.1" overflow="visible"><g><path fill="#231F20" stroke="none" d="M226.4 170.45Q220.2 168.35 215.2 171 213.6 171.8 212.35 173L211.4 174.05 216.45 174.55Q222.55 175.55 227.85 178.15 233.55 180.95 234.8 182.25 235.1 180.15 234.2 177.6 232.45 172.5 226.4 170.45Z"/></g></g><g id="Symbol 2_3.1" overflow="visible"><g><path fill="#BCBEC0" stroke="none" d="M332.7 178.55Q333.1 176.15 325.25 171.9 316 168.2 309.3 166.8 301.8 165.75 296.7 168.3 293.35 169.5 288.95 172.45 285.85 174.1 282.85 177.35L281.5 185.8 286.6 183.95Q292.6 182.25 296.85 182.8 300.6 183.4 309.85 186.9 318.75 190 323.85 188.45 329.1 186.8 330.95 183.65 332.7 181.3 332.7 178.55Z"/><path stroke="#231F20" stroke-width="1.2" stroke-linejoin="round" stroke-linecap="butt" fill="none" d="M167.55 161.7L167.05 161.7Q167.45 161.15 168.2 160.4 169.7 158.9 171.4 157.8 175.1 155.5 179 155.6 181 155.65 183.05 156.35M189.9 166.6Q189.8 166.55 189.7 166.5 183.8 163.5 178.05 162.3 177.25 162.15 176.5 162L176.45 162Q173.35 161.5 170.2 161.55L167.55 161.7M190.1 160.05Q192.5 162 193.65 164.5 194.85 167.2 194.4 169.3 192.65 168.1 189.9 166.6M217.35 170.1Q216.3 170.45 215.25 171 213.65 171.8 212.4 173L211.55 174 211.45 174.05 211.5 174.05 215.45 174.45 216.5 174.55Q220.45 175.2 224.05 176.5 224.6 176.7 225.15 176.95 226.55 177.5 227.9 178.15 229.15 178.75 230.2 179.35 233.35 180.95 234.5 181.95 234.7 182.1 234.85 182.25 235.15 180.15 234.25 177.6 232.5 172.5 226.45 170.45 221.5 168.8 217.35 170.1Z"/></g></g><g id="Symbol 2_4.1" overflow="visible"><g><path fill="#BCBEC0" stroke="none" d="M283.2 161.8Q282.15 163.1 281.1 164.5L286.05 168.15Q289.95 170.75 292.15 170.55 293.05 169.95 295.3 169.15 296.75 168.65 298.5 168.15 299.35 167.9 300.2 167.75 303.5 166.35 306.1 167.3 308 166.85 309.7 166.85 311.35 166.85 312.3 166.4 314.55 165.85 315.2 161.35 316 157.3 314.55 155.7 313.3 154.05 310.15 153.95 308.3 153.45 306.05 153.5 303.6 153.25 300.95 153.7 296.7 154.25 291.05 156.4 286.45 158.45 283.2 161.8Z"/><path stroke="#231F20" stroke-width="1.2" stroke-linejoin="miter" stroke-linecap="butt" stroke-miterlimit="10" fill="none" d="M183.05 156.35Q183.15 156.4 183.2 156.4 187.45 157.9 190.1 160.05 192.3 161.75 193.45 163.8 195.85 168.2 192.95 173.3 187 183.9 176.65 181.3 170.75 179.8 167.5 174.75 164.1 169.45 166.3 164 166.8 162.75 167.55 161.7M179 155.6Q180.8 155.55 182.35 156.1 182.7 156.2 183.05 156.35M176.45 162Q175.95 162.4 175.45 162.9 172.7 165.6 172.95 170.05 173.2 174.65 176.6 176.7 178.7 178 181.05 178 184.3 178.1 186.75 176.6 189.5 174.95 190.4 171.8 191.2 169.15 189.9 166.6M217.35 170.1Q215.8 170.4 214.55 171.05 212.7 172.05 211.55 174M215.45 174.45Q215.35 174.55 215.25 174.65 212.55 177.3 213.15 181.75 213.8 186.3 217.2 188.3 219.3 189.5 221.65 189.5 228.5 189.65 230.3 183.55 230.95 181.4 230.2 179.35M234.5 181.95Q234.6 184.15 233.95 186.55 232.35 192.2 227.7 193.8 223.35 195.3 217.65 192.95 213.2 191.15 211.1 186.65 209.25 182.85 209.8 179.2 210.25 176.1 211.5 174.05"/></g></g><g id="Symbol 2_0.2" overflow="visible"><g><path fill="#231F20" stroke="none" d="M218.4 220.7Q218.7 221.1 219.05 221.45 219.3 221.75 219.6 222.05 219 221.35 218.4 220.7M291.25 248.85Q291.15 248.65 291.05 248.5 288.15 249.6 285.3 250.3 288.3 249.85 291.25 248.85M319.2 203.7Q319.25 204 319.35 204.25 318.3 196.6 313.45 188.75 317.35 195.75 319.2 203.7M320.05 215.65Q319.95 216.45 319.8 217.3 319.25 220.7 316.65 228.3 314.75 233.9 305 240.8 298 245.8 291.05 248.5 291.15 248.65 291.25 248.85 293.85 248 296.45 246.7 301.65 244.15 310.7 236.55 313.8 233.95 319.75 231.15 322.75 229.75 325.1 228.85 324 227.7 322.85 226.2 320.6 223.15 320.5 221.45 320.25 219.45 320.05 215.65M301.5 175.1Q294.2 169.2 284.65 165.7 293.2 169.75 301.05 174.8 301.25 174.95 301.5 175.1M298.05 184.6Q292.45 176.75 283.85 172 283.4 175 281.95 185 280.05 195.4 276.65 205.45 272.5 217.55 266.95 228.9 264.05 234.9 260.2 242.1 265.8 244.2 269.15 245.05 271.2 245.6 275.25 244.3 279.9 242.8 284.55 239.65 296.95 231.15 302.15 215.95 308.05 198.55 298.05 184.6M219.2 180.95Q219.95 181.2 220.3 181.9 220.65 182.6 220.4 183.4 220.15 184.15 219.4 184.5 218.95 184.75 218.5 184.7 218.95 185.45 219.65 185.95 219.75 186 221.35 186.5 223.3 187.2 225.45 186.15 226.3 185.75 226.85 184.9 227.25 184.3 227.7 183.05 227.95 182.2 227.75 180.6 227.45 178.05 225.15 176.95 224.6 176.7 224.05 176.5 222.1 175.95 220.35 176.7 218.45 177.6 217.75 179.65 217.5 180.4 217.5 181.2 217.6 181.1 217.75 181.05 218.45 180.7 219.2 180.95M217.35 170.1Q216.3 170.45 215.25 171 213.65 171.8 212.4 173L211.55 174 211.45 174.05 211.5 174.05 215.45 174.45 216.5 174.55Q220.45 175.2 224.05 176.5 224.6 176.7 225.15 176.95 226.55 177.5 227.9 178.15 229.15 178.75 230.2 179.35 233.35 180.95 234.5 181.95 234.7 182.1 234.85 182.25 235.15 180.15 234.25 177.6 232.5 172.5 226.45 170.45 221.5 168.8 217.35 170.1M241.3 167.75L241 168.2Q240.7 173.35 238.65 178.8 238.9 179.75 239.15 180.9 240.1 184.2 237.8 189.45 235.35 195.05 231.25 197.15 228.1 198.75 225.4 199.2 219.1 205.85 211.55 210L213.35 213.75Q213.6 214.2 213.95 214.7 214 214.85 214.1 215 214.3 215.3 214.5 215.6L218.4 220.7Q219 221.35 219.6 222.05L221.3 223.8Q226.2 228.75 234.3 233.85 234.45 232.8 234.5 231.65L234.5 225.95 234.5 231.65Q234.45 232.8 234.3 233.85 237.15 235.6 240.4 237.4 248.35 241.75 256.6 245L256.6 244.95 241.25 237.85Q243.75 235.65 247.3 230.3 254.4 219.65 259.75 203.85 265.15 188.1 265.4 173.3 265.45 168.65 265 164.65L264.55 161.6 269.55 162.15Q274.45 162.75 276.1 163.1 263.15 160.1 252 162.95 247.6 164.1 244 166.05L241.3 167.75M188.3 171.45Q188.65 170.4 188.55 169.1 188.35 167.55 187.4 166.35 186.45 165.15 184.95 164.65 182.85 163.9 180.7 164.85 178.55 165.85 177.85 167.95 177.65 168.55 177.6 169.15 177.65 169.1 177.75 169.05 178.65 168.55 179.65 168.9 180.65 169.25 181.1 170.2 181.55 171.15 181.2 172.1 180.85 173.1 179.95 173.6 179.6 173.75 179.3 173.85 179.5 174 179.75 174.2 180.2 174.55 181.45 174.8 184.35 175.75 185.75 175.05 187.3 174.3 188.3 171.45M190.1 160.05Q187.45 157.9 183.2 156.4 183.15 156.4 183.05 156.35 181 155.65 179 155.6 175.1 155.5 171.4 157.8 169.7 158.9 168.2 160.4 167.45 161.15 167.05 161.7L167.55 161.7 170.2 161.55Q173.35 161.5 176.45 162L176.5 162Q177.25 162.15 178.05 162.3 183.8 163.5 189.7 166.5 189.8 166.55 189.9 166.6 192.65 168.1 194.4 169.3 194.85 167.2 193.65 164.5 192.5 162 190.1 160.05M225.95 147.3Q222.5 145.4 219.25 143.9 215.85 142.25 212.6 141 206.55 138.45 201.65 137.15L199.15 136.6 197.95 136.35 201.1 139.6Q204.4 143.45 205.4 146.3 205.8 147.45 207.4 152.3 208.2 154.95 208.6 155.1 208.95 155.2 214.75 152.6 221.4 149.55 222.5 149.15L226.7 147.75Q226.516 147.603 226.3 147.45L225.95 147.3M328.45 217.6L328.45 221.25 329.2 221.25 329.2 218.15 329.85 221.25 330.6 221.25 331.3 218.15 331.3 221.25 332 221.25 332 217.6 330.9 217.6 330.25 220.45 329.6 217.6 328.45 217.6M326.95 218.2L328.05 218.2 328.05 217.6 325.1 217.6 325.1 218.2 326.2 218.2 326.2 221.25 326.95 221.25 326.95 218.2Z"/><path fill="#FDDD00" stroke="none" d="M278.05 163.6L276.45 163.2Q276.35 163.15 276.3 163.15L276.1 163.1Q274.45 162.75 269.55 162.15L264.55 161.6 265 164.65Q265.45 168.65 265.4 173.3 265.15 188.1 259.75 203.85 254.4 219.65 247.3 230.3 243.75 235.65 241.25 237.85L256.6 244.95 256.6 245 256.55 245.1 266 248.9Q269.6 250 272.9 250.55 279.75 251.7 285.3 250.3 288.15 249.6 291.05 248.5 290.6 247.7 290 247.05L287.3 245.1 290 247.05Q290.6 247.7 291.05 248.5 298 245.8 305 240.8 314.75 233.9 316.65 228.3 319.25 220.7 319.8 217.3 319.95 216.45 320.05 215.65 320.6 210.2 319.35 204.25 319.25 204 319.2 203.7 317.35 195.75 313.45 188.75 313.1 188.1 312.7 187.45 307.85 179.3 301.5 175.1 301.25 174.95 301.05 174.8 293.2 169.75 284.65 165.7 284.6 165.65 284.5 165.6L283.8 165.3Q282.15 164.6 278.05 163.6M283.85 172Q292.45 176.75 298.05 184.6 308.05 198.55 302.15 215.95 296.95 231.15 284.55 239.65 279.9 242.8 275.25 244.3 271.2 245.6 269.15 245.05 265.8 244.2 260.2 242.1 264.05 234.9 266.95 228.9 272.5 217.55 276.65 205.45 280.05 195.4 281.95 185 283.4 175 283.85 172M208.65 168.5Q206.65 171.05 206.2 172.05 206 172.55 205.8 173.2 205.15 175.15 204.6 178.6 203.8 184.1 205.5 188.1 207.55 192.75 213.25 195.95 219.1 199.2 223.1 199.35 224.2 199.4 225.4 199.2 228.1 198.75 231.25 197.15 235.35 195.05 237.8 189.45 240.1 184.2 239.15 180.9 238.9 179.75 238.65 178.8 238 176.2 237.35 174.75 235.8 171.3 232 169.3 227.45 166.9 222 165.75 216.45 164.6 213.6 165.5 211.25 166.2 209.7 167.45L208.65 168.5M214.55 171.05Q215.8 170.4 217.35 170.1 221.5 168.8 226.45 170.45 232.5 172.5 234.25 177.6 235.15 180.15 234.85 182.25 234.7 182.1 234.5 181.95 234.6 184.15 233.95 186.55 232.35 192.2 227.7 193.8 223.35 195.3 217.65 192.95 213.2 191.15 211.1 186.65 209.25 182.85 209.8 179.2 210.25 176.1 211.5 174.05L211.45 174.05 211.55 174Q212.7 172.05 214.55 171.05M199.35 171.5L198.1 171.4Q197.35 173.15 195.95 175.65 192.95 181 189.45 183.4 184.85 186.65 178.6 185.7 172.05 184.75 167.9 181.75 167.15 181.2 166.45 180.55 167.35 183.95 168.65 187.3 174.05 200.9 178.1 206.25 182.6 212.2 189.9 214.3 198.1 216.7 209.65 210.95 210.6 210.5 211.55 210 219.1 205.85 225.4 199.2 224.2 199.4 223.1 199.35 219.1 199.2 213.25 195.95 207.55 192.75 205.5 188.1 203.8 184.1 204.6 178.6 205.15 175.15 205.8 173.2 204.2 172.45 202.15 171.95 200.9 171.65 199.35 171.5M205.35 205.25Q209.7 203.65 210.6 202.4 209.7 203.65 205.35 205.25 200.9 206.9 198.55 206.7 196.55 206.55 195.65 205.45L195.1 204.4 195.65 205.45Q196.55 206.55 198.55 206.7 200.9 206.9 205.35 205.25M198.7 169.5Q198.95 168.35 198.9 165.15 198.95 164.6 198.75 163.65 198.3 161.8 196.85 159.75 195.15 157.35 190.05 154.85 184.95 152.4 179.95 151.55 175.7 150.8 171.25 152.95 169.6 153.75 165.35 156.9 165.15 157 164.95 157.15 162.2 159.15 161.15 164.5 160 170.15 162 174.4 163.8 178.1 166.45 180.55 167.15 181.2 167.9 181.75 172.05 184.75 178.6 185.7 184.85 186.65 189.45 183.4 192.95 181 195.95 175.65 197.35 173.15 198.1 171.4 198.5 170.3 198.7 169.5M183.2 156.4Q187.45 157.9 190.1 160.05 192.3 161.75 193.45 163.8 195.85 168.2 192.95 173.3 187 183.9 176.65 181.3 170.75 179.8 167.5 174.75 164.1 169.45 166.3 164 166.8 162.75 167.55 161.7L167.05 161.7Q167.45 161.15 168.2 160.4 169.7 158.9 171.4 157.8 175.1 155.5 179 155.6 180.8 155.55 182.35 156.1 182.7 156.2 183.05 156.35 183.15 156.4 183.2 156.4M226.6 147.65Q226.443 147.556 226.3 147.45 226.516 147.603 226.7 147.75L222.5 149.15Q221.4 149.55 214.75 152.6 208.95 155.2 208.6 155.1 208.2 154.95 207.4 152.3 205.8 147.45 205.4 146.3 204.4 143.45 201.1 139.6L197.95 136.35 199.15 136.6Q194.8 135.55 191 135.15 183.65 134.4 179.35 136.3 179.45 136.45 179.55 136.65 179.45 136.45 179.35 136.3 178.75 136.55 178.2 136.85 174.4 139.1 170.65 144.1 167.3 148.5 166.55 151.3 165.8 153.95 165.35 156.9 169.6 153.75 171.25 152.95 175.7 150.8 179.95 151.55 184.95 152.4 190.05 154.85 195.15 157.35 196.85 159.75 198.3 161.8 198.75 163.65 198.95 164.6 198.9 165.15 198.95 168.35 198.7 169.5 198.5 170.3 198.1 171.4L199.35 171.5Q200.9 171.65 202.15 171.95 204.2 172.45 205.8 173.2 206 172.55 206.2 172.05 206.65 171.05 208.65 168.5L209.7 167.45Q211.25 166.2 213.6 165.5 216.45 164.6 222 165.75 227.45 166.9 232 169.3 235.8 171.3 237.35 174.75 238 176.2 238.65 178.8 240.7 173.35 241 168.2 241.5 159.7 237.6 155.35 235.5 153 230.35 149.85 228.65 148.8 226.6 147.65M190.2 145.9Q191.85 146.2 192.5 146.6 191.85 146.2 190.2 145.9 186.9 145.3 181.85 145.95 176.8 146.65 173.5 148.75L171.15 150.7 173.5 148.75Q176.8 146.65 181.85 145.95 186.9 145.3 190.2 145.9M233.85 167.3Q234.7 168.85 235 169.9 234.7 168.85 233.85 167.3 232.1 164.2 229.2 161.85 226.3 159.5 224.1 159.1L222.5 159.2 224.1 159.1Q226.3 159.5 229.2 161.85 232.1 164.2 233.85 167.3Z"/><path fill="#FFF" stroke="none" d="M215.25 174.65Q215.35 174.55 215.45 174.45L211.5 174.05Q210.25 176.1 209.8 179.2 209.25 182.85 211.1 186.65 213.2 191.15 217.65 192.95 223.35 195.3 227.7 193.8 232.35 192.2 233.95 186.55 234.6 184.15 234.5 181.95 233.35 180.95 230.2 179.35 230.95 181.4 230.3 183.55 228.5 189.65 221.65 189.5 219.3 189.5 217.2 188.3 213.8 186.3 213.15 181.75 212.55 177.3 215.25 174.65M215.25 171Q216.3 170.45 217.35 170.1 215.8 170.4 214.55 171.05 212.7 172.05 211.55 174L212.4 173Q213.65 171.8 215.25 171M189.9 166.6Q191.2 169.15 190.4 171.8 189.5 174.95 186.75 176.6 184.3 178.1 181.05 178 178.7 178 176.6 176.7 173.2 174.65 172.95 170.05 172.7 165.6 175.45 162.9 175.95 162.4 176.45 162 173.35 161.5 170.2 161.55L167.55 161.7Q166.8 162.75 166.3 164 164.1 169.45 167.5 174.75 170.75 179.8 176.65 181.3 187 183.9 192.95 173.3 195.85 168.2 193.45 163.8 192.3 161.75 190.1 160.05 192.5 162 193.65 164.5 194.85 167.2 194.4 169.3 192.65 168.1 189.9 166.6M183.05 156.35Q182.7 156.2 182.35 156.1 180.8 155.55 179 155.6 181 155.65 183.05 156.35Z"/><path fill="#BCBEC0" stroke="none" d="M216.5 174.55L215.45 174.45Q215.35 174.55 215.25 174.65 212.55 177.3 213.15 181.75 213.8 186.3 217.2 188.3 219.3 189.5 221.65 189.5 228.5 189.65 230.3 183.55 230.95 181.4 230.2 179.35 229.15 178.75 227.9 178.15 226.55 177.5 225.15 176.95 227.45 178.05 227.75 180.6 227.95 182.2 227.7 183.05 227.25 184.3 226.85 184.9 226.3 185.75 225.45 186.15 223.3 187.2 221.35 186.5 219.75 186 219.65 185.95 218.95 185.45 218.5 184.7 218.95 184.75 219.4 184.5 220.15 184.15 220.4 183.4 220.65 182.6 220.3 181.9 219.95 181.2 219.2 180.95 218.45 180.7 217.75 181.05 217.6 181.1 217.5 181.2 217.5 180.4 217.75 179.65 218.45 177.6 220.35 176.7 222.1 175.95 224.05 176.5 220.45 175.2 216.5 174.55M190.4 171.8Q191.2 169.15 189.9 166.6 189.8 166.55 189.7 166.5 183.8 163.5 178.05 162.3 177.25 162.15 176.5 162L176.45 162Q175.95 162.4 175.45 162.9 172.7 165.6 172.95 170.05 173.2 174.65 176.6 176.7 178.7 178 181.05 178 184.3 178.1 186.75 176.6 189.5 174.95 190.4 171.8M188.55 169.1Q188.65 170.4 188.3 171.45 187.3 174.3 185.75 175.05 184.35 175.75 181.45 174.8 180.2 174.55 179.75 174.2 179.5 174 179.3 173.85 179.6 173.75 179.95 173.6 180.85 173.1 181.2 172.1 181.55 171.15 181.1 170.2 180.65 169.25 179.65 168.9 178.65 168.55 177.75 169.05 177.65 169.1 177.6 169.15 177.65 168.55 177.85 167.95 178.55 165.85 180.7 164.85 182.85 163.9 184.95 164.65 186.45 165.15 187.4 166.35 188.35 167.55 188.55 169.1Z"/><path stroke="#231F20" stroke-width="2.29" stroke-linejoin="miter" stroke-linecap="round" stroke-miterlimit="10" fill="none" d="M226.3 147.475L225.95 147.3Q222.5 145.4 219.25 143.9 215.85 142.25 212.6 141 206.55 138.45 201.65 137.15L199.15 136.6 197.95 136.35 201.1 139.6Q204.4 143.45 205.4 146.3 205.8 147.45 207.4 152.3 208.2 154.95 208.6 155.1 208.95 155.2 214.75 152.6 221.4 149.55 222.5 149.15L226.7 147.75Q226.516 147.603 226.3 147.475 226.443 147.556 226.6 147.65 228.65 148.8 230.35 149.85L234.65 149.1Q239.5 147.75 241.6 144.6 243.1 142.45 245.65 137 247.4 133.3 250.95 129.8 252.05 128.7 253.3 127.65L250.8 123.05M179.35 136.3Q177.75 132.95 178.4 128.7 178.8 126.1 181.1 119.85 182.7 115.5 182.2 110.55 181.9 107.8 180.8 105L175.85 107M173.65 101.1L177.6 99 174.3 94.75M180.8 105Q179.7 102.25 177.9 99.4L177.6 99 182.25 96.5M179.35 136.3Q178.75 136.55 178.2 136.85 174.4 139.1 170.65 144.1 167.3 148.5 166.55 151.3 165.8 153.95 165.35 156.9M198.1 171.4L199.35 171.5Q200.9 171.65 202.15 171.95 204.2 172.45 205.8 173.2M238.65 178.8Q240.7 173.35 241 168.2 241.5 159.7 237.6 155.35 235.5 153 230.35 149.85M179.55 136.65Q179.45 136.45 179.35 136.3 183.65 134.4 191 135.15 194.8 135.55 199.15 136.6M171.15 150.7L173.5 148.75Q176.8 146.65 181.85 145.95 186.9 145.3 190.2 145.9 191.85 146.2 192.5 146.6M180.8 105L184.9 103.3M166.45 180.55Q167.35 183.95 168.65 187.3 174.05 200.9 178.1 206.25 182.6 212.2 189.9 214.3 198.1 216.7 209.65 210.95 210.6 210.5 211.55 210 219.1 205.85 225.4 199.2M222.5 159.2L224.1 159.1Q226.3 159.5 229.2 161.85 232.1 164.2 233.85 167.3 234.7 168.85 235 169.9M241 168.2L241.3 167.75 244 166.05Q247.6 164.1 252 162.95 263.15 160.1 276.1 163.1L276.3 163.15Q276.35 163.15 276.45 163.2L278.05 163.6Q282.15 164.6 283.8 165.3L284.5 165.6Q284.6 165.65 284.65 165.7 294.2 169.2 301.5 175.1 307.85 179.3 312.7 187.45 313.1 188.1 313.45 188.75 318.3 196.6 319.35 204.25 320.6 210.2 320.05 215.65 320.25 219.45 320.5 221.45 320.6 223.15 322.85 226.2 324 227.7 325.1 228.85 322.75 229.75 319.75 231.15 313.8 233.95 310.7 236.55 301.65 244.15 296.45 246.7 293.85 248 291.25 248.85 292.4 251.35 291.95 254.7 291.25 259.45 286.65 266 284.35 269.3 282.2 271.6M256.7 119.15L258.55 123.6Q259.3 123.05 260.05 122.55 262.7 120.85 264.5 119.9M255.5 131.65L253.3 127.65Q255.7 125.55 258.55 123.6L260.45 128.15M276.1 163.1Q274.45 162.75 269.55 162.15L264.55 161.6 265 164.65Q265.45 168.65 265.4 173.3 265.15 188.1 259.75 203.85 254.4 219.65 247.3 230.3 243.75 235.65 241.25 237.85L256.6 244.95 256.6 245 256.55 245.1 266 248.9Q269.6 250 272.9 250.55 279.75 251.7 285.3 250.3 288.15 249.6 291.05 248.5 290.6 247.7 290 247.05L287.3 245.1M301.5 175.1Q301.25 174.95 301.05 174.8 293.2 169.75 284.65 165.7M269.15 245.05Q265.8 244.2 260.2 242.1 264.05 234.9 266.95 228.9 272.5 217.55 276.65 205.45 280.05 195.4 281.95 185 283.4 175 283.85 172 292.45 176.75 298.05 184.6 308.05 198.55 302.15 215.95 296.95 231.15 284.55 239.65 279.9 242.8 275.25 244.3 271.2 245.6 269.15 245.05ZM291.05 248.5Q298 245.8 305 240.8 314.75 233.9 316.65 228.3 319.25 220.7 319.8 217.3 319.95 216.45 320.05 215.65M319.35 204.25Q319.25 204 319.2 203.7 317.35 195.75 313.45 188.75M272.9 250.55L272.2 251.95Q270.65 255.5 270.5 258.2 270.4 260.9 271.4 263.3 271.9 264.5 272.4 265.15M291.05 248.5Q291.15 248.65 291.25 248.85 288.3 249.85 285.3 250.3M195.1 204.4L195.65 205.45Q196.55 206.55 198.55 206.7 200.9 206.9 205.35 205.25 209.7 203.65 210.6 202.4M218.4 220.7L214.5 215.6Q214.3 215.3 214.1 215 214 214.85 213.95 214.7 213.6 214.2 213.35 213.75L211.55 210M218.4 220.7Q219 221.35 219.6 222.05L221.3 223.8Q226.2 228.75 234.3 233.85 234.45 232.8 234.5 231.65L234.5 225.95M219.05 221.45Q218.25 222.7 217.45 224.05 215 228.05 214.7 228.75 214.35 229.5 215.1 233.6 215.5 235.65 215.95 237.55M256.6 245Q248.35 241.75 240.4 237.4 237.15 235.6 234.3 233.85 233.75 238.6 232.05 241.25 230 244.45 226.7 247.15 225.1 248.45 223.85 249.15"/><path stroke="#231F20" stroke-width="1.2" stroke-linejoin="miter" stroke-linecap="butt" stroke-miterlimit="10" fill="none" d="M183.05 156.35Q183.15 156.4 183.2 156.4 187.45 157.9 190.1 160.05 192.3 161.75 193.45 163.8 195.85 168.2 192.95 173.3 187 183.9 176.65 181.3 170.75 179.8 167.5 174.75 164.1 169.45 166.3 164 166.8 162.75 167.55 161.7M179 155.6Q180.8 155.55 182.35 156.1 182.7 156.2 183.05 156.35M176.45 162Q175.95 162.4 175.45 162.9 172.7 165.6 172.95 170.05 173.2 174.65 176.6 176.7 178.7 178 181.05 178 184.3 178.1 186.75 176.6 189.5 174.95 190.4 171.8 191.2 169.15 189.9 166.6M217.35 170.1Q215.8 170.4 214.55 171.05 212.7 172.05 211.55 174M215.45 174.45Q215.35 174.55 215.25 174.65 212.55 177.3 213.15 181.75 213.8 186.3 217.2 188.3 219.3 189.5 221.65 189.5 228.5 189.65 230.3 183.55 230.95 181.4 230.2 179.35M234.5 181.95Q234.6 184.15 233.95 186.55 232.35 192.2 227.7 193.8 223.35 195.3 217.65 192.95 213.2 191.15 211.1 186.65 209.25 182.85 209.8 179.2 210.25 176.1 211.5 174.05"/><path stroke="#231F20" stroke-width="1.2" stroke-linejoin="round" stroke-linecap="butt" fill="none" d="M167.55 161.7L167.05 161.7Q167.45 161.15 168.2 160.4 169.7 158.9 171.4 157.8 175.1 155.5 179 155.6 181 155.65 183.05 156.35M189.9 166.6Q189.8 166.55 189.7 166.5 183.8 163.5 178.05 162.3 177.25 162.15 176.5 162L176.45 162Q173.35 161.5 170.2 161.55L167.55 161.7M190.1 160.05Q192.5 162 193.65 164.5 194.85 167.2 194.4 169.3 192.65 168.1 189.9 166.6M217.35 170.1Q216.3 170.45 215.25 171 213.65 171.8 212.4 173L211.55 174 211.45 174.05 211.5 174.05 215.45 174.45 216.5 174.55Q220.45 175.2 224.05 176.5 224.6 176.7 225.15 176.95 226.55 177.5 227.9 178.15 229.15 178.75 230.2 179.35 233.35 180.95 234.5 181.95 234.7 182.1 234.85 182.25 235.15 180.15 234.25 177.6 232.5 172.5 226.45 170.45 221.5 168.8 217.35 170.1Z"/><path stroke="#231F20" stroke-width="1.7" stroke-linejoin="miter" stroke-linecap="butt" stroke-miterlimit="10" fill="none" d="M165.35 156.9Q169.6 153.75 171.25 152.95 175.7 150.8 179.95 151.55 184.95 152.4 190.05 154.85 195.15 157.35 196.85 159.75 198.3 161.8 198.75 163.65 198.95 164.6 198.9 165.15 198.95 168.35 198.7 169.5 198.5 170.3 198.1 171.4M205.8 173.2Q206 172.55 206.2 172.05 206.65 171.05 208.65 168.5L209.7 167.45Q211.25 166.2 213.6 165.5 216.45 164.6 222 165.75 227.45 166.9 232 169.3 235.8 171.3 237.35 174.75 238 176.2 238.65 178.8M166.45 180.55Q163.8 178.1 162 174.4 160 170.15 161.15 164.5 162.2 159.15 164.95 157.15 165.15 157 165.35 156.9M198.1 171.4Q197.35 173.15 195.95 175.65 192.95 181 189.45 183.4 184.85 186.65 178.6 185.7 172.05 184.75 167.9 181.75 167.15 181.2 166.45 180.55M225.4 199.2Q224.2 199.4 223.1 199.35 219.1 199.2 213.25 195.95 207.55 192.75 205.5 188.1 203.8 184.1 204.6 178.6 205.15 175.15 205.8 173.2M225.4 199.2Q228.1 198.75 231.25 197.15 235.35 195.05 237.8 189.45 240.1 184.2 239.15 180.9 238.9 179.75 238.65 178.8"/></g></g><g id="Symbol 2_3.2" overflow="visible"><g><path fill="#BCBEC0" stroke="none" d="M282.85 177.3L281.5 185.75 286.6 183.9Q292.45 182.5 295.95 184.4 299.45 186.25 306.1 194.45 312.75 202.6 316.7 205.5 320.65 208.4 323.05 209.45 325.45 210.5 327.2 206.6 328.9 202.65 323.35 190.85 317.8 179 310.1 174.4 302.4 169.85 298.7 170.15 295 170.45 290.45 172.25 285.85 174.05 284.15 175.8L282.85 177.3Z"/><path stroke="#231F20" stroke-width="1.2" stroke-linejoin="round" stroke-linecap="butt" fill="none" d="M167.55 161.7L167.05 161.7Q167.45 161.15 168.2 160.4 169.7 158.9 171.4 157.8 175.1 155.5 179 155.6 181 155.65 183.05 156.35M189.9 166.6Q189.8 166.55 189.7 166.5 183.8 163.5 178.05 162.3 177.25 162.15 176.5 162L176.45 162Q173.35 161.5 170.2 161.55L167.55 161.7M190.1 160.05Q192.5 162 193.65 164.5 194.85 167.2 194.4 169.3 192.65 168.1 189.9 166.6M217.35 170.1Q216.3 170.45 215.25 171 213.65 171.8 212.4 173L211.55 174 211.45 174.05 211.5 174.05 215.45 174.45 216.5 174.55Q220.45 175.2 224.05 176.5 224.6 176.7 225.15 176.95 226.55 177.5 227.9 178.15 229.15 178.75 230.2 179.35 233.35 180.95 234.5 181.95 234.7 182.1 234.85 182.25 235.15 180.15 234.25 177.6 232.5 172.5 226.45 170.45 221.5 168.8 217.35 170.1Z"/></g></g><g id="Symbol 2_4.2" overflow="visible"><g><path fill="#BCBEC0" stroke="none" d="M285.8 167.95Q290.75 171.3 291.6 170.8 292.45 170.25 294.85 169.85 297.2 169.4 299.9 169.8 302.55 170.2 308.75 177.5 314.9 184.8 314.9 178.05 314.9 171.3 311 166.6 307.1 161.9 302.65 160.3 298.2 158.7 292.4 159.35 286.6 160 281.1 164.45L285.8 167.95Z"/><path stroke="#231F20" stroke-width="1.2" stroke-linejoin="miter" stroke-linecap="butt" stroke-miterlimit="10" fill="none" d="M183.05 156.35Q183.15 156.4 183.2 156.4 187.45 157.9 190.1 160.05 192.3 161.75 193.45 163.8 195.85 168.2 192.95 173.3 187 183.9 176.65 181.3 170.75 179.8 167.5 174.75 164.1 169.45 166.3 164 166.8 162.75 167.55 161.7M179 155.6Q180.8 155.55 182.35 156.1 182.7 156.2 183.05 156.35M176.45 162Q175.95 162.4 175.45 162.9 172.7 165.6 172.95 170.05 173.2 174.65 176.6 176.7 178.7 178 181.05 178 184.3 178.1 186.75 176.6 189.5 174.95 190.4 171.8 191.2 169.15 189.9 166.6M217.35 170.1Q215.8 170.4 214.55 171.05 212.7 172.05 211.55 174M215.45 174.45Q215.35 174.55 215.25 174.65 212.55 177.3 213.15 181.75 213.8 186.3 217.2 188.3 219.3 189.5 221.65 189.5 228.5 189.65 230.3 183.55 230.95 181.4 230.2 179.35M234.5 181.95Q234.6 184.15 233.95 186.55 232.35 192.2 227.7 193.8 223.35 195.3 217.65 192.95 213.2 191.15 211.1 186.65 209.25 182.85 209.8 179.2 210.25 176.1 211.5 174.05"/></g></g><g id="Symbol 2_3.4" overflow="visible"><g><path fill="#BCBEC0" stroke="none" d="M331 171.25Q337.55 165.1 338.85 157.7 339.9 151.95 338.15 150.35 337.3 149.55 327.1 152.85 314.2 157.25 308.5 159.1 301.2 161.5 294.65 166.3 291.7 168.45 287.4 172.5 285.8 174 284.15 175.8L282.85 177.3 281.5 185.75 286.6 183.9Q292.7 181.9 297.7 181.05 301.7 180.4 313.55 179.25 324.7 177.25 331 171.25Z"/><path stroke="#231F20" stroke-width="1.2" stroke-linejoin="round" stroke-linecap="butt" fill="none" d="M167.55 161.7L167.05 161.7Q167.45 161.15 168.2 160.4 169.7 158.9 171.4 157.8 175.1 155.5 179 155.6 181 155.65 183.05 156.35M189.9 166.6Q189.8 166.55 189.7 166.5 183.8 163.5 178.05 162.3 177.25 162.15 176.5 162L176.45 162Q173.35 161.5 170.2 161.55L167.55 161.7M190.1 160.05Q192.5 162 193.65 164.5 194.85 167.2 194.4 169.3 192.65 168.1 189.9 166.6M217.35 170.1Q216.3 170.45 215.25 171 213.65 171.8 212.4 173L211.55 174 211.45 174.05 211.5 174.05 215.45 174.45 216.5 174.55Q220.45 175.2 224.05 176.5 224.6 176.7 225.15 176.95 226.55 177.5 227.9 178.15 229.15 178.75 230.2 179.35 233.35 180.95 234.5 181.95 234.7 182.1 234.85 182.25 235.15 180.15 234.25 177.6 232.5 172.5 226.45 170.45 221.5 168.8 217.35 170.1Z"/></g></g><g id="Symbol 2_4.4" overflow="visible"><g><path fill="#BCBEC0" stroke="none" d="M315.1 139.6Q313 138.9 304.5 143.8 298.25 147.4 290 153.1 284.85 156.75 282.45 161L281.05 164.5 285.75 168Q290.7 171.35 291.65 170.7 292.45 170.25 298.7 166.65 304.9 162.85 306.8 160.75 311.35 155.8 312.65 152.1 314.45 148.1 315.4 145.4 317.1 140.3 315.1 139.6Z"/><path stroke="#231F20" stroke-width="1.2" stroke-linejoin="miter" stroke-linecap="butt" stroke-miterlimit="10" fill="none" d="M183.05 156.35Q183.15 156.4 183.2 156.4 187.45 157.9 190.1 160.05 192.3 161.75 193.45 163.8 195.85 168.2 192.95 173.3 187 183.9 176.65 181.3 170.75 179.8 167.5 174.75 164.1 169.45 166.3 164 166.8 162.75 167.55 161.7M179 155.6Q180.8 155.55 182.35 156.1 182.7 156.2 183.05 156.35M176.45 162Q175.95 162.4 175.45 162.9 172.7 165.6 172.95 170.05 173.2 174.65 176.6 176.7 178.7 178 181.05 178 184.3 178.1 186.75 176.6 189.5 174.95 190.4 171.8 191.2 169.15 189.9 166.6M217.35 170.1Q215.8 170.4 214.55 171.05 212.7 172.05 211.55 174M215.45 174.45Q215.35 174.55 215.25 174.65 212.55 177.3 213.15 181.75 213.8 186.3 217.2 188.3 219.3 189.5 221.65 189.5 228.5 189.65 230.3 183.55 230.95 181.4 230.2 179.35M234.5 181.95Q234.6 184.15 233.95 186.55 232.35 192.2 227.7 193.8 223.35 195.3 217.65 192.95 213.2 191.15 211.1 186.65 209.25 182.85 209.8 179.2 210.25 176.1 211.5 174.05"/></g></g><g id="Symbol 2_1.17" overflow="visible"><g><path fill="#231F20" stroke="none" d="M194.35 169.3Q194.8 167.2 193.6 164.5 191.2 159.15 183 156.35 176.95 154.3 171.35 157.8 169.65 158.9 168.15 160.4 167.4 161.15 167 161.7L170.15 161.55Q174.1 161.5 178 162.3 183.75 163.5 189.65 166.5 192.55 168.05 194.35 169.3Z"/></g></g><g id="Symbol 2_2.17" overflow="visible"><g><path fill="#231F20" stroke="none" d="M216.45 174.55Q222.55 175.55 227.85 178.15 233.55 180.95 234.8 182.25 235.1 180.15 234.2 177.6 232.45 172.5 226.4 170.45 220.2 168.35 215.2 171 213.6 171.8 212.35 173L211.4 174.05 216.45 174.55Z"/></g></g></defs><g id="Scene-1-copy" overflow="visible"><g display="none"><use xlink:href="#Symbol-2f0" transform="translate(20.2 73.05)"/><animate attributeName="display" repeatCount="indefinite" dur="3s" keyTimes="0;.986;1" values="none;inline;inline"/></g><g display="none"><g id="Symbol-2f70o70" transform="translate(20.4 72.75)"><use xlink:href="#Symbol 2_4.2"/><use xlink:href="#Symbol 2_3.2"/><use xlink:href="#Symbol 2_2.17"/><use xlink:href="#Symbol 2_1.17"/><use xlink:href="#Symbol 2_0.2"/></g><animate attributeName="display" repeatCount="indefinite" dur="3s" keyTimes="0;.972;.986;1" values="none;inline;none;none"/></g><g display="none"><g id="Symbol-2f69o69" transform="translate(21.1 71.9)"><use xlink:href="#Symbol 2_4.1"/><use xlink:href="#Symbol 2_3.1"/><use xlink:href="#Symbol 2_2.17"/><use xlink:href="#Symbol 2_1.17"/><use xlink:href="#Symbol 2_0.2"/></g><animate attributeName="display" repeatCount="indefinite" dur="3s" keyTimes="0;.958;.972;1" values="none;inline;none;none"/></g><g display="none"><g id="Symbol-2f68o68" transform="translate(22.2 70.5)"><use xlink:href="#Symbol 2_4.4"/><use xlink:href="#Symbol 2_3.4"/><use xlink:href="#Symbol 2_2.17"/><use xlink:href="#Symbol 2_1.17"/><use xlink:href="#Symbol 2_0.2"/></g><animate attributeName="display" repeatCount="indefinite" dur="3s" keyTimes="0;.944;.958;1" values="none;inline;none;none"/></g><g display="none"><g id="Symbol-2f67o67" transform="translate(23.8 68.5)"><use xlink:href="#Symbol 2_4.1"/><use xlink:href="#Symbol 2_3.1"/><use xlink:href="#Symbol 2_2.17"/><use xlink:href="#Symbol 2_1.17"/><use xlink:href="#Symbol 2_0.2"/></g><animate attributeName="display" repeatCount="indefinite" dur="3s" keyTimes="0;.931;.944;1" values="none;inline;none;none"/></g><g display="none"><g id="Symbol-2f66o66" transform="translate(25.8 65.95)"><use xlink:href="#Symbol 2_4.2"/><use xlink:href="#Symbol 2_3.2"/><use xlink:href="#Symbol 2_2.17"/><use xlink:href="#Symbol 2_1.17"/><use xlink:href="#Symbol 2_0.2"/></g><animate attributeName="display" repeatCount="indefinite" dur="3s" keyTimes="0;.917;.931;1" values="none;inline;none;none"/></g><g display="none"><g id="Symbol-2f65o65" transform="translate(28.25 62.85)"><use xlink:href="#Symbol 2_4.1"/><use xlink:href="#Symbol 2_3.1"/><use xlink:href="#Symbol 2_2.17"/><use xlink:href="#Symbol 2_1.17"/><use xlink:href="#Symbol 2_0.2"/></g><animate attributeName="display" repeatCount="indefinite" dur="3s" keyTimes="0;.903;.917;1" values="none;inline;none;none"/></g><g display="none"><g id="Symbol-2f64o64" transform="translate(31.1 59.3)"><use xlink:href="#Symbol 2_4.4"/><use xlink:href="#Symbol 2_3.4"/><use xlink:href="#Symbol 2_2.17"/><use xlink:href="#Symbol 2_1.17"/><use xlink:href="#Symbol 2_0.2"/></g><animate attributeName="display" repeatCount="indefinite" dur="3s" keyTimes="0;.889;.903;1" values="none;inline;none;none"/></g><g display="none"><g id="Symbol-2f63o63" transform="translate(33.55 56.2)"><use xlink:href="#Symbol 2_4.1"/><use xlink:href="#Symbol 2_3.1"/><use xlink:href="#Symbol 2_2.17"/><use xlink:href="#Symbol 2_1.17"/><use xlink:href="#Symbol 2_0.2"/></g><animate attributeName="display" repeatCount="indefinite" dur="3s" keyTimes="0;.875;.889;1" values="none;inline;none;none"/></g><g display="none"><g id="Symbol-2f62o62" transform="translate(35.55 53.65)"><use xlink:href="#Symbol 2_4.2"/><use xlink:href="#Symbol 2_3.2"/><use xlink:href="#Symbol 2_2.17"/><use xlink:href="#Symbol 2_1.17"/><use xlink:href="#Symbol 2_0.2"/></g><animate attributeName="display" repeatCount="indefinite" dur="3s" keyTimes="0;.861;.875;1" values="none;inline;none;none"/></g><g display="none"><g id="Symbol-2f61o61" transform="translate(37.15 51.65)"><use xlink:href="#Symbol 2_4.1"/><use xlink:href="#Symbol 2_3.1"/><use xlink:href="#Symbol 2_2.17"/><use xlink:href="#Symbol 2_1.17"/><use xlink:href="#Symbol 2_0.2"/></g><animate attributeName="display" repeatCount="indefinite" dur="3s" keyTimes="0;.847;.861;1" values="none;inline;none;none"/></g><g display="none"><g id="Symbol-2f60o60" transform="translate(38.25 50.25)"><use xlink:href="#Symbol 2_4.4"/><use xlink:href="#Symbol 2_3.4"/><use xlink:href="#Symbol 2_2.17"/><use xlink:href="#Symbol 2_1.17"/><use xlink:href="#Symbol 2_0.2"/></g><animate attributeName="display" repeatCount="indefinite" dur="3s" keyTimes="0;.833;.847;1" values="none;inline;none;none"/></g><g display="none"><g id="Symbol-2f59o59" transform="translate(38.95 49.4)"><use xlink:href="#Symbol 2_4.1"/><use xlink:href="#Symbol 2_3.1"/><use xlink:href="#Symbol 2_2.17"/><use xlink:href="#Symbol 2_1.17"/><use xlink:href="#Symbol 2_0.2"/></g><animate attributeName="display" repeatCount="indefinite" dur="3s" keyTimes="0;.819;.833;1" values="none;inline;none;none"/></g><g display="none"><g id="Symbol-2f58o58" transform="translate(39.15 49.1)"><use xlink:href="#Symbol 2_4.2"/><use xlink:href="#Symbol 2_3.2"/><use xlink:href="#Symbol 2_2.17"/><use xlink:href="#Symbol 2_1.17"/><use xlink:href="#Symbol 2_0.2"/></g><animate attributeName="display" repeatCount="indefinite" dur="3s" keyTimes="0;.806;.819;1" values="none;inline;none;none"/></g><g display="none"><g id="Symbol-2f57o57" transform="translate(38.8 48.9)"><use xlink:href="#Symbol 2_4.1"/><use xlink:href="#Symbol 2_3.1"/><use xlink:href="#Symbol 2_2.17"/><use xlink:href="#Symbol 2_1.17"/><use xlink:href="#Symbol 2_0.2"/></g><animate attributeName="display" repeatCount="indefinite" dur="3s" keyTimes="0;.792;.806;1" values="none;inline;none;none"/></g><g display="none"><g id="Symbol-2f56o56" transform="translate(37.85 48.35)"><use xlink:href="#Symbol 2_4.4"/><use xlink:href="#Symbol 2_3.4"/><use xlink:href="#Symbol 2_2.17"/><use xlink:href="#Symbol 2_1.17"/><use xlink:href="#Symbol 2_0.2"/></g><animate attributeName="display" repeatCount="indefinite" dur="3s" keyTimes="0;.778;.792;1" values="none;inline;none;none"/></g><g display="none"><g id="Symbol-2f55o55" transform="translate(36.2 47.35)"><use xlink:href="#Symbol 2_4.1"/><use xlink:href="#Symbol 2_3.1"/><use xlink:href="#Symbol 2_2.17"/><use xlink:href="#Symbol 2_1.17"/><use xlink:href="#Symbol 2_0.2"/></g><animate attributeName="display" repeatCount="indefinite" dur="3s" keyTimes="0;.764;.778;1" values="none;inline;none;none"/></g><g display="none"><g id="Symbol-2f54o54" transform="translate(33.9 46)"><use xlink:href="#Symbol 2_4.2"/><use xlink:href="#Symbol 2_3.2"/><use xlink:href="#Symbol 2_2.17"/><use xlink:href="#Symbol 2_1.17"/><use xlink:href="#Symbol 2_0.2"/></g><animate attributeName="display" repeatCount="indefinite" dur="3s" keyTimes="0;.75;.764;1" values="none;inline;none;none"/></g><g display="none"><g id="Symbol-2f53o53" transform="translate(30.95 44.25)"><use xlink:href="#Symbol 2_4.1"/><use xlink:href="#Symbol 2_3.1"/><use xlink:href="#Symbol 2_2.17"/><use xlink:href="#Symbol 2_1.17"/><use xlink:href="#Symbol 2_0.2"/></g><animate attributeName="display" repeatCount="indefinite" dur="3s" keyTimes="0;.736;.75;1" values="none;inline;none;none"/></g><g display="none"><g id="Symbol-2f52o52" transform="translate(27.35 42.15)"><use xlink:href="#Symbol 2_4.4"/><use xlink:href="#Symbol 2_3.4"/><use xlink:href="#Symbol 2_2.17"/><use xlink:href="#Symbol 2_1.17"/><use xlink:href="#Symbol 2_0.2"/></g><animate attributeName="display" repeatCount="indefinite" dur="3s" keyTimes="0;.722;.736;1" values="none;inline;none;none"/></g><g display="none"><g id="Symbol-2f51o51" transform="translate(23.2 39.7)"><use xlink:href="#Symbol 2_4.1"/><use xlink:href="#Symbol 2_3.1"/><use xlink:href="#Symbol 2_2.17"/><use xlink:href="#Symbol 2_1.17"/><use xlink:href="#Symbol 2_0.2"/></g><animate attributeName="display" repeatCount="indefinite" dur="3s" keyTimes="0;.708;.722;1" values="none;inline;none;none"/></g><g display="none"><g id="Symbol-2f50o50" transform="translate(19.6 37.6)"><use xlink:href="#Symbol 2_4.2"/><use xlink:href="#Symbol 2_3.2"/><use xlink:href="#Symbol 2_2.17"/><use xlink:href="#Symbol 2_1.17"/><use xlink:href="#Symbol 2_0.2"/></g><animate attributeName="display" repeatCount="indefinite" dur="3s" keyTimes="0;.694;.708;1" values="none;inline;none;none"/></g><g display="none"><g id="Symbol-2f49o49" transform="translate(16.65 35.85)"><use xlink:href="#Symbol 2_4.1"/><use xlink:href="#Symbol 2_3.1"/><use xlink:href="#Symbol 2_2.17"/><use xlink:href="#Symbol 2_1.17"/><use xlink:href="#Symbol 2_0.2"/></g><animate attributeName="display" repeatCount="indefinite" dur="3s" keyTimes="0;.681;.694;1" values="none;inline;none;none"/></g><g display="none"><g id="Symbol-2f48o48" transform="translate(14.35 34.5)"><use xlink:href="#Symbol 2_4.4"/><use xlink:href="#Symbol 2_3.4"/><use xlink:href="#Symbol 2_2.17"/><use xlink:href="#Symbol 2_1.17"/><use xlink:href="#Symbol 2_0.2"/></g><animate attributeName="display" repeatCount="indefinite" dur="3s" keyTimes="0;.667;.681;1" values="none;inline;none;none"/></g><g display="none"><g id="Symbol-2f47o47" transform="translate(12.7 33.5)"><use xlink:href="#Symbol 2_4.1"/><use xlink:href="#Symbol 2_3.1"/><use xlink:href="#Symbol 2_2.17"/><use xlink:href="#Symbol 2_1.17"/><use xlink:href="#Symbol 2_0.2"/></g><animate attributeName="display" repeatCount="indefinite" dur="3s" keyTimes="0;.653;.667;1" values="none;inline;none;none"/></g><g display="none"><g id="Symbol-2f46o46" transform="translate(11.75 32.95)"><use xlink:href="#Symbol 2_4.2"/><use xlink:href="#Symbol 2_3.2"/><use xlink:href="#Symbol 2_2.17"/><use xlink:href="#Symbol 2_1.17"/><use xlink:href="#Symbol 2_0.2"/></g><animate attributeName="display" repeatCount="indefinite" dur="3s" keyTimes="0;.639;.653;1" values="none;inline;none;none"/></g><g display="none"><g id="Symbol-2f45o45" transform="translate(11.4 32.75)"><use xlink:href="#Symbol 2_4.1"/><use xlink:href="#Symbol 2_3.1"/><use xlink:href="#Symbol 2_2.17"/><use xlink:href="#Symbol 2_1.17"/><use xlink:href="#Symbol 2_0.2"/></g><animate attributeName="display" repeatCount="indefinite" dur="3s" keyTimes="0;.625;.639;1" values="none;inline;none;none"/></g><g display="none"><g id="Symbol-2f44o44" transform="translate(10.95 32.95)"><use xlink:href="#Symbol 2_4.4"/><use xlink:href="#Symbol 2_3.4"/><use xlink:href="#Symbol 2_2.17"/><use xlink:href="#Symbol 2_1.17"/><use xlink:href="#Symbol 2_0.2"/></g><animate attributeName="display" repeatCount="indefinite" dur="3s" keyTimes="0;.611;.625;1" values="none;inline;none;none"/></g><g display="none"><g id="Symbol-2f43o43" transform="translate(9.6 33.55)"><use xlink:href="#Symbol 2_4.1"/><use xlink:href="#Symbol 2_3.1"/><use xlink:href="#Symbol 2_2.17"/><use xlink:href="#Symbol 2_1.17"/><use xlink:href="#Symbol 2_0.2"/></g><animate attributeName="display" repeatCount="indefinite" dur="3s" keyTimes="0;.597;.611;1" values="none;inline;none;none"/></g><g display="none"><g id="Symbol-2f42o42" transform="translate(7.35 34.6)"><use xlink:href="#Symbol 2_4.2"/><use xlink:href="#Symbol 2_3.2"/><use xlink:href="#Symbol 2_2.17"/><use xlink:href="#Symbol 2_1.17"/><use xlink:href="#Symbol 2_0.2"/></g><animate attributeName="display" repeatCount="indefinite" dur="3s" keyTimes="0;.583;.597;1" values="none;inline;none;none"/></g><g display="none"><g id="Symbol-2f41o41" transform="translate(4.2 36.05)"><use xlink:href="#Symbol 2_4.1"/><use xlink:href="#Symbol 2_3.1"/><use xlink:href="#Symbol 2_2.17"/><use xlink:href="#Symbol 2_1.17"/><use xlink:href="#Symbol 2_0.2"/></g><animate attributeName="display" repeatCount="indefinite" dur="3s" keyTimes="0;.569;.583;1" values="none;inline;none;none"/></g><g display="none"><g id="Symbol-2f40o40" transform="translate(.15 37.9)"><use xlink:href="#Symbol 2_4.4"/><use xlink:href="#Symbol 2_3.4"/><use xlink:href="#Symbol 2_2.17"/><use xlink:href="#Symbol 2_1.17"/><use xlink:href="#Symbol 2_0.2"/></g><animate attributeName="display" repeatCount="indefinite" dur="3s" keyTimes="0;.556;.569;1" values="none;inline;none;none"/></g><g display="none"><g id="Symbol-2f39o39" transform="translate(-4.8 40.15)"><use xlink:href="#Symbol 2_4.1"/><use xlink:href="#Symbol 2_3.1"/><use xlink:href="#Symbol 2_2.17"/><use xlink:href="#Symbol 2_1.17"/><use xlink:href="#Symbol 2_0.2"/></g><animate attributeName="display" repeatCount="indefinite" dur="3s" keyTimes="0;.542;.556;1" values="none;inline;none;none"/></g><g display="none"><g id="Symbol-2f38o38" transform="translate(-10.65 42.85)"><use xlink:href="#Symbol 2_4.2"/><use xlink:href="#Symbol 2_3.2"/><use xlink:href="#Symbol 2_2.17"/><use xlink:href="#Symbol 2_1.17"/><use xlink:href="#Symbol 2_0.2"/></g><animate attributeName="display" repeatCount="indefinite" dur="3s" keyTimes="0;.528;.542;1" values="none;inline;none;none"/></g><g display="none"><g id="Symbol-2f37o37" transform="translate(-16.5 45.5)"><use xlink:href="#Symbol 2_4.1"/><use xlink:href="#Symbol 2_3.1"/><use xlink:href="#Symbol 2_2.17"/><use xlink:href="#Symbol 2_1.17"/><use xlink:href="#Symbol 2_0.2"/></g><animate attributeName="display" repeatCount="indefinite" dur="3s" keyTimes="0;.514;.528;1" values="none;inline;none;none"/></g><g display="none"><g id="Symbol-2f36o36" transform="translate(-21.45 47.75)"><use xlink:href="#Symbol 2_4.4"/><use xlink:href="#Symbol 2_3.4"/><use xlink:href="#Symbol 2_2.17"/><use xlink:href="#Symbol 2_1.17"/><use xlink:href="#Symbol 2_0.2"/></g><animate attributeName="display" repeatCount="indefinite" dur="3s" keyTimes="0;.5;.514;1" values="none;inline;none;none"/></g><g display="none"><g id="Symbol-2f35o35" transform="translate(-25.5 49.6)"><use xlink:href="#Symbol 2_4.1"/><use xlink:href="#Symbol 2_3.1"/><use xlink:href="#Symbol 2_2.17"/><use xlink:href="#Symbol 2_1.17"/><use xlink:href="#Symbol 2_0.2"/></g><animate attributeName="display" repeatCount="indefinite" dur="3s" keyTimes="0;.486;.5;1" values="none;inline;none;none"/></g><g display="none"><g id="Symbol-2f34o34" transform="translate(-28.65 51.05)"><use xlink:href="#Symbol 2_4.2"/><use xlink:href="#Symbol 2_3.2"/><use xlink:href="#Symbol 2_2.17"/><use xlink:href="#Symbol 2_1.17"/><use xlink:href="#Symbol 2_0.2"/></g><animate attributeName="display" repeatCount="indefinite" dur="3s" keyTimes="0;.472;.486;1" values="none;inline;none;none"/></g><g display="none"><g id="Symbol-2f33o33" transform="translate(-30.9 52.1)"><use xlink:href="#Symbol 2_4.1"/><use xlink:href="#Symbol 2_3.1"/><use xlink:href="#Symbol 2_2.17"/><use xlink:href="#Symbol 2_1.17"/><use xlink:href="#Symbol 2_0.2"/></g><animate attributeName="display" repeatCount="indefinite" dur="3s" keyTimes="0;.458;.472;1" values="none;inline;none;none"/></g><g display="none"><g id="Symbol-2f32o32" transform="translate(-32.25 52.7)"><use xlink:href="#Symbol 2_4.4"/><use xlink:href="#Symbol 2_3.4"/><use xlink:href="#Symbol 2_2.17"/><use xlink:href="#Symbol 2_1.17"/><use xlink:href="#Symbol 2_0.2"/></g><animate attributeName="display" repeatCount="indefinite" dur="3s" keyTimes="0;.444;.458;1" values="none;inline;none;none"/></g><g display="none"><g id="Symbol-2f31o31" transform="translate(-32.7 52.9)"><use xlink:href="#Symbol 2_4.1"/><use xlink:href="#Symbol 2_3.1"/><use xlink:href="#Symbol 2_2.17"/><use xlink:href="#Symbol 2_1.17"/><use xlink:href="#Symbol 2_0.2"/></g><animate attributeName="display" repeatCount="indefinite" dur="3s" keyTimes="0;.431;.444;1" values="none;inline;none;none"/></g><g display="none"><g id="Symbol-2f30o30" transform="translate(-32.55 53.05)"><use xlink:href="#Symbol 2_4.2"/><use xlink:href="#Symbol 2_3.2"/><use xlink:href="#Symbol 2_2.17"/><use xlink:href="#Symbol 2_1.17"/><use xlink:href="#Symbol 2_0.2"/></g><animate attributeName="display" repeatCount="indefinite" dur="3s" keyTimes="0;.417;.431;1" values="none;inline;none;none"/></g><g display="none"><g id="Symbol-2f29o29" transform="translate(-32.15 53.45)"><use xlink:href="#Symbol 2_4.1"/><use xlink:href="#Symbol 2_3.1"/><use xlink:href="#Symbol 2_2.17"/><use xlink:href="#Symbol 2_1.17"/><use xlink:href="#Symbol 2_0.2"/></g><animate attributeName="display" repeatCount="indefinite" dur="3s" keyTimes="0;.403;.417;1" values="none;inline;none;none"/></g><g display="none"><g id="Symbol-2f28o28" transform="translate(-31.45 54.15)"><use xlink:href="#Symbol 2_4.4"/><use xlink:href="#Symbol 2_3.4"/><use xlink:href="#Symbol 2_2.17"/><use xlink:href="#Symbol 2_1.17"/><use xlink:href="#Symbol 2_0.2"/></g><animate attributeName="display" repeatCount="indefinite" dur="3s" keyTimes="0;.389;.403;1" values="none;inline;none;none"/></g><g display="none"><g id="Symbol-2f27o27" transform="translate(-30.45 55.15)"><use xlink:href="#Symbol 2_4.1"/><use xlink:href="#Symbol 2_3.1"/><use xlink:href="#Symbol 2_2.17"/><use xlink:href="#Symbol 2_1.17"/><use xlink:href="#Symbol 2_0.2"/></g><animate attributeName="display" repeatCount="indefinite" dur="3s" keyTimes="0;.375;.389;1" values="none;inline;none;none"/></g><g display="none"><g id="Symbol-2f26o26" transform="translate(-29.2 56.4)"><use xlink:href="#Symbol 2_4.2"/><use xlink:href="#Symbol 2_3.2"/><use xlink:href="#Symbol 2_2.17"/><use xlink:href="#Symbol 2_1.17"/><use xlink:href="#Symbol 2_0.2"/></g><animate attributeName="display" repeatCount="indefinite" dur="3s" keyTimes="0;.361;.375;1" values="none;inline;none;none"/></g><g display="none"><g id="Symbol-2f25o25" transform="translate(-27.7 57.9)"><use xlink:href="#Symbol 2_4.1"/><use xlink:href="#Symbol 2_3.1"/><use xlink:href="#Symbol 2_2.17"/><use xlink:href="#Symbol 2_1.17"/><use xlink:href="#Symbol 2_0.2"/></g><animate attributeName="display" repeatCount="indefinite" dur="3s" keyTimes="0;.347;.361;1" values="none;inline;none;none"/></g><g display="none"><g id="Symbol-2f24o24" transform="translate(-25.85 59.75)"><use xlink:href="#Symbol 2_4.4"/><use xlink:href="#Symbol 2_3.4"/><use xlink:href="#Symbol 2_2.17"/><use xlink:href="#Symbol 2_1.17"/><use xlink:href="#Symbol 2_0.2"/></g><animate attributeName="display" repeatCount="indefinite" dur="3s" keyTimes="0;.333;.347;1" values="none;inline;none;none"/></g><g display="none"><g id="Symbol-2f23o23" transform="translate(-23.75 61.85)"><use xlink:href="#Symbol 2_4.1"/><use xlink:href="#Symbol 2_3.1"/><use xlink:href="#Symbol 2_2.17"/><use xlink:href="#Symbol 2_1.17"/><use xlink:href="#Symbol 2_0.2"/></g><animate attributeName="display" repeatCount="indefinite" dur="3s" keyTimes="0;.319;.333;1" values="none;inline;none;none"/></g><g display="none"><g id="Symbol-2f22o22" transform="translate(-21.45 64.15)"><use xlink:href="#Symbol 2_4.2"/><use xlink:href="#Symbol 2_3.2"/><use xlink:href="#Symbol 2_2.17"/><use xlink:href="#Symbol 2_1.17"/><use xlink:href="#Symbol 2_0.2"/></g><animate attributeName="display" repeatCount="indefinite" dur="3s" keyTimes="0;.306;.319;1" values="none;inline;none;none"/></g><g display="none"><g id="Symbol-2f21o21" transform="translate(-19.4 66.2)"><use xlink:href="#Symbol 2_4.1"/><use xlink:href="#Symbol 2_3.1"/><g><path fill="#231F20" stroke="none" d="M227.5 170.85Q226.2 170.35 224.8 170 221.1 169.2 217.85 170.25 216.45 170.7 215.2 171.45 214.75 171.75 214.25 172.1 213.45 172.85 212.75 173.75 211.6 175.25 210.95 177 210.75 177.75 210.55 178.45L210.6 178.45Q212.5 180.4 214.7 181.8 218.75 184.8 223.75 185.5 226.4 185.9 227.9 185.8 233 185.4 234.15 183.95 234.4 183.85 234.55 183.7 234.9 180.9 234.2 178.15 234 177.25 233.7 176.45 232.3 172.8 227.5 170.85Z"/></g><g><path fill="#231F20" stroke="none" d="M182.25 171Q189.05 169.1 192.05 167.9 193.75 167.65 194.05 166.9 193.05 163.2 188.35 160.45 184.15 156.75 177.25 157.1 173.35 156.6 169.8 159.1 168.6 160.05 167.65 161.05 167.1 162.3 166.75 163.4 166.3 166.75 170.75 169.9 176.35 173.05 182.25 171Z"/></g><use xlink:href="#Symbol 2_0.2"/></g><animate attributeName="display" repeatCount="indefinite" dur="3s" keyTimes="0;.292;.306;1" values="none;inline;none;none"/></g><g display="none"><g id="Symbol-2f20o20" transform="translate(-17.55 68.05)"><use xlink:href="#Symbol 2_4.4"/><use xlink:href="#Symbol 2_3.4"/><g><path fill="#231F20" stroke="none" d="M215.2 171Q213.6 171.8 212.35 173L211.4 174.05Q209.05 178.3 209.7 182.95 213.9 194.4 222.85 194.35 226.5 194.5 227.95 193.5 233.5 190.45 234.15 186.3 234.95 180.9 233.7 176.7 232.45 172.5 226.4 170.45 220.2 168.35 215.2 171Z"/></g><g><path fill="#231F20" stroke="none" d="M194.4 169.3Q194.85 167.2 193.65 164.5 191.25 159.15 183.05 156.35 177 154.3 171.4 157.8 169.7 158.9 168.2 160.4 167.45 161.15 167.05 161.7L166.4 165.05Q163.9 171.8 171.25 178.2 178.55 184.6 186.45 179.65 194.3 174.7 194.4 169.3Z"/></g><use xlink:href="#Symbol 2_0.2"/></g><animate attributeName="display" repeatCount="indefinite" dur="3s" keyTimes="0;.278;.292;1" values="none;inline;none;none"/></g><g display="none"><g id="Symbol-2f19o19" transform="translate(-16.05 69.55)"><use xlink:href="#Symbol 2_4.1"/><use xlink:href="#Symbol 2_3.1"/><g><path fill="#231F20" stroke="none" d="M227.2 170.75Q225.75 170.2 224.3 169.9 220.4 169.15 217 170.5 215.55 171.1 214.3 172 213.85 172.4 213.35 172.75 212.6 173.7 212 174.7 210.95 176.45 210.55 178.4 210.4 179.2 210.3 180L210.35 180Q212.05 182.5 214.15 184.25 218.15 188 223.5 188.5 226.5 188.8 227.95 188.4 233.2 187.1 234.2 184.75 234.4 184.5 234.5 184.2 234.85 181.2 234.2 178.35 234.05 177.45 233.75 176.55 232.4 172.7 227.2 170.75Z"/></g><g><path fill="#231F20" stroke="none" d="M192.8 168.35Q194.05 167.5 193.85 166.1 192.4 161.85 186.55 159.05 181.7 155.9 175.25 157.3 172.1 157.35 169.2 159.55 168.15 160.4 167.4 161.25 166.95 162.65 166.55 163.95 165.45 168.4 170.85 172.65 177.05 176.9 183.6 173.85 190.75 170.95 192.8 168.35Z"/></g><use xlink:href="#Symbol 2_0.2"/></g><animate attributeName="display" repeatCount="indefinite" dur="3s" keyTimes="0;.264;.278;1" values="none;inline;none;none"/></g><g display="none"><g id="Symbol-2f18o18" transform="translate(-14.8 70.8)"><use xlink:href="#Symbol 2_4.2"/><use xlink:href="#Symbol 2_3.2"/><g><path fill="#231F20" stroke="none" d="M227.9 171.05Q226.7 170.55 225.4 170.2 221.85 169.3 218.8 170.05 217.4 170.35 216.2 170.95 215.7 171.2 215.2 171.5 214.35 172.1 213.6 172.85 212.3 174.1 211.45 175.7 211.15 176.35 210.9 177 213.05 178.4 215.3 179.4 219.45 181.65 224.1 182.6 226.4 183.1 227.95 183.25 232.9 183.8 234.2 183.25 234.5 183.25 234.7 183.25 235 180.65 234.25 178 234 177.15 233.7 176.4 232.25 172.95 227.9 171.05Z"/></g><g><path fill="#231F20" stroke="none" d="M191.2 167.45Q193.3 167.75 194.1 167.7 193.6 164.5 190.05 161.8 186.45 157.55 179.1 156.85 174.5 155.85 170.3 158.65 168.9 159.65 167.75 160.85 167.15 161.9 166.8 162.8 167 165.05 170.5 167.1 175.55 169.2 180.8 168.1 187.25 167.25 191.2 167.45Z"/></g><use xlink:href="#Symbol 2_0.2"/></g><animate attributeName="display" repeatCount="indefinite" dur="3s" keyTimes="0;.25;.264;1" values="none;inline;none;none"/></g><g display="none"><g id="Symbol-2f17o17" transform="translate(-13.8 71.8)"><use xlink:href="#Symbol 2_4.1"/><use xlink:href="#Symbol 2_3.1"/><use xlink:href="#Symbol 2_2.17"/><use xlink:href="#Symbol 2_1.17"/><use xlink:href="#Symbol 2_0.2"/></g><animate attributeName="display" repeatCount="indefinite" dur="3s" keyTimes="0;.236;.25;1" values="none;inline;none;none"/></g><g display="none"><g id="Symbol-2f16o16" transform="translate(-13.1 72.5)"><use xlink:href="#Symbol 2_4.4"/><use xlink:href="#Symbol 2_3.4"/><use xlink:href="#Symbol 2_2.1"/><use xlink:href="#Symbol 2_1.1"/><use xlink:href="#Symbol 2_0.2"/></g><animate attributeName="display" repeatCount="indefinite" dur="3s" keyTimes="0;.222;.236;1" values="none;inline;none;none"/></g><g display="none"><g id="Symbol-2f15o15" transform="translate(-12.7 72.9)"><use xlink:href="#Symbol 2_4.1"/><use xlink:href="#Symbol 2_3.1"/><use xlink:href="#Symbol 2_2.1"/><use xlink:href="#Symbol 2_1.1"/><use xlink:href="#Symbol 2_0.2"/></g><animate attributeName="display" repeatCount="indefinite" dur="3s" keyTimes="0;.208;.222;1" values="none;inline;none;none"/></g><g display="none"><g id="Symbol-2f14o14" transform="translate(-12.55 73.05)"><use xlink:href="#Symbol 2_4.2"/><use xlink:href="#Symbol 2_3.2"/><use xlink:href="#Symbol 2_2.1"/><use xlink:href="#Symbol 2_1.1"/><use xlink:href="#Symbol 2_0.2"/></g><animate attributeName="display" repeatCount="indefinite" dur="3s" keyTimes="0;.194;.208;1" values="none;inline;none;none"/></g><g display="none"><g id="Symbol-2f13o13" transform="translate(-12.2 73.05)"><use xlink:href="#Symbol 2_4.1"/><use xlink:href="#Symbol 2_3.1"/><use xlink:href="#Symbol 2_2.1"/><use xlink:href="#Symbol 2_1.1"/><use xlink:href="#Symbol 2_0.2"/></g><animate attributeName="display" repeatCount="indefinite" dur="3s" keyTimes="0;.181;.194;1" values="none;inline;none;none"/></g><g display="none"><g id="Symbol-2f12o12" transform="translate(-11.2 73.05)"><use xlink:href="#Symbol 2_4.4"/><use xlink:href="#Symbol 2_3.4"/><use xlink:href="#Symbol 2_2.1"/><use xlink:href="#Symbol 2_1.1"/><use xlink:href="#Symbol 2_0.2"/></g><animate attributeName="display" repeatCount="indefinite" dur="3s" keyTimes="0;.167;.181;1" values="none;inline;none;none"/></g><g display="none"><g id="Symbol-2f11o11" transform="translate(-9.55 73.05)"><use xlink:href="#Symbol 2_4.1"/><use xlink:href="#Symbol 2_3.1"/><use xlink:href="#Symbol 2_2.1"/><use xlink:href="#Symbol 2_1.1"/><use xlink:href="#Symbol 2_0.2"/></g><animate attributeName="display" repeatCount="indefinite" dur="3s" keyTimes="0;.153;.167;1" values="none;inline;none;none"/></g><g display="none"><g id="Symbol-2f10o10" transform="translate(-7.2 73.05)"><use xlink:href="#Symbol 2_4.2"/><use xlink:href="#Symbol 2_3.2"/><use xlink:href="#Symbol 2_2.1"/><use xlink:href="#Symbol 2_1.1"/><use xlink:href="#Symbol 2_0.2"/></g><animate attributeName="display" repeatCount="indefinite" dur="3s" keyTimes="0;.139;.153;1" values="none;inline;none;none"/></g><g display="none"><g id="Symbol-2f9o9" transform="translate(-4.2 73.05)"><use xlink:href="#Symbol 2_4.1"/><use xlink:href="#Symbol 2_3.1"/><use xlink:href="#Symbol 2_2.1"/><use xlink:href="#Symbol 2_1.1"/><use xlink:href="#Symbol 2_0.2"/></g><animate attributeName="display" repeatCount="indefinite" dur="3s" keyTimes="0;.125;.139;1" values="none;inline;none;none"/></g><g display="none"><g id="Symbol-2f8o8" transform="translate(-.5 73.05)"><use xlink:href="#Symbol 2_4.4"/><use xlink:href="#Symbol 2_3.4"/><use xlink:href="#Symbol 2_2.1"/><use xlink:href="#Symbol 2_1.1"/><use xlink:href="#Symbol 2_0.2"/></g><animate attributeName="display" repeatCount="indefinite" dur="3s" keyTimes="0;.111;.125;1" values="none;inline;none;none"/></g><g display="none"><g id="Symbol-2f7o7" transform="translate(3.85 73.05)"><use xlink:href="#Symbol 2_4.1"/><use xlink:href="#Symbol 2_3.1"/><use xlink:href="#Symbol 2_2.1"/><use xlink:href="#Symbol 2_1.1"/><use xlink:href="#Symbol 2_0.2"/></g><animate attributeName="display" repeatCount="indefinite" dur="3s" keyTimes="0;.097;.111;1" values="none;inline;none;none"/></g><g display="none"><g id="Symbol-2f6o6" transform="translate(8.15 73.05)"><use xlink:href="#Symbol 2_4.2"/><use xlink:href="#Symbol 2_3.2"/><use xlink:href="#Symbol 2_2.1"/><use xlink:href="#Symbol 2_1.1"/><use xlink:href="#Symbol 2_0.2"/></g><animate attributeName="display" repeatCount="indefinite" dur="3s" keyTimes="0;.083;.097;1" values="none;inline;none;none"/></g><g display="none"><g id="Symbol-2f5o5" transform="translate(11.85 73.05)"><use xlink:href="#Symbol 2_4.1"/><use xlink:href="#Symbol 2_3.1"/><use xlink:href="#Symbol 2_2.1"/><use xlink:href="#Symbol 2_1.1"/><use xlink:href="#Symbol 2_0.2"/></g><animate attributeName="display" repeatCount="indefinite" dur="3s" keyTimes="0;.069;.083;1" values="none;inline;none;none"/></g><g display="none"><g id="Symbol-2f4o4" transform="translate(14.85 73.05)"><use xlink:href="#Symbol 2_4.4"/><use xlink:href="#Symbol 2_3.4"/><use xlink:href="#Symbol 2_2.1"/><use xlink:href="#Symbol 2_1.1"/><use xlink:href="#Symbol 2_0.2"/></g><animate attributeName="display" repeatCount="indefinite" dur="3s" keyTimes="0;.056;.069;1" values="none;inline;none;none"/></g><g display="none"><g id="Symbol-2f3o3" transform="translate(17.2 73.05)"><use xlink:href="#Symbol 2_4.1"/><use xlink:href="#Symbol 2_3.1"/><use xlink:href="#Symbol 2_2.1"/><use xlink:href="#Symbol 2_1.1"/><use xlink:href="#Symbol 2_0.2"/></g><animate attributeName="display" repeatCount="indefinite" dur="3s" keyTimes="0;.042;.056;1" values="none;inline;none;none"/></g><g display="none"><g id="Symbol-2f2o2" transform="translate(18.85 73.05)"><use xlink:href="#Symbol 2_4.2"/><use xlink:href="#Symbol 2_3.2"/><use xlink:href="#Symbol 2_2.1"/><use xlink:href="#Symbol 2_1.1"/><use xlink:href="#Symbol 2_0.2"/></g><animate attributeName="display" repeatCount="indefinite" dur="3s" keyTimes="0;.028;.042;1" values="none;inline;none;none"/></g><g display="none"><g id="Symbol-2f1o1" transform="translate(19.85 73.05)"><use xlink:href="#Symbol 2_4.1"/><use xlink:href="#Symbol 2_3.1"/><use xlink:href="#Symbol 2_2.1"/><use xlink:href="#Symbol 2_1.1"/><g><path fill="#231F20" stroke="none" d="M218.4 220.65Q218.7 221.05 219.05 221.4 219.3 221.7 219.6 222 219 221.3 218.4 220.65M291.25 248.8Q291.15 248.6 291.05 248.45 288.15 249.55 285.3 250.25 288.3 249.8 291.25 248.8M319.2 203.65Q319.25 203.95 319.35 204.2 318.3 196.55 313.45 188.7 317.35 195.7 319.2 203.65M320.05 215.6Q319.95 216.4 319.8 217.25 319.25 220.65 316.65 228.25 314.75 233.85 305 240.75 298 245.75 291.05 248.45 291.15 248.6 291.25 248.8 293.85 247.95 296.45 246.65 301.65 244.1 310.7 236.5 313.8 233.9 319.75 231.1 322.75 229.7 325.1 228.8 324 227.65 322.85 226.15 320.6 223.1 320.5 221.4 320.25 219.4 320.05 215.6M301.5 175.05Q294.2 169.15 284.65 165.65 293.2 169.7 301.05 174.75 301.25 174.9 301.5 175.05M298.05 184.55Q292.45 176.7 283.85 171.95 283.4 174.95 281.95 184.95 280.05 195.35 276.65 205.4 272.5 217.5 266.95 228.85 264.05 234.85 260.2 242.05 265.8 244.15 269.15 245 271.2 245.55 275.25 244.25 279.9 242.75 284.55 239.6 296.95 231.1 302.15 215.9 308.05 198.5 298.05 184.55M220.3 181.85Q220.65 182.55 220.4 183.35 220.15 184.1 219.4 184.45 218.95 184.7 218.5 184.65 218.95 185.4 219.65 185.9 219.75 185.95 221.35 186.45 223.3 187.15 225.45 186.1 226.3 185.7 226.85 184.85 227.25 184.25 227.7 183 227.95 182.15 227.75 180.55 227.45 178 225.15 176.9 224.6 176.65 224.05 176.45 222.1 175.9 220.35 176.65 218.45 177.55 217.75 179.6 217.5 180.35 217.5 181.15 217.6 181.05 217.75 181 218.45 180.65 219.2 180.9 219.95 181.15 220.3 181.85M217.35 170.05Q216.3 170.4 215.25 170.95 213.65 171.75 212.4 172.95L211.55 173.95 211.45 174 211.5 174 215.45 174.4 216.5 174.5Q220.45 175.15 224.05 176.45 224.6 176.65 225.15 176.9 226.55 177.45 227.9 178.1 229.15 178.7 230.2 179.3 233.35 180.9 234.5 181.9 234.7 182.05 234.85 182.2 235.15 180.1 234.25 177.55 232.5 172.45 226.45 170.4 221.5 168.75 217.35 170.05M241.3 167.7L241 168.15Q240.7 173.3 238.65 178.75 238.9 179.7 239.15 180.85 240.1 184.15 237.8 189.4 235.35 195 231.25 197.1 228.1 198.7 225.4 199.15 219.1 205.8 211.55 209.95L213.35 213.7Q213.6 214.15 213.95 214.65 214 214.8 214.1 214.95 214.3 215.25 214.5 215.55L218.4 220.65Q219 221.3 219.6 222L221.3 223.75Q226.2 228.7 234.3 233.8 234.45 232.75 234.5 231.6L234.5 225.9 234.5 231.6Q234.45 232.75 234.3 233.8 237.15 235.55 240.4 237.35 248.35 241.7 256.6 244.95L256.6 244.9 241.25 237.8Q243.75 235.6 247.3 230.25 254.4 219.6 259.75 203.8 265.15 188.05 265.4 173.25 265.45 168.6 265 164.6L264.55 161.55 269.55 162.1Q274.45 162.7 276.1 163.05 263.15 160.05 252 162.9 247.6 164.05 244 166L241.3 167.7M188.55 169.05Q188.35 167.5 187.4 166.3 186.45 165.1 184.95 164.6 182.85 163.85 180.7 164.8 178.55 165.8 177.85 167.9 177.65 168.5 177.6 169.1 177.65 169.05 177.75 169 178.65 168.5 179.65 168.85 180.65 169.2 181.1 170.15 181.55 171.1 181.2 172.05 180.85 173.05 179.95 173.55 179.6 173.7 179.3 173.8 179.5 173.95 179.75 174.15 180.2 174.5 181.45 174.75 184.35 175.7 185.75 175 187.3 174.25 188.3 171.4 188.65 170.35 188.55 169.05M190.1 160Q187.45 157.85 183.2 156.35 183.15 156.35 183.05 156.3 181 155.6 179 155.55 175.1 155.45 171.4 157.75 169.7 158.85 168.2 160.35 167.45 161.1 167.05 161.65L167.55 161.65 170.2 161.5Q173.35 161.45 176.45 161.95L176.5 161.95Q177.25 162.1 178.05 162.25 183.8 163.45 189.7 166.45 189.8 166.5 189.9 166.55 192.65 168.05 194.4 169.25 194.85 167.15 193.65 164.45 192.5 161.95 190.1 160M225.95 147.25Q222.5 145.35 219.25 143.85 215.85 142.2 212.6 140.95 206.55 138.4 201.65 137.1L199.15 136.55 197.95 136.3 201.1 139.55Q204.4 143.4 205.4 146.25 205.8 147.4 207.4 152.25 208.2 154.9 208.6 155.05 208.95 155.15 214.75 152.55 221.4 149.5 222.5 149.1L226.7 147.7Q226.516 147.553 226.3 147.4L225.95 147.25M328.45 217.55L328.45 221.2 329.2 221.2 329.2 218.1 329.85 221.2 330.6 221.2 331.3 218.1 331.3 221.2 332 221.2 332 217.55 330.9 217.55 330.25 220.4 329.6 217.55 328.45 217.55M326.95 218.15L328.05 218.15 328.05 217.55 325.1 217.55 325.1 218.15 326.2 218.15 326.2 221.2 326.95 221.2 326.95 218.15Z"/><path fill="#FDDD00" stroke="none" d="M276.1 163.05Q274.45 162.7 269.55 162.1L264.55 161.55 265 164.6Q265.45 168.6 265.4 173.25 265.15 188.05 259.75 203.8 254.4 219.6 247.3 230.25 243.75 235.6 241.25 237.8L256.6 244.9 256.6 244.95 256.55 245.05 266 248.85Q269.6 249.95 272.9 250.5 279.75 251.65 285.3 250.25 288.15 249.55 291.05 248.45 290.6 247.65 290 247L287.3 245.05 290 247Q290.6 247.65 291.05 248.45 298 245.75 305 240.75 314.75 233.85 316.65 228.25 319.25 220.65 319.8 217.25 319.95 216.4 320.05 215.6 320.6 210.15 319.35 204.2 319.25 203.95 319.2 203.65 317.35 195.7 313.45 188.7 313.1 188.05 312.7 187.4 307.85 179.25 301.5 175.05 301.25 174.9 301.05 174.75 293.2 169.7 284.65 165.65 284.6 165.6 284.5 165.55L283.8 165.25Q282.15 164.55 278.05 163.55L276.45 163.15Q276.35 163.1 276.3 163.1L276.1 163.05M283.85 171.95Q292.45 176.7 298.05 184.55 308.05 198.5 302.15 215.9 296.95 231.1 284.55 239.6 279.9 242.75 275.25 244.25 271.2 245.55 269.15 245 265.8 244.15 260.2 242.05 264.05 234.85 266.95 228.85 272.5 217.5 276.65 205.4 280.05 195.35 281.95 184.95 283.4 174.95 283.85 171.95M208.65 168.45Q206.65 171 206.2 172 206 172.5 205.8 173.15 205.15 175.1 204.6 178.55 203.8 184.05 205.5 188.05 207.55 192.7 213.25 195.9 219.1 199.15 223.1 199.3 224.2 199.35 225.4 199.15 228.1 198.7 231.25 197.1 235.35 195 237.8 189.4 240.1 184.15 239.15 180.85 238.9 179.7 238.65 178.75 238 176.15 237.35 174.7 235.8 171.25 232 169.25 227.45 166.85 222 165.7 216.45 164.55 213.6 165.45 211.25 166.15 209.7 167.4L208.65 168.45M214.55 171Q215.8 170.35 217.35 170.05 221.5 168.75 226.45 170.4 232.5 172.45 234.25 177.55 235.15 180.1 234.85 182.2 234.7 182.05 234.5 181.9 234.6 184.1 233.95 186.5 232.35 192.15 227.7 193.75 223.35 195.25 217.65 192.9 213.2 191.1 211.1 186.6 209.25 182.8 209.8 179.15 210.25 176.05 211.5 174L211.45 174 211.55 173.95Q212.7 172 214.55 171M199.35 171.45L198.1 171.35Q197.35 173.1 195.95 175.6 192.95 180.95 189.45 183.35 184.85 186.6 178.6 185.65 172.05 184.7 167.9 181.7 167.15 181.15 166.45 180.5 167.35 183.9 168.65 187.25 174.05 200.85 178.1 206.2 182.6 212.15 189.9 214.25 198.1 216.65 209.65 210.9 210.6 210.45 211.55 209.95 219.1 205.8 225.4 199.15 224.2 199.35 223.1 199.3 219.1 199.15 213.25 195.9 207.55 192.7 205.5 188.05 203.8 184.05 204.6 178.55 205.15 175.1 205.8 173.15 204.2 172.4 202.15 171.9 200.9 171.6 199.35 171.45M205.35 205.2Q209.7 203.6 210.6 202.35 209.7 203.6 205.35 205.2 200.9 206.85 198.55 206.65 196.55 206.5 195.65 205.4L195.1 204.35 195.65 205.4Q196.55 206.5 198.55 206.65 200.9 206.85 205.35 205.2M198.7 169.45Q198.95 168.3 198.9 165.1 198.95 164.55 198.75 163.6 198.3 161.75 196.85 159.7 195.15 157.3 190.05 154.8 184.95 152.35 179.95 151.5 175.7 150.75 171.25 152.9 169.6 153.7 165.35 156.85 165.15 156.95 164.95 157.1 162.2 159.1 161.15 164.45 160 170.1 162 174.35 163.8 178.05 166.45 180.5 167.15 181.15 167.9 181.7 172.05 184.7 178.6 185.65 184.85 186.6 189.45 183.35 192.95 180.95 195.95 175.6 197.35 173.1 198.1 171.35 198.5 170.25 198.7 169.45M183.2 156.35Q187.45 157.85 190.1 160 192.3 161.7 193.45 163.75 195.85 168.15 192.95 173.25 187 183.85 176.65 181.25 170.75 179.75 167.5 174.7 164.1 169.4 166.3 163.95 166.8 162.7 167.55 161.65L167.05 161.65Q167.45 161.1 168.2 160.35 169.7 158.85 171.4 157.75 175.1 155.45 179 155.55 180.8 155.5 182.35 156.05 182.7 156.15 183.05 156.3 183.15 156.35 183.2 156.35M226.6 147.6Q226.443 147.506 226.3 147.4 226.516 147.553 226.7 147.7L222.5 149.1Q221.4 149.5 214.75 152.55 208.95 155.15 208.6 155.05 208.2 154.9 207.4 152.25 205.8 147.4 205.4 146.25 204.4 143.4 201.1 139.55L197.95 136.3 199.15 136.55Q194.8 135.5 191 135.1 183.65 134.35 179.35 136.25 179.45 136.4 179.55 136.6 179.45 136.4 179.35 136.25 178.75 136.5 178.2 136.8 174.4 139.05 170.65 144.05 167.3 148.45 166.55 151.25 165.8 153.9 165.35 156.85 169.6 153.7 171.25 152.9 175.7 150.75 179.95 151.5 184.95 152.35 190.05 154.8 195.15 157.3 196.85 159.7 198.3 161.75 198.75 163.6 198.95 164.55 198.9 165.1 198.95 168.3 198.7 169.45 198.5 170.25 198.1 171.35L199.35 171.45Q200.9 171.6 202.15 171.9 204.2 172.4 205.8 173.15 206 172.5 206.2 172 206.65 171 208.65 168.45L209.7 167.4Q211.25 166.15 213.6 165.45 216.45 164.55 222 165.7 227.45 166.85 232 169.25 235.8 171.25 237.35 174.7 238 176.15 238.65 178.75 240.7 173.3 241 168.15 241.5 159.65 237.6 155.3 235.5 152.95 230.35 149.8 228.65 148.75 226.6 147.6M190.2 145.85Q191.85 146.15 192.5 146.55 191.85 146.15 190.2 145.85 186.9 145.25 181.85 145.9 176.8 146.6 173.5 148.7L171.15 150.65 173.5 148.7Q176.8 146.6 181.85 145.9 186.9 145.25 190.2 145.85M233.85 167.25Q234.7 168.8 235 169.85 234.7 168.8 233.85 167.25 232.1 164.15 229.2 161.8 226.3 159.45 224.1 159.05L222.5 159.15 224.1 159.05Q226.3 159.45 229.2 161.8 232.1 164.15 233.85 167.25Z"/><path fill="#FFF" stroke="none" d="M215.25 174.6Q215.35 174.5 215.45 174.4L211.5 174Q210.25 176.05 209.8 179.15 209.25 182.8 211.1 186.6 213.2 191.1 217.65 192.9 223.35 195.25 227.7 193.75 232.35 192.15 233.95 186.5 234.6 184.1 234.5 181.9 233.35 180.9 230.2 179.3 230.95 181.35 230.3 183.5 228.5 189.6 221.65 189.45 219.3 189.45 217.2 188.25 213.8 186.25 213.15 181.7 212.55 177.25 215.25 174.6M215.25 170.95Q216.3 170.4 217.35 170.05 215.8 170.35 214.55 171 212.7 172 211.55 173.95L212.4 172.95Q213.65 171.75 215.25 170.95M189.9 166.55Q191.2 169.1 190.4 171.75 189.5 174.9 186.75 176.55 184.3 178.05 181.05 177.95 178.7 177.95 176.6 176.65 173.2 174.6 172.95 170 172.7 165.55 175.45 162.85 175.95 162.35 176.45 161.95 173.35 161.45 170.2 161.5L167.55 161.65Q166.8 162.7 166.3 163.95 164.1 169.4 167.5 174.7 170.75 179.75 176.65 181.25 187 183.85 192.95 173.25 195.85 168.15 193.45 163.75 192.3 161.7 190.1 160 192.5 161.95 193.65 164.45 194.85 167.15 194.4 169.25 192.65 168.05 189.9 166.55M183.05 156.3Q182.7 156.15 182.35 156.05 180.8 155.5 179 155.55 181 155.6 183.05 156.3Z"/><path fill="#BCBEC0" stroke="none" d="M216.5 174.5L215.45 174.4Q215.35 174.5 215.25 174.6 212.55 177.25 213.15 181.7 213.8 186.25 217.2 188.25 219.3 189.45 221.65 189.45 228.5 189.6 230.3 183.5 230.95 181.35 230.2 179.3 229.15 178.7 227.9 178.1 226.55 177.45 225.15 176.9 227.45 178 227.75 180.55 227.95 182.15 227.7 183 227.25 184.25 226.85 184.85 226.3 185.7 225.45 186.1 223.3 187.15 221.35 186.45 219.75 185.95 219.65 185.9 218.95 185.4 218.5 184.65 218.95 184.7 219.4 184.45 220.15 184.1 220.4 183.35 220.65 182.55 220.3 181.85 219.95 181.15 219.2 180.9 218.45 180.65 217.75 181 217.6 181.05 217.5 181.15 217.5 180.35 217.75 179.6 218.45 177.55 220.35 176.65 222.1 175.9 224.05 176.45 220.45 175.15 216.5 174.5M190.4 171.75Q191.2 169.1 189.9 166.55 189.8 166.5 189.7 166.45 183.8 163.45 178.05 162.25 177.25 162.1 176.5 161.95L176.45 161.95Q175.95 162.35 175.45 162.85 172.7 165.55 172.95 170 173.2 174.6 176.6 176.65 178.7 177.95 181.05 177.95 184.3 178.05 186.75 176.55 189.5 174.9 190.4 171.75M187.4 166.3Q188.35 167.5 188.55 169.05 188.65 170.35 188.3 171.4 187.3 174.25 185.75 175 184.35 175.7 181.45 174.75 180.2 174.5 179.75 174.15 179.5 173.95 179.3 173.8 179.6 173.7 179.95 173.55 180.85 173.05 181.2 172.05 181.55 171.1 181.1 170.15 180.65 169.2 179.65 168.85 178.65 168.5 177.75 169 177.65 169.05 177.6 169.1 177.65 168.5 177.85 167.9 178.55 165.8 180.7 164.8 182.85 163.85 184.95 164.6 186.45 165.1 187.4 166.3Z"/><path stroke="#231F20" stroke-width="2.29" stroke-linejoin="miter" stroke-linecap="round" stroke-miterlimit="10" fill="none" d="M174.3 94.7L177.6 98.95 182.25 96.45M226.3 147.425L225.95 147.25Q222.5 145.35 219.25 143.85 215.85 142.2 212.6 140.95 206.55 138.4 201.65 137.1L199.15 136.55 197.95 136.3 201.1 139.55Q204.4 143.4 205.4 146.25 205.8 147.4 207.4 152.25 208.2 154.9 208.6 155.05 208.95 155.15 214.75 152.55 221.4 149.5 222.5 149.1L226.7 147.7Q226.516 147.553 226.3 147.425 226.443 147.506 226.6 147.6 228.65 148.75 230.35 149.8L234.65 149.05Q239.5 147.7 241.6 144.55 243.1 142.4 245.65 136.95 247.4 133.25 250.95 129.75 252.05 128.65 253.3 127.6L250.8 123M175.85 106.95L180.8 104.95Q179.7 102.2 177.9 99.35L177.6 98.95 173.65 101.05M179.35 136.25Q177.75 132.9 178.4 128.65 178.8 126.05 181.1 119.8 182.7 115.45 182.2 110.5 181.9 107.75 180.8 104.95L184.9 103.25M179.55 136.6Q179.45 136.4 179.35 136.25 178.75 136.5 178.2 136.8 174.4 139.05 170.65 144.05 167.3 148.45 166.55 151.25 165.8 153.9 165.35 156.85M198.1 171.35L199.35 171.45Q200.9 171.6 202.15 171.9 204.2 172.4 205.8 173.15M238.65 178.75Q240.7 173.3 241 168.15 241.5 159.65 237.6 155.3 235.5 152.95 230.35 149.8M199.15 136.55Q194.8 135.5 191 135.1 183.65 134.35 179.35 136.25M171.15 150.65L173.5 148.7Q176.8 146.6 181.85 145.9 186.9 145.25 190.2 145.85 191.85 146.15 192.5 146.55M166.45 180.5Q167.35 183.9 168.65 187.25 174.05 200.85 178.1 206.2 182.6 212.15 189.9 214.25 198.1 216.65 209.65 210.9 210.6 210.45 211.55 209.95 219.1 205.8 225.4 199.15M241 168.15L241.3 167.7 244 166Q247.6 164.05 252 162.9 263.15 160.05 276.1 163.05L276.3 163.1Q276.35 163.1 276.45 163.15L278.05 163.55Q282.15 164.55 283.8 165.25L284.5 165.55Q284.6 165.6 284.65 165.65 294.2 169.15 301.5 175.05 307.85 179.25 312.7 187.4 313.1 188.05 313.45 188.7 318.3 196.55 319.35 204.2 320.6 210.15 320.05 215.6 320.25 219.4 320.5 221.4 320.6 223.1 322.85 226.15 324 227.65 325.1 228.8 322.75 229.7 319.75 231.1 313.8 233.9 310.7 236.5 301.65 244.1 296.45 246.65 293.85 247.95 291.25 248.8 292.4 251.3 291.95 254.65 291.25 259.4 286.65 265.95 284.35 269.25 282.2 271.55M222.5 159.15L224.1 159.05Q226.3 159.45 229.2 161.8 232.1 164.15 233.85 167.25 234.7 168.8 235 169.85M256.7 119.1L258.55 123.55Q259.3 123 260.05 122.5 262.7 120.8 264.5 119.85M255.5 131.6L253.3 127.6Q255.7 125.5 258.55 123.55L260.45 128.1M276.1 163.05Q274.45 162.7 269.55 162.1L264.55 161.55 265 164.6Q265.45 168.6 265.4 173.25 265.15 188.05 259.75 203.8 254.4 219.6 247.3 230.25 243.75 235.6 241.25 237.8L256.6 244.9 256.6 244.95 256.55 245.05 266 248.85Q269.6 249.95 272.9 250.5 279.75 251.65 285.3 250.25 288.15 249.55 291.05 248.45 290.6 247.65 290 247L287.3 245.05M301.5 175.05Q301.25 174.9 301.05 174.75 293.2 169.7 284.65 165.65M269.15 245Q265.8 244.15 260.2 242.05 264.05 234.85 266.95 228.85 272.5 217.5 276.65 205.4 280.05 195.35 281.95 184.95 283.4 174.95 283.85 171.95 292.45 176.7 298.05 184.55 308.05 198.5 302.15 215.9 296.95 231.1 284.55 239.6 279.9 242.75 275.25 244.25 271.2 245.55 269.15 245ZM291.05 248.45Q298 245.75 305 240.75 314.75 233.85 316.65 228.25 319.25 220.65 319.8 217.25 319.95 216.4 320.05 215.6M319.35 204.2Q319.25 203.95 319.2 203.65 317.35 195.7 313.45 188.7M272.9 250.5L272.2 251.9Q270.65 255.45 270.5 258.15 270.4 260.85 271.4 263.25 271.9 264.45 272.4 265.1M291.05 248.45Q291.15 248.6 291.25 248.8 288.3 249.8 285.3 250.25M195.1 204.35L195.65 205.4Q196.55 206.5 198.55 206.65 200.9 206.85 205.35 205.2 209.7 203.6 210.6 202.35M218.4 220.65L214.5 215.55Q214.3 215.25 214.1 214.95 214 214.8 213.95 214.65 213.6 214.15 213.35 213.7L211.55 209.95M218.4 220.65Q219 221.3 219.6 222L221.3 223.75Q226.2 228.7 234.3 233.8 234.45 232.75 234.5 231.6L234.5 225.9M219.05 221.4Q218.25 222.65 217.45 224 215 228 214.7 228.7 214.35 229.45 215.1 233.55 215.5 235.6 215.95 237.5M256.6 244.95Q248.35 241.7 240.4 237.35 237.15 235.55 234.3 233.8 233.75 238.55 232.05 241.2 230 244.4 226.7 247.1 225.1 248.4 223.85 249.1"/><path stroke="#231F20" stroke-width="1.7" stroke-linejoin="miter" stroke-linecap="butt" stroke-miterlimit="10" fill="none" d="M165.35 156.85Q169.6 153.7 171.25 152.9 175.7 150.75 179.95 151.5 184.95 152.35 190.05 154.8 195.15 157.3 196.85 159.7 198.3 161.75 198.75 163.6 198.95 164.55 198.9 165.1 198.95 168.3 198.7 169.45 198.5 170.25 198.1 171.35M205.8 173.15Q206 172.5 206.2 172 206.65 171 208.65 168.45L209.7 167.4Q211.25 166.15 213.6 165.45 216.45 164.55 222 165.7 227.45 166.85 232 169.25 235.8 171.25 237.35 174.7 238 176.15 238.65 178.75M166.45 180.5Q163.8 178.05 162 174.35 160 170.1 161.15 164.45 162.2 159.1 164.95 157.1 165.15 156.95 165.35 156.85M198.1 171.35Q197.35 173.1 195.95 175.6 192.95 180.95 189.45 183.35 184.85 186.6 178.6 185.65 172.05 184.7 167.9 181.7 167.15 181.15 166.45 180.5M225.4 199.15Q224.2 199.35 223.1 199.3 219.1 199.15 213.25 195.9 207.55 192.7 205.5 188.05 203.8 184.05 204.6 178.55 205.15 175.1 205.8 173.15M225.4 199.15Q228.1 198.7 231.25 197.1 235.35 195 237.8 189.4 240.1 184.15 239.15 180.85 238.9 179.7 238.65 178.75"/><path stroke="#231F20" stroke-width="1.2" stroke-linejoin="round" stroke-linecap="butt" fill="none" d="M167.55 161.65L167.05 161.65Q167.45 161.1 168.2 160.35 169.7 158.85 171.4 157.75 175.1 155.45 179 155.55 181 155.6 183.05 156.3M189.9 166.55Q189.8 166.5 189.7 166.45 183.8 163.45 178.05 162.25 177.25 162.1 176.5 161.95L176.45 161.95Q173.35 161.45 170.2 161.5L167.55 161.65M190.1 160Q192.5 161.95 193.65 164.45 194.85 167.15 194.4 169.25 192.65 168.05 189.9 166.55M217.35 170.05Q216.3 170.4 215.25 170.95 213.65 171.75 212.4 172.95L211.55 173.95 211.45 174 211.5 174 215.45 174.4 216.5 174.5Q220.45 175.15 224.05 176.45 224.6 176.65 225.15 176.9 226.55 177.45 227.9 178.1 229.15 178.7 230.2 179.3 233.35 180.9 234.5 181.9 234.7 182.05 234.85 182.2 235.15 180.1 234.25 177.55 232.5 172.45 226.45 170.4 221.5 168.75 217.35 170.05Z"/><path stroke="#231F20" stroke-width="1.2" stroke-linejoin="miter" stroke-linecap="butt" stroke-miterlimit="10" fill="none" d="M183.05 156.3Q183.15 156.35 183.2 156.35 187.45 157.85 190.1 160 192.3 161.7 193.45 163.75 195.85 168.15 192.95 173.25 187 183.85 176.65 181.25 170.75 179.75 167.5 174.7 164.1 169.4 166.3 163.95 166.8 162.7 167.55 161.65M179 155.55Q180.8 155.5 182.35 156.05 182.7 156.15 183.05 156.3M176.45 161.95Q175.95 162.35 175.45 162.85 172.7 165.55 172.95 170 173.2 174.6 176.6 176.65 178.7 177.95 181.05 177.95 184.3 178.05 186.75 176.55 189.5 174.9 190.4 171.75 191.2 169.1 189.9 166.55M217.35 170.05Q215.8 170.35 214.55 171 212.7 172 211.55 173.95M215.45 174.4Q215.35 174.5 215.25 174.6 212.55 177.25 213.15 181.7 213.8 186.25 217.2 188.25 219.3 189.45 221.65 189.45 228.5 189.6 230.3 183.5 230.95 181.35 230.2 179.3M234.5 181.9Q234.6 184.1 233.95 186.5 232.35 192.15 227.7 193.75 223.35 195.25 217.65 192.9 213.2 191.1 211.1 186.6 209.25 182.8 209.8 179.15 210.25 176.05 211.5 174"/></g></g><animate attributeName="display" repeatCount="indefinite" dur="3s" keyTimes="0;.014;.028;1" values="none;inline;none;none"/></g><g><use xlink:href="#Symbol-2f0" transform="translate(20.2 73.05)"/><animate attributeName="display" repeatCount="indefinite" dur="3s" keyTimes="0;.014;1" values="inline;none;none"/></g></g></svg>