<?xml version="1.0" encoding="utf-8"?>
<!-- Generator: Adobe Illustrator 17.0.0, SVG Export Plug-In . SVG Version: 6.00 Build 0)  -->
<!DOCTYPE svg PUBLIC "-//W3C//DTD SVG 1.1//EN" "http://www.w3.org/Graphics/SVG/1.1/DTD/svg11.dtd">
<svg version="1.1" id="Layer_1" xmlns="http://www.w3.org/2000/svg" xmlns:xlink="http://www.w3.org/1999/xlink" x="0px" y="0px"
	 width="800px" height="600px" viewBox="0 0 800 600" enable-background="new 0 0 800 600" xml:space="preserve">
<g>
	<g>
		<path d="M452.654,321.102c1.401-58.059-8.668-112.821-38.413-154.281c-22.838-31.831-49.65-45.01-89.693-37.265
			c-74.003,14.31-95.81,122.278-98.829,147.51c-5.477,45.721-4.756,97.324,11.1,141.508c8.089,22.523,21.93,43.563,44.27,55.89
			c31.744,17.511,73.323,15.531,104.086-3.301C432.097,442.438,451.199,381.491,452.654,321.102z M404.855,360.616
			c-4.566,26.012-19.748,80.209-64.595,82.539c-44.847,2.332-61.425-27.599-68.901-66.03c-5.628-28.943-6.367-61.383-2.154-96.175
			c4.982-41.148,26.924-109.938,67.467-111.247c44.498-1.435,58.884,38.265,68.435,81.354
			C414.657,294.148,409.422,334.608,404.855,360.616z"/>
		<path fill="#FFFFFF" d="M361.683,136.491c-9.511,1.193-7.762,15.119,1.746,13.924
			C372.942,149.224,371.192,135.296,361.683,136.491z"/>
		<path fill="#FFFFFF" d="M408.87,179.113c-2.508-13.148-9.811-26.07-22.94-31.97c-8.632-3.881-14.502,9.108-5.934,12.959
			c8.129,3.653,12.598,12.843,14.128,20.86C395.81,189.813,410.568,188.016,408.87,179.113z"/>
	</g>
	<g>
		<path d="M414.121,248.373c0,12.968-10.515,23.479-23.484,23.479c-12.97,0-23.484-10.512-23.484-23.479
			c0-12.972,10.514-23.486,23.484-23.486C403.606,224.888,414.121,235.401,414.121,248.373z"/>
		<circle fill="#FFFFFF" cx="391.102" cy="247.441" r="21.73"/>
		<path d="M393.805,248.773c0,5.652-4.581,10.234-10.232,10.234c-5.648,0-10.23-4.583-10.23-10.234c0-5.647,4.582-10.23,10.23-10.23
			C389.224,238.543,393.805,243.126,393.805,248.773z"/>
		<circle fill="#FFFFFF" cx="387.359" cy="245.091" r="3.218"/>
	</g>
	<g>
		<circle cx="288.331" cy="246.075" r="23.482"/>
		<circle fill="#FFFFFF" cx="288.797" cy="245.145" r="20.625"/>
		<circle cx="296.368" cy="246.509" r="10.231"/>
		<circle fill="#FFFFFF" cx="300.152" cy="242.83" r="3.218"/>
	</g>
</g>
</svg>
