<?xml version="1.0" encoding="utf-8"?>
<!-- Generator: Adobe Illustrator 16.0.0, SVG Export Plug-In . SVG Version: 6.00 Build 0)  -->
<!DOCTYPE svg PUBLIC "-//W3C//DTD SVG 1.1//EN" "http://www.w3.org/Graphics/SVG/1.1/DTD/svg11.dtd">
<svg version="1.1" id="Layer_1" xmlns="http://www.w3.org/2000/svg" xmlns:xlink="http://www.w3.org/1999/xlink" x="0px" y="0px"
	 width="60px" height="60px" viewBox="0 0 60 60" enable-background="new 0 0 60 60" xml:space="preserve">
<g>
	<path fill-rule="evenodd" clip-rule="evenodd" fill="#F9C9CB" d="M18.674,56.185c2.239-2.1,6.279-5.511,14.229-9.104
		c3.307-1.495,6.719-2.768,10.122-4.039c1.884-0.704,2.751-1.085,4.731-0.878c0.986,0.104,1.897,0.266,1.986,0.831
		c0.141,0.898-1.794,2.104-2.771,2.794c-3.354,2.37-9.264,6.203-15.75,8.826c-3.833,1.551-7.583,2.775-11.441,3.389
		C18.154,58.262,16.441,58.278,18.674,56.185z"/>
	<path fill-rule="evenodd" clip-rule="evenodd" fill="#F37A54" d="M39.482,46.403c-0.25,0.21-0.344,0.245-1.005,0.222
		c-0.203-0.007-0.596-0.188-0.844-0.189c-0.281-0.001-0.496,0.289-0.84,0.139c-0.215-0.093-0.225-0.69-0.211-0.93
		c-0.34-1.679-0.342-4.052-5.474-3.297l1.31-1.188c4.196-0.298,4.297,0.744,4.785,4.18c1.033,0.213,1.074,0.437,2.017,0.561
		C39.794,45.976,39.699,46.22,39.482,46.403z"/>
	<path fill-rule="evenodd" clip-rule="evenodd" fill="#F37A54" d="M37.413,47.916c-0.258,0.2-0.354,0.23-1.013,0.181
		c-0.203-0.016-0.587-0.214-0.835-0.226c-0.281-0.013-0.508,0.268-0.846,0.104c-0.21-0.103-0.194-0.7-0.171-0.938
		c-0.27-1.692-0.171-4.063-5.33-3.525l1.358-1.131c4.205-0.121,4.261,0.924,4.605,4.377c1.023,0.257,1.055,0.481,1.991,0.646
		C37.743,47.502,37.638,47.743,37.413,47.916z"/>
	<circle fill-rule="evenodd" clip-rule="evenodd" fill="#3D3838" cx="26.44" cy="29.892" r="3.811"/>
	<path fill-rule="evenodd" clip-rule="evenodd" fill="#F37A54" d="M26.063,28.307c2.645-0.793,5.397,0.412,6.792,2.643
		c0.054-0.067,0.119-0.123,0.196-0.167c0.382-0.214,0.898-0.02,1.153,0.435c0.256,0.454,0.153,0.996-0.229,1.211
		c-0.097,0.055-0.204,0.083-0.313,0.087c0.848,1.9,1.382,4.063,1.448,6.084c0.148,4.532-8.976,6.983-10.962,3.118
		c-0.91-1.77-1.725-3.737-2.102-5.719c-0.091,0.054-0.192,0.087-0.301,0.095c-0.437,0.031-0.821-0.366-0.857-0.886
		c-0.037-0.52,0.288-0.967,0.725-0.997c0.077-0.006,0.153,0.002,0.225,0.021C21.774,31.572,23.448,29.09,26.063,28.307z"/>
	<path fill-rule="evenodd" clip-rule="evenodd" fill="#005495" d="M35.111,38.6c0.148,4.532-8.976,6.983-10.962,3.118
		C27.696,43.092,33.718,41.993,35.111,38.6z"/>
	<path fill-rule="evenodd" clip-rule="evenodd" fill="#3D3838" d="M21.839,34.243c0.876-1.505,1.993-1.621,2.186-3.79
		c1.253,1.602,5.596-1.184,8.827,0.491c-1.396-2.228-4.152-3.449-6.795-2.657C23.439,29.072,21.77,31.579,21.839,34.243z"/>
	<path fill-rule="evenodd" clip-rule="evenodd" fill="#3D3838" d="M27.554,34.881c-0.222,0.481,0.219,0.904,0.685,0.771
		c0.535-0.153,0.64-0.786,0.142-1.04c0.63,0.135,0.557,0.975-0.106,1.166C27.711,35.94,27.152,35.367,27.554,34.881z"/>
	<path fill-rule="evenodd" clip-rule="evenodd" fill="#B8292F" d="M29.603,36.681c0.099,0.496-0.189,1.069-0.618,1.197
		c-0.432,0.13-0.852-0.057-1.172-0.554l-0.005-0.009C28.41,37.396,29.179,37.125,29.603,36.681z"/>
	<path fill-rule="evenodd" clip-rule="evenodd" fill="#B8292F" d="M28.433,36.096c0.344-0.491,0.879-0.323,1.031,0.11
		c-0.613,0.424-1.31,0.585-1.831,0.61C27.464,36.368,27.89,35.963,28.433,36.096z"/>
	<path fill-rule="evenodd" clip-rule="evenodd" fill="#3D3838" d="M31.519,34.818c-1.506,1.436-4.403,2.186-6.564,1.985
		c-0.067,0.027-0.234,0.182-0.123,0.22c3.116,1.096,5.112,0.471,6.923-2.103C31.798,34.859,31.688,34.821,31.519,34.818z"/>
	
		<ellipse transform="matrix(-0.287 -0.9579 0.9579 -0.287 0.8094 68.4794)" fill-rule="evenodd" clip-rule="evenodd" fill="#FFFFFF" cx="25.89" cy="33.938" rx="1.727" ry="1.352"/>
	<path fill-rule="evenodd" clip-rule="evenodd" fill="#3D3838" d="M26.159,34.835c0.389-0.116,0.583-0.612,0.436-1.107
		c-0.149-0.496-0.584-0.803-0.974-0.687c-0.389,0.116-0.583,0.612-0.436,1.108c0.037,0.123,0.092,0.233,0.159,0.33l0.469-0.343
		l-0.175,0.621C25.801,34.854,25.985,34.888,26.159,34.835z"/>
	<path fill-rule="evenodd" clip-rule="evenodd" fill="#F37A54" d="M27.098,32.811l-2.746,0.736
		C23.983,32.15,25.934,30.657,27.098,32.811z"/>
	<path fill-rule="evenodd" clip-rule="evenodd" fill="#3D3838" d="M27.016,32.835c-0.847,0.222-1.582,0.615-2.465,0.783
		c-0.463,0.088-1.189-0.109-1.01-0.82c0.114,0.528,0.605,0.6,0.98,0.544C25.382,33.217,26.304,32.864,27.016,32.835z"/>
	
		<ellipse transform="matrix(-0.2869 -0.958 0.958 -0.2869 6.219 70.4448)" fill-rule="evenodd" clip-rule="evenodd" fill="#FFFFFF" cx="29.329" cy="32.908" rx="1.727" ry="1.352"/>
	<path fill-rule="evenodd" clip-rule="evenodd" fill="#3D3838" d="M29.598,33.805c0.39-0.116,0.586-0.613,0.438-1.108
		c-0.148-0.496-0.585-0.803-0.976-0.686c-0.39,0.117-0.586,0.613-0.438,1.108c0.037,0.123,0.092,0.234,0.159,0.33l0.471-0.343
		l-0.176,0.622C29.239,33.825,29.423,33.857,29.598,33.805z"/>
	<path fill-rule="evenodd" clip-rule="evenodd" fill="#F37A54" d="M27.7,32.631l2.698-0.896
		C29.938,30.366,27.488,30.191,27.7,32.631z"/>
	<path fill-rule="evenodd" clip-rule="evenodd" fill="#3D3838" d="M27.781,32.605c0.83-0.281,1.66-0.356,2.49-0.702
		c0.436-0.181,0.934-0.745,0.393-1.24c0.195,0.504-0.176,0.833-0.52,0.993C29.356,32.026,28.393,32.238,27.781,32.605z"/>
	<path fill-rule="evenodd" clip-rule="evenodd" fill="#3D3838" d="M31.04,39.188c0,0-0.375-1.17,0.446-1.963
		c0,0-0.584,0.863-0.152,1.831L31.04,39.188z"/>
	<path fill-rule="evenodd" clip-rule="evenodd" fill="#3D3838" d="M31.515,38.977c0,0-0.62-1.061-1.757-0.979
		c0,0,1.032,0.142,1.464,1.11L31.515,38.977z"/>
	<path fill-rule="evenodd" clip-rule="evenodd" fill="#005495" d="M29.065,28.208c-0.964-0.232-1.995-0.225-3.008,0.079
		c-1.011,0.303-1.881,0.863-2.564,1.591C25.541,28.509,27.038,28.059,29.065,28.208z"/>
	<path fill-rule="evenodd" clip-rule="evenodd" fill="#3D3838" d="M24.429,32.618c0.393-0.726,1.153-1.623,1.728-0.85
		C26.156,31.769,25.417,31.578,24.429,32.618z"/>
	<path fill-rule="evenodd" clip-rule="evenodd" fill="#3D3838" d="M29.893,30.981c-0.729-0.39-1.86-0.72-1.915,0.242
		C27.978,31.223,28.492,30.656,29.893,30.981z"/>
	<path fill-rule="evenodd" clip-rule="evenodd" fill="#3D3838" d="M25.25,36.738c-0.361,0.069-0.441,0.319-0.479,0.549
		C24.584,36.878,24.92,36.6,25.25,36.738z"/>
	<path fill-rule="evenodd" clip-rule="evenodd" fill="#3D3838" d="M31.254,34.938c0.343-0.141,0.548,0.023,0.707,0.194
		C31.892,34.688,31.455,34.641,31.254,34.938z"/>
	<path fill-rule="evenodd" clip-rule="evenodd" fill="#F37A54" d="M40.993,34.48c-0.002-0.374,0.059-0.643-0.475-0.964
		c-2.446,1.629-5.427,2.201-6.184,2.164c-0.378-0.013-0.401,0.617,0.044,0.646C35.44,36.417,38.234,35.833,40.993,34.48z"/>
	
		<ellipse transform="matrix(-0.4076 -0.9132 0.9132 -0.4076 5.5012 82.8492)" fill-rule="evenodd" clip-rule="evenodd" fill="#005495" cx="29.625" cy="39.64" rx="1.071" ry="1.949"/>
	
		<ellipse transform="matrix(-0.408 -0.913 0.913 -0.408 11.3032 83.7662)" fill-rule="evenodd" clip-rule="evenodd" fill="#005495" cx="32.811" cy="38.218" rx="1.071" ry="1.95"/>
	<path fill-rule="evenodd" clip-rule="evenodd" fill="#3D3838" d="M31.892,39.509c0.034-0.023,12.067-8.419,18.321-10.616
		l0.173,0.498c-6.18,2.171-18.158,10.529-18.193,10.553L31.892,39.509z"/>
	<path fill-rule="evenodd" clip-rule="evenodd" fill="#005495" d="M28.006,40.534c-1.454,0.174-2.916,0.118-4.515-0.175
		c-0.059-0.13-0.117-0.261-0.174-0.392c1.628,0.348,3.147,0.387,4.664,0.216L28.006,40.534z"/>
	<path fill-rule="evenodd" clip-rule="evenodd" fill="#005495" d="M32.562,38.643c0.004-0.003,1.311-0.733,2.382-1.801
		c-0.022-0.144-0.046-0.286-0.072-0.43c-1.061,1.129-2.478,1.922-2.482,1.924L32.562,38.643z"/>
	<path fill-rule="evenodd" clip-rule="evenodd" fill="#F37A54" d="M40.267,33.366c0.884-0.517,1.228-0.483,1.601,0.212
		c0.372,0.696-0.703,1.341-1.245,1.307C39.872,34.838,39.382,33.883,40.267,33.366z"/>
	<g>
		<path fill-rule="evenodd" clip-rule="evenodd" fill="#FFFFFF" d="M33.151,9.265c0.015-0.008,4.021-2.298,8.085-4.117
			c0.392,0.771,1.015,1.876,1.051,2.176c-3.953,1.699-8.651,4.582-8.638,4.45L33.151,9.265z"/>
		<path fill-rule="evenodd" clip-rule="evenodd" fill="#FFFFFF" d="M32.549,17.825c0.021-0.012,6.486-3.519,12.158-5.707
			c0.336,0.886,0.418,1.862,0.591,2.439c-5.558,2.147-11.949,5.615-11.971,5.626L32.549,17.825z"/>
		<path fill-rule="evenodd" clip-rule="evenodd" fill="#FFFFFF" d="M32.098,25.78c0.024-0.013,7.79-4.249,15.13-6.575
			c0.242,0.553,0.641,2.015,0.707,2.384c-7.196,2.282-14.833,6.447-14.857,6.46L32.098,25.78z"/>
		<path fill-rule="evenodd" clip-rule="evenodd" fill="#FFFFFF" d="M32.339,34.618c0.035-0.019,11.132-5.68,17.139-7.82
			c0.091,0.502,0.382,1.973,0.419,2.494c-5.908,2.141-16.744,7.683-16.779,7.701L32.339,34.618z"/>
	</g>
	<path fill-rule="evenodd" clip-rule="evenodd" fill="#A5CD39" d="M33.543,9.657c0.015-0.008,4.021-2.298,8.086-4.117
		c0.392,0.771,0.566,0.953,0.603,1.253c-3.981,1.783-7.98,4.078-7.994,4.086L33.543,9.657z"/>
	<path fill-rule="evenodd" clip-rule="evenodd" fill="#A5CD39" d="M32.94,18.217c0.021-0.011,6.486-3.519,12.158-5.707
		c0.337,0.886,0.307,0.743,0.479,1.32c-5.558,2.147-11.949,5.615-11.971,5.626L32.94,18.217z"/>
	<path fill-rule="evenodd" clip-rule="evenodd" fill="#A5CD39" d="M32.49,26.172c0.024-0.013,7.789-4.249,15.13-6.575
		c0.241,0.553,0.333,0.979,0.398,1.349c-7.196,2.282-14.832,6.447-14.856,6.46L32.49,26.172z"/>
	<path fill-rule="evenodd" clip-rule="evenodd" fill="#A5CD39" d="M32.73,35.01c0.035-0.018,11.133-5.68,17.14-7.819
		c0.09,0.502,0.213,0.882,0.25,1.403c-5.908,2.141-16.716,7.655-16.751,7.672L32.73,35.01z"/>
	<path fill-rule="evenodd" clip-rule="evenodd" fill="#3D3838" d="M31.504,40.567c0.474,0.428,1.373,0.518,1.266,0.261
		c-0.113-0.271-0.599-0.419-0.599-0.419c0.453,0.128,1.186-0.016,0.95-0.246s-0.927-0.219-0.927-0.219
		c0.464-0.018,1.047-0.246,0.853-0.444c-0.193-0.197-0.685-0.053-0.988,0.006c0.359-0.365,0.389-0.749,0.087-0.73
		c-0.303,0.019-0.709,0.242-0.806,0.416c-2.959,0.446-5.229,0.092-6.429-0.143c-0.009,0.198-0.051,0.386-0.222,0.541
		C25.658,40.217,28.435,40.726,31.504,40.567z"/>
	<path fill-rule="evenodd" clip-rule="evenodd" fill="#F37A54" d="M31.535,40.333c0.485,0.414,1.388,0.479,1.272,0.226
		c-0.12-0.267-0.61-0.402-0.61-0.402c0.457,0.115,1.186-0.049,0.943-0.272c-0.241-0.224-0.932-0.192-0.932-0.192
		c0.463-0.03,1.039-0.274,0.84-0.468c-0.199-0.192-0.687-0.034-0.988,0.033c0.35-0.375,0.422-0.813,0.02-0.653
		c-0.332,0.133-0.539,0.483-0.631,0.659c-2.875,0.615-5.856,0.049-6.546-0.265c-0.347-0.15-0.601,0.426-0.198,0.617
		C25.66,40.09,28.472,40.576,31.535,40.333z"/>
	<path fill-rule="evenodd" clip-rule="evenodd" fill="#FFFFFF" d="M33.907,0.698c1.442,0.589,3.141,1.427,4.657,2.391
		c1.243,0.791,2.365,1.669,3.13,2.568l0.017,0.024c4.405,7.431,7.197,16.471,8.888,24.898l-0.013,0.107
		c-1.3,2.854-3.509,6.152-7.126,9.114c-2.815,2.306-6.457,4.268-11.218,5.797l-0.191-2.114c6.858-2.482,14.675-7.912,17.507-14.899
		c-0.096-0.605-0.288-1.214-0.69-2.664c-2.054-7.386-4.5-14.085-7.703-19.88c-1.39-1.418-4.812-3.468-7.445-4.459L33.907,0.698z"/>
	<path fill-rule="evenodd" clip-rule="evenodd" fill="#A5CD39" d="M33.89,0.747c0,0-3.696,23.354-1.567,44.804
		c0,0,4.24-1.283,7.855-3.528c3.614-2.245,7.835-5.887,10.465-11.426c0,0-0.166-0.791-0.493-2.132
		c-2.697,6.939-8.031,11.392-16.203,15.127c-1.38-20.342,0.791-35.842,2.064-41.835C35.635,1.535,34.41,0.969,33.89,0.747z"/>
	<path fill-rule="evenodd" clip-rule="evenodd" fill="#3D3838" d="M34.058,0.698c1.441,0.589,3.141,1.427,4.656,2.391
		c1.243,0.791,2.366,1.669,3.13,2.568l0.018,0.024c1.695,2.859,3.501,6.868,5.113,11.386c1.509,4.228,2.851,8.907,3.773,13.512
		l0.008,0.055l-0.02,0.053c-1.3,2.854-3.509,6.152-7.126,9.114c-2.815,2.306-6.486,4.407-11.246,5.937l-0.107-0.334
		c4.713-1.515,8.345-3.595,11.13-5.875c3.549-2.906,5.723-6.137,7.007-8.937c-0.919-4.563-2.251-9.206-3.751-13.406
		c-1.603-4.492-3.396-8.474-5.077-11.313c-0.739-0.867-1.83-1.718-3.04-2.488c-1.498-0.953-3.176-1.781-4.601-2.363L34.058,0.698z"
		/>
	<path fill-rule="evenodd" clip-rule="evenodd" fill="#FFFFFF" d="M32.422,50.137c-0.338-2.338-0.944-8.686-1.025-17.48
		c-0.052-5.591,0.107-12.165,0.683-19.313c0.172-2.141,0.39-4.416,0.663-6.745c0.239-2.043,0.522-4.133,0.857-6.216l0.693,0.11
		c-0.329,2.052-0.611,4.134-0.852,6.186c-0.271,2.313-0.488,4.581-0.66,6.72c-0.574,7.144-0.734,13.692-0.683,19.252
		c0.08,8.747,0.684,15.062,1.02,17.386L32.422,50.137z"/>
</g>
</svg>
