<svg width="100" height="100" xmlns="http://www.w3.org/2000/svg" xml:space="preserve" enable-background="new 0 0 53 45.5" version="1.1">

 <g>
  <title>Layer 1</title>
  <g stroke="null" id="svg_1">
   <polygon stroke="null" id="svg_2" points="98.20689377481972,43.45432536440114 16.682910355857302,96.18896272235054 1.9110116958618164,86.63582482191543 83.43499016660348,33.90117954681284 " fill="#010101" opacity="0.3"/>
   <g stroke="null" id="svg_3">
    <polygon stroke="null" id="svg_4" points="55.90725434340925,67.49707285862735 51.26059796001641,64.49172942184907 51.26059796001641,58.59096034471588 55.90725434340925,61.598793726174904 " fill="#5B87C5"/>
    <polygon stroke="null" id="svg_5" points="53.55893961622019,61.77866748825511 52.4322495446238,61.04669896507096 55.1303163900609,64.46674288635643 55.1303163900609,67.96922020673867 56.257006461657284,68.69621279913792 56.257006461657284,65.19621354770663 " fill="#81A1CC"/>
    <polygon stroke="null" id="svg_6" points="52.95437392229701,65.72084370436698 49.01719738842962,66.03311206079945 48.9822233641778,68.80862054024203 52.53966947921322,71.1119658372669 54.34337511364697,68.83111317247733 " fill="#81A1CC"/>
    <g stroke="null" id="svg_7">
     <polygon stroke="null" id="svg_8" points="51.492926820609455,68.36894935454859 51.96258026546343,69.95030569999528 51.502906392215436,71.87392057818818 50.32626304251676,73.34038319642661 49.079655810008035,74.02738624802316 47.72313473965255,73.62767293451964 47.40085910157791,71.74152202525931 48.30770962175097,69.88285947190218 49.40191957235288,68.28649220399222 50.48365208951486,67.96922020673867 " fill="#FDEB7B"/>
     <polygon stroke="null" id="svg_9" points="48.36766622291884,67.43211261663839 51.70526882795434,69.59556181665596 51.640308585965386,69.3007666173313 48.302713898083084,67.14481496139217 " fill="#F5A62E"/>
     <polygon stroke="null" id="svg_10" points="48.36766622291884,68.251522138317 51.70526882795434,70.40995978036028 51.640308585965386,70.12018405616311 48.302713898083084,67.95674277329874 " fill="#F5A62E"/>
     <polygon stroke="null" id="svg_11" points="48.36766622291884,69.06842983958506 51.70526882795434,71.22188759226685 51.640308585965386,70.93709967458437 48.302713898083084,68.77365047456681 " fill="#F5A62E"/>
     <polygon stroke="null" id="svg_12" points="48.36766622291884,69.88285947190218 51.70526882795434,72.03880321068812 51.640308585965386,71.74901956933775 48.302713898083084,69.59055817583487 " fill="#F5A62E"/>
     <polygon stroke="null" id="svg_13" points="47.92048561741717,70.40995978036028 51.26059796001641,72.56843700816955 51.1981355798614,72.27863753251279 47.8605329748259,70.12018405616311 " fill="#F5A62E"/>
     <polygon stroke="null" id="svg_14" points="47.92048561741717,71.2243814955242 50.848391378766564,73.11803786601615 50.7884268604455,72.82823839035939 47.8605329748259,70.93709967458437 " fill="#F5A62E"/>
     <polygon stroke="null" id="svg_15" points="47.92048561741717,72.04130503109866 50.38122392001674,73.62767293451964 50.32626304251676,73.34038319642661 47.8605329748259,71.7515055554419 " fill="#F5A62E"/>
     <polygon stroke="null" id="svg_16" points="47.92048561741717,72.85322492585203 49.76665886160458,74.04986304595207 49.706702260436714,73.7600714874485 47.8605329748259,72.56843700816955 " fill="#F5A62E"/>
     <g stroke="null" id="svg_17">
      <path stroke="null" id="svg_18" d="m44.48545,68.75616c0,-0.60956 0.38472,-1.35653 0.85938,-1.65881c0.23233,-0.15239 0.44718,-0.16988 0.59957,-0.06995l0,0l4.42183,2.85795l-0.06995,0.19486c0,0 -0.52213,-0.02498 -0.77944,0.32727c-0.25232,0.35225 -0.31977,0.59457 -0.44718,0.88936l0,0l0,0.31977l0.22734,0.26731l-0.14989,0.34725l-4.39934,-2.84546c-0.00749,-0.0025 -0.01499,-0.00999 -0.01999,-0.01249l0,0l0,0c-0.14989,-0.10492 -0.24233,-0.31727 -0.24233,-0.61706z" fill="#F5A62E"/>
      <path stroke="null" id="svg_19" d="m49.75417,69.9453c-0.47466,0.30728 -0.85439,1.04925 -0.85439,1.66381c0,0.61206 0.37973,0.86188 0.85439,0.5571c0.46966,-0.30728 0.85439,-1.05175 0.85439,-1.66381c0,-0.60956 -0.38472,-0.85938 -0.85439,-0.5571l0,0z" fill="#FFC656"/>
     </g>
     <path stroke="null" id="svg_20" d="m43.82343,70.83966c0,-1.99357 1.2491,-4.41933 2.788,-5.41361c0.76445,-0.49464 1.45645,-0.54461 1.95859,-0.22734l0,0l3.18022,2.04853l-0.22484,0.63205c0,0 -1.70378,-0.07495 -2.52819,1.07173s-1.05924,1.94111 -1.45895,2.89292l0,0l0,1.04925l0.74197,0.86688l-0.47966,1.14668l-3.12775,-2.02854c-0.01749,-0.01249 -0.03497,-0.02498 -0.05746,-0.03997l-0.0025,0l0,0c-0.48965,-0.33476 -0.78943,-1.02926 -0.78943,-1.99857z" fill="#102134"/>
     <path stroke="null" id="svg_21" d="m49.76666,68.66872c1.02426,-0.66202 1.86116,-0.12491 1.86116,1.20663c0,1.32155 -0.8344,2.94039 -1.86116,3.59992c-1.01927,0.66452 -1.85867,0.12241 -1.85867,-1.19914c0,-1.32405 0.8394,-2.94039 1.85867,-3.60741l0,0zm0,-1.20164c-1.54139,0.99429 -2.7905,3.41755 -2.7905,5.41112s1.2491,2.80299 2.7905,1.8062c1.54139,-0.99429 2.788,-3.42005 2.788,-5.41112c0,-1.99607 -1.24661,-2.80549 -2.788,-1.8062l0,0z" fill="#23425D"/>
     <path stroke="null" id="svg_22" d="m49.76666,68.66872c-1.01927,0.66702 -1.85867,2.28086 -1.85867,3.60741c0,1.32155 0.8369,1.86366 1.85867,1.19914c1.02426,-0.66202 1.86116,-2.27836 1.86116,-3.59992c0,-1.32905 -0.8369,-1.86616 -1.86116,-1.20663zm0,4.58671c-0.92683,0.59957 -1.68879,0.10992 -1.68879,-1.09172c0,-1.20414 0.76195,-2.66808 1.68879,-3.27515c0.92933,-0.60457 1.68879,-0.11242 1.68879,1.09421c0,1.20164 -0.75945,2.67058 -1.68879,3.27265z" fill="#FFC656"/>
    </g>
    <polygon stroke="null" id="svg_23" points="29.91840725590805,80.81251321309412 26.658242326301433,80.94990748969087 26.24853756546213,83.51807364403305 29.8034937358168,85.81641530023683 30.497992352203482,84.94454672146878 " fill="#81A1CC"/>
    <g stroke="null" id="svg_24">
     <polygon stroke="null" id="svg_25" points="28.786717502067177,83.05590190895111 29.25638084336265,84.6372582543978 28.796712907979554,86.5608731325907 27.620059661839377,88.02982965408648 26.3759483118763,88.71433880242569 25.01692937968687,88.3171193921795 24.694661658765426,86.43097640007238 25.601500303208695,84.5698199434579 26.695726088117,82.97596241311169 27.777446729549183,82.65618067829439 " fill="#FDEB7B"/>
     <polygon stroke="null" id="svg_26" points="25.661460862953163,82.12155907429826 28.996567585443017,84.28002046780114 28.936612963563448,83.99022890929757 25.59901035852795,81.8317754329479 " fill="#F5A62E"/>
     <polygon stroke="null" id="svg_27" points="25.661460862953163,82.93848260987272 28.996567585443017,85.09443426581186 28.936612963563448,84.80465062446149 25.59901035852795,82.64370324485446 " fill="#F5A62E"/>
     <polygon stroke="null" id="svg_28" points="25.661460862953163,83.75540614544718 28.996567585443017,85.91135780138632 28.936612963563448,85.6240443118337 25.59901035852795,83.46061094612253 " fill="#F5A62E"/>
     <polygon stroke="null" id="svg_29" points="25.661460862953163,84.5698199434579 28.996567585443017,86.72575576509064 28.936612963563448,86.43596420658707 25.59901035852795,84.2775186473906 " fill="#F5A62E"/>
     <polygon stroke="null" id="svg_30" points="25.21428421602809,85.09942998947975 28.554382703609235,87.25789138298262 28.489428399485178,86.96559008691531 25.156829435270765,84.80465062446149 " fill="#F5A62E"/>
     <polygon stroke="null" id="svg_31" points="25.21428421602809,85.91135780138632 28.14467992205823,87.80499833757187 28.082229417633016,87.51519886191511 25.156829435270765,85.6240443118337 " fill="#F5A62E"/>
     <polygon stroke="null" id="svg_32" points="25.21428421602809,86.73075940591173 27.675018560051058,88.3171193921795 27.620059661839377,88.02982965408648 25.156829435270765,86.43846602699762 " fill="#F5A62E"/>
     <polygon stroke="null" id="svg_33" points="25.21428421602809,87.54517320392245 27.0604614187921,88.73932533791833 27.00050877620083,88.44702404185102 25.156829435270765,87.25789138298262 " fill="#F5A62E"/>
     <g stroke="null" id="svg_34">
      <path stroke="null" id="svg_35" d="m21.77925,83.44561c0,-0.61206 0.38472,-1.35902 0.85688,-1.66131c0.23233,-0.15239 0.44718,-0.16988 0.60207,-0.06995l0,0l4.42183,2.85795l-0.06995,0.19236c0,0 -0.52462,-0.02498 -0.77944,0.32727c-0.25232,0.35475 -0.31977,0.59457 -0.44468,0.89186l0,0l0,0.31727l0.22484,0.26731l-0.14989,0.35225l-4.39934,-2.85045c-0.005,0 -0.01249,-0.00999 -0.01749,-0.01249l0,0l0,0c-0.15239,-0.10243 -0.24482,-0.31228 -0.24482,-0.61206z" fill="#F5A62E"/>
      <path stroke="null" id="svg_36" d="m27.04797,84.63476c-0.47466,0.30728 -0.85688,1.04675 -0.85688,1.66131s0.38223,0.86188 0.85688,0.5571c0.47216,-0.30478 0.85439,-1.04925 0.85439,-1.66381c0,-0.60956 -0.38223,-0.85938 -0.85439,-0.5546l0,0z" fill="#FFC656"/>
     </g>
     <path stroke="null" id="svg_37" d="m21.11722,85.52662c0,-1.99357 1.2491,-4.41683 2.788,-5.41611c0.76445,-0.49215 1.45396,-0.54211 1.9561,-0.22484l0,0l3.18022,2.05103l-0.22484,0.63205c0,0 -1.70128,-0.07744 -2.52569,1.06923s-1.05924,1.94111 -1.45895,2.89792l0,0l0,1.04425l0.74197,0.86938l-0.47966,1.14418l-3.13025,-2.02854c-0.01749,-0.00999 -0.03747,-0.02498 -0.05746,-0.03997l-0.0025,0l0,0c-0.48715,-0.33476 -0.78694,-1.02926 -0.78694,-1.99857z" fill="#102134"/>
     <path stroke="null" id="svg_38" d="m27.06046,83.35818c1.02426,-0.66202 1.86116,-0.12741 1.86116,1.20414c0,1.32155 -0.8369,2.94039 -1.86116,3.59992c-1.01927,0.66452 -1.85867,0.12241 -1.85867,-1.19914c0,-1.32405 0.8394,-2.94039 1.85867,-3.60491l0,0zm0,-1.20414c-1.54139,0.99429 -2.7905,3.42005 -2.7905,5.41112c0,1.99607 1.2491,2.80549 2.7905,1.8062c1.54139,-0.99179 2.788,-3.42005 2.788,-5.41112c0,-1.99607 -1.24661,-2.80549 -2.788,-1.8062l0,0z" fill="#23425D"/>
     <path stroke="null" id="svg_39" d="m27.06046,83.35818c-1.01927,0.66452 -1.85867,2.28086 -1.85867,3.60491c0,1.32155 0.8369,1.86366 1.85867,1.19914c1.02426,-0.66202 1.86116,-2.27836 1.86116,-3.59992c0,-1.32905 -0.8369,-1.86366 -1.86116,-1.20414zm0,4.58421c-0.92683,0.59957 -1.68879,0.11242 -1.68879,-1.08922c0,-1.20414 0.76195,-2.67058 1.68879,-3.27765c0.92933,-0.60207 1.68879,-0.11242 1.68879,1.09421c0,1.20414 -0.75945,2.67058 -1.68879,3.27265z" fill="#FFC656"/>
    </g>
    <polygon stroke="null" id="svg_40" points="46.06931269098527,70.17263519609935 42.13214011569448,70.48491938683821 42.10216973226375,73.26293760384453 45.65460824790148,75.56127926004831 46.34910488499986,74.69190458453761 " fill="#81A1CC"/>
    <g stroke="null" id="svg_41">
     <polygon stroke="null" id="svg_42" points="44.61786495378669,72.82074084628096 45.08502449538332,74.39710938521296 44.627844525392675,76.3232260838164 43.4511932585408,77.78718688164429 42.20709180501922,78.47418993324084 40.850562817510536,78.07446870258411 40.52829509658909,76.19082753088753 41.432639837775014,74.3321570603772 42.52685770553012,72.73580562677364 43.608574388385705,72.41603180910954 " fill="#FDEB7B"/>
     <polygon stroke="null" id="svg_43" points="41.49260039751948,71.88392785983035 44.827709099297635,74.03987951576948 44.765246719142624,73.75258186052326 41.43014989309427,71.59413630132678 " fill="#F5A62E"/>
     <polygon stroke="null" id="svg_44" points="41.49260039751948,72.70082764394522 44.827709099297635,74.854285396627 44.765246719142624,74.56698774138079 41.43014989309427,72.40604036177376 " fill="#F5A62E"/>
     <polygon stroke="null" id="svg_45" points="41.49260039751948,73.51774326236648 44.827709099297635,75.66871502894412 44.765246719142624,75.3814015393915 41.43014989309427,73.22294806304183 " fill="#F5A62E"/>
     <polygon stroke="null" id="svg_46" points="41.49260039751948,74.3321570603772 44.827709099297635,76.48561481305899 44.765246719142624,76.19582325455542 41.43014989309427,74.03736977820574 " fill="#F5A62E"/>
     <polygon stroke="null" id="svg_47" points="41.04541979201781,74.8592811202949 44.38552817604045,77.01522485908083 44.320567934051496,76.7279509552942 40.98795709410729,74.56698774138079 " fill="#F5A62E"/>
     <polygon stroke="null" id="svg_48" points="41.04541979201781,75.67369491830561 43.97581945662455,77.56484946838702 43.913364993622736,77.27504207557706 40.98795709410729,75.3814015393915 " fill="#F5A62E"/>
     <polygon stroke="null" id="svg_49" points="41.04541979201781,76.48810871631633 43.506162053193975,78.07446870258411 43.4511932585408,77.78718688164429 40.98795709410729,76.19582325455542 " fill="#F5A62E"/>
     <polygon stroke="null" id="svg_50" points="41.04541979201781,77.3050243347376 42.89159303620522,78.49917646873348 42.83164435219055,78.20687517266617 40.98795709410729,77.01522485908083 " fill="#F5A62E"/>
     <g stroke="null" id="svg_51">
      <path stroke="null" id="svg_52" d="m37.61039,73.20546c0,-0.61456 0.38472,-1.35902 0.85688,-1.66131c0.23233,-0.15239 0.44718,-0.16738 0.60207,-0.06995l0,0l4.41933,2.86045l-0.06745,0.19486c0,0 -0.52213,-0.02998 -0.77944,0.32227c-0.25232,0.35724 -0.31977,0.59707 -0.44468,0.89186l0,0l0,0.32227l0.22484,0.26231l-0.14989,0.35225l-4.39934,-2.84796c-0.00749,-0.0025 -0.01499,-0.00749 -0.01749,-0.01249l0,0l0,0c-0.15239,-0.10492 -0.24482,-0.31727 -0.24482,-0.61456z" fill="#F5A62E"/>
      <path stroke="null" id="svg_53" d="m42.8791,74.39461c-0.47466,0.30728 -0.85688,1.04925 -0.85688,1.65881c0,0.61456 0.38223,0.86438 0.85688,0.5571c0.46966,-0.30478 0.85439,-1.04925 0.85439,-1.66381c0,-0.60706 -0.38223,-0.85439 -0.85439,-0.5521l0,0z" fill="#FFC656"/>
     </g>
     <path stroke="null" id="svg_54" d="m36.94836,75.28397c0,-1.99107 1.2491,-4.41433 2.7855,-5.41112c0.76695,-0.49714 1.45645,-0.54461 1.95859,-0.22984l0,0l3.17772,2.05103l-0.22234,0.63454c0,0 -1.70378,-0.07495 -2.52819,1.06923c-0.82441,1.14918 -1.05924,1.9436 -1.46145,2.89542l0,0l0,1.04425l0.74447,0.86938l-0.47966,1.14668l-3.12775,-2.02854c-0.01999,-0.01249 -0.03747,-0.02748 -0.05746,-0.03747l-0.0025,-0.005l0,0c-0.48715,-0.33476 -0.78694,-1.02177 -0.78694,-1.99857z" fill="#102134"/>
     <path stroke="null" id="svg_55" d="m42.89159,73.11803c1.02676,-0.65953 1.86116,-0.12491 1.86116,1.20414c0,1.32655 -0.8344,2.94289 -1.86116,3.60241c-1.02177,0.66202 -1.85867,0.12241 -1.85867,-1.19914c0,-1.32405 0.8369,-2.94539 1.85867,-3.60741l0,0zm0,-1.20414c-1.54139,0.99429 -2.793,3.41755 -2.793,5.41112s1.2516,2.80299 2.793,1.8062c1.54139,-0.99179 2.788,-3.42005 2.788,-5.41361s-1.24661,-2.80549 -2.788,-1.80371l0,0z" fill="#23425D"/>
     <path stroke="null" id="svg_56" d="m42.89159,73.11803c-1.02177,0.66452 -1.85867,2.28336 -1.85867,3.60741c0,1.32155 0.8369,1.86116 1.85867,1.19914c1.02676,-0.66202 1.86116,-2.27587 1.86116,-3.60241c0,-1.32905 -0.8344,-1.86366 -1.86116,-1.20414zm0,4.58671c-0.92933,0.59957 -1.68879,0.11242 -1.68879,-1.09172s0.75945,-2.67058 1.68879,-3.27265c0.92933,-0.60457 1.68879,-0.11742 1.68879,1.09172c0,1.20414 -0.75945,2.66808 -1.68879,3.27265z" fill="#FFC656"/>
    </g>
    <polygon stroke="null" id="svg_57" points="17.11509389391381,88.76930759707886 1.9110116958618164,78.93386776506543 4.58908377089756,74.90925419128018 19.79317784467935,84.74218428572988 " fill="#F5F7FC"/>
    <polygon stroke="null" id="svg_58" points="17.11509389391381,91.7271718661292 1.9110116958618164,81.89422593737311 1.9110116958618164,78.93386776506543 17.11509389391381,88.76930759707886 " fill="#DAE5F5"/>
    <polygon stroke="null" id="svg_59" points="15.356358679288405,88.66687546900414 3.4499048849535257,80.96740439825828 3.1101496570840936,81.1872479082582 3.4499048849535257,81.8492723415153 15.356358679288405,89.5512452326717 15.696115391624062,89.33139380551859 " fill="#B3C4D9"/>
    <polygon stroke="null" id="svg_60" points="19.79317784467935,84.74218428572988 4.58908377089756,74.90925419128018 38.08254792356979,53.24479576625038 53.28663309055423,63.07523987459592 " fill="#FFFFFF"/>
    <polygon stroke="null" id="svg_61" points="19.79317784467935,84.74218428572988 4.58908377089756,74.90925419128018 10.922036386087257,70.8096889281702 26.126130459869046,80.64512876018364 " fill="#010101" opacity="0.2"/>
    <path stroke="null" id="svg_62" d="m53.28663,63.07524l-33.49346,21.66695l-2.67808,4.02711l0,2.95788l2.67808,0.56709l4.6017,-2.97786l-0.0025,0c-0.2748,-0.43469 -0.42719,-1.03176 -0.42719,-1.74874c0,-2.0885 1.31406,-4.63417 2.9304,-5.67842c0.47966,-0.31228 0.94432,-0.47216 1.38401,-0.47216c1.10671,0 1.82119,0.99928 1.82119,2.54817c0,0.59707 -0.10742,1.22912 -0.29978,1.85617l10.445,-6.75515l-0.005,0.0025c-0.2748,-0.43719 -0.42719,-1.03676 -0.42719,-1.75124c0,-2.0885 1.31406,-4.63667 2.9304,-5.68092c0.47966,-0.31228 0.94682,-0.46966 1.3865,-0.46966c1.10421,0 1.82119,0.99678 1.82119,2.54317c0,0.59957 -0.10492,1.23411 -0.29729,1.85867l0,0.005l1.47394,-0.95681l0,0c-0.2748,-0.43719 -0.42719,-1.03426 -0.42719,-1.75124c0,-2.086 1.31406,-4.63417 2.9304,-5.67842c0.48215,-0.31228 0.94682,-0.46966 1.3865,-0.46966c1.10671,0 1.82119,0.99678 1.82119,2.54567c0,0.59957 -0.10742,1.23162 -0.29729,1.85867l2.86544,-1.85367l0,-3.51498l-2.12098,-2.67808z" fill="#B4D2E0"/>
   </g>
   <g stroke="null" id="svg_63">
    <g stroke="null" id="svg_64">
     <polygon stroke="null" id="svg_65" points="86.18802976527036,45.91754569452826 86.66017711338168,47.498921832857945 86.20051511586348,49.420038849216894 85.023859890435,50.886485633148936 83.77975051976023,51.575998422309226 82.42322549082814,51.1762851088057 82.1009498527535,49.29013815812198 83.00781224865636,47.43147164618824 84.10202615783487,45.83761411584203 85.17875107559917,45.51535035349718 " fill="#FDEB7B"/>
     <polygon stroke="null" id="svg_66" points="83.06525911226049,44.983226611335 86.40036781403865,47.13917826727413 86.34041121287078,46.85188061202791 83.00280860783528,44.693427135678235 " fill="#F5A62E"/>
     <polygon stroke="null" id="svg_67" points="83.06525911226049,45.80014222975626 86.40036781403865,47.95359206528485 86.34041121287078,47.66630628576843 83.00280860783528,45.50535098900821 " fill="#F5A62E"/>
     <polygon stroke="null" id="svg_68" points="83.06525911226049,46.61455602776698 86.40036781403865,48.770507683706114 86.34041121287078,48.483206069883295 83.00280860783528,46.32226660742947 " fill="#F5A62E"/>
     <polygon stroke="null" id="svg_69" points="83.06525911226049,47.43147164618824 86.40036781403865,49.58742330212738 86.34041121287078,49.29512596463667 83.00280860783528,47.13668040544019 " fill="#F5A62E"/>
     <polygon stroke="null" id="svg_70" points="82.61808246533542,47.95858778895274 85.960688711192,50.11703730672582 85.89572846920305,49.82724970679885 82.55812586416755,47.66630628576843 " fill="#F5A62E"/>
     <polygon stroke="null" id="svg_71" points="82.61808246533542,48.77300554554006 85.54847421278896,50.66414821989167 85.48603162551694,50.37685452322205 82.55812586416755,48.483206069883295 " fill="#F5A62E"/>
     <polygon stroke="null" id="svg_72" points="82.61808246533542,49.58991324680812 85.07882076793499,51.1762851088057 85.023859890435,50.886485633148936 82.55812586416755,49.29763174362381 " fill="#F5A62E"/>
     <polygon stroke="null" id="svg_73" points="82.61808246533542,50.4018331415615 84.46425966809943,51.59847917881473 84.40430306693156,51.30868366173456 82.55812586416755,50.11703730672582 " fill="#F5A62E"/>
     <g stroke="null" id="svg_74">
      <path stroke="null" id="svg_75" d="m79.18304,46.30477c0,-0.61456 0.38472,-1.35902 0.85938,-1.66131c0.22984,-0.15239 0.44468,-0.16988 0.59957,-0.07245l0,0l4.42183,2.86045l-0.06745,0.19486c0,0 -0.52462,-0.02498 -0.78194,0.32477c-0.25232,0.35225 -0.32227,0.59707 -0.44468,0.89186l0,0l0,0.31727l0.22484,0.26731l-0.14989,0.35225l-4.39934,-2.84796c-0.00749,-0.0025 -0.01499,-0.00749 -0.01999,-0.01249l0,0l0,0c-0.14989,-0.10243 -0.24233,-0.31727 -0.24233,-0.61456z" fill="#F5A62E"/>
      <path stroke="null" id="svg_76" d="m84.45176,47.49642c-0.47216,0.30728 -0.85938,1.04675 -0.85938,1.66131c0,0.61206 0.38472,0.86188 0.85938,0.5546c0.47216,-0.30478 0.85439,-1.04925 0.85439,-1.66381c0,-0.60956 -0.37973,-0.85688 -0.85439,-0.5521l0,0z" fill="#FFC656"/>
     </g>
     <path stroke="null" id="svg_77" d="m78.51852,48.38578c0,-1.99357 1.2516,-4.41683 2.788,-5.41361c0.76445,-0.49464 1.45645,-0.54211 1.95859,-0.22734l0,0l3.17522,2.05353l-0.22484,0.62955c0,0 -1.70378,-0.07495 -2.52819,1.07173c-0.82441,1.14668 -1.05924,1.9436 -1.45895,2.89542l0,0l0,1.04675l0.74197,0.86938l-0.47716,1.14418l-3.13025,-2.02605c-0.01749,-0.01249 -0.03747,-0.02498 -0.05746,-0.03997l-0.0025,-0.0025l0,0c-0.48215,-0.33726 -0.78444,-1.02676 -0.78444,-2.00106z" fill="#102134"/>
     <path stroke="null" id="svg_78" d="m84.46425,46.21734c1.02426,-0.65953 1.86116,-0.12491 1.86116,1.20663c0,1.32155 -0.8369,2.93789 -1.86116,3.59992c-1.02177,0.66202 -1.85617,0.12241 -1.85617,-1.19914c0,-1.32405 0.8344,-2.94289 1.85617,-3.60741l0,0zm0,-1.20414c-1.54139,0.99429 -2.7905,3.42005 -2.7905,5.41361c0,1.99357 1.2491,2.80299 2.7905,1.80371c1.5389,-0.99179 2.788,-3.42005 2.788,-5.41361c0,-1.99107 -1.2491,-2.80299 -2.788,-1.80371l0,0z" fill="#23425D"/>
     <path stroke="null" id="svg_79" d="m84.46425,46.21734c-1.02177,0.66452 -1.85617,2.28336 -1.85617,3.60741c0,1.32155 0.8344,1.86366 1.85617,1.19914c1.02426,-0.66202 1.86116,-2.27836 1.86116,-3.59992c0,-1.33154 -0.8369,-1.86616 -1.86116,-1.20663zm0,4.58671c-0.92933,0.60207 -1.68879,0.11242 -1.68879,-1.08922c0,-1.20414 0.75945,-2.67308 1.68879,-3.27515c0.92933,-0.60207 1.68879,-0.11492 1.68879,1.09172c0,1.20414 -0.75945,2.67058 -1.68879,3.27265z" fill="#FFC656"/>
    </g>
    <g stroke="null" id="svg_80">
     <polygon stroke="null" id="svg_81" points="79.31544992597514,50.36686307588627 79.78511920513552,51.94572551807562 79.32795111087466,53.86934831342171 78.14880198218884,55.33579905593035 76.90469261151406,56.02530788651404 75.54815966542878,55.623088794023374 75.22589194450734,53.73694184333965 76.13023668569326,51.87827137282932 77.22445851202497,50.2844178010597 78.30617915345715,49.9646519005488 " fill="#FDEB7B"/>
     <polygon stroke="null" id="svg_82" points="76.19269510727167,49.427540351871926 79.52780380904983,51.58848773147895 79.46535330462461,51.29869617297538 76.12773486528272,49.140238738049106 " fill="#F5A62E"/>
     <polygon stroke="null" id="svg_83" points="76.19269510727167,50.246945914973935 79.52780380904983,52.40289757091307 79.46535330462461,52.1131099709861 76.12773486528272,49.95215863280248 " fill="#F5A62E"/>
     <polygon stroke="null" id="svg_84" points="76.19269510727167,51.06136367156125 79.52780380904983,53.21731136892379 79.46535330462461,52.930025589407364 76.12773486528272,50.76907029264714 " fill="#F5A62E"/>
     <polygon stroke="null" id="svg_85" points="76.19269510727167,51.87827137282932 79.52780380904983,54.03422302876845 79.46535330462461,53.74193360843094 76.12773486528272,51.58348409065786 " fill="#F5A62E"/>
     <polygon stroke="null" id="svg_86" points="75.74302455708926,52.405391474170415 79.08562288579265,54.56384890909669 79.02067056095689,54.274057350593125 75.68306795592139,52.1131099709861 " fill="#F5A62E"/>
     <polygon stroke="null" id="svg_87" points="75.74302455708926,53.21980923075773 78.67091448413225,55.11344580836669 78.61096580011758,54.82366216701632 75.68306795592139,52.930025589407364 " fill="#F5A62E"/>
     <polygon stroke="null" id="svg_88" points="75.74302455708926,54.03673276633219 78.20376285968882,55.623088794023374 78.14880198218884,55.33579905593035 75.68306795592139,53.74693724925203 " fill="#F5A62E"/>
     <polygon stroke="null" id="svg_89" points="75.74302455708926,54.851138647189714 77.58919384270007,56.047788643019544 77.5292372415322,55.75799312593938 75.68306795592139,54.56384890909669 " fill="#F5A62E"/>
     <g stroke="null" id="svg_90">
      <path stroke="null" id="svg_91" d="m72.30798,50.75408c0,-0.61206 0.38472,-1.35902 0.85938,-1.66131c0.23233,-0.15239 0.44468,-0.16988 0.59957,-0.06995l0,0l4.42183,2.85795l-0.06745,0.19486c0,0 -0.52213,-0.02748 -0.78194,0.32477c-0.25232,0.35475 -0.32227,0.59707 -0.44718,0.89186l0,0l0,0.31977l0.22734,0.26731l-0.14989,0.35225l-4.39934,-2.85045c-0.00749,0 -0.01499,-0.00749 -0.01999,-0.01249l0,0l0,0c-0.14989,-0.10492 -0.24233,-0.31727 -0.24233,-0.61456z" fill="#F5A62E"/>
      <path stroke="null" id="svg_92" d="m77.5767,51.94323c-0.47216,0.30728 -0.85688,1.04925 -0.85688,1.66131s0.38223,0.86188 0.85688,0.5571c0.46966,-0.30728 0.85439,-1.05175 0.85439,-1.6663c0,-0.60956 -0.38223,-0.85688 -0.85439,-0.5521l0,0z" fill="#FFC656"/>
     </g>
     <path stroke="null" id="svg_93" d="m71.64346,52.83259c0,-1.99107 1.2541,-4.41683 2.788,-5.41361c0.76445,-0.49464 1.45645,-0.54461 1.95859,-0.22984l0,0l3.17522,2.05353l-0.22484,0.63205c0,0 -1.70378,-0.07495 -2.52819,1.07173c-0.82441,1.14418 -1.05924,1.9436 -1.45895,2.89292l0,0l0,1.04675l0.74197,0.86938l-0.47716,1.14418l-3.13025,-2.02854c-0.01749,-0.01249 -0.03747,-0.02498 -0.05496,-0.03747l-0.005,0l0,0c-0.48215,-0.33476 -0.78444,-1.02926 -0.78444,-2.00106z" fill="#102134"/>
     <path stroke="null" id="svg_94" d="m77.58919,50.66414c1.02676,-0.65953 1.86116,-0.12241 1.86116,1.20663c0,1.32155 -0.8344,2.93789 -1.86116,3.60241c-1.02177,0.66452 -1.85617,0.12241 -1.85617,-1.20164c0,-1.32405 0.8344,-2.94289 1.85617,-3.60741l0,0zm0,-1.20164c-1.54139,0.99678 -2.7905,3.42005 -2.7905,5.41112c0,1.99607 1.2491,2.80798 2.7905,1.8062c1.5389,-0.99179 2.7855,-3.42005 2.7855,-5.41361c0,-1.99357 -1.24661,-2.80549 -2.7855,-1.80371l0,0z" fill="#23425D"/>
     <path stroke="null" id="svg_95" d="m77.58919,50.66414c-1.02177,0.66452 -1.85617,2.28336 -1.85617,3.60741c0,1.32405 0.8344,1.86616 1.85617,1.20164c1.02676,-0.66452 1.86116,-2.28086 1.86116,-3.60241c0,-1.32905 -0.8344,-1.86616 -1.86116,-1.20663zm0,4.58671c-0.92933,0.59957 -1.68879,0.11242 -1.68879,-1.08922c0,-1.20414 0.75945,-2.67308 1.68879,-3.27515c0.92933,-0.60457 1.68879,-0.11492 1.68879,1.09172c0,1.20164 -0.75945,2.67308 -1.68879,3.27265z" fill="#FFC656"/>
    </g>
    <polygon stroke="null" id="svg_96" points="33.985484480870355,74.44707453904505 18.783901134296457,64.61163470703161 18.783901134296457,52.71017812083085 35.06471121904519,62.02099571333713 " fill="#81A1CC"/>
    <polygon stroke="null" id="svg_97" points="96.35821475164516,36.62672287242333 93.19300024034123,34.58068505433096 95.0416634292094,33.38155303097358 98.20689377481972,35.430084752323296 " fill="#FFFFFF"/>
    <polygon stroke="null" id="svg_98" points="96.113400540459,34.300896818892966 96.113400540459,12.636441362795608 31.787065215177563,54.251576594087624 29.558671607477436,58.78581336064656 29.558671607477436,67.59948915239568 33.985484480870355,67.21226910663847 33.985484480870355,74.44707453904505 53.55893961622019,61.77866748825511 56.257006461657284,65.19621354770663 56.257006461657284,68.69621279913792 96.113400540459,42.91970771898161 98.20689377481972,39.05248319219447 98.20689377481972,35.430084752323296 " fill="#B4D2E0"/>
    <polygon stroke="null" id="svg_99" points="96.113400540459,12.636441362795608 31.787065215177563,54.251576594087624 16.585475930738767,44.41613280349759 80.90931537347456,2.801002025604248 " fill="#FFFFFF"/>
    <g stroke="null" id="svg_100">
     <path stroke="null" id="svg_101" d="m93.89498,13.15607l0,0c0.0025,0.03997 0.02748,0.07744 0.06995,0.10492c0.09993,0.06246 0.25981,0.06246 0.35724,0l0.692,-0.44968c0.04996,-0.03248 0.07245,-0.07245 0.07245,-0.11242l0,0l0,-0.32477l-1.19414,0.44468l0,0.33726l0.0025,0z" fill="#D93C27"/>
     <path stroke="null" id="svg_102" d="m93.97243,12.94122c0.09493,0.05996 0.25482,0.05996 0.35225,0l0.692,-0.44968c0.09743,-0.06246 0.09743,-0.16488 0,-0.22984c-0.09743,-0.06495 -0.25732,-0.06495 -0.35475,0l-0.6945,0.44968c-0.09743,0.05996 -0.09743,0.16488 0.005,0.22984z" fill="#F48271"/>
    </g>
    <g stroke="null" id="svg_103">
     <path stroke="null" id="svg_104" d="m79.81509,4.04761l0,0c0.0025,0.03997 0.02748,0.07495 0.07245,0.10742c0.09743,0.05996 0.25732,0.05996 0.35475,0l0.692,-0.44968c0.05246,-0.02998 0.07245,-0.07245 0.07245,-0.11242l0,0l0,-0.32477l-1.19414,0.44718l0,0.33226l0.0025,0z" fill="#D93C27"/>
     <path stroke="null" id="svg_105" d="m79.89004,3.83276c0.09493,0.05996 0.25482,0.05996 0.35225,0l0.692,-0.44718c0.09743,-0.06495 0.09743,-0.16738 0,-0.22984c-0.09743,-0.06246 -0.25482,-0.06246 -0.35225,0l-0.6945,0.44718c-0.09743,0.06246 -0.09743,0.16488 0.0025,0.22984z" fill="#F48271"/>
    </g>
    <polygon stroke="null" id="svg_106" points="29.558671607477436,58.78581336064656 14.354577533695647,48.952879307620265 16.585475930738767,44.41613280349759 31.787065215177563,54.251576594087624 " fill="#F5F7FC"/>
    <polygon stroke="null" id="svg_107" points="29.558671607477436,67.59948915239568 14.354577533695647,57.7615514585483 14.354577533695647,48.952879307620265 29.558671607477436,58.78581336064656 " fill="#DAE5F5"/>
   </g>
   <g stroke="null" id="svg_108">
    <g stroke="null" id="svg_109">
     <polygon stroke="null" id="svg_110" points="13.505187732144805,52.11060419199896 11.036961781908303,53.706967501332315 9.105845401060378,58.99066969964281 9.105845401060378,74.17227015154515 15.43630411299273,70.07521462599891 15.43630411299273,54.89361417409657 " fill="#B4D2E0"/>
     <polygon stroke="null" id="svg_111" points="15.368853926323027,78.22186234366984 9.105845401060378,74.17227015154515 9.555520899463545,73.8774828693737 15.821028276204288,77.92957688190893 " fill="#FFFFFF"/>
     <polygon stroke="null" id="svg_112" points="4.58908377089756,56.070269399525046 4.58908377089756,71.24936803101684 6.682585912055629,76.26327739980172 15.27641324558408,81.82178398561211 15.451291283996397,78.27432931791247 9.105845401060378,74.17227015154515 9.105845401060378,58.99066969964281 " fill="#DAE5F5"/>
     <polygon stroke="null" id="svg_113" points="9.105845401060378,58.99066969964281 4.58908377089756,56.070269399525046 6.520199162101335,50.78656720121455 11.036961781908303,53.706967501332315 " fill="#F5F7FC"/>
     <polygon stroke="null" id="svg_114" points="11.036961781908303,53.706967501332315 6.520199162101335,50.78656720121455 8.990929901680829,49.18770603004725 13.505187732144805,52.11060419199896 " fill="#FFFFFF"/>
    </g>
    <g stroke="null" id="svg_115">
     <polygon stroke="null" id="svg_116" points="16.37312897517313,77.97704813248367 21.95162340387583,74.36713504320562 21.95162340387583,59.57775036072837 20.302808954606235,57.19695947112143 18.22929663562877,58.53849337047325 16.37312897517313,63.609853561438854 " fill="#B4D2E0"/>
     <polygon stroke="null" id="svg_117" points="16.37312897517313,78.40673578799453 9.473084531434324,73.93244374687367 9.473084531434324,59.138067299305135 16.37312897517313,63.609853561438854 " fill="#818181"/>
     <polygon stroke="null" id="svg_118" points="16.37312897517313,63.609853561438854 9.473084531434324,59.138067299305135 11.32675037147942,54.06670314976293 18.22929663562877,58.53849337047325 " fill="#AEAEAE"/>
     <polygon stroke="null" id="svg_119" points="18.22929663562877,58.53849337047325 11.32675037147942,54.06670314976293 13.400263680101034,52.72516925041111 20.302808954606235,57.19695947112143 " fill="#D2D3D4"/>
    </g>
    <g stroke="null" id="svg_120">
     <polygon stroke="null" id="svg_121" points="24.032633266931725,79.28859581409836 17.697180810619784,83.38815316005514 17.902033191039436,76.98775233748404 26.126130459869046,76.98775233748404 " fill="#81A1CC"/>
     <polygon stroke="null" id="svg_122" points="24.19501407902112,59.023149820637286 21.724288287662375,60.62199515749819 19.79317784467935,65.90320741112794 19.79317784467935,81.08480786303028 26.126130459869046,76.98775233748404 26.126130459869046,61.8061479270051 " fill="#B4D2E0"/>
     <g stroke="null" id="svg_123">
      <path stroke="null" id="svg_124" d="m23.03834,76.23079l0,0c-0.03248,-0.01499 -0.07245,-0.01249 -0.11492,0.01499c-0.09493,0.06246 -0.17487,0.21485 -0.17487,0.33726l0,0.87937c0,0.05996 0.01999,0.10492 0.05246,0.12491l0,0l0.24482,0.15739l0.24482,-1.34903l-0.25232,-0.16488z" fill="#FFC656"/>
      <path stroke="null" id="svg_125" d="m23.16575,76.40317c-0.09493,0.06246 -0.17487,0.21235 -0.17487,0.33726l0,0.87687c0,0.12491 0.07994,0.17487 0.17487,0.11242c0.09743,-0.05996 0.17487,-0.20985 0.17487,-0.33726l0,-0.87437c0,-0.12491 -0.07744,-0.17487 -0.17487,-0.11492z" fill="#F5A62E"/>
     </g>
     <polygon stroke="null" id="svg_126" points="15.27641324558408,62.982803152433576 15.27641324558408,81.82178398561211 17.697180810619784,83.38815316005514 19.79317784467935,81.08480786303028 19.79317784467935,65.90320741112794 " fill="#DAE5F5"/>
     <polygon stroke="null" id="svg_127" points="19.79317784467935,65.90320741112794 15.27641324558408,62.982803152433576 17.207534574652755,57.699089078393285 21.724288287662375,60.62199515749819 " fill="#F5F7FC"/>
     <polygon stroke="null" id="svg_128" points="21.724288287662375,60.62199515749819 17.207534574652755,57.699089078393285 19.6782583867232,56.10273764478973 24.19501407902112,59.023149820637286 " fill="#FFFFFF"/>
    </g>
    <g stroke="null" id="svg_129">
     <path stroke="null" id="svg_130" d="m15.17399,45.76766c-0.88187,-0.57209 -1.70378,-0.64454 -2.31334,-0.21235c-0.12741,0.09493 -0.12491,0.36973 0.00999,0.62455c0.1374,0.25232 0.34725,0.38472 0.47966,0.29229c0.47966,-0.34225 1.12919,-0.2848 1.82369,0.16988c0.62955,0.40471 1.30157,1.21413 1.79871,2.16095c0.1324,0.25482 0.34475,0.38972 0.47466,0.30228c0.06246,-0.04497 0.09743,-0.1324 0.09743,-0.24482c0,-0.11242 -0.03497,-0.24732 -0.10243,-0.37473c-0.62955,-1.20414 -1.45645,-2.19093 -2.26837,-2.71805z" fill="#A2CF6A"/>
     <path stroke="null" id="svg_131" d="m19.27355,46.38472c-1.03925,-1.9486 -2.63311,-3.80727 -4.06458,-4.7341c-1.49393,-0.96681 -3.15274,-1.19164 -4.12954,-0.5596c-0.1324,0.08494 -0.1324,0.36224 0,0.61956c0.1324,0.25482 0.34475,0.39222 0.47466,0.30728c0.85688,-0.5571 2.32833,-0.34975 3.65488,0.50464c1.26409,0.82191 2.68058,2.46573 3.59742,4.19449c0.1349,0.25482 0.34975,0.38223 0.47466,0.29229c0.05996,-0.04497 0.09243,-0.1324 0.09243,-0.23983c0,-0.11742 -0.02998,-0.25732 -0.09993,-0.38472z" fill="#A2CF6A"/>
     <path stroke="null" id="svg_132" d="m15.14151,43.59172c-1.17666,-0.76445 -2.33832,-0.86438 -3.17772,-0.2848c-0.12741,0.08994 -0.12241,0.36724 0.00999,0.62205c0.1324,0.25482 0.34475,0.38472 0.47216,0.29729c0.70449,-0.48965 1.71377,-0.39971 2.69557,0.23983c0.92933,0.59707 1.97608,1.86866 2.73554,3.30763c0.1324,0.25482 0.34475,0.38472 0.47466,0.29978c0.06246,-0.04497 0.09493,-0.1349 0.09493,-0.24233c0,-0.11242 -0.03497,-0.24982 -0.10243,-0.38223c-0.87937,-1.6688 -2.10599,-3.14774 -3.2027,-3.85723z" fill="#A2CF6A"/>
     <path stroke="null" id="svg_133" d="m15.14151,48.0735c-0.5596,-0.36474 -1.00928,-0.07245 -1.00928,0.64953c0,0.72448 0.45218,1.60135 1.00928,1.96359c0.5596,0.36474 1.00928,0.06745 1.00928,-0.65203c-0.0025,-0.72198 -0.45218,-1.60135 -1.00928,-1.96109z" fill="#A2CF6A"/>
    </g>
   </g>
  </g>
 </g>
</svg>