<?xml version="1.0" encoding="UTF-8"?>
<!DOCTYPE svg PUBLIC "-//W3C//DTD SVG 1.1//EN" "http://www.w3.org/Graphics/SVG/1.1/DTD/svg11.dtd">
<!-- Creator: CorelDRAW X6 -->
<svg xmlns="http://www.w3.org/2000/svg" xml:space="preserve" width="8.14991in" height="6.49317in" version="1.1" style="shape-rendering:geometricPrecision; text-rendering:geometricPrecision; image-rendering:optimizeQuality; fill-rule:evenodd; clip-rule:evenodd"
viewBox="0 0 1157 922"
 xmlns:xlink="http://www.w3.org/1999/xlink">
 <defs>
  <style type="text/css">
   <![CDATA[
    .fil8 {fill:#292A2C}
    .fil10 {fill:#323639}
    .fil3 {fill:#413930}
    .fil0 {fill:#8BD3DE}
    .fil6 {fill:#949899}
    .fil5 {fill:#C68F68}
    .fil1 {fill:#FDD6B2}
    .fil4 {fill:#373435}
    .fil14 {fill:#3D3A3B}
    .fil11 {fill:#4B5153}
    .fil9 {fill:#556169}
    .fil24 {fill:#727376}
    .fil7 {fill:#99A6A9}
    .fil21 {fill:#C68F68}
    .fil12 {fill:#D2D3D5}
    .fil22 {fill:#FEFEFE}
    .fil19 {fill:black}
    .fil18 {fill:#0F6AA7}
    .fil15 {fill:#292025}
    .fil16 {fill:#A17F67}
    .fil17 {fill:white}
    .fil13 {fill:#3D5B6E}
    .fil20 {fill:#40C2F1}
    .fil2 {fill:#506F83}
    .fil23 {fill:#F9FBFC}
    .fil25 {fill:#373435;fill-rule:nonzero}
   ]]>
  </style>
 </defs>
 <rect class="fil0" x="3488" y="-1076" width="1174" height="1660"/>
 <path class="fil1" d="M498 501c0,0 -6,-25 -11,-27 -6,1 -13,23 -13,23 0,0 -41,-8 -47,-3 0,8 19,12 19,12 0,0 -38,-3 -37,2 1,6 36,18 36,18 0,0 -18,0 -16,7 13,9 55,22 74,9 16,-6 -4,-40 -4,-40z"/>
 <path class="fil2" d="M668 330c13,-5 24,-7 26,30 1,20 2,73 -12,137 -12,53 -94,58 -180,48 0,0 -7,-23 -2,-50 0,0 138,52 147,-23 9,-75 1,-134 21,-142z"/>
 <path class="fil3" d="M1068 767c0,0 38,31 39,42 1,11 -10,52 -8,61 1,10 39,16 39,16 0,0 29,-88 15,-115 0,0 -18,-5 -24,-11 0,0 18,-13 16,-17 -2,-4 -12,-33 -22,-34 -10,-1 -62,24 -62,24 0,0 0,22 8,34z"/>
 <path class="fil3" d="M865 817c0,0 16,8 17,20 1,12 -13,70 -15,77 -2,8 36,8 41,7 5,-1 29,-85 22,-96l-16 -18c0,0 11,-5 8,-18 -3,-13 -2,-32 -10,-36 -9,-5 -57,18 -57,18l10 46z"/>
 <path class="fil4" d="M866 572c0,0 10,7 3,60 -6,52 7,125 16,153 32,96 179,-62 179,-62 0,0 37,71 18,66 -94,98 -226,106 -243,58 -19,-54 -47,-166 -62,-186 -14,-20 -68,-62 -66,-104 2,-42 154,15 154,15z"/>
 <path class="fil4" d="M700 566c-145,511 65,271 175,283 25,-5 -1,-44 -3,-69 -85,34 -139,69 -156,47 -16,-21 5,-93 43,-206 18,-29 -22,-74 -59,-55z"/>
 <path class="fil1" d="M513 82c4,20 -31,210 52,237 42,13 98,6 114,-17 25,-34 5,-205 2,-235 -4,-30 -150,-91 -168,15z"/>
 <path class="fil5" d="M564 143c0,0 5,28 4,32 -2,4 -35,-1 -35,14 0,15 24,13 35,9 0,0 -26,0 -27,-9 -1,-9 27,-3 33,-6 6,-3 -9,-41 -9,-41z"/>
 <path class="fil2" d="M706 286c0,0 6,-27 14,-40 9,-14 144,46 170,181 23,116 -3,148 -4,154 -2,6 -54,41 -154,11l-1 -14c0,0 -6,4 -13,4 -7,-1 -17,2 -28,-17 0,0 6,-56 12,-66 20,-35 -15,-145 -42,-164 0,0 1,-7 19,-17 18,-9 27,-32 27,-32z"/>
 <path class="fil6" d="M694 272c0,0 -21,26 -30,49 0,0 20,18 42,0 22,-18 10,-51 -12,-49z"/>
 <path class="fil1" d="M624 300c0,0 48,7 60,13 30,37 19,-3 19,-11 -1,-9 -40,-34 -40,-34 0,0 -27,0 -39,32z"/>
 <path class="fil7" d="M716 296c0,0 50,86 43,182 0,0 -50,-123 -84,-149l18 -13 6 10 0 -17 18 -12z"/>
 <path class="fil8" d="M704 319l-8 10 8 16c0,0 15,-12 15,-16 0,-4 -15,-10 -15,-10z"/>
 <path class="fil9" d="M706 286c0,0 37,-7 42,-19 0,0 11,45 1,79l49 10c0,0 -26,98 -40,122 0,0 -11,-150 -53,-192z"/>
 <path class="fil9" d="M679 318c0,0 -19,16 -37,13 0,0 24,31 53,34 0,0 -20,11 -33,12 0,0 80,76 97,100 0,0 -6,-43 -80,-159z"/>
 <path class="fil10" d="M756 490c0,0 5,47 -24,79 0,0 22,-42 24,-79z"/>
 <path class="fil11" d="M816 604c0,0 43,-19 58,-46 0,0 14,7 12,23 0,0 -24,20 -70,23z"/>
 <path class="fil12" d="M694 272c0,0 12,10 4,36l21 9c0,0 7,-42 -6,-52l-19 8z"/>
 <polygon class="fil12" points="693,316 691,335 665,321 670,309 "/>
 <path class="fil10" d="M762 509c0,4 2,8 5,8 3,0 6,-3 6,-8 0,-4 -2,-8 -5,-8 -3,0 -6,3 -6,8z"/>
 <path class="fil10" d="M756 547c0,4 2,8 5,8 3,0 6,-3 6,-8 0,-4 -2,-8 -5,-8 -3,0 -6,3 -6,8z"/>
 <path class="fil13" d="M811 338c0,0 31,32 34,37 7,13 40,38 28,52 -24,31 -70,63 -103,80 -8,4 -16,7 -22,10 -8,4 -14,4 -13,7l6 39c34,4 146,-84 157,-92l-10 -78 -70 -64 -6 8z"/>
 <path class="fil1" d="M735 528c0,0 -8,-13 -12,-14 -5,-1 -12,6 -12,6 0,0 -22,5 -21,11 2,6 6,9 6,9 0,0 -9,6 -8,10 2,4 10,6 10,6 0,0 -5,6 -2,11 2,5 38,-2 49,-9 11,-8 -10,-29 -10,-29z"/>
 <path class="fil2" d="M770 275c14,0 5,-11 36,8 29,5 163,137 97,182 -55,37 -101,88 -166,98 -4,-21 -4,-21 -5,-39 31,12 120,-69 141,-91 26,-28 -128,-159 -104,-158z"/>
 <path class="fil8" d="M715 335c0,0 23,14 48,-1 26,-14 49,-70 106,-68l26 23 -15 29c0,0 -38,-11 -64,18 -27,28 -71,40 -108,7 0,0 1,-10 7,-7z"/>
 <path class="fil10" d="M801 604c0,0 -62,-9 -69,-14l1 -15c0,0 -11,8 -15,7 0,0 -17,-3 -28,-17 0,0 4,8 31,23l8 -5 -1 12c0,0 38,12 74,10z"/>
 <path class="fil4" d="M686 136c0,0 -1,39 1,57 0,0 0,4 3,4 0,0 23,-3 23,-4 6,-32 9,-111 -6,-139 -21,-37 -53,-35 -67,-37 0,0 -14,-12 -19,-11 -5,0 -30,3 -33,2 -4,-1 -12,-4 -13,-8l-3 5 -8 -5 -8 9 -4 -3c0,0 0,1 -5,4 -81,49 -37,154 -36,183 0,8 0,-71 2,-88 2,-19 2,-53 20,-58 19,-5 31,27 51,17 10,-5 66,-26 80,5 14,31 18,13 22,67z"/>
 <path class="fil14" d="M621 13c-5,0 -11,1 -16,1 -4,0 -7,1 -11,1 -2,0 -6,0 -8,0 -3,-1 -7,-2 -10,-4l-2 3 -9 -5 -8 9 -5 -3c-1,1 -2,1 -3,2 -3,1 -7,3 -9,5 -6,4 -12,8 -17,13 -14,13 -17,27 -18,46 0,2 1,3 1,5 4,-19 6,-38 25,-43 45,-12 29,14 50,11 22,1 75,-33 96,-4 4,9 9,18 11,27 0,0 0,0 0,0 -1,-7 -3,-14 -5,-20 -4,-11 -10,-23 -20,-29 -7,-4 -14,-4 -22,-5l-2 0 -2 -1c-3,-2 -11,-9 -14,-10z"/>
 <path class="fil1" d="M689 188c0,0 14,-22 38,-15 24,7 12,66 -38,47 0,0 -10,-6 0,-32z"/>
 <path class="fil15" d="M602 101c-4,27 24,0 37,25 7,13 6,13 9,13 4,-36 -45,-38 -45,-38z"/>
 <path class="fil16" d="M632 135c3,-8 -4,-11 -20,-8 -15,3 -16,10 -14,18 11,-4 22,-7 34,-11z"/>
 <path class="fil16" d="M608 157c-3,2 -3,1 -3,2 5,12 17,10 25,4 1,-1 3,-2 4,-4 4,-4 3,-7 3,-12 -11,4 -18,6 -29,10z"/>
 <path class="fil17" d="M633 159c-12,8 -21,12 -29,3 -13,-15 -11,-28 11,-32 33,-6 28,24 18,30z"/>
 <circle class="fil18" transform="matrix(0.135598 -0.0476045 0.0544698 0.151038 613.213 149.997)" r="89"/>
 <circle class="fil19" transform="matrix(-0.0906444 0.0407931 0.0447138 0.101654 610.771 150.686)" r="89"/>
 <circle class="fil19" transform="matrix(0.0621491 -0.0218187 0.0249653 0.0692257 610.77 150.686)" r="89"/>
 <circle class="fil17" transform="matrix(0.0316396 -0.0111077 0.0127096 0.0352422 605.992 149.192)" r="89"/>
 <path class="fil20" d="M640 151c-1,-1 -4,0 -6,5 0,1 -2,3 -3,2 -2,-1 -4,-1 -4,3 0,1 -3,3 -4,2 -4,-1 -2,1 -3,1 -2,1 -4,3 -6,2 -1,-1 -6,-4 -7,-2 0,11 5,25 7,7 0,-1 11,2 16,-1 2,-1 7,-5 6,-8 0,-2 1,-3 2,-3 3,1 6,-6 3,-9z"/>
 <path class="fil16" d="M531 152c-5,-5 -1,-9 12,-12 11,-2 14,2 15,8 -9,1 -18,2 -27,3z"/>
 <path class="fil16" d="M554 160c3,0 2,-1 3,0 1,12 -13,13 -21,9 -4,-2 -4,-4 -6,-8 9,-1 15,-1 24,-2z"/>
 <path class="fil17" d="M537 169c11,1 18,2 21,-7 4,-15 -1,-23 -18,-19 -25,6 -12,25 -3,27z"/>
 <circle class="fil18" transform="matrix(0.103626 -0.0382443 0.0437094 0.115408 542.207 156.488)" r="89"/>
 <circle class="fil19" transform="matrix(-0.069162 0.0324594 0.0356073 0.0775753 539.954 156.731)" r="89"/>
 <circle class="fil19" transform="matrix(0.0474953 -0.0175286 0.0200335 0.0528952 539.953 156.732)" r="89"/>
 <circle class="fil17" transform="matrix(0.0241794 -0.00892367 0.0101989 0.0269285 536.223 155.383)" r="89"/>
 <path class="fil15" d="M544 109c14,22 -20,3 -21,25 -1,12 0,12 -2,12 -18,-29 23,-37 23,-37z"/>
 <path class="fil21" d="M585 260c22,-4 22,7 23,6 5,-30 -115,8 -23,-6z"/>
 <path class="fil21" d="M584 270c7,-1 36,-6 -2,-3 -16,1 -33,9 2,3z"/>
 <path class="fil22" d="M634 165c0,0 -3,2 -5,3 -2,1 -14,1 -14,2 0,1 12,2 15,0 3,-2 4,-4 4,-4z"/>
 <path class="fil20" d="M528 163c0,-1 3,0 6,3 1,1 2,2 3,1 1,-1 3,-1 4,1 1,1 3,1 4,0 2,-2 3,-1 4,0 2,0 3,2 4,0 1,-1 3,-5 4,-4 2,7 0,19 -2,8 0,-1 -7,5 -12,4 -2,0 -6,-2 -7,-4 -1,-2 -4,-3 -4,-3 0,21 -4,4 -4,-6z"/>
 <path class="fil22" d="M538 174c0,0 3,1 5,1 2,0 10,-4 11,-3 0,1 -8,5 -10,4 -3,-1 -5,-2 -5,-2z"/>
 <path class="fil23" d="M162 611c53,54 121,78 199,86 -33,51 -66,102 -99,153 -100,-12 -183,-49 -237,-121 46,-39 91,-78 137,-118z"/>
 <path class="fil23" d="M152 345c58,60 134,87 220,95 -36,56 -73,113 -109,169 -111,-13 -203,-54 -263,-134 51,-43 101,-87 152,-130z"/>
 <path class="fil24" d="M199 411c0,0 -26,32 -49,59 -17,21 -52,54 -52,54l8 9c0,0 26,-28 51,-58 16,-19 50,-59 49,-60l-7 -5z"/>
 <path class="fil24" d="M217 417c0,0 -24,33 -45,61 -16,22 -49,57 -49,57l8 9c0,0 25,-30 48,-60 15,-20 47,-62 46,-62l-7 -4z"/>
 <path class="fil24" d="M234 427c0,0 -24,33 -45,62 -16,22 -48,57 -48,57l8 9c0,0 24,-30 47,-61 14,-20 46,-62 45,-63l-7 -4z"/>
 <path class="fil24" d="M254 437c0,0 -27,37 -48,66 -16,22 -49,57 -49,57l8 9c0,0 25,-30 47,-61 15,-20 49,-66 48,-67l-7 -4z"/>
 <path class="fil24" d="M271 447c0,0 -24,33 -45,62 -16,22 -51,61 -51,61l8 9c0,0 28,-34 50,-65 15,-20 47,-62 45,-63l-7 -4z"/>
 <path class="fil25" d="M91 478c-4,-4 -8,-8 -13,-11 -5,-3 -10,-7 -14,-10 2,-3 5,-5 8,-8 2,-2 3,-3 5,-4 2,-1 3,-1 5,-1 2,0 3,1 5,2 1,1 2,2 3,3 1,1 1,3 0,4 2,-1 4,-1 6,-1 2,0 4,1 5,2 1,1 2,2 3,4 1,1 1,3 1,4 0,1 0,2 -1,4 -1,1 -2,3 -3,4 -3,3 -6,5 -9,8zm-13 -15c1,-2 3,-3 4,-5 1,-1 2,-2 2,-3 0,-1 0,-2 0,-3 0,-1 -1,-2 -2,-2 -1,-1 -2,-1 -3,-1 -1,0 -2,0 -3,1 -1,0 -2,2 -4,3 -1,1 -3,3 -4,4 3,2 6,4 9,6zm13 10c2,-2 4,-3 5,-5 1,-1 1,-2 2,-2 0,-1 1,-2 1,-2 0,-1 0,-2 0,-2 0,-1 -1,-2 -2,-2 -1,-1 -2,-1 -3,-1 -1,0 -2,0 -3,1 -1,1 -2,1 -4,3 -2,2 -3,3 -5,5 3,2 6,5 9,8zm21 -14c-4,-5 -9,-9 -14,-13 -4,-4 -9,-7 -13,-10 1,-1 3,-2 4,-3 4,3 8,7 12,10 4,4 9,9 13,13 -1,1 -2,2 -3,3zm8 -11c-5,-1 -9,-6 -13,-10 -4,-4 -7,-7 -10,-11 1,-1 3,-2 4,-3 2,3 5,6 8,10 3,4 7,8 11,9 4,-4 8,-8 12,-12 1,1 2,2 3,3 -5,5 -10,10 -15,15zm19 -19c-4,-4 -7,-7 -11,-11 -3,-4 -6,-7 -9,-11 1,-1 2,-2 3,-3 3,3 6,7 9,10 3,3 6,6 9,10 4,-4 8,-8 12,-12 1,1 2,2 3,3 -5,5 -10,10 -15,15z"/>
 <path class="fil24" d="M213 678c0,0 -19,29 -36,54 -13,19 -39,51 -39,51l7 7c0,0 20,-27 38,-54 12,-17 37,-55 36,-55l-6 -3z"/>
 <path class="fil24" d="M229 682c0,0 -18,30 -33,56 -12,20 -36,53 -36,53l8 7c0,0 18,-28 35,-56 11,-18 34,-57 33,-57l-6 -3z"/>
 <path class="fil24" d="M245 689c0,0 -17,30 -32,57 -12,20 -36,53 -36,53l8 7c0,0 18,-28 34,-56 10,-18 33,-57 32,-57l-6 -3z"/>
 <path class="fil24" d="M263 696c0,0 -20,34 -35,60 -12,20 -36,53 -36,53l8 7c0,0 18,-28 35,-56 11,-18 36,-61 35,-61l-6 -3z"/>
 <path class="fil24" d="M278 703c0,0 -17,30 -33,56 -12,20 -38,56 -38,56l8 7c0,0 20,-31 37,-59 11,-18 34,-57 33,-57l-6 -3z"/>
</svg>
