<svg width="450" height="450" xmlns="http://www.w3.org/2000/svg">
 <g>
  <title>background</title>
  
 </g>

 <style type="text/css">.st0{fill:#58AB59;}
	.st1{fill:#83BB40;}
	.st2{fill:#0D894D;}
	.st3{fill:#8CC041;}
	.st4{fill:#5EA346;}
	.st5{fill:#268C4B;}
	.st6{fill:#047340;}
	.st7{fill:#339653;}
	.st8{display:none;fill:#AE8930;}
	.st9{fill:#07894D;}
	.st10{fill:#097239;}
	.st11{fill:#1E9E5E;}
	.st12{fill:#BD943A;}
	.st13{fill:#EDB77B;}
	.st14{fill:#66300E;}
	.st15{fill:#E9AB6E;}
	.st16{fill:#794617;}
	.st17{fill:#390B00;}
	.st18{fill:#FFFFFF;}
	.st19{fill:#FF78D9;}
	.st20{display:none;}
	.st21{display:inline;fill:none;stroke:#BD943A;stroke-width:35;stroke-linecap:round;stroke-miterlimit:10;}
    #female-monkey {
    animation : jump1 4s ease-in-out infinite;
    transform-origin : 30% -30%
    }
    #male-monkey{
    animation : jump2 4s ease-in-out infinite;
    transform-origin : 60% -40%
    }
     @keyframes jump2{
    0%{
    transform : translateY(0)
    }
    40%{
    transform : translateY(350px)
    }
    50%{
    transform :translateY(350px) rotate(5deg)
    }
   
    70%{
    transform :translateY(350px) rotate(-5deg)
    }
    
    90%{
    transform :translateY(350px) rotate(5deg)
    }
    
    100%{
    transform : translateY(350px) rotate(-5deg)
    }
    }
    
    @keyframes jump1{
    0%{
    transform : translateY(0)
    }
    30%{
    transform : translateY(410px)
    }
    40%{
    transform :translateY(410px) rotate(5deg)
    }
   
    60%{
    transform :translateY(410px) rotate(-5deg)
    }
    
    80%{
    transform :translateY(410px) rotate(5deg)
    }
    
    100%{
    transform : translateY(410px) rotate(-5deg)
    }
    }</style>
 <g>
  <title>Layer 1</title>
  <g id="male-monkey">
   <g id="PIERNA_DERE_copy">
    <g id="svg_97">
     <path id="svg_98" d="m147,67.4c0,0 -17.2,4.6 -18.4,11.1s29.3,3.5 29.7,-0.1c0.5,-3.7 0,-9.6 0,-9.6l-11.3,-1.4z" class="st13"/>
     <path id="svg_99" d="m149.8,12.9c0,0 22.5,-16.1 27.4,-17c4.9,-0.9 6.1,10.9 6.1,10.9l-19.2,14.1l-5.4,53.8c0,0 -19.5,1.8 -15.3,-6s6.4,-55.8 6.4,-55.8z" class="st14"/>
    </g>
   </g>
   <g id="PIERNA_IZQ_copy">
    <g id="svg_100">
     <path id="svg_101" d="m195,76.9c0,0 -15.6,8.5 -15.2,15.1s29.3,-3.5 28.8,-7.2s-2.3,-9.3 -2.3,-9.3l-11.3,1.4z" class="st13"/>
     <path id="svg_102" d="m184.8,23.3c0,0 15.9,-19.1 24.4,-19.1s9.9,2.6 7.9,5.9s-16.5,17.5 -16.5,17.5l7.6,53.5c0,0 -18.5,6.4 -16.3,-2.2s-7.1,-55.6 -7.1,-55.6z" class="st14"/>
    </g>
   </g>
   <g id="COLA_copy">
    <path id="svg_103" d="m320.8,-51.8c0,0 -11.4,-17.2 -14.7,-5.6s9.9,23.3 30.1,16.8c16.9,-5.5 17.4,-45.7 0,-57.7c-3,-2.1 -7.5,-4.3 -13,-3.8c-25,2.7 -23.6,56 -59.6,83.4c-9.5,7.2 -26,10.5 -52.5,11.4c3.2,1 6.7,9.2 9.9,10.2c10.3,0.5 27.2,-2.3 43.2,-11.3c40.7,-22.7 45.2,-80.2 59.5,-78.1c6.2,0.9 13.1,14.3 11.3,20.2c-2.6,8.9 -10,13.6 -14.2,14.5z" class="st14"/>
   </g>
   <g id="CUERPO_copy">
    <g id="svg_104">
     <ellipse id="svg_105" ry="30" rx="47.2" cy="-565.12984" cx="502.05926" class="st14" transform="matrix(0.1201 -0.9928 0.9928 0.1201 704.32 536.012)"/>
     <ellipse id="svg_106" ry="20" rx="39" cy="-565.72984" cx="497.45926" class="st15" transform="matrix(0.1201 -0.9928 0.9928 0.1201 700.757 530.859)"/>
    </g>
   </g>
   <g id="BRAZO_DERE_copy">
    <g id="svg_107">
     <path id="svg_108" d="m134.1,-101.8l11.8,0.5c0,0 -1.4,49.2 7.7,51.6s30,-11.7 30,-11.7l-0.9,9c0,0 -9,22.8 -32.1,15.5c-22.9,-7.2 -16.5,-64.9 -16.5,-64.9z" class="st14"/>
     <path id="svg_109" d="m134,-100.2c0,0 -0.7,-27.8 9,-28.1s15.9,3.4 13.1,5.6s-10.4,0.1 -12.6,2.9c-2.2,2.8 -4.9,10 0.6,9.2s11.3,-5 12.3,-1.6c0.9,3.5 -11.7,11.8 -11.7,11.8l-10.7,0.2z" class="st13"/>
    </g>
   </g>
   <g id="BRAZO_IZQ_copy">
    <g id="svg_110">
     <path id="svg_111" d="m276.2,2.5l-11.8,-0.3c0,0 0.8,-49.2 -8.4,-51.5s-29.6,0.3 -29.6,0.3l-3.8,-9.6c0,0 17,-8.5 36.1,-3.7c23.4,6 17.5,64.8 17.5,64.8z" class="st14"/>
     <path id="svg_112" d="m276.4,0.8c0,0 1.1,27.8 -8.6,28.2c-9.7,0.3 -16,-3.2 -13.2,-5.5c2.8,-2.3 10.4,-0.3 12.6,-3.1c2.1,-2.8 4.8,-10.1 -0.7,-9.2c-5.5,0.9 -11.3,5.2 -12.3,1.7c-1,-3.4 11.5,-11.9 11.5,-11.9l10.7,-0.2z" class="st13"/>
    </g>
   </g>
   <g id="CARA_copy">
    <g id="svg_113">
     <g id="svg_114">
      <ellipse id="svg_115" ry="44.5" rx="41.7" cy="-663.02984" cx="514.55926" class="st14" transform="matrix(0.1201 -0.9928 0.9928 0.1201 812.538 462.264)"/>
      <ellipse id="svg_116" ry="33.3" rx="31.4" cy="-623.12984" cx="503.15926" class="st13" transform="matrix(0.1201 -0.9928 0.9928 0.1201 762.814 485.979)"/>
      <ellipse id="svg_117" ry="32.5" rx="30.5" cy="-663.02984" cx="510.85926" class="st13" transform="matrix(0.1201 -0.9928 0.9928 0.1201 809.272 458.579)"/>
      <ellipse id="svg_118" ry="10.9" rx="15.6" cy="-657.62984" cx="561.35926" class="st14" transform="matrix(0.1201 -0.9928 0.9928 0.1201 848.28 513.457)"/>
      <ellipse id="svg_119" ry="10.9" rx="15.6" cy="-669.02984" cx="467.55926" class="st14" transform="matrix(0.1201 -0.9928 0.9928 0.1201 777.045 410.404)"/>
     </g>
     <path id="svg_120" d="m225.4,-91.6c-1.4,1.6 -3.1,2.9 -4.9,4.1c-1.8,1.2 -3.7,2.1 -5.7,2.9c-2,0.8 -4.1,1.2 -6.2,1.5l-1.6,0.1l-0.4,0l-0.4,0l-0.8,0l-0.8,0l-0.4,0l-0.4,0l-1.6,-0.1c-0.5,0 -1.1,-0.2 -1.6,-0.3l-0.8,-0.1c-0.3,0 -0.5,-0.1 -0.8,-0.2l-1.6,-0.4l-0.4,-0.1l-0.4,-0.1l-0.8,-0.3c-0.5,-0.2 -1,-0.4 -1.5,-0.6c-0.5,-0.2 -1,-0.4 -1.5,-0.7l-1.4,-0.8c-0.5,-0.3 -0.9,-0.6 -1.3,-0.9c-1.8,-1.2 -3.4,-2.6 -4.8,-4.2c-1.4,-1.6 -2.7,-3.3 -3.7,-5.1c1.3,1.7 2.7,3.2 4.2,4.6c1.5,1.4 3.2,2.7 5,3.7c0.4,0.3 0.9,0.5 1.3,0.8l1.4,0.7c0.5,0.2 0.9,0.4 1.4,0.6c0.5,0.2 1,0.4 1.4,0.5l0.7,0.3l0.4,0.1l0.4,0.1l1.5,0.4c0.2,0.1 0.5,0.1 0.8,0.2l0.8,0.1c0.5,0.1 1,0.2 1.5,0.2l1.5,0.2l0.4,0l0.4,0l0.8,0l0.8,0l0.4,0l0.4,0l1.5,-0.1c2,-0.2 4.1,-0.6 6,-1.2c2,-0.6 3.9,-1.5 5.7,-2.5c1.7,-0.9 3.5,-2 5.1,-3.4z" class="st16"/>
     <g id="svg_121">
      <ellipse id="svg_122" ry="1.7" rx="3.5" cy="-646.82984" cx="511.15926" class="st14" transform="matrix(0.1201 -0.9928 0.9928 0.1201 793.396 473.131)"/>
      <ellipse id="svg_123" ry="1.7" rx="3.5" cy="-648.22984" cx="499.95926" class="st14" transform="matrix(0.1201 -0.9928 0.9928 0.1201 784.899 460.838)"/>
     </g>
    </g>
   </g>
   <g id="OJOS_copy">
    <g id="svg_124">
     <g id="svg_125">
      <ellipse id="svg_126" ry="4.8" rx="9.1" cy="-664.42984" cx="521.85926" class="st17" transform="matrix(0.1201 -0.9928 0.9928 0.1201 820.258 468.3)"/>
      <ellipse id="svg_127" ry="4.8" rx="9.1" cy="-667.32984" cx="497.55926" class="st17" transform="matrix(0.1201 -0.9928 0.9928 0.1201 801.817 441.621)"/>
     </g>
     <circle id="svg_128" r="1.4" cy="-135.6" cx="222.3" class="st18"/>
     <circle id="svg_129" r="1.4" cy="-138.5" cx="198.3" class="st18"/>
    </g>
   </g>
  </g>
  <g class="st20" id="LIANA">
   <path id="svg_130" d="m133.7,-355.4c0,0 220.6,777.4 107.2,941.5" class="st21"/>
  </g>
 </g>
</svg>