<?xml version="1.0" encoding="utf-8"?>
<!-- Generator: Adobe Illustrator 17.0.0, SVG Export Plug-In . SVG Version: 6.00 Build 0)  -->
<!DOCTYPE svg PUBLIC "-//W3C//DTD SVG 1.1//EN" "http://www.w3.org/Graphics/SVG/1.1/DTD/svg11.dtd">
<svg version="1.1" id="Layer_1" xmlns="http://www.w3.org/2000/svg" xmlns:xlink="http://www.w3.org/1999/xlink" x="0px" y="0px"
	 width="300px" height="300px" viewBox="0 0 300 300" enable-background="new 0 0 300 300" xml:space="preserve">
<path fill="#FFFFFF" stroke="#000000" stroke-linecap="round" stroke-linejoin="round" stroke-miterlimit="10" d="M269.992,114.543
	c0,0-15.118,0.143-17.686,0c-2.567-0.143-18.969,24.817-20.11,26.671c-1.141,1.854,14.976,2.282,17.828,2.282
	s19.397-2.567,19.968-3.708C270.563,138.647,270.846,114.536,269.992,114.543z"/>
<path fill="#7C7D85" stroke="#000000" stroke-linecap="round" stroke-linejoin="round" stroke-miterlimit="10" d="M265.823,132.989
	c-0.336,0.036-19.444,0.741-21.774,0.262c-2.331-0.478,5.557-18.534,5.916-18.709c0.359-0.175,15.417-0.773,15.716,0.034
	C265.98,115.384,266.777,132.886,265.823,132.989z"/>
<path fill="#A5ABB4" stroke="#000000" stroke-linecap="round" stroke-linejoin="round" stroke-miterlimit="10" d="M255.881,120.583
	c0.291-0.067,7.051-0.179,7.051,0c0,0.179,0.418,10.876-0.359,10.936c-0.777,0.06-13.983,0.06-16.015-0.359
	C244.527,130.742,253.79,121.061,255.881,120.583z"/>
<path fill="#C4C1B8" stroke="#000000" stroke-linecap="round" stroke-linejoin="round" stroke-miterlimit="10" d="M269.673,140.034
	c-0.653,0.166-17.975,5.767-19.409,6.126c-1.434,0.359-15.955,13.923-16.553,14.402c-0.598,0.478-8.725-1.374-8.306-3.645
	s14.043-16.733,15.238-16.882C241.838,139.885,270.497,139.824,269.673,140.034z"/>
<path fill="#FFFFFF" stroke="#000000" stroke-linecap="round" stroke-linejoin="round" stroke-miterlimit="10" d="M114.101,95.574
	c-2.567,0-35.799,15.404-35.799,15.404s-0.428,27.955,0.571,28.098c0.998,0.143,22.535,8.558,24.247,10.269
	s41.077,14.548,48.065,14.548s73.519-2.457,75.373-4.026c1.854-1.569,7.837-24.859,9.833-26c1.997-1.141,21.764-5.06,22.049-6.629
	c0.285-1.569-0.713-35.371-0.571-36.227c0.143-0.856-1.712-1.426-3.138-1.426c-1.426,0-59.761,1.141-61.757,1.854
	c-1.997,0.713-25.815,16.973-29.524,16.402C159.742,107.269,115.371,95.574,114.101,95.574z"/>
<path fill="#7C7D85" stroke="#000000" stroke-linecap="round" stroke-linejoin="round" stroke-miterlimit="10" d="M109.196,97.255
	c0,0-28.281,11.805-28.877,12.791c-0.596,0.987-0.321,20.737,0,20.737s28.237-8.667,28.237-9.083
	C108.557,121.283,109.769,97.016,109.196,97.255z"/>
<path fill="#2F3132" stroke="#000000" stroke-linecap="round" stroke-linejoin="round" stroke-miterlimit="10" d="M106.724,105.449
	c0,0-25.167,10.5-25.25,10.75c-0.083,0.25-0.583,12.167,0,12.083c0.583-0.083,25-8.083,25.25-8.667
	C106.974,119.033,107.167,105.264,106.724,105.449z"/>
<path fill="#7C7D85" stroke="#000000" stroke-linecap="round" stroke-linejoin="round" stroke-miterlimit="10" d="M128.988,99.226
	c-0.861-0.219-0.848,23.557-0.598,23.973c0.25,0.417,29.667,5.501,29.833,5.084s0.24-21.582,0-21.641
	C157.983,106.583,129.967,99.476,128.988,99.226z"/>
<path fill="#A5ABB4" stroke="#000000" stroke-linecap="round" stroke-linejoin="round" stroke-miterlimit="10" d="M130.974,107.616
	c0,0-0.083,13.667,0,13.917s24.083,4.917,24.333,4.583c0.25-0.333,0.75-12.2,0.5-12.35
	C155.557,113.616,130.978,106.866,130.974,107.616z"/>
<path fill="#D6D6D5" stroke="#000000" stroke-linecap="round" stroke-linejoin="round" stroke-miterlimit="10" d="M160.224,156.866
	c-0.478-1.397-2.167-6.25-3.333-7.667c-1.167-1.417-17.833-15.25-19.167-15.583c-1.333-0.333-21.75-4-23.833-3.667
	c-2.083,0.333-35.018,9.126-35.018,9.126s7.101,4.208,8.768,5.291c1.667,1.083,55.917,11.667,61,13.25
	C153.724,159.199,160.973,159.058,160.224,156.866z"/>
<path fill="#A5ABB4" stroke="#000000" stroke-linecap="round" stroke-linejoin="round" stroke-miterlimit="10" d="M154.392,156.864
	c0.077-0.849-0.8-4.371-1.706-5.757c-0.906-1.386-14.765-14.712-16.311-15.565c-1.546-0.853-24.574-2.985-24.84-2.825
	s-8.262,6.023-8.316,6.183c-0.053,0.16-0.48,4.781-0.426,5.402C102.846,144.923,154.285,158.036,154.392,156.864z"/>
<path fill="none" stroke="#000000" stroke-linecap="round" stroke-linejoin="round" stroke-miterlimit="10" d="M111.961,143.751
	c0-0.267,0-10.392,0-11.033"/>
<path fill="none" stroke="#000000" stroke-linecap="round" stroke-linejoin="round" stroke-miterlimit="10" d="M116.438,145.137
	c0-0.853,0.414-11.745,0.42-12.029"/>
<path fill="none" stroke="#000000" stroke-linecap="round" stroke-linejoin="round" stroke-miterlimit="10" d="M124.807,147.535
	c0,0-0.16-13.38,0-13.646"/>
<path fill="none" stroke="#000000" stroke-linecap="round" stroke-linejoin="round" stroke-miterlimit="10" d="M132.91,150.52
	c0-0.693,0.16-15.063,0-15.66"/>
<path fill="none" stroke="#000000" stroke-linecap="round" stroke-linejoin="round" stroke-miterlimit="10" d="M139.733,152.439
	c0-0.746,0.191-13.21,0.175-13.881"/>
<path fill="none" stroke="#000000" stroke-linecap="round" stroke-linejoin="round" stroke-miterlimit="10" d="M147.462,154.731
	c0-0.746-0.107-8.254,0-9.004"/>
<path fill="#7C7D85" stroke="#000000" stroke-linecap="round" stroke-linejoin="round" stroke-miterlimit="10" d="M197.68,91.075
	c-0.555,0.027-0.238,26.873,0,26.955s56.004-0.335,56.41-1.184s-0.329-27.248-1.058-27.235
	C252.304,89.624,198.329,91.043,197.68,91.075z"/>
<path fill="#A5ABB4" stroke="#000000" stroke-linecap="round" stroke-linejoin="round" stroke-miterlimit="10" d="M200.195,99.225
	c-0.048,0.795,0.163,16.041,0.569,16.122s48.937-1.129,49.181-1.58c0.244-0.452,1.138-14.921,0-15.328
	C248.806,98.032,200.26,98.14,200.195,99.225z"/>
<path fill="#D6D6D5" stroke="#000000" stroke-linecap="round" stroke-linejoin="round" stroke-miterlimit="10" d="M258.44,127.237
	c0,0-14.348,7.294-15.974,8.188c-1.626,0.894-5.69,3.821-5.528,5.04c0.163,1.219-3.926,16.077-3.17,17.721
	c0.755,1.644,1.87,3.658,1.626,3.983c-0.244,0.325-22.436-5.446-24.306-5.853s-9.267-3.577-9.755-7.641
	c-0.488-4.065-1.138-15.689-1.138-17.477c0-1.788,2.357-3.695,4.227-3.961S259.537,126.528,258.44,127.237z"/>
<path fill="none" stroke="#000000" stroke-linecap="round" stroke-linejoin="round" stroke-miterlimit="10" d="M214.99,156.236
	c0.894-1.788,12.112-19.591,11.706-19.672c-0.406-0.081-13.006,5.121-14.632,5.69"/>
<path fill="#A5ABB4" stroke="#000000" stroke-linecap="round" stroke-linejoin="round" stroke-miterlimit="10" d="M215.803,138.921
	c-0.163-0.488-9.348-4.471-9.755-4.634c-0.406-0.163-5.755-0.408-5.735,0c0.02,0.408,0.642,14.713,1.568,15.98
	c0.926,1.267,3.273,2.879,4.411,3.204c1.138,0.325,9.341,3.979,9.647,3.466C216.246,156.425,215.803,138.921,215.803,138.921z"/>
<line fill="none" stroke="#000000" stroke-linecap="round" stroke-linejoin="round" stroke-miterlimit="10" x1="206.048" y1="134.287" x2="205.711" y2="153.244"/>
<path fill="#FFFFFF" stroke="#000000" stroke-linecap="round" stroke-linejoin="round" stroke-miterlimit="10" d="M28.974,184.713
	c-12.157,1.293-14.924,9.016,0,11.48s85.829,13.141,91.852,13.962c6.023,0.821,31.85-0.274,37.552-3.559
	c5.702-3.285,9.809-4.106,11.177-6.57c1.369-2.464,10.403-16.7,12.593-16.7c2.19,0,77.692-0.701,77.802-1.345
	c0.111-0.644-19.228-3.517-18.344-3.517c0.884,0,38.567,0.111,39.451,0c0.884-0.111-2.321-1.658-4.089-2.1
	c-1.768-0.442-34.81-2.696-35.694-2.564c-0.884,0.132-193.167,8.736-195.818,8.863C42.805,182.79,29.861,184.619,28.974,184.713z"/>
<path fill="#FFFFFF" stroke="#000000" stroke-linecap="round" stroke-linejoin="round" stroke-miterlimit="10" d="M40.099,148.699
	c-0.678,0.2-0.875,12.875,0,12.875s5.875,1.885,6.875,2.318s61.003,22.932,62.376,23.307c1.374,0.375,28.267-1.5,30.383-2.125
	s12.116-3.5,14.241-3.625s61.647-1,62.073-1s7.177-2.375,8.052-2.625s16.738-1.119,17.375-1.125c2.252-0.022,1.916-1.75,2.146-2.375
	s0.021-13.75,0-14.25s-18.396-1.625-19.396-2.375s-11.196-3.625-12.16-4s-47.09,1.314-49.215,1.032s-10-0.282-11.625-0.782
	s-38.352-11.467-40.125-12.125C103.219,138.9,42.224,148.074,40.099,148.699z"/>
<path fill="#B3E4FA" stroke="#000000" stroke-linecap="round" stroke-linejoin="round" stroke-miterlimit="10" d="M136.474,161.574
	c3.259,2.318,6.625,18.625,5.75,19.25s-1.76,2.374-12.88,5.312s-21.62,5.438-25.745,5.313s-60.625-3.652-60.625-4.201
	c0-0.549-1.125-25.174,0-25.674s59-4.8,62-4.587S135.778,161.08,136.474,161.574z"/>
<path fill="none" stroke="#000000" stroke-linecap="round" stroke-linejoin="round" stroke-miterlimit="10" d="M55.583,160.381
	c0,0,0.234,27.212,0,28.015"/>
<path fill="none" stroke="#000000" stroke-linecap="round" stroke-linejoin="round" stroke-miterlimit="10" d="M81.969,158.381
	c0.005,1.943,0.37,31.009,0,31.789"/>
<path fill="none" stroke="#000000" stroke-linecap="round" stroke-linejoin="round" stroke-miterlimit="10" d="M98.727,157.259
	c-0.022,0.001-0.264,32.995-0.509,33.905"/>
<path fill="none" stroke="#000000" stroke-linecap="round" stroke-linejoin="round" stroke-miterlimit="10" d="M114.95,158.247
	c0,0,0.567,31.328,0,31.453"/>
<path fill="none" stroke="#000000" stroke-linecap="round" stroke-linejoin="round" stroke-miterlimit="10" d="M125.713,159.772
	c0.072,0.011-0.726,27.499-0.636,27.476"/>
<line fill="none" stroke="#000000" stroke-linecap="round" stroke-linejoin="round" stroke-miterlimit="10" x1="134.262" y1="161.105" x2="134.262" y2="184.713"/>
<path fill="#7C7D85" stroke="#000000" stroke-linecap="round" stroke-linejoin="round" stroke-miterlimit="10" d="M151.599,163.303
	c-0.021,0.154-0.579,18.491-0.341,18.653c0.237,0.161,17.144-0.493,17.094-0.635s-0.052-17.393-0.19-17.671
	C168.022,163.372,151.627,163.098,151.599,163.303z"/>
<path fill="#9A9F9A" stroke="#000000" stroke-linecap="round" stroke-linejoin="round" stroke-miterlimit="10" d="M153.366,165.902
	c0,0-0.103,16.061,0,16.059s12.201-0.449,12.512-0.465c0.311-0.016,0.211-15.559,0-15.767
	C165.666,165.521,153.539,165.729,153.366,165.902z"/>
<path fill="none" stroke="#000000" stroke-linecap="round" stroke-linejoin="round" stroke-miterlimit="10" d="M224.016,157.578
	c0.032,0.285-0.225,20.342-0.225,20.342"/>
<path fill="#7C7D85" stroke="#000000" stroke-linecap="round" stroke-linejoin="round" stroke-miterlimit="10" d="M213.758,162.957
	c-0.008,0.219,0,17.74,0,17.74s1.836,0.104,2.114,0c0.277-0.104,6.716-2.166,6.788-2.4c0.072-0.234-0.136-14.578-0.24-14.613
	C222.316,163.65,213.772,162.573,213.758,162.957z"/>
<path fill="#9A9F9A" stroke="#000000" stroke-linecap="round" stroke-linejoin="round" stroke-miterlimit="10" d="M215.629,166.11
	c0.004,0.277,0.243,14.587,0.243,14.587s4.781-1.663,4.816-1.871c0.035-0.208-0.208-13.028-0.208-13.028
	S215.625,165.833,215.629,166.11z"/>
<path fill="#7C7D85" stroke="#000000" stroke-linecap="round" stroke-linejoin="round" stroke-miterlimit="10" d="M224.019,164.793
	c0,0-0.049,13.036,0.252,13c0.301-0.036,13.916-0.72,14.053-0.883s-0.036-11.839-0.14-12.117S224.089,164.585,224.019,164.793z"/>
<path fill="#9A9F9A" stroke="#000000" stroke-linecap="round" stroke-linejoin="round" stroke-miterlimit="10" d="M226.855,166.837
	c-0.011,0.155-0.209,10.68,0,10.74c0.209,0.059,8.766-0.553,9.251-0.692s0.173-9.875,0-10.048
	C235.932,166.664,226.876,166.522,226.855,166.837z"/>
</svg>
