<?xml version="1.0" encoding="utf-8"?>
<!-- Generator: Adobe Illustrator 16.0.0, SVG Export Plug-In . SVG Version: 6.00 Build 0)  -->
<!DOCTYPE svg PUBLIC "-//W3C//DTD SVG 1.1//EN" "http://www.w3.org/Graphics/SVG/1.1/DTD/svg11.dtd">
<svg version="1.1" id="Layer_1" xmlns="http://www.w3.org/2000/svg" xmlns:xlink="http://www.w3.org/1999/xlink" x="0px" y="0px"
	 width="100px" height="100px" viewBox="0 0 100 100" enable-background="new 0 0 100 100" xml:space="preserve">
<g>
	<g>
		<path fill="#E6E6E6" d="M66.111,90.569c1.979,1.14,1.986,2.99,0.024,4.131l-2.746,1.596c-1.964,1.14-5.156,1.14-7.132,0
			L35.116,84.089c-1.976-1.142-1.987-2.99-0.025-4.13l2.747-1.598c1.963-1.14,5.156-1.14,7.132,0L66.111,90.569z"/>
	</g>
	<g>
		<g>
			<path fill="#C58D3D" d="M54.224,48.995l-0.105,37.122c-0.007,2.321-1.647,3.256-3.667,2.091
				c-2.019-1.166-3.651-3.991-3.644-6.312l0.105-37.123L54.224,48.995z"/>
		</g>
		<path fill="#89622A" d="M54.224,48.995l-0.105,37.122c-0.002,1.153-0.41,1.965-1.066,2.346l1.236-0.718
			c0.657-0.382,1.063-1.192,1.067-2.345l0.104-37.124L54.224,48.995z"/>
	</g>
	<polygon fill="#E6E6E6" points="46.842,69.486 54.154,73.708 54.168,68.727 46.856,64.506 	"/>
	<polygon fill="#E6E6E6" points="54.154,73.698 55.39,72.985 55.403,67.988 54.169,68.702 	"/>
	<g>
		<path fill="#F2DFB5" d="M68.397,55.057c-0.117-3.671-0.237-7.342-0.354-11.013c-0.26-8.077-0.52-16.152-0.781-24.229l0,0
			c-0.038-1.175-0.337-2.129-0.45-2.488c-0.229-0.737-0.614-1.584-1.053-2.323c-0.631-1.06-1.284-1.777-1.533-2.037
			c-0.109-0.111-0.252-0.26-0.367-0.364c-0.222-0.199-0.521-0.457-0.755-0.643c-0.124-0.099-0.298-0.218-0.428-0.305
			c-0.122-0.081-0.29-0.18-0.416-0.257l0,0l-1.254-0.725l-1.255-0.725l-1.256-0.725L57.241,8.5l-1.255-0.725l-1.255-0.725
			l-1.255-0.724l-1.255-0.725l-1.255-0.725l-1.255-0.725c0,0,0,0,0,0c-0.6-0.343-1.197-0.583-1.771-0.714
			c-0.42-0.096-1.084-0.215-1.994-0.144c-0.765,0.061-1.489,0.226-2.244,0.479c-0.144,0.048-0.335,0.115-0.475,0.173
			c-0.262,0.107-0.607,0.258-0.863,0.375c-0.239,0.11-0.419,0.209-0.898,0.477L40.413,5.41c1.107-0.644,2.639-0.55,4.324,0.423
			l12.549,7.245c3.262,1.882,5.931,6.384,6.055,10.205l1.418,44.052c0.067,2.065-0.621,3.521-1.769,4.187l1.053-0.61
			c1.073-0.627,2.567-1.695,3.58-3.235c0.513-0.779,0.736-1.465,0.807-1.724c0.112-0.403,0.154-0.577,0.218-1.096
			c0.034-0.294,0.034-0.692,0.034-0.99l0,0C68.591,60.931,68.491,57.994,68.397,55.057z"/>
		<path fill="#FFF7D9" d="M64.759,67.335l-1.418-44.052c-0.124-3.82-2.793-8.322-6.055-10.205L44.737,5.833
			C43.052,4.86,41.52,4.767,40.413,5.41c-1.822,1.066-2.864,2.219-3.418,2.998c-0.579,0.814-0.8,1.455-0.907,1.763
			c-0.085,0.247-0.167,0.585-0.212,0.842c-0.048,0.273-0.079,0.642-0.099,0.917l0,0c-0.554,14.092-1.109,28.181-1.663,42.272l0,0
			c-0.074,2.062,0.701,3.907,1.364,5.092c0.436,0.78,1.025,1.594,1.577,2.177c0.112,0.119,0.26,0.279,0.381,0.391
			c0.23,0.211,0.546,0.487,0.79,0.684c0.13,0.105,0.313,0.233,0.453,0.327c0.128,0.085,0.305,0.189,0.436,0.271l0,0l1.563,0.903
			l1.563,0.901l1.563,0.902l1.563,0.902l1.563,0.902l1.563,0.903l1.563,0.902l1.563,0.901l1.563,0.901l1.563,0.903l0,0
			c0.85,0.487,1.549,0.668,1.811,0.724c0.217,0.046,0.51,0.093,0.729,0.121c0.132,0.016,0.311,0.023,0.442,0.031
			c0.168,0.008,0.394,0.002,0.56-0.004c0.132-0.005,0.307-0.023,0.437-0.032c0.036-0.005,0.594-0.069,0.989-0.165
			c0.26-0.063,0.604-0.158,0.86-0.235c0.144-0.042,0.333-0.113,0.475-0.163c0.096-0.033,0.552-0.212,0.904-0.378
			c0.424-0.201,0.424-0.201,1.039-0.544C64.138,70.856,64.826,69.4,64.759,67.335z"/>
		<g>
			<path fill="#FFEABF" d="M53.069,17.434c2.37,1.368,4.311,4.641,4.401,7.418c0.471,14.685,0.945,29.368,1.418,44.053
				c0.096,2.938-1.923,4.187-4.43,2.734c-5.21-3.007-10.42-6.015-15.63-9.022c-2.507-1.445-4.514-5.017-4.4-7.835
				c0.554-14.091,1.108-28.182,1.663-42.272c0.104-2.667,2.058-3.69,4.428-2.322C44.703,12.604,48.886,15.018,53.069,17.434z"/>
		</g>
	</g>
	<g>
		<g>
			<g>
				<path fill="#402D20" d="M63.339,23.108c-0.126-3.897-2.85-8.489-6.176-10.409l-12.79-7.385
					c-1.629-0.872-3.104-0.934-4.184-0.306c-1.857,1.086-2.921,2.263-3.486,3.058c-0.59,0.83-0.816,1.484-0.925,1.798
					c-0.087,0.251-0.17,0.597-0.217,0.859c-0.049,0.278-0.08,0.654-0.101,0.936l0,0c-0.134,3.411-0.268,6.821-0.402,10.232h0.102
					c0.127-3.258,0.256-6.515,0.384-9.773c0.107-2.719,2.099-3.764,4.517-2.368l12.8,7.39c2.417,1.396,4.398,4.734,4.487,7.567
					c0.156,4.833,0.313,9.666,0.469,14.498c0.067-0.198,0.156-0.379,0.248-0.547c0.765-1.385,2.817-1.875,3.012-0.019l0.022,8.408
					c0.002,0.539,0.223,0.918,0.599,1.026c0.277,0.082,0.59,0.01,0.896-0.166c0.689-0.399,1.341-1.337,1.469-2.257L63.339,23.108z"
					/>
				<path fill="#38271C" d="M53.458,17.141c-4.267-2.463-8.534-4.927-12.8-7.39c-2.418-1.396-4.411-0.352-4.517,2.368
					c-0.137,3.483-0.274,6.965-0.411,10.448c0,0,0.184,0.213,0.319,0.486c1.033,2.065,0.419,6.772,0.228,9.073
					c-0.087,1.06,0.527,2.339,1.361,3.275c0.336,0.378,0.685,0.664,1.023,0.859c1.257,0.726,2.395,0.218,2.399-1.373
					c0,0-0.359-4.268-0.355-5.555c0.001-0.735,1.083-2.884,3.14-1.163c0.83,0.695,2.151,1.496,2.17,3.441
					c0.037,3.891-0.775,5.75-0.861,7.707c-0.075,1.721,0.565,2.522,1.272,3.554c0.534,0.781,1.237,1.153,1.826,1.494
					c1.483,0.856,2.88,0.315,2.886-1.637l0.021-7.597c0.003-1.207,0.867-1.568,1.804-1.027c0.311,0.179,0.628,0.457,0.926,0.835
					c0.535,0.684,0.862,1.543,0.86,2.265l-0.007,1.965c-0.003,1.092,0.534,2.363,1.485,2.913c0.947,0.547,1.72,0.109,1.726-0.979
					l0.003-0.548c0.004-0.534,0.17-2.241,1.912-3.035c-0.156-4.832-1.769-7.979-1.923-12.812
					C57.856,21.875,55.875,18.537,53.458,17.141z"/>
			</g>
		</g>
		<g>
			<g>
				<g>
					<path fill="#CCCCCC" d="M63.848,45.869l-0.724-22.543c-0.126-3.897-2.85-8.489-6.175-10.409l-12.8-7.39
						c-0.882-0.509-1.723-0.781-2.484-0.838c-0.061,0.034-0.125,0.07-0.199,0.111L40.413,5.41c0.208-0.121,0.43-0.215,0.666-0.283
						c-0.236,0.068-0.458,0.163-0.666,0.283c-1.822,1.066-2.864,2.219-3.418,2.998c-0.525,0.738-0.754,1.332-0.873,1.667
						c1.005-1.099,2.842-1,4.809,0.665c3.623,2.081,7.141,4.101,10.765,6.181c2.828,0.966,5.337,4.807,5.44,8.004
						c0.154,4.833,0.311,9.666,0.467,14.498c0.069-0.198,0.156-0.379,0.25-0.547c0.765-1.385,2.815-1.875,3.01-0.019l0.024,8.408
						c0,0.538,0.221,0.917,0.596,1.025c0.278,0.082,0.593,0.01,0.897-0.165C63.071,47.727,63.72,46.789,63.848,45.869z"/>
					<path fill="#CCCCCC" d="M53.879,17.466c-4.267-2.463-8.533-4.927-12.8-7.39c-2.417-1.396-4.41-0.352-4.517,2.368
						c-0.137,3.482-0.274,6.965-0.411,10.448c0,0,0.183,0.214,0.319,0.486c1.033,2.065,0.418,6.772,0.228,9.073
						c-0.088,1.06,0.528,2.339,1.361,3.275c0.336,0.378,0.684,0.663,1.023,0.858c1.258,0.727,2.396,0.219,2.399-1.372
						c0,0-0.358-4.268-0.355-5.556c0.002-0.735,1.083-2.884,3.141-1.164c0.831,0.695,2.151,1.497,2.17,3.442
						c0.037,3.891-0.776,5.75-0.861,7.707c-0.075,1.721,0.565,2.522,1.272,3.554c0.534,0.781,1.237,1.154,1.827,1.494
						c1.482,0.856,2.88,0.315,2.885-1.636l0.021-7.597c0.004-1.207,0.868-1.568,1.804-1.027c0.311,0.179,0.629,0.456,0.925,0.835
						c0.537,0.683,0.864,1.542,0.862,2.264l-0.007,1.964c-0.003,1.092,0.67,2.64,1.717,2.974c1.343,0.429,1.336-1.531,1.409-2.674
						c0.067-1.078,0.828-1.765,0.968-2.169c-0.154-4.833-0.736-7.758-0.893-12.592C58.276,22.2,56.296,18.862,53.879,17.466z"/>
				</g>
				<path fill="#73513B" d="M63.576,23.238c-0.126-3.896-2.85-8.488-6.175-10.409l-12.8-7.39c-1.397-0.806-2.691-1.021-3.732-0.72
					c-0.107,0.031-0.21,0.069-0.312,0.11c-0.025,0.01-0.05,0.021-0.075,0.032c-0.101,0.044-0.198,0.092-0.292,0.147
					c-1.857,1.086-2.921,2.263-3.486,3.058c-0.59,0.83-0.816,1.484-0.925,1.798c-0.087,0.251-0.17,0.597-0.217,0.859
					c-0.049,0.278-0.08,0.654-0.101,0.936l0,0c-0.137,3.487-0.274,6.974-0.412,10.461c-0.01,0.237,0.115,0.46,0.322,0.577l0,0
					c0.137-3.482,0.273-6.965,0.411-10.448c0.122-3.117,2.722-4.034,5.6-1.596c3.624,2.081,7.141,4.1,10.765,6.18
					c2.828,0.967,5.338,4.807,5.44,8.005c0.156,4.833,0.311,9.665,0.467,14.498c0.069-0.198,0.156-0.379,0.25-0.547
					c0.763-1.384,2.815-1.875,3.01-0.019l0.024,8.408c0.002,0.539,0.221,0.917,0.597,1.025c0.277,0.083,0.592,0.011,0.896-0.165
					c0.691-0.399,1.341-1.336,1.471-2.257L63.576,23.238z"/>
				<path fill="#5C412F" d="M53.1,17.271c-4.267-2.463-8.534-4.927-12.8-7.39c-2.418-1.396-4.411-0.352-4.517,2.368
					c-0.137,3.483-0.274,6.965-0.411,10.448c0,0,0.183,0.214,0.319,0.487c1.033,2.065,0.419,6.772,0.228,9.073
					c-0.088,1.06,0.528,2.339,1.362,3.275c0.336,0.378,0.684,0.663,1.022,0.859c1.258,0.726,2.395,0.218,2.4-1.373
					c0,0-0.359-4.268-0.355-5.555c0.002-0.735,1.083-2.884,3.14-1.164c0.83,0.694,2.151,1.497,2.17,3.442
					c0.037,3.891-0.776,5.75-0.86,7.707c-0.075,1.722,0.565,2.523,1.272,3.555c0.534,0.781,1.237,1.153,1.826,1.494
					c1.483,0.856,2.88,0.314,2.886-1.638l0.022-7.596c0.002-1.207,0.868-1.568,1.803-1.028c0.311,0.179,0.628,0.457,0.925,0.835
					c0.536,0.684,0.862,1.542,0.86,2.264L54.387,39.3c-0.003,1.092,0.766,2.424,1.717,2.973c0.947,0.547,1.72,0.11,1.727-0.98
					l0.004-0.547c0.002-0.534,0.081-1.005,0.221-1.41c-0.156-4.833-0.311-9.665-0.467-14.498
					C57.497,22.005,55.518,18.667,53.1,17.271z"/>
			</g>
			<path fill="#6B4C37" d="M64.309,39.415c0.166-3.98,2.39-4.362,3.353-4.287c0.222,0.017,0.408-0.163,0.399-0.385
				c-0.16-5.014-0.322-10.028-0.482-15.042l0,0c-0.043-1.198-0.347-2.171-0.46-2.538c-0.235-0.752-0.627-1.615-1.075-2.369
				c-0.644-1.082-1.309-1.813-1.566-2.077c-0.109-0.113-0.255-0.266-0.371-0.372c-0.227-0.203-0.533-0.466-0.771-0.656
				c-0.126-0.1-0.303-0.222-0.438-0.311c-0.123-0.083-0.296-0.183-0.422-0.262l0,0l-1.279-0.739l-1.28-0.74l-1.28-0.739L57.355,8.16
				l-1.28-0.739l-1.28-0.739l-1.28-0.739l-1.279-0.739l-1.281-0.739l-1.28-0.739l0,0c-0.613-0.35-1.221-0.594-1.808-0.728
				c-0.428-0.098-1.105-0.219-2.033-0.146c-0.78,0.061-1.519,0.229-2.289,0.487c-0.146,0.049-0.341,0.118-0.484,0.176
				c-0.266,0.109-0.619,0.263-0.88,0.383c-0.244,0.112-0.427,0.214-0.917,0.486L40.19,5.008c0.094-0.055,0.192-0.103,0.292-0.147
				c0.025-0.011,0.051-0.021,0.076-0.032c0.101-0.042,0.204-0.08,0.311-0.11v0v0c1.042-0.3,2.335-0.086,3.732,0.72l12.8,7.39
				c3.325,1.92,6.049,6.512,6.175,10.409l0.727,22.543c0.014-0.11,0.024-0.219,0.024-0.329L64.309,39.415z"/>
		</g>
	</g>
	<path fill="#14110F" d="M67.586,20.017c-0.002-0.105-0.006-0.21-0.008-0.316l0,0c-0.043-1.198-0.347-2.171-0.46-2.538
		c-0.235-0.752-0.627-1.615-1.075-2.369c-0.644-1.082-1.309-1.813-1.566-2.077c-0.073-0.077-0.164-0.171-0.251-0.257
		c-0.022-0.023-0.047-0.046-0.071-0.065c-0.226-0.204-0.531-0.466-0.769-0.655c-0.126-0.101-0.305-0.222-0.437-0.312
		c-0.126-0.083-0.298-0.184-0.424-0.262c-0.625-0.361-2.179,0.031-4,1.089l-1.073,0.624c-2.36,1.371-4.277,3.346-4.302,4.424
		c0.493,0.29,0.966,0.661,1.406,1.09c1.737,1.661,3.01,4.237,3.082,6.495c0.934,0.495,3.615-0.221,5.988-1.6l1.073-0.625
		C66.318,21.723,67.373,20.719,67.586,20.017z"/>
	<path fill="#14110F" d="M40.286,9.862c0.003-1.074,1.93-3.063,4.303-4.441l1.074-0.625c1.696-0.985,3.16-1.392,3.857-1.152
		c-0.56-0.304-1.115-0.524-1.653-0.646c-0.428-0.098-1.105-0.219-2.033-0.146c-0.78,0.061-1.519,0.229-2.289,0.487
		c-0.146,0.049-0.341,0.118-0.484,0.176c-0.266,0.109-0.619,0.263-0.88,0.383c-0.244,0.112-0.427,0.214-0.917,0.486L40.19,5.008
		c0.094-0.055,0.192-0.103,0.292-0.147c-0.1,0.044-0.198,0.092-0.292,0.147c-1.857,1.086-2.921,2.263-3.486,3.058
		c-0.59,0.83-0.816,1.484-0.925,1.798c-0.087,0.251-0.17,0.597-0.217,0.859c-0.049,0.278-0.08,0.654-0.101,0.936l0,0
		c-0.001,0.039-0.003,0.078-0.005,0.117c0.028,0.184,0.129,0.339,0.313,0.454C35.876,9.51,37.868,8.466,40.286,9.862z M40.558,4.83
		c0.101-0.042,0.204-0.08,0.311-0.11C40.762,4.75,40.659,4.788,40.558,4.83c-0.013,0.005-0.025,0.01-0.039,0.016
		C40.533,4.84,40.545,4.834,40.558,4.83z"/>
	<path fill="#EBE3D3" d="M68.043,44.043c-0.096-2.974-0.191-5.947-0.286-8.922c0.177-0.031,0.311-0.188,0.304-0.378
		c-0.16-5.014-0.322-10.028-0.482-15.042l0,0c-0.043-1.198-0.347-2.171-0.46-2.538c-0.235-0.752-0.627-1.615-1.075-2.369
		c-0.644-1.082-1.309-1.813-1.566-2.077c-0.109-0.113-0.255-0.266-0.371-0.372c-0.227-0.203-0.533-0.466-0.771-0.656
		c-0.126-0.1-0.303-0.222-0.438-0.311c-0.123-0.083-0.296-0.183-0.422-0.262l0,0l-1.279-0.739l-1.28-0.74l-1.28-0.739L57.355,8.16
		l-1.28-0.739l-1.28-0.739l-1.279-0.739l-1.28-0.739l-1.281-0.739l-1.28-0.739l0,0c-0.613-0.35-1.221-0.594-1.808-0.728
		c-0.428-0.098-1.105-0.219-2.033-0.146c-0.295,0.022-0.583,0.066-0.871,0.119c0.613,0.12,1.267,0.369,1.947,0.761l12.722,7.345
		c3.305,1.908,6.013,6.472,6.136,10.345l1.438,44.658c0.034,1.073-0.134,1.982-0.461,2.707c0.314-0.339,0.611-0.709,0.877-1.11
		c0.513-0.779,0.736-1.465,0.807-1.724c0.112-0.403,0.154-0.577,0.218-1.096c0.034-0.294,0.034-0.692,0.034-0.99l0,0
		c-0.091-2.936-0.19-5.872-0.284-8.81C68.28,51.386,68.16,47.715,68.043,44.043z"/>
</g>
</svg>
