<?xml version="1.0" encoding="utf-8"?>
<!-- Generator: Adobe Illustrator 17.0.0, SVG Export Plug-In . SVG Version: 6.00 Build 0)  -->
<!DOCTYPE svg PUBLIC "-//W3C//DTD SVG 1.1//EN" "http://www.w3.org/Graphics/SVG/1.1/DTD/svg11.dtd">
<svg version="1.1" id="Layer_1" xmlns="http://www.w3.org/2000/svg" xmlns:xlink="http://www.w3.org/1999/xlink" x="0px" y="0px"
	 width="800px" height="600px" viewBox="0 0 800 600" enable-background="new 0 0 800 600" xml:space="preserve">
<g>
	<ellipse fill="#D2D2D2" cx="428.033" cy="409.351" rx="263.426" ry="16.502"/>
	<path d="M752.778,241.064c-3.187,3.972-6.571,7.908-9.826,11.55c-1.974-2.249-6.082-2.234-8.521-0.386
		c-3.486,2.64-3.744,7.867-1.993,11.653c-1.49,1.525-2.808,2.849-3.863,3.88c-1.724-1.418-3.658-2.06-5.584-2.06
		c-6.657-0.003-13.132,7.452-9.842,15.315c-1.108,0.82-2.235,1.613-3.362,2.406c-1.654-1.213-2.472-3.443-4.202-4.651
		c-1.627-1.138-4.099-0.413-5.434,0.845c-2.109,1.989-2.953,4.866-3.306,7.67c-0.151,1.209-0.352,2.976-0.148,4.496
		c-0.632,0.366-1.256,0.744-1.891,1.102c-3.131-2.452-6.122-4.705-9.751-4.705c-1.495,0-3.096,0.381-4.861,1.288
		c-4.705,2.417-5.232,9.251-6.951,13.725c-3.873,1.522-7.185,3.616-11.139,4.891c-3.263-1.518-7.23-8.117-13.923-5.974
		c-5.883,1.884-5.743,9.097-7.306,11.396c-1.151,0.242-2.94,0.519-5.022,0.803c-2.569-1.869-1.829-7.22-5.52-7.774
		c-6.343-0.952-5.904,7.268-9.694,9.537c-1.315,0.133-2.338,0.233-2.889,0.284c-1.821-0.646-2.007-6.526-7.427-6.526
		c-5.697,0-6.34,5.1-9.417,7.38c-3.739,0.046-7.481-0.007-11.217-0.153c-3.672-3.138-1.009-12.604-9.966-13.429
		c-8.96-0.827-13.187,9.373-17.68,10.445c-3.336-0.604-9.447-1.884-10.012-2.098c-0.565-0.214-0.795-2.465-0.888-3.798
		c-0.091-1.333,0.137-6.483-1.516-9.051c-0.718-1.118-1.873-2.701-4.456-2.986c-7.444-0.829-9.696,5.467-15.974,7.872
		c-2.222-0.98-6.058-2.344-7.756-2.843c-2.781-3.954-0.998-11.485-4.186-15.484c-1.052-1.317-2.645-2.253-5.12-2.547
		c-6.171-0.734-14.377,10.199-18.011,11.993c-1.868-0.093-5.695-0.367-9.507,0c-3.908-3.309-4.138-11.717-11.673-11.303
		c-9.826,0.539-8.179,10.66-13.192,13.467c-5.446,0.612-10.384,1.715-15.843,2.109c-2.895-2.16-1.883-15.439-13.786-15.14
		c-7,0.176-11.792,10.945-13.644,13.073c-1.853,2.129-4.103,3.837-5.015,3.941c-0.912,0.102-6.808-0.395-7.697-0.607
		c-0.889-0.21-1.484-1.727-2.863-4.438c-1.379-2.71-2-11.848-6.894-12.889c-5.224-1.112-8.896,4.445-11.392,6.457
		c-1.602,1.206-5.239,1.656-8.684,0.139c-4.818-2.12-5.591-7.174-5.468-9.006c0.123-1.832,1.214-5.52,2.297-8.044
		c1.133-2.644,3.681-7.643,0.785-11.545c-6.963-9.373-18.431,1.257-24.973-1.362c-1.381-2.043-2.754-4.093-4.083-6.176
		c1.241-6.199,12.318-21.799,5.951-26.557c-2.482-1.853-6.513-1.255-10.318-0.66c-2.272,0.355-4.025,0.667-5.767,0.554
		c-1.741-0.113-3.818-0.829-5.075-2.451c-1.256-1.621-1.558-3.251-1.482-5.872c0.158-5.473,3.485-13.098,2.176-19.023
		c-0.707-3.209-2.828-4.269-5.343-4.269c-2.941-0.003-6.404,1.447-8.78,2.609c-1.653-4.046-4.131-8.964-5.468-13.761
		c2.356-2.007,4.485-4.242,6.289-6.66c8.649-11.595,3.759-26.136-7.688-33.591c-4.754-3.1-10.527-4.519-16.491-4.519
		c-10.587-0.003-21.789,4.467-29.072,11.918c-11.762-2.873-22.931,0.285-28.886,2.402c-2.554-4.641-8.022-13.596-21.48-13.817
		c-9.31-0.153-17.769,6.332-22.908,14.821c-6.066,10.031-8.457,23.231,1.17,31.87c5.368,4.818,12.514,7.213,19.763,8.388
		c4.577,16.419,0.96,36.681-17.548,61.615c-4.695,6.324-10.407,11.774-16.599,16.64c-5.16,3.871-10.667,7.178-16.573,9.767
		c-4.694,1.905-9.535,3.28-14.534,4.077c-4.96-3.766-11.464-5.941-19.002-6.067c-0.279-0.004-0.558-0.005-0.837-0.005
		c-16.866,0-35.113,8.571-43.975,23.072c-7.876,12.889-5.96,23.165-1.49,27.229c-2.249,4.466-3.337,10.495-0.952,16.024
		c4.132,9.572,14.71,15.74,23.66,20.071c24.953,12.08,53.011,13.171,79.316,4.375c16.644-5.563,32.106-14.755,46.974-23.931
		c3.109-1.919,6.177-3.933,9.173-6.044c21.902,14.09,46.553-11.585,57.418-28.953c1.553-2.481,2.974-5.104,4.275-7.829
		c1.059,8.437,2.606,16.808,6.05,24.427c1.092,2.419,2.466,4.641,4.05,6.699c-5.717,5.97-10.688,19.174-11.036,32.8
		c-14.955,0.547-37.258,12.259-36.59,21.234c-6.083,4.004-10.164,8.086-8.531,12.313c1.632,4.228,13.198,6.329,18.173,7.417
		c3.413,2.004,17.506,4.228,35.228,1.317c14.584,8.367,34.117,7.158,48.698-0.48c6.451-3.38,13.314-9.039,14.269-16.683
		c0.857-6.85-5.827-10.637-11.704-12.437c-0.03-5.374-0.179-10.754-0.298-16.133c19.764,17.807,50.405,17.39,75.584,15.86
		c0.188,2.247,0.712,4.068,1.41,6.231c-11.719,0.89-23.292,4.598-27.446,11.349c-2.713,0.786-4.079,2.077-5.102,4.45
		c2.951,10.905,24.759,13.869,41.999,9.762c11.531,6.731,28.938,4.422,40.605,0.402c6.649-2.289,13.24-6.015,16.299-12.641
		c3.624-7.85,0.451-14.694-7.311-16.364c-0.167-3.807-0.355-11.401,0.227-16.322c16.121,5.994,40.362,9.251,65.327,11.059
		c23.46,1.7,57.167,3.98,85.75-2.532c28.583-6.512,51.016-16.644,77.428-46.312C753.466,294.694,765.245,253.213,752.778,241.064z
		 M451.942,381.482c-0.034-0.477-0.03-0.944,0.008-1.431c0.01-0.054,0.025-0.106,0.037-0.159c5.741-0.835,11.359-2.218,16.544-4.768
		c1.927-0.949,3.656-2.109,5.228-3.42c0.153,3.466,0.38,6.928,0.808,10.375c-6.253,0.719-12.604,1.927-18.236,4.2
		c-0.142-0.117-0.303-0.225-0.486-0.32c-0.568-0.303-1.108-0.625-1.638-0.99c-0.457-0.378-0.874-0.785-1.272-1.233
		c-0.244-0.352-0.462-0.714-0.661-1.098C452.137,382.259,452.027,381.88,451.942,381.482z M321.312,347.514
		c4.461,2.959,9.265,5.834,13.787,8.2c-0.083,7.78,0.54,15.546,1.991,23.02c-5.222,0.775-10.264,1.833-14.849,3.541
		c-1.479-3.165-3.727-5.768-6.331-8.047C315.972,364.35,317.826,353.891,321.312,347.514z"/>
	<path fill="#538249" d="M734.36,254.698c0.941-1.349,2.44-2.044,4.046-2.087c1.439-0.036,2.397,0.623,3.112,1.596
		c-2.935,3.244-5.724,6.207-8.121,8.684C732.547,260.151,732.676,257.108,734.36,254.698z"/>
	<path fill="#538249" d="M714.183,275.158c0.14-0.691,0.312-1.333,0.549-1.997c0.307-0.65,0.64-1.241,1.038-1.841
		c0.56-0.701,1.157-1.309,1.845-1.891c0.715-0.498,1.434-0.909,2.224-1.262c0.654-0.222,1.278-0.383,1.948-0.504
		c0.659-0.05,1.272-0.047,1.923,0.009c0.659,0.132,1.256,0.307,1.886,0.553c0.406,0.194,0.791,0.418,1.154,0.678
		c0.118,0.097,0.22,0.198,0.334,0.295c-3.86,3.678-7.895,7.177-12.107,10.472c-0.046,0.035-0.097,0.069-0.145,0.105
		c-0.013-0.032-0.032-0.061-0.048-0.093c-0.272-0.783-0.473-1.523-0.616-2.331C714.116,276.603,714.121,275.902,714.183,275.158z"/>
	<path fill="#538249" d="M698.826,287.014c0.231-2.906,1.076-6.242,4.159-7.248c2.736-0.892,3.839,2.894,5.966,4.251
		c-3.236,2.25-6.55,4.384-9.928,6.409C698.913,289.249,698.743,288.052,698.826,287.014z"/>
	<path fill="#538249" d="M678.101,295.415c0.414-0.928,0.88-1.779,1.471-2.594c0.382-0.422,0.764-0.789,1.194-1.144
		c0.315-0.221,0.646-0.416,0.99-0.582c0.654-0.251,1.275-0.428,1.964-0.569c1.186-0.124,2.327-0.102,3.524-0.005
		c0.538,0.078,1.065,0.215,1.574,0.409c0.742,0.358,1.388,0.75,2.058,1.235c0.721,0.609,1.388,1.209,2.044,1.771
		c-5.264,2.879-10.665,5.514-16.193,7.88c-0.234,0.098-0.473,0.184-0.707,0.28C676.769,299.813,677.318,297.433,678.101,295.415z"/>
	<path fill="#538249" d="M649.284,303.81c5.194-1.286,8.592,4.503,10.706,5.239c-5.361,1.665-11.564,3.052-17.046,4.273
		C644.415,310.931,644.093,305.095,649.284,303.81z"/>
	<path fill="#538249" d="M623.865,314.511c1.014-1.592,4.436-9.396,7.142-5.478c1.033,1.493,1.471,3.867,2.432,5.591
		c-3.534,0.449-7.475,0.888-10.596,1.217C623.208,315.454,623.547,315.012,623.865,314.511z"/>
	<path fill="#538249" d="M610.138,311.575c4-0.046,4.532,3.607,5.248,4.971c-3.943,0.312-7.892,0.519-11.844,0.616
		C604.699,315.755,606.141,311.622,610.138,311.575z"/>
	<path fill="#538249" d="M578.941,305.234c7.906,0.405,4.917,7.673,8.269,11.709c-5.353-0.274-10.703-0.722-16.029-1.395
		c-1.59-0.216-5.04-0.734-6.62-0.986C568.585,312.649,572.647,304.913,578.941,305.234z"/>
	<path fill="#538249" d="M539.795,298.849c2.159-1.196,3.891-1.639,6.295-0.646c2.543,1.053,3.047,2.793,3.354,5.423
		c0.307,2.629-0.318,5.06,0.348,7.838c-6.491-1.591-12.47-4.218-18.772-6.46C534.563,303.017,537.635,300.044,539.795,298.849z"/>
	<path fill="#538249" d="M512.597,285.157c6.371,1.126,4.927,11.308,6.156,15.187c-4.966-1.587-9.862-3.392-15.083-4.18
		c-2.058-0.312-4.952-0.687-7.019-0.853C501.197,292.811,506.225,284.032,512.597,285.157z"/>
	<path fill="#538249" d="M473.405,285.662c5.788-0.183,5.836,7.581,8.638,9.604c-5.101,0.091-13.856,1.088-19.434,1.709
		C466.375,294.255,465.137,285.926,473.405,285.662z"/>
	<path fill="#538249" d="M423.033,291.208c1.21-2.054,3.599-4.994,7.734-4.948c4.136,0.046,6.385,1.969,7.444,5.054
		c1.058,3.087,2.066,6.481,3.492,8.637c-6.526,1.241-19.62,1.793-26.306,1.489C418.576,298.711,421.824,293.261,423.033,291.208z"/>
	<path fill="#538249" d="M387.441,288.237c1.583-1.666,3.583-3.165,5.621-2.916c0.001,0,0.003,0,0.004,0
		c0.208,0.025,0.416,0.05,0.623,0.113c2.251,0.69,2.941,2.894,3.723,6.066c0.781,3.17,1.285,6.016,3.399,8.811
		c-6.145-0.935-12.153-2.424-17.923-4.757c-1.077-0.479-3.685-1.683-4.728-2.216C383.582,294.072,385.696,290.075,387.441,288.237z"
		/>
	<path fill="#538249" d="M359.815,259.958c2.831-0.566,7.643-0.945,9.815,2.265c2.171,3.209,0.001,7.645-1.321,11.23
		c-1.322,3.586-2.679,8.292-1.117,11.961c-4.432-4.075-8.353-8.674-12.06-13.429c-2.288-3.002-5.048-6.462-7.208-9.572
		C352.524,262.897,356.984,260.525,359.815,259.958z"/>
	<path fill="#538249" d="M339.033,229.011c2.318-0.327,4.613-0.646,6.723-0.438c0.381,0.069,0.742,0.16,1.11,0.286
		c0.214,0.109,0.412,0.223,0.608,0.362c0.092,0.083,0.18,0.175,0.262,0.27c0.09,0.126,0.166,0.258,0.235,0.397
		c0.101,0.282,0.176,0.555,0.239,0.85c0.064,0.744,0.027,1.462-0.059,2.203c-0.457,2.549-1.351,4.959-2.33,7.347
		c-1.565,3.572-3.982,7.324-4.904,10.989c-4.748-7.607-9.189-15.426-13.304-23.409C330.931,230.1,335.012,229.57,339.033,229.011z"
		/>
	<path fill="#538249" d="M317.204,198.946c1.389-0.553,2.771-1.018,4.249-1.279c0.642-0.061,1.252-0.069,1.889-0.003
		c0.237,0.047,0.463,0.118,0.686,0.202c0.182,0.082,0.363,0.165,0.527,0.274c0.22,0.183,0.414,0.373,0.604,0.588
		c0.175,0.27,0.325,0.541,0.464,0.826c0.195,0.554,0.326,1.096,0.428,1.672c0.225,2.077,0.044,4.145-0.221,6.212
		c-0.553,3.712-2.147,8.544-2.024,12.827c-3.148-6.464-6.123-12.995-8.916-19.551c-0.078-0.187-0.149-0.375-0.226-0.561
		C315.503,199.735,316.343,199.325,317.204,198.946z"/>
	<path fill="#3A6226" d="M739.457,252.73c-2.012,3.025-4.121,5.986-6.297,8.906c-0.019,0.023-0.04,0.039-0.059,0.063
		c0.078,0.4,0.175,0.799,0.296,1.192c2.397-2.478,5.186-5.44,8.121-8.684C740.993,253.494,740.334,252.956,739.457,252.73z"/>
	<path fill="#3A6226" d="M725.596,268.225c-0.247-0.1-0.492-0.178-0.737-0.254c-3.037,3.233-6.649,5.871-10.711,7.954
		c-0.016,0.471-0.013,0.94,0.019,1.426c0.143,0.808,0.344,1.548,0.616,2.331c0.016,0.032,0.035,0.06,0.048,0.093
		c0.048-0.036,0.1-0.07,0.145-0.105c4.212-3.295,8.247-6.793,12.107-10.472c-0.113-0.097-0.215-0.198-0.334-0.295
		C726.387,268.643,726.002,268.419,725.596,268.225z"/>
	<path fill="#3A6226" d="M707.862,283.064c-2.539,2.421-5.463,4.36-8.933,5.182c-0.035,0.008-0.065,0.005-0.1,0.015
		c0.04,0.701,0.126,1.435,0.194,2.165c3.378-2.024,6.692-4.159,9.928-6.409C708.558,283.769,708.203,283.434,707.862,283.064z"/>
	<path fill="#3A6226" d="M689.503,291.303c-3.309,3.488-7.723,5.656-12.395,7.169c-0.35,1.193-0.691,2.415-1.09,3.622
		c0.234-0.095,0.474-0.182,0.707-0.28c5.528-2.366,10.929-5.001,16.193-7.88c-0.656-0.562-1.323-1.162-2.044-1.771
		C690.426,291.836,689.971,291.561,689.503,291.303z"/>
	<path fill="#3A6226" d="M644.079,310.111c-0.358,1.252-0.648,2.421-1.135,3.21c5.482-1.221,11.685-2.608,17.046-4.273
		c-0.654-0.229-1.434-0.941-2.348-1.778C653.427,309.223,648.867,309.91,644.079,310.111z"/>
	<path fill="#3A6226" d="M625.054,312.386c-0.516,0.913-0.931,1.722-1.189,2.125c-0.317,0.5-0.656,0.943-1.022,1.33
		c3.12-0.329,7.061-0.768,10.596-1.217c-0.471-0.845-0.815-1.845-1.167-2.823C629.89,312.228,627.483,312.468,625.054,312.386z"/>
	<path fill="#3A6226" d="M604.847,315.158c-0.516,0.798-0.931,1.547-1.305,2.004c3.952-0.097,7.9-0.304,11.844-0.616
		c-0.207-0.398-0.406-0.993-0.675-1.633C611.432,315.049,608.134,314.943,604.847,315.158z"/>
	<path fill="#3A6226" d="M569.424,310.483c-1.713,1.696-3.292,3.331-4.863,4.079c1.58,0.251,5.03,0.769,6.62,0.986
		c5.326,0.672,10.676,1.12,16.029,1.395c-1.13-1.36-1.539-3.087-1.886-4.795C580.017,312.022,574.699,311.207,569.424,310.483z"/>
	<path fill="#3A6226" d="M549.53,305.715c-4.563-1.029-8.947-3.042-13.566-4.116c-1.491,1.15-3.157,2.402-4.944,3.405
		c6.302,2.242,12.281,4.869,18.772,6.46C549.305,309.434,549.506,307.589,549.53,305.715z"/>
	<path fill="#3A6226" d="M502.433,290.296c-2.042,1.985-3.951,4.008-5.782,5.015c2.067,0.165,4.961,0.541,7.019,0.853
		c5.221,0.788,10.117,2.593,15.083,4.18c-0.257-0.814-0.397-1.913-0.516-3.14C512.703,296.118,507.457,293.128,502.433,290.296z"/>
	<path fill="#3A6226" d="M480.049,292.292c-4.843,1.119-9.92,1.332-14.902,0.841c-0.652,1.553-1.343,2.98-2.537,3.844
		c5.577-0.621,14.333-1.618,19.434-1.709C481.209,294.664,480.619,293.549,480.049,292.292z"/>
	<path fill="#3A6226" d="M419.548,296.64c-1.27,1.779-2.714,3.565-4.151,4.8c6.686,0.304,19.781-0.247,26.306-1.489
		c-0.904-1.368-1.638-3.239-2.326-5.21C432.835,296.946,426.254,297.92,419.548,296.64z"/>
	<path fill="#3A6226" d="M384.062,291.838c-1.411,1.091-3.263,1.856-5.902,1.498c1.043,0.534,3.651,1.738,4.728,2.216
		c5.77,2.333,11.778,3.822,17.923,4.757c-0.688-0.909-1.196-1.829-1.607-2.758C393.826,297.17,388.424,295.026,384.062,291.838z"/>
	<path fill="#3A6226" d="M367.941,274.491c-5.241-2.828-9.325-8.02-12.561-13.178c-2.258,0.718-4.829,1.376-7.456,1.099
		c2.16,3.109,4.919,6.57,7.208,9.572c3.707,4.756,7.628,9.354,12.06,13.429C365.775,282.087,366.761,277.917,367.941,274.491z"/>
	<path fill="#3A6226" d="M335.475,229.421c-2.807,0.211-5.525,0.019-7.861-1.552c4.114,7.982,8.556,15.802,13.304,23.409
		c0.592-2.356,1.802-4.748,3.007-7.105C340.25,239.874,337.683,234.663,335.475,229.421z"/>
	<path fill="#3A6226" d="M321.369,203.74c-0.756-1.239-2.068-3.216-2.898-5.255c-0.424,0.143-0.847,0.293-1.268,0.46
		c-0.861,0.379-1.701,0.789-2.539,1.206c0.077,0.186,0.148,0.374,0.226,0.561c2.792,6.557,5.767,13.088,8.916,19.551
		c-0.098-3.397,0.878-7.128,1.565-10.384C323.915,207.839,322.581,205.727,321.369,203.74z"/>
	<path fill="#FFFFFF" d="M304.961,152.642c0.021-0.202,0.055-0.402,0.103-0.599c0.024-0.098,0.052-0.195,0.083-0.29
		c0.062-0.191,0.139-0.374,0.227-0.553c0.034-0.07,0.061-0.144,0.1-0.211c0.131-0.233,0.289-0.448,0.468-0.648
		c0.052-0.059,0.115-0.11,0.172-0.165c0.149-0.144,0.311-0.274,0.488-0.394c0.073-0.047,0.147-0.097,0.224-0.141
		c0.24-0.134,0.498-0.25,0.785-0.331c0.017-0.004,0.032-0.012,0.049-0.016c0.34-0.091,0.71-0.141,1.112-0.141
		c4.158,0,4.946,5.22,2.368,7.205c-0.037,0.028-0.079,0.051-0.118,0.078c-0.147,0.102-0.303,0.196-0.469,0.278
		c-0.075,0.036-0.155,0.069-0.235,0.101c-0.15,0.06-0.31,0.112-0.475,0.155c-0.086,0.021-0.17,0.046-0.261,0.063
		c-0.234,0.043-0.482,0.071-0.744,0.074c-0.023,0-0.042,0.005-0.066,0.005c-0.06,0-0.111-0.015-0.17-0.018
		c-0.24-0.008-0.475-0.025-0.693-0.067c-0.123-0.024-0.231-0.069-0.346-0.102c-0.139-0.042-0.281-0.078-0.409-0.133
		c-1.024-0.439-1.686-1.295-2.003-2.281c-0.063-0.192-0.11-0.389-0.145-0.588c-0.015-0.083-0.034-0.164-0.044-0.247
		c-0.032-0.266-0.043-0.538-0.028-0.807C304.936,152.793,304.952,152.717,304.961,152.642z"/>
	<path fill="#FFFFFF" d="M301.296,148.851c0.175-0.51,0.612-0.916,1.312-0.916c1.163,0,1.601,1.126,1.312,1.974
		c-0.174,0.508-0.612,0.916-1.311,0.916C301.445,150.825,301.008,149.698,301.296,148.851z"/>
	<path fill="#F7FF95" d="M275.348,151.182c4.523-3.799,10.942-5.023,16.644-3.258c-7.033,6.546-4.972,22.856,7.45,22.856
		c5.095,0,8.544-2.545,10.367-5.99c2.625,5.568-0.498,10.885-6.058,13.889C289.821,178.317,270.283,165.473,275.348,151.182z"/>
	<path fill="#FFFFFF" d="M198.512,155.949c0.005-0.085,0.009-0.17,0.02-0.253c0.014-0.104,0.038-0.205,0.063-0.307
		c0.018-0.077,0.034-0.155,0.057-0.229c0.032-0.101,0.075-0.198,0.117-0.295c0.031-0.07,0.059-0.144,0.094-0.211
		c0.05-0.093,0.109-0.176,0.168-0.262c0.046-0.065,0.085-0.133,0.136-0.194c0.065-0.079,0.142-0.147,0.217-0.218
		c0.059-0.057,0.114-0.117,0.179-0.17c0.081-0.063,0.177-0.113,0.269-0.168c0.072-0.042,0.138-0.091,0.217-0.128
		c0.108-0.051,0.231-0.082,0.35-0.12c0.076-0.022,0.144-0.057,0.226-0.073c0.197-0.043,0.41-0.063,0.634-0.066
		c0.012,0,0.021-0.003,0.033-0.003h0.002c3.73,0,3.73,5.79-0.001,5.79c-1.826,0-2.753-1.389-2.791-2.806
		C198.5,156.142,198.506,156.046,198.512,155.949z"/>
	<path fill="#FFFFFF" d="M194.911,158.806c0.016-0.065,0.03-0.129,0.054-0.191c0.04-0.101,0.098-0.19,0.157-0.278
		c0.036-0.052,0.065-0.109,0.108-0.156c0.08-0.086,0.183-0.152,0.287-0.215c0.048-0.028,0.087-0.069,0.14-0.091
		c0.17-0.073,0.364-0.12,0.588-0.12c0.007,0,0.012,0.004,0.018,0.004c0.217,0.001,0.407,0.044,0.572,0.116
		c0.068,0.028,0.116,0.079,0.175,0.12c1.028,0.674,0.787,2.655-0.764,2.655c-0.209,0-0.387-0.046-0.55-0.112
		c-0.069-0.027-0.126-0.067-0.186-0.105c-0.092-0.057-0.181-0.116-0.253-0.188c-0.048-0.05-0.087-0.105-0.126-0.161
		c-0.059-0.085-0.111-0.171-0.151-0.266c-0.025-0.062-0.048-0.126-0.065-0.192c-0.026-0.099-0.043-0.203-0.05-0.307
		c-0.005-0.066-0.009-0.135-0.005-0.202C194.866,159.01,194.886,158.908,194.911,158.806z"/>
	<path fill="#F7FF95" d="M190.865,169.272c1.671,1.354,5.335,2.897,8.066,2.504c12.377-1.781,12.924-17.085,4.417-21.681
		c2.666-3.023,9.226-3.799,13.025-0.724c3.076,18.089-9.95,32.382-16.824,33.468C192.131,181.031,188.713,173.678,190.865,169.272z"
		/>
	<path fill="#E1DE44" d="M290.109,172.195c-8.914-3.774-14.923-11.186-14.934-20.442c-4.353,14.06,14.832,26.569,28.575,26.926
		c3.487-1.884,6.013-4.676,6.767-7.871C304.201,173.958,297.238,175.214,290.109,172.195z"/>
	<path fill="#E1DE44" d="M209.989,168.839c-4.919,4.276-12.895,8.348-19.176,6.437c1.19,3.298,4.212,6.461,8.735,7.564
		c5.209-0.823,13.928-9.241,16.517-21.137C214.354,164.369,212.34,166.796,209.989,168.839z"/>
	<path fill="#749B49" d="M302.732,406.103c-0.007,0.008-0.013,0.016-0.019,0.025c-7.288,2.059-20.046,1.465-27.113-0.607
		c3.432-6.236,10.104-10.188,17.526-11.724c2.151-0.445-1.187-3.413-6.305-1.779c-7.953,2.535-13.419,5.213-17.135,11.866
		c-3.553,0.172-7.64-0.593-10.756-2.448c-4.58-2.725,13.723-12.535,24.627-14.465c1.365-0.24-1.262-3.56-4.525-2.892
		c-3.263,0.667-8.299,2.667-11.497,4.153c-0.223-6.157,18.989-15.428,35.679-13.499c2.009,0.231,0.297-3.413-1.707-4.748
		c-0.074-7.937,4.026-23.524,10.386-29.668c1.287,1.247,3.771,3.4,5.191,4.522c-3.817,8.231-6.148,17.857-5.934,26.927
		c-2.448,0-4.896,2.522-3.485,3.041c1.41,0.518,7.788,5.044,9.362,9.818c-3.917,2.143-8.916,8.726-9.139,13.398
		C304.771,400.25,302.621,404.405,302.732,406.103z"/>
	<path fill="#749B49" d="M440.809,402.849c-2.818,2.818-2.151,5.859-1.706,7.12c-14.835,2.671-29.078-0.594-32.563-5.193
		c2.062-3.748,24.997-1.26,26.926-1.188c2.794,0.108-0.297-2.522-5.192-3.189c-5.08-0.691-15.608-0.534-16.912-0.445
		c3.857-3.486,11.719-3.783,23.587-1.929c0.885,0.138,0.372-2.745-2.67-3.189c-3.042-0.447-11.053-1.114-17.506,0.297
		c2.523-3.708,21.083-4.873,28.186-4.674c1.204,0.034-1.854-2.893-4.524-3.115c-1.114-1.485-1.707-4.378-1.614-6.116
		c3.338-0.195,6.723-0.399,10.095-0.726c-0.038,3.354,1.519,6.277,4.146,8.374C444.751,392.659,441.254,397.211,440.809,402.849z"/>
	<path fill="#749B49" d="M731.595,308.208c-13.788,18.634-24.602,32.202-45.225,44.866c-20.623,12.663-37.629,17.367-58.252,19.9
		c-23.141,2.841-108.348,0.463-134.793-11.811c0.032-3.645,0.595-12.686,0.965-19.139c0.208-3.633-5.129-6.858-5.266-5.193
		c-1.039,12.685-2.153,35.309-1.953,48.794c-1.682,0.385-2.709,3.485-1.979,3.352c5.711-1.038,10.386-0.447,11.127,4.45
		c0.742,4.896-1.261,7.046-6.008,10.312c-4.748,3.263-13.723,6.378-22.253,7.268c-8.531,0.89-17.877,0.89-19.359-2.263
		c2.744-3.596,19.58-9.382,32.117-10.197c1.184-0.077-1.038-3.412-4.599-3.412c-9.596,0-23.514,7.194-29.745,10.756
		c-1.334-4.823,16.096-14.984,26.704-14.687c1.134,0.031-0.916-2.492-5.49-1.782c-10.013,1.557-20.545,8.976-23.216,12.464
		c0.297-3.859,3.745-8.912,12.313-12.61c6.528-2.819,13.055-4.822,25.294-3.116c1.358,0.19,0.149-3.115-1.557-4.597
		c-1.738-11.826-0.445-31.999-3.337-43.691c-0.4-1.625-5.713,2.724-4.971,7.641c0.817,5.413,1.188,8.604,1.114,13.203
		c-4.023,9.651-16.105,10.629-18.868,11.175c5.146-5.095,5.146-17.48-1.752-22.303c-2.141-1.496-3.926-0.475-3.411-0.147
		c2.824,1.796,6.318,5.39,6.453,10.087c0.176,6.062-0.593,8.976-4.491,12.925c-6.339,1.244-15.404,1.778-22.752,2.164
		c4.518-6.086,6.495-13.792,2.834-20.839c-1.33-2.558-4.27-2.69-3.608-1.969c2.65,2.897,3.909,7.615,3.242,12.192
		c-0.667,4.575-2.001,7.173-5.208,10.734c-5.397,0.222-10.801,0.276-16.168,0.082c2.218-1.913,4.52-5.268,5.28-8.021
		c1.928-6.971,0.509-11.074-1.632-14.611c-0.813-1.342-3.398-2.272-2.967-1.41c1.855,3.708,4.229,6.823,3.042,13.129
		c-1.187,6.304-5.28,9.346-7.052,10.741c-3.675-0.199-7.333-0.483-10.941-0.923c-2.06-0.29-4.108-0.646-6.14-1.06
		c6.631-5.992,8.296-13.159,3.66-21.59c-0.816-1.485-3.652-2.254-3.054-1.469c0.865,1.136,1.562,2.278,2.171,3.56
		c0.477,1.252,0.813,2.481,1.043,3.795c0.132,1.334,0.146,2.624,0.04,3.965c-0.245,1.618-0.653,3.128-1.243,4.66
		c-0.565,1.193-1.196,2.284-1.951,3.369c-0.825,1.019-1.697,1.919-2.697,2.777c-0.182,0.133-0.37,0.241-0.552,0.364
		c-3.672-0.863-10.076-2.553-14.462-5.174c5.574-4.055,11.657-11.103,5.797-20.003c-1.256-1.91-3.742-2.071-3.144-1.286
		c0.876,1.154,1.619,2.276,2.301,3.549c0.427,1.03,0.734,2.008,0.966,3.105c0.085,0.975,0.085,1.872-0.011,2.846
		c-0.208,0.96-0.477,1.833-0.837,2.737c-0.488,0.962-1.019,1.84-1.63,2.73c-1.589,1.993-3.403,3.676-5.396,5.249
		c-6.343-3.056-10.719-6.32-13.513-9.207c0.715-17.807-4.21-25.207-4.476-23.148c-2.14,16.355-0.276,48.441-0.149,54.591
		c5.341-0.296,10.78,1.688,10.953,6.964c0.174,5.276-6.772,11.428-12.807,13.806c-19.954,7.864-30.115,5.638-29.893,3.708
		c7.342-0.634,16.541-3.559,19.582-6.082c3.041-2.522,2.225-5.861,1.26-5.193c-0.964,0.67-5.341,4.081-15.874,6.899
		c-10.533,2.818-17.372,1.215-16.244-0.52c4.822-7.417,24.553-10.235,26.407-10.756c1.854-0.518-0.816-3.485-5.267-2.818
		c-4.451,0.667-12.321,1.728-18.131,5.392c-0.414-4.874,11.38-14.59,33.41-14.517c1.05,0.003-1.038-3.115-3.486-4.375
		c-1.78-9.941-1.04-27.222-0.52-34.788c0.519-7.567,1.631-14.317,2.003-16.244c0.371-1.929-6.824,2.744-7.721,17.776
		c-14.531-7.168-21.355-15.179-23.951-21.707c-2.596-6.528-6.75-22.696-6.528-37.162c2.327-18.572-0.366-34.218-5.672-46.52
		c-2.765-6.41-10.131-9.889-8.744-7.538c3.369,5.716,5.542,15.999,6.281,20.898c0.937,7.689,0.789,15.425-0.177,23.105
		c-1.159,7.838-3.139,15.523-6.139,22.861c-2.514,5.708-5.721,10.967-9.47,15.94c-4.034,5.131-8.405,10.906-14.737,15.609
		c-6.331,4.703-15.196,8.683-21.449,4.845c7.122-5.884,13.553-12.552,18.713-20.303c10.419-15.648,16.796-36.069,16.785-54.883
		c-0.005-10.633-2.502-22.805-12.296-28.323c-7.903-4.452-20.205-3.728-30.155,3.327c-4.788,3.395-10.117,11.063-4.738,8.359
		c6.185-3.112,12.155-6.188,18.306-6.55c6.15-0.362,9.837,1.364,12.697,3.576c2.861,2.213,5.637,7.748,6.419,13.573
		c0.784,5.826,0.392,10.335-0.24,15.463c-1.3,9.086-3.861,17.974-7.358,26.456c-2.678,6.222-5.885,12.181-9.933,17.624
		c-4.947,6.277-10.666,11.78-16.938,16.714c-15.221,11.569-32.821,21.701-50.398,29.24c-8.692,3.581-17.675,6.189-26.984,7.545
		c-8.78,1.097-17.907,1.388-26.701,0.324c-7.649-1.138-15.143-3.576-22.271-6.527c-5.814-2.51-11.461-5.473-16.533-9.279
		c-1.993-1.607-8.193-6.667-8.654-13.583c-0.461-6.914,5.422-11.728,8.283-13.181c1.569,2.39,5.67,4.241,7.449,3.517
		c0.045,1.124,0.388,5.33,0.524,7.631c0.136,2.302,3.793-0.948,4.064-6.503c0.271-5.553,1.27-18.084-6.661-18.085h-0.011
		c-6.07,0.015-8.635,4.812-7.281,9.552c-2.303,0.272-6.092,2.301-7.857,3.93c-3.575-5.312-1.489-12.193,4.2-19.237
		c5.689-7.045,15.172-13.548,28.177-15.716c13.004-2.167,18.153-0.947,24.249,4.472c6.095,5.419,5.825,23.029,5.147,26.55
		c-0.678,3.522,13.141-4.605,5.819-25.875c8.553-1.953,16.773-5.549,24.355-10.418c1.477,0.293,2.906,0.689,4.327,1.229
		c1.409,0.636,2.693,1.372,3.944,2.28c0.914,0.773,1.736,1.582,2.513,2.499c0.718,0.993,1.32,2.005,1.86,3.113
		c0.623,1.575,1.2,4.44,1.434,7.013c0.169,1.855,2.19-1.802,1.937-3.658c-1.085-7.959-5.249-12.122-13.012-14.5
		c3.429-2.407,6.708-5.07,9.813-7.951c3.741-0.705,7.357,0.449,8.458,0.865c1.007,0.47,4.875,3.44,5.765,4.504
		c1.085,1.478,1.964,3.017,2.721,4.687c0.906,2.298,2.417,9.56,2.535,12.033c0.181,3.799,1.787-1.322,1.448-5.969
		c-0.865-11.841-8.516-18.473-18.141-18.817c2.42-2.436,4.727-4.995,6.887-7.678c1.461-0.545,4.74-1.365,7.996-1.365
		c3.257,0,7.245,2.273,10.226,5.931c2.981,3.657,3.851,6.921,4.971,12.521c0.724,3.618,2.288-0.204,1.447-4.703
		c-1.94-10.368-10.312-18.814-21.893-15.956c13.728-18.735,20.084-42.839,15.999-65.129c3.723,0.581,7.16,0.039,11.682-1.952
		c4.222-1.857,6.332-6.512,2.533-5.97c-6.687,0.956-17.466,0.717-27.679-3.256c13.568-3.436,19.593-19.956,17.729-32.924
		c9.045,7.236,11.397,23.698,11.035,26.592c-0.362,2.896,5.065-3.436,4.044-15.783c5.545-3.032,13.718-3.972,19.655-2.85
		c-4.703,9.045,0.181,18.091,4.704,20.985c4.522,2.894,9.548,2.935,8.14,1.447c-9.769-10.312-8.502-22.251,3.257-28.945
		c-2.352,16.1,13.302,26.08,26.593,28.764c-5.881,3.109-17.059,6.604-19.538,7.054c-3.98,0.725,2.533,7.599,21.979,0.499
		c9.947,28.595,24.675,56.501,42.102,81.185c8.768,12.421,18.679,24.372,32.439,31.417c14.632,7.485,43.865,7.384,65.574,3.766
		c21.709-3.618,43.417-7.959,60.423-4.703c17.005,3.256,38.794,15.106,58.976,18.091c22.188,3.283,44.14,5.065,69.829,1.085
		c25.691-3.98,41.198-10.04,53.911-16.644c27.859-14.473,54.634-35.458,67.659-54.996
		C756.562,259.001,744.982,290.118,731.595,308.208z"/>
	<path fill="#5C812A" d="M313.707,353.834c0.923-3.109,2.052-6.137,3.377-8.992c-1.42-1.122-3.904-3.275-5.191-4.522
		c-2.208,2.133-4.135,5.413-5.718,9.107C308.813,350.716,311.335,352.176,313.707,353.834z"/>
	<path fill="#5C812A" d="M312.391,359.199c0.165-0.798,0.32-1.596,0.514-2.389c-2.438-1.786-5.042-3.357-7.796-4.714
		c-0.341,0.93-0.652,1.874-0.948,2.822C307.141,355.928,309.839,357.421,312.391,359.199z"/>
	<path fill="#5C812A" d="M279.929,384.003c-2.704-1.648-6.767-0.885-10.919,0.892c-0.978,1.155-1.513,2.293-1.475,3.339
		c3.198-1.486,8.234-3.486,11.497-4.153C279.338,384.018,279.637,383.999,279.929,384.003z"/>
	<path fill="#5C812A" d="M262.487,402.952c2.352,0.728,4.881,1.046,7.199,0.933c3.596-6.437,8.837-9.152,16.376-11.619
		C276.846,391.665,268.458,395.918,262.487,402.952z"/>
	<path fill="#5C812A" d="M268.291,392.396c-6.52,3.252-11.458,7.007-9.732,8.754C261.294,397.732,264.666,394.772,268.291,392.396z"
		/>
	<path fill="#5C812A" d="M308.575,390.275c-1.285,2.027-2.364,5.315-4.029,6.979c-2.191,2.192-5.244,3.389-7.247,5.914
		c-1.083,1.364-1.925,2.732-2.58,4.144c2.967-0.165,5.742-0.547,7.994-1.182c0.006-0.009,0.012-0.017,0.019-0.025
		c-0.111-1.699,2.04-5.853,5.155-8.078c0.223-4.672,5.222-11.256,9.139-13.398c-0.233-0.703-0.578-1.401-0.989-2.083
		C313.005,384.491,310.535,387.181,308.575,390.275z"/>
	<path fill="#5C812A" d="M447.747,384.6c-0.544-1.264-0.847-2.636-0.83-4.097c-3.373,0.327-6.757,0.531-10.095,0.726
		c-0.067,1.227,0.216,3.018,0.774,4.493C440.975,385.274,444.355,384.874,447.747,384.6z"/>
	<path fill="#5C812A" d="M417.292,394.693c5.888-0.803,12.332-0.246,14.987,0.144c0.69,0.101,1.237,0.334,1.678,0.623
		C429.999,391.341,422.938,392.1,417.292,394.693z"/>
	<path fill="#5C812A" d="M417.832,398.418c-1.396,0.405-2.746,0.928-4.085,1.473c3.726-0.051,10.682-0.016,14.527,0.508
		c1.45,0.199,2.719,0.572,3.745,0.993C429.358,397.259,421.85,397.259,417.832,398.418z"/>
	<path fill="#5C812A" d="M433.112,410.731c1.97-0.155,3.973-0.399,5.991-0.763c-0.445-1.262-1.112-4.302,1.706-7.12
		c0.445-5.638,3.941-10.189,10.254-13.971c-0.194-0.155-0.372-0.323-0.553-0.488C440.867,389.921,434.332,400.597,433.112,410.731z"
		/>
	<path fill="#5C812A" d="M231.126,191.972c-0.773,0.798-1.793,1.555-2.995,2.083c-4.522,1.991-7.959,2.533-11.682,1.952
		c0.56,3.057,0.906,6.152,1.081,9.26C223.68,202.843,228.77,198.392,231.126,191.972z"/>
	<path fill="#5C812A" d="M234.052,176.236c4.229-2.855,5.522-9.291,5.816-15.227c-1.449,0.469-2.834,1.026-4.075,1.705
		C236.299,168.828,235.223,173.462,234.052,176.236z"/>
	<path fill="#5C812A" d="M248.247,159.476c-0.636,11.596,3.813,23.262,16.017,23.27c-1.284-0.389-2.721-1.006-4.111-1.896
		c-4.523-2.894-9.407-11.94-4.704-20.985C253.269,159.451,250.788,159.329,248.247,159.476z"/>
	<path fill="#5C812A" d="M149.26,319.447c8.368-3.395,10.698-15.626,8.687-26c-2.334,0.795-4.698,1.485-7.091,2.029
		C155.081,307.75,152.266,315.64,149.26,319.447z"/>
	<path fill="#5C812A" d="M186.574,282.573c-1.604-0.971-3.336-1.552-5.127-1.93c-1.064,0.819-2.137,1.622-3.232,2.391
		c6.577,2.015,10.56,5.319,12.287,11.12C191.104,289.767,190.141,284.734,186.574,282.573z"/>
	<path fill="#5C812A" d="M208.427,287.549c-0.295-8.964-6.143-17.615-14.811-18.126c-0.919,1.002-1.844,2-2.801,2.963
		C199.397,272.693,206.394,278.011,208.427,287.549z"/>
	<path fill="#5C812A" d="M301.58,245.459c3.859,11.351,5.555,25.103,3.562,41.007c-0.18,11.688,2.497,24.481,4.901,32.408
		C316.665,294.075,316.438,265.296,301.58,245.459z"/>
	<path fill="#5C812A" d="M330.443,392.054c-5.267-2.293-12.97,0.49-18.252,3.882c-0.187,0.55-0.297,1.077-0.256,1.549
		c5.81-3.664,13.679-4.725,18.131-5.392C330.194,392.074,330.317,392.068,330.443,392.054z"/>
	<path fill="#5C812A" d="M335.315,411.369c1.658-1.704,2.904-3.797,3.615-6.279c-3.655,2.366-11.973,4.89-18.73,5.473
		C320.041,411.936,325.169,413.439,335.315,411.369z"/>
	<path fill="#5C812A" d="M331.401,343.099c1.335,0.753,2.727,1.5,4.22,2.237c0.469-7.861,2.658-12.867,4.589-15.599
		C335.194,331.879,332.854,337.445,331.401,343.099z"/>
	<path fill="#5C812A" d="M413.458,357.264c-5.952,0.071-12.045,0.105-18.107,0.432c0.171,4.818-2.026,9.133-6.267,12.965
		c2.032,0.414,4.08,0.769,6.14,1.06c3.608,0.44,7.266,0.724,10.941,0.923c1.772-1.395,5.865-4.437,7.052-10.741
		C413.551,360.132,413.596,358.616,413.458,357.264z"/>
	<path fill="#5C812A" d="M430.865,357.16c-3.306-0.124-6.596-0.121-9.827-0.03c-1.795,0.048-3.616,0.079-5.448,0.105
		c0.199,2.12,0.014,4.565-0.814,7.56c-0.76,2.753-3.063,6.109-5.28,8.021c5.366,0.194,10.771,0.14,16.168-0.082
		c3.206-3.561,4.54-6.159,5.208-10.734C431.108,360.374,431.091,358.732,430.865,357.16z"/>
	<path fill="#5C812A" d="M391.7,363.583c0.59-1.532,0.998-3.042,1.243-4.66c0.028-0.363,0.027-0.718,0.038-1.076
		c-5.309,0.359-10.573,0.976-15.681,2.071c-1.508,1.969-3.409,3.653-5.262,5.002c4.385,2.621,10.789,4.311,14.462,5.174
		c0.182-0.124,0.37-0.231,0.552-0.364c0.999-0.858,1.872-1.758,2.697-2.777C390.504,365.867,391.134,364.776,391.7,363.583z"/>
	<path fill="#5C812A" d="M373.462,360.841c-1.933,0.52-3.831,1.139-5.703,1.832c0.743,0.395,1.518,0.787,2.325,1.175
		C371.28,362.904,372.404,361.908,373.462,360.841z"/>
	<path fill="#5C812A" d="M455.579,361.278c-7.212-2.426-14.917-3.592-22.593-4.013c0.732,5.388-1.218,10.819-4.584,15.351
		c7.348-0.386,16.413-0.92,22.752-2.164C454.148,367.419,455.289,364.983,455.579,361.278z"/>
	<path fill="#5C812A" d="M494.228,343.105c-0.369,6.344-0.872,14.61-0.903,18.057c1.892,0.877,4.094,1.704,6.545,2.483
		C500.219,356.233,498.728,348.46,494.228,343.105z"/>
	<path fill="#5C812A" d="M471.222,389.578c-5.174-3.057-13.41,0.986-18.036,3.614c-3.865,2.199-7.025,4.928-8.816,8.679
		c0,0.006-0.001,0.01-0.001,0.013c2.671-3.487,13.203-10.906,23.216-12.464C469.089,389.188,470.288,389.32,471.222,389.578z"/>
	<path fill="#5C812A" d="M477.335,395.271c-4.998-2.662-12.546-1.017-17.178,1.153c-4.582,2.148-9.152,4.77-12.327,8.647
		c6.748-3.738,19.375-9.937,28.286-9.937C476.544,395.134,476.949,395.186,477.335,395.271z"/>
	<path fill="#5C812A" d="M156.103,344.947c-11.711-1.672-25.145-1.787-36.631,1.299c-5.535,1.488-10.444,3.984-14.995,7.443
		c-1.181,0.898-2.502,1.907-3.781,3.023c2.993,1.691,6.09,3.206,9.247,4.569c7.128,2.951,14.622,5.389,22.271,6.527
		c8.794,1.064,17.921,0.773,26.701-0.324c9.309-1.356,18.293-3.964,26.984-7.545c1.854-0.796,3.706-1.634,5.557-2.487
		C180.594,351.075,168.534,346.724,156.103,344.947z"/>
	<path fill="#5C812A" d="M610.639,373.962c7.319-0.149,13.382-0.485,17.479-0.989c20.623-2.532,37.629-7.237,58.252-19.9
		c3.567-2.191,6.83-4.414,9.875-6.682C665.945,345.456,635.488,356.004,610.639,373.962z"/>
	<path fill="#5C812A" d="M658.984,345.141c-19.515,5.922-39.044,14.924-54.134,28.9c1.116-0.008,2.214-0.019,3.284-0.034
		c25.879-19.233,58.077-30.475,89.955-29.018c2.448-1.894,4.748-3.825,6.94-5.803C689.557,338.443,673.932,340.607,658.984,345.141z
		"/>
	<path fill="#5C812A" d="M531.726,337.856c-0.144,1.458-1.074,2.949-2.078,4.163c3.083-0.221,6.306,0.87,7.758,3.695
		C541.29,341.246,536.533,337.039,531.726,337.856z"/>
	<path fill="#5C812A" d="M548.073,342.656c0.304,2.082-0.538,3.911-1.903,5.419c2.468,0.091,4.505,1.352,5.703,3.075
		c1.175-1.59,2.081-3.715,1.307-5.631C552.328,343.401,550.16,342.767,548.073,342.656z"/>
	<path fill="#5C812A" d="M535.585,366.949c0.091-0.059,0.198-0.102,0.325-0.116c4.059-0.438,7.298-6.635,3.563-9.562
		c-1.931-1.516-5.592-1.818-8.141-1.337C534.008,359.424,534.988,363.868,535.585,366.949z"/>
	<path fill="#5C812A" d="M333.578,293.361c0.12,2.238-0.872,4.271-2.307,5.592c0.013,0.023,0.026,0.047,0.04,0.071
		c0.122,0.178,0.239,0.358,0.346,0.543c3.188,4.463,8.025-2.342,6.143-6.68C336.559,293.885,335.066,294.215,333.578,293.361z"/>
	<path fill="#5C812A" d="M340.741,284.759c0.388,2.417-0.428,5.148-1.835,6.982c3.128,5.291,11.435-0.582,7.235-6.766
		C344.304,285.47,342.352,285.47,340.741,284.759z"/>
	<path fill="#5C812A" d="M347.595,284.469c1.001,5.218,6.243,5.411,8.756,3.399c-1.833-1.917-3.59-3.911-5.289-5.962
		C350.216,282.986,348.981,283.868,347.595,284.469z"/>
	<path fill="#5C812A" d="M323.299,307.078c2.226,5.639,10.002-0.827,7.399-6.347c-0.207-0.265-0.405-0.576-0.598-0.909
		C328.788,303.443,326.226,306.26,323.299,307.078z"/>
	<path fill="#5C812A" d="M339.702,294.422c0.215,2.477-0.913,5.027-2.55,6.585c4.096,5.33,10.704-2.11,8.598-7.021
		C343.984,295.237,341.722,295.618,339.702,294.422z"/>
	<path fill="#5C812A" d="M346.881,292.99c2.713,5.116,8.975,0.952,9.666-3.606c-2.533,1.579-5.593,1.451-7.806-0.264
		C348.543,290.589,347.851,291.938,346.881,292.99z"/>
	<path fill="#5C812A" d="M364.387,308.548c1.875,5.455,9.353,2.512,7.899-2.702c-1.974,0.121-4.044-0.607-5.515-2.206
		c-0.397,1.806-1.294,3.52-2.493,4.721C364.318,308.417,364.361,308.471,364.387,308.548z"/>
	<path fill="#5C812A" d="M369.059,317.056c1.927-1.049,2.596-2.845,1.571-4.811c-1.944,0.882-4.333,0.771-6.026-0.794
		c-0.161,1.596-0.703,3.286-1.485,4.623C364.655,317.61,367.088,318.129,369.059,317.056z"/>
	<path fill="#5C812A" d="M373.368,310.232c3.715,0.128,7.559-1.793,7.984-5.506c-1.507-0.472-2.962-0.978-4.29-1.552
		c-0.811,1.24-2.009,2.039-3.336,2.422C373.949,306.399,374.009,308.31,373.368,310.232z"/>
	<path fill="#5C812A" d="M332.309,290.616c4.293,4.757,9.033-2.802,6.251-7.596C337.245,283.91,333.993,289.111,332.309,290.616z"/>
	<path fill="#5C812A" d="M271.549,153.352c-0.094,0.054-0.173,0.113-0.265,0.167c-1.481,7.889,2.16,16.165,7.544,21.958
		c3.747,4.031,8.714,8.036,14.209,8.957c1.884-0.761,3.656-1.552,5.105-2.317C284.852,179.432,269.197,169.453,271.549,153.352z"/>
	<path fill="#5C812A" d="M598.257,347.411c2.62-4.068-0.188-8.344-4.646-7.867c0.675,2.097-0.395,3.912-1.509,5.735
		C594.405,344.769,596.745,345.421,598.257,347.411z"/>
	<path fill="#5C812A" d="M606.413,341.759c-1.695-2.342-4.664-3.299-6.585-0.662c0.99,1.619,1.232,3.705,0.342,5.799
		c1.982-0.217,4.021,0.636,5.372,2.148C607.725,347.167,608.204,344.235,606.413,341.759z"/>
	<path fill="#5C812A" d="M608.909,345.515c-0.151,1.771-1.022,3.462-2.539,4.736c0.315,0.589,0.562,1.223,0.667,1.918
		c0.164,1.083,0.116,2.063-0.092,2.967C612.153,356.145,615.085,346.22,608.909,345.515z"/>
	<path fill="#5C812A" d="M607.053,340.293c0.099,0.112,0.207,0.2,0.301,0.317c0.858,1.08,1.329,2.255,1.501,3.435
		c1.759,0.159,2.994,0.87,3.787,1.874c1.178-1.65,1.805-3.947-0.04-5.409C610.953,339.201,608.826,339.42,607.053,340.293z"/>
	<path fill="#5C812A" d="M591.398,347.004c0.312,0.444,0.568,0.949,0.74,1.552c0.818,2.894-0.191,5.463-2.085,7.42
		c1.073-0.05,4.933-0.394,7.174-4.047C599.715,347.866,594.564,345.789,591.398,347.004z"/>
	<path fill="#5C812A" d="M599.091,348.658c-0.03,0.013-0.059,0.016-0.089,0.025c1.006,2.57-0.982,4.744-2.989,6.473
		c2.73,0.059,5.391,1.567,5.918,4.437c1.598-1.14,3.357-2.659,3.693-4.606C606.168,351.856,603.543,346.475,599.091,348.658z"/>
	<path fill="#5C812A" d="M216.666,178.356c5.091-7.55,6.892-17.125,4.682-25.886c-0.213-0.187-0.413-0.389-0.633-0.565
		c1.864,12.968-4.161,29.488-17.729,32.924c1.492,0.581,2.997,1.073,4.498,1.501C211.096,184.414,214.309,181.853,216.666,178.356z"
		/>
	<path fill="#5C812A" d="M339.684,282.116c2.245,3.205,8.424,1.687,10.451-1.345c-1.928-2.381-3.764-4.838-5.563-7.315
		C343.94,276.507,341.95,280.02,339.684,282.116z"/>
	<path fill="#5C812A" d="M357.895,315.602c0.021,0.024,0.042,0.042,0.067,0.066c3.364,3.403,5.687-3.259,5.112-6.355
		c-1.331,0.818-2.89,1.032-4.501,0.242C358.917,311.614,358.63,313.827,357.895,315.602z"/>
	<path fill="#5C812A" d="M365.527,302.108c-1.51,0.482-3.024,0.424-4.173-0.48c-0.245,2.386-1.389,4.694-2.94,6.126
		C362.168,310.619,365.272,305.746,365.527,302.108z"/>
	<path fill="#5C812A" d="M375.707,302.552c-0.194-0.095-0.395-0.184-0.584-0.281c-1.84-0.943-3.6-1.984-5.306-3.092
		c-0.787,0.92-1.773,1.716-2.823,2.29C368.914,305,373.612,305.438,375.707,302.552z"/>
	<path fill="#5C812A" d="M350.906,315.688c4.736,5.245,7.515-2.311,6.029-6.92c-1.255,0.604-2.644,0.646-3.99-0.192
		C353.225,311.145,352.403,313.924,350.906,315.688z"/>
	<path fill="#5C812A" d="M368.64,298.391c-1.623-1.108-3.2-2.276-4.716-3.513c-0.447,1.609-1.461,2.98-2.701,3.929
		C362.476,302.622,366.484,300.856,368.64,298.391z"/>
	<path fill="#5C812A" d="M359.866,299.635c-1.402,0.647-2.922,0.767-4.191,0.136c-0.18,2.371-1.7,4.48-3.715,5.721
		C355.826,311.496,360.52,304.439,359.866,299.635z"/>
	<path fill="#5C812A" d="M345.863,306.24c1,2.604,1.241,5.608-0.058,7.91c-0.206,0.365-0.44,0.706-0.699,1.021
		c5.073,3.894,7.889-5.182,5.549-9.023C349.121,306.744,347.428,306.849,345.863,306.24z"/>
	<path fill="#5C812A" d="M347.65,296.053c0.013,2.695-1.533,5.36-3.637,6.881c0.068,0.087,0.139,0.169,0.206,0.259
		c3.751,4.811,12.777-1.985,8.908-7.155C351.309,296.94,349.298,297.1,347.65,296.053z"/>
	<path fill="#5C812A" d="M355.501,297.77c2.204,2.64,6.608-0.289,7.165-3.958c-1.608-1.373-3.166-2.808-4.668-4.302
		c-0.316,2.321-1.802,4.456-3.683,5.803C354.355,295.353,355.306,296.994,355.501,297.77z"/>
	<path fill="#5C812A" d="M336.725,313.676c1.334,1.006,2.321,2.348,4.27,2.087c1.935-0.258,3.502-1.393,3.923-3.357
		c0.587-2.734-0.025-5.731-1.627-8.033c-0.186-0.215-0.362-0.459-0.537-0.707c-1.462,0.666-3.072,0.784-4.582,0.034
		c1.016,3.05,1.527,6.727-0.467,9.062C337.39,313.133,337.06,313.423,336.725,313.676z"/>
	<path fill="#5C812A" d="M329.732,309.477c-0.017,0.015-0.035,0.02-0.052,0.034c1.141,2.609,5.532,5.857,7.265,1.755
		c0.453-1.071,0.648-2.215,0.553-3.379c-0.169-2.087-0.719-4.058-1.575-5.959c-1.043,0.586-2.188,0.768-3.282,0.343
		C333.093,304.918,332.186,307.659,329.732,309.477z"/>
	<path fill="#5C812A" d="M527.631,342.114c1.237-1.245,2.799-3.027,2.588-4.807c-0.369-3.115-4.327-1.937-6.227-1.324
		C525.939,337.648,526.963,339.569,527.631,342.114z"/>
	<path fill="#5C812A" d="M528.581,343.621c1.968,2.737,2.866,6.838,2.52,11.298c0.054-0.079,0.12-0.153,0.209-0.221
		c1.641-1.241,5.111-2.854,5.421-5.13C537.399,344.673,532.379,342.908,528.581,343.621z"/>
	<path fill="#5C812A" d="M554.776,348.068c-0.26,1.622-1.094,3.151-2.165,4.465c0.36,0.929,0.492,1.927,0.356,2.916
		c1.939,0.404,2.943,1.653,3.239,3.173C560.593,356.417,560.305,348.191,554.776,348.068z"/>
	<path fill="#5C812A" d="M552.573,356.831c-0.506,1.21-1.457,2.354-2.998,3.266c1.24,1.287,1.685,2.983,0.42,5.082
		c2.248-0.036,4.09-1.716,4.696-3.888C555.264,359.237,554.748,357.228,552.573,356.831z"/>
	<path fill="#5C812A" d="M544.336,349.668c-0.054,0.013-0.11,0.009-0.165,0.007c1.164,2.335,0.989,5.267-0.98,7.615
		c1.748,0.238,3.765,0.874,5.278,1.888c0.058-0.093,0.134-0.178,0.251-0.246C554.844,355.43,550.358,348.237,544.336,349.668z"/>
	<path fill="#5C812A" d="M543.632,348.46c1.724-1.353,4.432-4.274,2.64-6.652c-1.87-2.477-4.254-2.257-6.78-2.071
		c1.03,1.731,1.116,3.922-0.36,6.111c1.887,0.41,3.374,1.432,4.368,2.761C543.536,348.557,543.574,348.505,543.632,348.46z"/>
	<path fill="#5C812A" d="M537.945,347.126c0.003,0.009,0.007,0.016,0.009,0.028c0.881,3.504-1.297,5.45-3.775,7.247
		c2.725-0.044,5.633,0.542,7.146,2.734C545.255,353.556,543.436,347.558,537.945,347.126z"/>
	<path fill="#5C812A" d="M542.062,358.639c1.075,3.473-0.519,7.205-3.561,8.836c2.756,2.374,8.884,0.118,10.23-2.996
		C550.569,360.227,545.325,358.724,542.062,358.639z"/>
	<path fill="#5C812A" d="M259.875,212.69c-6.876,0.698-13.956,3.708-17.451,10.235c10.065-5.756,22.494-7.502,30.269-0.359
		C270.789,216.718,266.952,211.972,259.875,212.69z"/>
	<path fill="#5C812A" d="M100.832,333.755c-0.147-2.048-0.315-4.234-0.346-4.998c-1.779,0.723-5.88-1.127-7.449-3.517
		c-0.984,0.499-2.325,1.407-3.643,2.65C91.897,331.775,96.341,334.118,100.832,333.755z"/>
	<path fill="#5C812A" d="M92.743,313.905c-3.231,0.914-4.842,4.814-4.863,8.481c1.169-0.533,2.323-0.927,3.242-1.034
		C90.323,318.557,90.899,315.747,92.743,313.905z"/>
	<path fill="#5C812A" d="M470.236,363.272c1.202-1.252,2.237-2.753,2.989-4.558c0.074-4.6-0.297-7.79-1.114-13.203
		c-0.192-1.271,0.026-2.502,0.454-3.604C469.162,347.858,468.668,356.302,470.236,363.272z"/>
	<path fill="#5C812A" d="M466.444,366.206c-2.739-1.637-5.621-2.994-8.597-4.126c-0.417,3.095-1.604,5.943-3.49,7.81
		C456.113,369.541,461.623,369.012,466.444,366.206z"/>
	<path fill="#5C812A" d="M359.238,357.084c0.671-5.986-0.842-12.494-3.668-17.967c0.757,3.786,1.266,8.939,1.001,15.523
		C357.335,355.43,358.23,356.25,359.238,357.084z"/>
	<path fill="#5C812A" d="M276.827,241.555c2.797,5.699,3.702,12.581,3.705,18.925c0.011,18.814-6.366,39.235-16.785,54.883
		c-4.842,7.273-10.811,13.584-17.412,19.195c16.424-7.959,29.074-22.532,34.595-40.492
		C284.83,281.371,288.81,252.782,276.827,241.555z"/>
	<path fill="#5C812A" d="M204.557,255.006c-1.285,2.098-2.653,4.145-4.107,6.13c10.46-2.581,18.285,4.067,21.134,13.016
		C221.918,263.816,214.34,256.461,204.557,255.006z"/>
	<path fill="#5C812A" d="M126.809,303.841c-3.159,0.69-5.471,2.569-7.066,5.159c-0.239,0.569-0.445,1.147-0.609,1.732
		c0.262,0.233,0.447,0.57,0.475,1.021c0.245,4.001,2.942,9.265,7.842,8.001c4.401-1.135,7.124-6.384,6.726-10.768
		C133.837,305.227,130.466,303.046,126.809,303.841z"/>
	<path fill="#5C812A" d="M281.264,192.444c4.129,4.327,11.221,5.978,17.007,4.636c1.589-0.369,3.052-0.897,4.43-1.54
		c-0.726-1.954-1.435-3.91-2.117-5.871C291.235,193.083,284.905,193.255,281.264,192.444z"/>
	<path fill="#3F5D0E" d="M100.693,325.166c-3.476,0.096-5.824-4.854-5.713-6.535c0.112-1.68,2.154-3.44,3.846-2.239
		C101.14,318.034,100.663,324.036,100.693,325.166z"/>
	<polygon points="393.064,285.321 393.062,285.321 393.056,285.319 	"/>
	<path d="M326.215,218.048c0.004-0.019,0.007-0.042,0.009-0.062c-0.002,0.015-0.004,0.028-0.007,0.043
		C326.217,218.035,326.216,218.043,326.215,218.048z"/>
	<polygon points="393.208,285.34 393.209,285.34 393.205,285.338 	"/>
	<path d="M128.96,302.814c-3.43-1.161-7.61-0.206-9.414,2.958c-3.092,5.421,0.895,14.54,1.921,10.027
		c0.677-2.98,0.817-5.391,1.968-7.109c1.658-1.75,4.864-1.583,5.999,0.601c1.404,4.343-2.414,8.405-6.206,10.977
		c-4.144,2.811,3.457,1.723,7.585-1.489C135.69,314.985,136.386,305.321,128.96,302.814z"/>
	<path fill="#90B168" d="M93.438,303.265c3.572-4.834,18.913-10.508,26.478-9.458C127.482,294.858,87.741,310.973,93.438,303.265z"
		/>
	<path fill="#90B168" d="M126.64,300.532c5.464-0.841,12.063,6.261,9.457,14.08c-1.261,3.782,8.407-3.993,2.312-12.819
		C133.549,294.753,123.092,301.079,126.64,300.532z"/>
	<path fill="#90B168" d="M210.91,271.952c-2.984-3.377-6.475-5.884-4.202-5.884c4.628,0,10.298,5.252,10.507,11.137
		C217.327,280.323,214.272,275.756,210.91,271.952z"/>
	<path fill="#90B168" d="M199.353,284.982c-2.65-4.009-5.78-7.222-3.153-6.516c3.544,0.956,8.195,5.674,8.406,12.399
		C204.715,294.356,202.212,289.303,199.353,284.982z"/>
	<path fill="#90B168" d="M244.744,229.503c7.379-3.096,17.441-5.045,24.797,0.209c7.356,5.255-0.986-10.209-11.137-9.666
		C246.635,220.676,238.229,232.234,244.744,229.503z"/>
	<path fill="#90B168" d="M269.541,160.152c0,5.482,4.833,13.45,7.355,16.392c2.522,2.943-6.936,2.732-10.087-6.094
		C264.954,165.255,269.541,156.37,269.541,160.152z"/>
	<path fill="#90B168" d="M311.016,220.798c-1.366-2.909-2.496-5.435-3.228-7.267c-3.378-8.446-4.284,0.39-2.151,11.089
		C307.667,224.134,309.494,222.687,311.016,220.798z"/>
	<path fill="#90B168" d="M309.408,236.749c2.696-0.198,5.248-1.755,7.46-3.985c-1.847-3.662-3.644-7.313-5.193-10.571
		c-1.651,1.884-3.599,3.323-5.736,3.86c0.78,3.513,1.877,7.148,3.321,10.383C309.306,236.542,309.36,236.646,309.408,236.749z"/>
	<path fill="#90B168" d="M321.758,242.253c-1.368-2.594-2.806-5.376-4.23-8.181c-2.237,2.116-4.786,3.618-7.48,3.99
		c1.454,2.815,3.342,5.481,5.354,7.855C317.793,245.29,319.943,243.997,321.758,242.253z"/>
	<path fill="#90B168" d="M322.448,243.559c-1.754,1.6-3.775,2.842-5.997,3.551c6.973,7.72,14.813,11.751,11.511,6.349
		C326.622,251.267,324.652,247.709,322.448,243.559z"/>
	<path fill="#90B168" d="M182.96,293.598c-1.994-3.061-4.83-5.544-3.572-5.255c3.996,0.923,6.935,4.203,7.355,9.876
		C186.97,301.284,185.301,297.19,182.96,293.598z"/>
	<path fill="#90B168" d="M342.618,356.408c-0.091,3.72,0.03,7.158,0.264,10.321c0.402,5.434,3.886-3.011,4.365-9.275
		C345.719,357.363,344.168,356.994,342.618,356.408z"/>
	<path fill="#90B168" d="M347.303,356.022c0.001-6.429-2.986-17.39-4.003-9.049c-0.338,2.776-0.539,5.408-0.64,7.912
		C344.219,355.524,345.774,355.929,347.303,356.022z"/>
	<path fill="#90B168" d="M284.04,378.705c7.986-3.151,15.34-2.943,19.964,0C308.627,381.648,278.341,380.956,284.04,378.705z"/>
	<path fill="#90B168" d="M337.627,386.272c4.293-1.184,10.088,0.418,13.029,4.202C353.598,394.257,331.533,387.953,337.627,386.272z
		"/>
	<path fill="#90B168" d="M480.761,360.681c0.178,2.601,0.414,5.041,0.607,6.887c0.417,3.962,3.932-3.244,3.987-6.846
		C483.838,360.911,482.297,360.841,480.761,360.681z"/>
	<path fill="#90B168" d="M485.223,359.324c-0.767-4.336-4.508-12.63-4.695-7.725c-0.091,2.385-0.009,5.072,0.144,7.672
		C482.205,359.459,483.761,359.562,485.223,359.324z"/>
	<path fill="#90B168" d="M463.92,311.437c-0.182-2.157-1.065-4.262-2.369-6.109c-4.028,0.671-7.977,1.56-11.704,2.769
		c-9.043,2.935-0.267,4.97,13.797,6.132C463.89,313.321,464,312.389,463.92,311.437z"/>
	<path fill="#90B168" d="M478.192,315.068c0.168-0.752,0.277-1.512,0.308-2.288c0.13-3.305-0.857-6.226-2.424-8.877
		c-4.273,0.153-8.605,0.519-12.859,1.154c1.348,1.993,2.215,4.204,2.15,6.379c-0.029,1.014-0.191,1.974-0.442,2.894
		C469.04,314.649,473.563,314.893,478.192,315.068z"/>
	<path fill="#90B168" d="M479.52,315.117c4.29,0.147,8.647,0.234,12.844,0.262c0.635-3.79,0.364-7.741-0.931-11.125
		c-0.62-0.054-1.241-0.108-1.868-0.149c-3.772-0.252-7.737-0.34-11.766-0.249c1.562,2.753,2.519,5.755,2.149,8.925
		C479.854,313.582,479.707,314.358,479.52,315.117z"/>
	<path fill="#90B168" d="M502.453,305.979c-3.004-0.679-6.178-1.217-9.467-1.57c1.167,3.408,1.418,7.259,0.829,10.977
		c3.22,0.009,6.322-0.016,9.206-0.078C503.489,312.143,503.369,308.954,502.453,305.979z"/>
	<path fill="#90B168" d="M520.246,312.93c-3.997-2.623-9.637-4.94-16.194-6.57c0.746,2.87,0.825,5.903,0.419,8.916
		C515.029,314.998,522.202,314.216,520.246,312.93z"/>
	<path fill="#90B168" d="M698.337,314.488c0.011-4.358-1.993-8.893-5.28-11.411c-3.661,2.038-7.257,3.865-10.765,5.489
		c3.021,2.241,4.237,6.206,3.812,10.212C690.332,317.648,694.48,316.228,698.337,314.488z"/>
	<path fill="#90B168" d="M706.458,294.882c-2.816,1.841-5.716,3.673-8.637,5.44c-1.154,0.697-2.3,1.36-3.443,2.011
		c3.193,2.713,5.208,7.111,5.409,11.47c0.46-0.223,0.944-0.429,1.396-0.662c3.766-1.948,7.16-4.25,10.2-6.73
		C711.345,301.976,709.511,297.704,706.458,294.882z"/>
	<path fill="#90B168" d="M721.879,290.801c0.535,1.069,0.941,2.117,1.232,3.155c7.647-10.513,9.598-19.572,6.023-16.121
		c-2.483,2.391-6.152,5.381-10.531,8.621C719.856,287.521,720.943,288.939,721.879,290.801z"/>
	<path fill="#90B168" d="M719.993,290.442c-0.861-1.301-1.74-2.276-2.676-3.038c-2.967,2.16-6.219,4.415-9.624,6.667
		c2.908,2.842,4.748,6.895,5.076,11.171c3.648-3.155,6.73-6.548,9.269-9.852C721.728,293.735,721.077,292.079,719.993,290.442z"/>
	<path fill="#90B168" d="M684.632,319.15c0.6-3.976-0.603-7.967-3.925-9.86c-3.728,1.68-7.354,3.15-10.84,4.43
		c1.151,1.35,1.88,3.103,1.937,5.36c0.024,0.921-0.089,1.771-0.288,2.577C675.747,321.094,680.207,320.264,684.632,319.15z"/>
	<path fill="#90B168" d="M668.253,314.306c-3.497,1.244-6.832,2.297-9.998,3.22c1.063,1.6,1.657,3.335,1.77,5.124
		c3.034-0.113,6.44-0.37,10.047-0.808c0.03-0.116,0.067-0.229,0.091-0.348C670.803,318.308,669.94,315.948,668.253,314.306z"/>
	<path fill="#90B168" d="M658.583,322.693c-0.116-1.668-0.718-3.28-1.789-4.758c-2.249,0.633-4.43,1.218-6.467,1.72
		C643.14,321.426,648.407,322.921,658.583,322.693z"/>
</g>
</svg>
