<?xml version="1.0" encoding="UTF-8" ?>
<!DOCTYPE svg PUBLIC "-//W3C//DTD SVG 1.1//EN" "http://www.w3.org/Graphics/SVG/1.1/DTD/svg11.dtd">
<svg width="382pt" height="294pt" viewBox="0 0 382 294" version="1.1" xmlns="http://www.w3.org/2000/svg">
<g id="#d9e8ffff">
<path fill="#d9e8ff" opacity="1.00" d=" M 0.00 0.00 L 382.00 0.00 L 382.00 252.34 C 377.83 247.99 372.28 244.32 365.97 244.98 C 359.93 244.73 355.39 249.10 350.37 251.70 C 346.44 248.42 342.42 244.34 336.95 244.24 C 330.27 243.60 324.74 247.89 319.65 251.57 C 315.42 249.10 311.85 245.12 306.81 244.35 C 302.29 243.67 297.35 243.99 293.40 246.48 C 290.89 248.03 288.51 249.76 286.04 251.37 C 280.73 248.21 275.42 244.28 268.96 244.24 C 261.29 243.42 254.21 246.85 247.79 250.60 C 242.34 247.17 236.77 243.02 229.99 243.25 C 223.13 242.72 217.18 246.44 211.19 249.12 C 206.66 246.14 202.35 242.28 196.79 241.46 C 191.33 240.60 185.41 240.82 180.48 243.58 C 177.97 244.94 175.52 246.40 173.02 247.79 C 167.64 245.47 161.95 243.22 155.96 244.06 C 150.90 244.25 146.40 246.73 141.89 248.74 C 137.38 246.71 133.16 243.99 128.36 242.66 C 121.31 240.61 113.71 240.85 106.64 242.74 C 101.80 243.99 97.49 246.61 92.99 248.72 C 88.51 246.55 84.20 243.77 79.23 242.85 C 72.09 241.46 64.71 242.77 57.90 245.08 C 54.15 246.29 50.86 248.71 47.01 249.62 C 43.10 248.71 39.70 246.37 35.88 245.17 C 24.09 241.29 10.53 242.43 0.00 249.22 L 0.00 0.00 M 49.32 18.31 C 38.61 23.58 29.03 31.52 22.75 41.76 C 21.95 43.36 20.29 45.39 21.79 47.08 C 17.54 51.54 16.74 58.21 18.73 63.90 C 17.25 66.84 18.05 70.20 18.70 73.25 C 22.01 86.59 32.15 96.88 36.01 109.97 C 38.52 117.94 35.89 126.33 32.65 133.67 C 30.44 138.57 27.29 143.12 26.25 148.48 C 19.84 150.80 16.84 158.32 18.99 164.63 C 16.01 167.81 15.42 172.31 14.45 176.38 C 12.73 183.64 13.25 191.34 15.55 198.41 C 19.73 210.38 29.11 219.49 38.89 227.11 C 47.41 234.60 58.60 239.29 70.02 239.02 C 83.89 238.20 97.13 233.66 110.60 230.65 C 120.50 228.39 130.81 225.87 140.97 228.02 C 150.13 229.33 158.76 233.19 168.02 233.93 C 175.06 234.55 181.85 232.18 188.61 230.60 C 201.06 227.20 213.83 225.06 226.12 221.06 C 230.82 219.71 235.60 217.74 240.59 218.37 C 245.60 218.90 250.23 221.05 254.69 223.27 C 264.40 227.67 274.10 232.56 284.73 234.29 C 291.89 235.36 299.18 236.68 306.42 235.50 C 318.28 233.94 330.72 231.86 340.58 224.58 C 345.28 220.64 349.89 216.25 352.66 210.68 C 356.19 203.10 358.14 194.51 356.67 186.16 C 356.26 186.10 355.43 185.97 355.02 185.91 C 358.35 181.11 355.53 174.87 350.86 172.21 C 351.14 171.91 351.70 171.32 351.98 171.03 C 350.30 164.94 346.93 159.39 345.84 153.10 C 343.45 144.10 346.97 134.94 350.96 126.97 C 351.86 124.39 355.13 124.45 356.58 122.55 C 357.43 119.20 357.47 115.53 359.65 112.67 C 370.59 96.50 371.26 75.38 365.75 57.12 L 366.78 57.12 C 369.36 52.17 369.29 46.38 369.12 40.95 C 368.90 35.57 366.99 29.76 362.21 26.78 C 358.74 24.29 353.91 25.26 350.74 27.75 C 349.11 29.55 348.40 31.99 346.85 33.86 C 343.48 35.46 339.50 36.59 337.73 40.24 C 333.28 39.31 328.74 38.44 324.64 36.39 C 315.71 32.07 308.40 25.18 300.02 19.97 C 288.93 12.73 275.21 8.42 261.96 10.85 C 246.85 12.98 232.70 19.29 217.61 21.50 C 205.53 23.55 193.15 23.48 181.03 21.84 C 149.84 18.38 119.67 6.79 87.99 7.92 C 74.52 8.16 61.20 12.02 49.32 18.31 Z" />
</g>
<g id="#e9f2ffff">
<path fill="#e9f2ff" opacity="1.00" d=" M 49.32 18.31 C 61.20 12.02 74.52 8.16 87.99 7.92 C 119.67 6.79 149.84 18.38 181.03 21.84 C 193.15 23.48 205.53 23.55 217.61 21.50 C 232.70 19.29 246.85 12.98 261.96 10.85 C 275.21 8.42 288.93 12.73 300.02 19.97 C 308.40 25.18 315.71 32.07 324.64 36.39 C 328.74 38.44 333.28 39.31 337.73 40.24 C 336.44 44.69 337.89 49.56 341.69 52.31 C 348.26 58.22 357.60 57.11 365.75 57.12 C 371.26 75.38 370.59 96.50 359.65 112.67 C 357.47 115.53 357.43 119.20 356.58 122.55 C 355.13 124.45 351.86 124.39 350.96 126.97 C 346.97 134.94 343.45 144.10 345.84 153.10 C 346.93 159.39 350.30 164.94 351.98 171.03 C 351.70 171.32 351.14 171.91 350.86 172.21 C 347.29 170.68 343.47 169.98 339.65 169.40 C 334.71 168.79 331.62 164.08 326.77 163.14 C 321.62 161.56 316.30 162.93 311.32 164.44 C 308.12 165.51 304.98 163.75 301.89 163.13 C 297.39 161.85 292.52 162.47 288.26 164.27 C 284.49 165.92 282.30 169.79 278.57 171.49 C 275.34 173.11 271.50 174.19 269.40 177.37 C 266.79 180.91 267.54 186.31 270.91 189.09 C 274.47 192.38 279.40 193.31 284.07 193.67 C 290.07 193.88 294.87 198.55 300.97 198.25 C 305.62 198.73 309.80 196.49 314.14 195.28 C 318.81 195.87 323.14 198.60 328.01 197.98 C 334.68 198.23 339.47 192.84 345.69 191.45 C 349.31 190.61 352.39 188.47 355.02 185.91 C 355.43 185.97 356.26 186.10 356.67 186.16 C 358.14 194.51 356.19 203.10 352.66 210.68 C 349.89 216.25 345.28 220.64 340.58 224.58 C 330.72 231.86 318.28 233.94 306.42 235.50 C 299.18 236.68 291.89 235.36 284.73 234.29 C 274.10 232.56 264.40 227.67 254.69 223.27 C 250.23 221.05 245.60 218.90 240.59 218.37 C 235.60 217.74 230.82 219.71 226.12 221.06 C 213.83 225.06 201.06 227.20 188.61 230.60 C 181.85 232.18 175.06 234.55 168.02 233.93 C 158.76 233.19 150.13 229.33 140.97 228.02 C 130.81 225.87 120.50 228.39 110.60 230.65 C 97.13 233.66 83.89 238.20 70.02 239.02 C 58.60 239.29 47.41 234.60 38.89 227.11 C 29.11 219.49 19.73 210.38 15.55 198.41 C 13.25 191.34 12.73 183.64 14.45 176.38 C 15.42 172.31 16.01 167.81 18.99 164.63 C 21.37 169.02 25.97 171.11 30.54 172.47 C 32.36 177.47 35.04 183.35 41.08 183.98 C 46.22 185.49 50.20 181.72 54.14 179.18 C 57.69 179.60 61.13 181.56 64.77 180.71 C 68.65 179.75 71.00 175.96 74.81 174.82 C 77.81 173.69 81.38 173.21 83.49 170.51 C 87.75 165.57 87.14 157.15 81.83 153.19 C 78.99 150.73 74.99 151.19 71.63 150.03 C 68.65 148.57 66.40 145.55 62.88 145.29 C 59.94 144.94 56.86 144.41 55.20 141.66 C 52.00 136.94 45.35 135.89 40.46 138.46 C 36.78 140.21 35.32 144.28 33.54 147.65 C 31.10 147.88 28.67 148.14 26.25 148.48 C 27.29 143.12 30.44 138.57 32.65 133.67 C 35.89 126.33 38.52 117.94 36.01 109.97 C 32.15 96.88 22.01 86.59 18.70 73.25 C 18.05 70.20 17.25 66.84 18.73 63.90 C 20.93 66.79 23.43 69.74 26.93 71.07 C 30.42 72.42 34.19 71.22 37.80 71.59 C 41.08 73.04 43.60 76.07 47.26 76.69 C 51.42 77.55 55.40 75.58 59.19 74.13 C 61.98 75.58 64.66 77.30 67.65 78.31 C 72.95 79.56 78.61 77.24 81.95 73.03 C 85.29 68.81 91.61 68.24 94.27 63.36 C 97.88 57.95 97.00 50.19 92.33 45.69 C 89.09 42.06 83.98 41.78 79.56 40.69 C 77.92 37.71 76.55 34.37 73.83 32.18 C 70.36 29.52 65.69 28.49 61.44 29.49 C 58.26 30.35 55.99 33.01 52.96 34.15 C 49.01 33.95 44.92 32.31 41.08 34.04 C 36.96 35.22 34.91 39.21 31.99 41.96 C 28.71 43.90 24.86 44.73 21.79 47.08 C 20.29 45.39 21.95 43.36 22.75 41.76 C 29.03 31.52 38.61 23.58 49.32 18.31 M 119.92 37.24 C 119.71 41.94 125.97 41.38 129.17 41.15 C 129.39 37.95 130.05 32.62 126.05 31.60 C 123.69 33.08 121.78 35.19 119.92 37.24 M 270.43 33.45 C 264.15 33.70 261.99 40.57 256.74 42.86 C 250.28 46.24 249.82 56.20 255.26 60.73 C 257.56 63.10 260.92 63.50 264.04 63.74 C 267.99 63.80 271.07 67.09 275.06 66.91 C 277.47 66.78 279.67 65.65 282.02 65.20 C 284.76 65.31 287.40 66.80 290.17 66.19 C 292.13 66.05 294.25 64.87 296.12 65.96 C 298.88 67.34 301.86 68.67 305.04 68.01 C 312.84 67.21 317.55 56.67 312.62 50.45 C 310.20 47.25 308.10 43.58 304.65 41.40 C 301.55 39.35 297.75 40.63 294.33 40.13 C 292.39 39.34 290.68 38.07 288.70 37.38 C 286.20 36.97 283.67 37.54 281.17 37.30 C 277.77 35.61 274.57 32.52 270.43 33.45 M 203.95 53.99 C 202.63 56.08 202.29 58.60 201.67 60.95 C 197.96 61.40 193.37 60.41 190.68 63.68 C 186.30 67.69 186.96 74.96 191.18 78.84 C 198.86 86.49 210.57 87.43 220.83 86.90 C 223.61 78.36 225.55 68.98 222.92 60.15 C 221.75 55.95 218.82 51.96 214.57 50.55 C 210.81 49.58 206.32 50.82 203.95 53.99 M 111.79 91.62 C 108.53 92.03 107.22 95.32 105.61 97.71 C 102.18 97.53 97.85 96.20 95.41 99.44 C 91.50 103.46 94.18 109.92 98.04 112.94 C 103.06 116.89 109.26 119.74 115.70 120.05 C 119.18 113.88 122.33 106.85 121.45 99.60 C 120.90 95.10 116.71 90.22 111.79 91.62 M 285.74 99.78 C 282.08 103.81 281.76 109.63 282.22 114.78 C 286.93 115.89 292.07 116.65 296.69 114.77 C 298.94 113.87 300.51 111.51 299.97 109.05 C 299.97 106.29 296.58 105.82 294.76 104.47 C 294.32 102.87 293.97 101.23 293.32 99.70 C 291.54 97.34 287.54 97.51 285.74 99.78 M 345.03 117.54 C 345.18 122.52 351.27 122.17 354.82 121.83 C 354.71 118.59 355.32 113.12 351.16 112.30 C 348.87 113.60 347.43 116.22 345.03 117.54 M 168.60 125.50 C 166.36 130.79 159.49 130.81 156.53 135.47 C 151.47 141.70 153.38 151.68 159.99 156.03 C 163.83 159.29 169.04 158.65 173.65 159.47 C 176.62 161.05 179.04 163.68 182.39 164.53 C 187.13 165.80 192.53 165.46 196.67 162.64 C 198.43 161.65 200.56 159.52 202.43 161.56 C 207.05 165.16 213.44 165.78 218.88 163.85 C 223.45 162.43 225.76 157.34 230.60 156.49 C 234.16 155.61 237.44 153.63 239.52 150.55 C 244.31 144.33 242.56 134.34 235.91 130.13 C 232.08 127.07 227.01 127.15 222.38 126.69 C 219.71 122.96 216.49 119.17 211.76 118.19 C 205.95 116.23 199.79 118.15 194.99 121.61 C 191.91 120.00 188.89 117.99 185.37 117.55 C 178.91 116.84 171.78 119.58 168.60 125.50 M 134.50 185.54 C 131.83 187.18 130.51 190.18 128.32 192.30 C 125.63 194.28 122.17 195.28 120.13 198.07 C 115.55 203.63 115.99 212.71 121.45 217.54 C 124.37 220.37 128.47 221.59 132.49 221.31 C 137.11 220.71 140.26 225.15 144.75 225.36 C 148.71 226.12 152.13 223.58 155.80 222.68 C 158.56 223.27 161.12 224.81 164.00 224.78 C 166.66 224.53 169.23 223.73 171.83 223.10 C 174.96 224.96 178.17 227.25 182.00 227.07 C 189.39 227.53 196.36 221.28 196.76 213.89 C 197.23 209.86 195.55 205.97 192.97 202.96 C 189.67 199.03 187.10 193.72 181.77 192.25 C 178.35 190.91 174.78 192.20 171.29 192.28 C 168.75 191.04 166.64 188.92 163.84 188.25 C 160.67 187.60 157.47 188.62 154.29 188.50 C 151.56 187.04 149.37 184.59 146.32 183.73 C 142.36 182.67 138.00 183.47 134.50 185.54 M 67.82 198.87 C 64.81 202.90 64.54 208.17 64.68 213.01 C 69.36 214.70 74.67 215.23 79.36 213.30 C 81.83 212.27 83.56 209.23 82.36 206.66 C 81.61 204.68 79.21 204.32 77.57 203.35 C 77.02 201.60 76.60 199.80 75.77 198.16 C 73.79 195.62 69.56 196.46 67.82 198.87 Z" />
</g>
<g id="#f9fbffff">
<path fill="#f9fbff" opacity="1.00" d=" M 350.74 27.75 C 353.91 25.26 358.74 24.29 362.21 26.78 C 366.99 29.76 368.90 35.57 369.12 40.95 C 369.29 46.38 369.36 52.17 366.78 57.12 L 365.75 57.12 C 357.60 57.11 348.26 58.22 341.69 52.31 C 337.89 49.56 336.44 44.69 337.73 40.24 C 339.50 36.59 343.48 35.46 346.85 33.86 C 348.40 31.99 349.11 29.55 350.74 27.75 M 354.16 28.06 C 350.73 29.31 350.29 33.29 349.34 36.31 C 346.57 36.95 343.09 36.67 341.22 39.21 C 338.29 42.74 339.65 48.25 343.20 50.82 C 349.54 55.73 358.13 55.37 365.70 54.72 C 367.03 47.62 368.33 39.76 365.00 33.01 C 363.16 29.13 358.40 26.00 354.16 28.06 Z" />
</g>
<g id="#ff94b5ff">
<path fill="#ff94b5" opacity="1.00" d=" M 354.16 28.06 C 358.40 26.00 363.16 29.13 365.00 33.01 C 368.33 39.76 367.03 47.62 365.70 54.72 C 358.13 55.37 349.54 55.73 343.20 50.82 C 339.65 48.25 338.29 42.74 341.22 39.21 C 343.09 36.67 346.57 36.95 349.34 36.31 C 350.29 33.29 350.73 29.31 354.16 28.06 Z" />
<path fill="#ff94b5" opacity="1.00" d=" M 119.92 37.24 C 121.78 35.19 123.69 33.08 126.05 31.60 C 130.05 32.62 129.39 37.95 129.17 41.15 C 125.97 41.38 119.71 41.94 119.92 37.24 Z" />
<path fill="#ff94b5" opacity="1.00" d=" M 203.95 53.99 C 206.32 50.82 210.81 49.58 214.57 50.55 C 218.82 51.96 221.75 55.95 222.92 60.15 C 225.55 68.98 223.61 78.36 220.83 86.90 C 210.57 87.43 198.86 86.49 191.18 78.84 C 186.96 74.96 186.30 67.69 190.68 63.68 C 193.37 60.41 197.96 61.40 201.67 60.95 C 202.29 58.60 202.63 56.08 203.95 53.99 Z" />
<path fill="#ff94b5" opacity="1.00" d=" M 111.79 91.62 C 116.71 90.22 120.90 95.10 121.45 99.60 C 122.33 106.85 119.18 113.88 115.70 120.05 C 109.26 119.74 103.06 116.89 98.04 112.94 C 94.18 109.92 91.50 103.46 95.41 99.44 C 97.85 96.20 102.18 97.53 105.61 97.71 C 107.22 95.32 108.53 92.03 111.79 91.62 Z" />
<path fill="#ff94b5" opacity="1.00" d=" M 285.74 99.78 C 287.54 97.51 291.54 97.34 293.32 99.70 C 293.97 101.23 294.32 102.87 294.76 104.47 C 296.58 105.82 299.97 106.29 299.97 109.05 C 300.51 111.51 298.94 113.87 296.69 114.77 C 292.07 116.65 286.93 115.89 282.22 114.78 C 281.76 109.63 282.08 103.81 285.74 99.78 Z" />
<path fill="#ff94b5" opacity="1.00" d=" M 345.03 117.54 C 347.43 116.22 348.87 113.60 351.16 112.30 C 355.32 113.12 354.71 118.59 354.82 121.83 C 351.27 122.17 345.18 122.52 345.03 117.54 Z" />
<path fill="#ff94b5" opacity="1.00" d=" M 67.82 198.87 C 69.56 196.46 73.79 195.62 75.77 198.16 C 76.60 199.80 77.02 201.60 77.57 203.35 C 79.21 204.32 81.61 204.68 82.36 206.66 C 83.56 209.23 81.83 212.27 79.36 213.30 C 74.67 215.23 69.36 214.70 64.68 213.01 C 64.54 208.17 64.81 202.90 67.82 198.87 Z" />
</g>
<g id="#83b6ffff">
<path fill="#83b6ff" opacity="1.00" d=" M 61.44 29.49 C 65.69 28.49 70.36 29.52 73.83 32.18 C 76.55 34.37 77.92 37.71 79.56 40.69 C 83.98 41.78 89.09 42.06 92.33 45.69 C 97.00 50.19 97.88 57.95 94.27 63.36 C 91.61 68.24 85.29 68.81 81.95 73.03 C 78.61 77.24 72.95 79.56 67.65 78.31 C 64.66 77.30 61.98 75.58 59.19 74.13 C 55.40 75.58 51.42 77.55 47.26 76.69 C 43.60 76.07 41.08 73.04 37.80 71.59 C 34.19 71.22 30.42 72.42 26.93 71.07 C 23.43 69.74 20.93 66.79 18.73 63.90 C 16.74 58.21 17.54 51.54 21.79 47.08 C 24.86 44.73 28.71 43.90 31.99 41.96 C 34.91 39.21 36.96 35.22 41.08 34.04 C 44.92 32.31 49.01 33.95 52.96 34.15 C 55.99 33.01 58.26 30.35 61.44 29.49 M 53.88 36.99 C 49.81 35.84 45.33 34.03 41.22 36.11 C 37.44 37.51 35.50 41.23 33.49 44.45 C 29.09 45.34 24.26 46.64 21.74 50.73 C 17.29 56.57 20.15 65.51 26.57 68.57 C 30.31 70.98 34.76 69.53 38.71 68.57 C 41.42 71.19 44.15 74.45 48.18 74.80 C 52.47 75.54 56.18 72.94 59.82 71.11 C 63.69 74.98 69.19 78.08 74.74 75.88 C 79.66 74.87 80.85 68.82 85.58 67.55 C 90.30 66.19 93.94 61.94 94.30 57.00 C 95.06 52.40 92.32 47.93 88.64 45.38 C 85.49 43.17 81.44 43.77 77.82 43.34 C 76.70 37.93 73.44 32.30 67.47 31.44 C 62.10 29.79 57.44 33.44 53.88 36.99 Z" />
<path fill="#83b6ff" opacity="1.00" d=" M 270.43 33.45 C 274.57 32.52 277.77 35.61 281.17 37.30 C 283.67 37.54 286.20 36.97 288.70 37.38 C 290.68 38.07 292.39 39.34 294.33 40.13 C 297.75 40.63 301.55 39.35 304.65 41.40 C 308.10 43.58 310.20 47.25 312.62 50.45 C 317.55 56.67 312.84 67.21 305.04 68.01 C 301.86 68.67 298.88 67.34 296.12 65.96 C 294.25 64.87 292.13 66.05 290.17 66.19 C 287.40 66.80 284.76 65.31 282.02 65.20 C 279.67 65.65 277.47 66.78 275.06 66.91 C 271.07 67.09 267.99 63.80 264.04 63.74 C 260.92 63.50 257.56 63.10 255.26 60.73 C 249.82 56.20 250.28 46.24 256.74 42.86 C 261.99 40.57 264.15 33.70 270.43 33.45 M 271.17 35.46 C 267.81 35.44 265.13 37.69 263.36 40.34 C 260.94 44.06 255.13 44.40 254.04 49.18 C 251.78 55.03 256.63 62.15 263.02 61.57 C 266.60 60.99 269.47 63.21 272.58 64.51 C 275.89 65.85 278.92 63.49 282.00 62.65 C 284.05 63.04 285.96 63.94 288.02 64.33 C 290.42 64.28 292.73 63.47 295.05 62.92 C 297.87 64.33 300.65 66.52 303.99 66.16 C 308.43 65.84 312.29 61.95 312.51 57.49 C 313.03 52.40 308.68 48.73 305.91 45.01 C 303.66 42.05 299.73 41.73 296.34 42.40 C 293.85 43.17 291.92 41.23 289.90 40.16 C 287.01 38.19 283.43 39.65 280.25 39.81 C 277.66 37.65 274.81 35.06 271.17 35.46 Z" />
<path fill="#83b6ff" opacity="1.00" d=" M 168.60 125.50 C 171.78 119.58 178.91 116.84 185.37 117.55 C 188.89 117.99 191.91 120.00 194.99 121.61 C 199.79 118.15 205.95 116.23 211.76 118.19 C 216.49 119.17 219.71 122.96 222.38 126.69 C 227.01 127.15 232.08 127.07 235.91 130.13 C 242.56 134.34 244.31 144.33 239.52 150.55 C 237.44 153.63 234.16 155.61 230.60 156.49 C 225.76 157.34 223.45 162.43 218.88 163.85 C 213.44 165.78 207.05 165.16 202.43 161.56 C 200.56 159.52 198.43 161.65 196.67 162.64 C 192.53 165.46 187.13 165.80 182.39 164.53 C 179.04 163.68 176.62 161.05 173.65 159.47 C 169.04 158.65 163.83 159.29 159.99 156.03 C 153.38 151.68 151.47 141.70 156.53 135.47 C 159.49 130.81 166.36 130.79 168.60 125.50 M 170.78 125.73 C 169.65 127.30 169.12 129.36 167.60 130.60 C 164.02 132.55 159.58 133.71 157.53 137.59 C 153.72 143.36 156.05 151.72 162.05 154.98 C 165.83 157.52 170.50 156.76 174.76 157.35 C 178.17 159.85 181.44 163.11 185.99 163.17 C 191.42 164.11 196.11 160.86 200.15 157.70 C 203.38 159.56 206.36 162.24 210.19 162.74 C 215.21 163.53 220.54 161.78 223.87 157.89 C 227.05 154.09 232.91 154.91 236.15 151.12 C 241.78 146.38 241.52 136.78 235.56 132.42 C 231.67 128.84 226.19 128.99 221.26 128.86 C 218.58 124.35 214.58 120.04 209.00 119.68 C 203.78 118.59 199.07 121.32 194.92 124.10 C 191.76 122.35 188.78 119.84 185.02 119.62 C 179.68 119.01 173.74 121.05 170.78 125.73 Z" />
<path fill="#83b6ff" opacity="1.00" d=" M 40.46 138.46 C 45.35 135.89 52.00 136.94 55.20 141.66 C 56.86 144.41 59.94 144.94 62.88 145.29 C 66.40 145.55 68.65 148.57 71.63 150.03 C 74.99 151.19 78.99 150.73 81.83 153.19 C 87.14 157.15 87.75 165.57 83.49 170.51 C 81.38 173.21 77.81 173.69 74.81 174.82 C 71.00 175.96 68.65 179.75 64.77 180.71 C 61.13 181.56 57.69 179.60 54.14 179.18 C 50.20 181.72 46.22 185.49 41.08 183.98 C 35.04 183.35 32.36 177.47 30.54 172.47 C 25.97 171.11 21.37 169.02 18.99 164.63 C 16.84 158.32 19.84 150.80 26.25 148.48 C 28.67 148.14 31.10 147.88 33.54 147.65 C 35.32 144.28 36.78 140.21 40.46 138.46 M 39.55 141.55 C 36.83 143.68 36.28 147.26 35.37 150.38 C 31.58 150.23 27.16 149.12 24.10 152.07 C 19.71 155.34 19.14 162.17 22.67 166.27 C 25.00 169.43 29.19 169.62 32.71 170.35 C 33.48 173.55 33.78 177.25 36.45 179.54 C 39.43 182.56 44.42 183.03 48.12 181.14 C 50.35 179.73 51.76 177.41 53.39 175.39 C 56.61 177.11 59.95 179.59 63.82 178.84 C 67.20 178.47 69.12 175.39 71.58 173.45 C 74.68 172.17 78.50 172.53 81.04 170.03 C 85.46 166.33 85.49 158.70 80.94 155.09 C 78.17 152.21 73.93 152.86 70.32 152.64 C 68.48 150.83 66.81 148.70 64.48 147.49 C 61.84 146.73 59.05 146.95 56.34 146.79 C 54.84 144.63 53.57 142.18 51.42 140.59 C 47.84 138.32 42.68 138.59 39.55 141.55 Z" />
<path fill="#83b6ff" opacity="1.00" d=" M 288.26 164.27 C 292.52 162.47 297.39 161.85 301.89 163.13 C 304.98 163.75 308.12 165.51 311.32 164.44 C 316.30 162.93 321.62 161.56 326.77 163.14 C 331.62 164.08 334.71 168.79 339.65 169.40 C 343.47 169.98 347.29 170.68 350.86 172.21 C 355.53 174.87 358.35 181.11 355.02 185.91 C 352.39 188.47 349.31 190.61 345.69 191.45 C 339.47 192.84 334.68 198.23 328.01 197.98 C 323.14 198.60 318.81 195.87 314.14 195.28 C 309.80 196.49 305.62 198.73 300.97 198.25 C 294.87 198.55 290.07 193.88 284.07 193.67 C 279.40 193.31 274.47 192.38 270.91 189.09 C 267.54 186.31 266.79 180.91 269.40 177.37 C 271.50 174.19 275.34 173.11 278.57 171.49 C 282.30 169.79 284.49 165.92 288.26 164.27 M 287.74 166.72 C 284.51 168.40 283.26 172.60 279.57 173.50 C 275.62 174.67 270.88 176.61 270.02 181.16 C 268.90 185.54 273.06 188.87 276.69 190.27 C 280.47 192.03 284.71 191.31 288.70 191.87 C 292.59 193.84 296.37 196.57 300.98 196.27 C 305.78 196.76 310.06 194.49 314.19 192.43 C 316.81 192.81 318.98 194.75 321.58 195.39 C 327.21 196.79 333.66 196.00 338.26 192.25 C 342.09 189.06 347.89 190.16 351.46 186.47 C 354.20 184.49 355.44 180.52 353.49 177.57 C 350.88 173.95 346.39 171.92 341.99 171.79 C 339.07 171.48 335.55 172.18 333.60 169.43 C 327.29 162.65 316.57 163.72 309.03 167.74 C 302.56 164.33 294.38 163.13 287.74 166.72 Z" />
<path fill="#83b6ff" opacity="1.00" d=" M 134.50 185.54 C 138.00 183.47 142.36 182.67 146.32 183.73 C 149.37 184.59 151.56 187.04 154.29 188.50 C 157.47 188.62 160.67 187.60 163.84 188.25 C 166.64 188.92 168.75 191.04 171.29 192.28 C 174.78 192.20 178.35 190.91 181.77 192.25 C 187.10 193.72 189.67 199.03 192.97 202.96 C 195.55 205.97 197.23 209.86 196.76 213.89 C 196.36 221.28 189.39 227.53 182.00 227.07 C 178.17 227.25 174.96 224.96 171.83 223.10 C 169.23 223.73 166.66 224.53 164.00 224.78 C 161.12 224.81 158.56 223.27 155.80 222.68 C 152.13 223.58 148.71 226.12 144.75 225.36 C 140.26 225.15 137.11 220.71 132.49 221.31 C 128.47 221.59 124.37 220.37 121.45 217.54 C 115.99 212.71 115.55 203.63 120.13 198.07 C 122.17 195.28 125.63 194.28 128.32 192.30 C 130.51 190.18 131.83 187.18 134.50 185.54 M 134.79 187.79 C 132.06 189.74 131.38 193.75 128.10 195.02 C 124.99 196.35 121.87 198.17 120.37 201.36 C 117.22 206.82 119.43 214.08 124.67 217.35 C 127.82 220.03 132.09 218.95 135.85 219.22 C 139.02 220.28 141.42 223.33 144.99 223.35 C 148.71 223.90 151.89 221.69 155.18 220.40 C 158.22 220.63 160.87 222.81 164.00 222.73 C 166.83 222.63 169.42 221.36 172.04 220.42 C 175.06 222.50 178.09 225.26 182.01 225.10 C 189.23 225.48 195.72 218.36 194.71 211.22 C 194.12 206.17 189.78 202.84 187.23 198.75 C 184.32 194.14 178.33 192.78 173.32 194.28 C 169.99 195.53 167.86 192.02 165.11 190.88 C 161.36 188.81 157.22 191.04 153.32 190.84 C 151.10 189.31 149.34 187.08 146.78 186.09 C 142.84 184.60 138.20 185.36 134.79 187.79 Z" />
</g>
<g id="#ffffffff">
<path fill="#ffffff" opacity="1.00" d=" M 53.88 36.99 C 57.44 33.44 62.10 29.79 67.47 31.44 C 73.44 32.30 76.70 37.93 77.82 43.34 C 81.44 43.77 85.49 43.17 88.64 45.38 C 92.32 47.93 95.06 52.40 94.30 57.00 C 93.94 61.94 90.30 66.19 85.58 67.55 C 80.85 68.82 79.66 74.87 74.74 75.88 C 69.19 78.08 63.69 74.98 59.82 71.11 C 56.18 72.94 52.47 75.54 48.18 74.80 C 44.15 74.45 41.42 71.19 38.71 68.57 C 34.76 69.53 30.31 70.98 26.57 68.57 C 20.15 65.51 17.29 56.57 21.74 50.73 C 24.26 46.64 29.09 45.34 33.49 44.45 C 35.50 41.23 37.44 37.51 41.22 36.11 C 45.33 34.03 49.81 35.84 53.88 36.99 Z" />
<path fill="#ffffff" opacity="1.00" d=" M 271.17 35.46 C 274.81 35.06 277.66 37.65 280.25 39.81 C 283.43 39.65 287.01 38.19 289.90 40.16 C 291.92 41.23 293.85 43.17 296.34 42.40 C 299.73 41.73 303.66 42.05 305.91 45.01 C 308.68 48.73 313.03 52.40 312.51 57.49 C 312.29 61.95 308.43 65.84 303.99 66.16 C 300.65 66.52 297.87 64.33 295.05 62.92 C 292.73 63.47 290.42 64.28 288.02 64.33 C 285.96 63.94 284.05 63.04 282.00 62.65 C 278.92 63.49 275.89 65.85 272.58 64.51 C 269.47 63.21 266.60 60.99 263.02 61.57 C 256.63 62.15 251.78 55.03 254.04 49.18 C 255.13 44.40 260.94 44.06 263.36 40.34 C 265.13 37.69 267.81 35.44 271.17 35.46 Z" />
<path fill="#ffffff" opacity="1.00" d=" M 170.78 125.73 C 173.74 121.05 179.68 119.01 185.02 119.62 C 188.78 119.84 191.76 122.35 194.92 124.10 C 199.07 121.32 203.78 118.59 209.00 119.68 C 214.58 120.04 218.58 124.35 221.26 128.86 C 226.19 128.99 231.67 128.84 235.56 132.42 C 241.52 136.78 241.78 146.38 236.15 151.12 C 232.91 154.91 227.05 154.09 223.87 157.89 C 220.54 161.78 215.21 163.53 210.19 162.74 C 206.36 162.24 203.38 159.56 200.15 157.70 C 196.11 160.86 191.42 164.11 185.99 163.17 C 181.44 163.11 178.17 159.85 174.76 157.35 C 170.50 156.76 165.83 157.52 162.05 154.98 C 156.05 151.72 153.72 143.36 157.53 137.59 C 159.58 133.71 164.02 132.55 167.60 130.60 C 169.12 129.36 169.65 127.30 170.78 125.73 Z" />
<path fill="#ffffff" opacity="1.00" d=" M 39.55 141.55 C 42.68 138.59 47.84 138.32 51.42 140.59 C 53.57 142.18 54.84 144.63 56.34 146.79 C 59.05 146.95 61.84 146.73 64.48 147.49 C 66.81 148.70 68.48 150.83 70.32 152.64 C 73.93 152.86 78.17 152.21 80.94 155.09 C 85.49 158.70 85.46 166.33 81.04 170.03 C 78.50 172.53 74.68 172.17 71.58 173.45 C 69.12 175.39 67.20 178.47 63.82 178.84 C 59.95 179.59 56.61 177.11 53.39 175.39 C 51.76 177.41 50.35 179.73 48.12 181.14 C 44.42 183.03 39.43 182.56 36.45 179.54 C 33.78 177.25 33.48 173.55 32.71 170.35 C 29.19 169.62 25.00 169.43 22.67 166.27 C 19.14 162.17 19.71 155.34 24.10 152.07 C 27.16 149.12 31.58 150.23 35.37 150.38 C 36.28 147.26 36.83 143.68 39.55 141.55 Z" />
<path fill="#ffffff" opacity="1.00" d=" M 287.74 166.72 C 294.38 163.13 302.56 164.33 309.03 167.74 C 316.57 163.72 327.29 162.65 333.60 169.43 C 335.55 172.18 339.07 171.48 341.99 171.79 C 346.39 171.92 350.88 173.95 353.49 177.57 C 355.44 180.52 354.20 184.49 351.46 186.47 C 347.89 190.16 342.09 189.06 338.26 192.25 C 333.66 196.00 327.21 196.79 321.58 195.39 C 318.98 194.75 316.81 192.81 314.19 192.43 C 310.06 194.49 305.78 196.76 300.98 196.27 C 296.37 196.57 292.59 193.84 288.70 191.87 C 284.71 191.31 280.47 192.03 276.69 190.27 C 273.06 188.87 268.90 185.54 270.02 181.16 C 270.88 176.61 275.62 174.67 279.57 173.50 C 283.26 172.60 284.51 168.40 287.74 166.72 Z" />
<path fill="#ffffff" opacity="1.00" d=" M 134.79 187.79 C 138.20 185.36 142.84 184.60 146.78 186.09 C 149.34 187.08 151.10 189.31 153.32 190.84 C 157.22 191.04 161.36 188.81 165.11 190.88 C 167.86 192.02 169.99 195.53 173.32 194.28 C 178.33 192.78 184.32 194.14 187.23 198.75 C 189.78 202.84 194.12 206.17 194.71 211.22 C 195.72 218.36 189.23 225.48 182.01 225.10 C 178.09 225.26 175.06 222.50 172.04 220.42 C 169.42 221.36 166.83 222.63 164.00 222.73 C 160.87 222.81 158.22 220.63 155.18 220.40 C 151.89 221.69 148.71 223.90 144.99 223.35 C 141.42 223.33 139.02 220.28 135.85 219.22 C 132.09 218.95 127.82 220.03 124.67 217.35 C 119.43 214.08 117.22 206.82 120.37 201.36 C 121.87 198.17 124.99 196.35 128.10 195.02 C 131.38 193.75 132.06 189.74 134.79 187.79 Z" />
<path fill="#ffffff" opacity="1.00" d=" M 106.64 242.74 C 113.71 240.85 121.31 240.61 128.36 242.66 C 133.16 243.99 137.38 246.71 141.89 248.74 C 146.40 246.73 150.90 244.25 155.96 244.06 C 161.95 243.22 167.64 245.47 173.02 247.79 C 175.52 246.40 177.97 244.94 180.48 243.58 C 185.41 240.82 191.33 240.60 196.79 241.46 C 202.35 242.28 206.66 246.14 211.19 249.12 C 217.18 246.44 223.13 242.72 229.99 243.25 C 236.77 243.02 242.34 247.17 247.79 250.60 C 254.21 246.85 261.29 243.42 268.96 244.24 C 275.42 244.28 280.73 248.21 286.04 251.37 C 288.51 249.76 290.89 248.03 293.40 246.48 C 297.35 243.99 302.29 243.67 306.81 244.35 C 311.85 245.12 315.42 249.10 319.65 251.57 C 324.74 247.89 330.27 243.60 336.95 244.24 C 342.42 244.34 346.44 248.42 350.37 251.70 C 355.39 249.10 359.93 244.73 365.97 244.98 C 372.28 244.32 377.83 247.99 382.00 252.34 L 382.00 265.41 C 377.30 262.02 372.32 257.69 366.13 258.11 C 360.08 258.32 355.37 262.50 350.18 265.07 C 347.31 262.84 344.70 260.17 341.37 258.66 C 336.24 257.04 330.29 257.76 325.85 260.86 C 323.66 262.18 321.72 264.07 319.21 264.75 C 314.35 261.73 309.77 257.60 303.76 257.24 C 296.90 256.53 291.34 261.22 286.00 264.77 C 281.47 262.25 277.25 258.67 271.91 258.12 C 266.06 257.43 259.81 257.68 254.56 260.61 C 252.17 261.68 249.92 263.43 247.25 263.64 C 242.02 261.00 237.21 256.88 231.01 256.91 C 223.79 255.88 217.44 259.72 211.19 262.64 C 207.04 260.05 203.21 256.12 198.00 256.06 C 193.07 255.80 188.10 255.65 183.20 256.29 C 179.44 256.86 176.66 259.94 173.01 260.72 C 167.67 259.77 162.76 256.53 157.17 257.10 C 151.71 257.18 147.15 260.56 142.00 261.82 C 136.74 260.61 132.43 256.58 126.90 256.20 C 120.96 255.73 114.97 255.82 109.02 256.12 C 103.16 256.37 98.20 259.77 92.98 262.04 C 87.81 259.67 82.87 256.23 76.98 256.04 C 68.11 255.13 59.26 257.42 51.38 261.41 C 48.86 262.78 45.91 263.15 43.33 261.70 C 36.07 258.40 28.23 255.94 20.17 256.22 C 13.08 256.58 6.30 259.15 0.00 262.30 L 0.00 249.22 C 10.53 242.43 24.09 241.29 35.88 245.17 C 39.70 246.37 43.10 248.71 47.01 249.62 C 50.86 248.71 54.15 246.29 57.90 245.08 C 64.71 242.77 72.09 241.46 79.23 242.85 C 84.20 243.77 88.51 246.55 92.99 248.72 C 97.49 246.61 101.80 243.99 106.64 242.74 Z" />
</g>
<g id="#f9f9f9ff">
<path fill="#f9f9f9" opacity="1.00" d=" M 0.00 262.30 C 6.30 259.15 13.08 256.58 20.17 256.22 C 28.23 255.94 36.07 258.40 43.33 261.70 C 45.91 263.15 48.86 262.78 51.38 261.41 C 59.26 257.42 68.11 255.13 76.98 256.04 C 82.87 256.23 87.81 259.67 92.98 262.04 C 98.20 259.77 103.16 256.37 109.02 256.12 C 114.97 255.82 120.96 255.73 126.90 256.20 C 132.43 256.58 136.74 260.61 142.00 261.82 C 147.15 260.56 151.71 257.18 157.17 257.10 C 162.76 256.53 167.67 259.77 173.01 260.72 C 176.66 259.94 179.44 256.86 183.20 256.29 C 188.10 255.65 193.07 255.80 198.00 256.06 C 203.21 256.12 207.04 260.05 211.19 262.64 C 217.44 259.72 223.79 255.88 231.01 256.91 C 237.21 256.88 242.02 261.00 247.25 263.64 C 249.92 263.43 252.17 261.68 254.56 260.61 C 259.81 257.68 266.06 257.43 271.91 258.12 C 277.25 258.67 281.47 262.25 286.00 264.77 C 291.34 261.22 296.90 256.53 303.76 257.24 C 309.77 257.60 314.35 261.73 319.21 264.75 C 321.72 264.07 323.66 262.18 325.85 260.86 C 330.29 257.76 336.24 257.04 341.37 258.66 C 344.70 260.17 347.31 262.84 350.18 265.07 C 355.37 262.50 360.08 258.32 366.13 258.11 C 372.32 257.69 377.30 262.02 382.00 265.41 L 382.00 267.66 C 379.18 272.80 376.51 278.16 372.60 282.58 C 370.28 285.54 366.35 283.49 363.51 282.56 C 354.00 278.98 344.11 272.91 333.60 275.73 C 324.09 279.03 315.82 285.21 306.19 288.25 C 303.38 289.02 300.26 289.76 297.46 288.58 C 294.76 287.43 292.41 285.64 289.89 284.19 C 284.22 280.81 277.73 279.29 271.44 277.55 C 264.46 275.81 257.34 274.08 250.09 274.26 C 238.43 274.78 227.84 280.18 216.59 282.69 C 209.53 284.46 202.19 284.36 194.96 284.16 C 189.48 283.99 184.06 282.91 178.89 281.12 C 173.32 279.27 167.98 276.42 162.03 276.06 C 154.38 275.39 147.11 278.25 139.76 279.82 C 129.55 282.00 119.23 283.68 108.86 284.91 C 104.25 285.38 99.07 285.91 95.17 282.84 C 86.77 276.72 77.03 270.99 66.27 271.46 C 56.79 272.34 47.70 275.42 38.42 277.43 C 31.91 278.87 25.22 279.05 18.60 279.71 C 12.39 280.38 6.17 279.47 0.00 278.82 L 0.00 262.30 Z" />
</g>
<g id="#efefefff">
<path fill="#efefef" opacity="1.00" d=" M 372.60 282.58 C 376.51 278.16 379.18 272.80 382.00 267.66 L 382.00 294.00 L 0.00 294.00 L 0.00 278.82 C 6.17 279.47 12.39 280.38 18.60 279.71 C 25.22 279.05 31.91 278.87 38.42 277.43 C 47.70 275.42 56.79 272.34 66.27 271.46 C 77.03 270.99 86.77 276.72 95.17 282.84 C 99.07 285.91 104.25 285.38 108.86 284.91 C 119.23 283.68 129.55 282.00 139.76 279.82 C 147.11 278.25 154.38 275.39 162.03 276.06 C 167.98 276.42 173.32 279.27 178.89 281.12 C 184.06 282.91 189.48 283.99 194.96 284.16 C 202.19 284.36 209.53 284.46 216.59 282.69 C 227.84 280.18 238.43 274.78 250.09 274.26 C 257.34 274.08 264.46 275.81 271.44 277.55 C 277.73 279.29 284.22 280.81 289.89 284.19 C 292.41 285.64 294.76 287.43 297.46 288.58 C 300.26 289.76 303.38 289.02 306.19 288.25 C 315.82 285.21 324.09 279.03 333.60 275.73 C 344.11 272.91 354.00 278.98 363.51 282.56 C 366.35 283.49 370.28 285.54 372.60 282.58 Z" />
</g>
</svg>
