<?xml version="1.0" encoding="utf-8"?>
<!-- Generator: Adobe Illustrator 15.1.0, SVG Export Plug-In . SVG Version: 6.00 Build 0)  -->
<!DOCTYPE svg PUBLIC "-//W3C//DTD SVG 1.1//EN" "http://www.w3.org/Graphics/SVG/1.1/DTD/svg11.dtd">
<svg version="1.1" id="_x23_Layer_1" xmlns="http://www.w3.org/2000/svg" xmlns:xlink="http://www.w3.org/1999/xlink" x="0px"
	 y="0px" width="500px" height="300px" viewBox="0 0 500 300" enable-background="new 0 0 500 300" xml:space="preserve">
<path fill-rule="evenodd" clip-rule="evenodd" fill="#271A1C" stroke="#000000" stroke-width="1.0001" stroke-linecap="round" stroke-miterlimit="2.6131" d="
	M131.228,177.949c-1.777,5.204-3.681,13.074-5.204,18.024c-1.523,4.95-3.173,12.566-3.808,15.613
	c-0.635,3.046-1.777,11.297-1.777,11.297s5.078,2.158,6.474,1.65c1.396-0.508,4.824-0.381,6.347-0.762
	c1.523-0.381,9.647,1.143,10.917-0.127s5.331-2.158,9.901-3.047s14.851-2.411,18.405-4.315c3.555-1.904,7.235-0.508,9.14-1.016
	c1.904-0.508,6.728-2.412,6.728-2.412s-1.396-7.107-2.158-11.551c-0.761-4.442-3.681-15.994-4.315-17.897
	c-0.635-1.904-1.396-5.585-1.396-5.585s-10.155-1.396-13.328-1.396s-27.291,1.777-28.687,1.777
	C137.066,178.203,131.481,177.822,131.228,177.949z"/>
<path fill-rule="evenodd" clip-rule="evenodd" fill="#BC988D" stroke="#000000" stroke-width="1.0001" stroke-linecap="round" stroke-miterlimit="2.6131" d="
	M130.466,223.265c0.254,1.903,1.27,5.077,2.539,6.601c1.269,1.523,6.22,4.062,7.489,5.712s4.443,2.412,5.966,2.666
	c1.523,0.254,2.666-1.523,6.474-0.889c3.808,0.635,12.566,0.381,12.566,0.381s0.508-2.031,0.634-4.063
	c0.127-2.03,0.508-8.758,0.508-9.773s-0.762-4.824-0.762-4.824s-6.347,0.509-7.616,0.762c-1.27,0.254-6.981,0.889-9.139,1.904
	c-2.158,1.016-3.681,0.762-4.951,1.016s-2.666,0.254-4.316,0.127C138.209,222.757,130.466,223.392,130.466,223.265L130.466,223.265z
	 M148.046,221.678c0.328-0.549,0.012-0.216,0.455-0.307c3.311-0.675,2.782,0.11,2.782,1.259c0,5.546,0.831,3.472-0.254,3.3
	c0.101-1.28-3.515-1.632-3.5-1.81C147.054,223.784,147.783,222.119,148.046,221.678z"/>
<path fill-rule="evenodd" clip-rule="evenodd" fill="#13161A" stroke="#000000" stroke-width="1.0001" stroke-linecap="round" stroke-miterlimit="2.6131" d="
	M142.334,237.101c0.797,1.32,8.5,6.069,8.292,6.844c-1.273,4.742-1.321,14.999-2.992,19.051c-0.441,1.07-2.325,7.195-1.715,8.156
	c0.816,1.288-0.331,2.764,4.613,3.151c3.519,0.276,6.64,2.192,6.463-2.296c-0.029-0.746-0.006-5.917,0.424-6.303
	c0.083-0.074,1.759-4.824,2.158-5.618c1.096-2.177,0.162-5.224,2.875-4.104c1.522,0.627,6.273-2.491,6.981-4.538
	c1.563-4.515,0-5.741,0-8.631c-2.575-1.188-0.722-0.856-4.062-1.143c0-0.582-0.127-1.626-0.127-2.919
	c0.158,0,0.866-2.031-0.889-2.031c-2.274,0-7.926,0.472-10.039-0.171c-1.433-0.436-2.655,0.262-2.655-2.241
	c0.208,0,0.126-10.197,0.126-5.585c-0.042,0-1.553,3.583-1.683,3.935c-1.332,3.627-3.514,4.189-6.684,4.835
	C142.422,237.695,143.156,237.207,142.334,237.101z"/>
<path fill-rule="evenodd" clip-rule="evenodd" fill="none" stroke="#000000" stroke-width="1.0001" stroke-linecap="round" stroke-miterlimit="2.6131" d="
	M151.664,235.45c-0.039,0.174-0.381,2.604-0.381,2.792c-0.107,0-1.131,5.369-0.889,6.475"/>
<path fill-rule="evenodd" clip-rule="evenodd" fill="none" stroke="#000000" stroke-width="1.0001" stroke-linecap="round" stroke-miterlimit="2.6131" d="
	M165.5,240.908c-1.265,1.586-2.555,12.188-4.062,14.217"/>
<path fill-rule="evenodd" clip-rule="evenodd" fill="#1F1F22" stroke="#000000" stroke-width="1.0001" stroke-linecap="round" stroke-miterlimit="2.6131" d="
	M144.746,271.499c-1.292,0.644-0.771,4.401-0.963,5.967c-0.111,0.905-1.132,6.826-1.132,6.854c-0.026,0-1.619,4.074-0.337,6.474
	c1.673,3.13,15.189,0.887,15.189-2.285c0-2.212-0.814-4.991-0.033-7.837c1.16-4.225-0.807-4.582-2.125-8.156
	c-0.675-1.831-3.062-1.396-4.951-1.396C149.708,271.119,144.835,271.455,144.746,271.499z"/>
<path fill-rule="evenodd" clip-rule="evenodd" fill="#1F1F22" stroke="#000000" stroke-width="1.0001" stroke-linecap="round" stroke-miterlimit="2.6131" d="
	M167.531,240.972c0.686,0.284,5.202-1.979,7.71,1.576c2.143,3.036,1.621,5.097-0.519,8.631c-1.676,2.769-3.14,4.897-4.24,8.262
	c-1.675,5.125-2.879,7.2-5.407,11.932c-1.998,3.739-6.746,4.942-7.732,2.953c-0.315-0.637,0.236-3.182,0.087-3.344
	c0.023,0.003-0.357-4.413,0.674-5.861c1.339-1.88,1.888-8.429,4.464-9.233c3.002-0.938,8.135-3.806,8.135-7.87
	c-0.042,0-0.417-2.95-0.805-3.543c-0.204-0.313-0.529-1.627-1.015-1.606c-0.67-1.645-6.209-0.336-1.099-1.87L167.531,240.972z"/>
<path fill-rule="evenodd" clip-rule="evenodd" fill="none" stroke="#000000" stroke-width="1.0001" stroke-linecap="round" stroke-miterlimit="2.6131" d="
	M144.048,289.905c0.731,0.456,4.665,0.397,5.712-0.381c0.348,0.268,4.958-0.588,5.585-0.889"/>
<path fill-rule="evenodd" clip-rule="evenodd" fill="none" stroke="#000000" stroke-width="1.0001" stroke-linecap="round" stroke-miterlimit="2.6131" d="
	M158.899,273.15c1.542,0.438,4.375-2.346,5.458-3.428l0.254-0.254"/>
<path fill-rule="evenodd" clip-rule="evenodd" fill="none" stroke="#000000" stroke-width="1.0001" stroke-linecap="round" stroke-miterlimit="2.6131" d="
	M134.703,181.919c-2.15,2.683-5.664,21.359-5.743,25.794c-0.044,2.474-1.849,13.86-0.814,15.825"/>
<path fill-rule="evenodd" clip-rule="evenodd" fill="none" stroke="#000000" stroke-width="1.0001" stroke-linecap="round" stroke-miterlimit="2.6131" d="
	M139.119,189.012c0,4.535,4.068,16.903,4.539,23.642c0.089,1.273,1.038,6.229,0.948,7.271"/>
<path fill-rule="evenodd" clip-rule="evenodd" fill="#FFFFFF" stroke="#000000" stroke-width="1.0001" stroke-linecap="round" stroke-miterlimit="2.6131" d="
	M141.127,90.648c-1.874,2.142-4.148,4.015-6.558,5.085c-2.409,1.071-5.487,2.141-8.966,4.283c-3.479,2.141-5.621,2.542-7.495,5.888
	s-4.282,8.431-5.219,11.375c-0.937,2.944-2.008,6.691-2.944,7.762c-0.937,1.07-2.811,2.677-2.677,3.479
	c0.134,0.803,2.275,2.677,5.085,3.479c2.811,0.803,8.699,2.542,8.699,2.542s2.542-3.345,3.212-4.282
	c0.669-0.937,2.542-2.275,2.542-2.275s-0.535,4.55,0.268,12.713c0.803,8.164,0.803,11.375,0.803,14.721s0,15.791,0.937,18.735
	c0.937,2.944,0.535,6.022,1.472,6.424c0.937,0.401,9.636-1.74,12.981-1.338c3.346,0.401,11.107,0,15.39,0.669
	c4.282,0.669,11.241-0.401,13.517-0.938c2.275-0.534,8.565-0.534,8.565-0.534s0.134-5.621-0.134-7.896s-0.268-6.825-1.472-10.438
	s-2.275-6.29-3.479-9.101c-1.205-2.81,0-5.219,0-6.825s-1.472-4.952-0.937-5.754c0.535-0.803,6.825-1.071,8.565-2.275
	c1.74-1.205,8.699-6.424,8.699-6.424s-2.275-7.495-3.211-11.375c-0.937-3.881-4.952-8.966-6.692-11.241
	c-1.739-2.275-10.037-6.156-12.044-7.227c-2.007-1.07-3.747-1.472-4.55-2.542c-0.803-1.071-4.684-4.148-5.621-5.889
	c-0.937-1.739-13.115-1.338-14.052-1.338C144.874,90.113,141.261,90.648,141.127,90.648z"/>
<path fill-rule="evenodd" clip-rule="evenodd" fill="#5A6169" stroke="#000000" stroke-width="1.0001" stroke-linecap="round" stroke-miterlimit="2.6131" d="
	M159.193,57.058c-0.203-0.018-2.37-1.95-4.148-1.874c-0.032,0.001-2.36-1.112-3.346-1.07c-1.687,0.072-4.944-1.34-7.896,0.635
	c-0.925,0.619-5.754,2.814-5.754,4.718c-0.058,0.016-0.412,0.531-0.535,0.669c-3.99,5.237-3.767,12.19-4.428,18.503
	c-0.32,3.057-0.254,6.946-1.572,9.903c-0.438,0.984,1.02,4.186-1.541,7.024c-0.032,0.036-2.833,3.971-1.694,2.967
	c3.342-2.947-0.647,3.215-0.803,4.294c-0.333,2.314-1.74,4.809-1.74,7.896c0.026-0.028,3.278-8.214,4.137-8.385
	c0.421-0.084-0.123,13.604-0.123,14.542c1.413-2.827,3.576-11.34,3.893-4.294c0.005,0.115,0.919,2.012,1.193,0.948
	c1.538-5.978,0.554-5.127,3.177-10.671c0.394-0.832,3.113-12.708,3.113-12.882c0.268,1.111,2.365,0.259,4.55,1.426
	c1.935,1.034,11.407,0.252,12.213,4.126c1.554,7.469,5.53,4.172,0.088,13.084c-2.23,3.653-2.141,5.766,0.313-0.134
	c0.142-0.342,3.831-4.022,4.103-3.613c2.304,3.466-0.805,8.65-1.629,13.149c-1.128,6.162,0.972,3.825,0.972,7.292
	c1.209-4.885,2.801-8.01,3.846-12.748c0.854-3.87-0.086-10.946,1.071-13.75c0.065-0.159-1.292-11.226-0.669-13.563
	c0.813-3.051-2.238-23.172-5.017-25.951C160.448,58.779,159.777,57.756,159.193,57.058z"/>
<path fill-rule="evenodd" clip-rule="evenodd" fill="#BC988D" stroke="#000000" stroke-width="1.0001" stroke-linecap="round" stroke-miterlimit="2.6131" d="
	M141.395,90.515c0.456,1.008,5.001,5.979,6.156,5.889c0.313,1.217,3.081,2.327,3.747,0.401c0.328,0,6.703-4.966,7.315-5.9
	c1.042-1.59-0.373-1.916,1.151-5.609c3.159-7.658,3.057-18.548-3.147-25.125c-3.105-3.292-7.716-5.752-12.289-2.757
	c-0.273,0.179-1.227,0.985-1.193,1.384c-0.259,0-0.821,1.075-0.803,1.473c-2.275,3.881-4.015,6.557-3.881,10.974
	c-1.572,3.308,0.924,6.206-0.803,6.726c-1.614,0.486-2.174,5.452,1.874,5.452c0.915,0,1.606,3.864,1.606,4.55
	C141.256,87.972,141.395,90.31,141.395,90.515z"/>
<path fill-rule="evenodd" clip-rule="evenodd" fill="none" stroke="#000000" stroke-width="1.0001" stroke-linecap="round" stroke-miterlimit="2.6131" d="
	M143,87.972c3.185,2.787,4.742,3.897,9.1,3.345c2.337-0.295,5.061-2.907,7.093-4.416"/>
<path fill-rule="evenodd" clip-rule="evenodd" fill="none" stroke="#000000" stroke-width="1.0001" stroke-linecap="round" stroke-miterlimit="2.6131" d="
	M142.231,70.875c0.905-0.644,3.285-0.94,4.282-0.736"/>
<path fill-rule="evenodd" clip-rule="evenodd" fill="none" stroke="#000000" stroke-width="1.0001" stroke-linecap="round" stroke-miterlimit="2.6131" d="
	M153.472,69.671c1.533-0.4,1.982,0.201,3.011,0.201"/>
<path fill-rule="evenodd" clip-rule="evenodd" fill="none" stroke="#000000" stroke-width="1.0001" stroke-linecap="round" stroke-miterlimit="2.6131" d="
	M142.231,73.686c0.692-0.692,1.391-1.205,2.409-1.205c0-0.522,1.865,0.334,1.874,0.334c0.028,0.08,0.53,0.585,0.603,0.602"/>
<path fill-rule="evenodd" clip-rule="evenodd" fill="none" stroke="#000000" stroke-width="1.0001" stroke-linecap="round" stroke-miterlimit="2.6131" d="
	M143.904,72.749c-0.173,1.792,1.874,0.726,1.874,0.334V72.95"/>
<path fill-rule="evenodd" clip-rule="evenodd" fill="none" stroke="#000000" stroke-width="1.0001" stroke-linecap="round" stroke-miterlimit="2.6131" d="
	M152.603,72.883c0.876-0.904,2.311-1.53,3.546-1.021c0.384,0.158,1.73,0.42,1.673,1.155"/>
<path fill-rule="evenodd" clip-rule="evenodd" fill="none" stroke="#000000" stroke-width="1.0001" stroke-linecap="round" stroke-miterlimit="2.6131" d="
	M154.075,71.946c-0.927,1.567,1.94,0.917,1.94,0.602c0-0.257,0.053-0.299-0.067-0.468"/>
<path fill-rule="evenodd" clip-rule="evenodd" fill="none" stroke="#000000" stroke-width="1.0001" stroke-linecap="round" stroke-miterlimit="2.6131" d="
	M147.25,78.303c-0.771,0.441-0.223,1.467,0.954,0.753c0.168-0.102,0.792,0.134,0.986,0.184"/>
<path fill-rule="evenodd" clip-rule="evenodd" fill="none" stroke="#000000" stroke-width="1.0001" stroke-linecap="round" stroke-miterlimit="2.6131" d="
	M151.398,79.106c0.399-0.013,2.27,0.545,1.388-1.321c-0.131-0.276-0.647-0.349-0.937-1.539l-0.117-0.285"/>
<path fill-rule="evenodd" clip-rule="evenodd" fill="none" stroke="#000000" stroke-width="1.0001" stroke-linecap="round" stroke-miterlimit="2.6131" d="
	M145.577,83.322c1.261-1.018,3.528-1.338,4.952-1.338c0,0.082,1.676-0.523,2.292-0.084c0.046,0.033,1.875,0.804,2.258,1.088"/>
<path fill-rule="evenodd" clip-rule="evenodd" fill="none" stroke="#000000" stroke-width="1.0001" stroke-linecap="round" stroke-miterlimit="2.6131" d="
	M146.045,84.526c1.247,1.33,3.994,1.112,5.542,0.792c0.008-0.04,2.147-0.672,2.554-0.725"/>
<path fill-rule="evenodd" clip-rule="evenodd" fill="none" stroke="#000000" stroke-width="1.0001" stroke-linecap="round" stroke-miterlimit="2.6131" d="
	M146.848,83.991c1.267,0.79,5.098-0.021,6.485-0.378c0.191-0.05,0.196-0.063,0.407-0.09"/>
<path fill-rule="evenodd" clip-rule="evenodd" fill="none" stroke="#000000" stroke-width="1.0001" stroke-linecap="round" stroke-miterlimit="2.6131" d="
	M145.108,80.578c-0.655,0.273-0.911,2.092-0.669,2.677"/>
<path fill-rule="evenodd" clip-rule="evenodd" fill="none" stroke="#000000" stroke-width="1.0001" stroke-linecap="round" stroke-miterlimit="2.6131" d="
	M155.012,79.708c1.38,0.769,1.516,1.424,1.338,2.81"/>
<path fill-rule="evenodd" clip-rule="evenodd" fill="none" stroke="#000000" stroke-width="1.0001" stroke-linecap="round" stroke-miterlimit="2.6131" d="
	M146.848,74.154c-0.425-0.091-1.507-0.033-1.807,0.268"/>
<path fill-rule="evenodd" clip-rule="evenodd" fill="none" stroke="#000000" stroke-width="1.0001" stroke-linecap="round" stroke-miterlimit="2.6131" d="
	M154.208,73.619c1.02,0,0.926-0.331,2.275,0.201"/>
<path fill-rule="evenodd" clip-rule="evenodd" fill="none" stroke="#000000" stroke-width="1.0001" stroke-linecap="round" stroke-miterlimit="2.6131" d="
	M138.517,100.485c1.002,3.212-0.696,3.422,4.382,0.902c0.109-0.055,1.891-0.993,1.908-1.036c0.359,0.028,3.06-1.778,3.881-2.008"/>
<path fill-rule="evenodd" clip-rule="evenodd" fill="none" stroke="#000000" stroke-width="1.0001" stroke-linecap="round" stroke-miterlimit="2.6131" d="
	M150.963,98.745c1.188,0.963,6.903,6.468,6.905,6.424c0.004-0.088,1.58-2.657,1.793-2.944"/>
<path fill-rule="evenodd" clip-rule="evenodd" fill="#2E2F44" stroke="#000000" stroke-width="1.0001" stroke-linecap="round" stroke-miterlimit="2.6131" d="
	M143.603,101.555c2.124,6.005,3.104,5.244-0.046,11.911c-1.601,3.389-1.694,5.754-1.828,7.093c-0.134,1.338-1.07,5.085-1.338,13.382
	c-0.268,8.297-0.803,13.918-1.071,19.271c-0.268,5.353-1.071,9.635-1.071,13.248c0,3.614-1.07,7.629-0.535,8.967
	s6.825,7.494,6.825,7.494l8.699-8.564c0,0-1.071-4.55-1.338-6.825s0.669-10.84,0.401-15.257c-0.268-4.416-0.267-11.509-0.401-14.854
	c-0.134-3.346,0-15.524,0-16.862c0-1.338,0-4.283-0.669-6.156c-0.669-1.874-2.007-4.818-1.874-6.29s0-4.818,1.338-5.487
	c1.338-0.669,2.944-1.205,2.944-1.205l-2.676-1.07c-0.803-0.134-3.748-1.071-3.748-1.071L143.603,101.555z"/>
<path fill-rule="evenodd" clip-rule="evenodd" fill="#BC988D" stroke="#000000" stroke-width="1.0001" stroke-linecap="round" stroke-miterlimit="2.6131" d="
	M111.618,131.934c-0.268,2.007-0.536,4.283,0,5.487c0.535,1.205,4.55,5.353,6.959,7.495c2.409,2.141,9.368,6.022,9.368,6.022
	l-0.669-10.974c0,0-2.141-1.071-3.212-2.944s-2.141-2.677-2.81-2.677C120.584,134.343,111.752,132.068,111.618,131.934z"/>
<path fill-rule="evenodd" clip-rule="evenodd" fill="none" stroke="#000000" stroke-width="1.0001" stroke-linecap="round" stroke-miterlimit="2.6131" d="
	M169.966,125.376c1.504,2.94,1.441,6.773,3.445,9.938c0.068,0.108,1.309,2.793,1.373,3.043l0.268,0.134"/>
<path fill-rule="evenodd" clip-rule="evenodd" fill="none" stroke="#000000" stroke-width="1.0001" stroke-linecap="round" stroke-miterlimit="2.6131" d="
	M178.264,136.886c1.649-1.083,3.998-2.091,5.755-2.543"/>
<path fill-rule="evenodd" clip-rule="evenodd" fill="#BC988D" stroke="#000000" stroke-width="1.0001" stroke-linecap="round" stroke-miterlimit="2.6131" d="
	M188.435,132.67c0.741,2.748,1.858,9.214,1.74,11.977c-0.104,2.422,0.247,0.88-3.089,2.898c-4.627,2.8-6.753,2.94-10.962,4.841
	c-1.495,0.675-0.402-5.928-0.402-7.337c0.704,0-0.5-2.033-0.111-2.264c2.271-1.345,8.02-4.352,8.81-6.045
	c0.836-1.794-1.385-0.595,2.665-3.247C187.444,133.259,188.371,132.432,188.435,132.67z"/>
<path fill-rule="evenodd" clip-rule="evenodd" fill="none" stroke="#000000" stroke-width="1.0001" stroke-linecap="round" stroke-miterlimit="2.6131" d="
	M293.618,53.004c-0.792,3.327-1.585,4.119-4.753,5.703s-10.613,2.852-14.731,5.861c-4.118,3.01-7.286,4.911-9.821,10.297
	c-2.534,5.386-6.494,12.039-6.97,15.365c-0.475,3.327-2.376,5.861-1.426,6.495c0.951,0.633,6.653,2.693,9.346,5.544
	c2.693,2.852,10.297,4.911,10.297,4.911s2.692,3.643,1.426,9.821c-1.268,6.178-3.644,12.989-3.327,17.425
	c0.317,4.436,1.901,5.861,1.109,11.088s-2.692,12.355-1.426,13.781c1.268,1.426,8.554,3.961,14.257,5.069
	c5.702,1.109,12.514,1.901,18.217,2.535c5.702,0.633,15.364,0.791,19.325,0.158c3.96-0.634,7.287,0.476,7.762-0.792
	c0.476-1.268,1.426-12.04,1.901-14.416c0.475-2.375,0.95-13.306,0.95-13.306l-0.158-10.93c0,0-3.01-6.495-3.485-9.98
	c-0.476-3.485-0.634-5.386-0.476-7.287c0.159-1.901,0.476-6.653,0.476-6.653s-0.158,3.96,0.634,3.96s6.97-0.476,9.821-1.584
	c2.852-1.108,12.355-5.861,12.355-5.861s-2.852-4.277-5.069-11.88s-7.444-15.207-7.92-18.533c-0.475-3.327-3.802-6.02-6.653-7.445
	c-2.851-1.426-10.771-2.218-12.355-3.802s-2.534-1.584-4.118-3.327c-1.584-1.742-1.743-6.177-2.693-6.019
	c-0.95,0.158-21.701,3.801-21.701,3.801"/>
<path fill-rule="evenodd" clip-rule="evenodd" fill="#D3AFA9" stroke="#000000" stroke-width="1.0001" stroke-linecap="round" stroke-miterlimit="2.6131" d="
	M287.36,28.53c0.6,5.533-0.101,10.523,2.257,16.236c0.872,2.114,0.564,3.659,2.376,5.544c0.624,0.65,2.048,3.145,3.367,3.485
	c0,0.396,5.882,3.124,6.336,4.435c3.421,0.586-0.034,4.314,7.341-2.322c4.628-4.163,5.971-4.767,7.866-10.839
	c2.622-8.396,1.075-22.746-8.753-26.164c-6.81-2.368-11.76,1.261-17.239,4.911C289.648,24.657,287.25,27.513,287.36,28.53z"/>
<path fill-rule="evenodd" clip-rule="evenodd" fill="#7B695D" stroke="#000000" stroke-width="1.0001" stroke-linecap="round" stroke-miterlimit="2.6131" d="
	M308.983,10.868c-1.675-0.104-3.941-4.016-10.572-0.593c-0.032,0.017-4.523,0.137-6.495,1.915c-0.005,0.004-1.003,0.341-1.019,0.339
	l0.186,0.398c-5.819,2.193-8.396,14.548-8.396,20.104c0,4.508,3.804,9.333,6.44,12.424c0.697,0.817-4.11-11.918-2.598-15.578
	c1.018-2.462-0.705-2.666,3.245-5.44c0.573-0.402,2.216,4.109,5.427,4.503c0.901,0.111,2.376,2.239,2.376-2.231
	c4.331,0.885-0.543,4.465,7.549-3.223c1.881-1.786-0.427,1.732,3.856,2.259c1.631,0.201,8.783,5.938,9.346,8.567
	c0.5,2.335,0.997,7.652,3.761,3.974c3.114-4.144,0.419-8.453,0.186-13.121c-0.071-1.423-4.481-10.791-7.114-11.115
	C314.575,13.978,310.438,11.382,308.983,10.868z"/>
<path fill-rule="evenodd" clip-rule="evenodd" fill="none" stroke="#000000" stroke-width="1.0001" stroke-linecap="round" stroke-miterlimit="2.6131" d="
	M298.37,47.935c1.872-0.54,5.669-0.117,5.86-0.95c0.623,0,0.276-0.026,0.792-0.158"/>
<path fill-rule="evenodd" clip-rule="evenodd" fill="none" stroke="#000000" stroke-width="1.0001" stroke-linecap="round" stroke-miterlimit="2.6131" d="
	M289.657,33.52c4.441-2.394,6.621-0.877,7.287-1.267"/>
<path fill-rule="evenodd" clip-rule="evenodd" fill="none" stroke="#000000" stroke-width="1.0001" stroke-linecap="round" stroke-miterlimit="2.6131" d="
	M305.34,30.985c1.356-0.933,3.805-1.195,5.386-1.742"/>
<path fill-rule="evenodd" clip-rule="evenodd" fill="none" stroke="#000000" stroke-width="1.0001" stroke-linecap="round" stroke-miterlimit="2.6131" d="
	M291.717,36.371c0.979-2.599,4.096-0.961,4.752-0.792"/>
<path fill-rule="evenodd" clip-rule="evenodd" fill="none" stroke="#000000" stroke-width="1.0001" stroke-linecap="round" stroke-miterlimit="2.6131" d="
	M304.706,33.995c1.377-3.045,4.749-0.475,4.753-0.475"/>
<path fill-rule="evenodd" clip-rule="evenodd" fill="none" stroke="#000000" stroke-width="1.0001" stroke-linecap="round" stroke-miterlimit="2.6131" d="
	M293.935,35.421c-2.425,1.784,1.149,0.571,1.426,0.476"/>
<path fill-rule="evenodd" clip-rule="evenodd" fill="none" stroke="#000000" stroke-width="1.0001" stroke-linecap="round" stroke-miterlimit="2.6131" d="
	M306.607,33.203c-0.534,0.839-0.036,1.644,0.95,0.317"/>
<path fill-rule="evenodd" clip-rule="evenodd" fill="none" stroke="#000000" stroke-width="1.0001" stroke-linecap="round" stroke-miterlimit="2.6131" d="
	M298.37,41.282c-1.737,3.034,4.403,0.822,5.86,0.317c0-0.866-0.095-0.468-0.316-1.108"/>
<path fill-rule="evenodd" clip-rule="evenodd" fill="none" stroke="#000000" stroke-width="1.0001" stroke-linecap="round" stroke-miterlimit="2.6131" d="
	M301.222,56.172c2.873,0.896,2.99-0.633,5.86-0.633"/>
<path fill-rule="evenodd" clip-rule="evenodd" fill="none" stroke="#000000" stroke-width="1.0001" stroke-linecap="round" stroke-miterlimit="2.6131" d="
	M291.4,58.707c0.574,0.612,4.019,6.864,3.96,7.604c3.22-1.913,3.045-2.253,5.702-4.911"/>
<path fill-rule="evenodd" clip-rule="evenodd" fill="none" stroke="#000000" stroke-width="1.0001" stroke-linecap="round" stroke-miterlimit="2.6131" d="
	M306.448,59.815c2.375,2.166,6.152,7.74,7.749,5.558c1.202-1.644,4.601-6.209,5.399-7.617"/>
<path fill-rule="evenodd" clip-rule="evenodd" fill="#254045" stroke="#000000" stroke-width="1.0001" stroke-linecap="round" stroke-miterlimit="2.6131" d="
	M301.222,62.271c0.149,2.675,4.846,5.18,3.326,6.574c-6.014,5.519-7.193,28.112-8.595,35.8c-0.348,1.904-2.329,16.037-1.543,16.791
	c0.798,0.766,4.662,8.077,4.697,8.038c1.888-2.094,2.901-5.571,6.391-7.762c3.521-2.212,1.204-5.087,1.702-10.654
	c0.53-5.938-0.487-15.49,0.62-21.498c0.556-3.016,3.768-26.893,0.054-26.893c-0.952,0-5.77,0.629-6.295-0.384
	C301.521,62.277,301.222,62.272,301.222,62.271z"/>
<path fill-rule="evenodd" clip-rule="evenodd" fill="none" stroke="#000000" stroke-width="1.0001" stroke-linecap="round" stroke-miterlimit="2.6131" d="
	M308.191,69.478c-0.822-0.496-0.986-0.722-1.901-0.792"/>
<path fill-rule="evenodd" clip-rule="evenodd" fill="none" stroke="#000000" stroke-width="1.0001" stroke-linecap="round" stroke-miterlimit="2.6131" d="
	M333.378,87.22c0.38,6.554-1.504,10.799-1.28,13.822c0.149,2.03,0.171,2.291,0.171,4.395"/>
<path fill-rule="evenodd" clip-rule="evenodd" fill="none" stroke="#000000" stroke-width="1.0001" stroke-linecap="round" stroke-miterlimit="2.6131" d="
	M278.569,88.962c-0.106,1.79-0.631,10.753-1.227,12.197c-0.586,1.421-0.516,5.38-0.516,7.128"/>
<path fill-rule="evenodd" clip-rule="evenodd" fill="#D3AFA9" stroke="#000000" stroke-width="1.0001" stroke-linecap="round" stroke-miterlimit="2.6131" d="
	M334.565,107.733c-0.382,2.834,1.554,7.844-1.043,10.851c-1.039,1.204,2.548,8.188,2.548,13.265c0,1.954-2.254,15.027,0.924,7.762
	c1.198-2.74,8.311-15.364,10.165-17.859c4.485-6.037,2.229-19.619,0.475-18.072C344.154,106.752,334.773,106.188,334.565,107.733z"
	/>
<path fill-rule="evenodd" clip-rule="evenodd" fill="#D3AFA9" stroke="#000000" stroke-width="1.0001" stroke-linecap="round" stroke-miterlimit="2.6131" d="
	M265.976,102.664c-0.885,2.308-1.877,16.821-0.237,19.762c1.2,2.152,5.39,12.769,6.97,13.424c1.23,0.51,0.188,3.5-0.158-4.593
	c-0.122-2.861,4.816-14.385,3.63-15.827c-2.859-3.476,3.637-7.055-4.277-9.201c-0.361-0.098-2.161-1.083-2.204-1.267
	c-0.825,0-2.251-1.901-3.326-1.901L265.976,102.664z"/>
<path fill-rule="evenodd" clip-rule="evenodd" fill="#62606F" stroke="#000000" stroke-width="1.0001" stroke-linecap="round" stroke-miterlimit="2.6131" d="
	M274.451,160.245c-0.317,9.346-2.693,15.999-1.901,28.038s-0.634,23.761,0.634,31.839c1.268,8.079-0.158,15.049,0.475,21.385
	c0.635,6.337,0.159,9.188,0.159,13.94s0,9.029,0.792,10.454c0.792,1.426-4.119,2.376-2.693,5.228s1.426,3.485,3.802,3.327
	c2.376-0.159,9.346-1.584,12.514-2.06c3.169-0.476,6.812-0.95,6.812-0.95s0.634-3.96,1.743-5.703
	c1.108-1.742,3.01-4.118,3.168-8.871c0.158-4.752-1.426-19.008-1.426-22.018s-0.158-7.762,0.95-11.405
	c1.109-3.644,3.01-29.939,3.01-29.939s0,19.644-0.316,24.712c-0.317,5.068-2.693,11.405-1.742,18.059
	c0.95,6.652,3.01,15.999,2.218,20.117c-0.793,4.118-3.327,4.752-2.218,7.604c1.108,2.852,3.643,8.554,4.752,9.662
	c1.108,1.109,3.168-1.267,4.91-2.851c1.743-1.584,6.495-3.168,8.237-2.852s4.752,2.693,4.752,2.693l2.06-7.762
	c0,0,1.901-1.426,3.326-3.803c1.426-2.376,2.218-5.068,2.218-9.028s-1.901-18.217-1.742-21.068
	c0.158-2.852,0.158-16.315,0.317-22.969c0.158-6.653,0.316-15.524,1.425-19.326c1.109-3.801,1.109-11.088,1.268-12.989
	c0.158-1.9,1.584-5.068,0.95-6.019c-0.634-0.951-14.891,0.633-19.167-0.159s-23.444-2.376-26.296-3.168
	C284.589,163.571,273.976,160.562,274.451,160.245z"/>
<path fill-rule="evenodd" clip-rule="evenodd" fill="none" stroke="#000000" stroke-width="1.0001" stroke-linecap="round" stroke-miterlimit="2.6131" d="
	M303.28,177.194c0.109,3.157-0.475,8.962-0.475,13.044c0,1.703-0.187,3.669-0.158,5.173"/>
<path fill-rule="evenodd" clip-rule="evenodd" fill="#191818" stroke="#000000" stroke-width="1.0001" stroke-linecap="round" stroke-miterlimit="2.6131" d="
	M277.064,274.772c-0.343,0.786-1.759,8.348-1.587,8.554c-0.421,0.506-0.677,4.926,1.35,4.752c0,0.473,10.946,3.008,13.147,2.101
	c5.614-2.315,3.04-11.22,4.448-17.452c0.364-1.611-1.229-0.068-3.656-0.172c-0.637-0.027-2.127,0.634-3.168,0.634
	C287.599,273.231,277.071,274.757,277.064,274.772z"/>
<path fill-rule="evenodd" clip-rule="evenodd" fill="none" stroke="#000000" stroke-width="1.0001" stroke-linecap="round" stroke-miterlimit="2.6131" d="
	M276.668,285.702c3.744-0.362,3.228,1.59,10.809,0.557l0.597-0.081"/>
<path fill-rule="evenodd" clip-rule="evenodd" fill="#191818" stroke="#000000" stroke-width="1.0001" stroke-linecap="round" stroke-miterlimit="2.6131" d="
	M305.895,274.297c0.188,4.192-1.478,5.555,1.663,6.997c6.463,2.97,0.52,8.052,9.188,8.052c3.794,0,17.188-0.605,11.776-7.327
	c-0.215-0.268-5.118-9.467-5.137-9.622c-0.489-3.974-6.673-4.042-9.808-3.657C309.624,269.226,305.894,274.277,305.895,274.297z"/>
<path fill-rule="evenodd" clip-rule="evenodd" fill="none" stroke="#000000" stroke-width="1.0001" stroke-linecap="round" stroke-miterlimit="2.6131" d="
	M311.835,284.594c7.489,2.163,4.393-2.049,12.871-0.503c0.378,0.069,2.912-0.411,3.603-0.131"/>
<path fill-rule="evenodd" clip-rule="evenodd" fill="none" stroke="#000000" stroke-width="1.0001" stroke-linecap="round" stroke-miterlimit="2.6131" d="
	M274.371,267.565c6.184-0.457,2.176-1.568,10.057-0.924c0.011,0.001,0.915-0.027,1.032-0.027"/>
<path fill-rule="evenodd" clip-rule="evenodd" fill="none" stroke="#000000" stroke-width="1.0001" stroke-linecap="round" stroke-miterlimit="2.6131" d="
	M312.706,262.813c2.954,0.261,8.571,1.901,9.504,1.901"/>
<path fill-rule="evenodd" clip-rule="evenodd" fill="none" stroke="#000000" stroke-width="1.0001" stroke-linecap="round" stroke-miterlimit="2.6131" d="
	M327.279,225.745c-1.179,4.021-0.73,12.777-2.852,19.326"/>
<path fill-rule="evenodd" clip-rule="evenodd" fill="#271A1C" stroke="#000000" stroke-width="1.0001" stroke-linecap="round" stroke-miterlimit="2.6131" d="
	M200.316,166.265c-0.95,5.702-1.267,8.554-2.217,17.425c-0.951,8.87-1.109,11.722-1.743,15.207
	c-0.634,3.484-2.376,7.603-1.743,8.712c0.634,1.108,6.02,3.802,10.138,4.436c4.118,0.633,7.762,0.792,8.871,2.059
	c1.109,1.268,0.316,1.585,3.802,1.109c3.485-0.476,13.148,0.158,18.692-0.316c5.544-0.476,10.771-0.476,13.306-0.793
	c2.535-0.316,5.07-0.316,6.178-1.426c1.108-1.108,3.326-2.218,3.326-2.218s-1.742-7.604-2.852-10.93
	c-1.108-3.326-4.436-12.197-4.752-17.266c-0.316-5.069-2.059-11.405-2.217-13.307c-0.159-1.9-9.98-1.742-13.148-1.742
	c-3.168,0-19.643-1.109-23.919-1.901S200.158,166.105,200.316,166.265z"/>
<path fill-rule="evenodd" clip-rule="evenodd" fill="#DFC1BC" stroke="#000000" stroke-width="1.0001" stroke-linecap="round" stroke-miterlimit="2.6131" d="
	M206.019,212.519c0,4.436,0.633,7.445,0.317,11.405c-0.317,3.96-2.376,7.287-0.475,13.94c1.901,6.652,1.425,11.246,2.217,14.414
	c0.792,3.169,12.356,2.852,12.356,2.852s-0.95-2.059-0.633-4.276c0.316-2.218,1.742-6.336,1.583-9.505
	c-0.158-3.168-1.426-6.495-1.108-9.663c0.317-3.168,1.425-10.138,1.742-11.405c0.317-1.267,0.951-3.168,0.634-4.118
	s-6.812-0.475-7.92-0.95c-1.109-0.476-2.217-2.376-3.327-2.218C210.296,213.152,205.861,212.36,206.019,212.519z"/>
<path fill-rule="evenodd" clip-rule="evenodd" fill="#DFC1BC" stroke="#000000" stroke-width="1.0001" stroke-linecap="round" stroke-miterlimit="2.6131" d="
	M225.028,215.687c0.158,3.01,0.475,5.386,1.426,10.771c0.951,5.387-1.426,12.989-0.792,16.633c0.633,3.644-0.317,4.277,0.475,5.545
	c0.792,1.267,9.663,3.643,10.771,3.643c1.109,0,1.584-1.584,1.901-3.643c0.317-2.06,1.584-8.396,2.218-11.089
	c0.634-2.692-0.317-10.297-0.317-13.465s0.317-8.87,0.317-8.87s-8.079,0.158-10.138,0
	C228.83,215.053,224.395,215.37,225.028,215.687z"/>
<path fill-rule="evenodd" clip-rule="evenodd" fill="#191C21" stroke="#000000" stroke-width="1.0001" stroke-linecap="round" stroke-miterlimit="2.6131" d="
	M207.762,251.962c1.108,5.702,1.426,7.128,2.693,12.831c1.267,5.702,0.95,9.662,1.425,12.989c0.476,3.326,6.97,0.792,8.554,1.108
	c1.584,0.317,2.693-0.158,4.911-0.95c2.217-0.792,10.137-2.06,10.137-2.06s-1.268-4.593-0.95-6.019
	c0.317-1.426,1.268-8.237,2.218-10.455c0.951-2.218,2.534-9.346,2.376-10.138c-0.158-0.793-5.228-1.268-6.653-1.901
	c-1.426-0.634-6.495-0.792-6.495-0.792s-0.475,0.634,0.159,6.336c0.633,5.703,1.267,8.079,0,12.989
	c-1.267,4.911-2.06,7.128-1.901,8.396s-1.109,3.485-1.109,3.485s-1.426-3.802-1.267-5.069c0.158-1.268-1.426-5.068-1.426-7.762
	s0.317-13.781,0.317-13.781s-3.327,0.158-5.386,0S208.87,251.17,207.762,251.962z"/>
<path fill-rule="evenodd" clip-rule="evenodd" fill="#625D59" stroke="#000000" stroke-width="1.0001" stroke-linecap="round" stroke-miterlimit="2.6131" d="
	M213.939,278.099c-0.282,0.158-2.451,1.038-2.692,0.95c-3.397,1.417-1.268,9.452-1.268,12.039c0.301,0,1.374,2.819,2.852,2.693
	c0,0.478,9.707,3.134,11.446,0.792c2.596-3.496-1.028-3.376,3.603-1.467c2.014,0.831,9.961,0.463,10.6-3.299
	c0.883-5.202-0.961-8.95-2.362-14.401c-1.494-0.519-10.382-1.602-11.288-0.159c-2.245,3.577-0.622,4.904-2.969,3.327
	C219.709,277.129,215.74,277.433,213.939,278.099z"/>
<path fill-rule="evenodd" clip-rule="evenodd" fill="none" stroke="#000000" stroke-width="1.0001" stroke-linecap="round" stroke-miterlimit="2.6131" d="
	M223.919,279.366c0.207,2.066,2.016,7.036,1.598,8.988c0.595,0.167-0.171,2.608-0.171,3.209"/>
<path fill-rule="evenodd" clip-rule="evenodd" fill="none" stroke="#000000" stroke-width="1.0001" stroke-linecap="round" stroke-miterlimit="2.6131" d="
	M211.247,288.712c6.023,1.685,1.676,2.362,9.979,1.901"/>
<path fill-rule="evenodd" clip-rule="evenodd" fill="none" stroke="#000000" stroke-width="1.0001" stroke-linecap="round" stroke-miterlimit="2.6131" d="
	M227.563,288.396c3.254-0.082,5.135,0.788,8.712-2.06"/>
<path fill-rule="evenodd" clip-rule="evenodd" fill="none" stroke="#000000" stroke-width="1.0001" stroke-linecap="round" stroke-miterlimit="2.6131" d="
	M220.593,189.233c-1.673,5.629-2.674,14.29-5.282,19.47c-0.359,0.714-0.674,3.983-1.213,4.607"/>
<path fill-rule="evenodd" clip-rule="evenodd" fill="none" stroke="#000000" stroke-width="1.0001" stroke-linecap="round" stroke-miterlimit="2.6131" d="
	M227.404,201.431c0.309,1.495,0.301,12.496,0.316,12.514"/>
<path fill-rule="evenodd" clip-rule="evenodd" fill="none" stroke="#000000" stroke-width="1.0001" stroke-linecap="round" stroke-miterlimit="2.6131" d="
	M242.294,179.254c-0.061,2.593,2.062,25.908,3.064,29.621c0.16,0.59,0.124,2.432,0.421,2.852"/>
<path fill-rule="evenodd" clip-rule="evenodd" fill="none" stroke="#000000" stroke-width="1.0001" stroke-linecap="round" stroke-miterlimit="2.6131" d="
	M211.88,171.333c-2.184,3.546-5.754,11.47-4.792,15.683c0.248,1.084-2.334,9.037-2.811,10.138"/>
<path fill-rule="evenodd" clip-rule="evenodd" fill="#FFFFFF" stroke="#000000" stroke-width="1.0001" stroke-linecap="round" stroke-miterlimit="2.6131" d="
	M218.533,81.833c-2.376,4.277-4.119,5.703-6.653,6.97c-2.534,1.267-6.336,4.435-9.821,5.861s-7.762,9.98-8.871,15.682
	c-1.109,5.703-3.644,8.079-2.06,10.772c1.584,2.693,4.118,5.702,5.703,5.702c1.584,0,4.119,11.089,4.277,14.574
	c0.159,3.485,0.317,12.673-0.158,16.949c-0.475,4.277-3.01,8.555-3.01,8.555s12.039-1.109,15.366,0.158
	c3.326,1.267,8.395,2.851,12.514,3.01c4.118,0.158,15.366,0.158,18.375-0.634s7.128-2.219,7.444-3.01
	c0.317-0.792-0.95-5.386-1.425-7.921c-0.475-2.534-3.327-8.712-2.534-11.405c0.792-2.693,2.059-12.198,2.376-13.623
	s1.109-0.95,3.96-2.06c2.852-1.109,9.188-2.376,8.554-7.128s-3.169-15.207-3.644-17.9s-0.317-6.02-3.485-7.92
	s-9.662-6.495-12.038-8.237c-2.376-1.743-1.742-4.753-3.802-5.228c-2.059-0.475-10.93-0.316-13.306-0.633
	C223.919,84.051,218.375,81.992,218.533,81.833z"/>
<path fill-rule="evenodd" clip-rule="evenodd" fill="#29211D" stroke="#000000" stroke-width="1.0001" stroke-linecap="round" stroke-miterlimit="2.6131" d="
	M226.533,46.667c-2.891-0.78-7.251,2.74-9.095,4.911c-0.368,0.434-2.146,2.843-2.389,3.01c0.011,0.128-5.899,14.553-4.689,19.525
	c0.163,0.669,0.137,8.937,0.095,8.988c0.052,0.011,0.504,4.216,0.751,4.911c1.137,3.194,4.168-4.594,7.961-4.594
	c0-0.053,2.236-0.664,2.376-0.751c1.798-1.129,7.597,0.846,10.573,0.751c10.382-0.331,9.371,6.519,12.713,5.426
	c6.707-2.192,4.189-10.724,3.168-16.316c-1.438-7.876-2.426-15.795-9.188-21.095c-5.981-4.688-3.684-4.119-12.025-4.435
	C226.583,46.991,226.63,46.694,226.533,46.667z"/>
<path fill-rule="evenodd" clip-rule="evenodd" fill="#DFC1BC" stroke="#000000" stroke-width="1.0001" stroke-linecap="round" stroke-miterlimit="2.6131" d="
	M239.601,77.082c0-1.902,3.592,2.682,4.739-6.653c0.726-5.908-1.887-2.581-1.887-3.091c0-0.52-2.168-0.552-2.218-0.552
	c0-0.166-4.522-2.925-4.911-4.436c-0.725,0.058-1.502-2.177-4.436-2.217c-1.937-0.027-8.264-4.075-8.712-6.812
	c-2.195,1.511-7.479,13.895-6.653,17.108c-5.332-3.96-1.594,10.901,0.765,5.386c0.37-0.864,0.676,4.752,2.72,4.752
	c0,5.347,6.435,5.566,6.812,7.762c0.247,0.085,3.254,5.826,3.906,6.693c0.678,0.903,0.156,3.577,1.928-1.004
	c0.889-2.298-1.118-2.746,4.187-5.966c4.325-2.625-2.168-3.306,3.603-10.653L239.601,77.082z"/>
<path fill-rule="evenodd" clip-rule="evenodd" fill="none" stroke="#000000" stroke-width="1.0001" stroke-linecap="round" stroke-miterlimit="2.6131" d="
	M220.751,81.992c4.822,2.762,4.701,2.63,9.979,1.742c0.65-0.109,3.859-1.736,3.96-2.376"/>
<path fill-rule="evenodd" clip-rule="evenodd" fill="none" stroke="#000000" stroke-width="1.0001" stroke-linecap="round" stroke-miterlimit="2.6131" d="
	M224.395,61.558c-2.816-1.273-3.336-1.837-6.02,0.634"/>
<path fill-rule="evenodd" clip-rule="evenodd" fill="none" stroke="#000000" stroke-width="1.0001" stroke-linecap="round" stroke-miterlimit="2.6131" d="
	M224.395,64.567c-2.011-1.254-3.625-0.253-4.436-0.317c0,0.206-0.31,0.155-0.476,0.634"/>
<path fill-rule="evenodd" clip-rule="evenodd" fill="none" stroke="#000000" stroke-width="1.0001" stroke-linecap="round" stroke-miterlimit="2.6131" d="
	M223.285,64.409c-1.188,1.491-1.345,0.509-1.901,0.317"/>
<path fill-rule="evenodd" clip-rule="evenodd" fill="none" stroke="#000000" stroke-width="1.0001" stroke-linecap="round" stroke-miterlimit="2.6131" d="
	M230.73,65.359c1.9-1.368,2.37-0.887,2.851-1.109c0.407,0.337,2.264,0.326,2.535,1.109"/>
<path fill-rule="evenodd" clip-rule="evenodd" fill="none" stroke="#000000" stroke-width="1.0001" stroke-linecap="round" stroke-miterlimit="2.6131" d="
	M232.513,64.924c1.258,1.578,1.262,0.355,2.218,0.238"/>
<path fill-rule="evenodd" clip-rule="evenodd" fill="none" stroke="#000000" stroke-width="1.0001" stroke-linecap="round" stroke-miterlimit="2.6131" d="
	M225.384,69.914c-0.487,1.564,0.938,0.916,1.347,0.713"/>
<path fill-rule="evenodd" clip-rule="evenodd" fill="none" stroke="#000000" stroke-width="1.0001" stroke-linecap="round" stroke-miterlimit="2.6131" d="
	M230.058,70.151c0,1.029-0.309,0.475-1.03,0.475"/>
<path fill-rule="evenodd" clip-rule="evenodd" fill="none" stroke="#000000" stroke-width="1.0001" stroke-linecap="round" stroke-miterlimit="2.6131" d="
	M222.612,75.141c1.762-0.662,5.695-1.696,7.287-0.844c0.999,0.535,1.307,0.771,2.297,1.557"/>
<path fill-rule="evenodd" clip-rule="evenodd" fill="none" stroke="#000000" stroke-width="1.0001" stroke-linecap="round" stroke-miterlimit="2.6131" d="
	M224.909,76.725c2.557,0.18,1.572,1.141,5.228,0.237"/>
<path fill-rule="evenodd" clip-rule="evenodd" fill="none" stroke="#000000" stroke-width="1.0001" stroke-linecap="round" stroke-miterlimit="2.6131" d="
	M221.464,87.141c-1.66,1.306-7.491,6.67-7.617,3.114c-0.016-0.446,0.015-0.662-0.304-1.055"/>
<path fill-rule="evenodd" clip-rule="evenodd" fill="none" stroke="#000000" stroke-width="1.0001" stroke-linecap="round" stroke-miterlimit="2.6131" d="
	M237.463,88.725c3.772,2.369,1.319,2.71,7.604,4.752"/>
<path fill-rule="evenodd" clip-rule="evenodd" fill="none" stroke="#000000" stroke-width="1.0001" stroke-linecap="round" stroke-miterlimit="2.6131" d="
	M226.058,104.09c-1.22,4.286-1.109,6.993-1.109,11.406"/>
<path fill-rule="evenodd" clip-rule="evenodd" fill="#DFC1BC" stroke="#000000" stroke-width="1.0001" stroke-linecap="round" stroke-miterlimit="2.6131" d="
	M198.97,121.99c-1.134-0.649-0.716-0.871-1.267-0.158c0,4.013,0.353,17.248,1.783,19.602c3.661,6.027,19.877-4.345,22.399-7.3
	c0.019-0.021,6.585-1.789,5.902-3.381c0.031,0.025,3.376-0.085,3.064-0.842c-1.376-3.335,1.104-0.963-2.788-4.856
	c-6.419-6.42-2.063-0.921-7.074-2.326c-3.103-0.87-1.639,4.197-4.277,5.164c-1.896,0.696-1.17,3.899-6.957,2.48
	c-1.105-0.271,0.615-3.776-1.281-4.264c-0.418-0.107-3.027-2.387-5.241-2.838c-0.664-0.135-2.351-0.964-3.947-0.964
	C199.198,121.922,199.159,122.157,198.97,121.99z"/>
<path fill-rule="evenodd" clip-rule="evenodd" fill="none" stroke="#000000" stroke-width="1.0001" stroke-linecap="round" stroke-miterlimit="2.6131" d="
	M208.474,130.544c-2.118-0.592-5.204-1.405-7.128,0"/>
<path fill-rule="evenodd" clip-rule="evenodd" fill="#DFC1BC" stroke="#000000" stroke-width="1.0001" stroke-linecap="round" stroke-miterlimit="2.6131" d="
	M241.502,125.554c-0.037,0.037-4.635,15.123-5.995,17.662c-2.596,4.852-2.414,13.534-7.749,9.242
	c-3.32-2.671,0.478,6.352,2.259,6.282c3.187-0.126,3.433,1.622,9.518,1.095c6.019-0.521-2.453-3.511,8.699-4.408
	c5.18-0.416,3.237-3.352-2.177-3.022c-6.159,0.374,1.023-2.542,2.534-9.161c0.959-4.205,2.904-4.436,2.652-10.323
	c-0.025-0.587,1.742-7.084,1.742-8.712c-0.07,0,0.217-0.81-2.059-0.62c-2.748,0.229-5.96,0.087-8.066,1.466
	C242.529,125.272,242.035,125.021,241.502,125.554z"/>
<path fill-rule="evenodd" clip-rule="evenodd" fill="none" stroke="#000000" stroke-width="1.0001" stroke-linecap="round" stroke-miterlimit="2.6131" d="
	M233.661,153.513c3.086,8.772,2.049-0.036,3.603-3.802c0.899-2.181,1.512,6.836,3.684-0.978c0.687-2.467,1.108,2.352,1.109,2.417
	c0.008,0.893-0.418,7.999-0.633,8.54"/>
</svg>
