<?xml version="1.0" encoding="utf-8"?>
<!-- Generator: Adobe Illustrator 16.0.0, SVG Export Plug-In . SVG Version: 6.00 Build 0)  -->
<!DOCTYPE svg PUBLIC "-//W3C//DTD SVG 1.1//EN" "http://www.w3.org/Graphics/SVG/1.1/DTD/svg11.dtd">
<svg version="1.1" id="Layer_1" xmlns="http://www.w3.org/2000/svg" xmlns:xlink="http://www.w3.org/1999/xlink" x="0px" y="0px"
	 width="20px" height="20px" viewBox="0 0 20 20" enable-background="new 0 0 20 20" xml:space="preserve">
<g>
	<polygon fill-rule="evenodd" clip-rule="evenodd" fill="#2C3E50" points="17.8,13.137 17.8,14.618 17.777,14.834 17.737,15.055 
		17.686,15.27 17.609,15.486 17.518,15.703 17.402,15.916 17.27,16.129 17.12,16.337 16.943,16.544 16.754,16.749 16.547,16.945 
		16.317,17.136 16.08,17.316 15.833,17.489 15.568,17.651 15.29,17.806 15.004,17.952 14.704,18.087 14.396,18.216 14.078,18.334 
		13.754,18.44 13.419,18.547 13.078,18.635 12.729,18.713 12.377,18.785 12.02,18.846 11.653,18.899 11.288,18.938 10.915,18.97 
		10.543,18.988 10.168,19 9.791,18.996 9.414,18.988 9.038,18.966 8.66,18.934 8.286,18.89 7.911,18.838 7.541,18.771 7.174,18.697 
		6.813,18.608 6.454,18.507 6.101,18.396 5.759,18.273 5.431,18.146 5.118,18.009 4.82,17.862 4.536,17.712 4.27,17.549 
		4.016,17.385 3.78,17.212 3.557,17.033 3.353,16.851 3.163,16.664 2.991,16.472 2.834,16.275 2.695,16.072 2.574,15.87 
		2.468,15.663 2.38,15.452 2.31,15.239 2.257,15.027 2.222,14.811 2.204,14.594 2.204,13.112 2.222,13.329 2.257,13.544 
		2.31,13.759 2.38,13.97 2.468,14.183 2.574,14.389 2.695,14.592 2.834,14.792 2.991,14.991 3.163,15.184 3.353,15.372 
		3.557,15.555 3.78,15.731 4.016,15.904 4.27,16.07 4.536,16.229 4.82,16.382 5.118,16.528 5.431,16.664 5.759,16.795 6.101,16.915 
		6.454,17.025 6.813,17.124 7.174,17.212 7.541,17.29 7.911,17.356 8.286,17.409 8.66,17.453 9.038,17.483 9.414,17.505 
		9.791,17.518 10.168,17.518 10.543,17.505 10.915,17.487 11.288,17.455 11.653,17.415 12.02,17.364 12.377,17.303 12.729,17.232 
		13.078,17.154 13.419,17.063 13.754,16.961 14.078,16.853 14.396,16.734 14.704,16.606 15.004,16.47 15.29,16.325 15.568,16.171 
		15.833,16.006 16.08,15.836 16.317,15.655 16.547,15.465 16.754,15.266 16.943,15.063 17.12,14.856 17.27,14.647 17.402,14.436 
		17.518,14.223 17.609,14.006 17.686,13.789 17.737,13.572 17.777,13.355 	"/>
	<path fill-rule="evenodd" clip-rule="evenodd" fill="#34485C" d="M6.101,16.915c-3.729-1.244-5.008-3.997-2.854-6.15
		C5.4,8.612,10.17,7.873,13.897,9.116c3.734,1.244,5.009,3.999,2.856,6.149C14.601,17.421,9.831,18.159,6.101,16.915z"/>
	<path fill-rule="evenodd" clip-rule="evenodd" fill="#C43E3F" d="M10.263,12.95l5.158,1.72c0.046,0.014,0.095,0.016,0.144,0.008
		c0.048-0.008,0.088-0.026,0.11-0.052c0.313-0.367,0.507-0.749,0.595-1.134c0.11-0.476,0.048-0.961-0.164-1.423
		c-0.211-0.459-0.581-0.895-1.09-1.277c-0.49-0.369-1.111-0.688-1.854-0.938c-0.742-0.247-1.534-0.398-2.334-0.458
		c-0.686-0.053-1.38-0.037-2.05,0.04c-0.05,0.004-0.09,0.02-0.119,0.046C8.629,9.508,8.625,9.535,8.636,9.566l1.543,3.319
		C10.192,12.914,10.221,12.935,10.263,12.95z"/>
	<polygon fill-rule="evenodd" clip-rule="evenodd" fill="#E74C3C" points="8.629,0.976 8.629,9.533 8.631,9.544 8.633,9.553 
		8.636,9.563 10.179,12.886 10.184,12.896 10.192,12.906 10.199,12.914 10.209,12.924 10.221,12.933 10.234,12.938 10.247,12.942 
		10.263,12.95 15.421,14.67 15.438,14.674 15.454,14.678 15.474,14.68 15.491,14.682 15.509,14.682 15.529,14.682 15.546,14.682 
		15.564,14.678 15.586,14.676 15.6,14.67 15.612,14.664 15.63,14.658 15.644,14.651 15.656,14.642 15.665,14.634 15.675,14.626 
		15.7,14.592 15.731,14.558 15.763,14.521 15.789,14.489 15.811,14.453 15.837,14.417 15.864,14.383 15.886,14.347 15.912,14.314 
		15.935,14.276 15.956,14.244 15.975,14.206 16.001,14.172 16.019,14.136 16.036,14.102 16.054,14.068 16.07,14.029 16.093,13.998 
		16.105,13.96 16.124,13.924 16.142,13.89 16.159,13.854 16.168,13.815 16.187,13.781 16.194,13.745 16.207,13.711 16.222,13.673 
		16.229,13.637 16.243,13.603 16.251,13.566 16.261,13.53 16.27,13.492 16.27,4.935 16.261,4.972 16.251,5.007 16.243,5.043 
		16.229,5.078 16.222,5.116 16.207,5.151 16.194,5.186 16.187,5.224 16.168,5.259 16.159,5.294 16.142,5.33 16.124,5.365 
		16.105,5.402 16.093,5.438 16.07,5.473 16.054,5.508 16.036,5.543 16.019,5.581 16.001,5.614 15.975,5.649 15.956,5.684 
		15.935,5.72 15.912,5.755 15.886,5.79 15.864,5.826 15.837,5.861 15.811,5.894 15.789,5.929 15.763,5.964 15.731,5.997 15.7,6.033 
		15.675,6.068 15.665,6.077 15.656,6.085 15.644,6.092 15.63,6.101 15.612,6.107 15.6,6.112 15.586,6.117 15.564,6.121 
		15.546,6.123 15.529,6.125 15.509,6.125 15.491,6.125 15.474,6.123 15.454,6.119 15.438,6.114 15.421,6.11 10.263,4.393 
		10.247,4.386 10.234,4.379 10.221,4.373 10.209,4.366 10.199,4.355 10.192,4.346 10.184,4.338 10.179,4.329 8.636,1.007 
		8.633,0.996 8.631,0.985 	"/>
	<polygon fill-rule="evenodd" clip-rule="evenodd" fill="#943B3B" points="8.629,0.976 8.629,9.533 8.631,9.544 8.633,9.553 
		8.636,9.563 10.179,12.886 10.179,4.329 8.636,1.007 8.633,0.996 8.631,0.985 	"/>
	<polygon fill-rule="evenodd" clip-rule="evenodd" fill="#C43E3F" points="16.27,4.935 16.27,13.492 16.278,13.448 16.287,13.403 
		16.296,13.359 16.301,13.313 16.31,13.27 16.313,13.226 16.317,13.179 16.317,13.135 16.322,13.089 16.326,13.045 16.326,12.998 
		16.326,4.441 16.326,4.487 16.322,4.531 16.317,4.576 16.317,4.622 16.313,4.666 16.31,4.71 16.301,4.756 16.296,4.8 16.287,4.847 
		16.278,4.891 	"/>
	<polygon fill-rule="evenodd" clip-rule="evenodd" fill="#BF4A3D" points="10.263,4.393 15.421,6.11 15.438,6.114 15.454,6.119 
		15.474,6.123 15.491,6.125 15.509,6.125 15.529,6.125 15.546,6.123 15.564,6.121 15.586,6.117 15.6,6.112 15.612,6.107 
		15.63,6.101 15.644,6.092 15.656,6.085 15.665,6.077 15.675,6.068 15.7,6.033 15.731,5.997 15.763,5.964 15.789,5.929 
		15.811,5.894 15.837,5.861 15.864,5.826 15.886,5.79 15.912,5.755 15.935,5.72 15.956,5.684 15.975,5.649 16.001,5.614 
		16.019,5.581 16.036,5.543 16.054,5.508 16.07,5.473 16.093,5.438 16.105,5.402 16.124,5.365 16.142,5.33 16.159,5.294 
		16.168,5.259 16.187,5.224 16.194,5.186 16.207,5.151 16.222,5.116 16.229,5.078 16.243,5.043 16.251,5.007 16.261,4.972 
		16.27,4.935 16.278,4.891 16.287,4.847 16.296,4.8 16.301,4.756 16.31,4.71 16.313,4.666 16.317,4.622 16.317,4.576 16.322,4.531 
		16.326,4.487 16.326,4.441 16.322,4.397 16.317,4.353 16.317,4.307 16.313,4.262 16.31,4.218 16.301,4.172 16.296,4.128 
		16.292,4.084 16.282,4.038 16.273,3.996 16.261,3.949 16.247,3.908 16.238,3.861 16.222,3.819 16.212,3.773 16.194,3.731 
		16.177,3.687 16.164,3.643 16.142,3.599 16.124,3.557 16.105,3.513 16.089,3.471 16.062,3.427 16.045,3.385 16.019,3.341 
		15.991,3.299 15.97,3.257 15.943,3.213 15.916,3.173 15.891,3.132 15.859,3.09 15.833,3.048 15.802,3.006 15.771,2.966 
		15.735,2.925 15.706,2.885 15.675,2.845 15.64,2.803 15.604,2.764 15.564,2.724 15.529,2.687 15.491,2.646 15.452,2.609 
		15.412,2.569 15.37,2.532 15.33,2.493 15.286,2.455 15.244,2.417 15.2,2.38 15.156,2.343 15.109,2.305 15.063,2.27 15.016,2.234 
		14.969,2.199 14.923,2.164 14.874,2.131 14.826,2.098 14.777,2.065 14.727,2.032 14.675,1.999 14.625,1.968 14.572,1.935 
		14.517,1.904 14.465,1.873 14.409,1.842 14.354,1.812 14.299,1.78 14.242,1.75 14.185,1.719 14.124,1.69 14.065,1.662 
		14.006,1.633 13.944,1.604 13.885,1.578 13.822,1.549 13.758,1.522 13.695,1.496 13.631,1.47 13.566,1.443 13.5,1.417 
		13.436,1.395 13.366,1.369 13.298,1.344 13.229,1.32 13.161,1.296 13.091,1.273 13.02,1.251 12.949,1.229 12.879,1.208 
		12.812,1.188 12.738,1.168 12.668,1.148 12.595,1.128 12.522,1.11 12.452,1.093 12.379,1.077 12.307,1.058 12.233,1.042 
		12.161,1.026 12.088,1.013 12.016,0.998 11.942,0.983 11.867,0.969 11.795,0.956 11.722,0.945 11.647,0.932 11.572,0.92 
		11.497,0.912 11.425,0.901 11.35,0.89 11.274,0.881 11.202,0.873 11.127,0.866 11.052,0.857 10.977,0.85 10.902,0.844 
		10.827,0.837 10.763,0.833 10.699,0.83 10.635,0.826 10.569,0.822 10.505,0.817 10.441,0.815 10.375,0.813 10.311,0.811 
		10.247,0.811 10.184,0.808 10.12,0.806 10.056,0.806 9.989,0.806 9.925,0.806 9.861,0.806 9.795,0.808 9.731,0.811 9.667,0.813 
		9.604,0.815 9.54,0.817 9.476,0.819 9.412,0.824 9.348,0.826 9.284,0.83 9.22,0.835 9.158,0.841 9.095,0.846 9.03,0.85 
		8.967,0.857 8.902,0.863 8.841,0.87 8.777,0.877 8.759,0.879 8.742,0.883 8.727,0.888 8.711,0.892 8.695,0.899 8.682,0.908 
		8.669,0.914 8.658,0.923 8.649,0.934 8.643,0.945 8.636,0.954 8.633,0.963 8.629,0.976 8.631,0.985 8.633,0.996 8.636,1.007 
		10.179,4.329 10.184,4.338 10.192,4.346 10.199,4.355 10.209,4.366 10.221,4.373 10.234,4.379 10.247,4.386 	"/>
	<path fill-rule="evenodd" clip-rule="evenodd" fill="#E6EAEB" d="M6.48,16.046c-1.228-0.473-2.173-1.195-2.585-2.086
		c-0.223-0.476-0.271-0.958-0.166-1.419c0.218-0.958,1.096-1.833,2.425-2.424c0.531-0.234,1.137-0.426,1.803-0.556
		c0.05-0.011,0.099-0.009,0.146,0.007C8.149,9.581,8.178,9.606,8.19,9.634l1.543,3.322c0.013,0.026,0.007,0.055-0.017,0.08
		l-2.979,2.979c-0.026,0.023-0.065,0.042-0.117,0.048C6.57,16.068,6.522,16.064,6.48,16.046z"/>
	<polygon fill-rule="evenodd" clip-rule="evenodd" fill="#2C3E50" points="6.621,9.76 6.621,16.063 6.604,16.064 6.584,16.064 
		6.566,16.064 6.548,16.064 6.531,16.061 6.513,16.059 6.496,16.053 6.48,16.046 6.366,16.002 6.253,15.954 6.143,15.908 
		6.033,15.857 5.927,15.806 5.821,15.753 5.718,15.701 5.616,15.646 5.517,15.589 5.42,15.53 5.323,15.471 5.232,15.412 5.14,15.35 
		5.052,15.288 4.966,15.224 4.882,15.157 4.801,15.093 4.721,15.023 4.644,14.955 4.569,14.887 4.499,14.814 4.43,14.744 
		4.362,14.67 4.3,14.594 4.238,14.52 4.181,14.441 4.126,14.365 4.073,14.284 4.022,14.206 3.979,14.124 3.934,14.044 3.895,13.96 
		3.875,13.915 3.855,13.871 3.837,13.825 3.819,13.781 3.802,13.737 3.786,13.692 3.773,13.646 3.76,13.603 3.747,13.557 
		3.735,13.512 3.727,13.468 3.716,13.422 3.709,13.378 3.701,13.334 3.694,13.289 3.689,13.245 3.685,13.199 3.681,13.155 
		3.678,13.11 3.676,13.066 3.676,13.022 3.676,12.979 3.676,6.674 3.676,6.718 3.676,6.762 3.678,6.806 3.681,6.851 3.685,6.896 
		3.689,6.94 3.694,6.985 3.701,7.029 3.709,7.075 3.716,7.119 3.727,7.164 3.735,7.208 3.747,7.254 3.76,7.298 3.773,7.342 
		3.786,7.388 3.802,7.432 3.819,7.477 3.837,7.522 3.855,7.567 3.875,7.611 3.895,7.657 3.934,7.739 3.979,7.82 4.022,7.902 
		4.073,7.981 4.126,8.061 4.181,8.138 4.238,8.215 4.3,8.292 4.362,8.365 4.43,8.438 4.499,8.51 4.569,8.581 4.644,8.651 
		4.721,8.722 4.801,8.788 4.882,8.856 4.966,8.92 5.052,8.984 5.14,9.048 5.232,9.11 5.323,9.169 5.42,9.227 5.517,9.286 
		5.616,9.341 5.718,9.396 5.821,9.451 5.927,9.502 6.033,9.553 6.143,9.604 6.253,9.652 6.366,9.698 6.48,9.745 6.496,9.749 
		6.513,9.753 6.531,9.758 6.548,9.76 6.566,9.762 6.584,9.762 6.604,9.76 	"/>
	<polygon fill-rule="evenodd" clip-rule="evenodd" fill="#3D566E" points="9.74,6.683 9.74,12.986 9.738,12.996 9.733,13.007 
		9.731,13.019 9.723,13.026 9.716,13.036 6.738,16.015 6.727,16.021 6.716,16.03 6.703,16.038 6.69,16.044 6.674,16.051 
		6.659,16.057 6.641,16.061 6.621,16.063 6.621,9.76 6.641,9.756 6.659,9.751 6.674,9.747 6.69,9.74 6.703,9.734 6.716,9.727 
		6.727,9.718 6.738,9.709 9.716,6.731 9.723,6.723 9.731,6.711 9.733,6.703 9.738,6.692 	"/>
	<polygon fill-rule="evenodd" clip-rule="evenodd" fill="#34485C" points="6.48,9.745 6.366,9.698 6.253,9.652 6.143,9.604 
		6.033,9.553 5.927,9.502 5.821,9.451 5.718,9.396 5.616,9.341 5.517,9.286 5.42,9.227 5.323,9.169 5.232,9.11 5.14,9.048 
		5.052,8.984 4.966,8.92 4.882,8.856 4.801,8.788 4.721,8.722 4.644,8.651 4.569,8.581 4.499,8.51 4.43,8.438 4.362,8.365 
		4.3,8.292 4.238,8.215 4.181,8.138 4.126,8.061 4.073,7.981 4.022,7.902 3.979,7.82 3.934,7.739 3.895,7.657 3.875,7.611 
		3.855,7.567 3.837,7.522 3.819,7.477 3.802,7.432 3.786,7.388 3.773,7.342 3.76,7.298 3.747,7.254 3.735,7.208 3.727,7.164 
		3.716,7.119 3.709,7.075 3.701,7.029 3.694,6.985 3.689,6.94 3.685,6.896 3.681,6.851 3.678,6.806 3.676,6.762 3.676,6.718 
		3.676,6.674 3.678,6.63 3.681,6.586 3.683,6.542 3.688,6.498 3.692,6.456 3.696,6.412 3.705,6.368 3.711,6.324 3.721,6.282 
		3.729,6.237 3.751,6.147 3.778,6.059 3.808,5.968 3.841,5.881 3.881,5.794 3.921,5.708 3.965,5.62 4.014,5.537 4.066,5.453 
		4.121,5.369 4.179,5.287 4.243,5.204 4.309,5.124 4.377,5.043 4.45,4.966 4.525,4.886 4.604,4.809 4.686,4.734 4.772,4.659 
		4.86,4.586 4.951,4.514 5.045,4.443 5.144,4.375 5.244,4.307 5.347,4.24 5.455,4.174 5.563,4.11 5.675,4.049 5.79,3.987 
		5.909,3.927 6.031,3.87 6.154,3.815 6.203,3.791 6.253,3.771 6.304,3.749 6.354,3.727 6.407,3.707 6.46,3.687 6.513,3.667 
		6.566,3.646 6.619,3.628 6.672,3.608 6.727,3.588 6.782,3.568 6.837,3.551 6.893,3.531 6.95,3.513 7.005,3.496 7.062,3.48 
		7.12,3.462 7.174,3.447 7.234,3.429 7.291,3.414 7.351,3.398 7.411,3.383 7.47,3.368 7.529,3.352 7.589,3.337 7.651,3.323 
		7.71,3.311 7.772,3.297 7.833,3.282 7.895,3.271 7.957,3.257 7.977,3.255 7.995,3.253 8.012,3.253 8.032,3.253 8.05,3.255 
		8.067,3.255 8.085,3.26 8.103,3.264 8.118,3.271 8.133,3.277 8.146,3.284 8.16,3.29 8.171,3.299 8.178,3.311 8.186,3.319 
		8.19,3.33 9.733,6.652 9.738,6.663 9.74,6.672 9.74,6.683 9.738,6.692 9.733,6.703 9.731,6.711 9.723,6.723 9.716,6.731 
		6.738,9.709 6.727,9.718 6.716,9.727 6.703,9.734 6.69,9.74 6.674,9.747 6.659,9.751 6.641,9.756 6.621,9.76 6.604,9.76 
		6.584,9.762 6.566,9.762 6.548,9.76 6.531,9.758 6.513,9.753 6.496,9.749 	"/>
	<path fill-rule="evenodd" clip-rule="evenodd" fill="#E6EAEB" d="M15.181,15.107l0.037-0.03l0.037-0.034l0.012-0.008l0.007-0.008
		l0.004-0.013l0.005-0.008l0.002-0.01v-0.01v-4.033v0.011l-0.002,0.009l-0.005,0.011l-0.004,0.009l-0.007,0.008l-0.012,0.009
		l-0.037,0.033l-0.037,0.031c-0.694,0.571-1.521,0.935-2.386,1.184c-1.794,0.5-3.778,0.508-5.581,0l-0.018-0.004l-0.015-0.008
		l-0.013-0.006l-0.013-0.006l-0.011-0.011l-0.009-0.008l-0.009-0.012L7.12,12.195l-0.004-0.008l-0.002-0.012l-0.002-0.01v4.031
		l0.002,0.01l0.002,0.01l0.004,0.012l0.006,0.011l0.009,0.008l0.009,0.012l0.011,0.008l0.013,0.007l0.013,0.008l0.015,0.006
		l0.018,0.004c1.803,0.508,3.787,0.5,5.581,0C13.66,16.04,14.486,15.677,15.181,15.107z"/>
	<polygon fill-rule="evenodd" clip-rule="evenodd" fill="#BDBDBD" points="9.998,9.253 7.137,12.113 7.128,12.124 7.122,12.134 
		7.117,12.144 7.113,12.153 7.11,12.166 7.113,12.176 7.115,12.188 7.12,12.195 7.126,12.206 7.135,12.218 7.144,12.226 
		7.155,12.236 7.168,12.242 7.181,12.248 7.196,12.256 7.214,12.26 7.271,12.278 7.333,12.292 7.393,12.309 7.452,12.324 
		7.512,12.338 7.571,12.354 7.633,12.37 7.692,12.383 7.754,12.396 7.814,12.41 7.875,12.423 7.935,12.435 7.997,12.446 
		8.058,12.459 8.121,12.471 8.182,12.48 8.244,12.491 8.303,12.501 8.365,12.511 8.426,12.519 8.488,12.529 8.55,12.537 
		8.611,12.547 8.676,12.555 8.737,12.561 8.799,12.569 8.861,12.575 8.922,12.581 8.986,12.589 9.048,12.593 9.11,12.599 
		9.174,12.604 9.251,12.611 9.328,12.615 9.405,12.619 9.485,12.623 9.562,12.625 9.641,12.629 9.716,12.633 9.795,12.633 
		9.873,12.635 9.952,12.635 10.027,12.635 10.106,12.635 10.184,12.633 10.26,12.633 10.337,12.629 10.415,12.625 10.494,12.623 
		10.569,12.621 10.646,12.615 10.726,12.611 10.803,12.605 10.88,12.599 10.955,12.593 11.031,12.585 11.107,12.577 11.184,12.571 
		11.259,12.561 11.336,12.553 11.411,12.541 11.486,12.531 11.562,12.522 11.637,12.511 11.711,12.499 11.784,12.484 11.859,12.473 
		11.934,12.459 12.007,12.444 12.081,12.433 12.154,12.417 12.225,12.4 12.298,12.385 12.37,12.368 12.441,12.353 12.514,12.334 
		12.583,12.314 12.654,12.298 12.725,12.278 12.795,12.26 12.863,12.238 12.933,12.218 13.003,12.198 13.069,12.176 13.138,12.153 
		13.203,12.132 13.271,12.107 13.338,12.085 13.404,12.062 13.471,12.037 13.533,12.014 13.598,11.987 13.662,11.959 13.727,11.933 
		13.789,11.907 13.852,11.881 13.901,11.858 13.951,11.837 13.999,11.813 14.05,11.788 14.099,11.767 14.146,11.742 14.195,11.717 
		14.242,11.693 14.29,11.669 14.336,11.642 14.38,11.616 14.427,11.592 14.473,11.565 14.517,11.54 14.563,11.513 14.607,11.485 
		14.651,11.457 14.695,11.432 14.737,11.402 14.779,11.373 14.823,11.345 14.863,11.317 14.905,11.288 14.945,11.259 14.986,11.23 
		15.026,11.199 15.065,11.168 15.105,11.139 15.143,11.106 15.181,11.076 15.218,11.045 15.255,11.012 15.267,11.003 15.273,10.995 
		15.277,10.986 15.282,10.975 15.284,10.966 15.284,10.955 15.284,10.946 15.282,10.935 15.275,10.925 15.27,10.915 15.26,10.907 
		15.251,10.897 15.24,10.891 15.229,10.884 15.214,10.877 15.198,10.871 10.234,9.216 10.201,9.209 10.168,9.203 10.135,9.203 
		10.104,9.207 10.073,9.213 10.044,9.222 10.018,9.238 	"/>
	<polygon fill-rule="evenodd" clip-rule="evenodd" fill="#943B3B" points="15.656,14.644 15.656,14.642 15.665,14.634 
		15.675,14.626 15.7,14.592 15.731,14.558 15.763,14.521 15.789,14.489 15.811,14.453 15.837,14.417 15.864,14.383 15.886,14.347 
		15.912,14.314 15.935,14.276 15.956,14.244 15.975,14.206 16.001,14.172 16.019,14.136 16.036,14.102 16.054,14.068 16.07,14.029 
		16.093,13.998 16.105,13.96 16.124,13.924 16.142,13.89 16.159,13.854 16.168,13.815 16.187,13.781 16.194,13.745 16.207,13.711 
		16.222,13.673 16.229,13.637 16.243,13.603 16.251,13.566 16.261,13.53 16.27,13.492 16.27,4.935 16.261,4.972 16.251,5.007 
		16.243,5.043 16.229,5.078 16.222,5.116 16.207,5.151 16.194,5.186 16.187,5.224 16.168,5.259 16.159,5.294 16.142,5.33 
		16.124,5.365 16.105,5.402 16.093,5.438 16.07,5.473 16.054,5.508 16.036,5.543 16.019,5.581 16.001,5.614 15.975,5.649 
		15.956,5.684 15.935,5.72 15.912,5.755 15.886,5.79 15.864,5.826 15.837,5.861 15.811,5.894 15.789,5.929 15.763,5.964 
		15.731,5.997 15.7,6.033 15.675,6.068 15.665,6.077 15.656,6.085 15.656,6.085 	"/>
</g>
</svg>
