<?xml version="1.0" encoding="utf-8"?>
<!-- Generator: Adobe Illustrator 17.0.0, SVG Export Plug-In . SVG Version: 6.00 Build 0)  -->
<!DOCTYPE svg PUBLIC "-//W3C//DTD SVG 1.1//EN" "http://www.w3.org/Graphics/SVG/1.1/DTD/svg11.dtd">
<svg version="1.1" id="Layer_1" xmlns="http://www.w3.org/2000/svg" xmlns:xlink="http://www.w3.org/1999/xlink" x="0px" y="0px"
	 width="800px" height="600px" viewBox="0 0 800 600" enable-background="new 0 0 800 600" xml:space="preserve">
<g>
	<path d="M258.795,235.498c-10.956-19.428-30.559-42.677-38.6-61.633c7.352-6.032,7.177-15.521,5.619-20.169
		c2.704-3.721,9.504-14.413,14.54-16.417c2.169-0.859,3.62,0.838,6.107,1.691c2.476,0.848,6.754-4.431,4.649-9.563
		c-4.389-10.697-18.341-6.377-23.462,0.928c-3.387,4.829-4.919,10.023-6.085,15.42c-2.777-2.794-4.808-4.304-8.587-4.792
		c-1.018-6.859-1.956-23.615,3.425-31.742c4.93-7.453-9.526-11.746-12.399-2.231c-3.382,11.248,1.484,27.342,2.788,34.026
		c-1.999,0.096-3.133,0.308-5.036,0.906c-3.005-12.589-9.049-24.114-12.34-36.644c-2.173-8.312-14.636-3.287-11.513,7.177
		c3.117,10.464,13.019,21.601,17.588,32.351c-1.633,1.023-2.841,2.195-3.498,3.149c-0.08-0.074-6.653-5.693-9.918-8.349
		c-2.459-2.004-6.382-6.303-9.022-11.126c-1.261-2.296-4.389-3.864-6.811-3.202c-0.043,0.016-0.074,0.027-0.117,0.037
		c-3.117,0.864-5.704,4.05-4.734,7.421c3.387,11.863,26.382,21.421,26.568,21.495c-0.694,13.576,7.283,22.592,21.696,23.292
		c8.343,19.3,30.209,51.041,45.189,67.829C256.081,246.72,265.166,246.783,258.795,235.498z"/>
	<g>
		<g>
			<path d="M197.014,337.554c4.633-31.179,16.035-61.706,34.312-87.458c18.759-26.414,45.232-41.341,76.825-47.23
				c20.514-3.817,42.035-3.409,62.385,1.171c21.098,4.75,38.245,14.503,52.855,30.082c4.93-1.182,9.971,1.961,13.872,6.154
				c5.311-10.284,11.519-22.963,16.395-35.505c5.248-13.523,9.436-27.003,12.229-41.161c4.378-22.232,9.191-50.087-6.764-68.831
				c-3.859-0.79-10.549-2.386-10.188-7.644c0.207-3.138,6.79-5.481,11.545-5.868c4.129-0.339,11.301-1.044,15.881,2.47
				c4.569,3.515,12.298,18.404,12.945,33.867c14.53-14.599,46.944-12.881,64.532-8.954c12.303,2.736,24.363,7.193,35.043,13.904
				c13.666,8.598,23.372,21.887,27.284,29.637c-0.556,1.675-1.67,2.995-3.016,3.721c2.179,0.991,5.508,3.578,6.737,4.999
				c-0.874,1.018-2.29,2.088-3.255,2.491c3.356,4.325,8.339,9.44,10.406,14.688c-2.343,1.426-6.371,2.741-7.855,2.566
				c6.557,20.636,15.86,39.258,17.302,61.229c1.473,22.587-6.51,49.293-14.079,68.121c-4.33-16.045-15.028-30.087-29.701-38.722
				c-7.76-4.554-33.071-25.269-36.374-28.333c-0.997,1.272-3.547,3.435-5.02,3.833c-2.046-1.606-4.167-4.04-5.895-6.896
				c-0.747,1.134-1.998,2.348-2.926,2.703c-10.586-6.266-15.664-19.008-27.029-24.453c-10.612-5.083-28.704-21.574-34.492-40.387
				c-3.016,12.107-18.691,52.409-32.627,72.393c1.845,2.173,2.719,4.448,2.078,7.103c27.883,3.149,80.446,22.841,84.246,97.906
				c2.751,54.344-17.943,109.664-56.899,145.677c-28.693,26.52-63.784,42.057-102.867,45.905
				c-31.068,3.079-94.386-5.322-109.637-47.204c-10.962-3.764-36.735-25.529-40.912-31.318
				c-9.393-13.008-15.743-23.382-20.625-36.607C192.72,401.795,192.402,368.622,197.014,337.554z"/>
			<path fill="#9C9C61" d="M424.138,238.615c-2.836,3.795,0.917,9.499,4.591,14.254c3.673,4.755,6.17,7.018,11.174,7.978
				c5.004,0.954,8.927-2.926,6.499-7.511c-3.419,3.281-15.886-1.982-10.67-10.066C434.151,240.661,426.974,234.825,424.138,238.615z
				"/>
			<path fill="#878740" d="M432.227,249.015c-1.06-3.255-0.292-5.894,1.16-8.338c1.055,0.933,1.914,1.887,2.343,2.592
				c-5.173,8.02,7.023,13.252,10.57,10.135C445.468,261.927,433.775,253.716,432.227,249.015z"/>
			<path fill="#C8C68D" d="M453.181,87.345c-0.721,1.262,4.649,3.096,9.669,2.751c5.735-0.403,11.211-3.17,10.167-4.395
				C471.05,83.401,454.734,84.626,453.181,87.345z"/>
			<path fill="#86BC46" d="M492.338,189.683c7.676,11.466,16.825,18.961,28.28,26.313c4.102,2.64,18.807,19.178,21.765,21.946
				c0.801-0.339,2.947-2.041,3.711-3.175c1.532,2.248,3.35,5.884,5.539,7.612c1.219-0.626,3.515-3.356,4.395-4.861
				c13.22,12.505,28.01,22.269,42.809,32.642c9.78,6.865,19.327,15.569,23.832,26.632c4.676-18.166,9.648-36.072,8.943-55.155
				c-0.843-22.592-12.081-43.249-18.383-64.558c1.426,0.111,5.481-0.493,7.04-1.574c-2.693-4.156-6.489-9.038-9.732-11.922
				c0.7-0.419,2.655-2.158,3.456-2.878c-1.06-1.373-5.438-3.477-6.812-4.638c1.013-0.954,3.229-2.449,4.686-4.623
				c-3.366-6.016-9.992-15.038-18.404-21.643c-10.734-8.423-26.393-13.883-39.465-17.101c-15.034-3.694-30.575-3.525-45.778,0.339
				c-10.315,2.619-19.025,9.759-21.474,15.017c9.006,2.614,52.308,23.705,72.028,41.67c22.857,20.821,43.154,46.043,55.054,74.773
				c0.36,0.874-1.007,1.352-1.378,0.487c-21.892-51.381-92.017-102.353-134.492-114.015
				C477.236,153.69,485.156,178.927,492.338,189.683z"/>
			<path fill="#60A70C" d="M566.136,161.323c13.522,15.903,24.278,34.047,31.784,53.491c-10.988-16.666-24.543-31.783-39.146-45.089
				c-19.72-17.965-63.022-39.056-72.028-41.67c1.648-3.556,6.218-7.951,12.176-11.248
				C523.735,128.384,547.896,139.903,566.136,161.323z"/>
			<path fill="#60A70C" d="M500.724,184.737c13.692,15.214,30.655,26.997,42.439,43.96c0.652,0.943,2.253,0.657,2.427-0.515
				c1.257-8.089-1.537-15.722-4.845-23.016c4.823,4.686,9.52,9.727,13.098,15.272c3.403,5.274,6.011,11.148,10.829,15.335
				c0.689,0.599,2.141,0.259,2.199-0.779c0.323-5.582-0.424-10.893-1.484-16.247c10.411,14.244,17.106,31.333,30.4,43.282
				c7.326,6.594,14.026,12.87,18.468,21.611c-4.505-5.137-9.907-9.61-15.42-13.48c-14.799-10.374-29.589-20.137-42.809-32.642
				c-0.88,1.505-3.175,4.235-4.395,4.861c-2.189-1.728-4.007-5.365-5.539-7.612c-0.763,1.134-2.91,2.836-3.711,3.175
				c-2.958-2.767-17.662-19.306-21.765-21.946c-11.455-7.352-20.604-14.847-28.28-26.313c-6.69-10.024-14.026-32.621-14.408-54.042
				C480.645,154.13,488.002,170.584,500.724,184.737z"/>
			<path fill="#B3B061" d="M483.815,117.327c1.028-7.294-2.03-19.761-8.238-27.045c-2.47,1.961-7.834,4.055-11.307,4.076
				c4.993,6.727,8.767,20.186,9.86,28.317C477.316,124.796,482.977,119.919,483.815,117.327z"/>
			<path fill="#A59E44" d="M466.99,98.875c-0.853-1.696-1.76-3.229-2.719-4.517c3.472-0.021,8.836-2.115,11.307-4.076
				c0.859,1.012,1.643,2.131,2.38,3.313C475.37,96.627,471.289,98.365,466.99,98.875z"/>
			<path fill="#A59E44" d="M483.963,112.821c0.096,1.633,0.042,3.159-0.148,4.506c-0.838,2.592-6.499,7.469-9.685,5.348
				c-0.217-1.638-0.562-3.504-0.986-5.46C477.485,117.379,481.53,116.065,483.963,112.821z"/>
			<path fill="#B3CC61" d="M462.807,216.256c6.149-14.047,11.55-28.709,15.817-43.472c-1.431-4.448-5.168-20.111-5.921-35.781
				c-0.186,34.476-19.608,81.262-34.699,108.688c1.161,4.405,4.087,5.126,7.145,4.055
				C448.241,245.081,457.257,228.93,462.807,216.256z"/>
			<path fill="#9BB037" d="M476.563,179.468c-1.967-4.945-4.22-9.7-6.441-14.063c-0.223-0.429-0.445-0.874-0.679-1.33
				c2.004-9.446,3.218-18.627,3.26-27.071c0.753,15.669,4.49,31.333,5.921,35.781C477.973,175.01,477.257,177.242,476.563,179.468z"
				/>
			<path fill="#9BB037" d="M451.469,238.922c-2.682,4.893-5.025,8.863-6.319,10.825c-3.058,1.071-5.984,0.35-7.145-4.055
				c2.02-3.668,4.108-7.681,6.234-11.969C446.55,235.614,448.956,237.369,451.469,238.922z"/>
			<path fill="#990038" d="M369.354,460.008c21.797-18.394,51.28-32.86,80.562-29.409c22.29,2.635,38.049,17.297,41.108,37.424
				c-12.027,16.74-26.806,31.269-43.875,42.226c-26.875,17.264-57.355,26.435-89.509,24.702c-7.962-0.429-20.981-1.659-34.238-4.994
				C331.416,503.311,346.878,478.975,369.354,460.008z"/>
			<path fill="#BA295C" d="M433.711,456.61c-19.56,13.273-48.831,18.892-71.349,9.706c2.258-2.157,4.575-4.272,6.992-6.308
				c21.797-18.394,51.28-32.86,80.562-29.409c0.901,0.112,1.781,0.27,2.666,0.408C449.349,441.466,441.233,451.506,433.711,456.61z"
				/>
			<path fill="#730038" d="M341.18,491.771c18.982,9.827,45.964,10.241,65.847,5.078c26.456-6.849,59.131-33.183,72.027-52.727
				c6.324,6.35,10.543,14.519,11.969,23.901c-12.027,16.74-26.806,31.269-43.875,42.226c-26.875,17.264-57.355,26.435-89.509,24.702
				c-7.962-0.429-20.981-1.659-34.238-4.994C327.451,516.504,333.388,503.639,341.18,491.771z"/>
			<path fill="#711F6D" d="M235.27,263.491c17.445-27.803,42.37-45.115,74.816-51.147c36.396-6.775,82.253-2.104,111.471,23.196
				c-5.386,4.272,1.044,15.489,4.617,19.587c6.345,7.278,17.493,14.842,23.159,4.935c26.982,6.154,81.15,38.431,77.005,108.762
				c-1.988,33.745-13.698,67.728-32.998,95.886c-3.578-16.994-15.553-31.211-34.159-35.51c-30.092-6.986-62.576,5.455-86.154,24.018
				c-23.7,18.675-42.131,43.753-51.884,72.356c-0.403,1.166-0.747,2.327-1.113,3.493c-17.382-4.845-34.44-13.512-40.541-28.932
				c-7.612-19.284-5.879-48.407,1.41-77.074c4.585-18.039,11.376-35.903,19.401-51.005c10.851-20.419,26.764-41.325,45.953-59.433
				c17.296-16.332,39.518-34.471,56.994-44.766c1.039-0.604-3.843-1.866-14.19,4.686c-11.8,7.469-29.838,21.007-49.446,38.325
				c-18.898,16.682-32.892,36.873-44.983,58.998c-18.272,33.437-34.09,77.174-28.269,116.596
				c-25.116-13.326-39.804-33.665-44.087-41.611C193.129,390.727,203.433,314.257,235.27,263.491z"/>
			<path fill="#4A004A" d="M431.607,267.87c-5.789-3.319-10.607-8.28-14.784-13.433c-3.726-4.585-11.672-14.657-6.181-20.593
				c1.416-1.537,3.08-2.497,4.861-3.069c2.089,1.505,4.113,3.085,6.054,4.765c-5.386,4.272,1.044,15.489,4.617,19.587
				c6.345,7.278,17.493,14.842,23.159,4.935c0.202,0.031,0.414,0.106,0.615,0.159C451.225,270.207,438.715,271.936,431.607,267.87z"
				/>
			<path fill="#8F2B80" d="M373.027,453.218c-4.649,3.668-9.101,7.591-13.321,11.731c-11.259-10.962-1.723-38.553,39.067-55.972
				c12.414-5.306,38.108-12.287,48.932-1.924c6.112,5.852,7.294,13.437,5.646,21.039
				C424.944,423.852,395.095,435.853,373.027,453.218z"/>
			<path fill="#581458" d="M514.289,394.199c4.707-8.672,8.885-17.832,12.107-27.289c-0.027,0.647-0.021,1.262-0.058,1.914
				c-1.988,33.745-13.698,67.728-32.998,95.886c-1.977-9.35-6.494-17.848-13.257-24.331
				C493.462,426.613,505.097,411.177,514.289,394.199z"/>
			<path fill="#581458" d="M292.789,450.997c10.326,16.83,26.499,32.186,45.226,40.275c-7.002,10.66-12.733,22.157-16.872,34.301
				c-0.403,1.166-0.747,2.327-1.113,3.493c-17.382-4.845-34.492-13.491-40.541-28.932c-6.668-17.058-7.31-46.669,1.41-77.074
				C281.944,432.052,287.801,442.86,292.789,450.997z"/>
			<path fill="#581458" d="M236.542,411.151c27.75-12.223,37.249-34.551,42.173-63.207c2.656-15.452,5.1-47.771,20.711-63.705
				c12.001-12.255,61.616-18.585,83.657-7.745c-11.498,7.851-26.918,19.761-43.472,34.376
				c-18.898,16.682-32.892,36.873-44.983,58.998c-18.272,33.437-34.09,77.174-28.269,116.596
				c-25.116-13.326-39.804-33.665-44.087-41.611c-5.29-9.844-9.277-20.44-12.075-31.482
				C217.12,412.815,230.001,414.04,236.542,411.151z"/>
		</g>
		<path fill="#973989" d="M439.181,281.949c-29.414-5.248-83.748,12.303-104.06,75.855
			C308.713,440.39,556.24,302.844,439.181,281.949z"/>
		<path fill="#973989" d="M347.265,220.433c-39.39-2.237-68.534,7.246-69.944,26.557c-1.702,23.35,15.971,24.739,47.373,19.062
			C363.804,258.964,392.535,222.999,347.265,220.433z"/>
		<path fill="#973989" d="M242.129,289.089c-21.309,9.796-32.759,41.887-27.548,68.603
			C221.095,391.135,283.735,269.99,242.129,289.089z"/>
		<path fill="#C277C0" d="M291.512,250.494c17.233-3.944,35.123-19.56,16.835-25.709c-12.15-4.071-32.478,5.438-38.6,17.212
			C264.382,252.29,279.675,253.202,291.512,250.494z"/>
		<path fill="#C277C0" d="M236.038,303.184c-9.335-2.274-21.113,17.514-17.593,33.013
			C220.931,347.149,249.831,306.56,236.038,303.184z"/>
		<path fill="#CDE099" d="M464.371,188.771c-1.85,6.971-9.42,26.393-12.717,33.342c-3.292,6.928,7.935-1.713,11.291-12.165
			C466.295,199.489,467.318,177.645,464.371,188.771z"/>
		<path fill="#A0D16D" d="M515.906,167.52c-13.448-13.384-26.128-26.875-22.412-25.958c3.18,0.769,11.094,4.787,20.344,10.114
			C515.275,156.844,515.831,162.161,515.906,167.52z"/>
		<path fill="#A0D16D" d="M517.082,153.563c3.838,2.263,7.819,4.691,11.752,7.188c3.128,7.686,4.538,15.86,5.041,24.177
			c-4.341-4.082-9.812-9.34-15.303-14.763C518.646,164.562,518.296,158.996,517.082,153.563z"/>
		<path fill="#A0D16D" d="M532.545,163.147c3.335,2.163,6.557,4.336,9.526,6.44c10.358,10.379,18.352,23.589,23.599,37.498
			c-10.252-5.815-20.694-12.457-23.408-14.572c-0.96-0.758-2.953-2.539-5.603-4.988
			C536.314,179.192,535.201,170.987,532.545,163.147z"/>
		<path fill="#A0D16D" d="M552.63,177.692c15.277,12.907,31.424,31.227,34.604,35.908c4.49,6.594-5.937,2.083-17.943-4.506
			C565.4,197.941,559.765,187.154,552.63,177.692z"/>
		<path fill="#A0D16D" d="M543.634,130.239c-8.492-6.965-13.024-12.404-3.912-12.738c7.898-0.286,17.334,3.562,26.117,8.725
			C558.148,126.46,550.711,127.589,543.634,130.239z"/>
		<path fill="#A0D16D" d="M584.408,168.161c-3.504-4.739-7.002-9.213-10.061-12.966c-1.771-2.152-4.612-4.707-7.973-7.432
			c8.672-1.771,17.901-1.765,26.515-0.027c0.281,0.329,0.53,0.652,0.732,0.922c4.903,6.87,8.163,14.382,10.257,21.532
			C597.644,168.437,590.997,167.843,584.408,168.161z"/>
		<path fill="#A0D16D" d="M604.7,173.229c4.76,18.998,1.367,34.312-1.521,26.006c-2.64-7.543-9.578-18.404-16.862-28.465
			C592.582,170.626,598.858,171.368,604.7,173.229z"/>
		<path fill="#A0D16D" d="M563.687,145.612c-5.619-4.405-12.181-9.139-17.651-13.443c7.633-2.614,15.701-3.451,24.013-3.35
			c8.163,5.285,15.404,11.328,19.793,15.658C581.207,143.216,572.153,143.592,563.687,145.612z"/>
		<path fill="#A0D16D" d="M624.042,244.642c-0.88-7.962-2.618-16.947-6.685-24.262c4.829,2.11,9.865,7.829,11.18,19.109
			c1.277,10.936-1.834,24.972-4.681,31.615C625.049,262.203,624.975,253.022,624.042,244.642z"/>
		<path fill="#A0D16D" d="M613.716,219.463c5.794,8.529,7.543,20.546,8.025,30.109c0.392,8.052,0.249,16.697-1.187,24.977
			c-0.339-0.504-0.583-1.553-0.663-3.27c-0.657-13.453-0.684-24.718-11.799-44.978C605.775,222.081,609.104,219.102,613.716,219.463
			z"/>
	</g>
	<g>
		<path d="M351.877,260.74c-7.49-13.008-23.302-21.071-39.512-15.627c-14.556,4.882-29.012,17.715-34.318,35.892
			c-8.444,28.889,18.447,52.912,45.401,44.092C349.158,316.675,365.611,284.53,351.877,260.74z"/>
		<path fill="#FFFFFF" d="M333.006,311.771c-21.41,19.942-56.708,1.267-47.665-30.114c2.741-9.494,10.056-19.088,17.816-25.184
			c8.836-6.922,22.236-11.328,34.455-3.705c10.867,6.78,14.874,17.89,12.642,30.088
			C348.034,295.047,342.187,303.231,333.006,311.771z"/>
		<path d="M427.774,321.53c-1.675-20.44-15.526-32.881-35.293-32.849c-12.404,0.032-23.933,6.414-35.722,18.537
			c-11.789,12.107-21.278,33.676-7.257,53.119c13.454,18.653,33.788,19.523,49.87,10.528
			C417.141,360.958,429.046,336.876,427.774,321.53z"/>
		<path fill="#FFFFFF" d="M364.016,309.211c13.279-13.788,33.862-22.539,48.312-8.895c17.646,16.634,6.854,38.277-2.582,50.723
			c-13.12,17.302-35.955,25.683-53.13,5.497C344.679,342.51,351.018,322.712,364.016,309.211z"/>
		<path d="M339.69,307.339c-6.011,6.87-16.464,7.58-23.339,1.575c-6.875-6.006-7.585-16.443-1.59-23.335
			c6.011-6.88,16.453-7.585,23.344-1.574C344.986,290.001,345.691,300.443,339.69,307.339z"/>
		<path d="M408.342,355.142c-6.048,6.918-16.565,7.628-23.493,1.585c-6.917-6.043-7.649-16.56-1.59-23.483
			c6.038-6.928,16.549-7.644,23.477-1.601C413.664,337.692,414.379,348.209,408.342,355.142z"/>
		<path fill="#FFFFFF" d="M337.978,300.167c-1.855,2.136-5.105,2.359-7.241,0.498c-2.131-1.871-2.354-5.11-0.488-7.24
			c1.866-2.142,5.11-2.364,7.246-0.498C339.627,294.798,339.849,298.037,337.978,300.167z"/>
		<path fill="#FFFFFF" d="M407.763,348.299c-1.982,2.29-5.46,2.523-7.755,0.525c-2.3-1.993-2.523-5.465-0.524-7.755
			c1.993-2.29,5.475-2.523,7.755-0.535C409.529,342.532,409.773,346.009,407.763,348.299z"/>
	</g>
	<path d="M483.184,354.543c-11.556-23.62-39.905-9.404-52.701,4.914c-0.705,0.78,0.418,1.649,1.187,1.203
		c6.181-3.515,13.035-6.557,19.873-8.566c-2.687,18.855-19.83,37.402-34.291,47.4c-17.095,11.805-38.426,16.401-58.924,16.173
		c-22.147-0.249-44.14-8.747-60.297-23.891c-8.529-8.004-14.546-16.851-24.649-23.111c-18.362-11.37-32.86-21.023-31.524-45.428
		c0.127-2.412-2.746-0.021-3.287,4.416c-1.484,12.054-1.357,23.419,10.098,32.245c7.861,6.064,15.478,11.683,23.392,17.625
		c6.743,5.062,11.604,11.943,17.18,18.166c5.099,5.683,10.962,10.507,17.339,14.551c12.574,16.544,27.056,28.455,42.497,40.26
		c16.221,12.393,36.342,16.342,55.897,8.974c34.079-12.849,54.047-64.649,54.932-98.145c0.827-3.493,1.156-6.96,0.885-10.331
		c5.91,0.504,10.856,3.52,15.939,8.216C479.685,361.943,484.997,358.244,483.184,354.543z"/>
	<path fill="#FFFFFF" d="M424.991,404.043c-0.822,6.573-12.987,23.938-23.726,29.774c-22.534,12.255-70.983-4.171-73.888-15.579
		c7.75,2.327,20.434,4.596,28.423,5.237C380.438,425.452,404.52,417.766,424.991,404.043z"/>
	<path d="M446.926,313.388c-5.932-5.767-10.406-12.441-14.259-19.74c-3.933-7.49-1.553-13.84-2.528-21.564
		c-0.483-3.811-5.375-6.382-8.534-3.636c-17.822,15.521,8.115,41.463,20.074,50.671
		C445.606,322.134,450.557,316.924,446.926,313.388z"/>
	<path d="M376.823,231.214c-4.856,5.693-17.567,3.795-24.087,3.292c-7.687-0.584-16.417-1.336-23.578-4.347
		c-3.228-1.368-5.836,2.973-3.149,5.2c11.895,9.859,52.383,21.686,61.309,2.56C390.345,231.442,381.45,225.781,376.823,231.214z"/>
	<path d="M607.175,495.147c-5.094-0.97-10.491,0.08-15.696-0.031c-7.84-0.149-15.022-1.681-22.523-3.472
		c-0.323-1.187-0.848-2.3-1.521-3.339c3.196,1.272,15.844,4.548,28.63,4.219c5.189-0.127,6.954-8.608,1.283-9.488
		c-3.896-0.615-7.522,0.143-11.397,0.631c-6.986,0.874-16.814,1.156-22.894,0.827c-3.048-1.405-17.116-1.644-20.705-1.22
		c-7.337-9.541-5.062-26.583-5.513-37.89c-0.752-19.051-4.479-37.785-6.663-56.661c-0.286-2.47-3.912-2.014-3.795,0.429
		c1.076,21.85,0.175,43.97,0.514,65.847c0.334,20.97,3.159,33.771,5.714,37.736c-4.118,3.806-9.881,6.944-14.582,8.651
		c-4.458,1.616-9.091-1.972-12.955,0.562c-2.846,1.85-2.613,7.623,0.132,10.575c2.741,2.947,10.681,2.152,19.232-2.544
		c4.177-2.306,7.776-5.937,10.67-9.865c2.698,3.721,13.618,10.379,28.731,4.569c8.079,9.748,25.407,19.576,36.708,15.176
		c4.935-1.914,5.03-7.978,1.16-9.997c-3.816-2.004-7.108-1.315-12.25-2.147c-4.675-0.758-9.239-2.322-13.628-4.023
		c-2.614-1.018-5.084-2.38-7.612-3.562c0.302-0.625,0.541-1.267,0.732-1.94c11.746,6.234,26.828,11.577,38.431,6.758
		C612.571,502.796,612.285,496.123,607.175,495.147z"/>
</g>
</svg>
