<?xml version="1.0" encoding="UTF-8"?>
<!DOCTYPE svg PUBLIC "-//W3C//DTD SVG 1.1//EN" "http://www.w3.org/Graphics/SVG/1.1/DTD/svg11.dtd">
<!-- Creator: CorelDRAW X6 -->
<svg xmlns="http://www.w3.org/2000/svg" xml:space="preserve" width="31.5496mm" height="57.8929mm" version="1.1" style="shape-rendering:geometricPrecision; text-rendering:geometricPrecision; image-rendering:optimizeQuality; fill-rule:evenodd; clip-rule:evenodd"
viewBox="0 0 233 428"
 xmlns:xlink="http://www.w3.org/1999/xlink">
 <defs>
  <style type="text/css">
   <![CDATA[
    .str0 {stroke:#373435;stroke-width:1.47749}
    .fil8 {fill:#373435}
    .fil0 {fill:#4E5A62}
    .fil12 {fill:#848688}
    .fil19 {fill:#A59482}
    .fil18 {fill:#C37950}
    .fil1 {fill:#CE8F64}
    .fil3 {fill:#D2D3D5}
    .fil22 {fill:#E9C047}
    .fil11 {fill:#F5874F}
    .fil4 {fill:#FEFEFE}
    .fil20 {fill:#FFCC29}
    .fil15 {fill:black}
    .fil9 {fill:#100E11}
    .fil7 {fill:#333333}
    .fil14 {fill:#C9A37D}
    .fil5 {fill:#EFD0B3}
    .fil13 {fill:#FBFFFF}
    .fil10 {fill:white}
    .fil17 {fill:#6E6048}
    .fil2 {fill:#7B543A}
    .fil16 {fill:#8A765C}
    .fil21 {fill:#C0AA49}
    .fil6 {fill:#CEBAA3}
   ]]>
  </style>
 </defs>
 <rect class="fil0" x="-2375" y="509" width="1595" height="2064"/>
 <path class="fil1" d="M233 71l0 0c-2,-6 -8,-9 -13,-7l-212 65c-6,2 -9,8 -7,13l0 0c2,6 8,9 13,7l212 -65c6,-2 9,-8 7,-13z"/>
 <path class="fil2" d="M233 71l0 0c-2,-6 -8,-9 -13,-7l-212 65c-6,2 -9,8 -7,13l0 0c0,1 0,1 1,2 -1,-5 2,-10 7,-11l212 -65c5,-2 10,1 13,5 0,-1 0,-1 0,-2z"/>
 <path class="fil3" d="M219 64c-17,-43 -50,-71 -78,-62 -3,1 -7,3 -9,4 25,0 53,26 67,64 8,5 16,6 20,-6zm-13 26c9,40 1,76 -20,90 3,0 7,-1 10,-2 28,-8 40,-50 30,-95 -8,-6 -14,-4 -20,6z"/>
 <path class="fil4" d="M142 1c0,0 -1,0 -1,0 -3,1 -7,3 -9,4 25,0 53,26 67,64 5,3 10,5 14,3 -3,1 -7,-1 -11,-3 -15,-38 -42,-64 -67,-64 3,-2 5,-3 8,-4zm63 89c9,40 1,76 -20,90 3,0 7,-1 10,-2 0,0 1,0 1,0 -3,1 -6,1 -9,1 21,-14 29,-51 20,-90 2,-5 5,-7 8,-9 -4,1 -7,4 -10,9z"/>
 <path class="fil5" d="M80 201l-6 -23c-16,1 -26,4 -27,5 1,-8 2,-36 -3,-39l-15 0c-6,13 -13,52 6,63 6,4 41,-2 45,-6z"/>
 <path class="fil4" d="M102 173l8 21c-3,2 -29,11 -32,8l-8 -24c4,-1 20,-5 32,-5z"/>
 <path class="fil6" d="M45 179c1,-10 2,-22 -2,-31 1,0 1,-1 2,-2 3,7 3,29 2,36 -1,1 -2,2 -3,3 0,0 0,-6 1,-7z"/>
 <path class="fil7" d="M157 292c-13,0 -31,-2 -36,0l0 0c-12,0 -24,1 -28,2 0,0 -6,28 -4,61 1,21 10,51 10,58l14 0c0,-4 7,-33 0,-49 0,0 2,-1 2,-2 0,0 -2,-2 -2,-2 0,0 3,-2 3,-4 0,-1 -2,-3 -1,-4 1,-23 3,-38 7,-43 0,12 1,28 2,46 1,21 10,51 10,58l14 0c0,-4 7,-33 0,-49 0,0 2,-1 2,-2 0,0 -2,-2 -2,-2 0,0 3,-2 3,-4 0,-1 -2,-3 -1,-4 1,-25 8,-40 8,-61z"/>
 <path class="fil8" d="M156 306c-8,16 -10,39 -10,49 0,2 -3,3 -5,4 2,1 3,2 5,2 0,1 -2,2 -3,2 0,16 7,28 3,49 0,0 0,1 0,1l2 0c0,0 0,0 0,0 0,-6 7,-33 0,-49 0,0 2,-1 2,-2 0,0 -2,-2 -2,-2 0,0 3,-2 3,-4 0,-1 -2,-3 -1,-4 3,-25 6,-37 7,-47z"/>
 <path class="fil8" d="M123 309c-9,3 -12,37 -12,46 0,2 -3,3 -5,4 2,1 3,2 5,2 0,1 -2,2 -3,2 0,16 7,28 3,49 0,0 0,1 0,1l2 0c0,0 0,0 0,0 0,-6 7,-33 0,-49 0,0 2,-1 2,-2 0,0 -2,-2 -2,-2 0,0 3,-2 3,-4 0,-1 -2,-3 -1,-4 1,-26 4,-42 9,-45z"/>
 <polygon class="fil9" points="138,168 141,205 133,206 131,228 124,239 124,240 124,239 124,239 124,239 117,228 115,207 107,206 110,168 110,166 112,165 120,198 124,212 124,219 124,212 129,197 136,165 139,165 "/>
 <polygon class="fil10" points="157,272 93,272 93,295 157,295 "/>
 <path class="fil5" d="M181 194l-16 18c10,13 24,23 25,24 -7,4 -23,27 -23,33l11 8c14,-9 37,-23 35,-45 0,-7 -26,-36 -31,-38z"/>
 <path class="fil11" d="M112 165c0,0 -20,6 -20,9 -3,39 -5,69 -1,115l3 1c6,1 13,1 24,-8 15,11 37,8 42,8 6,-38 1,-83 0,-117 -1,-1 -3,-2 -3,-2 -4,-2 -8,-4 -12,-5 -5,-2 -8,-2 -8,-2l-24 1z"/>
 <polygon class="fil12" points="118,216 117,216 117,283 118,283 "/>
 <path class="fil13" d="M135 165c0,1 -17,60 -17,60 -4,-18 -7,-41 -4,-60 0,0 19,-1 21,-1z"/>
 <polygon class="fil4" points="113,163 120,178 113,169 103,169 "/>
 <path class="fil12" d="M113 172l8 6 -7 -8c0,1 0,1 0,3z"/>
 <path class="fil6" d="M134 152l-20 0 0 11c-1,3 6,14 6,14 0,0 14,-10 14,-14l0 -11z"/>
 <path class="fil5" d="M159 96c0,0 2,39 -9,47 -33,26 -50,25 -76,4 -7,-5 -10,-15 -12,-37 -2,-22 -1,-50 1,-56 2,-6 30,-10 43,-13 13,-3 47,6 52,11 4,4 1,45 1,45z"/>
 <path class="fil8 str0" d="M163 64c5,22 2,49 -3,67 -5,5 -7,6 -14,6l1 -25 0 -46 15 -1z"/>
 <path class="fil14" d="M89 114c1,3 4,4 7,5l0 0 0 0 0 0 0 0c3,0 6,-2 7,-5 -6,3 -9,3 -14,0z"/>
 <path class="fil8" d="M136 84c-10,-15 -33,-9 -28,-2 2,3 8,-7 28,2z"/>
 <path class="fil6" d="M145 129c12,-6 30,-30 9,-41 -2,-1 -3,-1 -5,-1 0,1 0,2 0,2 0,0 0,24 -4,40z"/>
 <path class="fil8" d="M99 29c27,0 63,13 52,56 -2,6 0,33 -4,35 -10,-17 5,-61 -23,-72 -22,-9 -24,9 -24,9 0,0 -58,-26 0,-28z"/>
 <path class="fil15" d="M148 414l-15 0c-10,10 -23,6 -23,8 -1,2 0,5 10,6 4,0 10,0 10,0 1,0 7,-3 7,-2l0 2 10 0c2,-4 2,-8 0,-14z"/>
 <path class="fil15" d="M113 414l-15 0c-10,10 -23,6 -23,8 -1,2 0,5 10,6 4,0 10,0 10,0 1,0 7,-3 7,-2l0 2 10 0c2,-4 2,-8 0,-14z"/>
 <path class="fil8" d="M100 171c10,0 39,-23 40,-33 -12,6 -26,20 -33,14 -6,-4 -11,-6 -18,0 -5,4 -5,-2 -17,-9 2,9 18,27 28,27z"/>
 <path class="fil5" d="M114 140c-1,-6 -2,-8 -14,-9 -11,1 -12,3 -14,9 -1,6 6,2 14,2 7,0 15,3 14,-2z"/>
 <path class="fil12" d="M120 178c-1,14 -2,32 -2,47 0,2 -1,3 -1,0 0,-15 1,-32 4,-47z"/>
 <circle class="fil12" cx="115" cy="187" r="2"/>
 <circle class="fil10" cx="115" cy="187" r="2"/>
 <circle class="fil12" cx="115" cy="199" r="2"/>
 <circle class="fil10" cx="115" cy="198" r="2"/>
 <path class="fil10" d="M108 90c0,-6 23,-4 24,1 1,7 -24,10 -24,-1z"/>
 <path class="fil16" d="M113 96c3,1 7,1 10,1 1,-1 1,-2 1,-4 0,-3 -3,-6 -6,-6 -3,0 -6,3 -6,6 0,1 0,1 1,2z"/>
 <path class="fil8" d="M115 97c2,0 4,1 6,0 1,-1 1,-2 1,-3 0,-2 -2,-4 -4,-4 -2,0 -4,2 -4,4 0,1 0,1 1,2z"/>
 <circle class="fil4" transform="matrix(-0.16012 0.0121176 -0.0121176 -0.16012 120.418 94.0195)" r="14"/>
 <path class="fil17" d="M121 89c1,2 3,5 1,9 0,0 1,0 1,0 1,-1 1,-2 1,-4 0,-2 -1,-4 -3,-5z"/>
 <path class="fil8" d="M62 84c10,-15 33,-9 28,-2 -2,3 -8,-7 -28,2z"/>
 <path class="fil10" d="M66 90c0,-6 23,-4 24,1 1,7 -24,10 -24,-1z"/>
 <path class="fil16" d="M72 96c3,1 7,1 10,1 1,-1 1,-2 1,-4 0,-3 -3,-6 -6,-6 -3,0 -6,3 -6,6 0,1 0,1 1,2z"/>
 <path class="fil8" d="M73 97c2,0 4,1 6,0 1,-1 1,-2 1,-3 0,-2 -2,-4 -4,-4 -2,0 -4,2 -4,4 0,1 0,1 1,2z"/>
 <circle class="fil4" transform="matrix(-0.16012 0.0121176 -0.0121176 -0.16012 78.9792 94.0195)" r="14"/>
 <path class="fil17" d="M80 89c1,2 3,5 1,9 0,0 1,0 1,0 1,-1 1,-2 1,-4 0,-2 -1,-4 -3,-5z"/>
 <path class="fil12" d="M133 173l-12 5 13 -8c0,1 -1,2 -1,3z"/>
 <path class="fil6" d="M169 213c5,5 15,16 21,22 -1,0 -13,-9 -22,-20l1 -2z"/>
 <path class="fil6" d="M190 236c-4,5 -19,25 -23,33l0 0c1,-7 16,-29 23,-32z"/>
 <path class="fil16" d="M142 226c-10,0 -8,-13 -8,-19 5,0 11,0 16,0 0,7 2,20 -8,20z"/>
 <path class="fil18" d="M140 226c-10,0 -8,-13 -8,-19 5,0 11,0 16,0 0,7 2,20 -8,19z"/>
 <path class="fil16" d="M140 206l1 0 8 0c1,3 -5,5 -8,5 -3,0 -9,-2 -8,-5l8 0z"/>
 <path class="fil16" d="M100 226c-10,0 -8,-13 -8,-19 5,0 11,0 16,0 0,7 2,20 -8,20z"/>
 <path class="fil18" d="M99 226c-10,0 -8,-13 -8,-19 5,0 11,0 16,0 0,7 2,20 -8,19z"/>
 <path class="fil16" d="M98 206l1 0 8 0c1,3 -5,5 -8,5 -3,0 -9,-2 -8,-5l8 0z"/>
 <path class="fil16" d="M142 257c-10,0 -8,-13 -8,-19 5,0 11,0 16,0 0,7 2,20 -8,20z"/>
 <path class="fil18" d="M140 257c-10,0 -8,-13 -8,-19 5,0 11,0 16,0 0,7 2,20 -8,19z"/>
 <path class="fil16" d="M140 237l1 0 8 0c1,3 -5,5 -8,5 -3,0 -9,-2 -8,-5l8 0z"/>
 <path class="fil16" d="M100 257c-10,0 -8,-13 -8,-19 5,0 11,0 16,0 0,7 2,20 -8,20z"/>
 <path class="fil18" d="M99 257c-10,0 -8,-13 -8,-19 5,0 11,0 16,0 0,7 2,20 -8,19z"/>
 <path class="fil16" d="M98 237l1 0 8 0c1,3 -5,5 -8,5 -3,0 -9,-2 -8,-5l8 0z"/>
 <path class="fil19" d="M149 112c0,0 1,-5 3,-10 2,-5 5,-1 5,-1 0,0 -3,2 -4,5 -1,3 1,2 2,3 -1,-1 -6,4 -6,4z"/>
 <path class="fil20" d="M170 67c0,-32 -5,-60 -55,-60 -50,0 -55,28 -55,60 37,0 74,0 111,0z"/>
 <path class="fil21" d="M83 13c10,-4 14,-5 13,-4 -19,12 -24,29 -23,58l-9 0c-2,-34 11,-46 19,-54z"/>
 <path class="fil21" d="M135 9c10,-4 17,6 16,7 -19,10 -33,20 -35,51l-12 0c-2,-34 23,-50 31,-58z"/>
 <path class="fil21" d="M100 8c17,-9 27,-2 27,-1 -24,20 -31,30 -31,59l-16 0c-3,-37 13,-49 20,-59z"/>
 <path class="fil22" d="M59 66l111 0c-58,27 -150,17 -110,0 0,0 0,0 0,0z"/>
 <path class="fil22" d="M98 8c17,-9 29,-3 29,-1 -23,15 -33,31 -33,60l-16 0c-3,-37 13,-49 20,-59z"/>
 <path class="fil22" d="M133 9c10,-4 19,5 18,6 -20,9 -34,21 -36,52l-12 0c-2,-34 23,-50 31,-58z"/>
 <path class="fil22" d="M81 13c10,-4 14,-5 13,-4 -19,12 -24,29 -23,58l-9 0c-2,-34 11,-46 19,-54z"/>
 <path class="fil6" d="M136 140c5,-11 2,-56 1,-62 1,0 3,-1 4,-1 2,16 0,33 5,43 0,0 0,0 0,0 0,3 -1,6 -2,9 1,0 1,-1 2,-1l0 9c5,0 7,0 10,-2 -1,4 -3,6 -5,8 -13,10 -23,16 -32,18l0 0c10,-8 20,-18 21,-23 -1,1 -2,1 -3,2z"/>
 <polygon class="fil4" points="134,163 120,178 134,169 144,169 "/>
 <path class="fil4" d="M158 173c3,2 25,18 25,22l-16 20c-17,-17 -19,-23 -9,-42z"/>
 <path class="fil12" d="M161 204c2,2 4,4 5,6 1,1 2,2 3,3l-1 2c-3,-3 -5,-5 -7,-7 -5,-5 -8,-10 -8,-14 2,3 5,7 8,11z"/>
 <path class="fil18" d="M155 272c2,-24 2,-57 -1,-74 1,3 4,6 7,10 1,27 3,56 -2,82 -1,0 -1,0 -2,0 -1,0 -3,0 -4,0 0,-1 0,-3 0,-3 1,-4 1,-10 1,-15z"/>
 <path class="fil4" d="M177 277l-11 -9 -5 -3 0 5c-11,3 -19,5 -18,7 1,2 10,-2 12,0 1,1 -13,5 -11,8 1,1 12,-4 12,-3 1,1 -9,7 -7,9 2,2 10,-7 11,-6 1,1 -5,7 -3,8 2,2 3,-4 12,-8 4,-2 7,-9 7,-9z"/>
 <path class="fil4" d="M15 126c8,-9 12,-14 32,-10 -7,20 -19,29 -32,10zm34 12c-1,3 -1,7 -3,7 0,0 -7,3 -11,4 -2,0 -3,1 -6,0 -1,-1 -3,-1 -6,-3 8,-4 17,-6 26,-8z"/>
 <path class="fil4" d="M97 139c7,0 14,2 14,-2 0,-4 -6,-7 -14,-7 -7,0 -14,3 -14,7 0,4 6,2 13,2z"/>
</svg>
