<svg width="400" height="400" xmlns="http://www.w3.org/2000/svg">
 <g>
  <title>background</title>
 </g>
 <style>#w
{
    
}
#d2
{
   
}
#ya1
{
    animation-name: ya1;
    animation-duration: 15s;
    animation-iteration-count: infinite;
   
    transform-origin: top right;
    transform-box: fill-box;
}
@keyframes ya1 {
    0%{transform: rotateZ(-25deg);}
    35%{transform: rotateZ(-25deg);}
    39%{transform: rotateZ(0deg);}
    100%{transform: rotateZ(0deg);}
}
#yh2
{
    animation-name: yh2;
    animation-duration: 15s;
    animation-iteration-count: infinite;
    
    transform-origin: top right;
    transform-box: fill-box;
}
@keyframes yh2 
    {
        0%{transform: rotateZ(20deg);}
        15%{transform: rotateZ(20deg);}
        25%{transform: rotateZ(0deg);}
        35%{transform: rotateZ(0deg);}
        40%{transform: rotateZ(-20deg);}
        50%{transform: rotateZ(-20deg);}
        60%{transform: rotateZ(0deg);}
        70%{transform: rotateZ(0deg);}
        75%{transform: rotateZ(-20deg);}
        85%{transform: rotateZ(-20deg);}
        90%{transform: rotateZ(0deg);}
        100%{transform: rotateZ(0deg);}
       
}
#yh
{
    animation-name: yh;
    animation-duration: 15s;
    animation-iteration-count: infinite;
    animation-direction: alternate;
    transform-origin: bottom;
    transform-box: fill-box;
}
@keyframes yh 
    {
        0%{transform: rotateZ(0deg);}
        39%{transform: rotateZ(0deg);}
        43%{transform: rotateZ(-10deg);}
        60%{transform: rotateZ(-10deg);}
        65%{transform: rotateZ(0deg);}
        75%{transform: rotateZ(0deg);}
        80%{transform: rotateZ(-10deg);}
        100%{transform: rotateZ(-10deg);}
}
#svg_568
{
   
}
#a1{
    
   
}
#b1
{
   

}
#c1
{
    animation-name: c1;
    animation-duration: 15s;
    animation-fill-mode: forwards;
    transform-origin: bottom;
    transform-box: fill-box;
}
@keyframes c1 {
    0%   { transform: scale(0); }
    6%   { transform: scale(0); }
    
    7% { transform: scale(01); }
}
#d1
{
    
   
    
}
#e1
{
    
    
    
}
#f1
{
   
}
#g1
{
   
}

}
#h1
{
   
}

}
#k1
{
    
}

}
@keyframes k1head
    {
      
}
#v
{
 
}
#tarm
{
    animation-name: tarm;
    animation-duration: 1s;
    animation-iteration-count: infinite;
    animation-direction: alternate;
    transform-origin: bottom;
    transform-box: fill-box;
}
@keyframes tarm {
   
    100%{transform: rotateZ(6deg);}
}

#n1
{
    
}
#o1
{
   
}

}
@keyframes t1 {
    0%   { transform: scale(0); }
    62%   { transform: scale(0); }
    
    63.5% { transform: scale(01); }
}
#o1arm2
{
    animation-name: o1arm2;
    animation-duration: 15s;
    animation-fill-mode: forwards;
    
    transform-origin: left top;
    transform-box: fill-box;
}
@
#p1
{
    
}
#o1arm1
{
    animation-name: o1arm1;
    animation-duration: 15s;
    animation-fill-mode: forwards;
    
    transform-origin: left top;
    transform-box: fill-box;
}
@keyframes o1arm1 {
    0%{transform: rotateZ(15deg);}
    65%{transform: rotateZ(15deg);}
    68%{transform: rotateZ(0deg);}
    100%{transform: rotateZ(0deg);}
}
#oo1
{
    animation-name: oo1;
    animation-duration: 15s;
    animation-fill-mode: forwards;
    transform-origin: top center;
    transform-box: fill-box;
}
@keyframes oo1 {
    0%   { transform: scale(0); }
    65%   { transform: scale(0); }
    
    66.5% { transform: scale(01); }
}
#q1
{
    
    
}
@keyframes q1 {
    0%   { transform: scale(0); }
    65%   { transform: scale(0); }
    
    66.5% { transform: scale(01); }
}
#r1
{
    
}
@keyframes r1 {
    0%   { transform: scale(0); }
    66%   { transform: scale(0); }
    
    67.5% { transform: scale(01); }
}
#s1
{
   
}
@keyframes s1 {
    0%   { transform: scale(0); }
    67%   { transform: scale(0); }
    
    68.5% { transform: scale(01); }
}
#u1
{
    
   
}
@keyframes u1 {
    0%   { stroke-dashoffset: -150; }
    50% { stroke-dashoffset: -150; }
    60% { stroke-dashoffset: 0; }
    100% { stroke-dashoffset: 0; }
    
}
#v1
{
  
}
@keyframes v1 {
    0%   { transform: scale(0); }
    60%   { transform: scale(0); }
    
    61.5% { transform: scale(01); }
}
#w1
{
    
   
        stroke-dashoffset: 120;
}
@keyframes w1 {
    0%   { stroke-dashoffset: 0; }
    65% { stroke-dashoffset: 0; }
    75% { stroke-dashoffset: -120; }
    100% { stroke-dashoffset: -120; }
    
}
#svg_13
{
    
   
}
@keyframes x11 {
    0%   { stroke-dashoffset: 220; }
    38% { stroke-dashoffset: 220; }
    80% { stroke-dashoffset: 0; }
    100% { stroke-dashoffset: 0; }
    
}
#l2
{
    
  
}
@keyframes l2 {
    0%   { stroke-dashoffset: 0; }
    50% { stroke-dashoffset: 0; }
    66% { stroke-dashoffset: 220; }
    100% { stroke-dashoffset: 220; }
    
}
#z11
{
    animation-name: z11;
    animation-duration: 15s;
    animation-fill-mode: forwards;
    transform-origin: top center;
    transform-box: fill-box;
}
@keyframes z11 {
    0%   { transform: scale(0); }
    52%   { transform: scale(0); }
    
    
}
#z12
{
    animation-name: z12;
    animation-duration: 15s;
    animation-fill-mode: forwards;
    transform-origin: top center;
    
}
@keyframes z12 {
    0%   { transform: scale(0); }
    55%   { transform: scale(0); }
    
    55.5% { transform: scale(01); }
}
#z22
{
    animation-name: z22;
    animation-duration: 15s;
    animation-fill-mode: forwards;
    transform-origin: top center;
    transform-box: fill-box;
}
@keyframes z22 {
    0%   { transform: scale(0); }
    60%   { transform: scale(0); }
    
   
}
#z33
{
    animation-name: z33;
    animation-duration: 15s;
    animation-fill-mode: forwards;
    transform-origin: top center;
    transform-box: fill-box;
}
@keyframes z33 {
    0%   { transform: scale(0); }
    60%   { transform: scale(0); }
    
    60.5% { transform: scale(01); }
}
#z44
{
   
}
@keyframes z22 {
    0%   { transform: scale(0); }
    60%   { transform: scale(0); }
    
    
}

#z77
{
    animation-name: z77;
    animation-duration: 15s;
    animation-fill-mode: forwards;
    transform-origin: top center;
    transform-box: fill-box;
}
@keyframes z77 {
    0%   { transform: scale(0); }
    60%   { transform: scale(0); }
    
    60.5% { transform: scale(01); }
}
#z55
{
    animation-name: z55;
    animation-duration: 15s;
    animation-fill-mode: forwards;
    transform-origin: top center;
    transform-box: fill-box;
}
@keyframes z55 {
    0%   { transform: scale(0); }
    67%   { transform: scale(0); }
    
    67.5% { transform: scale(01); }
}
#z66
{
    animation-name: z66;
    animation-duration: 15s;
    animation-fill-mode: forwards;
    transform-origin: top center;
    transform-box: fill-box;
}
@keyframes z66 {
    0%   { transform: scale(0); }
    65%   { transform: scale(0); }
    
    65.5% { transform: scale(01); }
}
#z99
{
    animation-name: z99;
    animation-duration: 15s;
    animation-fill-mode: forwards;
    transform-origin: top center;
    transform-box: fill-box;
}
@keyframes z99 {
    0%   { transform: scale(0); }
    64%   { transform: scale(0); }
    
    64.5% { transform: scale(01); }
}
#z88
{
    animation-name: z88;
    animation-duration: 15s;
    animation-fill-mode: forwards;
    transform-origin: top center;
    transform-box: fill-box;
}
@keyframes z88 {
    0%   { transform: scale(0); }
    68%   { transform: scale(0); }
    
    68.5% { transform: scale(01); }
}
#z1
{
    
    animation-name: z1;
    animation-duration: 15s;
    animation-timing-function: linear;
    animation-fill-mode: forwards;
    stroke-dasharray: 150;
        stroke-dashoffset: 150;
}
@keyframes z1 {
    0%   { stroke-dashoffset: -150; }
    46% { stroke-dashoffset: -150; }
    60% { stroke-dashoffset: 0; }
    100% { stroke-dashoffset: 0; }
    
}
#z2
{
    
    animation-name: z2;
    animation-duration: 15s;
    animation-timing-function: linear;
    animation-fill-mode: forwards;
    stroke-dasharray: 150;
        stroke-dashoffset: 150;
}
@keyframes z2 {
    0%   { stroke-dashoffset: -150; }
    46% { stroke-dashoffset: -150; }
    60% { stroke-dashoffset: 0; }
    100% { stroke-dashoffset: 0; }
    
}
#z3
{
    
    animation-name: z3;
    animation-duration: 15s;
    animation-timing-function: linear;
   animation-fill-mode: forwards;
    stroke-dasharray: 150;
        stroke-dashoffset: 150;
}
@keyframes z3 {
    0%   { stroke-dashoffset: -150; }
    46% { stroke-dashoffset: -150; }
    60% { stroke-dashoffset: 0; }
    100% { stroke-dashoffset: 0; }
    
}
#z4
{
    
    animation-name: z4;
    animation-duration: 15s;
    animation-timing-function: linear;
   animation-fill-mode: forwards;
    stroke-dasharray: 150;
        stroke-dashoffset: 150;
}
@keyframes z4 {
    0%   { stroke-dashoffset: 150; }
    65% { stroke-dashoffset: 150; }
    80% { stroke-dashoffset: 0; }
    100% { stroke-dashoffset: 0; }
    
}
#z5
{
    
    animation-name: z5;
    animation-duration: 15s;
    animation-timing-function: linear;
    animation-fill-mode: forwards;
    stroke-dasharray: 150;
        stroke-dashoffset: 150;
}
@keyframes z5 {
    0%   { stroke-dashoffset: -150; }
    50% { stroke-dashoffset: -150; }
    65% { stroke-dashoffset: 0; }
    100% { stroke-dashoffset: 0; }
    
}
#girl
{
    animation-name: girl;
    animation-duration: 15s;
    animation-fill-mode: forwards;
    transform-origin: bottom;
    transform-box: fill-box;
}
@keyframes girl {
    0%   { transform: scale(0); }
    68%   { transform: scale(0); }
    
    68.5% { transform: scale(01); }
}
#y1
{
    animation-name: y1;
    animation-duration: 15s;
    animation-fill-mode: forwards;
    transform-origin: bottom;
    transform-box: fill-box;
}
@keyframes y1 {
    0%   { transform: scale(0); }
    60%   { transform: scale(0); }
    
    61.5% { transform: scale(01); }
}
#a2
{
    animation-name: a2;
    animation-duration: 15s;
    animation-fill-mode: forwards;
    transform-origin: bottom;
    transform-box: fill-box;
}
@keyframes a2 {
    0%   { transform: scale(0); }
    60%   { transform: scale(0); }
    
    61.5% { transform: scale(01); }
}
#b2
{
    animation-name: b2;
    animation-duration: 15s;
    animation-iteration-count: infinite;
    transform-origin: bottom;
    transform-box: fill-box;
}
@keyframes b2 {
    0%   { transform: scale(0);  }
    62%   { transform: scale(0); }
    
    63.5% { transform: scale(01); }
    

}
#b20
{
    animation-name: b20;
    animation-duration: 3s;
    animation-iteration-count: infinite;
    animation-timing-function: linear;
    transform-origin: 50% 50%;
    transform-box: fill-box;
}
@keyframes b20 {
    0%{transform: rotateY(0deg);}
    100%{transform: rotateY(360deg);}
}
#ghead
{
    animation-name: gh;
    animation-duration: 15s;
    animation-iteration-count: infinite;
    animation-direction: alternate;
    transform-origin: bottom;
    transform-box: fill-box;
}
@keyframes gh {
    0%{transform: rotateZ(0deg);}
    11%{transform: rotateZ(0deg);}
    15%{transform: rotateZ(10deg);}
    50%{transform: rotateZ(10deg);}
    55%{transform: rotateZ(0deg);}
    75%{transform: rotateZ(0deg);}
    80%{transform: rotateZ(10deg);}
    100%{transform: rotateZ(10deg);}
}
#ga2
{
    animation-name: ga2;
    animation-duration: 15s;
    animation-iteration-count: infinite;
    animation-direction: alternate;
    transform-origin: left top;
    transform-box: fill-box;
}
@keyframes ga2 {
    0%{transform: rotateZ(0deg);}
    11%{transform: rotateZ(0deg);}
    15%{transform: rotateZ(-15deg);}
    50%{transform: rotateZ(-15deg);}
    55%{transform: rotateZ(0deg);}
    75%{transform: rotateZ(0deg);}
    80%{transform: rotateZ(-15deg);}
    100%{transform: rotateZ(-15deg);}
}

#map1 {
    animation: map1 10s  linear infinite;
   animation-direction: inherit;
  }
  @keyframes map1 {
    0%{ transform: translateX(0px)}
   
    100%{ transform: translateX(-200px)}
  }
  #map2 {
    animation: map2 10s 5s  linear infinite;
   animation-direction: inherit;
    
  }
  @keyframes map2 {
    0%{ transform: translateX(0px)}
   
    100%{ transform: translateX(-200px)}
  }



#wifi
{
    animation-name: a2;
    animation-duration: 15s;
    animation-fill-mode: forwards;
    transform-origin: bottom;
    transform-box: fill-box;
}
@keyframes a2 {
    0%   { transform: scale(0); }
    30%   { transform: scale(0); }
    
    31.5% { transform: scale(01); }
}
#wifi2
{
    animation-name: a2;
    animation-duration: 15s;
    animation-fill-mode: forwards;
    transform-origin: bottom;
    transform-box: fill-box;
}
@keyframes a2 {
    0%   { transform: scale(0); }
    60%   { transform: scale(0); }
    
    61.5% { transform: scale(01); }
}</style>
 <defs>
  <clipPath id="clip-path">
   <path id="svg_1" fill="none" d="m232,48.48a45.54,45.54 0 1 0 9.77,14.52a45.56,45.56 0 0 0 -9.77,-14.52z"/>
  </clipPath>
  <clipPath id="clip-path-2">
   <path id="svg_2" fill="#fff" d="m281.58,47.28c-0.15,0.27 -0.54,0.35 -0.61,0.85a2.45,2.45 0 0 1 1.46,-0.45c1.31,-0.07 0.75,-1.51 -0.85,-0.4zm-1.41,0.71c0.64,-0.11 0.57,-1 1.26,-1c-0.66,-0.79 -1,-0.28 -1.58,0c-0.99,0.1 -0.71,1.23 0.32,1.01l0,-0.01zm-23.94,12.11c0.07,-0.7 -0.56,-1.25 -0.62,-1.09c-0.48,1.26 0.57,2.8 0.62,1.09zm27.17,-14.17c-0.23,0 -0.53,-0.11 -0.64,0.26c0.18,0.11 0.3,0.41 0.58,0.24s0.19,-0.32 0.06,-0.5zm-1.21,-3l-0.19,0c0.31,1.07 2,-0.05 0.19,-0.05l0,0.05zm-0.19,0l0,0zm3.88,1.92c-0.23,-0.06 -0.41,-0.28 -0.76,-0.15c0.28,0.17 0.49,0.3 0.76,0.11l0,0.04zm-0.88,-0.85a0.57,0.57 0 0 0 0,-0.88c-0.7,-0.61 -0.78,0.29 -1.34,0.49c0.5,0.14 0.75,0.86 1.34,0.39zm-3.08,1.33c0.52,0.26 0,0.38 0,0.56a1.38,1.38 0 0 0 1.69,-0.9c-1.49,-0.11 -1.89,0.28 -1.73,0.36l0.04,-0.02zm-26.12,12.29c0,-0.12 -0.05,-0.27 -0.24,-0.26c-0.49,0.21 0.32,0.84 0.24,0.26zm1.39,-2.25c-0.83,0.21 -0.5,0.68 -0.37,0.64c0.28,-0.08 0.25,-0.35 0.37,-0.64zm22.37,-8.83c0,-0.38 -0.31,-0.38 -0.58,-0.35s-0.13,0.36 -0.22,0.53c0.1,0.34 -0.14,0.57 0.8,-0.18zm-34.34,6.4c-0.06,0.47 0.52,0.3 0.61,-0.11c-0.24,0.05 -0.46,-0.11 -0.61,0.11zm34.18,74.19s-0.07,0 -0.09,0c-0.38,-0.1 -0.47,-0.86 -0.87,-0.53s0.34,0.47 0.36,1.48c0.61,-0.17 1.51,0.19 1.68,-0.13s-0.48,-0.8 -1.08,-0.82zm2.3,-31.21c-0.54,-0.59 -1.18,-0.35 -1.86,-0.25c-1.38,-1.16 -0.78,-1.08 -2.52,-1.21a1.15,1.15 0 0 0 -1.06,-0.07c1.92,-1.13 -0.62,-4.23 -2.79,-4.29a2.36,2.36 0 0 0 -1.07,-1.16c-0.45,-0.85 -1,-1.58 -2.11,-1.42a2.69,2.69 0 0 1 -2,-0.58c-0.3,-0.69 -1,0.54 -1.07,1.22a1.29,1.29 0 0 1 0.29,-0.9c0.48,-1.28 -2,-0.78 -2.25,0.87c0.07,0.13 -0.54,0.77 -1.11,0.1s-0.59,0.19 -2,-0.21c-0.73,-1.12 0.87,-2.37 0.27,-3.45c-0.18,-0.63 -0.75,-0.62 -1.22,-0.72c-2.15,-0.38 1.87,-2.75 0.36,-3.46c-1.62,-0.51 -2.08,1.87 -3.52,1.64a1.07,1.07 0 0 1 -0.7,-1c-0.36,-2.54 1.37,-3.12 1.43,-4.7a2.23,2.23 0 0 1 2.58,-0.8c2.22,0.87 0.9,-1.22 2.38,-0.32c1.81,0.46 -0.16,2.54 1.34,3.3c0.73,0.22 1.19,-2.7 1.23,-3.08c0.19,-2 1.89,-1.4 2.5,-2.76c0.18,-0.12 0.44,-0.12 0.54,-0.36c0.12,0 0.36,-0.09 0.24,-0.28l0,0c0,-0.29 0.46,-1.32 0.63,-1.29c1.08,0.18 1.2,-1.38 1.69,-1.42a5.5,5.5 0 0 0 2.71,-2.1a9.34,9.34 0 0 0 1.52,-0.35c0.09,0.17 -0.68,1 0.34,0.77c1.62,-0.42 2.6,-0.75 1.68,-1.45c-1.18,-0.92 0.36,-1.35 0.24,-1.78c-0.24,-0.88 -2.61,0.51 -2.61,0.38a3.31,3.31 0 0 0 1,-0.48c2.37,-1.77 1.91,0 4.82,-0.91a1.09,1.09 0 0 0 0.62,-0.43c0,-0.14 0.17,-0.11 0.27,-0.11c1.61,-0.55 -0.6,-3 0.08,-3.18c0.43,-0.47 0.77,-2.43 0.26,-2.63c-0.68,-0.28 -1.08,1.3 -1.67,0.84c-0.35,-0.27 0.07,-0.5 0.19,-0.72c0.81,-1.49 -0.37,-1.93 -1.12,-2.22c-1.65,-0.64 -1.2,1.2 -2.56,2c-0.51,0.77 -0.05,1.84 -1.42,2s-1.41,1.57 -2,2.45s-1.18,0 -0.42,-0.85c0.21,-0.24 1,-1.17 0.39,-1.38c-0.84,-0.21 -0.83,-1 -1.32,-1.55c-1.52,-1.41 0.74,-2.31 1.8,-2.91c2.22,-1.68 3.4,-0.89 3.53,-1.92c0,-0.36 2,-0.48 2.41,-0.5c0.82,0.09 0.9,-0.36 1.9,-1.46a0.64,0.64 0 0 0 -0.17,-0.83c-0.79,-0.55 -1.25,0.81 -2.07,1c0.83,-1.15 -0.24,-0.86 -0.38,-0.9a1,1 0 0 1 0.56,-0.62a1.08,1.08 0 0 0 0.35,-1.34c-0.41,-0.46 -0.78,0.24 -1.23,0.23c-1,0.18 -0.11,0.75 -1.24,1.65c0.45,-0.8 -0.66,-0.73 -1.15,-0.46a1.31,1.31 0 0 0 1,0.61a3.35,3.35 0 0 1 -1.12,0.71c0.75,-1.48 -0.48,0 -1.86,-1.48c-0.88,-0.94 -0.62,0.69 -1.74,0.53a1.34,1.34 0 0 1 -0.84,-1a1.07,1.07 0 0 0 -0.67,-1c-0.65,-0.31 -1.06,-1 -1.79,-1.18a2.45,2.45 0 0 0 -0.76,0.11c1.2,-0.51 -1.61,-0.33 -1.93,-0.27s-0.5,0.28 -0.61,0.12a8.6,8.6 0 0 0 -1.68,-1.71c-0.23,-1 -1.4,-0.71 -1.41,-1.4s-4.61,0.48 -5.49,0.56c-0.42,0 -1.08,0.86 -0.95,1.17s0.39,0.38 0,0.58a0.83,0.83 0 0 1 -0.94,0c-1.12,-0.81 -3.33,0.4 -2,1c0.28,0.11 0.62,0 0.88,0.24c-1.21,0.72 -3.82,-0.09 -4.58,1.81c-0.05,0.12 -0.1,0.11 -0.2,0.08c-0.53,-0.13 -0.49,0.3 -0.54,0.6c-0.09,0.49 0.41,-0.07 0.46,0.26l-0.67,0.62l1.42,0.78c-1.29,0.46 -2.39,1.23 -3.76,1.13c-1.63,-0.18 -2.71,1.83 3.22,0c-0.11,0.58 0.64,0.25 1.24,-0.1l0,-0.15l-0.51,0a26.73,26.73 0 0 1 3.29,-1.56c-2.37,0.89 0,1.43 1.07,0.5c1,-0.56 0.42,0.64 1.35,0.95s-0.22,1.53 0.91,1.53c0.33,0 0.17,0.26 0.11,0.39c-0.73,1.4 -0.93,3 -1.88,4.33c-0.64,0.88 1,1.5 -0.32,3c-0.46,-1.28 -1.79,1.27 -2.26,1.74a10.16,10.16 0 0 0 -2,2.47a3.56,3.56 0 0 0 -0.57,2.3c0.06,0.24 -0.27,0.09 -0.27,0.27s-0.83,2 -0.24,2.69a3.24,3.24 0 0 1 0.39,2.82c-0.15,0.37 0.31,0.89 -0.11,1.68c-0.17,0.31 -0.06,0.41 0,0.62s0.24,2.53 0.8,2.91c0.85,0 0,-4.82 0.52,-5.78a0.65,0.65 0 0 1 0.05,0.68c-0.44,1.24 0,1.86 1,6c0.15,0.61 -0.7,1.59 0.18,2.34s2.1,1.95 3.38,2.09a1.93,1.93 0 0 1 1.12,0.25a4.17,4.17 0 0 0 2.23,1.9a3.68,3.68 0 0 0 0.27,0.77c0.15,0.3 -0.15,1.1 0.29,1.2c0.7,0.1 0.86,1 1.59,1.07c0.43,0.34 0.66,0.67 0.88,0.24c0.37,-0.72 1.79,1 0.65,2.15s-2,5.77 -1.26,6.56a7.16,7.16 0 0 1 1.53,2.72c1.74,5.41 4.86,1.28 5.58,9.69c0,3.13 1.11,3.13 1.32,6.56c0.08,1.41 3.12,4.23 2.51,5.3s1,0.65 1,1.57c0,0.23 1.76,3 2.67,3c0.31,0 0.72,0.94 0.93,0.06c0.55,-2.42 -0.47,-0.68 -0.45,-3.38c0,-1.41 -1.47,-0.72 -0.93,-1.73c0.81,-1.5 -1,-2.37 -0.09,-3c0.33,-0.25 -0.44,-0.87 0.43,-1c1.76,-0.21 1,-2.22 0.75,-2.54c2.33,-0.56 0.36,-2 1.52,-2.25c0,-0.2 0.09,-0.41 0.13,-0.62a1,1 0 0 1 0.06,-0.76c0.5,-1.22 0.05,-0.62 0.19,-2.6c0.64,-0.5 0.94,-1.38 2,-1.64c2,-2.58 0.47,-2.41 1.46,-6.83c1.98,-2.01 0.6,-3.96 -1.46,-4.92zm-26.81,-45.38a1.26,1.26 0 0 1 0.58,-0.12a2,2 0 0 0 -0.58,0.12zm0.79,6.38a0.61,0.61 0 0 0 0.66,-0.25c-0.43,-0.31 -0.6,-0.18 -0.66,0.25zm26.62,-13.46a1.2,1.2 0 0 0 -1.3,-0.06c-0.36,0.54 0.86,0.54 1.3,0.06zm-39,10.4c0.17,0.06 0.47,0.15 0.43,-0.24l-0.38,0c0.03,0.09 -0.19,0.18 -0.01,0.24l-0.04,0zm-0.75,0c0.24,0 0.46,0 0.34,-0.34c-0.1,0.07 -0.31,0.09 -0.3,0.32l-0.04,0.02zm35.13,-10c1.52,0 1.95,0 2.36,-0.52c-0.88,-0.43 -1.89,0.08 -2.83,0.1c-0.05,0.4 0.23,0.41 0.51,0.41l-0.04,0.01zm1.87,1c0.74,-1.26 -0.95,-0.63 -1.64,-0.15a1.47,1.47 0 0 0 0.69,0.23l0,0.22c-0.55,0 -0.54,0.41 0,0.41c0.35,0 0.68,-0.31 1,-0.16c0.66,0.3 1.12,0 1.68,-0.45c-0.82,-0.09 -0.11,-0.44 -0.2,-0.68c-0.61,-0.28 -0.74,0.94 -1.49,0.53l-0.04,0.05zm-0.3,9.14c1,0.17 -0.15,-2.26 -1.44,-0.3c-0.53,1.03 1.03,-0.29 1.44,0.3zm-4.46,-7.67c0,0.22 -0.38,0.26 -0.29,0.35c0.51,0.54 -0.28,0.32 -0.3,0.56c0.63,0.48 0.59,0.41 0.61,0.52c-0.44,0.27 -1.37,-0.24 -1.75,0.28c0.34,2.06 2.28,0.15 2.6,1.17a0.66,0.66 0 0 0 1,0.22c0.93,-0.75 1.13,-0.62 1.05,-0.89c-0.19,-0.61 0.8,-1.4 0.76,-1.95c-0.28,-0.12 -0.46,0 -0.7,0.16s-1.55,0.22 -1.23,0c0.47,-0.36 -0.17,-0.34 -0.17,-0.53s0.09,-0.08 -0.82,-0.16a0.17,0.17 0 0 0 0,-0.1l1.28,-0.43c-0.09,-0.34 -0.35,-0.45 -0.51,-0.65l0,0a1.5,1.5 0 0 0 -1.86,0c-4.46,2.65 0.03,1.46 0.33,1.45zm57.43,0.42c-0.79,-0.09 -0.59,0.48 -0.63,0.91c1.05,-0.27 1.06,-0.28 0.63,-0.91zm0,0l0,0zm-10,-0.55zm7.63,-0.65l0,0c-0.1,0.21 -0.81,0.69 -0.48,0.84c0.5,0.39 0.9,-0.39 0.43,-0.84l0.05,0zm14.87,3.45c-0.27,-0.35 -0.44,-0.18 -0.65,0.07a0.74,0.74 0 0 0 0.65,-0.07zm-13.72,-1.77c0.4,0.2 0.22,-0.91 -0.57,-0.94a0.38,0.38 0 0 0 -0.42,0.47c0.08,0.47 0.62,0.3 0.99,0.47zm12.29,1c0.61,-0.13 0,-0.6 0.32,-0.73c-0.22,-0.46 -1.32,0.14 -1.78,0a1.16,1.16 0 0 0 -0.12,0.22c0.15,0.65 0.92,0.64 1.55,0.49l0.03,0.02zm17.62,46.54zm-15.15,-47.14a0.37,0.37 0 0 1 0,-0.11a2.39,2.39 0 0 0 -1.48,-0.18c0.58,0.66 0.88,0.66 1.48,0.29zm27.34,59.3a3.15,3.15 0 0 0 1,1.34a1.58,1.58 0 0 0 -1,-1.34zm-12.22,-12.18c-0.39,-0.58 -0.72,-0.58 -1.18,0c0,0.09 0,0.18 0,0.27s0,0.27 0.14,0.39s0.32,0.12 0.26,0.43c-0.19,0.94 0.37,0.68 1.07,0.64c0.63,0.26 1,0.9 1.62,1.17a2.87,2.87 0 0 0 0.14,0.56c-0.07,0.62 -0.42,1.25 2.35,1.74c1.18,0.89 3.55,1.31 2.64,-0.18a4.39,4.39 0 0 1 -0.84,-2c0,-0.74 -1.94,-2.17 -3.28,-2.68c-1.73,-0.63 -2.22,1.2 -2.92,-0.34zm-75.07,-46.44c0.73,0.25 1,0 0.66,-0.5c-0.47,-0.11 -0.56,0.19 -0.66,0.5zm70.86,-0.11c-0.12,-0.06 -0.12,-0.29 -0.31,-0.23c-1.29,0.41 0.1,0.81 0.31,0.23zm-34,-1.13a0.76,0.76 0 0 0 -0.47,-0.87c-0.2,0.89 0.39,1 0.44,0.87l0.03,0zm-10.91,1.37c-0.33,0.46 0.06,0.59 0.28,0.82l1.19,-1.53c-0.94,-1.07 -1.29,-0.17 -1.68,-0.74a0.08,0.08 0 0 1 -0.1,0c-1,0.48 0.67,0.91 0.28,1.45l0.03,0zm-25,-2c-2.83,-0.4 -1.24,-0.89 -1.2,-1c-1.09,-0.63 -0.84,-0.56 -1.2,-0.22c-0.18,0.18 0,0.23 0.1,0.33c0.3,0.23 -1,1.06 -0.36,1.2c0.82,0.16 1.63,0.35 2.45,0.53c0.59,-0.39 0.98,-0.71 0.14,-0.83l0.07,-0.01zm26,0.48c0.5,0.16 0.81,0.73 1.26,0.67c1,0 1.28,-0.89 0.24,-0.88c-0.4,0 -0.78,0.13 -1.15,-0.16c-0.2,-0.11 -0.72,0.29 -0.4,0.38l0.05,-0.01zm-26.62,-3.06c-0.2,-0.64 -0.69,-0.15 -0.91,0.42c-0.15,0.27 0.83,0.21 0.86,-0.41l0.05,-0.01zm27.5,5.14c0.44,-0.06 0.65,-0.26 0.22,-0.55c-0.48,-0.71 -0.86,0.55 -0.22,0.55zm8.09,2.51l0,0l0,0l0,0zm2.63,-2.57c-1.42,1.3 -3.16,0.85 -2.64,2.54c2.52,-1.67 3.03,-1.81 2.64,-2.56l0,0.02zm-5,-2.32c0.09,-0.22 -0.29,-0.22 -0.31,-0.06s0.24,0.19 0.31,0.04l0,0.02zm1.64,6zm1.64,0.67c-0.56,-0.55 -0.61,-1.24 -0.92,-1.82c-0.69,0.1 -0.63,0.67 -0.72,1.15c0.91,-0.18 0.1,0.91 1.64,0.69l0,-0.02zm33.59,41.24a2,2 0 0 0 -1.26,0.25c-0.19,-1.75 1.3,-0.07 1.82,-1.29l-2.1,0.21c-0.47,1.11 -1.05,2.21 -0.1,3.37c0.14,-0.31 0,-0.69 0.26,-1c0.4,0.66 0.43,0.85 0.72,0.65s0.3,-0.21 -0.24,-0.8s0.67,-0.41 0.9,-1.37l0,-0.02zm-0.5,-5.73l0,-0.76c-0.41,0.47 -0.41,0.48 0,0.78l0,-0.02zm0.86,-1.15l0.18,-0.08l-0.4,-0.79c-0.37,0.49 0.04,0.64 0.22,0.89l0,-0.02zm-1.53,0c0,0.44 0.34,0.34 0.43,0.07s-0.4,-0.45 -0.43,-0.03l0,-0.04zm1.21,1.79c-0.56,-0.32 -0.54,0.26 -1,0.51c0.61,-0.1 0.91,-0.06 1.08,0.42c0.07,0.2 0.46,0.54 0.66,0c0.09,-0.25 0.27,0 0.38,-0.09l0,0l0,0c-0.22,-2.77 -0.98,-0.72 -1.12,-0.8l0,-0.04zm-0.65,-15c-0.24,0.26 0,0.25 0.16,0.32c0.38,0.18 0.15,0.84 0.46,0.87s0.34,-0.54 0.37,-0.76l0,0c-0.54,-0.56 -0.61,-0.81 -0.99,-0.44l0,0.01zm2.09,24.82zm-4.34,-8.93c0,-0.3 -0.88,0.07 -1,0.62a1,1 0 0 1 -0.62,0.71s0,0.07 -0.09,0a5.43,5.43 0 0 0 -1.66,1.51c-1.07,0.15 -0.05,1.68 0,2.37a0.09,0.09 0 0 1 0,0.11c3.09,2.65 3,-1.19 3.67,-1.64s-0.89,-2.08 -0.21,-2.14s0.49,-0.58 0.69,-0.91c-0.29,-0.15 -0.73,-0.12 -0.78,-0.64l0,0.01zm1.22,8.9c0.38,0 0.71,0.17 1.05,-0.21c-0.4,-0.02 -0.74,-0.21 -1.05,0.2l0,0.01zm-1.14,-18a2.58,2.58 0 0 0 0.17,-1.48a1.22,1.22 0 0 0 -0.17,1.42l0,0.06zm0,18.31c0.18,-0.08 0.49,0 0.54,-0.25c0.1,-0.78 -1.65,0.25 -0.58,0.19l0.04,0.06zm0.85,-15.9c-0.19,0 -0.54,-0.2 -0.57,0.09s-0.35,0.79 -0.2,1.24c1.12,1.27 0.69,1.41 1.95,1.76c0.14,0 0.29,0.2 0.4,0c-0.07,-1.76 -1.62,0.85 -0.93,-3.17c-0.3,-0.32 -0.49,-0.15 -0.69,0.02l0.04,0.06zm0.65,-0.1l0,0zm1.46,3.31l0,0zm10.44,20.83c-1.65,-4 -0.72,-4.57 -1.68,-4.78c-0.23,-0.36 -0.29,-3.54 -1.47,-1.16c-0.59,1.19 -0.19,3.56 -1.89,2.09c-1.25,-1.08 0.3,-1.64 0,-2.25c-0.68,-0.06 -1.12,-0.91 -1.93,-0.65l0,0c-1.11,0.67 -1.46,1 -1.63,1.54s-0.55,-0.69 -1.34,-0.06c-3.94,3.12 -0.83,2 -6.17,4.49c-0.75,0.24 -0.25,0.91 -0.62,1.8c-0.6,1.46 0.2,3.18 -0.36,4.74a0.56,0.56 0 0 0 0.29,0.73c0.37,0.65 0.49,0.7 1.13,0.41c0.14,-0.06 4.9,-1.86 6.42,-1.34c0.57,0.84 -0.14,1.74 1.35,1.29c-0.32,0.67 0.08,1.24 0.26,1.82c0.35,1.15 0.9,0.94 1.94,1.28c0.41,1.3 7.98,-4.4 5.66,-10.01l0.04,0.06zm-17.32,-9.69c-0.55,0 -1.09,-0.31 -1.6,0.14c0.48,0.8 1.1,0.45 1.73,0.78a5.8,5.8 0 0 0 1.81,0.39c1.28,0.1 -0.69,-1.78 -1.98,-1.37l0.04,0.06zm10.65,22.42c0.23,0.35 0.59,0.1 0.89,0a0.08,0.08 0 0 1 0.09,-0.05c1.5,-2.21 -2.16,-1.66 -1.02,-0.01l0.04,0.06zm10.85,-0.14c-0.82,1 -0.26,0.27 -4.05,2.84c0.83,0.15 0.5,0.76 0.91,0.56c2,-0.94 0.91,-1.09 2.89,-1.86c1.49,-0.65 1.11,-2.64 0.22,-1.6l0.03,0.06zm2.76,-4.15a3.38,3.38 0 0 0 -0.43,1.92c0.08,0.68 -1.09,1 -0.42,1.72a0.83,0.83 0 0 1 -0.17,0.18c-1,0.51 -0.33,1.23 0.36,0.34c1.13,-1.59 1.22,-0.22 2,-1.74l0,-0.13c-1.28,-0.09 -1.22,-0.22 -1.38,-2.35l0.04,0.06zm-16,-47.24c0.47,0.39 0.38,-0.3 0.64,-0.31c0.8,0 0.86,-0.61 0.87,-1.21l-0.11,-0.09c-0.66,0.21 -1,-0.42 -1.62,-0.56a8.6,8.6 0 0 1 0.16,1.2c-0.08,0.26 -0.35,0.59 0.02,0.91l0.04,0.06zm-1.5,31.24a0.43,0.43 0 0 1 0.38,-0.15c0.32,-0.17 1.14,-0.09 1.08,-0.66c-0.92,-0.42 -2.53,0.69 -1.5,0.75l0.04,0.06zm-2.33,-12.24c-0.47,0.38 -0.48,1 -0.88,1.46c0.73,-0.14 1.05,-0.69 0.84,-1.52l0.04,0.06zm-6.16,7.74c-0.72,-0.79 -1,-1.92 -2,-2.49c-0.38,-0.22 -0.6,-2.19 -3.08,-1.32c2.85,0.15 3.48,7.12 5.48,5.36a1.66,1.66 0 0 0 -0.44,-1.61l0.04,0.06zm0.91,-12.5c-0.16,0.15 -0.48,0.28 -0.3,0.55s0.46,0.08 0.68,0c0.91,-0.67 0.31,-1.31 -0.42,-0.61l0.04,0.06zm-0.53,14l0,0zm11.33,-25.16a2.18,2.18 0 0 1 -0.22,-1.39c0.13,-0.5 -0.91,-1.32 -1.43,-1.18c1.6,3.65 -0.93,1.26 -1.83,4.38a1.77,1.77 0 0 0 0.9,-0.09a3.18,3.18 0 0 0 -0.11,0.92c0.22,0.14 0.24,-0.15 0.38,-0.18a0.59,0.59 0 0 0 -0.09,-0.74c0.44,-0.17 0.6,0.21 0.88,0.57c0.01,-1.76 2.01,-0.7 1.48,-2.31l0.04,0.02zm-73,-19.49c0,-0.07 -0.1,-0.18 -0.16,-0.27s-0.4,-0.07 -0.37,-0.35c0.06,-0.6 0.55,0 0.68,-0.63c0.07,-0.35 0.64,-0.66 0,-1c0.32,-0.48 0,-0.36 -0.3,-0.37c-0.93,-0.31 1.18,-0.7 -0.63,-1.23l-0.28,0.25c-0.67,0 0,-0.51 0.12,-0.8c0.44,-0.51 -0.89,-0.53 -2.37,0.94c-0.18,0.08 -0.22,0 -0.15,-0.15c0.28,-0.6 0.94,-0.8 1.43,-1.31c-0.18,0 -2.8,0.19 -2.44,2c0.13,0.68 0.85,0.3 1.07,0.51c0.72,0.32 1.57,-0.14 1.13,0.93c0,0.11 -0.2,0.17 0,0.31c0.8,0.56 -0.82,1.13 -1.2,1.82c-0.54,1 -1.55,-0.4 -2.18,0.62c0.23,0.57 1.72,-0.07 1.26,1.24c-0.05,0.12 0,0.08 1.05,0.88c0.14,-0.27 -0.07,-0.62 0.15,-0.71s0.47,0.12 0.6,0.39s0.22,0 0.29,-0.06c1.08,-0.91 -0.09,-1.8 0.71,-2.34c0.36,-0.19 0.24,0.19 0.33,0.3s0.34,0 0.47,0.13s-0.35,0.36 -0.18,0.65a5.38,5.38 0 0 0 1.79,-1.07c-0.66,-0.04 -1.04,-0.1 -0.85,-0.7l0.03,0.02zm-2.79,-0.9c-0.28,-0.09 -0.57,-0.13 -0.64,0.31s0.48,0.12 0.61,-0.33l0.03,0.02zm4.88,-5.92a3,3 0 0 0 2.13,-0.47c-0.12,-0.67 0.42,-0.39 0.68,-0.45c5.14,-0.64 2,-1.43 5.14,-1.31c-0.79,-1.32 -2.87,-0.84 -3.41,-1.21c-0.43,-0.14 -0.92,0.35 -1.33,-0.11a5.65,5.65 0 0 1 -1.59,0c-0.13,0.16 0.05,0.51 -0.34,0.53a0.23,0.23 0 0 0 -0.2,0.29a0.34,0.34 0 0 0 0.35,0.25c0.6,-0.14 1.17,0.17 1.78,0.07a1.32,1.32 0 0 1 1.35,0.37c-1.86,-0.55 -2.95,0.85 -3.11,-0.11c-0.32,0.09 -0.44,0.43 -0.76,0.45c0.36,-0.51 -0.22,-0.85 -0.25,-1.29c-0.08,-1.41 -1.31,1 -2.38,1.46c0.76,1.06 0.56,-0.31 1.86,0.13a1.11,1.11 0 0 0 0.65,-0.06c0,0.95 -1.36,-0.14 -1.16,0.9c0,0 0.36,0 0.13,0.27c-0.76,0.27 -0.34,-1.36 -2.19,0.44c0.58,0 1.23,-0.08 1.55,0.18s0.81,0.2 1.21,0.2c0.02,-0.25 -0.23,-0.35 -0.14,-0.55l0.03,0.02zm4.27,10c1.14,-0.85 0.11,0 2.61,-1c0.78,-0.32 0.76,-0.88 1.49,-0.7a3.08,3.08 0 0 0 2.48,-0.61c1.14,-0.73 -0.54,-0.76 -0.37,-1.13s0.34,-0.33 0.65,-0.09c0.69,0.54 1.15,-0.3 0.72,-0.74c-0.15,-0.15 -0.24,-0.33 -0.08,-0.53c0.47,-0.58 1.05,0.37 1.35,-0.25c0.23,-0.47 0.69,-0.77 0.86,-1.25c0.48,-1.36 0.73,-0.37 1,-1.11a2.93,2.93 0 0 1 0.74,-1.16c0.3,-0.28 0.28,-0.88 0.85,-0.88c0,-0.46 0.28,-0.19 0.45,-0.19c0.56,0 0.95,-0.32 0.88,-0.76l-0.13,-0.11c-2.72,0 -1.58,0.44 -3.8,-0.57c0.85,-0.45 1.71,0.37 2.54,-0.14c-1.31,-0.34 0.23,-0.52 -3,-0.52c0.54,-0.51 1.19,-0.22 1.8,-0.3c-0.44,-0.47 -0.44,-0.47 -3.51,-0.15c0.06,0.14 0.12,0.28 0.23,0.56c-0.72,-0.51 -0.85,0 -1,0.52c-0.46,-1.13 -1.18,-0.16 -1.75,-0.53c0,-0.71 -0.57,-0.45 -0.84,-0.4c-5.64,1.06 -0.51,0.73 -5.26,1.56c-1,0.18 -0.13,1.05 -0.18,1.23c-0.45,0 -1.07,-0.19 -0.92,0.68c0.6,0.12 1.56,0 1.92,0.57a2.31,2.31 0 0 1 -0.94,2.39c-0.13,0.08 -0.29,0.18 -0.22,0.35s0.82,-0.3 0.86,0.22c0.06,0.89 -0.75,0.52 -0.92,0.65c0.34,0.74 0.18,1 -0.65,1.15l0,0l0,0a6.47,6.47 0 0 0 -2,3.71c-0.54,0.94 -0.05,1.4 0.7,1.9c1.45,1.14 2.21,-1.75 3.41,-2.36l0.03,-0.01zm-25.72,27.53l0.05,0l0,0c0.67,-0.18 0.84,0.68 1.08,0.29a2.08,2.08 0 0 1 1.15,-0.72c-0.24,-0.84 -1.74,-1 -2.37,-0.8c0.44,0.69 0.4,0.76 -0.46,0.86c0.12,0.26 0.4,0.19 0.55,0.37zm11.38,-28.42c-0.47,-0.25 -0.52,-0.24 -0.94,0.2c0.41,0.04 0.67,0.04 0.94,-0.2zm0.77,10.92c-0.27,0.32 -0.69,0.24 -0.76,0.6s0.81,0.52 0.76,-0.6zm2.44,-2.22l-0.56,0.25c-0.27,0.55 -0.83,0.88 -1.07,1.45c0.71,0.23 2.31,1.48 2.43,0.63c0.06,-0.39 0.08,-1 -0.18,-1.16c-0.67,-0.42 -0.4,-0.77 -0.12,-1.2l-0.5,0.03zm-16.69,19.48a0.38,0.38 0 0 0 0.51,-0.15c-0.45,-0.33 -0.72,0.05 -0.51,0.15zm35.95,-17.14l0,0zm-34,16l-0.55,-0.71c-0.05,0 -0.07,0 -0.07,-0.07c-3.14,-2.85 -4.34,-0.25 -3.15,-0.68c0.75,-0.17 2.28,0.54 2.33,1.19s0.21,0.47 1.38,0.28l0.06,-0.01zm2.88,1.51c0.37,-0.16 0.85,0.14 0.69,-0.5c0,0 -0.07,0 -0.08,0c-0.38,-0.06 -0.49,0.19 -0.67,0.51l0.06,-0.01zm73.74,2c0.18,0.27 0.2,0.64 0.49,0.84c0.36,1.55 -0.14,3.27 0.24,3.55s3,5.68 3.1,3.37c0.19,-2.16 -2.87,-3.13 -2,-5.49c0.19,-0.71 1.75,0.91 1.88,1.31c0.26,0.93 1,0.17 1.26,-0.36c3.48,-1.81 -3,-5.71 -0.22,-6.14c4.3,-0.61 4.05,-3 4.85,-5.14l0,0c0.36,-0.63 -0.66,-0.94 -0.73,-1.39c0.42,-1.16 -1.38,-1.22 -1.15,-2.63c0.15,-1 -0.1,-1.23 -1.1,-1.15c-1.28,0.07 0.27,-2.09 0.37,-0.81c0.42,1.15 1.23,-0.35 1.5,0.17s0.81,0.64 1,1.15s0.55,0.74 0.62,1.23c0,0.21 0.24,0.22 0.43,0.2c1.34,-0.16 1,-1.92 0.34,-2.3c-0.92,-0.51 -0.93,-1.21 -0.58,-2.05c0.09,-0.2 0,-0.65 0.51,-0.85c2,-0.74 1.58,-3.51 0.76,-5.46c0.53,0.4 1.48,2.85 2,2.51c0.23,-0.15 -0.08,-0.45 0,-1.79c0,-0.48 -0.67,-0.75 -1,-1.17c-0.1,-0.14 -1.07,-1.35 -1.36,-1.42c-0.55,-0.74 -0.38,0.29 -0.78,0a1.22,1.22 0 0 0 -1.07,-0.12c-0.5,0.11 -1.2,-0.45 -1.1,-0.82c0.57,-4 1.06,-1.36 2.7,-3.17a0.38,0.38 0 0 1 0.4,0c0.24,0.42 0.24,0.42 0.5,0.32l0,0c1.41,-0.38 -0.26,-1.21 0.47,-1.93c0.55,-0.54 1.66,1.37 1.54,-1c1.13,1.71 -0.87,2.59 0.34,4.31c2.31,3.22 2.22,3.2 2.63,3.12l0,0c0.17,0 0.31,-0.16 0.29,-0.31c-0.17,-1.1 0.62,-0.61 -0.25,-3.25c-0.31,-0.43 -0.62,-0.91 -0.78,-0.94c-1.15,-2.22 0.36,-1 1.78,-3c1.25,-1.79 -0.79,-1.7 -0.74,-2.24c0.1,-1 2.93,0.06 2.66,-0.5c-0.54,-2.9 -1.25,-1.28 -3.31,-1.93c-1,-0.9 -5.83,-1.11 -5.67,-0.51c0.19,0.76 -1,0.16 -1.66,0.54c-1,0.59 -1.6,-1 -2.86,-0.27c-1.28,0.53 -5,-1.71 -5.51,0c0,0.43 -0.18,0.46 -0.52,0.45c-2,0.11 -0.74,1 -2.26,-0.08c-0.32,-0.7 -1.93,-1.11 -2.17,-0.47s-0.77,-0.16 -2.27,0.17c-0.55,0.12 -1.24,-0.21 -1.61,0.52c0.1,-0.39 0.89,-1.69 0.1,-2.2c-0.14,-0.27 -1.57,0 -2.35,-0.31c-0.23,-0.1 -0.36,-0.49 -0.72,-0.23c-0.6,0.42 0,1.25 -0.89,1.22c-2.1,-0.06 -1.87,1.6 -3,2c-0.72,0.4 -0.05,0.84 0.42,1.29a0.91,0.91 0 0 0 -1.14,-0.08c-0.65,0.51 -1,-1.4 -1.21,0.55c-0.15,-0.57 -0.14,-0.88 -0.56,-1c-1,-0.51 -1.2,0.52 -1.18,1.71c-0.12,0.47 0.35,0.65 0.51,1c-0.36,-0.17 -1.4,-0.74 -1.67,-0.34c-0.87,1.28 -2.33,-0.57 -3.84,1.27c-0.09,0.11 -0.1,0.32 -0.32,0.24s0,-0.24 0,-0.36c0,-0.66 -1,-0.6 -0.92,-0.08c0.26,1.13 -0.62,1 -1.22,1.68s-1.71,-0.12 -1.68,-0.8c0.46,0 1.46,1 2,-0.21a0.61,0.61 0 0 0 -0.44,-0.92c-0.05,-0.26 -0.26,-0.3 -0.51,-0.43c-0.14,-0.29 -0.42,-0.27 -0.68,-0.33c-1.9,-0.46 -0.63,-0.82 -1.71,-1c-1.47,-0.22 -1.62,0.41 -2.33,0.54a2.76,2.76 0 0 0 -2.3,1.88c-0.33,0.43 -0.9,0.78 -1.19,1.28c-1.34,2.21 -2,0 -2.65,3.6c-0.14,1.7 1.7,-0.09 1.82,0.94c0.59,3.61 2.8,-0.44 2.84,-2.23a2.79,2.79 0 0 1 1.75,-2.31c-0.85,1.21 -1.58,3.61 0.75,3.24c0.28,-0.06 0.57,-0.13 0.82,0.17a1.63,1.63 0 0 1 -1,0.08c-0.9,-0.24 -0.79,1.18 -1.53,1.49c-0.45,0.29 -0.16,1.45 -1.42,1.4s-2.23,1.47 -2.6,-0.76c-0.08,-0.92 -1.17,-0.36 -1.18,0.32c-0.48,1.86 -1,0.86 -1.79,1.79c-0.92,1.38 -2.51,1.6 -3.84,2.26a1,1 0 0 0 0.45,1c0.74,0.61 0.37,2.06 -0.39,1.93c-3.14,-0.55 -2.24,0.29 -2.83,1.51c-1.3,2.66 -0.16,2.31 0.46,2.73a2.2,2.2 0 0 0 3,-1.08c0.47,-1.22 1.36,-1.06 1.87,-2.09c0.3,-0.6 0.67,-0.17 1.61,-0.6s1.15,0.66 2,1.27c1.32,1 0.67,2.24 1.45,1.55c1.76,-1.55 -0.43,-1.72 -1.06,-3.29c-0.19,-0.48 0.24,-0.53 0.64,-0.06c2.59,2.92 1.84,6 3.55,3.83c0.22,-0.29 -0.78,-1 -0.24,-1.17c2.23,-0.77 2.31,-0.22 2.3,-1.53s0.92,-3.09 1.65,-1.16c0.47,0.48 1.58,0 1.19,-0.58c-0.08,-0.11 -0.29,-0.21 -0.1,-0.38s0.55,-0.16 0.5,0.31c-0.15,1.28 2.37,1.93 1.18,2.46s-1.31,-0.7 -2.25,-0.57c-0.74,0.25 -3.21,1 -3.4,1.74c-0.38,1.91 1.84,2.37 3.25,2c0.26,-0.1 0.37,-0.05 0.34,0.25c-0.35,3.31 -1.29,1.62 -1.93,2.15a1.07,1.07 0 0 1 -1.24,0.07c-3.93,-1.79 -3.45,1.18 -4.95,-0.25s-2,-0.93 -1.82,-1.68c0.58,-3 -4.22,-0.63 -6.8,-0.8c-0.29,0 -0.64,0 -0.79,0.24c-0.6,1 -1.94,1.57 -1.84,3c-7.25,3.39 -3.9,15.36 0.36,14.67c1.22,-0.42 2.54,-0.42 3.76,-0.89c0.85,-0.33 1.27,0.53 1.72,0.64a1.76,1.76 0 0 0 0.74,0.22c1.13,0.29 0.13,0.87 0.37,1.93s-0.18,1.39 0.62,2c0.21,1 0.64,0.39 1.18,2.47c0.76,2.74 0.66,1.93 0,3.12c-0.92,2.58 0.36,2.94 0.38,3.8c1.17,2 0.64,2.38 1.54,4c1.86,3.37 0.56,3.78 1.7,4.11c0.27,0.49 4.4,-0.27 4.7,-1.75c0,0 1,-0.44 1.19,-2.71a0.85,0.85 0 0 1 0.53,-0.79c1.4,-0.69 0.5,-1.92 0.55,-2.16c-0.29,-0.68 0,-0.49 0.68,-1.59c4.32,-1.88 -1.12,-6.3 2.89,-10.12c1,-0.28 2.91,-3.38 2.94,-4.48c0.38,-0.36 1.12,-2.32 0,-1.87c-4.17,1.08 -2.18,0 -3.35,-1s-1.69,-1.92 -3.91,-8.15c0.92,-0.24 0.29,1.16 1.87,2.76c0.26,1.44 1.26,2 1.83,4.28s2.5,1.78 4.08,0.37c2.46,-1.14 4,-3.45 3.49,-4.1c0,-0.47 0.05,-0.5 -0.58,-0.85c-0.86,-0.48 -0.69,-1.88 -1.63,-0.82s-1,0.27 -1.54,-0.26c-1.7,-1.59 -1,-2.75 -0.61,-1.94c0.81,1.9 2.53,1.21 3.15,1.82c1.28,1.18 3.89,-0.39 5.19,1.61c0.25,0.87 0.05,1.59 1.42,1c0.71,-0.29 0.24,0.77 1,2.52c1.85,4.52 1.75,4.94 2.55,4.52a1.51,1.51 0 0 0 0.74,-1.44a0.07,0.07 0 0 1 0,-0.1c0.62,-1.28 -0.25,-1.34 0.95,-2.94c0.47,-0.62 1.18,-1.08 1.41,-1.88a1.53,1.53 0 0 1 2.7,-0.77l0,0c1.53,0.54 0.35,3.65 2.43,2.5l0.06,0.04zm-16.47,-29.59c0.48,-0.33 0.34,-0.72 -0.14,-2.39c0.26,0.64 0.88,0.79 1.4,1c-0.92,0 -0.62,1.12 -1.26,1.39zm2.11,-3.45a1,1 0 0 1 0.25,0.37a1.1,1.1 0 0 0 -0.25,-0.37zm26.19,5.43l0,0l0,0zm-49.93,12.74c-0.24,0.2 -0.33,0.38 0.08,0.68c-0.03,-0.3 0.05,-0.49 -0.08,-0.68zm-0.35,2.34c0.58,0 0.6,-1.28 0.1,-1.29c-0.66,-0.02 -0.4,1.26 -0.1,1.29zm-4.47,-6l0,0zm36.06,24.22c0.36,-0.13 0.51,-0.35 0.36,-0.71c-1.4,-3.39 -1.7,1.2 -0.36,0.71zm-35.65,-34.23c0.53,-0.6 0.42,-1.55 -0.72,-1.47c-0.54,0 -1.12,0.28 -1.65,-0.09c-0.07,-0.05 -0.15,0 -0.19,0.13l0,0c-0.34,0.17 -1,-0.05 -0.34,0.65c-0.63,1.46 2.28,1.8 2.9,0.78zm-0.22,8c1,-1 1.3,-2.38 -0.62,-1.87c-0.47,0 0,0.25 -0.69,1.58c-0.37,0.66 0.83,0.83 1.31,0.27l0,0.02zm20.72,36.67a4,4 0 0 0 -0.91,1.65c-2.23,0.37 -0.29,1.49 -1.18,2.91a2.1,2.1 0 0 0 0.28,2.53c2.51,0.43 1.6,-3.71 2.95,-5.26c0.13,-0.45 -0.29,-2.83 -1.14,-1.85l0,0.02zm-18,-37.13a4.65,4.65 0 0 1 -0.41,-2.71a0.79,0.79 0 0 0 -0.58,-0.92c-0.43,-0.14 -0.26,0.35 -0.52,0.76c-0.89,1.37 1.2,2 0.08,2.24s-0.07,1 -1.34,1.79c-0.37,0.23 0,0.25 0.09,0.35c1.23,-0.18 3.12,-0.23 2.7,-1.53l-0.02,0.02zm16.17,44.23l0,0z"/>
  </clipPath>
  <clipPath id="clip-path-3">
   <path id="svg_3" fill="#fff" d="m283.4,43.93c-0.23,0 -0.53,-0.11 -0.64,0.26c0.18,0.11 0.3,0.41 0.58,0.24s0.19,-0.32 0.06,-0.5zm-1.82,1.35c-0.15,0.27 -0.54,0.35 -0.61,0.85a2.45,2.45 0 0 1 1.46,-0.45c1.31,-0.07 0.75,-1.51 -0.85,-0.4zm0.42,-4.39l0,0zm0.3,0.57a1.2,1.2 0 0 0 -1.3,-0.06c-0.36,0.54 0.86,0.54 1.3,0.06zm-2.71,1.35c0.74,-1.26 -0.95,-0.63 -1.64,-0.15a1.47,1.47 0 0 0 0.69,0.23l0,0.22c-0.55,0 -0.54,0.41 0,0.41c0.35,0 0.68,-0.31 1,-0.16c0.66,0.3 1.12,0 1.68,-0.45c-0.82,-0.09 -0.11,-0.44 -0.2,-0.68c-0.65,-0.23 -0.78,0.99 -1.53,0.58zm2.6,-1.93l-0.19,0c0.31,1.12 2,0 0.19,0zm-0.31,2.47c0.52,0.26 0,0.38 0,0.56a1.38,1.38 0 0 0 1.69,-0.9c-1.45,-0.13 -1.85,0.26 -1.69,0.34zm-2.32,1.19c0,-0.38 -0.31,-0.38 -0.58,-0.35s-0.13,0.36 -0.22,0.53c0.1,0.34 -0.14,0.57 0.8,-0.18zm0.61,1.45c0.64,-0.11 0.57,-1 1.26,-1c-0.66,-0.79 -1,-0.28 -1.58,0c-0.99,0.1 -0.71,1.23 0.32,1.01l0,-0.01zm-23.94,12.11c0.07,-0.7 -0.56,-1.25 -0.62,-1.09c-0.48,1.26 0.57,2.8 0.62,1.09zm23,-6.1c1,0.17 -0.15,-2.26 -1.44,-0.3c-0.51,1.03 1.05,-0.29 1.46,0.3l-0.02,0zm5.77,-10a0.57,0.57 0 0 0 0,-0.88c-0.7,-0.61 -0.78,0.29 -1.34,0.49c0.5,0.14 0.75,0.86 1.34,0.39zm-27.81,11.37c-0.83,0.21 -0.5,0.68 -0.37,0.64c0.28,-0.08 0.25,-0.35 0.37,-0.64zm24.51,40.55c-0.54,-0.59 -1.18,-0.35 -1.86,-0.25c-1.38,-1.16 -0.78,-1.08 -2.52,-1.21a1.15,1.15 0 0 0 -1.06,-0.07c1.92,-1.13 -0.62,-4.23 -2.79,-4.29a2.36,2.36 0 0 0 -1.07,-1.16c-0.45,-0.85 -1,-1.58 -2.11,-1.42a2.69,2.69 0 0 1 -2,-0.58c-0.3,-0.69 -1,0.54 -1.07,1.22a1.29,1.29 0 0 1 0.29,-0.9c0.48,-1.28 -2,-0.78 -2.25,0.87c0.07,0.13 -0.54,0.77 -1.11,0.1s-0.59,0.19 -2,-0.21c-0.73,-1.12 0.87,-2.37 0.27,-3.45c-0.18,-0.63 -0.75,-0.62 -1.22,-0.72c-2.15,-0.38 1.87,-2.75 0.36,-3.46c-1.62,-0.51 -2.08,1.87 -3.52,1.64a1.07,1.07 0 0 1 -0.7,-1c-0.36,-2.54 1.37,-3.12 1.43,-4.7a2.23,2.23 0 0 1 2.58,-0.8c2.22,0.87 0.9,-1.22 2.38,-0.32c1.81,0.46 -0.16,2.54 1.34,3.3c0.73,0.22 1.19,-2.7 1.23,-3.08c0.19,-2 1.89,-1.4 2.5,-2.76c0.18,-0.12 0.44,-0.12 0.54,-0.36c0.12,0 0.36,-0.09 0.24,-0.28l0,0c0,-0.29 0.46,-1.32 0.63,-1.29c1.08,0.18 1.2,-1.38 1.69,-1.42a5.5,5.5 0 0 0 2.71,-2.1a9.34,9.34 0 0 0 1.52,-0.35c0.09,0.17 -0.68,1 0.34,0.77c1.62,-0.42 2.6,-0.75 1.68,-1.45c-1.18,-0.92 0.36,-1.35 0.24,-1.78c-0.24,-0.88 -2.61,0.51 -2.61,0.38a3.31,3.31 0 0 0 1,-0.48c2.37,-1.77 1.91,0 4.82,-0.91a1.09,1.09 0 0 0 0.62,-0.43c0,-0.14 0.17,-0.11 0.27,-0.11c1.61,-0.55 -0.6,-3 0.08,-3.18c0.43,-0.47 0.77,-2.43 0.26,-2.63c-0.68,-0.28 -1.08,1.3 -1.67,0.84c-0.35,-0.27 0.07,-0.5 0.19,-0.72c0.81,-1.49 -0.37,-1.93 -1.12,-2.22c-1.65,-0.64 -1.2,1.2 -2.56,2c-0.51,0.77 -0.05,1.84 -1.42,2s-1.41,1.57 -2,2.45s-1.18,0 -0.42,-0.85c0.21,-0.24 1,-1.17 0.39,-1.38c-0.84,-0.21 -0.83,-1 -1.32,-1.55c-1.52,-1.41 0.74,-2.31 1.8,-2.91c2.22,-1.68 3.4,-0.89 3.53,-1.92c0,-0.36 2,-0.48 2.41,-0.5c0.82,0.09 0.9,-0.36 1.9,-1.46a0.64,0.64 0 0 0 -0.17,-0.83c-0.79,-0.55 -1.25,0.81 -2.07,1c0.83,-1.15 -0.24,-0.86 -0.38,-0.9a1,1 0 0 1 0.56,-0.62a1.08,1.08 0 0 0 0.35,-1.34c-0.41,-0.46 -0.78,0.24 -1.23,0.23c-1,0.18 -0.11,0.75 -1.24,1.65c0.45,-0.8 -0.66,-0.73 -1.15,-0.46a1.31,1.31 0 0 0 1,0.61a3.35,3.35 0 0 1 -1.12,0.71c0.75,-1.48 -0.48,0 -1.86,-1.48c-0.88,-0.94 -0.62,0.69 -1.74,0.53a1.34,1.34 0 0 1 -0.84,-1a1.07,1.07 0 0 0 -0.67,-1c-0.65,-0.31 -1.06,-1 -1.79,-1.18a2.45,2.45 0 0 0 -0.76,0.11c1.2,-0.51 -1.61,-0.33 -1.93,-0.27s-0.5,0.28 -0.61,0.12a8.6,8.6 0 0 0 -1.68,-1.71c-0.23,-1 -1.4,-0.71 -1.41,-1.4s-4.61,0.48 -5.49,0.56c-0.42,0 -1.08,0.86 -0.95,1.17s0.39,0.38 0,0.58a0.83,0.83 0 0 1 -0.94,0c-1.12,-0.81 -3.33,0.4 -2,1c0.28,0.11 0.62,0 0.88,0.24c-1.21,0.72 -3.82,-0.09 -4.58,1.81c-0.05,0.12 -0.1,0.11 -0.2,0.08c-0.53,-0.13 -0.49,0.3 -0.54,0.6c-0.09,0.49 0.41,-0.07 0.46,0.26l-0.67,0.62l1.42,0.78c-1.29,0.46 -2.39,1.23 -3.76,1.13c-1.63,-0.18 -2.71,1.83 3.22,0c-0.11,0.58 0.64,0.25 1.24,-0.1l0,-0.15l-0.51,0a26.73,26.73 0 0 1 3.29,-1.56c-2.37,0.89 0,1.43 1.07,0.5c1,-0.56 0.42,0.64 1.35,0.95s-0.22,1.53 0.91,1.53c0.33,0 0.17,0.26 0.11,0.39c-0.73,1.4 -0.93,3 -1.88,4.33c-0.64,0.88 1,1.5 -0.32,3c-0.46,-1.28 -1.79,1.27 -2.26,1.74a10.16,10.16 0 0 0 -2,2.47a3.56,3.56 0 0 0 -0.57,2.3c0.06,0.24 -0.27,0.09 -0.27,0.27s-0.83,2 -0.24,2.69a3.24,3.24 0 0 1 0.39,2.82c-0.15,0.37 0.31,0.89 -0.11,1.68c-0.17,0.31 -0.06,0.41 0,0.62s0.24,2.53 0.8,2.91c0.85,0 0,-4.82 0.52,-5.78a0.65,0.65 0 0 1 0.05,0.68c-0.44,1.24 0,1.86 1,6c0.15,0.61 -0.7,1.59 0.18,2.34s2.1,1.95 3.38,2.09a1.93,1.93 0 0 1 1.12,0.25a4.17,4.17 0 0 0 2.23,1.9a3.68,3.68 0 0 0 0.27,0.77c0.15,0.3 -0.15,1.1 0.29,1.2c0.7,0.1 0.86,1 1.59,1.07c0.43,0.34 0.66,0.67 0.88,0.24c0.37,-0.72 1.79,1 0.65,2.15s-2,5.77 -1.26,6.56a7.16,7.16 0 0 1 1.53,2.72c1.74,5.41 4.86,1.28 5.58,9.69c0,3.13 1.11,3.13 1.32,6.56c0.08,1.41 3.12,4.23 2.51,5.3s1,0.65 1,1.57c0,0.23 1.76,3 2.67,3c0.31,0 0.72,0.94 0.93,0.06c0.55,-2.42 -0.47,-0.68 -0.45,-3.38c0,-1.41 -1.47,-0.72 -0.93,-1.73c0.81,-1.5 -1,-2.37 -0.09,-3c0.33,-0.25 -0.44,-0.87 0.43,-1c1.76,-0.21 1,-2.22 0.75,-2.54c2.33,-0.56 0.36,-2 1.52,-2.25c0,-0.2 0.09,-0.41 0.13,-0.62a1,1 0 0 1 0.06,-0.76c0.5,-1.22 0.05,-0.62 0.19,-2.6c0.64,-0.5 0.94,-1.38 2,-1.64c2,-2.58 0.47,-2.41 1.46,-6.83c1.98,-2.01 0.6,-3.96 -1.46,-4.92zm-26.81,-45.38a1.26,1.26 0 0 1 0.58,-0.12a2,2 0 0 0 -0.58,0.12zm0.91,7.08c0,-0.12 -0.05,-0.27 -0.24,-0.26c-0.49,0.21 0.32,0.84 0.24,0.26zm22.73,-2.86c-0.47,-0.25 -0.52,-0.24 -0.94,0.2c0.41,0.04 0.67,0.04 0.94,-0.2zm-22.85,2.16a0.61,0.61 0 0 0 0.66,-0.25c-0.43,-0.31 -0.6,-0.18 -0.66,0.25zm23.72,70.21s-0.07,0 -0.09,0c-0.38,-0.1 -0.47,-0.86 -0.87,-0.53s0.34,0.47 0.36,1.48c0.61,-0.17 1.51,0.19 1.68,-0.13s-0.48,-0.8 -1.08,-0.82zm-34.18,-74.19c-0.06,0.47 0.52,0.3 0.61,-0.11c-0.24,0.05 -0.46,-0.11 -0.61,0.11zm-2.63,0.9c0.24,0 0.46,0 0.34,-0.34c-0.14,0.09 -0.35,0.11 -0.34,0.34zm32.2,-7.51c0,0.22 -0.38,0.26 -0.29,0.35c0.51,0.54 -0.28,0.32 -0.3,0.56c0.63,0.48 0.59,0.41 0.61,0.52c-0.44,0.27 -1.37,-0.24 -1.75,0.28c0.34,2.06 2.28,0.15 2.6,1.17a0.66,0.66 0 0 0 1,0.22c0.93,-0.75 1.13,-0.62 1.05,-0.89c-0.19,-0.61 0.8,-1.4 0.76,-1.95c-0.28,-0.12 -0.46,0 -0.7,0.16s-1.55,0.22 -1.23,0c0.47,-0.36 -0.17,-0.34 -0.17,-0.53s0.09,-0.08 -0.82,-0.16a0.17,0.17 0 0 0 0,-0.1l1.28,-0.43c-0.09,-0.34 -0.35,-0.45 -0.51,-0.65l0,0a1.5,1.5 0 0 0 -1.86,0c-4.46,2.65 0.03,1.46 0.33,1.45zm-31.45,7.53c0.17,0.06 0.47,0.15 0.43,-0.24l-0.38,0c-0.01,0.09 -0.23,0.18 -0.05,0.24zm34.38,-10c1.52,0 1.95,0 2.36,-0.52c-0.88,-0.43 -1.89,0.08 -2.83,0.1c-0.09,0.4 0.19,0.41 0.47,0.41l0,0.01zm53.28,3.37c0.4,0.2 0.22,-0.91 -0.57,-0.94a0.38,0.38 0 0 0 -0.42,0.47c0.08,0.47 0.62,0.3 0.99,0.47zm12.29,1c0.61,-0.13 0,-0.6 0.32,-0.73c-0.22,-0.46 -1.32,0.14 -1.78,0a1.16,1.16 0 0 0 -0.12,0.22c0.15,0.65 0.92,0.64 1.55,0.49l0.03,0.02zm-11.05,-1.46l0,0zm0,0c-0.79,-0.09 -0.59,0.48 -0.63,0.91c1.03,-0.29 1.04,-0.3 0.61,-0.93l0.02,0.02zm-2.42,-1.2l0,0c-0.1,0.21 -0.81,0.69 -0.48,0.84c0.53,0.37 0.93,-0.41 0.46,-0.86l0.02,0.02zm-7.63,0.65zm0.47,0.87a0.76,0.76 0 0 0 -0.47,-0.87c-0.19,0.87 0.4,0.98 0.45,0.85l0.02,0.02zm50.46,59.86a3.15,3.15 0 0 0 1,1.34a1.58,1.58 0 0 0 -1.02,-1.36l0.02,0.02zm-12.24,-12.2zm-16.16,-45.75c-0.27,-0.35 -0.44,-0.18 -0.65,0.07a0.74,0.74 0 0 0 0.65,-0.07zm11.95,-0.82c-0.12,-0.06 -0.12,-0.29 -0.31,-0.23c-1.29,0.43 0.1,0.83 0.31,0.25l0,-0.02zm-10.91,-0.57a0.37,0.37 0 0 1 0,-0.11a2.39,2.39 0 0 0 -1.48,-0.18c0.58,0.68 0.88,0.68 1.48,0.31l0,-0.02zm-59.95,0.68c0.73,0.25 1,0 0.66,-0.5c-0.47,-0.09 -0.56,0.21 -0.66,0.52l0,-0.02zm38.55,0.61c-1.42,1.3 -3.16,0.85 -2.64,2.54c2.52,-1.63 3.03,-1.77 2.64,-2.52l0,-0.02zm-12.63,-0.48c-0.33,0.46 0.06,0.59 0.28,0.82l1.19,-1.53c-0.94,-1.07 -1.29,-0.17 -1.68,-0.74a0.08,0.08 0 0 1 -0.1,0c-0.97,0.5 0.7,0.93 0.31,1.47l0,-0.02zm-25.85,-3.63c-0.23,-0.06 -0.41,-0.28 -0.76,-0.15c0.28,0.23 0.49,0.36 0.76,0.17l0,-0.02zm0.81,1.64c-2.83,-0.4 -1.24,-0.89 -1.2,-1c-1.09,-0.63 -0.84,-0.56 -1.2,-0.22c-0.18,0.18 0,0.23 0.1,0.33c0.3,0.23 -1,1.06 -0.36,1.2c0.82,0.16 1.63,0.35 2.45,0.53c0.66,-0.38 1.05,-0.7 0.21,-0.82l0,-0.02zm26.95,2.57c0.44,-0.06 0.65,-0.26 0.22,-0.55c-0.48,-0.71 -0.86,0.55 -0.22,0.55zm-27.55,-5.11c-0.2,-0.64 -0.69,-0.15 -0.91,0.42c-0.1,0.24 0.88,0.18 0.91,-0.44l0,0.02zm35.64,7.62l0,0l0,0l0,0zm0.91,1.82c-0.56,-0.55 -0.61,-1.24 -0.92,-1.82c-0.69,0.1 -0.63,0.67 -0.72,1.15c0.91,-0.22 0.1,0.87 1.64,0.65l0,0.02zm-3.28,-6.71c0.09,-0.22 -0.29,-0.22 -0.31,-0.06s0.24,0.19 0.31,0.04l0,0.02zm1.64,6zm-8.29,-5.71c0.5,0.16 0.81,0.73 1.26,0.67c1,0 1.28,-0.89 0.24,-0.88c-0.4,0 -0.78,0.13 -1.15,-0.16c-0.15,-0.1 -0.67,0.3 -0.35,0.39l0,-0.02zm48.17,47.82c-0.39,-0.58 -0.72,-0.58 -1.18,0l0,0.27c-0.14,0.21 0,0.27 0.14,0.39s0.32,0.12 0.26,0.43c-0.19,0.94 0.37,0.68 1.07,0.64c0.63,0.26 1,0.9 1.62,1.17a2.87,2.87 0 0 0 0.14,0.56c-0.07,0.62 -0.42,1.25 2.35,1.74c1.18,0.89 3.55,1.31 2.64,-0.18a4.39,4.39 0 0 1 -0.84,-2c0,-0.74 -1.94,-2.17 -3.28,-2.68c-1.73,-0.61 -2.22,1.22 -2.92,-0.32l0,-0.02zm-5.15,-5.93l0,-0.76c-0.41,0.47 -0.41,0.48 0,0.78l0,-0.02zm0.86,-1.15l0.18,-0.08l-0.4,-0.79c-0.37,0.49 0.04,0.64 0.22,0.89l0,-0.02zm-1.53,0c0,0.44 0.34,0.34 0.43,0.07s-0.4,-0.45 -0.43,-0.03l0,-0.04zm0.56,-13.26c-0.24,0.26 0,0.25 0.16,0.32c0.38,0.18 0.15,0.84 0.46,0.87s0.34,-0.54 0.37,-0.76l0,0c-0.54,-0.51 -0.61,-0.76 -0.99,-0.39l0,-0.04zm0.65,15c-0.56,-0.32 -0.54,0.26 -1,0.51c0.61,-0.1 0.91,-0.06 1.08,0.42c0.07,0.2 0.46,0.54 0.66,0c0.09,-0.25 0.27,0 0.38,-0.09l0,0l0,0c-0.22,-2.72 -0.98,-0.67 -1.12,-0.75l0,-0.09zm0.1,-2.69l0,0zm-2.92,-5.62a2.58,2.58 0 0 0 0.17,-1.48a1.22,1.22 0 0 0 -0.17,1.57l0,-0.09zm-0.08,9.15c0,-0.3 -0.88,0.07 -1,0.62a1,1 0 0 1 -0.62,0.71s0,0.07 -0.09,0a5.43,5.43 0 0 0 -1.66,1.61c-1.07,0.15 -0.05,1.68 0,2.37a0.09,0.09 0 0 1 0,0.11c3.09,2.65 3,-1.19 3.67,-1.64s-0.89,-2.08 -0.21,-2.14s0.49,-0.58 0.69,-0.91c-0.29,-0.15 -0.73,-0.12 -0.78,-0.64l0,-0.09zm1.22,8.9c0.38,0 0.71,0.17 1.05,-0.21c-0.4,0.08 -0.74,-0.11 -1.05,0.3l0,-0.09zm-1.18,0.26c0.18,-0.08 0.49,0 0.54,-0.25c0.14,-0.63 -1.61,0.4 -0.54,0.34l0,-0.09zm0.85,-15.9c-0.19,0 -0.54,-0.2 -0.57,0.09s-0.35,0.79 -0.2,1.24c1.12,1.27 0.69,1.41 1.95,1.76c0.14,0 0.29,0.2 0.4,0c-0.07,-1.76 -1.62,0.85 -0.93,-3.17c-0.26,-0.17 -0.45,0 -0.65,0.17l0,-0.09zm0.65,-0.1l0,0zm-5.42,14.45c-0.55,0 -1.09,-0.31 -1.6,0.14c0.48,0.8 1.1,0.45 1.73,0.78a5.8,5.8 0 0 0 1.81,0.39c1.32,0.25 -0.65,-1.63 -1.94,-1.22l0,-0.09zm10.65,22.42c0.23,0.35 0.59,0.1 0.89,0a0.08,0.08 0 0 1 0.09,-0.05c1.54,-2.06 -2.12,-1.51 -0.98,0.14l0,-0.09zm6.67,-12.73c-1.65,-4 -0.72,-4.57 -1.68,-4.78c-0.23,-0.36 -0.29,-3.54 -1.47,-1.16c-0.59,1.19 -0.19,3.56 -1.89,2.09c-1.25,-1.08 0.3,-1.64 0,-2.25c-0.68,-0.06 -1.12,-0.91 -1.93,-0.65l0,0c-1.11,0.67 -1.46,1 -1.63,1.54s-0.55,-0.69 -1.34,-0.06c-3.94,3.12 -0.83,2 -6.17,4.49c-0.75,0.24 -0.25,0.91 -0.62,1.8c-0.6,1.46 0.2,3.18 -0.36,4.74a0.56,0.56 0 0 0 0.29,0.73c0.37,0.65 0.49,0.7 1.13,0.41c0.14,-0.06 4.9,-1.86 6.42,-1.34c0.57,0.84 -0.14,1.74 1.35,1.29c-0.32,0.67 0.08,1.24 0.26,1.82c0.35,1.15 0.9,0.94 1.94,1.28c0.45,1.45 8.02,-4.25 5.7,-9.86l0,-0.09zm4.19,12.68c-0.82,1 -0.26,0.27 -4.05,2.84c0.83,0.15 0.5,0.76 0.91,0.56c2,-0.94 0.91,-1.09 2.89,-1.86c1.52,-0.59 1.14,-2.58 0.25,-1.54zm-14.77,-25.66a2,2 0 0 0 -1.26,0.25c-0.19,-1.75 1.3,-0.07 1.82,-1.29l-2.1,0.21c-0.47,1.11 -1.05,2.21 -0.1,3.37c0.14,-0.31 0,-0.69 0.26,-1c0.4,0.66 0.43,0.85 0.72,0.65s0.3,-0.21 -0.24,-0.8s0.67,-0.43 0.9,-1.39zm17.52,21.51a3.38,3.38 0 0 0 -0.43,1.92c0.08,0.68 -1.09,1 -0.42,1.72a0.83,0.83 0 0 1 -0.17,0.18c-1,0.51 -0.33,1.23 0.36,0.34c1.13,-1.59 1.22,-0.22 2,-1.74l0,-0.13c-1.24,-0.03 -1.18,-0.16 -1.34,-2.29zm-26,-20.5c-0.72,-0.79 -1,-1.92 -2,-2.49c-0.38,-0.22 -0.6,-2.19 -3.08,-1.32c2.85,0.15 3.48,7.12 5.48,5.36a1.66,1.66 0 0 0 -0.39,-1.55l-0.01,0zm10,-26.74c0.47,0.39 0.38,-0.3 0.64,-0.31c0.8,0 0.86,-0.61 0.87,-1.21l-0.11,-0.09c-0.66,0.21 -1,-0.42 -1.62,-0.56a8.6,8.6 0 0 1 0.16,1.2c-0.04,0.32 -0.31,0.65 0.06,0.97zm-76,-5.36l-0.56,0.25c-0.27,0.55 -0.83,0.88 -1.07,1.45c0.71,0.23 2.31,1.48 2.43,0.63c0.06,-0.39 0.08,-1 -0.18,-1.16c-0.67,-0.42 -0.4,-0.77 -0.12,-1.2l-0.5,0.03zm72.18,24.36c-0.47,0.38 -0.48,1 -0.88,1.46c0.76,-0.08 1.08,-0.63 0.87,-1.46l0.01,0zm-5.78,9.28l0,0zm0.53,-14c-0.16,0.15 -0.48,0.28 -0.3,0.55s0.46,0.08 0.68,0c0.94,-0.65 0.34,-1.29 -0.39,-0.59l0.01,0.04zm7.58,17a0.43,0.43 0 0 1 0.38,-0.15c0.32,-0.17 1.14,-0.09 1.08,-0.66c-0.89,-0.4 -2.5,0.71 -1.47,0.77l0.01,0.04zm-72.57,-48.55c-0.28,-0.09 -0.57,-0.13 -0.64,0.31s0.51,0.14 0.64,-0.31zm74,47.7zm-69.12,-53.62a3,3 0 0 0 2.13,-0.47c-0.12,-0.67 0.42,-0.39 0.68,-0.45c5.14,-0.64 2,-1.43 5.14,-1.31c-0.79,-1.32 -2.87,-0.84 -3.41,-1.21c-0.43,-0.14 -0.92,0.35 -1.33,-0.11a5.65,5.65 0 0 1 -1.59,0c-0.13,0.16 0.05,0.51 -0.34,0.53a0.23,0.23 0 0 0 -0.2,0.29a0.34,0.34 0 0 0 0.35,0.25c0.6,-0.14 1.17,0.17 1.78,0.07a1.32,1.32 0 0 1 1.35,0.37c-1.86,-0.55 -2.95,0.85 -3.11,-0.11c-0.32,0.09 -0.44,0.43 -0.76,0.45c0.36,-0.51 -0.22,-0.85 -0.25,-1.29c-0.08,-1.41 -1.31,1 -2.38,1.46c0.76,1.06 0.56,-0.31 1.86,0.13a1.11,1.11 0 0 0 0.65,-0.06c0,0.95 -1.36,-0.14 -1.16,0.9c0,0 0.36,0 0.13,0.27c-0.76,0.27 -0.34,-1.36 -2.19,0.44c0.58,0 1.23,-0.08 1.55,0.18s0.81,0.2 1.21,0.2c0.05,-0.23 -0.2,-0.33 -0.11,-0.53zm4.27,10c1.14,-0.85 0.11,0 2.61,-1c0.78,-0.32 0.76,-0.88 1.49,-0.7a3.08,3.08 0 0 0 2.48,-0.61c1.14,-0.73 -0.54,-0.76 -0.37,-1.13s0.34,-0.33 0.65,-0.09c0.69,0.54 1.15,-0.3 0.72,-0.74c-0.15,-0.15 -0.24,-0.33 -0.08,-0.53c0.47,-0.58 1.05,0.37 1.35,-0.25c0.23,-0.47 0.69,-0.77 0.86,-1.25c0.48,-1.36 0.73,-0.37 1,-1.11a2.93,2.93 0 0 1 0.74,-1.16c0.3,-0.28 0.28,-0.88 0.85,-0.88c0,-0.46 0.28,-0.19 0.45,-0.19c0.56,0 0.95,-0.32 0.88,-0.76l-0.13,-0.11c-2.72,0 -1.58,0.44 -3.8,-0.57c0.85,-0.45 1.71,0.37 2.54,-0.14c-1.31,-0.34 0.23,-0.52 -3,-0.52c0.54,-0.51 1.19,-0.22 1.8,-0.3c-0.44,-0.47 -0.44,-0.47 -3.51,-0.15c0.06,0.14 0.12,0.28 0.23,0.56c-0.72,-0.51 -0.85,0 -1,0.52c-0.46,-1.13 -1.18,-0.16 -1.75,-0.53c0,-0.71 -0.57,-0.45 -0.84,-0.4c-5.64,1.06 -0.51,0.73 -5.26,1.56c-1,0.18 -0.13,1.05 -0.18,1.23c-0.45,0 -1.07,-0.19 -0.92,0.68c0.6,0.12 1.56,0 1.92,0.57a2.31,2.31 0 0 1 -0.94,2.39c-0.13,0.08 -0.29,0.18 -0.22,0.35s0.82,-0.3 0.86,0.22c0.06,0.89 -0.75,0.52 -0.92,0.65c0.34,0.74 0.18,1 -0.65,1.15l0,0l0,0a6.47,6.47 0 0 0 -2,3.71c-0.54,0.94 -0.05,1.4 0.7,1.9c1.48,1.16 2.24,-1.73 3.44,-2.34l0,-0.03zm8.16,10.17l0,0zm-21.66,-0.12c-0.27,0.32 -0.69,0.24 -0.76,0.6s0.77,0.52 0.72,-0.6l0.04,0zm-9.48,17.64c0.37,-0.16 0.85,0.14 0.69,-0.5c0,0 -0.07,0 -0.08,0c-0.36,-0.07 -0.47,0.18 -0.65,0.5l0.04,0zm33.81,-19a4.65,4.65 0 0 1 -0.41,-2.71a0.79,0.79 0 0 0 -0.58,-0.92c-0.43,-0.14 -0.26,0.35 -0.52,0.76c-0.89,1.37 1.2,2 0.08,2.24s-0.07,1 -1.34,1.79c-0.37,0.23 0,0.25 0.09,0.35c1.17,-0.19 3.06,-0.24 2.64,-1.54l0.04,0.03zm-36.52,18.86l0.05,0l0,0c0.67,-0.18 0.84,0.68 1.08,0.29a2.08,2.08 0 0 1 1.15,-0.72c-0.24,-0.84 -1.74,-1 -2.37,-0.8c0.44,0.69 0.4,0.76 -0.46,0.86c0.12,0.26 0.4,0.19 0.55,0.37zm-2.1,-0.24a0.38,0.38 0 0 0 0.51,-0.15c-0.45,-0.33 -0.72,0.05 -0.51,0.15zm1.89,-1.13l-0.55,-0.71c-0.05,0 -0.07,0 -0.07,-0.07c-3.14,-2.85 -4.34,-0.25 -3.15,-0.68c0.75,-0.17 2.28,0.54 2.33,1.19s0.27,0.46 1.44,0.27zm19.54,-29.36c0,-0.07 -0.1,-0.18 -0.16,-0.27s-0.4,-0.07 -0.37,-0.35c0.06,-0.6 0.55,0 0.68,-0.63c0.07,-0.35 0.64,-0.66 0,-1c0.32,-0.48 0,-0.36 -0.3,-0.37c-0.93,-0.31 1.18,-0.7 -0.63,-1.23l-0.28,0.25c-0.67,0 0,-0.51 0.12,-0.8c0.44,-0.51 -0.89,-0.53 -2.37,0.94c-0.18,0.08 -0.22,0 -0.15,-0.15c0.28,-0.6 0.94,-0.8 1.43,-1.31c-0.18,0 -2.8,0.19 -2.44,2c0.13,0.68 0.85,0.3 1.07,0.51c0.72,0.32 1.57,-0.14 1.13,0.93c0,0.11 -0.2,0.17 0,0.31c0.8,0.56 -0.82,1.13 -1.2,1.82c-0.54,1 -1.55,-0.4 -2.18,0.62c0.23,0.57 1.72,-0.07 1.26,1.24c-0.05,0.12 0,0.08 1.05,0.88c0.14,-0.27 -0.07,-0.62 0.15,-0.71s0.47,0.12 0.6,0.39s0.22,0 0.29,-0.06c1.08,-0.91 -0.09,-1.8 0.71,-2.34c0.36,-0.19 0.24,0.19 0.33,0.3s0.34,0 0.47,0.13s-0.35,0.36 -0.18,0.65a5.38,5.38 0 0 0 1.79,-1.07c-0.63,-0.02 -1.01,-0.08 -0.82,-0.68zm57.08,32.82c0.18,0.27 0.2,0.64 0.49,0.84c0.36,1.55 -0.14,3.27 0.24,3.55s3,5.68 3.1,3.37c0.19,-2.16 -2.87,-3.13 -2,-5.49c0.19,-0.71 1.75,0.91 1.88,1.31c0.26,0.93 1,0.17 1.26,-0.36c3.48,-1.81 -3,-5.71 -0.22,-6.14c4.3,-0.61 4.05,-3 4.85,-5.14l0,0c0.36,-0.63 -0.66,-0.94 -0.73,-1.39c0.42,-1.16 -1.38,-1.22 -1.15,-2.63c0.15,-1 -0.1,-1.23 -1.1,-1.15c-1.28,0.07 0.27,-2.09 0.37,-0.81c0.42,1.15 1.23,-0.35 1.5,0.17s0.81,0.64 1,1.15s0.55,0.74 0.62,1.23c0,0.21 0.24,0.22 0.43,0.2c1.34,-0.16 1,-1.92 0.34,-2.3c-0.92,-0.51 -0.93,-1.21 -0.58,-2.05c0.09,-0.2 0,-0.65 0.51,-0.85c2,-0.74 1.58,-3.51 0.76,-5.46c0.53,0.4 1.48,2.85 2,2.51c0.23,-0.15 -0.08,-0.45 0,-1.79c0,-0.48 -0.67,-0.75 -1,-1.17c-0.1,-0.14 -1.07,-1.35 -1.36,-1.42c-0.55,-0.74 -0.38,0.29 -0.78,0a1.22,1.22 0 0 0 -1.07,-0.12c-0.5,0.11 -1.2,-0.45 -1.1,-0.82c0.57,-4 1.06,-1.36 2.7,-3.17a0.38,0.38 0 0 1 0.4,0c0.24,0.42 0.24,0.42 0.5,0.32l0,0c1.41,-0.38 -0.26,-1.21 0.47,-1.93c0.55,-0.54 1.66,1.37 1.54,-1c1.13,1.71 -0.87,2.59 0.34,4.31c2.31,3.22 2.22,3.2 2.63,3.12l0,0c0.17,0 0.31,-0.16 0.29,-0.31c-0.17,-1.1 0.62,-0.61 -0.25,-3.25c-0.31,-0.43 -0.62,-0.91 -0.78,-0.94c-1.15,-2.22 0.36,-1 1.78,-3c1.25,-1.79 -0.79,-1.7 -0.74,-2.24c0.1,-1 2.93,0.06 2.66,-0.5c-0.54,-2.9 -1.25,-1.28 -3.31,-1.93c-1,-0.9 -5.83,-1.11 -5.67,-0.51c0.19,0.76 -1,0.16 -1.66,0.54c-1,0.59 -1.6,-1 -2.86,-0.27c-1.28,0.53 -5,-1.71 -5.51,0c0,0.43 -0.18,0.46 -0.52,0.45c-2,0.11 -0.74,1 -2.26,-0.08c-0.32,-0.7 -1.93,-1.11 -2.17,-0.47s-0.77,-0.16 -2.27,0.17c-0.55,0.12 -1.24,-0.21 -1.61,0.52c0.1,-0.39 0.89,-1.69 0.1,-2.2c-0.14,-0.27 -1.57,0 -2.35,-0.31c-0.23,-0.1 -0.36,-0.49 -0.72,-0.23c-0.6,0.42 0,1.25 -0.89,1.22c-2.1,-0.06 -1.87,1.6 -3,2c-0.72,0.4 -0.05,0.84 0.42,1.29a0.91,0.91 0 0 0 -1.14,-0.08c-0.65,0.51 -1,-1.4 -1.21,0.55c-0.15,-0.57 -0.14,-0.88 -0.56,-1c-1,-0.51 -1.2,0.52 -1.18,1.71c-0.12,0.47 0.35,0.65 0.51,1c-0.36,-0.17 -1.4,-0.74 -1.67,-0.34c-0.87,1.28 -2.33,-0.57 -3.84,1.27c-0.09,0.11 -0.1,0.32 -0.32,0.24s0,-0.24 0,-0.36c0,-0.66 -1,-0.6 -0.92,-0.08c0.26,1.13 -0.62,1 -1.22,1.68s-1.71,-0.12 -1.68,-0.8c0.46,0 1.46,1 2,-0.21a0.61,0.61 0 0 0 -0.44,-0.92c-0.05,-0.26 -0.26,-0.3 -0.51,-0.43c-0.14,-0.29 -0.42,-0.27 -0.68,-0.33c-1.9,-0.46 -0.63,-0.82 -1.71,-1c-1.47,-0.22 -1.62,0.41 -2.33,0.54a2.76,2.76 0 0 0 -2.3,1.88c-0.33,0.43 -0.9,0.78 -1.19,1.28c-1.34,2.21 -2,0 -2.65,3.6c-0.14,1.7 1.7,-0.09 1.82,0.94c0.59,3.61 2.8,-0.44 2.84,-2.23a2.79,2.79 0 0 1 1.75,-2.31c-0.85,1.21 -1.58,3.61 0.75,3.24c0.28,-0.06 0.57,-0.13 0.82,0.17a1.63,1.63 0 0 1 -1,0.08c-0.9,-0.24 -0.79,1.18 -1.53,1.49c-0.45,0.29 -0.16,1.45 -1.42,1.4s-2.23,1.47 -2.6,-0.76c-0.08,-0.92 -1.17,-0.36 -1.18,0.32c-0.48,1.86 -1,0.86 -1.79,1.79c-0.92,1.38 -2.51,1.6 -3.84,2.26a1,1 0 0 0 0.45,1c0.74,0.61 0.37,2.06 -0.39,1.93c-3.14,-0.55 -2.24,0.29 -2.83,1.51c-1.3,2.66 -0.16,2.31 0.46,2.73a2.2,2.2 0 0 0 3,-1.08c0.47,-1.22 1.36,-1.06 1.87,-2.09c0.3,-0.6 0.67,-0.17 1.61,-0.6s1.15,0.66 2,1.27c1.32,1 0.67,2.24 1.45,1.55c1.76,-1.55 -0.43,-1.72 -1.06,-3.29c-0.19,-0.48 0.24,-0.53 0.64,-0.06c2.59,2.92 1.84,6 3.55,3.83c0.22,-0.29 -0.78,-1 -0.24,-1.17c2.23,-0.77 2.31,-0.22 2.3,-1.53s0.92,-3.09 1.65,-1.16c0.47,0.48 1.58,0 1.19,-0.58c-0.08,-0.11 -0.29,-0.21 -0.1,-0.38s0.55,-0.16 0.5,0.31c-0.15,1.28 2.37,1.93 1.18,2.46s-1.31,-0.7 -2.25,-0.57c-0.74,0.25 -3.21,1 -3.4,1.74c-0.38,1.91 1.84,2.37 3.25,2c0.26,-0.1 0.37,-0.05 0.34,0.25c-0.35,3.31 -1.29,1.62 -1.93,2.15a1.07,1.07 0 0 1 -1.24,0.07c-3.93,-1.79 -3.45,1.18 -4.95,-0.25s-2,-0.93 -1.82,-1.68c0.58,-3 -4.22,-0.63 -6.8,-0.8c-0.29,0 -0.64,0 -0.79,0.24c-0.6,1 -1.94,1.57 -1.84,3c-7.25,3.39 -3.9,15.36 0.36,14.67c1.22,-0.42 2.54,-0.42 3.76,-0.89c0.85,-0.33 1.27,0.53 1.72,0.64a1.76,1.76 0 0 0 0.74,0.22c1.13,0.29 0.13,0.87 0.37,1.93s-0.18,1.39 0.62,2c0.21,1 0.64,0.39 1.18,2.47c0.76,2.74 0.66,1.93 0,3.12c-0.92,2.58 0.36,2.94 0.38,3.8c1.17,2 0.64,2.38 1.54,4c1.86,3.37 0.56,3.78 1.7,4.11c0.27,0.49 4.4,-0.27 4.7,-1.75c0,0 1,-0.44 1.19,-2.71a0.85,0.85 0 0 1 0.53,-0.79c1.4,-0.69 0.5,-1.92 0.55,-2.16c-0.29,-0.68 0,-0.49 0.68,-1.59c4.32,-1.88 -1.12,-6.3 2.89,-10.12c1,-0.28 2.91,-3.38 2.94,-4.48c0.38,-0.36 1.12,-2.32 0,-1.87c-4.17,1.08 -2.18,0 -3.35,-1s-1.69,-1.92 -3.91,-8.15c0.92,-0.24 0.29,1.16 1.87,2.76c0.26,1.44 1.26,2 1.83,4.28s2.5,1.78 4.08,0.37c2.46,-1.14 4,-3.45 3.49,-4.1c0,-0.47 0.05,-0.5 -0.58,-0.85c-0.86,-0.48 -0.69,-1.88 -1.63,-0.82s-1,0.27 -1.54,-0.26c-1.7,-1.59 -1,-2.75 -0.61,-1.94c0.81,1.9 2.53,1.21 3.15,1.82c1.28,1.18 3.89,-0.39 5.19,1.61c0.25,0.87 0.05,1.59 1.42,1c0.71,-0.29 0.24,0.77 1,2.52c1.85,4.52 1.75,4.94 2.55,4.52a1.51,1.51 0 0 0 0.74,-1.44a0.07,0.07 0 0 1 0,-0.1c0.62,-1.28 -0.25,-1.34 0.95,-2.94c0.47,-0.62 1.18,-1.08 1.41,-1.88a1.53,1.53 0 0 1 2.7,-0.77l0,0c1.59,0.58 0.41,3.69 2.49,2.54zm-16.41,-29.55c0.48,-0.33 0.34,-0.72 -0.14,-2.39c0.26,0.64 0.88,0.79 1.4,1c-0.92,0 -0.62,1.12 -1.26,1.39zm2.11,-3.45a1,1 0 0 1 0.25,0.37a1.1,1.1 0 0 0 -0.25,-0.37zm-23.74,18.17c-0.24,0.2 -0.33,0.38 0.08,0.68c-0.03,-0.3 0.05,-0.49 -0.08,-0.68zm54,1.5a2.18,2.18 0 0 1 -0.22,-1.39c0.13,-0.5 -0.91,-1.32 -1.43,-1.18c1.6,3.65 -0.93,1.26 -1.83,4.38a1.77,1.77 0 0 0 0.9,-0.09a3.18,3.18 0 0 0 -0.11,0.92c0.22,0.14 0.24,-0.15 0.38,-0.18a0.59,0.59 0 0 0 -0.09,-0.74c0.44,-0.17 0.6,0.21 0.88,0.57c0,-1.74 2,-0.68 1.47,-2.29l0.05,0zm-4,-14.24l0,0l0,0zm-50.35,15.08c0.58,0 0.6,-1.28 0.1,-1.29c-0.66,-0.02 -0.4,1.26 -0.1,1.29zm16.44,28.64a4,4 0 0 0 -0.91,1.65c-2.23,0.37 -0.29,1.49 -1.18,2.91a2.1,2.1 0 0 0 0.28,2.53c2.51,0.43 1.6,-3.71 2.95,-5.26c0.13,-0.43 -0.29,-2.81 -1.14,-1.83zm-20.72,-36.67c1,-1 1.3,-2.38 -0.62,-1.87c-0.47,0 0,0.25 -0.69,1.58c-0.37,0.68 0.83,0.85 1.31,0.29zm18.91,43.77l0,0zm17,-17.51c0.36,-0.13 0.51,-0.35 0.36,-0.71c-1.44,-3.4 -1.74,1.19 -0.4,0.7l0.04,0.01zm-36.1,-24.23l0,0zm0.41,-10c0.53,-0.6 0.42,-1.55 -0.72,-1.47c-0.54,0 -1.12,0.28 -1.65,-0.09c-0.07,-0.05 -0.15,0 -0.19,0.13l0,0c-0.34,0.17 -1,-0.05 -0.34,0.65c-0.63,1.45 2.28,1.79 2.9,0.77l0,0.01z"/>
  </clipPath>
 </defs>
 <title>split2</title>
 <g>
  <title>Layer 1</title>
  <g stroke="null" id="svg_4">
   <g stroke="null" opacity="0.8" id="wifi2">
    <g stroke="null" id="svg_632">
     <g stroke="null" id="w11">
      <path stroke="null" id="svg_633" fill="#fff" d="m140.12659,31.55531c-2.9222,-1.66455 -6.74449,-1.12203 -10.55446,1.07271a30.28241,30.28241 0 0 0 -10.5298,11.09697c-0.60417,1.06038 -0.60417,2.19473 0,2.53997a1.12203,1.12203 0 0 0 1.09737,-0.11097a3.21812,3.21812 0 0 0 1.09737,-1.15902a24.04344,24.04344 0 0 1 8.33506,-8.77894c3.00851,-1.73853 6.04169,-2.17008 8.34739,-0.85077a1.09737,1.09737 0 0 0 1.09737,-0.11097a3.21812,3.21812 0 0 0 1.09737,-1.15902c0.64116,-1.06038 0.62883,-2.12076 0.01233,-2.53997z"/>
     </g>
     <g stroke="null" id="w22">
      <path stroke="null" id="svg_634" fill="#fff" d="m146.46419,20.59397c-4.67306,-2.66327 -10.78873,-1.80018 -16.91672,1.7262s-12.219,9.74068 -16.8674,17.77982c-0.60417,1.04805 -0.60417,2.18241 0,2.46599a1.09737,1.09737 0 0 0 1.09737,-0.11097a3.05783,3.05783 0 0 0 1.1097,-1.15902a42.2918,42.2918 0 0 1 14.66034,-15.46178c5.32655,-3.07016 10.64077,-3.80996 14.70966,-1.49193a1.12203,1.12203 0 0 0 1.09737,-0.11097a3.24278,3.24278 0 0 0 1.1097,-1.15902c0.6165,-0.96174 0.6165,-2.13309 0,-2.47832z"/>
     </g>
     <g stroke="null" id="w33">
      <path stroke="null" id="svg_635" fill="#fff" d="m152.62918,9.92854c-6.16499,-3.52637 -14.38908,-2.68793 -23.10637,2.34269s-16.89206,13.66161 -23.03239,24.29004c-0.6165,1.06038 -0.6165,2.19473 0,2.53997a1.14669,1.14669 0 0 0 1.1097,-0.11097a3.32909,3.32909 0 0 0 1.09737,-1.15902c5.53616,-9.62971 12.93414,-17.43458 20.83765,-21.98434s15.30149,-5.30189 20.88697,-2.10843a1.14669,1.14669 0 0 0 1.1097,-0.11097a3.1688,3.1688 0 0 0 1.09737,-1.17135c0.60417,-1.04805 0.60417,-2.18241 0,-2.52764z"/>
     </g>
    </g>
   </g>
   <g stroke="null" id="n1">
    <g stroke="null" id="svg_720">
     <path stroke="null" id="svg_721" fill="#6c99a3" d="m178.91668,26.59866l0,0l-2.36735,-1.38096c-1.44261,-0.83844 -3.44006,-0.71514 -5.64713,0.55485l-79.50366,45.91681a17.44691,17.44691 0 0 0 -7.91584,13.71093l0.56718,216.00878c0,2.46599 0.88776,4.26617 2.31803,5.09228l2.36735,1.36863l-0.1233,-0.07398c1.45494,0.92475 3.50171,0.83844 5.77043,-0.46854l79.51599,-45.91681a17.40992,17.40992 0 0 0 7.90351,-13.66161l-0.55485,-216.00878c-0.01233,-2.5523 -0.90009,-4.31549 -2.33036,-5.1416z"/>
     <g stroke="null" id="svg_722">
      <polygon stroke="null" id="svg_723" fill="#86d0d1" points="92.65619564056396,98.63035488128662 93.13708400726318,286.1692190170288 178.42347621917725,236.93563747406006 177.930251121521,49.3967809677124 92.65619564056396,98.63035488128662 "/>
      <polygon stroke="null" id="svg_724" fill="#006b75" points="92.65619564056396,98.63035488128662 92.84117794036865,113.31535243988037 178.12757778167725,64.06944179534912 177.930251121521,49.3967809677124 92.65619564056396,98.63035488128662 "/>
      <path stroke="null" id="svg_725" fill="#fff" d="m174.14498,30.59357l-77.81445,44.91809a17.07701,17.07701 0 0 0 -7.74322,13.41501l0.55485,212.95094c0,4.93199 3.50171,6.91711 7.79254,4.43879l77.81445,-44.91809a17.06468,17.06468 0 0 0 7.73089,-13.41501l-0.54252,-212.95094c-0.01233,-4.93199 -3.50171,-6.91711 -7.79254,-4.43879zm-81.00791,255.57566l-0.48087,-187.53887l85.28641,-49.23358l0.48087,187.53887l-85.28641,49.23358z"/>
     </g>
    </g>
   </g>
   <g stroke="null" id="o1">
    <path stroke="null" id="svg_726" fill="#132c39" d="m114.36928,235.7643l0.20961,-0.06165c-0.04932,-0.08631 -0.1233,-0.07398 -0.20961,0.06165z"/>
    <path stroke="null" id="svg_727" fill="#132c39" d="m114.57889,235.70265c0.80145,1.41795 -2.77424,27.95205 -0.69048,38.95038l49.09795,-28.03836l-9.86398,-20.80066l-38.54349,9.88864z"/>
    <g stroke="null" id="o1arm2">
     <path stroke="null" id="svg_728" fill="#002d42" d="m160.87793,153.8563l1.93581,2.72492c1.233,1.75086 3.0455,4.24151 5.22791,7.21303s4.73471,6.42392 7.50895,10.0366c1.39329,1.81251 2.84822,3.69899 4.32782,5.48684c0.7398,0.91242 1.4796,1.82484 2.23172,2.70026s1.50426,1.75086 2.21939,2.46599l0.99873,1.03572l0.35757,0.35757c0.07398,0.07398 0.1233,0.11097 -0.07398,0a7.16371,7.16371 0 0 0 -0.81378,-0.29592l-0.19728,0l-0.28359,0l-0.32058,-0.06165l-0.44388,0l-0.51786,0a5.40053,5.40053 0 0 0 -0.62883,0a6.5842,6.5842 0 0 0 -0.81378,0.13563l-0.41922,0.1233l-0.4932,0.17262a3.25511,3.25511 0 0 0 -0.46854,0.22194l-0.27126,0.14796l0,0l0.11097,-0.06165l0.20961,-0.09864l0.41922,-0.19728l0.82611,-0.39456l0.72747,-0.35757l0.71514,-0.35757l0.35757,-0.17262l0.39456,-0.20961l1.52892,-0.81378l3.02084,-1.66455c1.99746,-1.12203 3.92093,-2.23172 5.74577,-3.30443s3.55103,-2.08377 5.1416,-3.03317c3.18113,-1.91115 5.83208,-3.51404 7.66924,-4.6484l2.89754,-1.77552l0,0a4.29083,4.29083 0 0 1 5.00597,6.92944l-2.63861,2.21939c-1.67688,1.40562 -4.08122,3.40307 -6.99109,5.78276c-1.45494,1.233 -3.03317,2.46599 -4.72238,3.82229s-3.47705,2.77424 -5.36354,4.22918c-0.93708,0.72747 -1.91115,1.45494 -2.89754,2.20706l-1.51659,1.12203l-0.38223,0.28359l-0.43155,0.28359l-0.83844,0.59184l-0.71514,0.4932l-0.76446,0.51786l-0.38223,0.2466l-0.19728,0.13563l-0.09864,0.06165l0,0l-0.32058,0.17262l-0.51786,0.23427l-0.54252,0.19728l-0.48087,0.13563a8.76661,8.76661 0 0 1 -0.93708,0.16029l-0.7398,0l-0.62883,0l-0.55485,-0.06165l-0.43155,-0.07398l-0.40689,-0.08631l-0.30825,-0.08631a9.48175,9.48175 0 0 1 -1.66455,-0.66582a14.79597,14.79597 0 0 1 -1.62756,-0.97407c-0.41922,-0.28359 -0.77679,-0.53019 -1.1097,-0.78912c-0.65349,-0.4932 -1.233,-0.96174 -1.78785,-1.43028c-1.09737,-0.92475 -2.08377,-1.82484 -3.05783,-2.71259s-1.89882,-1.78785 -2.81123,-2.6756q-2.73725,-2.66327 -5.24024,-5.21558c-3.32909,-3.40307 -6.34994,-6.59653 -8.93923,-9.35845s-4.69772,-5.06762 -6.16499,-6.69517l-2.33036,-2.57696a9.51874,9.51874 0 1 1 14.09316,-12.79851a10.61611,10.61611 0 0 1 0.67815,0.83844l-0.06165,0.16029z"/>
     <path stroke="null" id="svg_729" fill="#325e6f" d="m183.13353,182.65911l-7.9405,12.93414s4.24151,4.82102 9.30913,4.46345s7.92817,-5.86907 7.92817,-5.86907l-6.42392,-11.09697l-2.87288,-0.43155z"/>
     <path stroke="null" id="svg_730" fill="#325e6f" d="m161.99996,169.02217c0,0.09864 0,0.18495 -0.07398,0.27126l0.07398,-0.27126z"/>
     <path stroke="null" id="svg_731" fill="#325e6f" d="m160.45871,153.32611c3.93326,5.93072 1.9728,14.11782 1.54125,15.69605c0.83844,-2.46599 5.68412,-6.16499 5.68412,-6.16499c-0.85077,-1.30698 -5.10461,-6.81847 -7.22536,-9.53107z"/>
     <path stroke="null" id="svg_732" fill="#325e6f" d="m160.45871,153.32611a10.986,10.986 0 0 0 -1.233,-1.54125l1.233,1.54125z"/>
     <path stroke="null" id="svg_733" fill="#325e6f" d="m215.22844,166.23559a4.06889,4.06889 0 1 0 2.99618,4.93199a4.06889,4.06889 0 0 0 -2.99618,-4.93199z"/>
     <g stroke="null" id="svg_734">
      <path stroke="null" id="svg_735" fill="#132c39" d="m224.43893,161.51321s-0.46854,-1.86183 -3.83462,-1.71387s-6.55954,5.64713 -7.05274,7.53361c-1.4796,5.6348 5.37587,7.31167 6.0047,7.39798c3.42773,0.75213 9.76534,-0.27126 9.76534,-0.27126s0.14796,-9.33379 -0.71514,-12.32997c0,0.09864 -4.1552,0.65349 -4.16753,-0.6165z"/>
      <path stroke="null" id="svg_736" fill="#132c39" d="m241.15838,160.50216l0,0l-2.89754,0.6165c-0.87543,0.17262 -1.88649,0.38223 -2.97152,0.57951l-1.66455,0.28359l-0.83844,0.11097l-0.38223,0l-0.18495,0l-3.69899,0l-3.07016,0c-0.90009,0 -1.63989,0 -2.17008,0.07398l-0.81378,0a1.13436,1.13436 0 0 0 0,2.25638l0.82611,0l2.15775,0l3.05783,-0.07398l1.71387,0l2.03445,0l0.25893,0l0.50553,-0.06165l0.91242,-0.14796c0.60417,-0.11097 1.233,-0.22194 1.73853,-0.34524l1.59057,-0.3699l1.41795,-0.35757c0.87543,-0.22194 1.59057,-0.43155 2.0961,-0.56718l0.80145,-0.23427a0.91242,0.91242 0 0 0 -0.44388,-1.76319l0.02466,0z"/>
      <path stroke="null" id="svg_737" fill="#132c39" d="m231.36838,165.47113z"/>
      <path stroke="null" id="svg_738" fill="#132c39" d="m242.87224,163.53533l0,0l-0.81378,0.16029l-2.15775,0.43155l-3.0455,0.57951l-1.7262,0.29592l-1.76319,0.27126l-0.8631,0.09864c-0.28359,0 -0.53019,0.06165 -0.85077,0.06165l-1.71387,0l-3.13181,0l-2.20706,0.06165l-0.83844,0a1.13436,1.13436 0 0 0 0,2.25638l0.85077,0c0.53019,0 1.29465,0 2.20706,0l3.13181,-0.07398l1.80018,0c0.28359,0 0.62883,0 0.96174,-0.09864l0.93708,-0.13563c1.233,-0.19728 2.46599,-0.43155 3.57569,-0.67815s2.17008,-0.48087 3.07016,-0.70281l2.14542,-0.53019l0.82611,-0.22194a0.91242,0.91242 0 0 0 -0.41922,-1.78785l0.02466,0.01233z"/>
      <path stroke="null" id="svg_739" fill="#132c39" d="m241.42963,167.48092l0,0l-3.07016,0.45621c-0.91242,0.13563 -1.98513,0.29592 -3.13181,0.44388s-2.37968,0.33291 -3.58802,0.45621l-0.90009,0.07398l-0.88776,0.06165a5.0183,5.0183 0 0 1 -0.75213,0l-0.82611,-0.11097c-1.1097,-0.16029 -2.18241,-0.3699 -3.08249,-0.53019l-3.0455,-0.56718l0,0a1.12203,1.12203 0 0 0 -0.43155,2.20706l0.83844,0.18495c0.54252,0.11097 1.30698,0.27126 2.23172,0.43155s1.99746,0.3699 3.19346,0.53019l0.93708,0.09864a6.16499,6.16499 0 0 0 1.06038,0c0.29592,0 0.64116,0 0.97407,-0.08631l0.94941,-0.09864c2.46599,-0.32058 4.93199,-0.76446 6.80614,-1.09737l3.07016,-0.59184a0.94941,0.94941 0 0 0 -0.32058,-1.87416l-0.02466,0.01233z"/>
      <path stroke="null" id="svg_740" fill="#132c39" d="m227.49677,172.26495z"/>
      <path stroke="null" id="svg_741" fill="#132c39" d="m239.62946,171.40185l0,0l-0.85077,0.11097l-2.25638,0.25893c-0.93708,0.11097 -2.02212,0.22194 -3.19346,0.33291s-2.46599,0.19728 -3.69899,0.23427c-0.60417,0 -1.233,0 -1.75086,0l-0.43155,0l-0.13563,0l-0.17262,0c-0.25893,0 -0.54252,-0.14796 -0.81378,-0.23427c-0.54252,-0.16029 -1.07271,-0.34524 -1.57824,-0.51786l-1.43028,-0.4932l-2.95919,-1.06038l0,0a1.13436,1.13436 0 0 0 -0.77679,2.12076l0.81378,0.30825c0.51786,0.19728 1.233,0.48087 2.17008,0.78912l1.45494,0.50553l1.66455,0.53019l0.93708,0.25893l0.27126,0.06165l0.14796,0l0.17262,0c0.16029,0 0.29592,0 0.4932,0a18.49496,18.49496 0 0 0 2.02212,0c1.233,0 2.56463,-0.18495 3.69899,-0.32058s2.29337,-0.27126 3.24278,-0.39456l2.28104,-0.34524l0.8631,-0.13563a0.99873,0.99873 0 0 0 0.82611,-1.09737a0.9864,0.9864 0 0 0 -1.01106,-0.91242z"/>
      <path stroke="null" id="svg_742" fill="#132c39" d="m228.39685,154.04125s-4.13054,3.02084 -7.39798,4.83335a15.07956,15.07956 0 0 0 -5.04296,4.82102c0.76446,4.61141 6.63352,1.52892 7.39798,-0.19728s1.59057,-3.92093 3.21812,-4.99364c4.34015,-2.87288 1.82484,-4.46345 1.82484,-4.46345z"/>
     </g>
    </g>
    <path stroke="null" id="svg_743" fill="#cedfe3" d="m108.54953,182.9427l6.57187,62.06908s-0.43155,6.16499 16.44818,3.39074c16.6208,-2.72492 28.0137,-15.96731 28.0137,-15.96731s-3.89627,-26.52177 2.89754,-47.44573c3.20579,-9.86398 2.46599,-19.72795 2.46599,-21.56512c0.01233,-5.06762 -57.63029,13.6986 -56.39729,19.51835z"/>
    <path stroke="null" id="svg_744" opacity="0.08" d="m143.17209,233.24899c-5.61014,-1.233 -10.24621,-4.38947 -14.48772,-8.08846a28.79048,28.79048 0 0 1 -3.80996,-4.46345a34.38829,34.38829 0 0 1 -3.24278,-4.63607a54.5478,54.5478 0 0 1 -5.99237,-17.94011a126.22192,126.22192 0 0 1 -1.62756,-18.02642c0,-0.66582 0,-1.31931 0.09864,-1.96047c-3.60035,1.92348 -5.7581,3.69899 -5.5115,4.80869l6.57187,62.06908s-0.43155,6.16499 16.44818,3.39074c13.88355,-2.26871 24.11742,-11.87376 27.12594,-14.99325a35.75692,35.75692 0 0 1 -15.57275,-0.16029z"/>
    <g stroke="null" id="svg_745">
     <path stroke="null" id="svg_746" fill="#325e6f" d="m147.30263,120.65169s0.71514,12.20667 0.53019,12.60123s3.40307,-1.34397 2.71259,-6.46091c-0.94941,-7.11439 -3.24278,-6.14033 -3.24278,-6.14033z"/>
     <g stroke="null" id="svg_747">
      <path stroke="null" id="svg_748" fill="#fff" d="m148.37534,147.35841c-17.55788,-0.2466 -41.9219,19.48136 -42.1685,26.21352c0,0 -5.28956,18.86486 19.87591,14.09316c7.61992,-2.10843 25.63401,-5.73344 38.12427,-22.84744a2.94686,2.94686 0 0 0 0.62883,-1.73853c-0.04932,-3.32909 -1.57824,-15.52343 -16.46051,-15.72071z"/>
      <path stroke="null" id="svg_749" fill="#cedfe3" d="m126.56362,140.4043s1.66455,7.97749 0.3699,13.62462c0,0 7.39798,9.19816 14.30277,4.29083c4.58675,-3.24278 -1.73853,-14.79597 -1.73853,-14.79597l-12.93414,-3.11948z"/>
      <path stroke="null" id="svg_750" fill="#fff" d="m134.7014,111.77411c-11.40522,1.06038 -15.25218,6.36227 -15.25218,15.00558s6.41159,17.15099 14.42607,17.15099s14.50005,-7.00342 14.50005,-15.64673s-3.63734,-17.39759 -13.67394,-16.50983z"/>
      <path stroke="null" id="svg_751" fill="#fff" d="m128.00622,142.21681a77.16096,77.16096 0 0 0 8.42137,6.89245c3.69899,2.39201 11.26959,4.0319 11.93541,-3.69899c1.73853,-20.01154 -1.62756,-24.32703 -1.62756,-24.32703l-18.72923,21.13357z"/>
      <path stroke="null" id="svg_752" fill="#132c39" d="m129.02961,130.54032s-1.07271,6.16499 3.69899,13.24239a56.71787,56.71787 0 0 0 4.32782,5.6348s3.51404,2.21939 5.81975,2.25638a5.2649,5.2649 0 0 0 5.5115,-4.31549c2.12076,-16.09061 -0.19728,-22.85977 -0.19728,-22.85977a27.42186,27.42186 0 0 1 -19.16078,6.04169z"/>
      <g stroke="null" id="svg_753">
       <polygon stroke="null" id="svg_754" fill="#cedfe3" points="120.50964260101318,112.52623653411865 121.06442165374756,131.058180809021 122.39608669281006,130.984206199646 120.76852321624756,112.50157070159912 120.50964260101318,112.52623653411865 "/>
       <path stroke="null" id="svg_755" fill="#cedfe3" d="m120.7562,112.3043l-0.25893,0a0.19728,0.19728 0 0 0 -0.18495,0.19728l0.55485,18.49496a0.19728,0.19728 0 0 0 0,0.13563a0.18495,0.18495 0 0 0 0.13563,0l0,0l1.33164,-0.07398a0.29592,0.29592 0 0 0 0.13563,-0.07398a0.19728,0.19728 0 0 0 0,-0.14796l-1.62756,-18.49496a0.19728,0.19728 0 0 0 -0.08631,-0.03699zm0.4932,18.49496l-0.48087,-16.02896l1.41795,16.02896l-0.93708,0z"/>
      </g>
      <path stroke="null" id="svg_756" fill="#cedfe3" d="m120.70688,111.65081a1.06038,1.06038 0 1 0 1.06038,1.06038a1.07271,1.07271 0 0 0 -1.06038,-1.06038z"/>
      <path stroke="null" id="svg_757" fill="#325e6f" d="m139.11553,146.71725c-4.93199,2.0961 -8.08846,-0.34524 -10.64077,-2.7989a19.87591,19.87591 0 0 1 -3.39074,-4.47578a0.70281,0.70281 0 0 0 -0.93708,-0.28359a0.69048,0.69048 0 0 0 -0.28359,0.92475a21.0226,21.0226 0 0 0 3.69899,4.82102c1.46727,1.40562 4.11821,3.97025 8.02681,3.97025a10.45582,10.45582 0 0 0 4.09355,-0.88776a0.69048,0.69048 0 0 0 -0.53019,-1.233l-0.03699,-0.03699z"/>
      <path stroke="null" id="svg_758" fill="#cedfe3" d="m120.69455,129.86218l-1.99746,1.30698s-3.02084,3.05783 1.08504,8.26108s7.74322,2.04678 7.74322,2.04678s2.39201,-4.93199 -0.76446,-8.87758s-6.06635,-2.73725 -6.06635,-2.73725z"/>
      <path stroke="null" id="svg_759" fill="#325e6f" d="m120.69455,129.86218l-1.94814,1.233a8.93923,8.93923 0 0 1 6.28829,2.37968a8.0638,8.0638 0 0 1 1.98513,6.28829a9.86398,9.86398 0 0 1 -0.39456,2.25638a3.83462,3.83462 0 0 0 0.90009,-0.59184s2.39201,-4.93199 -0.76446,-8.87758s-6.06635,-2.68793 -6.06635,-2.68793z"/>
      <path stroke="null" id="svg_760" fill="#325e6f" d="m140.64445,145.78017l-2.56463,0.91242a1.06038,1.06038 0 0 0 -0.65349,1.36863a1.07271,1.07271 0 0 0 1.01106,0.72747a0.88776,0.88776 0 0 0 0.35757,-0.07398l2.56463,-0.83844a1.07271,1.07271 0 1 0 -0.71514,-2.03445l0,-0.06165z"/>
      <path stroke="null" id="svg_761" fill="#132c39" d="m142.24734,115.49776c-4.69772,-3.39074 -8.08846,-3.69899 -8.08846,-3.69899s-5.41286,-0.57951 -8.95156,2.58929a48.08689,48.08689 0 0 1 4.10588,4.61141c2.15775,2.74958 -0.23427,11.50386 -0.23427,11.50386s5.67179,2.98385 17.10167,-3.69899c2.25638,-1.33164 1.99746,-2.28104 1.99746,-2.28104a14.22879,14.22879 0 0 0 -5.93072,-9.02554z"/>
     </g>
    </g>
    <path stroke="null" id="svg_762" fill="#cedfe3" d="m148.17806,124.44932s0.14796,1.87416 -5.31422,3.97025c-10.57912,4.06889 -13.83423,2.73725 -13.83423,2.73725l-0.09864,1.15902c3.44006,0.87543 8.70496,-0.55485 13.93287,-2.68793c6.41159,-2.61395 5.5115,-4.38947 5.5115,-4.38947l-0.19728,-0.78912z"/>
    <g stroke="null" id="o1arm1">
     <path stroke="null" id="svg_763" fill="#002d42" d="m124.09762,180.20545l-0.40689,1.82484l-0.19728,0.92475l-0.09864,0.43155l-0.08631,0.40689l-0.33291,1.63989c-0.11097,0.54252 -0.20961,1.13436 -0.30825,1.70154c-0.22194,1.14669 -0.39456,2.3057 -0.57951,3.46472s-0.33291,2.31803 -0.4932,3.47705s-0.28359,2.34269 -0.39456,3.51404s-0.22194,2.34269 -0.32058,3.51404s-0.17262,2.36735 -0.22194,3.5387l-0.08631,1.77552l0,1.77552c0,1.233 0,2.37968 -0.07398,3.56336s0,2.37968 0,3.56336s0,2.37968 0.09864,3.57569s0.11097,2.37968 0.18495,3.56336s0.16029,2.37968 0.25893,3.56336s0.22194,2.36735 0.34524,3.5387s0.27126,2.35502 0.44388,3.51404c0.07398,0.57951 0.16029,1.15902 0.2466,1.7262l0.27126,1.57824l-2.46599,-3.80996a4.25384,4.25384 0 0 0 -0.53019,-0.3699l-0.20961,-0.1233l-0.17262,-0.07398l-0.13563,-0.07398l-0.1233,0l-0.16029,0c-0.17262,0 -0.19728,0 -0.17262,0a2.26871,2.26871 0 0 0 0.54252,0.17262a20.4061,20.4061 0 0 0 2.02212,0.35757c1.50426,0.19728 3.14414,0.33291 4.80869,0.43155c3.32909,0.20961 6.74449,0.29592 10.18456,0.35757s6.89245,0 10.34485,0l5.20325,0l5.17859,-0.11097l0.07398,0a4.42646,4.42646 0 0 1 0.7398,8.8036l-5.22791,0.77679l-5.22791,0.72747q-5.24024,0.72747 -10.51747,1.31931c-3.52637,0.39456 -7.06507,0.75213 -10.70242,0.9864c-1.82484,0.1233 -3.69899,0.20961 -5.64713,0.20961c-0.9864,0 -2.00979,0 -3.18113,-0.13563c-0.59184,0 -1.233,-0.13563 -2.02212,-0.29592a10.62844,10.62844 0 0 1 -1.41795,-0.40689l-0.46854,-0.17262l-0.27126,-0.1233l-0.28359,-0.13563l-0.30825,-0.16029l-0.35757,-0.19728l-0.80145,-0.55485l-1.73853,-1.54125l-0.66582,-2.46599l-0.29592,-1.08504l-0.25893,-0.99873l-0.48087,-1.94814c-0.29592,-1.29465 -0.57951,-2.58929 -0.85077,-3.87161s-0.50553,-2.58929 -0.7398,-3.87161s-0.44388,-2.58929 -0.64116,-3.88394s-0.38223,-2.58929 -0.55485,-3.89627s-0.32058,-2.60162 -0.46854,-3.9086s-0.27126,-2.60162 -0.38223,-3.9086s-0.19728,-2.62628 -0.28359,-3.93326l-0.11097,-1.9728l-0.08631,-1.9728q-0.07398,-1.9728 -0.11097,-3.95792c0,-1.31931 0,-2.63861 0,-3.97025s0,-2.65094 0.07398,-3.97025s0.11097,-2.65094 0.19728,-3.98258s0.16029,-2.66327 0.29592,-3.98258c0,-0.67815 0.09864,-1.31931 0.17262,-2.00979l0.23427,-2.07144l0,-0.50553l0,-0.4932l0.1233,-0.93708l0.23427,-1.86183a9.86398,9.86398 0 0 1 19.51835,2.46599c0.02466,0.3699 -0.02466,0.69048 -0.1233,0.96174z"/>
     <path stroke="null" id="svg_764" fill="#325e6f" d="m116.34207,167.24665c-6.30062,-1.34397 -10.64077,2.89754 -11.44221,8.05147s-1.01106,8.01448 -1.01106,8.01448s11.70114,13.14375 20.50474,-0.3699c0,0 3.61268,-13.19307 -8.05147,-15.69605z"/>
     <g stroke="null" id="oo1">
      <polygon stroke="null" id="svg_765" fill="#f25512" points="156.73503017425537,248.0696096420288 156.74735927581787,253.1125783920288 198.225417137146,229.1677541732788 198.21307277679443,224.12480068206787 156.73503017425537,248.0696096420288 "/>
      <g stroke="null" id="svg_766">
       <path stroke="null" id="svg_767" fill="#f15c2b" d="m186.46262,281.03996l0.87543,-3.57569l-2.63861,0.40689l-0.3699,-2.99618l-2.7989,1.92348l-1.54125,-1.82484l-2.46599,3.07016l-2.46599,-0.28359l-1.52892,3.58802l-2.7989,1.30698l-0.35757,3.4154l-2.63861,2.63861l0.90009,2.5523l-1.94814,3.45239l1.96047,1.233l-0.87543,3.57569l2.63861,-0.40689l0.3699,2.99618l1.08504,-0.7398l1.71387,-1.233l1.54125,1.82484l2.40434,-3.07016l2.46599,0.29592l1.52892,-3.60035l1.7262,-0.80145l1.08504,-0.50553l0.34524,-3.4154l2.63861,-2.63861l-0.90009,-2.5523l1.94814,-3.45239l-1.89882,-1.18368zm-8.82826,14.89461c-3.57569,2.05911 -6.4979,0.40689 -6.51023,-3.69899a14.26578,14.26578 0 0 1 6.47324,-11.20794c3.57569,-2.05911 6.4979,-0.40689 6.51023,3.69899a14.26578,14.26578 0 0 1 -6.47324,11.20794z"/>
       <path stroke="null" id="svg_768" fill="#fff" d="m177.59737,281.03996a14.26578,14.26578 0 0 0 -6.47324,11.20794c0,4.11821 2.93453,5.77043 6.51023,3.69899a14.26578,14.26578 0 0 0 6.47324,-11.20794c-0.01233,-4.13054 -2.93453,-5.78276 -6.51023,-3.69899z"/>
       <polygon stroke="null" id="svg_769" fill="#ededed" points="156.74735927581787,253.1125783920288 156.73503017425537,248.0696096420288 156.919997215271,313.1718740463257 170.98853969573975,305.0464162826538 171.98727321624756,301.3350820541382 170.90222072601318,302.07488918304443 170.53227138519287,299.07870388031006 167.8937063217163,299.4855947494507 168.76908779144287,295.9099111557007 166.808669090271,294.7138967514038 168.7567434310913,291.2615041732788 167.85668849945068,288.70919704437256 170.4953145980835,286.0705862045288 170.852858543396,282.6551809310913 173.65177822113037,281.34820461273193 175.1806936264038,277.76019191741943 177.58505153656006,278.04379177093506 179.9894094467163,274.97360134124756 181.53065395355225,276.7984609603882 184.32951259613037,274.87496852874756 184.69946193695068,277.87115383148193 187.33802700042725,277.4642629623413 186.46264553070068,281.0399465560913 188.42306423187256,282.2359609603882 186.47498989105225,285.6883535385132 187.37504482269287,288.24066066741943 184.73641872406006,290.8792715072632 184.39121913909912,294.2946767807007 183.3061819076538,294.8002004623413 184.31724452972412,297.35250759124756 198.38571071624756,289.2270498275757 198.225417137146,229.1677541732788 156.74735927581787,253.1125783920288 "/>
      </g>
      <polygon stroke="null" id="svg_770" fill="#f15c2b" points="183.3061819076538,294.8002004623413 181.57995510101318,295.60165309906006 180.05103969573975,299.20199489593506 177.6466817855835,298.90609645843506 175.24232387542725,301.97625637054443 173.7010793685913,300.15142726898193 171.98727321624756,301.3350820541382 170.98853969573975,305.0464162826538 168.30055141448975,315.0953359603882 172.94897365570068,310.37298488616943 175.35333156585693,314.0102834701538 177.65902614593506,302.9996328353882 180.01402187347412,311.31002712249756 182.39376735687256,304.9107656478882 187.05445766448975,304.26962184906006 184.31724452972412,297.35250759124756 183.3061819076538,294.8002004623413 "/>
     </g>
     <path stroke="null" id="svg_771" fill="#325e6f" d="m123.04958,232.2256l-1.82484,-2.02212a34.28965,34.28965 0 0 1 -14.50005,3.25511c1.56591,20.71435 17.9771,11.83677 17.9771,11.83677a37.98864,37.98864 0 0 1 -1.65222,-13.06977z"/>
     <path stroke="null" id="svg_772" fill="#132c39" d="m163.6645,231.37483c-4.82102,1.233 -6.4979,6.43625 -5.11694,8.15011c1.6029,1.9728 4.74704,2.12076 11.09697,2.12076s8.15011,-9.28447 7.71856,-11.3559s-9.83932,0.06165 -13.6986,1.08504z"/>
     <g stroke="null" id="svg_773">
      <path stroke="null" id="svg_774" fill="#132c39" d="m184.88438,241.68269a1.233,1.233 0 0 1 -1.233,-1.02339a22.47754,22.47754 0 0 0 -1.233,-4.4018c-2.03445,-3.11948 -6.41159,-4.13054 -6.44858,-4.14287a1.233,1.233 0 0 1 0.56718,-2.46599c0.22194,0 5.43752,1.233 8.03914,5.25257a22.46521,22.46521 0 0 1 1.63989,5.27723a1.233,1.233 0 0 1 -0.9864,1.51659l-0.34524,-0.01233z"/>
      <path stroke="null" id="svg_775" fill="#132c39" d="m183.42945,244.4446a1.233,1.233 0 0 1 -1.233,-0.76446c0,-0.16029 -1.68921,-3.82229 -2.12076,-4.93199c-1.03572,-2.5523 -4.93199,-3.97025 -6.32528,-4.30316a1.233,1.233 0 1 1 0.57951,-2.46599c0.25893,0.06165 6.38693,1.54125 8.12545,5.83208c0.43155,1.04805 2.08377,4.80869 2.0961,4.84568a1.233,1.233 0 0 1 -1.233,1.80018l0.11097,-0.01233z"/>
      <path stroke="null" id="svg_776" fill="#132c39" d="m181.40733,247.57642a1.233,1.233 0 0 1 -1.233,-0.91242a49.12261,49.12261 0 0 0 -2.12076,-5.94305c-1.31931,-2.00979 -5.1416,-3.48938 -6.51023,-3.88394a1.233,1.233 0 0 1 0.72747,-2.46599c5.64713,1.66455 7.71856,4.62374 7.9405,4.93199a45.99079,45.99079 0 0 1 2.46599,6.59653a1.233,1.233 0 0 1 -0.85077,1.6029a1.03572,1.03572 0 0 1 -0.41922,0.07398z"/>
      <path stroke="null" id="svg_777" fill="#132c39" d="m178.3495,248.51349a1.233,1.233 0 0 1 -1.233,-1.01106a22.68715,22.68715 0 0 0 -1.233,-4.4018c-1.31931,-2.00979 -5.1416,-3.48938 -6.51023,-3.89627a1.233,1.233 0 1 1 0.72747,-2.46599c5.64713,1.66455 7.71856,4.62374 7.9405,4.93199a23.05705,23.05705 0 0 1 1.63989,5.27723a1.233,1.233 0 0 1 -0.99873,1.52892a0.92475,0.92475 0 0 1 -0.33291,0.03699z"/>
     </g>
     <path stroke="null" id="svg_778" fill="#325e6f" d="m159.58328,232.33657a5.05529,5.05529 0 1 0 5.04296,5.05529a5.05529,5.05529 0 0 0 -5.04296,-5.05529z"/>
    </g>
   </g>
   <g stroke="null" id="p1">
    <polygon stroke="null" id="svg_779" fill="#a1bdba" points="204.43969631195068,86.32504940032959 204.45202541351318,89.5185079574585 226.12814235687256,76.99125576019287 226.12814235687256,73.81012630462646 204.43969631195068,86.32504940032959 "/>
    <polygon stroke="null" id="svg_780" fill="#a1bdba" points="204.42742824554443,79.76550197601318 204.42742824554443,82.94663143157959 231.9972219467163,67.0409688949585 231.98487758636475,63.85983943939209 204.42742824554443,79.76550197601318 "/>
    <polygon stroke="null" id="svg_781" fill="#a1bdba" points="204.56303310394287,130.87322902679443 204.57537746429443,134.05436611175537 227.311842918396,120.93527126312256 227.29949855804443,117.74180507659912 204.56303310394287,130.87322902679443 "/>
    <polygon stroke="null" id="svg_782" fill="#a1bdba" points="204.5506887435913,124.31368923187256 204.56303310394287,127.4948263168335 232.12049770355225,111.57682704925537 232.10815334320068,108.39569759368896 204.5506887435913,124.31368923187256 "/>
    <path stroke="null" id="svg_783" fill="#fff" d="m195.51282,65.26545l0.25893,90.465l63.40071,-36.60769l-0.25893,-90.465l-63.40071,36.60769zm8.91457,14.52471l27.55749,-15.90566l0,3.18113l-27.56982,15.90566l0.01233,-3.18113zm0,6.55954l21.68842,-12.51492l0,3.18113l-21.66376,12.50259l-0.02466,-3.1688zm0,15.70838l27.55749,-15.90566l0,3.15647l-27.48351,15.91799l-0.07398,-3.1688zm0,6.57187l9.27214,-5.36354l0,3.19346l-9.27214,5.35121l0,-3.18113zm0.07398,25.44906l0,-3.18113l22.73647,-13.13142l0,3.19346l-22.73647,13.11909zm0,-6.55954l0,-3.18113l27.60681,-15.91799l0,3.18113l-27.60681,15.91799z"/>
    <g stroke="null" id="s1">
     <path stroke="null" id="svg_784" fill="#fff" d="m242.07079,79.85181a1.46727,1.46727 0 0 0 -0.54252,0.57951c-0.30825,0.51786 -0.29592,1.07271 0,1.233l1.75086,0.99873l1.09737,-1.88649l-1.76319,-0.9864a0.51786,0.51786 0 0 0 -0.54252,0.06165z"/>
     <g stroke="null" id="s1-2">
      <path stroke="null" id="svg_785" fill="#f25512" d="m244.35184,74.91982a13.56297,13.56297 0 0 0 -6.16499,10.71475c0,3.93326 2.7989,5.52383 6.22664,3.55103a13.63695,13.63695 0 0 0 6.16499,-10.71475c0,-3.94559 -2.7989,-5.53616 -6.22664,-3.55103zm2.87288,8.75428a1.65222,1.65222 0 0 1 -0.54252,0.57951a0.56718,0.56718 0 0 1 -0.55485,0l-1.75086,-0.99873l-1.73853,3.02084a1.50426,1.50426 0 0 1 -0.54252,0.56718a0.54252,0.54252 0 0 1 -0.55485,0c-0.29592,-0.17262 -0.29592,-0.7398 0,-1.233l1.73853,-3.02084l-1.75086,-0.99873c-0.29592,-0.17262 -0.30825,-0.72747 0,-1.233a1.46727,1.46727 0 0 1 0.54252,-0.57951a0.51786,0.51786 0 0 1 0.54252,0l1.76319,0.9864l1.78785,-2.98385a1.55358,1.55358 0 0 1 0.54252,-0.57951a0.56718,0.56718 0 0 1 0.55485,0c0.29592,0.17262 0.29592,0.72747 0,1.233l-1.73853,3.02084l1.75086,0.99873c0.2466,0.13563 0.2466,0.70281 -0.04932,1.22067z"/>
      <path stroke="null" id="svg_786" fill="#fff" d="m247.21239,77.15155a0.56718,0.56718 0 0 0 -0.55485,0a1.55358,1.55358 0 0 0 -0.54252,0.57951l-1.73853,3.00851l-1.09737,1.88649l-1.73853,3.02084c-0.29592,0.51786 -0.29592,1.08504 0,1.233a0.54252,0.54252 0 0 0 0.55485,0a1.50426,1.50426 0 0 0 0.54252,-0.56718l1.73853,-3.02084l1.09737,-1.88649l1.73853,-3.02084c0.29592,-0.50553 0.29592,-1.06038 0,-1.233z"/>
     </g>
    </g>
    <g stroke="null" id="r1">
     <path stroke="null" id="svg_787" fill="#73c9c1" d="m243.96961,96.68222a13.56297,13.56297 0 0 0 -6.16499,10.71475c0,3.93326 2.7989,5.52383 6.16499,3.55103a13.64928,13.64928 0 0 0 6.16499,-10.72708c0.04932,-3.93326 -2.73725,-5.52383 -6.16499,-3.5387zm3.57569,3.61268l-3.62501,6.27596a1.76319,1.76319 0 0 1 -0.54252,0.57951a0.56718,0.56718 0 0 1 -0.55485,0l-2.40434,-1.36863c-0.29592,-0.17262 -0.29592,-0.72747 0,-1.233a1.50426,1.50426 0 0 1 0.54252,-0.56718a0.54252,0.54252 0 0 1 0.55485,0l1.8495,1.06038l3.08249,-5.33888a1.65222,1.65222 0 0 1 0.54252,-0.57951a0.56718,0.56718 0 0 1 0.55485,0c0.29592,0.08631 0.29592,0.66582 0,1.17135z"/>
    </g>
    <g stroke="null" id="q1">
     <path stroke="null" id="svg_788" fill="#73c9c1" d="m243.90796,53.87256a13.56297,13.56297 0 0 0 -6.16499,10.71475c0,3.93326 2.7989,5.52383 6.22664,3.55103a13.64928,13.64928 0 0 0 6.16499,-10.71475c-0.01233,-3.94559 -2.73725,-5.53616 -6.22664,-3.55103zm3.57569,3.61268l-3.62501,6.27596a1.65222,1.65222 0 0 1 -0.54252,0.57951a0.57951,0.57951 0 0 1 -0.55485,0l-2.46599,-1.38096c-0.29592,-0.17262 -0.29592,-0.72747 0,-1.233a1.55358,1.55358 0 0 1 0.54252,-0.57951a0.54252,0.54252 0 0 1 0.55485,0l1.8495,1.04805l3.08249,-5.33888a1.65222,1.65222 0 0 1 0.54252,-0.57951a0.56718,0.56718 0 0 1 0.55485,0c0.35757,0.1233 0.35757,0.69048 0.06165,1.20834z"/>
    </g>
    <polygon stroke="null" id="svg_789" fill="#a1bdba" points="204.50140285491943,108.5929708480835 204.51367092132568,111.78643703460693 213.78582668304443,106.43522548675537 213.77348232269287,103.25409603118896 204.50140285491943,108.5929708480835 "/>
    <polygon stroke="null" id="svg_790" fill="#a1bdba" points="204.48905849456787,102.03343105316162 204.50140285491943,105.22689723968506 232.05885219573975,89.30889797210693 232.04650783538818,86.127760887146 204.48905849456787,102.03343105316162 "/>
    <polygon stroke="null" id="svg_791" opacity="0.4" fill="#fff" points="225.62264919281006,164.9162893295288 259.17245388031006,119.09811305999756 195.7717580795288,155.70580959320068 225.62264919281006,164.9162893295288 "/>
   </g>
   <g stroke="null" id="t1">
    <g stroke="null" id="tarm">
     <path stroke="null" id="svg_792" fill="#007385" d="m296.27335,185.21142l0,0l0,0l-0.40689,-0.2466c-0.38223,-0.23427 -0.9864,-0.64116 -1.76319,-1.233a66.58185,66.58185 0 0 1 -6.33761,-5.22791a81.18053,81.18053 0 0 1 -8.12545,-8.75428c-1.38096,-1.71387 -2.74958,-3.5387 -4.05656,-5.47451s-2.5523,-3.93326 -3.69899,-5.99237l-0.83844,-1.49193l-0.88776,-1.68921c-0.6165,-1.14669 -1.09737,-2.17008 -1.61523,-3.21812c-0.1233,-0.25893 -0.2466,-0.51786 -0.38223,-0.77679s-0.2466,-0.54252 -0.3699,-0.81378l-0.7398,-1.61523c-0.50553,-1.06038 -0.93708,-2.15775 -1.40562,-3.20579s-0.8631,-2.12076 -1.29465,-3.15647s-0.78912,-2.05911 -1.233,-3.0455s-0.71514,-1.98513 -1.07271,-2.9222l-0.96174,-2.74958l-0.85077,-2.53997l-0.7398,-2.29337l-0.62883,-2.03445c-0.18495,-0.62883 -0.35757,-1.233 -0.50553,-1.7262c-0.30825,-1.04805 -0.54252,-1.86183 -0.69048,-2.46599l-0.22194,-0.82611l0,-0.11097a3.87161,3.87161 0 0 0 -7.58293,1.61523s0,0.33291 0.13563,0.96174s0.23427,1.49193 0.41922,2.61395c0.09864,0.56718 0.20961,1.233 0.32058,1.86183s0.25893,1.39329 0.39456,2.18241s0.32058,1.6029 0.48087,2.46599s0.3699,1.78785 0.56718,2.73725s0.43155,1.94814 0.66582,2.98385s0.4932,2.08377 0.75213,3.1688s0.55485,2.20706 0.8631,3.35375s0.6165,2.3057 0.96174,3.48938s0.69048,2.37968 1.08504,3.60035c0.19728,0.60417 0.38223,1.233 0.57951,1.82484c0.11097,0.30825 0.19728,0.6165 0.30825,0.92475l0.33291,0.94941c0.44388,1.233 0.90009,2.58929 1.34397,3.69899c0.22194,0.59184 0.45621,1.233 0.67815,1.78785l0.08631,0.22194l0.13563,0.32058l0.19728,0.46854l0.39456,0.93708c1.06038,2.46599 2.21939,4.93199 3.46472,7.324s2.57696,4.67306 3.94559,6.84313a98.34385,98.34385 0 0 0 8.35972,11.36823a82.61081,82.61081 0 0 0 7.08973,7.39798c0.94941,0.85077 1.7262,1.51659 2.29337,1.9728l0.70281,0.55485l0.30825,0.22194l0.09864,0.08631c0.23427,0.16029 0.48087,0.33291 0.72747,0.48087a8.63098,8.63098 0 1 0 8.76661,-14.79597l-0.04932,-0.01233z"/>
     <path stroke="null" id="svg_793" fill="#f9b395" d="m250.49216,109.76432l-4.32782,-7.98982s-1.44261,0.33291 -0.55485,2.46599c0.48087,1.13436 1.96047,6.76915 1.96047,6.76915a2.46599,2.46599 0 0 1 -0.18495,1.233s-1.31931,-0.7398 -1.44261,0a17.26196,17.26196 0 0 0 0.76446,5.53616a11.81211,11.81211 0 0 0 4.17986,4.7717c1.01106,0.55485 5.20325,-0.62883 5.54849,-2.07144s0.18495,-7.52128 -0.80145,-9.09952c-0.69048,-1.02339 -5.1416,-1.61523 -5.1416,-1.61523z"/>
    </g>
    <path stroke="null" id="svg_794" fill="#fff" d="m265.47308,380.39487a58.51805,58.51805 0 0 0 -7.39798,-0.41922c-0.78912,0 -11.33124,-1.233 -8.54467,3.60035c0.57951,0.9864 2.46599,2.07144 4.4018,3.07016c0,0 11.61483,4.41413 12.88482,4.50044s6.46091,0.71514 7.53361,-3.10715c0,0 0,-5.81975 -1.02339,-6.86779c-1.88649,-2.02212 -5.1416,-0.25893 -7.85419,-0.77679z"/>
    <path stroke="null" id="svg_795" fill="#fff" d="m299.33118,365.06872s-7.66924,-2.62628 -8.63098,-2.87288s-8.98855,-1.70154 -7.15138,3.56336c0.38223,1.08504 3.47705,4.11821 9.74068,6.26363c1.92348,0.66582 5.46218,4.2785 6.67051,4.66073c1.56591,0.4932 6.69517,1.66455 7.45963,-3.18113c0,0 0.17262,-4.17986 -0.55485,-5.28956a6.85546,6.85546 0 0 0 -7.53361,-3.14414z"/>
    <path stroke="null" id="svg_796" fill="#f15c2b" d="m283.65979,250.5726a13.19307,13.19307 0 0 0 -19.9129,7.64458a92.59809,92.59809 0 0 0 -2.46599,14.79597c-0.56718,5.69645 -0.90009,11.41755 -0.93708,17.12633s0,11.76279 0.38223,17.61953c0.27126,4.56209 0.69048,9.09952 1.02339,13.66161c0.38223,5.35121 0.60417,10.72708 0.83844,16.09061q0.39456,8.63098 0.65349,17.33594c0.16029,5.53616 0.32058,11.09697 0.44388,16.63313c0,2.46599 0.09864,4.93199 0.13563,7.39798a10.61611,10.61611 0 0 0 0.39456,3.84695a4.83335,4.83335 0 0 0 9.12418,-0.56718a12.39162,12.39162 0 0 0 0.2466,-2.03445l0.29592,-3.92093c0.38223,-4.84568 0.7398,-9.67903 1.12203,-14.52471q0.64116,-8.19943 1.233,-16.38653q0.70281,-8.75428 1.31931,-17.49623c0.27126,-3.89627 0.40689,-7.80487 0.71514,-11.70114c0.45621,-5.83208 1.02339,-11.65182 1.89882,-17.43458a166.45462,166.45462 0 0 1 3.31676,-16.8674c0.70281,-2.70026 1.45494,-5.3882 2.33036,-8.05147c0.41922,-1.233 0.87543,-2.5523 1.3563,-3.80996c0.35757,-0.94941 0.81378,-1.83717 1.233,-2.74958a13.18074,13.18074 0 0 0 -4.7717,-16.67012l0.02466,0.06165z"/>
    <path stroke="null" id="svg_797" fill="#de5528" d="m263.74688,258.21718a92.59809,92.59809 0 0 0 -2.46599,14.79597c-0.56718,5.69645 -0.90009,11.41755 -0.93708,17.12633s0,11.76279 0.38223,17.61953c0.27126,4.56209 0.69048,9.09952 1.02339,13.66161c0.38223,5.35121 0.60417,10.72708 0.83844,16.09061q0.39456,8.63098 0.65349,17.33594c0.16029,5.53616 0.32058,11.09697 0.44388,16.63313c0,2.46599 0.09864,4.93199 0.13563,7.39798a10.61611,10.61611 0 0 0 0.39456,3.84695a4.43879,4.43879 0 0 0 0.55485,0.97407c-0.07398,-7.52128 0.41922,-15.04257 0.8631,-22.55152c0.57951,-9.86398 0.39456,-19.83892 0.54252,-29.73989c0.18495,-12.0957 0.33291,-24.14208 -0.07398,-36.22546c-0.3699,-11.38056 -0.25893,-23.75986 5.59781,-33.90742a10.34485,10.34485 0 0 1 1.89882,-2.37968c0.69048,-3.2921 1.44261,-6.5842 2.28104,-9.86398a5.27723,5.27723 0 0 1 0.18495,-0.62883a13.14375,13.14375 0 0 0 -4.38947,0.88776a13.27938,13.27938 0 0 0 -7.92817,8.9269z"/>
    <path stroke="null" id="svg_798" fill="#f15c2b" d="m305.95238,354.55125q-0.80145,-11.09697 -1.65222,-22.11997c-0.55485,-6.9541 -1.1097,-13.90821 -1.99746,-20.82532c-0.57951,-4.50044 -1.68921,-26.80536 -1.233,-34.43761c1.233,-22.92142 -1.13436,-26.96565 -1.233,-27.90273c-0.81378,-5.73344 -4.79636,-7.10206 -10.54213,-7.91584a13.34103,13.34103 0 0 0 -13.96986,7.78021a14.00685,14.00685 0 0 0 -0.91242,7.61992c0.44388,3.40307 0.94941,6.80614 1.49193,10.19689c1.233,7.84186 2.70026,15.64673 4.34015,23.42695q2.33036,10.986 5.5115,21.75007a0.29592,0.29592 0 0 1 0,-0.09864c0.1233,0.51786 0.28359,1.03572 0.41922,1.55358c1.62756,5.96771 2.94686,12.03405 4.22918,18.08807q2.33036,11.09697 4.36481,22.19395c0.56718,3.03317 1.1097,6.05402 1.65222,9.08719l0.7398,4.30316a12.8355,12.8355 0 0 0 0.39456,1.96047a4.84568,4.84568 0 0 0 9.40777,-2.07144c-0.38223,-4.22918 -0.71514,-8.42137 -1.01106,-12.5889z"/>
    <path stroke="null" id="svg_799" fill="#de5528" d="m298.59138,353.78679c-1.54125,-7.97749 -3.09482,-15.95498 -4.73471,-23.92015c-0.28359,-1.39329 -0.56718,-2.77424 -0.8631,-4.1552c-2.65094,-9.80233 -7.08973,-27.59448 -9.30913,-39.6162c-0.22194,-0.80145 -0.43155,-1.6029 -0.65349,-2.40434a75.90331,75.90331 0 0 1 -2.00979,10.57912q2.03445,8.96389 4.59908,17.84147a0.29592,0.29592 0 0 1 0,-0.09864c0.1233,0.51786 0.28359,1.03572 0.41922,1.55358c1.62756,5.96771 2.94686,12.03405 4.22918,18.08807q2.33036,11.09697 4.36481,22.19395c0.56718,3.03317 1.1097,6.05402 1.65222,9.08719l0.7398,4.30316a12.8355,12.8355 0 0 0 0.39456,1.96047a4.93199,4.93199 0 0 0 4.83335,3.26744c-1.59057,-6.17732 -2.46599,-12.51492 -3.662,-18.67991z"/>
    <path stroke="null" id="svg_800" fill="#007385" d="m294.17725,175.1255c-5.49917,-0.56718 -12.82317,0.22194 -22.19395,6.47324c-6.36227,4.24151 -6.97876,13.6986 -8.63098,16.30022c-4.17986,6.79381 -5.47451,7.15138 -5.33888,10.66543c0.20961,5.52383 6.0047,7.63225 6.0047,7.63225l1.233,24.15441l-1.78785,18.82787s6.4979,5.69645 22.57618,2.15775s14.21646,-11.24493 14.21646,-11.24493a61.98277,61.98277 0 0 1 -1.93581,-8.24875c-1.88649,-21.47881 4.13054,-43.63577 4.51277,-45.85517c1.41795,-7.87885 0.87543,-19.87591 -8.65564,-20.86231z"/>
    <path stroke="null" id="svg_801" opacity="0.1" fill="#1d1d1b" d="m278.69081,195.66723a6.78148,6.78148 0 0 1 -4.38947,0.41922a7.61992,7.61992 0 0 1 -5.80742,-9.37078a11.49153,11.49153 0 0 1 1.83717,-3.7853c-4.83335,4.63607 -5.48684,12.61356 -6.92944,14.96859c-4.17986,6.79381 -5.47451,7.15138 -5.33888,10.66543c0.20961,5.52383 6.0047,7.63225 6.0047,7.63225l1.233,24.15441l-1.78785,18.82787a13.36569,13.36569 0 0 0 4.46345,2.17008c0.17262,-0.41922 0.35757,-0.85077 0.55485,-1.233c3.26744,-6.74449 5.65946,-14.86995 9.86398,-22.92142c0.22194,-3.98258 4.17986,-33.29092 2.25638,-37.95165a26.05323,26.05323 0 0 0 -1.96047,-3.57569z"/>
    <g stroke="null" id="thead">
     <path stroke="null" id="svg_802" fill="#f9b395" d="m276.39743,166.85209l2.0961,11.09697c0,3.61268 10.48048,0.65349 10.51747,-2.95919l-0.4932,-7.97749l-12.12036,-0.16029z"/>
     <path stroke="null" id="svg_803" fill="#f9b395" d="m272.20524,159.82401c-1.4796,6.78148 2.56463,10.76407 8.98855,12.18201c0,0 11.92308,-2.13309 13.39035,-8.79127l4.83335,-11.01066l-23.42695,-9.45709l-3.7853,17.07701z"/>
     <path stroke="null" id="svg_804" fill="#002d42" d="m286.16277,137.59307c-10.57912,-0.80145 -12.97113,8.01448 -11.30658,10.14757s3.95792,13.41501 3.95792,13.41501s1.92348,7.49662 4.93199,9.1735c1.3563,0.77679 5.32655,0 5.32655,0s0.96174,-0.64116 5.32655,-3.92093s8.8036,-17.81681 5.06762,-22.19395s-13.30404,-6.62119 -13.30404,-6.62119z"/>
     <path stroke="null" id="svg_805" fill="#002d42" d="m299.41749,152.20408s-8.82826,0.54252 -8.71729,3.89627s-1.12203,6.76915 3.69899,10.34485s10.81339,-5.52383 10.22155,-10.44349a4.13054,4.13054 0 0 0 -5.20325,-3.79763z"/>
     <path stroke="null" id="svg_806" fill="#fff" d="m279.45527,149.78741c-2.87288,-0.57951 -5.7581,1.68921 -6.46091,5.09228s1.04805,6.64585 3.92093,7.22536s5.7581,-1.68921 6.46091,-5.07995s-1.1097,-6.68284 -3.92093,-7.23769z"/>
     <path stroke="null" id="svg_807" fill="#fff" d="m287.46975,136.8656c-8.48302,-0.4932 -9.55573,14.61102 -9.55573,14.61102l3.37841,0.69048c2.37968,-14.04384 9.50641,-13.02045 9.50641,-13.02045l3.69899,1.43028s-1.03572,-3.36608 -7.02808,-3.71132z"/>
    </g>
    <path stroke="null" id="svg_808" fill="#ffd554" d="m248.29743,246.39274c-5.94305,1.34397 -6.16499,40.04775 -4.47578,42.52607c1.06038,1.52892 20.67736,8.38438 32.57579,10.0366c7.39798,1.01106 10.72708,-3.45239 11.22027,-4.09355c2.05911,-2.70026 -1.96047,-36.86662 -4.41413,-39.87513c-5.84441,-7.13905 -25.94226,-10.64077 -34.90615,-8.59399z"/>
    <path stroke="null" id="svg_809" opacity="0.03" d="m287.61771,292.70411c-7.84186,8.32273 -20.776,3.7853 -29.48096,-0.44388a28.91378,28.91378 0 0 1 -10.78873,-9.27214c-2.15775,-2.99618 -3.21812,-6.55954 -4.4018,-10.0366c-0.19728,8.00215 0.17262,14.95626 0.87543,15.96731c1.06038,1.52892 20.67736,8.38438 32.57579,10.0366c7.39798,1.01106 10.72708,-3.45239 11.22027,-4.09355a6.16499,6.16499 0 0 0 0.53019,-2.74958l-0.53019,0.59184z"/>
    <path stroke="null" id="svg_810" fill="#e8bf60" d="m248.29743,246.39274c-3.42773,0.77679 -6.31295,9.30913 -5.31422,25.4244c0.08631,0 5.28956,12.03405 32.81005,10.51747c2.70026,-0.14796 2.46599,-17.86613 3.44006,-21.71308c0.7398,-2.72492 2.29337,-5.11694 4.93199,-5.24024c-5.8814,-7.12672 -26.904,-11.03532 -35.86789,-8.98855z"/>
    <path stroke="null" id="svg_811" fill="#ffd554" d="m248.29743,246.39274c-3.42773,0.77679 -6.31295,9.30913 -5.31422,25.4244c0.08631,0 4.93199,8.63098 31.1825,8.63098c2.71259,0 2.18241,-17.18798 3.21812,-21.03493a6.16499,6.16499 0 0 1 5.79509,-4.48811c-5.8814,-7.08973 -25.9176,-10.57912 -34.88149,-8.53234z"/>
    <g stroke="null" id="svg_812">
     <path stroke="null" id="svg_813" fill="#007385" d="m272.77242,182.93037c-4.47578,-0.27126 -7.29934,4.4018 -7.5706,8.87758c0,0 -1.14669,9.1735 -1.44261,12.81084s-0.66582,7.86652 -1.17135,12.32997c-0.2466,2.24405 -0.53019,4.56209 -0.85077,6.88012s-2.29337,11.26959 -2.29337,11.26959l0,0a184.94958,184.94958 0 0 0 -15.64673,23.53792a10.97367,10.97367 0 0 0 -1.61523,3.92093l0,0c-1.04805,1.46727 3.5387,4.73471 4.93199,3.25511c0,0 15.93032,-15.90566 17.40992,-17.79215c5.61014,-6.8308 6.32528,-9.62971 6.60886,-10.33252c0.54252,-1.38096 0.9864,-2.6756 1.38096,-3.95792c0.80145,-2.5523 1.44261,-5.04296 2.04678,-7.48429s1.13436,-4.82102 1.62756,-7.13905c0.9864,-4.61141 1.81251,-8.91457 2.46599,-12.60123s1.233,-6.75682 1.56591,-8.91457s0.55485,-3.42773 0.55485,-3.42773c0,-0.25893 0.07398,-0.54252 0.08631,-0.80145c0.22194,-4.4018 -3.61268,-10.1599 -8.08846,-10.43116z"/>
     <path stroke="null" id="svg_814" fill="#f9b395" d="m250.13459,262.96422z"/>
     <path stroke="null" id="svg_815" fill="#f9b395" d="m246.96579,262.03947a5.6348,5.6348 0 0 1 -3.1688,-3.37841c-3.03317,4.82102 -3.80996,6.36227 -4.69772,7.9405l0,0s-3.9086,6.2513 -3.82229,6.79381s0.67815,5.17859 0.76446,5.72111a5.73344,5.73344 0 0 0 2.97152,2.40434c1.233,0.3699 4.0319,0.81378 4.0319,0.81378a1.91115,1.91115 0 0 0 0.19728,-1.08504l0.92475,-0.2466s2.00979,-0.17262 0.4932,-1.63989l0.50553,-0.4932a1.59057,1.59057 0 0 0 -1.02339,-1.46727l0.66582,-3.99491s2.13309,-3.26744 0.71514,-5.62247l4.61141,-4.82102s-0.48087,0.33291 -3.1688,-0.92475z"/>
    </g>
    <path stroke="null" id="svg_816" fill="#ffd554" d="m271.9833,181.59874l-1.65222,1.33164s9.76534,-2.6756 10.78873,9.40777s-0.09864,69.86162 -0.09864,69.86162l4.05656,-0.85077s-1.02339,-66.47088 -1.02339,-70.12055s-3.36608,-10.73941 -12.07104,-9.62971z"/>
    <path stroke="null" id="svg_817" fill="#007385" d="m251.62652,245.91187l12.00939,-40.92318c0,-0.48087 1.233,-10.62844 1.233,-10.62844l-18.08807,55.07798l4.84568,-3.52637z"/>
   </g>
  </g>
 </g>
</svg>