<?xml version="1.0" encoding="utf-8"?>
<!-- Generator: Adobe Illustrator 16.0.0, SVG Export Plug-In . SVG Version: 6.00 Build 0)  -->
<!DOCTYPE svg PUBLIC "-//W3C//DTD SVG 1.1//EN" "http://www.w3.org/Graphics/SVG/1.1/DTD/svg11.dtd">
<svg version="1.1" id="Layer_1" xmlns="http://www.w3.org/2000/svg" xmlns:xlink="http://www.w3.org/1999/xlink" x="0px" y="0px"
	 width="20px" height="20px" viewBox="0 0 20 20" enable-background="new 0 0 20 20" xml:space="preserve">
<polygon fill-rule="evenodd" clip-rule="evenodd" fill="#2C3E50" points="5.18,19.147 3.501,18.177 3.472,18.156 3.445,18.13 
	3.422,18.1 3.402,18.063 3.388,18.025 3.375,17.979 3.369,17.93 3.365,17.879 3.365,4.219 3.37,4.181 3.378,4.142 3.393,4.104 
	3.412,4.065 3.435,4.029 3.462,3.998 3.491,3.971 3.522,3.948 3.56,3.926 3.599,3.904 3.638,3.882 3.676,3.86 3.714,3.838 
	3.753,3.814 3.791,3.793 3.83,3.771 3.868,3.748 3.907,3.727 3.945,3.704 3.984,3.681 4.021,3.66 4.06,3.637 4.099,3.616 
	4.137,3.593 4.168,3.578 4.197,3.572 4.224,3.575 4.247,3.583 5.926,4.552 5.903,4.542 5.876,4.542 5.847,4.547 5.815,4.562 
	5.776,4.585 5.738,4.607 5.7,4.629 5.662,4.651 5.623,4.673 5.584,4.695 5.547,4.718 5.508,4.739 5.47,4.762 5.432,4.785 
	5.392,4.806 5.355,4.828 5.316,4.85 5.277,4.872 5.239,4.896 5.201,4.917 5.169,4.939 5.14,4.966 5.113,4.998 5.09,5.035 
	5.071,5.072 5.057,5.11 5.047,5.15 5.044,5.188 5.044,16.374 15.658,10.245 15.688,10.229 15.717,10.223 15.742,10.224 
	15.768,10.234 17.443,11.201 17.424,11.193 17.395,11.193 17.367,11.199 17.336,11.214 5.971,17.775 5.044,17.237 5.044,18.846 
	5.046,18.898 5.053,18.949 5.065,18.993 5.081,19.032 5.101,19.068 5.123,19.101 5.151,19.125 "/>
<path fill-rule="evenodd" clip-rule="evenodd" fill="#415A73" d="M5.508,19.113c-0.128,0.072-0.245,0.081-0.328,0.034
	c-0.083-0.051-0.136-0.154-0.136-0.302V5.188c0-0.101,0.07-0.221,0.157-0.272c0.204-0.118,0.41-0.236,0.615-0.355
	c0.086-0.048,0.156-0.008,0.156,0.091v13.123l11.365-6.562c0.084-0.051,0.154-0.009,0.154,0.089c0,0.239,0,0.474,0,0.711
	c0,0.1-0.07,0.221-0.154,0.271L5.508,19.113z"/>
<polygon fill-rule="evenodd" clip-rule="evenodd" fill="#CCCCCC" points="5.971,6.955 5.971,6.647 13.51,2.295 13.703,2.49 "/>
<polygon fill-rule="evenodd" clip-rule="evenodd" fill="#E6EAEB" points="13.703,12.441 5.971,16.908 5.971,6.955 13.703,2.49 "/>
<path fill-rule="evenodd" clip-rule="evenodd" fill="#C43E3F" d="M6.959,15.092l-0.613-0.355l-0.031-0.018l-0.025-0.024
	l-0.023-0.028l-0.019-0.032l-0.016-0.035l-0.01-0.04l-0.007-0.045L6.213,14.47l0.001-0.047l0.003-0.053l0.009-0.051l0.012-0.055
	l0.017-0.053l0.021-0.057l0.024-0.059l2.307-4.778l0.024-0.047l0.024-0.046L8.684,9.18l0.028-0.042L8.74,9.096L8.77,9.055
	l0.031-0.038l0.031-0.038l0.034-0.037L8.9,8.909l0.033-0.033l0.035-0.03l0.036-0.028L9.04,8.79l0.036-0.024l0.037-0.022l2.444-1.42
	l1.086-2.843l0.613,0.354l-1.084,2.843l-2.445,1.42L9.69,9.12L9.654,9.144L9.617,9.171L9.582,9.199L9.547,9.23L9.513,9.263
	L9.479,9.297L9.447,9.334L9.415,9.371L9.384,9.41l-0.03,0.04L9.325,9.492L9.298,9.534L9.271,9.58L9.246,9.625L9.222,9.672
	l-2.306,4.779L6.89,14.51l-0.021,0.055l-0.017,0.055L6.84,14.674l-0.008,0.051l-0.005,0.051l-0.001,0.049l0.003,0.044l0.007,0.045
	l0.012,0.04l0.014,0.035l0.019,0.032l0.023,0.028l0.026,0.024L6.959,15.092L6.959,15.092z M14.496,6.102l-0.617-0.354l-0.055-0.04
	l-0.041-0.059l-0.029-0.075l-0.01-0.093l-0.027-0.851l0.613,0.354l0.025,0.851l0.014,0.093l0.029,0.076l0.041,0.058L14.496,6.102
	L14.496,6.102z M12.059,5.815l-0.029-0.021l-0.025-0.027l-0.018-0.032l-0.18-0.314l-0.018-0.039l-0.012-0.04l-0.01-0.043
	l-0.002-0.045l-0.002-0.048l0.004-0.05l0.008-0.052l0.01-0.053l0.018-0.054l0.02-0.052l0.02-0.054l0.027-0.053l0.029-0.052
	l0.033-0.05l0.035-0.05l0.035-0.046l0.111-0.124l0.109-0.125l0.105-0.124l0.111-0.125l0.107-0.125l0.111-0.124l0.107-0.125
	l0.107-0.124l0.109-0.125l0.107-0.125l0.109-0.123l0.109-0.125l0.107-0.125L13.525,2.9l0.109-0.124l0.109-0.124l0.107-0.125
	l0.109-0.124l0.107-0.125l0.109-0.123l0.109-0.125l0.107-0.124l0.107-0.125l0.111-0.125l0.107-0.123L14.83,1.41l0.107-0.125
	l0.107-0.124l0.111-0.125l0.109-0.125l0.107-0.125l0.107-0.124L14.871,0.31L14.76,0.434L14.65,0.558l-0.107,0.124l-0.109,0.125
	l-0.107,0.124l-0.109,0.125L14.109,1.18l-0.111,0.124l-0.105,0.125l-0.109,0.125l-0.111,0.124l-0.105,0.124l-0.111,0.124
	l-0.107,0.125L13.24,2.173l-0.109,0.125l-0.109,0.124l-0.107,0.123L12.805,2.67l-0.109,0.125l-0.107,0.124l-0.109,0.124
	l-0.109,0.125L12.26,3.292l-0.107,0.124l-0.109,0.125l-0.109,0.124l-0.107,0.125l-0.109,0.123l-0.107,0.125L11.5,4.162l-0.109,0.124
	l-0.039,0.046l-0.033,0.05l-0.033,0.049l-0.029,0.053L11.23,4.537l-0.023,0.054l-0.018,0.054l-0.016,0.053L11.16,4.75l-0.006,0.052
	l-0.004,0.05V4.9l0.006,0.045l0.006,0.043l0.016,0.04l0.016,0.038l0.178,0.314l0.021,0.032l0.023,0.027l0.029,0.021L12.059,5.815z"
	/>
<path fill-rule="evenodd" clip-rule="evenodd" fill="#E74C3C" d="M6.916,14.451l2.306-4.779C9.283,9.545,9.36,9.431,9.447,9.334
	c0.086-0.1,0.182-0.18,0.28-0.236l2.445-1.42l1.084-2.843l-0.695,0.795C12.35,5.872,12.09,5.92,11.986,5.735l-0.18-0.314
	c-0.104-0.187-0.018-0.537,0.195-0.781c1.162-1.325,2.32-2.651,3.479-3.977c0.047,1.464,0.094,2.927,0.141,4.392
	c0.008,0.268-0.178,0.607-0.416,0.752l-0.404,0.25c-0.234,0.147-0.436,0.047-0.445-0.222L14.33,4.985l-1.271,3.308
	c-0.053,0.128-0.127,0.252-0.217,0.361c-0.094,0.116-0.201,0.21-0.309,0.273l-2.5,1.452l-2.118,4.389
	c-0.144,0.302-0.416,0.496-0.604,0.438l-0.318-0.1C6.805,15.047,6.77,14.755,6.916,14.451z"/>
</svg>
