<?xml version="1.0" encoding="utf-8"?>
<!-- Generator: Adobe Illustrator 24.0.0, SVG Export Plug-In . SVG Version: 6.00 Build 0)  -->
<svg version="1.1" id="w5pose3Svg" xmlns="http://www.w3.org/2000/svg" xmlns:xlink="http://www.w3.org/1999/xlink" x="0px" y="0px"
	 viewBox="0 0 1400 1400" enable-background="new 0 0 1400 1400" xml:space="preserve">
<g>
	<g>
		<g>
			<path fill="#83441B" d="M565.94,1331.42c-3.88,2.63-3.98,2.29-1.97,6.31c1.16,2.3,3.74,3.46,7.66,3.46l101.03,0.01
				c0.85,0,6.85-0.74,10.26-5.25c-7.3-15.19-49.84-24.36-70.65-32.98C612.27,1302.98,566.16,1331.28,565.94,1331.42z"/>
			<path fill="#83441B" d="M832.72,1331.42c-0.21-0.17-44.4-27.87-44.4-27.87c-19.37,7.51-59.76,14.02-72.12,33.09
				c0.67,0.79,2.22,1.84,2.88,2.31c2.9,2.09,6.02,2.25,6.91,2.25l101.03-0.01c3.92,0,6.5-1.17,7.66-3.46
				C836.71,1333.71,837.33,1335.3,832.72,1331.42z M726,1339.34L726,1339.34L726,1339.34z"/>
			<path fill="#371200" d="M788.92,1304.1l-1.02-432.96H610.75l-1.01,432.96c0,0,46.51,8.19,73.52,32.98
				c1.74-2.31,1.85-6.33,1.85-11.44l2.71-388.1h23.02l2.71,388.12c0,5.67,0.79,9.74,2.66,11.93
				C749.79,1309.09,788.92,1304.1,788.92,1304.1z"/>
		</g>
		<g>
			<rect x="663.92" y="521.94" fill="#FFAA74" width="70.82" height="89.5"/>
			<g>
				<path fill="#58C8F1" d="M788.12,896.38V606.88c0-7.23-4.51-13.69-11.3-16.17c-5.85-2.13-12.5-4.46-20.11-7.1
					c-3.28-1.14-6.08-4.19-6.08-4.19l-15.33-14.91l-35.41,22.66c0,0-2.3,0.08-2.31-1.11l-33.67-21.54l-15.33,14.91
					c0,0-2.81,3.05-6.08,4.19c-53.79,18.67-52.93,24.18-32.81,88.21l-0.84,226.42l179.3-0.83l-0.13-0.64
					c0.17-0.13,0.33-0.26,0.5-0.39H788.12z"/>
				<path fill="#2895BA" d="M662.6,626.15l-15.51-42.73c-0.52-1.47,0.64-3.41,2.06-3.94c1.42-0.53,3,0.22,3.51,1.7l12.43,35.44
					l32.4-28.02c1.16-1.01,2.89-0.85,3.86,0.35c0.98,1.2,0.83,2.99-0.34,3.99L662.6,626.15z"/>
				<path fill="#2895BA" d="M735.88,626.12l-38.39-33.19c-1.16-1-1.32-2.79-0.34-3.99c0.97-1.2,2.7-1.36,3.86-0.35l32.43,28.03
					l12.58-35.02c0.52-1.47,2.11-2.21,3.52-1.68c1.43,0.54,2.15,2.17,1.62,3.64L735.88,626.12z"/>
				<rect x="694.91" y="592.93" fill="#2895BA" width="7.7" height="304.91"/>
			</g>
		</g>
	</g>
	<g id="gHL">
		<g id="gHLp">
			<path fill="#FFAA74" d="M984.18,543.14c13.77-4.84,0.72,31.83,9.78,31.69c8.58-5.35,31.63-43.92,44.08-37.4
				c10.54,5.51-24.05,32.94-21.41,36.89c2.51,3.92,31.97-32.33,40.42-22.34c6.51,7.68-15.66,22.73-19.62,26.49
				c-2.78,2.64-11.63,11.12-5.87,11.29c1.84,0.06,10.65-5.12,14.47-7.36c3.71-2.18,13.11-7.21,16-1.02
				c3.3,7.06-9.33,13.13-11.05,14.09c-8.27,4.6-15.78,9.64-23.12,15.31c-6.66,5.14-12.78,12.52-20.82,15.4
				c-11.07,3.98-20.8-2.35-27.09-11.31C972.27,603.95,967.8,548.92,984.18,543.14z"/>
			<path fill="#58C8F1" d="M962.46,605.13l-99.8,88.5c-9.71,8.61-10.61,23.6-2,33.31h0c8.61,9.71,23.6,10.61,33.31,2l99.8-88.5
				c9.71-8.61,10.61-23.6,2-33.31v0C987.16,597.42,972.18,596.52,962.46,605.13z"/>
		</g>
		<path fill="#58C8F1" d="M763.44,639.72l99.46,88.88c9.68,8.65,24.67,7.81,33.32-1.87l0,0c8.65-9.68,7.81-24.67-1.87-33.32
			l-99.46-88.88c-9.68-8.65-24.67-7.81-33.32,1.87h0C752.92,616.08,753.76,631.07,763.44,639.72z"/>
	</g>
	<g id="gHR">
		<g id="gHRp">
			<path fill="#FFAA74" d="M411.5,543.14c-13.77-4.84-0.72,31.83-9.78,31.69c-8.58-5.35-31.63-43.92-44.08-37.4
				c-10.54,5.51,24.05,32.94,21.41,36.89c-2.51,3.92-31.97-32.33-40.42-22.34c-6.51,7.68,15.66,22.73,19.62,26.49
				c2.78,2.64,11.63,11.12,5.87,11.29c-1.84,0.06-10.65-5.12-14.47-7.36c-3.71-2.18-13.11-7.21-16-1.02
				c-3.3,7.06,9.33,13.13,11.05,14.09c8.27,4.6,15.78,9.64,23.12,15.31c6.66,5.14,12.78,12.52,20.82,15.4
				c11.07,3.98,20.8-2.35,27.09-11.31C423.4,603.95,427.88,548.92,411.5,543.14z"/>
			<path fill="#58C8F1" d="M433.21,605.13l99.8,88.5c9.71,8.61,10.61,23.6,2,33.31l0,0c-8.61,9.71-23.6,10.61-33.31,2l-99.8-88.5
				c-9.71-8.61-10.61-23.6-2-33.31l0,0C408.51,597.42,423.5,596.52,433.21,605.13z"/>
		</g>
		<path fill="#58C8F1" d="M632.24,639.72l-99.46,88.88c-9.68,8.65-24.67,7.81-33.32-1.87l0,0c-8.65-9.68-7.81-24.67,1.87-33.32
			l99.46-88.88c9.68-8.65,24.67-7.81,33.32,1.87l0,0C642.76,616.08,641.92,631.07,632.24,639.72z"/>
	</g>
	<g id="gHead">
		<g>
			<path fill="#FFAA74" d="M618.6,408.01c4.59,26.11-10.89,47.85-34.6,52.55c-23.71,4.68-46.63-9.47-51.22-35.58
				c-4.59-26.12,10.89-51.09,34.6-55.77C591.08,364.52,614.01,381.9,618.6,408.01z"/>
			<path fill="#FFAA74" d="M783.99,408.01c-4.59,26.11,10.89,47.85,34.6,52.55c23.7,4.68,46.63-9.47,51.22-35.58
				c4.6-26.12-10.88-51.09-34.59-55.77C811.52,364.52,788.58,381.9,783.99,408.01z"/>
			<path fill="#FFAA74" d="M583,251.33c23.15-31.43,59.24-52.09,97.56-53.61c0,0,0.75-0.02,1.98-0.08l-0.04-1.5
				c0,0,9.29,0.36,18.89,0.75c9.59-0.39,18.88-0.75,18.88-0.75l-0.04,1.5c1.24,0.05,1.98,0.08,1.98,0.08
				c38.33,1.52,74.42,22.17,97.56,53.61c23.16,31.47,18.67,67.26,16.84,105.22c-1.38,28.68,1.12,55.74-0.31,84.42
				c-23.24,86.94-81.07,101.81-134.91,101.81c-53.85,0-113.6-14.86-134.91-101.81c-1.43-28.68,5.97-51.89,4.6-80.57
				C569.26,322.44,559.84,282.79,583,251.33z"/>
			<path fill="#582B10" d="M835.85,238.33c9.34-9.97,22.41-27.41,15.29-41.69c-7.95-15.93-27.54-4.58-38.8,1.19
				c5.45-4.94,9.46-14.12,1.8-19.62c-3.49-2.5-10.64-0.85-14.54,0.06c-10.82,2.5-20.58,11.19-32.32,9.05
				c5.09-11.59-8.32-9.82-15.42-8.47c-13.96,2.65-23.91,0.2-38.29-1.6c-46.22-5.8-73.3,3.16-111.59,26.99
				c1.39-12.39-9.28-19.5-17.89-8.26c-6.43,8.41-2.14,24.16-2.14,24.16s-20.5,0.51-22.22,15.3c-1.43,12.3,10.68,9.97,10.68,9.97
				c-4.27,5.34-6.67,15.8-7.88,20.13c-4.24,15.12-1.69,31.08-1.7,46.73c-0.06,50.96,0,140.79,0,140.79c0,8.05,0.63,27.5,13.33,41.06
				c-6.15,15.4,2.59,31.75,15.64,31.5c4.75,23.14,23.38,28.58,33.71,25.59c8.4,23.69,39.34,21.28,43.84,10.07
				c6.09,16.56,31.63,19.26,40.29,1.25c0,0,21.91,23.65,45.44-5.84c11.72,10.52,34.95,0.88,35.55-15.74
				c20.09-0.22,28.96-19.79,26.62-27.58c11.53,0.28,24.53-15.87,21.74-37.04c7.6-15.53,1.46-185.88,0-201.81
				c5.76-4.56,12.54-13.93,13.07-21.8C850.84,241.06,840.79,233.05,835.85,238.33z M817.56,434.04c0,15.46-10.32,37.39-33.09,37.39
				c0,0-18.12-50.3-86.93-50.3c-73.08,0-86.81,48.37-86.81,48.37c-21.84,0-29.82-21.48-29.82-35.5V307.27
				c10.66-4.56,33.85-4.81,44.6-3.75c38.85,3.8,75.05,22.8,142.89,11.82c37.76-6.1,39-12.64,49.16-20.66V434.04z"/>
		</g>
		<g id="gEyesz">
			<g id="gMouse">
				<defs>
					<path id="SVGID_1_" d="M655.39,480.35c20.21,46.31,83.88,32.95,94.61,0.34c0.87-2.65-0.8-4.94-3.25-4.94l-88.74-0.07
						C655.56,475.68,654.29,477.83,655.39,480.35z"/>
				</defs>
				<clipPath id="SVGID_2_">
					<use xlink:href="#SVGID_1_"  overflow="visible"/>
				</clipPath>
				<g clip-path="url(#SVGID_2_)">
					<path fill="#FFFFFF" d="M655.39,480.35c20.21,46.31,83.88,32.95,94.61,0.34c0.87-2.65-0.8-4.94-3.25-4.94l-88.74-0.07
						C655.56,475.68,654.29,477.83,655.39,480.35z"/>
				</g>
				<rect x="655.89" y="484.58" clip-path="url(#SVGID_2_)" fill="#6D2A1F" width="92.95" height="25.74"/>
				<circle clip-path="url(#SVGID_2_)" fill="#89392C" cx="703.12" cy="513.61" r="17.17"/>
			</g>
			<g id="gEyes">
				<path fill="#3F1801" d="M742.12,393.99c0,7.43,6.03,13.46,13.46,13.46c7.44,0,13.48-6.04,13.48-13.46
					c0-7.45-6.04-13.47-13.48-13.47C748.15,380.52,742.12,386.54,742.12,393.99z"/>
				<path fill="#3F1801" d="M629.6,393.99c0,7.43,6.03,13.46,13.47,13.46c7.43,0,13.47-6.03,13.47-13.46
					c0-7.45-6.04-13.47-13.47-13.47C635.63,380.51,629.6,386.54,629.6,393.99z"/>
			</g>
		</g>
	</g>
</g>
	<style>

		#w5pose3Svg #gEyes{
			transform-box: fill-box;
			-webkit-transform-origin: 50% 50%;
			-ms-transform-origin: 50% 50%;
			transform-origin: 50% 50%;
			-webkit-animation: animPos3eye1 3s infinite ease-in-out;
			animation: animPos3eye1 3s infinite ease-in-out;
		}

		@-webkit-keyframes animPos3eye1  {
			0%{-webkit-transform: scaleY(1);transform: scaleY(1);}
			5%{-webkit-transform: scaleY(0.1);transform: scaleY(0.1);}
			10%{-webkit-transform: scaleY(1);transform: scaleY(1);}
			60%{-webkit-transform: scaleY(1);transform: scaleY(1);}
			65%{-webkit-transform: scaleY(0.1);transform: scaleY(0.1);}
			70%{-webkit-transform: scaleY(1);transform: scaleY(1);}
			75%{-webkit-transform: scaleY(0.1);transform: scaleY(0.1);}
			80%{-webkit-transform: scaleY(1);transform: scaleY(1);}
			100%{-webkit-transform: scaleY(1);transform: scaleY(1);}
		}

		@keyframes animPos3eye1  {
			0%{-webkit-transform: scaleY(1);transform: scaleY(1);}
			5%{-webkit-transform: scaleY(0.1);transform: scaleY(0.1);}
			10%{-webkit-transform: scaleY(1);transform: scaleY(1);}
			60%{-webkit-transform: scaleY(1);transform: scaleY(1);}
			65%{-webkit-transform: scaleY(0.1);transform: scaleY(0.1);}
			70%{-webkit-transform: scaleY(1);transform: scaleY(1);}
			75%{-webkit-transform: scaleY(0.1);transform: scaleY(0.1);}
			80%{-webkit-transform: scaleY(1);transform: scaleY(1);}
			100%{-webkit-transform: scaleY(1);transform: scaleY(1);}
		}

		/************************/

		#w5pose3Svg #gEyesz{
			transform-box: fill-box;
			-webkit-transform-origin: 50% 50%;
			-ms-transform-origin: 50% 50%;
			transform-origin: 50% 50%;
			-webkit-animation: animPos3eye2 5s infinite ease-in-out;
			animation: animPos3eye2 5s infinite ease-in-out;
		}

		@-webkit-keyframes animPos3eye2{
			0%,20%{-webkit-transform: translateX(0px);transform: translateX(0px);}
			40%{-webkit-transform: translateX(-15px);transform: translateX(-15px);}
			50%{-webkit-transform: translateX(-15px);transform: translateX(-15px);}
			70%{-webkit-transform: translateX(10px);transform: translateX(10px);}
			80%{-webkit-transform: translateX(10px);transform: translateX(10px);}
			100%{-webkit-transform: translateX(0px);transform: translateX(0px);}
		}

		@keyframes animPos3eye2{
			0%,20%{-webkit-transform: translateX(0px);transform: translateX(0px);}
			40%{-webkit-transform: translateX(-15px);transform: translateX(-15px);}
			50%{-webkit-transform: translateX(-15px);transform: translateX(-15px);}
			70%{-webkit-transform: translateX(10px);transform: translateX(10px);}
			80%{-webkit-transform: translateX(10px);transform: translateX(10px);}
			100%{-webkit-transform: translateX(0px);transform: translateX(0px);}
		}

		/************************/

		#w5pose3Svg #gHRp{
			transform-box: fill-box;
			-webkit-transform-origin: 90% 90%;
			-ms-transform-origin: 90% 90%;
			transform-origin: 90% 90%;
			-webkit-animation: animPos3gHRp1 2s infinite alternate ease-in-out;
			animation: animPos3gHRp1 2s infinite alternate ease-in-out;
		}

		@-webkit-keyframes animPos3gHRp1{
			0%{-webkit-transform: rotate(0deg);transform: rotate(0deg);}
			100%{-webkit-transform: rotate(-15deg);transform: rotate(-15deg);}
		}

		@keyframes animPos3gHRp1{
			0%{-webkit-transform: rotate(0deg);transform: rotate(0deg);}
			100%{-webkit-transform: rotate(-15deg);transform: rotate(-15deg);}
		}

		/************************/

		#w5pose3Svg #gHLp{
			transform-box: fill-box;
			-webkit-transform-origin: 10% 90%;
			-ms-transform-origin: 10% 90%;
			transform-origin: 10% 90%;
			-webkit-animation: animPos3gHLp1 2s infinite alternate ease-in-out;
			animation: animPos3gHLp1 2s infinite alternate ease-in-out;
		}

		@-webkit-keyframes animPos3gHLp1{
			0%{-webkit-transform: rotate(0deg);transform: rotate(0deg);}
			100%{-webkit-transform: rotate(15deg);transform: rotate(15deg);}
		}

		@keyframes animPos3gHLp1{
			0%{-webkit-transform: rotate(0deg);transform: rotate(0deg);}
			100%{-webkit-transform: rotate(15deg);transform: rotate(15deg);}
		}

		/************************/

		#w5pose3Svg #gMouse{
			transform-box: fill-box;
			-webkit-transform-origin: 50% 50%;
			-ms-transform-origin: 50% 50%;
			transform-origin: 50% 50%;
			-webkit-animation: animPos3gMouse 0.8s infinite alternate ease-in-out;
			animation: animPos3gMouse 0.8s infinite alternate ease-in-out;
		}

		@-webkit-keyframes animPos3gMouse{
			0%{-webkit-transform: scaleY(1);transform: scaleY(1);}
			20%{-webkit-transform: scaleY(0.2);transform: scaleY(0.2);}
			40%{-webkit-transform: scaleY(1);transform: scaleY(1);}
			60%{-webkit-transform: scaleY(1);transform: scaleY(1);}
			80%{-webkit-transform: scaleY(0.2);transform: scaleY(0.2);}
			100%{-webkit-transform: scaleY(1);transform: scaleY(1);}
		}

		@keyframes animPos3gMouse{
			0%{-webkit-transform: scaleY(1);transform: scaleY(1);}
			20%{-webkit-transform: scaleY(0.2);transform: scaleY(0.2);}
			40%{-webkit-transform: scaleY(1);transform: scaleY(1);}
			60%{-webkit-transform: scaleY(1);transform: scaleY(1);}
			80%{-webkit-transform: scaleY(0.2);transform: scaleY(0.2);}
			100%{-webkit-transform: scaleY(1);transform: scaleY(1);}
		}

		/************************/

		#w5pose3Svg #gHair{
			transform-box: fill-box;
			-webkit-transform-origin: 50% 25%;
			-ms-transform-origin: 50% 25%;
			transform-origin: 50% 25%;
			-webkit-animation: animPos3gHair1 2.5s infinite alternate ease-in-out;
			animation: animPos3gHair1 2.5s infinite alternate ease-in-out;
		}

		@-webkit-keyframes animPos3gHair1{
			0%{-webkit-transform: rotate(0deg);transform: rotate(0deg);}
			100%{-webkit-transform: rotate(5deg);transform: rotate(5deg);}
		}

		@keyframes animPos3gHair1{
			0%{-webkit-transform: rotate(0deg);transform: rotate(0deg);}
			100%{-webkit-transform: rotate(5deg);transform: rotate(5deg);}
		}

	</style>
</svg>
