<svg width="450" height="450" xmlns="http://www.w3.org/2000/svg" xmlns:xlink="http://www.w3.org/1999/xlink">
 
 <metadata id="metadata67">image/svg+xml</metadata>
 <style type="text/css">.st0{fill:#A5DCF0;}
	.st1{fill:#EA996C;}
	.st2{fill:#89827E;}
	.st3{fill:#221F1F;}
	.st4{fill:#403F41;}
	.st5{fill:#29A9E0;}
	.st6{fill:#E8AF2E;}
	.st7{fill:#FFFFFF;}
	.st8{fill:#F0F1F1;}
	.st9{fill:none;stroke:#6C6E70;stroke-width:9.8843;stroke-linecap:round;stroke-miterlimit:10;}
    #DEDO{
     animation : click 1s 1;
    animation-delay:2s;
    
    }
     @keyframes click{
    0%{
        transform: translateY(0px)
    
    }
    100%{
        transform: translateY(5px)
    }
    }
    #SCREEN .st5{
    animation : hide 1s 1;
    animation-delay:3s;
    animation-fill-mode: forwards;
    }
    @keyframes hide{
    0%{
    fill: #29A9E0;
    
    }
    100%{
    fill : #000
    }
    }
    #ICONO{
     animation : off 1s 1;
    animation-delay:2.3s;
    animation-fill-mode: forwards;
    }
    @keyframes off{
    0%{
    visibility:visible
    
    }
    100%{
    visibility:hidden
    }
    }
    #text93{
    fill : #fff !important;
    visibility : hidden;
    animation : show 1s 1;
    animation-delay : 4.5s;
    animation-fill-mode: forwards;
    }
    @keyframes show{
    0%{
    visibility : hidden;
    }
    100%{
    visibility : visible;
    }
    }
	#tspan97 ,#tspan95{
	font-size: 30px !important
	}</style>
 <g>
  <title>Layer 1</title>
  <g id="MANO">
   <g id="g13">
    <path id="path7" d="m109.51111,162.65556c-0.7,32.6 -4.1,104.3 -4.1,104.3s-1.5,14.8 6,21.4c7.4,6.7 18.6,9.6 18.6,9.6l-18.6,30.4l97.2,44.2l71.1,-88.1l-145.6,-106.8c0,0 4,-16.7 -24.6,-15z" class="st1"/>
    <polygon id="polygon9" points="97.71112060546875,315.95555114746094 10.811111450195312,447.3555450439453 177.31112670898438,447.3555450439453 228.11111450195312,370.55555725097656 " class="st2"/>
    <polygon id="polygon11" points="97.71112060546875,315.95555114746094 10.811111450195312,447.3555450439453 94.0111083984375,447.3555450439453 162.91110229492188,343.2555694580078 " class="st2"/>
   </g>
  </g>
  <g id="DEDO">
   <path id="path16" d="m261.41111,65.85556l-19.7,20.3c-5.1,5.1 -29,14 -18.7,21.7c12.5,9.4 27.7,9.8 32.6,5.7l34.5,-30c5.2,-4.9 12.5,-14.3 1.7,-22.5c-12.6,-9.4 -25.6,0.7 -30.4,4.8z" class="st1"/>
  </g>
  <g id="CELLPHONE">
   <g id="g25">
    <path id="path19" d="m279.41111,71.25556l-129.8,0c-8.8,0 -15.9,5.6 -15.9,12.5l0,195.1c0,6.9 7.1,12.5 15.9,12.5l129.8,0c8.8,0 15.9,-5.6 15.9,-12.5l0,-195.1c0.1,-6.9 -7.1,-12.5 -15.9,-12.5z" class="st3"/>
    <path id="path21" d="m214.51111,81.85556c-3.3,0 -6,2.1 -6,4.7c0,2.6 2.7,4.7 6,4.7c3.3,0 6,-2.1 6,-4.7c0,-2.6 -2.7,-4.7 -6,-4.7z" class="st4"/>
    <path id="path23" d="m224.81111,270.95556l-20.6,0c-3.6,0 -6.6,2.3 -6.6,5.2c0,2.8 2.9,5.1 6.6,5.1l20.6,0c3.6,0 6.6,-2.3 6.6,-5.1c0,-2.9 -3,-5.2 -6.6,-5.2z" class="st4"/>
   </g>
  </g>
  <g id="SCREEN">
   <rect id="rect28" height="161.6" width="141.8" class="st5" y="98.95556" x="143.61111"/>
  </g>
  <g id="DEDOS">
   <g id="g37">
    <path id="path31" d="m287.31111,208.55556l-6.3,6.2c-5.1,5.1 -11.1,14 -0.8,21.7c12.5,9.4 25.5,-0.8 30.3,-4.9l5.5,-5.4c5.2,-4.9 12.5,-14.3 1.7,-22.5c-12.6,-9.3 -25.6,0.8 -30.4,4.9z" class="st1"/>
    <path id="path33" d="m287.31111,168.45556l-6.3,6.2c-5.1,5.1 -11.1,13.9 -0.8,21.7c12.5,9.4 25.5,-0.8 30.3,-4.9l5.5,-5.4c5.2,-4.9 12.5,-14.3 1.7,-22.5c-12.6,-9.4 -25.6,0.8 -30.4,4.9z" class="st1"/>
    <path id="path35" d="m287.31111,127.95556l-6.3,6.2c-5.1,5.1 -11.1,14 -0.8,21.7c12.5,9.4 25.5,-0.8 30.3,-4.9l5.5,-5.4c5.2,-4.9 12.5,-14.3 1.6,-22.5c-12.5,-9.3 -25.5,0.8 -30.3,4.9z" class="st1"/>
   </g>
  </g>
  <g id="ICONO">
   <g id="g58">
    <g id="g50">
     <path id="path40" d="m214.51111,137.45556c-25.5,0 -46.1,13.8 -46.1,30.9c0,17.1 20.6,30.9 46.1,30.9c25.5,0 46.1,-13.8 46.1,-30.9c0,-17.1 -20.6,-30.9 -46.1,-30.9z" class="st6"/>
     <polygon id="polygon42" points="168.41110229492188,200.95555114746094 216.61111450195312,192.1555633544922 187.91110229492188,176.75555419921875 " class="st7"/>
     <g id="g48">
      <path id="path44" d="m168.41111,168.35556c0,17.1 20.6,30.9 46.1,30.9l0,-61.8c-25.5,0 -46.1,13.8 -46.1,30.9z" class="st7"/>
      <path id="path46" d="m214.51111,137.45556l0,61.8c25.5,0 46.1,-13.8 46.1,-30.9c0,-17.1 -20.6,-30.9 -46.1,-30.9z" class="st8"/>
     </g>
    </g>
    <line id="line52" y2="160.95556" x2="239.11111" y1="160.95556" x1="193.01111" class="st9"/>
    <line id="line54" y2="169.75556" x2="239.11111" y1="169.75556" x1="193.01111" class="st9"/>
    <line id="line56" y2="178.45556" x2="239.11111" y1="178.45556" x1="193.01111" class="st9"/>
   </g>
  </g>
  <text font-style="normal" font-weight="normal" font-size="40px" font-family="sans-serif" fill="#000000" id="text87" y="164.06467" x="70.83465" xml:space="preserve"/>
 </g>
</svg>