<?xml version="1.0" encoding="utf-8"?>
<!-- Generator: Adobe Illustrator 17.0.0, SVG Export Plug-In . SVG Version: 6.00 Build 0)  -->
<!DOCTYPE svg PUBLIC "-//W3C//DTD SVG 1.1//EN" "http://www.w3.org/Graphics/SVG/1.1/DTD/svg11.dtd">
<svg version="1.1" id="Layer_1" xmlns="http://www.w3.org/2000/svg" xmlns:xlink="http://www.w3.org/1999/xlink" x="0px" y="0px"
	 width="800px" height="600px" viewBox="0 0 800 600" enable-background="new 0 0 800 600" xml:space="preserve">
<g>
	<path fill-rule="evenodd" clip-rule="evenodd" fill="#000011" d="M299.611,47.052c0.988,0.321,2.172-1.513,4.708-1.202
		c2.533,0.311,9.76,8.912,11.876,15.152c2.046,6.044-6.593,21.758-5.915,23.607c0.38,1.026,8.376,3.031,10.129,3.664
		c1.367-3.748,3.197-6.911,4.348-8.401c11.297,4.374,26.613,18.016,35.026,24.601c8.699,6.806,27.275,23.752,31.438,30.338
		c2.335,3.696,1.566,5.151,0.301,9.29c-1.69,5.521-2.526,18.114-3.786,31.121c-1.254,13.008-6.48,50.471-8.247,60.618
		c5.743,9.446,41.292,50.605,45.635,53.636c1.201-1.923,3.544-7.717,4.602-11.613c3.906,1.527,5.59,5.655,6.975,10.685
		c1.023,3.72,0.658,9.442,0.658,9.442s1.415,0.823,2.224,1.217c-0.201-9.933-1.955-37.57-0.978-52.374
		c0.871-13.306,3.278-25.544,7.336-29.124c3.282-2.895,9.807-3.516,12.608-2.927c4.113,0.867,5.945,4.065,6.591,8.339
		c1.384,9.14,9.064,22.835,12.866,28.577c6.195,9.361,30.87,51.103,38.809,72.648c6.989,0.597,12.583,0.044,20.914-2.2
		c7.068-1.903,16.55-8.845,25.442-11.436c5.145-5.381,11.933-11.06,19.196-14.713c1.547-0.778,11.314-5.431,9.532,1.954
		c1.313,0.715,2.269,1.663,3.04,2.484c-5.905,14.164-22.233,29.063-33.965,36.913c-9.584,6.414-18.195,11.274-30.987,14.029
		c-0.874-0.636-2.618-2.805-3.332-4.058c-1.718-0.044-3.8-1.226-5.629-1.908c-1.099,4.274,2.661,7.113,4.225,10.046
		c-7.391,6.087-15.539,11.062-23.487,15.701c-1.669-2.19-5.508-5.314-4.417-8.357c-3.093-2.139-5.184-6.407-5.812-11.305
		c-1.946,1.697-4.991,3.556-7.723,4.668c-1.654-7.491-5.072-27.959-7.402-37.593c-3.811-15.764-9.316-30.496-13.799-43.863
		c-1.068-3.179-2.302-5.895-3.931-8.282c-2.245,6.438-0.097,28.32,0.503,38.741c2.338,0.91,7.239,2.485,9.921,4.302
		c-0.321,13.77-8.286,36.472-13.201,38.474c2.407,7.324,3.987,18.977-6.544,38.288c-10.528,19.311-16.988,23.022-26.916,27.698
		c-6.712,26.993-8.426,57.539-9.855,88.287c1.386,0.213,2.426,0.893,3.354,1.729c11.767-20.32,37.459-45.91,55.198-62.825
		c0.9,0.643,1.986,1.414,2.58,2.105c2.362-5.256,6.719-12.091,15.259-15.82c1.74-3.111,3.683-4.997,4.92-5.438
		c6.582,4.225,18.596,21.183,22.943,29.858c-1.293,1.377-4.789,2.567-6.422,3.144c0.867,1.095,4.443,4.953,4.443,4.953
		s4.063-1.376,4.833-1.324c15.042,15.782,26.187,39.837,30.668,51.812c3.408,9.125,7.593,20.502,7.721,23.497
		c-1.194,0.657-2.909,1.974-4.192,1.808c0.223,1.198-0.166,2.668-1.433,3.002c-3.835,1.028-10.759-9.823-13.763-14.426
		c-3.968-6.08-8.136-12.753-7.885-17.199c-4.313-1.611-21.909-23.074-29.975-28.381c-23.912,16.559-81.857,56.052-87.018,60.015
		c-5.276,4.056-13.018,1.628-15.581-2.369c-2.563-3.992-4.455-15.805-6.691-35.747c-2.231-19.941-3.511-41.923-3.016-58.84
		c0.33-11.278,0.942-28.475,1.754-38.399c-3.764-2.506-8.1-6.201-9.634-7.125c-4.327,3.001-6.7,10.167-6.005,17.223
		c0.843,2.591,3.266,5.655,4.13,7.1c-0.031,2.591-6.396,5.431-11.528,7.408c-9.849,3.792-18.667,14.215-26.99,16.284
		c-4.007-11.003-9.755-43.547-15.211-62.92c-5.457-19.371-11.931-38.252-17.492-59.824c-4.236-16.421-8.371-43.558-10.694-55.597
		c-7.5,1.654-12.945,6.011-18.844,10.119c-8.921,6.217-20.852,15.074-24.887,18.489c-3.664,3.101-8.891,7.972-10.861,9.021
		c-1.97,1.05-4.79,2.947-6.788,0.982c-4.312-4.24-2.563-14.78-2.559-23.299c0.012-15.946,2.431-68.484,4.773-76.924
		c1.459-0.233,3.173,0.289,3.916,0.422c0.928-4.869,2.948-9.229,6.641-15.226c2.946-4.778,5.096-10.887,10.262-15.025
		c1.42-1.138,4.714-2.792,7.165-2.356c1.79,0.32,4.111,3.196,5.846,4.803c2.017,1.871,3.887,3.63,5.594,5.147
		c3.543,3.144,8.43,5.598,10.163,10.607c2.103,6.068,2.171,14.236,0.942,19.335c-0.479,1.994-2.432,3.616-5.496,4.589
		c-3.062,0.973-13.16,1.899-14.641-2.689c-0.919-2.838,0.463-5.249,2.696-6.515c-0.349-1.519,0.178-2.672,1.965-3.631
		c1.106-0.593,7.193-0.566,7.193-0.566s1.922-5.343-4.775-4.505c-3.406,0.427-6.978,5.537-9.13,7.355
		c-3.392,2.864-6.316,4.446-10.039,6.442c5.959,3.87,12.987,9.678,13.286,10.88c-3.247,12.365-16.706,45.792-19.41,53.7
		c10.789-6.792,38.51-25.187,45.097-27.772c3.368-1.322,6.551-1.195,8.533,0.445c6.194,5.126,8.561,9.887,14.577,14.13
		c-6.496-19.778-12.812-41.27-17.183-63.928c-8.85,3.778-11.281-8.693-5.665-11.417c-0.499-0.393-1.761-0.925-2.9-1.373
		c-1.396-9.474-2.679-14.938-6.277-21.326c-2.487-4.412-7.581-5.533-11.532-8.445c-2.131-1.57-3.698-4.041-3.411-7.952
		c0.349-4.743,6.308-11.482,10.047-13.988c6.368-4.272,12.797-6.081,19.17-9.216c2.712-1.331,6.933-4.79,9.693-5.782
		c4.452-1.599,9.645-1.875,12.641-0.816c2.931,1.036,5.307,2.621,8.2,3.234c4.087,0.869,7.027,1.022,9.897,0.408
		c-1.794,4.905-9.467,7.931-14.271,8.999c3.544,6.497,6.598,11.953,11.352,16.799c6.944-4.676,19.379-10.078,21.673-6.775
		c2.293,3.304-5.411,14.245-11.321,21.432c5.841,8.715,4.652,21.92,4.586,30.535c-0.135,17.022-1.229,36.047-1.414,52.646
		c3.881-2.108,10.113-7.611,16.028-13.294c-0.325-11.427-0.446-21.311-0.194-32.901c0.138-6.505,3.131-53.951,2.079-63.251
		c-0.641-1.094-11.803-6.996-15.641-8.898c-11.355-5.627-25.3-13.544-38.352-17.033c-0.292-1.819-0.176-4.42,0.707-7.601
		c-4.28-2.687-9.693-5.595-14.822-4.773c-5.131,0.822-9.277,0.436-11.34-1.004c-2.062-1.44-3.482-6.665-2.604-12.424
		c-2.554-2.874-16.174-4.853-18.323-8.696c-3.417-6.117,6.244-10.002,11.667-8.818c-0.722-5.234-2.331-16.202,0.952-18.154
		c3.282-1.951,5.625,0.551,6.781,0.147c1.156-0.404,1.336-4.313,5.316-5.233C296.331,44.352,297.506,46.365,299.611,47.052z"/>
	<path fill-rule="evenodd" clip-rule="evenodd" fill="#EDC9A8" d="M319.465,90.203c0,0-10.452-3.207-11.292-4.794
		c-0.84-1.588,6.579-19.135,6.493-22.421c-0.09-3.286-7.981-14.219-10.535-14.67c-2.559-0.45-3.85,1.061-4.09,0.944
		c-1.746-0.867-3.168-3.095-6.235-2.445c-3.071,0.652-3.636,5.379-5.368,5.739c-0.755,0.157-2.518-2.035-5.235-0.74
		c-2.715,1.295-2.015,10.223-1.108,14.956c0.738,3.874,2.224,10.221,4.96,10.228c4.469,0.01,6.513-5.941,5.383-9.625
		c-0.733-2.389-1.592-5.377-3.895-5.115c-2.309,0.262,0.29,6.446,0.041,7.635c-1.512,0.44-2.369-4.425-2.587-5.263
		c-0.511-1.975,0.062-4.319,1.968-5c2.765-0.987,6.596,4.798,6.755,8.417c0.214,4.917-1.498,7.988-3.035,10.244
		c-0.387,3.076-1.91,6.332-2.473,8.331c-0.793,2.816-0.207,6.878,1.645,9.308c1.849,2.431,9.171,1.201,12.89,1.092
		c4.647-0.135,8.354,1.961,12.505,4.167C317.329,97.86,319.465,90.203,319.465,90.203z"/>
	<path fill-rule="evenodd" clip-rule="evenodd" fill="#EDC9A8" d="M281.175,71.082c-3.073-2.609-11.864,0.752-10.383,4.532
		c1.483,3.78,8.893,2.592,17.193,7.864c0.862-0.998,1.623-3.717,1.652-4.777C285.832,80.306,283.048,77.439,281.175,71.082z"/>
	<path fill-rule="evenodd" clip-rule="evenodd" fill="#C8C0B3" d="M423.454,292.219c0-0.061-14.477-16.895-23.077-26.572
		c-8.598-9.678-19.604-22.695-23.452-29.396c1.586-10.154,5.767-36.079,7.673-52.457c1.547-13.261,2.591-25.539,4.07-36.365
		c0.375-2.743,2.105-6.451,1.851-8.604c-0.157-1.356-1.783-3.638-2.774-4.843c-3.588-4.371-14.559-15.939-25.314-24.495
		c-9.413-7.493-26.995-22.702-37.108-26.08c-4.155,6.812-6.213,17.064-8.031,25.76c6.612,1.967,39.099,18.045,53.123,26.252
		c5.587,1.113,9.432,3.224,9.161,4.271c-0.27,1.048-7.443-2.682-7.507-1.236c-0.059,1.444,8.468,4.273,6.809,5.08
		c-1.764,0.857-4.402-1.753-7.141-2.587c0.451,8.476-1.977,52.404-2.21,61.816c-0.183,7.618,0.081,24.332,0.505,32.443
		c-2.744,2.018-6.646,6.175-10.419,8.843c4.962,4.745,15.949,13.803,21.03,17.509c2.674-0.932,5.502-2.075,8.686-2.449
		c3.911,13.271,18.669,37.883,24.327,47.161C415.974,304.736,420.957,298.223,423.454,292.219z"/>
	<path fill-rule="evenodd" clip-rule="evenodd" fill="#B17D0B" d="M313.584,121.543c-5.508,1.294-8.381,4.586-13.096,6.629
		c-4.142,1.795-7.906,3.009-11.532,4.87c-3.325,1.706-6.567,4.061-9.272,6.47c-2.456,2.184-8.205,9.278-5.648,13.746
		c2.26,3.944,9.142,5.682,12.033,9.517c5.815,7.705,6.553,14.897,8.076,23.045c2.188,0.381,4.479,1.404,6.636,1.823
		c-0.814-7.221-5.15-15.597-7.327-22.694c-0.781-2.539-1.111-6.015-2.67-8.031c-2.091-2.701-8.124-4.087-10.996-4.675
		c0.933-1.707,4.858-1.183,6.871-0.472c2.743-6.002,7.78-10.793,14.724-15.133c9.067-5.667,26.881-3.58,34.948-10.975
		C327.245,126.551,323.092,119.307,313.584,121.543z"/>
	<path fill-rule="evenodd" clip-rule="evenodd" fill="#EDC9A8" d="M324.563,132.9c-5.829,1.302-15.137,1.741-20.212,4.02
		c-4.818,2.163-8.68,5.934-11.585,8.943c-1.173,1.215-4.481,6.052-4.09,7.16c2.21,1.115,3.432,2.072,4.473,3.899
		c1.04,1.827,1.379,5.057,2.184,7.624c1.194,3.809,3.408,9.171,4.939,13.474c1.524,4.304,2.947,9.075,3.527,13.068
		c-2.335-0.873-5.582-2.09-8.013-0.075c-2.082,1.729-1.4,6.243,1.86,6.803c1.839,0.314,4.398-0.725,5.345-1.821
		c0.264,13.65,16.106,68.179,21.671,74.384c2.82,3.147,13.201,6.209,16.701,5.329c2.879-0.724,4.028-5.795,4.521-8.279
		c-7.174,1.494-12.12-1.468-14.893-6.525c2.992,2.089,5.617,4.72,9.968,4.597c5.668-0.162,9.181-1.998,10.224-4.85
		c1.049-2.852-0.417-8.591-3.079-8.567c-2.661,0.022-3.942,3.988-5.667,5.606c-1.723,1.618-4.714,1.292-5.921,1.016
		c-8.362-1.914-12.073-16.527-15.99-27.963c-3.914-11.437-10.224-39.801-13.505-51.286c-0.893,1.065-1.832,2.234-2.545,3.366
		c-1.718-0.126-1.051-3.47,1.816-6.92c2.867-3.449,6.078-5.85,8.371-6.343c-1.72,2.182-3.439,4.136-4.574,6.02
		c3.474,7.05,25.393,19.255,28.767,18.202c4.585-1.434,6.648-9.58,7.327-14.77c1.251,0.624,0.938,7.905,0.923,8.797
		c-0.361,20.792-1.854,43.017-1.635,62.617c1.054-0.506,2.603-1.039,3.37-1.01c1.547-20.284,2.233-43.988,1.745-65.974
		c-0.149-6.756-1.293-12.763-3.923-17.679c-2.998,4.051-8.919,11.027-14.556,12.784c-4.718,1.471-10.666-1.691-7.735-6.011
		c0.636,3.639,4.467,4.889,7.956,3.559c3.135-1.195,10.272-8.999,15.327-15.748c3.989-5.325,11.494-15.751,9.292-16.426
		c-6.181-1.895-23.392,9.728-32.114,15.636c-3.258,2.205-6.878,4.506-10.231,5.782c-4.037,1.537-7.842,1.153-9.961-2.633
		c-4.861-8.675,6.062-17.618,13.607-11.094c-0.783-5.666,7.987-8.981,10.678-4.429c1.628,2.749,1.058,5.452,0.043,7.199
		c2.086-1.33,4.63-3.102,6.721-4.355C331.529,144.367,328.265,139.336,324.563,132.9z"/>
	<path fill-rule="evenodd" clip-rule="evenodd" fill="#FFFFFF" d="M325.878,155.454c2.554-1.408,2.644-3.893,2.478-5.538
		c-0.365-3.613-3.802-4.166-6.529-2.73c-3.152,1.659-2.418,5.875-1.783,7.009C320.837,155.605,323.326,156.86,325.878,155.454z"/>
	<path fill-rule="evenodd" clip-rule="evenodd" fill="#FFFFFF" d="M306.098,161.262c2.333,5.591,13.689,1.822,12.361-5.092
		c-0.736-3.848-4.386-6.272-8.67-4.433C305.889,153.41,304.593,157.658,306.098,161.262z"/>
	<path fill-rule="evenodd" clip-rule="evenodd" fill="#EDC9A8" d="M320.262,156.407c0,0,0.47,2.284-0.518,4.119
		c1.099-0.489,3.247-2.091,3.99-2.788C322.095,157.842,320.262,156.407,320.262,156.407z"/>
	<path fill-rule="evenodd" clip-rule="evenodd" fill="#EDC9A8" d="M274.231,214.922c4.194-0.015,10.967,0.067,11.782-4.216
		c0.736-3.868,0.707-11.223-0.646-16.514c-1.258-4.935-4.879-6.777-8.623-9.645c-2.153-1.652-4.405-3.71-5.895-5.098
		c-1.996-1.86-3.881-4.91-6.448-4.708c-7.457,0.589-10.846,9.894-13.943,14.773c-3.031,4.774-5.677,11.431-6.171,15.939
		c3.84,1.274,7.649,3.706,9.923,5.229c3.007-1.225,10.35-5.407,12.379-7.891c2.53-3.1,5.362-5.741,8.662-6.18
		c2.62-0.349,5.355,0.086,6.28,3.189c0.925,3.1-1.182,7.952-1.182,7.952s-7.79,0.33-9.107,1.995
		C269.928,211.415,269.921,214.936,274.231,214.922z"/>
	<path fill-rule="evenodd" clip-rule="evenodd" fill="#FFFFFF" d="M316.724,208.181c1.958,0.635,3.757,1.021,6.069,1.174
		c-0.833-3.491-1.72-12.005-0.524-15.335c0.435,4.544,1.009,12.853,2.606,15.942c1.523,0.56,5.088,1.074,7.193,0.525
		c-0.42-2.618-1.151-9.483-0.736-12.702c1.241,3.896,1.801,10.21,2.378,12.706c2.159,0.663,5.967-1.474,7.649-2.633
		c-0.332-1.625-0.591-5.812-0.097-7.668c0.479,1.968,0.486,5.346,1.334,6.865c1.039-0.551,2.205-2.435,2.205-2.435
		s0.439-8.794,0.408-14.966c-0.916,2.361-2.945,5.593-5.777,6.375c-6.804,1.877-25.794-12.059-29.95-16.864
		C311.81,187.029,313.667,198.421,316.724,208.181z"/>
	<path fill-rule="evenodd" clip-rule="evenodd" fill="#C8C0B3" d="M248.269,274.762c3.755-11.549,18.545-49.039,18.149-50.946
		c-7.699-7.668-25.042-16.48-27.016-15.914c-0.555,3.226-1.647,15.128-1.936,18.996c-0.857,11.484-2.117,42.655-2.131,50.691
		c-0.019,7.92-1.79,22.214,1.5,24.73c3.285,2.515,15.736-10.494,23.159-15.842c6.766-4.875,16.733-12.896,26.853-18.818
		c3.653-2.138,7.998-4.114,11.418-4.766c2.692,10.793,6.346,38.653,8.832,48.664c2.722,10.958,5.528,21.597,8.746,31.532
		c1.362,4.214,2.679,8.444,4.023,12.647c2.706,8.437,5.471,17.072,7.804,25.64c4.227,15.526,11.05,45.293,14.693,58.032
		c5.72-1.651,13.545-8.15,19.403-11.605c5.86-3.457,13.218-4.217,14.25-7.11c-12.793-17.146-22.559-44.747-24.626-51.652
		c-7.704-8.731-29.608-38.057-38.209-54.075c0.807-3.294,2.877-7.718,5.624-10.572c-1.554-7.74-2.551-27.915-1.339-38.389
		c-5.62-3.447-14.074-15.788-18.201-15.548c-4.13,0.243-12.291,5.326-17.314,8.648c-5.026,3.324-32.567,20.85-32.567,20.85
		s-2.959,11.365-5.1,12.21C242.689,291.086,246.921,278.909,248.269,274.762z"/>
	<path fill-rule="evenodd" clip-rule="evenodd" fill="#EDC9A8" d="M272.589,206.688c2.221-0.147,6.005-0.541,6.005-0.541
		s0.892-1.114,0.797-1.704C277.84,204.533,272.116,203.722,272.589,206.688z"/>
	<path fill-rule="evenodd" clip-rule="evenodd" fill="#71072E" d="M317.162,210.055c1.246,7.463,6.795,25.76,10.305,33.59
		c5.836,1.009,12.033-1.34,16.384-4.843c0.892-6.385,0.648-24.752,0.693-31.583C337.384,216.605,321.491,211.25,317.162,210.055z"/>
	<path fill-rule="evenodd" clip-rule="evenodd" fill="#464647" d="M512.849,325.121c-2.065-5.694-14.138-33.027-23.506-49.711
		c-4.322-7.696-8.739-15.394-13.193-22.81c-4.751-7.901-10.846-17.939-12.552-27.58c-1.215-6.886-4.343-8.66-12.045-6.849
		c-8.119,1.909-8.456,12.195-9.517,19.824c-2.527,18.2-0.154,46.734,0.474,60.979c0.626,14.244,1.999,35.161,1.479,47.756
		c-3.107,1.545-4.6,7.073-7.151,12.02c-3.322,6.438-7.659,13.259-12.581,18.48c-9.123,9.679-19.64,18.576-32.048,25.681
		c-0.56,11.938-0.643,26.928-1.039,40.324c-0.316,10.637-0.024,29.059,1.92,48c1.37,13.348,2.468,29.366,7.203,41.963
		c1.398,3.71,6.484,5.711,10.625,4.275c2.229-0.771,11.857-8.034,16.175-11.088c17.475-12.349,69.974-47.308,70.033-48.742
		c0.087-2.066-20.024-29.846-25.628-33.275c-20.383,17.693-48.495,49.471-54.17,61.08c1.061,3.607,1.524,9.513-0.669,7.818
		c-0.083-2.506-0.605-7.715-2.909-7.61c-2.304,0.105-1.173,7.162-1.462,10.357c-2.863,3.131-2.079-9.109-2.098-11.447
		c-0.201-26.897,5.468-71.548,10.296-92.286c19.763-5.862,42.307-47.239,32.449-66.38c4.692-19.37,3.838-43.363,2.595-67.186
		c-0.309-5.931,0.016-9.916,0.612-14.599c-2.891-3.32-6.536-14.004-3.759-14.807c0.437,2.942,1.797,9.355,4.123,10.803
		c-1.149-4.42-2.276-14.92,0.183-12.978c-0.247,4.319,0.553,12.016,3.083,16.138c-0.318-3.362-0.226-12.139,2.046-9.266
		c-0.617,1.994-1.085,8.586,0.04,13.32c7.922,17.287,19.848,54.716,24.075,84.768C490.201,348.888,508.58,332.684,512.849,325.121z"
		/>
	<path fill-rule="evenodd" clip-rule="evenodd" fill="#FFFFFF" d="M339.94,243.391c0.5,3.377,1.253,7.383,0.543,9.375
		c-0.199-1.63-0.8-7.167-1.469-9.011c-1.562,0.77-2.87,1.115-4.072,1.307c0.206,3.134,1.296,7.244,1.598,9.544
		c-1.662-2.311-1.91-6.411-2.808-9.416c-1.7,0.033-3.867,0.498-5.362,0.254c1.241,4.971,6.213,13.736,12.252,10.289
		c4.504-2.57,3.159-9.977,3.268-14.99C342.646,241.949,341.221,242.849,339.94,243.391z"/>
	<path fill-rule="evenodd" clip-rule="evenodd" fill="#DDD8CB" d="M358.246,245.558c-1.36,0.649-3.842,2.481-4.704,3.423
		c15.954,15.724,42.059,44.544,55.43,61.665c1.128-0.417,1.882-1.101,2.466-1.906c-7.094-16.441-17.914-28.745-23.58-47.12
		c-2.535,0.476-5.242,2.027-7.818,2.904C375.273,260.621,361.338,248.806,358.246,245.558z"/>
	<path fill-rule="evenodd" clip-rule="evenodd" fill="#FFFCE5" d="M348.766,266.213c5.079,6.762,10.004,16.383,9.213,19.213
		c-2.006-0.518-5.654-1.927-7.668-2.845c0.971,3.08,1.649,6.644,1.96,9.353c7.794-1.491,11.724-0.967,17.62,3.37
		c6.672,4.91,10.716,14.9,17.178,18.851c4.797,2.933,15.424,2.745,19.988-1.867c-8.653-11.307-24.353-28.971-30.149-35.629
		c-5.801-6.659-16.077-18.124-24.6-26.824c-0.52,0.379-1.59,1.106-1.866,1.343C356.608,256.961,353.062,264.711,348.766,266.213z"/>
	<path fill-rule="evenodd" clip-rule="evenodd" fill="#DDD8CB" d="M321.138,305.08c-2.748,3.369-4.944,5.979-5.476,9.681
		c7.975,14.722,24.878,37.241,34.347,48.312c-8.095-24.511-15.766-51.446-23.339-75.344c-2.283-7.201-5.805-17.938-6.985-19.874
		C318.318,274.681,318.698,293.713,321.138,305.08z"/>
	<path fill-rule="evenodd" clip-rule="evenodd" fill="#FFFCE5" d="M324.814,273.851c2.333,9.906,6.067,20.357,11.115,27.5
		c-0.463-8.422-0.019-16.269,2.535-22.344C333.183,278.07,327.936,276.432,324.814,273.851z"/>
	<path fill-rule="evenodd" clip-rule="evenodd" fill="#FFFCE5" d="M344.621,276.467c1.379,2.196,7.931,5.108,11.077,6.073
		c-0.71-3.768-5.274-10.904-7.97-13.725C347.307,270.987,346.236,274.53,344.621,276.467z"/>
	<path fill-rule="evenodd" clip-rule="evenodd" fill="#009BDC" d="M347.922,281.374c0,0-2.846-1.117-6.19-3.31
		c-0.797,2.009-2.649,6.824-2.412,7.626c0.517,1.758,3.757,3.697,5.82,4.972c1.521,0.935,3.453,1.541,4.904,1.782
		C350.148,286.576,347.922,281.374,347.922,281.374z"/>
	<path fill-rule="evenodd" clip-rule="evenodd" fill="#FFFCE5" d="M353.71,368.143c8.139,8.018,29.829,26.798,37.058,31.525
		c9.43-4.141,27.799-18.206,32.924-25.971c-0.361-2.524-57.946-51.12-74.196-78.899c-3.629-0.925-8.86-3.549-11.267-6.956
		c-0.734,2.216-0.767,10.943-0.358,17.487c-1.986-1.046-3.885-3.573-5.817-6.075C336.226,315.544,346.571,344.951,353.71,368.143z"
		/>
	<path fill-rule="evenodd" clip-rule="evenodd" fill="#009BDC" d="M412.624,311.709c-4.016,4-10.122,7.498-20.278,6.816
		c-9.733-0.652-13.856-11.35-18.5-16.758c-6.175-7.193-13.205-9.877-16.296-7.669c4.061,1.343,7.649,4.564,10.125,7.819
		c2.998,3.949,4.93,9.229,7.343,13.866c7.123,13.672,25.708,17.874,45.847,12.443c11.541-3.112,13.625-18.133,14.286-29.987
		c0.575-10.208-2.464-15.159-4.666-16.457C426.566,294.684,419.908,304.457,412.624,311.709z"/>
	<path fill-rule="evenodd" clip-rule="evenodd" fill="#FFFCE5" d="M383.138,331.75c16.379,16.584,35.776,32.817,41.912,40.176
		c1.215-0.245,12.614-17.337,13.324-22.788c-0.28-1.56-13.132-14.781-17.452-18.652c-12.237,2.875-22.302,2.833-30.341,0.781
		c-6.831-1.745-13.383-7.629-16.557-13.059c-4.813-8.223-6.904-17.847-15.41-21.247c-1.739-0.695-4.922-1.765-6.641-1.656
		C354.904,300.223,368.993,317.428,383.138,331.75z"/>
	<path fill-rule="evenodd" clip-rule="evenodd" fill="#C8C0B3" d="M437.123,300.999c-1.695,12.302-2.739,23.799-12.84,28.774
		c5.197,5.775,11.229,11.791,15.197,16.244c0.743-0.867,1.835-1.734,2.33-1.99c0.245-10.073-1.319-30.921-1.896-41.409
		C439.291,302.091,437.687,301.399,437.123,300.999z"/>
	<path fill-rule="evenodd" clip-rule="evenodd" fill="#C8C0B3" d="M459.147,308.798c0.254,7.465-2.378,28.228-4.438,36.267
		c2.855,2.828,11.316-20.278,11.757-33.812C464.399,310.15,461.281,308.626,459.147,308.798z"/>
	<path fill-rule="evenodd" clip-rule="evenodd" fill="#52463D" d="M586.272,304.141c0.733-1.185,4.687-7.708,1.941-7.109
		c-4.858,1.055-8.031,3.791-11.793,6.118c-3.7,2.289-7.783,5.462-10.53,8.076c0.367,4.618,2.222,8.673,4.395,11.413
		C575.806,317.358,582.249,310.651,586.272,304.141z"/>
	<path fill-rule="evenodd" clip-rule="evenodd" fill="#40332E" d="M590.976,300.224c0,0-4.637,7.613-7.502,10.851
		c-9.126,10.317-21.609,23.043-35.392,29.931c-5.395,2.698-11.767,4.649-19.106,6.003c0.24,0.988,0.971,2.088,1.655,2.697
		c16.291-2.681,31.151-14.278,39.218-20.682c8.067-6.404,20.387-19.682,23.128-27.75
		C592.359,300.742,590.976,300.224,590.976,300.224z"/>
	<path fill-rule="evenodd" clip-rule="evenodd" fill="#988B6E" d="M532.689,326.019c-1.882,2.902-1.51,7.905,1.96,9.353
		c-3.66,3.33-6.327-6.031-3.804-9.025c-1.303,0.081-4.194,0.383-5.214,0.403c-0.736,2.821,0.016,6.825,1.827,8.871
		c-3.742,3.772-4.035-5.709-3.425-8.757c-2.917,0.442-6.083,0.472-8.186,0.16c-3.793,5.467-13.998,15.04-18.626,18.811
		c4.934,0.783,14.757,2.039,21.118,1.066c-0.102-0.973,0.154-3.375,0.793-4.659c5.345,3.629,11.615,3.728,23.347-0.266
		c5.927-2.019,20.81-10.976,26.081-17.775c-1.26-2.184-3.579-7.635-4.59-11.35C558.876,313.648,544.805,322.827,532.689,326.019z"/>
	<path fill-rule="evenodd" clip-rule="evenodd" fill="#52463D" d="M494.325,348.755c-1.498,1.177-0.553,6.314,0.906,8.856
		c1.626,2.834,4.122,3.298,4.122,3.298s16.227-7.75,19.392-11.243C512.697,350.073,500.731,349.804,494.325,348.755z"/>
	<path fill-rule="evenodd" clip-rule="evenodd" fill="#959088" d="M372.626,410.852c0.123-5.893,1.36-12.177,6.403-16.251
		c-7.576-7.058-17.274-15.575-24.282-22.633C359.084,385.315,366.023,401.001,372.626,410.852z"/>
	<path fill-rule="evenodd" clip-rule="evenodd" fill="#40332E" d="M519.761,351.447c-7.422,4.839-19.72,11.944-19.72,11.944
		s-0.957,2.703,2.082,5.21c5.649-2.745,15.933-9.034,20.672-13.32C522.243,354.63,520.286,352.443,519.761,351.447z"/>
	<path fill-rule="evenodd" clip-rule="evenodd" fill="#40332E" d="M491.491,428.418c0,0,11.053,17.637,17.765,24.849
		c1.528-0.496,3.828-1.453,4.754-2.336c-2.079-4.502-15.605-24.14-19.766-25.997C491.618,426.531,491.491,428.418,491.491,428.418z"
		/>
	<path fill-rule="evenodd" clip-rule="evenodd" fill="#52463D" d="M498.187,443.188c-3.584-4.888-7.042-9.86-9.181-13.338
		c-6.532,2.857-12.258,10.993-13.087,13.885C483.379,442.59,490.817,442.501,498.187,443.188z"/>
	<path fill-rule="evenodd" clip-rule="evenodd" fill="#988B6E" d="M508.874,456.895c-2.084-2.403-5.022-6.132-8.079-10.196
		c-7.504-0.905-15.085-1.032-22.704-0.036c11.532,11.44,21.443,28.617,21.443,28.617s1.308,0.944,3.665,1.844
		c0.683-5.374,1.351-9.884,4.408-8.803c-1.434,3.062-2.917,7.715-2.715,10.402c1.255,1.164,3.233,2.838,4.828,4.786
		c0.261-7.7,0.906-11.682,3.646-10.129c-2.139,4.221-1.656,10.638-1.861,11.943c5.005,4.547,14.442,16.777,20.622,19.644
		c1.44-1.991,3.778-4.017,6.539-5.278c-4.146-12.267-12.211-20.687-19.099-29.871C517.603,467.192,513.988,462.79,508.874,456.895z"
		/>
	<path fill-rule="evenodd" clip-rule="evenodd" fill="#40332E" d="M539.979,497.526c6.646,14.231,11.131,24.521,14.293,36.179
		c0.65,0.361,1.783-0.28,2.347-0.838c-10.136-33.022-24.638-58.74-37.592-72.538c-0.866-0.072-2.335,0.664-2.808,1.052
		C524.524,472.54,533.33,483.295,539.979,497.526z"/>
	<path fill-rule="evenodd" clip-rule="evenodd" fill="#52463D" d="M532.905,509.827c1.052,3.579,3.731,8.29,7.287,13.805
		c3.553,5.512,9.695,14.27,11.511,13.157c1.847-1.141-3.377-15.033-5.72-21.203c-1.768-4.649-3.885-10.427-6.437-13.987
		C536.419,503.081,531.853,506.249,532.905,509.827z"/>
	<path fill-rule="evenodd" clip-rule="evenodd" fill="#000011" d="M326.234,142.785c-2.81-0.017-6.045-0.073-8.224-0.352
		c-0.686-2.024,0.759-4.145,0.759-4.145s6.135-0.49,7.884,0.496C326.846,140.17,326.687,141.573,326.234,142.785z"/>
	<path fill-rule="evenodd" clip-rule="evenodd" fill="#AB6C0E" d="M319.491,139.159c0,0-0.826,0.958-0.513,2.025
		c1.68,0.174,4.5,0.289,6.389,0.181c0.18-0.524,0.259-1.289,0.116-2.044C322.847,138.866,319.491,139.159,319.491,139.159z"/>
	<path fill-rule="evenodd" clip-rule="evenodd" fill="#000011" d="M304.427,142.194c1.649-0.311,4.367,0.84,4.626,1.979
		c-1.179,2.627-4.011,7.099-5.317,8.102c-1.047,0.346-4.011-0.573-4.231-1.438C300.176,148.767,302.783,144.362,304.427,142.194z"/>
	<path fill-rule="evenodd" clip-rule="evenodd" fill="#AB6C0E" d="M304.949,143.213c-1.149,1.689-3.251,4.847-4.274,7.253
		c0.326,0.303,1.771,0.697,2.497,0.612c0.949-0.862,3.989-5.729,4.431-6.951C307.143,143.619,305.794,143.207,304.949,143.213z"/>
	<path fill-rule="evenodd" clip-rule="evenodd" fill="#000011" d="M324.093,153.327c-1.03-0.096-1.69-1.564-0.938-2.525
		c0.619-0.785,2.359-0.956,2.763,0.555C326.293,152.77,325.125,153.424,324.093,153.327z"/>
	<path fill-rule="evenodd" clip-rule="evenodd" fill="#000011" d="M312.651,155.579c1.419-0.122,3.501,0.855,2.736,3.076
		c-0.769,2.222-3.712,2.307-4.54,0.676C310.016,157.7,311.224,155.703,312.651,155.579z"/>
	<path fill-rule="evenodd" clip-rule="evenodd" fill="#000011" d="M332.373,216.723c-0.622,2.876-1.956,12.264,2.565,11.22
		c3.527-0.812,0.51-8.519,1.02-11.266c8.693-0.764,9.57,13.729,5.38,18.549c-1.374,1.585-3.987,2.986-6.271,3.12
		c-5.442,0.319-11-6.183-11.297-11.936c-0.13-2.514,0.933-5.574,1.662-6.913C326.48,217.566,329.376,215.884,332.373,216.723z"/>
</g>
</svg>
