<svg width="400" height="400" xmlns="http://www.w3.org/2000/svg">
 <g>
  <title>background</title>
 
 </g>

 <style type="text/css">.st0{fill:#FFFF00;}
	.st1{fill:#FFFFFF;}
	.st2{fill:#E0E0E0;}
	.st3{fill:#EFEFEF;}
	.st4{fill:#595959;}
	.st5{fill:#911919;}
	.st6{fill:#F2E000;}
	.st7{fill:#CEBB09;}
	.st8{fill:#DBC607;}
	.st9{fill:#FF9FDD;}
	.st10{fill:none;stroke:#FFFFFF;stroke-miterlimit:10;}
	.st11{fill:#D11535;}
	.st12{fill:#931228;}
	.st13{fill:#3FCCFC;}
	.st14{fill:#29AACC;}
	.st15{fill:#EAD906;}
	.st16{fill:#442020;}
	.st17{fill:#F9F9F9;}
	.st18{fill:#BA2D2D;}
	.st19{fill:#15729B;}
	.st20{fill:#CC4F11;}
	.st21{fill:#512414;}
	.st22{fill:#E2A476;}
	.st23{fill:#EAEAEA;}
	.st24{fill:#161616;}
	.st25{fill:#191919;}
	.st26{fill:#757575;}
	.st27{fill:#261D17;}
	.st28{fill:#B70808;}
	.st29{fill:#A30A0A;}
	.st30{fill:#F4BD90;}
	.st31{fill:#4C1E1E;}
	.st32{fill:#232323;}
	.st33{fill:#E5A373;}
	.st34{fill:#DD9F72;}
	.st35{fill:#1E1D1D;}
	.st36{fill:#BC0F34;}
	.st37{fill:#93278F;}
	.st38{fill:#C1163B;}
	.st39{fill:#E8CE0C;}
    #roger{
    animation : hide 9s ease-in-out infinite
    }
    @keyframes hide{
    0%,39%{
    visibility : visible;
    transform : translateY(0px)
    }
    40%,45%%{
    transform : translateY(200px);
    visibility : hidden
    }
    46%,100%{
    visibility : hidden;
    transform : translateY(200px)
    }
    }
    #cover{
    animation : fade55  9s ease-in-out infinite
    }
    @keyframes fade55{
    0%,35%{
    visibility : hidden
    }
    36%,80%{
    visibility : visible
    }
    81%,100%{
    visibility : hidden
    }
    }
    #advertise_copy{
    animation : fadeSlider 9s ease-in-out infinite
    }
    @keyframes fadeSlider{
    0%,35%{
     visibility : hidden
    }
    40%,70%{
    visibility : visible
    }
    71%,100%{
    visibility : hidden
    }
    }
    #jumbing-roger{
    animation : slide 9s ease-in-out infinite
    }
    @keyframes slide{
     0%,54%{
    visibility : hidden
    }
    55%,60%{
    visibility : visible
    }
    61%,70%{
    visibility : visible;

    }
    71%,100%{
    visibility : hidden
    }
    }
    #eye-open{
    animation : blinkRoger 9s ease-in-out infinite
    }
    @keyframes blinkRoger{
    0%,54%{
    visibility : hidden
    }
    55%,60%{
    visibility : visible
    }
    61%,100%{
    visibility : hidden
    }
    }
   #split{
    animation : rogerAnimate 9s ease-in-out infinite
    }
    @keyframes rogerAnimate{
    0%,71%{
    visibility : hidden;
    transform : translateX(0)
    }
    72%,80%{
    visibility : visible;
    transform : translateX(0)
    }
    90%,100%{
    visibility : visible;
    transform : translateX(-720px)
    }
    }
    #hidden-arm{
    display : none
    }
    #Left-arm1{
    animation : robert-arm1 9s ease-in-out infinite
    }
    @keyframes robert-arm1{
    0% ,30%{
    visibility : visible
    }
    31%,55%{
    visibility : hidden
    }
    56%,100%{
    visibility : visible
    }
    }
    #Left-arm2{
    animation : robert-arm2 9s ease-in-out infinite
    }
    @keyframes robert-arm2{
    0% ,30%{
    visibility : hidden
    }
    31%,55%{
    visibility : visible
    }
    56%,100%{
    visibility : hidden
    }
    }
    #majic{
    animation : bright  9s ease-in-out infinite
    }
    @keyframes bright{
    0%,35%{
    visibility : hidden
    }
    40%,45%{
    visibility : visible
    }
    50%,100%{
    visibility : hidden
    }
    }
    #eyes-albert-opened{
    animation : albertBlink 9s ease-in-out infinite
    }
    @keyframes albertBlink{
    0%,20%{
    visibility : visible
    }
    25%,30%{
    visibility : hidden
    }
    35%,60%{
    visibility : visible
    }
    65%,70%{
    visibility : hidden
    }
    75%,100%{
    visibility : visible
    }
    }
    #eye-brows{
    animation : wonder 9s ease-in-out infinite
    }
    @keyframes wonder{
    0%,70%{
    transform : translateY(0)
    }
    75%,100%{
    transform : translateY(-5px)
    }
    }</style>
 <g>
  <title>Layer 1</title>
  <g id="majic">
   <polygon id="svg_2" points="354.3,19.1 346.2,17 339.9,23 339.3,14.1 332,9.6 339.8,6.2 341.5,-2.6 347,4.2 355.3,3.3 350.9,10.9     " class="st0"/>
   <polygon id="svg_3" points="390.2,41.7 381.9,40.9 376.6,47.8 374.7,39.1 367,35.8 374.1,31.2 374.7,22.4 381,28.2 389.1,26    385.8,34.2  " class="st0"/>
   <polygon id="svg_4" points="330.9,48.8 323.5,47.4 318.2,53.2 317.1,45.2 310.4,41.7 317.1,38.1 318.2,30.2 323.5,35.9    330.9,34.6 327.4,41.7  " class="st0"/>
  </g>
  <g id="albert">
   <g id="svg_123">
    <g id="svg_124">
     <path id="svg_125" d="m186.2,119.4236c0,0 0,18.7 1.4,24.4c1.4,5.7 21.1,8 21.5,-1.7s0.5,-19.9 0.5,-19.9l-23.4,-2.8z" class="st22"/>
    </g>
    <g id="svg_126">
     <g id="svg_127">
      <g id="svg_128">
       <path id="svg_129" d="m187.4,143.0236c0,0 -13.7,0.1 -18.3,7.5c-4.9,7.9 2,52.7 2,55.1c1.1,40 -2,48.1 -2,48.1l62.2,0c0,0 -3,-24 -2.5,-50c0.4,-20.6 5,-42.7 0,-54.2c-1.6,-3.7 -8.7,-2.1 -11,-3.5c-18.4,-11.8 -30.4,-3 -30.4,-3z"/>
       <g id="svg_130">
        <path id="svg_131" d="m220.3,175.2236l-10.3,0c-1.8,0 -3.3,-1.5 -3.3,-3.3l0,0c0,-1.8 1.5,-3.3 3.3,-3.3l10.3,0c1.8,0 3.3,1.5 3.3,3.3l0,0c0,1.8 -1.5,3.3 -3.3,3.3z" class="st23"/>
        <rect id="svg_132" height="6.7" width="1.8" class="st24" y="168.6236" x="208.1"/>
        <rect id="svg_133" height="6.7" width="1.8" class="st24" y="168.5236" x="211.7"/>
        <rect id="svg_134" height="6.7" width="1.8" class="st24" y="168.6236" x="214.8"/>
        <rect id="svg_135" height="6.7" width="1.8" class="st24" y="168.6236" x="218"/>
        <rect id="svg_136" height="6.7" width="1.8" class="st24" y="168.6236" x="220.9"/>
        <rect id="svg_137" height="17.3" width="1.6" class="st24" transform="matrix(-1.83697e-16 1 -1 -1.83697e-16 415.397 -15.1549)" y="191.5" x="188.0236"/>
        <rect id="svg_138" height="16.9" width="1.6" class="st24" transform="matrix(-1.83697e-16 1 -1 -1.83697e-16 411.796 -18.5969)" y="188.2" x="187.9236"/>
       </g>
      </g>
      <path id="svg_139" d="m216.4,275.8236l-32.1,0c-8.2,0 -15,-6.7 -15,-15l0,0c0,-8.2 6.7,-15 15,-15l32.1,0c8.2,0 15,6.7 15,15l0,0c0,8.2 -6.8,15 -15,15z" class="st25"/>
     </g>
     <g id="svg_140">
      <polygon id="svg_141" points="185.60000610351562,145.12360191345215 200.6999969482422,194.7235927581787 213.6999969482422,145.12360191345215 " class="st26"/>
      <polygon id="svg_142" points="190.10000610351562,142.4235897064209 200.89999389648438,185.12360191345215 209.3000030517578,142.4235897064209 " class="st1"/>
     </g>
     <polygon id="svg_143" points="186.60000610351562,131.02359580993652 168.89999389648438,149.62360191345215 193.89999389648438,149.62360191345215 " class="st27"/>
     <polygon id="svg_144" points="209.5,133.12360191345215 230.10000610351562,150.02359580993652 205.10000610351562,150.02359580993652 " class="st27"/>
    </g>
   </g>
   <g id="svg_145">
    <path id="svg_146" d="m190.3,150.1236l0,0c-3.7,0 -6.7,-3 -6.7,-6.7l0,0c0,-3.7 3,-6.7 6.7,-6.7l0,0c3.7,0 6.7,3 6.7,6.7l0,0c0,3.7 -3,6.7 -6.7,6.7z" class="st28"/>
    <path id="svg_147" d="m208.9,150.1236l0,0c-3.7,0 -6.7,-3 -6.7,-6.7l0,0c0,-3.7 3,-6.7 6.7,-6.7l0,0c3.7,0 6.7,3 6.7,6.7l0,0c0,3.7 -3,6.7 -6.7,6.7z" class="st28"/>
    <path id="svg_148" d="m199.5,148.8236l0,0c-2.6,0 -4.7,-2.1 -4.7,-4.7l0,-1.2c0,-2.6 2.1,-4.7 4.7,-4.7l0,0c2.6,0 4.7,2.1 4.7,4.7l0,1.2c0.1,2.6 -2.1,4.7 -4.7,4.7z" class="st29"/>
   </g>
   <g id="svg_149">
    <path id="svg_150" d="m204.2,10.7236c-44.1,-2.7 -34.9,27.6 -34.9,61.6c0,0.5 0,0.9 0,1.4c-1,-1 -2.2,-1.5 -3.4,-1.5c-4.3,0 -7.8,6.7 -7.8,15.1s3.5,15.1 7.8,15.1c2.5,0 3.3,1.3 4.8,-2.3c5.3,22 19.1,33.8 33.5,33.8c19.3,0 34.9,-27.6 34.9,-61.6s13.5,-58.6 -34.9,-61.6z" class="st30"/>
    <path id="svg_151" d="m172.1,90.3236c0,0 -1.4,-50.7 11.7,-53.7c13.1,-3 19.7,6.5 25.7,6.5c6.1,0 22.5,3.5 25.3,-1c2.8,-4.5 3.7,41.1 3.7,41.1s9.7,-52.3 0.2,-62.2s-60.7,-23.8 -71.1,7.1l1.7,45.5l2.8,16.7z"/>
    <path id="svg_152" d="m208.8,109.4236c-1.6,0 -3.1,-0.4 -4.5,-1.1c-5.1,-2.6 -6.6,-9.1 -6.6,-9.4l1.3,-0.3c0,0.1 1.4,6.1 5.9,8.5c2.7,1.4 6,1.2 9.8,-0.6c2,-0.9 3.2,-2.1 3.7,-3.5c0.9,-2.7 -0.7,-6.2 -2.5,-10.3c-1.5,-3.4 -3.2,-7.2 -3.8,-11.2l1.3,-0.2c0.5,3.8 2.2,7.5 3.6,10.8c2,4.4 3.6,8.2 2.5,11.4c-0.6,1.8 -2,3.2 -4.4,4.3c-2.1,1.1 -4.3,1.6 -6.3,1.6z"/>
    <g id="svg_153">
     <path id="svg_154" d="m161.1,82.8236c0.9,-0.2 1.8,-0.1 2.7,0.1c0.9,0.2 1.8,0.7 2.5,1.3c0.7,0.7 1.3,1.6 1.5,2.6c0.2,1 0.1,2 -0.2,2.9c-0.1,-1 -0.3,-1.9 -0.6,-2.7c-0.3,-0.8 -0.8,-1.5 -1.4,-2.1c-0.6,-0.6 -1.3,-1 -2.1,-1.3c-0.7,-0.3 -1.6,-0.5 -2.4,-0.8z"/>
     <path id="svg_155" d="m163.2,92.3236c0.3,-0.7 0.7,-1.4 1,-2c0.3,-0.7 0.6,-1.3 0.9,-2c0.3,-0.7 0.5,-1.3 0.5,-2c0.1,-0.7 0,-1.4 -0.3,-2.1c0.3,0.2 0.6,0.5 0.8,0.9c0.2,0.4 0.3,0.8 0.3,1.2c0.1,0.9 -0.1,1.7 -0.4,2.4c-0.3,0.8 -0.7,1.4 -1.2,2c-0.4,0.6 -0.9,1.2 -1.6,1.6z"/>
    </g>
    <g id="svg_156">
     <path id="svg_157" d="m186.2,111.3236c2.4,0 9.6,3.1 18.8,3.3c5.8,0.1 12.5,-2 19.3,-3.3c2.7,0.3 -5.4,13.4 -20.1,13.4c-14.6,0 -21.9,-13.4 -18,-13.4z" class="st31"/>
    </g>
   </g>
   <path id="svg_158" d="m223.1,115.1236c0,0 -16.2,1.5 -18.2,1.5s-18.5,-1.7 -18.5,-1.7s-1.9,-2.3 -0.9,-3.3c0.6,-0.6 3.1,0.4 6.9,1.3c3.5,0.8 8,1.8 12.5,1.9c3.9,0 7.7,-0.8 11,-1.5c4.5,-1 7.8,-2 8.3,-1.8c1.9,0.2 -1.1,3.6 -1.1,3.6z" class="st1"/>
   <path id="svg_159" d="m201.5,124.5236c1.1,0 -1.2,-4.1 -4,-5.1c-2.8,-1 -6.3,0.5 -6,1.3c0.3,0.9 6.1,3.8 10,3.8z" class="st28"/>
   <g id="svg_160">
    <rect id="svg_161" height="106.7" width="22" class="st25" y="263.5236" x="209.7"/>
    <path id="svg_162" d="m209.5,370.2236l0,17.1l36.7,0c0,0 2.5,-16.1 -18.4,-17.1c-20.7,-1 -18.3,0 -18.3,0z" class="st32"/>
   </g>
   <g id="svg_163">
    <rect id="svg_164" height="106.7" width="22" class="st25" y="263.5236" x="170.4"/>
    <path id="svg_165" d="m170,370.2236l0,17.1l36.7,0c0,0 2.5,-16.1 -18.4,-17.1c-20.8,-1 -18.3,0 -18.3,0z" class="st32"/>
   </g>
   <g id="hidden-arm">
    <path id="svg_166" d="m151.2,176.4236c-8.2,0 -17.1,-1.8 -25.6,-7.7c-12.7,-8.9 -21.4,-25.3 -25.6,-48.7l23.2,-4.8c3,16.5 8.2,27.4 15.4,32.4c8.5,5.9 20,3.1 28.4,1.1c0.9,-0.2 1.7,-0.4 2.5,-0.6l5,24.6c-0.7,0.2 -1.5,0.3 -2.3,0.5c-5.5,1.4 -12.9,3.2 -21,3.2z"/>
    <g id="svg_167">
     <g id="svg_168">
      <path id="svg_169" d="m97.1,97.9236c0,0 -15.6,-22.4 -8.3,-26.1c7.2,-3.7 14.1,19.8 14.1,19.8s-5.6,-25.7 1.4,-26c7,-0.3 7.8,24.1 7.8,24.1s0.3,-21.6 9.1,-21.6s-0.2,29.4 -0.2,29.4s13.3,-11.1 15.1,-2.6c1.8,8.4 -14.3,11 -14.3,11s0.5,8 -1.6,9.9s-15.3,3.1 -15.3,3.1s-3.5,-2.3 -6,-7.5c-0.4,-0.8 -0.3,-1.2 -1.1,-2.6c-3.1,-5.3 -12.1,-2 -12.2,-11.3s11.8,2.2 11.5,0.4z" class="st30"/>
      <path id="svg_170" d="m107.8,110.3236c0.5,-1.4 1.2,-2.7 2,-3.9c0.8,-1.2 1.7,-2.4 2.6,-3.4c1,-1.1 2,-2.1 3.2,-2.9c0.6,-0.4 1.2,-0.8 1.9,-1c0.7,-0.3 1.4,-0.4 2.1,-0.3c-0.7,0.3 -1.2,0.6 -1.7,1.1c-0.5,0.4 -1,0.9 -1.5,1.4c-1,1 -1.9,2 -2.8,3c-0.9,1 -1.9,2.1 -2.8,3.1c-0.9,0.9 -1.9,1.9 -3,2.9z" class="st33"/>
     </g>
     <path id="svg_171" d="m98.6,100.2236c1.5,-1.2 3.1,-2.1 4.7,-2.9c1.7,-0.8 3.4,-1.4 5.2,-1.8c1.8,-0.4 3.6,-0.7 5.5,-0.5c0.9,0.1 1.9,0.2 2.8,0.5c0.9,0.3 1.7,0.7 2.4,1.4c-1.7,-0.6 -3.5,-0.6 -5.2,-0.5c-1.7,0.1 -3.4,0.5 -5.1,0.9c-1.7,0.4 -3.4,0.9 -5.1,1.4c-1.8,0.5 -3.5,1 -5.2,1.5z" class="st33"/>
    </g>
   </g>
   <g id="svg_172">
    <path id="svg_173" d="m164.6,180.0236c-7,4.5 -15.5,7.9 -25.6,7.5c-15.2,-0.6 -30.6,-9.8 -45.6,-27.5l17.5,-16.9c10.6,12.5 20.3,18.9 28.9,19.2c10.1,0.4 18.7,-8.4 24.9,-14.7c0.6,-0.7 1.3,-1.3 1.8,-1.9l16.2,18.3c-0.5,0.5 -1.1,1.1 -1.7,1.7c-4,4.2 -9.5,9.8 -16.4,14.3z"/>
    <g id="svg_174">
     <g id="svg_175">
      <path id="svg_176" d="m80.2,142.7236c0,0 -24.2,-10.5 -19.8,-17.7c4.4,-7.2 21.7,9.1 21.7,9.1s-17.3,-18.9 -11.4,-23c5.8,-4 18.3,16.4 18.3,16.4s-10.2,-18.7 -2.7,-23.6c7.5,-4.9 14.2,25.3 14.2,25.3s6,-16.8 11.7,-10.6c5.6,6.1 -6.9,17.4 -6.9,17.4s4.3,6.5 3.5,9.3c-0.9,2.8 -11.6,11.1 -11.6,11.1s-4.1,0 -8.8,-3.1c-0.7,-0.5 -0.8,-0.9 -2.2,-1.6c-5.2,-2.8 -11.3,5 -16,-2.9c-4.5,-8 11,-4.7 10,-6.1z" class="st30"/>
      <path id="svg_177" d="m95.3,147.4236c-0.2,-1.5 -0.2,-3 -0.2,-4.4c0.1,-1.5 0.3,-2.9 0.6,-4.4c0.3,-1.4 0.7,-2.9 1.3,-4.2c0.3,-0.7 0.7,-1.3 1.1,-1.9c0.4,-0.6 1,-1.2 1.7,-1.4c-0.4,0.6 -0.7,1.2 -1,1.9c-0.2,0.7 -0.4,1.3 -0.6,2c-0.3,1.4 -0.6,2.7 -0.9,4.1c-0.3,1.4 -0.6,2.8 -0.9,4.2c-0.3,1.3 -0.6,2.7 -1.1,4.1z" class="st33"/>
     </g>
     <path id="svg_178" d="m82.5,143.9236c0.7,-1.8 1.6,-3.5 2.6,-5.1c1,-1.6 2.2,-3.1 3.5,-4.4c1.3,-1.4 2.8,-2.6 4.4,-3.5c0.8,-0.5 1.7,-0.8 2.6,-1.1c0.9,-0.2 1.9,-0.3 2.8,-0.2c-1.8,0.5 -3.3,1.4 -4.7,2.4c-1.4,1.1 -2.7,2.3 -4,3.6c-1.3,1.3 -2.5,2.6 -3.7,4c-1,1.5 -2.2,2.9 -3.5,4.3z" class="st33"/>
    </g>
   </g>
   <g id="Left-arm1">
    <path id="svg_179" d="m244.5,174.9236c-8.2,0 -15.6,-1.8 -21.2,-3.2c-0.8,-0.2 -1.6,-0.4 -2.3,-0.6l5.1,-24.6c0.8,0.2 1.6,0.4 2.5,0.6c8.4,2.1 19.9,4.9 28.4,-1c7.2,-5 12.4,-15.9 15.5,-32.4l23.2,4.9c-4.4,23.4 -13,39.8 -25.8,48.6c-8.5,5.9 -17.3,7.7 -25.4,7.7z"/>
    <g id="svg_180">
     <g id="svg_181">
      <path id="svg_182" d="m277.5,103.4236c-6.9,25.7 10.7,19.4 14.8,17.2c2.4,-1.2 9.6,-5.4 9.6,-18.2c0,-12.8 -6.2,-15.8 -10.8,-15.8c-8.5,0.1 -10.3,4.5 -13.6,16.8z" class="st30"/>
      <path id="svg_183" d="m283.7,123.1236c-1.9,0 -3.8,-0.5 -5.3,-1.8c-3.2,-2.8 -3.5,-8.9 -1.1,-18l0.2,0l-0.2,0c3.3,-12.5 5.3,-16.9 13.8,-16.9c3.3,0 10.9,1.6 10.9,15.9c0,8.7 -3.4,15 -9.7,18.4c-0.2,0.2 -4.4,2.4 -8.6,2.4zm7.5,-36.3c-8.3,0 -10.2,4.3 -13.5,16.6c-2.4,9 -2.1,14.9 1,17.6c3.6,3.2 10.5,1 13.6,-0.6c6.2,-3.3 9.5,-9.5 9.5,-18c0,-14 -7.4,-15.6 -10.6,-15.6z" class="st34"/>
     </g>
     <g id="svg_184">
      <polygon id="svg_185" points="290.20001220703125,104.72359275817871 297.20001220703125,102.72359275817871 278.20001220703125,26.023595809936523 271.20001220703125,28.023595809936523 "/>
      <polygon id="svg_186" points="271.1000061035156,28.223596572875977 278.20001220703125,26.32359504699707 274.29998779296875,10.623594284057617 267.29998779296875,12.623594284057617 " class="st1"/>
      <polygon id="svg_187" points="294.1000061035156,120.62360191345215 301.1000061035156,118.72359275817871 297.29998779296875,103.02359580993652 290.20001220703125,105.02359580993652 " class="st1"/>
     </g>
     <g id="svg_188">
      <ellipse id="svg_189" ry="12.1" rx="4.7" cy="99.65901" cx="290.79828" class="st30" transform="matrix(0.9722 -0.2341 0.2341 0.9722 -21.4415 70.1104)"/>
      <path id="svg_190" d="m286,111.0236c-0.7,0 -1.4,-0.2 -1.9,-0.5c-2,-1.3 -2.9,-4.7 -3.8,-8.7c-0.1,-0.5 -0.2,-1 -0.4,-1.6c-0.3,-1.3 -0.7,-2.6 -1.1,-3.8c-0.9,-2.8 -1.7,-5.2 -0.8,-7c0.6,-1.1 1.8,-1.9 3.7,-2.5c1.8,-0.5 3.2,-0.4 4.2,0.2c1.7,1.1 2.2,3.7 2.8,6.8c0.2,1.1 0.4,2.3 0.7,3.5c0.2,0.8 0.4,1.6 0.6,2.3c1,3.6 1.8,6.7 0.7,8.7c-0.6,1 -1.6,1.7 -3.1,2.2l0,0c-0.6,0.3 -1.1,0.4 -1.6,0.4zm-2.2,-24c-0.6,0 -1.3,0.1 -2,0.3c-1.8,0.5 -3,1.3 -3.5,2.3c-0.8,1.6 -0.1,3.9 0.8,6.7c0.4,1.2 0.8,2.4 1.1,3.8c0.1,0.5 0.3,1.1 0.4,1.6c0.9,3.9 1.8,7.3 3.7,8.5c0.9,0.5 1.9,0.6 3.2,0.3l0,0c1.4,-0.4 2.4,-1.1 2.9,-2c1,-1.9 0.2,-4.9 -0.7,-8.5c-0.2,-0.8 -0.4,-1.5 -0.6,-2.3c-0.3,-1.2 -0.5,-2.4 -0.7,-3.6c-0.6,-3.1 -1.1,-5.6 -2.6,-6.6c-0.7,-0.3 -1.3,-0.5 -2,-0.5z" class="st34"/>
     </g>
     <g id="svg_191">
      <ellipse id="svg_192" ry="4.4" rx="8.9" cy="87.88327" cx="303.91928" class="st30" transform="matrix(0.9599 -0.2802 0.2802 0.9599 -19.8657 87.608)"/>
      <path id="svg_193" d="m291.7,92.5236c-0.2,0 -0.3,0 -0.5,0c-1.8,-0.1 -2.9,-1.2 -3.5,-3.2l0,0c-0.3,-1.4 -0.3,-2.5 0.2,-3.4c1,-1.8 3.5,-2.5 6.3,-3.2c0.3,-0.1 0.7,-0.2 1,-0.3c1,-0.3 2,-0.7 2.9,-1.1c1.9,-0.8 3.5,-1.4 4.8,-0.7c1,0.5 1.6,1.7 2.2,3.8c0.4,1.7 0.4,3 -0.2,3.9c-0.9,1.5 -2.8,1.9 -5.1,2.5c-0.7,0.2 -1.5,0.3 -2.3,0.6l-0.4,0.1c-2,0.5 -3.9,1 -5.4,1zm-3.6,-3.4c0.5,1.9 1.5,2.8 3.1,3c1.6,0.1 3.5,-0.4 5.8,-1.1l0.4,-0.1c0.8,-0.2 1.6,-0.4 2.3,-0.6c2.2,-0.5 4.1,-0.9 4.9,-2.3c0.5,-0.8 0.5,-2 0.1,-3.6c-0.5,-1.9 -1.1,-3.1 -2,-3.6c-1.1,-0.6 -2.6,0 -4.5,0.7c-0.9,0.4 -1.9,0.8 -2.9,1.1c-0.3,0.1 -0.7,0.2 -1,0.3c-2.8,0.8 -5.2,1.4 -6.1,3.1c-0.4,0.8 -0.4,1.8 -0.1,3.1l0,0z" class="st34"/>
     </g>
     <g id="svg_194">
      <ellipse id="svg_195" ry="4.4" rx="8.9" cy="95.38327" cx="305.71928" class="st30" transform="matrix(0.9599 -0.2802 0.2802 0.9599 -21.9005 88.4303)"/>
      <path id="svg_196" d="m293.6,100.0236c-0.2,0 -0.3,0 -0.5,0c-1.8,-0.1 -2.9,-1.2 -3.5,-3.2c-0.3,-1.4 -0.3,-2.5 0.2,-3.4c1,-1.8 3.5,-2.5 6.3,-3.2c0.3,-0.1 0.7,-0.2 1,-0.3c1,-0.3 2,-0.7 2.9,-1.1c1.9,-0.8 3.5,-1.4 4.8,-0.7c1,0.5 1.6,1.7 2.2,3.8c0.4,1.7 0.4,3 -0.2,3.9c-0.9,1.5 -2.8,1.9 -5.1,2.5c-0.7,0.2 -1.5,0.3 -2.3,0.6l-0.4,0.1c-2.1,0.5 -3.9,1 -5.4,1zm-3.6,-3.3c0.5,1.9 1.5,2.8 3.1,3c1.6,0.1 3.5,-0.4 5.8,-1.1l0.4,-0.1c0.8,-0.2 1.6,-0.4 2.3,-0.6c2.2,-0.5 4.1,-0.9 4.9,-2.3c0.5,-0.8 0.5,-2 0.1,-3.6c-0.5,-1.9 -1.1,-3.1 -2,-3.6c-1.1,-0.6 -2.6,0 -4.5,0.7c-0.9,0.4 -1.9,0.8 -2.9,1.1c-0.3,0.1 -0.7,0.2 -1,0.3c-2.8,0.8 -5.2,1.4 -6.1,3.1c-0.4,0.7 -0.5,1.8 -0.1,3.1z" class="st34"/>
     </g>
     <g id="svg_197">
      <ellipse id="svg_198" ry="4.4" rx="8.9" cy="103.28327" cx="307.71928" class="st30" transform="matrix(0.9599 -0.2802 0.2802 0.9599 -24.0436 89.2963)"/>
      <path id="svg_199" d="m295.5,107.9236c-0.2,0 -0.3,0 -0.5,0c-1.8,-0.1 -2.9,-1.2 -3.5,-3.2c-0.3,-1.4 -0.3,-2.5 0.2,-3.4c1,-1.8 3.5,-2.5 6.3,-3.2c0.3,-0.1 0.7,-0.2 1,-0.3c1,-0.3 2,-0.7 2.9,-1.1c1.9,-0.8 3.5,-1.4 4.8,-0.7c1,0.5 1.6,1.7 2.2,3.8c0.4,1.7 0.4,3 -0.2,3.9c-0.9,1.5 -2.8,1.9 -5.1,2.5c-0.7,0.2 -1.5,0.3 -2.3,0.6l-0.4,0.1c-2,0.5 -3.8,1 -5.4,1zm10.1,-11.8c-0.9,0 -2.1,0.5 -3.4,1c-0.9,0.4 -1.9,0.8 -2.9,1.1c-0.3,0.1 -0.7,0.2 -1,0.3c-2.8,0.8 -5.2,1.4 -6.1,3.1c-0.4,0.8 -0.5,1.8 -0.2,3.1l0,0c0.5,1.9 1.5,2.8 3.1,3c1.6,0.1 3.5,-0.4 5.8,-1.1l0.4,-0.1c0.8,-0.2 1.6,-0.4 2.3,-0.6c2.2,-0.5 4.1,-0.9 4.9,-2.3c0.5,-0.8 0.5,-2 0.1,-3.6c-0.5,-1.9 -1.1,-3.1 -2,-3.6c-0.2,-0.3 -0.6,-0.3 -1,-0.3z" class="st34"/>
     </g>
     <g id="svg_200">
      <ellipse id="svg_201" ry="4.4" rx="8.9" cy="110.58327" cx="309.51928" class="st30" transform="matrix(0.9599 -0.2802 0.2802 0.9599 -26.0073 90.0898)"/>
      <path id="svg_202" d="m297.3,115.2236c-0.2,0 -0.3,0 -0.5,0c-1.8,-0.1 -2.9,-1.2 -3.5,-3.2c-0.3,-1.4 -0.3,-2.5 0.2,-3.4c1,-1.8 3.5,-2.5 6.4,-3.2c0.3,-0.1 0.7,-0.2 1,-0.3c1,-0.3 2,-0.7 2.9,-1.1c1.9,-0.8 3.5,-1.4 4.8,-0.7c1,0.5 1.6,1.7 2.2,3.8c0.4,1.7 0.4,3 -0.2,3.9c-0.9,1.5 -2.8,1.9 -5.1,2.5c-0.7,0.2 -1.5,0.3 -2.3,0.6l-0.4,0.1c-2.1,0.5 -3.9,1 -5.5,1zm10.1,-11.9c-0.9,0 -2.1,0.5 -3.4,1c-0.9,0.4 -1.9,0.8 -2.9,1.1c-0.3,0.1 -0.7,0.2 -1,0.3c-2.8,0.8 -5.2,1.4 -6.1,3.1c-0.4,0.8 -0.5,1.8 -0.2,3.1l0,0c0.5,1.9 1.5,2.8 3.1,3c1.6,0.1 3.5,-0.4 5.8,-1.1l0.4,-0.1c0.8,-0.2 1.6,-0.4 2.3,-0.6c2.2,-0.5 4.1,-0.9 4.9,-2.3c0.5,-0.8 0.5,-2 0.1,-3.6c-0.5,-1.9 -1.1,-3.1 -2,-3.6c-0.2,-0.2 -0.6,-0.3 -1,-0.3z" class="st34"/>
     </g>
    </g>
   </g>
   <g id="Left-arm2">
    <path id="svg_203" d="m231.3,178.5236c-6.7,-5 -11.8,-11.1 -15.6,-15.6c-0.5,-0.6 -1.1,-1.3 -1.6,-1.9l17.5,-17c0.5,0.6 1.1,1.3 1.7,2c5.8,6.9 13.7,16.2 23.8,16.7c8.6,0.4 18.7,-5.3 30.2,-16.9l16.3,18.3c-16.2,16.5 -32.2,24.5 -47.4,23.8c-10.1,-0.4 -18.3,-4.4 -24.9,-9.4z"/>
    <g id="svg_204">
     <g id="svg_205">
      <path id="svg_206" d="m297,140.4236c-19.5,16.8 -1.8,22.4 2.8,23.2c2.6,0.4 10.8,1.5 17.7,-8.9c6.9,-10.4 3.5,-16.7 -0.3,-19.5c-7,-5.4 -10.9,-2.8 -20.2,5.2z" class="st30"/>
      <path id="svg_207" d="m291.4,160.3236c-1.6,-1.2 -2.8,-2.7 -3.3,-4.7c-1.1,-4.2 1.9,-9.4 8.8,-15.4l0.1,0.1l-0.1,-0.1c9.5,-8.2 13.4,-10.5 20.4,-5.3c2.7,2 8.1,8 0.3,19.8c-4.7,7.1 -10.9,10.2 -17.9,9c-0.3,0 -4.9,-0.9 -8.3,-3.4zm25.7,-25.1c-6.8,-5.1 -10.7,-2.8 -20,5.3c-6.8,5.9 -9.7,10.9 -8.7,15c1.2,4.9 8,7.3 11.4,7.8c6.9,1.2 12.9,-1.9 17.5,-8.9c7.6,-11.4 2.4,-17.2 -0.2,-19.2z" class="st34"/>
     </g>
     <g id="svg_208">
      <polygon id="svg_209" points="306.6000061035156,149.2235927581787 313.3999938964844,151.9235897064209 339.3999938964844,77.62359428405762 332.6000061035156,74.92359733581543 "/>
      <polygon id="svg_210" points="332.3999938964844,75.02359580993652 339.20001220703125,77.72359275817871 344.5,62.62359428405762 337.70001220703125,59.92359733581543 " class="st1"/>
      <polygon id="svg_211" points="301.20001220703125,164.62360191345215 308,167.32359886169434 313.29998779296875,152.2235927581787 306.5,149.52359580993652 " class="st1"/>
     </g>
     <g id="svg_212">
      <ellipse id="svg_213" ry="4.8" rx="12" cy="158.94024" cx="330.25446" class="st30" transform="matrix(0.3233 -0.9463 0.9463 0.3233 48.004 402.155)"/>
      <path id="svg_214" d="m299.7,151.8236c-0.6,-0.4 -1,-1 -1.3,-1.6c-1,-2.3 0.2,-5.6 1.6,-9.5c0.2,-0.5 0.4,-1 0.5,-1.5c0.5,-1.3 0.8,-2.5 1.1,-3.8c0.8,-2.8 1.4,-5.3 3.1,-6.2c1.1,-0.6 2.5,-0.5 4.4,0.3c1.7,0.7 2.8,1.6 3.3,2.7c0.8,1.9 -0.3,4.4 -1.4,7.3c-0.4,1.1 -0.9,2.2 -1.3,3.3c-0.3,0.8 -0.5,1.5 -0.8,2.3c-1.2,3.5 -2.2,6.6 -4.2,7.5c-1,0.5 -2.2,0.5 -3.7,-0.1l0,0c-0.4,-0.2 -0.9,-0.4 -1.3,-0.7zm11.2,-21c-0.5,-0.4 -1.1,-0.7 -1.8,-1c-1.8,-0.7 -3.1,-0.8 -4.1,-0.3c-1.6,0.8 -2.2,3.1 -3,6c-0.3,1.2 -0.7,2.5 -1.1,3.8c-0.2,0.5 -0.4,1 -0.5,1.5c-1.4,3.8 -2.5,7 -1.6,9.2c0.4,1 1.2,1.7 2.5,2.2l0,0c1.4,0.5 2.5,0.6 3.4,0.1c1.9,-0.9 2.9,-3.9 4,-7.3c0.2,-0.7 0.5,-1.5 0.8,-2.3c0.4,-1.2 0.9,-2.3 1.3,-3.4c1.2,-2.9 2.1,-5.2 1.4,-7c-0.3,-0.5 -0.7,-1 -1.3,-1.5z" class="st34"/>
     </g>
     <g id="svg_215">
      <ellipse id="svg_216" ry="8.9" rx="4.4" cy="154.87361" cx="345.86218" class="st30" transform="matrix(0.3825 -0.924 0.924 0.3825 46.074 398.847)"/>
      <path id="svg_217" d="m314.4,140.2236c-0.1,-0.1 -0.3,-0.2 -0.4,-0.3c-1.4,-1.3 -1.8,-2.8 -1.1,-4.8l0,0c0.5,-1.3 1.1,-2.2 2,-2.6c1.8,-0.8 4.2,0.1 6.9,1.3c0.3,0.1 0.7,0.3 1,0.4c1,0.4 2,0.7 2.9,0.9c1.9,0.5 3.6,1 4.3,2.3c0.5,1 0.4,2.4 -0.3,4.4c-0.6,1.6 -1.3,2.7 -2.3,3.1c-1.5,0.7 -3.4,-0.2 -5.5,-1.1c-0.7,-0.3 -1.4,-0.6 -2.2,-1l-0.4,-0.2c-1.8,-0.8 -3.6,-1.5 -4.9,-2.4zm-1.1,-5c-0.6,1.8 -0.3,3.2 1,4.4c1.2,1.1 3.1,1.8 5.4,2.7l0.4,0.2c0.8,0.3 1.5,0.6 2.2,1c2.1,0.9 3.9,1.8 5.2,1.1c0.8,-0.4 1.5,-1.3 2.1,-2.9c0.7,-1.9 0.8,-3.2 0.3,-4.1c-0.6,-1.2 -2.1,-1.6 -4.1,-2.2c-0.9,-0.2 -2,-0.5 -3,-0.9c-0.3,-0.1 -0.7,-0.3 -1,-0.4c-2.7,-1.1 -5.1,-2 -6.7,-1.3c-0.7,0.4 -1.3,1.2 -1.8,2.4l0,0z" class="st34"/>
     </g>
     <g id="svg_218">
      <ellipse id="svg_219" ry="8.9" rx="4.4" cy="162.07361" cx="343.36218" class="st30" transform="matrix(0.3825 -0.924 0.924 0.3825 37.7586 400.99)"/>
      <path id="svg_220" d="m311.9,147.5236c-0.1,-0.1 -0.3,-0.2 -0.4,-0.3c-1.4,-1.3 -1.8,-2.8 -1.1,-4.8c0.5,-1.3 1.1,-2.2 2,-2.6c1.8,-0.8 4.2,0.1 6.9,1.3c0.3,0.1 0.7,0.3 1,0.4c1,0.4 2,0.7 2.9,0.9c1.9,0.5 3.6,1 4.3,2.3c0.5,1 0.4,2.4 -0.3,4.4c-0.6,1.6 -1.3,2.7 -2.3,3.1c-1.5,0.7 -3.4,-0.2 -5.5,-1.1c-0.7,-0.3 -1.4,-0.6 -2.2,-1l-0.4,-0.2c-1.9,-0.8 -3.7,-1.5 -4.9,-2.4zm-1.1,-5c-0.6,1.8 -0.3,3.2 1,4.4c1.2,1.1 3.1,1.8 5.4,2.7l0.4,0.2c0.8,0.3 1.5,0.6 2.2,1c2.1,0.9 3.9,1.8 5.2,1.1c0.8,-0.4 1.5,-1.3 2.1,-2.9c0.7,-1.9 0.8,-3.2 0.3,-4.1c-0.6,-1.2 -2.1,-1.6 -4.1,-2.2c-0.9,-0.2 -2,-0.5 -3,-0.9c-0.3,-0.1 -0.7,-0.3 -1,-0.4c-2.7,-1.1 -5.1,-2 -6.7,-1.3c-0.8,0.4 -1.4,1.2 -1.8,2.4z" class="st34"/>
     </g>
     <g id="svg_221">
      <ellipse id="svg_222" ry="8.9" rx="4.4" cy="169.77361" cx="340.66218" class="st30" transform="matrix(0.3825 -0.924 0.924 0.3825 29.0007 403.247)"/>
      <path id="svg_223" d="m309.2,155.2236c-0.1,-0.1 -0.3,-0.2 -0.4,-0.3c-1.4,-1.3 -1.8,-2.8 -1.1,-4.8c0.5,-1.3 1.1,-2.2 2,-2.6c1.8,-0.8 4.2,0.1 6.9,1.3c0.3,0.1 0.7,0.3 1,0.4c1,0.4 2,0.7 2.9,0.9c1.9,0.5 3.6,1 4.3,2.3c0.5,1 0.4,2.4 -0.3,4.4c-0.6,1.6 -1.3,2.7 -2.3,3.1c-1.5,0.7 -3.4,-0.2 -5.5,-1.1c-0.7,-0.3 -1.4,-0.6 -2.2,-1l-0.4,-0.2c-1.9,-0.8 -3.6,-1.5 -4.9,-2.4zm14.7,-3.6c-0.8,-0.6 -1.9,-0.9 -3.3,-1.3c-0.9,-0.2 -2,-0.5 -3,-0.9c-0.3,-0.1 -0.7,-0.3 -1,-0.4c-2.7,-1.1 -5.1,-2 -6.7,-1.3c-0.8,0.4 -1.4,1.2 -1.8,2.4l0,0c-0.6,1.8 -0.3,3.2 1,4.4c1.2,1.1 3.1,1.8 5.4,2.7l0.4,0.2c0.8,0.3 1.5,0.6 2.2,1c2.1,0.9 3.9,1.8 5.2,1.1c0.8,-0.4 1.5,-1.3 2.1,-2.9c0.7,-1.9 0.8,-3.2 0.3,-4.1c-0.3,-0.3 -0.5,-0.6 -0.8,-0.9z" class="st34"/>
     </g>
     <g id="svg_224">
      <ellipse id="svg_225" ry="8.9" rx="4.4" cy="176.87361" cx="338.16218" class="st30" transform="matrix(0.3825 -0.924 0.924 0.3825 20.976 405.315)"/>
      <path id="svg_226" d="m306.7,162.2236c-0.1,-0.1 -0.3,-0.2 -0.4,-0.3c-1.4,-1.3 -1.8,-2.8 -1.1,-4.8c0.5,-1.3 1.1,-2.2 2,-2.6c1.8,-0.8 4.2,0.1 6.9,1.3c0.3,0.1 0.7,0.3 1,0.4c1,0.4 2,0.7 2.9,0.9c1.9,0.5 3.6,1 4.3,2.3c0.5,1 0.4,2.4 -0.3,4.4c-0.6,1.6 -1.3,2.7 -2.3,3.1c-1.5,0.7 -3.4,-0.2 -5.5,-1.1c-0.7,-0.3 -1.4,-0.6 -2.2,-1l-0.4,-0.2c-1.8,-0.8 -3.6,-1.5 -4.9,-2.4zm14.7,-3.5c-0.8,-0.6 -1.9,-0.9 -3.3,-1.3c-0.9,-0.2 -2,-0.5 -3,-0.9c-0.3,-0.1 -0.7,-0.3 -1,-0.4c-2.7,-1.1 -5.1,-2 -6.7,-1.3c-0.8,0.4 -1.4,1.2 -1.8,2.4l0,0c-0.6,1.8 -0.3,3.2 1,4.4c1.2,1.1 3.1,1.8 5.4,2.7l0.4,0.2c0.8,0.3 1.5,0.6 2.2,1c2.1,0.9 3.9,1.8 5.2,1.1c0.8,-0.4 1.5,-1.3 2.1,-2.9c0.7,-1.9 0.8,-3.2 0.3,-4.1c-0.2,-0.4 -0.5,-0.7 -0.8,-0.9z" class="st34"/>
     </g>
    </g>
   </g>
   <g id="svg_227">
    <ellipse id="svg_228" ry="2" rx="7.3" cy="81.5236" cx="195.9" class="st1"/>
    <ellipse id="svg_229" ry="1" rx="3.6" cy="81.6236" cx="195.9"/>
    <ellipse id="svg_230" ry="0.6" rx="1.8" cy="80.7236" cx="194.1" class="st1"/>
   </g>
   <g id="svg_231">
    <ellipse id="svg_232" ry="2" rx="7.3" cy="81.8236" cx="223.6" class="st1"/>
    <ellipse id="svg_233" ry="1" rx="3.6" cy="81.8236" cx="223.6"/>
    <ellipse id="svg_234" ry="0.6" rx="1.8" cy="80.9236" cx="221.8" class="st1"/>
   </g>
   <g id="eyes-albert-closed">
    <g id="svg_235">
     <ellipse id="svg_236" ry="2.8" rx="7.3" cy="81.5236" cx="195.9" class="st1"/>
     <ellipse id="svg_237" ry="1.4" rx="3.6" cy="81.5236" cx="195.9"/>
     <ellipse id="svg_238" ry="0.9" rx="1.8" cy="80.3236" cx="194.1" class="st1"/>
    </g>
    <g id="svg_239">
     <ellipse id="svg_240" ry="2.8" rx="7.3" cy="81.8236" cx="223.6" class="st1"/>
     <ellipse id="svg_241" ry="1.4" rx="3.6" cy="81.8236" cx="223.6"/>
     <ellipse id="svg_242" ry="0.9" rx="1.8" cy="80.6236" cx="221.8" class="st1"/>
    </g>
   </g>
   <g id="eyes-albert-opened">
    <g id="svg_243">
     <ellipse id="svg_244" ry="7.7" rx="7.3" cy="81.2236" cx="195.9" class="st1"/>
     <ellipse id="svg_245" ry="3.8" rx="3.6" cy="81.3236" cx="195.9"/>
     <ellipse id="svg_246" ry="2.4" rx="1.8" cy="77.9236" cx="194.1" class="st1"/>
    </g>
    <g id="svg_247">
     <ellipse id="svg_248" ry="7.7" rx="7.3" cy="82.1236" cx="223.6" class="st1"/>
     <ellipse id="svg_249" ry="3.8" rx="3.6" cy="82.1236" cx="223.6"/>
     <ellipse id="svg_250" ry="2.4" rx="1.8" cy="78.7236" cx="221.8" class="st1"/>
    </g>
   </g>
   <g id="eye-brows">
    <path id="svg_251" d="m198.3,67.0236c0,0 -14.3,2 -12.8,3.2c1.6,1.2 16,0.8 15.9,0c0,-0.9 1,-3.8 -3.1,-3.2z"/>
    <path id="svg_252" d="m218,67.0236c0,0 14.3,2 12.8,3.2c-1.6,1.2 -16,0.8 -15.9,0c0,-0.9 -1,-3.8 3.1,-3.2z"/>
   </g>
  </g>
 </g>
</svg>