<svg width="400" height="400" xmlns="http://www.w3.org/2000/svg" xmlns:xlink="http://www.w3.org/1999/xlink">
 <g>
  <title>background</title>
 
 </g>
 <style>#tablet { animation: 10s tb linear forwards;
transform-origin:center;
transform-box:fill-box;}
@keyframes tb { 0%{transform:scale(0)}
2%{transform:scale(1.1)}
4%{transform:scale(1)}

}
 #k{animation: m 0;}
 @keyframes m{
   0%{transform:translate(-300px,100px)}
   3%{transform:translate(-300px,100px)}
   
   5%{transform:translate(0px,0px)}
  
 }
  #f{animation: f 0;}
 @keyframes f{
   0%{transform:translate(200px,0px)}
   6%{transform:translate(200px,0px)}
   10%{transform:translate(0px,0px)}
  
 }
   #i{animation: i 0;}
 @keyframes i{
   0%{transform:translate(250px,170px)}
   7%{transform:translate(250px,170px)}
   
  15%{transform:translate(0px,0px)}
  
 }
  #i1
      {animation: i1 2s linear alternate infinite;}
   @keyframes i1 {
   0%{transform:translate(10px,10px)}
   
   
  100%{transform:translate(0px,0px)}
  
 }
 @keyframes g{
   0%{transform:translate(-400px,150px)}
   7%{transform:translate(-400px,150px)}
   
  15%{transform:translate(0px,0px)}
  
 }
  #g1
      {animation: g1 2s linear alternate infinite;}
   @keyframes g1 {
   0%{transform:translate(-10px,10px)}
   
   
  100%{transform:translate(0px,0px)}
  
 }
   #c
      {animation: c 0;}
 @keyframes c{
   0%{transform:translate(250px,170px)}
   7%{transform:translate(250px,170px)}
   
  13% {transform:translate(0px,0px)}
  
 }
  #c1
      {animation: c1 2s linear alternate infinite;}
   @keyframes c1 {
   0%{transform:translate(-10px,-10px)}
   
   
  100%{transform:translate(0px,0px)}
  
 }
  #h
    {animation: h 0;}
   @keyframes h{
   0%{transform:translate(-250px,-170px)}
   4%{transform:translate(-250px,-170px)}
   
  10%{transform:translate(0px,0px)}
  
 }
  #h1
      {animation: h1 2s linear alternate infinite;}
   @keyframes h1 {
   0%{transform:translate(10px,10px)}
   
   
  100%{transform:translate(0px,0px)}
  
 }
#b
      {animation: b 0;}
   @keyframes b{
   0%{transform:translate(250px,170px)}
   6%{transform:translate(250px,170px)}
   
  16%{transform:translate(0px,0px)}
  
 }
 #b1
      {animation: b1 2s linear alternate infinite;}
   @keyframes b1 {
   0%{transform:translate(10px,10px)}
   
   
  100%{transform:translate(0px,0px)}
  
 }
 #a
      {animation: a 0;}
   @keyframes a{
   0%{transform:translate(-250px,-70px)}
   8%{transform:translate(-250px,-70px)}
   
  18%{transform:translate(0px,0px)}
  
 }
  #j
      {animation: j 35s linear infinite;}
   @keyframes j{
   0%{transform:translate(100px,0px)}
   
   
  100%{transform:translate(-900px,0px)}
  
 }
  #a1
       {animation: a1 2s linear alternate infinite;}
   @keyframes a1 {
   0%{transform:translate(-10px,-10px)}
   
   
  100%{transform:translate(0px,0px)}
  
 }
 #d
     {animation: d 0;
     transform-origin:right;
     transform-box:fill-box;}
   @keyframes d{
   0%{transform:scale(0);}
   6%{transform:scale(0);}
   8%{transform:scale(1);}
  
 }
  #e
      {animation: e 0;
     transform-origin:top;
     transform-box:fill-box;}
   @keyframes e{
   0%{transform:scale(0);}
   6%{transform:scale(0);}
   8%{transform:scale(1);}
  
 }
 #e1{ animation: arm1 2s linear alternate infinite;

    transform-origin: top;
    transform-box: fill-box;}

  @keyframes arm1{
  0%{transform:rotateZ(0deg);}
  100%{transform: rotateZ(5deg);}

  }
   #d1 { animation: arm1 2s linear alternate infinite;

    transform-origin: bottom;
    transform-box: fill-box;}

  @keyframes arm1{
  0%{transform:rotateZ(0deg);}
  100%{transform: rotateZ(5deg);}

  }
#head1 { animation: arm1 2s linear alternate infinite;

    transform-origin:bottom;
    transform-box: fill-box;}

  @keyframes arm1{
  0%{transform:rotateZ(0deg);}
  100%{transform: rotateZ(5deg);}

  }</style>
 <defs>
  <linearGradient y2="0.5001" x2="1.00001" y1="0.5001" x1="-0.00296" id="linear-gradient-201">
   <stop stop-color="#43616f" offset="0.01"/>
   <stop stop-color="#231f20" offset="0.21"/>
   <stop stop-color="#231f20" offset="0.66"/>
   <stop stop-color="#2a413d" offset="0.79"/>
  </linearGradient>
  <linearGradient xlink:href="#linear-gradient-201" y2="104.4" x2="444.86" y1="104.4" x1="370.42" id="linear-gradient-202"/>
  <linearGradient y2="-3.08001" x2="779.01816" y1="-7.80503" x1="43.98825" id="linear-gradient-203">
   <stop stop-color="#5e535d" offset="0.26"/>
   <stop stop-color="#4b424b" offset="1"/>
  </linearGradient>
  <linearGradient xlink:href="#linear-gradient-203" y2="73.7" x2="741.95" y1="73.7" x1="719.91" id="linear-gradient-204"/>
  <linearGradient xlink:href="#linear-gradient-203" y2="69.4" x2="741.95" y1="69.4" x1="719.91" id="linear-gradient-205"/>
  <linearGradient xlink:href="#linear-gradient-203" y2="78.74" x2="737.61" y1="78.74" x1="731.12" id="linear-gradient-206"/>
  <linearGradient xlink:href="#linear-gradient-203" y2="80.32" x2="737.62" y1="80.32" x1="731.12" id="linear-gradient-207"/>
  <linearGradient xlink:href="#linear-gradient-203" y2="78.41" x2="737.61" y1="78.41" x1="731.12" id="linear-gradient-208"/>
  <linearGradient xlink:href="#linear-gradient-203" y2="81.66" x2="737.61" y1="81.66" x1="731.12" id="linear-gradient-209"/>
  <linearGradient xlink:href="#linear-gradient-203" y2="79.95" x2="737.62" y1="79.95" x1="731.12" id="linear-gradient-210"/>
  <linearGradient xlink:href="#linear-gradient-203" y2="79.19" x2="737.62" y1="79.19" x1="731.12" id="linear-gradient-211"/>
  <linearGradient xlink:href="#linear-gradient-203" y2="79.58" x2="737.61" y1="79.58" x1="731.12" id="linear-gradient-212"/>
  <linearGradient xlink:href="#linear-gradient-203" y2="80.99" x2="737.61" y1="80.99" x1="731.12" id="linear-gradient-213"/>
  <linearGradient xlink:href="#linear-gradient-203" y2="83.29" x2="737.61" y1="83.29" x1="731.12" id="linear-gradient-214"/>
  <linearGradient xlink:href="#linear-gradient-203" y2="83.62" x2="737.61" y1="83.62" x1="731.12" id="linear-gradient-215"/>
  <linearGradient xlink:href="#linear-gradient-203" y2="82.04" x2="737.61" y1="82.04" x1="731.12" id="linear-gradient-216"/>
  <linearGradient xlink:href="#linear-gradient-203" y2="82.82" x2="737.62" y1="82.82" x1="731.12" id="linear-gradient-217"/>
  <linearGradient xlink:href="#linear-gradient-203" y2="82.42" x2="737.61" y1="82.42" x1="731.12" id="linear-gradient-218"/>
  <linearGradient xlink:href="#linear-gradient-203" y2="69.36" x2="737.61" y1="69.36" x1="731.12" id="linear-gradient-219"/>
  <linearGradient xlink:href="#linear-gradient-203" y2="71.48" x2="737.61" y1="71.48" x1="731.11" id="linear-gradient-220"/>
  <linearGradient xlink:href="#linear-gradient-203" y2="71.69" x2="737.58" y1="71.69" x1="731.25" id="linear-gradient-221"/>
  <linearGradient xlink:href="#linear-gradient-203" y2="70.1" x2="736.64" y1="70.1" x1="736.01" id="linear-gradient-222"/>
  <linearGradient xlink:href="#linear-gradient-203" y2="71.9" x2="737.63" y1="71.9" x1="731.06" id="linear-gradient-223"/>
  <linearGradient xlink:href="#linear-gradient-203" y2="78.1" x2="737.61" y1="78.1" x1="731.12" id="linear-gradient-224"/>
  <linearGradient xlink:href="#linear-gradient-203" y2="77.81" x2="737.61" y1="77.81" x1="731.12" id="linear-gradient-225"/>
  <linearGradient xlink:href="#linear-gradient-203" y2="80.2" x2="737.61" y1="80.2" x1="731.12" id="linear-gradient-226"/>
  <linearGradient xlink:href="#linear-gradient-203" y2="71.83" x2="737.61" y1="71.83" x1="731.12" id="linear-gradient-227"/>
  <linearGradient xlink:href="#linear-gradient-203" y2="68.31" x2="741.95" y1="68.31" x1="719.91" id="linear-gradient-228"/>
  <linearGradient xlink:href="#linear-gradient-203" y2="68.31" x2="737.61" y1="68.31" x1="731.12" id="linear-gradient-229"/>
 </defs>
 <title>DIGITAL MAGAZINE</title>
 <g>
  <title>Layer 1</title>
  <g stroke="null" id="e">
   <g stroke="null" id="e1">
    <path stroke="null" id="svg_2057" fill="#d7cfcd" d="m212.17087,273.26733l-0.12009,-0.145l-0.26419,-9.13475l0,0c0,-1.69162 2.88212,-3.5524 7.20529,-4.59154l10.32758,-2.4166l-1.12883,-0.45915a12.75336,12.83215 0 0 1 -3.77077,-3.02075l-9.60705,3.5524l-4.27514,5.00236l-0.38428,1.2808l-1.7773,-1.42579s0.43232,-2.24744 1.34499,-5.29236l0,0l0,0c0,-0.21749 0.12009,-0.43499 0.19214,-0.65248l0,-0.24166c0,-0.24166 0.16812,-0.50749 0.24018,-0.77331l0.14411,-0.43499a2.83408,2.85159 0 0 0 0.16812,-0.48332c0,-0.16916 0.12009,-0.33832 0.16812,-0.48332l0.14411,-0.38666c0,-0.19333 0.14411,-0.36249 0.19214,-0.53165l0.14411,-0.36249l0.21616,-0.55582a1.65722,1.66745 0 0 1 0.12009,-0.31416c0.26419,-0.65248 0.55241,-1.30496 0.84062,-1.95745l0.14411,-0.33832l0.26419,-0.50749c0,-0.145 0,-0.26583 0.16812,-0.38666l0.26419,-0.48332l0.21616,-0.38666c0,-0.16916 0.16812,-0.31416 0.24018,-0.45915l0.26419,-0.43499l0.26419,-0.48332l0.43232,-0.65248l0.21616,-0.31416l0.33625,-0.45915a2.71399,2.73076 0 0 1 0.48035,-0.26583a5.01969,5.0507 0 0 1 0.33625,-0.41082l0.21616,-0.28999l0.38428,-0.41082l0.21616,-0.21749l0.60044,-0.57998a19.21411,19.33281 0 0 0 1.72927,-1.69162l-3.77077,-0.62832l6.05244,-3.02075l0.16812,0a16.81234,16.91621 0 0 0 2.16159,-7.73312a1.58516,1.59496 0 0 1 0,-0.31416l0,-0.43499s0,-0.24166 0,-0.38666l0,0c0,-0.86998 0.31223,-2.05411 0.50437,-3.31074l0,0a5.59611,5.63068 0 0 0 0.12009,-0.67665c0.14411,-0.74915 0.26419,-1.47413 0.38428,-2.17494a138.38961,139.24454 0 0 1 -19.21411,8.62727c-3.84282,0.91831 -20.46302,3.5524 -20.46302,3.5524l0,-0.67665l-2.78605,0.72498l0,-1.95745l-2.90613,1.42579l33.00023,40.55056a1.46508,1.47413 0 0 1 -0.14411,-0.96664z"/>
    <path stroke="null" id="svg_2058" fill="#d7cfcd" d="m181.02,228.46355l1.03276,-0.43499l0,-2.4166l2.1856,-0.43499l0,-0.48332s19.86258,-4.8332 21.61587,-5.67901s19.3342,-8.57893 19.3342,-8.57893s2.78605,-3.98739 4.41924,-4.47071c1.08079,-0.31416 4.15505,-1.57079 6.10048,-2.4166l0.16812,-0.24166l0.72053,-0.12083l0.79258,-0.33832l0.21616,0.12083c1.34499,-0.24166 3.33845,-0.60415 5.37995,-0.89414l-0.21616,-0.84581l-213.63686,-162.97557l-8.3101,0l154.76964,190.71814l0.60044,0.21749l4.82754,-0.72498z"/>
    <path stroke="null" id="svg_2059" fill="#d7cfcd" d="m241.04007,232.91009l-0.26419,0.36249c2.76203,0.31416 11.33632,1.30496 15.97173,1.88495c5.59611,0.72498 13.23372,1.42579 13.23372,1.42579l1.72927,7.2498l2.01748,2.60993l8.5743,-2.05411c4.27514,-1.01497 9.43893,-0.62832 11.60052,0.86998l52.8388,36.46651l1.15285,-0.36249l-83.67744,-63.67743c-6.43673,11.45469 -20.79927,14.76543 -23.17702,15.22459z"/>
    <path stroke="null" id="svg_2060" fill="#d7cfcd" d="m262.03148,244.26812l-18.94991,0.99081c3.93889,1.69162 8.81447,3.91489 12.3931,5.55818l8.45421,-2.02994c-1.24892,-2.87576 -1.89739,-4.51904 -1.89739,-4.51904z"/>
    <path stroke="null" id="svg_2061" fill="url(#linear-gradient-201)" d="m390.18958,322.2035l-0.19214,-6.21066a7.20529,7.2498 0 0 1 -4.10702,3.57657l-77.28875,32.79327c16.54815,-6.69398 36.74698,-15.56291 36.96314,-15.65957a0.38428,0.38666 0 0 1 0.31223,0.72498c-0.24018,0 -22.79274,10.00473 -39.7732,16.77121a35.35396,35.57237 0 0 1 -13.06559,2.89992c-7.32538,0 -10.15946,-3.5524 -10.32758,-3.7699l-27.47617,-34.38823a0.38428,0.38666 0 0 1 0,-0.53165l-5.50004,-6.79065l-5.7162,1.76412l-31.70328,-39.14893a1.44106,1.44996 0 0 0 0.21616,0.36249l70.51577,87.19096c3.60265,4.42238 12.63328,5.58235 19.91062,2.4166l83.14905,-35.20988c3.84282,-1.61912 5.21183,-4.27738 4.083,-6.79065z"/>
    <path stroke="null" id="svg_2062" fill="#d7cfcd" d="m249.8065,311.61879l-37.53956,-46.4229a1.51311,1.52246 0 0 1 -0.38428,-1.11164l0,0l0.26419,9.13475l0.12009,0.145a1.46508,1.47413 0 0 0 0.14411,0.89414l31.77533,39.14893l5.62013,-1.78828z"/>
    <path stroke="null" id="svg_2063" fill="url(#linear-gradient-202)" d="m249.8065,311.61879l-37.53956,-46.4229a1.51311,1.52246 0 0 1 -0.38428,-1.11164l0,0l0.26419,9.13475l0.12009,0.145a1.46508,1.47413 0 0 0 0.14411,0.89414l31.77533,39.14893l5.62013,-1.78828z"/>
    <path stroke="null" id="svg_2064" fill="#110c15" d="m282.30236,244.43728l-8.5743,2.05411l0.33625,0.43499l8.76644,-2.10244a14.89093,14.98293 0 0 1 9.96732,0.74915l90.23425,62.83162l2.93015,2.02994c3.79479,2.65826 3.31443,6.40399 -1.24892,8.33727l-3.07426,1.30496c-3.12229,-0.65248 -8.88652,-2.00578 -16.81234,-4.37405l0,0l-13.88219,5.55818l3.79479,3.14158l-30.14213,12.34883l-0.28821,-0.28999l-0.45634,0.19333l-1.48909,-1.44996l-1.82534,-1.73995l-38.21206,15.32125l-68.66642,-83.92855c-1.32097,-1.61912 1.29695,-3.81823 5.81227,-4.8332l10.85597,-2.60993l-0.93669,-0.31416l-10.32758,2.4166c-4.29916,1.03914 -7.20529,2.89992 -7.20529,4.59154a1.51311,1.52246 0 0 0 0.38428,1.11164l37.53956,46.4229l5.50004,6.79065l0,0a0.4083,0.41082 0 0 1 0.55241,0l27.47617,34.38823s5.81227,7.2498 22.48051,0.62832l2.78605,-1.11164l77.28875,-32.79327a7.20529,7.2498 0 0 0 4.10702,-3.57657c0.8166,-2.02994 0,-4.30155 -2.71399,-6.13817l-40.61382,-28.0809l-52.8388,-36.46651c-2.06552,-1.47413 -7.22931,-1.86078 -11.50445,-0.84581z"/>
    <path stroke="null" id="svg_2065" fill="#110c15" d="m263.92887,248.81133l-8.45421,2.02994l0.74455,0.33832l7.92582,-1.88495l-0.21616,-0.48332z"/>
    <path stroke="null" id="svg_2066" fill="#43525a" d="m349.21549,310.50715l-67.96991,25.90596l-3.21836,-3.7699l65.20788,-24.35934l0,0l-0.55241,-0.21749l-64.99172,24.16601l-30.69454,-35.88652l-0.31223,0l-17.86912,-21.29025l0,0l-4.51532,-5.29236l26.29931,-6.71815c-7.39743,-1.95745 -16.04378,-4.32572 -20.2949,-5.77568l-10.85597,2.60993c-4.51532,1.0633 -7.20529,3.26241 -5.81227,4.8332l68.66642,83.88022l38.21206,-15.32125l-0.74455,-0.74915l29.92597,-11.93801l0.4083,0.31416l0,0l0.28821,0.24166l0.4083,-0.16916l0.12009,0l13.88219,-5.55818c-4.56335,-1.37746 -9.82321,-3.06908 -15.61146,-5.14736l0.02402,0.24166z"/>
    <path stroke="null" id="svg_2067" fill="#110c15" d="m278.02722,332.64321l3.19435,3.7699l67.96991,-25.90596c-1.92141,-0.70081 -3.91487,-1.42579 -5.95637,-2.22327l-65.20788,24.35934z"/>
    <path stroke="null" id="svg_2068" fill="#110c15" d="m228.83911,275.15228l33.74478,-8.91726c-1.92141,-0.48332 -6.60485,-1.66745 -12.00882,-3.09325l-26.29931,6.71815l4.56335,5.29236z"/>
    <polygon stroke="null" id="svg_2069" fill="#fff" points="350.4164123535156,321.28519439697266 351.1128845214844,321.8651809692383 353.6347351074219,323.9434585571289 353.6347351074219,323.9434585571289 354.01904296875,324.28177642822266 324.3090515136719,336.41309356689453 324.5973815917969,336.7032241821289 354.7395935058594,324.35425567626953 350.9446716308594,321.2126235961914 350.8246765136719,321.14014434814453 350.4164123535156,321.28519439697266 "/>
    <polygon stroke="null" id="svg_2070" points="320.17816162109375,333.0298538208008 350.1280822753906,321.04358673095703 349.7198486328125,320.72937774658203 319.7938537597656,332.66736602783203 320.53851318359375,333.41654205322266 322.36370849609375,335.15653228759766 320.17816162109375,333.0298538208008 "/>
    <polygon stroke="null" id="svg_2071" points="353.6347351074219,323.9434585571289 351.1128845214844,321.8651809692383 353.6347351074219,323.9434585571289 353.6347351074219,323.9434585571289 "/>
    <polygon stroke="null" id="svg_2072" fill="#9da4b4" points="353.6347351074219,323.9434585571289 351.1128845214844,321.8651809692383 350.4164123535156,321.28519439697266 350.1280822753906,321.04358673095703 350.1280822753906,321.04358673095703 320.17816162109375,333.0298538208008 322.36370849609375,335.15653228759766 323.8527526855469,336.6063919067383 324.3090515136719,336.41309356689453 354.01904296875,324.28177642822266 353.6347351074219,323.9434585571289 "/>
    <path stroke="null" id="svg_2073" fill="#647883" d="m280.64515,255.50531l15.2512,-3.98739l5.98039,4.25322l0,0l62.06157,44.27213l-21.23159,7.92645l0.55241,0.21749l21.08748,-7.85395l3.91487,2.80326l-19.04598,7.2498c5.78825,2.07828 11.04811,3.7699 15.61146,5.14736l0,0l18.20537,-7.2498l-90.23425,-62.83162a14.89093,14.98293 0 0 0 -9.96732,-0.74915l-8.76644,2.10244l6.58083,8.69976z"/>
    <path stroke="null" id="svg_2074" fill="#647883" d="m264.14503,249.29465l-7.92582,1.88495c2.0415,0.96664 3.55461,1.66745 3.98693,1.90911c1.32097,0.67665 5.93236,2.5616 8.3101,3.50407a17.79707,17.90701 0 0 1 -2.97819,-4.08406l-1.39302,-3.21408z"/>
    <path stroke="null" id="svg_2075" fill="#1e3b5c" d="m349.21549,310.50715l0,0l19.04598,-7.2498l-3.91487,-2.80326l-21.08748,7.85395l0,0c2.01748,0.77331 4.03496,1.49829 5.95637,2.19911z"/>
    <path stroke="null" id="svg_2076" fill="#1e3b5c" d="m364.82695,315.65451c7.92582,2.4166 13.69005,3.72157 16.81234,4.37405l3.07426,-1.30496c4.56335,-1.93328 5.0437,-5.67901 1.24892,-8.33727l-2.93015,-2.02994l-18.20537,7.29813z"/>
    <polygon stroke="null" id="svg_2077" fill="#1e3b5c" points="301.87677001953125,255.8678207397461 295.8963623046875,251.61455535888672 280.6451110839844,255.50533294677734 284.43994140625,260.48352813720703 301.87677001953125,255.8678207397461 "/>
    <path stroke="null" id="svg_2078" fill="#1e3b5c" d="m270.1014,258.26024c0.12009,0.67665 0.28821,1.71579 0.60044,3.35908a6.55681,6.59732 0 0 0 1.29695,2.15077l3.14631,-0.84581c-1.68123,-1.47413 -3.45854,-3.09325 -5.0437,-4.66404z"/>
    <path stroke="null" id="svg_2079" fill="#58b0e3" d="m228.83911,275.15228l12.36908,-3.06908l5.452,0.28999a5.452,5.48568 0 0 1 3.69872,0.19333l3.89086,0.19333l-0.72053,-0.70081c-0.36026,-0.33832 -0.21616,-0.77331 0.24018,-1.15997a3.62666,3.64907 0 0 1 1.68123,-0.86998l8.23805,-2.19911l0.52839,0c-0.45634,-0.77331 -0.69651,-1.23247 -0.69651,-1.23247l-0.93669,-0.24166l-33.74478,8.91726l0,-0.12083z"/>
    <path stroke="null" id="svg_2080" fill="#58b0e3" d="m262.36773,280.83129c-0.4083,-0.38666 -0.28821,-0.86998 0.19214,-1.2808a3.31443,3.33491 0 0 1 1.70525,-0.96664l4.58737,-1.30496l-6.19655,-0.21749l-13.44988,4.44655l3.19435,0.45915l2.76203,-0.79748a4.80353,4.8332 0 0 1 4.15505,0.38666l1.60918,1.61912l4.46728,0.65248l0,0l-3.02622,-2.99659z"/>
    <path stroke="null" id="svg_2081" fill="#58b0e3" d="m277.30669,287.01779l0.72053,-0.21749c-0.96071,-1.08747 -1.89739,-2.17494 -2.81006,-3.28658l-4.68344,1.40163l6.77297,2.10244z"/>
    <path stroke="null" id="svg_2082" fill="#58b0e3" d="m299.16274,289.04773a4.46728,4.49488 0 0 1 -3.05024,-0.65248l-0.74455,-0.67665c-0.16812,0.38666 -0.4083,0.89414 -0.72053,1.49829a8.11796,8.16811 0 0 0 4.51532,-0.16916z"/>
    <path stroke="null" id="svg_2083" fill="#58b0e3" d="m276.80232,264.32591c-0.55241,-0.43499 -1.08079,-0.91831 -1.65722,-1.40163l-3.14631,0.84581c0.36026,0.45915 0.76856,0.96664 1.24892,1.52246l0.28821,0l3.2664,-0.96664z"/>
    <path stroke="null" id="svg_2084" fill="#58b0e3" d="m284.43993,272.88067c-0.55241,-0.60415 -1.58516,-1.76412 -2.54587,-2.87576l-2.40176,0.65248a6.17253,6.21066 0 0 1 -0.96071,0.19333l3.12229,3.06908a3.62666,3.64907 0 0 1 1.29695,-0.62832l1.48909,-0.41082z"/>
    <path stroke="null" id="svg_2085" fill="#58b0e3" d="m291.69326,283.17539a2.81006,2.82742 0 0 1 1.58516,-0.99081l8.3101,-2.4166a5.23584,5.26819 0 0 1 4.2271,0.38666l3.65068,2.94825l0,0l0.93669,0.72498a0.86463,0.86998 0 0 1 0.19214,1.30496l0.45634,0.33832a6.19655,6.23483 0 0 1 -2.40176,5.36485l4.68344,-1.52246a5.40397,5.43735 0 0 1 4.44326,0.41082l5.09174,4.08406a1.00874,1.01497 0 0 1 0.24018,1.49829a2.40176,2.4166 0 0 1 -1.53713,1.11164l-8.76644,2.99659a5.452,5.48568 0 0 1 -4.68344,-0.45915l-0.96071,-0.86998l-3.91487,-3.43157a0.48035,0.48332 0 0 1 -0.14411,-0.16916c-0.79258,0.60415 -1.46508,1.11164 -1.82534,1.44996a15.61146,15.70791 0 0 0 -1.34499,1.40163l3.36247,3.04492a1.05678,1.0633 0 0 1 0.12009,1.59496a2.95417,2.97242 0 0 1 -1.70525,1.2083l-9.36688,3.18991a5.28388,5.31652 0 0 1 -4.80353,-0.50749l-0.91267,-0.91831l-3.79479,-3.74573a1.03276,1.03914 0 0 1 0,-1.57079a3.17033,3.18991 0 0 1 1.70525,-1.15997l-11.33632,-2.22327a1.39302,1.40163 0 0 1 -0.4083,0.72498a3.45854,3.47991 0 0 1 -1.82534,1.1358l-9.60705,3.04492a5.06772,5.09903 0 0 1 -4.61139,-0.45915l-0.76856,-0.89414l-3.07426,-3.47991a0.84062,0.84581 0 0 1 -0.19214,-0.91831l-5.81227,0.99081l30.69454,35.88652l64.99172,-24.16601l21.23159,-7.92645l-61.94148,-44.32046l0,0l-17.4368,4.61571l2.11355,2.75493l0.86463,-0.67665l3.29042,4.37405l-1.03276,1.1358a5.35593,5.38902 0 0 0 4.25112,0.82164c3.60265,-0.45915 5.98039,-1.93328 7.01315,-1.76412l1.03276,0.19333l0.55241,0.43499l4.29916,-1.23247a5.3079,5.34069 0 0 1 3.93889,0.33832l4.34719,3.18991a0.69651,0.70081 0 0 1 0.16812,1.15997a2.40176,2.4166 0 0 1 -1.39302,0.86998l-7.80573,2.4166a5.25986,5.29236 0 0 1 -4.10702,-0.36249l-0.84062,-0.65248l-0.98472,-0.79748l-0.26419,0.145c-0.52839,0.24166 -1.29695,0.55582 -2.08953,0.84581l0.55241,0.45915l0,0l0.84062,0.67665a0.74455,0.74915 0 0 1 0,1.23247a2.83408,2.85159 0 0 1 -1.48909,0.91831l-8.23805,2.4166a7.3494,7.3948 0 0 1 -1.89739,0.24166l4.01094,3.6974l0.12009,-0.145zm28.96527,5.65485a0.88865,0.89414 0 0 1 -0.21616,-1.37746a2.40176,2.4166 0 0 1 1.46508,-1.03914l8.11796,-2.63409a5.47602,5.50985 0 0 1 4.37121,0.41082l5.25986,3.8424c0.60044,0.43499 0.67249,0.94247 0.36026,1.40163a2.06552,2.07828 0 0 1 -1.39302,1.08747l-8.26207,2.80326a5.47602,5.50985 0 0 1 -4.58737,-0.43499l-1.00874,-0.79748l-4.10702,-3.26241zm-53.29513,23.63436l-0.86463,-0.96664l-3.43452,-3.89073c-0.69651,-0.77331 0,-1.81245 1.34499,-2.4166l0.8166,-0.33832l9.60705,-3.14158a5.13977,5.17153 0 0 1 4.65942,0.45915l4.56335,4.63987c0.76856,0.77331 0.26419,1.81245 -1.15285,2.4166a3.43452,3.45574 0 0 1 -0.79258,0.36249l-9.96732,3.38324a5.0437,5.07486 0 0 1 -4.77951,-0.50749zm27.47617,10.00473l-10.32758,3.79406a5.21183,5.24402 0 0 1 -5.21183,-0.57998l-4.80353,-5.46152c-0.86463,-0.99081 0,-2.4166 1.87338,-2.97242l10.08741,-3.50407a5.33191,5.36485 0 0 1 4.97165,0.50749l5.09174,5.19569c0.91267,0.96664 0.16812,2.3441 -1.68123,3.02075zm20.03071,-7.2498l-9.60705,3.5524a5.37995,5.41319 0 0 1 -5.09174,-0.55582l-1.03276,-1.01497l-4.13103,-4.10822a1.2249,1.23247 0 0 1 0,-1.76412a3.2664,3.28658 0 0 1 1.82534,-1.30496l9.43893,-3.28658a5.40397,5.43735 0 0 1 4.80353,0.48332l5.37995,4.8332a1.2249,1.23247 0 0 1 0.21616,1.78828a2.83408,2.85159 0 0 1 -1.82534,1.40163l0.02402,-0.02417zm20.60713,-7.68479l-9.05465,3.31074a5.47602,5.50985 0 0 1 -4.97165,-0.50749l-1.12883,-0.99081l0,0l-4.32317,-3.7699c-0.98472,-0.86998 -0.4083,-2.02994 1.24892,-2.60993l8.81447,-3.11742a5.54807,5.58235 0 0 1 4.80353,0.45915l5.64414,4.54321c1.03276,0.91831 0.57642,2.10244 -1.05678,2.70659l0.02402,-0.02417zm17.60493,-6.47649l-8.50224,3.14158a5.66816,5.70318 0 0 1 -4.80353,-0.48332l-5.69218,-4.49488c-1.00874,-0.82164 -0.55241,-1.90911 1.00874,-2.4166l8.35814,-2.89992a5.64414,5.67901 0 0 1 4.6354,0.43499l5.83629,4.27738c0.96071,0.79748 0.67249,1.90911 -0.86463,2.46493l0.02402,-0.02417zm-49.93266,-36.97399l-7.58957,2.12661a5.11576,5.14736 0 0 1 -3.89086,-0.33832l-0.76856,-0.60415l-3.07426,-2.4166c-0.4083,-0.31416 -0.36026,-0.70081 0,-1.03914a2.66596,2.68243 0 0 1 1.44106,-0.79748l7.44547,-1.98161a5.13977,5.17153 0 0 1 3.74675,0.31416l3.98693,2.89992a0.62446,0.62832 0 0 1 0,1.0633a2.40176,2.4166 0 0 1 -1.29695,0.77331zm6.84503,13.04964l7.87778,-2.4166a5.42799,5.46152 0 0 1 4.15505,0.36249l4.80353,3.50407a0.8166,0.82164 0 0 1 0.24018,1.2808a2.25766,2.2716 0 0 1 -1.39302,0.96664l-8.04591,2.4166a5.40397,5.43735 0 0 1 -4.32317,-0.38666l-0.91267,-0.72498l-3.69872,-2.94825a0.76856,0.77331 0 0 1 -0.14411,-1.25663a2.40176,2.4166 0 0 1 1.44106,-0.79748z"/>
    <path stroke="null" id="svg_2086" fill="#58b0e3" d="m285.73688,272.27652l-0.28821,0.31416l0.38428,0l-0.09607,-0.31416z"/>
    <path stroke="null" id="svg_2087" fill="#478db5" d="m256.93974,275.44227l-0.67249,-0.67665l-2.01748,-2.00578l-3.89086,-0.19333l0.24018,0.16916l2.66596,2.70659l0,0l0.67249,0.70081c0.38428,0.36249 0.26419,0.82164 -0.24018,1.23247a3.50657,3.52824 0 0 1 -1.72927,0.94247l-8.91054,2.4166a4.80353,4.8332 0 0 1 -4.13103,-0.36249l-0.62446,-0.72498l-2.40176,-2.85159c-0.33625,-0.36249 -0.16812,-0.82164 0.36026,-1.23247a3.79479,3.81823 0 0 1 1.80132,-0.91831l8.69438,-2.4166l0,0l-5.452,-0.28999l-12.36908,3.06908l17.86912,21.29025l0.31223,0l5.81227,-0.99081a1.99346,2.00578 0 0 1 0.45634,-0.60415a3.8188,3.8424 0 0 1 1.89739,-1.11164l9.34286,-2.82742a5.0437,5.07486 0 0 1 4.39523,0.43499l3.2664,3.31074l0,0l0.8166,0.84581a0.84062,0.84581 0 0 1 0.28821,0.79748l11.33632,2.22327l0,0l6.70092,-2.17494a10.80794,10.8747 0 0 1 -1.17686,-1.2083l-0.19214,0.19333l-1.05678,0.96664a31.82337,32.01996 0 0 1 -3.77077,-2.58576l-4.44326,1.40163a5.09174,5.12319 0 0 1 -4.51532,-0.43499l-0.84062,-0.82164l-3.31443,-3.28658a0.93669,0.94247 0 0 1 0.12009,-1.42579a3.53059,3.5524 0 0 1 1.75329,-1.0633l3.33845,-0.99081l-6.77297,-2.10244l-0.14411,0a5.01969,5.0507 0 0 1 -4.27514,-0.41082l-0.74455,-0.72498l-4.46728,-0.65248l1.36901,1.37746l0,0l0.74455,0.74915c0.4083,0.43499 0.28821,0.91831 -0.19214,1.37746a3.43452,3.45574 0 0 1 -1.80132,1.03914l-9.22277,2.73076a4.92362,4.95403 0 0 1 -4.34719,-0.41082l-0.69651,-0.79748l-2.78605,-3.14158c-0.38428,-0.41082 -0.21616,-0.91831 0.31223,-1.3533a3.69872,3.72157 0 0 1 1.84936,-1.01497l6.24458,-1.76412l-3.19435,-0.45915l13.47389,-4.44655l6.19655,0.21749l1.34499,-0.36249c-0.74455,-1.08747 -1.46508,-2.10244 -2.11355,-3.06908l-7.0852,1.95745a4.80353,4.8332 0 0 1 -4.083,-0.24166z"/>
    <path stroke="null" id="svg_2088" fill="#fff" d="m299.16274,289.04773l0.50437,0l0.69651,-0.26583a5.11576,5.14736 0 0 1 -4.083,-0.50749l-0.79258,-0.70081a2.81006,2.82742 0 0 0 0,0.26583l0.74455,0.67665a4.46728,4.49488 0 0 0 2.93015,0.53165z"/>
    <path stroke="null" id="svg_2089" fill="#fff" d="m291.69326,283.17539l0,0l0,0s-0.02402,0.02417 0,0z"/>
    <polygon stroke="null" id="svg_2090" fill="#00475a" points="295.4880065917969,287.4528579711914 295.4880065917969,287.4528579711914 296.3045959472656,288.1536331176758 295.4880065917969,287.4528579711914 "/>
    <path stroke="null" id="svg_2091" fill="#00475a" d="m297.45749,286.02698a3.29042,3.31074 0 0 1 -0.86463,-0.50749c-1.29695,-1.11164 -0.33625,-2.63409 2.11355,-3.38324a8.47822,8.5306 0 0 1 6.79699,0.62832a1.72927,1.73995 0 0 1 0.45634,0.60415a30.02204,30.20751 0 0 1 3.50657,-0.36249l-3.65068,-2.94825a5.23584,5.26819 0 0 0 -4.2271,-0.38666l-8.3101,2.4166a2.81006,2.82742 0 0 0 -1.58516,0.99081s0,0 0,0l0.26419,0.24166c2.25766,2.07828 3.74675,3.40741 3.74675,3.40741a2.08953,2.10244 0 0 1 0,0.38666a14.79486,14.88626 0 0 1 1.75329,-1.08747z"/>
    <path stroke="null" id="svg_2092" fill="#00475a" d="m302.04486,283.82787a1.82534,1.83662 0 0 0 -1.41704,-0.12083c-0.52839,0.16916 -0.72053,0.48332 -0.43232,0.70081a1.15285,1.15997 0 0 0 0.55241,0.21749l1.39302,-0.43499a0.31223,0.31416 0 0 0 -0.09607,-0.36249z"/>
    <path stroke="null" id="svg_2093" fill="#00475a" d="m299.33087,282.66791c-1.80132,0.55582 -2.40176,1.66745 -1.56115,2.4166a2.40176,2.4166 0 0 0 0.67249,0.38666l1.03276,-0.43499a2.78605,2.80326 0 0 1 -0.52839,-0.31416c-0.62446,-0.50749 -0.16812,-1.23247 0.98472,-1.59496a4.01094,4.03572 0 0 1 3.24238,0.28999a0.79258,0.79748 0 0 1 0.26419,0.38666a11.5765,11.64802 0 0 1 1.24892,-0.26583a1.27293,1.2808 0 0 0 -0.36026,-0.45915a6.14851,6.1865 0 0 0 -4.99567,-0.41082z"/>
    <path stroke="null" id="svg_2094" fill="#006c8e" d="m300.36362,288.66108c3.84282,-1.54662 8.09394,-4.95403 8.93456,-4.56738l1.29695,0.94247a0.86463,0.86998 0 0 0 -0.19214,-1.30496l-0.93669,-0.72498l0,0a30.02204,30.20751 0 0 0 -3.50657,0.36249c0.50437,0.99081 -0.43232,2.15077 -2.40176,2.77909a9.34286,9.40058 0 0 1 -6.02843,0a14.79486,14.88626 0 0 0 -1.92141,1.2808l0,0.145l0.79258,0.70081a5.11576,5.14736 0 0 0 3.96291,0.38666z"/>
    <path stroke="null" id="svg_2095" fill="#006c8e" d="m302.21298,285.08451a4.61139,4.63987 0 0 1 -2.73801,0l-1.03276,0.43499a6.98913,7.03231 0 0 0 4.39523,0c1.48909,-0.45915 2.1856,-1.30496 1.84936,-2.02994a11.5765,11.64802 0 0 0 -1.24892,0.26583c0.14411,0.53165 -0.31223,1.03914 -1.2249,1.32913z"/>
    <path stroke="null" id="svg_2096" fill="#006c8e" d="m302.04486,284.19036l-1.39302,0.43499a2.5939,2.60993 0 0 0 0.86463,0a0.84062,0.84581 0 0 0 0.52839,-0.43499z"/>
    <path stroke="null" id="svg_2097" fill="#a4c660" d="m353.8509,298.59331l-5.83629,-4.27738a5.64414,5.67901 0 0 0 -4.6354,-0.43499l-8.35814,2.89992c-1.56115,0.55582 -2.01748,1.64329 -1.00874,2.4166l5.69218,4.49488a5.66816,5.70318 0 0 0 4.80353,0.48332l8.50224,-3.14158c1.58516,-0.50749 1.87338,-1.61912 0.84062,-2.44077z"/>
    <path stroke="null" id="svg_2098" fill="#fff" d="m291.35701,314.34954a5.33191,5.36485 0 0 0 -4.97165,-0.50749l-10.08741,3.50407c-1.89739,0.67665 -2.73801,1.98161 -1.87338,2.97242l4.80353,5.46152a5.21183,5.24402 0 0 0 5.21183,0.57998l10.32758,-3.79406c1.87338,-0.67665 2.61792,-2.05411 1.6332,-3.02075l-5.0437,-5.19569zm-3.29042,8.38561a8.11796,8.16811 0 0 1 -7.94984,-0.89414c-1.41704,-1.54662 -0.12009,-3.60074 2.78605,-4.63987a8.19001,8.24061 0 0 1 7.80573,0.84581c1.46508,1.40163 0.31223,3.5524 -2.64194,4.59154l0,0.09666z"/>
    <path stroke="null" id="svg_2099" fill="#b3b3b3" d="m282.83075,317.10447c-2.90613,1.03914 -4.20309,3.09325 -2.78605,4.63987a8.11796,8.16811 0 0 0 7.94984,0.89414c2.95417,-1.08747 4.10702,-3.18991 2.64194,-4.68821a8.19001,8.24061 0 0 0 -7.80573,-0.84581zm3.65068,3.89073a3.38649,3.40741 0 0 1 -3.33845,-0.36249c-0.60044,-0.65248 0,-1.52246 1.15285,-1.95745a3.45854,3.47991 0 0 1 3.33845,0.36249c0.67249,0.62832 0.16812,1.52246 -1.08079,1.95745l-0.07205,0z"/>
    <path stroke="null" id="svg_2100" fill="#33b6b1" d="m284.36788,318.67526c-1.2249,0.43499 -1.75329,1.30496 -1.15285,1.95745a3.38649,3.40741 0 0 0 3.33845,0.36249c1.24892,-0.43499 1.75329,-1.32913 1.15285,-1.95745a3.45854,3.47991 0 0 0 -3.33845,-0.36249z"/>
    <path stroke="null" id="svg_2101" fill="#fff" d="m308.67373,279.333l3.69872,2.94825l0.91267,0.72498a5.40397,5.43735 0 0 0 4.32317,0.38666l8.04591,-2.4166a2.25766,2.2716 0 0 0 1.39302,-0.96664a2.64194,2.65826 0 0 1 -1.24892,0.74915l-8.04591,2.4166a5.25986,5.29236 0 0 1 -4.29916,-0.38666l-0.93669,-0.72498l0,0l-3.69872,-2.92409a0.79258,0.79748 0 0 1 -0.28821,-1.0633a0.76856,0.77331 0 0 0 0.14411,1.25663z"/>
    <path stroke="null" id="svg_2102" fill="#231f20" d="m308.81783,279.13967l3.69872,2.92409a14.19442,14.28211 0 0 1 2.88212,-1.81245a2.88212,2.89992 0 0 1 -0.76856,-0.38666c-1.03276,-0.79748 -0.43232,-1.88495 1.32097,-2.4166a6.46074,6.50066 0 0 1 5.01969,0.43499a1.48909,1.49829 0 0 1 0.45634,0.53165a37.49153,37.72314 0 0 1 4.39523,-0.50749l0.98472,0.70081l-4.80353,-3.50407a5.42799,5.46152 0 0 0 -4.15505,-0.36249l-7.87778,2.4166a2.40176,2.4166 0 0 0 -1.46508,0.94247a0.79258,0.79748 0 0 0 0.31223,1.03914z"/>
    <path stroke="null" id="svg_2103" fill="#57657b" d="m321.42709,278.41469c0.31223,0.70081 -0.33625,1.44996 -1.70525,1.88495a6.96511,7.00814 0 0 1 -4.32317,0a14.19442,14.28211 0 0 0 -2.88212,1.81245l0,0l0.93669,0.72498a5.25986,5.29236 0 0 0 4.29916,0.38666l8.04591,-2.4166a2.64194,2.65826 0 0 0 1.24892,-0.74915a0.8166,0.82164 0 0 0 -0.24018,-1.2808l-0.98472,-0.70081a37.49153,37.72314 0 0 0 -4.39523,0.33832z"/>
    <path stroke="null" id="svg_2104" fill="#fed734" d="m319.72184,280.29964c1.36901,-0.43499 2.01748,-1.18413 1.70525,-1.88495a1.48909,1.49829 0 0 0 -0.45634,-0.53165a6.46074,6.50066 0 0 0 -5.01969,-0.43499c-1.75329,0.53165 -2.40176,1.61912 -1.32097,2.4166a2.88212,2.89992 0 0 0 0.76856,0.38666a6.96511,7.00814 0 0 0 4.32317,0.04833z"/>
    <path stroke="null" id="svg_2105" fill="#fff" d="m281.89406,270.00492l0,-0.12083l-2.13757,0.60415a7.42145,7.4673 0 0 1 -1.27293,0.21749l0.14411,0.145a6.17253,6.21066 0 0 0 0.96071,-0.19333l2.30569,-0.65248z"/>
    <path stroke="null" id="svg_2106" fill="#2888ab" d="m276.80232,264.32591l-3.2664,0.86998l-0.28821,0c0.88865,1.01497 1.96945,2.15077 3.14631,3.38324a22.79274,22.93354 0 0 1 3.84282,-1.52246c-0.93669,-0.65248 -2.20962,-1.61912 -3.43452,-2.73076z"/>
    <path stroke="null" id="svg_2107" fill="#92c5eb" d="m281.79799,269.88409c-0.64848,-0.72498 -1.24892,-1.42579 -1.60918,-1.88495l0.57642,-0.41082l-0.52839,-0.43499a22.79274,22.93354 0 0 0 -3.84282,1.52246l1.99346,2.02994a7.42145,7.4673 0 0 0 1.27293,-0.21749l2.13757,-0.60415z"/>
    <path stroke="null" id="svg_2108" fill="#fff" d="m243.27371,280.51713a4.80353,4.8332 0 0 1 -4.10702,-0.38666l-0.62446,-0.70081l0,0l-2.52185,-2.85159c-0.28821,-0.31416 -0.21616,-0.67665 0.12009,-1.03914c-0.52839,0.41082 -0.69651,0.86998 -0.36026,1.23247l2.40176,2.85159l0.62446,0.72498a4.80353,4.8332 0 0 0 4.13103,0.36249l8.91054,-2.4166a3.50657,3.52824 0 0 0 1.72927,-0.94247a4.2271,4.25322 0 0 1 -1.51311,0.74915l-8.79045,2.4166z"/>
    <path stroke="null" id="svg_2109" fill="#f8991d" d="m237.94179,274.69312a3.79479,3.81823 0 0 0 -1.80132,0.91831c-0.33625,0.36249 -0.4083,0.72498 -0.12009,1.03914l2.52185,2.85159a33.24041,33.44576 0 0 1 14.72281,-4.05989l-2.66596,-2.70659l-0.24018,-0.16916a5.452,5.48568 0 0 0 -3.69872,-0.19333l0,0l-8.7184,2.31994z"/>
    <path stroke="null" id="svg_2110" fill="#a37529" d="m238.54223,279.50216l0,0l0.62446,0.70081a4.80353,4.8332 0 0 0 4.10702,0.38666l8.91054,-2.4166a4.2271,4.25322 0 0 0 1.51311,-0.74915c0.50437,-0.41082 0.62446,-0.86998 0.24018,-1.23247l-0.67249,-0.70081l0,0a33.24041,33.44576 0 0 0 -14.72281,4.01156z"/>
    <path stroke="null" id="svg_2111" fill="#fff" d="m321.66727,296.08004l-8.76644,2.97242a5.25986,5.29236 0 0 1 -4.65942,-0.45915l-0.98472,-0.84581l0,0l-3.91487,-3.43157s0,0 0,0l-0.21616,0.16916a0.48035,0.48332 0 0 0 0.14411,0.16916l3.91487,3.43157l0.96071,0.86998a5.452,5.48568 0 0 0 4.68344,0.45915l8.76644,-2.99659a2.40176,2.4166 0 0 0 1.53713,-1.11164a2.8581,2.87576 0 0 1 -1.46508,0.77331z"/>
    <path stroke="null" id="svg_2112" fill="#617182" d="m303.24574,294.21926s0,0 0,0l3.91487,3.43157c4.51532,-4.01156 12.00882,-4.8332 14.41058,-4.8332l1.03276,0.82164l-5.09174,-4.08406a5.40397,5.43735 0 0 0 -4.44326,-0.41082l-4.68344,1.52246l0,0a58.72312,59.08589 0 0 0 -5.13977,3.5524z"/>
    <path stroke="null" id="svg_2113" fill="#92a9bb" d="m307.25668,297.7475l0,0l0.98472,0.84581a5.25986,5.29236 0 0 0 4.65942,0.45915l8.76644,-2.97242a2.8581,2.87576 0 0 0 1.36901,-0.86998a1.00874,1.01497 0 0 0 -0.24018,-1.49829l-1.03276,-0.82164c-2.40176,0.12083 -9.99134,0.84581 -14.50665,4.85737z"/>
    <path stroke="null" id="svg_2114" fill="#fff" d="m315.01438,314.92953l-9.60705,3.57657a5.452,5.48568 0 0 1 -5.09174,-0.55582l-1.03276,-1.01497l0,0l-4.13103,-4.10822a1.15285,1.15997 0 0 1 -0.26419,-1.47413a1.2249,1.23247 0 0 0 0,1.76412l4.13103,4.10822l1.03276,1.01497a5.37995,5.41319 0 0 0 5.09174,0.55582l9.60705,-3.5524a2.83408,2.85159 0 0 0 1.70525,-1.3533a3.07426,3.09325 0 0 1 -1.44106,1.03914z"/>
    <path stroke="null" id="svg_2115" fill="#b8bd4d" d="m295.10376,312.82709l4.13103,4.10822c5.06772,-4.8332 13.40184,-5.65485 16.01976,-5.79984l1.08079,0.96664l-5.37995,-4.8332a5.40397,5.43735 0 0 0 -4.80353,-0.48332l-9.43893,3.28658a3.2664,3.28658 0 0 0 -1.82534,1.30496a1.15285,1.15997 0 0 0 0.21616,1.44996z"/>
    <path stroke="null" id="svg_2116" fill="#d5e05b" d="m316.45544,312.10211l-1.08079,-0.96664c-2.61792,0.145 -10.95204,0.99081 -16.01976,5.79984l0,0l1.03276,1.01497a5.452,5.48568 0 0 0 5.09174,0.55582l9.60705,-3.57657a3.07426,3.09325 0 0 0 1.53713,-1.03914a1.2249,1.23247 0 0 0 -0.16812,-1.78828z"/>
    <path stroke="null" id="svg_2117" fill="#ededed" d="m335.28526,303.95816l1.17686,0.94247l-5.59611,-4.54321a5.54807,5.58235 0 0 0 -4.80353,-0.45915l-8.86251,3.09325c-1.65722,0.57998 -2.23364,1.73995 -1.24892,2.60993l4.32317,3.7699l15.01102,-5.41319z"/>
    <path stroke="null" id="svg_2118" fill="#ed1c24" d="m335.28526,303.95816l-14.987,5.41319l0,0l1.12883,0.99081a5.47602,5.50985 0 0 0 4.97165,0.50749l9.05465,-3.31074c1.6332,-0.60415 2.08953,-1.78828 1.00874,-2.65826l-1.17686,-0.94247z"/>
    <path stroke="null" id="svg_2119" fill="#fff" d="m325.77428,292.89013a5.47602,5.50985 0 0 0 4.58737,0.43499l8.26207,-2.80326a2.06552,2.07828 0 0 0 1.39302,-1.08747a2.40176,2.4166 0 0 1 -1.24892,0.84581l-8.26207,2.80326a5.47602,5.50985 0 0 1 -4.58737,-0.43499l-1.00874,-0.79748l0,0l-4.083,-3.23825a0.88865,0.89414 0 0 1 -0.38428,-1.15997a0.88865,0.89414 0 0 0 0.21616,1.37746l4.10702,3.26241l1.00874,0.79748z"/>
    <path stroke="null" id="svg_2120" fill="#005a77" d="m320.82665,288.61274l4.083,3.23825c4.03496,-3.79406 11.36034,-4.47071 13.69005,-4.59154l1.05678,0.77331l-5.25986,-3.8424a5.47602,5.50985 0 0 0 -4.37121,-0.41082l-8.11796,2.63409a2.40176,2.4166 0 0 0 -1.46508,1.03914a0.88865,0.89414 0 0 0 0.38428,1.15997z"/>
    <path stroke="null" id="svg_2121" fill="#81c4e3" d="m324.90965,291.85099l0,0l1.00874,0.79748a5.47602,5.50985 0 0 0 4.58737,0.43499l8.26207,-2.80326a2.40176,2.4166 0 0 0 1.24892,-0.84581c0.31223,-0.45915 0.24018,-0.96664 -0.36026,-1.40163l-1.05678,-0.77331c-2.32971,0.12083 -9.65509,0.79748 -13.69005,4.59154z"/>
    <path stroke="null" id="svg_2122" fill="#fff" d="m298.70641,282.13625c-2.40176,0.74915 -3.4105,2.2716 -2.11355,3.38324a3.29042,3.31074 0 0 0 0.86463,0.50749a9.34286,9.40058 0 0 0 6.02843,0c2.0415,-0.62832 2.97819,-1.78828 2.40176,-2.77909a1.72927,1.73995 0 0 0 -0.45634,-0.60415a8.47822,8.5306 0 0 0 -6.72494,-0.50749zm4.13103,3.47991a6.98913,7.03231 0 0 1 -4.39523,0a2.40176,2.4166 0 0 1 -0.67249,-0.38666c-0.93669,-0.79748 -0.24018,-1.90911 1.56115,-2.4166a6.14851,6.1865 0 0 1 4.99567,0.45915a1.27293,1.2808 0 0 1 0.36026,0.45915c0.33625,0.57998 -0.24018,1.42579 -1.84936,1.88495z"/>
    <path stroke="null" id="svg_2123" fill="#fff" d="m302.21298,285.08451c0.91267,-0.28999 1.36901,-0.79748 1.2249,-1.23247a0.79258,0.79748 0 0 0 -0.26419,-0.38666a4.01094,4.03572 0 0 0 -3.24238,-0.28999c-1.15285,0.36249 -1.60918,1.08747 -0.98472,1.59496a2.78605,2.80326 0 0 0 0.52839,0.31416a4.61139,4.63987 0 0 0 2.73801,0zm-1.51311,-0.45915a1.15285,1.15997 0 0 1 -0.55241,-0.21749c-0.28821,-0.21749 0,-0.53165 0.43232,-0.70081a1.82534,1.83662 0 0 1 1.41704,0.12083a0.31223,0.31416 0 0 1 0,0.36249a0.84062,0.84581 0 0 1 -0.52839,0.36249a2.5939,2.60993 0 0 1 -0.76856,0.0725z"/>
    <path stroke="null" id="svg_2124" fill="#fff" d="m276.44206,294.36425l-4.13103,-4.10822a0.8166,0.82164 0 0 1 0,-1.18413a0.93669,0.94247 0 0 0 -0.12009,1.42579l3.31443,3.28658l0.84062,0.82164a5.09174,5.12319 0 0 0 4.51532,0.43499l4.44326,-1.40163l-0.14411,-0.12083l-4.10702,1.30496a5.16379,5.19569 0 0 1 -4.61139,-0.45915z"/>
    <path stroke="null" id="svg_2125" fill="#48448e" d="m273.96824,288.00859a3.53059,3.5524 0 0 0 -1.75329,1.0633a0.8166,0.82164 0 0 0 0,1.18413l4.13103,4.10822l-0.8166,-0.82164a20.12678,20.25112 0 0 1 6.00441,-3.02075c-1.24892,-1.18413 -2.40176,-2.4166 -3.60265,-3.72157l-0.72053,0.21749l-3.24238,0.99081z"/>
    <path stroke="null" id="svg_2126" fill="#8781bd" d="m276.44206,294.36425a5.16379,5.19569 0 0 0 4.51532,0.45915l4.10702,-1.30496l-0.55241,-0.43499c-0.98472,-0.79748 -1.94543,-1.66745 -2.88212,-2.5616a20.12678,20.25112 0 0 0 -6.00441,3.02075l0.8166,0.82164z"/>
    <path stroke="null" id="svg_2127" fill="#fff" d="m253.02487,296.3217l3.07426,3.47991l0.76856,0.89414a5.06772,5.09903 0 0 0 4.61139,0.45915l9.60705,-3.04492a3.45854,3.47991 0 0 0 1.82534,-1.1358a3.86684,3.89073 0 0 1 -1.60918,0.89414l-9.60705,3.02075a4.99567,5.02653 0 0 1 -4.61139,-0.45915l-0.76856,-0.86998l0,0l-3.09827,-3.47991a0.93669,0.94247 0 0 1 0,-1.2808a1.99346,2.00578 0 0 0 -0.45634,0.60415a0.84062,0.84581 0 0 0 0.26419,0.91831z"/>
    <path stroke="null" id="svg_2128" fill="#faa74a" d="m253.24102,296.08004l3.09827,3.47991a21.27962,21.41108 0 0 1 2.73801,-1.66745a1.15285,1.15997 0 0 1 0.67249,-0.84581l-0.24018,-0.24166a5.54807,5.58235 0 0 1 -5.06772,-0.57998l2.1856,-0.65248a5.95637,5.99317 0 0 0 4.6354,1.03914a0.88865,0.89414 0 0 0 0,0.33832l1.10481,-0.41082a1.65722,1.66745 0 0 1 0.48035,-0.41082l-0.24018,-0.24166a5.64414,5.67901 0 0 1 -5.0437,-0.57998l8.33412,-2.5616c0.84062,0.91831 0,2.10244 -1.89739,2.70659l0.21616,0.24166a5.47602,5.50985 0 0 1 0.88865,0l1.2249,-0.26583l-0.60044,-0.16916c1.34499,-0.79748 1.80132,-1.88495 0.98472,-2.75493l2.08953,-0.65248c0.84062,0.91831 0,2.10244 -1.84936,2.68243l0.24018,0.24166a3.86684,3.89073 0 0 1 1.6332,0.19333c1.48909,-0.21749 2.71399,-0.31416 3.45854,-0.36249l-3.2664,-3.31074a5.0437,5.07486 0 0 0 -4.39523,-0.43499l-9.34286,2.82742a3.8188,3.8424 0 0 0 -1.89739,1.11164a0.93669,0.94247 0 0 0 -0.14411,1.2808z"/>
    <path stroke="null" id="svg_2129" fill="#fed734" d="m268.7324,295.01674a1.15285,1.15997 0 0 1 0.52839,0.31416c0.52839,0.53165 0,1.23247 -1.05678,1.59496a3.86684,3.89073 0 0 1 -0.88865,0.16916a0.88865,0.89414 0 0 0 -0.16812,-1.11164a2.20962,2.22327 0 0 0 -0.91267,-0.50749l-1.2249,0.26583a2.40176,2.4166 0 0 1 1.29695,0.50749c0.50437,0.53165 0,1.25663 -1.10481,1.59496a3.14631,3.16575 0 0 1 -2.95417,-0.33832a0.64848,0.65248 0 0 1 0,-0.91831l-1.10481,0.41082a0.88865,0.89414 0 0 0 0.24018,0.77331a2.78605,2.80326 0 0 0 1.53713,0.70081a4.32317,4.34988 0 0 1 -0.74455,0.33832a3.19435,3.21408 0 0 1 -2.95417,-0.36249a0.62446,0.62832 0 0 1 -0.16812,-0.50749a21.27962,21.41108 0 0 0 -2.73801,1.66745l0,0l0.76856,0.86998a4.99567,5.02653 0 0 0 4.61139,0.45915l9.60705,-3.02075a3.86684,3.89073 0 0 0 1.60918,-0.89414a1.39302,1.40163 0 0 0 0.4083,-0.72498a0.84062,0.84581 0 0 0 -0.28821,-0.79748l-0.8166,-0.84581l0,0c-0.76856,0 -1.99346,0.09666 -3.48256,0.36249z"/>
    <path stroke="null" id="svg_2130" fill="#231f20" d="m262.24764,297.43334a3.14631,3.16575 0 0 0 2.95417,0.33832c1.12883,-0.33832 1.60918,-1.0633 1.10481,-1.59496a2.40176,2.4166 0 0 0 -1.29695,-0.50749a5.47602,5.50985 0 0 0 -0.88865,0l-0.21616,-0.24166c1.89739,-0.60415 2.73801,-1.78828 1.89739,-2.70659l-8.33412,2.5616a5.64414,5.67901 0 0 0 5.0437,0.57998l0.24018,0.24166a1.65722,1.66745 0 0 0 -0.48035,0.41082a0.64848,0.65248 0 0 0 -0.02402,0.91831z"/>
    <path stroke="null" id="svg_2131" fill="#231f20" d="m267.31536,297.04668a3.86684,3.89073 0 0 0 0.88865,-0.16916c1.10481,-0.36249 1.58516,-1.0633 1.05678,-1.59496a1.15285,1.15997 0 0 0 -0.52839,-0.31416a3.86684,3.89073 0 0 0 -1.6332,-0.19333l-0.24018,-0.24166c1.87338,-0.57998 2.68998,-1.76412 1.84936,-2.68243l-2.08953,0.65248c0.8166,0.86998 0.36026,1.95745 -0.98472,2.75493l0.60044,0.16916a2.20962,2.22327 0 0 1 0.91267,0.50749a0.88865,0.89414 0 0 1 0.16812,1.11164z"/>
    <path stroke="null" id="svg_2132" fill="#231f20" d="m259.24543,298.39998a3.19435,3.21408 0 0 0 2.95417,0.36249a4.32317,4.34988 0 0 0 0.74455,-0.33832a2.78605,2.80326 0 0 1 -1.53713,-0.70081a0.88865,0.89414 0 0 1 -0.24018,-0.77331a0.88865,0.89414 0 0 1 0,-0.33832a5.95637,5.99317 0 0 1 -4.6354,-1.03914l-2.1856,0.65248a5.54807,5.58235 0 0 0 5.06772,0.57998l0.24018,0.24166a1.15285,1.15997 0 0 0 -0.67249,0.84581a0.62446,0.62832 0 0 0 0.26419,0.50749z"/>
    <path stroke="null" id="svg_2133" fill="#fff" d="m252.01613,290.18354a4.80353,4.8332 0 0 1 -4.32317,-0.43499l-0.69651,-0.77331l0,0l-2.78605,-3.14158a0.76856,0.77331 0 0 1 0,-1.1358c-0.52839,0.43499 -0.69651,0.94247 -0.31223,1.3533l2.78605,3.14158l0.69651,0.79748a4.92362,4.95403 0 0 0 4.34719,0.41082l9.22277,-2.73076a3.43452,3.45574 0 0 0 1.80132,-1.03914a4.41924,4.44655 0 0 1 -1.58516,0.82164l-9.15072,2.73076z"/>
    <path stroke="null" id="svg_2134" fill="#32a9d5" d="m255.13842,281.16961l-2.76203,0.79748l-6.24458,1.76412a3.69872,3.72157 0 0 0 -1.84936,1.01497a0.76856,0.77331 0 0 0 0,1.1358l2.78605,3.14158a19.21411,19.33281 0 0 1 3.31443,-1.81245a2.40176,2.4166 0 0 1 -1.56115,-0.41082a2.83408,2.85159 0 0 1 -2.40176,-0.16916c-0.33625,-0.38666 0.19214,-0.91831 1.17686,-1.2083l8.06993,-2.4166l0,0l0.31223,0a3.72273,3.74573 0 0 1 3.29042,0.31416c0.55241,0.53165 0,1.2808 -1.39302,1.66745l-0.14411,0s0,0 0,0a37.39546,37.62648 0 0 1 4.58737,-0.53165l-1.36901,-1.37746l-1.60918,-1.61912a4.80353,4.8332 0 0 0 -4.20309,-0.28999z"/>
    <path stroke="null" id="svg_2135" fill="#81c4e3" d="m257.68429,285.08451c0.43232,0.67665 -0.36026,1.54662 -1.94543,2.02994a5.64414,5.67901 0 0 1 -3.98693,-0.16916l-0.26419,0a4.97165,5.00236 0 0 1 -1.17686,0.16916a19.21411,19.33281 0 0 0 -3.31443,1.81245l0,0l0.69651,0.77331a4.80353,4.8332 0 0 0 4.32317,0.43499l9.22277,-2.73076a4.41924,4.44655 0 0 0 1.58516,-0.82164c0.48035,-0.45915 0.60044,-0.94247 0.19214,-1.37746l-0.74455,-0.74915l0,0a37.39546,37.62648 0 0 0 -4.58737,0.62832z"/>
    <path stroke="null" id="svg_2136" fill="#fff" d="m251.75193,286.94529a5.64414,5.67901 0 0 0 3.98693,0.16916c1.58516,-0.48332 2.40176,-1.3533 1.94543,-2.02994c0,0 0,0 0,0l0.14411,0c1.32097,-0.38666 1.94543,-1.1358 1.39302,-1.66745a3.72273,3.74573 0 0 0 -3.29042,-0.31416l-0.31223,0l0,0l-8.06993,2.4166c-0.98472,0.28999 -1.51311,0.82164 -1.17686,1.2083a2.83408,2.85159 0 0 0 2.40176,0.16916a2.40176,2.4166 0 0 0 1.56115,0.41082a4.97165,5.00236 0 0 0 1.17686,-0.16916l0.24018,-0.19333zm2.23364,-2.15077l0.98472,-0.82164a0.45634,0.45915 0 0 1 0.21616,-0.12083l2.11355,0c0.26419,0 0.4083,0 0.36026,0.21749a0.72053,0.72498 0 0 1 -0.57642,0.21749l-0.91267,0l0.72053,0.74915c0.12009,0 0,0.24166 -0.24018,0.31416a0.74455,0.74915 0 0 1 -0.62446,0l-0.72053,-0.77331l-0.50437,0.43499a0.96071,0.96664 0 0 1 -0.64848,0c-0.14411,0.02417 -0.28821,-0.09666 -0.14411,-0.21749l-0.02402,0zm-3.31443,1.66745c-0.24018,0 -0.4083,0 -0.33625,-0.21749s0.31223,-0.21749 0.57642,-0.21749l0.91267,0l-0.69651,-0.77331s0,-0.24166 0.26419,-0.31416a0.74455,0.74915 0 0 1 0.62446,0l0.69651,0.77331l0.52839,-0.43499a0.91267,0.91831 0 0 1 0.64848,-0.145c0.21616,0 0.28821,0.16916 0.14411,0.28999l-0.98472,0.82164a0.45634,0.45915 0 0 1 -0.21616,0l-0.28821,0l-1.87338,0.21749z"/>
    <path stroke="null" id="svg_2137" fill="#32a9d5" d="m254.80217,284.93951l0.50437,-0.43499l0.72053,0.77331a0.74455,0.74915 0 0 0 0.62446,0c0.24018,0 0.36026,-0.19333 0.24018,-0.31416l-0.72053,-0.74915l0.91267,0a0.72053,0.72498 0 0 0 0.57642,-0.21749s0,-0.21749 -0.36026,-0.21749l-2.11355,0a0.45634,0.45915 0 0 0 -0.21616,0.12083l-0.98472,0.82164c-0.12009,0 0,0.24166 0.16812,0.26583a0.96071,0.96664 0 0 0 0.64848,-0.04833z"/>
    <path stroke="null" id="svg_2138" fill="#32a9d5" d="m252.83273,286.4378a0.45634,0.45915 0 0 0 0.21616,0l0.98472,-0.82164c0.14411,0 0,-0.24166 -0.14411,-0.28999a0.91267,0.91831 0 0 0 -0.64848,0.145l-0.52839,0.43499l-0.69651,-0.77331a0.74455,0.74915 0 0 0 -0.62446,0c-0.24018,0 -0.36026,0.21749 -0.26419,0.31416l0.69651,0.77331l-0.91267,0c-0.26419,0 -0.52839,0 -0.57642,0.21749s0,0.21749 0.33625,0.21749l1.87338,0l0.28821,-0.21749z"/>
    <path stroke="null" id="svg_2139" fill="#fff" d="m282.99887,309.25052a2.0415,2.05411 0 0 1 -0.52839,0.21749l-9.9433,3.38324a5.09174,5.12319 0 0 1 -4.80353,-0.50749l-0.86463,-0.96664l0,0l-3.45854,-3.89073c-0.62446,-0.74915 -0.12009,-1.69162 1.10481,-2.4166c-1.44106,0.62832 -2.0415,1.66745 -1.34499,2.4166l3.43452,3.89073l0.86463,0.96664a5.0437,5.07486 0 0 0 4.80353,0.53165l9.96732,-3.38324a3.43452,3.45574 0 0 0 0.76856,-0.24166z"/>
    <path stroke="null" id="svg_2140" fill="#68a74b" d="m263.30441,307.4864l3.45854,3.89073a19.71848,19.84029 0 0 1 2.81006,-1.88495l0.33625,0.36249l-0.33625,-0.36249a30.38231,30.57 0 0 1 9.05465,-3.09325l1.58516,1.66745l-1.58516,-1.66745a38.42822,38.66561 0 0 1 4.61139,-0.55582l0.91267,0.94247l-4.56335,-4.63987a5.13977,5.17153 0 0 0 -4.65942,-0.45915l-9.60705,3.14158l-0.8166,0.33832c-1.32097,0.62832 -1.82534,1.57079 -1.20088,2.31994zm5.59611,-0.94247l5.64414,-1.83662l-5.64414,1.83662zm1.84936,2.02994l5.66816,-1.88495l-5.66816,1.88495z"/>
    <path stroke="null" id="svg_2141" fill="#a4c660" d="m278.62766,306.39893l1.58516,1.66745l-1.58516,-1.66745a30.38231,30.57 0 0 0 -9.05465,3.09325l0.33625,0.36249l-0.33625,-0.36249a19.71848,19.84029 0 0 0 -2.81006,1.88495l0,0l0.86463,0.96664a5.09174,5.12319 0 0 0 4.80353,0.50749l9.9433,-3.38324a2.0415,2.05411 0 0 0 0.52839,-0.21749c1.41704,-0.65248 1.92141,-1.69162 1.15285,-2.4166l-0.91267,-0.94247a38.42822,38.66561 0 0 0 -4.51532,0.50749z"/>
    <line stroke="#bad9f2" id="svg_2142" stroke-width="0" stroke-linejoin="round" stroke-linecap="round" fill="none" y2="306.68892" x2="276.41804" y1="308.57387" x1="270.74988"/>
    <line stroke="#bad9f2" id="svg_2143" stroke-width="0" stroke-linejoin="round" stroke-linecap="round" fill="none" y2="306.54392" x2="268.90052" y1="304.70731" x1="274.54467"/>
    <path stroke="null" id="svg_2144" fill="#fff" d="m266.33064,284.33536l-3.74675,-3.81823a0.69651,0.70081 0 0 1 0,-1.0633c-0.48035,0.41082 -0.60044,0.89414 -0.19214,1.2808l3.0022,2.97242l0,0l0.74455,0.72498a5.01969,5.0507 0 0 0 4.27514,0.41082l0.14411,0l4.68344,-1.40163l0,0l-4.53933,1.3533a4.97165,5.00236 0 0 1 -4.37121,-0.45915z"/>
    <path stroke="null" id="svg_2145" fill="#1f6f5b" d="m264.26512,278.58385a3.31443,3.33491 0 0 0 -1.70525,0.96664a0.69651,0.70081 0 0 0 0,1.0633l3.74675,3.72157l-0.74455,-0.72498a21.88007,22.01523 0 0 1 7.20529,-3.14158c-0.93669,-1.2083 -1.80132,-2.4166 -2.61792,-3.5524l-1.34499,0.36249l-4.53933,1.30496z"/>
    <path stroke="null" id="svg_2146" fill="#26876c" d="m266.33064,284.33536a4.97165,5.00236 0 0 0 4.25112,0.41082l4.53933,-1.3533c-0.79258,-0.96664 -1.58516,-1.95745 -2.40176,-2.92409a21.88007,22.01523 0 0 0 -7.20529,3.14158l0.8166,0.72498z"/>
    <path stroke="null" id="svg_2147" fill="#fff" d="m303.31779,263.91508l-7.58957,2.10244a5.01969,5.0507 0 0 1 -3.89086,-0.31416l-0.76856,-0.60415l0,0l-3.07426,-2.4166a0.60044,0.60415 0 0 1 -0.16812,-0.86998c-0.36026,0.33832 -0.4083,0.72498 0,1.03914l3.07426,2.4166l0.76856,0.60415a5.11576,5.14736 0 0 0 3.89086,0.33832l7.58957,-2.12661a2.40176,2.4166 0 0 0 1.39302,-0.79748a2.66596,2.68243 0 0 1 -1.2249,0.62832z"/>
    <path stroke="null" id="svg_2148" fill="#a0462a" d="m287.99454,262.65845l3.07426,2.4166a26.65957,26.82427 0 0 1 12.58524,-3.45574l0.79258,0.57998l-3.98693,-2.89992a5.13977,5.17153 0 0 0 -3.74675,-0.31416l-7.44547,1.98161a2.66596,2.68243 0 0 0 -1.44106,0.79748a0.60044,0.60415 0 0 0 0.16812,0.89414z"/>
    <path stroke="null" id="svg_2149" fill="#cc5b29" d="m304.44662,262.22346l-0.79258,-0.57998a26.65957,26.82427 0 0 0 -12.58524,3.45574l0,0l0.76856,0.60415a5.01969,5.0507 0 0 0 3.89086,0.31416l7.58957,-2.10244a2.66596,2.68243 0 0 0 1.2249,-0.62832a0.62446,0.62832 0 0 0 -0.09607,-1.0633z"/>
    <path stroke="null" id="svg_2150" fill="#fff" d="m314.05368,271.88987l-7.80573,2.4166a5.18781,5.21986 0 0 1 -4.083,-0.36249l-0.84062,-0.65248l0,0l-0.96071,-0.74915l-0.19214,0.145l0.98472,0.79748l0.84062,0.65248a5.25986,5.29236 0 0 0 4.10702,0.36249l7.80573,-2.4166a2.40176,2.4166 0 0 0 1.39302,-0.86998a2.61792,2.63409 0 0 1 -1.24892,0.67665z"/>
    <path stroke="null" id="svg_2151" fill="#268e77" d="m300.33961,272.44568l0.96071,0.74915c4.05898,-3.14158 10.80794,-3.6974 12.92149,-3.79406l0.88865,0.65248l-4.34719,-3.18991a5.3079,5.34069 0 0 0 -3.93889,-0.33832l-4.29916,1.23247l0,0a10.54374,10.60888 0 0 1 -2.1856,4.68821z"/>
    <path stroke="null" id="svg_2152" fill="#39bb9d" d="m301.30031,273.26733l0,0l0.84062,0.65248a5.18781,5.21986 0 0 0 4.083,0.36249l7.80573,-2.4166a2.61792,2.63409 0 0 0 1.24892,-0.67665a0.69651,0.70081 0 0 0 -0.16812,-1.15997l-0.88865,-0.65248c-2.11355,0.12083 -8.86251,0.67665 -12.92149,3.89073z"/>
    <path stroke="null" id="svg_2153" fill="#fff" d="m289.50765,279.30883l8.23805,-2.4166a2.83408,2.85159 0 0 0 1.48909,-0.91831a3.07426,3.09325 0 0 1 -1.32097,0.70081l-8.23805,2.4166a6.91708,6.95981 0 0 1 -2.40176,0.24166l0.24018,0.21749a7.3494,7.3948 0 0 0 1.99346,-0.24166z"/>
    <path stroke="null" id="svg_2154" fill="#4d6e7d" d="m296.04045,274.23397c0.96071,-0.12083 1.7773,-0.16916 2.40176,-0.19333l-0.55241,-0.45915l-1.84936,0.65248z"/>
    <path stroke="null" id="svg_2155" fill="#4d6e7d" d="m285.83295,272.46985l-0.38428,0l-0.64848,0.67665l-0.36026,-0.38666l-1.48909,0.41082a3.62666,3.64907 0 0 0 -1.29695,0.62832l3.79479,3.60074a16.45208,16.55372 0 0 1 2.5939,-1.32913a39.60508,39.84975 0 0 1 -2.20962,-3.60074z"/>
    <path stroke="null" id="svg_2156" fill="#809194" d="m289.67578,279.09134l8.23805,-2.4166a3.07426,3.09325 0 0 0 1.32097,-0.70081a0.74455,0.74915 0 0 0 0,-1.23247l-0.84062,-0.67665l0,0c-0.52839,0 -1.34499,0 -2.40176,0.19333l-2.25766,0.77331l-3.84282,3.06908l-0.69651,0.28999l-0.52839,-1.64329c-0.12009,0 -0.33625,-0.21749 -0.62446,-0.57998a16.45208,16.55372 0 0 0 -2.5939,1.32913l1.92141,1.81245a6.91708,6.95981 0 0 0 2.30569,-0.21749z"/>
    <path stroke="null" id="svg_2157" fill="#fff" d="m257.1559,275.24894l-0.67249,-0.67665l0,0l-2.73801,-2.70659c-0.31223,-0.28999 -0.26419,-0.62832 0,-0.96664c-0.45634,0.38666 -0.60044,0.82164 -0.24018,1.15997l0.72053,0.70081l2.01748,2.00578l0.67249,0.67665a4.80353,4.8332 0 0 0 4.05898,0.36249l7.0852,-1.95745l0,0l-6.84503,1.83662a4.80353,4.8332 0 0 1 -4.05898,-0.43499z"/>
    <path stroke="null" id="svg_2158" fill="#231f20" d="m255.45065,270.02908a3.62666,3.64907 0 0 0 -1.68123,0.86998c-0.28821,0.33832 -0.33625,0.67665 0,0.96664l2.64194,2.70659a26.0111,26.17179 0 0 1 9.87125,-3.40741c-0.91267,-1.44996 -1.6332,-2.63409 -2.13757,-3.45574l-0.52839,0l-8.166,2.31994z"/>
    <path stroke="null" id="svg_2159" fill="#4e5b70" d="m256.41135,274.57229l0,0l0.67249,0.67665a4.80353,4.8332 0 0 0 4.13103,0.43499l6.82101,-1.88495l-1.65722,-2.5616a26.0111,26.17179 0 0 0 -9.96732,3.33491z"/>
    <path stroke="null" id="svg_2160" fill="#fff" d="m301.8287,302.82236l-9.3909,3.18991a5.25986,5.29236 0 0 1 -4.80353,-0.50749l-4.61139,-4.56738a0.93669,0.94247 0 0 1 -0.16812,-1.30496a1.03276,1.03914 0 0 0 0,1.57079l3.69872,3.64907l0.91267,0.91831a5.28388,5.31652 0 0 0 4.80353,0.50749l9.36688,-3.18991a2.95417,2.97242 0 0 0 1.70525,-1.2083a3.48256,3.50407 0 0 1 -1.51311,0.94247z"/>
    <path stroke="null" id="svg_2161" fill="#ffcb05" d="m282.83075,299.63244a0.93669,0.94247 0 0 0 0.16812,1.30496l4.61139,4.56738l-0.93669,-0.89414a22.43247,22.57105 0 0 1 9.41491,-4.32572c-0.24018,-0.26583 -0.52839,-0.60415 -0.79258,-0.94247l0,0s-2.40176,-1.64329 -3.93889,-3.11742l-6.70092,2.17494l0,0a3.17033,3.18991 0 0 0 -1.82534,1.23247z"/>
    <path stroke="null" id="svg_2162" fill="#ffcb05" d="m297.24133,300.04327a33.62469,33.83241 0 0 1 4.80353,-0.62832l0.96071,0.86998l-3.36247,-3.04492c-0.64848,0.96664 -1.6332,2.10244 -2.40176,2.80326z"/>
    <path stroke="null" id="svg_2163" fill="#f4f3ae" d="m297.24133,300.04327c-0.36026,0.36249 -0.62446,0.60415 -0.69651,0.57998s-0.24018,-0.145 -0.45634,-0.33832a22.43247,22.57105 0 0 0 -9.41491,4.32572l0.93669,0.89414a5.25986,5.29236 0 0 0 4.80353,0.50749l9.34286,-3.18991a3.48256,3.50407 0 0 0 1.51311,-0.94247a1.05678,1.0633 0 0 0 -0.12009,-1.59496l-0.96071,-0.86998a33.62469,33.83241 0 0 0 -4.94763,0.62832z"/>
    <path stroke="null" id="svg_2164" fill="#4d6e7d" d="m283.33512,352.846l-27.47617,-34.38823a0.4083,0.41082 0 0 0 -0.55241,0l0,0a0.38428,0.38666 0 0 0 0,0.53165l27.52421,34.3399c0.16812,0.21749 3.0022,3.7699 10.32758,3.7699a35.35396,35.57237 0 0 0 13.06559,-2.89992c16.98047,-6.76648 39.53303,-16.67455 39.7732,-16.77121a0.38428,0.38666 0 0 0 -0.31223,-0.72498c-0.21616,0 -20.41499,8.96559 -36.96314,15.65957l-2.78605,1.11164c-16.78833,6.62149 -22.55256,-0.45915 -22.60059,-0.62832z"/>
    <path stroke="null" id="svg_2165" fill="#828b71" d="m170.95661,233.34508a2.40176,2.4166 0 0 1 0,0.99081l0.96071,-1.32913l-0.96071,0.33832z"/>
    <path stroke="null" id="svg_2166" fill="#828b71" d="m170.93259,234.33589l-0.98472,-0.62832l-0.14411,0l0.67249,1.30496l2.40176,1.83662s1.15285,-0.57998 0.45634,-1.15997a9.29482,9.35225 0 0 1 -1.34499,-1.40163a0.69651,0.70081 0 0 1 -1.05678,0.04833z"/>
    <path stroke="null" id="svg_2167" fill="#828b71" d="m172.08544,234.36005l1.15285,-0.82164l0,0a6.1245,6.16233 0 0 0 -1.15285,0.82164z"/>
    <path stroke="null" id="svg_2168" fill="#a6b18f" d="m169.94787,233.70757l-1.41704,-0.86998l-0.48035,0.79748l2.25766,3.33491s1.15285,0 0.67249,-0.89414l-0.50437,-0.99081l-0.67249,-1.30496l0.14411,-0.0725z"/>
    <path stroke="null" id="svg_2169" fill="#a6b18f" d="m172.34963,232.33011a12.00882,12.083 0 0 1 -0.84062,-1.86078s-2.40176,1.18413 -1.24892,1.78828a1.46508,1.47413 0 0 1 0.67249,1.08747l0.93669,-0.33832l0.48035,-0.67665z"/>
    <path stroke="null" id="svg_2170" fill="#c7d3a9" d="m181.95669,228.02856l-1.03276,0.43499l-4.80353,0.72498l-0.60044,-0.21749a9.60705,9.6664 0 0 0 -4.41924,-0.62832a19.45428,19.57447 0 0 0 -4.083,3.60074l1.44106,0.89414l1.41704,0.86998l0.98472,0.62832a2.40176,2.4166 0 0 0 0,-0.99081a1.46508,1.47413 0 0 0 -0.67249,-1.08747c-1.05678,-0.60415 1.24892,-1.78828 1.24892,-1.78828a12.00882,12.083 0 0 0 0.84062,1.86078l0.14411,-0.16916l3.36247,-2.17494s2.56989,0.74915 1.12883,2.22327a3.69872,3.72157 0 0 1 -3.31443,1.01497a3.79479,3.81823 0 0 0 -0.50437,0.28999l0,0a3.09827,3.11742 0 0 0 4.05898,1.08747l2.11355,-1.03914l2.90613,-1.42579l-0.21616,-4.10822z"/>
    <path stroke="null" id="svg_2171" fill="#f4f7de" d="m173.69462,233.22425a3.69872,3.72157 0 0 0 3.31443,-1.01497c1.44106,-1.47413 -1.12883,-2.22327 -1.12883,-2.22327l-3.36247,2.17494l-0.14411,0.16916l-0.48035,0.67665l-0.96071,1.32913a0.69651,0.70081 0 0 0 1.15285,0a6.1245,6.16233 0 0 1 1.10481,-0.84581a3.79479,3.81823 0 0 1 0.50437,-0.26583z"/>
    <path stroke="null" id="svg_2172" fill="#a6b18f" d="m308.52962,227.90773l1.6332,1.76412c1.48909,0.31416 4.68344,0.94247 5.06772,0.89414s-0.24018,-0.60415 -0.24018,-0.60415l-3.84282,-1.71579c1.80132,0.41082 3.69872,0.84581 3.89086,0.84581s0.21616,-0.55582 0.21616,-0.55582l-6.98913,-2.4166l0.26419,1.78828z"/>
    <path stroke="null" id="svg_2173" fill="#e6f0cb" d="m299.49899,222.51871l-0.93669,0.74915l0,0l-0.14411,0l1.80132,4.03572l5.52406,5.70318a1.05678,1.0633 0 0 0 0,-1.08747a10.23151,10.29472 0 0 1 -1.53713,-3.02075a9.96732,10.02889 0 0 1 -0.16812,-2.15077l5.13977,4.32572l5.13977,2.75493s0.72053,-0.62832 0.19214,-1.25663s-4.25112,-2.80326 -4.25112,-2.80326l0,0l-1.6332,-1.76412l-0.26419,-1.86078s-3.14631,-2.05411 -4.53933,-2.92409a14.41058,14.49961 0 0 1 -2.1856,-1.95745c-0.62446,0.41082 -1.34499,0.89414 -2.0415,1.42579l-0.09607,-0.16916z"/>
    <path stroke="null" id="svg_2174" fill="#5e535d" d="m279.85256,207.60828c1.08079,0.31416 15.27522,11.50302 19.64643,14.98293c0.69651,-0.53165 1.41704,-1.01497 2.0415,-1.42579c1.2249,-0.77331 2.16159,-1.25663 2.16159,-1.25663l-21.18355,-17.90701l-6.50878,-2.15077a10.32758,10.39138 0 0 1 3.84282,7.75729z"/>
    <path stroke="null" id="svg_2175" fill="#5e535d" d="m296.95312,224.93531l-0.14411,0.16916l0.14411,-0.16916z"/>
    <polygon stroke="null" id="svg_2176" fill="#5e535d" points="269.45294189453125,207.82575225830078 277.8111572265625,209.2273941040039 269.45294189453125,207.82575225830078 269.45294189453125,207.82575225830078 "/>
    <path stroke="null" id="svg_2177" fill="#5e535d" d="m297.62561,224.21033l0,0z"/>
    <path stroke="null" id="svg_2178" fill="#5e535d" d="m298.49025,223.41285l0,0z"/>
    <path stroke="null" id="svg_2179" fill="#4b424b" d="m269.45293,207.82578l8.35814,1.40163s15.22718,13.91962 18.49358,16.67455a7.01315,7.05647 0 0 1 0.50437,-0.77331l0.14411,-0.16916a9.41491,9.47308 0 0 1 0.67249,-0.74915l0,0l0.67249,-0.62832l0.14411,0l0,0l0.93669,-0.74915l0,0c-4.37121,-3.47991 -18.56563,-14.66877 -19.64643,-14.98293a10.32758,10.39138 0 0 0 -3.84282,-7.75729l0,0l-3.19435,-1.0633c-0.21616,2.07828 -1.70525,7.97478 -3.24238,8.79643z"/>
    <path stroke="null" id="svg_2180" fill="#ece09c" d="m248.4375,215.26891a2.8581,2.87576 0 0 0 2.71399,0.60415l0.14411,-3.47991l2.83408,0.41082a7.73368,7.78145 0 0 1 -1.05678,4.10822c-0.19214,1.61912 -3.17033,2.5616 -5.37995,1.42579a46.37805,46.66456 0 0 1 -3.98693,10.24639a19.35821,19.4778 0 0 0 3.53059,-1.2808l0,0l0.8166,-0.41082l0,0l0.79258,-0.41082l0.16812,0l0.72053,-0.43499l0.28821,-0.19333l0.64848,-0.41082l0.38428,-0.31416l0.55241,-0.41082l0.50437,-0.38666l0.48035,-0.41082l0.60044,-0.55582l0.36026,-0.33832c0.33625,-0.31416 0.64848,-0.65248 0.96071,-0.99081c4.27514,-4.68821 4.80353,-12.083 4.80353,-14.49961l0,0l-0.57642,0.19333l-0.19214,0l-0.62446,0.24166a8.86251,8.91726 0 0 0 -3.55461,2.12661l-0.86463,1.01497a6.29262,6.33149 0 0 1 2.23364,1.40163c1.60918,1.44996 0.98472,5.48568 0.98472,5.48568l-0.14411,-2.00578c-0.16812,-2.10244 -3.84282,-3.86656 -3.84282,-3.86656l0,-0.24166l-0.43232,0.53165l-0.33625,-11.11636l-2.06552,0.36249a68.85856,69.28395 0 0 1 -1.46508,13.60546z"/>
    <path stroke="null" id="svg_2181" fill="#5e535d" d="m263.88084,208.40576c-0.28821,1.69162 -2.8581,14.74127 -13.2097,17.81035a15.68352,15.7804 0 0 1 -3.43452,1.18413a19.35821,19.4778 0 0 1 -3.53059,1.2808a46.37805,46.66456 0 0 0 3.98693,-10.24639a4.10702,4.13239 0 0 1 -1.84936,-1.88495c-0.45634,-3.35908 -1.41704,-7.95062 -2.40176,-12.373c-0.36026,2.70659 -0.96071,7.49146 -1.00874,9.42474a4.32317,4.34988 0 0 0 2.8581,1.30496l-3.55461,2.77909s-0.38428,12.083 -1.87338,15.44208c-0.14411,-7.2498 -0.88865,-16.57788 -0.88865,-16.57788l3.79479,-1.44996l-4.51532,-0.77331l4.94763,-11.06803c0,-0.43499 -0.21616,-0.84581 -0.31223,-1.25663c-2.0415,0.28999 -4.03496,0.65248 -5.37995,0.89414l-0.21616,-0.12083l0.26419,0.36249a13.78612,13.87129 0 0 1 1.27293,6.83898a6.43673,6.47649 0 0 1 -0.24018,0.84581l0,0.26583a54.23182,54.56685 0 0 1 -4.80353,9.49724a16.11583,16.21539 0 0 0 -6.74896,0.28999a25.69887,25.85763 0 0 0 -0.55241,6.0415a20.53508,20.66194 0 0 1 -2.25766,10.17389l3.65068,0.24166l-4.15505,4.01156l-2.71399,-0.45915c-3.2664,3.40741 -8.45421,8.94142 -9.82321,12.54216a13.88219,13.96795 0 0 1 -1.53713,3.14158c-0.91267,3.04492 -1.34499,5.29236 -1.34499,5.29236l1.72927,1.49829l0.38428,-1.2808l0.50437,-1.78828c0.50437,-3.74573 4.65942,-8.14395 9.60705,-12.083c1.89739,-1.54662 3.91487,-3.02075 5.88432,-4.37405c2.40176,-1.69162 4.80353,-3.21408 6.79699,-4.39821c2.88212,-1.73995 4.80353,-2.82742 4.80353,-2.82742l0.86463,-1.0633c0.43232,-0.53165 1.00874,-1.2808 1.75329,-2.4166l0.26419,-0.36249c2.40176,-0.45915 16.81234,-3.7699 23.17702,-15.29708a24.32986,24.48017 0 0 0 2.90613,-9.13475a11.36034,11.43052 0 0 1 -3.09827,0.0725z"/>
    <path stroke="null" id="svg_2182" fill="#5e535d" d="m249.8065,225.97445l0.28821,-0.19333l-0.28821,0.19333z"/>
    <path stroke="null" id="svg_2183" fill="#5e535d" d="m252.6646,223.84784l0.60044,-0.55582l-0.60044,0.55582z"/>
    <path stroke="null" id="svg_2184" fill="#5e535d" d="m251.60783,224.64532l0.50437,-0.38666l-0.50437,0.38666z"/>
    <path stroke="null" id="svg_2185" fill="#5e535d" d="m254.58601,221.96289c-0.31223,0.33832 -0.62446,0.67665 -0.96071,0.99081c0.38428,-0.31416 0.64848,-0.65248 0.96071,-0.99081z"/>
    <path stroke="null" id="svg_2186" fill="#5e535d" d="m250.74319,225.3703l0.38428,-0.31416l-0.38428,0.31416z"/>
    <path stroke="null" id="svg_2187" fill="#5e535d" d="m248.05322,226.98942l0,0z"/>
    <path stroke="null" id="svg_2188" fill="#5e535d" d="m248.91785,226.53027l0.16812,0l-0.16812,0z"/>
    <path stroke="null" id="svg_2189" fill="#4b424b" d="m263.88084,208.40576a10.15946,10.22222 0 0 1 -1.6332,-0.41082a8.5743,8.62727 0 0 1 -1.82534,-0.89414l-0.31223,0l0,0l-0.62446,0.16916l0,0c0,2.4166 -0.50437,9.8839 -4.80353,14.49961c-0.31223,0.33832 -0.62446,0.67665 -0.96071,0.99081l-0.36026,0.33832l-0.60044,0.55582l-0.48035,0.41082l-0.50437,0.38666l-0.55241,0.41082l-0.38428,0.31416l-0.64848,0.41082l-0.28821,0.19333l-0.72053,0.43499l-0.16812,0l-0.79258,0.41082l0,0l-0.8166,0.41082l0,0a15.68352,15.7804 0 0 0 3.43452,-1.18413c10.18348,-2.70659 12.77738,-15.75624 13.04158,-17.44786z"/>
    <path stroke="null" id="svg_2190" fill="#260004" d="m211.01802,260.33851l-0.50437,1.78828l4.27514,-5.00236l9.60705,-3.5524a34.12906,34.3399 0 0 1 -3.89086,-5.34069c-4.92362,3.96323 -8.9826,8.36144 -9.48697,12.10717z"/>
    <path stroke="null" id="svg_2191" fill="#5e0000" d="m296.785,272.88067a19.69446,19.81613 0 0 0 -8.06993,3.89073l0,0l0.52839,1.64329l0.69651,-0.28999l3.89086,-3.11742l2.25766,-0.77331l1.75329,-0.65248c0.79258,-0.28999 1.56115,-0.60415 2.08953,-0.84581l0.26419,-0.145l0.19214,-0.145a10.54374,10.60888 0 0 0 2.28168,-4.61571l0,0l-0.55241,-0.43499s-2.32971,5.34069 -5.33191,5.48568z"/>
    <path stroke="null" id="svg_2192" fill="#700008" d="m288.04258,276.19142c0.28821,0.36249 0.50437,0.60415 0.62446,0.57998l0,0a19.69446,19.81613 0 0 1 8.06993,-3.89073c3.0022,-0.145 5.18781,-5.55818 5.18781,-5.55818l-1.03276,-0.19333c-1.03276,-0.16916 -3.4105,1.30496 -7.01315,1.76412a5.35593,5.38902 0 0 1 -4.25112,-0.82164l-3.93889,4.20489l0,0.19333a39.60508,39.84975 0 0 0 2.35373,3.72157z"/>
    <path stroke="null" id="svg_2193" fill="#1b81c5" d="m266.95509,240.95737a82.62066,83.13107 0 0 1 1.27293,9.6664l2.40176,-8.11978s10.37562,16.91621 13.88219,22.40189l-3.6747,2.75493l-0.57642,0.41082c0.36026,0.45915 0.96071,1.15997 1.60918,1.88495l0,0.12083c0.96071,1.11164 1.99346,2.2716 2.54587,2.87576l0.36026,0.38666l0.64848,-0.67665l0.28821,-0.31416l3.93889,-4.20489l1.03276,-1.1358l-3.29042,-4.37405l-0.86463,0.67665l-2.11355,-2.75493l-3.79479,-4.9782l-6.58083,-8.57893l-0.33625,-0.43499l-2.01748,-2.60993l-1.72927,-7.2498s-7.63761,-0.70081 -13.23372,-1.42579c-4.6354,-0.57998 -13.2097,-1.57079 -15.97173,-1.88495c-0.74455,1.01497 -1.32097,1.76412 -1.75329,2.4166l5.09174,6.0415s19.91062,-2.12661 22.86479,-0.89414z"/>
    <path stroke="null" id="svg_2194" fill="#176ca5" d="m236.71689,242.79399a58.77115,59.13422 0 0 1 6.36467,2.4166l18.94991,-0.99081s0.64848,1.61912 1.89739,4.51904l0.21616,0.48332l1.39302,3.21408a17.79707,17.90701 0 0 0 2.88212,4.15655l1.44106,0.57998s0,0.26583 0.14411,1.08747c1.58516,1.57079 3.36247,3.18991 5.0437,4.66404c0.57642,0.48332 1.10481,0.96664 1.65722,1.40163c1.29695,1.11164 2.40176,2.07828 3.43452,2.82742l0.52839,0.43499l3.6747,-2.75493c-3.50657,-5.60651 -13.88219,-22.40189 -13.88219,-22.40189l-2.40176,8.11978a82.62066,83.13107 0 0 0 -1.27293,-9.6664c-2.95417,-1.23247 -22.86479,0.91831 -22.86479,0.91831l-5.06772,-6.30733l-0.86463,1.0633s-1.99346,1.08747 -4.80353,2.82742a5.90834,5.94484 0 0 0 3.53059,3.40741z"/>
    <path stroke="null" id="svg_2195" fill="#5e0000" d="m296.18456,300.28493c0.21616,0.19333 0.38428,0.33832 0.45634,0.33832s0.33625,-0.21749 0.69651,-0.57998s1.65722,-1.83662 2.40176,-2.80326a15.61146,15.70791 0 0 1 1.34499,-1.40163c0.36026,-0.33832 1.03276,-0.84581 1.82534,-1.44996l0.21616,-0.16916a58.72312,59.08589 0 0 1 5.28388,-3.45574l0,0a6.19655,6.23483 0 0 0 2.40176,-5.36485l-0.45634,-0.33832l-1.29695,-0.94247c0.88865,0.41082 0.8166,3.52824 -2.5939,6.21066s-8.38215,5.58235 -9.87125,7.2498l-1.44106,1.69162c0.50437,0.41082 0.79258,0.74915 1.03276,1.01497z"/>
    <path stroke="null" id="svg_2196" fill="#700008" d="m291.40505,296.27337c1.6332,1.47413 3.93889,3.11742 3.93889,3.11742l0,0l1.44106,-1.69162c1.48909,-1.76412 6.50878,-4.68821 9.87125,-7.2498s3.48256,-5.79984 2.5939,-6.21066s-5.09174,3.02075 -8.93456,4.56738l-0.69651,0.26583l-0.50437,0a8.11796,8.16811 0 0 1 -4.51532,0.16916a23.17702,23.3202 0 0 1 -2.66596,3.93906l-0.12009,0.145l-0.67249,0.77331l-0.19214,0.21749l-0.74455,0.74915l0,0a10.80794,10.8747 0 0 0 1.20088,1.2083z"/>
    <path stroke="null" id="svg_2197" fill="#1b81c5" d="m231.62515,249.10132a73.61405,74.06882 0 0 0 2.40176,-7.08064s0.57642,0 0.52839,0.60415s-1.29695,7.2498 -1.29695,7.2498s15.92369,8.5306 22.40845,10.36722s9.41491,2.4166 9.41491,2.4166s5.59611,8.91726 9.00661,13.33964s6.29262,8.19228 6.29262,8.19228l-3.74675,-9.6664s8.45421,13.82296 10.39964,16.14289l0,0.145a24.3779,24.5285 0 0 0 1.65722,-2.4166l3.96291,3.93906l-0.72053,0.89414a23.17702,23.3202 0 0 0 2.66596,-3.93906c0.31223,-0.60415 0.55241,-1.11164 0.72053,-1.49829a2.81006,2.82742 0 0 1 0,-0.26583l0,0l0,-0.145a2.08953,2.10244 0 0 0 0,-0.38666s-1.48909,-1.32913 -3.74675,-3.40741l-0.26419,-0.24166l0,0l-3.6747,-3.79406l-0.24018,-0.21749l-1.92141,-1.81245l-3.79479,-3.60074l-3.14631,-3.06908l-0.14411,-0.145l-1.99346,-2.02994c-1.17686,-1.23247 -2.25766,-2.4166 -3.14631,-3.38324c-0.48035,-0.55582 -0.88865,-1.0633 -1.24892,-1.52246a6.55681,6.59732 0 0 1 -1.29695,-2.15077c-0.31223,-1.64329 -0.48035,-2.68243 -0.60044,-3.35908s-0.14411,-1.08747 -0.14411,-1.08747l-1.44106,-0.57998c-2.40176,-0.94247 -6.98913,-2.82742 -8.3101,-3.50407c-0.43232,-0.24166 -1.94543,-0.94247 -3.98693,-1.90911l-0.74455,-0.33832c-3.57863,-1.64329 -8.45421,-3.86656 -12.3931,-5.55818a58.77115,59.13422 0 0 0 -6.36467,-2.4166a5.90834,5.94484 0 0 1 -3.43452,-3.43157c-1.96945,1.18413 -4.34719,2.70659 -6.79699,4.39821a12.00882,12.083 0 0 0 5.13977,5.26819z"/>
    <path stroke="null" id="svg_2198" fill="#1b81c5" d="m288.97927,296.22504l1.05678,-0.96664l-1.05678,0.96664z"/>
    <path stroke="null" id="svg_2199" fill="#1b81c5" d="m285.23251,292.40681l0,0l0,0z"/>
    <polygon stroke="null" id="svg_2200" fill="#1b81c5" points="285.8330078125,291.8268814086914 285.8088684082031,291.8510208129883 285.8088684082031,291.8510208129883 285.8330078125,291.8268814086914 "/>
    <path stroke="null" id="svg_2201" fill="#1b81c5" d="m290.99675,294.29176l-0.74455,0.74915l0.74455,-0.74915z"/>
    <path stroke="null" id="svg_2202" fill="#1b81c5" d="m291.18889,294.07426l0.67249,-0.77331l-0.67249,0.77331z"/>
    <path stroke="null" id="svg_2203" fill="#176ca5" d="m250.6231,263.14177c5.35593,1.42579 10.03937,2.60993 12.00882,3.09325l0.93669,0.24166s0.24018,0.45915 0.69651,1.23247s1.2249,2.00578 2.13757,3.45574l1.65722,2.5616l0,0c0.64848,0.96664 1.36901,1.98161 2.11355,3.06908s1.68123,2.4166 2.61792,3.5524s1.51311,1.95745 2.40176,2.92409l0,0c0.91267,1.11164 1.84936,2.19911 2.81006,3.28658s2.40176,2.53743 3.60265,3.72157s1.89739,1.76412 2.88212,2.5616l0.55241,0.43499l0.14411,0.12083a31.82337,32.01996 0 0 0 3.77077,2.58576l1.05678,-0.96664l0.19214,-0.19333l0,0l0.74455,-0.74915l0.19214,-0.21749l0.67249,-0.77331l0.12009,-0.145l0.72053,-0.89414l-3.96291,-3.93906a24.3779,24.5285 0 0 1 -1.65722,2.4166l0,-0.145c-1.94543,-2.4166 -10.39964,-16.14289 -10.39964,-16.14289l3.74675,9.6664s-2.88212,-3.79406 -6.29262,-8.19228s-9.00661,-13.33964 -9.00661,-13.33964s-2.90613,-0.48332 -9.41491,-2.4166s-22.40845,-10.36722 -22.40845,-10.36722s1.27293,-6.69398 1.29695,-7.2498s-0.52839,-0.60415 -0.52839,-0.60415a73.61405,74.06882 0 0 1 -2.40176,7.08064a12.00882,12.083 0 0 1 -5.13977,-5.21986c-1.96945,1.3533 -3.98693,2.82742 -5.88432,4.37405a34.12906,34.3399 0 0 0 3.89086,5.34069a12.75336,12.83215 0 0 0 3.77077,3.02075l1.12883,0.45915l0.93669,0.31416c4.25112,1.66745 12.89747,4.08406 20.2949,6.0415zm35.20985,28.68505l0,0zm-0.60044,0.57998l0,0z"/>
    <polygon stroke="null" id="svg_2204" fill="#efe4ac" points="184.5505828857422,228.51184844970703 184.14230346679688,225.1045150756836 181.9567108154297,225.53949737548828 182.0767364501953,228.02861785888672 182.24488830566406,232.16094207763672 182.34097290039062,234.11840057373047 185.12704467773438,233.39344024658203 184.5505828857422,228.51184844970703 184.5505828857422,228.51184844970703 "/>
    <path stroke="null" id="svg_2205" fill="#c7d3a9" d="m258.81312,207.60828l-0.19214,0l0.19214,0z"/>
    <path stroke="null" id="svg_2206" fill="#c7d3a9" d="m252.32835,212.34482l0.43232,-0.53165l0.28821,-0.86998a1.34499,1.3533 0 0 1 0.4083,0l0.86463,-1.01497a8.86251,8.91726 0 0 1 3.55461,-2.12661l0,0a5.66816,5.70318 0 0 1 -2.56989,-4.8332a29.80588,29.99002 0 0 1 -3.09827,1.81245l0,-3.72157l0,0l0.12009,11.28553z"/>
    <path stroke="null" id="svg_2207" fill="#c7d3a9" d="m259.26945,207.41495l0.14411,0l-0.14411,0z"/>
    <path stroke="null" id="svg_2208" fill="#c7d3a9" d="m260.03802,207.19746l0,0z"/>
    <path stroke="null" id="svg_2209" fill="#5e535d" d="m247.50081,213.98811a3.89086,3.91489 0 0 0 0.93669,1.37746a68.85856,69.28395 0 0 0 1.48909,-13.77463l0,-0.16916a25.31459,25.47097 0 0 0 -3.57863,0.16916c0,0.43499 0,0.91831 0,1.44996a52.31041,52.63357 0 0 0 1.15285,10.9472z"/>
    <path stroke="null" id="svg_2210" fill="#5e535d" d="m214.23639,245.88724l0.43232,-0.65248l-0.43232,0.65248z"/>
    <path stroke="null" id="svg_2211" fill="#5e535d" d="m214.88486,244.9206l0.33625,-0.45915l-0.33625,0.45915z"/>
    <path stroke="null" id="svg_2212" fill="#5e535d" d="m213.708,246.80555l0.26419,-0.43499l-0.26419,0.43499z"/>
    <path stroke="null" id="svg_2213" fill="#5e535d" d="m223.77139,228.05273c0,-0.86998 0.31223,-2.05411 0.50437,-3.31074c-0.19214,1.25663 -0.38428,2.44077 -0.50437,3.31074z"/>
    <path stroke="null" id="svg_2214" fill="#5e535d" d="m213.17961,247.65136l0.21616,-0.38666l-0.21616,0.38666z"/>
    <path stroke="null" id="svg_2215" fill="#5e535d" d="m224.27576,224.74198a5.59611,5.63068 0 0 0 0.12009,-0.67665a5.59611,5.63068 0 0 1 -0.12009,0.67665z"/>
    <path stroke="null" id="svg_2216" fill="#5e535d" d="m223.72335,228.48771s0,-0.24166 0,-0.38666s0.02402,0.26583 0,0.38666z"/>
    <path stroke="null" id="svg_2217" fill="#5e535d" d="m216.61413,242.81816l0.60044,-0.57998l-0.60044,0.57998z"/>
    <path stroke="null" id="svg_2218" fill="#5e535d" d="m212.81935,248.52134c0,-0.145 0,-0.26583 0.16812,-0.38666s-0.12009,0.24166 -0.16812,0.38666z"/>
    <path stroke="null" id="svg_2219" fill="#5e535d" d="m216.01369,243.44647l0.38428,-0.41082l-0.38428,0.41082z"/>
    <path stroke="null" id="svg_2220" fill="#5e535d" d="m223.69933,228.9227l0,0z"/>
    <path stroke="null" id="svg_2221" fill="#5e535d" d="m215.58137,244.26812a2.76203,2.77909 0 0 1 0.33625,-0.41082a5.01969,5.0507 0 0 0 -0.33625,0.41082z"/>
    <path stroke="null" id="svg_2222" fill="#5e535d" d="m209.76911,256.54445c0,-0.21749 0.12009,-0.43499 0.19214,-0.65248c-0.07205,0.21749 -0.12009,0.45915 -0.19214,0.65248z"/>
    <path stroke="null" id="svg_2223" fill="#5e535d" d="m210.41758,254.44201a2.83408,2.85159 0 0 0 0.16812,-0.48332a2.83408,2.85159 0 0 1 -0.16812,0.48332z"/>
    <path stroke="null" id="svg_2224" fill="#5e535d" d="m210.77785,253.47537l0.14411,-0.38666l-0.14411,0.38666z"/>
    <path stroke="null" id="svg_2225" fill="#5e535d" d="m212.41105,249.36715l0.14411,-0.33832l-0.14411,0.33832z"/>
    <path stroke="null" id="svg_2226" fill="#5e535d" d="m211.45034,251.63875a1.65722,1.66745 0 0 1 0.12009,-0.31416a1.65722,1.66745 0 0 0 -0.12009,0.31416z"/>
    <path stroke="null" id="svg_2227" fill="#5e535d" d="m211.09008,252.55706l0.14411,-0.36249l-0.14411,0.36249z"/>
    <path stroke="null" id="svg_2228" fill="#5e535d" d="m210.0333,255.65031c0,-0.24166 0.16812,-0.50749 0.24018,-0.77331c-0.07205,0.26583 -0.16812,0.53165 -0.24018,0.77331z"/>
    <path stroke="null" id="svg_2229" fill="#5e535d" d="m246.63618,213.91561l-0.28821,-1.59496a14.41058,14.49961 0 0 0 0.28821,1.59496z"/>
    <path stroke="null" id="svg_2230" fill="#5e535d" d="m210.53767,223.36452l-3.43452,-2.60993l10.06339,-0.48332l10.95204,-4.05989s3.86684,-5.55818 5.64414,-5.55818a22.31238,22.45022 0 0 0 3.43452,-0.21749c-0.16812,-2.02994 0,-7.53979 0,-7.53979l-0.79258,0.33832l-0.72053,0.12083l-0.16812,0.24166c-1.94543,0.79748 -5.01969,2.05411 -6.10048,2.4166c-1.53713,0.36249 -4.2271,4.42238 -4.2271,4.42238s-17.8451,7.75729 -19.50232,8.57893s-21.61587,5.67901 -21.61587,5.67901l0,0.48332l0.4083,3.40741l26.05913,-5.21986z"/>
    <path stroke="null" id="svg_2231" fill="#d5791a" d="m254.12968,212.85231l-2.83408,-0.41082l-0.14411,3.47991l0,0l2.06552,0l-0.16812,0.91831a7.73368,7.78145 0 0 0 1.08079,-3.98739z"/>
    <path stroke="null" id="svg_2232" fill="#9c6026" d="m251.17551,215.96972l0,0a2.8581,2.87576 0 0 1 -2.71399,-0.60415a3.89086,3.91489 0 0 1 -0.93669,-1.37746a52.31041,52.63357 0 0 1 -1.27293,-10.9472a49.64445,49.95114 0 0 0 0.12009,9.27975l0.28821,1.59496a4.41924,4.44655 0 0 0 1.82534,3.14158a4.80353,4.8332 0 0 0 4.61139,0l0.16812,-0.91831l-2.08953,-0.16916z"/>
    <path stroke="null" id="svg_2233" fill="#9da787" d="m252.1122,204.92586a29.80588,29.99002 0 0 0 3.09827,-1.73995a5.66816,5.70318 0 0 0 2.56989,4.8332l0,0l0.62446,-0.24166l0.19214,0l0.57642,-0.19333l0.14411,0l0.62446,-0.16916l0,0l0.31223,0a9.1267,9.18308 0 0 1 -3.60265,-5.53402a4.27514,4.30155 0 0 1 -2.28168,-1.81245l-2.54587,1.44996l0.28821,3.40741z"/>
    <path stroke="null" id="svg_2234" fill="#a32c1d" d="m256.00305,195.9361c0,-1.15997 0.33625,-5.79984 2.08953,-6.08983l0.19214,0c1.39302,0 11.55248,-0.84581 12.68131,-3.45574a14.41058,14.49961 0 0 1 1.05678,2.10244c0,-1.40163 0,-4.8332 -2.78605,-5.67901a20.27088,20.39611 0 0 0 -7.20529,-0.82164s3.8188,1.52246 3.31443,2.19911s-2.40176,-1.32913 -6.58083,-1.59496c0.72053,1.32913 3.77077,2.22327 2.13757,2.68243s-7.20529,-1.71579 -8.45421,-0.89414c0.93669,0.70081 1.87338,1.3533 2.68998,2.00578a4.80353,4.8332 0 0 0 -2.40176,2.89992a20.91936,21.04859 0 0 0 1.46508,8.09561a1.99346,2.00578 0 0 1 1.80132,-1.44996z"/>
    <path stroke="null" id="svg_2235" fill="#e6f0cb" d="m262.36773,203.88672l0,0z"/>
    <path stroke="null" id="svg_2236" fill="#e6f0cb" d="m271.13416,186.75302a18.49358,18.60783 0 0 1 -12.00882,3.86656a39.94133,40.18807 0 0 1 -1.27293,7.51563l-0.14411,0.70081l-0.26419,0.19333l0.45634,2.60993a5.23584,5.26819 0 0 1 -1.12883,0l0,0a9.1267,9.18308 0 0 0 3.60265,5.53402a8.5743,8.62727 0 0 0 1.82534,0.89414a10.15946,10.22222 0 0 0 1.6332,0.41082a11.36034,11.43052 0 0 0 3.24238,0a7.92582,7.97478 0 0 0 2.40176,-0.60415l0,0l0,0c1.53713,-0.82164 3.02622,-6.71815 3.36247,-9.03809a6.1245,6.16233 0 0 0 0,-0.74915c0,-1.2808 0.26419,-0.67665 0.28821,-4.37405a13.56996,13.6538 0 0 0 -1.10481,-5.02653a14.41058,14.49961 0 0 0 -1.05678,-2.10244a2.06552,2.07828 0 0 1 0.16812,0.16916zm-1.65722,14.01629a0.62446,0.62832 0 0 1 -0.52839,0.28999a13.13765,13.21881 0 0 1 -2.25766,0.72498s0,-4.13239 0.48035,-4.34988c0,0 0.36026,-0.38666 0.60044,-0.28999a30.0941,30.28001 0 0 1 1.70525,3.6249zm-4.80353,-4.39821c-1.65722,-1.76412 -5.37995,-1.23247 -5.37995,-1.23247l0,-0.31416a6.1245,6.16233 0 0 1 5.452,0.67665l-0.07205,0.86998zm-1.7773,1.01497l0,1.61912a0.48035,0.48332 0 0 1 -0.52839,0.45915l0,0a0.50437,0.50749 0 0 1 -0.48035,-0.50749l0.12009,-1.64329a0.45634,0.45915 0 0 1 0.50437,-0.45915l0,0a0.48035,0.48332 0 0 1 0.45634,0.43499l-0.07205,0.09666zm1.70525,8.77226c-2.64194,-0.19333 -2.40176,-2.17494 -2.40176,-2.17494a3.24238,3.26241 0 0 1 4.80353,-0.74915c1.03276,-0.26583 1.53713,1.11164 1.53713,1.11164l-0.36026,0a3.36247,3.38324 0 0 1 -3.50657,1.71579l-0.07205,0.09666zm3.8188,-10.22222l-0.38428,-0.43499a4.083,4.10822 0 0 1 3.86684,-2.4166c-1.44106,-0.16916 -3.48256,2.85159 -3.48256,2.85159zm2.64194,3.02075l-0.24018,0a0.52839,0.53165 0 0 1 -0.48035,-0.53165l0.12009,-1.59496a0.45634,0.45915 0 0 1 0.50437,-0.45915l0.36026,0a0.45634,0.45915 0 0 1 0.45634,0.50749l0,1.61912a0.50437,0.50749 0 0 1 -0.72053,0.36249l0,0.09666z"/>
    <path stroke="null" id="svg_2237" fill="#b43123" d="m262.43978,196.75774a0.45634,0.45915 0 0 0 -0.50437,0.45915l-0.12009,1.64329a0.50437,0.50749 0 0 0 0.48035,0.50749l0,0a0.48035,0.48332 0 0 0 0.52839,-0.45915l0,-1.61912a0.48035,0.48332 0 0 0 -0.45634,-0.53165l0.07205,0z"/>
    <path stroke="null" id="svg_2238" fill="#b43123" d="m271.5905,198.3527l0,-1.61912a0.45634,0.45915 0 0 0 -0.45634,-0.50749l-0.31223,0a0.45634,0.45915 0 0 0 -0.50437,0.45915l-0.12009,1.59496a0.52839,0.53165 0 0 0 0.48035,0.53165l0.33625,0a0.50437,0.50749 0 0 0 0.57642,-0.45915z"/>
    <path stroke="null" id="svg_2239" fill="#fff" d="m267.77169,197.04774c-0.24018,0 -0.60044,0.28999 -0.60044,0.28999s1.84936,3.38324 1.84936,3.57657l0,0a0.62446,0.62832 0 0 0 0.52839,-0.28999a30.0941,30.28001 0 0 0 -1.7773,-3.57657z"/>
    <path stroke="null" id="svg_2240" fill="#9da787" d="m267.17125,197.33773c-0.45634,0.21749 -0.48035,4.34988 -0.48035,4.34988a13.13765,13.21881 0 0 0 2.25766,-0.72498l0,0c0.07205,-0.19333 -1.7773,-3.6249 -1.7773,-3.6249z"/>
    <path stroke="null" id="svg_2241" fill="#c7d3a9" d="m257.94848,198.13521a39.94133,40.18807 0 0 0 1.27293,-7.51563a18.49358,18.60783 0 0 0 12.00882,-3.86656a2.06552,2.07828 0 0 0 -0.16812,-0.28999c-1.12883,2.60993 -11.28829,3.35908 -12.68131,3.45574a28.605,28.78172 0 0 1 -0.43232,8.21644z"/>
    <path stroke="null" id="svg_2242" fill="#c7d3a9" d="m258.18866,189.91876l0,0z"/>
    <path stroke="null" id="svg_2243" fill="#932333" d="m257.94848,198.13521a28.605,28.78172 0 0 0 0.33625,-8.21644l-0.19214,0c-1.75329,0.28999 -2.0415,4.8332 -2.08953,6.08983a2.83408,2.85159 0 0 1 0.98472,0l0.55241,2.99659l0.26419,-0.19333l0.14411,-0.67665z"/>
    <path stroke="null" id="svg_2244" fill="#c7d3a9" d="m256.81965,201.56678l0,0a5.23584,5.26819 0 0 0 1.12883,0l-0.45634,-2.60993l-0.50437,-3.02075a2.83408,2.85159 0 0 0 -0.98472,0a1.99346,2.00578 0 0 0 -1.68123,1.42579s0,0.145 0,0.24166a2.88212,2.89992 0 0 0 0.31223,2.05411a4.27514,4.30155 0 0 0 2.1856,1.90911z"/>
    <path stroke="null" id="svg_2245" fill="#932333" d="m268.03589,195.40445l0.38428,0.53165s2.0415,-2.92409 3.48256,-2.87576a4.083,4.10822 0 0 0 -3.86684,2.3441z"/>
    <path stroke="null" id="svg_2246" fill="#932333" d="m259.46159,194.7278l0,0.31416s3.72273,-0.53165 5.37995,1.23247l0.16812,-0.86998a6.1245,6.16233 0 0 0 -5.54807,-0.67665z"/>
    <path stroke="null" id="svg_2247" fill="#cea28b" d="m268.13196,204.20087l0,0a4.03496,4.05989 0 0 1 -3.84282,0.94247c-0.72053,-0.26583 -1.87338,-0.74915 -1.89739,-1.23247l-0.14411,0s-0.19214,1.98161 2.40176,2.17494a3.36247,3.38324 0 0 0 3.48256,-1.88495z"/>
    <path stroke="null" id="svg_2248" fill="#b08874" d="m263.13629,203.1859a8.86251,8.91726 0 0 1 5.01969,0.86998s0,0 0,0l0,0l0.36026,0s-0.50437,-1.37746 -1.53713,-1.11164a3.24238,3.26241 0 0 0 -4.80353,0.74915l0.14411,0c0.04804,0 0.26419,-0.21749 0.8166,-0.50749z"/>
    <path stroke="null" id="svg_2249" fill="#fff" d="m263.13629,203.1859c-0.55241,0.19333 -0.76856,0.41082 -0.76856,0.60415l0,0c0,0.48332 1.17686,0.96664 1.89739,1.23247a4.03496,4.05989 0 0 0 3.84282,-0.94247s0,0 0,0a8.86251,8.91726 0 0 0 -4.97165,-0.89414z"/>
    <path stroke="null" id="svg_2250" fill="#aaae87" d="m252.76067,211.81317l0,0.24166s3.6747,1.76412 3.84282,3.86656l0.14411,2.00578s0.62446,-4.03572 -0.98472,-5.48568a6.29262,6.33149 0 0 0 -2.23364,-1.40163a1.34499,1.3533 0 0 0 -0.4083,0l-0.36026,0.77331z"/>
    <path stroke="null" id="svg_2251" fill="#443b44" d="m242.76934,215.26891l-3.79479,1.44996s0.74455,9.37641 0.88865,16.57788c1.48909,-3.31074 1.87338,-15.44208 1.87338,-15.44208l3.50657,-2.82742a4.32317,4.34988 0 0 1 -2.8581,-1.30496c0,-1.93328 0.64848,-6.71815 1.00874,-9.42474c0,-0.28999 -0.12009,-0.57998 -0.19214,-0.86998l-4.94763,11.06803l4.51532,0.77331z"/>
    <path stroke="null" id="svg_2252" fill="#d5791a" d="m243.20165,203.30673c0,0.28999 0.14411,0.57998 0.19214,0.86998c1.03276,4.42238 1.99346,9.01392 2.40176,12.373a4.10702,4.13239 0 0 0 1.84936,1.88495c2.20962,1.1358 5.18781,0.19333 5.37995,-1.42579a4.80353,4.8332 0 0 1 -4.61139,0a4.41924,4.44655 0 0 1 -1.82534,-3.14158a14.41058,14.49961 0 0 1 -0.28821,-1.59496a49.64445,49.95114 0 0 1 -0.12009,-9.27975c0,-0.53165 0,-1.01497 0,-1.44996s0,-1.32913 0.12009,-1.66745c0.14411,-2.4166 -0.16812,-17.1337 -7.32538,-18.72866a30.59847,30.7875 0 0 0 -11.79266,-0.65248l4.61139,7.2498s6.43673,-0.16916 7.73368,2.92409a94.46136,95.04491 0 0 1 3.0022,10.48805l0.21616,0.84581c0.24018,0.45915 0.36026,0.86998 0.45634,1.30496z"/>
    <polygon stroke="null" id="svg_2253" fill="#d7cfcd" points="185.12704467773438,233.39344024658203 185.1990966796875,234.0700912475586 185.12704467773438,233.39344024658203 185.12704467773438,233.39344024658203 "/>
    <polygon stroke="null" id="svg_2254" fill="url(#linear-gradient-203)" points="185.12704467773438,233.39344024658203 185.1990966796875,234.0700912475586 185.12704467773438,233.39344024658203 185.12704467773438,233.39344024658203 "/>
    <polygon stroke="null" id="svg_2255" fill="#efe4ac" points="184.5505828857422,228.51184844970703 184.5505828857422,228.51184844970703 185.12704467773438,233.39344024658203 185.12704467773438,233.39344024658203 184.5505828857422,228.51184844970703 "/>
    <polygon stroke="null" id="svg_2256" fill="url(#linear-gradient-204)" points="184.5505828857422,228.51184844970703 184.5505828857422,228.51184844970703 185.12704467773438,233.39344024658203 185.12704467773438,233.39344024658203 184.5505828857422,228.51184844970703 "/>
    <path stroke="null" id="svg_2257" fill="#5e535d" d="m227.7343,219.23213l-0.31223,0.53165a10.59178,10.65721 0 0 0 -0.28821,1.15997a16.11583,16.21539 0 0 1 6.74896,-0.28999a54.23182,54.56685 0 0 0 4.80353,-9.49724l0,-0.26583a66.64894,67.06068 0 0 1 -4.56335,9.23142s3.4105,-7.87812 3.14631,-9.40058q0,-0.19333 0,-0.43499a22.31238,22.45022 0 0 1 -3.43452,0.28999c-1.7773,0 -5.64414,5.55818 -5.64414,5.55818l-10.95204,4.05989l-10.06339,0.48332l3.43452,2.60993l-25.98708,5.14736l0.57642,4.8332l0,0.67665s16.6202,-2.63409 20.46302,-3.5524a138.38961,139.24454 0 0 0 19.21411,-8.62727c0.16812,-0.96664 0.33625,-1.81245 0.43232,-2.4166l2.42578,-0.09666z"/>
    <path stroke="null" id="svg_2258" fill="url(#linear-gradient-205)" d="m227.7343,219.23213l-0.31223,0.53165a10.59178,10.65721 0 0 0 -0.28821,1.15997a16.11583,16.21539 0 0 1 6.74896,-0.28999a54.23182,54.56685 0 0 0 4.80353,-9.49724l0,-0.26583a66.64894,67.06068 0 0 1 -4.56335,9.23142s3.4105,-7.87812 3.14631,-9.40058q0,-0.19333 0,-0.43499a22.31238,22.45022 0 0 1 -3.43452,0.28999c-1.7773,0 -5.64414,5.55818 -5.64414,5.55818l-10.95204,4.05989l-10.06339,0.48332l3.43452,2.60993l-25.98708,5.14736l0.57642,4.8332l0,0.67665s16.6202,-2.63409 20.46302,-3.5524a138.38961,139.24454 0 0 0 19.21411,-8.62727c0.16812,-0.96664 0.33625,-1.81245 0.43232,-2.4166l2.42578,-0.09666z"/>
    <path stroke="null" id="svg_2259" fill="#d7cfcd" d="m214.6687,245.23476l0.21616,-0.31416l-0.21616,0.31416z"/>
    <path stroke="null" id="svg_2260" fill="url(#linear-gradient-206)" d="m214.6687,245.23476l0.21616,-0.31416l-0.21616,0.31416z"/>
    <path stroke="null" id="svg_2261" fill="#d7cfcd" d="m212.55515,249.10132l0.26419,-0.50749l-0.26419,0.50749z"/>
    <path stroke="null" id="svg_2262" fill="url(#linear-gradient-207)" d="m212.55515,249.10132l0.26419,-0.50749l-0.26419,0.50749z"/>
    <path stroke="null" id="svg_2263" fill="#d7cfcd" d="m215.22111,244.46145a2.71399,2.73076 0 0 1 0.36026,-0.19333a2.71399,2.73076 0 0 0 -0.36026,0.19333z"/>
    <path stroke="null" id="svg_2264" fill="url(#linear-gradient-208)" d="m215.22111,244.46145a2.71399,2.73076 0 0 1 0.36026,-0.19333a2.71399,2.73076 0 0 0 -0.36026,0.19333z"/>
    <path stroke="null" id="svg_2265" fill="#d7cfcd" d="m211.23418,252.19457l0.21616,-0.55582l-0.21616,0.55582z"/>
    <path stroke="null" id="svg_2266" fill="url(#linear-gradient-209)" d="m211.23418,252.19457l0.21616,-0.55582l-0.21616,0.55582z"/>
    <path stroke="null" id="svg_2267" fill="#d7cfcd" d="m212.98747,248.13468l0.26419,-0.48332l-0.26419,0.48332z"/>
    <path stroke="null" id="svg_2268" fill="url(#linear-gradient-210)" d="m212.98747,248.13468l0.26419,-0.48332l-0.26419,0.48332z"/>
    <path stroke="null" id="svg_2269" fill="#d7cfcd" d="m213.97219,246.37056l0.26419,-0.48332l-0.26419,0.48332z"/>
    <path stroke="null" id="svg_2270" fill="url(#linear-gradient-211)" d="m213.97219,246.37056l0.26419,-0.48332l-0.26419,0.48332z"/>
    <path stroke="null" id="svg_2271" fill="#d7cfcd" d="m213.46782,247.2647c0,-0.16916 0.16812,-0.31416 0.24018,-0.45915s-0.16812,0.28999 -0.24018,0.45915z"/>
    <path stroke="null" id="svg_2272" fill="url(#linear-gradient-212)" d="m213.46782,247.2647c0,-0.16916 0.16812,-0.31416 0.24018,-0.45915s-0.16812,0.28999 -0.24018,0.45915z"/>
    <path stroke="null" id="svg_2273" fill="#d7cfcd" d="m211.57043,251.32459c0.26419,-0.65248 0.55241,-1.30496 0.84062,-1.95745c-0.28821,0.65248 -0.57642,1.30496 -0.84062,1.95745z"/>
    <path stroke="null" id="svg_2274" fill="url(#linear-gradient-213)" d="m211.57043,251.32459c0.26419,-0.65248 0.55241,-1.30496 0.84062,-1.95745c-0.28821,0.65248 -0.57642,1.30496 -0.84062,1.95745z"/>
    <path stroke="null" id="svg_2275" fill="#d7cfcd" d="m209.96125,255.89197l0,-0.24166l0,0.24166z"/>
    <path stroke="null" id="svg_2276" fill="url(#linear-gradient-214)" d="m209.96125,255.89197l0,-0.24166l0,0.24166z"/>
    <path stroke="null" id="svg_2277" fill="#d7cfcd" d="m209.74509,256.61695l0,0l0,0z"/>
    <path stroke="null" id="svg_2278" fill="url(#linear-gradient-215)" d="m209.74509,256.61695l0,0l0,0z"/>
    <path stroke="null" id="svg_2279" fill="#d7cfcd" d="m210.89794,253.08871c0,-0.19333 0.14411,-0.36249 0.19214,-0.53165s-0.12009,0.33832 -0.19214,0.53165z"/>
    <path stroke="null" id="svg_2280" fill="url(#linear-gradient-216)" d="m210.89794,253.08871c0,-0.19333 0.14411,-0.36249 0.19214,-0.53165s-0.12009,0.33832 -0.19214,0.53165z"/>
    <path stroke="null" id="svg_2281" fill="#d7cfcd" d="m210.27348,254.877l0.14411,-0.43499l-0.14411,0.43499z"/>
    <path stroke="null" id="svg_2282" fill="url(#linear-gradient-217)" d="m210.27348,254.877l0.14411,-0.43499l-0.14411,0.43499z"/>
    <path stroke="null" id="svg_2283" fill="#d7cfcd" d="m210.58571,253.93452c0,-0.16916 0.12009,-0.33832 0.16812,-0.48332s0.02402,0.33832 -0.16812,0.48332z"/>
    <path stroke="null" id="svg_2284" fill="url(#linear-gradient-218)" d="m210.58571,253.93452c0,-0.16916 0.12009,-0.33832 0.16812,-0.48332s0.02402,0.33832 -0.16812,0.48332z"/>
    <path stroke="null" id="svg_2285" fill="#d7cfcd" d="m224.78013,221.89039c-0.12009,0.70081 -0.24018,1.42579 -0.38428,2.17494c0.14411,-0.74915 0.26419,-1.47413 0.38428,-2.17494z"/>
    <path stroke="null" id="svg_2286" fill="url(#linear-gradient-219)" d="m224.78013,221.89039c-0.12009,0.70081 -0.24018,1.42579 -0.38428,2.17494c0.14411,-0.74915 0.26419,-1.47413 0.38428,-2.17494z"/>
    <path stroke="null" id="svg_2287" fill="#d7cfcd" d="m223.77139,228.10106l0,0z"/>
    <path stroke="null" id="svg_2288" fill="url(#linear-gradient-220)" d="m223.77139,228.10106l0,0z"/>
    <path stroke="null" id="svg_2289" fill="#d7cfcd" d="m223.69933,228.65688l0,0z"/>
    <path stroke="null" id="svg_2290" fill="url(#linear-gradient-221)" d="m223.69933,228.65688l0,0z"/>
    <path stroke="null" id="svg_2291" fill="#d7cfcd" d="m224.27576,224.74198z"/>
    <path stroke="null" id="svg_2292" fill="url(#linear-gradient-222)" d="m224.27576,224.74198z"/>
    <path stroke="null" id="svg_2293" fill="#d7cfcd" d="m223.67532,229.23686a1.58516,1.59496 0 0 1 0,-0.31416a1.58516,1.59496 0 0 0 0,0.31416z"/>
    <path stroke="null" id="svg_2294" fill="url(#linear-gradient-223)" d="m223.67532,229.23686a1.58516,1.59496 0 0 1 0,-0.31416a1.58516,1.59496 0 0 0 0,0.31416z"/>
    <path stroke="null" id="svg_2295" fill="#d7cfcd" d="m215.79753,243.73647l0.21616,-0.28999l-0.21616,0.28999z"/>
    <path stroke="null" id="svg_2296" fill="url(#linear-gradient-224)" d="m215.79753,243.73647l0.21616,-0.28999l-0.21616,0.28999z"/>
    <path stroke="null" id="svg_2297" fill="#d7cfcd" d="m216.39797,243.03565l0.21616,-0.21749l-0.21616,0.21749z"/>
    <path stroke="null" id="svg_2298" fill="url(#linear-gradient-225)" d="m216.39797,243.03565l0.21616,-0.21749l-0.21616,0.21749z"/>
    <path stroke="null" id="svg_2299" fill="#5e535d" d="m221.10543,240.93321l-2.16159,-0.38666a19.21411,19.33281 0 0 1 -1.72927,1.69162l-0.60044,0.57998l-0.21616,0.21749l-0.38428,0.41082l-0.21616,0.28999a2.76203,2.77909 0 0 0 -0.21616,0.53165a2.71399,2.73076 0 0 0 -0.24018,0.31416l-0.33625,0.45915l-0.21616,0.31416l-0.43232,0.65248l-0.26419,0.48332l-0.26419,0.43499c0,0.145 -0.16812,0.28999 -0.24018,0.45915l-0.21616,0.38666l-0.26419,0.48332c0,0.12083 -0.12009,0.24166 -0.16812,0.38666l-0.26419,0.50749l-0.14411,0.33832c-0.28821,0.65248 -0.57642,1.30496 -0.84062,1.95745a1.65722,1.66745 0 0 0 -0.12009,0.31416l-0.21616,0.55582l-0.14411,0.36249c0,0.16916 -0.12009,0.33832 -0.19214,0.53165l-0.14411,0.38666c0,0.145 0,0.31416 -0.16812,0.48332a2.83408,2.85159 0 0 1 -0.16812,0.48332l-0.14411,0.43499c0,0.26583 -0.16812,0.53165 -0.24018,0.77331l0,0.24166c0,0.21749 -0.12009,0.43499 -0.19214,0.65248l0,0a13.88219,13.96795 0 0 0 1.53713,-3.14158c1.15285,-3.64907 6.34066,-9.25558 9.60705,-12.59049z"/>
    <path stroke="null" id="svg_2300" fill="url(#linear-gradient-226)" d="m221.10543,240.93321l-2.16159,-0.38666a19.21411,19.33281 0 0 1 -1.72927,1.69162l-0.60044,0.57998l-0.21616,0.21749l-0.38428,0.41082l-0.21616,0.28999a2.76203,2.77909 0 0 0 -0.21616,0.53165a2.71399,2.73076 0 0 0 -0.24018,0.31416l-0.33625,0.45915l-0.21616,0.31416l-0.43232,0.65248l-0.26419,0.48332l-0.26419,0.43499c0,0.145 -0.16812,0.28999 -0.24018,0.45915l-0.21616,0.38666l-0.26419,0.48332c0,0.12083 -0.12009,0.24166 -0.16812,0.38666l-0.26419,0.50749l-0.14411,0.33832c-0.28821,0.65248 -0.57642,1.30496 -0.84062,1.95745a1.65722,1.66745 0 0 0 -0.12009,0.31416l-0.21616,0.55582l-0.14411,0.36249c0,0.16916 -0.12009,0.33832 -0.19214,0.53165l-0.14411,0.38666c0,0.145 0,0.31416 -0.16812,0.48332a2.83408,2.85159 0 0 1 -0.16812,0.48332l-0.14411,0.43499c0,0.26583 -0.16812,0.53165 -0.24018,0.77331l0,0.24166c0,0.21749 -0.12009,0.43499 -0.19214,0.65248l0,0a13.88219,13.96795 0 0 0 1.53713,-3.14158c1.15285,-3.64907 6.34066,-9.25558 9.60705,-12.59049z"/>
    <path stroke="null" id="svg_2301" fill="#5e535d" d="m226.58145,226.96526a25.69887,25.85763 0 0 1 0.55241,-6.0415a12.92149,13.00131 0 0 0 -2.1856,0.86998l-0.16812,0c-0.12009,0.70081 -0.24018,1.42579 -0.38428,2.17494a5.59611,5.63068 0 0 1 -0.12009,0.67665l0,0c-0.19214,1.25663 -0.38428,2.4166 -0.50437,3.31074l0,0c0,0.145 0,0.26583 0,0.38666l0,0.43499a1.58516,1.59496 0 0 0 0,0.31416a16.81234,16.91621 0 0 1 -2.16159,7.73312l2.81006,0.16916a20.53508,20.66194 0 0 0 2.16159,-10.02889z"/>
    <path stroke="null" id="svg_2302" fill="url(#linear-gradient-227)" d="m226.58145,226.96526a25.69887,25.85763 0 0 1 0.55241,-6.0415a12.92149,13.00131 0 0 0 -2.1856,0.86998l-0.16812,0c-0.12009,0.70081 -0.24018,1.42579 -0.38428,2.17494a5.59611,5.63068 0 0 1 -0.12009,0.67665l0,0c-0.19214,1.25663 -0.38428,2.4166 -0.50437,3.31074l0,0c0,0.145 0,0.26583 0,0.38666l0,0.43499a1.58516,1.59496 0 0 0 0,0.31416a16.81234,16.91621 0 0 1 -2.16159,7.73312l2.81006,0.16916a20.53508,20.66194 0 0 0 2.16159,-10.02889z"/>
    <path stroke="null" id="svg_2303" fill="#5e535d" d="m224.94825,221.79373a12.92149,13.00131 0 0 1 2.1856,-0.86998a10.59178,10.65721 0 0 1 0.28821,-1.15997l0.31223,-0.53165l-2.52185,0.26583c0,0.57998 -0.26419,1.42579 -0.43232,2.4166l0,0l0.16812,-0.12083z"/>
    <path stroke="null" id="svg_2304" fill="url(#linear-gradient-228)" d="m224.94825,221.79373a12.92149,13.00131 0 0 1 2.1856,-0.86998a10.59178,10.65721 0 0 1 0.28821,-1.15997l0.31223,-0.53165l-2.52185,0.26583c0,0.57998 -0.26419,1.42579 -0.43232,2.4166l0,0l0.16812,-0.12083z"/>
    <path stroke="null" id="svg_2305" fill="url(#linear-gradient-229)" d="m224.94825,221.79373a12.92149,13.00131 0 0 1 2.1856,-0.86998a10.59178,10.65721 0 0 1 0.28821,-1.15997l0.31223,-0.53165l-2.52185,0.26583c0,0.57998 -0.26419,1.42579 -0.43232,2.4166l0,0l0.16812,-0.12083z"/>
    <polygon stroke="null" id="svg_2306" fill="#443b44" points="223.81942749023438,241.3923110961914 227.99855041503906,237.38086700439453 224.3238525390625,237.1391372680664 221.51373291015625,236.97002410888672 221.34559631347656,236.94583892822266 215.17306518554688,239.91825103759766 218.94387817382812,240.54656219482422 221.10537719726562,240.93321990966797 223.81942749023438,241.3923110961914 "/>
    <path stroke="null" id="svg_2307" fill="#443b44" d="m237.19725,210.43571q0,0.26583 0,0.43499c0.26419,1.52246 -3.14631,9.40058 -3.14631,9.40058a66.64894,67.06068 0 0 0 4.46728,-9.32808a6.43673,6.47649 0 0 0 0.24018,-0.84581a13.78612,13.87129 0 0 0 -1.27293,-6.83898l-0.26419,-0.36249s-0.19214,5.43735 -0.02402,7.53979z"/>
   </g>
  </g>
 </g>
</svg>