<?xml version="1.0" encoding="utf-8"?>
<!-- Generator: Adobe Illustrator 17.0.0, SVG Export Plug-In . SVG Version: 6.00 Build 0)  -->
<!DOCTYPE svg PUBLIC "-//W3C//DTD SVG 1.1//EN" "http://www.w3.org/Graphics/SVG/1.1/DTD/svg11.dtd">
<svg version="1.1" id="Layer_1" xmlns="http://www.w3.org/2000/svg" xmlns:xlink="http://www.w3.org/1999/xlink" x="0px" y="0px"
	 width="800px" height="600px" viewBox="0 0 800 600" enable-background="new 0 0 800 600" xml:space="preserve">
<g>
	<path fill="#73706B" d="M183.511,528.547c-1.002-3.61-2.07-19.542-2.305-30.348c-0.224-10.8,2.305-39.775,3.454-42.078
		c1.15-2.298,33.798,3.457,40.467,4.83c6.663,1.385,31.728,1.84,37.932,2.759c6.209,0.921,16.787,4.138,17.935,4.821
		c1.15,0.697-0.454,6.673,0,10.35c0.461,3.683,2.531,14.032,2.531,17.708c0,3.681-0.693,10.115-0.921,14.259
		c-0.228,4.133,1.274,14.959,1.376,17.473C284.092,530.832,184.66,532.688,183.511,528.547z"/>
	<path fill="#625E59" d="M252.878,490.275c-1.907,2.67-4.412,4.967-5.97,7.894c-2.67,5.018-3.605,10.823-4.04,16.43
		c-0.413,5.406-0.509,10.836-0.965,16.226c1.986-0.036,3.961-0.073,5.896-0.119C248.924,517.255,252.359,503.856,252.878,490.275z"
		/>
	<path fill="#625E59" d="M189.339,509.407c-0.085-6.442-0.31-12.901-1.068-19.307c-0.336-2.895-0.213-5.964-0.934-8.799
		c-0.191-0.925-0.495-1.813-0.92-2.653c-0.709-2.138-2.041-2.417-3.992-0.822c-0.136,0.231-0.246,0.465-0.369,0.704
		c-0.562,7.541-0.942,15.171-0.851,19.67c0.235,10.806,1.303,26.738,2.305,30.348c0.157,0.567,2.187,1.028,5.559,1.38
		C189.254,523.085,189.428,516.255,189.339,509.407z"/>
	<path fill="#625E59" d="M186.769,462.447c5.549-0.376,11.118-0.398,16.656,0.151c10.765,1.07,21.057,4.778,31.918,4.882
		c10.382,0.102,21.082-1.403,31.353,0.733c4.873,1.013,10.192,2.789,14.417,5.817c0.257-2.652,0.587-5.067-0.117-5.497
		c-1.148-0.683-11.726-3.901-17.935-4.821c-6.204-0.919-31.269-1.374-37.932-2.759c-6.669-1.373-39.317-7.128-40.467-4.83
		c-0.303,0.613-0.704,3.092-1.124,6.603C184.617,462.598,185.698,462.516,186.769,462.447z"/>
	<path fill="#FFCBB0" d="M468.169,512.395c0,0,7.659-1.146,11.488-2.681c3.827-1.534,11.876-4.596,11.876-4.596
		s-5.749,15.698-9.574,21.45c-3.827,5.748-6.788,10.169-8.318,11.312c-1.531,1.155-8.602,2.804-12.044,2.034
		C464.167,535.583,468.098,517.001,468.169,512.395z"/>
	<path fill="#FFCBB0" d="M426.539,539.103c-0.369-5.024-1.647-25.174-1.647-25.174l43.277-1.534c0,0-3.262,24.294-6.843,27.383
		C457.738,542.868,426.806,542.756,426.539,539.103z"/>
	<path fill="#E7B196" d="M475.604,514.957c4.941-1.388,11.609-4.394,14.837-6.947c0.674-1.759,1.092-2.892,1.092-2.892
		s-8.048,3.062-11.876,4.596c-3.83,1.535-11.488,2.681-11.488,2.681c-0.071,4.606-4.002,23.188-6.572,27.519
		c1.089,0.24,2.549,0.24,4.071,0.088C468.689,529.771,471.284,516.161,475.604,514.957z"/>
	<path fill="#E7B196" d="M448.129,516.885c6.362,0.294,12.867,1.343,18.737,3.829c0.81-4.657,1.303-8.319,1.303-8.319l-43.277,1.534
		c0,0,0.154,2.464,0.371,5.881C432.562,517.287,440.663,516.543,448.129,516.885z"/>
	<path d="M327.077,320.365c-1.557-2.652-5.308-3.371-7.378-1.765c0.048-1.891,0.222-3.895,0.222-6.294
		c-1.818-1.907-20.978-15.328-26.846-18.716c-0.068-5.936-2.137-37.007-4.724-54.936c-0.64-4.46-4.885-12.743-9.468-8.316
		c-3.65-2.578-10.034-4.283-14.723-2.704c-1.033-10.415,0.977-17.717,1.615-25.561c0.784-9.624-0.319-18.648-1.374-28.717
		c2.68,1.755,4.856,2.79,7.724,3.869c5.659,2.128,15.602,5.83,21.596,2.962c7.94-3.803-1.616-13.121-5.222-16.051
		c-6.907-5.62-15.372-9.089-23.934-11.826c0.123-0.658-0.019-1.391-0.048-2.149c-0.048-1.358-0.166-2.683-0.325-4.02
		c2.248-2.225,3.671-5.49,4.518-8.332c0.826-2.759,1.437-6.494,0.172-9.168c3.503,0,7.021,0.039,10.537,0.039
		c0.745,0,0.968-1.122,0.212-1.313c-3.47-0.894-7.105-1.492-10.818-1.819c0.817-2.652,0.47-5.927,0.544-8.532
		c0.151-5.242,0.623-10.113,2.084-15.117c4.034-1.607,8.009-3.577,12.263-2.834c0.345,0.115,0.687,0.21,1.053,0.254
		c0.011,0,0.013,0,0.021,0c0.205,0.055,0.41,0.095,0.621,0.167c0.65,0.226,1.213-0.707,0.699-1.168
		c-0.523-0.466-1.051-0.837-1.579-1.159c-1.123-1.345-3.016-2.038-4.714-2.604c-3.229-1.091-6.448-1.945-9.766-2.587
		c5.677-1.318,11.85-1.469,16.856,0.826c0.473,1.19,2.382,0.454,2.089-0.756c-3.241-13.65-19.053-14.325-30.578-13.416
		c-10.369,0.819-21.161,2.888-31.131,6.664c3.899-4.886,3.54-13.595-2.04-16.778c-0.157-0.09-0.278,0.15-0.133,0.248
		c6.639,4.35,3.225,14.687-0.196,17.449c6.141-9.202-1.746-22.82-14.032-21.446c-5.206,0.576-11.089,4.046-13.757,8.65
		c-2.109,3.633-0.777,8.295,5.055,9.169c0.624,0.097,1.223-0.196,0.88-0.38c-6.298-3.45,0.131-8.47,4.493-9.511
		c7.112-1.696,11.3,5.387,8.904,11.344c-2.932,7.27-13.158,5.339-16.773,15.496c-3.997,1.212-9.099,4.242-11.219,7.361
		c0.501,1.767,2.608,4.184,4.263,3.808c-1.469,3.975-0.682,9.044-0.222,12.989c0.982,8.383,3.611,16.581-0.271,24.139
		c-1.956-1.092-4.067-1.758-6.129-1.692c-5.591,0.186-8.023,5.831-6.951,11.252c1.115,5.663,3.959,9.547,8.039,12.227
		c3.482,2.29,9.114,3.044,12.506,0.288c1.499,11.357,4.286,21.638,4.56,33.177c0.165,7.053-0.965,15.187-0.712,22.939
		c-10.767,0.964-20.479,6.188-26.081,8.413c-1.902-0.184-3.796-0.388-5.643-0.569c-0.532-0.054-1.722,0.592-1.805,1.894
		c-0.531,8.64,3.904,19.292,6.289,26.992c1.898,6.119,3.898,12.225,5.913,18.316c4.669,26.418,2.784,54.206,2.378,80.819
		c-0.459,30.111,1.076,59.569-4.705,89.34c-0.01,0.042,0.004,0.079,0,0.116c-1.132,0.254-2.261,0.54-3.367,0.87
		c-0.479,0.139-0.895,1.629-0.328,2.353c2.09,2.686,4.207,2.565,7.315,2.737c-4.615,16.979-3.846,37.398-2.27,54.676
		c0.069,0.737,1.228,0.592,1.238-0.095c0.187-10.304,1.784-42.873,2.656-54.514c10.348,0.239,23.52,3.514,35.261,5.339
		c11.937,1.84,24.081,1.359,36.098,2.056c8.223,0.467,16.052,4.009,24.15,5.052c-2.015,8.083,0.606,16.801,1.199,24.951
		c0.791,10.994-1.8,21.29,2.041,31.967c0.257,0.718,1.236,0.246,1.168-0.403c-0.844-8.401-0.494-20.283-0.216-25.224
		c0.292-4.933,0.116-7.607-0.505-10.557c3.772-2.946,9.722-15.422,8.097-28.584c0.642,0.037,1.635,0.005,2.275-0.006
		c-1.294-5.851-0.552-16.75-0.283-24.27c0.293-8.25-0.76-16.654-1.306-24.878c-0.878-13.167-1.837-25.531-1.253-38.706
		c4.632,1.373,10.546,0.783,13.165-1.941c1.585,1.061,3.947,1.103,5.708,0.501c3.224-1.101,4.887-4.768,6.013-7.706
		c0.789-2.049,1.379-4.171,1.876-6.315c8.435-2.186,11.459-16.481,8.692-25.606C328.543,329.475,329.035,323.682,327.077,320.365z"
		/>
	<path fill="#FFDBC7" d="M319.662,321.121c1.881-1.901,4.521-1.859,5.927,0.865c0.716,1.389,0.704,3.189,0.665,4.699
		c-0.007,0.957-0.128,1.865-0.254,2.754c-1.131-3.575-3.257-5.691-6.372-4.561C319.642,323.628,319.648,322.373,319.662,321.121z"/>
	<path fill="#F5C7AB" d="M279.631,340.088c2.358,1.749,7.657,4.926,10.836,6.122c-1.503,2.526-2.792,6.011-2.783,9.117
		c-2.657-1.074-13.539-0.948-15.022-0.706c-5.725-3.744-9.047-8.552-9.022-15.741C267.443,342.424,275.517,342.344,279.631,340.088z
		"/>
	<path fill="#DEA687" d="M288.729,349.932c0.48-1.348,1.089-2.625,1.738-3.722c-3.179-1.197-8.478-4.374-10.836-6.122
		c-0.716,0.398-1.556,0.721-2.477,0.973C280.482,344.935,284.211,347.951,288.729,349.932z"/>
	<path fill="#DEA687" d="M266.395,340.585c-1.045-0.431-1.985-0.986-2.754-1.704c-0.014,3.86,0.963,7.007,2.73,9.698
		C265.756,345.881,265.691,343.144,266.395,340.585z"/>
	<path fill="#B6A18A" d="M263.653,337.189c1.447-1.358,6.746-2.431,9.293-4.371c1.2,1.526,2.97,3.12,4.449,4.567
		C273.651,339.572,266.662,339.715,263.653,337.189z"/>
	<path fill="#7D1738" d="M274.836,330.553c1.663-3.281,1.937-6.998,0.392-10.438c-1.527-3.407-3.929-7.116-6.962-9.084
		c0.303-1.619,0.654-3.738,1.286-5.221c3.102,4.147,17.663,14.267,26.444,18.625c-0.801,6.589-1.574,12.382-2.313,18.054
		C289.263,341.272,279.019,335.122,274.836,330.553z"/>
	<path fill="#66082E" d="M268.514,309.675c-0.088,0.468-0.164,0.931-0.248,1.356c3.033,1.968,5.435,5.678,6.962,9.084
		c1.545,3.44,1.271,7.156-0.392,10.438c1.291,1.416,3.169,2.981,5.273,4.499C281.555,324.889,278.452,314.957,268.514,309.675z"/>
	<path fill="#7D1738" d="M251.137,292.076c-2.222-8.034,2.945-17.417,6.178-19.313c1.286,10.79,5.529,23.438,11,30.691
		C259.737,306.371,253.234,299.665,251.137,292.076z"/>
	<path fill="#66082E" d="M261.152,295.004c-0.201-0.069-0.401-0.143-0.597-0.219c-0.172-0.079-0.349-0.149-0.524-0.224
		c-3.377-1.444-6.463-3.68-9.404-6.127c0.034,1.224,0.176,2.452,0.51,3.642c2.097,7.589,8.6,14.295,17.178,11.378
		c-1.61-2.126-3.107-4.736-4.456-7.615C262.933,295.641,262.042,295.338,261.152,295.004z"/>
	<path fill="#97264A" d="M296.965,324.313c5.718-1.764,19.007-7.995,21.117-9.82c-0.633,6.498-0.819,13.84-1.339,20.349
		c-2.401,0.389-6.152,1.926-7.615,4.06c-4.604-2.368-10.682-0.039-13.94,2.444C295.835,336.112,296.607,329.475,296.965,324.313z"/>
	<path fill="#87163D" d="M309.565,336.692c-0.251,0.434-0.791,0.443-1.14,0.154c-3.824-3.204-9.366-2.501-12.77,0.688
		c-0.158,1.318-0.319,2.601-0.466,3.812c3.258-2.483,9.336-4.812,13.94-2.444c1.462-2.134,5.214-3.671,7.615-4.06
		c0.149-1.888,0.269-3.844,0.389-5.839C313.948,330.722,311.281,333.706,309.565,336.692z"/>
	<path fill="#D49EA3" d="M317.092,312.659c-4.516,2.753-14.264,7.212-20.406,9.714c-6.932-3.431-19.643-11.967-25.48-18.127
		c6.048-3.175,17.066-7.416,20.974-8.662C299.153,299.586,311.445,308.141,317.092,312.659z"/>
	<path fill="#C8848A" d="M290.92,305.433c-4.605,2.964-5.047,7.9-0.878,6.919c2.608-0.622,9.242-3.162,10.319-4.4
		C303.319,304.551,295.526,302.475,290.92,305.433z"/>
	<path fill="#C8848A" d="M315.547,313.553c-6.601,0.24-13.062,2.45-16.634,7.895C304.276,319.171,311.233,315.961,315.547,313.553z"
		/>
	<path fill="#C8848A" d="M272.771,305.785c4.863,4.602,12.642,10.087,18.88,13.8C286.695,312.967,280.31,307.271,272.771,305.785z"
		/>
	<path fill="#C47A7D" d="M269.846,302.614c-5.235-9.732-8.694-21.884-10.465-31.234c5.583-2.87,18.014-6.679,21.854-7.492
		c-0.857,1.195-4.192,7.377-5.197,11.108c-1.23,0.1-8.537,2.717-10.685,4.43c-0.32,0.258-0.166,0.856,0.293,0.786
		c2.285-0.339,7.435-2.308,10.69-3.293c1.909,5.719,3.397,11.549,5.235,16.198c0.275,0.688,1.017-0.7,0.63-2.852
		c-1.065-5.793-2.562-9.246-4.524-14.905c1.339-3.46,3.958-9.111,5.85-11.948c1.282,4.32,5.803,18.946,7.881,30.132
		C287.288,295.141,273.094,300.425,269.846,302.614z"/>
	<path fill="#B85F69" d="M264.46,290.226c1.53,4.293,3.311,8.528,5.385,12.388c1.644-1.11,6.098-3.01,10.623-4.823
		C274.14,297.634,268.661,294.867,264.46,290.226z"/>
	<path fill="#B85F69" d="M278.339,277.215c1.302-3.88,3.698-7.292,6.134-10.669c-0.396-1.298-0.717-2.383-0.944-3.135
		c-1.892,2.837-4.511,8.488-5.85,11.948C277.903,276.016,278.124,276.625,278.339,277.215z"/>
	<path fill="#B85F69" d="M279.473,287.012c-1.007-3.217-1.995-6.677-3.136-10.093c-2.209,0.667-5.279,1.788-7.749,2.543
		C272.741,281.079,276.469,283.711,279.473,287.012z"/>
	<path fill="#FFFFFF" d="M261.704,144.1c-2.545,2.623-4.727,0.736-6.457-1.706c-2.957-4.157-0.525-9.754,2.209-13.497
		c2.834-0.158,5.688-0.222,8.552-0.254C266.841,133.989,265.487,140.204,261.704,144.1z"/>
	<path fill="#FFDBC7" d="M189.625,167.209c-3.444-1.518-5.923-4.996-7.219-8.409c-1.635-4.315,0.204-11.824,6.226-10.341
		c4.135,1.018,7.533,4.411,10.065,7.446c-0.01,0.962,0.04,1.929,0.069,2.889c-3.522-4.935-9.299-5.84-11.424-2.986
		c-0.24,0.321,0.118,0.809,0.468,0.554c3.269-2.343,10.682,3.856,11.379,9.187C197.711,167.564,193.511,168.921,189.625,167.209z"/>
	<path fill="#EFC2A6" d="M196.11,156.089c0.956,0.704,1.863,1.597,2.656,2.705c-0.029-0.959-0.078-1.926-0.069-2.889
		c-0.963-1.158-2.054-2.364-3.268-3.469C195.743,153.621,195.964,154.849,196.11,156.089z"/>
	<path fill="#EFC2A6" d="M196.353,159.936c0.007,0.577,0,1.161-0.024,1.732c-0.078,1.953-0.263,3.956-0.538,5.967
		c1.492-0.418,2.73-1.177,3.398-2.086C198.937,163.647,197.83,161.634,196.353,159.936z"/>
	<path fill="#855E4D" d="M197.361,151.673c-0.634-0.569-1.77-1.428-2.494-2.035c3.332-1.977,2.71-9.705,2.411-12.49
		c-0.943-8.686-6.351-22.351-0.625-30.903c0.285-0.428-1.907,1.137-3.327,3.098c-1.334-0.418-2.181-1.543-2.603-2.526
		c2.823-3.469,7.08-5.461,10.24-6.43c1.577-7.506,9.737-6.551,14.693-12.716c3.743-4.665,5.373-11.235,0.51-15.426
		c-4.097-3.529-10.749-1.694-14.503,1.701c-1.888,1.717-3.033,4.398-2.054,6.035c-1.228-0.563-2.059-2.378-1.958-3.537
		c0.189-2.168,1.967-4.45,3.475-5.814c3.145-2.853,7.784-4.566,12.043-4.24c5.29,0.416,9.91,4.447,11.473,9.484
		c1.226,3.942-0.081,8.37-2.714,11.629c-3.742,1.717-6.165,2.99-9.135,5.003c-1.256,0.863-2.752,2.649-1.8,2.12
		c11.044-6.136,25.095-8.771,37.412-11.387c11.814-2.496,30.185-5.047,37.217,6.905c-7.019-4.234-17.302-0.601-23.678,3.744
		c-0.347,0.231-0.072,0.839,0.328,0.668c1.871-0.83,3.948-1.582,6.137-2.179c3.234,1.035,6.551,1.861,9.667,3.245
		c0.239,0.109,0.474,0.242,0.708,0.374c-2.671,0.288-5.44,1.421-8.316,2.38c-10.995,3.639-22.265-2.728-33.7-3.02
		c-0.427-0.015-0.469,0.698-0.043,0.748c4.691,0.567,9.129,1.605,13.604,3.09c2.98,0.992,5.711,2.548,8.626,3.558
		c-1.797,0.455-3.572,1.046-5.46,1.626c-6.741,2.07-13.215-0.564-19.512-2.681c-7.075-2.374-20.235-1.034-27.26,0.239
		c-0.329,0.052,0.739,0.779,3.898,0.858c-3.021,11.367-10.49,14.682-10.7,24.172c-0.101,4.987,1.605,14.877,4.148,21.596
		C203.086,150.183,199.72,151.264,197.361,151.673z"/>
	<path fill="#A17A69" d="M233.929,88.204c7.907-1.793,15.842-4.057,23.876-5.141c8.336-1.118,17.589-0.681,24.796,3.362
		c-8.367-7.606-23.817-5.379-34.195-3.184c-11.716,2.483-24.966,5.032-35.739,10.55C219.643,91.547,226.781,89.821,233.929,88.204z"
		/>
	<path fill="#A17A69" d="M196.216,107.007c-2.332,4.051-2.451,9.102-1.799,14.21C196.1,116.693,197.081,111.994,196.216,107.007z"/>
	<path fill="#A17A69" d="M211.663,66.989c1.477-0.216,2.925-0.205,4.324-0.019c-0.909-0.303-1.853-0.499-2.819-0.58
		c-4.259-0.326-8.899,1.387-12.043,4.24c-1.507,1.365-3.285,3.646-3.475,5.814c-0.055,0.579,0.132,1.322,0.479,1.988
		C197.703,71.83,206.001,67.828,211.663,66.989z"/>
	<path fill="#A17A69" d="M199.965,100.719c-2.617,0.927-5.737,2.494-8.175,4.921C194.966,104.772,198.502,103.525,199.965,100.719z"
		/>
	<path fill="#A17A69" d="M224.129,97.125c-4.603,0.329-9.105,1.381-13.65,2.12c8.079,0.288,16.2-2.145,23.804,0.05
		C231.435,97.601,228.059,96.843,224.129,97.125z"/>
	<path fill="#6B4636" d="M238.209,96.325c4.918,3.678,10.583,7.264,16.503,7.673c1.434-0.446,2.843-0.891,4.242-1.244
		c-2.915-1.01-5.646-2.567-8.626-3.558C246.333,97.868,242.355,96.923,238.209,96.325z"/>
	<path fill="#6B4636" d="M204.628,110.971c-1.854,3.557-3.613,7.145-3.877,11.167c2.058-6.207,7.426-10.13,9.87-19.343
		c-1.091-0.025-1.924-0.136-2.545-0.26C207.167,105.429,206.027,108.262,204.628,110.971z"/>
	<path fill="#6B4636" d="M260.614,86.356c-2.647,0.909-5.065,2.242-7.558,3.5c-2.218,1.11-4.45,2.164-6.771,2.725
		c8.271,0.95,16.227-3.854,24.457-5.514C267.493,85.873,263.865,85.221,260.614,86.356z"/>
	<path fill="#6B4636" d="M278.075,95.624c-3.116-1.384-6.433-2.21-9.667-3.245c-1.812,0.497-3.518,1.115-5.13,1.768
		c0.549,0.328,1.103,0.651,1.695,0.915c2.557,1.169,5.259,2.076,8.083,2.323c0.087,0.012,0.175,0.012,0.259,0.016
		c1.868-0.64,3.687-1.215,5.468-1.404C278.549,95.866,278.314,95.732,278.075,95.624z"/>
	<path fill="#6B4636" d="M220.851,73.55c-3.372-8.02-15.53-5.688-19.371,0.58c0.063-0.056,0.119-0.126,0.181-0.184
		c3.754-3.395,10.406-5.23,14.503-1.701c3.606,3.11,3.64,7.536,1.882,11.521C220.915,81.051,222.539,77.561,220.851,73.55z"/>
	<path fill="#FFDBC7" d="M201.389,153.577c1.315-0.209,4.701-2.001,5.719-3.247c-3.198-8.786-7.289-20.03-3.601-28.895
		c2.716-6.524,8.69-9.325,9.575-18.663c2.956-0.067,5.904-0.273,8.895-0.273c6.424-0.006,12.598,2.862,18.586,4.839
		c8.234,2.713,16.071,0.24,23.429-3.638c1.429-0.015,2.814-0.277,4.189-0.674c-0.911,3.51-1.132,7.198-1.276,10.809
		c-0.142,3.429-0.831,7.915-0.266,11.569c-6.061-0.34-12.28,0.07-18.263,1.358c-0.339-0.661-0.754-1.233-1.261-1.691
		c-4.297-3.817-8.616,1.483-10.922,5.72c-3.409,1.571-6.638,3.481-9.571,5.776c-0.327,0.257-0.024,0.78,0.359,0.561
		c2.631-1.57,5.318-2.823,8.038-3.869c-0.058,0.155-0.133,0.325-0.182,0.476c-1.403,3.831-3.169,13.539,1.054,16.55
		c-0.079,0.105-0.13,0.213-0.154,0.337c-2.234-0.212-4.479-0.797-6.828-1.928c-0.441-0.213-0.836,0.357-0.575,0.733
		c3.832,5.281,13.524,6.713,17.816,1.206c0.342-0.434-0.137-1.073-0.647-0.956c-1.076,0.255-2.114,0.454-3.135,0.622
		c4.722-3.899,7.995-14.092,6.923-20.626c2.031-0.279,4.091-0.481,6.146-0.63c-2.652,3.263-3.768,8.926-3.332,12.273
		c0.522,4.072,4.559,8.61,8.964,6.928c0.732-0.282,1.387-0.697,2.009-1.152c-0.102,1.05-0.187,2.096-0.225,3.168
		c-0.013,0.524-0.088,1.012-0.088,1.48c-2.98-0.919-5.963-1.761-8.886-2.586c-0.841-0.233-1.326,1.03-0.557,1.428
		c6.39,3.292,12.917,5.794,19.513,8.64c4.67,2.014,9.156,4.448,13.266,7.465c1.885,1.383,10.032,8.992,4.536,9.787
		c-14.735,2.146-32.203-8.998-41.328-19.128c-0.26-0.285-0.699,0.11-0.507,0.425c3.316,5.312,8.083,10.308,13.494,14.149
		c0.621,9.384,1.243,18.475,0.621,26.125c-0.532,6.466-1.699,11.763-2.016,17.696c-0.319,5.931,0.736,12.473,1.034,16.397
		c0.224,2.91,0.317,6.495-1.772,8.792c-2.647,2.943-9.193,1.277-12.071-0.067c2.046-3.733,0.538-9.25-2.044-12.527
		c-0.319-0.409-1.066-0.121-0.946,0.413c1.083,5.066,0.231,12.709-5.964,11.845c-1.794-0.252-3.576-0.67-5.387-0.845
		c-2.861-0.269-5.666,0.188-8.517,0.515c-3.688,0.41-14.31,2.672-16.292-1.277c-3.528-7.068-0.603-26.786-1.654-40.607
		C206.136,183.098,200.738,169.042,201.389,153.577z"/>
	<path fill="#EFC2A6" d="M242.471,209.432c-1.682,1.928-1.276,4.723,1.194,6.266c2.681,1.671,4.946,0.503,6.423-1.583
		c-1.443,0.483-3.013,0.537-4.556-0.013C243.366,213.322,242.419,211.446,242.471,209.432z"/>
	<path fill="#EFC2A6" d="M209.139,190.678c-1.518-4.435-3.532-8.68-5.171-13.052c1.336,6.83,2.79,13.664,3.322,20.755
		c0.618,8.122-0.126,18.248-0.143,26.676c1.62-3.933,3.048-7.928,3.841-12.131C212.377,205.551,211.564,197.769,209.139,190.678z"/>
	<path fill="#EFC2A6" d="M201.389,153.577c-0.03,0.613-0.01,1.209-0.02,1.809c3.635-0.063,6.792-2.365,9.633-4.503
		c-4.985-5.837-6.36-14.725-4.779-22.074c1.096-5.109,4.583-9.007,6.675-13.704c1.809-4.045,2.426-8.15,2.523-12.415
		c-0.783,0.03-1.555,0.064-2.338,0.084c-0.886,9.338-6.86,12.139-9.575,18.663c-3.688,8.865,0.403,20.109,3.601,28.895
		C206.09,151.576,202.704,153.368,201.389,153.577z"/>
	<path fill="#EFC2A6" d="M233.983,121.841c4.922-3.223,11.557-4.341,17.376-4.535C248.024,109.46,238.057,116.023,233.983,121.841z"
		/>
	<path fill="#EFC2A6" d="M235.892,150.285c-4.223-3.011-2.456-12.719-1.054-16.55c0.049-0.151,0.124-0.321,0.182-0.476
		c-0.946,0.358-1.884,0.76-2.822,1.183c-2.005,5.02-2.575,11.297,0.095,15.537c1.161,0.321,2.3,0.531,3.445,0.643
		C235.762,150.498,235.813,150.389,235.892,150.285z"/>
	<path fill="#EFC2A6" d="M232.575,106.967c7.138,2.45,14.163,5.148,21.825,3.727c4.305-0.798,8.595-2.496,12.967-3.099
		c0.184-1.534,0.431-3.071,0.815-4.569c-1.375,0.397-2.76,0.659-4.189,0.674c-7.358,3.878-15.195,6.351-23.429,3.638
		c-5.988-1.977-12.163-4.845-18.586-4.839c-0.371,0-0.736,0.015-1.101,0.019C224.706,104.168,228.647,105.624,232.575,106.967z"/>
	<path fill="#EFC2A6" d="M252.215,242.197c0.492-4.615-1.21-9.239-5.002-12.088c1.811,3.274,2.587,7.636,0.88,10.754
		C249.116,241.344,250.602,241.858,252.215,242.197z"/>
	<path fill="#EFC2A6" d="M262.7,178.266c-0.121-2.086-0.266-4.211-0.404-6.346c-5.22-3.696-9.815-8.474-13.108-13.576
		C248.94,166.856,255.376,173.282,262.7,178.266z"/>
	<path fill="#FFFFFF" d="M247.493,129.955c1.197,6.43-3.367,17.514-9.398,19.658c-4.448-2.608-2.906-10.105-1.685-14.201
		c0.207-0.683,0.706-1.846,1.394-3.141C240.988,131.236,244.217,130.491,247.493,129.955z"/>
	<path fill="#FFDBC7" d="M239.6,129.363c2.119-2.972,4.852-5.178,6.86-2.143C244.12,127.805,241.826,128.511,239.6,129.363z"/>
	<path fill="#EFC2A6" d="M244.095,125.842c-1.512,0.064-3.131,1.609-4.495,3.522c1.429-0.546,2.896-1.001,4.378-1.428
		C244.008,127.235,244.057,126.541,244.095,125.842z"/>
	<path fill="#D9A170" d="M243.53,275.317c1.999-6.542,8.814-22.63,12.087-29.547c1.032-0.036,2.745-0.269,3.674-0.528
		c-3.572,4.635-13.217,29.078-15.694,35.497c-4.135-8.141-22.62-29.606-27.139-36.065c1.49-0.036,3.014-0.149,4.452-0.301
		C226.614,251.59,240.106,269.634,243.53,275.317z"/>
	<path fill="#FFFFFF" d="M229.159,243.343c-2.325,0.181-4.727,0.619-6.34,0.819c1.457,1.723,4.593,5.685,8.012,10.186
		c2.431-4.041,5.663-7.271,9.478-9.723C237.87,244.309,232.647,243.075,229.159,243.343z"/>
	<path fill="#FFFFFF" d="M249.786,254.566c1.462-3.441,2.925-6.651,4.149-8.961c-2.299-0.212-5.867-1.213-7.531-2.21
		c-1.08,0.654-2.371,1.495-3.992,1.561C244.608,248.196,247.727,251.228,249.786,254.566z"/>
	<path fill="#FFFFFF" d="M248.969,256.522c-1.844-3.419-5.028-7.434-7.338-10.527c-0.489,7.28,0.909,14.977,2.666,22.884
		C245.427,265.471,247.142,260.919,248.969,256.522z"/>
	<path fill="#FFFFFF" d="M240.788,245.668c-3.389,2.355-6.674,6.376-8.841,10.156c4.663,6.199,9.56,13.057,11.301,16.494
		C242.09,267.196,239.556,254.479,240.788,245.668z"/>
	<path fill="#DBEBF0" d="M238.611,245.863c0.562-0.424,1.109-0.855,1.697-1.239c-2.438-0.316-7.661-1.55-11.149-1.282
		c-2.325,0.181-4.727,0.619-6.34,0.819c0.478,0.567,1.159,1.4,1.962,2.405C229.394,245.945,234.042,245.634,238.611,245.863z"/>
	<path fill="#DBEBF0" d="M252.448,248.6c0.522-1.106,1.021-2.116,1.487-2.995c-2.299-0.212-5.867-1.213-7.531-2.21
		c-1.08,0.654-2.371,1.495-3.992,1.561c0.302,0.449,0.629,0.895,0.959,1.331C246.468,246.727,249.508,247.478,252.448,248.6z"/>
	<path fill="#DBEBF0" d="M243.626,252.435c1.149,0.122,2.238,0.379,3.263,0.727c-1.687-2.505-3.679-5.048-5.259-7.167
		c-0.137,2.079-0.107,4.202,0.025,6.343C242.305,252.35,242.967,252.36,243.626,252.435z"/>
	<path fill="#DBEBF0" d="M240.485,252.366c-0.058-2.347,0.021-4.632,0.304-6.698c-2.897,2.01-5.699,5.227-7.807,8.474
		C235.342,253.109,237.868,252.474,240.485,252.366z"/>
	<path fill="#B6A18A" d="M182.397,270.956c-3.342-10.266-10.371-33.501-8.733-33.619c1.633-0.121,7.499-0.43,11.414-1.076
		c0.783-0.125-0.232-0.953-4.576-1.4c3.149-0.818,15.279-5.94,23.264-5.333c0.801,13.973,4.546,15.314,10.133,15.125
		c6.35,8.574,24.17,29.936,29.895,40.304c1.873-4.793,12.915-32.089,17.358-40.474c1.267-0.724,2.3-1.816,2.925-3.438
		c1.227-3.192,0.325-8.065,0.294-11.203c2.995-0.255,8.791,0.524,13.8,2.216c-0.283,0.771,0.235,2.161,0.706,1.558
		c5.525-7.034,7.964,7.733,8.146,9.195c0.51,4.157,1.132,8.61,1.536,12.767c0.847,8.831,1.127,15.543,1.41,23.109
		c-1.554-6.579-4.449-16.675-5.577-18.457c-1.063-8.391-0.998-17.573-1.435-21.987c-0.053-0.494-1.32,3.001-1.179,9.705
		c0.069,3.344,0.279,9.189,0.915,12.939c-4.115,0.742-19.921,6.207-24.655,8.396c-7.412,4.593-10.837,15.541-9.183,23.365
		c1.771,8.356,8.644,15.619,18.649,13.521c-0.42,1.268-0.843,2.957-0.841,4.005c-2.093-0.761-4.665-0.895-6.938,0.284
		c-0.557,0.288-0.767,0.98-0.742,1.277c0.693,9.425-0.936,17.282-10.877,20.953c-0.671,0.251-1.517,0.962-1.554,1.422
		c-0.251,3.645,0.856,7.798,2.715,11.927c-7.124,0.459-14.631,7.219-20.462,11.437c-0.357-1.183-1.1-1.949-2.025-2.396
		c0.798-3.031-1.535-4.324-3.797-4.265c-0.475-9.684-2.03-16.606-4.997-24.803c-3.952-10.917-7.08-20.999-10.455-32.088
		c-2.792-9.205-6.286-18.2-9.36-27.313c-2.547-7.588-4.667-15.457-9.531-21.953c-0.238-0.322-0.698-0.037-0.53,0.322
		c7.532,15.629,11.264,33.402,16.032,50.06c5.312,18.563,14.095,36.939,16.447,56.212c-3.604,1.616-5.298,4.854-4.382,4.099
		c1.3-1.068,5.196-3.419,7.549-2.725c1.094,0.321,1.316,1.277,1.016,2.131c-3.629,0.234-7.642,4.111-8.855,5.899
		c-0.948,1.406-1.087,2.74-0.726,2.382c1.375-1.379,4.497-3.98,8.027-5.357c1.619-0.637,3.048-0.121,2.989,1.623
		c-4.734,3.244-9.525,6.413-12.041,11.751c-0.187,0.385,0.342,0.752,0.626,0.418c5.083-6.043,13.148-8.946,19.315-13.677
		c4.223-3.243,10.579-7.697,16.871-8.344c2.156,3.909,4.866,7.621,7.643,10.668c1.059,2.35,1.922,4.808,2.546,7.286
		c-6.839-2.958-16.307,1.697-21.906,5.337c-8.214,5.327-15.766,15.156-23.476,18.59c1.635-3.723,1.228-6.91,0.826-6.246
		c-2.167,3.571-7.093,12.819-9.502,12.054c-2.411-0.767-1.271-5.994-0.423-9.531c-1.273-19.776,2.965-38.426-9.909-73.338
		C191.52,299.995,187.106,285.422,182.397,270.956z"/>
	<path fill="#B6A18A" d="M187.238,364.878c0.149-15.938,2.775-44.943-0.757-71.074c5.082,14.828,12.998,37.406,14.834,51.141
		c2.402,17.939,0.284,27.55,2.829,42.103c-1.274,4.517-1.559,9.322,0.098,11.63c1.217,1.706,5.269,4.05,10.185-4.683
		c7.941-1.298,12.945-7.743,18.676-12.601c4.666-3.959,9.939-7.213,15.03-9.246c5.293-2.116,10.968-2.197,16.051-0.5
		c0.427-1.697,0.427-4.244-0.083-7.194c2.291,2.004,4.95,3.249,8.606,4.224c3.381,0.889,6.748,1.904,10.125,2.901
		c-1.715,17.129-1.288,34.569-1.452,51.75c-0.068,7.543-0.307,15.068-0.087,22.604c0.186,6.29,2.245,12.657,2.445,18.869
		c-17.539-5.088-36.154-8.595-54.221-10.966c-14.773-1.94-31.823-5.584-47.01-3.008
		C189.833,422.886,186.967,393.413,187.238,364.878z"/>
	<path fill="#D9A170" d="M276.819,467.243c-4.306-0.812-10.076-2.925-14.552-3.659c-9.033-1.482-16.437-1.634-25.524-1.914
		c-16.742-0.507-32.589-4.591-43.157-5.645c-6.078-0.607-10.403-0.084-11.949-0.322c-1.546-0.239-3.249-1.383-2.925-2.114
		c0.322-0.731,7.881-2.032,15.034-1.701c7.153,0.319,20.29,2.363,30.111,3.59c9.736,1.218,22.803,2.275,34.431,4.776
		c11.704,2.516,23.613,5.311,24.628,5.609c1.95,0.568,3.569,1.95,2.924,2.593C285.189,469.111,281.126,468.049,276.819,467.243z"/>
	<path fill="#CE8352" d="M223.616,247.851c-1.015-1.316-1.932-2.499-2.705-3.477c-1.438,0.152-2.962,0.266-4.452,0.301
		c0.752,1.091,1.921,2.605,3.343,4.412C221.042,248.621,222.315,248.211,223.616,247.851z"/>
	<path fill="#CE8352" d="M256.384,250.383c1.157-2.34,2.167-4.183,2.908-5.141c-0.929,0.26-2.642,0.492-3.674,0.528
		c-0.47,1-1.027,2.204-1.619,3.52C254.816,249.628,255.603,249.998,256.384,250.383z"/>
	<path fill="#CE8352" d="M245.78,272.221c-0.989,2.568-1.849,5.167-2.584,7.792c0.133,0.242,0.283,0.503,0.401,0.727
		c1.605-4.171,6.232-15.922,10.263-24.937C250.215,260.627,247.712,267.16,245.78,272.221z"/>
	<path fill="#CE8352" d="M265.324,464.233c3.846,0.943,8.117,2.371,11.494,3.01c4.308,0.806,8.37,1.868,9.02,1.213
		c0.101-0.094,0.133-0.218,0.133-0.354C279.229,466.13,272.116,463.86,265.324,464.233z"/>
	<path fill="#CE8352" d="M212.736,457.254c-6.666-1.424-13.396-2.602-20.198-3.146c-3.81-0.305-9.027-0.878-12.817,0.873
		c0.552,0.333,1.246,0.612,1.917,0.721c1.546,0.239,5.871-0.285,11.949,0.322c9.695,0.968,23.855,4.487,39.053,5.452
		C225.929,460.352,219.388,458.676,212.736,457.254z"/>
	<path fill="#FFDBC7" d="M283.807,487.069c-1.302-5.684-1.173-11.53-0.751-17.014c5.142,1.086,5.028-2.556,3.757-4.362
		c-0.243-1.137-0.157-2.683-0.328-3.983c1.356-0.084,3.253-0.084,4.291,0.076c0.264,3.99-0.219,8.616-1.282,13.336
		C288.435,479.834,286.001,484.633,283.807,487.069z"/>
	<path fill="#EFC2A6" d="M283.271,481.389c1.309-5.728,3.641-12.055,7.559-16.812c0.02-0.96,0.004-1.9-0.055-2.789
		c-1.038-0.16-2.936-0.16-4.291-0.076c0.172,1.3,0.085,2.846,0.328,3.983c1.271,1.805,1.385,5.448-3.757,4.362
		c-0.303,3.992-0.445,8.183-0.005,12.358C283.124,482.073,283.192,481.718,283.271,481.389z"/>
	<path fill="#B6A18A" d="M290.953,415.388c0.581,8.42,1.394,16.841,1.293,25.291c-0.081,6.266-0.813,12.531-0.149,18.757
		c-2.113-0.242-4.187-0.172-5.358,0.063c-0.772-4.438-2.015-9.007-2.245-13.4c-0.395-7.477-0.16-14.977-0.107-22.451
		c0.101-17.159-0.744-34.595-0.088-51.659c1.761,0.509,3.513,1.143,5.284,1.622C288.036,390.352,290.008,401.688,290.953,415.388z"
		/>
	<path fill="#A18A73" d="M274.116,338.619c1.218-0.279,2.353-0.689,3.279-1.233c-1.479-1.447-3.249-3.041-4.449-4.567
		c-0.64,0.491-1.466,0.93-2.352,1.324C271.637,335.722,272.839,337.199,274.116,338.619z"/>
	<path fill="#A18A73" d="M217.713,351.72c-0.492,0.815-0.986,1.74-1.186,2.698c0.718-0.937,2.108-2.29,4.064-3.168
		c-0.064-0.558-0.157-1.118-0.233-1.686C219.247,349.459,218.186,350.944,217.713,351.72z"/>
	<path fill="#A18A73" d="M215.711,361.003c0.067-0.112,0.13-0.23,0.209-0.349c1.212-1.788,5.226-5.664,8.855-5.899
		c0.068-0.204,0.111-0.419,0.119-0.624c-1.67-0.922-4.203,0.701-5.545,1.652C217.549,357.077,216.184,358.879,215.711,361.003z"/>
	<path fill="#A18A73" d="M265.016,242.479c0.974-4.086,0.579-8.461,0.452-12.678c-0.393,0.007-0.769,0.018-1.097,0.04
		c0.031,3.138,0.933,8.012-0.294,11.203c-0.625,1.622-1.658,2.714-2.925,3.438c-0.528,0.994-1.151,2.264-1.829,3.719
		C262.012,247.281,264.273,245.617,265.016,242.479z"/>
	<path fill="#A18A73" d="M201.037,237.343c0.559,2.907,1.488,6.081,3.839,8.07c3.301,2.79,7.34,2.972,11.346,2.294
		c-0.865-1.125-1.671-2.174-2.323-3.053c-5.587,0.189-9.331-1.152-10.133-15.125c-1.056-0.076-2.191-0.054-3.36,0.045
		C200.424,232.188,200.548,234.776,201.037,237.343z"/>
	<path fill="#A18A73" d="M204.54,278.509c-1.83-5.866-3.533-11.776-5.794-17.503c-1.549-3.938-4.484-12.901-9.284-15.155
		c4.276,6.252,6.319,13.63,8.711,20.758c3.074,9.113,6.568,18.108,9.36,27.313c3.375,11.088,6.503,21.171,10.455,32.088
		c1.011,2.793,1.842,5.433,2.54,8.086c-0.386-7.709-1.902-15.346-4.153-22.802C213.004,300.159,208.017,289.59,204.54,278.509z"/>
	<path fill="#A18A73" d="M248.856,292.648c-0.646-3.069-0.503-6.613,0.343-10.066c-2.872,5.132-3.509,11.12-0.71,17.056
		c2.352,4.99,6.052,9.098,10.499,12.214c-0.004-0.046-0.004-0.072-0.004-0.116c-0.025-0.297,0.185-0.989,0.742-1.277
		c2.273-1.179,4.845-1.045,6.938-0.284c-0.002-1.047,0.421-2.737,0.841-4.005C257.5,308.266,250.627,301.004,248.856,292.648z"/>
	<path fill="#A18A73" d="M287.811,262.749c-1.253-5.848-2.233-12.195-4.492-17.875c0.185,4.514,0.406,10.093,1.073,15.356
		c1.128,1.782,4.023,11.878,5.577,18.457c-0.07-1.879-0.139-3.69-0.215-5.505C289.225,269.684,288.554,266.205,287.811,262.749z"/>
	<path fill="#A18A73" d="M250.981,349.449c-0.768,0.085-1.548,0.218-2.316,0.407c2.334,5.367,6.434,9.516,11.082,13.024
		c-0.342-0.933-0.718-1.858-1.123-2.764C255.847,357.069,253.137,353.358,250.981,349.449z"/>
	<path fill="#A18A73" d="M215.318,369.001c2.671-4.145,6.8-6.901,10.892-9.699c0.013-0.34-0.051-0.61-0.134-0.852
		C221.046,359.336,216.688,364.047,215.318,369.001z"/>
	<path fill="#A18A73" d="M282.178,379.843c0.184-2.759,0.378-5.517,0.655-8.262c-3.377-0.997-6.745-2.011-10.125-2.901
		c-3.656-0.976-6.315-2.22-8.606-4.224c0.51,2.95,0.51,5.497,0.083,7.194c-5.083-1.697-10.759-1.616-16.051,0.5
		c-5.091,2.032-10.364,5.287-15.03,9.246c-5.731,4.859-10.735,11.303-18.676,12.601c-4.916,8.732-8.968,6.388-10.185,4.683
		c-1.656-2.308-1.371-7.113-0.098-11.63c-2.545-14.553-0.427-24.164-2.829-42.103c-1.835-13.736-9.751-36.314-14.834-51.141
		c0.436,3.214,0.777,6.477,1.038,9.757c6.125,14.122,8.434,29.827,9.882,45.028c0.979,10.286,1.938,20.583,3.017,30.866
		c0.52,4.944,1.341,9.939,1.605,14.905c0.14,2.482-0.239,7.803,2.443,9.183c6.733,3.456,14.545-8.635,19.629-11.643
		c6.033-3.581,12.231-6.943,18.71-9.644c12.202-5.076,27.129-8.986,39.306-2.083C282.101,380.058,282.12,379.952,282.178,379.843z"
		/>
	<path fill="#A18A73" d="M217.71,442.103c6.651,0.46,13.352,1.367,19.923,2.534c0.815,0.146,7.181,1.483,5.494-0.919
		c-1.953-2.775-4.81-4.25-8.07-5.033c-5.694-1.374-11.767-1.929-17.592-2.465c-5.484-0.496-11.048-0.809-16.537-0.276
		c-5.817,0.558-11.198,2.044-16.151,4.408c-0.355,2.041-0.783,4.078-1.237,6.109C194.559,442.826,206.042,441.292,217.71,442.103z"
		/>
	<path fill="#A18A73" d="M262.589,455.417c-9.458-1.813-19.11-2.714-28.641-4.163c-9.222-1.401-18.357-3.554-27.751-3.35
		c-5.757,0.131-11.481,0.807-17.044,2.186c13.391-0.813,27.717,2.085,40.366,3.747c17.455,2.289,35.42,5.66,52.44,10.465
		C276.895,459.276,269.464,456.735,262.589,455.417z"/>
	<path fill="#A18A73" d="M289.245,378.072c0.088-1.461,0.195-2.929,0.338-4.462c-1.771-0.479-3.522-1.113-5.284-1.622
		c-0.088,2.288-0.147,4.591-0.187,6.903C285.81,378.291,287.536,378.035,289.245,378.072z"/>
	<path fill="#A18A73" d="M286.011,426.451c0.079-8.385,0.152-16.557-1.165-24.863c-0.231-1.471-0.469-2.94-0.7-4.403
		c0.113,8.838,0.292,17.684,0.241,26.462c-0.054,7.474-0.289,14.974,0.107,22.451c0.23,4.393,1.473,8.962,2.245,13.4
		c0.108-0.016,0.232-0.033,0.343-0.051C285.882,448.512,285.895,437.451,286.011,426.451z"/>
	<path fill="#FFDBC7" d="M301.069,354.273c0.734-0.849,1.918-2.014,2.819-2.762c-0.854,3.675-0.184,9.698-0.01,11.879
		c0.583,7.594-7.815,8.252-13.309,6.624c-9.261-2.755-21.318-4.154-28.847-10.574c-3.394-5.757-8.078-10.923-10.739-17.179
		c-2.681-6.288-1.036-6.874,3.968-9.511c2.646-1.407,4.38-3.851,5.837-6.37c1.469-2.55,1.429-5.47,1.168-8.295
		c-0.16-1.7-0.302-2.704-0.605-4.385c-0.881-4.99,5.838-0.494,7.715,1.744c4.258,5.26,4.285,13.14-2.286,16.921
		c-0.982,0.57-1.947,1.258-2.848,2.017c0.14-0.779,0.294-1.547,0.505-2.284c0.108-0.358-0.424-0.595-0.655-0.312
		c-4.174,5.081-3.757,12.263-1.12,17.997c0.989,2.171,3.556,5.106,6.331,6.416c-1.209,0.4-1.88,1.197-1.49,1.176
		c3.613-0.245,14.979-0.636,20.55,1.398c0.572,1.926,2.26,4.048,2.197,3.123c-0.456-6.501,1.585-14.08,6.781-18.088
		c4.942-3.808,12.364-5.364,12.856,1.485c-3.457,1.346-6.706,3.468-8.544,6.642C300.585,353.248,300.663,354.752,301.069,354.273z"
		/>
	<path fill="#FFDBC7" d="M317.428,346.563c-1.007,1.394-1.726,2.917-2.385,4.485c-0.205,0.482,0.465,1.01,0.853,0.621
		c0.507-0.506,1.109-1.049,1.739-1.621c-0.962,7.821-2.237,15.375-5.558,18.631c-1.958,1.923-4.025,1.343-5.172,0.386
		c2.288-5.966-1.817-11.479-0.655-19.333c1.684-1.191,5.211-2.693,5.827-3.028c0.921-0.495,0.075-4.236-1.335-6.463
		c1.846-1.444,3.984-2.575,6.283-2.79c2.725-0.254,5.21,1.346,4.032,4.018C320.215,343.371,318.644,344.907,317.428,346.563z"/>
	<path fill="#FFDBC7" d="M319.355,355.122c0.513-2.686,0.943-5.388,1.462-8.056c4.051-3.04,5.107-11.161-1.755-12.179
		c0.263-2.082,0.402-4.184,0.483-6.275c3.841-2.316,5.605,1.282,6.548,8.91C326.772,342.983,325.057,352.624,319.355,355.122z"/>
	<path fill="#EFC2A6" d="M319.642,322.837c0,0.685-0.012,1.361-0.014,2.041c3.116-1.13,5.241,0.986,6.372,4.561
		c0.126-0.889,0.246-1.798,0.254-2.754c0.016-0.616,0.011-1.292-0.024-1.962C324.447,323.355,322.144,322.652,319.642,322.837z"/>
	<path fill="#EFC2A6" d="M310.211,369.804c0.19-4.268-0.212-8.598-0.152-13.146c0.04-2.341,0.671-4.32,1.662-6.434
		c1.913-4.066,3.244-7.749,1.913-11.794c-1.024,0.485-1.996,1.107-2.892,1.814c1.409,2.226,2.255,5.967,1.335,6.463
		c-0.616,0.334-4.143,1.837-5.827,3.028c-1.162,7.853,2.943,13.367,0.655,19.333C307.695,369.716,308.903,370.178,310.211,369.804z"
		/>
	<path fill="#EFC2A6" d="M319.402,331.122c-0.076,1.258-0.178,2.513-0.339,3.765c6.862,1.018,5.806,9.139,1.755,12.179
		c-0.519,2.668-0.95,5.37-1.462,8.056c1.265-0.556,2.323-1.476,3.214-2.614C325.409,343.591,326.841,333.423,319.402,331.122z"/>
	<path d="M186.634,491.328c0.166-1.461-1.121,0.09-1.47,3.113c-1.251,10.975-2.211,23.464,0.084,34.362
		c0.124,0.564,0.887,0.477,0.887-0.094C186.205,517.514,185.318,502.531,186.634,491.328z"/>
	<path d="M252.218,488.957c-11.86,7.967-10.609,26.328-11.257,38.962c-0.02,0.5,0.624,0.722,0.849,0.245
		c2.564-5.341,2.663-11.209,3.175-17.024c0.73-8.304,3.471-14.391,8.152-21.219C253.515,489.372,252.79,488.572,252.218,488.957z"/>
	<path d="M460.568,214.856c-0.22-0.742-1.379-0.66-1.371,0.151c0.063,5.257,0.036,11.288,2.467,16.078
		c0.187,0.384,0.856,0.473,0.992-0.021C464.07,225.768,462.021,219.94,460.568,214.856z"/>
	<path d="M473.117,217.678c-2.243,2.987-5.251,8.747-4.125,12.637c0.135,0.485,0.871,0.779,1.227,0.328
		c1.298-1.589,1.771-3.775,2.452-5.694c0.783-2.195,1.503-4.587,1.777-6.906C474.543,217.251,473.484,217.178,473.117,217.678z"/>
	<path d="M491.012,222.4c-3.798,2.734-7.292,5.34-10.62,8.664c-0.681,0.683,0.325,1.849,1.099,1.279
		c3.78-2.744,6.945-5.761,10.181-9.105C492.152,222.755,491.591,221.99,491.012,222.4z"/>
	<path d="M496.677,234.311c-3.493,0.042-6.739,0.503-9.703,2.48c-0.552,0.37-0.428,1.383,0.345,1.343
		c3.441-0.185,6.363-1.571,9.569-2.699C497.444,235.246,497.256,234.308,496.677,234.311z"/>
	<path d="M601.613,238.6c-0.41-3.922-4.714-54.008-5.706-59.242c-0.21-1.103-43.405-1.145-43.393-0.439
		c0.313,16.296,9.236,95.786,10.057,95.954c0.704,0.143,1.933-0.039,3.386-0.148c-13.983,7.913-29.169,29.18-33.962,38.063
		c-7.224-4.881-21.833-6.964-28.449-7.242c1.873-10.178-9.581-15.044-15.522-22.027c2.714,1.171,8.194,1.51,9.756-1.953
		c-3.056-1.449-8.052-6.531-9.872-11.209c6.063,4.265,17.136,4.505,19.111-1.513c-4.223-1.306-13.132-4.385-16.614-7.295
		c1.362-0.721,2.689-1.494,3.932-2.376c4.488-3.202,9.731-9.662,9.488-15.434c-0.026-0.555-0.595-0.801-1.003-0.527
		c-0.017,0.012-0.026,0-0.04,0.004c-6.354,2.819-12.481,6.105-18.864,8.859c-2.99,1.297-6.195,2.643-8.955,4.527
		c0.013-0.025,0.039-0.054,0.047-0.09c0.533-1.225,0.636-3.138-1.118-4.168c1.608-2.487,8.247-11.99,9.505-15.632
		c-9.064-2.987-25.658-3.663-33.158,4.917c0.501,2.083,4.669,6.164,6.471,8.474c-1.333,0.21-2.479,0.806-3.676,1.892
		c-0.207-0.282-2.908-1.382-4.296-1.374c-0.059-2.252-1.996-9.16-3.245-13.324c5.314-4.423,8.346-11.811,10.339-17.469
		c1.35-3.863,2.49-7.749,3.413-11.656c7.573,1.827,15.354-2.392,20.364-7.982c3.897-4.348-0.612-10.891,5.79-14.465
		c4.113-2.298,7.362-4.533,10.06-8.589c2.761-4.185,3.917-7.515,3.767-12.457c-0.375-2.001-0.753-3.999-1.121-5.991
		c0.154-4.433,1.408-8.431,3.755-11.984c1.831-3.175,3.733-6.251,5.383-9.532c5.539-11.012,2.755-27.293-1.679-38.303
		c-1.701-4.245-3.502-5.268-3.361-10.943c0.08-3.025,1.926-5.899,1.848-8.942c-0.08-3.357-0.772-6.976-3.462-9.731
		c-4.979-5.105-9.516-1.691-11.397,4.156c-1.401,4.354,1.976,6.308-1.401,8.408c-4.21,2.611-7.698,1.534-9.885,6.068
		c-1.572,3.259-3.739,6.46-6.15,6.15c3.043-6.077,0.156-9.419,0.861-15.607c0.668-5.951,0.703-12.056-2.103-17.55
		c-3.666-7.179-16.349-7.703-16.893,1.637c6.071-4.183,5.89,3.854,4.209,8.089c-1.948,4.903-5.138,7.087-8.331,8.954
		c-5.577,3.266-10.991,3.724-16.951,5.633c-3.686,1.172-6.965,2.878-9.407,5.817c-2.755,3.307-3.941,6.476-7.048,9.121
		c-5.688,0.167-10.955,1.165-15.228,6.287c-5.524,6.63-7.267,16.004-11.197,23.368c-5.801-0.085-11.529,1.229-15.378,4.403
		c-4.244,3.505-4.621,10.457-3.054,15.568c-2.974-0.155-6.079,0.664-8.635,2.098c-2.058,1.157-3.902,2.704-4.653,5.018
		c-0.343,1.065-0.206,2.207,0.246,3.205c-0.951-0.348-1.912-0.733-2.878-1.243c-6.022-3.18-0.841-12.488-6.574-16.417
		c1.406-3.526,2.213-7.095,0.723-10.956c-0.17-0.448-0.841-0.731-1.28-0.579c-6.389,2.107-7.233,7.051-8.79,13.06
		c-1.955,7.513-8.639,11.606-6.995,20.074c0.588,3.034,4.796,5.787,6.334,8.077c2.836,4.205,1.912,11.511,3.336,16.32
		c1.563,5.335,6.122,8.401,10.195,11.836c-2.337,4.529-1.829,10.944,0.794,15.19c3.575,5.788,12.885,4.905,17.819,8.701
		c5.112,3.948,8.033,8.814,14.941,9.261c4.836,0.307,7.998-3.566,10.888-7.361c3.419,1.964,6.802,3.302,11,3.396
		c3.019,0.076,5.507-1.162,6.134-4.135c4.94,6.941,12.492,13.992,20.743,15.159c0.313,1.774,2.869,9.487,3.91,11.217
		c-0.596,0.416-1.086,0.943-1.475,1.555c-1.086-0.4-2.235-0.622-3.445-0.515c-9.669,0.874-15.961,3.226-25.653,4.23
		c-6.535-2-10.652,3.666-11.491,10.165c-1.88,14.671,1.031,30.37,6.973,41.853c2.617,17.621,9.52,44.767,15.907,56.703
		c0.731,6.913,2.282,13.697,2.964,20.622c0.874,8.92-3.549,16.302-7.308,23.987c-5.955,12.179-7.867,35.256-8.373,42.087
		c-0.499,6.828-7.54,16.677-12.096,26.601c-2.248,4.899-2.601,10.615-4.609,15.617c-2.334,5.817-8.722,5.299-11.796,9.711
		c-1.012,1.453-2.983,4.517-2.64,5.967c0.2,0.855,34.326,3.651,47.677,3.651c1.531,8.544,2.214,17.936,3.111,26.565
		c0.277,2.683,2.18-10.665-0.171-25.854c13.635,0.091,27.347-0.41,40.907-1.553c-1.25,8.046-3.582,18.009-5.943,26.873
		c-0.179,0.654,1.51,1.094,2.994-3.141c1.884-5.37,5.297-15.475,5.494-23.967c7.062-0.816,13.595-3.354,20.047-6.191
		c-2.825,10.609-9.435,21.893-14.939,30.158c-0.228,0.34,2.536-1.482,5.083-4.659c3.819-4.775,11.632-16.756,13.541-27.155
		c4.714-2.467,10.26-4.4,15.169-6.022c11.448-3.765,23.13-6.058,30.284-16.371c1.634-2.355-5.979-5.642-11.119-3.798
		c-7.142,2.57-7.601-4.627-10.945-8.504c-3.319-3.845-6.96-6.679-9.758-11.039c-2.396-3.741-4.283-8.768-4.208-12.876
		c0.131-6.636-3.12-37.8-15.267-53.823c-2.818-3.717-7.641-10.751-8.615-14.84c-2.822-14.829,9.325-36.967,12.572-54.675
		c16.18,0.434,30.434,5.496,35.053,9.729c1.467,1.343,2.714,3.92,5.361,4.074c5.373,0.291,10.882-6.231,14.522-11.881
		c6.092-9.508,11.359-19.649,17.179-29.332c3.553-5.906,6.99-13.918,13.068-17.745c5.078,2.328,12.822,2.1,12.769-2.198
		c1.594,0.316,3.868-0.167,5.279-1.23c2.593-1.952,2.061-7.879,1.44-12.306c1.35,2.122,3.102,4.286,5.59,4.882
		c2.729,0.646,5.293-0.509,6.24-3.598c1.074-3.547-1.576-8.723-4.156-11.826c-0.021-0.03-0.04-0.057-0.069-0.078
		c1.601,0.815,4.781,1.544,6.779,1.738c3.346,0.325,5.991-0.821,6.497-5.079C617.494,243.376,609.432,239.447,601.613,238.6z"/>
	<path fill="#FFFFFF" d="M564.971,272.748c-0.852-0.139-11.156-91.406-10.454-92.12c0.704-0.7,38.996-0.563,39.702,0.425
		c0.71,0.989,2.543,34.756,4.948,57.506c-1.641,0.063-4.321,0.034-5.087,0.413c-0.84,0.419,0.53,2.689,1.31,3.665
		c-1.829-1.509-4.714-3.401-6.073-3.041c-0.806,0.222-0.266,6.148,0.401,8.701c-1.521-3.008-3.859-6.967-6.745-7.6
		c-0.588-0.124-1.731,6.34-0.774,13.057c-1.133-2.004-2.152-3.672-3.786-5.305c-0.622-0.624-1.183-0.184-1.409,0.422
		c-2.467,6.758-0.686,14.368,1.3,21.137C574.58,271.335,565.821,272.893,564.971,272.748z"/>
	<path fill="#D9E8E8" d="M558.092,188.162c-0.169-1.134-1.634-4.227-3.593-6.722c0.333,8.674,8.966,84.984,10.343,90.93
		c1.379-0.367,2.341-1.809,2.525-2.644C567.551,268.891,558.337,189.886,558.092,188.162z"/>
	<path fill="#D9E8E8" d="M586.37,192.63c-1.506-0.922-2.025-3.129-1.574-4.884c-2.232,2.14-1.001,7.147,2.661,7.049
		c1.82-0.064,3.657-1.089,3.892-2.693C589.893,193.221,588.181,193.731,586.37,192.63z"/>
	<path fill="#D9E8E8" d="M576.568,250.232c-3.136,3.533-3.253,9.663-3.018,14.01c0.114,2.238,0.325,4.588,0.745,6.888
		c1.535-0.366,2.974-0.746,4.01-1.122C576.453,263.689,574.785,256.637,576.568,250.232z"/>
	<path fill="#D9E8E8" d="M582.328,242.37c-1.85,1.752-2.758,4.89-2.699,7.43c0.976,1.224,1.752,2.498,2.571,3.954
		C581.558,249.17,581.87,244.705,582.328,242.37z"/>
	<path fill="#D9E8E8" d="M589.001,240.218c-1.107,0.655-1.782,1.949-2.173,3.384c1.149,1.444,2.123,3.186,2.89,4.694
		C589.166,246.199,588.71,241.834,589.001,240.218z"/>
	<path fill="#D9E8E8" d="M598.054,226.931c-0.742-8.475-1.422-17.405-1.985-25.113C592.709,210.356,591.918,220.568,598.054,226.931
		z"/>
	<path fill="#D9E8E8" d="M573.765,207.831c-1.535-1.489-1.817-4.988-0.997-7.098c-4.939,1.234-3.53,9.007,1.233,10.365
		c2.162,0.616,4.187-0.44,4.099-1.904C576.338,209.38,575.144,209.159,573.765,207.831z"/>
	<path fill="#FFCBB0" d="M494.973,281.868c-4.413,0.749-9.326-0.673-12.836-8.089c0.254-2.444,0.11-4.911-2.017-6.478
		c-0.596-0.439-1.305-0.671-2.064-0.789c1.806-0.621,3.636-1.262,5.436-1.937C483.943,268.107,489.972,278.36,494.973,281.868z"/>
	<path fill="#FFCBB0" d="M504.38,269.699c-1.662,2.171-10.242,3.081-17.67-1.925c-0.589-1.282-1.191-2.537-1.931-3.696
		c1.342-0.522,2.662-1.092,3.962-1.704C493.97,267.537,501.632,268.791,504.38,269.699z"/>
	<path fill="#FFCBB0" d="M501.934,244.491c-0.465,6.549-8.482,12.548-11.743,14.477c-7.042,4.154-12.3,4.985-15.293,7.237
		c-0.898,0.67-2.501,1.662-3.906,1.949c-1.678-1.535-1.3-5.488-0.93-6.695C474.732,258.211,492.611,251.162,501.934,244.491z"/>
	<path fill="#D9B00D" d="M468.983,269.537c-0.704,0.41-2.058,0.859-2.745,1.313c-1.75-1.819-2.665-5.478-0.674-8.476
		c0.598-0.9,2.252-1.334,2.919-0.916C467.571,264.204,467.487,267.285,468.983,269.537z"/>
	<path fill="#D9B00D" d="M465.425,260.745c-3.69-1.121-5.004-2.922-4.024-3.948c1.962-2.073,11.111-3.929,11.74-2.311
		c0.671,1.728-0.909,3.553-4.154,5.082C467.769,259.438,466.422,259.947,465.425,260.745z"/>
	<path fill="#C29100" d="M468.201,262.425c0.081-0.327,0.178-0.654,0.281-0.967c-0.666-0.418-2.321,0.017-2.919,0.916
		c-0.2,0.291-0.369,0.606-0.51,0.912C466.093,262.829,467.274,262.576,468.201,262.425z"/>
	<path fill="#C29100" d="M465.242,269.429c0.272,0.543,0.616,1.028,0.995,1.421c0.687-0.454,2.04-0.903,2.745-1.313
		c-0.261-0.388-0.468-0.804-0.633-1.234C467.701,268.224,465.842,268.844,465.242,269.429z"/>
	<path fill="#C29100" d="M466.908,258.011c-1.113,0.409-2.514,1.019-3.546,1.904c0.571,0.299,1.244,0.582,2.064,0.83
		c0.997-0.798,2.344-1.307,3.562-1.177c1.096-0.518,1.963-1.071,2.646-1.638C470.116,257.425,468.487,257.44,466.908,258.011z"/>
	<path fill="#F0C95B" d="M467.926,266.663c-0.122-0.819-0.129-1.677-0.03-2.541c0.033-0.291-3.275,0.495-3.327,0.804
		c-0.175,0.966-0.131,1.927,0.072,2.825C465.726,267.337,466.815,266.967,467.926,266.663z"/>
	<path fill="#F0C95B" d="M473.284,255.227c-0.006-0.243-0.046-0.495-0.143-0.742c-0.63-1.618-9.778,0.239-11.74,2.311
		c-0.392,0.413-0.398,0.952-0.043,1.531C462.741,256.553,469.379,254.382,473.284,255.227z"/>
	<path fill="#FFF2FF" d="M453.161,243.057c2.409-0.597,6.742-1.009,9.851-1.558c-0.992,1.726-2.016,3.429-2.996,5.164
		c-0.092,0.158,0.16,0.294,0.254,0.13c1.076-1.847,3.885-5.494,4.42-6.637c-2.789-0.031-9.299,1.109-10.609,1.364
		c2.835-2.303,5.533-3.927,9.601-4.506c3.337-0.472,6.763-0.333,10.177-0.012c-2.585,0.804-5.057,2.177-7.513,3.544
		c-0.164,0.097-0.04,0.384,0.136,0.301c3.468-1.549,10.495-4.215,14.735-3.041c-1.991,2.74-7.083,10.833-7.99,12.482
		c0.501-6.743-0.069-10.023-0.163-9.243c-0.394,3.138-1.137,10.903-1.166,11.083c-0.807-0.024-3.109,0.158-3.498,0.251
		c-1.042-3.335-2.752-9.584-2.911-10.583c-0.172-1.003-0.42,0.919-0.254,2c0.169,1.085,1.332,5.993,2.072,8.795
		c-1.818,0.534-3.61,1.164-4.238,1.443C460.068,250.874,455.486,245.878,453.161,243.057z"/>
	<path fill="#F5D6F2" d="M456.495,239.738c-0.815,0.534-1.607,1.125-2.414,1.782c0.982-0.189,4.914-0.877,7.989-1.197
		C460.218,240.063,458.359,239.848,456.495,239.738z"/>
	<path fill="#F5D6F2" d="M466.519,242.609c0.589,3.304,1.711,6.454,2.679,9.666c0.248-0.021,0.524-0.046,0.815-0.063
		c-0.104-1.511-0.2-3.032-0.233-4.542c-0.042-1.806,0.151-3.617,0.12-5.412C468.767,242.337,467.641,242.455,466.519,242.609z"/>
	<path fill="#F5D6F2" d="M473.405,246.92c-0.031,1.007-0.084,2.123-0.178,3.368c0.907-1.649,5.999-9.742,7.99-12.482
		c-0.425-0.119-0.883-0.189-1.356-0.227C477.266,240.375,474.936,243.412,473.405,246.92z"/>
	<path fill="#F5D6F2" d="M462.105,244.024c-0.712,1.024-1.412,2.043-1.835,2.769c-0.095,0.164-0.347,0.028-0.254-0.13
		c0.589-1.05,1.197-2.085,1.802-3.122c-1.368,0.202-2.687,0.381-4.117,0.488c-1.12,0.085-2.099,0.413-3.087,0.74
		c2.476,2.846,5.988,6.67,8.457,9.263c0.404-0.184,1.289-0.507,2.355-0.86C463.944,250.274,462.86,247.214,462.105,244.024z"/>
	<path fill="#FAA800" d="M406.227,227.205c-2.215-0.486-5.996-2.019-7.746-3.459c0.846-1.068,1.697-2.067,2.588-2.847
		c0.359-0.331,0.146-1.012-0.388-0.919c-3.727,0.643-5.876,3.751-8.409,6.352c-7.16,7.371-13.39,0.21-18.992-4.739
		c-3.421-3.02-7.271-3.722-11.553-4.845c-8.612-2.279-6.119-8.144-6.704-13.937c1.803,1.864,3.292,3.968,4.016,6.649
		c0.139,0.539,0.986,0.621,1.037-0.022c0.357-4.441-1.32-7.485-4.356-10.641c-2.268-2.367-4.963-4.32-7.298-6.625
		c-4.521-4.487-4.395-10.83-5.224-16.663c-0.354-2.496-1.497-5.53-3.228-7.347c-5.189-5.434-4.563-10.697-0.723-16.808
		c1.737-2.76,2.79-6.586,3.518-9.775c0.427-1.844,1.144-5.633,4.581-7.924c1.024-0.676,1,2.632,0.527,5.285
		c-0.443,2.467-2.1,7.052-2.42,8.283c-0.172,0.639,1.455-0.1,2.431-2.787c2.02,3.272,1.329,6.084,2.005,9.939
		c0.426,2.419,1.32,4.326,3.2,5.918c4.115,3.475,10.409,2.304,14.305,6.404c0.451,0.47-0.158-3.645-6.389-5.673
		c-1.865-2.637-0.81-5.454,3.85-7.826c3.634-1.852,9.284-0.891,12.978,0.859c0.627,0.304-0.846-2.685-4.704-3.942
		c-1.057-4.312-0.445-12.9,6.254-15.81c2.45-1.065,5.809-1.703,8.615-1.797c-0.886,1.236-2.202,2.641-3.357,3.722
		c-0.47,0.434,1.682,0.104,3.187-1.071c5.276-4.142,6.41-6.606,8.625-12.693c3.054-8.372,6.221-18.481,16.802-19.13
		c7.928-0.482,11.887-3.122,10.78-3.222c-1.521-0.151-3.041,0.002-4.538-0.01c2.39-1.295,6.061-10.374,13.477-12.21
		c8.984-2.223,18.676-4.377,25.044-11.611c3.71-4.2,5.652-17.737-1.277-16.494c1.4-2.949,5.487-2.973,7.779-1.636
		c5.996,3.51,7.393,11.993,5.84,20.398c-1.24,6.654,1.941,12.143-1.543,15.338c-1.643,0.875-3.327,1.749-4.996,2.856
		c-5.441,3.622-7.139,10.309-14.711,10.947c-0.34,0.025-0.43,0.563-0.064,0.613c6.197,0.858,9.272-2.359,13.47-6.521
		c3.568-3.544,8.15-2.318,12.283-4.472c2.366-1.23,3.586-4.018,4.591-6.316c1.862-4.266,4.697-5.711,8.682-7.347
		c1.41-0.583,2.251-1.441,2.767-2.796c0.239-0.61-0.477-4.251-0.175-5.964c1.071-5.848,7.325-7.708,10.489,0.584
		c1.808,4.754-1.755,12.476-0.694,17.843c0.77,3.879,3.425,7.322,4.4,11.223c1.657,6.66,2.049,14.902,1.444,21.731
		c-0.956,10.774-10.418,18.831-12.236,29.523c-0.348,2.008,0.371,4.426,0.789,6.358c1.202,5.605-0.331,10.435-3.797,14.867
		c-2.868,3.654-7.156,5.109-10.415,8.252c-1.941,1.864-2.176,4.487-2.282,6.991c-0.34,8.395-10.366,14.213-18.425,12.786
		c3.192-15.322,3.284-30.942,1.191-46.702c-1.197-8.995-3.297-16.127-8.052-24.609c-3.102-5.558-7.285-12.164-12.684-16.503
		c7.48,1.816,15.717,0.412,22.957-3.035c3.271-1.558,3.909-3.844,3.505-3.584c-4.281,2.729-14.167,5.684-28.216,3.996
		c-2.059-1.189-3.384-2.125-6.11-2.516c-9.803-1.406-17.643,7.467-25.006,12.9c0.34-3.79,1.678-8.446,3.189-9.757
		c1.665-1.428,2.911-0.11,3.51,1.334c0.204,0.51,0.841-0.354,0.802-1.518c-0.077-2.182-1.794-4.405-4.576-3.598
		c-4.303,1.264-5.159,9.748-5.78,15.659c-3.844,3.366-6.302,7.843-3.189,12.654c5.315,8.247-0.21,14.764-2.337,21.674
		c-0.504-1.447-1.01-3.35-1.209-5.584c-0.041-0.479-0.812,0.054-0.812,2.234c0,9.893,5.667,15.771,7.813,24.663
		c1.961,8.132,1.027,15.789-2.247,23.379c-1.688,3.913-2.116,8.317,0.477,11.878c0.254,0.342,1.195,0.21,1.012-0.195
		c-1.765-3.917-1.313-6.421,0.921-11.003c1.842,6.294,4.573,12.196,7.162,16.162C411.734,225.856,410.113,228.065,406.227,227.205z"
		/>
	<path fill="#FBC169" d="M465.678,67.887c-0.402-5.819-2.996-7.805-6.467-7.768c3.849,2.169,1.979,12.572-1.194,16.164
		c-4.908,5.57-11.785,8.128-18.784,10.021c4.976-0.867,9.9-2.242,14.396-4.317C459.165,79.425,466.151,74.978,465.678,67.887z"/>
	<path fill="#FBC169" d="M465.76,111.247c-4.702-0.312-9.403,0.098-14.147,0.959c-4.376,0.798-8.908,2.45-13.403,2.147
		c0.143,0.09,0.282,0.164,0.428,0.255C451.607,116.163,461.015,113.765,465.76,111.247z"/>
	<path fill="#FBC169" d="M402.984,205.366c3.015-7.34,3.849-14.75,1.95-22.613c-0.685-2.854-1.737-5.403-2.845-7.864
		c0.631,4.985,1.551,9.947,1.952,14.971c0.249,3.205,0.27,6.263-0.251,9.437C403.451,201.352,403.108,203.363,402.984,205.366z"/>
	<path fill="#FBC169" d="M378.002,135.05c-2.853,1.805-4.333,4.791-4.937,7.806C375.944,141.174,377.266,138.233,378.002,135.05z"/>
	<path fill="#FBC169" d="M404.68,110.445c2.003-2.707,5.099-4.378,7.435-6.766c0.076-0.081,0.14-0.158,0.208-0.234
		c-9.824,1.18-12.912,10.908-15.872,19.021c-0.861,2.386-1.57,4.213-2.422,5.808C399.875,124.379,400.605,115.94,404.68,110.445z"/>
	<path fill="#FBC169" d="M384.038,155.986c-1.86,5.838-0.554,11.129,0.397,16.99c0.797,4.899-0.17,9.738-0.416,14.644
		c-0.13,2.529-0.054,4.975,0.27,7.359c0.474-1.627,1.095-3.24,1.761-4.859c1.155-2.831,2.636-6.008,2.543-9.147
		c-0.073-2.779-1.03-5.096-2.01-7.646c-3.651-9.526-1.853-17.869,3.328-25.959C387.16,149.528,385.139,152.526,384.038,155.986z"/>
	<path fill="#FBC169" d="M357.203,174.948c0.415,3.24,0.517,6.657,1.562,9.768c0.578,1.738,1.412,3.249,2.429,4.635
		c-1.346-7.998-0.609-17.436-6.022-23.3C356.403,168.83,356.844,172.18,357.203,174.948z"/>
	<path fill="#FBC169" d="M342.289,148.556c2.104-4.86,3.9-9.814,5.091-14.908c-0.007,0.003-0.022,0.003-0.036,0.007
		c-3.437,2.29-4.154,6.079-4.581,7.924c-0.728,3.189-1.781,7.015-3.518,9.775c-2.637,4.198-3.759,7.997-2.519,11.729
		C337.353,157.991,340.223,153.344,342.289,148.556z"/>
	<path fill="#FBC169" d="M382.563,187.621c0.215-3.165,0.765-6.381,0.783-9.553c0.016-3.638-0.819-7.077-1.373-10.65
		c-0.895-5.717-0.015-11.681,2.837-16.387c-2.407,2.972-4.151,6.475-5.047,10.203c-1.241,5.16-0.636,9.608-0.095,14.777
		c0.785,7.406,0.642,15.252,3.68,21.883C382.563,194.58,382.336,191.168,382.563,187.621z"/>
	<path fill="#FBC169" d="M401.479,139.767c-1.747-2.701-1.735-5.297-0.709-7.652c-1.093,1.583-1.818,3.378-1.886,5.376
		c-0.118,3.517,1.219,5.898,2.61,8.962c0.973,2.152,1.136,4.342,0.984,6.552C403.971,148.903,404.62,144.641,401.479,139.767z"/>
	<path fill="#FBC169" d="M472.119,129.914c-5.243,8.843-3.874,17.36-2.135,26.94c0.466,2.544,0.617,4.935,0.497,7.25
		c3.064-4.529,1.973-10.857,1.495-16.123c-0.528-5.845,0.019-11.646,3.514-16.583c3.458-4.867,8.377-8.17,12.505-12.412
		c1.659-1.706,3-3.502,4.08-5.396C485.386,118.921,476.396,122.69,472.119,129.914z"/>
	<path fill="#FBC169" d="M456.072,107.173c2.343-0.424,4.651-1.245,7.03-2.338c3.885-1.804,7.848-3.089,11.806-4.666
		c4.643-1.844,5.946-5.542,8.761-9.286c2.085-2.769,6.337-4.071,7.811-7.233c1.519-3.282,0.439-7.189,3.277-9.939
		c1.255-1.21,2.891-2.064,4.6-1.534c-3.307-4.239-7.8-2.165-8.693,2.714c-0.301,1.713,0.414,5.354,0.175,5.964
		c-0.516,1.355-1.357,2.213-2.767,2.796c-3.985,1.636-6.82,3.081-8.682,7.347c-1.004,2.298-2.225,5.086-4.591,6.316
		c-4.133,2.154-8.715,0.928-12.283,4.472C460.252,104.02,458.324,105.976,456.072,107.173z"/>
	<path fill="#E08C00" d="M403.62,210.403c0.378,2.483,1.465,5.129,2.591,6.997c1.061,1.756,1.566,3.214,0.317,5.026
		c-1.597,2.31-4.821,1.449-6.903-0.055c-0.382,0.434-0.769,0.891-1.144,1.376c1.75,1.44,5.531,2.973,7.746,3.459
		c3.886,0.859,5.507-1.349,6.032-4.232c-2.59-3.966-5.32-9.868-7.162-16.162C404.434,208.167,403.957,209.323,403.62,210.403z"/>
	<path fill="#E08C00" d="M466.128,88.247c-4.229,3.323-10.995,3.801-14.343,8.143c-2.71,3.495-3.444,8.305-6.23,11.537
		c1.93-0.883,3.328-2.093,4.496-4.2c1.077-1.958,2.103-4.129,3.731-5.69c3.768-3.619,9.236-4.401,13.027-7.998
		c1.31-1.247,2.464-2.641,3.476-4.131c-0.054-0.534-0.101-1.075-0.139-1.633C468.967,85.711,467.641,87.052,466.128,88.247z"/>
	<path fill="#E08C00" d="M465.472,112.815c-0.533,0.467-1.216,0.957-2.123,1.382c-7.24,3.447-15.478,4.851-22.957,3.035
		c3.112,2.496,5.805,5.764,8.136,9.131C456.881,126.707,463.675,120.887,465.472,112.815z"/>
	<path fill="#E08C00" d="M466.869,113.207c-1.915,8.393-8.802,14.461-17.355,14.619c0.539,0.818,1.042,1.64,1.543,2.459
		C459.01,131.176,467.647,121.216,466.869,113.207z"/>
	<path fill="#E08C00" d="M476.101,137.745c-2.186,7.259,1.3,14.88,0.177,22.356c-0.271,1.789-0.705,3.541-1.31,5.196
		c1.564-1.729,2.728-3.914,3.397-6.616c1.47-5.893,1.091-12.128,3.26-17.854c2.291-6.022,7.635-10.107,10.691-15.671
		c1.921-3.505,2.74-7.115,3.028-10.821c-0.793,1.791-1.798,3.539-3.024,5.226C487.656,125.974,478.495,129.762,476.101,137.745z"/>
	<path fill="#E08C00" d="M410.711,115.235c-1.259,1.098-2.394,4.509-2.932,7.813c1.426-2.872,3.434-5.382,5.72-7.677
		C412.818,114.597,411.873,114.243,410.711,115.235z"/>
	<path fill="#E08C00" d="M432.485,88.045c-7.086,2.11-10.656,10.795-12.989,12.059c1.09,0.01,2.191-0.069,3.297-0.051
		C425.191,95.645,428.53,91.242,432.485,88.045z"/>
	<path fill="#E08C00" d="M387.365,157.25c-1.502,7.246,1.479,12.503,5.293,18.367c3.054,4.699,5.438,9.727,4.612,15.477
		c-0.648,4.529-2.277,8.911-2.447,13.336c1.894-3.271,5.068-6.106,5.655-10.09c1.32-8.932-3.692-14.826-7.171-22.469
		c-3.771-8.282-3.901-20.101,2.161-27.449C391.175,147.168,388.365,152.425,387.365,157.25z"/>
	<path fill="#E08C00" d="M347.906,166.4c1.423,2.816,1.914,5.957,2.358,9.059c0.883,6.194,1.581,14.341,7.886,16.432
		c-3.346-3.416-3.63-9.044-3.721-14.619c-0.09-5.215-0.263-11.442-5.799-13.965c-2.357-1.08-4.839-1.628-7.113-2.574
		C343.689,162.548,346.574,163.758,347.906,166.4z"/>
	<path fill="#E08C00" d="M377.25,152.783c-0.163-1.494-0.453-2.975-1.177-4.215c-0.806-1.394-1.982-2.153-3.329-2.553
		c-0.035,1.532,0.104,2.974,0.384,4.101C375.144,150.773,376.498,151.893,377.25,152.783z"/>
	<path fill="#E08C00" d="M366.046,164.019c-0.157-1.176-0.435-2.317-0.972-3.32c-1.05-1.92-2.72-2.955-4.627-3.598
		c-0.567,1.298-0.362,2.637,0.557,3.923C363.477,161.833,365.057,162.968,366.046,164.019z"/>
	<path fill="#E08C00" d="M463.82,96.745c1.669-1.107,3.353-1.981,4.996-2.856c1.572-1.446,1.789-3.359,1.654-5.631
		c-0.61,0.768-1.265,1.507-1.983,2.185c-4.703,4.457-12.117,5.309-15.528,11.088c-1.41,2.386-2.523,4.281-4.091,5.763
		c0.357-0.057,0.714-0.069,1.089,0.012c0.201,0.04,0.395,0.115,0.595,0.176C456.924,106.167,458.746,100.125,463.82,96.745z"/>
	<path fill="#E08C00" d="M385.471,135.423c0.918-0.928,1.848-1.962,2.525-2.914c-2.806,0.094-6.165,0.731-8.615,1.797
		c-0.229,0.097-0.422,0.216-0.636,0.321C380.995,134.407,383.26,134.668,385.471,135.423z"/>
	<path fill="#E08C00" d="M375.861,220.458c-4.183-3.807-11.21-3.001-14.861-7.252c-1.091-1.264-1.793-2.713-2.144-4.242
		c-0.77-2.438-2.145-4.405-3.833-6.152c0.585,5.793-1.908,11.658,6.704,13.937c4.282,1.124,8.132,1.825,11.553,4.845
		c3.049,2.69,6.281,6.033,9.752,7.338C380.378,226.295,378.071,222.467,375.861,220.458z"/>
	<path fill="#E08C00" d="M468.03,116.953c-1.511,7.509-8.799,14.937-16.064,14.864c0.377,0.645,0.763,1.292,1.109,1.919
		c0.225,0.395,0.419,0.775,0.622,1.173C461.202,133.532,467.893,124.767,468.03,116.953z"/>
	<path fill="#E08C00" d="M501.024,95.284c-0.219,1.419-0.164,2.971,0.232,4.712c1.148,5.176,3.392,10.297,3.03,15.698
		c-0.437,6.619-3.028,12.276-6.823,17.635c-3.399,4.806-7.375,9.632-8.696,15.51c-2.178,9.756,1.265,21.38-8.635,27.793
		c-2.561,1.667-6.787,2.343-8.664,4.721c-2.117,2.692-2.458,6.054-4.148,8.94c-1.441,2.473-3.386,4.726-5.859,5.484
		c-0.396,3.104-0.886,6.194-1.524,9.271c8.059,1.427,18.085-4.392,18.425-12.786c0.105-2.504,0.34-5.127,2.282-6.991
		c3.258-3.142,7.547-4.597,10.415-8.252c3.466-4.432,4.999-9.262,3.797-14.867c-0.417-1.932-1.137-4.35-0.789-6.358
		c1.818-10.691,11.28-18.749,12.236-29.523c0.606-6.828,0.213-15.071-1.444-21.731C504.06,101.31,502.116,98.389,501.024,95.284z"/>
	<path fill="#FFCBB0" d="M432.811,236.979c-13.453-2.75-23.244-20.538-26.551-32.665c0.186-0.409,0.888-1.65,1.058-2.053
		c1.935,12.12,9.83,23.106,20.793,28.557c8.23,4.093,23.988,2.114,19.22-11.096c4.439-7.616,7.493-38.068,5.952-49.054l0,0
		c0.284-0.818,0.145-2.363-0.293-1.753c-0.486,0.661-1.505,2.616-2.591,3.662c-4.162,1.995-7.017-0.498-11.155-0.498
		c-2.001,0-2.559,5.912-3.081,7.75c-1.731,6.067-3.663-1.006-4.286-5.238c-0.061-0.455-0.586-0.663-1.01-0.452
		c-6.916,3.453-17.791,5.593-23.766,2.943c-0.644-1.471-5.392-10.591-6.651-13.744c2.62-6.325,6.3-10.569,6.481-17.699
		c0.034-1.67-1.868-5.502-2.804-6.767c-2.774-3.741-1.361-6.798,0.541-9.189c0.082,1.553,1.019,3.557,1.168,2.959
		c0.243-0.974,0.677-3.187,0.896-4.166c2.584-2.12,6.054-3.662,8.214-5.718c6.691-6.382,13.07-9.733,18.83-7.624
		c5.757,2.098,21.534,22.26,23.95,38.561c2.27,15.337,2.69,32.168-0.375,47.338C455.023,212.57,449.731,240.43,432.811,236.979z"/>
	<path fill="#E7B196" d="M432.435,117.99c-4.403-1.456-6.669,1.716-6.853,5.546c5.059,0.492,9.983,1.467,14.457,3.641
		c-2.132-3.049-4.457-5.97-6.848-8.879C432.938,118.194,432.689,118.078,432.435,117.99z"/>
	<path fill="#E7B196" d="M444.011,155.308c-0.628,4.888-4.921,7.919-9.56,9.314C440.613,169.999,448.796,158.847,444.011,155.308z"
		/>
	<path fill="#E7B196" d="M404.829,139.993c-0.278-1.804-0.451-3.644,0.01-5.306c0.198-0.709,0.45-1.401,0.736-2.077
		c-0.327-0.413-0.853-1.782-0.907-2.928c-1.902,2.391-3.315,5.448-0.541,9.189C404.327,139.138,404.565,139.534,404.829,139.993z"/>
	<path fill="#E7B196" d="M408.635,127.614c0.325-0.398,0.667-0.785,1.003-1.167c-1.01,0.636-2.013,1.3-2.906,2.028
		c-0.154,0.703-0.424,2.032-0.653,3.095C406.786,130.166,407.643,128.85,408.635,127.614z"/>
	<path fill="#E7B196" d="M428.111,230.818c-0.602-0.3-1.186-0.646-1.772-0.98c1.17,1.133,2.415,2.153,3.757,2.99
		c2.764,1.729,6.216,3.208,9.542,2.347c3.058-0.78,6.055-2.655,6.433-5.57C442.105,233.572,433.497,233.496,428.111,230.818z"/>
	<path fill="#E7B196" d="M407.224,168.84c-1.381-3.625-3.013-7.271-4.123-11.014c-0.9,1.732-1.823,3.52-2.651,5.511
		c1.259,3.153,6.007,12.273,6.651,13.744c0.846,0.373,1.798,0.646,2.822,0.834C409.283,174.857,408.375,171.835,407.224,168.84z"/>
	<path fill="#E7B196" d="M409.685,210.657c-1.102-2.702-1.906-5.511-2.367-8.396c-0.17,0.403-0.872,1.644-1.058,2.053
		c0.789,2.881,1.944,6.075,3.424,9.316C409.655,212.639,409.651,211.649,409.685,210.657z"/>
	<path fill="#CF0026" d="M433.163,183.901c3.633,2.932,5.44-6.02,5.918-8.404c0.739-3.747,5.888,0.321,9.711-0.71
		c-4.318,6.548-8.465,12.716-17.585,13.376c-7.64,0.551-15.09-3.247-20.989-8.218c4.124,0.463,8.788-0.288,13.033-1.122
		c4.253-0.833,7.247-3.247,7.497-1.833C431.003,178.406,431.378,182.465,433.163,183.901z"/>
	<path fill="#9C0029" d="M440.231,181.194c-0.63,1.007-1.374,1.912-2.254,2.619c-1.594,1.291-3.647,2.043-5.663,1.221
		c-2.549-1.053-3.568-3.254-4.271-5.749c-2.288,1.301-4.697,2.365-7.228,2.876c-2.918,0.594-5.363,0.206-7.932-0.148
		c5.409,3.914,11.79,6.627,18.326,6.151c3.421-0.249,6.131-1.285,8.411-2.81C439.959,183.995,440.142,182.604,440.231,181.194z"/>
	<path fill="#FFFFFF" d="M447.095,202.217c1.488-1.725,3.425-6.188,4.391-8.316c-0.542,5.926-2.335,18.821-4.829,22.988
		C447.072,213.395,447.237,205.563,447.095,202.217z"/>
	<path fill="#FFFFFF" d="M446.989,199.401c-0.408-4.941-1.195-10.808-2.059-15.62c2.805-2.773,5.622-6.764,7.308-10.204
		c0.083,4.168-0.085,10.075-0.668,13.828C450.739,192.317,449.402,195.525,446.989,199.401z"/>
	<path fill="#FFFFFF" d="M415.151,185.876c2.079,1.332,5.17,2.859,7.437,3.693c0.254,5.172,0.692,10.011,1.703,15.059
		c-3.112-1.32-6.119-3.501-8.367-5.975C415.502,194.347,415.335,190.313,415.151,185.876z"/>
	<path fill="#FFFFFF" d="M416.169,209.023c-3.251-4.876-4.913-9.292-6.827-15.202c0.031-0.548,0.05-2.735,0.06-3.271
		c1.238,3.284,3.092,5.924,5.436,8.52C415.077,200.828,415.864,207.267,416.169,209.023z"/>
	<path fill="#FFFFFF" d="M434.873,206.176c-0.971,0.097-1.983,0.161-3.078,0.113c-2.37-0.104-4.536-0.557-6.537-1.286
		c-0.591-3.186-1.261-10.186-1.261-15.184c3.727,1.246,7.334,0.912,10.422,0.313C434.095,195.371,434.331,200.773,434.873,206.176z"
		/>
	<path fill="#FFFFFF" d="M424.501,206.728c0.459,4.712,1.669,9.408,2.496,13.58c-3.233-2.044-6.775-5.824-8.826-8.249
		c-0.919-3.914-1.332-7.5-1.65-10.966C418.904,203.327,421.504,205.464,424.501,206.728z"/>
	<path fill="#FFFFFF" d="M426.001,206.895c2.929,1.089,5.999,1.58,9.158,1.251c0.601,5.182,1.558,10.201,2.332,15.156
		c-2.831,0.121-6.084-0.555-8.969-2.186C427.421,216.303,426.585,211.56,426.001,206.895z"/>
	<path fill="#FFFFFF" d="M435.052,189.971c3.21-0.991,6.172-2.823,8.789-5.166c0.648,5.428,1.32,10.594,1.653,16.01
		c-2.246,2.868-5.126,4.43-9.215,5.184c0-0.031,0-0.063-0.001-0.082C435.626,200.607,435.509,195.283,435.052,189.971z"/>
	<path fill="#FFFFFF" d="M436.497,207.895c3.61-0.5,6.592-1.744,9.161-4.245c0.166,5.912,0.084,12.245-0.663,16.575
		c-1.497,1.885-3.747,2.996-6.112,3.236C438.101,218.388,437.175,212.976,436.497,207.895z"/>
	<path fill="#FFFFFF" d="M414.125,185.208c-0.292,3.812-0.039,7.641,0.404,11.455c-2.1-2.789-3.819-5.955-5.147-9.284
		c-0.122-2.225-0.565-5.452-1.038-6.997C410.046,182.118,412.008,183.759,414.125,185.208z"/>
	<path fill="#CF0026" d="M408.697,197.818c3.537,13.864,15.081,28.514,29.314,27.535c0.154,0.028,0.306,0.006,0.457-0.049
		c0.707-0.067,1.408-0.152,2.123-0.296c1.979-0.395,3.584-1.304,4.911-2.534c2.152,6.704-6.92,8.453-11.585,7.667
		c-4.206-0.722-8.123-2.911-11.609-5.287c-8.72-5.934-11.74-15.607-14.053-25.249C408.415,199.015,408.567,198.424,408.697,197.818z
		"/>
	<path fill="#FFCBB0" d="M436.888,241.163c2.466-0.067,4.703-0.937,6.727-2.319c0.71,2.699,2.21,7.697,3.17,12.078
		c-0.96,0.118-2.543,1.456-1.377,1.291c2.078-0.3,4.666,0.333,6.581,1.667c-0.753,1.412-1.436,4.305-1.667,5.329
		c-1.848,7.819-5.243,0.695-6.767-0.997c-1.321-1.489-2.92-3.035-4.736-4.117c1.091-1.134,2.43-1.882,3.427-2.552
		c0.754-0.503-0.754-0.921-2.167-0.251C439.159,248.073,437.663,243.795,436.888,241.163z"/>
	<path fill="#E7B196" d="M441.707,244.204c1.078-0.363,2.07-0.861,2.99-1.446c-0.426-1.526-0.811-2.89-1.082-3.914
		c-2.023,1.382-4.261,2.252-6.727,2.319c0.286,0.977,0.683,2.192,1.101,3.493C439.224,244.737,440.477,244.625,441.707,244.204z"/>
	<path fill="#CF006B" d="M425.089,256.738c4.685-0.742,8.987-2.528,13.565-0.019c3.456,1.877,4.721,5.942,7.996,7.674
		c0.952,0.506,2.535,1.382,3.369-0.054c1.061-1.827,1.722-3.526,2.304-5.527c1.266-4.333,2.669-6.434,5.768-7.27
		c0.549,0.576,1.102,1.131,1.642,1.712c0.58,0.625,1.1,1.277,1.776,1.664c-0.56,0.395-1.086,0.839-1.477,1.398
		c-0.688,0.971-0.536,2.487,0.228,3.395c0.53,0.63,2.059,1.58,4.191,2.068c-0.712,0.679-1.127,1.626-1.374,2.492
		c-2.757,1.601-4.753,3.602-6.456,5.652c-8.199,3.815-15.793,10.677-20.737,18.187c-5.24,7.965-5.079,15.76-4.805,24.815
		c-1.16,4.847-1.832,11.432-2.692,16.353c-0.574-3.451-3.132-17.187-4.641-22.016c-1.503-4.833-1.497-14.171-3.324-25.327
		c-1.676-10.178-4.667-19.655-10.497-23.156C415.252,258.277,419.362,257.641,425.089,256.738z"/>
	<path fill="#FFCBB0" d="M416.078,351.271c-7.295-20.34-9.799-40.996-12.32-62.337c-0.333-2.831-1.36,8.386-0.828,12.489
		c-2.534-8.246-6.833-27.652-3.334-36.982c3.621-9.656,10.383-2.616,12.66,1.665c5.427,10.217,6.774,25.015,8.166,37.485
		c1.318,11.821,5.594,21.805,6.811,33.567c-1.89,16.283-0.433,32.431,9.683,46.692c0.289,0.41,0.897-0.002,0.643-0.434
		c-13.239-22.951-6.905-45.81-4.477-70.325c-0.665-11.499,1.825-19.427,5.332-24.821c3.746-5.788,10.737-12.487,15.092-14.401
		c-2.27,2.665-2.606,5.052-2.354,4.75c2.094-2.446,7.753-8.996,11.67-12.105c0.032,1.996,0.66,4.091,1.552,5.615
		c-5.141,3.817-6.925,7.045-6.558,6.779c5.258-3.877,23.334-16.339,21.908-5.127c-0.948,7.468-3.939,17.212-2.167,24.742
		c-3.651-0.14-5.024-3.862-5.16-8.241c-0.143-4.753,2.003-10.583,3.243-15.002c0.099-0.334-1.18,0.173-2.079,2.253
		c-4.331,1.916-8.243,3.663-12.613,5.457c-3.547,1.452-4.701,4.626-6.438,7.83c-2.356,4.374-4.456,9.442-7.354,13.119
		c-3.807,4.836-8.575,6.501-10.071,7.158c-0.399,0.185,1.082,0.755,2.181,0.367c-0.912,5.964,0.973,12.43,1.826,18.296
		c1.17,8.086,3.015,15.954,4.868,23.902c1.965,8.435,3.834,18.249,2.227,26.894c-0.628,3.378-2.115,12.431-5.694,12.959
		c-3.579,0.539-9.342-8.959-12.815-14.796C424.406,369.863,419.569,361.01,416.078,351.271z"/>
	<path fill="#CF006B" d="M472.888,326.647c-2.289,0.928,5.201,0.64,16.415-3.554c-2.916,9.759-6.24,19.367-9.501,29.021
		c-3.119,9.207-5.954,17.909-3.828,27.702c1.046,4.772,5.297,9.793,8.187,13.589c4.52,5.934,7.136,11.26,9.323,17.966
		c3.625,11.117,6.638,28.796,6.931,36.708c0.281,7.911,5.898,15.629,12.975,22.102c2.733,2.486,3.824,9.605,7.758,10.851
		c1.092,0.349,2.147,0.451,3.184,0.424l-0.01,0.006c-10.766,5.067-21.816,9.698-32.703,14.737
		c-14.563,6.743-31.53,6.812-47.237,7.885c-16.008,1.1-28.577,0.44-44.615,0.97c-2.52,0.082-3.924,0.83-3.581,0.858
		c24.32,1.568,48.742,1.125,73.014-1.573c12.392-1.385,23.064-5.56,34.067-11.175c4.983-2.54,11.633-5.511,16.712-7.88
		c2.629-1.227,7.493-4.114,9.795-4.653c3.504-0.821,6.675,0.598,6.675,1.477c0,0.936-5.373,5.126-9.989,7.764
		c-4.624,2.64-14.564,5.806-22.088,8.131c-7.582,2.337-14.706,5.924-21.972,9.065c-7.259,3.143-15.171,3.569-22.967,4.001
		c-27.052,1.492-80.561-1.902-81.212-2.31c-0.655-0.409,1.377-3.944,3.249-5.129c1.868-1.179,6.025-1.379,8.337-4.47
		c3.031-4.051,3.016-6.528,4.244-11.4c3.372-13.391,15.211-21.739,15.71-38.23c0.5-16.493,5.114-31.157,12.748-45.338
		c5.912-10.966,2.236-21.749-0.423-33.461c2.823,5.243,5.039,8.84,8.12,13.913c1.985,3.26,6.542,10.745,11.705,11.745
		c6.629,1.274,9.648-15.444,9.995-20.213c0.762-10.632-3.01-21.64-5.411-31.867c-2.487-10.598-4.64-22.132-5.039-33.11
		c4.903-1.089,8.032-5.627,10.502-10.06c3.646-6.552,6.199-13.606,9.615-15.693c2.855-1.741,8.443-3.45,11.079-5.457
		c-1.666,4.099-2.602,8.68-2.049,12.954c0.71,5.581,3.128,9.165,8.96,8.577c-0.333-6.413-0.17-13.571,2.016-23.766
		c1.333,1.976,3.137,3.698,4.719,4.791c4.358,6.916,12.815,11.396,13.149,20.423C499.958,316.907,483.181,322.515,472.888,326.647z"
		/>
	<path fill="#A80059" d="M459.878,256.658c0.054-0.107,0.078-0.234,0.152-0.342c0.391-0.56,0.918-1.003,1.477-1.398
		c-0.675-0.386-1.195-1.038-1.776-1.664c-0.54-0.58-1.092-1.136-1.642-1.712c-0.985,0.267-1.784,0.677-2.487,1.24
		C456.998,254.111,458.385,255.443,459.878,256.658z"/>
	<path fill="#A80059" d="M460.259,259.711c-0.169-0.196-0.281-0.436-0.395-0.674c-0.11,0.704-0.398,1.68-0.47,2.147
		c-0.298,1.938-0.187,3.607,1.144,4.856c0.787-0.627,1.608-1.225,2.539-1.768c0.246-0.865,0.661-1.813,1.374-2.492
		C462.318,261.291,460.788,260.341,460.259,259.711z"/>
	<path fill="#A80059" d="M423.08,304.304c0.184,1.116,0.404,2.107,0.665,2.958c1.509,4.829,4.067,18.564,4.641,22.016
		c0.698-4.026,1.287-9.149,2.105-13.536C426.904,312.993,424.626,308.781,423.08,304.304z"/>
	<path fill="#A80059" d="M451.903,376.175c-0.204,2.772-1.312,9.589-3.509,14.552c1.025-0.894,1.952-2.009,2.751-3.399
		c8.615-15.167,2.349-31.512-2.718-46.704c-2.196-6.578-4.196-13.304-5.197-20.192c-0.266-1.777-0.94-4.512,0.041-6.193
		c0.428-0.728,1.443-1.168,2.135-1.535c2.075-1.086,3.37-2.595,4.67-4.55c6.122-9.167,9.384-21.605,21.282-24.29
		c0.35-1.321,0.782-2.616,1.291-3.877c-2.637,2.007-8.224,3.715-11.079,5.457c-3.416,2.088-5.969,9.141-9.615,15.693
		c-2.47,4.433-5.599,8.971-10.502,10.06c0.399,10.978,2.552,22.512,5.039,33.11C448.893,354.536,452.665,365.544,451.903,376.175z"
		/>
	<path fill="#A80059" d="M481.653,289.809c0.679-3.008,2.165-5.461,3.862-7.862c-1.375-1.077-2.823-2.535-3.939-4.194
		c-1.983,9.265-2.291,16.019-2.084,21.986C482.466,298.498,481.078,292.349,481.653,289.809z"/>
	<path fill="#A80059" d="M436.251,392.868c-2.672-2.69-4.835-6.23-6.048-8.225c-3.081-5.074-5.296-8.67-8.12-13.913
		c1.181,5.223,2.571,10.263,3.225,15.219C428.214,389.181,432.18,391.737,436.251,392.868z"/>
	<path fill="#A80059" d="M472.888,326.647c5.123-2.059,11.848-4.481,17.253-8.107c-0.546,0.084-1.095,0.169-1.655,0.227
		c-6.485,0.64-13.722-0.134-18.911,4.547c-0.281,0.258-0.609,0.242-0.861,0.082c-2.435,1.324-5.107,2.311-7.592,3.037
		c-3.543,1.037-8.088,2.132-11.672,0.594c1.914,4.327,6.5,5.29,11.3,4.221c4.684-1.049,8.744-2.877,13.65-2.62
		c4.68,0.252,8.496,1.53,12.031,3.63c0.986-3.041,1.957-6.094,2.872-9.165C478.089,327.287,470.599,327.575,472.888,326.647z"/>
	<path fill="#A80059" d="M457.661,499.674c-11.403,1.794-23.055,1.756-34.572,1.676c-4.697-0.037-9.447-0.037-14.105,0.579
		c-3.41,0.436-7.412,1.061-10.265,3.205c0.33-0.033,0.671-0.067,1.045-0.081c16.038-0.53,28.607,0.13,44.615-0.97
		c15.707-1.073,32.674-1.141,47.237-7.885c8.696-4.03,17.493-7.794,26.168-11.733c-1.121,0.24-2.246,0.459-3.379,0.648
		c-6.596,1.047-13.268,1.055-19.747,2.859C482.137,491.458,470.605,497.629,457.661,499.674z"/>
	<path fill="#A80059" d="M506.343,495.6c-13.788,2.481-25.074,12.194-38.686,14.893c5.049-0.497,10.033-1.385,14.741-3.426
		c7.266-3.141,14.39-6.728,21.972-9.065c3.816-1.179,8.261-2.577,12.307-4.015C513.236,494.542,509.78,494.984,506.343,495.6z"/>
	<path fill="#A80059" d="M445.537,509.821c-8.032-0.922-15.224-0.194-23.162,1.119c-0.306,0.048-0.613,0.097-0.909,0.142
		c12.985,0.397,26.45,0.539,36.601,0.055C453.868,510.94,449.677,510.294,445.537,509.821z"/>
	<path fill="#A80059" d="M406.949,489.754c0.839-0.345,7.404-3.732,3.63-3.866c-1.73-0.067-3.459,0.203-5.155,0.554
		c-4.013,0.842-7.962,2.013-11.846,3.313c-0.375,1.659-0.668,3.059-1.111,4.411C397.469,493.414,402.176,491.74,406.949,489.754z"/>
	<path fill="#A80059" d="M496.282,455.335c-1.913,1.604-17.3,12.187-11.185,14.935c2.634,1.186,6.392-0.289,9.156-0.639
		c3.716-0.464,7.448-0.873,11.168-1.419c1.703-0.248,3.385-0.531,5.064-0.859c-4.921-5.081-8.711-10.776-9.781-16.641
		C499.445,452.39,497.962,453.924,496.282,455.335z"/>
	<path fill="#A80059" d="M412.705,454.398c1.701-6.494-0.242-12.273-0.82-18.725c-0.076-0.876-0.136-1.741-0.169-2.614
		c-1.112,5.309-1.781,10.781-1.958,16.471c-0.209,6.912-2.418,12.387-5.155,17.405C408.34,463.324,411.424,459.269,412.705,454.398z
		"/>
	<path fill="#A80059" d="M407.285,500.454c4.014-0.568,8.209-0.519,11.487-0.554c11.479-0.107,23.026,0.37,34.46-1.056
		c7.519-0.931,14.629-2.738,21.725-5.397c6.013-2.265,11.958-4.826,18.16-6.551c2.72-0.755,5.437-1.215,8.167-1.574
		c-3.938,0.277-7.866,0.566-11.699,1.136c-11.026,1.635-20.551,8.077-31.466,9.941C441.301,499.266,423.247,494.812,407.285,500.454
		z"/>
	<path fill="#FFCBB0" d="M566.289,285.496c-5.273,8.734-10.536,17.288-15.92,25.798c-2.934,4.641-5.38,9.556-8.339,14.182
		c-1.668,2.598-9.205,11.96-12.179,6.889c-0.576-0.964-3.209-2.707-4.748-3.896c-3.347-2.574-26.763-8.47-31.216-8.265
		c3.781-2.875,8.217-8.458,9.317-13.189c9.35,1.64,21.499,4.873,27.618,7.995c-1.733,3.372-1.274,4.238-0.89,3.951
		c7.141-5.397,8.657-12.977,16.952-22.76c7.477-8.804,13.712-15.675,22.47-21.759c1.555,0.575,3.648,1.524,5.036,2.335
		C570.909,278.406,568.063,282.581,566.289,285.496z"/>
	<path fill="#FFCBB0" d="M573.63,273.603c1.792-0.327,3.999-1.1,5.155-1.732c0.355,1.331,1.752,1.977,1.627,1.52
		c-1.001-3.514-2.094-7.91-2.734-11.997c-0.586-3.826-0.733-9.275,0.64-10.59c4.135,4.459,6.719,13.828,8.149,21.82
		C587.634,279.181,578.511,275.544,573.63,273.603z"/>
	<path fill="#FFCBB0" d="M588.846,272.503c-0.686-3.025-3.111-11.636-3.981-14.204c-1.156-5.024-1.734-11.521-1.03-15.292
		c2.34,0.627,6.322,7.698,7.992,13.355c1.031,3.466,2.644,8.758,2.514,12.212C594.189,272.763,591.516,273.336,588.846,272.503z"/>
	<path fill="#FFCBB0" d="M604.813,256.47c1.216,2.465,1.635,5.033,0.533,6.704c-0.971,1.476-3.232,1.904-5.153,0.306
		c-2.319-1.949-3.798-4.935-5.108-7.606c-2.14-4.36-5.251-11.348-4.409-13.92c1.464-0.519,6.388,3.46,8.913,6.87
		C602.103,252.229,603.602,253.982,604.813,256.47z"/>
	<path fill="#FFCBB0" d="M612.993,249.456c-1.682,1.753-4.335,0.725-6.419,0.106c-2.581-0.76-5.719-2.659-6.888-3.832
		c-1.162-1.165-4.09-4.609-4.305-5.542c3.786-0.797,13.348,1.047,17.612,4.757C614.329,246.111,614.143,248.251,612.993,249.456z"/>
	<path fill="#CF0026" d="M489.705,279.828c-0.037,0.568,3.577,2.319,5.267,2.04c-1.468-1.036-3.034-2.656-4.514-4.514
		C490.016,278.114,489.773,278.958,489.705,279.828z"/>
	<path fill="#CF0026" d="M498.29,267.916c-0.328,0.673-0.596,1.35-0.805,2.049c-0.138,0.472,6.025,0.877,6.895-0.266
		C503.138,269.283,500.875,268.8,498.29,267.916z"/>
	<path fill="#CF0026" d="M495.366,251.974c0.664,0.762,6.329-4.18,6.568-7.483c-2.339,1.674-5.222,3.378-8.293,5.03
		C494.041,250.298,494.71,251.21,495.366,251.974z"/>
	<path fill="#CF0026" d="M477.073,291.169c-1.262,0.269-2.29,0.892-3.131,1.732c-0.38,0.372,1.124,5.527,3.616,5.621
		C477.02,296.233,476.924,293.738,477.073,291.169z"/>
	<path fill="#CF0026" d="M578.532,256.582c0.771-0.612,1.634-1.491,2.191-2.352c-0.73-1.32-1.534-2.483-2.404-3.426
		C577.389,251.698,578.044,256.971,578.532,256.582z"/>
	<path fill="#CF0026" d="M584.727,249.33c1.173-0.122,2.183-1.058,2.881-2.302c-1.346-2.165-2.729-3.747-3.774-4.02
		C583.532,244.656,584.363,249.372,584.727,249.33z"/>
	<path fill="#CF0026" d="M592.846,248.03c1.461,0.331,3.06-0.185,3.602-1.462c0.139-0.312-4.781-4.964-5.772-4.614
		C590.275,243.191,592.582,247.964,592.846,248.03z"/>
	<path fill="#CF0026" d="M600.881,245.105c1.204-1.036,1.191-3.035,0.597-4.738c-2.458-0.407-4.679-0.478-6.097-0.179
		C595.596,241.114,600.567,245.375,600.881,245.105z"/>
	<path fill="#E7B196" d="M483.588,276.399c0.621-1.81,1.583-3.466,3.066-4.596c-1.738-2.943-2.964-5.713-3.163-7.228
		c-1.8,0.674-3.63,1.316-5.436,1.937c0.759,0.118,1.468,0.351,2.064,0.789c2.126,1.567,2.271,4.033,2.017,6.478
		C482.597,274.759,483.083,275.619,483.588,276.399z"/>
	<path fill="#E7B196" d="M491.982,264.935c-1.142-0.725-2.235-1.565-3.241-2.561c-1.3,0.612-2.62,1.182-3.962,1.704
		c0.74,1.159,1.342,2.414,1.931,3.696c1.552,1.054,3.163,1.825,4.75,2.397C491.275,268.407,491.394,266.546,491.982,264.935z"/>
	<path fill="#E7B196" d="M471.476,260.582c-0.542,0.312-1.031,0.606-1.414,0.876c-0.37,1.207-0.748,5.16,0.93,6.695
		c0.632-0.13,1.297-0.409,1.932-0.736C471.331,265.53,471.071,262.995,471.476,260.582z"/>
	<path fill="#E7B196" d="M474.366,276.155c-7.294-0.721-16.213,6.294-19.695,11.811c-2.801,4.438-4.589,9.334-6.289,14.264
		c2.293-3.445,4.115-7.677,6.127-11.411c1.737-3.204,2.891-6.378,6.438-7.83c4.37-1.794,8.282-3.541,12.613-5.457
		C473.812,276.945,474.094,276.502,474.366,276.155z"/>
	<path fill="#E7B196" d="M425.944,329.158c-1.762,8.526-2.685,17.385-1.276,25.986c0.957,5.906,2.911,11.369,5.72,16.387
		c-4.117-10.954-4.524-22.624-3.156-34.374C426.945,334.412,426.491,331.759,425.944,329.158z"/>
	<path fill="#E7B196" d="M444.192,345.953c-0.934,9.677,0.969,19.613,1.459,29.236c0.336,6.542-1.216,12.457-3.219,18.324
		c0.024,0,0.034,0.002,0.059,0c3.579-0.528,5.066-9.581,5.694-12.959c1.607-8.644-0.262-18.458-2.227-26.894
		C445.356,351.089,444.764,348.522,444.192,345.953z"/>
	<path fill="#E7B196" d="M569.617,278.97c0.393,0.14,0.801,0.292,1.21,0.454c1.1-1.1,2.295-2.049,3.562-2.647
		c-1.388-0.812-3.481-1.761-5.036-2.335c-1.536,1.07-2.977,2.167-4.362,3.286C566.635,278.026,568.23,278.473,569.617,278.97z"/>
	<path fill="#E7B196" d="M502.29,321.479c2.173-4.442,3.867-9.031,4.512-13.792c-1.232-0.251-2.434-0.473-3.598-0.673
		c-1.101,4.732-5.536,10.314-9.317,13.189C495.263,320.137,498.452,320.653,502.29,321.479z"/>
	<path fill="#E7B196" d="M548.716,309.718c-3.514,3.905-6.887,7.98-9.744,12.4c-1.882,2.916-5.52,7.301-4.606,11.088
		c3.133-1.65,6.603-6.067,7.665-7.731c2.959-4.626,5.405-9.541,8.339-14.182c1.888-2.993,3.75-6.006,5.626-9.014
		C553.491,304.689,551.047,307.144,548.716,309.718z"/>
	<path fill="#E7B196" d="M579.646,273.191c-0.343-0.279-0.704-0.722-0.861-1.32c-1.156,0.633-3.363,1.406-5.155,1.732
		c1.397,0.554,3.159,1.252,4.921,1.802C578.815,274.627,579.188,273.882,579.646,273.191z"/>
	<path fill="#E7B196" d="M584.47,256.423c0.118,0.643,0.257,1.279,0.394,1.876c0.87,2.568,3.295,11.179,3.981,14.204
		c0.88,0.267,1.762,0.389,2.556,0.275C590.096,267.014,587.608,261.449,584.47,256.423z"/>
	<path d="M548.375,191.132c-3.678,0.734-6.851,1.916-9.769,4.335c-0.654,0.545,0.11,1.482,0.815,1.306
		c3.466-0.873,6.342-2.61,9.347-4.481C549.334,191.936,549.096,190.986,548.375,191.132z"/>
	<path d="M547.326,182.923c-1.504-0.833-9.177-3.293-9.978-3.198c-0.813,0.085-1.252,1.456-0.548,1.798
		c1.318,0.661,8.072,2.349,10.154,2.52C547.534,184.092,547.874,183.217,547.326,182.923z"/>
	<path d="M546.427,163.847c-0.529-0.734-1.87-0.2-1.498,0.725c1.438,3.625,3.768,7.559,5.617,9.192
		c0.459,0.416,1.254,0.054,1.065-0.521C550.479,169.719,547.444,165.243,546.427,163.847z"/>
	<path d="M561.43,161.919c-0.139-0.704-1.107-0.584-1.217,0.082c-0.539,3.248-0.439,6.288,0.188,9.14
		c0.106,0.475,0.75,0.519,0.861,0.033C561.918,168.106,562.093,165.25,561.43,161.919z"/>
	<path d="M570.852,165.877c-1.538,1.197-2.528,2.832-3.375,4.523c-0.265,0.51,0.426,0.81,0.842,0.476
		c1.106-0.889,2.62-2.586,3.313-3.951C571.955,166.3,571.507,165.359,570.852,165.877z"/>
	<path d="M577.815,199.785c-1.879,0-3.393,1.525-3.393,3.399c0,1.882,1.515,3.405,3.393,3.405c1.882,0,3.395-1.523,3.395-3.405
		C581.21,201.31,579.697,199.785,577.815,199.785z"/>
	<path d="M588.475,187.249c-2.889,0-2.781,4.445,0.085,4.445C591.43,191.694,591.333,187.249,588.475,187.249z"/>
	<path d="M578.044,208.769c-2.047-0.392-3.708-0.797-4.708-2.802c-0.746-1.497-0.88-3.78-0.263-5.344
		c0.068-0.18-0.155-0.349-0.297-0.198c-1.779,1.893-1.805,4.378-0.73,6.651c1.057,2.243,3.851,3.881,6.055,2.331
		C578.318,209.257,578.375,208.836,578.044,208.769z"/>
	<path d="M472.375,323.56c-7.299,2.252-14.455,5.928-22.334,4.967c-0.342-0.045-0.56,0.422-0.219,0.595
		c7.286,3.816,16.843-0.57,23.064-4.685C473.41,324.097,472.888,323.395,472.375,323.56z"/>
	<path d="M242.693,139.579c-1.488,0-2.693,1.198-2.693,2.683c0,1.485,1.204,2.692,2.693,2.692c1.482,0,2.686-1.207,2.686-2.692
		C245.378,140.777,244.175,139.579,242.693,139.579z"/>
	<path d="M262.85,139.065c-1.482,0-2.686,1.207-2.686,2.692c0,1.482,1.204,2.679,2.686,2.679c1.486,0,2.69-1.197,2.69-2.679
		C265.54,140.272,264.336,139.065,262.85,139.065z"/>
	<path d="M249.051,205.179c-1.07,0.185-1.922,0.84-2.109,1.985c-0.21,1.27,0.689,2.514,1.965,2.717c1.588,0.264,2.764-0.721,2.949-2
		C252.056,206.461,250.888,204.866,249.051,205.179z"/>
	<path d="M248.278,213.78c-2.572,0.577-5.191-1.552-5.41-4.254c-0.029-0.345-0.577,0.352-0.621,1.191
		c-0.044,0.891-0.052,2.162,1.109,3.416c1.169,1.253,3.063,1.18,3.944,0.892C248.099,214.757,248.841,213.649,248.278,213.78z"/>
	<path d="M299.217,305.952c-4.347-1.612-10.134,1.999-12.095,5.93c-0.201,0.395,0.288,0.728,0.625,0.516
		c3.718-2.244,8.161-3.977,11.664-5.07C300.076,307.114,299.838,306.173,299.217,305.952z"/>
	<path d="M443.24,151.907c-1.95-0.01-5.987,2.898-8.74,3.847c-1.763,0.603-3.753,0.492-4.912-0.821
		c-0.233-0.266-0.31,1.423,1.246,2.232c3.666,1.916,10.423-3.271,11.657-3.245c2.185,0.03-1.583,9.326-8.766,11.357
		c-0.571,0.158,1.027,0.689,2.685,0.134c3.75-1.253,6.914-3.753,8.418-8.913C445.755,153.292,444.576,151.917,443.24,151.907z"/>
	<path d="M427.516,153.354c-1.025,0.322-3.041,0.033-3.928-1.271c1.05-0.227,3.287-0.794,4.306-1.216
		c0.521-0.212-1.068-0.879-2.84-0.752c-2.402-4.106-4.509-8.57-6.366-13.112c-1.137-2.802-3.039-8.011-6.702-8.108
		c-3.274-0.087-4.242,5.323-4.292,7.565c-0.154,5.887,3.656,13.1-0.036,18.411c-1.342,0.824-2.595,1.738-3.636,2.79
		c-0.249,0.246,0.034,0.67,0.357,0.561c0.858-0.3,1.7-0.637,2.541-0.982c-1.309,1.973-1.883,4.672-1.48,6.524
		c0.086,0.34,0.633,0.357,0.675,0.015c0.213-1.636,0.785-3.098,1.471-4.482c0.777-1.567,2.125-3.386,4.4-4.16
		c0.643,2.902,0.288,5.241-0.97,7.357c-0.134,0.233,0.821,0.118,1.362-0.603c1.093-1.462,2.446-4.393,0.384-7.062
		c1.13-0.446,2.266-0.867,3.441-1.219c-0.198,0.609-0.168,1.355-0.079,1.991c0.184,1.373,0.928,2.54,2.083,3.28
		c0.266,0.17,0.574-0.154,0.378-0.407c-0.699-0.886-1.306-3.213-0.81-5.282c0.871-0.201,1.541-0.401,2.413-0.558
		c-0.146,0.592,0.11,2.816,2.552,3.978c0.257,0.127,0.606-0.149,0.376-0.398c-0.798-0.874-1.588-2.102-1.821-3.677
		c0.153-0.033,0.794-0.122,0.948-0.154c0.724,1.946,3.827,2.756,5.355,1.45C427.752,153.708,427.732,153.289,427.516,153.354z"/>
	<path fill="#FFFFFF" d="M410.029,153.568c0.871-1.989,0.825-4.374,0.638-6.597c-0.135-1.65-3.032-18.206,2.095-15.408
		c2.813,1.531,4.615,5.791,5.999,9.496c-2.07-0.276-4.385,1.276-5.457,2.986c-1.495,2.393-2.005,5.83-0.621,8.367
		C411.791,152.762,410.902,153.144,410.029,153.568z"/>
	<path fill="#9ED6ED" d="M421.449,146.549c-2.477-2.67-5.455-0.719-6.221,0.921c-0.499,1.061-0.738,2.962-0.158,4.056
		c-0.628,0.215-1.265,0.457-1.902,0.701c-0.749-2.182-0.592-4.562,0.322-6.685c0.545-1.256,1.558-2.356,2.754-2.987
		c1.032-0.542,2.009-0.691,3.008-0.507C419.63,143.073,421.059,145.528,421.449,146.549z"/>
	<path d="M447.245,147.726c-0.444-0.189-1.943-0.2-2.413-0.3c-1.518-3.211-2.892-6.115-4.152-9.562
		c-0.867-2.385-1.241-4.957-2.036-7.373c-0.952-2.89-3.422-6.86-6.898-4.76c-3.048,1.84-2.766,7.156-2.581,10.12
		c0.284,4.678,2.699,11.036,2.042,14.871c-0.168,0.971,0.758,0.031,1.012-0.539c0.754,0.027,1.908,0.06,2.664,0.06
		c-0.012,0.116-0.011,0.234,0.05,0.352c0.384,0.879-0.213,1.738-1.021,2.091c-0.216,0.097-0.121,0.416,0.111,0.352
		c0.615-0.187,1.182-0.334,1.668-0.792c0.542-0.515,0.587-1.155,0.65-1.856c0-0.06-0.04-0.11-0.046-0.178
		c0.625-0.013,1.243-0.037,1.871-0.061c0.228,0.466,0.457,0.891-0.066,1.577c-0.145,0.179,0.066,0.385,0.252,0.296
		c0.6-0.319,1.231-0.815,1.242-1.568c0-0.118-0.011-0.24-0.033-0.361c1.339-0.066,2.611-0.073,3.853-0.2
		c0.385,0.436,0.943,0.755,1.489,1.039c0.769,0.393,1.746,0.643,2.516,0.172c0.178-0.1,0.246-0.352,0.048-0.488
		c-0.668-0.442-1.451-0.616-2.141-1.037c0.664-0.157,1.329-0.375,2.01-0.68C447.894,148.651,447.731,147.924,447.245,147.726z"/>
	<path fill="#FFFFFF" d="M431.029,128.977c1.239-4.127,4.862-1.398,5.619,0.609c0.793,2.074,1.473,5.132,2.319,8.062
		c-1.462-0.022-3.575,1.219-4.315,2.39c-1.551,2.441-2.03,6.246-0.93,8.95c-0.313,0.081-1.162,0.072-1.471,0.149
		C432.988,142.5,429.001,135.729,431.029,128.977z"/>
	<path fill="#9ED6ED" d="M436.396,148.53c-0.747,0.2-1.408,0.321-2.265,0.352c-0.594-2.159-0.234-4.674,0.507-6.728
		c0.789-2.177,2.381-3.523,4.82-3.159c0.383,1.112,1.145,3.017,1.713,4.157C437.14,141.927,435.49,145.713,436.396,148.53z"/>
	<path fill="#79C6E6" d="M420.301,145.677c0.387,0.203,0.777,0.468,1.148,0.871c-0.389-1.021-1.818-3.475-2.197-4.502
		c-0.246-0.046-0.495-0.055-0.746-0.055C419.081,143.227,419.677,144.463,420.301,145.677z"/>
	<path fill="#79C6E6" d="M415.166,147.641c-0.676-0.37-1.359-0.753-2.031-1.107c-0.587,1.859-0.604,3.845,0.033,5.693
		c0.636-0.245,1.274-0.487,1.902-0.701C414.516,150.479,414.716,148.723,415.166,147.641z"/>
	<path fill="#79C6E6" d="M436.302,145.74c-0.745-0.531-1.476-1.07-2.207-1.613c-0.318,1.574-0.377,3.25,0.037,4.756
		c0.857-0.031,1.518-0.152,2.265-0.352C436.11,147.632,436.084,146.635,436.302,145.74z"/>
	<path d="M441.941,129.042c-1.624-4.512-4.798-8.862-8.99-11.254c-4.75-2.698-7.499,1.122-7.221,5.676
		c0.023,0.455,0.674,0.531,0.847,0.134c1.471-3.423,3.167-4.262,6.166-1.829c2.913,2.35,5.492,5.173,8.021,7.913
		C441.214,130.158,442.185,129.717,441.941,129.042z"/>
	<path d="M500.588,128.319c0.152-0.375-0.402-0.682-0.57-0.294c-2.775,6.458-7.054,12.063-9.792,18.545
		c-3.336,7.871,0.697,16.19-1.928,24.272c-1.957,6.01-8.674,8.511-13.229,12.073c-5.561,4.357-4.973,18.466-15.775,15.796
		c-0.909-0.219-1.291,1.198-0.371,1.404c4.589,1.034,7.595-0.682,10.328-4.408c1.841-2.516,2.899-6.088,4.329-8.807
		c2.196-4.186,7.063-6.402,10.637-9.247c4.209-3.347,6.378-8.646,6.083-13.989c-0.384-6.816-0.905-12.597,1.919-19.1
		C494.647,138.953,498.35,134.063,500.588,128.319z"/>
	<path d="M490.589,139.529c-4.028,5.527-5.841,10.868-6.297,17.688c-0.432,6.267,0.606,14.762-5.441,18.825
		c-0.176,0.122-0.015,0.388,0.164,0.279c4.201-2.544,5.617-7.315,6.266-11.967c1.176-8.528,0.875-17.081,5.551-24.646
		C490.926,139.556,490.692,139.382,490.589,139.529z"/>
	<path d="M492.491,493.057c-12.973,4.124-25.965,6.804-39.593,7.562c-0.233,0.018-0.2,0.34,0.025,0.358
		c13.14,0.577,28.19-0.577,39.783-7.325C492.999,493.48,492.854,492.935,492.491,493.057z"/>
	<path d="M503.294,484.137c-9.127,3.919-17.738,8.32-27.508,10.617c-0.195,0.039-0.14,0.354,0.057,0.334
		c9.781-1.17,19.589-4.929,27.724-10.493C503.824,484.413,503.567,484.021,503.294,484.137z"/>
	<path d="M309.279,340.943c-2.016,0.057-4.121,1.997-5.42,3.356c-1.616,1.688-2.745,4.056-1.962,6.381
		c0.069,0.198,0.342,0.1,0.309-0.1c-0.432-2.458,0.702-4.497,2.358-6.224c1.415-1.462,3.183-2.026,4.817-3.078
		C309.533,341.179,309.455,340.934,309.279,340.943z"/>
	<path d="M320.571,336.831c-4.382,1.644-7.479,7.976-4.297,11.921c0.109,0.13,0.319-0.043,0.231-0.193
		c-2.775-4.587,0.745-8.643,4.232-11.39C320.905,337.037,320.789,336.753,320.571,336.831z"/>
	<path d="M326.748,333.96c-0.668-0.119-1.236,0.231-1.899,0.366c-1.134,0.227-1.981-0.087-2.735-0.937
		c-1.325-1.489-1.606-3.914-1.727-5.809c-0.016-0.193-0.322-0.193-0.322,0.007c0.05,2.194,0.297,4.596,1.783,6.336
		c1.046,1.21,4.021,2.04,5.079,0.472C327.042,334.223,326.956,334.006,326.748,333.96z"/>
	<path d="M327.708,328.648c-1.148-1.073-1.954-1.982-2.42-3.531c-0.403-1.343-0.524-2.758-0.693-4.147
		c-0.016-0.166-0.277-0.166-0.264,0.004c0.239,2.355,0.343,7.177,3.222,7.985C327.741,329.009,327.831,328.761,327.708,328.648z"/>
	<path d="M261.019,311.503c-0.146-0.143-0.346,0.077-0.216,0.219c1.528,1.743,3.489,3.084,4.59,5.168
		c1.782,3.393-0.069,8.284-4.452,6.771c-0.166-0.051-0.26,0.222-0.104,0.29c2.853,1.301,5.192-0.307,5.69-3.278
		C267.225,316.52,263.534,314.048,261.019,311.503z"/>
	<path d="M253.469,340.843c-2.547-1.15-4.206-2.957-4.734-5.739c-0.025-0.172-0.319-0.14-0.342,0.027
		c-0.369,3.044,2.411,5.066,4.964,6.002C253.524,341.194,253.626,340.918,253.469,340.843z"/>
	<path d="M254.702,339.001c-1.834-0.592-4.55-2.744-3.145-4.839c0.113-0.182-0.064-0.409-0.256-0.292
		c-1.252,0.767-1.227,2.004-0.42,3.146c0.856,1.189,2.334,1.986,3.753,2.256C254.816,339.315,254.878,339.051,254.702,339.001z"/>
	<path d="M305.028,367.671c-2.778,3.181-7.789,2.303-10.531-0.415c-0.12-0.131-0.354,0.049-0.248,0.194
		c2.716,3.481,8.533,4.656,11.093,0.422C305.452,367.691,305.165,367.506,305.028,367.671z"/>
	<path d="M312.049,366.112c-0.954,0.654-1.923,1.061-3.054,1.28c-1.461,0.275-2.517-0.652-3.375-1.698
		c-0.018-0.021-0.048-0.024-0.078-0.034c0.118-0.298,0.21-0.607,0.264-0.953c0.033-0.193-0.245-0.355-0.368-0.167
		c-0.792,1.146-1.506,2.27-2.695,3.057c-1.717,1.124-3.74,0.512-5.254-0.645c-0.183-0.136-0.412,0.116-0.236,0.266
		c2.511,2.098,6.663,1.8,8.113-1.121c1.236,3.174,4.801,1.947,6.859,0.236C312.356,366.227,312.185,366.018,312.049,366.112z"/>
	<path d="M395.478,150.161c0.083-0.182-0.171-0.312-0.274-0.14c-5.949,9.974,0.419,19.004,4.761,28.217
		c0.114,0.227,0.469,0.115,0.383-0.136C397.311,168.725,390.963,160.206,395.478,150.161z"/>
	<path d="M347.099,172.227c-0.623-4.43-3.534-6.509-6.758-9.281c-0.151-0.13-0.398,0.069-0.271,0.236
		c2.991,4.145,5.409,7.795,5.565,13.194c0.089,3.038,0.42,5.157,1.95,7.794c0.131,0.227,0.469,0.028,0.387-0.209
		C346.643,180.105,347.651,176.15,347.099,172.227z"/>
	<path d="M463.362,117.048c-7.219,4.659-17.486,4.468-24.361-0.588c-0.383-0.27-0.853,0.104-0.631,0.537
		c4.327,8.268,19.747,5.846,25.207,0.303C463.711,117.168,463.518,116.948,463.362,117.048z"/>
	<path d="M206.715,69.808c-0.159,0.058-0.096,0.323,0.076,0.269c9.736-3.386,17.353,7.344,11.066,15.425
		c-0.143,0.183,0.103,0.405,0.259,0.235C225.744,77.629,216.634,65.886,206.715,69.808z"/>
	<path d="M250.579,115.231c-5.881-7.249-14.085,1.247-16.898,6.962c-0.109,0.222,0.219,0.422,0.366,0.23
		c3.932-4.947,9.507-9.735,15.965-6.497C250.417,116.127,250.869,115.587,250.579,115.231z"/>
	<path d="M262.874,101.731c-3.612,0.222-6.494,1.515-10.137,0.273c-2.916-0.994-5.513-2.29-8.602-2.691
		c-0.171-0.03-0.246,0.22-0.065,0.262c5.735,1.3,13.694,8.143,19.101,2.826C263.42,102.162,263.217,101.709,262.874,101.731z"/>
	<path d="M287.458,91.876c-2.609-5.778-12.616-6.639-17.705-4.638c-0.157,0.064-0.093,0.319,0.069,0.263
		c2.887-1.054,5.772-0.855,8.719-0.137c3.44,0.833,5.62,3.09,8.537,4.794C287.267,92.274,287.567,92.122,287.458,91.876z"/>
	<path d="M204.522,151.44c-0.701-1.865-1.956-3.492-2.703-5.357c-0.813-2.038-1.329-4.239-1.61-6.409
		c-0.029-0.248-0.374-0.218-0.374,0.024c0.057,3.621,0.879,9.992,4.235,12.127C204.344,152.004,204.618,151.713,204.522,151.44z"/>
	<path d="M209.007,102.334c-0.09,3.047-1.429,5.336-3.171,7.761c-0.102,0.145,0.136,0.318,0.233,0.176
		c1.773-2.295,3.621-4.991,3.754-7.979C209.848,101.768,209.025,101.809,209.007,102.334z"/>
	<path fill="#FFFFFF" d="M440.751,143.976c-0.707,0-1.276,0.563-1.276,1.264c0,0.7,0.569,1.276,1.276,1.276
		c0.703,0,1.271-0.576,1.271-1.276C442.022,144.539,441.454,143.976,440.751,143.976z"/>
	<path fill="#FFFFFF" d="M579.5,200.904c-0.579-0.412-1.25-0.431-1.525-0.049c-0.277,0.388-0.03,1.022,0.536,1.43
		c0.57,0.41,1.253,0.427,1.531,0.046C580.313,201.95,580.067,201.31,579.5,200.904z"/>
	<path fill="#FFFFFF" d="M576.083,204.393c-0.281-0.206-0.615-0.21-0.76-0.025c-0.128,0.193-0.01,0.507,0.273,0.71
		c0.282,0.206,0.618,0.215,0.754,0.021C576.487,204.915,576.37,204.59,576.083,204.393z"/>
	<path fill="#FFFFFF" d="M420.021,146.59c-0.701,0-1.265,0.566-1.265,1.268c0,0.697,0.564,1.267,1.265,1.267
		c0.7,0,1.273-0.57,1.273-1.267C421.294,147.156,420.721,146.59,420.021,146.59z"/>
	<path fill="#FFFFFF" d="M263.805,140.238c-0.495,0-0.896,0.409-0.896,0.903c0,0.489,0.401,0.894,0.896,0.894
		c0.492,0,0.899-0.404,0.899-0.894C264.704,140.647,264.296,140.238,263.805,140.238z"/>
	<path fill="#FFFFFF" d="M263.093,139.556c-0.204,0-0.38,0.17-0.38,0.38c0,0.213,0.175,0.391,0.38,0.391
		c0.216,0,0.393-0.178,0.393-0.391C263.486,139.726,263.309,139.556,263.093,139.556z"/>
	<path fill="#FFFFFF" d="M243.411,140.144c-0.21,0-0.382,0.17-0.382,0.38c0,0.215,0.172,0.384,0.382,0.384s0.383-0.169,0.383-0.384
		C243.794,140.314,243.621,140.144,243.411,140.144z"/>
	<path fill="#FFFFFF" d="M243.931,140.99c-0.565,0-1.023,0.449-1.023,1.019c0,0.555,0.458,1.016,1.023,1.016
		c0.56,0,1.021-0.461,1.021-1.016C244.952,141.439,244.491,140.99,243.931,140.99z"/>
	<path fill="#FFFFFF" d="M418.496,146.001c-0.251,0-0.446,0.209-0.446,0.458c0,0.248,0.195,0.457,0.446,0.457
		c0.249,0,0.454-0.209,0.454-0.457C418.95,146.21,418.745,146.001,418.496,146.001z"/>
	<path fill="#FFFFFF" d="M439.048,143.582c-0.252,0-0.451,0.198-0.451,0.455c0,0.248,0.199,0.454,0.451,0.454
		c0.253,0,0.457-0.206,0.457-0.454C439.506,143.781,439.301,143.582,439.048,143.582z"/>
	<path fill="#FFB2AB" d="M427.641,224.298c3.885,0.918,5.94,3.884,2.058,2.971C426.884,226.602,425.037,223.684,427.641,224.298z"/>
	<path fill="#FFE1CF" d="M433.749,158.291c1.876-0.133,5.317-1.716,6.877-2.658c1.568-0.931-0.779,2.966-3.122,4.223
		C435.159,161.108,431.563,158.449,433.749,158.291z"/>
	<path fill="#FFE1CF" d="M448.599,152.198c2.301-1.732,5.907-2.232,7.503,0.163C457.347,154.229,446.095,154.074,448.599,152.198z"
		/>
	<path fill="#FFE1CF" d="M477.202,258.633c2.088-0.977,5.943-2.972,7.658-3.438c1.717-0.472-1.251,2.971-2.815,3.751
		C480.478,259.729,474.857,259.729,477.202,258.633z"/>
	<path fill="#FFE1CF" d="M437.661,295.046c0.204-3.645,5.002-11.411,8.596-13.907C449.854,278.64,437.191,303.181,437.661,295.046z"
		/>
	<path fill="#FFE1CF" d="M405.611,263.001c3.067,0.903,7.686,9.233,7.509,15.171C412.807,288.802,399.21,261.136,405.611,263.001z"
		/>
	<path fill="#FFE1CF" d="M419.369,312.398c1.237,4.274,2.966,12.345,3.29,15.625c0.307,3.283-4.534-1.556-5.162-5.466
		C416.874,318.646,417.03,304.27,419.369,312.398z"/>
	<path fill="#FFE1CF" d="M434.85,349.128c-0.246-7.174-1.763-14.03-2.661-11.567c-2.095,5.778-1.836,16.132,0,21.877
		C433.986,365.072,435.105,356.968,434.85,349.128z"/>
	<path fill="#FFE1CF" d="M549.096,301.456c-4.775,6.378-11.172,12.515-8.912,7.036c1.682-4.083,9.419-15.095,12.974-17.19
		C556.486,289.33,553.568,295.475,549.096,301.456z"/>
	<path fill="#FFE1CF" d="M514.559,310.991c3.431,0.16,9.686,2.186,11.709,3.59c2.037,1.407-3.741,0.937-6.554,0.157
		C516.901,313.951,511.271,310.833,514.559,310.991z"/>
	<path fill="#FFE1CF" d="M600.373,255.97c-1.616-3.715-2.613-7.692-0.334-4.997c1.861,2.189,4.651,7.022,4.23,9.225
		C603.816,262.5,601.85,259.35,600.373,255.97z"/>
	<path fill="#FFE1CF" d="M605.664,242.064c1.919,0.479,6.227,2.037,6.734,4.375C613.171,250.037,602.544,241.279,605.664,242.064z"
		/>
	<path fill="#E77D94" d="M417.318,260.027c4.027-0.848,14.985-2.549,17.807-2.549c2.83,0-3.391,5.661-5.934,6.225
		C426.648,264.271,411.944,261.157,417.318,260.027z"/>
	<path fill="#E77D94" d="M490.272,290.284c2.405,2.41,7.068,8.198,7.068,9.895c0,1.697-6.785-1.128-8.197-2.829
		C487.725,295.659,485.467,285.478,490.272,290.284z"/>
	<path fill="#E77D94" d="M477.826,394.908c4.344,3.978,8.763,11.314,9.899,16.966c1.132,5.658-20.64,6.5-23.19,2.255
		C461.996,409.894,471.04,388.684,477.826,394.908z"/>
	<path fill="#E77D94" d="M439.653,495.011c7.377,0,21.849-0.676,29.406-3.954c8.485-3.677,15.839-6.51,20.083-6.51
		c4.234,0-6.227-3.666-15.556-0.564c-9.322,3.113-19.228,6.224-23.187,6.791C446.437,491.331,432.303,495.011,439.653,495.011z"/>
	<path fill="#E77D94" d="M462.275,485.682c5.387-2.241,12.443-4.244,18.375-4.529c5.94-0.275,9.337,0.566,11.602,1.139
		c2.258,0.56-3.11-7.076-14.708-4.815C465.953,479.743,455.486,488.508,462.275,485.682z"/>
	<path fill="#E77D94" d="M424.381,408.767c-3.369,4.214-7.911,14.138-8.482,19.791c-0.564,5.655,9.901-5.09,10.749-7.07
		C427.498,419.515,428.91,403.115,424.381,408.767z"/>
	<path fill="#E77D94" d="M525.898,484.546c-5.823,2.811-12.195,7.361-8.483,7.071c4.241-0.324,14.118-5.64,16.398-7.915
		C536.752,480.763,531.6,481.805,525.898,484.546z"/>
	<path fill="#FFE9DB" d="M263.02,157.231c6.362,1.334,20.172,8.432,24.206,13.204c4.033,4.759-7.337,0-13.204-2.938
		C268.156,164.565,256.059,155.763,263.02,157.231z"/>
	<path fill="#FFE9DB" d="M214.622,154.662c9.899-7.334,13.2-1.462,15.035,1.832C231.488,159.795,211.027,157.33,214.622,154.662z"/>
	<path fill="#FFE9DB" d="M212.421,133.765c-0.288-3.681,1.462-11.372,4.038-16.501c2.563-5.136,7.695,9.532,6.963,12.827
		C222.692,133.395,212.789,138.528,212.421,133.765z"/>
	<path fill="#FFE9DB" d="M242.862,229.1c1.458,2.935-0.374,9.169-5.869,8.802C231.488,237.538,240.672,224.727,242.862,229.1z"/>
	<path fill="#FFE9DB" d="M291.912,357.595c-0.251-3.196,3.316-11.073,6.061-12.127C304.676,342.917,292.55,365.891,291.912,357.595z
		"/>
	<path fill="#FFE9DB" d="M260.642,334.934c-2.334,5.263-1.271,12.777,1.275,16.921c2.556,4.142-6.374-1.917-6.374-8.302
		C255.543,337.18,261.915,332.074,260.642,334.934z"/>
	<path fill="#CCBDAB" d="M205.968,306.237c3.357,7.379,9.428,25.74,10.516,33.714c1.085,7.971-5.798-5.442-8.342-13.049
		C205.607,319.281,202.342,298.255,205.968,306.237z"/>
	<path fill="#CCBDAB" d="M190.019,256.201c2.729,7.285,6.156,17.764,7.607,23.567c1.453,5.797-6.521-6.527-7.607-11.245
		C188.927,263.81,187.842,250.401,190.019,256.201z"/>
	<path fill="#CCBDAB" d="M227.36,364.603c4.11-3.563,13.054-8.704,15.952-10.147c2.898-1.453-3.986,5.796-6.526,7.609
		C234.247,363.877,221.924,369.317,227.36,364.603z"/>
	<path fill="#CCBDAB" d="M196.175,434.937c9.446-1.711,25.023-0.724,32.638,1.091c7.612,1.816-2.179-6.881-14.865-6.524
		C201.256,429.87,188.204,436.392,196.175,434.937z"/>
	<path fill="#CCBDAB" d="M279.211,401.226c0,11.261-0.73,30.454-0.73,36.975c0,6.528-10.513-11.951-10.151-20.662
		C268.691,408.835,279.211,389.979,279.211,401.226z"/>
	<path fill="#E3B7BB" d="M298.599,317.725c3.156-2.626,8.164-4.832,12.515-4.832s-4.282-5.155-10.157-1.949
		C295.83,313.75,296.423,319.541,298.599,317.725z"/>
	<path fill="#BF5B63" d="M304.29,322.837c2.742-1.197,8.86-3.698,11.339-4.944c1.84-0.919,0.204,3.714,0,5.566
		C315.414,325.319,300.991,324.288,304.29,322.837z"/>
	<path fill="#86847F" d="M278.773,485.75c0.471,5.197,0.895,18.228,0,26.597c-0.905,8.365-5.679-7.477-5.382-11.948
		C273.692,495.91,278.171,479.18,278.773,485.75z"/>
</g>
</svg>
