<?xml version="1.0" encoding="utf-8"?>
<!-- Generator: Adobe Illustrator 16.0.0, SVG Export Plug-In . SVG Version: 6.00 Build 0)  -->
<!DOCTYPE svg PUBLIC "-//W3C//DTD SVG 1.1//EN" "http://www.w3.org/Graphics/SVG/1.1/DTD/svg11.dtd">
<svg version="1.1" id="Layer_1" xmlns="http://www.w3.org/2000/svg" xmlns:xlink="http://www.w3.org/1999/xlink" x="0px" y="0px"
	 width="39.5px" height="50.125px" viewBox="0 0 39.5 50.125" enable-background="new 0 0 39.5 50.125" xml:space="preserve">
<g>
	<g>
		<path fill="#D63C3C" d="M7.658,21.957c0.075-0.456,1.435-7.675,6.66-8.243c2.836-0.795,5.978,0.148,8.364,1.719
			c1.848,1.218,4.27,4.985,4.323,5.065c0.159,0.086,1.753,1.258,2.345,1.801c1.155,1.063,2.271,2.279,3.001,3.679
			c3.608,6.921-1.778,12.386-3.784,13.533c-2.445,1.396-5.031,2.48-7.818,2.736c-4.01,0.368-17.847-0.874-15.956-12.614
			C5.528,25.072,7.16,22.856,7.658,21.957z"/>
		<path fill="#B32C2B" d="M4.487,29.779c0.734-4.56,2.367-6.775,2.865-7.675c0.065-0.403,1.137-6.078,4.986-7.791
			c-0.348,0.394-0.671,0.824-0.959,1.303c-0.7,1.399,0,2.448,0.7,3.848c0.35,0.699-0.35,1.749-0.7,2.449
			C9.28,25.411,3.683,31.008,8.93,33.457c2.799,1.399,5.598,3.148,8.396,4.896c5.598,4.198,9.445-2.798,13.993-5.945
			c0.33-0.331,1.127-0.579,1.877-0.533c-0.47,4.057-3.529,6.979-4.936,7.782c-2.443,1.396-5.031,2.48-7.816,2.736
			C16.433,42.762,2.595,41.52,4.487,29.779z"/>
		<path fill="#B32C2B" d="M19.041,24.582c1.125-0.165,2.874-0.285,3.679,0.674c0.301,0.357,0.933,0.227,1.167-0.14
			c0.49,0.301,0.959,0.637,1.411,0.965c1.333,0.966,2.868,2.107,2.921,3.941c0.07,2.511-1.096,11.453-3.31,11.268
			c-1.489-0.125-3.61-8.257-5.099-8.154c-1.95,0.134-2.896-0.34-4.388-1.544c-0.576-0.465-1.276-0.854-1.761-1.411
			c-0.794-0.911,0.252-1.953,0.775-2.564C15.676,26.165,17.059,24.874,19.041,24.582z"/>
	</g>
	<g>
		<g>
			<g>
				<path fill="#E9B388" d="M29.752,19.625c0.162-0.246,0.515-0.383,0.675-0.63c0.11,0.057,0.387,0.292,0.519,0.308
					c0.1,0.012,0.2,0.01,0.301,0.011c0.111,0.001,0.224,0.009,0.335,0.02c0.208,0.119,0.507,0.291,0.768,0.477
					c0.061,0.143,0.066,0.334,0.051,0.515c-0.031,0.142-0.091,0.278-0.167,0.411c-0.211,0.369-0.537,0.667-0.846,0.959
					c-0.008-0.003-0.016-0.005-0.023-0.009c-0.103,0.007-0.524-0.219-0.761-0.806c-0.114-0.283-0.893-0.446-1.139-0.63
					C29.58,20.066,29.631,19.806,29.752,19.625z"/>
				<path fill="#F6F7F4" d="M21.239,12.497c0.169,0.554,0.536,0.661,0.847,1.151c0.899,1.414,0.487,1.424,1.011,3.018
					c0.065,0.206,0.259,1.345,1.575,2.31c0.09,0.115,2.162,0.964,3.76,1.605c0.099,0.04,0.195,0.079,0.289,0.116
					c0.056,0.022,0.108,0.043,0.162,0.065c0.115,0.045,0.229,0.091,0.335,0.134c0.063,0.025,0.124,0.05,0.184,0.073
					c0.104,0.041,0.201,0.08,0.29,0.115c0.342,0.135,0.559,0.221,0.576,0.228c0.404,0.156,1.397-1.94,1.061-2.089
					c-0.023-0.01-0.303-0.14-0.715-0.332c-0.089-0.041-0.185-0.084-0.286-0.132c-0.058-0.027-0.118-0.055-0.181-0.084
					c-0.105-0.049-0.215-0.099-0.328-0.151c-0.052-0.024-0.104-0.048-0.158-0.072c-0.094-0.044-0.188-0.088-0.284-0.133
					c-1.09-0.498-2.299-1.045-2.673-1.184c-0.355-0.736-1.887-4.085-2.422-4.769c-0.512-0.659-0.973-0.859-1.968-1.082
					C21.317,11.061,21.179,12.298,21.239,12.497z"/>
			</g>
			<g>
				<g>
					<path fill="#010101" d="M26.281,42.467c-0.002,0.162,0.117,0.294,0.207,0.431c0.218,0.332,0.225,0.74,0.324,1.114
						c0.103,0.392,0.199,0.787,0.408,1.136c0.309,0.514,0.788,0.929,1.35,1.142c0.281,0.107,0.589,0.167,0.889,0.118
						c0.299-0.047,0.588-0.212,0.742-0.473c0.146-0.253,0.156-0.567,0.088-0.853c-0.063-0.249-0.179-0.479-0.3-0.705
						c-0.017-0.032-0.034-0.065-0.052-0.097c-0.25-0.466-0.569-0.934-0.736-1.435c-0.127-0.364-0.165-0.758-0.31-1.115
						c-0.06-0.145-0.14-0.285-0.262-0.381c-0.032-0.027-0.067-0.048-0.104-0.067c-0.076-0.043-0.16-0.071-0.243-0.101
						c-0.178-0.065-0.36-0.127-0.548-0.152c-0.073-0.012-0.877-0.003-0.883-0.027c0.062,0.33-0.033,0.687-0.248,0.945
						c-0.088,0.105-0.201,0.205-0.268,0.321C26.302,42.329,26.281,42.396,26.281,42.467z"/>
					<path fill="#17191D" d="M26.373,42.251c-0.002,0.161,0.116,0.295,0.205,0.431c0.219,0.332,0.227,0.74,0.325,1.115
						c0.103,0.391,0.2,0.786,0.408,1.135c0.31,0.514,0.788,0.929,1.35,1.142c0.281,0.106,0.589,0.167,0.888,0.118
						c0.3-0.046,0.588-0.211,0.744-0.472c0.146-0.254,0.156-0.568,0.086-0.854c-0.063-0.248-0.178-0.479-0.299-0.706
						c-0.018-0.031-0.034-0.064-0.051-0.096c-0.252-0.466-0.57-0.934-0.738-1.435c-0.126-0.364-0.164-0.758-0.309-1.115
						c-0.06-0.144-0.14-0.284-0.262-0.382c-0.032-0.025-0.067-0.047-0.104-0.066c-0.077-0.043-0.159-0.072-0.243-0.102
						c-0.178-0.064-0.359-0.126-0.547-0.151c-0.074-0.011-0.879-0.003-0.884-0.027c0.062,0.331-0.034,0.687-0.248,0.945
						c-0.088,0.105-0.2,0.205-0.268,0.321C26.393,42.113,26.371,42.18,26.373,42.251z"/>
					<path opacity="0.4" fill="#1A1C1F" d="M30.257,44.518c0.05,0.113,0.093,0.229,0.122,0.349c0.07,0.285,0.06,0.6-0.086,0.854
						c-0.156,0.261-0.444,0.426-0.744,0.472c-0.299,0.049-0.606-0.012-0.888-0.118c-0.447-0.169-0.841-0.469-1.14-0.842
						C28.231,44.544,29.307,44.193,30.257,44.518z"/>
				</g>
				<g>
					<path fill="#010101" d="M32.311,39.426c0,0-1.81-0.412-1.545,1.817c0.068,0.58,0.828,0.665,1.157,0.636
						c0.145-0.013,0.349-0.081,0.577,0.05c0.287,0.168,0.409,0.344,0.5,0.413c0.938,0.737,2.455,0.444,2.838-0.032
						c0.549-0.683-0.662-1.313-1.838-1.901C32.771,39.792,32.311,39.426,32.311,39.426z"/>
					<g>
						<path fill="#17191D" d="M32.245,39.101c0,0-1.808-0.411-1.544,1.817c0.068,0.58,0.828,0.665,1.158,0.637
							c0.143-0.014,0.347-0.082,0.575,0.049c0.289,0.168,0.41,0.345,0.501,0.414c0.938,0.737,2.455,0.444,2.838-0.033
							c0.549-0.682-0.661-1.313-1.838-1.901C32.706,39.467,32.245,39.101,32.245,39.101z"/>
					</g>
					<g opacity="0.4">
						<path fill="#1A1C1F" d="M35.16,40.752c0.604,0.393,0.96,0.803,0.613,1.232c-0.32,0.399-1.436,0.669-2.341,0.314
							C33.738,41.543,34.394,40.893,35.16,40.752z"/>
					</g>
				</g>
				<g>
					<path fill="#022640" d="M30.551,29.864c-0.334-0.901-7.085-4.789-7.449-4.532c-1,0.705-2.178,1.27-2.84,2.369
						c0.067,0.368,6.128,3.576,6.479,4.093c1.121,1.66,0.939,2.1,3.437,9.12c0.8,1.148,3.592-0.671,3.571-1.104
						C33.703,38.837,31.366,32.065,30.551,29.864z"/>
					<path fill="#022640" d="M26.667,31.81c-0.269-0.532-5.321-4.148-5.181-4.32c0.932-1.146,1.979-2.197,1.634-2.255
						c-0.153-0.166-0.151-0.297-0.217-0.246c-2.153,1.678-6.679,0.501-6.694,0.69c-0.133,1.647-1.576,3.013,0.518,4.765
						c0.724,0.605,5.26,2.529,6.094,3.4c0.156,0.163,2.079,7.129,3.485,9.924c0.394,0.781,3.809,0.941,3.712-0.995
						C30.014,42.686,27.426,33.313,26.667,31.81z"/>
				</g>
			</g>
			<g>
				<g>
					<g>
						<g>
							<g>
								<g>
									<path fill="#1A1C1F" d="M21.588,25.699c-0.007,0.25-0.012,0.493-0.018,0.731C21.665,26.266,21.638,25.998,21.588,25.699z"
										/>
									<path fill="#1A1C1F" d="M21.461,24.848c0.012,0.273,0.08,0.576,0.127,0.852c0.007-0.276,0.016-0.561,0.029-0.854
										c0.002-0.059,0.004-0.119,0.008-0.18c0.007-0.158,0.016-0.318,0.026-0.481c-0.129,0.129-0.181,0.309-0.191,0.512
										C21.458,24.746,21.459,24.796,21.461,24.848z"/>
								</g>
							</g>
							<path fill="#419DCA" d="M25.318,25.724c0-0.168-1.033-1.967-1.192-2.981c-0.155-0.988-0.313-2-0.294-2.95
								c0.012-0.719,0.048-1.404,0.078-2.007c0.035-0.697,0.066-1.29,0.051-1.711c-0.025-0.67,0.121-3.214-0.728-4.167
								c-0.168-0.186-0.394-0.392-0.748-0.496c-0.218-0.067-0.453-0.122-0.676-0.165c-0.381-0.073-0.81-0.057-0.974-0.092
								c0,0.002,0.043,0.036,0.103,0.094c-0.495,0.009-0.982,0.165-1.514,0.242c-0.237,0.035-0.741,0.191-1.311,0.412l0,0
								c-1.547,0.437-2.381,0.897-2.459,0.931c-0.309,0.142-0.999,0.525-1.171,1.021c-0.235,0.671,0.59,3.23,0.713,3.691
								c0.329,1.229,1.091,2.758,1.008,4.777c-0.054,1.324-0.022,2.319-0.461,3.968c-0.357,1.34-0.25,2.644-0.17,2.722
								c1.275,1.248,5.156-0.404,6.29-0.775C26.313,26.784,25.318,25.724,25.318,25.724z"/>
							<g>
								<path fill="#E9B388" d="M19.075,12.386c-0.417-0.102-0.921-0.306-0.93-0.571c-0.024-0.718-0.156-2.169-0.156-2.169
									l2.62,0.848c0,0,0.166,1.222,0.123,1.532C20.68,12.402,19.702,12.539,19.075,12.386z"/>
							</g>
						</g>
					</g>
				</g>
				<circle fill="#F8AF1C" cx="22.512" cy="23.402" r="0.27"/>
				<circle fill="#F8AF1C" cx="20.398" cy="23.714" r="0.27"/>
				<path fill="#262C34" d="M20.375,5.401c0.088-0.206,0.21-0.397,0.379-0.506c0.183-0.119,0.405-0.166,0.624-0.171
					c0.161-0.004,0.324,0.015,0.473,0.076c0.887,0.361,1.241,1.667,0.897,2.5c-0.188,0.454-0.58,0.775-1.086,0.743
					c-1.021-0.066-1.653-1.231-1.437-2.172C20.259,5.728,20.307,5.56,20.375,5.401z"/>
				<g>
					<g>
						<path fill="#FDD5BF" d="M21.144,11.277c-0.348,0.278-0.817,0.356-1.3,0.301c-0.625-0.071-1.272-0.363-1.717-0.735
							c-0.435-0.364-1.225-1.86-1.371-2.473c-0.024-0.104-0.044-0.204-0.057-0.3c-0.233-1.686,1.29-2.095,2.448-2.992
							c1.224-0.951,2.771-0.696,2.929,1.293C22.234,8.361,22.208,10.43,21.144,11.277z"/>
						<path fill="#794120" d="M22.07,6.302c-0.107,0-0.009-0.803-1.424-0.307c-0.998,0.351-2.049-0.313-2.049-0.313
							s-0.2,1.283-0.116,1.859c0.042,0.276-0.1,1.47-0.226,1.396c-1.154-0.679-0.315,1.539-0.227,1.81
							c-0.401-0.27-0.758-0.667-0.976-0.996c-0.04-0.06-0.078-0.12-0.116-0.181c-0.168-0.174-0.323-0.369-0.453-0.598
							c-0.271-0.477-0.255-0.779-0.398-1.327c-0.671-2.557,1.039-3.079,1.039-3.079s1.477-2.026,3.585-0.937
							C22.477,4.544,22.256,6.302,22.07,6.302z"/>
					</g>
					
						<ellipse transform="matrix(0.6908 0.723 -0.723 0.6908 12.034 -9.8958)" fill="#FDD5BF" cx="17.587" cy="9.123" rx="0.893" ry="0.55"/>
					
						<ellipse transform="matrix(0.6906 0.7232 -0.7232 0.6906 12.0397 -9.8974)" fill="#FDD5BF" cx="17.587" cy="9.123" rx="0.419" ry="0.258"/>
				</g>
				<g>
					<g>
						<g enable-background="new    ">
							<g enable-background="new    ">
								<defs>
									<path id="SVGID_1_" enable-background="new    " d="M18.792,7.368l-0.295,1.403c-0.004,0.019,0.01,0.044,0.045,0.076
										c0.01,0.009,0.02,0.018,0.029,0.026c0.018,0.017,0.032,0.029,0.044,0.041l0.295-1.403c-0.012-0.011-0.026-0.024-0.043-0.04
										c-0.009-0.008-0.019-0.017-0.03-0.027C18.802,7.413,18.788,7.387,18.792,7.368z"/>
								</defs>
								<clipPath id="SVGID_2_">
									<use xlink:href="#SVGID_1_"  overflow="visible"/>
								</clipPath>
								<g clip-path="url(#SVGID_2_)" enable-background="new    ">
									<polygon fill="#9F9F9F" points="18.792,7.368 18.497,8.771 18.497,8.784 18.792,7.381 18.792,7.368 									"/>
									<path fill="#C0C8DA" d="M18.792,7.381l-0.295,1.403c0.003,0.017,0.018,0.038,0.045,0.063
										c0.01,0.009,0.02,0.018,0.029,0.026c0.018,0.017,0.032,0.029,0.044,0.041l0.295-1.403c-0.012-0.011-0.026-0.024-0.043-0.04
										c-0.009-0.008-0.019-0.017-0.03-0.027C18.81,7.42,18.795,7.399,18.792,7.381L18.792,7.381z"/>
								</g>
							</g>
							<g enable-background="new    ">
								<defs>
									<path id="SVGID_3_" enable-background="new    " d="M22.197,8.172l0.296-1.402c-0.005,0.023-0.015,0.044-0.03,0.062
										c-0.282,0.324-0.691,0.572-1.194,0.735c-0.502,0.163-1.1,0.24-1.76,0.221c-0.18-0.005-0.425-0.118-0.527-0.21
										c-0.011-0.01-0.02-0.019-0.029-0.026c-0.001,0-0.012-0.011-0.043-0.04l-0.295,1.403c0.032,0.028,0.043,0.039,0.043,0.04
										c0.009,0.008,0.019,0.017,0.029,0.026c0.102,0.093,0.347,0.205,0.527,0.21c0.659,0.019,1.256-0.058,1.759-0.221
										c0.503-0.163,0.912-0.411,1.193-0.735C22.183,8.216,22.192,8.195,22.197,8.172z"/>
								</defs>
								<clipPath id="SVGID_4_">
									<use xlink:href="#SVGID_3_"  overflow="visible"/>
								</clipPath>
								<g clip-path="url(#SVGID_4_)" enable-background="new    ">
									<path fill="#C0C8DA" d="M18.91,7.511l-0.295,1.403c0.032,0.028,0.043,0.039,0.043,0.04
										c0.009,0.008,0.019,0.017,0.029,0.026c0.084,0.076,0.263,0.165,0.423,0.198l0.295-1.402
										c-0.161-0.033-0.34-0.122-0.423-0.198c-0.011-0.01-0.02-0.019-0.029-0.026C18.953,7.55,18.942,7.54,18.91,7.511
										L18.91,7.511z"/>
									<path fill="#FFFFFF" d="M19.406,7.774l-0.295,1.402c0.036,0.007,0.071,0.012,0.104,0.013
										c0.659,0.019,1.256-0.058,1.759-0.221c0.503-0.163,0.912-0.411,1.193-0.735c0.016-0.018,0.025-0.039,0.03-0.062
										l0.296-1.402c-0.005,0.023-0.015,0.044-0.03,0.062c-0.282,0.324-0.691,0.572-1.194,0.735c-0.502,0.163-1.1,0.24-1.76,0.221
										C19.477,7.786,19.442,7.782,19.406,7.774L19.406,7.774z"/>
									<path fill="#DFE7F5" d="M20.844,7.852c-0.36,0.099-0.775,0.145-1.229,0.132c-0.025-0.001-0.052-0.004-0.08-0.01
										l-0.229,1.087c0.028,0.005,0.054,0.009,0.08,0.009c0.452,0.014,0.866-0.032,1.225-0.13L20.844,7.852z"/>
								</g>
							</g>
							<g>
								<path fill="#DFE7F5" d="M18.826,7.339c-0.048,0.016-0.048,0.052,0.011,0.105c0.011,0.01,0.021,0.019,0.03,0.027
									c0.017,0.016,0.032,0.029,0.043,0.04c0.032,0.029,0.042,0.039,0.043,0.04c0.009,0.008,0.019,0.017,0.029,0.026
									c0.102,0.093,0.347,0.206,0.527,0.21c0.66,0.019,1.257-0.059,1.76-0.221c0.503-0.163,0.912-0.411,1.194-0.735
									c0.077-0.089,0.01-0.259-0.092-0.351c-0.01-0.01-0.02-0.019-0.029-0.027c0,0-0.012-0.011-0.043-0.04
									c-0.012-0.011-0.026-0.023-0.044-0.04c-0.009-0.008-0.019-0.018-0.029-0.027c-0.06-0.054-0.119-0.071-0.167-0.055
									c-0.034,0.011-0.063,0.04-0.083,0.083c-0.253,0.394-0.617,0.667-1.107,0.826c-0.491,0.159-1.107,0.203-1.867,0.137
									C18.921,7.327,18.861,7.328,18.826,7.339z"/>
							</g>
						</g>
					</g>
					<polygon fill="#0E2030" points="18.734,8.938 18.564,8.785 18.81,7.636 18.979,7.789 					"/>
				</g>
				<g>
					<path fill="#1C1E22" d="M15.903,7.287c0.093-0.218,0.223-0.421,0.401-0.536c0.194-0.125,0.429-0.176,0.661-0.181
						c0.17-0.004,0.342,0.016,0.5,0.081c0.939,0.382,1.315,1.765,0.95,2.647c-0.199,0.48-0.613,0.821-1.149,0.786
						c-1.081-0.069-1.75-1.303-1.521-2.3C15.779,7.632,15.83,7.455,15.903,7.287z"/>
					<path fill="#414141" d="M16.748,5.316c0.026,0.007,0.05,0.021,0.066,0.042c0.053,0.064,0.033,0.202,0.034,0.28
						c0,0.121,0,0.242,0,0.363c0.001,0.224,0.001,0.448,0.001,0.671c0,0.183,0.022,0.398-0.061,0.569
						c-0.017,0.035-0.05,0.071-0.088,0.061c-0.033-0.009-0.045-0.048-0.052-0.082c-0.063-0.308-0.076-0.623-0.074-0.936
						c0.002-0.291-0.008-0.606,0.05-0.892c0.004-0.021,0.009-0.044,0.025-0.059c0.011-0.01,0.025-0.016,0.04-0.019
						C16.708,5.31,16.729,5.311,16.748,5.316z"/>
					<path fill="#262C34" d="M15.889,7.493c0.078-0.182,0.186-0.351,0.334-0.447c0.162-0.105,0.358-0.146,0.551-0.151
						c0.142-0.003,0.286,0.013,0.417,0.066c0.783,0.319,1.096,1.471,0.792,2.207c-0.165,0.4-0.511,0.685-0.958,0.656
						c-0.9-0.058-1.458-1.086-1.268-1.917C15.787,7.78,15.829,7.633,15.889,7.493z"/>
					<path fill="#FFFFFF" d="M15.885,7.821c0.06-0.139,0.143-0.269,0.256-0.342c0.124-0.08,0.274-0.112,0.422-0.116
						c0.108-0.003,0.219,0.01,0.319,0.051c0.6,0.245,0.84,1.128,0.607,1.691c-0.127,0.307-0.392,0.525-0.735,0.503
						c-0.69-0.044-1.119-0.833-0.972-1.47C15.806,8.042,15.838,7.929,15.885,7.821z"/>
					<path fill="#1F2126" d="M16.673,4.692c0.701-1.777,2.867-1.913,3.086-1.915c0.408-0.004,0.826,0.095,1.187,0.328
						c0.179,0.115,0.342,0.266,0.474,0.452c0.058,0.083,0.113,0.168,0.16,0.261c0.123,0.242,0.144,0.52,0.139,0.798
						c-0.025-0.054-0.038-0.112-0.061-0.166c-0.015-0.036-0.026-0.07-0.045-0.104c-0.04-0.068-0.074-0.137-0.124-0.196
						c-0.091-0.108-0.193-0.204-0.301-0.288c-0.209-0.164-0.438-0.276-0.681-0.349c-0.274-0.075-0.559-0.063-0.84-0.045
						c-0.34,0.022-1.864,0.499-2.442,1.933c-0.071,0.177-0.172,0.328-0.266,0.49c-0.05,0.087-0.11,0.171-0.188,0.222
						C16.684,6.17,16.057,6.255,16.673,4.692z"/>
				</g>
			</g>
			<path fill="#FCC6A8" d="M24.012,23.426c0.045-0.315,1.46-0.859,1.752-0.84c0.063,0.004,0.127,0.016,0.18,0.05
				c0.055,0.033,0.096,0.089,0.1,0.152c0.002,0.065-0.034,0.125-0.072,0.178c-0.095,0.135-0.205,0.265-0.347,0.349
				c-0.126,0.075-0.271,0.11-0.413,0.144c-0.191,0.045-0.4,0.088-0.574-0.002c-0.016-0.008-0.033-0.021-0.032-0.039L24.012,23.426z"
				/>
			<g>
				<g id="XMLID_9_">
					<g id="XMLID_11_">
						<g id="XMLID_36_">
							<g id="XMLID_42_">
								<path id="XMLID_43_" fill="#FFFFFF" d="M25.363,24.063c0-2.01,1.426-4.468,3.177-5.479s3.177-0.199,3.177,1.811
									c0,2.01-1.426,4.468-3.177,5.479C26.789,26.886,25.363,26.073,25.363,24.063z M25.869,23.885
									c0,1.659,1.176,2.329,2.621,1.494s2.671-3.004,2.671-4.663c0-1.659-1.176-2.329-2.621-1.495S25.869,22.227,25.869,23.885z"
									/>
							</g>
							<path id="XMLID_40_" fill="#FFFFFF" d="M28.54,23.005c0.373-0.215,0.677-0.739,0.677-1.167s-0.304-0.601-0.677-0.385
								c-0.373,0.215-0.677,0.738-0.677,1.167C27.863,23.048,28.167,23.221,28.54,23.005z"/>
							<polygon id="XMLID_39_" fill="#FFFFFF" points="25.906,22.974 28.54,22.773 28.811,21.712 26.072,22.324 							"/>
							<polygon id="XMLID_38_" fill="#FFFFFF" points="31.264,19.882 28.629,22.722 28.357,21.973 31.098,19.422 							"/>
							<polygon id="XMLID_37_" fill="#FFFFFF" points="28.22,25.716 28.073,22.507 28.906,22.055 28.73,25.439 							"/>
						</g>
						<g id="XMLID_12_">
							<g id="XMLID_20_">
								<path id="XMLID_21_" fill="#E6D1D1" d="M25.699,24.239c0-2.01,1.426-4.468,3.176-5.479c1.752-1.011,3.178-0.199,3.178,1.812
									c0,2.01-1.426,4.467-3.178,5.479C27.125,27.061,25.699,26.249,25.699,24.239z M26.205,24.061
									c0,1.658,1.176,2.328,2.62,1.494c1.446-0.834,2.671-3.004,2.671-4.663c0-1.659-1.176-2.329-2.621-1.495
									C27.431,20.231,26.205,22.402,26.205,24.061z"/>
							</g>
							<path fill="#E6D1D1" d="M29.509,22.31l2.089-2.253l-0.166-0.459l-2.111,1.967c-0.119-0.051-0.274-0.035-0.445,0.064
								c-0.16,0.092-0.308,0.242-0.424,0.417l-2.029,0.453l-0.166,0.65l1.971-0.15c0.04,0.129,0.119,0.217,0.224,0.254l0.12,2.638
								l0.512-0.277l0.143-2.747C29.354,22.702,29.455,22.506,29.509,22.31z"/>
						</g>
					</g>
				</g>
			</g>
			<path fill="#FCC6A8" d="M22.822,24.236c0.05-0.309,0.332-0.597,0.379-0.906c0.131,0.005,0.503,0.113,0.637,0.071
				c0.104-0.031,0.199-0.078,0.297-0.121c0.109-0.047,0.222-0.088,0.335-0.127c0.665,0.064,2.095,0.202,1.728,0.781
				c-0.01,0.014-0.018,0.03-0.013,0.046c0.091,0.28,0.078,0.463-0.161,0.656c-0.023,0.019-0.01,0.058-0.011,0.086
				c-0.027,0.357-0.233,0.369-0.363,0.49c-0.013,0.012-0.007,0.033-0.016,0.043c-0.038,0.187-0.153,0.279-0.345,0.276
				c-0.098,0.052-0.873-0.104-1.154-0.2c-0.308-0.105-0.998-0.29-1.318-0.361C22.85,24.739,22.785,24.464,22.822,24.236z"/>
			<path fill="#FCCAAD" d="M30.812,20.775c0.04-0.095,0.239-0.175,0.229-0.204c-0.008-0.027-0.104-0.197,0.237-0.306
				c0.124-0.039,0.272-0.062,0.397-0.073c0.123-0.01,0.24-0.03,0.36-0.063c0.164-0.045,0.192-0.196,0.313-0.319
				c0.029,0.013,0.32,0.18,0.233,0.437c-0.024,0.091-0.06,0.181-0.085,0.266c-0.057,0.184-0.058,0.406-0.17,0.567
				c-0.076,0.108-0.124,0.156-0.187,0.274c-0.188,0.354-1.082,0.723-1.094,0.246c-0.156-0.059-0.221-0.138-0.134-0.308
				c0.028-0.056,0.169-0.104,0.165-0.121C31.038,20.998,30.672,21.106,30.812,20.775z"/>
			<g>
				<path fill="#F6F7F4" d="M15.172,23.07c0.745,0.962,4,1.672,6.177,2.05c0.11,0.019,0.218,0.038,0.323,0.055
					c0.061,0.01,0.121,0.021,0.18,0.03c0.134,0.022,0.261,0.043,0.381,0.061c0.073,0.011,0.144,0.022,0.209,0.032
					c0.119,0.019,0.228,0.035,0.326,0.049c0.376,0.054,0.651,0.032,0.651,0.032c0.035,0.009,0.47-2.232,0.41-2.247
					c0,0-0.339-0.14-0.629-0.205c-0.096-0.022-0.205-0.046-0.324-0.073c-0.064-0.015-0.132-0.03-0.203-0.046
					c-0.113-0.025-0.232-0.053-0.358-0.083c-0.06-0.013-0.119-0.028-0.18-0.042c-0.104-0.023-0.21-0.049-0.32-0.075
					c-1.769-0.417-4.169-1.029-4.179-1.28c-0.057-1.593-0.331-4.225-1.414-6.768c-0.245-0.576-0.862-1.366-1.731-0.816
					c-0.447,0.283-0.519,0.649-0.583,1.259C13.516,18.72,15.165,23.062,15.172,23.07z"/>
			</g>
		</g>
	</g>
</g>
</svg>
