<?xml version="1.0" encoding="utf-8"?>
<!-- Generator: Adobe Illustrator 17.0.0, SVG Export Plug-In . SVG Version: 6.00 Build 0)  -->
<!DOCTYPE svg PUBLIC "-//W3C//DTD SVG 1.1//EN" "http://www.w3.org/Graphics/SVG/1.1/DTD/svg11.dtd">
<svg version="1.1" id="Layer_1" xmlns="http://www.w3.org/2000/svg" xmlns:xlink="http://www.w3.org/1999/xlink" x="0px" y="0px"
	 width="300px" height="300px" viewBox="0 0 300 300" enable-background="new 0 0 300 300" xml:space="preserve">
<path fill="#515254" stroke="#000000" stroke-linejoin="round" stroke-miterlimit="10" d="M71.5,196.917
	c0,13.761-11.263,24.917-25.156,24.917s-25.59-11.162-25.156-24.917C22,171.167,32.45,166.5,46.344,166.5S71.5,183.156,71.5,196.917
	z"/>
<path stroke="#000000" stroke-linejoin="round" stroke-miterlimit="10" d="M39.047,166.5c0,0-7.037,5.061-8.347,12.977
	c-1.31,7.916,128.512,21.532,128.512,21.532s6.491-3.219,10.291-6.329c3.8-3.11,3.061-12.16,1.452-18.431
	s-5.726-16.403-12.217-17.67C152.246,157.312,48.229,161.122,39.047,166.5z"/>
<path fill="#515254" stroke="#000000" stroke-linejoin="round" stroke-miterlimit="10" d="M150,181
	c-18.667-11.833-35,1-40.333,10.667L105,203.333c0,0-0.5,4.833-1.833,9.833c-1.333,5,2.167,31.167,20.333,32.833
	c18.167,1.667,24.833-2,32.167-13.333C163,221.333,168.667,192.833,150,181z"/>
<path fill="#E9E9EA" stroke="#000000" stroke-linejoin="round" stroke-miterlimit="10" d="M154.338,213.287
	c-0.815,11.665-7.947,21.121-15.931,21.121s-13.796-9.456-12.981-21.121c0.815-11.665,7.947-21.121,15.931-21.121
	C149.34,192.166,155.152,201.622,154.338,213.287z"/>
<path stroke="#000000" stroke-linejoin="round" stroke-miterlimit="10" d="M286.604,147.618c0.359,1.866,3.686,27.872,3.686,27.872
	s-1.739,4.017-8.324,0.953C275.381,173.377,252.189,160,252.189,160s7.247-8.282,14.288-10.56
	C273.517,147.162,286.377,146.434,286.604,147.618z"/>
<path fill="#515254" stroke="#000000" stroke-linejoin="round" stroke-miterlimit="10" d="M247.313,209.375
	c0.747,0.724,1.688,4.25,12.313,5.063s14.313-2.188,19.688-14.125s3.875-29.125-5.188-37.125s-32.688,1.5-29.688,7.625
	c0,0-1.938,17.313-2.188,20.063S243.125,205.313,247.313,209.375z"/>
<path fill="#E9E9EA" stroke="#000000" stroke-linejoin="round" stroke-miterlimit="10" d="M277.82,188.875
	c-0.991,8.94-5.613,16.188-10.324,16.188c-4.711,0-7.727-7.247-6.736-16.188c0.991-8.94,5.613-16.188,10.324-16.188
	C275.795,172.688,278.811,179.935,277.82,188.875z"/>
<path fill="#7C878E" stroke="#000000" stroke-linejoin="round" stroke-miterlimit="10" d="M11.675,161.75
	c0.34,0.425,5.181,2.208,6.115,2.208s7.644-0.51,10.022-1.104c2.378-0.595,2.888-17.156,2.888-17.156s-9.258,0.17-13.164,3.737
	S11.675,161.75,11.675,161.75z"/>
<path fill="#48484A" stroke="#000000" stroke-linejoin="round" stroke-miterlimit="10" d="M295.018,149.07
	c-1.41-0.079-8.075-0.423-8.075-0.423l2.301,11.082c0,0,4.02,0.503,4.972,0.529c0.952,0.026,1.508-0.397,1.508-1.084
	c0-0.688,0.264-8.781,0.264-8.781S296.428,149.149,295.018,149.07z"/>
<path fill="#DE782E" stroke="#000000" stroke-linejoin="round" stroke-miterlimit="10" d="M289.931,131.376
	c-0.238-0.053-2.83,0.212-2.83,0.212l0.82,14.202c2.063-0.185,2.962-1.666,2.962-1.666s0.344-10.5,0.344-11.399
	S290.169,131.429,289.931,131.376z"/>
<linearGradient id="SVGID_1_" gradientUnits="userSpaceOnUse" x1="50.3077" y1="210.5595" x2="262.9066" y2="87.8155">
	<stop  offset="0" style="stop-color:#D24D1D"/>
	<stop  offset="0.125" style="stop-color:#CB4723"/>
	<stop  offset="0.3355" style="stop-color:#C4402A"/>
	<stop  offset="0.5892" style="stop-color:#C13C2D"/>
	<stop  offset="1" style="stop-color:#BF3B2F"/>
</linearGradient>
<path fill="url(#SVGID_1_)" stroke="#000000" stroke-linejoin="round" stroke-miterlimit="10" d="M32.691,140.03
	c-1.14,1.12-6.505,9.758-6.686,19.155c-0.181,9.397,1.257,13.734,4.695,14.818s29.007,6.144,31.085,6.596
	c2.078,0.452,23.517,5.825,25.233,4.262c1.717-1.563,7.804-12.453,8.708-12.982c0.904-0.53,31.655-15.675,49.454-13.416
	s26.112,17.89,26.564,19.426c0.452,1.536-4.156,12.74-4.518,13.824s-3.072,5.873-2.62,6.867
	c0.452,0.994,73.005-12.559,73.005-12.559s3.524-0.09,3.704-1.175c0.181-1.084,0.904-4.698-0.452-5.602l25.165-33.611l20.825,1.446
	c0,0,1.626-0.271,1.536-0.904c-0.09-0.632,0.181-14.276-0.452-14.998c-0.632-0.723-5.15-2.078-8.493-2.259
	c-3.343-0.181-38.219,2.711-38.219,2.711l-1.355-49.061c0,0-83.937-0.271-94.87,0.632c-10.933,0.904-24.576,1.626-25.389,2.53
	c-0.813,0.904-9.577,16.263-10.662,18.793c-1.084,2.53-8.583,19.245-8.583,19.245s-24.214,3.885-30.991,5.511
	C62.598,130.904,37.932,134.88,32.691,140.03z"/>
<path fill="none" stroke="#000000" stroke-linejoin="round" stroke-miterlimit="10" d="M92.378,152.509
	c0,0,44.666-6.682,52.524-7.329c7.858-0.647,43.818-4.601,43.818-4.601"/>
<path fill="none" stroke="#000000" stroke-linejoin="round" stroke-miterlimit="10" d="M200.125,87.75c0,0-9.875,40-10.375,43
	s-0.559,44.939-1.03,46.845c-0.47,1.905,2.625,7.155,5.702,7.405s33.327-5.561,35.827-7.405s10-15.577,10-25.086
	c0-9.509-0.375-17.759-0.375-17.759"/>
<path fill="none" stroke="#000000" stroke-linejoin="round" stroke-miterlimit="10" d="M183.913,141.105
	c0,0,2.462-10.605-9.038-13.48v-2.25L146.75,123l-0.625,0.61L128.25,123v-1l-21.5-0.75l-1.125,1.75"/>
<path fill="none" stroke="#000000" stroke-linejoin="round" stroke-miterlimit="10" d="M170.347,142.573
	c0,0,0.023-9.464-5.942-11.896c-5.965-2.432-17.521-3.737-17.521-3.737"/>
<ellipse fill="#E2802A" stroke="#000000" stroke-linejoin="round" stroke-miterlimit="10" cx="83.323" cy="176.249" rx="2.964" ry="4.446"/>
<path fill="#FFFCD7" stroke="#000000" stroke-linejoin="round" stroke-miterlimit="10" d="M37.855,150.099
	c0,3.597-1.037,8.335-2.551,8.335c-2.419,0-3.876-4.547-3.876-8.144c0-3.597,1.228-6.513,2.742-6.513
	C36.655,143.777,37.855,146.502,37.855,150.099z"/>
<path fill="#FFFCD7" stroke="#000000" stroke-linejoin="round" stroke-miterlimit="10" d="M90.73,158.003
	c0,4.449-1.572,8.597-4.199,8.597c-2.627,0-5.313-4.148-5.313-8.597s2.129-8.056,4.756-8.056S90.73,153.554,90.73,158.003z"/>
<path fill="#414042" stroke="#000000" stroke-linejoin="round" stroke-miterlimit="10" d="M41.974,146.643
	c0.701,0.232,0.938,2.019,0.938,2.269s-1,7.107-1.438,9.522c-0.438,2.415-1.5,11.853-1.5,11.853s-1.75,0-1.75-1.375
	s1.25-11.375,1.438-12.25S40.599,146.187,41.974,146.643z"/>
<path fill="#414042" stroke="#000000" stroke-linejoin="round" stroke-miterlimit="10" d="M46.662,147.484
	c0.701,0.232,0.938,2.019,0.938,2.269s-1,7.107-1.438,9.522c-0.438,2.415-1.5,11.853-1.5,11.853s-1.75,0-1.75-1.375
	s1.25-11.375,1.438-12.25S45.287,147.028,46.662,147.484z"/>
<path fill="#414042" stroke="#000000" stroke-linejoin="round" stroke-miterlimit="10" d="M51.849,148.285
	c0.701,0.232,0.938,2.019,0.938,2.269s-1,7.107-1.438,9.522s-1.5,11.853-1.5,11.853s-1.75,0-1.75-1.375s1.25-11.375,1.438-12.25
	S50.474,147.829,51.849,148.285z"/>
<path fill="#414042" stroke="#000000" stroke-linejoin="round" stroke-miterlimit="10" d="M56.537,148.661
	c0.701,0.237,0.938,2.06,0.938,2.315c0,0.255-1,7.251-1.438,9.716c-0.438,2.465-1.5,12.094-1.5,12.094s-1.75,0-1.75-1.403
	s1.25-11.607,1.438-12.499S55.162,148.195,56.537,148.661z"/>
<path fill="#414042" stroke="#000000" stroke-linejoin="round" stroke-miterlimit="10" d="M62.449,149.036
	c0.766,0.245,1.025,2.124,1.025,2.387s-1.093,7.477-1.572,10.018c-0.478,2.541-1.64,12.47-1.64,12.47s-1.913,0-1.913-1.447
	c0-1.447,1.367-11.967,1.572-12.888C60.126,158.656,60.946,148.556,62.449,149.036z"/>
<path fill="#414042" stroke="#000000" stroke-linejoin="round" stroke-miterlimit="10" d="M68.112,149.662
	c0.785,0.249,1.05,2.161,1.05,2.429s-1.12,7.608-1.61,10.194c-0.49,2.586-1.68,12.689-1.68,12.689s-1.96,0-1.96-1.472
	s1.4-12.177,1.61-13.114S66.572,149.173,68.112,149.662z"/>
<path fill="#414042" stroke="#000000" stroke-linejoin="round" stroke-miterlimit="10" d="M74.087,150.525
	c0.803,0.251,1.075,2.177,1.075,2.447s-1.147,7.664-1.648,10.269c-0.502,2.605-1.72,12.783-1.72,12.783s-2.007,0-2.007-1.483
	s1.433-12.268,1.648-13.211C71.65,160.386,72.51,150.033,74.087,150.525z"/>
<path fill="#7C878E" stroke="#000000" stroke-linejoin="round" stroke-miterlimit="10" d="M14.134,171.029c0,0-7.268,0-8.835,2.209
	s-2.066,10.046-0.855,11.685c1.211,1.639,4.384,3.563,4.507,4.204c0.124,0.641-0.161,2.423,0.979,2.779
	c1.14,0.356,11.044,3.563,12.113,4.845s3.776,4.061,4.774,4.56c0.998,0.499,20.734,7.766,33.132,10.545
	c12.398,2.779,24.439,2.85,25.722,2.423s5.415-4.346,5.558-5.059s0.143-0.713,0.143-0.713s11.828,0,13.965-1.568
	s2.28-2.28,2.494-2.921c0.214-0.641,4.406-12.615,3.776-13.538c-0.63-0.923-29.783-3.634-30.353-3.634s-0.57-1.496-1.924-1.568
	c-1.354-0.071-11.899-1.853-12.968-1.853s-5.883,0.713-8.642,0.356c-2.758-0.356-27.019-6.341-27.019-6.341s1.104-0.285,1.104-0.57
	s-7.41-2.565-8.194-2.636c-0.784-0.071-1.425,0.499-1.995,0.428C21.045,174.591,14.134,171.029,14.134,171.029z"/>
<path fill="#FFFFFF" stroke="#000000" stroke-linejoin="round" stroke-miterlimit="10" d="M26.674,184.566
	c0,0,2.066,9.833,2.138,10.403s0.428,2.351,1.211,2.423c0.784,0.071,11.614,2.565,11.899,2.779c0.285,0.214,1.781,0.071,1.853-0.855
	c0.071-0.926-0.356-11.4-0.356-11.4s-0.784-1.781-2.138-2.066s-12.825-2.138-13.538-2.209
	C27.03,183.569,26.453,183.514,26.674,184.566z"/>
<path fill="#7C878E" stroke="#000000" stroke-linejoin="round" stroke-miterlimit="10" d="M98.5,157.333C93,161,86,176,86,176
	s21.667,2.833,23,2.333s6.667,0.167,7.5-0.667c0.833-0.833,2.833-7,4.167-8c1.333-1,37.333-8.25,40.167-5.708
	c2.833,2.542,12.833,29.375,13.333,29.375s2.667,1.5,3.167,1.333c0.5-0.167,3.5-0.833,3.5-0.833S170.5,161.667,165,157.333
	c-5.5-4.333-12.667-8.5-30.5-6.333S99.831,156.446,98.5,157.333z"/>
<path fill="#7C878E" stroke="#000000" stroke-linejoin="round" stroke-miterlimit="10" d="M237.037,181.373
	c0,0,12.527-32.199,17.114-35.639c4.587-3.44,20.201-6.704,25.671-5.293c5.469,1.411,7.763,5.116,8.998,10.321
	c1.235,5.205,1.941,10.85,1.941,10.85s4.146,0.088,4.234,0.794c0.088,0.706,0,11.644-1.676,12.438
	c-1.676,0.794-5.293,2.646-5.293,2.646s1.588-1.941,1.323-4.058s-1.941-24.259-3.881-24.612c-1.941-0.353-18.437,1.323-20.201,3.44
	s-4.499,5.116-7.587,12.879c-3.088,7.763-7.057,16.496-8.028,16.584S237.037,181.373,237.037,181.373z"/>
<path fill="#7C878E" stroke="#000000" stroke-linejoin="round" stroke-miterlimit="10" d="M200.125,87.75
	c0,0-0.875-3.125-2.125-3.125s-52.373-1.472-52.373-1.472S197.125,79,223.5,80.375s28.125,3.846,31.5,3.548
	c3.375-0.298,20.875,0.577,21.375,1.202s4.5,17.625,4.75,19.875s2.125,7,2.125,7.875s0.5,5,0.75,6s2.25,6.875,2.375,7.5
	s1.908,2.75,2.017,3.375c0.108,0.625-12.892,2.25-14.892,2.5s-33.625,2.5-33.625,2.5s0.5-17.25-1.375-28.125s-2-19.375-2.5-19.5
	S202,86.75,200.125,87.75z"/>
<path fill="#CCECFA" stroke="#000000" stroke-linejoin="round" stroke-miterlimit="10" d="M242.625,93.875c0,0,0.625-2,1.625-1.875
	s12.804,1.683,14.448,1.875s12.517-0.55,13.843,2.102c1.326,2.652-6.842,12.941-7.797,14.798c-0.955,1.856-6.63,12.411-7.319,12.729
	s-9.176,1.167-10.236,1.167c-1.061,0-2.228-1.856-2.281-3.394s-0.902-15.752-1.273-17.184
	C243.264,102.66,242.305,94.636,242.625,93.875z"/>
<path fill="#CCECFA" stroke="#000000" stroke-linejoin="round" stroke-miterlimit="10" d="M272.117,104.993
	c0,0-4.031,7.319-4.933,8.751c-0.902,1.432-3.872,6.046-3.978,7.054c-0.106,1.008,0.212,2.811,1.591,2.811
	s12.146-0.424,12.994-0.477c0.849-0.053,1.803-2.387,1.326-3.554c-0.477-1.167-3.819-13.79-4.137-14.586
	C274.663,104.198,274.344,100.977,272.117,104.993z"/>
<path fill="none" stroke="#000000" stroke-linejoin="round" stroke-miterlimit="10" d="M90.638,167.274
	c0,0,4.253-13.008,0.555-17.274c-3.698-4.266-5.177-5.652-33.095-8.518S30.504,140.029,27.661,150"/>
<path fill="#93D9F7" stroke="#000000" stroke-linejoin="round" stroke-miterlimit="10" d="M103.5,118.875
	c0,0,10.629-28.317,14.127-29.971c3.498-1.654,72.498-4.029,75.123-1.154s-9.5,35.25-9.5,35.25s-37.875-2.375-42-2.75
	S103.5,118.875,103.5,118.875z"/>
<path fill="#93D9F7" stroke="#000000" stroke-linejoin="round" stroke-miterlimit="10" d="M202.126,91.994
	c-1.085,2.697-11.207,36.163-6.351,36.312c4.857,0.149,37.134-2.416,38.105-3.636c0.971-1.22-0.448-31.556-1.644-32.676
	c-1.195-1.12-2.017-1.942-12.253-1.345C209.747,91.247,202.429,91.24,202.126,91.994z"/>
<path fill="#3D3C3E" stroke="#000000" stroke-linejoin="round" stroke-miterlimit="10" d="M199.735,114.26
	c3.888-1.337,15.541-0.897,16.139,0c0.598,0.897,1.195,13.748,0,14.345c-1.195,0.598-12.627,0.299-12.776,0.672
	s-0.672,5.479-0.672,5.479l-2.69-0.249c0,0-0.533-6.144-0.971-6.195c-0.438-0.051-1.569-0.23-1.718-1.799
	S194.953,115.904,199.735,114.26z"/>
<path fill="#3D3C3E" stroke="#000000" stroke-linejoin="round" stroke-miterlimit="10" d="M191.965,135.479
	c0,0,0.448,4.767,3.288,4.625c2.839-0.142,2.316-2.01,2.316-2.01s5.155-0.149,5.529-0.822c0.374-0.672,0.523-3.96,0.523-3.96
	l-6.276-0.598c0,0-0.897-1.431-2.241-1.537C193.758,131.071,192.189,132.864,191.965,135.479z"/>
<path fill="#3D3C3E" stroke="#000000" stroke-linejoin="round" stroke-miterlimit="10" d="M226.741,136.932
	c0.08,0.482,0.311,1.82,1.287,1.687c0.977-0.133,1.776-0.444,1.998-0.444s7.458-0.843,7.458-0.843s0.577,0.675,1.731,0.449
	s1.421-1.655,1.421-2.14s-0.577-1.994-1.687-1.905c-1.11,0.089-2.087,1.015-2.087,1.015l-7.547,0.45c0,0-1.287-0.622-1.865-0.089
	S226.636,136.302,226.741,136.932z"/>
</svg>
