<?xml version="1.0" encoding="utf-8"?>
<!-- Generator: Adobe Illustrator 16.0.0, SVG Export Plug-In . SVG Version: 6.00 Build 0)  -->
<!DOCTYPE svg PUBLIC "-//W3C//DTD SVG 1.1//EN" "http://www.w3.org/Graphics/SVG/1.1/DTD/svg11.dtd">
<svg version="1.1" id="Layer_1" xmlns="http://www.w3.org/2000/svg" xmlns:xlink="http://www.w3.org/1999/xlink" x="0px" y="0px"
	 width="50px" height="50px" viewBox="0 0 50 50" enable-background="new 0 0 50 50" xml:space="preserve">
<g>
	<g>
		<g>
			<g>
				<g enable-background="new    ">
					<g>
						<polygon fill="#C5C5C5" points="29.346,13.151 29.348,13.812 42.496,21.453 42.494,20.792 						"/>
					</g>
					<g>
						<polygon fill="#898989" points="42.494,20.792 42.496,21.453 48.163,18.167 48.161,17.506 						"/>
					</g>
					<g>
						<polygon fill="#FFFFFF" points="29.346,13.151 42.494,20.792 48.161,17.506 35.012,9.865 						"/>
					</g>
				</g>
			</g>
			<g>
				<polygon fill="#00447D" points="34.364,13.096 32.242,14.321 30.12,13.096 32.242,11.871 				"/>
				<polygon fill="#00447D" points="36.98,11.585 34.858,12.81 32.736,11.585 34.858,10.359 				"/>
				<polygon fill="#00447D" points="36.886,14.552 34.764,15.777 32.643,14.552 34.764,13.327 				"/>
				<polygon fill="#00447D" points="39.504,13.041 37.382,14.266 35.26,13.041 37.382,11.816 				"/>
				<polygon fill="#00447D" points="39.409,16.009 37.287,17.233 35.165,16.009 37.287,14.783 				"/>
				<polygon fill="#00447D" points="42.025,14.498 39.904,15.723 37.782,14.498 39.904,13.273 				"/>
				<polygon fill="#00447D" points="41.932,17.464 39.811,18.69 37.688,17.464 39.811,16.24 				"/>
				<polygon fill="#00447D" points="44.549,15.954 42.427,17.179 40.305,15.954 42.427,14.729 				"/>
				<polygon fill="#00447D" points="44.454,18.921 42.332,20.146 40.212,18.921 42.332,17.697 				"/>
				<polygon fill="#00447D" points="47.071,17.411 44.949,18.636 42.827,17.411 44.949,16.186 				"/>
			</g>
		</g>
		<g>
			<g enable-background="new    ">
				<g enable-background="new    ">
					<g>
						<path fill="#BFBDBE" d="M29.631,14.634l0.924-0.512c0.061-0.036,0.147-0.031,0.24,0.023l-0.923,0.513
							C29.778,14.604,29.693,14.598,29.631,14.634L29.631,14.634z"/>
					</g>
				</g>
				<g enable-background="new    ">
					<g enable-background="new    ">
						<path fill="#BFBDBE" d="M29.872,14.657l0.923-0.513c0.032,0.019,0.063,0.042,0.094,0.069l-0.924,0.513
							C29.935,14.699,29.904,14.676,29.872,14.657L29.872,14.657z"/>
						<path fill="#BFBDBE" d="M29.965,14.726l0.924-0.513c0.037,0.034,0.071,0.074,0.102,0.117l-0.924,0.512
							C30.036,14.799,30.002,14.76,29.965,14.726L29.965,14.726z"/>
						<path fill="#E6E6E6" d="M30.066,14.842l0.924-0.512c0.086,0.119,0.142,0.267,0.141,0.397c0,0.037-0.004,0.07-0.013,0.099
							l-0.924,0.513c0.009-0.03,0.014-0.063,0.014-0.099C30.208,15.109,30.152,14.962,30.066,14.842L30.066,14.842z"/>
						<path fill="#BFBDBE" d="M30.194,15.339l0.924-0.513c-0.01,0.037-0.027,0.067-0.051,0.09l-0.922,0.513
							C30.167,15.406,30.186,15.375,30.194,15.339L30.194,15.339z"/>
						<path fill="#BFBDBE" d="M30.146,15.429l0.922-0.513c-0.01,0.011-0.021,0.02-0.035,0.028l-0.923,0.513
							C30.122,15.449,30.134,15.439,30.146,15.429L30.146,15.429z"/>
					</g>
				</g>
				<g>
					<path fill="#255F6C" d="M29.872,14.657c0.186,0.107,0.336,0.368,0.336,0.583c-0.001,0.213-0.152,0.3-0.339,0.193
						c-0.186-0.107-0.337-0.37-0.336-0.583C29.533,14.635,29.687,14.55,29.872,14.657z"/>
				</g>
			</g>
		</g>
		<g>
			<g enable-background="new    ">
				<g enable-background="new    ">
					<g>
						<path fill="#BFBDBE" d="M37.933,19.506l0.923-0.513c0.063-0.036,0.147-0.031,0.241,0.023l-0.924,0.513
							C38.08,19.475,37.995,19.47,37.933,19.506L37.933,19.506z"/>
					</g>
				</g>
				<g enable-background="new    ">
					<g enable-background="new    ">
						<path fill="#BFBDBE" d="M38.173,19.529l0.924-0.513c0.031,0.019,0.063,0.042,0.094,0.069l-0.924,0.512
							C38.237,19.571,38.205,19.547,38.173,19.529L38.173,19.529z"/>
						<path fill="#BFBDBE" d="M38.267,19.598l0.924-0.512c0.037,0.034,0.07,0.073,0.101,0.116l-0.922,0.512
							C38.338,19.671,38.304,19.632,38.267,19.598L38.267,19.598z"/>
						<path fill="#E6E6E6" d="M38.369,19.714l0.922-0.512c0.087,0.12,0.142,0.267,0.141,0.397c0,0.037-0.004,0.07-0.012,0.099
							l-0.923,0.513c0.008-0.029,0.012-0.062,0.012-0.099C38.509,19.981,38.454,19.834,38.369,19.714L38.369,19.714z"/>
						<path fill="#BFBDBE" d="M38.497,20.21l0.923-0.513c-0.011,0.037-0.028,0.067-0.05,0.09L38.447,20.3
							C38.468,20.277,38.485,20.248,38.497,20.21L38.497,20.21z"/>
						<path fill="#BFBDBE" d="M38.447,20.3l0.923-0.512c-0.012,0.011-0.023,0.021-0.036,0.028l-0.924,0.513
							C38.423,20.32,38.436,20.311,38.447,20.3L38.447,20.3z"/>
					</g>
				</g>
				<g>
					<path fill="#255F6C" d="M38.173,19.529c0.188,0.108,0.338,0.368,0.336,0.583c-0.001,0.213-0.151,0.301-0.339,0.193
						c-0.185-0.107-0.336-0.37-0.335-0.583C37.835,19.507,37.987,19.421,38.173,19.529z"/>
				</g>
			</g>
		</g>
		<g>
			<g>
				<g enable-background="new    ">
					<g>
						<polygon fill="#C5C5C5" points="22.626,17.03 22.627,17.692 35.776,25.333 35.773,24.672 						"/>
					</g>
					<g>
						<polygon fill="#898989" points="35.773,24.672 35.776,25.333 41.442,22.046 41.44,21.385 						"/>
					</g>
					<g>
						<polygon fill="#FFFFFF" points="22.626,17.03 35.773,24.672 41.44,21.385 28.292,13.744 						"/>
					</g>
				</g>
			</g>
			<g>
				<polygon fill="#00447D" points="27.644,16.976 25.522,18.2 23.401,16.976 25.522,15.75 				"/>
				<polygon fill="#00447D" points="30.262,15.464 28.14,16.689 26.018,15.464 28.14,14.239 				"/>
				<polygon fill="#00447D" points="30.168,18.432 28.045,19.657 25.923,18.432 28.045,17.207 				"/>
				<polygon fill="#00447D" points="32.783,16.92 30.662,18.146 28.54,16.92 30.662,15.696 				"/>
				<polygon fill="#00447D" points="32.689,19.888 30.567,21.113 28.446,19.888 30.567,18.663 				"/>
				<polygon fill="#00447D" points="35.307,18.377 33.185,19.602 31.063,18.377 33.185,17.152 				"/>
				<polygon fill="#00447D" points="35.213,21.345 33.09,22.569 30.969,21.345 33.09,20.12 				"/>
				<polygon fill="#00447D" points="37.829,19.834 35.707,21.059 33.585,19.834 35.707,18.608 				"/>
				<polygon fill="#00447D" points="37.735,22.801 35.612,24.026 33.491,22.801 35.612,21.576 				"/>
				<polygon fill="#00447D" points="40.352,21.29 38.231,22.515 36.108,21.29 38.231,20.065 				"/>
			</g>
		</g>
		<g>
			<g enable-background="new    ">
				<g enable-background="new    ">
					<g>
						<path fill="#BFBDBE" d="M20.269,20.546l4.094-2.378c0.062-0.036,0.146-0.031,0.24,0.022l-4.093,2.379
							C20.415,20.517,20.33,20.511,20.269,20.546L20.269,20.546z"/>
					</g>
				</g>
				<g enable-background="new    ">
					<g enable-background="new    ">
						<path fill="#BFBDBE" d="M20.509,20.57l4.093-2.379c0.033,0.02,0.064,0.042,0.094,0.069l-4.094,2.379
							C20.572,20.612,20.541,20.589,20.509,20.57L20.509,20.57z"/>
						<path fill="#BFBDBE" d="M20.602,20.639l4.094-2.379c0.036,0.034,0.071,0.074,0.102,0.117l-4.093,2.379
							C20.674,20.712,20.639,20.673,20.602,20.639L20.602,20.639z"/>
						<path fill="#E6E6E6" d="M20.705,20.755l4.093-2.379c0.085,0.119,0.141,0.267,0.141,0.397c0,0.037-0.005,0.07-0.014,0.098
							l-4.093,2.379c0.009-0.029,0.014-0.062,0.014-0.098C20.846,21.022,20.79,20.875,20.705,20.755L20.705,20.755z"/>
						<path fill="#BFBDBE" d="M20.832,21.251l4.093-2.379c-0.009,0.038-0.027,0.067-0.049,0.09l-4.094,2.379
							C20.804,21.318,20.821,21.288,20.832,21.251L20.832,21.251z"/>
						<path fill="#BFBDBE" d="M20.782,21.341l4.094-2.379c-0.012,0.011-0.023,0.021-0.036,0.028l-4.093,2.379
							C20.76,21.362,20.771,21.353,20.782,21.341L20.782,21.341z"/>
					</g>
				</g>
				<g>
					<path fill="#255F6C" d="M20.509,20.57c0.187,0.108,0.337,0.368,0.336,0.583c0,0.213-0.152,0.3-0.339,0.193
						c-0.185-0.107-0.336-0.37-0.336-0.583C20.17,20.548,20.323,20.463,20.509,20.57z"/>
				</g>
			</g>
		</g>
		<g>
			<g enable-background="new    ">
				<g enable-background="new    ">
					<g>
						<path fill="#BFBDBE" d="M28.41,25.333l4.081-2.399c0.063-0.036,0.147-0.031,0.241,0.022l-4.083,2.399
							C28.557,25.302,28.471,25.297,28.41,25.333L28.41,25.333z"/>
					</g>
				</g>
				<g enable-background="new    ">
					<g enable-background="new    ">
						<path fill="#BFBDBE" d="M28.649,25.355l4.083-2.399c0.032,0.019,0.063,0.042,0.093,0.068l-4.081,2.398
							C28.714,25.398,28.684,25.375,28.649,25.355L28.649,25.355z"/>
						<path fill="#BFBDBE" d="M28.744,25.423l4.081-2.398c0.038,0.034,0.072,0.073,0.104,0.116l-4.082,2.399
							C28.816,25.497,28.781,25.457,28.744,25.423L28.744,25.423z"/>
						<path fill="#E6E6E6" d="M28.847,25.54l4.082-2.399c0.086,0.119,0.143,0.267,0.143,0.396c0,0.037-0.005,0.07-0.014,0.099
							l-4.08,2.399c0.008-0.029,0.012-0.063,0.012-0.099C28.989,25.807,28.933,25.659,28.847,25.54L28.847,25.54z"/>
						<path fill="#BFBDBE" d="M28.978,26.035l4.08-2.399c-0.01,0.037-0.026,0.067-0.049,0.09l-4.082,2.398
							C28.949,26.103,28.967,26.072,28.978,26.035L28.978,26.035z"/>
						<path fill="#BFBDBE" d="M28.927,26.125l4.082-2.398c-0.01,0.011-0.021,0.021-0.036,0.027l-4.08,2.399
							C28.905,26.146,28.916,26.137,28.927,26.125L28.927,26.125z"/>
					</g>
				</g>
				<g>
					<path fill="#255F6C" d="M28.649,25.355c0.188,0.106,0.34,0.367,0.34,0.581c0.001,0.212-0.15,0.3-0.339,0.194
						c-0.184-0.105-0.338-0.368-0.338-0.581C28.312,25.335,28.464,25.249,28.649,25.355z"/>
				</g>
			</g>
		</g>
	</g>
	<g>
		<g enable-background="new    ">
			<g>
				<defs>
					<path id="SVGID_1_" d="M21.016,17.11l-1.355-0.788c-0.551-0.32-1.315-0.275-2.159,0.212l1.356,0.788
						C19.701,16.835,20.464,16.79,21.016,17.11z"/>
				</defs>
				<use xlink:href="#SVGID_1_"  overflow="visible" fill="#082C44"/>
				<clipPath id="SVGID_2_">
					<use xlink:href="#SVGID_1_"  overflow="visible"/>
				</clipPath>
				<g clip-path="url(#SVGID_2_)">
					<path fill="#BABABA" d="M21.016,17.11l-1.355-0.788c-0.551-0.32-1.315-0.275-2.159,0.212l1.356,0.788
						C19.701,16.835,20.464,16.79,21.016,17.11L21.016,17.11z"/>
				</g>
			</g>
			<g enable-background="new    ">
				<defs>
					<path id="SVGID_3_" enable-background="new    " d="M15.363,23.716l1.356,0.788c-0.544-0.316-0.882-0.988-0.885-1.945
						c-0.005-1.924,1.348-4.27,3.023-5.236l-1.356-0.788c-1.675,0.967-3.028,3.312-3.023,5.237
						C14.481,22.726,14.819,23.399,15.363,23.716z"/>
				</defs>
				<use xlink:href="#SVGID_3_"  overflow="visible" fill="#BABABA"/>
				<clipPath id="SVGID_4_">
					<use xlink:href="#SVGID_3_"  overflow="visible"/>
				</clipPath>
				<g clip-path="url(#SVGID_4_)" enable-background="new    ">
					<path fill="#E6E6E6" d="M18.858,17.322l-1.356-0.788c-0.291,0.167-0.571,0.377-0.837,0.618l1.356,0.788
						C18.286,17.699,18.567,17.49,18.858,17.322L18.858,17.322z"/>
					<path fill="#E6E6E6" d="M18.021,17.94l-1.356-0.788c-0.335,0.304-0.646,0.659-0.922,1.046l1.356,0.788
						C17.375,18.6,17.686,18.245,18.021,17.94L18.021,17.94z"/>
					<path fill="#BABABA" d="M17.098,18.987l-1.356-0.788c-0.768,1.076-1.267,2.402-1.264,3.572
						c0.001,0.331,0.042,0.629,0.119,0.889l1.356,0.788c-0.077-0.26-0.118-0.558-0.119-0.89
						C15.832,21.389,16.331,20.063,17.098,18.987L17.098,18.987z"/>
					<path fill="#BABABA" d="M15.953,23.448l-1.356-0.788c0.097,0.33,0.25,0.602,0.448,0.806l1.355,0.788
						C16.203,24.049,16.05,23.779,15.953,23.448L15.953,23.448z"/>
					<path fill="#BABABA" d="M16.4,24.254l-1.355-0.788c0.095,0.099,0.202,0.183,0.318,0.25l1.356,0.788
						C16.604,24.437,16.497,24.353,16.4,24.254L16.4,24.254z"/>
				</g>
			</g>
			<g>
				<path fill="#A8A8A8" d="M18.858,17.322c-1.675,0.967-3.029,3.312-3.023,5.236c0.005,1.925,1.368,2.702,3.043,1.734
					c1.676-0.967,3.029-3.312,3.023-5.236S20.534,16.354,18.858,17.322z"/>
			</g>
		</g>
	</g>
	<g>
		<g enable-background="new    ">
			<g enable-background="new    ">
				<g>
					<path fill="#8B2323" d="M34.157,25.269l-13.309-7.684c-0.486-0.282-1.158-0.242-1.9,0.186l13.308,7.685
						C32.999,25.026,33.671,24.987,34.157,25.269L34.157,25.269z"/>
				</g>
			</g>
			<g enable-background="new    ">
				<g enable-background="new    ">
					<path fill="#B42E2D" d="M32.256,25.456l-13.308-7.685c-0.256,0.148-0.503,0.332-0.737,0.545l13.309,7.684
						C31.754,25.787,32,25.603,32.256,25.456L32.256,25.456z"/>
					<path fill="#B42E2D" d="M28.076,24.012l-9.866-5.697c-0.295,0.268-0.569,0.58-0.812,0.921l13.309,7.685
						c0.243-0.342,0.518-0.653,0.812-0.922l0,0L28.076,24.012L28.076,24.012z"/>
					<path fill="#EE3C3B" d="M30.708,26.921l-13.309-7.685c-0.677,0.948-1.116,2.115-1.113,3.145c0,0.292,0.037,0.555,0.104,0.784
						L29.7,30.85c-0.067-0.229-0.104-0.491-0.104-0.784C29.593,29.036,30.032,27.869,30.708,26.921L30.708,26.921z"/>
					<path fill="#B42E2D" d="M29.7,30.85l-13.31-7.685c0.085,0.292,0.22,0.53,0.395,0.71l13.31,7.685
						C29.92,31.379,29.785,31.141,29.7,30.85L29.7,30.85z"/>
					<path fill="#902524" d="M30.095,31.56l-13.31-7.685c0.085,0.087,0.179,0.161,0.281,0.22l13.309,7.684
						C30.272,31.719,30.179,31.646,30.095,31.56L30.095,31.56z"/>
				</g>
			</g>
			<g>
				<path fill="#6E1C1B" d="M32.256,25.456c-1.474,0.852-2.665,2.915-2.66,4.61c0.005,1.696,1.204,2.379,2.679,1.528
					c1.475-0.854,2.666-2.915,2.661-4.612C34.932,25.287,33.732,24.604,32.256,25.456z"/>
			</g>
		</g>
	</g>
	<g>
		<g>
			<g enable-background="new    ">
				<g enable-background="new    ">
					<g>
						<path fill="#BFBDBE" d="M13.822,24.758l4.094-2.379c0.061-0.036,0.146-0.031,0.239,0.023l-4.093,2.379
							C13.969,24.728,13.883,24.723,13.822,24.758L13.822,24.758z"/>
					</g>
				</g>
				<g enable-background="new    ">
					<g enable-background="new    ">
						<path fill="#BFBDBE" d="M14.062,24.782l4.093-2.379c0.033,0.019,0.064,0.042,0.094,0.068l-4.093,2.378
							C14.125,24.824,14.094,24.8,14.062,24.782L14.062,24.782z"/>
						<path fill="#BFBDBE" d="M14.155,24.85l4.093-2.378c0.037,0.034,0.072,0.073,0.103,0.116l-4.093,2.379
							C14.228,24.924,14.192,24.884,14.155,24.85L14.155,24.85z"/>
						<path fill="#E6E6E6" d="M14.258,24.967l4.093-2.379c0.085,0.12,0.141,0.268,0.141,0.397c0,0.037-0.005,0.07-0.014,0.099
							l-4.093,2.379c0.008-0.03,0.013-0.063,0.013-0.099C14.399,25.233,14.343,25.087,14.258,24.967L14.258,24.967z"/>
						<path fill="#BFBDBE" d="M14.385,25.463l4.093-2.379c-0.01,0.037-0.027,0.067-0.049,0.09l-4.094,2.379
							C14.357,25.53,14.375,25.499,14.385,25.463L14.385,25.463z"/>
						<path fill="#BFBDBE" d="M14.335,25.553l4.094-2.379c-0.011,0.01-0.023,0.02-0.036,0.027l-4.094,2.379
							C14.313,25.573,14.324,25.563,14.335,25.553L14.335,25.553z"/>
					</g>
				</g>
				<g>
					<path fill="#255F6C" d="M14.062,24.782c0.187,0.107,0.337,0.368,0.337,0.583c0,0.213-0.152,0.3-0.339,0.193
						c-0.185-0.107-0.337-0.37-0.336-0.583C13.724,24.76,13.876,24.674,14.062,24.782z"/>
				</g>
			</g>
		</g>
		<g>
			<g enable-background="new    ">
				<g enable-background="new    ">
					<g>
						<path fill="#BFBDBE" d="M21.963,29.544l4.082-2.398c0.062-0.036,0.146-0.032,0.24,0.022l-4.082,2.399
							C22.109,29.512,22.024,29.508,21.963,29.544L21.963,29.544z"/>
					</g>
				</g>
				<g enable-background="new    ">
					<g enable-background="new    ">
						<path fill="#BFBDBE" d="M22.203,29.567l4.082-2.399c0.032,0.018,0.064,0.041,0.094,0.067l-4.082,2.399
							C22.268,29.607,22.236,29.585,22.203,29.567L22.203,29.567z"/>
						<path fill="#BFBDBE" d="M22.297,29.635l4.082-2.399c0.037,0.034,0.071,0.074,0.104,0.116L22.4,29.75
							C22.369,29.708,22.334,29.67,22.297,29.635L22.297,29.635z"/>
						<path fill="#E6E6E6" d="M22.4,29.75l4.082-2.398c0.086,0.12,0.141,0.266,0.141,0.396c0,0.038-0.002,0.07-0.011,0.101
							l-4.083,2.398c0.008-0.028,0.013-0.063,0.013-0.098C22.542,30.019,22.486,29.869,22.4,29.75L22.4,29.75z"/>
						<path fill="#BFBDBE" d="M22.53,30.246l4.083-2.398c-0.011,0.035-0.028,0.068-0.05,0.089l-4.082,2.4
							C22.502,30.313,22.52,30.284,22.53,30.246L22.53,30.246z"/>
						<path fill="#BFBDBE" d="M22.48,30.337l4.082-2.4c-0.011,0.013-0.023,0.021-0.035,0.029l-4.083,2.399
							C22.458,30.356,22.469,30.348,22.48,30.337L22.48,30.337z"/>
					</g>
				</g>
				<g>
					<path fill="#255F6C" d="M22.203,29.567c0.188,0.106,0.339,0.366,0.34,0.581c0,0.212-0.151,0.302-0.338,0.194
						c-0.186-0.105-0.339-0.369-0.339-0.581C21.865,29.546,22.017,29.461,22.203,29.567z"/>
				</g>
			</g>
		</g>
		<g>
			<g>
				<g>
					<g enable-background="new    ">
						<g>
							<polygon fill="#C5C5C5" points="7.94,25.844 7.942,26.506 21.091,34.147 21.089,33.485 							"/>
						</g>
						<g>
							<polygon fill="#898989" points="21.089,33.485 21.091,34.147 26.757,30.86 26.756,30.199 							"/>
						</g>
						<g>
							<polygon fill="#FFFFFF" points="7.94,25.844 21.089,33.485 26.756,30.199 13.606,22.559 							"/>
						</g>
					</g>
				</g>
				<g>
					<polygon fill="#00447D" points="12.959,25.79 10.837,27.015 8.715,25.79 10.837,24.564 					"/>
					<polygon fill="#00447D" points="15.576,24.278 13.455,25.503 11.333,24.278 13.455,23.053 					"/>
					<polygon fill="#00447D" points="15.482,27.246 13.36,28.471 11.238,27.246 13.36,26.021 					"/>
					<polygon fill="#00447D" points="18.099,25.734 15.977,26.96 13.855,25.734 15.977,24.51 					"/>
					<polygon fill="#00447D" points="18.005,28.702 15.882,29.927 13.761,28.702 15.882,27.478 					"/>
					<polygon fill="#00447D" points="20.621,27.192 18.5,28.417 16.378,27.192 18.5,25.966 					"/>
					<polygon fill="#00447D" points="20.527,30.159 18.405,31.384 16.284,30.159 18.405,28.934 					"/>
					<polygon fill="#00447D" points="23.144,28.646 21.022,29.873 18.9,28.646 21.022,27.423 					"/>
					<polygon fill="#00447D" points="23.05,31.614 20.928,32.84 18.806,31.614 20.928,30.39 					"/>
					<polygon fill="#00447D" points="25.667,30.104 23.544,31.33 21.423,30.104 23.544,28.879 					"/>
				</g>
			</g>
			<g>
				<g enable-background="new    ">
					<g enable-background="new    ">
						<g>
							<path fill="#BFBDBE" d="M8.099,27.373l0.923-0.512c0.062-0.036,0.147-0.03,0.241,0.023L8.34,27.396
								C8.246,27.344,8.161,27.338,8.099,27.373L8.099,27.373z"/>
						</g>
					</g>
					<g enable-background="new    ">
						<g enable-background="new    ">
							<path fill="#BFBDBE" d="M8.34,27.396l0.923-0.512c0.032,0.019,0.063,0.042,0.093,0.067l-0.923,0.515
								C8.404,27.438,8.372,27.416,8.34,27.396L8.34,27.396z"/>
							<path fill="#BFBDBE" d="M8.433,27.467l0.923-0.515c0.038,0.035,0.072,0.075,0.103,0.118l-0.923,0.511
								C8.505,27.539,8.471,27.499,8.433,27.467L8.433,27.467z"/>
							<path fill="#E6E6E6" d="M8.536,27.581l0.923-0.511c0.085,0.118,0.141,0.268,0.14,0.396c0,0.036-0.005,0.07-0.013,0.1
								l-0.922,0.511c0.007-0.028,0.012-0.063,0.012-0.098C8.676,27.85,8.622,27.7,8.536,27.581L8.536,27.581z"/>
							<path fill="#BFBDBE" d="M8.664,28.077l0.922-0.511c-0.011,0.037-0.028,0.066-0.05,0.089l-0.923,0.514
								C8.635,28.145,8.652,28.115,8.664,28.077L8.664,28.077z"/>
							<path fill="#BFBDBE" d="M8.613,28.169l0.923-0.514c-0.011,0.011-0.022,0.02-0.036,0.028l-0.923,0.513
								C8.59,28.188,8.603,28.18,8.613,28.169L8.613,28.169z"/>
						</g>
					</g>
					<g>
						<path fill="#255F6C" d="M8.34,27.396c0.187,0.108,0.337,0.368,0.336,0.583c0,0.212-0.152,0.299-0.338,0.193
							C8.152,28.066,8,27.803,8.001,27.59C8.001,27.376,8.154,27.291,8.34,27.396z"/>
					</g>
				</g>
			</g>
			<g>
				<g enable-background="new    ">
					<g enable-background="new    ">
						<g>
							<path fill="#BFBDBE" d="M16.401,32.244l0.923-0.513c0.061-0.033,0.146-0.03,0.24,0.023l-0.923,0.513
								C16.547,32.215,16.462,32.21,16.401,32.244L16.401,32.244z"/>
						</g>
					</g>
					<g enable-background="new    ">
						<g enable-background="new    ">
							<path fill="#BFBDBE" d="M16.641,32.268l0.923-0.513c0.033,0.02,0.064,0.042,0.094,0.07l-0.923,0.513
								C16.705,32.311,16.674,32.286,16.641,32.268L16.641,32.268z"/>
							<path fill="#BFBDBE" d="M16.735,32.338l0.923-0.513c0.037,0.034,0.072,0.072,0.103,0.117l-0.923,0.51
								C16.807,32.409,16.772,32.371,16.735,32.338L16.735,32.338z"/>
							<path fill="#E6E6E6" d="M16.837,32.452l0.923-0.51c0.085,0.118,0.141,0.266,0.141,0.396c0,0.038-0.006,0.069-0.014,0.1
								l-0.923,0.513c0.009-0.03,0.014-0.063,0.014-0.101C16.978,32.72,16.922,32.574,16.837,32.452L16.837,32.452z"/>
							<path fill="#BFBDBE" d="M16.964,32.95l0.923-0.513c-0.011,0.036-0.028,0.065-0.05,0.09l-0.923,0.512
								C16.937,33.017,16.954,32.985,16.964,32.95L16.964,32.95z"/>
							<path fill="#BFBDBE" d="M16.915,33.039l0.923-0.512c-0.011,0.01-0.023,0.021-0.036,0.027l-0.923,0.512
								C16.892,33.061,16.904,33.05,16.915,33.039L16.915,33.039z"/>
						</g>
					</g>
					<g>
						<path fill="#255F6C" d="M16.641,32.268c0.187,0.108,0.337,0.37,0.337,0.582c0,0.215-0.153,0.302-0.339,0.194
							c-0.185-0.107-0.338-0.371-0.337-0.583C16.303,32.246,16.456,32.161,16.641,32.268z"/>
					</g>
				</g>
			</g>
			<g>
				<g>
					<g enable-background="new    ">
						<g>
							<polygon fill="#C5C5C5" points="1.083,29.706 1.084,30.367 14.233,38.01 14.231,37.349 							"/>
						</g>
						<g>
							<polygon fill="#898989" points="14.231,37.349 14.233,38.01 19.899,34.724 19.898,34.063 							"/>
						</g>
						<g>
							<polygon fill="#FFFFFF" points="1.083,29.706 14.231,37.349 19.898,34.063 6.749,26.421 							"/>
						</g>
					</g>
				</g>
				<g>
					<polygon fill="#00447D" points="6.101,29.65 3.979,30.877 1.857,29.65 3.979,28.426 					"/>
					<polygon fill="#00447D" points="8.718,28.141 6.597,29.366 4.474,28.141 6.597,26.915 					"/>
					<polygon fill="#00447D" points="8.624,31.108 6.502,32.333 4.38,31.108 6.502,29.882 					"/>
					<polygon fill="#00447D" points="11.241,29.597 9.119,30.821 6.997,29.597 9.119,28.372 					"/>
					<polygon fill="#00447D" points="11.146,32.565 9.024,33.79 6.903,32.565 9.024,31.341 					"/>
					<polygon fill="#00447D" points="13.764,31.054 11.642,32.277 9.52,31.054 11.642,29.829 					"/>
					<polygon fill="#00447D" points="13.669,34.021 11.548,35.246 9.425,34.021 11.548,32.797 					"/>
					<polygon fill="#00447D" points="16.286,32.51 14.165,33.734 12.042,32.51 14.165,31.285 					"/>
					<polygon fill="#00447D" points="16.191,35.479 14.07,36.703 11.948,35.479 14.07,34.251 					"/>
					<polygon fill="#00447D" points="18.809,33.966 16.687,35.19 14.565,33.966 16.687,32.742 					"/>
				</g>
			</g>
		</g>
	</g>
	<g>
		<g enable-background="new    ">
			<g>
				<defs>
					<path id="SVGID_5_" d="M35.287,25.474l-1.356-0.788c-0.552-0.32-1.314-0.276-2.158,0.211l1.356,0.788
						C33.972,25.199,34.735,25.154,35.287,25.474z"/>
				</defs>
				<use xlink:href="#SVGID_5_"  overflow="visible" fill="#082C44"/>
				<clipPath id="SVGID_6_">
					<use xlink:href="#SVGID_5_"  overflow="visible"/>
				</clipPath>
				<g clip-path="url(#SVGID_6_)">
					<path fill="#BABABA" d="M35.287,25.474l-1.356-0.788c-0.552-0.32-1.314-0.276-2.158,0.211l1.356,0.788
						C33.972,25.199,34.735,25.154,35.287,25.474L35.287,25.474z"/>
				</g>
			</g>
			<g enable-background="new    ">
				<defs>
					<path id="SVGID_7_" enable-background="new    " d="M29.634,32.078l1.356,0.789c-0.543-0.317-0.882-0.989-0.885-1.945
						c-0.006-1.924,1.349-4.271,3.023-5.236l-1.356-0.788c-1.675,0.967-3.028,3.312-3.022,5.237
						C28.752,31.089,29.09,31.764,29.634,32.078z"/>
				</defs>
				<use xlink:href="#SVGID_7_"  overflow="visible" fill="#BABABA"/>
				<clipPath id="SVGID_8_">
					<use xlink:href="#SVGID_7_"  overflow="visible"/>
				</clipPath>
				<g clip-path="url(#SVGID_8_)" enable-background="new    ">
					<path fill="#E6E6E6" d="M33.129,25.686l-1.356-0.788c-0.29,0.167-0.57,0.377-0.837,0.618l1.356,0.789
						C32.558,26.063,32.838,25.854,33.129,25.686L33.129,25.686z"/>
					<path fill="#E6E6E6" d="M32.292,26.304l-1.356-0.789c-0.335,0.304-0.646,0.66-0.923,1.046l1.356,0.788
						C31.646,26.963,31.957,26.608,32.292,26.304L32.292,26.304z"/>
					<path fill="#BABABA" d="M31.369,27.35l-1.356-0.788c-0.768,1.078-1.267,2.402-1.263,3.573c0.001,0.33,0.041,0.628,0.117,0.889
						l1.357,0.789c-0.077-0.262-0.119-0.559-0.119-0.891C30.102,29.753,30.602,28.428,31.369,27.35L31.369,27.35z"/>
					<path fill="#BABABA" d="M30.225,31.813l-1.357-0.789c0.097,0.329,0.251,0.602,0.448,0.807l1.355,0.786
						C30.474,32.412,30.32,32.142,30.225,31.813L30.225,31.813z"/>
					<path fill="#BABABA" d="M30.671,32.616l-1.355-0.786c0.097,0.097,0.203,0.182,0.318,0.248l1.356,0.789
						C30.875,32.799,30.769,32.716,30.671,32.616L30.671,32.616z"/>
				</g>
			</g>
			<g>
				<path fill="#A8A8A8" d="M33.129,25.686c-1.675,0.966-3.029,3.313-3.023,5.236s1.369,2.702,3.043,1.735
					c1.677-0.968,3.028-3.313,3.023-5.237C36.166,25.495,34.805,24.718,33.129,25.686z"/>
			</g>
		</g>
	</g>
	<g>
		<g>
			<g enable-background="new    ">
				<g enable-background="new    ">
					<defs>
						<path id="SVGID_9_" enable-background="new    " d="M38.012,31.536l-4.351-2.527c-0.053-0.033-0.129-0.028-0.212,0.021
							l4.349,2.526C37.882,31.509,37.957,31.504,38.012,31.536z"/>
					</defs>
					<clipPath id="SVGID_10_">
						<use xlink:href="#SVGID_9_"  overflow="visible"/>
					</clipPath>
					<g clip-path="url(#SVGID_10_)">
						<path fill="#BABABA" d="M38.012,31.536l-4.351-2.527c-0.053-0.033-0.129-0.028-0.212,0.021l4.349,2.526
							C37.882,31.509,37.957,31.504,38.012,31.536L38.012,31.536z"/>
					</g>
				</g>
				<g enable-background="new    ">
					<defs>
						<path id="SVGID_11_" enable-background="new    " d="M33.24,29.733l4.349,2.525c-0.055-0.03-0.087-0.096-0.087-0.191
							c-0.002-0.188,0.133-0.416,0.296-0.512l-4.349-2.526c-0.163,0.094-0.298,0.323-0.297,0.513
							C33.152,29.635,33.186,29.701,33.24,29.733z"/>
					</defs>
					<clipPath id="SVGID_12_">
						<use xlink:href="#SVGID_11_"  overflow="visible"/>
					</clipPath>
					<g clip-path="url(#SVGID_12_)" enable-background="new    ">
						<path fill="#E6E6E6" d="M37.798,31.556l-4.349-2.526c-0.038,0.021-0.074,0.051-0.108,0.085l4.35,2.528
							C37.723,31.606,37.76,31.578,37.798,31.556L37.798,31.556z"/>
						<path fill="#FFFFFF" d="M37.69,31.643l-4.35-2.528c-0.11,0.113-0.188,0.283-0.188,0.428c0,0.029,0.004,0.057,0.01,0.081
							l4.35,2.527c-0.007-0.025-0.01-0.052-0.01-0.083C37.502,31.923,37.579,31.755,37.69,31.643L37.69,31.643z"/>
						<path fill="#D4D4D4" d="M37.512,32.15l-4.35-2.527c0.014,0.051,0.042,0.089,0.078,0.11l4.349,2.525
							C37.552,32.237,37.525,32.201,37.512,32.15L37.512,32.15z"/>
					</g>
				</g>
				<g>
					<path fill="#C6C6C6" d="M37.798,31.556c-0.163,0.096-0.298,0.324-0.296,0.512c0.001,0.191,0.134,0.266,0.298,0.172
						c0.165-0.096,0.299-0.324,0.298-0.514S37.962,31.462,37.798,31.556z"/>
				</g>
			</g>
		</g>
	</g>
	<g>
		<circle fill="#FE534F" cx="38.206" cy="32.049" r="1.025"/>
		<path fill="#F23E3A" d="M38.785,31.205c0.138,0.246,0.169,0.516,0.075,0.826c-0.109,0.359-0.795,0.82-1.286,0.82
			c0.175,0.137,0.392,0.224,0.631,0.224c0.565,0,1.025-0.459,1.025-1.026C39.23,31.698,39.054,31.39,38.785,31.205z"/>
		<circle fill="#FFFFFF" cx="37.921" cy="31.663" r="0.387"/>
	</g>
</g>
</svg>
