<svg width="600" height="600" xmlns="http://www.w3.org/2000/svg" xmlns:xlink="http://www.w3.org/1999/xlink">
 <g>
  <title>background</title>
 
 </g>

 <g>
  <title>Title1</title>
 </g>
 <style type="text/css">.st0{fill:#83C0B3;}
	.st1{display:none;}
	.st2{display:inline;fill:#EFB378;}
	.st3{display:inline;fill:#F2B98B;}
	.st4{fill:#383639;}
	.st5{fill:#0A0A0A;}
	.st6{fill:#F1F2F2;}
	.st7{fill:#FFFFFF;}
	.st8{fill:#54585B;}
	.st9{fill:#BBBDBF;}
	.st10{fill:#333333;}
	.st11{fill:none;stroke:#999999;stroke-width:15;stroke-miterlimit:10;}
	.st12{fill:#FFC562;}
	.st13{fill:#01B4E5;}
	.st14{fill:#DDE1E6;}
	.st15{fill:#BBBFC1;}
	.st16{fill:#B9BEC1;}
	.st17{fill:#C4C5C4;}
	.st18{fill:#323333;}
	.st19{fill:#5B5C5C;}
	.st20{fill:#0EBDB2;}
	.st21{fill:#05E6DA;}
	.st22{fill:#0FBCB1;}
	.st23{fill:#10BCB1;}
	.st24{font-family:'BerlinSansFBDemi-Bold';}
	.st25{font-size:36px;}
	.st26{display:none;fill:#32C575;}
	.st27{fill:#32C571;}
	.st28{fill:#FEFEFE;}
	#header{
	animation : fadein 10s ease-in-out ;
	transform-origin: 50% 30%
	}
	@keyframes fadein{
	0%,5%{
	visibility : hidden
	}
	10%,20%{
	visibility : visible;
	transform:scale(1.2)
	}
	36%,100%{
	visibility : visible;
	transform:scale(1)
	}
	}
	#line1{
	animation : slide1 10s ease-in-out infinite
	}
	@keyframes slide1{
	0%,20%{
	visibility: hidden;
	transform : translateX(-207px)
	}
	30%,100%{
	visibility : visible
	transform : translateX(0px)
	}
	}
	#line4{
	animation : slide4 10s ease-in-out infinite
	}
	@keyframes slide4{
	0%,30%{
	visibility: hidden;
	transform : translateX(-207px)
	}
	40%,100%{
	visibility : visible
	transform : translateX(0px)
	}
	}
	#line3{
	animation : slide3 10s ease-in-out infinite
	}
	@keyframes slide3{
	0%,40%{
	visibility: hidden;
	transform : translateX(-207px)
	}
	50%,100%{
	visibility : visible
	transform : translateX(0px)
	}
     
	}
	#line2{
	animation : slide2 10s ease-in-out infinite
	}
	@keyframes slide2{
	0%,50%{
	visibility: hidden;
	transform : translateX(-207px)
	}
	60%,100%{
	visibility : visible
	transform : translateX(0px)
	}
     
	}
	#watch{
	animation : animate 10s ease-in-out 
	}
	@keyframes animate{
	0%,70%{
	visibility : hidden
	}
	90%,100%{
	visibility : visible
	}
	}
	#check{
	animation : blow 10s linear 
	}
	@keyframes blow{
	0%,80%{
	visibility : hidden
	}
	90%,100%{
	visibility : visible
	}
	}</style>
 <g>
  <title>Layer 1</title>
  <g stroke="null" id="svg_2">
   <g stroke="null" id="Layer_1">
    <g stroke="null" id="phone">
     <g stroke="null" id="svg_3">
      <g stroke="null" class="st1" id="svg_4">
       <path stroke="null" class="st2" d="m-93.05018,481.40853l162.88928,-102.54577c27.68927,-21.29209 68.65029,-17.09096 91.47006,9.45254l67.31356,78.00735c22.91526,26.5435 19.09605,65.30848 -8.59322,86.60057l-217.69493,165.56273l-95.38475,-237.07742z" id="svg_5"/>
      </g>
      <g stroke="null" class="st1" id="svg_6">
       <path stroke="null" class="st3" d="m295.07697,463.26729c-4.86949,48.98136 -50.79548,84.40453 -102.54577,79.05763l-152.38645,-15.75424c-51.75029,-5.34689 -89.8469,-49.36328 -84.97741,-98.34464l18.61865,-193.63391c4.86949,-48.98136 50.79548,-84.40453 102.54577,-79.05763l152.38645,15.65876c51.75029,5.34689 89.8469,49.36328 84.97741,98.34464l-18.61865,193.72939z" id="svg_7"/>
      </g>
      <g stroke="null" id="svg_8">
       <g stroke="null" id="svg_9">
        <path stroke="null" class="st4" d="m31.45605,148.85088c-14.32204,-0.09548 -25.87514,10.78927 -25.77966,24.34746l1.9096,248.91697c0.09548,13.55819 11.83955,24.6339 26.16158,24.72938l537.6492,3.81921c14.32204,0.09548 25.87514,-10.78927 25.77966,-24.34746l-1.9096,-248.91697c-0.09548,-13.55819 -11.83955,-24.6339 -26.16158,-24.72938l-537.6492,-3.81921z" id="svg_10"/>
       </g>
       <g stroke="null" id="svg_11">
        <path stroke="null" class="st5" d="m595.17135,177.49495l0.9548,124.50622l-589.49496,-4.20113l-0.9548,-124.50622c-0.09548,-13.55819 11.45763,-24.44294 25.77966,-24.34746l537.6492,3.81921c14.32204,0.09548 25.97062,11.17119 26.0661,24.72938z" id="svg_12"/>
       </g>
       <polygon stroke="null" class="st6" points="96.66905212402344,167.75596523284912 98.67414855957031,428.9898672103882 533.6820678710938,432.14071559906006 531.6769409179688,170.90682888031006 " id="svg_13"/>
       <g stroke="null" id="svg_14">
        <g stroke="null" id="svg_15">
         <polygon stroke="null" class="st7" points="96.66905212402344,167.75596523284912 98.67414855957031,428.9898672103882 533.6820678710938,432.14071559906006 531.6769409179688,170.90682888031006 " id="svg_16"/>
        </g>
       </g>
       <path stroke="null" class="st8" d="m557.7431,339.33395c0,4.20113 3.72373,7.7339 8.11582,7.7339c4.48757,0 8.11582,-3.34181 8.02034,-7.63842l-0.57288,-75.23842c0,-4.20113 -3.72373,-7.7339 -8.2113,-7.7339c-4.48757,0 -8.11582,3.34181 -8.02034,7.63842l0.66836,75.23842z" id="svg_17"/>
       <path stroke="null" class="st9" d="m37.18486,270.30174c-7.16102,-0.09548 -12.88983,5.44237 -12.88983,12.22147l0.19096,30.74464c0.09548,6.7791 5.91977,12.31695 13.08079,12.41243l32.46328,0.19096c7.16102,0.09548 12.88983,-5.44237 12.88983,-12.22147l-0.19096,-30.74464c-0.09548,-6.7791 -5.91977,-12.31695 -13.08079,-12.41243l-32.46328,-0.19096z" id="svg_18"/>
       <path stroke="null" class="st10" d="m77.66848,313.55428c0,4.10565 -3.43729,7.35198 -7.7339,7.35198l-32.46328,-0.19096c-4.29661,0 -7.82938,-3.34181 -7.82938,-7.44746l-0.19096,-30.74464c0,-4.10565 3.43729,-7.35198 7.7339,-7.35198l32.46328,0.19096c4.29661,0 7.82938,3.34181 7.82938,7.44746l0.19096,30.74464zm0,0c0,4.10565 -3.43729,7.35198 -7.7339,7.35198l-32.46328,-0.19096c-4.29661,0 -7.82938,-3.34181 -7.82938,-7.44746l-0.19096,-30.74464c0,-4.10565 3.43729,-7.35198 7.7339,-7.35198l32.46328,0.19096c4.29661,0 7.82938,3.34181 7.82938,7.44746l0.19096,30.74464z" id="svg_19"/>
       <g stroke="null" id="svg_20">
        <path stroke="null" class="st5" d="m77.47752,282.90513l0.09548,15.37232l-48.02656,-0.38192l-0.09548,-15.37232c0,-4.10565 3.43729,-7.35198 7.7339,-7.35198l32.46328,0.19096c4.29661,0.09548 7.82938,3.43729 7.82938,7.54294z" id="svg_21"/>
       </g>
      </g>
     </g>
    </g>
    <line stroke="null" id="line1" class="st11" x1="487.1832" y1="294.26727" x2="294.31313" y2="294.55372"/>
    <line stroke="null" id="line2" class="st11" x1="487.1832" y1="382.10909" x2="294.31313" y2="382.39553"/>
    <line stroke="null" id="line3" class="st11" x1="487.1832" y1="352.51022" x2="294.31313" y2="352.79666"/>
    <line stroke="null" id="line4" class="st11" x1="487.1832" y1="323.86615" x2="294.31313" y2="324.15259"/>
    <rect stroke="null" x="98.67413" y="256.4571" class="st7" width="190.86499" height="163.93956" id="svg_22"/>
    <g stroke="null" id="watch">
     <circle stroke="null" class="st12" cx="178.68657" cy="339.81135" r="72.27854" id="svg_23"/>
     <path stroke="null" class="st13" d="m147.65549,307.34807c2.00508,-5.91977 3.05537,-11.93503 3.05537,-18.14124c0,-3.62825 1.05028,-4.39209 5.34689,-4.39209c15.18136,0 30.45819,0 45.63955,0c4.67853,0 5.63333,0.76384 5.63333,4.67853c-0.09548,6.01525 0.85932,11.93503 2.95989,17.75932c-0.9548,0.85932 -2.29153,0.66836 -3.53277,0.66836c-17.75932,0 -35.61413,0 -53.37345,0c-1.33672,0 -2.76893,0 -4.10565,0.09548c-0.66836,0 -1.4322,0.09548 -1.62316,-0.66836z" id="svg_24"/>
     <path stroke="null" class="st13" d="m150.61538,391.84807c-0.09548,-3.62825 -0.57288,-7.16102 -1.71864,-10.59831c-0.4774,-0.85932 0.09548,-1.24124 1.05028,-1.4322c0.85932,-0.19096 1.81412,-0.09548 2.67345,-0.09548c17.56836,0 35.23221,0 52.80057,0c0.66836,0 1.33672,0 2.10057,0.09548c1.81412,0.19096 2.00508,0.4774 1.4322,2.19605c-0.9548,4.20113 -1.71864,8.30678 -1.52768,12.60339c-0.4774,1.24124 0.19096,2.48249 -0.19096,3.62825c-1.14576,1.52768 -2.86441,2.00508 -5.06045,2.00508c-15.37232,0 -30.84012,0 -46.21243,0c-2.10057,0 -4.01017,-0.19096 -5.06045,-2.00508c-0.19096,-0.28644 -0.19096,-0.57288 -0.09548,-0.9548c-0.09548,-1.81412 0.19096,-3.62825 -0.19096,-5.44237z" id="svg_25"/>
     <path stroke="null" class="st14" d="m208.9538,381.91813c0.4774,-1.4322 -0.28644,-1.71864 -1.81412,-1.71864c-18.80961,0 -37.61921,0 -56.42882,0c-0.9548,0 -1.81412,-0.09548 -1.71864,1.05028c-0.4774,-1.14576 -1.81412,-1.52768 -2.95989,-1.9096c-3.91469,-1.33672 -6.68362,-3.62825 -8.78418,-6.58814c-1.4322,-2.00508 -2.19605,-4.20113 -2.19605,-6.49266c-0.09548,-14.79944 -0.09548,-29.59887 0,-44.39831c0.09548,-6.3017 3.91469,-10.78927 10.69379,-13.55819c0.76384,-0.28644 1.52768,-0.4774 2.00508,-1.05028c1.05028,0.66836 2.10057,-0.09548 3.15085,-0.09548c6.20622,0.09548 12.50791,-0.09548 18.71413,0c13.27175,0.09548 26.63899,-0.19096 39.91074,0.09548c0.28644,0 0.57288,-0.09548 0.76384,-0.09548c0.38192,0.57288 1.05028,0.57288 1.71864,0.85932c5.91977,2.00508 9.92994,5.44237 11.26667,10.69379c0.57288,2.19605 0.76384,4.48757 0.57288,6.68362c-0.09548,0.76384 -0.09548,1.52768 0.85932,1.9096c-1.62316,0.4774 -2.10057,1.52768 -2.19605,2.86441c-0.19096,2.29153 -0.28644,4.58305 0.9548,6.7791c0.28644,2.19605 0.76384,4.29661 0.09548,6.49266c-0.19096,0.4774 0.57288,0.57288 0.66836,0.9548c-0.9548,0.57288 -0.9548,1.52768 -0.9548,2.29153c0.09548,5.82429 -0.28644,11.64859 0.19096,17.3774c0.66836,4.01017 -0.66836,7.54294 -3.62825,10.69379c-1.9096,2.00508 -4.29661,3.43729 -7.16102,4.39209c-1.52768,0.76384 -3.24633,1.14576 -3.72373,2.76893z" id="svg_26"/>
     <path stroke="null" class="st15" d="m223.4668,337.04242c-1.4322,-0.66836 -1.62316,-1.71864 -1.62316,-2.86441c-0.09548,-1.9096 0.09548,-3.81921 0.38192,-5.72881c0.19096,-1.52768 1.62316,-0.76384 2.48249,-0.9548c0.76384,0.38192 1.14576,1.05028 1.14576,1.71864c0.09548,2.00508 0.09548,4.01017 0,6.11073c0,1.05028 -0.9548,1.62316 -2.38701,1.71864z" id="svg_27"/>
     <path stroke="null" class="st16" d="m223.4668,364.25429c-0.85932,-0.38192 -0.85932,-0.9548 -0.85932,-1.62316c0,-5.53785 0,-11.07571 0,-16.70904c0,-0.85932 0.19096,-1.62316 1.62316,-1.4322c0,6.11073 0.09548,12.22147 0.09548,18.3322c0,0.57288 -0.09548,1.14576 -0.85932,1.4322z" id="svg_28"/>
     <path stroke="null" class="st17" d="m150.80634,397.29045l-0.19096,0c0,0 -0.09548,0 -0.09548,0c0,-1.81412 0,-3.62825 0.09548,-5.34689c0.4774,1.71864 0.19096,3.53277 0.19096,5.34689z" id="svg_29"/>
     <path stroke="null" class="st18" d="m215.7329,313.74524c3.62825,2.76893 5.15593,6.39718 5.15593,10.40735c0.09548,13.08079 0.09548,26.0661 0,39.1469c-0.09548,8.59322 -7.7339,14.79944 -18.23672,14.89492c-15.65876,0 -31.31752,0 -46.88079,0c-10.40735,0 -18.04576,-6.3017 -18.04576,-14.9904c0,-12.98531 0,-25.97062 0,-38.95594c0,-4.01017 1.52768,-7.54294 5.06045,-10.40735c0.9548,-0.19096 1.52768,0.38192 2.19605,0.76384c3.24633,2.00508 6.87458,3.05537 10.88475,2.86441c2.00508,-0.09548 4.10565,0 6.11073,0c0.76384,0 1.71864,-0.09548 2.19605,0.57288c-0.19096,0.85932 -1.14576,1.05028 -1.81412,1.4322c-9.54802,4.67853 -15.18136,11.64859 -16.4226,20.71921c-1.24124,8.49774 1.52768,16.04068 8.78418,22.34237c5.44237,4.67853 11.93503,7.63842 19.66893,8.59322c18.61865,2.19605 34.2774,-8.02034 37.81017,-21.38757c2.48249,-9.45254 -0.4774,-17.75932 -8.02034,-25.01582c-2.19605,-2.19605 -5.06045,-3.81921 -8.02034,-5.25141c-0.66836,-0.38192 -1.52768,-0.4774 -1.62316,-1.33672c0.57288,-0.66836 1.4322,-0.57288 2.19605,-0.57288c2.10057,0 4.20113,-0.09548 6.3017,0c4.10565,0.19096 7.54294,-1.05028 10.78927,-3.05537c0.57288,-0.4774 1.05028,-0.85932 1.9096,-0.76384z" id="svg_30"/>
     <path stroke="null" class="st19" d="m164.17357,318.04185c-2.48249,-0.38192 -5.06045,-0.28644 -7.54294,-0.19096c-5.34689,0.28644 -9.83446,-1.33672 -13.84463,-4.10565c3.34181,-2.95989 7.44746,-4.39209 12.31695,-4.39209c16.23164,-0.09548 32.3678,-0.09548 48.59944,0c4.67853,0 8.78418,1.4322 12.03051,4.39209c-4.10565,3.05537 -8.78418,4.48757 -14.32204,4.20113c-2.19605,-0.09548 -4.48757,-0.28644 -6.68362,0.19096c-0.76384,0.38192 -1.4322,-0.09548 -2.10057,-0.28644c-8.87966,-2.86441 -17.66384,-2.95989 -26.5435,0.09548c-0.66836,0.19096 -1.24124,0.66836 -1.9096,0.09548z" id="svg_31"/>
     <path stroke="null" class="st20" d="m164.17357,318.04185c4.48757,-1.71864 9.07062,-2.76893 14.03559,-2.86441c5.72881,-0.09548 11.26667,0.85932 16.4226,2.86441c9.6435,4.29661 15.84972,10.78927 18.23672,19.76441c3.72373,14.13107 -6.97006,28.83503 -23.77458,32.8452c-16.04068,3.72373 -32.65424,-2.00508 -40.29266,-14.03559c-8.40226,-13.36723 -2.57797,-29.98079 13.27175,-37.61921c0.76384,-0.28644 1.4322,-0.57288 2.10057,-0.9548z" id="svg_32"/>
     <path stroke="null" class="st10" d="m179.35493,320.90626c15.08588,0 27.49831,10.02542 27.59379,22.43785c0.09548,12.50791 -12.31695,22.81978 -27.30735,22.91526c-15.37232,0 -27.68927,-10.1209 -27.68927,-22.7243c-0.09548,-12.41243 12.31695,-22.62882 27.40283,-22.62882z" id="svg_33"/>
     <path stroke="null" class="st21" d="m186.03855,348.21361c-1.81412,2.29153 -4.48757,3.34181 -7.7339,2.95989c-3.34181,-0.38192 -5.72881,-1.9096 -6.68362,-4.67853c-0.9548,-2.67345 -0.28644,-5.06045 2.38701,-6.87458c1.71864,-1.62316 3.81921,-2.48249 6.49266,-2.10057c1.24124,0.19096 2.38701,0.4774 3.05537,1.4322c1.33672,0.4774 2.10057,1.4322 2.86441,2.38701c2.19605,1.9096 1.9096,5.72881 -0.38192,6.87458z" id="svg_34"/>
     <path stroke="null" class="st22" d="m183.55606,338.95202c-3.24633,-1.52768 -5.72881,-1.4322 -8.59322,0.38192c-0.28644,0.19096 -0.57288,0.19096 -0.9548,0.28644c1.05028,-0.76384 1.33672,-1.71864 1.24124,-2.86441c-0.09548,-3.15085 0,-6.20622 0,-9.35706c0,-2.29153 1.52768,-3.72373 3.91469,-3.81921c2.48249,-0.09548 4.10565,1.33672 4.20113,3.72373c0.09548,4.01017 0.19096,7.82938 0.19096,11.64859z" id="svg_35"/>
     <path stroke="null" class="st23" d="m186.03855,348.21361c2.00508,-2.19605 1.4322,-4.48757 0.38192,-6.87458c2.76893,0 5.44237,0 8.2113,0c2.76893,0 4.39209,1.24124 4.48757,3.34181c0,1.81412 -1.62316,3.24633 -4.29661,3.34181c-2.95989,0.19096 -5.82429,0.19096 -8.78418,0.19096z" id="svg_36"/>
    </g>
   </g>
   <g stroke="null" id="header">
    <path stroke="null" id="title" class="st12" d="m509.14366,239.84354l-392.13732,0c-6.3017,0 -11.45763,-5.15593 -11.45763,-11.45763l0,-40.1017c0,-6.3017 5.15593,-11.45763 11.45763,-11.45763l392.13732,0c6.3017,0 11.45763,5.15593 11.45763,11.45763l0,40.1017c0,6.3017 -5.15593,11.45763 -11.45763,11.45763z"/>
    <text stroke="null" x="-91.62926" y="81.32668" transform="matrix(0.954802 0 0 0.954802 364.615 145.006)" class="st24 st25" id="svg_37">AD</text>
    <circle stroke="null" class="st26" cx="462.35834" cy="210.24467" r="0" id="svg_38"/>
    <g stroke="null" id="check">
     <path stroke="null" class="st27" d="m466.46399,231.44128c-14.9904,0 -27.02091,-10.69379 -27.02091,-24.06102c0,-13.17627 12.12599,-23.87006 27.02091,-23.87006c14.9904,0 27.02091,10.69379 26.92543,24.06102c0,13.27175 -12.03051,23.87006 -26.92543,23.87006z" id="svg_39"/>
     <path stroke="null" class="st28" d="m452.9058,205.2797c0.85932,-0.09548 1.4322,0.38192 2.00508,0.85932c1.9096,1.71864 3.91469,3.43729 5.82429,5.25141c0.66836,0.66836 1.05028,0.66836 1.81412,0c4.67853,-4.20113 9.45254,-8.49774 14.22655,-12.69887c1.81412,-1.62316 2.76893,-1.52768 4.58305,0c0.76384,0.66836 1.52768,1.33672 2.19605,2.00508c1.4322,1.24124 1.4322,2.29153 0,3.53277c-3.53277,3.15085 -7.06554,6.3017 -10.59831,9.45254c-3.05537,2.76893 -6.11073,5.44237 -9.26158,8.2113c-1.62316,1.4322 -2.57797,1.4322 -4.20113,0c-3.62825,-3.24633 -7.35198,-6.49266 -10.98023,-9.73898c-1.52768,-1.4322 -1.52768,-2.38701 0,-3.72373c0.85932,-0.76384 1.81412,-1.62316 2.67345,-2.38701c0.38192,-0.57288 0.9548,-0.85932 1.71864,-0.76384z" id="svg_40"/>
    </g>
   </g>
  </g>
 </g>
</svg>