<?xml version="1.0" encoding="utf-8"?>
<!-- Generator: Adobe Illustrator 17.0.0, SVG Export Plug-In . SVG Version: 6.00 Build 0)  -->
<!DOCTYPE svg PUBLIC "-//W3C//DTD SVG 1.1//EN" "http://www.w3.org/Graphics/SVG/1.1/DTD/svg11.dtd">
<svg version="1.1" id="Layer_1" xmlns="http://www.w3.org/2000/svg" xmlns:xlink="http://www.w3.org/1999/xlink" x="0px" y="0px"
	 width="800px" height="600px" viewBox="0 0 800 600" enable-background="new 0 0 800 600" xml:space="preserve">
<g>
	<path fill="#D7D7D7" d="M478.821,471.309c-34.393,0-62.272,5.884-62.272,13.149c0,7.269,27.879,13.153,62.272,13.153
		c34.389,0,62.265-5.884,62.265-13.153C541.086,477.193,513.21,471.309,478.821,471.309z"/>
	<g>
		<path d="M459.447,182.037c-2.336,4.571-3.818,10.674-4.263,15.884c-0.033,0.368,0.552,0.451,0.67,0.115
			c1.468-4.012,3.913-12.469,4.578-15.537C460.562,181.924,459.739,181.462,459.447,182.037z"/>
		<path d="M465.716,159.664c-2.355,5.171-4.257,12.273-4.806,15.699c-0.081,0.494,0.841,0.402,1.115-0.136
			c1.969-3.949,3.566-9.585,4.787-15.089C466.962,159.482,465.996,159.036,465.716,159.664z"/>
		<path d="M506.716,466.907c1.833-7.918,6.308-22.592,8.988-31.955c9.094-3.99,19.875-22.91,12.763-32.794
			c1.305-5.515,1.507-11.49,1.288-17.073c-0.579-14.218-3.756-29.108-10.378-41.576c0.005-3.949-0.348-7.945-1.033-11.958
			c-1.116-6.571-3.503-13.017-6.774-18.816c-2.364-4.199-6.682-8.749-8.248-13.451c5.19-1.601,9.908-4.566,13.849-8.33
			c4.665-4.458,8.426-14.484,8.309-21.79c5.747,1.681,9.669-5.782,10.126-9.132c0.482-3.552-1.087-6.862-4.229-8.565
			c-0.914-0.502-2.063-0.815-3.214-0.875c2.945-9.558,3.738-20.728-2.906-28.574c1.078-0.246,4.211-0.6,6.241-1.197
			c-1.795-5.564-7.441-9.327-10.992-10.141c1.55-0.665,4.137-1.644,6.291-2.359c-9.02-10.905-36.771-2.873-37.755,11.885
			c-6.497,5.855-10.523,15.878-11.399,23.934c-11.72,5.827-21.855,18.702-19.515,30.068c1.385,6.729,9.027,6.451,13.893,3.408
			c-0.502,8.787,3.751,15.866,10.403,19.739c-6.799,4.073-10.188,11.824-12.752,17.571c-2.485-2.954-25.052-26.158-27.814-28.647
			c-4.224,4.3-9.395,10.074-13.585,14.99c2.608-10.296,21.134-74.944,26.424-97.39c0.188-0.806-0.967-1.078-1.232-0.315
			c-7.88,22.647-29.378,101.827-29.73,103.244c-3.909,4.96-7.522,10.137-10.557,15.429c-10.52-16.342-22.918-31.552-35.577-46.5
			c11.939,0.128,23.991,0.493,35.872-0.309c-3.25,2.535-6.265,5.767-8.931,8.688c-0.151,0.154,0.056,0.447,0.231,0.372
			c4.798-2.023,10.419-6.774,13.441-10.014c-2.755-2.673-6.484-5.836-9.15-8.597c-0.407-0.417-1.109,0.097-0.819,0.604
			c1.605,2.832,3.733,5.292,6.08,7.526c-12.729-0.987-25.7-0.434-38.477-0.344c-7.074-8.34-18.248-22.396-21.632-25.969
			c-4.917,2.518-10.917,6.383-15.378,9.613c-2.026-6.557-5.26-14.52-7.837-20.892c-3.756,3.291-14.668,13.772-20.484,21.05
			c-2.456-24.747-10.623-68.043-12.223-74.338c-7.746,6.907-15.655,14.562-21.604,22.742c-1.894-14.66-3.961-34.496-6.593-51.498
			c-0.125-0.816-1.442,1.1-1.331,1.875c2.679,17.984,4.626,45.579,5.939,56.009c5.265-5.918,14.601-17.221,22.269-23.87
			c4.907,24.745,8.789,51.68,11.196,76.788c3.85-4.794,14.755-16.174,21.385-23.334c2.447,6.117,6.055,15.815,7.841,20.983
			c3.712-2.644,12.033-8.562,15.881-10.997c3.572,4.044,14.042,17.739,17.494,21.852c-14.532,0-103.2,0.043-110.097,0.077
			c-0.038-3.284-0.056-41.36-0.133-57.128c-0.15-30.776,0.641-61.669-0.572-92.428c1.952,3.576,4.439,6.802,7.125,9.888
			c0.313,0.355,0.982,0.012,0.739-0.445c-2.241-4.218-6.755-11.136-8.336-12.773c-1.426,1.451-6.93,10.496-7.604,13.441
			c-0.043,0.193,0.241,0.3,0.348,0.15c2.531-3.417,4.424-7.415,7.111-10.742c-1.209,30.883-0.438,61.894-0.588,92.795
			c-0.077,15.797-0.098,53.957-0.134,57.248c-7.077,0.033-14.09-0.034-21.452,0.286c-0.748,0.035-0.668,1.242,0.052,1.291
			c7.027,0.458,20.898,0.28,21.37,0.284c-0.132,11.365-0.055,25.082,0.524,34.076c0.04,0.69,1.042,0.661,1.056-0.016
			c0.241-9.636,0.431-21.571,0.519-34.052c6.472,0.029,111.512,0.08,111.783,0.08c8.525,9.486,29.317,35.802,39.251,49.145
			c-0.395,0.742-0.687,1.128-1.055,1.876c-4.275-6.773-14.258-4.815-12.297,3.116c-1.609-0.087-3.351,1.061-4.219,2.678
			c-0.717,1.344-0.883,2.874-0.648,4.373c-0.497-0.106-1.038-0.06-1.617,0.211c-1.236,0.571-1.799,2.034-2.007,3.288
			c-0.123,0.73-0.137,1.469-0.096,2.215c-1.353,0.097-2.764,0.85-3.688,1.653c-1.467,1.272-2.147,3.226-2.24,5.116
			c-0.128,2.721,1.953,6.123,4.895,6.035c-1.276,2.303-3.566,5.346-4.279,6.775c9.907,12.548,27.803,30.828,33.416,36.891
			c4.359-5.346,11.14-13.08,15.407-19.158c0.344,0.91,1.378,2.478,2.579,3.179c3.648,2.108,8.201,1.613,12.147,0.369
			c-3.863,10.704-7.053,24.11,1.362,31.493c-1.634,13.084,12.712,40.181,15.966,49.919c-9.106,6.715-35.013,7.226-43.965,5.434
			c0.932,10.338,17.399,11.951,25.51,12.606c4.992,0.402,16.841-0.546,21.696-5.538c-0.004,0.527,0.016,2.565,0.016,3.499
			c2.376,0.545,7.894,0.597,9.97-0.336c1.625-12.192-7.047-37.046-11.87-47.151c11.914,4.615,24.067,7.043,35.969,5.519
			c-6.026,13.761-10.805,32.682-9.961,38.956c1.463,1.215,6.656,2.363,8.966,1.309c9.381,10.909,34.356,8.177,42.021-2.215
			C537.232,472.958,513.704,472.528,506.716,466.907z"/>
		<path fill="#E8A852" d="M524.412,207.908c-1.745,0.505-5.522,1.73-6.953,2.93c4.356,1.104,10.007,4.239,11.892,8.635
			c-1.314,0.15-5.626,0.799-7.356,1.439c7.797,7.497,7.888,21.704,3.348,27.763c-0.75-12.918-6.116-28.149-18.862-32.41
			c-6.052-2.023-11.329-0.683-15.665,2.497C491.499,208.535,514.425,199.366,524.412,207.908z"/>
		<path fill="#F0C9B8" d="M481.597,294.313c-5.969-4.021-7.164-10.911-7.683-17.548c15.253-8.931,12.129-24.627,11.881-23.775
			c-2.036,6.817-5.943,19.838-17.731,22.612c-7.142,1.684-8.192-3.276-6.974-8.511c3.198-13.763,17.249-22.991,33.215-24.712
			c1.192-1.248,1.885-3.602,1.832-5.031c-0.098-2.808-1.325-5.158-4.027-6.193c-3.004-1.154-6.16,0.568-7.36,3.089
			c-1.369,2.85-1.159,5.364,0,7.316c-2.008,0.45-4.023,1.155-6.005,2.059c3.489-13.446,13.143-31.287,29.509-23.926
			c11.473,5.163,14.395,22.657,14.492,33.768c-0.692,1.18-0.98,6.125-0.251,4.485c1.34-3.034,4.653-5.485,7.945-3.209
			c1.745,1.209,1.96,3.441,1.672,5.364c-0.3,2.069-1.617,4.235-3.428,5.301c-2.15,1.262-5.147,0.69-6.901-0.675
			c-1.213-0.95,0.506,3.153,1.503,3.773c-0.318,8.57-3.937,14.653-6.103,17.575c-4.01,5.387-10.143,8.943-16.522,10.747
			C494.356,298.608,487.094,298.014,481.597,294.313z"/>
		<path fill="#FFFFFF" d="M489.642,240.992c-1.209,0.004-2.432,0.107-3.675,0.323c-0.75-1.888-0.944-4.19-0.09-6.123
			c0.823-1.872,3.802-3.331,5.798-2.306c1.63,0.837,3.411,3.396,2.571,5.096C491.811,235.375,488.188,238.872,489.642,240.992z"/>
		<path fill="#668CCF" d="M488.721,361.298c-1.426,2.229-5.073,6.497-8.558,8.644c-3.752-4.123-5.876-7.398-7.746-12.031
			c0.799-4.51,12.708-33.132,14.965-39.831C487.915,330.468,489.119,352.537,488.721,361.298z"/>
		<path fill="#668CCF" d="M488.188,311.802c-1.699-4.847-2.235-9.928-1.812-12.627c2.63,0.928,5.483,1.451,8.499,1.433
			C493.116,304.645,490.893,308.349,488.188,311.802z"/>
		<path fill="#D1DBF7" d="M484.211,300.043c-0.452,4.887,0.944,11.188,2.999,14.661c-4.6,11.219-12.587,32.309-16.846,43.656
			c2.225,5.965,6.151,11.476,9.177,14.785c3.92-1.781,9.361-7.485,11.322-10.78c-0.16-7.166-0.807-36.793-2.029-47.317
			c3.787-4.351,7.014-9.223,9.09-14.621c1.232-0.146,2.443-0.385,3.632-0.677c1.271,6.231,7.196,11.983,9.726,17.664
			c5.983,13.421,7.571,28.201,3.259,42.335c-3.403,11.153-11.273,21.218-22.865,24.29c-10.162,2.698-24.726-1.519-31.558-9.429
			c1.601-1.982,3.043-4.158,4.168-6.415c12.04,11.641,28.846,12.537,38.866-0.127c9.803-12.383,8.017-32.516,4.363-44.284
			c-1.272-4.108-2.761-5.39-2.529-4.7c4.79,14.179,5.953,31.505-1.305,44.803c-8.879,16.266-27.175,12.668-38.299,1.782
			c2.018-5.313,2.066-10.767-1.641-14.718c0.3-2.48,3.645-2.981,6.894-6.407c2.317-2.439,6.329-10.514-1.297-12.745
			c0.656-0.699,5.215-6.317,6.121-8.737c-0.728-1.771-3.07-4.627-4.472-6.481C474.733,307.752,479.721,301.25,484.211,300.043z"/>
		<path fill="#D9EBF2" d="M442.125,289.49c7.75,7.481,30.378,32.514,30.999,33.584c-1.24,2.409-3.828,5.705-6.991,9.314
			c-3.874,2.008-7.262,7.435-9.19,13.129c-6.933-5.248-21.327-2.572-20.708,5.364c-2.399-12.211-4.712-29.945-6.39-46.754
			C434.062,299.216,438.043,294.73,442.125,289.49z"/>
		<path fill="#EDF7FA" d="M422.092,313.482c-0.877,6.692-1.595,12.518-2.257,18.906c-1.597-2.772-3.814-5.705-5.522-8.41
			C416.832,320.423,419.409,316.919,422.092,313.482z"/>
		<path fill="#F0C9B8" d="M400.163,327.261c0.083-2.584,3.555-3.017,5.404-2.422c2.115,0.686,4.04,2.866,4.575,5.097
			c0.533,2.227-0.622,6.948-5.884,4.096C400.652,332.081,400.092,329.314,400.163,327.261z"/>
		<path fill="#F0C9B8" d="M398.824,332.162c1.492,2.172,4.186,4.275,5.973,4.721c-0.091,3.387-2.205,5.179-5.471,4.089
			C394.548,339.381,393.657,332.876,398.824,332.162z"/>
		<path fill="#F0C9B8" d="M394.009,338.67c0.649,1.394,2.233,4.009,4.004,4.668c1.431,5.579-2.222,8.692-5.43,2.193
			C390.483,341.269,392.056,338.67,394.009,338.67z"/>
		<path fill="#F0C9B8" d="M386.168,349.627c-0.709-2.943,1.163-4.542,3.747-5.252c0.528,1.902,1.785,4.433,3.033,5.892
			C389.915,354.17,386.881,352.57,386.168,349.627z"/>
		<path fill="#D9EBF2" d="M417.477,394.742c-10.009-10.546-20.258-21.597-29.842-33.171c2.099-2.949,5.488-7.94,7.166-9.878
			c1.669,0.794,3.622,0.628,4.967-1.02c0.965-1.172,1.288-2.605,1.4-4.076c0.083-1.022-0.116-1.922-0.506-2.742
			c1.549-0.036,3.089-0.644,4.211-1.803c1.243-1.28,1.849-3.166,1.768-4.999c0.806,0.073,1.827-0.103,2.433-0.226
			c1.333,9.405,7.924,52.977,8.816,57.354C417.752,394.373,417.606,394.552,417.477,394.742z"/>
		<path fill="#EDF7FA" d="M418.967,392.708c-0.704-3.262-8.051-45.919-9.218-56.174c1.203-0.592,3.604-2.859,1.625-8.359
			c0.456-0.651,0.911-1.303,1.369-1.953c2.245,3.033,4.834,6.834,7.039,9.896c0.183,0.239,2.278-1.288,2.355-1.587
			c1.009-8.988,2.452-17.835,4.528-26.677c0.705-0.837,1.421-1.665,2.127-2.496c1.305,13.883,5.493,42.914,6.471,45.961
			c-2.488,1.443-4.459,3.957-4.253,7.087c-2.344,1.206-3.953,3.283-3.948,6.326c0,0.19,0.022,0.379,0.056,0.57
			c-0.288,0.347-0.548,0.735-0.778,1.189c-2.747,5.332,2.263,8.472,6.97,8.814C430.967,378.282,421.207,389.744,418.967,392.708z"/>
		<path fill="#F0C9B8" d="M440.069,382.063c-3.465-0.449-6.387-3.554-2.789-7.375c1.437-1.532-0.107-3.583-1.99-2.91
			c-2.292,0.819-10.005-1.752-6.357-4.956c3.662-3.206,9.713-0.977,13.664,3.132c0.344,0.365-0.012-1.454-1.369-3.039
			c-2.051-2.408-5.857-4.267-10.383-3.61c-0.308-2.632,2.274-4.411,5.308-4.055c5.752,0.675,9.703,2.683,11.557,6.146
			c0.355,0.665,0.154-0.973-0.241-2.227c-1.159-3.653-6.986-6.797-12.96-5.862c-0.85-0.555-0.673-5.276,7.785-5.718
			c5.149-0.272,10.153,2.413,12.842,6.566c0.709,1.095,0.992-0.755,0-2.205c-3.745-5.433-9.709-6.984-16.668-5.698
			c-0.713-3.546,3.383-5.078,7.391-5.346c7.578-0.507,10.725,2.001,13.669,6.409c0.288,0.422,0.944,0.059,0.863-0.396
			c-0.206-1.167-1.078-2.953-1.698-3.877c0.819-2.614,4.373-11.048,8.733-12.652c4.364-1.605,5.351,3.834,1.029,8.81
			c-2.265,2.606-5.121,3.133-6.374,7.941c2.225,4.278,2.37,8.949,0.263,14.167c-2.026,5.021-6.767,11.45-11.585,13.815
			C445.855,381.527,442.828,382.418,440.069,382.063z"/>
		<path fill="#D1DBF7" d="M447.372,406.068c-2.053-7.793,0.385-16.666,2.576-23.273c2.647-1.049,5.542-3.181,8.18-5.932
			c5.806,8.052,19.179,11.124,28.454,10.416c10.938-0.836,20.084-6.85,25.616-16.325c4.198-7.209,6.394-14.888,7-22.808
			c2.537,8.7,4.687,17.864,6.056,26.758c1.854,12.017,3.056,28.552-6.159,38.048c-11.381,11.741-34.879,8.683-49.021,5.709
			C462.33,417.034,449.691,414.87,447.372,406.068z"/>
		<path fill="#A67A69" d="M476.625,477.64c-1.342-0.004-4.222,0.351-5.544,0.176c-0.254-5.541-1.965-8.284-2.046-7.844
			c-0.258,1.364-0.288,3.212-0.422,4.007c-2.667,2.265-4.079,2.969-7.754,4.352c-4.455,1.678-9.424,1.711-14.116,1.52
			c-8.016-0.323-20.672-2.464-22.211-7.104c6.958,1.301,14.957,0.677,21.468,0.124c6.42-0.545,15.992-1.862,21.464-6.296
			c2.669,1.013,5.064,1.86,8.055,1.694C476.28,471.079,476.892,476.096,476.625,477.64z"/>
		<path fill="#87979A" d="M509.03,430.887c0.322-0.578-0.589-0.896-0.958-0.468c-1.012,1.155-1.937,2.416-2.789,3.745
			c-18.399,1.657-39.3-3.902-46.03-8.824c-0.507-0.374-0.017,3.067,4.305,6.351c3.686,9.812,8.463,22.342,11.189,33.94
			c-1.524-0.248-5.029-0.429-6.76-1.292c-2.271-7.498-15.622-38.251-15.875-47.446c10.958,5.564,39.638,11.639,56.896,6.292
			c11.897-3.686,15.962-10.502,18.223-15.801c2.184,7.778-3.404,19.206-13.124,25.767c-1.7,4.129-8.777,29.879-9.784,33.245
			c-1.872,0-4.943-0.51-7.157-1.709C498.868,455.055,503.987,439.882,509.03,430.887z"/>
		<path fill="#A67A69" d="M500.147,471.764c-0.349-1.021-1.109,1.623,0.168,5.374c-1.366,0.342-3.844,0.22-5.28-0.772
			c-0.087-2.808,0.765-6.562,1.552-8.834c2.18,0.86,5.438,1.588,8.25,1.332c10.747,5.625,24.467,4.43,35.467,8.348
			C528.025,486.679,505.008,486.032,500.147,471.764z"/>
		<path d="M511.58,274.314c-0.7-8.373-5.029-21.203-9.175-26.176c0.109,9.688-6.207,22.261-14.669,27.627
			c-0.709-1.686-1.346-3.408-1.898-5.162c-0.19-0.609-1.246-0.673-1.319,0.043c-0.284,2.819,0.332,4.842,1.451,7.452
			c0.257,0.6,1.047,0.984,1.657,0.669c1.433-0.739,2.841-1.715,4.205-2.845c4.536,14.321,12.884,22.329,18.79,13.841
			C512.537,287.008,511.992,279.201,511.58,274.314z"/>
		<path fill="#FFFFFF" d="M494.334,273.617c4.838-4.988,8.7-12.007,10.099-18.677c5.593,14.704-5.67,24.047-8.398,25.433
			C495.331,278.182,494.573,275.87,494.334,273.617z"/>
		<path fill="#FFFFFF" d="M508.753,287.168c-1.511,6.19-7.676,2.52-9.921-0.802c-0.892-1.319-1.617-2.797-2.206-4.343
			c5.727-2.919,10.027-10.177,11.004-16.744c1.309,4.885,1.741,9.949,1.864,14.988C509.554,282.605,509.313,284.901,508.753,287.168
			z"/>
		<path d="M511.371,243.735c3.777-3.023,4.425-8.707,0.93-12.279c-3.876-3.971-8.966-3.21-12.056-0.42
			c-3.086,2.79-4.317,7.325-1.54,11.017c-0.425,0.129-2.113,1.254-1.546,1.27c5.933,0.181,10.091,0.599,16.03,2.259
			C513.85,245.765,512.76,244.404,511.371,243.735z"/>
		<path fill="#FFFFFF" d="M510.871,241.603c1.726-2.849-0.681-5.423-3.954-5.159c-3.526,0.292-3.935,4.211-3.207,5.155
			c-1.213-0.094-2.409-0.077-3.562,0.117c-2.572-3.793-1.068-9.555,3.482-11.153c3.383-1.192,5.741-0.136,7.72,1.898
			C513.66,234.835,513.839,239.764,510.871,241.603z"/>
		<path d="M494.557,229.386c-2.501-0.944-4.915-1.488-7.621-1.232c-2.162,0.201-5.229,1.042-6.283,3.133
			c-0.168,0.336,0.109,0.75,0.458,0.791c1.564,0.209,3.243-0.31,4.794-0.553c2.622-0.42,5.455-0.707,8.093-0.454
			C494.938,231.164,495.574,229.77,494.557,229.386z"/>
		<path d="M503.545,221.945c2.656,0.233,5.081,0.793,7.403,2.19c1.86,1.121,4.262,3.207,4.304,5.55
			c0.004,0.373-0.421,0.622-0.758,0.515c-1.495-0.486-2.784-1.684-4.073-2.58c-2.181-1.51-4.612-3-7.103-3.913
			C502.43,223.388,502.467,221.852,503.545,221.945z"/>
		<path fill="#FFFFFF" d="M509.153,238.232c-0.798,0-1.446,0.647-1.446,1.438c0,0.799,0.648,1.447,1.446,1.447
			c0.791,0,1.439-0.648,1.439-1.447C510.592,238.878,509.944,238.232,509.153,238.232z"/>
		<path fill="#FFFFFF" d="M493.327,238.138c-0.475,0-0.854,0.382-0.854,0.854c0,0.468,0.379,0.846,0.854,0.846
			c0.464,0,0.845-0.378,0.845-0.846C494.172,238.52,493.792,238.138,493.327,238.138z"/>
		<path fill="#FFFFFF" d="M492.064,239.281c-0.223,0-0.404,0.183-0.404,0.411c0,0.223,0.181,0.408,0.404,0.408
			s0.409-0.185,0.409-0.408C492.473,239.464,492.287,239.281,492.064,239.281z"/>
		<path fill="#FFFFFF" d="M506.917,240.064c-0.369,0-0.669,0.3-0.669,0.665c0,0.37,0.3,0.67,0.669,0.67
			c0.369,0,0.666-0.3,0.666-0.67C507.583,240.363,507.286,240.064,506.917,240.064z"/>
	</g>
</g>
</svg>
