<?xml version="1.0" encoding="utf-8"?>
<!-- Generator: Adobe Illustrator 17.0.0, SVG Export Plug-In . SVG Version: 6.00 Build 0)  -->
<!DOCTYPE svg PUBLIC "-//W3C//DTD SVG 1.1//EN" "http://www.w3.org/Graphics/SVG/1.1/DTD/svg11.dtd">
<svg version="1.1" id="Layer_1" xmlns="http://www.w3.org/2000/svg" xmlns:xlink="http://www.w3.org/1999/xlink" x="0px" y="0px"
	 width="300px" height="300px" viewBox="0 0 300 300" enable-background="new 0 0 300 300" xml:space="preserve">
<path fill="#BACCD0" stroke="#000000" stroke-linecap="round" stroke-linejoin="round" stroke-miterlimit="10" d="M166.149,239.635
	c-1.689,0-85.861,60.365-85.861,60.365H300v-58C300,242,167.838,239.635,166.149,239.635z"/>
<path fill="#889B9E" stroke="#000000" stroke-linecap="round" stroke-linejoin="round" stroke-miterlimit="10" d="M231.988,262.853
	c-2.751-0.375-1.567,3.133,0,3.76c1.567,0.627,9.4,5.327,11.437,5.327c2.037,0,37.132-2.193,40.578-3.133
	c3.447-0.94,6.58-6.11,5.014-10.184c-1.567-4.074-11.751-34.311-13.787-36.975c-2.037-2.663-2.193,10.027-1.567,12.534
	c0.627,2.507,3.133,21.934,2.193,22.874c-0.94,0.94-2.507,3.29-5.954,3.29C266.456,260.346,235.435,263.323,231.988,262.853z"/>
<path fill="none" stroke="#000000" stroke-linecap="round" stroke-linejoin="round" stroke-miterlimit="10" d="M275.7,227.444
	c0,0,10.34,27.888,11.124,30.708c0.783,2.82,0.627,7.834-3.29,8.304c-3.917,0.47-42.463,4.77-42.463,4.77"/>
<path fill="#F1F6FA" stroke="#000000" stroke-linecap="round" stroke-linejoin="round" stroke-miterlimit="10" d="M265.986,151.458
	c0.936,0.092,17.704,2.037,17.704,3.76c0,1.723-8.852,101.524-8.852,101.524s-7.912,1.567-9.792-2.507
	C263.166,250.162,264.246,151.287,265.986,151.458z"/>
<path fill="#939EA1" stroke="#000000" stroke-linecap="round" stroke-linejoin="round" stroke-miterlimit="10" d="M234.025,143.154
	c-0.495,0-8.147,89.617-8.147,89.617s43.777,26.112,43.98,24.18c0.202-1.932,9.388-102.689,7.85-103.778
	C276.17,152.084,235.435,143.154,234.025,143.154z"/>
<path fill="#F1F0F0" stroke="#000000" stroke-linecap="round" stroke-linejoin="round" stroke-miterlimit="10" d="M235.905,150
	c-0.478,1.523-7.05,76.348-7.05,76.348s38.855,20.942,39.012,20.263c0.157-0.679,8.617-85.909,7.99-86.379
	C275.23,159.761,236.131,149.277,235.905,150z"/>
<path fill="#7E8488" stroke="#000000" stroke-linecap="round" stroke-linejoin="round" stroke-miterlimit="10" d="M148.099,272.421
	c0.331-0.663,22.687-12.255,23.542-12.483c0.855-0.228,23.2-1.026,24.226-1.026c1.026,0,2.565,1.71,2.109,2.622
	c-0.456,0.912-21.889,13.51-22.687,13.681C174.491,275.385,147.586,273.447,148.099,272.421z"/>
<path fill="none" stroke="#000000" stroke-linecap="round" stroke-linejoin="round" stroke-miterlimit="10" d="M177.081,274.279
	c0.203-1.174-0.652-3.967-2.249-3.91s-15.733,0.855-16.303,0.912s-9.861,1.083-10.431,1.14"/>
<path fill="none" stroke="#000000" stroke-linecap="round" stroke-linejoin="round" stroke-miterlimit="10" d="M195.183,258.911
	c-0.57,0.342-20.141,10.944-20.986,11.486"/>
<path fill="#202322" stroke="#000000" stroke-linecap="round" stroke-linejoin="round" stroke-miterlimit="10" d="M88.114,175.636
	c-4.551-0.35-49.363-0.35-54.964,0s-8.052,11.553-10.153,19.605C20.896,203.294,7.243,300,7.243,300h74.569
	C81.812,300,92.665,175.986,88.114,175.636z"/>
<path fill="none" stroke="#000000" stroke-linecap="round" stroke-linejoin="round" stroke-miterlimit="10" d="M15.645,300
	c0-1.482,8.052-76.051,9.803-80.952c1.75-4.901,7.699-43.713,14.704-43.674"/>
<path fill="#292A32" stroke="#000000" stroke-linecap="round" stroke-linejoin="round" stroke-miterlimit="10" d="M210.718,200.104
	c-1.808-2.866-3.358-0.234-7.49,0s-17.821,6.74-21.179,6.74s-9.556-0.258-16.013-2.595c-6.457-2.337-13.43-8.252-17.937-11.093
	c-4.506-2.841-7.375-13.43-10.216-16.013c-2.841-2.583-39-10.848-43.132-10.331s-14.455,10.184-19.371,14.722
	c-4.916,4.537-19.887,16.271-20.404,16.764c-0.517,0.492-8.781,19.654-9.04,20.687c-0.258,1.033,0,10.848,0,15.238
	c0,4.391,3.616,16.013,3.358,17.046c-0.258,1.033-2.583,13.947-3.358,15.801c-0.775,1.854-5.94,20.617-5.785,23.974
	C40.306,294.4,43.354,300,43.354,300h43.132c0,0,19.113-13.349,21.437-14.64c2.325-1.291,28.446-25.305,28.411-26.449
	c-0.035-1.144,0-8.677,0-9.576s5.94-23.896,5.94-24.67s2.583-0.258,5.818,0.517c3.235,0.775,9.679,3.874,12.778,4.907
	c3.099,1.033,9.556,1.55,12.205,1.55c2.649,0,8.457-0.775,10.265-0.775c1.808,0,10.848-2.325,13.43-3.419
	c2.583-1.094,12.914-6.137,14.98-6.162s5.94-2.3,7.748-4.624C221.307,214.333,212.526,202.969,210.718,200.104z"/>
<path fill="none" stroke="#000000" stroke-linecap="round" stroke-linejoin="round" stroke-miterlimit="10" d="M106.373,268.314
	c0,0-2.325-23.522-4.391-28.678s-12.397-25.302-13.689-28.918s-3.616-8.572-3.616-10.614c0-2.042,1.033-3.075,0-7.465
	c-1.033-4.391-1.849-18.562,1.61-20.726"/>
<path fill="#FFFFFF" stroke="#000000" stroke-linecap="round" stroke-linejoin="round" stroke-miterlimit="10" d="M119.804,182.565
	c0,0-1.291,7.49,0,11.364c1.291,3.874,9.177,38.379,10.141,39.464c0.964,1.086,0.945,31.26,0.945,31.26l-17.657,16.29
	c0,0-3.76-20.896-3.502-27.094s-3.874-20.268-4.391-26.406s-7.49-30.157-8.007-34.29c-0.517-4.132-6.349-22.627-4.337-25.777
	C95.009,164.228,120.366,176.652,119.804,182.565z"/>
<path fill="none" stroke="#000000" stroke-linecap="round" stroke-linejoin="round" stroke-miterlimit="10" d="M98.263,197.502
	c0,0,15.084-3.831,17.15-6.672c2.066-2.841,2.066-4.649,2.066-4.649"/>
<path fill="#575C6B" stroke="#000000" stroke-linecap="round" stroke-linejoin="round" stroke-miterlimit="10" d="M125.228,260.823
	c0,0-1.291-18.099-1.291-21.188s-4.048-31.697-4.907-33.308c-1.55-2.905-1.563-14.407-1.55-14.485
	c0.013-0.078-1.111-1.868-2.066-1.011c-0.955,0.856-6.569,3.459-7.542,3.792c-0.973,0.333-2.539,2.186-1.836,2.88
	c0.704,0.694,4.824,3.206,4.824,4.412c0,1.206-0.905,5.528-1.307,7.136c-0.402,1.608-1.435,27.47-1.682,29.045
	c-0.247,1.576,2.315,16.122,2.049,20.121c-0.266,3.999,1.357,10.884,1.746,13.33C112.055,273.993,124.521,264.355,125.228,260.823z"
	/>
<path fill="#575C6B" stroke="#000000" stroke-linecap="round" stroke-linejoin="round" stroke-miterlimit="10" d="M110.859,201.915
	c0.704,0.101,7.033-1.31,6.896-2.602"/>
<path fill="none" stroke="#000000" stroke-linecap="round" stroke-linejoin="round" stroke-miterlimit="10" d="M144.226,210.759
	c0,0-0.98,12.094-1.582,13.572"/>
<path fill="#FCC7A8" stroke="#000000" stroke-linecap="round" stroke-linejoin="round" stroke-miterlimit="10" d="M134.879,136.588
	c0,0,5.226,13.367,5.327,14.271c0.101,0.905,0.804,4.322,0.503,4.824c-0.302,0.503-2.814,3.015-2.312,4.824
	c0.503,1.809,4.292,7.723,4.247,9.045c-0.025,0.729-0.327,1.608-2.036,1.809c-1.709,0.201-4.523-0.306-4.422,0.551
	c0.101,0.856-0.804,6.887-1.307,7.791s-1.206,3.116-1.206,4.121c0,1.005-1.307,3.92-3.216,3.819
	c-1.91-0.101-6.834-0.704-9.246-0.704c-2.412,0-4.354,1.617-4.865,2.448c-0.511,0.832-1.668,2.156-2.874,1.211
	c-1.206-0.945-13.937-10.795-15.21-14.111c-1.273-3.317-1.979-6.533-3.184-7.035c-1.205-0.503-3.617-3.015-3.416-4.925
	s16.019-21.608,20.07-24.724C115.784,136.688,133.389,132.747,134.879,136.588z"/>
<path fill="#1A1716" stroke="#000000" stroke-linecap="round" stroke-linejoin="round" stroke-miterlimit="10" d="M124.729,141.513
	c-2.509-0.729-5.327,1.91-5.126,2.513c0.201,0.603,0.603,8.643,0.402,9.95s-0.402,4.322-2.01,5.427s-3.015,4.724-4.02,5.93
	c-1.005,1.206-1.469,1.709-2.242,0.301c-0.773-1.407-2.482-3.819-4.391-5.829c-1.91-2.01-5.628-3.518-6.332-2.814
	c-0.704,0.704-2.01,3.116-1.709,4.121c0.302,1.005,0.213,4.02-0.044,4.925c-0.257,0.905-2.167,4.623-2.167,4.623
	s-2.011,0.201-2.011-0.503s-3.114-2.412-4.622-2.613s-3.92-5.226-3.518-6.332s1.809-4.523,1.407-6.533s-1.307-2.322-0.603-4.678
	c0.704-2.357,2.513-4.869,2.613-5.573c0.101-0.704-1.407-2.312,1.709-4.422c3.116-2.111,8.442-12.462,11.156-13.869
	s13.769-1.809,15.779-0.804s10.553,4.422,11.457,5.025s6.03,5.126,6.834,6.231s-1.2,3.119-1.308,2.84
	c-0.108-0.279-2.511,1.783-3.215,2.084c-0.704,0.302-4.925,1.809-5.93,1.206S127.844,142.417,124.729,141.513z"/>
<path fill="none" stroke="#000000" stroke-linecap="round" stroke-linejoin="round" stroke-miterlimit="10" d="M108.548,169.754
	c0.201,1.005-0.302,3.317-1.508,3.417c-1.206,0.101-3.317-1.655-3.618-2.486s-3.965-5.556-3.949-6.561"/>
<path fill="none" stroke="#000000" stroke-linecap="round" stroke-linejoin="round" stroke-miterlimit="10" d="M103.623,160.407
	c-0.302,0.101-2.915,1.508-1.809,4.121"/>
<path fill="none" stroke="#000000" stroke-linecap="round" stroke-linejoin="round" stroke-miterlimit="10" d="M135.683,158.296
	c0,0-4.542,2.915-5.738,3.116"/>
<path fill="#AA9563" stroke="#000000" stroke-linecap="round" stroke-linejoin="round" stroke-miterlimit="10" d="M131.668,162.962
	c0,0,2.59-0.536,3.072-0.495"/>
<path fill="none" stroke="#000000" stroke-linecap="round" stroke-linejoin="round" stroke-miterlimit="10" d="M132.814,169.553
	c0,0,0.553,2.863,3.372,2.36"/>
<path fill="none" stroke="#000000" stroke-linecap="round" stroke-linejoin="round" stroke-miterlimit="10" d="M129.251,177.492
	c0.402,0,4.703,0.904,6.208,0"/>
<path fill="none" stroke="#000000" stroke-linecap="round" stroke-linejoin="round" stroke-miterlimit="10" d="M114.578,180.809
	c0.201,0.704,2.04,5.273,6.146,6.154"/>
<path fill="#FFFFFF" stroke="#000000" stroke-linecap="round" stroke-linejoin="round" stroke-miterlimit="10" d="M204.75,199.899
	c-1.103,0.455-6.453,5.734-5.147,9.453s6.03,9.049,9.045,8.193s6.631-3.392,7.94-4.977S211.103,197.281,204.75,199.899z"/>
<path fill="#FCC7A8" stroke="#000000" stroke-linecap="round" stroke-linejoin="round" stroke-miterlimit="10" d="M211.543,201.333
	c-0.669,0.21-9.428,2.29-9.729,5.104c-0.302,2.814,4.372,11.055,8.241,9.749c3.869-1.306,5.93-3.819,6.533-3.618
	s1.709,0.704,1.005,1.307c-0.704,0.603-2.588,3.103,0,3.103c2.588,0,3.716-1.14,6.834-2.601c2.188-1.025,5.528-2.513,5.427-3.618
	c-0.101-1.106-0.723-3.904,0.002-3.92c0.726-0.016,6.028,0.1,7.937-0.201c1.91-0.301,2.211-2.513,1.508-2.915
	c-0.704-0.402-5.528-1.899-7.337-1.804c-1.809,0.095-4.322-0.587-4.322-0.587s-1.307-3.721-3.216-3.831
	S213.09,200.848,211.543,201.333z"/>
<path fill="none" stroke="#000000" stroke-linecap="round" stroke-linejoin="round" stroke-miterlimit="10" d="M220.724,200.616
	c0.487,0.495,5.988,0.498,6.919,0.717"/>
<path fill="none" stroke="#000000" stroke-linecap="round" stroke-linejoin="round" stroke-miterlimit="10" d="M210.256,208.602
	c1.91-0.255,7.035-1.453,7.337,0c0.301,1.453-0.243,3.647-1.005,3.966"/>
<path fill="none" stroke="#000000" stroke-linecap="round" stroke-linejoin="round" stroke-miterlimit="10" d="M217.593,213.874
	c1.206-0.302,5.126-0.704,5.327-2.211s0.201-2.706-0.503-3.061s-4.02-0.046-4.824,0"/>
<path fill="#292A32" stroke="#000000" stroke-linecap="round" stroke-linejoin="round" stroke-miterlimit="10" d="M54.118,223.909
	c0,1.218-1.265,24.744-2.277,28.286s-1.012,25.55,2.277,27.068c3.289,1.518,19.2,7.589,26.17,7.589s26.186-0.066,29.566-2.987
	c3.38-2.921,11.347-10.757,11.957-13.498c0.61-2.741,0.253-13.769-1.086-13.314s-13.841,2.984-21.251,3.237
	c-7.41,0.253-19.299,0.277-20.564-1.379s-4.554-30.148-4.301-35.002"/>
<path fill="#FFFFFF" stroke="#000000" stroke-linecap="round" stroke-linejoin="round" stroke-miterlimit="10" d="M128.574,256.926
	c-0.311-0.039-9.801-0.261-10.237,0.694c-0.437,0.955-0.831,10.902,1.733,12.777s6.248-0.564,7.637-3.329
	S129.022,256.982,128.574,256.926z"/>
<path fill="#FCC7A8" stroke="#000000" stroke-linecap="round" stroke-linejoin="round" stroke-miterlimit="10" d="M145.063,250.504
	c-2.063,0-4.449,2.778-6.596,3.124c-2.147,0.347-11.625,2.594-12.234,3.25c-0.61,0.655-2.252,9.616,0.782,11.297
	c3.034,1.681,9.369,0.765,11.018,0.138c1.649-0.627,4.749-3.056,6.193-3.056c1.444,0,4.134,0.087,7.432,1.215
	c3.298,1.128,4.947,2.517,6.422,2.256c1.475-0.26,2.951-1.412,3.298-1.661s1.389-0.359,3.992,0c2.603,0.359,4.426-1.541,4.773-2.414
	c0.347-0.872-2.17-2.955-3.905-4.083S146.451,250.504,145.063,250.504z"/>
<path fill="none" stroke="#000000" stroke-linecap="round" stroke-linejoin="round" stroke-miterlimit="10" d="M155.737,257.88
	c0.347,0.174,13.115,5.833,13.5,7.95"/>
<path fill="none" stroke="#000000" stroke-linecap="round" stroke-linejoin="round" stroke-miterlimit="10" d="M151.745,261.005
	c1.475,0.347,9.595,3.776,10.742,5.836"/>
<path fill="#4F2E30" stroke="#000000" stroke-linecap="round" stroke-linejoin="round" stroke-miterlimit="10" d="M68,113.75
	c0,0-35.5,6.5-39,8.25S2.75,137.75,2.75,137.75L0,140l0,131.226c0,0,10.5,3.41,14.5-4.158s7.296-68.313,13.398-69.566
	C34,196.25,41,192.75,41.75,194.75s20.25,45.25,21,47s2.75,9.5,5.25,11.5s12.825,15.864,12.287,17.807
	C79.75,273,82.596,279.5,86.673,276.5c4.077-3,18.141-15.113,17.359-16.682C103.25,258.25,90.75,237.5,90.5,235.25
	s-17.75-32.051-18.25-34.276c-0.5-2.224-4.25-30.212-4.25-30.212s4.5-7.948,4.5-10.355C72.5,158,72.75,148.25,73,140
	S71.141,113.168,68,113.75z"/>
<path fill="none" stroke="#000000" stroke-linecap="round" stroke-linejoin="round" stroke-miterlimit="10" d="M29.5,164.124
	c1,1.376,7.691,26.301,10.651,30.035"/>
<path fill="none" stroke="#000000" stroke-linecap="round" stroke-linejoin="round" stroke-miterlimit="10" d="M51.248,143.154
	c1.002,1.596,15.577,10.039,16.915,28.818"/>
<path fill="#E7B9A8" stroke="#000000" stroke-linecap="round" stroke-linejoin="round" stroke-miterlimit="10" d="M69.89,145.511
	c0,0,0-20.804,0-23.446c0-2.642,4.623-18.052,9.907-22.015c5.284-3.963,31.477-7.925,34.781-5.174
	c3.305,2.752,7.005,12.108,6.146,12.879c-0.86,0.771-7.69,15.442-7.467,17.023c0.223,1.58-0.709,4.552-1.068,4.772
	c-0.36,0.22-4.653,0.22-4.873,0.771c-0.22,0.55,0.097,2.532-0.942,3.192c-1.039,0.66-2.799,3.963-3.79,4.293
	c-0.992,0.33-3.193,2.532-3.854,3.853c-0.66,1.321-1.211,1.56-2.862,1.495c-1.651-0.064-7.377-3.367-8.972-3.367
	S69.89,146.282,69.89,145.511z"/>
<path fill="#AA9563" stroke="#000000" stroke-linecap="round" stroke-linejoin="round" stroke-miterlimit="10" d="M115.791,101.041
	c0.206,0.856,0,2.201,0,4.403c0,2.201-0.55,3.192-1.651,6.494c-1.101,3.302-1.211,8.366-1.211,9.797s1.884,2.091,3.253,0
	c1.37-2.091,7.974-11.888,8.415-14.64c0.44-2.752,0.881-6.825-0.55-8.806s-6.274-5.394-9.026-7.595
	c-2.752-2.201-3.522-1.651-4.073-3.853c-0.55-2.202-1.101-7.705-3.743-9.136c-2.642-1.431-13.98-2.532-22.455-1.321
	c-8.476,1.211-14.42,7.705-15.851,9.797c-1.431,2.091-1.761,2.091-4.623,6.274c-2.862,4.183-5.394,7.485-8.035,10.237
	c-2.642,2.752-6.715,12.769-6.715,13.98c0,1.211-0.55,2.642,3.412,1.761s7.265-2.312,7.705-2.201c0.44,0.11,4.733,1.871,5.174,2.752
	s4.183,1.541,5.284,3.082c1.101,1.541,0.33,4.843,2.202,6.384c1.871,1.541,7.595,0.11,8.256,0c0.66-0.11,3.41,0.771,5.337-0.991
	c1.928-1.761,2.698-4.183,2.368-4.403c-0.33-0.22-6.164-4.733-6.164-6.715s5.944-9.577,7.595-10.237
	c1.651-0.66,0.22,3.632,1.871,4.513c1.651,0.881,4.183-0.55,7.155-1.541c2.972-0.991,8.035-7.045,9.026-7.375
	C109.737,101.371,115.461,99.665,115.791,101.041z"/>
<path fill="none" stroke="#000000" stroke-linecap="round" stroke-linejoin="round" stroke-miterlimit="10" d="M95.37,95.361
	c2.86-4.923,12.865-11.382,15.578-8.52"/>
<path fill="none" stroke="#000000" stroke-linecap="round" stroke-linejoin="round" stroke-miterlimit="10" d="M72.193,106.972
	c0,0-4.371,4.751-7.792,4.941"/>
<path fill="none" stroke="#000000" stroke-linecap="round" stroke-linejoin="round" stroke-miterlimit="10" d="M81.886,105.262
	c-0.76,0.19-5.511,10.073-4.181,12.543c1.33,2.471,4.561,5.385,4.941,6.968"/>
<path fill="none" stroke="#000000" stroke-linecap="round" stroke-linejoin="round" stroke-miterlimit="10" d="M95.37,103.551
	c0.009,0-3.023,1.193-4.676,2.553"/>
<path fill="none" stroke="#000000" stroke-linecap="round" stroke-linejoin="round" stroke-miterlimit="10" d="M107.205,113.737
	c0,0,5.652-2.054,6.458,0"/>
<line fill="none" stroke="#000000" stroke-linecap="round" stroke-linejoin="round" stroke-miterlimit="10" x1="107.205" y1="116.341" x2="110.434" y2="116.341"/>
<path fill="none" stroke="#000000" stroke-linecap="round" stroke-linejoin="round" stroke-miterlimit="10" d="M106.655,126.689
	c0,0,4.012,0.219,3.78,1.651"/>
<path fill="#FFFFFF" stroke="#000000" stroke-linecap="round" stroke-linejoin="round" stroke-miterlimit="10" d="M106.655,131.642
	c-0.888-0.327-5.834-0.881-5.724,0c0.11,0.881,2.709,5.248,3.132,4.677S107.303,131.881,106.655,131.642z"/>
<path fill="none" stroke="#000000" stroke-linecap="round" stroke-linejoin="round" stroke-miterlimit="10" d="M84.64,133.769
	c0,0,5.423,7.103,7.012,7.81"/>
<path fill="#FCC7A8" stroke="#000000" stroke-linecap="round" stroke-linejoin="round" stroke-miterlimit="10" d="M104.032,259.818
	c-0.927,0.253-8.168,8.78-8.31,9.119c-0.142,0.339,13.579,13.069,16.499,13.283c2.92,0.214,9.476-0.214,11.219-0.997
	c1.743-0.783,2.74-2.137,4.164-1.424s5.057,2.35,6.837,1.994c1.78-0.356,1.852-0.13,3.561-0.849c1.709-0.718,4.7-1.715,4.772-2.356
	s-0.285-2.35,0-2.778c0.285-0.427,0.57-3.271,1.496-3.487c0.926-0.216,1.211-2.319,0.356-3.19c-0.855-0.872-8.76-3.384-11.751-3.303
	c-2.991,0.081-6.865,1.989-7.634,2.103c-0.769,0.114-5.755,2.23-7.535,1.884s-7.407-3.266-8.19-4.405
	C108.731,264.273,104.355,259.73,104.032,259.818z"/>
<path fill="none" stroke="#000000" stroke-linecap="round" stroke-linejoin="round" stroke-miterlimit="10" d="M136.506,270.397
	c0,0,5.057,3.206,5.484,3.277"/>
<path fill="#052845" stroke="#000000" stroke-linecap="round" stroke-linejoin="round" stroke-miterlimit="10" d="M144.696,272.748
	c-1.148-0.268-4.47-0.035-3.885,0.301c0.586,0.336,1.463,2.121,2.887,2.477c1.424,0.356,3.886,0.712,4.008,0
	C147.83,274.813,145.482,272.932,144.696,272.748z"/>
<path fill="none" stroke="#000000" stroke-linecap="round" stroke-linejoin="round" stroke-miterlimit="10" d="M134.37,272.631
	c0.214,0.259,6.812,5.628,7.323,6.79"/>
<path fill="none" stroke="#000000" stroke-linecap="round" stroke-linejoin="round" stroke-miterlimit="10" d="M132.091,275.526
	c0,0,5.309,4.325,5.325,5.652"/>
</svg>
