<?xml version="1.0" encoding="utf-8"?>
<!-- Generator: Adobe Illustrator 17.0.0, SVG Export Plug-In . SVG Version: 6.00 Build 0)  -->
<!DOCTYPE svg PUBLIC "-//W3C//DTD SVG 1.1//EN" "http://www.w3.org/Graphics/SVG/1.1/DTD/svg11.dtd">
<svg version="1.1" id="Layer_1" xmlns="http://www.w3.org/2000/svg" xmlns:xlink="http://www.w3.org/1999/xlink" x="0px" y="0px"
	 width="300px" height="300px" viewBox="0 0 300 300" enable-background="new 0 0 300 300" xml:space="preserve">
<path fill="#805236" stroke="#000000" stroke-linecap="round" stroke-linejoin="round" stroke-miterlimit="10" d="M71.034,227.575
	c-0.702,0.408-3.678,7.507-3.153,8.633c0.525,1.126,4.204,2.777,5.705,3.603s5.555,3.753,6.306,4.654
	c0.751,0.901,1.877,0.901,3.753,1.201c1.877,0.3,9.233,0.45,10.434,0s2.177-2.777,1.727-3.603c-0.45-0.826-3.453-2.777-4.579-2.928
	c-1.126-0.15-3.603-3.153-4.354-4.354c-0.751-1.201-1.576-3.003-2.627-4.279C83.195,229.227,73.361,226.224,71.034,227.575z"/>
<path fill="#805236" stroke="#000000" stroke-linecap="round" stroke-linejoin="round" stroke-miterlimit="10" d="M111.045,229.527
	c-0.419,1.734-1.576,7.357-1.952,8.408s-0.225,3.603,1.501,3.603c1.727,0,7.732-0.225,9.383,0c1.651,0.225,10.134,0.375,13.437,0
	c3.303-0.375,5.855-0.826,6.08-2.627c0.225-1.802-0.751-2.474-2.177-3.264c-1.426-0.79-7.056-0.715-8.107-1.165
	c-1.051-0.45-7.131-5.405-9.083-6.156C118.176,227.575,111.267,228.608,111.045,229.527z"/>
<path fill="#435C6B" stroke="#000000" stroke-linecap="round" stroke-linejoin="round" stroke-miterlimit="10" d="M125.007,217.366
	c0.024,1.728-0.061,13.662-0.781,14.188c-0.72,0.525-4.023,2.853-6.275,2.177c-2.252-0.676-4.879-1.651-6.306-1.952
	c-1.426-0.3-2.252-1.343-2.252-3.712c0-2.369,1.802-14.004,1.802-16.181c0-2.177,1.201-18.542,1.952-20.794s1.501-4.204,1.126-5.78
	c-0.375-1.576-4.204-15.689-4.504-15.239c-0.3,0.45-2.777,16.29-4.129,19.442c-1.351,3.153-7.432,13.887-8.182,15.464
	c-0.751,1.576-4.879,11.035-5.48,12.611c-0.601,1.576-6.47,13.117-6.726,14.365c-0.256,1.249-3.559,2.168-5.21,1.896
	c-1.651-0.272-6.005-0.647-7.732-1.773c-1.727-1.126-2.627-2.177-2.027-5.18c0.601-3.003,3.453-8.408,4.579-10.359
	s4.129-10.434,5.63-12.987c1.501-2.552,6.231-13.437,7.357-14.788s4.129-6.156,4.054-8.107s0.525-28.751-0.15-31.228
	c-0.676-2.477-0.601-8.783,0.3-11.335c0.901-2.552,7.882-4.579,17.566-2.552c9.684,2.027,15.407,11.41,15.407,11.41
	s1.708,23.421,1.708,24.547s2.552,22.895,2.177,24.397s-4.429,15.839-4.504,16.815C124.332,213.688,124.989,216.09,125.007,217.366z
	"/>
<path fill="#B6BDBE" stroke="#000000" stroke-linecap="round" stroke-linejoin="round" stroke-miterlimit="10" d="M126.359,82.32
	c0.706,0.429,3.528,4.729,3.378,6.231s-1.351,12.536-1.351,13.512s-0.976,11.861-1.201,14.338c-0.225,2.477-0.3,12.611-0.45,15.164
	c-0.15,2.552-0.719,16.523-1.561,17.42c-0.842,0.897-2.118,0.821-4.52-0.305s-9.458-3.903-11.26-5.029s-7.355-5.855-9.87-5.705
	c-2.516,0.15-8.146,5.18-8.971,4.054c-0.826-1.126,2.327-16.44,2.702-20.794c0.375-4.354,3.678-16.965,4.129-19.593
	s0.375-11.786,2.853-14.713s6.756-7.206,7.957-8.032c1.201-0.826,6.08-1.576,7.206-2.552c1.126-0.976,1.051-3.528,2.627-3.603
	c1.576-0.075,6.306,5.105,6.681,5.405S125.892,82.037,126.359,82.32z"/>
<path fill="none" stroke="#000000" stroke-linecap="round" stroke-linejoin="round" stroke-miterlimit="10" d="M104.5,134.191
	c0,0,3.793-2.768,4.614-5.741c0.82-2.973,4.306-21.94,5.536-25.118s2.153-12.098,1.64-14.763c-0.513-2.666-3.998-6.767-7.177-6.561
	c-3.178,0.205-5.844,7.074-6.356,9.945c-0.513,2.871-0.82,7.689-1.743,10.662c-0.923,2.973-1.64,6.561-2.768,9.637
	s-2.256,8.817-2.256,10.355c0,1.538,0.41,3.896,1.128,5.126s3.896,3.281,3.998,4.101"/>
<path fill="#E1B8A2" stroke="#000000" stroke-linecap="round" stroke-linejoin="round" stroke-miterlimit="10" d="M127.248,83.322
	c-0.002,0.234-1.014,1.288-1.948,0c-0.935-1.288-5.036-5.805-5.451-6.739c-0.415-0.935-0.26-6.645,0-9.086
	c0.26-2.44,3.219-6.801,4.361-7.217c1.142-0.415,11.837-2.44,12.824-1.298c0.986,1.142,2.804,3.79,2.232,5.867
	c-0.249,0.907-1.661,3.894-1.35,4.984c0.274,0.96,0.883,3.271,0.519,3.686s-2.388,0.935-2.336,1.35
	c0.052,0.415-0.519,5.14-0.831,5.711c-0.312,0.571-1.194,0.779-2.388,0.623C131.685,81.047,127.275,80.352,127.248,83.322z"/>
<path fill="#3C271E" stroke="#000000" stroke-linecap="round" stroke-linejoin="round" stroke-miterlimit="10" d="M139.109,57.788
	c0.373,0.502,1.567,4.88,0.264,4.776c-1.303-0.104-5.404-1.35-5.716-1.194c-0.312,0.156-1.298,2.129-1.817,3.063
	c-0.519,0.935-1.705,2.804-2.358,3.79c-0.653,0.986-1.743,1.454-2.418,0.26s-2.077-5.244-3.323-4.776
	c-1.246,0.467-2.025,1.713-2.232,3.063c-0.208,1.35-0.779,2.388-1.09,3.946c-0.312,1.558-0.357,4.153-0.827,3.946
	c-0.47-0.208-1.872-1.142-2.339-2.855s-1.402-7.061-0.571-9.553c0.831-2.492,2.7-4.88,4.88-6.334s4.257-2.648,7.476-2.336
	C132.256,53.894,137.759,55.971,139.109,57.788z"/>
<path fill="none" stroke="#000000" stroke-linecap="round" stroke-linejoin="round" stroke-miterlimit="10" d="M135.527,66.718
	c0,0,2.428,0.463,2.693,1.036"/>
<path fill="none" stroke="#000000" stroke-linecap="round" stroke-linejoin="round" stroke-miterlimit="10" d="M135.527,69.106
	c0,0,0.87,0.261,1.609,0.363"/>
<path fill="none" stroke="#000000" stroke-linecap="round" stroke-linejoin="round" stroke-miterlimit="10" d="M132.827,76.323
	c0,0,2.254,0.742,2.7,0.675"/>
<path fill="none" stroke="#000000" stroke-linecap="round" stroke-linejoin="round" stroke-miterlimit="10" d="M126.441,77.724
	c0,0,2.414,3.164,4.257,3.299"/>
<path fill="none" stroke="#000000" stroke-linecap="round" stroke-linejoin="round" stroke-miterlimit="10" d="M124.417,70.819
	c-0.467-0.208-3.031-1.559-2.995-3.583"/>
<path fill="none" stroke="#000000" stroke-linecap="round" stroke-linejoin="round" stroke-miterlimit="10" d="M115.399,76.315
	c0.296,0.56,5.296,7.748,6.296,8.748s3.742,3.313,4.746,2.625s2.18-2.278,1.717-3.003"/>
<path fill="#E1B8A2" stroke="#000000" stroke-linecap="round" stroke-linejoin="round" stroke-miterlimit="10" d="M106.839,140.283
	c0.821-2.008,0.059-8.44,0-9.212c-0.059-0.773-6.312-2.318-7.316-2.674c-1.005-0.357-2.053-0.615-1.618,0.257
	c0.435,0.872,1.671,4.647,1.618,6.177c-0.054,1.53,0.778,6.76,1.194,7.711S106.304,141.591,106.839,140.283z"/>
<path fill="#DC3531" stroke="#000000" stroke-linecap="round" stroke-linejoin="round" stroke-miterlimit="10" d="M108.979,138.203
	c-0.245-0.381-9.343-0.773-9.456,0.594c-0.113,1.367-0.184,10.637,0,11.203c0.184,0.565,0.541,4.428,1.729,5.736
	c1.189,1.308,5.468,3.507,6.3,2.615c0.832-0.891,3.091-0.357,3.269-1.189s0.357-1.664,0.951-2.912
	c0.594-1.248,1.189-4.339,0.832-5.527c-0.357-1.189-2.793-6.597-2.793-7.251C109.811,140.818,109.514,139.035,108.979,138.203z"/>
<path fill="#343534" stroke="#000000" stroke-linecap="round" stroke-linejoin="round" stroke-miterlimit="10" d="M148.127,182.93
	c-0.189-0.971-14.379-17.771-15.043-19.32c-0.664-1.549-7.382-7.289-7.356-6.927c0.026,0.362,0.189,2.652,0.221,3.102
	c0.032,0.451,4.922,4.415,5.66,5.521c0.737,1.106,8.185,11.872,8.775,12.536c0.59,0.664,7.079,8.48,7.743,9.365
	C148.79,188.091,148.643,185.584,148.127,182.93z"/>
<path fill="#343534" stroke="#000000" stroke-linecap="round" stroke-linejoin="round" stroke-miterlimit="10" d="M152.508,193.5
	c0.112,0.664,1,3.5,0,8.125s-3.125,13.5-2.875,15.125s2.625,6.375,6.375,7.125s8.625,0.125,11-1.625s6.875-8.125,8.25-10.5
	s3.875-7.125,9-8.375s3.625-3.625,1.5-4.625s-6.625,2.75-8.25,4s-7.177,10.25-8.838,12.125c-1.662,1.875-3.162,6.625-6.287,6.625
	s-9.75-2.625-9.75-5.25s1.75-10.25,2.375-12.75s2.125-7.5,1.75-10S152.024,190.637,152.508,193.5z"/>
<path fill="#43413F" stroke="#000000" stroke-linecap="round" stroke-linejoin="round" stroke-miterlimit="10" d="M208.883,204.75
	c-11.24-0.54-20,8-20,18.75s6.125,20.25,20,20.375s18.625-8.658,19.75-16.642C229.758,219.25,224.508,205.5,208.883,204.75z"/>
<path fill="#686965" stroke="#000000" stroke-linecap="round" stroke-linejoin="round" stroke-miterlimit="10" d="M220.258,225.125
	c0,6.333-4.813,11.467-10.75,11.467c-5.937,0-12-5.134-12-11.467s6.063-11.467,12-11.467
	C215.445,213.658,220.258,218.792,220.258,225.125z"/>
<path fill="#1AAB5B" stroke="#000000" stroke-linecap="round" stroke-linejoin="round" stroke-miterlimit="10" d="M148.571,170.75
	c-1.303-0.16-4.688,1.125-3.688,2.75s2.625,15.25,2.875,17.25s7.5,4.5,10.25,5.75s21.625,7.875,24.25,9s9.25,3.375,11.875,3.375
	s19.75-8.75,22.875-10.125s13.5-6.277,14-7.263c0.5-0.987-10.625-7.362-18-9.362s-36.375-8.125-43-9.25
	S151.634,171.125,148.571,170.75z"/>
<path fill="none" stroke="#000000" stroke-linecap="round" stroke-linejoin="round" stroke-miterlimit="10" d="M144.701,172.875
	c1.557,1.125,15.932,4.25,20.182,5.125s28.75,6.25,37.875,7.75s25.405,6.916,27.64,6.271"/>
<ellipse fill="none" stroke="#000000" stroke-linecap="round" stroke-linejoin="round" stroke-miterlimit="10" cx="209.383" cy="225.304" rx="2" ry="1.929"/>
<path fill="#343534" stroke="#000000" stroke-linecap="round" stroke-linejoin="round" stroke-miterlimit="10" d="M112.205,153.019
	c0,0-1.697,3.439-0.822,3.647s5.375,4.084,7.5,5.709s15.25,17.824,16.875,20.099s13.834,15.901,13.855,17.651
	s-0.105,8.375-1.855,11.375s-1.125,12.592,0.25,15.733c1.375,3.142,2,5.943,8.375,6.667c6.375,0.724,8.25-1.651,10.625-4.526
	s8.25-12.5,9.5-14.5s7.75-6.375,10.375-5s23.375,13.483,26.875,15.429s12.75,7.997,14.375,8.597c1.625,0.599,3.625,1.151,4,0
	c0.375-1.151-1.495-2.529-3.998-4.09c-2.502-1.561-37.793-22.436-40.273-23.311c-2.48-0.875-10.48,1.75-12.105,3.375
	s-8.25,12.75-9.75,15.25s-4.5,5.75-8.25,4.875s-9.041-3.625-8.145-9.125s4.52-18.25,4.645-19.75s-9.375-12.25-11-14.875
	s-18.5-21.5-22.625-26S112.526,152.321,112.205,153.019z"/>
</svg>
