<?xml version="1.0" encoding="utf-8"?>
<!-- Generator: Adobe Illustrator 16.0.0, SVG Export Plug-In . SVG Version: 6.00 Build 0)  -->
<!DOCTYPE svg PUBLIC "-//W3C//DTD SVG 1.1//EN" "http://www.w3.org/Graphics/SVG/1.1/DTD/svg11.dtd">
<svg version="1.1" id="Layer_1" xmlns="http://www.w3.org/2000/svg" xmlns:xlink="http://www.w3.org/1999/xlink" x="0px" y="0px"
	 width="100px" height="100px" viewBox="0 0 100 100" enable-background="new 0 0 100 100" xml:space="preserve">
<g>
	<path fill="#35D2FF" d="M21.695,24.379c-9.42,11.104,1.092,24.953-1.771,36.915c-1.818,7.599-13.306,10.141-12.323,18.6
		c1.282,11.029,12.883,3.417,18.045,2.19c7.706-1.832,13.553,5.232,21.135,3.469c3.208-0.746,5.901-3.272,9.193-3.748
		c3.092-0.445,5.785,0.928,8.793,1.293c6.132,0.742,12.334-0.942,18.576-0.545c8.402,0.535,19.949-6.938,13.81-18.031
		c-6.021-10.876-20.157-2.285-28.586-7.456c-6.841-4.196-10.284-15.908-12.714-23.659C50.525,16.405,31.875,12.38,21.695,24.379z"/>
	<g>
		<path fill="#441457" d="M13.114,17.583c0,0,1.007,0.218,2.511,0.57c0.749,0.194,1.636,0.376,2.561,0.683
			c0.461,0.155,0.958,0.259,1.429,0.474c0.479,0.195,0.965,0.394,1.453,0.592c0.465,0.256,0.929,0.516,1.386,0.768
			c0.469,0.242,0.846,0.605,1.259,0.893c0.201,0.153,0.398,0.302,0.593,0.45c0.181,0.16,0.338,0.336,0.502,0.496
			c0.324,0.332,0.63,0.644,0.914,0.931c0.291,0.286,0.474,0.603,0.681,0.857c0.195,0.261,0.365,0.491,0.506,0.678
			c0.281,0.377,0.442,0.594,0.442,0.594l-1.43,0.843c0,0-0.127-0.21-0.349-0.579c-0.111-0.185-0.245-0.409-0.399-0.666
			c-0.166-0.25-0.306-0.572-0.545-0.852c-0.23-0.287-0.479-0.599-0.743-0.927c-0.136-0.163-0.263-0.342-0.414-0.505
			c-0.163-0.151-0.33-0.304-0.497-0.46c-0.351-0.297-0.664-0.675-1.075-0.939c-0.403-0.279-0.813-0.564-1.223-0.849
			c-0.445-0.235-0.889-0.471-1.327-0.703c-0.431-0.253-0.905-0.404-1.34-0.6c-0.874-0.39-1.731-0.66-2.454-0.928
			C14.094,17.901,13.114,17.583,13.114,17.583z"/>
		<path fill="#441457" d="M21.179,11.106c0,0,0.2,0.146,0.549,0.405c0.18,0.121,0.38,0.292,0.606,0.496
			c0.233,0.198,0.487,0.431,0.741,0.709c0.271,0.262,0.529,0.575,0.803,0.91c0.278,0.33,0.533,0.708,0.807,1.092
			c0.525,0.783,1.019,1.663,1.474,2.557c0.894,1.802,1.627,3.662,2.2,5.025c0.567,1.369,0.977,2.245,0.977,2.245l-1.54,0.619
			c0,0-0.333-0.961-0.756-2.391c-0.431-1.432-0.958-3.33-1.64-5.163c-0.349-0.913-0.735-1.811-1.164-2.621
			c-0.224-0.397-0.435-0.79-0.669-1.139c-0.231-0.35-0.452-0.683-0.688-0.964c-0.218-0.299-0.44-0.55-0.648-0.766
			c-0.2-0.224-0.381-0.416-0.547-0.555C21.363,11.273,21.179,11.106,21.179,11.106z"/>
		<path fill="#441457" d="M25.383,9.63c0,0,0.162,0.196,0.444,0.539c0.146,0.167,0.313,0.381,0.485,0.64
			c0.176,0.256,0.389,0.541,0.573,0.878c0.202,0.328,0.407,0.691,0.594,1.091c0.21,0.391,0.374,0.826,0.569,1.27
			c0.347,0.9,0.664,1.88,0.936,2.87c0.534,1.978,0.995,3.947,1.484,5.346c0.234,0.703,0.459,1.273,0.635,1.66
			c0.172,0.388,0.271,0.609,0.271,0.609l-1.532,0.64c0,0-0.083-0.253-0.229-0.694c-0.146-0.438-0.324-1.075-0.494-1.837
			c-0.363-1.525-0.622-3.558-0.946-5.544c-0.168-0.995-0.376-1.973-0.625-2.881c-0.143-0.446-0.26-0.888-0.422-1.286
			c-0.144-0.409-0.306-0.782-0.47-1.123c-0.148-0.35-0.325-0.645-0.473-0.914c-0.142-0.272-0.287-0.501-0.415-0.683
			C25.524,9.842,25.383,9.63,25.383,9.63z"/>
		<path fill="#441457" d="M31.178,8.722c0,0,0.216,0.94,0.541,2.351c0.089,0.351,0.169,0.734,0.218,1.15
			c0.059,0.414,0.123,0.852,0.188,1.302c0.055,0.458,0.151,0.918,0.179,1.41c0.027,0.477,0.017,0.989,0.011,1.465
			c-0.044,1.929-0.071,3.853,0.215,5.153c0.062,0.325,0.157,0.598,0.238,0.832c0.099,0.219,0.184,0.404,0.278,0.515
			c0.075,0.139,0.162,0.189,0.208,0.242c0.047,0.05,0.073,0.077,0.073,0.077l-1.12,1.226c0,0-0.053-0.063-0.154-0.185
			c-0.097-0.122-0.262-0.297-0.371-0.542c-0.142-0.24-0.244-0.532-0.346-0.866c-0.081-0.328-0.16-0.699-0.192-1.087
			c-0.161-1.568,0.097-3.517,0.343-5.422c0.057-0.484,0.117-0.936,0.142-1.405c0.023-0.458-0.022-0.923-0.029-1.367
			c-0.016-0.45-0.031-0.881-0.045-1.293c-0.002-0.412-0.041-0.801-0.09-1.161C31.292,9.678,31.178,8.722,31.178,8.722z"/>
		<path fill="#441457" d="M36.971,8.949c0,0-0.246,0.896-0.618,2.241c-0.362,1.345-0.803,3.15-1.084,4.967
			c-0.126,0.906-0.24,1.813-0.252,2.659c-0.032,0.843,0.025,1.618,0.127,2.253c0.071,0.311,0.1,0.61,0.193,0.843
			c0.085,0.236,0.125,0.458,0.213,0.607c0.149,0.31,0.233,0.488,0.233,0.488l-1.487,0.739c0,0-0.089-0.255-0.245-0.697
			c-0.089-0.219-0.115-0.493-0.185-0.803c-0.078-0.308-0.076-0.655-0.117-1.031c-0.036-0.75,0.002-1.607,0.136-2.497
			c0.114-0.896,0.336-1.82,0.57-2.735c0.496-1.819,1.138-3.574,1.649-4.875C36.625,9.813,36.971,8.949,36.971,8.949z"/>
		<path fill="#441457" d="M41.403,10.654c0,0-0.126,0.171-0.347,0.471c-0.217,0.303-0.52,0.736-0.852,1.277
			c-0.675,1.072-1.451,2.583-1.96,4.16c-0.11,0.399-0.242,0.792-0.314,1.187c-0.094,0.393-0.144,0.782-0.192,1.157
			c-0.035,0.375-0.056,0.735-0.051,1.075c0.018,0.337,0.02,0.656,0.079,0.939c0.035,0.288,0.087,0.545,0.16,0.764
			c0.06,0.224,0.111,0.417,0.185,0.564c0.124,0.3,0.196,0.471,0.196,0.471l-1.537,0.633c0,0-0.063-0.23-0.178-0.633
			c-0.067-0.2-0.104-0.45-0.143-0.735c-0.053-0.284-0.08-0.605-0.08-0.954c-0.027-0.351,0.015-0.722,0.043-1.114
			c0.042-0.39,0.115-0.794,0.207-1.205c0.102-0.407,0.21-0.826,0.362-1.233c0.129-0.416,0.321-0.813,0.487-1.217
			c0.737-1.588,1.712-3.015,2.521-4.011c0.399-0.5,0.759-0.898,1.01-1.171C41.257,10.807,41.403,10.654,41.403,10.654z"/>
		<path fill="#441457" d="M44.356,14.743c0,0-0.594,0.468-1.357,1.289c-0.383,0.408-0.811,0.903-1.227,1.458
			c-0.418,0.554-0.823,1.173-1.169,1.811c-0.163,0.322-0.327,0.646-0.45,0.97c-0.127,0.326-0.237,0.646-0.299,0.959
			c-0.097,0.31-0.082,0.61-0.122,0.886c0.038,0.266,0.001,0.528,0.092,0.734c0.028,0.105,0.056,0.208,0.081,0.303
			c0.034,0.092,0.093,0.169,0.13,0.247c0.078,0.153,0.145,0.283,0.246,0.371c0.163,0.187,0.255,0.294,0.255,0.294l-1.223,1.122
			c0,0-0.129-0.194-0.356-0.536c-0.124-0.16-0.217-0.394-0.312-0.665c-0.044-0.136-0.108-0.275-0.141-0.429
			c-0.021-0.156-0.042-0.32-0.066-0.491c-0.071-0.342,0.008-0.699,0.024-1.073c0.09-0.354,0.144-0.746,0.306-1.094
			c0.128-0.365,0.306-0.712,0.497-1.054c0.189-0.344,0.412-0.668,0.635-0.986c0.461-0.628,0.97-1.207,1.476-1.712
			c0.503-0.508,1.004-0.947,1.445-1.305c0.441-0.356,0.829-0.633,1.1-0.817C44.198,14.845,44.356,14.743,44.356,14.743z"/>
	</g>
	<path fill="#441457" d="M48.805,52.754c-0.095,0.125-0.211,0.271-0.363,0.385c-0.138,0.119-0.285,0.244-0.434,0.371
		c-0.036,0.029-0.07,0.054-0.106,0.081l0.173-0.255l0.827-1.443l-1.259,1.094l-0.77,0.572l-0.044-0.054l1.05-2.52l-1.183,1.273
		c0.001-0.098,0.002-0.191,0.004-0.29c-0.003-0.407-0.018-0.827,0.012-1.142c0.02-0.315,0.032-0.524,0.032-0.524
		s-0.092,0.188-0.23,0.469c-0.148,0.275-0.297,0.668-0.462,1.066c-0.082,0.188-0.165,0.376-0.24,0.553
		c-0.04,0.086-0.077,0.168-0.111,0.248c-0.013,0.035-0.03,0.063-0.047,0.09c-0.008-0.322-0.026-0.668-0.056-1.02
		c-0.039-0.497-0.078-0.986-0.095-1.354c-0.015-0.37-0.008-0.621-0.008-0.621s-0.087,0.232-0.196,0.589
		c-0.109,0.363-0.234,0.849-0.36,1.328c-0.125,0.479-0.258,0.95-0.374,1.269c-0.021,0.047-0.04,0.089-0.06,0.129
		c-0.116-0.282-0.257-0.688-0.354-1.107c-0.055-0.214-0.097-0.43-0.125-0.635c-0.04-0.209-0.041-0.384-0.053-0.552
		c-0.021-0.167,0.02-0.311,0.027-0.411c0.011-0.099,0.018-0.155,0.018-0.155s-0.027,0.051-0.073,0.138
		c-0.041,0.092-0.127,0.206-0.172,0.375c-0.053,0.165-0.127,0.376-0.164,0.586c-0.051,0.217-0.093,0.45-0.118,0.683
		c-0.023,0.161-0.033,0.318-0.045,0.478c-0.106-0.205-0.223-0.416-0.337-0.636c-0.099-0.204-0.197-0.408-0.292-0.602
		c-0.104-0.192-0.162-0.396-0.213-0.566c-0.106-0.342-0.177-0.57-0.177-0.57s-0.011,0.238-0.028,0.595
		c-0.011,0.178-0.026,0.384,0.006,0.613c0.023,0.231,0.048,0.48,0.073,0.73c0.036,0.266,0.077,0.533,0.109,0.777
		c-0.008-0.01-0.015-0.02-0.022-0.028c-0.279-0.399-0.523-0.832-0.723-1.142c-0.193-0.314-0.323-0.523-0.323-0.523
		s0.051,0.238,0.131,0.598c0.084,0.356,0.169,0.836,0.3,1.312c0.033,0.108,0.065,0.218,0.098,0.324
		c-0.154-0.106-0.314-0.204-0.473-0.303c-0.501-0.265-1.001-0.47-1.37-0.63c-0.371-0.166-0.617-0.278-0.617-0.278
		s0.201,0.183,0.502,0.452c0.31,0.266,0.725,0.616,1.085,0.982c0.165,0.195,0.341,0.377,0.45,0.571
		c0.057,0.095,0.131,0.175,0.161,0.271c0.038,0.088,0.074,0.173,0.106,0.248c0.071,0.149,0.07,0.293,0.1,0.379
		c0.021,0.088,0.032,0.141,0.032,0.141l1.26-0.404c0,0-0.039-0.068-0.103-0.182l0.501-0.286c0,0-0.17-0.231-0.414-0.566l0.192-0.042
		c0.008,0.042,0.008,0.08,0.026,0.129c0.052,0.17,0.092,0.266,0.092,0.266l1.073-0.717l0.775,0.668c0,0,0.065-0.109,0.144-0.316
		c0.018-0.051,0.039-0.109,0.055-0.166c0.002-0.041,0.008-0.082,0.011-0.129c0.002-0.025,0.005-0.063,0.007-0.092l0.04,0.021l0,0
		l-0.042,0.205l-0.021,0.096l-0.008,0.064c-0.001,0.027-0.006,0.033-0.002,0.087l0.005,0.064l0.003,0.032
		c0.005,0.029,0.016,0.068,0.028,0.101c0.012,0.034,0.027,0.067,0.045,0.1c0.016,0.024,0.021,0.055,0.125,0.153
		c0.087,0.076,0.212,0.128,0.316,0.144c0.093,0.011,0.139,0.005,0.214-0.008c0.064-0.014,0.141-0.046,0.18-0.069l0.05-0.03
		l0.015-0.012l0.171,0.208c-0.055,0.044-0.09,0.073-0.09,0.073l1.045,0.81c0,0,0.094-0.173,0.233-0.436
		c0.131-0.258,0.356-0.633,0.56-0.994c0.098-0.199,0.196-0.398,0.288-0.585c0.099-0.179,0.146-0.352,0.185-0.503
		c0.085-0.299,0.142-0.5,0.142-0.5S49,52.512,48.805,52.754z M46.716,53.505l-0.167,0.214c0.013-0.068,0.034-0.186,0.064-0.344
		c0.068,0.07,0.081,0.098,0.095,0.115C46.71,53.496,46.713,53.5,46.716,53.505z M46.507,53.774l-0.052,0.065l0.021-0.082
		L46.507,53.774z M46.353,54.237l0.05-0.192l0.167,0.201C46.508,54.256,46.433,54.257,46.353,54.237z"/>
	<path fill="#5F1C78" d="M26.904,63.022c4.492-0.948,9.855,1.176,14.289,1.76c6.643,0.877,13.171,0.419,19.789-0.393
		c4.951-0.606,11.066-1.915,15.78,0.354c3.181,1.53,5.361,4.919,3.102,8.09c-2.961,4.15-10.631,3.979-15.152,3.908
		c-6.029-0.094-12.046-1.219-18.075-1.09c-3.409,0.071-6.312,1.123-9.58,1.852c-4.428,0.992-10.709,1.324-14.619-1.329
		C16.685,72.274,20.864,64.293,26.904,63.022z"/>
	<g>
		<path fill="#FFFFFF" d="M56.892,71.981c-2.936,0.172-6.087,1.047-9.088,0.884c0.143,0.846,0.184,1.824,0.246,2.789
			c3.366,0.031,6.729,0.383,10.092,0.687C58.525,75.406,57.178,74.22,56.892,71.981z"/>
		<path fill="#FFFFFF" d="M36.902,69.14c2.224-0.299,4.288-0.863,6.585-0.59c0.029-1.161-0.003-2.352,0.042-3.515
			c-0.778-0.067-1.556-0.148-2.337-0.253c-1.415-0.187-2.924-0.529-4.468-0.88C36.799,65.634,37.116,67.51,36.902,69.14z"/>
		<path fill="#FFFFFF" d="M79.863,72.834c0.318-0.446,0.54-0.897,0.692-1.349c-0.823-0.627-1.714-1.242-2.428-1.389
			c-2.045-0.426-6.123,1.607-8.754,1.945c-2.771,0.354-8.123-1.021-10.265,0.95c0.274,1.145,1.562,2.455,2.966,3.646
			c0.879,0.051,1.757,0.091,2.636,0.104C69.232,76.813,76.902,76.984,79.863,72.834z"/>
		<path fill="#FFFFFF" d="M37.056,77.504c3.041-0.678,5.769-1.626,8.879-1.813c-0.158-1.188-0.31-2.372-0.387-3.561
			c-3.021,0.614-6.147-0.461-9.29-0.177c-3.98,0.358-9.865,1.604-13.521-0.568c-0.539,1.003-0.959,2.533-1.151,4.113
			c0.256,0.236,0.537,0.464,0.851,0.677C26.347,78.828,32.628,78.496,37.056,77.504z"/>
		<path fill="#FFFFFF" d="M57.685,64.756c-0.004,0.011-0.008,0.017-0.01,0.026c-1.066,4.055,2.313,2.661,4.479,2.143
			c2.179-0.522,3.403-1.965,3.297-3.125c-1.543,0.188-3.055,0.417-4.469,0.59C59.88,64.524,58.782,64.645,57.685,64.756z"/>
		<path fill="#FFFFFF" d="M26.904,63.022c-1.395,0.293-2.688,0.945-3.785,1.823c0.572,1.416,1.456,2.856,2.157,3.347
			c1.513,1.059,5.083-0.931,6.865-1.864c2.17-1.139,2.065-1.313,1.218-3.133C31.14,62.794,28.933,62.593,26.904,63.022z"/>
		<path fill="#FFFFFF" d="M68.429,67.113c0.758,1.017,3.172,0.677,4.514,0.998c0.358-1.448,0.396-2.95,0.705-4.354
			c-1.767-0.327-3.633-0.348-5.498-0.221C68.075,64.979,68.053,66.608,68.429,67.113z"/>
		<path fill="#FFFFFF" d="M50.434,68.878c4.177-0.067,3.444-1.221,3.296-3.789c-2.552,0.164-5.102,0.22-7.661,0.109
			C46.007,67.711,46.392,68.946,50.434,68.878z"/>
	</g>
	<path fill="#872AA8" d="M21.914,60.097c-0.926-0.694-1.929-0.816-3.025-1.143c-1.459-0.435-2.715-1.28-3.822-2.303
		c-2.121-1.96-3.449-4.775-3.651-7.626c-0.017-0.248-0.094-0.454-0.203-0.625c0.545-0.023,1.075-0.21,1.631-0.222
		c0.198-0.001,0.395-0.01,0.59-0.028c0.184-0.011,0.275-0.033,0.321-0.051c-0.02,0.022-0.039,0.065-0.039,0.131
		c0.001,0.454,0.106,0.875,0.341,1.262c0.64,1.057,2.18,0.302,1.718-0.852c-0.208-0.52-0.192-1.205-0.556-1.646
		c-0.406-0.493-1.153-0.6-1.748-0.543c-0.876,0.085-2.077,0.214-2.92,0.743c0.18-0.76,0.245-1.572,0.323-2.012
		c0.065-0.364,0.146-0.72,0.245-1.072c0.079,0.126,0.155,0.254,0.243,0.376c0.222,0.326,0.494,0.556,0.795,0.802
		c1.039,0.853,2.146-0.915,1.121-1.754c-0.722-0.592-1.009-1.601-2.022-1.786c-0.812-0.148-1.319,0.438-1.646,1.093
		c-0.17,0.341-0.265,0.737-0.334,1.138c-0.12-0.208-0.262-0.398-0.441-0.546c-0.874-0.725-1.987,0.247-2.766,0.625
		c-0.897,0.436-2.163,0.943-2.167,2.123c-0.005,1.408,2.126,1.453,2.303,0.285c0.003-0.001,0.003-0.001,0.004-0.005
		c0.088-0.073,0.183-0.139,0.278-0.203c0.306-0.213,0.608-0.429,0.903-0.658c0.182-0.138,0.333-0.307,0.507-0.452
		c0.087-0.049,0.146-0.093,0.198-0.135c0.003,0.012,0.007,0.024,0.01,0.034c0.185,0.538,0.21,1.163,0.262,1.725
		c0.019,0.21,0.031,0.424,0.041,0.636c0.007,0.127,0.043,0.25,0.094,0.369c-0.912-0.437-2.136-0.177-3.1-0.104
		c-0.712,0.055-1.268,0.494-1.459,1.187c-0.209,0.753-0.487,1.527-0.574,2.309c-0.14,1.278,1.777,1.463,2.153,0.333
		c0.053-0.163,0.071-0.33,0.085-0.5c0-0.003-0.001-0.007-0.001-0.009c0.048-0.281,0.137-0.548,0.226-0.824
		c0.057-0.183,0.098-0.37,0.122-0.559c0-0.007-0.001-0.007-0.001-0.013c0.018-0.001,0.031,0,0.053-0.008
		c0.675-0.173,1.618-0.283,2.279-0.041c0.13,0.047,0.253,0.051,0.373,0.039c0.021,0.143,0.069,0.28,0.136,0.402
		c0.344,3.076,1.703,5.606,3.781,7.963c1.954,2.219,6.373,4.798,9.252,2.958C22.084,60.745,22.188,60.301,21.914,60.097z"/>
	<path fill="#872AA8" d="M79.313,36.061c0.229,0.584,0.287,0.963,0.879,1.303c1.353,0.777,2.552-1.392,1.174-2.107
		c0.422,0.219,0.115-0.003-0.043-0.255c-0.239-0.38-0.369-0.602-0.723-0.883c-0.778-0.625-1.764-0.234-2.525,0.159
		c-0.895,0.46-1.591,1.589-2.321,2.264c-0.778,0.717-1.208,1.331-1.659,2.131c-0.057-0.285-0.102-0.571-0.103-0.886
		c-0.006-0.773,0.15-1.587,0.087-2.355c-0.032-0.381-0.199-1.055-0.117-1.55c0.289,0.204,0.44,0.405,0.833,0.697
		c0.976,0.723,2.026-0.814,1.068-1.542c-0.718-0.544-1.449-0.931-2.341-0.521c-0.882,0.406-0.643,1.583-0.724,2.351
		c-0.066,0.636-0.169,1.304-0.232,1.973c-0.168-0.355-0.39-0.683-0.682-0.952c-0.204-0.188-0.466-0.177-0.697-0.059
		c-0.872,0.446-1.803,0.735-2.67,1.171c-0.751,0.376-1.097,1.159-1.63,1.764c-0.563,0.376-0.418,1.068-0.021,1.487
		c0.009,0.009,0.017,0.019,0.025,0.028c0,0,0,0,0.001,0.001c0.24,0.26,0.583,0.395,0.909,0.283c0.008-0.002,0.013-0.002,0.019-0.006
		c0.054-0.019,0.104-0.046,0.156-0.079c0.012-0.009,0.024-0.013,0.038-0.023c0.059-0.041,0.119-0.095,0.175-0.16
		c0.685-0.791,1-1.788,2-2.217c0.46-0.199,0.859-0.562,1.237-0.921c0.462,0.848,0.802,2.462,1.516,3.038
		c-0.09,0.24-0.116,0.517-0.042,0.819c0.488,2.043-1.234,6.097-1.911,7.727c-1.63,3.931-4.722,5.061-7.522,7.951
		c-0.181,0.188-0.113,0.469,0.127,0.561c2.659,1.015,7.075-2.248,8.378-4.574c1.779-3.182,4.522-8.731,3.43-12.526
		c-0.063-0.221-0.163-0.393-0.283-0.527c0.675,0.044,1.335,0.025,2.016,0.053c0.421,0.018,1.149,0.478,1.438,0.764
		c0.162,0.161-0.207,1.293-0.249,1.52c-0.268,1.412,1.837,2.048,2.174,0.616c-0.008,0.009-0.016,0.018-0.024,0.027
		c0.023-0.07,0.051-0.134,0.067-0.208c0.128-0.545,0.188-1.152,0.213-1.709c0.049-1.044-0.634-1.762-1.518-2.191
		c-0.952-0.459-1.797-0.7-2.855-0.539c-0.062,0.009-0.126,0.021-0.188,0.031c0.652-0.489,1.3-0.984,1.87-1.58
		C78.494,35.958,78.957,35.153,79.313,36.061z"/>
	<path opacity="0.7" fill="#35D2FF" d="M28.332,79.099c-6.376-4.447-12.915,7.287-18.117-0.488
		c-0.099-0.146-0.339-0.251-0.484-0.086c-2.073,2.352,0.807,5.941,3.655,6.099c3.175,0.175,5.173-0.946,7.96-2.226
		c2.389-1.097,5.088-0.484,7.07-2.339C28.669,79.82,28.612,79.295,28.332,79.099z"/>
	<path opacity="0.7" fill="#35D2FF" d="M50.231,79.138c-0.125-0.104-0.25-0.206-0.377-0.31c-0.457-0.375-1.106-0.347-1.622-0.143
		c-1.334,0.528-2.57,1.274-3.884,1.858c-1.806,0.801-3.65-0.025-5.408-0.529c-2.396-0.685-4.344-1.3-6.75-0.343
		c-0.212,0.084-0.168,0.35-0.029,0.469c1.211,1.041,2.572,1.236,3.984,1.921c1.693,0.819,3.771,1.738,5.649,2.006
		c2.514,0.356,7.967-1.145,8.791-3.833C50.717,79.8,50.574,79.42,50.231,79.138z"/>
	<path opacity="0.7" fill="#35D2FF" d="M59.798,78.959c-0.383-0.812-1.396-0.909-2.197-0.917c-0.608-0.006-1.223,0.018-1.83,0.058
		c-0.758,0.049-1.256,0.267-1.896,0.618c-0.117,0.063-0.15,0.182-0.105,0.304c0.264,0.722,1.006,0.829,1.703,0.922
		c0.645,0.087,1.344-0.001,1.995,0.007c0.802,0.01,1.628,0.111,2.261-0.46C59.88,79.351,59.879,79.133,59.798,78.959z"/>
	<path opacity="0.7" fill="#35D2FF" d="M91.651,76.641c-2.39,0.16-4.427,1.611-6.876,1.68c-2.069,0.059-3.898-0.58-5.999-0.395
		c-3.004,0.27-5.599,1.467-8.612,1.731c-2.243,0.195-4.355-0.52-6.549-0.212c-0.273,0.039-0.296,0.367-0.167,0.547
		c3.48,4.853,9.821,1.654,14.467,1.166c4.967-0.521,11.165,1.981,14.68-3.066C93.108,77.354,92.426,76.589,91.651,76.641z"/>
	<path opacity="0.7" fill="#35D2FF" d="M96.219,66.217c-0.85-1.032-1.457-1.329-2.559-1.796c-0.096-0.041-0.201,0.02-0.238,0.11
		c-0.401,0.997,0.775,2.411,1.085,3.351c0.887,2.688-0.862,4.202-1.317,6.617c-0.07,0.375,0.213,0.759,0.589,0.813
		c2.062,0.304,3.678-2.721,3.707-4.505C97.512,69.265,97.233,67.453,96.219,66.217z"/>
	<path opacity="0.4" fill="#35D2FF" d="M30.421,53.27c-0.726,1.08-1.079,2.221-2.536,2.431c-0.524,0.077-1.075-0.438-1.522-0.628
		c-0.639-0.27-1.165-0.78-1.725-1.178c-0.196-0.139-0.569-0.041-0.661,0.188c-0.898,2.235,1.897,4.126,3.813,4.443
		c2.535,0.418,5.151-2.051,5.168-4.5C32.965,52.801,31.089,52.273,30.421,53.27z"/>
	<path opacity="0.4" fill="#35D2FF" d="M49.268,54.963c-0.496-0.541-1.454-0.371-1.893,0.132c-0.614,0.706-0.799,1.288-1.054,2.16
		c-0.159,0.547-0.777,0.78-1.273,0.93c-0.535,0.158-1.654-0.859-1.919-1.183c-0.462-0.564-0.577-1.313-0.987-1.895
		c-0.008-0.039-0.023-0.078-0.056-0.113c-0.025-0.027-0.051-0.057-0.076-0.082c-0.118-0.127-0.297-0.145-0.447-0.071
		c-1.116,0.548-1.259,2.079-1.014,3.155c0.406,1.793,2.338,3.381,4.165,3.572c1.463,0.152,3.143-0.652,4.063-1.78
		C49.786,58.549,50.461,56.258,49.268,54.963z"/>
	<path opacity="0.4" fill="#35D2FF" d="M59.573,56.962c-0.154,0.325-0.231,0.697-0.326,1.038c-0.344,1.237-1.604,1.773-2.742,2
		c-1.15,0.231-2.285-0.603-3.127-1.301c-0.253-0.211-0.884-1.359-1.447-1.174c-1.183,0.394-1.134,1.851-0.79,2.805
		c0.426,1.181,2.357,2.493,3.538,2.751c3.37,0.733,7.929-1.363,7.899-5.297C62.566,56.154,60.224,55.225,59.573,56.962z"/>
	<path opacity="0.4" fill="#35D2FF" d="M52.295,44.436c-0.832,1.852-1.899,4.052-4.331,3.791c-1.8-0.193-2.715-0.926-3.973-2.337
		c-0.243-0.272-1.5-0.661-1.564-0.783c-0.043-0.087-0.153-0.083-0.197,0.001c-0.374,0.735-0.118,2.061,0.262,2.724
		c1.156,2.023,2.162,3.625,4.727,3.721c2.067,0.076,3.822-0.063,5.572-1.441c1.363-1.072,2.552-3.207,2.649-4.957
		C55.544,43.27,53.05,42.761,52.295,44.436z"/>
	<path opacity="0.4" fill="#35D2FF" d="M55.153,32.372c-0.139-1.214-2.029-1.898-2.717-0.715c-0.349,0.597-0.565,1.245-0.952,1.818
		c-0.408,0.603-0.969,0.631-1.597,0.884c-0.023,0.006-0.035,0.012-0.049,0.019c-0.329-0.109-0.657-0.224-0.992-0.308
		c-0.388-0.308-0.717-0.675-0.982-1.106c-0.111-0.266-0.26-0.479-0.431-0.706c-0.239-0.317-0.765-0.401-1.028-0.055
		c-1.841,2.427,0.466,5.137,3.126,5.41c1.291,0.132,2.967-0.506,3.914-1.337C54.526,35.322,55.319,33.818,55.153,32.372z"/>
	<path opacity="0.4" fill="#35D2FF" d="M29.913,42.115c-0.104-0.626-0.918-0.997-1.48-0.81c-1.878,0.622-1.853,2.764-3.074,4.033
		c-0.375,0.391-0.752,0.745-1.174,1.082c-0.592,0.472-1.926-0.707-2.239-1.096c-0.479-0.591-1.339-1.06-1.912-1.577
		c-0.244-0.222-0.625-0.043-0.564,0.297c0.259,1.457,0.151,2.624,1.315,3.796c1.031,1.039,2.46,2.146,4.013,1.645
		C27.392,48.645,30.384,44.945,29.913,42.115z"/>
	<path opacity="0.4" fill="#35D2FF" d="M48.041,27.169c-0.281-1.067-1.475-1.732-2.5-1.17c-0.139,0.074-0.277,0.151-0.414,0.226
		c-0.548,0.299-0.644,0.988-0.513,1.53c1.498,6.184-2.71,11.571-8.529,13.062c-6.959,1.783-11.067-3.799-11.969-9.749
		c-0.04-0.271-0.414-0.356-0.596-0.178c-2.168,2.141-0.68,5.915,0.529,8.142c2.109,3.882,6.806,5.855,11.215,5.327
		C43.483,43.374,50.296,35.75,48.041,27.169z"/>
	<path opacity="0.4" fill="#35D2FF" d="M40.744,49.058c-0.239-0.765-1.288-1.171-1.885-0.512c-0.961,1.064-1.536,2.522-2.607,3.476
		c-0.744,0.662-2.482-1.378-2.839-1.971c-0.086-0.145-0.319-0.201-0.418-0.031c-0.544,0.935-0.944,1.927-0.273,2.979
		c0.692,1.085,2.049,1.896,3.344,1.974c1.432,0.087,2.565-0.931,3.318-2.047C40.151,51.787,41.197,50.508,40.744,49.058z"/>
	<path opacity="0.7" fill="#35D2FF" d="M81.736,60.51c-0.901,0-0.747,1.393,0.148,1.393C82.786,61.902,82.634,60.51,81.736,60.51z"
		/>
	<path opacity="0.7" fill="#35D2FF" d="M81.722,63.713c-0.402,0-0.688,0.458-0.646,0.822c0.053,0.436,0.42,0.646,0.823,0.646
		s0.688-0.46,0.646-0.822C82.492,63.924,82.125,63.713,81.722,63.713z"/>
	<path opacity="0.7" fill="#35D2FF" d="M87.356,61.575c-0.009-0.007-0.016-0.015-0.024-0.023c-0.334-0.342-0.92-0.04-0.899,0.416
		c0.021,0.466,0.604,0.673,0.926,0.34l0.015-0.015C87.569,62.089,87.549,61.772,87.356,61.575z"/>
	<path opacity="0.7" fill="#35D2FF" d="M89.098,66.869c-0.021-0.521-0.603-0.751-1.034-0.724c-0.036,0.004-0.074,0.006-0.11,0.008
		c-0.73,0.106-0.989,1.056-0.534,1.579c0.592,0.676,1.56,0.23,1.688-0.567C89.124,67.066,89.119,66.969,89.098,66.869z"/>
	<path opacity="0.7" fill="#35D2FF" d="M92.424,60.972c-1.83,0-1.534,2.826,0.281,2.826C94.536,63.798,94.239,60.972,92.424,60.972z
		"/>
	<path opacity="0.7" fill="#35D2FF" d="M77.873,60.807c-0.006-0.044-0.012-0.09-0.019-0.133c-0.225-1.689-2.763-1.709-2.989-0.013
		c-0.007,0.051-0.014,0.104-0.02,0.154c-0.11,0.826,0.49,1.607,1.313,1.716C77.15,62.661,78.003,61.79,77.873,60.807z"/>
	<path opacity="0.7" fill="#35D2FF" d="M69.205,59.002c-0.723,0-1.28,0.718-1.237,1.404c0.049,0.754,0.684,1.237,1.405,1.237
		s1.28-0.72,1.236-1.404C70.562,59.485,69.926,59.002,69.205,59.002z"/>
	<path opacity="0.7" fill="#35D2FF" d="M72.809,60.416c-0.639,0-0.608,0.992,0.031,0.992S73.449,60.416,72.809,60.416z"/>
	<path opacity="0.7" fill="#35D2FF" d="M63.308,53.694c-0.403,0-0.689,0.459-0.646,0.824c0.052,0.435,0.419,0.646,0.822,0.646
		c0.404,0,0.688-0.459,0.646-0.822C64.078,53.905,63.711,53.694,63.308,53.694z"/>
	<path opacity="0.7" fill="#35D2FF" d="M24.287,59.466c-0.723,0-1.28,0.718-1.237,1.403c0.048,0.755,0.684,1.238,1.404,1.238
		c0.722,0,1.28-0.721,1.237-1.404C25.642,59.948,25.007,59.466,24.287,59.466z"/>
	<path opacity="0.7" fill="#35D2FF" d="M19.211,67.505c-0.425,0-0.448,0.662-0.019,0.662C19.618,68.167,19.639,67.505,19.211,67.505
		z"/>
	<path opacity="0.7" fill="#35D2FF" d="M16.207,70.266c-0.447,0-0.852,0.229-0.911,0.711c-0.049,0.402,0.266,0.911,0.712,0.911
		s0.852-0.23,0.911-0.714C16.967,70.772,16.653,70.266,16.207,70.266z"/>
	<path opacity="0.7" fill="#35D2FF" d="M13.554,71.998c-0.942,0-1.772,0.651-1.828,1.631c-0.05,0.902,0.687,1.827,1.631,1.827
		c0.943,0,1.773-0.647,1.828-1.63C15.236,72.924,14.498,71.998,13.554,71.998z"/>
	<path opacity="0.7" fill="#35D2FF" d="M17.047,73.427c-0.409,0-0.697,0.469-0.652,0.835c0.055,0.442,0.428,0.652,0.836,0.652
		c0.409,0,0.697-0.469,0.651-0.835C17.828,73.635,17.455,73.427,17.047,73.427z"/>
	<path opacity="0.7" fill="#35D2FF" d="M18.096,66.758c-1.196,0-1.352,1.861-0.146,1.861C19.145,68.619,19.301,66.758,18.096,66.758
		z"/>
	<path opacity="0.7" fill="#35D2FF" d="M22.393,56.111c-0.452,0-0.862,0.237-0.919,0.726c-0.048,0.407,0.273,0.918,0.724,0.918
		c0.451,0,0.862-0.237,0.919-0.723C23.163,56.623,22.843,56.111,22.393,56.111z"/>
	<path opacity="0.7" fill="#35D2FF" d="M22.077,52.602c-0.375,0-0.651,0.411-0.616,0.758c0.041,0.401,0.381,0.617,0.758,0.617
		c0.375,0,0.652-0.412,0.618-0.758C22.794,52.815,22.453,52.602,22.077,52.602z"/>
	<path opacity="0.7" fill="#35D2FF" d="M23.427,25.942c-1.013,0-1.23,1.583-0.204,1.583C24.238,27.525,24.455,25.942,23.427,25.942z
		"/>
	<path opacity="0.7" fill="#35D2FF" d="M21.789,28.053c-1.144,0-1.319,1.782-0.166,1.782C22.767,29.835,22.943,28.053,21.789,28.053
		z"/>
	<path opacity="0.7" fill="#35D2FF" d="M40.807,19.873c-1.054,0-1.26,1.642-0.194,1.642C41.666,21.515,41.872,19.873,40.807,19.873z
		"/>
	<path opacity="0.7" fill="#35D2FF" d="M44.912,20.119c-0.092-0.073-0.197-0.122-0.31-0.154c-0.577-0.161-1.197,0.165-1.247,0.803
		c-0.045,0.564,0.512,1.155,1.104,0.989c0.191-0.053,0.342-0.102,0.499-0.229C45.418,21.149,45.355,20.474,44.912,20.119z"/>
	<path opacity="0.7" fill="#35D2FF" d="M44.085,22.321c-0.105-0.085-0.224-0.136-0.354-0.156c0.03,0.002,0.049,0.002,0.088,0.002
		c-0.49-0.151-1.029,0.083-1.101,0.634c-0.084,0.656,0.542,1,1.103,0.837c0.345-0.099,0.583-0.475,0.54-0.826
		C44.335,22.62,44.237,22.441,44.085,22.321z"/>
	<path opacity="0.7" fill="#35D2FF" d="M46.389,22.373c-0.878,0-0.739,1.356,0.133,1.356C47.399,23.729,47.26,22.373,46.389,22.373z
		"/>
	<path opacity="0.7" fill="#35D2FF" d="M20.542,31.511c-0.298,0-0.332,0.466-0.031,0.466C20.811,31.977,20.845,31.511,20.542,31.511
		z"/>
	<path opacity="0.7" fill="#35D2FF" d="M21.047,26.422c-0.139,0.028-0.243,0.081-0.37,0.146c-0.687,0.355,0.137,1.444,0.692,0.832
		c0.026-0.025,0.054-0.05,0.081-0.074C21.955,27.011,21.583,26.315,21.047,26.422z"/>
	<path opacity="0.7" fill="#35D2FF" d="M48.814,23.979c-0.514,0-0.519,0.798-0.003,0.798C49.324,24.776,49.329,23.979,48.814,23.979
		z"/>
	<path opacity="0.7" fill="#35D2FF" d="M44.914,24.559c-0.037-0.003-0.074-0.007-0.111-0.01c-0.707-0.055-0.683,1.189,0.063,1.127
		c0.036-0.002,0.072-0.004,0.107-0.007C45.708,25.608,45.608,24.612,44.914,24.559z"/>
	<path opacity="0.7" fill="#35D2FF" d="M17.072,77.616c-0.371,0-0.644,0.404-0.61,0.745c0.039,0.397,0.374,0.611,0.744,0.611
		c0.372,0,0.644-0.402,0.611-0.745C17.777,77.832,17.443,77.616,17.072,77.616z"/>
	<g>
		<g>
			<path fill="#441457" d="M54.59,53.934c-0.335-0.598-0.957-1.176-1.604-1.629c-0.65-0.453-1.318-0.826-1.807-1.128
				c-0.49-0.297-0.799-0.525-0.799-0.525s0.253,0.288,0.673,0.688c0.415,0.402,0.993,0.916,1.496,1.463
				c0.507,0.548,0.899,1.147,1.031,1.607c0.078,0.225,0.1,0.414,0.107,0.546c0.006,0.13,0.012,0.202,0.012,0.202l1.313-0.155
				c0,0-0.031-0.114-0.086-0.313C54.868,54.497,54.766,54.219,54.59,53.934z"/>
			<path fill="#441457" d="M58.822,55.848c-0.016,0.051,0.022,0.064,0.071-0.066c0.014-0.043,0.021-0.076,0.025-0.121
				c0.002-0.017-0.002-0.031,0-0.046c-0.002,0.002-0.002,0.003-0.002,0.003C58.866,55.714,58.825,55.803,58.822,55.848z"/>
			<path fill="#441457" d="M61.871,53.441c-0.329,0.149-0.791,0.303-1.269,0.467c-0.229,0.083-0.459,0.176-0.68,0.275
				c0.032-0.041,0.063-0.082,0.096-0.123c0.447-0.577,0.904-1.159,1.225-1.611c0.326-0.451,0.498-0.775,0.498-0.775
				s-0.278,0.237-0.736,0.529c-0.3,0.193-0.677,0.42-1.079,0.657c0.118-0.298,0.284-0.653,0.458-1.001
				c0.258-0.499,0.515-0.996,0.708-1.371c0.196-0.375,0.308-0.632,0.308-0.632s-0.182,0.213-0.476,0.512
				c-0.296,0.304-0.688,0.705-1.081,1.11c-0.35,0.371-0.68,0.742-0.939,1.109c0.002-0.004,0.002-0.009,0.003-0.016
				c0.051-0.172,0.091-0.354,0.151-0.529c0.125-0.348,0.248-0.707,0.402-1.031c0.137-0.332,0.293-0.622,0.426-0.88
				c0.278-0.512,0.492-0.845,0.492-0.845s-0.313,0.233-0.76,0.621c-0.22,0.2-0.485,0.436-0.741,0.709
				c-0.134,0.129-0.266,0.272-0.396,0.421l0.305-1.864l-1.509,2.475c0.004-0.194,0.007-0.395,0.015-0.598
				c-0.008-0.941,0.019-1.891,0.019-1.891s-0.35,0.876-0.67,1.77c-0.075,0.183-0.146,0.37-0.214,0.546
				c-0.053-0.219-0.116-0.434-0.174-0.652c-0.178-0.589-0.365-1.161-0.479-1.593c-0.113-0.438-0.168-0.739-0.168-0.739
				s-0.029,0.302-0.039,0.758c-0.007,0.464,0.021,1.075,0.031,1.674c-0.005,0.297,0.01,0.597-0.019,0.86
				c-0.011,0.271-0.048,0.51-0.091,0.707c-0.008,0.061-0.025,0.106-0.037,0.158c-0.027-0.066-0.053-0.131-0.091-0.2
				c-0.217-0.458-0.552-1.01-0.891-1.538c-0.332-0.527-0.677-1.055-0.864-1.463c-0.211-0.412-0.258-0.737-0.273-0.73
				c0.018,0-0.022,0.313,0.075,0.783c0.079,0.487,0.278,1.085,0.462,1.689c0.189,0.598,0.357,1.186,0.434,1.613
				c0.054,0.217,0.045,0.386,0.064,0.506c0.012,0.118,0.019,0.186,0.019,0.186l1.302-0.236c0,0-0.01-0.025-0.025-0.071l0.58,0.153
				l-0.322,0.531l0.734,0.256c-0.018,0.065-0.037,0.137-0.053,0.189c-0.053,0.205-0.082,0.322-0.082,0.322l0.713,0.029
				c-0.022,0.023-0.045,0.043-0.068,0.07c-0.109,0.129-0.232,0.289-0.32,0.57c-0.021,0.082-0.037,0.151-0.045,0.232
				c-0.008,0.108-0.001,0.215,0.013,0.312c0.024,0.191,0.14,0.422,0.229,0.54c0.183,0.225,0.322,0.304,0.322,0.304l1.155-1.868
				c0,0,0.095,0.051,0.204,0.193c-0.013,0.012-0.028,0.027-0.028,0.027l0.087,0.059c0.061,0.094,0.119,0.229,0.133,0.336
				c0.008,0.053,0.007,0.111,0.004,0.169c0.047-0.089,0.108-0.188,0.176-0.292l0.693,0.473c0,0,0.021-0.041,0.063-0.113
				c0.046-0.07,0.075-0.195,0.18-0.312c0.169-0.259,0.51-0.575,0.891-0.881c0.388-0.306,0.795-0.614,1.075-0.882
				c0.269-0.263,0.427-0.458,0.427-0.458S62.208,53.282,61.871,53.441z M59.604,53.053c-0.018,0.009-0.036,0.021-0.055,0.032
				l0.029-0.049C59.579,53.036,59.593,53.044,59.604,53.053z"/>
		</g>
		<g>
			<path fill="#F0D907" d="M54.495,60.892c-2.062-0.825-3.067-3.173-2.243-5.234c0.071-0.181,0.168-0.362,0.295-0.568
				c1.011-1.704,3.092-2.412,4.938-1.675c2.063,0.825,3.067,3.173,2.243,5.234S56.557,61.716,54.495,60.892z"/>
			<path fill="#0096E6" d="M54.384,61.167c-2.31-0.926-3.436-3.557-2.511-5.866c0.08-0.203,0.184-0.406,0.33-0.637
				c1.132-1.908,3.463-2.703,5.532-1.876c2.31,0.924,3.438,3.554,2.513,5.863C59.325,60.963,56.696,62.091,54.384,61.167z"/>
			<path fill="#F0D907" d="M54.495,60.892c-2.062-0.825-3.067-3.173-2.243-5.234c0.071-0.181,0.168-0.362,0.295-0.568
				c1.011-1.704,3.092-2.412,4.938-1.675c2.063,0.825,3.067,3.173,2.243,5.234S56.557,61.716,54.495,60.892z"/>
			<g>
				<g>
					<circle fill="#FFFFFF" cx="55.979" cy="56.704" r="3.327"/>
					<path fill="#E8E8E8" d="M53.321,54.725c-0.551,1.656,0.266,3.476,1.908,4.131c1.43,0.573,3.014,0.071,3.894-1.11
						c-0.021,0.065-0.03,0.131-0.056,0.194c-0.682,1.705-2.617,2.534-4.323,1.854c-1.706-0.683-2.537-2.617-1.854-4.325
						C53,55.192,53.151,54.951,53.321,54.725z"/>
				</g>
				<g>
					<path d="M54.679,56.632c-0.34,0.849,0.072,1.813,0.922,2.152c0.851,0.339,1.817-0.072,2.158-0.922
						c0.339-0.852-0.075-1.818-0.926-2.157C55.983,55.364,55.02,55.779,54.679,56.632z"/>
					<circle fill="#FFFFFF" cx="57.317" cy="56.884" r="0.589"/>
					<circle fill="#FFFFFF" cx="55.125" cy="58.017" r="0.359"/>
				</g>
			</g>
		</g>
	</g>
	<g>
		<g>
			<path fill="#441457" d="M22.712,38.633c-0.145-0.197-0.312-0.437-0.454-0.727c-0.167-0.275-0.283-0.607-0.426-0.929
				c-0.114-0.334-0.243-0.668-0.326-0.994c-0.098-0.322-0.17-0.629-0.23-0.893c-0.12-0.532-0.181-0.891-0.181-0.891
				s-0.022,0.363-0.024,0.91c-0.001,0.275,0,0.599,0.022,0.943c0.008,0.348,0.06,0.714,0.098,1.088
				c0.07,0.368,0.114,0.747,0.224,1.092c0.083,0.352,0.207,0.674,0.326,0.95c0.012,0.036,0.03,0.062,0.044,0.095
				c-0.026-0.037-0.047-0.069-0.074-0.108c-0.364-0.503-0.769-1.205-1.208-1.905c-0.188-0.36-0.375-0.72-0.553-1.059
				c-0.192-0.334-0.323-0.677-0.433-0.968c-0.23-0.58-0.381-0.966-0.381-0.966s0.072,0.408,0.181,1.024
				c0.051,0.308,0.111,0.665,0.235,1.041c0.111,0.382,0.229,0.791,0.346,1.198c0.122,0.323,0.238,0.646,0.354,0.957
				c-0.179-0.219-0.361-0.444-0.543-0.669c-0.294-0.323-0.588-0.644-0.866-0.946c-0.266-0.307-0.545-0.556-0.78-0.776
				c-0.47-0.44-0.784-0.733-0.784-0.733s0.251,0.348,0.628,0.87c0.189,0.26,0.417,0.562,0.615,0.906
				c0.207,0.34,0.427,0.699,0.646,1.059c0.391,0.75,0.799,1.474,1.055,2.058c-0.392-0.363-0.866-0.795-1.368-1.207
				c-0.322-0.244-0.632-0.495-0.957-0.688c-0.16-0.1-0.302-0.208-0.46-0.285c-0.152-0.08-0.296-0.153-0.43-0.224
				c-0.261-0.144-0.496-0.208-0.653-0.281c-0.159-0.063-0.25-0.099-0.25-0.099s0.081,0.053,0.224,0.148
				c0.137,0.103,0.357,0.22,0.578,0.409c0.11,0.093,0.229,0.194,0.357,0.298c0.128,0.098,0.245,0.234,0.374,0.357
				c0.26,0.245,0.503,0.547,0.752,0.833c0.477,0.601,0.918,1.232,1.255,1.715c0.026,0.037,0.048,0.068,0.074,0.104
				c-0.205-0.125-0.441-0.213-0.677-0.321c-0.261-0.106-0.517-0.243-0.803-0.315c-0.28-0.084-0.563-0.171-0.847-0.256
				c-0.578-0.117-1.146-0.251-1.688-0.304c-0.54-0.08-1.044-0.108-1.474-0.143c-0.86-0.056-1.432-0.074-1.432-0.074
				s0.565,0.102,1.405,0.279c0.418,0.095,0.907,0.194,1.416,0.348c0.518,0.127,1.042,0.336,1.568,0.522
				c0.25,0.118,0.502,0.235,0.749,0.352c0.252,0.102,0.468,0.263,0.689,0.394c0.213,0.138,0.435,0.248,0.608,0.407
				c0.18,0.145,0.35,0.283,0.507,0.412c0.313,0.25,0.516,0.527,0.684,0.686c0.159,0.169,0.251,0.266,0.251,0.266l0.954-0.917
				c0,0-0.12-0.096-0.331-0.265c-0.203-0.146-0.462-0.389-0.812-0.61l0.716-0.639c0,0-0.062-0.055-0.154-0.141l0.782-0.444
				c0,0-0.06-0.081-0.156-0.212l0.537-0.304c0.004,0.007,0.016,0.026,0.016,0.026l1.008-0.856c0,0-0.053-0.057-0.145-0.156
				C23.004,38.967,22.843,38.847,22.712,38.633z"/>
			<path fill="#441457" d="M24.702,39.187c-0.064-0.102-0.187-0.228-0.283-0.425c-0.108-0.186-0.231-0.412-0.336-0.675
				c-0.123-0.255-0.209-0.55-0.315-0.84c-0.364-1.185-0.569-2.453-0.569-2.453s-0.021,0.318-0.055,0.793
				c-0.032,0.479-0.05,1.12-0.027,1.774c0.027,0.324,0.037,0.654,0.094,0.966c0.037,0.312,0.107,0.603,0.175,0.856
				c0.052,0.254,0.154,0.458,0.204,0.609c0.057,0.146,0.089,0.23,0.089,0.23l1.133-0.683C24.812,39.34,24.772,39.285,24.702,39.187z
				"/>
		</g>
		<g>
			<path fill="#F0D907" d="M23.691,47.19c-2.188-0.373-3.664-2.458-3.29-4.646c0.033-0.193,0.088-0.391,0.17-0.619
				c0.631-1.878,2.517-3.006,4.477-2.671c2.189,0.373,3.665,2.458,3.291,4.647C27.963,46.089,25.881,47.565,23.691,47.19z"/>
			<path fill="#0096E6" d="M23.641,47.483c-2.453-0.419-4.105-2.756-3.686-5.209c0.038-0.216,0.096-0.436,0.19-0.69
				c0.706-2.105,2.819-3.37,5.016-2.993c2.452,0.42,4.105,2.752,3.686,5.205C28.431,46.248,26.094,47.902,23.641,47.483z"/>
			<path fill="#F0D907" d="M23.691,47.19c-2.188-0.373-3.664-2.458-3.29-4.646c0.033-0.193,0.088-0.391,0.17-0.619
				c0.631-1.878,2.517-3.006,4.477-2.671c2.189,0.373,3.665,2.458,3.291,4.647C27.963,46.089,25.881,47.565,23.691,47.19z"/>
			<g>
				<g>
					<circle fill="#FFFFFF" cx="24.265" cy="42.786" r="3.326"/>
					<path fill="#E8E8E8" d="M21.252,41.406c-0.189,1.737,0.988,3.344,2.731,3.641c1.519,0.26,2.962-0.561,3.575-1.901
						c-0.008,0.067-0.001,0.134-0.014,0.201c-0.31,1.81-2.029,3.026-3.839,2.718c-1.812-0.312-3.029-2.029-2.719-3.84
						C21.035,41.934,21.134,41.664,21.252,41.406z"/>
				</g>
				<g>
					<circle cx="24.613" cy="43.266" r="1.657"/>
					<circle fill="#FFFFFF" cx="25.612" cy="42.681" r="0.59"/>
					<circle fill="#FFFFFF" cx="23.705" cy="44.25" r="0.358"/>
				</g>
			</g>
		</g>
	</g>
	<g>
		<g>
			<path fill="#441457" d="M50.477,26.146c-0.127,0.178-0.272,0.384-0.382,0.647c-0.122,0.259-0.253,0.534-0.383,0.812
				c-0.094,0.286-0.188,0.575-0.276,0.845c-0.1,0.271-0.151,0.533-0.194,0.759c-0.035,0.177-0.063,0.319-0.087,0.44l-0.424-3.879
				l-0.444,2.856c-0.039-0.051-0.076-0.105-0.124-0.15c-0.132-0.142-0.265-0.284-0.397-0.427c-0.293-0.252-0.576-0.506-0.869-0.7
				c-0.281-0.212-0.559-0.378-0.791-0.53c-0.47-0.289-0.785-0.48-0.785-0.48s0.262,0.256,0.657,0.642
				c0.189,0.197,0.42,0.418,0.637,0.678c0.233,0.246,0.438,0.538,0.644,0.819c0.085,0.148,0.172,0.297,0.257,0.444
				c0.092,0.141,0.134,0.305,0.201,0.446c0.138,0.28,0.178,0.581,0.249,0.814c0.027,0.077,0.034,0.157,0.042,0.231l-0.052,0.339
				l0.093,0.003c0,0.007,0.002,0.018,0.003,0.025c0.017,0.142,0.028,0.226,0.028,0.226l1.178-0.222h0.02l-0.001-0.003l0.103-0.02
				c0,0-0.034-0.096-0.094-0.263c-0.015-0.041-0.037-0.102-0.056-0.153l-0.042-0.373l1.226,0.007c0,0-0.023-0.272-0.059-0.681
				c-0.022-0.208-0.046-0.452-0.026-0.709c0.008-0.264,0.017-0.545,0.025-0.827c0.042-0.275,0.085-0.549,0.127-0.807
				c0.025-0.265,0.109-0.51,0.182-0.718c0.135-0.417,0.226-0.694,0.226-0.694S50.724,25.786,50.477,26.146z"/>
			<path fill="#441457" d="M54.874,29.607c-0.203,0.065-0.441,0.141-0.689,0.243c-0.256,0.089-0.515,0.224-0.782,0.352
				c-0.13,0.071-0.257,0.155-0.384,0.235c-0.098,0.055-0.182,0.128-0.268,0.199c-0.014-0.068-0.026-0.153-0.016-0.279
				c0.016-0.298,0.232-0.771,0.539-1.218c0.305-0.447,0.672-0.88,0.936-1.212c0.269-0.332,0.429-0.566,0.429-0.566
				s-0.222,0.178-0.57,0.413c-0.347,0.242-0.82,0.547-1.279,0.917c-0.271,0.22-0.534,0.475-0.754,0.752
				c-0.032-0.035-0.086-0.111-0.116-0.31c-0.042-0.295,0.024-0.797,0.182-1.292c0.302-0.997,0.834-1.958,0.834-1.958
				s-0.788,0.74-1.429,1.668c-0.322,0.462-0.596,0.991-0.7,1.499c-0.049,0.254-0.048,0.5-0.021,0.679
				c0.043,0.183,0.068,0.289,0.068,0.289l1.131-0.509c-0.125,0.167-0.238,0.338-0.314,0.52c-0.112,0.249-0.162,0.497-0.176,0.67
				c-0.007,0.177-0.01,0.279-0.01,0.279l1.043-0.153c-0.066,0.059-0.137,0.116-0.193,0.179c-0.09,0.118-0.174,0.23-0.252,0.334
				c-0.173,0.199-0.219,0.44-0.287,0.588c-0.055,0.155-0.087,0.244-0.087,0.244l1.314,0.149c0,0,0.004-0.045,0.012-0.125
				c0.018-0.078-0.029-0.209,0.045-0.356c0.026-0.078,0.055-0.159,0.083-0.25c0.042-0.089,0.106-0.177,0.163-0.274
				c0.102-0.204,0.301-0.38,0.468-0.581c0.196-0.177,0.389-0.371,0.598-0.523c0.2-0.161,0.399-0.301,0.572-0.419
				c0.345-0.239,0.584-0.388,0.584-0.388S55.276,29.479,54.874,29.607z"/>
		</g>
		<g>
			<path fill="#F0D907" d="M49.838,35.733c-1.745-0.034-3.136-1.482-3.102-3.227c0.002-0.154,0.023-0.313,0.06-0.501
				c0.271-1.532,1.604-2.632,3.168-2.6c1.745,0.034,3.136,1.481,3.101,3.227C53.029,34.377,51.584,35.768,49.838,35.733z"/>
			<path fill="#0096E6" d="M49.833,35.966c-1.955-0.039-3.513-1.663-3.475-3.617c0.003-0.174,0.024-0.351,0.067-0.56
				c0.304-1.719,1.798-2.95,3.55-2.914c1.955,0.039,3.513,1.66,3.474,3.614C53.411,34.447,51.789,36.005,49.833,35.966z"/>
			<path fill="#F0D907" d="M49.838,35.733c-1.745-0.034-3.136-1.482-3.102-3.227c0.002-0.154,0.023-0.313,0.06-0.501
				c0.271-1.532,1.604-2.632,3.168-2.6c1.745,0.034,3.136,1.481,3.101,3.227C53.029,34.377,51.584,35.768,49.838,35.733z"/>
			<g>
				<g>
					<circle fill="#FFFFFF" cx="49.768" cy="32.243" r="2.615"/>
					<path fill="#E8E8E8" d="M47.264,31.523c0.055,1.373,1.159,2.483,2.549,2.509c1.211,0.026,2.237-0.784,2.558-1.896
						c0.002,0.054,0.014,0.104,0.012,0.16c-0.029,1.443-1.223,2.589-2.666,2.561c-1.444-0.029-2.593-1.221-2.563-2.666
						C47.158,31.958,47.202,31.738,47.264,31.523z"/>
				</g>
				<g>
					<circle cx="50.095" cy="32.573" r="1.304"/>
					<circle fill="#FFFFFF" cx="50.803" cy="32.003" r="0.463"/>
					<circle fill="#FFFFFF" cx="49.504" cy="33.445" r="0.282"/>
				</g>
			</g>
		</g>
	</g>
	<g>
		<g>
			<path fill="#441457" d="M27.287,50.55c-0.049-0.173-0.107-0.375-0.169-0.59c-0.058-0.221-0.14-0.451-0.187-0.699
				c-0.178-0.994-0.358-1.988-0.358-1.988s-0.152,0.999-0.304,1.998c-0.035,0.25-0.035,0.514-0.053,0.759
				c-0.012,0.25-0.024,0.481-0.033,0.681c-0.006,0.125-0.01,0.231-0.016,0.325L24.3,47.84l0.744,3.043
				c-0.114-0.112-0.226-0.222-0.341-0.334c-0.259-0.23-0.502-0.466-0.763-0.66c-0.244-0.206-0.501-0.375-0.717-0.515
				c-0.208-0.151-0.408-0.219-0.534-0.293c-0.131-0.066-0.206-0.104-0.206-0.104s0.063,0.055,0.174,0.15
				c0.104,0.103,0.285,0.221,0.443,0.415c0.169,0.182,0.359,0.387,0.542,0.64c0.193,0.237,0.369,0.521,0.553,0.79
				c0.12,0.196,0.238,0.391,0.354,0.581c-0.097-0.07-0.189-0.141-0.295-0.209c-0.337-0.244-0.735-0.458-1.12-0.678
				c-0.409-0.187-0.802-0.391-1.207-0.506c-0.199-0.061-0.379-0.144-0.572-0.172c-0.185-0.04-0.362-0.075-0.524-0.109
				c-0.32-0.071-0.591-0.059-0.778-0.085c-0.188-0.014-0.296-0.022-0.296-0.022s0.104,0.03,0.286,0.08
				c0.178,0.06,0.451,0.101,0.744,0.229c0.146,0.061,0.303,0.127,0.471,0.197c0.167,0.058,0.328,0.175,0.5,0.263
				c0.35,0.178,0.681,0.442,1.018,0.68c0.316,0.275,0.635,0.536,0.904,0.823c0.28,0.268,0.517,0.551,0.726,0.785
				c0.409,0.477,0.668,0.809,0.668,0.809l0.481-0.461c0.04,0.057,0.065,0.097,0.065,0.097l0.998-0.87c0,0-0.178-0.16-0.449-0.419
				l0.459-0.163l-0.279-0.479l1.098-0.23C27.446,51.113,27.382,50.888,27.287,50.55z"/>
			<path fill="#441457" d="M31.696,48.141c-0.268,0.316-0.62,0.744-0.945,1.213c-0.153,0.242-0.319,0.48-0.438,0.736
				c-0.046,0.089,0.159,1.111,0.118,1.199c0-0.024-0.254-1.146-0.268-1.43c-0.021-0.155-0.008-0.348,0.017-0.559
				c0.022-0.208,0.035-0.437,0.068-0.661c0.086-0.442,0.151-0.91,0.26-1.251c0.092-0.342,0.155-0.568,0.155-0.568
				s-0.136,0.193-0.341,0.481c-0.217,0.28-0.445,0.698-0.7,1.121c-0.117,0.215-0.214,0.44-0.317,0.649
				c-0.104,0.208-0.193,0.406-0.245,0.601c-0.046,0.154-0.084,0.277-0.116,0.383c-0.023-0.063-0.05-0.133-0.081-0.216
				c-0.06-0.131-0.112-0.303-0.137-0.502c-0.034-0.195-0.076-0.404-0.107-0.622c-0.089-0.871-0.116-1.781-0.116-1.781
				s-0.299,0.839-0.545,1.733c-0.053,0.227-0.092,0.46-0.137,0.68c-0.052,0.218-0.072,0.431-0.067,0.627
				c-0.001,0.392-0.002,0.654-0.002,0.654l1.152-0.315l1.182,1.017c-0.067,0.156-0.032-0.65-0.069-0.5
				c-0.086,0.228-0.089,0.455-0.105,0.61c-0.011,0.157-0.017,0.247-0.017,0.247l1.38,0.635c0,0-0.082-0.876-0.099-0.955
				c-0.015-0.084-0.068-0.199-0.053-0.374c-0.015-0.167,0.001-0.376,0.045-0.611c0.027-0.231,0.109-0.482,0.177-0.738
				c0.159-0.507,0.365-1.016,0.527-1.396c0.16-0.38,0.268-0.634,0.268-0.634S31.962,47.824,31.696,48.141z"/>
		</g>
		<g>
			<path fill="#F0D907" d="M28.047,56.962c-1.746-0.035-3.137-1.481-3.102-3.228c0.003-0.152,0.023-0.313,0.06-0.5
				c0.271-1.534,1.604-2.632,3.168-2.601c1.744,0.034,3.136,1.484,3.101,3.228S29.793,56.996,28.047,56.962z"/>
			<path fill="#0096E6" d="M28.042,57.195c-1.955-0.039-3.513-1.664-3.475-3.62c0.004-0.171,0.025-0.349,0.067-0.558
				c0.304-1.718,1.799-2.948,3.551-2.914c1.954,0.039,3.513,1.66,3.473,3.615C31.62,55.674,29.998,57.234,28.042,57.195z"/>
			<path fill="#F0D907" d="M28.047,56.962c-1.746-0.035-3.137-1.481-3.102-3.228c0.003-0.152,0.023-0.313,0.06-0.5
				c0.271-1.534,1.604-2.632,3.168-2.601c1.744,0.034,3.136,1.484,3.101,3.228S29.793,56.996,28.047,56.962z"/>
			<g>
				<g>
					<path fill="#FFFFFF" d="M25.363,53.418c-0.03,1.445,1.12,2.637,2.563,2.667c1.443,0.028,2.637-1.118,2.666-2.563
						c0.03-1.441-1.118-2.635-2.563-2.665C26.585,50.827,25.391,51.974,25.363,53.418z"/>
					<path fill="#E8E8E8" d="M25.473,52.75c0.056,1.373,1.159,2.485,2.549,2.51c1.211,0.025,2.237-0.782,2.557-1.896
						c0.002,0.055,0.014,0.105,0.012,0.158c-0.029,1.445-1.223,2.592-2.666,2.563c-1.443-0.03-2.593-1.222-2.563-2.667
						C25.367,53.186,25.412,52.965,25.473,52.75z"/>
				</g>
				<g>
					<circle cx="28.304" cy="53.802" r="1.304"/>
					<path fill="#FFFFFF" d="M28.549,53.221c-0.006,0.259,0.199,0.469,0.454,0.474c0.256,0.005,0.467-0.198,0.472-0.452
						c0.004-0.256-0.197-0.468-0.454-0.473C28.765,52.766,28.554,52.969,28.549,53.221z"/>
					<circle fill="#FFFFFF" cx="27.713" cy="54.673" r="0.282"/>
				</g>
			</g>
		</g>
	</g>
	<g>
		<g>
			<path fill="#441457" d="M38.233,46.155c0,0-0.005-0.206-0.008-0.511l0.755,0.336l0.759-3.109l-1.515,1.98
				c0.001-0.212,0.004-0.433,0.01-0.653c0.024-0.234,0.047-0.465,0.068-0.685c0.01-0.225,0.066-0.438,0.126-0.614
				c0.105-0.358,0.174-0.597,0.174-0.597s-0.144,0.202-0.36,0.503c-0.113,0.148-0.234,0.324-0.327,0.549
				c-0.103,0.215-0.22,0.453-0.327,0.696c-0.142,0.373-0.273,0.74-0.38,1.055c-0.047-0.339-0.098-0.741-0.137-1.146
				c-0.009-0.243-0.019-0.488-0.028-0.717c-0.02-0.232,0.006-0.457,0.024-0.646c0.035-0.38,0.057-0.633,0.057-0.633
				s-0.103,0.233-0.257,0.581c-0.177,0.338-0.295,0.841-0.455,1.359c-0.059,0.248-0.111,0.496-0.16,0.728l-0.491-2.783l-0.492,2.79
				c-0.098-0.231-0.197-0.474-0.292-0.729c-0.064-0.217-0.153-0.442-0.188-0.652c-0.055-0.216-0.078-0.409-0.088-0.581
				c-0.028-0.176,0.013-0.33,0.019-0.434c0.012-0.106,0.018-0.167,0.018-0.167s-0.026,0.056-0.073,0.151
				c-0.041,0.098-0.129,0.221-0.167,0.409c-0.058,0.184-0.107,0.408-0.128,0.639c-0.041,0.24-0.032,0.486-0.047,0.742
				c0.001,0.131-0.035,0.247-0.078,0.357c-0.147-0.169-0.297-0.335-0.437-0.493c-0.162-0.201-0.346-0.336-0.497-0.466
				c-0.303-0.258-0.506-0.428-0.506-0.428s0.14,0.224,0.348,0.561c0.102,0.171,0.238,0.363,0.322,0.588
				c0.095,0.216,0.195,0.447,0.295,0.675c0.062,0.242,0.123,0.483,0.182,0.708c0.023,0.112,0.068,0.211,0.067,0.321
				c0.001,0.034,0.004,0.064,0.008,0.098c-0.124-0.098-0.252-0.189-0.39-0.271c-0.316-0.188-0.671-0.309-1.022-0.405
				c-0.709-0.17-1.418-0.175-1.932-0.095c-0.52,0.073-0.831,0.207-0.831,0.207s0.343-0.052,0.835,0.001
				c0.494,0.044,1.14,0.216,1.697,0.509s0.986,0.723,1.122,1.072c0.083,0.169,0.104,0.313,0.112,0.414
				c0.007,0.099,0.011,0.154,0.011,0.154l1.307-0.211c0,0-0.037-0.107-0.101-0.294c-0.04-0.104-0.106-0.239-0.19-0.38l0.746-0.12
				c0,0-0.11-0.27-0.273-0.677c-0.003-0.006-0.007-0.015-0.009-0.021l0.613-0.147c0,0-0.014-0.029-0.033-0.073h0.375
				c-0.036,0.206-0.057,0.334-0.057,0.334l0.919,0.009l-0.003,0.008L38.233,46.155z"/>
			<path fill="#441457" d="M39.441,45.869c-0.173,0.154-0.347,0.308-0.509,0.453c-0.173,0.139-0.304,0.306-0.421,0.447
				c-0.236,0.289-0.395,0.482-0.395,0.482l1.202,0.555c0,0,0.06-0.185,0.151-0.462c0.044-0.143,0.092-0.315,0.191-0.487
				c0.09-0.176,0.187-0.364,0.281-0.554c0.468-0.751,0.934-1.5,0.934-1.5S40.158,45.336,39.441,45.869z"/>
		</g>
		<g>
			<path fill="#F0D907" d="M36.497,51.828c-1.744-0.035-3.136-1.482-3.102-3.227c0.002-0.154,0.024-0.313,0.06-0.5
				c0.272-1.534,1.604-2.632,3.168-2.602c1.744,0.034,3.136,1.483,3.101,3.229C39.689,50.472,38.244,51.862,36.497,51.828z"/>
			<path fill="#0096E6" d="M36.493,52.061c-1.956-0.038-3.514-1.662-3.475-3.618c0.004-0.172,0.025-0.35,0.067-0.56
				c0.303-1.718,1.798-2.948,3.549-2.914c1.955,0.04,3.515,1.663,3.475,3.616C40.07,50.541,38.448,52.101,36.493,52.061z"/>
			<path fill="#F0D907" d="M36.497,51.828c-1.744-0.035-3.136-1.482-3.102-3.227c0.002-0.154,0.024-0.313,0.06-0.5
				c0.272-1.534,1.604-2.632,3.168-2.602c1.744,0.034,3.136,1.483,3.101,3.229C39.689,50.472,38.244,51.862,36.497,51.828z"/>
			<g>
				<g>
					<circle fill="#FFFFFF" cx="36.428" cy="48.337" r="2.616"/>
					<path fill="#E8E8E8" d="M33.924,47.618c0.056,1.371,1.158,2.483,2.549,2.51c1.211,0.024,2.237-0.784,2.557-1.897
						c0.001,0.055,0.014,0.105,0.013,0.159c-0.03,1.444-1.223,2.591-2.667,2.562c-1.443-0.028-2.592-1.22-2.563-2.666
						C33.817,48.051,33.862,47.831,33.924,47.618z"/>
				</g>
				<g>
					<path d="M35.452,48.642c-0.015,0.721,0.557,1.315,1.275,1.329c0.72,0.015,1.316-0.558,1.332-1.276
						c0.013-0.721-0.56-1.316-1.279-1.33C36.061,47.349,35.465,47.922,35.452,48.642z"/>
					<path fill="#FFFFFF" d="M37,48.086c-0.005,0.258,0.199,0.469,0.454,0.475c0.255,0.004,0.467-0.197,0.473-0.453
						c0.004-0.255-0.197-0.466-0.455-0.471C37.216,47.632,37.005,47.833,37,48.086z"/>
					<circle fill="#FFFFFF" cx="36.164" cy="49.539" r="0.283"/>
				</g>
			</g>
		</g>
	</g>
	<g>
		<path fill="#F0D907" d="M44.927,59.182c-1.744-0.034-3.136-1.482-3.102-3.227c0.003-0.154,0.022-0.313,0.06-0.501
			c0.271-1.532,1.604-2.632,3.167-2.601c1.745,0.035,3.136,1.483,3.101,3.228C48.119,57.827,46.673,59.217,44.927,59.182z"/>
		<path fill="#0096E6" d="M44.922,59.416c-1.956-0.04-3.514-1.663-3.475-3.618c0.003-0.173,0.024-0.351,0.067-0.56
			c0.304-1.719,1.798-2.949,3.55-2.914c1.955,0.039,3.513,1.66,3.474,3.614C48.5,57.896,46.877,59.454,44.922,59.416z"/>
		<path fill="#F0D907" d="M44.927,59.182c-1.744-0.034-3.136-1.482-3.102-3.227c0.003-0.154,0.022-0.313,0.06-0.501
			c0.271-1.532,1.604-2.632,3.167-2.601c1.745,0.035,3.136,1.483,3.101,3.228C48.119,57.827,46.673,59.217,44.927,59.182z"/>
		<g>
			<g>
				<circle fill="#FFFFFF" cx="44.857" cy="55.691" r="2.615"/>
				<path fill="#E8E8E8" d="M42.354,54.973c0.055,1.371,1.159,2.481,2.549,2.508c1.211,0.026,2.237-0.782,2.557-1.895
					c0.001,0.053,0.013,0.104,0.012,0.158c-0.029,1.443-1.223,2.59-2.666,2.561c-1.444-0.029-2.592-1.222-2.564-2.666
					C42.247,55.406,42.291,55.187,42.354,54.973z"/>
			</g>
			<g>
				<circle cx="45.185" cy="56.023" r="1.303"/>
				<circle fill="#FFFFFF" cx="45.892" cy="55.453" r="0.463"/>
				<circle fill="#FFFFFF" cx="44.593" cy="56.894" r="0.282"/>
			</g>
		</g>
	</g>
	<g>
		<g>
			<path fill="#441457" d="M46.872,40.45l1.154-0.114c0,0-0.243-0.798-0.485-1.599c-0.086-0.383-0.204-0.787-0.224-1.106
				c-0.038-0.313-0.063-0.522-0.063-0.522s-0.058,0.202-0.143,0.506c-0.104,0.297-0.154,0.721-0.23,1.164
				c-0.056,0.544-0.11,1.084-0.143,1.401c-0.012-0.024-0.022-0.045-0.036-0.071c-0.164-0.332-0.373-0.772-0.551-1.223
				c-0.166-0.446-0.322-0.921-0.353-1.271c-0.038-0.179-0.021-0.339-0.022-0.448c0.001-0.11,0.002-0.172,0.002-0.172
				s-0.021,0.059-0.059,0.162c-0.033,0.104-0.1,0.244-0.127,0.438c-0.097,0.39-0.101,0.901-0.089,1.423
				c0.018,0.397,0.056,0.792,0.095,1.124c-0.102-0.203-0.212-0.413-0.32-0.619c-0.21-0.414-0.418-0.835-0.51-1.158
				c-0.065-0.161-0.075-0.315-0.099-0.415c-0.018-0.103-0.029-0.161-0.029-0.161s-0.01,0.058-0.027,0.161
				c-0.012,0.103-0.056,0.245-0.051,0.43c-0.029,0.378,0.026,0.858,0.083,1.339c0.063,0.473,0.124,0.937,0.137,1.263
				c0,0.019,0,0.035,0,0.052c-0.237-0.263-0.522-0.577-0.816-0.901c-0.318-0.371-0.636-0.765-0.794-1.081
				c-0.1-0.155-0.146-0.31-0.179-0.415c-0.037-0.106-0.057-0.166-0.057-0.166s0,0.063,0,0.173c-0.001,0.112-0.009,0.268,0.036,0.462
				c0.058,0.404,0.237,0.887,0.429,1.372c0.038,0.085,0.073,0.167,0.109,0.251c-0.439-0.277-0.88-0.519-1.217-0.69
				c-0.364-0.19-0.606-0.318-0.606-0.318s0.194,0.195,0.483,0.484c0.292,0.289,0.672,0.679,1.009,1.083
				c0.152,0.214,0.32,0.411,0.426,0.619c0.13,0.194,0.204,0.389,0.269,0.551c0.08,0.157,0.074,0.302,0.104,0.391
				c0.022,0.091,0.033,0.143,0.033,0.143l1.26-0.407c0,0-0.041-0.071-0.113-0.197c-0.076-0.112-0.154-0.29-0.295-0.456l0.465-0.266
				c0,0-0.066-0.083-0.17-0.204l0.934-0.117c0,0-0.043-0.148-0.127-0.372l1.013-0.305C46.978,40.666,46.937,40.581,46.872,40.45z"/>
			<path fill="#441457" d="M54.55,39.353c-0.403,0.271-0.904,0.609-1.432,0.963c0.007-0.024,0.016-0.049,0.022-0.075
				c0.521-1.566,1.042-3.132,1.042-3.132s-1.04,1.291-2.081,2.581c-0.117,0.152-0.233,0.304-0.348,0.455
				c0.063-0.296,0.13-0.614,0.19-0.937c0.135-0.717,0.22-1.463,0.159-2.019c-0.021-0.272-0.082-0.514-0.133-0.652
				c-0.059-0.143-0.092-0.225-0.092-0.225s0,0.088-0.002,0.243c-0.008,0.161-0.039,0.356-0.117,0.601
				c-0.146,0.484-0.475,1.076-0.85,1.646c-0.259,0.4-0.526,0.78-0.775,1.143c0.012-0.187,0.026-0.379,0.04-0.57
				c0.066-0.793,0.132-1.583,0.182-2.18c0.049-0.596,0.063-0.996,0.063-0.996s-0.167,0.361-0.442,0.888
				c-0.242,0.466-0.557,1.074-0.879,1.694c-0.003-0.027-0.005-0.05-0.007-0.079c-0.01-0.179-0.035-0.369-0.034-0.569
				c0.007-0.797,0.013-1.595,0.013-1.595s-0.33,0.726-0.659,1.454c-0.083,0.18-0.145,0.381-0.213,0.564
				c-0.067,0.187-0.128,0.36-0.181,0.509c-0.105,0.306-0.176,0.509-0.176,0.509l0.838,0.039c-0.256,0.52-0.499,1.027-0.669,1.492
				c-0.058,0.166-0.11,0.314-0.146,0.502c-0.02,0.08-0.031,0.202-0.037,0.313c0.001,0.079,0.006,0.156,0.013,0.229
				c0.011,0.095,0.065,0.276,0.119,0.39l0.021,0.047l0.061,0.095c0.043,0.064,0.094,0.127,0.147,0.182
				c0.112,0.112,0.228,0.201,0.358,0.265c0.144,0.067,0.309,0.11,0.467,0.123c0.152,0.016,0.334-0.01,0.364-0.02
				c0.255-0.05,0.49-0.19,0.509-0.207c0.136-0.084,0.202-0.137,0.202-0.137l-1.679-1.867c0,0,0.028-0.027,0.09-0.053
				c-0.014,0.017,0.166-0.106,0.361-0.13c0.015,0,0.178-0.033,0.313-0.02c0.125,0.01,0.252,0.046,0.364,0.098
				c-0.027,0.057-0.059,0.116-0.081,0.166c-0.083,0.216-0.123,0.357-0.123,0.357l0.77,0.104c0.008,0.093,0.018,0.179,0.035,0.218
				c0.006,0.039,0.024,0.029,0.03,0.019c0.004-0.026,0.006-0.055,0.003-0.082c-0.001-0.03-0.016-0.088-0.035-0.15l0.486,0.066
				c-0.35,0.456-0.584,0.761-0.584,0.761l0.385,0.17c-0.082,0.089-0.159,0.178-0.218,0.282c-0.091,0.154-0.17,0.291-0.237,0.4
				c-0.126,0.232-0.2,0.365-0.2,0.365l2.412,0.678c0,0,0.01-0.069,0.027-0.187c0.008-0.063,0.016-0.141,0.027-0.23
				c0-0.09,0.068-0.208,0.106-0.333c0.052-0.125,0.086-0.264,0.165-0.415c0.081-0.151,0.166-0.31,0.255-0.475
				c0.081-0.169,0.202-0.336,0.311-0.511c0.117-0.173,0.222-0.355,0.352-0.53c0.512-0.717,1.023-1.433,1.406-1.971
				c0.375-0.546,0.601-0.922,0.601-0.922S55.088,38.975,54.55,39.353z"/>
		</g>
		<g>
			<path fill="#F0D907" d="M46.723,49.6c-2.57-1.028-3.825-3.957-2.798-6.526c0.092-0.227,0.211-0.452,0.37-0.711
				c1.26-2.124,3.854-3.009,6.158-2.088c2.571,1.027,3.825,3.957,2.796,6.526C52.221,49.372,49.295,50.628,46.723,49.6z"/>
			<path fill="#0096E6" d="M46.585,49.942c-2.88-1.151-4.285-4.433-3.132-7.314c0.101-0.254,0.229-0.507,0.412-0.794
				c1.41-2.381,4.318-3.373,6.899-2.339c2.881,1.153,4.287,4.432,3.134,7.312C52.748,49.688,49.466,51.096,46.585,49.942z"/>
			<path fill="#F0D907" d="M46.723,49.6c-2.57-1.028-3.825-3.957-2.798-6.526c0.092-0.227,0.211-0.452,0.37-0.711
				c1.26-2.124,3.854-3.009,6.158-2.088c2.571,1.027,3.825,3.957,2.796,6.526C52.221,49.372,49.295,50.628,46.723,49.6z"/>
			<g>
				<g>
					<circle fill="#FFFFFF" cx="48.573" cy="44.378" r="4.149"/>
					<path fill="#E8E8E8" d="M45.259,41.909c-0.685,2.066,0.332,4.333,2.38,5.152c1.784,0.713,3.759,0.088,4.856-1.385
						c-0.026,0.082-0.038,0.163-0.069,0.243c-0.852,2.126-3.266,3.16-5.391,2.311c-2.127-0.851-3.165-3.265-2.313-5.394
						C44.858,42.494,45.048,42.192,45.259,41.909z"/>
				</g>
				<g>
					<path d="M46.953,44.286c-0.424,1.06,0.09,2.261,1.15,2.686c1.062,0.423,2.265-0.092,2.689-1.15
						c0.424-1.063-0.093-2.268-1.153-2.691C48.58,42.708,47.377,43.225,46.953,44.286z"/>
					<circle fill="#FFFFFF" cx="50.243" cy="44.602" r="0.735"/>
					<circle fill="#FFFFFF" cx="47.508" cy="46.015" r="0.448"/>
				</g>
			</g>
		</g>
	</g>
	<g>
		<path fill="#F0D907" d="M34.569,41.394c-5.198,0-9.427-4.23-9.427-9.428c0-0.46,0.048-0.935,0.147-1.493
			c0.717-4.582,4.621-7.935,9.279-7.935c5.199,0,9.425,4.231,9.425,9.428C43.995,37.164,39.769,41.394,34.569,41.394z"/>
		<path fill="#0096E6" d="M34.569,42.088c-5.826,0-10.563-4.743-10.563-10.568c0-0.515,0.05-1.046,0.166-1.672
			c0.801-5.133,5.179-8.89,10.397-8.89c5.825,0,10.563,4.739,10.563,10.562C45.132,37.345,40.394,42.088,34.569,42.088z"/>
		<path fill="#F0D907" d="M34.569,41.394c-5.198,0-9.427-4.23-9.427-9.428c0-0.46,0.048-0.935,0.147-1.493
			c0.717-4.582,4.621-7.935,9.279-7.935c5.199,0,9.425,4.231,9.425,9.428C43.995,37.164,39.769,41.394,34.569,41.394z"/>
		<g>
			<g>
				<ellipse fill="#FFFFFF" cx="34.155" cy="31.001" rx="7.789" ry="7.784"/>
				<path fill="#E8E8E8" d="M26.658,29.009c0.244,4.08,3.598,7.32,7.738,7.32c3.609,0,6.616-2.467,7.5-5.798
					c0.011,0.159,0.048,0.31,0.048,0.471c0,4.3-3.487,7.784-7.789,7.784c-4.303,0-7.79-3.484-7.79-7.784
					C26.365,30.306,26.485,29.648,26.658,29.009z"/>
			</g>
			<g>
				<path d="M31.267,31.969c0,2.144,1.734,3.881,3.876,3.881c2.146,0,3.885-1.737,3.885-3.881c0-2.145-1.74-3.885-3.885-3.885
					C33.001,28.083,31.267,29.824,31.267,31.969z"/>
				<path fill="#FFFFFF" d="M35.842,30.226c0,0.763,0.618,1.382,1.38,1.382c0.764,0,1.379-0.619,1.379-1.382
					c0-0.759-0.615-1.377-1.379-1.377C36.459,28.849,35.842,29.467,35.842,30.226z"/>
				<path fill="#FFFFFF" d="M32.599,34.598c0,0.466,0.375,0.842,0.837,0.842c0.467,0,0.846-0.376,0.846-0.842
					c0-0.463-0.378-0.843-0.846-0.843C32.975,33.755,32.599,34.135,32.599,34.598z"/>
			</g>
		</g>
	</g>
</g>
</svg>
