<svg width="300" height="300" xmlns="http://www.w3.org/2000/svg">
 <g>
  <title>background</title>
 
 </g>
 <g>
  <title>background</title>
 
 </g>
 <style type="text/css">.st0{display:none;}
	.st1{display:inline;}
	.st2{fill:#3C3C3C;}
	.st3{fill:#C62E22;}
	.st4{fill:#76896D;}
	.st5{fill:#9B482F;}
	.st6{fill:#839A78;}
	.st7{fill:#012100;}
	.st8{fill:#EADE47;}
	.st9{fill:#A9E867;}
	.st10{fill:#200A65;}
	.st11{fill:#160087;}
	.st12{fill:#3333CC;}
	.st13{clip-path:url(#SVGID_2_);fill:#350D02;}
	.st14{clip-path:url(#SVGID_2_);fill:#FFF7F3;}
	.st15{fill:#EC6418;}
	.st16{fill:#CE5417;}
	.st17{fill:#EDEDED;}
	.st18{font-family:'Chiller-Regular';}
	.st19{font-size:58.2417px;}
	.st20{fill:none;}
	.st21{font-size:60px;}
	.st22{display:inline;fill:none;}
	.st23{fill:#9BB28E;}
	.st24{fill:#727272;}
	.st25{fill:#59401D;}
	.st26{fill:#8C8C8C;}
	.st27{fill:#9B9B9B;}
	.st28{fill:#2D2D2D;}
	.st29{clip-path:url(#SVGID_4_);}
	.st30{fill:#C19F9F;}
	.st31{fill:#FFFFFF;}
	.st32{clip-path:url(#SVGID_4_);fill:#331818;}
	.st33{fill:#B39493;}
	.st34{fill:#3B3B3B;}
	.st35{fill:#A87E7E;}
	.st36{fill:#4C3131;}
	.st37{fill:#331818;}
	.st38{fill:#B5B491;}
	.st39{fill:#969696;}
	.st40{fill:#7C6665;}
	.st41{fill:#967E7C;}
	.st42{fill:#C8C8A6;}
	.st43{fill:#BC9B9B;}
	.st44{fill:#5C3C3C;}
    #Insta {
    animation : fade1 3s ease-in-out ;
    transform-origin:50% 50%
    }
    @keyframes fade1{
    0%,10%{
    visibility : hidden;
    transform : scale(.5)
    }
    20%,30%{
     visibility : visible;
    transform : scale(1)
    }
    40%,100%{
     visibility : visible;
    transform : scale(1)
    }
    }
    #twitter {
    animation : fade2 3s ease-in-out ;
    transform-origin:50% 50%
    }
    @keyframes fade2{
    0%,20%{
    visibility : hidden;
    transform : scale(.5)
    }
    30%,40%{
     visibility : visible;
    transform : scale(1)
    }
    50%,100%{
     visibility : visible;
    transform : scale(1)
    }
    }
    #facebook{
    animation : fade3 3s ease-in-out ;
    transform-origin:50% 50%
    }
    @keyframes fade3{
    0%,30%{
    visibility : hidden;
    transform : scale(.5)
    }
    40%,50%{
     visibility : visible;
    transform : scale(1)
    }
    60%,100%{
     visibility : visible;
    transform : scale(1)
    }
    }
    {
    animation : thumbs 3s ease-in-out infinite;
    
    }
    
   
     @keyframes thumbs{
    0%,49%{
    visibility : visible
    }
   
    50%,100%{
    visibility : hidden
    }
    
    }
    #mon1-arm-2 ,#mon2-arm-2{
     animation : thumbs1 3s ease-in-out infinite;
    }
     @keyframes thumbs1{
    0%,51%{
    visibility : hidden
    }
   
    52%,100%{
    visibility : visible
    }
    
    }
    #small-opened-eyes ,#big-opened-eyes ,#small-opened-eyes_1_ ,#big-opened-eyes_1_{
    animation : blink3 3s ease-in-out infinite
    }
    @keyframes blink3{
    0%,50%{
    visibility : visible
    }
    55%,60%{
    visibility : hidden
    }
    65%,80%{
    visibility : visible
    }
    85%,90%{
    visibility : hidden
    }
    95%,100%{
    visibility : visible
    }
    }

	 #arm1 {
	   
    animation-name: b;
    animation-duration: 3s;

    animation-timing-function: linear;
    animation-iteration-count: infinite;
   
    transform-origin: top left ;
    transform-box: fill-box;

   }
   @keyframes b {
 0%{transform: rotateZ(10deg);}
 50%{transform: rotateZ(10deg);}
 100%{transform: rotateZ(-7deg);}
   }

  #mon1-arm-2 ,#mon2-arm-2 {
	   
    animation-name: bb;
    animation-duration: 3s;

    animation-timing-function: linear;
    animation-iteration-count: infinite;
   
    transform-origin: top left ;
    transform-box: fill-box;

   }
   @keyframes bb {
 0%{transform: rotateZ(10deg);}
 50%{transform: rotateZ(10deg);}
 100%{transform: rotateZ(-7deg);}
   }</style>
 <g>
  <title>Layer 1</title>
  <g stroke="null" id="moster1">
   <g stroke="null" id="svg_191">
    <path stroke="null" class="st38" d="m155.84293,76.41177c0,0 25.59339,56.3839 24.90697,59.03149s-11.66902,7.84472 -13.82631,4.70683c-2.1573,-3.03983 -21.86715,-58.93343 -21.86715,-58.93343l10.78649,-4.80489z" id="svg_192"/>
    <g stroke="null" id="svg_193">
     <g stroke="null" id="svg_194">
      <polygon stroke="null" class="st39" points="202.81312561035156,200.65243530273438 191.24217224121094,205.4573516845703 170.3556671142578,147.40643310546875 181.8285675048828,142.60153198242188 " id="svg_195"/>
      <path stroke="null" class="st39" d="m202.42093,202.80976l-20.59238,8.62919c-0.58835,0.19612 -1.17671,0 -1.37283,-0.58835l20.39626,-12.55155c0.58835,-0.19612 1.17671,0 1.37283,0.58835l0.88253,2.45147c0.09806,0.58835 -0.19612,1.17671 -0.68641,1.47088z" id="svg_196"/>
     </g>
     <polygon stroke="null" class="st39" points="178.59259033203125,148.77923583984375 176.63137817382812,149.56375122070312 173.10130310058594,139.75784301757812 175.06246948242188,138.97335815429688 " id="svg_197"/>
    </g>
   </g>
   <g stroke="null" id="svg_198">
    <path stroke="null" class="st40" d="m116.42323,248.60329l-0.49029,43.14594c0,0 23.63221,3.13789 25.49533,-1.17671c1.86312,-4.41265 -7.6486,-6.37383 -7.6486,-6.37383l-0.09806,-33.24199l-17.25838,-2.35341" id="svg_199"/>
    <g stroke="null" id="svg_200">
     <path stroke="null" class="st40" d="m139.27097,248.60329l-0.49029,43.14594c0,0 23.63221,3.13789 25.49533,-1.17671c1.86312,-4.41265 -7.6486,-6.37383 -7.6486,-6.37383l-0.09806,-33.24199l-17.25838,-2.35341" id="svg_201"/>
     <g stroke="null" id="svg_202">
      <rect stroke="null" x="116.42323" y="176.33384" class="st38" width="17.35644" height="75.99569" id="svg_203"/>
      <rect stroke="null" x="139.17291" y="176.33384" class="st38" width="17.35644" height="75.99569" id="svg_204"/>
      <g stroke="null" id="svg_205">
       <path stroke="null" class="st38" d="m138.68261,188.59121l-4.02042,0c-10.29619,0 -18.6312,-8.43307 -18.6312,-18.6312l0,-78.05493c0,-10.29619 8.43307,-18.6312 18.6312,-18.6312l4.02042,0c10.29619,0 18.6312,8.43307 18.6312,18.6312l0,78.05493c0,10.19813 -8.43307,18.6312 -18.6312,18.6312z" id="svg_206"/>
       <polygon stroke="null" class="st41" points="124.36601257324219,116.0275650024414 115.63874816894531,116.71399688720703 114.06982421875,92.7876205444336 122.79706573486328,92.10121154785156 " id="svg_207"/>
       <polygon stroke="null" class="st41" points="131.91653442382812,118.18486022949219 124.56211853027344,118.77320098876953 122.99317169189453,94.94490814208984 130.2495574951172,94.3565444946289 " id="svg_208"/>
       <polygon stroke="null" class="st41" points="138.1923065185547,113.87025451660156 130.93594360351562,114.45860290527344 129.3669891357422,90.53226470947266 136.62338256835938,89.94390106201172 " id="svg_209"/>
       <polygon stroke="null" class="st41" points="145.1544952392578,118.18486022949219 137.80007934570312,118.77320098876953 136.2311248779297,94.94490814208984 143.48748779296875,94.3565444946289 " id="svg_210"/>
       <polygon stroke="null" class="st41" points="150.44970703125,110.53626251220703 143.0952606201172,111.1246337890625 141.52630615234375,87.29631042480469 148.88072204589844,86.70796203613281 " id="svg_211"/>
       <polygon stroke="null" class="st41" points="159.373046875,117.10620880126953 150.44970703125,117.7926254272461 148.88072204589844,93.96431732177734 157.8041229248047,93.27791595458984 " id="svg_212"/>
       <polygon stroke="null" class="st41" points="124.36601257324219,132.8937225341797 115.63874816894531,133.5801239013672 114.06982421875,109.75180053710938 122.79706573486328,109.06539154052734 " id="svg_213"/>
       <polygon stroke="null" class="st41" points="131.91653442382812,135.14906311035156 124.56211853027344,135.73743438720703 122.99317169189453,111.8110580444336 130.2495574951172,111.22268676757812 " id="svg_214"/>
       <polygon stroke="null" class="st41" points="138.1923065185547,130.73641204833984 130.93594360351562,131.32477569580078 129.3669891357422,107.49644470214844 136.62338256835938,106.90809631347656 " id="svg_215"/>
       <polygon stroke="null" class="st41" points="145.1544952392578,135.14906311035156 137.80007934570312,135.73743438720703 136.2311248779297,111.8110580444336 143.48748779296875,111.22268676757812 " id="svg_216"/>
       <polygon stroke="null" class="st41" points="150.44970703125,127.50048828125 143.0952606201172,128.08881378173828 141.52630615234375,104.16243743896484 148.88072204589844,103.57411193847656 " id="svg_217"/>
       <polygon stroke="null" class="st41" points="159.373046875,134.07040405273438 150.44970703125,134.75682067871094 148.88072204589844,110.8304672241211 157.8041229248047,110.14404296875 " id="svg_218"/>
       <polygon stroke="null" class="st41" points="124.36601257324219,147.40643310546875 115.63874816894531,148.09286499023438 114.06982421875,124.16645812988281 122.79706573486328,123.48005676269531 " id="svg_219"/>
       <polygon stroke="null" class="st41" points="131.91653442382812,149.66177368164062 124.56211853027344,150.15208435058594 122.99317169189453,126.3237533569336 130.2495574951172,125.73539733886719 " id="svg_220"/>
       <polygon stroke="null" class="st41" points="138.1923065185547,145.24913024902344 130.93594360351562,145.83749389648438 129.3669891357422,121.9111099243164 136.62338256835938,121.4207992553711 " id="svg_221"/>
       <polygon stroke="null" class="st41" points="150.44970703125,142.01319885253906 143.0952606201172,142.50347900390625 141.52630615234375,118.6751708984375 148.88072204589844,118.08682250976562 " id="svg_222"/>
       <polygon stroke="null" class="st41" points="159.373046875,148.48507690429688 150.44970703125,149.17147827148438 148.88072204589844,125.34317779541016 157.8041229248047,124.65673828125 " id="svg_223"/>
       <polygon stroke="null" class="st41" points="158.09828186035156,95.53327178955078 149.07684326171875,96.21968078613281 147.5079345703125,72.391357421875 156.52931213378906,71.70494079589844 " id="svg_224"/>
       <polygon stroke="null" class="st41" points="124.36601257324219,140.83645629882812 115.54070281982422,141.5229034423828 113.97175598144531,117.694580078125 122.6989974975586,117.00817108154297 " id="svg_225"/>
       <polygon stroke="null" class="st41" points="131.8184814453125,143.0918426513672 124.46405029296875,143.68019104003906 122.89512634277344,119.75379943847656 130.2495574951172,119.26349639892578 " id="svg_226"/>
       <polygon stroke="null" class="st41" points="138.1923065185547,138.77725219726562 130.83787536621094,139.26754760742188 129.2689666748047,115.43921661376953 136.52532958984375,114.85084533691406 " id="svg_227"/>
       <polygon stroke="null" class="st41" points="145.05642700195312,143.0918426513672 137.70201110839844,143.68019104003906 136.1331024169922,119.75379943847656 143.48748779296875,119.26349639892578 " id="svg_228"/>
       <polygon stroke="null" class="st41" points="150.3516082763672,135.44322204589844 143.0952606201172,136.03160095214844 141.4282684326172,112.10521697998047 148.78268432617188,111.61491394042969 " id="svg_229"/>
       <polygon stroke="null" class="st41" points="159.27500915527344,142.01319885253906 150.44970703125,142.69960021972656 148.78268432617188,118.77320098876953 157.70603942871094,118.08682250976562 " id="svg_230"/>
       <polygon stroke="null" class="st41" points="124.36601257324219,157.80068969726562 115.54070281982422,158.48707580566406 113.97175598144531,134.5607147216797 122.6989974975586,133.8743133544922 " id="svg_231"/>
       <polygon stroke="null" class="st41" points="131.8184814453125,159.9579620361328 124.46405029296875,160.54632568359375 122.89512634277344,136.718017578125 130.2495574951172,136.12966918945312 " id="svg_232"/>
       <polygon stroke="null" class="st41" points="138.1923065185547,155.64337158203125 130.83787536621094,156.2317352294922 129.2689666748047,132.30535125732422 136.52532958984375,131.71700286865234 " id="svg_233"/>
       <polygon stroke="null" class="st41" points="145.05642700195312,159.9579620361328 137.70201110839844,160.54632568359375 136.1331024169922,136.718017578125 143.48748779296875,136.12966918945312 " id="svg_234"/>
       <polygon stroke="null" class="st41" points="150.3516082763672,152.30938720703125 143.0952606201172,152.89773559570312 141.4282684326172,129.06939697265625 148.78268432617188,128.4810791015625 " id="svg_235"/>
       <polygon stroke="null" class="st41" points="159.27500915527344,158.8793487548828 150.44970703125,159.56573486328125 148.78268432617188,135.73743438720703 157.70603942871094,135.05101013183594 " id="svg_236"/>
       <polygon stroke="null" class="st41" points="124.36601257324219,172.21534729003906 115.54070281982422,172.90176391601562 113.97175598144531,149.07345581054688 122.6989974975586,148.38702392578125 " id="svg_237"/>
       <polygon stroke="null" class="st41" points="131.8184814453125,174.47071838378906 124.46405029296875,175.05906677246094 122.89512634277344,151.13265991210938 130.2495574951172,150.64236450195312 " id="svg_238"/>
       <polygon stroke="null" class="st41" points="138.1923065185547,170.1561279296875 130.83787536621094,170.6464080810547 129.2689666748047,146.8180694580078 136.52532958984375,146.22972106933594 " id="svg_239"/>
       <polygon stroke="null" class="st41" points="150.3516082763672,166.8220977783203 143.0952606201172,167.4104461669922 141.4282684326172,143.4840850830078 148.78268432617188,142.9937744140625 " id="svg_240"/>
       <polygon stroke="null" class="st41" points="159.27500915527344,173.39205932617188 150.44970703125,174.07847595214844 148.78268432617188,150.15208435058594 157.70603942871094,149.46566772460938 " id="svg_241"/>
       <polygon stroke="null" class="st41" points="158.0001983642578,120.44022369384766 148.97882080078125,121.12665557861328 147.4098358154297,97.20027160644531 156.4312744140625,96.51385498046875 " id="svg_242"/>
      </g>
     </g>
    </g>
   </g>
   <polygon stroke="null" class="st41" points="145.1544952392578,149.66177368164062 137.80007934570312,150.15208435058594 136.2311248779297,126.3237533569336 143.48748779296875,125.73539733886719 " id="svg_243"/>
   <g stroke="null" id="mon2-arm-2">
    <path stroke="null" class="st38" d="m120.34559,78.37295c0,0 -14.51273,40.00805 -0.09806,53.14795s30.88857,8.04083 30.88857,8.04083l-3.62818,-15.78749l-21.08268,-3.72624l2.25536,-29.22157l-8.33501,-12.45349z" id="svg_244"/>
    <path stroke="null" class="st38" d="m142.80109,123.67618c0,0 -10.29619,-18.33702 -6.37383,-17.45449c3.92236,0.98059 11.4729,14.21855 11.4729,14.21855s8.33501,-10.39425 11.4729,-7.25636c3.13789,3.13789 15.68943,20.69044 8.33501,23.92639c-7.35442,3.23595 -17.55255,2.54953 -17.55255,2.54953l-7.35442,-15.98361z" id="svg_245"/>
   </g>
   <g stroke="null" id="svg_246">
    <path stroke="null" class="st38" d="m138.58455,88.86525l-1.47088,0c-3.62818,0 -6.66801,-3.03983 -6.66801,-6.66801l0,-21.47491c0,-3.62818 3.03983,-6.66801 6.66801,-6.66801l1.47088,0c3.62818,0 6.66801,3.03983 6.66801,6.66801l0,21.47491c0,3.62818 -3.03983,6.66801 -6.66801,6.66801z" id="svg_247"/>
    <g stroke="null" id="svg_248">
     <path stroke="null" class="st42" d="m168.00224,38.36489c0,4.11848 -1.76506,8.23695 -3.13789,11.76707c-4.02042,10.78649 -12.45349,18.33702 -23.43609,18.33702c-14.70884,0 -26.57398,-13.43408 -26.57398,-30.1041s14.02243,-22.4555 18.23897,-30.69245c0.78447,-1.667 2.94177,-0.29418 3.23595,2.84371s-1.86312,8.04083 -0.29418,8.62919c0.58835,0.29418 5.00101,0.49029 5.4913,-1.17671c0.78447,-2.74565 1.37283,-5.9816 3.8243,-5.00101c2.25536,0.88253 3.334,1.37283 5.29518,2.94177c1.56894,1.17671 -1.86312,14.12049 -0.09806,14.31661c2.54953,0.19612 3.92236,-9.70784 6.96219,-12.84572c1.76506,-1.86312 5.00101,2.45147 5.19712,2.84371c3.334,5.00101 5.29518,11.27678 5.29518,18.14091z" id="svg_249"/>
     <path stroke="null" class="st43" d="m134.46608,19.34145c0,0 -4.41265,8.33501 -3.72624,16.4739c0.68641,8.13889 5.19712,24.22056 6.86413,26.57398s-1.667,10.9826 -1.667,10.9826l0.78447,13.53214l7.35442,-22.25938c0,0 8.82531,-8.04083 10.78649,-10.9826s5.88354,-5.39324 8.33501,-14.70884c2.45147,-9.3156 -2.64759,-18.53314 -4.02042,-18.43508c-1.37283,0.09806 -3.334,7.84472 -3.334,7.84472s-5.78548,8.13889 -6.86413,7.06024s-1.56894,-8.33501 -0.49029,-11.37484c1.07865,-3.03983 0.78447,-8.72725 -2.74565,-8.62919c-3.53012,0 -3.62818,5.09907 -3.62818,5.09907l-7.6486,-1.17671z" id="svg_250"/>
     <path stroke="null" class="st31" d="m137.40785,34.73671l-1.56894,0c-0.68641,0 -1.27477,-0.58835 -1.27477,-1.27477l0,-0.49029c0,-0.68641 0.58835,-1.27477 1.27477,-1.27477l1.56894,0c0.68641,0 1.27477,0.58835 1.27477,1.27477l0,0.49029c0,0.68641 -0.58835,1.27477 -1.27477,1.27477z" id="svg_251"/>
     <path stroke="null" class="st31" d="m138.68261,42.67949l-1.56894,0c-0.68641,0 -1.27477,-0.58835 -1.27477,-1.27477l0,-0.49029c0,-0.68641 0.58835,-1.27477 1.27477,-1.27477l1.56894,0c0.68641,0 1.27477,0.58835 1.27477,1.27477l0,0.49029c-0.09806,0.68641 -0.58835,1.27477 -1.27477,1.27477z" id="svg_252"/>
     <path stroke="null" class="st31" d="m140.05544,53.26985l-1.17671,0.78447c-0.58835,0.49029 -1.47088,0.29418 -1.86312,-0.39224l0,-0.09806c-0.39224,-0.68641 -0.19612,-1.56894 0.39224,-2.05924l1.17671,-0.78447c0.58835,-0.49029 1.47088,-0.29418 1.86312,0.39224l0,0.09806c0.39224,0.68641 0.19612,1.667 -0.39224,2.05924z" id="svg_253"/>
     <path stroke="null" class="st31" d="m147.70404,52.28926l0.68641,0.58835c0.68641,0.68641 0.78447,1.86312 0.09806,2.64759l-0.09806,0.09806c-0.68641,0.78447 -1.76506,0.78447 -2.45147,0.09806l-0.68641,-0.58835c-0.68641,-0.68641 -0.78447,-1.86312 -0.09806,-2.64759l0.09806,-0.09806c0.58835,-0.78447 1.667,-0.78447 2.45147,-0.09806z" id="svg_254"/>
     <path stroke="null" class="st31" d="m157.1177,34.44253l0.68641,0.58835c0.68641,0.68641 0.78447,1.86312 0.09806,2.64759l-0.09806,0.09806c-0.68641,0.78447 -1.76506,0.78447 -2.45147,0.09806l-0.68641,-0.58835c-0.68641,-0.68641 -0.78447,-1.86312 -0.09806,-2.64759l0.09806,-0.09806c0.58835,-0.68641 1.76506,-0.78447 2.45147,-0.09806z" id="svg_255"/>
     <path stroke="null" class="st31" d="m135.05443,46.01349l0.49029,-0.19612c0.58835,-0.29418 1.27477,0 1.47088,0.68641l0,0.09806c0.19612,0.58835 0,1.37283 -0.58835,1.56894l-0.49029,0.19612c-0.58835,0.29418 -1.27477,0 -1.47088,-0.68641l0,-0.09806c-0.19612,-0.58835 0,-1.37283 0.58835,-1.56894z" id="svg_256"/>
     <path stroke="null" class="st44" d="m141.42826,28.95123c0,0 -0.09806,22.16132 1.86312,25.10309c2.05924,2.84371 -0.98059,-23.04385 -1.86312,-25.10309z" id="svg_257"/>
    </g>
    <path stroke="null" class="st44" d="m161.92258,42.67949l-2.25536,3.92236l-0.58835,0.98059l-0.29418,0.49029c-0.09806,0.19612 -0.19612,0.29418 -0.29418,0.49029c-0.39224,0.58835 -0.88253,1.27477 -1.27477,1.86312c-0.88253,1.17671 -1.76506,2.45147 -2.74565,3.62818c-0.88253,1.17671 -1.86312,2.35341 -2.84371,3.43206c-0.49029,0.58835 -0.98059,1.07865 -1.47088,1.667c-0.49029,0.49029 -1.07865,1.07865 -1.56894,1.56894c-0.58835,0.49029 -1.07865,0.98059 -1.667,1.37283c-0.58835,0.39224 -1.17671,0.88253 -1.667,1.47088c-0.98059,1.07865 -1.76506,2.35341 -2.35341,3.8243c-0.29418,0.68641 -0.49029,1.47088 -0.68641,2.1573c-0.19612,0.78447 -0.29418,1.47088 -0.39224,2.25536l0,0l0,0l-4.90295,15.19914l-0.39224,1.17671l-0.09806,-1.27477c-0.09806,-2.05924 -0.19612,-4.11848 -0.19612,-6.17771c0,-2.05924 0,-4.11848 0.09806,-6.17771c0.09806,-1.07865 0.09806,-2.05924 0.29418,-3.13789c0,-0.29418 0.09806,-0.49029 0.09806,-0.78447c0,-0.29418 0.09806,-0.49029 0.09806,-0.78447l0.09806,-0.39224l0.09806,-0.39224l0.19612,-0.78447c0.19612,-0.98059 0.39224,-1.96118 0.49029,-2.94177c0,-0.49029 0,-0.98059 0,-1.47088c0,-0.19612 -0.09806,-0.49029 -0.09806,-0.68641c0,-0.09806 -0.09806,-0.19612 -0.09806,-0.29418c0,-0.09806 0,-0.09806 -0.09806,-0.09806l0,-0.09806c0,0 0,0 0,0l0,0c0,0 0,0 0,0l-0.09806,-0.09806c-0.49029,-0.88253 -0.78447,-1.86312 -1.17671,-2.84371c-0.39224,-0.98059 -0.68641,-1.96118 -0.98059,-2.94177c-0.58835,-1.96118 -1.07865,-3.92236 -1.56894,-5.88354c-0.49029,-1.96118 -0.88253,-4.02042 -1.27477,-5.9816c-0.39224,-1.96118 -0.78447,-4.02042 -1.07865,-6.07966l0,0.09806c-0.09806,-0.19612 -0.09806,-0.39224 -0.19612,-0.68641c-0.09806,-0.19612 -0.09806,-0.39224 -0.09806,-0.68641c-0.09806,-0.39224 -0.19612,-0.88253 -0.19612,-1.27477c-0.09806,-0.88253 -0.19612,-1.76506 -0.19612,-2.54953c0,-0.88253 0,-1.76506 0.09806,-2.54953c0.09806,-0.88253 0.19612,-1.667 0.29418,-2.54953c0.09806,-0.88253 0.29418,-1.667 0.49029,-2.54953c0.19612,-0.78447 0.49029,-1.667 0.68641,-2.45147c0.49029,-1.56894 1.17671,-3.13789 1.86312,-4.70683l0.09806,-0.29418l0.29418,0l7.6486,1.07865l-0.39224,0.39224c0.09806,-0.68641 0.19612,-1.27477 0.39224,-1.96118c0.19612,-0.68641 0.49029,-1.27477 0.78447,-1.86312c0.19612,-0.29418 0.39224,-0.58835 0.58835,-0.78447c0.19612,-0.29418 0.49029,-0.49029 0.88253,-0.58835c0.29418,-0.09806 0.68641,-0.19612 0.98059,-0.19612c0.29418,0 0.68641,0.09806 0.98059,0.19612c0.29418,0.19612 0.58835,0.39224 0.78447,0.58835c0.19612,0.29418 0.39224,0.49029 0.58835,0.88253c0.29418,0.58835 0.58835,1.27477 0.68641,1.86312c0.19612,0.68641 0.29418,1.27477 0.39224,1.96118c0.09806,0.68641 0.09806,1.27477 0.19612,1.96118l0,0l0,0c-0.39224,1.86312 -0.68641,3.8243 -0.88253,5.78548c-0.09806,0.98059 -0.19612,1.96118 -0.09806,2.94177c0,0.49029 0,0.98059 0.09806,1.47088c0,0.49029 0.09806,0.98059 0.29418,1.37283c0.09806,0.39224 0.39224,0.88253 0.68641,1.07865c0.09806,0 0.19612,0.09806 0.29418,0.09806l0,0c0,0 0,0 0,0c0,0 0,0 0,0c0,0 0.09806,0 0.09806,-0.09806c0.19612,-0.09806 0.39224,-0.19612 0.49029,-0.39224c0.68641,-0.58835 1.27477,-1.37283 1.96118,-2.05924c1.27477,-1.47088 2.45147,-2.94177 3.53012,-4.51071l0,0c0.29418,-1.27477 0.68641,-2.64759 1.07865,-3.92236c0.19612,-0.68641 0.39224,-1.27477 0.68641,-1.86312c0.09806,-0.29418 0.29418,-0.58835 0.39224,-0.88253c0.09806,-0.19612 0.19612,-0.29418 0.29418,-0.39224c0.09806,-0.09806 0.19612,-0.29418 0.29418,-0.39224c0.09806,-0.09806 0.09806,-0.09806 0.19612,-0.09806c0.09806,0 0.19612,0 0.29418,0.09806c0.19612,0.09806 0.29418,0.19612 0.39224,0.29418c0.29418,0.19612 0.49029,0.49029 0.68641,0.68641c0.39224,0.49029 0.78447,1.07865 1.17671,1.56894c0.68641,1.07865 1.27477,2.35341 1.76506,3.53012c0.49029,1.27477 0.78447,2.54953 0.88253,3.92236c0,0.29418 0,0.68641 0,0.98059c0,0.29418 0,0.68641 -0.09806,0.98059c-0.09806,0.68641 -0.09806,1.37283 -0.19612,1.96118c-0.19612,1.37283 -0.39224,2.64759 -0.68641,4.02042c0.09806,1.76506 -0.19612,3.03983 -0.58835,4.31459zm0,0c0.39224,-1.27477 0.68641,-2.64759 0.88253,-3.92236c0.29418,-1.27477 0.49029,-2.64759 0.68641,-4.02042c0.09806,-0.68641 0.19612,-1.37283 0.19612,-1.96118c0,-0.29418 0.09806,-0.68641 0.09806,-0.98059c0,-0.29418 0,-0.68641 0,-0.98059c-0.09806,-1.37283 -0.39224,-2.64759 -0.88253,-3.92236c-0.49029,-1.27477 -1.07865,-2.45147 -1.76506,-3.53012c-0.39224,-0.58835 -0.78447,-1.07865 -1.17671,-1.56894c-0.19612,-0.19612 -0.39224,-0.49029 -0.68641,-0.68641c-0.09806,-0.09806 -0.29418,-0.19612 -0.39224,-0.29418c-0.09806,0 -0.09806,-0.09806 -0.19612,-0.09806c-0.09806,0 -0.09806,0 -0.19612,0.09806c-0.19612,0.19612 -0.39224,0.49029 -0.49029,0.78447c-0.09806,0.29418 -0.29418,0.58835 -0.39224,0.88253c-0.19612,0.58835 -0.49029,1.27477 -0.58835,1.86312c-0.39224,1.27477 -0.68641,2.54953 -0.98059,3.92236l0,0l0,0c-1.17671,1.56894 -2.25536,3.03983 -3.53012,4.51071c-0.58835,0.68641 -1.27477,1.47088 -1.96118,2.1573c-0.19612,0.19612 -0.39224,0.29418 -0.58835,0.49029c-0.09806,0 -0.09806,0.09806 -0.19612,0.09806c0,0 -0.09806,0 -0.09806,0c0,0 0,0 -0.09806,0l0,0c-0.09806,0 -0.29418,-0.09806 -0.39224,-0.09806c-0.19612,-0.09806 -0.39224,-0.29418 -0.58835,-0.58835c-0.09806,-0.19612 -0.29418,-0.49029 -0.29418,-0.68641c-0.19612,-0.49029 -0.29418,-0.98059 -0.29418,-1.47088c-0.09806,-0.49029 -0.09806,-0.98059 -0.09806,-1.47088c0,-0.98059 0,-1.96118 0.09806,-2.94177c0.19612,-1.96118 0.39224,-3.92236 0.78447,-5.88354l0,0.09806c0,-0.58835 -0.09806,-1.27477 -0.19612,-1.86312c-0.09806,-0.58835 -0.19612,-1.27477 -0.39224,-1.86312c-0.19612,-0.58835 -0.39224,-1.17671 -0.68641,-1.667c-0.29418,-0.49029 -0.68641,-0.98059 -1.17671,-1.17671c-0.19612,-0.09806 -0.49029,-0.19612 -0.78447,-0.19612c-0.29418,0 -0.49029,0 -0.78447,0.19612c-0.49029,0.19612 -0.88253,0.68641 -1.17671,1.17671c-0.29418,0.49029 -0.49029,1.07865 -0.68641,1.667c-0.19612,0.58835 -0.29418,1.17671 -0.39224,1.86312l0,0.39224l-0.39224,-0.09806l-7.6486,-1.07865l0.39224,-0.19612c-0.68641,1.47088 -1.27477,3.03983 -1.86312,4.60877c-0.29418,0.78447 -0.49029,1.56894 -0.68641,2.35341c-0.19612,0.78447 -0.39224,1.56894 -0.49029,2.45147c-0.09806,0.78447 -0.19612,1.667 -0.29418,2.45147c-0.09806,0.78447 -0.09806,1.667 -0.09806,2.45147c0,0.78447 0.09806,1.667 0.19612,2.45147c0.09806,0.39224 0.09806,0.78447 0.19612,1.17671c0,0.19612 0.09806,0.39224 0.09806,0.58835c0,0.19612 0.09806,0.39224 0.19612,0.58835l0,0l0,0c0.29418,1.96118 0.68641,4.02042 0.98059,5.9816c0.39224,1.96118 0.78447,4.02042 1.27477,5.9816c0.49029,1.96118 0.98059,3.92236 1.56894,5.88354c0.29418,0.98059 0.58835,1.96118 0.88253,2.84371c0.29418,0.98059 0.68641,1.86312 1.07865,2.74565l-0.09806,-0.09806c0,0 0,0 0,0l0,0c0,0 0,0 0,0.09806l0.09806,0.09806c0,0.09806 0.09806,0.09806 0.09806,0.19612c0.09806,0.09806 0.09806,0.29418 0.09806,0.39224c0.09806,0.29418 0.09806,0.58835 0.09806,0.78447c0,0.58835 0,1.07865 0,1.667c-0.09806,1.07865 -0.29418,2.05924 -0.58835,3.13789l-0.19612,0.78447l-0.09806,0.39224l-0.09806,0.39224c-0.09806,0.19612 -0.09806,0.49029 -0.09806,0.78447c0,0.29418 -0.09806,0.49029 -0.09806,0.78447c-0.09806,0.98059 -0.19612,2.05924 -0.29418,3.03983c-0.09806,2.05924 -0.19612,4.11848 -0.19612,6.17771c0,2.05924 0.09806,4.11848 0.19612,6.17771l-0.49029,-0.09806l5.09907,-15.10108l0,0c0.09806,-0.78447 0.19612,-1.56894 0.39224,-2.35341c0.19612,-0.78447 0.39224,-1.47088 0.78447,-2.1573c0.58835,-1.37283 1.47088,-2.74565 2.45147,-3.8243c0.49029,-0.58835 1.07865,-0.98059 1.667,-1.47088c0.58835,-0.39224 1.17671,-0.88253 1.667,-1.37283c0.58835,-0.49029 1.07865,-0.98059 1.56894,-1.56894c0.49029,-0.49029 0.98059,-1.07865 1.56894,-1.667c1.96118,-2.25536 3.8243,-4.60877 5.58936,-7.06024c0.39224,-0.58835 0.88253,-1.17671 1.27477,-1.86312c0.09806,-0.19612 0.19612,-0.29418 0.29418,-0.49029l0.29418,-0.49029l0.58835,-0.98059l2.45147,-3.8243z" id="svg_258"/>
   </g>
   <ellipse stroke="null" id="big-closed-eyes" class="st31" cx="150.05745" cy="42.58143" rx="4.11848" ry="0.98059"/>
   <ellipse stroke="null" id="big-opened-eyes" class="st31" cx="150.05745" cy="42.58143" rx="4.11848" ry="4.41265"/>
   <ellipse stroke="null" id="small-closedeyes" cx="150.74386" cy="42.67949" rx="1.86312" ry="0.49029"/>
   <ellipse stroke="null" id="small-opened-eyes" cx="150.74386" cy="42.67949" rx="1.86312" ry="1.96118"/>
  </g>
 </g>
</svg>