<svg width="400" height="400" xmlns="http://www.w3.org/2000/svg">
 <g>
  <title>background</title>
 
 
 </g>

 <style type="text/css">.st0{fill:#ED6522;}
	.st1{fill:url(#SVGID_1_);}
	.st2{fill:#FFFFFF;}
	.st3{fill:#FFFFFE;}
	.st4{fill:#FFFEFD;}
	.st5{fill:#FFFEFC;}
	.st6{fill:#FFFEFB;}
	.st7{fill:#FFFEFA;}
	.st8{fill:#FFFDF9;}
	.st9{fill:#FFFDF8;}
	.st10{fill:#FFFDF7;}
	.st11{fill:#FFFCF6;}
	.st12{fill:#FFFCF5;}
	.st13{fill:#FFFCF4;}
	.st14{fill:#FFFBF3;}
	.st15{fill:#FFFBF2;}
	.st16{fill:#FFFBF1;}
	.st17{fill:#FFFBF0;}
	.st18{fill:#FFFAEF;}
	.st19{fill:#FFFAEE;}
	.st20{fill:#FFFAED;}
	.st21{fill:#FFF9EC;}
	.st22{fill:#FFF9EB;}
	.st23{fill:#FFF9EA;}
	.st24{fill:#FFF8E9;}
	.st25{fill:#FFF8E8;}
	.st26{fill:#FFF8E7;}
	.st27{fill:#FFF8E6;}
	.st28{fill:#FFF7E5;}
	.st29{fill:#FFF7E4;}
	.st30{fill:#FFF7E3;}
	.st31{fill:#FFF6E2;}
	.st32{fill:#FFF6E1;}
	.st33{fill:#FFF6E0;}
	.st34{fill:#FFF6DF;}
	.st35{fill:#FFF5DE;}
	.st36{fill:#FFF5DD;}
	.st37{fill:#FFF5DC;}
	.st38{fill:#FFF4DB;}
	.st39{fill:#FFF4DA;}
	.st40{fill:#FFF4D9;}
	.st41{fill:#FFF3D8;}
	.st42{fill:#FFF3D7;}
	.st43{fill:#FFF3D6;}
	.st44{fill:#FFF3D5;}
	.st45{fill:#FFF2D4;}
	.st46{fill:#FFF2D3;}
	.st47{fill:#FFF2D2;}
	.st48{fill:#FFF1D1;}
	.st49{fill:#FFF1D0;}
	.st50{fill:#FFF1CF;}
	.st51{fill:#FFF0CE;}
	.st52{fill:#FFF0CD;}
	.st53{fill:#FFF0CC;}
	.st54{fill:#FFF0CB;}
	.st55{fill:#FFEFCA;}
	.st56{fill:#FFEFC9;}
	.st57{fill:#FFEFC8;}
	.st58{fill:#FFEEC7;}
	.st59{fill:#FFEEC6;}
	.st60{fill:#FFEEC5;}
	.st61{fill:#FFEDC4;}
	.st62{fill:#FFEDC3;}
	.st63{fill:#FFEDC2;}
	.st64{fill:#FFEDC1;}
	.st65{fill:#FFECC0;}
	.st66{fill:#FFECBF;}
	.st67{fill:#FFEBBE;}
	.st68{fill:#FFEBBD;}
	.st69{fill:#FFEBBC;}
	.st70{fill:#FFEBBB;}
	.st71{fill:#FFEABA;}
	.st72{fill:#FFEAB9;}
	.st73{fill:#FFEAB8;}
	.st74{fill:#FFE9B7;}
	.st75{fill:#FFE9B6;}
	.st76{fill:#FFE9B5;}
	.st77{fill:#FFE8B4;}
	.st78{fill:#FFE8B3;}
	.st79{fill:#FFE8B2;}
	.st80{fill:#FFE8B1;}
	.st81{fill:#FFE7B0;}
	.st82{fill:#FFE7AF;}
	.st83{fill:#FFE7AE;}
	.st84{fill:#FFE6AD;}
	.st85{fill:#FFE6AC;}
	.st86{fill:#FFE6AB;}
	.st87{fill:#FFE5AA;}
	.st88{fill:#FFE5A9;}
	.st89{fill:#FFE5A8;}
	.st90{fill:#FFE5A7;}
	.st91{fill:#FFE4A6;}
	.st92{fill:#FFE4A5;}
	.st93{fill:#FFE4A4;}
	.st94{fill:#FFE3A3;}
	.st95{fill:#FFE3A2;}
	.st96{fill:#FFE3A1;}
	.st97{fill:#FFE3A0;}
	.st98{fill:#FFE29F;}
	.st99{fill:#FFE29E;}
	.st100{fill:#FFE29D;}
	.st101{fill:#FFE19C;}
	.st102{fill:#FFE19B;}
	.st103{fill:#FFE19A;}
	.st104{fill:#FFE099;}
	.st105{fill:#FFE098;}
	.st106{fill:#FFE097;}
	.st107{fill:#FFE096;}
	.st108{fill:#FFDF95;}
	.st109{fill:#FFDF94;}
	.st110{fill:#FFDF93;}
	.st111{fill:#FFDE92;}
	.st112{fill:#FFDE91;}
	.st113{fill:#FFDE90;}
	.st114{fill:#FFDD8F;}
	.st115{fill:#FFDD8E;}
	.st116{fill:#FFDD8D;}
	.st117{fill:#FFDD8C;}
	.st118{fill:#FFDC8B;}
	.st119{fill:#FFDC8A;}
	.st120{fill:#FFDC89;}
	.st121{fill:#FFDB88;}
	.st122{fill:#FFDB87;}
	.st123{fill:#FFDB86;}
	.st124{fill:#FFDA85;}
	.st125{fill:#FFDA84;}
	.st126{fill:#FFDA83;}
	.st127{fill:#FFDA82;}
	.st128{fill:#FFD981;}
	.st129{fill:#FFD980;}
	.st130{fill:url(#SVGID_2_);}
	.st131{fill:url(#SVGID_3_);}
	.st132{fill:url(#SVGID_4_);}
	.st133{fill:url(#SVGID_5_);}
	.st134{fill:#E5E8EC;}
	.st135{fill:#2C7EEA;}
	.st136{fill:#2366BD;}
	.st137{fill:#484F59;}
	.st138{fill:#F4DA80;}
	.st139{fill:#B91E2D;}
	.st140{fill:#E2C59C;}
	.st141{fill:#E9D6B8;}
	.st142{fill:#163F59;}
	.st143{fill:#194866;}
	.st144{fill:#FFAB01;}
	.st145{fill:#15100C;}
	.st146{fill:#CDD5D7;}
	.st147{fill:#B7BEC0;}
	.st148{fill:#F99B0F;}
	.st149{opacity:0.6;}
	.st150{fill:#EED2CE;}
	.st151{fill:#C49189;}
	.st152{fill:#FFEBE8;}
	.st153{fill:#E0B6AF;}
	.st154{fill:#FF8B5D;}
	.st155{fill:#EF8357;}
	.st156{fill:#D5E1F2;}
	.st157{fill:#3C463B;}
	.st158{fill:#2771D1;}
	.st159{fill:#161711;}
	.st160{fill:#323B31;}
	.st161{fill:#B6C2C9;}
	.st162{fill:#879BA6;}
	.st163{fill:#E4EEF3;}
	.st164{fill:#FF5931;}
	.st165{enable-background:new    ;}
	.st166{fill:#FFC910;}
	.st167{fill:#FFCA10;}
	.st168{fill:#282723;}
	.st169{fill:#B0BFDE;}
	.st170{fill:#D1DBEA;}
	.st171{fill:#19486D;}
	.st172{fill:#265880;}
	.st173{fill:#FBBC3E;}
	.st174{fill:#E59E0E;}
	.st175{fill:url(#SVGID_6_);}
	.st176{fill:url(#SVGID_7_);}
	.st177{fill:#081832;}
	.st178{fill:#EDEEF0;}
	.st179{fill:#BCD0E2;}
	.st180{fill:#4E99FF;}

		#t3  {
    animation-name: p;
    animation-duration: 3;
	
	
    animation-timing-function: linear;
    animation-iteration-count: infinite;
    transform-origin:center;
    
    transform-box: fill-box;
  }
  @keyframes p{
    0%{opacity:0; transform:rotateZ(0deg)}
	20%{opacity:1; transform:rotateZ(0deg)}
	100%{opacity:1; transform:rotateZ(-10deg)}
}
#t2  {
    animation-name: t2;
    animation-duration: 3;
	
	
    animation-timing-function: linear;
    animation-iteration-count: infinite;
    transform-origin:center;
    
    transform-box: fill-box;
  }
  @keyframes t2{
    0%{opacity:0; transform:rotateZ(-10deg)}
	50%{opacity:1;}
	100%{opacity:1; transform:rotateZ(0deg)}
}
#t1  {
    animation-name: t1;
    animation-duration: 3;
	
	
    animation-timing-function: linear;
    animation-iteration-count: infinite;
    transform-origin:center;
    
    transform-box: fill-box;
  }
  @keyframes t1{
    0%{opacity:0; }
	30%{opacity:1;}
	100%{opacity:1;}
}

 #BUTTON {
    animation-name: box1;
    animation-duration: 3;
    animation-timing-function: ease-in;
    animation-iteration-count: infinite;
    transform-origin:bottom;
    
    transform-box: fill-box;
  }
  @keyframes box1{
    0%{transform:scale(0) }
    13%{transform:scale(0)}
     15%{transform:scale(1.2)}
     
     16%{transform:scale(1)}
     100%{transform:scale(1) }
}
 #CELLPHONE {
    animation-name: box1;
    animation-duration: 3;
    animation-timing-function: ease-in;
    animation-iteration-count: infinite;
    transform-origin:bottom;
    
    transform-box: fill-box;
  }
  @keyframes box1{
    0%{transform:scale(0) }
    17%{transform:scale(0)}
     19%{transform:scale(1.2)}
     
     21%{transform:scale(1)}
     100%{transform:scale(1) }
	 22%{transform:scale(1)}
	 50%{transform:translateY(10px)}
	 70%{transform:translateY(-10px)}
}
 #MEN_LAPTOP {
    animation-name: m1;
    animation-duration: 3;
    animation-timing-function: ease-in;
    animation-iteration-count: infinite;
    transform-origin:bottom;
    
    transform-box: fill-box;
  }
  @keyframes m1{
    0%{transform:scale(0) }
    20%{transform:scale(0)}
     21%{transform:scale(1.2)}
     
     22%{transform:scale(1)}
	 50%{transform:translateY(10px)}
	 70%{transform:translateY(-10px)}
     
}

#m2{
    animation-name: m2;
    animation-duration: 3;
    animation-iteration-count: infinite;
    transform-origin: bottom;
    transform-box: fill-box;
}
@keyframes m2 {
    0% { opacity: 0; transform: translate(-25px, 25px); }
    22% { opacity: 0; transform: translate(-25px, 0px); }
    24% { opacity: 1; transform: translate(0px, 0px); }
}
#w2{
    animation-name: w2;
    animation-duration: 3;
    animation-iteration-count: infinite;
    transform-origin: bottom;
    transform-box: fill-box;
}
@keyframes w2 {
    0% { opacity: 0; transform: translate(-25px, 25px); }
    25% { opacity: 0; transform: translate(-25px, 0px); }
    28% { opacity: 1; transform: translate(0px, 0px); }
	22%{transform:scale(1)}
	 50%{transform:translateY(-10px)}
	 70%{transform:translateY(10px)}
}
#w1{
    animation-name: w1;
    animation-duration: 3;
    animation-iteration-count: infinite;
    transform-origin: bottom;
    transform-box: fill-box;
}
@keyframes w1 {
    0% { opacity: 0; transform: translate(25px, 25px); }
    29% { opacity: 0; transform: translate(25px, 0px); }
    32% { opacity: 1; transform: translate(0px, 0px); }
}
#heart {
    animation-name: ht;
    animation-duration: 3;
    animation-timing-function: ease-in;
    animation-iteration-count: infinite;
    transform-origin:bottom;
    
    transform-box: fill-box;
  }
  @keyframes ht{
    0%{transform:scale(0) }
    31%{transform:scale(0)}
     33%{transform:scale(1.2)}
     
     34%{transform:scale(1)}
     100%{transform:scale(1) }
}
#like {
    animation-name: lt;
    animation-duration: 3;
    animation-timing-function: ease-in;
    animation-iteration-count: infinite;
    transform-origin:bottom;
    
    transform-box: fill-box;
  }
  @keyframes lt{
    0%{transform:scale(0) }
    31%{transform:scale(0)}
     33%{transform:scale(1.2)}
     
     34%{transform:scale(1)}
     100%{transform:scale(1) }
}
#box1 {
    animation-name: bt;
    animation-duration: 3;
    animation-timing-function: ease-in;
    animation-iteration-count: infinite;
    transform-origin:bottom;
    
    transform-box: fill-box;
  }
  @keyframes bt{
    0%{transform:scale(0) }
    35%{transform:scale(0)}
     36%{transform:scale(1.2)}
     
     38%{transform:scale(1)}
     100%{transform:scale(1) }
}
#box2 {
    animation-name: b2;
    animation-duration: 3;
    animation-timing-function: ease-in;
    animation-iteration-count: infinite;
    transform-origin:bottom;
    
    transform-box: fill-box;
  }
  @keyframes b2{
    0%{transform:scale(0) }
    38%{transform:scale(0)}
     39%{transform:scale(1.2)}
     
     40%{transform:scale(1)}
     100%{transform:scale(1) }
}
#w1l {
    animation-name: pa;
    animation-duration: 2s;
	animation-direction: alternate;
	
    animation-timing-function: linear;
    animation-iteration-count: infinite;
    transform-origin:95% 0%;
    
    transform-box: fill-box;
  }
  @keyframes pa{
    0%{transform:rotateZ(3deg);}
	100%{transform:rotateZ(-3deg);}
	
}
#w2a {
    animation-name: w2a;
    animation-duration: 1.5s;
	animation-direction: alternate;
	
    animation-timing-function: linear;
    animation-iteration-count: infinite;
    transform-origin:5% 90%;
    
    transform-box: fill-box;
  }
  @keyframes w2a{
    0%{transform:rotateZ(4deg);}
	100%{transform:rotateZ(-4deg);}
}
#m2l1 {
    animation-name: m2a;
    animation-duration: 1.5s;
	animation-direction: alternate;
	
    animation-timing-function: linear;
    animation-iteration-count: 1;
    transform-origin:95% 0%;
    
    transform-box: fill-box;
  }
  @keyframes m2a{
    0%{transform:rotateZ(0deg);}
	100%{transform:rotateZ(-25deg);}
}
#m2l2 {
    animation-name: m2b;
    animation-duration: 1.5s;
	animation-direction: alternate;
	
    animation-timing-function: linear;
    animation-iteration-count: infinite;
    transform-origin:5% 10%;
    
    transform-box: fill-box;
  }
  @keyframes m2b{
    0%{transform:rotateZ(0deg);}
	100%{transform:rotateZ(25deg);}
}
#m1h {
    animation-name: m1h;
    animation-duration: 3s;
	animation-direction: alternate;
	
    animation-timing-function: linear;
    animation-iteration-count: infinite;
    transform-origin:5% 10%;
    
    transform-box: fill-box;
  }
  @keyframes m1h{
    0%{transform:translateY(0px);}
	20%{transform:translateY(0px);}
	 30%{transform:translateY(2px);}
	50%{transform:translateY(0px);}
	
	60%{transform:translatey(0px);}
	100%{transform:translatey(2px);}
}
#m2h {
    animation-name: m2h;
    animation-duration: 1.5s;
	animation-direction: alternate;
	
    animation-timing-function: linear;
    animation-iteration-count: infinite;
    transform-origin:5% 90%;
    
    transform-box: fill-box;
  }
  @keyframes m2h{
    0%{transform:rotateZ(4deg);}
	100%{transform:rotateZ(-4deg);}
}</style>
 <g>
  <title>Layer 1</title>
  <g id="t1">
   <path class="st133" d="m489.2,0c8.9,26.2 20.5,58 49.5,78c40.3,27.8 135.4,50.8 206,-34.4c11.4,-13.8 20.8,-28.6 28.2,-43.6c0,0 -283.7,0 -283.7,0z" id="svg_136"/>
  </g>
  <g id="svg_1">
   <path stroke="null" class="st132" d="m86.59642,228.26287c17.49298,-0.47492 29.99928,-14.01022 49.62941,-9.81507c20.57998,4.43261 30.94912,59.12787 76.62085,76.54169c35.46089,13.53529 111.60681,14.40599 149.75893,-60.15686c38.15212,-74.4837 10.4483,-161.71115 -46.77988,-166.53953c-41.47658,-3.48277 -73.53385,11.95222 -107.56997,10.92322c-31.58235,-0.94985 -64.35201,-28.89113 -93.71806,-29.36605c-47.41311,-0.79154 -71.00093,42.03065 -80.65769,75.5127c-9.18184,32.13643 1.029,104.32467 52.71641,102.8999z" id="svg_135"/>
   <g stroke="null" id="m2">
    <g stroke="null" id="m2l1">
     <path stroke="null" class="st177" d="m113.51201,303.71059c0,0 -4.29503,2.49389 -6.09617,3.04809c-1.52404,0.5542 -4.57213,0 -6.09617,-0.2771c-1.38549,-0.2771 -3.60229,-0.96985 -4.71068,-2.35534c-1.52404,-1.93969 -4.57213,-8.72861 -4.57213,-8.72861l-1.1084,1.1084l-3.18664,-4.43358c0,0 1.38549,-7.06602 3.46374,-7.75877c2.63244,-0.96985 10.11411,5.40343 10.11411,5.40343l2.63244,8.59006l4.01793,3.74083c0,0 3.18664,0 4.01793,0.13855c0.69275,0.13855 1.52404,1.52404 1.52404,1.52404z" id="svg_509"/>
     <path stroke="null" class="st142" d="m124.73451,199.24432l2.21679,39.76368l-22.58356,53.20298l-13.85494,-7.75877l17.31868,-50.43199l-4.29503,-37.26979c-0.8313,-4.29503 -1.52404,-7.75877 -2.07824,-10.25266c-0.96985,-4.29503 -1.38549,-5.81908 -0.5542,-7.48167c1.52404,-2.49389 5.40343,-3.04809 7.06602,-2.90954c10.11411,0.2771 16.48738,21.89081 16.76448,23.13775z" id="svg_510"/>
    </g>
    <g stroke="null" id="m2l2">
     <path stroke="null" class="st177" d="m157.98637,303.98769l3.60229,9.14426l7.89732,-2.49389l-0.13855,-2.35534l3.74083,-0.8313l5.12633,-0.2771l15.93318,-10.25266c0,0 -0.2771,-1.66259 -1.1084,-1.93969c-2.21679,-0.69275 -8.86716,3.04809 -8.86716,3.04809l-12.19235,0.5542l-13.99349,5.40343z" id="svg_511"/>
     <path stroke="null" class="st143" d="m129.16809,181.09435c0,0 15.37899,63.31709 20.78241,78.28042c5.26488,14.96334 26.04729,38.37819 26.04729,38.37819l-21.75226,8.31297c0,0 -25.07745,-50.29344 -30.06522,-67.61212c-5.12633,-17.31868 -16.62593,-36.29995 -16.62593,-36.29995s-12.3309,-9.55991 -6.65037,-26.46294c5.68053,-17.04158 28.26408,5.40343 28.26408,5.40343z" id="svg_512"/>
    </g>
    <g stroke="null" id="svg_513">
     <polygon stroke="null" class="st141" points="126.67420196533203,135.65011596679688 132.2161865234375,127.337158203125 141.77609252929688,127.47573852539062 139.28221130371094,135.92721557617188 135.67991638183594,142.30052185058594 " id="svg_514"/>
     <g stroke="null" id="svg_515">
      <path stroke="null" class="st178" d="m169.48598,184.00389c0.96985,0.13855 4.98778,2.21679 4.98778,2.21679s-0.13855,2.21679 -0.2771,2.90954s-1.24694,-1.24694 -1.80114,0.69275s0.2771,3.87938 0.2771,3.87938l3.46374,2.21679l1.93969,0.2771l1.66259,-0.96985l0.2771,-3.74083l-0.5542,-6.23472l-6.51182,-4.71068l-4.01793,0.69275l0.5542,2.77099z" id="svg_516"/>
      <path stroke="null" class="st178" d="m172.11842,177.07641l7.06602,4.98778c0,0 1.52404,2.49389 2.77099,4.57213c1.24694,2.07824 1.52404,3.46374 1.52404,3.46374s-0.69275,3.87938 -1.38549,4.57213s-2.49389,-0.13855 -2.49389,-0.13855l-3.74083,0.2771c0,0 -1.38549,-0.41565 -0.2771,-1.66259c1.1084,-1.24694 3.74083,-0.96985 3.74083,-0.96985s-0.13855,-2.07824 0,-2.90954c0,-0.8313 -3.04809,-4.84923 -3.04809,-4.84923l-5.81908,-2.90954l1.66259,-4.43358z" id="svg_517"/>
      <polygon stroke="null" class="st169" points="152.02877807617188,161.55886840820312 173.22682189941406,175.82945251464844 169.62452697753906,185.11227416992188 153.9684600830078,182.2027587890625 " id="svg_518"/>
     </g>
     <path stroke="null" class="st179" d="m143.30014,146.31844l-9.28281,48.35375l-34.63736,-18.01143l23.41485,-42.95032c0,0 7.89732,-8.31297 20.50531,12.608z" id="svg_519"/>
     <g stroke="null" id="svg_520">
      <path stroke="null" class="st137" d="m297.09,295.39762c0,4.15648 -3.46374,7.62022 -7.62022,7.62022s-7.62022,-3.46374 -7.62022,-7.62022s3.46374,-7.62022 7.62022,-7.62022s7.62022,3.32519 7.62022,7.62022z" id="svg_521"/>
      <path stroke="null" class="st147" d="m294.04191,295.39762c0,2.49389 -2.07824,4.57213 -4.57213,4.57213s-4.57213,-2.07824 -4.57213,-4.57213s2.07824,-4.57213 4.57213,-4.57213s4.57213,2.07824 4.57213,4.57213z" id="svg_522"/>
      <path stroke="null" class="st146" d="m293.48771,295.39762c0,2.21679 -1.80114,4.01793 -4.01793,4.01793s-4.01793,-1.80114 -4.01793,-4.01793s1.80114,-4.01793 4.01793,-4.01793c2.21679,-0.13855 4.01793,1.80114 4.01793,4.01793z" id="svg_523"/>
      <path stroke="null" class="st146" d="m291.13237,293.59648c0,2.35534 -1.38549,2.90954 -3.04809,1.1084l-6.09617,-6.65037c-1.66259,-1.80114 -0.96985,-3.18664 1.38549,-3.18664l3.32519,0c2.35534,0 4.29503,1.93969 4.29503,4.43358l0.13855,4.29503z" id="svg_524"/>
      <path stroke="null" class="st147" d="m282.68086,288.74725c0.2771,0 0.5542,-0.13855 0.8313,-0.13855l3.32519,0c2.21679,0 4.15648,1.80114 4.29503,4.01793l0,-3.32519c0,-2.35534 -1.93969,-4.43358 -4.29503,-4.43358l-3.32519,0c-2.35534,0 -3.04809,1.38549 -1.38549,3.18664l0.5542,0.69275z" id="svg_525"/>
      <path stroke="null" class="st137" d="m238.62214,295.39762c0,4.15648 -3.46374,7.62022 -7.62022,7.62022s-7.62022,-3.46374 -7.62022,-7.62022s3.46374,-7.62022 7.62022,-7.62022c4.29503,0 7.62022,3.32519 7.62022,7.62022z" id="svg_526"/>
      <path stroke="null" class="st147" d="m235.57405,295.39762c0,2.49389 -2.07824,4.57213 -4.57213,4.57213s-4.57213,-2.07824 -4.57213,-4.57213s2.07824,-4.57213 4.57213,-4.57213s4.57213,2.07824 4.57213,4.57213z" id="svg_527"/>
      <path stroke="null" class="st146" d="m235.01985,295.39762c0,2.21679 -1.80114,4.01793 -4.01793,4.01793s-4.01793,-1.80114 -4.01793,-4.01793s1.80114,-4.01793 4.01793,-4.01793c2.21679,-0.13855 4.01793,1.80114 4.01793,4.01793z" id="svg_528"/>
      <path stroke="null" class="st146" d="m232.80306,293.59648c0,2.35534 -1.38549,2.90954 -3.04809,1.1084l-6.09617,-6.65037c-1.66259,-1.80114 -0.96985,-3.18664 1.38549,-3.18664l3.32519,0c2.35534,0 4.29503,1.93969 4.29503,4.43358l0.13855,4.29503z" id="svg_529"/>
      <path stroke="null" class="st147" d="m224.213,288.74725c0.2771,0 0.5542,-0.13855 0.8313,-0.13855l3.32519,0c2.21679,0 4.15648,1.80114 4.29503,4.01793l0,-3.32519c0,-2.35534 -1.93969,-4.43358 -4.29503,-4.43358l-3.18664,0c-2.35534,0 -3.04809,1.38549 -1.38549,3.18664l0.41565,0.69275z" id="svg_530"/>
      <g stroke="null" id="svg_531">
       <g stroke="null" id="svg_532">
        <rect stroke="null" x="460.40703" y="58.87667" transform="matrix(0.151573 -1.37718 1.37718 0.151573 56.6085 851.772)" class="st146" width="3.1" height="70.8" id="svg_533"/>
       </g>
      </g>
      <g stroke="null" id="svg_534">
       <g stroke="null" id="svg_535">
        <rect stroke="null" x="472.36938" y="73.50692" transform="matrix(0.0847387 -1.38286 1.38286 0.0847387 73.5946 892.094)" class="st146" width="3.1" height="65" id="svg_536"/>
       </g>
      </g>
      <path stroke="null" class="st147" d="m299.02969,286.66901l0,0l-73.56974,-0.69275c-1.80114,0 -4.29503,-0.2771 -5.95763,-2.21679c-1.93969,-2.49389 -1.38549,-6.37327 -0.41565,-10.39121c1.38549,-6.51182 2.21679,-10.80686 2.21679,-10.80686c0.13855,-0.96985 1.1084,-1.80114 2.07824,-1.66259c13.71639,0.13855 40.45643,0.2771 43.78162,0c1.24694,-0.13855 2.21679,0.8313 2.35534,1.93969c0.13855,1.24694 -0.8313,2.21679 -1.93969,2.35534c-3.87938,0.2771 -34.63736,0.13855 -42.53467,0c-0.41565,1.80114 -0.96985,4.98778 -1.93969,9.00571c-0.2771,1.52404 -1.24694,5.81908 -0.41565,6.78892c0.2771,0.41565 1.24694,0.5542 2.63244,0.5542l73.56974,0.69275c1.24694,0 2.07824,0.96985 2.07824,2.21679c0.13855,1.24694 -0.8313,2.21679 -1.93969,2.21679z" id="svg_537"/>
      <path stroke="null" class="st146" d="m225.0443,284.59077c-1.66259,0 -3.87938,-0.13855 -5.26488,-1.80114c-1.66259,-2.07824 -1.1084,-5.81908 -0.2771,-9.69846c1.38549,-6.51182 2.21679,-10.80686 2.21679,-10.9454c0.13855,-0.5542 0.5542,-0.96985 1.1084,-0.96985c8.72861,0.13855 21.47516,0.13855 31.03507,0.13855c7.62022,0 12.19235,0 13.43929,-0.13855l0,0c0.69275,0 1.24694,0.41565 1.24694,1.1084c0,0.2771 -0.13855,0.5542 -0.2771,0.8313s-0.41565,0.41565 -0.8313,0.41565c-1.38549,0.13855 -5.95763,0.13855 -13.85494,0.13855c-10.52976,0 -23.8305,-0.13855 -29.09538,-0.13855l-0.8313,0l-0.13855,0.8313c-0.41565,1.80114 -1.1084,4.98778 -1.93969,9.14426c-0.96985,4.57213 -1.1084,6.78892 -0.2771,7.75877c0.5542,0.69275 1.66259,0.96985 3.46374,0.96985l74.53959,0.69275c0.69275,0 1.1084,0.5542 1.1084,1.1084c0,0.69275 -0.5542,1.1084 -1.1084,1.1084l-74.26249,-0.5542z" id="svg_538"/>
      <g stroke="null" id="svg_539">
       <g stroke="null" id="svg_540">
        <path stroke="null" class="st146" d="m231.27902,259.37477c-0.96985,0 -1.80114,-0.5542 -2.07824,-1.52404l-13.71639,-45.72131c-0.2771,-1.1084 0.2771,-2.35534 1.38549,-2.63244c1.1084,-0.2771 2.35534,0.2771 2.63244,1.38549l13.71639,45.72131c0.2771,1.1084 -0.2771,2.35534 -1.38549,2.63244c-0.13855,0.13855 -0.41565,0.13855 -0.5542,0.13855z" id="svg_541"/>
       </g>
       <g stroke="null" id="svg_542">
        <path stroke="null" class="st146" d="m241.94733,259.37477c-0.96985,0 -1.80114,-0.69275 -2.07824,-1.66259l-10.9454,-43.92017c-0.2771,-1.1084 0.41565,-2.35534 1.52404,-2.63244c1.1084,-0.2771 2.35534,0.41565 2.63244,1.52404l10.9454,43.92017c0.2771,1.1084 -0.41565,2.35534 -1.52404,2.63244c-0.2771,0.13855 -0.41565,0.13855 -0.5542,0.13855z" id="svg_543"/>
       </g>
       <g stroke="null" id="svg_544">
        <path stroke="null" class="st146" d="m252.47708,259.37477c-0.96985,0 -1.93969,-0.69275 -2.07824,-1.80114l-8.17442,-41.98048c-0.2771,-1.1084 0.5542,-2.35534 1.66259,-2.49389c1.1084,-0.2771 2.35534,0.5542 2.49389,1.66259l8.17442,41.98048c0.2771,1.1084 -0.5542,2.35534 -1.66259,2.49389c-0.13855,0.13855 -0.2771,0.13855 -0.41565,0.13855z" id="svg_545"/>
       </g>
       <g stroke="null" id="svg_546">
        <path stroke="null" class="st146" d="m263.14539,259.37477c-1.1084,0 -1.93969,-0.8313 -2.07824,-1.93969l-5.40343,-40.17933c-0.13855,-1.24694 0.69275,-2.21679 1.80114,-2.35534s2.21679,0.69275 2.35534,1.80114l5.40343,40.17933c0.13855,1.24694 -0.69275,2.21679 -1.80114,2.35534c-0.13855,0.13855 -0.13855,0.13855 -0.2771,0.13855z" id="svg_547"/>
       </g>
       <g stroke="null" id="svg_548">
        <path stroke="null" class="st146" d="m273.81369,259.37477c-1.1084,0 -2.07824,-0.8313 -2.21679,-2.07824l-2.49389,-38.37819c-0.13855,-1.24694 0.8313,-2.21679 1.93969,-2.35534c1.24694,-0.13855 2.21679,0.8313 2.35534,1.93969l2.49389,38.37819c0.13855,1.24694 -0.8313,2.21679 -1.93969,2.35534c-0.13855,0.13855 -0.13855,0.13855 -0.13855,0.13855z" id="svg_549"/>
       </g>
       <g stroke="null" id="svg_550">
        <path stroke="null" class="st146" d="m284.34345,259.37477l0,0c-1.24694,0 -2.21679,-0.96985 -2.21679,-2.21679l0.2771,-36.57705c0,-1.24694 0.96985,-2.07824 2.21679,-2.07824l0,0c1.24694,0 2.07824,0.96985 2.07824,2.21679l-0.2771,36.57705c0.13855,1.1084 -0.8313,2.07824 -2.07824,2.07824z" id="svg_551"/>
       </g>
       <g stroke="null" id="svg_552">
        <path stroke="null" class="st146" d="m295.01175,259.37477l-0.13855,0c-1.24694,-0.13855 -2.07824,-1.1084 -1.93969,-2.35534l3.04809,-34.63736c0.13855,-1.24694 1.1084,-2.07824 2.35534,-1.93969c1.24694,0.13855 2.07824,1.1084 1.93969,2.35534l-3.04809,34.63736c-0.13855,1.1084 -1.1084,1.93969 -2.21679,1.93969z" id="svg_553"/>
       </g>
      </g>
      <g stroke="null" id="svg_554">
       <g stroke="null" id="svg_555">
        <path stroke="null" class="st146" d="m302.63197,260.48317l-80.77431,0c-0.8313,0 -1.66259,-0.5542 -1.93969,-1.38549l-22.58356,-55.69687l0,0c0,0 -1.1084,-2.07824 -6.23472,-3.74083c-6.51182,-2.21679 -14.27059,-5.68053 -14.54769,-5.81908c-1.1084,-0.5542 -1.52404,-1.80114 -1.1084,-2.90954c0.5542,-1.1084 1.80114,-1.52404 2.90954,-1.1084c0.13855,0 7.89732,3.60229 14.13204,5.68053c7.06602,2.35534 8.59006,5.68053 8.86716,6.37327l2.07824,5.26488l105.29756,13.85494c0.5542,0.13855 1.1084,0.41565 1.38549,0.8313c0.41565,0.41565 0.5542,1.1084 0.41565,1.66259l-5.68053,35.19155c-0.2771,0.96985 -1.24694,1.80114 -2.21679,1.80114zm-79.38882,-4.29503l77.44913,0l5.12633,-31.17362l-100.58688,-13.1622l18.01143,44.33582z" id="svg_556"/>
       </g>
      </g>
      <g stroke="null" id="svg_557">
       <g stroke="null" id="svg_558">
        <path stroke="null" class="st146" d="m302.63197,260.48317l-80.77431,0c-0.8313,0 -1.66259,-0.5542 -1.93969,-1.38549l-22.58356,-55.69687l0,0c0,0 -1.1084,-2.07824 -6.23472,-3.74083c-6.51182,-2.21679 -14.27059,-5.68053 -14.54769,-5.81908c-1.1084,-0.5542 -1.52404,-1.80114 -1.1084,-2.90954c0.5542,-1.1084 1.80114,-1.52404 2.90954,-1.1084c0.13855,0 7.89732,3.60229 14.13204,5.68053c7.06602,2.35534 8.59006,5.68053 8.86716,6.37327l2.07824,5.26488l105.29756,13.85494c0.5542,0.13855 1.1084,0.41565 1.38549,0.8313c0.41565,0.41565 0.5542,1.1084 0.41565,1.66259l-5.68053,35.19155c-0.2771,0.96985 -1.24694,1.80114 -2.21679,1.80114zm-79.38882,-4.29503l77.44913,0l5.12633,-31.17362l-100.58688,-13.1622l18.01143,44.33582z" id="svg_559"/>
       </g>
      </g>
      <g stroke="null" id="svg_560">
       <g stroke="null" id="svg_561">
        <polygon stroke="null" class="st147" points="301.8006896972656,254.52554321289062 306.9270324707031,223.3519287109375 206.3401336669922,210.18972778320312 207.03286743164062,211.99085998535156 305.8186340332031,225.01454162597656 300.96942138671875,254.52554321289062 " id="svg_562"/>
       </g>
       <g stroke="null" id="svg_563">
        <path stroke="null" class="st147" d="m303.74037,258.95912l-80.77431,0c-0.8313,0 -1.66259,-0.5542 -1.93969,-1.38549l-22.58356,-55.69687c0,0 -1.1084,-2.07824 -6.23472,-3.74083c-6.51182,-2.21679 -14.27059,-5.68053 -14.54769,-5.81908c-0.96985,-0.41565 -1.38549,-1.38549 -1.24694,-2.35534c-0.41565,0.2771 -0.69275,0.5542 -0.96985,0.96985c-0.5542,1.1084 0,2.35534 1.1084,2.90954c0.2771,0.13855 8.03587,3.60229 14.54769,5.81908c5.12633,1.66259 6.23472,3.74083 6.23472,3.74083l22.58356,55.69687c0.2771,0.8313 1.1084,1.38549 1.93969,1.38549l80.77431,0c1.1084,0 1.93969,-0.8313 2.07824,-1.80114l0,0c-0.2771,0.13855 -0.69275,0.2771 -0.96985,0.2771z" id="svg_564"/>
       </g>
      </g>
      <g stroke="null" id="svg_565">
       <path stroke="null" class="st134" d="m222.96605,257.71218c-0.2771,0 -0.69275,-0.13855 -0.69275,-0.5542l-22.9992,-56.52816l-0.2771,0c-0.8313,-0.8313 -2.63244,-2.49389 -6.51182,-3.74083c-6.51182,-2.21679 -14.13204,-5.68053 -14.40914,-5.81908c-0.13855,-0.13855 -0.41565,-0.2771 -0.41565,-0.41565c-0.13855,-0.13855 0,-0.41565 0,-0.69275c0.13855,-0.2771 0.41565,-0.41565 0.69275,-0.41565c0.13855,0 0.2771,0 0.2771,0.13855c0.13855,0 7.89732,3.60229 14.27059,5.68053c6.65037,2.21679 7.89732,5.12633 8.03587,5.54198l2.49389,5.95763l105.99031,13.85494c0.2771,0 0.41565,0.13855 0.5542,0.2771s0.13855,0.41565 0.13855,0.5542l-5.68053,35.19155c0,0.41565 -0.41565,0.69275 -0.8313,0.69275l-80.63576,0l0,0.2771zm0.5542,-1.52404l79.52737,0l5.54198,-33.66751l-104.32772,-13.71639l19.25837,47.3839z" id="svg_566"/>
      </g>
      <path stroke="null" class="st137" d="m192.62373,194.81074l-13.99349,-5.68053c-1.52404,-0.5542 -3.18664,0.13855 -3.87938,1.66259c-0.5542,1.52404 0.13855,3.18664 1.66259,3.87938l14.27059,5.81908l1.93969,-5.68053z" id="svg_567"/>
      <path stroke="null" class="st134" d="m242.36297,257.57363c-0.41565,0 -0.69275,-0.2771 -0.8313,-0.69275l-3.18664,-12.608l-9.83701,-0.5542l3.87938,12.74655c0.13855,0.41565 -0.13855,0.96985 -0.5542,1.1084c-0.13855,0 -0.13855,0 -0.2771,0c-0.41565,0 -0.69275,-0.2771 -0.8313,-0.5542l-4.01793,-13.30074l-10.11411,-0.5542l0.13855,-1.66259l9.42136,0.5542l-4.84923,-16.07173l-12.46945,-1.38549l0.13855,-1.66259l11.7767,1.24694l-4.01793,-13.57784c-0.13855,-0.41565 0.13855,-0.96985 0.5542,-0.96985c0.13855,0 0.13855,0 0.2771,0c0.41565,0 0.69275,0.2771 0.8313,0.5542l4.29503,14.27059l11.08395,1.24694l-3.32519,-13.1622c0,-0.2771 0,-0.41565 0.13855,-0.69275c0.13855,-0.13855 0.2771,-0.2771 0.5542,-0.41565l0.13855,0c0.41565,0 0.69275,0.2771 0.8313,0.69275l3.46374,13.71639l11.08395,1.24694l-2.49389,-12.74655c-0.13855,-0.41565 0.2771,-0.8313 0.69275,-0.96985l0.13855,0c0.41565,0 0.69275,0.2771 0.8313,0.69275l2.49389,13.30074l11.08395,1.24694l-1.66259,-12.3309c0,-0.41565 0.2771,-0.8313 0.69275,-0.96985l0,0c0.5542,0 0.8313,0.2771 0.96985,0.69275l1.66259,12.74655l11.08395,1.24694l-0.8313,-11.91525c0,-0.2771 0,-0.41565 0.13855,-0.5542s0.41565,-0.2771 0.5542,-0.2771l0,0c0.5542,0 0.8313,0.2771 0.8313,0.8313l0.8313,12.19235l11.08395,1.24694l0.13855,-11.4996c0,-0.41565 0.41565,-0.8313 0.8313,-0.8313c0.41565,0 0.8313,0.41565 0.8313,0.8313l-0.13855,11.63815l11.08395,1.24694l0.96985,-11.08395c0,-0.41565 0.41565,-0.8313 0.8313,-0.8313c0.2771,0 0.5542,0.13855 0.69275,0.2771s0.2771,0.41565 0.13855,0.5542l-0.96985,11.2225l6.37327,0.69275l-0.13855,1.66259l-6.37327,-0.69275l-0.96985,11.91525l7.48167,0.41565l-0.13855,1.66259l-7.48167,-0.41565l-0.8313,8.86716c0,0.41565 -0.41565,0.69275 -0.8313,0.69275c-0.2771,0 -0.5542,-0.13855 -0.69275,-0.2771s-0.2771,-0.41565 -0.13855,-0.5542l0.8313,-8.72861l-9.83701,-0.5542l0,9.42136c0,0.41565 -0.41565,0.8313 -0.8313,0.8313c-0.41565,0 -0.8313,-0.41565 -0.8313,-0.8313l0,-9.55991l-9.83701,-0.5542l0.69275,10.11411c0,0.2771 0,0.41565 -0.13855,0.5542s-0.41565,0.2771 -0.5542,0.2771l0,0c-0.5542,0 -0.8313,-0.2771 -0.8313,-0.8313l-0.69275,-10.39121l-9.83701,-0.5542l1.38549,10.80686c0,0.41565 -0.2771,0.8313 -0.69275,0.96985l0,0c-0.5542,0 -0.8313,-0.2771 -0.96985,-0.69275l-1.52404,-11.08395l-9.83701,-0.5542l2.21679,11.36105c0.13855,0.41565 -0.2771,0.8313 -0.69275,0.96985l-0.13855,0c-0.41565,0 -0.69275,-0.2771 -0.8313,-0.69275l-2.35534,-11.91525l-9.83701,-0.5542l3.04809,12.0538c0.13855,0.41565 -0.13855,0.8313 -0.5542,0.96985c-0.2771,-0.2771 -0.41565,-0.2771 -0.41565,-0.2771zm44.05872,-12.0538l9.97556,0.5542l1.1084,-12.0538l-10.9454,-1.24694l-0.13855,12.74655zm-11.63815,-0.69275l9.97556,0.5542l0.13855,-12.74655l-10.9454,-1.24694l0.8313,13.43929zm-11.63815,-0.69275l9.97556,0.5542l-0.8313,-13.43929l-10.9454,-1.24694l1.80114,14.13204zm-11.7767,-0.69275l9.97556,0.5542l-1.80114,-13.99349l-10.9454,-1.24694l2.77099,14.68624zm-11.63815,-0.69275l9.97556,0.5542l-2.77099,-14.68624l-10.9454,-1.24694l3.74083,15.37899zm-11.7767,-0.69275l9.97556,0.5542l-3.87938,-15.37899l-10.9454,-1.24694l4.84923,16.07173z" id="svg_568"/>
     </g>
     <path stroke="null" class="st169" d="m154.93829,167.23941c0,0 -7.48167,-15.65608 -10.39121,-20.22822c-2.07824,-3.18664 -8.72861,-10.52976 -8.72861,-10.52976s-4.84923,2.77099 -5.68053,5.68053c-2.63244,8.31297 2.07824,17.59578 2.07824,17.59578l21.89081,22.16791l4.43358,-4.71068l-3.60229,-9.97556z" id="svg_569"/>
     <polygon stroke="null" class="st169" points="130.137939453125,129.8310546875 127.50550079345703,132.324951171875 139.97496032714844,141.74632263183594 140.2520751953125,138.00547790527344 " id="svg_570"/>
    </g>
    <g stroke="null" id="m2h">
     <g stroke="null" id="svg_571">
      <g stroke="null" id="svg_572">
       <path stroke="null" class="st142" d="m149.53486,117.36161c-0.13855,1.93969 -1.80114,3.46374 -3.74083,3.32519l-13.57784,-0.8313c-1.93969,-0.13855 -3.46374,-1.80114 -3.32519,-3.74083l0,0c0.13855,-1.93969 1.80114,-3.46374 3.74083,-3.32519l13.57784,0.8313c1.93969,0.13855 3.32519,1.80114 3.32519,3.74083l0,0z" id="svg_573"/>
       <path stroke="null" class="st142" d="m146.62532,123.45779c-0.2771,3.60229 -3.32519,6.37327 -7.06602,6.23472l-7.06602,-0.41565c-3.60229,-0.2771 -6.37327,-3.32519 -6.23472,-7.06602l0,0c0.2771,-3.60229 3.32519,-6.51182 7.06602,-6.23472l7.06602,0.41565c3.60229,0.2771 6.51182,3.46374 6.23472,7.06602l0,0z" id="svg_574"/>
       <path stroke="null" class="st141" d="m151.336,134.40319l1.24694,-20.64386c0.13855,-3.32519 -2.63244,-0.13855 -5.95763,-0.41565l-3.18664,-0.13855c-3.32519,-0.13855 -6.09617,2.35534 -6.37327,5.54198l-0.8313,14.68624l15.10189,0.96985z" id="svg_575"/>
       <path stroke="null" class="st141" d="m139.42075,123.59634c-0.13855,1.38549 -1.38549,2.49389 -2.77099,2.49389l0,0c-1.38549,-0.13855 -2.49389,-1.38549 -2.49389,-2.77099l0,0c0.13855,-1.38549 1.38549,-2.49389 2.77099,-2.49389l0,0c1.52404,0 2.63244,1.24694 2.49389,2.77099l0,0z" id="svg_576"/>
       <path stroke="null" class="st141" d="m149.95051,127.75282c0,0.8313 0.5542,1.52404 1.38549,1.66259l1.24694,0.13855c0.8313,0 1.52404,-0.5542 1.52404,-1.38549c0,0 -2.21679,-8.03587 -3.04809,-8.03587c0,0 -0.69275,0.69275 -0.69275,1.52404l-0.41565,6.09617z" id="svg_577"/>
       <path stroke="null" class="st142" d="m143.02304,132.7406c-5.95763,-0.41565 -6.51182,-2.21679 -6.51182,-4.29503c0,0 -1.93969,5.12633 -2.07824,6.78892l-0.13855,1.93969c-0.2771,3.60229 3.32519,6.78892 7.89732,7.06602l8.31297,0.5542l0.5542,-9.28281l0.13855,-2.21679l-8.17442,-0.5542z" id="svg_578"/>
       <path stroke="null" class="st142" d="m151.6131,129.41541l-4.71068,-0.2771c-2.21679,-0.13855 -4.01793,1.52404 -4.15648,3.74083c0,0.41565 0,0.69275 0.13855,0.96985l8.59006,0.5542l0.13855,-4.98778z" id="svg_579"/>
       <path stroke="null" class="st141" d="m145.23983,133.2948l-0.13855,1.38549c0,0.41565 0.2771,0.69275 0.5542,0.69275l3.87938,0.2771c0.41565,0 0.69275,-0.2771 0.69275,-0.5542l0.13855,-1.38549l-5.12633,-0.41565z" id="svg_580"/>
       <path stroke="null" class="st142" d="m150.64326,109.87994l-12.19235,-0.69275c-1.38549,-0.13855 -2.49389,0.96985 -2.49389,2.21679l-0.2771,4.71068l14.68624,0.8313l0.2771,-7.06602z" id="svg_581"/>
       <path stroke="null" class="st142" d="m158.12492,113.89788c-0.13855,1.93969 -1.80114,3.46374 -3.87938,3.32519l-8.31297,-0.5542c-1.93969,-0.13855 -3.46374,-1.80114 -3.32519,-3.87938l0,0c0.13855,-1.93969 1.80114,-3.46374 3.87938,-3.32519l8.31297,0.5542c1.93969,0.13855 3.46374,1.93969 3.32519,3.87938l0,0z" id="svg_582"/>
       <rect stroke="null" x="383.17357" y="13.42632" transform="matrix(0.0825371 -1.383 1.383 0.0825371 86.4217 652.204)" class="st142" width="6.3" height="2.4" id="svg_583"/>
       <rect stroke="null" x="386.53274" y="9.02623" transform="matrix(0.0828326 -1.383 1.383 0.0828326 94.2857 654.727)" class="st142" width="7.4" height="7" id="svg_584"/>
       <path stroke="null" class="st141" d="m140.1135,121.37955c0.13855,-2.77099 2.49389,-4.84923 5.26488,-4.57213l2.49389,0.13855c2.77099,0.13855 4.01793,2.49389 3.87938,5.12633l0,0c-0.13855,2.77099 -2.49389,4.84923 -5.26488,4.57213l-1.80114,-0.13855c-2.63244,0 -4.71068,-2.35534 -4.57213,-5.12633l0,0z" id="svg_585"/>
      </g>
     </g>
    </g>
   </g>
  </g>
 </g>
</svg>