<svg width="100" height="100" xmlns="http://www.w3.org/2000/svg" xmlns:xlink="http://www.w3.org/1999/xlink" xml:space="preserve" enable-background="new 0 0 100 100" version="1.1">
 <g>
  <title>Layer 1</title>
  <g id="svg_2">
   <polygon id="svg_3" points="9.238,67.054 2.714,73.271 9.238,79.486 81.991,79.486 81.991,67.054   " fill="#EBEBEB"/>
   <polygon id="svg_4" points="9.421,67.511 3.375,73.271 9.421,79.029 81.991,79.029 81.991,67.511   " fill="url(#SVGID_1_)"/>
   <polygon id="svg_5" points="9.238,54.622 2.714,60.839 9.238,67.054 81.991,67.054 81.991,54.622   " fill="#F7E3BE"/>
   <polygon id="svg_6" points="9.421,55.079 3.375,60.839 9.421,66.599 81.991,66.599 81.991,55.079   " fill="url(#SVGID_2_)"/>
   <polygon id="svg_7" points="9.238,42.19 2.714,48.406 9.238,54.622 81.991,54.622 81.991,42.19   " fill="#F8F5EC"/>
   <polygon id="svg_8" points="9.421,42.647 3.375,48.406 9.421,54.166 81.991,54.166 81.991,42.647   " fill="url(#SVGID_3_)"/>
   <polygon id="svg_9" points="9.238,29.759 2.714,35.974 9.238,42.19 81.991,42.19 81.991,29.759   " fill="#C9EEF2"/>
   <polygon id="svg_10" points="9.421,30.215 3.375,35.974 9.421,41.734 81.991,41.734 81.991,30.215   " fill="url(#SVGID_4_)"/>
   <polygon id="svg_11" points="9.238,17.327 2.714,23.543 9.238,29.759 81.991,29.759 81.991,17.327   " fill="#F2CCC9"/>
   <polygon id="svg_12" points="9.421,17.783 3.375,23.543 9.421,29.302 81.991,29.302 81.991,17.783   " fill="url(#SVGID_5_)"/>
  </g>
  <g id="svg_13">
   <rect id="svg_14" height="0" width="2.725" fill="#145571" y="42.19" x="76.517"/>
   <rect id="svg_15" height="0" width="2.725" fill="#145571" y="29.759" x="76.517"/>
   <rect id="svg_16" height="0" width="12.274" fill="#2399CA" y="54.622" x="77.025"/>
   <rect id="svg_17" height="0" width="6.768" fill="#2399CA" y="42.19" x="79.241"/>
   <rect id="svg_18" height="0.001" width="27.864" fill="#2399CA" y="67.054" x="69.421"/>
   <rect id="svg_19" height="9.973" width="0" fill="#2399CA" y="24.772" x="84.228"/>
   <rect id="svg_20" height="0" width="2.726" fill="#145875" y="54.622" x="74.3"/>
   <rect id="svg_21" height="0.001" width="2.726" fill="#145875" y="67.054" x="66.695"/>
   <rect id="svg_22" height="7.831" width="2.725" fill="url(#SVGID_6_)" y="21.928" x="76.517"/>
   <polygon id="svg_23" points="79.241,21.928 84.271,17.327 81.546,17.327 76.517,21.928   " fill="url(#SVGID_7_)"/>
   <polygon id="svg_24" points="79.241,29.759 89.214,29.759 89.297,29.654 86.231,25.792 89.3,21.928 84.271,17.327     79.241,21.928   " fill="#E52A18"/>
   <rect id="svg_25" height="12.432" width="2.725" fill="url(#SVGID_8_)" y="29.759" x="76.517"/>
   <polygon id="svg_26" points="79.241,42.19 86.009,42.19 86.009,41.363 89.297,37.38 86.231,33.517 89.214,29.759     79.241,29.759   " fill="url(#SVGID_9_)"/>
   <rect id="svg_27" height="7.355" width="2.725" fill="url(#SVGID_10_)" y="42.19" x="76.517"/>
   <polygon id="svg_28" points="74.3,50.311 77.025,50.311 79.241,49.545 76.517,49.545   " fill="url(#SVGID_11_)"/>
   <polygon id="svg_29" points="79.241,49.545 77.025,50.311 77.025,54.622 89.3,54.622 89.3,50.439 86.009,45.392     86.009,42.19 79.241,42.19   " fill="url(#SVGID_12_)"/>
   <rect id="svg_30" height="4.311" width="2.726" fill="url(#SVGID_13_)" y="50.311" x="74.3"/>
   <path id="svg_31" d="m77.025,55.669c0,1.214 -0.707,2.316 -1.804,2.816l-4.138,1.883c-1.011,0.459 -1.663,1.477 -1.663,2.598l0,4.088l27.864,0l0,-3.893c0,-1.237 -0.726,-2.351 -1.851,-2.84l-4.278,-1.853c-1.124,-0.487 -1.856,-1.604 -1.856,-2.842l0,-1.005l-12.274,0l0,1.048z" fill="url(#SVGID_14_)"/>
   <path id="svg_32" d="m69.421,62.966c0,-1.121 0.652,-2.139 1.663,-2.598l4.138,-1.883c1.097,-0.5 1.804,-1.603 1.804,-2.816l0,-1.047l-2.726,0l0,1.047c0,1.214 -0.706,2.316 -1.803,2.816l-4.139,1.883c-1.011,0.459 -1.663,1.477 -1.663,2.598l0,4.088l2.726,0l0,-4.088z" fill="url(#SVGID_15_)"/>
   <path id="svg_33" d="m69.421,62.966c0,-1.121 0.652,-2.139 1.663,-2.598l4.138,-1.883c1.097,-0.5 1.804,-1.603 1.804,-2.816l0,-1.047l-2.726,0l0,1.047c0,1.214 -0.706,2.316 -1.803,2.816l-4.139,1.883c-1.011,0.459 -1.663,1.477 -1.663,2.598l0,4.088l2.726,0l0,-4.088z" fill="url(#SVGID_16_)"/>
   <path id="svg_34" d="m69.421,62.966c0,-1.121 0.652,-2.139 1.663,-2.598l4.138,-1.883c1.097,-0.5 1.804,-1.603 1.804,-2.816l0,-1.047l-2.726,0l0,1.047c0,1.214 -0.706,2.316 -1.803,2.816l-4.139,1.883c-1.011,0.459 -1.663,1.477 -1.663,2.598l0,4.088l2.726,0l0,-4.088z" fill="url(#SVGID_17_)"/>
   <path id="svg_35" d="m69.421,62.966c0,-1.121 0.652,-2.139 1.663,-2.598l4.138,-1.883c1.097,-0.5 1.804,-1.603 1.804,-2.816l0,-1.047l-2.726,0l0,1.047c0,1.214 -0.706,2.316 -1.803,2.816l-4.139,1.883c-1.011,0.459 -1.663,1.477 -1.663,2.598l0,4.088l2.726,0l0,-4.088z" fill="url(#SVGID_18_)"/>
   <path id="svg_36" d="m83.855,71.666c0,0.102 -0.007,0.202 -0.015,0.301c-0.002,0.029 -0.007,0.058 -0.011,0.086c-0.009,0.072 -0.02,0.146 -0.033,0.218c-0.004,0.027 -0.009,0.055 -0.015,0.082c-0.021,0.096 -0.043,0.189 -0.072,0.281c0,0.003 -0.001,0.004 -0.001,0.006c-0.029,0.091 -0.062,0.179 -0.097,0.265c-0.01,0.024 -0.021,0.05 -0.032,0.072c-0.028,0.069 -0.06,0.134 -0.095,0.2c-0.01,0.021 -0.021,0.043 -0.033,0.063c-0.045,0.085 -0.095,0.166 -0.147,0.246c-0.002,0.002 -0.004,0.006 -0.005,0.008c-0.052,0.075 -0.105,0.148 -0.164,0.22c-0.016,0.019 -0.03,0.038 -0.047,0.057c-0.049,0.059 -0.097,0.113 -0.148,0.167c-0.016,0.015 -0.031,0.031 -0.048,0.048c-0.067,0.067 -0.137,0.132 -0.21,0.191c-0.004,0.006 -0.01,0.01 -0.015,0.014c-0.067,0.057 -0.137,0.107 -0.209,0.157c-0.021,0.015 -0.043,0.029 -0.065,0.044c-0.061,0.04 -0.122,0.079 -0.185,0.114c-0.021,0.013 -0.041,0.024 -0.063,0.035c-0.052,0.027 -0.104,0.052 -0.154,0.076c0.413,0.194 0.874,0.308 1.363,0.308c0.102,0 0.203,-0.006 0.303,-0.015c0.035,-0.005 0.07,-0.009 0.105,-0.014l0,0c0.061,-0.008 0.121,-0.018 0.181,-0.028c0,0 0.001,0 0.003,0c0.085,-0.018 0.17,-0.038 0.252,-0.061c0.024,-0.005 0.047,-0.013 0.069,-0.018c0.008,-0.001 0.017,-0.003 0.022,-0.006c0.111,-0.034 0.223,-0.074 0.328,-0.121l0,0c0.083,-0.035 0.162,-0.074 0.24,-0.117c0.006,0 0.009,-0.002 0.012,-0.005c0.021,-0.011 0.042,-0.022 0.063,-0.035c0.006,-0.003 0.012,-0.008 0.018,-0.012c0.057,-0.033 0.114,-0.066 0.169,-0.104c0.021,-0.014 0.043,-0.028 0.063,-0.042c0.073,-0.051 0.143,-0.103 0.21,-0.159c0.005,-0.004 0.011,-0.007 0.016,-0.012c0.072,-0.062 0.144,-0.126 0.211,-0.193c0.015,-0.016 0.029,-0.03 0.043,-0.045c0.032,-0.035 0.064,-0.07 0.096,-0.106c0.019,-0.021 0.039,-0.041 0.056,-0.063c0.016,-0.018 0.031,-0.037 0.046,-0.055c0.041,-0.052 0.079,-0.105 0.118,-0.159c0.05,-0.07 0.097,-0.144 0.142,-0.22c0.019,-0.031 0.04,-0.063 0.057,-0.096c0.013,-0.021 0.023,-0.042 0.034,-0.063c0.034,-0.066 0.065,-0.131 0.095,-0.2c0.011,-0.022 0.021,-0.047 0.031,-0.07c0.035,-0.087 0.068,-0.176 0.098,-0.269c0,-0.001 0.001,-0.002 0.001,-0.004c0.012,-0.037 0.021,-0.078 0.029,-0.116c0.014,-0.056 0.029,-0.11 0.042,-0.166c0.006,-0.026 0.011,-0.052 0.015,-0.079c0.009,-0.043 0.014,-0.088 0.021,-0.134c0.004,-0.028 0.011,-0.057 0.014,-0.086c0.003,-0.028 0.007,-0.057 0.011,-0.086c0.007,-0.099 0.014,-0.199 0.014,-0.301c0,-1.802 -1.444,-3.263 -3.225,-3.263c-0.489,0 -0.95,0.113 -1.363,0.308c1.097,0.521 1.861,1.647 1.861,2.956z" fill="url(#SVGID_19_)"/>
   <path id="svg_37" d="m69.421,67.055l0,4.854c0,1.146 0.679,2.179 1.72,2.627l11.021,4.705c0.382,0.163 0.785,0.246 1.191,0.246c0.405,0 0.81,-0.083 1.19,-0.246l10.877,-4.643c1.13,-0.483 1.864,-1.605 1.864,-2.85l0,-4.693l-27.863,0zm17.121,5.084c-0.007,0.045 -0.012,0.089 -0.019,0.132c0,0.001 -0.002,0.001 -0.002,0.002c-0.004,0.027 -0.009,0.053 -0.015,0.079l0,0c-0.013,0.056 -0.028,0.11 -0.042,0.166c-0.011,0.04 -0.02,0.081 -0.03,0.12c-0.001,0.001 -0.001,0.002 -0.001,0.002c-0.028,0.091 -0.062,0.18 -0.097,0.265c0,0.001 0,0.001 0,0.002c-0.062,0.148 -0.135,0.292 -0.217,0.43c-0.03,0.051 -0.059,0.103 -0.091,0.15c-0.001,0.001 -0.002,0.003 -0.003,0.007c-0.016,0.021 -0.033,0.042 -0.048,0.063c-0.068,0.098 -0.141,0.188 -0.22,0.277c-0.031,0.034 -0.063,0.07 -0.094,0.104c-0.001,0.001 -0.002,0.002 -0.002,0.002c-0.014,0.015 -0.028,0.029 -0.043,0.045l-0.002,0.001c-0.067,0.067 -0.137,0.132 -0.209,0.192c-0.005,0.004 -0.011,0.008 -0.016,0.012c0,0 0,0 0,0.001c-0.067,0.056 -0.137,0.107 -0.21,0.157c0,0.001 0,0.001 0,0.001c-0.02,0.015 -0.041,0.028 -0.063,0.042c0,0 -0.002,0 -0.002,0.001c-0.055,0.036 -0.111,0.069 -0.167,0.103c-0.03,0.018 -0.061,0.036 -0.093,0.052c-0.074,0.041 -0.152,0.081 -0.231,0.114c-0.003,0.001 -0.005,0.002 -0.009,0.003c-0.105,0.047 -0.217,0.087 -0.328,0.121l0,0c-0.007,0.003 -0.015,0.005 -0.022,0.006c-0.105,0.032 -0.213,0.057 -0.324,0.078c-0.015,0.003 -0.028,0.008 -0.042,0.01c-0.046,0.008 -0.093,0.012 -0.139,0.019c-0.134,0.017 -0.271,0.028 -0.408,0.028c-0.489,0 -0.95,-0.113 -1.363,-0.308c-1.103,-0.519 -1.867,-1.645 -1.867,-2.951c0,-1.309 0.765,-2.435 1.867,-2.955c0.413,-0.194 0.874,-0.308 1.363,-0.308c1.78,0 3.225,1.461 3.225,3.263c0.002,0.16 -0.013,0.318 -0.036,0.472z" fill="url(#SVGID_20_)"/>
   <path id="svg_38" d="m71.141,74.535c-1.041,-0.448 -1.72,-1.481 -1.72,-2.627l0,-4.854l-2.726,0l0,4.854c0,1.146 0.679,2.179 1.721,2.627l11.021,4.705c0.381,0.163 0.785,0.246 1.19,0.246l2.727,0c-0.406,0 -0.81,-0.083 -1.191,-0.246l-11.022,-4.705z" fill="url(#SVGID_21_)"/>
   <path id="svg_39" d="m71.141,74.535c-1.041,-0.448 -1.72,-1.481 -1.72,-2.627l0,-4.854l-2.726,0l0,4.854c0,1.146 0.679,2.179 1.721,2.627l11.021,4.705c0.381,0.163 0.785,0.246 1.19,0.246l2.727,0c-0.406,0 -0.81,-0.083 -1.191,-0.246l-11.022,-4.705z" fill="url(#SVGID_22_)"/>
  </g>
  <g id="svg_40">
   <defs transform="translate(-104 40.6667)">
    <polygon points="79.241,49.545 77.025,50.311 77.025,54.622 89.3,54.622 89.3,50.439 86.009,45.392 86.009,42.19      79.241,42.19    " id="SVGID_23_"/>
    <linearGradient y2="0.49996" x2="1.2294" y1="0.49996" x1="-0.03578" id="SVGID_1_">
     <stop stop-color="#4D6162" offset="0"/>
     <stop stop-color="#4C5F60" offset="0.4904"/>
     <stop stop-color="#465859" offset="0.667"/>
     <stop stop-color="#3D4D4E" offset="0.793"/>
     <stop stop-color="#2F3C3D" offset="0.8947"/>
     <stop stop-color="#1E2727" offset="0.9809"/>
     <stop stop-color="#192121" offset="1"/>
    </linearGradient>
    <linearGradient y2="0.49999" x2="1.121" y1="0.49999" x1="-0.00851" id="SVGID_2_">
     <stop stop-color="#FBB400" offset="0.0215"/>
     <stop stop-color="#FAB200" offset="0.2996"/>
     <stop stop-color="#F7A900" offset="0.4578"/>
     <stop stop-color="#F19B00" offset="0.5859"/>
     <stop stop-color="#E88800" offset="0.6979"/>
     <stop stop-color="#DE6E00" offset="0.7993"/>
     <stop stop-color="#D04F00" offset="0.8932"/>
     <stop stop-color="#C12A00" offset="0.9796"/>
     <stop stop-color="#BD2000" offset="1"/>
    </linearGradient>
    <linearGradient y2="0.49998" x2="1.11706" y1="0.49998" x1="-0.0269" id="SVGID_3_">
     <stop stop-color="#D6D1C4" offset="0.0806"/>
     <stop stop-color="#D4CFC2" offset="0.476"/>
     <stop stop-color="#CDC9BC" offset="0.6184"/>
     <stop stop-color="#C2BDB1" offset="0.7199"/>
     <stop stop-color="#B1ADA2" offset="0.802"/>
     <stop stop-color="#9B988E" offset="0.8723"/>
     <stop stop-color="#7F7D76" offset="0.9345"/>
     <stop stop-color="#605F59" offset="0.9894"/>
     <stop stop-color="#595853" offset="1"/>
    </linearGradient>
    <linearGradient y2="0.50001" x2="1.11048" y1="0.50001" x1="-0.04276" id="SVGID_4_">
     <stop stop-color="#07C1D6" offset="0.0054"/>
     <stop stop-color="#07BFD4" offset="0.4119"/>
     <stop stop-color="#07B9CD" offset="0.5583"/>
     <stop stop-color="#06AFC2" offset="0.6627"/>
     <stop stop-color="#069FB1" offset="0.7471"/>
     <stop stop-color="#058C9B" offset="0.8194"/>
     <stop stop-color="#04737F" offset="0.8834"/>
     <stop stop-color="#03565F" offset="0.9412"/>
     <stop stop-color="#02353B" offset="0.9927"/>
     <stop stop-color="#023035" offset="1"/>
    </linearGradient>
    <linearGradient y2="0.5" x2="0.00322" y1="0.5" x1="1.21267" id="SVGID_5_">
     <stop stop-color="#731717" offset="0"/>
     <stop stop-color="#831C19" offset="0.0338"/>
     <stop stop-color="#9E241D" offset="0.103"/>
     <stop stop-color="#B42A20" offset="0.1827"/>
     <stop stop-color="#C52F22" offset="0.2757"/>
     <stop stop-color="#D03224" offset="0.3907"/>
     <stop stop-color="#D73425" offset="0.552"/>
     <stop stop-color="#D93525" offset="1"/>
    </linearGradient>
    <linearGradient y2="0.50004" x2="1.15406" y1="0.50004" x1="-0.00015" id="SVGID_6_">
     <stop stop-color="#420D0D" offset="0"/>
     <stop stop-color="#6C1814" offset="0.2996"/>
     <stop stop-color="#D43424" offset="0.972"/>
     <stop stop-color="#D93525" offset="1"/>
    </linearGradient>
    <linearGradient y2="0.74621" x2="0.63703" y1="0.33623" x1="0.40863" id="SVGID_7_">
     <stop stop-color="#420D0D" offset="0"/>
     <stop stop-color="#541210" offset="0.0912"/>
     <stop stop-color="#8D2119" offset="0.4006"/>
     <stop stop-color="#B62C1F" offset="0.6662"/>
     <stop stop-color="#D03324" offset="0.8745"/>
     <stop stop-color="#D93525" offset="1"/>
    </linearGradient>
    <linearGradient y2="0.49997" x2="-0.1026" y1="0.49997" x1="1.31079" id="SVGID_8_">
     <stop stop-color="#06AEC1" offset="0"/>
     <stop stop-color="#035761" offset="0.6657"/>
     <stop stop-color="#023035" offset="1"/>
    </linearGradient>
    <linearGradient y2="4.39249" x2="0.50005" y1="-1.23928" x1="0.50005" id="SVGID_9_">
     <stop stop-color="#00C9E1" offset="0.0054"/>
     <stop stop-color="#00C6DE" offset="0.1813"/>
     <stop stop-color="#00BDD3" offset="0.3296"/>
     <stop stop-color="#00ADC2" offset="0.4681"/>
     <stop stop-color="#0097A9" offset="0.6005"/>
     <stop stop-color="#007A89" offset="0.7287"/>
     <stop stop-color="#005762" offset="0.8536"/>
     <stop stop-color="#002E35" offset="0.9738"/>
     <stop stop-color="#00242A" offset="1"/>
    </linearGradient>
    <linearGradient y2="0.50003" x2="-0.04958" y1="0.50003" x1="1.08429" id="SVGID_10_">
     <stop stop-color="#B3AFA4" offset="0"/>
     <stop stop-color="#7C7A72" offset="0.4571"/>
     <stop stop-color="#403F3B" offset="0.9946"/>
    </linearGradient>
    <linearGradient y2="-0.23355" x2="0.45817" y1="1.87976" x1="0.57867" id="SVGID_11_">
     <stop stop-color="#C0BCB0" offset="0"/>
     <stop stop-color="#89867E" offset="0.4467"/>
     <stop stop-color="#403F3B" offset="0.9946"/>
    </linearGradient>
    <linearGradient y2="3.3923" x2="0.49997" y1="-2.23918" x1="0.49997" id="SVGID_12_">
     <stop stop-color="#E1DCCD" offset="0"/>
     <stop stop-color="#DFDACB" offset="0.3107"/>
     <stop stop-color="#D7D2C4" offset="0.473"/>
     <stop stop-color="#C9C5B8" offset="0.601"/>
     <stop stop-color="#B6B3A6" offset="0.7111"/>
     <stop stop-color="#9E9A90" offset="0.8096"/>
     <stop stop-color="#7F7D74" offset="0.8999"/>
     <stop stop-color="#5C5A54" offset="0.9824"/>
     <stop stop-color="#53524C" offset="1"/>
    </linearGradient>
    <linearGradient y2="0.49984" x2="-0.03973" y1="0.49984" x1="1.13771" id="SVGID_13_">
     <stop stop-color="#ABA79D" offset="0"/>
     <stop stop-color="#7F7C75" offset="0.4301"/>
     <stop stop-color="#403F3B" offset="0.9946"/>
    </linearGradient>
    <linearGradient y2="2.39213" x2="0.50005" y1="-3.2388" x1="0.50005" id="SVGID_14_">
     <stop stop-color="#FFBB00" offset="0.0215"/>
     <stop stop-color="#FEB800" offset="0.2615"/>
     <stop stop-color="#FAAF00" offset="0.4284"/>
     <stop stop-color="#F3A000" offset="0.5731"/>
     <stop stop-color="#E98A00" offset="0.7052"/>
     <stop stop-color="#DD6E00" offset="0.8286"/>
     <stop stop-color="#CE4B00" offset="0.9442"/>
     <stop stop-color="#C53800" offset="1"/>
    </linearGradient>
    <radialGradient gradientUnits="userSpaceOnUse" r="13.1158" cy="65.0205" cx="77.96" id="SVGID_15_">
     <stop stop-color="#FFBB00" offset="0.0215"/>
     <stop stop-color="#FDB500" offset="0.1319"/>
     <stop stop-color="#F6A600" offset="0.2732"/>
     <stop stop-color="#EA8B00" offset="0.4312"/>
     <stop stop-color="#DA6700" offset="0.6003"/>
     <stop stop-color="#D76000" offset="0.629"/>
     <stop stop-color="#A03E00" offset="0.8374"/>
     <stop stop-color="#732100" offset="1"/>
    </radialGradient>
    <radialGradient gradientUnits="userSpaceOnUse" r="6.396" cy="54.2881" cx="71.0557" id="SVGID_16_">
     <stop stop-color="#000000" offset="0.4462"/>
     <stop stop-color="#464646" offset="0.5734"/>
     <stop stop-color="#949494" offset="0.728"/>
     <stop stop-color="#CECECE" offset="0.8557"/>
     <stop stop-color="#F2F2F2" offset="0.9498"/>
     <stop stop-color="#FFFFFF" offset="1"/>
    </radialGradient>
    <radialGradient gradientUnits="userSpaceOnUse" r="6.3957" cy="55.3818" cx="68.2041" id="SVGID_17_">
     <stop stop-color="#000000" offset="0.4462"/>
     <stop stop-color="#464646" offset="0.5734"/>
     <stop stop-color="#949494" offset="0.728"/>
     <stop stop-color="#CECECE" offset="0.8557"/>
     <stop stop-color="#F2F2F2" offset="0.9498"/>
     <stop stop-color="#FFFFFF" offset="1"/>
    </radialGradient>
    <radialGradient gradientUnits="userSpaceOnUse" r="9.8908" cy="62.2285" cx="59.9316" id="SVGID_18_">
     <stop stop-color="#000000" offset="0.2258"/>
     <stop stop-color="#464646" offset="0.4036"/>
     <stop stop-color="#949494" offset="0.6197"/>
     <stop stop-color="#CECECE" offset="0.7983"/>
     <stop stop-color="#F2F2F2" offset="0.9298"/>
     <stop stop-color="#FFFFFF" offset="1"/>
    </radialGradient>
    <radialGradient gradientUnits="userSpaceOnUse" r="4.424" cy="71.8984" cx="83.126" id="SVGID_19_">
     <stop stop-color="#0E1717" offset="0.4022"/>
     <stop stop-color="#354747" offset="1"/>
    </radialGradient>
    <linearGradient y2="1.39225" x2="0.50004" y1="-4.23914" x1="0.50004" id="SVGID_20_">
     <stop stop-color="#455C5D" offset="0"/>
     <stop stop-color="#435A5B" offset="0.4676"/>
     <stop stop-color="#3D5354" offset="0.6568"/>
     <stop stop-color="#334748" offset="0.7957"/>
     <stop stop-color="#253636" offset="0.9093"/>
     <stop stop-color="#142222" offset="1"/>
    </linearGradient>
    <linearGradient y2="0.78702" x2="0.42007" y1="0.3841" x1="0.53229" id="SVGID_21_">
     <stop stop-color="#455C5D" offset="0"/>
     <stop stop-color="#425859" offset="0.2705"/>
     <stop stop-color="#394D4E" offset="0.5237"/>
     <stop stop-color="#293B3B" offset="0.7692"/>
     <stop stop-color="#142222" offset="1"/>
    </linearGradient>
    <linearGradient y2="0.50004" x2="-0.02641" y1="0.50004" x1="0.26105" id="SVGID_22_">
     <stop stop-color="#808080" offset="0.3978"/>
     <stop stop-color="#7B7B7B" offset="0.4967"/>
     <stop stop-color="#6E6E6E" offset="0.6053"/>
     <stop stop-color="#585858" offset="0.7185"/>
     <stop stop-color="#393939" offset="0.8348"/>
     <stop stop-color="#121212" offset="0.9524"/>
     <stop stop-color="#000000" offset="1"/>
    </linearGradient>
    <radialGradient gradientTransform="matrix(1,0,0,1,-104,40.66666793823242)" gradientUnits="userSpaceOnUse" r="7.9448" cy="51.4492" cx="79.3281" id="SVGID_25_">
     <stop stop-color="#6B6B6B" offset="0"/>
     <stop stop-color="#2C2C2C" offset="0.5703"/>
     <stop stop-color="#000000" offset="1"/>
    </radialGradient>
   </defs>
   <clipPath transform="translate(-104 40.6667)" id="SVGID_24_">
    <use x="-104" y="40.66667" id="svg_41" overflow="visible" xlink:href="#SVGID_23_"/>
   </clipPath>
   <circle id="svg_42" r="7.945" cy="92.11567" cx="-24.672" fill="url(#SVGID_25_)" clip-path="url(#SVGID_24_)"/>
  </g>
 </g>
</svg>