<?xml version="1.0" encoding="utf-8"?>
<!-- Generator: Adobe Illustrator 16.0.0, SVG Export Plug-In . SVG Version: 6.00 Build 0)  -->
<!DOCTYPE svg PUBLIC "-//W3C//DTD SVG 1.1//EN" "http://www.w3.org/Graphics/SVG/1.1/DTD/svg11.dtd">
<svg version="1.1" id="Layer_1" xmlns="http://www.w3.org/2000/svg" xmlns:xlink="http://www.w3.org/1999/xlink" x="0px" y="0px"
	 width="20px" height="20px" viewBox="0 0 20 20" enable-background="new 0 0 20 20" xml:space="preserve">
<g>
	<path fill-rule="evenodd" clip-rule="evenodd" fill="#415A73" d="M7.141,3.417L5.993,2.754L5.882,2.707L5.77,2.671l-0.12-0.03
		L5.527,2.621L5.4,2.609L5.271,2.607l-0.135,0.01L4.999,2.631L4.858,2.657L4.715,2.693L4.567,2.74L4.419,2.794L4.267,2.86
		L4.113,2.936L3.957,3.02L3.801,3.115L3.647,3.219l-0.15,0.108l-0.15,0.116L3.201,3.568L3.058,3.697L2.916,3.834L2.779,3.977
		L2.646,4.123L2.514,4.275L2.389,4.433L2.265,4.594L2.147,4.761l-0.115,0.17l-0.11,0.173L1.816,5.281l-0.101,0.18l-0.095,0.18
		l-0.09,0.184L1.446,6.013L1.368,6.2L1.294,6.388L1.228,6.578l-0.06,0.188L1.113,6.958L1.066,7.147L1.025,7.336L0.991,7.525
		L0.964,7.712L0.944,7.9l-0.01,0.184L0.929,8.266l0.005,0.177l0.01,0.17l0.02,0.165l0.026,0.156l0.034,0.15l0.041,0.143l0.047,0.134
		L1.167,9.49l0.06,0.118L1.294,9.72l0.074,0.105l0.078,0.096l0.084,0.088l0.09,0.081l0.095,0.071l0.416,0.241l0.728,0.419
		l4.269-7.41L7.141,3.417L7.141,3.417z M6.798,3.304h0.004H6.798L6.798,3.304L6.798,3.304z M6.91,3.332l0.006,0.002l0.008,0.002
		C6.919,3.333,6.916,3.333,6.91,3.332L6.91,3.332z M7.021,3.367l0.01,0.003l0.013,0.004C7.036,3.372,7.029,3.369,7.021,3.367z"/>
	<path fill-rule="evenodd" clip-rule="evenodd" fill="#2C3E50" d="M5.104,10.675C6.777,9.71,8.131,7.364,8.131,5.433
		c0-1.931-1.354-2.716-3.027-1.75c-1.67,0.966-3.029,3.314-3.029,5.245C2.075,10.86,3.434,11.64,5.104,10.675z"/>
	<path fill-rule="evenodd" clip-rule="evenodd" fill="#E6EAEB" d="M6.872,4.658L6.458,4.419L6.379,4.386L6.296,4.357L6.21,4.337
		L6.123,4.324L6.03,4.317L5.938,4.314L5.84,4.318L5.742,4.331L5.64,4.35L5.537,4.376L5.432,4.41l-0.107,0.04L5.216,4.496
		L5.104,4.549L4.993,4.612L4.88,4.681L4.768,4.753L4.66,4.833L4.553,4.917L4.447,5.005L4.343,5.098L4.242,5.196l-0.1,0.103
		L4.047,5.406L3.953,5.518L3.861,5.63l-0.09,0.116L3.687,5.864L3.604,5.987L3.525,6.111L3.45,6.24L3.377,6.369L3.309,6.5
		L3.245,6.634l-0.06,0.13L3.126,6.9L3.074,7.037L3.026,7.172L2.983,7.311l-0.04,0.138L2.908,7.583L2.88,7.72L2.855,7.854L2.837,7.99
		L2.821,8.125L2.813,8.258L2.811,8.39l0.002,0.127l0.008,0.122l0.016,0.121l0.018,0.113L2.88,8.979l0.028,0.104l0.035,0.097
		l0.04,0.092l0.042,0.086l0.048,0.079l0.052,0.078l0.059,0.068l0.06,0.062l0.064,0.058l0.068,0.052l0.3,0.173l0.11,0.066
		c0.399,0.277,0.695,0.426,1.617-0.106c0.923-0.534,2.182-2.709,2.182-3.778c0-1.067-0.281-1.25-0.725-1.455L6.872,4.658
		L6.872,4.658z M6.623,4.576h0.002l0.002,0.001C6.627,4.577,6.625,4.577,6.623,4.576L6.623,4.576z M6.705,4.598
		c0.004,0,0.008,0,0.012,0.002L6.711,4.598H6.705L6.705,4.598z M6.786,4.622c0.004,0.002,0.01,0.004,0.016,0.006l-0.01-0.002
		L6.786,4.622z"/>
	<path fill-rule="evenodd" clip-rule="evenodd" fill="#BDBDBD" d="M5.405,9.887C6.611,9.19,7.586,7.503,7.586,6.109
		c0-1.389-0.976-1.955-2.182-1.26C4.201,5.545,3.223,7.238,3.223,8.628S4.201,10.584,5.405,9.887z"/>
	<path fill-rule="evenodd" clip-rule="evenodd" fill="#E8D5A7" d="M8.381,15.908L6.506,14.42L4.105,9.873L4.04,9.825l-0.06-0.056
		L3.921,9.708L3.867,9.643l-0.05-0.071L3.771,9.494L3.73,9.414L3.693,9.326L3.661,9.234L3.633,9.136L3.608,9.035L3.592,8.926
		L3.576,8.813L3.57,8.697L3.566,8.577L3.57,8.452l0.006-0.126l0.016-0.127l0.016-0.13l0.025-0.128l0.028-0.13l0.032-0.129
		L3.73,7.551l0.041-0.128l0.046-0.131l0.05-0.129l0.054-0.127l0.058-0.128l0.06-0.125l0.065-0.126l0.07-0.123l0.071-0.119
		l0.075-0.121L4.4,6.178l0.082-0.113l0.084-0.11l0.086-0.108c1.485-1.736,4.792-1.148,6.675-0.557
		c0.318,0.101,0.555,0.309,0.695,0.611l0.439,0.952c0.109,0.236,0.137,0.473,0.081,0.728l-0.367,1.667l2.014,4.587l-2.109,1.179
		c0.04,0.139-0.467,0.737-1.037,0.576c-0.084,0.119-0.03,0.392-0.668,0.371c0.03,0.117-0.127,0.23-0.413,0.23l-1.336-0.179
		C8.532,16,8.457,15.966,8.381,15.908z"/>
	<path fill-rule="evenodd" clip-rule="evenodd" fill="#C2AC78" d="M13.845,13.988l-1.196-0.941l-0.916-1.417l-0.801-0.806
		c-0.388-0.388-0.589-0.853-0.611-1.401l-0.035-1.009L8.552,8.243l-0.687,0.82c-0.186,0.222-0.463,0.345-0.739,0.26l-0.646-0.2
		C6.418,9.104,6.374,9.062,6.352,9.002C6.328,8.941,6.334,8.879,6.37,8.825l1.349-2.124c0.097-0.152,0.236-0.27,0.413-0.296
		l2.879-0.448c0.063-0.01,0.124,0.024,0.171,0.067l1.739,1.531c1.513,1.33,0.793,1.307,2.302,1.668
		c0.453,0.108,0.701,0.225,1.381,0.49c1.054,2.094-0.53,3.628-2.081,4.11C14.522,13.822,13.98,14.042,13.845,13.988z"/>
	<path fill-rule="evenodd" clip-rule="evenodd" fill="#C2AC78" d="M11.043,15.589c-0.585-0.021-1.155-0.163-1.642-0.566
		c-0.489-0.399-1.482-1.397-1.391-1.489c0.052-0.054,1.012,0.99,1.482,1.38C9.964,15.301,10.55,15.453,11.043,15.589z"/>
	<path fill-rule="evenodd" clip-rule="evenodd" fill="#C2AC78" d="M12.078,15.022c-0.534-0.008-1.085,0-1.573-0.426
		c-0.489-0.429-1.915-1.671-1.844-1.747c0.079-0.087,1.536,1.246,1.958,1.638C11.041,14.879,11.647,14.905,12.078,15.022z"/>
	<path fill-rule="evenodd" clip-rule="evenodd" fill="#C2AC78" d="M13.37,14.376c-0.697-0.077-1.479-0.183-2.039-0.669
		c-0.562-0.487-1.74-1.511-1.67-1.593c0.07-0.077,1.348,1.048,1.833,1.493C11.979,14.057,12.788,14.191,13.37,14.376z"/>
	<path fill-rule="evenodd" clip-rule="evenodd" fill="#C2AC78" d="M10.375,15.964c-0.546-0.056-1.254-0.169-1.677-0.542
		c-0.424-0.372-1.264-1.117-1.195-1.188c0.078-0.086,0.929,0.824,1.317,1.106C9.208,15.629,9.962,15.865,10.375,15.964z"/>
	<path fill-rule="evenodd" clip-rule="evenodd" fill="#415A73" d="M18.197,9.341l-1.148-0.663l-0.113-0.047l-0.111-0.037
		l-0.121-0.028l-0.119-0.021l-0.127-0.011l-0.132-0.002L16.194,8.54l-0.143,0.016l-0.14,0.027l-0.141,0.038l-0.147,0.045
		l-0.151,0.054l-0.148,0.066l-0.155,0.076l-0.157,0.086l-0.155,0.093l-0.152,0.102l-0.153,0.11L14.399,9.37l-0.141,0.124
		l-0.149,0.129l-0.139,0.136l-0.138,0.143l-0.131,0.146L13.569,10.2l-0.128,0.157l-0.123,0.162l-0.117,0.167l-0.115,0.168
		l-0.109,0.175l-0.105,0.177l-0.099,0.181l-0.098,0.18l-0.088,0.185l-0.085,0.187l-0.078,0.188l-0.075,0.188l-0.065,0.188
		l-0.062,0.189l-0.056,0.19l-0.046,0.192l-0.04,0.188l-0.035,0.188l-0.024,0.187l-0.02,0.188l-0.014,0.185l-0.002,0.183l0.002,0.177
		l0.014,0.171l0.02,0.163l0.024,0.155l0.035,0.153l0.04,0.141l0.046,0.135l0.056,0.13l0.062,0.119l0.065,0.111l0.075,0.104
		l0.078,0.095l0.085,0.09l0.088,0.079l0.098,0.074l0.413,0.238l0.731,0.423l4.267-7.412L18.197,9.341L18.197,9.341z M17.852,9.229
		L17.852,9.229l0.004,0.001L17.852,9.229L17.852,9.229z M17.965,9.255l0.009,0.004l0.006,0.001
		C17.976,9.259,17.974,9.259,17.965,9.255L17.965,9.255z M18.076,9.292c0.008,0.001,0.017,0.005,0.024,0.007l-0.017-0.004
		L18.076,9.292z"/>
	<path fill-rule="evenodd" clip-rule="evenodd" fill="#2C3E50" d="M16.16,16.601c1.67-0.964,3.027-3.312,3.027-5.245
		c0-1.928-1.357-2.712-3.027-1.748c-1.669,0.966-3.028,3.316-3.028,5.246C13.132,16.787,14.491,17.564,16.16,16.601z"/>
	<path fill-rule="evenodd" clip-rule="evenodd" fill="#C2AC78" d="M7.255,14.988L6.37,14.963c-0.137-0.004-0.251-0.05-0.353-0.144
		L5.88,14.694C5.762,14.589,5.7,14.45,5.7,14.287v-0.346l-0.077-0.021C5.509,13.89,5.42,13.832,5.346,13.74l-0.249-0.306
		c-0.076-0.092-0.116-0.199-0.12-0.324l-0.009-0.24l-0.09-0.03c-0.135-0.052-0.237-0.133-0.312-0.256l-0.155-0.259
		c-0.103-0.171-0.148-0.346-0.135-0.545l0.007-0.111C3.948,11.507,3.7,11.183,3.71,10.761l0.007-0.268L3.75,9.928
		c0.034-0.313,0.145-0.38,0.398-0.403C4.265,9.516,4.397,9.53,4.501,9.58l0.142,0.065C4.766,9.699,4.83,9.759,4.919,9.879
		c0.078,0.103,0.116,0.208,0.128,0.333l0.007,0.086v0.273l0.169,0.076l0.181,0.161c0.151,0.131,0.228,0.307,0.222,0.505
		l-0.015,0.513c0.081,0.04,0.146,0.074,0.225,0.134l0.182,0.145c0.156,0.121,0.249,0.368,0.245,0.563l-0.021,0.632
		c0.212,0.008,0.309,0.084,0.501,0.239c0.13,0.108,0.206,0.242,0.232,0.409l0.079,0.528L7.255,14.988z"/>
	<path fill-rule="evenodd" clip-rule="evenodd" fill="#D4BE8C" d="M3.861,9.875l0.385,0.299l-0.043,0.662
		c0,0.016-0.022,0.02-0.037,0.022c-0.017,0.002-0.051-0.032-0.062-0.042l-0.158-0.159c-0.049-0.048-0.101-0.104-0.099-0.174
		L3.861,9.875z"/>
	<path fill-rule="evenodd" clip-rule="evenodd" fill="#D4BE8C" d="M4.395,10.898l0.444,0.294l-0.003,0.574
		c0,0.014-0.005,0.028-0.015,0.034c-0.01,0.008-0.022,0.014-0.036,0.014H4.73c-0.09,0-0.165-0.034-0.223-0.102l-0.042-0.048
		c-0.051-0.058-0.073-0.121-0.073-0.196L4.395,10.898z"/>
	<path fill-rule="evenodd" clip-rule="evenodd" fill="#D4BE8C" d="M5.137,12.137l0.445,0.338l-0.004,0.53
		c0,0.012-0.005,0.024-0.015,0.034c-0.011,0.01-0.022,0.016-0.036,0.016H5.473c-0.09-0.002-0.167-0.038-0.223-0.104l-0.042-0.048
		c-0.05-0.056-0.073-0.121-0.073-0.198L5.137,12.137z"/>
	<path fill-rule="evenodd" clip-rule="evenodd" fill="#D4BE8C" d="M5.869,13.571l0.443,0.32l-0.04,0.455
		c-0.002,0.025-0.022,0.052-0.048,0.052l-0.06-0.002c-0.088-0.002-0.165-0.038-0.224-0.107l-0.001-0.002
		c-0.048-0.054-0.066-0.211-0.068-0.286L5.869,13.571z"/>
	<path fill-rule="evenodd" clip-rule="evenodd" fill="#AB9667" d="M5.055,10.572c-0.09,0.012-0.164,0.02-0.224,0.032
		c-0.147,0.034-0.336,0.088-0.43,0.213c-0.089,0.119-0.103,0.678-0.116,0.853C4.267,10.93,4.12,10.529,5.055,10.572z"/>
	<path fill-rule="evenodd" clip-rule="evenodd" fill="#D4BE8C" d="M6.877,7.966l0.352,0.039c0.032,0.003,0.056,0.02,0.074,0.047
		c0.104,0.167-0.55,0.823-0.667,0.958L6.21,8.922c0.145-0.328,0.307-0.637,0.575-0.914C6.811,7.983,6.841,7.962,6.877,7.966z"/>
	<path fill-rule="evenodd" clip-rule="evenodd" fill="#AB9667" d="M5.612,11.826c-0.205,0.022-0.458,0.086-0.552,0.267
		c-0.061,0.119-0.075,0.612-0.091,0.777C4.947,12.331,4.8,11.787,5.612,11.826z"/>
	<path fill-rule="evenodd" clip-rule="evenodd" fill="#AB9667" d="M6.227,13.301c-0.493,0.032-0.497,0.241-0.529,0.658
		C5.689,13.448,5.644,13.279,6.227,13.301z"/>
	<path fill-rule="evenodd" clip-rule="evenodd" fill="#AB9667" d="M8.402,7.826c0.039,0.108,0.181,0.381-0.021,0.627
		c0.155-0.162,0.294-0.182,0.465-0.182C8.583,8.205,8.505,7.98,8.402,7.826z"/>
	<path fill-rule="evenodd" clip-rule="evenodd" fill="#AB9667" d="M10.707,8.197c-0.178,0.093-0.24,0.157-0.694,0.191
		c0.364,0.036,0.245,0.159,0.288,0.381C10.309,8.42,10.518,8.358,10.707,8.197z"/>
</g>
</svg>
