<?xml version="1.0" encoding="utf-8"?>
<!-- Generator: Adobe Illustrator 16.0.0, SVG Export Plug-In . SVG Version: 6.00 Build 0)  -->
<!DOCTYPE svg PUBLIC "-//W3C//DTD SVG 1.1//EN" "http://www.w3.org/Graphics/SVG/1.1/DTD/svg11.dtd">
<svg version="1.1" id="Layer_1" xmlns="http://www.w3.org/2000/svg" xmlns:xlink="http://www.w3.org/1999/xlink" x="0px" y="0px"
	 width="20px" height="20px" viewBox="0 0 20 20" enable-background="new 0 0 20 20" xml:space="preserve">
<g>
	<g>
		<polygon fill-rule="evenodd" clip-rule="evenodd" fill="#BDBDBD" points="15.703,1.354 13.943,0.337 3.853,6.158 5.614,7.175 		
			"/>
		<polygon fill-rule="evenodd" clip-rule="evenodd" fill="#9C9C9C" points="5.614,7.175 3.853,6.158 3.845,18.282 5.61,19.298 		"/>
	</g>
	<polygon fill-rule="evenodd" clip-rule="evenodd" fill="#E6EAEB" points="15.703,1.354 5.614,7.175 5.61,19.298 15.695,13.48 	"/>
	<path fill-rule="evenodd" clip-rule="evenodd" fill="#3D566E" d="M14.67,9.249v2.118c-0.004,0.161-0.117,0.358-0.256,0.44
		l-7.519,4.335c-0.139,0.083-0.255,0.016-0.255-0.146l0.004-3.792l0.086-0.12c0.273-0.38,0.648-0.59,0.917-0.513l2.511,0.727
		c0.254,0.073,0.603-0.112,0.88-0.465l1.893-2.432c0.281-0.363,0.648-0.547,0.902-0.457L14.67,9.249z"/>
	<path fill-rule="evenodd" clip-rule="evenodd" fill="#73BCE3" d="M14.67,9.249l-0.836-0.304c-0.254-0.09-0.621,0.094-0.902,0.457
		l-1.893,2.432c-0.277,0.353-0.629,0.538-0.88,0.465l-2.511-0.727c-0.27-0.077-0.644,0.133-0.917,0.513l-0.086,0.12V7.758
		l8.026-4.629V9.249z"/>
	<path fill-rule="evenodd" clip-rule="evenodd" fill="#FFED00" d="M12.354,5.141c0.723-0.416,1.305-0.079,1.305,0.753
		c0,0.832-0.584,1.842-1.305,2.257c-0.719,0.414-1.303,0.077-1.303-0.753C11.054,6.566,11.635,5.555,12.354,5.141z"/>
</g>
</svg>
