<?xml version="1.0" encoding="utf-8"?>
<!-- Generator: Adobe Illustrator 16.0.0, SVG Export Plug-In . SVG Version: 6.00 Build 0)  -->
<!DOCTYPE svg PUBLIC "-//W3C//DTD SVG 1.1//EN" "http://www.w3.org/Graphics/SVG/1.1/DTD/svg11.dtd">
<svg version="1.1" id="Layer_1" xmlns="http://www.w3.org/2000/svg" xmlns:xlink="http://www.w3.org/1999/xlink" x="0px" y="0px"
	 width="20px" height="20px" viewBox="0 0 20 20" enable-background="new 0 0 20 20" xml:space="preserve">
<g>
	<polygon fill-rule="evenodd" clip-rule="evenodd" fill="#F0B11D" points="15.676,2.665 13.408,1.357 13.184,1.236 12.947,1.138 
		12.701,1.056 12.443,0.992 12.18,0.952 11.904,0.927 11.625,0.923 11.336,0.939 11.039,0.974 10.736,1.031 10.427,1.109 
		10.112,1.208 9.789,1.326 9.463,1.467 9.131,1.629 8.796,1.813 8.46,2.016 8.129,2.237 7.803,2.474 7.48,2.726 7.167,2.992 
		6.856,3.27 6.553,3.565 6.256,3.872 5.968,4.189 5.686,4.517 5.413,4.858 5.149,5.206 4.891,5.562 4.646,5.929 4.411,6.303 
		4.183,6.684 3.966,7.07 3.762,7.461 3.567,7.856 3.385,8.257 3.215,8.661 3.06,9.068 2.917,9.477 2.786,9.884 2.669,10.295 
		2.564,10.703 2.477,11.112 2.405,11.518 2.348,11.923 2.307,12.323 2.28,12.721 2.272,13.113 2.28,13.496 2.307,13.864 
		2.348,14.217 2.405,14.555 2.477,14.878 2.564,15.185 2.669,15.476 2.786,15.749 2.917,16.01 3.06,16.249 3.215,16.476 
		3.385,16.683 3.567,16.871 3.762,17.045 3.966,17.2 4.183,17.335 6.449,18.646 6.234,18.51 6.027,18.351 5.835,18.179 5.653,17.99 
		5.483,17.785 5.325,17.557 5.182,17.319 5.051,17.057 4.934,16.785 4.832,16.492 4.744,16.186 4.67,15.864 4.613,15.526 
		4.572,15.172 4.547,14.804 4.54,14.421 4.547,14.028 4.572,13.631 4.613,13.23 4.67,12.827 4.744,12.42 4.832,12.013 4.934,11.604 
		5.051,11.191 5.182,10.785 5.325,10.375 5.483,9.97 5.653,9.567 5.835,9.166 6.027,8.769 6.234,8.378 6.449,7.991 6.676,7.611 
		6.911,7.238 7.159,6.872 7.415,6.514 7.679,6.166 7.953,5.826 8.233,5.499 8.524,5.18 8.818,4.875 9.124,4.58 9.433,4.299 
		9.748,4.034 10.069,3.782 10.394,3.546 10.726,3.325 11.064,3.121 11.4,2.937 11.729,2.775 12.057,2.634 12.377,2.515 
		12.693,2.417 13.004,2.339 13.307,2.284 13.602,2.247 13.893,2.232 14.17,2.235 14.449,2.259 14.711,2.302 14.965,2.366 
		15.215,2.445 15.447,2.546 	"/>
	<path fill-rule="evenodd" clip-rule="evenodd" fill="#F0B11D" d="M11.064,3.121c-3.605,2.082-6.525,7.14-6.525,11.3
		c0,4.159,2.92,5.845,6.525,3.766c3.602-2.079,6.523-7.138,6.523-11.298C17.588,2.728,14.666,1.042,11.064,3.121L11.064,3.121z
		 M11.064,17.098c-1.542,0.893-2.938,0.975-3.949,0.394c-1.009-0.584-1.635-1.834-1.635-3.614s0.626-3.751,1.635-5.501
		c1.011-1.748,2.407-3.274,3.949-4.165c1.539-0.89,2.934-0.974,3.945-0.391c1.01,0.583,1.633,1.833,1.633,3.612
		c0,1.78-0.623,3.751-1.633,5.501C13.998,14.681,12.604,16.21,11.064,17.098z"/>
	<path fill-rule="evenodd" clip-rule="evenodd" fill="#F0B11D" d="M11.064,3.121c-3.605,2.082-6.525,7.14-6.525,11.3
		c0,4.159,2.92,5.845,6.525,3.766c3.602-2.079,6.523-7.138,6.523-11.298C17.588,2.728,14.666,1.042,11.064,3.121z"/>
	<polygon fill-rule="evenodd" clip-rule="evenodd" fill="#F0B11D" points="11.064,17.098 10.032,16.505 10.318,16.328 
		10.603,16.141 10.88,15.938 11.158,15.723 11.426,15.496 11.691,15.256 11.949,15.005 12.203,14.742 12.451,14.471 12.693,14.19 
		12.926,13.901 13.154,13.601 13.373,13.296 13.584,12.982 13.785,12.663 13.979,12.338 15.01,12.934 14.816,13.259 14.613,13.578 
		14.4,13.892 14.184,14.196 13.957,14.495 13.725,14.783 13.482,15.065 13.234,15.338 12.98,15.6 12.721,15.85 12.457,16.089 
		12.188,16.318 11.914,16.533 11.633,16.735 11.35,16.924 	"/>
	<polygon fill-rule="evenodd" clip-rule="evenodd" fill="#F0B11D" points="15.01,12.934 13.979,12.338 14.162,12.009 14.338,11.673 
		14.506,11.335 14.662,10.991 14.805,10.646 14.939,10.298 15.063,9.95 15.174,9.6 15.275,9.25 15.361,8.898 15.439,8.55 
		15.496,8.202 15.545,7.856 15.586,7.515 15.604,7.173 15.611,6.839 16.643,7.433 16.635,7.768 16.613,8.108 16.576,8.45 
		16.527,8.797 16.471,9.146 16.389,9.493 16.307,9.845 16.205,10.195 16.094,10.545 15.971,10.893 15.836,11.241 15.689,11.587 
		15.537,11.929 15.369,12.269 15.193,12.604 	"/>
	<polygon fill-rule="evenodd" clip-rule="evenodd" fill="#F0B11D" points="16.643,7.433 15.611,6.839 15.604,6.51 15.586,6.197 
		15.545,5.894 15.496,5.605 15.439,5.329 15.361,5.067 15.275,4.817 15.174,4.582 15.063,4.361 14.939,4.154 14.805,3.962 
		14.662,3.786 14.506,3.622 14.338,3.475 14.162,3.342 13.979,3.225 15.01,3.821 15.193,3.938 15.369,4.07 15.537,4.218 
		15.689,4.381 15.836,4.557 15.971,4.75 16.094,4.957 16.205,5.177 16.307,5.413 16.389,5.663 16.471,5.924 16.527,6.201 
		16.576,6.489 16.613,6.792 16.635,7.107 	"/>
	<polygon fill-rule="evenodd" clip-rule="evenodd" fill="#F0B11D" points="7.116,17.491 6.086,16.894 6.279,16.996 6.481,17.082 
		6.694,17.151 6.911,17.204 7.138,17.241 7.372,17.262 7.613,17.266 7.861,17.254 8.112,17.221 8.373,17.172 8.636,17.106 
		8.906,17.024 9.183,16.92 9.461,16.799 9.744,16.662 10.032,16.505 11.064,17.098 10.775,17.254 10.49,17.393 10.212,17.516 
		9.938,17.618 9.668,17.704 9.404,17.77 9.144,17.814 8.89,17.847 8.643,17.859 8.401,17.859 8.17,17.835 7.942,17.802 
		7.724,17.745 7.513,17.675 7.31,17.589 	"/>
	<path fill-rule="evenodd" clip-rule="evenodd" fill="#E6EAEB" d="M10.746,16.916c1.542-0.891,2.938-2.417,3.948-4.165
		c1.008-1.749,1.635-3.722,1.635-5.5s-0.627-3.031-1.635-3.612c-1.01-0.583-2.406-0.5-3.948,0.391
		C9.205,4.919,7.81,6.446,6.801,8.194c-1.011,1.75-1.633,3.72-1.633,5.5c0,1.778,0.622,3.031,1.633,3.616
		C7.81,17.892,9.205,17.806,10.746,16.916z"/>
	<path fill-rule="evenodd" clip-rule="evenodd" fill="#FAC13C" d="M11.064,3.121c-3.605,2.082-6.525,7.14-6.525,11.3
		c0,4.159,2.92,5.845,6.525,3.766c3.602-2.079,6.523-7.138,6.523-11.298C17.588,2.728,14.666,1.042,11.064,3.121L11.064,3.121z
		 M11.064,17.098c-1.542,0.893-2.938,0.975-3.949,0.394c-1.009-0.584-1.635-1.834-1.635-3.614s0.626-3.751,1.635-5.501
		c1.011-1.748,2.407-3.274,3.949-4.165c1.539-0.89,2.934-0.974,3.945-0.391c1.01,0.583,1.633,1.833,1.633,3.612
		c0,1.78-0.623,3.751-1.633,5.501C13.998,14.681,12.604,16.21,11.064,17.098z"/>
	<polygon fill-rule="evenodd" clip-rule="evenodd" fill="#9C9C9C" points="12.605,7.791 12.789,7.687 13.121,7.876 12.936,7.983 
		9.351,10.052 9.019,9.862 	"/>
	<polygon fill-rule="evenodd" clip-rule="evenodd" fill="#9C9C9C" points="12.262,9.968 12.447,9.862 12.777,10.054 12.592,10.161 
		9.181,12.129 8.849,11.937 	"/>
	<polygon fill-rule="evenodd" clip-rule="evenodd" fill="#9C9C9C" points="12.84,12.287 13.092,11.865 13.426,12.058 13.172,12.478 
		13.104,12.586 13.033,12.692 12.957,12.796 12.879,12.898 12.797,12.997 12.713,13.093 12.625,13.188 12.535,13.277 12.438,13.367 
		12.338,13.455 12.234,13.541 12.129,13.623 12.018,13.703 11.902,13.778 11.785,13.854 11.664,13.926 11.578,13.978 11.49,14.022 
		11.404,14.063 11.32,14.1 11.236,14.135 11.152,14.163 11.07,14.19 10.99,14.213 10.91,14.233 10.83,14.247 10.75,14.26 
		10.672,14.266 10.595,14.271 10.517,14.271 10.441,14.27 10.366,14.262 10.265,14.245 10.171,14.221 10.079,14.186 9.993,14.143 
		9.662,13.95 9.748,13.993 9.837,14.028 9.934,14.053 10.034,14.069 10.11,14.077 10.186,14.079 10.261,14.079 10.341,14.075 
		10.419,14.067 10.497,14.057 10.579,14.041 10.658,14.022 10.738,14 10.82,13.973 10.904,13.942 10.988,13.909 11.072,13.871 
		11.158,13.83 11.244,13.785 11.332,13.735 11.453,13.662 11.572,13.588 11.686,13.511 11.797,13.431 11.902,13.349 12.008,13.263 
		12.105,13.175 12.201,13.087 12.293,12.995 12.381,12.9 12.465,12.805 12.547,12.706 12.625,12.606 12.701,12.502 12.773,12.396 	
		"/>
	<polygon fill-rule="evenodd" clip-rule="evenodd" fill="#9C9C9C" points="7.906,14.62 7.906,14.62 7.877,14.555 7.836,14.466 
		7.789,14.359 7.738,14.245 7.691,14.131 7.648,14.026 7.615,13.937 7.595,13.873 7.926,14.065 7.945,14.127 7.979,14.217 
		8.022,14.323 8.069,14.438 8.121,14.552 8.17,14.658 8.208,14.747 8.237,14.811 8.237,14.811 8.237,14.811 8.358,15.041 
		8.493,15.248 8.643,15.426 8.802,15.577 8.976,15.702 8.645,15.51 8.471,15.387 8.309,15.233 8.162,15.056 8.026,14.851 
		7.906,14.62 	"/>
	<polygon fill-rule="evenodd" clip-rule="evenodd" fill="#9C9C9C" points="7.445,12.747 7.443,12.653 7.443,12.561 7.445,12.471 
		7.449,12.377 7.456,12.28 7.464,12.181 7.476,12.074 7.486,11.957 7.818,12.147 7.808,12.265 7.795,12.373 7.787,12.473 
		7.781,12.569 7.777,12.661 7.775,12.753 7.775,12.846 7.777,12.941 7.359,13.181 7.236,13.251 7.212,13.404 7.059,14.355 
		7.021,14.587 6.69,14.395 6.727,14.163 6.88,13.214 6.905,13.061 7.028,12.988 	"/>
	<polygon fill-rule="evenodd" clip-rule="evenodd" fill="#9C9C9C" points="13.244,4.567 13.334,4.582 13.664,4.772 13.574,4.758 
		13.48,4.746 13.385,4.742 13.285,4.742 13.184,4.746 13.078,4.758 12.971,4.774 12.863,4.799 12.75,4.825 12.635,4.86 12.52,4.901 
		12.4,4.946 12.277,4.998 12.154,5.055 12.027,5.118 11.898,5.186 11.768,5.259 11.631,5.341 11.494,5.425 11.359,5.515 
		11.225,5.607 11.092,5.703 10.962,5.806 10.832,5.908 10.705,6.017 10.579,6.129 10.454,6.244 10.331,6.362 10.208,6.485 
		10.087,6.612 9.966,6.743 9.85,6.878 9.733,7.013 9.551,7.242 9.375,7.476 9.209,7.713 9.052,7.955 8.906,8.202 8.767,8.454 
		8.636,8.709 8.516,8.97 8.411,9.207 8.319,9.44 8.233,9.666 8.157,9.895 8.088,10.126 8.026,10.363 7.971,10.613 7.924,10.877 
		7.409,11.174 7.286,11.245 7.261,11.398 7.11,12.349 7.073,12.579 6.739,12.387 6.778,12.158 6.93,11.209 6.954,11.053 
		7.077,10.983 7.593,10.685 7.64,10.422 7.695,10.173 7.756,9.934 7.826,9.702 7.902,9.475 7.988,9.248 8.08,9.017 8.182,8.777 
		8.305,8.517 8.436,8.261 8.575,8.012 8.72,7.764 8.878,7.522 9.043,7.285 9.22,7.052 9.402,6.823 9.519,6.686 9.635,6.551 
		9.756,6.419 9.876,6.295 9.999,6.172 10.122,6.051 10.247,5.937 10.374,5.826 10.5,5.718 10.629,5.613 10.761,5.513 10.894,5.417 
		11.027,5.323 11.162,5.233 11.299,5.149 11.436,5.067 11.566,4.993 11.695,4.926 11.822,4.862 11.945,4.807 12.068,4.756 
		12.188,4.709 12.305,4.67 12.418,4.635 12.531,4.606 12.641,4.584 12.746,4.565 12.852,4.555 12.953,4.549 13.053,4.549 
		13.148,4.555 	"/>
	<path fill-rule="evenodd" clip-rule="evenodd" fill="#BDBDBD" d="M11.746,6.677c-0.295,0.172-0.566,0.369-0.811,0.59
		c-0.242,0.221-0.463,0.468-0.658,0.741L10.275,8.01c-0.114,0.16-0.225,0.337-0.332,0.532C9.84,8.74,9.735,8.957,9.639,9.19
		c-0.082,0.205-0.252,0.663-0.289,0.862l3.585-2.069l0.186-0.106l-0.037,0.229l-0.15,0.947L12.91,9.209l-0.123,0.072l-3.56,2.054
		c-0.026,0.274-0.049,0.557-0.047,0.794l3.411-1.968l0.186-0.106l-0.037,0.229l-0.156,0.951l-0.023,0.153l-0.123,0.072l-3.101,1.791
		c0.073,0.331,0.212,0.439,0.36,0.632l0,0c0.172,0.222,0.397,0.348,0.669,0.379c0.2,0.022,0.409,0.008,0.624-0.049
		c0.215-0.056,0.44-0.149,0.674-0.287c0.328-0.188,0.617-0.405,0.871-0.648c0.246-0.239,0.459-0.508,0.637-0.8l0.254-0.42v0.401
		v1.313v0.11l-0.088,0.099c-0.24,0.268-0.494,0.51-0.76,0.727c-0.264,0.217-0.541,0.409-0.828,0.575
		c-0.86,0.497-1.585,0.708-2.17,0.628c-0.589-0.078-1.038-0.444-1.342-1.101l0,0c-0.06-0.13-0.282-0.618-0.311-0.745l-0.72,0.415
		l-0.185,0.106l0.037-0.231l0.153-0.951l0.024-0.153l0.123-0.07l0.417-0.239c-0.008-0.26,0.006-0.471,0.041-0.794l-0.561,0.325
		l-0.184,0.106l0.037-0.23l0.151-0.95l0.024-0.153l0.123-0.071l0.516-0.297C8.045,10.15,8.227,9.618,8.516,8.97
		c0.311-0.7,0.718-1.351,1.218-1.957c0.309-0.371,0.632-0.704,0.972-0.997c0.34-0.293,0.695-0.544,1.063-0.757
		c0.352-0.205,0.682-0.348,0.982-0.434c0.303-0.083,0.578-0.106,0.824-0.067l0.09,0.015l-0.021,0.129l-0.221,1.31l-0.051,0.311
		L13.178,6.45c-0.211-0.078-0.436-0.1-0.674-0.061C12.268,6.426,12.014,6.522,11.746,6.677z"/>
	<polygon fill-rule="evenodd" clip-rule="evenodd" fill="#D19917" points="2.638,15.394 4.906,16.701 4.832,16.492 4.744,16.186 
		4.67,15.864 4.613,15.526 4.572,15.172 4.547,14.804 4.54,14.421 4.547,14.028 4.572,13.631 4.613,13.23 4.67,12.827 4.744,12.42 
		4.832,12.013 4.934,11.604 5.051,11.191 5.094,11.057 2.829,9.749 2.786,9.884 2.669,10.295 2.564,10.703 2.477,11.112 
		2.405,11.518 2.348,11.923 2.307,12.323 2.28,12.721 2.272,13.113 2.28,13.496 2.307,13.864 2.348,14.217 2.405,14.555 
		2.477,14.878 2.564,15.185 	"/>
	<polygon fill-rule="evenodd" clip-rule="evenodd" fill="#FAC13C" points="11.516,0.929 11.336,0.939 11.039,0.974 10.736,1.031 
		10.427,1.109 10.112,1.208 9.789,1.326 9.463,1.467 9.131,1.629 8.796,1.813 8.46,2.016 8.129,2.237 7.803,2.474 7.48,2.726 
		7.167,2.992 7.107,3.045 9.373,4.353 9.433,4.299 9.748,4.034 10.069,3.782 10.394,3.546 10.726,3.325 11.064,3.121 11.4,2.937 
		11.729,2.775 12.057,2.634 12.377,2.515 12.693,2.417 13.004,2.339 13.307,2.284 13.602,2.247 13.781,2.237 	"/>
</g>
</svg>
