<?xml version="1.0" encoding="utf-8"?>
<!-- Generator: Adobe Illustrator 17.0.0, SVG Export Plug-In . SVG Version: 6.00 Build 0)  -->
<!DOCTYPE svg PUBLIC "-//W3C//DTD SVG 1.1//EN" "http://www.w3.org/Graphics/SVG/1.1/DTD/svg11.dtd">
<svg version="1.1" id="Layer_1" xmlns="http://www.w3.org/2000/svg" xmlns:xlink="http://www.w3.org/1999/xlink" x="0px" y="0px"
	 width="300px" height="300px" viewBox="0 0 300 300" enable-background="new 0 0 300 300" xml:space="preserve">
<path fill="#A5A5A3" stroke="#000000" stroke-linecap="round" stroke-linejoin="round" stroke-miterlimit="10" d="M56.913,169.752
	c0,0,0.158,10.935,0,11.569c-0.158,0.634,4.758,7.131,5.867,7.607c1.109,0.475,39.777,6.656,41.679,6.656
	c1.902,0,3.803-10.459,3.803-12.044S56.888,167.854,56.913,169.752z"/>
<path fill="#FAE7CF" stroke="#000000" stroke-linecap="round" stroke-linejoin="round" stroke-miterlimit="10" d="M55.49,103.601
	c-1.759,2.216,1.38,67.098,1.423,68.21c0.042,1.112,4.758,8.082,5.867,8.241c1.109,0.158,28.208,3.328,29.635,3.328
	s3.328-77.018,1.109-78.603C91.305,103.193,56.913,101.809,55.49,103.601z"/>
<path fill="none" stroke="#000000" stroke-linecap="round" stroke-linejoin="round" stroke-miterlimit="10" d="M60.244,104.302
	c0,0,3.011,82.882,2.536,84.625"/>
<path fill="#FAE7CF" stroke="#000000" stroke-linecap="round" stroke-linejoin="round" stroke-miterlimit="10" d="M60.552,112.889
	c0,0,0.707,8.57,0,8.729c-0.707,0.159-10.791-0.079-11.506,0c-0.715,0.079-2.382-1.27-2.303-1.826
	c0.079-0.556-0.079-7.623,0.318-7.623S60.508,112.324,60.552,112.889z"/>
<path fill="none" stroke="#000000" stroke-linecap="round" stroke-linejoin="round" stroke-miterlimit="10" d="M49.046,121.617
	c0.079-0.556,0.481-8.979,0.479-9.412"/>
<path fill="#FAE7CF" stroke="#000000" stroke-linecap="round" stroke-linejoin="round" stroke-miterlimit="10" d="M61.245,132.735
	c0,0,1.112,8.548,0.293,8.641s-11.856-0.013-12.094,0c-0.238,0.013-2.382-1.178-2.382-1.972c0-0.794-0.238-8.179,0.556-8.338
	s10.243-0.476,10.561-0.476C58.496,130.59,60.182,132.26,61.245,132.735z"/>
<path fill="none" stroke="#000000" stroke-linecap="round" stroke-linejoin="round" stroke-miterlimit="10" d="M47.617,131.067
	c0,0,2.223,1.668,2.62,1.747s10.69,0.397,11.3,0.318"/>
<path fill="none" stroke="#000000" stroke-linecap="round" stroke-linejoin="round" stroke-miterlimit="10" d="M49.92,141.376
	c0.08-0.781,0.159-8.007,0.318-8.562"/>
<path fill="#FAE7CF" stroke="#000000" stroke-linecap="round" stroke-linejoin="round" stroke-miterlimit="10" d="M58.654,149.251
	c-1.032-0.238-10.323,0.953-10.323,0.953s-0.556,8.655-0.318,9.37s1.429,1.588,2.223,1.509s11.363,0.398,11.645,0.005v-9.267
	C61.874,151.552,59.687,149.489,58.654,149.251z"/>
<path fill="none" stroke="#000000" stroke-linecap="round" stroke-linejoin="round" stroke-miterlimit="10" d="M48.332,150.204
	c0,0.618,1.35,2.303,2.065,2.303c0.715,0,10.63,0.318,11.509,0"/>
<path fill="none" stroke="#000000" stroke-linecap="round" stroke-linejoin="round" stroke-miterlimit="10" d="M50.237,161.082
	c0-0.397,0.238-7.861,0.159-8.576"/>
<linearGradient id="SVGID_1_" gradientUnits="userSpaceOnUse" x1="68.564" y1="166.6929" x2="86.5657" y2="166.6929">
	<stop  offset="0" style="stop-color:#B3E4FA"/>
	<stop  offset="1" style="stop-color:#999CA8"/>
</linearGradient>
<path fill="url(#SVGID_1_)" stroke="#000000" stroke-linecap="round" stroke-linejoin="round" stroke-miterlimit="10" d="
	M68.818,161.244c-0.033,1.028-0.556,10.536,0,10.547c0.556,0.011,17.469,1.202,17.628,0.646s0.159-9.926,0-10.72
	C86.288,160.923,68.846,160.372,68.818,161.244z"/>
<linearGradient id="SVGID_2_" gradientUnits="userSpaceOnUse" x1="63.8913" y1="139.1703" x2="87.3799" y2="139.1703">
	<stop  offset="0" style="stop-color:#B3E4FA"/>
	<stop  offset="1" style="stop-color:#999CA8"/>
</linearGradient>
<path fill="url(#SVGID_2_)" stroke="#000000" stroke-linecap="round" stroke-linejoin="round" stroke-miterlimit="10" d="
	M87.002,113.677c-0.635,0-10.005,0.794-11.276,0.635c-1.271-0.159-11.752-0.953-11.832-0.635
	c-0.079,0.318,1.032,49.152,1.271,49.391c0.238,0.238,4.367,1.747,10.64,1.668c6.273-0.079,10.482-0.873,11.196-1.985
	c0.715-1.112,0.238-27.475,0-29.301C86.764,131.623,87.002,113.677,87.002,113.677z"/>
<path fill="none" stroke="#000000" stroke-linecap="round" stroke-linejoin="round" stroke-miterlimit="10" d="M64.087,124.318
	c1.079,0.078,8.066,0.555,11.163,0.555c3.097,0,10.446-0.474,11.655-0.555"/>
<path fill="none" stroke="#000000" stroke-linecap="round" stroke-linejoin="round" stroke-miterlimit="10" d="M64.306,134.003
	c1.892,1.193,19.123,1.427,21.505,0"/>
<path fill="none" stroke="#000000" stroke-linecap="round" stroke-linejoin="round" stroke-miterlimit="10" d="M64.552,144.089
	c1.169,0.953,19.78,1.186,21.259,0"/>
<path fill="none" stroke="#000000" stroke-linecap="round" stroke-linejoin="round" stroke-miterlimit="10" d="M64.807,153.617
	c1.391,0.716,18.543,1.589,20.369,0.398"/>
<path fill="#A44F36" stroke="#000000" stroke-linecap="round" stroke-linejoin="round" stroke-miterlimit="10" d="M93.325,101.539
	c-0.422,0.328-9.377,6.396-9.688,6.396s-33.847-1.056-34.591-1.304c-0.744-0.248-2.501-1.553-2.306-2.111
	c0.195-0.559,31.556-15.587,32.673-15.587s22.294,5.465,23.598,6.458C104.317,96.385,94.117,100.923,93.325,101.539z"/>
<path fill="none" stroke="#000000" stroke-linecap="round" stroke-linejoin="round" stroke-miterlimit="10" d="M49.046,106.632
	c0.87-0.621,29.933-17.388,30.368-17.699s8.768,15.542,9.01,15.937"/>
<path fill="#FAE7CF" stroke="#000000" stroke-linecap="round" stroke-linejoin="round" stroke-miterlimit="10" d="M112.765,92.758
	c-0.375-0.01-11.813-0.375-11.938,0s-0.75,2.625-0.75,2.625s-13.438,0-13.438,0.313s-0.157,5.375,0.265,5.5
	c0.422,0.125,5.466,3.196,6.297,4.5s3.688,7.313,3,7.375s-12.063-0.375-12.125,0s0.063,25.625,0,27s0.948,25.438,1.099,25.438
	s4.401,0,4.401,0s3.125,2.438,3.25,3.313s-0.563,13.457-0.938,13.76s-9.313,4.615-9.75,5.303s-1.125,10.125,0,10.063
	s20.313-10.5,20.625-10.625s28.375,5.188,29,5.188s1.875-7.043,1.875-9.928s0.063-86.197-0.313-87.385s-3.938-2.938-5.063-3.063
	C127.14,92.008,113.641,92.78,112.765,92.758z"/>
<path fill="#937F6D" stroke="#000000" stroke-linecap="round" stroke-linejoin="round" stroke-miterlimit="10" d="M84.061,114.633
	c0.803-0.548,16.891,0.25,16.891,0.562s1.313,4.813-0.313,4.813s-12.563-1.25-12.688-0.438s-0.125,42.437,0.438,42.5
	s13.126,0.813,13.063,1.313s0,2.938,0,2.938s-11.626-0.813-12.126-0.813s-4.25,0.125-4.5-0.063S83.42,115.07,84.061,114.633z"/>
<path fill="#443F33" stroke="#000000" stroke-linecap="round" stroke-linejoin="round" stroke-miterlimit="10" d="M100.577,125.445
	c-0.25-0.063-12.682-1.145-12.684-0.572c-0.002,0.573,0,10.76,0,10.76s12.496,1,12.684,0.625S100.577,125.445,100.577,125.445z"/>
<path fill="#443F33" stroke="#000000" stroke-linecap="round" stroke-linejoin="round" stroke-miterlimit="10" d="M101.14,146.615
	c-0.188-0.232-13.198-1.105-13.197-0.918s0.13,10.126,0.13,10.126s13.381,1.696,13.38,0.971S101.14,146.615,101.14,146.615z"/>
<path fill="#937F6D" stroke="#000000" stroke-linecap="round" stroke-linejoin="round" stroke-miterlimit="10" d="M125.327,103.758
	c-0.063-0.438-8.063-0.563-8.366-0.563c-0.303,0,0-10.61,0-10.619c0.014-0.428-3.259-0.193-3.634,0s0.063,9.182,0.063,10.182
	c0,1-7.688-0.25-8.063,0c-0.375,0.25,0.5,44.25,0.688,44.642s19.313,1.484,19.563,1.421S125.39,104.195,125.327,103.758z
	 M123.702,146.615c-0.25,0.544-15.813-0.982-16.117-0.944c-0.304,0.038-0.321-40.288-0.321-40.475s5.461-0.063,5.875,0
	c0.442,0.068,0.125,2.938,0.25,3.313s2.688,0.25,3.125-0.125s0.875-2.938,0.875-3.328s5.625,0.641,5.938,0.641
	S123.952,146.07,123.702,146.615z"/>
<linearGradient id="SVGID_3_" gradientUnits="userSpaceOnUse" x1="108.7979" y1="125.3901" x2="122.2223" y2="125.3901">
	<stop  offset="0" style="stop-color:#B3E4FA"/>
	<stop  offset="1" style="stop-color:#999CA8"/>
</linearGradient>
<path fill="url(#SVGID_3_)" stroke="#000000" stroke-linecap="round" stroke-linejoin="round" stroke-miterlimit="10" d="
	M108.952,107.07c-0.44,0.513,0.188,35.685,0.313,35.999s12.5,1.251,12.688,0.564s0.5-35.625,0-36.062
	S109.327,106.633,108.952,107.07z"/>
<path fill="none" stroke="#000000" stroke-linecap="round" stroke-linejoin="round" stroke-miterlimit="10" d="M115.51,107.258
	c-0.058,1.375,0.741,36.187,0.623,36.5"/>
<linearGradient id="SVGID_4_" gradientUnits="userSpaceOnUse" x1="108.9801" y1="153.4558" x2="122.3701" y2="153.4558">
	<stop  offset="0" style="stop-color:#B3E4FA"/>
	<stop  offset="1" style="stop-color:#999CA8"/>
</linearGradient>
<path fill="url(#SVGID_4_)" stroke="#000000" stroke-linecap="round" stroke-linejoin="round" stroke-miterlimit="10" d="
	M122.222,148.508c0,0,0.333,10.938,0,11c-0.332,0.063-13.02-0.5-13.02-0.75s-0.5-11,0-11.313S122.222,148.508,122.222,148.508z"/>
<path fill="none" stroke="#000000" stroke-linecap="round" stroke-linejoin="round" stroke-miterlimit="10" d="M116.145,147.883
	c-0.005,0.312,0.005,10.915,0,11.395"/>
<path fill="#A5A5A3" stroke="#000000" stroke-linecap="round" stroke-linejoin="round" stroke-miterlimit="10" d="M134.166,189.652
	c-0.01-0.001-2.472,2.007-3.338,1.876c-5.807-0.879-28.027-4.232-28.38-4.044c-0.405,0.216-1.002,12.025-0.523,12.573
	s27.517,4.997,28.818,4.586s11.5-3.833,12.527-4.928s0.068-9.857,0-10.405S134.875,189.742,134.166,189.652z"/>
<path fill="none" stroke="#000000" stroke-linecap="round" stroke-linejoin="round" stroke-miterlimit="10" d="M130.743,204.643
	c0,0,0.094-12.034,0.085-13.115"/>
<path fill="#CCBEAC" stroke="#000000" stroke-linecap="round" stroke-linejoin="round" stroke-miterlimit="10" d="M146.145,188.927
	c-0.314,0.3-15.317,2.601-15.317,2.601s-0.881-98.836-0.636-98.717c0.245,0.119,11.366,2.31,12.119,3.2s4.107,22.783,3.833,24.568
	S146.761,188.339,146.145,188.927z"/>
<path fill="#A5A5A3" stroke="#000000" stroke-linecap="round" stroke-linejoin="round" stroke-miterlimit="10" d="M248.015,189.594
	c-0.125-0.649-52.5,2.601-53.375,2.601c-0.75-0.138-49.875-5.375-51.625-4.125c-0.839,0.599-0.749,14-0.749,14
	s50.374,9.125,51.999,9s54.375-3.375,54.5-4S248.14,190.242,248.015,189.594z"/>
<path fill="#FAE7CF" stroke="#000000" stroke-linecap="round" stroke-linejoin="round" stroke-miterlimit="10" d="M248.149,191.528
	c0,0-52.884,3.943-53.634,4.055s-54.125-4.638-55.125-4.638s-0.763-4.25-1.132-5.25s-0.007-42.5,0-45.312s-0.412-45.853,0.633-45.57
	c1.045,0.283,20.123,3.052,20.123,2.967c0-0.085,20.625,5.665,21.5,6.415s69.875-0.25,70,0.5S248.907,190.485,248.149,191.528z"/>
<path fill="none" stroke="#000000" stroke-linecap="round" stroke-linejoin="round" stroke-miterlimit="10" d="M195.521,108.57
	c0.244,1.375-1.547,68.5-1.214,70.375s-0.292,31.25-0.042,32.125"/>
<path fill="#A44F36" stroke="#000000" stroke-linecap="round" stroke-linejoin="round" stroke-miterlimit="10" d="M180.64,100.695
	c0,0-28.25-9.625-29.5-9.875s-24.101,0.943-22.875,1.313c1.226,0.37,11.5,4.563,12.625,4.563s17.375,0.375,17.75,1
	s1.375,5.625,1.375,5.625s15,0.375,17.75,0.625S182.363,101.282,180.64,100.695z"/>
<path fill="#A44F36" stroke="#000000" stroke-linecap="round" stroke-linejoin="round" stroke-miterlimit="10" d="M207.515,90.786
	c-1.026,0.339-57.375,18.284-57.875,19.034s40.5,2.125,42.125,2.125s34.125,0.125,33.875-0.875s-2.5-5-1.375-5s28.25-1.345,29-2.11
	S209.503,90.129,207.515,90.786z"/>
<path fill="none" stroke="#000000" stroke-linecap="round" stroke-linejoin="round" stroke-miterlimit="10" d="M191.765,111.945
	c0.5-1.125,14.928-19.318,16.339-21.159"/>
<path fill="#937F6D" stroke="#000000" stroke-linecap="round" stroke-linejoin="round" stroke-miterlimit="10" d="M133.572,116.911
	c0,0,19.388,0.548,19.875,1.157s1.217,54.03,0,54.03s-19.835-0.73-19.835-1.704c0-0.974-0.3-3.768,0.032-4.075
	c0.333-0.306,15.952,1.762,15.992,1.032c0.039-0.73,0.813-44.904,0-44.904s-16.151-0.974-16.148-1.339
	C133.49,120.745,133.041,116.896,133.572,116.911z"/>
<path fill="#FAE7CF" stroke="#000000" stroke-linecap="round" stroke-linejoin="round" stroke-miterlimit="10" d="M133.644,121.181
	c-0.482,0.427-0.249,5.868,0.351,5.928s15.973,0.902,15.97,0.722c-0.003-0.18,0.415-4.935-0.329-5.381
	C148.891,122.003,133.893,120.96,133.644,121.181z"/>
<path fill="#FAE7CF" stroke="#000000" stroke-linecap="round" stroke-linejoin="round" stroke-miterlimit="10" d="M133.644,138.882
	c0,0,0.351,9.851,0.712,9.941s15.469,1.712,15.723,0.57c0.254-1.141,0.167-9.129-0.09-9.55S133.653,138.581,133.644,138.882z"/>
<path fill="#FAE7CF" stroke="#000000" stroke-linecap="round" stroke-linejoin="round" stroke-miterlimit="10" d="M134.235,160.445
	c-0.063,0.345-0.489,5.869,0,5.875c0.489,0.006,15.384,1.692,15.4,1.032c0.016-0.659,0.143-4.985,0-5.405
	C149.492,161.527,134.325,159.954,134.235,160.445z"/>
<path fill="#FAE7CF" stroke="#000000" stroke-linecap="round" stroke-linejoin="round" stroke-miterlimit="10" d="M149.098,180.904
	c0,0-4.333,1.436-4.833,1.676s-10.499-1.167-10.625-0.838c-0.125,0.329-0.618,9.41,0.004,9.786s9.288,0.876,10.621,0.876
	c1.333,0,4.917-1.333,4.833-1.583C149.015,190.57,149.498,180.771,149.098,180.904z"/>
<path fill="none" stroke="#000000" stroke-linecap="round" stroke-linejoin="round" stroke-miterlimit="10" d="M144.265,192.404
	c0-1.5,0-9.824,0-9.824"/>
<path fill="none" stroke="#000000" stroke-linecap="round" stroke-linejoin="round" stroke-miterlimit="10" d="M185.907,173.479
	c0.068,1.006,0.976,10.175,0,10.258c-0.976,0.083-20.892-1.583-20.892-1.833s0.135-8.39,0.417-8.425
	C165.713,173.443,185.845,172.55,185.907,173.479z"/>
<linearGradient id="SVGID_5_" gradientUnits="userSpaceOnUse" x1="162.0853" y1="146.0363" x2="188.3481" y2="146.0363">
	<stop  offset="0" style="stop-color:#B3E4FA"/>
	<stop  offset="1" style="stop-color:#999CA8"/>
</linearGradient>
<path fill="url(#SVGID_5_)" stroke="#000000" stroke-linecap="round" stroke-linejoin="round" stroke-miterlimit="10" d="
	M163.015,117.654c0.575,0.194,2.167,2.083,11,1.833c8.833-0.25,14.333-1,14.333-0.417s0,53.667-0.333,54
	c-0.333,0.333-10.417,1.5-15.583,1.333c-5.167-0.167-10.25-1.86-10.333-2.305C162.015,171.654,162.338,117.425,163.015,117.654z"/>
<path fill="none" stroke="#000000" stroke-linecap="round" stroke-linejoin="round" stroke-miterlimit="10" d="M162.499,129.407
	c0.432,0.414,9.599,1.247,11.349,1.58s11.333-0.164,14.5-0.79"/>
<path fill="none" stroke="#000000" stroke-linecap="round" stroke-linejoin="round" stroke-miterlimit="10" d="M162.085,140.383
	c0.68,0.521,19.634,2.599,26.263,0.687"/>
<path fill="none" stroke="#000000" stroke-linecap="round" stroke-linejoin="round" stroke-miterlimit="10" d="M162.085,151.322
	c1.346,1.248,21.305,1.831,26.201,0.498"/>
<path fill="none" stroke="#000000" stroke-linecap="round" stroke-linejoin="round" stroke-miterlimit="10" d="M162.118,162.236
	c2.564,1.418,19.928,2.997,26.168,0.501"/>
<linearGradient id="SVGID_6_" gradientUnits="userSpaceOnUse" x1="205.3445" y1="114.8776" x2="214.206" y2="114.8776">
	<stop  offset="0" style="stop-color:#B3E4FA"/>
	<stop  offset="1" style="stop-color:#999CA8"/>
</linearGradient>
<path fill="url(#SVGID_6_)" stroke="#000000" stroke-linecap="round" stroke-linejoin="round" stroke-miterlimit="10" d="
	M213.848,117.653c0,0-8,0.583-8.167,0c-0.167-0.583-0.667-6.073,0-5.703c0.667,0.37,7.833-0.37,8.167,0
	C214.181,112.32,214.451,117.612,213.848,117.653z"/>
<linearGradient id="SVGID_7_" gradientUnits="userSpaceOnUse" x1="231.0345" y1="113.7596" x2="241.0518" y2="113.7596">
	<stop  offset="0" style="stop-color:#B3E4FA"/>
	<stop  offset="1" style="stop-color:#999CA8"/>
</linearGradient>
<path fill="url(#SVGID_7_)" stroke="#000000" stroke-linecap="round" stroke-linejoin="round" stroke-miterlimit="10" d="
	M231.181,110.154c-0.133,0.467-0.25,7.665,0,7.499s9.75-0.317,9.833-0.742c0.083-0.424,0-6.508,0-6.758
	S231.325,109.65,231.181,110.154z"/>
<path fill="#FAE7CF" stroke="#000000" stroke-linecap="round" stroke-linejoin="round" stroke-miterlimit="10" d="M195.413,118.57
	c0.518,0.334,4.602,1.417,5.102,1.5s22.333-0.75,22.5-0.417c0.167,0.333,0.667,9.833,0,10.083c-0.667,0.25-22.911,0.36-23.08,0.513
	c-0.17,0.153-4.763-0.008-4.745-0.844C195.207,128.571,195.413,118.57,195.413,118.57z"/>
<path fill="none" stroke="#000000" stroke-linecap="round" stroke-linejoin="round" stroke-miterlimit="10" d="M199.934,130.25
	c0-1.097,1.289-10.015,0.58-10.18"/>
<linearGradient id="SVGID_8_" gradientUnits="userSpaceOnUse" x1="204.9737" y1="135.1746" x2="213.6814" y2="135.1746">
	<stop  offset="0" style="stop-color:#B3E4FA"/>
	<stop  offset="1" style="stop-color:#999CA8"/>
</linearGradient>
<path fill="url(#SVGID_8_)" stroke="#000000" stroke-linecap="round" stroke-linejoin="round" stroke-miterlimit="10" d="
	M213.681,140.383c0,0-8.341,0.313-8.337,0c0.004-0.313-0.836-10.259,0-10.271c0.836-0.012,8.337-0.745,8.337,0.19
	S213.681,140.383,213.681,140.383z"/>
<linearGradient id="SVGID_9_" gradientUnits="userSpaceOnUse" x1="230.5051" y1="133.8183" x2="240.4656" y2="133.8183">
	<stop  offset="0" style="stop-color:#B3E4FA"/>
	<stop  offset="1" style="stop-color:#999CA8"/>
</linearGradient>
<path fill="url(#SVGID_9_)" stroke="#000000" stroke-linecap="round" stroke-linejoin="round" stroke-miterlimit="10" d="
	M231.035,128.32c-0.486,0.295-0.897,11.25,0,11.25c0.897,0,8.564-0.171,8.98-0.752c0.417-0.581,0.583-10.248,0.333-10.498
	S231.721,127.904,231.035,128.32z"/>
<path fill="#FAE7CF" stroke="#000000" stroke-linecap="round" stroke-linejoin="round" stroke-miterlimit="10" d="M199.934,142.987
	c-0.913-0.339-5.017-1.08-5.016-1.123c0.001-0.044,0.202,8.796,0,9.04s5.016,2.583,5.016,2.583s23.588-0.583,23.417-1.167
	c-0.17-0.583-0.504-10.052-0.754-10.151C222.348,142.07,200.687,143.266,199.934,142.987z"/>
<path fill="#FAE7CF" stroke="#000000" stroke-linecap="round" stroke-linejoin="round" stroke-miterlimit="10" d="M199.934,153.487
	c-0.003-1,0.463-10.011,0.397-10.464"/>
<linearGradient id="SVGID_10_" gradientUnits="userSpaceOnUse" x1="205.2931" y1="157.5741" x2="213.6915" y2="157.5741">
	<stop  offset="0" style="stop-color:#B3E4FA"/>
	<stop  offset="1" style="stop-color:#999CA8"/>
</linearGradient>
<path fill="url(#SVGID_10_)" stroke="#000000" stroke-linecap="round" stroke-linejoin="round" stroke-miterlimit="10" d="
	M213.098,162.236c-0.424,0.025-7.591,0.082-7.754,0c-0.163-0.082,0.092-8.58,0.337-8.749c0.245-0.169,8.333-0.966,8-0.441
	C213.348,153.57,213.602,162.207,213.098,162.236z"/>
<linearGradient id="SVGID_11_" gradientUnits="userSpaceOnUse" x1="230.4052" y1="155.5645" x2="240.4656" y2="155.5645">
	<stop  offset="0" style="stop-color:#B3E4FA"/>
	<stop  offset="1" style="stop-color:#999CA8"/>
</linearGradient>
<path fill="url(#SVGID_11_)" stroke="#000000" stroke-linecap="round" stroke-linejoin="round" stroke-miterlimit="10" d="
	M230.505,150.237c-0.324,0.333,0.216,11,0.529,11.083c0.314,0.083,8.397-0.354,8.814-0.969c0.417-0.614,0.617-10.553,0.617-10.553
	L230.505,150.237z"/>
<path fill="#FAE7CF" stroke="#000000" stroke-linecap="round" stroke-linejoin="round" stroke-miterlimit="10" d="M199.181,165.82
	c-0.245-0.096-5.014-2.045-4.874-1.771c0.14,0.274,0.026,10.138,0,10.37c-0.026,0.232,3.124,1.234,4.874,1.4
	c1.75,0.167,23.167-0.5,23.167-0.75s0.75-10.083,0-10C221.598,165.154,199.815,166.069,199.181,165.82z"/>
<path fill="#FAE7CF" stroke="#000000" stroke-linecap="round" stroke-linejoin="round" stroke-miterlimit="10" d="M199.181,175.82
	c0,0-0.167-9.333,0-10"/>
<linearGradient id="SVGID_12_" gradientUnits="userSpaceOnUse" x1="204.9374" y1="180.1101" x2="213.4939" y2="180.1101">
	<stop  offset="0" style="stop-color:#B3E4FA"/>
	<stop  offset="1" style="stop-color:#999CA8"/>
</linearGradient>
<path fill="url(#SVGID_12_)" stroke="#000000" stroke-linecap="round" stroke-linejoin="round" stroke-miterlimit="10" d="
	M213.265,175.82c-0.894-0.343-8.165,0.417-8.291,0.583c-0.126,0.167,0.126,7.667,0,8c-0.126,0.333,7.791-0.411,7.874-0.664
	C212.931,183.487,213.934,176.077,213.265,175.82z"/>
<linearGradient id="SVGID_13_" gradientUnits="userSpaceOnUse" x1="229.8882" y1="177.049" x2="239.6851" y2="177.049">
	<stop  offset="0" style="stop-color:#B3E4FA"/>
	<stop  offset="1" style="stop-color:#999CA8"/>
</linearGradient>
<path fill="url(#SVGID_13_)" stroke="#000000" stroke-linecap="round" stroke-linejoin="round" stroke-miterlimit="10" d="
	M230.015,172.098c-0.285,0.273,0,10.481,0,10.481s8.917-0.426,9.25-0.843c0.333-0.417,0.75-9.417,0-9.917
	S230.681,171.46,230.015,172.098z"/>
</svg>
