<?xml version="1.0" encoding="utf-8"?>
<!-- Generator: Adobe Illustrator 17.0.0, SVG Export Plug-In . SVG Version: 6.00 Build 0)  -->
<!DOCTYPE svg PUBLIC "-//W3C//DTD SVG 1.1//EN" "http://www.w3.org/Graphics/SVG/1.1/DTD/svg11.dtd">
<svg version="1.1" id="Layer_1" xmlns="http://www.w3.org/2000/svg" xmlns:xlink="http://www.w3.org/1999/xlink" x="0px" y="0px"
	 width="300px" height="300px" viewBox="0 0 300 300" enable-background="new 0 0 300 300" xml:space="preserve">
<path fill="#1A1B1C" stroke="#000000" stroke-linecap="round" stroke-linejoin="round" stroke-miterlimit="10" d="M132.598,43.583
	c-4.911-0.543-5.269,0.195-7.806,4.488c-2.537,4.293-44.614,108.302-45.467,111.229c-0.853,2.927-4.488,9.367,1.171,11.708
	c5.659,2.342,80.397,30.832,83.324,32.393c2.927,1.561,7.025,0.781,9.367-4.878c2.342-5.659,48.98-121.571,49.37-123.913
	c0.39-2.342-1.366-5.269-4.293-6.44C215.337,66.999,134.743,43.82,132.598,43.583z"/>
<path fill="#92C83E" stroke="#000000" stroke-linecap="round" stroke-linejoin="round" stroke-miterlimit="10" d="M131.622,55.486
	c-0.578,0.217-43.711,103.423-43.516,104.789s73.567,29.076,74.738,28.685c1.171-0.39,46.248-107.716,46.248-109.668
	S133.183,54.901,131.622,55.486z"/>
<path fill="#FFFFFF" stroke="#000000" stroke-linecap="round" stroke-linejoin="round" stroke-miterlimit="10" d="M161.836,110.44
	c0.914,0.588,2.863-1.281,1.733-2.034c-1.13-0.753-29.305-10.396-30.209-10.396c-0.904,0-1.431,1.281-1.431,2.109
	c0,0.829,0.226,24.86,0.377,25.387c0.151,0.527,19.891,8.362,21.133,7.759c1.241-0.603,20.828-27.572,21.431-27.346
	c0.603,0.226,3.239,0.678,4.219,1.205c0.979,0.527,2.561-0.829,1.205-1.959s-5.725-2.938-6.253-2.712s-20.265,27.873-20.943,27.798
	c-0.678-0.075-18.155-6.027-18.155-6.479c0-0.452-0.527-5.424-0.151-5.198s16.157,5.951,16.855,6.102
	c0.698,0.151,3.187-1.733,1.792-2.26c-1.395-0.527-18.873-6.295-18.873-6.763c0-0.469,0.226-5.591,0.829-5.516
	s19.736,6.958,20.98,7.321c1.244,0.363,2.901-1.111,1.696-1.805c-1.205-0.695-22.901-8.153-23.127-8.906
	c-0.226-0.753-0.527-5.65,0.075-5.273C135.62,101.852,160.781,109.762,161.836,110.44z"/>
<ellipse fill="#FFFFFF" stroke="#000000" stroke-linecap="round" stroke-linejoin="round" stroke-miterlimit="10" cx="137.503" cy="133.794" rx="2.863" ry="3.013"/>
<circle fill="#FFFFFF" stroke="#000000" stroke-linecap="round" stroke-linejoin="round" stroke-miterlimit="10" cx="145.564" cy="136.506" r="2.787"/>
<path fill="#FFFFFF" stroke="#000000" stroke-linecap="round" stroke-linejoin="round" stroke-miterlimit="10" d="M122.32,144.511
	c-0.922,0.106-2.29,1.145-2.824,2.213c-0.534,1.069-2.442,5.801-2.595,6.182c-0.153,0.382-0.458,1.755,0.611,2.442
	c1.069,0.687,27.935,10.075,28.85,10.533c0.916,0.458,4.274-8.701,4.427-9.464s-0.84-1.984-1.984-2.366
	C147.659,153.67,122.905,144.444,122.32,144.511z"/>
<text transform="matrix(0.9375 0.3481 -0.3481 0.9375 120.4348 153.0916)" font-family="'ArialMT'" font-size="6">BUY NOW</text>
<path fill="#FBBCA2" stroke="#000000" stroke-linecap="round" stroke-linejoin="round" stroke-miterlimit="10" d="M133.772,232.938
	c-1.165-1.719-2.935-5.714-3.697-8.888c-0.762-3.174-5.079-24.124-3.428-28.187c1.651-4.063,3.682-10.792,4.571-13.586
	c0.889-2.793,3.936-11.554,5.46-12.57c1.524-1.016,6.475-6.221,7.491-7.364c1.016-1.143,4.225-6.9,6.62-5.926
	c2.395,0.974,1.381,2.371,2.396,1.863c1.015-0.508,3.3-6.602,4.062-9.269c0.762-2.666,4.571-3.936,6.856-3.809
	c2.285,0.127,3.809,1.778,3.682,3.682s-0.127,19.299,0.635,19.426c0.762,0.127,5.84-0.635,7.364,2.158
	c1.524,2.793,5.714,9.015,5.714,9.903s1.143,1.27,3.301,3.555s5.84,9.015,6.602,9.523c0.762,0.508,3.301,2.412,4.571,3.555
	c1.27,1.143,3.301,3.301,4.063,4.317s4.063,3.428,3.428,7.745s-7.872,21.457-10.284,26.028c-2.412,4.571-2.793,4.317-4.317,7.237
	c-1.524,2.92-4.571,11.046-4.571,12.443c0,1.397-41.01,2.666-41.518,1.016s-4.444-9.65-5.206-12.062
	C136.805,241.318,134.796,234.449,133.772,232.938z"/>
<path fill="none" stroke="#000000" stroke-linecap="round" stroke-linejoin="round" stroke-miterlimit="10" d="M137.539,198.403
	c0.662-1.905,2.888-6.221,4.124-7.237c1.236-1.016,3.801-4.698,4.359-6.221c0.559-1.524,1.801-6.348,2.577-6.856
	s1.984-5.333,2.205-6.856s1.48-4.317,2.12-6.475s1.005-5.959,0.26-6.475"/>
<path fill="none" stroke="#000000" stroke-linecap="round" stroke-linejoin="round" stroke-miterlimit="10" d="M169.435,176.945
	c-0.635-1.651-1.086-8.05-1.23-9.21"/>
</svg>
