<svg width="400" height="400" xmlns="http://www.w3.org/2000/svg" xmlns:xlink="http://www.w3.org/1999/xlink">
 <g>
  <title>background</title>
  
 </g>
 <style>#jsana{animation: hja linear 10s;
   
}
#jisanb{animation: hjb linear 10s;
    
		}
}
#hasana{animation: hjd linear 10s;
  
		}
		100% {
				 
		}
}
#hasnfa{animation: hjna linear 10s;
    transform-box: fill-box;
    transform-origin: center;}
@keyframes hjna{
			0% {  
			visibility: hidden;
			         transform: scale(0.1);
		}
		45% {
		 
			visibility: hidden; opacity:0;
			         transform: scale(0.1);
		}
		50% { opacity:1;
			transform: scale(1);
		}
		100% {
				 
		}
}
#hanifaa{animation: hjna linear 10s;
    transform-box: fill-box;
    transform-origin: center;}
@keyframes hjna{
			0% {  
			visibility: hidden;
			         transform: scale(0.1);
		}
		45% {
		 
			visibility: hidden; opacity:0;
			         transform: scale(0.1);
		}
		50% { opacity:1;
			transform: scale(1);
		}
		100% {
				 
		}
}
#hasang{animation: hjo linear 10s;
    transform-box: fill-box;
    transform-origin: center;}
@keyframes hjo{
			0% {  
			visibility: hidden;
			         transform: scale(0.1);
		}
		40% {
		 
			visibility: hidden; opacity:0;
			         transform: scale(0.1);
		}
		45% { opacity:1;
			transform: scale(1);
		}
		100% {
				 
		}
}
#hasanhaand{animation: hjp linear 2s infinite;
        
    transform-box: fill-box;
    transform-origin: left;}
@keyframes hjp{
			0% { transform: rotate(-7deg);
			}
	 
		50% {
			transform: rotate(0deg);
		}
		100% {
				transform: rotate(-7deg);
		}
}
#hand3 {animation: pp linear 2s infinite;
        
    transform-box: fill-box;
    transform-origin: 20% 10%;}

	@keyframes pp {
			0% { transform: rotateZ(7deg);
			}
	 
		50% {
			transform: rotateZ(0deg);
		}
		100% {
				transform: rotateZ(7deg);
		}
}
#hand1 {animation: h1 linear 1s infinite;
        
    transform-box: fill-box;
    transform-origin: 10% 90%;}

	@keyframes h1 {
			0% { transform: rotateZ(7deg);
			}
	 
		50% {
			transform: rotateZ(0deg);
		}
		100% {
				transform: rotateZ(7deg);
		}
}
#hand2 {animation: h2 linear 1s infinite;
        
    transform-box: fill-box;
    transform-origin: 10% 90%;}

	@keyframes h2 {
			0% { transform: rotateZ(7deg);
			}
	 
		50% {
			transform: rotateZ(0deg);
		}
		100% {
				transform: rotateZ(7deg);
		}
}

	#hasandahand{animation: hj linear 4s infinite;
        
    transform-box: fill-box;
    transform-origin: right;}
    @keyframes hj{
			0% { transform: rotate(-5deg);
			}
	 
		50% {
			transform: rotate(15deg);
		}
		100% {
				transform: rotate(-5deg);
		}
 #handxaa2{animation: hjq linear 2s infinite;
        
    transform-box: fill-box;
    transform-origin: bottom;}
    }

	#hasancloud{animation: hju linear 4s infinite;
        
    transform-box: fill-box;
    transform-origin: bottom;}
	@keyframes hju{
			0% {     transform: translate(0px, 0px);
			}
	 
		50% {
			    transform: translate(7px, -4px);
		}
		100% {
				    transform: translate(0px, 0px);
		}
}</style>
 <defs>
  <clipPath id="clip-path">
   <polygon points="793.3459777832031,174.42105102539062 792.8459777832031,174.42105102539062 826.2460021972656,191.1210479736328 826.2460021972656,193.1210479736328 826.2460021972656,194.321044921875 826.2460021972656,196.321044921875 791.9460144042969,213.5210418701172 785.5459899902344,213.5210418701172 751.2460021972656,196.321044921875 751.2460021972656,194.321044921875 751.2460021972656,193.1210479736328 751.2460021972656,191.1210479736328 784.6460266113281,174.42105102539062 784.1460266113281,174.42105102539062 744.5459899902344,192.92105102539062 744.5459899902344,196.6210479736328 784.9460144042969,216.821044921875 792.5459899902344,216.821044921875 832.9460144042969,196.6210479736328 832.9460144042969,192.92105102539062 793.4460144042969,174.5210418701172 793.3459777832031,174.42105102539062 " fill="none" id="svg_1"/>
  </clipPath>
  <clipPath id="clip-path-2">
   <path d="m731.946,203.52105z" fill="none" id="svg_2"/>
  </clipPath>
  <clipPath id="clip-path-3">
   <polygon points="842.6460266113281,200.92105102539062 842.3459777832031,200.1210479736328 842.3459777832031,201.1210479736328 842.6460266113281,200.92105102539062 " fill="none" id="svg_3"/>
  </clipPath>
  <clipPath id="clip-path-4">
   <polygon points="625.5459899902344,307.42103576660156 677.8460083007812,333.5210418701172 683.7460021972656,330.6210479736328 631.4460144042969,304.5210418701172 625.5459899902344,307.42103576660156 " fill="none" id="svg_4"/>
  </clipPath>
  <clipPath id="clip-path-5">
   <polygon points="663.4460144042969,331.5210418701172 663.4460144042969,331.5210418701172 657.9460144042969,334.22105407714844 667.9460144042969,339.22105407714844 673.9460144042969,336.32106018066406 663.4460144042969,331.1210479736328 663.4460144042969,331.5210418701172 " fill="none" id="svg_5"/>
  </clipPath>
  <clipPath id="clip-path-6">
   <polygon points="605.2460021972656,318.92103576660156 657.5459899902344,344.92103576660156 663.4460144042969,342.0210418701172 611.14599609375,315.92103576660156 605.2460021972656,318.92103576660156 " fill="none" id="svg_6"/>
  </clipPath>
  <linearGradient id="linear-gradient-1079" x1="-0.74824" y1="0.5" x2="3.91278" y2="0.5">
   <stop offset="0" stop-color="#4094aa"/>
   <stop offset="0.42" stop-color="#3788a0"/>
   <stop offset="0.99" stop-color="#27718e"/>
  </linearGradient>
  <linearGradient id="linear-gradient-1080" x1="352" y1="241.6" x2="497.9" y2="241.6" xlink:href="#linear-gradient-1079"/>
  <linearGradient id="linear-gradient-1081" x1="0.5" y1="0" x2="0.5" y2="1.50766">
   <stop offset="0" stop-color="#a1f3ff"/>
   <stop offset="0.28" stop-color="#bff7ff"/>
   <stop offset="0.76" stop-color="#edfdff"/>
   <stop offset="1" stop-color="#fff"/>
  </linearGradient>
  <linearGradient id="linear-gradient-1082" x1="351.98" y1="268.15" x2="497.87" y2="268.15" xlink:href="#linear-gradient-1079"/>
  <linearGradient id="linear-gradient-1083" x1="424.85" y1="316.32" x2="424.85" y2="243.5" xlink:href="#linear-gradient-1081"/>
  <linearGradient id="linear-gradient-1084" x1="461.2" y1="316.32" x2="461.2" y2="243.5" xlink:href="#linear-gradient-1081"/>
 </defs>
 <g>
  <title>Layer 1</title>
  <g stroke="null" id="svg_7">
   <g stroke="null" id="jisaneabox">
    <path stroke="null" d="m359.55932,92.69193l-129.6774,-64.73153a4.95132,4.95132 0 0 0 -4.5012,-0.42869l-6.43028,3.21514l0,0a4.95132,4.95132 0 0 1 4.5012,0.42869l129.6774,64.73153a12.15324,12.15324 0 0 1 6.43028,9.64543l-0.21434,104.38495a3.751,3.751 0 0 1 -1.92909,3.64383l0,0c1.07171,-0.42869 2.14343,-1.07171 3.21514,-1.5004s2.14343,-1.07171 3.21514,-1.71474a3.90104,3.90104 0 0 0 1.92909,-3.64383l0.21434,-104.38495a11.68168,11.68168 0 0 0 -6.43028,-9.64543z" fill="#15779e" id="svg_4066"/>
    <path stroke="null" d="m359.34498,209.93744l0.21434,-104.38495a12.28184,12.28184 0 0 0 -6.43028,-9.64543l-129.6774,-64.73153a5.74439,5.74439 0 0 0 -4.5012,-0.42869a3.90104,3.90104 0 0 0 -1.92909,3.64383l-0.21434,104.38495a12.28184,12.28184 0 0 0 6.43028,9.64543l129.6774,64.73153a5.74439,5.74439 0 0 0 4.5012,0.42869a3.751,3.751 0 0 0 1.92909,-3.64383zm-5.14423,-5.78726c0,2.14343 -1.71474,3.0008 -3.85817,1.92909l-124.53317,-62.15941a7.22335,7.22335 0 0 1 -3.85817,-5.78726l0.21434,-98.16901c0,-2.14343 1.71474,-3.0008 3.85817,-1.92909l124.53317,62.15941a7.22335,7.22335 0 0 1 3.85817,5.78726l-0.21434,98.16901z" fill="#309dba" id="svg_4067"/>
    <path stroke="null" d="m350.55692,100.40827l-124.53317,-62.15941c-2.14343,-1.07171 -3.85817,-0.21434 -3.85817,1.92909l-0.21434,98.16901a7.22335,7.22335 0 0 0 3.85817,5.78726l124.53317,62.15941c2.14343,1.07171 3.85817,0.21434 3.85817,-1.92909l0.21434,-98.16901a7.22335,7.22335 0 0 0 -3.85817,-5.78726zm-93.88215,44.15462l-28.07891,-13.93228l0,-80.80724l28.07891,13.93228l0,80.80724zm91.31004,45.65502l-6.21594,-3.0008l0,7.07331l-1.71474,0.42869l-55.94347,-28.07891l0,-8.35937l-24.43508,-12.21754l0,-29.57931l22.07731,10.93148l0,-3.42948l-22.07731,-10.93148l0,-47.79845l28.07891,13.93228l0,3.64383l4.07251,2.14343l0,-3.85817l55.94347,28.07891l0,81.02158l0.21434,0z" fill="#b7eaed" id="svg_4068"/>
    <polygon stroke="null" points="284.11061811447144,118.62738752365112 284.11061811447144,107.05283308029175 271.67876386642456,100.83696699142456 271.67876386642456,76.1875376701355 271.67876386642456,76.1875376701355 271.67876386642456,76.1875376701355 272.96477460861206,75.3301157951355 287.7544779777527,83.04647016525269 287.7544779777527,79.40268659591675 259.67555952072144,65.25604200363159 259.67555952072144,113.05446577072144 281.75283002853394,123.98595380783081 281.75283002853394,117.55567121505737 284.11061811447144,118.62738752365112 " fill="#b7eaed" id="svg_4069"/>
    <polygon stroke="null" points="284.11061811447144,118.62738752365112 284.11061811447144,107.05283308029175 271.67876386642456,100.83696699142456 271.67876386642456,76.1875376701355 271.67876386642456,76.1875376701355 271.67876386642456,76.1875376701355 272.96477460861206,75.3301157951355 287.7544779777527,83.04647016525269 287.7544779777527,79.40268659591675 259.67555952072144,65.25604200363159 259.67555952072144,113.05446577072144 281.75283002853394,123.98595380783081 281.75283002853394,117.55567121505737 284.11061811447144,118.62738752365112 " fill="#fff" opacity="0.35" id="svg_4070"/>
    <polygon stroke="null" points="281.96718549728394,156.56609296798706 281.96718549728394,139.84731245040894 284.11061811447144,140.91902875900269 284.11061811447144,135.560462474823 281.75283002853394,134.27439069747925 281.75283002853394,127.41545820236206 259.67555952072144,116.48397016525269 259.67555952072144,146.06323957443237 284.11061811447144,158.28081464767456 284.11061811447144,157.6378092765808 281.96718549728394,156.56609296798706 " fill="#b7eaed" id="svg_4071"/>
    <polygon stroke="null" points="281.96718549728394,156.56609296798706 281.96718549728394,139.84731245040894 284.11061811447144,140.91902875900269 284.11061811447144,135.560462474823 281.75283002853394,134.27439069747925 281.75283002853394,127.41545820236206 259.67555952072144,116.48397016525269 259.67555952072144,146.06323957443237 284.11061811447144,158.28081464767456 284.11061811447144,157.6378092765808 281.96718549728394,156.56609296798706 " fill="#fff" opacity="0.35" id="svg_4072"/>
    <polygon stroke="null" points="304.25884199142456,94.62097120285034 304.25884199142456,95.90704298019409 340.05413007736206,113.91182661056519 340.05413007736206,194.71909284591675 341.76885175704956,194.076087474823 341.76885175704956,187.21709394454956 341.76885175704956,113.26882123947144 304.25884199142456,94.62097120285034 " fill="#bff3f7" id="svg_4073"/>
    <path stroke="null" d="m228.59586,130.6306l28.07891,13.93228l0,-80.5929l-28.07891,-14.14663l0,80.80724zm3.64383,-73.73393l20.79125,10.5028l0,16.71874l-20.79125,-10.5028l0,-16.71874zm0,21.0056l20.79125,10.5028l0,50.79925l-20.79125,-10.5028l0,-50.79925z" fill="#b7eaed" id="svg_4074"/>
    <path stroke="null" d="m228.59586,130.6306l28.07891,13.93228l0,-80.5929l-28.07891,-14.14663l0,80.80724zm3.64383,-73.73393l20.79125,10.5028l0,16.71874l-20.79125,-10.5028l0,-16.71874zm0,21.0056l20.79125,10.5028l0,50.79925l-20.79125,-10.5028l0,-50.79925z" fill="#fff" opacity="0.35" id="svg_4075"/>
    <path stroke="null" d="m304.25888,95.90707l0,6.0016l2.57211,1.28606l0,16.71874l-20.79125,-10.5028l0,-1.5004l-2.14343,-1.07171l0,11.57451l2.14343,1.07171l0,-3.21514l47.5841,23.79205l0,16.71874l-4.28686,-2.14343l0,3.21514l-45.22633,-22.29165l0,5.35857l2.14343,1.07171l0,-3.21514l47.5841,23.79205l0,16.71874l-4.28686,-2.14343l0,3.21514l-45.44068,-22.72034l0,9.0024l55.94347,28.07891l0,-80.80724l-35.79525,-18.0048zm30.00799,38.15302l-3.85817,-1.92909l0,4.28686l-20.79125,-10.5028l0,-16.71874l3.85817,1.92909l0,-4.28686l20.79125,10.5028l0,16.71874z" fill="#e9ffff" id="svg_4076"/>
    <polygon stroke="null" points="286.25405073165894,109.62496137619019 307.04534101486206,120.12781476974487 307.04534101486206,103.40903425216675 304.25884199142456,102.12297010421753 304.25884199142456,115.62653303146362 303.1871256828308,116.91268110275269 286.25405073165894,108.12461042404175 286.25405073165894,109.62496137619019 " fill="#bff3f7" id="svg_4077"/>
    <polygon stroke="null" points="329.3369975090027,154.8513102531433 333.83815717697144,156.9947428703308 333.83815717697144,140.27602338790894 286.25405073165894,116.48397016525269 286.25405073165894,119.69910383224487 329.3369975090027,141.34767866134644 329.3369975090027,154.8513102531433 " fill="#bff3f7" id="svg_4078"/>
    <polygon stroke="null" points="329.55129194259644,177.14295148849487 333.83815717697144,179.28638410568237 333.83815717697144,162.3533091545105 286.25405073165894,138.56124067306519 286.25405073165894,141.99074506759644 329.55129194259644,163.63938093185425 329.55129194259644,177.14295148849487 " fill="#bff3f7" id="svg_4079"/>
    <polygon stroke="null" points="284.11061811447144,135.560462474823 329.3369975090027,158.06645917892456 329.3369975090027,154.8513102531433 329.3369975090027,141.34767866134644 286.25405073165894,119.69910383224487 284.11061811447144,118.62738752365112 281.75283002853394,117.55567121505737 281.75283002853394,123.98595380783081 281.75283002853394,127.41545820236206 281.75283002853394,134.27439069747925 284.11061811447144,135.560462474823 " fill="#fff" id="svg_4080"/>
    <polygon stroke="null" points="281.96718549728394,156.56609296798706 284.11061811447144,157.6378092765808 329.55129194259644,180.35810041427612 329.55129194259644,177.14295148849487 329.55129194259644,163.63938093185425 286.25405073165894,141.99074506759644 284.11061811447144,140.91902875900269 281.96718549728394,139.84731245040894 281.96718549728394,156.56609296798706 " fill="#fff" id="svg_4081"/>
    <polygon stroke="null" points="313.47563886642456,110.91103315353394 330.40871381759644,119.48474836349487 330.40871381759644,132.13095808029175 334.26686811447144,134.0600962638855 334.26686811447144,117.12696027755737 313.47563886642456,106.624183177948 313.47563886642456,110.91103315353394 " fill="#bff3f7" id="svg_4082"/>
    <polygon stroke="null" points="253.03090620040894,67.39947462081909 232.23963117599487,56.896689891815186 232.23963117599487,73.61540174484253 253.03090620040894,84.11818647384644 253.03090620040894,67.39947462081909 " fill="#bff3f7" id="svg_4083"/>
    <polygon stroke="null" points="253.03090620040894,88.4050440788269 232.23963117599487,77.902259349823 232.23963117599487,128.7015299797058 253.03090620040894,139.20424604415894 253.03090620040894,88.4050440788269 " fill="#bff3f7" id="svg_4084"/>
    <polygon stroke="null" points="292.0413432121277,85.18990278244019 287.7544779777527,83.04647016525269 272.96477460861206,75.3301157951355 271.67876386642456,76.1875376701355 271.67876386642456,76.1875376701355 303.1871256828308,92.26325178146362 303.1871256828308,116.91268110275269 304.25884199142456,115.62653303146362 304.25884199142456,102.12297010421753 304.25884199142456,95.90704298019409 304.25884199142456,94.62097120285034 341.76885175704956,113.26882123947144 341.76885175704956,187.21709394454956 347.98479413986206,190.21787214279175 347.98479413986206,109.4106822013855 292.0413432121277,81.33175611495972 292.0413432121277,85.18990278244019 " fill="#9fe4ed" id="svg_4085"/>
    <polygon stroke="null" points="313.47563886642456,110.91103315353394 309.6174235343933,108.9819712638855 309.6174235343933,125.70067548751831 330.40871381759644,136.41782331466675 330.40871381759644,132.13095808029175 330.40871381759644,119.48474836349487 313.47563886642456,110.91103315353394 " fill="#fff" id="svg_4086"/>
    <polygon stroke="null" points="271.67876386642456,100.83696699142456 284.11061811447144,107.05283308029175 286.25405073165894,108.12461042404175 303.1871256828308,116.91268110275269 303.1871256828308,92.26325178146362 271.67876386642456,76.1875376701355 271.67876386642456,76.1875376701355 271.67876386642456,100.83696699142456 " fill="#fff" id="svg_4087"/>
   </g>
   <g stroke="null" id="jisand">
    <polygon stroke="null" points="84.99127149581909,263.6935954093933 84.77691602706909,263.6935954093933 151.86618757247925,296.9167399406433 84.99127149581909,263.6935954093933 " opacity="0.45" fill="url(#linear-gradient-1079)" id="svg_4057"/>
    <polygon stroke="null" points="317.55312299728394,273.9820475578308 190.44789838790894,336.99880170822144 63.9856333732605,274.1964030265808 34.6206431388855,288.7716898918152 191.09088850021362,366.57814741134644 347.34682416915894,288.7716898918152 317.55312299728394,273.9820475578308 " opacity="0.45" fill="url(#linear-gradient-1080)" id="svg_4058"/>
    <polygon stroke="null" points="190.44789838790894,316.2076029777527 190.44789838790894,336.99880170822144 317.55312299728394,273.9820475578308 346.91811323165894,259.40676069259644 346.91811323165894,238.4011149406433 190.44789838790894,316.2076029777527 " fill="#98e7f4" id="svg_4059"/>
    <polygon stroke="null" points="296.5475687980652,263.4792399406433 346.91811323165894,238.4011149406433 190.44789838790894,160.16599225997925 34.1919322013855,238.18682050704956 84.99127149581909,263.6935954093933 191.09088850021362,210.53655195236206 296.5475687980652,263.4792399406433 " fill="url(#linear-gradient-1081)" id="svg_4060"/>
    <polygon stroke="null" points="190.44789838790894,316.2076029777527 296.5475687980652,263.4792399406433 191.09088850021362,210.53655195236206 84.99127149581909,263.6935954093933 151.86618757247925,296.9167399406433 190.44789838790894,316.2076029777527 " opacity="0.45" fill="url(#linear-gradient-1082)" id="svg_4061"/>
    <polygon stroke="null" points="190.44789838790894,316.2076029777527 296.5475687980652,263.4792399406433 191.09088850021362,210.53655195236206 84.99127149581909,263.6935954093933 151.86618757247925,296.9167399406433 190.44789838790894,316.2076029777527 " fill="url(#linear-gradient-1083)" id="svg_4062"/>
    <polygon stroke="null" points="190.44789838790894,316.2076029777527 190.44789838790894,316.2076029777527 190.44789838790894,316.2076029777527 346.91811323165894,238.4011149406433 296.5475687980652,263.4792399406433 190.44789838790894,316.2076029777527 " fill="#98e7f4" id="svg_4063"/>
    <polygon stroke="null" points="190.44789838790894,316.2076029777527 190.44789838790894,316.2076029777527 190.44789838790894,316.2076029777527 346.91811323165894,238.4011149406433 296.5475687980652,263.4792399406433 190.44789838790894,316.2076029777527 " fill="url(#linear-gradient-1084)" id="svg_4064"/>
    <polygon stroke="null" points="190.44789838790894,316.2076029777527 190.44789838790894,316.2076029777527 151.86618757247925,296.9167399406433 84.77691602706909,263.6935954093933 34.1919322013855,238.4011149406433 34.1919322013855,259.40676069259644 63.9856333732605,274.1964030265808 190.44789838790894,336.99880170822144 190.44789838790894,316.2076029777527 " fill="#b6f1ff" id="svg_4065"/>
   </g>
   <g stroke="null" id="hasanh">
    <g stroke="null" id="svg_3999">
     <path stroke="null" d="m230.95015,80.03539c0.21434,0 0.42869,0.21434 0.64303,0.21434l-1.28606,-3.21514c0.21434,0.85737 0.42869,1.92909 0.64303,3.0008z" fill="none" id="svg_4000"/>
     <path stroke="null" d="m243.81072,134.26412a37.78864,37.78864 0 0 1 -1.5004,-5.78726c-0.42869,-1.92909 -0.64303,-3.85817 -0.85737,-5.35857c-0.64303,0.21434 -1.28606,0.21434 -1.92909,0.42869a29.64361,29.64361 0 0 0 4.28686,10.71714z" fill="none" id="svg_4001"/>
     <path stroke="null" d="m206.94376,95.03938a18.73356,18.73356 0 0 1 0.64303,-8.35937c-6.0016,4.71554 -10.07411,26.79285 -10.5028,35.36656c0,0 2.78646,6.64463 6.43028,-0.42869c3.0008,-5.78726 6.43028,-11.78885 9.0024,-17.36177l-0.64303,-2.57211a36.75979,36.75979 0 0 1 -4.92988,-6.64463z" fill="#e1feff" id="svg_4002"/>
     <path stroke="null" d="m227.52067,123.33263a7.93068,7.93068 0 0 1 -2.35777,-1.07171l0,0.42869c0.42869,3.64383 0.42869,6.64463 0.85737,8.35937c1.92909,-1.07171 2.14343,-4.07251 1.5004,-7.71634z" fill="#e1feff" id="svg_4003"/>
     <path stroke="null" d="m223.23381,137.6936a4.07251,4.07251 0 0 0 -2.78646,-0.21434s-6.85897,36.43828 -4.5012,51.65662c2.14343,13.5036 9.21674,4.92988 9.21674,4.92988s3.21514,-3.21514 8.78806,-24.86377l1.5004,-7.71634c-0.42869,-0.85737 -0.85737,-1.71474 -1.28606,-2.78646l-9.43108,-10.28845a38.17445,38.17445 0 0 1 -1.5004,-10.71714z" fill="#e1feff" id="svg_4004"/>
     <path stroke="null" d="m233.73661,137.47926c5.35857,1.5004 13.5036,2.78646 13.07491,-0.85737l0,0c-0.42869,-1.71474 -0.85737,-4.28686 -1.5004,-7.07331s-1.07171,-5.35857 -1.5004,-7.28766c3.64383,-1.28606 6.21594,-3.42948 6.0016,-5.78726a8.95953,8.95953 0 0 0 -0.85737,-2.14343c-5.14423,4.07251 -10.28845,0.64303 -11.57451,-4.07251c-0.21434,-0.85737 -1.92909,-0.85737 5.35857,-3.0008c0,0 3.42948,-4.92988 2.78646,-5.57291a10.71714,10.71714 0 0 1 -2.78646,-4.07251a6.19451,6.19451 0 0 1 6.21594,-7.93068l0.21434,0.21434a7.39483,7.39483 0 0 0 -3.0008,4.28686c-0.64303,3.21514 2.35777,9.0024 6.43028,15.21834c5.57291,8.57371 13.28925,18.0048 16.71874,22.50599c0,0 7.28766,3.0008 4.71554,-5.57291c-4.5012,-14.14663 -9.21674,-27.86457 -16.07571,-34.93788a8.2522,8.2522 0 0 0 -8.57371,-1.92909c-3.0008,-3.64383 -7.28766,-5.35857 -13.28925,-7.71634c-0.21434,-0.42869 -0.21434,-0.64303 -0.42869,-1.07171a62.00937,62.00937 0 0 0 -5.14423,-9.64543l0,-1.5004a3.66526,3.66526 0 0 1 -3.85817,-1.28606a55.72913,55.72913 0 0 1 -5.14423,2.57211a20.2554,20.2554 0 0 1 -12.86057,1.71474a5.05849,5.05849 0 0 1 -2.57211,-1.28606l6.0016,7.93068a13.41786,13.41786 0 0 0 -4.71554,7.07331a18.73356,18.73356 0 0 0 -0.64303,8.35937s0,1.07171 4.92988,6.85897l0.64303,2.57211c1.71474,6.0016 5.78726,14.57531 12.43188,18.21914c0.85737,0.42869 1.5004,0.64303 2.35777,1.07171c0.64303,3.42948 0.42869,6.43028 -1.5004,7.93068c-0.42869,0.21434 -0.64303,0.42869 -1.07171,0.64303a16.39722,16.39722 0 0 0 9.21674,5.57291zm8.57371,-9.0024a37.78864,37.78864 0 0 0 1.5004,5.78726a29.64361,29.64361 0 0 1 -4.28686,-10.71714c0.64303,-0.21434 1.28606,-0.21434 1.92909,-0.42869c0.21434,1.5004 0.42869,3.42948 0.85737,5.35857zm-10.28845,-47.36976a57.401,57.401 0 0 0 2.57211,5.14423a6.0016,6.0016 0 0 1 -1.28606,0.21434l-1.28606,0a38.58171,38.58171 0 0 0 -0.42869,-4.71554a1.28606,1.28606 0 0 0 -0.21434,-0.85737a2.14343,2.14343 0 0 0 0.64303,0.21434zm-10.71714,5.57291l-1.92909,-2.14343l2.57211,0.64303l2.57211,-2.78646a25.07811,25.07811 0 0 0 1.07171,4.28686l-4.28686,0zm16.71874,-3.0008c0.42869,0.42869 0.21434,0.85737 -0.42869,1.28606c-0.21434,-0.64303 -0.64303,-1.5004 -0.85737,-2.14343a1.97195,1.97195 0 0 1 1.28606,0.85737zm-7.07331,-3.64383c-0.21434,-1.07171 -0.42869,-1.92909 -0.64303,-3.0008l1.28606,3.21514a0.79307,0.79307 0 0 0 -0.64303,-0.21434zm-18.64782,-1.92909c3.21514,1.92909 6.0016,0.85737 8.35937,0.21434l0.42869,1.71474a7.84495,7.84495 0 0 1 -7.502,0.21434l-1.28606,-2.14343zm13.93228,41.5825a18.86217,18.86217 0 0 1 -10.5028,-13.71794c-0.85737,-5.78726 2.57211,-8.78806 7.502,-7.07331a18.86217,18.86217 0 0 1 10.5028,13.71794c0.85737,5.78726 -2.57211,9.0024 -7.502,7.07331z" fill="#fff" id="svg_4005"/>
     <path stroke="null" d="m231.59318,144.98126c7.502,3.42948 18.64782,-0.64303 20.57691,-2.35777c-0.21434,-1.92909 -5.57291,-7.28766 -5.35857,-5.78726l0,0c0.42869,3.42948 -7.71634,2.35777 -13.07491,0.85737c-6.85897,-1.92909 -8.35937,-4.71554 -9.0024,-5.57291s-0.21434,-0.42869 -1.07171,1.71474a7.20192,7.20192 0 0 0 -0.64303,3.85817c0.21434,0 1.07171,3.85817 8.57371,7.28766z" fill="#002866" id="svg_4006"/>
     <path stroke="null" d="m255.59958,147.98206c-0.85737,-2.35777 -2.57211,-6.21594 -3.42948,-5.35857c-1.92909,1.92909 -13.07491,5.78726 -20.57691,2.35777s-8.35937,-7.28766 -8.35937,-7.71634l0,0l0,0.42869a43.7688,43.7688 0 0 0 1.5004,10.5028l9.43108,10.28845l1.28606,1.28606a14.83252,14.83252 0 0 0 6.0016,1.07171a4.71554,4.71554 0 0 1 -1.71474,-0.21434c4.07251,-3.42948 6.43028,-16.93308 15.86137,-12.64623z" fill="#fff" id="svg_4007"/>
     <path stroke="null" d="m255.81392,148.83943l0,0z" fill="#fff" id="svg_4008"/>
     <path stroke="null" d="m255.81392,149.05377l0,0z" fill="#fff" id="svg_4009"/>
     <path stroke="null" d="m255.59958,147.98206c0,0.21434 0.21434,0.64303 0.21434,0.85737a1.62901,1.62901 0 0 1 -0.21434,-0.85737z" fill="#fff" id="svg_4010"/>
     <path stroke="null" d="m255.59958,151.41154a3.85817,3.85817 0 0 0 0.21434,-2.14343l0,-0.21434l0,0l0,-0.21434l0,0c0,-0.21434 -0.21434,-0.42869 -0.21434,-0.85737l0,0c-9.43108,-4.28686 -11.78885,9.21674 -15.86137,12.64623c0.64303,0 1.07171,0.21434 1.71474,0.21434l1.5004,0c3.21514,-4.28686 6.85897,-11.14583 12.64623,-9.43108z" fill="#e1feff" id="svg_4011"/>
     <path stroke="null" d="m260.52946,161.7c-1.28606,-4.5012 -2.78646,-6.0016 -4.71554,-5.35857c-2.57211,0.64303 -3.64383,2.57211 -2.57211,7.07331s3.21514,10.28845 6.85897,9.43108c1.92909,-0.64303 1.5004,-6.64463 0.42869,-11.14583z" fill="#002b69" id="svg_4012"/>
     <path stroke="null" d="m256.88563,217.21478c-2.57211,1.92909 -3.64383,7.502 -1.71474,13.28925l0.64303,1.92909l1.28606,3.42948c3.0008,2.57211 10.07411,3.42948 12.0032,0.64303a151.81901,151.81901 0 0 0 -3.0008,-16.71874c-2.35777,-8.14503 -6.85897,-4.5012 -9.21674,-2.57211z" fill="#fff" id="svg_4013"/>
     <path stroke="null" d="m217.44656,200.2817a26.47134,26.47134 0 0 0 -1.28606,8.78806c0.64303,0 -0.42869,2.57211 0.21434,2.57211c3.0008,3.64383 10.07411,6.0016 12.86057,3.21514a33.75899,33.75899 0 0 0 -3.42948,-12.64623c-2.78646,-4.28686 -6.64463,-7.71634 -8.35937,-1.92909z" fill="#e1feff" id="svg_4014"/>
     <path stroke="null" d="m231.37884,81.75013a38.58171,38.58171 0 0 1 0.42869,4.71554l1.28606,0a4.58694,4.58694 0 0 0 1.28606,-0.21434a57.401,57.401 0 0 1 -2.57211,-5.14423c-0.21434,0 -0.64303,-0.21434 -0.85737,-0.21434c0.21434,0.21434 0.21434,0.64303 0.42869,0.85737z" fill="#e1feff" id="svg_4015"/>
     <path stroke="null" d="m238.02347,83.67921c-0.42869,-0.42869 -0.85737,-0.64303 -1.28606,-1.07171a22.22735,22.22735 0 0 0 0.85737,2.14343c0.64303,-0.21434 0.85737,-0.64303 0.42869,-1.07171z" fill="#e1feff" id="svg_4016"/>
     <path stroke="null" d="m224.73421,82.39316l-2.57211,2.78646l-2.57211,-0.64303l1.92909,2.14343l4.28686,0a31.33692,31.33692 0 0 1 -1.07171,-4.28686z" fill="#e1feff" id="svg_4017"/>
     <path stroke="null" d="m233.73661,112.82983a18.86217,18.86217 0 0 0 -10.5028,-13.71794c-4.92988,-1.92909 -8.35937,1.28606 -7.502,7.07331a18.86217,18.86217 0 0 0 10.5028,13.71794c4.92988,1.71474 8.35937,-1.5004 7.502,-7.07331z" fill="#002b69" id="svg_4018"/>
     <path stroke="null" d="m246.59718,94.39635a6.7518,6.7518 0 0 1 3.0008,-4.28686l-0.21434,-0.21434a6.19451,6.19451 0 0 0 -6.21594,7.93068a8.57371,8.57371 0 0 0 2.78646,4.07251c0.64303,0.64303 -2.78646,5.57291 -2.78646,5.57291c-7.28766,2.14343 -5.57291,2.14343 -5.35857,3.0008c1.28606,4.71554 6.43028,8.14503 11.57451,4.07251a18.17627,18.17627 0 0 0 3.85817,-4.71554c-4.5012,-6.43028 -7.28766,-12.21754 -6.64463,-15.43268z" fill="#e1feff" id="svg_4019"/>
     <path stroke="null" d="m275.10477,134.90714a2.74359,2.74359 0 0 0 -5.14423,0c-2.57211,4.5012 -3.21514,22.50599 -2.78646,33.43748c-0.64303,0.85737 -1.28606,2.14343 -2.57211,2.57211c-0.64303,0.21434 -1.07171,0.64303 -1.71474,0.85737c-1.28606,-9.85977 -2.78646,-17.57611 -2.78646,-17.57611a13.52503,13.52503 0 0 0 -4.5012,-2.78646c-5.78726,-1.71474 -9.43108,5.14423 -12.86057,9.21674a8.57371,8.57371 0 0 1 -2.57211,2.35777s-1.28606,-1.07171 1.28606,8.78806c6.64463,26.36417 10.71714,32.79445 10.71714,32.79445s9.0024,15.004 12.21754,4.07251c1.71474,-5.57291 0.85737,-17.36177 -0.21434,-28.29325a5.22996,5.22996 0 0 0 5.14423,-2.57211l1.28606,-2.57211a7.88782,7.88782 0 0 0 0,-6.64463c2.14343,-5.78726 9.0024,-26.57851 4.5012,-33.65182zm-21.86297,28.29325c-1.28606,-4.5012 0,-6.43028 2.57211,-7.07331c2.14343,-0.42869 3.64383,0.85737 4.71554,5.35857s1.5004,10.71714 -0.42869,11.14583c-3.85817,0.85737 -5.78726,-4.71554 -6.85897,-9.43108z" fill="#fff" id="svg_4020"/>
     <path stroke="null" d="m206.94376,67.6035a31.50839,31.50839 0 0 0 10.28845,-0.64303a41.19669,41.19669 0 0 0 7.502,-3.85817a10.54567,10.54567 0 0 1 0.85737,-6.43028a3.0008,3.0008 0 0 1 4.92988,-0.42869c-0.21434,-0.64303 -0.42869,-1.5004 -0.64303,-2.14343c-1.92909,-4.92988 -5.57291,-8.14503 -10.71714,-8.14503a17.14742,17.14742 0 0 0 -16.29005,10.71714a21.90584,21.90584 0 0 0 1.5004,8.78806a3.8153,3.8153 0 0 0 2.57211,2.14343z" fill="#fff" id="svg_4021"/>
     <path stroke="null" d="m221.09038,80.03539l-0.42869,-1.71474c-2.35777,0.64303 -5.14423,1.71474 -8.35937,-0.21434l1.28606,2.14343a6.83754,6.83754 0 0 0 7.502,-0.21434z" fill="#002b69" id="svg_4022"/>
     <path stroke="null" d="m228.37804,57.95808a7.97355,7.97355 0 0 0 0.21434,7.28766c1.28606,2.35777 3.21514,2.78646 4.5012,1.07171l0.21434,-0.21434a8.29507,8.29507 0 0 0 -0.42869,-7.07331a4.07251,4.07251 0 0 0 -1.5004,-1.71474a2.14343,2.14343 0 0 0 -3.0008,0.64303z" fill="#fff" id="svg_4023"/>
     <path stroke="null" d="m208.87284,72.74773a23.92066,23.92066 0 0 0 12.86057,-1.71474a36.86696,36.86696 0 0 0 5.14423,-2.57211q1.92909,2.2506 3.85817,1.28606a2.87219,2.87219 0 0 0 1.5004,-1.28606a5.2514,5.2514 0 0 0 0.85737,-2.57211a0.21434,0.21434 0 0 1 -0.21434,0.21434c-1.07171,1.71474 -3.21514,1.28606 -4.5012,-1.07171a7.39483,7.39483 0 0 1 -0.21434,-7.28766a1.90765,1.90765 0 0 1 2.78646,-0.64303l-0.64303,-0.64303a2.91506,2.91506 0 0 0 -4.92988,0.42869a8.83092,8.83092 0 0 0 -0.85737,6.43028a41.19669,41.19669 0 0 1 -7.502,3.85817a31.50839,31.50839 0 0 1 -10.28845,0.64303a3.8153,3.8153 0 0 1 -2.57211,-2.14343l0,0a49.17024,49.17024 0 0 0 1.92909,6.0016l0,0c0.42869,0 1.07171,0.64303 2.78646,1.07171z" fill="#002b69" id="svg_4024"/>
    </g>
    <g stroke="null" id="svg_4025">
     <polygon stroke="null" points="134.49597883224487,245.07930707931519 134.28168439865112,245.07930707931519 134.28168439865112,245.07930707931519 134.49597883224487,246.57973432540894 134.49597883224487,246.79408979415894 134.92468976974487,255.79643964767456 134.28168439865112,245.07930707931519 134.49597883224487,245.07930707931519 " fill="none" id="svg_4026"/>
     <path stroke="null" d="m166.21863,277.8738l0,-3.42948l-0.21434,0l-8.57371,27.43588l3.85817,-0.42869l0.42869,0.42869l13.07491,-6.21594l0.42869,-4.07251l4.07251,-1.5004l-3.21514,-1.5004l0.64303,-6.85897l-1.92909,-0.85737l-0.42869,-1.28606l-3.21514,1.5004l-4.92988,-3.21514z" fill="none" id="svg_4027"/>
     <polygon stroke="null" points="128.49433088302612,243.36458539962769 132.1381754875183,244.43630170822144 128.06561994552612,243.36458539962769 128.49433088302612,243.36458539962769 " fill="none" id="svg_4028"/>
     <polygon stroke="null" points="135.13896894454956,258.58293867111206 135.13896894454956,258.58293867111206 135.13896894454956,258.58293867111206 145.21311140060425,253.01003217697144 145.21311140060425,253.01003217697144 135.13896894454956,258.58293867111206 " fill="none" id="svg_4029"/>
     <path stroke="null" d="m140.49749,234.14786a9.83833,9.83833 0 0 0 0.21434,2.14343a23.3848,23.3848 0 0 0 2.35777,-1.28606l-1.92909,-1.28606a3.08654,3.08654 0 0 1 -0.64303,0.42869z" fill="none" id="svg_4030"/>
     <polygon stroke="null" points="151.42909955978394,249.36617231369019 153.14382123947144,248.50881147384644 153.14382123947144,248.50881147384644 151.42909955978394,249.36617231369019 " fill="none" id="svg_4031"/>
     <polygon stroke="null" points="209.30165815353394,263.7271647453308 200.299232006073,259.2259440422058 189.58209943771362,265.01323652267456 187.43866682052612,270.3718180656433 184.43781232833862,270.80043745040894 185.72394514083862,271.01479291915894 185.50952863693237,274.4442973136902 174.3638072013855,279.58852338790894 174.792396068573,280.8745951652527 176.72153425216675,281.51760053634644 176.07839155197144,288.5909342765808 179.29366254806519,290.0913004875183 175.221107006073,291.59172773361206 174.792396068573,295.66423749923706 161.71753644943237,301.88014936447144 166.0043864250183,306.59572553634644 164.93267011642456,308.95351362228394 164.07524824142456,309.1678080558777 164.2896647453308,309.1678080558777 186.15253400802612,301.0227885246277 186.36695051193237,296.9503092765808 189.36780500411987,295.66423749923706 191.0823893547058,283.2323832511902 200.0849528312683,277.23073530197144 199.8703989982605,270.5861735343933 209.30165815353394,263.7271647453308 " fill="#066687" opacity="0.32" id="svg_4032"/>
     <path stroke="null" d="m141.78355,231.79009s0.42869,1.07171 0,1.5004l0,0c-0.21434,0 -0.42869,0.21434 -0.64303,0.42869l1.92909,1.28606c0.64303,-0.21434 1.07171,-0.64303 1.71474,-0.85737l-1.71474,-1.71474l0,-3.0008l-2.35777,-0.42869l0,2.78646c0.42869,-0.21434 0.64303,-0.21434 0.85737,-0.42869l0.21434,0.42869z" fill="#f9a873" id="svg_4033"/>
     <polygon stroke="null" points="143.06967878341675,228.14624738693237 139.854407787323,227.71759748458862 138.99712324142456,226.64582014083862 138.78281354904175,227.50324201583862 140.0689616203308,229.00360822677612 140.9262614250183,229.21796369552612 143.06967878341675,229.43231916427612 143.06967878341675,228.14624738693237 " fill="#fff" id="svg_4034"/>
     <polygon stroke="null" points="143.06967878341675,228.14624738693237 143.2839732170105,221.07295942306519 142.42668867111206,220.64424848556519 145.856116771698,207.9980387687683 138.3541178703308,181.41953229904175 135.3532633781433,198.56696271896362 137.71099042892456,224.71674299240112 138.99712324142456,226.64582014083862 139.854407787323,227.71759748458862 143.06967878341675,228.14624738693237 " fill="#002b6a" id="svg_4035"/>
     <path stroke="null" d="m135.78195,268.8714z" fill="#347795" id="svg_4036"/>
     <path stroke="null" d="m135.13892,258.58294z" fill="#347795" id="svg_4037"/>
     <polygon stroke="null" points="134.92468976974487,255.79643964767456 134.49597883224487,246.79408979415894 134.49597883224487,246.57973432540894 134.28168439865112,245.07930707931519 134.28168439865112,245.07930707931519 132.1381754875183,244.43630170822144 128.49433088302612,243.36458539962769 128.49433088302612,243.36458539962769 128.06561994552612,243.36458539962769 128.06561994552612,246.36537885665894 129.35175275802612,266.2993083000183 135.7820963859558,268.87139081954956 135.13896894454956,258.58293867111206 134.92468976974487,255.79643964767456 " fill="#347795" id="svg_4038"/>
     <path stroke="null" d="m134.49589,245.07935l0,0l0.64303,10.5028l0.21434,2.78646l0,0l10.07411,-5.57291l0,-2.14343l5.35857,-3.0008l0.85737,0.42869l0,1.28606l1.71474,-1.07171c0.21434,-3.0008 0.21434,-5.14423 0.21434,-5.14423c-0.85737,-1.07171 -3.21514,-3.42948 -5.14423,-5.57291l-13.93228,7.502z" fill="#066687" id="svg_4039"/>
     <path stroke="null" d="m151.42897,249.3662l0,2.57211l-5.35857,2.78646l-0.85737,-0.21434l0,-1.71474l-10.07411,5.57291l0,0l0.64303,10.28845l0,0l16.93308,-10.07411c0.21434,-3.42948 0.42869,-7.28766 0.64303,-10.28845l-1.92909,1.07171z" fill="#005377" id="svg_4040"/>
     <polygon stroke="null" points="151.42909955978394,248.08010053634644 146.28469038009644,251.08095502853394 145.21311140060425,250.86659955978394 145.21311140060425,253.01003217697144 145.21311140060425,253.01003217697144 145.21311140060425,254.72475385665894 146.07039594650269,254.72475385665894 151.42909955978394,251.93831586837769 151.42909955978394,249.36617231369019 151.42909955978394,249.36617231369019 151.42909955978394,248.08010053634644 " fill="#a4e0ea" id="svg_4041"/>
     <path stroke="null" d="m134.28155,245.07935l0,0l13.71794,-7.502c-1.28606,-1.28606 -2.35777,-2.57211 -3.42948,-3.42948a12.73196,12.73196 0 0 1 -1.71474,0.85737a23.3848,23.3848 0 0 0 -2.35777,1.28606c0,1.5004 0.21434,3.21514 0.21434,3.42948a3.15084,3.15084 0 0 1 -0.85737,0.42869c-0.64303,0 -1.71474,-0.42869 -1.28606,-0.21434a16.07571,16.07571 0 0 0 -0.21434,-2.57211c-5.57291,3.0008 -10.5028,5.57291 -10.71714,5.78726l0,0.21434l4.07251,1.07171l2.57211,0.64303z" fill="#4490ab" id="svg_4042"/>
     <path stroke="null" d="m140.0688,240.36381a3.15084,3.15084 0 0 0 0.85737,-0.42869c0,-0.21434 -0.21434,-1.92909 -0.21434,-3.42948a4.80128,4.80128 0 0 0 -0.21434,-2.14343a2.65785,2.65785 0 0 1 0.64303,-0.42869c0.21434,-0.21434 0.42869,-0.21434 0.64303,-0.42869l0,0c0.42869,-0.42869 0,-1.5004 0,-1.5004l-0.21434,-0.21434c-0.21434,0 -0.42869,0.21434 -0.85737,0.42869l-2.57211,1.07171s0.21434,2.35777 0.21434,4.28686a22.5703,22.5703 0 0 0 0.21434,2.57211c-0.21434,-0.21434 0.85737,0.21434 1.5004,0.21434z" fill="#a4e0ea" id="svg_4043"/>
     <polygon stroke="null" points="151.42909955978394,248.08010053634644 150.57154035568237,247.65145063400269 145.21311140060425,250.86659955978394 146.28469038009644,251.08095502853394 151.42909955978394,248.08010053634644 " fill="#a4e0ea" id="svg_4044"/>
     <polygon stroke="null" points="151.42909955978394,248.08010053634644 150.57154035568237,247.65145063400269 145.21311140060425,250.86659955978394 146.28469038009644,251.08095502853394 151.42909955978394,248.08010053634644 " fill="#c6f1ff" opacity="0.68" id="svg_4045"/>
     <path stroke="null" d="m166.00428,306.59573l-4.28686,-4.71554l-0.42869,-0.42869s-2.14343,0.21434 -3.85817,0.42869l-1.71474,5.35857c-0.85737,1.07171 -8.57371,3.0008 -8.57371,3.0008c0.21434,-0.42869 -2.78646,-2.14343 -4.5012,-3.21514l-0.64303,2.14343l1.07171,1.5004l2.35777,2.57211l18.86217,-4.07251l0.85737,-0.21434l0.85737,-2.35777z" fill="#002b6a" id="svg_4046"/>
     <polygon stroke="null" points="165.79009199142456,274.4442973136902 166.21868085861206,274.4442973136902 166.21868085861206,277.87380170822144 171.14853620529175,281.0889506340027 174.3638072013855,279.58852338790894 185.50952863693237,274.4442973136902 185.72394514083862,271.01479291915894 184.43781232833862,270.80043745040894 179.93666791915894,269.5143656730652 178.43611860275269,269.7287211418152 182.08010053634644,246.36537885665894 180.36525678634644,238.6490397453308 172.43466901779175,233.71916913986206 167.2903971672058,269.7287211418152 165.79009199142456,274.4442973136902 " fill="#002b6a" id="svg_4047"/>
     <path stroke="null" d="m146.92777,310.23956a51.9567,51.9567 0 0 0 8.57371,-3.0008l1.71474,-5.35857l8.57371,-27.43588l1.5004,-4.71554l4.92988,-36.00959l0.21434,-1.07171l-9.21674,0l-20.14822,-11.36017l0,11.36017l1.71474,1.71474l3.42948,3.42948c2.14343,2.14343 4.28686,4.5012 5.14423,5.57291c0,0 0,2.14343 -0.21434,5.14423l0,0c-0.21434,3.0008 -0.42869,6.64463 -0.64303,10.28845c-0.42869,5.78726 -0.64303,11.14583 -0.64303,11.14583l-10.71714,36.65262l1.28606,0.64303a16.99738,16.99738 0 0 1 4.5012,3.0008z" fill="#05346d" id="svg_4048"/>
     <path stroke="null" d="m142.42657,220.64427l0.85737,0.42869l20.14822,11.36017l10.5028,0l0,-6.85897l-1.28606,-20.79125l0,-14.78965l-2.14343,-8.57371l-7.07331,-4.5012c0.21434,0.42869 0.42869,1.07171 0.21434,1.07171l-7.28766,0l-7.28766,-5.35857l0.21434,-1.71474l2.14343,-0.64303l-0.42869,0.85737l0,0a13.13921,13.13921 0 0 1 0.85737,-1.28606l-0.42869,-0.21434l0,-0.21434l-5.78726,-1.07171l-4.92988,3.64383l-2.14343,9.21674l7.28766,26.57851l-3.42948,12.86057z" fill="#083d72" id="svg_4049"/>
     <path stroke="null" d="m157.21623,175.63228l-6.21594,-4.5012l0,0l0.42869,-0.64303l-2.14343,0.64303l-0.21434,1.71474l7.28766,5.35857l7.28766,0c0.21434,0 -0.21434,-0.64303 -0.21434,-1.07171l0,-0.42869l-6.21594,-1.07171z" fill="#fff" id="svg_4050"/>
     <path stroke="null" d="m163.86085,160.84262l-0.21434,1.28606l0,0.21434l-1.71474,-1.92909l-0.85737,2.35777l1.92909,4.92988l-1.07171,4.5012l-3.64383,1.5004l-6.21594,-3.64383c-0.21434,0.42869 -0.64303,0.85737 -0.85737,1.28606l6.21594,4.5012l6.0016,1.07171l0,0.21434c0.21434,-1.28606 0.42869,-3.21514 0.64303,-5.14423l5.14423,-4.92988l-4.5012,-13.93228l-1.71474,4.5012l0.85737,3.21514z" fill="#f9a873" id="svg_4051"/>
     <polygon stroke="null" points="151.85768842697144,169.84503889083862 158.07367658615112,173.70317792892456 161.71753644943237,171.98847150802612 162.78923749923706,167.48725080490112 160.86011457443237,162.77168989181519 161.93181562423706,160.41390180587769 163.64667463302612,162.34297895431519 163.64667463302612,162.12862348556519 163.8609538078308,160.84261274337769 163.0035319328308,157.1987681388855 164.50395917892456,152.9119029045105 165.1469645500183,151.19719648361206 163.64667463302612,146.48162031173706 149.28566694259644,149.2680583000183 144.5701060295105,154.19797468185425 146.92781782150269,163.20040082931519 150.35726118087769,167.91590070724487 151.21468305587769,169.41632795333862 151.42909955978394,169.63068342208862 151.85768842697144,169.84503889083862 " fill="#002b6a" id="svg_4052"/>
    </g>
    <g stroke="null" id="hand3">
     <path stroke="null" d="m200.08479,125.90475c-6.85897,-6.0016 -7.93068,6.64463 -4.5012,21.64862a3.83674,3.83674 0 0 0 -3.85817,3.85817a8.03786,8.03786 0 0 0 0.21434,2.35777c0.64303,3.85817 3.64383,6.64463 4.92988,6.43028s0.42869,-3.0008 1.71474,-4.71554s3.0008,-3.64383 2.14343,-5.57291c0,-0.21434 -0.21434,-0.21434 -0.21434,-0.42869l-1.28606,-1.28606a102.99172,102.99172 0 0 0 2.35777,-14.57531c0,-2.78646 0,-6.64463 -1.5004,-7.71634z" fill="#fff" id="svg_4053"/>
    </g>
    <g stroke="null" id="hasanhaand">
     <path stroke="null" d="m202.01387,157.1988l-3.85817,-6.0016l-1.92909,1.07171l-0.21434,3.0008s-0.85737,2.57211 -1.92909,5.14423l5.57291,1.5004l2.35777,-4.71554z" fill="#f9a873" id="svg_4054"/>
     <polygon stroke="null" points="199.8703989982605,161.69997358322144 199.441810131073,161.69997358322144 193.86894941329956,160.19954633712769 193.44011640548706,159.98519086837769 193.2258219718933,161.05696821212769 199.441810131073,163.20040082931519 200.0849528312683,164.05776166915894 200.727942943573,162.98604536056519 199.8703989982605,161.69997358322144 " fill="#fff" id="svg_4055"/>
     <path stroke="null" d="m193.22582,161.05697l-0.64303,-0.21434l-7.71634,16.93308l-19.5052,5.57291c-4.28686,2.78646 -3.21514,10.28845 -3.21514,10.28845c1.28606,2.14343 3.64383,3.21514 7.28766,2.35777l21.0056,-8.78806l10.28845,-22.72034l-0.21434,-0.42869l-0.64303,-0.85737l-6.64463,-2.14343z" fill="#114b7c" id="svg_4056"/>
    </g>
   </g>
  </g>
 </g>
</svg>