<?xml version="1.0" encoding="utf-8"?>
<!-- Generator: Adobe Illustrator 17.0.0, SVG Export Plug-In . SVG Version: 6.00 Build 0)  -->
<!DOCTYPE svg PUBLIC "-//W3C//DTD SVG 1.1//EN" "http://www.w3.org/Graphics/SVG/1.1/DTD/svg11.dtd">
<svg version="1.1" id="Layer_1" xmlns="http://www.w3.org/2000/svg" xmlns:xlink="http://www.w3.org/1999/xlink" x="0px" y="0px"
	 width="300px" height="300px" viewBox="0 0 300 300" enable-background="new 0 0 300 300" xml:space="preserve">
<path fill="#9D6965" stroke="#000000" stroke-linecap="round" stroke-linejoin="round" stroke-miterlimit="10" d="M44.682,113.521
	L43.23,224.984c0,0,100.441-2.133,103.329-2.133c2.888,0,115.334-7.549,115.126-6.511c-0.207,1.037-7.473-97.839-8.51-98.669
	S44.693,112.681,44.682,113.521z"/>
<path fill="#FFFFFF" stroke="#000000" stroke-linecap="round" stroke-linejoin="round" stroke-miterlimit="10" d="M39.911,109.994
	c-0.873,0.109,3.032,6.43,4.732,6.638c1.7,0.208,207.162,2.894,208.885,2.796c1.723-0.098,2.138-3.524,1.515-4.716
	c-0.622-1.191-88.791-6.17-98.542-6.17C146.75,108.542,41.57,109.787,39.911,109.994z"/>
<path fill="#9D6965" stroke="#000000" stroke-linecap="round" stroke-linejoin="round" stroke-miterlimit="10" d="M52.831,106.832
	c0.023-1.175,0.494-31.776,1.572-31.776c1.078,0,7.834-0.165,7.932,0.129c0.098,0.294,2.253,3.919,2.253,5.585
	c0,1.666,0.098,23.221,0,24.005S52.804,108.21,52.831,106.832z"/>
<path fill="none" stroke="#000000" stroke-linecap="round" stroke-linejoin="round" stroke-miterlimit="10" d="M60.278,104.088
	c0-1.078,1.372-28.573,1.715-29.032"/>
<path fill="#9D6965" stroke="#000000" stroke-linecap="round" stroke-linejoin="round" stroke-miterlimit="10" d="M232.425,107.028
	c0-0.294-1.372-27.238-1.666-27.826c-0.294-0.588-7.054,0-7.054,0s-6.173,6.369-6.173,6.662c0,0.294,0.784,18.126,0.784,18.812
	S232.425,107.028,232.425,107.028z"/>
<path fill="none" stroke="#000000" stroke-linecap="round" stroke-linejoin="round" stroke-miterlimit="10" d="M224.978,102.815
	c-0.196-0.98-1.274-23.613-1.274-23.613"/>
<path fill="#B2AFAE" stroke="#000000" stroke-linecap="round" stroke-linejoin="round" stroke-miterlimit="10" d="M257.213,113.986
	c-0.685,0.088-84.065-1.962-87.298-1.864c-3.233,0.098-130.996-1.176-131.584-1.176c-0.588,0,15.089-5.879,16.754-6.858
	c1.666-0.98,50.752-21.163,51.634-21.065c0.882,0.098,73.777,1.666,74.953,1.96C182.848,85.277,257.805,113.91,257.213,113.986z"/>
<path fill="#FFFFFF" stroke="#000000" stroke-linecap="round" stroke-linejoin="round" stroke-miterlimit="10" d="M108.086,106.146
	c0.008-0.882,0.201-14.795,0.005-15.578c-0.196-0.784-3.723-3.919-4.703-3.919s-5.193,2.841-5.487,3.723
	c-0.294,0.882-0.294,17.048,0,16.656C98.195,106.636,108.081,106.734,108.086,106.146z"/>
<path fill="#9EB0CC" stroke="#000000" stroke-linecap="round" stroke-linejoin="round" stroke-miterlimit="10" d="M100.155,92.037
	c-0.033,0.692-0.098,12.443,0,12.933c0.098,0.49,5.879,0.098,5.879-0.784c0-0.882,0.392-11.855,0-12.149
	C105.641,91.743,100.183,91.447,100.155,92.037z"/>
<path fill="#FFFFFF" stroke="#000000" stroke-linecap="round" stroke-linejoin="round" stroke-miterlimit="10" d="M156.964,107.224
	c0.008-0.882,0.201-14.795,0.005-15.578s-3.723-3.919-4.703-3.919c-0.98,0-5.193,2.841-5.487,3.723
	c-0.294,0.882-0.294,17.048,0,16.656C147.073,107.714,156.959,107.811,156.964,107.224z"/>
<path fill="#9EB0CC" stroke="#000000" stroke-linecap="round" stroke-linejoin="round" stroke-miterlimit="10" d="M149.033,93.115
	c-0.033,0.692-0.098,12.443,0,12.933c0.098,0.49,5.879,0.098,5.879-0.784s0.392-11.855,0-12.149
	C154.52,92.821,149.061,92.525,149.033,93.115z"/>
<path fill="#FFFFFF" stroke="#000000" stroke-linecap="round" stroke-linejoin="round" stroke-miterlimit="10" d="M196.271,91.697
	c0,0-6.858,7.072-6.956,7.821s5.479,8.202,5.977,8.594S197.26,92.171,196.271,91.697z"/>
<path fill="#FFFFFF" stroke="#000000" stroke-linecap="round" stroke-linejoin="round" stroke-miterlimit="10" d="M204.777,107.81
	c0.008-0.882,0.201-14.795,0.005-15.578s-3.723-3.919-4.703-3.919c-0.98,0-5.193,2.841-5.487,3.723
	c-0.294,0.882-0.294,17.048,0,16.656C194.887,108.3,204.772,108.398,204.777,107.81z"/>
<path fill="#9EB0CC" stroke="#000000" stroke-linecap="round" stroke-linejoin="round" stroke-miterlimit="10" d="M196.846,93.702
	c-0.033,0.692-0.098,12.443,0,12.933c0.098,0.49,5.879,0.098,5.879-0.784c0-0.882,0.392-11.855,0-12.149
	C202.333,93.408,196.874,93.112,196.846,93.702z"/>
<path fill="none" stroke="#000000" stroke-linecap="round" stroke-linejoin="round" stroke-miterlimit="10" d="M49.406,116.739
	c0.013,0-1.344,106.585-1.348,108.143"/>
<path fill="none" stroke="#000000" stroke-linecap="round" stroke-linejoin="round" stroke-miterlimit="10" d="M48.732,146.428
	c2.994,0.193,114.12-0.58,118.565,0c4.445,0.58,81.75-0.053,82.91-0.22"/>
<path fill="none" stroke="#000000" stroke-linecap="round" stroke-linejoin="round" stroke-miterlimit="10" d="M247.888,119.431
	c0.193,1.1,2.126,27.771,2.319,31.636c0.193,3.865,5.771,63.954,5.108,65.315"/>
<path fill="#FFFFFF" stroke="#000000" stroke-linecap="round" stroke-linejoin="round" stroke-miterlimit="10" d="M56.98,122.523
	c-0.574,1.263-1.378,15.384,0,16.303c1.378,0.918,8.955,0.344,9.414-0.689c0.459-1.033,0.344-14.236,0-15.155
	S56.98,122.523,56.98,122.523z"/>
<path fill="#9EB0CC" stroke="#000000" stroke-linecap="round" stroke-linejoin="round" stroke-miterlimit="10" d="M58.732,125.049
	c-0.281,0.546-0.487,11.548-0.186,11.763c0.302,0.215,6.204,0.302,6.333-0.302c0.129-0.603,0.086-10.814,0-11.245
	C64.793,124.835,58.875,124.771,58.732,125.049z"/>
<path fill="#FFFFFF" stroke="#000000" stroke-linecap="round" stroke-linejoin="round" stroke-miterlimit="10" d="M77.488,122.954
	c-0.574,1.263-1.378,15.384,0,16.303c1.378,0.918,8.955,0.344,9.414-0.689c0.459-1.033,0.344-14.236,0-15.155
	S77.488,122.954,77.488,122.954z"/>
<path fill="#9EB0CC" stroke="#000000" stroke-linecap="round" stroke-linejoin="round" stroke-miterlimit="10" d="M79.24,125.48
	c-0.281,0.546-0.487,11.548-0.186,11.763s6.204,0.302,6.333-0.302c0.129-0.603,0.086-10.814,0-11.245
	C85.301,125.266,79.382,125.202,79.24,125.48z"/>
<path fill="#FFFFFF" stroke="#000000" stroke-linecap="round" stroke-linejoin="round" stroke-miterlimit="10" d="M97.35,123.213
	c-0.574,1.263-1.378,15.384,0,16.303c1.378,0.918,8.955,0.344,9.414-0.689c0.459-1.033,0.344-14.236,0-15.155
	C106.42,122.753,97.35,123.213,97.35,123.213z"/>
<path fill="#9EB0CC" stroke="#000000" stroke-linecap="round" stroke-linejoin="round" stroke-miterlimit="10" d="M99.101,125.738
	c-0.281,0.546-0.487,11.548-0.186,11.763c0.302,0.215,6.204,0.302,6.333-0.302c0.129-0.603,0.086-10.814,0-11.245
	C105.162,125.524,99.244,125.46,99.101,125.738z"/>
<path fill="#FFFFFF" stroke="#000000" stroke-linecap="round" stroke-linejoin="round" stroke-miterlimit="10" d="M118.202,123.293
	c-0.574,1.263-1.378,15.384,0,16.303c1.378,0.918,8.955,0.344,9.414-0.689c0.459-1.033,0.344-14.236,0-15.155
	S118.202,123.293,118.202,123.293z"/>
<path fill="#9EB0CC" stroke="#000000" stroke-linecap="round" stroke-linejoin="round" stroke-miterlimit="10" d="M119.954,125.819
	c-0.281,0.546-0.487,11.548-0.186,11.763s6.204,0.302,6.333-0.302c0.129-0.603,0.086-10.814,0-11.245
	C126.015,125.604,120.096,125.541,119.954,125.819z"/>
<path fill="#FFFFFF" stroke="#000000" stroke-linecap="round" stroke-linejoin="round" stroke-miterlimit="10" d="M149.308,123.213
	c-0.574,1.263-1.378,15.384,0,16.303c1.378,0.918,8.955,0.344,9.414-0.689c0.459-1.033,0.344-14.236,0-15.155
	C158.378,122.753,149.308,123.213,149.308,123.213z"/>
<path fill="#9EB0CC" stroke="#000000" stroke-linecap="round" stroke-linejoin="round" stroke-miterlimit="10" d="M151.06,125.738
	c-0.281,0.546-0.487,11.548-0.186,11.763c0.302,0.215,6.204,0.302,6.333-0.302c0.129-0.603,0.086-10.814,0-11.245
	C157.121,125.524,151.203,125.46,151.06,125.738z"/>
<path fill="#FFFFFF" stroke="#000000" stroke-linecap="round" stroke-linejoin="round" stroke-miterlimit="10" d="M179.165,124.117
	c-0.574,1.263-1.378,15.384,0,16.303c1.378,0.918,8.955,0.344,9.414-0.689c0.459-1.033,0.344-14.236,0-15.155
	C188.235,123.658,179.165,124.117,179.165,124.117z"/>
<path fill="#9EB0CC" stroke="#000000" stroke-linecap="round" stroke-linejoin="round" stroke-miterlimit="10" d="M180.917,126.643
	c-0.281,0.546-0.487,11.548-0.186,11.763c0.302,0.215,6.204,0.302,6.333-0.302c0.129-0.603,0.086-10.814,0-11.245
	C186.978,126.429,181.06,126.365,180.917,126.643z"/>
<path fill="#FFFFFF" stroke="#000000" stroke-linecap="round" stroke-linejoin="round" stroke-miterlimit="10" d="M198.596,124.198
	c-0.574,1.263-1.378,15.384,0,16.303c1.378,0.918,8.955,0.344,9.414-0.689c0.459-1.033,0.344-14.236,0-15.155
	C207.666,123.738,198.596,124.198,198.596,124.198z"/>
<path fill="#9EB0CC" stroke="#000000" stroke-linecap="round" stroke-linejoin="round" stroke-miterlimit="10" d="M200.347,126.723
	c-0.281,0.546-0.487,11.548-0.186,11.763c0.302,0.215,6.204,0.302,6.333-0.302c0.129-0.603,0.086-10.814,0-11.245
	C206.409,126.509,200.49,126.445,200.347,126.723z"/>
<path fill="#FFFFFF" stroke="#000000" stroke-linecap="round" stroke-linejoin="round" stroke-miterlimit="10" d="M216.476,124.117
	c-0.574,1.263-1.378,15.384,0,16.303c1.378,0.918,8.955,0.344,9.414-0.689c0.459-1.033,0.344-14.236,0-15.155
	C225.546,123.658,216.476,124.117,216.476,124.117z"/>
<path fill="#9EB0CC" stroke="#000000" stroke-linecap="round" stroke-linejoin="round" stroke-miterlimit="10" d="M218.227,126.643
	c-0.281,0.546-0.487,11.548-0.186,11.763c0.302,0.215,6.204,0.302,6.333-0.302c0.129-0.603,0.086-10.814,0-11.245
	C224.289,126.429,218.37,126.365,218.227,126.643z"/>
<path fill="#FFFFFF" stroke="#000000" stroke-linecap="round" stroke-linejoin="round" stroke-miterlimit="10" d="M234.355,124.807
	c-0.574,1.263-1.378,15.384,0,16.303s8.955,0.344,9.414-0.689c0.459-1.033,0.344-14.236,0-15.155
	C243.425,124.348,234.355,124.807,234.355,124.807z"/>
<path fill="#9EB0CC" stroke="#000000" stroke-linecap="round" stroke-linejoin="round" stroke-miterlimit="10" d="M236.107,127.333
	c-0.281,0.546-0.487,11.548-0.186,11.763c0.302,0.215,6.204,0.302,6.333-0.302c0.129-0.603,0.086-10.814,0-11.245
	C242.168,127.118,236.25,127.055,236.107,127.333z"/>
<path fill="#FFFFFF" stroke="#000000" stroke-linecap="round" stroke-linejoin="round" stroke-miterlimit="10" d="M55.799,152.457
	c-0.574,1.513-1.378,18.429,0,19.529c1.378,1.1,9.258,0.78,9.717-0.457c0.459-1.238,0.042-17.421-0.303-18.522
	C64.869,151.906,55.799,152.457,55.799,152.457z"/>
<path fill="#9EB0CC" stroke="#000000" stroke-linecap="round" stroke-linejoin="round" stroke-miterlimit="10" d="M57.551,155.482
	c-0.281,0.654-0.487,13.833-0.186,14.091c0.302,0.258,6.204,0.361,6.333-0.361s0.086-12.954,0-13.47
	C63.612,155.226,57.694,155.149,57.551,155.482z"/>
<path fill="#FFFFFF" stroke="#000000" stroke-linecap="round" stroke-linejoin="round" stroke-miterlimit="10" d="M77.604,153.506
	c-0.574,1.513-1.378,18.429,0,19.529c1.378,1.1,9.258,0.78,9.717-0.457c0.459-1.238,0.042-17.421-0.303-18.522
	C86.674,152.956,77.604,153.506,77.604,153.506z"/>
<path fill="#9EB0CC" stroke="#000000" stroke-linecap="round" stroke-linejoin="round" stroke-miterlimit="10" d="M79.355,156.532
	c-0.281,0.654-0.487,13.833-0.186,14.091c0.302,0.258,6.204,0.361,6.333-0.361c0.129-0.723,0.086-12.954,0-13.47
	C85.417,156.275,79.498,156.199,79.355,156.532z"/>
<path fill="#FFFFFF" stroke="#000000" stroke-linecap="round" stroke-linejoin="round" stroke-miterlimit="10" d="M97.914,153.829
	c-0.574,1.513-1.378,18.429,0,19.529c1.378,1.1,9.258,0.78,9.717-0.457c0.459-1.238,0.042-17.421-0.303-18.522
	C106.984,153.279,97.914,153.829,97.914,153.829z"/>
<path fill="#9EB0CC" stroke="#000000" stroke-linecap="round" stroke-linejoin="round" stroke-miterlimit="10" d="M99.666,156.855
	c-0.281,0.654-0.487,13.833-0.186,14.091c0.302,0.258,6.204,0.361,6.333-0.361s0.086-12.954,0-13.47
	C105.727,156.598,99.808,156.522,99.666,156.855z"/>
<path fill="#FFFFFF" stroke="#000000" stroke-linecap="round" stroke-linejoin="round" stroke-miterlimit="10" d="M118.346,153.865
	c-0.574,1.513-1.378,18.429,0,19.529c1.378,1.1,9.258,0.78,9.717-0.457c0.459-1.238,0.042-17.421-0.303-18.522
	C127.415,153.315,118.346,153.865,118.346,153.865z"/>
<path fill="#9EB0CC" stroke="#000000" stroke-linecap="round" stroke-linejoin="round" stroke-miterlimit="10" d="M120.097,156.891
	c-0.281,0.654-0.487,13.833-0.186,14.091c0.302,0.258,6.204,0.361,6.333-0.361s0.086-12.954,0-13.47
	C126.158,156.634,120.24,156.558,120.097,156.891z"/>
<path fill="#FFFFFF" stroke="#000000" stroke-linecap="round" stroke-linejoin="round" stroke-miterlimit="10" d="M150.85,153.461
	c-0.574,1.513-1.378,18.429,0,19.529c1.378,1.1,9.258,0.78,9.717-0.457c0.459-1.238,0.042-17.421-0.303-18.522
	C159.92,152.911,150.85,153.461,150.85,153.461z"/>
<path fill="#9EB0CC" stroke="#000000" stroke-linecap="round" stroke-linejoin="round" stroke-miterlimit="10" d="M152.602,156.487
	c-0.281,0.654-0.487,13.833-0.186,14.091c0.302,0.258,6.204,0.361,6.333-0.361c0.129-0.723,0.086-12.954,0-13.47
	C158.663,156.23,152.745,156.154,152.602,156.487z"/>
<path fill="#FFFFFF" stroke="#000000" stroke-linecap="round" stroke-linejoin="round" stroke-miterlimit="10" d="M180.851,152.881
	c-0.574,1.482-1.378,18.048,0,19.126c1.378,1.078,9.258,0.764,9.717-0.448s0.042-17.062-0.303-18.139
	C189.921,152.342,180.851,152.881,180.851,152.881z"/>
<path fill="#9EB0CC" stroke="#000000" stroke-linecap="round" stroke-linejoin="round" stroke-miterlimit="10" d="M182.603,155.844
	c-0.281,0.641-0.487,13.547-0.186,13.8c0.302,0.253,6.204,0.354,6.333-0.354c0.129-0.708,0.086-12.687,0-13.192
	S182.746,155.518,182.603,155.844z"/>
<path fill="#FFFFFF" stroke="#000000" stroke-linecap="round" stroke-linejoin="round" stroke-miterlimit="10" d="M201.687,152.881
	c-0.574,1.482-1.378,18.048,0,19.126c1.378,1.078,9.258,0.764,9.717-0.448s0.042-17.062-0.303-18.139
	C210.757,152.342,201.687,152.881,201.687,152.881z"/>
<path fill="#9EB0CC" stroke="#000000" stroke-linecap="round" stroke-linejoin="round" stroke-miterlimit="10" d="M203.438,155.844
	c-0.281,0.641-0.487,13.547-0.186,13.8c0.302,0.253,6.204,0.354,6.333-0.354c0.129-0.708,0.086-12.687,0-13.192
	S203.581,155.518,203.438,155.844z"/>
<path fill="#FFFFFF" stroke="#000000" stroke-linecap="round" stroke-linejoin="round" stroke-miterlimit="10" d="M218.646,152.679
	c-0.574,1.482-1.378,18.048,0,19.126c1.378,1.078,9.258,0.764,9.717-0.448s0.042-17.062-0.303-18.139
	C227.715,152.14,218.646,152.679,218.646,152.679z"/>
<path fill="#9EB0CC" stroke="#000000" stroke-linecap="round" stroke-linejoin="round" stroke-miterlimit="10" d="M220.397,155.642
	c-0.281,0.641-0.487,13.547-0.186,13.8c0.302,0.253,6.204,0.354,6.333-0.354c0.129-0.708,0.086-12.687,0-13.192
	C226.458,155.391,220.54,155.316,220.397,155.642z"/>
<path fill="#FFFFFF" stroke="#000000" stroke-linecap="round" stroke-linejoin="round" stroke-miterlimit="10" d="M236.251,152.195
	c-0.574,1.482-1.378,18.048,0,19.126c1.378,1.078,9.258,0.764,9.717-0.448s0.042-17.062-0.303-18.139
	C245.32,151.656,236.251,152.195,236.251,152.195z"/>
<path fill="#9EB0CC" stroke="#000000" stroke-linecap="round" stroke-linejoin="round" stroke-miterlimit="10" d="M238.002,155.158
	c-0.281,0.641-0.487,13.547-0.186,13.8c0.302,0.253,6.204,0.354,6.333-0.354c0.129-0.708,0.086-12.687,0-13.192
	S238.145,154.832,238.002,155.158z"/>
<path fill="#FFFFFF" stroke="#000000" stroke-linecap="round" stroke-linejoin="round" stroke-miterlimit="10" d="M55.799,183.423
	c-0.574,1.744-1.378,21.246,0,22.515c1.378,1.268,9.258,0.9,9.717-0.527c0.459-1.427,0.042-20.085-0.303-21.353
	C64.869,182.789,55.799,183.423,55.799,183.423z"/>
<path fill="#9EB0CC" stroke="#000000" stroke-linecap="round" stroke-linejoin="round" stroke-miterlimit="10" d="M57.551,186.911
	c-0.281,0.754-0.487,15.948-0.186,16.245s6.204,0.417,6.333-0.417s0.086-14.935,0-15.53
	C63.612,186.615,57.694,186.527,57.551,186.911z"/>
<path fill="#FFFFFF" stroke="#000000" stroke-linecap="round" stroke-linejoin="round" stroke-miterlimit="10" d="M77.604,183.964
	c-0.574,1.744-1.378,21.246,0,22.515s9.258,0.9,9.717-0.527c0.459-1.427,0.042-20.085-0.303-21.353
	C86.674,183.33,77.604,183.964,77.604,183.964z"/>
<path fill="#9EB0CC" stroke="#000000" stroke-linecap="round" stroke-linejoin="round" stroke-miterlimit="10" d="M79.355,187.452
	c-0.281,0.754-0.487,15.948-0.186,16.245c0.302,0.298,6.204,0.417,6.333-0.417c0.129-0.833,0.086-14.935,0-15.53
	C85.417,187.157,79.498,187.069,79.355,187.452z"/>
<path fill="#FFFFFF" stroke="#000000" stroke-linecap="round" stroke-linejoin="round" stroke-miterlimit="10" d="M97.914,184.505
	c-0.574,1.744-1.378,21.246,0,22.515s9.258,0.9,9.717-0.527c0.459-1.427,0.042-20.085-0.303-21.353
	C106.984,183.871,97.914,184.505,97.914,184.505z"/>
<path fill="#9EB0CC" stroke="#000000" stroke-linecap="round" stroke-linejoin="round" stroke-miterlimit="10" d="M99.666,187.994
	c-0.281,0.754-0.487,15.948-0.186,16.245c0.302,0.298,6.204,0.417,6.333-0.417s0.086-14.935,0-15.53
	C105.727,187.698,99.808,187.61,99.666,187.994z"/>
<path fill="#FFFFFF" stroke="#000000" stroke-linecap="round" stroke-linejoin="round" stroke-miterlimit="10" d="M118.346,185.047
	c-0.574,1.744-1.378,21.246,0,22.515c1.378,1.268,9.258,0.9,9.717-0.527c0.459-1.427,0.042-20.085-0.303-21.353
	S118.346,185.047,118.346,185.047z"/>
<path fill="#9EB0CC" stroke="#000000" stroke-linecap="round" stroke-linejoin="round" stroke-miterlimit="10" d="M120.097,188.535
	c-0.281,0.754-0.487,15.948-0.186,16.245c0.302,0.298,6.204,0.417,6.333-0.417c0.129-0.833,0.086-14.935,0-15.53
	C126.158,188.239,120.24,188.151,120.097,188.535z"/>
<path fill="#AC8778" stroke="#000000" stroke-linecap="round" stroke-linejoin="round" stroke-miterlimit="10" d="M145.706,212.845
	l-8.004,0.739c0,0-0.862,11.717-0.493,11.4c0.369-0.317,44.928-1.179,45.059-2.165c0.132-0.985-2.7-9.974-2.7-9.974
	S147.06,212.72,145.706,212.845z"/>
<path fill="none" stroke="#000000" stroke-linecap="round" stroke-linejoin="round" stroke-miterlimit="10" d="M137.539,215.904
	c2.256-0.227,42.551-0.596,42.551-0.596"/>
<path fill="none" stroke="#000000" stroke-linecap="round" stroke-linejoin="round" stroke-miterlimit="10" d="M137.539,218.89
	c-0.207,0.254,42.58-1.644,43.351-1.689"/>
<path fill="none" stroke="#000000" stroke-linecap="round" stroke-linejoin="round" stroke-miterlimit="10" d="M137.194,221.71
	c0.877,0.001,43.418-3.255,44.189-2.797"/>
<path fill="#FFFFFF" stroke="#000000" stroke-linecap="round" stroke-linejoin="round" stroke-miterlimit="10" d="M162.329,180.851
	c-0.047,1.134,0,31.344,0,31.344s-15.146,1.299-15.146,0s-1.108-31.714,0-32.329C148.292,179.251,162.401,179.131,162.329,180.851z"
	/>
<path fill="#D8D0CE" stroke="#000000" stroke-linecap="round" stroke-linejoin="round" stroke-miterlimit="10" d="M148.415,181.199
	c0.023,0.492,1.757,32.18,1.055,32.134c-0.702-0.046-2.058-0.599-2.911-0.544c-0.853,0.056-1.469-30.728-1.223-31.59
	S148.38,180.456,148.415,181.199z"/>
<path fill="#D8D0CE" stroke="#000000" stroke-linecap="round" stroke-linejoin="round" stroke-miterlimit="10" d="M160.77,181.692
	c-0.035,0.467,0.328,31.391,0.697,31.642c0.369,0.251,3.448-0.544,3.448-0.544s-1.108-29.62-1.108-31.098
	S160.825,180.953,160.77,181.692z"/>
<path fill="#D6C3C1" stroke="#000000" stroke-linecap="round" stroke-linejoin="round" stroke-miterlimit="10" d="M137.539,169.147
	c-1.188,0.363-3.161,5.772-3.038,6.264s2.032,8.784,2.617,8.394s42.756-0.144,43.773-1.006c1.017-0.862,0.461-8.725,0.493-8.734
	c0.032-0.009-0.584-6.278-1.815-6.16C178.337,168.024,139.099,168.67,137.539,169.147z"/>
<path fill="none" stroke="#000000" stroke-linecap="round" stroke-linejoin="round" stroke-miterlimit="10" d="M134.5,175.412
	c2.955-0.246,45.486-0.246,46.939,0"/>
<path fill="#D8D0CE" stroke="#000000" stroke-linecap="round" stroke-linejoin="round" stroke-miterlimit="10" d="M140.041,183.665
	c-0.369,0.008-2.924,0.141-2.924,0.141s0.546,29.349,0.954,29.528c0.408,0.179,3.571,0.016,3.571-0.544
	S140.041,183.665,140.041,183.665z"/>
<path fill="#D8D0CE" stroke="#000000" stroke-linecap="round" stroke-linejoin="round" stroke-miterlimit="10" d="M177.737,183.129
	c0.362-0.098,1.553,0.003,2.353-0.163c0.8-0.165,0.831,33.535,0.415,32.939c-0.415-0.596-2.769-3.115-2.769-3.115
	S176.522,183.457,177.737,183.129z"/>
<path fill="#FFFFFF" stroke="#000000" stroke-linecap="round" stroke-linejoin="round" stroke-miterlimit="10" d="M182.001,183.8
	c-0.488,1.591-0.858,19.275,0.414,20.399s8.41,0.645,8.8-0.657c0.39-1.301-0.332-18.198-0.667-19.341S182.001,183.8,182.001,183.8z"
	/>
<path fill="#9EB0CC" stroke="#000000" stroke-linecap="round" stroke-linejoin="round" stroke-miterlimit="10" d="M183.653,186.928
	c-0.241,0.689-0.148,14.458,0.13,14.722s5.632,0.263,5.734-0.494s-0.197-13.533-0.286-14.07
	C189.143,186.548,183.776,186.578,183.653,186.928z"/>
<path fill="#FFFFFF" stroke="#000000" stroke-linecap="round" stroke-linejoin="round" stroke-miterlimit="10" d="M201.779,183.889
	c-0.488,1.591-0.858,19.275,0.414,20.399c1.272,1.124,8.41,0.645,8.8-0.657c0.39-1.301-0.332-18.198-0.667-19.341
	C209.99,183.147,201.779,183.889,201.779,183.889z"/>
<path fill="#9EB0CC" stroke="#000000" stroke-linecap="round" stroke-linejoin="round" stroke-miterlimit="10" d="M203.431,187.017
	c-0.241,0.689-0.148,14.458,0.13,14.722c0.279,0.264,5.632,0.263,5.734-0.494c0.102-0.757-0.197-13.533-0.286-14.07
	S203.554,186.667,203.431,187.017z"/>
<path fill="#FFFFFF" stroke="#000000" stroke-linecap="round" stroke-linejoin="round" stroke-miterlimit="10" d="M220.203,184.005
	c-0.488,1.591-0.858,19.275,0.414,20.399c1.272,1.124,8.41,0.645,8.8-0.657c0.39-1.301-0.332-18.198-0.667-19.341
	C228.414,183.264,220.203,184.005,220.203,184.005z"/>
<path fill="#9EB0CC" stroke="#000000" stroke-linecap="round" stroke-linejoin="round" stroke-miterlimit="10" d="M221.855,187.134
	c-0.241,0.689-0.148,14.458,0.13,14.722c0.279,0.264,5.632,0.263,5.734-0.494s-0.197-13.533-0.286-14.07
	S221.977,186.783,221.855,187.134z"/>
<path fill="#FFFFFF" stroke="#000000" stroke-linecap="round" stroke-linejoin="round" stroke-miterlimit="10" d="M238.736,184.12
	c-0.488,1.591-0.858,19.275,0.414,20.399c1.272,1.124,8.41,0.645,8.8-0.657c0.39-1.301-0.332-18.198-0.667-19.341
	C246.947,183.378,238.736,184.12,238.736,184.12z"/>
<path fill="#9EB0CC" stroke="#000000" stroke-linecap="round" stroke-linejoin="round" stroke-miterlimit="10" d="M240.388,187.248
	c-0.241,0.689-0.148,14.458,0.13,14.722c0.279,0.264,5.632,0.263,5.734-0.494c0.102-0.757-0.197-13.533-0.286-14.07
	S240.511,186.897,240.388,187.248z"/>
</svg>
