<?xml version="1.0" encoding="utf-8"?>
<!-- Generator: Adobe Illustrator 16.0.0, SVG Export Plug-In . SVG Version: 6.00 Build 0)  -->
<!DOCTYPE svg PUBLIC "-//W3C//DTD SVG 1.1//EN" "http://www.w3.org/Graphics/SVG/1.1/DTD/svg11.dtd">
<svg version="1.1" id="Layer_1" xmlns="http://www.w3.org/2000/svg" xmlns:xlink="http://www.w3.org/1999/xlink" x="0px" y="0px"
	 width="20px" height="20px" viewBox="0 0 20 20" enable-background="new 0 0 20 20" xml:space="preserve">
<g>
	<polygon fill-rule="evenodd" clip-rule="evenodd" fill="#2C3E50" points="3.096,19.553 2.607,19.268 2.491,19.175 2.409,19.042 
		2.35,18.872 2.333,18.667 2.338,9.61 2.354,9.383 2.413,9.149 2.495,8.917 2.612,8.691 2.749,8.479 2.91,8.289 3.084,8.125 
		3.271,7.995 16.244,0.51 16.431,0.425 16.605,0.386 16.763,0.395 16.903,0.449 17.393,0.73 17.256,0.679 17.094,0.67 16.92,0.708 
		16.733,0.794 3.76,8.278 3.573,8.407 3.399,8.571 3.242,8.764 3.101,8.975 2.989,9.199 2.902,9.431 2.848,9.666 2.827,9.893 
		2.823,18.949 2.844,19.156 2.897,19.324 2.984,19.459 	"/>
	<path fill-rule="evenodd" clip-rule="evenodd" fill="#9DD6F5" d="M3.827,8.989l12.84-7.407c0.232-0.132,0.419-0.023,0.419,0.242
		l-0.004,8.72c0,0.268-0.188,0.593-0.419,0.725L3.822,18.677c-0.229,0.133-0.418,0.024-0.418-0.242l0.004-8.719
		C3.408,9.448,3.594,9.123,3.827,8.989z"/>
	<polygon fill-rule="evenodd" clip-rule="evenodd" fill="#FFFFFF" points="5.46,9.993 15.12,4.414 15.12,11.075 5.46,16.653 	"/>
	<polygon fill-rule="evenodd" clip-rule="evenodd" fill="#2980B9" points="5.46,9.993 15.12,4.414 15.12,3.454 5.46,9.033 	"/>
	<path fill-rule="evenodd" clip-rule="evenodd" fill="#9B59B6" d="M7.91,10.167L7.91,10.167c0.129-0.077,0.237-0.014,0.237,0.137
		l0,0c0,0.149-0.108,0.334-0.237,0.409l0,0c-0.132,0.077-0.24,0.015-0.24-0.135l0,0C7.67,10.426,7.778,10.242,7.91,10.167z"/>
	<path fill-rule="evenodd" clip-rule="evenodd" fill="#FFCB05" d="M7.91,11.636L7.91,11.636c0.129-0.073,0.237-0.013,0.237,0.138
		l0,0c0,0.149-0.108,0.334-0.237,0.411l0,0c-0.132,0.074-0.24,0.012-0.24-0.139l0,0C7.67,11.896,7.778,11.712,7.91,11.636z"/>
	<path fill-rule="evenodd" clip-rule="evenodd" fill="#6699FF" d="M7.91,13.198L7.91,13.198c0.129-0.077,0.237-0.015,0.237,0.137
		l0,0c0,0.149-0.108,0.333-0.237,0.41l0,0c-0.132,0.072-0.24,0.015-0.24-0.139l0,0C7.67,13.457,7.778,13.272,7.91,13.198z"/>
	<polygon fill-rule="evenodd" clip-rule="evenodd" fill="#9C9C9C" points="8.627,9.887 12.301,7.766 12.301,8.04 8.627,10.161 	"/>
	<polygon fill-rule="evenodd" clip-rule="evenodd" fill="#9C9C9C" points="8.627,11.357 12.6,9.064 12.6,9.338 8.627,11.632 	"/>
	<polygon fill-rule="evenodd" clip-rule="evenodd" fill="#9C9C9C" points="8.627,12.918 11.758,11.112 11.758,11.386 8.627,13.191 	
		"/>
	<path fill-rule="evenodd" clip-rule="evenodd" fill="#415A73" d="M3.76,8.278l12.974-7.484c0.515-0.296,0.933-0.053,0.933,0.539
		l-0.004,9.055c0,0.593-0.419,1.321-0.934,1.615L3.756,19.487c-0.514,0.297-0.933,0.053-0.933-0.538l0.004-9.056
		C2.827,9.301,3.246,8.575,3.76,8.278L3.76,8.278z M3.827,8.989C3.594,9.123,3.408,9.448,3.408,9.715l-0.004,8.719
		c0,0.267,0.19,0.375,0.418,0.242l12.841-7.407c0.231-0.132,0.419-0.458,0.419-0.725l0.004-8.72c0-0.265-0.187-0.375-0.419-0.242
		L3.827,8.989z"/>
	<path fill-rule="evenodd" clip-rule="evenodd" fill="#E6EAEB" d="M10.411,15.088c-0.029-0.019-0.075-0.017-0.125,0.014
		c-0.05,0.026-0.091,0.076-0.124,0.132c-0.034,0.054-0.054,0.119-0.054,0.175c0,0.054,0.021,0.096,0.054,0.114
		c0.033,0.019,0.074,0.017,0.124-0.013c0.049-0.029,0.095-0.077,0.125-0.133c0.033-0.054,0.054-0.118,0.054-0.175
		C10.464,15.146,10.443,15.107,10.411,15.088z"/>
</g>
</svg>
