<?xml version="1.0" encoding="utf-8"?>
<!-- Generator: Adobe Illustrator 15.1.0, SVG Export Plug-In . SVG Version: 6.00 Build 0)  -->
<!DOCTYPE svg PUBLIC "-//W3C//DTD SVG 1.1//EN" "http://www.w3.org/Graphics/SVG/1.1/DTD/svg11.dtd">
<svg version="1.1" id="Layer_1" xmlns="http://www.w3.org/2000/svg" xmlns:xlink="http://www.w3.org/1999/xlink" x="0px" y="0px"
	 width="300px" height="300px" viewBox="0 0 300 300" enable-background="new 0 0 300 300" xml:space="preserve">
<linearGradient id="SVGID_1_" gradientUnits="userSpaceOnUse" x1="179.75" y1="243.4365" x2="110.4599" y2="-56.6918">
	<stop  offset="0" style="stop-color:#97C7EB"/>
	<stop  offset="1" style="stop-color:#FFFFFF"/>
</linearGradient>
<path fill-rule="evenodd" clip-rule="evenodd" fill="url(#SVGID_1_)" stroke="#000000" stroke-width="1.0001" stroke-linecap="round" stroke-miterlimit="22.9256" d="
	M11.429,10.562c-13.8,42.601-5.399,156.601-4.8,170.401s-5.4,36-4.2,36.601c1.2,0.6,296.401-3,297.001-7.8
	c0.601-4.801,1.8-195.001-1.2-195.001s-170.4-4.8-183.601-4.8S23.429,5.162,11.429,10.562z"/>
<path fill-rule="evenodd" clip-rule="evenodd" fill="#96A44F" stroke="#000000" stroke-width="1.0001" stroke-linecap="round" stroke-miterlimit="22.9256" d="
	M10.738,180.884c-6.54,5.683-17.109-2.479-14.968,13.677c0.839,6.333-2.978,40.247,3.686,40.518
	c8.212,0.333,12.511,4.434,26.036,2.95c13.905-1.524,28.232,2.584,44.775,0.041c14.083-2.166,38.261,0.483,54.064-2.13
	c39.668-6.558,85.954-0.821,127.189-0.821c5.265,0,41.039,0.309,42.622-1.536c2.935-3.421,11.952-35.701-0.836-32.581
	c-1.048,0.256-48.425-1.336-54.91-0.943c-53.624,3.252-93.009-3.687-145.469-12.922c-21.75-3.828-57.093-6.97-79.189-5.78
	C13.219,181.384,11.756,180,10.738,180.884z"/>
<path fill-rule="evenodd" clip-rule="evenodd" fill="#808686" stroke="#000000" stroke-width="1.0001" stroke-linecap="round" stroke-miterlimit="22.9256" d="
	M126.838,62.797l-5.063,3.75c-7.875,4.875-32.212,20.7-32.212,25.2s27.882,26.582,29.025,31.8c1.143,5.218,53.657,16.457,55.8,12.6
	c2.143-3.857,11.399-9.825,14.774-14.7s34.05-37.65,35.55-39.525s-28.875-21.75-30.75-22.125S126.838,62.797,126.838,62.797z"/>
<path fill-rule="evenodd" clip-rule="evenodd" fill="#DDE3E3" stroke="#000000" stroke-width="1.0001" stroke-linecap="round" stroke-miterlimit="22.9256" d="
	M53.151,61.484c-3.75,5.25-40.125,50.25-40.125,50.25l5.25,6c0,0,3,40.5,1.5,49.125c-1.5,8.625-2.625,43.876-2.625,43.876
	l265.5-9.375l0.75-70.125l13.125-6c0,0-56.25-56.25-58.125-56.25S216.65,88.86,214.776,91.86c-1.875,3-36.375,38.625-36.375,38.625
	s-28.5,5.25-30.375,4.875c-1.875-0.375-58.875-43.125-58.875-43.125S52.401,61.109,53.151,61.484z"/>
<path fill-rule="evenodd" clip-rule="evenodd" fill="#BBBEB5" stroke="#000000" stroke-width="1.0001" stroke-linecap="round" stroke-miterlimit="22.9256" d="
	M25.026,111.734c4.875-6,29.25-38.25,29.25-38.25L77.901,95.61l0.375,65.25l-50.625,1.499
	C27.65,162.359,25.776,111.734,25.026,111.734z"/>
<path fill-rule="evenodd" clip-rule="evenodd" fill="#0C2736" stroke="#000000" stroke-width="1.0001" stroke-linecap="round" stroke-miterlimit="22.9256" d="
	M29.15,168.359c0,4.875-0.375,34.5-0.375,34.5l24.75-34.5H29.15z"/>
<path fill-rule="evenodd" clip-rule="evenodd" fill="#C3CFC9" stroke="#000000" stroke-width="1.0001" stroke-linecap="round" stroke-miterlimit="22.9256" d="
	M136.025,96.734c0.75,6,1.125,22.125,1.125,24.375c0,2.25,41.25,4.125,41.25,4.125l-4.125-32.625l6.375-1.875l-2.25-7.125
	l-47.625,3.75v9.75L136.025,96.734z"/>
<path fill-rule="evenodd" clip-rule="evenodd" fill="none" stroke="#000000" stroke-width="1.0001" stroke-linecap="round" stroke-miterlimit="22.9256" d="
	M140.901,96.734c2.416-0.752,26.85-2.683,27.471-1.993c0.29-0.222,3.547-0.479,4.029-0.257"/>
<path fill-rule="evenodd" clip-rule="evenodd" fill="#5A869B" stroke="#000000" stroke-width="1.0001" stroke-linecap="round" stroke-miterlimit="22.9256" d="
	M148.401,103.297c-0.025,1.161-0.3,15.192,2.346,12.251c1.761,0.23,5.055,0.311,7.029,0.311c0,0.125,1.08-13.5-1.125-13.5
	C155.715,102.359,148.409,102.941,148.401,103.297z"/>
<path fill-rule="evenodd" clip-rule="evenodd" fill="#5A869B" stroke="#000000" stroke-width="1.0001" stroke-linecap="round" stroke-miterlimit="22.9256" d="
	M46.776,106.859c-0.495,1.161-2.689,30.062-1.125,30c5-0.197,18.216-3.428,22.875-1.5c-0.852-2.485,0.688-26.514,0-28.5
	C60.426,107.554,53.973,106.859,46.776,106.859z"/>
<path fill-rule="evenodd" clip-rule="evenodd" fill="#517E94" stroke="#000000" stroke-width="1.0001" stroke-linecap="round" stroke-miterlimit="22.9256" d="
	M249.464,139.297c1.796,1.919,0.288,38.377,1.688,38.437c1.008,0.044,13.074-1.279,12.91-1.992
	c-2.319-10.119-1.886-35.116-2.41-36.632C257.442,138.027,250.1,139.978,249.464,139.297z"/>
<path fill-rule="evenodd" clip-rule="evenodd" fill="none" stroke="#000000" stroke-width="1.0001" stroke-linecap="round" stroke-miterlimit="22.9256" d="
	M198.276,124.859c5.34-7.412,9.866-16.76,16.875-22.468c5.435-4.425,13.16-15.841,21.535-20.186
	c-0.346-4.16,37.148,32.623,39.868,40.029c0.926,2.521,4.022,5.841,4.597,7.5"/>
<path fill-rule="evenodd" clip-rule="evenodd" fill="#FAD6BF" stroke="#000000" stroke-width="1.0001" stroke-linecap="round" stroke-miterlimit="22.9256" d="
	M187.383,173.44c-0.396-2.808-1.825-5.824-0.686-9.578c1.096-3.611-2.166-15.359-9.627-15.359c-3.771,0-10.924,3.141-14.063,5.25
	c-10.055,6.918-4.235,16.307-1.313,24.751c0.188,0.544,3.318,4.66,3.798,4.606c0.458,0.884,8.87,5.593,11.952,5.282
	C181.114,188.022,189.681,180.597,187.383,173.44z"/>
<path fill-rule="evenodd" clip-rule="evenodd" fill="#D3D385" stroke="#000000" stroke-width="1.0001" stroke-linecap="round" stroke-miterlimit="22.9256" d="
	M167.883,132.753c-1.27,0-10.236,3.87-10.125,6.905c0.053,1.457-3.21,11.797-3,18.643c0.115,3.782-0.969,6.536,1.451,9.938
	c0.044,0.062,2.279,6.271,4.157,5.92c-0.568-4.933-6.604-15.919,2.095-17.39c2.347-0.396,2.562-3.919,7.549-1.923
	c1.173,0.469,9.222-5.942,3.921,0.407c-1.849,2.214,5.771-4.243,5.829-4.142c2.446,4.313,5.024-0.89,5.593,1.859
	c4.702,1.627-2.033-15.424-3.659-16.966C179.487,133.913,167.913,132.753,167.883,132.753z"/>
<path fill-rule="evenodd" clip-rule="evenodd" fill="none" stroke="#000000" stroke-width="1.0001" stroke-linecap="round" stroke-miterlimit="22.9256" d="
	M167.508,159.379c-0.761-0.154-2.662,0.034-2.813-0.092c-0.093,0.077-3.32,0.37-3.938,2.154"/>
<path fill-rule="evenodd" clip-rule="evenodd" fill="none" stroke="#000000" stroke-width="1.0001" stroke-linecap="round" stroke-miterlimit="22.9256" d="
	M177.07,158.253c0.85-0.229,3.356-1.967,3.563-1.783c1.047-0.233,0.911-0.092,2.25-0.092"/>
<path fill-rule="evenodd" clip-rule="evenodd" fill="none" stroke="#000000" stroke-width="1.0001" stroke-linecap="round" stroke-miterlimit="22.9256" d="
	M168.633,162.753c-1.904-1.965-5.465-0.021-5.813,0.938"/>
<path fill-rule="evenodd" clip-rule="evenodd" fill="none" stroke="#000000" stroke-width="1.0001" stroke-linecap="round" stroke-miterlimit="22.9256" d="
	M165.117,162.66"/>
<path fill-rule="evenodd" clip-rule="evenodd" fill="none" stroke="#000000" stroke-width="1.0001" stroke-linecap="round" stroke-miterlimit="22.9256" d="
	M177.211,161.02c0.563-2.073,3.825-2.724,6.094-1.125"/>
<path id="oko" fill-rule="evenodd" clip-rule="evenodd" fill="none" stroke="#000000" stroke-width="1.0001" stroke-linecap="round" stroke-miterlimit="22.9256" d="
	M179.789,159.473c-2.599,0.271,2.313,2.75,0.96,0.258C180.437,159.155,180.29,159.42,179.789,159.473z"/>
<path fill-rule="evenodd" clip-rule="evenodd" fill="none" stroke="#000000" stroke-width="1.0001" stroke-linecap="round" stroke-miterlimit="22.9256" d="
	M165.513,162.378c-2.599,0.271,2.313,2.75,0.96,0.258C166.16,162.061,166.014,162.325,165.513,162.378z"/>
<path fill-rule="evenodd" clip-rule="evenodd" fill="none" stroke="#000000" stroke-width="1.0001" stroke-linecap="round" stroke-miterlimit="22.9256" d="
	M170.555,170.207c-1.2,4.218,3.111,1.727,3.469,1.781"/>
<path fill-rule="evenodd" clip-rule="evenodd" fill="none" stroke="#000000" stroke-width="1.0001" stroke-linecap="round" stroke-miterlimit="22.9256" d="
	M176.836,168.145c0.29,0.262,4.031,2.557,0.938,3.563"/>
<path fill-rule="evenodd" clip-rule="evenodd" fill="none" stroke="#000000" stroke-width="1.0001" stroke-linecap="round" stroke-miterlimit="22.9256" d="
	M168.117,177.895c2.581-1.056,2.5-1.211,5.258-1.773c1.285-0.262,3.791-0.135,5.242-0.734c0.015-0.005,4.381-0.583,3.688,0.009
	c-2.679,2.286-0.858,5.753-8.188,4.851c-1.085-0.134-3.78-2.101-4.875-1.602"/>
<path fill-rule="evenodd" clip-rule="evenodd" fill="none" stroke="#000000" stroke-width="1.0001" stroke-linecap="round" stroke-miterlimit="22.9256" d="
	M173.18,178.082c1.694-0.527,5.272-0.437,5.906-0.656"/>
<path fill-rule="evenodd" clip-rule="evenodd" fill="#FAD6BF" stroke="#000000" stroke-width="1.0001" stroke-linecap="round" stroke-miterlimit="22.9256" d="
	M120.07,144.847c-0.72,4.62,1.408,7.209-2.531,10.361c-0.543,0.434,0.227,2.856-0.22,3.278c0.261,0.899-0.216,6.07,0.439,7.564
	c-1.871,2.704,10.566,12.664,12.97,15.481c1.001,1.175,4.248,0.987,4.607,1.222c2.817-1.111,10.335-6.204,11.876-8.657
	c3.528-5.612,1.003-6.848,6.092-9.61c2.919-1.585-2.165-3.342-1.013-7.452c0.411-1.466,0.003-13.241-2.315-15.375
	c-5.772-5.315-11.528-4.722-18.75-4.141c-3.112,0.251-10.875,3.328-10.875,6.857C120.42,144.345,120.087,144.735,120.07,144.847z"/>
<path fill-rule="evenodd" clip-rule="evenodd" fill="#69504D" stroke="#000000" stroke-width="1.0001" stroke-linecap="round" stroke-miterlimit="22.9256" d="
	M119.414,124.785c-1.648,6.938-0.009,14.098-0.546,17.266c-0.313,1.846-2.791,0.985-2.395,9.171
	c0.495,10.232,2.955-0.729,4.206-2.485c1.015-1.427-1.671-8.011,7.923-8.389c1.111-0.044,3.022,0.958,6.375-0.423
	c6.504-2.681,9.232-0.012,15.14,4.425c3.473,2.608,0.805,13.961,3.375,18.359c0.604,1.034,0.985-13.697,2.251-15.472
	c2.582-3.624,1.431-9.83-0.654-13.5c-0.911-1.604-2.112-9.083-5.266-9.734c-0.823-2.382,1.677-2.212-4.907-3.905
	c-1.587-0.408-7.026-3.093-9.563-3.938c-10.352,2.892-6.114,2.391-12.985,6.766C121.456,123.505,120.33,124.056,119.414,124.785z"/>
<path fill-rule="evenodd" clip-rule="evenodd" fill="none" stroke="#000000" stroke-width="1.0001" stroke-linecap="round" stroke-miterlimit="22.9256" d="
	M130.664,151.222c-0.494-1.823-2.02-1.804-2.389-2.518c-0.099,0.011-3.552-1.679-5.86,0.831"/>
<path fill-rule="evenodd" clip-rule="evenodd" fill="none" stroke="#000000" stroke-width="1.0001" stroke-linecap="round" stroke-miterlimit="22.9256" d="
	M141.539,152.348c3.825-2.263,7.545,0.217,8.062,0.187"/>
<path fill-rule="evenodd" clip-rule="evenodd" fill="none" stroke="#000000" stroke-width="1.0001" stroke-linecap="round" stroke-miterlimit="22.9256" d="
	M129.164,156.097c-2.392-4.174-4.989-1.952-6.75-1.5"/>
<path fill-rule="evenodd" clip-rule="evenodd" fill="none" stroke="#000000" stroke-width="1.0001" stroke-linecap="round" stroke-miterlimit="22.9256" d="
	M127.332,154.667"/>
<path fill-rule="evenodd" clip-rule="evenodd" fill="none" stroke="#000000" stroke-width="1.0001" stroke-linecap="round" stroke-miterlimit="22.9256" d="
	M139.289,155.909c1.925-2.616,5.05-1.299,6.75,0.75"/>
<path fill-rule="evenodd" clip-rule="evenodd" fill="none" stroke="#000000" stroke-width="1.0001" stroke-linecap="round" stroke-miterlimit="22.9256" d="
	M142.195,155.028"/>
<path fill-rule="evenodd" clip-rule="evenodd" fill="none" stroke="#000000" stroke-width="1.0001" stroke-linecap="round" stroke-miterlimit="22.9256" d="
	M129.539,164.16c0,5.285,2.309,2.131,3.986,3.326c0.367,0.261,2.909-0.867,3.514-1.077"/>
<path fill-rule="evenodd" clip-rule="evenodd" fill="none" stroke="#000000" stroke-width="1.0001" stroke-linecap="round" stroke-miterlimit="22.9256" d="
	M126.164,169.222c0.928,0,2.89,0.542,3.547,0.97c0.709-0.279,8.78,0.343,10.891,0.343c-3.436-0.295-4.917,2.604-9.75,0.611
	c-0.243-0.101-0.309-0.048-0.563-0.048"/>
<path fill-rule="evenodd" clip-rule="evenodd" fill="#CBCBCB" stroke="#000000" stroke-width="1.0001" stroke-linecap="round" stroke-miterlimit="22.9256" d="
	M122.226,174.659c-7.236,5.992-6.638,4.519-14.126,8.486c-10.588,5.609-16.675-1.806-17.936-1.907
	c-7.085-0.57-13.067-13.226-10.248-19.468c1.473-3.262-3.048,0.026-4.939-0.423c-3.453,1.41-17.639,5.194-21,5.062
	c-3.657-0.144-14.72,5.327-16.923,9.874c-2.13,4.396-2.244,3.277-3.734,8.55c-1.173,4.149-5.197,15.757-5.031,19.64
	c-1.457,2.365-9.436,20.83-8.062,21.498c1.81,0.88,5.112,1.435,6.766,0.782c2.805,1.83,25.168-2.967,29.609,2.095
	c1.263,1.439,5.834,1.667,6.546,6.016c0.72,4.399,30.384,2.049,34.093,0.97c0.324-0.095,33.007-0.645,33.048-0.61
	c6.687,0,10.828,1.047,18.375,0.75c7.193-0.284,12.591-0.777,20.014-0.563c0.363,0.01,4.593,0.989,4.773,0.899
	c-5.921-2.226-5.507-10.273-4.291-14.55c2.039-7.168,5.071-9.93,8.089-14.202c3.687-5.217,12.811-7.526,13.474-16.044
	c0.327-4.199,1.574-2.858-7.649-5.979c-0.297-0.1-4.968,6.4-12.831,1.248c-6.067-3.975-5.514-2.684-8.688-9.074
	c-1.295-2.605-6.294-1.852-6.906-5.47c-0.587-3.472-3.257,2.031-2.983-4.892c0.279-7.098-4.856,8.834-7.5,9.75
	c-6.504,2.254-6.223,8.425-12.61,4.549c-0.62-0.376-2.134-0.835-2.357-1.066C128.423,180.665,123.965,174.659,122.226,174.659z"/>
<path fill-rule="evenodd" clip-rule="evenodd" fill="none" stroke="#000000" stroke-width="1.0001" stroke-linecap="round" stroke-miterlimit="22.9256" d="
	M89.414,187.222c5.47,3.236,15.045,4.708,20.625,0.563c1.336-0.993,6.023-3.574,7.5-4.313"/>
<path fill-rule="evenodd" clip-rule="evenodd" fill="#FAD6BF" stroke="#000000" stroke-width="1.0001" stroke-linecap="round" stroke-miterlimit="22.9256" d="
	M114.539,145.785c0.86-0.595,1.523-0.45,2.143-0.89c-0.017-0.195,1.982-4.282,1.982-6.423c0-4.785,0.675-6.282-1.827-9.798
	c-1.829-2.57-1.328-12.683-3.204-17.406c-2.69-6.77-6.526-4.158-12.579-6.498c-1.511-0.584-24.708,3.826-23.501,5.813
	c0.651,1.073-0.538,0.575,1.173,2.014c-0.7,3.093-0.418,14.667-1.639,17.625c-0.284,0.689-1.361,8.941-1.361,9.938
	c0,1.694,3.199,6.127,1.5,7.264c-0.601,0.402-10.862,1.926-13.736,3.75c-3.209,2.038-4.301,0.773-8.266,5.127
	c-1.554,1.706,5.063,21.654,7.629,24.498c1.295,1.436,5.747,8.153,7.248,8.674c-9.091,7.345-5.513,12.001-10.623,20.641
	c-3.298,5.575-10.877,6.406-14.754,11.936c-2.307,3.29-3.25,2.867-6.873,3.799c-2.982-0.057-1.464,1.578-5.609,0.733
	c-0.877-0.179-11.11,0.35-11.127,0.392c-4.48,10.853-9.844,10.383,7.671,9.938c1.074-0.027,5.576,0.563,8.379,0.563
	c3.775,0,17.578-0.012,20.357-0.579c1.168-0.238,1.937-0.4,2.796-0.578c1.323-3.826,4.294-4.185,5.079-8.984
	c0.434-2.652,9.463-5.63,11.577-8.11c0.006-0.008,0.595-0.3,0.627-0.311c0.972,1.99,2.428,4.952,4.468,5.656
	c0.317,1.528,3.067,11.854,4.329,11.471c2.136-0.649,16.218-0.851,18.204-0.113c0.727,0.271-0.829-2.274,2.673-4.575
	c4.813-3.161,4.107-6.659,5.202-8.688c2.521,2.358,16.567,3.606,20.438,5.201c1.241,0.512,17.035,2.363,19.125,1.5
	c0.198-0.082,4.897-0.889,5.438-0.889c6.987,0.1,9.31-14.774,9.733-20.063c0.095-1.172,0.61-2.657,0.172-3.767
	c1.314-1.677-1.483-5.268-4.093-6.171c-3.34-1.156-6.316-6.94-14.486-2.299c-3.318,1.885-1.975,4.548-1.093,8.877
	c0.194,0.954,0.391,0.246,0.391,1.859c-0.176,0.159-8.752,0.291-11.015,0.686c-4.607,0.803-16.512,0.444-21.22-0.515
	c-2.06-0.419-2.672-0.158-5.641-0.921c-2.398-2.656-1.553-3.455-4.703-3.922c-0.217-0.032,0.067-3.391-7.484-3.391
	c-0.03,0-4.125-0.848-4.125,0.315c0-4.173-2.107-1.101-2.421-5.004c-0.275-3.416-4.109-8.171-7.532-8.608
	c-0.577-0.073,0.474-1.636-0.921-1.517c-1.967-4.431-2.411-5.682-3.359-10.328c-0.178-0.871-1.633-13.129,0.14-12.515
	c0.636,1.843-1.124,10.055,2.608,13.517c1.914,1.774,2.576,3.828,5.438,5.25c3.053,1.517,1.031,2.729,7.564,4.061
	c10.472,2.135,10.935-0.412,19.249-4.532c0.442-0.219,4.445-2.523,4.735-2.952c0.526,0,5.538-0.784,1.736-2.673
	c-1.432-0.711-6.726-9.82-6.611-12.514c0.229-5.367-1.437-5.674-0.112-13.5C114.524,147.271,114.539,146.417,114.539,145.785z"/>
<path fill-rule="evenodd" clip-rule="evenodd" fill="#4C3F3D" stroke="#000000" stroke-width="1.0001" stroke-linecap="round" stroke-miterlimit="22.9256" d="
	M86.32,93.378c-1.858-1.754-8.68,0.782-9.078,5.343c-0.315,3.612-3.954,11.257-3.954,15.048c0,5.294,0.222,9.398,2.202,14.202
	c0.625,1.517,0.169,8.004,1.345,2.234c1.261-6.191,1.214-7.62,0.954-14.234c-0.292-7.421,8.898-4.43,11.422-7.393
	c1.887,0.046,0.559,3.951,8.078,0.113c0.51-0.26,2.856,2.583,5.673,0.578c0.049-0.035,7.561-1.447,8.373,3.343
	c0.826,4.873,1.816,5.03,0.938,10.484c-0.161,1.005,2.829,6.965,2.829,12.375c0,4.73,1.382-4.542,2.485-4.419
	c0.64-0.904,2.826-20.038,1.28-21.568c-2.158-2.137,0.153-4.598-4.843-9.311c-5.829-5.499-5.875-0.967-8.175-4.029
	c-1.102-1.466-4.542,0.341-6.359-2.11c-0.787-1.062-7.365,1.055-10.403-0.798c-0.593-0.362-1.632-0.029-2.274,0.463L86.32,93.378z"
	/>
<path fill-rule="evenodd" clip-rule="evenodd" fill="none" stroke="#000000" stroke-width="1.0001" stroke-linecap="round" stroke-miterlimit="22.9256" d="
	M78.164,145.41c0.094,3.018,1.965,9.766,3.423,12.702c0.031,0.063,1.584,2.419,1.639,2.485"/>
<path fill-rule="evenodd" clip-rule="evenodd" fill="none" stroke="#000000" stroke-width="1.0001" stroke-linecap="round" stroke-miterlimit="22.9256" d="
	M87.539,164.535c2.871,3.599,6.726-0.09,9.798,1.28c2.73,1.216,8.38-3.527,8.389-3.531"/>
<path fill-rule="evenodd" clip-rule="evenodd" fill="none" stroke="#000000" stroke-width="1.0001" stroke-linecap="round" stroke-miterlimit="22.9256" d="
	M88.154,152.237c2.008,0.215,1.838,1.122,4.769,1.006c0.881-0.034,4.321,0.194,5.131,0.194"/>
<path fill-rule="evenodd" clip-rule="evenodd" fill="none" stroke="#000000" stroke-width="1.0001" stroke-linecap="round" stroke-miterlimit="22.9256" d="
	M79.851,128.91c-2.184,3.684,6.658-1.536,8.438,0C85.805,126.667,82.547,127.976,79.851,128.91z"/>
<path fill-rule="evenodd" clip-rule="evenodd" fill="none" stroke="#000000" stroke-width="1.0001" stroke-linecap="round" stroke-miterlimit="22.9256" d="
	M99.258,127.849c0.975-2.407,13.02,0.387,9.109,0.881c-0.081,0.01-5.791-0.987-7.939-0.04
	C99.227,129.22,99.131,128.162,99.258,127.849z"/>
<path fill-rule="evenodd" clip-rule="evenodd" fill="none" stroke="#000000" stroke-width="1.0001" stroke-linecap="round" stroke-miterlimit="22.9256" d="
	M88.476,132.097c-1.751-2.196-5.231-0.913-7.296,0.439l-0.391,0.123"/>
<path fill-rule="evenodd" clip-rule="evenodd" fill="none" stroke="#000000" stroke-width="1.0001" stroke-linecap="round" stroke-miterlimit="22.9256" d="
	M99.164,131.91c-1.446,0.199,3.398-2.058,6.048-0.064c0.38,0.286,0.78,0.502,1.264,0.627"/>
<path fill-rule="evenodd" clip-rule="evenodd" fill="none" stroke="#000000" stroke-width="1.0001" stroke-linecap="round" stroke-miterlimit="22.9256" d="
	M84.82,131.91c-2.841,0.14,2.353,2.26,1.187,0.171C85.675,131.487,85.772,131.863,84.82,131.91z"/>
<path fill-rule="evenodd" clip-rule="evenodd" fill="none" stroke="#000000" stroke-width="1.0001" stroke-linecap="round" stroke-miterlimit="22.9256" d="
	M102.309,131.018c-2.609,1.986,1.758,1.736,0.701,0.748c0.212-0.497-0.928-0.275-0.937-0.276"/>
<path fill-rule="evenodd" clip-rule="evenodd" fill="none" stroke="#000000" stroke-width="1.0001" stroke-linecap="round" stroke-miterlimit="22.9256" d="
	M88.505,140.889c-2.615,4.422,2.029,2.2,5.964,3.002c0.501,0.102,2.338-0.59,2.858-0.706c-0.043-0.05,1.351-0.523,0.405-1.968
	l-0.104-0.328"/>
<path fill-rule="evenodd" clip-rule="evenodd" fill="none" stroke="#000000" stroke-width="1.0001" stroke-linecap="round" stroke-miterlimit="22.9256" d="
	M84.415,148.676c1.478-1.71,2.063-0.569,2.872-1.467c0.868,0.1,3.178-0.462,4.104,0.417c0.046-0.012,11.811,0.119,11.861,0.211
	c0.979,1.811-6.712,8.75-9.87,8.625c-5.359-0.211-4.59-0.318-8.14-6.175C85.032,149.94,84.262,148.854,84.415,148.676z"/>
<path fill-rule="evenodd" clip-rule="evenodd" fill="#FFFFFF" stroke="#FFFFFF" stroke-width="0.216" stroke-linecap="round" stroke-miterlimit="22.9256" d="
	M87.562,147.848c-1.529,4.321,0.915,3.081,3.126,4.28c0.79,0.145,1.415,0.966,2.236,0.681c1.189,0.683,6.36-0.499,7.906-2.571
	c1.701-2.28,1.924-1.603-2.767-2.08C96,149.25,87.389,148.336,87.562,147.848z"/>
<path fill-rule="evenodd" clip-rule="evenodd" fill="none" stroke="#000000" stroke-width="1.0001" stroke-linecap="round" stroke-miterlimit="22.9256" d="
	M101.876,139.788c0.913,2.235,7.715,8.623,4.876,11.011"/>
<path fill-rule="evenodd" clip-rule="evenodd" fill="none" stroke="#000000" stroke-width="1.0001" stroke-linecap="round" stroke-miterlimit="22.9256" d="
	M81.741,158.665c-0.281,3.47-0.314,4.933-0.314,8.494"/>
<path fill-rule="evenodd" clip-rule="evenodd" fill="none" stroke="#000000" stroke-width="1.0001" stroke-linecap="round" stroke-miterlimit="22.9256" d="
	M78.752,159.923c-1.737-0.786-5.077-3.46-7.079-1.888"/>
<path fill-rule="evenodd" clip-rule="evenodd" fill="none" stroke="#000000" stroke-width="1.0001" stroke-linecap="round" stroke-miterlimit="22.9256" d="
	M70.1,189.654c3.003-2.396,6.896-3.942,10.54-4.392c1.467-0.181,1.503,0.145,3.303,0.145"/>
<path fill-rule="evenodd" clip-rule="evenodd" fill="none" stroke="#000000" stroke-width="1.0001" stroke-linecap="round" stroke-miterlimit="22.9256" d="
	M74.033,193.901c4.688-4.271,5.61-4.953,11.641-5.191c0.509-0.02,1.962,0.774,2.517,0.315"/>
<path fill-rule="evenodd" clip-rule="evenodd" fill="none" stroke="#000000" stroke-width="1.0001" stroke-linecap="round" stroke-miterlimit="22.9256" d="
	M77.651,199.407c7.224-4.971,4.626-4.877,13.056-4.877"/>
<path fill-rule="evenodd" clip-rule="evenodd" fill="none" stroke="#000000" stroke-width="1.0001" stroke-linecap="round" stroke-miterlimit="22.9256" d="
	M79.066,205.228c1.56-1.606,7.37-3.286,11.286-6.818c0.508-0.458,2.357-0.261,3.029-0.261"/>
<path fill-rule="evenodd" clip-rule="evenodd" fill="none" stroke="#000000" stroke-width="1.0001" stroke-linecap="round" stroke-miterlimit="22.9256" d="
	M82.527,225.206c0-2.525-0.543-4.211,0.13-6.936c0.188-0.761,0.121-6.848,1.088-8.207c0.01-0.015,1.128-4.271,1.141-4.364"/>
<path fill-rule="evenodd" clip-rule="evenodd" fill="none" stroke="#000000" stroke-width="1.0001" stroke-linecap="round" stroke-miterlimit="22.9256" d="
	M75.92,219.07c1.115-1.08,4.733-7.723,6.778-9.164c0.116-0.082,1.552-1.8,1.56-1.847"/>
<path fill-rule="evenodd" clip-rule="evenodd" fill="none" stroke="#000000" stroke-width="1.0001" stroke-linecap="round" stroke-miterlimit="22.9256" d="
	M85.202,205.856c-0.145-0.767,0.86-2.326,1.375-3.056c0.009,0.001,1.476-1.305,1.614-1.506"/>
<path fill-rule="evenodd" clip-rule="evenodd" fill="none" stroke="#000000" stroke-width="1.0001" stroke-linecap="round" stroke-miterlimit="22.9256" d="
	M94.483,198.621c-3.648,1.49-5.77,5.616-6.292,9.137c-0.114,0.77-0.83,2.002-0.787,2.504"/>
<path fill-rule="evenodd" clip-rule="evenodd" fill="none" stroke="#000000" stroke-width="1.0001" stroke-linecap="round" stroke-miterlimit="22.9256" d="
	M99.044,199.093c-3.033,1.238-8.022,8.997-8.022,12.899"/>
<path fill-rule="evenodd" clip-rule="evenodd" fill="none" stroke="#000000" stroke-width="1.0001" stroke-linecap="round" stroke-miterlimit="22.9256" d="
	M104.708,201.138c-3.054-0.099-6.458,5.357-6.593,8.706l-0.171,0.418"/>
<path fill-rule="evenodd" clip-rule="evenodd" fill="none" stroke="#000000" stroke-width="1.0001" stroke-linecap="round" stroke-miterlimit="22.9256" d="
	M109.427,205.542c-4.587-1.256-5.998,15.223,0.616,16.846c0.246,0.061,2.523,0.773,2.531,0.772"/>
<path fill-rule="evenodd" clip-rule="evenodd" fill="none" stroke="#000000" stroke-width="1.0001" stroke-linecap="round" stroke-miterlimit="22.9256" d="
	M134.438,183.205c0.665,0.18,6.336,5.649,6.45,5.978c0.02,0.056,5.727,7.911,5.663,8.651"/>
<path fill-rule="evenodd" clip-rule="evenodd" fill="none" stroke="#000000" stroke-width="1.0001" stroke-linecap="round" stroke-miterlimit="22.9256" d="
	M155.518,178.485c-4.266,3.098-7.478,3.792-10.067,8.967"/>
<path fill-rule="evenodd" clip-rule="evenodd" fill="none" stroke="#000000" stroke-width="1.0001" stroke-linecap="round" stroke-miterlimit="22.9256" d="
	M172.192,189.183c-1.694,4.414-3.17,5.411-4.247,8.022"/>
<path fill-rule="evenodd" clip-rule="evenodd" fill="#E5E5E5" stroke="#000000" stroke-width="1.0001" stroke-linecap="round" stroke-miterlimit="22.9256" d="
	M189.969,194.688c-4.463,7.156-3.458,4.19-9.322,8.599c-2.428,1.825-2.245,1.345-4.247,3.843
	c-3.576,4.462-7.918,12.549-7.668,18.392c0.116,2.702-0.683,8.443,3.093,9.78c0.333,0.118-1.361,0.759,2.099,0.917
	c3.461,0.157,26.271-0.158,29.731-0.315s5.506-12.584,3.618-14.157s-5.191-7.236-6.922-10.383s-3.618-6.135-3.146-7.865
	c0.472-1.73-1.573-11.798-1.416-12.585C195.946,190.126,190.598,192.328,189.969,194.688z"/>
<path fill-rule="evenodd" clip-rule="evenodd" fill="#E5E5E5" stroke="#000000" stroke-width="1.0001" stroke-linecap="round" stroke-miterlimit="22.9256" d="
	M238.104,224.891c-1.73,3.933-7.865,8.181-8.967,9.281c-1.101,1.102-0.314,2.675,1.259,2.36s18.72,0,18.72,0
	s-1.102-7.865-2.989-8.652C244.239,227.094,238.104,224.891,238.104,224.891z"/>
<path fill-rule="evenodd" clip-rule="evenodd" fill="#FAD6BF" stroke="#000000" stroke-width="1.0001" stroke-linecap="round" stroke-miterlimit="22.9256" d="
	M224.891,152.215c-0.85-3.888-8.004-14.815-11.915-16.558c-5.209-2.322-9.408-3.976-14.67-1.164
	c-2.48,1.326-2.698,2.188-4.562,3.721c-3.271,4.753-3.173,21.876-0.198,26.783c2.006,3.308-2.174,5.123,5.074,11.641
	c5.353,4.813,3.435,3.674,3.933,10.514c0.039,0.536-3.97,4.033-4.09,4.076c-1.677,2.639-1.936,0.769-2.333,2.62
	c0.113,0.118,1.527,12.781,3.079,15.511c1.382,2.43,1.562,5.063,4.404,7.551c0.265,0.23,3.357,4.364,3.816,4.364
	c0.205-0.014,20.578,14.623,24.486,14.776c6.375,0.251,7.294-16.408,9.008-17.297c-0.043-0.516-4.125-18.092-3.776-20.146
	c0.339-2.004,3.021-1.892-3.906-3.304c-6.699-1.365-4.4-2.597-7.461-8.323c-1.782-3.335,1.979-9.412-0.301-13.174
	c-1.052-1.734,3.03-6.399,1.088-10.697c-0.097-0.212,0.792-5.828-1.164-8.575C225.342,154.448,224.877,152.371,224.891,152.215z"/>
<path fill-rule="evenodd" clip-rule="evenodd" fill="#C0AA95" stroke="#000000" stroke-width="1.0001" stroke-linecap="round" stroke-miterlimit="22.9256" d="
	M225.677,184.148c0,5.198,0.894,0.845-0.746,5.874c-0.141,0.434,2.063,1.416,0.616,5.034c-0.72,1.799,5.154,6.76,6.423,6.71
	c2.778-0.109,0.93,3.015,5.178-2.202c3.537-4.344-3.128-3.898-1.129-7.276c3.061-5.171,3.535-2.985,4.747-11.142
	c0.608-4.098-0.023-16-4.091-17.695c0.032,0.216,4.732-7.15,0.684-13.596c-2.849-4.534-3.693-7.455-7.475-12.728
	c-7.1-9.9-8.11-13.153-20.881-13.699c-3.804-0.163-13.334,1.02-16.149,3.986c-0.71,0.75-2.634,2.583-3.2,1.991
	c-0.771,0.05-6.245,5.716-6.306,8.454c-0.066,2.98-2.051,9.602-0.418,13.569c1.049,2.545-0.416,5.77,2.594,11.209
	c3.176,5.739,5.392,4.816,5.074,12.229c-0.067,1.565,2.081,1.236,0.355,3.659c-0.806,1.13,3.781,5.058,0.548,10.602
	c-3.564,6.111,8.698,12.553,4.342,7.722c-1.754-1.944-5.389-12.068,2.135-7.142c1.787,1.171,1.541-1.956,3.357-0.881
	c1.395,0.825,2.628-6.937-0.144-10.382c-4.172-5.185-6.485-2.211-6.818-10.657c-0.237-6.019-3.852-10.029-2.66-15.874
	c0.61-2.999-2.816-10.429,2.188-12.715c0.461-0.211,1.165,0.879,2.399,0c0.18-0.128,6.164-3.793,6.252-3.816
	c4.994-1.284,10.32,4.496,14.329,6.868c3.281,1.942,6.597,6.838,6.436,10.593c-0.463,10.833,5.934,3.7,2.688,20.765
	c-0.164,0.861,1.273,6.106,0.035,8.706C226.309,182.541,225.751,183.862,225.677,184.148z"/>
<path fill-rule="evenodd" clip-rule="evenodd" fill="none" stroke="#000000" stroke-width="1.0001" stroke-linecap="round" stroke-miterlimit="22.9256" d="
	M200.979,152.215c-0.461,0-2.497-0.01-2.777-0.265c-0.199,0.107-2.636-1.374-3.829,2.31"/>
<path fill-rule="evenodd" clip-rule="evenodd" fill="none" stroke="#000000" stroke-width="1.0001" stroke-linecap="round" stroke-miterlimit="22.9256" d="
	M210.732,151.743c1.854-2.323,5.71-2.989,8.495-2.989"/>
<path fill-rule="evenodd" clip-rule="evenodd" fill="none" stroke="#000000" stroke-width="1.0001" stroke-linecap="round" stroke-miterlimit="22.9256" d="
	M203.654,157.092c-0.719-1.761-4.512-1.763-4.666-1.623c-0.43-0.233-1.858,1.508-2.256,1.78"/>
<path fill-rule="evenodd" clip-rule="evenodd" fill="none" stroke="#000000" stroke-width="1.0001" stroke-linecap="round" stroke-miterlimit="22.9256" d="
	M213.289,153.67c0.795-2.11,3.789-2.682,5.762-1.278c0.403,0.286,0.048,0.047-0.701,1.285c-0.082,0.136-0.176,0.243-0.342,0.229"/>
<path fill-rule="evenodd" clip-rule="evenodd" fill="none" stroke="#000000" stroke-width="1.0001" stroke-linecap="round" stroke-miterlimit="22.9256" d="
	M199.84,155.951c-1.928,1.927,2.174,1.667,1.087-0.138c-0.05-0.082-0.223-0.087-0.301-0.099"/>
<path fill-rule="evenodd" clip-rule="evenodd" fill="none" stroke="#000000" stroke-width="1.0001" stroke-linecap="round" stroke-miterlimit="22.9256" d="
	M215.452,152.411c-1.683,1.486,1.277,2.115,1.226,0.695C216.655,152.468,215.734,152.162,215.452,152.411z"/>
<path fill-rule="evenodd" clip-rule="evenodd" fill="none" stroke="#000000" stroke-width="1.0001" stroke-linecap="round" stroke-miterlimit="22.9256" d="
	M205.109,163.659c-1.405,3.44,0.481,0.988,3.454,2.937c1.363,0.895,3.157-1.867,4.653-2.752c0.451-0.268,0.88-1.277,0.466-1.836"/>
<path fill-rule="evenodd" clip-rule="evenodd" fill="none" stroke="#000000" stroke-width="1.0001" stroke-linecap="round" stroke-miterlimit="22.9256" d="
	M202.749,171.367l0.079-0.472c1.156,0.037,4.977-1.404,6.686-1.338c0.884,0.035,5.303-1.712,7.373-1.771
	c2.79-0.079,0.727-0.002-0.242,2.694c-1.664,4.631-6.673,8.163-10.984,4.497C204.684,174.148,202.705,171.431,202.749,171.367z"/>
<path fill-rule="evenodd" clip-rule="evenodd" fill="#FFFFFF" stroke="#FFFFFF" stroke-width="0.216" stroke-linecap="round" stroke-miterlimit="22.9256" d="
	M205.345,171.682l0.158-0.472c2.236,0.699,7.979-0.969,10.146-2.216c1.355,0.781-3.936,4.275-5.034,4.411
	c-0.267,0.033-4.618-0.396-4.634-0.406C205.492,172.683,205.58,171.966,205.345,171.682z"/>
<path fill-rule="evenodd" clip-rule="evenodd" fill="none" stroke="#000000" stroke-width="1.0001" stroke-linecap="round" stroke-miterlimit="22.9256" d="
	M198.705,193.037c1.008,2.229,6.657,9.085,9.149,10.076c2.877,1.143,3.85,2.873,7.963,3.711c3.008,0.613,7.551,0.395,9.099-2.726
	c1.059-2.133,0.99-1.981,1.839-4.461"/>
<path fill-rule="evenodd" clip-rule="evenodd" fill="#FAD6BF" stroke="#000000" stroke-width="1.0001" stroke-linecap="round" stroke-miterlimit="22.9256" d="
	M262.154,236.838c-0.603-1.557-12.786,0.366-12.912-1.2c-0.458-5.674-5.789-6.724-9.737-9.489c-1.191-0.834-5.099-3.931-6-3.261
	c-4.148,3.08-7.789,13.05-6.651,13.05c-3.187,0-17.571,2.081-19.5,0.052c-0.61-0.643-0.938,0.915-3.849-0.477
	c-1.715-0.818-8.893,2.729-4.299-1.624c1.44-1.364,3.3-4.481,5.799-5.939c1.948-1.137-1.917-3.773,2.263-6.061
	c2.004-1.096,1.818-1.476,4.95-1.988c4.786-0.783,10.968-2.173,13.376-7.024c0.057-0.115-1.263-3.314,1.272-2.961
	c1.681,0.233-0.617-2.905,3.501-3.515c0.024-0.004,2.237-5.641,3.588-4.44c0.22-0.049,5.311-7.07,3.6-5.55
	c-4.215-1.401,2.482-9.939,3.287-13.886c0.007-0.032,0.906-2.526,0.913-2.537c4.377,1.979,16.35,10.678,16.35,15.601
	c0,8.583-6.666,7.102-5.139,10.8c0.508,1.228-0.009,7.887,1.65,10.688c0.798,1.349,0.318,1.481,2.263,4.35
	C257.954,223.012,262.24,236.368,262.154,236.838z"/>
<path fill-rule="evenodd" clip-rule="evenodd" fill="none" stroke="#000000" stroke-width="1.0001" stroke-linecap="round" stroke-miterlimit="22.9256" d="
	M242.654,191.987c-3.854,2.651-2.539,2.68-4.35,4.351"/>
<path fill-rule="evenodd" clip-rule="evenodd" fill="none" stroke="#000000" stroke-width="1.0001" stroke-linecap="round" stroke-miterlimit="22.9256" d="
	M234.104,202.487c3.892,0.377,9.014,2.805,12.339,4.911c0.696,0.442,0.454-0.172,1.762,0.939c0-0.949-3.559-11.113-0.601-12.45
	c1.45,0.388,4.458,6.945,4.787,8.563c0.025,0.124,0.09,0.075,0.163,0.287"/>
<path fill-rule="evenodd" clip-rule="evenodd" fill="none" stroke="#000000" stroke-width="1.0001" stroke-linecap="round" stroke-miterlimit="22.9256" d="
	M231.555,205.188c3.176,1.299,4.438,0.609,7.312,3.201c0.133,0.119,0.471,0.262,0.639,0.249"/>
<path fill-rule="evenodd" clip-rule="evenodd" fill="none" stroke="#000000" stroke-width="1.0001" stroke-linecap="round" stroke-miterlimit="22.9256" d="
	M228.404,209.088c2.972,0.203,8.241,3.71,8.551,3.449"/>
<path fill-rule="evenodd" clip-rule="evenodd" fill="none" stroke="#000000" stroke-width="1.0001" stroke-linecap="round" stroke-miterlimit="22.9256" d="
	M237.705,218.838c-0.193,0.016-0.292,0.05-0.412-0.138c-1.97-3.083-7.902-5.266-11.288-6.463c-1.567,4.863,4.819,6.688,7.95,9.612
	l0.3,0.138"/>
<path fill-rule="evenodd" clip-rule="evenodd" fill="none" stroke="#000000" stroke-width="1.0001" stroke-linecap="round" stroke-miterlimit="22.9256" d="
	M206.055,226.337c-1.157,3.715,1.648,2.402,3.698-1.063c0.117-0.196,1.32-1.557,1.552-1.637"/>
<path fill-rule="evenodd" clip-rule="evenodd" fill="none" stroke="#000000" stroke-width="1.0001" stroke-linecap="round" stroke-miterlimit="22.9256" d="
	M203.505,234.737c0.379-1.007,2.37-4.339,3-5.25"/>
<path fill-rule="evenodd" clip-rule="evenodd" fill="none" stroke="#000000" stroke-width="1.0001" stroke-linecap="round" stroke-miterlimit="22.9256" d="
	M213.404,226.938c-1.056,1.487-5.722,6.864-6.149,8.1"/>
<path fill-rule="evenodd" clip-rule="evenodd" fill="none" stroke="#000000" stroke-width="1.0001" stroke-linecap="round" stroke-miterlimit="22.9256" d="
	M218.654,226.337c-0.969,1.273-7.849,9-9.149,9.45"/>
<path fill-rule="evenodd" clip-rule="evenodd" fill="none" stroke="#000000" stroke-width="1.0001" stroke-linecap="round" stroke-miterlimit="22.9256" d="
	M218.505,226.337c2.142-2.729,5.293-1.554,1.238,4.839c-0.247,0.39-3.539,6.772-0.488,4.611c0.3-0.051,0.842-0.513,1.088-0.698
	c2.403-1.807,3.603-4.275,4.162-4.701"/>
<path fill-rule="evenodd" clip-rule="evenodd" fill="none" stroke="#000000" stroke-width="1.0001" stroke-linecap="round" stroke-miterlimit="22.9256" d="
	M181.755,209.987c7.27,1.588,8.839,6.438,12.861,12.45c0.691,1.034,1.548,4.839,1.839,6l0.149,0.6"/>
<path fill-rule="evenodd" clip-rule="evenodd" fill="none" stroke="#000000" stroke-width="1.0001" stroke-linecap="round" stroke-miterlimit="22.9256" d="
	M211.229,131.762c4.093,0.396,9.971,3.189,11.987,6.686c5.137,8.908,4.576,8.035,5.4,17.464c0.5,5.73,7.275,5.754,5.062,9.138
	l-0.099,0.313"/>
<path fill-rule="evenodd" clip-rule="evenodd" fill="none" stroke="#000000" stroke-width="1.0001" stroke-linecap="round" stroke-miterlimit="22.9256" d="
	M230.43,164.013c2.31,11.619,2.968,5.848,4.762,10.2c1.526,3.703-8.774,7.055-7.462,13.8"/>
<path fill-rule="evenodd" clip-rule="evenodd" fill="none" stroke="#000000" stroke-width="1.0001" stroke-linecap="round" stroke-miterlimit="22.9256" d="
	M238.08,177.963c1.182,4.159-2.89,9.166-4.351,13.8"/>
<path fill-rule="evenodd" clip-rule="evenodd" fill="none" stroke="#000000" stroke-width="1.0001" stroke-linecap="round" stroke-miterlimit="22.9256" d="
	M189.63,134.612c-3.926,5.528-6.696,11.497-3.112,18.111c1.247,2.301,4.118,6.184,4.299,8.438c0.335,4.164,2.944,11.251,3.163,13.8
	c0.16,1.866-2.057,3.093,3.3,4.2c3.07,0.635-1.107,7.72-1.35,8.25"/>
<path fill-rule="evenodd" clip-rule="evenodd" fill="none" stroke="#000000" stroke-width="1.0001" stroke-linecap="round" stroke-miterlimit="22.9256" d="
	M195.938,172.538c1.784,2.208,3.313,4.926,6.795,7.219c3.481,2.293,4.671,2.633,5.944,3.566c1.274,0.935,4.332,1.274,7.813-0.849
	c3.482-2.123,3.992-3.737,5.945-6.2s3.907-4.501,4.331-5.944c0.425-1.444,0.425-7.39,0.255-8.493"/>
</svg>
