<svg width="400" height="400" xmlns="http://www.w3.org/2000/svg">
 <style type="text/css">.st0{fill:#E2A476;}
	.st1{fill:#EAEAEA;}
	.st2{fill:#161616;}
	.st3{fill:#191919;}
	.st4{fill:#757575;}
	.st5{fill:#FFFFFF;}
	.st6{fill:#261D17;}
	.st7{fill:#B70808;}
	.st8{fill:#A30A0A;}
	.st9{fill:#F4BD90;}
	.st10{fill:#4C1E1E;}
	.st11{fill:#232323;}
	.st12{fill:#E5A373;}
	.st13{fill:#DD9F72;}
	.st14{fill:#BA173A;}
	.st15{fill:#87122B;}
	.st16{fill:#1E1D1D;}
	.st17{fill:#D11535;}
	.st18{fill:#931228;}
	.st19{fill:#F2E000;}
	.st20{fill:#CEBB09;}
	.st21{fill:#595959;}
	.st22{fill:#E0E0E0;}
	.st23{fill:#3FCCFC;}
	.st24{fill:#29AACC;}
	.st25{fill:#EAD906;}
	.st26{fill:#FF9FDD;}
	.st27{fill:#CC4F11;}
	.st28{fill:#15729B;}
	.st29{fill:#911919;}
	.st30{fill:#512414;}
	.st31{fill:#442020;}
	.st32{fill:#F9F9F9;}
	.st33{fill:#BA2D2D;}
	.st34{fill:#EFEFEF;}
	.st35{fill:#DBC607;}
	.st36{fill:none;stroke:#FFFFFF;stroke-miterlimit:10;}
    #albert{
    animation : 
    }
    }
    #waving-roger{
    animation : hide 6s ease-in-out infinite
    }
    @keyframes hide{
    0%,70%{
    visibility : hidden
    }
    71%,100%{
    visibility : visible
    }
    }
    #walking-roger{
    animation : fade 6s ease-in-out infinite
    }
    @keyframes fade{
    0%{
    transform : translateX(0)
    }
    40%{
     transform : translateX(500px)
    }
    70%,100%{
    transform : translateX(500px);
    visibility : hidden
    }
    }
    #left-leg1_1_ ,#right-leg1 ,#right-arm2 ,#left-arm2 {
    animation : walk 6s ease-in-out infinite
    }
    @keyframes walk{
    0%,10%{
    visibility : visible
    }
    11%,20%{
    visibility : hidden
    }
    21%,30%{
    visibility : visible
    }
    31%,40%{
    visibility : hidden
    }
    41%,70%{
    visibility : visible
    }
    71%,100%{
    visibility : hidden
    }
    }
 
    #left-leg2 ,#right-leg2 ,#left-arm1 ,#right-arm1{
    animation : walk2 6s ease-in-out infinite
    }
    @keyframes walk2{
    0%,10%{
    visibility : hidden
    }
    11%,20%{
    visibility : visible
    }
    21%,30%{
    visibility : hidden
    }
    31%,41%{
    visibility : visible
    }
    42%,100%{
    visibility : hidden
    }
    }
    #albert-left-leg1_copy ,#albert-leg-right2{
     animation : walk3 6s ease-in-out infinite
    }
    @keyframes walk3{
     0%,10%{
    visibility : visible
    }
    11%,20%{
    visibility : hidden
    }
    21%,30%{
    visibility : visible
    }
    31%,40%{
    visibility : hidden
    }
    41%,69%{
    visibility : hidden
    }
    70%,100%{
    visibility : hidden
    }
   }
    #albert-leg-right1 ,#albert-left-leg1{
    animation : walk4 6s ease-in-out infinite
    }
    @keyframes walk4{
    0%,10%{
    visibility : hidden
    }
    11%,20%{
    visibility : visible
    }
    21%,30%{
    visibility : hidden
    }
    31%,40%{
    visibility : visible
    }
    41%,100%{
    visibility : visible
    }
   
    }
    #eyes-opened ,#OJOS{
    animation : blink1 3s ease-in-out infinite
    }
    @keyframes blink1{
    0%,20%{
    visibility : visible
    }
    25%,30%{
    visibility : hidden
    }
    35%,40%{
    visibility : visible
    }
    45%,69%{
    visibility : visible
    }
    70%,100%{
    visibility : hidden
    }
    }
    #right-arm-waving2{
    animation : wave1 6s ease-in-out infinite
    }
    @keyframes wave1{
    0%,70%{
    visibility : hidden
    }
    71%,80%{
    visibility : visible
    }
    81%,90%{
    visibility : hidden
    }
    91%,100%{
     visibility : visible
    }
    }
    #right-arm-waving1{
    animation : wave2 6s ease-in-out infinite
    }
    @keyframes wave2{
    0%,70%{
    visibility : hidden
    }
    71%,80%{
    visibility : hidden
    }
    81%,90%{
    visibility : visible
    }
    91%,100%{
     visibility : hidden
    }
    }
    #BRAZO_IZQ_copy{
    animation : waveyy 6s ease-in-out infinite
    }
    @keyframes waveyy{
    0%,70%{
    visibility : hidden
    }
    71%,80%{
    visibility : visible
    }
    81%,90%{
    visibility : hidden
    }
    91%,100%{
     visibility : visible
    }
    }
    #BRAZO_IZQ{
    animation : wavezz 6s ease-in-out infinite
    }
    @keyframes wavezz{
    0%,70%{
    visibility : visibile
    }
    71%,80%{
    visibility : hidden
    }
    81%,90%{
    visibility : visible
    }
    91%,100%{
     visibility : hidden
    }
    }</style>

 <g>
  <title>Layer 1</title>
 
  <g id="albert">
   <g id="CUERPO">
    <g id="svg_2">
     <g id="svg_3">
      <path id="svg_4" d="m-231.6,109.5c0,0 0,21.7 1.7,28.4c1.7,6.7 26.1,9.3 26.6,-2s0.6,-23.2 0.6,-23.2l-28.9,-3.2z" class="st0"/>
     </g>
     <g id="svg_5">
      <g id="svg_6">
       <g id="svg_7">
        <path id="svg_8" d="m-230.1,136.9c0,0 -16.9,0.1 -22.6,8.8c-6,9.1 2.5,61.2 2.5,64c1.4,46.4 -2.4,55.9 -2.4,55.9l77,0c0,0 -3.7,-27.8 -3.2,-58c0.5,-23.9 6.2,-49.5 0,-63c-2,-4.4 -10.8,-2.4 -13.6,-4.1c-22.8,-13.8 -37.7,-3.6 -37.7,-3.6z"/>
        <g id="svg_9">
         <path id="svg_10" d="m-188.7,174.2l-14.1,0c-1.9,0 -3.4,-1.5 -3.4,-3.4l0,-0.8c0,-1.9 1.5,-3.4 3.4,-3.4l14.1,0c1.9,0 3.4,1.5 3.4,3.4l0,0.8c0,1.9 -1.5,3.4 -3.4,3.4z" class="st1"/>
         <rect id="svg_11" height="7.8" width="2.2" class="st2" y="166.6" x="-204.5"/>
         <rect id="svg_12" height="7.8" width="2.2" class="st2" y="166.5" x="-200.1"/>
         <rect id="svg_13" height="7.8" width="2.2" class="st2" y="166.6" x="-196.2"/>
         <rect id="svg_14" height="7.8" width="2.2" class="st2" y="166.6" x="-192.3"/>
         <rect id="svg_15" height="7.8" width="2.2" class="st2" y="166.6" x="-188.6"/>
         <rect id="svg_16" height="21.4" width="1.9" class="st2" transform="matrix(-1.836970e-16 1 -1 -1.836970e-16 -23.1769 368.0751)" y="161.7" x="-196.6"/>
         <rect id="svg_17" height="20.9" width="1.9" class="st2" transform="matrix(-1.836970e-16 1 -1 -1.836970e-16 -27.3655 364.0841)" y="157.9" x="-196.7"/>
        </g>
       </g>
       <path id="svg_18" d="m-191.2,291.1l-45.8,0c-8.5,0 -15.5,-7 -15.5,-15.5l0,-3.8c0,-8.5 7,-15.5 15.5,-15.5l45.8,0c8.5,0 15.5,7 15.5,15.5l0,3.8c0,8.5 -7,15.5 -15.5,15.5z" class="st3"/>
      </g>
      <g id="svg_19">
       <polygon id="svg_20" points="-232.3,139.3 -213.6,196.9 -197.5,139.3      " class="st4"/>
       <polygon id="svg_21" points="-226.8,136.2 -213.5,185.8 -203.1,136.2      " class="st5"/>
      </g>
      <polygon id="svg_22" points="-231.1,123 -253,144.6 -222.1,144.6     " class="st6"/>
      <polygon id="svg_23" points="-202.7,125.4 -177.3,145 -208.2,145     " class="st6"/>
     </g>
    </g>
    <g id="svg_24">
     <path id="svg_25" d="m-225.2,145.2l-2.7,0c-3.8,0 -6.9,-3.1 -6.9,-6.9l0,-1.7c0,-3.8 3.1,-6.9 6.9,-6.9l2.7,0c3.8,0 6.9,3.1 6.9,6.9l0,1.7c0,3.8 -3.1,6.9 -6.9,6.9z" class="st7"/>
     <path id="svg_26" d="m-202.1,145.2l-2.7,0c-3.8,0 -6.9,-3.1 -6.9,-6.9l0,-1.7c0,-3.8 3.1,-6.9 6.9,-6.9l2.7,0c3.8,0 6.9,3.1 6.9,6.9l0,1.7c0,3.8 -3.1,6.9 -6.9,6.9z" class="st7"/>
     <path id="svg_27" d="m-214.5,143.6l-1.3,0c-2.9,0 -5.2,-2.3 -5.2,-5.2l0,-2c0,-2.9 2.3,-5.2 5.2,-5.2l1.3,0c2.9,0 5.2,2.3 5.2,5.2l0,2c0,2.9 -2.3,5.2 -5.2,5.2z" class="st8"/>
    </g>
   </g>
   <g id="CABEZA">
    <g id="svg_28">
     <path id="svg_29" d="m-209.4,-16.8c-54.6,-3.2 -43.1,32 -43.1,71.5c0,0.6 0,1.1 0,1.6c-1.3,-1.1 -2.7,-1.7 -4.2,-1.7c-5.4,0 -9.7,7.8 -9.7,17.5s4.3,17.5 9.7,17.5c3.1,0 4.1,1.5 5.9,-2.7c6.6,25.5 23.6,39.3 41.5,39.3c23.8,0 43.1,-32 43.1,-71.5s16.8,-68 -43.2,-71.5z" class="st9"/>
     <path id="svg_30" d="m-249,75.7c0,0 -1.7,-58.9 14.5,-62.4s24.3,7.5 31.9,7.5s27.8,4.1 31.3,-1.2c3.5,-5.2 4.5,47.7 4.5,47.7s12.1,-60.8 0.3,-72.2s-75.1,-27.6 -88,8.3l2.1,52.9l3.4,19.4z"/>
     <path id="svg_31" d="m-203.7,97.9c-2,0 -3.8,-0.4 -5.5,-1.2c-6.3,-3.1 -8.1,-10.6 -8.2,-10.9l1.6,-0.4c0,0.1 1.8,7.1 7.3,9.8c3.4,1.6 7.4,1.4 12.2,-0.7c2.4,-1.1 3.9,-2.4 4.5,-4.1c1.1,-3.1 -0.8,-7.2 -3.1,-11.9c-1.9,-3.9 -4,-8.3 -4.6,-13l1.7,-0.2c0.7,4.4 2.7,8.7 4.5,12.5c2.4,5.1 4.5,9.5 3.1,13.2c-0.8,2.1 -2.5,3.7 -5.4,5c-2.9,1.2 -5.6,1.9 -8.1,1.9z"/>
     <g id="svg_32">
      <path id="svg_33" d="m-262.7,67c1.1,-0.2 2.3,-0.2 3.4,0.1c1.1,0.3 2.2,0.8 3.1,1.6c0.9,0.8 1.6,1.9 1.8,3.1c0.2,1.2 0.1,2.4 -0.3,3.4c-0.1,-1.1 -0.3,-2.2 -0.7,-3.1c-0.4,-0.9 -1,-1.8 -1.7,-2.4c-0.7,-0.7 -1.6,-1.2 -2.6,-1.6c-0.9,-0.5 -2,-0.8 -3,-1.1z"/>
      <path id="svg_34" d="m-260,78c0.4,-0.8 0.9,-1.6 1.3,-2.3c0.4,-0.8 0.8,-1.5 1.1,-2.3c0.3,-0.8 0.6,-1.5 0.6,-2.3c0.1,-0.8 0,-1.6 -0.4,-2.5c0.4,0.3 0.7,0.6 0.9,1c0.2,0.4 0.4,0.9 0.4,1.4c0.1,1 -0.1,2 -0.5,2.8c-0.4,0.9 -0.9,1.7 -1.5,2.4c-0.5,0.7 -1.1,1.3 -1.9,1.8z"/>
     </g>
     <g id="svg_35">
      <path id="svg_36" d="m-231.6,100.1c3,0 11.8,3.6 23.3,3.8c7.2,0.1 15.5,-2.3 23.9,-3.8c3.3,0.4 -6.7,15.6 -24.9,15.5c-18.1,0 -27.2,-15.5 -22.3,-15.5z" class="st10"/>
     </g>
    </g>
    <path id="svg_37" d="m-185.9,104.4c0,0 -20,1.7 -22.5,1.7c-2.5,0 -22.9,-2 -22.9,-2s-2.4,-2.6 -1.1,-3.8c0.8,-0.7 3.8,0.5 8.6,1.5c4.4,0.9 9.9,2.1 15.5,2.2c4.8,0 9.6,-0.9 13.6,-1.7c5.6,-1.1 9.7,-2.3 10.3,-2.1c2.1,0.4 -1.5,4.2 -1.5,4.2z" class="st5"/>
    <path id="svg_38" d="m-212.6,115.5c1.3,0 -1.5,-4.7 -5,-5.9c-3.5,-1.1 -7.8,0.6 -7.4,1.5c0.4,0.9 7.5,4.3 12.4,4.4z" class="st7"/>
   </g>
   <g id="albert-left-leg1">
    <g id="svg_39">
     <rect id="svg_40" height="123.9" width="27.2" class="st3" y="276.8" x="-202.5"/>
     <path id="svg_41" d="m-202.8,400.7l0,19.9l45.5,0c0,0 3,-18.7 -22.7,-19.9c-25.8,-1.1 -22.8,0 -22.8,0z" class="st11"/>
    </g>
   </g>
   <g id="albert-left-leg1_copy">
    <g id="svg_42">
     <rect id="svg_43" height="27.2" width="123.9" class="st3" transform="matrix(0.6737 -0.739 0.739 0.6737 -313.5156 -62.8996)" y="310" x="-290"/>
     <path id="svg_44" d="m-279.9,360l-13.4,14.7l33.6,30.6c0,0 14.9,-11.8 -3.4,-30s-16.8,-15.3 -16.8,-15.3z" class="st11"/>
    </g>
   </g>
   <g id="albert-leg-right1">
    <g id="svg_45">
     <rect id="svg_46" height="123.9" width="27.2" class="st3" y="276.8" x="-251.2"/>
     <path id="svg_47" d="m-251.7,400.7l0,19.9l45.5,0c0,0 3,-18.7 -22.7,-19.9c-25.8,-1.1 -22.8,0 -22.8,0z" class="st11"/>
    </g>
   </g>
   <g id="albert-leg-right2">
    <g id="svg_48">
     <rect id="svg_49" height="123.9" width="27.2" class="st3" transform="matrix(0.8167 -0.5771 0.5771 0.8167 -227.2372 -55.9872)" y="267.7" x="-215.3"/>
     <path id="svg_50" d="m-177.5,388.5l11.5,16.2l37.1,-26.2c0,0 -8.3,-17 -30,-3.1c-21.8,13.9 -18.6,13.1 -18.6,13.1z" class="st11"/>
    </g>
   </g>
   <g id="BRAZO_IZQ">
    <g id="svg_51">
     <path id="svg_52" d="m-274.9,175.7c-10.1,0 -21.2,-2.1 -31.6,-9c-15.8,-10.3 -26.4,-29.3 -31.7,-56.6l28.7,-5.6c3.7,19.2 10.1,31.9 19,37.7c10.5,6.9 24.8,3.7 35.2,1.3c1.1,-0.2 2.1,-0.5 3.1,-0.7l6.2,28.6c-0.9,0.2 -1.8,0.4 -2.8,0.6c-6.9,1.6 -16.1,3.7 -26.1,3.7z"/>
     <g id="svg_53">
      <g id="svg_54">
       <path id="svg_55" d="m-341.9,84.5c0,0 -19.3,-26 -10.3,-30.3s17.4,23 17.4,23s-6.9,-29.8 1.7,-30.2c8.7,-0.3 9.7,28 9.7,28s0.4,-25.1 11.3,-25.1c10.9,0 -0.2,34.2 -0.2,34.2s16.4,-12.9 18.7,-3c2.3,9.7 -17.7,12.8 -17.7,12.8s0.6,9.2 -2,11.5c-2.6,2.3 -18.9,3.6 -18.9,3.6s-4.3,-2.6 -7.4,-8.7c-0.5,-0.9 -0.3,-1.4 -1.3,-3c-3.8,-6.2 -15,-2.3 -15.2,-13.1s14.5,2.3 14.2,0.3z" class="st9"/>
       <path id="svg_56" d="m-328.6,98.9c0.7,-1.6 1.5,-3.1 2.5,-4.5c1,-1.4 2,-2.7 3.2,-4c1.2,-1.2 2.5,-2.4 4,-3.4c0.7,-0.5 1.5,-0.9 2.4,-1.2c0.8,-0.3 1.8,-0.5 2.6,-0.3c-0.8,0.3 -1.5,0.7 -2.1,1.2c-0.6,0.5 -1.2,1 -1.8,1.6c-1.2,1.1 -2.3,2.3 -3.5,3.5c-1.1,1.2 -2.3,2.4 -3.5,3.6c-1.3,1.2 -2.5,2.4 -3.8,3.5z" class="st12"/>
      </g>
      <path id="svg_57" d="m-340.1,87.2c1.8,-1.4 3.8,-2.4 5.8,-3.4c2.1,-0.9 4.2,-1.6 6.4,-2.1c2.2,-0.5 4.5,-0.8 6.8,-0.6c1.1,0.1 2.3,0.3 3.4,0.6c1.1,0.4 2.2,0.9 3,1.6c-2.2,-0.7 -4.3,-0.7 -6.4,-0.6c-2.1,0.2 -4.2,0.6 -6.4,1c-2.1,0.5 -4.2,1 -6.3,1.6c-2,0.7 -4.1,1.3 -6.3,1.9z" class="st12"/>
     </g>
    </g>
   </g>
   <g id="BRAZO_IZQ_copy">
    <g id="svg_58">
     <path id="svg_59" d="m-258.3,179.9c-8.7,5.2 -19.2,9.2 -31.7,8.7c-18.8,-0.6 -37.8,-11.4 -56.5,-31.9l21.7,-19.7c13.1,14.5 25.2,22 35.8,22.4c12.5,0.4 23.1,-9.7 30.8,-17.1c0.8,-0.8 1.5,-1.5 2.3,-2.2l20.1,21.3c-0.7,0.6 -1.4,1.3 -2.1,2c-5.1,4.8 -11.9,11.3 -20.4,16.5z"/>
     <g id="svg_60">
      <g id="svg_61">
       <path id="svg_62" d="m-362.9,136.6c0,0 -29.9,-12.2 -24.5,-20.5s26.8,10.6 26.8,10.6s-21.4,-21.9 -14.1,-26.7s22.8,18.9 22.8,18.9s-12.7,-21.7 -3.3,-27.4s17.5,29.3 17.5,29.3s7.4,-19.5 14.5,-12.3c7,7.1 -8.5,20.2 -8.5,20.2s5.3,7.6 4.3,10.8c-1.1,3.3 -14.3,12.9 -14.3,12.9s-5,0 -10.8,-3.7c-0.9,-0.5 -1,-1 -2.7,-1.9c-6.4,-3.3 -14,5.8 -19.8,-3.4c-5.8,-9.1 13.4,-5.2 12.1,-6.8z" class="st9"/>
       <path id="svg_63" d="m-344.1,142c-0.3,-1.7 -0.3,-3.4 -0.2,-5.1c0.1,-1.7 0.3,-3.4 0.7,-5.1c0.4,-1.7 0.9,-3.3 1.6,-4.9c0.4,-0.8 0.8,-1.6 1.4,-2.3c0.6,-0.7 1.2,-1.3 2.1,-1.7c-0.6,0.7 -0.9,1.4 -1.2,2.2c-0.3,0.8 -0.5,1.5 -0.7,2.3c-0.4,1.6 -0.8,3.2 -1.1,4.8c-0.4,1.6 -0.7,3.2 -1.1,4.9c-0.5,1.6 -0.9,3.3 -1.5,4.9z" class="st12"/>
      </g>
      <path id="svg_64" d="m-360,138c0.8,-2.1 2,-4 3.3,-5.9c1.3,-1.8 2.7,-3.6 4.4,-5.2c1.6,-1.6 3.5,-3 5.5,-4.1c1,-0.5 2.1,-1 3.2,-1.2c1.1,-0.3 2.3,-0.4 3.4,-0.2c-2.2,0.6 -4,1.6 -5.8,2.8c-1.7,1.2 -3.3,2.7 -4.9,4.2c-1.6,1.5 -3.1,3.1 -4.5,4.7c-1.5,1.6 -3,3.2 -4.6,4.9z" class="st12"/>
     </g>
    </g>
   </g>
   <g id="BRAZO_DERE_1_">
    <path id="svg_65" d="m-159.5,174c-10.1,0 -19.4,-2.1 -26.3,-3.7c-1,-0.2 -1.9,-0.4 -2.8,-0.6l6.3,-28.6c1,0.2 2,0.4 3.1,0.7c10.4,2.4 24.7,5.7 35.2,-1.2c8.9,-5.8 15.4,-18.4 19.2,-37.6l28.7,5.7c-5.4,27.2 -16.2,46.2 -32,56.5c-10.4,6.7 -21.3,8.8 -31.4,8.8z"/>
   </g>
   <g id="MANO_BARA">
    <g id="svg_66">
     <g id="svg_67">
      <path id="svg_68" d="m-118.6,90.9c-8.5,29.9 13.2,22.5 18.3,20c2.9,-1.4 11.9,-6.3 11.9,-21.1s-7.6,-18.3 -13.3,-18.3c-10.5,0 -12.8,5.1 -16.9,19.4z" class="st9"/>
      <path id="svg_69" d="m-110.9,113.8c-2.4,0 -4.7,-0.5 -6.5,-2.1c-3.9,-3.3 -4.4,-10.3 -1.4,-20.9l0.2,0.1l-0.2,-0.1c4.1,-14.5 6.5,-19.6 17.1,-19.6c4.1,0 13.5,1.8 13.5,18.5c0,10.1 -4.2,17.5 -12,21.3c-0.3,0.2 -5.5,2.8 -10.7,2.8zm9.2,-42.1c-10.3,0 -12.6,5 -16.7,19.3c-3,10.4 -2.5,17.3 1.2,20.5c4.5,3.8 12.9,1.2 16.8,-0.7c7.7,-3.8 11.8,-11 11.8,-20.9c0.1,-16.5 -9.1,-18.2 -13.1,-18.2z" class="st13"/>
     </g>
     <g id="svg_70">
      <rect id="svg_71" height="92.1" width="9" transform="matrix(-0.9671 0.2545 -0.2545 -0.9671 -205.1033 119.9312)" y="0.6" x="-114.8"/>
      <rect id="svg_72" height="18.8" width="9" class="st5" transform="matrix(-0.9671 0.2545 -0.2545 -0.9671 -246.6349 18.656)" y="-16" x="-129"/>
      <rect id="svg_73" height="18.8" width="9" class="st5" transform="matrix(-0.9671 0.2545 -0.2545 -0.9671 -163.4154 222.517)" y="91.3" x="-100.6"/>
     </g>
     <g id="svg_74">
      <ellipse id="svg_75" ry="14.1" rx="5.8" cy="85.6" cx="-109.8" class="st9" transform="matrix(0.9671 -0.2545 0.2545 0.9671 -25.4107 -25.1299)"/>
      <path id="svg_76" d="m-108.1,99.7c-0.9,0 -1.7,-0.2 -2.4,-0.6c-2.5,-1.5 -3.5,-5.5 -4.7,-10.1c-0.2,-0.6 -0.3,-1.2 -0.5,-1.8c-0.4,-1.5 -0.9,-3 -1.4,-4.4c-1.1,-3.3 -2.1,-6.1 -1,-8.1c0.7,-1.3 2.2,-2.2 4.6,-2.9c2.2,-0.6 3.9,-0.5 5.2,0.3c2.1,1.3 2.7,4.4 3.4,7.9c0.3,1.3 0.5,2.7 0.9,4.1c0.2,0.9 0.5,1.8 0.7,2.7c1.2,4.2 2.2,7.8 0.8,10.1c-0.7,1.2 -1.9,2 -3.8,2.5l0,0c-0.6,0.2 -1.2,0.3 -1.8,0.3zm-2.8,-27.8c-0.7,0 -1.6,0.1 -2.5,0.4c-2.3,0.6 -3.7,1.5 -4.3,2.7c-1,1.9 -0.1,4.5 1,7.8c0.5,1.4 1,2.8 1.4,4.4c0.2,0.6 0.3,1.2 0.5,1.8c1.2,4.6 2.2,8.5 4.5,9.9c1.1,0.6 2.4,0.7 4,0.3l0,0c1.8,-0.5 2.9,-1.2 3.5,-2.3c1.3,-2.2 0.3,-5.7 -0.9,-9.8c-0.2,-0.9 -0.5,-1.8 -0.7,-2.7c-0.4,-1.4 -0.7,-2.8 -0.9,-4.1c-0.7,-3.6 -1.3,-6.4 -3.2,-7.6c-0.7,-0.6 -1.4,-0.8 -2.4,-0.8z" class="st13"/>
     </g>
     <g id="svg_77">
      <ellipse id="svg_78" ry="5.2" rx="10.9" cy="71.6" cx="-95.1" class="st9" transform="matrix(0.9671 -0.2545 0.2545 0.9671 -21.3551 -21.8454)"/>
      <path id="svg_79" d="m-101,78.2c-0.2,0 -0.4,0 -0.6,0c-2.3,-0.2 -3.6,-1.4 -4.3,-3.8l0,0c-0.4,-1.6 -0.3,-2.9 0.3,-4c1.2,-2.1 4.3,-2.8 7.9,-3.8c0.4,-0.1 0.8,-0.2 1.3,-0.3c1.3,-0.3 2.5,-0.8 3.6,-1.2c2.3,-0.9 4.3,-1.6 5.9,-0.8c1.2,0.6 2,2 2.7,4.4c0.5,2 0.5,3.5 -0.2,4.5c-1.1,1.7 -3.5,2.2 -6.3,2.8c-0.9,0.2 -1.9,0.4 -2.9,0.7l-0.5,0.1c-2.7,0.8 -5,1.4 -6.9,1.4zm-4.5,-3.9c0.6,2.2 1.8,3.3 3.9,3.5c1.9,0.1 4.4,-0.5 7.2,-1.2l0.5,-0.1c1,-0.3 1.9,-0.5 2.9,-0.7c2.7,-0.6 5.1,-1.1 6.1,-2.7c0.6,-1 0.7,-2.4 0.2,-4.2c-0.6,-2.3 -1.4,-3.6 -2.4,-4.2c-1.4,-0.7 -3.2,0 -5.5,0.8c-1.1,0.4 -2.3,0.9 -3.6,1.2c-0.4,0.1 -0.9,0.2 -1.3,0.3c-3.5,0.9 -6.5,1.7 -7.6,3.6c-0.7,1 -0.8,2.2 -0.4,3.7l0,0z" class="st13"/>
     </g>
     <g id="svg_80">
      <ellipse id="svg_81" ry="5.2" rx="10.9" cy="80.4" cx="-92.8" class="st9" transform="matrix(0.9671 -0.2545 0.2545 0.9671 -23.5042 -20.9721)"/>
      <path id="svg_82" d="m-98.7,87c-0.2,0 -0.4,0 -0.6,0c-2.3,-0.2 -3.6,-1.4 -4.3,-3.8c-0.4,-1.6 -0.3,-2.9 0.3,-4c1.2,-2.1 4.3,-2.8 7.9,-3.8c0.4,-0.1 0.8,-0.2 1.3,-0.3c1.3,-0.3 2.5,-0.8 3.6,-1.2c2.3,-0.9 4.3,-1.6 5.9,-0.8c1.2,0.6 2,2 2.7,4.4c0.5,2 0.5,3.5 -0.2,4.5c-1.1,1.7 -3.5,2.2 -6.3,2.8c-0.9,0.2 -1.9,0.4 -2.9,0.7l-0.5,0.1c-2.7,0.8 -5,1.4 -6.9,1.4zm-4.5,-3.9c0.6,2.2 1.8,3.3 3.9,3.5c1.9,0.1 4.4,-0.5 7.2,-1.3l0.5,-0.1c1,-0.3 1.9,-0.5 2.9,-0.7c2.7,-0.6 5.1,-1.1 6.1,-2.7c0.6,-1 0.7,-2.4 0.2,-4.2c-0.6,-2.3 -1.4,-3.6 -2.5,-4.2c-1.4,-0.7 -3.2,0 -5.5,0.8c-1.1,0.4 -2.3,0.9 -3.6,1.2c-0.4,0.1 -0.9,0.2 -1.3,0.3c-3.5,0.9 -6.5,1.7 -7.6,3.6c-0.6,1.1 -0.7,2.3 -0.3,3.8z" class="st13"/>
     </g>
     <g id="svg_83">
      <ellipse id="svg_84" ry="5.2" rx="10.9" cy="89.6" cx="-90.4" class="st9" transform="matrix(0.9671 -0.2545 0.2545 0.9671 -25.7676 -20.0523)"/>
      <path id="svg_85" d="m-96.3,96.2c-0.2,0 -0.4,0 -0.6,0c-2.3,-0.2 -3.6,-1.4 -4.3,-3.8c-0.4,-1.6 -0.3,-2.9 0.3,-4c1.2,-2.1 4.3,-2.8 7.9,-3.8c0.4,-0.1 0.8,-0.2 1.3,-0.3c1.3,-0.3 2.5,-0.8 3.6,-1.2c2.3,-0.9 4.3,-1.6 5.9,-0.8c1.2,0.6 2,2 2.7,4.4c0.5,2 0.5,3.5 -0.2,4.5c-1.1,1.7 -3.5,2.2 -6.3,2.8c-0.9,0.2 -1.9,0.4 -2.9,0.7l-0.5,0.1c-2.7,0.8 -5,1.4 -6.9,1.4zm12.5,-13.8c-1.2,0 -2.6,0.5 -4.2,1.1c-1.1,0.4 -2.3,0.9 -3.6,1.2c-0.4,0.1 -0.9,0.2 -1.3,0.3c-3.5,0.9 -6.5,1.7 -7.6,3.6c-0.6,0.9 -0.6,2.1 -0.2,3.6l0,0c0.6,2.2 1.8,3.3 3.9,3.5c1.9,0.1 4.4,-0.5 7.2,-1.2l0.5,-0.1c1,-0.3 1.9,-0.5 2.9,-0.7c2.7,-0.6 5.1,-1.1 6.1,-2.7c0.6,-1 0.7,-2.4 0.2,-4.2c-0.6,-2.3 -1.4,-3.6 -2.5,-4.2c-0.5,-0.1 -0.9,-0.2 -1.4,-0.2z" class="st13"/>
     </g>
     <g id="svg_86">
      <ellipse id="svg_87" ry="5.2" rx="10.9" cy="98" cx="-88.2" class="st9" transform="matrix(0.9671 -0.2545 0.2545 0.9671 -27.8416 -19.2095)"/>
      <path id="svg_88" d="m-94.1,104.6c-0.2,0 -0.4,0 -0.6,0c-2.3,-0.2 -3.6,-1.4 -4.3,-3.8c-0.4,-1.6 -0.3,-2.9 0.3,-4c1.2,-2.1 4.3,-2.8 7.9,-3.8c0.4,-0.1 0.8,-0.2 1.3,-0.3c1.3,-0.3 2.5,-0.8 3.6,-1.2c2.3,-0.9 4.3,-1.6 5.9,-0.8c1.2,0.6 2,2 2.7,4.4c0.5,2 0.5,3.5 -0.2,4.5c-1.1,1.7 -3.5,2.2 -6.3,2.8c-0.9,0.2 -1.9,0.4 -2.9,0.7l-0.5,0.1c-2.7,0.8 -5,1.4 -6.9,1.4zm12.5,-13.8c-1.2,0 -2.6,0.5 -4.2,1.1c-1.1,0.4 -2.3,0.9 -3.6,1.2c-0.4,0.1 -0.9,0.2 -1.3,0.3c-3.5,0.9 -6.5,1.7 -7.6,3.6c-0.6,0.9 -0.6,2.1 -0.2,3.6l0,0c0.6,2.2 1.8,3.3 3.9,3.5c1.9,0.1 4.4,-0.5 7.2,-1.3l0.5,-0.1c1,-0.3 1.9,-0.5 2.9,-0.7c2.7,-0.6 5.1,-1.1 6.1,-2.7c0.6,-1 0.7,-2.4 0.2,-4.2c-0.6,-2.3 -1.4,-3.6 -2.5,-4.2c-0.5,0 -0.9,-0.1 -1.4,-0.1z" class="st13"/>
     </g>
    </g>
   </g>
   <g id="OJOS-closed">
    <g id="svg_89">
     <ellipse id="svg_90" ry="2.4" rx="9" cy="65.5" cx="-219.6" class="st5"/>
     <ellipse id="svg_91" ry="1.2" rx="4.5" cy="65.5" cx="-219.6"/>
     <ellipse id="svg_92" ry="0.7" rx="2.2" cy="64.5" cx="-221.8" class="st5"/>
    </g>
    <g id="svg_93">
     <ellipse id="svg_94" ry="2.4" rx="9" cy="65.8" cx="-185.3" class="st5"/>
     <ellipse id="svg_95" ry="1.2" rx="4.5" cy="65.8" cx="-185.3"/>
     <ellipse id="svg_96" ry="0.7" rx="2.2" cy="64.8" cx="-187.5" class="st5"/>
    </g>
   </g>
   <g id="OJOS">
    <g id="svg_97">
     <circle id="svg_98" r="9" cy="65.2" cx="-219.6" class="st5"/>
     <circle id="svg_99" r="4.5" cy="65.3" cx="-219.6"/>
     <ellipse id="svg_100" ry="2.8" rx="2.2" cy="61.3" cx="-221.8" class="st5"/>
    </g>
    <g id="svg_101">
     <circle id="svg_102" r="9" cy="66.1" cx="-185.3" class="st5"/>
     <circle id="svg_103" r="4.5" cy="66.2" cx="-185.3"/>
     <ellipse id="svg_104" ry="2.8" rx="2.2" cy="62.3" cx="-187.5" class="st5"/>
    </g>
   </g>
   <g id="CEJAS">
    <g id="svg_105">
     <path id="svg_106" d="m-216.6,48.6c0,0 -17.8,2.3 -15.8,3.7s19.8,1 19.7,0s1.1,-4.4 -3.9,-3.7z"/>
     <path id="svg_107" d="m-192.3,48.6c0,0 17.8,2.3 15.8,3.7s-19.8,1 -19.7,0s-1.1,-4.4 3.9,-3.7z"/>
    </g>
   </g>
  </g>
  <g stroke="null" id="waving-roger">
   <g stroke="null" id="svg_267">
    <g stroke="null" id="svg_268">
     <path fill="#84D3DB" stroke="null" id="svg_269" d="m269.5641,172.97953c-0.29875,2.24064 0.14938,-0.74688 0,0l0,0z" class="st5"/>
     <path fill="#84D3DB" stroke="null" id="svg_270" d="m267.32346,163.71823c-1.04563,-1.49376 -2.39001,-2.83814 -4.18253,-4.18253c-0.5975,-0.5975 4.03315,-4.63065 3.88377,-4.78003c-0.14938,-0.74688 -7.4688,2.39001 -8.21568,1.94189c-1.64314,-0.89626 -3.43565,-1.94189 -5.37753,-2.68877c-2.39001,-1.04563 15.98322,-11.35257 13.14508,-12.24883c-2.24064,-0.74688 -18.52261,4.92941 -26.14079,6.72192c0.29875,-4.18253 0,-10.15756 -0.89626,-17.02885c-2.83814,-23.60139 -10.90444,-57.36035 -14.19071,-63.48476c-4.3319,-7.91692 -23.90015,-12.54758 -39.13649,0c-4.03315,3.28627 -7.61817,16.58073 -9.11193,31.81707c-1.04563,10.75507 -1.04563,22.70514 0.74688,32.71333c1.34438,7.61817 -1.19501,14.04134 -0.89626,17.32761c-0.14938,0 -0.44813,0.14938 -0.74688,0.14938c-2.24064,0.5975 -14.04134,-9.11193 -15.98322,-8.36505c-1.79251,0.5975 6.27379,11.50195 4.63065,12.24883c-4.18253,1.79251 -8.36505,1.79251 -11.05382,4.18253c-1.49376,1.34438 -17.92511,1.64314 -18.82137,2.98752c-0.89626,1.34438 14.19071,5.82566 13.89196,7.31942c-0.14938,0.74688 -0.29875,1.49376 -0.29875,2.24064c0,0.44813 -0.5975,-0.89626 -0.5975,-0.44813c0,0.29875 -12.09945,3.13689 -12.09945,3.43565c0.14938,0.74688 13.89196,1.94189 14.19071,2.68877c0.5975,1.19501 0.74688,1.19501 1.79251,2.39001c1.34438,1.64314 -14.19071,9.70943 -11.8007,9.41068c1.04563,-0.14938 8.81318,-0.29875 16.28197,0.74688c1.19501,0.14938 7.17004,4.03315 8.21568,4.78003c2.53939,1.64314 8.21568,3.58502 10.15756,3.88377c9.56006,1.64314 16.58073,2.09126 34.80459,2.09126c18.07449,0 33.75896,-7.61817 44.96215,-12.84633c2.09126,-0.89626 8.81318,1.94189 10.60569,0.89626c1.64314,-1.04563 -1.79251,-6.12441 -0.5975,-7.31942c2.53939,-2.39001 4.18253,-4.92941 4.78003,-7.4688c0.29875,-2.24064 10.15756,-0.29875 10.00819,-1.04563c-0.14938,-1.49376 -10.90444,-6.57254 -11.95007,-8.0663z" class="st5"/>
    </g>
    <path fill="#84D3DB" stroke="null" id="svg_271" d="m166.49472,171.48578c1.49376,-0.44813 2.98752,-1.19501 4.3319,-1.94189c1.34438,-0.74688 2.53939,-1.79251 3.43565,-2.98752c0.44813,-0.5975 0.89626,-1.19501 1.19501,-1.94189c0.29875,-0.5975 0.5975,-1.34438 0.89626,-2.09126c0.44813,-1.49376 0.5975,-3.13689 0.74688,-4.63065c0.44813,1.64314 0.44813,3.28627 0.14938,4.92941c-0.29875,1.64314 -1.04563,3.28627 -2.09126,4.63065c-1.04563,1.34438 -2.53939,2.39001 -4.03315,2.98752c-1.34438,0.5975 -2.98752,1.04563 -4.63065,1.04563z" class="st22"/>
    <path fill="#84D3DB" stroke="null" id="svg_272" d="m256.5684,168.49826c-1.64314,0 -3.28627,-0.44813 -4.78003,-1.04563c-1.49376,-0.74688 -2.98752,-1.79251 -4.03315,-2.98752c-1.04563,-1.34438 -1.79251,-2.98752 -2.09126,-4.63065c-0.29875,-1.64314 -0.14938,-3.28627 0.14938,-4.92941c0.14938,1.64314 0.29875,3.28627 0.74688,4.63065c0.29875,0.74688 0.44813,1.49376 0.89626,2.09126c0.29875,0.74688 0.74688,1.34438 1.19501,1.94189c0.89626,1.19501 2.09126,2.24064 3.43565,2.98752c1.34438,0.89626 2.83814,1.49376 4.48128,1.94189z" class="st34"/>
    <path fill="#84D3DB" stroke="null" id="svg_273" d="m177.24979,153.56067c5.22816,-0.89626 10.45631,-1.49376 15.83385,-2.09126c5.22816,-0.5975 10.60569,-0.89626 15.83385,-1.19501c5.37753,-0.29875 10.60569,-0.29875 15.98322,-0.14938l4.03315,0.14938l4.03315,0.29875c1.34438,0.14938 2.68877,0.44813 3.88377,0.5975c1.34438,0.14938 2.53939,0.5975 3.88377,0.89626l-1.94189,-0.29875c-0.5975,-0.14938 -1.34438,-0.29875 -1.94189,-0.29875c-1.34438,-0.14938 -2.68877,-0.29875 -3.88377,-0.29875l-4.03315,-0.14938l-4.03315,0c-0.5975,0 -1.34438,0 -1.94189,0l-1.94189,0c-1.34438,0 -2.68877,0 -4.03315,0.14938l-4.03315,0.14938l-3.88377,0.29875c-5.22816,0.29875 -10.60569,0.5975 -15.83385,0.89626l-15.98322,1.04563z" class="st21"/>
    <ellipse fill="#84D3DB" stroke="null" id="svg_274" ry="8.21568" rx="14.63884" cy="156.39881" cx="212.35313" class="st29"/>
    <path fill="#84D3DB" stroke="null" id="svg_275" d="m172.76851,161.77634c-3.58502,-1.49376 -7.17004,-3.13689 -10.60569,-4.92941c-3.58502,-1.64314 -7.02067,-3.43565 -10.45631,-5.22816c-3.43565,-1.79251 -6.87129,-3.58502 -10.30694,-5.37753c-3.43565,-1.79251 -6.87129,-3.7344 -10.15756,-5.67628c3.58502,1.49376 7.17004,3.13689 10.60569,4.92941c3.58502,1.64314 7.02067,3.43565 10.45631,5.22816c3.43565,1.79251 6.87129,3.58502 10.30694,5.37753c3.43565,1.79251 6.87129,3.58502 10.15756,5.67628z"/>
    <path fill="#84D3DB" stroke="null" id="svg_276" d="m169.48224,168.49826c-4.03315,-0.44813 -8.0663,-1.04563 -12.24883,-1.64314c-4.03315,-0.5975 -8.0663,-1.34438 -12.09945,-2.09126c-4.03315,-0.74688 -8.0663,-1.49376 -12.09945,-2.24064c-4.03315,-0.74688 -8.0663,-1.64314 -11.95007,-2.68877c4.03315,0.44813 8.0663,1.04563 12.24883,1.64314c4.03315,0.5975 8.0663,1.34438 12.09945,2.09126c4.03315,0.74688 8.0663,1.49376 12.09945,2.24064c4.03315,0.74688 8.0663,1.64314 11.95007,2.68877z"/>
    <path fill="#84D3DB" stroke="null" id="svg_277" d="m170.37849,177.61019c-4.03315,0.29875 -7.91692,0.44813 -11.95007,0.44813c-4.03315,0.14938 -7.91692,0.14938 -11.95007,0.14938c-4.03315,0 -7.91692,0 -11.95007,-0.14938c-4.03315,-0.14938 -7.91692,-0.29875 -11.95007,-0.44813c4.03315,-0.29875 7.91692,-0.44813 11.95007,-0.44813c4.03315,-0.14938 7.91692,-0.14938 11.95007,-0.14938c4.03315,0 7.91692,0 11.95007,0.14938c3.88377,0.14938 7.91692,0.29875 11.95007,0.44813z"/>
    <path fill="#84D3DB" stroke="null" id="svg_278" d="m253.73025,159.5357c3.28627,-1.94189 6.72192,-3.88377 10.15756,-5.67628c3.43565,-1.79251 6.87129,-3.58502 10.30694,-5.37753c3.43565,-1.79251 7.02067,-3.43565 10.45631,-5.22816c3.43565,-1.64314 7.02067,-3.28627 10.60569,-4.92941c-3.28627,1.94189 -6.72192,3.88377 -10.15756,5.67628c-3.43565,1.79251 -6.87129,3.58502 -10.30694,5.37753c-3.43565,1.79251 -7.02067,3.43565 -10.45631,5.22816c-3.58502,1.64314 -7.02067,3.28627 -10.60569,4.92941z"/>
    <path fill="#84D3DB" stroke="null" id="svg_279" d="m257.01652,166.25762c4.03315,-0.89626 7.91692,-1.79251 11.95007,-2.68877c4.03315,-0.74688 8.0663,-1.49376 12.09945,-2.24064c4.03315,-0.74688 8.0663,-1.34438 12.09945,-2.09126c4.03315,-0.5975 8.0663,-1.19501 12.24883,-1.64314c-4.03315,0.89626 -7.91692,1.79251 -11.95007,2.68877c-4.03315,0.74688 -8.0663,1.49376 -12.09945,2.24064c-4.03315,0.74688 -8.0663,1.34438 -12.09945,2.09126c-4.18253,0.5975 -8.21568,1.04563 -12.24883,1.64314z"/>
    <path fill="#84D3DB" stroke="null" id="svg_280" d="m256.12027,175.36955c4.03315,-0.29875 7.91692,-0.44813 11.95007,-0.44813c4.03315,-0.14938 7.91692,-0.14938 11.95007,-0.14938c4.03315,0 7.91692,0 11.95007,0.14938c4.03315,0.14938 7.91692,0.29875 11.95007,0.44813c-4.03315,0.29875 -7.91692,0.44813 -11.95007,0.44813c-4.03315,0.14938 -7.91692,0.14938 -11.95007,0.14938c-4.03315,0 -7.91692,0 -11.95007,-0.14938c-3.88377,0 -7.91692,-0.14938 -11.95007,-0.44813z"/>
   </g>
   <g stroke="null" id="svg_281">
    <polygon fill="#84D3DB" stroke="null" id="svg_282" points="270.16162109375,280.38086700439453 285.5473327636719,211.96662139892578 281.9623107910156,212.7135238647461 279.7216491699219,206.73848724365234 275.9872741699219,210.62224578857422 238.64328002929688,197.62654876708984 234.9088897705078,213.9085464477539 269.11602783203125,222.57231903076172 259.40655517578125,271.56763458251953 " class="st5"/>
    <g stroke="null" id="svg_283">
     <ellipse fill="#84D3DB" stroke="null" id="svg_284" ry="8" rx="3.1" cy="43.81177" cx="440.58919" class="st19" transform="matrix(0.614234 -1.36156 1.36156 0.614234 -64.1291 845.571)"/>
     <path fill="#84D3DB" stroke="null" id="svg_285" d="m277.0329,277.3933c-0.29875,0.5975 -0.74688,0.89626 -1.19501,1.19501c-0.44813,0.29875 -1.04563,0.29875 -1.64314,0.44813c-1.19501,0.14938 -2.24064,0 -3.43565,-0.14938c-2.24064,-0.29875 -4.48128,-1.04563 -6.57254,-1.94189c-2.09126,-0.89626 -4.18253,-2.09126 -5.97504,-3.43565c-0.89626,-0.74688 -1.79251,-1.49376 -2.39001,-2.53939c-0.29875,-0.44813 -0.5975,-1.04563 -0.89626,-1.64314c-0.14938,-0.5975 -0.29875,-1.19501 0,-1.94189c0.29875,-0.5975 0.89626,-1.04563 1.34438,-1.19501c0.5975,-0.29875 1.19501,-0.29875 1.79251,-0.44813c1.19501,-0.14938 2.39001,0 3.43565,0.14938c2.24064,0.44813 4.48128,1.19501 6.57254,2.09126c2.09126,1.04563 4.03315,2.24064 5.82566,3.58502c0.89626,0.74688 1.64314,1.49376 2.39001,2.53939c0.29875,0.44813 0.5975,0.89626 0.74688,1.49376c0.14938,0.74688 0.14938,1.34438 0,1.79251zm0,0c0.29875,-0.5975 0.14938,-1.19501 0,-1.64314c-0.14938,-0.5975 -0.44813,-1.04563 -0.74688,-1.49376c-0.5975,-0.89626 -1.49376,-1.64314 -2.39001,-2.39001c-1.79251,-1.34438 -3.7344,-2.53939 -5.82566,-3.43565c-2.09126,-0.89626 -4.18253,-1.49376 -6.42316,-1.94189c-1.04563,-0.14938 -2.24064,-0.29875 -3.28627,-0.14938c-1.04563,0.14938 -2.24064,0.44813 -2.68877,1.34438c-0.44813,0.89626 0.14938,1.94189 0.74688,2.83814c0.5975,0.89626 1.49376,1.64314 2.24064,2.39001c1.79251,1.49376 3.7344,2.68877 5.67628,3.58502c2.09126,0.89626 4.18253,1.79251 6.42316,2.09126c1.04563,0.14938 2.24064,0.29875 3.43565,0.14938c0.5975,-0.14938 1.19501,-0.14938 1.64314,-0.44813c0.44813,0 0.89626,-0.29875 1.19501,-0.89626z" class="st20"/>
    </g>
    <g stroke="null" id="svg_286">
     <g stroke="null" id="svg_287">
      <ellipse fill="#84D3DB" stroke="null" id="svg_288" ry="3.2" rx="6" cy="57.35682" cx="427.27708" class="st35" transform="matrix(0.74688 -1.2936 1.2936 0.74688 -108.798 800.342)"/>
      <path fill="#84D3DB" stroke="null" id="svg_289" d="m281.51417,298.60468c-0.5975,0 -1.04563,-0.14938 -1.49376,-0.44813c-2.39001,-1.34438 -2.24064,-5.97504 0.29875,-10.15756c2.53939,-4.3319 6.42316,-6.72192 8.6638,-5.37753c1.19501,0.5975 1.79251,2.09126 1.64314,4.03315c0,1.94189 -0.74688,4.18253 -1.94189,6.12441l0,0c-1.94189,3.58502 -4.92941,5.82566 -7.17004,5.82566zm6.12441,-16.28197c-2.24064,0 -5.07878,2.24064 -7.17004,5.67628c-2.39001,4.18253 -2.53939,8.6638 -0.29875,10.00819c2.24064,1.34438 6.12441,-1.04563 8.51443,-5.22816l0,0c1.19501,-2.09126 1.79251,-4.18253 1.94189,-6.12441c0,-1.94189 -0.44813,-3.28627 -1.64314,-3.88377c-0.44813,-0.29875 -0.89626,-0.44813 -1.34438,-0.44813z" class="st20"/>
     </g>
     <g stroke="null" id="svg_290">
      <ellipse fill="#84D3DB" stroke="null" id="svg_291" ry="3.2" rx="6" cy="56.05682" cx="422.67708" class="st35" transform="matrix(0.74688 -1.2936 1.2936 0.74688 -110.582 793.298)"/>
      <path fill="#84D3DB" stroke="null" id="svg_292" d="m274.49351,296.51342c-0.5975,0 -1.04563,-0.14938 -1.49376,-0.44813c-2.39001,-1.34438 -2.24064,-5.97504 0.29875,-10.15756c1.19501,-2.09126 2.68877,-3.7344 4.3319,-4.78003c1.64314,-1.04563 3.13689,-1.19501 4.3319,-0.5975c1.19501,0.5975 1.79251,2.09126 1.64314,4.03315c0,1.94189 -0.74688,4.18253 -1.94189,6.12441l0,0c-1.19501,2.09126 -2.68877,3.7344 -4.3319,4.78003c-0.89626,0.74688 -1.94189,1.04563 -2.83814,1.04563zm6.12441,-16.1326c-0.89626,0 -1.79251,0.29875 -2.68877,0.89626c-1.64314,1.04563 -3.13689,2.68877 -4.3319,4.78003c-2.39001,4.18253 -2.53939,8.6638 -0.29875,10.00819c1.04563,0.5975 2.53939,0.44813 4.18253,-0.5975c1.64314,-1.04563 3.13689,-2.68877 4.3319,-4.78003l0,0c1.19501,-2.09126 1.79251,-4.18253 1.94189,-6.12441c0,-1.94189 -0.44813,-3.28627 -1.64314,-3.88377c-0.5975,-0.14938 -1.04563,-0.29875 -1.49376,-0.29875z" class="st20"/>
     </g>
    </g>
    <path fill="#84D3DB" stroke="null" id="svg_293" d="m257.1659,270.22326c0,0 18.07449,2.24064 21.80888,17.47698c3.7344,15.23634 10.45631,-0.14938 11.95007,-2.53939s7.4688,-2.09126 5.67628,4.48128c-1.79251,6.57254 -10.30694,21.51013 -16.87948,17.32761c-6.72192,-4.18253 -36.89585,-20.16575 -22.55576,-36.74648z" class="st19"/>
    <g stroke="null" id="svg_294">
     <path fill="#84D3DB" stroke="null" id="svg_295" d="m254.32776,274.55516c0,0 0.5975,-11.05382 17.32761,1.94189c6.72192,5.52691 6.27379,8.51443 6.27379,8.51443" class="st19"/>
     <path fill="#84D3DB" stroke="null" id="svg_296" d="m254.32776,274.55516c0,-0.74688 0.14938,-1.34438 0.44813,-1.94189c0.29875,-0.5975 0.74688,-1.19501 1.19501,-1.64314c1.04563,-0.89626 2.68877,-1.04563 4.03315,-0.89626c1.34438,0.14938 2.68877,0.5975 3.88377,1.19501c1.19501,0.5975 2.39001,1.19501 3.58502,1.94189c1.19501,0.74688 2.24064,1.49376 3.28627,2.39001c1.04563,0.74688 2.09126,1.64314 3.13689,2.68877c0.89626,0.89626 1.94189,1.94189 2.68877,3.13689c0.44813,0.5975 0.74688,1.19501 1.04563,1.79251c0.29875,0.5975 0.44813,1.34438 0.44813,1.94189c0,-0.74688 -0.29875,-1.34438 -0.5975,-1.94189c-0.29875,-0.5975 -0.74688,-1.19501 -1.04563,-1.64314c-0.74688,-1.04563 -1.79251,-2.09126 -2.68877,-2.98752c-1.94189,-1.79251 -4.18253,-3.43565 -6.42316,-4.78003c-2.24064,-1.34438 -4.63065,-2.68877 -7.31942,-3.13689c-1.34438,-0.14938 -2.68877,-0.14938 -3.7344,0.5975c-1.19501,0.5975 -1.79251,1.94189 -1.94189,3.28627z" class="st20"/>
    </g>
   </g>
   <g stroke="null" id="right-arm-waving1">
    <polygon fill="#84D3DB" stroke="null" id="svg_297" points="109.43310546875,197.9253158569336 156.6359100341797,251.99939727783203 157.0840606689453,258.42252349853516 160.22091674804688,255.88312530517578 164.5528564453125,259.02005767822266 165.7478485107422,251.40186309814453 172.91787719726562,253.79187774658203 173.51541137695312,245.87499237060547 194.57737731933594,228.6967544555664 193.68115234375,200.46468353271484 161.1171875,236.6136703491211 124.52008056640625,193.8921890258789 " class="st5"/>
    <g stroke="null" id="svg_298">
     <ellipse fill="#84D3DB" stroke="null" id="svg_299" ry="4.5" rx="13.8" cy="30.135" cx="216.43456" class="st19" transform="matrix(1.20576 -0.881617 0.881617 1.20576 -167.572 354.023)"/>
     <path fill="#84D3DB" stroke="null" id="svg_300" d="m107.78998,206.43974c0,0 -45.11153,-27.9333 -42.27338,-50.19031c2.83814,-22.25701 21.062,15.83385 21.062,15.83385s-20.01637,-31.96645 -10.60569,-34.50584s24.34827,26.73829 24.34827,26.73829s-20.4645,-31.66769 -11.05382,-33.60958s21.65951,28.97893 21.65951,28.97893s-1.94189,-12.54758 8.96255,-14.19071s7.61817,31.36894 7.61817,31.36894l0.44813,15.98322l-20.16575,13.59321z" class="st19"/>
    </g>
    <path fill="#84D3DB" stroke="null" id="svg_301" d="m95.39178,188.36525c1.04563,-1.94189 2.39001,-3.7344 3.88377,-5.37753c1.49376,-1.64314 3.13689,-3.13689 4.92941,-4.48128c1.79251,-1.34438 3.88377,-2.39001 6.12441,-2.98752c1.04563,-0.29875 2.24064,-0.29875 3.43565,-0.14938c1.19501,0.14938 2.24064,0.5975 3.13689,1.19501c-2.09126,-0.74688 -4.3319,-0.74688 -6.27379,0c-1.94189,0.5975 -3.88377,1.79251 -5.52691,2.98752c-0.89626,0.5975 -1.64314,1.34438 -2.53939,1.94189c-0.89626,0.74688 -1.64314,1.49376 -2.39001,2.24064c-1.79251,1.49376 -3.28627,3.13689 -4.78003,4.63065z" class="st20"/>
    <path fill="#84D3DB" stroke="null" id="svg_302" d="m77.9148,156.84694c1.49376,1.79251 2.83814,3.58502 4.3319,5.52691c1.34438,1.94189 2.68877,3.7344 4.03315,5.67628c1.34438,1.94189 2.53939,3.88377 3.7344,5.82566c1.19501,1.94189 2.39001,4.03315 3.43565,6.12441c-1.49376,-1.79251 -2.83814,-3.58502 -4.3319,-5.52691c-1.34438,-1.94189 -2.68877,-3.7344 -4.03315,-5.67628c-1.34438,-1.94189 -2.53939,-3.88377 -3.7344,-5.82566c-1.19501,-2.09126 -2.39001,-4.03315 -3.43565,-6.12441z" class="st20"/>
    <path fill="#84D3DB" stroke="null" id="svg_303" d="m91.80676,149.07939c1.34438,1.64314 2.39001,3.43565 3.58502,5.07878c1.19501,1.79251 2.24064,3.58502 3.28627,5.37753c1.04563,1.79251 2.09126,3.58502 3.13689,5.37753c1.04563,1.79251 1.94189,3.7344 2.83814,5.67628c-1.34438,-1.64314 -2.53939,-3.43565 -3.58502,-5.07878c-1.19501,-1.79251 -2.24064,-3.58502 -3.28627,-5.37753c-1.04563,-1.79251 -2.09126,-3.58502 -3.13689,-5.37753c-1.04563,-1.94189 -1.94189,-3.7344 -2.83814,-5.67628z" class="st20"/>
    <path fill="#84D3DB" stroke="null" id="svg_304" d="m110.92688,159.83445c0,0.5975 0,1.04563 0.14938,1.64314c0.14938,0.5975 0.14938,1.04563 0.29875,1.64314c0.29875,1.04563 0.5975,2.09126 1.04563,2.98752c0.44813,1.04563 0.89626,1.94189 1.34438,2.98752c0.29875,0.44813 0.44813,1.04563 0.74688,1.49376c0.29875,0.44813 0.44813,1.04563 0.74688,1.49376c-0.44813,-0.29875 -0.89626,-0.74688 -1.19501,-1.19501c-0.44813,-0.44813 -0.74688,-0.89626 -1.04563,-1.34438c-0.5975,-0.89626 -1.19501,-1.94189 -1.64314,-2.98752c-0.44813,-1.04563 -0.74688,-2.24064 -0.89626,-3.28627c0,-0.29875 0,-0.5975 0,-0.89626c0,-0.29875 0,-0.5975 0,-0.89626c0.14938,-0.5975 0.29875,-1.19501 0.44813,-1.64314z" class="st20"/>
    <path fill="#84D3DB" stroke="null" id="svg_305" d="m105.25059,204.49785c2.39001,-0.89626 4.63065,-1.94189 6.87129,-2.98752c2.24064,-1.04563 4.48128,-2.09126 6.57254,-3.43565c1.04563,-0.5975 2.09126,-1.34438 3.13689,-1.94189c1.04563,-0.74688 1.94189,-1.49376 2.83814,-2.39001c1.79251,-1.64314 3.13689,-3.7344 3.28627,-6.42316c0.14938,1.19501 0,2.53939 -0.44813,3.7344c-0.44813,1.19501 -1.19501,2.24064 -2.09126,3.28627c-1.64314,1.94189 -3.88377,3.43565 -5.97504,4.78003c-1.04563,0.5975 -2.24064,1.19501 -3.43565,1.79251c-1.19501,0.44813 -2.39001,1.04563 -3.43565,1.49376c-2.39001,0.89626 -4.78003,1.64314 -7.31942,2.09126z" class="st20"/>
   </g>
   <g stroke="null" id="right-arm-waving2">
    <polygon fill="#84D3DB" stroke="null" id="svg_306" points="109.58250427246094,233.17803192138672 174.41165161132812,263.8001174926758 177.39913940429688,269.47635650634766 179.19168090820312,266.0407180786133 184.41983032226562,267.0863723754883 182.62730407714844,259.6175308227539 190.0961151123047,259.02005767822266 187.55670166015625,251.40186309814453 199.8055419921875,227.35236358642578 187.85545349121094,201.6596908569336 172.46975708007812,247.96623992919922 121.68195343017578,223.31922149658203 " class="st5"/>
    <g stroke="null" id="svg_307">
     <ellipse fill="#84D3DB" stroke="null" id="svg_308" ry="4.5" rx="13.8" cy="17.38875" cx="315.95541" class="st19" transform="matrix(0.752556 -1.29031 1.29031 0.752556 -140.324 625.06)"/>
     <path fill="#84D3DB" stroke="null" id="svg_309" d="m111.52438,241.54308c0,0 -52.43095,-7.61817 -58.85411,-29.1283c-6.42316,-21.51013 25.69266,5.97504 25.69266,5.97504s-31.07019,-21.21138 -23.45202,-27.33579c7.61817,-6.12441 33.01208,14.78822 33.01208,14.78822s-31.51832,-20.91263 -23.60139,-26.29016c7.91692,-5.37753 31.36894,17.92511 31.36894,17.92511s-6.72192,-10.75507 2.53939,-16.58073s19.56824,25.69266 19.56824,25.69266l6.87129,14.48946l-13.14508,20.4645z" class="st19"/>
    </g>
    <path fill="#84D3DB" stroke="null" id="svg_310" d="m92.85239,230.04113c0.29875,-2.24064 0.74688,-4.3319 1.49376,-6.42316c0.74688,-2.09126 1.49376,-4.18253 2.68877,-6.12441c1.19501,-1.94189 2.53939,-3.7344 4.3319,-5.07878c0.89626,-0.74688 1.94189,-1.19501 2.98752,-1.49376c1.04563,-0.29875 2.24064,-0.44813 3.28627,-0.14938c-2.24064,0.14938 -4.18253,1.04563 -5.82566,2.53939c-1.49376,1.34438 -2.83814,3.13689 -3.88377,4.92941c-0.5975,0.89626 -1.04563,1.94189 -1.49376,2.83814c-0.44813,0.89626 -0.89626,1.94189 -1.34438,2.98752c-0.74688,1.79251 -1.49376,3.88377 -2.24064,5.97504z" class="st20"/>
    <path fill="#84D3DB" stroke="null" id="svg_311" d="m64.17222,208.08288c2.09126,1.04563 4.18253,2.24064 6.12441,3.28627c1.94189,1.19501 4.03315,2.39001 5.97504,3.58502c1.94189,1.19501 3.88377,2.53939 5.82566,3.88377c1.94189,1.34438 3.7344,2.68877 5.67628,4.18253c-2.09126,-1.04563 -4.18253,-2.24064 -6.12441,-3.28627c-1.94189,-1.19501 -4.03315,-2.39001 -5.97504,-3.58502c-1.94189,-1.19501 -3.88377,-2.53939 -5.82566,-3.88377c-1.94189,-1.34438 -3.88377,-2.68877 -5.67628,-4.18253z" class="st20"/>
    <path fill="#84D3DB" stroke="null" id="svg_312" d="m73.73228,195.38592c1.79251,1.04563 3.58502,2.09126 5.37753,3.28627c1.79251,1.19501 3.43565,2.39001 5.07878,3.58502c1.64314,1.19501 3.28627,2.53939 4.92941,3.7344c1.64314,1.34438 3.28627,2.68877 4.78003,4.03315c-1.79251,-1.04563 -3.58502,-2.09126 -5.37753,-3.28627c-1.79251,-1.19501 -3.43565,-2.39001 -5.07878,-3.58502c-1.64314,-1.19501 -3.28627,-2.53939 -4.92941,-3.7344c-1.49376,-1.34438 -3.13689,-2.53939 -4.78003,-4.03315z" class="st20"/>
    <path fill="#84D3DB" stroke="null" id="svg_313" d="m95.69054,197.47719c0.14938,0.5975 0.44813,1.04563 0.74688,1.49376c0.29875,0.44813 0.5975,0.89626 0.89626,1.34438c0.5975,0.89626 1.34438,1.64314 2.24064,2.39001c0.74688,0.74688 1.64314,1.49376 2.39001,2.09126c0.44813,0.29875 0.89626,0.74688 1.34438,1.04563c0.44813,0.29875 0.89626,0.74688 1.34438,1.04563c-0.5975,-0.14938 -1.04563,-0.29875 -1.64314,-0.5975c-0.44813,-0.29875 -1.04563,-0.44813 -1.49376,-0.74688c-0.89626,-0.5975 -1.94189,-1.19501 -2.68877,-2.09126c-0.89626,-0.74688 -1.64314,-1.64314 -2.09126,-2.68877c-0.14938,-0.29875 -0.29875,-0.44813 -0.44813,-0.74688c-0.14938,-0.29875 -0.14938,-0.5975 -0.29875,-0.74688c-0.29875,-0.5975 -0.29875,-1.19501 -0.29875,-1.79251z" class="st20"/>
    <path fill="#84D3DB" stroke="null" id="svg_314" d="m108.38749,240.7962c1.79251,-1.79251 3.43565,-3.58502 5.07878,-5.52691c1.64314,-1.79251 3.28627,-3.7344 4.78003,-5.82566c0.74688,-1.04563 1.34438,-2.09126 2.09126,-3.13689c0.5975,-1.04563 1.19501,-2.09126 1.64314,-3.28627c0.89626,-2.24064 1.34438,-4.78003 0.44813,-7.17004c0.74688,1.04563 1.04563,2.39001 1.04563,3.7344c0,1.34438 -0.29875,2.53939 -0.5975,3.88377c-0.74688,2.53939 -2.09126,4.63065 -3.58502,6.72192c-0.74688,1.04563 -1.49376,1.94189 -2.39001,2.98752c-0.89626,0.89626 -1.64314,1.94189 -2.68877,2.68877c-1.79251,1.94189 -3.7344,3.58502 -5.82566,4.92941z" class="st20"/>
   </g>
   <g stroke="null" id="svg_315">
    <path fill="#84D3DB" stroke="null" id="svg_316" d="m293.91238,102.4741c0,0 -27.48517,-51.83344 -36.14897,-48.54717s-26.88766,33.31083 -26.88766,33.31083l0,-22.40639c0,0 2.09126,-36.74648 31.07019,-29.1283c29.1283,7.4688 49.44343,65.42665 31.96645,66.77103z" class="st26"/>
    <path fill="#84D3DB" stroke="null" id="svg_317" d="m223.55632,83.95149c0,0 0.29875,-90.82056 64.5304,-57.0616s19.867,84.54677 4.92941,74.38921c-4.92941,-3.43565 4.92941,-48.84592 -31.51832,-54.67159c-18.97074,-2.98752 -31.07019,45.41028 -31.07019,45.41028l-6.87129,-8.0663z" class="st5"/>
   </g>
   <path fill="#84D3DB" stroke="null" id="svg_318" d="m177.54854,166.85512" class="st36"/>
   <g stroke="null" id="svg_319">
    <path fill="#84D3DB" stroke="null" id="svg_320" d="m116.30441,98.59033c0,0 27.48517,-51.83344 36.14897,-48.54717s26.88766,33.31083 26.88766,33.31083l0,-22.40639c0,0 -2.09126,-36.74648 -31.07019,-29.1283c-29.1283,7.4688 -49.44343,65.57603 -31.96645,66.77103z" class="st26"/>
    <path fill="#84D3DB" stroke="null" id="svg_321" d="m186.66047,80.21709c0,0 -0.29875,-90.82056 -64.5304,-57.0616s-19.867,84.54677 -4.92941,74.38921c4.92941,-3.43565 -4.92941,-48.84592 31.51832,-54.67159c18.97074,-2.98752 31.07019,45.41028 31.07019,45.41028l6.87129,-8.0663z" class="st5"/>
   </g>
   <g stroke="null" id="svg_322">
    <path fill="#84D3DB" stroke="null" id="svg_323" d="m280.91667,330.86988c0,0 72.5967,38.98711 70.35606,47.50154c-2.09126,8.51443 -107.84941,2.53939 -107.84941,2.53939s-19.56824,-23.45202 -5.52691,-30.47269s43.02026,-19.56824 43.02026,-19.56824z" class="st5"/>
    <path fill="#84D3DB" stroke="null" id="svg_324" d="m301.97868,367.76573c1.79251,0.74688 3.58502,1.79251 5.22816,2.68877c1.64314,1.04563 3.28627,2.09126 4.92941,3.28627c1.49376,1.19501 3.13689,2.53939 4.18253,4.18253c0.29875,0.44813 0.5975,0.89626 0.74688,1.34438c0.14938,0.14938 0.14938,0.44813 0.29875,0.74688c0,0.29875 0.14938,0.44813 0.14938,0.74688c0,0.29875 0,0.44813 -0.14938,0.74688c0,0.29875 -0.29875,0.44813 -0.29875,0.5975c-0.14938,0.14938 -0.29875,0.29875 -0.5975,0.5975l-0.5975,0.44813l0.5975,-0.44813c0.14938,-0.14938 0.29875,-0.29875 0.44813,-0.5975c0.14938,-0.14938 0.29875,-0.44813 0.29875,-0.5975c0.14938,-0.14938 0,-0.44813 0,-0.74688c0,-0.89626 -0.5975,-1.79251 -1.19501,-2.53939c-0.5975,-0.74688 -1.34438,-1.49376 -1.94189,-2.09126c-0.74688,-0.5975 -1.49376,-1.34438 -2.24064,-1.79251c-1.49376,-1.19501 -3.13689,-2.24064 -4.78003,-3.43565c-0.74688,-0.5975 -1.64314,-1.04563 -2.53939,-1.64314c-0.89626,-0.5975 -1.64314,-1.04563 -2.53939,-1.49376z"/>
    <path fill="#84D3DB" stroke="null" id="svg_325" d="m321.6963,365.22634c1.94189,0.89626 3.88377,1.94189 5.67628,3.13689c1.79251,1.19501 3.58502,2.39001 5.22816,3.88377c1.64314,1.49376 3.13689,2.98752 4.18253,4.92941c0.44813,1.04563 0.89626,2.09126 0.74688,3.13689c-0.14938,1.19501 -0.74688,2.09126 -1.64314,2.68877c0.74688,-0.74688 1.34438,-1.79251 1.34438,-2.83814c0,-1.04563 -0.29875,-2.09126 -0.89626,-2.98752c-1.04563,-1.79251 -2.68877,-3.28627 -4.18253,-4.63065c-1.64314,-1.34438 -3.28627,-2.68877 -5.07878,-3.88377c-0.89626,-0.5975 -1.79251,-1.19501 -2.68877,-1.79251c-0.89626,-0.5975 -1.79251,-1.04563 -2.68877,-1.64314z"/>
   </g>
   <g stroke="null" id="svg_326">
    <path fill="#84D3DB" stroke="null" id="svg_327" d="m159.7728,330.86988c0,0 -72.5967,38.98711 -70.35606,47.50154c2.09126,8.51443 107.84941,2.53939 107.84941,2.53939s19.56824,-23.45202 5.52691,-30.47269s-43.02026,-19.56824 -43.02026,-19.56824z" class="st5"/>
    <path fill="#84D3DB" stroke="null" id="svg_328" d="m137.66517,366.86947c-0.89626,0.44813 -1.64314,1.04563 -2.53939,1.49376c-0.89626,0.44813 -1.64314,1.04563 -2.53939,1.64314c-1.64314,1.04563 -3.28627,2.24064 -4.78003,3.43565c-0.74688,0.5975 -1.49376,1.19501 -2.24064,1.79251c-0.74688,0.5975 -1.34438,1.34438 -1.94189,2.09126c-0.5975,0.74688 -1.19501,1.64314 -1.19501,2.53939c0,0.29875 0,0.44813 0,0.74688c0,0.29875 0.14938,0.44813 0.29875,0.5975c0.14938,0.14938 0.29875,0.29875 0.44813,0.5975l0.5975,0.44813l-0.5975,-0.44813c-0.14938,-0.14938 -0.44813,-0.29875 -0.5975,-0.5975c-0.14938,-0.14938 -0.29875,-0.44813 -0.29875,-0.5975c-0.14938,-0.29875 -0.14938,-0.44813 -0.14938,-0.74688c0,-0.29875 0,-0.44813 0.14938,-0.74688c0.14938,-0.29875 0.14938,-0.44813 0.29875,-0.74688c0.14938,-0.44813 0.44813,-0.89626 0.74688,-1.34438c1.19501,-1.64314 2.68877,-2.98752 4.18253,-4.18253c1.64314,-1.19501 3.28627,-2.24064 4.92941,-3.28627c1.79251,-0.89626 3.43565,-1.79251 5.22816,-2.68877z"/>
    <path fill="#84D3DB" stroke="null" id="svg_329" d="m117.94755,364.47946c-0.89626,0.5975 -1.79251,1.19501 -2.68877,1.79251c-0.89626,0.5975 -1.79251,1.19501 -2.68877,1.79251c-1.79251,1.19501 -3.43565,2.53939 -5.07878,3.88377c-1.64314,1.34438 -3.13689,2.83814 -4.18253,4.63065c-0.44813,0.89626 -0.89626,1.94189 -0.89626,2.98752c0,1.04563 0.5975,1.94189 1.34438,2.83814c-0.89626,-0.5975 -1.49376,-1.64314 -1.64314,-2.68877c-0.14938,-1.04563 0.29875,-2.24064 0.74688,-3.13689c1.04563,-1.94189 2.68877,-3.58502 4.18253,-4.92941c1.64314,-1.34438 3.43565,-2.68877 5.22816,-3.88377c1.79251,-1.34438 3.7344,-2.39001 5.67628,-3.28627z"/>
   </g>
   <path fill="#84D3DB" stroke="null" id="svg_330" d="m194.12926,212.41478c-7.17004,22.10764 0.44813,121.44262 0.44813,121.44262l44.81277,-35.85022l-3.13689,-102.77063c0,0 -34.95396,-4.92941 -42.12401,17.17823z" class="st5"/>
   <g stroke="null" id="svg_331">
    <path fill="#84D3DB" stroke="null" id="svg_332" d="m154.09652,332.81177c0,0 1.04563,-21.80888 21.80888,-39.58462c7.76755,-6.72192 8.51443,-20.01637 12.09945,-34.50584c1.64314,-6.72192 3.88377,-16.1326 4.92941,-22.70514c2.39001,-16.7301 6.42316,-28.38142 6.42316,-28.38142l32.56395,-2.68877c0,0 6.87129,64.08227 18.82137,76.62984c11.8007,12.3982 46.60529,53.3272 32.56395,59.60099s-44.21527,23.75077 -62.14038,22.55576c-27.48517,-1.64314 -67.06979,-30.92081 -67.06979,-30.92081z" class="st17"/>
    <g stroke="null" id="svg_333">
     <g stroke="null" id="svg_334">
      <path fill="#84D3DB" stroke="null" id="svg_335" d="m204.58558,219.88357c0,0 -18.52261,52.43095 -7.31942,53.3272c11.20319,0.89626 17.17823,-51.98282 16.58073,-53.3272s-9.26131,0 -9.26131,0z" class="st18"/>
      <path fill="#84D3DB" stroke="null" id="svg_336" d="m228.48572,219.88357c0,0 18.52261,52.43095 7.31942,53.3272c-11.20319,0.89626 -17.17823,-51.98282 -16.58073,-53.3272s9.26131,0 9.26131,0z" class="st18"/>
      <path fill="#84D3DB" stroke="null" id="svg_337" d="m217.88003,213.31103c-0.29875,-1.64314 -1.64314,-2.98752 -3.43565,-4.03315c1.34438,-1.19501 2.24064,-2.68877 2.24064,-4.3319c0,-4.3319 -5.97504,-7.91692 -13.44383,-7.91692s-13.44383,3.58502 -13.44383,7.91692c0,2.68877 2.24064,5.07878 5.67628,6.42316c-2.98752,2.09126 -4.48128,4.78003 -4.03315,7.31942c0.89626,4.3319 7.4688,6.57254 14.78822,5.07878s12.54758,-6.12441 11.65132,-10.45631z" class="st23"/>
      <path fill="#84D3DB" stroke="null" id="svg_338" d="m215.78877,213.90854c0,-1.64314 1.04563,-3.28627 2.68877,-4.48128c-1.64314,-1.04563 -2.68877,-2.39001 -2.83814,-3.88377c-0.74688,-4.3319 4.63065,-8.81318 12.09945,-10.00819c7.31942,-1.19501 13.89196,1.34438 14.63884,5.67628c0.44813,2.68877 -1.49376,5.37753 -4.63065,7.31942c3.28627,1.64314 5.22816,3.88377 5.07878,6.57254c-0.14938,4.3319 -6.42316,7.61817 -13.74258,7.31942c-7.4688,-0.29875 -13.44383,-4.18253 -13.29446,-8.51443z" class="st23"/>
      <ellipse fill="#84D3DB" stroke="null" id="svg_339" ry="8.96255" rx="7.76755" cy="210.32351" cx="216.38628" class="st24"/>
      <circle fill="#84D3DB" stroke="null" id="svg_340" r="3.7344" cy="205.09536" cx="201.00056" class="st25"/>
      <circle fill="#84D3DB" stroke="null" id="svg_341" r="3.7344" cy="214.35666" cx="203.8387" class="st25"/>
      <circle fill="#84D3DB" stroke="null" id="svg_342" r="3.7344" cy="202.85472" cx="230.12886" class="st25"/>
      <circle fill="#84D3DB" stroke="null" id="svg_343" r="3.7344" cy="214.35666" cx="231.77199" class="st25"/>
     </g>
     <circle fill="#84D3DB" stroke="null" id="svg_344" r="3.7344" cy="254.98691" cx="200.7018" class="st25"/>
     <circle fill="#84D3DB" stroke="null" id="svg_345" r="3.7344" cy="254.98691" cx="231.47324" class="st25"/>
    </g>
    <path fill="#84D3DB" stroke="null" id="svg_346" d="m156.93466,331.76613c0,0 -9.56006,5.67628 -6.87129,8.36505s52.28157,30.47269 67.66729,26.88766c15.38572,-3.43565 -4.63065,-11.50195 -4.63065,-11.50195s-43.02026,-22.85452 -56.16534,-23.75077z" class="st18"/>
    <path fill="#84D3DB" stroke="null" id="svg_347" d="m287.19046,331.76613c0,0 10.00819,6.12441 7.17004,8.81318c-2.83814,2.83814 -48.24842,31.36894 -64.23164,27.63454c-15.83385,-3.7344 -12.24883,-9.26131 -12.24883,-9.26131s55.71722,-26.29016 69.31042,-27.18642z" class="st18"/>
    <path fill="#84D3DB" stroke="null" id="svg_348" d="m219.67255,363.88196c-0.5975,-3.7344 -0.89626,-7.61817 -1.19501,-11.35257c-0.29875,-3.7344 -0.44813,-7.61817 -0.44813,-11.35257c0,-3.7344 -0.14938,-7.61817 0,-11.35257c0,-1.94189 0.14938,-3.7344 0.14938,-5.67628l0.14938,-2.83814l0,-1.49376l0,-0.74688l0,-0.29875c0,-0.14938 0,-0.29875 0,-0.29875c0.14938,0.14938 0.14938,0.44813 0.29875,0.5975l0.14938,0.74688l0.29875,1.34438c0.14938,0.89626 0.29875,1.94189 0.44813,2.83814c0.14938,1.94189 0.44813,3.7344 0.5975,5.67628c0.29875,3.7344 0.44813,7.61817 0.5975,11.35257c0,3.7344 0,7.61817 -0.14938,11.35257c-0.14938,3.88377 -0.44813,7.76755 -0.89626,11.50195z" class="st18"/>
    <path fill="#84D3DB" stroke="null" id="svg_349" d="m201.00056,310.40538c2.53939,1.79251 5.22816,3.28627 8.0663,4.48128c2.83814,1.19501 5.82566,2.09126 8.81318,2.39001c2.98752,0.44813 5.97504,0.29875 9.11193,-0.29875c2.98752,-0.5975 5.97504,-1.64314 8.81318,-2.83814c-2.53939,1.94189 -5.37753,3.43565 -8.51443,4.3319c-1.49376,0.44813 -3.13689,0.74688 -4.78003,0.89626c-1.64314,0.14938 -3.28627,0 -4.78003,-0.14938c-1.64314,-0.14938 -3.13689,-0.5975 -4.78003,-1.04563c-1.49376,-0.44813 -2.98752,-1.04563 -4.48128,-1.94189c-2.68877,-1.49376 -5.37753,-3.28627 -7.4688,-5.82566z" class="st18"/>
   </g>
   <g stroke="null" id="svg_350">
    <path fill="#84D3DB" stroke="null" id="svg_351" d="m174.11289,166.85512l77.07797,0c0,0 -9.85881,27.63454 -35.9996,27.63454c-36.14897,-0.14938 -41.07838,-27.63454 -41.07838,-27.63454z" class="st31"/>
    <path fill="#84D3DB" stroke="null" id="svg_352" d="m222.06256,177.61019l-7.31942,0c-0.89626,0 -1.79251,-0.74688 -1.79251,-1.79251l0,-7.31942c0,-0.89626 -0.89626,-2.83814 1.79251,-1.79251l7.31942,0c2.39001,-0.89626 1.79251,0.74688 1.79251,1.79251l0,7.31942c0,1.04563 -0.89626,1.79251 -1.79251,1.79251z" class="st32"/>
    <path fill="#84D3DB" stroke="null" id="svg_353" d="m210.26186,177.01268l-7.31942,0c-0.89626,0 -1.79251,-0.74688 -1.79251,-1.79251l0,-7.31942c0,-0.89626 -0.89626,-2.83814 1.79251,-1.79251l7.31942,0c2.39001,-0.89626 1.79251,0.74688 1.79251,1.79251l0,7.31942c0,1.04563 -0.74688,1.79251 -1.79251,1.79251z" class="st32"/>
    <path fill="#84D3DB" stroke="null" id="svg_354" d="m226.84259,192.84653c0,-3.43565 -5.52691,-7.02067 -12.84633,-7.02067s-13.14508,4.03315 -13.14508,7.4688c0,0 6.42316,1.49376 13.89196,1.49376c7.4688,0 12.09945,-1.94189 12.09945,-1.94189z" class="st33"/>
   </g>
   <g stroke="null" id="eyes-closed-waving">
    <g stroke="null" id="svg_355">
     <g stroke="null" id="svg_356">
      <ellipse fill="#84D3DB" stroke="null" id="svg_357" ry="7.17004" rx="14.93759" cy="123.08798" cx="226.24509" class="st5"/>
      <path fill="#84D3DB" stroke="null" id="svg_358" d="m226.24509,130.55677c-8.51443,0 -15.5351,-3.28627 -15.5351,-7.31942c0,-4.03315 7.02067,-7.31942 15.5351,-7.31942c8.51443,0 15.5351,3.28627 15.5351,7.31942c0,4.03315 -7.02067,7.31942 -15.5351,7.31942zm0,-14.48946c-7.91692,0 -14.34009,3.13689 -14.34009,7.02067c0,3.88377 6.42316,7.02067 14.34009,7.02067s14.34009,-3.13689 14.34009,-7.02067c-0.14938,-3.88377 -6.57254,-7.02067 -14.34009,-7.02067z" class="st21"/>
     </g>
     <g stroke="null" id="svg_359">
      <ellipse fill="#84D3DB" stroke="null" id="svg_360" ry="3.58502" rx="8.96255" cy="123.38673" cx="226.24509" class="st28"/>
      <ellipse fill="#84D3DB" stroke="null" id="svg_361" ry="1.34438" rx="4.92941" cy="123.53611" cx="226.99197"/>
      <ellipse fill="#84D3DB" stroke="null" id="svg_362" ry="0.89626" rx="2.98752" cy="122.63985" cx="221.91318" class="st5"/>
     </g>
    </g>
    <g stroke="null" id="svg_363">
     <g stroke="null" id="svg_364">
      <ellipse fill="#84D3DB" stroke="null" id="svg_365" ry="7.17004" rx="14.93759" cy="123.23735" cx="194.27864" class="st5"/>
      <path fill="#84D3DB" stroke="null" id="svg_366" d="m194.27864,130.70615c-8.51443,0 -15.5351,-3.28627 -15.5351,-7.31942c0,-4.03315 7.02067,-7.31942 15.5351,-7.31942c8.51443,0 15.5351,3.28627 15.5351,7.31942c-0.14938,4.03315 -7.02067,7.31942 -15.5351,7.31942zm0,-14.48946c-7.91692,0 -14.34009,3.13689 -14.34009,7.02067c0,3.88377 6.42316,7.02067 14.34009,7.02067s14.34009,-3.13689 14.34009,-7.02067c-0.14938,-3.88377 -6.57254,-7.02067 -14.34009,-7.02067z" class="st21"/>
     </g>
     <g stroke="null" id="svg_367">
      <ellipse fill="#84D3DB" stroke="null" id="svg_368" ry="3.58502" rx="8.96255" cy="123.53611" cx="195.02552" class="st28"/>
      <ellipse fill="#84D3DB" stroke="null" id="svg_369" ry="1.34438" rx="4.92941" cy="123.68548" cx="196.22053"/>
      <ellipse fill="#84D3DB" stroke="null" id="svg_370" ry="0.89626" rx="2.98752" cy="122.78923" cx="191.14175" class="st5"/>
     </g>
    </g>
   </g>
   <g stroke="null" id="eyes-opened-waving">
    <g stroke="null" id="svg_371">
     <g stroke="null" id="svg_372">
      <ellipse fill="#84D3DB" stroke="null" id="svg_373" ry="26.14079" rx="14.93759" cy="122.9386" cx="226.24509" class="st5"/>
      <path fill="#84D3DB" stroke="null" id="svg_374" d="m226.24509,149.67689c-8.51443,0 -15.5351,-11.95007 -15.5351,-26.73829c0,-14.78822 7.02067,-26.73829 15.5351,-26.73829c8.51443,0 15.5351,11.95007 15.5351,26.73829c0,14.63884 -7.02067,26.73829 -15.5351,26.73829zm0,-52.28157c-7.91692,0 -14.34009,11.35257 -14.34009,25.39391c0,14.04134 6.42316,25.39391 14.34009,25.39391s14.34009,-11.35257 14.34009,-25.39391c-0.14938,-13.89196 -6.57254,-25.39391 -14.34009,-25.39391z" class="st21"/>
     </g>
     <g stroke="null" id="svg_375">
      <ellipse fill="#84D3DB" stroke="null" id="svg_376" ry="12.9957" rx="8.96255" cy="123.83486" cx="226.24509" class="st28"/>
      <circle fill="#84D3DB" stroke="null" id="svg_377" r="4.9294" cy="124.43236" cx="226.99197"/>
      <circle fill="#84D3DB" stroke="null" id="svg_378" r="2.98751" cy="120.99672" cx="221.91318" class="st5"/>
     </g>
    </g>
    <g stroke="null" id="svg_379">
     <g stroke="null" id="svg_380">
      <ellipse fill="#84D3DB" stroke="null" id="svg_381" ry="26.14079" rx="14.93759" cy="123.53611" cx="194.27864" class="st5"/>
      <path fill="#84D3DB" stroke="null" id="svg_382" d="m194.27864,150.2744c-8.51443,0 -15.5351,-11.95007 -15.5351,-26.73829c0,-14.78822 7.02067,-26.73829 15.5351,-26.73829c8.51443,0 15.5351,11.95007 15.5351,26.73829c-0.14938,14.63884 -7.02067,26.73829 -15.5351,26.73829zm0,-52.13219c-7.91692,0 -14.34009,11.35257 -14.34009,25.39391s6.42316,25.39391 14.34009,25.39391s14.34009,-11.35257 14.34009,-25.39391s-6.57254,-25.39391 -14.34009,-25.39391z" class="st21"/>
     </g>
     <g stroke="null" id="svg_383">
      <ellipse fill="#84D3DB" stroke="null" id="svg_384" ry="12.9957" rx="8.96255" cy="124.43236" cx="195.02552" class="st28"/>
      <circle fill="#84D3DB" stroke="null" id="svg_385" r="4.92941" cy="125.02987" cx="196.22053"/>
      <circle fill="#84D3DB" stroke="null" id="svg_386" r="2.98751" cy="121.59422" cx="191.14175" class="st5"/>
     </g>
    </g>
   </g>
   <path fill="#84D3DB" stroke="null" id="svg_387" d="m179.34105,96.05094c-4.78003,-1.64314 7.17004,-36.44772 20.16575,-43.31902s18.07449,-8.0663 18.07449,-8.0663l-13.59321,15.23634c0,0 35.70084,-13.89196 40.18212,-12.24883s-19.12012,13.89196 -19.12012,13.89196s22.70514,-6.87129 27.63454,-6.12441s-21.51013,15.23634 -21.51013,15.23634s17.92511,-3.28627 20.31512,-3.43565c2.39001,-0.14938 -14.19071,20.76325 -18.67199,24.94578c-4.48128,4.18253 -48.69655,5.52691 -53.47658,3.88377z" class="st27"/>
   <g stroke="null" id="svg_388">
    <path fill="#84D3DB" stroke="null" id="svg_389" d="m181.88044,88.13401c0,0 12.09945,-9.85881 14.19071,-6.57254c1.94189,3.28627 -14.19071,6.57254 -14.19071,6.57254z" class="st30"/>
    <path fill="#84D3DB" stroke="null" id="svg_390" d="m233.11638,88.13401c0,0 -12.09945,-9.85881 -14.19071,-6.57254s14.19071,6.57254 14.19071,6.57254z" class="st30"/>
   </g>
  </g>
 </g>
</svg>