<?xml version="1.0" encoding="utf-8"?>
<!-- Generator: Adobe Illustrator 17.0.0, SVG Export Plug-In . SVG Version: 6.00 Build 0)  -->
<!DOCTYPE svg PUBLIC "-//W3C//DTD SVG 1.1//EN" "http://www.w3.org/Graphics/SVG/1.1/DTD/svg11.dtd">
<svg version="1.1" id="Layer_1" xmlns="http://www.w3.org/2000/svg" xmlns:xlink="http://www.w3.org/1999/xlink" x="0px" y="0px"
	 width="300px" height="300px" viewBox="0 0 300 300" enable-background="new 0 0 300 300" xml:space="preserve">
<path stroke="#000000" stroke-miterlimit="10" d="M189.811,152.24c-7.501-8.536-34.273,7.954-34.273,7.954l33.432,29.294
	C200.934,186.061,197.313,160.776,189.811,152.24z"/>
<path fill="#222223" stroke="#000000" stroke-miterlimit="10" d="M171.445,160.622c8.945,0.531,21.412,9.193,19.201,30.722
	s-19.317,35.493-31.42,34.096c-12.102-1.396-11.753-2.793-11.753-2.793s-14.43-11.288-7.099-32.7
	C147.705,168.535,159.691,159.924,171.445,160.622z"/>
<path fill="#FFE49D" stroke="#000000" stroke-miterlimit="10" d="M174.237,171.91c6.051,0.931,13.15,5.992,11.055,21.15
	c-2.095,15.158-12.176,24.7-20.692,23.536s-11.193-14.257-9.098-23.536C157.597,183.78,164.95,170.481,174.237,171.91z"/>
<path stroke="#000000" stroke-miterlimit="10" d="M283.504,123.605c5.495,2.833,3.116,17.174,3.116,17.174l-15.096-5.33
	C271.525,135.448,279.85,121.72,283.504,123.605z"/>
<path fill="#222223" stroke="#000000" stroke-miterlimit="10" d="M263.028,170.746c0,0,6.4,3.491,11.404,1.629
	s10.008-9.775,10.822-19.899c0.815-10.124,0.116-21.645-5.004-21.412s-18.852,14.43-19.201,23.739
	C260.7,164.113,260.816,169.77,263.028,170.746z"/>
<path fill="#FFE49D" stroke="#000000" stroke-miterlimit="10" d="M280.25,137.232c3.782,0.811,3.491,10.435,2.909,14.76
	s-3.957,14.566-6.4,14.798c-2.444,0.233-6.633-4.655-4.771-14.081S276.992,136.534,280.25,137.232z"/>
<path fill="#FFE8CF" stroke="#000000" stroke-miterlimit="10" d="M14.225,150.721c0,0-6.932,4.786-7.592,7.262
	s-1.981,11.223-1.155,13.039c0.825,1.816,6.602,10.068,6.602,10.068s0.495,5.117,0.825,7.097s10.233,10.563,22.612,15.35
	c12.379,4.786,47.369,13.931,65.029,13.155s35.482-5.232,36.971-6.883s10.398-15.185,9.738-23.107l0.035-0.495
	c0,0,10.363-32.35,32.15-32.68c21.786-0.33,11.45,34.159,11.419,34.827s-0.031,3.3,0.794,2.97c0.825-0.33,71.631-30.74,71.631-30.74
	s5.447-6.231,6.932-13.823c1.485-7.592,6.272-20.631,11.719-21.456s3.606,12.544,3.606,12.544s-0.087,2.806,0.299,6.602
	c0,0,4.516-2.833,5.828-4.714s7.354-11.459,1.881-17.388c0,0,1.653-11.345-0.969-15.906s-15.849-6.556-22.12-6.1
	s-34.336,23.051-83.669,25.218S85.189,113.958,85.189,113.958s-8.361-0.23-33.906,8.131s-33.599,17.106-33.599,17.106
	L14.225,150.721z"/>
<path fill="none" stroke="#000000" stroke-miterlimit="10" d="M133.815,170.63c0,0,1.308,1.131,23.517-3.693"/>
<path fill="none" stroke="#000000" stroke-miterlimit="10" d="M79.685,116.882c0,0-23.174,8.534-31.155,12.485
	s-21.652,10.352-26.867,18.886"/>
<line fill="none" stroke="#000000" stroke-miterlimit="10" x1="200.753" y1="157.284" x2="273.221" y2="131.061"/>
<path fill="none" stroke="#000000" stroke-miterlimit="10" d="M109.112,163.832c0,0,6.682-5.25,13.364-9.13
	c6.682-3.88,55.432-22.221,57.57-22.966"/>
<path fill="#675E55" stroke="#000000" stroke-miterlimit="10" d="M22.33,150c2.496-0.058,15.346,4.918,18.514,5.781
	c3.167,0.864,24.391,5.918,24.967,8.317c0.576,2.4-9.502,14.59-13.15,15.069c-3.647,0.48-31.483-7.391-34.746-11.134
	S20.035,150.054,22.33,150z"/>
<path fill="none" stroke="#000000" stroke-miterlimit="10" d="M19.835,157.284c0,0,9.982,4.703,13.438,5.567
	c3.455,0.864,27.835,7.391,28.315,7.199"/>
<path fill="#FFFFFF" stroke="#000000" stroke-miterlimit="10" d="M38.428,164.594c-0.289,1.908-1.788,3.404-3.181,3.21
	c-1.494-0.209-2.548-2.315-2.105-4.225c0.739-3.181,2.378-3.824,3.615-3.599C38.638,160.322,38.722,162.656,38.428,164.594z"/>
<path fill="#FFFFFF" stroke="#000000" stroke-miterlimit="10" d="M79.789,164.234c5.781-1.046,28.296,0.264,31.46,0.409
	s-3.517,12.785-3.517,12.785s-29.031-2.734-31.801-4.235C71.176,170.616,76.21,164.882,79.789,164.234z"/>
<path fill="#FCB122" stroke="#000000" stroke-miterlimit="10" d="M103.812,175.101c0.132-1.356,1.832-6.435,2.854-7.756
	c0.985-1.273,1.878-1.613,3.11-2.42s12.959,0,15.751,0.372s8.81,0.496,8.252,3.785c-0.558,3.288-10.237,7.259-15.635,8.066
	C112.746,177.955,103.521,178.091,103.812,175.101z"/>
<path fill="#F3F4F4" stroke="#000000" stroke-miterlimit="10" d="M86.717,198.568c0,0,18.454,1.351,18.163,8.455
	c-0.193,4.727-4.624,6.463-6.943,6.227c-10.438-1.063-19.625-9.938-15.25-13.813C82.688,199.438,83.122,198.511,86.717,198.568z"/>
<path fill="#FFFFFF" stroke="#000000" stroke-miterlimit="10" d="M17.587,139.516c0,0,2.818,7.906,3.739,8.564
	c0,0-3.221,5.325-3.419,6.443c0,0-3.484-2.41-3.681-3.802C14.028,149.329,16.239,140.995,17.587,139.516z"/>
<path fill="#DEDFE0" stroke="#000000" stroke-miterlimit="10" d="M39.843,197.499c0,0-1.84-10.008-2.154-11.668
	c-0.314-1.661-2.289-3.007-2.289-3.007s-16.291-5.924-17.413-5.744s-0.404,2.11-0.404,2.11s1.616,8.93,2.02,11.04
	c0.404,2.109,2.199,2.648,2.199,2.648s12.566,4.802,15.887,6.193S39.843,197.499,39.843,197.499z"/>
<path fill="#E5D1BC" stroke="#000000" stroke-miterlimit="10" d="M246.597,129.967c0,0-0.13-2.079,0.747-2.534
	c0.877-0.455,4.223-2.502,5.49-2.112s1.592,2.566,0.65,2.924C252.542,128.603,247.506,130.325,246.597,129.967z"/>
<path fill="#38312B" stroke="#000000" stroke-miterlimit="10" d="M267.463,99.837c0,0-8.073-6.858-9.636-8.247
	s-7.709-5.934-11.529-7.236L134.3,82.302c-4.34,1.476-34.711,18.956-42.964,26.145l-8.983,5.451c0,0-4.081,1.424-2.147,2.466
	s18.85,5.261,38.556,8.213s50.609,9.028,72.919,6.597s78.474-23.178,81.947-26.65C277.099,101.052,267.463,99.837,267.463,99.837z"
	/>
<path fill="#0B0A0B" stroke="#000000" stroke-miterlimit="10" d="M205.458,89.072c0,0,8.775,0.429,9.686,1.659
	c0.911,1.23-18.951,39.789-18.951,39.789l-16.146,1.215C180.047,131.736,205.886,95.449,205.458,89.072z"/>
<path fill="#8E8377" stroke="#000000" stroke-miterlimit="10" d="M262.921,107.546c0,0,8.162-4.18,7.664-5.275
	s-10.396-7.662-12.36-10.331s-3.183-7.596-16.39-11.9c-14.249-4.643-46.797-6.006-60.533-6.121s-35.187,3.291-47.454,8.556
	c0,0,25.755,1.582,35.809,2.975c10.053,1.393,41.904,3.882,42.8,4.579s2.687,0.703,2.687,0.703s18.314-8.467,25.78-4.684
	S262.699,105.545,262.921,107.546z"/>
</svg>
