<?xml version="1.0" encoding="utf-8"?>
<!-- Generator: Adobe Illustrator 16.0.0, SVG Export Plug-In . SVG Version: 6.00 Build 0)  -->
<!DOCTYPE svg PUBLIC "-//W3C//DTD SVG 1.1//EN" "http://www.w3.org/Graphics/SVG/1.1/DTD/svg11.dtd">
<svg version="1.1" id="Layer_1" xmlns="http://www.w3.org/2000/svg" xmlns:xlink="http://www.w3.org/1999/xlink" x="0px" y="0px"
	 width="20px" height="20px" viewBox="0 0 20 20" enable-background="new 0 0 20 20" xml:space="preserve">
<g>
	<polygon fill-rule="evenodd" clip-rule="evenodd" fill="#2C3E50" points="10.012,19.702 4.133,16.307 4.134,16.095 10.012,19.485 	
		"/>
	<polygon fill-rule="evenodd" clip-rule="evenodd" fill="#34485C" points="10.012,19.485 4.134,16.095 9.344,13.016 15.287,16.451 	
		"/>
	<polygon fill-rule="evenodd" clip-rule="evenodd" fill="#3D566E" points="10.012,19.485 15.287,16.451 15.287,16.663 
		10.012,19.702 	"/>
	<polygon fill-rule="evenodd" clip-rule="evenodd" fill="#9C9C9C" points="9.544,9.381 6.048,7.363 6.052,6.664 9.549,8.682 	"/>
	<polygon fill-rule="evenodd" clip-rule="evenodd" fill="#E6EAEB" points="9.544,9.381 9.549,8.682 12.93,6.737 12.926,7.437 	"/>
	<polygon fill-rule="evenodd" clip-rule="evenodd" fill="#9C9C9C" points="9.436,4.855 12.688,6.733 12.383,6.909 9.436,5.206 	"/>
	<polygon fill-rule="evenodd" clip-rule="evenodd" fill="#EBEBEB" points="6.597,6.841 6.293,6.666 9.436,4.855 9.436,5.206 	"/>
	<polygon fill-rule="evenodd" clip-rule="evenodd" fill="#B8BFC4" points="9.547,8.602 6.495,6.838 9.434,5.147 12.482,6.909 	"/>
	<path fill-rule="evenodd" clip-rule="evenodd" fill="#C5CCD1" d="M9.549,8.682L6.052,6.664l3.38-1.946l3.497,2.02L9.549,8.682
		L9.549,8.682z M9.544,8.542l3.143-1.809L9.436,4.855l-3.142,1.81L9.544,8.542z"/>
	<polygon fill-rule="evenodd" clip-rule="evenodd" fill="#9C9C9C" points="9.525,8.318 7.352,7.062 7.352,4.821 9.527,6.076 	"/>
	<polygon fill-rule="evenodd" clip-rule="evenodd" fill="#BDBDBD" points="9.527,6.076 7.352,4.821 9.43,3.596 11.627,4.865 	"/>
	<polygon fill-rule="evenodd" clip-rule="evenodd" fill="#E6EAEB" points="9.527,6.076 11.627,4.865 11.627,7.106 9.525,8.318 	"/>
	<polygon fill-rule="evenodd" clip-rule="evenodd" fill="#666666" points="9.51,5.526 8.301,4.828 9.456,4.146 10.679,4.853 	"/>
	<polygon fill-rule="evenodd" clip-rule="evenodd" fill="#9C9C9C" points="9.51,5.526 8.301,4.828 8.301,2.66 9.51,3.356 	"/>
	<polygon fill-rule="evenodd" clip-rule="evenodd" fill="#BDBDBD" points="9.51,3.356 8.301,2.66 9.456,1.979 10.679,2.684 	"/>
	<polygon fill-rule="evenodd" clip-rule="evenodd" fill="#E6EAEB" points="9.51,3.356 10.679,2.684 10.678,4.853 9.51,5.526 	"/>
	<polygon fill-rule="evenodd" clip-rule="evenodd" fill="#9C9C9C" points="9.492,2.718 9.405,2.668 9.405,0.5 9.492,0.55 	"/>
	<polygon fill-rule="evenodd" clip-rule="evenodd" fill="#2C3E50" points="9.492,0.55 9.405,0.5 9.488,0.451 9.577,0.502 	"/>
	<polygon fill-rule="evenodd" clip-rule="evenodd" fill="#E6EAEB" points="9.492,0.55 9.577,0.502 9.577,2.668 9.492,2.718 	"/>
	<polygon fill-rule="evenodd" clip-rule="evenodd" fill="#FF0000" points="9.492,0.55 9.405,0.5 9.488,0.451 9.577,0.502 	"/>
	<circle fill-rule="evenodd" clip-rule="evenodd" fill="#C23E2D" cx="9.49" cy="0.502" r="0.147"/>
	<path fill-rule="evenodd" clip-rule="evenodd" fill="#F25E4B" d="M9.508,0.62c0.069,0,0.125-0.057,0.125-0.125
		c0-0.07-0.056-0.127-0.125-0.127c-0.072,0-0.128,0.057-0.128,0.127C9.379,0.563,9.436,0.62,9.508,0.62z"/>
	<path fill-rule="evenodd" clip-rule="evenodd" fill="#F08173" d="M9.603,0.425c-0.035-0.044-0.085-0.03-0.085,0.023
		c0,0.032,0.026,0.057,0.059,0.057C9.627,0.506,9.625,0.456,9.603,0.425z"/>
	<g>
		<polygon fill-rule="evenodd" clip-rule="evenodd" fill="#C5CCD1" points="9.549,10.221 6.052,8.202 6.171,8.132 9.544,10.082 
			12.809,8.203 12.93,8.274 		"/>
		<polygon fill-rule="evenodd" clip-rule="evenodd" fill="#29648C" points="9.544,10.082 6.171,8.132 6.174,7.432 9.549,9.381 		"/>
		<polygon fill-rule="evenodd" clip-rule="evenodd" fill="#2192FC" points="9.544,10.082 9.549,9.381 12.811,7.503 12.809,8.203 		
			"/>
		<polygon fill-rule="evenodd" clip-rule="evenodd" fill="#9C9C9C" points="9.544,10.48 6.048,8.461 6.052,8.202 9.549,10.221 		"/>
		<polygon fill-rule="evenodd" clip-rule="evenodd" fill="#E6EAEB" points="9.544,10.48 9.549,10.221 12.93,8.274 12.926,8.535 		
			"/>
	</g>
	<g>
		<polygon fill-rule="evenodd" clip-rule="evenodd" fill="#C5CCD1" points="9.549,11.318 6.052,9.301 6.171,9.229 9.544,11.18 
			12.809,9.302 12.93,9.373 		"/>
		<polygon fill-rule="evenodd" clip-rule="evenodd" fill="#29648C" points="9.544,11.18 6.171,9.229 6.174,8.532 9.549,10.48 		"/>
		<polygon fill-rule="evenodd" clip-rule="evenodd" fill="#2192FC" points="9.544,11.18 9.549,10.48 12.811,8.602 12.809,9.302 		
			"/>
		<polygon fill-rule="evenodd" clip-rule="evenodd" fill="#9C9C9C" points="9.544,11.581 6.048,9.559 6.052,9.301 9.549,11.318 		
			"/>
		<polygon fill-rule="evenodd" clip-rule="evenodd" fill="#E6EAEB" points="9.544,11.581 9.549,11.318 12.93,9.373 12.926,9.632 		
			"/>
	</g>
	<g>
		<polygon fill-rule="evenodd" clip-rule="evenodd" fill="#C5CCD1" points="9.549,12.418 6.052,10.398 6.171,10.331 9.544,12.277 
			12.809,10.4 12.93,10.473 		"/>
		<polygon fill-rule="evenodd" clip-rule="evenodd" fill="#29648C" points="9.544,12.277 6.171,10.331 6.174,9.631 9.549,11.581 		
			"/>
		<polygon fill-rule="evenodd" clip-rule="evenodd" fill="#2192FC" points="9.544,12.277 9.549,11.581 12.811,9.702 12.809,10.4 		
			"/>
		<polygon fill-rule="evenodd" clip-rule="evenodd" fill="#9C9C9C" points="9.544,12.68 6.048,10.659 6.052,10.398 9.549,12.418 		
			"/>
		<polygon fill-rule="evenodd" clip-rule="evenodd" fill="#E6EAEB" points="9.544,12.68 9.549,12.418 12.93,10.473 12.926,10.731 		
			"/>
	</g>
	<g>
		<polygon fill-rule="evenodd" clip-rule="evenodd" fill="#C5CCD1" points="9.549,13.518 6.052,11.498 6.171,11.431 9.544,13.377 
			12.809,11.501 12.93,11.568 		"/>
		<polygon fill-rule="evenodd" clip-rule="evenodd" fill="#29648C" points="9.544,13.377 6.171,11.431 6.174,10.729 9.549,12.68 		
			"/>
		<polygon fill-rule="evenodd" clip-rule="evenodd" fill="#2192FC" points="9.544,13.377 9.549,12.68 12.811,10.802 12.809,11.501 
					"/>
		<polygon fill-rule="evenodd" clip-rule="evenodd" fill="#9C9C9C" points="9.544,13.776 6.048,11.757 6.052,11.498 9.549,13.518 		
			"/>
		<polygon fill-rule="evenodd" clip-rule="evenodd" fill="#E6EAEB" points="9.544,13.776 9.549,13.518 12.93,11.568 12.926,11.831 
					"/>
	</g>
	<g>
		<polygon fill-rule="evenodd" clip-rule="evenodd" fill="#C5CCD1" points="9.549,14.617 6.052,12.598 6.171,12.527 9.544,14.477 
			12.809,12.599 12.93,12.672 		"/>
		<polygon fill-rule="evenodd" clip-rule="evenodd" fill="#29648C" points="9.544,14.477 6.171,12.527 6.174,11.829 9.549,13.776 		
			"/>
		<polygon fill-rule="evenodd" clip-rule="evenodd" fill="#2192FC" points="9.544,14.477 9.549,13.776 12.811,11.9 12.809,12.599 		
			"/>
		<polygon fill-rule="evenodd" clip-rule="evenodd" fill="#9C9C9C" points="9.544,14.872 6.048,12.856 6.052,12.598 9.549,14.617 		
			"/>
		<polygon fill-rule="evenodd" clip-rule="evenodd" fill="#EBEBEB" points="9.544,14.872 9.549,14.617 12.93,12.672 12.926,12.929 
					"/>
	</g>
	<polygon fill-rule="evenodd" clip-rule="evenodd" fill="#C5CCD1" points="9.549,15.714 6.052,13.695 6.171,13.627 9.544,15.576 
		12.809,13.699 12.93,13.771 	"/>
	<polygon fill-rule="evenodd" clip-rule="evenodd" fill="#3D566E" points="9.544,15.576 9.549,14.877 12.811,12.998 12.809,13.699 	
		"/>
	<polygon fill-rule="evenodd" clip-rule="evenodd" fill="#9C9C9C" points="9.544,15.975 6.048,13.956 6.052,13.695 9.549,15.714 	
		"/>
	<polygon fill-rule="evenodd" clip-rule="evenodd" fill="#E6EAEB" points="9.544,15.975 9.549,15.714 12.93,13.771 12.926,14.027 	
		"/>
	<polygon fill-rule="evenodd" clip-rule="evenodd" fill="#29648C" points="9.544,17.346 6.171,15.396 6.174,14.027 9.549,15.975 	
		"/>
	<polygon fill-rule="evenodd" clip-rule="evenodd" fill="#2192FC" points="9.544,17.346 9.549,15.975 12.811,14.1 12.809,15.466 	
		"/>
	<g>
		<polygon fill-rule="evenodd" clip-rule="evenodd" fill="#C5CCD1" points="9.549,17.843 6.052,15.822 6.171,15.754 9.544,17.702 
			12.809,15.825 12.93,15.891 		"/>
		<polygon fill-rule="evenodd" clip-rule="evenodd" fill="#29648C" points="9.544,17.702 6.171,15.754 6.174,15.05 9.549,17.001 		
			"/>
		<polygon fill-rule="evenodd" clip-rule="evenodd" fill="#2192FC" points="9.544,17.702 9.549,17.001 12.811,15.122 12.809,15.825 
					"/>
		<polygon fill-rule="evenodd" clip-rule="evenodd" fill="#9C9C9C" points="9.544,18.098 6.048,16.082 6.052,15.822 9.549,17.843 		
			"/>
		<polygon fill-rule="evenodd" clip-rule="evenodd" fill="#E6EAEB" points="9.544,18.098 9.549,17.843 12.93,15.891 12.926,16.154 
					"/>
	</g>
	<polygon fill-rule="evenodd" clip-rule="evenodd" fill="#9C9C9C" points="14.691,14.084 14.691,13.829 12.805,12.742 
		12.805,12.998 	"/>
	<polygon fill-rule="evenodd" clip-rule="evenodd" fill="#B8BFC4" points="11.314,15.493 14.352,13.736 12.805,12.851 9.777,14.608 
			"/>
	<polygon fill-rule="evenodd" clip-rule="evenodd" fill="#C5CCD1" points="11.434,16.803 14.807,14.853 14.688,14.784 
		11.438,16.663 9.549,15.576 9.549,15.584 9.549,15.717 	"/>
	<polygon fill-rule="evenodd" clip-rule="evenodd" fill="#C5CCD1" points="11.434,15.705 14.807,13.755 14.688,13.688 
		11.438,15.563 9.549,14.477 9.549,14.477 9.549,14.617 	"/>
	<polygon fill-rule="evenodd" clip-rule="evenodd" fill="#9C9C9C" points="11.438,15.964 11.434,15.705 9.33,14.49 9.33,14.748 	"/>
	<polygon fill-rule="evenodd" clip-rule="evenodd" fill="#C5CCD1" points="14.684,13.823 14.688,13.688 12.844,12.622 
		12.721,12.692 	"/>
	<polygon fill-rule="evenodd" clip-rule="evenodd" fill="#9C9C9C" points="13.641,17.033 13.305,16.837 13.305,14.993 13.641,15.19 
			"/>
	<polygon fill-rule="evenodd" clip-rule="evenodd" fill="#EBEBEB" points="13.641,15.19 13.969,15.002 13.969,16.843 13.641,17.033 
			"/>
	<polygon fill-rule="evenodd" clip-rule="evenodd" fill="#C5CCD1" points="10.917,16.762 10.582,16.572 10.904,16.38 11.244,16.578 
			"/>
	<polygon fill-rule="evenodd" clip-rule="evenodd" fill="#EBEBEB" points="11.244,16.578 11.568,16.386 11.568,18.23 11.244,18.42 	
		"/>
	<polygon fill-rule="evenodd" clip-rule="evenodd" fill="#C5CCD1" points="11.432,15.399 14.807,13.45 14.477,13.257 11.1,15.208 	
		"/>
	<polygon fill-rule="evenodd" clip-rule="evenodd" fill="#3D566E" points="11.438,16.663 14.688,14.784 14.688,14.084 
		11.434,15.964 	"/>
	<polygon fill-rule="evenodd" clip-rule="evenodd" fill="#EBEBEB" points="11.438,17.061 14.809,15.114 14.807,14.853 
		11.434,16.803 	"/>
	<polygon fill-rule="evenodd" clip-rule="evenodd" fill="#9C9C9C" points="11.438,15.964 14.809,14.016 14.807,13.755 
		11.434,15.705 	"/>
	<polygon fill-rule="evenodd" clip-rule="evenodd" fill="#EBEBEB" points="11.434,16.934 14.809,14.983 14.807,13.45 11.432,15.399 
			"/>
	<polygon fill-rule="evenodd" clip-rule="evenodd" fill="#9C9C9C" points="11.244,18.42 10.907,18.225 10.907,16.528 11.244,16.722 
			"/>
	<path fill-rule="evenodd" clip-rule="evenodd" fill="#9C9C9C" d="M11.434,16.803l-2.126-1.227v0.259L11.1,16.87l0.338,0.19
		C11.438,16.975,11.436,16.891,11.434,16.803z"/>
	<path fill-rule="evenodd" clip-rule="evenodd" fill="#29648C" d="M11.438,16.663l-0.004-0.699l-5.259-3.035l-0.003,0.698
		C7.929,14.644,9.679,15.651,11.438,16.663z"/>
	<polygon fill-rule="evenodd" clip-rule="evenodd" fill="#9C9C9C" points="11.434,17.05 11.432,15.399 11.1,15.208 11.102,16.863 	
		"/>
	<g>
		<g>
			<polygon fill-rule="evenodd" clip-rule="evenodd" fill="#2C3E50" points="12.393,15.512 12.33,15.477 12.299,15.462 
				12.262,15.459 12.219,15.47 12.172,15.493 12.125,15.522 12.084,15.563 12.045,15.606 12.014,15.654 11.988,15.711 
				11.969,15.769 11.959,15.825 11.953,15.888 11.959,15.939 11.969,15.989 11.988,16.024 12.014,16.046 12.078,16.082 
				12.051,16.058 12.033,16.024 12.02,15.979 12.018,15.925 12.02,15.86 12.033,15.804 12.051,15.747 12.078,15.693 12.107,15.644 
				12.146,15.597 12.186,15.563 12.232,15.526 12.283,15.505 12.324,15.499 12.359,15.499 			"/>
			<polygon fill-rule="evenodd" clip-rule="evenodd" fill="#2C3E50" points="12.305,15.606 12.24,15.569 12.26,15.58 12.271,15.597 
				12.283,15.62 12.289,15.651 12.291,15.69 12.289,15.73 12.283,15.769 12.271,15.804 12.26,15.835 12.244,15.869 12.221,15.896 
				12.199,15.918 12.172,15.931 12.146,15.946 12.123,15.952 12.102,15.949 12.164,15.986 12.184,15.989 12.209,15.982 
				12.232,15.971 12.262,15.952 12.285,15.931 12.305,15.905 12.324,15.875 12.336,15.84 12.346,15.804 12.354,15.769 
				12.354,15.726 12.354,15.69 12.346,15.66 12.336,15.634 12.322,15.62 			"/>
			<polygon fill-rule="evenodd" clip-rule="evenodd" fill="#2C3E50" points="12.887,15.165 12.824,15.13 12.824,15.64 
				12.887,15.676 			"/>
			<polygon fill-rule="evenodd" clip-rule="evenodd" fill="#2C3E50" points="12.518,15.378 12.457,15.341 12.457,15.851 
				12.518,15.888 			"/>
			<polygon fill-rule="evenodd" clip-rule="evenodd" fill="#2C3E50" points="12.803,15.428 12.742,15.388 12.553,15.499 
				12.617,15.534 			"/>
			<polygon fill-rule="evenodd" clip-rule="evenodd" fill="#2C3E50" points="13.256,14.952 13.191,14.916 13.191,15.428 
				13.256,15.462 			"/>
			<polygon fill-rule="evenodd" clip-rule="evenodd" fill="#2C3E50" points="12.832,15.196 12.768,15.16 12.457,15.341 
				12.518,15.378 			"/>
			<polygon fill-rule="evenodd" clip-rule="evenodd" fill="#2C3E50" points="13.172,15.214 13.107,15.174 12.922,15.284 
				12.984,15.321 			"/>
			<polygon fill-rule="evenodd" clip-rule="evenodd" fill="#2C3E50" points="13.352,14.896 13.291,14.859 13.191,14.916 
				13.256,14.952 			"/>
			<polygon fill-rule="evenodd" clip-rule="evenodd" fill="#2C3E50" points="13.201,14.983 13.135,14.945 12.824,15.13 
				12.887,15.165 			"/>
			<polygon fill-rule="evenodd" clip-rule="evenodd" fill="#2C3E50" points="13.836,14.932 13.771,14.896 13.674,14.952 
				13.736,14.987 			"/>
			<polygon fill-rule="evenodd" clip-rule="evenodd" fill="#2C3E50" points="13.736,14.987 13.674,14.952 13.672,14.98 
				13.666,15.006 13.656,15.029 13.641,15.05 13.633,15.072 13.613,15.094 13.594,15.107 13.574,15.122 13.549,15.137 
				13.527,15.137 13.504,15.137 13.57,15.171 13.592,15.174 13.611,15.171 13.639,15.157 13.656,15.144 13.674,15.13 13.693,15.111 
				13.707,15.09 13.721,15.066 13.727,15.044 13.734,15.017 			"/>
			<polygon fill-rule="evenodd" clip-rule="evenodd" fill="#2C3E50" points="13.717,14.802 13.652,14.769 13.658,14.778 
				13.668,14.791 13.672,14.81 13.736,14.845 13.73,14.828 13.723,14.813 			"/>
			<polygon fill-rule="evenodd" clip-rule="evenodd" fill="#2C3E50" points="13.775,14.691 13.709,14.657 13.682,14.651 
				13.648,14.654 13.613,14.66 13.578,14.683 13.529,14.714 13.484,14.753 13.449,14.799 13.416,14.853 13.395,14.905 
				13.375,14.959 13.363,15.017 13.359,15.072 13.363,15.13 13.375,15.174 13.395,15.208 13.42,15.234 13.48,15.271 13.459,15.247 
				13.438,15.211 13.426,15.165 13.424,15.107 13.426,15.05 13.438,14.993 13.459,14.942 13.48,14.888 13.512,14.838 13.549,14.788 
				13.592,14.748 13.641,14.718 13.678,14.694 13.713,14.688 13.748,14.686 			"/>
			<polygon fill-rule="evenodd" clip-rule="evenodd" fill="#2C3E50" points="14.232,14.391 14.17,14.353 13.838,14.543 13.9,14.577 
							"/>
			<polygon fill-rule="evenodd" clip-rule="evenodd" fill="#2C3E50" points="13.9,14.577 13.838,14.543 13.838,15.053 13.9,15.09 
							"/>
			<polygon fill-rule="evenodd" clip-rule="evenodd" fill="#2C3E50" points="14.238,14.802 14.174,14.769 13.934,14.905 
				13.996,14.942 			"/>
			<polygon fill-rule="evenodd" clip-rule="evenodd" fill="#2C3E50" points="14.213,14.604 14.148,14.564 13.934,14.688 
				13.996,14.729 			"/>
		</g>
		<path fill-rule="evenodd" clip-rule="evenodd" fill="#3D566E" d="M12.232,15.526c-0.129,0.08-0.215,0.234-0.215,0.398
			c0,0.161,0.086,0.212,0.215,0.139c0.133-0.074,0.221-0.231,0.221-0.394C12.453,15.512,12.365,15.456,12.232,15.526L12.232,15.526z
			 M12.232,15.62c0.074-0.044,0.121,0,0.121,0.105c0,0.109-0.047,0.202-0.121,0.245c-0.072,0.041-0.119,0.004-0.119-0.104
			S12.162,15.663,12.232,15.62L12.232,15.62z M12.832,15.196l-0.314,0.182v0.51l0.1-0.056V15.62l0.186-0.108v-0.084l-0.186,0.106
			v-0.122l0.215-0.12V15.196L12.832,15.196z M13.201,14.983l-0.314,0.182v0.511l0.098-0.056v-0.212l0.188-0.107v-0.087l-0.188,0.107
			v-0.12l0.217-0.122V14.983L13.201,14.983z M13.352,14.896l-0.096,0.056v0.51l0.096-0.057V14.896L13.352,14.896z M13.836,14.932
			l-0.1,0.056c-0.006,0.079-0.039,0.139-0.098,0.17c-0.07,0.044-0.117,0-0.117-0.104c0-0.087,0.031-0.193,0.117-0.243
			c0.053-0.028,0.088-0.015,0.098,0.035l0.096-0.057c-0.006-0.1-0.084-0.131-0.191-0.07c-0.137,0.077-0.217,0.241-0.217,0.39
			c0,0.164,0.086,0.222,0.215,0.15C13.758,15.188,13.826,15.063,13.836,14.932L13.836,14.932z M14.232,14.391L13.9,14.577v0.513
			l0.338-0.193v-0.095l-0.242,0.141v-0.126l0.217-0.128v-0.084l-0.217,0.124v-0.111l0.236-0.137V14.391z"/>
	</g>
</g>
</svg>
