<svg width="400" height="400" xmlns="http://www.w3.org/2000/svg">
 <g>
  <title>background</title>
 </g>

 <g>
  <title>background</title>
 </g>
 <style type="text/css">.st0{fill:#2F88BC;}
	.st1{fill:#91501C;}
	.st2{fill:#FFAB44;}
	.st3{fill:#B16827;}
	.st4{fill:#C2EEFC;}
	.st5{opacity:0.25;fill:#5D5D5D;}
	.st6{fill:#FBEBBA;}
	.st7{fill:#CABC9C;}
	.st8{fill:#8F8676;}
	.st9{fill:#8C8C8C;}
	.st10{fill:#FFFFFF;}
	.st11{fill:#C1A9A9;}
	.st12{fill:#CDCACA;}
	.st13{fill:#85361F;}
	.st14{fill:#FF7D43;}
	.st15{fill:#46D1FA;}
	.st16{fill:#E85E3C;}
	.st17{fill:#7F714C;}
	.st18{fill:#242221;}
	.st19{fill:#EFC73E;}
	.st20{fill:#B73A4A;}
	.st21{fill:#7D2833;}
	.st22{fill:#EEC09B;}
	.st23{fill:#DBA77F;}
	.st24{fill:#EEC9AB;}
	.st25{fill:#E1475C;}
	.st26{fill:#352311;}
	.st27{fill:#DC959C;}
	.st28{fill:#3D3D3D;}
	.st29{fill:#17120E;}
	.st30{fill:#9DD87D;}
	.st31{fill:#7FC5D6;}
	.st32{fill:#B04B5D;}
	.st33{fill:#D28691;}
	.st34{fill:#562947;}
	.st35{fill:#7F5D7F;}
	.st36{fill:#876B8E;}
	.st37{fill:#3F112B;}
	.st38{fill:#AB6346;}
	.st39{fill:#C57C5F;}
	.st40{fill:#DE8B6C;}
	.st41{fill:#C47C5F;}
	.st42{fill:#321829;}
	.st43{fill:#CCA93F;}
	.st44{fill:#E8BF4D;}
	.st45{fill:#A17C5B;}
	.st46{fill:#111719;}
	.st47{fill:#808184;}
	.st48{fill:#58595B;}
	.st49{fill:#BE1E2D;}
	.st50{fill:#FED03D;}
	.st51{fill:#312C32;}
	.st52{fill:#E08400;}
	.st53{fill:#FEDB78;}
	.st54{fill:#FDD03D;}
	.st55{fill:#E08501;}
	.st56{fill:#FD5544;}
	.st57{fill:#E08604;}
	.st58{fill:#E18503;}
	.st59{fill:#322D2F;}
	.st60{fill:#312C31;}
	.st61{fill:#82E1DE;}
	.st62{fill:#353032;}
	.st63{fill:#F7F6F4;}
	.st64{fill:#302C2F;}
	.st65{fill:#302C30;}
	.st66{fill:#E18A05;}
	.st67{fill:#322D31;}
	.st68{fill:#E08602;}
	.st69{fill:#FBFBFB;}
	.st70{fill:#F8F7F3;}
	.st71{fill:#312D31;}
	.st72{fill:#FDFDFB;}
	.st73{fill:#353034;}
	.st74{fill:#353133;}
	.st75{fill:#FAFAF8;}
	.st76{fill:#FBFCF9;}
	.st77{fill:#322E30;}
	.st78{fill:#302C31;}
	.st79{fill:#ADF8FE;}
	.st80{fill:#7EE1DF;}
	.st81{fill:#353031;}
	.st82{fill:#373233;}
	.st83{fill:#332E32;}
	.st84{fill:#332E33;}
	.st85{fill:#FCFCF8;}
	.st86{fill:#FCFCFB;}
	.st87{fill:#FCFCFA;}
	.st88{fill:#F8F8F5;}
	.st89{fill:#FDFDFC;}
	.st90{fill:#312C30;}
	.st91{fill:#F7F7F4;}
	.st92{fill:#312C2F;}
	.st93{fill:#332F33;}
	.st94{fill:#FBFBF7;}
	.st95{fill:#FDFDFD;}
	.st96{fill:#302D2F;}
	.st97{fill:#E18C0A;}
	.st98{fill:#E08F09;}
	.st99{fill:#363033;}
	.st100{fill:#342F32;}
	.st101{fill:#322D30;}
	.st102{fill:#FAF9F4;}
	.st103{fill:#373333;}
	.st104{fill:#FCFDFB;}
	.st105{fill:#FEFEFE;}
	.st106{fill:#FBFBF8;}
	.st107{fill:#ECEBE9;}
	.st108{fill:#FCFCF9;}
	.st109{fill:#3A3538;}
	.st110{fill:#DBBC42;}
    #TAXI{
    animation : slide 4s ease-in-out  
    }
    @keyframes slide{
    0%{
    transform : translateX(0)
    }
    50%,60%{
    transform : translateX(-830px)
    }
    70%{
     transform : translateX(-1400px)
    }
    100%{
    transform : translateX(-1400px)
    }
    }
    #girl1 ,#girl2{
    
    }
    @keyframes fade{
    0%,60%{
    visibility : hidden
    }
    65%,100%{
    visibility : visible
    }
    }
    #BRAZO_IZQ ,#BRAZO_DERE_1_{
    animation : wave 4s ease-in-out infinite;
    
    }
    @keyframes wave{
    0%,60%{
    visibility : hidden
    }
    
    71%,100%{
   visibility : hidden
    }
    }
   
    #BRAZO_IZQ-2{
     animation-name: arm1;
    animation-duration: 4s;
    animation-timing-function: linear;
   
    animation-iteration-count: infinite;
    transform-origin:right top;
    animation-direction: normal;
    transform-box: fill-box;
    }
    @keyframes arm1 {
      0%{transform:rotateZ(0deg)}
      70%{transform:rotateZ(0deg)}
      80%{transform:rotateZ(15deg)}
      100%{transform:rotateZ(15deg)}
    }

	#BRAZO_DERE-2{
      animation-name: arm2;
    animation-duration: 4s;
    animation-timing-function: linear;
   
    animation-iteration-count: infinite;
    transform-origin: 25% 25%;
    animation-direction: normal;
    transform-box: fill-box;
    }
    @keyframes arm2 {
      0%{transform:rotateZ(0deg)}
      70%{transform:rotateZ(0deg)}
      80%{transform:rotateZ(-15deg)}
      100%{transform:rotateZ(-15deg)}
}
    #OJOS_1_ ,#OJOS{
    animation : blink 4s ease-in-out infinite
    }
    @keyframes blink{
    0%,70%{
    visibility : hidden
    }
    72%,75%{
    visibility : visible
    }
    
    85%,90%{
    visibility : visible
    }
    92%,95%{
    visibility : hidden
    }
    100%{
    visibility : visible
    }
    }</style>
 <g>
  <title>Layer 1</title>
  <g id="girl2">
   <g id="CABEZA">
    <g id="svg_293">
     <path d="m234.02632,54.008c0,0 15.7,41.2 -18.2,85l-38.6,2l-11.1,-33.6l9.1,-35.7l58.8,-17.7z" class="st20" id="XMLID_166_"/>
     <path d="m232.12632,85.708c0,0 -3.1,38.2 -22.1,55.1l-29.9,3.7l-12.3,-32.2l2.3,-32.4l62,5.8z" class="st21" id="XMLID_165_"/>
     <path d="m225.62632,103.808l0,0c-3.5,-1 -5.5,-4.7 -4.5,-8.1l2.1,-7.5c1,-3.5 4.7,-5.5 8.1,-4.5l0,0c3.5,1 5.5,4.7 4.5,8.1l-2.1,7.5c-0.9,3.5 -4.6,5.5 -8.1,4.5z" class="st22" id="XMLID_164_"/>
     <path d="m198.12632,130.708l-2.1,0c-4,0 -7.2,-3.2 -7.2,-7.2l0,-3.7c0,-4 3.2,-7.2 7.2,-7.2l2.1,0c4,0 7.2,3.2 7.2,7.2l0,3.7c0,4 -3.3,7.2 -7.2,7.2z" class="st23" id="XMLID_163_"/>
     <path d="m168.62632,98.208l3.1,-37c1.1,-13.2 12.8,-23.1 26.1,-22l11,0.9c13.2,1.1 23.1,12.8 22,26.1l-2.8,33.1c-0.6,7.5 -11,29.3 -30.5,27.7c-20.3,-1.7 -29.5,-22 -28.9,-28.8z" class="st22" id="XMLID_162_"/>
     <path d="m199.52632,98.008c0,0 5,5.7 -2.5,6.1c0,0 10.3,0.9 2.5,-6.1z" class="st23" id="XMLID_161_"/>
     <path d="m184.92632,100.408c-0.1,1.6 -2.4,2.7 -5.1,2.5c-2.7,-0.2 -4.7,-1.7 -4.6,-3.3c0.1,-1.6 2.4,-2.7 5.1,-2.5c2.6,0.2 4.7,1.7 4.6,3.3z" class="st24" id="XMLID_160_"/>
     <path d="m222.52632,103.508c-0.1,1.6 -2.4,2.7 -5.1,2.5c-2.7,-0.2 -4.7,-1.7 -4.6,-3.3c0.1,-1.6 2.4,-2.7 5.1,-2.5s4.7,1.7 4.6,3.3z" class="st24" id="XMLID_159_"/>
     <path d="m183.92632,55.508c0,0 10.2,27.6 44.7,34.9l-0.4,7.6c0,0 9.6,-11 8.2,-34.3c-1.4,-23.3 -32.3,-40.1 -55,-27.4c-17.7,9.9 -17,31 -12.8,59.3l1.9,-19.6c-0.1,0 8.6,-8.7 13.4,-20.5z" class="st20" id="XMLID_158_"/>
     <path d="m181.42632,36.308c0,0 -12.6,2.1 -18.9,28.7c-6.3,26.6 -8.7,53 2.3,65c8.5,9.3 -11,29 17.5,40.7c0,0 -6.2,-9.9 -1,-22c5.3,-12 -1.7,-27.5 -7.7,-36.3c-6,-8.8 -7.3,-41.5 10.2,-56.9c17.5,-15.4 -2.4,-19.2 -2.4,-19.2z" class="st20" id="XMLID_156_"/>
    </g>
    <path d="m168.52632,99.208l0,0c-3.6,-0.3 -6.3,-3.5 -6,-7.1l0.6,-7.8c0.3,-3.6 3.5,-6.3 7.1,-6l0,0c3.6,0.3 6.3,3.5 6,7.1l-0.6,7.8c-0.3,3.6 -3.5,6.3 -7.1,6z" class="st22" id="XMLID_155_"/>
    <path d="m190.72632,47.808c1.7,7.9 9.7,23.1 28,28.8c18.3,5.8 -8.1,-1.4 -17.9,-21.6c-6.7,-14 -11.8,-15.2 -10.1,-7.2z" class="st25" id="XMLID_154_"/>
    <path d="m193.82632,80.008c0,0 -6.9,-5.7 -16,-0.5l-0.7,-2.9c0,0 8.8,-5.6 17.6,1.5l-0.9,1.9z" class="st21" id="XMLID_153_"/>
    <g id="OJOS_1_">
     <path d="m185.62632,93.308l0,0c-1,-0.1 -1.8,-1 -1.7,-2.1l0.2,-2.5c0.1,-1 1,-1.8 2.1,-1.7l0,0c1,0.1 1.8,1 1.7,2.1l-0.2,2.5c-0.1,1 -1,1.8 -2.1,1.7z" class="st26" id="XMLID_169_"/>
     <path d="m213.52632,95.608l0,0c-1,-0.1 -1.8,-1 -1.7,-2.1l0.2,-2.5c0.1,-1 1,-1.8 2.1,-1.7l0,0c1,0.1 1.8,1 1.7,2.1l-0.2,2.5c-0.2,1 -1.1,1.8 -2.1,1.7z" class="st26" id="XMLID_168_"/>
    </g>
    <g id="eyes-closed">
     <path d="m185.62632,91.708l0,0c-1,0 -1.8,-0.2 -1.7,-0.5l0.2,-0.6c0.1,-0.2 1,-0.4 2.1,-0.4l0,0c1,0 1.8,0.2 1.7,0.5l-0.2,0.6c-0.1,0.3 -1,0.5 -2.1,0.4z" class="st26" id="XMLID_14_"/>
     <path d="m213.52632,92.308l0,0c-1,0 -1.8,-0.2 -1.7,-0.5l0.2,-0.6c0.1,-0.2 1,-0.4 2.1,-0.4l0,0c1,0 1.8,0.2 1.7,0.5l-0.2,0.6c-0.2,0.2 -1.1,0.4 -2.1,0.4z" class="st26" id="XMLID_6_"/>
    </g>
    <g id="BOCA_1_">
     <path d="m203.12632,113.108c0,0 -7.3,1.3 -13.1,-2.7c-0.1,0 4,6.7 13.1,2.7z" class="st27" id="XMLID_230_"/>
    </g>
   </g>
   <g id="BRAZO_DERE_1_">
    <g id="svg_294">
     <path d="m201.32632,141.308c0,0 42.6,20.3 45,19.2c2.3,-1.1 24.8,-32.3 24.8,-32.3l-7.4,-0.8l-20.3,23.8l-26.2,-14.5l-15.9,4.6z" class="st22" id="XMLID_216_"/>
     <path d="m275.42632,122.808c0,0 4.8,-9.8 5.7,-20.4c0,0 -2.5,-0.3 -2.8,3.8c-0.3,3.9 -3.9,9.3 -3.9,9.3l1,7.3z" class="st23" id="XMLID_214_"/>
     <path d="m275.42632,122.808c0,0 4.2,-10.6 1.2,-19.6c0,0 -2,-0.2 -1.6,3.1c0.3,3.3 -1,11.1 -3,12.4c-0.1,0 0.5,4.4 3.4,4.1z" class="st23" id="XMLID_213_"/>
     <path d="m262.72632,134.508c0,0 12.6,-6.6 12.6,-12.2c0,-5.6 1.6,-10.4 -4.9,-15.8c0,0 -1.4,2.3 1.4,5.9c0,0 2.1,3.8 -2,9.3c0,0 -5.6,0.8 -8.6,6c0.1,-0.1 -0.9,5.1 1.5,6.8z" class="st22" id="XMLID_212_"/>
     <g id="phone_1_">
      <g id="svg_295">
       <path id="svg_296" d="m257.92632,148.508l-2,-1.2c-4,-2.4 -5.1,-6.8 -2.6,-9.8l22.7,-26.9c2.5,-3 7.8,-3.5 11.8,-1.1l2,1.2c4,2.4 5.1,6.8 2.6,9.8l-22.7,26.9c-2.5,3 -7.8,3.5 -11.8,1.1z" class="st28"/>
       <path id="svg_297" d="m254.32632,146.408l-2,-1.2c-4,-2.4 -5.1,-6.8 -2.6,-9.8l22.7,-26.9c2.5,-3 7.8,-3.5 11.8,-1.1l2,1.2c4,2.4 5.1,6.8 2.6,9.8l-22.6,26.9c-2.6,3 -7.9,3.5 -11.9,1.1z" class="st29"/>
      </g>
      <polygon id="svg_298" points="264.226318359375,145.80801010131836 250.42633056640625,137.70800399780273 276.226318359375,106.10799789428711 289.92633056640625,114.20800399780273 " class="st10"/>
      <path id="svg_299" d="m272.62632,130.608l-4.8,-2.9c-1.1,-0.7 -1.4,-1.9 -0.7,-2.7l0.4,-0.4c0.7,-0.8 2.2,-1 3.2,-0.3l4.8,2.9c1.1,0.7 1.4,1.9 0.7,2.7l-0.4,0.4c-0.6,0.8 -2.1,1 -3.2,0.3z" class="st30"/>
      <path id="svg_300" d="m276.02632,119.308l-4.9,-3c-1.1,-0.7 -1.4,-1.9 -0.7,-2.7l0.4,-0.4c0.7,-0.8 2.2,-1 3.2,-0.3l4.9,3c1.1,0.7 1.4,1.9 0.7,2.7l-0.4,0.4c-0.6,0.8 -2.1,1 -3.2,0.3z" class="st31"/>
      <path id="svg_301" d="m261.72632,136.908l-4.9,-3c-1.1,-0.7 -1.4,-1.9 -0.7,-2.7l0.4,-0.4c0.7,-0.8 2.2,-1 3.2,-0.3l4.9,3c1.1,0.7 1.4,1.9 0.7,2.7l-0.4,0.4c-0.6,0.8 -2.1,1 -3.2,0.3z" class="st31"/>
     </g>
     <path d="m256.32632,127.608c0,0 0,-4.5 1.9,-8.3c1.4,-2.7 2.2,-7 2.2,-7s2.3,-0.2 1.5,4.1c-0.8,4.3 0.4,6.4 0.4,6.4l-6,4.8z" class="st23" id="XMLID_215_"/>
    </g>
   </g>
   <g id="BRAZO_DERE-2">
    <g id="svg_302">
     <path d="m200.52632,134.408c0,0 34.1,32.6 36.8,32.3c2.5,-0.3 33.6,-23 33.6,-23l-6.8,-3.1l-26.7,16.3l-20.4,-21.9l-16.5,-0.6z" class="st22" id="XMLID_37_"/>
     <path d="m276.72632,139.908c0,0 7.6,-7.8 11.8,-17.6c0,0 -2.3,-1.1 -3.8,2.7c-1.5,3.6 -6.6,7.6 -6.6,7.6l-1.4,7.3z" class="st23" id="XMLID_35_"/>
     <path d="m276.72632,139.908c0,0 7.3,-8.8 7.3,-18.2c0,0 -1.8,-0.8 -2.5,2.4c-0.7,3.2 -4.4,10.2 -6.7,10.8c-0.1,0 -0.9,4.4 1.9,5z" class="st23" id="XMLID_34_"/>
     <path d="m261.02632,147.108c0,0 14,-2.3 15.8,-7.7c1.7,-5.3 4.8,-9.4 0.3,-16.5c0,0 -2,1.7 -0.5,6c0,0 0.8,4.3 -4.8,8.2c0,0 -5.6,-1 -10,3c0,0 -2.6,4.6 -0.8,7z" class="st22" id="XMLID_32_"/>
     <g id="phone_4_">
      <g id="svg_303">
       <path id="svg_304" d="m252.12632,158.908l-1.5,-1.8c-3.1,-3.5 -2.7,-8.1 0.6,-10.1l30,-18.5c3.3,-2.1 8.5,-0.9 11.6,2.6l1.5,1.8c3.1,3.5 2.7,8.1 -0.6,10.1l-30,18.5c-3.4,2.1 -8.6,0.9 -11.6,-2.6z" class="st28"/>
       <path id="svg_305" d="m249.32632,155.808l-1.5,-1.8c-3.1,-3.5 -2.7,-8.1 0.6,-10.1l30,-18.5c3.3,-2.1 8.5,-0.9 11.6,2.6l1.5,1.8c3.1,3.5 2.7,8.1 -0.6,10.1l-29.9,18.5c-3.5,2.1 -8.6,0.9 -11.7,-2.6z" class="st29"/>
      </g>
      <polygon id="svg_306" points="258.92633056640625,158.30801010131836 248.32632446289062,146.30801010131836 282.726318359375,124.30801010131836 293.226318359375,136.30801010131836 " class="st10"/>
      <path id="svg_307" d="m271.62632,146.508l-3.7,-4.3c-0.8,-1 -0.7,-2.2 0.2,-2.8l0.5,-0.3c0.9,-0.5 2.4,-0.3 3.1,0.7l3.7,4.3c0.8,1 0.7,2.2 -0.2,2.8l-0.5,0.3c-0.8,0.6 -2.3,0.3 -3.1,-0.7z" class="st30"/>
      <path id="svg_308" d="m278.42632,136.808l-3.7,-4.4c-0.8,-1 -0.7,-2.2 0.2,-2.8l0.5,-0.3c0.9,-0.5 2.4,-0.3 3.1,0.7l3.7,4.4c0.8,1 0.7,2.2 -0.2,2.8l-0.5,0.3c-0.8,0.6 -2.3,0.3 -3.1,-0.7z" class="st31"/>
      <path id="svg_309" d="m259.32632,149.108l-3.7,-4.4c-0.8,-1 -0.7,-2.2 0.2,-2.8l0.5,-0.3c0.9,-0.5 2.4,-0.3 3.1,0.7l3.7,4.4c0.8,1 0.7,2.2 -0.2,2.8l-0.5,0.3c-0.8,0.5 -2.3,0.3 -3.1,-0.7z" class="st31"/>
     </g>
     <path d="m257.12632,138.508c0,0 1.4,-4.3 4.4,-7.3c2.2,-2.1 4.3,-6 4.3,-6s2.2,0.5 0.1,4.4c-2.1,3.8 -1.6,6.2 -1.6,6.2l-7.2,2.7z" class="st23" id="XMLID_25_"/>
    </g>
   </g>
   <g id="CUERPO_1_">
    <g id="XMLID_67_">
     <polygon points="222.92633056640625,335.2079887390137 222.726318359375,344.5079765319824 216.92633056640625,344.5079765319824 216.82632446289062,335.2079887390137 " class="st23" id="XMLID_147_"/>
     <path d="m253.92632,357.508l-37.1,0l0,-2.5l0.1,-10.5l5.8,0c0,0 22.3,4 29.3,10.5c0.9,0.8 1.5,1.6 1.9,2.5z" class="st32" id="XMLID_146_"/>
     <path d="m225.62632,344.508l-2.1,4.5l4.2,1.2l2.1,-4.9c0.1,0.1 -1.5,-1.4 -4.2,-0.8z" class="st33" id="XMLID_145_"/>
     <path d="m230.82632,345.808l-2.1,4.5l4.2,1.2l2.1,-4.9c0,0.1 -1.5,-1.4 -4.2,-0.8z" class="st33" id="XMLID_144_"/>
     <path d="m253.92632,357.508l-37.1,0l0,-2.5l35.2,0c0.9,0.8 1.5,1.6 1.9,2.5z" class="st33" id="XMLID_143_"/>
     <polygon points="166.92633056640625,335.2079887390137 165.12631225585938,344.5079765319824 170.92633056640625,344.5079765319824 173.02630615234375,335.2079887390137 " class="st23" id="XMLID_142_"/>
     <path d="m133.92632,357.508l37.1,0l0,-2.5l-0.1,-10.5l-5.8,0c0,0 -22.3,4 -29.3,10.5c-0.9,0.8 -1.6,1.6 -1.9,2.5z" class="st32" id="XMLID_141_"/>
     <path d="m162.22632,344.508l2.1,4.5l-4.2,1.2l-2.1,-4.9c-0.1,0.1 1.5,-1.4 4.2,-0.8z" class="st33" id="XMLID_140_"/>
     <path d="m157.02632,345.808l2.1,4.5l-4.2,1.2l-2.1,-4.9c0,0.1 1.5,-1.4 4.2,-0.8z" class="st33" id="XMLID_139_"/>
     <path d="m133.92632,357.508l37.1,0l0,-2.5l-35.2,0c-0.9,0.8 -1.6,1.6 -1.9,2.5z" class="st33" id="XMLID_138_"/>
     <path d="m179.62632,140.808l-8.3,2.6l0.2,46.7l-10.1,44.7l8.9,4l9.8,-40.6l2.4,-40.3c-0.1,-0.1 0,-15 -2.9,-17.1z" class="st22" id="XMLID_137_"/>
     <path d="m189.42632,204.508c0,0 -6.9,13.1 -7.1,38.3l-18.9,95.8l13,1.6l24.8,-94.6c0.2,-2.7 5.3,-19.5 9.3,0.2l3.5,5.1l1.9,-18.3l-3.7,-28.3l-22.8,0l0,0.2z" class="st34" id="XMLID_136_"/>
     <path d="m228.52632,201.408c0,0 5.4,12.2 0,44.8c-5.5,33.1 -1.4,92.7 -1.4,92.7l-13.4,1.4l-0.9,-60.6l-5.1,-75.1l20.8,-3.2z" class="st34" id="XMLID_135_"/>
     <path d="m203.82632,135.208l-11.6,1.5c-0.9,0.1 -1.8,-0.5 -1.9,-1.4l-2.6,-20.3c-0.1,-0.9 0.5,-1.8 1.4,-1.9l11.6,-1.5c0.9,-0.1 1.8,0.5 1.9,1.4l2.6,20.3c0.1,1 -0.5,1.8 -1.4,1.9z" class="st22" id="XMLID_134_"/>
     <g id="XMLID_107_">
      <g id="XMLID_132_">
       <path d="m230.02632,211.908l-0.7,0c0,-0.9 0,-1.4 0,-1.4l0.7,0c0,0 0,0.5 0,1.4z" class="st35" id="XMLID_133_"/>
      </g>
      <g id="XMLID_110_">
       <path d="m224.32632,326.108c0,-0.8 -0.1,-1.8 -0.1,-2.9l0.7,0c0,1.1 0.1,2 0.1,2.9l-0.7,0zm-0.3,-5.7l-0.1,-2.9l0.7,0l0.1,2.9l-0.7,0zm-0.1,-5.7l-0.1,-2.9l0.7,0l0.1,2.9l-0.7,0zm-0.2,-5.8l-0.1,-2.9l0.7,0l0.1,2.9l-0.7,0zm-0.1,-5.7c0,-0.9 0,-1.9 0,-2.9l0.7,0c0,1 0,1.9 0,2.9l-0.7,0zm0,-5.7c0,-0.9 0,-1.9 0,-2.9l0.7,0c0,1 0,1.9 0,2.9l-0.7,0zm0.7,-5.7l-0.7,0c0,-1 0,-1.9 0,-2.9l0.7,0c0,1 0,1.9 0,2.9zm0,-5.8l-0.7,0c0,-1 0,-1.9 0,-2.9l0.7,0c0,1 0,2 0,2.9zm0.1,-5.7l-0.7,0c0,-1 0.1,-1.9 0.1,-2.9l0.7,0c0,1 -0.1,2 -0.1,2.9zm0.2,-5.7l-0.7,0c0,-1 0.1,-1.9 0.1,-2.9l0.7,0c0,1 -0.1,2 -0.1,2.9zm0.3,-5.7l-0.7,0c0.1,-1 0.1,-1.9 0.2,-2.9l0.7,0.1c-0.1,0.9 -0.2,1.8 -0.2,2.8zm0.4,-5.7l-0.7,-0.1c0.1,-1 0.2,-1.9 0.3,-2.9l0.7,0.1c-0.1,1 -0.2,1.9 -0.3,2.9zm0.6,-5.7l-0.7,-0.1c0.1,-1 0.2,-1.9 0.4,-2.8l0.7,0l0,0.1c-0.2,1 -0.3,1.9 -0.4,2.8zm0.8,-5.6l-0.7,-0.1c0.1,-1 0.3,-1.9 0.4,-2.8l0.7,0.1c-0.1,0.9 -0.3,1.8 -0.4,2.8zm0.7,-5.7l-0.7,-0.1c0.1,-1 0.2,-1.9 0.3,-2.8l0.7,0.1c0,0.9 -0.1,1.8 -0.3,2.8zm0.7,-5.7l-0.7,-0.1c0.1,-1 0.2,-1.9 0.3,-2.8l0.7,0.1c-0.1,0.9 -0.2,1.8 -0.3,2.8zm0.6,-5.7l-0.7,-0.1c0.1,-1 0.2,-1.9 0.3,-2.8l0.7,0.1c-0.1,0.9 -0.2,1.8 -0.3,2.8zm0.5,-5.7l-0.7,-0.1c0.1,-1 0.1,-1.9 0.2,-2.9l0.7,0c-0.1,1.1 -0.2,2 -0.2,3zm0.3,-5.7l-0.7,0c0.1,-1 0.1,-2 0.2,-2.9l0.7,0c0,0.9 -0.1,1.9 -0.2,2.9zm0.3,-5.7l-0.7,0c0,-1.1 0.1,-2 0.1,-2.9l0.7,0c0,0.8 0,1.8 -0.1,2.9z" class="st35" id="XMLID_111_"/>
      </g>
      <g id="XMLID_108_">
       <polygon points="224.52630615234375,330.4080009460449 224.42633056640625,329.00800704956055 225.12631225585938,328.9080009460449 225.226318359375,330.4080009460449 " class="st35" id="XMLID_109_"/>
      </g>
     </g>
     <g id="XMLID_83_">
      <path d="m167.22632,329.508l-0.7,-0.1l0.6,-2.8l0.7,0.1l-0.6,2.8zm1.1,-5.6l-0.7,-0.1l0.6,-2.8l0.7,0.1l-0.6,2.8zm1.1,-5.7l-0.7,-0.1l0.6,-2.8l0.7,0.1l-0.6,2.8zm1.1,-5.6l-0.7,-0.1l0.6,-2.8l0.7,0.1l-0.6,2.8zm1.1,-5.7l-0.7,-0.1l0.6,-2.8l0.7,0.1l-0.6,2.8zm1.1,-5.6l-0.7,-0.1l0.6,-2.8l0.7,0.1l-0.6,2.8zm1.1,-5.7l-0.7,-0.1l0.6,-2.8l0.7,0.1l-0.6,2.8zm1.1,-5.6l-0.7,-0.1l0.6,-2.8l0.7,0.1l-0.6,2.8zm1.1,-5.7l-0.7,-0.1l0.6,-2.8l0.7,0.1l-0.6,2.8zm1.2,-5.7l-0.7,-0.1l0.6,-2.8l0.7,0.1l-0.6,2.8zm1.1,-5.6l-0.7,-0.1l0.6,-2.8l0.7,0.1l-0.6,2.8zm1.1,-5.7l-0.7,-0.1l0.6,-2.8l0.7,0.1l-0.6,2.8zm1.1,-5.6l-0.7,-0.1l0.6,-2.8l0.7,0.1l-0.6,2.8zm1.1,-5.7l-0.7,-0.1l0.6,-2.8l0.7,0.1l-0.6,2.8zm1.1,-5.6l-0.7,-0.1l0.6,-2.8l0.7,0.1l-0.6,2.8zm1.1,-5.7l-0.7,-0.1l0.1,-0.5c0,0 0,-0.9 0,-2.3l0.7,0c0,1.5 -0.1,2.3 -0.1,2.3l0,0.6zm0.3,-5.8l-0.7,0c0,-0.9 0.1,-1.9 0.2,-2.9l0.7,0c-0.1,1 -0.2,2 -0.2,2.9zm0.3,-5.8l-0.7,-0.1c0.1,-0.9 0.2,-1.9 0.2,-2.9l0.7,0.1c0,1 -0.1,2 -0.2,2.9zm0.6,-5.7l-0.7,-0.1c0.1,-0.9 0.2,-1.9 0.4,-2.9l0.7,0.1c-0.2,1 -0.3,2 -0.4,2.9zm0.8,-5.7l-0.7,-0.1c0.2,-1 0.3,-1.9 0.5,-2.9l0.7,0.1c-0.2,1 -0.4,1.9 -0.5,2.9zm1,-5.6l-0.7,-0.2c0.2,-1 0.5,-1.9 0.7,-2.8l0.7,0.2c-0.2,0.8 -0.4,1.8 -0.7,2.8z" class="st35" id="XMLID_84_"/>
     </g>
     <polygon points="191.226318359375,135.70800399780273 179.62631225585938,140.80801010131836 183.32632446289062,163.20800399780273 222.82632446289062,156.40801620483398 217.62631225585938,136.50800704956055 204.226318359375,134.20800399780273 " class="st22" id="XMLID_82_"/>
     <polygon points="212.726318359375,333.4080009460449 227.62631225585938,332.1080131530762 228.226318359375,340.3080253601074 213.12631225585938,342.00800704956055 " class="st36" id="XMLID_81_"/>
     <polygon points="164.02630615234375,330.4080009460449 178.92633056640625,333.2079887390137 176.82632446289062,342.00800704956055 162.02630615234375,339.5079765319824 " class="st36" id="XMLID_80_"/>
     <path d="m187.92632,208.208c0,0 20.9,5.5 41.8,-2.8c0,0 0.1,-0.4 -0.3,-2c-0.3,-1.2 -0.8,-1.9 -0.8,-1.9s-18,6.1 -39.1,3c0,0 -0.4,0.4 -1,1.7c-0.6,1.2 -0.6,2 -0.6,2z" class="st36" id="XMLID_79_"/>
     <path d="m188.42632,217.508c0,0 8.2,3 10,-6l2.4,0c0,0 -1,11.5 -12.9,8.4l0.5,-2.4z" class="st35" id="XMLID_78_"/>
     <path d="m226.52632,216.008c0,0 -7.8,3.8 -10.5,-4.9l-2.4,0.3c0,0 2.2,11.4 13.7,7l-0.8,-2.4z" class="st35" id="XMLID_77_"/>
     <polygon points="207.726318359375,210.50799179077148 206.32632446289062,234.70798873901367 207.726318359375,234.70798873901367 208.82632446289062,210.50799179077148 " class="st35" id="XMLID_76_"/>
     <path d="m205.12632,205.308c0,0 -0.6,1.5 0,4.6c0,0 3.9,0.5 8.1,-0.5c0,0 0.4,-2 -0.3,-4.8c0,0.1 -4.2,0 -7.8,0.7z" class="st37" id="XMLID_75_"/>
     <g id="svg_310">
      <polygon points="176.02630615234375,219.30802536010742 191.02630615234375,174.70800399780273 187.92633056640625,173.1079978942871 171.92633056640625,217.60801315307617 " class="st38" id="XMLID_74_"/>
      <polygon points="170.82632446289062,217.60801315307617 180.02630615234375,225.20798873901367 184.32632446289062,224.90800094604492 175.32632446289062,217.60801315307617 " class="st38" id="XMLID_73_"/>
      <polygon points="169.62631225585938,263.8080253601074 158.12631225585938,252.00800704956055 170.82632446289062,217.60801315307617 180.02630615234375,225.20798873901367 " class="st39" id="XMLID_72_"/>
      <path d="m184.32632,224.908c0,0 -2.6,16.8 -6.4,40.5l-8.2,-1.6c0,0 2.5,-19.7 10.4,-38.7l4.2,-0.2z" class="st40" id="XMLID_71_"/>
      <polygon points="217.62631225585938,136.50800704956055 184.32632446289062,224.90800094604492 180.02630615234375,225.20798873901367 213.32632446289062,135.70800399780273 " class="st41" id="XMLID_70_"/>
     </g>
     <path d="m182.42632,157.808c0,0 5.5,-7.8 18.4,-5c0,0 12.5,-7.6 20.7,-1.4c0,0 3.3,3.6 0.4,20.1c-3.6,20.1 6.7,29.9 6.7,29.9s-18.5,6.7 -39.1,3c0,0 8.5,-14.1 0.5,-25.1c-9,-12.1 -7.6,-16.6 -7.6,-21.5z" class="st42" id="XMLID_69_"/>
     <path d="m170.22632,236.408c0,0 3.8,3.8 3.9,11.5c0,1.8 -1.3,8.8 -4,-3.2c0,0 -2.7,3.8 1.5,13.1c0,0 0.3,6.2 -3.7,2.5c0,0 -12.9,-2.1 -6.5,-25.5l8.8,1.6z" class="st22" id="XMLID_68_"/>
    </g>
   </g>
  </g>
 </g>
</svg>