<?xml version="1.0" encoding="utf-8"?>
<!-- Generator: Adobe Illustrator 16.0.0, SVG Export Plug-In . SVG Version: 6.00 Build 0)  -->
<!DOCTYPE svg PUBLIC "-//W3C//DTD SVG 1.1//EN" "http://www.w3.org/Graphics/SVG/1.1/DTD/svg11.dtd">
<svg version="1.1" id="Layer_1" xmlns="http://www.w3.org/2000/svg" xmlns:xlink="http://www.w3.org/1999/xlink" x="0px" y="0px"
	 width="20px" height="20px" viewBox="0 0 20 20" enable-background="new 0 0 20 20" xml:space="preserve">
<polygon fill-rule="evenodd" clip-rule="evenodd" fill="#9C9C9C" points="7.935,10.953 2.446,7.784 2.446,16.001 7.935,19.168 "/>
<polygon fill-rule="evenodd" clip-rule="evenodd" fill="#9C9C9C" points="7.935,19.168 2.446,16.001 2.446,16.047 2.455,16.089 
	2.463,16.131 2.476,16.165 2.497,16.198 2.518,16.228 2.539,16.248 2.568,16.27 8.052,19.437 8.026,19.416 8.001,19.395 
	7.98,19.365 7.964,19.336 7.951,19.298 7.943,19.257 7.935,19.215 "/>
<polygon fill-rule="evenodd" clip-rule="evenodd" fill="#EBEBEB" points="16.401,6.064 10.917,2.897 10.821,2.951 16.309,6.119 "/>
<polygon fill-rule="evenodd" clip-rule="evenodd" fill="#BDBDBD" points="16.279,3.753 10.792,0.584 10.767,0.572 10.733,0.562 
	10.699,0.557 10.662,0.557 10.624,0.563 10.586,0.574 10.544,0.593 10.502,0.614 9.929,0.942 2.865,5.019 2.823,5.044 2.781,5.078 
	2.74,5.111 2.702,5.148 2.664,5.19 2.631,5.234 2.601,5.281 2.568,5.329 8.056,8.496 8.085,8.448 8.119,8.402 8.152,8.36 
	8.19,8.318 8.228,8.278 8.27,8.245 8.307,8.213 8.349,8.186 15.417,4.112 15.986,3.781 16.028,3.76 16.07,3.743 16.112,3.73 
	16.149,3.727 16.188,3.727 16.221,3.73 16.25,3.739 "/>
<rect x="2.441" y="6.603" transform="matrix(0.866 0.5001 -0.5001 0.866 4.0535 -1.9192)" fill-rule="evenodd" clip-rule="evenodd" fill="#EBEBEB" width="6.333" height="0"/>
<path fill-rule="evenodd" clip-rule="evenodd" fill="#EBEBEB" d="M2.865,5.019L2.865,5.019L2.865,5.019z M8.349,8.188"/>
<path fill-rule="evenodd" clip-rule="evenodd" fill="#EBEBEB" d="M2.451,5.737L2.451,5.737L2.451,5.737z M7.935,8.904"/>
<rect x="2.024" y="7.319" transform="matrix(0.866 0.5001 -0.5001 0.866 4.3568 -1.6145)" fill-rule="evenodd" clip-rule="evenodd" fill="#EBEBEB" width="6.333" height="0.004"/>
<polygon fill-rule="evenodd" clip-rule="evenodd" fill="#2C3E50" points="8.031,10.66 2.542,7.491 2.542,7.729 8.031,10.898 "/>
<polygon fill-rule="evenodd" clip-rule="evenodd" fill="#9C9C9C" points="2.446,5.737 2.446,7.545 7.935,10.714 7.935,8.907 
	7.938,8.854 7.943,8.804 7.955,8.753 7.968,8.699 7.985,8.649 8.005,8.597 8.031,8.546 8.056,8.496 2.568,5.329 2.542,5.377 
	2.521,5.429 2.501,5.479 2.48,5.532 2.467,5.584 2.455,5.637 2.451,5.687 "/>
<polygon fill-rule="evenodd" clip-rule="evenodd" fill="#DEDBDB" points="8.031,10.898 2.542,7.729 2.446,7.784 7.935,10.953 "/>
<path fill-rule="evenodd" clip-rule="evenodd" fill="#EBEBEB" d="M7.935,10.953v8.215c0,0.13,0.046,0.223,0.117,0.269
	c0.075,0.046,0.18,0.038,0.293-0.029L15.982,15c0.117-0.063,0.222-0.176,0.297-0.31c0.071-0.126,0.122-0.277,0.122-0.407V6.064
	l-0.093,0.055V5.88l0.093-0.055l0.004-1.803c0-0.132-0.05-0.225-0.126-0.269c-0.075-0.044-0.176-0.038-0.293,0.027l-0.569,0.331
	L8.349,8.186v0.002l0,0V8.186c-0.113,0.065-0.218,0.18-0.293,0.31C7.98,8.628,7.935,8.772,7.935,8.907V8.904l0,0v0.002v1.808
	l0.096-0.055v0.239L7.935,10.953z"/>
<path fill-rule="evenodd" clip-rule="evenodd" fill="#E6EAEB" d="M7.935,10.953v8.215c0,0.13,0.046,0.223,0.117,0.269
	c0.075,0.046,0.18,0.038,0.293-0.029L15.982,15c0.117-0.063,0.222-0.176,0.297-0.31c0.076-0.126,0.122-0.277,0.122-0.407V6.064
	L7.935,10.953z"/>
<path fill-rule="evenodd" clip-rule="evenodd" fill="#E6EAEB" d="M7.935,8.907v1.808l8.467-4.889l0.004-1.803
	c0-0.132-0.05-0.225-0.126-0.269c-0.075-0.044-0.176-0.038-0.293,0.027L15.417,4.11L8.349,8.186v0.002l0,0V8.186
	c-0.113,0.065-0.218,0.18-0.293,0.31C7.98,8.628,7.935,8.772,7.935,8.907V8.904l0,0V8.907z"/>
<polygon fill-rule="evenodd" clip-rule="evenodd" fill="#3D566E" points="12.681,6.585 12.551,6.51 12.514,6.491 12.472,6.481 
	12.426,6.475 12.379,6.477 12.329,6.483 12.278,6.498 12.225,6.521 12.166,6.55 12.3,6.625 12.354,6.596 12.408,6.573 12.459,6.559 
	12.509,6.552 12.556,6.55 12.602,6.556 12.644,6.567 "/>
<polygon fill-rule="evenodd" clip-rule="evenodd" fill="#2C3E50" points="12.3,6.625 12.166,6.55 12.111,6.583 12.057,6.625 
	12.007,6.671 11.956,6.722 11.91,6.774 11.864,6.831 11.822,6.892 11.784,6.954 11.914,7.03 11.952,6.967 11.994,6.906 12.04,6.85 
	12.086,6.795 12.137,6.745 12.187,6.701 12.241,6.659 "/>
<polygon fill-rule="evenodd" clip-rule="evenodd" fill="#222F3B" points="11.914,7.03 11.784,6.954 11.747,7.019 11.718,7.086 
	11.688,7.153 11.667,7.22 11.65,7.287 11.634,7.356 11.625,7.423 11.625,7.488 11.755,7.564 11.759,7.499 11.768,7.432 11.78,7.363 
	11.797,7.296 11.818,7.229 11.848,7.162 11.877,7.095 "/>
<polygon fill-rule="evenodd" clip-rule="evenodd" fill="#2C3E50" points="11.755,7.564 11.625,7.488 11.625,7.551 11.634,7.61 
	11.65,7.662 11.667,7.708 11.688,7.75 11.718,7.786 11.747,7.817 11.784,7.84 11.914,7.916 11.877,7.891 11.848,7.861 11.818,7.824 
	11.797,7.784 11.78,7.736 11.768,7.686 11.759,7.626 "/>
<rect x="12.541" y="7.434" transform="matrix(0.8654 0.501 -0.501 0.8654 5.423 -5.3204)" fill-rule="evenodd" clip-rule="evenodd" fill="#5E9EB5" width="0.15" height="0.002"/>
<polygon fill-rule="evenodd" clip-rule="evenodd" fill="#5E9EB5" points="12.686,6.588 12.556,6.514 12.551,6.51 12.681,6.585 "/>
<path fill-rule="evenodd" clip-rule="evenodd" fill="#3D566E" d="M12.681,6.585c-0.096-0.056-0.234-0.048-0.381,0.04
	c-0.151,0.086-0.289,0.234-0.386,0.404c-0.101,0.169-0.159,0.36-0.159,0.534s0.059,0.295,0.159,0.352
	c0.097,0.057,0.234,0.048,0.386-0.038c0.146-0.088,0.285-0.237,0.381-0.406l0,0l0,0c0.097-0.167,0.159-0.36,0.159-0.534
	c0-0.169-0.059-0.291-0.154-0.348L12.681,6.585z"/>
<polygon fill-rule="evenodd" clip-rule="evenodd" fill="#3D566E" points="7.935,10.714 16.213,5.934 16.213,6.173 7.935,10.953 "/>
<polygon fill-rule="evenodd" clip-rule="evenodd" fill="#DEDBDB" points="7.838,10.898 16.309,6.01 16.401,6.064 7.935,10.953 "/>
<polygon fill-rule="evenodd" clip-rule="evenodd" fill="#8BC9E0" points="9.421,12.216 9.421,16.491 14.909,13.322 14.914,9.049 
	14.302,9.401 "/>
<polygon fill-rule="evenodd" clip-rule="evenodd" fill="#9C9C9C" points="9.041,11.638 8.45,11.297 8.45,11.297 8.445,11.301 
	8.441,11.307 8.441,11.313 8.441,11.317 8.437,11.324 8.437,11.33 8.437,11.334 8.437,11.339 8.437,11.617 8.437,11.623 
	8.437,11.625 8.437,11.632 8.441,11.634 8.441,11.638 8.441,11.64 8.445,11.643 8.45,11.646 9.041,11.988 9.036,11.985 
	9.036,11.981 9.032,11.979 9.032,11.978 9.032,11.973 9.028,11.969 9.028,11.965 9.028,11.958 9.028,11.682 9.028,11.676 
	9.028,11.672 9.032,11.665 9.032,11.661 9.032,11.654 9.036,11.648 9.036,11.645 9.041,11.638 "/>
<polygon fill-rule="evenodd" clip-rule="evenodd" fill="#9C9C9C" points="15.45,7.939 14.855,7.597 14.855,7.597 14.851,7.602 
	14.851,7.608 14.847,7.614 14.847,7.618 14.843,7.625 14.843,7.631 14.843,7.635 14.843,7.639 14.843,7.918 14.843,7.922 
	14.843,7.926 14.843,7.933 14.847,7.935 14.847,7.939 14.851,7.941 14.851,7.943 14.855,7.947 15.45,8.289 15.446,8.287 
	15.441,8.282 15.441,8.28 15.438,8.278 15.438,8.274 15.438,8.27 15.434,8.266 15.434,8.259 15.434,7.983 15.434,7.977 
	15.438,7.972 15.438,7.966 15.438,7.962 15.441,7.956 15.441,7.949 15.446,7.945 15.45,7.939 "/>
<path fill-rule="evenodd" clip-rule="evenodd" fill="#E6EAEB" d="M16.334,7.463c0-0.013-0.004-0.023-0.013-0.027
	c-0.008-0.006-0.021-0.006-0.033,0.002c-0.905,0.524-6.309,3.645-7.218,4.167c-0.008,0.009-0.021,0.021-0.029,0.033l0,0
	c-0.009,0.015-0.013,0.029-0.013,0.044v0.276c0,0.015,0.004,0.023,0.013,0.03c0.008,0.004,0.021,0.004,0.029-0.003
	c0.909-0.525,6.313-3.645,7.218-4.168c0.013-0.006,0.025-0.019,0.033-0.034l0,0c0.009-0.015,0.013-0.029,0.013-0.042V7.463z"/>
<path fill-rule="evenodd" clip-rule="evenodd" fill="#BDBDBD" d="M16.321,7.436L16.07,7.292l-0.344-0.199V7.09h-0.004h-0.005h-0.004
	H15.71l-0.004,0.002l-0.005,0.002l-0.004,0.002l-0.809,0.467L14.88,7.566L14.876,7.57l-0.004,0.004l-0.004,0.004l-0.005,0.004
	l-0.004,0.004v0.006l-0.004,0.004l0.331,0.191l-5.535,3.194l-0.331-0.191L9.317,10.79l0,0H9.313H9.309H9.304L9.3,10.792
	l-0.004,0.002l-0.004,0.002l-0.813,0.467l-0.004,0.003L8.471,11.27l-0.004,0.004l-0.004,0.004l-0.004,0.005l-0.004,0.004
	L8.45,11.292v0.005l0.591,0.341l0.004-0.004l0.004-0.006l0.004-0.005v-0.004l0.004-0.002l0.004-0.007l0.004-0.002l0.004-0.004
	c0.921-0.528,6.305-3.639,7.218-4.167l0.008-0.002V7.434h0.009l0.004-0.002l0,0l0.005,0.002h0.004L16.321,7.436z"/>
<polygon fill-rule="evenodd" clip-rule="evenodd" fill="#AFDFF0" points="9.421,12.216 9.421,16.182 14.646,13.167 14.646,9.202 
	14.302,9.401 "/>
<polygon fill-rule="evenodd" clip-rule="evenodd" fill="#77B2C7" points="14.646,13.167 14.909,13.322 14.914,9.049 14.646,9.202 
	"/>
<path fill-rule="evenodd" clip-rule="evenodd" fill="#943B3B" d="M4.897,5.442l0.008,0.117l0.029,0.118l0.05,0.115l0.067,0.113
	L5.14,6.014l0.109,0.105l0.125,0.101l0.147,0.092l0.159,0.084L5.852,6.47l0.185,0.061l0.188,0.052l0.197,0.038L6.619,6.65
	l0.205,0.017l0.205,0.004L7.23,6.667L7.432,6.65l0.201-0.029l0.197-0.04l0.188-0.05l0.18-0.061l0.176-0.075l0.159-0.084L8.68,6.219
	l0.125-0.101l0.109-0.105l0.088-0.109L9.07,5.794l0.05-0.117l0.029-0.118l0.008-0.117V5.293L9.149,5.411L9.12,5.528L9.07,5.643
	L9.002,5.756L8.915,5.865L8.806,5.97L8.68,6.07L8.533,6.165L8.374,6.249L8.198,6.32l-0.18,0.065L7.83,6.435L7.633,6.473L7.432,6.5
	L7.23,6.519L7.029,6.523L6.824,6.517L6.619,6.502L6.422,6.473L6.225,6.435L6.037,6.382L5.852,6.32L5.681,6.249L5.521,6.165
	L5.375,6.07L5.249,5.97L5.14,5.865L5.052,5.756L4.985,5.643l-0.05-0.115L4.905,5.411L4.897,5.293L4.893,5.276v0.149L4.897,5.442
	L4.897,5.442z M7.029,4.062V4.48l0,0V4.062L7.029,4.062z"/>
<path fill-rule="evenodd" clip-rule="evenodd" fill="#BF4A3D" d="M4.897,5.293c0,0.314,0.206,0.631,0.625,0.872
	c0.415,0.239,0.963,0.358,1.508,0.358c0.545,0,1.089-0.12,1.504-0.358c0.415-0.241,0.625-0.557,0.625-0.872
	c0-0.314-0.209-0.63-0.625-0.869C8.119,4.183,7.574,4.062,7.029,4.062l0,0H7.025c-0.541,0-1.089,0.122-1.504,0.362
	c-0.411,0.237-0.62,0.545-0.628,0.853L4.897,5.293z"/>
<path fill-rule="evenodd" clip-rule="evenodd" fill="#943B3B" d="M9.049,3.121l0.008,0.117l0.029,0.117l0.05,0.115l0.067,0.113
	l0.088,0.109l0.109,0.104l0.125,0.101L9.673,3.99l0.159,0.086l0.176,0.073l0.18,0.061l0.188,0.052L10.574,4.3l0.201,0.029
	l0.201,0.017l0.201,0.006l0.205-0.006l0.206-0.017L11.784,4.3l0.197-0.038L12.17,4.21l0.185-0.061l0.172-0.073l0.159-0.086
	l0.146-0.092l0.125-0.101l0.109-0.104l0.088-0.109l0.067-0.113l0.05-0.115l0.029-0.117l0.009-0.117V2.972l-0.009,0.12l-0.029,0.115
	l-0.05,0.117l-0.067,0.111l-0.088,0.109l-0.109,0.105L12.832,3.75l-0.146,0.092l-0.159,0.085L12.35,4.001l-0.18,0.061l-0.188,0.052
	l-0.197,0.038l-0.196,0.03l-0.206,0.017l-0.205,0.006l-0.201-0.006l-0.201-0.017l-0.201-0.03l-0.197-0.038l-0.188-0.052l-0.18-0.061
	L9.832,3.927L9.673,3.842L9.526,3.75L9.401,3.649L9.292,3.544L9.204,3.435L9.137,3.324l-0.05-0.117L9.057,3.092l-0.008-0.12V2.956
	v0.149V3.121L9.049,3.121z M11.177,1.743V2.16l0,0V1.741V1.743z"/>
<path fill-rule="evenodd" clip-rule="evenodd" fill="#BF4A3D" d="M9.049,2.972c0,0.314,0.209,0.631,0.624,0.87
	c0.415,0.241,0.959,0.362,1.504,0.362c0.545,0,1.094-0.122,1.509-0.362c0.419-0.239,0.624-0.555,0.624-0.87
	c0-0.314-0.205-0.628-0.624-0.869c-0.415-0.241-0.96-0.36-1.509-0.36V1.741l0,0c-0.544,0-1.089,0.122-1.504,0.362
	C9.262,2.34,9.053,2.647,9.049,2.956V2.972z"/>
</svg>
