<?xml version="1.0" encoding="utf-8"?>
<!-- Generator: Adobe Illustrator 16.0.0, SVG Export Plug-In . SVG Version: 6.00 Build 0)  -->
<!DOCTYPE svg PUBLIC "-//W3C//DTD SVG 1.1//EN" "http://www.w3.org/Graphics/SVG/1.1/DTD/svg11.dtd">
<svg version="1.1" id="Layer_1" xmlns="http://www.w3.org/2000/svg" xmlns:xlink="http://www.w3.org/1999/xlink" x="0px" y="0px"
	 width="50px" height="50px" viewBox="0 0 50 50" enable-background="new 0 0 50 50" xml:space="preserve">
<g>
	<g>
		<g>
			<g>
				<path fill-rule="evenodd" clip-rule="evenodd" fill="#F4FAFC" d="M23.811,35.241c1.2-2.05,5.162-1.232,5.498,0.377
					c3.597-0.175,5.448,4.672,1.034,6.286c2.381,2.691-3.96,6.533-6.07,4.534c-0.762,2.473-5.23,2.57-5.649,0.081
					c-2.291,1.222-4.997-1.215-4.266-2.396c-2.311,0.607-5.153-4.113-0.051-5.422c0.234-1.954,2.593-3.461,4.974-1.712
					C19.773,35.625,22.778,34.141,23.811,35.241z"/>
				<path fill-rule="evenodd" clip-rule="evenodd" fill="#DDE5E8" d="M32.188,36.849c1.253,1.509,1.074,3.988-1.845,5.056
					c2.381,2.691-3.96,6.533-6.07,4.534c-0.762,2.473-5.23,2.57-5.649,0.081c-2.291,1.222-4.997-1.215-4.266-2.396
					c-1.915,0.503-4.194-2.651-2.017-4.492c-2.019,2.262,0.948,4.451,2.556,3.606c-0.683,1.101,1.63,4.403,4.201,2.477
					c0.391,2.325,4.598,2.527,5.311-0.271c1.972,1.868,7.363-1.646,5.14-4.159C33.033,40.29,32.754,38.308,32.188,36.849z"/>
			</g>
			<g>
				<path fill-rule="evenodd" clip-rule="evenodd" fill="#F4FAFC" d="M23.077,33.948c0.922-1.839,4.393-1.729,4.773-0.356
					c2.195-0.177,3.792,2.247,0.063,3.891c1.501,1.49-0.475,2.767-2.118,2.804c-0.12,0.805-1.327,1.574-2.202,1.26
					c-0.57,1.38-4.422,2.466-4.499,0.291c-1.883,0.907-2.844-0.408-2.277-1.47c-1.828,0.67-4.592-2.091-0.244-3.978
					c0.094-1.703,2.136-2.662,3.654-1.824C20.577,33.358,22.121,33.056,23.077,33.948z"/>
				<path fill-rule="evenodd" clip-rule="evenodd" fill="#DDE5E8" d="M29.521,34.047c1.143,0.807,0.887,2.497-1.607,3.436
					c1.501,1.49-0.475,2.767-2.118,2.804c-0.12,0.805-1.327,1.574-2.202,1.26c-0.57,1.38-4.422,2.466-4.499,0.291
					c-1.883,0.907-2.844-0.408-2.277-1.47c-1.589,0.582-3.884-1.428-1.602-3.202c-1.605,1.539-0.289,2.894,2.112,2.8
					c-0.627,1.393,1.764,1.929,2.156,0.849c-0.034,2.227,3.347,1.278,3.554-0.219c1.3,0.594,2.848-0.134,2.405-1.262
					c2.113,0.065,2.891-1.077,1.885-2.253C29.172,36.358,30.605,35.539,29.521,34.047z"/>
			</g>
			<g>
				<path fill-rule="evenodd" clip-rule="evenodd" fill="#F4FAFC" d="M23.625,25.482c0.064,2.21-0.963,7.708,1.368,8.304
					c1.25,0.32,1.481,1.601-1.03,2.714c-0.429,0.961-3.294,2.809-3.819,0.775c-2.325,0.236-1.665-1.182-0.668-2.08
					c0.288-0.259,0.664-0.488,0.925-0.891C21.781,32.17,22.708,28.173,23.625,25.482z"/>
				<path fill-rule="evenodd" clip-rule="evenodd" fill="#DDE5E8" d="M23.625,25.482v0.014c-0.436,1.907-1.737,6.162-3.016,8.862
					c-0.2,0.421-0.414,0.759-0.749,1.042c-1.358,1.157-0.137,1.714,0.783,1.15c-0.046,1.345,2.527,1.104,3.4-0.298
					c1.854-0.279,1.878-1.398,1.506-2.232c1.299,0.675,1.151,2.295-1.168,2.556c-0.43,0.961-3.713,2.733-4.238,0.7
					c-2.325,0.236-2.06-1.901-0.877-2.118c0.438-0.079,0.921-0.623,1.218-1.106C21.807,31.88,22.734,28.096,23.625,25.482z"/>
			</g>
		</g>
		<g>
			<g>
				<path fill-rule="evenodd" clip-rule="evenodd" fill="#F57113" d="M22.947,28.834c-0.233-0.519-0.882-2.466-0.928-2.998
					l-0.24,0.592c-0.583-2.141-0.286-2.834,0.712-4.584l3.243,0.48c0.21,2.044,0.329,2.787-0.997,4.635l-0.019-0.638
					C24.49,26.804,23.407,28.323,22.947,28.834z"/>
				<path fill-rule="evenodd" clip-rule="evenodd" fill="#FA9A2C" d="M23.245,27.052c-0.165-0.367-0.622-1.741-0.655-2.116
					l-0.17,0.417c-0.411-1.511-0.201-2,0.503-3.235l2.289,0.339c0.149,1.443,0.232,1.968-0.704,3.272l-0.012-0.449
					C24.334,25.619,23.57,26.691,23.245,27.052z"/>
				<path fill-rule="evenodd" clip-rule="evenodd" fill="#FAC545" d="M23.463,25.764c-0.121-0.268-0.456-1.274-0.479-1.549
					l-0.124,0.306c-0.301-1.105-0.147-1.464,0.369-2.368l1.675,0.249c0.108,1.056,0.17,1.44-0.515,2.396l-0.011-0.33
					C24.26,24.715,23.701,25.501,23.463,25.764z"/>
				<path fill-rule="evenodd" clip-rule="evenodd" fill="#FFDF94" d="M23.652,24.648c-0.086-0.189-0.325-0.907-0.342-1.103
					l-0.088,0.217c-0.214-0.788-0.104-1.042,0.263-1.686l1.193,0.176c0.077,0.752,0.121,1.026-0.367,1.706l-0.007-0.235
					C24.22,23.902,23.821,24.46,23.652,24.648z"/>
				<path opacity="0.3" fill-rule="evenodd" clip-rule="evenodd" fill="#FFFFD1" d="M25.709,22.993
					c-0.443,0.62-1.493,0.682-2.374,0.354c0.044,0.309,0.531,3.497,0.494,3.964c0.209-0.425,0.961-1.492,1.088-1.961l0.035,0.599
					C25.469,25.105,25.854,23.994,25.709,22.993z"/>
				<path opacity="0.5" fill-rule="evenodd" clip-rule="evenodd" fill="#B3510B" d="M22.947,28.834
					c-0.233-0.519-0.882-2.466-0.928-2.998l-0.24,0.592c-0.583-2.141-0.286-2.834,0.712-4.584l0.724,0.106
					c-0.816,0.839-0.955,1.976-0.999,2.877c0.078-0.104,0.168-0.187,0.403-0.331c-0.148,1.581,0.011,2.868,0.332,4.332
					L22.947,28.834z"/>
				<path opacity="0.32" fill-rule="evenodd" clip-rule="evenodd" fill="#FFFFD1" d="M25.591,23.457
					c-0.36,0.354-1.104,0.482-1.758,0.375c0.218,0.835,0.304,2.134,0.277,2.612c0.149-0.305,0.865-1.593,0.956-1.93l0.065,0.602
					C25.442,24.513,25.551,23.982,25.591,23.457z"/>
				
					<ellipse transform="matrix(0.1772 -0.9842 0.9842 0.1772 -2.117 42.038)" fill-rule="evenodd" clip-rule="evenodd" fill="#FF9B54" cx="24.083" cy="22.285" rx="0.956" ry="1.703"/>
			</g>
			<g>
				<path fill-rule="evenodd" clip-rule="evenodd" fill="#E99E05" d="M26.265,22.92c0.363-0.726,0.651-1.385,1.014-2.102
					l-5.22-0.817c-0.102-0.172-0.422-0.049-0.44-0.219l0,0c0.062,0.785,0.1,1.532,0.207,2.326c0.01,0.279,0.168,0.577,0.482,0.852
					c0.441,0.387,1.022,0.587,1.571,0.667C24.708,23.748,25.795,23.752,26.265,22.92z"/>
				<path fill-rule="evenodd" clip-rule="evenodd" fill="#D18C02" d="M23.207,20.18l-1.148-0.179
					c-0.102-0.172-0.422-0.049-0.44-0.219l0,0c0.062,0.785,0.1,1.532,0.207,2.326c0.01,0.279,0.168,0.577,0.482,0.852
					c0.427,0.374,1.014,0.586,1.571,0.667c0.804,0.117,1.848,0.125,2.34-0.63c-0.652,0.681-2.268,0.427-2.791,0.134
					C23.333,22.131,23.255,21.149,23.207,20.18z"/>
				<path fill-rule="evenodd" clip-rule="evenodd" fill="#B57900" d="M26.768,19.236c-0.987-0.859-2.802-1.206-4.054-0.773
					s-1.468,1.48-0.481,2.34c0.987,0.86,2.802,1.206,4.055,0.772C27.539,21.143,27.755,20.095,26.768,19.236z"/>
				<path fill-rule="evenodd" clip-rule="evenodd" fill="#A35F00" d="M26.647,19.278c-0.935-0.814-2.654-1.143-3.84-0.732
					c-1.186,0.41-1.39,1.402-0.456,2.216c0.935,0.815,2.654,1.142,3.84,0.732C27.378,21.083,27.582,20.092,26.647,19.278z"/>
				<path fill-rule="evenodd" clip-rule="evenodd" fill="#F5B20E" d="M30.165,12.865c0.076-1.066,0.018-2.156-0.174-3.196
					c-0.053-0.289-0.117-0.575-0.193-0.858c-1.368-4.496-2.983-5.759-6.364-1.221c-0.137,0.183-0.262,0.375-0.386,0.568
					c-0.55,0.862-1.025,1.878-1.365,2.93c-0.779,2.409-0.926,5.781-0.194,8.203c0.083,0.285,0.169,0.51,0.28,0.711
					c0.102,0.187,0.223,0.354,0.437,0.541c1.027,0.884,2.846,1.205,4.085,0.779c0.375-0.131,0.634-0.293,0.875-0.565
					c0.181-0.204,0.378-0.48,0.513-0.667C29.047,18.18,29.993,15.281,30.165,12.865z"/>
				<path fill-rule="evenodd" clip-rule="evenodd" fill="#E99E05" d="M23.434,7.59c-0.479,0.644-0.941,1.491-1.253,2.195
					c-0.26,0.583-0.479,1.19-0.648,1.807c-0.644,2.358-0.726,5.441-0.044,7.699c0.083,0.285,0.169,0.51,0.28,0.711
					c0.499,0.912,1.814,1.374,2.786,1.478c0.613,0.066,1.224,0.018,1.736-0.158c0.372-0.13,0.52-0.201,0.87-0.56
					c-1.064,0.783-2.914,0.474-3.986-0.13c-0.606-3.751-0.524-7.397,1-10.376c0.344,0.165,3.284,1.127,4.722-0.165l-5.384-2.464
					c0.069-0.103,0.139-0.204,0.212-0.302c0.535-0.717,1.024-1.288,1.476-1.726C24.669,6.059,24.084,6.716,23.434,7.59z"/>
				<polygon fill-rule="evenodd" clip-rule="evenodd" fill="#838489" points="27.268,20.436 27.325,20.362 27.264,20.442 
					27.268,20.436 				"/>
				<path fill-rule="evenodd" clip-rule="evenodd" fill="#FFE100" d="M29.689,8.41c-0.425-1.431-1.126-3.159-2.154-4.251
					c-0.02-0.021-0.043-0.046-0.067-0.071c-0.017-0.019-0.065-0.072-0.12-0.082c-0.052-0.009-0.11,0.024-0.138,0.038
					c-1.425,0.686-2.803,2.118-3.692,3.375c-0.056,0.08-0.107,0.163-0.141,0.238c-0.207,0.448-0.077,0.922,0.204,1.313
					c0.271,0.377,0.679,0.676,1.067,0.884c0.054,0.031,0.108,0.06,0.166,0.088c1.057,0.532,2.556,0.682,3.607,0.362
					c0.386-0.118,0.757-0.306,1.019-0.582c0.128-0.137,0.229-0.296,0.289-0.483c0.039-0.121,0.06-0.25,0.055-0.369
					C29.776,8.714,29.732,8.557,29.689,8.41z"/>
				<path fill-rule="evenodd" clip-rule="evenodd" fill="#F7CA00" d="M27.365,4.012c-0.005-0.002-0.011-0.004-0.018-0.005
					c-0.052-0.009-0.11,0.024-0.138,0.038c-1.425,0.686-2.803,2.118-3.692,3.375c-0.056,0.08-0.107,0.163-0.141,0.238
					c-0.207,0.448-0.077,0.922,0.204,1.313c0.004,0.005,0.008,0.011,0.013,0.017l0.002,0.004l0.01,0.014l0.002,0.002
					c0.008,0.011,0.017,0.022,0.025,0.032l0.002,0.003c0.004,0.005,0.007,0.01,0.012,0.015l0.001,0
					c0.004,0.006,0.008,0.011,0.014,0.017l0,0c0.008,0.011,0.018,0.021,0.026,0.032l0.003,0.003
					c0.014,0.016,0.027,0.031,0.041,0.047l0.002,0.001c0.005,0.005,0.009,0.01,0.014,0.015v0c0.016,0.016,0.03,0.032,0.046,0.048
					l0,0c0.015,0.016,0.03,0.032,0.046,0.047l0.001,0c0.01,0.01,0.021,0.021,0.031,0.031v0l0.016,0.014l0.001,0.001
					c0.031,0.03,0.064,0.06,0.097,0.088l0.002,0.001l0.015,0.012l0.002,0.003c0.01,0.008,0.022,0.017,0.032,0.026l0.003,0.003
					l0.013,0.01l0.004,0.003c0.01,0.008,0.021,0.017,0.032,0.026l0.002,0.002l0.015,0.011l0.003,0.002l0.012,0.01l0.005,0.003
					l0.016,0.012l0.004,0.003l0.012,0.008l0.005,0.005l0.015,0.01l0.001,0l0.017,0.013l0.003,0.002l0.014,0.01l0.004,0.003
					l0.014,0.009l0.003,0.003l0.015,0.01l0.009,0.006l0.007,0.005l0.008,0.006l0.011,0.007l0.004,0.003l0.016,0.011l0.005,0.003
					l0.011,0.008l0.007,0.005l0.008,0.005l0.01,0.006l0.008,0.006l0.006,0.004l0.014,0.009l0,0c0.092,0.059,0.186,0.114,0.277,0.163
					c0.054,0.031,0.108,0.06,0.166,0.088c1.057,0.532,2.556,0.682,3.607,0.362c0.377-0.115,0.783-0.313,1.053-0.62
					c-0.477,0.341-2.429,1.344-4.952-0.457C25.175,7.434,26.089,5.742,27.365,4.012z"/>
				<path fill-rule="evenodd" clip-rule="evenodd" fill="#FFF047" d="M27.468,4.364c-0.266,0.404-1.749,2.933-2.208,4.977
					c1.074,0.703,3.339,1.015,4.27-0.387C29.149,7.335,28.359,5.429,27.468,4.364z"/>
				<path fill-rule="evenodd" clip-rule="evenodd" fill="#FFF799" d="M27.503,4.573c-0.015,0.683-0.238,2.186-0.515,3.721
					c-0.323,1.801,2.347,1.569,1.872-0.419C28.59,6.732,27.949,5.439,27.503,4.573z"/>
				<path fill-rule="evenodd" clip-rule="evenodd" fill="#F5B20E" d="M26.771,21.508c-0.997,0.675-2.677,0.443-3.253,0.208
					c0.009,0.428,0.07,0.855,0.097,1.283c1.093,0.384,2.013,0.289,2.433-0.091C26.284,22.693,26.544,22.049,26.771,21.508z"/>
				<path fill-rule="evenodd" clip-rule="evenodd" fill="#FFC517" d="M26.551,21.736c-0.634,0.532-2.166,0.444-2.653,0.267
					c0.005,0.241,0.002,0.385,0.016,0.564c0.025,0.321,0.073,0.329,0.366,0.405c0.764,0.198,1.402,0.056,1.687-0.198
					C26.166,22.596,26.363,22.174,26.551,21.736z"/>
				<path fill-rule="evenodd" clip-rule="evenodd" fill="#FFC517" d="M29.68,9.911c-0.801,1.238-3.167,1.681-5.041,1.184
					c-0.704,2.138-0.928,5.879-0.517,9.133c0.882,0.544,2.385,0.419,3.15-0.004C29.706,16.588,29.938,12.811,29.68,9.911z"/>
				<path fill-rule="evenodd" clip-rule="evenodd" fill="#FFDC42" d="M29.443,10.728c-0.481,0.745-1.646,1.08-2.842,1.097
					c-0.119,1.659-0.966,7.334-1.107,8.359c0.704,0.084,1.218-0.03,1.653-0.271C28.748,16.902,29.596,13.157,29.443,10.728z"/>
				<g>
					
						<ellipse transform="matrix(0.1771 -0.9842 0.9842 0.1771 7.2628 36.6442)" fill-rule="evenodd" clip-rule="evenodd" fill="#E99E05" cx="25.545" cy="13.979" rx="2.277" ry="2.331"/>
					<path fill-rule="evenodd" clip-rule="evenodd" fill="#FFDC42" d="M25.279,15.462c-0.82-0.148-1.367-0.931-1.219-1.75
						c0.147-0.819,0.932-1.364,1.753-1.217c0.819,0.147,1.364,0.932,1.218,1.752C26.883,15.066,26.099,15.61,25.279,15.462
						L25.279,15.462z M25.933,11.829c-1.189-0.214-2.327,0.575-2.54,1.763c-0.214,1.187,0.576,2.324,1.766,2.538
						c1.188,0.214,2.326-0.576,2.54-1.763C27.912,13.179,27.122,12.043,25.933,11.829z"/>
					<path fill-rule="evenodd" clip-rule="evenodd" fill="#D18C02" d="M25.279,15.462c0.817,0.147,1.605-0.399,1.752-1.215
						c0.146-0.818-0.4-1.604-1.218-1.752c-0.818-0.147-1.606,0.399-1.753,1.217C23.913,14.528,24.46,15.315,25.279,15.462z"/>
					<path fill-rule="evenodd" clip-rule="evenodd" fill="#B57900" d="M25.813,12.495c0.819,0.147,1.364,0.932,1.218,1.752
						c-0.017,0.093-0.042,0.182-0.074,0.268c-0.005-0.713-0.516-1.343-1.243-1.474c-0.727-0.131-1.426,0.282-1.677,0.949
						c-0.002-0.092,0.006-0.185,0.023-0.278C24.207,12.893,24.992,12.348,25.813,12.495z"/>
					<circle fill-rule="evenodd" clip-rule="evenodd" fill="#E99E05" cx="25.86" cy="12.234" r="0.16"/>
					<circle fill-rule="evenodd" clip-rule="evenodd" fill="#E99E05" cx="25.231" cy="15.724" r="0.161"/>
					<circle fill-rule="evenodd" clip-rule="evenodd" fill="#E99E05" cx="27.292" cy="14.294" r="0.161"/>
					<circle fill-rule="evenodd" clip-rule="evenodd" fill="#E99E05" cx="23.799" cy="13.665" r="0.161"/>
					<circle fill-rule="evenodd" clip-rule="evenodd" fill="#E99E05" cx="27.002" cy="12.967" r="0.161"/>
					<circle fill-rule="evenodd" clip-rule="evenodd" fill="#E99E05" cx="24.088" cy="14.99" r="0.161"/>
					<circle fill-rule="evenodd" clip-rule="evenodd" fill="#E99E05" cx="26.558" cy="15.436" r="0.161"/>
					<circle fill-rule="evenodd" clip-rule="evenodd" fill="#E99E05" cx="24.533" cy="12.523" r="0.161"/>
				</g>
				<g>
					<g>
						<path fill-rule="evenodd" clip-rule="evenodd" fill="#FFE100" d="M28.599,17.82l-0.83,0.299
							c0.624,3.714,0.123,5.736-0.374,8.818l0.83-0.301l-0.001-0.001c0.396-1.428,0.996-2.927,1.186-4.376
							c0.083-0.646,0.09-1.288-0.01-1.964C29.271,19.43,28.996,18.633,28.599,17.82z"/>
						<path fill-rule="evenodd" clip-rule="evenodd" fill="#FFF047" d="M28.586,18.074l-0.599,0.19
							c0.519,1.148,0.924,2.58,0.832,3.864c-0.109,1.515-0.705,3.146-1.183,4.513l0.524-0.188c0.525-1.432,1.129-3.471,1.204-4.729
							C29.428,20.669,29.179,19.289,28.586,18.074z"/>
						<path fill-rule="evenodd" clip-rule="evenodd" fill="#FFF799" d="M28.553,18.204l-0.379,0.119
							c0.546,0.621,0.966,2.146,0.87,3.565c-0.087,1.282-0.365,2.671-0.776,4.188c0.492-1.34,0.913-3.276,0.983-4.455
							C29.31,20.633,29.107,19.34,28.553,18.204z"/>
						<path fill-rule="evenodd" clip-rule="evenodd" fill="#F7CA00" d="M27.769,18.119l-1.397,3.359
							c0.498,1.519,0.867,3.293,1.023,5.459C28.245,23.874,29.519,21.708,27.769,18.119z"/>
						<path fill-rule="evenodd" clip-rule="evenodd" fill="#F5B20E" d="M27.769,18.119l-1.397,3.359
							c0.498,1.519,0.867,3.293,1.023,5.459C27.994,24.052,27.521,20.684,27.769,18.119z"/>
					</g>
					<g>
						<path fill-rule="evenodd" clip-rule="evenodd" fill="#FFE100" d="M21.344,16.514l0.673,0.57
							c-1.879,3.264-2.115,5.333-2.725,8.395l-0.673-0.571h0.002c0.126-1.477,0.087-3.091,0.416-4.515
							c0.146-0.635,0.364-1.239,0.694-1.837C20.153,17.788,20.689,17.138,21.344,16.514z"/>
						<path fill-rule="evenodd" clip-rule="evenodd" fill="#FFF047" d="M21.268,16.756l0.495,0.388
							c-0.887,0.895-1.767,2.095-2.128,3.332c-0.427,1.458-0.437,3.193-0.466,4.642l-0.425-0.361
							c0.007-1.525,0.152-3.645,0.521-4.85C19.574,18.895,20.289,17.688,21.268,16.756z"/>
						<path fill-rule="evenodd" clip-rule="evenodd" fill="#FFF799" d="M21.253,16.889l0.315,0.243
							c-0.729,0.393-1.654,1.675-2.059,3.039c-0.366,1.231-0.59,2.63-0.735,4.197c0.007-1.429,0.288-3.39,0.633-4.519
							C19.697,18.902,20.337,17.761,21.253,16.889z"/>
						<path fill-rule="evenodd" clip-rule="evenodd" fill="#F7CA00" d="M22.017,17.083l0.139,3.636
							c-0.997,1.25-1.961,2.784-2.864,4.759C19.564,22.31,19.126,19.836,22.017,17.083z"/>
						<path fill-rule="evenodd" clip-rule="evenodd" fill="#F5B20E" d="M22.017,17.083l0.139,3.636
							c-0.997,1.25-1.961,2.784-2.864,4.759C19.737,22.566,21.354,19.573,22.017,17.083z"/>
					</g>
				</g>
			</g>
		</g>
	</g>
	<g>
		<g>
			<path fill-rule="evenodd" clip-rule="evenodd" fill="#DB9669" d="M35.474,1.886c0.112,0.065,0.169,0.289,0.065,0.468
				c-0.018,0.03-0.109,0.149-0.185,0.25c-0.021,0.03-0.055,0.178-0.082,0.256c-0.041,0.181-0.434,0.134-0.503,0.08
				c-0.068-0.054-0.021-0.417-0.002-0.469c0.064-0.168-0.035-0.599-0.036-0.718c-0.002-0.121,0.106-0.083,0.063-0.262L35.474,1.886z
				"/>
			<path fill-rule="evenodd" clip-rule="evenodd" fill="#E8A476" d="M35.489,1.49l-0.001-0.004l0.379-0.365
				c0.008,0.002,0.015,0.006,0.022,0.009c0.06,0.03,0.117,0.076,0.131,0.106c0.042,0.097-0.063,0.478-0.132,0.575
				c-0.022,0.031-0.092,0.154-0.137,0.121c-0.002,0.063-0.096,0.163-0.17,0.111c-0.027,0.082-0.043,0.063-0.097,0.1
				c-0.024,0.016-0.049,0.019-0.058,0.017L35.345,1.61L35.489,1.49z"/>
			<path fill-rule="evenodd" clip-rule="evenodd" fill="#F1B287" d="M35.432,1.663l-0.924-0.231
				c-0.027-0.116,0.063-0.201,0.245-0.343c0.071-0.055,0.233-0.166,0.303-0.207c0.13-0.08,0.411-0.025,0.617,0.076
				c0.051,0.025,0.318,0.22,0.349,0.279C35.792,1.474,35.556,1.615,35.432,1.663z"/>
			<path fill-rule="evenodd" clip-rule="evenodd" fill="#E8A476" d="M35.026,2.093c-0.074-0.028-0.173-0.108-0.186-0.186
				c-0.027-0.17,0.141-0.078,0.246-0.028c0.05,0.016,0.1,0.031,0.149,0.046c0.05,0.015,0.037,0.012,0.037-0.041
				c0.003-0.03-0.05-0.059-0.099-0.078c-0.114-0.044-0.217-0.083-0.282-0.085c-0.066-0.003-0.097,0.031-0.069,0.13
				c0.039,0.176,0.128,0.294,0.18,0.416c0.052,0.121,0.067,0.244-0.036,0.423c-0.024,0.04-0.055,0.092-0.076,0.147
				c-0.021,0.051-0.189-0.005-0.259-0.06c-0.069-0.055-0.218,0.03-0.197-0.022c0.122-0.258,0.15-0.713,0.081-1.004
				c-0.02-0.086-0.075-0.415,0.037-0.461c0.251-0.104,0.81,0.23,0.922,0.403c0.023,0.037,0.038,0.078,0.038,0.114
				c-0.001,0.115-0.015,0.171-0.016,0.283C35.511,2.265,35.122,2.128,35.026,2.093z"/>
			<path fill-rule="evenodd" clip-rule="evenodd" fill="#DB9669" d="M34.885,1.417c-0.054,0.065-0.083,0.18-0.101,0.262L34.71,2.01
				C34.671,1.75,34.583,1.521,34.885,1.417z"/>
			<path fill-rule="evenodd" clip-rule="evenodd" fill="#E8A476" d="M34.739,2.158c-0.028,0.117-0.15,0.5-0.149,0.559
				c0,0.06,0.188,0.16,0.293,0.137c0.19-0.042,0.275-0.353,0.261-0.517c-0.011-0.13-0.08-0.357-0.055-0.487
				c0.05-0.264-0.021-0.364-0.069-0.409c-0.059-0.056-0.243-0.073-0.212,0.27C34.816,1.821,34.768,2.041,34.739,2.158z"/>
			<path fill-rule="evenodd" clip-rule="evenodd" fill="#F1B287" d="M34.718,2.826c0.057,0.024,0.119,0.038,0.165,0.028
				c0.19-0.042,0.275-0.353,0.261-0.517c-0.011-0.13-0.08-0.357-0.055-0.487c0.05-0.264-0.021-0.364-0.069-0.409
				c-0.035-0.034-0.116-0.054-0.17,0.012c0.09,0.079,0.147,0.221,0.104,0.569C34.904,2.405,34.862,2.503,34.718,2.826z"/>
			<path fill-rule="evenodd" clip-rule="evenodd" fill="#E4EBF0" d="M34.485,2.576c0.07,0.153,0.476,0.454,0.81,0.256l-0.088,0.431
				c0.068,0.385,0.036,0.536-0.002,0.926c-0.069,0.733-0.197,1.606-0.325,2.209c-0.028,0.478-0.068,0.397-0.288,0.651
				c-0.572,0.662-1.489,1.939-2.336,2.453c-0.878,0.533-1.124,0.918-1.333,0.723c-0.361-0.34-0.815-1.406-0.643-1.856
				c0.296-0.768,0.761-0.891,1.323-0.973c0.521-0.583,1.264-0.939,1.767-1.348c0.146-0.713,0.389-1.578,0.604-2.343
				c0.079-0.286,0.231-0.563,0.374-0.698C34.385,2.898,34.473,2.615,34.485,2.576z"/>
			<path fill-rule="evenodd" clip-rule="evenodd" fill="#F8FAFC" d="M34.485,2.576c0.04,0.088,0.19,0.224,0.375,0.288
				c-0.016,0.067-0.033,0.135-0.048,0.2c-0.188,0.008-0.32-0.072-0.434-0.149C34.421,2.785,34.475,2.606,34.485,2.576L34.485,2.576z
				 M30.303,9.028c-0.066-0.258-0.085-0.498-0.022-0.66c0.296-0.768,0.761-0.891,1.323-0.973c0.521-0.583,1.264-0.939,1.767-1.348
				c0.146-0.713,0.389-1.578,0.604-2.343c0.059-0.212,0.158-0.419,0.264-0.567c0.082,0.093,0.183,0.187,0.345,0.277
				c-0.1,0.647-0.61,2.799-0.691,3.002C32.492,7.845,31.786,8.512,30.303,9.028z"/>
			<path fill-rule="evenodd" clip-rule="evenodd" fill="#CED5DB" d="M34.95,2.888c0.112,0.021,0.232,0.011,0.345-0.055l-0.088,0.431
				c0.068,0.385,0.036,0.536-0.002,0.926c-0.069,0.733-0.197,1.606-0.325,2.209c-0.028,0.478-0.068,0.397-0.288,0.651
				c-0.572,0.662-1.489,1.939-2.336,2.453c-0.878,0.533-1.124,0.918-1.333,0.723c-0.162-0.153-0.344-0.453-0.478-0.777
				c1.511-0.494,2.114-1.013,3.629-2.544c0.219-0.221,0.167-0.177,0.248-0.454c0.286-0.96,0.459-2.22,0.546-3.132
				c-0.259-0.084-0.354-0.117-0.499-0.289c0.152,0.08,0.251,0.129,0.527,0.118C34.919,3.056,34.936,2.975,34.95,2.888z"/>
			<polygon fill-rule="evenodd" clip-rule="evenodd" fill="#DB9669" points="35.259,1.255 35.642,1.547 35.585,2.004 35.668,1.531 
				35.283,1.218 			"/>
			<polygon fill-rule="evenodd" clip-rule="evenodd" fill="#DB9669" points="35.409,1.139 35.792,1.431 35.735,1.888 35.819,1.415 
				35.434,1.102 			"/>
			<polygon fill-rule="evenodd" clip-rule="evenodd" fill="#DB9669" points="35.564,1.015 35.947,1.306 35.891,1.764 35.975,1.291 
				35.633,1.034 			"/>
		</g>
		<g>
			<g>
				<path fill-rule="evenodd" clip-rule="evenodd" fill="#03161F" d="M26.407,26.04c-0.057,0.366-0.111,0.545-0.064,0.795
					c0.095,0.5,0.367,0.953,0.755,1.627c0.184,0.321,0.156,0.533-0.199,0.573c-0.28,0.033-0.766-0.32-1.064-0.553
					c-0.559-0.438-0.638-0.933-0.807-1.13l-0.179-0.038c-0.134-0.06-0.56-0.512-0.598-0.695c0.028-0.129,0.079-0.354,0.143-0.524
					c0.226-0.539,0.285-0.446,0.618-0.796C25.477,25.557,25.932,25.8,26.407,26.04z"/>
				<path fill-rule="evenodd" clip-rule="evenodd" d="M27.192,28.876c-0.036,0.086-0.13,0.14-0.294,0.159
					c-0.28,0.033-0.766-0.32-1.064-0.553c-0.559-0.438-0.638-0.933-0.807-1.13l-0.179-0.038c-0.134-0.06-0.56-0.512-0.598-0.695
					c0.028-0.129,0.079-0.354,0.143-0.524c0.226-0.539,0.285-0.446,0.618-0.796c0.207,0.115,0.411,0.226,0.615,0.336
					c-0.123,0.367-0.453,0.946-0.269,1.303c0.205,0.397,0.425,0.581,0.58,0.811C26.43,28.481,26.725,29.028,27.192,28.876z"/>
				<path fill-rule="evenodd" clip-rule="evenodd" fill="#062533" d="M26.284,26.706c-0.115,0.068-0.275,0.064-0.524,0.017
					c0.172,0.569,0.24,0.555,0.596,1.049c0.115,0.39,0.124,0.457,0.237,0.619c0.136,0.191,0.347,0.422,0.492,0.394
					c0.063-0.013,0.044-0.137-0.092-0.378c-0.154-0.274-0.311-0.553-0.44-0.827C26.423,27.307,26.322,27.023,26.284,26.706z"/>
			</g>
			<path fill-rule="evenodd" clip-rule="evenodd" fill="#0B3A4F" d="M31.535,15.557c-0.005,0.127-0.053,0.231-0.103,0.487
				c-0.05,0.374-0.135,0.817-0.261,1.274c-0.099,0.352-0.225,0.716-0.384,1.051c-0.573,1.205-1.462,2.318-1.975,3.135
				c-1.004,1.597-1.51,3.333-2.398,4.987c-0.372,0.249-1.598-0.212-1.721-0.86c0.57-1.371,0.977-2.473,1.356-3.192
				c0.315-0.599,0.508-0.939,0.958-1.392c0.369-1.245,1.153-3.587,1.807-4.865l1.293,0.068l0.802-0.209L31.535,15.557z"/>
			<path fill-rule="evenodd" clip-rule="evenodd" fill="#031821" d="M31.541,15.594c-0.02,0.293-0.708,1.521-1.075,1.908
				c-0.1,0.104,0.292,0.63,0.31,0.923c-0.477,0.388-0.974,0.215-1.56,0.27c-0.458,0.764-0.987,1.926-1.376,2.732
				c-1.064,1.425-1.619,2.487-2.486,4.925c-0.297-0.165-0.668-0.504-0.725-0.809c0.57-1.371,0.977-2.473,1.356-3.192
				c0.314-0.598,0.508-0.938,0.958-1.392c0.491-1.518,0.875-4.693,1.626-5.238l2.77-1.401L31.541,15.594z"/>
			<path fill-rule="evenodd" clip-rule="evenodd" fill="#124F6B" d="M30.598,18.549c-0.408,0.149-0.645,0.229-1.07,0.325
				c-0.632,1.178-1.5,2.863-2.192,4.006l-1.613,3.571c0.352,0.145,0.628,0.075,0.694,0.041l1.996-4.103
				C29.123,21.313,29.857,19.605,30.598,18.549z"/>
		</g>
		<g>
			<g>
				<path fill-rule="evenodd" clip-rule="evenodd" fill="#03161F" d="M26.712,22.457l0.072-0.158l-0.029-0.669
					c-0.054-0.688-0.462-0.79-0.836-0.874c-0.591-0.132-0.937,0.744-0.785,1.14c0.1,0.262,0.099,0.467,0.039,0.676
					c-0.174,0.611-0.106,1.127,0.104,1.456c0.164,0.256,0.719,0.731,1.104,0.634c0.18-0.046,0.135-0.254,0.127-0.39
					C26.462,23.598,26.604,23.105,26.712,22.457z"/>
				<path fill-rule="evenodd" clip-rule="evenodd" d="M26.321,20.883c-0.298-0.175-0.707-0.225-1.016,0.043
					c-0.203,0.177-0.293,0.689-0.204,0.965c0.085,0.267,0.131,0.472,0.071,0.681c-0.174,0.611-0.106,1.127,0.104,1.456
					c0.164,0.256,0.719,0.731,1.104,0.634c0.007-0.002,0.014-0.004,0.02-0.006c-0.773-0.292-1.143-0.807-0.968-1.703
					c0.047-0.245,0.154-0.428,0.098-0.807c-0.061-0.401-0.093-0.945,0.279-1.148C25.943,20.926,26.112,20.889,26.321,20.883z"/>
				<path fill-rule="evenodd" clip-rule="evenodd" fill="#062533" d="M26.514,24.354c-0.002-0.028-0.005-0.055-0.006-0.081
					c-0.04-0.581,0.062-1.027,0.158-1.554c-0.246,0.074-0.486,0.088-0.842-0.064C25.736,23.437,25.789,24.08,26.514,24.354z"/>
				<path fill-rule="evenodd" clip-rule="evenodd" d="M26.928,21.074l-0.682-0.09c-0.687-0.039-0.703,1.716,0.445,1.403l0.567-0.323
					L26.9,21.101L26.928,21.074z"/>
			</g>
			<path fill-rule="evenodd" clip-rule="evenodd" fill="#0B3A4F" d="M26.404,20.814c0.81,0.013,1.58-0.135,2.312-0.184
				c3.228-0.214,3.956,1.74,3.428,2.25c-0.104,0.101-0.212,0.145-0.483,0.132c-1.492-0.074-3.591-0.248-5.126-0.429
				C25.489,22.459,25.866,20.873,26.404,20.814z"/>
			<path fill-rule="evenodd" clip-rule="evenodd" fill="#062533" d="M28.447,20.652c0.091-0.008,0.18-0.016,0.269-0.021
				c3.228-0.214,3.957,1.737,3.428,2.246c-0.104,0.101-0.21,0.132-0.48,0.119c-1.493-0.073-3.594-0.231-5.129-0.413
				c-0.523-0.062-0.69-0.491-0.658-0.912c1.024,0.112,2.745,0.11,3.185,0.067C28.832,21.377,28.634,21.072,28.447,20.652z"/>
			<path fill-rule="evenodd" clip-rule="evenodd" fill="#031821" d="M28.84,20.624c3.123-0.157,3.825,1.753,3.304,2.256
				c-0.104,0.101-0.204,0.093-0.481,0.102c-0.203,0.006-0.418,0.008-0.64-0.005C30.734,22.812,29.22,21.212,28.84,20.624z"/>
			<path fill-rule="evenodd" clip-rule="evenodd" fill="#0B3A4F" d="M27.589,15.231c-0.45,0.584-1.019,1.277-0.896,2.339
				c0.117,1.018,1.329,1.933,2.543,3.241c0.525,0.565,0.947,0.968,1.459,1.415c0.3,0.262,0.653,0.472,0.945,0.569
				c0.299,0.1,0.52,0.255,0.709-0.079c0.18-0.316,0.206-0.845-0.006-1.34c-0.771-1.799-1.359-3.052-2.537-3.925
				c0.924,0.041,0.983-0.911,1.557-1.694C29.445,15.81,29.258,16.161,27.589,15.231z"/>
			<path fill-rule="evenodd" clip-rule="evenodd" fill="#124F6B" d="M32.479,22.321c0.042-0.279,0.015-0.615-0.132-0.97
				c-0.595-1.429-1.43-3.157-2.535-3.903c0.551-0.069,0.671-0.352,1.023-0.845c-0.709,0.532-2.531,0.369-2.771,0.256
				c0.024,0.633,0.244,0.85,0.584,1.338c0.626,0.897,1.61,2.272,2.376,3.208c0.38,0.463,0.704,0.853,0.96,1.074
				C32.178,22.644,32.439,22.588,32.479,22.321z"/>
			<path fill-rule="evenodd" clip-rule="evenodd" fill="#062533" d="M27.589,15.231c-0.45,0.584-1.019,1.277-0.896,2.339
				c0.117,1.018,1.393,2.035,2.607,3.343c0.46,0.495,0.818,0.812,1.244,1.183c0.346,0.302,0.922,0.911,1.367,0.904
				c0.106-0.002,0.265-0.092,0.321-0.139c-0.255,0.016-0.857-0.455-1.426-1.1c-0.739-0.838-1.556-1.998-2.078-2.764
				c-0.159-0.232-1.36-1.262-1.074-2.556c0.56,0.185,2.686,0.643,3.465-0.333c0.108-0.15,0.191-0.323,0.305-0.478
				C29.346,15.826,29.432,16.187,27.589,15.231z"/>
		</g>
		<g>
			<path fill-rule="evenodd" clip-rule="evenodd" fill="#E4EBF0" d="M27.998,8.481c0.578-0.226,2.591-1.157,3.122-1.004
				c0.614,0.177,0.967,0.527,1.143,1.026c0.234,0.664,0.299,1.569,0.071,2.695c-0.134,0.657-0.424,1.269-0.541,2.091
				c-0.069,0.473-0.161,1.105-0.259,1.749c-0.498,1.104-2.845,1.207-3.931,0.208c0.102-0.179,0.189-0.388,0.249-0.679
				c0.19-0.935-1.117-3.732-0.93-5.034C27.005,8.956,27.541,8.661,27.998,8.481z"/>
			<path fill-rule="evenodd" clip-rule="evenodd" fill="#F8FAFC" d="M32.244,11.544c-0.221,0.531-0.482,1.961-0.506,2.123
				c-0.04,0.273-0.081,0.58-0.131,0.911c-0.459,0.7-1.648,0.994-2.564,0.715c0.033-0.223,0.249-2.212,0.26-2.827
				C30.353,12.674,31.703,11.868,32.244,11.544z"/>
			<path fill-rule="evenodd" clip-rule="evenodd" fill="#CED5DB" d="M28.108,8.455c0.631-0.345,2.48-1.131,3.012-0.978
				c0.2,0.058,0.372,0.133,0.52,0.228C30.833,7.794,29.025,8.383,28.165,9c0.697,0.701,0.805,1.214,0.786,2.005
				c-0.006,0.237-0.176,0.469-0.154,0.789c0.088,1.256,0.017,2.277-0.186,3.508c0.286,0.183,0.799,0.266,1.317,0.211
				c0.691-0.073,0.998-0.128,1.518-0.455l0.1-0.096c-0.461,1.698-4.099,0.952-3.922,0.247c0.093-0.171,0.173-0.371,0.229-0.642
				c0.152-0.745-0.647-2.672-0.884-4.083c-0.061-0.359-0.542-1.163-0.44-1.41C26.782,8.457,27.343,8.49,28.108,8.455z"/>
			<path fill-rule="evenodd" clip-rule="evenodd" fill="#B2BCC4" d="M26.979,9.548c0.23,0.251,1.271-0.175,1.512,0.602
				c0.358,1.153-0.91,2.602-0.917,2.664c-0.119-0.406-0.189-0.692-0.299-0.99C27.032,11.163,26.779,10.577,26.979,9.548z"/>
			<path fill-rule="evenodd" clip-rule="evenodd" fill="#F8FAFC" d="M31.299,8.186c0.246,0.487,0.298,0.868,0.217,1.385
				c-0.076,0.479-0.434,0.72-0.37,1.852c0.5-0.1,0.981-0.367,1.25-0.655c0.199-0.949,0.05-2.473-0.545-2.863
				C31.725,7.956,31.578,8.03,31.299,8.186z"/>
			<path fill-rule="evenodd" clip-rule="evenodd" fill="#F8FAFC" d="M29.097,8.712c-0.264,0.116-0.383,0.2-0.618,0.364
				c0.295,0.523,0.511,0.728,0.657,1.062c0.298,0.684,0.02,1.356,0.003,1.791c0.309,0.23,1.083,0.014,1.611-0.348
				c0.215-0.53,0.197-1.4-0.286-1.782C30.093,9.507,29.598,9.239,29.097,8.712z"/>
		</g>
		<g>
			<path fill-rule="evenodd" clip-rule="evenodd" fill="#131917" d="M27.392,15.476c0.15-0.249,0.288-0.48,0.373-0.645
				c0.304,0.528,0.678,0.782,1.707,0.834c0.078,0.004,0.312,0.002,0.544-0.015c0.653-0.097,1.301-0.39,1.58-0.938
				c0.008,0.247-0.006,0.571-0.034,0.913C31.234,16.338,28.445,16.992,27.392,15.476z"/>
			<path fill-rule="evenodd" clip-rule="evenodd" d="M27.392,15.476c0.15-0.249,0.288-0.48,0.373-0.645
				c0.304,0.528,0.678,0.782,1.707,0.834c0.078,0.004,0.312,0.002,0.544-0.015c0.22-0.033,0.438-0.088,0.643-0.167l-0.002,0.008
				c-0.618,0.347-1.481,0.383-2.229,0.134c-0.266-0.088-0.351,0.264-0.127,0.386c0.326,0.177,0.772,0.258,1.212,0.284v-0.001
				c1.355-0.031,1.77-0.474,2.055-0.723c-0.002,0.018-0.003,0.037-0.005,0.055c-0.253,0.55-1.445,0.767-2.072,0.771l0,0
				C28.693,16.401,27.867,16.159,27.392,15.476z"/>
			<path fill-rule="evenodd" clip-rule="evenodd" fill="#212B28" d="M29.53,15.642c0.25-0.058,0.776-0.099,0.994-0.144
				c0.14,0.136,0.104,0.665,0.035,0.794c-0.178,0.111-0.804,0.152-0.986,0.095C29.52,16.305,29.512,15.764,29.53,15.642z"/>
			<path fill-rule="evenodd" clip-rule="evenodd" d="M29.53,15.642c0.25-0.058,0.776-0.099,0.994-0.144
				c-0.209,0.1-0.649,0.253-0.738,0.315c-0.048,0.034-0.155,0.406-0.213,0.574C29.52,16.305,29.512,15.764,29.53,15.642z"/>
			<path fill-rule="evenodd" clip-rule="evenodd" fill="#3C4A45" d="M30.524,15.498c0.14,0.136,0.104,0.665,0.035,0.794
				c-0.178,0.111-0.804,0.152-0.986,0.095c0.12-0.031,0.419-0.184,0.62-0.396C30.395,15.78,30.486,15.649,30.524,15.498z"/>
			<path fill-rule="evenodd" clip-rule="evenodd" fill="#5A6B65" d="M30.557,15.557c0.05,0.197,0.026,0.599-0.033,0.709
				c-0.124,0.078-0.549,0.138-0.771,0.137C30.252,16.327,30.554,16.205,30.557,15.557z"/>
			<path fill-rule="evenodd" clip-rule="evenodd" fill="#212B28" d="M29.443,15.879c-0.177-0.006-0.618-0.087-0.854-0.137
				c-0.287-0.06-0.315,0.219-0.022,0.313c0.325,0.103,0.576,0.149,0.914,0.176C29.452,16.093,29.447,16.021,29.443,15.879z"/>
			<path fill-rule="evenodd" clip-rule="evenodd" fill="#212B28" d="M31.597,14.826c-0.276,0.436-0.558,0.591-0.947,0.781
				c0.024,0.161,0.032,0.317,0.041,0.413c0.294-0.083,0.706-0.321,0.885-0.548C31.59,15.248,31.597,15.049,31.597,14.826z"/>
		</g>
		<g>
			<path fill-rule="evenodd" clip-rule="evenodd" fill="#CED5DB" d="M29.112,8.03c0.076,0.007,0.155,0.056,0.231,0.012
				c-0.103,0.521,0.849,0.663,1.39,0.87c0.04-0.071,0.075-0.222,0.124-0.351c0.044-0.116,0.197-0.367,0.232-0.425
				c0.149,0.083,0.257,0.859,0.266,1.167c-0.082-0.075-0.22-0.13-0.345-0.167c-0.009,0.095-0.043,0.22-0.107,0.366
				c0.063,0.029,0.144,0.061,0.248,0.148c0.002,0.198,0.002,0.389-0.001,0.574c-0.185,0.077-0.017,1.249-0.201,1.325
				c-0.037-0.168-0.447-1.381-0.469-1.542c0.05-0.143,0.108-0.244,0.168-0.381c-0.101-0.133-0.151-0.084-0.201-0.161
				c-0.037,0.064-0.074,0.153-0.088,0.215c-0.381-0.161-1.507-0.808-1.401-1.4C28.98,8.161,29.048,8.086,29.112,8.03z"/>
			<g>
				<path fill-rule="evenodd" clip-rule="evenodd" fill="#3C5466" d="M30.451,9.053c0.021,0.304,0.032,0.304,0.268,0.543
					c-0.059,0.146-0.102,0.271-0.148,0.422c0.327,1.339,0.41,3.179,0.162,4.664c0.406-1.397,0.518-3.752,0.465-5.043
					c-0.11-0.083-0.194-0.112-0.261-0.137c0.128-0.315,0.122-0.53,0.062-0.578C30.759,8.882,30.653,8.896,30.451,9.053z"/>
				<path fill-rule="evenodd" clip-rule="evenodd" fill="#2A3C4A" d="M30.451,9.053c0.021,0.304,0.032,0.304,0.268,0.543
					c-0.059,0.146-0.102,0.271-0.148,0.422c0.327,1.339,0.372,3.206,0.163,4.657c0.354-1.324,0.293-3.555,0.029-4.686
					c0.016-0.193,0.03-0.281,0.069-0.444c-0.193-0.177-0.254-0.367-0.263-0.574c0.003-0.002,0.007-0.004,0.01-0.006l-0.012,0.014
					V8.973C30.531,8.993,30.493,9.02,30.451,9.053z"/>
				<path fill-rule="evenodd" clip-rule="evenodd" fill="#56738A" d="M31.026,8.983L30.84,8.989l-0.101,0.186l0.151,0.336
					l-0.004,0.001c0.032,0.101,0.022,0.286,0.009,0.426c0.212,0.898,0.208,2.232,0.143,3.172c0.151-0.939,0.189-2.726,0.159-3.472
					c-0.11-0.083-0.194-0.112-0.261-0.137C31.011,9.299,31.066,9.143,31.026,8.983z"/>
			</g>
			<g>
				<path fill-rule="evenodd" clip-rule="evenodd" fill="#E8A476" d="M30.904,8.458c0.025-0.048,0.053-0.096,0.08-0.147
					c0.077-0.147,0.123-0.476,0.271-0.826l-1.35-0.815l-0.285-0.204c0.039,0.554-0.068,0.867-0.273,1.23
					c-0.085,0.516,0.849,1.009,1.386,1.216C30.801,8.792,30.828,8.608,30.904,8.458z"/>
				<path fill-rule="evenodd" clip-rule="evenodd" fill="#DB9669" d="M29.435,8.046c0.544-0.114,0.92,0.169,1.617,0.079
					c0.049-0.168,0.102-0.399,0.204-0.64l-1.35-0.815l-0.285-0.204c0.039,0.554-0.068,0.867-0.273,1.23
					C29.328,7.814,29.363,7.932,29.435,8.046z"/>
			</g>
			<g>
				<path fill-rule="evenodd" clip-rule="evenodd" fill="#E4EBF0" d="M30.733,8.912c0.039-0.071,0.075-0.222,0.124-0.352
					c0.044-0.116,0.189-0.395,0.201-0.471c0.118,0.047,0.103,0.748,0.201,1.058C31.066,8.969,30.975,8.943,30.733,8.912z"/>
				<path fill-rule="evenodd" clip-rule="evenodd" fill="#E4EBF0" d="M29.351,7.683c-0.104,0.522,0.848,1.022,1.389,1.23
					c-0.163,0.15-0.373,0.339-0.389,0.509c-0.388-0.165-1.045-0.445-1.253-0.997C28.956,8.047,29.148,7.798,29.351,7.683z"/>
				<path fill-rule="evenodd" clip-rule="evenodd" fill="#F8FAFC" d="M30.803,8.878c0.047-0.138,0.068-0.233,0.126-0.236
					c0.095-0.006,0.221,0.183,0.302,0.437C31.064,8.925,31.01,8.905,30.803,8.878z"/>
				<path fill-rule="evenodd" clip-rule="evenodd" fill="#F8FAFC" d="M29.876,8.571c0.295,0.135,0.521,0.278,0.727,0.356
					c-0.181,0.13-0.3,0.237-0.313,0.394c-0.219-0.092-0.512-0.248-0.782-0.474C29.337,8.619,29.527,8.389,29.876,8.571z"/>
			</g>
		</g>
		<g>
			<path fill-rule="evenodd" clip-rule="evenodd" fill="#F1B287" d="M31.019,7.883c-0.189-0.056-0.645-0.204-0.816-0.265
				c-0.378-0.133-0.428-0.433-0.653-0.858c-0.352-0.119-0.498-0.253-0.58-0.43c-0.193-0.421-0.088-0.97,0.17-1.33
				c0.226-0.314,0.543-0.48,0.947-0.512c0.785-0.062,1.258,0.404,1.489,1.03c0.021,0.053,0.027,0.105,0.027,0.164
				c-0.001,0.14-0.03,0.171-0.021,0.267c0.005,0.062,0.056,0.118,0.087,0.214c0.089,0.268,0.051,0.613,0.068,0.874
				c0.023,0.219,0.102,0.543,0.039,0.62c-0.102,0.122-0.349,0.221-0.486,0.264C31.215,7.942,31.153,7.907,31.019,7.883z"/>
			<path fill-rule="evenodd" clip-rule="evenodd" fill="#E8A476" d="M31.111,7.915c-0.189-0.057-0.777-0.21-0.949-0.271
				c-0.377-0.133-0.388-0.458-0.613-0.884c-0.352-0.119-0.498-0.253-0.58-0.43c-0.193-0.421-0.088-0.97,0.17-1.33
				c0.226-0.314,0.543-0.48,0.947-0.512c0.682-0.053,1.128,0.291,1.386,0.792c-0.014,0.045-0.357,0.295-0.708,0.42
				c-0.224,0.08-0.378,0-0.615-0.032c0.001,0.194,0.246,0.604,0.273,0.733c0.006,0.032-0.062,0.193,0.045,0.302
				c0.028,0.03,0.098,0.058,0.098,0.118c0.003,0.632,0.579,0.925,0.803,1.073C31.288,7.931,31.231,7.935,31.111,7.915z"/>
			<g>
				<path fill-rule="evenodd" clip-rule="evenodd" fill="#361D07" d="M30.994,5.418c-0.202-0.054-0.955-0.26-1.284-0.365
					c-0.338-0.108-0.706-0.221-0.915,0.024c-0.158,0.317-0.118,0.819-0.015,1.083c0.147,0.377,0.478,0.664,0.896,0.95
					c0.157,0.107,0.024-0.442,0.042-0.567c0.05,0.082,0.105,0.165,0.163,0.252l0.263,0.102c-0.29-0.682,0.015-0.764-0.159-1.056
					c-0.111-0.188-0.149-0.338-0.122-0.427C30.148,5.37,30.613,5.604,30.994,5.418z"/>
				<path fill-rule="evenodd" clip-rule="evenodd" fill="#E8A476" d="M29.527,6.349c-0.315-0.042-0.25,0.3-0.162,0.499
					c0.06,0.136,0.175,0.102,0.24,0.206c0.077,0.124,0.194,0.166,0.281,0.146c0.18-0.041,0.015-0.287-0.027-0.388
					C29.846,6.632,29.729,6.376,29.527,6.349z"/>
				<path fill-rule="evenodd" clip-rule="evenodd" fill="#4F2B0C" d="M28.791,5.107c-0.084,0.127-0.143,0.433-0.093,0.622
					c-0.004-0.139-0.003-0.271,0.119-0.399c-0.062,0.208-0.069,0.3,0.01,0.521c-0.017-0.17,0.002-0.346,0.129-0.461
					c-0.1,0.289-0.03,0.594,0.048,0.744c-0.054-0.249-0.009-0.541,0.146-0.702c-0.074,0.208,0.006,0.414,0.057,0.593
					c0-0.252-0.016-0.388,0.137-0.547c-0.02,0.226,0.055,0.452,0.152,0.59c-0.026-0.08,0.009-0.446,0.049-0.572
					c0.036,0.14,0.1,0.272,0.183,0.32c-0.046-0.189-0.03-0.322-0.021-0.419c0.004-0.044,0.084-0.056,0.146-0.077
					C29.42,5.274,28.891,5.021,28.791,5.107z"/>
				<path fill-rule="evenodd" clip-rule="evenodd" fill="#4F2B0C" d="M28.779,5.105c0.579-0.138,1.71,0.6,2.337,0.285
					c0.209-0.104,0.35-0.274,0.361-0.378C31.673,3.444,28.87,3.773,28.779,5.105z"/>
				<path fill-rule="evenodd" clip-rule="evenodd" fill="#361D07" d="M29.854,5.366c0.312-0.04,0.748,0.191,1.081,0.077
					c0.064-0.007,0.125-0.024,0.182-0.052c0.209-0.104,0.35-0.274,0.361-0.378c0.008-0.059,0.01-0.116,0.009-0.169
					c-0.076-0.404-0.354-0.483-0.561-0.508c0.207,0.094,0.356,0.306,0.411,0.573C31.135,4.684,30.998,4.51,30.61,4.47
					c0.257,0.145,0.378,0.285,0.523,0.521c-0.251-0.197-0.438-0.304-0.704-0.375c0.196,0.136,0.302,0.251,0.411,0.515
					c-0.208-0.227-0.28-0.27-0.756-0.42c0.257,0.154,0.347,0.271,0.466,0.479c-0.246-0.207-0.425-0.349-0.703-0.425
					c0.097,0.053,0.229,0.2,0.372,0.377c-0.312-0.125-0.32-0.267-0.756-0.31c0.152,0.077,0.295,0.168,0.406,0.3
					c-0.207-0.111-0.436-0.253-0.729-0.31c0.106,0.069,0.221,0.137,0.363,0.27c-0.276-0.145-0.4-0.307-0.771-0.126
					c0.172-0.022,0.299-0.025,0.455,0.082c-0.234-0.098-0.399-0.083-0.565,0.073C29.029,4.991,29.42,5.421,29.854,5.366z"/>
				<path fill-rule="evenodd" clip-rule="evenodd" fill="#241304" d="M29.954,5.092c0.066,0.081,0.12,0.134,0.134,0.188
					c-0.232-0.11-0.487-0.264-0.719-0.351c0.187,0.111,0.276,0.218,0.377,0.336c-0.165-0.086-0.504-0.319-0.687-0.316
					c0.165,0.044,0.233,0.143,0.352,0.256c-0.183-0.054-0.473-0.19-0.655-0.118c0.356,0.004,0.731,0.323,1.095,0.277
					c0.334-0.042,0.678,0.164,1.029,0.096c0.179-0.034,0.357-0.095,0.489-0.263c0.047-0.052,0.087-0.099,0.103-0.158
					c0.062-0.238-0.091-0.526-0.32-0.618c0.214,0.167,0.239,0.529,0.225,0.627c-0.054-0.073-0.147-0.255-0.317-0.34
					c0.121,0.142,0.139,0.3,0.197,0.463c-0.014,0.04-0.228-0.236-0.385-0.293c0.132,0.173,0.145,0.352,0.115,0.442
					c-0.133,0.043-0.17-0.229-0.41-0.304c0.113,0.125,0.134,0.263,0.158,0.351c-0.214-0.115-0.283-0.175-0.481-0.308
					c0.072,0.089,0.133,0.153,0.173,0.242C30.212,5.213,30.139,5.192,29.954,5.092z"/>
				<g>
					<path fill-rule="evenodd" clip-rule="evenodd" fill="#DB9669" d="M29.398,6.718c-0.045-0.198-0.015-0.221,0.051-0.251
						c0.081-0.037,0.238,0.128,0.256,0.188c-0.047-0.01-0.118-0.015-0.141,0.038c0.03-0.016,0.059-0.012,0.091-0.005
						c0.028,0.007,0.054,0.033,0.091,0.023c0.006-0.024-0.022-0.078-0.035-0.098c-0.064-0.105-0.177-0.221-0.28-0.171
						C29.377,6.467,29.323,6.533,29.398,6.718z"/>
					<path fill-rule="evenodd" clip-rule="evenodd" fill="#DB9669" d="M29.735,6.873c-0.019-0.03-0.01-0.083-0.073-0.108
						c0.061-0.009,0.091,0.008,0.111,0.039c0.027,0.039,0.031,0.071,0.024,0.079C29.792,6.888,29.768,6.926,29.735,6.873z"/>
				</g>
			</g>
			<path fill-rule="evenodd" clip-rule="evenodd" fill="#E8A476" d="M31.575,5.633c0.015,0.043,0.023,0.085,0.023,0.134
				c0,0.125-0.034,0.091-0.016,0.184c0.024,0.114,0.098,0.159,0.125,0.302c0.041,0.213,0.018,0.299,0.021,0.524
				C31.7,6.742,31.7,6.785,31.681,6.803c-0.052,0.051-0.021,0.044-0.075,0.065c-0.01,0.004-0.008,0.024-0.002,0.046
				c0.004,0.008,0.006,0.014,0.004,0.016c-0.001,0.002-0.007,0-0.013-0.01c-0.01-0.018-0.021-0.036-0.039-0.033
				c-0.007,0.001-0.021,0.02-0.027,0.029c-0.009,0.014-0.001,0.047,0.006,0.068c0.01,0.027,0,0.023-0.013,0.005
				c-0.024-0.034-0.068-0.068-0.111-0.062c-0.048,0.007-0.121,0.019-0.17-0.031c0.12-0.158,0.078-0.085,0.268-0.116
				c0.079-0.013,0.105-0.019,0.062-0.102c-0.067-0.126-0.178-0.256-0.221-0.388c-0.052-0.163-0.004-0.259,0.068-0.377
				C31.537,5.857,31.54,5.784,31.575,5.633z"/>
			<g>
				<path fill-rule="evenodd" clip-rule="evenodd" fill="#E8A476" d="M31.152,7.284c-0.016-0.005-0.029-0.017-0.038-0.022
					c-0.017-0.008-0.031,0.014-0.014,0.026c0.011,0.006,0.029,0.01,0.053,0.014c0.023,0.004,0.027,0.001,0.051,0.003
					c0.072,0.004,0.484,0.39,0.48-0.14c0-0.027,0.009-0.065-0.01-0.057c-0.061,0.023-0.32,0.138-0.455,0.17
					C31.188,7.286,31.162,7.286,31.152,7.284z"/>
				<path fill-rule="evenodd" clip-rule="evenodd" fill="#F1B287" d="M31.68,7.149c0.044-0.004,0.054,0.13,0.033,0.182
					c-0.02,0.047-0.184,0.151-0.267,0.124c-0.038-0.012-0.073-0.015-0.128-0.039c-0.032-0.014-0.169-0.11-0.149-0.117
					c0.003,0,0.101-0.015,0.112-0.017c0.046-0.01,0.109,0.025,0.146,0.011l0.111-0.08L31.68,7.149z"/>
				<path fill-rule="evenodd" clip-rule="evenodd" fill="#5E3920" d="M31.213,7.297c0.05,0.016,0.121,0.038,0.135,0.039
					c0.018,0.003,0.037,0.003,0.041,0.003c0.083-0.012,0.105-0.025,0.172-0.062c0.031-0.018,0.096-0.037,0.117-0.081
					c0.007-0.012,0.002-0.045,0-0.062c-0.052-0.009-0.066,0.035-0.131,0.05c-0.053,0.013-0.094,0.041-0.146,0.057L31.213,7.297z"/>
				<path fill-rule="evenodd" clip-rule="evenodd" fill="#EBD3C3" d="M31.261,7.286c0.038,0.011,0.138-0.002,0.176-0.016
					c0.043-0.016,0.092-0.035,0.135-0.06c0.032-0.019,0.075-0.033,0.101-0.065c0.006-0.008,0.007-0.034,0.005-0.042
					c-0.062,0.046-0.064,0.039-0.125,0.07c-0.048,0.024-0.091,0.051-0.143,0.067L31.261,7.286z"/>
				<path fill-rule="evenodd" clip-rule="evenodd" fill="#E8A476" d="M31.06,7.378c-0.026-0.117-0.011-0.132,0.086-0.167
					C31.077,7.259,31.065,7.286,31.06,7.378z"/>
				<path fill-rule="evenodd" clip-rule="evenodd" fill="#DB9669" d="M31.646,7.046c-0.032,0.003-0.039,0.024-0.072,0.043
					C31.516,7.1,31.49,7.111,31.46,7.133c-0.156,0.111-0.186,0.135-0.282,0.154c-0.024,0.007-0.023,0.016-0.004,0.016
					c0.021,0,0.075-0.007,0.151-0.027c0.065-0.017,0.121-0.035,0.183-0.062c0.027-0.012,0.055-0.022,0.072-0.031
					c0.026-0.014,0.062-0.033,0.077-0.046c0.008-0.003,0.013-0.007,0.018-0.009c0.009,0.002,0.002,0.015,0.006,0.058
					c0.005-0.003,0.028-0.076,0.03-0.082C31.715,7.096,31.71,7.041,31.646,7.046z"/>
				<path fill-rule="evenodd" clip-rule="evenodd" fill="#E8A476" d="M31.319,7.392c0.064,0.028,0.119,0.027,0.157,0.018
					c0.04-0.009,0.082-0.039,0.118-0.058c0.036-0.02,0.063-0.017,0.095-0.046c0.015-0.014,0.021-0.024,0.035-0.04
					c-0.058,0.168-0.146,0.269-0.312,0.195C31.397,7.454,31.353,7.408,31.319,7.392z"/>
			</g>
			<path fill-rule="evenodd" clip-rule="evenodd" fill="#E8A476" d="M31.042,6.169c-0.178,0.107-0.341,0.11-0.543,0.119
				c-0.063,0.08-0.108,0.15-0.183,0.223l-0.025,0.034c0.109-0.035,0.144-0.058,0.204-0.121c0.059-0.061,0.036-0.051,0.123-0.052
				s0.155-0.016,0.219-0.011c0.028,0.001-0.039,0.083-0.122,0.174c0.058-0.016,0.118-0.044,0.148-0.065
				c0.041-0.028,0.054-0.076,0.096-0.094c0.015-0.007,0.027,0.008,0.04,0.007C31.052,6.364,31.064,6.229,31.042,6.169z"/>
			<path fill-rule="evenodd" clip-rule="evenodd" fill="#361D07" d="M31.072,6.117c-0.022,0.07-0.032,0.119-0.104,0.141
				c-0.106,0.033-0.27,0.056-0.364,0.062c-0.105,0.006-0.072-0.023-0.14,0.066c-0.057,0.074-0.09,0.097-0.181,0.15
				c0.076-0.098,0.14-0.189,0.207-0.292c0.107-0.019,0.212-0.043,0.305-0.063c0.048-0.01,0.092-0.033,0.154-0.038
				c0.015-0.007-0.011-0.008-0.047-0.003C30.927,6.13,31.024,6.098,31.072,6.117z"/>
			<path fill-rule="evenodd" clip-rule="evenodd" fill="#E6E6E6" d="M30.966,6.34c-0.009,0.021-0.062,0.015-0.069,0.026
				c-0.032,0.049-0.067,0.097-0.115,0.131c-0.046,0.034-0.096,0.042-0.193,0.051c-0.027,0.002-0.055,0.006-0.09,0.013
				C30.604,6.448,30.812,6.277,30.966,6.34z"/>
			<g>
				<path fill-rule="evenodd" clip-rule="evenodd" fill="#032836" d="M30.813,6.342c0.012,0.039,0.021,0.085,0.012,0.109
					c-0.008,0.022-0.033,0.038-0.089,0.06c-0.036,0.015-0.068,0.007-0.126-0.042l0.03-0.04l0.088-0.057L30.813,6.342z"/>
				<path fill-rule="evenodd" clip-rule="evenodd" d="M30.777,6.352c0.01,0.024,0.019,0.06,0.013,0.078
					c-0.007,0.015-0.01,0.025-0.048,0.04c-0.026,0.01-0.058,0.001-0.098-0.034l0.021-0.028l0.062-0.04L30.777,6.352z"/>
				<path fill-rule="evenodd" clip-rule="evenodd" fill="#096282" d="M30.819,6.4c0.003,0.103-0.109,0.12-0.16,0.089l0.019-0.018
					c0.063,0.023,0.117-0.007,0.121-0.063L30.819,6.4z"/>
				<path fill-rule="evenodd" clip-rule="evenodd" fill="#FFFFFF" d="M30.813,6.373c-0.011,0.007-0.061,0.042-0.073,0.058
					c0.032,0.005,0.06-0.016,0.077-0.024C30.816,6.394,30.814,6.386,30.813,6.373z"/>
			</g>
			<path fill-rule="evenodd" clip-rule="evenodd" fill="#C2845B" d="M30.942,6.351c-0.018,0.001-0.029,0.004-0.041,0.011
				c-0.021,0.012-0.035,0.034-0.05,0.059c-0.019,0.034-0.042,0.052-0.066,0.067c-0.04,0.024-0.107,0.041-0.172,0.05
				c-0.038,0.005-0.075,0.005-0.104,0.012c-0.01,0.003-0.006,0.007-0.013,0.013c0.021,0,0.09-0.01,0.118-0.013
				c0.104-0.011,0.21-0.03,0.264-0.12c0.013-0.023,0.025-0.042,0.034-0.05c0.006-0.006,0.014-0.014,0.031-0.017
				c0.01-0.002,0.019-0.001,0.021-0.003C30.971,6.355,30.959,6.35,30.942,6.351z"/>
			<path opacity="0.5" fill-rule="evenodd" clip-rule="evenodd" fill="#756E6E" d="M30.966,6.34c-0.014-0.002-0.032,0-0.052,0.006
				C30.853,6.363,30.808,6.4,30.748,6.44c-0.07,0.048-0.151,0.093-0.239,0.111C30.612,6.439,30.812,6.277,30.966,6.34z"/>
			<path fill-rule="evenodd" clip-rule="evenodd" fill="#C2845B" d="M30.907,6.308c-0.071-0.002-0.146,0.028-0.208,0.065
				c-0.071,0.043-0.174,0.122-0.245,0.191c-0.005,0.005-0.067,0.07-0.036,0.06c0.017-0.006,0.05-0.036,0.059-0.043
				c0.115-0.098,0.257-0.22,0.379-0.244c0.028-0.006,0.059-0.004,0.089,0.002c0.031,0.007,0.043,0.023,0.037-0.006
				c-0.002-0.001-0.004-0.003-0.008-0.006C30.957,6.318,30.92,6.308,30.907,6.308z"/>
			<path fill-rule="evenodd" clip-rule="evenodd" fill="#704A31" d="M30.98,6.349c-0.003,0.002-0.019-0.006-0.033-0.009
				c-0.017-0.004-0.033-0.004-0.038-0.005c-0.009,0-0.016,0-0.019,0c-0.001,0,0.004,0.003,0.006,0.005
				c-0.009,0.001-0.03-0.006-0.03-0.003c0.001,0.003,0.012,0.004,0.017,0.005c-0.01,0.003-0.033,0-0.034,0
				c0.002,0.002,0.011,0.006,0.019,0.008c-0.003,0-0.046-0.001-0.046-0.001c-0.002,0.001,0.011,0.007,0.029,0.01
				c-0.015,0.001-0.031,0.004-0.056-0.002c-0.002,0.009,0.016,0.012,0.031,0.012c-0.023,0.004-0.038,0.003-0.063,0.002
				c-0.007,0.01,0.017,0.015,0.035,0.016c-0.028,0.003-0.059-0.004-0.063-0.001c0.004,0.002-0.002,0.01,0.038,0.014
				C30.751,6.406,30.726,6.4,30.71,6.4c-0.005,0.007,0.004,0.018,0.039,0.017C30.718,6.422,30.7,6.42,30.671,6.424
				c0.01,0.016,0.029,0.016,0.05,0.018c-0.027,0.002-0.054,0.004-0.082,0.006c-0.018,0.016,0.021,0.015,0.048,0.02
				c-0.033,0.001-0.049,0.002-0.078,0.004c-0.003,0.01,0.01,0.02,0.039,0.022c-0.027,0.005-0.043,0.01-0.075,0.008
				c0.002,0.007,0.014,0.008,0.027,0.01c-0.013,0.004-0.033,0.005-0.045,0.006c0.003,0.004,0.006,0.01,0.001,0.012
				c-0.049,0.023-0.101,0.073-0.131,0.088c0.001,0,0.125-0.111,0.182-0.156c0.075-0.062,0.179-0.14,0.277-0.14
				C30.903,6.323,30.96,6.325,30.98,6.349z"/>
			<path fill-rule="evenodd" clip-rule="evenodd" fill="#DB9669" d="M31.604,6.017l-0.026-0.08c-0.203,0.093-0.01-0.073,0.021-0.153
				c0.013-0.032,0.022-0.148,0-0.166l-0.254,0.333c-0.08,0.279-0.055,0.263,0.077,0.503c-0.015-0.076-0.056-0.186-0.055-0.249
				C31.367,6.194,31.57,6.136,31.604,6.017z"/>
			<g>
				<path fill-rule="evenodd" clip-rule="evenodd" fill="#E6E6E6" d="M31.345,6.156c0.01-0.01,0.018-0.02,0.028-0.024
					c0.08-0.035,0.102-0.026,0.145-0.063c0.045-0.038,0.055-0.084,0.066-0.125c0.003-0.01-0.001-0.043-0.009-0.044
					c-0.117,0.039-0.153,0.066-0.204,0.141c-0.008,0.011-0.039,0.085-0.046,0.11C31.32,6.172,31.333,6.167,31.345,6.156z"/>
				<g>
					<path fill-rule="evenodd" clip-rule="evenodd" fill="#032836" d="M31.541,5.914c0.016,0.075,0.02,0.122-0.049,0.16
						c-0.05,0.028-0.086,0.021-0.125-0.02l0.03-0.054l0.068-0.056L31.541,5.914z"/>
					<path fill-rule="evenodd" clip-rule="evenodd" d="M31.51,5.924c0.008,0.024,0.014,0.061,0.008,0.078
						c-0.007,0.016-0.01,0.026-0.044,0.042c-0.022,0.01-0.049,0.001-0.082-0.034l0.02-0.028l0.056-0.041L31.51,5.924z"/>
					<path fill-rule="evenodd" clip-rule="evenodd" fill="#096282" d="M31.544,5.972c-0.001,0.104-0.101,0.122-0.143,0.092
						l0.016-0.019c0.055,0.023,0.103-0.008,0.108-0.064L31.544,5.972z"/>
					<path fill-rule="evenodd" clip-rule="evenodd" fill="#FFFFFF" d="M31.539,5.945c-0.009,0.007-0.053,0.043-0.065,0.059
						c0.027,0.004,0.054-0.017,0.066-0.026C31.541,5.966,31.54,5.958,31.539,5.945z"/>
				</g>
				<path opacity="0.5" fill-rule="evenodd" clip-rule="evenodd" fill="#6E6A6A" d="M31.584,5.919
					c-0.002-0.01-0.005-0.019-0.009-0.019c-0.117,0.039-0.153,0.066-0.204,0.141c-0.008,0.011-0.039,0.085-0.046,0.11
					c-0.002,0.01-0.001,0.014,0.003,0.015c0.011-0.018,0.045-0.06,0.074-0.086C31.472,6.021,31.56,5.967,31.584,5.919z"/>
				<path fill-rule="evenodd" clip-rule="evenodd" fill="#C2845B" d="M31.545,5.9c0.024-0.007,0.052-0.032,0.075-0.047
					c-0.021,0.035-0.046,0.06-0.073,0.071c-0.1,0.039-0.125,0.049-0.18,0.15l-0.025,0.062c-0.038,0.085-0.033,0.04-0.012-0.015
					c0.007-0.021,0.015-0.04,0.025-0.063C31.417,5.942,31.445,5.94,31.545,5.9z"/>
				<path fill-rule="evenodd" clip-rule="evenodd" fill="#C2845B" d="M31.348,6.165c0.012-0.011,0.019-0.019,0.029-0.023
					c0.079-0.035,0.102-0.025,0.145-0.063c0.055-0.046,0.064-0.101,0.066-0.157c-0.009,0.044-0.034,0.107-0.079,0.144
					c-0.04,0.033-0.088,0.032-0.139,0.059c-0.01,0.006-0.019,0.014-0.032,0.029C31.323,6.168,31.338,6.174,31.348,6.165z"/>
				<path fill-rule="evenodd" clip-rule="evenodd" fill="#704A31" d="M31.576,5.936c-0.022,0.001-0.033,0.004-0.055-0.001
					c-0.002,0.009,0.018,0.012,0.031,0.013c-0.021,0.005-0.033,0-0.054-0.001c0.004,0.005,0.017,0.016,0.033,0.018
					c-0.026,0.005-0.059-0.009-0.061-0.006c-0.003,0.003-0.014,0.021,0.026,0.021c-0.017,0.005-0.031-0.006-0.048-0.002
					c-0.009,0.015,0.005,0.02,0.035,0.018C31.458,6,31.442,5.999,31.417,6.004c0.009,0.015,0.026,0.013,0.044,0.015
					c-0.022,0.003-0.041,0.006-0.065,0.009c-0.003,0.007,0.017,0.011,0.042,0.015c-0.029,0.002-0.029,0.003-0.055,0.006
					c-0.002,0.011,0.004,0.011,0.028,0.016c-0.017,0.004-0.022,0.007-0.042,0.003c0.006,0.012,0.021,0.015,0.032,0.015
					c-0.009,0.002-0.027,0.002-0.039,0.001c-0.002,0.005,0.003,0.007,0.012,0.012c-0.006,0.007-0.015,0.005-0.02,0.01
					c-0.003,0.004,0.004,0.004,0.01,0.005c-0.012,0.007-0.031,0.041-0.037,0.053c0.021-0.073,0.04-0.137,0.098-0.185
					c0.03-0.025,0.052-0.041,0.075-0.05c0.035-0.013,0.068-0.025,0.097-0.045c-0.004,0.009-0.016,0.015-0.017,0.02
					c0,0.002,0.006,0.007,0.012,0.009c-0.013,0.003-0.027,0-0.028,0.001c0,0.002,0.013,0.009,0.022,0.01
					c-0.016,0.004-0.042,0-0.04,0.001C31.551,5.929,31.56,5.933,31.576,5.936z"/>
			</g>
			<g>
				<g>
					<g>
						<path fill-rule="evenodd" clip-rule="evenodd" fill="#DB9669" d="M31.409,6.855c-0.066,0.005-0.14,0.109-0.242,0.06
							C31.107,6.887,31.262,6.764,31.409,6.855z"/>
						<path fill-rule="evenodd" clip-rule="evenodd" fill="#F1B287" d="M31.37,5.961c-0.093,0.24-0.025,0.373,0.181,0.605
							c0.055,0.062,0.12,0.132,0.126,0.158c0.01,0.042-0.035,0.102-0.09,0.131c-0.084,0.046-0.158-0.027-0.264,0.005
							c-0.018,0.005-0.035,0.013-0.052,0.02c-0.059,0.026-0.111,0.07-0.151-0.01c-0.019-0.038-0.012-0.09,0.008-0.125
							c0.021-0.04,0.073-0.063,0.142-0.059C31.166,6.399,31.107,6.179,31.37,5.961z"/>
						<path fill-rule="evenodd" clip-rule="evenodd" fill="#F5BC95" d="M31.327,6.118c-0.025,0.159,0.056,0.271,0.216,0.451
							c0.052,0.059,0.117,0.125,0.122,0.149c0.01,0.041-0.027,0.098-0.079,0.126c-0.057,0.031-0.12,0.009-0.18-0.003
							c0.144-0.013,0.211-0.085,0.149-0.164C31.289,6.358,31.301,6.161,31.327,6.118z"/>
					</g>
					<path fill-rule="evenodd" clip-rule="evenodd" fill="#E8A476" d="M31.288,6.708c-0.126-0.011-0.178,0.025-0.151,0.152
						C31.055,6.743,31.147,6.626,31.288,6.708z"/>
				</g>
				<path fill-rule="evenodd" clip-rule="evenodd" fill="#361D07" d="M31.359,6.014c0.042-0.009,0.076-0.052,0.107-0.093
					c0.051-0.067,0.085-0.109,0.116-0.167c0.011-0.019,0.022-0.035,0.031-0.059c0.021-0.051-0.003-0.13-0.029-0.165
					c-0.019,0.058-0.034,0.09-0.067,0.142c-0.032,0.05-0.057,0.079-0.081,0.105c-0.03,0.032-0.062,0.061-0.113,0.12
					c0.008-0.015,0.011-0.026,0.019-0.034c-0.036,0.022-0.065,0.071-0.064,0.077C31.288,5.972,31.314,6.023,31.359,6.014z"/>
			</g>
			<g>
				<path fill-rule="evenodd" clip-rule="evenodd" fill="#DB9669" d="M31.638,6.225c-0.01,0.007-0.021,0.015-0.03,0.023
					c-0.045,0.034-0.093,0.066-0.131,0.086c-0.042,0.023-0.068,0.026-0.09,0.006c-0.018-0.017-0.025-0.049-0.035-0.099l-0.018-0.08
					l0.028-0.005l0.017,0.08c0.008,0.043,0.016,0.072,0.028,0.084c0.009,0.01,0.025,0.006,0.055-0.01h0.001
					c0.037-0.019,0.084-0.05,0.128-0.084c0.012-0.009,0.023-0.019,0.036-0.027C31.629,6.2,31.634,6.215,31.638,6.225z"/>
				<path fill-rule="evenodd" clip-rule="evenodd" fill="#DB9669" d="M31.648,6.271c-0.007,0.005-0.009,0.007-0.017,0.013
					c-0.045,0.034-0.093,0.066-0.13,0.086c-0.043,0.024-0.069,0.025-0.09,0.006c-0.018-0.017-0.026-0.05-0.035-0.1l-0.024-0.109
					l0.029,0.002l0.022,0.102c0.008,0.044,0.016,0.072,0.027,0.084c0.01,0.009,0.026,0.006,0.056-0.01h0.001
					c0.036-0.02,0.083-0.051,0.127-0.084c0.01-0.006,0.018-0.013,0.026-0.02C31.646,6.252,31.647,6.263,31.648,6.271z"/>
				<g>
					<path opacity="0.5" fill-rule="evenodd" clip-rule="evenodd" fill="#CCC8C8" d="M31.733,6.149
						c-0.044,0.048-0.17,0.147-0.25,0.188c-0.071,0.041-0.087,0.009-0.104-0.084l-0.031-0.14c-0.017-0.092-0.014-0.128,0.047-0.167
						c0.114-0.076,0.223-0.137,0.346-0.202c0.052-0.026,0.054-0.01,0.058,0.043C31.809,5.92,31.811,6.065,31.733,6.149z"/>
					<path fill-rule="evenodd" clip-rule="evenodd" fill="#4A4642" d="M31.744,6.16c-0.024,0.025-0.071,0.065-0.122,0.104
						c-0.046,0.034-0.094,0.067-0.132,0.086c-0.043,0.024-0.068,0.026-0.089,0.006c-0.018-0.017-0.026-0.05-0.036-0.1l-0.03-0.14
						c-0.008-0.048-0.013-0.082-0.006-0.109c0.008-0.03,0.024-0.05,0.058-0.072c0.059-0.038,0.115-0.072,0.172-0.105
						c0.057-0.033,0.115-0.064,0.177-0.098c0.031-0.016,0.049-0.018,0.063-0.005c0.011,0.011,0.013,0.03,0.015,0.061
						c0.005,0.066,0.009,0.137,0,0.201C31.804,6.054,31.784,6.115,31.744,6.16L31.744,6.16z M31.604,6.241
						c0.052-0.038,0.098-0.077,0.119-0.101c0.037-0.04,0.055-0.095,0.062-0.155c0.009-0.062,0.005-0.13,0-0.196
						c-0.001-0.023-0.002-0.039-0.006-0.042c-0.002-0.002-0.012,0.001-0.03,0.011c-0.062,0.033-0.119,0.064-0.176,0.097
						c-0.056,0.033-0.112,0.067-0.17,0.104c-0.026,0.018-0.04,0.034-0.045,0.055c-0.007,0.022-0.003,0.053,0.006,0.097l0.029,0.141
						c0.009,0.043,0.016,0.073,0.028,0.084c0.009,0.01,0.025,0.006,0.056-0.01l0,0C31.514,6.307,31.561,6.275,31.604,6.241z"/>
				</g>
			</g>
			<g>
				<path fill-rule="evenodd" clip-rule="evenodd" fill="#DB9669" d="M31.051,6.625c-0.037,0.022-0.102,0.055-0.172,0.088
					c-0.069,0.033-0.144,0.066-0.198,0.088c-0.039,0.017-0.067,0.023-0.088,0.02c-0.021-0.003-0.023-0.027-0.018-0.045
					c0.003,0.004,0.005,0.007,0.008,0.009c0.015,0.011,0.04,0.01,0.086-0.009v0c0.056-0.022,0.129-0.055,0.198-0.087
					C30.936,6.655,31,6.622,31.036,6.601c0.046-0.028,0.075-0.082,0.094-0.144c0.015-0.048,0.021-0.102,0.024-0.152
					c0.014-0.049,0.014-0.101,0.013-0.15c0-0.002,0.017-0.009,0.018,0.024c0.004,0.078-0.001,0.191-0.028,0.287
					C31.136,6.533,31.103,6.593,31.051,6.625z"/>
				<path fill-rule="evenodd" clip-rule="evenodd" fill="#E8A476" d="M31.075,6.659c-0.036,0.022-0.101,0.055-0.171,0.089
					c-0.069,0.033-0.144,0.065-0.2,0.088c-0.055,0.024-0.089,0.027-0.112,0.009c-0.01-0.007-0.017-0.018-0.021-0.031l0.025-0.011
					c0.004,0.009,0.008,0.016,0.013,0.021c0.035,0.026,0.264-0.091,0.283-0.1c0.069-0.034,0.134-0.066,0.169-0.088
					c0.046-0.027,0.075-0.081,0.094-0.143c0.027-0.092,0.03-0.203,0.027-0.278c0-0.006,0-0.012,0-0.016L31.2,6.189
					c0,0.007,0,0.015,0,0.024c0.004,0.077,0.01,0.19-0.019,0.286C31.161,6.568,31.128,6.627,31.075,6.659z"/>
				<g>
					<path opacity="0.5" fill-rule="evenodd" clip-rule="evenodd" fill="#CCC8C8" d="M31.057,6.628
						c-0.07,0.043-0.256,0.132-0.369,0.176c-0.101,0.044-0.117,0.013-0.13-0.082l-0.026-0.183c-0.013-0.093-0.005-0.128,0.081-0.17
						c0.165-0.08,0.317-0.146,0.49-0.215c0.071-0.028,0.081-0.014,0.082,0.041C31.189,6.324,31.178,6.555,31.057,6.628z"/>
					<path fill-rule="evenodd" clip-rule="evenodd" fill="#4A4642" d="M31.064,6.64c-0.037,0.022-0.102,0.056-0.171,0.088
						c-0.069,0.033-0.145,0.066-0.2,0.088c-0.056,0.024-0.089,0.026-0.113,0.009c-0.021-0.017-0.03-0.051-0.037-0.101l-0.025-0.184
						c-0.006-0.048-0.008-0.083,0.005-0.111c0.012-0.03,0.038-0.051,0.084-0.074c0.083-0.04,0.162-0.077,0.243-0.111
						c0.08-0.035,0.161-0.069,0.248-0.104c0.04-0.016,0.063-0.019,0.079-0.009c0.018,0.01,0.021,0.031,0.022,0.063
						c0.002,0.077-0.001,0.191-0.029,0.287C31.15,6.549,31.117,6.608,31.064,6.64L31.064,6.64z M30.881,6.704
						c0.069-0.033,0.133-0.065,0.169-0.087c0.046-0.028,0.076-0.082,0.094-0.144c0.026-0.092,0.03-0.203,0.028-0.278
						c-0.002-0.022-0.004-0.036-0.009-0.04c-0.007-0.004-0.024,0-0.056,0.012c-0.086,0.035-0.167,0.068-0.247,0.104
						c-0.081,0.035-0.16,0.071-0.241,0.111c-0.04,0.019-0.062,0.037-0.071,0.059s-0.008,0.053-0.003,0.096l0.026,0.184
						c0.006,0.043,0.012,0.072,0.026,0.083c0.014,0.01,0.039,0.007,0.085-0.013l0,0C30.737,6.77,30.812,6.736,30.881,6.704z"/>
					<path fill-rule="evenodd" clip-rule="evenodd" fill="#4A4642" d="M31.188,6.207c-0.009,0.004-0.019,0.001-0.022-0.007
						c-0.004-0.008-0.001-0.018,0.007-0.022l0.175-0.094c0.008-0.004,0.018-0.001,0.022,0.007c0.005,0.008,0.001,0.018-0.007,0.022
						L31.188,6.207z"/>
					<path fill-rule="evenodd" clip-rule="evenodd" fill="#4A4642" d="M30.521,6.477c0.007,0.001,0.024,0.092,0,0.084l-0.844-0.142
						l-0.062-0.042c0.002,0,0.003,0,0.005,0L30.521,6.477z"/>
					<path fill-rule="evenodd" clip-rule="evenodd" fill="#E6E6E6" d="M30.517,6.486c0.008,0.001,0.017,0.034-0.007,0.026
						l-0.701-0.098c-0.006-0.001-0.006-0.006-0.001-0.005L30.517,6.486z"/>
				</g>
			</g>
		</g>
		<g>
			<g>
				<path fill-rule="evenodd" clip-rule="evenodd" fill="#12131A" d="M27.432,17.319c0.026-0.101,0.017-0.185-0.023-0.242
					c-0.006-0.008-0.013-0.016-0.02-0.022l-2.628-2.68c-0.024,0.028-0.035,0.106-0.052,0.168l-0.215,0.791l1.667,3.033l1.055-0.257
					L27.432,17.319z"/>
				<polygon fill-rule="evenodd" clip-rule="evenodd" fill="#333647" points="27.481,17.452 26.384,17.738 26.48,17.872 
					27.592,17.567 				"/>
				<polygon fill-rule="evenodd" clip-rule="evenodd" fill="#333647" points="26.424,17.933 26.617,17.891 26.636,17.797 
					23.944,15.053 23.771,15.078 				"/>
				<path fill-rule="evenodd" clip-rule="evenodd" fill="#242633" d="M25.924,20.027l0.443-1.642l0.126-0.532l-2.723-2.776
					l-0.59,2.168c-0.016,0.056-0.021,0.107-0.02,0.153c0.001,0.032,0.006,0.06,0.015,0.086c0.004,0.013,0.009,0.025,0.015,0.037
					c0.012,0.024,0.027,0.045,0.044,0.063l2.722,2.777C25.885,20.288,25.883,20.175,25.924,20.027z"/>
				<path fill-rule="evenodd" clip-rule="evenodd" fill="#2B2E3D" d="M25.924,20.027l0.443-1.642l0.126-0.532
					c-0.835,1.219-2.51,0.355-3.259-0.27l0.345,0.353l2.376,2.424C25.885,20.288,25.883,20.175,25.924,20.027z"/>
				<path fill-rule="evenodd" clip-rule="evenodd" fill="#242633" d="M27.592,17.567l-1.099,0.286l-0.591,2.168
					c-0.081,0.298,0.097,0.476,0.397,0.397l0.012-0.002c0.301-0.079,0.61-0.383,0.691-0.682L27.592,17.567z"/>
				<path fill-rule="evenodd" clip-rule="evenodd" fill="#2B2E3D" d="M27.168,16.963c0.224,0.029,0.383,0.212,0.307,0.493
					l-0.065,0.219l-0.171-0.161c0.035-0.119,0.013-0.206-0.043-0.262c-0.175-0.177-0.519,0.058-0.637,0.182
					c-0.086,0.092-0.154,0.201-0.184,0.308l-0.072,0.219l-0.237,0.062l0.074-0.219c0.07-0.242,0.217-0.491,0.427-0.656
					C26.748,17.003,26.937,16.933,27.168,16.963z"/>
				<polygon fill-rule="evenodd" clip-rule="evenodd" fill="#ACACB5" points="24.688,18.016 24.861,17.971 24.71,18.518 
					24.538,18.563 24.616,18.25 				"/>
				<path fill-rule="evenodd" clip-rule="evenodd" fill="#333647" d="M24.801,14.398c-0.031-0.033-0.09-0.068-0.131-0.082
					c-0.151-0.051-0.345,0.007-0.477,0.068c-0.118,0.055-0.227,0.132-0.322,0.219c-0.146,0.133-0.273,0.306-0.34,0.489
					c-0.007,0.021-0.014,0.042-0.02,0.063l-0.177,0.646l1.029,2.018l0.242,0.247l1.453,0.51l0.021-0.01l0.091-0.298
					c0.048-0.176,0.265-0.682,0.399-0.821c0.187-0.194,0.724-0.495,0.955-0.272L24.801,14.398z"/>
				<path fill-rule="evenodd" clip-rule="evenodd" fill="#4A4E67" d="M24,14.666c-0.203,0.136-0.352,0.4-0.394,0.555l-0.167,0.614
					l0.978,1.918l0.229,0.235l1.321,0.446l0.02-0.009c0.103-0.336,0.171-0.835,0.442-1.084c0.164-0.151,0.1-0.226,0.003-0.347
					l-2.058-2.201C24.249,14.66,24.167,14.555,24,14.666z"/>
				<path fill-rule="evenodd" clip-rule="evenodd" fill="#555A75" d="M24.417,17.752l0.229,0.235l1.321,0.446l0.02-0.009
					c0.103-0.336,0.171-0.835,0.442-1.084c0.107-0.099,0.117-0.165,0.083-0.233c-0.291,0.062-1.673,0.559-2.488-0.131L24.417,17.752
					z"/>
				<path fill-rule="evenodd" clip-rule="evenodd" fill="#242633" d="M27.33,17.084c0.225,0.03,0.337,0.223,0.26,0.503l-0.215,0.791
					l-0.236,0.062l0.216-0.791c0.031-0.116,0.012-0.209-0.044-0.266c-0.174-0.177-0.539,0.055-0.657,0.179
					c-0.086,0.092-0.153,0.2-0.184,0.307l-0.176,0.645l-0.236,0.062l0.177-0.645c0.071-0.242,0.218-0.49,0.427-0.656
					C26.845,17.131,27.098,17.054,27.33,17.084z"/>
				<polygon fill-rule="evenodd" clip-rule="evenodd" fill="#ACACB5" points="24.688,18.016 24.752,18 24.601,18.547 24.538,18.563 
					24.616,18.25 				"/>
				<polygon fill-rule="evenodd" clip-rule="evenodd" fill="#E8E8F7" points="24.343,17.658 24.545,17.891 24.688,18.016 24.752,18 
					24.406,17.642 				"/>
				<polygon fill-rule="evenodd" clip-rule="evenodd" fill="#D8D8E6" points="24.343,17.658 24.688,18.016 24.538,18.563 
					24.191,18.206 				"/>
				<polygon fill-rule="evenodd" clip-rule="evenodd" fill="#E8E8F7" points="24.351,17.699 24.528,18.523 24.213,18.197 				"/>
				<g>
					<path fill-rule="evenodd" clip-rule="evenodd" fill="#2B2E3D" d="M25.429,14.955c0.004-0.009,0.008-0.018,0.013-0.026
						c0,0,0.001-0.002,0.001-0.003c0.004-0.008,0.009-0.016,0.014-0.023c0.001-0.001,0.001-0.003,0.002-0.004
						c0.005-0.007,0.009-0.013,0.015-0.019c0.001,0,0.001-0.001,0.002-0.002c0.005-0.006,0.012-0.013,0.018-0.018
						c0.009-0.008,0.018-0.014,0.027-0.02c0.003-0.002,0.005-0.003,0.007-0.004c0.01-0.005,0.02-0.009,0.031-0.013l-0.33,0.087
						c-0.01,0.002-0.021,0.007-0.03,0.012c-0.003,0.001-0.005,0.002-0.007,0.004c-0.009,0.005-0.019,0.012-0.028,0.02v0
						c-0.006,0.005-0.012,0.011-0.018,0.018c0,0,0,0,0,0c0,0-0.001,0.001-0.001,0.001c-0.004,0.004-0.007,0.008-0.01,0.013
						c-0.002,0.002-0.003,0.004-0.004,0.006c-0.001,0.002-0.002,0.003-0.003,0.005c0,0.001-0.001,0.002-0.002,0.003
						c-0.003,0.004-0.006,0.009-0.008,0.014c-0.001,0.001-0.002,0.003-0.003,0.005c0,0.001-0.001,0.002-0.001,0.003
						c-0.001,0.002-0.002,0.004-0.003,0.005c-0.002,0.005-0.004,0.009-0.005,0.014c-0.001,0.002-0.002,0.005-0.003,0.008
						C25.1,15.043,25.1,15.044,25.1,15.045c-0.001,0.001-0.001,0.002-0.002,0.004c-0.001,0.004-0.003,0.009-0.004,0.013
						c-0.002,0.005-0.003,0.01-0.004,0.015c0,0,0,0-0.001,0l-0.042,0.152l0.329-0.086l0.042-0.152
						c0.003-0.011,0.007-0.022,0.01-0.032C25.429,14.958,25.429,14.957,25.429,14.955z"/>
					<path fill-rule="evenodd" clip-rule="evenodd" fill="#333647" d="M25.804,14.703c-0.005-0.005-0.011-0.01-0.016-0.015
						c-0.004-0.003-0.007-0.006-0.011-0.009c-0.001-0.001-0.002-0.001-0.003-0.003c-0.001,0-0.002-0.001-0.003-0.002
						c-0.005-0.004-0.011-0.009-0.016-0.013c-0.006-0.004-0.012-0.008-0.017-0.012c-0.001-0.001-0.002-0.001-0.003-0.002
						s-0.002-0.001-0.003-0.002c-0.004-0.002-0.007-0.004-0.012-0.007c-0.005-0.004-0.011-0.008-0.018-0.011
						c-0.002-0.001-0.005-0.003-0.008-0.005c-0.001,0-0.002-0.001-0.003-0.001c-0.002-0.001-0.004-0.002-0.006-0.003
						c-0.005-0.003-0.013-0.006-0.019-0.009c-0.004-0.001-0.008-0.003-0.011-0.005c-0.002,0-0.003-0.001-0.005-0.001
						c-0.001,0-0.002-0.001-0.003-0.001c-0.007-0.003-0.015-0.005-0.022-0.007c-0.003-0.001-0.006-0.001-0.01-0.002
						c-0.002-0.001-0.005-0.001-0.007-0.002c-0.002,0-0.005-0.001-0.007-0.001c-0.01-0.001-0.019-0.003-0.028-0.003l0,0
						c-0.002,0-0.005,0-0.007,0c-0.009,0-0.019,0-0.027,0c-0.001,0-0.002,0-0.002,0c-0.014,0.001-0.027,0.003-0.041,0.007
						l-0.329,0.086c0.121,0.005,0.233,0.071,0.317,0.157l0.194-0.07l0.137-0.052C25.813,14.711,25.808,14.707,25.804,14.703z"/>
					<path fill-rule="evenodd" clip-rule="evenodd" fill="#333647" d="M26.223,16.127c0,0,0.028-0.008,0.027-0.007
						c-0.001,0.019-0.004,0.038-0.007,0.056c-0.001,0.002-0.001,0.003-0.002,0.005c-0.004,0.018-0.008,0.037-0.012,0.054
						l0.328-0.087c0.002-0.007,0.004-0.014,0.007-0.021c0.01-0.047,0.018-0.095,0.02-0.143c0-0.003,0-0.006,0-0.009
						c0-0.002,0.001-0.003,0.001-0.005c0-0.004,0-0.007,0-0.011c0.001-0.059-0.003-0.117-0.011-0.176
						c-0.016-0.086-0.033-0.167-0.065-0.25c-0.001-0.001-0.012-0.028-0.014-0.032c-0.002-0.005-0.008-0.023-0.012-0.026
						c-0.01-0.053-0.12-0.205-0.162-0.248c-0.001-0.001-0.003-0.003-0.004-0.004l-0.161,0.029l-0.18,0.059
						C26.18,15.515,26.256,15.837,26.223,16.127z"/>
					<path fill-rule="evenodd" clip-rule="evenodd" fill="#242633" d="M25.989,15.309l-0.501-0.507
						c-0.214-0.217-0.455-0.156-0.536,0.136L24.91,15.09l0.137,0.139l0.042-0.152c0.053-0.189,0.209-0.229,0.347-0.088l0.501,0.507
						c0.138,0.141,0.207,0.409,0.155,0.599l-0.043,0.151l0.138,0.139l0.043-0.151C26.311,15.941,26.202,15.526,25.989,15.309z"/>
					<path fill-rule="evenodd" clip-rule="evenodd" fill="#2B2E3D" d="M26.229,16.234l-0.043,0.151l0.329-0.087l0.042-0.151
						c0.002-0.007,0.004-0.014,0.007-0.021c0.001-0.008,0.003-0.015,0.004-0.022c0.001-0.003,0.002-0.007,0.002-0.011
						c0.001-0.002,0.001-0.003,0.001-0.005c0.001-0.002,0.001-0.005,0.001-0.007c0.002-0.008,0.003-0.016,0.004-0.023l-0.325,0.061
						L26.25,16.12c-0.001,0.019-0.004,0.038-0.007,0.056c-0.001,0.002-0.001,0.003-0.002,0.005
						C26.237,16.198,26.233,16.217,26.229,16.234z"/>
					<polygon fill-rule="evenodd" clip-rule="evenodd" fill="#333647" points="25.816,14.715 25.475,14.805 25.975,15.313 
						26.317,15.223 					"/>
				</g>
				<path fill-rule="evenodd" clip-rule="evenodd" fill="#333647" d="M27.412,17.767l-0.822,0.221l-0.52,1.908
					c-0.065,0.237,0.062,0.382,0.301,0.32l0.009-0.002c0.239-0.062,0.448-0.301,0.513-0.539L27.412,17.767z"/>
			</g>
			<g>
				<path fill-rule="evenodd" clip-rule="evenodd" fill="#F1B287" d="M25.333,13.965c-0.043,0.73-0.259,1.063-0.232,1.225
					c0.022,0.136,0.552,0.808,0.74,0.974c0.06,0.048,0.219-0.007,0.242-0.033c0.118-0.134,0.021-0.361,0.103-0.662
					c0.049-0.174,0.187-0.126,0.245-0.08c0.093,0.074,0.11,0.258,0.142,0.362c0.024-0.42,0.201-0.738-0.021-1.08
					c-0.101-0.153-0.394-0.736-0.593-0.924L25.333,13.965z"/>
				<path fill-rule="evenodd" clip-rule="evenodd" fill="#E8A476" d="M25.333,13.965c-0.043,0.73-0.259,1.063-0.232,1.225
					c0.021,0.126,0.483,0.721,0.698,0.935c-0.033-0.151-0.046-0.244,0.016-0.797c0.076-0.639,0.321-1.055-0.087-1.545L25.333,13.965
					z"/>
			</g>
			<path fill-rule="evenodd" clip-rule="evenodd" fill="#E4EBF0" d="M22.803,10.963c0.227,0.577,0.866,1.581,1.503,2.501
				c0.179,0.26,0.414,0.445,0.573,0.53c0.12,0.164,0.252,0.335,0.318,0.436c0.246,0.154,0.814-0.229,0.901-0.525
				c-0.086-0.12-0.197-0.291-0.264-0.421c-0.066-0.203-0.106-0.487-0.252-0.753c-0.471-0.855-0.802-1.502-1.169-2.053
				c-0.231-0.347-0.617-0.427-0.977-0.409c-0.198,0.011-0.424,0.007-0.553,0.122C22.755,10.503,22.71,10.727,22.803,10.963z"/>
			<path fill-rule="evenodd" clip-rule="evenodd" fill="#E4EBF0" d="M28.033,9.394c0.421,1.239-0.659,1.454-0.993,1.453
				l-2.786,0.398c-0.864,0.147-1.342-0.023-1.446-0.297c-0.059-0.157-0.057-0.289,0.058-0.531c0.104-0.217,0.711-0.566,1.208-0.713
				c0.551-0.164,1.225-0.448,1.897-0.71C26.618,8.673,27.633,8.214,28.033,9.394z"/>
			<path fill-rule="evenodd" clip-rule="evenodd" fill="#F8FAFC" d="M23.015,10.245c0.234-0.199,0.679-0.43,1.059-0.542
				c0.551-0.164,1.225-0.448,1.897-0.71c0.072-0.035,0.148-0.072,0.228-0.109c-0.082,0.31-0.089,0.636,0.07,1.107
				c-0.786,0.223-1.42,0.36-2.171,0.444c-0.326,0.036-0.601,0.135-0.793,0.166C23.152,10.625,22.962,10.539,23.015,10.245
				L23.015,10.245z M26.437,8.782c0.389-0.151,0.817-0.237,1.154-0.022c0.341,0.656,0.078,0.912-0.137,1.028
				C27.154,9.948,26.439,9.919,26.437,8.782z"/>
			<path fill-rule="evenodd" clip-rule="evenodd" fill="#CED5DB" d="M24.722,11.177c-0.264-0.3-0.607-0.447-0.817-0.474
				c0.345-0.212,1.567-0.145,2.693-0.54c-0.177-0.239-0.289-0.595-0.229-0.938c0.074,0.663,0.483,0.871,0.593,0.863
				c0.34-0.026,0.834-0.074,1.161-0.308c0.093,0.898-0.787,1.067-1.082,1.065L24.722,11.177z"/>
			<path fill-rule="evenodd" clip-rule="evenodd" fill="#CED5DB" d="M22.803,10.963c0.227,0.577,0.866,1.581,1.503,2.501
				c0.179,0.26,0.414,0.445,0.573,0.53c0.12,0.164,0.252,0.335,0.318,0.436c0.104,0.064,0.264,0.035,0.421-0.044
				c-0.109-0.159-0.262-0.34-0.347-0.507c0.128-0.186,0.331-0.302,0.539-0.384c-0.245-0.013-0.5,0.107-0.654,0.22
				c-0.829-0.737-1.394-2.381-2.039-2.792c-0.154-0.098-0.224-0.295-0.159-0.582c-0.027,0.013-0.053,0.03-0.076,0.05
				C22.755,10.503,22.71,10.727,22.803,10.963z"/>
			<path fill-rule="evenodd" clip-rule="evenodd" fill="#F8FAFC" d="M25.801,14.273c0.144-0.108,0.262-0.245,0.298-0.367
				c-0.07-0.098-0.158-0.231-0.224-0.348c-0.145,0.074-0.255,0.179-0.373,0.289C25.58,13.978,25.69,14.145,25.801,14.273
				L25.801,14.273z M25.801,13.367c-0.05-0.188-0.099-0.418-0.219-0.636c-0.337-0.61-0.602-1.115-0.859-1.554
				c-0.069-0.088-0.233-0.21-0.319-0.267c-0.278-0.181-0.61-0.298-0.93-0.098c0.016,0.027,0.096,0.108,0.167,0.201
				c0.583,0.763,1.102,1.641,1.638,2.45C25.469,13.385,25.627,13.359,25.801,13.367z"/>
		</g>
	</g>
</g>
</svg>
