<?xml version="1.0" encoding="UTF-8"?>
<!DOCTYPE svg PUBLIC "-//W3C//DTD SVG 1.1//EN" "http://www.w3.org/Graphics/SVG/1.1/DTD/svg11.dtd">
<!-- Creator: CorelDRAW X6 -->
<svg xmlns="http://www.w3.org/2000/svg" xml:space="preserve" width="6.58167in" height="5.10596in" version="1.1" style="shape-rendering:geometricPrecision; text-rendering:geometricPrecision; image-rendering:optimizeQuality; fill-rule:evenodd; clip-rule:evenodd"
viewBox="0 0 1456 1129"
 xmlns:xlink="http://www.w3.org/1999/xlink">
 <defs>
  <style type="text/css">
   <![CDATA[
    .str0 {stroke:black;stroke-width:1.74165}
    .fil7 {fill:#373435}
    .fil10 {fill:#727376}
    .fil0 {fill:#91D8F8}
    .fil9 {fill:#FEFEFE}
    .fil2 {fill:black}
    .fil4 {fill:#663333}
    .fil3 {fill:#D18B60}
    .fil6 {fill:#D44848}
    .fil1 {fill:#FFCC99}
    .fil5 {fill:white}
    .fil8 {fill:#B63E40}
   ]]>
  </style>
 </defs>
 <rect class="fil0" x="2351" y="-657" width="1880" height="2433"/>
 <path class="fil1" d="M1118 539c0,0 -26,34 -88,26 -63,-8 -77,-24 -77,-24 0,0 -26,13 -112,1 -85,-12 -86,-17 -86,-17 -4,-17 -3,-19 -6,-36 0,0 -9,-9 70,-19 79,-10 113,4 113,4 0,0 30,-15 88,-22 49,-6 134,32 98,87z"/>
 <path class="fil1" d="M1316 881c-15,-15 -17,-60 -52,-101l-82 32c27,72 75,100 110,127 53,34 44,52 105,110 0,3 39,7 30,-28 -24,-18 -45,-130 -110,-139z"/>
 <path class="fil2" d="M1155 723l0 0 0 0 0 0 1 0 99 3 9 54 -82 32 -32 -28c-12,4 -24,7 -34,-1l-18 13 -72 -47 24 -26 104 1 1 0 0 0z"/>
 <path class="fil1" d="M970 886c14,-17 91,-51 128,-91l-72 -47c-69,35 -93,82 -116,120 9,61 15,121 47,222 -3,0 2,19 36,6 15,-26 -3,-165 -23,-210z"/>
 <path class="fil1" d="M1185 384c-27,0 -54,0 -81,0 5,21 8,42 0,63 21,36 54,30 81,0 -10,-18 -9,-39 0,-63z"/>
 <path class="fil1" d="M1151 462c17,-2 16,-10 28,-29l103 19 -7 100c-4,60 -52,63 -20,174 -19,5 -60,8 -102,8l0 0 -2 0 0 0 -2 0 0 0c-42,0 -83,-3 -102,-8 32,-119 -16,-114 -20,-174l-7 -100 94 -16c12,19 21,25 37,27z"/>
 <path class="fil3" d="M1108 432c22,13 47,12 72,-1 0,-4 -1,-21 0,-25 -9,0 -22,-3 -35,-4 -13,-1 -26,2 -36,3 0,4 0,22 0,26z"/>
 <path class="fil4" d="M960 1063c-6,-5 -2,-18 -9,-18 -21,10 -33,25 -73,35 -13,-1 -17,12 -13,17 11,14 52,8 65,9 20,-15 37,0 37,0 10,0 23,0 35,0 4,0 10,-36 0,-52 -10,-4 -23,21 -43,8z"/>
 <path class="fil5" d="M1007 1093c-29,-1 -63,-4 -81,7 -3,2 -56,5 -55,-14l-6 0c-2,4 -2,8 0,11 11,14 61,12 65,9 20,-15 37,0 37,0 10,0 23,0 35,0 2,0 3,-6 4,-13z"/>
 <path class="fil5" d="M935 1052l12 8c4,3 1,5 -1,3l-12 -8c-1,-1 -1,-2 -1,-2l0 0c0,-1 1,-1 2,-1z"/>
 <path class="fil5" d="M924 1057l12 8c4,3 1,5 -1,3l-12 -8c-1,-1 -1,-2 -1,-2l0 0c0,-1 1,-1 2,-1z"/>
 <path class="fil5" d="M915 1063l12 8c4,3 1,5 -1,3l-12 -8c-1,-1 -1,-2 -1,-2l0 0c0,-1 1,-1 2,-1z"/>
 <path class="fil5" d="M904 1067l12 8c4,3 1,5 -1,3l-12 -8c-1,-1 -1,-2 -1,-2l0 0c0,-1 1,-1 2,-1z"/>
 <path class="fil3" d="M1142 599c36,41 78,20 82,14 -3,0 -46,18 -82,-14z"/>
 <path class="fil3" d="M1135 599c-36,41 -78,20 -82,14 3,0 46,18 82,-14z"/>
 <path class="fil3" d="M1138 725c0,-8 0,-15 -1,-25 -1,-7 -27,-3 -36,-11 0,0 35,5 35,-5 0,-10 0,-16 0,-26 0,-6 -25,-5 -34,-10 0,0 35,3 35,-3 0,-11 2,-18 4,-26 0,3 -1,14 0,27 1,6 32,4 32,4 -6,6 -32,3 -32,6 0,8 -1,19 0,30 1,7 31,4 31,4 -5,5 -31,2 -31,11 -1,21 0,28 -3,25z"/>
 <path class="fil3" d="M1142 474c36,-41 78,-20 82,-14 -3,0 -46,-18 -82,14z"/>
 <path class="fil3" d="M1135 474c-36,-41 -78,-20 -82,-14 3,0 46,-18 82,14z"/>
 <ellipse class="fil3" cx="1200" cy="587" rx="6" ry="7"/>
 <ellipse class="fil3" cx="1074" cy="587" rx="6" ry="7"/>
 <path class="fil3" d="M1138 576c-2,-25 -2,-57 -2,-88 3,22 3,77 2,88z"/>
 <path class="fil1" d="M1243 210l-188 0c-19,119 28,213 57,219 13,3 53,4 68,-2 30,-13 81,-99 63,-216z"/>
 <path class="fil3" d="M1238 308c-5,-13 -17,-69 -17,-83 -5,0 -18,13 -24,15 1,-1 4,-6 6,-10 11,-7 27,-17 33,-20l1 0c4,49 0,71 1,93 0,2 0,5 1,7 0,0 -1,-1 -1,-2z"/>
 <path class="fil2 str0" d="M1239 310c-20,-7 -21,-26 -15,-93 -6,3 -16,10 -26,16 0,0 12,-16 12,-16 -37,10 -90,11 -118,16 -14,3 -29,47 -29,47 0,0 -7,-30 -7,-30 -3,14 3,72 3,72 -9,-4 -25,-91 -27,-107 -8,-63 151,-81 198,-41 1,1 3,4 4,6 1,2 10,-2 10,-2 0,0 -4,7 -3,6 1,0 14,-2 14,-2 0,0 -9,10 -8,11 11,13 19,55 -8,116z"/>
 <ellipse class="fil5" cx="1165" cy="291" rx="25" ry="16"/>
 <circle class="fil2 str0" cx="1157" cy="292" r="12"/>
 <circle class="fil5" cx="1150" cy="290" r="5"/>
 <ellipse class="fil5" cx="1087" cy="291" rx="23" ry="16"/>
 <ellipse class="fil2 str0" cx="1079" cy="292" rx="10" ry="12"/>
 <circle class="fil5" cx="1073" cy="290" r="5"/>
 <path class="fil2 str0" d="M1186 265c-38,-4 -41,14 -48,16 0,-19 34,-30 53,-21 -5,5 -8,1 -5,5z"/>
 <path class="fil3" d="M1099 325c-9,9 -8,31 12,32 1,0 -19,-10 -12,-32z"/>
 <path class="fil2 str0" d="M1066 270c35,-6 38,11 45,13 0,-19 -31,-27 -49,-17 5,5 7,0 5,4z"/>
 <path class="fil6" d="M1089 373l77 4c-16,24 -63,21 -77,-4z"/>
 <path class="fil5" d="M1091 373l73 3c-15,22 -60,20 -73,-3z"/>
 <path class="fil3" d="M1206 224c-12,5 -82,13 -99,17 -2,0 -3,1 -3,1 -1,1 -17,-6 -31,19 -1,2 -3,6 -5,9 5,-13 15,-35 25,-36 28,-5 81,-6 118,-16l-5 6z"/>
 <path class="fil1" d="M1230 319l6 -57c-2,-14 38,-31 37,5 0,12 -32,63 -43,52z"/>
 <path class="fil3" d="M1244 298c6,-8 7,-14 10,-18 -6,-2 -6,-3 -8,-1 1,-5 6,-5 10,-2 5,-9 1,-11 -6,-16 29,2 1,34 -5,38z"/>
 <path class="fil3" d="M1287 523c-22,6 -21,26 -20,28 1,-1 1,-21 20,-28z"/>
 <path class="fil3" d="M994 542c31,-6 37,13 37,16 -1,-1 -10,-18 -37,-16z"/>
 <path class="fil4" d="M1396 1038c-7,2 -15,-10 -19,-5 -5,22 -1,40 -17,77 -9,8 -1,20 6,21 18,1 38,-34 47,-42 0,-24 22,-27 23,-27 6,-7 14,-17 21,-26 2,-3 -22,-30 -40,-33 -9,5 2,31 -20,37z"/>
 <path class="fil5" d="M1448 1022c-18,21 -42,44 -44,64 0,3 -30,45 -44,31l-4 5c2,4 5,7 9,7 18,1 46,-38 47,-42 0,-24 22,-27 23,-27 6,-7 14,-17 21,-26 1,-1 -2,-6 -7,-12z"/>
 <path class="fil5" d="M1372 1049l14 -3c4,-1 4,3 2,3l-13 3c-1,0 -2,0 -2,-1l0 0c0,-1 0,-2 1,-2z"/>
 <path class="fil5" d="M1370 1061l14 -3c4,-1 4,3 2,3l-13 3c-1,0 -2,0 -2,-1l0 0c0,-1 0,-2 1,-2z"/>
 <path class="fil5" d="M1368 1071l14 -3c4,-1 4,3 2,3l-13 3c-1,0 -2,0 -2,-1l0 0c0,-1 0,-2 1,-2z"/>
 <path class="fil5" d="M1365 1082l14 -3c4,-1 4,3 2,3l-13 3c-1,0 -2,0 -2,-1l0 0c0,-1 0,-2 1,-2z"/>
 <path class="fil3" d="M1268 584c-31,-8 -29,-27 -27,-30 1,1 1,21 27,30z"/>
 <path class="fil7" d="M1210 721c-11,13 -14,13 -4,29 11,17 14,28 39,26 20,-1 41,-63 29,-72 0,0 -10,-11 -18,-14 -3,-1 -5,-4 -11,-4 -9,3 -50,16 -38,32 0,0 2,3 2,3z"/>
 <path class="fil3" d="M1221 694c-2,2 -23,12 -14,23 3,3 2,6 2,6l-8 10 12 -1 33 -15 5 -29 -4 -2 0 -2c-3,1 -24,8 -26,10z"/>
 <path class="fil1" d="M1213 720c-11,13 -14,13 -4,29 11,17 14,28 38,23 22,-4 45,-59 30,-68 0,0 -10,-11 -18,-14 -3,-1 -5,-4 -11,-4 -9,3 -50,16 -38,32 0,0 2,3 2,3z"/>
 <path class="fil1" d="M1231 539c-9,-45 -6,-83 52,-88 58,23 110,117 118,165 6,38 -81,85 -134,114l-24 -34c22,-22 30,-46 81,-81 18,-12 -63,1 -93,-76z"/>
 <path class="fil8" d="M499 261l113 12c39,4 68,40 63,79l-56 507c-4,39 -40,68 -79,63l-113 -12c-39,-4 -68,-40 -63,-79l56 -507c4,-39 40,-68 79,-63z"/>
 <polygon class="fil9" points="671,388 416,360 408,427 663,456 "/>
 <polygon class="fil9" points="628,775 373,747 365,815 621,843 "/>
 <polygon class="fil9" points="377,708 632,737 659,495 404,467 "/>
 <polygon class="fil7" points="561,135 578,137 564,268 546,266 "/>
 <path class="fil10" d="M276 0l0 0c23,0 42,19 42,42l0 986c0,23 -19,42 -42,42l0 0c-23,0 -42,-19 -42,-42l0 -986c0,-23 19,-42 42,-42z"/>
 <path class="fil10" d="M0 1069l0 0c0,-23 19,-42 42,-42l469 0c23,0 42,19 42,42l0 0c0,23 -19,42 -42,42l-469 0c-23,0 -42,-19 -42,-42z"/>
 <path class="fil10" d="M281 128l0 0c0,-23 19,-42 42,-42l384 0c23,0 42,19 42,42l0 0c0,23 -19,42 -42,42l-384 0c-23,0 -42,-19 -42,-42z"/>
 <path class="fil1" d="M706 528c-17,-1 -19,2 -23,-17 -4,-20 -10,-29 10,-43 18,-12 74,10 70,26 0,0 1,15 -2,23 -1,4 0,7 -5,10 -8,4 -47,25 -49,5 0,0 -1,-3 -1,-4z"/>
</svg>
