<svg width="400" height="400" xmlns="http://www.w3.org/2000/svg" xmlns:xlink="http://www.w3.org/1999/xlink">
 <style type="text/css">.st0{fill:#F2F3F4;}
	.st1{fill:#BFD3C9;stroke:#91BCA6;stroke-width:6;stroke-miterlimit:10;}
	.st2{fill:#8C8B98;stroke:#77768C;stroke-width:7;stroke-miterlimit:10;}
	.st3{fill:#C9E3E8;stroke:#9DD1DE;stroke-width:6;stroke-miterlimit:10;}
	.st4{fill:#FEFEFD;}
	.st5{fill:#C0784C;stroke:#AA5B30;stroke-width:4;stroke-miterlimit:10;}
	.st6{fill:none;stroke:#4F4D52;stroke-width:11;stroke-miterlimit:10;}
	.st7{fill:#F9F9F9;}
	.st8{fill:#B0D8DD;stroke:#86C2CC;stroke-width:4;stroke-miterlimit:10;}
	.st9{fill:#EEBB91;stroke:#E9A475;stroke-width:3;stroke-miterlimit:10;}
	.st10{fill:#F4CEA7;stroke:#F1B687;stroke-width:3;stroke-miterlimit:10;}
	.st11{fill:#544544;stroke:#423434;stroke-width:4;stroke-miterlimit:10;}
	.st12{fill:#1D8484;stroke:#18706D;stroke-width:4;stroke-miterlimit:10;}
	.st13{fill:#969E9C;}
	.st14{fill:#124745;stroke:#0D2D2B;stroke-width:4;stroke-miterlimit:10;}
	.st15{fill:#212121;}
	.st16{fill:#9F5A37;stroke:#844428;stroke-width:4;stroke-miterlimit:10;}
	.st17{fill:#4A5055;stroke:#393E42;stroke-width:6;stroke-miterlimit:10;}
	.st18{fill:#969E9C;stroke:#7A7A7A;stroke-width:3;stroke-miterlimit:10;}
	.st19{fill:#303030;stroke:#212121;stroke-width:3;stroke-miterlimit:10;}
	.st20{fill:#DBAD2C;stroke:#BF921F;stroke-width:4;stroke-miterlimit:10;}
	.st21{fill:#AD3431;stroke:#892121;stroke-width:4;stroke-miterlimit:10;}
	.st22{fill:#7C4B31;stroke:#6C3B24;stroke-width:4;stroke-miterlimit:10;}
	.st23{fill:#28719A;stroke:#1D5A87;stroke-width:4;stroke-miterlimit:10;}
	.st24{fill:#185666;stroke:#134E51;stroke-width:4;stroke-miterlimit:10;}
	.st25{fill:#E4E1DF;stroke:#B7B7B7;stroke-width:5;stroke-miterlimit:10;}
	.st26{fill:#BCB0A4;stroke:#92867A;stroke-width:3;stroke-miterlimit:10;}
	.st27{fill:#EEBB91;stroke:#E9A475;stroke-width:5;stroke-miterlimit:10;}
	.st28{fill:#F4CEA7;stroke:#F1B687;stroke-width:4;stroke-miterlimit:10;}
	.st29{fill:#F4CEA7;}
	.st30{fill:#F1B687;}
	.st31{fill:#999999;}
	.st32{fill:#DB8F5D;}
	.st33{fill:#595959;stroke:#3A3A3A;stroke-width:2;stroke-miterlimit:10;}
	.st34{fill:#FFFFFF;stroke:#BABABA;stroke-width:3;stroke-miterlimit:10;}
	.st35{fill:#DD3031;stroke:#BA161C;stroke-width:4;stroke-miterlimit:10;}
	.st36{fill:none;stroke:#3A3A3A;stroke-width:5;stroke-miterlimit:10;}
	.st37{fill:#282828;stroke:#141414;stroke-width:3;stroke-miterlimit:10;}
	.st38{display:none;}
	.st39{display:inline;}
	.st40{fill:#F4CEA7;stroke:#F1B687;stroke-width:5;stroke-miterlimit:10;}
	.st41{display:inline;fill:#595959;stroke:#3A3A3A;stroke-width:5;stroke-miterlimit:10;}
	.st42{clip-path:url(#SVGID_2_);fill:#722021;}
	.st43{clip-path:url(#SVGID_4_);fill:#D82D2E;}
	.st44{clip-path:url(#SVGID_6_);fill:#FFFFFF;}
	.st45{clip-path:url(#SVGID_8_);fill:#722021;}
	.st46{clip-path:url(#SVGID_10_);fill:#D82D2E;}
	.st47{clip-path:url(#SVGID_12_);fill:#FFFFFF;}
	.st48{fill:#FFFFFF;}
	.st49{fill:#141414;}
	.st50{fill:#2B2B2B;stroke:#111111;stroke-width:4;stroke-miterlimit:10;}
	.st51{fill:#238CB1;stroke:#1A7489;stroke-width:6;stroke-miterlimit:10;}
	.st52{fill:#D1292A;stroke:#A31415;stroke-width:7;stroke-miterlimit:10;}
	.st53{fill:#D1292A;stroke:#A31415;stroke-width:5;stroke-miterlimit:10;}
	.st54{fill:#E5A376;}
	.st55{fill:#EFB88C;stroke:#E9A373;stroke-width:9;stroke-miterlimit:10;}
	.st56{fill:#89442C;stroke:#723525;stroke-width:4;stroke-miterlimit:10;}
	.st57{clip-path:url(#SVGID_14_);fill:#682727;}
	.st58{clip-path:url(#SVGID_16_);fill:#FFFFFF;}
	.st59{clip-path:url(#SVGID_18_);fill:#B21E22;}
	.st60{fill:#D1292A;stroke:#A31415;stroke-width:4;stroke-miterlimit:10;}
	.st61{display:none;fill:#F4CEA7;stroke:#F1B687;stroke-width:7;stroke-miterlimit:10;}
	.st62{display:none;fill:#D1292A;stroke:#A31415;stroke-width:10;stroke-miterlimit:10;}
	.st63{fill:#89442C;}
	.st64{fill:#682727;}
	    #back{
    animation : slide 8s ease-in-out
    }
    @keyframes slide{
    0%{
    transform : translateX(0)
    }
    100%{
    transform : translateX(-400px)
    }
    }
    /*#closed_mouth2{
    animation : zoom1 linear 8s infinite
    }
    @keyframes zoom1{
    0%,20%{
    visibility : hidden
    }
    21%,30%{
    visibility : visible
    }
    41%,50%{
    visible : hidden
    }
    51%,60%{
    visible : visible
    }
    61%,100%{
    visibility : hidden
    }
    }
    #closed_mouth1{
    animation : zoom2 linear 8s infinite
    }
    @keyframes zoom2{
    0%,52%{
    visibility : hidden
    }
    62%,75%{
    visibility : visible
    }
    76%,89%{
    visibility : hidden
    }
    90%,100%{
    visibility : visible
    }
    }*/
    #closed_mouth1{
    animation : talk linear 8s infinite;
    
    }
    @keyframes talk{
    0%,10%{
    visibility : hidden
    }
    12%,15%{
    visibility : visible;
    
    }
    16%,18%{
     visibility : hidden;
    
    }
    20%,22%{
     visibility : visible;
    
    }
    24%,26%{
     visibility : hidden;
     
    }
    28%,30%{
     visibility : visible;
    
    }
    32%,34%{
    visibility : hidden;
    
    }
    36%,38%{
     visibility : visible;
    
    }
    40%,42%{
    visibility : hidden;
    
    }
     44%,46%{
    visibility : visible;
    
    }
     48%,50%{
    visibility : hidden;
    
    }
    52%,54%{
    visibility : visible;
    
    }
    56%,58%{
    visibility : hidden;
    
    }
    60%,62%{
    visibility : visible;
    
    }
    64%,100%{
    visibility : hidden;
    
    }
    }
    #closed_mouth{
    animation : fade 8s linear infinite
    }
    @keyframes fade{
    0%,20%{
    visibility : visible
    }
    22%,100%{
    visibility : hidden
    }
    }
    #closed_mouth2{
   
    }
    #mouth2{
    animation : tomove 8s linear infinite
    }
    @keyframes tomove{
    0%,3%{
    visibility : visible
    }
    9%,12%{
    visibility : hidden
    }
    15%,18%{
    visibility : visible
    }
    21%,24%{
    visibility : hidden
    }
    27%,31%{
    visibility : visible
    }
    34%,37%{
    visibility : hidden
    }
    40%,43%{
    visibility : visible
    }
    46%,49%{
    visibility : hidden
    }
    52%,55%{
    visibility : visible
    }
    58%,61%{
    visibility : hidden
    }
    64%,67%{
    visibility : visible
    }
    70%,73%{
    visibility : hidden
    }
    76%,79%{
    visibility : visible
    }
    82%,100%{
    visibility : hidden
    }
    }
    #left-arm{
    animation : wave1 1.5s linear alternate infinite;
    transform-origin:0% 0%;
    transform-box:fill-box;
    }
    @keyframes wave1{
      0%{transform:translateY(2px) rotateZ(-30deg)}
       100%{transform:translateY(2px) rotateZ(-12deg)}
    
   
    }
    #left-arm-up{
    animation : point1 8s ease-in-out infinite;
    }
    @keyframes point1{
    0%,100%{
    visibility : hidden
    }
    
    }
    #eyes_2,#eyes1{
    animation : blink 8s linear infinite;
    
    }
    #eyes3,#eyes4{
    animation : blink 8s linear infinite;
    
    }
     @keyframes blink{
    0%,5%{
    visibility : visible
    }
    8%,12%{
     visibility : hidden
    }
    
    16%,70%{
    visibility : visible
    }
    73%,77%{
    visibility : hidden
    }
    80%,100%{
    visibility : visible
    }
    }</style>
 <g>
  <title>Layer 1</title>
  <g id="boss">
   <path class="st27" d="m216.4,150.5l-11.1,0c-4.2,0 -7.6,-3.4 -7.6,-7.6l0,0c0,-4.2 3.4,-7.6 7.6,-7.6l11.1,0c4.2,0 7.6,3.4 7.6,7.6l0,0c0,4.2 -3.4,7.6 -7.6,7.6z" id="svg_116"/>
   <path class="st28" d="m210.9,139.6l0,0c-24.3,0 -44.2,-19.9 -44.2,-44.2l0,-4.1c0,-24.3 19.9,-44.2 44.2,-44.2l0,0c24.3,0 44.2,19.9 44.2,44.2l0,4.1c0,24.3 -19.9,44.2 -44.2,44.2z" id="svg_117"/>
   <g id="svg_118">
    <path class="st29" d="m218.4,85.7c0,0 15.9,15.3 11.5,17.7c-4.4,2.3 -23,1.6 -24.6,0" id="svg_119"/>
    <path class="st30" d="m218.4,85.7c3.5,2 6.7,4.6 9.5,7.5c1.4,1.5 2.8,3 3.9,5c0.3,0.5 0.6,1 0.8,1.6s0.5,1.3 0.5,2.3c0,0.3 0,0.5 -0.1,0.8s-0.2,0.6 -0.3,0.9c-0.3,0.6 -0.8,1.2 -1.3,1.6c-0.1,0.1 -0.3,0.2 -0.4,0.3l-0.3,0.1c-0.2,0.1 -0.3,0.2 -0.5,0.2c-0.3,0.1 -0.6,0.2 -0.9,0.3c-2.3,0.6 -4.3,0.8 -6.4,0.8c-2,0 -4.1,0 -6.1,-0.3c-2,-0.2 -4,-0.5 -6,-1c-1,-0.3 -2,-0.5 -2.9,-0.9s-2,-0.7 -2.7,-1.5c0.5,0.2 1,0.2 1.4,0.2c0.5,0 1,0 1.5,0l2.9,-0.2l5.8,-0.5c1.9,-0.2 3.8,-0.3 5.7,-0.5c0.9,-0.1 1.9,-0.2 2.8,-0.4c0.9,-0.1 1.8,-0.3 2.5,-0.5c0.2,0 0.3,-0.1 0.5,-0.2c0.1,0 0.1,-0.1 0.2,-0.1l0.1,0l-0.1,0c-0.1,0.1 -0.3,0.3 -0.4,0.5c0,0.1 -0.1,0.2 -0.1,0.2s0,0 0,0.1c0,0 0,-0.3 -0.1,-0.6c-0.1,-0.3 -0.3,-0.7 -0.4,-1.1c-0.7,-1.5 -1.8,-3.1 -2.8,-4.7c-1.9,-3.2 -4.2,-6.4 -6.3,-9.9z" id="svg_120"/>
   </g>
   <path class="st31" d="m182.5,84.5l-11.5,1.7c-2.4,0 -7.1,-0.8 -7.1,-2.7l1,-11c0,-1.9 3.8,-2.5 6.1,-2.5l9.1,-1.4c2.4,0 5.7,2.9 5.7,4.8l0.9,9c0.1,1.9 -1.8,2.1 -4.2,2.1z" id="svg_121"/>
   <g id="svg_122">
    <g id="svg_123">
     <g id="svg_124">
      <path class="st29" d="m170.4,91.2c-1.9,-4.8 -6.4,-8.1 -11.7,-8.1c-7,0 -12.6,5.8 -12.6,13s5.6,13 12.6,13c4.9,0 9.1,-2.9 11.2,-7.1" id="svg_125"/>
      <path class="st30" d="m170.4,91.2c-1.6,-2.5 -3.7,-4.4 -6.1,-5.4c-2.4,-1 -5,-1.2 -7.4,-0.6c-2.3,0.6 -4.4,2 -5.8,3.9c-1.4,1.9 -2.3,4.2 -2.4,6.5c-0.3,4.7 2.7,9.5 7.3,11.1c2.3,0.9 4.9,0.9 7.4,0.1s4.8,-2.5 6.6,-4.9c-0.4,1.4 -1.1,2.8 -2,4s-2.1,2.3 -3.5,3.1c-2.8,1.6 -6.2,2.2 -9.5,1.5s-6.3,-2.7 -8.3,-5.5c-1,-1.4 -1.8,-2.9 -2.3,-4.6c-0.5,-1.6 -0.7,-3.4 -0.6,-5.1c0.1,-3.4 1.5,-6.8 3.7,-9.4s5.4,-4.3 8.8,-4.7c3.3,-0.5 6.7,0.4 9.3,2.3c2.4,2.1 4.2,4.8 4.8,7.7z" id="svg_126"/>
     </g>
     <g id="svg_127">
      <path class="st32" d="m157.1,91.5c1.7,0.6 2.9,1.6 3.9,2.8c0.5,0.6 1,1.3 1.3,2.1c0.4,0.8 0.7,1.6 0.7,2.9c0,0.7 -0.2,1.6 -0.9,2.5c-0.4,0.4 -0.9,0.8 -1.3,1c-0.3,0.1 -0.4,0.2 -0.7,0.2c-0.2,0.1 -0.4,0.1 -0.6,0.1c-0.2,0 -0.4,0 -0.5,0l-0.4,-0.1c-0.3,0 -0.5,-0.1 -0.8,-0.1c-0.3,-0.1 -0.5,-0.2 -0.8,-0.3c-0.3,-0.1 -0.5,-0.3 -0.8,-0.4c-0.3,-0.2 -0.5,-0.4 -0.7,-0.6c-0.2,-0.3 -0.4,-0.5 -0.6,-0.8c-0.3,-0.6 -0.4,-1.2 -0.4,-1.7s0.1,-1 0.4,-1.4c0.2,-0.4 0.5,-0.8 0.8,-1.1c0.4,0.8 0.7,1.5 1.2,1.8s0.7,0.2 1,0.2c0.1,0 0.1,0 0.2,-0.1c0.1,0 0.2,0 0.3,-0.1c0.1,0 0.2,-0.1 0.3,-0.1l0.2,0l0,0c0,0 0,0 -0.1,0c0,0 0,0 -0.1,0s-0.3,0.2 -0.5,0.3c-0.3,0.4 -0.3,0.6 -0.3,0.5s-0.1,-0.7 -0.2,-1.3l-0.4,-1.9c0,-1.2 -0.2,-2.6 -0.2,-4.4z" id="svg_128"/>
     </g>
    </g>
   </g>
   <g id="svg_129">
    <path class="st33" d="m248.2,247.3c0,0 -23.3,2.6 -35.4,2.6s-33.4,-2.6 -33.4,-2.6c-14.7,0 -11.4,-45.3 -11.4,-53.7l0,-33.1c0,-8.4 12.1,-15.2 26.8,-15.2c4.8,0 9.4,2.4 14.2,2.4c6.8,0 13.7,-2.4 20.5,-2.4c1.6,-0.1 10.5,-0.3 18.9,4.5c4.9,2.8 7.9,6.6 7.9,10.8l0,33.1c-0.1,8.3 6.6,53.6 -8.1,53.6z" id="svg_130"/>
    <path class="st34" d="m220.5,225.6l-21.5,0c-2.4,0 -4.3,-1.9 -4.3,-4.2l0,-67.4c0,-2.3 -1.8,-9.9 0.6,-9.9c3,1.1 8.9,2.7 14.7,2.9c6.1,0.2 12,-1.4 15.2,-2.4c0.5,0.7 0,3 0,4.5c0,1.7 -0.3,3.8 -0.3,4.9l0,67.5c0,2.2 -2,4.1 -4.4,4.1z" id="svg_131"/>
    <polygon class="st35" points="208.60000610351562,149 196.6999969482422,162.20001220703125 204.60000610351562,167.10000610351562 200.60000610351562,210.79998779296875 208.10000610351562,223.39999389648438 216,210.79998779296875 212.60000610351562,166.89999389648438 219.39999389648438,161.29998779296875 " id="svg_132"/>
    <polygon class="st33" points="194.6999969482422,142 179.39999389648438,154 187,166.29998779296875 182.8000030517578,205.39999389648438 194.6999969482422,225.60000610351562 " id="svg_133"/>
    <polygon class="st33" points="224.89999389648438,141.60000610351562 240.1999969482422,153.60000610351562 232.60000610351562,166 236.8000030517578,205.29998779296875 224.89999389648438,225.60000610351562 " id="svg_134"/>
    <path class="st36" d="m168,220.6c0,0 16.4,6.1 34.5,5.6s26.1,0 26.1,0s27.8,-2.4 29.2,-5.6" id="svg_135"/>
   </g>
   <path class="st37" d="m249.7,316.2c0,0 33.9,24.8 23.2,26.7s-40.1,-2.5 -40.1,-2.5l-1.1,-3.6l-3.5,3.7l-10.3,-0.9c0,0 -2.8,-23.9 7.9,-24.4s23.9,1 23.9,1z" id="svg_136"/>
   <path class="st37" d="m204.2,317.6c0,0 33.9,24.8 23.2,26.7c-10.7,1.9 -40.1,-2.5 -40.1,-2.5l-1.1,-3.6l-3.5,3.7l-10.3,-0.9c0,0 -2.8,-23.9 7.9,-24.4c10.7,-0.5 23.9,1 23.9,1z" id="svg_137"/>
   <polyline class="st33" points="206.8000030517578,242.70001220703125 204.39999389648438,319.79998779296875 173.39999389648438,319.79998779296875 173.39999389648438,242.70001220703125 " id="svg_138"/>
   <g id="svg_139">
    <polyline class="st33" points="255.5,240.60000610351562 255,319.79998779296875 224,319.79998779296875 219.39999389648438,242.70001220703125 " id="svg_140"/>
   </g>
   <g id="left-arm">
    <g id="svg_141">
     <path class="st28" d="m341.8,277.2c5.2,-4.5 -6,-18.7 -11.8,-25.4c0.2,-0.2 0.3,-0.4 0.5,-0.6c7.1,5.6 22.3,16.7 24.9,10.1c2.6,-6.5 -13.8,-14.5 -21.7,-17.9c0.3,-2.4 0,-4.9 -0.8,-7.4c5.7,-3.2 15.4,-9.6 12.2,-14.3c-3.3,-4.9 -13.5,1.9 -18.3,5.5c-3.8,-3 -8.7,-4.2 -13.1,-2.6c-7.2,2.6 -10.5,11.4 -7.3,19.8c1.2,3.2 3.2,5.9 5.7,7.8c-0.4,5 -1.9,31.6 6.2,30.2c6.7,-1.1 3.9,-18.1 2,-26.9c0.8,0.1 1.7,0 2.5,-0.1c3.6,7.5 13.4,26.6 19,21.8z" id="svg_142"/>
     <g id="svg_143">
      <path class="st30" d="m327.4,239.1c-0.4,1.4 -1.1,2.6 -1.9,3.7c-0.9,1.1 -1.9,2 -3.1,2.8s-2.6,1.3 -4.1,1.4s-3.2,-0.4 -4,-1.6c1.5,0 2.5,-0.2 3.6,-0.7c1,-0.4 2,-1 3,-1.6l3.1,-2c1,-0.7 2.1,-1.4 3.4,-2z" id="svg_144"/>
     </g>
     <g id="svg_145">
      <path class="st30" d="m312.7,234.7c1.1,0.2 2.1,0.7 2.9,1.2c0.9,0.5 1.6,1.2 2.4,1.8c0.7,0.7 1.3,1.5 1.9,2.3c0.5,0.9 1,1.8 1.3,2.9c-1.1,-0.2 -2.1,-0.7 -2.9,-1.2c-0.9,-0.5 -1.6,-1.2 -2.3,-1.8c-0.7,-0.7 -1.3,-1.5 -1.9,-2.3c-0.7,-0.8 -1.2,-1.7 -1.4,-2.9z" id="svg_146"/>
     </g>
    </g>
    <polyline class="st33" points="255.60000610351562,158.39999389648438 315.79998779296875,220.70001220703125 299.79998779296875,238.79998779296875 240.5,174.89999389648438 " id="svg_147"/>
   </g>
   <g id="left-arm-up">
    <g id="svg_148">
     <path class="st28" d="m397.4,191.3c0.9,-6.8 -16.8,-10.1 -25.6,-11.3c0,-0.3 0,-0.5 0,-0.8c9,-0.5 27.8,-2.1 25.4,-8.8c-2.3,-6.6 -19.9,-1.8 -28.1,0.8c-1.4,-2 -3.2,-3.7 -5.5,-5c2.2,-6.2 5.3,-17.4 -0.2,-18.8c-5.7,-1.5 -8.9,10.3 -10.1,16.2c-4.8,0.2 -9.3,2.6 -11.6,6.7c-3.7,6.7 -0.4,15.5 7.6,19.7c3,1.6 6.3,2.3 9.4,2.1c3,4 19.4,25 24.6,18.6c4.3,-5.2 -9,-16.2 -16.2,-21.5c0.7,-0.5 1.3,-1.1 1.8,-1.7c7.5,3.2 27.4,11.1 28.5,3.8z" id="svg_149"/>
     <g id="svg_150">
      <path class="st30" d="m361.4,172.2c0.6,1.3 0.9,2.7 1,4c0,1.4 -0.1,2.8 -0.5,4.1c-0.4,1.4 -1.1,2.7 -2.2,3.8c-1.1,1.1 -2.7,1.8 -4.1,1.4c1.1,-1 1.7,-1.8 2.2,-2.9c0.5,-1 0.8,-2.1 1.2,-3.2l1,-3.5c0.5,-1.2 0.9,-2.4 1.4,-3.7z" id="svg_151"/>
     </g>
     <g id="svg_152">
      <path class="st30" d="m347.5,178.5c1,-0.6 2,-0.9 3,-1c1,-0.2 2,-0.2 3,-0.2c1,0.1 2,0.3 2.9,0.5c1,0.3 1.9,0.7 2.9,1.3c-1,0.6 -2,0.9 -3,1c-1,0.2 -2,0.2 -2.9,0.2c-1,-0.1 -2,-0.3 -2.9,-0.5c-1.1,-0.2 -2.1,-0.5 -3,-1.3z" id="svg_153"/>
     </g>
    </g>
    <polyline class="st33" points="254.3000030517578,158.79998779296875 340.6000061035156,166 340.5,190.10000610351562 253.8000030517578,181.10000610351562 " id="svg_154"/>
   </g>
   <g id="right-arm1_1_" class="st38">
    <g class="st39" id="svg_155">
     <path class="st40" d="m-2.4,108.8c3.3,-7.5 25.1,-0.8 35.6,3c0.2,-0.3 0.3,-0.5 0.5,-0.8c-9.7,-5.6 -29.3,-17.9 -22.4,-23.4c6.9,-5.4 23.2,9.5 30.5,16.8c2.8,-1.2 5.9,-1.9 9.3,-2c1.6,-7.5 5.5,-20.6 12.4,-19c7.3,1.7 3.2,15.6 0.8,22.2c5.2,3 8.6,7.9 8.4,13.4c-0.2,9 -9.7,16 -21.1,15.8c-4.4,-0.1 -8.5,-1.2 -11.8,-3.2c-5.9,2.4 -37.6,14.5 -39.2,5c-1.3,-7.8 20.4,-11.4 31.9,-12.7c-0.4,-0.9 -0.7,-1.8 -0.9,-2.8c-10.4,-1 -37.5,-4.3 -34,-12.3z" id="svg_156"/>
     <g id="svg_157">
      <path class="st30" d="m49.7,109.7c0.2,2 0,3.6 -0.2,5.1s-0.6,2.8 -0.9,4.1l-1,3.5c-0.3,1.1 -0.6,2.3 -0.2,4.3c-1,0 -2,-0.5 -2.7,-1.1c-0.8,-0.7 -1.4,-1.6 -1.7,-2.6c-0.7,-2 -0.6,-4 -0.1,-5.7s1.3,-3.3 2.5,-4.6c1.1,-1.3 2.4,-2.5 4.3,-3z" id="svg_158"/>
     </g>
     <g id="svg_159">
      <path class="st30" d="m61,124.2c-1.6,0.6 -3,0.7 -4.3,0.6s-2.5,-0.4 -3.6,-0.9s-2.2,-1.2 -3.1,-2.1c-0.9,-0.9 -1.8,-2 -2.4,-3.7c1.6,-0.6 3,-0.7 4.3,-0.6s2.5,0.4 3.6,0.9s2.2,1.2 3.1,2.1c0.9,0.9 1.7,2 2.4,3.7z" id="svg_160"/>
     </g>
    </g>
    <polyline class="st41" points="176.8000030517578,156.79998779296875 76.69999694824219,115.20001220703125 61.20000076293945,139.89999389648438 162.8000030517578,179.89999389648438 " id="svg_161"/>
   </g>
   <g id="right-arm2_1_">
    <g id="svg_162">
     <path class="st40" d="m34.3,170.6c0.3,-6.4 17.4,-7.6 25.8,-7.9c0,-0.2 0.1,-0.5 0.1,-0.7c-8.3,-1.3 -25.4,-4.8 -22.1,-10.7c3.4,-5.9 18.9,0.4 26,3.6c1.6,-1.7 3.6,-3.1 6,-4.1c-0.9,-5.9 -1.8,-16.5 3.5,-17.3c5.6,-0.8 6.5,10.4 6.6,15.9c4.5,0.7 8.2,3.3 9.6,7.4c2.3,6.6 -2.4,14.4 -10.5,17.4c-3.1,1.2 -6.3,1.5 -9.1,1c-3.5,3.4 -22.4,21.1 -26.1,14.6c-3,-5.3 11.3,-14 18.9,-18.2c-0.5,-0.5 -1,-1.1 -1.4,-1.8c-7.6,2.5 -27.6,7.7 -27.3,0.8z" id="svg_163"/>
     <g id="svg_164">
      <path class="st30" d="m71.2,156.6c0.9,1.4 1.4,2.6 1.8,3.8c0.4,1.1 0.5,2.2 0.6,3.1c0.1,1 0.1,1.8 0,2.7c0,0.9 -0.2,1.8 0.5,3.5c-0.8,0.4 -1.7,0.4 -2.5,0.1s-1.6,-0.8 -2.2,-1.4c-1.1,-1.3 -1.7,-2.8 -1.8,-4.2c-0.1,-1.4 0.1,-2.8 0.6,-4.1c0.6,-1.4 1.5,-2.6 3,-3.5z" id="svg_165"/>
     </g>
     <g id="svg_166">
      <path class="st30" d="m83,164c-1,1.2 -2,1.8 -2.9,2.2c-1,0.4 -1.9,0.5 -2.8,0.5s-1.8,-0.3 -2.8,-0.8c-0.9,-0.5 -1.8,-1.2 -2.7,-2.5c1,-1.2 2,-1.8 2.9,-2.2c1,-0.4 1.9,-0.5 2.8,-0.5s1.8,0.3 2.8,0.8c0.9,0.5 1.8,1.2 2.7,2.5z" id="svg_167"/>
     </g>
    </g>
    <polyline class="st33" points="173.10000610351562,155.10000610351562 91.5999984741211,153.10000610351562 87.4000015258789,175.39999389648438 169.60000610351562,175.79998779296875 " id="svg_168"/>
   </g>
   <g id="mouth1">
    <g id="svg_169">
     <g id="svg_170">
      <defs transform="translate(0 -176)">
       <path id="SVGID_1_" d="m195.1,295.9c6,0.4 12.7,0.6 20.1,0.4c8.4,-0.3 16.1,-1 22.6,-1.9c-4.1,7.3 -13.2,11.9 -22.9,11.6c-14.3,-0.5 -19.8,-10.1 -19.8,-10.1z"/>
      </defs>
      <clipPath id="SVGID_2_" transform="translate(0 -176)">
       <use xlink:href="#SVGID_1_" id="svg_171"/>
      </clipPath>
      <path class="st42" d="m195.1,119.9c6,0.4 12.7,0.6 20.1,0.4c8.4,-0.3 16.1,-1 22.6,-1.9c-4.1,7.3 -13.2,11.9 -22.9,11.6c-14.3,-0.5 -19.8,-10.1 -19.8,-10.1z" id="svg_172"/>
     </g>
    </g>
    <g id="svg_173">
     <g id="svg_174">
      <defs transform="translate(0 -176)">
       <path id="SVGID_3_" d="m195.1,295.9c6,0.4 12.7,0.6 20.1,0.4c8.4,-0.3 16.1,-1 22.6,-1.9c-4.1,7.3 -13.2,11.9 -22.9,11.6c-14.3,-0.5 -19.8,-10.1 -19.8,-10.1z"/>
      </defs>
      <clipPath id="SVGID_4_" transform="translate(0 -176)">
       <use xlink:href="#SVGID_3_" id="svg_175"/>
      </clipPath>
      <ellipse class="st43" cx="210.3" cy="128.5" rx="7.5" ry="4.9" id="svg_176"/>
     </g>
    </g>
    <g id="svg_177">
     <g id="svg_178">
      <defs transform="translate(0 -176)">
       <path id="SVGID_5_" d="m195.1,295.9c6,0.4 12.7,0.6 20.1,0.4c8.4,-0.3 16.1,-1 22.6,-1.9c-4.1,7.3 -13.2,11.9 -22.9,11.6c-14.3,-0.5 -19.8,-10.1 -19.8,-10.1z"/>
      </defs>
      <clipPath id="SVGID_6_" transform="translate(0 -176)">
       <use xlink:href="#SVGID_5_" id="svg_179"/>
      </clipPath>
      <path class="st44" d="m238.2,122.4l-42.9,0c-1.3,0 -2.4,-1.1 -2.4,-2.4l0,0c0,-1.3 1.1,-2.4 2.4,-2.4l42.9,0c1.3,0 2.4,1.1 2.4,2.4l0,0c0,1.3 -1.1,2.4 -2.4,2.4z" id="svg_180"/>
     </g>
    </g>
   </g>
   <g id="mouth2">
    <g id="svg_181">
     <g id="svg_182">
      <defs transform="translate(0 -176)">
       <path id="SVGID_7_" d="m195.2,296.6c6,0.5 12.7,0.7 20.1,0.5c8.4,-0.4 16.1,-1.2 22.6,-2.3c-4.1,8.7 -13.2,14.2 -22.9,13.8c-14.2,-0.5 -19.8,-12 -19.8,-12z"/>
      </defs>
      <clipPath id="SVGID_8_" transform="translate(0 -176)">
       <use xlink:href="#SVGID_7_" id="svg_183"/>
      </clipPath>
      <path class="st45" d="m195.2,120.6c6,0.5 12.7,0.7 20.1,0.5c8.4,-0.4 16.1,-1.2 22.6,-2.3c-4.1,8.7 -13.2,14.2 -22.9,13.8c-14.2,-0.5 -19.8,-12 -19.8,-12z" id="svg_184"/>
     </g>
    </g>
    <g id="svg_185">
     <g id="svg_186">
      <defs transform="translate(0 -176)">
       <path id="SVGID_9_" d="m194.2,295.8c6,0.5 12.7,0.7 20.1,0.5c8.4,-0.4 16.1,-1.2 22.6,-2.3c-4.1,8.8 -13.2,14.3 -22.9,14c-14.2,-0.7 -19.8,-12.2 -19.8,-12.2z"/>
      </defs>
      <clipPath id="SVGID_10_" transform="translate(0 -176)">
       <use xlink:href="#SVGID_9_" id="svg_187"/>
      </clipPath>
      <ellipse class="st46" cx="206.8" cy="130.1" rx="7.5" ry="5.9" id="svg_188"/>
     </g>
    </g>
    <g id="svg_189">
     <g id="svg_190">
      <defs transform="translate(0 -176)">
       <path id="SVGID_11_" d="m195.2,296.6c6,0.5 12.7,0.7 20.1,0.5c8.4,-0.4 16.1,-1.2 22.6,-2.3c-4.1,8.7 -13.2,14.2 -22.9,13.8c-14.2,-0.5 -19.8,-12 -19.8,-12z"/>
      </defs>
      <clipPath id="SVGID_12_" transform="translate(0 -176)">
       <use xlink:href="#SVGID_11_" id="svg_191"/>
      </clipPath>
      <path class="st47" d="m238.3,123.6l-42.9,0c-1.3,0 -2.4,-1.3 -2.4,-2.9l0,0c0,-1.6 1.1,-2.9 2.4,-2.9l42.9,0c1.3,0 2.4,1.3 2.4,2.9l0,0c0.1,1.6 -1,2.9 -2.4,2.9z" id="svg_192"/>
     </g>
    </g>
   </g>
   <path class="st31" d="m234.9,106.5c0,0 15,5.7 14.1,9.3c-0.9,3.6 -10.9,-2.3 -10.9,-2.3s-0.2,6.6 -5,6.1c-4.6,-0.5 -7,-6.3 -7,-6.3s1.4,7 -3.3,5.5c-4.7,-1.4 -7.4,-5.5 -7.4,-5.5s0.1,8.1 -4.2,4.8s-6.6,-4.8 -6.6,-4.8s-2,7.1 -6.2,5.1s-1.8,-6 -1.8,-6s-4.9,7.9 -7,3.7c-2.2,-4.1 5.5,-9.7 17.9,-10.9c12.4,-1.1 27.4,1.3 27.4,1.3z" id="svg_193"/>
   <g id="eyes1">
    <g id="svg_194">
     <ellipse class="st48" cx="238.5" cy="86.9" rx="9.6" ry="7.6" id="svg_195"/>
    </g>
    <g id="svg_196">
     <ellipse class="st48" cx="201.6" cy="86.9" rx="9.6" ry="7.6" id="svg_197"/>
    </g>
   </g>
   <g id="eyes1-closed">
    <g id="svg_198">
     <ellipse class="st48" cx="238.5" cy="86.9" rx="9.6" ry="2.5" id="svg_199"/>
    </g>
    <g id="svg_200">
     <ellipse class="st48" cx="201.6" cy="86.9" rx="9.6" ry="2.5" id="svg_201"/>
    </g>
   </g>
   <g id="eyes_2">
    <g id="svg_202">
     <ellipse class="st49" cx="240" cy="86.7" rx="5.7" ry="4.5" id="svg_203"/>
     <ellipse class="st48" cx="237" cy="84.6" rx="1.9" ry="1.5" id="svg_204"/>
    </g>
    <g id="svg_205">
     <ellipse class="st49" cx="203.1" cy="86.7" rx="5.7" ry="4.5" id="svg_206"/>
     <ellipse class="st48" cx="200.2" cy="84.6" rx="1.9" ry="1.5" id="svg_207"/>
    </g>
   </g>
   <g id="eyes_2-closed">
    <g id="svg_208">
     <ellipse class="st49" cx="240" cy="86.7" rx="5.7" ry="1" id="svg_209"/>
     <ellipse class="st48" cx="237" cy="86.2" rx="1.9" ry="0.3" id="svg_210"/>
    </g>
    <g id="svg_211">
     <ellipse class="st49" cx="203.1" cy="86.7" rx="5.7" ry="1" id="svg_212"/>
     <ellipse class="st48" cx="200.2" cy="86.2" rx="1.9" ry="0.3" id="svg_213"/>
    </g>
   </g>
   <path class="st31" d="m250.3,76l-22.1,-8.8c0,0 4,-4.5 11.7,0s10.4,8.8 10.4,8.8z" id="svg_214"/>
   <path class="st31" d="m189.9,73l21.4,-4c0,0 -5,-5.6 -12.2,-2.8s-9.2,6.8 -9.2,6.8z" id="svg_215"/>
  </g>
 </g>
</svg>