<?xml version="1.0" encoding="utf-8"?>
<!-- Generator: Adobe Illustrator 17.0.0, SVG Export Plug-In . SVG Version: 6.00 Build 0)  -->
<!DOCTYPE svg PUBLIC "-//W3C//DTD SVG 1.1//EN" "http://www.w3.org/Graphics/SVG/1.1/DTD/svg11.dtd">
<svg version="1.1" id="Layer_1" xmlns="http://www.w3.org/2000/svg" xmlns:xlink="http://www.w3.org/1999/xlink" x="0px" y="0px"
	 width="800px" height="600px" viewBox="0 0 800 600" enable-background="new 0 0 800 600" xml:space="preserve">
<g>
	<path fill-rule="evenodd" clip-rule="evenodd" d="M564.649,338.602c-1.174-0.878-3.963-1.597-6.78-1.677
		c1.982-3.352,1.828-7.343,1.054-8.07c-12.103,2.164-18.754,8.236-22.479,12.857c0,0-0.596-0.635-1.509-0.556
		c2.361-3.033,6.324-9.02,4.952-16.043c-1.372-7.023-9.672-9.994-11.049-10.137c0.838,2.953,3.81,15.485,1.816,26.735
		c-5.473,2.159-3.862,6.943-3.036,7.666c-4.411,4.913-16.456,8.699-16.456,8.699s19.101-51.69,23.468-65.609
		c0-0.239-0.686-0.559-0.943-0.447c-2.714,6.194-24.201,66.296-24.201,66.296s-3.658,1.277-5.036,0.922
		c4.197-6.35-0.524-15.29-7.535-21.276c-7.01-5.986-13.487-9.258-19.491-5.061c3.871-14.733,10.348-48.175,6.48-51.427
		c0.819,9.239-5.048,42.442-10.504,56.129c-4.566-2.658-17.325-9.058-25.479,0.599c-4.839-2.964-9.688-5.176-11.733-11.892
		c-1.677-5.507-2.443-10.841-1.754-16.043c2.134-0.878,3.125-2.634,3-4.525c4.274,1.589,14.633,10.599,14.907,9.154
		c-0.274-8.811-2.059-20.434-4.648-28.335c-4.571,1.357-10.21,12.851-10.21,12.851c1.103-8.09,7.695-23.466,10.592-26.181
		c-1.067-3.192-5.334-5.268-7.884-4.47c0,0-3.623,6.386-5.528,13.57c-0.075-3.272,0.288-10.824,0.288-10.824
		c-2.801-0.43-2.011,12.116-1.735,15.294c-0.827-2.169-2.133-11.334-2.133-11.334s-4.725-1.277-6.934,2.075
		c0.686,4.709,3.907,15.633,6.115,23.289l-0.555,0.723c-3.17-4.334-14.426-9.585-17.066-10.762
		c-3.048,5.268,2.554,16.433,6.554,20.912c2.513-2.953,5.758-5.683,9.066-5.827c-0.305,1.836,0.344,3.189,1.861,4.345
		c-1.385,5.115-1.62,11.388-0.429,16.795c1.462,6.638,4.677,10.541,6.636,12.383c3.055,2.874,5.951,4.55,8.462,5.349
		c-3.963,2.331-0.23,7.988-0.23,7.988s-1.845,1.76-2.395,2.749c-5.27-0.906-14.318-2.637-28.163-4.12
		c-13.846-1.483-26.983-1.236-26.983-1.236c0.157-1.895-0.631-4.512-2.753-4.698c-3.775-0.329-12.734,4.255-18.25,9.312
		c-9.107-1.168-18.316-2.403-26.177-1.101c-5.089-1.365-9.869-2.47-12.909-2.926c1.861-4.421,3.357-11.149-0.435-18.076
		c-4.843-8.842-14.215-14.092-20.795-17.343c-6.578-3.25-10.732-4.785-10.732-4.785l2.056-14.113c0,0,3.213,0.255,6.63-0.842
		c3.907-1.255,8.069-4.225,7.735-10.472c-2.555,7.33-7.938,10.098-14.143,9.521c0.455-2.871,1.833-11.603,1.262-12.679
		c-0.686,0.837-1.802,9.889-2.353,12.488c-1.371,0-2.941-0.664-4.044-1.095c0.451-1.967,1.863-10.378,1.816-11.711
		c-0.681,0.524-2.636,10.188-2.952,11.188c-6.909-3.142-9.181-8.093-9.544-13.044c-0.314,0.11-0.773,0.333-0.909,0.524
		c-0.343,5.149,3.317,11.615,10.18,14.375l-2.584,13.229c0,0-14.616-4.904-29.687,1.076c-8.406,3.335-21.443,13.195-18.04,38.154
		c1.828,13.396,13.819,24.438,33.11,25.118c37.337,1.315,50.468-13.635,50.468-13.635s9.973-0.142,13.82-1.051
		c3.478,1.755,11.696,3.969,16.07,4.682c-1.049,1.493-3.147,10.795-0.826,12.711c2.322,1.917,4.68,0.357,4.68,0.357
		s1.18,2.666,3.911,2.73c2.732,0.064,3.302-1.912,3.302-1.912s0.81,1.55,3.01,1.087c2.254-0.475,3.495-2.166,4.267-4.718
		c0.551,1.156,1.462,1.642,3.2,0.796c1.738-0.845,3.601-5.396,4.106-8.453c8.826,1.156,22.468,4.124,24.821,4.769
		c2.354,0.644,4.556-4.383,5.422-7.349c7.788-2.226,22.264-1.566,28.504,0.993c-1.38,6.211-0.965,14.013,3.723,18.633
		c-1.421,3.513-2.481,9.425-0.129,11.395c2.353,1.97,4.351,1.785,6.055,0.923c1.704-0.861,2.91-2.362,2.91-2.362
		c6.844,4.698,16.127,8.983,21.398,8.654c5.269-0.33,9.296-2.256,14.584-6.765c10.432-8.894,14.916-16.805,16.095-21.75
		c0.947,0.331,2.44,0.165,3.148-0.822c0.708-0.99,0.919-3.205-1.181-4.698c1.101,0,2.637-0.505,3.708-0.865
		c-1.544,8.519-3.314,16.275-7.169,30.943c-3.854,14.668-7.788,27.359-10.741,34.171c-2.198,5.073-5.241,13.003-7.859,19.358
		c-1.518-1.009-3.522-0.957-5.315-0.377c3.31-12.426,6.141-26.058,9.036-39.06c2.623,0.869,1.795-8.378,0.965-9.966
		c-0.718,3.456-1.972,8.192-3.862,17.484c-1.891,9.293-7.869,30.47-9.601,38.548c-0.794,3.707-0.617,6.893-0.617,6.893
		s-0.015-0.001-0.04-0.003c0.145,0.536,0.259,1.085,0.345,1.642c0.454,0.25,2.903,1.596,4.217,2.185
		c1.451,0.652,12.715,7.025,20.143,8.969c1.884,0.494,4.5,1.118,6.031,0.677c1.53-0.441,1.493-1.999,1.493-1.999
		s3.526,0.869,6.347,1.522c2.821,0.652,5.641,1.172,7.26,0.434c1.617-0.739,2.157-2.259,2.157-2.259s1.534,0.217,2.157-1.39
		c0.621-1.608-0.084-2.432-2.116-3.171c-2.033-0.739-9.107-2.696-12.279-3.564c0.015-0.002,0.031-0.002,0.045-0.004
		c-1.164-0.208-2.284-0.56-3.338-1.056c-4.502-1.195-12.334-4.83-15.676-6.074c-3.541-1.318-6.109-2.208-8.179-2.208
		c1.728-5.704,4.548-13.454,6.756-18.634c2.288-5.365,5.795-13.275,8.031-20.445c2.235-7.171,3.539-10.878,6.214-21.756
		c2.674-10.878,5.235-17.892,6.891-31.179c9.905-3.912,20.113-14.926,20.113-14.926s1.068,0.478,2.466,0.19
		c-3.999,5.776-5.969,11.223-6.884,16.332c-0.914,5.108,0.432,7.608,2.285,8.142c7.772,2.234,19.661-13.159,27.66-18.358
		c-10.135-3.273-17.399-6.93-18.364-9.818C545.556,346.677,561.037,346.825,564.649,338.602z M310.152,327.122
		c-3.587-1.445-7.445-2.71-11.721-4.301c0.276-1.299,0.283-3.762-0.378-3.861c-0.282,0.792-1.135,3.267-1.135,3.267
		s-1.836-0.488-2.901-0.74c0.823-1.833,0.729-6.089,0.729-6.089S308.92,321.534,310.152,327.122z M305.102,342.917
		c-1.992-0.63-4.131-1.328-6.2-2.194c0.499-2.197,1.835-4.805,1.835-4.805l5.875,1.963
		C306.304,339.176,305.651,341.329,305.102,342.917z M308.122,338.26l4.087,1.168c-0.018,2.197-0.516,6.871-1.169,8.381
		c-1.064,0.071-5.597-0.611-5.597-0.611C306.75,343.96,308.122,338.26,308.122,338.26z M260.369,336.079
		c0.451-2.414,2.25-4.944,2.25-4.944l4.124,0.662c0,0-1.726,3.781-2.14,5.079C264.603,336.876,261.49,336.186,260.369,336.079z
		 M263.754,338.333c-0.471,1.286-1.219,2.988-1.598,5.463l-4.087-0.742c0.275-2.022,1.162-4.628,1.73-5.519L263.754,338.333z
		 M273.4,331.935c0,0-3.207-0.701-4.588-0.988c0.553-1.098,1.346-2.992,2.072-3.953c2.201,0.303,4.508,1.071,4.508,1.071
		C274.318,329.822,273.4,331.935,273.4,331.935z M277.176,328.258c1.99,0.274,5.818,1.838,5.818,1.838
		c-0.944,1.703-2.045,4.339-2.045,4.339s-4.011-1.646-5.976-2.085C274.974,332.35,276.127,329.246,277.176,328.258z
		 M272.745,333.281c-1.153,1.647-2.018,4.859-2.018,4.859s-2.567-0.795-4.507-1.07c0,0,1.44-4.008,2.069-4.75
		C270.177,332.54,272.745,333.281,272.745,333.281z M271.724,339.982c1.101,0.137,5.976,1.427,5.976,1.427s-0.969,1.977-1.521,4.53
		l-6.211-1.181C269.968,344.759,270.57,341.464,271.724,339.982z M272.248,338.251c0,0,1.049-3.488,1.912-4.613
		c1.441,0.246,6.213,2.005,6.213,2.005c-0.603,1.126-1.391,2.882-1.73,4.201C277.044,339.404,272.248,338.251,272.248,338.251z
		 M279.429,341.628c0.828,0.434,6.316,2.033,6.316,2.033c-0.732,1.342-1.452,4.004-1.452,4.004l-6.491-1.367
		C277.907,344.706,278.852,343.002,279.429,341.628z M280.137,340.338c0.157-1.209,1.52-3.872,1.52-3.872l6.343,2.225
		c0,0-1.231,2.248-1.441,3.758C284.907,341.846,280.923,340.641,280.137,340.338z M282.572,335.21
		c0.395-1.929,1.941-4.454,1.941-4.454l5.949,2.141c-0.654,1.182-1.5,3.202-1.913,4.503
		C286.478,336.604,283.936,335.67,282.572,335.21z M292.141,333.063l6.945,2.471c-0.498,0.851-1.146,3.08-1.835,4.667
		c-2.068-0.721-4.679-1.692-7.024-2.415C290.365,336.484,291.451,334.365,292.141,333.063z M290.96,331.126
		c0,0-3.86-1.123-5.372-1.716c1.323-4.751,3.396-7.677,3.396-7.677s3.213,0.792,4.819,1.683
		C293.141,325.295,290.96,331.126,290.96,331.126z M283.935,328.862l-6.21-1.894c0,0,1.861-4.365,3.603-7.313
		c2.483,0.289,6.238,1.583,6.238,1.583C286.147,323.613,284.902,326.113,283.935,328.862z M276.227,326.681
		c0,0-2.05-0.465-4.426-0.922c1.23-2.377,3.858-7.094,3.858-7.094l4.346,0.692C278.399,322.128,276.227,326.681,276.227,326.681z
		 M270.412,325.483l-4.201-0.782c0.827-2.313,2.858-5.006,3.686-7.028l4.534,0.594C273.052,320.58,271.46,323.589,270.412,325.483z
		 M269.338,326.829c-1.075,1.867-1.887,3.733-1.887,3.733s-3.374-0.698-3.904-0.796c0.282-0.891,1.262-2.814,1.813-3.679
		L269.338,326.829z M265.459,338.69c2.307,0.219,4.482,0.934,4.482,0.934s-0.892,2.336-1.441,5.08
		c-1.31-0.165-3.381-0.358-4.682-0.681C263.965,342.48,264.516,340.228,265.459,338.69z M269.285,346.478
		c1.233-0.267,4.017,0.216,6.146,0.683c0,0-1.151,2.508-1.734,4.451c-1.717-0.647-6.186-1.184-6.186-1.184
		S268.222,348.24,269.285,346.478z M274.953,352.305l6.763,0.828c-0.515,0.612-1.028,1.871-1.098,2.951c0,0-5.426-0.792-6.524-1.044
		C273.75,354.104,274.953,352.305,274.953,352.305z M275.363,351.155c0,0,0.928-3.059,1.615-3.526
		c1.201,0.252,6.489,1.259,6.489,1.259s-0.962,1.942-1.305,3.13C280.859,351.91,277.02,351.444,275.363,351.155z M283.021,353.313
		l8.105,1.224c0,0-0.202,2.083-1.58,2.949c0,0-5.186-0.683-7.657-1.223C281.995,354.732,283.021,353.313,283.021,353.313z
		 M283.605,352.233c0,0,0.48-2.302,1.373-3.022c1.168,0.288,8.139,1.764,8.139,1.764c-0.138,1.151-1.477,2.446-1.477,2.446
		S285.665,352.737,283.605,352.233z M285.664,347.953c0,0,0.551-2.266,1.458-3.93c1.931,0.722,7.436,2.275,7.436,2.275l-0.996,3.524
		L285.664,347.953z M288.102,342.989c0,0,0.617-2.553,1.625-4.021c1.312,0.411,5.479,1.647,6.92,2.415
		c-0.578,1.643-1.546,3.624-1.546,3.624C292.271,344.43,289.885,343.483,288.102,342.989z M295.763,346.551l7.45,1.762l-0.756,3.525
		c0,0-5.15-0.611-7.624-1.799C295.246,348.132,295.763,346.551,295.763,346.551z M296.55,345.471c0,0,0.962-2.158,1.546-3.705
		c1.132,0.252,6.523,2.23,6.523,2.23s-0.446,1.798-0.961,3.058C301.701,346.839,296.55,345.471,296.55,345.471z M299.845,333.887
		c-2.456-0.892-5.031-1.971-7.205-2.565c0.756-2.673,1.761-4.91,2.863-7.511c0,0,5.764,1.584,7.843,2.672
		C301.929,329.057,300.697,331.312,299.845,333.887z M291.752,295.034c1.272,0.571,3.899,1.196,3.899,1.196
		c-0.497,4.291-1.399,9.472-2.082,13.893c-1.366-0.715-4.077-1.524-4.077-1.524L291.752,295.034z M288.698,313.516
		c2.269,0.1,4.536,1.386,4.536,1.386c0.552,2.602-0.85,6.236-0.85,6.236l-5.292-1.782
		C287.093,319.357,288.698,314.407,288.698,313.516z M287.093,313.22c-0.094,1.485-1.091,3.672-1.228,5.839l-3.685-0.692l1.7-3.762
		l-1.038-0.295c0,0-1.135,1.978-2.27,3.662l-15.402-2.572C265.17,315.398,273.297,310.448,287.093,313.22z M263.564,316.684
		c0,0,3.674,0.604,4.914,0.892l-3.972,6.945c-2.266-0.314-5.193-0.71-7.934-0.81C257.677,320.534,260.394,318.418,263.564,316.684z
		 M255.723,325.295c2.739-0.098,7.936,0.693,7.936,0.693c-0.473,1.089-1.22,2.578-1.635,3.446l-8.191-0.18
		C253.833,329.255,254.021,326.681,255.723,325.295z M253.549,330.641c1.656-0.433,7.56,0.295,7.56,0.295
		c-0.967,1.733-1.782,3.36-2.438,5.117c0,0-4.351-0.357-6.256,0.032C252.459,334.846,252.583,331.942,253.549,330.641z
		 M252.32,337.568c1.701-0.197,5.853-0.032,5.853-0.032c-0.97,1.867-1.695,5.279-1.695,5.279s-2.59-0.474-4.385-0.474
		C252.093,342.341,251.621,339.267,252.32,337.568z M252.415,343.707l9.179,1.548c-0.758,2.277-2.429,7.215-2.705,8.226
		C253.654,351.923,252.415,346.181,252.415,343.707z M260.138,354.167c0.378-1.511,2.279-7.113,2.897-8.66l4.877,0.863
		c-0.996,1.476-3.85,9.603-3.85,9.603S261.506,355.288,260.138,354.167z M265.371,356.658c-0.033-1.079,1.168-4.173,1.647-5.217
		c2.208-0.435,6.382,1.229,6.382,1.229c-0.828,1.011-1.903,6.293-1.903,6.293S267.026,357.961,265.371,356.658z M272.864,359.213
		c0,0,0.267-2.196,0.886-3.203c1.304,0.252,22.699,3.776,22.699,3.776C291.897,361.378,277.554,361.234,272.864,359.213z
		 M300.122,359.357c0,0-7.348-1.224-9.306-1.655c0.961-1.008,1.406-2.086,1.648-2.985c1.923,0.648,8.962,1.367,8.962,1.367
		C301.427,357.306,300.122,359.357,300.122,359.357z M292.945,353.78c0,0,1.201-1.476,1.546-2.663c1.339,0.684,6.49,1.62,7.76,1.728
		c0,0-0.172,1.618-0.55,2.554C299.023,355.256,292.945,353.78,292.945,353.78z M302.012,359.499
		c1.82-4.065,2.505-9.347,2.781-10.791c0,0,4.429,0.756,5.974,0.648c0,1.223-0.962,6.691-1.545,8.418
		C308.118,358.498,303.253,359.354,302.012,359.499z M323.403,346.155c-1.258,8.133-8.55,10.306-12.686,11.606
		c0.943-3.167,1.938-8.153,1.938-8.153s6.188,0.927,6.47-0.656c-1.56-0.172-4.883-0.387-6.263-0.819
		c0.275-1.591,1.029-6.358,0.893-8.237c1.958,0.575,3.64,1.258,4.738,0.467c-1.924-1.583-9.951-3.686-9.951-3.686
		c0.54-1.354,1.228-5.246,1.228-5.246s-0.662-0.497-1.134-0.595c-0.617,2.008-1.029,3.626-1.612,5.281l-5.476-1.82
		c0,0,1.61-4.91,3.402-7.221c3.308,0.792,8.788,2.574,8.788,2.574s-0.672,4.844-0.661,5.246l1.418,0.395c0,0,1.03-4.625,0.755-5.345
		C317.595,330.815,324.406,339.647,323.403,346.155z"/>
	<path fill-rule="evenodd" clip-rule="evenodd" d="M511.568,127.135c2.137,2.913,1.199,4.932,1.199,4.932
		s-6.462-11.701-18.002-10.734c0.138-1.734,2.315-1.825,4.43-1.548C503.629,120.366,508.799,123.364,511.568,127.135z"/>
	<path fill-rule="evenodd" clip-rule="evenodd" d="M515.999,146.38c-16.617-26.884-42.927-18.955-42.927-18.955
		s0-3.288,10.339-3.384c19.201-0.18,30.002,14.214,31.849,17.117C517.107,144.058,517.518,145.369,515.999,146.38z"/>
	<path fill-rule="evenodd" clip-rule="evenodd" d="M495.694,149.276c-1.448,4.629-10.707,16.695-15.393,25.939
		c9.524-0.479,32.002-0.938,41.525-0.349c9.525,0.588,16.917,6.016,17.983,18.228c2.006,22.971-1.628,38.545-7.696,57.468
		c4.689,1.445,7.239,10.776,11.506,12.213c4.268,1.435,5.94,4.667,9.525,6.544l-0.839,0.878c-3.196-1.734-2.667-3.991-8.991-6.147
		c-6.323-2.155-5.752-11.166-13.335-12.611c-5.518-4.622-14.628-8.222-26.21-9.259c-11.581-1.037-22.249,2.314-29.182,7.024
		c-4.398,2.988-7.239,8.54-8.229,12.691c1.827,0.079,13.548,6.142,13.408,7.875c-4.569-2.527-11.428-6.598-15.771-6.518
		c0.829-3.033,3.81-10.775,9.426-15.439c-1.79-4.334-7.293-8.906-10.95-10.901c-4.266,7.343-15.696,9.339-20.343,14.048
		c-4.649,4.71-8.284,5.665-8.284,5.665c1.503,5.589-7.718,13.252-13.585,9.022c-1.142,0.878-4.892,1.09-4.892,1.09l0,0
		c-2.118-5.321-4.404-12.584-4.784-19.368c1.448-0.56,3.695-0.979,3.695-0.979s-7.427-25.441-7.81-30.869
		c-0.382-5.428,0.199-10.952,3.272-15.193c5.023-0.292,9.853,1.912,10.12,8.847c0.423,11.024,8.934,31.089,8.934,31.089
		s5.301-1.621,9.465-5.885c5.164-5.289,20.718-20.456,27.854-21.523c7.256-1.085,16.964,15.521,19.369,28.766
		c-0.424,0.324-0.914,0.48-1.295,0.48c-1.008-4.021-3.733-12.292-8.61-20.514c-3.347-5.643-5.883-6.436-6.781-6.785
		c-2.058-0.798-3.962-0.958-9.296,2.635c-3.826,2.576-19.658,16.841-22.479,19.475c-2.818,2.634-5.484,4.071-7.771,5.029
		c0.305,1.038,0.914,3.192,1.37,4.709c7.997-8.523,16.041-16.063,25.83-21.551c0.154-2.553,0.228-4.948,1.372-5.268
		c0.12,1.925,0.065,16.287,5.029,15.565c1.6,1.117,9.523,5.201,12.419,11.413c20.038-10.456,38.707-4.549,38.707-4.549
		s6.247-28.096,3.58-46.054c3.048-5.508,6.865-13.043,6.096-17.481c-1.828,5.508-4.213,11.522-7.543,16.364
		c0,0-2.361-0.958-2.836-1.878c-9.965,3.873-31.757-0.516-44.679-2.024c0.655-3.521,5.073-9.667,6.48-11.123
		c0.423-0.061,0.728-0.061,0.88,0.338c-2.343,2.167-3.962,6.226-5.256,9.179c10.361,2.633,34.135,4.948,40.853,2.243
		c0.551-1.445,0.824-3.68,1.994-5.22c-14.047,1.86-26.923,2.339-40.714,0.663c-0.153-0.319,0.379-1.118,0.608-1.517
		c5.181-0.319,14.248-0.159,19.735-0.957c0,0-12.801-1.358-17.449-2.155c0.989-2.076,2.743-4.79,2.743-4.79s-2.134,0.08-5.029-0.399
		c4.344-7.024,10.591-14.127,14.172-18.597c3.581-4.47,9.448-13.01,6.629-17.561c-16.134,10.112-29.371,28.372-37.782,45.273
		c2.894,2.889,7.031,4.189,11.03,4.911l0,0v1.735l0,0c-6.756-0.723-12.686-4.48-18.479-8.669
		c4.392-9.886,9.321-15.761,13.458-18.507c1.066,0.08,2.362,0.719,3.276,1.198c6.479-10.258,28.636-28.628,28.636-28.628l0,0
		C497.558,140.918,497.143,144.646,495.694,149.276z"/>
	<path fill-rule="evenodd" clip-rule="evenodd" fill="#AF9655" d="M474.97,176.494c4.688-6.79,13.943-17.959,15.924-20.513
		c-4.412,6.789-8.797,13.822-13.486,20.034C477.407,176.016,476.492,176.814,474.97,176.494z"/>
	<path fill-rule="evenodd" clip-rule="evenodd" fill="#AF9655" d="M454.533,185.701L454.533,185.701
		c-1.127-0.427-2.208-1.156-3.173-2.167c2.122-4.327,6.333-11.327,10.885-15.661c0.827-0.145,1.98,0.08,2.361,0.878
		C463.006,171.386,454.533,185.701,454.533,185.701z"/>
	<path fill-rule="evenodd" clip-rule="evenodd" fill="#FFFFFF" d="M515.961,192.937c1.103-4.334,3.734-12.372,4.21-16.336
		c0.666-0.106,1.651-0.115,2.76,0.289C520.381,186.152,515.961,192.937,515.961,192.937z"/>
	<path fill-rule="evenodd" clip-rule="evenodd" fill="#FFCDAC" d="M537.904,193.015c1.182,10.818,0.685,33.844-7.467,56.991
		c-6.782-5.581-14.629-7.185-14.629-7.185c5.18-20.433,4.114-43.42,4.114-43.42c0.827-0.144,3.811-0.319,3.962-1.357
		c-2.362-0.398-4.037-0.878-4.876-1.676c2.896-5.633,6.266-11.824,6.403-18.757C528.859,178.335,536.724,182.198,537.904,193.015z"
		/>
	<path fill-rule="evenodd" clip-rule="evenodd" d="M399.062,175.957c-4.585,0.915-10.627,3.049-14.994,7.929l-0.508-0.534
		c4.065-5.06,9.97-7.7,15.398-8.196l0,0L399.062,175.957z"/>
	<path fill-rule="evenodd" clip-rule="evenodd" d="M406.414,179.541c-10.895,3.901-24.692,12.66-27.865,25.517
		c-0.229,0.023-0.666,0.023-1.03-0.128c3.31-13.869,16.453-22.709,28.313-26.608C405.831,178.321,406.342,178.93,406.414,179.541z"
		/>
	<path fill-rule="evenodd" clip-rule="evenodd" d="M421.334,183.81c-21.034,4.117-38.283,21.577-38.511,40.171
		c-0.355,0.084-1.083-0.069-1.083-0.069c0.073-22.795,21.761-38.501,39.373-41.399L421.334,183.81z"/>
	<path fill-rule="evenodd" clip-rule="evenodd" fill="#FFFFFF" d="M513.677,185.513c0,0-14.401,2.076-21.64,1.756
		c3.734-1.277,14.935-3.034,22.477-3.512L513.677,185.513z"/>
	<path fill-rule="evenodd" clip-rule="evenodd" fill="#FFFFFF" d="M514.133,191.181l4.8-12.293c0,0-1.37,6.706-3.657,13.09
		L514.133,191.181z"/>
	<path fill-rule="evenodd" clip-rule="evenodd" fill="#D3DB7F" d="M419.348,215.684c0.685,3.512,6.324,23.067,8.153,27.617
		c1.827,4.55,5.237,12.518,4.343,15.564c-1.525,5.188-6.021,6.545-9.579,5.563c-3.721-1.028-4.932-12.147-6.896-19.79
		c-1.965-7.643-7.298-26.239-7.451-30.23c-0.151-3.991,0.358-9.396,2.521-12.174c2.932-0.219,5.583,0.877,6.908,3.071
		C418.675,207.498,418.662,212.172,419.348,215.684z"/>
	<path fill-rule="evenodd" clip-rule="evenodd" fill="#E1ABCA" d="M460.048,235.971c-1.233,5.574-13.995,9.827-16.547,11.8
		c-3.201,2.474-4.8,5.507-9.372,7.183c-0.456-0.559-1.066-2.953-1.295-3.432c6.481-5.778,15.695-13.889,23.351-15.985
		c-4.074-1.894-17.332,8.881-23.732,15.266c3.428-7.662,19.353-19.396,24.078-21.87l-0.458-1.356
		c-6.782,3.751-18.254,13.492-24.459,21.87l-0.457-1.517c7.033-9.245,15.675-16.54,25.603-22.029
		C456.76,225.901,456.784,233.111,460.048,235.971z"/>
	<path fill-rule="evenodd" clip-rule="evenodd" d="M314.382,238.907c2.227,8.712-2.451,17.062-7.679,19.599
		c-5.227,2.537-10.969,1.625-13.998-0.129c-5.18-2.999-6.59-7.57-6.59-13.092c0-5.521,1.596-9.846,6.59-13.519
		C299.113,227.054,311.274,226.748,314.382,238.907z"/>
	<path fill-rule="evenodd" clip-rule="evenodd" fill="#D3DB7F" d="M303.112,230.957c-2.346,6.212,2.317,14.52,9.089,16.519
		c-2.045,9.283-9.816,9.855-9.816,9.855c1.241-5.923,1.046-17.71-12.543-18.804C292.933,230.671,303.112,230.957,303.112,230.957z"
		/>
	<path fill-rule="evenodd" clip-rule="evenodd" fill="#A8BD3A" d="M312.474,244.762c-2.068,0.145-10.408-4.712-7.635-13.472
		C314.019,234.623,312.474,244.762,312.474,244.762z"/>
	<path fill-rule="evenodd" clip-rule="evenodd" fill="#FFFFFF" d="M299.294,244.239c3.317,4.236,2.683,8.807,1.228,12.757
		c0.276-5.056,0.091-14.519-11.451-13.853c-0.138-0.578,0.227-2.046,0.546-2.713C290.932,239.954,295.977,240.002,299.294,244.239z"
		/>
	<path fill-rule="evenodd" clip-rule="evenodd" fill="#D3DB7F" d="M297.023,247.761c2.908,3.524,3.019,6.725,1.226,9.903
		c-4.861-0.905-10.089-4.666-9.315-12.331C291.692,244.612,294.855,245.136,297.023,247.761z"/>
	<path fill-rule="evenodd" clip-rule="evenodd" fill="#AF9655" d="M414.318,248.01c1.381,5.057,2.641,11.372,4.572,16.283
		c-0.458,0.319-2.193,0.704-2.744,0.558c-1.932-4.189-3.582-12.531-4.113-16.203C412.795,248.249,414.318,248.01,414.318,248.01z"/>
	<path fill-rule="evenodd" clip-rule="evenodd" d="M313.52,258.045c-2.758,4.333-5.856,7.102-13.725,7.807
		c-6.908,0.618-12.228-2.139-16.088-6.617l0.547-0.333c4.826,4.045,9.486,5.947,14.858,5.617c6.999-0.428,11.287-3.193,13.772-6.95
		L313.52,258.045z"/>
	<path fill-rule="evenodd" clip-rule="evenodd" d="M497.065,262.457c10.21,1.915,32.61,12.291,41.297,18.837
		c2.514-2.394,7.467-7.024,9.829-9.02c-0.687,1.996-6.231,7.121-9.905,10.856c-9.811-7.567-36.726-21.072-47.011-19.875
		c-6.477,0.754-10.261,8.137-12.192,11.893c1.256,0.175,4.82,1.848,4.269,3.87c-1.297-1.076-3.735-2.913-6.067-1.733
		c-0.031-2.057,1.874-6.528,5.303-10.199C486.018,263.415,489.165,260.975,497.065,262.457z"/>
	<path fill-rule="evenodd" clip-rule="evenodd" fill="#ECBE26" d="M445.482,273.312c-6.705,10.136-9.842,26.653-9.842,26.653
		c-1.967-1.591-4.178,0.166-4.178,0.166s-5.414-18.293-5.715-21.871c0,0,1.538-2.188,4.039-1.277
		c0.305,2.156,2.061,14.518,4.266,15.964c0.501-6.92,3.7-16.073,7.01-22.43C444.416,270.757,445.482,273.312,445.482,273.312z"/>
	<path fill-rule="evenodd" clip-rule="evenodd" d="M286.025,273.136c3.999,4.092,14.451,10.044,22.131,2.475
		C304.339,285.227,287.344,279.372,286.025,273.136z"/>
	<path fill-rule="evenodd" clip-rule="evenodd" fill="#E1ABCA" d="M450.258,311.378c-3.632-2.946-12.015-7.656-12.015-7.656
		c0.967-4.767,6.706-12.851,8.306-13.488C448.478,296.443,449.705,304.009,450.258,311.378L450.258,311.378L450.258,311.378z"/>
	<path fill-rule="evenodd" clip-rule="evenodd" fill="#E1ABCA" d="M428.056,303.721c-3.172,0.433-6.64,2.304-8.708,4.472
		c-3.308-3.613-6.477-12.053-5.409-14.208C417.214,295.181,424.745,298.809,428.056,303.721L428.056,303.721L428.056,303.721z"/>
	<path fill-rule="evenodd" clip-rule="evenodd" fill="#DD9B4D" d="M436.264,303.164c-1.524,1.277-4.801,2.235-6.172,1.835
		c0.227-1.516,1.143-3.512,3.352-3.83C435.652,300.849,436.264,303.164,436.264,303.164z"/>
	<path fill-rule="evenodd" clip-rule="evenodd" fill="#D07748" d="M435.491,305.45c0.619,2.343-1.285,3.699-3.342,3.619
		c-2.058-0.08-1.829-2.474-1.829-2.474S434.034,306.46,435.491,305.45z"/>
	<path fill-rule="evenodd" clip-rule="evenodd" fill="#6F946A" d="M265.4,313.024c-11.007,4.627-16.391,12.47-17.127,20.693
		c-1.37,15.309,3.197,23.202,16.441,27.508c13.245,4.306,26.19,3.179,37.337,1.077c11.417-2.153,18.154-5.263,23.292-11.841
		c-2.626,15.669-32.77,20.094-50.124,19.496c-14.606-0.504-28.659-7.295-32.198-21.888c-2.906-11.977,0.801-29.18,12.936-35.679
		c9.653-6.792,25.727-5.906,35.932-0.562C291.889,311.828,278.588,307.478,265.4,313.024z"/>
	<path fill-rule="evenodd" clip-rule="evenodd" fill="#DD9B4D" d="M432.759,311.305c-0.139,3.609-0.252,9.32,1.523,14.766
		c2.134,6.545,6.02,10.615,12.419,13.648c0.137,0.579-1.109,2.585-1.523,2.874c-5.578-1.994-8.051-4.036-11.352-9.418
		c-2.743-4.469-3.299-10.63-3.286-15.731C430.549,312.342,432.759,311.305,432.759,311.305z"/>
	<path fill-rule="evenodd" clip-rule="evenodd" fill="#E1ABCA" d="M533.561,341.076h-1.523c1.634-8.664,0.839-18.278-0.838-23.467
		c2.057,1.118,8.001,4.71,7.44,10.716C537.938,335.87,533.561,341.076,533.561,341.076z"/>
	<path fill-rule="evenodd" clip-rule="evenodd" fill="#6F946A" d="M326.7,345.035c-2.374-13.566-16.96-23.188-25.153-28.714
		c8.55,3.178,21.25,10.784,24.738,19.324C327.926,339.662,327.306,343.694,326.7,345.035z"/>
	<path fill-rule="evenodd" clip-rule="evenodd" fill="#D07748" d="M541.485,344.747c0,0-2.59,0.638-3.961,0.239
		c-0.228-2.953,5.182-7.822,8.762-9.896c3.581-2.076,7.378-3.523,11.734-4.55c0,0,0.609,3.432-1.981,6.465
		C549.563,337.643,544.559,339.867,541.485,344.747z"/>
	<path fill-rule="evenodd" clip-rule="evenodd" fill="#ECBE26" d="M500.952,344.429c3.353,4.469,4.722,9.368,2.514,12.69
		c-2.656-5.842-9.905-15.804-14.247-18.677c-4.343-2.874-8.307-2.874-11.215,0.639c-0.692-0.288-2.054-0.639-2.882-0.639
		c1.103-2.744,2.627-5.104,7.238-5.587C489.219,332.136,497.041,339.213,500.952,344.429z"/>
	<path fill-rule="evenodd" clip-rule="evenodd" fill="#ECBE26" d="M450.114,345.597c-0.786-0.989-2.046-1.896-3.227-1.978
		c1.792-3.178,3.383-7.333,10.069-8.653c6.687-1.319,11.421,2.058,15.418,3.79C472.375,338.757,460.797,338.202,450.114,345.597z"/>
	<path fill-rule="evenodd" clip-rule="evenodd" fill="#DD9B4D" d="M562.44,339.239c-2.62,2.888-6.019,4.071-9.754,4.789
		c-3.732,0.718-7.616,0.92-9.6,0.878C550.63,335.887,562.44,339.239,562.44,339.239z"/>
	<path fill-rule="evenodd" clip-rule="evenodd" fill="#DD9B4D" d="M500.8,362.467c-3.083-8.266-14.084-21.344-21.259-22.988
		c0.306-1.436,3.541-3.061,7.238-1.198c8.077,4.071,14.629,16.123,16.229,20.674C503.087,360.979,501.714,362.147,500.8,362.467z"/>
	<path fill-rule="evenodd" clip-rule="evenodd" fill="#FFCDAC" d="M492.418,351.132c4.473,5.494,6.153,9.296,7.57,13.499
		c1.415,4.203,1.729,7.499-0.548,12.4c-1.958,4.211-7.792,10.838-13.063,15.123c-5.273,4.285-10.935,6.839-15.497,6.593
		c-4.564-0.248-12.382-4.338-18.724-8.817c2.754-4.285,1.883-9.349,5.191-12.526c5.823,6.429,11.711,11.97,17.909,12.445
		c6.452,0.495,16.172-7.515,18.139-12.541c0.83-2.125,0.682-4.639-1.52-5.71c-2.201-1.071-4.142-0.347-4.557,0.375
		c1.736-0.166,5.23,0.717,4.915,3.931c-0.314,3.214-10.321,12.353-16.529,12.448c-6.209,0.097-14.815-8.82-20.683-16.145
		c-3.919-4.892-6.092-10.788-6.092-10.788c0.945-1.979,2.518-3.38,3.396-3.962c-1.663-0.983-3.786,1.653-4.652,3.219
		c-0.866,1.566-2.281,6.922-0.394,7.665c-0.145-1.445-0.159-3.788,0.944-5.522c0.55,3.049,2.911,6.593,2.911,6.593
		s-4.643,3.791-8.339,11.208c-3.034-2.893-4.646-8.869-3.189-15.024c1.457-6.155,4.138-10.253,6.807-12.17
		c3.146-0.082,5.979-2.554,4.091-6.264c6.479-4.909,18.481-8.216,25.882-6.509C484.112,342.433,488,345.705,492.418,351.132z"/>
	<path fill-rule="evenodd" clip-rule="evenodd" d="M473.066,344.068c1.588,1.724,1.369,4.35,1.369,4.35
		c0.755-2.097,3.51-3.857,6.437-3.817c2.127,0.029,5.011,1.651,5.83,3.657c0.916,2.235,0.765,4.43-0.646,6.769
		c-1.411,2.34-4.084,3.823-6.935,3.264c-3.543-0.694-5.676-3.248-5.523-7.079c-2.206,2.457-5.118,3.261-7.645,2.584
		c-2.526-0.677-4.289-3.517-4.114-5.73c0.176-2.212,1.528-4.429,3.997-5.538C468.305,341.42,471.479,342.345,473.066,344.068z"/>
	<path fill-rule="evenodd" clip-rule="evenodd" fill="#D07748" d="M532.876,342.751c4.267-0.558,3.479,5.444-0.381,5.587
		C532.495,348.338,532.952,344.507,532.876,342.751z"/>
	<path fill-rule="evenodd" clip-rule="evenodd" fill="#DD9B4D" d="M531.124,348.658c-0.965,0-2.636,0.041-2.666-1.995
		c-0.032-2.037,1.371-3.273,2.514-3.353C531.385,344.465,531.124,348.658,531.124,348.658z"/>
	<path fill-rule="evenodd" clip-rule="evenodd" fill="#FFCDAC" d="M476.036,245.377c0,0-4.664-7.753-12.573-11.175
		c-1.158,0.388-2.665-0.799-3.504-3.671c-0.838-2.873-1.524-11.015-1.524-11.015s5.028-4.79,8.534-4.39
		c3.506,0.399,6.096,3.112,9.906,10.377c3.809,7.263,6.323,15.246,6.552,16.521C480.836,242.821,476.036,245.377,476.036,245.377z"
		/>
	<path fill-rule="evenodd" clip-rule="evenodd" fill="#D27F7E" d="M551.06,357.457c-7.445,5.203-18.033,17.86-22.602,15.546
		c-4.572-2.315,3.276-20.913,7.02-24.069C540.029,353.413,545.961,354.568,551.06,357.457L551.06,357.457L551.06,357.457z"/>
	<path fill-rule="evenodd" clip-rule="evenodd" fill="#FFCDAC" d="M449.719,349.716c-0.278,2.081-2.674,3.13-4.17,1.895
		c-1.493-1.236-2.046-4.863,0.315-5.769C448.225,344.936,449.997,347.635,449.719,349.716z"/>
	<path fill-rule="evenodd" clip-rule="evenodd" fill="#FFCDAC" d="M384.478,355.725c-3.725-0.435-8.129,0.026-11.852,1.326
		c-0.828,2.455-2.674,6.098-6.293,6.428c-1.254,0.114-2.202-1.812-1.337-4.615c0.865-2.802,10.619-10.877,18.408-11.785
		c1.916-0.223,2.143,2.381,2.143,3.899C385.547,352.496,385.169,354.713,384.478,355.725z"/>
	<path fill-rule="evenodd" clip-rule="evenodd" fill="#81BBC3" d="M441.066,356.804c-0.827,1.156-1.494,2.637-2.439,4.615
		c-9.125-2.308-21.776-2.908-29.501-1.318c-2.342-2.746-18.994-4.375-22.717-4.231c0.299-1.291,0.613-3.104,0.613-4.422
		c3.237-0.095,16.599,0.247,26.59,1.318C423.603,353.837,432.813,355.161,441.066,356.804z"/>
	<path fill-rule="evenodd" clip-rule="evenodd" fill="#ECBE26" d="M523.581,354.165c-1.523,1.836-10.973,10.696-21.105,11.335
		c-0.277-0.434-0.532-1.276-0.762-1.915c0.688-0.288,2.408-2.08,2.408-3.092C510.628,361.27,523.581,354.165,523.581,354.165z"/>
	<path fill-rule="evenodd" clip-rule="evenodd" fill="#7C9D78" d="M325.945,356.43l0.801-3.829c0,0,6.951,0.78,10.49,2.796
		C333.14,357.348,325.945,356.43,325.945,356.43z"/>
	<path fill-rule="evenodd" clip-rule="evenodd" fill="#7C9D78" d="M348.966,359.103c-4.405-0.456-9.123-2.536-9.929-3.186
		c2.73-1.431,9.806-1.366,12.412-0.586C351.449,355.331,350.953,357.477,348.966,359.103z"/>
	<path fill-rule="evenodd" clip-rule="evenodd" fill="#719CA1" d="M364.733,356.501c-0.606,0.713-1.553,2.602-1.553,4.356
		c-1.116,0-2.297,0.325-2.98,1.04c-2.234-3.446-5.399-1.106-5.399-1.106s-3.043-0.129-4.718-1.104
		c0.414-0.29,2.421-2.666,2.67-4.421C356.477,355.071,364.733,356.501,364.733,356.501z"/>
	<path fill-rule="evenodd" clip-rule="evenodd" fill="#719CA1" d="M407.239,361.419c1.33,0.644-1.572,6.592-2.909,6.345
		c-1.339-0.247-16.78-4.065-24.64-4.499c-0.275-0.865-1.134-1.765-2.521-1.619c-1.388,0.147-3.624,2.269-3.624,2.269
		s-0.932-1.17-2.168-1.255c1.563-1.653,2.168-2.971,2.478-4.531C381.429,356.177,400.79,358.287,407.239,361.419z"/>
	<path fill-rule="evenodd" clip-rule="evenodd" d="M468.875,366.848c2.869,1.575,5.624,0.091,5.929-1.299
		c0.328-1.493-0.443-2.46-0.854-3.472c1.102,0,1.965,1.153,2.123,2.719c0.156,1.566-0.708,3.627-2.99,4.204
		c-2.281,0.576-4.878,0.246-6.247-1.226c-1.658-1.785-1.291-6.543,1.055-6.109C467.89,361.665,466.004,365.273,468.875,366.848z"/>
	<path fill-rule="evenodd" clip-rule="evenodd" fill="#FFCDAC" d="M358.136,372.53c-0.624,1.681-3.744,1.773-4.367-0.187
		c-0.624-1.961,0.538-9.924,3.267-10.38C359.766,361.508,358.76,370.849,358.136,372.53z"/>
	<path fill-rule="evenodd" clip-rule="evenodd" fill="#FFCDAC" d="M374.911,372.042c-1.675,0.78-2.296-0.26-1.985-2.73
		c0.311-2.471,2.543-5.983,4.593-5.983C379.567,363.329,376.588,371.261,374.911,372.042z"/>
	<path fill-rule="evenodd" clip-rule="evenodd" fill="#FFFFFF" d="M505.572,369.494c-0.078,1.649-1.453,1.547-2.28,1.401
		c0,0,0.235-2.143-0.473-3.625C503.843,366.691,505.651,367.846,505.572,369.494z"/>
	<path fill-rule="evenodd" clip-rule="evenodd" fill="#FFCDAC" d="M365.663,366.45c-0.248,2.34-0.868,4.747-1.116,6.567
		c-0.249,1.82-0.994,3.186-2.732,3.186c-1.736,0-2.481-2.015-2.481-2.015s1.343-7.532,0.931-9.949
		C362.499,360.923,365.912,364.108,365.663,366.45z"/>
	<path fill-rule="evenodd" clip-rule="evenodd" fill="#FFCDAC" d="M371.994,365.865c0.125,2.21-0.619,8.127-3.413,9.233
		c-1.976,0.781-3.104-0.156-2.857-1.607c0.249-1.45,0.87-6.456,1.925-8.146C368.704,363.655,371.871,363.654,371.994,365.865z"/>
	<path fill-rule="evenodd" clip-rule="evenodd" fill="#BE2B2A" d="M453.317,372.267c0,0-5.802,3.49-4.714,10.325
		c0.644-5.847,3.92-9.341,5.301-9.341l2.421,3.082c0,0-2.28,2.225-3.382,8.817c-0.51,3.056-2.359,5.521-4.955,7.417
		c-2.597,1.896-4.909-0.234-5.508-1.4c-1.101-2.144-0.707-4.696,0.786-8.488c1.495-3.791,5.113-9.807,8.575-12.609
		C452.314,371.059,453.317,372.267,453.317,372.267z"/>
	<path fill-rule="evenodd" clip-rule="evenodd" fill="#FFCDAC" d="M482.443,452.232c-0.69,2.022-1.732,4.285-2.124,6.345
		c1.701-0.144,4.04,0.392,5.989,0.956c1.949,0.565,8.276,3.364,12.113,5.215c6.958,3.358,14.131,7.201,21.154,9.995
		c-0.002,1.47-1.575,2.13-6.924,0.975c-2.791-0.602-8.104-2.637-12.744-4.779c-4.643-2.143-8.108-4.458-11.251-6.18
		c0-0.66,0.227-2.419-0.478-2.281c-0.702,0.138-0.827,1.444-0.827,2.311c3.089,2.495,13.735,7.963,15.78,8.952
		c2.046,0.989,0.796,2.356-0.551,2.39c-3.305,0.083-8.924-2.334-12.997-4.298c-4.073-1.964-13.345-6.089-14.143-7.569
		c-1.023-1.895-0.079-8.24,1.809-12.608C479.219,450.006,482.443,452.232,482.443,452.232z"/>
	<path fill-rule="evenodd" clip-rule="evenodd" fill="#FFCDAC" d="M521.462,473.575c-1.224,0.467-3.212-0.474-7.112-2.091
		c-3.901-1.617-10.709-5.035-13.106-6.397c3.068,0.905,16.661,4.715,18.912,5.572C522.407,471.515,523.192,472.915,521.462,473.575z
		"/>
	<path fill-rule="evenodd" clip-rule="evenodd" fill="#E1ABCA" d="M430.814,245.778c0,0,11.63-11.486,15.615-14.62
		c3.988-3.132,9.262-6.216,9.262-6.216s0-1.915,0.305-4.15c-1.37,1.118-13.866,12.132-17.829,15.883
		c-3.962,3.752-8.382,5.507-8.382,5.507L430.814,245.778z"/>
	<path fill-rule="evenodd" clip-rule="evenodd" fill="#E1ABCA" d="M471.388,189.265c0,0,25.067,5.268,40.169,2.563
		c1.129-2.243,1.41-3.568,1.994-5.22c-16.181,4.014-41.325,0.982-41.325,0.982L471.388,189.265z"/>
	<path fill-rule="evenodd" clip-rule="evenodd" fill="#E1ABCA" d="M477.789,178.888l39.697-1.197c0,0,0.35-0.664,1.547-2.049
		c-14.652-0.505-39.416,0.533-39.416,0.533L477.789,178.888z"/>
	<path fill-rule="evenodd" clip-rule="evenodd" fill="#E1ABCA" d="M514.715,182.429c0,0-8.504,1.169-17.801,1.169
		c-9.297,0-21.108-1.917-21.108-1.917l1.144-1.836c0,0,25.48-1.083,39.927-1.196C515.842,180.519,514.715,182.429,514.715,182.429z"
		/>
	<polygon fill-rule="evenodd" clip-rule="evenodd" fill="#E1ABCA" points="490.937,184.834 473.674,185.194 475.121,183.198 	"/>
	<path fill-rule="evenodd" clip-rule="evenodd" fill="#D3DB7F" d="M457.139,186.471c0,0,3.515,2.882,6.172,3.751
		c2.66,0.87,4.725,0.958,4.725,0.958s0.304-2.315,2.514-5.747c2.209-3.433,5.029-6.944,5.029-6.944s-2.054-0.395-3.199-0.559
		c0.33-0.691,2.756-4.297,5.416-7.656c2.66-3.36,10.127-12.379,12.718-16.129c2.591-3.752,4.877-9.259,3.429-11.813
		c-4.908,3.232-14.364,10.689-23.163,22.349C461.863,176.494,457.139,186.471,457.139,186.471z"/>
	<path fill-rule="evenodd" clip-rule="evenodd" fill="#E1ABCA" d="M480.151,268.124c-1.982-2.315-11.965-6.865-11.965-6.865
		s1.295-5.826,6.172-9.977c4.878-4.151,11.126-5.907,11.126-5.907l3.643,15.717C489.127,261.093,483.273,262.616,480.151,268.124z"
		/>
	<path fill-rule="evenodd" clip-rule="evenodd" fill="#E1ABCA" d="M538.438,279.857l10.831-10.062c0,0-1.495-2.61-3.655-3.48
		c-2.16-0.869-2.324-0.696-4.318-1.741c-1.994-1.044-3.158-3.306-3.158-3.306l-7.09,14.04L538.438,279.857z"/>
	<path fill-rule="evenodd" clip-rule="evenodd" fill="#E1ABCA" d="M490.456,260.571l-3.653-15.662c0,0,10.11-3.924,23.824-0.571
		c13.716,3.352,18.208,7.706,18.208,7.706l-7.998,18.155c0,0-6.477-3.273-14.935-6.545
		C493.877,259.001,490.456,260.571,490.456,260.571z"/>
	<path fill-rule="evenodd" clip-rule="evenodd" fill="#E1ABCA" d="M529.676,274.748l7.467-14.446c0,0-1.066-3.672-3.429-5.667
		c-2.361-1.996-3.962-1.836-3.962-1.836l-7.696,17.799L529.676,274.748z"/>
	<path fill-rule="evenodd" clip-rule="evenodd" fill="#81BBC3" d="M487.356,394.446c0,0,6.808-5.34,10.271-10.449
		c3.461-5.109,4.876-7.087,5.741-10.878c1.259,0.412,3.305-1.649,3.305-1.649s-3.384,14.422-6.529,26.536
		c-3.147,12.114-7.157,24.968-9.911,31.562c-2.755,6.593-5.98,15.162-7.663,19.048c-2.328-1.167-4.549,0.251-4.549,0.251
		s4.737-16.829,6.94-24.574c2.202-7.747,5.972-25.525,6.451-27.029C489.44,396.919,487.356,394.446,487.356,394.446z"/>
	<path fill-rule="evenodd" clip-rule="evenodd" fill="#81BBC3" d="M478.169,331.737c0,0,4.797-2.81,10.439,0.001
		c6.248,3.113,8.839,5.746,12.115,9.339c3.275,3.592,4.876,6.466,5.715,10.616c0.838,4.15-0.686,6.864-0.686,6.864
		s2.058-0.239,3.427-0.878c2.82-9.099,25.679-73.67,25.679-73.67s-11.049-7.981-23.163-13.41
		c-12.114-5.427-17.983-5.907-22.555-4.71c-4.57,1.197-7.924,8.541-7.924,8.541s4.038-0.479,5.563,7.902
		c1.524,8.381-1.895,24.003-3.811,31.527C481.056,321.381,478.169,331.737,478.169,331.737z"/>
	<path fill-rule="evenodd" clip-rule="evenodd" fill="#6C959A" d="M490.665,280.575c0,0,4.877-1.357,13.944,1.675
		c9.067,3.034,25.297,12.532,25.297,12.532s-4.953,14.367-6.248,18.039c-12.802-9.418-33.666-14.178-33.666-14.178
		s1.206-5.618,0.901-7.373c3.887,0.239,11.174,0.997,26.364,7.184c-0.076-2.075-10.516-8.381-26.06-10.297
		C491.58,285.843,490.665,280.575,490.665,280.575z"/>
	<path fill-rule="evenodd" clip-rule="evenodd" fill="#6C959A" d="M488.423,394.462c0,0,7.336-1.079,10.384-4.203
		c4.754-4.874,5.112-16.316,5.112-16.316s-2.045,6.016-6.528,11.702C492.904,391.33,488.423,394.462,488.423,394.462z"/>
	<path fill-rule="evenodd" clip-rule="evenodd" fill="#6C959A" d="M438.422,361.024c0.455-1.449,2.02-4.005,2.02-4.005
		s-4.622-0.915-6.66-1.2c-1.455,0.838-1.947,3.85-1.947,3.85S435.492,360.147,438.422,361.024z"/>
	<ellipse fill-rule="evenodd" clip-rule="evenodd" fill="#FFFFFF" cx="480.649" cy="351.673" rx="5.29" ry="5.263"/>
	<ellipse fill-rule="evenodd" clip-rule="evenodd" cx="480.149" cy="353.244" rx="2.028" ry="1.969"/>
	<path fill-rule="evenodd" clip-rule="evenodd" fill="#FFFFFF" d="M472.773,348.102c0,2.431-2.014,4.402-4.497,4.402
		c-2.483,0-4.814-1.893-4.814-4.325c0-2.431,2.331-4.48,4.814-4.48C470.76,343.699,472.773,345.67,472.773,348.102z"/>
	<ellipse fill-rule="evenodd" clip-rule="evenodd" cx="467.865" cy="349.673" rx="2.028" ry="1.97"/>
</g>
</svg>
