<svg width="400" height="400" xmlns="http://www.w3.org/2000/svg" xmlns:xlink="http://www.w3.org/1999/xlink" style="vector-effect: non-scaling-stroke;" stroke="null">
 <g stroke="null">
  <title stroke="null">background</title>
  
 </g>

 <g stroke="null" class="layer">
  </g>
 <style style="vector-effect: non-scaling-stroke;" stroke="null" type="text/css">.st0{fill:#74C6D6;}
	.st1{fill:#4F4F4F;}
	.st2{fill:#737373;}
	.st3{fill:#F5D85A;}
	.st4{display:none;}
	.st5{display:inline;fill:#8EBD1C;}
	.st6{display:inline;fill:#322D2D;}
	.st7{fill:#FFFFFF;}
	.st8{font-family:'MyriadPro-Regular';}
	.st9{font-size:20.37px;}
	.st10{fill:none;}
	.st11{fill:#8EBD1C;}
	.st12{fill:#71748C;}
	.st13{fill:#625380;}
	.st14{fill:#6DB434;}
	.st15{fill:#322D2D;}
	.st16{fill:#9FD6ED;}
	.st17{fill:#1A1A1A;}
	.st18{opacity:0.3;fill:#F1F1F1;}
	.st19{fill:#7B708B;}
	.st20{fill:#662D90;}
	.st21{fill:#754C24;}
	.st22{fill:#E4C093;}
	.st23{fill:#C59B6D;}
	.st24{fill:#8B6239;}
	.st25{fill:#A57C52;}
	.st26{fill:#C0272D;}
	.st27{fill:#F1F1F1;}
	.st28{fill:#CBCBCB;}
	.st29{fill:#493D47;}
	.st30{fill:#7B708A;}
	.st31{fill:#EC1C24;}
	.st32{font-family:'Rockwell-ExtraBold';}
	.st33{font-size:26.8646px;}
		#background text{
	animation : slideDown 8s linear infinite
	}
	@keyframes slideDown{
	0%,10%{
	transform:translate(100px,-600px)
	}
	20%,100%{
	transform:translate(200px,50px)

	}
	}
	
	#HOUSE_1{
	animation : fade1 8s linear infinite
	}	
	@keyframes fade1{
	0%,30%{
	visibility : hidden
	}
	40%,100%{
	visibility : visible
	}
	}

	#HOUSE_3{
	animation : fade3 8s linear infinite
	}	
	@keyframes fade3{
	0%,40%{
	visibility : hidden
	}
	50%,100%{
	visibility : visible
	}
	}
	#HOUSE_2{
	animation : fade2 8s linear infinite
	}	
	@keyframes fade2{
	0%,60%{
	visibility : hidden
	}
	70%,100%{
	visibility : visible
	}
	}
	#FOR_RENT{
	animation : fade4 8s linear infinite
	}
	@keyframes fade4{
	0%,80%{
	visibility : hidden
	}
	90%,100%{
	visibility : visible
	}
	}</style>
 <g stroke="null" class="layer">
  <title stroke="null">Layer 1</title>
  <style stroke="null" type="text/css">:root {
        --animate-duration: 1s;
        --animate-delay: 1s;
        --animate-repeat: 1;
      }
      
       .animate__animated {
        -webkit-animation-duration: 1s;
        animation-duration: 1s;
        -webkit-animation-duration: var(--animate-duration);
        animation-duration: var(--animate-duration);
        -webkit-animation-fill-mode: both;
        animation-fill-mode: both;
      }
    
         @-webkit-keyframes flash {
          from,
          50%,
          to {
            opacity: 1;
          }
        
          25%,
          75% {
            opacity: 0;
          }
        }
        @keyframes flash {
          from,
          50%,
          to {
            opacity: 1;
          }
        
          25%,
          75% {
            opacity: 0;
          }
        }
        .animate__flash {
          -webkit-animation-name: flash;
          animation-name: flash;
        }
        
    .animate__animated.animate__infinite {
          -webkit-animation-iteration-count: infinite;
          animation-iteration-count: infinite;
        }
    
    .animate__animated.animate__slow {
          -webkit-animation-duration: calc(1s * 6);
          animation-duration: calc(1s * 6);
          -webkit-animation-duration: calc(var(--animate-duration) * 6);
          animation-duration: calc(var(--animate-duration) * 6);
        }</style>
  <path stroke="null" id="svg_27" d="m98.27854,418.6l34.65581,0c5.05397,0 9.17966,3.5 9.17966,7.9l-53.01513,0c0,-4.4 4.12569,-7.9 9.17966,-7.9z" class="st2"/>
  <style stroke="null" type="text/css">:root {
        --animate-duration: 1s;
        --animate-delay: 1s;
        --animate-repeat: 1;
      }
      
       .animate__animated {
        -webkit-animation-duration: 1s;
        animation-duration: 1s;
        -webkit-animation-duration: var(--animate-duration);
        animation-duration: var(--animate-duration);
        -webkit-animation-fill-mode: both;
        animation-fill-mode: both;
      }
    
         @-webkit-keyframes flash {
          from,
          50%,
          to {
            opacity: 1;
          }
        
          25%,
          75% {
            opacity: 0;
          }
        }
        @keyframes flash {
          from,
          50%,
          to {
            opacity: 1;
          }
        
          25%,
          75% {
            opacity: 0;
          }
        }
        .animate__flash {
          -webkit-animation-name: flash;
          animation-name: flash;
        }
        
    .animate__animated.animate__infinite {
          -webkit-animation-iteration-count: infinite;
          animation-iteration-count: infinite;
        }
    
    .animate__animated.animate__slow {
          -webkit-animation-duration: calc(1s * 6);
          animation-duration: calc(1s * 6);
          -webkit-animation-duration: calc(var(--animate-duration) * 6);
          animation-duration: calc(var(--animate-duration) * 6);
        }</style>
  <g stroke="null" id="svg_34" class="st4">
   <path stroke="null" id="svg_35" d="m-25.7551,459.8l0,-18.9c0,-9 8.45767,-16.2 18.87504,-16.2l795.63956,0c10.41737,0 18.87504,7.3 18.87504,16.2l0,18.9l-833.38963,0l-0.00001,0z" class="st5"/>
   <rect stroke="null" x="-17.09115" id="svg_36" height="7" width="824.62254" class="st6" y="452.8"/>
  </g>
  <polygon stroke="null" id="svg_41" points="696.7565624748424,97.0999984741211 709.1336342740944,97.0999984741211 709.1336342740944,97.0999984741211 696.7565624748424,97.0999984741211 " class="st10"/>
  <g stroke="null" id="svg_42" class="st4"/>
  <rect stroke="null" id="svg_43" height="3" width="10.82994" class="st10" y="97.1" x="698.30371"/>
  <g stroke="null" id="svg_44" class="st4"/>
  <g stroke="null" id="svg_4">
   <path stroke="null" id="svg_21" d="m278.96152,82.20253c0,3.04797 -2.44474,5.56585 -5.47156,5.56585l-31.54878,0c-3.02682,0 -5.47156,-2.51789 -5.47156,-5.56585l0,0c0,-3.04797 2.44474,-5.56585 5.47156,-5.56585l31.54878,0c3.02682,0.13252 5.47156,2.51789 5.47156,5.56585l0,0z" class="st2"/>
   <g stroke="null" id="svg_1" class="animate__animated animate__flash animate__infinite animate__slow">
    <path stroke="null" id="svg_22" d="m273.72278,87.76838l-32.01444,0c-5.12231,4.50569 -8.49838,11.13171 -8.49838,18.68537c0,13.64959 10.94311,24.64878 24.44739,24.64878c13.50427,0 24.44739,-10.99919 24.44739,-24.64878c0.11641,-7.55366 -3.25965,-14.17968 -8.38196,-18.68537z" class="st3"/>
   </g>
   <g stroke="null" id="svg_3">
    <g stroke="null" id="svg_19">
     <path stroke="null" id="svg_20" d="m201.00107,158.82427l-11.40878,0l0,-90.77643c0,-20.67317 16.64751,-37.63577 37.25317,-37.63577s37.25317,16.83008 37.25317,37.63577l0,11.92683l-11.40878,0l0,-11.92683c0,-14.44472 -11.64162,-26.10651 -25.84439,-26.10651c-14.20277,0 -25.84439,11.66179 -25.84439,26.10651l0,90.77643z" class="st1"/>
    </g>
    <rect stroke="null" id="svg_24" height="70.10325" width="35.50693" class="st1" y="318.90883" x="177.48501"/>
    <rect stroke="null" id="svg_25" height="177.17968" width="18.27734" class="st1" y="167.17305" x="186.09981"/>
    <rect stroke="null" id="svg_26" height="10.07155" width="35.50693" class="st2" y="308.83729" x="177.48501"/>
    <g stroke="null" id="svg_28">
     <path stroke="null" id="svg_29" d="m189.5923,158.82427l11.40878,0l0,-90.77643c0,-20.67317 -16.64751,-37.63577 -37.25317,-37.63577s-37.25317,16.83008 -37.25317,37.63577l0,11.92683l11.40878,0l0,-11.92683c0,-14.44472 11.64162,-26.10651 25.84439,-26.10651c14.20277,0 25.84439,11.66179 25.84439,26.10651l0,90.77643z" class="st1"/>
    </g>
    <rect stroke="null" id="svg_30" height="16.43252" width="26.19363" class="st2" y="157.36655" x="182.14166"/>
    <rect stroke="null" id="svg_31" height="7.95122" width="26.19363" class="st2" y="145.17468" x="182.14166"/>
    <path stroke="null" id="svg_32" d="m109.84724,80.1072c0,3.04797 2.44474,5.56585 5.47156,5.56585l31.54878,0c3.02682,0 5.47156,-2.51789 5.47156,-5.56585l0,0c0,-3.04797 -2.44474,-5.56585 -5.47156,-5.56585l-31.54878,0c-3.02682,0.13252 -5.47156,2.51789 -5.47156,5.56585l0,0z" class="st2"/>
    <g stroke="null" id="svg_2" class="animate__animated animate__flash animate__infinite animate__slow">
     <path stroke="null" id="svg_33" d="m115.08597,85.67305l32.01444,0c5.12231,4.50569 8.49838,11.13171 8.49838,18.68537c0,13.64959 -10.94311,24.64878 -24.44739,24.64878c-13.50427,0 -24.44739,-10.99919 -24.44739,-24.64878c-0.11641,-7.55366 3.14323,-14.17968 8.38196,-18.68537z" class="st3"/>
    </g>
   </g>
  </g>
 </g>
</svg>