<?xml version="1.0" encoding="utf-8"?>
<!-- Generator: Adobe Illustrator 16.0.0, SVG Export Plug-In . SVG Version: 6.00 Build 0)  -->
<!DOCTYPE svg PUBLIC "-//W3C//DTD SVG 1.1//EN" "http://www.w3.org/Graphics/SVG/1.1/DTD/svg11.dtd">
<svg version="1.1" id="Layer_1" xmlns="http://www.w3.org/2000/svg" xmlns:xlink="http://www.w3.org/1999/xlink" x="0px" y="0px"
	 width="60px" height="60px" viewBox="0 0 60 60" enable-background="new 0 0 60 60" xml:space="preserve">
<polygon fill="#EABBAB" points="21.472,35.342 7.899,60.149 21.808,60.234 27.729,40.824 "/>
<g>
	<g>
		<g>
			<g>
				<g>
					<path fill="#102465" d="M48.123,23.992l-11.411,0.559c-4.611,0.226-8.192,3.919-7.982,8.232s4.132,7.639,8.747,7.413
						l11.411-0.559l0.326,6.706l-11.412,0.558c-4.147,0.203-8.291-0.934-11.359-3.533c-3.068-2.601-4.522-6.367-4.882-10.234
						c-0.353-3.792-0.135-7.83,2.666-10.717c2.799-2.887,8.01-4.368,12.16-4.571l11.411-0.559L48.123,23.992z"/>
				</g>
			</g>
			<g>
				
					<rect x="47.387" y="37.372" transform="matrix(-0.0487 -0.9988 0.9988 -0.0487 12.3179 93.6261)" fill="#FF5252" width="6.713" height="7.151"/>
				<path fill="#1A6CBE" d="M46.247,22.124l-10.656,0.521c-4.308,0.21-7.642,3.891-7.431,8.206c0.211,4.313,3.887,7.651,8.194,7.44
					L47.01,37.77l0.326,6.705L36.68,44.996c-3.874,0.189-7.59-1.144-10.464-3.752c-2.874-2.611-4.561-6.186-4.75-10.066
					c-0.189-3.88,1.142-7.603,3.748-10.48s6.177-4.568,10.051-4.757l10.656-0.521L46.247,22.124z"/>
				
					<rect x="46.298" y="15.022" transform="matrix(-0.0484 -0.9988 0.9988 -0.0484 33.4853 69.093)" fill="#FF5252" width="6.713" height="7.148"/>
			</g>
			<polygon fill="#FF7D7D" points="56.86,45.968 54.479,44.125 54.151,37.42 56.534,39.264 			"/>
			<polygon fill="#FF7D7D" points="55.76,23.687 53.383,21.739 53.056,15.034 55.438,16.878 			"/>
			<polygon fill="#BC2A2A" points="56.86,45.968 54.479,44.125 47.336,44.475 49.218,46.343 			"/>
			<polygon fill="#BC2A2A" points="55.771,23.618 53.387,21.774 46.247,22.124 48.127,23.992 			"/>
		</g>
		<g>
			<g>
				<path fill="#EABBAB" d="M31.241,40.072c-0.047-0.071-0.101-0.145-0.146-0.22c-0.186-0.294-0.335-0.634-0.371-1.005
					c-0.049-0.376,0.069-0.771,0.273-1.075c0.184-0.268,0.426-0.478,0.673-0.647c0.036-0.027,0.071-0.054,0.109-0.075
					c0.277-0.187,0.571-0.354,0.874-0.508c0.074-0.033,0.146-0.066,0.217-0.103c0.497-0.241,1.01-0.446,1.534-0.617
					c0.036-0.015,0.076-0.024,0.115-0.037c0.155-0.054,0.317-0.096,0.483-0.13c0.167-0.026,0.333-0.079,0.528,0.011
					c0.286,0.227,0.482,0.5,0.668,0.788c0.185,0.291,0.333,0.607,0.414,0.952c0.078,0.342,0.101,0.727-0.069,1.088
					c-0.091,0.168-0.252,0.321-0.396,0.403c-0.146,0.093-0.295,0.173-0.444,0.252c-0.302,0.153-0.606,0.29-0.91,0.431
					c-0.616,0.257-1.216,0.551-1.837,0.803c-0.157,0.063-0.313,0.122-0.474,0.179c-0.07,0.027-0.189,0.061-0.289,0.053
					c-0.099,0.002-0.192-0.019-0.283-0.048c-0.183-0.056-0.345-0.147-0.488-0.28c-0.036-0.034-0.072-0.071-0.1-0.11L31.241,40.072z"
					/>
				<path fill="#EABBAB" d="M29.743,37c-0.109-0.144-0.213-0.296-0.315-0.448c-0.195-0.311-0.411-0.632-0.459-1.075
					c-0.016-0.224,0.063-0.457,0.182-0.627c0.116-0.18,0.259-0.305,0.404-0.435c0.497-0.401,1.017-0.73,1.554-1.038
					c0.009-0.002,0.011-0.004,0.02-0.007c0.088-0.052,0.175-0.102,0.265-0.15c0.468-0.247,0.942-0.481,1.43-0.687
					c0.006-0.006,0.009-0.005,0.016-0.01c0.178-0.074,0.357-0.146,0.539-0.211c0.169-0.062,0.344-0.115,0.523-0.158
					c0.089-0.023,0.181-0.043,0.273-0.049c0.096-0.004,0.196-0.019,0.311,0.051c0.303,0.246,0.512,0.555,0.692,0.883
					c0.179,0.328,0.313,0.688,0.358,1.072c0.057,0.377-0.016,0.813-0.281,1.145c-0.147,0.156-0.312,0.256-0.464,0.35
					c-0.125,0.078-0.255,0.149-0.384,0.217c-0.03,0.018-0.065,0.034-0.096,0.051c-0.323,0.167-0.652,0.323-0.98,0.48
					c-0.558,0.244-1.097,0.521-1.658,0.771c-0.101,0.047-0.21,0.093-0.313,0.138c-0.175,0.073-0.323,0.138-0.525,0.203
					c-0.217,0.045-0.426-0.001-0.612-0.079C30.042,37.312,29.85,37.17,29.743,37z"/>
				<path fill="#EABBAB" d="M26.515,30.814l0.19,0.19c0.051,0.06,0.159,0.149,0.243,0.19c0.187,0.096,0.383,0.146,0.587,0.146
					c0.101-0.002,0.207-0.016,0.312-0.057c0.111-0.048,0.167-0.091,0.25-0.139c0.155-0.094,0.305-0.189,0.457-0.288
					c0.594-0.396,1.162-0.825,1.751-1.222c0.289-0.212,0.579-0.42,0.864-0.637c0.14-0.112,0.279-0.224,0.414-0.35
					c0.135-0.107,0.279-0.297,0.338-0.497c0.098-0.42-0.047-0.814-0.228-1.136c-0.188-0.327-0.433-0.604-0.698-0.853
					c-0.273-0.248-0.537-0.473-0.881-0.659c-0.238-0.046-0.395,0.046-0.566,0.11c-0.167,0.071-0.328,0.152-0.485,0.238
					c-0.319,0.179-0.583,0.427-0.853,0.657l-0.799,0.708c-0.521,0.481-1.083,0.905-1.527,1.538c-0.106,0.162-0.202,0.359-0.218,0.58
					c-0.018,0.224,0.045,0.445,0.147,0.615C26.009,30.299,26.264,30.553,26.515,30.814z"/>
				<path fill="#EABBAB" d="M27.975,34.77c0.2,0.088,0.428,0.146,0.666,0.103c0.224-0.062,0.395-0.131,0.591-0.207
					c0.684-0.271,1.344-0.587,2.016-0.878c0.065-0.032,0.137-0.064,0.204-0.094c0.369-0.166,0.732-0.34,1.095-0.525
					c0.14-0.072,0.277-0.146,0.411-0.229c0.044-0.023,0.084-0.043,0.126-0.069c0.086-0.06,0.172-0.104,0.258-0.181
					c0.092-0.072,0.181-0.146,0.237-0.25c0.27-0.393,0.267-0.869,0.194-1.281c-0.076-0.418-0.24-0.809-0.442-1.167
					c-0.209-0.357-0.447-0.695-0.777-0.972c-0.116-0.077-0.229-0.072-0.336-0.07c-0.105,0.004-0.208,0.023-0.309,0.042
					c-0.202,0.041-0.396,0.096-0.589,0.159c-0.77,0.263-1.503,0.613-2.22,0.988c-0.359,0.189-0.708,0.403-1.051,0.616
					c-0.346,0.216-0.682,0.444-1.001,0.726c-0.157,0.137-0.31,0.309-0.422,0.516c-0.118,0.211-0.151,0.486-0.095,0.71
					c0.096,0.46,0.345,0.798,0.563,1.142c0.117,0.17,0.232,0.337,0.353,0.5C27.579,34.533,27.777,34.678,27.975,34.77z"/>
				<path fill="#FBF1EE" d="M27.192,30.656c-0.191-0.404-1.086-1.25-1.094-1.258l-0.082-0.077l0.883-0.716
					c0.15-0.119,0.354-0.154,0.538-0.084c0.635,0.24,0.83,0.729,0.889,0.998c0.043,0.191-0.025,0.394-0.173,0.522l-0.021,0.018
					l-0.889,0.707L27.192,30.656z"/>
				<path fill="#FBF1EE" d="M28.428,33.814c-0.134-0.428-0.902-1.391-0.909-1.4l-0.07-0.086l0.975-0.586
					c0.166-0.098,0.372-0.104,0.544-0.008c0.595,0.326,0.719,0.837,0.742,1.111c0.017,0.195-0.081,0.387-0.245,0.494l-0.022,0.014
					l-0.98,0.576L28.428,33.814z"/>
				<path fill="#FBF1EE" d="M30.691,36.592c-0.127-0.406-0.858-1.32-0.863-1.33l-0.066-0.084l0.925-0.557
					c0.157-0.093,0.354-0.098,0.519-0.007c0.566,0.31,0.684,0.796,0.704,1.058c0.017,0.186-0.075,0.368-0.233,0.469l-0.021,0.014
					L30.724,36.7L30.691,36.592z"/>
				<path fill="#FBF1EE" d="M32.363,39.794c-0.115-0.365-0.771-1.187-0.776-1.194l-0.06-0.075l0.831-0.5
					c0.143-0.084,0.318-0.089,0.466-0.008c0.508,0.279,0.614,0.715,0.633,0.951c0.014,0.167-0.067,0.329-0.209,0.42l-0.021,0.014
					l-0.836,0.491L32.363,39.794z"/>
			</g>
			<path fill="#EABBAB" d="M25.449,25.304l-4.028,2.133l-2.519,4.126l5.332,11.774c3.32-4.412,1.713-7.278-1.042-10.158
				c-0.448-0.469-0.588-1.156-0.346-1.76l0.654-1.628c1.707-0.951,3.092-2.481,2.46-4.306
				C25.875,25.287,25.639,25.203,25.449,25.304z"/>
		</g>
	</g>
</g>
</svg>
