<?xml version="1.0" encoding="utf-8"?>
<svg viewBox="0 0 100 100" xmlns="http://www.w3.org/2000/svg" style="height: 100%; width: 100%; background: none; shape-rendering: auto;" width="200px" height="200px"><g class="ldl-scale" style="transform-origin: 50% 50%; transform: rotate(0deg) scale(0.8, 0.8);"><g class="ldl-ani"><linearGradient y2="79.344" x2="50" y1="22.624" x1="50" gradientUnits="userSpaceOnUse" id="a"><stop stop-color="#f5e6c8" offset="0" style="stop-color: rgb(244, 222, 18);"></stop><stop stop-color="#f8c788" offset=".509" style="stop-color: rgb(254, 144, 30);"></stop><stop stop-color="#f5e6c8" offset="1" style="stop-color: rgb(244, 222, 18);"></stop></linearGradient><g class="ldl-layer"><g class="ldl-ani" style="transform-origin: 50px 50px; transform: matrix(1, 0, 0, 1, 0, 0); animation: 2.63158s linear -1.57895s infinite normal forwards running tremble-019c5b20-d198-4fbf-b741-d30ada61eb84;"><circle stroke-miterlimit="10" stroke-width="3" stroke="#f8b26a" fill="url(#a)" r="40" cy="50" cx="50" style="stroke: rgb(248, 178, 106);"></circle></g></g><g class="ldl-layer"><g class="ldl-ani"><g><g class="ldl-layer"><g class="ldl-ani" style="transform-origin: 50px 50px; transform: matrix(1, 0, 0, 1, 0, 0); animation: 2.63158s linear -1.84211s infinite normal forwards running tremble-019c5b20-d198-4fbf-b741-d30ada61eb84;"><path d="M29.066 62.755c13.956 18.762 27.912 18.762 41.868 0 .768-1.033.018-2.505-1.27-2.505H30.336c-1.288 0-2.039 1.471-1.27 2.505z" style=""></path></g></g><g class="ldl-layer"><g class="ldl-ani" style="transform-origin: 50px 50px; transform: matrix(1, 0, 0, 1, 0, 0); animation: 2.63158s linear -2.10526s infinite normal forwards running tremble-019c5b20-d198-4fbf-b741-d30ada61eb84;"><path fill="#c33737" d="M38.572 72.896c7.619 5.477 15.237 5.477 22.856 0-2.134-2.903-6.446-4.892-11.428-4.892s-9.294 1.989-11.428 4.892z" style="fill: rgb(195, 55, 55);"></path></g></g></g></g></g><g class="ldl-layer"><g class="ldl-ani" style="transform-origin: 50px 50px; transform: matrix(1, 0, 0, 1, 0, 0); animation: 2.63158s linear -2.36842s infinite normal forwards running tremble-019c5b20-d198-4fbf-b741-d30ada61eb84;"><path d="M43.636 41.666c0-3.818-2.941-6.435-7.638-6.985v-6.735c2.008.502 3.475 1.761 3.475 3.194h3.668c0-3.465-3.014-6.275-7.142-6.943v-2.651h-3.806v2.619c-4.49.58-7.39 3.236-7.39 6.975 0 3.61 3.012 6.349 7.39 6.965v6.755c-2.008-.502-3.475-1.761-3.475-3.194H25.05c0 3.465 3.014 6.275 7.142 6.943v2.651h3.806v-2.614c4.638-.567 7.638-3.227 7.638-6.98zM28.47 31.141c0-1.921 1.746-2.899 3.722-3.26v6.499c-2.045-.414-3.722-1.507-3.722-3.239zm7.528 13.786v-6.533c1.749.283 3.97 1.073 3.97 3.272 0 2.008-2.03 2.922-3.97 3.261z" style=""></path></g></g><g class="ldl-layer"><g class="ldl-ani" style="transform-origin: 50px 50px; transform: matrix(1, 0, 0, 1, 0, 0); animation: 2.63158s linear -2.63158s infinite normal forwards running tremble-019c5b20-d198-4fbf-b741-d30ada61eb84;"><path d="M74.629 41.666c0-3.818-2.941-6.435-7.638-6.985v-6.735c2.008.502 3.475 1.761 3.475 3.194h3.668c0-3.465-3.014-6.275-7.142-6.943v-2.651h-3.806v2.619c-4.49.58-7.39 3.236-7.39 6.975 0 3.61 3.012 6.349 7.39 6.965v6.755c-2.008-.502-3.475-1.761-3.475-3.194h-3.668c0 3.465 3.014 6.275 7.142 6.943v2.651h3.806v-2.614c4.639-.567 7.638-3.227 7.638-6.98zM59.463 31.141c0-1.921 1.746-2.899 3.722-3.26v6.499c-2.045-.414-3.722-1.507-3.722-3.239zm7.529 13.786v-6.533c1.749.283 3.97 1.073 3.97 3.272 0 2.008-2.031 2.922-3.97 3.261z" style=""></path></g></g><metadata xmlns:d="https://loading.io/stock/">
<d:name>greedy</d:name>
<d:tags>greedy,money,wealth,snobbish,earn,jackpot,prize,income,profit</d:tags>
<d:license>by</d:license>
<d:slug>ap4cv</d:slug>
</metadata></g></g><style id="tremble-019c5b20-d198-4fbf-b741-d30ada61eb84" data-anikit="">@keyframes tremble-019c5b20-d198-4fbf-b741-d30ada61eb84 {
  0% { transform: translate(0px,0px) rotate(0deg) scale(1) }
  16.66667% { transform: translate(0px,0px) rotate(0.20513deg) scale(0.98356) }
  33.33333% { transform: translate(0px,0px) rotate(4.74173deg) scale(0.97128) }
  50% { transform: translate(0px,0px) rotate(-4.59907deg) scale(1.02317) }
  66.66667% { transform: translate(0px,0px) rotate(4.45182deg) scale(1.0234) }
  83.33333% { transform: translate(0px,0px) rotate(-6.4965deg) scale(0.97137) }
  100% { transform: translate(0,0) rotate(0) scale(1) }
}</style><!-- [ldio] generated by https://loading.io/ --></svg>