<?xml version="1.0" encoding="utf-8"?>
<!-- Generator: Adobe Illustrator 17.0.0, SVG Export Plug-In . SVG Version: 6.00 Build 0)  -->
<!DOCTYPE svg PUBLIC "-//W3C//DTD SVG 1.1//EN" "http://www.w3.org/Graphics/SVG/1.1/DTD/svg11.dtd">
<svg version="1.1" id="Layer_1" xmlns="http://www.w3.org/2000/svg" xmlns:xlink="http://www.w3.org/1999/xlink" x="0px" y="0px"
	 width="800px" height="600px" viewBox="0 0 800 600" enable-background="new 0 0 800 600" xml:space="preserve">
<g>
	<path fill-rule="evenodd" clip-rule="evenodd" fill="#4C4C3C" d="M497.653,236.183c0.616,4.544-1.231,8.88-5.287,12.924
		c7.106,1.87,15.108-1.797,22.302-2.509c7.195-0.709,15.255,5.878,13.892,7.23c-1.362,1.354-6.619,5.627-10.089,8.283
		c-3.893,2.977-7.595,6.149-10.02,10.607c4.999-0.603,15.38-2.762,22.121-2.698c4.501,0.041,10.084,2.417,10.723,6.071
		c1.29,7.38-10.199,10.066-13.939,23.065c-0.328,1.141,7.434,2.692,4.559,4.552c-2.872,1.859-22.774,3.718-32.849,4.763
		c-8.302,17.917-19.128,33.164-34.853,44.521c-7.286,5.26-20.982,11.511-25.474,11.468c-4.489-0.042,13.547-10.815,20.336-16.318
		c12.054-9.767,23.185-20.585,28.317-37.001c-3.249-0.026-14.978,1.654-18.263,1.448c-3.282-0.207,0.245-4.407-2.236-13.562
		c-2.48-9.153-14.38-15.348-10.892-17.413c3.486-2.066,40.22-7.532,41.65-7.434c1.846-4.336,5.951-12.596,8.789-16.977
		c-3.66-3.053-19.361,0.88-19.361,0.88s-6.271,5.927-13.782,10.899c-4.508,2.984-11.487,6.846-13.777,6.435
		c-2.289-0.411,5.222-8.935,9.42-12.808c5.453-5.035,11.92-9.944,14.039-17.549c2.361-8.46-2.842-12.481-0.719-13.418
		C488.83,228.752,497.038,231.642,497.653,236.183z M504.012,281.614c-2.667,5.988-2.049,15.281-3.483,19.824
		c3.483,0,13.458-1.026,18.651-1.735c1.734-5.397,5.534-11.733,3.346-18.889C517.271,279.642,509.311,280.658,504.012,281.614z
		 M470.159,284.711c-1.576,0,1.951,5.869,3.693,12.183c1.207,4.368,0.395,9.912,1.231,9.912c2.052,0,10.005-2.069,14.568-3.099
		c1.064-5.964,1.642-14.455,3.899-21.269C486.136,280.894,472.827,284.711,470.159,284.711z M499.91,312.176
		c-2.464,1.651,3.077,5.988,3.179,11.135c0.104,5.149-1.538,22.936-0.514,29.545c1.029,6.608,7.184,10.116,14.57,12.181
		c4.716,1.32,30.57,2.684,41.856-1.031c11.285-3.718,16.62-9.292,15.798-15.9c-0.818-6.608-2.617-11.629-4.306-16.933
		c-1.37-4.292-1.636-8.835-2.464-8.468c-1.847,0.826-5.539,4.956-4.877,11.559c0.659,6.603,2.084,10.701,0.264,14.006
		c-6.238,11.342-44.68,13.239-51.614,2.024c-5.914-10.569,1.855-33.163,0.008-35.64C509.965,312.174,502.372,310.522,499.91,312.176
		z M541.562,325.803c-0.719-1.9-5.881-7.265-10.521-9.368c-4.57-2.073-10.202-2.195-12.048-1.162
		c-1.847,1.032,2.491,8.012,5.73,11.37c4.317,4.477,14.49,10.31,16.634,10.102C543.501,336.541,543.204,330.14,541.562,325.803z"/>
	<path fill-rule="evenodd" clip-rule="evenodd" fill="#8B8B78" d="M496.168,234.689c0.618,4.545-1.23,8.88-5.287,12.924
		c7.107,1.869,15.109-1.798,22.304-2.509c7.196-0.71,15.254,5.878,13.89,7.23c-1.362,1.354-6.619,5.627-10.089,8.283
		c-3.893,2.977-7.594,6.148-10.02,10.607c4.999-0.603,15.381-2.763,22.123-2.699c4.499,0.041,10.084,2.417,10.723,6.071
		c1.29,7.38-10.199,10.065-13.939,23.065c-0.328,1.141,7.434,2.692,4.559,4.552c-2.873,1.859-22.774,3.719-32.849,4.763
		c-8.302,17.917-19.128,33.164-34.855,44.522c-7.285,5.259-20.981,11.51-25.471,11.468c-4.49-0.042,13.544-10.816,20.333-16.319
		c12.054-9.767,23.188-20.584,28.319-37c-3.249-0.026-14.978,1.653-18.263,1.447c-3.283-0.207,0.244-4.407-2.236-13.562
		c-2.48-9.153-14.382-15.348-10.893-17.413c3.486-2.066,40.22-7.532,41.65-7.434c1.847-4.335,5.951-12.595,8.789-16.977
		c-3.658-3.053-19.361,0.88-19.361,0.88s-6.271,5.927-13.782,10.899c-4.507,2.984-11.486,6.846-13.777,6.434
		c-2.289-0.41,5.222-8.934,9.42-12.808c5.453-5.035,11.921-9.943,14.041-17.549c2.361-8.46-2.842-12.481-0.717-13.417
		C487.344,227.258,495.554,230.148,496.168,234.689z M502.526,280.119c-2.665,5.988-2.049,15.281-3.483,19.824
		c3.483,0,13.458-1.025,18.651-1.735c1.736-5.397,5.534-11.734,3.348-18.888C515.785,278.148,507.826,279.163,502.526,280.119z
		 M468.673,283.218c-1.576,0,1.951,5.869,3.693,12.182c1.207,4.368,0.395,9.912,1.231,9.912c2.054,0,10.006-2.069,14.57-3.098
		c1.064-5.965,1.641-14.455,3.898-21.269C484.65,279.4,471.342,283.218,468.673,283.218z M498.426,310.681
		c-2.463,1.651,3.078,5.988,3.178,11.135c0.104,5.148-1.537,22.935-0.512,29.544c1.028,6.608,7.183,10.117,14.57,12.182
		c4.716,1.319,30.569,2.684,41.856-1.032c11.285-3.719,16.619-9.292,15.799-15.9c-0.821-6.608-2.619-11.628-4.309-16.933
		c-1.367-4.292-1.636-8.835-2.463-8.467c-1.847,0.826-5.539,4.956-4.877,11.558c0.66,6.604,2.084,10.701,0.264,14.007
		c-6.238,11.342-44.678,13.24-51.612,2.024c-5.915-10.569,1.853-33.163,0.006-35.641
		C508.479,310.68,500.887,309.027,498.426,310.681z M540.076,324.308c-0.719-1.9-5.881-7.265-10.52-9.367
		c-4.571-2.072-10.203-2.195-12.048-1.162c-1.847,1.031,2.489,8.012,5.73,11.37c4.315,4.477,14.492,10.31,16.634,10.102
		C542.017,335.047,541.718,328.646,540.076,324.308z"/>
	<path d="M552.925,168.936c-10.047-24.556-18.987-43.786-33.339-43.635c-14.353,0.15-37.378,16.461-70.39,47.696
		c-12.021,11.375-22.965,22.57-32.833,33.584c-5.203,5.776-9.91,11.15-12.063,14.401c-4.723-4.101-26.105-21.991-26.869-21.805
		c-0.762,0.186-2.442,1.999-4.127,4.152c-1.68,2.155-3.765,5.779-3.765,6.32l0,0l0,0c3.508,1.631,13.975,6.31,18.132,9.575
		c-6.47-0.651-10.416,1.367-10.416,1.367c-15.971-15.347-42.417-37.882-73.557-64.026c-31.142-26.144-48.588-42.824-54.039-41.068
		c-7.59,2.443-27.772,55.217-25.171,58.161c2.6,2.945,23.08,15.702,29.253,18.646c6.176,2.945,109.339,38.108,111.312,38.289
		c-0.359,0.722-1.793,3.355-1.971,4.259c-27.451,4.333-44.543,7.005-47.949,8.27c0.129,1.106,1.101,7.228,1.489,8.205
		c7.356-1.444,16.14-3.581,21.7-4.845c-3.387,4.648-2.955,10.436-2.417,13.505c-19.649,12.164-61.962,45.717-72.124,56.551
		c-8.374,1.504-13.456,3.912-15.521,5.597c4.019,6.258,18.419,21.023,22.366,24.093c5.023,2.648,10.078,5.57,15.013,6.924
		c1.345-0.603,5.05-3.511,7.113-5.017c9.45,8.126,43.657,18.959,48.022,18.207c4.37-0.752,13.339-9.87,18.688-16.852
		c11.844,3.792,29.813,7.674,54.392,13.27c-8.972,2.71-25.594,12.254-41.561,23.63c-12.97,5.957-31.782,7.702-39.375,8.321
		c-6.953,0.569-12.123,0.662-12.967-0.567c-0.654-0.949-0.02-3.065,1.016-6.091c1.032-3.026,3.047-6.311,3.722-9.765
		c0.943-4.839-3.627-8.993-7.838-8.45c-3.666,0.472-4.605,2.744-5.451,5.579c-8.27-4.255-15.597,2.931-11.293,9.731
		c-2.051,0.672-3.274,4.076-1.767,6.819c1.501,2.742,4.698,4.161,9.304,1.668c-0.286,1.926-0.964,4.306-0.717,7.041
		c0.244,2.735,4.097,4.72,13.398,4.91c9.305,0.19,27.339-3.113,39-8.889c-6.994,5.236-15.665,12.533-22.054,18.491
		c-6.388,5.957-15.611,14.994-23.257,26.609c-7.645,11.615-14.44,23.879-14.44,29.836c0,2.348,3.767,4.877,11.48,7.584
		c10.228,3.431,22.471,4.559,41.981,5.236c19.512,0.677,62.571-2.933,88.584-11.059c15.308-4.781,27.493-11.51,33.057-16.025
		c5.02-3.972,7.356-7.404,7.356-10.472c0-1.082-0.182-2.347-0.898-3.972c3.993-0.227,9.687-2.709,12.56-8.126
		c1.974-3.792,3.048-7.583,3.048-11.014c0-2.166-0.359-4.513-1.255-6.68c-1.793-4.334-7.891-8.938-15.216-6.53
		c-7.329,2.408-8.108,12.849-8.288,15.016c-2.328-2.828-4.784-6.801-6.994-11.737c-2.21-4.933-6.102-20.462-8.793-31.055
		c-2.688-10.593-10.312-34.516-15.695-52.572c-5.38-18.055-12.259-40.626-16.595-54.318c-4.336-13.691-10.588-28.166-17.763-40.625
		c0,0,44.525-15.95,78.222-30.875C510.337,192.907,544.702,175.556,552.925,168.936z"/>
	<path fill="#FFFFFF" d="M387.72,316.239c6.638-7.944,11.813-14.595,15.905-20.643c0,0,5.026,15.527,4.428,19.139
		c-0.6,3.611-6.28,11.434-8.52,11.887C397.289,327.072,391.757,320.302,387.72,316.239z"/>
	<path fill="#FFFFFF" d="M375.997,329.18c2.9-2.708,7.151-6.802,9.931-10.684c0.895,1.265,7.922,8.576,9.418,9.63
		c1.492,1.054-6.223,6.048-8.822,6.319C383.923,334.714,379.048,331.587,375.997,329.18z"/>
	<path fill="#A9B1B7" d="M316.613,244.137c0,0,4.666-1.403,15.668-3.291c10.999-1.889,25.558-4.233,30.348-4.886
		c-0.262,0.978-0.777,3.128-0.777,3.128c-8.541,1.106-37.164,7.938-44.342,9.925C317.076,247.486,316.882,245.923,316.613,244.137z"
		/>
	<path fill="#A9B1B7" d="M401.452,224.175c-10.868-6.447-26.541-14.596-29.051-15.499c1.335-2.532,4.047-6.015,5.031-6.067
		c0.987-0.054,25.186,18.441,25.38,18.961C403.007,222.091,402.294,223.588,401.452,224.175z"/>
	<path fill="#FFFFFF" d="M337.85,255.779c-0.124-4.448,1.541-8.413,2.7-9.762c9-2.363,17.219-3.901,21.49-4.944
		c0.491,0.99,1.101,5.06-1.23,11.247c-2.328,6.186-8.992,11-16.083,10.505C340.362,262.518,337.947,259.239,337.85,255.779z"/>
	<path fill="#5C6871" d="M302.801,315.939c-3.86,3.852-18.689,17.754-29.153,26.782c-3.591-3.431-15.819-14.654-19.287-19.258
		C260.19,318.346,302.801,315.939,302.801,315.939z"/>
	<path fill="#455159" d="M304.144,318.196c0.897,3.009,1.05,9.177,0.749,13.24c-3.408,4.153-14.263,15.317-17.942,17.304
		c-2.449-0.481-8.221-2.708-10.615-4.364C283.156,338.96,294.099,329.029,304.144,318.196z"/>
	<path fill="#D58265" d="M471.296,188.796c5.896-1.746,8.297-0.623,8.073,3.009c-0.3,4.816-26.581,17.045-35.942,20.936
		c-9.358,3.891-16.339,7.341-25.356,10.963C418.07,223.704,456.047,193.31,471.296,188.796z"/>
	<path fill="#879098" d="M546.647,167.881c-31.397,18.958-49.491,27.897-63.542,34.186c-14.05,6.289-35.402,15.077-75.051,30.965
		c6.578-5.116,25.292-14.083,35.221-18.327c9.929-4.243,36.39-15.377,38.035-21.396c1.373-5.01-1.492-8.577-8.222-7.222
		c-6.726,1.355-26.524,13.062-38.602,22.48c-12.079,9.418-24.339,18.596-29.667,22.9c-0.36-1.264-1.166-2.995-2.09-4.122
		c3.77-4.408,24.612-28.016,39.863-42.461c15.246-14.444,31.3-27.926,39.794-34.275c8.495-6.35,25.389-20.644,38.096-20.493
		C533.221,130.267,546.647,167.881,546.647,167.881z"/>
	<path fill="#FFFFFF" d="M402.095,234.985c0.817,4.948-0.129,12.048-4.079,17.647c-3.948,5.601-9.638,8.334-17.856,8.334
		c-8.216,0-15.337-3.906-16.046-10.159c0.36-1.445,1.681-7.097,0.324-10.419c3.687-13.349,13.264-17.843,22.581-17.712
		C396.333,222.807,401.277,230.037,402.095,234.985z"/>
	<path fill="#879098" d="M250.77,120.411c3.5,0.224,50.056,37.601,65.486,50.6c4.305,3.612,16.146,13.903,35.341,31.057
		c13.456,11.917,20.087,16.898,23.322,19.681c-2.688,1.264-5.022,2.888-6.816,5.055c-28.525-18.596-53.643-37.781-58.801-38.233
		c-5.159-0.452-5.965,3.521-5.159,6.996c0.809,3.475,21.978,16.972,24.85,18.417c-17.943-5.96-69.7-22.434-73.738-24.376
		c-4.036-1.941-24.892-15.707-26.239-17.739c-1.345-2.031,4.574-18.688,9.015-30.107
		C242.474,130.341,247.273,120.185,250.77,120.411z"/>
	<path fill="#D58265" d="M306.163,194.891c-1.122-2.032-0.447-4.514,3.14-4.289c3.589,0.226,45.704,30.288,55.392,36.789
		c-2.692-1.084-8.074-2.934-15.924-5.869c-7.848-2.934-11.885-4.514-17.49-8.576C325.675,208.883,307.285,196.923,306.163,194.891z"
		/>
	<path fill="#727E85" d="M475.63,426.981c0.152-4.513,3.587-14.145,9.869-12.036c6.277,2.106,8.673,7.523,6.428,15.347
		c-2.241,7.824-9.779,10.111-11.96,7.974C477.786,436.13,475.479,431.495,475.63,426.981z"/>
	<path fill="#879098" d="M405.601,239.442c3.349,6.53,10.226,22.781,15.311,38.278c5.082,15.498,27.205,94.792,28.704,100.209
		c1.495,5.417-7.506,13.391-15.397,17.907c-14.207,8.124-30.814,15.059-42.014,18.355c0,0-0.696-6.171-4.268-8.926
		c-3.571-2.754-9.104-2.155-10.827,0.481c-1.727,2.633-1.112,6.851,0.322,8.113c-6.928-1.109-10.261,1.288-10.678,5.418
		c-0.47,4.662,3.036,7.067,8.988,7.425c-1.727,1.377-5.179,7.246-0.062,9.701c5.118,2.456,10.249-0.845,11.293-7.015
		c9.122-1.504,24.711-6.914,32.982-11.014c8.432-4.183,14.115-7.644,19.497-13.211c5.383-5.566,6.128-8.426,5.08-9.9
		c-4.931,8.697-17.137,16.91-26.733,21.306c-9.595,4.393-24.565,8.816-32.182,10.254c-0.178,3.174-4.223,9.939-8.448,7.185
		c-4.225-2.754,1.068-7.306,2.778-8.773c-0.539-0.542-11.049-0.09-10.87-5.179c0.176-5.089,6.426-4.252,10.148-3.487
		c0.8,0.853,3.181,2.43,4.784,0.195c-2.971-1.538-6.126-4.731-5.472-7.785c0.655-3.054,5.239-2.875,8.151-0.838
		c2.917,2.036,4.023,8.157,3.725,8.911c11.21-2.204,39.769-14.144,50.981-22.57c6.279-4.717,9.42-7.221,9.868-11.135
		c1.258,4.514,5.157,19.861,7.625,28.437c2.467,8.577,8.971,16.025,12.332,21.441c3.365,5.417,7.354,11.105,7.041,14.58
		c-0.314,3.476-10.853,12.729-31.037,20.404c-20.182,7.672-68.844,13.541-97.776,12.863c-27.353-0.64-46.645-6.094-46.645-11.059
		c0-4.965,8.084-18.56,16.818-30.919c7.176-10.156,18.388-20.991,30.723-31.823c12.332-10.834,27.808-22.344,39.245-29.341
		c11.437-6.996,19.601-12.098,28.032-14.445c3.768,0.903,15.472,3.749,17.133,0.904c2.121-3.628-2.735-35.053-4.666-35.221
		c0.899,7.253,4.243,30.313,1.439,32.211c-4.202,2.848-67.877-13.452-70.567-13.993c0.897-1.264,3.41-4.153,4.486-5.416
		c4.665,2.527,56.244,16,58.994,13.571c3.181-2.806-3.096-36.495-5.578-52.114c-2.482-15.617-5.837-38.397-10.059-35.485
		c0.597,3.612,1.346,6.56,2.243,11.434c-4.963,8.606-18.245,27.685-29.305,39.873c-11.064,12.188-37.17,39.418-42.105,40.62
		c-4.933,1.203-37.282-8.119-45.804-12.634c0.716-0.722,10.583-11.226,13.455-14.294c0.598-3.31,0.449-12.338-0.6-20.011
		c-2.988-0.903-28.106,1.624-34.745,2.527c5.561-5.055,14.891-13.541,28.165-25.276c13.458-12.277,25.469-21.275,36.77-28.496
		c1.614,2.527,5.046,4.036,10.161,3.907c5.111-0.13,11.904-3.713,14.247-9.898c1.493,4.659,8.733,9.683,18.439,9.603
		c9.709-0.081,16.547-3.284,21.391-10.686C404.165,249.915,405.387,243.143,405.601,239.442z"/>
	<path fill="#727E85" d="M311.772,377.749c1.035,5.426,7.238,6.089,7.351,4.514c-3.587-2.167-6.551-4.248-4.721-8.166
		c1.835-3.918,7.276-1.512,8.177,1.608c0.659,2.269-0.093,5.012-2.066,8.89c-1.362,2.674-3.758,8.606-3.288,10.687
		c0.469,2.081,3.143,2.955,13.741,2.328c10.594-0.628,27.952-3.377,37.283-7.53c-1.974,1.135-3.572,2.363-5.35,3.559
		c-15.251,5.776-29.702,8.072-38.534,8.924c-8.834,0.851-13.533-0.756-14.377-2.931c-0.77-1.989,0.187-6.999,0.561-9.552
		c-3.663,3.499-8.832,3.782-10.145,0.757c-0.975-2.237-0.096-3.785,1.594-4.352c1.08,0.543,7.799,2.176,7.256-0.43
		c-3.871-0.325-9.227-2.405-7.348-6.757C303.788,374.947,310.335,377.207,311.772,377.749z"/>
	<path d="M354.281,244.817c-4.204,0.13-6.206,4.17-6.47,6.968c-0.264,2.799,1.746,5.21,4.207,5.079
		c3.233-0.172,6.533-2.614,7.116-5.865C359.717,247.747,358.485,244.686,354.281,244.817z"/>
	<path fill="#FFFFFF" d="M354.801,252.306c-1.074-0.245-1.358-1.889-0.711-3.127c0.645-1.236,2.513-2.389,3.292-0.39
		C358.096,250.612,356.22,252.631,354.801,252.306z"/>
	<path d="M390.409,238.108c-4.403,0.521-7.53,3.389-8.178,7.425c-0.827,5.168,2.242,9.183,7.051,8.922
		c5.177-0.283,9.355-3.905,9.577-8.401C399.118,240.779,394.809,237.587,390.409,238.108z"/>
	<path fill="#FFFFFF" d="M393.098,242.733c1.582-1.131,3.233,0,3.559,2.344c0.324,2.345-1.098,4.625-3.364,3.777
		C391.552,248.204,391.091,244.167,393.098,242.733z"/>
	<path fill="#ACB6BD" d="M254.239,124.278c2.617,1.756,43.833,33.578,59.533,46.747c15.701,13.169,34.02,29.409,35.546,31.165
		c1.528,1.755,1.745,3.072-2.617-0.22c-4.362-3.292-95.298-68.694-96.387-69.791C249.222,131.082,252.931,123.4,254.239,124.278z"/>
	<path fill="#ACB6BD" d="M492.595,156.539c-24.749,14.925-57.716,38.551-54.085,34.896c2.402-2.414,21.612-20.252,37.074-32.701
		c16.355-13.168,30.749-23.484,38.382-25.459c7.63-1.975,15.536,5.128,11.557,6.585
		C523.124,140.738,512.419,144.583,492.595,156.539z"/>
	<path fill="#ACB6BD" d="M289.131,301.611c3.437-2.883,18.536-16.242,23.987-21.07c5.453-4.828,15.047-11.852,17.446-13.607
		c2.4-1.756-6.324,17.118-8.941,19.313C319.008,288.442,285.208,304.903,289.131,301.611z"/>
	<path fill="#707A81" d="M338.852,265.398c0,0,3.687,1.587,10.032,0.878c9.812-1.098,12.647-7.901,12.647-7.901
		s6.322,10.316,23.768,7.463c15.144-2.476,19.411-16.68,19.411-16.68s1.088,18.654-19.846,23.703
		c-20.934,5.047-23.987-8.34-23.987-8.34s-4.579,5.487-13.084,6.584C339.288,272.201,338.852,265.398,338.852,265.398z"/>
	<path fill="#707A81" d="M418.012,364.599c0,0,10.686,2.854,15.048,1.536c4.362-1.317,3.053-8.998,3.053-8.998
		s3.926,10.096-0.872,14.265C430.442,375.573,418.012,364.599,418.012,364.599z"/>
	<path fill="#707A81" d="M387.665,430.069c0,0,10.026-1.927,23.804-7.31c13.904-5.431,21.213-10.298,25.56-14.318
		c2.84-2.627,6.111-6.507,6.111-6.507s-3.973,13.362-21.201,22.799c-17.229,9.437-39.164,12.443-39.164,12.443
		s2.447-1.18,3.832-3.773C387.558,431.627,387.665,430.069,387.665,430.069z"/>
	<path fill="#ACB6BD" d="M317.938,443.695c3.505-6.236,16.875-19.812,26.718-29.719c9.843-9.906,22.498-18.398,24.959-20.167
		c2.462-1.768-10.545,23.352-13.357,26.181C353.446,422.821,313.368,451.832,317.938,443.695z"/>
	<path fill="#ACB6BD" d="M396.392,416.363c2.641-0.769,16.116-6.075,22.038-8.744c6-2.704,11.733-5.499,16.571-8.384
		c3.105-1.853-8.332,9.556-16.125,13.072C411.084,415.823,392.988,417.355,396.392,416.363z"/>
	<path fill="#ACB6BD" d="M383.046,407.529c1.434,0.059,4.927,1.171,5.733,5.499C389.585,417.355,374.358,407.168,383.046,407.529z"
		/>
	<path fill="#ACB6BD" d="M372.833,422.043c-2.75,0.01-4.46-2.744-1.433-4.598c2.061-1.263,7.256-0.811,7.883,0.721
		C379.576,418.881,375.239,422.035,372.833,422.043z"/>
	<path fill="#808B93" d="M257.849,326.154c2.023,2.103,11.722,11.8,13.607,13.274c1.885,1.475,1.568-9.481,0.313-10.64
		C270.514,327.629,254.603,322.783,257.849,326.154z"/>
	<path fill="#909BA2" d="M488.925,417.774c2.366,0.699,3.572,6.89,1.687,9.986C488.726,430.854,476.424,414.079,488.925,417.774z"/>
	<path fill="#CF6D54" d="M424.881,220.033c0,0,30.291-23.151,32.783-19.1C460.156,204.984,424.881,220.033,424.881,220.033z"/>
	<path fill="#CF6D54" d="M359.317,224.857c0,0-28.754-20.837-30.865-18.328C325.735,209.758,359.317,224.857,359.317,224.857z"/>
	<path fill="#707A81" d="M256.945,189.55c2.299,0.771,41.793,13.89,44.477,14.47c2.682,0.579-16.872-11.962-19.363-12.927
		C279.565,190.129,253.493,188.393,256.945,189.55z"/>
	<path fill="#707A81" d="M478.94,202.67c2.476-1.187,25.495-11.769,31.63-15.049c6.135-3.28,18.594-10.805,20.321-11.769
		c1.725-0.965-27.03,7.91-29.714,9.261C498.492,186.464,474.914,204.599,478.94,202.67z"/>
	<path fill="#707A81" d="M434.909,450.371c8.468-2.538,43.137-2.688,38.002,1.654c-5.135,4.342-22.801,18.193-59.779,23.155
		c-36.976,4.962-50.33,5.374-48.891,3.721C365.681,477.248,425.253,453.265,434.909,450.371z"/>
</g>
</svg>
