<?xml version="1.0" encoding="utf-8"?>
<!-- Generator: Adobe Illustrator 17.0.0, SVG Export Plug-In . SVG Version: 6.00 Build 0)  -->
<!DOCTYPE svg PUBLIC "-//W3C//DTD SVG 1.1//EN" "http://www.w3.org/Graphics/SVG/1.1/DTD/svg11.dtd">
<svg version="1.1" id="Layer_1" xmlns="http://www.w3.org/2000/svg" xmlns:xlink="http://www.w3.org/1999/xlink" x="0px" y="0px"
	 width="800px" height="600px" viewBox="0 0 800 600" enable-background="new 0 0 800 600" xml:space="preserve">
<g>
	<path d="M602.711,318.246c-9.41-5.448-19.16-7.471-29.159-11.257c-2.784-1.055-7.822-3.752-3.393-7.729
		c2.681-2.407,5.773-3.005,9.193-3.729c4.297-0.912,9.061-1.127,13.028-3.197c6.105-3.186,10.1-10.652,5.127-17.448
		c-5.627-7.689-19.44-10.222-21.187-7.153c10.615,5.306,3.142,13.269-3.357,15.225c-3.548,1.069-7.455,1.635-10.997,1.822
		c-7.633,0.402-15.589,1.356-22.57,4.826c-5.515,2.742-7.876,6.832-8.345,12.382c-0.656,7.803,5.427,14.176,11.458,18.034
		c7.535,4.82,16.628,7.357,25.156,9.767c2.734,0.773,5.611,1.471,8.495,2.249c-0.002,0.014-0.009,0.023-0.009,0.039
		c-0.056,1.685,0.82,5.102,1.855,6.255c2-1.15,4.559-2.927,6.796-3.493c4.502,1.828,8.615,4.316,11.692,8.185
		c1.822,2.293,2.835,4.737,3.231,7.192c-4.484-0.307-8.757,2.24-10.506,3.911c3.959,2.092,7.271,4.618,8.71,6.255
		c-2.524,4.832-6.087,9.079-12.568,10.501c-1.953-1.875-5.622-6.458-6.878-9.918c-3.041,1.82-6.36,8.442-6.642,10.54
		c-6.595-1.075-13.314-3.752-19.641-6.56c-0.472-3.902,0.924-12.441,2.647-15.324c-5.738-1.091-12.649,2.622-16.645,6.21
		c-7.588-7.042-17.98-10.197-20.424-11.093c-0.661-4.191,0.589-12.894,1.637-16.076c-4.849-1.878-17.945,4.377-19.507,10.445
		c-2.753-0.779-5.491-1.537-8.188-2.307c-4.863-3.739-10.623-7.391-15.971-10.534c0.748-3.959,4.308-9.507,5.496-11.922
		c-6.492-1.624-14.954,0.009-20.531,3.742c-3.962-2.012-6.902-3.334-10.836-5.893c1.64-3.529,3.063-7.301,4.367-10.28
		c3.019-6.883,4.241-13.106,4.949-20.597c0.705-7.418-0.307-16.825,3.325-23.575c1.386-2.575,3.95,4.883,4.037,5.158
		c0.94,2.994,1.287,6.171,1.585,9.279c0.092,0.969,1.062,1.644,1.492,0.812c0.952-1.842,4.48-5.822,6.112-13.31
		c1.091-5.013,2.988-17.679,6.37-12.181c3.633,5.903,3.82,14.999,4.201,21.745c0.081,1.459,1.702,1.476,2.054,0.376
		c0.354-1.1,4.038-13.177,5.825-19.925c1.716-3.066,4.059-6.272,7.103-6.23c1.93,0.03,2.495,9,1.842,10.576
		c-0.335,0.812,4.887-3.636,9.899-18.508c6.646-19.728,2.923-35.813,0.062-45.339c-2.609-8.69-8.277-16.666-17.362-19.005
		c-9.282-2.388-20.199,7.865-25.956,13.598c-9.379,9.343-16.401,20.318-24.506,30.688c-5.402,6.91-11.198,14.557-8.342,23.705
		c1.655,5.304,7.376,9.578,9.954,14.535c4.19,8.059,5.646,16.217,4.972,25.24c-0.787,10.537-3.822,20.19-7.234,30.37
		c-1.666-1.096-4.14-2.806-6.52-4.23c0.373-1.437,3.242-10.052,4.926-14.262c-5.688-0.371-17.585,1.539-21.259,7.167
		c-14.407-4.48-33.673-20.385-43.757-30.872c-9.893-10.286-19.138-23.334-22.221-37.476c-3.621-16.602,7.203-29.835,16.147-42.394
		c2.676,0.865,13.512,5.133,16.246,9.365c-1.464,2.832-2.812,5.736-4.017,8.741c-3.345,8.344-3.789,31.333,10.255,21.036
		c5.454-3.998,9.843-10.435,13.325-16.154c6.377-10.474,12.85-22.573,18.545-28.311c6.235-6.28,10.387-16.369,4.586-22.144
		c-3.277-3.259-9.267-0.715-12.42,0.963c-6.522,3.47-11.469,9.086-16.1,14.674c-2.181,2.636-4.237,5.332-6.183,8.091
		c-9.464,1.758-18.142-2.082-20.555-3.568c3.565-9.89,20.23-22.946,16.337-41.817c-2.634-12.763-15.043-18.014-27.16-14.599
		c-9.009,2.537-19.127,8.16-28.632,6.317c-6.32-1.224-9.899-5.546-16.653-5.417c-12.823,0.243-25.285,14.234-30.381,24.832
		c-7.05,0.053-12.443,3.85-15.479,9.062c-5.237-0.101-10.958-0.081-15.539-2.887c-8.289-5.075,0.008-17.638,3.696-24.313
		c3.128-1.855,5.767-4.131,7.903-7.368c3.039-4.615,3.398-10.288-0.899-11.916c-7.374-2.795-14.971,5.585-19.029,10.58
		c-5.527,6.809-9.393,14.967-12.788,22.996c-3.791,8.961-11.785,29.506-5.524,39.348c2.213,3.477,6.297,5.61,9.882,0.69
		c1.716-2.354,3.607-6.543,4.077-9.217c2.135-4.685,4.592-8.997,9.599-10.897c5.434-2.061,11.477-1.42,16.011,0.586
		c-0.546,2.513,0.078,4.484,0.695,6.023c-6.406,1.991-6.257,10.432-1.805,13.53c-4.383,2.315-3.66,6.561-1.842,7.719
		c-1.386,4.187-4.639,7.881-9.131,11.823c-6.79,5.964-29.392,16.014-42.905,19.806c-2.096-4.335-7.092-18.538-6.394-31.826
		c-8.392,3.147-13.194,17.709-15.995,27.425c-1.685,5.845-2.88,12.615-2.859,19.16c-4.358-0.165-7.578,4.578-7.965,8.587
		c-8.39,4.882-13.963,14.187-16.786,23.253c-1.732,5.561-1.803,14.063,3.696,17.523c1.475,0.927,3.156,1.281,4.91,1.28
		c0.147,3.254,3.987,9.203,5.24,10.591c0.954-2.555,2.999-9.028,5.013-12.322c0.496,4.905,4.578,11.711,8.211,13.542
		c0.479-4.165,1.662-11.922,3.083-15.526c1.395,5.34,4.869,11.827,9.349,13.901c-4.773,0.038-11.307,0.778-11.159,3.992
		c0.103,2.243,7.779,8.058,11.218,9.653c-4.738,6.345-15.462,25.33-17.757,37.628c-0.228,1.217,1.719,2.51,2.623,1.133
		c3.964-6.028,7.602-11.366,13.394-15.977c13.024-10.373,16.332,11.24,16.566,19.247c0.042,1.425,2.533,1.986,2.859-0.204
		c0.928-6.236-0.712-13.632-1.256-20.829c-0.374-4.977-0.373-9.639,1.367-14.401c22.64,13.673,46.65-20.508,60.249-35.629
		c11.944-5.998,24.319-11.249,35.933-17.888c9.965-5.699,17.685-12.906,21.307-21.474c11.004,9.354,23.022,22.054,30.521,36.731
		c5.736,11.224,12.549,28.989,12.699,36.905c-2.779-2.308-9.681-13.561-14.048-19.978c-4.954-7.282-11.597-16.94-20.653-19.426
		c-17.453-4.79-24.945,21.141-28.989,33.183c-3.007,8.953-5.971,17.71-4.807,27.276c0.725,5.962,3.605,11.559,5.713,17.111
		c2.185,5.753,5.943,14.078,7.197,16.454c0.374,0.705,1.919-0.112,1.651-0.854c-2.31-6.398-3.414-14.865-1.102-22.349
		c1.058-3.426,5.474-7.733,9.281-6.977c3.202,0.636,5.572,4.059,7.22,6.956c2.054,5.212,3.878,10.186,6.995,15.087
		c0.664,1.043,2.223-0.437,2.037-1.077c-1.277-4.409-2.561-10.001-3.869-15.702c-0.423-8.221-0.496-17.571,2.453-23.608
		c2.273-4.653,7.797-2.453,8.997,1.122c1.459,4.341,4.098,14.292,4.773,16.075c0.408,1.078,2.199,0.528,1.886-0.521
		c-1.59-5.345-3.381-11.419-3.124-17.645c0.483-11.714,13.299-5.552,18.835,0.804c0.346,5.856-0.851,13.296-2.399,16.173
		c-4.406,5.311-6.451,15.44-4.138,17.799c-6.86,7.814-12.013,22.879-4.138,29.249c-1.076,2.059-1.708,4.545-1.93,7.175
		c-9.555-4.972-22.286-4.863-31.342,0.955c-13.503,8.674-9.748,27.472-9.103,41.053c-16.066,0.419-28.23,5.17-25.572,13.684
		c-3.113,3.427-6.755,11.092-7.474,14.237c5.357,1.637,13.032-0.803,16.391-2.467c1.633,1.186,6.771,3.463,13.64,2.48
		c-0.337,1.71-0.648,4.71-0.362,6.28c4.332,0.485,14.719-2.48,20.187-7.444c2.09,1.713,13.748,4.308,19.158-0.926
		c2.308,2.687,7.56,5.223,10.895,5.646c1.439-2.718,2.104-7.292,1.888-11.078c3.513-2.361,5.521-7.583,1.705-11.477
		c-2.934-2.993-7.625-4.123-11.871-4.704c-6.953-7.784-11.02-17.782-8.422-24.397c1.354-3.448,6.299-6.425,15.562-4.042
		c1.817,1.892,4.053,3.097,6.679,3.161c-0.849,8.082,8.804,18.361,18.15,18.778c5.973,8.821,37.867,21.522,58.947,16.203
		c0.156,3.272-0.231,7.359-1.142,10.061c-6.609,1.506-16.943,4.944-20.51,7.067c-2.28,1.359-4.678,3.593-4.308,6.49
		c0.413,3.214,4.413,5.787,7.427,6.551c-1.027,1.8-2.539,5.527-3.108,7.477c4.522,1.666,13.622,0.89,18.011-1.297
		c6.013,3.437,15.297,3.49,21.903,2.453c0.938,1.771,4.246,5.487,6.624,6.453c1.925-1.49,4.992-5.516,6.699-8.66
		c4.523,0.605,9.807-2.581,13.317-5.234c1.411,1.537,5.886,4.551,7.476,4.636c2.193-3.401,1.888-11.589,1.521-12.742
		c2.698-1.866,3.786-5.122,2.642-7.582c-1.432-3.081-6.108-4.141-9.05-4.732c-4.162-0.832-9.673-1.492-15.013-0.909
		c1.358-6.55,2.527-13.128,2.067-19.777c7.758-3.465,13.89-8.691,18.65-14.723c5-6.331,8.618-15.846,12.97-19.781
		c4.771,0.388,9.397,1.359,13.84,3.806c4.592,2.53,7.179,5.879,8.267,9.943c-11.338,4.294-22.757,13.221-23.488,16.097
		c-0.541,2.131,0.642,4.86,2.773,5.39c-1.994,2.631-2.583,6.275-2.564,8.378c3.113,0.692,8.69-0.454,11.587-1.553
		c1.947,1.983,5.192,2.517,7.867,2.669c1.891,0.108,5.321,0.086,7.558-0.943c0.17,1.174,1.306,4.059,2.22,5.223
		c4.321-1.163,10.576-5.921,13.157-11.547c2.279-0.938,10.191-5.507,11.651-6.766c0.949,1.206,3.354,4.715,4.809,6.018
		c1.908-2.86,3.703-7.717,3.651-11.782c6.699-2.843,4.547-8.825-0.254-11.954c-4.907-3.198-14.139-5.374-20.311-3.853
		c0.924-4.101,1.141-8.436,0.723-12.725c21.9-1.409,47.505-11.174,55.939-33.005C632.186,351.142,619.718,328.091,602.711,318.246z
		 M207.322,295.919c-0.33-5.646,1.524-11.209,4.287-16.134c0.464-0.058,0.926-0.128,1.387-0.19
		c-0.402,2.966,0.009,5.162,1.403,8.052C211.858,289.301,208.687,293.107,207.322,295.919z M214.741,298.451
		c-0.298-4.003-0.087-6.956,0.167-9.648c1.56,3.145,3.429,6.49,5.964,8.11C218.848,297.638,216.088,298.114,214.741,298.451z
		 M236.63,288.688c-1.005,0.438-2.723,1.183-4.082,1.774c-0.178-0.522-0.421-1.658-0.525-2.586
		c-0.955,0.666-2.093,2.803-2.676,4.151c-1.736,0.929-4.721,2.307-6.974,3.897c0.065-6.618,1.54-15.024,2.594-18.665
		c1.381-0.379,2.76-0.82,4.14-1.301C228.799,280.825,233.065,285.414,236.63,288.688z M253.402,280.028
		c-1.847,0.884-4.031,1.944-5.781,2.962c-0.474-0.973-1.587-3.551-2.005-4.555c-1.247,1.313-2.263,5.215-2.55,7.217
		c-1.4,0.648-2.969,1.289-4.336,2.023c1.152-5.872,2.095-11.816,2.877-17.75c2.134-1.256,4.243-2.555,6.35-3.85
		C247.885,271.147,250.129,277.195,253.402,280.028z M268.844,270.056c-1.328,0.915-2.728,1.601-4.138,2.307
		c-0.264-0.828-0.951-2.36-1.283-3.809c-1.744,1.082-3.325,5.32-3.855,8.024c-1.481,0.942-3.166,1.824-4.615,2.577
		c0.714-4.168,3.108-13.547,4.339-17.298C261.895,261.774,268.351,265.291,268.844,270.056z"/>
	<path fill="#7F6AB4" d="M331.968,343.555c-5.819,4.369-6.21,12.889-5.434,19.565c-1.807-3.569-2.182-12.649-1.192-20.361
		c0.49-3.811,4.23-18.849,11.12-11.547c3.446,3.65,5.396,9.249,7.159,14.22C340.772,341.862,336.65,340.04,331.968,343.555z"/>
	<path fill="#7F6AB4" d="M354.563,321.75c-3.474,1.794-4.205,6.196-4.855,9.695c-0.938,5.039-0.449,9.856,0.042,14.817
		c-2.128-10.495-3.741-24.921,1.938-31.508c3.563-4.132,8.024-0.667,10.227,7.91C359.359,320.648,356.92,320.534,354.563,321.75z"/>
	<path fill="#9786C2" d="M354.521,310.867c-6.057,0.323-8.401,10.104-8.37,14.451c0.147,20.865,7.089,35.612,6.126,36.427
		c-0.962,0.815-6.048-14.527-8.11-19.855c-1.562-4.034-4.916-15.532-10.641-15.791c-7.413-0.337-9.58,11.431-10.442,16.765
		c-0.748,4.634-0.619,9.775,0.193,14.836c-4.372-10.621-7.862-21.39-4.308-33.058c3.424-11.24,7.014-22.378,13.149-32.485
		c15.218-25.069,32.404,3.161,45.216,21.34c-2.723-2.329-5.695-4.567-9.017-5.808c-8.015-2.996-5.805,8.579-4.335,14.421
		C361.9,317.384,359.527,310.602,354.521,310.867z"/>
	<path fill="#7F6AB4" d="M366.972,317.515c-0.966,0.722-1.616,1.68-2.071,2.781c-0.482-2.749-1.048-5.488-0.943-8.292
		c0.215-5.75,5.649-1.948,8.058-0.243c4.204,2.98,7.606,6.918,11.477,10.228C378.417,318.43,372.387,313.469,366.972,317.515z"/>
	<path fill="#E66000" d="M578.715,335.945c-0.415-0.955-0.653-2.5-0.708-3.351c1.313,0.38,3.046,0.875,4.327,1.322
		C581.181,334.587,579.85,335.224,578.715,335.945z"/>
	<path fill="#E66000" d="M592.505,354.148c1.482-1.331,4.829-2.403,7.388-2.198c0.094,2.266-0.189,4.171-1.03,6.299
		C597.449,357.189,593.75,354.83,592.505,354.148z"/>
	<path fill="#E66000" d="M577.939,364.563c0.413,0.985,3.989,5.94,5.161,7.25c-2.827,0.524-5.829,0.627-9.16-0.02
		C574.628,369.166,576.185,366.429,577.939,364.563z"/>
	<path fill="#E66000" d="M551.729,351.423c-1.239,3.446-2.288,8.4-2.184,12.329c-2.549-1.155-5.021-2.294-7.377-3.314
		c-0.87-1.316-1.205-2.201-2.291-3.322C543.036,353.685,548.308,351.775,551.729,351.423z"/>
	<path fill="#E66000" d="M516.221,330.943c-1.311,3.867-1.415,10.966-1.009,12.948c-4.067-1.389-8.793-2.923-12.944-4.11
		C505.374,334.591,511.197,331.144,516.221,330.943z"/>
	<path fill="#E66000" d="M478.151,315.826c-1.986,2.633-4.341,7.536-4.503,9.171c-3.73-2.118-7.511-4.129-11.277-6.06
		C466.559,316.531,472.416,315.118,478.151,315.826z"/>
	<path fill="#7F6AB4" d="M468.451,261.271c-0.714-2.193-1.646-4.297-3.192-5.833c-3.052-3.024-5.055,2.552-6.257,6.498
		c0.079-3.334,0.193-6.667,0.524-9.982c0.388-3.873,2.781-13.745,6.487-14.794c1.763-0.497,2.145,1.551,2.397,2.413
		c1.163,3.967,0.931,8.523,0.751,12.608C469.037,255.022,468.623,258.149,468.451,261.271z"/>
	<path fill="#7F6AB4" d="M482.197,244.015c-2.831-1.221-5.046,1.573-5.94,4.322c0.011-5.494,0.083-11.363,0.257-17.002
		c0.128-4.11,0.242-8.309,1.016-12.36c0.505-2.639,3.297-11.238,7.482-7.638c2.308,1.987,1.986,7.329,2.096,10.069
		c0.162,3.959,0.288,7.915,0.203,11.876c-0.128,5.778-0.592,11.545-0.804,17.32C485.625,247.444,484.284,244.914,482.197,244.015z"
		/>
	<path fill="#7F6AB4" d="M505.941,236.174c-0.181,2.658-0.366,5.485-0.725,8.291c-0.524-1.154-1.314-2.142-2.475-2.611
		c-2.299-0.929-4.689,0.419-6.299,2.056c-0.44,0.446-0.809,0.929-1.152,1.429c1.482-6.26,2.559-12.571,2.768-18.881
		c0.212-6.381-0.382-13.637-0.142-18.078c0.104-1.975,0.807-8.641,3.735-6.049C507.349,207.373,506.544,227.257,505.941,236.174z"/>
	<path fill="#664DA4" d="M326.531,353.897c-0.118-2.011-0.12-4.035,0.158-6.031c0.573-4.112,3.382-10.2,8.5-9.963
		c2.963,0.136,5.363,1.827,7.235,4.213c-1.492-4.006-3.267-8.051-5.962-10.905c-6.889-7.303-10.63,7.736-11.12,11.547
		c-0.99,7.712-0.614,16.792,1.192,20.361C326.198,360.228,326.082,356.992,326.531,353.897z"/>
	<path fill="#664DA4" d="M350.066,322.879c2.745-6.986,8.825-4.821,11.838-0.22c0.005,0.002,0.006,0.003,0.009,0.006
		c-2.202-8.577-6.663-12.042-10.227-7.91c-3.703,4.296-4.297,11.924-3.675,19.622C348.032,330.437,348.618,326.559,350.066,322.879z
		"/>
	<path fill="#664DA4" d="M374.691,315.291c3.064,1.821,5.641,3.847,7.935,6.084c0.293,0.207,0.583,0.415,0.867,0.614
		c-3.87-3.311-7.273-7.248-11.477-10.228c-2.41-1.705-7.843-5.507-8.058,0.243c-0.095,2.524,0.355,4.994,0.798,7.466
		C365.569,314.17,369.187,312.024,374.691,315.291z"/>
	<path fill="#664DA4" d="M468.411,239.574c-0.253-0.862-0.634-2.91-2.397-2.413c-3.707,1.049-6.099,10.92-6.487,14.794
		c-0.066,0.667-0.119,1.334-0.17,2.003c1.211-3.254,3.272-5.764,6.411-4.444c2.249,0.945,2.845,4.098,3.099,6.637
		c0.123-1.361,0.238-2.697,0.296-3.969C469.341,248.097,469.573,243.541,468.411,239.574z"/>
	<path fill="#664DA4" d="M478.455,234.483c2.332-2.43,5.301-1.852,6.649,1.18c0.889,2,1.461,4.191,1.825,6.484
		c0.164-2.954,0.316-5.907,0.382-8.866c0.086-3.961-0.041-7.917-0.203-11.876c-0.111-2.74,0.212-8.082-2.096-10.069
		c-4.185-3.601-6.977,4.999-7.482,7.638c-0.775,4.051-0.888,8.25-1.016,12.36c-0.076,2.432-0.128,4.905-0.17,7.373
		C476.731,237.089,477.362,235.621,478.455,234.483z"/>
	<path fill="#664DA4" d="M498.059,226.459c-0.061,1.85-0.204,3.7-0.404,5.551c1.665-2.427,5.178-2.675,6.79-0.036
		c0.73,1.192,1.196,2.559,1.509,3.99c0.602-9.012,1.351-28.63-4.302-33.632c-2.927-2.592-3.63,4.075-3.735,6.049
		C497.677,212.822,498.271,220.078,498.059,226.459z"/>
	<path fill="#9786C2" d="M454.622,276.434c0.168-7.663-1.127-14.203-4.087-21.272c-2.721-6.501-7.611-11.085-10.989-17.141
		c-4.513-8.093,5.452-18.008,9.87-23.761c4.673-6.082,8.955-12.42,13.813-18.365c5.273-6.453,11.266-12.148,17.973-17.087
		c7.126-5.242,14.485-6.964,21.995-0.77c3.343,2.759,5.402,6.812,7.125,10.69c7.939,17.849,3.287,44.936-4.098,58.632
		c0.511-2.661,0.885-5.351,1.264-8.026c1.043-7.387,2.659-27.644-3.103-36.764c-1.662-2.628-5.231-3.749-6.347-1.761
		c-3.562,6.345-1.663,18.337-1.998,27.651c-0.401,11.157-4.459,24.243-7.995,34.999c-0.086-0.611-0.33-10.39-0.173-14.407
		c0.277-7.117,0.966-15.777,0.706-22.905c-0.148-4.009,1.054-15.155-4.078-16.687c-6.414-1.914-8.289,9.059-8.629,13.104
		c-1.038,12.336,0.135,25.586-2.341,37.75c-0.754,2.698-2.254,6.699-3.37,8.06c-1.116,1.361-0.24-8.197-0.017-12.004
		c0.182-3.122,0.344-6.225,0.274-9.354c-0.053-2.393,0.195-10.203-3.094-11.054c-4.668-1.206-7.465,8.342-8.157,11.31
		c-1.426,6.105-0.966,14.493-1.033,17.52c-0.069,3.027-0.79,18.539-2.676,26.859c-2.358,10.387-9.659,22.879-11.595,30.275
		c-0.669-0.641-1.171-1.211-1.867-1.822C447.742,306.584,454.289,291.787,454.622,276.434z"/>
	<path fill="#826DB5" d="M337.685,311.023c-0.583-7.577-0.435-15.679,1.687-22.922c-8.204,7.723-12.894,19.601-15.352,30.139
		c-2.893,12.415-3.604,26.063-0.846,38.737c-0.712-4.826-0.803-9.698-0.09-14.112c0.862-5.334,3.028-17.102,10.442-16.765
		c3.473,0.156,6.068,4.447,7.926,8.702c-0.05-0.229-0.104-0.457-0.151-0.686C339.777,326.482,338.284,318.795,337.685,311.023z"/>
	<path fill="#826DB5" d="M356.264,303.987c-2.923-5.922-6.629-12.463-12.169-16.365c-3.086,8.571-2.65,18.896-1.554,27.686
		c0.971,7.8,2.137,16.017,4.438,23.547c0.118,0.388,0.254,0.772,0.377,1.158c-0.683-4.41-1.167-9.351-1.205-14.696
		c-0.031-4.347,2.313-14.128,8.37-14.451c2.845-0.151,4.837,1.975,6.411,4.703C359.638,311.595,358.097,307.703,356.264,303.987z"/>
	<path fill="#826DB5" d="M362.045,296.469c-2.665-2.472-5.621-4.648-8.788-6.428c4.389,5.214,7.684,11.832,10.155,18.58
		c0.832-1.354,2.346-1.888,4.905-0.932c1.967,0.734,3.808,1.824,5.551,3.069C370.084,305.834,366.562,300.662,362.045,296.469z"/>
	<path fill="#826DB5" d="M442.675,320.743c0.39,0.385,0.754,0.77,1.188,1.185c0.541-2.068,1.51-4.544,2.665-7.25
		C445.342,316.793,444.056,318.821,442.675,320.743z"/>
	<path fill="#826DB5" d="M473.941,187.395c-2.068,1.989-4.082,4.102-6.124,6.176c-2.104,3.078-4.023,6.303-5.773,9.566
		c-7.161,13.35-12.612,30.254-11.215,45.907c0.661,2.737,1.464,5.507,2.399,8.345c4.386,13.302,3.78,29.212-0.747,43.464
		c1.233-3.127,2.307-6.249,2.977-9.199c1.886-8.32,2.608-23.832,2.676-26.859c0.067-3.027-0.393-11.414,1.033-17.52
		c0.692-2.968,3.488-12.516,8.157-11.31c3.289,0.851,3.041,8.662,3.094,11.054c0.07,3.128-0.092,6.232-0.274,9.354
		c-0.097,1.649-0.315,4.377-0.441,6.829c3.241-12.621,2.312-27.215,2.031-39.582C471.458,211.405,471.855,199.327,473.941,187.395z"
		/>
	<path fill="#826DB5" d="M490.209,212.491c-0.577-9.96-2.421-24.113-10.912-29.539c-2.605,12.055-2.955,24.012-2.952,36.185
		c0.901-4.79,3.141-11.173,8.157-9.676c5.131,1.532,3.929,12.679,4.078,16.687c0.242,6.614-0.332,14.535-0.637,21.331
		C489.579,235.909,490.895,224.334,490.209,212.491z"/>
	<path fill="#826DB5" d="M495.842,180.267c-3.842-1.177-8.012-1.244-12.44,0.26c6.827,5.8,9.764,16.55,10.743,25.96
		c1.602,15.416-0.329,30.301-2.463,45.304c2.243-7.803,4.095-15.983,4.358-23.329c0.335-9.315-1.563-21.306,1.998-27.651
		c1.116-1.987,4.685-0.867,6.347,1.761c4.202,6.648,4.478,19.211,3.917,28.396c2.539-11.017,4.288-22.034,0.323-33.225
		C505.997,190.319,501.578,183.86,495.842,180.267z"/>
	<path fill="#E66000" d="M439.737,293.243c-1.93,2.817-3.465,8.86-3.869,10.595c-3.725-1.939-7.825-3.473-11.862-4.992
		C427.124,295.154,434.576,292.966,439.737,293.243z"/>
	<path fill="#C25300" d="M580.174,335.102c0.731-0.399,1.476-0.787,2.16-1.186c-1.281-0.447-3.014-0.942-4.327-1.322
		c0.031,0.474,0.125,1.163,0.268,1.846C578.944,334.563,579.571,334.795,580.174,335.102z"/>
	<path fill="#C25300" d="M595.834,356.196c1.188,0.765,2.361,1.553,3.029,2.053c0.723-1.83,1.015-3.507,1.029-5.381
		C598.635,354.11,597.307,355.254,595.834,356.196z"/>
	<path fill="#C25300" d="M577.51,368.82c-0.968,0.441-1.944,0.829-2.93,1.111c-0.251,0.617-0.479,1.241-0.641,1.861
		c3.331,0.647,6.333,0.544,9.16,0.02c-0.531-0.594-1.557-1.939-2.559-3.322C579.535,368.634,578.523,368.74,577.51,368.82z"/>
	<path fill="#C25300" d="M541.339,355.766c-0.521,0.421-1.016,0.867-1.462,1.351c1.086,1.121,1.422,2.006,2.291,3.322
		c2.357,1.019,4.829,2.159,7.377,3.314c-0.048-1.788,0.153-3.788,0.491-5.759C549.037,357.385,543.245,355.761,541.339,355.766z"/>
	<path fill="#C25300" d="M515.041,338.796c-1.147-0.225-8.666-1.11-11.238-1.155c-0.556,0.678-1.082,1.384-1.534,2.14
		c4.151,1.188,8.877,2.721,12.944,4.11C515.028,342.989,514.95,341.028,515.041,338.796z"/>
	<path fill="#C25300" d="M473.799,321.306c-2.338-1.018-5.463-2.226-7.775-4.045c-1.311,0.477-2.545,1.038-3.653,1.676
		c3.766,1.931,7.547,3.942,11.277,6.06c0.067-0.669,0.502-1.889,1.128-3.273C474.45,321.583,474.122,321.446,473.799,321.306z"/>
	<path fill="#C25300" d="M427.99,295.868c-1.615,0.828-3.013,1.827-3.984,2.977c4.037,1.52,8.137,3.053,11.862,4.992
		c0.188-0.806,0.625-2.536,1.227-4.441C433.973,298.504,430.932,297.316,427.99,295.868z"/>
	<path fill="#6A9000" d="M424.313,177.837c-2.444,4.974-13.143,21.929-19.965,32.485c-6.821,10.554-13.846,9.319-13.519,3.432
		c0.181-3.289,2.396-8.063,3.825-10.952c2.6-5.245,5.46-9.549,8.924-14.24c3.46-4.682,6.897-8.917,10.306-13.618
		c2.178-3.002,4.698-5.875,8.031-7.617C429.13,163.551,426.757,172.861,424.313,177.837z"/>
	<path fill="#587400" d="M401.326,203.63c4.656-3.407,7.675-8.333,10.95-12.976c2.714-3.845,5.638-7.999,6.014-12.85
		c0.132-1.699,0.437-5.156-0.382-7.555c-1.498,1.415-2.817,3.032-4.023,4.695c-3.409,4.701-6.846,8.936-10.306,13.618
		c-3.463,4.692-6.324,8.995-8.924,14.24c-0.472,0.954-1.029,2.123-1.571,3.368C396.018,206.118,398.864,205.43,401.326,203.63z"/>
	<path fill="#9DAE00" d="M409.05,171.225c3.397-3.532,7.516-7.552,12.113-9.237c4.57-1.674,9.413-2.659,10.186,3.535
		c0.703,5.646-2.163,9.466-5.155,12.953c2.513-6.623,4.439-15.724-3.47-13.43c-4.143,1.202-6.952,4.972-10.509,8.621
		c-3.708,3.806-7.373,9.204-10.821,13.819c-6.186,8.281-13.35,19.445-13.394,27.212c-0.033,5.343,3.35,7.924,8.062,6.578
		c-8.534,9.941-11.287,1.635-11.449-4.294c-0.181-6.623,2.059-13.667,6.403-20.935C395.36,188.78,402.808,177.717,409.05,171.225z"
		/>
	<path fill="#FFFFFF" d="M282.528,152.971c4.235-2.361,9.139-1.646,12.981,0.807c4.687,2.994,6.888,7.896,5.844,11.675
		c-3.211,11.62-22.752,11.302-27.547,6.863C271.905,164.79,274.807,157.277,282.528,152.971z"/>
	<path fill="#9DAE00" d="M270.939,163.667c-7.554-4.067-20.696-0.959-25.112,7.446c-0.02-4.841-1.732-9.826-0.823-14.434
		c0.192-0.965-1.301-0.539-1.87,1.676c-1.62,6.313,0.142,10.287-0.513,16.798c-0.195,1.93-2.98,15.261-8.147,8.314
		c-1.582-2.129-2.106-4.375-2.34-6.961c-0.937-10.272,3.968-21.772,7.842-31.073c4.64-11.148,13.02-24.786,19.986-29.374
		c4.003-2.634,8.359-3.953,8.977-0.317c0.853,5.005-3.764,10.517-11.541,14.254c-3.898,1.872-5.998,5.254-8.035,9.036
		c-0.2,0.373,0.338,0.796,0.616,0.45c2.443-3.057,5.781-4.943,9.115-6.805c-4.83,6.293-9.192,14.978-4.922,22.01
		c2.976,4.899,12.209,5.694,18.24,5.635C271.802,161.424,271.294,162.544,270.939,163.667z"/>
	<path fill="#EBCA8B" d="M197.153,219.222c2.722-9.957,7.253-18.75,10.228-19.9c-0.879,6.835,3.571,33.827,17.264,43.402
		c-3.144,2.319-7.635,3.629-10.836,4.598c-4.114,1.247-14.268,4.762-20.054,2.851C193.23,240.906,194.325,229.564,197.153,219.222z"
		/>
	<path fill="#DEB36F" d="M209.186,215.004c-0.835,4.891-1.238,9.854-1.284,14.745c-0.056,6.291,0.125,12.741,1.026,19.049
		c1.967-0.558,3.683-1.113,4.882-1.476c3.201-0.969,7.692-2.279,10.836-4.598C216.485,237.019,211.61,225.129,209.186,215.004z"/>
	<path fill="#FFFACA" d="M179.469,297.479c-1.174-1.531-2.514-5.554-2.514-7.444c2.223-0.411,4.943-1.297,6.924-2.14
		C181.896,290.585,180.462,294.209,179.469,297.479z"/>
	<path fill="#FFFACA" d="M191.794,298.279c-2.918-3.371-4.654-6.977-5.73-11.282c2.561-1.04,6.363-3.368,9.153-5.139
		C193.163,286.972,192.131,292.747,191.794,298.279z"/>
	<path fill="#FFFACA" d="M205.236,297.517c-4.651-2.784-8.27-11.726-7.401-16.122c3.66-0.466,7.267-0.839,10.822-1.25
		C205.829,285.739,205.087,291.306,205.236,297.517z"/>
	<path fill="#D46D79" d="M267.5,279.25c-0.865-1.806-1.365-2.93-2.092-4.815c1.916-1.431,7.382-4.868,8.9-6.221
		c-0.419,1.969-0.321,4.275-0.164,6.281C272.192,275.669,269.101,278.008,267.5,279.25z"/>
	<path fill="#FFFACA" d="M267.784,285.102c-2.011,1.616-3.995,3.269-5.961,4.947c-0.606-5.728-1.104-12.181,1.03-17.539
		C263.861,276.637,265.871,281.054,267.784,285.102z"/>
	<path fill="#8D3244" d="M274.153,276.157c0.198,1.102,0.461,2.19,0.856,3.225c-1.813,1.439-3.627,2.866-5.429,4.279
		c-0.358-1.036-0.991-1.844-1.447-2.842C269.684,279.522,272.67,277.229,274.153,276.157z"/>
	<path fill="#FFFACA" d="M272.223,263.18c-1.116-1.576-2.718-6.975-3.225-9.201c1.665-0.493,4.739-1.406,6.383-1.953
		C275.25,255.007,273.412,261.032,272.223,263.18z"/>
	<path fill="#8D3244" d="M269.832,265.514c-0.588-0.812-7.19-5.541-10.164-5.786c0.006-0.044,0.016-0.087,0.019-0.132
		c1.495-0.72,2.779-1.475,4.276-2.198C265.472,257.797,272.655,265.436,269.832,265.514z"/>
	<path fill="#D46D79" d="M259.202,285.297c-1.354,0.8-6.707,4.118-7.633,4.824c-1.197-1.984-2.195-3.707-3.256-5.766
		c2.717-1.082,8.493-4.182,10.87-5.346C258.96,281.133,258.912,283.228,259.202,285.297z"/>
	<path fill="#FFFACA" d="M253.252,277.269c-2.379-3.612-3.624-7.871-3.753-12.122c1.49-0.952,5.357-3.139,7.307-4.126
		C256.122,262.959,253.794,273.832,253.252,277.269z"/>
	<path fill="#D46D79" d="M242.82,287.641c-0.262,2.523-0.274,5.373-0.012,7.87c-1.453,0.754-5.325,2.687-6.522,3.381
		c-1.406-2.375-2.285-4.059-3.256-6.922C234.549,291.285,239.677,289.055,242.82,287.641z"/>
	<path fill="#FFFACA" d="M236.9,286.505c-3.65-3.491-5.666-6.797-6.138-11.321c1.997-0.75,6.017-2.589,8.682-4.009
		C238.727,276.707,237.913,281.018,236.9,286.505z"/>
	<path fill="#8D3244" d="M228.994,308.112c0.575,1.944,1.418,4.062,2.366,5.441c-2.114,0.896-3.744,1.18-4.871-0.243
		C227.273,311.664,228.183,309.686,228.994,308.112z"/>
	<path fill="#FFFACA" d="M231.329,293.104c1.811,5.6,5.053,10.417,8.623,15.165c-2.396,1.772-4.576,3.412-6.762,4.514
		C229.998,307.5,229.077,297.994,231.329,293.104z"/>
	<path fill="#8D3244" d="M237.282,300.377c1.325-0.901,4.209-2.318,5.837-3.061c0.422,2.484,1.079,4.478,2.368,6.593
		c-1.111,0.918-2.33,1.908-3.618,2.904C240.181,304.539,238.814,302.682,237.282,300.377z"/>
	<path fill="#FFFACA" d="M245.557,283.646c2.231,4.751,4.936,9.248,7.736,13.695c-1.013,0.854-4.64,4.025-6.272,5.398
		C244.453,297.235,244.241,286.897,245.557,283.646z"/>
	<path fill="#8D3244" d="M252.403,291.511c1.666-1.021,5.664-3.554,7.064-4.463c0.285,1.259,0.653,2.899,1.163,4.028
		c-1.849,1.587-3.691,3.181-5.544,4.763C254.189,294.396,253.291,292.956,252.403,291.511z"/>
	<path fill="#EBA2AB" d="M237.202,269.325c-7.377,4.251-23.031,8.291-37.593,9.669c16.036-12.646,43.74-18.778,60.233-22.798
		C252.791,259.726,243.532,265.679,237.202,269.325z"/>
	<path fill="#E58692" d="M251.707,260.672c2.837-1.659,5.625-3.22,8.135-4.477c-16.493,4.02-44.197,10.152-60.233,22.798
		c1.783-0.17,3.579-0.401,5.374-0.653C209.813,273.31,241.699,261.047,251.707,260.672z"/>
	<path fill="#9DAE00" d="M218.371,299.362c-0.862,0.793-2.346,1.969-3.167,2.815c-0.1-0.695-0.165-1.381-0.22-2.062
		C215.882,299.925,217.447,299.476,218.371,299.362z"/>
	<path fill="#FFFACA" d="M220.615,294.116c-3.577-4.18-6.165-10.248-6.216-14.713c2.809-0.41,5.593-0.918,8.363-1.582
		C221.305,283.113,220.756,288.629,220.615,294.116z"/>
	<path fill="#FFFACA" d="M213.231,291.076c-0.279,3.664,0.17,9.45,0.662,12.465c-0.848,0.92-1.665,1.867-2.463,2.824
		c-1.493-0.031-3.635-1.315-4.474-1.944C206.312,300.165,211.203,292.316,213.231,291.076z"/>
	<path fill="#9DAE00" d="M196.86,304.763c-0.059-1.071,2.834-2.91,8.33-2.762c-0.112,0.606-0.19,1.217-0.204,1.81
		c-1.305-0.288-1.386,0.912-0.809,1.341c1.506,1.119,5.399,2.159,6.433,2.224c-1.143,1.414-2.237,2.843-3.284,4.269
		C204.002,311.11,196.938,306.112,196.86,304.763z"/>
	<path fill="#D46D79" d="M219.656,337.663c-1.953-2.946-5.038-6.374-8.612-6.69c-5.549-0.489-13.511,7.731-18.215,13.556
		c-0.058-3.325,7.198-16.94,10.986-23.435c2.986-5.122,6.55-9.862,10.481-14.293c4.369-4.921,9.655-10.411,14.68-12.571
		c-0.792,3.571-1.175,7.814-0.639,11.58C221.13,314.607,218.401,327.868,219.656,337.663z"/>
	<path fill="#DB8690" d="M271.857,270.039c-2.226,1.539-5.15,3.428-6.448,4.397c0.221,0.575,0.422,1.077,0.619,1.551
		C267.885,273.92,269.832,271.939,271.857,270.039z"/>
	<path fill="#DB8690" d="M258.951,280.58c0.044-0.036,0.092-0.062,0.136-0.094c0.023-0.491,0.044-0.982,0.097-1.478
		c-2.377,1.164-8.154,4.264-10.87,5.346c0.248,0.48,0.491,0.937,0.734,1.384C252.331,284.033,256.2,282.758,258.951,280.58z"/>
	<path fill="#DB8690" d="M235.076,292.976c2.633-1.139,5.144-2.324,7.613-3.625c0.033-0.578,0.073-1.155,0.131-1.71
		c-3.142,1.414-8.271,3.644-9.79,4.328c0.204,0.606,0.407,1.15,0.609,1.668C234.107,293.411,234.585,293.19,235.076,292.976z"/>
	<path fill="#DB8690" d="M216.253,308.381c4.053-4.497,7.692-8.52,12.273-11.732c0.128-0.828,0.277-1.641,0.449-2.419
		c-5.025,2.16-10.311,7.65-14.68,12.571c-3.931,4.431-7.494,9.171-10.481,14.293c-3.788,6.495-11.043,20.111-10.986,23.435
		c2.453-3.038,5.792-6.718,9.213-9.483C204.753,325.263,209.317,316.078,216.253,308.381z"/>
	<path fill="#E1CD0D" d="M384.083,341.452c5.371-3.594,15.135-8.679,18.059-5.499c1.852,2.012-0.556,6.296-2.982,8.61
		c-3.94,3.76-15.522,10.528-18.511,12.102C378.539,353.666,380.601,345.695,384.083,341.452z"/>
	<path fill="#E1CD0D" d="M374.558,371.571c1.665-5.345,4.275-9.98,8.005-13.729c10.93-6.824,33.612-17.111,31.483-4.933
		c-1.644,9.393-24.988,24.473-38.258,31.999C372.811,382.694,372.889,376.933,374.558,371.571z"/>
	<path fill="#D4831E" d="M301.45,463.096c1.359-3.055,2.885-5.926,4.877-8.646c1.842-2.514,4.198-4.522,6.441-6.646
		c2.675,0.644,5.262,1.474,7.638,2.985c1.03,0.653,1.9,1.509,2.584,2.491c-2.697,1.523-4.898,4.102-7.455,5.837
		C311.236,462.032,306.53,463.462,301.45,463.096z"/>
	<path fill="#D4831E" d="M330.949,468.885c-0.036-4.926,2.633-10.905,6.816-15.363c5.558-0.55,10.981,1.501,12.479,4.328
		C346.352,463.696,338.22,468.375,330.949,468.885z"/>
	<path fill="#D4831E" d="M376.834,465.69c-3.878-0.984-9.016-3.848-12.163-7.876c2.577-3.892,5.931-7.066,10.504-6.366
		C377.512,454.806,378.332,461.388,376.834,465.69z"/>
	<path fill="#9DAE00" d="M362.548,411.698c-2.318-2.619-5.619-3.008-9.02-2.45c-0.341,0.056-0.287,0.623,0.059,0.603
		c2.463-0.145,5.912,0.984,7.555,3.167c-0.622,0.862-1.085,1.531-1.202,2.112c-2.746-3.499-9.351-2.86-11.728-2.164
		c-0.404,0.118-0.327,0.765,0.104,0.736c3.75-0.249,8.074,0.401,10.909,3.52c-0.161,0.217-0.301,0.45-0.432,0.697
		c-4.099-1.892-6.936-1.345-8.741-0.728c-0.371,0.128-0.257,0.659,0.137,0.597c2.174-0.34,5.893,0.493,7.834,2.586
		c-1.094,7.028,5.778,19.613,9.525,23.251c2.955,0.31,7.307,1.133,9.838,2.541c3.336,1.856,6.035,4.684,2.243,9.287
		c-0.371-1.367-0.923-2.68-1.768-3.749c0.524-0.084,1.615-0.503,1.376-0.996c-1.51-3.1-7.274-2.241-10.105-0.711
		c-3.333,1.805-7.22,5.892-7.125,9.915c0.014,0.508,0.778,0.661,1.04,0.265c0.373-0.556,0.731-1.093,1.09-1.613
		c0.552,1.047,1.169,2.076,1.881,3.05c-2.985,2.054-11.918,2.918-15.924,1.141c0.714-0.779,1.328-1.604,1.753-2.475
		c0.157,0.273,0.315,0.533,0.475,0.818c0.697,1.244,2.422,0.341,2.396-0.857c-0.21-10.28-15.663-10.248-22.375-8.038
		c-0.408,0.132-0.402,0.789,0.048,0.856c0.884,0.132,1.775,0.223,2.668,0.293c-2.382,2.654-5.343,8.026-5.895,9.715
		c-4.12,0.829-10.423-0.433-11.804-1.259c2.393-1.417,5.404-3.071,6.889-5.27c0.963,1.079,0.583,3.491,1.479,3.052
		c4.544-2.218-0.192-8.829-2.254-10.515c-3.35-2.739-9.17-4.926-13.258-2.552c-0.306,0.176-0.211,0.806,0.553,0.831
		c-1.337,0.778-2.302,1.992-3.448,3.102c1.069-12.099,22.525-7.343,31.282-11.148c0.299-0.131,0.374-0.736-0.714-1.01
		c-1.202-0.306-2.556-0.38-3.964-0.502c0.854-11.918-3.823-24.431,3.331-34.382c8.152-11.341,24.33-9.653,34.641-4.992
		c0.022,4.042,0.926,7.759,2.644,11.135C368.992,408.911,364.489,410.376,362.548,411.698z"/>
	<path fill="#E1CD0D" d="M384.487,411.651c-10.747-0.72-9.553-20.399-6.572-24.944c7.418-4.064,18.418-12.926,23.518-15.833
		c5.1-2.908,11.45-5.555,17.802-6.942c7.706-1.683,11.308,3.482,7.458,10.202c-2.061,3.599-5.61,6.695-8.612,9.513
		C415.55,386.02,385.477,410.412,384.487,411.651z"/>
	<path fill="#E1CD0D" d="M391.258,425.612c-3.322-3.82-6.066-8.317-5.382-13.024c5.975-6.693,21.853-18.673,26.01-20.951
		c9.968-5.457,22.35-1.114,17.052,11.603c-2.946,7.072-8.551,13.285-13.865,18.652c-2.58,2.605-7.976,8.864-12.417,10.886
		C398.61,432.541,394.307,429.117,391.258,425.612z"/>
	<path fill="#CDBB00" d="M380.846,352.103c-0.344,0.196-0.687,0.408-1.038,0.597c-0.065,1.627,0.187,3.036,0.842,3.965
		c2.99-1.574,14.571-8.342,18.511-12.102c1.099-1.049,2.173-2.497,2.863-3.957C396.193,345.869,388.056,348.881,380.846,352.103z"/>
	<path fill="#CDBB00" d="M400.701,365.122c-4.888,3.153-9.951,6.134-15.046,8.935c-3.674,2.018-7.853,4.816-12.074,6.659
		c0.301,1.803,0.998,3.292,2.207,4.191c13.271-7.525,36.614-22.606,38.258-31.999c0.026-0.154,0.033-0.288,0.051-0.435
		C410.913,357.634,405.977,361.718,400.701,365.122z"/>
	<path fill="#CDBB00" d="M426.231,364.831c-3.756,8.712-11.745,16.868-18.681,21.914c-6.448,4.692-13.082,9.305-19.824,13.567
		c-3.224,2.039-6.598,4.346-10.167,6.049c1.331,2.938,3.532,5.063,6.928,5.29c0.99-1.239,31.063-25.631,33.595-28.005
		c3.002-2.818,6.551-5.914,8.612-9.513C429.021,370.071,428.612,366.589,426.231,364.831z"/>
	<path fill="#CDBB00" d="M418.093,412.594c-6.754,5.719-14.716,13.159-23.554,16.268c2.51,2.126,5.373,3.755,8.118,3.915
		c4.441-2.022,9.837-8.281,12.417-10.886c5.314-5.367,10.919-11.58,13.865-18.652c0.424-1.018,0.723-1.975,0.931-2.885
		C426.478,404.834,422.462,408.895,418.093,412.594z"/>
	<path fill="#D4831E" d="M443.266,486.93c0.586-2.915,4.804-9.648,9.207-13.07c3.549,0.494,7.329,5.056,7.94,8.316
		C455.657,485.82,447.605,487.485,443.266,486.93z"/>
	<path fill="#D4831E" d="M485.332,492.517c-2.651-0.968-6.11-6.771-6.991-10.675c3.817-1.083,9.627-1.328,13.961,0.064
		C490.513,485.747,487.472,491.302,485.332,492.517z"/>
	<path fill="#D4831E" d="M512.224,484.666c-2.874-1.211-7.067-5.745-8.629-8.718c1.072-2,4.617-3.989,7.868-3.649
		C512.618,474.671,513.535,480.543,512.224,484.666z"/>
	<path fill="#D4831E" d="M528.909,448.603c-0.48-3.309,2.661-7.998,7.37-10.108c2.865,0.415,5.145,1.983,5.565,4.955
		C539.551,446.024,533.005,448.801,528.909,448.603z"/>
	<path fill="#D4831E" d="M556.725,452.835c-1.696-3.549-1.364-7.514-0.094-11.235c2.547-1.097,7.405-1.953,10.203-0.756
		C566.06,444.849,562.053,450.634,556.725,452.835z"/>
	<path fill="#D4831E" d="M584.467,439.906c-0.779-1.504-6.16-8.225-8.659-8.978c2.086-2.65,6.07-5.187,9.318-4.593
		C586.513,430.484,586.708,435.839,584.467,439.906z"/>
	<path fill="#C07200" d="M320.406,450.789c-0.728-0.463-1.485-0.839-2.252-1.183c-4.668,4.17-8.919,8.864-13.297,13.439
		c3.791-0.335,7.359-1.677,10.679-3.928c2.558-1.735,4.759-4.315,7.455-5.837C322.306,452.298,321.436,451.442,320.406,450.789z"/>
	<path fill="#C07200" d="M345.89,454.572c-3.971,4.352-7.736,8.866-11.118,13.676c6.135-1.54,12.253-5.561,15.472-10.397
		C349.538,456.517,347.945,455.367,345.89,454.572z"/>
	<path fill="#C07200" d="M375.029,463.148c-1.792-2.919-3.965-7.142-7.008-9.305c-1.245,1.102-2.36,2.475-3.35,3.972
		c3.03,3.881,7.903,6.663,11.725,7.744C375.964,464.742,375.512,463.936,375.029,463.148z"/>
	<path fill="#C07200" d="M448.462,486.765c4.051-0.583,8.746-2.134,11.951-4.589c-0.257-1.372-1.088-2.968-2.215-4.402
		C454.502,480.339,451.143,483.33,448.462,486.765z"/>
	<path fill="#C07200" d="M487.391,481.031c-0.066,0.881-0.115,1.704-0.178,2.383c-0.24,2.628-0.432,5.261-0.508,7.898
		c1.933-2.165,4.163-6.331,5.597-9.407C490.794,481.42,489.107,481.148,487.391,481.031z"/>
	<path fill="#C07200" d="M505.865,473.731c-1.026,0.644-1.846,1.426-2.27,2.217c1.298,2.469,4.413,6.014,7.078,7.837
		C509.383,480.321,507.815,476.962,505.865,473.731z"/>
	<path fill="#C07200" d="M540.463,440.497c-1.339,1.083-2.654,2.196-3.912,3.381c-1.459,1.376-2.818,2.856-4.16,4.352
		c3.663-0.826,7.742-2.859,9.452-4.779C541.671,442.23,541.172,441.259,540.463,440.497z"/>
	<path fill="#C07200" d="M562.448,440.308c-0.201,0.536-0.413,1.068-0.608,1.605c-0.927,3.004-1.601,6.074-2.058,9.181
		c3.758-2.737,6.434-7.058,7.052-10.25C565.636,440.33,564.059,440.21,562.448,440.308z"/>
	<path fill="#C07200" d="M579.596,427.682c-1.487,0.875-2.838,2.039-3.788,3.245c2.076,0.627,6.133,5.364,7.896,7.812
		C582.788,435.002,581.345,431.352,579.596,427.682z"/>
	<path fill="#9DAE00" d="M568.261,400.528c-1.565-8.977-5.987-17.431-12.908-22.701c-12.122-9.232-36.553-8.994-43.327,7.011
		c-0.167,0.396,0.313,0.91,0.673,0.586c5.895-5.304,11.232-8.685,19.395-9.969c8.663-1.361,17.922,1.542,24.104,7.437
		c10.489,10.001,8.802,30.586,7.62,40.146c-0.125,1.01,1.479,1.078,1.863,0.249c0.661-1.417,1.186-2.904,1.641-4.422
		c5.208-0.951,10.467-0.736,15.327,1.239c4.911,1.995,10.384,5.507,5.547,9.372c-0.346-1.463-0.895-3.784-1.322-4.874
		c-2.531-1.113-7.979,0.613-9.973,2.092c-2.603,1.934-4.64,5.005-4.453,8.327c0.014,0.294,0.452,0.493,0.605,0.171
		c0.485-1.027,1.102-1.989,1.786-2.896c1.197,0.864,2.343,2.02,3.361,3.25c-1.623,1.842-6.165,4.6-9.132,5.914
		c0.062-0.494,0.317-1.316,0.242-2.507c-0.076-1.191-4.874-1.978-10.239-0.332c-3.266,1.002-5.755,2.567-7.885,5.164
		c-0.302,0.369,0.189,0.865,0.538,0.522c0.898-0.884,2.058-1.556,3.298-2.092c-1.093,1.972-1.822,3.998-2.023,6.073
		c-4.137,2.829-11.358,1.072-13.514,0.201c1.01-0.549,1.969-1.197,2.723-1.997c0.05,0.591,0.117,1.195,0.238,1.811
		c0.1,0.491,0.716,0.706,1.094,0.373c2.946-2.584,1.573-7.329-1.019-9.729c-2.466-2.283-7.5-3.934-11.433-2.765
		c-0.544,0.162-0.553,1.169,0.037,1.415c0.942,0.39,1.998,0.454,3.033,0.563c-1.357,0.926-2.672,1.831-3.9,2.865
		c-1.549-0.968-2.167-2.812-0.242-5.34c1.938-2.547,5.125-4.372,7.819-5.971c2.816-1.671,9.053-4.664,12.084-5.756
		c0.407,2.502,0.564,5.261,0.273,7.954c-0.097,0.909,1.331,1.104,1.721,0.306c5.022-10.333-0.641-19.049-9.335-23.865
		c-0.45-2.578,0.959-5.468,3.197-7.031c0.313-0.22,0.095-0.672-0.287-0.542c-2.993,1.016-4.607,3.467-5.378,6.355
		c-0.527-0.232-1.632-0.758-2.151-1.043c-0.667-3.343,0.717-6.191,3.591-8.665c0.253-0.218-0.185-0.633-0.452-0.461
		c-3.091,1.97-5.666,4.765-5.504,8.536c-0.349-0.098-0.7-0.192-1.052-0.277c-0.991-4.845,1.487-9.584,5.599-12.322
		c0.343-0.229,0.069-0.756-0.313-0.57c-4.873,2.369-7.53,7.354-7.636,12.297c-5.184-0.89-10.272-0.341-14.508,1.71
		c-0.374,0.182-0.153,0.733,0.213,0.733c1.899,0,3.777,0.005,5.638,0.064c-4.181,2.997-6.693,8.991-9.17,13.092
		c-4.932,8.163-12.014,14.791-19.766,18.542c-0.511-3.613-1.613-7.173-3.654-10.666c-7.471-12.789-23.284-21.114-37.858-18.644
		c-0.421,0.072-0.304,0.715,0.098,0.715c14.53,0.005,28.85,8.983,35.983,21.477c5.364,9.396,2.817,20.442,1.13,30.452
		c-1.964,0.401-3.77,1.005-5.268,1.867c-0.386,0.224-2.137,1.768-0.453,1.609c4.745-0.457,9.472-1.292,14.231-1.164
		c4.216,0.111,9.962,0.728,13.888,2.245c3.761,1.451,3.537,4.221,1.378,6.123c-0.301-1.362-1.091-2.524-2.241-2.725
		c-0.951-0.165-3.905-0.628-7.426,1.699c-2.408,1.591-3.953,4.07-2.98,6.857c0.153,0.443,0.701,0.351,0.835-0.044
		c0.084-0.243,0.2-0.469,0.299-0.708c0.069,0.206,1.058,2.086,1.539,2.77c-2.561,1.874-6.423,4.848-10.704,5.36
		c0.343-1.219,1.019-2.365,1.099-3.702c2.029,0.463,3.805,0.89,2.575-1.119c-1.783-2.915-9.859-3.527-12.669-3.398
		c-4.4,0.207-9.58,1.384-11.668,5.583c-0.184,0.368,0.245,0.779,0.603,0.55c1.002-0.647,2.121-1.141,3.29-1.546
		c0.397,1.814,0.839,3.574,1.445,5.237c-6.123,0.859-12.039,0.399-17.956-1.195c0.507-0.388,0.973-0.807,1.347-1.292
		c0.898,0.822,2.263,1.27,2.6,0.209c1.242-3.909-2.522-9.065-5.222-11.573c-2.701-2.514-7.907-4.949-11.383-2.701
		c-0.31,0.2-0.305,0.789,0.026,0.968c0.779,0.429,1.574,0.74,2.369,1.012c-1.465,1.012-4.204,4.046-5.722,6.171
		c-1.916-0.633-6.514-2.757-5.571-5.103c0.945-2.354,3.763-3.738,7.538-5.381c3.139-1.364,9.81-3.16,12.886-3.29
		c-0.231,1.317-0.334,2.625-0.109,3.919c0.086,0.482,0.818,0.768,1.206,0.463c3.7-2.921,5.661-17.222,4.307-24.721
		c1.241-2.902,4.57-3.979,7.589-3.875c0.41,0.014,0.365-0.628,0.065-0.8c-2.453-1.403-6.096-0.725-8.291,1.133
		c-0.058-0.274-0.092-0.553-0.159-0.826c1.777-3.074,6.293-4.425,10.529-4.007c0.427,0.044,0.461-0.561,0.087-0.719
		c-4.296-1.793-9.664-0.154-11.59,1.306c-0.178-0.547-0.349-1.094-0.549-1.633c1.149-1.657,4.586-3.234,7.303-3.835
		c0.413-0.092,0.263-0.641-0.153-0.633c-2.669,0.054-6.299,0.365-7.981,2.201c-4.665-10.439-15.002-16.725-26.524-13.258
		c-0.352,0.103-0.396,0.751,0.017,0.761c12.493,0.263,24.699,7.641,26.189,27.818c-13.155,3.506-45.495-5.203-57.296-13.787
		c4.569-1.95,10.459-8.592,13.969-12.493c6.082-6.759,13.492-14.551,14.661-24.185c0.848-6.98-5.656-11.636-12.158-10.951
		c-1.824,0.19-3.164,0.43-4.874,0.982c6.236-4.899,12.287-10.364,14.368-17.849c1.203-4.327-1.529-8.071-5.622-8.433
		c-5.992-0.524-11.355,1.599-17.155,4.453c4.738-4.261,10.509-11.107,8.774-17.509c-1.93-7.128-14.875-2.059-23.385,2.464
		c2.045-1.439,4.059-2.907,5.962-4.439c2.617-2.103,7.653-7.451,5.08-11.291c-2.071-3.091-7.041-1.288-9.785-0.321
		c-2.779,0.977-5.803,2.321-8.462,4.025c1.143-4.603,1.886-9.856,1.847-17.193c-0.037-7.337-4.662-23.168-9.987-34.503
		c-7.592-16.161-19.869-33.981-35.068-44.223c1.997-5.523,2.436-11.379,2.742-17.738c0.055-1.155-1.414-1.425-1.761-0.315
		c-3.108,9.946-4.595,19.367-11.597,27.471c-5.769,6.674-13.684,11.368-21.31,15.589c-13.999,7.748-29.163,13.69-41.195,24.515
		c-0.251,0.226,0.065,0.689,0.354,0.493c2.033-1.384,5.463-3.248,7.583-4.483c-5.6,5.384-10.652,11.813-15.995,17.295
		c-4.291,4.4-10.225,8.665-15.679,11.528c-6.794,3.569-14.37,4.536-20.659,0.58c0.408-1.027,0.832-2.048,1.283-3.053
		c7.605,8.593,39.594-23.842,44.978-28.386c13.653-11.524,27.933-22.151,37.769-37.41c4.745-7.362,8.249-15.299,10.741-23.659
		c2.34-7.845,2.926-12.244,1.663-19.127c6.068,2.162,11.639,6.453,17.425,11.031c0.678,0.536,1.442-0.541,0.92-1.139
		c-9.776-11.14-23-20.632-36.81-9.916c-0.351,0.273-0.123,0.966,0.351,0.764c5.605-2.397,10.57-2.661,15.197-1.599
		c1.049,11.773-7.624,22.272-12.806,26.984c-6.699,6.092-15.149,10.174-23.426,13.643c-19.093,8.007-39.918,10.139-59.475,16.686
		c-14.577,4.88-25.756,15.08-39.522,21.42c-6.741,3.105-14.273,4.355-14.748-5.328c-0.491-10.005,7.432-21.806,15.166-28.319
		c0.863,4.862,4.921,9.344,9.951,9.427c0.801,0.012,0.976-0.998,0.387-1.411c-3.538-2.48-6.815-4.614-7.541-9.201
		c-0.705-4.439,2.056-6.264,5.077-8.166c0.12,2.644,0.441,5.231,1.055,7.678c-0.873-0.422-1.59-0.979-2.058-1.74
		c-0.246-0.402-0.842-0.114-0.733,0.324c2.349,9.419,19.107,5.045,25.432,3.189c3.644-1.069,21.975-8.702,15.296-15.578
		c-0.589-0.606-1.485-0.006-1.489,0.765c-0.009,1.716-0.589,3.163-1.537,4.393c-2.137-3.169-4.394-6.032-6.519-9.003
		c6.193-0.846,14.694-2.617,16.952,4.452c1.805,5.641-4.126,11.581-7.404,15.333c-0.508,0.581,0.012,1.63,0.823,1.345
		c6.684-2.349,12.262-11.366,9.408-18.365c-3.211-7.87-13.788-5.667-20.544-3.828c-0.863-1.244-1.702-2.513-2.483-3.845
		c10.961-2.344,49.275-16.115,52.7-31.964c0.377,0.117,1.169,0.061,1.61-0.214c0.278-0.173,0.254-0.499-0.051-0.633
		c-0.493-0.218-2.963-1.601-2.196-4.391c0.58-2.107,3.183-3.37,5.215-3.842c0.482-0.112,0.394-0.905-0.081-0.949
		c-0.748-0.069-1.481-0.008-2.181,0.162c-2.567-2.117-4.168-7.688,0.12-10.453c8.724,6.163,26.09,3.791,30.596-6.676
		c3.571-0.931,3.772,3.65,3.3,6.218c-0.422,2.294-2.324,3.998-4.168,5.214c-3.333,2.193-7.62,3.03-11.478,3.791
		c-0.622,0.123-0.656,1.055,0.009,1.132c6.338,0.736,14.432-1.902,17.459-7.921c1.52-3.021,1.222-6.955-0.879-9.583
		c-1.074-1.342-2.391-1.813-3.619-1.579c1.584-6.643-4.589-13.988-11.793-15.335c6.25-10.348,16.092-22.124,28.884-22.623
		c5.354-0.207,9.879,4.152,14.778,5.769c5.07,1.674,11.023-0.034,15.925-1.475c7.13-2.095,13.528-5.85,21.105-6.296
		c8.107-0.475,14.505,4.699,16.832,12.181c4.821,15.494-11.093,27.912-15.857,41.039c-0.803-0.624-1.577-1.281-2.304-1.991
		c-0.351-0.341-0.926,0.094-0.768,0.528c2.707,7.434,16.611,10.956,23.97,9.561c-1.481,2.237-2.887,4.519-4.202,6.855
		c-11.684-7.516-24.172-10.778-28.722-6.632c-0.27,0.248,0.066,0.708,0.384,0.519c2.199-1.306,5.066-1.224,7.957-0.561
		c-9.444,9.517-16.544,22.436-17.26,35.895c-0.726,13.656,7.607,26.858,15.388,37.371c8.945,12.081,20.592,22.057,32.91,30.547
		c13.243,9.128,35.208,15.526,43.044,22.129c-0.823,2.082-1.796,3.987-2.767,6.207c-1.49-1.278-2.636-1.669-4.221-2.793
		c-0.521-0.37-1.196,0.281-0.798,0.801c3.387,4.439,7.806,8.083,12.187,11.499c0.578,0.452,1.306-0.39,0.854-0.934
		c-1.083-1.308-2.243-2.564-3.44-3.789c0.17-2.853,1.682-5.672,2.993-8.762c10.538,6.009,20.916,11.075,31.208,17.526
		c12.685,7.951,23.033,17.743,32.483,29.36c0.527,0.65,1.568-0.129,1.174-0.839c-4.19-7.529-9.826-13.994-16.31-19.686
		c5.805,2.502,12.206,3.973,18.042,5.959c11.949,4.064,21.424,9.692,28.696,20.171c0.43,0.619,1.581,0.352,1.334-0.497
		c-0.432-1.484-0.999-2.851-1.663-4.14c19.131,12.15,51.644,19.838,58.475-4.154c6.776-23.808-24.506-28.485-40.032-33.224
		c-10.18-3.108-24.224-7.526-27.792-18.796c-4.216-13.33,10.277-17.601,20.126-18.842c8.071-1.015,16.647-0.148,23.862-4.322
		c6.668-3.858,8.08-11.195,1.805-15.191c8.892,0.807,24.269,10.811,12.186,20.754c-6.193,5.095-15.85,2.439-22.567,7.204
		c-14.692,10.423,8.584,15.735,16.151,17.818c22.472,6.188,39.148,24.461,37.502,48.605
		C621.402,388.314,589.464,397.989,568.261,400.528z"/>
	<path fill="#7C9500" d="M426.195,178.476c2.276-2.653,4.474-5.499,5.089-9.193c-0.901-3.926-3.188-6.982-7.695-4.445
		C430.48,163.453,428.612,172.107,426.195,178.476z"/>
	<path fill="#7C9500" d="M386.761,220.235c0.148,2.681,1.412,4.625,3.268,5.582c1.579-0.32,3.562-1.662,6.034-4.54
		c-4.712,1.347-8.094-1.235-8.062-6.578c0.002-0.256,0.031-0.527,0.047-0.792C387.249,216.005,386.646,218.148,386.761,220.235z"/>
	<path fill="#7C9500" d="M250.836,138.501c1.557-0.268,3.127-0.432,4.678-0.397c1.061-1.927,2.301-3.761,3.579-5.426
		C256.133,134.332,253.173,136.007,250.836,138.501z"/>
	<path fill="#7C9500" d="M243.658,137.596c-1.378,2.651-2.631,5.309-3.683,7.837c-3.661,8.794-8.238,19.548-7.938,29.377
		C235.198,169.618,243.315,150.781,243.658,137.596z"/>
	<path fill="#7C9500" d="M265.733,159.965c-0.195,0.683-0.377,1.367-0.555,2.053c2.093,0.204,4.068,0.739,5.761,1.649
		c0.355-1.122,0.863-2.243,1.471-3.343C270.418,160.343,268.08,160.253,265.733,159.965z"/>
	<path fill="#7C9500" d="M244.927,157.265c-0.667,4.444,0.879,9.207,0.899,13.848c1.167-2.223,2.955-4.062,5.078-5.51
		C248.549,163.148,246.74,160.211,244.927,157.265z"/>
	<path fill="#7C9500" d="M205.193,309.131c-0.371,0.43-0.737,0.865-1.121,1.284c1.214,0.623,2.368,1.086,3.253,1.23
		c1.047-1.426,2.142-2.855,3.284-4.269c-0.41-0.025-1.267-0.206-2.246-0.482C207.3,307.627,206.25,308.387,205.193,309.131z"/>
	<path fill="#7C9500" d="M369.887,409.5c1.437-0.126,2.993-0.137,4.659,0.056c-1.718-3.376-2.622-7.094-2.644-11.135
		c-3.234-1.462-7.045-2.631-11.004-3.198C364.974,399.143,368.163,404.14,369.887,409.5z"/>
	<path fill="#7C9500" d="M359.941,415.13c0.117-0.581,0.58-1.25,1.202-2.112c-1.141-1.517-3.153-2.511-5.1-2.937
		c-0.098,0.033-0.198,0.056-0.295,0.092c-1.379,0.51-2.533,1.297-3.491,2.249C355.012,412.376,358.227,412.948,359.941,415.13z"/>
	<path fill="#7C9500" d="M349.348,420.665c0.377,4.692,2.831,8.924,6.977,11.327c1.568,0.907,3.194,1.398,4.855,1.713
		c-2.156-4.595-3.719-9.703-3.155-13.332c-1.941-2.093-5.66-2.926-7.834-2.586c-0.394,0.062-0.508-0.469-0.137-0.597
		c1.805-0.617,4.642-1.164,8.741,0.728c0.131-0.246,0.271-0.48,0.432-0.697c-2.134-2.347-5.111-3.295-8.052-3.515
		C349.807,415.656,349.14,418.089,349.348,420.665z"/>
	<path fill="#7C9500" d="M364.766,410.609c-1.643-0.39-3.348-0.778-5.005-0.893c1.022,0.424,1.969,1.058,2.787,1.983
		C363.092,411.329,363.848,410.948,364.766,410.609z"/>
	<path fill="#7C9500" d="M310.221,446.522c1.277-0.74,2.722-1.038,4.207-1.012c-0.214-0.815-0.391-1.635-0.528-2.447
		c-3.624,1.233-6.219,3.386-6.573,7.391c1.146-1.11,2.111-2.324,3.448-3.102C310.011,447.328,309.916,446.699,310.221,446.522z"/>
	<path fill="#7C9500" d="M377.389,446.166c-0.207-0.115-0.441-0.22-0.669-0.326c-0.145,0.971-0.411,1.931-0.773,2.857
		c1.46,0.198,2.703,0.8,3.294,2.011c0.238,0.493-0.853,0.912-1.376,0.996c0.845,1.069,1.397,2.382,1.768,3.749
		C383.424,450.85,380.724,448.022,377.389,446.166z"/>
	<path fill="#7C9500" d="M363.05,460.177c-0.262,0.396-1.026,0.243-1.04-0.265c-0.014-0.58,0.064-1.16,0.203-1.735
		c-2.497,0.433-5.077,0.602-7.628,0.697c0.075,0.437,0.129,0.887,0.137,1.367c0.026,1.199-1.699,2.101-2.396,0.857
		c-0.161-0.285-0.318-0.546-0.475-0.818c-0.426,0.871-1.04,1.696-1.753,2.475c4.006,1.777,12.939,0.913,15.924-1.141
		c-0.712-0.974-1.33-2.003-1.881-3.05C363.781,459.084,363.423,459.62,363.05,460.177z"/>
	<path fill="#7C9500" d="M327.055,458.517c-0.302,0.419-0.731,0.784-1.322,1.072c-0.583,0.285-0.626-0.633-0.849-1.607
		c-0.358-0.109-0.717-0.221-1.072-0.352c-0.114-0.042-0.217-0.098-0.329-0.143c-1.61,1.736-4.084,3.116-6.118,4.321
		c1.381,0.826,7.684,2.089,11.804,1.259c0.254-0.778,1.021-2.338,2.004-4.051C329.786,458.935,328.413,458.783,327.055,458.517z"/>
	<path fill="#7C9500" d="M389.882,186.692c-1.054,1.545-2.098,3.097-3.132,4.656c1.077,0.611,2.154,1.245,3.225,1.934
		c1.315-2.337,2.721-4.618,4.202-6.855C392.915,186.665,391.443,186.742,389.882,186.692z"/>
	<path fill="#7C9500" d="M307.465,155.58c-2.263-5.382-7.684-9.715-13.55-9.461c-0.814,1.211-1.584,2.421-2.304,3.613
		c7.204,1.347,13.377,8.691,11.793,15.335c1.228-0.234,2.545,0.237,3.619,1.579c0.556,0.695,0.977,1.486,1.28,2.322
		C309.549,164.656,309.42,160.23,307.465,155.58z"/>
	<path fill="#7C9500" d="M370.957,176.326c0.006,0.003,0.014,0.006,0.019,0.011c0.726,0.709,1.501,1.367,2.304,1.991
		c4.511-12.429,19.004-24.222,16.443-38.595c-0.748,2.799-1.956,5.557-3.367,8.116C381.027,157.514,373.793,165.492,370.957,176.326
		z"/>
	<path fill="#7C9500" d="M361.636,187.169c-0.005,0.003-0.008,0.002-0.012,0.003c-3.211,3.579-4.971,8.761-6.19,13.179
		c-1.52,5.504-2.651,11.349-2.538,17.121c1.972-11.614,8.437-22.539,16.697-30.864C366.702,185.945,363.836,185.863,361.636,187.169
		z"/>
	<path fill="#7C9500" d="M191.81,260.312c-4.505-0.667-8.037-4.832-8.835-9.327c-1.764,1.485-3.535,3.255-5.215,5.206
		C181.246,260.499,186.745,262.984,191.81,260.312z"/>
	<path fill="#7C9500" d="M240.076,234.429c2.001,4.907-0.15,10.797-3.912,14.694c5.421-2.82,8.401-9.235,6.467-15.458
		c-1.397-4.489-4.896-8.291-9.693-9.206c-2.907-0.555-5.733-0.309-8.529,0.248c-3.005,0.963-5.555,1.663-7.359,2.048
		c0.781,1.333,1.619,2.602,2.483,3.845C226.288,228.761,236.865,226.559,240.076,234.429z"/>
	<path fill="#7C9500" d="M289.833,242.78c-9.513,2.804-19.474,3.785-29.294,6.384c-8.122,2.151-15.891,5.39-23.572,8.762
		c-1.772,0.776-3.53,1.577-5.268,2.408c16.659-4.509,33.864-7.103,49.857-13.809C284.32,245.366,287.101,244.128,289.833,242.78z"/>
	<path fill="#7C9500" d="M325.013,256.568c-6.146,3.554-12.939,5.541-19.386,8.434c-6.221,2.793-12.799,6.383-17.917,10.942
		c-2.835,2.527-5.839,5.546-8.182,8.888c9.655-6.169,20.291-10.808,30.334-16.366c7.627-4.221,15.542-8.914,21.31-15.589
		c0.666-0.77,1.267-1.556,1.839-2.351C330.536,252.793,327.912,254.894,325.013,256.568z"/>
	<path fill="#7C9500" d="M225.554,315.341c-0.45,1.005-0.874,2.026-1.283,3.053c1.967,1.238,4.059,1.992,6.214,2.338
		c0.237-1.426,0.525-2.842,0.846-4.255C228.869,317.057,226.852,316.806,225.554,315.341z"/>
	<path fill="#7C9500" d="M220.935,248.441c3.47-0.843,6.687-2.293,9.106-4.759c3.158-3.22,5.306-8.676-0.951-9.146
		c-2.167-0.164-4.321-0.02-6.456,0.316c1.398,1.886,2.812,3.788,4.18,5.814c0.948-1.23,1.528-2.676,1.537-4.393
		c0.003-0.772,0.899-1.372,1.489-0.765C234.462,240.266,227.111,245.383,220.935,248.441z"/>
	<path fill="#7C9500" d="M291.595,184.245c2.478,1.852,6.313,1.755,9.176,0.692c3.473-1.288,4.586-3.49,5.332-6.116
		C302.616,182.695,296.696,184.505,291.595,184.245z"/>
	<path fill="#7C9500" d="M317.787,205.898c-4.431-1.016-9.178-0.798-14.491,1.327c3.97,3.153,8.939,4.77,13.939,6.004
		C317.771,210.872,318.011,208.417,317.787,205.898z"/>
	<path fill="#7C9500" d="M321.331,214.274c3.908,1.018,8.026,2.087,12.029,2.72c1.127-0.112,2.24-0.241,3.309-0.352
		c-5.27-4.135-10.409-7.904-15.964-9.884C321.215,209.539,321.417,211.915,321.331,214.274z"/>
	<path fill="#7C9500" d="M391.645,336.04c0.273-12.301-2.452-24.489-9.366-34.599c2.695,8.121,4.544,16.122,4.565,20.745
		c0.039,7.337-0.704,12.59-1.847,17.193C387.087,338.039,389.398,336.932,391.645,336.04z"/>
	<path fill="#7C9500" d="M392.203,351.406c4.227-2.246,9.547-4.626,14.069-5.58c0.31-0.949,0.5-1.909,0.452-2.874
		c-0.128-2.62-1.13-4.604-2.848-5.728c0.683,3.615-3.431,7.91-5.711,9.743C396.261,348.499,394.248,349.967,392.203,351.406z"/>
	<path fill="#7C9500" d="M403.625,434.926c2.497,1.817,5.92,3.636,9.882,5.35c4.525-5.36,8.439-11.238,11.399-17.574
		c2.413-5.164,6.386-11.922,5.671-17.835c-0.011-0.087-0.03-0.162-0.042-0.249c-2.804,6.796-8.261,12.613-12.94,17.816
		C414.083,426.334,408.193,432.976,403.625,434.926z"/>
	<path fill="#7C9500" d="M519.36,411.647c1.208-1.763,2.567-3.362,4.176-4.514c-1.632-0.051-3.283-0.059-4.944-0.062
		C519.043,408.535,519.282,410.102,519.36,411.647z"/>
	<path fill="#7C9500" d="M529.442,436.606c-1.139,2.053-0.536,3.576,0.817,4.419c0.432-0.363,0.881-0.709,1.336-1.046
		C530.732,438.974,530.01,437.828,529.442,436.606z"/>
	<path fill="#7C9500" d="M551.669,446.502c-2.318,0.211-4.425-0.068-6.612-0.517c-0.2,1.004-0.661,1.942-1.517,2.692
		c-0.379,0.334-0.995,0.119-1.094-0.373c-0.121-0.616-0.189-1.22-0.238-1.811c-0.754,0.8-1.713,1.448-2.723,1.997
		c2.156,0.871,9.377,2.628,13.514-0.201c0.067-0.689,0.217-1.372,0.4-2.051C552.827,446.353,552.248,446.449,551.669,446.502z"/>
	<path fill="#7C9500" d="M532.696,401.175c-2.323,0.681-4.597,1.763-6.718,3.103c2.023-0.12,4.107-0.015,6.215,0.348
		C532.218,403.465,532.395,402.304,532.696,401.175z"/>
	<path fill="#7C9500" d="M544.714,402.243c-1.594,1.634-2.508,3.972-2.135,6.109c4.221,2.338,7.714,5.602,9.63,9.519
		c0.317-4.854-0.952-9.863-4.439-13.29C546.791,403.619,545.767,402.854,544.714,402.243z"/>
	<path fill="#7C9500" d="M537.96,406.09c0.519,0.285,1.624,0.81,2.151,1.043c0.594-2.229,1.701-4.188,3.544-5.437
		c-1.529-0.719-3.113-1.118-4.721-1.245C537.921,402.162,537.55,404.031,537.96,406.09z"/>
	<path fill="#7C9500" d="M443.953,475.549c-1.328-1.124-2.584-2.327-3.845-3.524c-0.695,0.614-1.233,1.283-1.548,2.065
		c-0.943,2.346,3.655,4.47,5.571,5.103c0.486-0.68,1.102-1.453,1.755-2.221C445.22,476.542,444.573,476.074,443.953,475.549z"/>
	<path fill="#7C9500" d="M502.262,478.568c-0.134,0.394-0.683,0.486-0.835,0.044c-0.076-0.22-0.123-0.433-0.165-0.648
		c-1.718,0.84-3.526,1.513-5.384,2.057c0.508,0.337,0.926,0.716,1.192,1.149c1.23,2.009-0.546,1.582-2.575,1.119
		c-0.079,1.337-0.756,2.483-1.099,3.702c4.28-0.513,8.143-3.487,10.704-5.36c-0.48-0.684-1.47-2.564-1.539-2.77
		C502.462,478.099,502.347,478.325,502.262,478.568z"/>
	<path fill="#7C9500" d="M473.582,483.769c-0.079,0.05-0.168,0.086-0.246,0.136c-0.22,0.14-0.449,0.03-0.564-0.153
		c-2.827-0.089-5.68-0.347-8.506-0.778c0.084,0.807,0.031,1.598-0.204,2.343c-0.337,1.061-1.702,0.613-2.6-0.209
		c-0.374,0.485-0.84,0.904-1.347,1.292c5.917,1.595,11.834,2.054,17.956,1.195c-0.447-1.227-0.792-2.52-1.108-3.836
		C475.846,483.79,474.719,483.794,473.582,483.769z"/>
	<path fill="#7C9500" d="M514.366,467.571c-0.761,0.896-1.557,1.732-2.379,2.528c1.066,0.277,1.8,1.383,2.087,2.681
		C515.84,471.226,516.309,469.091,514.366,467.571z"/>
	<path fill="#7C9500" d="M590.455,289.962c0.56-0.327,1.108-0.68,1.623-1.104c0.293-0.242,0.558-0.483,0.818-0.725
		c-2.954-1.037-5.974-1.514-8.699-1.178c-2.071,0.256-4.268,0.779-6.391,1.552C581.99,287.625,586.543,288.098,590.455,289.962z"/>
	<path fill="#7C9500" d="M568.008,297.235c0.452-0.383,0.94-0.773,1.503-1.172c5.583-3.961,13.196-2.806,19.164-5.228
		C581.279,287.925,571.885,290.18,568.008,297.235z"/>
	<path fill="#7C9500" d="M509.283,354.467c-1.316-3.973-3.108-7.722-5.802-10.958c-2.188-0.705-4.355-1.468-6.442-2.369
		C501.617,345.162,505.76,349.576,509.283,354.467z"/>
	<path fill="#7C9500" d="M457.47,319.735c-2.068-1.119-4.142-2.251-6.221-3.41c-1.791,2.542-3.49,5.155-5.323,7.667
		c-0.001,0.003-0.003,0.003-0.005,0.005c0.758,0.789,1.493,1.596,2.21,2.413C450.74,323.6,453.947,321.32,457.47,319.735z"/>
	<path fill="#7C9500" d="M591.765,332.973c-2.963-4.087-6.854-7.469-11.74-9.695c-5.499-2.505-11.029-3.239-16.613-3.301
		c6.065,0.681,12.002,2.015,17.632,4.974C585.078,327.068,588.741,329.76,591.765,332.973z"/>
	<path fill="#7C9500" d="M578.283,325.354c-9.396-4.092-19.275-4.26-29.226-4.675c4.3,1.944,8.858,3.364,12.833,4.576
		c8.347,2.548,21.244,5.083,30.336,10.577C588.618,331.306,583.74,327.729,578.283,325.354z"/>
	<path fill="#7C9500" d="M594.461,393.877c5.728-9.418,13.233-17.498,22.682-23.555c1.738-1.114,3.518-2.173,5.331-3.18
		c0.206-0.909,0.36-1.844,0.486-2.796C610.552,371.158,600.01,380.967,594.461,393.877z"/>
	<path fill="#7C9500" d="M619.065,370.946c-9.231,5.917-16.63,13.391-22.378,22.338c11.616-4.929,21.741-12.573,25.239-24.068
		C620.961,369.772,620.004,370.344,619.065,370.946z"/>
	<path fill="#7C9500" d="M466.892,457.786c0.98-4.887-0.037-8.896-2.386-12.919c-0.036,0.073-0.086,0.136-0.119,0.212
		c1.101,6.098,0.009,16.692-2.425,22.011C465.017,465.679,466.311,460.677,466.892,457.786z"/>
	<path fill="#7C9500" d="M535.595,405.499c-0.084-1.953,0.577-3.64,1.652-5.089c-0.887,0.028-1.775,0.142-2.661,0.31
		c-0.321,1.45-0.358,2.971-0.044,4.502C534.896,405.307,535.246,405.401,535.595,405.499z"/>
	<path fill="#7C9500" d="M569.31,439.273c0.016,1.012-0.185,1.741-0.242,2.187c2.968-1.314,7.51-4.071,9.132-5.914
		c-0.352-0.422-0.722-0.832-1.101-1.227C574.55,436.028,571.885,437.583,569.31,439.273z"/>
	<path fill="#7C9500" d="M588.086,423.133c-0.294,0.806-0.594,1.613-0.895,2.418c0.357,1.188,0.74,2.806,1.005,3.926
		C591.108,427.149,590.278,424.95,588.086,423.133z"/>
	<path fill="#7C9500" d="M561.417,378.085c-3.113-1.796-6.402-2.407-9.792-2.608c1.336,0.697,2.587,1.481,3.728,2.351
		c6.921,5.27,11.343,13.724,12.908,22.701c2.82-0.34,5.831-0.807,8.934-1.418c-1.2-3.714-2.966-7.253-4.989-10.33
		C569.431,384.561,565.834,380.629,561.417,378.085z"/>
	<path fill="#7C9500" d="M473.748,412.627c7.098,3.342,13.293,8.786,17.199,15.473c2.04,3.493,3.142,7.053,3.654,10.666
		c1.889-0.913,3.739-2.003,5.529-3.241c-1.573-4.999-4.093-9.678-7.861-13.325C488.208,418.268,480.162,411.767,473.748,412.627z"/>
	<path fill="#7C9500" d="M439.978,421.454c4.049,2.517,6.682,7.622,8.001,12.028c1.392,4.648,2.43,10.775,0.955,15.83
		c4.712,0.371,8.885,0.228,11.986-0.6C459.641,431.385,450.457,423.502,439.978,421.454z"/>
	<path fill="#7C9500" d="M420.097,387.297c1.18-0.125,2.358-0.069,3.495,0.14c1.831-2.592,3.421-5.35,4.495-8.25
		c0.899-2.427,1.794-5.314,1.25-7.948c-2.282,7.069-8.107,12.32-14.114,17.04C416.933,387.727,418.273,387.487,420.097,387.297z"/>
	<path fill="#7C9500" d="M406.814,366.45c3.039-1.495,5.959-2.776,8.913-3.596c0.343-0.768,0.658-1.549,0.915-2.35
		c0.661-2.061,1.351-4.498,0.641-6.651c-0.282-0.853-0.754-1.811-1.387-2.65C415.977,356.911,410.997,362.688,406.814,366.45z"/>
	<path fill="#7C9500" d="M351.16,243.421c-1.286-3.884-2.561-7.872-4.35-11.558c-0.666-1.372-1.552-2.534-2.407-3.719
		c-0.316,5.434-0.875,10.503-2.614,15.316c4.271,2.877,8.3,6.369,12.071,10.238C353.187,250.223,352.276,246.788,351.16,243.421z"/>
	<path fill="#7C9500" d="M323.623,174.565c0.168,0.128,0.309,0.228,0.404,0.284c1.217,0.736,2.467,1.206,3.742,1.531
		C326.396,175.82,325.015,175.204,323.623,174.565z"/>
	<path fill="#7C9500" d="M362.258,166.005c1.532-5.136-1.831-13.868-6.991-16.722c-4.394-2.43-9.544-2.661-14.309-1.183
		c-9.937,3.086-16.148,9.263-18.923,19.331c-0.123,0.449-0.337,0.795-0.597,1.066c-0.329,1.211-0.435,2.36-0.368,3.453
		c0.143-0.067,0.305-0.092,0.485-0.033c4.912,1.579,9.318,4.288,14.465,5.137c0.117,0.019,0.212,0.061,0.29,0.117
		c3.105,0.254,6.243-0.358,9.411-2.52c2.891-1.972,7.706-7.574,11.539-4.978c3.205,2.168,3.279,8.077,1.557,11.093
		c-0.497,0.873-1.085,1.666-1.715,2.421c1.538-0.719,2.806-1.327,4.213-2.143C367.74,177.315,366.646,170.385,362.258,166.005z"/>
	<path fill="#D46D79" d="M292.299,255.756c-0.706,1.833-1.133,3.894-1.573,6.207c-1.708,1.411-5.875,4.735-8.459,6.506
		c-0.845-1.657-1.73-3.293-2.726-4.866C284.175,261.98,288.43,259.009,292.299,255.756z"/>
	<path fill="#FFFACA" d="M285.199,248.469c1.793-0.8,4.946-2.435,6.716-3.347c-0.369,2.74-1.995,7.606-3.393,9.652
		C287.497,253.897,285.723,249.83,285.199,248.469z"/>
	<path fill="#8D3244" d="M290.419,266.494c-2.14,2.025-4.159,3.563-6.4,5.485c-0.38-0.773-0.759-1.546-1.141-2.316
		c1.878-1.202,5.636-4.155,7.606-5.565C290.438,264.977,290.346,265.952,290.419,266.494z"/>
	<path fill="#FFFACA" d="M282.32,273.416c-1.973,1.662-3.967,3.29-5.97,4.896c-0.689-4.452-0.798-10.273,1.289-14.621
		C279.398,266.447,280.88,270.484,282.32,273.416z"/>
	<path fill="#D46D79" d="M303.841,245.254c-0.108,0.563-0.299,2.347-0.299,2.659c-1.344,1.468-5.245,5.932-6.501,7.161
		c-0.694-0.513-1.403-1.009-2.096-1.507c-0.025-0.017-0.053-0.022-0.078-0.034C295.691,252.793,301.625,247.342,303.841,245.254z"/>
	<path fill="#CE5765" d="M266.637,277.388c0.259,0.577,0.53,1.166,0.864,1.863c1.601-1.242,4.692-3.582,6.645-4.754
		c-0.048-0.608-0.073-1.245-0.089-1.889C271.445,273.968,268.906,275.535,266.637,277.388z"/>
	<path fill="#CE5765" d="M258.818,283.565c-2.775,1.598-5.691,2.968-8.696,4.104c0.46,0.801,0.934,1.602,1.446,2.452
		c0.926-0.706,6.278-4.025,7.633-4.824c-0.084-0.608-0.132-1.219-0.164-1.833C258.965,283.496,258.891,283.531,258.818,283.565z"/>
	<path fill="#CE5765" d="M242.661,292.298c-0.878,0.37-6.589,3.657-7.7,4.213c0.396,0.762,0.82,1.524,1.325,2.38
		c1.197-0.694,5.069-2.626,6.522-3.381C242.698,294.485,242.667,293.396,242.661,292.298z"/>
	<path fill="#CE5765" d="M228.101,301.496c-7.703,7.695-11.115,19.856-12.602,31.458c1.657,1.315,3.08,3.085,4.157,4.709
		c-1.255-9.795,1.474-23.056,8.68-31.854C228.14,304.416,228.071,302.96,228.101,301.496z"/>
	<path fill="#CE5765" d="M281.117,266.363c0.388,0.7,0.787,1.392,1.15,2.106c2.584-1.771,6.751-5.095,8.459-6.506
		c0.094-0.494,0.19-0.968,0.288-1.439C287.857,262.71,284.604,264.761,281.117,266.363z"/>
	<path fill="#CE5765" d="M296.034,254.349c0.337,0.242,0.673,0.479,1.007,0.725c0.985-0.963,3.593-3.911,5.321-5.848
		C300.347,251.049,298.267,252.792,296.034,254.349z"/>
	<path fill="#FFFACA" d="M298.916,241.123c1.439-0.96,3.979-2.746,5.324-3.812c-0.039,1.824-1.008,5.407-1.942,6.709
		C301.352,243.969,299.153,242.038,298.916,241.123z"/>
	<path fill="#8D3244" d="M303.595,251.604c-1.417,1.931-2.717,3.535-4.279,5.354c-0.592-0.57-0.656-0.672-1.312-1.171
		c1.068-1.08,3.546-3.725,5.608-6.44C303.54,250.274,303.565,250.94,303.595,251.604z"/>
	<path fill="#FFFACA" d="M297.981,258.495c-1.88,2.106-3.842,4.143-5.873,6.121c0.27-2.817,0.775-6.327,2.132-9.285
		C295.413,255.836,296.982,257.184,297.981,258.495z"/>
	<path fill="#FFFACA" d="M305.012,249.91c-0.27-2.034-0.182-6.009,0.377-8.186c1.196,0.062,3.071,0.416,3.976,1.224
		C308.086,245.593,306.826,247.904,305.012,249.91z"/>
	<path fill="#F2E8AA" d="M181.952,291.167c0.577-1.167,1.205-2.29,1.926-3.272c-1.981,0.843-4.701,1.729-6.924,2.14
		c0,0.422,0.084,0.968,0.206,1.554C178.707,291.122,180.4,290.875,181.952,291.167z"/>
	<path fill="#F2E8AA" d="M193.272,288.163c0.508-2.165,1.135-4.29,1.945-6.305c-2.79,1.771-6.592,4.099-9.153,5.139
		c0.19,0.762,0.421,1.487,0.664,2.202C188.776,288.268,191.033,287.989,193.272,288.163z"/>
	<path fill="#F2E8AA" d="M207.191,283.573c0.411-1.144,0.888-2.287,1.467-3.427c-3.555,0.411-7.162,0.784-10.822,1.25
		c-0.175,0.885-0.153,1.961,0.012,3.128C200.928,283.682,204.17,282.332,207.191,283.573z"/>
	<path fill="#F2E8AA" d="M266.473,282.268c-0.962,1.178-2.402,1.956-4.014,1.956c-0.377,0-0.744-0.048-1.1-0.128
		c0.081,2.02,0.26,4.028,0.464,5.953c1.966-1.679,3.95-3.331,5.961-4.947C267.346,284.174,266.906,283.227,266.473,282.268z"/>
	<path fill="#F2E8AA" d="M273.124,254.932c0.617,0,1.205,0.131,1.758,0.335c0.273-1.225,0.461-2.365,0.499-3.241
		c-1.644,0.547-4.718,1.46-6.383,1.953c0.137,0.6,0.355,1.434,0.62,2.358C270.551,255.476,271.779,254.932,273.124,254.932z"/>
	<path fill="#F2E8AA" d="M251.792,267.18c1.108-0.692,2.405-0.837,3.622-0.581c0.58-2.589,1.118-4.802,1.392-5.577
		c-1.95,0.987-5.817,3.174-7.307,4.126c0.034,1.164,0.162,2.327,0.366,3.477C250.465,268.092,251.109,267.607,251.792,267.18z"/>
	<path fill="#F2E8AA" d="M234.387,276.448c1.459-0.871,2.896-1.274,4.526-1.512c0.184-1.208,0.36-2.449,0.53-3.761
		c-2.665,1.42-6.685,3.259-8.682,4.009c0.117,1.119,0.365,2.143,0.676,3.13C232.486,277.787,233.382,277.047,234.387,276.448z"/>
	<path fill="#F2E8AA" d="M231.214,308.082c0.503,1.743,1.166,3.359,1.976,4.701c2.185-1.102,4.366-2.742,6.762-4.514
		c-0.787-1.046-1.553-2.096-2.294-3.158C235.681,306.462,233.502,307.31,231.214,308.082z"/>
	<path fill="#F2E8AA" d="M246.381,296.976c-0.304,0.175-0.622,0.315-0.946,0.422c0.366,1.976,0.885,3.839,1.585,5.34
		c1.632-1.373,5.259-4.543,6.272-5.398c-0.842-1.336-1.666-2.681-2.48-4.032C249.429,294.638,248.08,295.997,246.381,296.976z"/>
	<path fill="#F2E8AA" d="M221.983,281.126c0.228-1.108,0.477-2.212,0.778-3.304c-2.77,0.664-5.554,1.172-8.363,1.582
		c0.011,0.918,0.137,1.909,0.355,2.935C217.045,281.436,219.547,280.959,221.983,281.126z"/>
	<path fill="#F2E8AA" d="M210.151,302.206c-0.6,0.036-1.202,0.026-1.814-0.03c-0.444-0.012-0.871-0.025-1.283-0.031
		c-0.147,0.82-0.2,1.599-0.097,2.277c0.839,0.628,2.98,1.913,4.474,1.944c0.798-0.957,1.615-1.905,2.463-2.824
		c-0.078-0.471-0.151-1.033-0.223-1.626C212.54,302.142,211.336,302.206,210.151,302.206z"/>
	<path fill="#F2E8AA" d="M290.606,248.114c0.226,0,0.426,0.041,0.638,0.062c0.316-1.124,0.557-2.195,0.672-3.054
		c-1.771,0.912-4.924,2.547-6.716,3.347c0.19,0.497,0.55,1.356,0.977,2.288C286.933,249.247,288.399,248.114,290.606,248.114z"/>
	<path fill="#F2E8AA" d="M281.235,271.061c-0.798,1.348-2.215,2.324-4.266,2.324c-0.373,0-0.719-0.044-1.051-0.103
		c0.031,1.761,0.192,3.479,0.432,5.03c2.003-1.605,3.996-3.234,5.97-4.896C281.962,272.687,281.602,271.89,281.235,271.061z"/>
	<path fill="#F2E8AA" d="M300.097,242.668c0.003-0.003,0.005-0.003,0.008-0.005c1.186-1.54,2.489-2.856,3.998-4.061
		c0.075-0.477,0.129-0.924,0.137-1.292c-1.345,1.066-3.886,2.852-5.324,3.812C299.02,241.525,299.51,242.119,300.097,242.668z"/>
	<path fill="#F2E8AA" d="M296.715,257.104c-0.471,1.995-2.109,3.573-4.137,3.948c-0.217,1.244-0.365,2.456-0.471,3.563
		c2.031-1.978,3.993-4.015,5.873-6.121C297.619,258.02,297.179,257.544,296.715,257.104z"/>
	<path fill="#F2E8AA" d="M308.444,242.393c-0.016,0.396-0.109,0.797-0.304,1.169c-0.278,0.53-0.619,1.011-0.982,1.485
		c-0.212,0.276-0.426,0.552-0.641,0.825c-0.002,0.005-0.003,0.005-0.005,0.009c-0.162,0.214-0.32,0.43-0.469,0.653
		c-0.207,0.304-0.474,0.536-0.759,0.734c-0.129,0.148-0.273,0.287-0.411,0.429c0.014,0.84,0.059,1.613,0.139,2.212
		c1.814-2.006,3.074-4.316,4.353-6.963C309.119,242.727,308.8,242.548,308.444,242.393z"/>
	<path d="M290.892,153.346c-4.266-0.497-9.126,14.039-4.706,18.642c2.592,2.7,8.235,0.645,9.326-6.86
		C296.272,159.888,294.484,153.764,290.892,153.346z"/>
	<path fill="#FFFFFF" d="M291.372,164.538c-1.802-0.514-1.489-7.207,0.503-7.091C293.866,157.563,293.172,165.051,291.372,164.538z"
		/>
	<path d="M367.899,174.62c-2.277,2.067-4.841,3.809-7.582,5.258c2.366-4.689,1.11-13.735-4.558-13.321
		c1.969-9.156-5.265-17.32-16.103-18.221c-10.646-0.885-23.276,7.335-23.053,18.282c-2.536,0.379-4.11,2.957-4.286,5.37
		c-0.264,3.597,1.557,8.874,5.8,9.263c0.608,0.055,1.161-0.987,0.664-1.128c-3.961-1.122-5.493-8.423-2.156-10.944
		c4.784,6.411,13.822,9.123,21.711,8.981c6.155-0.112,13.509-3.412,17.445-8.161c3.258-1.104,4.901,9.27,0.306,12.177
		c-6.294,3.982-18.764,3.54-26.895,1.652c-0.33-0.076-0.588,0.418-0.249,0.573c13.852,6.447,30.151,3.094,39.686-9.02
		C368.987,174.923,368.354,174.206,367.899,174.62z"/>
	<path fill="#FFFFFF" d="M339.73,175.399c-7.633,0.851-15.338-2.598-21.289-7.243c1.245-11.293,9.647-17.434,20.129-17.319
		c7.514,0.083,16.695,4.896,14.532,18.316C349.089,172.109,345.817,174.719,339.73,175.399z"/>
	<path d="M342.527,208.855c-1.203-6.2-4.648-10.855-10.004-14.178c-6.833-4.241-14.083-2.935-21.268-0.821
		c-0.404,0.118-0.257,0.706,0.156,0.633c12.973-2.321,22.748,4.787,29.335,15.135C341.292,210.481,342.711,209.806,342.527,208.855z
		"/>
	<path d="M341.339,152.905c-4.963-0.185-7.876,7.963-7.563,12.713c0.265,4.015,2.413,8.336,6.442,7.92
		c3.057-0.315,5.46-3.121,6.441-9.468C347.198,160.576,344.902,153.038,341.339,152.905z"/>
	<path fill="#FFFFFF" d="M341.141,165.534c-2.402-0.51-1.041-8.465,0.75-8.464C344.475,157.073,343.542,166.042,341.141,165.534z"/>
	<path d="M304.293,137.137c-4.029-0.056-11.107,0.81-14.875,2.164c-5.276,1.894-12.674,9.131-9.346,8.283
		c1.833-0.467,13.876-2.869,22.826-2.333C305.162,145.386,305.958,137.162,304.293,137.137z"/>
	<path d="M337.656,137.292c-1.833,1.155,0.503,8.496,2.52,7.758c3.78-1.384,7.262-1.688,10.925,0.572
		c2.731,1.685,4.056,4.354,4.573,6.91c0.264,1.292,2.015,0.528,2.154-0.775C359.088,139.853,348.292,130.578,337.656,137.292z"/>
	<path d="M404.144,191.726c-2.199,3.382-5.879,12.39-3.033,13.023c2.845,0.633,10.381-9.985,7.496-14.477
		c1.245-2.334,3.167-5.462,5.12-5.964c1.953-0.503-0.697,3.265,0.457,3.036c1.152-0.231,4.148-5.35,1.629-6.126
		C413.293,180.444,406.677,187.831,404.144,191.726z"/>
	<path fill="#8D3244" d="M310.419,241.43c1.63-2.388,3.847-7.48,4.667-9.558c0.818-2.076-5.463,7.925-6.484,8.841
		C309.473,240.936,310.419,241.43,310.419,241.43z"/>
	<path fill="#F4E3B8" d="M202.145,209.265c-1.129,2.417-4.896,14.685-5.42,22.028c-0.524,7.343,4.896-5.421,5.77-9.092
		C203.369,218.53,205.816,201.398,202.145,209.265z"/>
	<path fill="#7C9500" d="M333.91,187.515c4.526,1.263,11.419,1.713,15.986,0.57c4.569-1.141,6.854-2.283,9.327-3.806
		c2.474-1.523-1.523,8.375-11.991,10.088C336.764,196.08,325.725,185.231,333.91,187.515z"/>
	<path fill="#7C9500" d="M276.432,194.937c3.755,1.138,14.084-0.57,20.745-2.284c6.662-1.713-5.357,6.525-11.609,7.232
		C275.479,201.027,270.15,193.034,276.432,194.937z"/>
	<path fill="#BBC232" d="M391.005,286.106c5.234,4.07,16.75,12.943,23.602,14.845c6.852,1.905,16.558,5.901,19.984,7.995
		s-13.894,2.856-26.646-2.474C395.194,301.142,384.155,280.778,391.005,286.106z"/>
	<path fill="#BBC232" d="M473.344,338.53c0.195-2.737,0.061-5.541-0.614-8.213c-2.77-1.604-5.136-2.728-6.733-3.1
		C459.743,325.757,465.795,332.351,473.344,338.53z"/>
	<path fill="#BBC232" d="M498.732,350.436c-3.108-3.34-8.068-7.572-13.283-11.514c0.343,2.008,0.464,4.112,0.332,6.344
		c-0.039,0.614-0.117,1.222-0.178,1.83C493.984,351.752,501.329,353.228,498.732,350.436z"/>
	<path fill="#BBC232" d="M481.984,344.917c0.854,0.558,1.711,1.082,2.562,1.577c0.028-0.408,0.056-0.818,0.07-1.228
		c0.084-2.419,0.012-4.879-0.407-7.271c-3.479-2.578-7.014-4.991-10.146-6.885c0.493,2.757,0.68,5.527,0.373,8.302
		C476.976,341.438,479.621,343.377,481.984,344.917z"/>
	<path fill="#BBC232" d="M545.188,381.032c0.86-0.742,1.735-1.334,2.631-1.8c-2.773-1.297-5.441-2.011-7.215-1.958
		c-5.214,0.151-2.798,3.239,1.746,6.411C543.328,382.641,544.388,381.721,545.188,381.032z"/>
	<path fill="#BBC232" d="M554.18,383.313c-1.567-1.348-3.328-2.522-5.105-3.459c-1.077,0.427-2.099,1.093-3.064,2.001
		c-0.65,0.609-1.668,1.507-2.628,2.53c1.909,1.253,4.092,2.488,6.201,3.527C550.861,386.148,552.423,384.606,554.18,383.313z"/>
	<path fill="#BBC232" d="M555.062,384.112c-1.674,1.208-3.158,2.662-4.389,4.319c4.955,2.305,9.171,3.322,8.012,0.642
		C557.899,387.256,556.608,385.591,555.062,384.112z"/>
	<path fill="#BBC232" d="M536.417,298.669c0.907-4.687,7.995-7.804,13.324-8.565C555.068,289.342,535.274,304.568,536.417,298.669z"
		/>
	<path fill="#BBC232" d="M591.422,317.51c5.725,1.146,15.416,6.85,20.555,16.938C617.115,344.537,581.904,315.607,591.422,317.51z"
		/>
	<path fill="#BBC232" d="M311.833,200.842c6.818-1.171,14.275,1.713,21.127,8.373c6.85,6.66-0.572-10.086-10.468-12.752
		C312.593,193.798,305.171,201.983,311.833,200.842z"/>
	<path fill="#BBC232" d="M366.457,127.565c5.865-2.305,15.416-1.333,17.889,5.9C386.822,140.698,350.468,133.845,366.457,127.565z"
		/>
	<path fill="#BBC232" d="M309.93,132.323c3.996-2.664,11.99-6.088,15.797-0.761C329.533,136.891,300.794,138.414,309.93,132.323z"/>
	<path fill="#BBC232" d="M242.363,219.493c7.43-2.527,18.842-9.326,23.79-14.656c4.949-5.328,4.759,7.044-4.757,13.514
		C254.357,223.137,232.847,222.727,242.363,219.493z"/>
	<path fill="#BBC232" d="M200.111,255.275c5.881-0.502,15.035-1.905,22.267-5.521c7.232-3.618-0.719,5.518-9.135,7.994
		C200.301,261.553,191.164,256.035,200.111,255.275z"/>
	<path fill="#BBC232" d="M183.932,271.641c5.415-5.413,28.93-11.419,22.269-6.47c-6.662,4.947-18.271,14.083-23.22,16.368
		C178.032,283.822,178.604,276.97,183.932,271.641z"/>
	<path fill="#BBC232" d="M330.484,235.671c4.402-8.236,10.534-15.143,9.516-8.947c-1.174,7.151-4.078,17.261-9.516,21.699
		C323.046,254.487,325.827,244.386,330.484,235.671z"/>
	<path fill="#BBC232" d="M250.358,307.042c5.56-4.484,15.035-11.23,11.799-6.472c-3.236,4.759-11.419,11.419-14.845,13.324
		C243.886,315.797,244.456,311.801,250.358,307.042z"/>
	<path fill="#BBC232" d="M277.954,178.191c3.463,1.027,11.611,1.334,16.94-1.521c5.329-2.856-0.192,5.519-9.517,5.9
		C276.051,182.949,272.817,176.669,277.954,178.191z"/>
	<path fill="#BBC232" d="M252.831,126.231c2.45-4.132,9.708-13.131,13.514-9.326C270.152,120.713,249.787,131.37,252.831,126.231z"
		/>
	<path fill="#BBC232" d="M406.806,178.572c3.044-4.187,10.278-12.181,14.084-13.704c3.806-1.521-2.095-2.093-7.995,3.236
		C406.996,173.433,403.76,182.759,406.806,178.572z"/>
	<path fill="#BBC232" d="M516.054,349.484c4.601-0.1,12.94,4.378,17.509,9.135C538.131,363.378,507.299,349.676,516.054,349.484z"/>
	<path fill="#BBC232" d="M489.398,437.806c-0.358-1.808-0.906-3.537-1.615-5.103c-2.779,0.736-5.423,2.059-7.937,3.822
		c0.742,1.847,1.621,3.691,2.545,5.345C484.213,440.085,486.702,438.784,489.398,437.806z"/>
	<path fill="#BBC232" d="M482.963,442.858c3.01,5.024,6.294,7.67,6.826,1.598c0.164-1.864,0.078-3.73-0.195-5.533
		C486.993,439.872,484.619,441.133,482.963,442.858z"/>
	<path fill="#BBC232" d="M487.268,431.635c-1.471-2.81-3.454-4.988-5.663-6.021c-5.033-2.354-4.527,3.496-2.187,9.798
		C481.906,433.701,484.526,432.398,487.268,431.635z"/>
	<path fill="#BBC232" d="M344.123,408.306c2.497-4.484,4.014-8.944,1.779-8.386c-3.158,0.789-6.194,2.597-8.177,5.671
		C340.016,406.183,342.174,407.089,344.123,408.306z"/>
	<path fill="#BBC232" d="M337.134,406.607c-1.018,1.947-1.654,4.324-1.699,7.207c-0.105,6.589,4.671,1.337,8.114-4.508
		C341.606,408.077,339.439,407.173,337.134,406.607z"/>
	<path fill="#BBC232" d="M489.967,466.532c-3.036,0.394-5.848,0.971-7.412,1.527c-4.551,1.621-1.034,2.522,4.291,2.703
		C487.693,469.219,488.742,467.802,489.967,466.532z"/>
	<path fill="#BBC232" d="M502.16,466.917c-1.534-1.037-5.926-1.043-10.291-0.602c-1.453,1.317-2.704,2.813-3.693,4.477
		C495.901,470.88,506.116,469.59,502.16,466.917z"/>
	<path fill="#BBC232" d="M464.997,363.567c0.1-1.962,0.048-4.266-0.365-6.462c-12.601-1.557-15.124,6.475-3.87,18.802
		C463.27,372.319,464.768,368.023,464.997,363.567z"/>
	<path fill="#BBC232" d="M475.573,360.021c-3.66-1.383-6.908-2.279-9.712-2.74c0.379,2.146,0.44,4.355,0.299,6.286
		c-0.348,4.796-1.917,9.388-4.598,13.199c2.418,2.53,6.102,5.839,10.248,9.159C475.939,377.874,477.842,368.296,475.573,360.021z"/>
	<path fill="#BBC232" d="M484.833,395.159c1.261-3.344,2.12-6.821,2.651-10.105c0.926-5.72,1.153-12.242-0.539-18.026
		c-2.455-2.46-5.155-4.419-8.035-5.66c-0.683-0.293-1.35-0.569-2.008-0.831c2.022,8.428,0.028,18.042-4.162,26.124
		C476.64,389.736,480.883,392.771,484.833,395.159z"/>
	<path fill="#BBC232" d="M485.809,395.738c2.567,1.503,4.983,2.697,7.064,3.417c2.287-6.713,3.089-13.826,1.945-20.812
		c-1.74-3.549-3.839-6.801-6.23-9.552c1.183,5.441,0.938,11.335,0.017,16.572C488.007,388.766,487.109,392.327,485.809,395.738z"/>
	<path fill="#BBC232" d="M499.787,395.226c-0.524-4.553-1.702-9.083-3.389-13.316c0.404,5.937-0.48,11.91-2.413,17.592
		C497.873,400.569,500.294,399.607,499.787,395.226z"/>
	<path fill="#EBDD5B" d="M393.987,358.546c-7.664,3.788-15.476,4.88-11.004,1.13c4.198-3.523,18.34-10.158,23.136-10.721
		C408.463,348.68,401.31,354.927,393.987,358.546z"/>
	<path fill="#EBDD5B" d="M397.371,383.375c-9.547,6.112-19.61,9.728-14.67,4.514c6.735-7.111,22.007-16.645,30.189-18.904
		C417.092,367.827,407.456,376.922,397.371,383.375z"/>
	<path fill="#EBDD5B" d="M405.554,406.793c-7.429,5.722-15.738,9.221-11.287,3.386c3.996-5.236,15.236-12.979,20.597-14.39
		C417.307,395.146,411.774,402.003,405.554,406.793z"/>
	<path fill="#ED8A42" d="M431.554,294.957c1.46-0.636,4.595-1.3,6.33-1.387c1.735-0.086-1.648,1.56-2.602,2.081
		C434.328,296.172,429.558,295.826,431.554,294.957z"/>
	<path fill="#ED8A42" d="M469.62,317.069c1.527-0.995,4.961-1.348,6.33-0.779C479.071,317.59,467.625,318.371,469.62,317.069z"/>
	<path fill="#ED8A42" d="M506.647,335.713c0.904-1.319,4.508-3.643,7.37-3.814C516.878,331.724,504.566,338.748,506.647,335.713z"/>
</g>
</svg>
