<svg width="400" height="450" xmlns="http://www.w3.org/2000/svg" xmlns:xlink="http://www.w3.org/1999/xlink">
 <g>
  <title>background</title>
 
 </g>
 <g>
  <title>Title1</title>
  </g>
 <style type="text/css">.st0{clip-path:url(#SVGID_2_);}
	.st1{fill:#7EA3A8;}
	.st2{fill:#9AC5CE;}
	.st3{fill:#688789;}
	.st4{fill:#3D3835;}
	.st5{fill:#524B57;}
	.st6{fill:#423A46;}
	.st7{fill:#FFF6D9;}
	.st8{fill:#E8E2D3;}
	.st9{fill:#92718B;}
	.st10{fill:#867087;}
	.st11{fill:#26849D;}
	.st12{fill:#226D80;}
	.st13{fill:#D36546;}
	.st14{fill:#AA4937;}
	.st15{fill:#EF202F;}
	.st16{fill:#51F26F;}
	.st17{fill:#3638A2;}
	.st18{fill:#E4E4E3;}
	.st19{fill:#EA883F;}
	.st20{fill:#002D3E;}
	.st21{fill:#FFFFFF;}
	.st22{fill:#562F16;}
	.st23{fill:#713E19;}
	.st24{fill:#BFBFBF;}
	.st25{fill:#31312F;}
	.st26{fill:#EBD097;}
	.st27{fill:#8E9E3B;}
	.st28{fill:#A2B743;}
	.st29{fill:#238396;}
	.st30{fill:#20727D;}
	.st31{fill:#BE5427;}
	.st32{fill:#F16923;}
	.st33{fill:#83A5B5;}
	.st34{fill:#B7D8E4;}
	.st35{fill:#2C5871;}
	.st36{fill:#39687D;}
	.st37{fill:#767676;}
	.st38{fill:#5E5F5E;}
	.st39{fill:#B13006;}
	.st40{fill:#E05732;}
	.st41{fill:#514947;}
	.st42{fill:#F0C9B0;}
	.st43{fill:#EDC4A6;}
	.st44{fill:#BD9071;}
	.st45{fill:#7A553A;}
	.st46{clip-path:url(#SVGID_4_);}
	.st47{fill:#770E0E;}
	.st48{clip-path:url(#SVGID_6_);}
	.st49{fill:#B23939;}
	.st50{clip-path:url(#SVGID_8_);}
	.st51{fill:#2A180C;}
	.st52{fill:#416B79;}
	.st53{fill:#545859;}
	.st54{fill:#FEFEFE;}
	.st55{fill:#C05140;}
	.st56{fill:#323136;}
	.st57{fill:#C14040;}
	.st58{fill:#246D96;}
	.st59{fill:#2D4B56;}
	.st60{fill:#3B616C;}
	.st61{opacity:0.83;}
	.st62{fill:#FE7E2A;}
	.st63{opacity:0.72;enable-background:new    ;}
	.st64{fill:#FEB27F;}
	.st65{font-family:'Impact';}
	.st66{font-size:12.7971px;}

	 #BRAZO_DERE{
    animation : point 3s ease-in-out infinite;
    transform : translateX(-10px)
    }
    @keyframes point{
    0%{
    transform : translateX(0)
    }
    20%{
    transform : translateX(-10px)
    }
    40%{
    transform : translateX(0)
    }
    60%{
    transform : translateX(-10px)
    }
    80%{
    transform : translateX(0)
    }
    100%{
    transform : translateX(-10px)
    }
    }
    #CONTRATO{
    animation : rot 3s ease-in-out infinite;
    }
    @keyframes rot{
    0%{
    transform : rotate(0deg)
    }
    20%{
    transform : rotate(3deg)
    }
    40%{
    transform : rotate(0deg)
    }
    60%{
    transform : rotate(3deg)
    }
    80%{
    transform : rotate(0deg)
    }
    100%{
    transform : rotate(3deg)
    }
    }
    #blue{
            animation-name: diamondFillMode;
              animation-direction: alternate;
            animation-duration: 5s;
            animation-iteration-count: infinite;
            animation-fill-mode: forwards;
        }
        @keyframes diamondFillMode {
            0%   { opacity:1; }
            30% { opacity:0; }
            100% { opacity:0; }
        }
            #green{
            animation-name: adiamondFillMode;
              animation-direction: alternate;
            animation-duration: 5s;
            animation-iteration-count: infinite;
            animation-fill-mode: forwards;
        }
        @keyframes adiamondFillMode {
            0%   { opacity:1; }
            30% { opacity:1; }
            31% { opacity:1; }
            60% { opacity:0; }
            100% { opacity:0; }

}

#second{
    animation-name: ab;
    animation-duration: 60s;
    animation-timing-function: linear;
    animation-iteration-count: infinite;
    transform-origin: 90% 90%;
    animation-direction: normal;
    transform-box: fill-box;
}
@keyframes ab{
    0%{transform: rotateZ(0deg);}
    100%{transform: rotateZ(360deg);}
}</style>
 <g>
  <title>Layer 1</title>
  <defs>
   <rect id="SVGID_1_" width="800" height="450"/>
  </defs>
  <clipPath id="SVGID_2_">
   <use xlink:href="#SVGID_1_" id="svg_3"/>
  </clipPath>
  <g id="Boss">
   <g id="VENDEDOR">
    <g id="svg_182">
     <g id="svg_183">
      <path class="st42" d="m226.06666,199.9l13.5,0c4.1,0 7.5,-3.4 7.5,-7.5l0,-16.7c0,-4.1 -3.4,-7.5 -7.5,-7.5l-13.5,0c-4.1,0 -7.5,3.4 -7.5,7.5l0,16.7c0.1,4.1 3.4,7.5 7.5,7.5z" id="svg_184"/>
      <ellipse class="st43" cx="166.86666" cy="111.5" rx="13.5" ry="15.5" id="svg_185"/>
      <ellipse class="st43" cx="296.16666" cy="111.5" rx="13.5" ry="15.5" id="svg_186"/>
      <path class="st44" d="m166.86666,104.7c-0.5,0.9 -0.9,1.8 -1.3,2.8c-0.4,0.9 -0.8,1.9 -1.2,2.8s-0.6,1.9 -0.8,2.9c-0.2,0.9 -0.2,1.9 0.2,2.7c0.5,0.8 1.4,1.2 2.3,1.2c0.9,0.2 1.8,-0.2 2.4,-0.9c0.5,-0.8 0.8,-1.8 0.6,-2.7c-0.1,-0.5 -0.2,-1 -0.4,-1.4c-0.2,-0.4 -0.5,-0.9 -1,-1c0.5,0.1 0.9,0.4 1.2,0.9c0.3,0.5 0.5,1 0.6,1.5c0.3,1.1 0.1,2.2 -0.5,3.2c-0.3,0.5 -0.8,0.9 -1.3,1.1c-0.5,0.2 -1.1,0.3 -1.7,0.2c-0.6,0 -1.1,-0.1 -1.6,-0.4c-0.5,-0.3 -1,-0.7 -1.3,-1.2c-0.4,-1.1 -0.5,-2.2 -0.2,-3.3c0.2,-1 0.6,-2 1,-3c0.8,-1.9 1.8,-3.7 3,-5.4z" id="svg_187"/>
      <path class="st44" d="m294.36666,104.7c1.2,1.7 2.3,3.5 3.1,5.4c0.4,1 0.8,2 1,3c0.3,1.1 0.2,2.2 -0.2,3.3c-0.3,0.5 -0.8,0.9 -1.3,1.2c-0.5,0.2 -1.1,0.3 -1.6,0.4c-0.6,0 -1.1,0 -1.7,-0.2c-0.6,-0.2 -1,-0.6 -1.3,-1.1c-0.6,-1 -0.7,-2.1 -0.5,-3.2c0.1,-0.5 0.3,-1 0.6,-1.5c0.3,-0.4 0.7,-0.9 1.2,-0.9c-0.5,0.1 -0.8,0.6 -1,1c-0.2,0.4 -0.3,0.9 -0.4,1.4c-0.2,0.9 0,1.9 0.6,2.7c0.6,0.7 1.5,1 2.4,0.9c0.9,0 1.8,-0.4 2.3,-1.2c0.4,-0.9 0.4,-1.8 0.2,-2.7c-0.2,-1 -0.5,-1.9 -0.8,-2.9c-0.3,-1 -0.7,-1.9 -1.2,-2.8c-0.5,-0.9 -0.9,-1.8 -1.4,-2.8z" id="svg_188"/>
      <path class="st43" d="m292.16666,107.1c-3.5,39.2 -27.5,71.3 -61.4,71.3c-33.9,0 -61.4,-31.9 -61.4,-71.3s34.8,-73.4 68.7,-73.4c33.9,0 58.1,28.2 54.1,73.4z" id="svg_189"/>
      <path class="st44" d="m230.76666,84.4c0.3,1.8 0.5,3.6 0.8,5.4l0.6,5.4l0.5,5.4l0.5,5.4l0.2,2.2l-2.4,-1l-0.4,-0.1l-0.5,-0.2c-0.3,-0.1 -0.7,-0.2 -1,-0.2c-0.7,-0.1 -1.3,-0.2 -2,-0.1c-1.4,0.1 -2.7,0.5 -4,1c-2.7,1.3 -5.1,3 -7.1,5.2c-0.5,0.5 -1,1.1 -1.5,1.7c-0.5,0.6 -0.9,1.2 -1.3,1.8c-0.8,1.2 -1.5,2.4 -1.9,3.8c-0.4,1.3 -0.6,2.6 -0.5,4c0.1,1.3 0.6,2.6 1.4,3.7c1.8,2.3 4.4,3.8 7.2,4.5c3,0.8 6,1.2 9.1,1.2c6.3,-0.1 12.6,-0.8 18.8,-2.1c-6.1,2.2 -12.4,3.5 -18.8,4c-3.3,0.3 -6.6,0 -9.8,-0.7c-1.7,-0.4 -3.3,-1 -4.8,-1.8c-1.6,-0.8 -3,-2 -4.1,-3.4c-1.2,-1.5 -1.9,-3.2 -2.1,-5.1c-0.2,-1.8 -0.1,-3.7 0.5,-5.4c1.1,-3.3 3,-6.2 5.4,-8.7c2.3,-2.5 5.1,-4.5 8.2,-5.9c1.6,-0.7 3.4,-1.1 5.2,-1.1c0.9,0 1.8,0.1 2.7,0.3c0.4,0.1 0.9,0.2 1.3,0.4c0.2,0.1 0.5,0.2 0.7,0.3c0.2,0.1 0.5,0.3 0.7,0.4l-2.2,1.3l0,-10.8l0.1,-5.4c0.3,-1.8 0.5,-3.6 0.5,-5.4z" id="svg_190"/>
      <polygon class="st45" points="187.16666412353516,76.09999561309814 187.9666519165039,82.89999866485596 224.06665802001953,88.09999561309814 220.9666519165039,77.80000019073486 " id="svg_191"/>
      <polygon class="st45" points="275.06665802001953,76.09999561309814 274.2666702270508,82.89999866485596 238.16666412353516,88.09999561309814 241.26667022705078,77.80000019073486 " id="svg_192"/>
      <path class="st45" d="m294.06666,94.8c0,0 24.4,-46.8 -18,-66c-42.4,-19.2 -73.9,-0.6 -94,11.4c-20.1,12 -15.2,29.7 -15.2,29.7s6.8,3.6 0,8.3c-5.3,3.6 0.1,12.2 2.8,16l3.6,31.1l-2.9,1.2c-0.6,0.3 -0.9,0.9 -0.8,1.6c1.4,7.9 11.1,53.6 47.7,52.4s40.1,-0.6 41.6,-0.7c1.1,-0.1 2.2,-0.3 3.3,-0.7c10.7,-6.5 28.2,-24.9 29.8,-51.5c0,-0.7 -0.4,-1.3 -1.1,-1.5l-0.3,0l3.5,-31.3l0,0zm-61.1,81.1c-12.5,0 -22.6,-6.3 -22.6,-14.1s10.1,-14.1 22.6,-14.1s22.6,6.3 22.6,14.1s-10.2,14.1 -22.6,14.1zm44.1,-51.4c-0.4,0 -0.7,0.1 -1,0.3l-25.2,24.6c-4.4,-5.9 -11.4,-9.4 -18.8,-9.3c-9.1,0 -17,5 -20.5,12l-30.3,-23.3l-5.3,-40.7l-0.7,0.4c7.9,-12.5 26,-35.9 50.3,-33.1c32.9,3.9 43.1,16.4 52.9,20.7c6.6,2.9 7.9,1 8.1,-0.6l1,13.3l-4.7,36.4l-5.8,-0.7z" id="svg_193"/>
      <g id="svg_194">
       <g id="svg_195">
        <defs transform="translate(-101.33333587646484,-14.666666984558105) translate(0,-1.3333333730697632) ">
         <path id="SVGID_3_" d="m319.1,170.6l30.1,0c0,0 -1.1,17 -15,17c-13.9,0 -15.1,-17 -15.1,-17z"/>
        </defs>
        <clipPath transform="translate(-101.33333587646484,-14.666666984558105) translate(0,-1.3333333730697632) " id="SVGID_4_">
         <use xlink:href="#SVGID_3_" id="svg_196"/>
        </clipPath>
        <g class="st46" id="svg_197">
         <path class="st47" d="m217.76666,154.6l30.1,0c0,0 -1.1,17 -15,17c-13.9,0 -15.1,-17 -15.1,-17z" id="svg_198"/>
        </g>
       </g>
       <g id="svg_199">
        <defs transform="translate(-101.33333587646484,-14.666666984558105) translate(0,-1.3333333730697632) ">
         <path id="SVGID_5_" d="m319.1,170.6l30.1,0c0,0 -1.1,17 -15,17c-13.9,0 -15.1,-17 -15.1,-17z"/>
        </defs>
        <clipPath transform="translate(-101.33333587646484,-14.666666984558105) translate(0,-1.3333333730697632) " id="SVGID_6_">
         <use xlink:href="#SVGID_5_" id="svg_200"/>
        </clipPath>
        <g class="st48" id="svg_201">
         <ellipse class="st49" cx="233.66666" cy="171.4" rx="13.6" ry="8.4" id="svg_202"/>
        </g>
       </g>
       <g id="svg_203">
        <defs transform="translate(-101.33333587646484,-14.666666984558105) translate(0,-1.3333333730697632) ">
         <path id="SVGID_7_" d="m319.1,170.6l30.1,0c0,0 -1.1,17 -15,17c-13.9,0 -15.1,-17 -15.1,-17z"/>
        </defs>
        <clipPath transform="translate(-101.33333587646484,-14.666666984558105) translate(0,-1.3333333730697632) " id="SVGID_8_">
         <use xlink:href="#SVGID_7_" id="svg_204"/>
        </clipPath>
        <g class="st50" id="svg_205">
         <path class="st21" d="m248.06666,158l-32.8,0c-2,0 -3.6,-1.6 -3.6,-3.6c0,0 0,0 0,0l0,-0.5c0,-2 1.6,-3.6 3.6,-3.6c0,0 0,0 0,0l32.8,0c2,0 3.6,1.6 3.6,3.6c0,0 0,0 0,0l0,0.5c0.1,2 -1.5,3.6 -3.6,3.6c0.1,0 0.1,0 0,0z" id="svg_206"/>
        </g>
       </g>
      </g>
      <ellipse class="st21" cx="205.56666" cy="98.4" rx="9.3" ry="10.3" id="svg_207"/>
      <g id="svg_208">
       <ellipse class="st51" cx="205.56666" cy="98.4" rx="4.9" ry="5.3" id="svg_209"/>
       <ellipse class="st21" cx="202.56666" cy="95.5" rx="1.9" ry="2.1" id="svg_210"/>
      </g>
      <ellipse class="st21" cx="256.56666" cy="98.4" rx="9.3" ry="10.3" id="svg_211"/>
      <g id="svg_212">
       <ellipse class="st51" cx="256.56666" cy="98.4" rx="4.9" ry="5.3" id="svg_213"/>
       <ellipse class="st21" cx="253.56666" cy="95.5" rx="1.9" ry="2.1" id="svg_214"/>
      </g>
     </g>
     <path class="st52" d="m263.06666,359.3l-59.3,0c-6.6,0 -12,-5.4 -12,-12l0,-143.1c0,-6.6 5.4,-12 12,-12l59.3,0c6.6,0 12,5.4 12,12l0,143.1c0,6.6 -5.3,12 -12,12z" id="svg_215"/>
     <path class="st53" d="m194.36666,486.5l-7.8,12.8c0,0 -27,13.5 -25.6,27c1.4,13.5 56,-6 56,-6l5.7,-34.7l-28.3,0.9z" id="svg_216"/>
     <path class="st53" d="m272.46666,486.5l7.8,12.8c0,0 27,13.5 25.6,27c-1.4,13.5 -56,-6 -56,-6l-5.7,-34.7l28.3,0.9z" id="svg_217"/>
     <rect x="191.76666" y="320.9" class="st52" width="36.6" height="169.2" id="svg_218"/>
     <rect x="238.36666" y="320.9" class="st52" width="36.6" height="169.2" id="svg_219"/>
     <g id="svg_220">
      <polygon class="st54" points="224.06665802001953,253.59999561309814 233.3666763305664,278.29997730255127 241.76667022705078,257.09999561309814 250.9666519165039,189.6000108718872 214.8666763305664,189.6000108718872 " id="svg_221"/>
      <polygon class="st55" points="229.56665802001953,189.6000108718872 223.8666763305664,200.00000476837158 229.16666412353516,212.3000078201294 222.26667022705078,249.20000171661377 232.76667022705078,286.8999834060669 244.4666519165039,248.70000171661377 236.16666412353516,212.00000476837158 240.16666412353516,200.89999866485596 236.26667022705078,189.70000171661377 " id="svg_222"/>
      <polygon class="st56" points="210.4666519165039,188.3000078201294 202.56665802001953,210.20000171661377 214.8666763305664,213.89999866485596 202.56665802001953,224.00000476837158 228.26667022705078,269.29997730255127 218.66666412353516,188.3000078201294 " id="svg_223"/>
      <polygon class="st56" points="255.9666519165039,188.3000078201294 263.8666763305664,210.20000171661377 251.56665802001953,213.89999866485596 263.8666763305664,224.00000476837158 238.16666412353516,269.29997730255127 247.76667022705078,188.3000078201294 " id="svg_224"/>
     </g>
    </g>
    <path class="st57" d="m276.86666,31.1c12.6,-8.2 28.5,-20.3 29.2,-29.5c0,0 15.3,13.5 -0.4,42.8c-7.7,14.4 -18.5,13.7 -27.5,9.2c-6.4,-3.2 -9,-11 -5.8,-17.4c1.1,-2.1 2.6,-3.8 4.5,-5.1z" id="svg_225"/>
    <path class="st57" d="m190.36666,31.1c-12.6,-8.2 -28.5,-20.3 -29.2,-29.5c0,0 -15.3,13.5 0.4,42.8c7.7,14.4 18.5,13.7 27.5,9.2c6.4,-3.2 9,-11 5.8,-17.4c-1,-2.1 -2.5,-3.8 -4.5,-5.1z" id="svg_226"/>
    <rect x="122.88285" y="169.86169" transform="matrix(0.8757,-0.4828,0.4828,0.8757,-86.8899,154.5939) " class="st52" width="105.8" height="26.6" id="svg_227"/>
    <polygon id="suite" class="st56" points="255.9666519165039,188.3000078201294 263.8666763305664,210.20000171661377 251.56665802001953,213.89999866485596 263.8666763305664,224.00000476837158 238.16666412353516,269.29997730255127 247.76667022705078,188.3000078201294 "/>
   </g>
   <g id="CONTRATO">
    <g id="svg_228">
     <rect x="70.86666" y="164.3" class="st58" width="113.6" height="145.4" id="svg_229"/>
     <rect x="77.76666" y="173.2" class="st54" width="99.7" height="127.6" id="svg_230"/>
     <path class="st59" d="m150.16666,159.9l-43.6,0c-1.5,0 -2.7,-1.2 -2.7,-2.7c0,0 0,0 0,0l0,-0.4c0,-1.5 1.2,-2.7 2.7,-2.7c0,0 0,0 0,0l43.7,0c1.5,0 2.7,1.2 2.7,2.7c0,0 0,0 0,0l0,0.4c0,1.5 -1.2,2.7 -2.8,2.7z" id="svg_231"/>
     <path class="st59" d="m150.16666,169.3l-43.6,0c-1.5,0 -2.7,-1.2 -2.7,-2.7c0,0 0,0 0,0l0,-3.2c0,-1.5 1.2,-2.7 2.7,-2.7c0,0 0,0 0,0l43.7,0c1.5,0 2.7,1.2 2.7,2.7c0,0 0,0 0,0l0,3.2c0,1.5 -1.2,2.7 -2.8,2.7z" id="svg_232"/>
     <path class="st59" d="m128.96666,140.2c-4.6,0 -8.4,3.8 -8.4,8.4s3.8,8.4 8.4,8.4s8.4,-3.8 8.4,-8.4c0,0 0,0 0,0c0.1,-4.6 -3.7,-8.4 -8.4,-8.4c0.1,0 0.1,0 0,0zm0,14c-3,0 -5.5,-2.4 -5.5,-5.5c0,0 0,0 0,0c0,-3 2.5,-5.5 5.5,-5.5s5.5,2.5 5.5,5.5s-2.4,5.5 -5.5,5.5l0,0z" id="svg_233"/>
     <rect x="103.86666" y="157.1" class="st60" width="49.1" height="7.3" id="svg_234"/>
     <rect x="86.96666" y="183.7" class="st59" width="81.8" height="5.6" id="svg_235"/>
     <rect x="86.96666" y="192.7" class="st59" width="81.8" height="5.6" id="svg_236"/>
     <rect x="86.96666" y="201.8" class="st59" width="81.8" height="5.6" id="svg_237"/>
     <rect x="86.96666" y="210.9" class="st59" width="81.8" height="5.6" id="svg_238"/>
     <rect x="86.96666" y="220" class="st59" width="81.8" height="5.6" id="svg_239"/>
     <rect x="86.96666" y="229" class="st59" width="81.8" height="5.6" id="svg_240"/>
     <rect x="128.36666" y="272.5" class="st59" width="40.9" height="5.6" id="svg_241"/>
     <rect x="89.56666" y="286.5" class="st59" width="25.1" height="1.4" id="svg_242"/>
     <rect x="128.36666" y="290.6" class="st59" width="40.9" height="5.6" id="svg_243"/>
     <g class="st61" id="svg_244">
      <path class="st62" d="m139.76666,259.4l-2.5,0c-0.1,0 -0.1,0 -0.1,-0.1c-0.3,-1.3 -1.3,-2.2 -2.6,-2.4c-1.7,-0.3 -3.4,0.7 -3.8,2.4c0,0.1 0,0.1 -0.1,0.1l0,0l-7.4,0c-0.1,0 -0.1,0 -0.1,-0.1c-0.3,-1.3 -1.3,-2.2 -2.6,-2.4c-1.7,-0.3 -3.4,0.7 -3.8,2.4c0,0.1 -0.1,0.1 -0.2,0.1l-3.8,0c-0.1,0 -0.1,0 -0.1,-0.1c0,-0.7 0.1,-1.4 0.1,-2.1c0.1,-0.9 0.3,-1.8 0.5,-2.7c0.5,-2.1 1.5,-4 2.9,-5.6c1.1,-1.3 2.4,-2.4 3.9,-3.2c1,-0.5 2,-0.9 3.1,-1c0.7,-0.1 1.4,-0.1 2.1,-0.1c1.4,0.1 2.7,0.5 3.9,1.1c1,0.5 1.9,1.1 2.7,1.9c1.2,1.1 2.2,2.5 3,3.9c0,0.1 0,0.1 0.1,0.1l0,0c0.5,-0.1 1,-0.1 1.5,-0.1c1.4,0.1 2.6,0.8 3.5,1.9c0.8,0.9 1.4,2 1.7,3.1c0.2,0.7 0.4,1.5 0.4,2.3l0,0.6c0,0.1 0,0.1 -0.1,0.1c-0.7,-0.1 -1.4,-0.1 -2.2,-0.1z" id="svg_245"/>
      <path class="st63" d="m122.46666,260.1c0,1.4 -1.1,2.5 -2.5,2.5s-2.5,-1.1 -2.5,-2.5c0,-1.4 1.1,-2.5 2.5,-2.5c1.4,0 2.5,1.1 2.5,2.5c0.1,0 0.1,0 0,0z" id="svg_246"/>
      <path class="st63" d="m133.96666,262.6c-1.4,0 -2.5,-1.1 -2.5,-2.5c0,-1.4 1.1,-2.5 2.5,-2.5s2.5,1.1 2.5,2.5c0,1.4 -1.1,2.4 -2.5,2.5z" id="svg_247"/>
      <path class="st64" d="m124.96666,251.6l-8.3,0c-0.1,0 -0.1,0 -0.1,-0.1c0,-0.7 0.2,-1.4 0.5,-2c0.2,-0.5 0.5,-1 0.8,-1.4c0.4,-0.5 0.9,-1 1.4,-1.4c0.8,-0.6 1.7,-1 2.6,-1.3c0.6,-0.2 1.1,-0.3 1.7,-0.4c0.3,0 0.6,-0.1 1,-0.1l1,0c0.6,0 1.3,0.1 1.9,0.2c0.9,0.2 1.7,0.5 2.5,0.9c0.5,0.3 1,0.6 1.4,0.9c0.5,0.4 1,0.9 1.3,1.5c0.4,0.5 0.7,1.2 0.8,1.8c0.1,0.3 0.1,0.5 0.1,0.8l0,0.4c0,0.1 0,0.1 -0.1,0.1l-0.1,0c-2.8,0.1 -5.6,0.1 -8.4,0.1z" id="svg_248"/>
      <path class="st54" d="m128.66666,251.1l-4.2,0c-0.1,0 -0.1,0 -0.1,-0.1l0,-5.4c0,-0.1 0,-0.1 0.1,-0.1c0.4,0 0.8,0 1.2,0.1l1.8,0.3c0.9,0.2 1.7,0.5 2.5,0.9c0.8,0.4 1.5,0.9 2.1,1.5c0.6,0.6 0.9,1.3 1.1,2.1c0.1,0.2 0.1,0.5 0.1,0.7c0,0.1 0,0.1 -0.1,0.1c-1.7,-0.1 -3.1,-0.1 -4.5,-0.1z" id="svg_249"/>
      <path class="st54" d="m120.56666,251.2l-3.1,0c-0.1,0 -0.1,0 -0.1,-0.1c0,-0.9 0.3,-1.8 0.8,-2.6c0.3,-0.5 0.7,-0.9 1.1,-1.3c0.6,-0.5 1.3,-0.9 2,-1.2c0.6,-0.2 1.1,-0.3 1.7,-0.4c0.3,0 0.5,-0.1 0.8,-0.1c0.1,0 0.1,0 0.1,0.1l0,5.6c0,0.1 0,0.1 -0.1,0.1c-1.1,-0.1 -2.2,-0.1 -3.2,-0.1z" id="svg_250"/>
     </g>
     <text x="-101.33334" y="-16" transform="matrix(1,0,0,1,191.5601,300.33) " class="st65 st66" id="svg_251">4.5%</text>
    </g>
    <path class="st43" d="m60.06666,233.5c0,0 -4.6,6.7 -4.3,10.3c0.2,2.5 0.6,5 1.1,7.5c0.2,1.3 0.3,2.7 0.2,4c0,3.4 3,8.1 4.6,8.8c1.6,0.7 21.5,1.8 22.1,0s3.8,-6.8 -5.6,-7.8s-7.1,-1 -7.1,-1s14.9,2.1 14.9,-0.8c0,-2.9 0.6,-5.6 -4.3,-6.2c-4.9,-0.6 -12,-0.6 -12,-0.6s16.3,0.4 16.3,-2.5c0,-2.9 1,-5.8 -5.7,-6s-11,0 -11,0s16,1.3 15.7,-2.6s-13.2,-5.2 -15.1,-5c-3.3,-0.5 -6.8,0.1 -9.8,1.9z" id="svg_252"/>
   </g>
   <g id="BRAZO_DERE">
    <path class="st43" d="m150.46666,248.9c0,0 -39.9,-2.4 -41.6,0.9s-0.4,5.9 3.1,6.1s29.2,3 29.2,3s-11.9,0.6 -11.9,3c0,2.4 0.4,6.4 3.5,6.4l10.6,0c0,0 -10.2,0.3 -9.7,2.6c0.5,2.3 -0.1,8.7 3.5,8.6c3.6,-0.1 9.8,0 9.8,0s-11.6,0.9 -9.8,3.4s1.4,4.2 6.7,5.2s37.2,-4.8 34.5,-19.5s-17.7,-19.2 -27.9,-19.7z" id="svg_253"/>
    <path class="st52" d="m311.56666,291.1c-19.1,0 -106.6,-1 -135.1,-1.3l0.3,-29.2c51.8,0.6 130.4,1.4 136.9,1.3c1.5,-0.2 2.9,-0.6 4.3,-1.1c-3.6,-5.2 -16.7,-18.6 -63,-42.5l13.4,-26c60.5,31.2 84.3,53.8 79.6,75.5c-3.9,17.9 -25,22.8 -32.8,23.2c-1.1,0.1 -2.3,0.1 -3.6,0.1z" id="svg_254"/>
   </g>
   <polygon id="suite-2" class="st56" points="255.9666519165039,188.3000078201294 263.8666763305664,210.20000171661377 251.56665802001953,213.89999866485596 263.8666763305664,224.00000476837158 238.16666412353516,269.29997730255127 247.76667022705078,188.3000078201294 "/>
  </g>
 </g>
</svg>