<?xml version="1.0" encoding="utf-8"?>
<!-- Generator: Adobe Illustrator 16.0.0, SVG Export Plug-In . SVG Version: 6.00 Build 0)  -->
<!DOCTYPE svg PUBLIC "-//W3C//DTD SVG 1.1//EN" "http://www.w3.org/Graphics/SVG/1.1/DTD/svg11.dtd">
<svg version="1.1" id="Layer_1_1_" xmlns="http://www.w3.org/2000/svg" xmlns:xlink="http://www.w3.org/1999/xlink" x="0px" y="0px"
	 width="812.611px" height="997.681px" viewBox="816.389 1002.319 812.611 997.681"
	 enable-background="new 816.389 1002.319 812.611 997.681" xml:space="preserve">
<linearGradient id="SVGID_1_" gradientUnits="userSpaceOnUse" x1="8273.04" y1="2593.6406" x2="6735.3252" y2="-348.0736" gradientTransform="matrix(1 0 0 -1 116 2079)">
	<stop  offset="0" style="stop-color:#37709B"/>
	<stop  offset="0.2728" style="stop-color:#5993B4"/>
	<stop  offset="0.8746" style="stop-color:#B0ECF2"/>
	<stop  offset="1" style="stop-color:#C3FFFF"/>
</linearGradient>
<rect x="5356" y="79" fill="url(#SVGID_1_)" width="4400" height="2000"/>
<linearGradient id="SVGID_2_" gradientUnits="userSpaceOnUse" x1="5406.543" y1="337.4712" x2="11061.1182" y2="314.3284" gradientTransform="matrix(1 0 0 -1 116 2079)">
	<stop  offset="0" style="stop-color:#76D5FF"/>
	<stop  offset="0.1357" style="stop-color:#62B8E6"/>
	<stop  offset="0.4301" style="stop-color:#3A7FB3"/>
	<stop  offset="0.6828" style="stop-color:#1D568F"/>
	<stop  offset="0.8809" style="stop-color:#0B3C78"/>
	<stop  offset="1" style="stop-color:#043370"/>
</linearGradient>
<rect x="5113" y="1517.715" fill="url(#SVGID_2_)" width="4400" height="462.285"/>
<polygon opacity="0.32" fill="#176396" enable-background="new    " points="4185,-442.285 4581.693,-218.571 5201.768,-222.429 
	5871.909,-442.285 "/>
<g>
	<g>
		<g>
			<g>
				<path fill="#24242D" d="M1352.253,1334.53L1352.253,1334.53c-2.072-0.001-3.753-1.685-3.751-3.761l0.028-55.631
					c0-2.075,1.682-3.757,3.754-3.756l0,0c2.073,0,3.752,1.686,3.751,3.76l-0.027,55.632
					C1356.007,1332.851,1354.325,1334.532,1352.253,1334.53z"/>
				<path fill="#24242D" d="M939.399,1334.324L939.399,1334.324c-2.072-0.001-3.752-1.686-3.752-3.762l0.028-55.63
					c0.002-2.076,1.682-3.758,3.756-3.757l0,0c2.072,0,3.751,1.685,3.751,3.759l-0.028,55.632
					C943.153,1332.644,941.473,1334.324,939.399,1334.324z"/>
				<path fill="#24242D" d="M939.362,1409.5L939.362,1409.5c-2.073,0-3.754-1.684-3.751-3.761l0.026-55.631
					c0.002-2.075,1.684-3.757,3.756-3.756l0,0c2.072,0.001,3.752,1.686,3.751,3.761l-0.028,55.631
					C943.116,1407.82,941.435,1409.502,939.362,1409.5z"/>
			</g>
			<g>
				<path fill="#102465" d="M1300.268,1089.429l-310.017-0.154c-28.604-0.015-51.805,23.197-51.819,51.845l-0.372,745
					c-0.014,28.646,23.163,51.882,51.768,51.897l310.018,0.154c28.604,0.015,51.805-23.197,51.818-51.846l0.374-744.997
					C1352.05,1112.68,1328.872,1089.444,1300.268,1089.429z M1339.527,1876.158c-0.014,27.974-21.853,50.64-48.778,50.626
					l-291.813-0.146c-26.927-0.014-48.742-22.701-48.729-50.675l0.364-727.467c0.014-27.974,21.853-50.639,48.778-50.626
					l291.813,0.146c26.926,0.014,48.742,22.701,48.729,50.675L1339.527,1876.158z"/>
				<path fill="#174C99" d="M1291.162,1098.017l-291.813-0.146c-26.926-0.013-48.764,22.654-48.778,50.626l-0.364,727.467
					c-0.013,27.974,21.803,50.661,48.729,50.675l291.813,0.146c26.926,0.012,48.765-22.652,48.778-50.626l0.363-727.467
					C1339.904,1120.718,1318.088,1098.03,1291.162,1098.017z"/>
			</g>
		</g>
		<g>
			<g>
				<path opacity="0.89" fill="#FFFFFF" enable-background="new    " d="M1091.044,1152.167c-0.002,0-0.002,0-0.002,0
					c-1.515,0-2.94-0.592-4.01-1.666c-1.071-1.073-1.661-2.501-1.658-4.019c0-1.517,0.591-2.943,1.66-4.015
					c1.074-1.072,2.494-1.661,4.009-1.661c0.001,0,0.003,0,0.003,0c1.517,0,2.941,0.591,4.011,1.666
					c1.073,1.072,1.661,2.498,1.66,4.017c0,1.519-0.593,2.943-1.661,4.016C1093.982,1151.577,1092.558,1152.167,1091.044,1152.167z
					 M1091.042,1143.146c-0.89,0-1.726,0.347-2.355,0.979c-0.63,0.629-0.977,1.469-0.977,2.359c0,0.893,0.344,1.733,0.975,2.364
					c0.63,0.632,1.468,0.98,2.357,0.98h0.002c0.891,0,1.728-0.349,2.358-0.978c0.629-0.632,0.977-1.47,0.977-2.362v-0.001
					c0-0.893-0.345-1.729-0.974-2.361c-0.632-0.631-1.469-0.979-2.359-0.979C1091.044,1143.146,1091.044,1143.146,1091.042,1143.146
					z"/>
				<path opacity="0.89" fill="#FFFFFF" enable-background="new    " d="M1071.191,1149.377c-1.593,0-2.887-1.298-2.887-2.89
					c0.005-1.598,1.3-2.892,2.887-2.892c1.593,0.002,2.887,1.299,2.887,2.892v0.002
					C1074.075,1148.081,1072.78,1149.377,1071.191,1149.377z M1071.189,1145.936c-0.301,0-0.548,0.248-0.548,0.553
					c0.003,0.601,1.098,0.61,1.1-0.004C1071.741,1146.183,1071.493,1145.936,1071.189,1145.936z"/>
				<path opacity="0.89" fill="#FFFFFF" enable-background="new    " d="M1179.762,1150.681h-0.003l-69.059-0.034
					c-1.115,0-2.163-0.436-2.95-1.224c-0.788-0.791-1.222-1.84-1.219-2.955c0-1.116,0.434-2.165,1.221-2.953
					c0.788-0.789,1.835-1.223,2.948-1.223h0.003l69.059,0.034c1.115,0.002,2.163,0.437,2.95,1.225
					c0.788,0.79,1.222,1.841,1.219,2.956c0,1.114-0.434,2.163-1.221,2.953C1181.923,1150.246,1180.875,1150.681,1179.762,1150.681z
					 M1110.7,1144.632c-0.488,0-0.948,0.191-1.297,0.538c-0.344,0.347-0.536,0.808-0.536,1.298c0,0.491,0.189,0.953,0.536,1.299
					c0.349,0.348,0.807,0.539,1.297,0.539l69.059,0.035c0.003,0,0.003,0,0.003,0c0.487,0,0.948-0.19,1.296-0.537
					c0.344-0.347,0.537-0.809,0.537-1.3s-0.19-0.953-0.537-1.298c-0.348-0.348-0.806-0.539-1.296-0.539l-69.059-0.035H1110.7z"/>
			</g>
		</g>
		<path fill="#FFFFFF" d="M1180.704,1901.793c-0.003,0-0.003,0-0.005,0l-71.689-0.037c-3.795-0.003-7.36-1.483-10.043-4.172
			c-2.681-2.688-4.154-6.26-4.151-10.058c0.002-3.802,1.479-7.374,4.164-10.059c2.68-2.684,6.246-4.161,10.034-4.161
			c0.004,0,0.006,0,0.009,0l71.69,0.037c3.793,0.002,7.36,1.483,10.041,4.172c2.682,2.688,4.156,6.261,4.153,10.058
			C1194.905,1895.416,1188.534,1901.793,1180.704,1901.793z M1109.015,1875.648c-3.166,0-6.144,1.233-8.385,3.476
			c-2.241,2.244-3.479,5.228-3.479,8.402l0,0c-0.002,3.174,1.23,6.16,3.472,8.403c2.237,2.247,5.221,3.483,8.387,3.487l71.69,0.036
			c0.001,0,0.001,0,0.004,0c6.543,0,11.866-5.328,11.867-11.879c0.002-3.174-1.229-6.16-3.471-8.405
			c-2.239-2.246-5.219-3.484-8.387-3.484l-71.689-0.036C1109.021,1875.648,1109.017,1875.648,1109.015,1875.648z"/>
	</g>
	<g>
		<rect x="962.954" y="1193.095" fill="#FFFFFF" width="364.813" height="646.518"/>
		<g>
			
				<linearGradient id="SVGID_3_" gradientUnits="userSpaceOnUse" x1="985.8643" y1="210.4233" x2="1084.7294" y2="1011.0862" gradientTransform="matrix(1 0 0 -1 116 2079)">
				<stop  offset="0" style="stop-color:#009AFF"/>
				<stop  offset="0.1509" style="stop-color:#099FFF"/>
				<stop  offset="0.4017" style="stop-color:#23ABFF"/>
				<stop  offset="0.7195" style="stop-color:#4CC0FF"/>
				<stop  offset="1" style="stop-color:#76D5FF"/>
			</linearGradient>
			<polygon opacity="0.81" fill="url(#SVGID_3_)" enable-background="new    " points="1327.601,1839.695 962.79,1839.513 
				963.114,1192.995 1327.927,1193.178 			"/>
		</g>
		<g>
			<g>
				<g>
					<path fill="#FFFFFF" d="M995.818,1518.291h300.01c0.429,0,0.774-0.348,0.774-0.775v-82.624c0-0.429-0.346-0.774-0.774-0.774
						h-300.01c-0.428,0-0.775,0.346-0.775,0.774v82.624C995.043,1517.944,995.391,1518.291,995.818,1518.291z"/>
					<g>
						<ellipse fill="#1A6CBE" cx="1033.1" cy="1473.192" rx="26.302" ry="26.342"/>
					</g>
					<g>
						<g>
							<path fill="#FF5252" d="M1271.267,1457.225c-0.299,0-0.599-0.115-0.825-0.344c-0.457-0.457-0.457-1.196,0-1.653l10-10.018
								c0.456-0.457,1.196-0.457,1.652,0c0.457,0.457,0.457,1.198,0,1.655l-10.001,10.016
								C1271.865,1457.109,1271.566,1457.225,1271.267,1457.225z"/>
							<path fill="#FF5252" d="M1281.268,1457.225c-0.3,0-0.598-0.115-0.825-0.344l-10.001-10.016c-0.456-0.457-0.456-1.198,0-1.655
								c0.457-0.457,1.196-0.457,1.651,0l10.002,10.018c0.457,0.457,0.457,1.196,0,1.653
								C1281.866,1457.109,1281.566,1457.225,1281.268,1457.225z"/>
						</g>
					</g>
					<g>
						<path fill="#708CF5" d="M1200.432,1495.209h-63.574c-0.647,0-1.17-0.523-1.17-1.17c0-0.648,0.522-1.172,1.17-1.172h63.574
							c0.645,0,1.168,0.523,1.168,1.172C1201.6,1494.686,1201.076,1495.209,1200.432,1495.209z"/>
						<path fill="#9DD3FF" d="M1217.141,1482.573h-41.729c-0.646,0-1.17-0.522-1.17-1.169c0-0.648,0.523-1.171,1.17-1.171h41.729
							c0.646,0,1.17,0.523,1.17,1.171C1218.311,1482.051,1217.787,1482.573,1217.141,1482.573z"/>
					</g>
				</g>
				<g>
					<path fill="#FFFFFF" d="M995.818,1813.91h300.01c0.429,0,0.774-0.348,0.774-0.775v-128.371c0-0.429-0.346-0.776-0.774-0.776
						h-300.01c-0.428,0-0.775,0.348-0.775,0.776v128.371C995.043,1813.563,995.391,1813.91,995.818,1813.91z"/>
					<g>
						<g>
							<path fill="#FF5252" d="M1271.267,1709.437c-0.299,0-0.599-0.115-0.825-0.344c-0.457-0.457-0.457-1.197,0-1.654l10-10.016
								c0.456-0.457,1.196-0.457,1.652,0c0.457,0.457,0.457,1.197,0,1.654l-10.001,10.016
								C1271.865,1709.321,1271.566,1709.437,1271.267,1709.437z"/>
							<path fill="#FF5252" d="M1281.268,1709.437c-0.3,0-0.598-0.115-0.825-0.344l-10.001-10.016c-0.456-0.457-0.456-1.197,0-1.654
								c0.457-0.457,1.196-0.457,1.651,0l10.002,10.016c0.457,0.457,0.457,1.197,0,1.654
								C1281.866,1709.321,1281.566,1709.437,1281.268,1709.437z"/>
						</g>
					</g>
					<g>
						<path fill="#708CF5" d="M1150.715,1711.404h-63.573c-0.646,0-1.168-0.524-1.168-1.171s0.521-1.171,1.168-1.171h63.573
							c0.645,0,1.168,0.524,1.168,1.171S1151.359,1711.404,1150.715,1711.404z"/>
						<path opacity="0.81" fill="#76D5FF" enable-background="new    " d="M1256.657,1774.326h-109.665
							c-1.114,0-2.016-0.903-2.016-2.019c0-1.116,0.903-2.02,2.016-2.02h109.665c1.115,0,2.016,0.903,2.016,2.02
							C1258.673,1773.423,1257.772,1774.326,1256.657,1774.326z"/>
						<path fill="#708CF5" d="M1150.715,1735.066h-63.573c-0.646,0-1.168-0.523-1.168-1.171c0-0.645,0.521-1.169,1.168-1.169h63.573
							c0.645,0,1.168,0.524,1.168,1.169C1151.883,1734.543,1151.359,1735.066,1150.715,1735.066z"/>
						<path fill="#708CF5" d="M1150.715,1770.792h-63.573c-0.646,0-1.168-0.523-1.168-1.169c0-0.647,0.521-1.171,1.168-1.171h63.573
							c0.645,0,1.168,0.523,1.168,1.171C1151.883,1770.269,1151.359,1770.792,1150.715,1770.792z"/>
						<path opacity="0.81" fill="#76D5FF" enable-background="new    " d="M1253.905,1795.975h-71.986
							c-1.113,0-2.015-0.902-2.015-2.018c0-1.117,0.901-2.02,2.015-2.02h71.986c1.113,0,2.016,0.902,2.016,2.02
							C1255.921,1795.072,1255.019,1795.975,1253.905,1795.975z"/>
						<path fill="#9DD3FF" d="M1112.615,1751.927h-25.657c-0.645,0-1.168-0.523-1.168-1.169c0-0.647,0.522-1.171,1.168-1.171h25.657
							c0.646,0,1.168,0.523,1.168,1.171C1113.783,1751.403,1113.261,1751.927,1112.615,1751.927z"/>
					</g>
				</g>
				<g>
					<path fill="#FFFFFF" d="M995.818,1420.649h300.01c0.429,0,0.774-0.347,0.774-0.774v-210.771c0-0.429-0.346-0.775-0.774-0.775
						h-300.01c-0.428,0-0.775,0.347-0.775,0.775v210.771C995.043,1420.303,995.391,1420.649,995.818,1420.649z"/>
					<g>
						<path fill="#FF5252" d="M1271.267,1231.437c-0.299,0-0.599-0.116-0.825-0.345c-0.457-0.457-0.457-1.196,0-1.653l10-10.016
							c0.456-0.457,1.196-0.457,1.652,0c0.457,0.457,0.457,1.196,0,1.653l-10.001,10.016
							C1271.865,1231.32,1271.566,1231.437,1271.267,1231.437z"/>
						<path fill="#FF5252" d="M1281.268,1231.437c-0.3,0-0.598-0.116-0.825-0.345l-10.001-10.016c-0.456-0.457-0.456-1.196,0-1.653
							c0.457-0.457,1.196-0.457,1.651,0l10.002,10.016c0.457,0.457,0.457,1.196,0,1.653
							C1281.866,1231.32,1281.566,1231.437,1281.268,1231.437z"/>
					</g>
					<g opacity="0.81">
						<g>
							<g opacity="0.62">
								<rect x="1024.668" y="1298.623" fill="#76D5FF" width="247.732" height="93.112"/>
							</g>
						</g>
					</g>
					<g opacity="0.81">
						<g>
							<g opacity="0.62">
								<rect x="1088.284" y="1229.689" fill="#76D5FF" width="152.262" height="26.269"/>
							</g>
						</g>
					</g>
					<g>
						<g>
							<ellipse fill="#1A6CBE" cx="1035.094" cy="1249.743" rx="29.538" ry="29.583"/>
						</g>
					</g>
				</g>
				<g>
					<path fill="#FFFFFF" d="M995.818,1670.309h300.01c0.429,0,0.774-0.348,0.774-0.774v-133.65c0-0.429-0.346-0.775-0.774-0.775
						h-300.01c-0.428,0-0.775,0.347-0.775,0.775v133.65C995.043,1669.961,995.391,1670.309,995.818,1670.309z"/>
					<g>
						<path fill="#708CF5" d="M1271.267,1562.898c-0.299,0-0.599-0.114-0.825-0.343c-0.457-0.457-0.457-1.198,0-1.655l10-10.018
							c0.456-0.456,1.196-0.456,1.652,0c0.457,0.457,0.457,1.198,0,1.655l-10.001,10.018
							C1271.865,1562.784,1271.566,1562.898,1271.267,1562.898z"/>
						<path fill="#708CF5" d="M1281.268,1562.898c-0.3,0-0.598-0.114-0.825-0.343l-10.001-10.018c-0.456-0.457-0.456-1.198,0-1.655
							c0.457-0.456,1.196-0.456,1.651,0l10.002,10.018c0.457,0.457,0.457,1.198,0,1.655
							C1281.866,1562.784,1281.566,1562.898,1281.268,1562.898z"/>
					</g>
					<g>
						<g>
							<path fill="#9DD3FF" d="M1261.471,1594.818h-58.196c-0.646,0-1.169-0.523-1.169-1.171c0-0.646,0.523-1.169,1.169-1.169
								h58.196c0.646,0,1.168,0.523,1.168,1.169C1262.639,1594.295,1262.115,1594.818,1261.471,1594.818z"/>
							<path fill="#708CF5" d="M1261.458,1635.553h-111.951c-0.646,0-1.168-0.523-1.168-1.171c0-0.646,0.521-1.17,1.168-1.17
								h111.951c0.646,0,1.17,0.523,1.17,1.17C1262.628,1635.029,1262.104,1635.553,1261.458,1635.553z"/>
							<path fill="#708CF5" d="M1261.471,1615.896h-88.656c-0.646,0-1.169-0.522-1.169-1.169c0-0.647,0.523-1.171,1.169-1.171
								h88.656c0.646,0,1.168,0.523,1.168,1.171C1262.639,1615.373,1262.115,1615.896,1261.471,1615.896z"/>
							<path fill="#9DD3FF" d="M1147.105,1615.896h-58.196c-0.646,0-1.17-0.522-1.17-1.169c0-0.647,0.523-1.171,1.17-1.171h58.196
								c0.646,0,1.169,0.523,1.169,1.171C1148.274,1615.373,1147.752,1615.896,1147.105,1615.896z"/>
							<path fill="#9DD3FF" d="M1124.688,1635.553h-35.779c-0.646,0-1.17-0.523-1.17-1.171c0-0.646,0.523-1.17,1.17-1.17h35.779
								c0.646,0,1.169,0.523,1.169,1.17C1125.857,1635.029,1125.334,1635.553,1124.688,1635.553z"/>
						</g>
					</g>
				</g>
			</g>
		</g>
	</g>
	<rect x="1014.239" y="1621.356" opacity="0.62" fill="#76D5FF" enable-background="new    " width="257.593" height="34.467"/>
	<rect x="1071.405" y="1456.566" opacity="0.62" fill="#76D5FF" enable-background="new    " width="195.02" height="34.466"/>
	<path opacity="0.81" fill="#76D5FF" enable-background="new    " d="M1182.747,1591.823h-109.666c-1.113,0-2.016-0.902-2.016-2.018
		c0-1.117,0.902-2.02,2.016-2.02h109.666c1.113,0,2.016,0.902,2.016,2.02C1184.763,1590.921,1183.86,1591.823,1182.747,1591.823z"/>
	<path opacity="0.81" fill="#76D5FF" enable-background="new    " d="M1182.747,1566.149h-109.666c-1.113,0-2.016-0.902-2.016-2.02
		c0-1.115,0.902-2.02,2.016-2.02h109.666c1.113,0,2.016,0.904,2.016,2.02S1183.86,1566.149,1182.747,1566.149z"/>
	<g>
		<ellipse fill="#1A6CBE" cx="1033.1" cy="1578.333" rx="26.302" ry="26.342"/>
	</g>
	<path fill="#FFFFFF" d="M1028.058,1591.536l-12.053-10.061c-1.042-0.872-1.182-2.429-0.312-3.473
		c0.875-1.04,2.429-1.18,3.467-0.313l8.59,7.171l19.304-19.414c0.961-0.974,2.521-0.964,3.481-0.011
		c0.967,0.962,0.967,2.523,0.01,3.486L1028.058,1591.536z"/>
	<g>
		<ellipse fill="#1A6CBE" cx="1033.1" cy="1721.422" rx="26.302" ry="26.342"/>
	</g>
	<path fill="#FFFFFF" d="M1028.058,1734.625l-12.053-10.062c-1.042-0.872-1.182-2.427-0.312-3.473
		c0.875-1.04,2.429-1.179,3.467-0.313l8.59,7.173l19.304-19.416c0.961-0.973,2.521-0.963,3.481-0.01
		c0.967,0.964,0.967,2.524,0.01,3.487L1028.058,1734.625z"/>
</g>
<g>
	<g>
		<path opacity="0.35" fill="#FFFFFF" enable-background="new    " d="M7433.176-1206H7229.49c-1.293,0-2.34-1.048-2.34-2.34
			v-70.409c0-1.292,1.048-2.34,2.34-2.34h203.686c1.293,0,2.34,1.047,2.34,2.34v70.409
			C7435.516-1207.048,7434.468-1206,7433.176-1206z"/>
		<g>
			<path fill="#1A6CBE" d="M7381.131-1281.089h-203.686c-1.293,0-2.34-1.048-2.34-2.34v-70.409c0-1.292,1.047-2.34,2.34-2.34
				h203.686c1.293,0,2.341,1.047,2.341,2.34v70.409C7383.473-1282.137,7382.424-1281.089,7381.131-1281.089z"/>
			<path fill="#FFFFFF" d="M7238.535-1308.101c-5.271,0-9.561-4.295-9.561-9.573c0-5.278,4.287-9.573,9.561-9.573
				s9.559,4.295,9.559,9.573C7248.094-1312.396,7243.809-1308.101,7238.535-1308.101z M7238.535-1322.269
				c-2.529,0-4.588,2.061-4.588,4.595c0,2.533,2.059,4.595,4.588,4.595s4.588-2.062,4.588-4.595
				C7243.123-1320.208,7241.064-1322.269,7238.535-1322.269z"/>
			<path fill="#FFFFFF" d="M7324.258-1308.101c-5.268,0-9.555-4.295-9.555-9.573c0-5.278,4.287-9.573,9.555-9.573
				c5.271,0,9.561,4.295,9.561,9.573C7333.818-1312.396,7329.529-1308.101,7324.258-1308.101z M7324.258-1322.269
				c-2.529,0-4.583,2.061-4.583,4.595c0,2.533,2.054,4.595,4.583,4.595s4.588-2.062,4.588-4.595
				C7328.846-1320.208,7326.787-1322.269,7324.258-1322.269z"/>
			<path fill="#FFFFFF" d="M7282.107-1308.101c-5.272,0-9.56-4.295-9.56-9.573c0-5.278,4.286-9.573,9.56-9.573
				c5.268,0,9.555,4.295,9.555,9.573C7291.662-1312.396,7287.375-1308.101,7282.107-1308.101z M7282.107-1322.269
				c-2.529,0-4.588,2.061-4.588,4.595c0,2.533,2.059,4.595,4.588,4.595c2.528,0,4.582-2.062,4.582-4.595
				C7286.689-1320.208,7284.637-1322.269,7282.107-1322.269z"/>
			<path fill="#FFFFFF" d="M7289.566-1236.101c-5.273,0-9.561-4.295-9.561-9.573c0-5.278,4.286-9.573,9.561-9.573
				c5.271,0,9.559,4.295,9.559,9.573C7299.125-1240.396,7294.838-1236.101,7289.566-1236.101z"/>
			<path fill="#FFFFFF" d="M7375.289-1236.101c-5.268,0-9.555-4.295-9.555-9.573c0-5.278,4.287-9.573,9.555-9.573
				c5.271,0,9.559,4.295,9.559,9.573C7384.848-1240.396,7380.561-1236.101,7375.289-1236.101z"/>
			<path fill="#FFFFFF" d="M7333.139-1236.101c-5.271,0-9.56-4.295-9.56-9.573c0-5.278,4.287-9.573,9.56-9.573
				c5.269,0,9.556,4.295,9.556,9.573C7342.694-1240.396,7338.406-1236.101,7333.139-1236.101z"/>
		</g>
	</g>
</g>
<g>
	<path fill="#1A6CBE" d="M5882.217-1109.063c-20.229,30.812-59.26,41.708-91.945,27.626l-6.985,15.928
		c46.515,20.459,100.78-0.718,121.209-47.301l-16.405-7.216C5886.436-1116.28,5884.537-1112.598,5882.217-1109.063z"/>
	<path fill="#FFFFFF" d="M5745.221-1203.146c-3.528,4.997-6.611,10.423-9.166,16.246l0,0l0,0
		C5738.607-1192.723,5741.691-1198.148,5745.221-1203.146z"/>
	<path fill="#FFFFFF" d="M5860.818-1212.795c30.979,20.403,41.785,59.895,27.271,92.77l16.405,7.216
		c20.43-46.583-0.717-100.931-47.229-121.391l-6.905,15.748C5853.928-1216.841,5857.441-1215.019,5860.818-1212.795z"/>
	<path fill="#102465" d="M5736.055-1186.9L5736.055-1186.9c-20.429,46.583,0.717,100.932,47.23,121.391l6.984-15.928
		c-3.979-1.714-7.885-3.729-11.631-6.196c-34.512-22.728-44.092-69.169-21.398-103.732c20.475-31.182,60.195-41.95,93.118-27.088
		l6.905-15.748c-34.885-15.345-74.131-7.268-100.192,17.38c-4.343,4.108-8.321,8.677-11.851,13.674
		C5741.691-1198.148,5738.607-1192.723,5736.055-1186.9z"/>
</g>
<g>
	<path opacity="0.35" fill="#FFFFFF" enable-background="new    " d="M6631.479-1260h-287.69c-2.449,0-4.435-1.984-4.435-4.433
		v-75.024c0-2.448,1.984-4.433,4.435-4.433h287.69c2.447,0,4.434,1.984,4.434,4.433v75.024
		C6635.911-1261.984,6633.926-1260,6631.479-1260z"/>
	<g>
		<g>
			<ellipse fill="#1A6CBE" cx="6378.539" cy="-1301.945" rx="20.945" ry="20.977"/>
			<path fill="#FFFFFF" d="M6375.898-1296.173l-6.199-5.175c-0.537-0.449-0.607-1.249-0.16-1.786
				c0.451-0.538,1.248-0.609,1.783-0.161l4.418,3.688l9.93-9.988c0.494-0.5,1.296-0.495,1.791-0.005
				c0.496,0.496,0.496,1.298,0.004,1.793L6375.898-1296.173z"/>
		</g>
		<path fill="#FFFFFF" d="M6554.566-1314.448h-64.465c-0.701,0-1.267-0.567-1.267-1.268c0-0.701,0.565-1.269,1.267-1.269h64.465
			c0.699,0,1.266,0.567,1.266,1.269S6555.266-1314.448,6554.566-1314.448z"/>
		<path fill="#FFFFFF" d="M6475.563-1314.448h-67.192c-0.699,0-1.267-0.567-1.267-1.268c0-0.701,0.566-1.269,1.267-1.269h67.192
			c0.699,0,1.267,0.567,1.267,1.269S6476.262-1314.448,6475.563-1314.448z"/>
		<path fill="#FFFFFF" d="M6554.566-1299.406h-39.433c-0.7,0-1.267-0.567-1.267-1.268c0-0.701,0.565-1.269,1.267-1.269h39.433
			c0.699,0,1.266,0.567,1.266,1.269S6555.266-1299.406,6554.566-1299.406z"/>
		<path fill="#FFFFFF" d="M6495.509-1299.406h-87.14c-0.699,0-1.267-0.567-1.267-1.268c0-0.701,0.565-1.269,1.267-1.269h87.14
			c0.7,0,1.267,0.567,1.267,1.269S6496.209-1299.406,6495.509-1299.406z"/>
		<path fill="#FFFFFF" d="M6469.514-1284.361h-62.623c-0.699,0-1.267-0.567-1.267-1.269s0.565-1.268,1.267-1.268h62.623
			c0.701,0,1.269,0.567,1.269,1.268C6470.782-1284.929,6470.214-1284.361,6469.514-1284.361z"/>
	</g>
	<rect x="6578.615" y="-1320.093" fill="#1A6CBE" width="21.124" height="11.393"/>
	<rect x="6578.615" y="-1297.307" fill="#1A6CBE" width="21.124" height="11.393"/>
</g>
<g>
	<path opacity="0.35" fill="#FFFFFF" enable-background="new    " d="M6694.385-1395H6454.83c-2.447,0-4.432-1.984-4.432-4.433
		v-61.407c0-2.448,1.983-4.433,4.432-4.433h239.555c2.447,0,4.434,1.984,4.434,4.433v61.407
		C6698.816-1396.984,6696.832-1395,6694.385-1395z"/>
	<g>
		<g>
			<ellipse fill="#1A6CBE" cx="6483.223" cy="-1430.136" rx="17.545" ry="17.571"/>
			<path fill="#FFFFFF" d="M6481.012-1425.301l-5.192-4.334c-0.449-0.376-0.51-1.046-0.135-1.497c0.377-0.45,1.047-0.51,1.494-0.135
				l3.7,3.09l8.316-8.367c0.414-0.419,1.086-0.415,1.5-0.004c0.418,0.415,0.418,1.087,0.006,1.502L6481.012-1425.301z"/>
		</g>
		<path fill="#FFFFFF" d="M6630.676-1440.609h-54c-0.586,0-1.061-0.476-1.061-1.063s0.475-1.063,1.061-1.063h54
			c0.587,0,1.063,0.475,1.063,1.063C6631.736-1441.085,6631.264-1440.609,6630.676-1440.609z"/>
		<path fill="#FFFFFF" d="M6564.496-1440.609h-56.285c-0.587,0-1.061-0.476-1.061-1.063s0.474-1.063,1.061-1.063h56.285
			c0.587,0,1.063,0.475,1.063,1.063C6565.559-1441.085,6565.083-1440.609,6564.496-1440.609z"/>
		<path fill="#FFFFFF" d="M6630.676-1428.009h-33.029c-0.588,0-1.063-0.475-1.063-1.063c0-0.587,0.475-1.063,1.063-1.063h33.029
			c0.587,0,1.063,0.476,1.063,1.063C6631.736-1428.484,6631.264-1428.009,6630.676-1428.009z"/>
		<path fill="#FFFFFF" d="M6581.205-1428.009h-72.994c-0.587,0-1.061-0.475-1.061-1.063c0-0.587,0.474-1.063,1.061-1.063h72.994
			c0.587,0,1.063,0.476,1.063,1.063C6582.268-1428.484,6581.792-1428.009,6581.205-1428.009z"/>
		<path fill="#FFFFFF" d="M6559.43-1415.407h-52.457c-0.586,0-1.063-0.475-1.063-1.063c0-0.588,0.477-1.063,1.063-1.063h52.457
			c0.588,0,1.063,0.475,1.063,1.063C6560.492-1415.882,6560.018-1415.407,6559.43-1415.407z"/>
	</g>
	<rect x="6650.82" y="-1445.338" fill="#1A6CBE" width="17.695" height="9.544"/>
	<rect x="6650.82" y="-1426.251" fill="#1A6CBE" width="17.695" height="9.544"/>
</g>
<g>
	<path opacity="0.35" fill="#FFFFFF" enable-background="new    " d="M6760.734-1143.053h-309.109c-2.447,0-4.434-1.984-4.434-4.433
		v-81.082c0-2.448,1.985-4.433,4.434-4.433h309.109c2.449,0,4.434,1.984,4.434,4.433v81.082
		C6765.168-1145.037,6763.184-1143.053,6760.734-1143.053z"/>
	<g>
		<g>
			<ellipse fill="#102465" cx="6489.208" cy="-1188.026" rx="22.458" ry="22.492"/>
			<path fill="#FFFFFF" d="M6486.377-1181.839l-6.646-5.549c-0.574-0.481-0.651-1.339-0.172-1.916
				c0.482-0.574,1.34-0.65,1.912-0.172l4.736,3.955l10.646-10.708c0.529-0.536,1.391-0.531,1.92-0.005
				c0.533,0.531,0.533,1.392,0.006,1.923L6486.377-1181.839z"/>
		</g>
		<path fill="#FFFFFF" d="M6677.945-1201.434h-69.117c-0.75,0-1.358-0.608-1.358-1.36c0-0.751,0.608-1.36,1.358-1.36h69.117
			c0.75,0,1.356,0.608,1.356,1.36C6679.303-1202.042,6678.695-1201.434,6677.945-1201.434z"/>
		<path fill="#FFFFFF" d="M6593.238-1201.434h-72.045c-0.752,0-1.358-0.608-1.358-1.36c0-0.751,0.606-1.36,1.358-1.36h72.045
			c0.75,0,1.356,0.608,1.356,1.36C6594.596-1202.042,6593.988-1201.434,6593.238-1201.434z"/>
		<path fill="#FFFFFF" d="M6677.945-1185.303h-42.277c-0.75,0-1.357-0.608-1.357-1.36c0-0.751,0.607-1.36,1.357-1.36h42.277
			c0.75,0,1.356,0.608,1.356,1.36C6679.303-1185.911,6678.695-1185.303,6677.945-1185.303z"/>
		<path fill="#FFFFFF" d="M6586.754-1169.172h-67.146c-0.75,0-1.357-0.608-1.357-1.36s0.607-1.36,1.357-1.36h67.146
			c0.75,0,1.357,0.608,1.357,1.36S6587.504-1169.172,6586.754-1169.172z"/>
		<path fill="#FFFFFF" d="M6614.626-1185.303h-93.433c-0.752,0-1.358-0.608-1.358-1.36c0-0.751,0.606-1.36,1.358-1.36h93.433
			c0.751,0,1.356,0.608,1.356,1.36S6615.377-1185.303,6614.626-1185.303z"/>
	</g>
</g>
<g>
	<g>
		<path opacity="0.35" fill="#FFFFFF" enable-background="new    " d="M6219.139-1287l-280.233-0.434
			c-7.151-0.011-12.94-4.479-12.935-9.978l0.26-167.505l0.028-18.849c0.009-5.5,5.813-9.949,12.964-9.938l280.232,0.433
			c7.151,0.011,12.94,4.479,12.934,9.978l-0.287,186.354C6232.093-1291.438,6226.289-1286.989,6219.139-1287z"/>
		<path fill="#FFFFFF" d="M5948.338-1466.858c-0.002,0-0.008,0-0.01,0c-3.383-0.005-6.134-2.768-6.131-6.159
			c0.008-3.388,2.76-6.14,6.141-6.14c0.004,0,0.008,0,0.012,0c1.641,0.002,3.182,0.645,4.339,1.807
			c1.157,1.164,1.793,2.709,1.79,4.353c-0.003,1.643-0.645,3.185-1.805,4.345
			C5951.516-1467.495,5949.977-1466.858,5948.338-1466.858z M5948.338-1476.497c-1.917,0-3.48,1.562-3.484,3.484
			c-0.002,1.922,1.561,3.491,3.479,3.494c0,0,0.003,0,0.005,0c0.93,0,1.801-0.361,2.461-1.019c0.658-0.658,1.021-1.532,1.021-2.463
			v-0.001c0.002-0.932-0.357-1.809-1.015-2.469c-0.657-0.66-1.53-1.024-2.463-1.025
			C5948.344-1476.497,5948.341-1476.497,5948.338-1476.497z"/>
		<path fill="#FFFFFF" d="M5966.395-1466.83c-0.002,0-0.006,0-0.01,0c-1.64-0.003-3.182-0.646-4.34-1.809
			c-1.158-1.163-1.793-2.709-1.791-4.351c0.008-3.388,2.76-6.141,6.14-6.141c0.002,0,0.008,0,0.01,0
			c1.642,0.002,3.183,0.644,4.342,1.808c1.157,1.164,1.793,2.709,1.79,4.352c-0.003,1.643-0.645,3.186-1.805,4.346
			C5969.57-1467.466,5968.032-1466.83,5966.395-1466.83z M5966.393-1476.469c-1.918,0-3.479,1.562-3.481,3.484
			c-0.002,0.932,0.358,1.807,1.015,2.467c0.66,0.66,1.535,1.025,2.465,1.026c0.004,0,0.004,0,0.006,0
			c0.93,0,1.801-0.361,2.461-1.019c0.658-0.657,1.021-1.533,1.021-2.465v-0.001c0.003-0.932-0.356-1.808-1.015-2.467
			c-0.66-0.662-1.533-1.025-2.465-1.026C5966.396-1476.469,5966.395-1476.469,5966.393-1476.469z"/>
		<path fill="#FFFFFF" d="M5984.109-1466.802c-0.004,0-0.008,0-0.01,0c-3.385-0.005-6.135-2.768-6.133-6.159
			c0.008-3.389,2.762-6.142,6.143-6.142c0.003,0,0.008,0,0.01,0c3.384,0.005,6.135,2.768,6.132,6.159v0.001
			C5990.243-1469.556,5987.49-1466.802,5984.109-1466.802z M5984.109-1476.442c-1.918,0-3.482,1.562-3.484,3.485
			c-0.003,1.923,1.559,3.491,3.479,3.494c0,0,0.004,0,0.006,0c1.918,0,3.482-1.562,3.484-3.484c0-1.924-1.559-3.492-3.479-3.494
			C5984.113-1476.442,5984.111-1476.442,5984.109-1476.442z"/>
		<path opacity="0.69" fill="#FFFFFF" enable-background="new    " d="M6190.936-1402.527h-0.002l-122.738-0.191
			c-0.734-0.001-1.326-0.598-1.326-1.333c0-0.734,0.598-1.328,1.328-1.328h0.003l122.737,0.191c0.734,0.001,1.326,0.598,1.326,1.333
			C6192.264-1403.121,6191.667-1402.527,6190.936-1402.527z"/>
		<path opacity="0.69" fill="#FFFFFF" enable-background="new    " d="M6129.479-1348.585h-0.002l-61.371-0.093
			c-0.733,0-1.326-0.598-1.326-1.333c0-0.733,0.599-1.328,1.33-1.328h0.002l61.371,0.093c0.733,0,1.326,0.598,1.326,1.333
			C6130.809-1349.181,6130.211-1348.585,6129.479-1348.585z"/>
		<path opacity="0.69" fill="#FFFFFF" enable-background="new    " d="M6103.822-1386.437h-0.002l-35.67-0.07
			c-0.734-0.001-1.33-0.598-1.326-1.333c0.002-0.734,0.597-1.328,1.328-1.328h0.002l35.67,0.07c0.733,0.001,1.328,0.598,1.326,1.333
			S6104.555-1386.437,6103.822-1386.437z"/>
		<path opacity="0.69" fill="#FFFFFF" enable-background="new    " d="M6137.535-1367.259c0,0,0,0-0.002,0l-69.383-0.073
			c-0.732,0-1.326-0.598-1.326-1.333c0-0.732,0.594-1.328,1.328-1.328c0,0,0,0,0.003,0l69.383,0.073
			c0.731,0,1.326,0.598,1.326,1.333C6138.863-1367.854,6138.27-1367.259,6137.535-1367.259z"/>
	</g>
	<path fill="#FFFFFF" d="M6003.906-1378.753v-46.92c-25.875,0-46.853,21.007-46.853,46.92s20.978,46.92,46.853,46.92
		s46.851-21.007,46.851-46.92H6003.906z"/>
	<path fill="#1A6CBE" d="M6003.906-1378.753v-46.92c-25.875,0-46.853,21.007-46.853,46.92
		C5957.055-1377.465,6003.906-1378.753,6003.906-1378.753z"/>
	<path fill="#102465" d="M6049.098-1383.92c0-11.227-4.606-21.377-12.033-28.655c-7.219-7.076-17.1-11.438-27.998-11.438v40.092
		L6049.098-1383.92L6049.098-1383.92z"/>
	<path fill="#FFFFFF" d="M6037.064-1412.575c-7.22-7.076-17.101-11.438-28-11.438v40.092"/>
	<path fill="#1A6CBE" d="M6037.064-1412.575c-7.22-7.076-17.101-11.438-28-11.438v40.092"/>
</g>
<g>
	<path fill="#1A6CBE" d="M6927.128-1070.162c-0.157-7.896-6.676-14.171-14.562-14.014l-69.854,1.391
		c-7.885,0.157-14.148,6.686-13.992,14.583l0.918,46.305c0.157,7.897,6.676,14.171,14.563,14.014l15.006-0.299l19.556,18.822
		l18.794-19.585l16.498-0.328c7.885-0.157,14.148-6.686,13.993-14.583L6927.128-1070.162z"/>
	<path fill="#102465" d="M6914.055-1016.91l-16.498,0.329l-18.795,19.584l-19.555-18.821l-15.007,0.299
		c-7.886,0.157-14.403-6.117-14.562-14.014l-0.808-40.644c-0.076,0.647-0.125,1.304-0.11,1.975l0.918,46.305
		c0.156,7.897,6.676,14.171,14.562,14.014l15.007-0.299l19.555,18.822l18.795-19.585l16.498-0.328
		c7.885-0.157,14.148-6.686,13.992-14.583l-0.111-5.661C6927.111-1022.537,6921.27-1017.053,6914.055-1016.91z"/>
	<path fill="#FFFFFF" d="M6878.282-1024.211c-0.337,0-0.562-0.186-0.842-0.417c-4.853-3.994-9.581-8.297-14.153-12.458l-0.879-0.798
		c-4.039-3.677-8.619-8.749-8.166-15.387c0.476-6.942,6.041-12.172,12.951-12.172c0.006,0,0.01,0,0.016,0
		c4.493,0.005,8.643,2.332,11.068,6.01c2.433-3.669,6.582-5.986,11.068-5.986c0.004,0,0.01,0,0.014,0
		c5.313,0.006,10.252,3.309,12.291,8.22c0.691,1.67,1.019,3.412,0.967,5.175l0,0c-0.18,6.254-4.752,10.953-9.022,14.866
		l-0.578,0.533C6881.982-1026.439,6879.452-1024.211,6878.282-1024.211z"/>
</g>
<g>
	<path opacity="0.35" fill="#FFFFFF" enable-background="new    " d="M7012.426-1209.983c-0.157-7.897-6.676-14.171-14.563-14.014
		l-69.854,1.39c-7.885,0.157-14.148,6.686-13.993,14.583l0.919,46.305c0.156,7.896,6.676,14.171,14.561,14.014l15.008-0.299
		l19.556,18.821l18.794-19.585l16.498-0.328c7.885-0.157,14.148-6.686,13.992-14.583L7012.426-1209.983z"/>
	<path fill="#1A6CBE" d="M6999.352-1156.731l-16.498,0.328l-18.793,19.585l-19.557-18.821l-15.007,0.298
		c-7.885,0.157-14.403-6.117-14.562-14.014l-0.807-40.644c-0.076,0.647-0.126,1.304-0.111,1.975l0.918,46.305
		c0.156,7.896,6.676,14.171,14.562,14.014l15.007-0.299l19.557,18.821l18.793-19.585l16.498-0.328
		c7.885-0.157,14.149-6.687,13.992-14.583l-0.11-5.661C7012.408-1162.358,7006.564-1156.875,6999.352-1156.731z"/>
	<path fill="#FFFFFF" d="M6963.58-1164.033c-0.338,0-0.561-0.185-0.842-0.417c-4.854-3.994-9.581-8.296-14.154-12.458l-0.877-0.798
		c-4.041-3.677-8.621-8.749-8.168-15.388c0.476-6.941,6.041-12.171,12.951-12.171c0.006,0,0.01,0,0.017,0
		c4.492,0.005,8.644,2.332,11.067,6.01c2.433-3.669,6.582-5.986,11.068-5.986c0.004,0,0.01,0,0.016,0
		c5.312,0.006,10.25,3.309,12.289,8.22c0.692,1.67,1.02,3.411,0.969,5.175l0,0c-0.182,6.254-4.752,10.953-9.023,14.866l-0.578,0.533
		C6967.279-1166.261,6964.749-1164.033,6963.58-1164.033z"/>
</g>
<g>
	<path opacity="0.35" fill="#FFFFFF" enable-background="new    " d="M7661.404-1162.517h219.207c2.449,0,4.434,1.984,4.434,4.433
		v55.651c0,2.448-1.984,4.433-4.434,4.433h-219.207c-2.447,0-4.433-1.984-4.433-4.433v-55.651
		C7656.973-1160.532,7658.957-1162.517,7661.404-1162.517z"/>
	<g>
		<g>
			<ellipse fill="#102465" cx="7854.909" cy="-1130.258" rx="16.108" ry="16.132"/>
			<path fill="#FFFFFF" d="M7852.88-1125.82l-4.769-3.98c-0.414-0.345-0.47-0.96-0.125-1.374c0.348-0.412,0.961-0.467,1.373-0.124
				l3.397,2.837l7.635-7.68c0.381-0.385,0.997-0.381,1.377-0.004c0.383,0.381,0.383,0.998,0.004,1.379L7852.88-1125.82z"/>
		</g>
		<path fill="#FFFFFF" d="M7769.109-1118.691h-49.578c-0.537,0-0.974-0.437-0.974-0.976c0-0.54,0.437-0.976,0.974-0.976h49.578
			c0.539,0,0.975,0.436,0.975,0.976S7769.648-1118.691,7769.109-1118.691z"/>
		<path fill="#FFFFFF" d="M7831.968-1118.691h-51.676c-0.539,0-0.976-0.437-0.976-0.976c0-0.54,0.437-0.976,0.976-0.976h51.676
			c0.538,0,0.974,0.436,0.974,0.976S7832.506-1118.691,7831.968-1118.691z"/>
		<path fill="#FFFFFF" d="M7749.857-1130.261h-30.326c-0.537,0-0.974-0.438-0.974-0.976c0-0.539,0.437-0.976,0.974-0.976h30.326
			c0.539,0,0.975,0.437,0.975,0.976C7750.832-1130.698,7750.396-1130.261,7749.857-1130.261z"/>
		<path fill="#FFFFFF" d="M7831.968-1130.261h-67.017c-0.539,0-0.976-0.438-0.976-0.976c0-0.539,0.437-0.976,0.976-0.976h67.017
			c0.538,0,0.974,0.437,0.974,0.976C7832.941-1130.698,7832.506-1130.261,7831.968-1130.261z"/>
		<path fill="#FFFFFF" d="M7833.105-1141.83h-48.162c-0.539,0-0.976-0.437-0.976-0.976c0-0.539,0.437-0.976,0.976-0.976h48.162
			c0.537,0,0.974,0.437,0.974,0.976C7834.079-1142.267,7833.645-1141.83,7833.105-1141.83z"/>
	</g>
</g>
<g>
	<path opacity="0.35" fill="#FFFFFF" enable-background="new    " d="M7979.465-1261.517h-219.208c-2.448,0-4.433,1.984-4.433,4.433
		v55.651c0,2.448,1.983,4.433,4.433,4.433h219.208c2.448,0,4.434-1.984,4.434-4.433v-55.651
		C7983.896-1259.532,7981.913-1261.517,7979.465-1261.517z"/>
	<g>
		<g>
			<ellipse fill="#102465" cx="7785.96" cy="-1229.258" rx="16.108" ry="16.132"/>
			<path fill="#FFFFFF" d="M7787.988-1224.82l4.771-3.98c0.413-0.345,0.468-0.96,0.124-1.374c-0.348-0.412-0.961-0.467-1.372-0.124
				l-3.399,2.837l-7.635-7.68c-0.379-0.385-0.996-0.381-1.377-0.004c-0.381,0.381-0.381,0.998-0.004,1.379L7787.988-1224.82z"/>
		</g>
		<path fill="#FFFFFF" d="M7871.76-1217.691h49.578c0.538,0,0.975-0.437,0.975-0.976c0-0.54-0.437-0.976-0.975-0.976h-49.578
			c-0.538,0-0.975,0.436-0.975,0.976C7870.786-1218.127,7871.223-1217.691,7871.76-1217.691z"/>
		<path fill="#FFFFFF" d="M7808.902-1217.691h51.676c0.537,0,0.975-0.437,0.975-0.976c0-0.54-0.438-0.976-0.975-0.976h-51.676
			c-0.539,0-0.976,0.436-0.976,0.976C7807.928-1218.127,7808.363-1217.691,7808.902-1217.691z"/>
		<path fill="#FFFFFF" d="M7891.012-1229.261h30.326c0.539,0,0.975-0.438,0.975-0.976c0-0.539-0.436-0.976-0.975-0.976h-30.326
			c-0.537,0-0.975,0.437-0.975,0.976C7890.037-1229.698,7890.475-1229.261,7891.012-1229.261z"/>
		<path fill="#FFFFFF" d="M7808.902-1229.261h67.016c0.539,0,0.975-0.438,0.975-0.976c0-0.539-0.436-0.976-0.975-0.976h-67.016
			c-0.539,0-0.976,0.437-0.976,0.976C7807.927-1229.698,7808.363-1229.261,7808.902-1229.261z"/>
		<path fill="#FFFFFF" d="M7807.766-1240.83h48.162c0.537,0,0.974-0.437,0.974-0.976c0-0.539-0.437-0.976-0.974-0.976h-48.162
			c-0.539,0-0.975,0.437-0.975,0.976C7806.791-1241.267,7807.227-1240.83,7807.766-1240.83z"/>
	</g>
</g>
<g>
	<path opacity="0.35" fill="#FFFFFF" enable-background="new    " d="M7646.84-1368h219.209c2.447,0,4.432,1.984,4.432,4.433v55.651
		c0,2.448-1.983,4.433-4.432,4.433H7646.84c-2.447,0-4.432-1.984-4.432-4.433v-55.651C7642.408-1366.016,7644.393-1368,7646.84-1368
		z"/>
	<g>
		<g>
			<ellipse fill="#102465" cx="7840.346" cy="-1335.742" rx="16.107" ry="16.132"/>
			<path fill="#FFFFFF" d="M7838.316-1331.304l-4.771-3.98c-0.413-0.345-0.47-0.96-0.124-1.374c0.348-0.412,0.961-0.467,1.372-0.124
				l3.399,2.837l7.633-7.68c0.381-0.385,0.998-0.381,1.377-0.004c0.383,0.381,0.383,0.998,0.004,1.379L7838.316-1331.304z"/>
		</g>
		<path fill="#FFFFFF" d="M7754.545-1324.174h-49.577c-0.538,0-0.974-0.436-0.974-0.976c0-0.539,0.436-0.976,0.974-0.976h49.577
			c0.539,0,0.975,0.437,0.975,0.976C7755.52-1324.61,7755.084-1324.174,7754.545-1324.174z"/>
		<path fill="#FFFFFF" d="M7817.402-1324.174h-51.676c-0.537,0-0.974-0.436-0.974-0.976c0-0.539,0.437-0.976,0.974-0.976h51.676
			c0.539,0,0.975,0.437,0.975,0.976C7818.377-1324.61,7817.941-1324.174,7817.402-1324.174z"/>
		<path fill="#FFFFFF" d="M7735.294-1335.745h-30.326c-0.538,0-0.974-0.437-0.974-0.976c0-0.539,0.436-0.975,0.974-0.975h30.326
			c0.538,0,0.974,0.436,0.974,0.975C7736.268-1336.182,7735.832-1335.745,7735.294-1335.745z"/>
		<path fill="#FFFFFF" d="M7817.402-1335.745h-67.017c-0.538,0-0.974-0.437-0.974-0.976c0-0.539,0.436-0.975,0.974-0.975h67.017
			c0.539,0,0.975,0.436,0.975,0.975C7818.377-1336.182,7817.941-1335.745,7817.402-1335.745z"/>
		<path fill="#FFFFFF" d="M7818.541-1347.313h-48.162c-0.539,0-0.975-0.437-0.975-0.976s0.436-0.975,0.975-0.975h48.162
			c0.538,0,0.975,0.436,0.975,0.975S7819.079-1347.313,7818.541-1347.313z"/>
	</g>
</g>
<g>
	<path opacity="0.35" fill="#FFFFFF" enable-background="new    " d="M8363.463-1210.128c-0.268-13.466-11.385-24.165-24.83-23.897
		l-119.115,2.37c-13.445,0.268-24.128,11.401-23.861,24.867l1.566,78.959c0.268,13.465,11.385,24.165,24.83,23.897l25.59-0.51
		l33.346,32.095l32.047-33.396l28.133-0.56c13.445-0.268,24.129-11.401,23.861-24.866L8363.463-1210.128z"/>
	<path fill="#1A6CBE" d="M8341.168-1122.862l-28.133,0.561l-32.047,33.396l-33.346-32.095l-25.59,0.51
		c-13.445,0.268-24.563-10.432-24.829-23.896l-1.314-66.23c-0.172,1.253-0.278,2.526-0.253,3.83l1.567,78.959
		c0.267,13.465,11.384,24.165,24.829,23.897l25.59-0.51l33.346,32.095l32.047-33.396l28.133-0.56
		c13.445-0.268,24.129-11.401,23.861-24.866l-0.253-12.729C8363.172-1132.216,8353.311-1123.104,8341.168-1122.862z"/>
	<g>
		<path fill="#FFFFFF" d="M8276.786-1165.877c-11.721,0-21.253-9.547-21.253-21.285c0-11.735,9.532-21.283,21.253-21.283
			c11.72,0,21.253,9.547,21.253,21.283C8298.039-1175.424,8288.506-1165.877,8276.786-1165.877z M8276.786-1203.052
			c-8.749,0-15.869,7.127-15.869,15.89c0,8.762,7.12,15.893,15.869,15.893s15.868-7.13,15.868-15.893
			C8292.654-1195.925,8285.535-1203.052,8276.786-1203.052z"/>
		<path fill="#FFFFFF" d="M8301.924-1131.167h-50.276c-5.364,0-9.728-4.371-9.728-9.742c0-15.903,12.919-28.839,28.793-28.839
			h15.428c14.064,0,25.512,11.464,25.512,25.553v3.286C8311.652-1135.538,8307.288-1131.167,8301.924-1131.167z M8270.713-1164.355
			c-12.908,0-23.408,10.519-23.408,23.446c0,2.399,1.95,4.35,4.343,4.35h50.276c2.394,0,4.344-1.951,4.344-4.35v-3.286
			c0-11.117-9.027-20.161-20.127-20.161L8270.713-1164.355L8270.713-1164.355z"/>
	</g>
</g>
<g>
	<path opacity="0.35" fill="#FFFFFF" enable-background="new    " d="M8507.557-1002.259h-159.109c-0.79,0-1.431-0.641-1.431-1.431
		v-68.853c0-0.791,0.641-1.431,1.431-1.431h159.109c0.791,0,1.432,0.641,1.432,1.431v68.853
		C8508.988-1002.9,8508.348-1002.259,8507.557-1002.259z"/>
	<g>
		<g>
			<path fill="#FFFFFF" d="M8429.298-1048.527h-50.833c-0.505,0-0.914-0.41-0.914-0.914c0-0.505,0.409-0.915,0.914-0.915h50.833
				c0.505,0,0.913,0.41,0.913,0.915C8430.211-1048.937,8429.803-1048.527,8429.298-1048.527z"/>
			<path fill="#FFFFFF" d="M8487.826-1048.527h-45.313c-0.504,0-0.912-0.41-0.912-0.914c0-0.505,0.408-0.915,0.912-0.915h45.313
				c0.504,0,0.912,0.41,0.912,0.915C8488.738-1048.937,8488.33-1048.527,8487.826-1048.527z"/>
			<path fill="#FFFFFF" d="M8423.775-1025.879h-45.311c-0.505,0-0.914-0.409-0.914-0.914s0.409-0.915,0.914-0.915h45.311
				c0.504,0,0.913,0.41,0.913,0.915S8424.279-1025.879,8423.775-1025.879z"/>
			<path fill="#FFFFFF" d="M8466.657-1037.841h-45.312c-0.504,0-0.913-0.41-0.913-0.915c0-0.504,0.409-0.914,0.913-0.914h45.312
				c0.504,0,0.913,0.41,0.913,0.914C8467.57-1038.25,8467.161-1037.841,8466.657-1037.841z"/>
			<path fill="#FFFFFF" d="M8408.208-1037.841h-29.743c-0.505,0-0.914-0.41-0.914-0.915c0-0.504,0.409-0.914,0.914-0.914h29.743
				c0.504,0,0.913,0.41,0.913,0.914C8409.121-1038.25,8408.712-1037.841,8408.208-1037.841z"/>
			<path fill="#FFFFFF" d="M8455.992-1025.879h-18.285c-0.504,0-0.913-0.409-0.913-0.914s0.409-0.915,0.913-0.915h18.285
				c0.504,0,0.913,0.41,0.913,0.915S8456.496-1025.879,8455.992-1025.879z"/>
		</g>
	</g>
</g>
<g>
	<path opacity="0.35" fill="#FFFFFF" enable-background="new    " d="M7968.287-1433.269h-126.744c-0.79,0-1.432-0.641-1.432-1.431
		v-111.87c0-0.79,0.642-1.431,1.432-1.431h126.744c0.791,0,1.432,0.641,1.432,1.431v111.87
		C7969.719-1433.909,7969.078-1433.269,7968.287-1433.269z"/>
	<g>
		<g>
			<path fill="#FFFFFF" d="M7905.953-1507.775h-40.677c-0.538,0-0.974-0.436-0.974-0.976c0-0.539,0.436-0.976,0.974-0.976h40.677
				c0.538,0,0.975,0.437,0.975,0.976C7906.927-1508.211,7906.491-1507.775,7905.953-1507.775z"/>
			<path fill="#FFFFFF" d="M7952.785-1507.775h-36.258c-0.538,0-0.975-0.436-0.975-0.976c0-0.539,0.437-0.976,0.975-0.976h36.258
				c0.538,0,0.975,0.437,0.975,0.976C7953.759-1508.211,7953.323-1507.775,7952.785-1507.775z"/>
			<path fill="#FFFFFF" d="M7901.533-1471.541h-36.257c-0.538,0-0.974-0.436-0.974-0.975c0-0.54,0.436-0.976,0.974-0.976h36.257
				c0.539,0,0.975,0.437,0.975,0.976C7902.508-1471.977,7902.072-1471.541,7901.533-1471.541z"/>
			<path fill="#FFFFFF" d="M7935.846-1490.678h-36.256c-0.539,0-0.975-0.437-0.975-0.976c0-0.539,0.436-0.975,0.975-0.975h36.256
				c0.539,0,0.976,0.436,0.976,0.975C7936.82-1491.114,7936.385-1490.678,7935.846-1490.678z"/>
			<path fill="#FFFFFF" d="M7889.077-1490.678h-23.801c-0.538,0-0.974-0.437-0.974-0.976c0-0.539,0.436-0.975,0.974-0.975h23.801
				c0.538,0,0.974,0.436,0.974,0.975C7890.051-1491.114,7889.615-1490.678,7889.077-1490.678z"/>
			<path fill="#FFFFFF" d="M7927.313-1471.541h-14.633c-0.539,0-0.975-0.436-0.975-0.975c0-0.54,0.436-0.976,0.975-0.976h14.633
				c0.539,0,0.975,0.437,0.975,0.976C7928.286-1471.977,7927.852-1471.541,7927.313-1471.541z"/>
		</g>
	</g>
</g>
<g>
	<path fill="#C3FFFF" d="M7446.338-738.632l-7.516-19.787l44.051-21.717c0,0,68.424-19.89,26.354,9.458
		C7467.159-741.331,7446.338-738.632,7446.338-738.632z"/>
	<path fill="#685057" d="M7446.816-740.673c0,0-23.353,12.33-30.789,8.562c0,0-6.223,2.303-11.449,7.644
		c-5.598,5.717-5.248-6.558,8.375-13.879c0,0-16.916,13.838-18.924,11.649c-2.01-2.187,9.074-14.107,15.06-15.558
		c0,0-18.308,12.743-18.679,9.242c-0.373-3.501,14.674-15.948,14.674-15.948s-24.021,11.637-23.254,7.897
		c0.795-3.885,19.396-13.359,28.488-14.793c9.091-1.435,21.259,3.367,21.259,3.367l12.524-5.148l3.646,16.658"/>
	<path fill="#41222A" d="M7471.294-1018.374c0,0-24.218,13.325-22.853,38.602c1.367,25.275-13.926,123.664,50.293,132.124
		c36.68,4.832,28.787-94.23,28.787-94.23L7471.294-1018.374z"/>
	<polygon fill="#043370" points="7619.273,-406.344 7618.461,-373.285 7599.204,-350.143 7634.707,-349.438 7651.542,-404.938 
		7629.096,-423.204 	"/>
	<path fill="#06497F" d="M7484.52-705.857c0,0-27.271,132.785,5.684,167.439c28.061,29.506,122.057,136.289,129.072,132.074
		c7.015-4.215,9.819-16.86,9.819-16.86S7566.254-534,7523.889-569.143c0,0,43.477-154.743,14.015-165.983
		C7496.756-750.824,7484.52-705.857,7484.52-705.857z"/>
	<ellipse opacity="0.1" fill="#1C1918" enable-background="new    " cx="7513.848" cy="-353.179" rx="155.933" ry="25.321"/>
	<ellipse opacity="0.1" fill="#1C1918" enable-background="new    " cx="8339.973" cy="-335.822" rx="155.932" ry="25.322"/>
	<ellipse opacity="0.1" fill="#1C1918" enable-background="new    " cx="7076.715" cy="-339.679" rx="155.932" ry="25.321"/>
	<ellipse opacity="0.1" fill="#1C1918" enable-background="new    " cx="6647.286" cy="-328.107" rx="155.933" ry="25.322"/>
	<path fill="#176396" d="M7469.157-740.746l-62.433,179.145l31.566,179.144l18.238,4.216c0,0,20.185-107.137-11.383-172.473
		c0,0,95.346-84.854,98.854-153C7547.113-764.198,7469.157-740.746,7469.157-740.746z"/>
	<polygon fill="#043370" points="7438.292,-382.458 7388.486,-355.059 7457.232,-355.762 7456.531,-378.242 	"/>
	<path fill="#685057" d="M7528.384-924.635l-16.53-23.972l-15.639,6.616l9.316,33.193c0,0-42.61,50.112-3.054,39.899
		c26.515-6.847,35.794-11.796,34.093-27.102C7535.734-903.527,7528.384-924.635,7528.384-924.635z"/>
	<path fill="#685057" d="M7538.919-1018.248c0,0-75.287-18.121-76.554,37.482c-0.875,38.359,17.104,70.536,19.799,71.336
		c27.389,8.144,44.83-31.483,54.725-48.293C7545.63-972.572,7550.578-981.269,7538.919-1018.248z"/>
	<path fill="#B57079" d="M7471.289-1003.321c0,0,20.58,30.433,46.548,26.22c0,0,7.612-15.173,13.606-3.781
		c10.223,19.436-8.363,15.264-8.363,15.264l12.064,21.427c0,0,31.148-30.377,21.905-56.691
		c-9.242-26.314-30.453-38.058-61.229-32.949C7465.043-1028.722,7466.229-1010.478,7471.289-1003.321z"/>
	<path fill="#A6EAF4" d="M7539.241-907.428c-5.731,14.812-33.132,29.818-47.597,37.368c-13.256,6.918-31.092,42.488-2.139,56.79
		c0,0-16.543,65.412-34.518,109.127c57.063,26.171,99.709,15.857,99.709,15.857c1.713-31.286-0.854-40.286-2.996-62.144
		c-1.787-18.259,20.232-56.126,20.541-64.286C7572.968-833.841,7601.771-883.285,7539.241-907.428z"/>
	<path fill="#B57079" d="M7523.08-965.617c0,0-17.439,81.364,13.218,74.188c59.21-13.858,35.874,78.056,35.874,78.056
		s68.346-28.366,11.105-113.822c-26.244-39.181-12.568-64.575-35.336-89.637c-30.871-33.983-38.229,10.043-38.229,10.043
		l28.078,26.959C7537.791-979.83,7547.206-956.434,7523.08-965.617z"/>
	<g>
		<polygon fill="#AA1818" points="7486.443,-963.429 7484.52,-958.5 7559.191,-947.785 7561.332,-951.429 7544.001,-985.286 		"/>
		<polygon fill="#FF5252" points="7484.251,-959.092 7497.732,-926.987 7559.443,-948.204 7543.221,-981.306 		"/>
		<path fill="#C3FFFF" d="M7494.695-911.021l24.586,7.68l-12.373,58.611c0,0,29.201-54.476,53.069-41.319
			c23.869,13.157-8.499,51.815-31.961,72.597c-17.455,15.46-53.569,49.344-49.987-13.107
			C7481.609-889.011,7494.695-911.021,7494.695-911.021z"/>
		<path fill="#685057" d="M7496.288-909.024c0,0,5.776-31.687,14.978-35.985c0,0,2.479-7.704,1.306-16.739
			c-1.258-9.672,10.224-0.102,6.976,18.48c0,0-0.51-26.645,3.095-26.926c3.604-0.281,6.669,19.324,3.551,26.157
			c0,0,1.586-27.155,5.215-24.877c3.629,2.277,4.216,26.081,4.216,26.081s6.941-31.805,9.941-28.256
			c3.119,3.686-1.814,28.665-7.285,38.468c-5.47,9.803-19.22,17.864-19.22,17.864l-4.498,15.895l-18.683-9.036"/>
	</g>
</g>
<g>
	<path fill="#F0BEB9" d="M7924.105-867.805c0,0-19.231,28.891-28.849,57.781c-9.615,28.891,10.837,85.755,10.837,85.755
		l27.626-143.536H7924.105z"/>
	<path fill="#C4667D" d="M7955.088-893.007c8.091,2.894,16.018,6.438,23.995,9.644c0.722,12.72,3.823,25.521,9.368,37.596
		c-2.373,0.448-4.73,0.768-7.016,0.761c-20.117-0.061-58.556-5.1-58.556-5.1l-8.392-8.068l9.879-19.788
		c5.672-11.359,25.851-21.619,38.201-18.732C7962.586-896.691,7955.074-893.012,7955.088-893.007z"/>
	<path fill="#FFE1E1" d="M7966.984-1007.898c0,0-72.83-2.828-63.765,48.73c1.701,9.67,2.881,19.26,4.835,26.368
		c8.014,29.14,11.279,37.194,43.518,19.322c3.461-1.919,9.408,29.188,13.24,29.403c7.446,0.418,21.028-17.84,23.604-26.521
		c0.46-1.551-13.74-30.399-13.488-31.235C7984.08-972.129,7986.979-987.524,7966.984-1007.898z"/>
	<path fill="#A76478" d="M7929.167-981.352c0,0,3.949,30.073,27.144,21.391c0,0,3.554-14.814,11.861-6.001
		c14.031,14.884,3.034,18.77,3.034,18.77l6.908,16.143c0,0,22.294-32.403,1.646-65.072c-14.022-22.185-25.613-18.866-53.082-8.469
		C7899.209-994.193,7923.178-987.022,7929.167-981.352z"/>
	<ellipse opacity="0.1" fill="#1C1918" enable-background="new    " cx="7957.546" cy="-357.349" rx="97.981" ry="19.206"/>
	<g>
		<path fill="#C4667D" d="M8004.232-406.037c-3.265,2.058-7.242,3.992-10.502,2.43c-4.28,6.54-27.545,42.795-19.513,46.164
			l54.64-40.401l-13.131-16.698C8012.682-410.382,8008.459-408.701,8004.232-406.037z"/>
		<polygon fill="#FFFFFD" points="7974.219,-357.443 8028.857,-397.845 8030.594,-395.227 7976.021,-353.853 		"/>
	</g>
	<g>
		<path fill="#C4667D" d="M7968.229-377.586c-3.847-0.283-7.155-2.481-8.854-5.677c-7.319,2.722-47.522,18.088-43.052,25.572
			l67.918-0.064l-0.682-21.243C7978.643-377.458,7973.209-377.221,7968.229-377.586z"/>
		<polygon fill="#FFFFFD" points="7916.32,-357.69 7984.238,-357.755 7984.087,-354.616 7915.645,-353.729 		"/>
	</g>
	<path fill="#102465" d="M7961.577-501.958c-6.498,10.288-18.261,17.323-26.112,27.021l59.188,70.607l18.517-15.759
		L7961.577-501.958z"/>
	<path fill="#102465" d="M7926.7-621.088c0,0,13.519-140.614-8.242-110.977c-21.76,29.637-33.476,157.756-33.476,157.756
		s29.426,81.771,70.502,114.191C7986.541-435.605,7926.7-621.088,7926.7-621.088z"/>
	<path fill="#174C99" d="M7928.834-835.999l47.871,12.204c0,0,27.538,53.968,29.211,105.487
		c1.741,53.609-52.658,144.912-52.658,144.912s33.35,67.55,29.434,188.497c-9.141,11.332-26.043,2.708-26.043,2.708
		s-33.369-114.102-43.813-184.709c-7.413-50.109,5.688-103.366,18.609-152.293C7931.445-719.192,7916.646-779.339,7928.834-835.999z
		"/>
	<path fill="#DB7286" d="M7925.68-855.176c6.125-23.905,20.758-36.547,30.535-45.326c2.092,2.684,5.697,4.465,11.418,4.465
		c9.779,0,20.688-4.981,23.326-14.056c3.047,13.075,8.92,3.907,9.574,3.923c28.781,0.696,26.324,62.508,26.324,62.508
		l-14.987,149.201c-69.897,21.962-107.147-8.713-107.147-8.713S7905.18-775.172,7925.68-855.176z"/>
	<path fill="#1A6CBE" d="M7986.066-389.705c-1.453-1.015-37.213-3.802-37.213-3.802l2.61,12.64l33.51,8.281L7986.066-389.705z"/>
	<path fill="#174C99" d="M8012.582-426.097c-1.584,0.175-25.977,18.425-25.977,18.425l6.203,7.846l28.727-13.067L8012.582-426.097z"
		/>
	<polygon fill="#AA1818" points="7877.646,-822.217 7827.823,-867.809 7799.633,-868.154 7798.32,-864.01 7870.107,-817.727 	"/>
	<polygon fill="#FF5252" points="7876.336,-818.073 7826.512,-863.664 7798.32,-864.01 7850.77,-813.582 	"/>
	<path fill="#FFE1E1" d="M7868.381-839.569c0,0-27.675-15.244-8.896,5.198c1.527,1.662,2.785,3.007,3.93,4.218l-33.583-4.218
		c-10.38-0.743,5.931,12.621,5.931,12.621c2.834,6.03,8.201,7.806,13.037,8.034c3.547,1.425,7.623,2.228,12.348,1.89
		c0,0,8.165-0.818,10.613-0.818C7874.207-812.645,7883.076-834.663,7868.381-839.569z"/>
	<path fill="#FFE1E1" d="M7989.965-907.134c0,0,21.499-10.396,26.689,18.562c3.396,18.958-31.879,106.916-68.207,130.676
		c0,0-74.09-40.977-88.918-58.054c0,0,0.194-4.036,11.314-12.204l68.707,22.739C7939.552-805.415,7965.5-883.375,7989.965-907.134z"
		/>
	<path fill="#F4879C" d="M7956.346-851.415c9.672-22.125,22.31-49.766,34.179-61.293c0,0,26.547,0,27.468,23.32
		c0.361,9.157-5.157,32.986-16.581,58.762C7986.75-838.484,7971.689-845.317,7956.346-851.415z"/>
	<path fill="#A76478" d="M7956.238-963.912l3.455,10.954l-7.484,3.459l-3.454-12.683l-18.997-21.332c0,0-29.359,15.566-37.419-3.459
		l5.183-0.577c0,0-14.969-4.612-11.515-22.484c0,0,2.878,7.495,7.483,9.225c0,0-13.815-13.261,0-23.062c0,0-2.304,14.99,7.483,14.99
		s62.173-37.475,71.959,2.883c0,0,32.237,2.306,11.515,60.536l-24.18-36.898L7956.238-963.912z"/>
</g>
<g>
	<path fill="#E7A376" d="M7080.764-1061.036c0,15-28.016,17.357-49.906,17.357c-21.892,0-39.639-12.16-39.639-27.161
		s17.27-37.481,39.156-37.125C7069.852-1107.321,7080.764-1076.036,7080.764-1061.036z"/>
	<g>
		<path fill="#E5AFAC" d="M7005.338-766.016c0,0-25.535,123.168-16.164,161.54c9.37,38.372,72.188,213.117,72.188,213.117
			l21.972-12.999c0,0-8.985-66.535-21.185-132.428c-7.225-39.033-28.719-62.703-26.316-73.93
			c4.814-22.5,20.327-142.714,20.327-142.714L7005.338-766.016z"/>
		<g>
			<g>
				<g>
					<path fill="#06497F" d="M7057.249-399.088c0,0-49.374,44.111-56.095,57.457l108.58-35.831l-15.029-33.987
						c0,0-12.507,2.653-22.594,11.435C7064.757-393.61,7057.249-399.088,7057.249-399.088z"/>
				</g>
			</g>
			<g>
				<polygon fill="#D2DAD9" points="7109.734,-377.462 7001.154,-341.631 7002.826,-331.066 7113.033,-367.435 				"/>
			</g>
		</g>
	</g>
	<path fill="#F0BEB9" d="M7104.514-375.429l30.403,0.822c-1.959-20.259,2.38-63.201-0.876-99.822
		c-5.391-60.637-16.961-90.726-16.047-95.786c20.541-113.785,0.55-97.233,20.3-170.693c0,0-76.396-39.464-71.01,73.193
		c0.83,12.097-1.858,47.96,2.89,94.607C7075.014-525.537,7092.611-449.646,7104.514-375.429z"/>
	
		<linearGradient id="SVGID_4_" gradientUnits="userSpaceOnUse" x1="7137.1387" y1="2769.4082" x2="6857.21" y2="2823.3391" gradientTransform="matrix(1 0 0 -1 116 2079)">
		<stop  offset="0" style="stop-color:#7FCADB"/>
		<stop  offset="0.1068" style="stop-color:#6EB4CB"/>
		<stop  offset="0.4111" style="stop-color:#407BA3"/>
		<stop  offset="0.6722" style="stop-color:#1F5285"/>
		<stop  offset="0.8769" style="stop-color:#0B3873"/>
		<stop  offset="1" style="stop-color:#032F6C"/>
	</linearGradient>
	<path fill="url(#SVGID_4_)" d="M7112.313-827.193l-92.104-6.283c0,0-26.955,98.905-33.802,201.334l52.637,5.571
		c2.984,0.451,23.125-93.349,22.465-90.214c-1.711,8.143,0.34,92.571,3.64,92.594c29.58,0.199,61.621-6.666,61.621-6.666
		S7161.43-772.285,7112.313-827.193z"/>
	<path fill="#D2DAD9" d="M7020.207-981.08c-11.523,17.731-10.854,112.901-10.854,112.901l49.934,5.621L7020.207-981.08z"/>
	<polygon fill="#E5AFAC" points="6958.693,-910.559 7028.289,-849.375 7037.917,-866.25 7008.684,-897.817 	"/>
	<path fill="#E5AFAC" d="M6995.881-910.504c0,0-4.893-12.629-6.365-15.259c-1.473-2.63-13.336-8.893-12.301-5.41
		c1.035,3.48,3.533,6.526,4.063,9.462c0.527,2.938,1.746,11.982,1.746,11.982L6995.881-910.504z"/>
	<g>
		<g>
			<path fill="#AA1818" d="M6981.909-906.765l-23.069,2.403c-3.291,0.343-6.612-0.24-9.592-1.685l-42.348-20.532
				c-2.957-1.434-2.184-5.851,1.085-6.191l23.067-2.403c3.293-0.343,6.614,0.24,9.594,1.685l42.348,20.532
				C6985.95-911.522,6985.178-907.105,6981.909-906.765z"/>
			<polygon fill="#534938" points="6983.407,-903.169 6984.668,-908.992 6971.789,-910.559 			"/>
			<polygon fill="#AA1818" points="6905.091,-929.955 6903.658,-922.966 6919.325,-921.778 			"/>
		</g>
		<path fill="#FF5252" d="M6980.51-900.317l-23.068,2.404c-3.293,0.343-6.613-0.241-9.594-1.686l-42.347-20.531
			c-2.956-1.434-2.183-5.852,1.084-6.191l23.069-2.404c3.291-0.343,6.613,0.241,9.592,1.685l42.348,20.532
			C6984.551-905.075,6983.777-900.658,6980.51-900.317z"/>
	</g>
	<g>
		<g>
			<path fill="#FFFFFF" d="M7020.207-981.08l90.852-25.414c0,0,39.4,79.04-2.265,178.064l-88.587-5.048
				C7020.207-833.477,7037.619-905.721,7020.207-981.08z"/>
			<polygon fill="#E2EDED" points="7108.494,-950.409 7091.568,-860.893 7134.553,-866.443 			"/>
			<path fill="#E8EFEE" d="M7029.107-842.333c0,0-20.479-3.691-25.914,15.099c-5.438,18.789-16.396,26.738-16.396,26.738
				s22.833,2.829,28.732-5.781C7021.432-814.889,7029.107-842.333,7029.107-842.333z"/>
			<path fill="#FFFFFF" d="M7024.34-845.814c0,0,16.621,7.958,22.479,23.803c5.858,15.845-13.047,29.16-12.248,40.504
				c0,0-12.088-6.844-12.537-20.345C7021.754-810.279,7024.34-845.814,7024.34-845.814z"/>
			<polygon fill="#F0BEB9" points="7051.941,-1052.712 7016.061,-1052.712 7044.045,-990.679 7046.248,-960.273 7081.311,-998.172 
							"/>
			<polygon fill="#E5AFAC" points="7040.145,-999.325 7060.959,-1019.452 7044.045,-990.679 			"/>
			<path fill="#E7A376" d="M7012.7-1005.544h-33.892c0,0-6.901-12.613,5.174-22.116c12.076-9.502-3.506-28.981,20.773-41.897
				L7012.7-1005.544z"/>
			<g>
				<g>
					<g>
						<path fill="#F0BEB9" d="M7034.547-991.714c0,0,16.689-4.286,28.652-41.578l-1.098-13.744
							c-1.611-20.21-20.963-34.131-40.602-29.208l0,0c-15.528,3.892-25.975,18.454-24.699,34.434l3.082,11.524
							C7001.498-1010.076,7014.908-986.792,7034.547-991.714z"/>
					</g>
				</g>
			</g>
			<g>
				<path fill="#FF9791" d="M7079.88-1055.92c4.769,8.104,2.073,18.544-6.019,23.318c-8.092,4.775-18.517,2.076-23.283-6.027
					c-4.769-8.104-2.074-18.544,6.018-23.318C7064.688-1066.722,7075.111-1064.023,7079.88-1055.92z"/>
			</g>
			<g>
				<path fill="#E7A376" d="M7039.83-1012.144l-2.623-2.132c0.493-0.611,11.914-15.165-2.191-30.745l2.504-2.273
					C7053.604-1029.525,7039.971-1012.316,7039.83-1012.144z"/>
			</g>
			<path fill="#E7A376" d="M7032.227-1074.2c0,0-9.652,19.089,11.246,39.738c10.055,9.934,0,21.251,0,21.251h63.643
				c0,0,12.38-29.655-12.943-38.411c-18.447-6.38-6.658-20.833-43.905-31.165L7032.227-1074.2z"/>
			<path fill="#E7A376" d="M7039.611-1038.675c-4.89-4.271-14.142-10.868-20.066-28.182c0,0-3.411,9.68-14.788,15.235
				c-16.56,8.085-7.958,25.083-7.958,25.083s-17.921-39.781-2.025-56.247c0,0,26.344-8.57,55.492,0
				C7050.266-1082.787,7048.688-1030.747,7039.611-1038.675z"/>
			<g>
				<polygon fill="#F0BEB9" points="7060.841,-878.934 7046.262,-858.215 6997.374,-889.8 7003.872,-909.15 				"/>
				<path fill="#F0BEB9" d="M7003.872-909.15c0,0-19.36-11.234-24.788-12.093c-5.426-0.858-25.418,0.858-31.986,0
					c-6.568-0.858,3.428,11.029,19.135,12.093c0,0-7.426,5.068-19.992,2.78s-23.705-7.15-21.42-2.288
					c2.285,4.862,31.703,16.876,36.844,17.447c5.141,0.572,24.979-2.573,42.4,4.291L7003.872-909.15z"/>
			</g>
			<path fill="#FFFFFF" d="M7111.059-1006.493c6.508-2.578,10.473-4.577,17.635,3.636c4.283,4.913,7.273,15.857,8.345,26.786
				c10.479,107.063-9.351,141.968-9.351,141.968l0,0c0,0.001-1.104,0.871-2.162,1.558c-21.555,13.991-110.021-40.883-110.021-40.883
				l11.127-22.714c0,0,71.333,27.659,80.879,29.571L7111.059-1006.493z"/>
			<g>
				<polygon fill="#E2EDED" points="7094.993,-870.643 7026.425,-896.028 7027.322,-898.4 7095.309,-872.615 				"/>
			</g>
		</g>
	</g>
	<g>
		<g>
			<g>
				<path fill="#176396" d="M7096.936-382.146c0,0-59.799,28.362-70.008,39.265l114.265-3.682l-4.84-36.854
					c0,0-12.746-0.99-24.897,4.584C7102.593-374.769,7096.936-382.146,7096.936-382.146z"/>
			</g>
		</g>
		<g>
			<polygon fill="#FFFFFF" points="7141.191,-346.563 7026.928,-342.881 7025.553,-332.272 7141.529,-336.01 			"/>
		</g>
	</g>
</g>
<g>
	<g>
		<g>
			<path fill="#E7A376" d="M8304.069-372.967c0,0-9.718-117.768-8.618-212.974h-50.178c0,0,15.94,64.431,43.543,213.726
				L8304.069-372.967z"/>
		</g>
	</g>
	<path fill="#FFE1E1" d="M8287.533-373.5l-15.405-73.929l29.243-0.298l4.829,80.6C8306.2-367.127,8284.42-336.27,8287.533-373.5z"/>
	<g>
		<g>
			<path fill="#FBB686" d="M8391.521-339.429c0,0-63.702-134.703-77.027-163.929c-13.325-29.225-19.458-87.936-19.458-87.936h55.903
				c0,0-0.754,63.732,4.419,77.371c5.174,13.638,43.094,114.906,48.453,166.938L8391.521-339.429z"/>
		</g>
	</g>
	<path fill="#FFE1E1" d="M8385.102-347.785l-37.872-88.715l31.946-9.399l29.322,100.211
		C8408.498-345.688,8402.352-318.894,8385.102-347.785z"/>
	<g>
		<g>
			<path fill="#41222A" d="M8303.367-961.929c0,0,2.465,32.079,20.463,32.217c31.505,0.241,18.879,46.019,31.527,53.119
				c10.865,6.1,17.512,12.146,18.516,19.005c1.825,12.46-5.439,19.548,5.27,25.927c10.711,6.38,15.297,13.468,16.727,29.67
				l-8.467,34.929c-8.445,34.841-48.707,50.903-78.761,31.422l-48.496-43.288l23.831-152.481L8303.367-961.929z"/>
		</g>
	</g>
	<g>
		<g>
			<path fill="#1A6CBE" d="M8236.609-749.434c0,0-24.803,115.218-17.667,180.262c0,0,19.585,16.408,48.175,12.307
				c28.589-4.103,71.888,15.38,94.707,0.658c22.818-14.722,38.327-29.028,38.327-29.028l-70.509-175.046L8236.609-749.434z"/>
		</g>
	</g>
	<path fill="#174C99" d="M8242.814-881.571c0,0-19.686,2.571-24.82,28.286c-5.135,25.714,7.275,58.285,7.275,58.285
		s13.693,2.143,14.977,0C8241.53-797.143,8242.814-881.571,8242.814-881.571z"/>
	<g>
		<g>
			<path fill="#1A6CBE" d="M8275.123-895.5l60.166,7.854l6.377,130.361l-105.057,7.852l-6.945-101.962
				c-1.193-17.515,9.899-33.517,26.701-38.52L8275.123-895.5z"/>
		</g>
	</g>
	<g>
		<g>
			<g>
				<path fill="#FBB686" d="M8286.416-895.253l25.082,4.682c0,0-10.769,23.215-44.381,23.215c-17.496,0-26.562-13.948-26.562-13.948
					l12.957-8.41L8286.416-895.253z"/>
			</g>
		</g>
		<g>
			<rect x="8253.619" y="-920.216" fill="#FBB686" width="32.797" height="49.289"/>
		</g>
		<g>
			<polygon fill="#E7A376" points="8253.619,-920.216 8276.745,-920.216 8286.416,-906.553 8254.684,-879.127 			"/>
		</g>
		<g>
			<g>
				<g>
					<g>
						<g>
							<g>
								<path fill="#FBB686" d="M8242.814-889.285c0,0-15.62-5.144-16.508-36.242l-1.118-14.261
									c-1.645-20.972,15.911-38.4,36.836-36.571l0,0c16.546,1.447,29.623,14.658,30.923,31.241l1.119,14.261
									C8295.711-909.886,8263.739-887.456,8242.814-889.285z"/>
							</g>
						</g>
					</g>
				</g>
			</g>
		</g>
		<g>
			<g>
				<g>
					<g>
						<g>
							<path fill="#41222A" d="M8294.594-927.321c0,0-20.139-14.625-28.439-43.273c0,0-5.916,11.255-2.636,27.122l-38.33,3.686
								c0,0-11.075-22.353,1.364-40.248c12.44-17.895,86.015-36.964,78.312,45.643L8294.594-927.321z"/>
						</g>
					</g>
					<g>
						<g>
							<path fill="#41222A" d="M8218.874-939.398l2.519-0.784c-0.055-0.175-5.344-17.984,7.766-30.672l-1.834-1.898
								C8213.029-958.92,8218.814-939.595,8218.874-939.398z"/>
						</g>
					</g>
					<g>
						<g>
							<path fill="#41222A" d="M8291.645-938.723c0.219,0,0.353-0.006,0.396-0.006l-0.105-2.641
								c-0.113,0.011-9.648,0.284-16.701-6.555c-5.204-5.05-7.815-12.673-7.761-22.668l-2.637-0.01
								c-0.06,10.753,2.832,19.031,8.59,24.602C8280.541-939.125,8289.621-938.723,8291.645-938.723z"/>
						</g>
					</g>
					<g>
						<path fill="#FBB686" d="M8284.406-930.006c1.082,6.35,0.129,9.375,6.469,8.291c6.34-1.085,6.89-3.864,9.37-13.524
							c1.602-6.238,0.019-9.311-6.321-8.227C8287.584-942.381,8283.322-936.354,8284.406-930.006z"/>
					</g>
				</g>
			</g>
		</g>
	</g>
	<g>
		<g>
			<g>
				<path fill="#FBB686" d="M8335.195-738.305l-48.465-27.277c0,0-26.168-29.363-28.645-38.602c-2.476-9.239,3.902-0.619,7.189,2.67
					c0,0-6.592-10.188-4.018-10.189s15.914,18.393,15.914,18.393s-4.23-10.629-4.232-15.794c-0.003-5.165,3.003-3.086,4.195,1.364
					c1.192,4.45,7.102,12.146,7.102,12.146s-2.518-8.136-1.527-11.846c0.99-3.709,3.117,0.722,4.283,4.286
					c3.76,11.499,10.944,7.485,13.625,24.933l50.372,17.393L8335.195-738.305z"/>
			</g>
		</g>
	</g>
	<g>
		<g>
			<path fill="#2E86CE" d="M8335.289-887.646c0,0,35.002,36.585,40.612,120.504c1.398,20.92-20.969,27.428-46.003,32.035
				l-12.838-41.785l21.183-6.107L8335.289-887.646z"/>
		</g>
	</g>
	<g>
		<g>
			<g>
				<g>
					<path fill="#AA1818" d="M8180.574-921.002l28.886-9.26c0.442-0.143,0.917,0.103,1.059,0.545l17.363,54.332
						c0.142,0.442-0.103,0.916-0.545,1.058l-28.886,9.259c-0.443,0.144-0.917-0.102-1.059-0.545l-17.363-54.332
						C8179.889-920.388,8180.132-920.86,8180.574-921.002z"/>
				</g>
				<g>
					<g>
						<path fill="#FF5252" d="M8176.996-919.855l28.886-9.259c0.442-0.143,0.917,0.103,1.059,0.545l17.363,54.331
							c0.142,0.443-0.103,0.916-0.545,1.059l-28.886,9.26c-0.443,0.142-0.917-0.103-1.059-0.546l-17.363-54.331
							C8176.311-919.24,8176.555-919.714,8176.996-919.855z"/>
					</g>
				</g>
				<g>
					<g>
						<path fill="#E53C3C" d="M8205.713-914.111L8205.713-914.111c1.287-0.412,1.997-1.792,1.585-3.081l-1.65-5.165
							c-0.412-1.289-1.79-2-3.077-1.588l0,0c-1.287,0.413-1.996,1.793-1.585,3.082l1.651,5.165
							C8203.049-914.409,8204.426-913.698,8205.713-914.111z"/>
					</g>
				</g>
				<g>
					<g>
						<circle fill="#AA1818" cx="8203.336" cy="-921.552" r="1.918"/>
					</g>
					<g>
						<circle fill="#AA1818" cx="8204.949" cy="-916.504" r="1.918"/>
					</g>
				</g>
			</g>
			<g>
				<g>
					<path fill="#FBB686" d="M8187.305-888.227c0.523-3.096,1.946-15.051,3.215-15.651c1.271-0.6,14.904-9.359,15.854-5.823
						c0.948,3.537-10.396,4.612-9.958,18.555c0,0,11.651-10.09,21.398-15.326c3.195-1.715,0.924,6.891-4.502,14.481
						c0,0,6.104-4.067,10.29-4.944c2.37-0.497,0.086,6.556-3.147,10.152c0,0,3.29-1.84,6.048-1.97
						c1.813-0.086,0.711,7.119-3.503,9.934c-4.214,2.813-9.183,4.406-8.971,9.642c0.213,5.235-0.801,11.778-4.624,14.102
						l16.071,54.86l-27.029,8.664l-11.771-71.068C8186.674-862.619,8186.041-880.763,8187.305-888.227z"/>
				</g>
			</g>
		</g>
		<g>
			<g>
				<path fill="#174C99" d="M8231.627-811.08l-41.572-6.726c0,0-0.051,54.084,20.71,59.635c20.759,5.551,27.771,6.028,27.771,6.028
					L8231.627-811.08z"/>
			</g>
		</g>
	</g>
	<g>
		<g>
			<g>
				<g>
					<g>
						<path fill="#102465" d="M8286.708-376.309c0,0-34.903,16.554-40.861,22.918l66.692-2.149l-2.824-21.511
							c0,0-7.439-0.578-14.532,2.676C8290.01-372.003,8286.708-376.309,8286.708-376.309z"/>
					</g>
				</g>
			</g>
		</g>
		<g>
			<g>
				<polygon fill="#FFE1E1" points="8312.539,-355.54 8245.847,-353.391 8245.045,-347.199 8312.737,-349.381 				"/>
			</g>
		</g>
	</g>
	<g>
		<g>
			<g>
				<g>
					<g>
						<path fill="#102465" d="M8385.354-349.969c0,0-35.721,16.942-41.818,23.455l68.254-2.199l-2.891-22.015
							c0,0-7.613-0.591-14.872,2.738C8388.733-345.562,8385.354-349.969,8385.354-349.969z"/>
					</g>
				</g>
			</g>
		</g>
		<g>
			<g>
				<polygon fill="#FFE1E1" points="8411.789,-328.713 8343.535,-326.514 8342.715,-320.178 8411.992,-322.41 				"/>
			</g>
		</g>
	</g>
</g>
<g>
	<path opacity="0.1" fill="#1C1918" enable-background="new    " d="M5945.889-347.785c0,0-6.824,30.051,154.889,36.67
		c52.948,2.168,350.741-6.394,335.761-16.877c-14.981-10.482-67.856-20.191-67.856-20.191L5945.889-347.785z"/>
	<path fill="#FF5252" d="M5979.566-925.166c0,0-48.689-54.499-50.453-54.499c-1.763,0-2.863,3.089-2.863,3.089l50.893,54.72
		L5979.566-925.166z"/>
	<path fill="#06497F" d="M6161.605-1030.354c0,0,16.114,11.033,19.199,19.049c3.084,8.017,20.856,36.553,20.856,44.202
		s2.203,17.799,1.909,22.064c-0.294,4.265-0.146,30.154-2.352,33.685c0.295,9.414,0.295,17.211,0.295,21.918
		s0.586,33.537,1.174,47.218c0.588,13.68,1.47,35.156,3.525,40.451c2.057,5.296,1.971,27.194,2.852,29.695
		c0.881,2.5,4.848,5.59,3.524,7.649c-1.321,2.059-6.462,5.884-8.813,6.03c-2.351,2.501-0.207,24.437-5.789,26.349
		c-5.58,1.912-8.225,3.677-23.646,3.53c-15.422-0.147-51.994,5.148-70.354,1.324c-18.359-3.825-11.48-12.582-12.068-14.347
		c-0.588-1.766-12.632-2.795-16.01-14.71c-3.379-11.915,6.115-41.715,6.702-50.54c0.587-8.826-4.796-101.036-3.792-107.068
		c8.285-49.789,32.027-69.782,33.936-73.166c1.91-3.383,13.265-28.772,22.813-35.097
		C6145.113-1028.441,6161.605-1030.354,6161.605-1030.354z"/>
	<path fill="#F0BEB9" d="M6151.545-1104.625c0,0,2.104,23.687,3.857,26.626c1.756,2.94,7.527,29.924,9.582,34.308
		c2.054,4.385,10.158,22.725,10.158,22.725s-24.359,17.38-37.807,17.832c-13.445,0.45-22.95,3.492-22.95,3.492
		s6.621-13.604,8.297-18.674c1.676-5.069,2.317-11.059,1.933-12.109c-0.387-1.05-4.685-0.285-4.685-0.285
		s-28.603-48.878-16.253-67.314S6151.545-1104.625,6151.545-1104.625z"/>
	<path fill="#FFE1E1" d="M6308.294-447.029l16.956,27.244c0,0-8.145,26.151-18.57,29.829c-10.43,3.678,7.168-0.38-10.314,2.956
		c-0.577,0.11-19.796-33.552-19.796-33.552L6308.294-447.029z"/>
	<path fill="#176396" d="M6323.266-425.613c0,0,18.862,18.891,19.254,20.063c0.39,1.173,3.381,0,3.381,0l6.114,6.123l-24.325,23.32
		l-5.334-2.997c0,0-17.432,27.88-23.545,30.616c-6.113,2.735-22.375,11.855-48.912,7.034c-3.771-0.911-3.122-4.429-2.342-4.82
		c-1.689-4.95,0.391-11.334,10.668-11.725c10.275-0.391,16.26-1.954,16.91-2.996c0.65-1.043,1.561-7.165,4.943-7.035
		c-3.902-5.211-1.301-26.707-1.301-28.01s3.901-13.028,3.901-13.028s11.707,7.426,15.479,7.426c3.771,0,18.211-6.774,21.595-14.461
		S6323.266-425.613,6323.266-425.613z"/>
	<path fill="#176396" d="M6056.828-357.656c0,0,3.654,17.264,3.092,19.891c1.219,2.439,2.249,9.383,1.219,10.791
		c-1.03,1.406-37.85,2.251-37.85,2.251v-3.377c0,0-18.082,4.784-29.137,4.128c-11.056-0.657-54.244-17.357-54.619-18.108
		s0.938-3.847,2.154-3.284c0.843-2.813,0.563-7.225,8.059-7.131c7.494,0.094,20.797,0.376,24.92-0.656
		c4.121-1.032,7.869-3.19,10.68-4.034c2.811-0.845,19.02-13.324,20.986-14.168c1.967-0.845,16.207,6.099,26.605,8.632
		c10.398,2.533,23.141,1.032,23.141,1.032L6056.828-357.656z"/>
	<path fill="#102465" d="M6173.094-748.944c0,0,14.102,51.631,12.56,57.81c-1.543,6.178-0.866,6.398,0.117,9.046
		c0.983,2.647,2.746,4.192,2.746,8.825c0,4.634-0.881,4.634,0.44,9.268c1.321,4.633,5.508,11.253,6.609,18.313
		c1.102,7.06,0.66,18.755,1.322,23.168c0.66,4.413,1.101,5.074,0.881,12.576c-0.222,7.502-0.881,10.812,0.439,14.121
		c1.322,3.31,3.527,4.854,4.628,7.723c1.101,2.868,3.304,11.915,3.304,11.915s0.221,4.192,0.881,7.061
		c0.661,2.869-5.947-0.883,1.543,3.972c7.49,4.854,112.802,121.134,112.802,121.134s-22.252,22.063-27.099,28.021
		c-4.849,5.958-18.508,10.591-18.508,10.591s-18.285-16.548-22.03-23.388c-3.745-6.841-42.077-58.03-50.892-64.429
		c-8.815-6.399-54.641-42.805-58.826-52.954c-4.187-10.15-38.996-120.473-38.996-120.473v-84.727L6173.094-748.944z"/>
	<path fill="#FFE1E1" d="M6017.441-906.484c0,0-5.949-5.185-7.933-8.053c-1.981-2.869-5.287-10.813-8.813-13.019
		c-3.524-2.207-10.795-8.826-12.227-9.929c-1.434-1.104-10.025-7.061-10.025-7.061s-7.379,0.275-8.701,0.275
		c-2.147-0.938-6.555-1.82-6.004,0.221c0.552,2.041,2.918,8.108,10.851,6.84c3.58,4.027,6.004,5.13,4.957,5.461
		c-1.046,0.331-11.181-4.137-12.668-4.247c-3.14-3.199-9.692-6.729-9.692-6.729s0.494-3.089-1.322-3.255s-10.189,1.323-6.83,6.896
		c3.359,5.57,3.967,4.854,3.967,4.854s-2.479-0.552-2.259,3.751s-0.056,6.013,1.267,7.281c1.324,1.269,8.924,6.179,8.924,6.179
		s-1.487,8.715-0.771,9.874c0.716,1.157,3.581,1.654,3.581,1.654s-2.754,5.24,2.588,8.054c5.343,2.813,18.894,6.067,29.742,6.95
		c8.924,4.688,18.728,12.411,18.728,12.411s6.113-1.655,9.64-7.998C6027.961-892.418,6028.236-894.9,6017.441-906.484z"/>
	<path fill="#C3FFFF" d="M6029.118-901.52c-0.44-0.883-13.329-8.495-13.329-8.495s-12.668,25.374-12.559,28.573
		c0.11,3.199,0,12.356,0,12.356l18.396,5.296L6029.118-901.52z"/>
	<path fill="#043370" d="M6202.837-758.211c0,0,0.44,42.805-12.118,58.47c-12.559,15.666-38.057,46.336-40.18,52.073
		c-2.121,5.736-34.066,68.62-35.168,75.46c-1.103,6.84,5.287,3.751-1.763,14.782c-7.051,11.033-14.565,10.15-13.451,20.741
		c1.112,10.591-2.632,40.157-8.142,56.485c-5.508,16.327-22.967,74.136-23.709,78.99c-0.744,4.854,0.742,10.149,0,11.032
		c-0.744,0.883-10.735,34.488-10.735,34.488s-14.903,0.508-21.073,0c-6.169-0.509-29.631-13.954-29.631-13.954
		s0.988-36.421,6.277-42.819c5.287-6.398,3.965-9.929,3.084-23.388c-0.881-13.46,11.457-57.589,15.643-70.827
		c4.188-13.239,1.102-24.712,1.542-30.891c0.44-6.178,18.065-77.666,19.608-90.243c1.541-12.577,30.844-84.728,30.844-84.728
		s-3.084-38.612-2.203-42.805c0.882-4.192,107.52-11.253,121.175-3.751"/>
	<path fill="#FFE1E1" d="M6083.634-1132.77c-4.028,3.177-21.612,13.686-23.177,31.423s1.624,29.402,10.68,41.133
		c9.058,11.731,3.155,20.648,4.324,22.355c1.17,1.707,7.691,3.47,11.211,2.496c6.357,5.757,15.633,13.712,16.638,14.763
		c1.005,1.05,5.714,1.686,8.185,0.789c2.469-0.897,9.594-8.818,10.696-10.536c1.104-1.718,15.069-19.278,14.558-23.939
		c-0.515-4.662-12.64-24.206-12.64-24.206s39.497,2.905,26.235-29.398C6137.084-1140.193,6100.396-1145.986,6083.634-1132.77z"/>
	<path fill="#176396" d="M6161.417-994.301c0,0,14.694,5.958,18.804,10.148c4.109,4.192,12.922,21.184,13.804,26.479
		c0.882,5.296,0.222,13.459-1.321,18.313c-1.541,4.854-38.774,68.62-45.824,77.227c-7.051,8.604-32.846,40.819-41.648,39.054
		c-8.805-1.765-29.514-6.84-35.902-11.252c-6.39-4.413-37.467-20.3-43.299-20.3s-21.475-12.805-15.967-26.149
		c5.508-13.346,10.355-27.026,17.847-25.923s5.288,5.075,12.117,8.385c6.83,3.31,12.338,2.868,14.981,5.736
		c2.645,2.869,6.168,1.766,11.457,5.075c5.287,3.31,5.508,3.53,11.455,5.736c5.949,2.207,12.447,1.986,14.541,2.538
		c0.221-3.861-0.109-4.523,2.976-7.171c3.084-2.648,2.644-6.84,5.838-10.591s8.151-18.534,11.456-23.278s1.322-27.029,4.296-34.972
		C6119.998-963.189,6124.295-997.831,6161.417-994.301z"/>
	<path fill="#C3FFFF" d="M6172.225-1033.131c0,0,6.809,5.514,6.592,11.816c-0.215,6.302,4.07,6.743,2.859,8.088
		s-21.777,2.383-24.977,6.35c-3.199,3.968-46.787,26.475-50.209,28.433c-0.105-5.229,3.724-4.583,3.916-10.748
		c0.192-6.165-2.873-13.021-1.845-14.959c1.03-1.939,15.077-3.513,22.062-7.406c6.983-3.893,20.891-16.336,27.004-18.403
		C6163.741-1032.027,6172.225-1033.131,6172.225-1033.131z"/>
	<path fill="#120236" d="M6159.293-1064.527c0,0-24.471-2.878-32.529-14.076c-8.057-11.198-5.924-13.183-7.35-13.183
		c-10.24,0-3.844,17.383-8.131,14.571c-4.66-3.057-8.091-13.192-8.695-15.31c-0.604-2.119-11.28,0.807-14.403-8.071
		c0,0-6.915,22.286-20.685,25.456c-11.685,2.69-28.574,6.121-26.056-16.477c2.519-22.597,34.534-69.383,80.283-58.915
		c37.058-16.468,37.397,65.977,37.599,69.407C6159.529-1077.695,6159.689-1073.856,6159.293-1064.527z"/>
	<path fill="#FFE1E1" d="M6112.995-1081.714c-0.054-16.362,12.481-12.63,15.647-6.048s3.649,17.614-0.232,20.194
		c-3.883,2.579-7.938-1.52-8.152-1.568L6112.995-1081.714z"/>
</g>
<g>
	<path fill="#894E58" d="M6564.059-879.504c-1.314-20.158-1.047-40.408,3.27-60.075c4.129-18.811,12.251-37.119,24.992-51.688
		c13.859-15.847,32.705-22.555,53.646-18.411c12.506,2.474,24.158,8.044,35.582,13.712c13.53,6.715,26.957,13.644,40.271,20.783
		c5.935,3.182,12.222,6.794,15.069,12.901c2.992,6.418,1.431,13.935-0.187,20.829c-4.08,17.4-8.181,34.87-14.701,51.509
		c-6.168,15.738-14.489,30.707-18.69,47.082c-4.897,19.092-3.959,39.125-5.598,58.77c-0.443,5.323-1.264,11.041-4.955,14.896
		c-2.787,2.911-6.771,4.276-10.594,5.544c-10.129,3.354-20.256,6.71-30.385,10.065c-12.85,4.257-26.123,8.569-39.615,7.511
		c-8.586-0.674-17.305-4.285-23.855-9.88c-8.549-7.301-8.08-14.515-10.119-24.477c-5.402-26.397-9.689-52.974-12.467-79.782
		C6565.061-866.62,6564.479-873.058,6564.059-879.504z"/>
	<path fill="#A76478" d="M6531.896-334.124c19.959,4.94,40.655,6.849,61.168,5.663c5.961-0.338,12.016-0.984,17.746-2.631
		c2.72-0.77,5.362-1.77,7.897-3.078c9.571-4.939,21.203-17.142,23.354-28.144c1.412-7.278-8.959-3.017-13.705-3.047
		c-7.146-0.031-14.274-1.431-20.867-4.14c-2.949-1.2-5.945-2.692-9.11-2.478c-4.519,0.308-7.99,3.894-11.433,6.832
		c-7.006,5.986-15.642,10.049-24.723,11.618c-6.744,1.154-13.813,1-20.158,3.57c-4.794,1.954-9.127,6.201-10.218,11.018
		C6531.497-337.385,6531.48-335.754,6531.896-334.124z"/>
	<path fill="#C3FFFF" d="M6531.896-334.124c19.959,4.94,40.655,6.849,61.168,5.663c5.961-0.338,12.016-0.984,17.746-2.631
		c0.369-0.415,0.676-0.893,0.906-1.399c-7.375,0.568-14.78,0.83-22.188,0.753c-13.184-0.138-26.366-1.308-39.363-3.492
		c-3.273-0.539-6.53-1.154-9.772-1.832c-2.013-0.43-6.423-2.339-8.543-1.877C6531.497-337.385,6531.48-335.754,6531.896-334.124z"/>
	<path fill="#B57079" d="M6592.158-317.734c33.096,8.186,69.266,5.262,100.41-8.648c0.199-1.893,0.275-3.801,0.246-5.709
		c-0.123-8.494-2.49-16.941-6.822-24.251c-7.146,2.262-14.873-0.908-21.512-4.401c-6.637-3.493-13.014-7.863-20.373-9.248
		c-6.838,5.878-12.031,13.771-18.27,20.281c-5.039,5.294-11.063,9.647-17.64,12.818c-2.78,1.339-5.653,2.462-8.328,3.984
		c-2.674,1.523-5.179,3.494-6.774,6.141c-0.83,1.369-1.383,3.001-1.537,4.646C6591.391-320.612,6591.574-319.089,6592.158-317.734z"
		/>
	<path fill="#C3FFFF" d="M6592.158-317.734c33.096,8.186,69.266,5.262,100.41-8.648c0.199-1.893,0.275-3.801,0.246-5.709
		c-1.477,0.615-3.273,1.938-4.318,2.416c-1.967,0.923-3.963,1.801-5.977,2.6c-8.098,3.231-16.533,5.556-25.105,7.079
		c-4.871,0.847-9.789,1.446-14.721,1.785c-17.102,1.216-34.325-0.478-51.135-3.909
		C6591.391-320.612,6591.574-319.089,6592.158-317.734z"/>
	
		<linearGradient id="SVGID_5_" gradientUnits="userSpaceOnUse" x1="6385.3467" y1="2618.2705" x2="6581.8208" y2="2651.0164" gradientTransform="matrix(1 0 0 -1 116 2079)">
		<stop  offset="0" style="stop-color:#7FCADB"/>
		<stop  offset="0.1068" style="stop-color:#6EB4CB"/>
		<stop  offset="0.4111" style="stop-color:#407BA3"/>
		<stop  offset="0.6722" style="stop-color:#1F5285"/>
		<stop  offset="0.8769" style="stop-color:#0B3873"/>
		<stop  offset="1" style="stop-color:#032F6C"/>
	</linearGradient>
	<path fill="url(#SVGID_5_)" d="M6550.688-553.186c3.06,19.574,12.309,37.531,20.205,55.705
		c17.717,40.809,29.057,84.402,33.48,128.673c26.843,4.894,53.839,9.987,80.697,14.864c15.519-46.071,21.004-95.496,15.994-143.846
		c-2.32-22.405-6.867-44.578-8.158-67.06c-1.062-18.251,0.045-36.563,2.119-54.721c1.215-10.463,2.735-20.911,4.364-31.329
		c1.505-9.694,3.871-19.02,5.776-28.684c3.902-19.758,5.332-40.008,4.209-60.12c-0.414-7.386-1.229-14.803-3.194-21.942
		c-1.122-4.001-5.286-17.851-9.896-17.974c-1.752-0.03-5.133,2.4-6.791,3.124c-2.105,0.908-4.211,1.771-6.347,2.615
		c-4.44,1.739-8.942,3.324-13.49,4.74c-9.11,2.831-18.423,5.017-27.842,6.522c-21.042,3.387-42.313,1.831-62.409-5.611
		c-0.797,41.979-9.764,82.653-17.986,123.64c-1.754,8.737-3.57,17.463-5.31,26.203
		C6551.702-596.902,6547.293-574.851,6550.688-553.186z M6642.801-442.608c-7.421-39.224-21.111-77.493-40.148-112.27
		c9.711-22.143,20.806-44.732,30.562-66.891c0.2-0.416,0.369-0.816,0.554-1.231c6.393,34.1,12.783,68.214,19.19,102.314
		c3.856,20.604,7.744,41.408,7.16,62.382c-0.601,21.805-6.022,43.163-11.416,64.307
		C6647.841-410.247,6645.843-426.497,6642.801-442.608z"/>
	<path fill="#043370" d="M6594.848-567.896c0.139,26.498,10.756,51.766,22.816,75.355c8.48,16.572,17.809,32.868,25.137,49.933
		c-7.42-39.224-21.11-77.493-40.147-112.27c9.711-22.143,20.806-44.732,30.562-66.891c-0.246-2.124-0.508-4.247-0.783-6.355
		c-1.015-7.879-2.151-15.741-3.334-23.59c-0.601-3.923-1.199-7.848-1.813-11.757c-0.538-3.462-0.799-6.895-1.29-10.341
		c-0.246-1.754-0.521-3.585-1.566-5.031c-0.938-1.308-2.383-2.124-3.78-2.908c-3.549-2.001-6.976-4.447-10.54-6.447
		c4.532,19.866,0.661,40.624-4.302,60.366C6600.824-608.074,6594.738-588.27,6594.848-567.896z"/>
	<path fill="#99626E" d="M6727.479-829.006c0.459-3.325-0.367-6.678-1.188-9.933c-3.083-12.227-6.165-24.454-9.248-36.681
		c-3.494-13.86-7.008-27.858-7.385-42.148s2.645-29.1,11.128-40.597c3.294-4.464,8.14-8.653,13.657-8.118
		c4.488,0.436,8.068,3.89,10.823,7.466c13.644,17.721,15.74,41.474,17.315,63.794c1.24,17.594,2.482,35.188,3.726,52.782
		c0.687,9.724,1.364,19.59-0.563,29.146c-1.926,9.555-6.817,18.929-15.056,24.122c-3.424,2.159-11.813-0.667-15.103-2.063
		c-5.106-2.168-9.529-5.775-12.865-10.205C6715.15-811.496,6726.082-818.869,6727.479-829.006z"/>
	<path fill="#C69675" d="M6721.484-807.381c-0.035,0.085-0.069,0.17-0.104,0.255c-4.282,11.005-8.215,21.944-14.884,31.866
		c-3.14,4.67-6.679,9.07-10.567,13.135c-3.584,3.744-8.39,9.361-13.222,11.445c-4.746,2.046-10.965,2.291-16.033,3.258
		c-5.618,1.072-11.3,2.439-16.235,5.447c-0.537,8.521,2.347,17.343,7.121,24.414c4.773,7.072,11.936,12.496,20.029,15.172
		c6.273-3.036,10.77-8.438,15.078-13.922c1.434-1.823,2.865-3.646,4.298-5.469c9.878-12.573,19.756-25.146,29.635-37.72
		c4.938-6.286,9.878-12.573,14.817-18.859c4.388-5.585,9.143-11.543,11.502-18.354c1.494-4.316,1.761-9.261-0.31-13.333
		c-2.29-4.508-7.062-7.268-11.915-8.664c-1.671-0.48-3.402-0.832-5.141-0.734c-3.25,0.185-6.25,1.95-8.551,4.257
		C6724.904-813.078,6722.639-810.176,6721.484-807.381z"/>
	<path fill="#894E58" d="M6598.848-995.823c-6.109,6.881-15.713,9.203-23.691,13.777c-11.402,6.536-19.495,17.825-24.557,29.969
		c-5.061,12.144-7.379,25.227-9.584,38.198c-2.205,12.972-4.358,26.065-9.119,38.33c-1.543,3.979-3.363,7.877-4.317,12.037
		c-0.955,4.159-0.972,8.71,0.991,12.499c1.361-5.729,6.979-9.497,12.854-9.708c5.877-0.211,11.502,2.364,16.485,5.488
		c4.981,3.125,9.604,6.864,14.901,9.419c-0.855-16.322,3.445-32.908,7.172-48.821c6.529-27.886,13.06-55.771,19.588-83.658
		C6600.854-983.775,6600.359-990.4,6598.848-995.823z"/>
	<path fill="#6D3A45" d="M6569.945-846.557c-3.194-14.349-4.584-29.1-4.127-43.793c-3.732,7.923-7.32,15.809-11.054,23.732
		c-1.171,2.486-2.372,5.202-1.794,7.89c0.48,2.238,2.122,4.031,3.809,5.578C6560.473-849.762,6565.377-848.611,6569.945-846.557z"/>
	<path fill="#C69675" d="M6575.297-813.88c0.113,0.157,0.234,0.313,0.361,0.465c1.443,1.735,3.428,2.929,5.047,4.502
		c2,1.943,3.455,4.602,3.403,7.393c-0.039,2.175-1.144,4.405-2.985,5.602c-0.826,0.536-1.738,0.793-2.574,1.309
		c-1.115,0.688-2.373,0.967-3.646,1.209c-3.61,0.687-7.26,1.357-10.933,1.215c-3.67-0.144-7.416-1.169-10.231-3.532
		c-4.271-3.584-5.666-9.434-7.856-14.564c-2.688-6.301-6.819-11.853-10.547-17.599c-3.449-5.316-6.644-11.036-7.414-17.329
		c-0.771-6.293,1.379-13.305,6.696-16.745c4.761-3.079,11.021-2.741,16.418-1.012c5.896,1.89,11.401,5.416,14.888,10.538
		c4.114,6.047,5.076,13.632,5.924,20.899c0.545,0,0.967,6.978,1.02,7.51C6573.201-820.546,6573.184-816.797,6575.297-813.88z"/>
	<path fill="#A57A5D" d="M6659.051-1022.958c1.367,12.204,7.805,23.758,17.455,31.334c-5.859,12.315-12.004,25.011-22.354,33.88
		c-3.772,3.232-8.097,5.774-13.023,6.671c-2.291,0.417-3.434,0.584-5.359-0.797c-2.084-1.492-4.019-3.272-5.848-5.063
		c-7.098-6.948-12.58-15.559-15.796-24.967c5.974-14.2,14.454-27.698,25.097-38.827c1.627-1.7,3.36-3.396,5.537-4.286
		C6649.352-1026.888,6654.563-1025.072,6659.051-1022.958z"/>
	<path fill="#102465" d="M6584.343-1047.655c0.292,3.355,0.722,6.694,1.183,9.987c2.014,14.249,4.765,28.791,10.356,41.947
		c2.489,5.863,5.546,11.449,9.342,16.604c2.028,2.739,4.44,5.479,7.713,6.479c4.608,1.4,9.419-1.031,13.612-3.37
		c6.039-3.37,12.123-6.771,17.332-11.325c5.209-4.555,9.526-10.402,11.078-17.157c0.354-1.523,0.554-3.093,0.783-4.647
		c0.338-2.215,0.723-4.416,1.646-6.432c1.798-3.924,5.424-6.74,7.405-10.572c2.488-4.831,2.059-10.602,1.566-16.034
		c-0.092-0.938-0.152-1.893-0.215-2.862c-0.77-12.541,0.309-26.774-6.546-37.455c-6.791-10.586-18.453-18.172-31.054-19.235
		c-17.393-1.461-35.123,9.618-41.438,25.929C6583.666-1066.905,6583.467-1057.241,6584.343-1047.655z"/>
	<path fill="#C69675" d="M6655.729-1009.169c0.354-2.185,0.736-4.385,1.66-6.401c1.797-3.924,5.424-6.74,7.404-10.572
		c2.488-4.831,2.059-10.602,1.566-16.034c-0.092-0.938-0.152-1.893-0.215-2.862c-2.935-1.108-6.115-0.908-8.896,1.431
		c-3.119,2.632-4.44,6.802-5.04,10.833C6651.057-1024.789,6652.286-1016.464,6655.729-1009.169z"/>
	<path fill="#C69675" d="M6584.343-1047.655c0.292,3.355,0.722,6.694,1.183,9.987c2.014,14.249,4.765,28.791,10.356,41.947
		c2.704,1.878,5.47,3.693,7.358,6.371c2.475,3.478,3.442,8.355,7.19,10.387c4.024,2.17,8.974-0.185,12.569-3.016
		c7.066-5.556,12.43-12.987,17.084-20.681c3.703-6.124,7.114-12.788,7.237-19.943c0.14-7.17-3.964-14.864-10.878-16.681
		c1.014-4.862,2.027-9.955,0.676-14.726c-1.352-4.786-5.9-9.048-10.802-8.264c-4.302,0.677-7.114,4.694-9.94,8.017
		c-4.025,4.771-9.25,8.817-15.351,10.171c-3.288,0.724-6.821,0.539-10.002-0.615
		C6588.799-1045.5,6586.277-1048.517,6584.343-1047.655z"/>
	<path fill="#AA1818" d="M6569.171-844.071l39.905,52.5l0.213,6.644l-35.094-6.511c2.217,0.195,5.084-1.211,6.908-2.297
		c2.183-1.301,4.061-3.33,4.597-5.817c0.731-3.395-4.927-11.911-7.399-14.345c-6.31-6.208-16.908-7.35-24.471-2.82l-17.041-20.754
		v-3.432L6569.171-844.071z"/>
	<path fill="#FF5252" d="M6566.234-840.062l42.625,54.616l-29.396,3.52l-9.19-11.194c2.217,0.195,5.082-1.211,6.906-2.298
		c2.184-1.3,4.063-3.33,4.598-5.816c0.73-3.395-1.164-6.854-3.637-9.288c-6.311-6.208-16.909-7.35-24.471-2.82l-17.041-20.754
		v-3.432L6566.234-840.062z"/>
</g>
<polygon fill="#EABBAB" points="1131.042,1530.838 962.095,1839.645 1135.214,1840.69 1208.911,1599.074 "/>
<g>
	<g>
		<g>
			<g>
				<g>
					<path fill="#102465" d="M1462.769,1389.581l-142.034,6.951c-57.405,2.81-101.977,48.774-99.356,102.464
						c2.618,53.689,51.452,95.083,108.857,92.273l142.034-6.95l4.072,83.459l-142.034,6.95
						c-51.643,2.527-103.214-11.605-141.397-43.972c-38.184-32.367-56.289-79.244-60.769-127.395
						c-4.392-47.191-1.681-97.443,33.171-133.385c34.852-35.94,99.707-54.377,151.35-56.904l142.035-6.951L1462.769,1389.581z"/>
				</g>
			</g>
			<g>
				<polygon fill="#FF5252" points="1537.794,1556.712 1541.866,1640.171 1452.976,1644.521 1448.905,1561.063 				"/>
				<path fill="#1A6CBE" d="M1439.402,1366.324l-132.641,6.492c-53.61,2.623-95.093,48.438-92.473,102.127
					s48.365,95.234,101.974,92.61l132.643-6.491l4.07,83.458l-132.641,6.491c-48.229,2.36-94.488-14.229-130.258-46.715
					c-35.769-32.486-56.767-76.977-59.122-125.277c-2.357-48.3,14.208-94.63,46.645-130.452s76.861-56.851,125.09-59.211
					l132.641-6.491L1439.402,1366.324z"/>
				<polygon fill="#FF5252" points="1524.221,1278.516 1528.293,1361.975 1439.402,1366.324 1435.33,1282.865 				"/>
			</g>
			<polygon fill="#FF7D7D" points="1571.526,1663.12 1541.866,1640.171 1537.794,1556.712 1567.455,1579.661 			"/>
			<polygon fill="#FF7D7D" points="1557.815,1385.775 1528.231,1361.541 1524.159,1278.082 1553.819,1301.03 			"/>
			<polygon fill="#BC2A2A" points="1571.526,1663.12 1541.866,1640.171 1452.976,1644.521 1476.387,1667.776 			"/>
			<polygon fill="#BC2A2A" points="1557.953,1384.923 1528.293,1361.975 1439.402,1366.324 1462.813,1389.579 			"/>
		</g>
		<g>
			<g>
				<path fill="#EABBAB" d="M1252.642,1589.734c-0.593-0.9-1.253-1.806-1.812-2.735c-2.308-3.657-4.178-7.878-4.637-12.526
					c-0.59-4.655,0.878-9.561,3.421-13.368c2.276-3.33,5.293-5.949,8.372-8.069c0.452-0.33,0.903-0.659,1.349-0.926
					c3.457-2.323,7.128-4.401,10.884-6.31c0.919-0.427,1.804-0.826,2.691-1.291c6.203-2.984,12.572-5.561,19.107-7.664
					c0.442-0.201,0.945-0.328,1.419-0.493c1.954-0.651,3.966-1.167,6.037-1.611c2.063-0.314,4.148-0.957,6.573,0.14
					c3.55,2.824,6.005,6.229,8.317,9.823c2.275,3.621,4.136,7.546,5.146,11.837c0.98,4.258,1.263,9.056-0.867,13.55
					c-1.137,2.095-3.115,3.997-4.932,5.021c-1.825,1.154-3.673,2.144-5.521,3.133c-3.756,1.907-7.563,3.612-11.341,5.353
					c-7.666,3.211-15.132,6.863-22.861,10.003c-1.964,0.781-3.895,1.534-5.885,2.217c-0.88,0.333-2.357,0.755-3.601,0.666
					c-1.219,0.011-2.42-0.239-3.544-0.616c-2.254-0.688-4.28-1.823-6.071-3.466c-0.43-0.427-0.892-0.888-1.253-1.375
					L1252.642,1589.734z"/>
				<path fill="#EABBAB" d="M1233.975,1551.484c-1.354-1.776-2.634-3.682-3.915-5.586c-2.422-3.864-5.133-7.848-5.728-13.362
					c-0.198-2.782,0.798-5.679,2.267-7.813c1.443-2.238,3.231-3.792,5.026-5.408c6.181-4.998,12.659-9.084,19.349-12.925
					c0.103-0.025,0.137-0.055,0.238-0.08c1.099-0.647,2.162-1.263,3.292-1.876c5.814-3.077,11.716-5.984,17.788-8.55
					c0.071-0.061,0.136-0.056,0.208-0.117c2.205-0.929,4.439-1.825,6.7-2.619c2.098-0.773,4.285-1.442,6.526-1.974
					c1.105-0.284,2.242-0.532,3.4-0.613c1.188-0.047,2.452-0.221,3.871,0.639c3.764,3.069,6.353,6.913,8.597,10.996
					c2.243,4.083,3.9,8.551,4.479,13.339c0.688,4.697-0.193,10.138-3.514,14.252c-1.817,1.947-3.882,3.184-5.773,4.334
					c-1.551,0.978-3.162,1.883-4.769,2.725c-0.376,0.203-0.818,0.402-1.195,0.606c-4.031,2.086-8.121,4.034-12.208,5.982
					c-6.933,3.065-13.66,6.506-20.626,9.602c-1.262,0.603-2.618,1.165-3.908,1.731c-2.17,0.9-4.04,1.722-6.534,2.532
					c-2.705,0.565-5.296-0.016-7.629-1.006C1237.711,1555.377,1235.306,1553.592,1233.975,1551.484z"/>
				<path fill="#EABBAB" d="M1193.802,1474.496l2.366,2.378c0.639,0.737,1.974,1.854,3.022,2.358
					c2.319,1.187,4.776,1.823,7.308,1.84c1.253-0.044,2.582-0.214,3.868-0.712c1.392-0.595,2.089-1.138,3.119-1.723
					c1.926-1.182,3.788-2.368,5.685-3.583c7.394-4.942,14.454-10.271,21.784-15.221c3.611-2.643,7.218-5.218,10.768-7.931
					c1.746-1.393,3.49-2.784,5.146-4.347c1.677-1.33,3.49-3.706,4.228-6.191c1.195-5.221-0.596-10.128-2.843-14.144
					c-2.345-4.057-5.39-7.505-8.689-10.609c-3.401-3.075-6.69-5.881-10.968-8.197c-2.954-0.575-4.912,0.572-7.043,1.375
					c-2.069,0.874-4.083,1.882-6.036,2.966c-3.975,2.218-7.257,5.313-10.62,8.171l-9.94,8.814
					c-6.481,5.997-13.471,11.267-19.004,19.146c-1.327,2.014-2.522,4.467-2.72,7.222c-0.229,2.785,0.561,5.544,1.827,7.645
					C1187.514,1468.079,1190.677,1471.239,1193.802,1474.496z"/>
				<path fill="#EABBAB" d="M1211.967,1523.719c2.489,1.103,5.335,1.832,8.302,1.285c2.784-0.755,4.921-1.625,7.357-2.572
					c8.501-3.382,16.714-7.312,25.066-10.933c0.819-0.401,1.704-0.801,2.553-1.169c4.59-2.078,9.119-4.226,13.63-6.54
					c1.742-0.899,3.454-1.83,5.106-2.833c0.547-0.289,1.059-0.551,1.574-0.877c1.075-0.748,2.134-1.297,3.22-2.24
					c1.119-0.91,2.235-1.818,2.954-3.12c3.343-4.87,3.305-10.805,2.42-15.944c-0.945-5.208-3.003-10.067-5.514-14.534
					c-2.614-4.437-5.572-8.635-9.671-12.095c-1.444-0.958-2.864-0.895-4.184-0.856c-1.321,0.036-2.587,0.274-3.855,0.516
					c-2.504,0.514-4.923,1.196-7.315,1.982c-9.579,3.27-18.71,7.627-27.633,12.297c-4.478,2.351-8.813,5.006-13.083,7.669
					c-4.307,2.69-8.49,5.524-12.458,9.028c-1.966,1.706-3.862,3.845-5.262,6.415c-1.473,2.631-1.882,6.063-1.189,8.847
					c1.205,5.723,4.295,9.933,7.018,14.213c1.46,2.114,2.893,4.195,4.394,6.215
					C1207.041,1520.797,1209.514,1522.589,1211.967,1523.719z"/>
				<path fill="#FBF1EE" d="M1202.246,1472.519c-2.392-5.031-13.523-15.55-13.617-15.657l-1.018-0.958l10.986-8.903
					c1.872-1.496,4.413-1.926,6.694-1.052c7.898,2.979,10.317,9.065,11.063,12.417c0.542,2.383-0.315,4.906-2.162,6.508l-0.253,0.22
					l-11.079,8.795L1202.246,1472.519z"/>
				<path fill="#FBF1EE" d="M1217.617,1511.826c-1.667-5.316-11.222-17.286-11.301-17.406l-0.876-1.091l12.121-7.279
					c2.061-1.221,4.638-1.292,6.774-0.106c7.405,4.054,8.953,10.418,9.226,13.84c0.204,2.437-0.997,4.815-3.049,6.145l-0.281,0.181
					l-12.196,7.161L1217.617,1511.826z"/>
				<path fill="#FBF1EE" d="M1245.791,1546.403c-1.585-5.055-10.672-16.438-10.747-16.551l-0.831-1.037l11.524-6.923
					c1.961-1.161,4.411-1.229,6.441-0.101c7.044,3.854,8.514,9.906,8.773,13.16c0.194,2.317-0.948,4.578-2.897,5.843l-0.27,0.171
					l-11.597,6.81L1245.791,1546.403z"/>
				<path fill="#FBF1EE" d="M1266.595,1586.264c-1.423-4.541-9.588-14.769-9.654-14.871l-0.748-0.932l10.354-6.221
					c1.762-1.043,3.964-1.103,5.788-0.091c6.329,3.463,7.65,8.902,7.883,11.826c0.175,2.082-0.852,4.113-2.604,5.248l-0.24,0.154
					l-10.421,6.119L1266.595,1586.264z"/>
			</g>
			<path fill="#EABBAB" d="M1180.529,1405.916l-50.13,26.543l-31.339,51.362l66.36,146.55
				c41.318-54.899,21.32-90.598-12.967-126.423c-5.588-5.838-7.315-14.401-4.301-21.905l8.142-20.273
				c21.239-11.835,38.475-30.886,30.613-53.594C1185.85,1405.7,1182.906,1404.657,1180.529,1405.916z"/>
		</g>
	</g>
</g>
<path fill="#FFFFFF" d="M1028.058,1486.396l-12.053-10.062c-1.042-0.871-1.182-2.428-0.312-3.473
	c0.875-1.041,2.429-1.18,3.467-0.313l8.59,7.172l19.304-19.414c0.961-0.973,2.521-0.963,3.481-0.01
	c0.967,0.963,0.967,2.523,0.01,3.486L1028.058,1486.396z"/>
<g>
	<path fill="#FFFFFF" d="M1034.749,1249.485c-6.347,0-11.51-5.17-11.51-11.526c0-6.355,5.163-11.527,11.51-11.527
		s11.51,5.172,11.51,11.527C1046.259,1244.315,1041.096,1249.485,1034.749,1249.485z M1034.749,1229.353
		c-4.738,0-8.595,3.859-8.595,8.606c0,4.746,3.856,8.606,8.595,8.606s8.595-3.86,8.595-8.606
		C1043.344,1233.212,1039.488,1229.353,1034.749,1229.353z"/>
	<path fill="#FFFFFF" d="M1048.363,1268.283h-27.229c-2.903,0-5.269-2.367-5.269-5.275c0-8.613,6.997-15.618,15.595-15.618h8.355
		c7.615,0,13.815,6.209,13.815,13.838v1.78C1053.632,1265.916,1051.269,1268.283,1048.363,1268.283z M1031.461,1250.31
		c-6.992,0-12.679,5.696-12.679,12.698c0,1.3,1.057,2.355,2.353,2.355h27.229c1.296,0,2.354-1.056,2.354-2.355v-1.78
		c0-6.021-4.891-10.919-10.9-10.919L1031.461,1250.31L1031.461,1250.31z"/>
</g>
</svg>
