<?xml version="1.0" encoding="utf-8"?>
<!-- Generator: Adobe Illustrator 16.0.0, SVG Export Plug-In . SVG Version: 6.00 Build 0)  -->
<!DOCTYPE svg PUBLIC "-//W3C//DTD SVG 1.1//EN" "http://www.w3.org/Graphics/SVG/1.1/DTD/svg11.dtd">
<svg version="1.1" id="Layer_1" xmlns="http://www.w3.org/2000/svg" xmlns:xlink="http://www.w3.org/1999/xlink" x="0px" y="0px"
	 width="212.712px" height="261.017px" viewBox="0 0 212.712 261.017" enable-background="new 0 0 212.712 261.017"
	 xml:space="preserve">
<g>
	<path fill="#FFD990" d="M161.01,40.907c-1.949-16.488-9.748-23.652-12.357-26.606c-2.527-2.864-6.576-6.202-11.398-2.563
		c-4.822,3.639-11.409,14.393-14.152,18.551c-2.734,4.147-4.502,9.719-7.268,11.24c-2.952,1.619-15.568,1.01-20.522,1.338
		c-6.776,0.443-13.54,1.469-20.095,3.266c-4.769,1.306-9.387,4.048-14.208,4.939c-2.125,0.393-7.858-5.405-11.332-7.794
		C45.9,40.678,29.099,30.048,26.442,30.539c-2.657,0.492-7.577,3.599-8.956,10.997c-1.379,7.399-1.529,19.47,0.465,26.288
		c2.992,10.231,12.184,12.398,12.184,12.398s-5.848,21.617-4.367,36.138c1.789,17.618,10.371,34.957,25.283,44.288
		c6.858,4.296,14.565,6.803,22.432,8.505c3.971,0.859,11.376,1.339,14.269,3.96c-0.308,0.546-0.731,0.879-1.188,1.299
		c-3.759,3.442-5.647,7.334-5.647,7.334s-3.796,1.939-7.781-0.801c-3.777-2.597-7.281-3.504-11.627-1.207
		c-3.549,1.876-4.239,6.794-3.562,12.828c0.438,3.879,1.512,11.259,7.886,11.609c3.779,0.205,5.305-1.671,7.342-4.105
		c2.937-3.52,7.027-3.602,10.746-4.29c3.719-0.688-3.561,8.675-7.128,13.183c-3.41,4.306-9.467,8.015-13.203,12.229
		c-8.322,9.378-2.785,17.844,8.952,19.454c7.149,0.982,28.53,3.312,25.833-11.269c-0.763-4.125-0.391-13.381-0.391-13.381
		c11.877,0.966,21.344,0.08,32.648-3.51c1.299,6,1.217,13.577,7.29,16.948c4.448,2.477,10.438-0.445,14.673-2.092
		c7.363-2.861,18.733-4.938,13.813-15.776c-2.033-4.479-5.691-7.01-9.816-8.86c2.249-1.05,4.547-2.209,6.795-3.504
		c4.662-2.695,9.162-5.909,12.596-10.086c3.293-4.021,5.507-8.417,6.619-12.967c1.115-4.558,1.131-9.227,0.284-13.78
		c-0.767-4.144-2.226-8.205-4.19-12.178c-1.324-2.677-4.568-3.771-7.24-2.446c-2.673,1.322-3.766,4.566-2.443,7.238
		c1.611,3.25,2.701,6.39,3.248,9.35c0.6,3.272,0.563,6.316-0.154,9.245c-0.723,2.926-2.117,5.787-4.486,8.697
		c-2.127,2.621-5.637,5.284-9.619,7.563c-3.983,2.289-8.412,4.242-12.332,5.792c-1.057,0.419-2.1,0.826-3.129,1.228
		c-2.269-1.703-3.369-3.682-4.408-5.059c-1.455-1.93-2.648-2.118,1.512-3.717c1.473-0.566,0.324-1.323,5.189-0.761
		c2.133,0.252,4.672,1.825,8.613,1.096c9.848-1.821,5.803-19.431-3.385-24.954c-3.361-2.021-6.441,0.287-8.26,4.175
		c-1.881,4.034-2.621,3.087-5.139,1.354c-2.518-1.731-5.036-3.465-8.086-5.098c-3.049-1.635,2.525-2.9,10.907-6.873
		c7.644-3.615,24.247-12.775,29.322-34.083c5.72-24.021-6.257-55.258-14.544-63.796C150.19,54.951,162.948,57.302,161.01,40.907
		L161.01,40.907z"/>
	<path fill="#FFFFFF" d="M73.937,121.983c-1.52-8.216,2.849-17.194,10.479-18.605c7.629-1.41,15.046,4.106,16.564,12.323
		c1.52,8.216-3.434,16.02-11.063,17.431C82.288,134.542,75.457,130.199,73.937,121.983z"/>
	<path fill="#FFFFFF" d="M104.323,111.5c0.455-6.432,2.507-14.677,15.081-14.1c7.75,0.357,12.449,9.312,11.858,17.646
		c-0.589,8.335-6.255,13.083-13.994,12.537C109.529,127.035,103.733,119.833,104.323,111.5z"/>
	<path d="M115.569,135.166c0.796,4.302-0.257,8.522-9.008,9.723c-7.681,1.055-11.095-1.556-11.89-5.858
		c-0.796-4.304,1.682-8.736,9.008-9.726C111.363,128.267,114.773,130.861,115.569,135.166z"/>
	<path fill="#B98767" d="M72.324,141.329c-3.874,0.717-5.292,4.665-4.575,8.538c0.716,3.875,5.803,5.887,9.677,5.171
		c3.869-0.716,5.065-3.89,4.349-7.763C81.059,143.4,76.198,140.613,72.324,141.329L72.324,141.329z"/>
	<path fill="#B98767" d="M56.831,124.913c-3.289,0.608-5.917,4.466-5.368,7.441c0.55,2.976,4.07,3.938,7.359,3.329
		c3.284-0.607,5.575-4.696,5.024-7.672C63.297,125.041,60.115,124.306,56.831,124.913L56.831,124.913z"/>
	<path fill="#B98767" d="M48.095,141.681c-0.991,0.184-1.856,0.661-2.455,1.436c-1.583,2.051,0.542,6.742,3.217,8.811
		c1.182,0.912,2.272,1.162,3.259,0.979c1.249-0.231,2.329-1.153,3.212-2.296c1.58-2.045,0.693-5.383-1.978-7.451
		C51.685,141.875,49.722,141.38,48.095,141.681L48.095,141.681z"/>
	<path fill="#B98767" d="M133.613,133.296c-2.393,0.442-4.061,2.606-5.021,5.671c-1.312,4.173,0.625,6.218,4.607,7.47
		c1.387,0.435,2.609,0.561,3.671,0.363c1.995-0.369,3.417-1.874,4.272-4.601c1.311-4.178-0.641-7.413-4.629-8.664
		C135.451,133.203,134.484,133.135,133.613,133.296L133.613,133.296z"/>
	<path fill="#B98767" d="M157.159,121.689c-2.176,0.402-3.906,2.332-4.077,4.767c-0.201,2.854,0.352,6.059,3.049,6.25
		c0.34,0.022,0.697-0.002,1.063-0.069c2.54-0.471,5.485-2.997,5.661-5.495c0.201-2.855-1.825-5.328-4.522-5.519
		C157.932,121.595,157.538,121.62,157.159,121.689L157.159,121.689z"/>
	<path fill="#B98767" d="M147.336,107.863c-3.327,0.615-7.165,4.847-6.551,8.17c0.615,3.328,2.105,6.203,5.43,5.589
		c3.327-0.615,7.23-4.489,6.615-7.816C152.216,110.482,150.659,107.249,147.336,107.863L147.336,107.863z"/>
	<path d="M97.242,121.846c-0.207-0.48-0.146-1.007,0.113-1.42c-0.887-0.322-1.892-0.328-2.828,0.074
		c-1.952,0.836-2.855,3.094-2.02,5.045c0.835,1.955,3.093,2.857,5.046,2.021c1.952-0.835,2.856-3.094,2.022-5.047l-0.021-0.036
		c-0.09,0.064-0.188,0.125-0.296,0.173C98.479,122.988,97.576,122.627,97.242,121.846z"/>
	<path d="M114.732,119.606c-0.207-0.481-0.146-1.006,0.113-1.419c-0.887-0.323-1.891-0.329-2.827,0.074
		c-1.952,0.835-2.856,3.095-2.021,5.045c0.836,1.954,3.094,2.856,5.046,2.02c1.954-0.833,2.856-3.094,2.023-5.045l-0.021-0.036
		c-0.09,0.065-0.188,0.124-0.294,0.172C115.969,120.75,115.066,120.388,114.732,119.606z"/>
	<path fill="#B98767" d="M143.935,22.661c-3.692,3.669-10.612,16.817-6.869,21.904c1.979,2.688,7.644,6.631,11.322,5.951
		c1.231-0.228,2.241-0.974,2.815-2.46c2.204-5.718,0.78-9.016-0.729-14.097C149.381,30.26,146.041,25.732,143.935,22.661
		L143.935,22.661z"/>
	<path fill="#B98767" d="M26.875,44.306c-0.869,3.622-2.369,9.045-2.068,12.89c0.413,5.284,0.258,8.874,4.365,13.424
		c1.066,1.183,2.275,1.519,3.507,1.292c3.678-0.68,7.56-6.389,8.443-9.605C42.799,56.217,31.636,46.413,26.875,44.306L26.875,44.306
		z"/>
	<path fill="#FFFFFF" d="M105.342,131.139c-2.755-0.001-10.142,2.976-6.285,6.891c1.412-1.913,1.318-2.101,3.142-3.818
		L105.342,131.139z"/>
</g>
<g>
	<path fill="#C2E4F1" d="M135.566,46.085c0.084-0.041,0.172-0.077,0.256-0.114c0.752-0.324,5.4,8.289,5.735,8.912
		c-7.958,5.935-17.556,10.371-24.688,17.341c-1.649-2.075-6.216-6.562-5.336-9.409c0.604-1.957,6.556-4.804,8.294-6.041
		C124.83,53.218,129.904,48.608,135.566,46.085z"/>
	<path fill="#FFFFFF" d="M112.605,49.776c7.241-8.212,9.455-5.706,14.986,2.349c2.693,3.922,6.49,9.051,7.893,13.583
		c1.117,3.608-0.732,8.73-5.139,8.37c-3.74-0.304-4.717-4.726-6.531-7.547C120.195,60.905,115.928,55.583,112.605,49.776z"/>
</g>
</svg>
