<?xml version="1.0" encoding="utf-8"?>
<!-- Generator: Adobe Illustrator 17.0.0, SVG Export Plug-In . SVG Version: 6.00 Build 0)  -->
<!DOCTYPE svg PUBLIC "-//W3C//DTD SVG 1.1//EN" "http://www.w3.org/Graphics/SVG/1.1/DTD/svg11.dtd">
<svg version="1.1" id="Layer_1" xmlns="http://www.w3.org/2000/svg" xmlns:xlink="http://www.w3.org/1999/xlink" x="0px" y="0px"
	 width="800px" height="600px" viewBox="0 0 800 600" enable-background="new 0 0 800 600" xml:space="preserve">
<g>
	<path d="M758.165,367.492c-1.719-14.216-6.239-23.245-6.239-23.245c-0.178-2.339,0.124-24.343-5.452-31.083
		c0.855-1.711,4.101-7.714,6.276-25.574c2.165-17.849,1.346-32.471,0-54.759c-1.945-31.839-11.826-74.543-26.063-79.368
		c4.82-3.502,6.059-17.861-9.862-16.655c-10.125,0.765-96.82,21.459-138.971,25.267c-36.07,3.26-106.442,12.521-164.242,13.838
		c-11.828,0.439-28.047,0.3-40.306,0.3c-17.959,0-30.506-0.757-49.337-6.016c-9.632-2.185-19.007-6.011-21.657-8.725
		c7.443-3.942,15.519-13.354,10.825-26.772c-6.974-19.921-29.116-24.576-29.116-24.576s11.673,8.033,11.673,17.056
		c0,8.917-9.021,16.349-23.765,16.546c-8.976,0.12-18.448-1.569-20.42,0.193c-20.145-10.947-38.495-14.96-41.542-13.73
		c-2.635-4.381-8.667-7.536-23.167-10.83c-14.504-3.298-25.054-9.429-24.066-16.843c0.992-7.415,6.581-13.759,14.142-18.951
		c7.548-5.194,16.24-11.13,16.24-11.13c-8.569-1.316-27.345,6.209-40.005,13.837c-12.667,7.625-20.816,15.269-20.155,24.663
		c0.655,9.4,18.649,13.538,50.77,25.388c-7.008,3.94-15.214,10.353-18.286,13.418c1.315-3.503,3.31-10.687,3.31-11.131
		c-18.69-3.506-43.417-0.929-50.864,3.016c-8.756,3.939-12.696,7.88-12.696,12.259c0,7.009,10.073,10.511,30.209,10.511h10.517
		c-11.393,7.01-23.212,17.076-35.912,30.215c-11.385,12.264-23.662,24.175-38.114,34.242c-4.822-1.747-9.456-1.804-13.835-1.804
		c-8.325,0-15.685,2.959-22.261,10.53c-6.579,7.572-8.936,12.315-8.427,23.462c0.605,13.236,23.707,22.815,30.702,27.208
		c6.991,4.4,13.589,12.022,23.192,23.225c9.595,11.2,26.589,15.183,34.247,15.144c4.292,10.999,17.524,17.483,31.583,16.843
		c14.057-0.619,23.618-11.022,33.694-32.488c1.313,2.631,4.978,7.134,7.61,10.198c0.876,3.944,1.257,8.598,3.066,15.335
		c1.804,6.738,5.833,17.553,12.698,17.949c6.867,0.4,12.257-4.81,15.33-15.326c0.876-2.622,3.256-12.052,4.507-27.985
		c1.255-15.935,8.023-33.13,8.824-33.553c0.804-0.429,7.79,2.697,15.045,4.511c7.248,1.808,17.006-2.896,22.264-9.027
		c0,0,31.355,39.775,34.75,61.678c-0.166,24.051,3.041,39.117,6.457,44.807c3.416,5.69,7.136,9.044,14.133,14.736
		c3.762,21.514,8.766,61.527,8.331,74.662c-5.688-0.439-17.278-0.702-35.268-0.114c-17.984,0.584-42.928,3.747-46.437,6.817
		c5.292,5.753,29.393,13.009,31.587,13.885c-0.435,0.443-27.115,10.444-32.641,13.738c12.812,4.94,42.559,2.602,66.654-0.824
		c23.977-3.407,38.907-6.933,41.613-8.23c-0.474-6.813-4.114-15.399-7.53-18.92c-4.7-16.457-1.15-46.915,0.168-63.563
		c0,0,4.874,1.931,6.179,1.502c9.16,12.638,13.402,49.724,13.756,60.059c0.354,10.349-0.091,19.701-1.413,25.394
		c0,0-23.546,5.087-35.372,7.275c-24.519,5.263-40.332,9.644-45.147,12.71c2.469,2.585,27.869,6.711,33.733,7.043
		c-9.968,3.391-18.784,6.307-30.63,10.463c9.357,5.531,98.106,1.649,105.396-6.931c-3.745-12.497-7.289-20.567-9.05-24.329
		c1.305,0,2.225-1.057,2.225-1.057s-2.952-27.527-2.461-39.85c0.489-12.323,3.171-30.21,4.619-38.18
		c10.071,3.497,21.019,5.243,32.84,5.243c30.22,0,70.095-5.626,98.97-16.203c-3.014,9.174-0.439,17.089,1.759,21.025
		c-6.137,9.636-27.858,40.109-31.106,45.033c-11.749,7.061-69.587,24.333-77.699,25.391c5.721,4.217,27.04,8.346,40.482,8.843
		c-10.073,4.818-18.827,8.319-24.961,10.514c3.507,2.183,11.565,3.801,23.386,3.801c20.142,0,35.736-3.37,49.751-8.625
		c10.943-3.942,15.728-7.36,16.201-9.193c0.19-0.742,0.07-16.694-2.119-22.388c-0.942-12.453,6.941-35.73,13.945-44.179
		c0.435,0.439,1.309,0.876,2.185,1.746c-1.313,3.072-10.726,23.051-4.263,25.41c6.469,2.343,10.833-7.014,13.901-21.021
		c3.505,0.872,6.792,1.736,10.556,2.088c-1.754,6.133-6.289,22.09,2.146,22.877c9.493,0.87,11.385-23.219,11.385-23.219
		c3.94-0.433,7.44-0.874,10.947-1.746c0.325,9.023,2.088,20.422,8.903,18.659c6.823-1.759,5.29-18.22,4.118-22.562
		c3.283-1.415,5.81-2.676,8.876-4.42c2.993,7.117,8.4,16.167,14.749,12.058c6.355-4.116-0.464-15.285-3.058-18.806
		c7.768-6.608,10.179-15.894,10.179-15.894c6.51-0.725,27.092-2.003,26.531-0.487c-4.58,12.551-32.677,51.831-59.825,68.032
		c-0.037,1.11,0.48,2.411,0.48,2.411c-18.761,11.273-36.722,19.393-61.318,27.573c0,0,4.141,9.218,20.138,10.508
		c-3.497,2.622-6.997,5.253-10.943,8.317c2.703,6.498,19.27,10.08,30.222,10.08c5.688,0,16.642-3.948,32.844-11.826
		c15.318-7.886,22.156-12.329,22.982-14.096c0.822-1.765-1.112-15.84-2.32-20.66c8.253-17.911,21.226-38.365,39.318-58.859
		c18.092-20.515,28.952-28.714,32.569-35.709c3.619-6.993-26.539-6.51-27.262-10.858c-0.723-4.34,14.162-50.92,23.189-77.106
		c9.276-26.885,16.766-49.967,21.361-86.331c3.053-24.133,5.508-50.322,1.089-61.794c7.026,9.036,12.901,19.409,17.561,35.323
		c4.818,16.639,7.001,31.177,7.001,48.065c0,12.875-1.278,32.483-3.051,49.417c-0.549,5.272-1.647,14.231-1.767,14.753
		c-0.133,0.526,0.325,1.127,0.766,1.562c-2.631,8.321-6.579,20.122-10.162,31.933c-3.588,11.801-4.835,19.179-5.334,28.598
		c-0.495,9.408,0.603,19.069,2.392,27.189c1.796,8.12,5.33,27.297,4.483,37.861c-0.841,10.556-3.033,24.679-4.632,27.332
		c7.842-1.464,13.151-7.177,22.071-20.207c9.862-14.413,13.191-35.895,14.462-48.336
		C760.029,389.938,759.901,381.706,758.165,367.492z"/>
	<path fill="#865439" d="M692.002,145.565c-0.53,13.693-20.702,29.192-34.545,25.269c-14.473-4.1-16.884-11.576-17.369-13.992
		C647.094,155.532,687.623,146.442,692.002,145.565z"/>
	<path fill="#865439" d="M471.742,177.09c54.325-5.281,119.541-12.252,128.295-13.568c5.8,12.375,9.562,30.644,8.762,56.491
		c-0.319,10.424-4.087,34.768-11.65,47.316c-11.188,18.551-28.872,23.974-41.25,23.401c-20.745-0.961-37.627-2.409-53.556-2.409
		c-15.919,0-31.602,6.028-47.763,17.852c-16.163,11.815-30.636,20.022-42.22,18.815c-11.573-1.208-31.836-22.674-32.594-48.917
		c-0.416-14.527,2.446-22.498,2.687-36.242c0.236-13.75-2.249-24.21-6.189-35.143c-3.944-10.929-8.323-19.267-10.949-23.647
		C365.315,181.038,417.413,182.368,471.742,177.09z"/>
	<path fill="#A18156" d="M298.761,121.682c0,0,11.761,5.176,11.38,23.446c-1.81-5.515-5.796-10.498-11.826-10.947
		C300.507,130.543,300.507,124.981,298.761,121.682z"/>
	<path fill="#A18156" d="M297.437,135.933c7.509-1.303,11.942,10.545,11.942,10.545c-0.437,3.94-3.124,6.974-7.064,9.166
		c0,0,1.127-11.801-8.418-15.857C295.486,138.393,296.561,136.81,297.437,135.933z"/>
	<path fill="#A18156" d="M292.619,140.749c9.17,4.973,7.445,15.764,7.445,15.764c-3.061,0.879-7.202,1.85-11.575,2.288
		c1.121-7.369-0.603-12.626-1.808-13.753C288.874,144.173,291.306,142.502,292.619,140.749z"/>
	<path fill="#A18156" d="M277.51,146.699c2.335-0.074,5.468-0.177,7.219-1.051c2.407,2.326,3.08,9.846,1.58,13.378
		c-2.562,0.902-9.398,0.148-9.398,0.148C277.781,157.423,279.016,151.882,277.51,146.699z"/>
	<path fill="#A18156" d="M275.335,146.847c0,0,1.881,7.518-0.234,12.294c-2.19,0-4.348-0.19-6.305-0.567
		c0.435-1.312,1.129-7.967-1.048-11.574C270.074,146.847,273.143,146.847,275.335,146.847z"/>
	<path fill="#A18156" d="M265.715,146.928c2.856,4.805,1.506,11.339,1.506,11.339c-1.659-0.067-3.513-0.454-5.266-0.894
		c0,0,0.073-7.969-1.58-10.07C260.375,147.303,263.986,146.699,265.715,146.928z"/>
	<path fill="#A18156" d="M258.728,147.227c2.105,4.433,1.353,9.842,1.353,9.842c-0.839-0.416-9.027-2.18-9.475-6.312
		C250.385,148.736,253.03,147.227,258.728,147.227z"/>
	<path fill="#A18156" d="M200.936,134.13c-3.339,2.293-11.413,0.5-11.413,0.5c2.887-4.582,7.128-6.925,10.693-7.02
		C203.523,128.652,204.277,131.841,200.936,134.13z"/>
	<path fill="#A18156" d="M198.467,126.734c-3.501,0.438-6.685,2.768-10.194,7.148c-1.141-0.3-3.233-0.845-4.524-1.592
		c-0.454-1.297,3.538-6.626,9.462-7.306C194.966,125.422,197.151,126.298,198.467,126.734z"/>
	<path fill="#A18156" d="M178.289,78.636c-2.56,1.6-7.472,4.573-8.789,5.885c0-0.876-0.358-2.845-0.799-2.845
		C170.018,80.8,176.307,78.798,178.289,78.636z"/>
	<path fill="#A18156" d="M167.959,81.978c0.497,0.149,1.247,2.091,0.938,2.938c-0.692,0.796-1.767,1.469-2.283,1.993
		c-0.549-1.444-1.498-2.589-2.144-3.239C165.341,83.231,166.642,82.414,167.959,81.978z"/>
	<path fill="#A18156" d="M163.974,84.019c0.437,0.438,1.794,2.293,2.086,3.299c-0.874,0.88-1.748,1.752-2.626,2.633
		c-0.439-1.752-2.225-3.359-3.099-4.238C160.983,85.264,162.654,84.457,163.974,84.019z"/>
	<path fill="#A18156" d="M159.636,86.312c0.996,0.696,2.388,1.992,3.358,4.076c-0.437,0.876-1.313,1.751-1.75,2.627
		c-0.878-2.19-3.256-3.975-5.439-4.41C156.852,87.705,158.325,86.745,159.636,86.312z"/>
	<path fill="#A18156" d="M154.656,89.151c1.744,0,5.547,2.391,5.976,4.633c-0.874,1.316-1.576,3.172-2.015,4.922
		c-2.633-3.06-7.998-4.671-11.981-3.927C148.577,92.786,152.026,90.464,154.656,89.151z"/>
	<path fill="#A18156" d="M144.697,96.472c0,0,7.347-2.404,13.642,3.34c-0.435,0.872-0.164,2.396-0.164,3.277
		c-7.001-4.026-15.676-3.478-19.264-0.88C139.761,100.56,141.752,98.017,144.697,96.472z"/>
	<path fill="#A18156" d="M137.325,105.338c3.061-3.066,14.409-5.715,20.617-1.195c0,0.441,0.234,2.01,0.675,2.883
		c-8.34-1.835-17.066,2.297-20.149,6.571C137.157,111.847,135.529,108.675,137.325,105.338z"/>
	<path fill="#A18156" d="M139.761,115.002c4.818-4.814,12.058-7.918,18.856-6.664c0.12,0.636,0.876,1.754,1.307,2.194
		c-5.916,1.683-9.454,5.917-10.945,9.198C146.835,119.238,141.01,116.798,139.761,115.002z"/>
	<path fill="#A18156" d="M150.118,120.334c0.882-1.749,5.187-7.82,10.614-8.665c0,0,0.959,1.151,1.396,1.59
		c-4.282,1.543-7.231,7.405-7.668,8.718C153.144,121.543,151.324,121.031,150.118,120.334z"/>
	<path fill="#A18156" d="M155.804,122.624c0.841-3.685,4.331-7.372,7.19-8.589c1.748,1.312,3.507,2.192,5.253,3.066
		c-3.936,2.19-6.388,4.945-7.264,7.566C158.99,123.97,157.444,123.273,155.804,122.624z"/>
	<path fill="#A18156" d="M161.929,125.064c0.095-1.292,3.09-5.926,7.476-7.419c1.241,0.447,2.832,1.092,3.83,1.542
		c-2.368,0.595-6.274,3.935-6.297,7.546C165.622,126.298,163.47,125.746,161.929,125.064z"/>
	<path fill="#A18156" d="M167.907,127.158c0.097-3.587,3.118-6.597,6.622-7.473c1.315,0.434,4.634,1.195,6.527,1.745
		c-4.816,1.748-7.778,4.791-8.217,7.419C171.596,128.554,169.604,127.804,167.907,127.158z"/>
	<path fill="#A18156" d="M182.703,131.94c-2.689-0.599-6.927-1.843-8.868-2.793c0.874-2.625,3.41-5.029,8.662-7.219
		c2.631,0.874,6.38,1.903,8.572,2.343C186.235,125.815,182.6,129.898,182.703,131.94z"/>
	<path fill="#845B34" d="M307.893,132.129c-0.006,1.062-0.041,2.127-0.159,3.209c-0.141,1.298-0.383,2.574-0.704,3.819
		c1.361,1.751,2.405,3.823,3.111,5.972C310.251,139.71,309.288,135.45,307.893,132.129z"/>
	<path fill="#845B34" d="M306.456,141.045c-1.058,3.047-2.658,5.837-4.797,8.105c0.938,3.493,0.656,6.494,0.656,6.494
		c3.94-2.192,6.627-5.226,7.064-9.166C309.379,146.478,308.349,143.741,306.456,141.045z"/>
	<path fill="#845B34" d="M291.337,154.72c-0.829,0.141-1.668,0.264-2.507,0.396c-0.037,1.158-0.147,2.388-0.342,3.686
		c4.373-0.438,8.514-1.408,11.575-2.288c0,0,0.396-2.526-0.232-5.69C297.472,152.761,294.63,154.149,291.337,154.72z"/>
	<path fill="#845B34" d="M277.779,156.33c-0.249,1.262-0.578,2.263-0.868,2.844c0,0,6.836,0.754,9.398-0.148
		c0.41-0.975,0.655-2.255,0.748-3.639C283.983,155.818,280.87,156.135,277.779,156.33z"/>
	<path fill="#845B34" d="M275.229,156.478c-1.947,0.076-4.019,0.16-6.096,0.129c-0.093,0.915-0.224,1.624-0.338,1.967
		c1.958,0.377,4.116,0.567,6.305,0.567c0.369-0.833,0.609-1.755,0.771-2.701C275.652,156.449,275.441,156.468,275.229,156.478z"/>
	<path fill="#845B34" d="M261.933,155.687c0.027,1.007,0.023,1.686,0.023,1.686c1.752,0.44,3.606,0.826,5.266,0.894
		c0,0,0.135-0.663,0.228-1.715C265.556,156.447,263.694,156.189,261.933,155.687z"/>
	<path fill="#845B34" d="M252.193,148.391c-1.152,0.617-1.686,1.43-1.587,2.367c0.448,4.132,8.636,5.895,9.475,6.312
		c0,0,0.103-0.759,0.126-1.945C257.225,154.002,251.949,151.66,252.193,148.391z"/>
	<path fill="#845B34" d="M201.922,131.38c-3.043,1.496-6.784,1.013-10.088,0.325c-0.828,0.845-1.614,1.817-2.312,2.925
		c0,0,8.074,1.793,11.413-0.5c1.535-1.058,2.2-2.305,2.15-3.446C202.707,130.931,202.336,131.177,201.922,131.38z"/>
	<path fill="#845B34" d="M184.74,129.905c-0.779,1.03-1.141,1.944-0.99,2.384c1.29,0.747,3.383,1.292,4.524,1.592
		c0.746-0.923,1.467-1.736,2.183-2.479C188.547,130.97,186.635,130.466,184.74,129.905z"/>
	<path fill="#845B34" d="M147.527,96.006c-1.723,0.11-2.829,0.466-2.829,0.466c-2.946,1.544-4.936,4.088-5.786,5.737
		c1.738-1.258,4.673-2.029,8.035-2.038C146.922,98.736,147.129,97.345,147.527,96.006z"/>
	<path fill="#845B34" d="M148.024,105.32c-0.487-1.184-0.777-2.343-0.936-3.48c-4.244,0.4-8.151,1.885-9.762,3.498
		c-1.796,3.337-0.168,6.508,1.143,8.259c1.877-2.594,5.821-5.127,10.504-6.314C148.624,106.646,148.293,105.996,148.024,105.32z"/>
	<path fill="#845B34" d="M149.944,108.9c-3.832,1.132-7.41,3.332-10.183,6.102c1.249,1.796,7.074,4.236,9.218,4.728
		c0.893-1.964,2.535-4.258,4.963-6.149C152.43,112.147,151.073,110.59,149.944,108.9z"/>
	<path fill="#845B34" d="M154.973,114.526c-2.527,2.109-4.315,4.75-4.855,5.808c1.206,0.697,3.026,1.209,4.342,1.643
		c0.255-0.778,1.407-3.158,3.19-5.291C156.732,116.001,155.839,115.28,154.973,114.526z"/>
	<path fill="#845B34" d="M158.64,117.41c-1.336,1.534-2.415,3.376-2.836,5.214c1.64,0.649,3.186,1.346,5.179,2.042
		c0.449-1.349,1.326-2.736,2.6-4.059C161.933,119.629,160.266,118.565,158.64,117.41z"/>
	<path fill="#845B34" d="M165.589,121.77c-0.402-0.224-0.806-0.457-1.208-0.692c-1.504,1.622-2.397,3.289-2.452,3.986
		c1.541,0.682,3.693,1.234,5.009,1.67c0.008-1.257,0.491-2.482,1.212-3.57C167.286,122.711,166.434,122.251,165.589,121.77z"/>
	<path fill="#845B34" d="M169.03,123.617c-0.665,1.062-1.089,2.264-1.123,3.541c1.696,0.645,3.689,1.396,4.932,1.691
		c0.149-0.902,0.621-1.859,1.34-2.794C172.435,125.293,170.72,124.482,169.03,123.617z"/>
	<path fill="#845B34" d="M175.358,126.553c-0.721,0.842-1.226,1.704-1.522,2.594c1.941,0.95,6.179,2.195,8.868,2.793
		c-0.035-0.638,0.298-1.477,0.92-2.373C180.829,128.697,178.07,127.688,175.358,126.553z"/>
	<path fill="#865439" d="M112.636,197.679c4.814-4.817,9.195-9.196,13.572-13.573c5.821,0.253,11.631,2.3,16.863,7.763
		c5.239,5.468,6.817,10.634,5.918,18.442c-1.479,12.858-10.241,18.775-20.151,18.904c-4.433,0.052-12.393-4.568-20.018-8.663
		c-7.633-4.099-17.646-2.729-17.646-2.729C97.746,212.13,105.191,205.561,112.636,197.679z"/>
	<path fill="#FFFFFF" d="M186.641,306.721c6.131-9.195,13.499-25.642,17.518-38.097c4.014-12.451,6.508-25.023,7.664-32.599
		c0.433,5.252,0.655,17.711,0.655,23.402c0,19.266-7.486,64.918-9.309,65.832C201.35,326.161,190.308,315.922,186.641,306.721z"/>
	<path fill="#FFFFFF" d="M188.831,266.871c-0.872-0.874-1.746-1.752-3.068-2.629c9.64-12.7,18.529-28.817,23.78-44.144
		c0,0,1.29,14.282-5.798,41.994c-3.642,14.229-6.949,20.714-14.346,35.506c1.317-3.938,3.07-11.383,3.643-16.275
		C193.611,276.429,191.461,269.935,188.831,266.871z"/>
	<path fill="#EBE6BA" d="M330.287,399.711c6.568,4.383,12.499,8.617,17.752,9.93c-1.757,7.014-2.432,22.769-2.432,43.344
		c0,10.077,0.437,17.085,1.755,21.46c0,0-6.156,0.862-9.808,0.037c0,0,0.242-11.76-0.58-24.329
		C336.146,437.568,334.637,411.469,330.287,399.711z"/>
	<path fill="#7C6757" d="M354.606,491.293c-26.806,6.231-74.525,12.693-86.169,9.168c0,0,33.033-14.104,50.897-21.634
		c0,0-5.048-1.643-31.03,9.056c-14.448-4.379-22.334-8.704-25.976-11.289c2.935-1.645,23.631-4.112,39.266-4.584
		c15.629-0.476,31.413,0.704,31.85,0.704c0.238,2.121-0.116,4.82-0.356,6.231c0.942,0.118,12.957-0.118,15.583-0.553
		C351.076,481.412,354.018,486.116,354.606,491.293z"/>
	<path fill="#865439" d="M355.244,375.913c-1.311,1.752-2.192,5.69-2.192,10.954c0,6.125,0.903,11.761,3.093,19.645
		c-10.591,0.34-35.51-21.391-40.635-30.725c-5.123-9.334-5.935-29.563-5.812-35.784c0.124-6.212,0.238-17.361,0.124-21.118
		c-0.112-3.764-2.312-2.968-2.312-2.968c0,1.315-0.437,4.385-0.88,8.323c-1.75-6.133-15.759-31.533-19.266-36.347
		c6.293-3.387,31.108-11.915,42.717-12.828c11.606-0.913,29.538,30.901,30.413,34.286c0.887,3.38-4.574,9.756-3.441,13.858
		c1.05,3.782,13.551,25.377,15.14,29.934c1.597,4.549,3.405,8.563,3.985,15.705c0.458,5.574-4.735,19.328-14.807,31.589
		C358.31,389.054,356.559,380.731,355.244,375.913z"/>
	<path fill="#8C7668" d="M393.389,526.794c-6.935,4.468-53.892,6.906-78.517,6.224c25.398-9.632,39.494-16.097,44.31-18.721
		c0,0-2.459-1.852-27.672,8.752c-13.464-1.787-27.45-3.896-30.978-4.955c8.466-2.591,36.788-9.995,68.763-15.993
		c0.708,1.187,10.701,4.824,17.632,3.414C389.066,511.074,392.519,522.854,393.389,526.794z"/>
	<path fill="#865439" d="M426.623,424.081c-6.322,0-12.228-0.688-18.775-2.376c2.817-5.641,6.937-12.687,12.58-19.15
		c5.636-6.473,13.39-11.407,19.509-11.523c6.117-0.12,16.464,10.282,23.478,30.864C451.146,423.207,439.325,424.081,426.623,424.081
		z"/>
	<path fill="#7C6757" d="M518.935,509.981c-0.236,0.938-10.231,6.227-23.506,9.518c-13.286,3.296-35.042,6.15-43.611,3.874
		c0,0,53.838-25.149,47.064-27.904c-12.704,6.125-22.357,11.105-31.55,15.921c-11.051,0.926-35.452-3.225-36.326-4.101
		c25.626-5.899,52.196-14.709,65.25-22.332c3.873,3.983,13.396,6.214,21.458,5.692C519.52,494.81,519.17,509.032,518.935,509.981z"
		/>
	<path fill="#665245" d="M320.336,494.957c-16.066,3.946-32.608,7.366-49.213,6.057c15.009,2.142,58.397-3.894,83.482-9.721
		c-0.348-3.006-1.485-5.837-2.85-8.296C342.146,488.732,331.396,492.241,320.336,494.957z"/>
	<path fill="#665245" d="M302.139,482.613c-7.438-0.176-14.782-0.731-22.187-1.844c-5.162-0.775-10.709-1.108-15.685-2.892
		c4.222,2.606,11.753,6.283,24.037,10.005C293.804,485.615,298.367,483.908,302.139,482.613z"/>
	<path fill="#665245" d="M503.122,514.316c-7.573,2.819-15.38,5.06-23.339,6.5c-8.416,1.523-16.932,3.273-25.509,3.026
		c9.748,1.311,28.996-1.328,41.155-4.344c13.276-3.291,23.27-8.58,23.506-9.518c0.064-0.249,0.129-1.373,0.166-2.981
		C513.966,509.877,508.57,512.29,503.122,514.316z"/>
	<path fill="#665245" d="M467.332,511.389c3.6-1.887,7.285-3.803,11.179-5.796c-15.299,3.001-30.953,3.271-46.518,2.065
		C436.762,508.966,457.423,512.218,467.332,511.389z"/>
	<path fill="#EBE6BA" d="M517.761,486.464c-7.519,0.232-16.103-3.053-17.565-6.324c16.203-21.021,25.398-34.597,28.902-42.044
		c0.437,1.313,3.068,4.383,3.942,5.257C521.643,459.66,517.055,482.588,517.761,486.464z"/>
	<path fill="#D5847B" d="M534.334,469.785c-4.166-1.935,3.594-18.974,4.818-21.87c2.179,1.367,3.722,1.951,6.347,2.827
		C543.623,455.971,539.389,472.134,534.334,469.785z"/>
	<path fill="#D5847B" d="M559.842,473.429c-6.077-1.204,0.348-20.004,0.348-20.004s7.01,0,9.197-0.439
		C568.778,456.379,565.915,474.63,559.842,473.429z"/>
	<path fill="#D5847B" d="M590.285,467.202c-5.402,1.179-5.814-13.294-6.108-16.343c2.722-0.729,5.756-1.525,8.578-2.587
		C593.196,450.463,595.698,466.023,590.285,467.202z"/>
	<path fill="#D5847B" d="M617.214,451.799c-4.71,3.41-8.824-4.818-11.035-10.195c2.687-1.206,5.249-3.064,7.001-4.379
		C615.095,439.341,621.912,448.391,617.214,451.799z"/>
	<path fill="#DA9288" d="M602.399,439.331c-12.936,7.641-25.626,10.227-40.44,10.227c-14.811,0-25.899-6.838-31.386-14.104
		c-5.054-6.693-2.987-19.09-2.117-21.271c21.292-7.296,53.633-23.819,58.886-28.198c-0.439,4.379-2.72,24.851-0.439,30.655
		c2.283,5.806,15.552,5.083,34.158,3.938C620.619,425.842,615.325,431.685,602.399,439.331z"/>
	<path fill="#D37E78" d="M551.533,408.813c9.429-1.719,19.082-1.678,28.494,0.162c1.997,0.385,3.971,0.853,5.935,1.363
		c-0.352-8.423,1.044-21.021,1.379-24.354c-5.253,4.379-39.268,14.332-58.886,28.198c-0.276,0.686-0.665,2.392-0.92,4.613
		C535.577,415.518,542.682,410.429,551.533,408.813z"/>
	<path fill="#D37E78" d="M619.828,424.566c0.725-1.38,1.127-2.699,1.232-3.99c-2.722,0.17-5.311,0.327-7.784,0.456
		C615.482,422.167,617.659,423.34,619.828,424.566z"/>
	<path fill="#8C7668" d="M621.939,519.114c-0.733,1.321-39.523,20.012-47.872,21.182c-8.346,1.183-19.13-1.038-24.824-3.668
		c0,0,38.112-29.478,39.751-31.001c1.647-1.531,0.539-4.033,0.539-4.033c-8.317,5.257-18.833,12.704-31.964,22.34
		c0,0-13.593,0.847-19.821-4.799c7.447-0.431,46.431-16.694,56.158-27.22c3.969,4.826,9.634,10.569,25.193,9.417
		C620.304,504.467,622.664,517.792,621.939,519.114z"/>
	<path fill="#7D6758" d="M384.457,522.618c-7.561,2.27-15.125,3.517-22.9,4.775c-7.911,1.27-15.749,2.89-23.709,3.805
		c-5.411,0.624-10.821,1.164-16.205,1.926c25.594,0.143,65.407-2.245,71.746-6.33c-0.305-1.392-0.938-3.766-1.715-6.488
		C389.277,521.108,386.881,521.9,384.457,522.618z"/>
	<path fill="#7D6758" d="M343.284,518.36c-3.439,0.24-31.241,1.33-33.731,1.496c6.04,0.99,14.075,2.142,21.957,3.194
		C336.173,521.086,340.054,519.555,343.284,518.36z"/>
	<path fill="#7D6758" d="M599.021,527.656c-7.846,3.501-15.9,6.347-24.236,8.439c-7.629,1.916-15.353,1.121-23.102,1.523
		c5.999,2.156,15.113,3.708,22.384,2.678c8.35-1.17,47.139-19.861,47.872-21.182c0.22-0.404,0.155-1.937-0.083-3.958
		C614.562,519.886,606.956,524.122,599.021,527.656z"/>
	<path fill="#7D6758" d="M557.567,523.934c6.308-4.63,12.008-8.745,17.16-12.366c-11.293,3.121-22.469,6.659-33.787,9.678
		C547.714,524.541,557.567,523.934,557.567,523.934z"/>
	<path fill="#865439" d="M691.134,309.781c-20.586-14.001-33.915-23.631-42.847-33.766c-8.924-10.138-12.062-23.881-11.455-34.103
		c0.588-10.056,6.34-19.622,14.444-24.968c8.114-5.34,35.616-16.437,61.768-23.243C712.364,225.899,706.332,268.591,691.134,309.781
		z"/>
	<path fill="#FFFADB" d="M727.415,182.175c-5.11-10.931-10.991-17.823-15.266-16.03c0.692,6.957,1.015,15.162,0.926,24.227
		c-26.17,6.998-53.281,17.105-63.547,24.384c-10.073,7.008-15.467,15.18-15.954,28.69c-0.487,13.508,4.566,26.049,12.449,34.809
		c4.816,5.257,11.962,12.654,23.212,21.023c12.822,9.543,19.345,15.094,19.345,15.094c-7.463,17.394-25.161,77.4-24.161,82.127
		c0.998,4.717,8.538,4.733,13.58,5.694c5.021,0.953,13.23,2.401,12.024,5.295c-1.208,2.887-22.433,19.297-35.947,35.461
		c-13.506,16.165-28.463,39.081-32.952,52.715c0,0-13.605,1.324-22.773-5.918c5.307-3.859,17.609-10.614,35.943-33.049
		c12.016-14.709,24.606-36.666,25.335-39.8c0.721-3.14-6.164-1.574-15.792-1.574c-3.946,0-33.426,1.819-44.279,0.605
		c-5.599-0.619-6.997-4.82-6.517-13.025c0.485-8.205,10.943-62.02,18.827-90.921c6.562-23.649,11.382-38.545,14.005-45.55
		c-8.754,5.694-17.514,28.461-27.144,69.194c-3.072,13.137-5.694,24.521-7.447,35.03c-16.277,15.306-50.955,32.124-70.944,38.984
		c-16.832,5.763-34.62,9.531-53.886,12.163c-2.981-10.771-16.397-32.915-26.479-32.486c-6.565,0.273-13.444,4.012-20.886,12.335
		c-4.795,5.174-10.347,13.539-13.286,19.62c-4.155-1.098-7.407-2.351-11.585-4.199c2.229-14.291,3.865-26.908,1.75-26.711
		c-1.286,4.783-4.458,18.995-6.096,31.929c-1.649,12.938-5.181,36.204-4.71,51.959c0.337,11.293,0.93,23.651,2.241,27.158
		c-4.818,1.523-10.819,0.23-13.408-1.299c4.118-10.111,2.711-33.849-2.106-60.257c-2.693-14.746-7.449-27.152-9.634-37.228
		c10.504-10.073,16.886-27.179,16.428-33.897c-0.437-6.44-2.583-10.682-4.304-15.639c-1.728-4.961-13.504-28.67-14.022-30.338
		c-0.57-1.823,3.256-9.044,2.772-13.402c-0.493-4.354-19.619-40.658-36.237-37.706c-16.617,2.962-39.086,11.43-41.714,12.745
		c-1.315-1.752-8.762-12.263-10.506-14.013c3.492-6.133,5.549-16.948,5.257-24.963c-0.309-8.014-2.036-16.058-4.367-21.166
		c-2.326-5.111-5.112-9.848-9.317-13.523c6.129,2.193,14.398,4.87,27.276,3.533c15.187-1.582,29.323-8.876,30.75-20.898
		c0.955-8.062-11.07-11.582-27.976-12.334c-11.565-0.514-32.039,1.88-40.606,3.311c-8.567,1.427-10.237,4.342-10.038,5.049
		c0,0,12.327-4.211,38.402-4.965c14.583-0.418,34.439,3.031,33.097,8.442c-2.283,9.143-18.502,16.3-31.098,15.768
		c-12.592-0.534-32.206-7.075-34.839-13.01c-0.938-2.137,15.134-1.009,23.016-0.129c-6.129-2.629-12.7-4.377-19.27-4.377
		c-4.816,0-6.792,1.27-7.697,4.05c-0.897,2.781,6.223,9.524,13.539,12.935c7.12,8.012,14.475,23.684,14.137,41.21
		c-0.333,17.532-11.13,31.282-27.417,28.511c-7.534-1.282-12.002-5.208-15.759-4.381c-3.774,0.829-9.794,19.95-11.393,38.104
		c-1.601,18.15-5.288,41.845-16.207,37.658c-5.597-2.144-9.525-13.812-11.826-24.526c4.818,4.822,9.589,7.932,12.77,7.521
		c4.437-0.568,10.297-49.254,10.44-72.769c0.145-23.518-1.748-36.787-1.748-36.787c4.28,2.231,10.069,10.947,10.069,10.947
		c-0.097-9.738-5.216-16.569-13.75-17.819c-6.022-0.883-11.722,1.25-12.522,3.369c3.938-0.875,7.882-0.875,10.943,0.438
		c-11.385,22.337-19.264,37.225-23.649,44.229c-14.268-6.156-29.748-8.773-30.653-5.697c9.554,2.731,22.289,6.955,26.28,10.08
		c3.992,3.124,6.455,10.158,5.131,15.981c-4.327,19.007-25.199,53.204-38.419,52.773c-13.215-0.437-22.775-4.899-29.776-20.149
		c-6.997-15.246-12.76-27.411-15.768-28.459c3.942,16.637,7.012,27.583,9.205,33.281c-8.327-2.189-19.513-6.858-23.16-11.302
		c-5.139-6.243-6.411-18.477-5.699-26.243c-0.874,0-2.755,8.387-1.79,14.531c-2.627-4.164-1.027-14.15,0.895-18.179
		c-3.202,0.319-4.23,8.706-3.776,13.955c0.449,5.247,1.916,8.319,3.306,10.15c-6.032-5.674-11.635-11.892-20.6-17.868
		c-8.969-5.976-27.295-14.345-28.894-24.708c-1.732-11.264,6.183-24.31,19.326-29.091c13.149-4.781,30.462,4.271,41.845,12.156
		c1.4-3.591-6.774-9.365-16.495-14.93c3.944-3.068,8.325-6.135,13.137-10.074c0,0,9.93-1.397,19.604,2.927
		c9.674,4.326,14.684,9.447,22.084,9.218c7.395-0.226,14.908-5.574,17.526-10.467c2.616-4.894,3.683-10.157,2.958-18.209
		c-1.023-11.383-11.37-19.817-23.635-20.692c7.882-7.446,14.896-13.577,21.019-18.393c3.871-0.384,9.15-1.045,9.81-1.539
		c0.657-0.494,0.82-3.793,0.657-4.286c-0.17-0.497-1.794-1.966-3.451-3.371c-1.663-1.411-6.111-3.713-8.087-4.046
		c-1.98-0.329-8.998,0.982-8.998,0.982c10.069,2.185,16.644,4.377,19.277,6.567c-4.677,1.352-21.646,2.374-30.226,2.189
		c-8.565-0.181-19.266-2.189-19.266-7.009c0-3.068,3.505-6.566,10.514-9.63c7.884-3.071,16.633-4.819,26.709-4.819
		c12.7,0,19.266,0.874,19.266,2.19c-2.624,4.816-4.646,8.695-4.377,9.191c0.267,0.499,3.068,3.948,3.503,3.505
		c10.264-7.138,17.286-12.768,23.065-16.307c4.037,2.143,9.383,2.751,13.495,2.096c4.128-0.661,10.166-2.326,10.166-7.577
		c6.566,2.624,18.527,6.902,36.923,14.349c-5.93,6.956,5.69,15.762,17.951,17.955c3.94,0.874,8.321,0.874,13.141,0.874
		c7.01,0,12.696-0.442,17.951-1.754c13.58,9.633,35.036,14.892,64.371,16.643c4.153,4.952,7.917,14.752,11.826,24.085
		c3.903,9.331,6.341,18.419,6.573,31.966c0.228,13.551-3.082,31.369-2.635,42.483c0.447,11.113,4.789,20.515,11.544,30.17
		c6.757,9.651,14.471,17.126,24.122,18.572c9.651,1.45,25.213-6.707,42.731-18.527c17.953-11.824,29.404-16.928,42.427-17.414
		c13.027-0.48,41.492,2.9,61.755,2.651c20.271-0.238,39.456-14.139,48.212-42.167c3.064-9.198,6.378-32.004,5.259-46.421
		c-1.123-14.416-3.072-26.714-8.76-42.913c10.941-1.316,20.381-3.29,31.761-5.038c3.617,10.373,12.051,16.121,26.297,16.646
		c13.021,0.484,33.288-13.989,32.594-29.566c10.504-2.189,28.19-7.827,30.653-2.189c1.732,3.99-1.976,8.836-5.257,10.068
		c10.999,6.489,23.544,40.75,26.918,67.764c3.379,27.017,3.623,50.183,2.173,65.622c-1.094,11.668-4.128,22.957-9.369,28.88
		c0,0,2.409-25.897,3.579-46.976c0.725-13.032,0.481-28.225-1.926-42.939C738.992,210.637,736.103,200.746,727.415,182.175z"/>
	<path fill="#EBE6BA" d="M139.152,157.928c-8.996,0.218-16.957,0.228-25.184-4.028c-1.655-0.857-3.246-1.808-4.793-2.813
		c-0.607,0.954-0.922,1.894-0.922,2.797c0,4.819,10.701,6.827,19.266,7.009c8.186,0.172,24-0.746,29.482-2.005
		c-0.072-0.305-0.166-0.591-0.251-0.886c-3.097-1.958-9.284-3.913-18.282-5.865c0,0,7.018-1.311,8.998-0.982
		c1.976,0.333,6.423,2.635,8.087,4.046c0.073,0.067,0.153,0.129,0.23,0.194c-1.27-2.586-3.271-4.605-6.502-5.536
		c-2.894-0.835-6.22-1.193-9.143-0.255c-0.93,0.294-7.117,2.37-3.95,5.121c0.903,0.831,1.964,1.387,3.169,1.673
		C140.186,156.669,140.047,157.906,139.152,157.928z"/>
	<path fill="#EBE6BA" d="M194.977,181.372c-0.323,0.14-0.611,0.06-0.837-0.107c-5.663,3.504-2.896,15.513,1.021,19.164
		c4.638,4.333,14.552,7.108,19.79,2.133c4.427-4.206,5.212-11.796,1.763-16.892C212.014,178.723,202.082,178.242,194.977,181.372z"
		/>
	<path fill="#EBE6BA" d="M267.445,167.677c7.521,1.666,15.254,1.62,22.922,1.611c4.277-0.005,8.743-0.358,13.139-1.153
		c-2.496-1.294-4.829-2.676-6.945-4.179c-5.255,1.312-10.941,1.754-17.951,1.754c-4.82,0-9.201,0-13.141-0.874
		c-3.979-0.712-7.886-2.123-11.153-3.938C258.113,164.235,262.946,166.678,267.445,167.677z"/>
	<path fill="#EBE6BA" d="M276.934,273.15c4.758-5.257,8.165-11.894,10.301-18.506c1.647-5.118,2.995-10.618,2.867-16.029
		c-0.153-6.522-2.274-12.267-4.859-18.176c-0.242-0.537,0.037-1.153,0.667-1.176c7.811-0.259,16.366-0.024,22.991-4.853
		c3.42-2.494,6.496-5.63,8.81-9.22c-6.028,4.974-15.034,8.115-24.19,9.067c-12.878,1.337-21.147-1.34-27.276-3.533
		c4.205,3.676,6.991,8.412,9.317,13.523c2.33,5.108,4.058,13.151,4.367,21.166c0.292,8.014-1.765,18.829-5.257,24.963
		C275.113,270.823,275.934,271.847,276.934,273.15z"/>
	<path fill="#EBE6BA" d="M212.196,302.417c2.067-6.914,3.658-13.996,5.22-20.882c2.233-9.841,2.788-19.792,2.811-29.853
		c0.01-8.622-0.033-17.233-2.268-25.581c-1.39-1.472-2.844-2.774-4.164-3.461c0,0,1.893,13.27,1.748,36.787
		C215.473,270.67,214.098,287.67,212.196,302.417z"/>
	<path fill="#EBE6BA" d="M403.916,420.744c-0.388-8.75-2.569-17.302-7.016-24.998c-0.248,4.974-1.365,12.853-2.682,21.327
		C397.741,418.633,400.608,419.764,403.916,420.744z"/>
	<path fill="#EBE6BA" d="M451.691,396.243c6.778,7.32,12.87,18.724,14.763,25.559c1.926-0.263,3.826-0.545,5.727-0.837
		C466.842,411.442,460.631,402.228,451.691,396.243z"/>
	<path fill="#EBE6BA" d="M382.446,368.476c-1.976-9.986-8.201-19.326-13.114-28.128c-3.349-5.993-6.83-12.166-8.957-18.748
		c-0.081,0.485-0.108,0.878-0.019,1.152c0.518,1.667,12.294,25.377,14.022,30.338c1.721,4.957,3.867,9.199,4.304,15.639
		c0.425,6.351-5.259,21.99-14.771,32.194C375.401,393.557,385.159,382.183,382.446,368.476z"/>
	<path fill="#EBE6BA" d="M468.801,310.955c7.563-3.134,15.289-6.324,23.417-7.697c8.012-1.353,15.714-0.659,23.767-0.106
		c9.645,0.661,19.065,0.24,28.177-3.3c3.772-1.458,7.526-3.192,11.068-5.261c-19.846-0.178-45.53-3.107-57.712-2.656
		c-13.023,0.487-24.474,5.591-42.427,17.414c-9.079,6.125-17.613,11.256-25.089,14.583
		C443.467,321.724,455.987,316.26,468.801,310.955z"/>
	<path fill="#EBE6BA" d="M658.63,382.825c0.373,4.292,1.682,10.334,5.761,12.764c0.485-8.13,14.353-55.425,22.176-76.17
		c-12.48,13.151-20.459,29.754-25.282,47.172C659.835,371.848,658.153,377.307,658.63,382.825z"/>
	<path fill="#EBE6BA" d="M618.865,274.654c-6.154,2.695-10.993,7.782-15.163,12.963c-4.609,5.717-8.882,11.666-13.57,17.325
		c-12.286,14.842-24,30.172-34.721,46.18c-10.664,15.912-20.565,32.229-27.409,50.186c-0.81,2.121-1.579,4.248-2.32,6.39
		c20.348-7.739,50.69-23.018,65.602-37.043c1.752-10.508,4.375-21.893,7.447-35.03C605.792,305.752,612.391,285.562,618.865,274.654
		z"/>
	<path fill="#EBE6BA" d="M253.906,194.514c3.575,2.657,8.673,4.126,12.605,5.167c4.963,1.308,12.994,3.347,17.642,0.006
		c7.051-5.076-5.721-8.537-9.284-9.05c-4.292-0.614-8.541,0.233-12.797,1.129c4.151,0.735,8.242,2.045,12.155,3.724
		C268.568,194.859,258.681,194.1,253.906,194.514z"/>
	<path fill="#EBE6BA" d="M217.924,135.356c2.345,2.98,5.943,5.226,8.932,7.172c4.219,2.75,8.343,5.646,12.845,7.916
		c2.223,1.118,4.483,2.081,6.767,2.96c-0.92-2.189-0.731-4.438,1.05-6.522C234.588,141.648,224.853,137.985,217.924,135.356z"/>
	<path fill="#EBE6BA" d="M178.192,162.231c-5.247-1.595-11.958-1.393-16.532,1.91c-0.476,0.346-0.94,0.018-1.079-0.428
		c-5.197,4.49-1.614,13.19,3.691,15.91c5.284,2.707,12.53,2.978,16.524-2.121C184.524,172.744,185.326,164.398,178.192,162.231z"/>
	<path fill="#E3B0B1" d="M180.514,268.186c-3.795-2.962-15.467-6.927-24.813-9.653c-12.35-1.917-24.791-3.233-37.022-5.84
		c-8.847-1.885-17.945-4.316-26.208-8.284c-0.023,0.209-0.054,0.413-0.13,0.607c-11.383-7.885-28.695-16.937-41.845-12.156
		c-13.143,4.781-21.058,17.826-19.326,29.091c1.599,10.363,19.925,18.732,28.894,24.708c8.965,5.976,14.568,12.195,20.6,17.868
		c-1.39-1.831-2.857-4.903-3.306-10.15c-0.454-5.249,0.574-13.636,3.776-13.955c-1.922,4.029-3.521,14.015-0.895,18.179
		c-0.965-6.144,0.915-14.531,1.79-14.531c-0.713,7.766,0.559,20,5.699,26.243c3.648,4.443,14.833,9.112,23.16,11.302
		c-2.194-5.698-5.263-16.644-9.205-33.281c3.008,1.048,8.77,13.214,15.768,28.459c7.001,15.25,16.561,19.712,29.776,20.149
		c13.22,0.431,34.091-33.766,38.419-52.773C186.968,278.345,184.505,271.31,180.514,268.186z"/>
	<path fill="#CE6A77" d="M148.127,282.908c-5.085-1.891-15.623-3.78-15.993,4.248c-0.013,0.155-0.064,0.282-0.137,0.387
		c-0.164,6.49,4.897,13.514,9.657,17.288c2.585,2.055,6.295,4.346,9.769,3.43c3.793-0.998,6.602-4.101,6.765-8.093
		C158.47,293.559,154.654,285.338,148.127,282.908z"/>
	<path fill="#CE6A77" d="M58.157,249.851c-2.834-0.094-6.726,0.513-7.749,3.295c0.006,0.07,0.017,0.143,0,0.223
		c-0.967,4.428,3.161,9.014,7.173,10.321c4.367,1.425,8.984-1.083,8.454-6.131C65.59,253.229,62.563,250.001,58.157,249.851z"/>
	<path fill="#CE6A77" d="M180.858,268.12c-1.284-1.001-3.932-2.463-6.504-3.192c0.951,1.216,1.759,2.535,2.328,4
		c1.883,4.857,1.723,10.51,0.553,15.533c-2.873,12.412-8.36,26.796-17.099,36.374c-7.281,7.992-16.948,10.075-25.872,3.097
		c-5.752-4.503-9.323-10.457-13.649-16.203c-3.83-5.092-8.567-8.805-13.57-12.381c2.896,5.197,6.241,13,10.168,21.626
		c6.08,13.357,16.105,20.644,29.969,20.416c15.413-0.259,34.431-34.002,38.762-53.005
		C187.267,278.554,184.847,271.244,180.858,268.12z"/>
	<path fill="#CE6A77" d="M48.471,278.324c-1.332-0.462-3.198-1.052-4.681-1.572c5.566,3.749,12.341,7.482,16.48,10.25
		c8.973,5.98,14.931,12.656,20.965,18.338c-1.305-1.721-3.24-5.371-3.77-10.051C69.832,287.233,58.965,281.947,48.471,278.324z"/>
	<path fill="#CE6A77" d="M85.948,299.834c-2.024-4.452-3.298-9.568-4.014-14.467c-0.464,7.774-0.085,18.125,5.616,24.981
		c5.071,6.09,15.409,9.597,23.732,11.786c-0.775-2.009-2.055-5.226-3.053-8.565C99.31,318.445,89.187,306.984,85.948,299.834z"/>
	<path fill="#865439" d="M745.95,441.075c7.424-34.27-0.665-65.349-0.665-65.349s4.389,35.595-2.041,69.378
		c-2.585,5.526-9.263,16.296-15.169,20.383c7.637-12.416,11.734-23.863,11.734-37.252c0-13.408-1.177-18.529-2.26-26.481
		c-1.083-7.95-2.68-17.066-2.473-25.435c0.199-8.367,3.789-31.935,3.789-32.813c-3.093,6.314-6.386,33.551-6.131,42.914
		c0.246,9.379,4.83,30.8,4.681,41.306c-0.149,10.514-3.368,27.606-10.614,37.513c-0.01,0.012,4.089-15.389,5.06-32.828
		c0.456-8.308-1.319-17.087-3.509-25.406c-2.626-8.758-3.942-15.766-3.942-21.458c0-10.513,1.641-22.779,3.389-31.84
		c1.748-9.071,7.126-29.907,8.437-34.723c0,0,0.431,0.35,0.876,0.441c-1.317,5.249-8.468,40.73-9.116,48.432
		c-1.444,17.298,0.356,19.009,0.356,19.009c2.451-32.395,10.011-67.132,10.011-67.132s4.023-0.491,5.723-1.394
		c4.118,6.773,4.787,20.588,4.915,32.146c0.133,11.558,0.373,18.86,1.686,44.699c0,0,1.639-7.237,1.237-14.415
		c-0.398-7.169-0.325-24.78-0.798-31.208c3.457,11.022,5.301,24.171,4.914,43.17C755.779,405.753,752.958,423.566,745.95,441.075z"
		/>
	<path fill="#764730" d="M684.738,153.361c-5.601,7.467-13.114,13.367-21.41,17.578c-0.34,0.172-0.684,0.34-1.048,0.5
		c13.274-0.121,29.253-13.705,29.723-25.874c-0.47,0.096-1.384,0.292-2.62,0.557C688.011,148.615,686.471,151.041,684.738,153.361z"
		/>
	<path fill="#764730" d="M601.72,231.692c-4.36,9.098-8.476,17.685-16.474,24.17c-7.12,5.77-16.973,9.677-25.918,11.288
		c-22.493,4.064-44.31-8.579-66.702-3.882c-18.431,3.865-30.779,18.895-44.059,31.007c-11.088,10.111-24.521,20.778-40.498,18.802
		c-7.623-0.94-14.889-4.878-20.764-10.421c7.14,12.857,17.804,21.578,25.056,22.33c11.583,1.208,26.056-6.999,42.22-18.815
		c16.161-11.824,31.844-17.852,47.763-17.852c15.929,0,32.811,1.448,53.556,2.409c12.379,0.574,30.063-4.849,41.25-23.401
		c7.563-12.549,11.331-36.892,11.65-47.316c0.041-1.401,0.068-2.771,0.087-4.127C606.776,221.256,604.222,226.481,601.72,231.692z"
		/>
	<path fill="#764730" d="M143.692,220.805c-6.042,2.468-12.7,1.067-18.52-1.42c-5.504-2.355-10.473-5.676-16.308-7.266
		c-2.964-0.808-5.978-1.417-8.99-1.994c-3.012,2.738-5.937,5.302-8.7,7.696c0,0,10.013-1.37,17.646,2.729
		c7.625,4.094,15.585,8.714,20.018,8.663c7.124-0.091,13.642-3.197,17.296-9.701C145.366,220.003,144.566,220.453,143.692,220.805z"
		/>
	<path fill="#764730" d="M353.061,386.481c-12.532,4.451-24.463-6.591-31.502-15.994c-4.808-6.423-8.832-13.541-11.583-21.089
		c0.555,8.602,2.046,20.02,5.535,26.388c5.125,9.334,30.044,31.065,40.635,30.725c-2.189-7.884-3.093-13.52-3.093-19.645
		C353.052,386.734,353.061,386.609,353.061,386.481z"/>
	<path fill="#764730" d="M450.759,412.254c-6.933,4.368-14.788,7.76-23.061,8.226c-5.734,0.319-12.36-0.228-17.524-3.177
		c-0.856,1.535-1.626,3.012-2.326,4.404c6.548,1.688,12.453,2.376,18.775,2.376c12.702,0,24.524-0.874,36.791-2.185
		c-1.868-5.489-3.979-10.227-6.181-14.264C455.146,409.285,452.992,410.837,450.759,412.254z"/>
	<path fill="#764730" d="M664.349,280.261c-8.277-6.307-14.906-14.363-20.229-23.273c-2.73-4.583-5.404-9.542-7.304-14.722
		c-0.51,10.182,2.647,23.731,11.472,33.749c8.932,10.135,22.261,19.765,42.847,33.766c2.351-6.37,4.458-12.781,6.386-19.183
		C686.059,291.604,674.252,287.809,664.349,280.261z"/>
	<path fill="#764730" d="M726.802,465.238c7.246-9.908,10.465-26.999,10.614-37.513c0.066-4.553-0.764-11.167-1.734-17.953
		c-4.884-7.9-8.623-16.292-11.26-25.18c-0.002,0.315-0.01,0.632-0.01,0.955c0,5.692,1.316,12.7,3.942,21.458
		c2.19,8.319,3.965,17.097,3.509,25.406C730.891,449.85,726.792,465.251,726.802,465.238z"/>
	<path fill="#764730" d="M748.318,425.923c-0.491,4.92-1.251,10.001-2.368,15.152c1.757-4.379,3.25-8.783,4.501-13.123
		C749.728,427.294,749.02,426.619,748.318,425.923z"/>
	<path fill="#764730" d="M739.309,415.259c0.302,3.457,0.501,7.523,0.501,12.975c0,13.39-4.097,24.836-11.734,37.252
		c5.906-4.087,12.584-14.856,15.169-20.383c1.373-7.225,2.245-14.527,2.786-21.559C743.599,420.914,741.35,418.116,739.309,415.259z
		"/>
	<path d="M55.705,249.35c-4.822-1.491-8.721,2.438-8.242,6.935c0.476,4.492,6.009,6.992,8.242,7.083
		c2.233,0.091,4.217-1.444,5.524-2.761c-0.872-0.433-7.505-1.589-8.756-4.204c-1.255-2.619,1.139-4.559,4.213-3.189
		c3.072,1.366,5.688,3.642,5.688,3.642C65.354,255.128,59.197,250.43,55.705,249.35z"/>
	<path d="M148.289,292.07c1.023,2.624-0.251,4.166-2.941,4.166c-2.691,0-5.123-1.152-9.071-3.965
		c0.356,7.548,4.936,11.039,10.077,11.82c5.135,0.785,8.149-4.348,7.443-11.385c-0.702-7.03-14.92-12.731-19.59-12.346
		c-3.327,0.267-5.506,4.478-4.292,8.961c1.216,4.48,3.637,7.855,5.121,7.683c0,0-2.745-10.098-0.512-11.743
		C136.768,283.623,147.261,289.45,148.289,292.07z"/>
	<path d="M208.408,203.242c-8.255,1.223-17.278-3.483-18.761-10.769c0,0-2.517,3.545,0.901,8.123
		C195.716,207.52,206.817,206.576,208.408,203.242z"/>
	<path d="M210.152,199.11c9.545-0.125,14.564-4.931,15.477-11.023c1.096-7.287-2.896-17.131-15.03-17.283
		c-10.57-0.128-14.57,4.578-16.503,9.22c-1.527,3.65-1.61,8.385,0.06,12.19C195.923,196.2,200.609,199.24,210.152,199.11z"/>
	<path fill="#FFFFFF" d="M202.608,175.124c14.318-5.35,22.183,6.709,18.895,14.572c-2.409,5.76-10.512,7.225-14.705,6.001
		c1.873-1.805,4.253-7.092-0.128-10.769c-4.385-3.677-9.477-0.583-10.641,1.868C195.646,183.893,196.982,177.225,202.608,175.124z"
		/>
	<path fill="#FFFFFF" d="M202.285,190.214c0.452,2-0.839,3.675-2.772,3.352c-1.941-0.318-2.902-2.384-1.941-4.061
		C198.539,187.833,201.833,188.214,202.285,190.214z"/>
	<path d="M228.68,182.351c3.59-1.29,6.421-8.193,6.939-15.219c0.514-7.028-1.547-15.086-13.22-14.572
		c-6.767,0.298-11.285,2.898-11.801,6.964c6.189-2.519,13.976,0.796,16.318,6.254C230.203,173.452,228.904,180.287,228.68,182.351z"
		/>
	<path fill="#D0B987" d="M230.847,157.269c4.396,4.447,2.44,17.308,0.325,18.504c0.644-12.767-7.418-20.116-16.826-18.768
		C215.823,154.238,226.141,152.498,230.847,157.269z"/>
	<path d="M153.797,173.59c-1.034,0.941,0.284,4.029,3.055,5.474c4.485,2.339,7.917,1.692,8.333,0.657
		C157.697,178.066,153.797,173.59,153.797,173.59z"/>
	<path d="M186.287,146.386c-6.527,0.249-12.7,3.139-17.733,6.725c-5.031,3.587-8.141,9.258-8.629,13.034
		c-0.487,3.801,0.261,5.795,2.193,7.013c-2.428-0.522-5.622-2.267-5.622-2.267c-0.445,2.64,5.821,6.405,14.819,7.519
		c6.107,0.752,12.638-1.739,14.448-7.883c2.643-8.919-6.345-16.818-17.062-13.883c0.733-1.108,3.229-2.946,6.119-3.197
		c3.304-0.288,18.635-1.575,22.576-3.327C197.396,150.121,191.132,146.202,186.287,146.386z"/>
	<path fill="#D0B987" d="M187.586,148.577c2.539-0.032,4.748,1.371,4.748,1.371c-2.629,0.437-9.23,0.989-15.364,1.868
		C179.364,149.971,183.352,148.626,187.586,148.577z"/>
	<path fill="#FFFFFF" d="M162.727,170.644c-2.743-4.284,1.589-11.406,7.67-12.155c6.077-0.745,13,2.495,13,8.97
		c0,5.39-6.227,9.213-9.713,7.918c1.4-1.344,2.245-8.218-2.341-9.512C166.76,164.568,162.925,167.957,162.727,170.644z"/>
	<path fill="#FFFFFF" d="M168.247,174.468c-1.643,0.057-2.807-1.016-2.33-2.696c0.47-1.684,2.515-2.388,3.677-0.901
		C170.751,172.348,169.919,174.415,168.247,174.468z"/>
	<path fill="#FFFCED" d="M254.921,212.072c4.201,2.803,12.041,15.119,12.551,31.513c0.512,16.396-15.376,23.054-22.547,17.42
		C237.747,255.37,244.925,205.411,254.921,212.072z"/>
	<path fill="#FFFCED" d="M293.342,185.686c4.897,0.178,23.865,1.962,21.779,7.686C311.023,204.643,265.166,184.661,293.342,185.686z
		"/>
	<path fill="#FFFCED" d="M582.07,307.376c-5.388,7.563-37.915,46.878-47.647,65.065c-9.742,18.193-15.115,29.211-17.682,26.396
		c-2.564-2.819-15.374-20.242,2.566-48.169C537.236,322.748,594.113,290.465,582.07,307.376z"/>
	<path fill="#FFFCED" d="M612.553,318.903c-3.132,13.829-15.111,67.63-14.854,78.395c0.089,4.012-0.404,10.461,1.792,12.808
		c3.695,3.95,11.573,1.686,17.675-4.095C626.898,396.788,621.268,280.48,612.553,318.903z"/>
	<path fill="#E8C1BB" d="M533.017,431.426c0.605,3.196,5.757,10.573,14.506,11.664c9.104,1.141,2.562-7.391-3.13-11.664
		C539.059,427.437,531.878,425.455,533.017,431.426z"/>
	<path fill="#E8C1BB" d="M560.32,445.937c2.361,1.027,8.913,0.951,11.952,0c4.541-1.425,1.135-5.123-5.129-5.407
		C560.892,440.253,555.769,443.946,560.32,445.937z"/>
	<path fill="#EAC7C4" d="M49.342,245.527c4.105-2.347,14.842-2.288,19.411,3.422c4.568,5.713,1.148-12.273-9.7-12.844
		C48.202,235.533,43.343,248.951,49.342,245.527z"/>
	<path fill="#EAC7C4" d="M139.552,275.215c9.427,1.96,18.556,5.421,20.548,13.419c2.003,7.989,2.568,12.561,1.713,14.272
		c-0.854,1.713,11.712-1.999,7.138-20.551C164.386,263.795,132.699,273.786,139.552,275.215z"/>
	<path fill="#EAC7C4" d="M86.167,288.346c-4.464-9.686-3.708-21.124-0.568-27.691c3.136-6.566,6.848,9.137,8.563,18.274
		C95.872,288.056,98.156,314.323,86.167,288.346z"/>
	<path fill="#9A6144" d="M134.52,187.154c2.332,0.938,10.051,5.588,12.542,12.546c2.059,5.735,0.545,13.951-0.211,14.063
		c-1.641,0.232-3.393-8.496-6.494-14.498C136.896,192.562,126.189,183.801,134.52,187.154z"/>
	<path fill="#9A6144" d="M325.115,278.745c5.818-2.908,12.281-0.323,18.425,7.434c6.136,7.757,15.183,20.358,14.862,23.266
		c-0.321,2.913-4.199,7.755-4.199,12.283c0,4.52,4.845,10.991,8.723,18.096c3.876,7.111,5.498,11.637,4.203,13.576
		c-1.297,1.939-13.253-10.668-21.657-25.858C337.075,312.357,319.303,281.653,325.115,278.745z"/>
	<path fill="#9A6144" d="M430.472,182.12c8.402-0.097,69.154-5.818,81.436-7.107c12.277-1.294,56.229-6.465,64.305-6.789
		c8.076-0.324-27.467,23.594-50.735,25.852C502.209,196.342,402.348,182.447,430.472,182.12z"/>
	<path fill="#9A6144" d="M647.63,156.592c5.166-0.985,30.377-7.431,33.93-7.756c3.557-0.323-1.614,8.08-11.629,9.698
		C659.91,160.148,640.849,157.886,647.63,156.592z"/>
	<path fill="#9A6144" d="M656.68,216.377c4.725-2.563,25.209-11.313,32.639-13.898c7.438-2.583,19.069-5.812,20.36-5.492
		c1.289,0.322-9.692,18.421-18.421,20.682C682.536,219.933,648.925,220.58,656.68,216.377z"/>
	<path fill="#9A6144" d="M744.258,321.728c1.382,4.418,3.555,20.356,3.555,29.733c0,9.371,0.969,18.417,0.969,22.943
		c0,4.52-5.819-12.283-5.819-24.886S742.64,316.56,744.258,321.728z"/>
	<path fill="#9A6144" d="M741.673,331.744c0,0-0.973,12.605,0,22.626c0.967,10.017,3.555,17.131,4.518,19.386
		c0.978,2.262-6.877-2.388-7.428-14.867C738.213,346.416,741.345,326.571,741.673,331.744z"/>
	<path fill="#9A6144" d="M737.791,330.128c0.197,2.279-0.965,12.93-2.264,20.362c-1.284,7.434-4.195,18.417-3.871,14.539
		C731.978,361.15,737.146,322.696,737.791,330.128z"/>
	<path fill="#A28974" d="M325.115,512.286c3.184-0.619,28.012-6.034,32.751-7.113c4.735-1.073-10.127,6.463-14.225,7.324
		C339.553,513.361,317.358,513.794,325.115,512.286z"/>
	<path fill="#A28974" d="M562.75,527.153c3.333-2.457,22.191-17.885,24.992-20.035c2.799-2.158-2.801,8.402-6.254,11.409
		C578.045,521.547,555.423,532.539,562.75,527.153z"/>
	<path d="M529.866,304.985c-19.985-0.468-32.059,3.111-38.974,8.69c-5.696,4.594-8.988,12-9.57,22.572
		c-0.7,12.576,7.401,19.635,27.268,20.105c19.865,0.472,34.439-3.642,44.314-11.053c9.011-6.751,12.816-14.334,11.521-22.68
		C563.131,314.271,549.853,305.456,529.866,304.985z"/>
	<path fill="#865439" d="M517.761,351.184c-17.965,0.924-26.756-1.541-29.826-5.926c-1.757-2.187-3.791-7.124-2.858-13.002
		c0.94-5.874,2.707-15.517,14.345-20.923c9.114-4.234,37.142-4.234,47.493-0.24c10.343,4.002,15.165,10.235,12.576,19.171
		C556.904,339.191,540.447,350.003,517.761,351.184z"/>
	<path fill="#764730" d="M544.006,331.646c-10.193,4.957-21.648,6.892-32.929,7.041c-8.004,0.099-19.036-0.487-26.075-5.663
		c-0.648,5.529,1.255,10.14,2.933,12.234c3.07,4.385,11.861,6.85,29.826,5.926c22.686-1.181,39.144-11.993,41.729-20.921
		c1.125-3.882,0.843-7.246-0.661-10.138C554.804,324.945,549.737,328.862,544.006,331.646z"/>
</g>
</svg>
