<svg width="400" height="400" xmlns="http://www.w3.org/2000/svg">
 <g>
  <title>background</title>
 </g>

 <g>
  <title>background</title>
 </g>
 <style type="text/css">.st0{fill:#2F88BC;}
	.st1{fill:#91501C;}
	.st2{fill:#FFAB44;}
	.st3{fill:#B16827;}
	.st4{fill:#C2EEFC;}
	.st5{opacity:0.25;fill:#5D5D5D;}
	.st6{fill:#FBEBBA;}
	.st7{fill:#CABC9C;}
	.st8{fill:#8F8676;}
	.st9{fill:#8C8C8C;}
	.st10{fill:#FFFFFF;}
	.st11{fill:#C1A9A9;}
	.st12{fill:#CDCACA;}
	.st13{fill:#85361F;}
	.st14{fill:#FF7D43;}
	.st15{fill:#46D1FA;}
	.st16{fill:#E85E3C;}
	.st17{fill:#7F714C;}
	.st18{fill:#242221;}
	.st19{fill:#EFC73E;}
	.st20{fill:#B73A4A;}
	.st21{fill:#7D2833;}
	.st22{fill:#EEC09B;}
	.st23{fill:#DBA77F;}
	.st24{fill:#EEC9AB;}
	.st25{fill:#E1475C;}
	.st26{fill:#352311;}
	.st27{fill:#DC959C;}
	.st28{fill:#3D3D3D;}
	.st29{fill:#17120E;}
	.st30{fill:#9DD87D;}
	.st31{fill:#7FC5D6;}
	.st32{fill:#B04B5D;}
	.st33{fill:#D28691;}
	.st34{fill:#562947;}
	.st35{fill:#7F5D7F;}
	.st36{fill:#876B8E;}
	.st37{fill:#3F112B;}
	.st38{fill:#AB6346;}
	.st39{fill:#C57C5F;}
	.st40{fill:#DE8B6C;}
	.st41{fill:#C47C5F;}
	.st42{fill:#321829;}
	.st43{fill:#CCA93F;}
	.st44{fill:#E8BF4D;}
	.st45{fill:#A17C5B;}
	.st46{fill:#111719;}
	.st47{fill:#808184;}
	.st48{fill:#58595B;}
	.st49{fill:#BE1E2D;}
	.st50{fill:#FED03D;}
	.st51{fill:#312C32;}
	.st52{fill:#E08400;}
	.st53{fill:#FEDB78;}
	.st54{fill:#FDD03D;}
	.st55{fill:#E08501;}
	.st56{fill:#FD5544;}
	.st57{fill:#E08604;}
	.st58{fill:#E18503;}
	.st59{fill:#322D2F;}
	.st60{fill:#312C31;}
	.st61{fill:#82E1DE;}
	.st62{fill:#353032;}
	.st63{fill:#F7F6F4;}
	.st64{fill:#302C2F;}
	.st65{fill:#302C30;}
	.st66{fill:#E18A05;}
	.st67{fill:#322D31;}
	.st68{fill:#E08602;}
	.st69{fill:#FBFBFB;}
	.st70{fill:#F8F7F3;}
	.st71{fill:#312D31;}
	.st72{fill:#FDFDFB;}
	.st73{fill:#353034;}
	.st74{fill:#353133;}
	.st75{fill:#FAFAF8;}
	.st76{fill:#FBFCF9;}
	.st77{fill:#322E30;}
	.st78{fill:#302C31;}
	.st79{fill:#ADF8FE;}
	.st80{fill:#7EE1DF;}
	.st81{fill:#353031;}
	.st82{fill:#373233;}
	.st83{fill:#332E32;}
	.st84{fill:#332E33;}
	.st85{fill:#FCFCF8;}
	.st86{fill:#FCFCFB;}
	.st87{fill:#FCFCFA;}
	.st88{fill:#F8F8F5;}
	.st89{fill:#FDFDFC;}
	.st90{fill:#312C30;}
	.st91{fill:#F7F7F4;}
	.st92{fill:#312C2F;}
	.st93{fill:#332F33;}
	.st94{fill:#FBFBF7;}
	.st95{fill:#FDFDFD;}
	.st96{fill:#302D2F;}
	.st97{fill:#E18C0A;}
	.st98{fill:#E08F09;}
	.st99{fill:#363033;}
	.st100{fill:#342F32;}
	.st101{fill:#322D30;}
	.st102{fill:#FAF9F4;}
	.st103{fill:#373333;}
	.st104{fill:#FCFDFB;}
	.st105{fill:#FEFEFE;}
	.st106{fill:#FBFBF8;}
	.st107{fill:#ECEBE9;}
	.st108{fill:#FCFCF9;}
	.st109{fill:#3A3538;}
	.st110{fill:#DBBC42;}
    #TAXI{
    animation : slide 4s ease-in-out  
    }
    @keyframes slide{
    0%{
    transform : translateX(0)
    }
    50%,60%{
    transform : translateX(-830px)
    }
    70%{
     transform : translateX(-1400px)
    }
    100%{
    transform : translateX(-1400px)
    }
    }
    #girl1 ,#girl2{
    
    }
    @keyframes fade{
    0%,60%{
    visibility : hidden
    }
    65%,100%{
    visibility : visible
    }
    }
    #BRAZO_IZQ ,#BRAZO_DERE_1_{
    animation : wave 4s ease-in-out infinite;
    
    }
    @keyframes wave{
    0%,60%{
    visibility : hidden
    }
    
    71%,100%{
   visibility : hidden
    }
    }
   
    #BRAZO_IZQ-2{
     animation-name: arm1;
    animation-duration: 4s;
    animation-timing-function: linear;
   
    animation-iteration-count: infinite;
    transform-origin:right top;
    animation-direction: normal;
    transform-box: fill-box;
    }
    @keyframes arm1 {
      0%{transform:rotateZ(0deg)}
      70%{transform:rotateZ(0deg)}
      80%{transform:rotateZ(15deg)}
      100%{transform:rotateZ(15deg)}
    }

	#BRAZO_DERE-2{
      animation-name: arm2;
    animation-duration: 4s;
    animation-timing-function: linear;
   
    animation-iteration-count: infinite;
    transform-origin: 25% 25%;
    animation-direction: normal;
    transform-box: fill-box;
    }
    @keyframes arm2 {
      0%{transform:rotateZ(0deg)}
      70%{transform:rotateZ(0deg)}
      80%{transform:rotateZ(-15deg)}
      100%{transform:rotateZ(-15deg)}
}
    #OJOS_1_ ,#OJOS{
    animation : blink 4s ease-in-out infinite
    }
    @keyframes blink{
    0%,70%{
    visibility : hidden
    }
    72%,75%{
    visibility : visible
    }
    
    85%,90%{
    visibility : visible
    }
    92%,95%{
    visibility : hidden
    }
    100%{
    visibility : visible
    }
    }</style>
 <g>
  <title>Layer 1</title>
  <g id="girl1">
   <g id="CARA">
    <g id="svg_311">
     <path d="m195.1867,135.70159l0,0c-4.1,-0.3 -7.1,-4 -6.8,-8l0.7,-8.8c0.3,-4.1 4,-7.1 8,-6.8l0,0c4.1,0.3 7.1,4 6.8,8l-0.6,8.8c-0.4,4.1 -4,7.2 -8.1,6.8z" class="st23" id="XMLID_44_"/>
     <path d="m259.8867,140.90159l0,0c-3.9,-1.1 -6.2,-5.3 -5.1,-9.2l2.4,-8.5c1.1,-3.9 5.3,-6.2 9.2,-5.1l0,0c3.9,1.1 6.2,5.3 5.1,9.2l-2.4,8.5c-1.1,3.9 -5.3,6.2 -9.2,5.1z" class="st22" id="XMLID_42_"/>
     <path d="m228.6867,171.40159l-2.4,0c-4.5,0 -8.1,-3.7 -8.1,-8.1l0,-4.1c0,-4.5 3.7,-8.1 8.1,-8.1l2.3,0c4.5,0 8.1,3.7 8.1,8.1l0,4.1c0.1,4.4 -3.5,8.1 -8,8.1z" class="st23" id="XMLID_40_"/>
     <path d="m195.2867,134.60159l3.5,-41.8c1.3,-15 14.5,-26.2 29.5,-24.9l12.5,1c15,1.3 26.2,14.5 24.9,29.5l-3.1,37.4c-0.7,8.5 -12.4,33.2 -34.6,31.3c-23,-1.9 -33.3,-24.9 -32.7,-32.5z" class="st22" id="XMLID_39_"/>
     <path d="m230.2867,134.30159c0,0 5.7,6.5 -2.8,7c0,0 11.7,1 2.8,-7z" class="st23" id="XMLID_36_"/>
     <path d="m222.6867,113.20159c-2.4,-1.4 -8.3,-4 -15.6,-0.6c-0.7,0.3 -1.6,-0.1 -1.8,-0.9l-0.2,-0.8c-0.1,-0.6 0.2,-1.1 0.7,-1.4c2.6,-1.3 10.3,-4.2 18.2,1.5c0.5,0.4 0.7,1 0.4,1.6l0,0c-0.2,0.7 -1,1 -1.7,0.6z" class="st43" id="XMLID_33_"/>
     <g id="svg_312">
      <path d="m192.6867,107.90159c0.4,7.3 1.4,15.2 2.6,23.8l2.1,-22.2c0,0 9.7,-9.9 15.2,-23.2c0,0 11.6,31.2 50.5,39.4l-0.4,8.6c0,0 10.9,-12.5 9.3,-38.8c-1.6,-26.4 -36.6,-45.4 -62.2,-31c-14.7,8.3 -18.2,23.3 -17.1,43.4z" class="st44" id="XMLID_30_"/>
      <path d="m220.2867,77.50159c1.9,9 10.9,26.1 31.7,32.6c20.7,6.5 -9.2,-1.6 -20.2,-24.4c-7.7,-15.8 -13.4,-17.2 -11.5,-8.2z" class="st43" id="XMLID_27_"/>
      <path d="m192.6867,107.90159c0.4,7.3 1.4,15.2 2.6,23.8l2.1,-22.2c0,0 9.7,-9.9 15.2,-23.2c0,0 11.6,31.2 50.5,39.4l-0.4,8.6l3.1,-12.5c0,0 -34.8,-6.7 -53.8,-47c0,0 -7.6,23.7 -19.3,33.1z" class="st43" id="XMLID_9_"/>
     </g>
    </g>
   </g>
   <g id="BRAZO_DERE">
    <path d="m246.6867,265.30159l-2.6,7.5c0,0 -4.7,2.5 -6.9,10.2c-2.2,7.7 3.2,3.6 5.1,0.6c0,0 -2.5,8.1 0.5,9.2c0,0 4.8,2.4 6.6,0.4c0,0 4,1.6 5.6,-0.5c0,0 3.4,2.3 4.9,-1l-3.2,-0.3c0,0 2.9,-14.9 -5,-19l0.8,-6.9l-5.8,-0.2z" class="st22" id="XMLID_51_"/>
    <path d="m250.7867,180.20159c0,0 2.8,3.4 6.3,21.2c3.5,17.8 5.8,40 5.8,40l-8.7,30l-11.8,-3.7l8.5,-25.9l-6.9,-35c0.1,-0.1 0.2,-19.9 6.8,-26.6z" class="st45" id="XMLID_50_"/>
   </g>
   <g id="CUERPO">
    <g id="svg_313">
     <path d="m207.3867,251.10159c0,0 -6.2,16.7 -1.6,43.9l-12.2,107.9l13,1.4l17.9,-106.5c0.2,-3 3.6,-15.8 5.3,0.3l3.7,5.7l2,-20.6l-4,-32l-24.1,0l0,-0.1z" class="st46" id="XMLID_46_"/>
     <path d="m248.9867,247.70159c0,0 5.7,13.9 0,50.6c-5.8,37.5 -1.5,104.9 -1.5,104.9l-14.3,1.6l-1,-68.6l-5.5,-85l22.3,-3.5z" class="st46" id="XMLID_45_"/>
     <path d="m205.7867,255.30159c0,0 22.2,6.2 44.4,-3.2c0,0 0.1,-0.5 -0.3,-2.3c-0.4,-1.4 -0.9,-2.2 -0.9,-2.2s-19.1,6.9 -41.6,3.4c0,0 -0.4,0.5 -1,1.9c-0.6,1.5 -0.6,2.4 -0.6,2.4z" class="st47" id="XMLID_29_"/>
     <path d="m223.9867,252.00159c0,0 -0.7,1.7 0,5.3c0,0 4.2,0.6 8.6,-0.6c0,0 0.4,-2.3 -0.3,-5.4c0.1,0 -4.4,-0.1 -8.3,0.7z" class="st48" id="XMLID_28_"/>
     <path d="m261.7867,433.00159l-16.6,0c-3.1,-8.7 -11.9,-15.6 -11.9,-15.6l2.4,-5.7l0.9,-2.2c2.5,-3.5 6.2,0 6.2,0c1.3,5.2 7.7,12.5 12.7,17.5c3.4,3.5 6.3,6 6.3,6z" class="st23" id="XMLID_26_"/>
     <path d="m176.6867,433.00159l16.6,0c3.1,-8.7 11.9,-15.6 11.9,-15.6l-2.4,-5.7l-0.9,-2.2c-2.5,-3.5 -6.2,0 -6.2,0c-1.3,5.2 -7.7,12.5 -12.7,17.5c-3.5,3.5 -6.3,6 -6.3,6z" class="st23" id="XMLID_23_"/>
    </g>
    <g id="svg_314">
     <path d="m234.4867,176.80159l-13.9,-0.1c-0.9,0 -1.5,-0.7 -1.5,-1.6l0.2,-23.8c0,-0.9 0.7,-1.5 1.6,-1.5l13.9,0.1c0.9,0 1.5,0.7 1.5,1.6l-0.2,23.8c0,0.8 -0.7,1.5 -1.6,1.5z" class="st22" id="XMLID_41_"/>
     <polygon points="220.08670043945312,175.30158233642578 206.18667602539062,179.70159149169922 206.9866943359375,205.00159454345703 252.18667602539062,203.4015884399414 249.48672485351562,180.30158233642578 234.78668212890625,175.70159149169922 " class="st22" id="XMLID_31_"/>
     <path d="m228.9867,191.50159l9.3,-0.5l-0.5,-14.4l13.3,3.8l1.4,21.1l-3.5,34.6l-1.3,19.2c0,0 -17.3,4.6 -40.1,-3.2c0,0 -1.9,-32 -1.8,-32.9c1.1,-12.7 1,-24 1,-24l-2.6,-15.1l12.1,-4.4l2.6,14.4l10.1,1.4z" class="st45" id="XMLID_15_"/>
    </g>
   </g>
   <g id="BRAZO_IZQ">
    <g id="svg_315">
     <path d="m138.9867,216.40159c0,0 -3.2,-10.4 -2.4,-21.1c0,0 2.5,0.1 2.1,4.2c-0.3,3.9 2.4,9.8 2.4,9.8l-2.1,7.1z" class="st23" id="XMLID_13_"/>
     <path d="m214.6867,176.80159c0,0 -11.5,-0.5 -16.8,10.8c-5.3,11.3 -16,43.9 -16,43.9l-30.4,-9.2l-1.9,7.7c0,0 24.3,12.9 35.3,13.9c0.1,0 33.4,-54.9 29.8,-67.1z" class="st45" id="XMLID_12_"/>
     <path d="m138.9867,216.40159c0,0 -2.4,-11.2 2,-19.5c0,0 2,0.1 1.1,3.3c-0.9,3.2 -0.7,11.1 1,12.7c0,0 -1.3,4.3 -4.1,3.5z" class="st23" id="XMLID_11_"/>
     <path d="m152.5867,228.00159c0,0 -14.2,-1.6 -16.2,-6.9c-2,-5.2 -5.2,-9.1 -1.2,-16.5c0,0 2.1,1.6 0.9,6c0,0 -0.6,4.3 5.2,8c0,0 5.5,-1.3 10.2,2.4c-0.1,0.1 2.7,4.5 1.1,7z" class="st22" id="XMLID_10_"/>
     <path d="m207.0867,178.40159c0,0 -10.1,0.1 -16.7,25.6c-6.6,25.4 -9.3,25.2 -9.3,25.2s-2.1,-1.9 -2.6,-0.4c0,0 -3.2,-4.2 -7.4,-1.2l-4.1,10.6c0,0 11.5,7.9 18,5.7l13.1,-22.3l9,-43.2z" class="st45" id="XMLID_8_"/>
     <polygon points="171.38671875,227.4015884399414 162.68670654296875,225.10160064697266 159.58670043945312,234.9015884399414 167.28671264648438,238.30158233642578 " class="st45" id="XMLID_7_"/>
     <g id="phone_2_">
      <g id="svg_316">
       <path id="svg_317" d="m160.2867,233.20159l2,-1.2c4,-2.4 5.1,-6.8 2.6,-9.8l-22.6,-26.9c-2.5,-3 -7.8,-3.5 -11.8,-1.1l-2,1.2c-4,2.4 -5.1,6.8 -2.6,9.8l22.7,26.9c2.4,3 7.7,3.5 11.7,1.1z" class="st28"/>
       <path id="svg_318" d="m163.8867,231.10159l2,-1.2c4,-2.4 5.1,-6.8 2.6,-9.8l-22.7,-26.9c-2.5,-3 -7.8,-3.5 -11.8,-1.1l-2,1.2c-4,2.4 -5.1,6.8 -2.6,9.8l22.7,26.9c2.5,3 7.8,3.5 11.8,1.1z" class="st29"/>
      </g>
      <polygon id="svg_319" points="153.9866943359375,230.50159454345703 167.78668212890625,222.4015884399414 142.08670043945312,190.80158233642578 128.2866973876953,198.9015884399414 " class="st10"/>
      <path id="svg_320" d="m145.5867,215.30159l4.8,-2.9c1.1,-0.7 1.4,-1.9 0.7,-2.7l-0.4,-0.4c-0.7,-0.8 -2.2,-1 -3.2,-0.3l-4.8,2.9c-1.1,0.7 -1.4,1.9 -0.7,2.7l0.4,0.4c0.7,0.8 2.1,1 3.2,0.3z" class="st30"/>
      <path id="svg_321" d="m142.1867,204.00159l4.9,-3c1.1,-0.7 1.4,-1.9 0.7,-2.7l-0.4,-0.4c-0.7,-0.8 -2.2,-1 -3.2,-0.3l-4.9,3c-1.1,0.7 -1.4,1.9 -0.7,2.7l0.4,0.4c0.7,0.8 2.1,1 3.2,0.3z" class="st31"/>
      <path id="svg_322" d="m156.4867,221.60159l4.9,-3c1.1,-0.7 1.4,-1.9 0.7,-2.7l-0.4,-0.4c-0.7,-0.8 -2.2,-1 -3.2,-0.3l-4.9,3c-1.1,0.7 -1.4,1.9 -0.7,2.7l0.4,0.4c0.7,0.8 2.1,1 3.2,0.3z" class="st31"/>
     </g>
     <path d="m154.5867,206.50159c0.1,4.4 -1.4,6.2 -1.4,6.2l5.2,5.7c0,0 0.7,-4.5 -0.6,-8.5" class="st23" id="XMLID_17_"/>
    </g>
   </g>
   <g id="BRAZO_IZQ-2">
    <g id="svg_323">
     <path d="m136.6867,191.00159c0,0 0,-10.9 4,-20.9c0,0 2.4,0.8 0.8,4.6c-1.4,3.6 -0.6,10.1 -0.6,10.1l-4.2,6.2z" class="st23" id="XMLID_24_"/>
     <path d="m220.6867,175.70159c0,0 -10.8,-3.9 -19.3,5.3c-8.4,9.2 -28.4,37.1 -28.4,37.1l-26.3,-17.8l-4.1,6.8c0,0 19.3,19.6 29.5,23.8c0.3,0 48.4,-42.4 48.6,-55.2z" class="st45" id="XMLID_22_"/>
     <path d="m136.6867,191.00159c0,0 1,-11.4 7.7,-18c0,0 1.9,0.7 0.1,3.5c-1.8,2.8 -4,10.4 -2.8,12.4c-0.1,-0.1 -2.6,3.7 -5,2.1z" class="st23" id="XMLID_21_"/>
     <path d="m146.1867,206.10159c0,0 -13.1,-5.8 -13.4,-11.4c-0.4,-5.6 -2.2,-10.2 3.8,-16.1c0,0 1.5,2.2 -0.9,6c0,0 -1.9,3.9 2.6,9.2c0,0 5.6,0.4 9,5.3c-0.2,0 1.1,5.1 -1.1,7z" class="st22" id="XMLID_20_"/>
     <path d="m212.9867,175.00159c0,0 -9.7,-2.9 -23.6,19.5c-13.9,22.3 -16.4,21.3 -16.4,21.3s-1.4,-2.4 -2.4,-1.2c0,0 -1.8,-5 -6.7,-3.4l-7.1,8.9c0,0 8.6,11 15.5,10.8l19.2,-17.4l21.5,-38.5z" class="st45" id="XMLID_19_"/>
     <polygon points="164.28671264648438,211.10160064697266 156.68670654296875,206.30158233642578 150.78668212890625,214.80158233642578 157.08670043945312,220.30158233642578 " class="st45" id="XMLID_18_"/>
     <g id="phone_3_">
      <g id="svg_324">
       <path id="svg_325" d="m151.9867,213.30159l2.3,-0.5c4.5,-1.1 6.9,-5 5.4,-8.6l-13.5,-32.4c-1.5,-3.6 -6.4,-5.7 -10.9,-4.6l-2.3,0.5c-4.5,1.1 -6.9,5 -5.4,8.6l13.6,32.4c1.3,3.7 6.2,5.7 10.8,4.6z" class="st28"/>
       <path id="svg_326" d="m155.9867,212.40159l2.3,-0.5c4.5,-1.1 6.9,-5 5.4,-8.6l-13.6,-32.4c-1.5,-3.6 -6.4,-5.7 -10.9,-4.6l-2.3,0.5c-4.5,1.1 -6.9,5 -5.4,8.6l13.6,32.4c1.5,3.7 6.4,5.7 10.9,4.6z" class="st29"/>
      </g>
      <polygon id="svg_327" points="146.7866973876953,208.9015884399414 162.38671875,205.30158233642578 147.1866912841797,167.4015884399414 131.6866912841797,171.1015853881836 " class="st10"/>
      <path id="svg_328" d="m143.2867,191.90159l5.4,-1.3c1.3,-0.3 1.9,-1.4 1.5,-2.4l-0.3,-0.5c-0.4,-1 -1.8,-1.6 -3,-1.2l-5.4,1.3c-1.3,0.3 -1.9,1.4 -1.5,2.4l0.3,0.5c0.4,0.9 1.7,1.5 3,1.2z" class="st30"/>
      <path id="svg_329" d="m143.3867,180.10159l5.6,-1.4c1.3,-0.3 1.9,-1.4 1.5,-2.4l-0.3,-0.5c-0.4,-1 -1.8,-1.6 -3,-1.2l-5.6,1.4c-1.3,0.3 -1.9,1.4 -1.5,2.4l0.3,0.5c0.5,0.9 1.7,1.5 3,1.2z" class="st31"/>
      <path id="svg_330" d="m151.7867,201.10159l5.6,-1.4c1.3,-0.3 1.9,-1.4 1.5,-2.4l-0.3,-0.5c-0.4,-1 -1.8,-1.6 -3,-1.2l-5.6,1.4c-1.3,0.3 -1.9,1.4 -1.5,2.4l0.3,0.5c0.5,1 1.7,1.6 3,1.2z" class="st31"/>
     </g>
     <path d="m154.4867,186.20159c-1.2,4.2 -3.2,5.5 -3.2,5.5l3.3,7c0,0 2,-4.1 2,-8.3" class="st23" id="XMLID_16_"/>
    </g>
   </g>
   <g id="BOCA">
    <g id="XMLID_3_">
     <path d="m218.8867,151.40159c0,0 0.6,1.7 1.8,3.4c0.2,0.2 0.3,0.5 0.5,0.7c2,2.5 5.3,4.7 9.9,1.2c0.1,-0.1 0.3,-0.2 0.4,-0.3c0.9,-0.7 1.8,-1.6 2.8,-2.8c0,-0.1 -7.8,0.3 -15.4,-2.2z" class="st26" id="XMLID_52_"/>
     <path d="m221.1867,155.50159c2,2.5 5.3,4.7 9.9,1.2c-0.9,-1.4 -2.8,-2.5 -4.9,-2.7c-2,-0.2 -3.8,0.4 -5,1.5z" class="st49" id="XMLID_53_"/>
    </g>
   </g>
   <g id="OJOS">
    <path d="m212.6867,130.30159l0,0c-1.2,-0.1 -2.1,-1.1 -2,-2.3l0.2,-2.9c0.1,-1.2 1.1,-2.1 2.3,-2l0,0c1.2,0.1 2.1,1.1 2,2.3l-0.2,2.9c-0.1,1.2 -1.2,2.1 -2.3,2z" class="st26" id="XMLID_2_"/>
    <path d="m244.1867,133.00159l0,0c-1.2,-0.1 -2.1,-1.1 -2,-2.3l0.2,-2.9c0.1,-1.2 1.1,-2.1 2.3,-2l0,0c1.2,0.1 2.1,1.1 2,2.3l-0.2,2.9c-0.1,1.2 -1.1,2.1 -2.3,2z" class="st26" id="XMLID_1_"/>
   </g>
   <g id="ojos-closed">
    <path d="m212.6867,128.60159l0,0c-1.2,0 -2.1,-0.3 -2,-0.6l0.2,-0.7c0.1,-0.3 1.1,-0.5 2.3,-0.5l0,0c1.2,0 2.1,0.3 2,0.6l-0.2,0.7c-0.1,0.3 -1.2,0.6 -2.3,0.5z" class="st26" id="XMLID_5_"/>
    <path d="m244.1867,129.30159l0,0c-1.2,0 -2.1,-0.3 -2,-0.6l0.2,-0.7c0.1,-0.3 1.1,-0.5 2.3,-0.5l0,0c1.2,0 2.1,0.3 2,0.6l-0.2,0.7c-0.1,0.3 -1.1,0.5 -2.3,0.5z" class="st26" id="XMLID_4_"/>
   </g>
  </g>
 </g>
</svg>