<?xml version="1.0" encoding="utf-8"?>
<!-- Generator: Adobe Illustrator 16.0.0, SVG Export Plug-In . SVG Version: 6.00 Build 0)  -->
<!DOCTYPE svg PUBLIC "-//W3C//DTD SVG 1.1//EN" "http://www.w3.org/Graphics/SVG/1.1/DTD/svg11.dtd">
<svg version="1.1" id="Layer_1" xmlns="http://www.w3.org/2000/svg" xmlns:xlink="http://www.w3.org/1999/xlink" x="0px" y="0px"
	 width="20px" height="20px" viewBox="0 0 20 20" enable-background="new 0 0 20 20" xml:space="preserve">
<g>
	<polygon fill-rule="evenodd" clip-rule="evenodd" fill="#2C3E50" points="11.276,17.479 11.047,17.927 11.032,17.955 
		11.016,17.978 10.998,18.006 10.975,18.029 10.952,18.055 10.929,18.079 10.902,18.102 10.869,18.121 10.837,18.143 10.805,18.163 
		10.768,18.184 10.729,18.202 10.694,18.218 10.652,18.234 10.613,18.251 10.569,18.261 10.528,18.274 10.486,18.283 10.439,18.298 
		10.396,18.305 10.352,18.31 10.305,18.317 10.26,18.319 10.214,18.325 10.17,18.325 10.121,18.325 10.075,18.325 10.028,18.325 
		9.982,18.319 9.938,18.317 9.894,18.31 9.847,18.305 9.804,18.298 9.758,18.283 9.716,18.274 9.674,18.261 9.632,18.251 
		9.591,18.234 9.551,18.218 9.513,18.202 9.476,18.184 9.44,18.163 9.405,18.143 9.374,18.121 9.344,18.102 9.316,18.079 
		9.292,18.055 9.269,18.029 9.245,18.006 9.229,17.978 9.211,17.955 9.198,17.927 8.967,17.479 8.984,17.509 9.005,17.543 
		9.028,17.574 9.055,17.604 9.083,17.636 9.114,17.661 9.149,17.692 9.186,17.72 9.227,17.746 9.269,17.771 9.315,17.798 
		9.362,17.821 9.408,17.842 9.459,17.862 9.51,17.88 9.561,17.898 9.617,17.914 9.667,17.927 9.722,17.937 9.778,17.946 
		9.835,17.957 9.894,17.966 9.949,17.971 10.006,17.971 10.063,17.976 10.121,17.976 10.18,17.976 10.238,17.971 10.294,17.971 
		10.352,17.966 10.408,17.957 10.465,17.946 10.521,17.937 10.576,17.927 10.629,17.914 10.684,17.898 10.735,17.88 10.785,17.862 
		10.835,17.842 10.881,17.821 10.929,17.798 10.975,17.771 11.019,17.746 11.056,17.72 11.095,17.692 11.13,17.661 11.16,17.636 
		11.188,17.604 11.215,17.574 11.24,17.543 11.263,17.509 	"/>
	<polygon fill-rule="evenodd" clip-rule="evenodd" fill="#3D566E" points="12.394,16.405 11.937,17.285 11.908,17.334 
		11.877,17.385 11.841,17.435 11.799,17.483 11.751,17.53 11.704,17.576 11.65,17.62 11.59,17.663 11.526,17.705 11.461,17.746 
		11.39,17.787 11.316,17.821 11.24,17.857 11.163,17.888 11.084,17.916 11,17.941 10.919,17.968 10.835,17.988 10.75,18.006 
		10.661,18.022 10.573,18.037 10.483,18.048 10.394,18.058 10.304,18.063 10.214,18.064 10.121,18.064 10.031,18.064 9.941,18.063 
		9.849,18.058 9.762,18.048 9.671,18.037 9.581,18.022 9.496,18.006 9.408,17.988 9.324,17.968 9.241,17.941 9.159,17.916 
		9.08,17.888 9.001,17.857 8.927,17.821 8.853,17.787 8.784,17.746 8.717,17.705 8.652,17.663 8.595,17.62 8.541,17.576 
		8.492,17.53 8.445,17.483 8.404,17.435 8.368,17.385 8.334,17.334 8.306,17.285 7.854,16.405 7.888,16.465 7.927,16.526 
		7.975,16.59 8.027,16.646 8.083,16.706 8.144,16.765 8.213,16.821 8.285,16.876 8.366,16.925 8.449,16.979 8.538,17.028 
		8.628,17.074 8.722,17.115 8.82,17.153 8.918,17.189 9.02,17.224 9.125,17.252 9.229,17.28 9.34,17.304 9.448,17.323 9.557,17.342 
		9.67,17.354 9.782,17.368 9.894,17.373 10.008,17.378 10.121,17.378 10.234,17.378 10.348,17.373 10.461,17.368 10.573,17.354 
		10.684,17.342 10.795,17.323 10.904,17.304 11.013,17.28 11.117,17.252 11.223,17.224 11.324,17.189 11.426,17.153 11.519,17.115 
		11.614,17.074 11.708,17.028 11.795,16.979 11.879,16.925 11.958,16.876 12.031,16.821 12.1,16.765 12.161,16.706 12.217,16.646 
		12.269,16.59 12.315,16.526 12.355,16.465 	"/>
	<path fill-rule="evenodd" clip-rule="evenodd" fill="#2C3E50" d="M11.787,17.391c0.63-0.367,0.829-0.888,0.593-1.349l-0.451-0.88
		L11.9,15.113l-0.032-0.052l-0.037-0.05l-0.044-0.047l-0.044-0.047l-0.048-0.045L11.64,14.83l-0.058-0.045l-0.063-0.042L11.451,14.7
		l-0.069-0.035l-0.069-0.036l-0.076-0.032l-0.079-0.03l-0.078-0.032l-0.082-0.023l-0.083-0.022l-0.085-0.024l-0.086-0.018
		L10.66,14.43l-0.09-0.015l-0.088-0.01l-0.087-0.01l-0.093-0.006l-0.089-0.004h-0.091h-0.09l-0.09,0.004l-0.09,0.006l-0.089,0.01
		l-0.088,0.01L9.586,14.43l-0.088,0.017l-0.085,0.018L9.33,14.488l-0.084,0.022l-0.08,0.023l-0.08,0.032l-0.077,0.03l-0.075,0.032
		l-0.072,0.036L8.791,14.7l-0.068,0.043L8.66,14.785L8.602,14.83l-0.053,0.043L8.5,14.918l-0.046,0.047l-0.04,0.047l-0.037,0.05
		l-0.033,0.052l-0.028,0.049l-0.452,0.88c-0.237,0.461-0.039,0.981,0.593,1.349C9.376,17.921,10.867,17.921,11.787,17.391z"/>
	<path fill-rule="evenodd" clip-rule="evenodd" fill="#3D566E" d="M12.457,16.255c-0.016-0.071-0.042-0.141-0.077-0.213l-0.451-0.88
		L11.9,15.113l-0.032-0.052l-0.037-0.05l-0.044-0.047l-0.044-0.047l-0.048-0.045L11.64,14.83l-0.058-0.045l-0.063-0.042L11.451,14.7
		l-0.069-0.035l-0.069-0.036l-0.076-0.032l-0.079-0.03l-0.078-0.032l-0.082-0.023l-0.083-0.022l-0.085-0.024l-0.086-0.018
		L10.66,14.43l-0.09-0.015l-0.088-0.01l-0.087-0.01l-0.093-0.006l-0.089-0.004h-0.091h-0.09l-0.09,0.004l-0.09,0.006l-0.087,0.01
		l-0.09,0.01L9.586,14.43l-0.088,0.017l-0.085,0.018L9.33,14.488l-0.084,0.022l-0.08,0.023l-0.08,0.032l-0.077,0.03l-0.075,0.032
		l-0.072,0.036L8.791,14.7l-0.068,0.043L8.66,14.785L8.602,14.83l-0.053,0.043L8.5,14.918l-0.046,0.047l-0.04,0.047l-0.037,0.05
		l-0.033,0.052l-0.028,0.049l-0.452,0.88c-0.036,0.072-0.064,0.142-0.079,0.213c0.066,0.289,0.289,0.566,0.671,0.788
		c0.918,0.531,2.409,0.531,3.329,0C12.171,16.821,12.394,16.544,12.457,16.255z"/>
	<path fill-rule="evenodd" clip-rule="evenodd" fill="#FFED00" d="M3.529,8.319c0.129,0,0.234,0.106,0.234,0.235
		c0,0.127-0.105,0.232-0.234,0.232H0.911c-0.129,0-0.235-0.105-0.235-0.232c0-0.128,0.106-0.235,0.235-0.235H3.529z"/>
	<path fill-rule="evenodd" clip-rule="evenodd" fill="#FFED00" d="M5.458,3.545c0.092,0.09,0.092,0.239,0.003,0.33
		c-0.091,0.09-0.24,0.09-0.332,0.002L3.253,2.001c-0.09-0.09-0.09-0.238,0-0.329c0.091-0.093,0.239-0.093,0.33-0.002L5.458,3.545z"
		/>
	<path fill-rule="evenodd" clip-rule="evenodd" fill="#FFED00" d="M16.792,8.786c-0.131,0-0.24-0.105-0.24-0.232
		c0-0.128,0.109-0.235,0.24-0.235h2.616c0.129,0,0.232,0.106,0.232,0.235c0,0.127-0.104,0.232-0.232,0.232H16.792z"/>
	<path fill-rule="evenodd" clip-rule="evenodd" fill="#FFED00" d="M15.188,3.876c-0.092,0.088-0.239,0.088-0.33-0.002
		c-0.09-0.09-0.09-0.239,0-0.33l1.876-1.875c0.09-0.09,0.242-0.09,0.33,0.002c0.09,0.091,0.09,0.239,0,0.329L15.188,3.876z"/>
	<path fill-rule="evenodd" clip-rule="evenodd" fill="#EDCC0F" d="M14.918,6.529c0.664,2.095-0.06,3.528-0.81,4.813
		c-0.473,0.81-0.809,0.925-1.067,1.843c-0.158,0.557-0.079,1.147-0.54,1.568c-0.729,0.673-1.503,0.741-2.287,0.766h-0.093h-0.093
		c-0.785-0.024-1.556-0.093-2.287-0.766c-0.462-0.421-0.381-1.012-0.537-1.568c-0.259-0.918-0.597-1.033-1.07-1.843
		c-0.749-1.286-1.473-2.718-0.81-4.813c0.685-2.157,2.741-3.234,4.796-3.234C12.179,3.295,14.236,4.373,14.918,6.529z"/>
	<path fill-rule="evenodd" clip-rule="evenodd" fill="#9C9C9C" d="M11.473,16.531c0.748-0.431,0.748-1.13,0-1.563
		c-0.745-0.429-1.955-0.429-2.703,0c-0.747,0.433-0.747,1.132,0,1.563C9.518,16.961,10.728,16.961,11.473,16.531z"/>
	<path fill-rule="evenodd" clip-rule="evenodd" fill="#2C3E50" d="M11.787,16.671c0.63-0.369,0.829-0.888,0.593-1.351l-0.451-0.879
		L11.9,14.393l-0.032-0.051l-0.037-0.048l-0.044-0.049l-0.044-0.046l-0.048-0.046l-0.056-0.045l-0.058-0.043l-0.063-0.042
		l-0.067-0.039l-0.069-0.041l-0.069-0.036l-0.076-0.033l-0.079-0.03l-0.078-0.03l-0.082-0.023l-0.083-0.024l-0.085-0.023
		l-0.086-0.019l-0.084-0.017l-0.09-0.011l-0.088-0.013l-0.087-0.009l-0.093-0.007l-0.089-0.002l-0.091-0.002l-0.09,0.002
		l-0.09,0.002l-0.09,0.007l-0.089,0.009l-0.088,0.013l-0.088,0.011l-0.088,0.017l-0.085,0.019L9.33,13.766L9.245,13.79l-0.08,0.023
		l-0.08,0.03l-0.077,0.03l-0.075,0.033l-0.072,0.036l-0.07,0.041l-0.068,0.039L8.66,14.065l-0.058,0.043l-0.053,0.045L8.5,14.199
		l-0.046,0.046l-0.04,0.049l-0.037,0.048l-0.033,0.051l-0.028,0.049L7.865,15.32c-0.237,0.463-0.039,0.981,0.593,1.351
		C9.376,17.198,10.867,17.198,11.787,16.671z"/>
	<path fill-rule="evenodd" clip-rule="evenodd" fill="#3D566E" d="M12.457,15.535c-0.016-0.072-0.042-0.144-0.077-0.215
		l-0.451-0.879L11.9,14.393l-0.032-0.051l-0.037-0.048l-0.044-0.049l-0.044-0.046l-0.048-0.046l-0.056-0.045l-0.058-0.043
		l-0.063-0.042l-0.067-0.039l-0.069-0.041l-0.069-0.036l-0.076-0.033l-0.079-0.03l-0.078-0.03l-0.082-0.023l-0.083-0.024
		l-0.085-0.023l-0.086-0.019l-0.084-0.017l-0.09-0.011l-0.088-0.013l-0.087-0.009l-0.093-0.007l-0.089-0.002l-0.091-0.002
		l-0.09,0.002l-0.09,0.002l-0.09,0.007l-0.087,0.009l-0.09,0.013l-0.088,0.011l-0.088,0.017l-0.085,0.019L9.33,13.766L9.245,13.79
		l-0.08,0.023l-0.08,0.03l-0.077,0.03l-0.075,0.033l-0.072,0.036l-0.07,0.041l-0.068,0.039L8.66,14.065l-0.058,0.043l-0.053,0.045
		L8.5,14.199l-0.046,0.046l-0.04,0.049l-0.037,0.048l-0.033,0.051l-0.028,0.049L7.865,15.32c-0.036,0.071-0.064,0.143-0.079,0.215
		c0.066,0.288,0.289,0.565,0.671,0.787c0.918,0.534,2.409,0.534,3.329,0C12.171,16.101,12.394,15.823,12.457,15.535z"/>
	<path fill-rule="evenodd" clip-rule="evenodd" fill="#9C9C9C" d="M11.473,15.7c0.748-0.43,0.748-1.132,0-1.561
		c-0.745-0.433-1.955-0.433-2.703,0c-0.747,0.429-0.747,1.131,0,1.561C9.518,16.132,10.728,16.132,11.473,15.7z"/>
	<polygon fill-rule="evenodd" clip-rule="evenodd" fill="#9C9C9C" points="12.501,14.208 12.501,15.035 12.493,15.104 12.48,15.167 
		12.463,15.233 12.438,15.301 12.405,15.362 12.369,15.427 12.33,15.488 12.284,15.552 12.23,15.613 12.175,15.672 12.113,15.729 
		12.042,15.785 11.97,15.839 11.891,15.894 11.807,15.944 11.72,15.99 11.626,16.037 11.53,16.078 11.432,16.12 11.332,16.155 
		11.229,16.188 11.126,16.217 11.019,16.245 10.908,16.269 10.8,16.29 10.689,16.307 10.576,16.322 10.463,16.332 10.35,16.341 
		10.238,16.347 10.121,16.347 10.008,16.347 9.894,16.341 9.778,16.332 9.667,16.322 9.557,16.307 9.443,16.29 9.334,16.269 
		9.224,16.245 9.119,16.217 9.014,16.188 8.91,16.155 8.812,16.12 8.714,16.078 8.618,16.037 8.528,15.99 8.438,15.944 
		8.354,15.894 8.273,15.839 8.2,15.785 8.133,15.729 8.069,15.672 8.014,15.613 7.96,15.552 7.914,15.488 7.873,15.427 
		7.838,15.362 7.808,15.301 7.784,15.233 7.765,15.167 7.752,15.104 7.742,15.035 7.742,14.208 7.752,14.274 7.765,14.341 
		7.784,14.405 7.808,14.472 7.838,14.534 7.873,14.599 7.914,14.66 7.96,14.721 8.014,14.783 8.069,14.84 8.133,14.901 8.2,14.955 
		8.273,15.01 8.354,15.063 8.438,15.115 8.528,15.165 8.618,15.207 8.714,15.254 8.812,15.29 8.91,15.327 9.014,15.36 9.119,15.389 
		9.224,15.417 9.334,15.44 9.443,15.463 9.557,15.479 9.667,15.495 9.778,15.505 9.894,15.512 10.008,15.517 10.121,15.52 
		10.238,15.517 10.35,15.512 10.463,15.505 10.576,15.495 10.689,15.479 10.8,15.463 10.908,15.44 11.019,15.417 11.126,15.389 
		11.229,15.36 11.332,15.327 11.432,15.29 11.53,15.254 11.626,15.207 11.72,15.165 11.807,15.115 11.891,15.063 11.97,15.01 
		12.042,14.955 12.113,14.901 12.175,14.84 12.23,14.783 12.284,14.721 12.33,14.66 12.369,14.599 12.405,14.534 12.438,14.472 
		12.463,14.405 12.48,14.341 12.493,14.274 	"/>
	<path fill-rule="evenodd" clip-rule="evenodd" fill="#C49F0C" d="M11.807,13.172c0.931,0.535,0.931,1.408,0,1.943
		c-0.93,0.538-2.438,0.538-3.369,0c-0.931-0.535-0.931-1.408,0-1.943C9.368,12.632,10.876,12.632,11.807,13.172z"/>
	<polygon fill-rule="evenodd" clip-rule="evenodd" fill="#2C3E50" points="12.501,14.208 12.501,15.035 12.493,15.104 12.48,15.167 
		12.463,15.233 12.438,15.301 12.405,15.362 12.369,15.427 12.33,15.488 12.284,15.552 12.23,15.613 12.175,15.672 12.113,15.729 
		12.042,15.785 11.97,15.839 11.891,15.894 11.807,15.944 11.72,15.99 11.626,16.037 11.53,16.078 11.432,16.12 11.332,16.155 
		11.229,16.188 11.126,16.217 11.019,16.245 10.908,16.269 10.8,16.29 10.689,16.307 10.576,16.322 10.463,16.332 10.35,16.341 
		10.238,16.347 10.121,16.347 10.008,16.347 9.894,16.341 9.778,16.332 9.667,16.322 9.557,16.307 9.443,16.29 9.334,16.269 
		9.224,16.245 9.119,16.217 9.014,16.188 8.91,16.155 8.812,16.12 8.714,16.078 8.618,16.037 8.528,15.99 8.438,15.944 
		8.354,15.894 8.273,15.839 8.2,15.785 8.133,15.729 8.069,15.672 8.014,15.613 7.96,15.552 7.914,15.488 7.873,15.427 
		7.838,15.362 7.808,15.301 7.784,15.233 7.765,15.167 7.752,15.104 7.742,15.035 7.742,14.208 7.752,14.274 7.765,14.341 
		7.784,14.405 7.808,14.472 7.838,14.534 7.873,14.599 7.914,14.66 7.96,14.721 8.014,14.783 8.069,14.84 8.133,14.901 8.2,14.955 
		8.273,15.01 8.354,15.063 8.438,15.115 8.528,15.165 8.618,15.207 8.714,15.254 8.812,15.29 8.91,15.327 9.014,15.36 9.119,15.389 
		9.224,15.417 9.334,15.44 9.443,15.463 9.557,15.479 9.667,15.495 9.778,15.505 9.894,15.512 10.008,15.517 10.121,15.52 
		10.238,15.517 10.35,15.512 10.463,15.505 10.576,15.495 10.689,15.479 10.8,15.463 10.908,15.44 11.019,15.417 11.126,15.389 
		11.229,15.36 11.332,15.327 11.432,15.29 11.53,15.254 11.626,15.207 11.72,15.165 11.807,15.115 11.891,15.063 11.97,15.01 
		12.042,14.955 12.113,14.901 12.175,14.84 12.23,14.783 12.284,14.721 12.33,14.66 12.369,14.599 12.405,14.534 12.438,14.472 
		12.463,14.405 12.48,14.341 12.493,14.274 	"/>
	<polygon fill-rule="evenodd" clip-rule="evenodd" fill="#3D566E" points="12.501,14.208 12.501,14.714 12.493,14.778 12.48,14.846 
		12.463,14.909 12.438,14.974 12.405,15.035 12.369,15.104 12.33,15.165 12.284,15.227 12.23,15.288 12.175,15.345 12.113,15.403 
		12.042,15.46 11.97,15.515 11.891,15.566 11.807,15.618 11.72,15.67 11.626,15.715 11.53,15.757 11.432,15.795 11.332,15.833 
		11.229,15.864 11.126,15.896 11.019,15.921 10.908,15.944 10.8,15.965 10.689,15.982 10.576,15.995 10.463,16.009 10.35,16.017 
		10.238,16.019 10.121,16.021 10.008,16.019 9.894,16.017 9.778,16.009 9.667,15.995 9.557,15.982 9.443,15.965 9.334,15.944 
		9.224,15.921 9.119,15.896 9.014,15.864 8.91,15.833 8.812,15.795 8.714,15.757 8.618,15.715 8.528,15.67 8.438,15.618 
		8.354,15.566 8.273,15.515 8.2,15.46 8.133,15.403 8.069,15.345 8.014,15.288 7.96,15.227 7.914,15.165 7.873,15.104 7.838,15.035 
		7.808,14.974 7.784,14.909 7.765,14.846 7.752,14.778 7.742,14.714 7.742,14.208 7.752,14.274 7.765,14.341 7.784,14.405 
		7.808,14.472 7.838,14.534 7.873,14.599 7.914,14.66 7.96,14.721 8.014,14.783 8.069,14.84 8.133,14.901 8.2,14.955 8.273,15.01 
		8.354,15.063 8.438,15.115 8.528,15.165 8.618,15.207 8.714,15.254 8.812,15.29 8.91,15.327 9.014,15.36 9.119,15.389 
		9.224,15.417 9.334,15.44 9.443,15.463 9.557,15.479 9.667,15.495 9.778,15.505 9.894,15.512 10.008,15.517 10.121,15.52 
		10.238,15.517 10.35,15.512 10.463,15.505 10.576,15.495 10.689,15.479 10.8,15.463 10.908,15.44 11.019,15.417 11.126,15.389 
		11.229,15.36 11.332,15.327 11.432,15.29 11.53,15.254 11.626,15.207 11.72,15.165 11.807,15.115 11.891,15.063 11.97,15.01 
		12.042,14.955 12.113,14.901 12.175,14.84 12.23,14.783 12.284,14.721 12.33,14.66 12.369,14.599 12.405,14.534 12.438,14.472 
		12.463,14.405 12.48,14.341 12.493,14.274 	"/>
	<path fill-rule="evenodd" clip-rule="evenodd" fill="#A8890D" d="M12.501,14.208v0.546c-0.505,0.5-1.211,0.753-2.341,0.766
		c-0.01,0-0.021,0-0.032,0l0.109-0.003l0.112-0.005l0.113-0.007l0.112-0.01l0.113-0.017l0.111-0.016l0.108-0.022l0.11-0.023
		l0.107-0.028l0.103-0.028l0.104-0.033l0.1-0.037l0.099-0.036l0.096-0.047l0.094-0.042l0.087-0.05l0.084-0.052l0.079-0.054
		l0.072-0.055l0.071-0.054l0.062-0.062l0.056-0.057l0.054-0.063l0.046-0.061l0.039-0.062l0.036-0.064l0.032-0.063l0.025-0.066
		l0.018-0.064l0.013-0.066L12.501,14.208L12.501,14.208z M7.742,14.749v-0.541l0.01,0.066l0.013,0.066l0.019,0.064l0.023,0.066
		l0.031,0.063l0.034,0.064l0.041,0.062l0.046,0.061l0.054,0.063l0.055,0.057l0.064,0.062L8.2,14.955l0.073,0.055l0.081,0.054
		l0.083,0.052l0.09,0.05l0.09,0.042l0.096,0.047l0.098,0.036l0.098,0.037l0.104,0.033l0.105,0.028l0.105,0.028l0.11,0.023
		l0.109,0.022l0.114,0.016l0.11,0.017l0.111,0.01l0.116,0.007l0.114,0.005l0.108,0.003C8.97,15.521,8.254,15.264,7.742,14.749z"/>
	<polygon fill-rule="evenodd" clip-rule="evenodd" fill="#A8890D" points="10.964,13.195 10.964,13.915 10.964,13.921 
		10.964,13.927 10.962,13.929 10.957,13.936 10.952,13.941 10.948,13.945 10.94,13.952 10.936,13.954 9.722,14.654 9.716,14.657 
		9.708,14.66 9.7,14.665 9.69,14.667 9.681,14.67 9.674,14.672 9.662,14.672 9.653,14.672 9.645,14.672 9.635,14.672 9.626,14.67 
		9.617,14.667 9.607,14.665 9.601,14.66 9.591,14.657 9.583,14.654 9.577,14.65 9.487,14.599 9.264,14.469 9.257,14.464 
		9.251,14.462 9.245,14.455 9.241,14.453 9.24,14.446 9.238,14.441 9.235,14.437 9.235,14.43 9.235,13.71 9.235,13.718 
		9.238,13.722 9.24,13.726 9.241,13.73 9.245,13.734 9.251,13.742 9.257,13.746 9.264,13.751 9.487,13.88 9.577,13.929 
		9.583,13.936 9.591,13.941 9.601,13.943 9.607,13.945 9.617,13.947 9.626,13.95 9.635,13.952 9.645,13.952 9.653,13.952 
		9.662,13.952 9.674,13.952 9.681,13.95 9.69,13.947 9.7,13.945 9.708,13.943 9.716,13.941 9.722,13.936 10.936,13.234 
		10.94,13.231 10.948,13.225 10.952,13.221 10.957,13.217 10.962,13.212 10.964,13.207 10.964,13.199 	"/>
	<path fill-rule="evenodd" clip-rule="evenodd" fill="#E0D210" d="M10.615,12.972l0.321,0.185c0.039,0.021,0.039,0.056,0,0.078
		l-1.214,0.701c-0.037,0.021-0.101,0.021-0.139,0l-0.006-0.007l-0.09-0.049l-0.223-0.129c-0.038-0.023-0.038-0.058,0-0.08
		l1.212-0.699C10.514,12.948,10.576,12.948,10.615,12.972z"/>
	<path fill-rule="evenodd" clip-rule="evenodd" fill="#A8890D" d="M8.987,9.349c-0.086,0.05-0.155,0.009-0.155-0.091
		c0-0.098,0.019-0.239,0.103-0.289l2.47-1.433c0.086-0.047,0.092,0.044,0.092,0.143c0,0.1-0.046,0.245-0.134,0.296L8.987,9.349z"/>
	<path fill-rule="evenodd" clip-rule="evenodd" fill="#C49F0C" d="M10.733,13.161c0,0.022-0.011,0.046-0.041,0.062
		c-0.058,0.035-0.15,0.035-0.209,0c-0.027-0.013-0.043-0.034-0.043-0.056c0.003-0.147,0.005-0.296,0.01-0.447
		c0.016-0.805,0.036-1.486,0.14-2.189c0.123-0.827,0.338-1.687,0.685-2.815c0.031-0.104,0.119-0.193,0.188-0.196
		c0.076-0.009,0.111,0.07,0.076,0.174c-0.338,1.103-0.544,1.938-0.666,2.733c-0.105,0.723-0.144,1.417-0.14,2.258
		C10.733,12.845,10.735,13.001,10.733,13.161L10.733,13.161z M8.766,9.297C8.734,9.229,8.77,9.111,8.841,9.033
		c0.076-0.08,0.16-0.089,0.193-0.023c0.346,0.729,0.545,1.35,0.654,2.042c0.102,0.636,0.125,1.331,0.122,2.227
		c0,0.139-0.002,0.279,0,0.418c0,0.023-0.015,0.046-0.043,0.063c-0.058,0.031-0.15,0.031-0.21,0
		c-0.028-0.017-0.044-0.039-0.044-0.06c0-0.822,0.021-1.607-0.11-2.429C9.297,10.605,9.103,10.006,8.766,9.297z"/>
	<path fill-rule="evenodd" clip-rule="evenodd" fill="#FFED00" d="M9.387,9.385C9.367,9.503,9.281,9.62,9.194,9.646
		C9.106,9.673,9.054,9.599,9.074,9.482l0.135-0.794c0.02-0.118,0.106-0.234,0.192-0.262c0.085-0.027,0.141,0.048,0.12,0.166
		L9.387,9.385z"/>
	<path fill-rule="evenodd" clip-rule="evenodd" fill="#FFED00" d="M9.808,9.197C9.788,9.315,9.7,9.43,9.617,9.457
		C9.526,9.483,9.474,9.408,9.492,9.292l0.164-0.96c0.021-0.117,0.108-0.234,0.194-0.261C9.938,8.043,9.99,8.117,9.971,8.233
		L9.808,9.197z"/>
	<path fill-rule="evenodd" clip-rule="evenodd" fill="#FFED00" d="M10.229,9.006c-0.022,0.116-0.108,0.234-0.196,0.26
		C9.949,9.294,9.894,9.22,9.914,9.102l0.19-1.126c0.022-0.119,0.107-0.235,0.195-0.261c0.087-0.027,0.14,0.045,0.119,0.163
		L10.229,9.006z"/>
	<path fill-rule="evenodd" clip-rule="evenodd" fill="#FFED00" d="M10.671,8.654c-0.021,0.118-0.109,0.235-0.197,0.262
		c-0.085,0.026-0.14-0.049-0.119-0.164l0.163-0.962c0.02-0.119,0.107-0.236,0.192-0.26c0.087-0.028,0.143,0.046,0.123,0.164
		L10.671,8.654z"/>
	<path fill-rule="evenodd" clip-rule="evenodd" fill="#FFED00" d="M11.108,8.304C11.088,8.42,11,8.538,10.915,8.565
		c-0.087,0.025-0.141-0.048-0.121-0.166l0.135-0.793c0.022-0.116,0.107-0.234,0.194-0.261c0.086-0.027,0.142,0.047,0.119,0.164
		L11.108,8.304z"/>
	<path fill-rule="evenodd" clip-rule="evenodd" fill="#FFED00" d="M11.526,8.02c-0.02,0.116-0.109,0.231-0.194,0.261
		c-0.088,0.027-0.14-0.048-0.121-0.165l0.107-0.63c0.02-0.117,0.107-0.233,0.192-0.26c0.09-0.026,0.142,0.046,0.125,0.164
		L11.526,8.02z"/>
	<path fill-rule="evenodd" clip-rule="evenodd" fill="#FFED00" d="M8.989,9.512C8.97,9.629,8.881,9.747,8.797,9.772
		C8.708,9.799,8.654,9.727,8.673,9.609l0.109-0.63c0.018-0.118,0.104-0.234,0.191-0.262c0.088-0.026,0.141,0.049,0.124,0.164
		L8.989,9.512z"/>
	<path fill-rule="evenodd" clip-rule="evenodd" fill="#FFED00" d="M9.596,6.864C7.891,7.056,6.52,8.118,5.907,9.45
		C5.795,9.267,5.702,9.059,5.642,8.792C5.146,6.561,6.976,4.211,9.596,3.917V6.864z"/>
	<path fill-rule="evenodd" clip-rule="evenodd" fill="#FFF896" d="M9.487,9.328c-0.021,0.12-0.105,0.236-0.193,0.264
		c-0.087,0.025-0.14-0.048-0.121-0.166l0.135-0.793c0.021-0.117,0.107-0.235,0.194-0.261c0.088-0.027,0.144,0.046,0.123,0.165
		L9.487,9.328z"/>
	<path fill-rule="evenodd" clip-rule="evenodd" fill="#FFF896" d="M9.907,9.139c-0.019,0.119-0.106,0.234-0.19,0.262
		C9.627,9.428,9.573,9.355,9.591,9.235l0.167-0.961C9.778,8.158,9.862,8.04,9.95,8.013c0.086-0.025,0.142,0.047,0.122,0.165
		L9.907,9.139z"/>
	<path fill-rule="evenodd" clip-rule="evenodd" fill="#FFF896" d="M10.329,8.948c-0.019,0.119-0.108,0.235-0.19,0.261
		c-0.091,0.028-0.145-0.046-0.125-0.163l0.193-1.128c0.021-0.118,0.107-0.236,0.195-0.262c0.084-0.028,0.14,0.049,0.12,0.165
		L10.329,8.948z"/>
	<path fill-rule="evenodd" clip-rule="evenodd" fill="#FFF896" d="M10.77,8.598c-0.021,0.118-0.109,0.235-0.194,0.26
		c-0.088,0.026-0.14-0.046-0.122-0.164l0.163-0.959c0.023-0.118,0.107-0.236,0.195-0.262c0.088-0.028,0.141,0.048,0.123,0.165
		L10.77,8.598z"/>
	<path fill-rule="evenodd" clip-rule="evenodd" fill="#FFF896" d="M11.209,8.248c-0.021,0.118-0.107,0.235-0.193,0.26
		c-0.087,0.027-0.143-0.047-0.124-0.165l0.136-0.794c0.021-0.116,0.108-0.234,0.194-0.26c0.087-0.026,0.141,0.048,0.121,0.167
		L11.209,8.248z"/>
	<path fill-rule="evenodd" clip-rule="evenodd" fill="#FFF896" d="M11.626,7.963c-0.02,0.117-0.107,0.235-0.19,0.262
		c-0.088,0.025-0.144-0.048-0.123-0.167l0.104-0.627c0.022-0.118,0.107-0.235,0.197-0.262c0.085-0.026,0.137,0.048,0.119,0.166
		L11.626,7.963z"/>
	<path fill-rule="evenodd" clip-rule="evenodd" fill="#FFF896" d="M9.089,9.455C9.07,9.572,8.982,9.689,8.897,9.716
		C8.812,9.744,8.755,9.67,8.776,9.552l0.105-0.631c0.022-0.117,0.106-0.234,0.195-0.259c0.086-0.027,0.141,0.046,0.122,0.165
		L9.089,9.455z"/>
</g>
</svg>
