<?xml version="1.0" encoding="utf-8"?>
<!-- Generator: Adobe Illustrator 17.0.0, SVG Export Plug-In . SVG Version: 6.00 Build 0)  -->
<!DOCTYPE svg PUBLIC "-//W3C//DTD SVG 1.1//EN" "http://www.w3.org/Graphics/SVG/1.1/DTD/svg11.dtd">
<svg version="1.1" id="Layer_1" xmlns="http://www.w3.org/2000/svg" xmlns:xlink="http://www.w3.org/1999/xlink" x="0px" y="0px"
	 width="300px" height="300px" viewBox="0 0 300 300" enable-background="new 0 0 300 300" xml:space="preserve">
<path fill="#35393F" stroke="#000000" stroke-miterlimit="10" d="M177.513,135.15c-2.299-0.234-35.579-2.266-47.816-3.399
	c-12.237-1.133-21.982-1.813-21.982-1.813l-6.572-3.399l-38.751-2.493h-36.46L25,122.233c0,0,42.377,0,44.643,0
	s12.464,0.906,15.41,0.906s19.942,1.813,25.381,2.493c5.439,0.68,18.356,2.719,23.795,3.059c5.439,0.34,42.604,3.739,43.284,3.739
	S179.967,135.4,177.513,135.15z"/>
<path fill="#35393F" stroke="#000000" stroke-miterlimit="10" d="M73.269,90.96c0,0,4.079,0.227,5.439,0.906
	c1.36,0.68,4.532,10.651,5.212,14.957c0.68,4.306,2.946,10.651,2.946,10.651l-3.173,1.813l3.173,5.439l-5.67,0.53
	c0,0,0.458-2.796-1.128-7.782c-1.586-4.986-6.119-18.809-6.799-21.529C72.59,93.226,70.55,89.373,73.269,90.96z"/>
<path fill="#35393F" stroke="#000000" stroke-miterlimit="10" d="M87.954,125.255c-0.276-1.296-2.271-2.558-1.934-3.86
	c0.337-1.302-0.523-0.946-1.753-1.126c-2.599-0.378-2.114,0.757-2.666,1.963c-0.552,1.205-3.683,3.951-3.683,3.951l9.299,2.515
	C89.888,127.992,88.23,126.552,87.954,125.255z"/>
<linearGradient id="SVGID_1_" gradientUnits="userSpaceOnUse" x1="57.1255" y1="142.3066" x2="110.7457" y2="142.3066">
	<stop  offset="0" style="stop-color:#50764C"/>
	<stop  offset="1" style="stop-color:#365736"/>
</linearGradient>
<path fill="url(#SVGID_1_)" stroke="#000000" stroke-miterlimit="10" d="M109.35,143.348l1.395-0.279c0,0-0.279-2.512-1.814-5.442
	c-1.535-2.93-10.326-4.605-15.768-6.837c-5.442-2.233-14.711-5.088-16.744-5.534s-11.163,2.045-12.977,2.325
	c-1.814,0.279-1.954,12-3.349,15.907s-2.968,14.95-2.968,14.95l19.992,0.974c1.954-0.402,33.628-3.924,33.628-3.924
	s-0.14-6.419-0.698-9.07C109.49,143.766,109.35,143.348,109.35,143.348z"/>
<path fill="#35393F" stroke="#000000" stroke-miterlimit="10" d="M208.866,149.803c-3.212-2.328-11.321-9.073-15.014-11.562
	c-3.693-2.489-12.927-10.919-14.452-11.401c-1.525-0.482-4.978-0.803-6.022,0c-1.044,0.803,1.686,0.964,3.854,2.73
	c2.168,1.766,5.701,4.817,6.985,6.182c1.285,1.365,4.336,4.577,7.065,7.146c2.73,2.569,9.474,8.752,9.474,8.752
	s8.912,0.642,9.635,1.766c0.723,1.124,1.285,1.927,1.445,2.81l4.898,1.445C216.734,157.672,212.077,152.132,208.866,149.803z"/>
<path fill="#35393F" stroke="#000000" stroke-miterlimit="10" d="M156.035,154.219c0,0,4.014,1.927,6.182,2.409
	s10.197,1.285,13.167,1.686c2.971,0.401,17.434,2.248,19.556,2.248c2.122,0,7.501,0.161,8.626-0.321s1.204-1.285,3.131-1.285
	c1.927,0,11,0.562,11,0.562s6.423,1.285,6.825,1.686c0.401,0.401,2.65,1.686,2.81,1.044c0.161-0.642,0.723-1.204,0.723-1.204
	s6.825,0.431,10.357,0.737c3.533,0.306,16.7,1.993,21.036,2.153s15.471,2.379,15.551,1.656c0.08-0.723-14.106-2.459-18.121-3.101
	c-4.014-0.642-16.058-1.686-18.868-2.007c-2.81-0.321-10.116-1.525-10.116-1.525s-0.883-1.686-2.088-1.606
	c-1.204,0.08-1.606,1.445-2.971,1.204c-1.365-0.241-12.525-1.445-14.613-1.445s-9.795-0.883-14.211-1.044
	c-4.416-0.161-17.824-0.883-21.839-1.285C168.159,154.38,155.197,153.83,156.035,154.219z"/>
<path fill="#35393F" stroke="#000000" stroke-miterlimit="10" d="M214.325,153.657c0,0,1.686-0.426,2.007,0.429
	c0.321,0.856,0.241,1.899,0.401,1.899c0.161,0,3.626,1.055,3.981,2.294s0.435,2.794-0.368,3.502
	c-0.803,0.708-9.715-1.299-9.715-1.299s-0.233-3.668,0.401-4.255s1.525,0,2.489-0.883
	C214.486,154.46,213.853,153.738,214.325,153.657z"/>
<linearGradient id="SVGID_2_" gradientUnits="userSpaceOnUse" x1="196.0027" y1="168.11" x2="223.2211" y2="168.11">
	<stop  offset="0" style="stop-color:#50764C"/>
	<stop  offset="1" style="stop-color:#365736"/>
</linearGradient>
<path fill="url(#SVGID_2_)" stroke="#000000" stroke-miterlimit="10" d="M222.515,162.604c-0.837-1.674-5.581-1.814-8.372-2.519
	c-2.791-0.705-5.581,0.147-6.977,0.007c-1.395-0.139-11.163,1.84-11.163,1.84v6.811l27.21,7.675
	C223.212,176.418,223.352,164.278,222.515,162.604z"/>
<path fill="#333334" stroke="#000000" stroke-linecap="round" stroke-linejoin="round" stroke-miterlimit="10" d="M86.796,189.022
	l0.471-1.272l5.463-0.518l-7.206-3.108l0.377,4.239c0,0-2.119-0.047-3.438,0.612c-1.319,0.659-1.601,2.543-1.319,4.192
	s2.496,2.59,4.38,2.826c1.884,0.235,2.826-3.014,2.92-4.427C88.538,190.152,86.796,189.022,86.796,189.022z"/>
<path fill="#333334" stroke="#000000" stroke-linecap="round" stroke-linejoin="round" stroke-miterlimit="10" d="M166.156,202.341
	c-1.227-0.697-1.886-1.121-1.886-1.121l0.094-4.945l-1.764-0.301l-0.248,5.334c0,0-2.977,1.116-3.349,2.315
	s-0.372,3.473,0.289,4.217c0.662,0.744,1.571,1.571,3.018,1.571c1.447,0,3.639-0.827,4.424-2.233
	C167.52,205.772,166.944,202.789,166.156,202.341z"/>
<polygon fill="#65563B" stroke="#000000" stroke-miterlimit="10" points="157.343,158.437 155.996,158.437 158.44,164.736 
	161.962,163.98 "/>
<linearGradient id="SVGID_3_" gradientUnits="userSpaceOnUse" x1="141.0569" y1="194.737" x2="144.9125" y2="160.8082">
	<stop  offset="0.2151" style="stop-color:#1A371C"/>
	<stop  offset="0.2702" style="stop-color:#2B4A2C"/>
	<stop  offset="0.3281" style="stop-color:#385A38"/>
	<stop  offset="0.3871" style="stop-color:#436641"/>
	<stop  offset="0.4466" style="stop-color:#4A6F47"/>
	<stop  offset="0.5071" style="stop-color:#4E744B"/>
	<stop  offset="0.5699" style="stop-color:#50764C"/>
</linearGradient>
<path fill="url(#SVGID_3_)" stroke="#000000" stroke-miterlimit="10" d="M57.126,158.437c0.474-1.137,3.695-5.85,9.699-5.85
	s24.323-1.847,32.328,0c8.005,1.847,24.785,6.412,30.943,6.824c6.158,0.412,13.393,0.936,24.939,2.521
	c11.546,1.585,28.942,4.049,33.714,4.664c4.772,0.616,25.863,3.541,30.481,6.158c4.618,2.617,6.928,4.772,7.235,7.851
	s3.079,13.855,2.463,15.548c-0.616,1.693,1.232,3.695-7.235,4.31c-8.467,0.616-20.936,0-28.48-0.77
	c-7.543-0.77-38.178-3.541-46.953-4.464c-8.775-0.924-26.384-3.233-35.514-4.31c-9.13-1.078-19.752-2.925-24.525-5.542
	c-4.772-2.617-11.102-8.467-14.326-10.776C68.671,172.293,56.641,159.598,57.126,158.437z"/>
<path fill="#0A0D13" stroke="#000000" stroke-miterlimit="10" d="M61.142,156.201c0.891,0.287,4.957,1.406,7.695,4.291
	c2.738,2.886,6.215,6.429,6.215,6.429l-5.883,5.313c0,0-7.952-8.175-9.097-9.547c-1.145-1.372-4.206-4.096-2.715-4.699
	C58.848,157.385,60.295,155.928,61.142,156.201z"/>
<path fill="#5B461D" stroke="#000000" stroke-linecap="round" stroke-linejoin="round" stroke-miterlimit="10" d="M97.17,178.466
	l-2.49-0.495c0,0,1.073,1.617,0.921,2.524c-0.152,0.907-0.453,1.667-0.453,1.667l0.468,0.506c0,0,0.39-0.506,0.897-0.608
	c0.506-0.101,2.025-0.354,2.076-1.013C98.638,180.39,98.132,178.769,97.17,178.466z"/>
<ellipse fill="#656668" stroke="#000000" stroke-linecap="round" stroke-linejoin="round" stroke-miterlimit="10" cx="94.942" cy="185.554" rx="3.899" ry="3.848"/>
<ellipse fill="#B3B5B8" stroke="#000000" stroke-linecap="round" stroke-linejoin="round" stroke-miterlimit="10" cx="95.091" cy="185.672" rx="1.544" ry="1.604"/>
<path fill="#5B461D" stroke="#000000" stroke-linecap="round" stroke-linejoin="round" stroke-miterlimit="10" d="M173.514,191.079
	c0,0-1.019,4.537-0.959,5.436c0.06,0.899,1.859,0.54,2.398,0.6c0.54,0.06,0-1.079,0-2.338s0.24-3.564,0.24-3.564L173.514,191.079z"
	/>
<circle fill="#5A5B5D" stroke="#000000" stroke-linecap="round" stroke-linejoin="round" stroke-miterlimit="10" cx="173.107" cy="199.781" r="3.807"/>
<ellipse fill="#656668" stroke="#000000" stroke-linecap="round" stroke-linejoin="round" stroke-miterlimit="10" cx="174.593" cy="199.462" rx="3.883" ry="3.787"/>
<ellipse fill="#B3B5B8" stroke="#000000" stroke-linecap="round" stroke-linejoin="round" stroke-miterlimit="10" cx="174.903" cy="199.462" rx="1.031" ry="1.095"/>
<linearGradient id="SVGID_4_" gradientUnits="userSpaceOnUse" x1="84.3732" y1="180.4949" x2="198.1944" y2="180.4949">
	<stop  offset="0" style="stop-color:#50764C"/>
	<stop  offset="1" style="stop-color:#365736"/>
</linearGradient>
<path fill="url(#SVGID_4_)" stroke="#000000" stroke-miterlimit="10" d="M84.373,168.11c2.002-0.436,22.323,2.489,32.021,3.875
	s29.403,4.618,35.869,5.388c6.466,0.77,26.325,3.079,31.713,3.695s13.239,0.924,14.009,3.079c0.77,2.155-0.462,8.929-5.696,8.775
	c-5.234-0.154-84.208-10.622-86.517-10.622c-2.309,0-12.623-4.989-14.163-5.881"/>
<circle fill="#282829" stroke="#000000" stroke-linecap="round" stroke-linejoin="round" stroke-miterlimit="10" cx="111.56" cy="166.888" r="3.084"/>
<circle fill="#282829" stroke="#000000" stroke-linecap="round" stroke-linejoin="round" stroke-miterlimit="10" cx="134.894" cy="170.006" r="3.084"/>
<circle fill="#282829" stroke="#000000" stroke-linecap="round" stroke-linejoin="round" stroke-miterlimit="10" cx="158.227" cy="173.123" r="3.084"/>
<circle fill="#282829" stroke="#000000" stroke-linecap="round" stroke-linejoin="round" stroke-miterlimit="10" cx="181.561" cy="176.241" r="3.084"/>
<path fill="#282829" stroke="#000000" stroke-linecap="round" stroke-linejoin="round" stroke-miterlimit="10" d="M199.659,184.295
	c0,0,0.579-8.763,0.579-9.672c0-0.909,0.413-1.941,1.323-1.467c0.909,0.475,7.109,0.971,7.109,0.971s2.355,0.861,1.921,2.29
	c-0.433,1.43-0.979,9.531-0.979,9.531L199.659,184.295z"/>
<path fill="none" stroke="#000000" stroke-linecap="round" stroke-linejoin="round" stroke-miterlimit="10" d="M208.446,193.162
	c-0.969-0.126-7.214-0.877-8.394-1.013c-1.18-0.136-1.27-1.528-1.225-2.087c0.045-0.56,0.832-5.766,0.832-5.766l9.953,1.653
	c0,0-0.077,5.534-0.183,6.245C209.323,192.905,209.119,193.249,208.446,193.162z"/>
<path fill="#95B4C4" stroke="#000000" stroke-linecap="round" stroke-linejoin="round" stroke-miterlimit="10" d="M227.106,184.295
	c0,0,7.871,3.749,7.685,6.359c-0.186,2.61-4.537,7.284-6.898,7.713c0,0,0.994-1.685,0.559-4.605
	C228.017,190.841,227.106,184.295,227.106,184.295z"/>
<polygon fill="#95B4C4" stroke="#000000" stroke-linecap="round" stroke-linejoin="round" stroke-miterlimit="10" points="
	225.904,185.248 220.972,184.295 222.362,190.406 227.106,191.079 "/>
<polyline fill="#95B4C4" stroke="#000000" stroke-linecap="round" stroke-linejoin="round" stroke-miterlimit="10" points="
	220.373,177.231 219.379,179.326 220.373,182.638 225.158,183.756 223.48,177.915 220.622,177.231 "/>
</svg>
