<?xml version="1.0" encoding="utf-8"?>
<!-- Generator: Adobe Illustrator 16.0.0, SVG Export Plug-In . SVG Version: 6.00 Build 0)  -->
<!DOCTYPE svg PUBLIC "-//W3C//DTD SVG 1.1//EN" "http://www.w3.org/Graphics/SVG/1.1/DTD/svg11.dtd">
<svg version="1.1" id="Layer_1" xmlns="http://www.w3.org/2000/svg" xmlns:xlink="http://www.w3.org/1999/xlink" x="0px" y="0px"
	 width="557px" height="390px" viewBox="0 0 557 390" enable-background="new 0 0 557 390" xml:space="preserve">
<g>
	<ellipse fill="#77AFAE" cx="173.498" cy="351.668" rx="60.64" ry="10.07"/>
	<g>
		<path fill="#EAF6F8" d="M136.25,27.033l139.91,36.928l-71.348,226.716l-0.602-0.159c-5.533,4.551-31.477,2.33-61.474-5.588
			c-29.998-7.917-53.659-18.788-56.225-25.477l-0.602-0.159L136.25,27.033z"/>
		
			<ellipse transform="matrix(-0.9669 -0.2552 0.2552 -0.9669 394.2354 141.4658)" fill="#EAF6F8" cx="206.295" cy="45.157" rx="72.35" ry="14.079"/>
		
			<ellipse transform="matrix(-0.9959 -0.0906 0.0906 -0.9959 371.037 228.7085)" fill="#FFCD05" cx="190.709" cy="105.934" rx="59.103" ry="11.501"/>
		<path fill="#D2EDF3" d="M139.745,23.988c-0.164,0.258-0.289,0.528-0.365,0.814c-1.984,7.518,27.727,21.879,66.362,32.076
			c31.621,8.346,59.414,11.314,69.553,7.996c-4.139,6.524-36.018,4.144-73.183-5.666c-38.635-10.197-68.346-24.558-66.362-32.076
			C136.111,25.769,137.496,24.725,139.745,23.988z"/>
		<path fill="#D2EDF3" d="M272.173,66.792c0.164-0.259,0.29-0.528,0.365-0.814c1.984-7.519-27.727-21.879-66.362-32.076
			c-31.621-8.346-59.414-11.314-69.553-7.997c4.139-6.524,36.018-4.143,73.182,5.666c38.635,10.197,68.347,24.559,66.362,32.076
			C275.808,65.012,274.423,66.056,272.173,66.792z"/>
		<path fill="#FFCD05" d="M131.849,100.58l118.198,10.409l-52.995,165.166l-0.492-0.13c-4.324,2.977-25.367,0.591-49.873-5.877
			c-24.505-6.468-43.984-14.777-46.276-19.5l-0.492-0.13L131.849,100.58z"/>
		<path opacity="0.48" fill="#FFFFFF" d="M239.332,81.706c0.821,1.042-59.451,195.001-59.451,195.001l-21.637-3.748l52.473-198.807
			c0,0,1.105,2.379,13.836,5.739C237.282,83.251,239.332,81.706,239.332,81.706z"/>
		<circle opacity="0.47" fill="#FFFFFF" cx="148.499" cy="234.525" r="4.042"/>
		<circle opacity="0.47" fill="#FFFFFF" cx="142.593" cy="169.911" r="2.22"/>
		<circle opacity="0.47" fill="#FFFFFF" cx="149.756" cy="201.215" r="3.244"/>
		<circle opacity="0.47" fill="#FFFFFF" cx="173.258" cy="171.786" r="3.886"/>
		<circle opacity="0.47" fill="#FFFFFF" cx="160.268" cy="150.467" r="2.786"/>
		<circle opacity="0.47" fill="#FFFFFF" cx="193.271" cy="200.061" r="2.755"/>
		<circle opacity="0.47" fill="#FFFFFF" cx="202.92" cy="166.63" r="1.957"/>
		<circle opacity="0.47" fill="#FFFFFF" cx="203.206" cy="134.927" r="2.705"/>
		<circle opacity="0.47" fill="#FFFFFF" cx="175.399" cy="232.835" r="1.901"/>
		<circle opacity="0.47" fill="#FFFFFF" cx="167.732" cy="251.885" r="2.552"/>
		<circle opacity="0.47" fill="#FFFFFF" cx="120.563" cy="229.242" r="2.021"/>
		<circle opacity="0.47" fill="#FFFFFF" cx="205.443" cy="226.745" r="2.192"/>
	</g>
	<path opacity="0.48" fill="#FFFFFF" d="M145.702,94.633c-0.4,0.476-0.255,1.191-0.682,1.503
		c-7.79,5.683,9.576,14.397,57.818,16.809c18.488,0.923,35.038,1.523,46.064-0.076c-4.404,5.236-29.419,7.306-59.22,4.596
		c-32.507-2.957-58.394-10.482-57.818-16.808C132.114,97.918,137.284,95.854,145.702,94.633z"/>
	<path fill="#D2EDF3" d="M93.227,257.865l0.606,0.143c2.749,6.615,26.701,16.83,56.905,23.918
		c23.303,5.469,44.098,7.613,54.867,6.148l-0.861,2.738l-0.603-0.159c-5.532,4.551-31.476,2.329-61.474-5.588
		c-29.997-7.917-53.658-18.789-56.224-25.478l-0.603-0.159l50.342-232.26l0.407,0.107L93.227,257.865z"/>
	<g>
		<path fill="#F8991D" d="M188.668,153.852c3.063-13.241,14.081-22,24.607-19.564c10.527,2.436,17.131,14.798,14.068,28.038
			s-14.633,22.345-25.16,19.909S185.605,167.092,188.668,153.852z"/>
		
			<ellipse transform="matrix(-0.9743 -0.2254 0.2254 -0.9743 375.6935 355.7489)" fill="#FFFFFF" cx="208.153" cy="156.43" rx="16.344" ry="20.555"/>
		<path fill="#DDD8A9" d="M191.384,167.435c-0.063-2.101,0.144-4.282,0.653-6.481c2.559-11.06,11.762-18.377,20.556-16.343
			c5.763,1.333,9.919,6.352,11.38,12.765c-0.253-8.462-4.897-15.6-11.943-17.229c-8.793-2.034-17.997,5.282-20.556,16.343
			C190.592,160.301,190.615,164.061,191.384,167.435z"/>
		<circle fill="#9FC9EB" cx="208.382" cy="155.441" r="11.364"/>
		<circle cx="207.396" cy="159.705" r="6.283"/>
		<circle opacity="0.63" fill="#FFFFFF" cx="212.807" cy="159.479" r="2.673"/>
		<circle opacity="0.63" fill="#FFFFFF" cx="211.906" cy="156.456" r="1.559"/>
		<path fill="#F8991D" d="M206.656,162.907c-6.674-1.544-12.4-3.798-15.846-6.037c-2.341,10.916,2.895,21.346,11.826,23.412
			c8.932,2.065,18.216-5.005,20.907-15.84C219.464,164.94,213.33,164.451,206.656,162.907z"/>
	</g>
	<g>
		<path fill="#F8991D" d="M142.225,141.267c3.063-13.24,14.08-21.999,24.607-19.564c10.527,2.436,17.131,14.798,14.068,28.038
			c-3.063,13.241-14.633,22.346-25.16,19.91S139.162,154.508,142.225,141.267z"/>
		
			<ellipse transform="matrix(-0.9743 -0.2254 0.2254 -0.9743 286.8434 320.4324)" fill="#FFFFFF" cx="161.71" cy="143.845" rx="16.344" ry="20.556"/>
		<path fill="#DDD8A9" d="M144.94,154.85c-0.063-2.1,0.144-4.281,0.652-6.48c2.559-11.061,11.762-18.377,20.556-16.343
			c5.763,1.333,9.919,6.351,11.38,12.764c-0.253-8.461-4.897-15.6-11.943-17.229c-8.793-2.034-17.997,5.283-20.556,16.344
			C144.148,147.717,144.171,151.477,144.94,154.85z"/>
		<circle fill="#9FC9EB" cx="161.938" cy="142.857" r="11.364"/>
		<circle cx="160.952" cy="147.121" r="6.283"/>
		<circle opacity="0.63" fill="#FFFFFF" cx="166.364" cy="146.896" r="2.673"/>
		<circle opacity="0.63" fill="#FFFFFF" cx="165.463" cy="143.871" r="1.559"/>
		<path fill="#F8991D" d="M160.213,150.323c-6.673-1.544-12.4-3.799-15.846-6.037c-2.341,10.915,2.895,21.345,11.827,23.411
			s18.216-5.004,20.907-15.839C173.021,152.355,166.886,151.867,160.213,150.323z"/>
	</g>
	<path fill="#CB6828" d="M133.068,171.574c-5.257,2.453-8.604,9.439-6.511,18.68c1.932,9.035,9.303,20.323,21.766,26.655
		c12.283,6.676,25.761,6.347,34.299,2.815c8.797-3.516,12.655-10.232,11.694-15.955c-0.95-5.946-25.296-12.767-30.849-15.669
		C157.927,185.172,138.505,168.983,133.068,171.574z"/>
	<g>
		<g>
			<path fill="#653614" d="M166.221,290.688c0.381,4.474,2.224,8.457,3.791,12.63c2.155,5.74,1.197,9.602-0.718,15.14
				c-1.617,4.676-3.748,9.174-5.425,13.834c-1.639,4.549-3.953,9.838-3.796,14.719c0.035,1.099,1.538,1.579,2.108,0.571
				c2.433-4.301,3.191-9.743,4.848-14.419c2.019-5.696,4.681-10.815,7.639-16.045c2.132-3.769,2.496-7.631,1.56-11.794
				c-1.144-5.086-3.577-11.344-6.694-15.533C168.597,288.531,166.054,288.731,166.221,290.688L166.221,290.688z"/>
		</g>
	</g>
	<g>
		<path fill="#653614" d="M160.978,346.327c5.687-2.8,12.664-2.821,18.367-0.057c1.271,0.616,2.646,2.143,1.725,3.215
			c-0.36,0.419-0.947,0.545-1.492,0.636c-5.685,0.949-11.567,0.698-17.151-0.73"/>
		<g>
			<path fill="#653614" d="M160.978,348.044c2.841,0.263,5.695-0.633,8.544-0.763c0.861-0.039,8.62,1.415,8.625,1.398
				c0.464-0.604,0.929-1.208,1.394-1.813c-2.09,1.477-6.102,1.107-8.576,1.138c-2.877,0.036-5.674-0.69-8.538-0.816
				c-2.097-0.092-3.138,3.195-1.111,4.104c4.421,1.981,26.024,5.673,22.708-4.41c-1.45-4.407-8.114-5.31-11.969-5.69
				c-4.402-0.435-9.843,0.53-12.559,4.27C158.655,346.616,159.821,347.938,160.978,348.044L160.978,348.044z"/>
		</g>
	</g>
	<g>
		<g>
			<path fill="#653614" d="M117.017,277.344c-1.988,3.41-2.572,7.362-3.637,11.132c-1.142,4.037-1.908,10.817-6.608,12.029
				c-9.129,2.354-18.235,3.525-27.522,4.924c-1.252,0.188-0.897,2.122,0.29,2.143c5.601,0.095,11.2-0.719,16.791-0.989
				c4.509-0.218,10.778-0.194,14.908-2.185c3.802-1.832,4.6-5.294,5.777-9.089c1.622-5.229,3.898-11.539,3.353-17.058
				C120.201,276.558,117.982,275.688,117.017,277.344L117.017,277.344z"/>
		</g>
	</g>
	<g>
		<path fill="#653614" d="M76.87,307.219c-3.823,5.384-5.912,11.98-5.883,18.585c3.082,0.725,5.562-2.477,6.998-5.298
			c2.147-4.219,3.919-9.626,1.051-13.393"/>
		<g>
			<path fill="#653614" d="M75.213,305.562c-5.144,5.115-7,13.23-7.154,20.242c-0.036,1.63,1.36,2.885,2.928,2.929
				c9.33,0.26,15.505-16.591,9.506-23.076c-1.722-1.862-4.092,0.501-3.236,2.497c1.139,2.658,0.981,4.829,0.102,7.548
				c-0.618,1.909-2.888,7.755-5.593,7.279c0.717,0.94,1.434,1.882,2.15,2.823c0.061-6.56,2.445-11.544,4.978-17.402
				C79.896,306.082,77.234,303.552,75.213,305.562L75.213,305.562z"/>
		</g>
	</g>
	<g>
		<path fill="#CB3727" d="M148.528,217.23c-9.317-4.734-15.788-12.238-19.268-19.5c4.066-1.999,8.396-3.392,12.883-3.254
			c6.373,0.196,13,4.347,14.129,10.623c4.323-0.705,8.925,0.514,12.333,3.266c3.408,2.753,5.364,9.32,5.585,13.695
			C166.087,222.775,156.07,221.329,148.528,217.23z"/>
	</g>
	<ellipse fill="#77AFAE" cx="411.091" cy="351.508" rx="60.64" ry="10.071"/>
	<circle fill="#F16667" cx="331.304" cy="174.134" r="2.44"/>
	<circle fill="#9FC9EB" cx="338.114" cy="185.188" r="1.471"/>
	<circle fill="#9FC9EB" cx="338.114" cy="165.646" r="1.471"/>
	<circle fill="#9FC9EB" cx="339.584" cy="171.693" r="1.502"/>
	<g>
		<path fill="#CB9866" d="M512.009,189.688l-82.256-11.234l-82.255-11.235c0,0,6.423,26.295,7.123,63.48
			c0.377,19.979-0.973,39.234-2.037,50.863c-0.621,6.786,3.842,13.001,10.477,14.558c8.992,2.11,24.287,5.075,49.463,8.477
			c21.268,2.873,35.652,4.208,45.168,4.793c9.414,0.578,17.785-5.934,19.555-15.199c2.215-11.593,5.82-28.333,10.876-45.256
			C498.769,213.297,512.009,189.688,512.009,189.688z"/>
		<path fill="#C38A58" d="M393.15,182.808c0,0,1.071,88.216-5.348,118.127c3.729,0.613,7.811,1.251,12.274,1.909
			c0.284-10.083,1.186-42.779,1.247-55.461C401.569,197.184,393.15,182.808,393.15,182.808z"/>
		<path fill="#C38A58" d="M425,188.461c0,0-8.706,85.285-19.389,115.181c1.974,0.278,4.014,0.561,6.124,0.846
			c3.396,0.459,6.616,0.879,9.669,1.262c0.08-11.369,0.367-39.637,1.288-52.238C423.813,238.165,425,188.461,425,188.461z"/>
		<path fill="#C38A58" d="M465.298,194.239c0,0-11.966,11.592-25.191,60.019c-3.177,11.63-10.473,40.887-13.272,52.157
			c4.396,0.525,8.405,0.97,12.061,1.345C441.497,275.892,465.298,194.239,465.298,194.239z"/>
		<path fill="#C38A58" d="M364.872,179.77c0,0,6.258,86.142,1.931,117.258c3.391,0.729,7.434,1.532,12.234,2.398
			c-0.314-9.769-1.4-42.919-2.109-55.691C374.143,193.611,364.872,179.77,364.872,179.77z"/>
		<path fill="#C38A58" d="M464.8,255.736c-4.078,12.024-13.897,43.29-16.901,52.875c4.971,0.426,9.063,0.694,12.406,0.858
			c4.334-31.372,33.262-112.122,33.262-112.122S480.924,208.196,464.8,255.736z"/>
		<g>
			<g>
				
					<ellipse transform="matrix(0.9908 0.1353 -0.1353 0.9908 34.555 -50.2484)" opacity="0.53" fill="#996632" cx="386.883" cy="229.047" rx="20.242" ry="25.459"/>
				
					<ellipse transform="matrix(0.9908 0.1353 -0.1353 0.9908 34.776 -50.5689)" fill="#FFFFFF" cx="389.294" cy="230.474" rx="16.909" ry="21.266"/>
				<path fill="#DDD8A9" d="M404.996,221.462c0.264,2.157,0.257,4.425-0.06,6.738c-1.589,11.638-10.379,20.047-19.632,18.783
					c-6.063-0.828-10.82-5.604-12.933-12.074c1.062,8.694,6.522,15.608,13.935,16.621c9.253,1.264,18.043-7.146,19.632-18.782
					C406.486,228.736,406.107,224.865,404.996,221.462z"/>
				<path fill="#653614" d="M391.638,213.32c7.183,0.98,12.696,6.914,14.634,14.695c-0.414-9.611-6.128-17.523-14.099-18.612
					c-7.972-1.089-15.598,5.001-18.574,14.149C378.482,217.116,384.455,212.339,391.638,213.32z"/>
				<path fill="#653614" d="M373.599,223.553c0,0-1.083-0.269-2.987-1.161s-4.287-2.312-4.287-2.312l6.637-0.148
					c0,0,0.527-0.439,2.776-2.779c3.018-3.141,7.985-6.236,7.985-6.236L373.599,223.553z"/>
				
					<radialGradient id="SVGID_1_" cx="2189.1582" cy="86.6953" r="11.7568" gradientTransform="matrix(0.9908 0.1353 -0.1353 0.9908 -1767.4213 -155.7993)" gradientUnits="userSpaceOnUse">
					<stop  offset="0" style="stop-color:#996632"/>
					<stop  offset="0.4373" style="stop-color:#986532"/>
					<stop  offset="0.6174" style="stop-color:#93602F"/>
					<stop  offset="0.7501" style="stop-color:#8A5829"/>
					<stop  offset="0.8597" style="stop-color:#7E4D22"/>
					<stop  offset="0.9538" style="stop-color:#6E3E19"/>
					<stop  offset="1" style="stop-color:#653614"/>
				</radialGradient>
				<circle fill="url(#SVGID_1_)" cx="389.866" cy="226.291" r="11.757"/>
				<circle cx="390.479" cy="221.804" r="6.5"/>
			</g>
			<g>
				<path fill="#653614" d="M406.163,207.316c-3.097-2.888-6.34-5.62-9.712-8.182c-3.779-2.872-7.932-5.611-12.647-6.143
					s-10.075,1.844-11.46,6.383c1.852-2.211,4.979-3.037,7.847-2.729s5.532,1.598,8.042,3.019c3.86,2.185,7.516,4.73,10.904,7.593
					c1.053,0.89,2.154,1.847,3.514,2.081c1.358,0.234,3.006-0.62,3.053-1.998"/>
			</g>
		</g>
		<g>
			<g>
				
					<ellipse transform="matrix(-0.9908 -0.1353 0.1353 -0.9908 861.1149 533.5135)" opacity="0.53" fill="#996632" cx="448.69" cy="237.489" rx="20.242" ry="25.458"/>
				
					<ellipse transform="matrix(-0.9908 -0.1353 0.1353 -0.9908 855.6242 534.6034)" fill="#FFFFFF" cx="445.984" cy="238.217" rx="16.909" ry="21.267"/>
				<path fill="#DDD8A9" d="M433.274,225.324c-0.832,2.008-1.434,4.193-1.75,6.508c-1.589,11.638,4.623,22.096,13.876,23.359
					c6.063,0.828,11.927-2.498,15.697-8.163c-3.354,8.091-10.469,13.288-17.882,12.275c-9.253-1.264-15.466-11.723-13.876-23.359
					C429.889,231.933,431.291,228.305,433.274,225.324z"/>
				<path fill="#653614" d="M448.327,221.063c-7.183-0.98-14.085,3.257-18.039,10.233c2.977-9.148,10.603-15.238,18.574-14.149
					c7.971,1.088,13.685,9.001,14.099,18.612C459.982,228.248,455.51,222.044,448.327,221.063z"/>
				<path fill="#653614" d="M462.961,235.759c0,0,1.116,0.031,3.189-0.317c2.074-0.35,4.75-1.078,4.75-1.078l-6.354-1.922
					c0,0-0.391-0.564-1.93-3.423c-2.064-3.834-6.02-8.148-6.02-8.148L462.961,235.759z"/>
				
					<radialGradient id="SVGID_2_" cx="-1684.1582" cy="86.1973" r="11.7566" gradientTransform="matrix(-0.9908 -0.1353 -0.1353 0.9908 -1210.446 -79.2361)" gradientUnits="userSpaceOnUse">
					<stop  offset="0" style="stop-color:#996632"/>
					<stop  offset="0.4373" style="stop-color:#986532"/>
					<stop  offset="0.6174" style="stop-color:#93602F"/>
					<stop  offset="0.7501" style="stop-color:#8A5829"/>
					<stop  offset="0.8597" style="stop-color:#7E4D22"/>
					<stop  offset="0.9538" style="stop-color:#6E3E19"/>
					<stop  offset="1" style="stop-color:#653614"/>
				</radialGradient>
				<circle fill="url(#SVGID_2_)" cx="446.556" cy="234.034" r="11.757"/>
				<circle cx="447.168" cy="229.547" r="6.5"/>
			</g>
			<g>
				<path fill="#653614" d="M435.943,211.384c3.759-1.951,7.615-3.714,11.551-5.277c4.41-1.753,9.146-3.278,13.831-2.525
					s9.212,4.478,9.328,9.223c-1.19-2.627-3.981-4.262-6.827-4.733s-5.758,0.056-8.557,0.751c-4.305,1.069-8.51,2.542-12.541,4.391
					c-1.253,0.574-2.571,1.201-3.943,1.063c-1.371-0.139-2.729-1.403-2.404-2.743"/>
			</g>
		</g>
		<circle opacity="0.63" fill="#FFFFFF" cx="384.924" cy="222.549" r="2.765"/>
		<circle opacity="0.63" fill="#FFFFFF" cx="386.138" cy="225.579" r="1.613"/>
		<circle opacity="0.63" fill="#FFFFFF" cx="440.875" cy="230.576" r="2.765"/>
		<circle opacity="0.63" fill="#FFFFFF" cx="442.089" cy="233.606" r="1.613"/>
		<g opacity="0.53">
			<path fill="#996632" d="M434.52,270.595c-1.547,0.353-3.146,0.71-4.861,1.009c-1.408-2.776-4.571-6.841-4.571-6.841h-0.001
				c-1.314-2.241-3.506-3.849-6.152-4.21c-1.58-0.216-3.123,0.042-4.509,0.667c-1.167-0.974-2.585-1.636-4.165-1.852
				c-2.31-0.315-4.541,0.378-6.313,1.76c0,0-0.002,0-0.004,0.001c-1.574,0.433-5.359,4.26-7.281,6.285
				c-1.497-0.518-3.051-1.082-4.67-1.701c0,0,0.61,0.814,2.344,1.953c0.311,3.565,2.939,15.432,16.623,17.301
				c14.949,2.041,20.232-10.484,20.863-12.817C433.689,271.341,434.52,270.595,434.52,270.595z"/>
		</g>
		<g>
			<path fill="#F69799" d="M430.183,272.407c-0.408-2.146-5.29-7.929-5.29-7.929l-0.002-0.001c-1.335-2.085-3.541-3.595-6.188-3.956
				c-1.58-0.216-3.117,0.006-4.494,0.57c-1.176-0.912-2.598-1.539-4.178-1.756c-2.311-0.315-4.531,0.304-6.287,1.563
				c-0.001,0-0.002,0.001-0.003,0.001c-2.144,0.525-8.354,6.88-8.354,6.88l4.744,1.034c0.362,3.967,3.414,7.306,7.53,7.868
				c1.581,0.216,3.118-0.007,4.495-0.571c1.176,0.913,2.598,1.54,4.178,1.756c3.69,0.504,7.154-1.371,8.852-4.447
				C427.923,273.535,430.367,273.376,430.183,272.407z"/>
			<path opacity="0.31" fill="#FBCCCC" d="M403.521,262.507c0,0,0.002,0,0.003,0c1.755-1.261,3.977-1.879,6.286-1.563
				c1.581,0.216,3.003,0.843,4.178,1.756c1.377-0.564,2.916-0.787,4.496-0.571c2.646,0.361,4.852,1.871,6.188,3.957h0.001
				c0,0,3.781,4.479,4.966,7.017c0.396-0.161,0.603-0.387,0.544-0.694c-0.408-2.146-5.29-7.929-5.29-7.929l-0.002-0.001
				c-1.335-2.085-3.541-3.595-6.188-3.956c-1.58-0.216-3.117,0.006-4.494,0.57c-1.176-0.912-2.598-1.539-4.178-1.756
				c-2.311-0.315-4.531,0.304-6.287,1.563c-0.001,0-0.002,0.001-0.003,0.001c-2.144,0.525-8.354,6.88-8.354,6.88l1.148,0.251
				C398.49,266.134,402.013,262.877,403.521,262.507z"/>
			<path fill="#F69799" d="M394.198,265.919c-0.245,0.378,0.866,14.925,16.792,17.1c16.217,2.215,20.898-11.541,20.764-11.97
				C419.006,272.304,406.143,270.547,394.198,265.919z"/>
			<path opacity="0.46" fill="#F16667" d="M431.537,271.109c-0.826,0.081-1.654,0.148-2.481,0.205
				c-2.447,4.054-8.142,10.016-19.239,8.5c-9.665-1.32-13.873-7.197-15.634-11.697c0.822,4.206,4.28,13.28,16.592,14.962
				C426.99,285.294,431.672,271.538,431.537,271.109z"/>
			<g>
				<path fill="#F16667" d="M434.371,269.969c-8.656,1.747-18.962,3.602-42.518-4.951c0,0,4.25,5.23,21.934,7.591
					C428.793,274.611,434.371,269.969,434.371,269.969z"/>
			</g>
		</g>
		<circle opacity="0.57" fill="#FFFFFF" cx="404.487" cy="263.915" r="2.73"/>
		<circle opacity="0.57" fill="#FFFFFF" cx="406.59" cy="262.317" r="1.364"/>
		<g opacity="0.29">
			<path fill="#996632" d="M412.617,304.608c21.268,2.873,35.65,4.208,45.166,4.793c9.416,0.579,17.787-5.935,19.558-15.201
				c2.214-11.593,5.82-28.332,10.876-45.254c10.646-35.636,23.887-59.246,23.887-59.246l-20.741-2.833
				c-3.361,23.1-11.312,68.891-29.962,88.495c-24.52,25.773-73.904,13.216-89.298,10.327c-6.554-1.229-13.858-2.835-19.21-6.527
				c-0.072,0.831-0.144,1.631-0.213,2.397c-0.623,6.798,3.858,13.021,10.504,14.579C372.181,298.249,387.47,301.211,412.617,304.608
				z"/>
		</g>
		<g opacity="0.18">
			<path fill="#2F1110" d="M352.938,204.411c6.18,4.324,12.642,4.573,19.715,2.941c6.826-1.575,14.066-5.937,14.885-12.894
				c0.016,2.256,2.299,3.726,4.301,4.761c5.331,2.753,10.836,5.539,16.809,6.102c5.974,0.562,12.602-1.61,15.629-6.79
				c-0.542,0.806,0.132,1.859,0.806,2.56c10.026,10.414,27.609,12.453,39.753,4.609c5.238,12,17.778,20.442,30.867,20.783
				c0.988-2.216,3.381-9.007,4.256-10.741c0.604-1.198,1.659-1.924,1.542-3.261c-0.112-1.294-0.753-2.475-1.379-3.613
				c-5.668-10.294-11.538-20.839-20.552-28.379c-12.146-10.161-28.445-13.602-44.131-15.783c-7.375-1.025-14.777-1.848-22.197-2.467
				c-11.794-0.982-23.935-1.411-35.191,2.243c-9.373,3.042-17.613,8.748-25.701,14.377c-0.549,0.382-1.117,0.785-1.435,1.375
				c-0.405,0.751-0.327,1.66-0.239,2.51C351.429,189.966,352.184,197.188,352.938,204.411"/>
		</g>
		<g>
			<path fill="#F9F06C" d="M346.188,139.062c-30.941,17.326-15.48,47.21-8.18,52.559c11.217,8.22,30.666,7.237,36.885,4.472
				c6.217-2.766,11.27-8.703,11.707-15.494c3.6,7.176,6.955,11.114,16.597,14.037c4.232,1.283,11.453,0.379,15.683-0.915
				c4.229-1.295,7.987-4.725,8.739-9.083c-0.913,4.376,1.503,8.487,4.497,11.807c3.992,4.427,13.352,6.631,20.136,6.287
				s13.583-4.538,15.708-10.99c-1.617,4.246,1.316,10.2,4.575,13.367c6.987,6.792,15.543,11.937,25.238,12.911
				c7.914,0.796,15.975-2.591,21.53-8.284s8.698-13.495,9.457-21.414c0.537-5.607-0.133-11.519-3.088-16.315
				s-8.517-8.221-14.109-7.545c4.55-5.755,6.365-13.58,4.813-20.751c-1.551-7.17-6.438-13.546-12.961-16.905
				c-7.215-3.717-15.753-3.702-23.827-2.881c-3.435-12.476-16.398-19.394-28.113-24.89c-10.795-5.064-22.279-10.255-34.137-8.996
				c-4.154,0.441-8.574,1.943-10.777,5.493s-0.657,9.353,3.467,10.021c-1.877-1.135-1.781-4.153-0.236-5.71s3.951-1.898,6.135-1.687
				c3.655,0.354,7.266,2.15,9.3,5.209c2.033,3.059,2.2,7.408-0.032,10.325c-2.231,2.916-6.908,3.792-9.774,1.496
				c-1.017-0.813-1.747-1.919-2.595-2.907c-3.042-3.552-7.549-5.549-12.098-6.638c-6.208-1.487-13.156-1.361-18.496,2.138
				c-5.339,3.499-8.261,11.039-5.168,16.623c-5.737-6.614-16.426-7.623-24.018-3.26S342.07,132.479,346.188,139.062"/>
		</g>
		<g>
			<path fill="#FFCD05" d="M364.876,150.945c3.546-1.005,6.929-2.515,10.241-4.13c7.902-3.853,15.622-8.442,21.515-14.966
				c5.892-6.523,9.804-15.24,8.991-23.994c-1.953,8.243-8.221,14.795-15.031,19.831c-11.592,8.57-29.802,12.689-44.638,10.839
				c0.124,0.228,0.256,0.455,0.397,0.683c-4.517,2.529-8.043,5.326-10.752,8.275C344.396,152.408,355.172,153.695,364.876,150.945z"
				/>
		</g>
		<g>
			<path fill="#FFCD05" d="M421.547,116.717c-2.209,7.672-4.443,15.409-8.201,22.453c-2.986,5.599-6.883,10.658-10.951,15.526
				c-12.698,15.192-28.056,29.27-47.092,34.719c-4.934,1.412-13.189,1.9-19.133,0.481c0.703,0.785,1.382,1.416,2.002,1.87
				c11.217,8.22,30.666,7.237,36.885,4.472c6.217-2.766,11.27-8.703,11.707-15.494c1.695,3.379,3.336,6.039,5.604,8.215
				c2.922-3.25,5.53-6.771,7.647-9.894C410.98,162.895,419.063,138.803,421.547,116.717z"/>
		</g>
		<g>
			<path fill="#FFCD05" d="M440.212,138.508c-2.085-11.237-3.786-19.221-13.239-29.727c0.001,0.158-0.004,0.315-0.011,0.473
				c2.701,4.309,4.854,8.454,5.55,13.379c2.029,14.371,1.236,29.135-2.318,43.206c-0.918,3.634-2.021,7.233-3.574,10.645
				c-3.484,7.657-9.25,14.26-16.369,18.743c0.092,0.039,0.184,0.074,0.275,0.11c3.084-0.189,6.236-0.773,8.518-1.472
				c4.229-1.294,7.987-4.724,8.739-9.082c-0.447,2.145-0.094,4.226,0.733,6.181c4.18-3.72,7.545-8.828,9.577-13.657
				C442.639,166.501,442.35,150.033,440.212,138.508z"/>
		</g>
		<g>
			<path fill="#FFCD05" d="M476.8,173.535c0.985-7.039,0.548-17.627-0.86-24.594c-3.435-16.98-7.525-30.264-18.619-43.57
				c-1.565-1.877-4.861-5.14-7.89-7.223c-1.126-0.522-2.259-1.041-3.399-1.549c6.868,6.611,12.727,17.635,15.619,26.641
				c2.937,9.147,4.088,18.779,4.547,28.375c0.572,11.994,0.067,24.163-3.156,35.73c-0.922,3.308-2.085,6.599-4.029,9.429
				c-1.75,2.55-4.204,4.709-7.109,5.719c2.33,0.182,4.671-0.23,6.867-1.075c4.297-1.798,7.908-5.141,9.354-9.531
				c-0.337,0.886-0.475,1.847-0.454,2.84c1.946-2.372,3.528-5.064,4.87-7.833C474.587,182.671,476.149,178.183,476.8,173.535z"/>
		</g>
		<g>
			<path fill="#FFCD05" d="M512.563,201.921c0.467-9.167-0.776-18.345-2.633-27.333c-2.039-9.873-4.851-19.67-9.549-28.589
				c-4.652-8.833-11.26-16.805-19.771-22.014c-0.033,0.003-0.066,0.006-0.1,0.009c7.95,8.645,25.723,36.531,20.246,73.635
				c-0.785,5.316-4.779,16.83-9.654,19.095c0.04,0.022,0.08,0.047,0.12,0.07c2.17,0.669,4.409,1.139,6.715,1.371
				c4.471,0.449,8.988-0.437,13.075-2.319C511.773,211.063,512.464,203.86,512.563,201.921z"/>
		</g>
		<g opacity="0.3">
			<path fill="#F26722" d="M338.162,191.725c11.217,8.22,30.666,7.237,36.884,4.472s11.271-8.703,11.707-15.494
				c3.601,7.176,6.956,11.114,16.598,14.037c4.232,1.283,11.453,0.379,15.683-0.916c4.229-1.294,7.987-4.724,8.739-9.082
				c-0.913,4.376,1.503,8.487,4.496,11.807c3.993,4.427,13.353,6.631,20.137,6.287c6.784-0.345,13.583-4.538,15.708-10.99
				c-1.617,4.246,1.316,10.2,4.575,13.367c6.987,6.792,15.543,11.937,25.238,12.911c7.914,0.795,15.496-3.102,21.53-8.284
				c4.775-4.102,7.412-10.871,9.457-21.414c1.073-5.53-0.133-11.519-3.088-16.315s-8.517-8.221-14.11-7.545
				c4.55-5.755,6.366-13.58,4.814-20.751c-1.054-4.874-3.651-9.379-7.254-12.82c-0.148,8.527-4.653,17.074-12.101,21.354
				c3.038,2.711,3.854,7.177,3.555,11.237c-0.597,8.088-5.087,15.801-11.826,20.314c-6.738,4.513-15.579,5.729-23.286,3.202
				c-5.345-1.752-10.694-6.694-9.302-12.144c-2.135,7.428-11.477,11.182-18.819,8.768c-7.343-2.413-12.388-9.568-14.115-17.102
				c-3.442,7.742-10.301,13.035-18.696,11.889c-3.943-0.538-12.609-4.25-12.357-12.72c-7.191,11.991-18.174,15.851-32.107,17.638
				c-9.894,1.27-23.305-1.307-31.2-7.364C331.076,183.605,335.262,189.601,338.162,191.725z"/>
		</g>
		<g opacity="0.6">
			<path fill="#FFFFFF" d="M358.217,147.403c-0.031-5.5,3.271-10.887,8.186-13.355c4.916-2.468,11.209-1.898,15.602,1.411
				c-0.984-1.493-2.11-12.748,13.257-18.698c5.144-1.992,14.085-2.392,17.606,1.854c-1.379-4.497-4.268-8.457-7.993-11.32
				c-1.263-0.477-2.563-0.863-3.866-1.176c-6.207-1.487-13.156-1.36-18.495,2.139c-5.339,3.498-8.262,11.038-5.169,16.622
				c-5.736-6.614-16.425-7.623-24.017-3.26s-10.976,11.337-6.857,17.92c-5.306,2.971-9.246,6.311-12.099,9.833
				C342.246,145.382,350.786,143.697,358.217,147.403z"/>
		</g>
		<circle fill="#F16667" cx="358.936" cy="165.638" r="1.768"/>
		<circle fill="#F16667" cx="381.053" cy="163.526" r="1.28"/>
		<circle fill="#F16667" cx="383.127" cy="153.069" r="0.64"/>
		<circle fill="#F16667" cx="365.188" cy="173.639" r="0.517"/>
		<circle fill="#F16667" cx="399.886" cy="147.562" r="1.903"/>
		<circle fill="#F16667" cx="401.649" cy="135.1" r="1.843"/>
		<circle fill="#F16667" cx="417.35" cy="162.591" r="1.867"/>
		<circle fill="#F16667" cx="425.329" cy="152.948" r="1.893"/>
		<circle fill="#F16667" cx="424.928" cy="138.714" r="0.43"/>
		<circle fill="#F16667" cx="450.427" cy="136.412" r="1.454"/>
		<circle fill="#F16667" cx="450.785" cy="158.305" r="1.863"/>
		<circle fill="#F16667" cx="483.463" cy="175.509" r="1.986"/>
		<circle fill="#F16667" cx="491.036" cy="173.27" r="2.475"/>
		<circle fill="#F16667" cx="482.187" cy="149.231" r="1.259"/>
		<circle fill="#F16667" cx="479.031" cy="129.886" r="0.667"/>
		<circle fill="#F16667" cx="489.878" cy="162.484" r="2.607"/>
		<circle fill="#F16667" cx="515.563" cy="177.66" r="1.445"/>
		<circle fill="#9FC9EB" cx="510.33" cy="155.228" r="0.875"/>
		<circle fill="#9FC9EB" cx="371.462" cy="161.86" r="1.633"/>
		<circle fill="#9FC9EB" cx="393.052" cy="156.532" r="1.448"/>
		<circle fill="#9FC9EB" cx="390.531" cy="145.323" r="0.952"/>
		<circle fill="#9FC9EB" cx="405.91" cy="174.518" r="0.672"/>
		<circle fill="#9FC9EB" cx="446.763" cy="173.985" r="1.823"/>
		<circle fill="#9FC9EB" cx="458.546" cy="144.654" r="1.336"/>
		<circle fill="#9FC9EB" cx="483.221" cy="157.983" r="0.952"/>
		<circle fill="#87C540" cx="497.105" cy="184.511" r="1.769"/>
		<circle fill="#87C540" cx="517.358" cy="189.974" r="2"/>
		<circle fill="#87C540" cx="462.875" cy="165.911" r="1.291"/>
		<circle fill="#87C540" cx="453.739" cy="169.003" r="1.337"/>
		<circle fill="#87C540" cx="432.207" cy="146.472" r="1.897"/>
		<circle fill="#87C540" cx="407.867" cy="148.378" r="1.633"/>
		<circle fill="#87C540" cx="388.29" cy="166.918" r="0.912"/>
		<circle fill="#87C540" cx="366.826" cy="152.14" r="1.285"/>
		<g>
			<path fill="#CC3333" d="M455.482,114.159c-3.719-4.757-11.504-4.406-16.313-0.756c-5.785,4.391-8.125,12.791-5.445,19.54
				s10.146,11.255,17.366,10.481c0.581-0.063,1.173-0.155,1.747-0.041c0.777,0.155,1.427,0.667,2.086,1.107
				c5.615,3.75,17.941,1.097,21.639-5.777C487.838,117.758,460.721,105.834,455.482,114.159"/>
		</g>
		<g opacity="0.41">
			<path fill="#640D0D" d="M476.514,134.791c-3.698,6.874-16.023,9.528-21.639,5.777c-0.66-0.44-1.309-0.952-2.086-1.107
				c-0.574-0.113-1.166-0.021-1.748,0.041c-7.22,0.773-14.686-3.732-17.365-10.481c-0.49-1.234-0.811-2.524-0.975-3.835
				c-0.249,2.568,0.065,5.184,1.021,7.588c2.68,6.749,10.146,11.255,17.366,10.481c0.582-0.063,1.173-0.154,1.747-0.04
				c0.778,0.154,1.427,0.666,2.087,1.106c5.613,3.751,17.939,1.097,21.638-5.776c2.362-4.39,3.038-8.383,2.585-11.877
				C478.892,129.185,478.068,131.902,476.514,134.791z"/>
		</g>
		<g>
			<path fill="#87C540" d="M469.301,71.839c0.695-1.717,3.404-2.254,5.199-2.707c2.534-0.64,5.225,0.47,7.262,2.106
				c2.038,1.637,3.607,3.771,5.427,5.647c1.82,1.875,4.042,3.559,6.636,3.882c0.966,0.121,2.155-0.09,2.522-0.991
				c-2.905,1.984-4.52,5.501-7.507,7.359c-1.653,1.029-3.6,1.466-5.516,1.813c-3.652,0.661-7.736,0.969-10.771-1.17
				c-2.348-1.654-3.604-4.527-3.933-7.382S468.782,74.664,469.301,71.839"/>
		</g>
		<circle opacity="0.36" fill="#FFFFFF" cx="446.475" cy="120.133" r="4.826"/>
		<circle opacity="0.36" fill="#FFFFFF" cx="449.065" cy="124.278" r="2.707"/>
		<g>
			<path fill="#87C540" d="M454.366,115.689c0.574-16.806,6.731-33.374,17.272-46.476c1.271,1.416,2.544,2.833,3.816,4.249
				c-3.793,1.828-6.283,5.538-8.356,9.203c-5.95,10.518-10.011,22.101-11.931,34.031c-0.124-0.729-0.248-1.459-0.373-2.188
				c-0.363,0.161-0.5,0.688-0.26,1.006"/>
		</g>
		<g>
			<path fill="#FFCD05" d="M434.256,134.654c-4.105,9.27,9.77,14.354,17.163,16.407c4.024,1.118,10.645,0.799,14.659-0.354
				c4.016-1.153,7.563-3.141,8.577-7.193c-4.997,3.46-14.851,1.063-20.821-0.073C446.448,142.034,438.287,141.316,434.256,134.654"
				/>
		</g>
		<g>
			<g>
				<path fill="#653614" d="M392.92,300.723c-2.59,3.229-3.893,7.318-5.378,11.157c-1.094,2.827-2.565,7.364-1.871,10.495
					c2.101,9.463,5.426,18.729,9.565,27.495c1.31,2.774,6.026,0.791,4.964-2.093c-2.702-7.332-6.022-14.547-10.014-21.257
					c-3.34-5.614,0.39-8.273,2.378-13.256c1.456-3.648,3.175-7.313,3.458-11.257C396.13,300.501,393.905,299.496,392.92,300.723
					L392.92,300.723z"/>
			</g>
		</g>
		<g>
			<g>
				<path fill="#653614" d="M398.369,347.651c-1.805-2.492-4.688-2.552-7.548-2.248c-2.591,0.276-6.406,1.129-7.214,4.065
					c-0.791,2.876,1.839,4.622,4.354,4.624c1.459,0.001,2.968-0.624,4.349-1.012c2.045-0.573,4.098-1.124,6.132-1.736
					c2.956-0.889,1.728-5.392-1.275-4.623c-1.764,0.451-3.515,0.952-5.27,1.437c-1.221,0.337-3.067,1.275-4.346,1.073
					c0.269,0.57,0.537,1.141,0.806,1.711c0.493-0.208,1-0.375,1.521-0.501c0.835-0.239,1.689-0.315,2.552-0.366
					c1.834-0.107,3.379,0.28,5.134-0.442C398.29,349.333,398.934,348.43,398.369,347.651L398.369,347.651z"/>
			</g>
		</g>
		<g>
			<g>
				<path fill="#653614" d="M425.373,305.463c-2.134,7.365,3.272,18.572,7.778,24.339c2.122,2.716,6.172,2.204,9.001,1.314
					c4.689-1.475,9.529-3.532,13.912-5.777c2.796-1.432,0.346-5.37-2.42-4.141c-5.445,2.422-14.759,10.669-18.697,2.418
					c-1.483-3.106-2.885-6.259-4.042-9.502c-1.014-2.842-1.207-5.852-2.317-8.651C428.006,303.995,425.865,303.763,425.373,305.463
					L425.373,305.463z"/>
			</g>
		</g>
		<g>
			<g>
				<path fill="#653614" d="M454.757,322.591c-3.209,1.339-2.365,5.026-1.031,7.523c0.817,1.529,2.158,2.84,3.434,3.985
					c1.13,1.015,2.827,2.596,4.499,2.409c3.449-0.385,5.056-3.424,4.05-6.658c-0.523-1.683-1.964-2.949-3.206-4.109
					c-1.465-1.37-2.896-2.791-4.427-4.087c-2.295-1.942-5.484,1.12-3.338,3.338c1.22,1.261,2.542,2.428,3.824,3.625
					c0.689,0.646,1.383,1.284,2.044,1.959c0.242,0.263,0.446,0.552,0.613,0.865c0.782-0.11,0.813-0.308,0.09-0.593
					c-1.253-0.859-2.442-1.984-3.307-3.234c-0.917-1.327-0.411-2.884-1.257-4.214C456.36,322.796,455.492,322.284,454.757,322.591
					L454.757,322.591z"/>
			</g>
		</g>
	</g>
	<circle fill="#87C540" cx="345.727" cy="161.105" r="1.357"/>
	<g>
		<g>
			<path fill="#653614" d="M490.126,242.033c7.33,6.168,16.712,9.92,24.335,15.832c3.951,3.063,7.48,6.898,9.373,11.586
				c2.969,7.357-5.914,12.331-11.35,14.468c-4.451,1.75-9.35,2.456-14.075,2.952c-3.98,0.417-8.521,0.004-12.221,1.825
				c-4.06,2-8.944,8.973-4.758,12.981c0.851,0.813,2.615,0.301,2.494-1.033c-0.256-2.817-1.133-4.864,1.979-6.833
				c2.826-1.789,5.983-2.099,9.242-2.342c4.672-0.35,9.113-1.012,13.598-2.41c7.211-2.249,14.996-6.374,17.973-13.678
				c3.03-7.436-4.905-15.511-9.608-20.164c-3.175-3.143-6.818-5.869-10.503-8.378c-4.457-3.035-9.364-6.528-14.547-8.126
				C490.227,238.149,488.582,240.733,490.126,242.033L490.126,242.033z"/>
		</g>
	</g>
	<g>
		<path fill="#653614" d="M482.479,300.336c1.948,4.742,6.536,8.296,11.615,8.996c2.274,0.314,5.06-0.209,5.963-2.319
			c0.523-1.22,0.239-2.657-0.376-3.834c-1.399-2.671-4.369-4.269-7.364-4.626c-2.995-0.358-6.02,0.367-8.856,1.391"/>
		<g>
			<path fill="#653614" d="M480.887,300.336c0.741,8.104,13.938,15.684,20.443,9.091c3.03-3.072,0.188-8.009-2.657-10.022
				c-4.753-3.365-10.364-2.637-15.651-1.051c-2.057,0.617-1.086,3.93,0.877,3.18c2.941-1.126,5.833-1.869,9.005-1.335
				c2.701,0.455,8.425,6.146,2.955,6.804c-5.475,0.657-8.99-4.388-12.254-7.792C482.698,298.265,480.757,298.924,480.887,300.336
				L480.887,300.336z"/>
		</g>
	</g>
	<g>
		<g>
			<path fill="#653614" d="M353.124,213.82c-2.304-1.711-5.121-1.514-7.889-1.995c-3.58-0.623-7.249-1.64-10.682-2.807
				c-8.483-2.885-15.334-8.109-19.577-16.122c-8.302-15.677-3.025-33.975,1.538-49.999c0.729-2.56-3.234-4.363-4.382-1.847
				c-7.115,15.597-11.276,38.932-0.168,53.605c4.746,6.27,11.686,12.163,18.402,16.246c3.845,2.337,7.67,4.166,12.046,5.225
				c3.374,0.817,7.622,1.952,10.711-0.01C354.029,215.542,353.925,214.415,353.124,213.82L353.124,213.82z"/>
		</g>
	</g>
	<g>
		<g>
			<path fill="#653614" d="M236.876,185.885c4.083,3.216,9.597,3.685,14.635,3.659c8.395-0.042,17.176-1.966,24.972-4.959
				c9.375-3.6,16.014-9.896,22.61-17.24c3.809-4.241,7.345-8.77,10.414-13.573c2.254-3.527,5.773-8.458,4.87-12.809
				c-0.261-1.255-1.821-1.431-2.661-0.703c-3.039,2.636-4.097,7.739-6.059,11.262c-2.879,5.168-6.36,9.988-10.133,14.534
				c-6.396,7.703-14.121,13.083-23.873,15.563c-7.432,1.892-14.444,2.069-22.042,1.878c-3.073-0.077-10.5-2.625-12.734-0.33
				C236.211,183.851,236.044,185.23,236.876,185.885L236.876,185.885z"/>
		</g>
	</g>
	<g>
		<path fill="#653614" d="M312.039,144.543c5.045-4.068,8.9-9.597,10.973-15.737c1.41-4.18,1.324-9.963-2.741-11.676
			c-4.379-1.846-8.755,2.962-10.101,7.52c-2.033,6.888-1.006,14.619,2.755,20.737"/>
		<g>
			<path fill="#653614" d="M313.192,146.516c6.477-4.072,11.109-10.688,13.14-18.066c1.251-4.547,0.219-12.473-5.371-13.825
				c-15.447-3.738-18.151,24.319-8.844,31.57c0.665,0.519,2.093,0.315,1.95-0.808c-0.479-3.777-2.315-7.009-2.633-10.903
				c-0.417-5.107,0.633-11.496,5.041-14.654c4.861-3.483,4.428,4.325,4.201,5.76c-0.334,2.114-1.295,4.237-2.184,6.15
				c-1.936,4.166-5.045,7.784-8.07,11.187C308.757,144.801,310.901,147.957,313.192,146.516L313.192,146.516z"/>
		</g>
	</g>
	<g>
		<g>
			<path fill="#653614" d="M107.9,146.844c-15.374,2.019-29.818-4.159-42.381-12.613c-12.526-8.429-21.511-20.015-26.43-34.252
				c-0.817-2.364-4.5-1.405-3.779,1.042c4.315,14.638,15.191,26.458,27.284,35.268c6.404,4.666,13.574,8.391,20.816,11.567
				c7.917,3.472,16.51,7.011,25.177,4.067C111.189,151.04,110.937,146.445,107.9,146.844L107.9,146.844z"/>
		</g>
	</g>
	<g>
		<path fill="#653614" d="M37.16,101.316c0.387-5.318,2.254-10.531,1.874-15.85s-4.223-11.073-9.548-10.818
			c-4.218,0.203-7.523,4.381-7.687,8.601c-0.164,4.22,2.226,8.214,5.403,10.995s7.093,4.551,10.945,6.28"/>
		<g>
			<path fill="#653614" d="M38.939,102.356c3.621-6.08,4.537-15.806,1.501-22.21c-2.579-5.439-8.183-9.124-14.166-6.844
				c-6.046,2.304-7.406,9.639-5.743,15.116c2.219,7.305,10.363,11.856,17.009,14.307c2.452,0.904,4.008-2.96,1.759-4.172
				c-3.573-1.926-7.286-3.361-10.509-5.898c-4.858-3.824-7.726-13.059-0.112-15.755c6.743-2.387,7.306,8.475,7.112,12.099
				c-0.231,4.318-2.085,8.648-0.618,12.865C35.747,103.515,37.983,103.961,38.939,102.356L38.939,102.356z"/>
		</g>
	</g>
</g>
</svg>
