<svg width="400" height="400" xmlns="http://www.w3.org/2000/svg">
 <g>
  <title>background</title>
 </g>

 <style type="text/css">.st0{fill-rule:evenodd;clip-rule:evenodd;fill:#D8EFF7;}
	.st1{fill-rule:evenodd;clip-rule:evenodd;fill:#FFFFFF;}
	.st2{fill-rule:evenodd;clip-rule:evenodd;fill:#A7D5E0;}
	.st3{fill-rule:evenodd;clip-rule:evenodd;fill:#CEEBF6;}
	.st4{fill-rule:evenodd;clip-rule:evenodd;fill:#B1B6B7;}
	.st5{fill-rule:evenodd;clip-rule:evenodd;fill:#A0A6A7;}
	.st6{fill-rule:evenodd;clip-rule:evenodd;fill:#C0E3ED;}
	.st7{display:none;fill-rule:evenodd;clip-rule:evenodd;fill:#7DB3C1;}
	.st8{fill-rule:evenodd;clip-rule:evenodd;fill:#F7FBFF;}
	.st9{fill-rule:evenodd;clip-rule:evenodd;fill:#2CB7D3;}
	.st10{fill-rule:evenodd;clip-rule:evenodd;fill:#4E4E4E;}
	.st11{fill-rule:evenodd;clip-rule:evenodd;fill:#343433;}
	.st12{display:none;}
	.st13{display:inline;}
	.st14{fill:#EEC09B;}
	.st15{fill:#191C19;}
	.st16{fill:#B6CAD5;}
	.st17{fill:#AB2A02;}
	.st18{fill:#DBA77F;}
	.st19{fill:none;}
	.st20{fill:#BD7133;}
	.st21{fill:#D48041;}
	.st22{fill:#90592A;}
	.st23{fill:#1C2528;}
	.st24{fill:#2B2B2B;}
	.st25{fill:#352311;}
	.st26{fill:#111719;}
	.st27{fill:#4C5159;}
	.st28{fill:#D8E4F4;}
	.st29{fill:#261D15;}
	.st30{fill:#483729;}
	.st31{fill:#141517;}
	.st32{fill:#5F6671;}
	.st33{fill:#3D3D3D;}
	.st34{fill:#17120E;}
	.st35{fill:#FFFFFF;}
	.st36{fill:#9DD87D;}
	.st37{fill:#7FC5D6;}
	.st38{fill:#D19234;}
	.st39{fill:#B47F2D;}
	.st40{fill:#EEC9AB;}
	.st41{fill:#C3832B;}
	.st42{fill:#FAAF40;}
	.st43{fill:#FBC36E;}
	.st44{fill:#E19D38;}
	.st45{fill:#FBB142;}
	.st46{opacity:0.33;fill:#FFFFFF;}
	.st47{fill:#101D28;}
	.st48{display:inline;fill-rule:evenodd;clip-rule:evenodd;fill:#4E4E4E;}
    #head{
    animation : down 3s ease-in-out infinite;
    }
    @keyframes down{
    0%,40%{
    visibility : visible}
    41%,100%{
    visibility : hidden
    }
    }
    #head-2{
     animation : down1 3s ease-in-out infinite;
    }
    @keyframes down1{
    0%,40%{
    visibility : hidden
    }
    41%,100%{
    visibility : visible
    }
    }
    #eyes{
    animation : blink 3s ease-in-out infinite
    }
    @keyframes blink{
    0%,5%{
    visibility : visible
    }
    10%,15%{
    visibility : hidden
    }
    20%,40%{
    visibility : visible
    }
    41%,75%{
     visibility : hidden
    }
   
    }
    #eyes_1_{
    animation : blink2 3s ease-in-out infinite
    }
    @keyframes blink2{
    0%,40%{
    visibility : hidden
    }
    60%,65%{
    visibility : visible
    }
    70%,75%{
     visibility : hidden
    }
    80%,100%{
    visibility : visible
    }
    }
    #finger{
    animation : point 3s ease-in-out infinite
    }
    @keyframes point{
    0%{
    transform: translate(0,0)
    }
    30%{
    transform: translate(-3px,-3px)
    }
    60%{
    transform: translate(0,0)
    }
    90%,100%{
    transform: translate(-3px,-3px)
    }
    }</style>
 <g>
  <title>Layer 1</title>
  <g stroke="null" id="girl">
   <g stroke="null" id="svg_40">
    <path stroke="null" d="m131.06952,156.4813c0,0 -0.785,-10.27633 2.1409,-19.83901c0,0 2.28363,0.64227 1.07045,4.2818c-1.07045,3.49681 0.14272,9.56269 0.14272,9.56269l-3.35407,5.99452l0,0.00001z" class="st18" id="XMLID_66_"/>
    <path stroke="null" d="m211.99556,133.14548c0,0 -13.6304,-0.28545 -20.8381,8.99178c-7.2077,9.27723 -23.69263,37.03758 -23.69263,37.03758l-26.04763,-14.70085l-3.35407,6.70816c0,0 19.69628,16.91311 29.61579,20.05311c-0.07136,0 45.03028,-46.10072 44.31664,-58.08977z" class="st27" id="XMLID_65_"/>
    <path stroke="null" d="m131.06952,156.4813c0,0 0.07136,-10.77586 5.8518,-17.48402c0,0 1.78408,0.49955 0.35681,3.28271c-1.49863,2.78317 -2.99726,10.06223 -1.71272,11.84632c0,0 -2.06954,3.7109 -4.49589,2.35499z" class="st18" id="XMLID_55_"/>
    <path stroke="null" d="m141.13175,169.96897c0,0 -12.70268,-4.42453 -13.48767,-9.63405c-0.785,-5.20953 -2.9259,-9.41996 2.28363,-15.41448c0,0 1.56999,1.92681 -0.49955,5.70907c0,0 -1.42727,3.85362 3.13999,8.42087c0,0 5.35225,0 8.84906,4.35317c0.07136,0 1.78408,4.63862 -0.28545,6.56543l-0.00001,0z" class="st14" id="XMLID_54_"/>
    <polygon stroke="null" points="150.194917678833,167.32852172851562 142.63037300109863,163.40354919433594 137.77766609191895,171.7530517578125 144.12901496887207,176.53440856933594 " class="st28" id="XMLID_53_"/>
   </g>
   <g stroke="null" id="svg_41">
    <path stroke="null" d="m235.97364,235.40917c0,0 -15.69994,29.04488 -27.54625,49.45481c0,0 11.20405,14.34403 5.78043,63.65611l-6.85088,0.64227l-11.98904,-66.08247l20.19583,-56.80523l20.40992,9.13451z" class="st14" id="XMLID_212_"/>
    <path stroke="null" d="m198.15107,213.64334c0,0 -10.56178,35.32486 -16.5563,66.79609l-16.91311,62.37157l5.92316,2.64045c0,0 22.76491,-43.24619 21.19491,-61.08703l20.12447,-51.95252l-13.77312,-18.76856z" class="st14" id="XMLID_211_"/>
    <path stroke="null" d="m139.56175,355.72778l15.34312,5.92316c5.8518,-6.42271 16.19948,-9.27723 16.19948,-9.27723l-0.35681,-5.8518l-0.14272,-2.21226c-1.07045,-3.92498 -5.70907,-2.21226 -5.70907,-2.21226c-2.99726,4.06771 -11.27541,8.06406 -17.55538,10.7045c-4.35317,1.78408 -7.7786,2.9259 -7.7786,2.9259l-0.00002,-0.00001z" class="st14" id="XMLID_192_"/>
    <path stroke="null" d="m171.10436,352.3737c0,0 -5.70907,5.8518 -8.20679,12.34586l-1.49863,-0.57091c0,0 3.7109,-8.49224 2.28363,-8.84906c0,0.07136 3.7109,-2.42635 7.42179,-2.9259z" class="st29" id="XMLID_191_"/>
    <path stroke="null" d="m139.56175,355.72778l15.34312,5.92316c5.8518,-6.42271 16.19948,-9.27723 16.19948,-9.27723l-0.35681,-5.8518l-16.77039,8.7777l-6.56543,-2.56908c-4.42453,1.85544 -7.84996,2.99726 -7.84996,2.99726l-0.00001,0z" class="st30" id="XMLID_190_"/>
    <path stroke="null" d="m199.79242,376.77997l14.91494,-7.06497c-0.64227,-8.63496 4.42453,-18.12629 4.42453,-18.12629l-4.49589,-3.78226l-1.71272,-1.42727c-3.56817,-1.92681 -5.56634,2.64045 -5.56634,2.64045c0.85636,4.92408 -1.92681,13.77312 -4.35317,20.12447c-1.71272,4.35317 -3.21135,7.63588 -3.21135,7.63588l0.00001,0z" class="st14" id="XMLID_189_"/>
    <path stroke="null" d="m219.06052,351.58871c0,0 0.28545,8.20679 3.28271,14.48676l-1.42727,0.64227c0,0 -3.56817,-8.5636 -4.8527,-7.70724c0,0 0.785,-4.35317 2.99726,-7.42179z" class="st29" id="XMLID_188_"/>
    <path stroke="null" d="m199.79242,376.77997l14.91494,-7.06497c-0.64227,-8.63496 4.42453,-18.12629 4.42453,-18.12629l-4.49589,-3.78226l-5.20953,18.26902l-6.35133,2.99726c-1.78408,4.42453 -3.28271,7.70724 -3.28271,7.70724z" class="st30" id="XMLID_187_"/>
    <path stroke="null" d="m245.89315,208.21973c0,0 3.28271,8.49224 -7.42179,28.54534s-26.61853,45.88664 -26.61853,45.88664l0.85636,-11.70358l-8.84906,10.91859l-20.90947,-8.06406l12.55995,-56.51978c0,0 2.78317,-15.62858 13.70176,-21.48036c0,0.07136 12.41722,11.84632 36.68077,12.41722l0.00001,-0.00001z" class="st31" id="XMLID_186_"/>
   </g>
   <g stroke="null" id="svg_42">
    <path stroke="null" d="m220.05962,133.21684l11.41814,-0.92772c0.57091,-0.07136 0.99908,-0.49955 0.92772,-1.07045l-1.78408,-23.05037c-0.07136,-0.57091 -0.49955,-0.99908 -1.07045,-0.92772l-11.41814,0.92772c-0.57091,0.07136 -0.99908,0.49955 -0.92772,1.07045l1.78408,23.05037c0.07136,0.57091 0.49955,0.99908 1.07045,0.92772z" class="st14" id="XMLID_208_"/>
    <path stroke="null" d="m232.33411,130.5764l4.06771,0.92772c0,0 -2.78317,21.90855 -17.05585,21.90855c-13.91585,0 -12.20313,-12.55995 -5.28089,-21.48036l5.42361,-1.21318l12.8454,-0.14272l0.00001,-0.00001z" class="st14" id="XMLID_195_"/>
    <path stroke="null" d="m227.19595,150.62951c0,0 -6.63679,1.64136 -13.13085,-1.14182l5.42361,29.75851l7.70724,-28.61671l0,0.00001z" class="st28" id="XMLID_193_"/>
    <path stroke="null" d="m232.33411,130.5764c0,0 -10.41905,19.19674 -13.13085,47.02845l0,32.11351l5.6377,20.69537c0,0 22.47946,2.85454 28.25988,-3.78226l-11.56086,-33.46941l4.35317,-31.18578l5.56634,-26.76125c0.07136,0.07136 -4.70998,-4.63862 -19.12538,-4.63862z" class="st27" id="XMLID_184_"/>
    <path stroke="null" d="m218.84644,130.43368c0,0 -3.42545,21.76582 1.42727,47.09981l0,32.18488l-4.8527,20.76674c0,0 -12.13177,0 -21.05219,-6.20861c0,0 3.21135,-19.41083 9.84814,-32.89851c0,0 3.28271,-8.42087 -1.21318,-16.41357c-6.13725,-10.84723 2.49771,-41.03392 2.49771,-41.03392s6.27997,-2.35499 13.34495,-3.49681l0,-0.00001z" class="st27" id="XMLID_183_"/>
    <path stroke="null" d="m232.40547,128.64959l6.56543,2.35499l0,20.62401l-11.77496,10.84723l3.06862,4.06771c0,0 -9.13451,7.92134 -11.20405,19.12538c0,-0.07136 -1.56999,-24.3349 13.34495,-57.01932l0.00001,-0.00002z" class="st32" id="XMLID_174_"/>
    <path stroke="null" d="m218.84644,130.43368c0,0 -2.71181,24.76309 1.42727,47.09981l-1.21318,8.13542l-7.70724,-19.91037l4.06771,-2.71181l-7.06497,-12.34586l7.06497,-19.62492l3.21135,-2.42635l0.21409,1.78408l-0.00001,0z" class="st32" id="XMLID_173_"/>
   </g>
   <polygon stroke="null" points="274.29577827453613,204.72293090820312 270.79898262023926,244.82913208007812 210.35420417785645,239.61961364746094 215.42100715637207,198.9425048828125 " class="st20" id="XMLID_182_"/>
   <g stroke="null" id="phone_2_">
    <g stroke="null" id="svg_43">
     <path stroke="null" id="svg_44" d="m146.12718,163.40354l1.42727,-0.85636c2.85454,-1.71272 3.63953,-4.8527 1.85544,-6.99361l-16.12811,-19.19674c-1.78408,-2.1409 -5.56634,-2.49771 -8.42087,-0.785l-1.42727,0.85636c-2.85454,1.71272 -3.63953,4.8527 -1.85544,6.99361l16.19948,19.19674c1.71272,2.1409 5.49498,2.49771 8.34951,0.785l-0.00001,0z" class="st33"/>
     <path stroke="null" id="svg_45" d="m148.69626,161.90491l1.42727,-0.85636c2.85454,-1.71272 3.63953,-4.8527 1.85544,-6.99361l-16.19948,-19.19674c-1.78408,-2.1409 -5.56634,-2.49771 -8.42087,-0.785l-1.42727,0.85636c-2.85454,1.71272 -3.63953,4.8527 -1.85544,6.99361l16.19948,19.19674c1.78408,2.1409 5.56634,2.49771 8.42087,0.785z" class="st34"/>
    </g>
    <polygon stroke="null" id="svg_46" points="141.6313190460205,161.4767303466797 151.47943305969238,155.69631958007812 133.1390552520752,133.14549255371094 123.2909107208252,138.92591857910156 " class="st35"/>
    <path stroke="null" id="svg_47" d="m135.63677,150.62951l3.42545,-2.06954c0.785,-0.49955 0.99908,-1.35591 0.49955,-1.92681l-0.28545,-0.28545c-0.49955,-0.57091 -1.56999,-0.71363 -2.28363,-0.21409l-3.42545,2.06954c-0.785,0.49955 -0.99908,1.35591 -0.49955,1.92681l0.28545,0.28545c0.49955,0.57091 1.49863,0.71363 2.28363,0.21409z" class="st36"/>
    <path stroke="null" id="svg_48" d="m133.21042,142.56545l3.49681,-2.1409c0.785,-0.49955 0.99908,-1.35591 0.49955,-1.92681l-0.28545,-0.28545c-0.49955,-0.57091 -1.56999,-0.71363 -2.28363,-0.21409l-3.49681,2.1409c-0.785,0.49955 -0.99908,1.35591 -0.49955,1.92681l0.28545,0.28545c0.49955,0.57091 1.49863,0.71363 2.28363,0.21409z" class="st37"/>
    <path stroke="null" id="svg_49" d="m143.41537,155.12539l3.49681,-2.1409c0.785,-0.49955 0.99908,-1.35591 0.49955,-1.92681l-0.28545,-0.28545c-0.49955,-0.57091 -1.56999,-0.71363 -2.28363,-0.21409l-3.49681,2.1409c-0.785,0.49955 -0.99908,1.35591 -0.49955,1.92681l0.28545,0.28545c0.49955,0.57091 1.49863,0.71363 2.28363,0.21409z" class="st37"/>
   </g>
   <path stroke="null" d="m146.05582,144.49225c0.785,4.06771 2.56908,5.42361 2.56908,5.42361l-3.56817,6.27997c0,0 -1.56999,-3.99634 -1.21318,-7.92134" class="st18" id="finger"/>
   <path stroke="null" d="m245.96451,162.04764l0,0l5.56634,-26.76125c1.49863,1.64136 1.35591,4.21044 2.42635,7.9927c4.2818,15.20039 8.99178,49.59753 8.99178,49.59753l-11.98904,35.68167l-7.35043,-2.64045l8.70633,-33.18396l-6.35133,-30.68624z" class="st14" id="XMLID_5_"/>
   <path stroke="null" d="m245.67906,218.92423l-2.49771,7.06497c0,0 -4.42453,2.35499 -6.56543,9.56269c-2.06954,7.2077 2.99726,3.42545 4.8527,0.57091c0,0 -2.35499,7.63588 0.49955,8.70633c0,0 4.56725,2.21226 6.20861,0.42818c0,0 3.78226,1.49863 5.28089,-0.42818c0,0 3.21135,2.1409 4.63862,-0.92772l-3.06862,-0.28545c0,0 2.78317,-13.98722 -4.70998,-17.9122l0.785,-6.49407l-5.42361,-0.28545l-0.00002,0z" class="st14" id="XMLID_6_"/>
   <polygon stroke="null" points="215.42100715637207,198.9425048828125 274.29577827453613,204.72293090820312 276.3652973175049,203.5811309814453 216.9196491241455,197.87203979492188 " class="st21" id="XMLID_180_"/>
   <polygon stroke="null" points="270.79898262023926,244.82913208007812 272.5116596221924,243.9014129638672 276.3652973175049,203.5811309814453 274.29577827453613,204.72293090820312 " class="st22" id="XMLID_179_"/>
   <path stroke="null" d="m251.53085,135.28638c0,0 2.64045,3.21135 5.92316,19.91037c3.28271,16.69902 5.49498,37.67985 5.49498,37.67985l-8.20679,28.18852l-11.13269,-3.49681l7.9927,-24.40626l-6.42271,-32.89851c0,0 0.07136,-18.6972 6.35133,-24.97717l0.00001,0z" class="st27" id="XMLID_4_"/>
   <polygon stroke="null" points="254.4567584991455,219.92330932617188 252.52997016906738,226.7028350830078 242.8958911895752,223.70556640625 244.89404487609863,217.21151733398438 " class="st28" id="XMLID_3_"/>
   <g stroke="null" id="head">
    <path stroke="null" d="m258.66719,70.06028c10.56178,3.78226 22.194,-12.8454 18.12629,-27.47489c-0.785,-2.9259 -2.21226,-5.70907 -4.42453,-8.27815c-7.56452,-8.92042 -17.48402,-8.63496 -24.549,-6.85088c-5.28089,1.35591 -8.92042,3.63953 -8.92042,3.63953c22.62218,7.06497 19.76765,38.96439 19.76765,38.96439l0,0.00001z" class="st38" id="XMLID_52_"/>
    <path stroke="null" d="m258.66719,70.06028c10.56178,3.78226 22.194,-12.8454 18.12629,-27.47489c-2.28363,8.49224 -8.92042,11.56086 -8.92042,11.56086c-4.70998,-18.41174 -14.48676,-24.62036 -20.05311,-26.68989c-5.28089,1.35591 -8.92042,3.63953 -8.92042,3.63953c22.62218,7.06497 19.76765,38.96439 19.76765,38.96439l0,0.00001z" class="st39" id="XMLID_51_"/>
    <path stroke="null" d="m193.29836,84.54704c0,0 2.64045,25.04853 -4.21044,37.32303c-0.07136,0 14.34403,-12.20313 4.21044,-37.32303z" class="st38" id="XMLID_50_"/>
    <path stroke="null" d="m195.51062,90.96974l0,0c3.78226,0.28545 7.13633,-2.64045 7.42179,-6.42271l0.57091,-8.20679c0.28545,-3.78226 -2.64045,-7.13633 -6.42271,-7.42179l0,0c-3.78226,-0.28545 -7.13633,2.64045 -7.42179,6.42271l-0.57091,8.20679c-0.28545,3.78226 2.56908,7.13633 6.42271,7.42179z" class="st18" id="XMLID_49_"/>
    <path stroke="null" d="m223.91324,125.29551l0,0c4.13907,0 7.56452,-3.42545 7.56452,-7.56452l0,-4.8527c0,-4.13907 -3.42545,-7.56452 -7.56452,-7.56452l0,0c-4.13907,0 -7.56452,3.42545 -7.56452,7.56452l0,4.8527c0,4.13907 3.42545,7.56452 7.56452,7.56452z" class="st18" id="XMLID_45_"/>
    <path stroke="null" d="m252.38722,99.46198l5.56634,-38.7503c1.99818,-13.84449 -7.70724,-26.83262 -21.55174,-28.83079l-11.56086,-1.64136c-13.84449,-1.99818 -26.83262,7.70724 -28.83079,21.55174l-4.99544,34.68259c-1.14182,7.92134 3.35407,31.68533 21.05219,34.96804c18.34038,3.49681 39.32121,-14.91494 40.32029,-21.97991z" class="st14" id="XMLID_44_"/>
    <path stroke="null" d="m212.42374,90.61293c0,0 -6.49407,4.70998 1.07045,6.92224c0,0 -10.77586,-1.56999 -1.07045,-6.92224z" class="st18" id="XMLID_40_"/>
    <path stroke="null" d="m229.40821,95.82245c-0.21409,1.71272 1.85544,3.35407 4.63862,3.78226c2.78317,0.42818 5.28089,-0.64227 5.49498,-2.28363c0.21409,-1.71272 -1.85544,-3.35407 -4.63862,-3.78226c-2.78317,-0.42818 -5.28089,0.57091 -5.49498,2.28363z" class="st40" id="XMLID_39_"/>
    <ellipse stroke="null" ry="5.8" rx="4.3" cy="96.22556" cx="470.24207" class="st40" transform="matrix(0.10155 -0.706354 0.706354 0.10155 80.3738 413.502)" id="XMLID_23_"/>
    <path stroke="null" d="m222.84278,74.62754c0,0 8.42087,-4.2818 16.5563,3.21135l1.35591,-2.85454c0,0 -7.70724,-7.7786 -18.41174,-2.64045l0.49955,2.28363l-0.00001,0z" class="st41" id="XMLID_10_"/>
    <path stroke="null" d="m207.07149,71.41619c0,0 -4.92408,-6.20861 -12.48859,-0.92772l-0.28545,-3.06862c0,0 7.35043,-5.6377 13.6304,1.92681l-0.85636,2.06954z" class="st41" id="XMLID_9_"/>
    <g stroke="null" id="XMLID_30_">
     <path stroke="null" d="m251.2454,100.17562l0,0c3.78226,0.64227 7.35043,-1.92681 7.9927,-5.6377l1.35591,-8.06406c0.64227,-3.78226 -1.92681,-7.35043 -5.6377,-7.9927l0,0c-3.78226,-0.64227 -7.35043,1.92681 -7.9927,5.6377l-1.35591,8.06406c-0.64227,3.78226 1.92681,7.35043 5.6377,7.9927z" class="st14" id="XMLID_32_"/>
     <path stroke="null" d="m248.74769,94.75199c0,0 -0.42818,-11.84632 5.56634,-12.70268c0,0 -3.21135,3.35407 -2.35499,6.42271c0,0 1.99818,0.49955 1.49863,4.13907c-0.57091,3.56817 -3.99634,3.7109 -4.70998,2.1409z" class="st18" id="XMLID_31_"/>
    </g>
    <path stroke="null" d="m206.64331,104.38605c0,0 9.13451,4.42453 14.91494,1.42727c-0.07136,0 -6.85088,7.9927 -14.91494,-1.42727z" class="st35" id="XMLID_29_"/>
    <path stroke="null" d="m192.37063,77.19661c0,0 0,-0.42818 0.14272,-1.21318c0.49955,-4.8527 2.64045,-22.62218 8.70633,-31.11442c0,0 14.34403,27.68898 46.10072,33.54077c0,0 4.21044,27.40352 -4.63862,46.95708c0,0 11.91768,-7.63588 10.56178,-45.31573l7.56452,3.28271c0,0 9.70542,-25.1199 -4.2818,-45.81528c-17.76948,-26.11899 -48.81254,-19.62492 -59.5884,-4.78134c-0.07136,-0.07136 -14.84358,12.34586 -4.56725,44.45937l0,0.00001z" class="st42" id="XMLID_8_"/>
    <path stroke="null" d="m211.71011,26.31455c0,0 17.05585,-9.20587 32.89851,6.20861c15.84266,15.41448 -0.92772,14.34403 -8.7777,4.56725c-7.92134,-9.77678 -16.62766,-12.91677 -24.12081,-10.77586z" class="st43" id="XMLID_7_"/>
    <path stroke="null" d="m192.51336,75.91208c0.49955,-4.8527 2.64045,-22.62218 8.70633,-31.11442c0,0 14.34403,27.68898 46.10072,33.54077c0,0 4.21044,27.40352 -4.63862,46.95708c0,0 11.13269,-16.34221 7.63588,-51.0248c0,0 -39.82075,-14.77222 -49.09799,-38.89303c-0.07136,0 -11.4895,12.55995 -8.70633,40.53439l0.00001,0z" class="st44" id="XMLID_26_"/>
    <path stroke="null" d="m247.81996,27.45636c0,0 19.55356,-1.92681 28.97352,15.12903c-0.785,-2.9259 -2.21226,-5.70907 -4.42453,-8.27815c-7.56452,-8.92042 -17.48402,-8.70633 -24.549,-6.85088z" class="st45" id="XMLID_25_"/>
    <g stroke="null" id="XMLID_164_">
     <path stroke="null" d="m212.20964,77.33934c0,0 1.49863,5.49498 -2.9259,11.13269c0,0 -5.6377,1.99818 -13.84449,-0.35681c0,0 -3.92498,-3.78226 -2.85454,-11.34677c-0.07136,0 10.06223,-4.8527 19.62492,0.57091l0.00001,-0.00001z" class="st46" id="XMLID_172_"/>
     <g stroke="null" id="XMLID_166_">
      <path stroke="null" d="m190.22973,79.26615c0,0 0.92772,-0.21409 1.21318,1.71272c0,0 0,0 0,-0.07136c0.49955,4.92408 3.28271,7.70724 3.28271,7.70724c8.99178,2.56908 15.12903,0.35681 15.12903,0.35681c2.78317,-3.42545 3.42545,-6.85088 3.49681,-9.13451c0.28545,-0.42818 0.71363,-0.85636 1.49863,-0.85636c2.21226,0 1.99818,2.35499 1.99818,2.35499c0,0 0,-0.07136 0.07136,-0.07136c-0.28545,2.78317 -0.21409,6.70816 1.64136,9.63405c0,0 10.7045,5.6377 20.48128,3.7109c0,0 3.13999,-3.56817 4.42453,-8.06406c0,0 0,0.07136 0,0.07136c0,0 0.49955,-2.06954 1.56999,-1.71272c0.42818,0.14272 0.785,0.21409 1.07045,0.21409l5.8518,0.99908l0.14272,-1.35591l-5.56634,-1.49863l0,0c-0.85636,-0.42818 -2.42635,-0.85636 -4.42453,-2.06954c0,0 0.07136,0.07136 0.14272,0.07136c-3.49681,-2.21226 -12.13177,-6.35133 -24.69172,-3.56817c0,0 0,0 0,0.07136c0,0 0,-0.07136 0,-0.07136c-2.64045,0.42818 -4.49589,-0.64227 -4.49589,-0.64227l0,0c-10.34769,-5.70907 -21.26628,-0.49955 -21.26628,-0.49955s-1.64136,0.57091 -2.42635,0.71363c-0.92772,-0.14272 -1.49863,2.06954 0.85636,1.99818l0,0.00001zm27.97443,-0.99908c15.69994,-3.28271 24.90581,4.42453 24.90581,4.42453c0.28545,5.6377 -4.63862,10.98996 -4.63862,10.98996c-9.27723,1.71272 -19.33947,-3.42545 -19.33947,-3.42545c-2.99726,-4.63862 -0.92772,-11.98904 -0.92772,-11.98904zm-25.69081,-1.49863c0,0 10.13359,-4.8527 19.69628,0.57091c0,0 1.49863,5.49498 -2.9259,11.13269c0,0 -5.6377,1.99818 -13.84449,-0.35681c-0.07136,0 -3.99634,-3.78226 -2.9259,-11.34677l0.00001,-0.00001z" class="st47" id="XMLID_168_"/>
      <path stroke="null" d="m242.03953,80.97887c0,0 -0.07136,0 0,0c-0.07136,0 -0.07136,0 0,0z" class="st47" id="XMLID_167_"/>
     </g>
     <path stroke="null" d="m219.1319,90.25611c0,0 10.06223,5.13816 19.33947,3.42545c0,0 4.92408,-5.35225 4.63862,-10.98996c0,0 -9.20587,-7.70724 -24.90581,-4.42453c0,0 -2.06954,7.35043 0.92772,11.98904z" class="st46" id="XMLID_165_"/>
    </g>
    <g stroke="null" id="eyes-closed_1_">
     <path stroke="null" d="m228.2664,85.11795l0,0c1.07045,0 2.1409,-0.14272 2.28363,-0.35681l0.35681,-0.57091c0.14272,-0.21409 -0.64227,-0.42818 -1.71272,-0.49955l0,0c-1.07045,0 -2.1409,0.14272 -2.28363,0.35681l-0.35681,0.57091c-0.14272,0.28545 0.64227,0.49955 1.71272,0.49955z" class="st37" id="XMLID_69_"/>
     <path stroke="null" d="m203.00377,84.47568l0,0c1.07045,0 2.1409,-0.14272 2.28363,-0.35681l0.35681,-0.57091c0.14272,-0.21409 -0.64227,-0.42818 -1.71272,-0.49955l0,0c-1.07045,0 -2.1409,0.14272 -2.28363,0.35681l-0.35681,0.57091c-0.14272,0.21409 0.64227,0.42818 1.71272,0.49955z" class="st37" id="XMLID_68_"/>
    </g>
    <g stroke="null" id="eyes">
     <path stroke="null" d="m228.2664,89.04293l0,0c1.07045,0.14272 2.1409,-0.64227 2.28363,-1.71272l0.35681,-2.64045c0.14272,-1.07045 -0.64227,-2.1409 -1.71272,-2.28363l0,0c-1.07045,-0.14272 -2.1409,0.64227 -2.28363,1.71272l-0.35681,2.64045c-0.14272,1.14182 0.64227,2.1409 1.71272,2.28363z" class="st25" id="XMLID_12_"/>
     <path stroke="null" d="m203.00377,85.76022l0,0c1.07045,0.14272 2.1409,-0.64227 2.28363,-1.71272l0.35681,-2.64045c0.14272,-1.07045 -0.64227,-2.1409 -1.71272,-2.28363l0,0c-1.07045,-0.14272 -2.1409,0.64227 -2.28363,1.71272l-0.35681,2.64045c-0.14272,1.07045 0.64227,2.1409 1.71272,2.28363z" class="st25" id="XMLID_11_"/>
    </g>
   </g>
   <g stroke="null" id="head-2">
    <path stroke="null" d="m244.75133,62.78122c11.20405,0.57091 17.55538,-18.6972 9.41996,-31.5426c-1.56999,-2.56908 -3.78226,-4.8527 -6.63679,-6.63679c-9.77678,-6.35133 -19.19674,-3.21135 -25.47672,0.49955c-4.63862,2.78317 -7.49315,6.06588 -7.49315,6.06588c23.69263,0.28545 30.1867,31.61397 30.1867,31.61397l-0.00001,-0.00001z" class="st38" id="XMLID_57_"/>
    <path stroke="null" d="m244.75133,62.78122c11.20405,0.57091 17.55538,-18.6972 9.41996,-31.5426c0.28545,8.7777 -5.20953,13.6304 -5.20953,13.6304c-9.77678,-16.27085 -20.98083,-19.41083 -26.90399,-19.76765c-4.63862,2.78317 -7.49315,6.06588 -7.49315,6.06588c23.69263,0.28545 30.1867,31.61397 30.1867,31.61397z" class="st39" id="XMLID_56_"/>
    <path stroke="null" d="m186.30475,95.46563c0,0 9.70542,23.19309 6.70816,36.96622c-0.07136,0.07136 10.20495,-15.7713 -6.70816,-36.96622z" class="st38" id="XMLID_48_"/>
    <path stroke="null" d="m190.30109,101.03198l0,0c3.7109,-0.785 6.06588,-4.56725 5.28089,-8.27815l-1.78408,-7.9927c-0.785,-3.7109 -4.56725,-6.06588 -8.27815,-5.28089l0,0c-3.7109,0.785 -6.06588,4.56725 -5.28089,8.27815l1.78408,7.9927c0.785,3.7109 4.49589,6.06588 8.27815,5.28089z" class="st18" id="XMLID_47_"/>
    <path stroke="null" d="m227.33867,125.7237l0,0c3.99634,-1.21318 6.27997,-5.42361 5.0668,-9.41996l-1.42727,-4.63862c-1.21318,-3.99634 -5.42361,-6.27997 -9.41996,-5.0668l0,0c-3.99634,1.21318 -6.27997,5.42361 -5.0668,9.41996l1.42727,4.63862c1.21318,3.92498 5.49498,6.20861 9.41996,5.0668z" class="st18" id="XMLID_46_"/>
    <path stroke="null" d="m247.17769,92.75383l-5.8518,-38.67893c-2.06954,-13.84449 -15.12903,-23.47854 -28.97352,-21.409l-11.56086,1.78408c-13.84449,2.06954 -23.47854,15.12903 -21.409,28.97352l5.20953,34.68259c1.21318,7.92134 12.34586,29.4017 30.25806,27.40352c18.62584,-1.99818 33.39805,-25.69081 32.3276,-32.75577l0,-0.00001z" class="st14" id="XMLID_43_"/>
    <path stroke="null" d="m206.35786,95.82245c0,0 -4.8527,6.35133 2.99726,6.35133c0,-0.07136 -10.77586,1.56999 -2.99726,-6.35133z" class="st18" id="XMLID_42_"/>
    <path stroke="null" d="m224.12733,95.89381c0.28545,1.71272 2.71181,2.71181 5.56634,2.28363c2.78317,-0.35681 4.8527,-2.1409 4.63862,-3.78226c-0.28545,-1.71272 -2.71181,-2.71181 -5.56634,-2.28363c-2.85454,0.42818 -4.92408,2.06954 -4.63862,3.78226z" class="st40" id="XMLID_41_"/>
    <ellipse stroke="null" ry="4.3" rx="5.8" cy="159.77532" cx="269.66315" class="st40" transform="matrix(0.705712 -0.106117 0.106117 0.705712 -16.3809 16.8146)" id="XMLID_38_"/>
    <path stroke="null" d="m211.71011,77.48207c0,0 6.85088,-6.49407 16.77039,-1.71272l0.49955,-3.13999c0,0 -9.63405,-5.20953 -18.41174,2.78317l1.14182,2.06954l-0.00001,0.00001z" class="st41" id="XMLID_37_"/>
    <path stroke="null" d="m195.72472,78.9807c0,0 -6.49407,-4.49589 -12.20313,2.71181l-1.14182,-2.85454c0,0 5.42361,-7.49315 13.6304,-2.06954l-0.28545,2.21226l0,0.00001z" class="st41" id="XMLID_36_"/>
    <g stroke="null" id="XMLID_33_">
     <path stroke="null" d="m246.32133,93.75291l0,0c3.78226,-0.49955 6.49407,-3.99634 6.06588,-7.70724l-0.99908,-8.13542c-0.49955,-3.78226 -3.99634,-6.49407 -7.70724,-6.06588l0,0c-3.78226,0.49955 -6.49407,3.99634 -6.06588,7.70724l0.99908,8.13542c0.42818,3.85362 3.92498,6.56543 7.70724,6.06588z" class="st14" id="XMLID_35_"/>
     <path stroke="null" d="m242.32498,89.32838c0,0 -3.85362,-11.20405 1.64136,-13.77312c0,0 -2.1409,4.13907 -0.42818,6.85088c0,0 2.06954,-0.07136 2.64045,3.49681c0.57091,3.56817 -2.71181,4.70998 -3.85362,3.42545l-0.00001,-0.00001z" class="st18" id="XMLID_34_"/>
    </g>
    <path stroke="null" d="m204.78786,110.66603c0,0 9.99087,1.64136 14.70085,-2.9259c-0.07136,0 -4.2818,9.63405 -14.70085,2.9259z" class="st35" id="XMLID_28_"/>
    <path stroke="null" d="m183.30749,88.75748c0,0 -0.14272,-0.42818 -0.21409,-1.21318c-0.92772,-4.78134 -3.99634,-22.4081 -0.64227,-32.3276c0,0 21.69446,22.4081 53.80796,18.83993c0,0 11.91768,25.04853 9.06315,46.31481c0,0 9.20587,-10.77586 -2.9259,-46.45755l8.20679,0.99908c0,0 2.06954,-26.83262 -17.26993,-42.67529c-24.549,-19.91037 -52.3807,-4.70998 -58.44658,12.55995c-0.07136,0 -10.7045,16.12811 8.42087,43.95982l0,0.00001z" class="st42" id="XMLID_27_"/>
    <path stroke="null" d="m187.16111,34.44997c0,0 13.70176,-13.70176 33.32668,-3.49681c19.62492,10.20495 3.21135,13.98722 -7.06497,6.92224c-10.41905,-7.13633 -19.69628,-7.63588 -26.26172,-3.42545l0.00001,0.00001z" class="st43" id="XMLID_24_"/>
    <path stroke="null" d="m183.0934,87.47294c-0.92772,-4.78134 -3.99634,-22.4081 -0.64227,-32.3276c0,0 21.69446,22.4081 53.80796,18.83993c0,0 11.91768,25.04853 9.06315,46.31481c0,0 5.92316,-18.83993 -7.35043,-51.09616c0,0 -42.38983,-2.71181 -58.23249,-23.12173c-0.07136,0.07136 -7.42179,15.41448 3.35407,41.39075l0,-0.00001z" class="st44" id="XMLID_22_"/>
    <path stroke="null" d="m222.05779,25.10137c0,0 18.19765,-7.49315 32.11351,6.13725c-1.56999,-2.56908 -3.78226,-4.8527 -6.63679,-6.63679c-9.77678,-6.35133 -19.19674,-3.28271 -25.47672,0.49955l0,-0.00001z" class="st45" id="XMLID_21_"/>
    <g stroke="null" id="XMLID_15_">
     <path stroke="null" d="m202.3615,83.11977c0,0 2.99726,4.8527 0.42818,11.4895c0,0 -4.8527,3.56817 -13.34495,3.63953c0,0 -4.8527,-2.49771 -5.99452,-10.06223c-0.14272,0.07136 8.13542,-7.49315 18.91129,-5.0668z" class="st46" id="XMLID_20_"/>
     <g stroke="null" id="XMLID_17_">
      <path stroke="null" d="m181.80886,91.32656c0,0 0.85636,-0.49955 1.64136,1.28454c0,0 0,0 0,-0.07136c1.92681,4.56725 5.35225,6.42271 5.35225,6.42271c9.3486,-0.14272 14.55812,-3.99634 14.55812,-3.99634c1.71272,-4.06771 1.28454,-7.56452 0.71363,-9.77678c0.14272,-0.49955 0.42818,-0.99908 1.21318,-1.28454c2.1409,-0.64227 2.56908,1.71272 2.56908,1.71272s0,-0.07136 0.07136,-0.07136c0.49955,2.78317 1.71272,6.49407 4.35317,8.7777c0,0 11.84632,2.28363 20.69537,-2.35499c0,0 1.99818,-4.35317 1.92681,-8.99178l0,0.07136c0,0 -0.14272,-2.1409 0.99908,-2.06954c0.42818,0 0.785,0 1.07045,-0.07136l5.92316,-0.71363l-0.28545,-1.35591l-5.78043,0.14272l0,0c-0.92772,-0.14272 -2.56908,-0.14272 -4.8527,-0.71363c0,0 0.07136,0.07136 0.14272,0c-3.99634,-1.14182 -13.41631,-2.56908 -24.69172,3.7109c0,0 0,0 0,0.07136l0,-0.07136c-2.42635,1.14182 -4.49589,0.71363 -4.49589,0.71363l0,0c-11.56086,-2.49771 -20.48128,5.6377 -20.48128,5.6377s-1.42727,0.99908 -2.1409,1.35591c-0.785,0.07136 -0.71363,2.35499 1.49863,1.64136l-0.00001,-0.00003zm26.54717,-8.99178c14.05858,-7.63588 25.1199,-2.9259 25.1199,-2.9259c1.92681,5.35225 -1.28454,11.84632 -1.28454,11.84632c-8.42087,4.2818 -19.4822,2.28363 -19.4822,2.28363c-4.21044,-3.56817 -4.35317,-11.20405 -4.35317,-11.20405zm-25.04853,5.92316c0,0 8.27815,-7.56452 19.05401,-5.13816c0,0 2.99726,4.8527 0.42818,11.4895c0,0 -4.8527,3.56817 -13.34495,3.63953c-0.14272,0.07136 -4.99544,-2.42635 -6.13725,-9.99087l0.00001,0z" class="st47" id="XMLID_19_"/>
      <path stroke="null" d="m231.9773,78.05297c0,0 -0.07136,0 0,0c-0.07136,0 -0.07136,0 0,0z" class="st36" id="XMLID_18_"/>
     </g>
     <path stroke="null" d="m212.70919,93.53882c0,0 11.13269,1.99818 19.4822,-2.28363c0,0 3.13999,-6.56543 1.28454,-11.84632c0,0 -11.06132,-4.70998 -25.1199,2.9259c0,0 0.14272,7.63588 4.35317,11.20405z" class="st46" id="XMLID_16_"/>
    </g>
    <g stroke="null" id="eyes-closed_2_">
     <path stroke="null" d="m221.0587,88.75748l0,0c1.07045,0 1.85544,-0.21409 1.71272,-0.42818l-0.42818,-0.49955c-0.14272,-0.21409 -1.21318,-0.35681 -2.28363,-0.35681l0,0c-1.07045,0 -1.85544,0.21409 -1.71272,0.42818l0.42818,0.49955c0.21409,0.21409 1.21318,0.35681 2.28363,0.35681z" class="st37" id="XMLID_2_"/>
     <path stroke="null" d="m195.9388,89.54248l0,0c1.07045,0 1.85544,-0.21409 1.71272,-0.42818l-0.42818,-0.49955c-0.14272,-0.21409 -1.21318,-0.35681 -2.28363,-0.35681l0,0c-1.07045,0 -1.85544,0.21409 -1.71272,0.42818l0.42818,0.49955c0.14272,0.21409 1.21318,0.42818 2.28363,0.35681z" class="st37" id="XMLID_1_"/>
    </g>
    <g stroke="null" id="eyes_1_">
     <path stroke="null" d="m221.0587,89.75657l0,0c1.07045,-0.14272 1.85544,-1.21318 1.71272,-2.28363l-0.42818,-2.64045c-0.14272,-1.07045 -1.21318,-1.85544 -2.28363,-1.71272l0,0c-1.07045,0.14272 -1.85544,1.21318 -1.71272,2.28363l0.42818,2.64045c0.21409,1.14182 1.21318,1.85544 2.28363,1.71272z" class="st25" id="XMLID_14_"/>
     <path stroke="null" d="m195.9388,93.89564l0,0c1.07045,-0.14272 1.85544,-1.21318 1.71272,-2.28363l-0.42818,-2.64045c-0.14272,-1.07045 -1.21318,-1.85544 -2.28363,-1.71272l0,0c-1.07045,0.14272 -1.85544,1.21318 -1.71272,2.28363l0.42818,2.64045c0.14272,1.07045 1.21318,1.85544 2.28363,1.71272z" class="st25" id="XMLID_13_"/>
    </g>
   </g>
  </g>
  <g class="st12" id="chaires">
   <rect id="svg_50" height="48.3" width="879.7" class="st8" y="419.8" x="-9.8"/>
   <rect id="svg_51" height="47.7" width="40.9" class="st48" y="431.5" x="95.8"/>
   <ellipse id="svg_52" ry="33.7" rx="28.9" cy="455.4" cx="272" class="st48"/>
   <path id="svg_53" d="m407.2,431.5c13.6,0 27.3,0 40.9,0c0,15.9 0,31.8 0,47.7c-13.6,0 -27.3,0 -40.9,0c0,-15.9 0,-31.8 0,-47.7z" class="st48"/>
   <ellipse id="svg_54" ry="33.7" rx="29" cy="455.4" cx="583.4" class="st48"/>
   <rect id="svg_55" height="47.7" width="40.9" class="st48" y="431.5" x="718.7"/>
  </g>
 </g>
</svg>