<svg width="400" height="400" xmlns="http://www.w3.org/2000/svg">
 <g>
  
  
 </g>

 <style>}
#arm2{
    
    animation-name: arm2;
    animation-duration: 10s;
    animation-fill-mode: forwards;
    animation-iteration-count: infinite;
    animation-timing-function: linear;
    
    animation-direction: normal;
    transform-origin: 10% 10%;
    transform-box: fill-box;
}
@keyframes arm2 {
    0%{ transform: rotate(30deg);}
    5%{ transform: rotate(-20deg);}

    100%{ transform: rotate(-20deg);}
}
#arm1{
    
    animation-name: arm1;
    animation-duration: 10s;
    animation-iteration-count: infinite;
    animation-timing-function: linear;
    
    animation-direction: normal;
    transform-origin: 10% 0%;
    transform-box: fill-box;
}
@keyframes arm1 {
    0%{ transform: rotate(0deg);}
    5%{ transform: rotate(0deg);}
    10%{ transform: rotate(-45deg);}
    20%{ transform: rotate(-35deg);}
    30%{ transform: rotate(-45deg);}
    40%{ transform: rotate(-35deg);}
    50%{ transform: rotate(-45deg);}
    60%{ transform: rotate(-35deg);}
    70%{ transform: rotate(-45deg);}
    80%{ transform: rotate(-35deg);}

    100%{ transform: rotate(-45deg);}
}
#head{
    
    animation-name: head;
    animation-duration: 10s;
    animation-fill-mode: forwards;
    animation-iteration-count: infinite;
    animation-timing-function: linear;
    
    animation-direction: normal;
    transform-origin: 40% 75%;
    transform-box: fill-box;
}
@keyframes head {
    0%{ transform: rotate(0deg);}
   10%{ transform: rotate(10deg);}

    100%{ transform: rotate(10deg);}
}
#eyes{
    
    animation-name: eyes;
    animation-duration: 10s;
    animation-fill-mode: forwards;
    animation-iteration-count: infinite;
    animation-timing-function: linear;
    
    animation-direction: normal;
    transform-origin:center;
    transform-box: fill-box;
}
@keyframes eyes {
    0%{ transform: rotateX(0deg);}
    10%{ transform: rotateX(0deg);}
    12%{ transform: rotateX(89deg);}
    14%{ transform: rotateX(0deg);}
    20%{ transform: rotateX(0deg);}
    22%{ transform: rotateX(89deg);}
    24%{ transform: rotateX(0deg);}
    60%{ transform: rotateX(0deg);}
    62%{ transform: rotateX(89deg);}
    64%{ transform: rotateX(0deg);}
    70%{ transform: rotateX(0deg);}
    72%{ transform: rotateX(89deg);}
    74%{ transform: rotateX(0deg);}

    100%{ transform: rotateX(-20deg);}
}</style>
 <g>
  <title>Layer 1</title>
  
  <g stroke="null" id="girl">
   <g stroke="null" id="head">
    <path stroke="null" id="svg_1" fill=" #68111e" d="m161.60704,23.03659s20.02724,-21.03363 54.64719,-0.10064s-6.54156,84.13453 18.31637,103.45729s29.58798,-2.41535 29.58798,-2.41535s-1.61023,24.35473 -18.71893,24.25409c0,0 5.53517,1.40895 9.15818,0c0,0 -16.1023,27.57519 -53.1376,14.89463s-80.04857,-118.95576 -39.8532,-140.09003z"/>
    <path stroke="null" id="svg_2" fill=" #341215" d="m220.03827,82.41383s-9.15818,61.79259 31.50013,58.27021c0,0 -6.84348,7.34668 -16.20294,4.42813c0,0 2.21407,3.92494 10.36586,6.03836c0,0 -18.31637,16.40422 -38.8468,3.42174s-46.89796,-34.61995 -48.40755,-72.76228l61.59131,0.60384z"/>
    <path stroke="null" id="svg_3" fill=" #dba77f" d="m218.87086,87.34516l0,0a7.04476,7.04476 0 0 1 -7.54795,-6.54156l-0.60384,-8.35307a7.04476,7.04476 0 0 1 6.54156,-7.54795l0,0a7.04476,7.04476 0 0 1 7.54795,6.54156l0.60384,8.35307a7.04476,7.04476 0 0 1 -6.54156,7.54795z"/>
    <path stroke="null" id="svg_4" fill=" #dba77f" d="m190.79247,122.4683l-1.9524,0a6.74284,6.74284 0 0 1 -6.74284,-6.74284l0,-6.84348a6.74284,6.74284 0 0 1 6.74284,-6.74284l1.91215,0a6.74284,6.74284 0 0 1 6.74284,6.74284l0,6.84348a6.74284,6.74284 0 0 1 -6.70258,6.74284z"/>
    <path stroke="null" id="svg_5" fill=" #eec09b" d="m160.66103,95.95989l-5.73645,-39.65192a26.08573,26.08573 0 0 1 22.04003,-29.48734l11.87545,-1.71087a26.08573,26.08573 0 0 1 29.48734,22.04003l5.13261,35.42507c1.20767,8.05115 -3.42174,32.40588 -21.53683,35.82762c-18.77931,3.66327 -40.25576,-15.15629 -41.26215,-22.44258z"/>
    <path stroke="null" id="svg_6" fill=" #dba77f" d="m201.56088,87.04324s6.6422,4.83069 -1.10703,7.04476c0,0 11.07033,-1.61023 1.10703,-7.04476z"/>
    <path stroke="null" id="svg_7" fill=" #eec9ab" d="m184.2509,92.27649c0.20128,1.71087 -1.91215,3.42174 -4.73005,3.8243s-5.33389,-0.60384 -5.63581,-2.41535s1.91215,-3.42174 4.73005,-3.8243s5.33389,0.70448 5.63581,2.41535z"/>
    <path stroke="null" id="svg_8" fill=" #eec9ab" d="m222.39323,86.90234c0.20128,1.71087 -1.40895,3.42174 -3.72366,3.72366s-4.32749,-0.80512 -4.62941,-2.51598s1.40895,-3.42174 3.72366,-3.72366s4.42813,0.84537 4.62941,2.51598z"/>
    <g stroke="null" id="svg_9">
     <path stroke="null" id="svg_10" fill=" #eec09b" d="m161.80832,96.80526l0,0a7.04476,7.04476 0 0 1 -8.19205,-5.87734l-1.40895,-8.25243a7.04476,7.04476 0 0 1 5.83708,-8.15179l0,0a7.04476,7.04476 0 0 1 8.15179,5.83708l1.40895,8.25243a7.20578,7.20578 0 0 1 -5.79683,8.19205z"/>
     <path stroke="null" id="svg_11" fill=" #dba77f" d="m164.42494,91.16945s0.40256,-12.17737 -5.63581,-12.98248c0,0 3.22046,3.42174 2.41535,6.54156c0,0 -2.11343,0.5032 -1.50959,4.22685s3.92494,3.8243 4.73005,2.21407z"/>
    </g>
    <path stroke="null" id="svg_12" fill=" #68111e" d="m206.95515,67.31792s5.03197,-6.34028 12.7812,-1.00639l0.30192,-3.11982s-7.54795,-5.73645 -13.98888,2.01279l0.90575,2.11343z"/>
    <g stroke="null" id="svg_336">
     <path stroke="null" id="svg_13" fill=" #68111e" d="m238.49554,77.68377l-4.62941,-8.15179c5.73645,16.70614 -3.01918,28.17903 -3.52238,28.78287c0.20128,-0.90575 7.34668,-29.18542 -19.32276,-32.10397c-27.072,-2.91854 -35.32443,-22.84514 -35.32443,-22.84514s-10.26522,12.27801 -5.93772,35.62634c4.32749,22.84514 -6.34028,28.17903 -6.94412,28.48095l0.40256,-0.40256c0.10064,0 0.10064,-0.10064 0.20128,-0.20128s0.20128,-0.30192 0.40256,-0.40256c3.52238,-4.93133 5.53517,-20.02724 0.70448,-27.97775c-5.23325,-8.55435 -11.17097,-0.80512 -11.17097,-0.80512c-12.88184,-37.0353 11.17097,-50.42033 11.17097,-50.42033c7.84987,-15.69974 38.64553,-15.59911 59.17596,2.61662s14.79399,47.80371 14.79399,47.80371z"/>
     <path stroke="null" id="svg_14" fill=" #861728" d="m231.55142,52.42329s-7.1454,-21.43619 -22.54322,-27.97775s-23.65026,-7.44731 -26.46816,-0.90575s13.18376,9.25882 20.12788,10.86905s22.94578,6.139 28.88351,18.01445z"/>
     <path stroke="null" id="svg_15" fill=" #321215" d="m230.34375,98.31485c0.20128,-0.90575 7.34668,-29.18542 -19.32276,-32.10397c-27.072,-2.91854 -35.32443,-22.84514 -35.32443,-22.84514s-10.26522,12.27801 -5.93772,35.62634c4.32749,22.84514 -6.34028,28.17903 -6.94412,28.48095l0.40256,-0.40256l0.20128,-0.20128c0.10064,-0.10064 0.20128,-0.30192 0.40256,-0.40256c2.51598,-3.01918 8.95691,-13.08312 1.50959,-30.3931c-9.15818,-21.03363 11.97609,-40.3564 11.97609,-40.3564s10.96969,20.12788 33.51292,25.36113s26.36752,27.37391 19.52404,37.23657z"/>
    </g>
    <g stroke="null" id="closed-mouth">
     <path stroke="null" id="svg_16" fill=" #fff" d="m207.4986,102.44106s-9.35946,1.91215 -15.19655,0.60384a17.81317,17.81317 0 0 0 15.19655,-0.60384z"/>
    </g>
    <g stroke="null" id="BOCA">
     <path stroke="null" id="svg_17" fill=" #fff" d="m207.4986,101.13275s-9.35946,4.52877 -15.19655,1.40895c0,0 6.94412,8.15179 15.19655,-1.40895z"/>
    </g>
    <g stroke="null" id="CEJAS">
     <path stroke="null" id="svg_18" fill=" #68111e" d="m190.85285,70.63902s-8.65499,-4.32749 -17.00806,3.3211l-1.40895,-2.91854a16.72627,16.72627 0 0 1 18.81957,-2.71726l-0.40256,2.31471z"/>
    </g>
    <g stroke="null" id="eyes">
     <path stroke="null" id="svg_19" fill=" #352311" d="m185.05602,84.02406l0,0a2.10336,2.10336 0 0 1 -2.11343,-2.01279l0,-2.71726a2.10336,2.10336 0 0 1 2.01279,-2.11343l0,0a2.10336,2.10336 0 0 1 2.11343,2.01279l0,2.67701a2.01279,2.01279 0 0 1 -2.01279,2.15368z"/>
     <path stroke="null" id="svg_20" fill=" #352311" d="m213.43633,83.72214l0,0a2.10336,2.10336 0 0 1 -2.11343,-2.01279l0,-2.71726a2.10336,2.10336 0 0 1 2.01279,-2.11343l0,0a2.10336,2.10336 0 0 1 2.11343,2.01279l0,2.71726a2.10336,2.10336 0 0 1 -2.01279,2.11343z"/>
    </g>
    <g stroke="null" id="closed-eyes">
     <path stroke="null" id="svg_21" fill=" #291e10" d="m185.05602,81.40743l0,0c-1.10703,0 -2.11343,-0.20128 -2.11343,-0.60384l0,-0.80512c0,-0.30192 0.90575,-0.60384 2.01279,-0.60384l0,0c1.10703,0 2.11343,0.20128 2.11343,0.60384l0,0.80512c0.10064,0.40256 -0.90575,0.60384 -2.01279,0.60384z"/>
     <path stroke="null" id="svg_22" fill=" #291e10" d="m213.43633,81.30679l0,0c-1.10703,0 -2.11343,-0.20128 -2.11343,-0.60384l0,-0.84537c0,-0.30192 0.90575,-0.60384 2.01279,-0.60384l0,0c1.10703,0 2.11343,0.20128 2.11343,0.60384l0,0.80512c0.10064,0.44281 -0.90575,0.64409 -2.01279,0.64409z"/>
    </g>
    <path stroke="null" id="svg_23" fill=" #eec09b" d="m193.61037,143.66296l-12.68056,-1.49953c-0.40256,0 -0.70448,-0.60384 -0.60384,-1.00639l1.91215,-36.15973a0.80512,0.80512 0 0 1 0.70448,-0.89569l12.68056,1.49953c0.40256,0 0.70448,0.59377 0.60384,1.00639l-1.91215,36.15973a0.81518,0.81518 0 0 1 -0.70448,0.90575l0,-0.01006z"/>
   </g>
   <polygon stroke="null" id="svg_24" fill=" #bea176" points="175.59590911865234,123.37406921386719 181.25183868408203,123.59547424316406 181.0405044555664,127.66130065917969 175.59590911865234,123.37406921386719 "/>
   <polygon stroke="null" id="svg_25" fill=" #bea176" points="195.31116485595703,123.97789764404297 196.22698211669922,123.97789764404297 197.13272857666016,124.58172607421875 198.34041595458984,126.59452056884766 195.17028045654297,126.59452056884766 195.31116485595703,123.97789764404297 "/>
   <g stroke="null" id="arm2">
    <g stroke="null" id="svg_339">
     <path stroke="null" id="svg_26" fill=" #eec09b" d="m193.26819,126.87631c7.33661,3.62302 11.07033,3.65321 13.74734,14.08951s4.36775,29.91003 7.93038,41.88611c9.74189,-2.12349 19.202,-5.58549 28.7728,-8.4839c0.60384,2.40528 1.18754,4.83069 1.77125,7.24604c-10.91937,5.70625 -21.80856,11.07033 -34.10669,12.75101c-8.82607,-16.43441 -22.43252,-48.85036 -18.11509,-67.48878z"/>
     <g stroke="null" id="hand">
      <path stroke="null" id="svg_27" fill=" #dba77f" d="m243.54763,180.37621a21.98971,21.98971 0 0 0 8.13166,0.55352a33.01978,33.01978 0 0 1 6.83341,0c0.40256,-1.89202 -1.78132,-2.21407 -3.3211,-2.49586s-4.23692,-0.77492 -5.49491,-2.15368c-2.07317,1.37876 -4.0759,2.73739 -6.14907,4.09602z"/>
      <path stroke="null" id="svg_28" fill=" #dba77f" d="m251.95102,168.87313a62.01399,62.01399 0 0 1 20.20839,0.7548c-1.07684,1.79138 -2.12349,1.731 -4.56903,1.41902a24.80761,24.80761 0 0 0 -9.32927,0.89569c-2.17381,-1.03659 -4.19666,-2.04298 -6.31009,-3.0695z"/>
      <path stroke="null" id="svg_29" fill=" #dba77f" d="m252.03153,168.90332a31.007,31.007 0 0 1 18.01445,4.62941c-1.26806,1.16742 -1.25799,1.31838 -3.6834,0.45288s-8.33294,-2.46567 -11.9157,-0.84537c-0.19121,0.07045 -4.02558,-2.7072 -2.41535,-4.23692z"/>
      <path stroke="null" id="svg_30" fill=" #eec09b" d="m237.73068,177.05511c4.13628,-3.40161 8.70531,-8.68518 14.69335,-7.77942s9.87272,3.27078 12.88184,8.72544c-2.14362,0.41262 -3.78404,-1.56997 -5.03197,-3.01918c-2.46567,-2.35496 -6.03836,-1.5901 -8.94684,-0.79505c-1.71087,3.20033 -4.44826,5.03197 -7.79955,6.17926c-2.35496,-0.33211 -4.55896,-1.04665 -5.79683,-3.31104z"/>
     </g>
     <path stroke="null" id="svg_31" fill=" #17120e" d="m200.19218,130.10683c9.33934,1.75113 10.06394,20.77197 10.5772,25.85426s1.49953,22.14067 5.29363,25.04914c0.74473,-0.82524 1.8417,-1.34857 2.4556,-0.34217c2.06311,-2.25432 4.36775,-2.38515 6.95418,-0.95607q1.79138,5.03197 3.58276,10.12432c-5.39427,3.38148 -11.07033,5.94779 -17.50119,4.64954a247.74399,247.74399 0 0 1 -10.63758,-22.5231c-0.94601,-13.6467 -0.28179,-28.4105 -0.67428,-41.85592l-0.05032,0z"/>
     <path stroke="null" id="svg_32" fill=" #291e10" d="m225.07024,179.49058c2.74746,-0.68435 5.47478,-1.42908 8.20211,-2.19394q1.31838,4.61935 2.7072,9.2085c-2.44554,1.12716 -4.87095,2.27445 -7.34668,3.33116c-1.21774,-3.44187 -2.4556,-6.87367 -3.56263,-10.34573z"/>
     <g stroke="null" id="phone-2">
      <g stroke="null" id="svg_347">
       <path stroke="null" fill=" #3d3d3d" d="m237.91183,193.10709a6.03836,6.03836 0 0 1 -1.30831,-1.37876c-2.10336,-3.37142 -2.71726,-6.54156 0.74473,-9.76202c7.69891,-7.18565 16.83697,-15.56891 24.76735,-22.51303c3.56263,-3.11982 6.60194,-1.9524 9.74189,0.41262a6.5013,6.5013 0 0 1 1.29825,1.42908c2.01279,3.37142 2.80784,6.55162 -0.65416,9.77208c-7.67879,7.1454 -16.84703,15.45821 -24.77742,22.28156c-3.61295,3.10976 -6.55162,2.06311 -9.81234,-0.24153z" id="svg_348"/>
       <path stroke="null" fill=" #17120e" d="m235.5468,190.68168a5.87734,5.87734 0 0 1 -1.29825,-1.38882c-2.01279,-3.39155 -2.68707,-6.55162 0.76486,-9.79221c7.66872,-7.20578 16.83697,-15.59911 24.74723,-22.55329c3.56263,-3.12989 6.60194,-1.96247 9.74189,0.40256a6.54156,6.54156 0 0 1 1.30831,1.42908c2.01279,3.37142 2.80784,6.55162 -0.65416,9.76202c-7.71904,7.15546 -16.90742,15.42802 -24.80761,22.36207c-3.55257,3.10976 -6.59188,2.06311 -9.80228,-0.22141z" id="svg_349"/>
      </g>
      <path stroke="null" fill=" #fff" d="m234.77188,182.07701c9.56074,-8.9871 19.0611,-18.01445 28.64197,-26.96129l8.81601,9.54061q-14.34111,13.37498 -28.65203,26.77008q-4.41807,-4.6596 -8.80595,-9.3494z" id="svg_350"/>
      <path stroke="null" fill=" #9dd87d" d="m254.18522,177.90048c-0.89569,-0.87556 -2.16375,-2.3449 -2.9588,-3.3211a1.85176,1.85176 0 0 1 0.12077,-2.63675a2.72733,2.72733 0 0 1 0.40256,-0.3623a1.79138,1.79138 0 0 1 2.60656,0.18115c0.85543,0.93595 2.14362,2.35496 2.9588,3.3211a1.83164,1.83164 0 0 1 -0.13083,2.63675a1.93228,1.93228 0 0 1 -0.39249,0.3623a1.8417,1.8417 0 0 1 -2.60656,-0.18115z" id="svg_351"/>
      <path stroke="null" fill=" #7fc5d6" d="m259.88141,167.54469c-0.8655,-0.91582 -2.22413,-2.39522 -3.01918,-3.37142a1.81151,1.81151 0 0 1 0.12077,-2.62669a1.88196,1.88196 0 0 1 0.39249,-0.3623a1.79138,1.79138 0 0 1 2.61662,0.20128c0.87556,0.93595 2.22413,2.40528 3.01918,3.38148a1.82157,1.82157 0 0 1 -0.12077,2.63675a2.19394,2.19394 0 0 1 -0.40256,0.35224a1.85176,1.85176 0 0 1 -2.60656,-0.21134z" id="svg_352"/>
      <path stroke="null" fill=" #7fc5d6" d="m243.89987,182.50976c-0.90575,-0.87556 -2.22413,-2.36503 -3.01918,-3.35129a1.82157,1.82157 0 0 1 0.1409,-2.62669a2.14362,2.14362 0 0 1 0.39249,-0.35224a1.80145,1.80145 0 0 1 2.61662,0.18115c0.8655,0.93595 2.204,2.37509 3.01918,3.35129a1.80145,1.80145 0 0 1 -0.13083,2.61662a2.26439,2.26439 0 0 1 -0.40256,0.3623a1.85176,1.85176 0 0 1 -2.61662,-0.18115z" id="svg_353"/>
     </g>
    </g>
   </g>
   <g stroke="null" id="CUERPO">
    <g stroke="null" id="svg_354">
     <polygon stroke="null" id="svg_33" fill=" #eec09b" points="167.4441146850586,219.1827621459961 185.45858001708984,233.97676849365234 169.35628509521484,290.63672637939453 152.04630279541016,355.6497573852539 143.49195098876953,356.5555191040039 155.36737823486328,287.01367950439453 167.4441146850586,219.1827621459961 "/>
     <path stroke="null" id="svg_34" fill=" #eec09b" d="m214.1408,220.49107s-3.92494,37.63913 -9.86266,69.84374l-6.84348,65.81816l-6.6422,0.30192s-5.83708,-49.61522 2.21407,-66.12008l-0.10064,-57.06253l21.23491,-12.7812z"/>
     <path stroke="null" id="svg_35" fill=" #eec09b" d="m125.57814,375.87829l16.80678,0c3.22046,-8.25243 12.07673,-14.89463 12.07673,-14.89463l-2.51598,-5.43453l-0.90575,-2.11343c-2.51598,-3.3211 -6.23964,0 -6.23964,0c-1.30831,4.93133 -7.74923,11.87545 -12.88184,16.70614c-3.52238,3.3211 -6.34028,5.73645 -6.34028,5.73645z"/>
     <path stroke="null" id="svg_36" fill=" #261d15" d="m154.46165,360.98366s-3.3211,7.74923 -3.3211,14.79399l-1.61023,0s0.40256,-9.4601 -1.10703,-9.25882a23.79115,23.79115 0 0 1 6.03836,-5.53517z"/>
     <path stroke="null" id="svg_37" fill=" #483729" d="m125.57814,375.87829l16.80678,0c3.22046,-8.25243 12.07673,-14.89463 12.07673,-14.89463l-2.51598,-5.43453l-12.7812,14.59271l-7.24604,0c-3.52238,3.3211 -6.34028,5.73645 -6.34028,5.73645z"/>
     <path stroke="null" id="svg_38" fill=" #eec09b" d="m216.25423,375.87829l-16.80678,0c-3.22046,-8.25243 -12.07673,-14.89463 -12.07673,-14.89463l2.51598,-5.43453l0.90575,-2.11343c2.51598,-3.3211 6.23964,0 6.23964,0c1.30831,4.93133 7.74923,11.87545 12.88184,16.70614c3.52238,3.3211 6.34028,5.73645 6.34028,5.73645z"/>
     <path stroke="null" id="svg_39" fill=" #261d15" d="m187.37073,360.98366s3.3211,7.74923 3.3211,14.79399l1.61023,0s-0.40256,-9.4601 1.10703,-9.25882a23.79115,23.79115 0 0 0 -6.03836,-5.53517z"/>
     <path stroke="null" id="svg_40" fill=" #483729" d="m216.25423,375.87829l-16.80678,0c-3.22046,-8.25243 -12.07673,-14.89463 -12.07673,-14.89463l2.51598,-5.43453l12.7812,14.59271l7.24604,0c3.52238,3.3211 6.34028,5.73645 6.34028,5.73645z"/>
     <path stroke="null" id="svg_41" fill=" #191c19" d="m170.06075,201.26895s-9.76202,59.67916 -26.5688,150.05333l10.96969,0.70448l35.38481,-117.94937l2.31471,53.84207s-7.1454,13.58632 -2.31471,63.6041l9.4601,0.5032l14.69335,-131.43504s2.71726,-12.57992 -2.8179,-19.32276c0,0 -25.56241,5.33389 -41.16151,0l0.04026,0z"/>
     <path stroke="null" id="svg_42" fill=" #292e2a" d="m146.91369,346.55197l21.79849,-119.11678a1.61023,1.61023 0 0 1 1.50959,-1.30831l0.70448,0a1.54985,1.54985 0 0 1 1.50959,1.91215l-22.44258,119.15704a1.61023,1.61023 0 0 1 -1.50959,1.30831l0,0a1.65049,1.65049 0 0 1 -1.61023,-1.91215l0.04026,-0.04026z"/>
     <path stroke="null" id="svg_43" fill=" #292e2a" d="m211.42354,226.02624l-6.6422,60.38363l-6.6422,61.99386l3.52238,-61.18875c0.20128,0 4.32749,-57.36445 9.76202,-61.18875z"/>
    </g>
    <path stroke="null" id="svg_44" fill=" #eec09b" d="m179.62149,127.90283l-3.42174,0.80512s2.8179,22.54322 17.71253,22.54322c14.59271,0 8.95691,-13.7876 1.81151,-22.84514l-1.91215,-0.30192l-14.19015,-0.20128z"/>
    <path stroke="null" id="svg_45" fill=" #bea176" d="m188.17584,133.19646l3.11982,10.06394l1.40895,-10.36586l5.73645,-3.92494s5.93772,0.20128 9.56074,4.12622c0,0 8.35307,18.71893 5.03197,28.68223s-6.6422,23.54962 -0.80512,38.8468s7.54795,20.83235 7.54795,20.83235a108.93208,108.93208 0 0 1 -22.34194,4.62941l-3.92494,-9.9633l-4.32749,9.9633s-16.50486,-0.10064 -25.86432,-5.53517c0,0 10.36586,-23.34834 8.25243,-37.94105s-13.88824,-35.52571 -7.44731,-53.6408c0,0 10.06394,0.30192 14.08951,-1.00639l9.9633,5.23325z"/>
    <path stroke="null" id="svg_46" fill=" #e3ccaa" d="m191.79886,146.52112a15.81045,15.81045 0 0 1 1.40895,2.51598a25.44164,25.44164 0 0 1 2.11343,7.1454a25.76368,25.76368 0 0 1 0.40256,4.93133a26.34739,26.34739 0 0 1 -0.5032,5.53517c-0.30192,1.91215 -0.80512,3.8243 -1.00639,5.83708s-0.40256,4.02558 -0.60384,6.03836c-0.30192,4.02558 -0.40256,8.15179 -0.40256,11.97609s0,7.34668 0.10064,10.4665s0.10064,5.63581 0.20128,7.44731s0.10064,2.8179 0.10064,2.8179s-0.40256,-4.02558 -0.70448,-10.16458c-0.10064,-3.01918 -0.30192,-6.6422 -0.30192,-10.4665s0,-7.95051 0.30192,-11.97609c0.10064,-2.01279 0.30192,-4.12622 0.60384,-6.139s0.70448,-3.92494 1.00639,-5.83708s0.5032,-3.72366 0.60384,-5.43453a25.97503,25.97503 0 0 0 -0.30192,-4.93133a29.18542,29.18542 0 0 0 -1.81151,-7.1454a12.83152,12.83152 0 0 0 -1.20767,-2.61662z"/>
    <polygon stroke="null" id="svg_47" fill=" #e3ccaa" points="176.3003921508789,123.97789764404297 188.17583465576172,133.23670959472656 183.44579315185547,139.5770034790039 174.79080963134766,127.90283966064453 176.3003921508789,123.97789764404297 "/>
    <polygon stroke="null" id="svg_48" fill=" #e3ccaa" points="196.22698211669922,123.97789764404297 192.70459747314453,132.93480682373047 196.22698211669922,138.87252807617188 198.74297332763672,127.90283966064453 196.22698211669922,123.97789764404297 "/>
    <g stroke="null" id="svg_357">
     <path stroke="null" id="svg_49" fill=" #43311b" d="m168.1486,192.41268l0,4.93133a30.74533,30.74533 0 0 0 20.02724,1.50959l-0.10064,-6.44092s-14.33105,1.91215 -19.9266,0z"/>
     <path stroke="null" id="svg_50" fill=" #43311b" d="m202.66791,191.40629l-0.5032,5.73645s5.53517,0.10064 9.35946,-3.3211l-0.10064,-6.44092l-8.75563,4.02558z"/>
     <path stroke="null" id="svg_51" fill=" #291e10" d="m198.0385,127.50027s7.34668,35.62634 4.52877,65.4156c0,0 6.6422,0.20128 9.76202,-4.12622c0,0 -4.02558,-14.69335 0,-24.35473s-0.60384,-26.36752 -4.93133,-32.90908a11.16091,11.16091 0 0 0 -9.35946,-4.02558z"/>
     <path stroke="null" id="svg_52" fill=" #43311b" d="m174.75055,126.49388l0.80512,-3.11982s15.19655,9.05755 12.37865,52.43312c0.1409,0 -1.67061,-36.23018 -13.18376,-49.3133z"/>
     <path stroke="null" id="svg_53" fill=" #43311b" d="m198.0385,127.50027s5.33389,32.80844 5.13261,46.39476c0,0 1.61023,-19.32276 -2.51598,-46.19348c0,0 -0.70448,-2.91854 -3.01918,-3.11982l-0.5032,0l1.20767,2.01279l-0.30192,0.90575z"/>
     <path stroke="null" fill=" #291e10" d="m174.75055,126.49388c-9.05755,-0.10064 -14.19015,1.30831 -16.40422,2.11343l-1.71087,0.66422l-0.46294,0.18115c-0.05032,0.22141 -0.10064,0.44281 -0.1409,0.69441a7.87,7.87 0 0 0 0,2.48579q2.66694,7.73917 5.33389,15.49847l0.30192,1.91215l0.20128,-0.20128c6.44092,16.00166 4.42813,42.77174 4.42813,42.77174c10.06394,4.62941 21.73811,1.81151 21.73811,1.81151l-13.2844,-67.93159z" id="svg_358"/>
    </g>
   </g>
   <g stroke="null" id="arm1">
    <g stroke="null" id="svg_359">
     <path stroke="null" fill=" #eec09b" d="m201.79235,217.1901l0.58371,-8.45371l-14.96508,-4.23692l-3.72366,8.11153l18.11509,4.57909l-0.01006,0z" id="svg_360"/>
     <path stroke="null" fill=" #291e10" d="m176.3809,210.5479c2.39522,0.66422 4.88101,1.29825 7.37687,1.93228l3.72366,-8.10147l-8.70531,-2.50592l-2.39522,8.67512z" id="svg_361"/>
     <path stroke="null" id="svg_54" fill=" #eec09b" d="m216.0127,208.67601s6.03836,4.02558 7.78949,8.74556c0,0 -2.54618,1.68068 -4.53884,-0.46294c0,0 -0.85543,2.44554 -4.10609,-0.06038s-13.01267,2.10336 -12.86171,0.80512l3.22046,-5.85721l10.49669,-3.17014z"/>
     <g stroke="null" id="svg_365">
      <path stroke="null" fill=" #eec09b" d="m216.41525,206.2204c-4.21679,-0.44281 -13.50581,1.8417 -14.95501,2.26439c-0.10064,0 -0.29185,0.08051 -0.3623,0.21134l-5.45465,6.03836a0.71454,0.71454 0 0 0 0.21134,1.09697c0.35224,0.1107 0.7246,0.31198 1.19761,0.49313l0,0l5.18293,1.63036a1.37876,1.37876 0 0 0 0.6139,-0.07045l2.13356,-1.67061c0.10064,0 0.07045,-0.13083 0.16102,-0.15096c0.21134,-0.38243 1.23786,-1.51965 1.44921,-1.89202l0.13083,-0.2516c0.92588,-0.79505 6.97431,-5.58549 11.53327,-1.78132c3.462,2.86822 5.57542,2.5663 6.61201,2.16375a0.63403,0.63403 0 0 0 0.23147,-1.00639c-1.00639,-1.79138 -4.88101,-6.65226 -8.68518,-7.12527l0,0.05032z" id="svg_366"/>
     </g>
    </g>
    <path stroke="null" id="svg_55" fill=" #291e10" d="m155.56868,137.47364c0.13083,0.92588 0.24153,1.8417 0.3623,2.76758c0,0.12077 0,0 0.63403,4.6898c0,0.07045 8.05115,60.38363 8.22224,61.39003c0.74473,0.22141 1.80145,0.51326 3.08963,0.82524a7.5077,7.5077 0 0 0 2.41535,0.41262c2.14362,-0.59377 2.73739,-4.86088 2.87829,-5.89747a13.52593,13.52593 0 0 0 0.13083,-1.93228c0,-0.46294 -0.05032,-0.93595 -0.08051,-1.40895a353.41535,353.41535 0 0 0 -10.18471,-66.30123a7.87,7.87 0 0 0 -1.96247,-1.26806a7.18565,7.18565 0 0 0 -1.80145,-0.52332a7.85994,7.85994 0 0 0 -1.58004,-0.06038a3.27078,3.27078 0 0 0 -1.80145,0.40256c-0.34217,0.26166 -0.56358,0.71454 -0.6139,2.4556a24.52582,24.52582 0 0 0 0.29185,4.44826z"/>
    <polyline stroke="null" id="svg_56" fill=" #291e10" points="178.92707061767578,201.9834976196289 167.57494354248047,198.5617446899414 164.99857330322266,206.2103500366211 176.52179718017578,210.64855194091797 "/>
   </g>
  </g>
  <path id="svg_57" fill=" #291e10" d="m359.64,164.17"/>
 </g>
</svg>