<svg width="400" height="400" xmlns="http://www.w3.org/2000/svg" class="animated  bounceIn faster delay--0s">
 <g>
  <title>background</title>
 </g>

 <g>
  <title>Title1</title>
 </g>
 <g>
  <g id="sty_anime">
   <style>@charset "UTF-8";

/*!
 *

  
}

.s
}

@-webkit-keyframes headShake {
  0% {
   

  30% {
    
}

@

  
}


   
  from {
    opacity: 1;
  }

  to {
    opacity: 0;
   
  f

/*
  }
}</style>
  </g>
  <title>Title1</title>
 </g>
 <metadata id="metadata804">image/svg+xml</metadata>
 <style type="text/css">.st0{fill:#82BFB2;}
	.st1{fill:#FFFFFF;}
	.st2{font-family:'FranklinGothic-DemiCond';}
	.st3{font-size:70px;}
	.st4{fill:#E89986;}
	.st5{fill:#F7B8A6;}
	.st6{opacity:0.39;fill:#E89986;}
	.st7{fill:#3E362E;}
	.st8{fill:#E7927A;}
	.st9{fill:#4C443C;}
	.st10{fill:#7F0F0E;}
	.st11{display:none;}
	.st12{display:inline;fill:#F7B8A6;}
	.st13{display:inline;fill:#F2DE93;}
	.st14{fill:#F2DE93;}
	.st15{fill:#E4CA74;}
	.st16{display:inline;fill:#E4CA74;}
	.st17{fill:#645F55;}
	.st18{fill:#B7D18C;}
	.st19{fill:#F3F6E8;}
	.st20{fill:#8EAA6E;}
	.st21{fill:#E8DEC8;}
	.st22{fill:#B2CB88;}
	.st23{fill:#90AB6E;}
	.st24{fill:#8FAB6E;}
	.st25{fill:#90AB6F;}
	.st26{fill:#BBDC91;}
	.st27{fill:#8FAA6E;}
   #
   #money10 {
   animation : show9 linear 8s ;
   transform-origin :  0% 25%
   }
   @keyframes show9{
   0%,20%{
   visibility : hidden
   }
   25%,40%{
      visibility : visible;
      transform : scale(1)
   }
   50%,80%{
     visibility : visible; 
   }
   85%,100%{
   visibility : hidden
   }
   }
   #money9{
   animation : odd 8s linear ;
   }
   @keyframes odd{
   0%,20%{
   visibility : hidden
   }
   30%,100%{
   visibility : visible
   }
   }
   #ellipse36{
     visibility : hidden
   }
   #moving_x5F_face{
    animation : look 8s ease-in-out ;}
    @keyframes look{
   0%,20%{
   transform : translateX(0)
   }
   30%,75%{
   transform : translateX(-10px)
   }
   80%,100%{
    transform : translateX(8px)
   }
   }
   /*#path32 ,#path34{
   animation : stare 8s ease-in-out infinite;
    transform-origin: 0% 30%;
   }
   @keyframes stare{
   0%,37%{
   transform: scaleY(1)
   }
   38%,40%{
   transform: scaleY(.2)
   }
   50%,67%{
   transform: scaleY(1)
   }
   68%,70%{
   transform: scaleY(.2)
   }
   71%,85%{
   transform: scaleY(1)
   }
   86%,88%{
   transform: scaleY(.2)
   }
   92%,100%{
    transform: scaleY(1)
   }
   }
   #path45 ,#path55{
   display : none
   }*/
   #
   }
   }</style>
 <g>
  <title>Layer 1</title>
  <g id="Layer_1">
   <g id="g103">
    <g id="face">
     <polygon class="st4" points="180.0164337158203,118.59060668945312 180.0164337158203,142.89060974121094 201.81642150878906,142.89060974121094 201.81642150878906,116.69061279296875 " id="polygon12" fill="#e89986"/>
     <ellipse class="st5" cx="189.41641" cy="76.3906" rx="43" ry="50.5" id="ellipse14" fill="#f7b8a6"/>
     <ellipse class="st5" cx="144.01642" cy="78.99059" rx="9.9" ry="15.1" id="ellipse16" fill="#f7b8a6"/>
     <ellipse class="st5" cx="234.91641" cy="78.99059" rx="9.9" ry="15.1" id="ellipse18" fill="#f7b8a6"/>
     <path class="st6" d="m171.11642,122.0906c38.1,18.2 61.3,-17.8 61.3,-45.7c0,-27.9 12.6,-41.6 -11.2,-41.6c13.2,25.4 9.6,54.8 -7.7,72c-16.1,16.1 -37.9,15.5 -42.4,15.3z" id="path20" fill="#e89986" opacity="0.39"/>
     <ellipse class="st6" cx="234.91641" cy="78.99059" rx="9.9" ry="15.1" id="ellipse22" fill="#e89986" opacity="0.39"/>
     <path class="st7" d="m244.11642,34.9906c-7.8,-14.8 -17.4,-9.8 -17.4,-9.8c0,0 -2.7,-3.8 -7.7,-7.7c-4.8,-8.5 -16.2,-14.5 -29.5,-14.5c-14.3,0 -26.4,6.9 -30.4,16.4c-3.5,3.2 -5.4,5.8 -5.4,5.8c0,0 -9.6,-5 -17.4,9.8c-7.8,14.8 6.9,35.2 6.9,35.2l4,15.9l7.8,0l0,-22c10.6,-5.5 10.6,-19.4 10.5,-22.3c5.8,4.9 14.4,8 24,8c6.4,0 12.4,-1.4 17.5,-3.8c0,0 0,0 0,0c2.6,-1 5.5,-2.6 7.9,-4.7c0,0 -1.4,16.8 10.4,22.9l0,22l7.8,0l4,-15.9c0.1,-0.2 14.8,-20.5 7,-35.3z" id="path24" fill="#3e362e"/>
     <g id="moving_x5F_face">
      <polygon class="st8" points="189.21644592285156,59.79059600830078 183.21644592285156,89.89060974121094 195.5164337158203,89.39060974121094 " id="polygon26" fill="#e7927a"/>
      <g id="g30">
       <path class="st8" d="m203.91642,104.2906c-1.4,2 -3.4,3.6 -5.7,4.7c-2.2,1.1 -4.8,1.8 -7.3,1.8c-2.6,0 -5.2,-0.5 -7.4,-1.7c-2.3,-1.2 -4.2,-2.8 -5.5,-4.9c2.2,1.2 4.2,2.1 6.4,2.7c2.1,0.6 4.3,0.9 6.5,0.9c2.2,0 4.4,-0.4 6.5,-1c2.1,-0.6 4.3,-1.5 6.5,-2.5z" id="path28" fill="#e7927a"/>
      </g>
      <path class="st9" d="m197.01642,60.6906c0,3.9 1.8,7.1 4,7.1c2.2,0 4.1,-3.1 4.1,-7c0,-3.9 -1.8,-7.1 -4,-7.1c-2.3,0 -4.1,3.1 -4.1,7z" id="path32" fill="#4c443c"/>
      <path class="st9" d="m177.91642,60.6906c0,3.9 1.8,7.1 4,7.1c2.2,0 4.1,-3.1 4.1,-7c0,-3.9 -1.8,-7.1 -4,-7.1c-2.3,0 -4.1,3.1 -4.1,7z" id="path34" fill="#4c443c"/>
      <ellipse class="st10" cx="190.91641" cy="108.69061" rx="10.9" ry="4.4" id="ellipse36" fill="#7f0f0e"/>
      <path id="path2409" d="m197.01642,60.7356c0,0.39 1.8,0.71 4,0.71c2.2,0 4.1,-0.31 4.1,-0.7c0,-0.39 -1.8,-0.71 -4,-0.71c-2.3,0 -4.1,0.31 -4.1,0.7z" class="st9" stroke-width="0.31623" fill="#4c443c"/>
      <path id="path2411" d="m177.91642,60.7356c0,0.39 1.8,0.71 4,0.71c2.2,0 4.1,-0.31 4.1,-0.7c0,-0.39 -1.8,-0.71 -4,-0.71c-2.3,0 -4.1,0.31 -4.1,0.7z" class="st9" stroke-width="0.31623" fill="#4c443c"/>
     </g>
    </g>
    <g id="right_x5F_arm" class="st11" display="none">
     <path class="st12" d="m43.21642,242.9906c0,0 -13.8,28.4 -17.8,24.3c-4,-4.1 8.4,-18.7 8.4,-18.7c0,0 -12.8,14 -16.1,10.7c-3.3,-3.3 13.7,-17.4 13.7,-17.4c0,0 -18.9,14.5 -20.2,10.8c-1.3,-3.7 16.6,-16.8 16.6,-16.8c0,0 -9.9,-2.2 -11.2,-5.4c-1.4,-3.2 16.2,-1.6 17.5,-0.3c1.3,1.3 5.8,-8 5.8,-8l12.8,12.9l-9.5,7.9z" id="path40" fill="#f7b8a6"/>
     <polygon class="st13" points="126.81642150878906,114.09060668945312 36.01641082763672,219.19061279296875 50.71642303466797,246.59060668945312 142.71641540527344,132.19061279296875 " id="polygon42" fill="#f2de93"/>
    </g>
    <g id="right_x5F_arm1">
     <path d="m181.28836,146.90825l-32.67895,-4.90816c-35.75858,40.32718 -77.23614,121.46125 7.80701,125.59051l-4.1,-33.3c-61.06238,8.27331 26.41109,-83.12324 28.97194,-87.38235z" id="polygon47" fill="#f2de93"/>
    </g>
    <g id="right_x5F_arm2" class="st11" display="none">
     <path class="st12" d="m67.21642,321.9906c0,0 -13.8,28.4 -17.8,24.3c-4,-4.1 8.4,-18.7 8.4,-18.7c0,0 -12.8,14 -16.1,10.7c-3.3,-3.3 13.7,-17.4 13.7,-17.4c0,0 -18.9,14.5 -20.2,10.8c-1.3,-3.7 16.6,-16.8 16.6,-16.8c0,0 -9.9,-2.2 -11.2,-5.4c-1.4,-3.2 16.2,-1.6 17.5,-0.3c1.3,1.3 5.8,-8 5.8,-8l12.8,12.9l-9.5,7.9z" id="path50" fill="#f7b8a6"/>
     <polygon class="st13" points="150.81642150878906,193.09060668945312 60.01641082763672,298.19061279296875 74.7164535522461,325.5906066894531 166.71641540527344,211.19061279296875 " id="polygon52" fill="#f2de93"/>
    </g>
    <g id="left_x5F_arm">
     <path d="m225.81642,170.6906l5.94085,-26.5507c78.59462,67.76027 47.33814,127.51798 -5.14085,127.2507l4.4,-34.69859c36.79972,11.80687 35.0279,-22.43875 -5.2,-66.00141z" id="polygon57" fill="#e4ca74"/>
    </g>
    <g id="left_x5F_arm1" class="st11" display="none">
     <path class="st12" d="m341.31642,242.4906c0,0 13.8,28.4 17.8,24.3c4,-4.1 -8.4,-18.7 -8.4,-18.7c0,0 12.8,14 16.1,10.7c3.3,-3.3 -13.7,-17.4 -13.7,-17.4c0,0 18.9,14.5 20.2,10.8c1.3,-3.7 -16.6,-16.8 -16.6,-16.8c0,0 9.9,-2.2 11.2,-5.4c1.3,-3.2 -16.2,-1.6 -17.5,-0.3c-1.3,1.3 -5.8,-8 -5.8,-8l-12.8,12.9l9.5,7.9z" id="path60" fill="#f7b8a6"/>
     <polygon class="st16" points="257.616455078125,113.59060668945312 348.5164489746094,218.69061279296875 333.81640625,246.09060668945312 241.81643676757812,131.69061279296875 " id="polygon62" fill="#e4ca74"/>
    </g>
    <polygon class="st17" points="156.41639709472656,267.5906066894531 141.81642150878906,413.69061279296875 174.1164093017578,413.69061279296875 190.1164093017578,316.9906005859375 197.1164093017578,317.9906005859375 207.91639709472656,413.69061279296875 239.91639709472656,413.69061279296875 230.71641540527344,276.8905944824219 " id="polygon65" fill="#645f55"/>
    <g id="g101">
     <path class="st14" d="m152.11642,234.6906c2.6,0 5.2,-0.5 7.7,-1.6c20.9,-9.3 37.9,-22.8 50,-42.4c9,-14.6 13,-31.2 14.4,-48c-3.8,-0.7 -8.2,-1.5 -13.2,-2.1l0.6,0.8l-12.6,6l-3.6,-8.2c-3.2,-0.2 -6.4,-0.2 -9.8,-0.3l-2.9,6.6l-12.6,-6c-6.3,0.5 -12.7,1.3 -19.3,2.5l0,60.9l2.7,70c0,0 36.7,3.3 57.9,3.9c-21.2,-0.6 -57.9,-3.9 -57.9,-3.9l-1.4,-38.2z" id="path67" fill="#f2de93"/>
     <path class="st14" d="m216.81642,276.8906c-0.6,0 -1.3,0 -2,0c0.7,0 1.4,0 2,0z" id="path69" fill="#f2de93"/>
     <polygon class="st15" points="234.61643981933594,180.39060974121094 234.61643981933594,180.2906036376953 " id="polygon71" fill="#e4ca74"/>
     <polygon class="st15" id="polygon73" fill="#e4ca74"/>
     <path class="st15" d="m217.81642,276.8906c-0.3,0 -0.6,0 -1,0c0.3,0 0.6,0 1,0z" id="path75" fill="#e4ca74"/>
     <path class="st15" d="m212.61642,276.7906c-0.4,0 -0.8,0 -1.2,0c0.5,0 0.9,0 1.2,0z" id="path77" fill="#e4ca74"/>
     <path class="st15" d="m214.81642,276.8906c-0.7,0 -1.4,0 -2.2,0c0.8,0 1.5,0 2.2,0z" id="path79" fill="#e4ca74"/>
     <path class="st15" d="m231.01642,219.7906c-1,11.5 -2,22.7 -2.8,32c0,0 0,0 0,0c0.8,-9.3 1.8,-20.4 2.8,-32z" id="path81" fill="#e4ca74"/>
     <path class="st15" d="m226.61642,271.3906c0,0 0,0 0,0c-0.1,1.3 -0.2,2.4 -0.2,3.1l0,0c0,-0.7 0.1,-1.7 0.2,-3.1z" id="path83" fill="#e4ca74"/>
     <path class="st15" d="m222.31642,276.7906c0.8,0 1.5,-0.1 2.1,-0.2c-0.6,0.1 -1.3,0.2 -2.1,0.2z" id="path85" fill="#e4ca74"/>
     <path class="st15" d="m225.21642,276.4906c-0.2,0.1 -0.5,0.1 -0.8,0.1c0.3,0 0.5,-0.1 0.8,-0.1z" id="path87" fill="#e4ca74"/>
     <path class="st15" d="m226.31642,275.8906c0,-0.2 0,-0.6 0.1,-1.3l0,0c-0.1,0.7 -0.1,1.1 -0.1,1.3c0,0.3 -0.4,0.5 -1.1,0.6l0,0c0.7,-0.2 1.1,-0.4 1.1,-0.6z" id="path89" fill="#e4ca74"/>
     <path class="st15" d="m234.61642,144.9906c-0.1,0 -0.2,0 -0.2,-0.1c-0.1,0 -0.3,-0.1 -0.5,-0.1c-0.1,0 -0.2,0 -0.3,-0.1c-0.1,0 -0.2,-0.1 -0.3,-0.1c-0.1,0 -0.2,0 -0.3,-0.1c-0.2,0 -0.3,-0.1 -0.5,-0.1c-0.1,0 -0.2,-0.1 -0.3,-0.1c-0.1,0 -0.3,-0.1 -0.4,-0.1c-0.1,0 -0.2,0 -0.3,-0.1c-0.1,0 -0.3,-0.1 -0.4,-0.1c-0.1,0 -0.2,-0.1 -0.3,-0.1c-0.2,-0.1 -0.4,-0.1 -0.7,-0.2c-0.1,0 -0.2,-0.1 -0.3,-0.1c-0.1,0 -0.3,-0.1 -0.4,-0.1c-0.1,0 -0.3,-0.1 -0.4,-0.1c-0.2,-0.1 -0.5,-0.1 -0.7,-0.2c-0.1,0 -0.3,-0.1 -0.4,-0.1c-0.2,0 -0.3,-0.1 -0.5,-0.1c-0.1,0 -0.3,-0.1 -0.4,-0.1c-0.2,-0.1 -0.5,-0.1 -0.7,-0.2c-0.2,0 -0.3,-0.1 -0.5,-0.1c-0.2,0 -0.3,-0.1 -0.5,-0.1c-0.2,0 -0.3,-0.1 -0.5,-0.1c-0.1,0 -0.3,-0.1 -0.4,-0.1c0,0 0,0 0,0c-1.5,16.9 -5.4,33.5 -14.4,48c-12.1,19.6 -29.2,33.1 -50,42.4c-2.5,1.1 -5.1,1.6 -7.7,1.6l1.5,38.2c0,0 36.7,3.3 57.9,3.9c0.4,0 0.8,0 1.2,0c0.7,0 1.5,0 2.2,0c0.7,0 1.4,0 2,0c0.3,0 0.6,0 1,0c0.6,0 1.2,0 1.8,0c0,0 0,0 0.1,0c0.5,0 1,0 1.4,0c0.2,0 0.4,0 0.6,0c0.2,0 0.5,0 0.7,0c1.2,-0.1 7.7,-0.2 8.4,-0.3c0,0 -0.4,-48.3 0.8,-61.6c0.1,-1.3 0.2,-2.6 0.4,-4c0.9,-10.6 1.9,-21.1 2.7,-30.6l0.1,0l-0.5,-34.9c0,0 0,0 0,0z" id="path91" fill="#e4ca74"/>
     <path class="st15" d="m188.31642,132.6906l-9.4,-6.2l-8.8,13l0,0c5.3,-0.4 10.5,-0.6 15.5,-0.6l2.7,-6.2z" id="path93" fill="#e4ca74"/>
     <path class="st15" d="m185.61642,138.9906c-5,0 -10.1,0.2 -15.5,0.6l12.6,6l2.9,-6.6z" id="path95" fill="#e4ca74"/>
     <path class="st15" d="m202.81642,128.3906l-9.4,6.2l2,4.6c5.6,0.3 10.9,0.8 15.6,1.3l-8.2,-12.1z" id="path97" fill="#e4ca74"/>
     <path class="st15" d="m211.61642,141.3906l-0.6,-0.8c-4.7,-0.6 -10,-1.1 -15.6,-1.3l3.6,8.2l12.6,-6.1z" id="path99" fill="#e4ca74"/>
    </g>
   </g>
   <path class="st14" d="m-27.98358,169.7906" id="path105" fill="#f2de93"/>
  </g>
  <rect id="svg_2" height="0" width="1" y="426" x="412.5" stroke="#000" fill="#529D94"/>
 </g>
</svg>