<?xml version="1.0" encoding="utf-8"?>
<!-- Generator: Adobe Illustrator 17.0.0, SVG Export Plug-In . SVG Version: 6.00 Build 0)  -->
<!DOCTYPE svg PUBLIC "-//W3C//DTD SVG 1.1//EN" "http://www.w3.org/Graphics/SVG/1.1/DTD/svg11.dtd">
<svg version="1.1" id="Layer_1" xmlns="http://www.w3.org/2000/svg" xmlns:xlink="http://www.w3.org/1999/xlink" x="0px" y="0px"
	 width="800px" height="600px" viewBox="0 0 800 600" enable-background="new 0 0 800 600" xml:space="preserve">
<g>
	<path d="M746.238,268.749c-1.709-13.65-13.887-20.181-25.299-23.798c-12.49-3.959-26.768-5.081-37.496-13.525
		c-4.453-3.507-5.613-7.565-4.174-13.559c1.305-5.431,8.141-11.344,12.018-14.947c5.787-5.381,12.559-11.891,12.559-21.74
		c0-4.712-2.707-12.243-8.498-12.243c2.656,10.176-4.152,17.1-9.604,21.936c-7.627,6.763-16.297,12.312-22.877,20.274
		c-5.676,6.868-7.66,18.553-2.65,26.49c5.467,8.661,14.699,13.524,25.336,16.224c13.182,3.347,25.762,4.208,33.223,11.833
		c3.969,4.06,3.959,9.942,1.275,14.764c-3.115,5.596-9.611,7.69-15.344,8.628c-1.176,0.193-2.363,0.334-3.559,0.44
		c-0.242-0.36-0.652-0.647-1.019-0.727c-0.736-0.157-1.334,0.259-1.602,0.902c-0.072,0.004-0.143,0.009-0.213,0.012
		c-0.287-0.444-0.756-0.782-1.26-0.883c-0.877-0.173-1.742,0.28-2.313,0.938c-0.158-0.002-0.315,0.003-0.473,0
		c-1.344-1.874-4.469-2.293-5.81-0.359c-0.418-0.04-0.834-0.077-1.254-0.126c-1.143-1.674-3.49-2.303-5.025-0.848
		c-0.375-0.715-1.021-1.327-1.682-1.594c-1.324-0.535-2.676-0.209-3.742,0.639c-0.178-0.04-0.359-0.078-0.535-0.119
		c-1.039-1.715-3.744-2.858-4.393-1.105c-0.123-0.035-0.25-0.067-0.377-0.102c-0.377-0.948-1.211-1.62-2.217-1.972
		c-0.94-0.328-2.084-0.165-2.82,0.479c-0.195-0.063-0.391-0.127-0.586-0.188c-0.313-0.796-0.926-1.5-1.682-1.817
		c-0.988-0.416-1.945-0.225-2.73,0.354c-0.264-0.09-0.533-0.179-0.795-0.27c-0.131-1.395-0.906-2.646-2.27-3.145
		c-1.289-0.473-2.471,0.19-3.254,1.175c-0.402-0.146-0.809-0.291-1.209-0.438c-0.598-1.19-1.506-2.258-2.711-2.715
		c-1.102-0.42-2.182-0.056-3.098,0.573c-0.49-0.182-0.982-0.364-1.473-0.545c-0.297-1.457-1.26-2.852-2.559-3.441
		c-1.533-0.693-3.256-0.296-4.244,0.988c-0.395-0.137-0.785-0.28-1.178-0.415c-2.162-2.936-7.787-5.532-9.912-3.124
		c-0.678-0.189-1.355-0.371-2.039-0.551c-2.721-3.055-6.922-5.549-8.787-1.973c-0.113-0.018-0.232-0.037-0.348-0.058
		c-2.563-3.301-8.043-5.662-10.219-1.873c-0.539-1.825-1.516-3.215-3.811-3.306c-1.355-0.056-3.35,0.396-4.365,1.524
		c-0.039-0.012-0.078-0.025-0.119-0.039c-0.488-1.745-0.762-3.338-2.863-4.084c-1.588-0.565-3.424-0.016-4.785,0.974
		c-0.262-2.02-0.861-4.288-2.988-4.833c-1.508-0.385-3.394,0.248-4.234,1.554c-0.514-1.156-1.16-2.346-2.184-2.966
		c-1.236-0.746-2.426-0.487-3.529,0.148c-0.172-0.094-0.34-0.188-0.51-0.282c-0.158-2.249-0.1-5.07-2.074-6.255
		c-2.031-1.219-4.297-0.062-5.619,1.697l-0.238-0.149c-0.898-2.868-3.201-6.222-5.428-3.545c-0.559-0.377-1.113-0.756-1.664-1.137
		c-0.174-0.711-0.447-1.424-0.639-2.004c-0.385-1.164-0.894-2.306-1.67-3.257c-1.465-1.798-3.172-0.964-4.414,0.391
		c-0.576-0.438-1.146-0.874-1.707-1.31c0.436-3.338-3.766-7.328-6.279-5.132c-0.58-0.498-1.146-0.992-1.693-1.48
		c-0.059-0.443-0.147-0.883-0.225-1.294c-0.203-1.035-0.559-2.101-1.225-2.926c-0.977-1.213-2.156-0.865-3.117-0.086
		c-0.334-0.331-0.67-0.661-1.014-0.999c0.006-0.393-0.025-0.787-0.059-1.128c-0.076-0.818-0.328-1.689-0.873-2.316
		c-0.492-0.565-1.254-0.767-1.967-0.615c-0.309,0.064-0.67,0.173-1.004,0.332c-3.19-2.957-6.643-5.946-9.967-8.406
		c-6.865-5.076-14.572-8.885-22.4-12.025c-16.166-6.488-33.598-10.041-50.734-12.339c-10.681-1.434-21.241-3.746-31.882-5.471
		c-9.944-1.615-20.311-3.116-30.341-1.537c-10.738,1.69-20.844,6.381-31.448,8.722c-9.279,2.049-29.56,2.792-37.05,2.144
		c-4.528-1.944-9.927-1.592-13.761-0.396c-3.481-1.196-9.751-1.549-15.143,0.323c-6.452-1.52-14.812-1.343-21.949,1.012
		c-8.19-1.293-16.375-1.116-24.031,1.998c-8.194-1.347-16.728-0.286-23.731,3.11c-6.059-0.92-13.374,0.671-19.819,3.678
		c-5.197-1.18-12.888,0.707-17.437,3.99c-6.075-0.63-13.216,1.668-17.098,5.235c-7.439,0.5-15.625,4.037-21.432,9.21
		c-7.256,1.017-15.615,6.498-20.043,13.284c-8.41-0.142-21.353-0.479-30.672,4.952c-4.505,2.625-5.674,8.771-3.601,13.431
		c0.612,1.376,1.463,2.462,2.277,3.684c-3.756,1.445-5.839,6.212-4.633,11.259c0.984,4.117,4.261,6.139,7.959,5.549
		c0.238,3.784,1.61,7.302,2.576,10.968c1.795,6.812,3.863,13.341,3.015,20.473c-0.851,7.148,0.224,13.269,6.161,17.092
		c5.466,3.522,12.702,9.658,15.138,14.123c2.489,4.564,8.172,4.698,11.272,3.993c0.749,3.647,3.723,6.283,6.336,5.68
		c2.614-0.603,4.061-2.873,5.669-4.387c1.607-1.514,2.9-3.004,4.413-5.217c5.446-7.971,4.668-17.549,2.15-26.34
		c-1.4-4.885-2.292-8.188-3.914-12.604c-1.061-2.891-2.662-8.08-3.202-11.119c-0.529-2.986,1.657-4.471,2.427-7.19
		c1.47-5.195-2.034-13.966-6.616-20.265c13.316-6.318,26.809-10.195,41.431-11.723c19.963-2.087,41.536-2.945,66.156,0.766
		c12.778,1.925,25.503,4.362,38.105,7.316c13.987,3.278,28.781,8.829,30.147,9.923c4.341,8.66,11.357,23.712,12.454,26.74
		c3.65,10.095,6.267,20.603,8.093,31.216c3.581,20.802,3.189,42.482-2.152,62.905c-0.168,0.641,0.278,1.49,0.87,1.748
		c13.938,6.047,38.378,0.918,39.021-0.514c-2.696-5.455-5.708-12.693-7.353-19.137c-1.853-7.246-3.027-14.705-3.934-22.133
		c-0.922-7.552-1.007-12.695-1.576-20.283c-0.421-5.608-0.146-13.646-1.126-19.257c5.746,6.183,14.38,7.731,21.029,5.851
		c6.805-1.922,12.649-6.542,19.618-5.626c2.13,5.154,3.172,10.662,2.8,16.839c-0.6,10.003-3.443,19.738-3.523,29.803
		c-0.084,10.766,2.357,22.453-1.815,32.768c-0.406,1.004,0.1,1.582,1.045,1.934c5.945,2.23,12.765,2.734,19.051,2.447
		c5.535-0.252,13.583-1.947,16.755-5.17c-1.258-2.078-7.585-19.684-8.49-25.678c-1.522-10.074,0.639-20.148,1.652-30.162
		c0.689-6.778,0.439-13.079-0.889-19.329c5.855,3.605,12.909,4.202,19.667,3.862c2.449-0.122,4.978-0.381,7.523-0.779
		c-2.885,9.566,0.795,20.848,0.435,30.633c-0.393,10.621-8.978,28.627-10.31,32.26c-0.342,0.932,3.463,1.605,6.912,2.043
		c0.66,0.768,1.475,0.686,2.621,0.305c0.945,0.102,3.414,0.34,4.152,0.367c0.742,0.51,1.479,0.84,2.703,0.035
		c1.311-0.012,2.73-0.059,4.166-0.131c0.85,0.887,3.027,1.279,4.332-0.293c2.228-0.221,4.695-0.576,6.045-0.902
		c0.246-0.061,0.684-0.147,0.633-0.785c-0.088-1.039-1.826-11.322-1.473-22.785c0.158-5.123,1.773-13.533,3.461-18.242
		c2.406,5.385,7.078,15.637,7.498,17.986c1.141,6.357,0.541,21.285-3.568,31.852c-0.266,0.684-0.246,1.703,0.506,2.047
		c3.184,1.459,6.557,2.447,10.002,3.137c1.871,2.104,2.768,1.938,4.971,0.801c2.258,0.289,4.518,0.484,6.75,0.637
		c2.068,1.66,2.723,1.826,4.674,0.227c2.233,0.053,4.52,0.016,6.785-0.184c2.121,2.031,3.264,1.783,5.221-0.793
		c2.369-0.537,4.648-1.33,6.744-2.473c0.949-0.518,1.258-1.504,0.697-2.484c-7.334-12.787-11.549-27.684-14.516-42.172
		c-1.529-7.472-2.561-15.068-3.066-22.692c-0.244-3.661-0.303-10.017,0.1-14.642c15.439,7.561,33.064,6.241,49.477,3.284
		c19.488-3.51,38.338-8.939,57.613-11.61c10.115-1.404,19.127-0.214,29.107,1.87c9.94,2.077,19.717,4.712,29.881,5.323
		c14.275,0.856,32.064-1.152,45.039-7.361C739.055,295.419,748.008,282.891,746.238,268.749z"/>
	<path fill="#727932" d="M700.006,289.382c0.166,0.045,0.281,0.117,0.369,0.207c-0.463,0.034-0.93,0.064-1.397,0.087
		C699.223,289.386,699.598,289.271,700.006,289.382z"/>
	<path fill="#727932" d="M696.822,289.444c0.283,0.018,0.508,0.138,0.721,0.3c-0.703,0.021-1.41,0.026-2.117,0.023
		C695.861,289.548,696.34,289.414,696.822,289.444z"/>
	<path fill="#727932" d="M691.658,288.871c0.602,0.167,1.057,0.48,1.461,0.86c-1.354-0.052-2.713-0.139-4.072-0.265
		C689.771,288.852,690.621,288.581,691.658,288.871z"/>
	<path fill="#727932" d="M685.885,289.118c-1.008-0.133-2.014-0.28-3.018-0.445C683.916,287.931,685.004,288.312,685.885,289.118z"
		/>
	<path fill="#727932" d="M679.883,287.437c0.633,0.166,0.988,0.514,1.24,0.94c-1.164-0.213-2.322-0.445-3.475-0.698
		C678.336,287.342,679.1,287.233,679.883,287.437z"/>
	<path fill="#727932" d="M674.129,286.309c0.375,0.219,0.674,0.479,0.918,0.773c-0.957-0.232-1.906-0.477-2.85-0.73
		C672.574,285.786,673.4,285.88,674.129,286.309z"/>
	<path fill="#727932" d="M668.844,284.889c0.6,0.14,1.123,0.48,1.484,0.945c-1.016-0.288-2.023-0.587-3.019-0.895
		C667.764,284.773,668.269,284.755,668.844,284.889z"/>
	<path fill="#727932" d="M663.736,283.263c0.459,0.17,0.764,0.482,0.992,0.854c-0.844-0.275-1.685-0.555-2.518-0.838
		C662.676,283.087,663.185,283.058,663.736,283.263z"/>
	<path fill="#727932" d="M658.299,280.289c0.92,0.364,1.375,1.25,1.539,2.178c-1.453-0.507-2.893-1.025-4.324-1.546
		C656.273,280.214,657.232,279.867,658.299,280.289z"/>
	<path fill="#727932" d="M651.504,278.755c0.402,0.285,0.713,0.652,0.973,1.06c-1.197-0.442-2.389-0.881-3.576-1.321
		C649.74,278.155,650.615,278.124,651.504,278.755z"/>
	<path fill="#727932" d="M643.58,274.8c1.176,0.432,1.748,1.398,2.055,2.485c-1.756-0.646-3.516-1.277-5.279-1.899
		C641.324,274.71,642.31,274.335,643.58,274.8z"/>
	<path fill="#727932" d="M636.322,273.991c-2.1-0.698-4.223-1.362-6.375-1.986C631.455,271.109,634.353,272.386,636.322,273.991z"/>
	<path fill="#727932" d="M624.609,270.577c-1.842-0.453-3.707-0.871-5.613-1.242C620.254,267.472,622.611,268.698,624.609,270.577z"
		/>
	<path fill="#727932" d="M615.852,268.782c-1.623-0.266-3.262-0.507-4.943-0.698c-0.873-0.099-1.76-0.229-2.654-0.381
		C609.842,265.032,613.568,266.562,615.852,268.782z"/>
	<path fill="#727932" d="M603.586,264.94c1.639-0.041,2.334,1.09,2.713,2.393c-1.982-0.412-4.01-0.942-6.068-1.575
		C601.168,265.117,602.791,264.959,603.586,264.94z"/>
	<path fill="#727932" d="M596.928,262.858c0.635,0.454,0.898,1.305,1.09,2.183c-1.895-0.642-3.809-1.365-5.734-2.157
		C593.701,262.004,595.504,261.841,596.928,262.858z"/>
	<path fill="#727932" d="M588.965,258.79c0.926,0.676,1.236,2.043,1.389,3.279c-1.801-0.78-3.607-1.617-5.408-2.502
		C585.662,258.326,587.894,258.007,588.965,258.79z"/>
	<path fill="#727932" d="M581.695,257.079c0.449,0.358,0.805,0.865,1.109,1.415c-1.102-0.565-2.201-1.145-3.297-1.739
		C580.215,256.484,580.951,256.484,581.695,257.079z"/>
	<path fill="#727932" d="M576.488,252.268c0.318,0.972,0.381,2.013,0.438,3.052c-1.98-1.124-3.941-2.287-5.869-3.481
		C572.607,249.922,575.516,249.309,576.488,252.268z"/>
	<path fill="#727932" d="M568.76,250.394c-1.188-0.762-2.361-1.532-3.52-2.309C566.662,246.657,567.996,248.471,568.76,250.394z"/>
	<path fill="#727932" d="M558.756,241.051c0.867,0.096,1.457,1.111,1.828,1.799c0.469,0.858,0.768,1.808,1.035,2.746
		c-1.697-1.194-3.342-2.393-4.928-3.587C557.266,241.438,557.945,240.962,558.756,241.051z"/>
	<path fill="#727932" d="M552.111,236.484c0.85,0.89,1.102,1.902,1.285,2.98c-1.592-1.255-3.102-2.493-4.523-3.704
		C549.953,235.239,551.004,235.322,552.111,236.484z"/>
	<path fill="#727932" d="M544.762,230.575c0.369,0.684,0.527,1.398,0.629,2.122c-1.057-0.968-2.047-1.905-2.951-2.805
		C543.268,229.409,544.117,229.367,544.762,230.575z"/>
	<path fill="#727932" d="M539.408,225.604c0.467,0.566,0.563,1.208,0.561,1.868c-0.746-0.723-1.516-1.456-2.307-2.196
		C538.291,225.047,538.941,225.042,539.408,225.604z"/>
	<path fill="#FFFFFF" d="M96.658,273.691c-4.101-1.709-4.748-10.77,0.739-13.452c0.616,0.876,1.516,1.729,2.175,2.568
		c-1.898,0.401-3.084,2.047-2.972,3.995c0.119,2.063,1.24,3.673,3.097,4.12c1.563,0.377,3.504-0.578,4.501-1.813
		c0.276,0.401,0.749,1.385,0.83,1.806C104.411,271.68,100.573,275.326,96.658,273.691z"/>
	<path fill="#687458" d="M459.484,378.664c-0.164,1.99-1.469,2.156-1.877-0.08c-0.412-2.238,0.162-5.086,1.799-6.279
		C459.891,371.951,459.646,376.676,459.484,378.664z"/>
	<path fill="#687458" d="M466.451,378.488c-0.191,2.748-1.744,2.994-1.988,0.342c-0.244-2.65,0.217-4.879,1.228-5.897
		C465.977,372.645,466.645,375.742,466.451,378.488z"/>
	<path fill="#687458" d="M471.32,379.66c-0.898-2.238,0.264-5.818,0.918-6.34c0.486-0.389,2.756,3.688,2.266,5.594
		C474.016,380.82,472.217,381.898,471.32,379.66z"/>
	<path fill="#92AC3D" d="M477.943,355.824c-0.043,11.93,1.15,21.4,1.221,21.898c0.07,0.5-2.568,0.674-3.547,0.656
		c-0.34-3.439-2.734-6.939-3.396-6.574c-1.238,0.686-2.428,4.303-2.16,6.795c-0.803,0.059-2.135,0.059-2.471-0.031
		c0.225-2.914-0.889-7.945-2.133-6.627c-1.717,1.818-2.088,4.133-1.838,6.584c-0.982-0.016-2.197-0.148-3.24-0.26
		c0.529-2.201,0.143-7.775-0.74-7.232c-2.258,1.391-3.105,4.096-2.85,6.637c-0.424-0.016-3.486-0.512-3.365-0.871
		c1.588-4.709,3.834-9.469,5.891-15.738c1.334-4.059,3.314-8.77,3.648-14.6c0.563-9.827-3.41-21.294-1.861-31.015
		c5.852-1.005,11.748-2.779,16.928-5.507c-1.105,8.634,0.957,16.874,4.148,24.805C479.728,341.904,477.957,351.861,477.943,355.824z
		"/>
	<path fill="#819D35" d="M480.74,339.537c0.443-1.666,0.926-3.292,1.438-4.793c-3.191-7.931-5.254-16.171-4.148-24.805
		c-5.18,2.727-11.076,4.502-16.928,5.507c-0.522,3.279-0.41,6.76-0.065,10.307C469,327.305,475.777,332.694,480.74,339.537z"/>
	<path fill="#819D35" d="M477.016,340.627c0.902,1.156,1.764,2.359,2.598,3.586c0.154-0.709,0.316-1.426,0.486-2.142
		c-4.619-6.908-11.102-12.513-18.834-14.226c0.08,0.663,0.168,1.328,0.256,1.995C467.852,330.815,473.15,335.666,477.016,340.627z"
		/>
	<path fill="#819D35" d="M474.633,341.168c1.563,1.84,3.055,3.787,4.42,5.824c0.096-0.514,0.197-1.029,0.305-1.555
		c-0.949-1.435-1.957-2.816-3.008-4.135c-3.756-4.703-8.664-9.445-14.697-10.483c0.063,0.444,0.125,0.889,0.184,1.333
		C466.978,333.21,471.316,337.271,474.633,341.168z"/>
	<path fill="#687458" d="M502.506,391.098c-0.49,3.482-2.529,2.986-3.918-0.496c-1.387-3.482,0.285-8.08,0.6-8.211
		C499.5,382.26,502.996,387.617,502.506,391.098z"/>
	<path fill="#687458" d="M513.365,392.592c-0.572,3.563-2.775,2.07-3.43-0.748c-0.654-2.816,0.438-7.299,0.963-7.289
		C511.428,384.565,513.935,389.027,513.365,392.592z"/>
	<path fill="#687458" d="M521.445,392.094c-1.387-3.148-0.686-6.795-0.086-6.947c0.512-0.131,3.598,3.051,3.598,7.029
		C524.957,396.154,522.836,395.242,521.445,392.094z"/>
	<path fill="#92AE44" d="M741.158,279.851c-2.471,6.571-6.023,11.773-14.063,16.063c-13.514,7.211-31.234,9.043-46.279,7.94
		c-10.031-0.735-19.785-3.682-29.629-5.629c-9.769-1.932-19.352-2.146-29.188-0.763c-18.736,2.634-36.994,8.147-55.668,11.204
		c-16.48,2.699-34.4,3.773-49.914-3.741c8.916-6.768,11.484-15.684,11.551-24.812c0.006-0.803-0.549-1.784-0.688-1.094
		c-3.246,16.307-13.193,23.799-13.313,24.292c-0.76,3.142-1.416,9.957-0.83,20.029c0.588,10.072,1.744,16.658,3.416,24.834
		c2.879,14.057,6.617,28.609,13.51,41.15c-1.242,0.551-2.113,0.771-3.442,1.107c-0.238-1.094-1.586-5.967-5.248-8.189
		c-0.588-0.357-0.91-0.342-1.129,0.268c-0.984,2.748-1.727,6.176-0.815,8.971c-1.611,0.101-2.92,0.105-4.51,0.096
		c-0.051-1.143,0.008-6.211-3.77-9.563c-0.555-0.492-0.91-0.137-1.205,0.449c-1.006,2.002-1.943,5.975-1.244,8.916
		c-1.805-0.094-2.973-0.197-4.801-0.41c0.029-1.674-0.31-3.654-0.805-5.051c-0.813-2.305-1.766-4.213-3.451-5.709
		c-0.482-0.428-1.127-0.289-1.398,0.254c-1.33,2.648-2.17,6.125-1.521,9.213c-1.943-0.473-4.174-1.066-6.016-1.781
		c4.412-10.902,4.686-28.582,2.596-34.299c-2.846-7.793-6.482-15.246-9.363-23.007c-2.842-7.666-3.313-15.566-2.483-22.221
		c0.832-6.656,16.457-37.418,5.719-57.617c-0.625-1.175-1.578-1.398-1.43-0.754c2.439,10.584,2.102,21.529-0.418,32.054
		c-2.006,8.379-5.693,18.902-6.916,25.06c-14.883,4.654-31.381,9.914-46.209,2.588c-0.611-2.366-1.35-4.308-2.286-6.7
		c-4.193-10.737-10.616-20.63-13.515-31.914c-0.106-0.416-0.775-0.249-0.702,0.173c1.705,9.633,5.435,18.156,9.311,27.009
		c2.041,4.658,3.85,9.398,5.145,14.343c1.636,6.246,1.211,12.891,0.622,19.263c-0.938,10.125-3.08,20.033-1.697,30.221
		c1.134,8.363,4.325,16.744,7.372,24.539c-1.813,1.135-5.091,2.178-7.284,2.701c-0.263-4.203-1.709-9.082-3.154-12.982
		c-0.136-0.371-0.646-0.199-0.56,0.182c0.937,4.143,2.111,8.873,1.695,13.201c-6.624,1.053-14.145-0.098-19.849-1.971
		c3.096-9.125,1.745-18.838,1.257-28.354c-0.581-11.34,2.534-22.329,3.393-33.561c0.445-5.814-0.661-10.955-3.288-18.319
		c-3.393-9.517-16.658-23.391-25.538-31.008c-0.364-0.314-0.78,0.245-0.457,0.588c6.132,6.531,11.823,13.844,17.196,21.064
		c1.972,2.646,3.676,5.335,5.065,8.114c-4.033-0.819-8.222,0.604-12.273,2.414c-7.091,3.168-12.954,5.029-20.289,1.246
		c-6.686-3.448-11.938-9.757-16.773-15.52c-6.197-7.389-11.798-18.523-16.891-26.769c-0.25-0.404-0.787,1.001-0.048,2.607
		c6.157,13.369,12.917,26.714,23.765,36.326c0.883,6.559,1.152,13.746,1.533,20.247c0.455,7.728,1.006,15.439,1.89,23.128
		c0.862,7.506,2.215,14.922,3.933,22.266c1.326,5.668,4.544,13.492,5.597,15.043c-1.48,1.074-5.288,1.504-10.141,1.891
		c-0.45-4.59-1.431-9.193-2.716-13.705c-0.109-0.385-0.645-0.199-0.561,0.182c0.957,4.254,0.884,9.197,0.865,13.607
		c-6.767,0.535-13.361,0.373-19.808-1.602c4.977-20.152,5.059-41.162,1.798-61.634c-1.723-10.818-4.603-21.389-8.261-31.656
		c-2.686-7.54-10.469-23.083-13.235-26.63c0.756,0.35,4.937,1.78,2.928,0.267c-2.011-1.513-14.713-7.569-37.161-13.354
		c-13.001-3.348-24.743-5.442-39.576-7.419c-14.322-1.91-33.315-3.003-52.844-1.458c-19.564,1.547-39.663,5.738-52.812,12.856
		c-2.048-2.717-3.78-6.601-4.702-9.444c-0.397-1.225-1.117,0.903-0.976,2.065c0.586,4.839,2.19,7.186,4.754,11.306
		c2.606,4.185,5.123,9.25,6.154,14.208c0.616,2.96-0.256,5.039-1.644,7.527c-0.787,1.411-0.786,2.194-0.517,3.82
		c0.764,4.63,2.545,9.198,4.073,13.609c2.569,7.427,5.376,15.212,5.218,24.646c-0.079,4.673-1.997,9.018-4.676,12.685
		c-1.601,2.19-3.615,4.025-5.643,5.766c-3.18,2.729-5.209,0.563-6.509-2.246c3.203-0.559,6.291-2.042,8.4-4.122
		c4.372-4.311,2.915-13.025,1.962-18.414c-0.219-1.24-0.475-2.495-0.782-3.749c2.831-5.444,2.898-15.689-3.021-18.961
		c-4.819-2.663-12.861-0.582-16.875,4.961c-1.096,1.514-1.278,2.97-0.618,2.374c3.568-3.221,8.045-4.568,11.97,0.118
		c3.405,4.067,5.067,9.557,6.206,14.726c0.997,4.525,1.677,9.727,0.513,14.287c-1.819,7.129-15.483,9.29-18.821,3.079
		c-3.338-6.209-6.484-9.082-11.051-12.226c-2.505-1.723-4.996-3.444-6.906-5.899c-2.753-3.538-2.23-8.097-1.806-12.282
		c0.644-6.341-1.45-12.454-3.098-18.463c-1.128-4.114-2.76-8.277-3.686-12.495c0.887-0.433,3.067-1.832,3.954-3.251
		c0.392,0.827,0.863,2.158,1.105,4.261c0.089,0.766,1.046-0.338,0.91-2.025c-0.474-5.917-3.963-10.638-7.433-15.102
		c-3.51-4.519-6.124-11.214,0.253-14.826c5.14-2.914,10.768-3.746,16.48-4.204c7.315-0.588,14.871-0.95,21.626-1.094
		c0.481-0.01,0.327-0.775-0.391-0.953c-2.979-0.74-5.101-0.865-7.96-0.981c5.565-5.835,11.835-9.372,19.442-10.565
		c5.979-5.173,14.513-8.533,21.078-8.32c5.626-4.456,10.33-6.047,17.147-5.586c4.502-3.114,10.599-4.884,17.563-4.449
		c5.401-2.732,11.498-4.678,18.829-3.139c6.95-3.838,14.614-4.722,23.853-3.058c5.913-2.901,14.795-4.847,24.026-2.177
		c6.793-2.14,14.283-3.201,21.77-1.154c5.227-1.87,10.277-2.047,15.329-0.284c4.353-2.116,8.185-1.586,12.938,0.149
		c9.517,0.252,18.034-0.059,27.539-0.632c10.489-0.631,20.152-3.763,30.161-6.894c8.309-2.599,16.258-3.998,24.935-3.488
		c8.211,0.484,16.366,1.902,24.46,3.345c14.238,2.533,28.588,4.499,42.768,7.349c22.305,4.482,50.717,14.646,64.853,30.21
		c15.277,16.82,37.688,29.464,49.936,35.053c12.996,5.93,20.371,6.738,31.471,8.815c1.379,0.258,3.205,0.689,5.537,1.379
		c2.332,0.688,5.166,1.652,8.518,2.588c3.352,0.936,38.211,13.048,42.754,14.063c12.15,2.717,26.269,4.527,38.139-0.335
		c9.256-3.791,15.553-15.678,9.229-24.999c-6.27-9.24-21.004-11.147-30.74-13.279c-5.627-1.232-22.238-5.864-28.107-15.954
		c-3.744-6.439-3.957-15.301,1.69-22.788c5.682-7.531,15.217-13.436,22.832-20.853c4.5-4.386,10.037-12.008,9.969-18.417
		c7.557,9.839-2.764,20.752-8.553,25.966c-6.494,5.848-17.357,15.469-14.439,25.581c3.564,12.365,17.559,15.595,28.029,18.437
		c11.916,3.231,26.916,4.976,35.08,15.765C742.582,265.24,743.627,273.281,741.158,279.851z"/>
	<path fill="#819D35" d="M249.6,247.219c0.374,0.051,0.735,0.102,1.105,0.15c8.31,0.267,16.637,0.411,24.934,0.223
		c10.448-0.237,20.973-0.002,31.293,1.831c10.687,1.899,20.94,5.459,31.55,7.64c9.607,1.974,19.413,2.1,29.102,3.426
		c2.892,0.395,8.853-0.422,10.298-0.973c2.506-0.954-13.531-5.048-18.802-6.841c-4.684-1.592-10.461-4.043-15.283-5.13
		c-12.043-2.715-23.899-6.197-36.098-8.195c-12.417-2.036-21.695-1.81-34.166-1.31c-12.427,0.5-27.506,1.31-39.938,1.586
		c-12.238,0.271-24.465,1.112-36.509,3.445c-5.53,1.07-10.797,2.684-15.994,4.509c5.164-0.798,10.432-1.405,15.665-1.819
		C216.285,244.217,235.277,245.311,249.6,247.219z"/>
	<path fill="#819D35" d="M388.357,283.41c3.567,5.643,6.729,11.605,8.957,17.821c0.627,1.747,1.158,3.503,1.605,5.268
		c2.05-0.475,4.095-0.623,6.104-0.216c-1.392-2.777-3.096-5.466-5.065-8.113C396.259,293.198,392.401,288.187,388.357,283.41z"/>
	<path fill="#819D35" d="M487.1,257.479c-0.092,1.407-0.238,2.743-0.369,3.879c-0.59,5.162-2.055,9.875-4.086,14.63
		c-4.508,10.548-10.314,21.307-10.461,33.069c2.135-0.637,4.244-1.298,6.322-1.947c1.223-6.156,4.912-16.682,6.918-25.06
		C487.353,273.988,487.996,265.683,487.1,257.479z"/>
	<path fill="#819D35" d="M126.907,255.162c-1.268-1.109-4.713-4.408-6.592-3.05c-0.209,0.152-0.408,0.087-0.539-0.058
		c-6.659,2.077-8.854,9.7-7.747,16.141c0.626,3.635,1.878,7.242,5.883,8.022c1.541,0.301,3.114,0.384,4.653,0.682
		c1.911,0.368,3.843,1.545,5.806,1.507c6.502-0.128,5.958-13.388,3.621-17.408C130.706,258.781,128.816,256.83,126.907,255.162z"/>
	<path fill="#819D35" d="M322.513,203.496c-2.619,0.241-5.045,1.11-7.572,1.78c-1.83,0.484-3.973,1.078-5.857,0.523
		c-2.206-0.65-4.61-2.161-6.967-1.915c-2.876,0.301-5.712,0.492-8.577,0.959c-1.899,0.31-3.927,0.745-5.848,0.461
		c-2.566-0.378-5.155-1.495-7.775-1.314c-2.287,0.157-4.549,1.202-6.855,1.015c-4.285-0.35-8.628-2.711-12.948-2.143
		c-3.168,0.418-5.072,1.975-7.423,3.942c-0.832,0.697-1.737,1.447-2.889,1.313c-1.784-0.207-3.455-0.847-5.16-1.39
		c-1.863-0.594-3.858-0.68-5.805-0.577c-4.759,0.251-9.516,1.59-12.849,5.234c-0.136,0.148-0.403,0.191-0.571,0.074
		c-5.266-3.674-12.838-1.403-16.994,2.994c-0.184,0.194-0.479,0.172-0.666,0c-4.461-4.114-12.267,0.43-14.747,4.888
		c-0.129,0.232-0.421,0.295-0.645,0.172c-5.954-3.294-15.33-1.634-20.362,3.572c-0.196,0.203-0.433,0.104-0.666,0
		c-3.564-1.591-6.385-1.273-10.458-0.158c-3.716,1.017-5.986,3.683-7.909,7.153c-0.126,0.228-0.426,0.301-0.645,0.172
		c-4.333-2.561-10.323,1.614-11.837,3.333c-1.514,1.719,11.647,0.014,16.52-2.115c18.034-7.877,29.364-9.305,44.456-10.006
		c15.207-0.707,15.832-5.323,40.891-9.049c7.22-1.073,18.209,0.233,25.479-0.427c7.575-0.688,19.367-3.688,26.946-4.257
		c7.851-0.591,10.857,3.927,18.034,0.639c8.599-3.939,17.994-3.691,16.285-4.189C327.389,203.687,324.634,203.301,322.513,203.496z"
		/>
	<path fill="#819D35" d="M537.623,237.905c3.291,5.72,7.264,10.554,12.606,14.417c4.973,3.598,10.436,6.586,16.004,9.128
		c9.467,4.324,20.178,5.916,30.715,6.176c-2.996-1.004-6.225-2.266-9.914-3.949c-12.246-5.588-34.658-18.231-49.934-35.052
		c-2.719-2.994-5.971-5.786-9.602-8.378C531.305,225.8,534.246,232.034,537.623,237.905z"/>
	<path fill="#819D35" d="M381.344,307.964c-5.778-1.743-10.973-5.054-15.623-8.897c-5.047-4.172-9.154-9.367-14.19-13.538
		c-1.683-1.394-3.289-2.775-4.755-4.258c2.829,4.769,5.795,9.437,8.913,13.154c4.834,5.764,10.087,12.072,16.772,15.52
		c7.336,3.784,13.198,1.921,20.29-1.246c0.836-0.375,1.682-0.728,2.528-1.051C390.7,307.237,385.878,309.33,381.344,307.964z"/>
	<path fill="#819D35" d="M485.406,325.512c4.273-0.766,8.65-2.331,12.211-4.896c1.537-1.107,3.246-2.525,3.752-4.468
		c0.815-3.127-4.803-0.732-6.209-0.389c-4.668,1.138-9.771,1.597-13.973-0.918c0.035,3.532,0.457,7.249,1.385,10.983
		C483.59,325.788,484.572,325.66,485.406,325.512z"/>
	<path fill="#819D35" d="M515.662,350.022c-3.775-1.658-8.213-2.738-12.236-1.313c-4.148,1.471-7.063,4.873-9.191,8.662
		c0.139,1.01,0.244,2.119,0.316,3.316c2.197-3.209,5.277-5.732,9.371-5.787c3.457-0.045,6.695,1.178,9.586,3.063
		c1.596,1.041,3.344,2.115,4.697,3.48c0.641,0.645,1.277,1.365,1.986,1.955c-1.135-4.207-2.113-8.447-3.006-12.66
		C516.682,350.488,516.174,350.246,515.662,350.022z"/>
	<path fill="#819D35" d="M355.748,353.111c-3.919,0.035-6.329,1.898-8.68,4.287c-0.026,1.006-0.049,2.014-0.095,3.02
		c1.197-1.211,2.727-2.078,4.464-2.428c4.358-0.883,8.137,1.063,11.81,3.318c1.763,1.084,3.448,2.281,5.043,3.582
		c-0.568-2.871-1.068-5.756-1.507-8.652C363.362,354.664,359.382,353.078,355.748,353.111z"/>
	<path fill="#819D35" d="M428.984,360.449c-1.667-0.934-3.4-1.727-5.208-2.32c-3.48-1.145-7.4-1.807-11.019-0.881
		c-1.488,0.383-2.795,1.152-4.113,1.896c0.004,0.088,0.004,0.174,0.008,0.262c0.051,0.955,0.108,1.912,0.168,2.871
		c1.931-1.361,3.854-2.529,6.502-2.397c3.433,0.166,6.718,1.387,9.664,3.152c1.73,1.037,3.383,2.213,4.97,3.479
		c-0.314-1.471-0.582-2.945-0.781-4.42C429.101,361.543,429.041,360.994,428.984,360.449z"/>
	<path fill="#819D35" d="M408.601,356.965c0.002,0.404,0,0.81,0.012,1.217c1.738-0.938,3.443-1.906,5.555-2.135
		c3.328-0.357,6.699,0.02,9.86,1.158c1.686,0.607,3.308,1.348,4.868,2.193c-0.026-0.34-0.041-0.676-0.063-1.014
		C422.499,354.51,414.726,352.785,408.601,356.965z"/>
	<path fill="#819D35" d="M360.156,350.803c-4.756-1.316-8.992-0.379-13.03,1.799c0.005,1.133,0.002,2.266-0.016,3.4
		c1.899-1.842,3.929-3.283,6.96-3.76c4.119-0.646,8.83,1.32,12.553,2.898c-0.083-0.568-0.161-1.141-0.24-1.711
		C364.367,352.25,362.19,351.365,360.156,350.803z"/>
	<path fill="#819D35" d="M517.822,239.375c-5.324-6.196-12.98-11.602-20.463-5.543c-1.861,1.508-11.139,9.992-8.291,12.067
		c2.85,2.078,11.021-0.744,16.49,0.037c4.607,0.659,9.305,2.449,13.207,5.041c1.518,1.008,3.195,2.256,4.973,2.726
		c3.502,0.925,1.246-3.89,0.398-5.249C522.188,245.324,520.227,242.177,517.822,239.375z"/>
	<path fill="#819D35" d="M470.822,204.46c-6.951-1.541-14.027-2.543-21.07-3.604c-7.769-1.169-15.579-2.135-23.422-2.605
		c-7.576-0.454-17.21,0.069-24.661,1.564c-7.846,1.573-12.782,3.736-12.879,5.749c-0.143,2.993,11.523-0.931,21.106-0.439
		c8.259,0.424,13.34,2.328,19.598,6.111c3.041,1.839,6.166,3.622,9.051,5.707c2.648,1.914,5.182,4.056,8.009,5.7
		c3.447,2.006,7.143,3.193,11.143,2.439c3.869-0.729,7.434-2.347,10.947-4.099c6.104-3.047,12.045-5.32,18.727-6.731
		c1.947-0.412,8.022-1.929,6.943-2.867C492.197,209.549,478.256,206.108,470.822,204.46z"/>
	<path fill="#819D35" d="M134.336,233.691c-1.35,1.092-2.659,2.297-3.928,3.628c2.848,0.114,4.966,0.24,7.924,0.971
		C137.941,236.361,136.247,234.748,134.336,233.691z"/>
	<path fill="#819D35" d="M101.865,275.492c0.925,4.219,2.558,8.382,3.686,12.496c0.12,0.438,0.242,0.875,0.365,1.312
		c0.396-1.916,0.563-3.864,0.707-5.264c0.175-1.708,0.408-3.49,0.348-5.211c-0.08-2.239-0.593-4.385-1.127-6.531
		c-0.009-0.017-0.017-0.035-0.024-0.052C104.932,273.661,102.752,275.06,101.865,275.492z"/>
	<path fill="#819D35" d="M120.115,303.841c0.347,3.087,2.813,5.767,4.563,8.167c2.266,3.114,4.805,6.052,6.949,9.253
		c0.887,1.324,1.477,2.556,1.747,4.14c0.19,1.123-0.634,2.752,0.649,3.442c2.08,1.123,3.814-2.465,4.443-3.968
		c0.994-2.374,1.87-5.102,0.325-7.453c-1.717-2.615-4.622-3.572-7.4-4.596C126.662,311.085,122.722,308.171,120.115,303.841z"/>
	<path fill="#819D35" d="M673.09,297.983c-6.887-2.589-13.674-5.466-20.791-7.358c-14.123-3.755-28.633-4.317-43.098-2.563
		c-14.35,1.741-28.801,5.423-41.43,12.73c-5.848,3.383-11.49,7.164-17.742,9.745c5.527-0.293,11.037-0.996,16.394-1.874
		c18.67-3.059,36.928-8.57,55.666-11.204c9.836-1.383,19.418-1.169,29.188,0.764c9.844,1.946,19.598,4.893,29.629,5.627
		c2.004,0.147,4.058,0.237,6.142,0.274C682.281,302.406,677.877,299.781,673.09,297.983z"/>
	<path fill="#819D35" d="M714.031,289.933c2.748-0.452,5.459-1.271,7.902-2.484c3.766-1.874,7.482-4.831,8.533-9.173
		c1.148-4.754-0.371-10.196-3.668-13.757c-3.295-3.558-7.707-5.648-12.211-7.167c-4.695-1.584-9.494-2.928-14.313-4.055
		c-6.65-1.556-13.396-2.887-19.869-4.992c4.721,1.928,9.131,3.078,11.535,3.605c9.738,2.132,24.469,4.039,30.74,13.279
		C728.873,274.315,722.965,285.892,714.031,289.933z"/>
	<path fill="#819D35" d="M689.769,199.863c2.191-1.975,5.031-4.765,7.305-8.003c-4.031,3.552-8.494,6.552-12.963,9.582
		c-6.057,4.111-13.254,9.314-13.771,17.469c-0.482,7.621,5.371,13.448,11.764,16.438c0.068,0.032,0.133,0.058,0.199,0.089
		c-3.199-2.464-5.725-5.669-6.971-9.994C672.414,215.331,683.277,205.71,689.769,199.863z"/>
	<path fill="#819D35" d="M528.752,280.119c6.516,8.55,4.685,19.336-0.336,28.91c1.363,0.305,2.738,0.555,4.119,0.771
		C537.119,299.224,538.209,286.901,528.752,280.119z"/>
	<path fill="#819D35" d="M516.51,304.922c3.547,1.718,7.219,2.983,10.973,3.888c4.961-9.3,6.856-19.773,0.561-28.044
		C527.859,289.664,525.209,298.316,516.51,304.922z"/>
	<path fill="#819D35" d="M416.869,272.427c3.044,10.729,9.115,20.262,13.142,30.57c0.936,2.393,1.676,4.334,2.286,6.7
		c2.769,1.368,5.599,2.297,8.464,2.873C438.63,296.136,431.558,280.018,416.869,272.427z"/>
	<path fill="#819D35" d="M339.283,271.412c0.194,6.789,0.809,13.734,2.546,20.219c1.919,7.166,5.519,13.702,10.047,19.513
		c3.587,4.601,7.577,9.146,12.026,13.095c-0.317-5.782-0.621-11.953-1.389-17.65C351.977,297.251,345.3,284.395,339.283,271.412z"/>
	<path fill="#819D35" d="M139.739,250.587c0.982,2.627,2.477,5.741,4.204,8.03c3.494-1.891,7.489-3.569,11.822-5.052
		C150.681,251.251,145.333,249.884,139.739,250.587z"/>
	<path fill="#FFFFFF" d="M145.483,298.565c0.682,0.398,1.316,0.899,1.876,1.535c0.632,0.72,1.118,1.566,1.485,2.487
		c-0.866,0.19-1.694,0.745-2.447,1.174c-0.729,0.414-1.453,0.83-2.18,1.241c-0.827-1.154-1.748-2.234-2.806-3.19
		c-0.267-0.242-0.536-0.459-0.804-0.661C142.125,300.074,143.706,299.104,145.483,298.565z"/>
	<path fill="#FFFFFF" d="M139.859,300.632c-2.123-1.328-4.257-1.538-6.137-1.101c3.195-1.872,7.172-2.729,10.397-1.598
		C142.585,298.608,141.202,299.598,139.859,300.632z"/>
	<path fill="#FFFFFF" d="M146.269,305.138c0.948-0.502,2.017-0.93,2.93-1.509c0.951,3.33,0.52,7.414-0.691,10.608
		c-0.863-2.961-2.043-5.843-3.688-8.378C145.309,305.639,145.789,305.392,146.269,305.138z"/>
	<path d="M137.823,268.858c-2.133-11.158-11.402-18.66-21.954-19.983c-1.116-0.139-1.578,1.612-0.496,2.023
		c2.468,0.932,4.775,1.934,6.917,3.075c-4.514-0.089-9.497,4.198-9.819,10.758c-0.306,6.233,2.151,9.246,5.114,10.861
		c-0.694,0.078-1.386,0.208-1.821,0.379c-0.582,0.229-0.931,0.836-0.261,0.879c6.356,0.401,9.471,0.362,15.774,2.616
		c1.28,0.459,0.558-1.037-0.777-1.721c-1.431-0.733-2.91-1.363-5.294-1.915c2.032-1.037,3.779-2.923,4.55-5.467
		c1.682-5.548,0.298-11.249-1.877-13.176c4.283,3.034,6.545,6.5,9.031,12.252C137.215,270.144,137.98,269.679,137.823,268.858z"/>
	<path fill="#FFFFFF" d="M127.746,261.116c-1.849-1.768-4.215-1.68-6.271,0c-1.998,1.632-2.288,5.576-0.884,7.397
		c2.266,2.943,5.949,2.272,7.638-0.252c-0.402,3.448-3.089,5.773-6.892,5.831c-3.802,0.057-6.615-3.644-6.615-8.017
		c0-4.373,1.424-7.583,4.904-9.082C123.726,255.229,127.356,258.43,127.746,261.116z"/>
	<path d="M375.615,257.15c-14.376-4.625-28.49-9.954-43.034-14.023c-15.217-4.257-30.123-6.385-45.884-5.745
		c-0.323,0.014-0.322,0.534,0.003,0.525c14.699-0.282,29.621,3.647,43.711,7.674c15.012,4.291,29.75,9.363,44.974,12.847
		C376.185,258.612,376.362,257.39,375.615,257.15z"/>
	<path d="M138.013,323.637c0.203-3.823-1.221-5.823-2.833-6.418c-1.749-0.646-3.906-0.606-5.689-0.562
		c-3.855-4.67-7.956-8.683-9.968-14.715c-0.103-0.309-0.321,0.841,0,2.018c1.457,5.332,4.51,8.222,7.763,12.523
		c1.698,2.243,3.621,4.459,4.817,7.049c0.678,1.468,1.65,3.469,1.971,5.823C134.268,330.775,137.772,328.177,138.013,323.637z"/>
	<path fill="#5D7928" d="M135.47,325.482c-0.19-1.424-2.762-5.713-4.692-7.142c2.09-0.589,4.249,0.404,5.145,2.101
		C137.255,322.964,135.66,326.905,135.47,325.482z"/>
	<ellipse fill="#FFFFFF" cx="125.617" cy="263.414" rx="1.694" ry="1.773"/>
	<ellipse fill="#FFFFFF" cx="100.407" cy="265.509" rx="1.335" ry="1.397"/>
	<path fill="#ACC562" d="M98.835,249.971c-0.855,2.604,0.313,5.251,2.664,7.477c2.35,2.228,8.618-11.611,6.581-12.727
		C106.042,243.607,100.245,245.677,98.835,249.971z"/>
	<path fill="#ACC562" d="M115.442,277.65c2.504,0.205,10.498,0.795,14.102,2.705c3.603,1.91-4.701,4.137-7.521,3.342
		C119.203,282.901,111.525,277.332,115.442,277.65z"/>
	<path fill="#ACC562" d="M119.046,248.539c4.439,1.256,9.558,3.341,13.788,7.635c4.23,4.296,0.784-6.679-4.388-9.227
		C123.276,244.402,112.309,246.631,119.046,248.539z"/>
	<path fill="#ACC562" d="M109.959,310.263c-0.715,4.647,0.271,6.511,2.834,8.736c2.969-10.067-2.152-20.987-5.654-30.852
		c0.036,0.496,0.229,1.317,0.627,2.547C109.072,294.728,110.742,305.173,109.959,310.263z"/>
	<path fill="#ACC562" d="M116.696,309.147c-0.696-2.891-1.546-8.277-3.447-12.407c-1.558-3.388-3.828-7.188-5.12-8.61
		c3.595,10.117,8.702,21.265,5.462,31.539C116.706,322.155,118.414,316.284,116.696,309.147z"/>
	<path fill="#ACC562" d="M126.723,317.421c6.111,7.158,7.833,16.703,8.147,19.567c0.252,2.301-2.193,1.43-5.013-2.387
		C127.037,330.783,119.91,309.439,126.723,317.421z"/>
	<path fill="#ACC562" d="M145.525,269.855c2.598,5.056,3.76,10.022,0.314,14.795C143.343,288.104,138.004,255.222,145.525,269.855z"
		/>
	<path fill="#ACC562" d="M127.35,305.809c0-2.868,1.724-7.158,6.737-9.387c5.014-2.227-4.23-2.863-7.363,2.863
		C124.101,304.081,127.35,308.194,127.35,305.809z"/>
	<path fill="#ACC562" d="M215.56,221.495c6.046-2.469,16.608-6.204,26.792-7.158c10.184-0.955,24.129-0.637,25.539,0.636
		C269.301,216.246,201.146,227.382,215.56,221.495z"/>
	<path fill="#ACC562" d="M163.857,230.086c4.243-1.952,17.547-6.204,28.671-6.204C203.652,223.882,152.105,235.494,163.857,230.086z
		"/>
	<path fill="#ACC562" d="M280.739,231.04c-13.555,2.083-19.996,5.081,3.29,4.454c9.722-0.261,26.008,0.159,40.58,3.659
		c14.571,3.499,33.528,9.545,43.086,13.044c9.558,3.5-5.349-14.61-30.552-20.044C316.534,227.71,294.727,228.89,280.739,231.04z"/>
	<path fill="#ACC562" d="M411.722,354.486c2.749-1.074,8.147-1.273,13.476,1.272c1.396,0.668-1.411-4.295-7.521-4.772
		C411.564,350.508,409.686,355.281,411.722,354.486z"/>
	<path fill="#ACC562" d="M350.462,350.031c1.463-0.742,6.893-1.592,12.22,0.795c1.796,0.805-1.104-4.666-7.677-4.295
		C349.365,346.85,348.268,351.145,350.462,350.031z"/>
	<path fill="#ACC562" d="M497.113,351.623c1.254-1.432,4.387-4.295,8.773-4.613c4.389-0.318,7.051,0.478,8.305,1.113
		c1.252,0.637-2.35-6.203-9.871-4.772C496.799,344.783,495.857,353.055,497.113,351.623z"/>
	<path fill="#ACC562" d="M492.1,314.398c-5.443,0.935-8.148-0.159-8.773-2.546c-0.629-2.386,3.133-5.727,10.027-5.409
		C500.248,306.763,513.408,310.74,492.1,314.398z"/>
	<path fill="#ACC562" d="M484.58,307.56c0,0,2.348-2.705,8.461-2.546c6.109,0.159,9.4,1.909,9.4,1.909s-1.41-5.727-10.184-4.932
		C483.482,302.786,484.58,307.56,484.58,307.56z"/>
	<path fill="#ACC562" d="M381.924,212.118c3.79,0.138,7.597,0.145,11.376,0.492c7.014,0.644,13.96,0.814,20.922,1.978
		c6.871,1.149,13.829,1.786,20.656,3.197c0.482,0.1,0.966,0.211,1.449,0.317c-14.291-8.945-27.097-10.771-34.632-10.127
		c-14.817,1.265-22.915,2.588-24.298,4.085C378.89,211.946,380.417,212.063,381.924,212.118z"/>
	<path fill="#ACC562" d="M438.37,219.555c-0.969-0.245-1.943-0.476-2.922-0.678c-6.572-1.358-13.246-2.032-19.862-3.101
		c-3.642-0.59-7.234-1.258-10.923-1.481c-3.494-0.21-6.987-0.328-10.476-0.646c-3.509-0.322-7.025-0.399-10.545-0.515
		c-1.972-0.064-4.202-0.37-6.281-0.162c0.436,0.537,1.65,1.097,3.653,1.685c4.323,1.269,16.912,4.522,23.655,5.446
		C421.817,222.454,441.689,223.166,438.37,219.555z"/>
	<path fill="#ACC562" d="M507.297,261.823c4.924,0.076,9.742,0.698,14.393,2.422c4.441,1.646,8.586,3.952,12.295,6.826
		c-0.432-4.494-4.166-11.939-11.02-13.623c-13.609-3.343-24.824,2.349-27.525,5.963C499.223,262.107,503.281,261.76,507.297,261.823
		z"/>
	<path fill="#ACC562" d="M520.754,264.927c-7.856-2.607-17.955-3.504-25.922-0.276c-0.139,0.881,0.557,1.448,2.283,1.389
		c9.244-0.317,24.756,2.704,34.154,8.113c1.748,1.005,2.66,0.021,2.754-1.891C530.059,269.052,525.56,266.521,520.754,264.927z"/>
	<path fill="#ACC562" d="M398.878,289.9c-2.084-1.692-4.674-13.066,2.35-16.861c9.715-5.25,15.355,4.285,14.57,4.136
		c-2.506-0.478-5.361-0.77-10.027,1.908C398.564,283.22,399.66,290.538,398.878,289.9z"/>
	<path fill="#ACC562" d="M407.964,285.446c-4.301,3.25-8.483,6.911-7.678,4.295c0.624-2.025,2.194-6.681,5.642-8.749
		c3.446-2.068,7.521-2.863,9.401-1.75C416.243,279.785,412.032,282.372,407.964,285.446z"/>
	<path fill="#ACC562" d="M389.477,278.446c3.446-7.316,13.838-10.046,21.934-8.112c2.665,0.637-2.35-10.817-17.39-8.272
		C381.866,264.118,388.567,280.377,389.477,278.446z"/>
	<path fill="#ACC562" d="M510.68,280.694c-2.328-1.342-4.873-2.728-7.494-3.329c-1.916-0.439-3.857-0.604-5.805-0.747
		c-0.029,0.874-0.246,1.752-0.766,2.6c3.983,0.19,7.611,2.453,10.455,5.661c1.365-1.369,2.647-2.749,3.779-4.08
		C510.791,280.765,510.736,280.728,510.68,280.694z"/>
	<path fill="#ACC562" d="M504.223,276.658c2.51,0.817,4.99,1.999,7.242,3.401c3.273-3.995,4.988-7.41,2.887-8.453
		c-4.814-2.384-13.004-4.612-18.176-3.022c-1.881,0.578,0.766,3.662,1.16,7.045C499.668,275.772,502.012,275.941,504.223,276.658z"
		/>
	<path fill="#ACC562" d="M495.879,280.175c-0.006,0.007-0.012,0.015-0.018,0.021c-4.23,4.454-6.424,10.66-5.014,16.386
		c0.449,1.83,8.756-4.341,15.559-11.044C503.557,282.325,499.893,280.109,495.879,280.175z"/>
	<path fill="#ACC562" d="M551.168,280.993c12.275,2.583,33.844,0.954,47.631,0.954s28.828,0.318,44.496,4.296
		c15.668,3.977-14.885-11.932-49.197-13.204C559.785,271.768,538.322,278.29,551.168,280.993z"/>
	<path fill="#ACC562" d="M676.176,206.42c-1.815,1.843-8.383,7.677-7.068,15.188c1.315,7.51,5.588,11.516,9.697,13.686
		c4.109,2.171-18.231-3.163-13.643-16.523C668.943,207.755,678.31,204.249,676.176,206.42z"/>
	<path fill="#ACC562" d="M721.545,254.321c-6.846-1.032-11.762-0.483-8.549,0.333c5.537,1.406,18.086,6.009,20.057,15.855
		c2.268,11.323-3.289,15.689-8.385,18.527c-2.227,1.24,2.408,1.052,7.07-2.671c6.008-4.795,9.1-12.796,4.107-22.698
		C732.23,256.49,725.898,254.975,721.545,254.321z"/>
	<path fill="#ACC562" d="M553.379,283.362c3.313,0.531,18.576,0.836,29.754,0.336c11.178-0.502,23.342-0.835,26.629-0.336
		c3.291,0.501-17.916,4.507-32.055,4.675C563.57,288.204,544.01,281.86,553.379,283.362z"/>
	<path fill="#ACC562" d="M277.54,230.621c3.149-0.521,15.451-2.669,32.054-2.669c16.603,0,30.74,3.336,37.316,5.84
		c6.575,2.505-12.823-10.514-34.521-10.681C290.69,222.943,269.484,231.957,277.54,230.621z"/>
	<path fill="#ACC562" d="M413.486,362.311c2.103-0.516,7.07,0.168,12.002,3.672C430.418,369.488,408.721,363.479,413.486,362.311z"
		/>
	<path fill="#ACC562" d="M458.684,370.518c1.035-1.127,2.08-1.08,2.371-0.195c0.289,0.883,2.225-7.418,0.676-6.73
		C460.184,364.279,456.652,372.729,458.684,370.518z"/>
	<path fill="#ACC562" d="M464.586,370.813c0.697-1.121,1.74-1.326,2.227-0.049c0.482,1.277,1.207-6.336,0-6.484
		C465.603,364.131,463.182,373.072,464.586,370.813z"/>
	<path fill="#ACC562" d="M471.119,371.844c0.645-1.053,1.451-1.475,2.272-0.342c0.822,1.129-0.291-6.779-1.209-6.732
		C471.262,364.818,469.764,374.055,471.119,371.844z"/>
	<path fill="#ACC562" d="M497.969,379.508c0.498-0.75,2.225-0.983,3.436,0.934c1.209,1.916,1.693-8.695-0.678-9.873
		C498.355,369.389,496.082,382.358,497.969,379.508z"/>
	<path fill="#ACC562" d="M509.002,382.504c0.451-1.336,1.307-2.996,3.096-0.785c1.791,2.211,0.289-10.465-2.275-10.66
		C507.258,370.861,507.451,387.072,509.002,382.504z"/>
	<path fill="#ACC562" d="M519.596,382.455c0.5-1.375,1.113-1.965,2.469-0.932c1.354,1.031-0.918-8.648-3.387-9.482
		C516.209,371.207,518.096,386.582,519.596,382.455z"/>
</g>
</svg>
