<?xml version="1.0" encoding="UTF-8"?>
<!DOCTYPE svg PUBLIC "-//W3C//DTD SVG 1.1//EN" "http://www.w3.org/Graphics/SVG/1.1/DTD/svg11.dtd">
<!-- Creator: CorelDRAW X6 -->
<svg xmlns="http://www.w3.org/2000/svg" xml:space="preserve" width="3.49218in" height="6.48895in" version="1.1" style="shape-rendering:geometricPrecision; text-rendering:geometricPrecision; image-rendering:optimizeQuality; fill-rule:evenodd; clip-rule:evenodd"
viewBox="0 0 552 1025"
 xmlns:xlink="http://www.w3.org/1999/xlink">
 <defs>
  <style type="text/css">
   <![CDATA[
    .str0 {stroke:#373435;stroke-width:0.47406}
    .fil13 {fill:none}
    .fil11 {fill:black}
    .fil4 {fill:#092D3D}
    .fil10 {fill:#153A4B}
    .fil14 {fill:#191919}
    .fil3 {fill:#1E1E28}
    .fil7 {fill:#221000}
    .fil9 {fill:#297494}
    .fil12 {fill:#401F00}
    .fil1 {fill:#AD8255}
    .fil6 {fill:#B48772}
    .fil2 {fill:#DBA56A}
    .fil5 {fill:#EBE3D6}
    .fil0 {fill:#F1CCAF}
    .fil8 {fill:white}
   ]]>
  </style>
   <clipPath id="id0">
    <path d="M252 1010c0,-21 -2,-45 -3,-69 -17,-1 -33,-3 -48,-5 0,2 0,4 0,6 1,30 6,61 7,68l44 0z"/>
   </clipPath>
   <clipPath id="id1">
    <path d="M309 941c-1,24 -3,47 -3,69l44 0c1,-7 5,-37 7,-68 0,-2 0,-4 0,-6 -15,2 -31,4 -48,5z"/>
   </clipPath>
 </defs>
 <g id="Layer_x0020_1">
  <metadata id="CorelCorpID_0Corel-Layer"/>
  <path class="fil0" d="M66 474c0,1 -3,7 -3,9 1,2 6,14 6,14l-21 7c-4,1 -10,-10 -14,-14l-2 -2 34 -14z"/>
  <path class="fil1" d="M467 230c-49,23 -271,139 -297,151 -26,13 -56,42 -70,53 -14,10 -87,44 -92,47 -1,0 -1,0 -2,1 -5,2 -6,8 -4,13 3,5 8,7 13,5 1,0 1,-1 2,-1 5,-3 77,-39 94,-44 17,-5 59,-10 85,-23 26,-13 253,-117 302,-141 90,-46 63,-105 -30,-61z"/>
  <path class="fil2" d="M496 291c67,-34 69,-76 28,-76 -8,40 -39,66 -82,95 -34,22 -322,136 -442,182 0,1 0,3 1,4 3,5 8,7 13,5 1,0 1,-1 2,-1 5,-3 77,-39 94,-44 17,-5 59,-10 85,-23 26,-13 253,-117 302,-141z"/>
  <path class="fil3" d="M45 505c0,0 -2,-3 -2,-4 -2,-4 30,-12 30,-11l3 6 -30 9z"/>
  <path class="fil4" d="M42 504c0,0 10,-6 19,-8 8,-2 14,-2 14,-2 0,0 24,44 46,69 22,25 40,37 40,37 -22,94 -91,-51 -118,-96z"/>
  <path class="fil0" d="M451 754c22,-44 -28,-200 -37,-194l-24 17c0,0 16,22 25,43 11,28 15,60 17,90 0,2 -1,8 -4,12 -3,6 -16,19 -13,22 3,3 8,1 11,-2 3,-3 6,-7 6,-7 6,14 0,16 -9,28 -13,16 23,2 28,-9z"/>
  <path class="fil3" d="M458 709c0,0 0,3 0,4 0,4 -32,-1 -32,-1l0 -7 32 4z"/>
  <path class="fil4" d="M419 559c30,36 36,108 41,152 0,0 -12,1 -20,0 -9,-1 -14,-3 -14,-3 0,0 -4,-50 -14,-81 -10,-32 -22,-50 -22,-50l30 -18z"/>
  <path class="fil5" d="M122 564c9,18 20,38 36,53 12,-12 23,-26 30,-42l-2 176c0,0 73,14 92,12 18,2 91,-12 91,-12l-1 -177c7,16 17,29 30,42 16,-15 27,-35 36,-53 -42,-75 -73,-107 -124,-107l-56 0c-54,-2 -88,30 -131,107z"/>
  <path class="fil4" d="M409 568l-14 21 -10 14c2,3 5,5 7,8l9 -13 19 -28 10 -15c-2,-3 -4,-7 -6,-10l-15 22z"/>
  <path class="fil4" d="M162 587l-18 -27 0 0 -9 -14c-2,3 -4,6 -6,10l6 9 3 4 18 27 2 2 8 12c2,-3 5,-5 7,-8l-10 -15 -1 -1z"/>
  <path class="fil4" d="M281 476c-7,0 -13,-1 -19,-3l-1 -1 0 -11c-3,-1 -6,-2 -8,-4 -3,0 -7,0 -10,0 0,24 17,44 37,44 20,0 36,-19 37,-43 -2,0 -5,0 -7,0l-1 0c-2,2 -6,4 -10,5l0 4c0,0 0,0 0,0l0 6 0 1c-5,1 -11,2 -17,2z"/>
  <path class="fil5" d="M293 807c26,58 14,140 13,203l44 0c1,-7 5,-37 7,-68 2,-35 17,-185 12,-198 -5,-14 -10,-16 -10,-16 -55,-1 -104,-1 -159,0 0,0 -5,2 -10,16 -5,14 10,164 12,198 1,30 6,61 7,68l44 0c-1,-63 -13,-145 13,-203 7,-17 20,-17 28,0z"/>
  <path class="fil0" d="M262 447l37 0 0 26c-2,3 -15,9 -19,9 -4,0 -15,-7 -18,-10l0 -26z"/>
  <path class="fil6" d="M262 466c13,7 25,7 37,1l0 -21c-12,1 -25,0 -37,-1l0 21z"/>
  <path class="fil0" d="M159 342c0,0 -12,0 -23,-6 -19,-10 -17,-53 -7,-53 4,0 24,24 24,24l5 35z"/>
  <path class="fil0" d="M404 342c0,0 12,0 23,-6 19,-10 17,-53 7,-53 -4,0 -24,24 -24,24l-5 35z"/>
  <path class="fil0" d="M133 220c0,0 10,129 21,163 11,34 89,64 99,74 9,10 47,10 57,0 10,-10 87,-41 99,-74 11,-34 21,-163 21,-163l-15 -53 -268 0 -15 53z"/>
  <path class="fil7" d="M378 152l15 72 25 14 -1 95c0,0 6,5 9,-31 3,-36 5,-134 5,-134l-53 -17z"/>
  <path class="fil7" d="M182 152l-15 72 -25 14 1 95c0,0 -6,5 -9,-31 -3,-36 -5,-134 -5,-134l53 -17z"/>
  <path class="fil6" d="M181 279c-16,15 -10,40 59,24 8,-2 9,-3 9,-3 0,-1 -1,-1 -1,-2 -1,1 -3,1 -7,2 -62,16 -71,-5 -60,-22z"/>
  <path class="fil8" d="M248 298c0,0 -1,1 -8,3 -128,33 -29,-97 8,-3z"/>
  <path class="fil9" d="M236 276c-15,-18 -35,-15 -47,-6 -2,3 -2,6 -2,10 0,13 11,23 25,23 14,0 25,-10 25,-23 0,-1 0,-3 0,-4z"/>
  <ellipse class="fil10" cx="211" cy="283" rx="19" ry="18"/>
  <ellipse class="fil9" cx="213" cy="282" rx="16" ry="15"/>
  <circle class="fil11" cx="213" cy="283" r="11"/>
  <ellipse class="fil8" cx="221" cy="276" rx="3" ry="2"/>
  <path class="fil8" d="M310 298c0,0 1,1 8,3 128,33 29,-97 -8,-3z"/>
  <path class="fil9" d="M322 276c15,-18 35,-15 47,-6 2,3 2,6 2,10 0,13 -11,23 -25,23 -14,0 -25,-10 -25,-23 0,-1 0,-3 0,-4z"/>
  <ellipse class="fil10" cx="347" cy="283" rx="19" ry="18"/>
  <ellipse class="fil9" cx="346" cy="282" rx="16" ry="15"/>
  <circle class="fil11" cx="345" cy="283" r="11"/>
  <ellipse class="fil8" cx="337" cy="276" rx="3" ry="2"/>
  <path class="fil12" d="M163 254l7 4c0,0 21,-7 38,-7 17,-1 32,4 32,4 0,0 3,-20 -2,-22 -6,-1 -37,3 -50,6 -13,3 -25,15 -25,15z"/>
  <path class="fil12" d="M386 254l-7 4c0,0 -21,-7 -38,-7 -17,-1 -32,4 -32,4 0,0 -3,-20 2,-22 6,-1 37,3 50,6 13,3 25,15 25,15z"/>
  <path class="fil6" d="M378 279c16,15 10,40 -59,24 -8,-2 -9,-3 -9,-3 0,-1 1,-1 1,-2 1,1 3,1 7,2 62,16 71,-5 60,-22z"/>
  <polygon class="fil6" points="252,330 250,335 277,342 302,335 297,328 294,334 277,339 255,333 "/>
  <path class="fil12" d="M135 215l42 -37 3 -14c0,0 0,0 0,0l-41 36 -9 8c0,4 0,8 0,12l5 -4z"/>
  <path class="fil12" d="M174 191l-40 36 -4 3c0,4 0,8 0,12l4 -4 36 -32 3 -15z"/>
  <path class="fil12" d="M169 214l-34 30 -5 4c0,4 0,8 0,12l5 -5 6 -5 0 -11 25 -14 2 -11z"/>
  <path class="fil12" d="M142 272l0 -12 -5 4 -6 5c0,4 0,8 1,12l6 -6 4 -3z"/>
  <path class="fil12" d="M425 215l-42 -37 -3 -14c0,0 0,0 0,0l41 36 9 8c0,4 0,8 0,12l-5 -4z"/>
  <path class="fil12" d="M386 191l40 36 4 3c0,4 0,8 0,12l-4 -4 -36 -32 -3 -15z"/>
  <path class="fil12" d="M391 214l34 30 5 4c0,4 0,8 0,12l-5 -5 -6 -5 0 -11 -25 -14 -2 -11z"/>
  <path class="fil12" d="M418 272l0 -12 5 4 6 5c0,4 0,8 -1,12l-6 -6 -4 -3z"/>
  <path class="fil4" d="M189 759c22,4 69,11 83,13 13,1 70,-7 98,-11 0,-3 0,-6 0,-8 -7,1 -73,14 -90,12 -17,2 -81,-10 -90,-12 0,2 0,4 0,6z"/>
  <path class="fil4" d="M273 727c0,-80 0,-177 2,-203 1,-13 3,-22 4,-27 -2,0 -3,0 -5,0 -1,5 -2,13 -3,23 -3,26 -3,126 -2,207 0,14 0,27 0,39 1,0 3,0 4,0 0,-12 0,-26 0,-40z"/>
  <path class="fil4" d="M287 727c0,-81 0,-179 2,-205 1,-13 3,-22 4,-27 -2,0 -3,0 -5,0 -1,5 -2,13 -3,24 -3,26 -3,127 -2,209 0,14 0,27 0,40 1,0 3,0 4,0 0,-12 0,-26 0,-40z"/>
  <circle class="fil4" cx="279" cy="575" r="3"/>
  <circle class="fil4" cx="280" cy="540" r="3"/>
  <circle class="fil4" cx="279" cy="611" r="3"/>
  <circle class="fil4" cx="279" cy="659" r="3"/>
  <circle class="fil4" cx="279" cy="709" r="3"/>
  <path class="fil4" d="M252 1010c0,-21 -2,-45 -3,-69 -17,-1 -33,-3 -48,-5 0,2 0,4 0,6 1,30 6,61 7,68l44 0z"/>
  <g style="clip-path:url(#id0)">
   <g id="_678343776">
    <g>
     <g>
      <g>
       <rect class="fil5" transform="matrix(0.323693 0.0321637 -0.0321637 0.323693 175.074 936.814)" width="286" height="16"/>
       <rect class="fil5" transform="matrix(0.323693 0.0321637 -0.0321637 0.323693 174.335 949.378)" width="286" height="16"/>
      </g>
      <rect class="fil5" transform="matrix(0.322795 0.0305999 -0.0390325 0.18857 174.888 944.396)" width="286" height="16"/>
     </g>
     <g>
      <g>
       <rect class="fil5" transform="matrix(-0.323693 0.0321637 0.0321637 0.323693 383.178 936.814)" width="286" height="16"/>
       <rect class="fil5" transform="matrix(-0.323693 0.0321637 0.0321637 0.323693 383.917 949.378)" width="286" height="16"/>
      </g>
      <rect class="fil5" transform="matrix(-0.322795 0.0305999 0.0390325 0.18857 383.365 944.396)" width="286" height="16"/>
     </g>
    </g>
   </g>
  </g>
  <path class="fil13" d="M252 1010c0,-21 -2,-45 -3,-69 -17,-1 -33,-3 -48,-5 0,2 0,4 0,6 1,30 6,61 7,68l44 0z"/>
  <path class="fil4" d="M309 941c-1,24 -3,47 -3,69l44 0c1,-7 5,-37 7,-68 0,-2 0,-4 0,-6 -15,2 -31,4 -48,5z"/>
  <g style="clip-path:url(#id1)">
   <g id="_678345912">
    <g>
     <g>
      <g>
       <rect class="fil5" transform="matrix(0.323693 0.0321637 -0.0321637 0.323693 175.074 936.814)" width="286" height="16"/>
       <rect class="fil5" transform="matrix(0.323693 0.0321637 -0.0321637 0.323693 174.335 949.378)" width="286" height="16"/>
      </g>
      <rect class="fil5" transform="matrix(0.322795 0.0305999 -0.0390325 0.18857 174.888 944.396)" width="286" height="16"/>
     </g>
     <g>
      <g>
       <rect class="fil5" transform="matrix(-0.323693 0.0321637 0.0321637 0.323693 383.178 936.814)" width="286" height="16"/>
       <rect class="fil5" transform="matrix(-0.323693 0.0321637 0.0321637 0.323693 383.917 949.378)" width="286" height="16"/>
      </g>
      <rect class="fil5" transform="matrix(-0.322795 0.0305999 0.0390325 0.18857 383.365 944.396)" width="286" height="16"/>
     </g>
    </g>
   </g>
  </g>
  <path class="fil13" d="M309 941c-1,24 -3,47 -3,69l44 0c1,-7 5,-37 7,-68 0,-2 0,-4 0,-6 -15,2 -31,4 -48,5z"/>
  <path class="fil11" d="M298 1021c-1,4 102,9 103,-1 2,-30 -41,-31 -61,-26 -7,2 -14,6 -20,3 -5,-3 -9,-10 -13,-8 -3,1 -9,32 -9,32z"/>
  <path class="fil14" d="M400 1017c0,1 0,2 0,3 0,10 -104,5 -103,1 0,0 0,-2 1,-5 12,2 33,5 57,5 18,0 34,-2 45,-4z"/>
  <polygon class="fil5" points="266,763 293,763 293,778 266,778 "/>
  <polygon class="fil4" points="281,768 292,768 292,771 281,771 "/>
  <polygon class="fil5" points="242,759 247,760 245,773 240,772 "/>
  <polygon class="fil5" points="232,757 237,758 235,770 230,770 "/>
  <polygon class="fil5" points="316,759 311,760 313,773 318,772 "/>
  <polygon class="fil5" points="326,757 321,758 324,770 328,770 "/>
  <circle class="fil4" cx="330" cy="562" r="18"/>
  <path class="fil5" d="M323 562c0,-5 -1,-10 -4,-14 -1,0 -1,1 -2,1 2,4 3,8 3,13 0,5 -1,9 -3,13 1,1 1,1 2,1 2,-4 4,-9 4,-14z"/>
  <path class="fil5" d="M341 547c-2,4 -4,9 -4,14 0,5 1,10 4,14 1,0 1,-1 2,-1 -2,-4 -3,-8 -3,-13 0,-5 1,-9 3,-13 -1,-1 -1,-1 -2,-1z"/>
  <polygon class="fil5" points="318,561 325,561 325,562 318,562 "/>
  <polygon class="fil5" points="325,558 318,556 318,557 325,559 "/>
  <polygon class="fil5" points="325,565 318,567 318,566 325,564 "/>
  <polygon class="fil5" points="342,561 335,561 335,562 342,562 "/>
  <polygon class="fil5" points="335,558 342,556 342,557 335,559 "/>
  <polygon class="fil5" points="335,565 342,567 342,566 335,564 "/>
  <path class="fil4" d="M191 787c6,0 22,-11 24,-24 -10,-2 -19,-3 -26,-4 0,7 0,17 1,28 0,0 -5,0 1,0z"/>
  <path class="fil4" d="M344 764c2,13 18,23 24,23 6,0 1,0 1,0 1,-10 1,-20 1,-27 -7,1 -16,2 -26,4z"/>
  <path class="fil11 str0" d="M124 195c-2,-25 2,-72 -7,-93 -19,-43 122,-103 161,-102 39,-3 177,54 161,102 -8,25 -5,65 -7,93 -26,-4 -51,-10 -77,-15 -26,-5 -51,-10 -77,-13 -26,3 -51,8 -77,13 -26,5 -51,11 -77,15z"/>
  <path class="fil9" d="M403 46c-40,-27 -100,-48 -124,-46 -24,0 -85,21 -126,48 -2,6 -4,12 -6,17 -4,14 -1,60 3,97 0,1 0,3 0,4 0,3 1,6 1,9 6,-2 13,-5 21,-7 1,0 2,0 2,-1 2,0 3,-1 5,-1 0,0 1,0 1,0 29,-8 64,-15 99,-15 34,0 68,7 97,15 2,1 4,1 6,2 0,0 0,0 0,0 1,0 3,1 4,1 1,0 2,0 2,1 6,2 12,4 17,6 0,-3 1,-6 1,-9 0,-2 0,-3 0,-5 3,-36 6,-82 3,-96 -1,-5 -4,-12 -7,-20z"/>
  <path class="fil11" d="M263 1021c1,4 -102,9 -103,-1 -2,-30 41,-31 61,-26 7,2 14,6 20,3 5,-3 9,-10 13,-8 3,1 9,32 9,32z"/>
  <path class="fil14" d="M160 1017c0,1 0,2 0,3 0,10 104,5 103,1 0,0 0,-2 -1,-5 -12,2 -33,5 -57,5 -18,0 -34,-2 -45,-4z"/>
  <path class="fil10" d="M197 195c27,-8 54,-15 81,-15 27,0 54,7 81,15 9,3 104,41 85,3 -7,-13 -29,-25 -59,-35 -30,-10 -68,-20 -107,-20 -38,0 -76,9 -107,19 -30,10 -53,22 -60,36 -3,6 -2,11 -1,14 7,13 73,-14 85,-18z"/>
  <path class="fil6" d="M173 209c30,-10 69,-19 107,-19 38,0 76,10 107,20 1,0 2,1 3,1l-1 -6c-14,-5 -26,-9 -29,-10 -27,-8 -54,-15 -81,-15 -27,0 -54,7 -81,15 -4,1 -14,5 -26,9l0 1 -1 5c1,0 2,-1 4,-1z"/>
  <path class="fil11" d="M197 195c27,-8 54,-15 81,-15 27,0 54,7 81,15 3,1 15,6 29,10 0,0 0,0 0,0 6,2 13,4 20,6 5,1 10,2 15,3 1,0 3,0 4,0 0,0 1,0 1,0 0,0 0,0 0,0 3,0 5,0 7,0 -2,-2 -4,-4 -7,-6 0,0 0,0 0,0 -1,-1 -2,-2 -4,-2 -7,-4 -15,-8 -24,-12 -5,-2 -11,-4 -17,-6 0,0 -1,0 -1,0 -6,-2 -13,-4 -20,-6 -22,-6 -46,-11 -71,-13 -5,0 -11,-1 -16,-1 -4,0 -8,0 -12,0 -30,1 -59,8 -85,16 -2,1 -4,1 -6,2 -1,0 -3,1 -4,1 -3,1 -5,2 -8,3 -9,3 -17,7 -24,10 -1,0 -2,1 -2,1 -2,1 -4,2 -7,4 -5,3 -10,7 -13,10 3,1 8,1 13,0 2,0 3,-1 5,-1 0,0 0,0 0,0 5,-1 11,-2 16,-4 7,-2 13,-4 20,-6 12,-4 22,-8 26,-9z"/>
  <path class="fil11" d="M278 33c11,0 21,3 29,9 -4,8 -8,17 -9,27l-7 2 1 4 5 -1c0,2 0,4 0,6l-6 0 0 4 6 0c0,2 0,4 0,6l-5 -1 -1 4 7 2c1,10 5,20 9,27 -8,6 -18,9 -29,9 -11,0 -21,-3 -29,-9 4,-8 8,-17 9,-27l7 -2 -1 -4 -5 1c0,-2 0,-4 0,-6l6 0 0 -4 -6 0c0,-2 0,-4 0,-6l5 1 1 -4 -7 -2c-1,-10 -5,-20 -9,-27 8,-6 18,-9 29,-9zm-34 84c-9,-9 -15,-22 -15,-36 0,-14 6,-27 15,-36 3,7 5,14 7,22l-6 -2 -1 4 7 2c0,3 0,5 1,8l-8 0 0 4 8 0c0,3 0,5 -1,8l-7 2 1 4 6 -2c-1,8 -4,15 -7,22zm67 -71c9,9 15,22 15,36 0,14 -6,27 -15,36 -3,-7 -5,-14 -7,-22l6 2 1 -4 -7 -2c0,-3 0,-5 -1,-8l8 0 0 -4 -8 0c0,-3 0,-5 1,-8l7 -2 -1 -4 -6 2c1,-8 4,-15 7,-22z"/>
  <path class="fil0" d="M61 470c5,0 5,3 5,5 0,2 -4,3 -9,3 -5,0 -8,-1 -8,-3 0,-2 7,-5 12,-5z"/>
  <path class="fil0" d="M29 472c-1,-4 -1,-8 0,-10 -2,2 -4,5 -4,9 0,1 0,2 0,2 1,-1 2,-1 3,-2z"/>
  <path class="fil0" d="M29 461c1,0 2,0 4,2 0,-3 0,-5 2,-6 1,0 2,0 4,2 0,-2 1,-4 2,-5 1,-1 3,1 5,3 0,-2 1,-3 2,-3 2,-1 5,3 7,8 2,5 2,10 0,11 -1,0 -3,0 -4,-2 0,2 -1,4 -2,4 -1,0 -3,-1 -5,-2 0,2 -1,3 -2,4 -1,0 -3,0 -4,-2 1,4 0,7 -2,7 -2,1 -5,-3 -7,-9 -2,-6 -2,-11 1,-12z"/>
  <path class="fil6" d="M29 462c0,0 0,0 0,0 0,0 0,0 0,0zm-2 10c0,0 0,1 0,1 1,0 1,-1 2,-1 -1,-5 -1,-9 0,-10 0,0 -1,1 -1,1 -1,2 -2,5 -1,9z"/>
  <path class="fil6" d="M33 460c0,1 0,2 0,3 1,1 1,4 2,6 0,1 1,2 1,2 0,0 0,-1 -1,-3 -1,-3 -2,-8 -2,-8z"/>
  <path class="fil6" d="M38 459c1,1 1,5 2,7 0,1 0,1 0,1 0,0 0,-1 0,-1 0,-2 -1,-7 -2,-9 0,0 0,1 0,2 -1,-1 -2,-1 -2,-2 1,0 2,1 2,2z"/>
  <path class="fil6" d="M44 456c1,2 1,4 2,7 1,2 1,4 1,4 0,0 0,-2 -1,-4 0,-2 -1,-5 -1,-7 0,0 0,1 0,1 0,0 0,-1 -1,-1z"/>
  <path class="fil6" d="M349 361c-26,34 -108,37 -136,-1 17,13 41,21 64,21 23,0 56,-9 72,-20z"/>
  <path class="fil6" d="M305 406c-4,8 -13,14 -22,15l0 0 0 0 0 0 0 0c-9,-1 -18,-6 -22,-15 18,10 28,10 44,0z"/>
  <path class="fil10" d="M153 49c-2,5 -4,11 -5,15 13,-10 18,-15 38,-23 20,-8 63,-27 95,-38 19,6 42,14 66,26 24,12 44,22 60,30 -1,-4 -3,-8 -4,-12 -36,-24 -88,-43 -116,-45 -3,0 -6,0 -9,0 -24,0 -85,21 -126,48z"/>
  <path class="fil9" d="M217 162c-14,3 -27,7 -40,12 0,0 0,0 0,0 -4,2 -9,3 -13,5 -2,1 -4,2 -6,3 -2,1 -3,1 -5,2 0,0 0,0 0,0 -3,1 -5,2 -8,4 0,0 -1,0 -1,1 -1,0 -1,1 -2,1 -4,2 -8,4 -11,6 -5,3 -10,6 -15,9 -5,3 -5,7 2,8 3,-4 8,-7 13,-10 2,-1 4,-3 7,-4 1,0 2,-1 2,-1 7,-4 15,-7 24,-10 3,-1 5,-2 8,-3 1,0 3,-1 4,-1 2,-1 4,-1 6,-2 25,-8 55,-14 85,-16 4,0 8,0 12,0 5,0 11,0 16,1 25,2 49,7 71,13 7,2 13,4 20,6l1 0c6,2 12,4 17,6 9,4 18,8 24,12 1,1 2,2 4,2l0 0c3,2 5,4 7,6 16,-1 -1,-8 -7,-12 -2,-1 -4,-2 -6,-3 -1,0 -1,-1 -2,-1 -2,-1 -4,-2 -5,-3 -4,-2 -9,-4 -14,-7 0,0 0,0 0,0l-2 -1c-4,-2 -7,-3 -11,-5 -2,-1 -4,-2 -6,-2 -2,-1 -4,-1 -6,-2 -14,-5 -29,-10 -44,-13 -13,-3 -25,-5 -38,-6 -6,-1 -13,-1 -19,-1 -5,0 -10,0 -15,0 -16,1 -31,3 -46,7z"/>
 </g>
</svg>
