<?xml version="1.0" encoding="utf-8"?>
<!-- Generator: Adobe Illustrator 24.0.0, SVG Export Plug-In . SVG Version: 6.00 Build 0)  -->
<svg version="1.1" id="w3pose1Svg" xmlns="http://www.w3.org/2000/svg" xmlns:xlink="http://www.w3.org/1999/xlink" x="0px" y="0px"
	 viewBox="0 0 1400 1400" enable-background="new 0 0 1400 1400" xml:space="preserve">
<g>
	<g>
		<path fill="#E2A17D" d="M712.43,774.38h-31.28c-11.3,0-20.54-9.24-20.54-20.54v-103.1c0-11.3,9.24-20.54,20.54-20.54h31.27
			c11.3,0,20.54,9.24,20.54,20.54v103.1C732.97,765.14,723.73,774.38,712.43,774.38z"/>
		<g>
			<path fill="#272D51" d="M678.73,1403.69v-216.41c0-22.18-18.15-40.33-40.33-40.33s-40.33,18.15-40.33,40.33v216.41H678.73z"/>
			<path fill="#272D51" d="M795.85,1403.69v-251.01c0-22.18-18.15-40.33-40.33-40.33s-40.33,18.15-40.33,40.33v251.01H795.85z"/>
			<path fill="#272D51" d="M766.9,1275.13H627.02c-15.93,0-28.96-13.03-28.96-28.96v-93.54c0-15.93,13.03-28.96,28.96-28.96H766.9
				c15.93,0,28.96,13.03,28.96,28.96v93.54C795.85,1262.1,782.82,1275.13,766.9,1275.13z"/>
			<path fill="#FFFFFF" d="M630.04,765.39l66.26,185.76l66.26-185.76c2.04-5.44,5.07-10.05,8.59-13.51
				c-6.98-4.1-15.01-6.56-23.58-6.87c-0.62-0.02-1.22-0.09-1.84-0.09h-97.15c-0.62,0-1.23,0.07-1.84,0.09
				c-9.01,0.33-17.43,3.04-24.66,7.53C625.32,755.92,628.12,760.28,630.04,765.39z"/>
			<path fill="#ED497A" d="M698.19,1112.34L698.19,1112.34c-9.09,0-16.53-7.44-16.53-16.53V802.25c0-9.09,7.44-16.53,16.53-16.53
				l0,0c9.09,0,16.53,7.44,16.53,16.53v293.57C714.72,1104.91,707.28,1112.34,698.19,1112.34z"/>

			<ellipse transform="matrix(0.9024 -0.4309 0.4309 0.9024 -273.1383 378.1634)" fill="#C43A66" cx="698.19" cy="792.01" rx="19.47" ry="19.47"/>
			<path fill="#13183A" d="M777.49,747.2c-5.81-1.38-11.83-2.19-18.05-2.19h-11.87c8.57,0.31,16.6,2.77,23.58,6.87
				C773.14,749.93,775.28,748.35,777.49,747.2z"/>
			<path fill="#13183A" d="M622.08,752.54c7.23-4.49,15.64-7.2,24.66-7.53h-19.26c-4.84,0-9.56,0.51-14.16,1.36
				C616.4,747.62,619.39,749.74,622.08,752.54z"/>
			<path fill="#FFFFFF" d="M795.85,789.45c0.06,0.47,0.12,0.95,0.16,1.43C795.97,790.39,795.91,789.92,795.85,789.45z"/>
			<path fill="#13183A" d="M800.45,756.76c2.36,6.68,2.24,15.36-0.93,23.82l-3.74,8.19l-92.56,202.46
				c-0.84,5.06-2.58,9.27-5.35,11.69l-0.72,1.58c-0.3-0.12-0.57-0.32-0.85-0.48c-0.29,0.16-0.55,0.35-0.85,0.48l-0.72-1.58
				c-2.77-2.42-4.51-6.63-5.35-11.69l-91.18-199.45l-5.12-11.2c-3.88-10.35-3.19-21.05,1.04-27.98
				c-26.55,12.6-45.07,39.63-45.07,70.84v0c0,32.75,20.35,164.6,49.02,226.21v110.51c0,27.78,22.73,50.52,50.52,50.52h97.15
				c27.78,0,50.52-22.73,50.52-50.52v-128.34c24.72-66.28,41.63-178.52,41.63-208.38v0C837.88,795.33,822.83,770.62,800.45,756.76z"
			/>
			<g>
				<path fill="#13183A" d="M802.57,758.16c8.13,12.33,12.88,27.05,12.88,42.84v0c0,29.86-16.91,142.1-41.63,208.38v128.34
					c0,27.78-22.73,50.52-50.52,50.52h-97.15c-8.13,0-15.81-1.99-22.63-5.44c8.34,16.49,25.42,27.89,45.07,27.89h97.15
					c27.78,0,50.52-22.73,50.52-50.52v-128.34c24.72-66.28,41.63-178.52,41.63-208.38v0C837.9,796.23,823.78,772.23,802.57,758.16z"
				/>
			</g>
			<path fill="#272D51" d="M771.15,751.88c-3.52,3.46-6.55,8.06-8.59,13.51L696.3,951.15l3.89,10.92
				c3.24,8.64,4.52,20.19,3.03,29.17l92.56-202.46l3.74-8.19c3.17-8.46,3.29-17.14,0.93-23.82c-1.78-5.02-4.95-8.92-9.31-10.71
				c-4.32-1.78-9.12-1.21-13.64,1.15C775.28,748.35,773.14,749.93,771.15,751.88z"/>
			<path fill="#272D51" d="M696.3,1004.04c0.29,0.16,0.55,0.35,0.85,0.48l0.72-1.58C697.38,1003.36,696.86,1003.73,696.3,1004.04z"
			/>
			<path fill="#272D51" d="M694.72,1002.93l-5.35-11.69C690.22,996.3,691.95,1000.51,694.72,1002.93z"/>
			<path fill="#272D51" d="M593.08,780.59l5.12,11.2l91.18,199.45l5.35,11.69l0.72,1.58c0.3-0.12,0.57-0.32,0.85-0.48
				c0.56-0.31,1.09-0.68,1.58-1.11c2.77-2.42,4.51-6.63,5.35-11.69c1.49-8.98,0.21-20.53-3.03-29.17l-3.89-10.92l-66.26-185.76
				c-1.92-5.11-4.71-9.47-7.96-12.85c-2.69-2.8-5.68-4.92-8.76-6.18c-3.98-1.63-8.1-1.85-11.85-0.31c-3.06,1.26-5.53,3.56-7.35,6.55
				C589.88,759.54,589.2,770.23,593.08,780.59z"/>
			<path fill="#FFFFFF" d="M665.59,799l-44.28-44.28c-3.05-3.05-3.05-8.04,0-11.09l21.66-21.66c3.05-3.05,8.04-3.05,11.09,0
				l44.28,44.28c3.05,3.05,3.05,8.04,0,11.09L676.68,799C673.63,802.05,668.64,802.05,665.59,799z"/>
			<path fill="#FFFFFF" d="M775.08,754.72L730.8,799c-3.05,3.05-8.04,3.05-11.09,0l-21.66-21.66c-3.05-3.05-3.05-8.04,0-11.09
				l44.28-44.28c3.05-3.05,8.04-3.05,11.09,0l21.66,21.66C778.13,746.68,778.13,751.67,775.08,754.72z"/>
			<path fill="#0E122C" d="M694.72,1057.94L694.72,1057.94c-5.84,0-10.62-4.78-10.62-10.62l0,0c0-5.84,4.78-10.62,10.62-10.62l0,0
				c5.84,0,10.62,4.78,10.62,10.62l0,0C705.34,1053.16,700.56,1057.94,694.72,1057.94z"/>
			<path fill="#0E122C" d="M694.72,1107.75L694.72,1107.75c-5.84,0-10.62-4.78-10.62-10.62l0,0c0-5.84,4.78-10.62,10.62-10.62l0,0
				c5.84,0,10.62,4.78,10.62,10.62l0,0C705.34,1102.97,700.56,1107.75,694.72,1107.75z"/>
			<path fill="#0E122C" d="M694.72,1157.57L694.72,1157.57c-5.84,0-10.62-4.78-10.62-10.62l0,0c0-5.84,4.78-10.62,10.62-10.62l0,0
				c5.84,0,10.62,4.78,10.62,10.62l0,0C705.34,1152.79,700.56,1157.57,694.72,1157.57z"/>
		</g>
	</g>
	<g id="gHead">
		<g>
			<path fill="#E59A76" d="M696.79,649.41c-19.9,0-36.18,12.1-36.18,26.9v15.48c0,14.79,16.28,26.9,36.18,26.9
				c19.9,0,36.18-12.1,36.18-26.9v-15.48C732.97,661.52,716.69,649.41,696.79,649.41z"/>
			<path fill="#362638" d="M642.35,414.31L642.35,414.31c-8.03,8.03-21.16,8.03-29.18,0l-56.98-56.98c-8.03-8.03-8.03-21.16,0-29.18
				v0c8.03-8.03,21.16-8.03,29.18,0l56.98,56.98C650.37,393.15,650.37,406.28,642.35,414.31z"/>
			<path fill="#362638" d="M660.19,371.23L660.19,371.23c0,11.35-9.29,20.64-20.64,20.64h-80.58c-11.35,0-20.64-9.29-20.64-20.64
				l0,0c0-11.35,9.29-20.64,20.64-20.64h80.58C650.91,350.59,660.19,359.88,660.19,371.23z"/>

			<ellipse transform="matrix(0.7071 -0.7071 0.7071 0.7071 -98.4719 619.1906)" fill="#362638" cx="698.19" cy="428.46" rx="160.24" ry="160.24"/>

			<ellipse transform="matrix(0.2217 -0.9751 0.9751 0.2217 -70.2741 953.0966)" fill="#F6C6AA" cx="561.9" cy="520.57" rx="37.36" ry="37.36"/>

			<ellipse transform="matrix(0.2235 -0.9747 0.9747 0.2235 140.8126 1217.899)" fill="#F6C6AA" cx="834.81" cy="520.57" rx="37.36" ry="37.36"/>
			<circle fill="#ED9E8F" cx="835.01" cy="520.57" r="25.43"/>
			<circle fill="#ED9E8F" cx="561.9" cy="520.57" r="25.43"/>
			<path fill="#F6C6AA" d="M730,685.98h-63.61c-57.76,0-105.01-47.26-105.01-105.01V406.5c0-57.76,47.26-105.01,105.01-105.01H730
				c57.76,0,105.01,47.26,105.01,105.01v174.46C835.01,638.72,787.75,685.98,730,685.98z"/>
			<path fill="#E8B494" d="M787.17,326.74c15.81,20.67,25.25,46.45,25.25,74.33v138.92c0,67.53-55.25,122.78-122.78,122.78h-28.06
				c-27.88,0-53.66-9.44-74.33-25.25c22.49,29.39,57.88,48.46,97.53,48.46h28.06c67.53,0,122.78-55.25,122.78-122.78V424.27
				C835.63,384.62,816.57,349.22,787.17,326.74z"/>
			<path fill="#362638" d="M712.76,275.7h-28.06c-178.37,21.11-117.55,120.94-125.94,120.94H830.6
				C815.7,345.62,796.24,275.7,712.76,275.7z"/>
			<path fill="#362638" d="M632.2,441.11L632.2,441.11c-30.51,0-55.47-14.21-55.47-31.57v-31.57c0-17.37,24.96-31.57,55.47-31.57
				l0,0c30.51,0,55.47,14.21,55.47,31.57v31.57C687.67,426.9,662.71,441.11,632.2,441.11z"/>
			<path fill="#362638" d="M570.85,527.41L570.85,527.41c-6.95,0-12.63-5.68-12.63-12.63V396.91c0-6.95,5.68-12.63,12.63-12.63l0,0
				c6.95,0,12.63,5.68,12.63,12.63v117.87C583.48,521.73,577.79,527.41,570.85,527.41z"/>
			<path fill="#362638" d="M825.54,527.41L825.54,527.41c-6.95,0-12.63-5.68-12.63-12.63V396.91c0-6.95,5.68-12.63,12.63-12.63l0,0
				c6.95,0,12.63,5.68,12.63,12.63v117.87C838.17,521.73,832.48,527.41,825.54,527.41z"/>
			<path fill="#362638" d="M610.18,409.54h-21.83c-7.89,0-14.34-6.45-14.34-14.34v-34.46c0-7.89,6.45-14.34,14.34-14.34h21.83
				c7.89,0,14.34,6.45,14.34,14.34v34.46C624.52,403.08,618.07,409.54,610.18,409.54z"/>
			<path fill="#362638" d="M814.63,417.49H676.28c-11.1,0-20.18-9.08-20.18-20.18v-30.73c0-11.1,9.08-20.18,20.18-20.18h138.35
				c11.1,0,20.18,9.08,20.18,20.18v30.73C834.81,408.41,825.73,417.49,814.63,417.49z"/>
			<path fill="#7F8297" d="M611.4,327.05l-19.58,19.58c-1.86,1.86-4.9,1.86-6.76,0v0c-1.86-1.86-1.86-4.9,0-6.76l19.58-19.58
				c1.86-1.86,4.9-1.86,6.76,0l0,0C613.26,322.15,613.26,325.19,611.4,327.05z"/>
			<path fill="#7F8297" d="M619.33,317.57L619.33,317.57c-2.86,0-5.2-2.34-5.2-5.2l0,0c0-2.86,2.34-5.2,5.2-5.2l0,0
				c2.86,0,5.2,2.34,5.2,5.2l0,0C624.52,315.23,622.18,317.57,619.33,317.57z"/>
			<g id="gHair">
				<g>
					<path fill="#362638" d="M879.51,341.55l-65.5,65.5c-11.9,11.9-31.37,11.9-43.27,0v0c-11.9-11.9-11.9-31.37,0-43.27l65.5-65.5
						c11.9-11.9,31.37-11.9,43.27,0v0C891.41,310.18,891.41,329.65,879.51,341.55z"/>
					<path fill="none" stroke="#7F8297" stroke-width="3.1836" stroke-linecap="round" stroke-miterlimit="10" d="M841.62,304.15
						c8.8-8.8,23.21-8.8,32.02,0l0,0c8.8,8.8,8.8,23.21,0,32.02"/>
					<path fill="#7F8297" d="M835.85,313.63L835.85,313.63c-1.78,0-3.23-1.45-3.23-3.23l0,0c0-1.78,1.45-3.23,3.23-3.23l0,0
						c1.78,0,3.23,1.45,3.23,3.23l0,0C839.08,312.18,837.62,313.63,835.85,313.63z"/>
				</g>
				<g>
					<path fill="#362638" d="M825.23,341.55l-65.5,65.5c-11.9,11.9-31.37,11.9-43.27,0v0c-11.9-11.9-11.9-31.37,0-43.27l65.5-65.5
						c11.9-11.9,31.37-11.9,43.27,0v0C837.13,310.18,837.13,329.65,825.23,341.55z"/>
					<path fill="none" stroke="#7F8297" stroke-width="3.1836" stroke-linecap="round" stroke-miterlimit="10" d="M787.34,304.15
						c8.8-8.8,23.21-8.8,32.02,0l0,0c8.8,8.8,8.8,23.21,0,32.02"/>
					<path fill="#7F8297" d="M779.85,313.63L779.85,313.63c-1.78,0-3.23-1.45-3.23-3.23l0,0c0-1.78,1.45-3.23,3.23-3.23l0,0
						c1.78,0,3.23,1.45,3.23,3.23l0,0C783.08,312.18,781.62,313.63,779.85,313.63z"/>
				</g>
			</g>
		</g>
		<g id="gEyesz">
			<path fill="#ED9E8F" d="M695.42,567L695.42,567c-8.86,0-16.1-7.25-16.1-16.1v-39.88c0-8.86,7.25-16.1,16.1-16.1l0,0
				c8.86,0,16.1,7.25,16.1,16.1v39.88C711.53,559.75,704.28,567,695.42,567z"/>
			<g id="gMouse">
				<path fill="#C43A66" d="M666.74,595.8h60c5.41,0,9.07,5.54,6.94,10.52c-1.17,2.74-2.64,5.32-4.37,7.7
					c-6.64-6.32-15.59-10.22-25.47-10.22c-13.19,0-24.73,6.92-31.28,17.31c-5.35-4.46-9.48-10.32-11.84-17.02
					C659.28,600.04,662.44,595.8,666.74,595.8z"/>
				<path fill="#ED497A" d="M703.84,603.8c9.88,0,18.84,3.9,25.47,10.22c-7.12,9.79-18.64,16.18-31.67,16.18
					c-9.54,0-18.28-3.42-25.08-9.09C679.11,610.72,690.65,603.8,703.84,603.8z"/>
			</g>
			<g id="gEyes">
				<path fill="#362638" d="M664.05,496.83c0,7.52-6.1,13.63-13.62,13.63c-7.52,0-13.63-6.1-13.63-13.63
					c0-7.52,6.1-13.62,13.63-13.62C657.95,483.21,664.05,489.31,664.05,496.83z"/>
				<path fill="#362638" d="M763.29,496.83c0,7.52-6.1,13.63-13.62,13.63c-7.52,0-13.62-6.1-13.62-13.63
					c0-7.52,6.1-13.62,13.62-13.62C757.19,483.21,763.29,489.31,763.29,496.83z"/>
			</g>
			<path fill="#362638" d="M770.31,477.65c-2.07,0-3.88-1.53-4.16-3.64c-1.28-9.4-9.97-16-19.36-14.74
				c-2.29,0.31-4.43-1.3-4.74-3.61c-0.31-2.3,1.3-4.42,3.61-4.74c14-1.91,26.93,7.95,28.83,21.95c0.31,2.3-1.3,4.42-3.61,4.74
				C770.69,477.64,770.5,477.65,770.31,477.65z"/>
			<g>
				<path fill="#362638" d="M624.75,477.65c-0.19,0-0.38-0.01-0.57-0.04c-2.3-0.31-3.92-2.43-3.61-4.74
					c1.9-14,14.84-23.85,28.83-21.95c2.3,0.31,3.92,2.43,3.61,4.74c-0.31,2.31-2.45,3.93-4.74,3.61
					c-9.42-1.29-18.09,5.34-19.36,14.74C628.63,476.12,626.83,477.65,624.75,477.65z"/>
			</g>
		</g>
	</g>
	<g id="gHR">
		<g id="gHRp">
			<path fill="#13183A" d="M329.63,784.77l-36.16,35.97l163.18,154.99c10.52,10.58,27.84,9.9,37.5-1.46l0,0
				c8.59-10.1,8.01-25.1-1.34-34.51L329.63,784.77z"/>
			<path fill="#F6C6AA" d="M327.67,705.04c-20.48,3.18-16.91,34.45-19.29,38.01c-0.25,0.37-0.65,0.86-1.17,1.39l-19.25-43.16
				c-3.17-7.12-11.59-10.34-18.71-7.17h0c-7.12,3.17-10.34,11.59-7.17,18.71l16.37,36.68c-0.23,0.16-0.45,0.32-0.68,0.48
				l-26.05-28.27c-5.28-5.73-14.29-6.1-20.02-0.82h0c-5.73,5.28-6.1,14.29-0.82,20.02l31.2,33.86l-24.31-12.97
				c-6.56-3.5-14.8-0.99-18.3,5.57l-0.61,1.14c-3.5,6.56-0.99,14.8,5.57,18.3l42.37,22.6c5.55,9.08,14.47,14.97,24.54,14.97
				c12.53,0,30.66-12.91,39.11-27.89c0,0,0.01,0,0.01,0c3.99-1.84,6.48-23.09,7.15-27.15C340.77,750.3,344.6,702.42,327.67,705.04z"
			/>
		</g>
		<path fill="#13183A" d="M584.97,790.31c-12.11-7.18-27.74-3.2-34.93,8.9c-11.22,18.88-81.26,117.8-97.34,142.95
			c-7.94,12.42-4.24,28.94,8.24,36.79h0c12.61,7.93,29.27,3.94,36.92-8.84c17.61-29.41,91.07-136.49,96.03-144.84
			C601.07,813.15,597.08,797.5,584.97,790.31L584.97,790.31z"/>
	</g>
	<g id="gHL">
		<g id="gHLp">
			<path fill="#13183A" d="M934.71,946.46c-10.99-11.8-30.05-10.45-39.27,2.77c-7.81,11.2-53.8,66-69.25,85.41
				c-25.83,32.45-51.05,61.28-51.3,61.57l38.37,33.6c1.27-1.45,31.35-35.84,60.45-73.06c9.36-11.97,55.19-67.09,63.21-78.51
				C943.77,968.45,942.85,955.2,934.71,946.46L934.71,946.46z"/>
			<g>
				<g>
					<path fill="#D39A81" d="M756.06,1138.61c-17.99,20.84-38.87-0.71-42.09,7.49c-3.22,8.19,25.73,20.08,35.38,14.04
						c8.45-5.3,58.74-32.87,27.8-57.7c-3.59,4.1-9.12,10.43-13.91,15.93C766.03,1120.91,766.47,1126.56,756.06,1138.61z"/>
				</g>
				<g>
					<path fill="#D39A81" d="M764.68,1145.03c-21.96,25.44-47.45-0.86-51.38,9.14c-3.93,10,31.41,24.52,43.19,17.14
						c10.32-6.47,71.71-40.13,33.94-70.43c-4.38,5.01-11.14,12.74-16.98,19.44C776.84,1123.42,777.38,1130.32,764.68,1145.03z"/>
				</g>
				<path fill="#F6C6AA" d="M772.01,1152.39c-24.81,28.74-53.61-0.97-58.06,10.33c-4.44,11.3,35.49,27.7,48.8,19.36
					c10.98-6.88,73.14-41.01,44.7-73.56c-3.07-3.51-18.7-16.57-21.77-13.05c-3.21,3.67-5.94,15.88-9.46,19.91
					c-1.74,1.99,6.93,9.74,7.69,12.27C785.23,1132.05,783.04,1139.61,772.01,1152.39z"/>
				<path fill="#F6C6AA" d="M781.64,1090.88c-3.66-1.7-7.94-1.39-11.35,0.77c-16.01,10.13-48.44,30.39-36.79,41.01
					c14.1,12.85,35.4-10.17,39.42-10.77c0.74-0.11,2.02-0.12,3.46,0.12c4.1,0.68,8.27-0.68,11.01-3.81
					c1.58-1.81,3.15-3.61,4.69-5.37c5.01-5.74,3.48-14.68-3.21-18.33C786.62,1093.29,784.22,1092.08,781.64,1090.88z"/>
			</g>
		</g>
		<path fill="#13183A" d="M836.09,796.64c-8.16-11.48-24.08-14.17-35.56-6.02l0,0c-11.48,8.16-14.17,24.08-6.02,35.56l99.93,152.04
			c7.83,12.23,24.23,15.54,36.19,7.3l0,0c11.42-7.87,14.52-23.38,7.01-35.04L836.09,796.64z"/>
	</g>
</g>
	<style>

		#w3pose1Svg #gEyes{
			transform-box: fill-box;
			-webkit-transform-origin: 50% 50%;
			-ms-transform-origin: 50% 50%;
			transform-origin: 50% 50%;
			-webkit-animation: animw2pose1eye1 3s infinite ease-in-out;
			animation: animw2pose1eye1 3s infinite ease-in-out;
		}

		@-webkit-keyframes animw2pose1eye1  {
			0%{-webkit-transform: scaleY(1);transform: scaleY(1);}
			5%{-webkit-transform: scaleY(0.1);transform: scaleY(0.1);}
			10%{-webkit-transform: scaleY(1);transform: scaleY(1);}
			60%{-webkit-transform: scaleY(1);transform: scaleY(1);}
			65%{-webkit-transform: scaleY(0.1);transform: scaleY(0.1);}
			70%{-webkit-transform: scaleY(1);transform: scaleY(1);}
			75%{-webkit-transform: scaleY(0.1);transform: scaleY(0.1);}
			80%{-webkit-transform: scaleY(1);transform: scaleY(1);}
			100%{-webkit-transform: scaleY(1);transform: scaleY(1);}
		}

		@keyframes animw2pose1eye1  {
			0%{-webkit-transform: scaleY(1);transform: scaleY(1);}
			5%{-webkit-transform: scaleY(0.1);transform: scaleY(0.1);}
			10%{-webkit-transform: scaleY(1);transform: scaleY(1);}
			60%{-webkit-transform: scaleY(1);transform: scaleY(1);}
			65%{-webkit-transform: scaleY(0.1);transform: scaleY(0.1);}
			70%{-webkit-transform: scaleY(1);transform: scaleY(1);}
			75%{-webkit-transform: scaleY(0.1);transform: scaleY(0.1);}
			80%{-webkit-transform: scaleY(1);transform: scaleY(1);}
			100%{-webkit-transform: scaleY(1);transform: scaleY(1);}
		}

		/************************/

		#w3pose1Svg #gEyesz{
			transform-box: fill-box;
			-webkit-transform-origin: 50% 50%;
			-ms-transform-origin: 50% 50%;
			transform-origin: 50% 50%;
			-webkit-animation: animw2pose1eye2 5s infinite ease-in-out;
			animation: animw2pose1eye2 5s infinite ease-in-out;
		}

		@-webkit-keyframes animw2pose1eye2{
			0%,20%{-webkit-transform: translateX(0px);transform: translateX(0px);}
			40%{-webkit-transform: translateX(-15px);transform: translateX(-15px);}
			50%{-webkit-transform: translateX(-15px);transform: translateX(-15px);}
			70%{-webkit-transform: translateX(10px);transform: translateX(10px);}
			80%{-webkit-transform: translateX(10px);transform: translateX(10px);}
			100%{-webkit-transform: translateX(0px);transform: translateX(0px);}
		}

		@keyframes animw2pose1eye2{
			0%,20%{-webkit-transform: translateX(0px);transform: translateX(0px);}
			40%{-webkit-transform: translateX(-15px);transform: translateX(-15px);}
			50%{-webkit-transform: translateX(-15px);transform: translateX(-15px);}
			70%{-webkit-transform: translateX(10px);transform: translateX(10px);}
			80%{-webkit-transform: translateX(10px);transform: translateX(10px);}
			100%{-webkit-transform: translateX(0px);transform: translateX(0px);}
		}

		/************************/

		#w3pose1Svg #gHRp{
			transform-box: fill-box;
			-webkit-transform-origin: 90% 90%;
			-ms-transform-origin: 90% 90%;
			transform-origin: 90% 90%;
			-webkit-animation: animw2pose1gHRp1 2s infinite alternate ease-in-out;
			animation: animw2pose1gHRp1 2s infinite alternate ease-in-out;
		}

		@-webkit-keyframes animw2pose1gHRp1{
			0%{-webkit-transform: rotate(0deg);transform: rotate(0deg);}
			100%{-webkit-transform: rotate(-15deg);transform: rotate(-15deg);}
		}

		@keyframes animw2pose1gHRp1{
			0%{-webkit-transform: rotate(0deg);transform: rotate(0deg);}
			100%{-webkit-transform: rotate(-15deg);transform: rotate(-15deg);}
		}

		/************************/

		#w3pose1Svg #gMouse{
			transform-box: fill-box;
			-webkit-transform-origin: 50% 20%;
			-ms-transform-origin: 50% 20%;
			transform-origin: 50% 20%;
			-webkit-animation: animw2pose1gMouse 0.8s infinite alternate ease-in-out;
			animation: animw2pose1gMouse 0.8s infinite alternate ease-in-out;
		}

		@-webkit-keyframes animw2pose1gMouse{
			0%{-webkit-transform: scaleY(1);transform: scaleY(1);}
			20%{-webkit-transform: scaleY(0.2);transform: scaleY(0.2);}
			40%{-webkit-transform: scaleY(1);transform: scaleY(1);}
			60%{-webkit-transform: scaleY(1);transform: scaleY(1);}
			80%{-webkit-transform: scaleY(0.2);transform: scaleY(0.2);}
			100%{-webkit-transform: scaleY(1);transform: scaleY(1);}
		}

		@keyframes animw2pose1gMouse{
			0%{-webkit-transform: scaleY(1);transform: scaleY(1);}
			20%{-webkit-transform: scaleY(0.2);transform: scaleY(0.2);}
			40%{-webkit-transform: scaleY(1);transform: scaleY(1);}
			60%{-webkit-transform: scaleY(1);transform: scaleY(1);}
			80%{-webkit-transform: scaleY(0.2);transform: scaleY(0.2);}
			100%{-webkit-transform: scaleY(1);transform: scaleY(1);}
		}

		/************************/

		#w3pose1Svg #gHair{
			transform-box: fill-box;
			-webkit-transform-origin: 50% 0%;
			-ms-transform-origin: 50% 0%;
			transform-origin: 50% 0%;
			-webkit-animation: animw2pose1gHair1 5s infinite alternate ease-in-out;
			animation: animw2pose1gHair1 5s infinite alternate ease-in-out;
		}

		@-webkit-keyframes animw2pose1gHair1{
			0%{-webkit-transform: rotate(-2deg);transform: rotate(-2deg);}
			100%{-webkit-transform: rotate(2deg);transform: rotate(2deg);}
		}

		@keyframes animw2pose1gHair1{
			0%{-webkit-transform: rotate(-2deg);transform: rotate(-2deg);}
			100%{-webkit-transform: rotate(2deg);transform: rotate(2deg);}
		}
	</style>
</svg>
