<?xml version="1.0" encoding="utf-8"?>
<!-- Generator: Adobe Illustrator 16.0.0, SVG Export Plug-In . SVG Version: 6.00 Build 0)  -->
<!DOCTYPE svg PUBLIC "-//W3C//DTD SVG 1.1//EN" "http://www.w3.org/Graphics/SVG/1.1/DTD/svg11.dtd">
<svg version="1.1" id="Layer_1" xmlns="http://www.w3.org/2000/svg" xmlns:xlink="http://www.w3.org/1999/xlink" x="0px" y="0px"
	 width="60px" height="60px" viewBox="0 0 60 60" enable-background="new 0 0 60 60" xml:space="preserve">
<g>
	<g>
		<g>
			<path opacity="0.35" fill="#FFFFFF" d="M92.613,3.791L78.152,3.768c-0.369,0-0.668-0.231-0.668-0.515l0.014-8.644l0.001-0.973
				c0.001-0.284,0.3-0.513,0.669-0.513l14.461,0.022c0.369,0,0.668,0.231,0.668,0.515l-0.015,9.617
				C93.281,3.562,92.982,3.791,92.613,3.791z"/>
			<path fill="#FFFFFF" d="M78.639-5.491L78.639-5.491c-0.176,0-0.316-0.143-0.316-0.318c0-0.175,0.143-0.317,0.316-0.317l0,0
				c0.085,0,0.164,0.033,0.225,0.093c0.06,0.06,0.092,0.14,0.092,0.225c0,0.085-0.033,0.165-0.093,0.225
				C78.803-5.524,78.723-5.491,78.639-5.491z M78.639-5.988c-0.1,0-0.18,0.081-0.18,0.18s0.08,0.18,0.18,0.18l0,0
				c0.048,0,0.093-0.019,0.127-0.053c0.033-0.034,0.053-0.079,0.053-0.127l0,0c0-0.048-0.019-0.093-0.053-0.127
				C78.732-5.97,78.688-5.988,78.639-5.988L78.639-5.988z"/>
			<path fill="#FFFFFF" d="M79.57-5.49L79.57-5.49c-0.085,0-0.164-0.033-0.225-0.093c-0.06-0.06-0.092-0.14-0.092-0.225
				c0-0.175,0.143-0.317,0.316-0.317l0,0c0.085,0,0.164,0.033,0.225,0.093c0.06,0.06,0.092,0.14,0.092,0.225
				c0,0.085-0.033,0.165-0.093,0.225C79.734-5.522,79.654-5.49,79.57-5.49z M79.57-5.987c-0.1,0-0.18,0.081-0.18,0.18
				c0,0.048,0.019,0.093,0.053,0.127c0.033,0.034,0.078,0.053,0.127,0.053l0,0c0.048,0,0.094-0.019,0.127-0.053
				c0.034-0.034,0.053-0.079,0.053-0.127l0,0c0-0.048-0.019-0.093-0.053-0.127C79.664-5.968,79.619-5.987,79.57-5.987L79.57-5.987z"
				/>
			<path fill="#FFFFFF" d="M80.484-5.488L80.484-5.488c-0.175,0-0.316-0.143-0.316-0.318c0-0.175,0.143-0.317,0.316-0.317l0,0
				c0.176,0,0.317,0.143,0.316,0.318l0,0C80.801-5.63,80.659-5.488,80.484-5.488z M80.484-5.986c-0.099,0-0.18,0.081-0.18,0.18
				c0,0.099,0.08,0.18,0.18,0.18l0,0c0.1,0,0.18-0.081,0.18-0.18C80.664-5.905,80.584-5.985,80.484-5.986L80.484-5.986z"/>
			<path opacity="0.69" fill="#FFFFFF" d="M91.158-2.171L91.158-2.171l-6.334-0.01c-0.039,0-0.068-0.031-0.068-0.069
				s0.03-0.068,0.068-0.068l0,0l6.334,0.01c0.037,0,0.068,0.031,0.068,0.069C91.227-2.202,91.195-2.171,91.158-2.171z"/>
			<path opacity="0.69" fill="#FFFFFF" d="M87.986,0.612L87.986,0.612l-3.167-0.005c-0.038,0-0.069-0.031-0.069-0.069
				c0-0.038,0.031-0.068,0.069-0.068l0,0l3.167,0.005c0.038,0,0.068,0.031,0.068,0.069C88.055,0.582,88.023,0.612,87.986,0.612z"/>
			<path opacity="0.69" fill="#FFFFFF" d="M86.662-1.341L86.662-1.341l-1.841-0.004c-0.038,0-0.068-0.031-0.068-0.069
				c0-0.038,0.03-0.068,0.069-0.068l0,0l1.84,0.003c0.038,0,0.068,0.031,0.068,0.069C86.73-1.372,86.7-1.341,86.662-1.341z"/>
			<path opacity="0.69" fill="#FFFFFF" d="M88.402-0.352L88.402-0.352l-3.581-0.003c-0.038,0-0.068-0.031-0.068-0.069
				s0.03-0.069,0.069-0.069l0,0l3.58,0.004c0.037,0,0.068,0.031,0.068,0.069S88.439-0.352,88.402-0.352z"/>
		</g>
		<path fill="#FFFFFF" d="M81.506-0.944v-2.421c-1.335,0-2.418,1.084-2.418,2.421c0,1.337,1.083,2.421,2.418,2.421
			c1.336,0,2.418-1.084,2.418-2.421H81.506z"/>
		<path fill="#1A6CBE" d="M81.506-0.944v-2.421c-1.335,0-2.418,1.084-2.418,2.421C79.088-0.878,81.506-0.944,81.506-0.944z"/>
		<path fill="#102465" d="M83.838-1.211c0-0.58-0.237-1.104-0.621-1.479c-0.372-0.365-0.882-0.59-1.444-0.59v2.069H83.838z"/>
		<path fill="#FFFFFF" d="M83.217-2.69c-0.372-0.365-0.882-0.59-1.444-0.59v2.069"/>
		<path fill="#1A6CBE" d="M83.217-2.69c-0.372-0.365-0.882-0.59-1.444-0.59v2.069"/>
	</g>
	<g>
		<path opacity="0.1" fill="#1C1918" d="M78.512,52.258c0,0-0.352,1.551,7.993,1.893c2.732,0.112,18.101-0.33,17.327-0.871
			s-3.502-1.042-3.502-1.042L78.512,52.258z"/>
		<path fill="#FF5252" d="M80.25,22.462c0,0-2.513-2.812-2.604-2.812s-0.148,0.159-0.148,0.159l2.627,2.824L80.25,22.462z"/>
		<path fill="#06497F" d="M89.645,17.035c0,0,0.831,0.569,0.99,0.983s1.076,1.886,1.076,2.281c0,0.395,0.113,0.918,0.099,1.139
			s-0.007,1.556-0.121,1.738c0.015,0.486,0.015,0.888,0.015,1.131c0,0.243,0.031,1.73,0.061,2.437
			c0.031,0.706,0.076,1.814,0.183,2.088c0.106,0.272,0.102,1.403,0.147,1.532c0.045,0.129,0.25,0.288,0.182,0.395
			s-0.334,0.304-0.455,0.312c-0.121,0.129-0.011,1.261-0.299,1.359c-0.287,0.099-0.424,0.189-1.221,0.182
			c-0.795-0.007-2.683,0.267-3.63,0.068c-0.947-0.197-0.593-0.648-0.623-0.74c-0.03-0.091-0.651-0.144-0.826-0.759
			s0.315-2.152,0.347-2.608c0.029-0.455-0.248-5.213-0.196-5.525c0.428-2.569,1.653-3.601,1.751-3.776
			c0.099-0.174,0.685-1.484,1.178-1.811C88.793,17.133,89.645,17.035,89.645,17.035z"/>
		<path fill="#F0BEB9" d="M89.125,13.202c0,0,0.108,1.222,0.199,1.374c0.09,0.152,0.389,1.544,0.494,1.771s0.524,1.173,0.524,1.173
			s-1.257,0.897-1.951,0.92c-0.694,0.023-1.185,0.18-1.185,0.18s0.342-0.702,0.429-0.963c0.087-0.262,0.12-0.571,0.1-0.625
			s-0.241-0.015-0.241-0.015s-1.477-2.522-0.84-3.474C87.292,12.591,89.125,13.202,89.125,13.202z"/>
		<path fill="#FFE1E1" d="M97.215,47.137l0.875,1.406c0,0-0.422,1.349-0.959,1.539c-0.539,0.189,0.369-0.02-0.533,0.152
			c-0.029,0.006-1.021-1.731-1.021-1.731L97.215,47.137z"/>
		<path fill="#176396" d="M97.986,48.242c0,0,0.973,0.975,0.994,1.035c0.02,0.061,0.174,0,0.174,0l0.316,0.315l-1.256,1.204
			l-0.275-0.155c0,0-0.899,1.438-1.215,1.58s-1.154,0.612-2.523,0.363c-0.195-0.047-0.162-0.229-0.121-0.249
			c-0.088-0.256,0.02-0.585,0.55-0.604c0.53-0.021,0.839-0.102,0.873-0.155c0.033-0.054,0.081-0.369,0.255-0.363
			c-0.201-0.269-0.066-1.378-0.066-1.445s0.201-0.672,0.201-0.672s0.604,0.383,0.799,0.383c0.194,0,0.939-0.35,1.113-0.746
			C97.98,48.336,97.986,48.242,97.986,48.242z"/>
		<path fill="#176396" d="M84.237,51.749c0,0,0.188,0.891,0.159,1.026c0.063,0.126,0.116,0.484,0.063,0.557
			c-0.053,0.072-1.953,0.116-1.953,0.116v-0.175c0,0-0.933,0.247-1.503,0.214c-0.571-0.034-2.8-0.896-2.819-0.935
			c-0.019-0.039,0.049-0.199,0.111-0.17c0.044-0.146,0.029-0.373,0.416-0.368s1.074,0.02,1.286-0.033
			c0.213-0.054,0.406-0.165,0.552-0.209c0.145-0.043,0.98-0.688,1.082-0.73c0.102-0.044,0.837,0.314,1.373,0.445
			c0.537,0.131,1.195,0.053,1.195,0.053L84.237,51.749z"/>
		<path fill="#102465" d="M90.236,31.557c0,0,0.729,2.664,0.648,2.983c-0.079,0.318-0.045,0.33,0.006,0.467s0.143,0.216,0.143,0.455
			s-0.046,0.239,0.022,0.479s0.284,0.58,0.341,0.944c0.057,0.365,0.034,0.969,0.068,1.196s0.057,0.262,0.045,0.648
			c-0.011,0.388-0.045,0.559,0.023,0.729c0.068,0.171,0.182,0.251,0.238,0.399c0.057,0.147,0.171,0.614,0.171,0.614
			s0.011,0.217,0.046,0.364c0.033,0.148-0.308-0.045,0.079,0.205c0.387,0.251,5.821,6.251,5.821,6.251s-1.148,1.139-1.398,1.446
			s-0.955,0.547-0.955,0.547s-0.943-0.854-1.137-1.207c-0.193-0.354-2.172-2.995-2.627-3.325s-2.819-2.209-3.035-2.732
			c-0.217-0.523-2.012-6.217-2.012-6.217v-4.372L90.236,31.557z"/>
		<path fill="#FFE1E1" d="M82.205,23.427c0,0-0.308-0.268-0.41-0.416c-0.102-0.148-0.272-0.558-0.455-0.672
			c-0.182-0.114-0.557-0.456-0.631-0.512c-0.073-0.057-0.517-0.365-0.517-0.365s-0.381,0.014-0.449,0.014
			c-0.11-0.048-0.339-0.094-0.31,0.012c0.028,0.105,0.15,0.418,0.56,0.353c0.185,0.208,0.31,0.265,0.256,0.282
			s-0.577-0.213-0.653-0.219c-0.162-0.165-0.5-0.347-0.5-0.347s0.025-0.16-0.068-0.168c-0.094-0.009-0.526,0.068-0.354,0.355
			c0.174,0.288,0.205,0.25,0.205,0.25s-0.127-0.028-0.116,0.194s-0.003,0.31,0.065,0.375s0.461,0.319,0.461,0.319
			s-0.078,0.45-0.041,0.51c0.037,0.06,0.186,0.085,0.186,0.085s-0.143,0.271,0.133,0.416c0.276,0.145,0.976,0.313,1.535,0.358
			c0.461,0.242,0.967,0.641,0.967,0.641s0.315-0.085,0.497-0.413C82.748,24.152,82.762,24.024,82.205,23.427z"/>
		<path fill="#C3FFFF" d="M82.807,23.683c-0.021-0.046-0.688-0.438-0.688-0.438s-0.653,1.309-0.648,1.474
			c0.006,0.166,0,0.638,0,0.638l0.949,0.273L82.807,23.683z"/>
		<path fill="#043370" d="M91.771,31.078c0,0,0.023,2.209-0.625,3.018s-1.964,2.391-2.073,2.688
			c-0.109,0.296-1.759,3.541-1.815,3.894c-0.057,0.354,0.273,0.193-0.09,0.763c-0.364,0.569-0.752,0.524-0.695,1.07
			c0.059,0.547-0.135,2.072-0.42,2.915c-0.283,0.843-1.185,3.826-1.223,4.076c-0.039,0.251,0.038,0.523,0,0.569
			c-0.039,0.046-0.555,1.78-0.555,1.78s-0.77,0.025-1.088,0c-0.318-0.026-1.528-0.721-1.528-0.721s0.051-1.879,0.323-2.209
			c0.273-0.331,0.205-0.513,0.16-1.207c-0.046-0.695,0.591-2.973,0.807-3.655c0.217-0.684,0.057-1.275,0.08-1.594
			c0.022-0.319,0.932-4.009,1.012-4.657c0.079-0.649,1.592-4.372,1.592-4.372s-0.16-1.993-0.114-2.209
			c0.046-0.217,5.549-0.581,6.253-0.194"/>
		<path fill="#FFE1E1" d="M85.621,11.75c-0.209,0.164-1.115,0.706-1.197,1.622c-0.08,0.915,0.084,1.517,0.552,2.123
			s0.163,1.065,0.224,1.153c0.06,0.088,0.396,0.179,0.578,0.129c0.328,0.297,0.807,0.708,0.858,0.762s0.295,0.087,0.423,0.041
			c0.127-0.046,0.494-0.455,0.552-0.544c0.057-0.088,0.777-0.995,0.751-1.235c-0.026-0.24-0.652-1.249-0.652-1.249
			s2.038,0.15,1.354-1.517C88.379,11.366,86.485,11.067,85.621,11.75z"/>
		<path fill="#176396" d="M89.635,18.895c0,0,0.758,0.307,0.971,0.523c0.211,0.217,0.666,1.093,0.711,1.367
			c0.047,0.273,0.012,0.694-0.067,0.945s-2.001,3.542-2.364,3.985c-0.365,0.444-1.695,2.106-2.15,2.016
			c-0.453-0.091-1.522-0.353-1.852-0.58c-0.33-0.229-1.934-1.048-2.234-1.048c-0.302,0-1.109-0.661-0.824-1.35
			c0.283-0.688,0.533-1.395,0.92-1.338c0.387,0.057,0.273,0.262,0.626,0.433c0.353,0.17,0.637,0.148,0.772,0.296
			c0.137,0.148,0.318,0.091,0.592,0.262s0.284,0.182,0.592,0.296c0.307,0.114,0.642,0.102,0.75,0.131
			c0.012-0.199-0.006-0.233,0.153-0.37s0.136-0.353,0.302-0.546c0.164-0.194,0.42-0.957,0.59-1.202
			c0.172-0.245,0.068-1.395,0.223-1.805C87.497,20.5,87.719,18.713,89.635,18.895z"/>
		<path fill="#C3FFFF" d="M90.192,16.891c0,0,0.351,0.285,0.34,0.61s0.21,0.348,0.147,0.417c-0.063,0.069-1.123,0.123-1.289,0.328
			c-0.164,0.205-2.414,1.366-2.591,1.467c-0.005-0.27,0.192-0.237,0.202-0.555c0.01-0.318-0.148-0.672-0.096-0.772
			c0.054-0.1,0.779-0.181,1.139-0.382c0.361-0.201,1.078-0.843,1.395-0.95C89.754,16.948,90.192,16.891,90.192,16.891z"/>
		<path fill="#120236" d="M89.525,15.271c0,0-1.264-0.148-1.68-0.727c-0.416-0.578-0.305-0.68-0.379-0.68
			c-0.528,0-0.198,0.897-0.42,0.752c-0.24-0.158-0.417-0.681-0.448-0.79s-0.582,0.042-0.743-0.417c0,0-0.357,1.15-1.067,1.313
			c-0.603,0.139-1.475,0.316-1.345-0.85s1.782-3.581,4.143-3.041c1.912-0.85,1.93,3.405,1.94,3.582
			C89.537,14.591,89.545,14.79,89.525,15.271z"/>
		<path fill="#FFE1E1" d="M87.136,14.384c-0.003-0.844,0.644-0.651,0.808-0.312c0.163,0.34,0.188,0.909-0.012,1.042
			c-0.201,0.133-0.41-0.078-0.422-0.081L87.136,14.384z"/>
	</g>
</g>
<g>
	<g>
		<g>
			<path fill="#E7A376" d="M31.741,53.68c0,0-0.778-9.432-0.69-17.056h-4.019c0,0,1.276,5.16,3.486,17.117L31.741,53.68z"/>
		</g>
	</g>
	<path fill="#FFE1E1" d="M30.417,53.638l-1.233-5.921l2.341-0.024l0.388,6.455C31.912,54.147,30.167,56.619,30.417,53.638z"/>
	<g>
		<g>
			<path fill="#FBB686" d="M38.744,56.366c0,0-5.101-10.787-6.168-13.128c-1.067-2.342-1.559-7.043-1.559-7.043h4.477
				c0,0-0.06,5.104,0.354,6.196c0.414,1.093,3.45,9.203,3.88,13.369L38.744,56.366z"/>
		</g>
	</g>
	<path fill="#FFE1E1" d="M38.23,55.697l-3.033-7.105l2.559-0.752l2.349,8.025C40.104,55.865,39.611,58.011,38.23,55.697z"/>
	<g>
		<g>
			<path fill="#41222A" d="M31.685,6.512c0,0,0.198,2.569,1.64,2.58c2.522,0.02,1.512,3.686,2.524,4.254
				c0.87,0.489,1.401,0.973,1.482,1.522c0.146,0.998-0.436,1.565,0.422,2.076c0.858,0.511,1.226,1.079,1.34,2.376l-0.679,2.798
				c-0.676,2.791-3.9,4.076-6.307,2.516l-3.884-3.466l1.908-12.212L31.685,6.512z"/>
		</g>
	</g>
	<g>
		<g>
			<path fill="#1A6CBE" d="M26.338,23.53c0,0-1.987,9.227-1.415,14.437c0,0,1.568,1.314,3.858,0.986
				c2.29-0.329,5.758,1.23,7.585,0.053c1.827-1.18,3.07-2.325,3.07-2.325l-5.647-14.019L26.338,23.53z"/>
		</g>
	</g>
	<path fill="#174C99" d="M26.835,12.948c0,0-1.577,0.206-1.987,2.266c-0.412,2.059,0.583,4.667,0.583,4.667s1.097,0.172,1.199,0
		C26.732,19.709,26.835,12.948,26.835,12.948z"/>
	<g>
		<g>
			<path fill="#1A6CBE" d="M29.423,11.832l4.818,0.629l0.511,10.44l-8.414,0.629l-0.556-8.166c-0.096-1.402,0.792-2.684,2.138-3.085
				L29.423,11.832z"/>
		</g>
	</g>
	<g>
		<g>
			<g>
				<path fill="#FBB686" d="M30.326,11.852l2.01,0.375c0,0-0.862,1.859-3.555,1.859c-1.401,0-2.127-1.117-2.127-1.117l1.038-0.674
					L30.326,11.852z"/>
			</g>
		</g>
		<g>
			<rect x="27.701" y="9.853" fill="#FBB686" width="2.625" height="3.948"/>
		</g>
		<g>
			<polygon fill="#E7A376" points="27.701,9.853 29.553,9.853 30.326,10.947 27.786,13.144 			"/>
		</g>
		<g>
			<g>
				<g>
					<g>
						<g>
							<g>
								<path fill="#FBB686" d="M26.835,12.33c0,0-1.251-0.412-1.322-2.903l-0.089-1.142c-0.131-1.679,1.274-3.075,2.951-2.929l0,0
									c1.324,0.116,2.372,1.174,2.476,2.502L30.94,9C31.071,10.68,28.511,12.477,26.835,12.33z"/>
							</g>
						</g>
					</g>
				</g>
			</g>
		</g>
		<g>
			<g>
				<g>
					<g>
						<g>
							<path fill="#41222A" d="M30.981,9.284c0,0-1.612-1.171-2.277-3.465c0,0-0.474,0.901-0.211,2.172l-3.07,0.295
								c0,0-0.887-1.79,0.11-3.223c0.996-1.433,6.888-2.96,6.271,3.655L30.981,9.284z"/>
						</g>
					</g>
					<g>
						<g>
							<path fill="#41222A" d="M24.918,8.316l0.202-0.063c-0.004-0.014-0.428-1.44,0.622-2.456l-0.146-0.153
								C24.45,6.753,24.913,8.301,24.918,8.316z"/>
						</g>
					</g>
					<g>
						<g>
							<path fill="#41222A" d="M30.745,8.371c0.019,0,0.029,0,0.032,0L30.77,8.159c-0.009,0.001-0.773,0.023-1.338-0.525
								c-0.417-0.405-0.626-1.015-0.621-1.815l-0.212,0c-0.004,0.861,0.227,1.524,0.688,1.97
								C29.856,8.338,30.583,8.371,30.745,8.371z"/>
						</g>
					</g>
					<g>
						<path fill="#FBB686" d="M30.166,9.069c0.086,0.508,0.011,0.751,0.518,0.664c0.508-0.087,0.552-0.31,0.751-1.083
							c0.129-0.5,0.001-0.746-0.507-0.659C30.421,8.078,30.08,8.561,30.166,9.069z"/>
					</g>
				</g>
			</g>
		</g>
	</g>
	<g>
		<g>
			<g>
				<path fill="#FBB686" d="M34.233,24.421l-3.881-2.184c0,0-2.096-2.352-2.295-3.092c-0.197-0.74,0.313-0.049,0.576,0.214
					c0,0-0.527-0.816-0.322-0.816c0.207,0,1.275,1.473,1.275,1.473s-0.339-0.851-0.339-1.265s0.24-0.247,0.336,0.109
					c0.095,0.356,0.568,0.972,0.568,0.972s-0.201-0.651-0.122-0.948c0.079-0.297,0.25,0.058,0.343,0.343
					c0.302,0.921,0.877,0.6,1.092,1.997l4.034,1.393L34.233,24.421z"/>
			</g>
		</g>
	</g>
	<g>
		<g>
			<path fill="#2E86CE" d="M34.241,12.461c0,0,2.804,2.93,3.253,9.651c0.111,1.675-1.68,2.197-3.685,2.565l-1.028-3.346l1.696-0.49
				L34.241,12.461z"/>
		</g>
	</g>
	<g>
		<g>
			<g>
				<g>
					<path fill="#AA1818" d="M21.851,9.79l2.313-0.741c0.035-0.011,0.073,0.008,0.084,0.043l1.391,4.352
						c0.011,0.036-0.008,0.074-0.043,0.084l-2.314,0.741c-0.035,0.012-0.073-0.008-0.084-0.043l-1.39-4.352
						C21.795,9.839,21.815,9.801,21.851,9.79z"/>
				</g>
				<g>
					<g>
						<path fill="#FF5252" d="M21.564,9.882l2.313-0.742c0.035-0.011,0.073,0.008,0.084,0.044l1.391,4.351
							c0.011,0.035-0.008,0.073-0.043,0.084l-2.313,0.742c-0.035,0.011-0.073-0.008-0.084-0.044l-1.391-4.351
							C21.509,9.931,21.528,9.893,21.564,9.882z"/>
					</g>
				</g>
				<g>
					<g>
						<path fill="#E53C3C" d="M23.864,10.342L23.864,10.342c0.103-0.033,0.16-0.144,0.127-0.247l-0.132-0.414
							c-0.033-0.103-0.144-0.16-0.246-0.127l0,0c-0.103,0.033-0.16,0.144-0.127,0.247l0.133,0.414
							C23.65,10.318,23.761,10.375,23.864,10.342z"/>
					</g>
				</g>
				<g>
					<g>
						<circle fill="#AA1818" cx="23.674" cy="9.746" r="0.154"/>
					</g>
					<g>
						<circle fill="#AA1818" cx="23.802" cy="10.15" r="0.154"/>
					</g>
				</g>
			</g>
			<g>
				<g>
					<path fill="#FBB686" d="M22.39,12.415c0.042-0.248,0.156-1.206,0.257-1.254c0.102-0.048,1.194-0.749,1.27-0.466
						c0.076,0.283-0.832,0.37-0.797,1.486c0,0,0.933-0.809,1.714-1.228c0.256-0.137,0.074,0.552-0.361,1.16
						c0,0,0.489-0.326,0.824-0.396c0.189-0.04,0.007,0.525-0.252,0.813c0,0,0.264-0.147,0.484-0.158
						c0.146-0.007,0.058,0.57-0.28,0.796c-0.337,0.225-0.735,0.353-0.718,0.772c0.017,0.419-0.064,0.943-0.371,1.129l1.288,4.394
						l-2.165,0.694l-0.943-5.691C22.339,14.466,22.289,13.013,22.39,12.415z"/>
				</g>
			</g>
		</g>
		<g>
			<g>
				<path fill="#174C99" d="M25.939,18.593l-3.329-0.539c0,0-0.004,4.332,1.659,4.776c1.662,0.444,2.224,0.482,2.224,0.482
					L25.939,18.593z"/>
			</g>
		</g>
	</g>
	<g>
		<g>
			<g>
				<g>
					<g>
						<path fill="#102465" d="M30.351,53.412c0,0-2.796,1.326-3.272,1.836l5.341-0.173l-0.226-1.722c0,0-0.597-0.047-1.164,0.215
							C30.614,53.758,30.351,53.412,30.351,53.412z"/>
					</g>
				</g>
			</g>
		</g>
		<g>
			<g>
				<polygon fill="#FFE1E1" points="32.419,55.075 27.078,55.248 27.014,55.744 32.436,55.569 				"/>
			</g>
		</g>
	</g>
	<g>
		<g>
			<g>
				<g>
					<g>
						<path fill="#102465" d="M38.251,55.522c0,0-2.861,1.356-3.35,1.879l5.466-0.177l-0.231-1.764c0,0-0.609-0.047-1.19,0.22
							C38.521,55.875,38.251,55.522,38.251,55.522z"/>
					</g>
				</g>
			</g>
		</g>
		<g>
			<g>
				<polygon fill="#FFE1E1" points="40.367,57.225 34.901,57.401 34.836,57.908 40.384,57.729 				"/>
			</g>
		</g>
	</g>
</g>
</svg>
