<?xml version="1.0" encoding="utf-8"?>
<svg viewBox="0 0 100 100" xmlns="http://www.w3.org/2000/svg" style="height: 100%; width: 100%; background: none; shape-rendering: auto;" width="200px" height="200px"><g class="ldl-scale" style="transform-origin: 50% 50%; transform: rotate(0deg) scale(0.8, 0.8);"><g class="ldl-ani" style="transform-origin: 50px 50px; transform: rotate(-7deg); animation: 1.11111s linear 0s infinite normal forwards running swing-f688116e-171e-46b8-9e3c-b241547e2b9c;"><linearGradient y2="78.844" x2="50" y1="22.124" x1="50" gradientUnits="userSpaceOnUse" id="a"><stop stop-color="#f5e6c8" offset="0" style="stop-color: rgb(244, 222, 18);"></stop><stop stop-color="#f8c788" offset=".509" style="stop-color: rgb(254, 144, 30);"></stop><stop stop-color="#f5e6c8" offset="1" style="stop-color: rgb(244, 222, 18);"></stop></linearGradient><g class="ldl-layer"><g class="ldl-ani" style="transform-origin: 50px 50px;"><circle stroke-miterlimit="10" stroke-width="3" stroke="#f8b26a" fill="url(#a)" r="40" cy="49.5" cx="50" style="stroke: rgb(248, 178, 106);"></circle></g></g><g class="ldl-layer"><g class="ldl-ani" style="transform-origin: 50px 50px;"><path stroke-miterlimit="10" stroke-linejoin="round" stroke-linecap="round" stroke-width="5" stroke="#000" fill="none" d="M29 62.167c14.444 12.111 28.889 12.111 43.333 0" style=""></path></g></g><g class="ldl-layer"><g class="ldl-ani"><g><g class="ldl-layer"><g class="ldl-ani" style="transform-origin: 50px 50px;"><path d="M86.198 32.88h-2.332c-.839-2.542-3.257-4.38-6.113-4.38H59.231c-2.856 0-5.274 1.839-6.113 4.38h-6.271c-.839-2.542-3.257-4.38-6.113-4.38h-18.52c-2.856 0-5.274 1.839-6.113 4.38h-2.299a2.92 2.92 0 0 0 0 5.838h1.981v3.76c0 6.07 5.214 10.869 11.351 10.447l10.156-.698c5.562-.382 9.876-4.946 9.876-10.447v-3.062h5.635v3.062c0 5.501 4.314 10.065 9.876 10.447l10.156.698c6.137.422 11.351-4.377 11.351-10.447v-3.76h2.014a2.92 2.92 0 0 0 0-5.838z" style=""></path></g></g><g class="ldl-layer"><g class="ldl-ani" style="transform-origin: 50px 50px;"><path stroke-miterlimit="10" stroke-linejoin="round" stroke-linecap="round" stroke-width="3" stroke="#fff" d="M57.132 38.076c-.289 4.294 2.094 8.192 5.79 10.048" style="stroke: rgb(255, 255, 255);"></path></g></g><g class="ldl-layer"><g class="ldl-ani" style="transform-origin: 50px 50px;"><path stroke-miterlimit="10" stroke-linejoin="round" stroke-linecap="round" stroke-width="3" stroke="#fff" d="M20.066 39.331c-.236 3.787 1.592 7.204 4.498 9.225" style="stroke: rgb(255, 255, 255);"></path></g></g></g></g></g><metadata xmlns:d="https://loading.io/stock/">
<d:name>sunglass</d:name>
<d:tags>sunglass,smile,happy,enjoy,like a boss,cool,swag,fashion</d:tags>
<d:license>by</d:license>
<d:slug>obe8zg</d:slug>
</metadata></g></g><style id="swing-f688116e-171e-46b8-9e3c-b241547e2b9c" data-anikit="">@keyframes swing-f688116e-171e-46b8-9e3c-b241547e2b9c
{
  0% {
    animation-timing-function: cubic-bezier(1.0384,0.2208,-0.1337,0.8129);
    transform: rotate(-7deg);
  }
  51% {
    animation-timing-function: cubic-bezier(1.0102,0.2426,-0.1114,0.7859);
    transform: rotate(6.993deg);
  }
  100% {
    transform: rotate(-7deg);
  }
}</style><!-- [ldio] generated by https://loading.io/ --></svg>