<?xml version="1.0" encoding="UTF-8"?>
<!DOCTYPE svg PUBLIC "-//W3C//DTD SVG 1.1//EN" "http://www.w3.org/Graphics/SVG/1.1/DTD/svg11.dtd">
<!-- Creator: CorelDRAW X6 -->
<svg xmlns="http://www.w3.org/2000/svg" xml:space="preserve" width="152.368mm" height="283.097mm" version="1.1" style="shape-rendering:geometricPrecision; text-rendering:geometricPrecision; image-rendering:optimizeQuality; fill-rule:evenodd; clip-rule:evenodd"
viewBox="0 0 1907 3544"
 xmlns:xlink="http://www.w3.org/1999/xlink">
 <defs>
  <style type="text/css">
   <![CDATA[
    .str0 {stroke:#332C2B;stroke-width:2.5038}
    .fil8 {fill:#332C2B}
    .fil12 {fill:#366B5E}
    .fil3 {fill:#45AB91}
    .fil18 {fill:#633234}
    .fil14 {fill:#856D37}
    .fil16 {fill:#8B8B8C}
    .fil15 {fill:#A68845}
    .fil4 {fill:#AA977C}
    .fil2 {fill:#D4C1A5}
    .fil17 {fill:#E62129}
    .fil10 {fill:#FEFEFE}
    .fil9 {fill:black}
    .fil6 {fill:#100E11}
    .fil0 {fill:#9E9696}
    .fil5 {fill:#C9A37D}
    .fil1 {fill:#EFD0B3}
    .fil13 {fill:#366B5E}
    .fil7 {fill:#45AB91}
    .fil11 {fill:#D4C1A5}
   ]]>
  </style>
 </defs>
 <rect class="fil0" x="-9477" y="-7271" width="3718" height="5258"/>
 <path class="fil1" d="M462 1571l51 -201c-122,-59 -272,-83 -284,-81 41,-56 -12,-270 -37,-317l-128 -47c-71,125 -61,344 38,505 29,56 309,148 360,140z"/>
 <path class="fil2" d="M491 1381c-58,-17 -191,-67 -261,-91 11,-2 150,24 265,72l-4 19z"/>
 <path class="fil2" d="M229 1290c13,-58 -31,-213 -62,-317l25 0c35,80 73,257 37,317z"/>
 <path class="fil3" d="M727 1643l-72 -285c-20,-10 -220,-54 -335,-68 -4,0 -31,-22 -35,-23 -3,0 -11,17 -14,17 -2,0 -7,-22 -9,-22 -4,0 -3,25 -6,24 -3,0 -11,-23 -14,-23 -10,0 -12,16 -13,23l35 252c3,1 4,-19 9,-18 2,0 5,9 7,9 2,1 4,-6 7,-5 4,1 1,15 5,16 3,1 36,1 40,2 101,31 307,100 395,101z"/>
 <path class="fil1" d="M1424 1576l-51 -201c122,-59 272,-83 284,-81 -41,-56 12,-270 37,-317l128 -47c71,125 61,344 -38,505 -29,56 -309,148 -360,140z"/>
 <path class="fil2" d="M1396 1385c58,-17 191,-67 261,-91 -11,-2 -150,24 -265,72l4 19z"/>
 <path class="fil2" d="M1657 1294c-13,-58 31,-213 62,-317l-25 0c-35,80 -73,257 -37,317z"/>
 <path class="fil1" d="M13 660c-28,5 -11,255 44,290 87,56 178,38 191,-25 35,-167 4,-192 -25,-189 -15,1 13,95 -13,92 -30,-4 19,-210 -19,-216 -38,-6 -24,134 -45,142 -21,8 34,-167 -9,-166 -43,1 -22,163 -38,165 -16,2 4,-144 -29,-140 -33,3 -5,158 -22,160 -16,2 -7,-118 -35,-113z"/>
 <path class="fil3" d="M949 2495c-49,21 -76,166 -88,396 -1,11 15,27 15,38 -1,14 -32,32 -32,32 0,0 17,14 17,18 0,4 -20,10 -18,14 74,141 4,400 3,436l-138 -4c-98,-297 -112,-744 -169,-1083 44,-15 280,7 412,7 131,0 395,-17 439,-2 0,0 -59,281 -92,566 -22,189 -97,452 -105,511l-138 4c-1,-36 -70,-295 3,-436 2,-4 -18,-9 -18,-14 0,-4 17,-18 17,-18 0,0 -32,-18 -32,-32 -1,-11 15,-27 15,-38 -12,-231 -39,-375 -88,-396z"/>
 <path class="fil2" d="M591 984c-100,-49 -255,-260 -77,-353 17,-9 27,-8 45,-8 0,11 0,17 0,17 0,0 -2,206 31,344z"/>
 <path class="fil4" d="M531 836c0,0 -9,-43 -30,-89 -20,-45 -41,-6 -41,-6 0,0 26,18 35,40 8,22 -10,13 -17,22 7,-9 53,32 53,32z"/>
 <path class="fil1" d="M1321 984c100,-49 255,-260 77,-353 -17,-9 -27,-8 -45,-8 0,11 0,17 0,17 0,0 2,206 -31,344z"/>
 <path class="fil5" d="M1385 836c0,0 9,-43 30,-89 20,-45 41,-6 41,-6 0,0 -26,18 -35,40 -8,22 10,13 17,22 -7,-9 -53,32 -53,32z"/>
 <polygon class="fil6" points="828,1316 806,1640 872,1649 891,1830 948,1924 948,1938 952,1931 952,1931 952,1931 1009,1837 1028,1656 1094,1647 1072,1323 1074,1304 1056,1298 986,1577 951,1700 950,1759 949,1693 907,1566 848,1292 825,1295 "/>
 <path class="fil7" d="M1056 1285c0,0 216,57 218,82 29,334 171,460 115,982 -26,13 -772,-6 -851,-5 -89,-542 105,-696 112,-986 12,-10 23,-18 29,-21 30,-16 72,-32 104,-43 39,-13 65,-13 65,-13l207 6z"/>
 <path class="fil3" d="M1166 1647l72 -285c20,-10 220,-54 335,-68 4,0 31,-22 35,-23 3,0 11,17 14,17 2,0 7,-22 9,-22 4,0 3,25 6,24 3,0 11,-23 14,-23 10,0 12,16 13,23l-35 252c-3,1 -4,-19 -9,-18 -2,0 -5,9 -7,9 -2,1 -4,-6 -7,-5 -4,1 -1,15 -5,16 -3,1 -36,1 -40,2 -101,31 -307,100 -395,101z"/>
 <path class="fil1" d="M859 1144l182 0 0 129c1,84 -88,187 -88,187 0,0 -96,-108 -94,-189l0 -126z"/>
 <path class="fil1" d="M534 701c49,798 775,696 824,114 16,-192 11,-426 -6,-480 -17,-54 -255,-87 -370,-112 -115,-25 -405,55 -442,92 -37,37 -6,386 -6,386z"/>
 <path class="fil2" d="M546 459l12 34c93,60 594,123 787,-30l-5 -12 -795 8z"/>
 <path class="fil8" d="M950 123c602,-45 229,582 413,810 -51,-290 212,-380 19,-510 -22,-73 -40,-117 -109,-144 -191,-75 -329,87 -329,87l-1 -1c-7,-28 -57,-242 7,-243z"/>
 <path class="fil2" d="M695 1160c-87,-92 -117,-602 -136,-694 -16,-7 -16,-8 -30,-16 -6,54 2,115 9,174 1,5 1,10 2,15 13,122 -14,332 155,521z"/>
 <path class="fil5" d="M1019 860c-12,24 -38,38 -62,41l0 0 0 0 0 0 0 0c-24,-3 -50,-17 -62,-41 51,28 79,27 124,0z"/>
 <path class="fil8" d="M939 123c-602,-45 -209,578 -393,806 51,-290 -243,-375 -50,-506 22,-73 50,-117 120,-144 191,-75 329,87 329,87l1 -1c7,-28 57,-242 -7,-243z"/>
 <path class="fil9" d="M845 3424l-139 0c-98,88 -218,53 -222,72 -9,17 3,46 94,48 33,1 96,-2 96,-2 9,-3 70,-22 68,-17l1 16 97 0c17,-38 22,-68 5,-117z"/>
 <path class="fil9" d="M1052 3424l139 0c98,88 218,53 222,72 9,17 -3,46 -94,48 -33,1 -96,-2 -96,-2 -9,-3 -70,-22 -68,-17l-1 16 -97 0c-17,-38 -22,-68 -5,-117z"/>
 <path class="fil1" d="M854 1135c7,-47 16,-65 113,-72 88,5 98,26 108,72 10,45 -51,19 -111,18 -58,-1 -117,25 -110,-18z"/>
 <path class="fil5" d="M1223 984c-187,94 -299,101 -511,8 239,34 283,39 511,-8z"/>
 <path class="fil5" d="M1199 995c-116,231 -358,233 -461,7 70,135 369,166 461,-7z"/>
 <path class="fil10" d="M738 1003c70,135 369,166 461,-7 -166,80 -275,85 -461,7z"/>
 <path class="fil8" d="M738 1003c10,19 24,35 41,50 -1,-11 -1,-22 -2,-34 -13,-5 -26,-10 -39,-16z"/>
 <path class="fil8" d="M1161 1013c0,12 -1,24 -1,35 15,-15 29,-32 40,-52 -13,6 -26,12 -38,17z"/>
 <path class="fil11" d="M941 1145c-1,17 101,6 145,-32 -83,32 -145,22 -145,32z"/>
 <path class="fil3" d="M497 423c0,-224 42,-423 443,-423 401,0 443,200 443,423 -295,0 -590,0 -885,0z"/>
 <path class="fil12" d="M1382 423l-885 0c117,148 711,173 882,1 2,-2 1,-2 4,-1z"/>
 <path class="fil12" d="M569 423c-12,-140 -11,-304 209,-410 -252,48 -282,220 -282,410l73 0z"/>
 <path class="fil8" d="M672 586c68,-46 225,-28 195,-6 -12,8 -53,-22 -195,6z"/>
 <path class="fil12" d="M576 2346c-13,-1 -26,-2 -39,-3 57,338 71,784 169,1081 0,0 0,0 0,0l28 0c-54,-321 -124,-721 -157,-1078z"/>
 <rect class="fil12" x="948" y="1461" width="13" height="889"/>
 <polygon class="fil8 str0" points="1381,2385 544,2385 525,2302 1393,2298 "/>
 <path class="fil12" d="M1074 2826c-18,-114 0,-308 -125,-331 49,21 76,166 88,396 1,11 -15,27 -15,38 1,14 32,32 32,32 0,0 -17,14 -17,18 0,4 20,10 18,14 -71,135 -9,380 -4,431l23 0c-35,-172 -9,-433 10,-440 49,-20 -11,-57 -7,-60 7,-7 -2,-82 -4,-97z"/>
 <polygon class="fil13" points="810,1473 953,1459 783,1507 837,1294 "/>
 <polygon class="fil13" points="1083,1485 955,1459 1106,1517 1072,1294 "/>
 <path class="fil12" d="M657 1628c76,0 152,0 228,0 7,159 43,252 -114,249 -157,3 -120,-90 -114,-249z"/>
 <path class="fil3" d="M666 1638c70,0 140,0 209,0 6,147 40,232 -105,229 -144,3 -111,-83 -105,-229z"/>
 <path class="fil12" d="M664 1676c35,24 61,70 106,71 40,-3 72,-47 107,-70 -1,-12 -2,-25 -2,-38l-209 0c-1,13 -1,26 -2,38z"/>
 <circle class="fil10" cx="769" cy="1711" r="18"/>
 <path class="fil12" d="M1026 1628c76,0 152,0 228,0 7,159 43,252 -114,249 -157,3 -120,-90 -114,-249z"/>
 <path class="fil3" d="M1035 1638c70,0 140,0 209,0 6,147 40,232 -105,229 -144,3 -111,-83 -105,-229z"/>
 <path class="fil12" d="M1033 1676c35,24 61,70 106,71 40,-3 72,-47 107,-70 -1,-12 -2,-25 -2,-38l-209 0c-1,13 -1,26 -2,38z"/>
 <circle class="fil10" cx="1139" cy="1711" r="18"/>
 <rect class="fil12" x="1109" y="305" width="206" height="64"/>
 <rect class="fil3" x="714" y="2279" width="26" height="128"/>
 <rect class="fil3" x="1196" y="2279" width="26" height="128"/>
 <rect class="fil10" x="864" y="2301" width="194" height="85"/>
 <rect class="fil14" x="1296" y="2269" width="99" height="248"/>
 <rect class="fil15" x="1335" y="2269" width="99" height="248"/>
 <path class="fil8" d="M1238 586c-68,-46 -225,-28 -195,-6 12,8 53,-22 195,6z"/>
 <path class="fil1" d="M1744 702c57,-41 169,-68 163,123 -7,229 -348,324 -278,-89 12,-70 68,-103 115,-34z"/>
 <rect class="fil16" transform="matrix(-0.0700025 -0.00803879 -0.00477758 0.0416036 1715.24 114.38)" width="1192" height="8771" rx="42" ry="42"/>
 <path class="fil17" d="M1820 231l0 0c-34,-4 -65,21 -69,55l-91 791c-4,34 21,65 55,69l0 0c34,4 65,-21 69,-55 4,-32 7,-65 11,-97 -65,-38 -93,-247 37,-322l43 -372c4,-34 -21,-65 -55,-69z"/>
 <rect class="fil17" transform="matrix(-0.0923038 -0.0105998 -0.00982505 0.0855574 1882.3 237.947)" width="3180" height="1510"/>
 <path class="fil16" d="M1623 174l83 15c9,-46 8,-68 55,-65 66,4 69,28 64,82 11,3 49,7 62,8 15,-80 -10,-149 -104,-160 -114,-14 -149,13 -161,120z"/>
 <rect class="fil17" transform="matrix(-0.0547756 -0.0062902 -0.0229728 0.200049 1906.78 240.759)" width="3180" height="1510"/>
 <rect class="fil18" transform="matrix(-0.104373 -0.0119858 -0.0119858 0.104373 1842.47 295.025)" width="583" height="1961"/>
 <circle class="fil1" transform="matrix(-0.104373 -0.0119858 -0.0119858 0.104373 1722.12 1086.84)" r="305"/>
 <path class="fil8" d="M874 670c-18,-24 -55,-38 -90,-41l0 0 0 0 0 0 0 0c-35,3 -72,17 -90,41 75,-28 115,-27 180,0z"/>
 <path class="fil8" d="M1040 670c18,-24 55,-38 90,-41l0 0 0 0 0 0 0 0c35,3 72,17 90,41 -75,-28 -115,-27 -180,0z"/>
</svg>
