<?xml version="1.0" encoding="utf-8"?>
<!-- Generator: Adobe Illustrator 16.0.0, SVG Export Plug-In . SVG Version: 6.00 Build 0)  -->
<!DOCTYPE svg PUBLIC "-//W3C//DTD SVG 1.1//EN" "http://www.w3.org/Graphics/SVG/1.1/DTD/svg11.dtd">
<svg version="1.1" id="Layer_1" xmlns="http://www.w3.org/2000/svg" xmlns:xlink="http://www.w3.org/1999/xlink" x="0px" y="0px"
	 width="100px" height="100px" viewBox="0 0 100 100" enable-background="new 0 0 100 100" xml:space="preserve">
<g>
	<g>
		<g>
			<path fill="#E6E6E6" d="M74.661,88.329c-5.905,4.612-11.964,8.373-18.29,10.629c-11.313-5.494-20.649-10.658-31.33-17.82
				c4.966-4.58,11.013-8.168,18.29-10.628C55.813,76.372,65.444,81.444,74.661,88.329z"/>
		</g>
	</g>
	<g>
		<g>
			<g>
				<g enable-background="new    ">
					<g>
						<path fill="#CCCCCC" d="M43.137,28.795l2.275,42.639L31.72,79.392l-9.039-38.652C28.259,35.532,35.325,31.367,43.137,28.795z"
							/>
					</g>
					<path fill="#F0E4C0" d="M25.376,49.31l3.037,12.988l0.019-26.15c-1.051,0.754-2.07,1.537-3.048,2.352L25.376,49.31z"/>
					<g>
						<path fill="#E6E6E6" d="M78.505,48.911l-9.187,36.32L45.412,71.435l-2.275-42.639C54.95,33.631,66.936,40.344,78.505,48.911z"
							/>
					</g>
					<path fill="#F0E4C0" d="M74.808,63.525l2.212-8.74l0.004-6.958c-0.732-0.531-1.467-1.055-2.204-1.572L74.808,63.525z"/>
					<g>
						<path fill="#E6E6E6" d="M28.768,45.22l5.218,19.971c0.225,0.856,0.783,1.59,1.552,2.033l8.25,4.764
							c0.479,0.277,1.087,0.075,1.313-0.42c-0.132-0.012-0.264-0.052-0.387-0.122l-8.251-4.765
							c-0.769-0.442-1.327-1.176-1.551-2.035l-5.218-19.97L28.768,45.22z"/>
					</g>
					<g>
						<path fill="#BD4818" d="M80.071,49.41c0,0-6.941,31.349-9.479,35.822c-1.144,2.018-13.792,9.869-14.963,8.695
							c-0.82-0.822,2.495-31.763,2.495-31.763L80.071,49.41z"/>
					</g>
					<g>
						<path fill="#E3B196" d="M74.855,52.441c1.294,6.197-0.308,18.691-4.45,26.681c-5.066,9.772-11.295,13.567-14.623,13.969
							c-0.318,0.038-0.325,0.662-0.152,0.836c1.171,1.174,13.819-6.678,14.963-8.695c2.537-4.473,9.479-35.822,9.479-35.822
							L74.855,52.441z"/>
					</g>
					<path fill="#D4501C" d="M50.422,57.718l-5.299,13.798c-0.205,0.534-0.839,0.76-1.335,0.473l-8.25-4.764
						c-0.769-0.443-1.327-1.177-1.552-2.033L28.768,45.22l-7.582-4.376c0,0,5.908,31.266,9.26,38.547
						c0.952,2.068,23.531,15.58,25.184,14.535c2.031-1.281,3.094-32,2.495-31.763L50.422,57.718z"/>
					<g>
						<path fill="#FFFFFF" d="M80.071,49.41c0.268-2.254-34.577-21.451-36.939-21.319c-2.364,0.204-22.696,10.973-21.946,12.753
							c0.292,0.693,4.737,3.166,7.581,4.376l0.932-0.542c-2.568-1.021-6.389-2.832-6.644-3.834
							c-0.134-1.272,17.788-11.396,20.083-11.67c2.246,0.311,34.716,18.07,35.065,20.236c-0.816,1.413-18.229,11.203-20.085,11.671
							c-1.578-0.215-4.272-2.246-6.764-3.905l-0.931,0.542c2.94,1.924,5.814,4.229,7.703,4.446
							C60.373,61.679,79.253,51.64,80.071,49.41z"/>
					</g>
				</g>
				<g>
					<defs>
						<path id="SVGID_1_" d="M50.422,57.718l-5.299,13.798c-0.205,0.534-0.839,0.76-1.335,0.473l-8.25-4.764
							c-0.769-0.443-1.327-1.177-1.552-2.033L28.768,45.22l-7.582-4.376c0,0,5.908,31.266,9.26,38.547
							c0.952,2.068,23.531,15.58,25.184,14.535c2.031-1.281,3.094-32,2.495-31.763L50.422,57.718z"/>
					</defs>
					<clipPath id="SVGID_2_">
						<use xlink:href="#SVGID_1_"  overflow="visible"/>
					</clipPath>
					
						<ellipse transform="matrix(0.9587 -0.2845 0.2845 0.9587 -15.2065 12.8055)" clip-path="url(#SVGID_2_)" fill="#6E2700" cx="36.474" cy="58.744" rx="9.585" ry="25.387"/>
				</g>
			</g>
			<g>
				<defs>
					<path id="SVGID_3_" d="M58.117,61.081c-1.578-0.215-4.272-2.246-6.764-3.905l-0.931,0.542l-5.33,13.848
						c-0.129-0.012-0.258-0.05-0.379-0.119l-8.251-4.765c-0.769-0.442-1.327-1.176-1.551-2.035l-5.217-19.965l0.005-0.003
						c-2.568-1.021-6.389-2.832-6.644-3.834c-19-19.553,17.788-39.528,20.083-39.802C100.66,8.551,77.854,47.244,78.202,49.41
						C77.386,50.823,59.974,60.612,58.117,61.081z"/>
				</defs>
				<clipPath id="SVGID_4_">
					<use xlink:href="#SVGID_3_"  overflow="visible"/>
				</clipPath>
				<g clip-path="url(#SVGID_4_)">
					<g enable-background="new    ">
						<g>
							<path fill="#FFE599" d="M44.186,10.174c-0.094,0.237-1.794,1.309-2.206,1.282c-0.438-0.057-2.85-1.259-3.045-1.758
								c0.088-0.367,1.887-1.262,2.206-1.282C41.512,8.389,44.031,9.875,44.186,10.174z"/>
						</g>
						<path fill="#FFA536" d="M44.186,10.174L44.14,76.396l-2.206,1.281l0.047-66.222C42.666,11.309,43.413,10.813,44.186,10.174z"
							/>
						<path fill="#FFA536" d="M31.465,29.068l-0.046,66.224l-2.207,1.282l0.047-66.224C29.944,30.204,30.691,29.708,31.465,29.068z"
							/>
						<path fill="#FFA536" d="M70.06,47.938l-0.047,66.223l-2.207,1.282l0.048-66.224C68.538,49.072,69.287,48.577,70.06,47.938z"/>
						<path fill="#FFA536" d="M37.804,41.91l-0.046,66.224l-2.206,1.282l0.047-66.225C36.284,43.045,37.031,42.549,37.804,41.91z"/>
						<path fill="#FFA536" d="M52.622,17.71l-0.047,66.223l-2.206,1.282l0.047-66.223C51.101,18.846,51.847,18.351,52.622,17.71z"/>
						<path fill="#FFA536" d="M60.733,14.657l-0.048,66.225l-2.204,1.281l0.045-66.224C59.212,15.793,59.96,15.297,60.733,14.657z"
							/>
						<path fill="#FFA536" d="M50.028,15.284c-3.046,4.838-4.247,58.262-4.193,64.574l-2.206,1.281
							c0.198-6.539,0.62-60.297,3.98-65.043C48.31,16.089,49.142,15.755,50.028,15.284z"/>
						<path fill="#FFA536" d="M57.298,17.59c-3.045,4.837-4.245,58.263-4.192,64.573L50.9,83.444
							c0.198-6.54,0.62-60.297,3.979-65.043C55.58,18.395,56.412,18.061,57.298,17.59z"/>
						<path fill="#FFA536" d="M50.583,28.658c-3.045,4.837-4.247,58.262-4.193,64.572l-2.206,1.282
							c0.198-6.54,0.62-60.298,3.98-65.044C48.865,29.464,49.697,29.128,50.583,28.658z"/>
						<path fill="#FFA536" d="M66.704,22.316c3.072,4.314,3.534,58.398,3.98,65.043l3.045-1.758
							C72.7,67.703,72.438,25.839,69.332,19.98C69.262,20.45,67.123,22.101,66.704,22.316z"/>
						<path fill="#FFA536" d="M51.176,32.019c3.072,4.314,3.534,58.397,3.979,65.042l3.045-1.757
							c-1.028-17.897-1.291-59.763-4.396-65.622C53.732,30.152,51.594,31.804,51.176,32.019z"/>
						<path fill="#FFA536" d="M59.817,23.024c3.072,4.315,3.535,58.397,3.981,65.044l3.043-1.758
							c-1.028-17.898-1.289-59.763-4.395-65.622C62.375,21.159,60.237,22.811,59.817,23.024z"/>
						<polygon fill="#FFA536" points="40.062,18.309 40.015,84.53 37.809,85.813 37.856,19.59 						"/>
						<polygon fill="#FFA536" points="45.409,32.982 45.362,99.205 43.157,100.488 43.203,34.265 						"/>
						<path fill="#FFA536" d="M36.88,25.319c-4.222,4.282-2.431,57.614-2.368,64.953l-1.589,1.578
							c0.23-7.606-2.791-61.626,1.39-64.882C34.905,26.748,35.849,25.867,36.88,25.319z"/>
						<path fill="#FFA536" d="M50.56,38.625c-4.223,4.282-2.431,57.613-2.369,64.954l-1.589,1.577
							c0.231-7.607-2.79-61.626,1.391-64.882C48.584,40.054,49.528,39.173,50.56,38.625z"/>
						<path fill="#FFA536" d="M69.294,29.637c-3.049,4.837-4.247,58.263-4.195,64.572l-2.205,1.282
							c0.197-6.539,0.62-60.298,3.98-65.043C67.573,30.442,68.404,30.107,69.294,29.637z"/>
						<path fill="#FFA536" d="M40.814,38.839c-3.045,4.838-4.246,58.263-4.193,64.573l-2.206,1.281
							c0.198-6.539,0.62-60.297,3.98-65.043C39.095,39.645,39.928,39.31,40.814,38.839z"/>
						<path fill="#FFA536" d="M61.333,36.103c-3.045,4.837-4.247,58.263-4.192,64.573l-2.206,1.281
							c0.198-6.539,0.619-60.297,3.98-65.043C59.613,36.909,60.447,36.574,61.333,36.103z"/>
						<path fill="#FFA536" d="M62.847,47.364L62.8,113.587l-2.205,1.282l0.045-66.223C61.325,48.499,62.073,48.003,62.847,47.364z"
							/>
						<path fill="#FFA536" d="M52.649,47.737l-0.047,66.223l-2.206,1.282l0.046-66.224C51.128,48.873,51.876,48.376,52.649,47.737z"
							/>
						<path fill="#FFA536" d="M43.72,45.216c-4.223,4.282-2.432,57.613-2.369,64.953l-1.589,1.577
							c0.231-7.605-2.79-61.625,1.391-64.881C41.745,46.646,42.688,45.764,43.72,45.216z"/>
						<path fill="#FFA536" d="M54.535,54.99c3.073,4.313,3.534,58.397,3.98,65.043l3.045-1.758
							c-1.028-17.897-1.291-59.762-4.396-65.62C57.093,53.125,54.954,54.775,54.535,54.99z"/>
						<path fill="#FFA536" d="M76.361,31.817L76.314,98.04l-2.207,1.282l0.047-66.224C74.84,32.952,75.586,32.457,76.361,31.817z"/>
						<path fill="#FFA536" d="M71.91,46.848c-3.046,4.837-4.247,58.262-4.194,64.573l-2.205,1.282
							c0.197-6.539,0.619-60.298,3.979-65.044C70.191,47.654,71.022,47.319,71.91,46.848z"/>
						<path fill="#FFA536" d="M31.465,29.068l-0.046,66.224l-2.207,1.282l0.047-66.224C29.944,30.204,30.691,29.708,31.465,29.068z"
							/>
						<path fill="#FFA536" d="M70.06,47.938l-0.047,66.223l-2.207,1.282l0.048-66.224C68.538,49.072,69.287,48.577,70.06,47.938z"/>
						<path fill="#FFA536" d="M37.804,41.91l-0.046,66.224l-2.206,1.282l0.047-66.225C36.284,43.045,37.031,42.549,37.804,41.91z"/>
						<path fill="#FFA536" d="M52.622,17.71l-0.047,66.223l-2.206,1.282l0.047-66.223C51.101,18.846,51.847,18.351,52.622,17.71z"/>
						<path fill="#FFA536" d="M60.733,14.657l-0.048,66.225l-2.204,1.281l0.045-66.224C59.212,15.793,59.96,15.297,60.733,14.657z"
							/>
						<path fill="#FFA536" d="M50.028,15.284c-3.046,4.838-4.247,58.262-4.193,64.574l-2.206,1.281
							c0.198-6.539,0.62-60.297,3.98-65.043C48.31,16.089,49.142,15.755,50.028,15.284z"/>
						<path fill="#FFA536" d="M57.298,17.59c-3.045,4.837-4.245,58.263-4.192,64.573L50.9,83.444
							c0.198-6.54,0.62-60.297,3.979-65.043C55.58,18.395,56.412,18.061,57.298,17.59z"/>
						<path fill="#FFA536" d="M50.583,28.658c-3.045,4.837-4.247,58.262-4.193,64.572l-2.206,1.282
							c0.198-6.54,0.62-60.298,3.98-65.044C48.865,29.464,49.697,29.128,50.583,28.658z"/>
						<path fill="#FFA536" d="M66.704,22.316c3.072,4.314,3.534,58.398,3.98,65.043l3.045-1.758
							C72.7,67.703,72.438,25.839,69.332,19.98C69.262,20.45,67.123,22.101,66.704,22.316z"/>
						<path fill="#FFA536" d="M51.176,32.019c3.072,4.314,3.534,58.397,3.979,65.042l3.045-1.757
							c-1.028-17.897-1.291-59.763-4.396-65.622C53.732,30.152,51.594,31.804,51.176,32.019z"/>
						<path fill="#FFA536" d="M59.817,23.024c3.072,4.315,3.535,58.397,3.981,65.044l3.043-1.758
							c-1.028-17.898-1.289-59.763-4.395-65.622C62.375,21.159,60.237,22.811,59.817,23.024z"/>
						<polygon fill="#FFA536" points="40.062,18.309 40.015,84.53 37.809,85.813 37.856,19.59 						"/>
						<polygon fill="#FFA536" points="45.409,32.982 45.362,99.205 43.157,100.488 43.203,34.265 						"/>
						<path fill="#FFA536" d="M36.88,25.319c-4.222,4.282-2.431,57.614-2.368,64.953l-1.589,1.578
							c0.23-7.606-2.791-61.626,1.39-64.882C34.905,26.748,35.849,25.867,36.88,25.319z"/>
						<path fill="#FFA536" d="M50.56,38.625c-4.223,4.282-2.431,57.613-2.369,64.954l-1.589,1.577
							c0.231-7.607-2.79-61.626,1.391-64.882C48.584,40.054,49.528,39.173,50.56,38.625z"/>
						<path fill="#FFA536" d="M69.294,29.637c-3.049,4.837-4.247,58.263-4.195,64.572l-2.205,1.282
							c0.197-6.539,0.62-60.298,3.98-65.043C67.573,30.442,68.404,30.107,69.294,29.637z"/>
						<path fill="#FFA536" d="M40.814,38.839c-3.045,4.838-4.246,58.263-4.193,64.573l-2.206,1.281
							c0.198-6.539,0.62-60.297,3.98-65.043C39.095,39.645,39.928,39.31,40.814,38.839z"/>
						<path fill="#FFA536" d="M61.333,36.103c-3.045,4.837-4.247,58.263-4.192,64.573l-2.206,1.281
							c0.198-6.539,0.619-60.297,3.98-65.043C59.613,36.909,60.447,36.574,61.333,36.103z"/>
						<path fill="#FFA536" d="M62.847,47.364L62.8,113.587l-2.205,1.282l0.045-66.223C61.325,48.499,62.073,48.003,62.847,47.364z"
							/>
						<path fill="#FFA536" d="M52.649,47.737l-0.047,66.223l-2.206,1.282l0.046-66.224C51.128,48.873,51.876,48.376,52.649,47.737z"
							/>
						<path fill="#FFA536" d="M43.72,45.216c-4.223,4.282-2.432,57.613-2.369,64.953l-1.589,1.577
							c0.231-7.605-2.79-61.625,1.391-64.881C41.745,46.646,42.688,45.764,43.72,45.216z"/>
						<path fill="#FFA536" d="M54.535,54.99c3.073,4.313,3.534,58.397,3.98,65.043l3.045-1.758
							c-1.028-17.897-1.291-59.762-4.396-65.62C57.093,53.125,54.954,54.775,54.535,54.99z"/>
						<path fill="#FFA536" d="M76.361,31.817L76.314,98.04l-2.207,1.282l0.047-66.224C74.84,32.952,75.586,32.457,76.361,31.817z"/>
						<path fill="#FFA536" d="M71.91,46.848c-3.046,4.837-4.247,58.262-4.194,64.573l-2.205,1.282
							c0.197-6.539,0.619-60.298,3.979-65.044C70.191,47.654,71.022,47.319,71.91,46.848z"/>
						<path fill="#FFA536" d="M31.465,29.068l-0.046,66.224l-2.207,1.282l0.047-66.224C29.944,30.204,30.691,29.708,31.465,29.068z"
							/>
						<path fill="#FFA536" d="M70.06,47.938l-0.047,66.223l-2.207,1.282l0.048-66.224C68.538,49.072,69.287,48.577,70.06,47.938z"/>
						<path fill="#FFA536" d="M37.804,41.91l-0.046,66.224l-2.206,1.282l0.047-66.225C36.284,43.045,37.031,42.549,37.804,41.91z"/>
						<path fill="#FFA536" d="M52.622,17.71l-0.047,66.223l-2.206,1.282l0.047-66.223C51.101,18.846,51.847,18.351,52.622,17.71z"/>
						<path fill="#FFA536" d="M60.733,14.657l-0.048,66.225l-2.204,1.281l0.045-66.224C59.212,15.793,59.96,15.297,60.733,14.657z"
							/>
						<path fill="#FFA536" d="M50.028,15.284c-3.046,4.838-4.247,58.262-4.193,64.574l-2.206,1.281
							c0.198-6.539,0.62-60.297,3.98-65.043C48.31,16.089,49.142,15.755,50.028,15.284z"/>
						<path fill="#FFA536" d="M57.298,17.59c-3.045,4.837-4.245,58.263-4.192,64.573L50.9,83.444
							c0.198-6.54,0.62-60.297,3.979-65.043C55.58,18.395,56.412,18.061,57.298,17.59z"/>
						<path fill="#FFA536" d="M50.583,28.658c-3.045,4.837-4.247,58.262-4.193,64.572l-2.206,1.282
							c0.198-6.54,0.62-60.298,3.98-65.044C48.865,29.464,49.697,29.128,50.583,28.658z"/>
						<path fill="#FFA536" d="M66.704,22.316c3.072,4.314,3.534,58.398,3.98,65.043l3.045-1.758
							C72.7,67.703,72.438,25.839,69.332,19.98C69.262,20.45,67.123,22.101,66.704,22.316z"/>
						<path fill="#FFA536" d="M51.176,32.019c3.072,4.314,3.534,58.397,3.979,65.042l3.045-1.757
							c-1.028-17.897-1.291-59.763-4.396-65.622C53.732,30.152,51.594,31.804,51.176,32.019z"/>
						<path fill="#FFA536" d="M59.817,23.024c3.072,4.315,3.535,58.397,3.981,65.044l3.043-1.758
							c-1.028-17.898-1.289-59.763-4.395-65.622C62.375,21.159,60.237,22.811,59.817,23.024z"/>
						<polygon fill="#FFA536" points="40.062,18.309 40.015,84.53 37.809,85.813 37.856,19.59 						"/>
						<polygon fill="#FFA536" points="45.409,32.982 45.362,99.205 43.157,100.488 43.203,34.265 						"/>
						<path fill="#FFA536" d="M36.88,25.319c-4.222,4.282-2.431,57.614-2.368,64.953l-1.589,1.578
							c0.23-7.606-2.791-61.626,1.39-64.882C34.905,26.748,35.849,25.867,36.88,25.319z"/>
						<path fill="#FFA536" d="M50.56,38.625c-4.223,4.282-2.431,57.613-2.369,64.954l-1.589,1.577
							c0.231-7.607-2.79-61.626,1.391-64.882C48.584,40.054,49.528,39.173,50.56,38.625z"/>
						<path fill="#FFA536" d="M69.294,29.637c-3.049,4.837-4.247,58.263-4.195,64.572l-2.205,1.282
							c0.197-6.539,0.62-60.298,3.98-65.043C67.573,30.442,68.404,30.107,69.294,29.637z"/>
						<path fill="#FFA536" d="M40.814,38.839c-3.045,4.838-4.246,58.263-4.193,64.573l-2.206,1.281
							c0.198-6.539,0.62-60.297,3.98-65.043C39.095,39.645,39.928,39.31,40.814,38.839z"/>
						<path fill="#FFA536" d="M61.333,36.103c-3.045,4.837-4.247,58.263-4.192,64.573l-2.206,1.281
							c0.198-6.539,0.619-60.297,3.98-65.043C59.613,36.909,60.447,36.574,61.333,36.103z"/>
						<path fill="#FFA536" d="M62.847,47.364L62.8,113.587l-2.205,1.282l0.045-66.223C61.325,48.499,62.073,48.003,62.847,47.364z"
							/>
						<path fill="#FFA536" d="M52.649,47.737l-0.047,66.223l-2.206,1.282l0.046-66.224C51.128,48.873,51.876,48.376,52.649,47.737z"
							/>
						<path fill="#FFA536" d="M43.72,45.216c-4.223,4.282-2.432,57.613-2.369,64.953l-1.589,1.577
							c0.231-7.605-2.79-61.625,1.391-64.881C41.745,46.646,42.688,45.764,43.72,45.216z"/>
						<path fill="#FFA536" d="M54.535,54.99c3.073,4.313,3.534,58.397,3.98,65.043l3.045-1.758
							c-1.028-17.897-1.291-59.762-4.396-65.62C57.093,53.125,54.954,54.775,54.535,54.99z"/>
						<path fill="#FFA536" d="M76.361,31.817L76.314,98.04l-2.207,1.282l0.047-66.224C74.84,32.952,75.586,32.457,76.361,31.817z"/>
						<path fill="#FFA536" d="M71.91,46.848c-3.046,4.837-4.247,58.262-4.194,64.573l-2.205,1.282
							c0.197-6.539,0.619-60.298,3.979-65.044C70.191,47.654,71.022,47.319,71.91,46.848z"/>
						<path fill="#FFA536" d="M44.186,10.174L44.14,76.396l-2.206,1.281l0.047-66.222C42.666,11.309,43.413,10.813,44.186,10.174z"
							/>
						<path fill="#FFA536" d="M31.465,29.068l-0.046,66.224l-2.207,1.282l0.047-66.224C29.944,30.204,30.691,29.708,31.465,29.068z"
							/>
						<path fill="#FFA536" d="M70.06,47.938l-0.047,66.223l-2.207,1.282l0.048-66.224C68.538,49.072,69.287,48.577,70.06,47.938z"/>
						<path fill="#FFA536" d="M37.804,41.91l-0.046,66.224l-2.206,1.282l0.047-66.225C36.284,43.045,37.031,42.549,37.804,41.91z"/>
						<path fill="#FFA536" d="M52.622,17.71l-0.047,66.223l-2.206,1.282l0.047-66.223C51.101,18.846,51.847,18.351,52.622,17.71z"/>
						<path fill="#FFA536" d="M60.733,14.657l-0.048,66.225l-2.204,1.281l0.045-66.224C59.212,15.793,59.96,15.297,60.733,14.657z"
							/>
						<path fill="#FFA536" d="M50.028,15.284c-3.046,4.838-4.247,58.262-4.193,64.574l-2.206,1.281
							c0.198-6.539,0.62-60.297,3.98-65.043C48.31,16.089,49.142,15.755,50.028,15.284z"/>
						<path fill="#FFA536" d="M57.298,17.59c-3.045,4.837-4.245,58.263-4.192,64.573L50.9,83.444
							c0.198-6.54,0.62-60.297,3.979-65.043C55.58,18.395,56.412,18.061,57.298,17.59z"/>
						<path fill="#FFA536" d="M50.583,28.658c-3.045,4.837-4.247,58.262-4.193,64.572l-2.206,1.282
							c0.198-6.54,0.62-60.298,3.98-65.044C48.865,29.464,49.697,29.128,50.583,28.658z"/>
						<path fill="#FFA536" d="M66.704,22.316c3.072,4.314,3.534,58.398,3.98,65.043l3.045-1.758
							C72.7,67.703,72.438,25.839,69.332,19.98C69.262,20.45,67.123,22.101,66.704,22.316z"/>
						<path fill="#FFA536" d="M51.176,32.019c3.072,4.314,3.534,58.397,3.979,65.042l3.045-1.757
							c-1.028-17.897-1.291-59.763-4.396-65.622C53.732,30.152,51.594,31.804,51.176,32.019z"/>
						<path fill="#FFA536" d="M59.817,23.024c3.072,4.315,3.535,58.397,3.981,65.044l3.043-1.758
							c-1.028-17.898-1.289-59.763-4.395-65.622C62.375,21.159,60.237,22.811,59.817,23.024z"/>
						<polygon fill="#FFA536" points="40.062,18.309 40.015,84.53 37.809,85.813 37.856,19.59 						"/>
						<polygon fill="#FFA536" points="45.409,32.982 45.362,99.205 43.157,100.488 43.203,34.265 						"/>
						<path fill="#FFA536" d="M36.88,25.319c-4.222,4.282-2.431,57.614-2.368,64.953l-1.589,1.578
							c0.23-7.606-2.791-61.626,1.39-64.882C34.905,26.748,35.849,25.867,36.88,25.319z"/>
						<path fill="#FFA536" d="M50.56,38.625c-4.223,4.282-2.431,57.613-2.369,64.954l-1.589,1.577
							c0.231-7.607-2.79-61.626,1.391-64.882C48.584,40.054,49.528,39.173,50.56,38.625z"/>
						<path fill="#FFA536" d="M69.294,29.637c-3.049,4.837-4.247,58.263-4.195,64.572l-2.205,1.282
							c0.197-6.539,0.62-60.298,3.98-65.043C67.573,30.442,68.404,30.107,69.294,29.637z"/>
						<path fill="#FFA536" d="M40.814,38.839c-3.045,4.838-4.246,58.263-4.193,64.573l-2.206,1.281
							c0.198-6.539,0.62-60.297,3.98-65.043C39.095,39.645,39.928,39.31,40.814,38.839z"/>
						<path fill="#FFA536" d="M61.333,36.103c-3.045,4.837-4.247,58.263-4.192,64.573l-2.206,1.281
							c0.198-6.539,0.619-60.297,3.98-65.043C59.613,36.909,60.447,36.574,61.333,36.103z"/>
						<path fill="#FFA536" d="M62.847,47.364L62.8,113.587l-2.205,1.282l0.045-66.223C61.325,48.499,62.073,48.003,62.847,47.364z"
							/>
						<path fill="#FFA536" d="M52.649,47.737l-0.047,66.223l-2.206,1.282l0.046-66.224C51.128,48.873,51.876,48.376,52.649,47.737z"
							/>
						<path fill="#FFA536" d="M43.72,45.216c-4.223,4.282-2.432,57.613-2.369,64.953l-1.589,1.577
							c0.231-7.605-2.79-61.625,1.391-64.881C41.745,46.646,42.688,45.764,43.72,45.216z"/>
						<path fill="#FFA536" d="M54.535,54.99c3.073,4.313,3.534,58.397,3.98,65.043l3.045-1.758
							c-1.028-17.897-1.291-59.762-4.396-65.62C57.093,53.125,54.954,54.775,54.535,54.99z"/>
						<path fill="#FFA536" d="M76.361,31.817L76.314,98.04l-2.207,1.282l0.047-66.224C74.84,32.952,75.586,32.457,76.361,31.817z"/>
						<path fill="#FFA536" d="M71.91,46.848c-3.046,4.837-4.247,58.262-4.194,64.573l-2.205,1.282
							c0.197-6.539,0.619-60.298,3.979-65.044C70.191,47.654,71.022,47.319,71.91,46.848z"/>
						<path fill="#FFA536" d="M31.465,29.068l-0.046,66.224l-2.207,1.282l0.047-66.224C29.944,30.204,30.691,29.708,31.465,29.068z"
							/>
						<path fill="#FFA536" d="M70.06,47.938l-0.047,66.223l-2.207,1.282l0.048-66.224C68.538,49.072,69.287,48.577,70.06,47.938z"/>
						<path fill="#FFA536" d="M37.804,41.91l-0.046,66.224l-2.206,1.282l0.047-66.225C36.284,43.045,37.031,42.549,37.804,41.91z"/>
						<path fill="#FFA536" d="M52.622,17.71l-0.047,66.223l-2.206,1.282l0.047-66.223C51.101,18.846,51.847,18.351,52.622,17.71z"/>
						<path fill="#FFA536" d="M60.733,14.657l-0.048,66.225l-2.204,1.281l0.045-66.224C59.212,15.793,59.96,15.297,60.733,14.657z"
							/>
						<path fill="#FFA536" d="M50.028,15.284c-3.046,4.838-4.247,58.262-4.193,64.574l-2.206,1.281
							c0.198-6.539,0.62-60.297,3.98-65.043C48.31,16.089,49.142,15.755,50.028,15.284z"/>
						<path fill="#FFA536" d="M57.298,17.59c-3.045,4.837-4.245,58.263-4.192,64.573L50.9,83.444
							c0.198-6.54,0.62-60.297,3.979-65.043C55.58,18.395,56.412,18.061,57.298,17.59z"/>
						<path fill="#FFA536" d="M50.583,28.658c-3.045,4.837-4.247,58.262-4.193,64.572l-2.206,1.282
							c0.198-6.54,0.62-60.298,3.98-65.044C48.865,29.464,49.697,29.128,50.583,28.658z"/>
						<path fill="#FFA536" d="M66.704,22.316c3.072,4.314,3.534,58.398,3.98,65.043l3.045-1.758
							C72.7,67.703,72.438,25.839,69.332,19.98C69.262,20.45,67.123,22.101,66.704,22.316z"/>
						<path fill="#FFA536" d="M51.176,32.019c3.072,4.314,3.534,58.397,3.979,65.042l3.045-1.757
							c-1.028-17.897-1.291-59.763-4.396-65.622C53.732,30.152,51.594,31.804,51.176,32.019z"/>
						<path fill="#FFA536" d="M59.817,23.024c3.072,4.315,3.535,58.397,3.981,65.044l3.043-1.758
							c-1.028-17.898-1.289-59.763-4.395-65.622C62.375,21.159,60.237,22.811,59.817,23.024z"/>
						<polygon fill="#FFA536" points="40.062,18.309 40.015,84.53 37.809,85.813 37.856,19.59 						"/>
						<polygon fill="#FFA536" points="45.409,32.982 45.362,99.205 43.157,100.488 43.203,34.265 						"/>
						<path fill="#FFA536" d="M36.88,25.319c-4.222,4.282-2.431,57.614-2.368,64.953l-1.589,1.578
							c0.23-7.606-2.791-61.626,1.39-64.882C34.905,26.748,35.849,25.867,36.88,25.319z"/>
						<path fill="#FFA536" d="M50.56,38.625c-4.223,4.282-2.431,57.613-2.369,64.954l-1.589,1.577
							c0.231-7.607-2.79-61.626,1.391-64.882C48.584,40.054,49.528,39.173,50.56,38.625z"/>
						<path fill="#FFA536" d="M69.294,29.637c-3.049,4.837-4.247,58.263-4.195,64.572l-2.205,1.282
							c0.197-6.539,0.62-60.298,3.98-65.043C67.573,30.442,68.404,30.107,69.294,29.637z"/>
						<path fill="#FFA536" d="M40.814,38.839c-3.045,4.838-4.246,58.263-4.193,64.573l-2.206,1.281
							c0.198-6.539,0.62-60.297,3.98-65.043C39.095,39.645,39.928,39.31,40.814,38.839z"/>
						<path fill="#FFA536" d="M61.333,36.103c-3.045,4.837-4.247,58.263-4.192,64.573l-2.206,1.281
							c0.198-6.539,0.619-60.297,3.98-65.043C59.613,36.909,60.447,36.574,61.333,36.103z"/>
						<path fill="#FFA536" d="M62.847,47.364L62.8,113.587l-2.205,1.282l0.045-66.223C61.325,48.499,62.073,48.003,62.847,47.364z"
							/>
						<path fill="#FFA536" d="M52.649,47.737l-0.047,66.223l-2.206,1.282l0.046-66.224C51.128,48.873,51.876,48.376,52.649,47.737z"
							/>
						<path fill="#FFA536" d="M43.72,45.216c-4.223,4.282-2.432,57.613-2.369,64.953l-1.589,1.577
							c0.231-7.605-2.79-61.625,1.391-64.881C41.745,46.646,42.688,45.764,43.72,45.216z"/>
						<path fill="#FFA536" d="M54.535,54.99c3.073,4.313,3.534,58.397,3.98,65.043l3.045-1.758
							c-1.028-17.897-1.291-59.762-4.396-65.62C57.093,53.125,54.954,54.775,54.535,54.99z"/>
						<path fill="#FFA536" d="M76.361,31.817L76.314,98.04l-2.207,1.282l0.047-66.224C74.84,32.952,75.586,32.457,76.361,31.817z"/>
						<path fill="#FFA536" d="M71.91,46.848c-3.046,4.837-4.247,58.262-4.194,64.573l-2.205,1.282
							c0.197-6.539,0.619-60.298,3.979-65.044C70.191,47.654,71.022,47.319,71.91,46.848z"/>
						<path fill="#FFA536" d="M44.186,10.174L44.14,76.396l-2.206,1.281l0.047-66.222C42.666,11.309,43.413,10.813,44.186,10.174z"
							/>
						<path fill="#FFA536" d="M31.465,29.068l-0.046,66.224l-2.207,1.282l0.047-66.224C29.944,30.204,30.691,29.708,31.465,29.068z"
							/>
						<path fill="#FFA536" d="M70.06,47.938l-0.047,66.223l-2.207,1.282l0.048-66.224C68.538,49.072,69.287,48.577,70.06,47.938z"/>
						<path fill="#FFA536" d="M37.804,41.91l-0.046,66.224l-2.206,1.282l0.047-66.225C36.284,43.045,37.031,42.549,37.804,41.91z"/>
						<path fill="#FFA536" d="M52.622,17.71l-0.047,66.223l-2.206,1.282l0.047-66.223C51.101,18.846,51.847,18.351,52.622,17.71z"/>
						<path fill="#FFA536" d="M60.733,14.657l-0.048,66.225l-2.204,1.281l0.045-66.224C59.212,15.793,59.96,15.297,60.733,14.657z"
							/>
						<path fill="#FFA536" d="M50.028,15.284c-3.046,4.838-4.247,58.262-4.193,64.574l-2.206,1.281
							c0.198-6.539,0.62-60.297,3.98-65.043C48.31,16.089,49.142,15.755,50.028,15.284z"/>
						<path fill="#FFA536" d="M57.298,17.59c-3.045,4.837-4.245,58.263-4.192,64.573L50.9,83.444
							c0.198-6.54,0.62-60.297,3.979-65.043C55.58,18.395,56.412,18.061,57.298,17.59z"/>
						<path fill="#FFA536" d="M50.583,28.658c-3.045,4.837-4.247,58.262-4.193,64.572l-2.206,1.282
							c0.198-6.54,0.62-60.298,3.98-65.044C48.865,29.464,49.697,29.128,50.583,28.658z"/>
						<path fill="#FFA536" d="M66.704,22.316c3.072,4.314,3.534,58.398,3.98,65.043l3.045-1.758
							C72.7,67.703,72.438,25.839,69.332,19.98C69.262,20.45,67.123,22.101,66.704,22.316z"/>
						<path fill="#FFA536" d="M51.176,32.019c3.072,4.314,3.534,58.397,3.979,65.042l3.045-1.757
							c-1.028-17.897-1.291-59.763-4.396-65.622C53.732,30.152,51.594,31.804,51.176,32.019z"/>
						<path fill="#FFA536" d="M59.817,23.024c3.072,4.315,3.535,58.397,3.981,65.044l3.043-1.758
							c-1.028-17.898-1.289-59.763-4.395-65.622C62.375,21.159,60.237,22.811,59.817,23.024z"/>
						<polygon fill="#FFA536" points="40.062,18.309 40.015,84.53 37.809,85.813 37.856,19.59 						"/>
						<polygon fill="#FFA536" points="45.409,32.982 45.362,99.205 43.157,100.488 43.203,34.265 						"/>
						<path fill="#FFA536" d="M36.88,25.319c-4.222,4.282-2.431,57.614-2.368,64.953l-1.589,1.578
							c0.23-7.606-2.791-61.626,1.39-64.882C34.905,26.748,35.849,25.867,36.88,25.319z"/>
						<path fill="#FFA536" d="M50.56,38.625c-4.223,4.282-2.431,57.613-2.369,64.954l-1.589,1.577
							c0.231-7.607-2.79-61.626,1.391-64.882C48.584,40.054,49.528,39.173,50.56,38.625z"/>
						<path fill="#FFA536" d="M69.294,29.637c-3.049,4.837-4.247,58.263-4.195,64.572l-2.205,1.282
							c0.197-6.539,0.62-60.298,3.98-65.043C67.573,30.442,68.404,30.107,69.294,29.637z"/>
						<path fill="#FFA536" d="M40.814,38.839c-3.045,4.838-4.246,58.263-4.193,64.573l-2.206,1.281
							c0.198-6.539,0.62-60.297,3.98-65.043C39.095,39.645,39.928,39.31,40.814,38.839z"/>
						<path fill="#FFA536" d="M61.333,36.103c-3.045,4.837-4.247,58.263-4.192,64.573l-2.206,1.281
							c0.198-6.539,0.619-60.297,3.98-65.043C59.613,36.909,60.447,36.574,61.333,36.103z"/>
						<path fill="#FFA536" d="M62.847,47.364L62.8,113.587l-2.205,1.282l0.045-66.223C61.325,48.499,62.073,48.003,62.847,47.364z"
							/>
						<path fill="#FFA536" d="M52.649,47.737l-0.047,66.223l-2.206,1.282l0.046-66.224C51.128,48.873,51.876,48.376,52.649,47.737z"
							/>
						<path fill="#FFA536" d="M43.72,45.216c-4.223,4.282-2.432,57.613-2.369,64.953l-1.589,1.577
							c0.231-7.605-2.79-61.625,1.391-64.881C41.745,46.646,42.688,45.764,43.72,45.216z"/>
						<path fill="#FFA536" d="M54.535,54.99c3.073,4.313,3.534,58.397,3.98,65.043l3.045-1.758
							c-1.028-17.897-1.291-59.762-4.396-65.62C57.093,53.125,54.954,54.775,54.535,54.99z"/>
						<path fill="#FFA536" d="M76.361,31.817L76.314,98.04l-2.207,1.282l0.047-66.224C74.84,32.952,75.586,32.457,76.361,31.817z"/>
						<path fill="#FFA536" d="M71.91,46.848c-3.046,4.837-4.247,58.262-4.194,64.573l-2.205,1.282
							c0.197-6.539,0.619-60.298,3.979-65.044C70.191,47.654,71.022,47.319,71.91,46.848z"/>
						<path fill="#FFA536" d="M44.186,10.174L44.14,76.396l-2.206,1.281l0.047-66.222C42.666,11.309,43.413,10.813,44.186,10.174z"
							/>
						<g>
							<path fill="#FFCD36" d="M41.98,11.456l-0.047,66.222l-3.045-1.758l0.047-66.223C39.1,10.142,41.527,11.33,41.98,11.456z"/>
						</g>
					</g>
				</g>
				<g clip-path="url(#SVGID_4_)">
					<g enable-background="new    ">
						<g>
							<path fill="#FFE599" d="M31.465,29.068c-0.094,0.238-1.794,1.309-2.206,1.282c-0.438-0.057-2.85-1.259-3.046-1.758
								c0.089-0.366,1.888-1.262,2.206-1.282C28.791,27.285,31.309,28.77,31.465,29.068z"/>
						</g>
						<path fill="#FFA536" d="M31.465,29.068l-0.046,66.224l-2.207,1.282l0.047-66.224C29.944,30.204,30.691,29.708,31.465,29.068z"
							/>
						<g>
							<path fill="#FFCD36" d="M29.259,30.35l-0.047,66.224l-3.045-1.758l0.046-66.224C26.378,29.038,28.806,30.225,29.259,30.35z"
								/>
						</g>
					</g>
				</g>
				<g clip-path="url(#SVGID_4_)">
					<g enable-background="new    ">
						<g>
							<path fill="#FFE599" d="M70.06,47.938c-0.095,0.237-1.795,1.308-2.206,1.281c-0.439-0.057-2.85-1.259-3.046-1.758
								c0.088-0.367,1.888-1.262,2.207-1.282C67.386,46.153,69.904,47.638,70.06,47.938z"/>
						</g>
						<path fill="#FFA536" d="M70.06,47.938l-0.047,66.223l-2.207,1.282l0.048-66.224C68.538,49.072,69.287,48.577,70.06,47.938z"/>
						<g>
							<path fill="#FFCD36" d="M67.854,49.219l-0.048,66.224l-3.044-1.758l0.046-66.224C64.973,47.906,67.4,49.093,67.854,49.219z"
								/>
						</g>
					</g>
				</g>
				<g clip-path="url(#SVGID_4_)">
					<g enable-background="new    ">
						<g>
							<path fill="#FFE599" d="M37.804,41.91c-0.094,0.237-1.794,1.309-2.205,1.282c-0.438-0.057-2.85-1.259-3.045-1.758
								c0.088-0.366,1.887-1.263,2.205-1.282C35.13,40.125,37.649,41.611,37.804,41.91z"/>
						</g>
						<path fill="#FFA536" d="M37.804,41.91l-0.046,66.224l-2.206,1.282l0.047-66.225C36.284,43.045,37.031,42.549,37.804,41.91z"/>
						<g>
							<path fill="#FFCD36" d="M35.599,43.191l-0.047,66.225l-3.045-1.76l0.047-66.223C32.719,41.879,35.145,43.065,35.599,43.191z"
								/>
						</g>
					</g>
				</g>
				<g clip-path="url(#SVGID_4_)">
					<g enable-background="new    ">
						<g>
							<path fill="#FFE599" d="M52.622,17.71c-0.095,0.238-1.794,1.31-2.206,1.283c-0.438-0.058-2.85-1.259-3.046-1.758
								c0.088-0.366,1.889-1.262,2.207-1.282C49.947,15.927,52.467,17.412,52.622,17.71z"/>
						</g>
						<path fill="#FFA536" d="M52.622,17.71l-0.047,66.223l-2.206,1.282l0.047-66.223C51.101,18.846,51.847,18.351,52.622,17.71z"/>
						<g>
							<path fill="#FFCD36" d="M50.416,18.993l-0.047,66.223l-3.045-1.759l0.046-66.222C47.535,17.68,49.962,18.867,50.416,18.993z"
								/>
						</g>
					</g>
				</g>
				<g clip-path="url(#SVGID_4_)">
					<g enable-background="new    ">
						<g>
							<path fill="#FFE599" d="M60.733,14.657c-0.096,0.237-1.795,1.309-2.207,1.282c-0.438-0.057-2.849-1.258-3.045-1.757
								c0.089-0.367,1.888-1.262,2.206-1.282C58.058,12.873,60.577,14.359,60.733,14.657z"/>
						</g>
						<path fill="#FFA536" d="M60.733,14.657l-0.048,66.225l-2.204,1.281l0.045-66.224C59.212,15.793,59.96,15.297,60.733,14.657z"
							/>
						<g>
							<path fill="#FFCD36" d="M58.526,15.939l-0.045,66.224l-3.046-1.759l0.046-66.223C55.646,14.626,58.074,15.813,58.526,15.939z
								"/>
						</g>
					</g>
				</g>
				<g clip-path="url(#SVGID_4_)">
					<g enable-background="new    ">
						<g>
							<path fill="#E6D2C3" d="M50.837,15.931c-0.14,0.213-2.021,0.921-2.419,0.811C48,16.598,45.88,14.934,45.79,14.406
								c0.16-0.34,2.103-0.856,2.418-0.811C48.577,13.644,50.745,15.607,50.837,15.931z"/>
						</g>
						<path fill="#E6D2C3" d="M50.837,15.931c-3.046,4.837-4.247,58.262-4.193,64.573l-2.206,1.282
							c0.198-6.54,0.619-60.298,3.98-65.044C49.118,16.736,49.95,16.402,50.837,15.931z"/>
						<g>
							<path fill="#E6D2C3" d="M48.418,16.742c-3.073,4.314-3.535,58.396-3.98,65.044l-3.045-1.76
								c1.029-17.898,1.291-59.762,4.397-65.62C45.861,14.875,47.999,16.527,48.418,16.742z"/>
						</g>
					</g>
				</g>
				<g clip-path="url(#SVGID_4_)">
					<g enable-background="new    ">
						<g>
							<path fill="#FFE599" d="M50.028,15.284c-0.14,0.213-2.021,0.921-2.418,0.812c-0.418-0.144-2.538-1.808-2.629-2.336
								c0.16-0.341,2.103-0.855,2.419-0.811C47.769,12.998,49.936,14.96,50.028,15.284z"/>
						</g>
						<path fill="#FFA536" d="M50.028,15.284c-3.046,4.838-4.247,58.262-4.193,64.574l-2.206,1.281
							c0.198-6.539,0.62-60.297,3.98-65.043C48.31,16.089,49.142,15.755,50.028,15.284z"/>
						<g>
							<path fill="#FFCD36" d="M47.61,16.095c-3.073,4.314-3.535,58.398-3.98,65.043l-3.045-1.759
								c1.029-17.897,1.291-59.762,4.397-65.621C45.053,14.229,47.191,15.881,47.61,16.095z"/>
						</g>
					</g>
				</g>
				<path clip-path="url(#SVGID_4_)" fill="#E6D2C3" d="M61.045,20.689c-0.161-0.341-2.103-0.855-2.419-0.811
					c-0.139,0.019-0.527,0.304-0.965,0.672c0.271-1.389,0.558-2.383,0.865-2.884v-0.052c-0.196-0.399-2.259-2.258-2.615-2.306
					c-0.073-0.01-0.231,0.009-0.43,0.049L55.46,45.641c0.385-7.603,0.875-14.882,1.483-20.16
					c2.352,12.829,3.295,55.693,3.247,61.306l2.207,1.281l3.046-1.758C64.412,68.412,64.152,26.548,61.045,20.689z"/>
				<g clip-path="url(#SVGID_4_)">
					<g enable-background="new    ">
						<g>
							<path fill="#FFE599" d="M57.298,17.59c-0.14,0.213-2.021,0.92-2.419,0.811c-0.417-0.144-2.537-1.808-2.627-2.335
								c0.16-0.341,2.104-0.856,2.418-0.811C55.039,15.303,57.207,17.266,57.298,17.59z"/>
						</g>
						<path fill="#FFA536" d="M57.298,17.59c-3.045,4.837-4.245,58.263-4.192,64.573L50.9,83.444
							c0.198-6.54,0.62-60.297,3.979-65.043C55.58,18.395,56.412,18.061,57.298,17.59z"/>
						<g>
							<path fill="#FFCD36" d="M54.879,18.401c-3.072,4.314-3.533,58.397-3.979,65.043l-3.046-1.758
								c1.03-17.898,1.292-59.763,4.398-65.621C52.323,16.535,54.461,18.186,54.879,18.401z"/>
						</g>
					</g>
				</g>
				<g clip-path="url(#SVGID_4_)">
					<g enable-background="new    ">
						<g>
							<path fill="#E6D2C3" d="M51.769,28.874c-0.139,0.213-2.021,0.921-2.418,0.811c-0.417-0.144-2.538-1.808-2.629-2.336
								c0.161-0.34,2.103-0.855,2.418-0.811C49.509,26.587,51.678,28.55,51.769,28.874z"/>
						</g>
						<path fill="#E6D2C3" d="M51.769,28.874c-3.045,4.837-4.246,58.262-4.192,64.572l-2.206,1.283
							c0.198-6.54,0.619-60.298,3.98-65.044C50.05,29.679,50.882,29.344,51.769,28.874z"/>
						<g>
							<path fill="#E6D2C3" d="M49.351,29.685c-3.073,4.314-3.535,58.397-3.98,65.044l-3.045-1.759
								c1.029-17.898,1.291-59.763,4.396-65.622C46.793,27.818,48.932,29.47,49.351,29.685z"/>
						</g>
					</g>
				</g>
				<path clip-path="url(#SVGID_4_)" fill="#E6D2C3" d="M49.846,28.573L49.846,28.573L49.846,28.573
					c-0.092-0.324-2.261-2.286-2.629-2.336c-0.316-0.044-2.258,0.47-2.419,0.811c0.003,0.015,0.008,0.031,0.014,0.049
					c-0.007-0.018-0.011-0.034-0.014-0.049c-3.105,5.859-3.367,47.723-4.396,65.621l3.045,1.758l2.207-1.282
					C45.599,86.834,46.8,33.41,49.846,28.573z"/>
				<g clip-path="url(#SVGID_4_)">
					<g enable-background="new    ">
						<g>
							<path fill="#FFE599" d="M50.583,28.658c-0.141,0.213-2.021,0.92-2.419,0.811c-0.417-0.145-2.538-1.807-2.628-2.336
								c0.16-0.341,2.103-0.855,2.418-0.811C48.323,26.371,50.491,28.334,50.583,28.658z"/>
						</g>
						<path fill="#FFA536" d="M50.583,28.658c-3.045,4.837-4.247,58.262-4.193,64.572l-2.206,1.282
							c0.198-6.54,0.62-60.298,3.98-65.044C48.865,29.464,49.697,29.128,50.583,28.658z"/>
						<g>
							<path fill="#FFCD36" d="M48.165,29.469c-3.073,4.315-3.534,58.398-3.98,65.044l-3.045-1.759
								c1.029-17.898,1.291-59.762,4.397-65.621C45.608,27.603,47.746,29.254,48.165,29.469z"/>
						</g>
					</g>
				</g>
				<g clip-path="url(#SVGID_4_)">
					<g enable-background="new    ">
						<g>
							<path fill="#FFE599" d="M64.285,21.505c0.14,0.213,2.021,0.92,2.419,0.811c0.417-0.144,2.537-1.808,2.628-2.335
								c-0.161-0.341-2.104-0.856-2.417-0.811C66.547,19.219,64.378,21.181,64.285,21.505z"/>
						</g>
						<g>
							<path fill="#FFCD36" d="M64.285,21.505c3.046,4.837,4.247,58.261,4.192,64.572l2.207,1.282
								c-0.197-6.539-0.621-60.298-3.98-65.043C66.003,22.311,65.172,21.976,64.285,21.505z"/>
						</g>
						<path fill="#FFA536" d="M66.704,22.316c3.072,4.314,3.534,58.398,3.98,65.043l3.045-1.758
							C72.7,67.703,72.438,25.839,69.332,19.98C69.262,20.45,67.123,22.101,66.704,22.316z"/>
					</g>
				</g>
				<path clip-path="url(#SVGID_4_)" fill="#E6D2C3" d="M71.193,30.272c-0.297,0.12-0.713,0.323-1.077,0.536
					c0.151-0.518,0.308-0.915,0.471-1.172c-0.094-0.324-2.261-2.286-2.63-2.335c-0.316-0.045-2.259,0.47-2.42,0.811
					c-3.104,5.858-3.366,47.722-4.395,65.621l3.045,1.759l2.205-1.282c-0.045-5.355,0.813-44.646,2.936-59.37L69.32,45.5
					c0.828,17.082,1.1,37.897,1.364,41.859l3.045-1.758C72.959,72.202,72.619,45.373,71.193,30.272z"/>
				<g clip-path="url(#SVGID_4_)">
					<path fill="#E6D2C3" d="M55.26,29.413c-0.146-0.31-1.771-0.764-2.295-0.809c-0.351,3.698-0.641,8.113-0.878,12.815
						c0.591,6.078,1.059,14.017,1.415,21.955c0.348-10.979,0.932-24.373,1.791-33.895C55.282,29.457,55.271,29.434,55.26,29.413z"/>
					<path fill="#E6D2C3" d="M58.493,64.117c-0.568-15.241-1.369-30.077-3.022-34.239l-0.035,50.526l3.046,1.759L58.493,64.117z"/>
				</g>
				<g clip-path="url(#SVGID_4_)">
					<g enable-background="new    ">
						<g>
							<path fill="#FFE599" d="M48.757,31.208c0.14,0.213,2.021,0.92,2.419,0.811c0.417-0.145,2.536-1.808,2.628-2.336
								c-0.16-0.341-2.104-0.855-2.418-0.811C51.017,28.92,48.849,30.883,48.757,31.208z"/>
						</g>
						<g>
							<path fill="#FFCD36" d="M48.757,31.208c3.045,4.837,4.246,58.261,4.192,64.572l2.206,1.281
								c-0.198-6.538-0.62-60.296-3.979-65.042C50.475,32.013,49.643,31.678,48.757,31.208z"/>
						</g>
						<path fill="#FFA536" d="M51.176,32.019c3.072,4.314,3.534,58.397,3.979,65.042l3.045-1.757
							c-1.028-17.897-1.291-59.763-4.396-65.622C53.732,30.152,51.594,31.804,51.176,32.019z"/>
					</g>
				</g>
				<path clip-path="url(#SVGID_4_)" fill="#FFA536" d="M60.733,14.657l-0.048,66.225l-2.204,1.281l0.045-66.224
					C59.212,15.793,59.96,15.297,60.733,14.657z"/>
				<g clip-path="url(#SVGID_4_)">
					<g enable-background="new    ">
						<g>
							<path fill="#FFE599" d="M57.399,22.214c0.14,0.213,2.021,0.92,2.418,0.81c0.419-0.144,2.539-1.807,2.63-2.335
								c-0.16-0.341-2.104-0.855-2.419-0.811C59.659,19.927,57.491,21.89,57.399,22.214z"/>
						</g>
						<g>
							<path fill="#FFCD36" d="M57.399,22.214c3.046,4.836,4.248,58.262,4.193,64.573l2.206,1.281
								c-0.198-6.538-0.621-60.297-3.981-65.044C59.117,23.02,58.287,22.685,57.399,22.214z"/>
						</g>
						<path fill="#FFA536" d="M59.817,23.024c3.072,4.315,3.535,58.397,3.981,65.044l3.043-1.758
							c-1.028-17.898-1.289-59.763-4.395-65.622C62.375,21.159,60.237,22.811,59.817,23.024z"/>
					</g>
				</g>
				<polygon clip-path="url(#SVGID_4_)" fill="#E6D2C3" points="38.888,75.92 41.206,77.258 41.248,18.146 38.93,16.809 				"/>
				<g clip-path="url(#SVGID_4_)">
					<g enable-background="new    ">
						<g>
							<polygon fill="#FFE599" points="40.062,18.309 37.856,19.59 34.811,17.832 37.016,16.55 							"/>
						</g>
						<polygon fill="#FFA536" points="40.062,18.309 40.015,84.53 37.809,85.813 37.856,19.59 						"/>
						<g>
							<polygon fill="#FFCD36" points="37.856,19.59 37.809,85.813 34.764,84.055 34.811,17.832 							"/>
						</g>
					</g>
				</g>
				<polygon clip-path="url(#SVGID_4_)" fill="#E6D2C3" points="43.403,31.304 41.197,32.586 41.15,98.81 44.196,100.568 
					46.402,99.286 46.448,33.063 				"/>
				<g clip-path="url(#SVGID_4_)">
					<g enable-background="new    ">
						<g>
							<polygon fill="#FFE599" points="45.409,32.982 43.203,34.265 40.158,32.506 42.364,31.225 							"/>
						</g>
						<polygon fill="#FFA536" points="45.409,32.982 45.362,99.205 43.157,100.488 43.203,34.265 						"/>
						<g>
							<polygon fill="#FFCD36" points="43.203,34.265 43.157,100.488 40.112,98.729 40.158,32.506 							"/>
						</g>
					</g>
				</g>
				<path clip-path="url(#SVGID_4_)" fill="#E6D2C3" d="M37.958,25.589L37.958,25.589L37.958,25.589
					c-0.106-0.377-2.135-1.249-2.563-1.306c-0.368-0.052-2.558,0.904-2.749,1.144c0.003,0.017,0.008,0.035,0.015,0.054
					c-0.007-0.019-0.012-0.037-0.015-0.054c-3.159,2.275-0.804,57.284-1.493,64.673L34,92.118l1.589-1.577
					c-0.062-7.29-1.83-59.957,2.285-64.859C37.913,25.644,37.944,25.61,37.958,25.589z"/>
				<g clip-path="url(#SVGID_4_)">
					<g enable-background="new    ">
						<g>
							<path fill="#FFE599" d="M36.88,25.319c-0.163,0.248-2.104,1.776-2.567,1.649c-0.486-0.167-2.64-1.197-2.746-1.811
								c0.191-0.239,2.382-1.195,2.749-1.143C34.745,24.071,36.773,24.942,36.88,25.319z"/>
						</g>
						<path fill="#FFA536" d="M36.88,25.319c-4.222,4.282-2.431,57.614-2.368,64.953l-1.589,1.578
							c0.23-7.606-2.791-61.626,1.39-64.882C34.905,26.748,35.849,25.867,36.88,25.319z"/>
						<g>
							<path fill="#FFCD36" d="M34.313,26.968c-3.85,3.127-0.873,57.151-1.39,64.882l-2.848-2.02
								c0.689-7.389-1.667-62.397,1.493-64.673C31.651,25.704,33.826,26.718,34.313,26.968z"/>
						</g>
					</g>
				</g>
				<path clip-path="url(#SVGID_4_)" fill="#E6D2C3" d="M50.795,39.287C50.795,39.287,50.795,39.287,50.795,39.287L50.795,39.287
					L50.795,39.287c-0.107-0.377-2.135-1.249-2.563-1.306c-0.367-0.052-2.558,0.905-2.749,1.144
					c0.003,0.018,0.008,0.036,0.015,0.054c-0.007-0.019-0.012-0.037-0.015-0.054c-3.159,2.275-0.803,57.284-1.493,64.672
					l2.848,2.021l1.589-1.577c-0.062-7.292-1.83-59.958,2.285-64.86C50.75,39.341,50.781,39.308,50.795,39.287z"/>
				<g clip-path="url(#SVGID_4_)">
					<g enable-background="new    ">
						<g>
							<path fill="#FFE599" d="M50.56,38.625c-0.163,0.249-2.104,1.776-2.567,1.649c-0.485-0.167-2.64-1.196-2.746-1.81
								c0.191-0.24,2.382-1.196,2.75-1.144C48.424,37.377,50.452,38.249,50.56,38.625z"/>
						</g>
						<path fill="#FFA536" d="M50.56,38.625c-4.223,4.282-2.431,57.613-2.369,64.954l-1.589,1.577
							c0.231-7.607-2.79-61.626,1.391-64.882C48.584,40.054,49.528,39.173,50.56,38.625z"/>
						<g>
							<path fill="#FFCD36" d="M47.992,40.274c-3.85,3.128-0.872,57.151-1.391,64.882l-2.848-2.02
								c0.689-7.39-1.666-62.398,1.493-64.673C45.331,39.01,47.505,40.024,47.992,40.274z"/>
						</g>
					</g>
				</g>
				<g clip-path="url(#SVGID_4_)">
					<g enable-background="new    ">
						<g>
							<path fill="#FFE599" d="M69.294,29.637c-0.141,0.213-2.022,0.921-2.42,0.811c-0.419-0.144-2.538-1.808-2.63-2.335
								c0.161-0.341,2.104-0.856,2.419-0.811C67.032,27.351,69.2,29.313,69.294,29.637z"/>
						</g>
						<path fill="#FFA536" d="M69.294,29.637c-3.049,4.837-4.247,58.263-4.195,64.572l-2.205,1.282
							c0.197-6.539,0.62-60.298,3.98-65.043C67.573,30.442,68.404,30.107,69.294,29.637z"/>
						<g>
							<path fill="#FFCD36" d="M66.874,30.448c-3.072,4.314-3.535,58.396-3.98,65.043l-3.045-1.759
								c1.029-17.898,1.291-59.762,4.396-65.62C64.317,28.582,66.455,30.233,66.874,30.448z"/>
						</g>
					</g>
				</g>
				<path clip-path="url(#SVGID_4_)" fill="#E6D2C3" d="M41.94,38.87c-0.092-0.324-2.26-2.287-2.628-2.336
					c-0.315-0.044-2.259,0.47-2.419,0.811l0,0c-3.106,5.858-3.368,47.723-4.397,65.621l3.045,1.758l2.206-1.282
					C37.693,97.131,38.895,43.707,41.94,38.87z M36.906,37.394c-0.007-0.017-0.011-0.033-0.014-0.048
					C36.896,37.361,36.9,37.377,36.906,37.394z"/>
				<g clip-path="url(#SVGID_4_)">
					<g enable-background="new    ">
						<g>
							<path fill="#FFE599" d="M40.814,38.839c-0.139,0.214-2.021,0.921-2.418,0.811c-0.417-0.144-2.538-1.808-2.629-2.335
								c0.16-0.341,2.104-0.855,2.419-0.811C38.554,36.553,40.722,38.515,40.814,38.839z"/>
						</g>
						<path fill="#FFA536" d="M40.814,38.839c-3.045,4.838-4.246,58.263-4.193,64.573l-2.206,1.281
							c0.198-6.539,0.62-60.297,3.98-65.043C39.095,39.645,39.928,39.31,40.814,38.839z"/>
						<g>
							<path fill="#FFCD36" d="M38.396,39.65c-3.073,4.314-3.535,58.396-3.98,65.043l-3.045-1.758
								c1.03-17.899,1.291-59.763,4.397-65.621C35.838,37.784,37.977,39.435,38.396,39.65z"/>
						</g>
					</g>
				</g>
				<path clip-path="url(#SVGID_4_)" fill="#E6D2C3" d="M62.843,36.157L62.843,36.157L62.843,36.157
					c-0.093-0.324-2.26-2.287-2.629-2.336c-0.315-0.044-2.259,0.471-2.419,0.812c0.004,0.015,0.008,0.032,0.014,0.048
					c-0.006-0.017-0.011-0.033-0.014-0.048c-3.105,5.859-3.368,47.722-4.396,65.621l3.046,1.759l2.205-1.281
					C58.597,94.419,59.797,40.995,62.843,36.157z"/>
				<g clip-path="url(#SVGID_4_)">
					<g enable-background="new    ">
						<g>
							<path fill="#FFE599" d="M61.333,36.103c-0.141,0.213-2.02,0.921-2.418,0.811c-0.418-0.144-2.539-1.808-2.629-2.335
								c0.16-0.341,2.102-0.855,2.419-0.811C59.073,33.817,61.242,35.779,61.333,36.103z"/>
						</g>
						<path fill="#FFA536" d="M61.333,36.103c-3.045,4.837-4.247,58.263-4.192,64.573l-2.206,1.281
							c0.198-6.539,0.619-60.297,3.98-65.043C59.613,36.909,60.447,36.574,61.333,36.103z"/>
						<g>
							<path fill="#FFCD36" d="M58.915,36.914c-3.074,4.314-3.534,58.397-3.98,65.043l-3.046-1.757
								c1.031-17.899,1.291-59.763,4.397-65.622C56.357,35.048,58.496,36.699,58.915,36.914z"/>
						</g>
					</g>
				</g>
				<path clip-path="url(#SVGID_4_)" fill="#E6D2C3" d="M59.849,93.732l3.045,1.759c0.281-4.193,0.568-27.261,1.514-44.806
					l0.002-3.645c-0.122-0.236-1.721-1.212-2.568-1.599C60.854,60.822,60.509,82.229,59.849,93.732z"/>
				<g clip-path="url(#SVGID_4_)">
					<g enable-background="new    ">
						<g>
							<path fill="#FFE599" d="M62.847,47.364c-0.094,0.237-1.793,1.309-2.207,1.282c-0.437-0.058-2.849-1.26-3.044-1.758
								c0.088-0.367,1.887-1.262,2.205-1.282C60.173,45.58,62.691,47.065,62.847,47.364z"/>
						</g>
						<path fill="#FFA536" d="M62.847,47.364L62.8,113.587l-2.205,1.282l0.045-66.223C61.325,48.499,62.073,48.003,62.847,47.364z"
							/>
						<g>
							<path fill="#FFCD36" d="M60.64,48.646l-0.045,66.223l-3.045-1.759l0.046-66.223C57.76,47.333,60.188,48.52,60.64,48.646z"/>
						</g>
					</g>
				</g>
				<path clip-path="url(#SVGID_4_)" fill="#E6D2C3" d="M51.382,45.656c-0.317,0.02-2.117,0.915-2.205,1.282
					c0.005,0.014,0.013,0.029,0.022,0.044c-0.01-0.016-0.018-0.031-0.022-0.044l-0.047,66.222l3.045,1.76l2.207-1.282l0.046-66.224
					C54.273,47.115,51.754,45.629,51.382,45.656z"/>
				<g clip-path="url(#SVGID_4_)">
					<g enable-background="new    ">
						<g>
							<path fill="#FFE599" d="M52.649,47.737c-0.094,0.237-1.794,1.309-2.206,1.282c-0.438-0.057-2.85-1.259-3.045-1.758
								c0.088-0.366,1.888-1.262,2.206-1.282C49.976,45.953,52.494,47.438,52.649,47.737z"/>
						</g>
						<path fill="#FFA536" d="M52.649,47.737l-0.047,66.223l-2.206,1.282l0.046-66.224C51.128,48.873,51.876,48.376,52.649,47.737z"
							/>
						<g>
							<path fill="#FFCD36" d="M50.443,49.019l-0.046,66.224l-3.045-1.76l0.046-66.222C47.563,47.706,49.99,48.893,50.443,49.019z"
								/>
						</g>
					</g>
				</g>
				<path clip-path="url(#SVGID_4_)" fill="#E6D2C3" d="M44.133,45.98C44.133,45.98,44.133,45.98,44.133,45.98L44.133,45.98
					L44.133,45.98c-0.107-0.377-2.135-1.249-2.563-1.306c-0.368-0.052-2.558,0.904-2.749,1.144l0,0
					c-3.16,2.275-0.804,57.284-1.494,64.672l2.848,2.021l1.589-1.578c-0.062-7.29-1.83-59.957,2.285-64.859
					C44.088,46.035,44.119,46.002,44.133,45.98z M38.835,45.873c-0.007-0.019-0.012-0.037-0.014-0.054
					C38.824,45.836,38.829,45.854,38.835,45.873z"/>
				<g clip-path="url(#SVGID_4_)">
					<g enable-background="new    ">
						<g>
							<path fill="#FFE599" d="M43.72,45.216c-0.164,0.248-2.105,1.776-2.568,1.649c-0.486-0.168-2.64-1.196-2.745-1.811
								c0.191-0.239,2.382-1.196,2.749-1.144C41.585,43.968,43.612,44.84,43.72,45.216z"/>
						</g>
						<path fill="#FFA536" d="M43.72,45.216c-4.223,4.282-2.432,57.613-2.369,64.953l-1.589,1.577
							c0.231-7.605-2.79-61.625,1.391-64.881C41.745,46.646,42.688,45.764,43.72,45.216z"/>
						<g>
							<path fill="#FFCD36" d="M41.152,46.865c-3.85,3.127-0.873,57.152-1.391,64.881l-2.848-2.019
								c0.69-7.39-1.666-62.398,1.493-64.673C38.491,45.601,40.666,46.615,41.152,46.865z"/>
						</g>
					</g>
				</g>
				<path clip-path="url(#SVGID_4_)" fill="#E6D2C3" d="M58.404,52.008c-0.003,0.015-0.007,0.032-0.014,0.048
					C58.396,52.04,58.4,52.023,58.404,52.008c-0.161-0.342-2.104-0.856-2.42-0.813c-0.368,0.051-2.537,2.014-2.628,2.336l0,0l0,0
					c3.046,4.84,4.246,58.263,4.193,64.573l2.205,1.281l3.046-1.758C61.771,99.73,61.51,57.866,58.404,52.008z M55.774,54.344
					L55.774,54.344L55.774,54.344L55.774,54.344z"/>
				<g clip-path="url(#SVGID_4_)">
					<g enable-background="new    ">
						<g>
							<path fill="#FFE599" d="M52.116,54.18c0.141,0.213,2.021,0.92,2.419,0.811c0.419-0.145,2.537-1.809,2.629-2.335
								c-0.159-0.342-2.104-0.856-2.418-0.813C54.378,51.893,52.209,53.854,52.116,54.18z"/>
						</g>
						<g>
							<path fill="#FFCD36" d="M52.116,54.179c3.046,4.838,4.247,58.262,4.194,64.572l2.205,1.282
								c-0.197-6.539-0.62-60.298-3.98-65.043C53.835,54.985,53.003,54.649,52.116,54.179z"/>
						</g>
						<path fill="#FFA536" d="M54.535,54.99c3.073,4.313,3.534,58.397,3.98,65.043l3.045-1.758
							c-1.028-17.897-1.291-59.762-4.396-65.62C57.093,53.125,54.954,54.775,54.535,54.99z"/>
					</g>
				</g>
				<g clip-path="url(#SVGID_4_)">
					<g enable-background="new    ">
						<g>
							<path fill="#FFE599" d="M76.361,31.817c-0.095,0.237-1.796,1.309-2.207,1.282c-0.438-0.057-2.849-1.259-3.046-1.758
								c0.089-0.366,1.889-1.262,2.207-1.282C73.687,30.032,76.205,31.518,76.361,31.817z"/>
						</g>
						<path fill="#FFA536" d="M76.361,31.817L76.314,98.04l-2.207,1.282l0.047-66.224C74.84,32.952,75.586,32.457,76.361,31.817z"/>
						<g>
							<path fill="#FFCD36" d="M74.154,33.099l-0.047,66.224l-3.046-1.759l0.047-66.223C71.274,31.786,73.7,32.973,74.154,33.099z"
								/>
						</g>
					</g>
				</g>
				<path clip-path="url(#SVGID_4_)" fill="#E6D2C3" d="M70.075,46.094L70.075,46.094L70.075,46.094
					c-0.09-0.324-2.258-2.287-2.627-2.335c-0.316-0.045-2.258,0.47-2.419,0.811l0,0c-0.102,0.189-0.199,0.418-0.295,0.681
					c-1.211,17.804-1.529,45.597-1.841,50.241l-1.622-0.937c-0.202,6.005-0.4,11.469-0.64,15.635l3.046,1.758l2.206-1.281
					C65.83,104.354,67.029,50.931,70.075,46.094z"/>
				<g clip-path="url(#SVGID_4_)">
					<g enable-background="new    ">
						<g>
							<path fill="#FFCD36" d="M69.489,47.659c-3.072,4.314-3.533,58.397-3.979,65.044l-3.045-1.76
								c1.028-17.898,1.291-59.761,4.395-65.62C66.934,45.792,69.071,47.444,69.489,47.659z"/>
						</g>
						<path fill="#FFA536" d="M71.91,46.848c-3.046,4.837-4.247,58.262-4.194,64.573l-2.205,1.282
							c0.197-6.539,0.619-60.298,3.979-65.044C70.191,47.654,71.022,47.319,71.91,46.848z"/>
						<g>
							<path fill="#FFE599" d="M71.91,46.848c-0.141,0.213-2.022,0.921-2.421,0.811c-0.418-0.144-2.536-1.808-2.629-2.336
								c0.161-0.34,2.105-0.855,2.419-0.811C69.648,44.562,71.816,46.524,71.91,46.848z"/>
						</g>
					</g>
				</g>
				<g clip-path="url(#SVGID_4_)">
					<path fill="#F0D892" d="M58.41,60.216c-2.396-0.629-4.409-1.856-6.199-3.438l-5.639,13.417
						c-0.206,0.535-0.839,0.76-1.334,0.473c-3.246-1.497-6.157-3.044-8.242-4.714c-0.768-0.443-1.327-1.177-1.551-2.036
						c-2.165-6.463-3.892-13.125-5.219-19.969c-1.776-0.571-3.187-1.312-4.021-2.321l-0.011,15.298
						c1.861,8.506,4.086,17.665,5.71,21.195c0.952,2.068,22.358,14.901,24.012,13.856C57.946,90.696,59.008,59.978,58.41,60.216z"/>
					<path fill="#F0D892" d="M76.348,49.793c-5.35,3.771-11.382,7.243-17.999,10.461c0,0-3.315,30.939-2.494,31.763
						c1.17,1.173,13.818-6.678,14.963-8.695c1.231-2.176,3.51-10.706,5.52-18.896L76.348,49.793z"/>
				</g>
			</g>
		</g>
		<g>
			<path fill="#595959" d="M43.854,79.858c1.359,0.784,2.332,1.674,2.428,1.844c0.333,0.583,0.438,1.646-0.007,1.765
				c-0.047,0.012-0.21-0.068-0.465-0.215c-0.256-0.148-0.606-0.363-1.025-0.621c-0.422-0.257-0.913-0.554-1.45-0.863
				c-1.074-0.619-2.328-1.289-3.567-1.779c-0.69-0.273-1.371-0.619-1.998-0.981c-1.644-0.948-2.921-2.014-3.051-2.212
				c-0.391-0.597-0.491-1.51,0.006-1.764c0.133-0.068,0.279-0.029,0.45,0.068c0.149,0.087,0.317,0.219,0.512,0.366
				c0.194,0.146,0.416,0.31,0.671,0.456c0.214,0.126,0.453,0.238,0.721,0.323c0.528,0.168,1.109,0.465,1.714,0.813
				c0.393,0.228,0.798,0.478,1.204,0.728c0.405,0.251,0.813,0.502,1.215,0.734c0.465,0.269,0.923,0.511,1.363,0.697
				C43.027,79.409,43.457,79.628,43.854,79.858z"/>
		</g>
		<g>
			<path fill="#595959" d="M43.152,76.113c1.01,0.582,1.733,1.243,1.805,1.371c0.248,0.434,0.325,1.268-0.005,1.355
				c-0.035,0.009-0.156-0.051-0.346-0.161c-0.19-0.108-0.451-0.269-0.762-0.46c-0.313-0.191-0.678-0.413-1.077-0.644
				c-0.798-0.46-1.731-0.957-2.652-1.322c-0.513-0.203-1.02-0.459-1.485-0.729c-1.223-0.706-2.172-1.497-2.269-1.645
				c-0.291-0.444-0.365-1.167,0.005-1.355c0.098-0.051,0.207-0.023,0.334,0.051c0.111,0.064,0.236,0.162,0.381,0.272
				c0.145,0.109,0.309,0.231,0.499,0.339c0.16,0.093,0.337,0.177,0.536,0.24c0.393,0.124,0.824,0.345,1.274,0.605
				c0.293,0.168,0.593,0.354,0.896,0.541c0.301,0.186,0.604,0.373,0.904,0.546c0.346,0.2,0.686,0.38,1.013,0.52
				C42.537,75.778,42.857,75.942,43.152,76.113z"/>
		</g>
	</g>
</g>
</svg>
