<?xml version="1.0" encoding="utf-8"?>
<!-- Generator: Adobe Illustrator 16.0.0, SVG Export Plug-In . SVG Version: 6.00 Build 0)  -->
<!DOCTYPE svg PUBLIC "-//W3C//DTD SVG 1.1//EN" "http://www.w3.org/Graphics/SVG/1.1/DTD/svg11.dtd">
<svg version="1.1" id="Layer_1" xmlns="http://www.w3.org/2000/svg" xmlns:xlink="http://www.w3.org/1999/xlink" x="0px" y="0px"
	 width="50px" height="50px" viewBox="0 0 50 50" enable-background="new 0 0 50 50" xml:space="preserve">
<g>
	<g>
		<path fill-rule="evenodd" clip-rule="evenodd" fill="#459EF2" d="M41.488,23.086c-1.943-2.027-4.719-2.981-9.273-6.337
			c-1.613-1.189-3.064-2.591-4.299-4.318c-2.861-4.006-5.864-5.344-8.782-4.889c-2.848,0.444-5.615,2.596-8.094,5.643
			c-9.267,11.393-7.764,24.721,3.157,30.063c6.9,3.376,22.934,1.328,27.616-5.667C43.748,34.688,45.463,27.227,41.488,23.086z"/>
		<path fill-rule="evenodd" clip-rule="evenodd" fill="#69B7FF" d="M40.572,23.251c-0.865-0.9-1.902-1.578-3.205-2.372
			c-1.18,0.354-1.99,1.252-2.928,2.5c0.734,0.478,1.459,0.985,2.176,1.493c0.055,0.039,0.107,0.077,0.16,0.118
			c1.059-0.65,2.348-0.885,3.688-0.595c-1.035,0.375-2.035,0.636-2.996,1.185l0.012,0.01c1.016-0.318,2.277-0.456,3.271,0.222
			c-0.457-0.021-1.785,0.129-2.732,0.358c0.127,0.151,0.248,0.309,0.361,0.47c0.748,0.13,1.504,0.413,1.717,0.992
			c-0.482-0.099-0.863-0.17-1.234-0.206c0.777,1.48,0.893,3.072,0.021,4.113c-3.676,4.4-7.656,2.063-11.512,0.101
			c-2.257-1.149-5.423-0.298-6.722-3.5c-1.091-2.689,0.596-6.484,4.506-7.279c3.078-0.626,5.777,0.396,8.314,1.912
			c0.883-1.122,1.787-2.152,2.646-2.652c-1.221-0.741-2.643-1.632-4.318-2.867c-1.527-1.126-2.902-2.452-4.068-4.086
			c-2.708-3.791-5.787-5.343-8.311-4.626c-2.623,0.745-2.409,7.598-3.851,11.814c1.747,1,3.465,2.109,3.746,4.625
			c-1.055-1.107-4.404-2.047-4.778-1.556c0.23,2.392-0.851,5.53,8.684,10.195c6.871,3.361,14.052,3.478,19.277-0.767
			C43.188,29.695,43.023,25.805,40.572,23.251z"/>
		<path fill-rule="evenodd" clip-rule="evenodd" fill="#2B7CD3" d="M17.761,7.888c-2.361,0.817-4.642,2.743-6.721,5.297
			c-9.267,11.394-7.764,24.721,3.157,30.063c6.9,3.376,22.934,1.328,27.616-5.667c0.639-0.954,1.254-2.406,1.648-4.073
			c-7.684,6.257-18.51,3.03-25.971-1.978c-2.868-1.925-4.494-5.394-3.848-8.634c0.44-2.208,1.742-3.967,2.239-9.565
			C16.001,11.992,15.881,9.668,17.761,7.888L17.761,7.888z M27.564,31.185c-1.954-0.993-4.591-0.39-5.67-3.102
			c-0.927-2.331,0.515-5.606,3.896-6.293c3.785-0.77,6.91,1.342,9.908,3.469c2.127,1.507,3.201,4.282,1.963,5.765
			C34.527,34.774,30.885,32.876,27.564,31.185z"/>
		<path fill-rule="evenodd" clip-rule="evenodd" fill="#1854AC" d="M18.372,7.701c-0.576,0.414-1.31,1.128-1.831,1.604
			c-2.998,2.734-5.044,6.415-5.917,10.585c3.163,0.1,5.965,1.243,8.271,4.255c-3.165-2.224-4.988-3.268-8.363-3.792
			c-0.187,1-0.307,2.027-0.357,3.074c-0.117,2.451,0.149,5.016,0.836,7.615c0.317-0.056,0.641-0.142,1.011-0.285l0.074,0.191
			c-0.378,0.146-0.709,0.235-1.031,0.294c0.033,0.12,0.066,0.24,0.1,0.36c0.327-0.056,0.66-0.142,1.041-0.29l0.074,0.19
			c-0.388,0.151-0.726,0.24-1.056,0.299c0.043,0.147,0.089,0.295,0.136,0.442c0.323-0.057,0.653-0.143,1.032-0.29l0.074,0.192
			c-0.384,0.147-0.718,0.237-1.045,0.296c0.936,2.903,2.401,5.833,4.452,8.68c0.81,1.123,1.813,2.324,2.811,3.417
			c6.288-0.439,9.674-1.749,12.918-3.002c2.498-0.964,5.115-1.94,9.066-2.566c-0.035,0.046-0.197,0.237-0.24,0.245
			c-3.838,0.623-6.299,1.565-8.752,2.513c-3.174,1.225-6.301,2.442-12.296,2.914c-0.103-0.012-0.561-0.078-0.695-0.102l0.003,0.003
			c-0.074-0.004-0.22-0.023-0.344-0.05c-0.967-1.066-1.845-2.152-2.638-3.253c-2.07-2.874-3.549-5.833-4.489-8.767
			c-0.408,0.058-0.816,0.077-1.307,0.113l-0.016-0.204c0.471-0.035,0.865-0.054,1.259-0.107c-0.046-0.147-0.091-0.295-0.134-0.442
			c-0.404,0.057-0.808,0.076-1.293,0.112L9.71,31.741c0.468-0.035,0.86-0.054,1.251-0.106c-0.034-0.12-0.067-0.24-0.1-0.36
			c-0.413,0.061-0.825,0.079-1.32,0.115l-0.016-0.204c0.481-0.037,0.882-0.054,1.283-0.11c-0.689-2.613-0.956-5.191-0.838-7.657
			c0.05-1.055,0.171-2.089,0.359-3.096c-0.77-0.113-1.62-0.201-2.583-0.271c0.915-0.12,1.806-0.181,2.67-0.166
			c0.876-4.228,2.949-7.96,5.987-10.733c0.525-0.479,1.104-0.953,1.689-1.373L18.372,7.701L18.372,7.701z M33.561,24.112
			c1.313-1.316,1.967-3.148,3.975-3.799c-1.988-0.011-3.178,1.904-4.539,3.443c-2.084-1.269-4.301-2.145-6.837-1.63
			c-3.141,0.639-4.215,3.595-3.621,5.849c0.62,2.352,3.548,1.99,5.364,2.913c0.939,0.479,2.066,0.842,3.24,1.148
			c2.213,0.579,4.49,0.536,6.049-1.33c0.758-0.905,0.586-2.331-0.184-3.6c0.873-0.045,1.682,0.046,2.787,0.264
			c-1.006-0.554-2.027-0.704-2.986-0.57c-0.078-0.112-0.162-0.223-0.25-0.331c1.166-0.566,2.104-0.68,3.697-0.752
			c-1.529-0.407-2.775-0.143-3.875,0.543c-0.029-0.033-0.059-0.066-0.09-0.1c1.121-0.936,2.027-1.258,3.684-1.693
			c-1.68-0.081-2.891,0.512-3.85,1.52c-0.232-0.23-0.484-0.446-0.756-0.638C34.773,24.928,34.172,24.507,33.561,24.112z"/>
	</g>
	<g>
		<g>
			<path fill-rule="evenodd" clip-rule="evenodd" fill="#DB9669" d="M37.988,16.314c0.311,0.076,0.602-0.029,0.881-0.061
				c0.869-0.1,1.527-0.015,2.076,0.301c0.133,0.076-0.377,1.469-0.982,1.911c-0.029,0.021-0.068-0.013-0.096-0.025l-0.566-0.179
				l-1.531-0.513L37.988,16.314z"/>
			<path fill-rule="evenodd" clip-rule="evenodd" fill="#DB9669" d="M38.496,16.318c0.555-0.095,0.93-0.341,1.244-0.35
				c0.322-0.008,0.785,0.252,1.369,0.312c-0.107,0.582-0.871,0.202-1.148,0.255c-0.256,0.049-0.271,0.36-0.51,0.367
				C39.074,16.912,38.533,16.729,38.496,16.318z"/>
			<path fill-rule="evenodd" clip-rule="evenodd" fill="#8FBCE0" d="M32.215,17.439c2.469,0.428,3.691,0.304,6.186,0.544
				c-0.273-0.95,0.236-1.799,0.617-1.891c-2.107-0.439-4.666-1.142-6.844-1.133L32.215,17.439z"/>
			<path fill-rule="evenodd" clip-rule="evenodd" fill="#1D3F5E" d="M31.742,17.506c2.469,0.428,3.809,0.284,6.303,0.526
				c-0.354-1.011,0.184-2.022,0.625-2.11c-2.109-0.439-4.666-1.142-6.846-1.133L31.742,17.506z"/>
			<path fill-rule="evenodd" clip-rule="evenodd" fill="#215682" d="M37.639,16.354c0.168-0.179,0.281-0.401,0.176-0.616
				c-1.488-0.331-3.133-0.723-4.678-0.879c-0.012,0.161-0.014,0.396-0.049,0.708L37.639,16.354z"/>
			<path fill-rule="evenodd" clip-rule="evenodd" fill="#193147" d="M31.742,17.506c2.469,0.428,3.809,0.284,6.303,0.526
				c-0.146-0.42-0.141-0.839-0.051-1.193c-1.516-0.088-4.168-0.641-6.125-0.975L31.742,17.506z"/>
		</g>
		<g>
			<g>
				<path fill-rule="evenodd" clip-rule="evenodd" fill="#03161F" d="M33.545,42.226c-0.178,0.516-0.338,0.915-0.322,1.238
					c0.018,0.334,0.109,0.661,0.104,1.085c-0.002,0.364-0.021,0.673-0.063,1.085c-0.045,0.421,0,0.62,0.184,0.788
					c0.301,0.272,1.195,0.696,1.619,0.84c0.227,0.077,0.436,0.124,0.742,0.101c0.355-0.028,0.641-0.049,0.996-0.182
					c0.09-0.034,0.184-0.39,0.191-0.698c0.014-0.644-0.045-0.589-0.313-1.612c-0.09-0.348-0.164-0.681-0.291-1.089
					c-0.156-0.508-0.35-0.954-0.369-1.454l-1.887-0.073L33.545,42.226z"/>
				<path fill-rule="evenodd" clip-rule="evenodd" d="M33.545,42.226c-0.178,0.516-0.338,0.915-0.322,1.238
					c0.018,0.334,0.109,0.661,0.104,1.085c-0.002,0.364-0.021,0.673-0.063,1.085c-0.045,0.421,0,0.62,0.184,0.788
					c0.301,0.272,1.195,0.696,1.619,0.84c0.227,0.077,0.436,0.124,0.742,0.101c0.355-0.028,0.641-0.049,0.996-0.182
					c0.082-0.032,0.166-0.325,0.186-0.609h-0.004c-0.578,0.195-1.137,0.275-1.691,0.004c-1.17-0.572-1.018-1.046-0.908-2.396
					c0.762-0.133,1.061-0.27,1.447-0.687c-0.648,0.191-1.348,0.226-1.691-0.171l-0.107-1.074L33.545,42.226z"/>
				<path fill-rule="evenodd" clip-rule="evenodd" fill="#062533" d="M36.121,43.598c-0.545,0.432-0.355,0.62-1.152,0.725
					c0.197,0.787,0.223,0.825,0.623,1.553c0.031,0.301,0.055,0.695,0.641,0.699c1.092,0.007,0.334-0.895,0.33-0.929
					C36.508,45.146,36.375,44.243,36.121,43.598z"/>
			</g>
			<g>
				<path fill-rule="evenodd" clip-rule="evenodd" fill="#03161F" d="M40.34,39.127c0.191,0.673,0.24,1.021,0.52,1.413
					c0.559,0.78,1.381,1.338,2.578,2.187c0.568,0.403,0.689,0.786,0.111,1.139c-0.453,0.277-1.564,0.057-2.258-0.106
					c-1.303-0.307-1.828-1.09-2.273-1.294l-0.338,0.077c-0.275,0.004-1.293-0.549-1.504-0.832c-0.057-0.244-0.213-0.552-0.236-0.894
					c-0.041-1.103,0.131-0.989,0.426-1.852C38.367,39.037,39.336,39.093,40.34,39.127z"/>
				<path fill-rule="evenodd" clip-rule="evenodd" d="M43.926,43.36c0.008,0.175-0.111,0.343-0.377,0.505
					c-0.453,0.277-1.564,0.057-2.258-0.106c-1.303-0.307-1.828-1.09-2.273-1.294l-0.338,0.077c-0.275,0.004-1.293-0.54-1.572-0.795
					c-0.055-0.242-0.145-0.589-0.168-0.931c-0.041-1.103,0.131-0.989,0.426-1.852c0.443,0.032,0.881,0.062,1.316,0.086
					c0.08,0.726-0.025,1.977,0.57,2.442c0.668,0.521,1.189,0.659,1.635,0.931C42.307,43.287,43.246,43.989,43.926,43.36z"/>
				<path fill-rule="evenodd" clip-rule="evenodd" fill="#062533" d="M40.656,40.363c-0.141,0.211-0.422,0.329-0.883,0.443
					c0.744,0.84,0.85,0.761,1.85,1.323c0.504,0.576,0.574,0.686,0.895,0.87c0.385,0.223,0.928,0.451,1.156,0.286
					c0.096-0.07-0.035-0.267-0.457-0.574c-0.48-0.347-0.969-0.699-1.41-1.066C41.369,41.281,40.971,40.878,40.656,40.363z"/>
			</g>
			<path fill-rule="evenodd" clip-rule="evenodd" fill="#1D3F5E" d="M38.115,30.908c-2.604-2.396-6.533-2.429-8.492-3.635
				c-1.428-0.877-2.182-0.985-1.293-2.839l4.219-1.795c0,0.45,0.443,1.124,0.584,1.178c2.602,0.996,4.965,2.031,7.035,3.431
				c0.354,0.197,0.902,0.707,0.908,1.146C41.086,28.997,39.553,30.658,38.115,30.908z"/>
			<path fill-rule="evenodd" clip-rule="evenodd" fill="#062533" d="M38.115,30.908c-2.604-2.396-6.533-2.429-8.492-3.635
				c-1.428-0.877-2.182-0.985-1.293-2.839l1.762-0.665l0.002,0.003c0.246,0.503,0.941,1.05,1.336,1.388
				c0.291,0.25,0.639,0.504,1.102,0.765c0.965,0.547,3.48,1.822,5.215,2.547c0.697,0.293,0.838,0.591,0.881,0.941
				c0.059,0.484,0.016,0.933-0.061,1.372C38.416,30.841,38.266,30.883,38.115,30.908z"/>
			<path fill-rule="evenodd" clip-rule="evenodd" fill="#1D3F5E" d="M41.061,29.915c-0.133,3.308-0.289,6.588-0.488,9.9
				c-0.471,0.773-2.742,0.821-3.52-0.266c-0.115-3.003-0.305-5.373-0.221-7.016c0.072-1.367,0.428-2.174,0.58-3.371
				c0.516-1.354,2.613-1.88,3.402-1.313C41.305,28.203,41.084,29.335,41.061,29.915z"/>
			<path fill-rule="evenodd" clip-rule="evenodd" fill="#062533" d="M38.408,40.32c-0.547-0.107-1.061-0.357-1.355-0.771
				c-0.115-3.003-0.305-5.373-0.221-7.016c0.072-1.367,0.428-2.174,0.58-3.371c0.092-0.246,0.238-0.464,0.418-0.652
				c0.625,0.28,0.756,0.567,0.797,0.903c0.141,1.185-0.313,2.15-0.42,3.313C38.018,34.804,38.301,37.846,38.408,40.32z"/>
			<path fill-rule="evenodd" clip-rule="evenodd" fill="#1D3F5E" d="M33.922,33.22c-1.463-1.346-3.596-2.158-5.355-2.717
				c-3.155-0.999-5.62-3.382-2.356-6.292l4.058-0.119c0.023,0.533,1.793,1.431,1.77,2.012c-0.029,0.129-0.105,0.286-0.225,0.369
				c-0.309,0.215,0.223,0.524,0.461,0.674c1.031,0.646,2.674,1.74,3.701,2.413c0.344,0.245,0.908,0.73,0.918,1.113
				C36.912,31.274,35.361,32.969,33.922,33.22z"/>
			<path fill-rule="evenodd" clip-rule="evenodd" fill="#062533" d="M33.922,33.22c-1.463-1.346-3.697-1.754-5.457-2.312
				c-4.829-1.53-5.065-3.741-3.214-6.849l1.414,0.303l-0.686,1.69c1.87,1.266,4.926,3.032,7.233,4.558
				c0.676,0.446,1.082,0.66,1.178,1.15c0.066,0.341,0.002,0.75-0.086,1.362C34.176,33.164,34.049,33.197,33.922,33.22z"/>
			<path fill-rule="evenodd" clip-rule="evenodd" fill="#1D3F5E" d="M36.93,30.9c-0.145,3.799-0.316,7.989-0.545,11.784
				c-0.471,0.773-2.744,0.82-3.52-0.267c-0.115-3.002-0.305-5.675-0.219-7.317c0.07-1.367,0.598-2.29,0.578-3.506
				C33.865,29.907,36.959,29.507,36.93,30.9z"/>
			<path fill-rule="evenodd" clip-rule="evenodd" fill="#062533" d="M34.221,43.189c-0.547-0.107-1.061-0.357-1.355-0.771
				c-0.115-3.002-0.305-5.675-0.219-7.317c0.07-1.367,0.598-2.29,0.578-3.506c0.098-0.258,0.254-0.486,0.447-0.684
				c0.402,0.271,0.645,0.483,0.717,0.849c0.119,0.609-0.182,1.448-0.295,3.266C33.938,37.549,34.266,40.624,34.221,43.189z"/>
			<path fill-rule="evenodd" clip-rule="evenodd" fill="#215682" d="M30.443,24.585l-3.047,1.746
				c2.775,1.656,4.563,3.049,7.355,4.448c0.65,0.327,2.168-0.001,1.16-0.809c-1.361-1.089-2.953-1.966-4.471-3.128
				c-0.314-0.24,0.469-0.374,0.318-0.867C31.648,25.609,30.678,24.675,30.443,24.585z"/>
			<path fill-rule="evenodd" clip-rule="evenodd" fill="#215682" d="M36.6,30.808c-0.316,0.354-0.77,0.526-1.238,0.551
				c-0.451,3.68-0.271,7.992-0.363,11.735c0.549-0.109,0.689-0.107,1.178-0.386C36.482,38.793,36.529,34.715,36.6,30.808z"/>
			<path fill-rule="evenodd" clip-rule="evenodd" fill="#215682" d="M32.639,23.514c-0.449,0.506-0.627,0.641-1.275,0.952
				c0.418,0.44,0.775,0.718,1.305,1.008c2.033,1.11,4.127,2.294,6.154,2.971c0.441,0.148,0.975,0.027,1.299-0.214
				c0.248-0.183,0.441-0.454,0.039-0.754c-1.26-0.946-2.461-1.677-3.615-2.253c-0.76-0.379-2.557-1.045-3.557-1.313
				C32.904,23.839,32.715,23.635,32.639,23.514z"/>
			<path fill-rule="evenodd" clip-rule="evenodd" fill="#215682" d="M40.887,28.584c-0.441,0.377-0.867,0.597-1.477,0.607
				c0.004,0.971-0.307,2.086-0.453,3.41c-0.242,2.194-0.086,5.082,0.029,7.531c0.635,0.069,0.988-0.019,1.418-0.366
				C40.598,35.995,40.723,32.355,40.887,28.584z"/>
		</g>
		<g>
			<path fill-rule="evenodd" clip-rule="evenodd" fill="#1D3F5E" d="M24.786,10.389c0.976-0.541,4.343-2.68,5.327-2.535
				c2.643,0.392,2.984,2.799,2.895,6.421c-0.029,1.204-0.219,2.261-0.234,3.756c-0.02,1.792,0.328,4.863,0.24,6.759
				c-0.498,1.087-0.484,0.993-1.32,1.687c0.119-1.224,0.129-2.375,0.102-3.658c-0.201,1.303-0.336,2.599-0.629,3.882
				c-1.453,1.02-5.659,1.575-6.992-0.082c0-3.301,1.119-3.339,1.264-5.447c0.118-1.711-2.341-6.283-2.319-8.649
				C23.129,11.472,24.013,10.818,24.786,10.389z"/>
			<path fill-rule="evenodd" clip-rule="evenodd" fill="#193147" d="M25.778,9.74l1.114-0.519c-0.314,0.504-1.345,1.309-2.25,2.072
				c1.016,0.65,2.503,5.332,2.689,7.874c0.334,4.594-0.841,5.275-0.854,8.448c-0.945-0.089-1.787-0.354-2.304-0.997
				c0-3.301,1.119-3.339,1.264-5.447c0.082-1.188-1.223-3.656-1.934-5.906c-0.548-1.74-1.327-3.095-0.541-4.063
				C23.481,10.565,24.968,10.028,25.778,9.74z"/>
			<path fill-rule="evenodd" clip-rule="evenodd" fill="#031721" d="M25.346,20.124c-0.233-0.712-0.892-2.645-1.001-2.947
				c-0.606-1.678-1.237-3.452-1.226-4.654c0.001-0.154,1.518,1.74,1.54,2.348C24.981,15.636,25.349,19.093,25.346,20.124z"/>
			<path fill-rule="evenodd" clip-rule="evenodd" fill="#729EC1" d="M27.205,9.49c-0.22,3.531,3.553,3.306,4.541,8.576
				c-0.219-2.923-0.076-5.122-1.26-7.885l-0.273,0.386l-0.793,0.142L27.205,9.49z"/>
			<path fill-rule="evenodd" clip-rule="evenodd" fill="#215682" d="M27.746,14.146c0.547,2.472,0.385,4.324,0.469,5.844
				c0.121,2.172-0.619,4.106-1.17,7.472c1.391-0.012,2.715-0.155,3.91-0.747c0.332-2.171,0.701-4.455,0.533-6.839
				C31.324,17.53,30.281,15.227,27.746,14.146z"/>
			<path fill-rule="evenodd" clip-rule="evenodd" fill="#215682" d="M30.967,9.233c1.404,1.646,1.264,3.991,1.24,6.546
				c-0.035,3.695-0.059,6.653-0.275,10.29c0.404-0.346,0.75-0.756,0.98-1.356c-0.129-3.079-0.381-6.502-0.156-9.543
				c0.191-2.59,0.242-5.15-1.264-6.631C31.34,8.833,31.195,8.993,30.967,9.233z"/>
			<g>
				<path fill-rule="evenodd" clip-rule="evenodd" fill="#1D3F5E" d="M27.693,22.554c1.035-0.478,1.32-0.602,2.219-0.824
					l-0.377,2.636c-0.576,0.493-1.4,0.778-2.132,0.79L27.693,22.554z"/>
				<path fill-rule="evenodd" clip-rule="evenodd" fill="#193147" d="M27.693,22.554c1.035-0.478,1.32-0.602,2.219-0.824
					c-0.119,0.788-0.057,0.755-0.848,1.14c-1.412,0.688-0.973,0.657-1.439,2.274c-0.021,0.071-0.148,0.01-0.222,0.012L27.693,22.554
					z"/>
				<path fill-rule="evenodd" clip-rule="evenodd" fill="#1D3F5E" d="M27.766,22.208c1.041-0.477,1.504-0.756,2.277-1.089
					l-0.186,1.064c-0.262,0.249-1.645,1.005-2.262,0.979L27.766,22.208z"/>
				<path fill-rule="evenodd" clip-rule="evenodd" fill="#193147" d="M27.766,22.208c1.041-0.477,1.504-0.756,2.277-1.089
					c-0.75,0.6-2.02,1.066-2.229,2.027c-0.08,0.013-0.152,0.02-0.219,0.016L27.766,22.208z"/>
				<path fill-rule="evenodd" clip-rule="evenodd" fill="#215682" d="M29.734,22.668l-1.301,0.767l-0.508,1.514
					c0.639-0.155,0.859-0.245,1.447-0.539L29.734,22.668z"/>
				<path fill-rule="evenodd" clip-rule="evenodd" fill="#215682" d="M29.932,21.296c-0.605,0.445-1.457,1.067-1.809,1.672
					c0.682-0.235,0.924-0.371,1.596-0.788C29.834,21.874,29.873,21.609,29.932,21.296z"/>
			</g>
			<g>
				<g>
					<path fill-rule="evenodd" clip-rule="evenodd" fill="#1D3F5E" d="M32.197,20.891c0.342-0.394,0.436-0.493,0.732-0.644
						l-0.031,2.723C32.734,23.222,32.24,23.5,32.1,23.47L32.197,20.891z"/>
					<path fill-rule="evenodd" clip-rule="evenodd" fill="#193147" d="M32.197,20.891c0.342-0.394,0.436-0.493,0.732-0.644
						c-0.041,0.779-0.02,0.75-0.281,1.072c-0.467,0.573-0.307,0.576-0.461,2.154c-0.029,0.004-0.063,0.001-0.088-0.004
						L32.197,20.891z"/>
					<path fill-rule="evenodd" clip-rule="evenodd" fill="#215682" d="M32.871,21.171l-0.43,0.661l-0.102,1.514
						c0.211-0.104,0.295-0.176,0.49-0.421L32.871,21.171z"/>
				</g>
				<g>
					<path fill-rule="evenodd" clip-rule="evenodd" fill="#1D3F5E" d="M32.141,20.257c0.363-0.218,0.518-0.382,0.789-0.522
						l0.027,1.038c-0.08,0.187-0.549,0.6-0.793,0.414L32.141,20.257z"/>
					<path fill-rule="evenodd" clip-rule="evenodd" fill="#193147" d="M32.141,20.257c0.363-0.218,0.518-0.382,0.789-0.522
						c-0.236,0.417-0.689,0.565-0.684,1.491c-0.029-0.008-0.057-0.02-0.082-0.04L32.141,20.257z"/>
					<path fill-rule="evenodd" clip-rule="evenodd" fill="#215682" d="M32.902,19.888c-0.195,0.296-0.471,0.711-0.551,1.236
						c0.244-0.063,0.326-0.138,0.551-0.39C32.918,20.45,32.908,20.192,32.902,19.888z"/>
				</g>
			</g>
			<g>
				<path fill-rule="evenodd" clip-rule="evenodd" fill="#6087A8" d="M26.664,9.306c0.14-0.004,0.301,0.064,0.426-0.035
					c-0.02,0.98,1.758,1.007,2.813,1.252c0.049-0.139,0.064-0.424,0.111-0.672c0.043-0.223,0.242-0.721,0.287-0.835
					c0.301,0.117,0.744,1.512,0.859,2.074c-0.172-0.119-0.443-0.186-0.68-0.224c0.012,0.177-0.01,0.414-0.08,0.697
					c0.123,0.037,0.281,0.076,0.5,0.212c0.066,0.362,0.127,0.711,0.184,1.051c-0.313,0.187,0.369,2.292,0.059,2.476
					c-0.123-0.298-1.258-2.421-1.35-2.709c0.043-0.275,0.117-0.473,0.182-0.741c-0.225-0.218-0.301-0.118-0.418-0.245
					c-0.047,0.127-0.086,0.298-0.092,0.417c-0.744-0.202-3.004-1.112-3.002-2.222C26.465,9.58,26.565,9.426,26.664,9.306z"/>
				<g>
					<path fill-rule="evenodd" clip-rule="evenodd" fill="#3C5466" d="M29.432,10.853c0.135,0.552,0.156,0.55,0.664,0.93
						c-0.061,0.28-0.1,0.522-0.137,0.81c0.49,1.133,0.914,2.49,1.229,3.9l0.393,0.797l0.086,0.024l0.02-0.81
						c-0.164-1.78-0.439-3.538-0.705-4.76c-0.229-0.126-0.393-0.158-0.52-0.188c0.133-0.609,0.053-1.001-0.072-1.075
						C29.938,10.464,29.75,10.518,29.432,10.853z"/>
					<path fill-rule="evenodd" clip-rule="evenodd" fill="#2A3C4A" d="M29.432,10.853c0.135,0.552,0.156,0.55,0.664,0.93
						c-0.061,0.28-0.1,0.522-0.137,0.81c0.477,1.103,0.879,2.431,1.184,3.806l0.381,0.773c-0.283-1.783-0.75-3.555-1.223-4.679
						c-0.033-0.358-0.035-0.523-0.016-0.831c-0.41-0.277-0.582-0.61-0.666-0.986c0.008-0.005,0.014-0.01,0.02-0.015l-0.02,0.03
						l-0.002-0.013C29.559,10.725,29.498,10.782,29.432,10.853z"/>
					<path fill-rule="evenodd" clip-rule="evenodd" fill="#56738A" d="M30.457,10.584l-0.336,0.057l-0.125,0.365l0.385,0.579
						l-0.008,0.002c0.092,0.178,0.131,0.519,0.152,0.78c0.545,1.283,0.924,3.12,1.146,4.694l0.018-0.656
						c-0.174-1.69-0.496-3.679-0.709-4.662c-0.229-0.126-0.391-0.158-0.52-0.188C30.531,11.166,30.58,10.867,30.457,10.584z"/>
				</g>
			</g>
			<g>
				<path fill-rule="evenodd" clip-rule="evenodd" fill="#215682" d="M30.32,8.812c0.77,0.359,0.85,0.481,1.385,1.308l-0.467,0.386
					l0.59,0.193c0.234,2.386,0.078,5.638-0.057,8.058c-0.283-2.397-0.258-5.877-1.055-7.998c-0.205-0.545-0.434-0.847-0.758-1.332
					C29.877,9.305,30.176,8.745,30.32,8.812z"/>
				<path fill-rule="evenodd" clip-rule="evenodd" fill="#215682" d="M26.956,8.84c-0.355,0.33-0.647,0.479-0.745,0.717
					c-0.302,0.734,0.591,2.019,0.953,3.29l0.699-0.193l-0.234,0.703c2.705,2.062,3.861,3.063,4.279,6.01
					C31.43,12.097,26.745,11.987,26.956,8.84z"/>
			</g>
			<g>
				<g>
					<path fill-rule="evenodd" clip-rule="evenodd" fill="#E8A476" d="M30.041,9.653c0.033-0.095,0.072-0.188,0.109-0.29
						c0.107-0.289,0.111-0.902,0.295-1.58l-2.672-1.165L27.2,6.314c0.208,1.007,0.087,1.607-0.2,2.322
						c-0.028,0.967,1.805,1.64,2.84,1.887C29.932,10.29,29.938,9.945,30.041,9.653z"/>
					<path fill-rule="evenodd" clip-rule="evenodd" fill="#DB9669" d="M27.245,9.257c0.97-0.343,1.728,0.083,2.983-0.253
						c0.049-0.32,0.09-0.755,0.217-1.222l-2.672-1.165L27.2,6.314c0.208,1.007,0.087,1.607-0.2,2.322
						C26.994,8.859,27.086,9.067,27.245,9.257z"/>
				</g>
				<g>
					<path fill-rule="evenodd" clip-rule="evenodd" fill="#729EC1" d="M29.838,10.525c0.055-0.139,0.082-0.425,0.143-0.674
						c0.051-0.223,0.25-0.77,0.254-0.913c0.227,0.058,0.369,1.346,0.627,1.889C30.461,10.548,30.287,10.524,29.838,10.525z"/>
					<path fill-rule="evenodd" clip-rule="evenodd" fill="#729EC1" d="M27.002,8.612c-0.063,0.983,1.805,1.661,2.846,1.909
						c-0.262,0.315-0.6,0.717-0.584,1.032c-0.752-0.206-2.025-0.559-2.541-1.519C26.369,9.377,26.659,8.873,27.002,8.612z"/>
					<path fill-rule="evenodd" clip-rule="evenodd" fill="#8FBCE0" d="M29.957,10.446c0.053-0.264,0.068-0.444,0.172-0.464
						c0.174-0.034,0.449,0.282,0.662,0.727C30.447,10.47,30.344,10.446,29.957,10.446z"/>
					<path fill-rule="evenodd" clip-rule="evenodd" fill="#8FBCE0" d="M28.182,10.112c0.574,0.175,1.025,0.381,1.42,0.475
						c-0.299,0.283-0.49,0.508-0.477,0.799c-0.424-0.116-0.998-0.328-1.551-0.677C27.208,10.331,27.5,9.863,28.182,10.112z"/>
				</g>
				<g>
					<path fill-rule="evenodd" clip-rule="evenodd" fill="#F1B287" d="M29.934,8.92c-0.34-0.136-1.152-0.484-1.459-0.626
						c-0.672-0.31-0.713-0.871-1.057-1.692c-0.626-0.279-0.873-0.55-0.993-0.891c-0.286-0.808,0.005-1.8,0.54-2.419
						c0.467-0.542,1.08-0.792,1.83-0.781c1.455,0.021,2.246,0.958,2.566,2.148c0.027,0.102,0.033,0.198,0.021,0.308
						c-0.025,0.258-0.084,0.311-0.084,0.488c0,0.115,0.08,0.226,0.123,0.408C31.541,6.371,31.41,7,31.398,7.483
						c0.004,0.407,0.094,1.018-0.033,1.146c-0.207,0.207-0.68,0.348-0.939,0.404C30.285,9.063,30.178,8.987,29.934,8.92z"/>
					<path fill-rule="evenodd" clip-rule="evenodd" fill="#E8A476" d="M30.098,8.993c-0.338-0.136-1.395-0.519-1.701-0.66
						c-0.672-0.309-0.635-0.91-0.979-1.731c-0.626-0.279-0.873-0.55-0.993-0.891c-0.286-0.808,0.005-1.8,0.54-2.419
						c0.467-0.542,1.08-0.792,1.83-0.781c1.266,0.018,2.027,0.728,2.416,1.694c-0.031,0.082-0.709,0.483-1.375,0.654
						c-0.426,0.109-0.697-0.063-1.127-0.164c-0.031,0.357,0.352,1.155,0.377,1.397c0.008,0.059-0.145,0.343,0.031,0.563
						c0.049,0.06,0.17,0.123,0.16,0.234C29.176,8.053,30.186,8.69,30.574,9C30.422,9.054,30.316,9.053,30.098,8.993z"/>
					<g>
						<path fill-rule="evenodd" clip-rule="evenodd" fill="#361D07" d="M30.309,4.377c-0.361-0.134-1.713-0.641-2.303-0.891
							c-0.604-0.256-1.263-0.527-1.688-0.112c-0.347,0.558-0.357,1.489-0.212,1.992c0.208,0.719,0.766,1.302,1.488,1.901
							c0.271,0.225,0.123-0.81,0.176-1.037c0.076,0.158,0.166,0.322,0.256,0.491l0.467,0.233c-0.416-1.304,0.158-1.404-0.113-1.97
							c-0.174-0.364-0.217-0.648-0.15-0.806C28.76,4.145,29.576,4.657,30.309,4.377z"/>
						<path fill-rule="evenodd" clip-rule="evenodd" fill="#E8A476" d="M27.45,5.842c-0.575-0.131-0.513,0.51-0.385,0.89
							c0.087,0.261,0.306,0.218,0.407,0.42c0.121,0.241,0.328,0.337,0.494,0.316c0.338-0.045,0.076-0.525,0.016-0.72
							C27.986,6.418,27.814,5.925,27.45,5.842z"/>
						<path fill-rule="evenodd" clip-rule="evenodd" fill="#4F2B0C" d="M26.304,3.43c-0.175,0.22-0.333,0.774-0.276,1.129
							c0.018-0.256,0.041-0.5,0.289-0.714c-0.148,0.374-0.179,0.541-0.07,0.959c-0.003-0.316,0.063-0.636,0.314-0.827
							c-0.233,0.515-0.156,1.088-0.037,1.378c-0.057-0.467,0.074-0.996,0.387-1.268c-0.172,0.371-0.057,0.763,0.006,1.102
							c0.043-0.464,0.037-0.716,0.344-0.983c-0.073,0.412,0.023,0.84,0.18,1.11c-0.033-0.15,0.091-0.819,0.189-1.045
							c0.039,0.266,0.133,0.519,0.281,0.622c-0.053-0.356-0.002-0.598,0.033-0.776c0.014-0.08,0.164-0.087,0.281-0.116
							C27.435,3.845,26.504,3.288,26.304,3.43z"/>
						<path fill-rule="evenodd" clip-rule="evenodd" fill="#4F2B0C" d="M26.283,3.425c1.09-0.156,3.047,1.396,4.254,0.922
							c0.404-0.158,0.689-0.445,0.73-0.635C31.895,0.859,26.678,0.987,26.283,3.425z"/>
						<path fill-rule="evenodd" clip-rule="evenodd" fill="#361D07" d="M28.219,4.088c0.58-0.02,1.342,0.478,1.977,0.325
							c0.119-0.002,0.232-0.022,0.342-0.065c0.404-0.158,0.689-0.445,0.73-0.635c0.023-0.107,0.037-0.211,0.043-0.31
							c-0.07-0.756-0.568-0.95-0.945-1.033c0.365,0.21,0.605,0.625,0.66,1.126c-0.334-0.445-0.555-0.787-1.262-0.927
							c0.447,0.311,0.646,0.588,0.875,1.048c-0.43-0.405-0.754-0.634-1.234-0.811c0.34,0.284,0.516,0.514,0.67,1.019
							c-0.344-0.453-0.469-0.544-1.318-0.902c0.445,0.327,0.59,0.558,0.775,0.961c-0.418-0.423-0.725-0.715-1.223-0.902
							c0.168,0.114,0.389,0.406,0.621,0.757c-0.553-0.283-0.543-0.545-1.34-0.699c0.268,0.168,0.514,0.36,0.699,0.621
							c-0.363-0.239-0.76-0.54-1.291-0.694c0.184,0.146,0.383,0.29,0.621,0.558c-0.484-0.313-0.686-0.633-1.397-0.364
							c0.322-0.011,0.557,0.004,0.825,0.228c-0.416-0.22-0.719-0.221-1.054,0.039C26.764,3.257,27.41,4.115,28.219,4.088z"/>
						<path fill-rule="evenodd" clip-rule="evenodd" fill="#241304" d="M28.449,3.6c0.107,0.161,0.195,0.269,0.215,0.37
							c-0.41-0.244-0.852-0.57-1.265-0.769c0.325,0.234,0.472,0.447,0.638,0.682c-0.289-0.188-0.873-0.673-1.211-0.698
							c0.297,0.109,0.405,0.302,0.604,0.531c-0.327-0.131-0.838-0.431-1.187-0.329c0.657,0.069,1.292,0.719,1.968,0.696
							c0.623-0.021,1.221,0.417,1.881,0.352c0.334-0.034,0.672-0.115,0.945-0.4c0.096-0.086,0.176-0.167,0.215-0.274
							c0.154-0.428-0.078-0.984-0.482-1.192c0.363,0.343,0.348,1.016,0.305,1.193c-0.086-0.144-0.229-0.497-0.525-0.682
							c0.199,0.283,0.203,0.576,0.283,0.886c-0.033,0.071-0.377-0.473-0.656-0.605c0.211,0.342,0.205,0.674,0.135,0.834
							c-0.252,0.056-0.275-0.45-0.705-0.63c0.189,0.247,0.203,0.506,0.236,0.672c-0.377-0.248-0.496-0.372-0.836-0.649
							c0.117,0.177,0.219,0.304,0.277,0.475C28.904,3.869,28.771,3.816,28.449,3.6z"/>
						<g>
							<path fill-rule="evenodd" clip-rule="evenodd" fill="#DB9669" d="M27.148,6.5c-0.049-0.372,0.011-0.41,0.137-0.454
								c0.156-0.055,0.416,0.276,0.438,0.39c-0.084-0.025-0.214-0.048-0.264,0.046c0.058-0.024,0.111-0.012,0.168,0.007
								c0.053,0.017,0.094,0.069,0.164,0.057c0.014-0.043-0.029-0.146-0.049-0.186c-0.102-0.206-0.287-0.438-0.487-0.363
								C27.152,6.034,27.041,6.145,27.148,6.5z"/>
							<path fill-rule="evenodd" clip-rule="evenodd" fill="#DB9669" d="M27.744,6.841c-0.029-0.059-0.006-0.153-0.117-0.21
								c0.111-0.007,0.164,0.03,0.199,0.091c0.041,0.075,0.043,0.136,0.029,0.149C27.846,6.88,27.793,6.944,27.744,6.841z"/>
						</g>
					</g>
					<path fill-rule="evenodd" clip-rule="evenodd" fill="#E8A476" d="M31.342,4.872c0.018,0.083,0.029,0.161,0.02,0.251
						c-0.021,0.231-0.078,0.16-0.059,0.336c0.023,0.213,0.152,0.309,0.178,0.577c0.039,0.401-0.02,0.555-0.051,0.969
						c-0.047-0.07-0.055,0.008-0.092,0.039c-0.104,0.085-0.045,0.079-0.152,0.107c-0.018,0.005-0.018,0.042-0.008,0.085
						c0.002,0.015,0.004,0.026,0.002,0.03c-0.004,0.002-0.012-0.001-0.021-0.021c-0.016-0.035-0.033-0.069-0.064-0.067
						c-0.014,0.001-0.045,0.033-0.057,0.049c-0.02,0.025-0.012,0.085-0.002,0.128c0.014,0.051-0.002,0.042-0.023,0.007
						c-0.041-0.068-0.115-0.136-0.193-0.133c-0.092,0.004-0.229,0.014-0.309-0.085C30.758,6.872,30.668,7,31.021,6.975
						c0.148-0.011,0.197-0.017,0.131-0.177c-0.104-0.245-0.285-0.503-0.34-0.753c-0.068-0.309,0.035-0.477,0.189-0.682
						C31.234,5.279,31.252,5.145,31.342,4.872z"/>
					<g>
						<path fill-rule="evenodd" clip-rule="evenodd" fill="#E8A476" d="M30.281,7.839c-0.027-0.011-0.049-0.035-0.066-0.046
							c-0.029-0.018-0.061,0.021-0.027,0.044c0.016,0.014,0.051,0.024,0.094,0.035c0.041,0.01,0.049,0.007,0.092,0.014
							c0.133,0.021,0.826,0.801,0.908-0.175c0.004-0.05,0.029-0.119-0.008-0.105c-0.113,0.032-0.613,0.199-0.867,0.236
							C30.346,7.85,30.299,7.847,30.281,7.839z"/>
						<path fill-rule="evenodd" clip-rule="evenodd" fill="#F1B287" d="M31.275,7.682c0.082,0,0.076,0.249,0.029,0.34
							c-0.043,0.085-0.363,0.246-0.512,0.182c-0.066-0.029-0.133-0.041-0.229-0.093c-0.057-0.032-0.293-0.232-0.254-0.24
							c0.004,0,0.188-0.01,0.209-0.012c0.084-0.009,0.197,0.065,0.268,0.045l0.219-0.128L31.275,7.682z"/>
						<path fill-rule="evenodd" clip-rule="evenodd" fill="#5E3920" d="M30.393,7.874c0.09,0.039,0.215,0.089,0.238,0.095
							c0.035,0.008,0.07,0.013,0.076,0.012c0.154-0.008,0.199-0.028,0.326-0.085c0.063-0.027,0.184-0.051,0.23-0.127
							c0.014-0.021,0.012-0.083,0.012-0.113c-0.096-0.027-0.129,0.053-0.25,0.071c-0.1,0.014-0.18,0.059-0.279,0.078L30.393,7.874z"
							/>
						<path fill-rule="evenodd" clip-rule="evenodd" fill="#EBD3C3" d="M30.48,7.862c0.068,0.026,0.254,0.02,0.326,0.001
							c0.084-0.022,0.174-0.049,0.26-0.087c0.063-0.028,0.145-0.048,0.195-0.103c0.014-0.015,0.02-0.062,0.018-0.078
							c-0.121,0.074-0.127,0.06-0.244,0.107c-0.092,0.037-0.176,0.079-0.273,0.1L30.48,7.862z"/>
						<path fill-rule="evenodd" clip-rule="evenodd" fill="#E8A476" d="M30.096,7.999c-0.029-0.22,0-0.246,0.186-0.293
							C30.146,7.781,30.121,7.83,30.096,7.999z"/>
						<path fill-rule="evenodd" clip-rule="evenodd" fill="#DB9669" d="M31.232,7.487c-0.059,0-0.076,0.037-0.143,0.066
							c-0.109,0.011-0.156,0.026-0.217,0.062c-0.307,0.178-0.363,0.217-0.547,0.235c-0.045,0.01-0.043,0.026-0.008,0.029
							c0.039,0.003,0.139,0.001,0.283-0.022c0.123-0.021,0.229-0.044,0.348-0.083C31,7.756,31.051,7.742,31.086,7.728
							c0.051-0.021,0.119-0.051,0.15-0.072c0.016-0.006,0.025-0.011,0.035-0.014c0.014,0.006,0,0.028,0,0.107
							c0.01-0.005,0.064-0.136,0.07-0.146C31.348,7.589,31.35,7.487,31.232,7.487z"/>
						<path fill-rule="evenodd" clip-rule="evenodd" fill="#E8A476" d="M30.572,8.067c0.113,0.063,0.215,0.07,0.285,0.06
							c0.074-0.01,0.156-0.057,0.227-0.086c0.072-0.029,0.119-0.021,0.182-0.069c0.031-0.023,0.045-0.041,0.072-0.067
							c-0.135,0.299-0.313,0.47-0.607,0.306C30.703,8.195,30.629,8.103,30.572,8.067z"/>
					</g>
					<path fill-rule="evenodd" clip-rule="evenodd" fill="#361D07" d="M28.066,5.701c0.176,0.563,0.42,1.124,0.586,1.584
						c0.068,0.194,0.256,0.375,0.553,0.549c0.15,0.088,0.479,0.268,0.531,0.256c0.158-0.036,0.084-0.314,0.701-0.66
						c0.098-0.054,0.297-0.106,0.492-0.18c0.264-0.101,0.521-0.208,0.496-0.075c0.023,0.55,0.014,2.065-0.119,2.262
						c-0.051,0.075-0.254,0.193-0.549,0.338c-0.154,0.076-0.248,0.135-0.57-0.01c-0.564-0.256-1.746-0.924-2.049-1.131
						c-0.354-0.24-0.287-0.723-0.268-1.093c0.041-0.793,0.121-1.268-0.018-1.763L28.066,5.701L28.066,5.701z M30.498,8.28
						c0.082,0.058,0.309,0.097,0.664-0.133c0.133-0.086,0.227-0.255,0.223-0.621c-0.002-0.196-0.322-0.041-0.49,0.036
						c-0.121,0.054-0.414,0.196-0.492,0.299C30.318,7.97,30.387,8.202,30.498,8.28z"/>
					<path fill-rule="evenodd" clip-rule="evenodd" fill="#4F2B0C" d="M29.512,8.001c0.105,0.054,0.199,0.094,0.225,0.088
						c0.158-0.036,0.084-0.314,0.701-0.66c0.092-0.051,0.285-0.083,0.467-0.155c0.277-0.11,0.547-0.239,0.521-0.1
						c0.018,0.42,0.057,1.424-0.072,1.941c-0.039,0.04-0.092,0.079-0.17,0.117c-0.041,0.021-0.414,0.144-0.467,0.153
						C30.301,8.985,29.82,8.556,29.512,8.001L29.512,8.001z M30.498,8.28c0.082,0.058,0.309,0.097,0.664-0.133
						c0.133-0.086,0.227-0.255,0.223-0.621c-0.002-0.196-0.322-0.041-0.49,0.036c-0.121,0.054-0.414,0.196-0.492,0.299
						C30.318,7.97,30.387,8.202,30.498,8.28z"/>
					<path fill-rule="evenodd" clip-rule="evenodd" fill="#E8A476" d="M30.27,5.769c-0.348,0.167-0.648,0.146-1.021,0.128
						c-0.131,0.136-0.227,0.257-0.373,0.378L28.82,6.333c0.209-0.045,0.275-0.082,0.396-0.187c0.119-0.103,0.076-0.088,0.234-0.075
						c0.162,0.014,0.291-0.003,0.404,0.016c0.053,0.008-0.084,0.146-0.252,0.3c0.109-0.02,0.225-0.061,0.285-0.094
						c0.08-0.044,0.111-0.13,0.191-0.156c0.027-0.01,0.047,0.019,0.074,0.02C30.252,6.129,30.299,5.884,30.27,5.769z"/>
					<path fill-rule="evenodd" clip-rule="evenodd" fill="#361D07" d="M30.332,5.679c-0.055,0.125-0.078,0.212-0.215,0.241
						c-0.201,0.042-0.506,0.057-0.682,0.051c-0.195-0.007-0.129-0.054-0.27,0.099c-0.115,0.126-0.182,0.162-0.357,0.246
						c0.156-0.167,0.289-0.324,0.432-0.503c0.201-0.015,0.396-0.042,0.572-0.063c0.088-0.009,0.174-0.043,0.289-0.044
						c0.029-0.011-0.018-0.017-0.086-0.012C30.063,5.677,30.25,5.635,30.332,5.679z"/>
					<path fill-rule="evenodd" clip-rule="evenodd" fill="#E6E6E6" d="M30.1,6.07c-0.02,0.037-0.115,0.018-0.133,0.037
						c-0.068,0.083-0.141,0.166-0.232,0.221s-0.184,0.061-0.367,0.061c-0.049,0-0.102,0.002-0.166,0.008
						C29.412,6.208,29.826,5.927,30.1,6.07z"/>
					<g>
						<path fill-rule="evenodd" clip-rule="evenodd" fill="#032836" d="M29.816,6.049c0.016,0.072,0.025,0.16,0.004,0.203
							c-0.02,0.039-0.068,0.064-0.174,0.094c-0.07,0.021-0.129,0.002-0.225-0.098l0.063-0.068l0.17-0.089L29.816,6.049z"/>
						<path fill-rule="evenodd" clip-rule="evenodd" d="M29.748,6.06c0.016,0.045,0.025,0.115,0.012,0.145
							c-0.014,0.027-0.021,0.044-0.096,0.065c-0.049,0.015-0.105-0.009-0.172-0.079l0.043-0.048l0.119-0.063L29.748,6.06z"/>
						<path fill-rule="evenodd" clip-rule="evenodd" fill="#096282" d="M29.818,6.157c-0.01,0.19-0.221,0.202-0.309,0.136
							l0.035-0.03c0.113,0.054,0.217,0.007,0.236-0.094L29.818,6.157z"/>
						<path fill-rule="evenodd" clip-rule="evenodd" fill="#FFFFFF" d="M29.811,6.105c-0.021,0.01-0.117,0.066-0.145,0.093
							c0.059,0.015,0.115-0.019,0.145-0.032C29.813,6.144,29.813,6.129,29.811,6.105z"/>
					</g>
					<path fill-rule="evenodd" clip-rule="evenodd" fill="#C2845B" d="M30.053,6.086C30.02,6.084,30,6.088,29.975,6.099
						c-0.041,0.019-0.068,0.056-0.1,0.101c-0.041,0.059-0.086,0.088-0.135,0.112c-0.076,0.038-0.203,0.058-0.322,0.062
						c-0.072,0.003-0.143-0.003-0.193,0.006c-0.02,0.003-0.012,0.012-0.027,0.021c0.041,0.002,0.168-0.003,0.219-0.004
						c0.197-0.001,0.393-0.019,0.506-0.175c0.029-0.04,0.057-0.072,0.074-0.085c0.012-0.011,0.027-0.023,0.059-0.026
						c0.02-0.002,0.035,0.001,0.041-0.002C30.105,6.1,30.084,6.088,30.053,6.086z"/>
					<path opacity="0.5" fill-rule="evenodd" clip-rule="evenodd" fill="#756E6E" d="M30.1,6.07
						c-0.025-0.007-0.059-0.006-0.098,0.001c-0.115,0.021-0.205,0.082-0.322,0.146c-0.139,0.076-0.293,0.145-0.459,0.164
						C29.432,6.193,29.826,5.927,30.1,6.07z"/>
					<path fill-rule="evenodd" clip-rule="evenodd" fill="#C2845B" d="M29.998,6.001c-0.133-0.015-0.275,0.028-0.396,0.085
						c-0.139,0.067-0.34,0.195-0.482,0.31c-0.01,0.008-0.137,0.117-0.076,0.103c0.029-0.007,0.096-0.058,0.113-0.069
						c0.229-0.16,0.512-0.362,0.74-0.385c0.055-0.005,0.107,0.003,0.162,0.02c0.059,0.018,0.076,0.049,0.07-0.005
						c-0.002-0.003-0.008-0.008-0.014-0.012C30.084,6.028,30.021,6.004,29.998,6.001z"/>
					<path fill-rule="evenodd" clip-rule="evenodd" fill="#704A31" d="M30.125,6.088c-0.006,0.005-0.033-0.014-0.061-0.022
						c-0.029-0.01-0.061-0.013-0.068-0.014c-0.016-0.003-0.029-0.005-0.033-0.004s0.004,0.006,0.01,0.009
						c-0.018,0.002-0.055-0.016-0.055-0.01c-0.002,0.005,0.02,0.01,0.027,0.014c-0.018,0.003-0.063-0.008-0.063-0.008
						c0.002,0.005,0.02,0.014,0.033,0.019c-0.006-0.001-0.084-0.01-0.084-0.01c-0.004,0.003,0.016,0.015,0.051,0.023
						c-0.027-0.001-0.057,0.001-0.1-0.015c-0.006,0.017,0.025,0.023,0.055,0.027c-0.045,0.005-0.072,0-0.115-0.006
						c-0.016,0.019,0.027,0.031,0.063,0.035c-0.055,0.001-0.109-0.017-0.115-0.013c0.006,0.004-0.006,0.018,0.066,0.033
						c-0.043,0.009-0.09-0.006-0.119-0.01c-0.008,0.014,0.006,0.035,0.07,0.039c-0.059,0.005-0.092-0.001-0.146,0.001
						c0.016,0.031,0.053,0.033,0.09,0.04c-0.051,0-0.102-0.001-0.152-0.002c-0.035,0.026,0.035,0.03,0.086,0.044
						c-0.063-0.004-0.092-0.004-0.145-0.006C29.412,6.27,29.432,6.29,29.486,6.3c-0.051,0.005-0.08,0.01-0.141,0.003
						c0.002,0.014,0.025,0.018,0.049,0.023c-0.023,0.003-0.061,0.003-0.084,0.003c0.006,0.008,0.01,0.02,0,0.022
						c-0.094,0.034-0.197,0.118-0.254,0.14c0.002-0.001,0.248-0.183,0.359-0.256c0.15-0.101,0.354-0.227,0.535-0.21
						C29.986,6.028,30.09,6.042,30.125,6.088z"/>
					<path fill-rule="evenodd" clip-rule="evenodd" fill="#DB9669" d="M31.33,5.585l-0.037-0.151
						c-0.391,0.137-0.006-0.137,0.066-0.278c0.027-0.057,0.064-0.269,0.027-0.305l-0.525,0.57c-0.195,0.5-0.145,0.477,0.057,0.94
						c-0.014-0.142-0.07-0.352-0.057-0.468C30.863,5.87,31.246,5.798,31.33,5.585z"/>
					<g>
						<path fill-rule="evenodd" clip-rule="evenodd" fill="#E6E6E6" d="M30.826,5.797c0.021-0.018,0.037-0.035,0.057-0.042
							c0.154-0.05,0.193-0.029,0.277-0.089c0.09-0.063,0.115-0.146,0.145-0.218c0.008-0.019,0.006-0.08-0.01-0.083
							c-0.223,0.051-0.293,0.095-0.398,0.224c-0.016,0.019-0.088,0.151-0.102,0.194C30.779,5.823,30.805,5.814,30.826,5.797z"/>
						<g>
							<path fill-rule="evenodd" clip-rule="evenodd" fill="#032836" d="M31.23,5.384c0.018,0.141,0.014,0.227-0.117,0.287
								c-0.096,0.044-0.16,0.023-0.227-0.057l0.066-0.094l0.133-0.09L31.23,5.384z"/>
							<path fill-rule="evenodd" clip-rule="evenodd" d="M31.172,5.396c0.01,0.046,0.016,0.114,0,0.145
								c-0.014,0.028-0.021,0.045-0.086,0.068c-0.045,0.015-0.092-0.006-0.146-0.075l0.041-0.048l0.107-0.066L31.172,5.396z"/>
							<path fill-rule="evenodd" clip-rule="evenodd" fill="#096282" d="M31.227,5.492c-0.021,0.191-0.205,0.208-0.277,0.145
								l0.031-0.031c0.096,0.051,0.191,0.002,0.211-0.1L31.227,5.492z"/>
							<path fill-rule="evenodd" clip-rule="evenodd" fill="#FFFFFF" d="M31.223,5.441c-0.02,0.011-0.105,0.069-0.133,0.097
								c0.051,0.014,0.102-0.022,0.129-0.036C31.223,5.479,31.223,5.464,31.223,5.441z"/>
						</g>
						<path opacity="0.5" fill-rule="evenodd" clip-rule="evenodd" fill="#6E6A6A" d="M31.309,5.401
							c-0.002-0.019-0.006-0.034-0.014-0.036c-0.223,0.051-0.293,0.095-0.398,0.224c-0.016,0.019-0.088,0.151-0.102,0.194
							c-0.008,0.018-0.006,0.026,0,0.028c0.025-0.03,0.092-0.102,0.154-0.146C31.084,5.569,31.254,5.485,31.309,5.401z"/>
						<path fill-rule="evenodd" clip-rule="evenodd" fill="#C2845B" d="M31.24,5.36c0.047-0.008,0.102-0.05,0.146-0.074
							c-0.045,0.06-0.096,0.102-0.148,0.118C31.051,5.459,31,5.473,30.883,5.649l-0.059,0.109c-0.084,0.15-0.064,0.067-0.018-0.031
							c0.018-0.036,0.031-0.07,0.061-0.111C30.998,5.415,31.049,5.417,31.24,5.36z"/>
						<path fill-rule="evenodd" clip-rule="evenodd" fill="#C2845B" d="M30.832,5.813c0.023-0.018,0.037-0.032,0.057-0.039
							c0.152-0.051,0.193-0.03,0.277-0.09c0.109-0.077,0.137-0.174,0.15-0.279c-0.025,0.08-0.082,0.192-0.17,0.252
							c-0.08,0.053-0.17,0.043-0.266,0.084c-0.021,0.009-0.037,0.021-0.064,0.047C30.787,5.815,30.813,5.828,30.832,5.813z"/>
						<path fill-rule="evenodd" clip-rule="evenodd" fill="#704A31" d="M31.291,5.431c-0.039-0.002-0.063,0.001-0.1-0.012
							c-0.004,0.017,0.031,0.026,0.057,0.029c-0.041,0.007-0.063-0.007-0.102-0.011c0.008,0.008,0.027,0.031,0.059,0.038
							c-0.049,0.004-0.105-0.026-0.109-0.022c-0.008,0.005-0.029,0.037,0.045,0.043c-0.033,0.005-0.057-0.017-0.088-0.013
							c-0.02,0.025,0.006,0.037,0.063,0.038c-0.053,0.008-0.08,0.002-0.127,0.008c0.012,0.03,0.047,0.03,0.078,0.036
							c-0.043,0.001-0.078,0.003-0.123,0.005c-0.006,0.012,0.029,0.023,0.074,0.035c-0.053-0.001-0.055,0.002-0.102,0.002
							c-0.006,0.019,0.006,0.02,0.049,0.033c-0.029,0.005-0.043,0.009-0.076-0.001c0.006,0.023,0.033,0.03,0.057,0.033
							c-0.018,0.002-0.053,0-0.072-0.004c-0.004,0.008,0.004,0.014,0.02,0.024c-0.012,0.012-0.027,0.007-0.037,0.015
							c-0.006,0.006,0.004,0.008,0.016,0.012c-0.021,0.011-0.064,0.07-0.078,0.091c0.053-0.13,0.098-0.244,0.213-0.323
							c0.059-0.041,0.104-0.067,0.146-0.079c0.068-0.019,0.131-0.035,0.186-0.067c-0.01,0.016-0.031,0.025-0.035,0.033
							c0,0.005,0.012,0.014,0.021,0.018c-0.023,0.006-0.049-0.004-0.051-0.001c-0.002,0.002,0.02,0.018,0.039,0.023
							c-0.029,0.003-0.078-0.007-0.076-0.006C31.246,5.413,31.262,5.422,31.291,5.431z"/>
					</g>
					<g>
						<g>
							<g>
								<path fill-rule="evenodd" clip-rule="evenodd" fill="#DB9669" d="M30.828,7.093c-0.125-0.001-0.277,0.177-0.457,0.071
									C30.268,7.102,30.572,6.901,30.828,7.093z"/>
								<path fill-rule="evenodd" clip-rule="evenodd" fill="#F1B287" d="M30.908,5.442c-0.213,0.426-0.111,0.681,0.229,1.145
									c0.09,0.123,0.199,0.263,0.205,0.311c0.012,0.08-0.082,0.181-0.186,0.227c-0.164,0.072-0.287-0.076-0.486-0.035
									c-0.035,0.007-0.068,0.017-0.1,0.028c-0.111,0.037-0.219,0.109-0.277-0.046c-0.029-0.073-0.006-0.167,0.035-0.229
									c0.045-0.07,0.146-0.104,0.271-0.085C30.457,6.213,30.389,5.798,30.908,5.442z"/>
								<path fill-rule="evenodd" clip-rule="evenodd" fill="#F5BC95" d="M30.801,5.723c-0.072,0.289,0.059,0.509,0.32,0.867
									c0.088,0.117,0.195,0.25,0.201,0.297c0.012,0.076-0.068,0.174-0.166,0.218c-0.111,0.048-0.225-0.004-0.332-0.036
									c0.268,0,0.402-0.121,0.303-0.277C30.691,6.16,30.746,5.797,30.801,5.723z"/>
							</g>
							<path fill-rule="evenodd" clip-rule="evenodd" fill="#E8A476" d="M30.631,6.802c-0.232-0.041-0.334,0.017-0.305,0.254
								C30.193,6.827,30.385,6.628,30.631,6.802z"/>
						</g>
						<path fill-rule="evenodd" clip-rule="evenodd" fill="#361D07" d="M30.879,5.537c0.08-0.009,0.146-0.082,0.213-0.152
							c0.105-0.114,0.176-0.188,0.244-0.288c0.023-0.034,0.047-0.062,0.068-0.104c0.045-0.091,0.016-0.241-0.027-0.308
							c-0.043,0.103-0.078,0.159-0.148,0.248c-0.068,0.087-0.117,0.135-0.168,0.181c-0.061,0.053-0.123,0.101-0.227,0.2
							c0.016-0.025,0.023-0.045,0.037-0.06c-0.068,0.036-0.131,0.12-0.129,0.131C30.754,5.448,30.795,5.547,30.879,5.537z"/>
					</g>
					<g>
						<path fill-rule="evenodd" clip-rule="evenodd" fill="#DB9669" d="M31.355,5.973c-0.02,0.013-0.039,0.025-0.059,0.038
							c-0.09,0.054-0.184,0.106-0.258,0.136c-0.08,0.037-0.131,0.035-0.164-0.004c-0.029-0.034-0.041-0.097-0.049-0.189l-0.018-0.15
							L30.859,5.8l0.02,0.148c0.006,0.082,0.016,0.137,0.035,0.161c0.016,0.019,0.049,0.016,0.105-0.01v0
							c0.07-0.028,0.162-0.079,0.248-0.132c0.025-0.015,0.049-0.03,0.072-0.045C31.344,5.927,31.352,5.953,31.355,5.973z"/>
						<path fill-rule="evenodd" clip-rule="evenodd" fill="#DB9669" d="M31.367,6.058c-0.012,0.009-0.018,0.012-0.031,0.021
							c-0.088,0.055-0.182,0.106-0.256,0.136c-0.082,0.037-0.131,0.036-0.164-0.003c-0.031-0.034-0.041-0.097-0.049-0.189
							l-0.025-0.205l0.053,0.008l0.023,0.191c0.008,0.083,0.016,0.137,0.035,0.161c0.018,0.019,0.049,0.016,0.105-0.01h0.002
							c0.07-0.029,0.162-0.079,0.248-0.132c0.018-0.011,0.035-0.021,0.051-0.032C31.367,6.025,31.367,6.044,31.367,6.058z"/>
						<g>
							<path opacity="0.5" fill-rule="evenodd" clip-rule="evenodd" fill="#CCC8C8" d="M31.545,5.851
								c-0.09,0.08-0.34,0.242-0.492,0.303c-0.139,0.063-0.162,0.003-0.178-0.172l-0.031-0.263
								c-0.018-0.173-0.006-0.237,0.113-0.299c0.225-0.119,0.434-0.213,0.672-0.313c0.098-0.04,0.1-0.011,0.098,0.089
								C31.721,5.441,31.701,5.708,31.545,5.851z"/>
							<path fill-rule="evenodd" clip-rule="evenodd" fill="#4A4642" d="M31.561,5.87c-0.047,0.043-0.141,0.11-0.242,0.172
								c-0.088,0.055-0.184,0.106-0.256,0.136c-0.082,0.037-0.131,0.036-0.164-0.003c-0.029-0.034-0.041-0.097-0.049-0.189
								l-0.031-0.263c-0.01-0.09-0.01-0.152,0.006-0.202c0.02-0.052,0.055-0.088,0.121-0.123c0.113-0.06,0.223-0.113,0.332-0.164
								c0.111-0.052,0.223-0.1,0.342-0.149c0.061-0.025,0.094-0.026,0.115-0.001c0.018,0.022,0.018,0.058,0.018,0.114
								c-0.002,0.123-0.01,0.253-0.035,0.371C31.691,5.688,31.645,5.795,31.561,5.87L31.561,5.87z M31.291,5.999
								c0.1-0.061,0.189-0.125,0.234-0.167c0.076-0.066,0.117-0.165,0.141-0.275c0.025-0.113,0.031-0.24,0.035-0.361
								c0-0.044,0-0.072-0.006-0.08c-0.004-0.004-0.02,0-0.057,0.016c-0.119,0.049-0.23,0.098-0.34,0.148s-0.217,0.104-0.33,0.163
								c-0.053,0.027-0.082,0.055-0.096,0.093c-0.014,0.042-0.012,0.098-0.004,0.18L30.9,5.98c0.008,0.082,0.018,0.137,0.037,0.161
								c0.016,0.019,0.047,0.016,0.104-0.01h0.002C31.113,6.102,31.205,6.052,31.291,5.999z"/>
						</g>
					</g>
					<g>
						<path fill-rule="evenodd" clip-rule="evenodd" fill="#DB9669" d="M30.205,6.608c-0.07,0.034-0.195,0.084-0.33,0.134
							c-0.131,0.049-0.273,0.097-0.381,0.128c-0.072,0.023-0.125,0.031-0.162,0.022c-0.043-0.01-0.041-0.055-0.025-0.087
							c0.004,0.008,0.008,0.014,0.014,0.019c0.023,0.022,0.07,0.026,0.156-0.002l0.002,0c0.105-0.03,0.246-0.078,0.379-0.127
							s0.258-0.099,0.326-0.132c0.09-0.043,0.152-0.137,0.197-0.248c0.035-0.087,0.057-0.184,0.072-0.277
							c0.033-0.087,0.041-0.183,0.049-0.275c0-0.004,0.033-0.013,0.029,0.048c-0.008,0.143-0.033,0.352-0.104,0.523
							C30.379,6.455,30.309,6.559,30.205,6.608z"/>
						<path fill-rule="evenodd" clip-rule="evenodd" fill="#E8A476" d="M30.246,6.677c-0.07,0.034-0.197,0.084-0.33,0.133
							s-0.275,0.097-0.383,0.128c-0.105,0.035-0.168,0.034-0.209-0.002c-0.016-0.015-0.027-0.036-0.033-0.061l0.047-0.016
							c0.006,0.017,0.014,0.03,0.021,0.04c0.061,0.054,0.5-0.123,0.539-0.137c0.133-0.049,0.256-0.098,0.326-0.132
							c0.088-0.043,0.152-0.137,0.195-0.249c0.066-0.165,0.092-0.368,0.1-0.507c0-0.011,0-0.021,0-0.03l0.039-0.013
							c-0.002,0.014-0.004,0.029-0.006,0.046c-0.008,0.143-0.016,0.352-0.084,0.523C30.42,6.523,30.348,6.627,30.246,6.677z"/>
						<g>
							<path opacity="0.5" fill-rule="evenodd" clip-rule="evenodd" fill="#CCC8C8" d="M30.217,6.617
								c-0.137,0.067-0.494,0.199-0.707,0.26c-0.195,0.063-0.221,0.003-0.229-0.172l-0.016-0.343
								c-0.006-0.172,0.012-0.237,0.18-0.299c0.316-0.118,0.607-0.213,0.938-0.313c0.137-0.04,0.15-0.01,0.145,0.089
								C30.514,6.078,30.453,6.503,30.217,6.617z"/>
							<path fill-rule="evenodd" clip-rule="evenodd" fill="#4A4642" d="M30.229,6.64c-0.07,0.034-0.195,0.084-0.33,0.133
								c-0.133,0.049-0.275,0.097-0.381,0.128c-0.107,0.035-0.172,0.033-0.209-0.002C29.27,6.864,29.26,6.8,29.256,6.706
								L29.24,6.363c-0.004-0.09-0.002-0.154,0.027-0.204c0.027-0.052,0.078-0.087,0.168-0.12c0.158-0.06,0.313-0.113,0.465-0.164
								c0.154-0.051,0.309-0.099,0.475-0.149c0.078-0.022,0.121-0.024,0.148-0.003c0.029,0.021,0.033,0.061,0.029,0.119
								c-0.008,0.143-0.033,0.352-0.102,0.523C30.402,6.487,30.332,6.59,30.229,6.64L30.229,6.64z M29.881,6.726
								c0.133-0.049,0.256-0.099,0.326-0.132c0.09-0.044,0.152-0.137,0.197-0.249c0.064-0.165,0.09-0.368,0.098-0.507
								c0.002-0.041,0.002-0.066-0.01-0.074c-0.012-0.009-0.043-0.005-0.102,0.012c-0.164,0.049-0.32,0.098-0.475,0.148
								s-0.307,0.104-0.463,0.164c-0.076,0.028-0.119,0.057-0.141,0.096c-0.021,0.041-0.025,0.096-0.021,0.178l0.016,0.342
								c0.004,0.081,0.012,0.134,0.037,0.157c0.023,0.022,0.07,0.02,0.156-0.008l0.002,0C29.605,6.822,29.748,6.773,29.881,6.726z"
								/>
							<path fill-rule="evenodd" clip-rule="evenodd" fill="#4A4642" d="M30.529,5.862c-0.016,0.007-0.033,0-0.041-0.016
								c-0.004-0.015,0.002-0.033,0.018-0.039l0.338-0.145c0.016-0.007,0.033,0.001,0.041,0.016c0.006,0.016-0.002,0.034-0.018,0.04
								L30.529,5.862z"/>
							<path fill-rule="evenodd" clip-rule="evenodd" fill="#4A4642" d="M29.258,6.246c0.012,0.004,0.027,0.173-0.014,0.155
								l-1.533-0.405l-0.104-0.088c0,0,0.006,0.001,0.008,0.002L29.258,6.246z"/>
							<path fill-rule="evenodd" clip-rule="evenodd" fill="#E6E6E6" d="M29.248,6.263c0.012,0.004,0.025,0.066-0.018,0.049
								L27.957,6.01C27.945,6.007,27.945,6,27.955,6L29.248,6.263z"/>
						</g>
					</g>
				</g>
			</g>
		</g>
		<g>
			<g>
				<path fill-rule="evenodd" clip-rule="evenodd" fill="#F1B287" d="M30.836,19.923c1.174,0.352,3.086,0.583,3.6,1.297
					c0.443,0.617-0.162,1.405-0.654,1.708c-0.4,0.245-1.52-0.12-2.264-0.31c-0.66-0.169-0.904-0.865-1.383-0.95
					C29.926,20.986,30.42,20.399,30.836,19.923z"/>
				<path fill-rule="evenodd" clip-rule="evenodd" fill="#DB9669" d="M34.391,21.166c0.016,0.018,0.031,0.036,0.045,0.054
					c0.443,0.617-0.162,1.405-0.654,1.708c-0.4,0.245-1.52-0.12-2.264-0.31c-0.66-0.169-0.904-0.865-1.383-0.95
					c-0.086-0.281-0.029-0.545,0.098-0.791c0.725,0.264,1.092,0.837,1.605,1.051c0.711,0.295,1.334,0.385,1.676,0.254
					C33.619,22.141,34.043,21.605,34.391,21.166z"/>
				<path fill-rule="evenodd" clip-rule="evenodd" fill="#F1B287" d="M34.199,21.015c0.58,0.227,1.525,0.547,2.107,0.763
					c0.41,0.152,0.023,0.719-0.361,0.619c-0.377-0.098-1.363-0.392-1.367-0.393C34.211,21.832,33.922,21.431,34.199,21.015z"/>
				<path fill-rule="evenodd" clip-rule="evenodd" fill="#DB9669" d="M36.346,22.216c-0.082,0.168-0.189,0.236-0.4,0.181
					c-0.377-0.098-1.363-0.392-1.367-0.393c-0.213-0.1-0.398-0.276-0.465-0.488L36.346,22.216z"/>
			</g>
			<path fill-rule="evenodd" clip-rule="evenodd" fill="#1D3F5E" d="M22.586,20.689c0.282,0.197,0.691,0.272,1.113,0.448
				c1.635,0.678,4.565,0.224,6.731,0.497c0.314-0.565,0.516-1.296,0.416-1.72c-2.107-0.759-4.08-1.021-6.179-1.551
				C23.232,18.001,21.926,19.834,22.586,20.689z"/>
			<path fill-rule="evenodd" clip-rule="evenodd" fill="#1D3F5E" d="M25.29,12.993c0.127,0.646,0.039,1.589-0.017,2.393
				c-0.08,1.142,0.104,2.053,0.024,3.322c-0.095,1.492-0.514,2.178-1.118,2.413c-0.267,0.104-1.153-0.105-1.335-0.213
				c-0.422-0.252-0.667-0.811-0.795-2.158c-0.167-1.751-0.639-6.857,0.912-7.396C24.353,10.871,25.037,11.707,25.29,12.993z"/>
			<path fill-rule="evenodd" clip-rule="evenodd" fill="#193147" d="M22.05,18.75c-0.102-1.077-0.312-3.422-0.097-5.194
				c0.151-1.253,0.187-2.374,1.643-2.355c-0.245,1.515-0.181,4.883-0.08,7.351c0.021,0.495,0.143,1.5-0.53,1.576
				C22.588,20.171,22.141,19.706,22.05,18.75z"/>
			<path fill-rule="evenodd" clip-rule="evenodd" fill="#193147" d="M24.154,21.292c1.789,0.49,4.199,0.24,6.184,0.49
				c0.143-0.172,0.297-0.514,0.352-0.741c-0.777-0.387-3.594-0.504-5.965-0.487c-0.831,0.006-1.825,0.304-2.504-0.899
				C22.271,21.156,23.284,21.266,24.154,21.292z"/>
			<path fill-rule="evenodd" clip-rule="evenodd" fill="#215682" d="M30.805,20.674c0.066-0.289,0.088-0.559,0.041-0.76
				c-1.832-0.661-3.563-0.944-5.363-1.355c-0.273,0.207-0.469,0.268-1.349,0.921C26.876,19.695,28.17,19.821,30.805,20.674z"/>
			<path fill-rule="evenodd" clip-rule="evenodd" fill="#215682" d="M23.965,11.238c1.487,0.507,1.404,2.208,1.319,3.964
				c-0.098,0.833,0.022,2.241,0.035,3.285c-0.164,0.334-0.758,0.778-1.24,0.903C24.042,16.143,23.522,14.665,23.965,11.238z"/>
		</g>
		<g>
			<g>
				<path fill-rule="evenodd" clip-rule="evenodd" fill="#ACACB5" d="M39.867,19.445c0.416-0.273,0.344-0.247,0.549-0.704
					c0.217-0.475,2.344-5.052,2.305-5.072c-0.311-0.159-0.322-0.198-0.643,0.014l-5.014,3.545c-0.404,0.362-0.518,0.486-0.742,0.979
					l-2.096,4.58c-0.104,0.215-0.08,0.363-0.041,0.396c0.09,0.044,0.207,0.104,0.297,0.149c0.068,0.035,0.768-0.538,1.242-0.93
					l0.051,0.026C35.809,22.445,39.74,19.535,39.867,19.445z"/>
				<path fill-rule="evenodd" clip-rule="evenodd" fill="#C4C4CC" d="M36.148,22.058c0.418-0.273,0.344-0.247,0.551-0.704
					c0.203-0.447,3.449-5.574,3.643-6.076c-0.586,0.375-1.873,1.191-2.541,1.668c-0.082,0.058-0.176,0.007-0.049-0.086
					c0.963-0.703,2.844-2.081,3.119-2.322l-2.455,1.732l-1.129,0.797c-0.102,0.074-0.236,0.161-0.328,0.246
					c-0.33,0.3-0.43,0.441-0.637,0.895l-1.713,3.746c0.096-0.096,1.473-2.956,1.641-3.33c0.074-0.159,0.18-0.071,0.135,0.031
					c-0.547,1.204-0.998,2.267-1.48,3.515l-0.061,0.354l-0.17,0.709C35.088,22.948,36.02,22.151,36.148,22.058z"/>
				<path fill-rule="evenodd" clip-rule="evenodd" fill="#D8D8E6" d="M38.799,16.361c-0.342,0.189-1.354,0.899-1.656,1.114
					c-0.1,0.07-0.299-0.025-0.137-0.147l1.117-0.849c-0.166,0.105-1.02,0.698-1.172,0.837c-0.33,0.3-0.422,0.439-0.629,0.893
					l-0.465,1.015c0.184-0.33,0.178-0.344,0.58-1.104c0.072-0.135,0.209-0.018,0.164,0.083c-0.23,0.537-0.686,1.623-0.916,2.246
					L38.799,16.361z"/>
				<path fill-rule="evenodd" clip-rule="evenodd" fill="#8D8D99" d="M42.682,13.65c-0.145-0.037-0.734,0.42-0.885,0.529
					c-0.551,0.399-1.621,1.171-2.262,1.578c-0.141,0.105-0.215,0.013-0.09-0.089c0.189-0.156,2.311-1.732,2.479-1.857
					c0.162-0.121,0.32-0.248,0.445-0.267c0.051-0.008,0.1,0.002,0.158,0.028C42.574,13.594,42.656,13.633,42.682,13.65z"/>
				<path fill-rule="evenodd" clip-rule="evenodd" fill="#E8E8F7" d="M39.957,19.492c0.311-0.224,0.344-0.247,0.551-0.703
					l2.174-4.827c0.15-0.392,0.029-0.356-0.313-0.131l-5.025,3.59c-0.346,0.302-0.471,0.434-0.666,0.849l-2.109,4.627
					c-0.119,0.302-0.135,0.418-0.082,0.438c0.041,0.015,0.145-0.051,0.342-0.189L39.957,19.492z"/>
				<path fill-rule="evenodd" clip-rule="evenodd" fill="#8D8D99" d="M34.449,23.317c-0.096-0.083,0.082-0.501,0.309-0.984
					c0.305-0.645,0.797-1.863,0.867-2.054c0.043-0.125-0.027-0.193-0.1-0.057l-0.898,1.847l-0.367,0.756
					c-0.043,0.09-0.1,0.284-0.037,0.374L34.449,23.317z"/>
				<path fill-rule="evenodd" clip-rule="evenodd" fill="#4A4E67" d="M37.416,17.508l5.02-3.585
					c0.186-0.127,0.178-0.085,0.111,0.067l-2.141,4.752c-0.182,0.386-0.217,0.431-0.512,0.656c-1.711,1.231-3.424,2.428-5.133,3.656
					c-0.223,0.157-0.184,0.123-0.088-0.113l2.105-4.623C36.963,17.928,37.096,17.788,37.416,17.508z"/>
				<path fill-rule="evenodd" clip-rule="evenodd" fill="#333647" d="M39.994,19.32c-0.07,0.055-0.141,0.109-0.215,0.161
					l-5.018,3.573c-0.221,0.156-0.184,0.126-0.088-0.113l2.105-4.623c0.125-0.265,0.227-0.414,0.379-0.571
					c0.088-0.081,0.168-0.167,0.254-0.237c0.186-0.149,0.373-0.265,0.586-0.417C38.701,16.976,39.822,18.302,39.994,19.32z"/>
				<g>
					<path fill-rule="evenodd" clip-rule="evenodd" fill="#5E6382" d="M39.828,16.059c-0.102-0.037-0.297,0.077-0.434,0.253
						s-0.166,0.349-0.063,0.386c0.102,0.036,0.295-0.077,0.434-0.254C39.902,16.268,39.932,16.095,39.828,16.059z"/>
					<path fill-rule="evenodd" clip-rule="evenodd" fill="#2D2F3B" d="M39.789,16.111c-0.086-0.031-0.25,0.064-0.363,0.213
						c-0.115,0.147-0.139,0.292-0.055,0.322c0.086,0.03,0.25-0.065,0.363-0.212C39.85,16.286,39.873,16.142,39.789,16.111z"/>
					<path fill-rule="evenodd" clip-rule="evenodd" fill="#111421" d="M39.725,16.192c-0.059-0.021-0.174,0.044-0.252,0.147
						c-0.08,0.103-0.098,0.204-0.037,0.225c0.059,0.021,0.172-0.044,0.252-0.147S39.785,16.213,39.725,16.192z"/>
					<path fill-rule="evenodd" clip-rule="evenodd" fill="#5100FF" d="M39.662,16.273c-0.033-0.012-0.098,0.026-0.143,0.084
						c-0.045,0.058-0.055,0.115-0.021,0.126c0.033,0.013,0.098-0.025,0.143-0.083C39.686,16.342,39.695,16.285,39.662,16.273z"/>
					<path fill-rule="evenodd" clip-rule="evenodd" fill="#00FFFF" d="M39.635,16.308c-0.021-0.008-0.064,0.017-0.096,0.056
						c-0.031,0.039-0.037,0.078-0.014,0.085c0.021,0.009,0.066-0.017,0.096-0.056C39.652,16.354,39.658,16.315,39.635,16.308z"/>
					<path fill-rule="evenodd" clip-rule="evenodd" fill="#1E00FF" d="M39.609,16.339c-0.012-0.004-0.035,0.009-0.051,0.031
						c-0.018,0.021-0.021,0.042-0.01,0.047c0.014,0.004,0.037-0.01,0.055-0.031C39.621,16.365,39.623,16.344,39.609,16.339z"/>
				</g>
			</g>
			<g>
				<path fill-rule="evenodd" clip-rule="evenodd" fill="#F1B287" d="M41.182,16.136c0.736-0.205,0.723-0.392,0.787-0.134
					c0.094,0.375-0.316,1.835-0.994,2.433c-0.004,0.004-0.49,0.179-0.742,0.191c-0.215,0.011-0.211-0.108-0.117-0.424l0.408-1.408
					C40.662,16.372,40.727,16.263,41.182,16.136z"/>
				<path fill-rule="evenodd" clip-rule="evenodd" fill="#DB9669" d="M41.268,16.425c0.496-0.139,0.75-0.202,0.637-0.559
					c0.018,0.003,0.043,0.052,0.064,0.136c0.094,0.375-0.316,1.835-0.994,2.433c-0.004,0.004-0.277,0.166-0.531,0.172
					c-0.131,0.002-0.078-0.12-0.002-0.436l0.359-1.403C40.861,16.606,40.813,16.551,41.268,16.425z"/>
			</g>
		</g>
	</g>
</g>
</svg>
