<?xml version="1.0" encoding="utf-8"?>
<!-- Generator: Adobe Illustrator 16.0.0, SVG Export Plug-In . SVG Version: 6.00 Build 0)  -->
<!DOCTYPE svg PUBLIC "-//W3C//DTD SVG 1.1//EN" "http://www.w3.org/Graphics/SVG/1.1/DTD/svg11.dtd">
<svg version="1.1" id="Layer_1" xmlns="http://www.w3.org/2000/svg" xmlns:xlink="http://www.w3.org/1999/xlink" x="0px" y="0px"
	 width="20px" height="20px" viewBox="0 0 20 20" enable-background="new 0 0 20 20" xml:space="preserve">
<g>
	<path fill-rule="evenodd" clip-rule="evenodd" fill="#B19377" d="M9.899,19.75c-1.678,0-3.355-0.371-4.638-1.109
		c-1.01-0.58-1.989-1.549-1.917-2.804c0.115-2.002,1.707-7.312,3.653-8.436c5.771-3.33,0.033-3.33,5.805,0
		c1.945,1.125,3.536,6.434,3.652,8.436c0.071,1.255-0.909,2.224-1.917,2.804C13.256,19.379,11.576,19.75,9.899,19.75z"/>
	<path fill-rule="evenodd" clip-rule="evenodd" fill="#C7A585" d="M10.102,4.922c-0.57,0.703,0.701,1.325,2.7,2.479
		c0.028,0.017,0.061,0.037,0.089,0.056c0.032,0.019,0.061,0.04,0.093,0.061c0.028,0.021,0.058,0.043,0.089,0.067
		c0.029,0.025,0.059,0.05,0.09,0.075c0.82,0.697,1.481,2.013,1.899,2.992c0.017,0.052,0.041,0.106,0.066,0.159l0.059,0.158
		c0.024,0.052,0.045,0.105,0.066,0.16c0.021,0.055,0.041,0.106,0.063,0.161c0.431,1.133,0.784,2.335,1.006,3.525
		c0.008,0.044,0.017,0.087,0.024,0.13l0,0l0.018,0.125l0,0c0.008,0.042,0.017,0.084,0.021,0.123l0,0l0.021,0.117l0,0
		c0,0.04,0.008,0.076,0.014,0.114l0,0c0.004,0.036,0.008,0.073,0.012,0.111l0,0c0.004,0.032,0.009,0.068,0.009,0.102v0.002
		c0.004,0.034,0.008,0.067,0.008,0.101c0.004,0.033,0.008,0.064,0.008,0.097l0,0v0.058l0,0l0.005,0.059l0,0c0,0.021,0,0.039,0,0.058
		l0,0c-0.005,0.02-0.005,0.038-0.005,0.059l0,0v0.057l0,0c-0.095,1.366-1.406,2.318-2.53,2.827l-0.015,0.008l0,0l-0.015,0.009
		l-0.029,0.009l-0.015,0.009l-0.008,0.004l-0.006,0.004l-0.016,0.004l-0.039,0.017l-0.004,0.004l0,0l0,0l0,0l-0.015,0.004
		l-0.029,0.013l-0.015,0.009h-0.009l-0.008,0.005l-0.016,0.004l-0.014,0.008l-0.015,0.009h-0.004l-0.011,0.004l-0.016,0.004
		c-1.065,0.317-2.255,0.48-3.444,0.48c-0.374,0-0.745-0.017-1.114-0.047c1.409-0.12,2.762-0.467,3.852-1.047
		c1.082-0.575,2.129-1.527,2.055-2.767c-0.125-1.972-0.426-7.165-2.537-8.22c-2.082-1.039-3.249-1.757-2.654-2.556H10.102z"/>
	<path fill-rule="evenodd" clip-rule="evenodd" fill="#967B62" d="M10.243,19.587c-1.654,0-3.309-0.367-4.571-1.093
		c-0.997-0.576-1.961-1.527-1.89-2.767c0.113-1.974,1.682-7.207,3.604-8.316C9.344,6.28,10.227,5.644,9.67,4.922h0.233
		c0.553,0.893,0.545,1.348-2.011,2.823c-1.919,1.108-1.947,6.009-2.06,7.982c-0.071,1.239,0.893,2.19,1.893,2.767
		c0.999,0.576,2.247,0.927,3.544,1.044C10.93,19.57,10.587,19.587,10.243,19.587z"/>
	<path fill-rule="evenodd" clip-rule="evenodd" fill="#B19377" d="M9.778,1.369c-0.542,0-1.087,0.119-1.502,0.358
		C7.949,1.916,7.631,2.229,7.654,2.636c0.038,0.648,0.553,2.37,1.185,2.735c0.647,0.374,0.497,0.63,0.313,0.859h1.256
		c-0.186-0.229-0.335-0.485,0.311-0.859c0.629-0.365,1.148-2.086,1.184-2.735c0.024-0.407-0.293-0.72-0.621-0.908
		C10.867,1.488,10.323,1.369,9.778,1.369z"/>
	<path fill-rule="evenodd" clip-rule="evenodd" fill="#C7A585" d="M10.408,6.23c-0.186-0.229-0.335-0.485,0.311-0.859
		c0.01-0.006,0.021-0.012,0.029-0.019c0.011-0.006,0.021-0.013,0.029-0.019c0.011-0.008,0.021-0.016,0.029-0.023
		c0.011-0.008,0.019-0.015,0.029-0.022c0.011-0.009,0.019-0.019,0.029-0.027c0.43-0.396,0.753-1.309,0.901-1.878l0.012-0.048
		l0.014-0.05l0.01-0.046l0.013-0.048l0.011-0.048l0.008-0.043V3.097l0.011-0.044l0,0l0.009-0.044l0,0l0.008-0.042l0,0
		c0.002-0.015,0.007-0.029,0.009-0.044l0,0l0.006-0.04l0,0c0.002-0.012,0.004-0.027,0.006-0.04l0,0l0.005-0.038l0,0
		c0.002-0.012,0.004-0.024,0.006-0.037l0,0c0-0.013,0.002-0.023,0.002-0.036l0,0c0.002-0.01,0.004-0.023,0.004-0.033l0,0
		c0.002-0.01,0.002-0.021,0.002-0.033c0.002-0.01,0.004-0.021,0.004-0.031l0,0V2.617l0,0V2.598l0,0c0-0.007,0-0.013,0-0.019l0,0
		c0-0.006,0-0.012,0-0.019l0,0V2.544l0,0c-0.002-0.006-0.002-0.013-0.004-0.019l0,0c0-0.006,0-0.013,0-0.019l0,0
		c-0.002-0.007-0.002-0.013-0.002-0.017l0,0c-0.049-0.342-0.335-0.597-0.615-0.762l-0.021-0.01L11.26,1.715l-0.017-0.01l0,0
		l-0.02-0.009l-0.002-0.002l0,0l0,0l-0.019-0.01l0,0l0,0h-0.002V1.682l0,0l0,0l0,0l0,0h-0.002l0,0l0,0l0,0l0,0l0,0l0,0l0,0h-0.002
		V1.68l0,0l0,0h-0.002l0,0l0,0l0,0l0,0l0,0l0,0l0,0h-0.003l0,0l0,0l0,0V1.678l0,0l0,0H11.19l0,0l0,0l0,0V1.676l0,0l0,0l0,0h-0.002
		l0,0l0,0l0,0l0,0l0,0l0,0h-0.002l0,0l0,0l0,0l-0.002-0.002l0,0l0,0l0,0l0,0l0,0l0,0h-0.002l0,0l0,0l-0.002-0.002l-0.02-0.009l0,0
		l-0.017-0.008l-0.004-0.002l0,0l-0.002-0.002l-0.017-0.008l0,0l-0.021-0.009h-0.002l0,0l-0.002-0.002L11.093,1.63l-0.009-0.004
		l-0.006-0.002l0,0l-0.004-0.002l-0.011-0.004L11.06,1.615l-0.002-0.002h-0.002l-0.005-0.002l-0.015-0.007l0,0l0,0l0,0l0,0
		l-0.004-0.002l-0.011-0.004l-0.004-0.002l-0.004-0.002h-0.003h-0.004L11.003,1.59h-0.006V1.588h-0.005l-0.004-0.002
		c-0.346-0.104-0.73-0.156-1.116-0.156c-0.121,0-0.242,0.006-0.361,0.017c0.457,0.038,0.895,0.15,1.248,0.338
		c0.351,0.188,0.69,0.494,0.666,0.897c-0.04,0.639-0.139,2.323-0.822,2.663c-0.674,0.337-0.49,0.626-0.299,0.886H10.408z"/>
	<path fill-rule="evenodd" clip-rule="evenodd" fill="#967B62" d="M9.891,1.419c-0.537,0-1.073,0.119-1.481,0.357
		C8.086,1.961,7.775,2.271,7.796,2.671c0.037,0.641,0.546,2.335,1.168,2.695c0.634,0.368,0.49,0.63,0.311,0.864h0.075
		C9.53,5.94,9.958,5.736,9.129,5.258C8.508,4.899,8.5,3.312,8.461,2.671c-0.022-0.4,0.291-0.709,0.611-0.895
		c0.326-0.188,0.73-0.301,1.149-0.34C10.112,1.425,10.001,1.419,9.891,1.419z"/>
	<path fill-rule="evenodd" clip-rule="evenodd" fill="#C7A585" d="M11.268,1.703c-0.833-0.48-2.18-0.482-3.012,0
		c-0.831,0.479-0.833,1.258,0,1.738c0.833,0.479,2.18,0.479,3.012,0C12.101,2.961,12.099,2.183,11.268,1.703z"/>
	<path fill-rule="evenodd" clip-rule="evenodd" fill="#967B62" d="M10.884,1.922c-0.62-0.357-1.625-0.357-2.248,0
		c-0.62,0.359-0.62,0.941,0,1.298c0.622,0.358,1.628,0.358,2.248,0C11.506,2.863,11.504,2.281,10.884,1.922z"/>
	<path fill-rule="evenodd" clip-rule="evenodd" fill="#2C3E50" d="M10.423,5.544v0.098V5.638V5.634V5.629l-0.002-0.006V5.619V5.617
		L10.419,5.61V5.606V5.603l-0.002-0.004V5.592L10.415,5.59l-0.002-0.006V5.579l-0.002-0.004V5.571l-0.002-0.004l-0.002-0.004
		l-0.002-0.004V5.554L10.423,5.544L10.423,5.544z M9.167,5.565v0.002L9.163,5.571v0.004L9.161,5.579v0.004L9.159,5.59L9.156,5.592
		v0.006v0.004L9.154,5.606V5.61v0.006L9.152,5.619v0.005v0.006v0.004v0.004v0.004V5.554L9.167,5.565z"/>
	<polygon fill-rule="evenodd" clip-rule="evenodd" fill="#2C3E50" points="10.423,5.544 10.423,5.65 10.423,5.646 10.423,5.642 
		10.423,5.544 	"/>
	<polygon fill-rule="evenodd" clip-rule="evenodd" fill="#2C3E50" points="9.152,5.554 9.152,5.642 9.152,5.646 9.152,5.65 
		9.152,5.554 	"/>
	<polygon fill-rule="evenodd" clip-rule="evenodd" fill="#2C3E50" points="8.946,6.742 8.925,6.729 8.904,6.716 8.883,6.702 
		8.864,6.689 8.846,6.675 8.827,6.66 8.81,6.646 8.793,6.633 8.777,6.619 8.762,6.604 8.748,6.589 8.733,6.574 8.718,6.558 
		8.706,6.543 8.695,6.527 8.683,6.512 8.672,6.496 8.664,6.48 8.654,6.464 8.645,6.449 8.637,6.433 8.629,6.416 8.623,6.401 
		8.616,6.385 8.612,6.368 8.607,6.351 8.604,6.335 8.602,6.318 8.6,6.301 8.597,6.285 8.595,6.268 8.595,5.16 8.612,5.179 
		8.614,5.179 8.616,5.193 8.623,5.21 8.629,5.225 8.637,5.241 8.645,5.258 8.654,5.274 8.664,5.29 8.672,5.306 8.683,5.321 
		8.695,5.337 8.706,5.352 8.718,5.366 8.733,5.383 8.748,5.398 8.762,5.413 8.777,5.427 8.793,5.442 8.81,5.456 8.827,5.471 
		8.846,5.483 8.864,5.498 8.883,5.513 8.904,5.525 8.925,5.538 8.946,5.55 8.969,5.563 8.992,5.575 9.015,5.587 9.038,5.598 
		9.061,5.608 9.085,5.619 9.108,5.629 9.133,5.64 9.161,5.648 9.186,5.657 9.211,5.665 9.236,5.673 9.263,5.681 9.29,5.688 
		9.315,5.696 9.342,5.702 9.369,5.707 9.396,5.713 9.426,5.719 9.453,5.726 9.482,5.728 9.509,5.734 9.536,5.736 9.565,5.74 
		9.592,5.742 9.622,5.747 9.651,5.749 9.678,5.75 9.708,5.75 9.737,5.752 9.766,5.752 9.793,5.752 9.822,5.752 9.851,5.752 
		9.878,5.75 9.907,5.75 9.937,5.749 9.966,5.747 9.995,5.742 10.022,5.74 10.049,5.736 10.079,5.734 10.108,5.728 10.135,5.726 
		10.162,5.719 10.189,5.713 10.216,5.707 10.243,5.702 10.272,5.696 10.298,5.688 10.325,5.681 10.35,5.673 10.377,5.665 
		10.402,5.657 10.427,5.648 10.452,5.64 10.477,5.629 10.502,5.619 10.525,5.608 10.55,5.598 10.573,5.587 10.596,5.575 
		10.619,5.563 10.642,5.55 10.661,5.538 10.684,5.525 10.703,5.513 10.724,5.498 10.742,5.483 10.759,5.471 10.777,5.456 
		10.794,5.442 10.811,5.427 10.826,5.413 10.84,5.398 10.855,5.383 10.867,5.366 10.88,5.352 10.892,5.337 10.905,5.321 
		10.916,5.306 10.923,5.29 10.934,5.274 10.942,5.258 10.951,5.241 10.957,5.225 10.963,5.21 10.97,5.193 10.976,5.177 10.98,5.16 
		10.982,5.146 10.984,5.133 10.99,5.127 10.99,6.268 10.99,6.285 10.988,6.301 10.986,6.318 10.982,6.335 10.98,6.351 10.976,6.368 
		10.97,6.385 10.963,6.401 10.957,6.416 10.951,6.433 10.942,6.449 10.934,6.464 10.923,6.48 10.916,6.496 10.905,6.512 
		10.892,6.527 10.88,6.543 10.867,6.558 10.855,6.574 10.84,6.589 10.826,6.604 10.811,6.619 10.794,6.633 10.777,6.646 
		10.759,6.66 10.742,6.675 10.724,6.689 10.703,6.702 10.684,6.716 10.661,6.729 10.642,6.742 10.619,6.754 10.596,6.765 
		10.573,6.777 10.55,6.787 10.525,6.8 10.502,6.811 10.477,6.818 10.452,6.829 10.427,6.839 10.402,6.848 10.377,6.856 10.35,6.865 
		10.325,6.871 10.298,6.879 10.272,6.885 10.243,6.894 10.216,6.9 10.189,6.904 10.162,6.91 10.135,6.915 10.108,6.921 
		10.079,6.923 10.049,6.927 10.022,6.931 9.995,6.934 9.966,6.938 9.937,6.938 9.907,6.941 9.878,6.941 9.851,6.944 9.822,6.944 
		9.793,6.944 9.766,6.944 9.737,6.944 9.708,6.941 9.678,6.941 9.651,6.938 9.622,6.938 9.592,6.934 9.565,6.931 9.536,6.927 
		9.509,6.923 9.482,6.921 9.453,6.915 9.426,6.91 9.396,6.904 9.369,6.9 9.342,6.894 9.315,6.885 9.29,6.879 9.263,6.871 
		9.236,6.865 9.211,6.856 9.186,6.848 9.161,6.839 9.133,6.829 9.108,6.818 9.085,6.811 9.061,6.8 9.038,6.787 9.015,6.777 
		8.992,6.765 8.969,6.754 	"/>
	<path fill-rule="evenodd" clip-rule="evenodd" fill="#415A73" d="M9.793,5.752c-0.307,0-0.611-0.068-0.847-0.202
		C8.764,5.446,8.654,5.317,8.614,5.179c0.08,0.09,0.215,0.161,0.382,0.211C9.027,5.415,9.063,5.44,9.1,5.462
		c0.094,0.052,0.203,0.094,0.317,0.121c0.121,0.029,0.249,0.044,0.376,0.044c0.129,0,0.256-0.015,0.375-0.044
		c0.117-0.027,0.225-0.069,0.319-0.121c0.05-0.031,0.096-0.064,0.133-0.098c0.152-0.056,0.277-0.129,0.355-0.221l0.008-0.01
		c-0.027,0.152-0.139,0.3-0.342,0.417C10.408,5.684,10.099,5.752,9.793,5.752z"/>
	<path fill-rule="evenodd" clip-rule="evenodd" fill="#75624F" d="M10.022,11.718v1.306c0.396,0.013,0.72,0.051,0.97,0.108
		c0.249,0.059,0.451,0.184,0.603,0.372c0.155,0.188,0.23,0.465,0.23,0.832c0,0.375-0.055,0.672-0.166,0.885
		s-0.285,0.365-0.519,0.457c-0.235,0.096-0.557,0.15-0.958,0.169h-0.161v0.505H9.5v-0.505c-0.273,0-0.52-0.021-0.736-0.063
		c-0.215-0.044-0.401-0.115-0.559-0.22c-0.159-0.104-0.284-0.248-0.372-0.434c-0.085-0.186-0.129-0.418-0.129-0.692l-0.006-0.172
		h0.826c0,0.207,0.019,0.367,0.052,0.48c0.034,0.112,0.088,0.191,0.163,0.244c0.076,0.053,0.159,0.085,0.255,0.099
		c0.094,0.014,0.265,0.028,0.507,0.043V13.71c-0.319-0.021-0.573-0.048-0.762-0.079c-0.189-0.032-0.358-0.093-0.509-0.182
		c-0.152-0.089-0.269-0.224-0.352-0.4c-0.082-0.177-0.124-0.417-0.124-0.712c0-0.367,0.071-0.648,0.217-0.845
		c0.144-0.196,0.342-0.33,0.592-0.398c0.25-0.069,0.563-0.103,0.937-0.103v-0.444h0.522v0.444c0.417,0.017,0.741,0.059,0.972,0.125
		c0.228,0.067,0.405,0.196,0.526,0.396c0.123,0.198,0.184,0.497,0.184,0.896h-0.81c-0.004-0.027-0.004-0.061-0.004-0.098
		c0-0.234-0.052-0.389-0.154-0.47c-0.1-0.083-0.27-0.123-0.509-0.123H10.022L10.022,11.718z M10.022,13.71v1.423h0.161
		c0.273,0,0.476-0.051,0.609-0.149c0.134-0.099,0.198-0.284,0.198-0.552c0-0.211-0.038-0.362-0.112-0.463
		c-0.073-0.098-0.169-0.158-0.288-0.187C10.469,13.754,10.281,13.733,10.022,13.71L10.022,13.71z M9.5,11.718H9.374
		c-0.186,0.002-0.33,0.015-0.438,0.04c-0.107,0.022-0.194,0.078-0.257,0.162c-0.064,0.086-0.096,0.222-0.096,0.403
		c0,0.26,0.078,0.439,0.228,0.537c0.155,0.097,0.382,0.145,0.69,0.145V11.718z"/>
	<line fill="none" x1="11.356" y1="12.689" x2="11.309" y2="12.734"/>
</g>
</svg>
