<?xml version="1.0" encoding="utf-8"?>
<!-- Generator: Adobe Illustrator 16.0.0, SVG Export Plug-In . SVG Version: 6.00 Build 0)  -->
<!DOCTYPE svg PUBLIC "-//W3C//DTD SVG 1.1//EN" "http://www.w3.org/Graphics/SVG/1.1/DTD/svg11.dtd">
<svg version="1.1" id="Layer_1" xmlns="http://www.w3.org/2000/svg" xmlns:xlink="http://www.w3.org/1999/xlink" x="0px" y="0px"
	 width="186px" height="162.333px" viewBox="0 0 186 162.333" enable-background="new 0 0 186 162.333" xml:space="preserve">
<g>
	<g>
		<path opacity="0.3" fill="#010101" d="M164.063,83.656l-37.326-21.558h-3.439l-19.921,11.511v1.979l37.325,21.56h3.437
			l19.925-11.507V83.656z"/>
		<polygon fill="#AB5426" points="163.717,85.33 144.019,96.703 143.499,95.039 163.717,84.332 		"/>
		<polygon fill="#D66C27" points="144.019,96.703 140.622,96.703 139.95,94.441 144.019,94.97 		"/>
		<polygon fill="#F78E25" points="140.622,96.703 103.713,75.398 103.713,74.406 140.883,95.144 140.622,95.703 		"/>
		<g>
			<path fill="#FBAF54" d="M163.717,82.37L126.81,61.066h-3.388l-19.709,11.373v1.967l36.908,21.297h3.397l19.698-11.371V82.37z"/>
			<path fill="#FAE979" d="M128.656,69.593l-5.251-3.025h-1.658l-3.305,1.902v0.963l5.255,3.028h1.661l3.298-1.907V69.593z"/>
			<path fill="#E6E1DD" d="M120.916,74.107l-5.911-3.411h-0.396l-0.791,0.448l-0.004,0.236l5.924,3.408h0.389l0.79-0.453V74.107z"/>
			<path fill="#E6E1DD" d="M124.395,82.16l-14.632-8.445h-0.384l-0.796,0.461V74.4l14.619,8.441h0.403l0.789-0.451V82.16z"/>
			<path fill="#E6E1DD" d="M129.625,79.14l-5.915-3.412h-0.393l-0.784,0.449v0.228l5.908,3.411h0.395l0.789-0.451V79.14z"/>
			<path fill="#E6E1DD" d="M115.803,74.519l-3.789-2.186h-0.25l-0.514,0.287v0.151l3.785,2.181h0.265l0.496-0.291L115.803,74.519z"
				/>
			<path fill="#E6E1DD" d="M121.033,77.54l-3.786-2.187h-0.258l-0.498,0.287v0.149l3.777,2.188h0.256l0.509-0.297V77.54z"/>
			<path fill="#E6E1DD" d="M138.335,84.162l-5.918-3.408h-0.394l-0.789,0.449v0.232l5.919,3.412h0.396l0.785-0.449V84.162z"/>
			<path fill="#E6E1DD" d="M147.042,89.195l-5.908-3.416h-0.398l-0.785,0.455v0.225l5.904,3.421h0.402l0.785-0.458V89.195z"/>
			<path fill="#F15E54" d="M154.754,79.566l-1.785-1.025h-2.529l-1.774,1.025v1.462l1.774,1.034h2.529l1.785-1.034V79.566z"/>
			<path fill="#FAE979" d="M158.167,81.544l-1.791-1.033h-2.514l-1.785,1.033v1.453l1.785,1.029h2.514l1.791-1.029V81.544z"/>
		</g>
	</g>
	<g>
		<polygon opacity="0.3" fill="#010101" points="41.205,58.322 29.433,58.322 21.164,63.125 21.164,69.918 29.433,74.712 
			41.205,74.712 49.49,69.918 49.49,63.125 		"/>
		<g>
			<polygon fill="#B5AFA8" points="41.151,71.823 34.368,71.116 29.48,71.491 30.142,73.189 40.512,73.189 			"/>
			<polygon fill="#A49D95" points="40.512,72.435 43.059,68.972 47.82,68.226 47.82,68.972 40.512,73.189 			"/>
			<polygon fill="#D9D2C8" points="30.142,72.435 28.11,69.671 22.819,68.226 22.819,68.972 30.142,73.189 			"/>
			<polygon fill="#E6E1DD" points="40.512,58.035 30.142,58.035 22.819,62.25 22.819,68.226 30.142,72.435 40.512,72.435 
				47.82,68.226 47.82,62.25 			"/>
			<polygon fill="#A49D95" points="46.668,62.535 46.668,63.455 40.041,59.604 30.61,59.604 23.953,63.455 23.953,62.535 
				30.61,58.679 40.041,58.679 			"/>
			<polygon fill="#D9D2C8" points="46.668,63.455 46.668,67.97 40.007,71.804 30.61,71.804 23.962,67.949 23.953,63.455 
				30.61,59.604 40.041,59.604 			"/>
		</g>
		<polygon fill="#8B1E1B" points="49.39,66.103 21.258,66.103 22.819,68.226 30.142,72.435 40.512,72.435 47.82,68.226 		"/>
		<polygon fill="#8B1E1B" points="49.39,31.491 49.39,66.103 41.151,70.861 38.232,34.492 		"/>
		<polygon fill="#AB2924" points="41.151,36.261 41.151,70.861 29.48,70.861 21.258,31.491 		"/>
		<polygon fill="#C84130" points="29.48,36.261 29.48,70.861 21.258,66.103 21.258,50.922 23.953,51.181 22.752,45.149 
			21.258,41.774 21.258,31.491 		"/>
		<polygon fill="#C84130" points="22.819,27.989 31.64,30.918 29.48,36.261 23.906,35.906 21.258,31.491 		"/>
		<polygon fill="#8B1E1B" points="46.398,28.41 49.421,31.491 49.421,24.74 47.82,22.035 		"/>
		<polygon fill="#8B1E1B" points="47.82,27.989 38.982,30.918 41.151,36.261 46.762,35.906 49.39,31.491 		"/>
		<polygon fill="#AB2924" points="40.512,32.228 35.79,30.425 30.142,32.228 29.48,36.261 35.866,38.247 41.151,36.261 		"/>
		<polygon fill="#C84130" points="24.251,28.41 21.258,31.491 21.258,24.74 22.819,22.035 		"/>
		<g>
			<polygon fill="#B5AFA8" points="41.151,30.877 34.368,30.135 29.48,30.519 30.142,32.228 40.512,32.228 			"/>
			<polygon fill="#A49D95" points="40.512,31.491 43.059,27.989 47.82,27.248 47.82,27.989 40.512,32.228 			"/>
			<polygon fill="#D9D2C8" points="30.142,31.491 28.11,28.724 22.819,27.248 22.819,27.989 30.142,32.228 			"/>
			<polygon fill="#E6E1DD" points="40.512,17.073 30.142,17.073 22.819,21.294 22.819,27.248 30.142,31.491 40.512,31.491 
				47.82,27.248 47.82,21.294 			"/>
			<polygon fill="#A49D95" points="46.668,21.57 46.668,22.479 40.041,18.649 30.61,18.649 23.953,22.479 23.953,21.57 
				30.61,17.742 40.041,17.742 			"/>
			<polygon fill="#D9D2C8" points="46.668,22.479 46.668,26.99 40.007,30.827 30.61,30.827 23.962,26.975 23.953,22.479 
				30.61,18.649 40.041,18.649 			"/>
			<g>
				<polygon fill="#A49D95" points="34.087,26.125 34.087,26.606 32.599,25.714 30.507,25.714 27.349,27.55 27.349,27.089 
					30.507,25.252 32.599,25.252 				"/>
				<polygon fill="#211A1A" points="34.087,26.606 34.087,27.304 30.925,29.14 28.819,29.14 27.349,28.275 27.349,27.55 
					30.507,25.714 32.599,25.714 				"/>
			</g>
		</g>
		<g>
			<polygon fill="#B5AFA8" points="41.151,52.406 47.249,51.681 41.151,61.568 38.504,56.995 			"/>
			<polygon fill="#E0DEDC" points="41.151,61.568 29.48,58.859 27.52,53.24 29.48,49.711 41.151,52.406 			"/>
			<polygon fill="#FFFFFF" points="29.48,58.859 21.258,50.922 21.258,41.774 29.48,49.711 			"/>
		</g>
	</g>
	<g>
		<polygon opacity="0.3" fill="#010101" points="18.475,121.35 56.917,143.507 57.676,143.952 57.623,144.064 58.998,144.86 
			59.696,145.263 59.338,146.046 58.124,146.746 56.773,146.955 56.071,146.552 54.696,145.757 54.497,145.791 53.732,145.353 
			15.295,123.196 10.958,118.886 		"/>
		<g>
			<polygon fill="#846F6A" points="12.68,118.132 13,117.757 10.958,117.225 			"/>
			<polygon fill="#413531" points="12.452,118.712 12.626,118.242 10.958,117.225 			"/>
			<polygon fill="#695851" points="12.452,118.341 12.639,118.341 12.68,117.947 10.958,117.225 			"/>
			<polygon fill="#EFC58B" points="15.948,122.201 17.738,120.842 17.787,119.014 15.875,118.693 12.68,117.947 12.452,118.341 
				14.861,120.486 			"/>
			<polygon fill="#C69C5C" points="15.948,122.201 15.948,120.957 12.452,118.341 12.452,118.712 			"/>
			<polygon fill="#F6E6BB" points="16.711,119.634 17.787,119.014 13,117.757 12.68,117.947 			"/>
		</g>
		<g>
			<polygon fill="#7A5C57" points="49.85,140.525 50.613,139.21 51.686,138.585 52.451,139.031 52.451,140.272 51.686,141.591 
				50.613,142.213 49.85,141.775 			"/>
			<polygon fill="#FAE979" points="50.613,139.21 51.686,138.585 17.787,119.014 16.711,119.634 50.471,139.228 			"/>
			<polygon fill="#E3BD5E" points="49.85,140.525 50.613,139.21 16.711,119.634 15.948,120.957 49.715,140.589 			"/>
			<polygon fill="#CC934C" points="49.85,141.775 49.85,140.525 15.948,120.957 15.948,122.201 			"/>
		</g>
		<g>
			<polygon fill="#D9D2C8" points="54.361,143.132 55.118,141.814 56.194,141.189 56.957,141.63 56.957,142.871 56.194,144.194 
				55.118,144.816 54.361,144.374 			"/>
			<polygon fill="#E6E1DD" points="55.118,141.814 56.194,141.189 51.686,138.585 50.613,139.208 54.976,141.83 			"/>
			<polygon fill="#D1D2D2" points="54.361,143.132 55.118,141.814 50.613,139.208 49.85,140.525 54.221,143.188 			"/>
			<polygon fill="#A49D95" points="54.361,144.374 54.361,143.132 49.85,140.525 49.85,141.773 			"/>
		</g>
		<g>
			<polygon fill="#C36B5F" points="56.641,144.375 57.338,143.162 58.333,142.594 59.03,143.003 59.03,144.141 58.333,145.353 
				57.338,145.927 56.641,145.521 			"/>
			<polygon fill="#F8A490" points="57.338,143.162 58.333,142.594 56.259,141.4 55.268,141.971 57.209,143.179 			"/>
			<polygon fill="#D57B71" points="56.641,144.375 57.338,143.162 55.268,141.971 54.567,143.185 56.516,144.437 			"/>
			<polygon fill="#A74A5D" points="56.641,145.521 56.641,144.375 54.567,143.185 54.567,144.329 			"/>
		</g>
		<g>
			<polygon fill="#8DCCCB" points="46.736,136.975 47.815,136.353 46.159,135.394 45.081,136.022 46.598,136.99 			"/>
			<polygon fill="#399998" points="45.978,138.293 46.736,136.975 45.081,136.022 44.321,137.337 45.842,138.351 			"/>
			<polygon fill="#3F666A" points="45.978,139.539 45.978,138.293 44.321,137.337 44.321,138.577 			"/>
		</g>
	</g>
	<g>
		<polygon opacity="0.3" fill="#010101" points="40.799,124.925 79.24,147.083 80,147.525 79.944,147.64 81.321,148.436 
			82.021,148.837 81.663,149.62 80.448,150.319 79.092,150.531 78.395,150.125 77.019,149.333 76.819,149.363 76.057,148.923 
			37.619,126.769 33.282,122.458 		"/>
		<g>
			<polygon fill="#846F6A" points="35.004,121.705 35.327,121.333 33.282,120.797 			"/>
			<polygon fill="#413531" points="34.776,122.285 34.945,121.82 33.282,120.797 			"/>
			<polygon fill="#695851" points="34.776,121.912 34.963,121.912 35.004,121.521 33.282,120.797 			"/>
			<polygon fill="#EFC58B" points="38.27,125.773 40.062,124.417 40.112,122.591 38.196,122.265 35.004,121.521 34.776,121.912 
				37.183,124.06 			"/>
			<polygon fill="#C69C5C" points="38.27,125.773 38.27,124.531 34.776,121.912 34.776,122.285 			"/>
			<polygon fill="#F6E6BB" points="39.031,123.207 40.112,122.591 35.327,121.333 35.004,121.521 			"/>
		</g>
		<g>
			<polygon fill="#7A5C57" points="72.175,144.103 72.935,142.783 74.013,142.159 74.777,142.601 74.777,143.845 74.013,145.164 
				72.935,145.787 72.175,145.347 			"/>
			<polygon fill="#D18067" points="72.935,142.783 74.013,142.159 40.112,122.591 39.031,123.207 72.795,142.804 			"/>
			<polygon fill="#954F3A" points="72.175,144.103 72.935,142.783 39.031,123.207 38.27,124.531 72.039,144.162 			"/>
			<polygon fill="#6A3222" points="72.175,145.347 72.175,144.103 38.27,124.531 38.27,125.773 			"/>
		</g>
		<g>
			<polygon fill="#D9D2C8" points="76.685,146.705 77.442,145.388 78.519,144.763 79.284,145.205 79.284,146.45 78.519,147.767 
				77.442,148.387 76.685,147.949 			"/>
			<polygon fill="#E6E1DD" points="77.442,145.388 78.519,144.763 74.013,142.159 72.935,142.781 77.297,145.402 			"/>
			<polygon fill="#D1D2D2" points="76.685,146.705 77.442,145.388 72.935,142.781 72.175,144.103 76.546,146.763 			"/>
			<polygon fill="#A49D95" points="76.685,147.949 76.685,146.705 72.175,144.103 72.175,145.345 			"/>
		</g>
		<g>
			<polygon fill="#C36B5F" points="78.963,147.953 79.663,146.737 80.657,146.168 81.358,146.572 81.358,147.716 80.657,148.927 
				79.663,149.501 78.963,149.094 			"/>
			<polygon fill="#F8A490" points="79.663,146.737 80.657,146.168 78.583,144.976 77.592,145.544 79.532,146.757 			"/>
			<polygon fill="#D57B71" points="78.963,147.953 79.663,146.737 77.592,145.544 76.891,146.757 78.839,148.006 			"/>
			<polygon fill="#A74A5D" points="78.963,149.094 78.963,147.953 76.891,146.757 76.891,147.904 			"/>
		</g>
		<g>
			<polygon fill="#FDD293" points="69.063,140.548 70.14,139.927 68.482,138.97 67.405,139.591 68.92,140.564 			"/>
			<polygon fill="#FBAF54" points="68.301,141.871 69.063,140.548 67.405,139.591 66.645,140.91 68.167,141.928 			"/>
			<polygon fill="#F78E25" points="68.301,143.113 68.301,141.871 66.645,140.91 66.645,142.157 			"/>
		</g>
	</g>
	<g>
		<g>
			<polygon opacity="0.3" fill="#010101" points="172.952,123.591 165.946,119.546 142.703,132.966 143.35,133.338 141.778,134.247 
				139.922,137.218 139.977,137.249 139.471,137.542 139.012,137.812 137.612,138.959 137.055,140.072 137.059,140.072 
				137.057,140.072 137.067,140.068 138.982,139.74 140.958,138.917 141.417,138.65 141.907,138.365 142.038,138.439 
				147.186,137.365 148.756,136.46 149.71,137.011 			"/>
			<g>
				<polygon fill="#FFD46B" points="173.032,120.214 171.966,121.264 171.535,120.105 170.116,118.302 171.758,118.007 				"/>
				<polygon fill="#CC934C" points="173.032,122.292 172.188,122.782 171.573,121.264 172.188,120.703 173.032,120.214 				"/>
				<path fill="#E3BD5E" d="M170.915,118.497l-5.402-3.119l-1.273,0.735v2.078l1.273,2.207l5.402,3.119l1.273-0.735v-2.079
					L170.915,118.497z"/>
				<polygon fill="#FAE979" points="170.915,118.497 165.512,115.377 166.358,114.892 171.758,118.007 				"/>
			</g>
			<g>
				<path fill="#695851" d="M149.713,136.144l-5.595-3.23l-1.413-2.449v-2.307l1.413-0.818l5.595,3.234l1.414,2.447v2.305
					L149.713,136.144z"/>
				<polygon fill="#846F6A" points="170.883,118.351 161.263,125.687 149.713,130.574 144.119,127.339 165.288,115.121 				"/>
				<polygon fill="#A39685" points="168.212,118.589 159.294,123.738 158.028,123.008 166.95,117.859 				"/>
				<polygon fill="#362C29" points="172.297,123.105 151.127,135.326 151.127,133.021 159.92,126.506 172.297,120.799 				"/>
				
					<rect x="148.783" y="124.273" transform="matrix(0.866 -0.5 0.5 0.866 -41.2719 97.3359)" fill="#695851" width="24.445" height="2.826"/>
			</g>
			<g>
				<polygon fill="#FFD46B" points="150.892,132.998 149.827,134.048 149.395,132.886 147.975,131.083 149.614,130.791 				"/>
				<polygon fill="#CC934C" points="150.892,135.078 150.045,135.565 149.432,134.048 150.045,133.483 150.892,132.998 				"/>
				<path fill="#E3BD5E" d="M148.772,131.278l-5.399-3.12l-1.274,0.736v2.086l1.274,2.201l5.399,3.119l1.273-0.735v-2.082
					L148.772,131.278z"/>
				<polygon fill="#FAE979" points="148.772,131.278 143.373,128.158 144.217,127.671 149.614,130.791 				"/>
			</g>
			<g>
				<g>
					<polygon fill="#CC934C" points="148.774,134.83 147.186,135.745 145.933,133.275 148.774,132.748 					"/>
					<polygon fill="#E3BD5E" points="142.038,136.818 139.922,135.595 139.922,133.515 143.42,133.905 					"/>
					<polygon fill="#FFD46B" points="147.186,135.745 142.038,136.818 142.038,134.736 144.119,133.082 147.186,133.666 					"/>
					<polygon fill="#FAE979" points="143.365,129.625 141.778,130.542 139.922,133.515 142.038,134.736 147.186,133.666 
						148.774,132.748 					"/>
				</g>
				<g>
					<g>
						<polygon fill="#E3BD5E" points="139.434,134.906 137.907,136.174 137.055,137.577 140.088,134.878 139.897,134.638 						"/>
						<polygon fill="#E3BD5E" points="137.055,137.577 138.693,137.535 140.555,136.831 141.016,136.566 140.901,136.279 						"/>
						<polygon fill="#FFF3AC" points="139.897,134.638 138.23,135.988 137.055,137.577 138.614,136.315 139.096,136.221 
							139.635,135.945 140.109,135.468 140.756,135.368 141.315,134.567 140.659,134.196 						"/>
						<polygon fill="#FAE979" points="140.549,135.011 138.69,136.25 137.055,137.577 138.35,137.279 138.881,136.908 
							139.356,136.812 140.092,136.585 140.463,136.275 141.014,135.978 141.778,135.368 141.315,134.567 						"/>
						<polygon fill="#E3BD5E" points="137.057,137.577 139.018,137.346 139.018,137.346 141.016,136.566 141.779,136.123 
							141.778,135.368 141.014,135.81 139.018,136.816 						"/>
					</g>
				</g>
			</g>
		</g>
		<g>
			<polygon opacity="0.3" fill="#010101" points="160.393,140.132 148.662,146.91 155.666,150.953 167.399,144.18 			"/>
			<g>
				<path fill="#695851" d="M156.276,149.777l-5.596-3.233l-1.414-2.445v-2.31l1.414-0.816l5.596,3.23l1.414,2.451v2.307
					L156.276,149.777z"/>
				<polygon fill="#846F6A" points="165.432,138.919 160.813,142.721 156.276,144.203 150.68,140.972 159.836,135.689 				"/>
				<polygon fill="#362C29" points="166.844,143.674 157.69,148.96 157.69,146.654 162.395,143.082 166.844,141.368 				"/>
				
					<rect x="156.275" y="141.37" transform="matrix(0.866 -0.5001 0.5001 0.866 -49.7508 99.9251)" fill="#695851" width="10.571" height="2.83"/>
			</g>
			<g>
				<polygon fill="#FFD46B" points="157.454,146.63 156.388,147.678 155.956,146.519 154.534,144.716 156.178,144.422 				"/>
				<polygon fill="#CC934C" points="157.454,148.708 156.606,149.197 155.995,147.678 156.606,147.119 157.454,146.63 				"/>
				<path fill="#E3BD5E" d="M155.334,144.91l-5.401-3.115l-1.271,0.734v2.081l1.271,2.204l5.401,3.118l1.271-0.735v-2.078
					L155.334,144.91z"/>
				<polygon fill="#FAE979" points="155.334,144.91 149.933,141.794 150.776,141.305 156.178,144.422 				"/>
			</g>
		</g>
	</g>
	<g>
		<g>
			<g>
				<polygon fill="#D1D2D2" points="102.907,142.564 128.946,124.07 153.667,113.253 153.658,117.671 102.907,146.972 				"/>
				<polygon fill="#F4EFE9" points="20.248,98.855 84.724,111.816 95.962,142.564 95.957,146.972 20.248,103.264 				"/>
				<polygon fill="#E0DEDC" points="95.962,142.564 99.143,140.388 102.907,142.564 102.907,146.972 95.957,146.972 				"/>
				<polygon fill="#FFFFFF" points="95.962,142.564 102.907,142.564 153.667,113.253 153.657,109.25 77.95,65.537 71.005,65.539 
					20.252,94.84 20.248,98.855 				"/>
				<polygon fill="#584A44" points="77.627,66.758 71.324,66.756 21.468,95.544 21.468,98.154 24.955,100.162 50.343,104.55 
					86.619,135.761 96.28,141.339 102.581,141.339 152.437,112.554 152.439,109.954 141.885,103.857 90.755,84.175 80.213,68.253 
									"/>
				<g>
					<polygon fill="#413531" points="117.558,126.892 122.018,126.892 126.53,124.288 126.531,121.708 123.37,119.882 
						118.896,119.88 114.395,122.49 114.391,125.064 					"/>
					<path fill="#A39685" d="M121.112,125.227l-2.254-0.007l-1.588-0.912l0.004-1.296l2.543-1.466l2.244-0.006l1.585,0.916
						l0.007,1.302L121.112,125.227L121.112,125.227z M121.233,125.394l2.709-1.559l0.004-1.444l-1.764-1.015l-2.492,0.004
						l-2.709,1.563l0.002,1.439l1.76,1.006L121.233,125.394L121.233,125.394z"/>
				</g>
				<polygon fill="#362C29" points="47.405,82.908 47.405,81.994 48.75,81.218 50.637,81.218 51.987,81.994 51.98,82.912 
					50.639,82.136 48.751,82.151 				"/>
				<polygon fill="#2B627E" points="48.746,83.856 47.405,83.085 47.405,82.91 47.405,82.908 48.751,82.151 50.639,82.136 
					51.98,82.912 51.989,83.091 50.642,83.861 				"/>
				<polygon fill="#4491B9" points="80.213,68.253 24.955,100.162 86.619,135.761 141.885,103.857 				"/>
			</g>
		</g>
		<g>
			<g>
				<polygon opacity="0.3" fill="#010101" points="55.607,95.279 49.969,95.279 45.98,97.582 45.98,100.839 49.969,103.14 
					55.607,103.14 59.596,100.839 59.596,97.582 				"/>
				<polygon fill="#695851" points="51.65,95.935 50.929,96.517 47.813,98.419 47.813,98.57 48.248,99.363 50.358,99.152 
					52.591,98.005 54.481,97.562 54.399,95.559 				"/>
				<polygon fill="#695851" points="54.3,98.005 53.939,99.21 52.968,101.111 52.968,102.072 53.426,102.46 55.024,102.392 
					56.327,100.933 56.675,99.015 56.827,98.183 				"/>
				<polygon fill="#211A1A" points="51.65,95.781 50.929,96.365 48.218,97.601 47.813,98.419 48.248,99.21 50.358,99.003 
					52.591,97.849 54.481,97.404 54.399,95.408 				"/>
				<polygon fill="#B5AFA8" points="49.151,74.182 49.537,78.037 50.87,83.534 50.956,84.675 52.118,89.923 51.65,95.781 
					53.677,96.173 54.757,95.559 54.62,73.957 51.447,72.486 				"/>
				<polygon fill="#211A1A" points="54.3,97.849 53.939,99.059 52.968,100.962 52.968,101.919 53.426,102.305 55.024,102.24 
					56.327,100.781 56.675,98.863 56.827,98.031 				"/>
				<polygon fill="#D9D2C8" points="50.751,74.182 52.897,75.568 53.094,79.343 54.119,86.394 54.119,97.835 55.174,98.796 
					57.426,98.048 57.982,87.84 57.615,84.675 59.596,75.375 58.286,71.682 51.507,71.682 				"/>
				<polygon fill="#F0C7B5" points="42.063,65.251 40.397,65.251 39.188,65.972 38.521,66.193 38.752,66.573 39.23,66.573 
					39.823,66.41 39.221,67.07 37.615,68.032 37.856,68.878 39.127,69.117 41.111,68.585 42.947,66.65 43.5,66.025 43.051,65.179 
									"/>
				<polygon fill="#FFFFFF" points="43.366,64.733 42.063,65.251 42.792,65.691 42.947,66.65 44.393,66.173 44.261,64.662 				"/>
				<polygon fill="#211A1A" points="52.092,53.424 51.041,53.424 50.04,54.399 49.372,56.563 48.096,62.451 47.083,62.655 
					42.64,64.642 43.595,65.283 43.747,66.89 49.813,64.81 51.233,62.672 				"/>
				<polygon fill="#88533C" points="58.661,45.804 59.541,45.804 61.14,47.947 61.554,50.573 59.541,54.009 58.203,52.592 
					57.814,48.073 				"/>
				<polygon fill="#211A1A" points="59.723,69.499 57.743,68.838 57.65,66.691 59.991,66.784 60.662,67.698 				"/>
				<polygon fill="#C8A596" points="57.536,52.255 57.577,54.399 57.577,55.282 56.357,56.452 53.996,57.064 52.858,56.396 
					52.786,53.037 53.952,51.828 57.219,51.718 				"/>
				<polygon fill="#FFFFFF" points="53.079,54.399 54.015,56.63 56.467,55.828 57.474,54.76 57.577,54.399 57.721,54.529 
					57.721,56.63 56.69,58.776 52.477,61.381 51.636,61.09 51.413,55.986 				"/>
				<polygon fill="#362C29" points="60.368,57.465 59.16,56.401 57.721,54.529 56.148,57.823 52.566,60.57 52.203,56.319 
					53.393,54.009 52.598,53.654 51.309,54.507 50.642,56.415 48.493,60.301 48.493,61.903 49.406,63.034 48.823,74.154 
					51.625,75.968 52.068,73.634 52.379,76.177 56.925,76.594 59.896,75.512 59.564,70.984 58.027,67.693 60.161,62.786 				"/>
				<polygon fill="#211A1A" points="52.566,60.57 51.773,63.043 52.448,64.562 52.068,73.634 52.191,64.748 51.447,62.867 				"/>
				<polygon fill="#362C29" points="59.541,46.471 58.898,45.804 57.98,45.804 57.332,46.471 57.332,47.409 57.98,48.073 
					58.898,48.073 59.541,47.409 				"/>
				<polygon fill="#F0C7B5" points="52.33,48.093 51.801,49.191 51.636,50.233 51.829,50.594 51.636,51.175 51.98,54.674 
					53.163,55.282 55.536,54.563 56.4,53.634 56.675,52.745 57.274,52.51 57.601,52.194 58.367,51.692 58.203,48.093 54.05,47.635 
									"/>
				<polygon fill="#9A5E44" points="52.33,48.093 52.537,48.719 54.119,49.633 55.389,49.825 56.163,50.279 56.163,51.073 
					56.409,51.532 56.409,52.592 56.954,51.532 57.577,51.033 58.097,51.154 57.536,52.255 57.54,52.548 59.024,51.997 
					59.723,50.738 59.618,48.553 58.866,46.781 57.386,45.679 55.643,45.388 54.015,45.928 52.876,46.742 				"/>
				<polygon fill="#211A1A" points="58.851,57.821 57.814,59.227 59.723,69.499 60.976,69.968 62.452,69.19 61.646,58.88 
					60.368,57.465 				"/>
				<polygon fill="#211A1A" points="53.717,65.027 54.987,65.135 56.051,64.474 56.69,63.423 56.2,64.756 54.998,65.363 				"/>
			</g>
			<g>
				<polygon fill="#66C7E5" points="53.825,25.901 37.758,15.515 39.395,14.556 55.658,23.946 54.741,24.99 				"/>
				<polygon fill="#397792" points="55.778,30.93 54.015,24.907 55.658,23.946 58.782,29.356 58.221,30.376 				"/>
				<polygon fill="#2E5B78" points="57.145,40.357 57.145,30.311 58.782,29.356 58.782,39.401 				"/>
				<polygon fill="#2E5B78" points="49.901,45.549 48.542,35.829 51.536,34.552 51.536,44.595 				"/>
				<polygon fill="#448AA9" points="57.145,30.311 54.015,24.907 37.758,15.515 34.628,17.319 34.628,27.358 37.758,32.771 
					54.015,42.154 57.145,40.357 				"/>
				<g>
					<g>
						<polygon fill="#2E5B78" points="41.224,27.695 40.184,28.304 38.395,27.278 37.141,25.095 37.141,23.031 38.202,22.428 
							38.202,24.485 39.472,26.656 						"/>
						<polygon fill="#FFFFFF" points="41.428,25.519 41.428,27.579 41.239,27.695 41.224,27.695 39.472,26.656 38.202,24.485 
							38.202,22.428 38.395,22.306 40.184,23.329 						"/>
					</g>
					<g>
						<polygon fill="#2E5B78" points="47.643,31.398 46.592,32.001 44.811,30.981 43.55,28.804 43.55,26.735 44.615,26.133 
							44.615,28.184 45.883,30.363 						"/>
						<polygon fill="#FFFFFF" points="47.855,29.224 47.855,31.277 47.66,31.403 47.643,31.398 45.883,30.363 44.615,28.184 
							44.615,26.133 44.811,26.01 46.592,27.04 						"/>
					</g>
					<g>
						<polygon fill="#2E5B78" points="54.059,35.108 53.018,35.715 51.222,34.683 49.972,32.513 49.972,30.443 51.034,29.833 
							51.034,31.891 52.297,34.068 						"/>
						<polygon fill="#FFFFFF" points="54.271,32.935 54.271,34.984 54.075,35.109 54.059,35.108 52.297,34.068 51.034,31.891 
							51.034,29.833 51.229,29.721 53.018,30.749 						"/>
					</g>
				</g>
				<polygon fill="#448AA9" points="49.901,45.549 45.702,36.648 49.901,39.134 				"/>
			</g>
		</g>
		<g>
			<g>
				<polygon fill="#8DCCCB" points="125.029,43.714 123.551,44.564 73.835,15.88 75.316,15.023 				"/>
				<polygon fill="#3F666A" points="125.029,48.985 123.551,49.836 123.551,44.564 125.029,43.714 				"/>
				<polygon fill="#D1D2D2" points="125.029,112.226 123.551,113.087 123.551,49.836 125.029,48.985 				"/>
				<polygon fill="#399998" points="123.551,44.564 73.835,15.88 73.835,21.151 123.551,49.836 				"/>
				<polygon fill="#FFFFFF" points="73.835,84.396 123.551,113.087 123.551,49.836 73.835,21.151 				"/>
			</g>
			<g>
				<g>
					<polygon fill="#FAE979" points="115.127,52.054 114.108,52.645 104.965,47.364 105.989,46.772 					"/>
					<polygon fill="#CC934C" points="115.127,62.552 114.108,63.14 114.108,52.645 115.127,52.054 					"/>
					<polygon fill="#E3BD5E" points="114.108,52.645 104.965,47.364 104.965,57.861 114.108,63.14 					"/>
				</g>
				<g>
					<polygon fill="#F48271" points="115.127,70.177 114.108,70.767 104.965,65.49 105.989,64.898 					"/>
					<polygon fill="#D93C27" points="115.127,80.675 114.108,81.265 114.108,70.767 115.127,70.177 					"/>
					<polygon fill="#EB5D44" points="114.108,70.767 104.965,65.49 104.965,75.986 114.108,81.265 					"/>
				</g>
				<g>
					<polygon fill="#F2C9DF" points="115.127,88.299 114.108,88.891 104.965,83.611 105.989,83.021 					"/>
					<polygon fill="#9C7A98" points="115.127,98.798 114.108,99.389 114.108,88.891 115.127,88.299 					"/>
					<polygon fill="#CDA8CF" points="114.108,88.891 104.965,83.611 104.965,94.109 114.108,99.389 					"/>
				</g>
				<g>
					<polygon fill="#C1E7F4" points="100.713,90.463 78.122,77.418 78.122,46.948 100.713,59.992 					"/>
					<polygon fill="#F4EFE9" points="100.713,55.502 78.122,42.458 78.122,30.702 100.713,43.742 					"/>
					<g>
						<polygon fill="#FFC656" points="79.551,42.426 82.05,43.868 82.05,41.803 79.551,40.359 						"/>
						<polygon fill="#FFC656" points="82.936,44.38 85.438,45.824 85.438,41.687 82.936,40.249 						"/>
						<polygon fill="#FFC656" points="86.325,46.338 88.823,47.778 88.823,41.903 86.325,40.46 						"/>
						<polygon fill="#CDA8CF" points="89.71,48.292 92.207,49.733 92.207,42.115 89.71,40.669 						"/>
						<polygon fill="#CDA8CF" points="93.097,50.25 95.591,51.69 95.591,41.803 93.097,40.359 						"/>
						<polygon fill="#EB5D44" points="96.486,42.317 96.486,52.203 98.981,53.647 98.981,43.759 						"/>
					</g>
					<g>
						<polygon fill="#FAE979" points="80.481,51.84 79.114,51.052 78.99,51.626 78.99,52.539 79.114,53.26 80.481,54.047 
							80.606,53.471 80.606,52.558 						"/>
						<polygon fill="#CDA8CF" points="80.481,55.577 79.114,54.788 78.99,55.363 78.987,56.274 79.114,56.995 80.481,57.784 
							80.606,57.207 80.606,56.293 						"/>
						<polygon fill="#EB5D44" points="80.481,59.311 79.114,58.521 78.99,59.098 78.99,60.012 79.114,60.73 80.481,61.515 
							80.606,60.944 80.606,60.028 						"/>
					</g>
					<polygon fill="#EB5D44" points="78.122,77.418 85.969,63.458 88.796,65.923 92.701,60.563 96.189,66.244 100.713,59.992 
						100.713,65.191 99.432,86.191 					"/>
					<polygon fill="#CDA8CF" points="78.122,77.418 81.999,64.421 88.485,71.352 95.417,68.912 98.297,72.027 100.713,65.191 
						100.713,71.972 99.067,88.056 					"/>
					<polygon fill="#FAE979" points="78.122,77.418 84.756,70.445 87.753,77.58 92.823,75.104 96.31,79.195 100.713,71.972 
						100.713,90.463 					"/>
				</g>
			</g>
		</g>
		<g>
			<g>
				<polygon fill="#916C8C" points="95.397,113.772 95.394,92.441 85.147,97.562 87.068,118.761 				"/>
				<polygon fill="#D6B3D1" points="74.851,100.345 74.851,94.557 81.944,90.463 91.968,90.463 95.394,92.441 87.062,97.427 
					81.941,104.44 				"/>
				<polygon fill="#A483A0" points="81.944,125.771 81.941,104.44 74.851,100.345 74.853,121.677 				"/>
				<polygon fill="#745670" points="87.068,118.761 87.062,97.427 81.941,104.44 81.944,125.771 				"/>
			</g>
			<g>
				<polygon fill="#E3BD5E" points="87.068,118.761 87.054,107.179 95.579,107.097 99.057,110.105 99.067,121.681 				"/>
				<polygon fill="#FAE979" points="87.054,107.179 95.384,102.195 99.053,104.31 99.057,110.105 				"/>
			</g>
			<g>
				<polygon fill="#8B1E1B" points="99.062,116.79 91.972,120.882 91.977,125.773 99.067,121.681 				"/>
				<polygon fill="#C84130" points="91.972,120.882 81.941,120.88 81.944,125.771 91.977,125.773 				"/>
				<polygon fill="#F15E54" points="87.062,113.866 87.062,113.866 81.941,120.88 91.972,120.882 99.062,116.79 				"/>
			</g>
		</g>
	</g>
</g>
</svg>
