<svg width="450" height="450" xmlns="http://www.w3.org/2000/svg">
 <style type="text/css">.st0{fill:#AD9683;}
	.st1{fill:#897768;}
	.st2{fill:#EAE2DC;}
	.st3{fill:#594D41;}
	.st4{fill:#FF992B;}
	.st5{fill:#D4B8A2;}
	.st6{fill:#9D8A79;}
	.st7{fill:#FF5353;}
	.st8{fill:#9D6251;}
	.st9{fill:#FAA284;}
	.st10{fill:#F0F2F1;}
	.st11{fill:#1B2320;}
	.st12{fill:#3F332B;}
	.st13{fill:#261E18;}
	.st14{fill:#5E4F45;}
	.st15{fill:#352B25;}
	.st16{fill:#25302C;}
	.st17{fill:#131917;}
	.st18{fill:#D4D6D5;}
	.st19{fill:#C94949;}
	.st20{fill:#EF8D72;}
	.st21{fill:#3B221D;}
	.st22{fill:#502F26;}
	.st23{fill:#DB7C65;}
	.st24{fill:#674434;}
	.st25{fill:#823321;}
	.st26{fill:#FFFFFF;}
	.st27{fill:#EAD9CE;}
	.st28{fill:#313A37;}

#lhand {
  animation: head 7s linear infinite;
  animation-direction: initial;
  transform-origin: 15% 43%  ;
  transform-box: fill-box;
}
@keyframes head{
 0%{ transform: rotateZ(0deg);}
 10%{ transform: rotateZ(-7deg);}
 20%{ transform: rotateZ(0deg);}
 25%{ transform: rotateZ(0deg);}
 30%{ transform: rotateZ(2deg);}
 40%{ transform: rotateZ(-7deg);}
  50%{ transform: rotateZ(0deg);}
  60%{ transform: rotateZ(-7deg);}
 70%{ transform: rotateZ(0deg);}
 75%{ transform: rotateZ(0deg);}
 80%{ transform: rotateZ(2deg);}
 90%{ transform: rotateZ(-7deg);}
  100%{ transform: rotateZ(0deg);}
}
#mouth {
	animation: mouth 2s linear infinite;
  animation-direction: alternate;
  transform-origin: top 20%;
  transform-box: fill-box;
}

@keyframes mouth {
	0%{opacity: 1;}
	20%{opacity: 1;}
	21%{opacity:0;}
	40%{opacity: 0;}
	41%{opacity: 1;}
	60%{opacity:1;}
	65%{transform:rotateX(0deg)}
	75%{transform:rotateX(55deg)}
	85%{transform:rotateX(0deg)}


}
#eyes {
	animation: ey 2.5s linear infinite;
  animation-direction: alternate;
  transform-origin: 50% 50%;
  transform-box: fill-box;
}
@keyframes ey {
	0%{transform: rotateX(0deg)}
	20%{transform: rotateX(0deg)}
	23%{transform: rotateX(88deg)}
26%{transform: rotateX(0deg)}
}
#eyebrows {
	animation: eeyb 5s linear infinite;
 
  transform-origin: 50% 50%;
  transform-box: fill-box;
}
@keyframes eeyb {
	0%{transform: translateY(0px)}
	25%{transform: translateY(0px)}
	33%{transform: translateY(-1.5px)}
    35%{transform: translateY(0px)}
	 100%{transform: rotateY(0px)}

}</style>

 <g>
  <title>Layer 1</title>
  <g stroke="null" id="svg_1">
   <g stroke="null" id="lhand">
    <path stroke="null" class="st9" d="m291.20973,118.98686l-3.40733,-5.59187c0,0 -4.08055,-5.743 -2.45932,-14.74219l4.86369,-2.23949l5.20717,-21.15841c0,0 5.90787,-3.26994 1.0167,17.05038c0,0 11.32112,3.05011 11.65087,8.2298c0.34348,5.16595 -3.70959,6.85588 -3.70959,6.85588s-2.36315,6.59483 -6.25135,8.6145l-6.91083,2.98141z" id="svg_37"/>
    <path stroke="null" class="st10" d="m299.63187,125.08708c1.09914,-5.68804 1.37392,-8.75189 1.37392,-8.75189c-9.21902,-4.68508 -15.18185,-3.24246 -15.18185,-3.24246c-0.89305,3.14628 -1.27775,5.27586 -2.34941,9.2465c4.17673,0.56331 7.8451,1.27775 16.15733,2.74785" id="svg_38"/>
    <path stroke="null" class="st11" d="m282.78758,121.03401c-5.09725,2.39063 -3.77829,11.0326 -7.32301,24.64818c-1.29149,4.93238 -2.76159,8.76563 -3.65463,10.93643c-7.08944,-10.23573 -13.86288,-19.30362 -18.8777,-25.81601c-4.02559,-5.23465 -7.63901,-9.71363 -7.63901,-9.71363c-0.26105,-0.316 -0.46713,-0.57705 -0.60453,-0.74192c-1.4701,-0.28852 -8.90302,-1.58001 -13.1347,2.56924c-5.15221,5.05604 -4.57516,17.28395 5.11099,26.76402c2.72037,4.72629 7.0757,11.4173 13.5881,18.41057c7.50162,8.05119 19.12501,20.51267 27.97307,19.39979c11.77452,-1.49758 20.88363,-27.34107 22.39494,-63.10428c-2.44558,-1.33271 -6.59483,-3.1875 -12.00809,-3.61342c-3.00889,-0.24731 -4.52021,-0.35722 -5.82543,0.26105z" id="svg_39"/>
   </g>
   <path stroke="null" class="st12" d="m193.12537,432.26876l-27.8769,0c0,0 -1.63497,-7.51536 4.17673,-17.29769l18.78153,0.28852c0.01374,0 5.41326,7.72145 4.91864,17.00917" id="svg_40"/>
   <rect stroke="null" x="165.16604" y="432.26876" class="st13" width="27.8769" height="4.39655" id="svg_41"/>
   <path stroke="null" class="st14" d="m168.66954,424.30001c0,1.90975 4.71256,3.44855 10.51051,3.44855c5.81169,0 10.51051,-1.55253 10.51051,-3.44855c0,-1.90975 -4.71256,-3.44855 -10.51051,-3.44855c-5.79795,0 -10.51051,1.53879 -10.51051,3.44855" id="svg_42"/>
   <path stroke="null" class="st12" d="m220.87861,413.26741c0,0 -2.15706,11.18373 -0.53583,19.01509l52.49759,0c0,0 1.7861,-11.49973 -21.03476,-11.47226l-14.64602,-9.89224l-16.28099,2.34941z" id="svg_43"/>
   <path stroke="null" class="st13" d="m220.42522,436.67906l17.62743,0l0.21983,-3.14628c0,0 7.1444,2.89898 17.0916,2.89898c4.83621,0 17.39386,0.13739 17.39386,0.13739l0,-4.28664l-52.33272,0l0,4.39655z" id="svg_44"/>
   <path stroke="null" class="st14" d="m253.28945,420.75529c0,0 0.7694,8.09241 18.89144,7.70771c-0.01374,0 -2.50054,-7.36423 -18.89144,-7.70771" id="svg_45"/>
   <path stroke="null" class="st15" d="m237.31073,432.26876c0,0 -0.50835,-13.28583 -17.20151,-13.36827c0,0 -0.89305,8.97172 0.41218,13.36827l16.78934,0z" id="svg_46"/>
   <path stroke="null" class="st16" d="m246.92819,232.74768l0.97549,182.2234c0,0 -14.26132,7.11692 -27.71203,1.52505l-5.13847,-151.791l-3.97064,-0.20609l-19.42727,151.96961c0,0 -10.2632,4.71256 -25.43131,-0.87931l15.38794,-182.84166l65.3163,0z" id="svg_47"/>
   <path stroke="null" class="st17" d="m247.51898,344.83231l0.37096,70.07007c0,0 -14.26132,7.1444 -27.71203,1.55253l-3.17376,-93.74276c7.54284,29.95152 23.89252,25.41757 30.51483,22.12016" id="svg_48"/>
   <path stroke="null" class="st17" d="m173.10731,333.74475c10.07085,27.31359 23.39791,9.78233 29.11343,0.01374l-10.56547,82.69642c0,0 -10.2632,4.6576 -25.43131,-0.93427l6.88335,-81.77589z" id="svg_49"/>
   <path stroke="null" class="st17" d="m181.62564,232.74768l64.72551,0l0,25.26644c-5.38578,2.34941 -15.85507,6.1277 -31.47657,8.87554l0.02748,-2.19828l-3.90194,-0.19235l-0.39844,3.13254c-9.09537,1.38766 -19.70205,2.45932 -31.86127,2.67915l2.88524,-37.56305z" id="svg_50"/>
   <path stroke="null" class="st18" d="m191.57284,117.47555c9.89224,-2.15706 22.02398,-3.42107 34.5679,-1.44262c-0.08244,8.18858 -0.316,43.55336 -8.38093,71.66382c0.01374,0 -22.60103,-51.35724 -26.18697,-70.2212" id="svg_51"/>
   <polygon stroke="null" class="st19" points="218.7215576171875,127.38153839111328 214.2288055419922,135.32280731201172 225.19271850585938,183.84974670410156 217.75979614257812,193.48095703125 210.05210876464844,186.48770141601562 209.3101806640625,135.68001556396484 205.39450073242188,129.4149398803711 210.95889282226562,121.32252502441406 " id="svg_52"/>
   <path stroke="null" class="st9" d="m218.26816,110.23497l0.32974,12.10426l-20.04554,0.54957l-0.42592,-15.74516c8.42215,3.81951 16.72064,3.5035 20.14171,3.09133" id="svg_53"/>
   <path stroke="null" class="st20" d="m198.12645,107.14365l-0.32974,-12.13174l20.04554,-0.54957l0.43966,15.77264c-3.43481,0.41218 -11.7333,0.72818 -20.15545,-3.09133" id="svg_54"/>
   <path stroke="null" class="st16" d="m168.18867,125.29317c0,0 11.4173,-6.23761 25.3214,-9.26024c3.58594,18.85022 24.26348,71.66382 24.26348,71.66382c8.05119,-28.11046 6.375,-64.20342 6.45744,-72.392c6.33378,0.98922 14.15141,2.08836 20.47145,5.02856c0,0 8.49084,38.15384 4.75377,125.05446c0,0 -28.24786,10.15329 -73.57357,1.51132c0,0 4.25916,-60.85105 -1.62123,-84.64739c0,0 -4.21794,-21.99651 -6.07274,-36.95853" id="svg_55"/>
   <path stroke="null" class="st10" d="m218.29564,111.49898c0,0 -0.92053,6.99327 -7.33675,9.83729c0,0 -11.93939,-2.04715 -12.77748,-9.85103l-6.01778,5.88039c0,0 3.69585,11.16999 12.94235,14.63228l5.78422,-8.82059l7.85884,7.26805c0,0 7.26805,-8.69693 6.64979,-14.38497l-7.10318,-4.56142z" id="svg_56"/>
   <path stroke="null" class="st11" d="m230.3999,141.98633l3.5035,3.17376c0,0 -9.35642,36.79366 -16.0749,50.13445c0,0 -19.39979,-32.50702 -25.51375,-46.71338l2.92646,-4.63012l-6.40248,-1.96471c0,0 -2.56924,-13.45071 -1.8548,-24.26348c2.08836,-0.61827 4.28664,-1.19531 6.53987,-1.68993c3.58594,18.85022 24.26348,71.66382 24.26348,71.66382c8.05119,-28.11046 6.375,-64.20342 6.45744,-72.392c1.8548,0.28852 3.90194,0.72818 6.00404,1.25027l4.47899,21.25459l-4.32786,4.17673z" id="svg_57"/>
   <path stroke="null" class="st17" d="m177.35273,199.29266c0,0 7.4604,-23.02695 2.52802,-32.54823l-3.72333,9.67242l1.19531,22.87582z" id="svg_58"/>
   <path stroke="null" class="st21" d="m192.74067,49.50758c0,0 19.30362,9.19154 23.96122,8.68319c4.6576,-0.50835 19.55092,-7.63901 19.55092,-7.63901c1.90975,8.94424 -2.78906,16.69316 -2.78906,16.69316l-41.95961,9.68616l-7.0757,1.86854c-1.92349,-7.57032 -3.54472,-15.33298 -3.53098,-19.79823c8.64198,-1.95097 11.84322,-9.49381 11.84322,-9.49381" id="svg_59"/>
   <path stroke="null" class="st22" d="m186.2008,44.42407c3.77829,-15.19559 29.71795,-16.23977 29.71795,-16.23977c13.62932,-8.28476 8.51832,2.32193 8.51832,2.32193c22.80712,-8.1611 11.93939,12.37905 11.93939,12.37905c8.44963,-0.30226 -0.13739,7.69397 -0.13739,7.69397s-14.89332,7.13066 -19.55092,7.63901c-4.64386,0.50835 -23.96122,-8.68319 -23.96122,-8.68319s-3.20124,7.54284 -11.84322,9.50755c0.05496,-13.56062 5.31708,-14.61854 5.31708,-14.61854" id="svg_60"/>
   <path stroke="null" class="st9" d="m186.25576,73.31766l3.14628,2.65167c0.65948,-1.58001 1.19531,-3.21498 1.63497,-4.87743c2.54176,-9.57624 1.73114,-21.58433 1.73114,-21.58433c22.01025,8.53206 40.81925,2.36315 40.81925,2.36315c-1.05792,10.90895 2.5555,34.98008 -5.79795,47.31791c-2.4868,3.68211 -5.64682,6.7597 -10.92269,7.59779c-23.02695,3.59968 -28.94856,-18.91892 -28.94856,-18.91892s-7.2131,1.92349 -8.68319,-8.71067c-1.20905,-8.82059 7.02075,-5.83917 7.02075,-5.83917" id="svg_61"/>
   <path stroke="null" class="st20" d="m195.99687,53.42326c0,0 -1.84106,10.16703 -4.6576,16.30846c2.12958,-9.13659 1.4014,-20.21041 1.4014,-20.21041c22.01025,8.53206 40.81925,2.36315 40.81925,2.36315c-0.10991,1.19531 -0.16487,2.5555 -0.16487,4.02559c-8.55954,1.18157 -23.87878,2.23949 -37.39818,-2.4868" id="svg_62"/>
   <path stroke="null" class="st23" d="m213.693,87.33168c4.45151,1.79984 6.85588,-0.28852 7.03449,-2.40437c0.12365,-1.37392 -0.65948,-2.58298 -1.97845,-3.10507c-2.70663,-1.05792 -4.63012,-5.23465 -4.64386,-5.27586c-0.01374,0.96175 0.96175,4.56142 4.39655,6.56735c0.74192,0.43966 1.20905,0.89305 1.1541,1.56627c-0.10991,1.18157 -1.81358,2.95393 -5.96283,2.65167" id="svg_63"/>
   <path stroke="null" class="st24" d="m234.46671,28.65143c0,0 -9.60372,9.43885 -32.02614,9.41137c0,0 14.64602,10.20825 34.59538,3.40733c0.01374,0 5.09725,-12.10426 -2.56924,-12.8187" id="svg_64"/>
   <path stroke="null" class="st20" d="m189.63561,85.21584c1.95097,5.70178 9.2465,19.77075 24.99166,18.90518c8.51832,-0.46713 12.83244,-6.08648 15.67646,-10.00216c-0.67322,1.84106 -1.51132,3.55846 -2.54176,5.06978c-2.4868,3.68211 -5.64682,6.7597 -10.92269,7.59779c-23.02695,3.59968 -28.94856,-18.91892 -28.94856,-18.91892s-5.52317,1.53879 -7.96875,-5.49569c4.30038,7.1444 9.71363,2.84402 9.71363,2.84402" id="svg_65"/>
   <g stroke="null" id="mouth2">
    <path stroke="null" class="st25" d="m221.44192,92.18163c-2.21202,0.13739 -4.53395,0.21983 -6.96579,0.23357c-2.78906,0.01374 -5.427,-0.0687 -7.92754,-0.23357c-0.09617,-0.01374 -0.16487,-0.08244 -0.16487,-0.17861c0,-0.09617 0.08244,-0.17861 0.16487,-0.17861c2.4868,0.16487 5.13847,0.26105 7.94127,0.24731c2.43184,-0.01374 4.75377,-0.09617 6.95205,-0.24731c0.09617,0.01374 0.16487,0.08244 0.16487,0.17861c0.01374,0.09617 -0.0687,0.17861 -0.16487,0.17861z" id="svg_66"/>
   </g>
   <g stroke="null" id="mouth">
    <path stroke="null" class="st25" d="m205.95781,90.423c0.0687,1.38766 1.75862,7.1444 8.07867,7.15814c6.70474,0.01374 8.07867,-7.15814 8.07867,-7.15814c-7.7764,1.7174 -16.15733,0 -16.15733,0" id="svg_67"/>
    <path stroke="null" class="st26" d="m214.21509,93.85781c5.15221,0 6.66353,-2.14332 7.30927,-3.29741c-6.04526,1.19531 -10.92269,0.48087 -15.16811,-0.04122c0.46713,1.27775 3.00889,3.33863 7.85884,3.33863" id="svg_68"/>
   </g>
   <polygon stroke="null" class="st27" points="241.70726013183594,232.6240234375 240.3745574951172,231.00279235839844 260.59869384765625,153.32119750976562 304.6054382324219,156.42626953125 306.3778381347656,158.55584716796875 " id="svg_69"/>
   <polygon stroke="null" class="st5" points="262.219970703125,156.975830078125 241.70726013183594,232.6240234375 285.1095275878906,233.7231903076172 306.3778381347656,158.55584716796875 " id="svg_70"/>
   <path stroke="null" class="st9" d="m232.51574,199.70483l6.10022,-5.01482c0,0 5.52317,-2.58298 8.62824,-3.2562c3.10507,-0.67322 4.13551,-2.65167 4.13551,-2.65167l-1.25027,5.45447c0,0 16.48707,-2.36315 17.07786,0c0,0 0.27478,0.81061 -0.19235,2.1708c0,0 2.56924,-0.04122 1.92349,2.91272c0,0 0.0687,0.17861 -1.55253,0.61827c0,0 1.49758,2.06088 -1.11288,3.44855c0,0 0.74192,1.7861 -1.42888,2.78906c-2.1708,1.00296 -13.5881,3.66837 -13.5881,3.66837s-10.00216,0.316 -13.95906,-2.23949l-4.78125,-7.90006z" id="svg_71"/>
   <path stroke="null" class="st10" d="m238.73961,193.82444c-4.23168,-0.93427 -6.22387,-0.93427 -10.62042,-2.26697c-1.0167,6.8284 -1.11288,7.33675 -1.96471,15.49785c5.71552,1.07166 10.93643,1.18157 10.93643,1.18157c3.92942,-6.88335 1.64871,-14.41245 1.64871,-14.41245" id="svg_72"/>
   <path stroke="null" class="st28" d="m229.90529,189.89502c-21.98277,-2.33567 -40.9429,-9.23276 -40.9429,-9.23276c-10.09833,-40.35212 -20.77371,-55.36909 -20.77371,-55.36909c-24.78557,11.59591 0.54957,72.19965 10.89521,77.3656c5.59187,2.8028 31.46283,6.4437 49.11774,6.11396c1.74488,-6.63605 2.91272,-15.09941 1.70366,-18.8777" id="svg_73"/>
   <g stroke="null" id="eyes">
    <path stroke="null" class="st22" d="m220.83739,76.09299c0.01374,1.97845 1.22279,3.48976 2.69289,3.37985c1.4701,-0.12365 2.63793,-1.81358 2.61045,-3.80577c-0.01374,-1.97845 -1.22279,-3.48976 -2.69289,-3.37985c-1.4701,0.12365 -2.63793,1.82732 -2.61045,3.80577" id="svg_74"/>
    <path stroke="null" class="st22" d="m200.70942,75.5022c0.01374,1.97845 1.22279,3.48976 2.69289,3.37985c1.4701,-0.12365 2.63793,-1.81358 2.61045,-3.80577c-0.01374,-1.97845 -1.22279,-3.48976 -2.69289,-3.37985c-1.4701,0.12365 -2.63793,1.82732 -2.61045,3.80577" id="svg_75"/>
   </g>
   <g stroke="null" id="eyebrows">
    <path stroke="null" class="st22" d="m229.87781,65.871l0.19235,-1.34644c-0.28852,-0.02748 -4.89117,-1.27775 -10.27694,-0.82435l-0.04122,2.1021c4.41029,-0.64574 10.05712,0.05496 10.12581,0.0687" id="svg_76"/>
    <path stroke="null" class="st22" d="m197.19218,66.5717c3.59968,-1.4014 10.27694,-1.66245 10.34564,-1.67619l-0.43966,-1.92349c-0.26105,0.05496 -6.32005,0.26105 -10.35938,2.4181l0.45339,1.18157z" id="svg_77"/>
   </g>
  </g>
 </g>
</svg>