<svg width="400" height="400" xmlns="http://www.w3.org/2000/svg" xmlns:xlink="http://www.w3.org/1999/xlink">
 <g>
  <title>background</title>
   </g>
 <g>
  <title>background</title>
 
 </g>
 <style type="text/css">.st0{display:none;}
	.st1{display:inline;}
	.st2{fill:#3C3C3C;}
	.st3{fill:#C62E22;}
	.st4{fill:#76896D;}
	.st5{fill:#9B482F;}
	.st6{fill:#839A78;}
	.st7{fill:#012100;}
	.st8{fill:#EADE47;}
	.st9{fill:#A9E867;}
	.st10{fill:#200A65;}
	.st11{fill:#160087;}
	.st12{fill:#3333CC;}
	.st13{clip-path:url(#SVGID_2_);fill:#350D02;}
	.st14{clip-path:url(#SVGID_2_);fill:#FFF7F3;}
	.st15{fill:#EC6418;}
	.st16{fill:#CE5417;}
	.st17{fill:#EDEDED;}
	.st18{font-family:'Chiller-Regular';}
	.st19{font-size:58.2417px;}
	.st20{fill:none;}
	.st21{font-size:60px;}
	.st22{display:inline;fill:none;}
	.st23{fill:#9BB28E;}
	.st24{fill:#727272;}
	.st25{fill:#59401D;}
	.st26{fill:#8C8C8C;}
	.st27{fill:#9B9B9B;}
	.st28{fill:#2D2D2D;}
	.st29{clip-path:url(#SVGID_4_);}
	.st30{fill:#C19F9F;}
	.st31{fill:#FFFFFF;}
	.st32{clip-path:url(#SVGID_4_);fill:#331818;}
	.st33{fill:#B39493;}
	.st34{fill:#3B3B3B;}
	.st35{fill:#A87E7E;}
	.st36{fill:#4C3131;}
	.st37{fill:#331818;}
	.st38{fill:#B5B491;}
	.st39{fill:#969696;}
	.st40{fill:#7C6665;}
	.st41{fill:#967E7C;}
	.st42{fill:#C8C8A6;}
	.st43{fill:#BC9B9B;}
	.st44{fill:#5C3C3C;}
    #Insta {
    animation : fade1 3s ease-in-out ;
    transform-origin:50% 50%
    }
    @keyframes fade1{
    0%,10%{
    visibility : hidden;
    transform : scale(.5)
    }
    20%,30%{
     visibility : visible;
    transform : scale(1)
    }
    40%,100%{
     visibility : visible;
    transform : scale(1)
    }
    }
    #twitter {
    animation : fade2 3s ease-in-out ;
    transform-origin:50% 50%
    }
    @keyframes fade2{
    0%,20%{
    visibility : hidden;
    transform : scale(.5)
    }
    30%,40%{
     visibility : visible;
    transform : scale(1)
    }
    50%,100%{
     visibility : visible;
    transform : scale(1)
    }
    }
    #facebook{
    animation : fade3 3s ease-in-out ;
    transform-origin:50% 50%
    }
    @keyframes fade3{
    0%,30%{
    visibility : hidden;
    transform : scale(.5)
    }
    40%,50%{
     visibility : visible;
    transform : scale(1)
    }
    60%,100%{
     visibility : visible;
    transform : scale(1)
    }
    }
    {
    animation : thumbs 3s ease-in-out infinite;
    
    }
    
   
     @keyframes thumbs{
    0%,49%{
    visibility : visible
    }
   
    50%,100%{
    visibility : hidden
    }
    
    }
    #mon1-arm-2 ,#mon2-arm-2{
     animation : thumbs1 10s ease-in-out infinite;
    }
     @keyframes thumbs1{
    0%,51%{
    visibility : hidden
    }
   
    52%,100%{
    visibility : visible
    }
    
    }
    #small-opened-eyes ,#big-opened-eyes ,#small-opened-eyes_1_ ,#big-opened-eyes_1_{
    animation : blink3 3s ease-in-out infinite
    }
    @keyframes blink3{
    0%,50%{
    visibility : visible
    }
    55%,60%{
    visibility : hidden
    }
    65%,80%{
    visibility : visible
    }
    85%,90%{
    visibility : hidden
    }
    95%,100%{
    visibility : visible
    }
    }

	 #arm1 {
	   
    animation-name: b;
    animation-duration: 3s;

    animation-timing-function: linear;
    animation-iteration-count: infinite;
   
    transform-origin: top left ;
    transform-box: fill-box;

   }
   @keyframes b {
 0%{transform: rotateZ(10deg);}
 0%{transform: rotateZ(10deg);}
 100%{transform: rotateZ(-7deg);}
   }

  #mon1-arm-2 ,#mon2-arm-2 {
	   
    animation-name: bb;
    animation-duration: 3s;

    animation-timing-function: linear;
    animation-iteration-count: infinite;
   
    transform-origin: top left ;
    transform-box: fill-box;

   }
   @keyframes bb {
 0%{transform: rotateZ(10deg);}
 50%{transform: rotateZ(10deg);}
 100%{transform: rotateZ(-7deg);}
   }</style>
 <g>
  <title>Layer 1</title>
  <g id="kid-monisters" class="st0">
   <g id="LEG_RIGHT" class="st1">
    <g id="svg_3">
     <path class="st2" d="m400.7,367.5c0,0 21.8,44.6 10.7,69.7l-6.4,0c0,0 -1,-51.3 -10,-60.3s5.7,-9.4 5.7,-9.4z" id="svg_4"/>
     <path class="st3" d="m409.7,435c0,0 20.8,7.6 20,10.9c-0.8,3.3 -24.8,0 -24.8,0l0,-10.9l4.8,0z" id="svg_5"/>
    </g>
   </g>
   <g id="LEG_LEFT" class="st1">
    <g id="svg_6">
     <path class="st2" d="m381.8,367.5c0,0 -21.8,44.6 -10.7,69.7l6.3,0c0,0 1,-51.3 10,-60.3c9.2,-9 -5.6,-9.4 -5.6,-9.4z" id="svg_7"/>
     <path class="st3" d="m373.1,435c0,0 -20.8,7.6 -20,10.9c0.8,3.3 24.8,0 24.8,0l0,-10.9l-4.8,0z" id="svg_8"/>
    </g>
   </g>
   <g id="BODY" class="st1">
    <g id="svg_9">
     <path class="st4" d="m391.2,327.8l-0.1,0c-2.8,0 -5.2,-2.3 -5.2,-5.2l0,-5.5c0,-2.8 2.3,-5.2 5.2,-5.2l0.1,0c2.8,0 5.2,2.3 5.2,5.2l0,5.5c0,2.9 -2.3,5.2 -5.2,5.2z" id="svg_10"/>
     <path class="st5" d="m391.3,386.1l-0.3,0c-7.1,0 -12.9,-5.8 -12.9,-12.9l0,-33.6c0,-7.1 5.8,-12.9 12.9,-12.9l0.3,0c7.1,0 12.9,5.8 12.9,12.9l0,33.6c0.1,7.1 -5.7,12.9 -12.9,12.9z" id="svg_11"/>
    </g>
   </g>
   <g id="FACE" class="st1">
    <g id="svg_12">
     <path class="st6" d="m423.2,270.3c-1.5,38.4 -14.5,45.6 -32.4,45.6c-17.9,0 -31.4,-13.4 -32.4,-45.6c-1.1,-33.9 14.5,-45.6 32.4,-45.6c17.9,0 33.6,13.8 32.4,45.6z" id="svg_13"/>
     <path class="st7" d="m390,273c-0.3,1.7 -0.7,3.4 -1.1,5.1c-0.5,1.7 -1,3.3 -1.6,5c-0.2,0.4 -0.3,0.8 -0.5,1.2c-0.2,0.4 -0.4,0.8 -0.6,1.2c-0.1,0.2 -0.3,0.4 -0.4,0.6c0,0 -0.1,0.1 -0.2,0.1l-0.1,0.1c0,0 0,0 0,0l0,0c0,0 0,0 0,0c0,0 0,0 0,0c0,0 0,0 0,0c0,0 0,0 0,0c0,0 0,0 0,-0.1c0,0 0,-0.1 0,-0.1c0,0 0,0 0,-0.1c0,0 0,0 0,0l0,0c0,0 0,0 0,0c0,0 0.1,0.1 0.2,0.1c0.2,0.1 0.3,0.1 0.5,0.1c0.8,0.2 1.6,0.2 2.4,0.3c0.8,0.1 1.6,0.1 2.4,0.2c-0.4,0.1 -0.8,0.1 -1.2,0.2c-0.4,0 -0.8,0.1 -1.2,0.1c-0.8,0.1 -1.6,0.1 -2.5,0c-0.2,0 -0.4,-0.1 -0.7,-0.1c-0.1,0 -0.2,-0.1 -0.4,-0.1c-0.1,0 -0.1,-0.1 -0.2,-0.2c0,0 0,0 0,0c0,0 0,0 0,-0.1c0,0 0,-0.1 -0.1,-0.1c0,-0.1 0,-0.2 0,-0.3c0,0 0,-0.1 0,-0.1c0,0 0,-0.1 0,-0.1c0,0 0,-0.1 0,-0.1c0,0 0,-0.1 0,-0.1c0.1,-0.1 0.1,-0.1 0.2,-0.2l0,0c0,0 0,0 0,0l0,0l0,0l0,0l0,0c0.1,-0.1 0.2,-0.3 0.3,-0.5c0.2,-0.3 0.4,-0.7 0.5,-1.1c0.2,-0.4 0.3,-0.8 0.5,-1.2c0.6,-1.6 1.2,-3.2 1.8,-4.8c0.7,-1.7 1.3,-3.3 2,-4.9z" id="svg_14"/>
     <ellipse class="st6" cx="359.4" cy="277" rx="6.3" ry="9.8" id="svg_15"/>
     <ellipse class="st6" cx="425.9" cy="277" rx="6.3" ry="9.8" id="svg_16"/>
     <path class="st8" d="m385,219.6c0,0 -31.4,9.2 -33.7,25.5c0,0 -4.6,16.4 -8,17.7c-3.4,1.3 15.2,-8.7 15.2,-8.7s-5.7,14.2 -9.9,20.9c0,0 7.4,1.3 16,-11.6l6.8,-12.4l-1.6,6.6c0,0 9.4,-2.1 13.2,-8.3c0,0 12.5,-6.6 7,-0.7c0,0 -5.8,8.7 -4.9,7.9c0.9,-0.7 12.6,0.7 16,-8.4c0,0 8.4,8.2 8.9,10.2c0.5,2.1 5,-4.1 3,-9.7c0,0 3.3,8.4 7.1,11.6l1.5,-10c0,0 -2.3,25.3 4.9,31c0,0 5.5,-26.4 3.2,-32.7s-6.1,-17.5 -15.8,-26.3c-9.7,-8.7 -10.7,0.5 -10.7,0.5s0.5,-8.7 -9.4,-8s-8.8,4.9 -8.8,4.9z" id="svg_17"/>
    </g>
    <g id="closed-eyes">
     <g id="svg_18">
      <ellipse class="st9" cx="377.5" cy="270.9" rx="8.9" ry="1.7" id="svg_19"/>
      <path class="st10" d="m368.7,270.6c-0.2,-0.1 -0.3,-0.2 -0.4,-0.4c0,-0.1 0,-0.2 0.1,-0.4c0.1,-0.1 0.3,-0.2 0.6,-0.4c0.3,-0.1 0.7,-0.2 1.1,-0.3c0.9,-0.2 2.2,-0.3 3.5,-0.4c0.6,0 1.3,-0.1 1.9,-0.1c0.3,0 0.6,0 1,0c0.2,0 0.3,0 0.5,0c0.2,0 0.3,0 0.5,0c1.3,0 2.7,0 3.9,0.1c1.3,0.1 2.5,0.3 3.3,0.5c0.9,0.2 1.4,0.5 1.6,0.7c0.1,0.1 0.1,0.1 0.1,0.2c0,0.1 0,0.1 0,0.2c0,0.1 -0.1,0.2 -0.3,0.4c-0.2,-0.1 -0.5,-0.2 -0.7,-0.3c-0.1,0 -0.3,-0.1 -0.4,-0.1c-0.1,0 -0.3,-0.1 -0.4,-0.1c-0.6,-0.2 -1.3,-0.3 -2,-0.4c-0.7,-0.1 -1.6,-0.2 -2.4,-0.2c-0.9,-0.1 -1.8,-0.1 -2.8,-0.1c-1,0 -2,0 -2.9,0c-0.9,0 -1.8,0.1 -2.6,0.2c-0.8,0.1 -1.4,0.2 -2,0.4c-0.5,0.1 -0.9,0.3 -1.2,0.5z" id="svg_20"/>
      <path class="st11" d="m386.3,271c0.1,0.1 0.1,0.2 0.1,0.3c0,0.1 -0.1,0.2 -0.3,0.3c-0.3,0.2 -0.9,0.4 -1.8,0.6c-0.4,0.1 -1,0.2 -1.5,0.2c-0.5,0.1 -1.1,0.1 -1.7,0.1c-1.2,0.1 -2.4,0.1 -3.6,0.1c-1.2,0 -2.5,0 -3.6,-0.1l-0.4,0c-0.1,0 -0.3,0 -0.4,0l-0.2,0l-0.2,0c-0.1,0 -0.3,0 -0.4,0c-0.5,-0.1 -1,-0.2 -1.4,-0.2c-0.8,-0.2 -1.4,-0.4 -1.7,-0.6c-0.2,-0.1 -0.3,-0.2 -0.3,-0.3c0,-0.1 0,-0.1 -0.1,-0.2c0,-0.1 0,-0.1 0,-0.2c0.1,0.1 0.1,0.1 0.2,0.2c0.1,0.1 0.2,0.1 0.2,0.2c0.2,0.1 0.4,0.2 0.6,0.3c0.5,0.2 1.1,0.4 1.9,0.5c0.1,0 0.2,0 0.3,0.1c0.1,0 0.2,0 0.3,0c0.1,0 0.2,0 0.3,0l0.3,0c0.1,0 0.2,0 0.3,0l0.2,0l0.2,0c0.1,0 0.2,0 0.4,0l0.4,0c0.1,0 0.3,0 0.4,0c0.1,0 0.3,0 0.4,0l0.4,0l0.2,0l0.2,0l0.4,0c0.1,0 0.3,0 0.4,0l0.4,0l0.4,0c0.1,0 0.3,0 0.4,0l0.4,0c0.1,0 0.3,0 0.4,0l0.4,0c0.3,0 0.5,0 0.8,0c0.1,0 0.3,0 0.4,0c0.1,0 0.3,0 0.4,0c0.3,0 0.5,0 0.8,0c0.1,0 0.3,0 0.4,0l0.4,0c0.5,0 0.9,-0.1 1.3,-0.2c0.8,-0.1 1.5,-0.3 1.9,-0.5c0.3,-0.1 0.5,-0.4 0.7,-0.6z" id="svg_21"/>
     </g>
     <g id="svg_22">
      <ellipse class="st9" cx="404.2" cy="270.9" rx="8.9" ry="1.7" id="svg_23"/>
      <path class="st11" d="m412.9,271c0.1,0.1 0.1,0.2 0.1,0.3c0,0.1 -0.1,0.2 -0.3,0.3c-0.3,0.2 -0.9,0.4 -1.8,0.6c-0.4,0.1 -1,0.2 -1.5,0.2c-0.5,0.1 -1.1,0.1 -1.7,0.1c-1.2,0.1 -2.4,0.1 -3.6,0.1c-1.2,0 -2.5,0 -3.6,-0.1l-0.4,0c-0.1,0 -0.3,0 -0.4,0l-0.2,0l-0.2,0c-0.1,0 -0.3,0 -0.4,0c-0.5,-0.1 -1,-0.2 -1.4,-0.2c-0.8,-0.2 -1.4,-0.4 -1.7,-0.6c-0.2,-0.1 -0.3,-0.2 -0.3,-0.3c0,-0.1 0,-0.1 -0.1,-0.2c0,-0.1 0,-0.1 0,-0.2c0.1,0.1 0.1,0.1 0.2,0.2c0.1,0.1 0.2,0.1 0.2,0.2c0.2,0.1 0.4,0.2 0.6,0.3c0.5,0.2 1.1,0.4 1.9,0.5c0.1,0 0.2,0 0.3,0.1c0.1,0 0.2,0 0.3,0c0.1,0 0.2,0 0.3,0l0.3,0c0.1,0 0.2,0 0.3,0l0.2,0l0.2,0c0.1,0 0.2,0 0.4,0l0.4,0c0.1,0 0.3,0 0.4,0c0.1,0 0.3,0 0.4,0l0.4,0l0.2,0l0.2,0l0.4,0c0.1,0 0.3,0 0.4,0l0.4,0l0.4,0c0.1,0 0.3,0 0.4,0l0.4,0c0.1,0 0.3,0 0.4,0l0.4,0c0.3,0 0.5,0 0.8,0c0.1,0 0.3,0 0.4,0c0.1,0 0.3,0 0.4,0c0.3,0 0.5,0 0.8,0c0.1,0 0.3,0 0.4,0l0.4,0c0.5,0 0.9,-0.1 1.3,-0.2c0.8,-0.1 1.5,-0.3 1.9,-0.5c0.3,-0.1 0.6,-0.4 0.7,-0.6z" id="svg_24"/>
      <path class="st10" d="m395.4,270.6c-0.2,-0.1 -0.3,-0.2 -0.4,-0.4c0,-0.1 0,-0.2 0.1,-0.4c0.1,-0.1 0.3,-0.2 0.6,-0.4c0.3,-0.1 0.7,-0.2 1.1,-0.3c0.9,-0.2 2.2,-0.3 3.5,-0.4c0.6,0 1.3,-0.1 1.9,-0.1c0.3,0 0.6,0 1,0c0.2,0 0.3,0 0.5,0c0.2,0 0.3,0 0.5,0c1.3,0 2.7,0 3.9,0.1c1.3,0.1 2.5,0.3 3.3,0.5c0.9,0.2 1.4,0.5 1.6,0.7c0.1,0.1 0.1,0.1 0.1,0.2c0,0.1 0,0.1 0,0.2c0,0.1 -0.1,0.2 -0.3,0.4c-0.2,-0.1 -0.5,-0.2 -0.7,-0.3c-0.1,0 -0.3,-0.1 -0.4,-0.1c-0.1,0 -0.3,-0.1 -0.4,-0.1c-0.6,-0.2 -1.3,-0.3 -2,-0.4c-0.7,-0.1 -1.6,-0.2 -2.4,-0.2c-0.9,-0.1 -1.8,-0.1 -2.8,-0.1c-1,0 -2,0 -2.9,0c-0.9,0 -1.8,0.1 -2.6,0.2c-0.8,0.1 -1.4,0.2 -2,0.4c-0.4,0.1 -0.9,0.3 -1.2,0.5z" id="svg_25"/>
     </g>
    </g>
    <g id="EYES">
     <g id="svg_26">
      <ellipse class="st9" cx="377.5" cy="271.5" rx="8.9" ry="9.6" id="svg_27"/>
      <path class="st10" d="m368.7,270.2c-0.2,-0.6 -0.3,-1.3 -0.4,-1.9c0,-0.7 0,-1.4 0.1,-2c0.1,-0.7 0.3,-1.4 0.6,-2c0.3,-0.7 0.7,-1.3 1.1,-1.8c0.9,-1.1 2.2,-1.9 3.5,-2.4c0.6,-0.2 1.3,-0.4 1.9,-0.5c0.3,-0.1 0.6,-0.1 1,-0.1c0.2,0 0.3,0 0.5,0c0.2,0 0.3,0 0.5,0c1.3,0 2.7,0.2 3.9,0.8c1.3,0.6 2.5,1.5 3.3,2.7c0.9,1.2 1.4,2.5 1.6,3.9c0.1,0.3 0.1,0.7 0.1,1c0,0.3 0,0.7 0,1c0,0.7 -0.1,1.3 -0.3,2c-0.2,-0.6 -0.5,-1.2 -0.7,-1.7c-0.1,-0.3 -0.3,-0.5 -0.4,-0.8c-0.1,-0.3 -0.3,-0.5 -0.4,-0.8c-0.6,-1 -1.3,-1.8 -2,-2.4c-0.7,-0.6 -1.6,-1.1 -2.4,-1.4c-0.9,-0.3 -1.8,-0.4 -2.8,-0.4c-1,0 -2,0.1 -2.9,0.3c-0.9,0.2 -1.8,0.6 -2.6,1.1c-0.8,0.6 -1.4,1.3 -2,2.3c-0.5,0.7 -0.9,1.8 -1.2,3.1z" id="svg_28"/>
      <path class="st11" d="m386.3,272.4c0.1,0.6 0.1,1.3 0.1,1.9c0,0.6 -0.1,1.3 -0.3,1.9c-0.3,1.3 -0.9,2.5 -1.8,3.4c-0.4,0.5 -1,0.9 -1.5,1.2c-0.5,0.3 -1.1,0.6 -1.7,0.8c-1.2,0.4 -2.4,0.5 -3.6,0.5c-1.2,0 -2.5,-0.2 -3.6,-0.7l-0.4,-0.2c-0.1,-0.1 -0.3,-0.2 -0.4,-0.2l-0.2,-0.1l-0.2,-0.1c-0.1,-0.1 -0.3,-0.2 -0.4,-0.3c-0.5,-0.4 -1,-0.8 -1.4,-1.3c-0.8,-1 -1.4,-2.2 -1.7,-3.5c-0.2,-0.6 -0.3,-1.3 -0.3,-1.9c0,-0.3 0,-0.6 -0.1,-0.9c0,-0.3 0,-0.6 0,-0.9c0.1,0.3 0.1,0.6 0.2,0.9c0.1,0.3 0.2,0.6 0.2,0.9c0.2,0.6 0.4,1.1 0.6,1.7c0.5,1.1 1.1,2.1 1.9,2.8c0.1,0.1 0.2,0.2 0.3,0.3c0.1,0.1 0.2,0.2 0.3,0.3c0.1,0.1 0.2,0.2 0.3,0.2l0.3,0.2c0.1,0.1 0.2,0.1 0.3,0.2l0.2,0.1l0.2,0.1c0.1,0.1 0.2,0.1 0.4,0.2l0.4,0.1c0.1,0.1 0.3,0.1 0.4,0.1c0.1,0 0.3,0.1 0.4,0.1l0.4,0.1l0.2,0l0.2,0l0.4,0.1c0.1,0 0.3,0 0.4,0l0.4,0l0.4,0c0.1,0 0.3,0 0.4,0l0.4,0c0.1,0 0.3,0 0.4,0l0.4,0c0.3,0 0.5,-0.1 0.8,-0.1c0.1,0 0.3,-0.1 0.4,-0.1c0.1,0 0.3,-0.1 0.4,-0.1c0.3,-0.1 0.5,-0.1 0.8,-0.3c0.1,-0.1 0.3,-0.1 0.4,-0.2l0.4,-0.2c0.5,-0.3 0.9,-0.5 1.3,-0.9c0.8,-0.7 1.5,-1.7 1.9,-2.7c0.3,-1 0.5,-2.2 0.7,-3.4z" id="svg_29"/>
     </g>
     <g id="svg_30">
      <ellipse class="st9" cx="404.2" cy="271.5" rx="8.9" ry="9.6" id="svg_31"/>
      <path class="st11" d="m412.9,272.4c0.1,0.6 0.1,1.3 0.1,1.9c0,0.6 -0.1,1.3 -0.3,1.9c-0.3,1.3 -0.9,2.5 -1.8,3.4c-0.4,0.5 -1,0.9 -1.5,1.2c-0.5,0.3 -1.1,0.6 -1.7,0.8c-1.2,0.4 -2.4,0.5 -3.6,0.5c-1.2,0 -2.5,-0.2 -3.6,-0.7l-0.4,-0.2c-0.1,-0.1 -0.3,-0.2 -0.4,-0.2l-0.2,-0.1l-0.2,-0.1c-0.1,-0.1 -0.3,-0.2 -0.4,-0.3c-0.5,-0.4 -1,-0.8 -1.4,-1.3c-0.8,-1 -1.4,-2.2 -1.7,-3.5c-0.2,-0.6 -0.3,-1.3 -0.3,-1.9c0,-0.3 0,-0.6 -0.1,-0.9c0,-0.3 0,-0.6 0,-0.9c0.1,0.3 0.1,0.6 0.2,0.9c0.1,0.3 0.2,0.6 0.2,0.9c0.2,0.6 0.4,1.1 0.6,1.7c0.5,1.1 1.1,2.1 1.9,2.8c0.1,0.1 0.2,0.2 0.3,0.3c0.1,0.1 0.2,0.2 0.3,0.3c0.1,0.1 0.2,0.2 0.3,0.2l0.3,0.2c0.1,0.1 0.2,0.1 0.3,0.2l0.2,0.1l0.2,0.1c0.1,0.1 0.2,0.1 0.4,0.2l0.4,0.1c0.1,0.1 0.3,0.1 0.4,0.1c0.1,0 0.3,0.1 0.4,0.1l0.4,0.1l0.2,0l0.2,0l0.4,0.1c0.1,0 0.3,0 0.4,0l0.4,0l0.4,0c0.1,0 0.3,0 0.4,0l0.4,0c0.1,0 0.3,0 0.4,0l0.4,0c0.3,0 0.5,-0.1 0.8,-0.1c0.1,0 0.3,-0.1 0.4,-0.1c0.1,0 0.3,-0.1 0.4,-0.1c0.3,-0.1 0.5,-0.1 0.8,-0.3c0.1,-0.1 0.3,-0.1 0.4,-0.2l0.4,-0.2c0.5,-0.3 0.9,-0.5 1.3,-0.9c0.8,-0.7 1.5,-1.7 1.9,-2.7c0.3,-1 0.6,-2.2 0.7,-3.4z" id="svg_32"/>
      <path class="st10" d="m395.4,270.2c-0.2,-0.6 -0.3,-1.3 -0.4,-1.9c0,-0.7 0,-1.4 0.1,-2c0.1,-0.7 0.3,-1.4 0.6,-2c0.3,-0.7 0.7,-1.3 1.1,-1.8c0.9,-1.1 2.2,-1.9 3.5,-2.4c0.6,-0.2 1.3,-0.4 1.9,-0.5c0.3,-0.1 0.6,-0.1 1,-0.1c0.2,0 0.3,0 0.5,0c0.2,0 0.3,0 0.5,0c1.3,0 2.7,0.2 3.9,0.8c1.3,0.6 2.5,1.5 3.3,2.7c0.9,1.2 1.4,2.5 1.6,3.9c0.1,0.3 0.1,0.7 0.1,1c0,0.3 0,0.7 0,1c0,0.7 -0.1,1.3 -0.3,2c-0.2,-0.6 -0.5,-1.2 -0.7,-1.7c-0.1,-0.3 -0.3,-0.5 -0.4,-0.8c-0.1,-0.3 -0.3,-0.5 -0.4,-0.8c-0.6,-1 -1.3,-1.8 -2,-2.4c-0.7,-0.6 -1.6,-1.1 -2.4,-1.4c-0.9,-0.3 -1.8,-0.4 -2.8,-0.4c-1,0 -2,0.1 -2.9,0.3c-0.9,0.2 -1.8,0.6 -2.6,1.1c-0.8,0.6 -1.4,1.3 -2,2.3c-0.4,0.7 -0.9,1.8 -1.2,3.1z" id="svg_33"/>
     </g>
    </g>
    <g id="small-eyes-closed">
     <ellipse class="st12" cx="377.9" cy="271.3" rx="2.2" ry="0.7" id="svg_34"/>
     <ellipse class="st12" cx="404.2" cy="271.3" rx="2.2" ry="0.7" id="svg_35"/>
    </g>
    <g id="PUPILS">
     <ellipse class="st12" cx="377.9" cy="271.3" rx="2.2" ry="2.4" id="svg_36"/>
     <ellipse class="st12" cx="404.2" cy="271.3" rx="2.2" ry="2.4" id="svg_37"/>
    </g>
    <g id="MOUTH">
     <g id="svg_38">
      <path class="st7" d="m413.7,285.9c-0.9,1.2 -2.1,2.2 -3.3,3.1c-1.2,0.9 -2.5,1.6 -3.9,2.1c-2.7,1.2 -5.6,1.9 -8.5,2.3c-1.4,0.2 -2.9,0.4 -4.3,0.5c-1.5,0.1 -2.9,0.2 -4.4,0.2c-1.5,0 -2.9,0 -4.4,-0.1c-1.5,-0.1 -2.9,-0.2 -4.4,-0.4l-0.2,0l-0.1,-0.2c-0.5,-1.1 -1,-2.1 -1.7,-3.1l-0.3,-0.3c-0.1,-0.1 -0.2,-0.2 -0.3,-0.3c-0.2,-0.2 -0.4,-0.4 -0.6,-0.6c-0.4,-0.4 -0.9,-0.7 -1.3,-1c-0.5,-0.3 -1,-0.5 -1.5,-0.7c-0.5,-0.2 -1.1,-0.2 -1.6,-0.3c-0.6,0 -1.1,0 -1.7,0.1c-0.6,0.1 -1.1,0.3 -1.6,0.5c1,-0.6 2.1,-0.9 3.3,-1c1.2,-0.1 2.3,0.2 3.4,0.8c0.5,0.3 1,0.6 1.5,1c0.2,0.2 0.5,0.4 0.7,0.6c0.1,0.1 0.2,0.2 0.3,0.3l0.3,0.4c0.8,1 1.4,2 1.9,3.1l-0.3,-0.2c1.4,0.1 2.9,0.2 4.3,0.3c1.4,0 2.9,0.1 4.3,0.1c0.7,0 1.4,0 2.2,-0.1c0.7,0 1.4,-0.1 2.2,-0.1c1.4,-0.1 2.9,-0.2 4.3,-0.4c0.7,-0.1 1.4,-0.2 2.1,-0.3c0.7,-0.1 1.4,-0.3 2.1,-0.4c1.4,-0.3 2.8,-0.7 4.1,-1.2c0.7,-0.2 1.3,-0.5 2,-0.8c0.7,-0.3 1.3,-0.6 1.9,-1c1.3,-0.9 2.5,-1.8 3.5,-2.9z" id="svg_39"/>
      <g id="svg_40">
       <defs>
        <path id="SVGID_1_" d="m375.8,288.6c0,0 1.5,15.7 5.8,16.4s22.7,0.4 22.7,0.4l7.6,-17.6c0,0 -12,9.4 -31.1,5.4c0,0 -3.2,-5.4 -5.2,-5.8l0.2,1.2z"/>
       </defs>
       <clipPath id="SVGID_2_">
        <use xlink:href="#SVGID_1_" id="svg_41"/>
       </clipPath>
       <path class="st13" d="m375.8,288.6c0,0 1.5,15.7 5.8,16.4s22.7,0.4 22.7,0.4l7.6,-17.6c0,0 -12,9.4 -31.1,5.4c0,0 -3.2,-5.4 -5.2,-5.8l0.2,1.2z" id="svg_42"/>
       <path class="st14" d="m383.7,300.9l0,0c-2,0 -3.5,-1.5 -3.5,-3.4l0,-0.6c0,-1.9 1.5,-3.4 3.4,-3.4l0.1,0c1.9,0 3.4,1.5 3.4,3.4l0,0.6c0,1.9 -1.6,3.4 -3.4,3.4z" id="svg_43"/>
       <path class="st14" d="m385.3,309.1l-1.7,0c-1.9,0 -3.4,-1.5 -3.4,-3.4l0,-0.6c0,-1.9 1.5,-3.4 3.4,-3.4l1.7,0c1.9,0 3.4,1.5 3.4,3.4l0,0.6c0,1.9 -1.6,3.4 -3.4,3.4z" id="svg_44"/>
       <path class="st14" d="m392.8,309.1l-1.7,0c-1.9,0 -3.4,-1.5 -3.4,-3.4l0,-0.6c0,-1.9 1.5,-3.4 3.4,-3.4l1.7,0c1.9,0 3.4,1.5 3.4,3.4l0,0.6c0,1.9 -1.5,3.4 -3.4,3.4z" id="svg_45"/>
       <path class="st14" d="m392.6,300.9l-1.3,0c-1.9,0 -3.4,-1.5 -3.4,-3.4l0,-0.6c0,-1.9 1.5,-3.4 3.4,-3.4l1.3,0c1.9,0 3.4,1.5 3.4,3.4l0,0.6c0,1.9 -1.5,3.4 -3.4,3.4z" id="svg_46"/>
       <path class="st14" d="m404.4,295.4l-0.3,0c-1.1,0 -2,-0.9 -2,-2l0,-0.4c0,-1.1 0.9,-2 2,-2l0.3,0c1.1,0 2,0.9 2,2l0,0.4c0,1.1 -0.9,2 -2,2z" id="svg_47"/>
       <path class="st14" d="m399.6,306.8l-0.3,0c-1.1,0 -2,-0.9 -2,-2l0,-0.4c0,-1.1 0.9,-2 2,-2l0.3,0c1.1,0 2,0.9 2,2l0,0.4c0,1.1 -0.9,2 -2,2z" id="svg_48"/>
       <path class="st14" d="m403.2,306.8l-0.3,0c-1.1,0 -2,-0.9 -2,-2l0,-0.4c0,-1.1 0.9,-2 2,-2l0.3,0c1.1,0 2,0.9 2,2l0,0.4c0,1.1 -0.9,2 -2,2z" id="svg_49"/>
       <path class="st14" d="m408.2,292.8l0,0c-0.6,0 -1.2,-0.5 -1.2,-1.1l0,-0.9c0,-0.6 0.5,-1.1 1.1,-1.1l0,0c0.6,0 1.1,0.5 1.1,1.1l0,0.9c0.1,0.6 -0.4,1.1 -1,1.1z" id="svg_50"/>
      </g>
     </g>
    </g>
    <g id="TONGUE">
     <g id="LENGUA">
      <g id="svg_51">
       <g id="svg_52">
        <path class="st15" d="m409.5,298.5c-5.4,-3.9 -10.6,-2.6 -13.5,-1.3l0,2c0,0.3 0,0.7 -0.1,0.9c3.1,2.1 8.6,6.1 11.4,11.7c4.1,8.1 10.3,-7.4 2.2,-13.3z" id="svg_53"/>
       </g>
       <path class="st16" d="m397.7,298.2c1.3,0 2.7,0.2 4,0.5c1.3,0.3 2.6,0.8 3.8,1.4c0.3,0.2 0.6,0.3 0.9,0.5c0.3,0.2 0.6,0.4 0.9,0.6c0.6,0.4 1.1,0.9 1.6,1.5c0.5,0.6 0.9,1.2 1.1,1.9c0.2,0.7 0.2,1.5 0.1,2.2c0,-0.4 -0.1,-0.7 -0.2,-1c-0.1,-0.3 -0.2,-0.6 -0.4,-0.9c-0.3,-0.6 -0.7,-1.1 -1.2,-1.5c-0.9,-0.9 -2,-1.5 -3.2,-2.1c-1.1,-0.6 -2.3,-1.1 -3.6,-1.6c-1.3,-0.5 -2.6,-1 -3.8,-1.5z" id="svg_54"/>
      </g>
     </g>
    </g>
   </g>
   <g id="SIGN" class="st1">
    <polygon class="st17" points="468,374.2 333.5,400.6 322.6,336.1 457.2,309.7   " id="svg_55"/>
    <g id="LIKE">
     <text transform="matrix(0.9903,-0.3419,0.2844,0.9587,353.9515,383.1409) " class="st3 st18 st19" id="svg_56">Like</text>
     <path class="st3" d="m359.7,382c1.5,0.9 1.1,3.3 0.2,3.9c-0.9,0.7 -3.1,0.3 -3.3,-1.6c-0.3,-2 -0.8,-2.9 0.1,-3.6c0.8,-0.6 1.4,0.4 3,1.3z" id="svg_57"/>
     <path class="st3" d="m376.6,373.7c1.5,0.9 1.1,3.3 0.2,3.9c-0.9,0.7 -3.1,0.3 -3.3,-1.6c-0.3,-2 -0.8,-2.9 0.1,-3.6c0.8,-0.5 1.4,0.4 3,1.3z" id="svg_58"/>
     <path class="st3" d="m365.9,380.3c1.5,0.9 1.1,3.3 0.2,3.9c-0.9,0.7 -3.1,0.3 -3.3,-1.6c-0.3,-2 -0.8,-2.9 0.1,-3.6c0.7,-0.5 1.4,0.4 3,1.3z" id="svg_59"/>
     <path class="st3" d="m367,385.6c0.8,0.5 0.6,1.7 0.1,2.1s-1.6,0.2 -1.8,-0.8c-0.1,-1.1 -0.4,-1.5 0,-1.9s0.8,0.1 1.7,0.6z" id="svg_60"/>
     <path class="st3" d="m360.7,386.2c1.2,0.7 0.8,2.5 0.1,3c-0.7,0.5 -2.4,0.2 -2.6,-1.2c-0.2,-1.6 -0.6,-2.2 0,-2.8c0.8,-0.4 1.3,0.2 2.5,1z" id="svg_61"/>
     <path class="st3" d="m368.4,387.8c0.8,0.5 0.5,1.7 0.1,2s-1.6,0.2 -1.7,-0.8c-0.1,-1 -0.4,-1.5 0,-1.8c0.5,-0.4 0.8,0.1 1.6,0.6z" id="svg_62"/>
     <path class="st3" d="m385.8,374.5c1.5,0.9 1.1,3.3 0.2,3.9c-0.9,0.7 -3.1,0.3 -3.3,-1.6c-0.3,-2 -0.8,-2.9 0.1,-3.6c0.8,-0.5 1.4,0.4 3,1.3z" id="svg_63"/>
     <path class="st3" d="m395.4,374.7c1.3,0.8 0.9,2.8 0.2,3.4c-0.8,0.6 -2.7,0.3 -2.9,-1.3c-0.2,-1.7 -0.7,-2.5 0,-3.1c0.8,-0.6 1.3,0.2 2.7,1z" id="svg_64"/>
     <path class="st3" d="m416.5,362.1c1.5,0.9 1.1,3.3 0.2,3.9c-0.9,0.7 -3.1,0.3 -3.3,-1.6c-0.3,-2 -0.8,-2.9 0.1,-3.6c0.7,-0.5 1.4,0.4 3,1.3z" id="svg_65"/>
     <path class="st3" d="m422.9,357.6c1.3,0.7 0.9,2.7 0.2,3.3s-2.6,0.2 -2.8,-1.3c-0.2,-1.7 -0.7,-2.4 0,-3c0.8,-0.5 1.3,0.2 2.6,1z" id="svg_66"/>
     <path class="st3" d="m420.3,366.3c1.5,0.9 1.1,3.3 0.2,3.9c-0.9,0.7 -3.1,0.3 -3.3,-1.6c-0.3,-2 -0.8,-2.9 0.1,-3.6c0.8,-0.6 1.4,0.3 3,1.3z" id="svg_67"/>
     <path class="st3" d="m367.2,377.2c1.2,1.1 1.4,3 1,3.3c-0.4,0.3 -2,-0.5 -2.6,-2.1c-0.6,-1.8 -1.2,-2.6 -0.7,-3c0.5,-0.3 1.1,0.6 2.3,1.8z" id="svg_68"/>
     <path class="st3" d="m392.2,361.8c0.8,0.4 0.5,1.6 0.1,2c-0.4,0.3 -1.5,0.1 -1.7,-0.8c-0.1,-1 -0.4,-1.5 0,-1.8c0.5,-0.4 0.8,0.1 1.6,0.6z" id="svg_69"/>
     <path class="st3" d="m411.9,348.1c1.5,0.9 1.1,3.3 0.2,3.9c-0.9,0.7 -3.1,0.3 -3.3,-1.6c-0.3,-2 -0.8,-2.9 0.1,-3.6c0.7,-0.6 1.4,0.3 3,1.3z" id="svg_70"/>
     <path class="st3" d="m420.3,348.1c1.5,0.9 1.1,3.3 0.2,3.9c-0.9,0.7 -3.1,0.3 -3.3,-1.6c-0.3,-2 -0.8,-2.9 0.1,-3.6c0.8,-0.6 1.4,0.3 3,1.3z" id="svg_71"/>
     <path class="st3" d="m410.3,361.3c1.5,0.9 1.1,3.3 0.2,3.9c-0.9,0.7 -3.1,0.3 -3.3,-1.6c-0.3,-2 -0.8,-2.9 0.1,-3.6c0.8,-0.5 1.4,0.4 3,1.3z" id="svg_72"/>
     <path class="st3" d="m401,349.5c1.3,0.9 1.1,3 0.4,3.5c-0.7,0.5 -2.6,0 -2.9,-1.6c-0.4,-1.8 -0.9,-2.6 -0.2,-3.1c0.7,-0.6 1.3,0.2 2.7,1.2z" id="svg_73"/>
    </g>
    <g id="share2">
     <text transform="matrix(0.9903,-0.3419,0.2844,0.9587,347.818,383.1398) " class="st3 st18 st19" id="svg_74">Share</text>
     <path class="st3" d="m353.6,379.5c1.5,0.9 1.1,3.3 0.2,3.9c-0.9,0.7 -3.1,0.3 -3.3,-1.6c-0.3,-2 -0.8,-2.9 0.1,-3.6c0.8,-0.5 1.4,0.4 3,1.3z" id="svg_75"/>
     <path class="st3" d="m380.4,361.3c1.5,0.9 1.1,3.3 0.2,3.9c-0.9,0.7 -3.1,0.3 -3.3,-1.6c-0.3,-2 -0.8,-2.9 0.1,-3.6c0.8,-0.5 1.4,0.4 3,1.3z" id="svg_76"/>
     <path class="st3" d="m359.7,379.5c1.5,0.9 1.1,3.3 0.2,3.9c-0.9,0.7 -3.1,0.3 -3.3,-1.6c-0.3,-2 -0.8,-2.9 0.1,-3.6c0.8,-0.5 1.4,0.4 3,1.3z" id="svg_77"/>
     <path class="st3" d="m360.9,385.6c0.8,0.5 0.6,1.7 0.1,2.1c-0.5,0.3 -1.6,0.2 -1.8,-0.8c-0.1,-1.1 -0.4,-1.5 0,-1.9s0.8,0.1 1.7,0.6z" id="svg_78"/>
     <path class="st3" d="m354.6,386.2c1.2,0.7 0.8,2.5 0.1,3c-0.7,0.5 -2.4,0.2 -2.6,-1.2c-0.2,-1.6 -0.6,-2.2 0,-2.8c0.7,-0.4 1.2,0.2 2.5,1z" id="svg_79"/>
     <path class="st3" d="m362.3,387.8c0.8,0.5 0.5,1.7 0.1,2s-1.6,0.2 -1.7,-0.8c-0.1,-1 -0.4,-1.5 0,-1.8s0.8,0.1 1.6,0.6z" id="svg_80"/>
     <path class="st3" d="m376.6,375.4c1.5,0.9 1.1,3.3 0.2,3.9c-0.9,0.7 -3.1,0.3 -3.3,-1.6c-0.3,-2 -0.8,-2.9 0.1,-3.6c0.8,-0.6 1.4,0.3 3,1.3z" id="svg_81"/>
     <path class="st3" d="m386.2,369.8c1.3,0.8 0.9,2.8 0.2,3.4s-2.7,0.3 -2.9,-1.3c-0.2,-1.7 -0.7,-2.5 0,-3.1c0.8,-0.6 1.3,0.1 2.7,1z" id="svg_82"/>
     <path class="st3" d="m410.3,362.1c1.5,0.9 1.1,3.3 0.2,3.9c-0.9,0.7 -3.1,0.3 -3.3,-1.6c-0.3,-2 -0.8,-2.9 0.1,-3.6c0.8,-0.5 1.4,0.4 3,1.3z" id="svg_83"/>
     <path class="st3" d="m426,341.9c1.3,0.7 0.9,2.7 0.2,3.3c-0.7,0.5 -2.6,0.2 -2.8,-1.3c-0.2,-1.7 -0.7,-2.4 0,-3s1.3,0.2 2.6,1z" id="svg_84"/>
     <path class="st3" d="m412.1,366.2c1.1,0.9 1.2,2.6 0.7,2.9c-0.4,0.3 -1.9,-0.3 -2.3,-1.7c-0.5,-1.5 -1,-2.3 -0.5,-2.6c0.4,-0.4 0.9,0.4 2.1,1.4z" id="svg_85"/>
     <path class="st3" d="m361.1,377.2c1.2,1.1 1.4,3 1,3.3c-0.4,0.3 -2,-0.5 -2.6,-2.1c-0.6,-1.8 -1.2,-2.6 -0.7,-3c0.4,-0.3 1,0.6 2.3,1.8z" id="svg_86"/>
     <path class="st3" d="m409.1,365.9c0.8,0.4 0.5,1.6 0.1,2c-0.4,0.3 -1.5,0.1 -1.7,-0.8c-0.1,-1 -0.4,-1.5 0,-1.8c0.5,-0.3 0.8,0.1 1.6,0.6z" id="svg_87"/>
     <path class="st3" d="m405.7,348.1c1.5,0.9 1.1,3.3 0.2,3.9c-0.9,0.7 -3.1,0.3 -3.3,-1.6c-0.3,-2 -0.8,-2.9 0.1,-3.6c0.8,-0.6 1.4,0.3 3,1.3z" id="svg_88"/>
     <path class="st20" d="m414.2,348.1c1.5,0.9 1.1,3.3 0.2,3.9c-0.9,0.7 -3.1,0.3 -3.3,-1.6c-0.3,-2 -0.8,-2.9 0.1,-3.6c0.7,-0.6 1.4,0.3 3,1.3z" id="svg_89"/>
     <path class="st3" d="m404.2,361.3c1.5,0.9 1.1,3.3 0.2,3.9c-0.9,0.7 -3.1,0.3 -3.3,-1.6c-0.3,-2 -0.8,-2.9 0.1,-3.6c0.8,-0.5 1.4,0.4 3,1.3z" id="svg_90"/>
     <path class="st3" d="m394.9,349.5c1.3,0.9 1.1,3 0.4,3.5c-0.7,0.5 -2.6,0 -2.9,-1.6c-0.4,-1.8 -0.9,-2.6 -0.2,-3.1c0.7,-0.6 1.3,0.2 2.7,1.2z" id="svg_91"/>
    </g>
   </g>
   <g id="share">
    <g class="st1" id="svg_92">
     <text transform="matrix(0.9563,-0.2923,0.2923,0.9563,304.0801,372.1786) " class="st3 st18 st21" id="svg_93">Share</text>
    </g>
    <polygon class="st22" points="442.5,289.5 486.5,289.5 486.5,289.5 442.5,289.5   " id="svg_94"/>
    <g id="svg_95"/>
   </g>
   <g id="HAND_1" class="st1">
    <g id="svg_96">
     <g id="svg_97">
      <path class="st6" d="m462.5,329.3l-10.2,0c-1.2,0 -2.2,-1 -2.2,-2.2l0,-0.4c0,-1.2 1,-2.2 2.2,-2.2l10.2,0c1.2,0 2.2,1 2.2,2.2l0,0.4c0,1.2 -1,2.2 -2.2,2.2z" id="svg_98"/>
      <path class="st23" d="m453.1,327.9l-0.7,0c-0.6,0 -1.2,-0.5 -1.2,-1.2l0,-0.2c0,-0.6 0.5,-1.2 1.2,-1.2l0.7,0c0.6,0 1.2,0.5 1.2,1.2l0,0.2c0,0.7 -0.5,1.2 -1.2,1.2z" id="svg_99"/>
     </g>
     <g id="svg_100">
      <g id="svg_101">
       <path class="st6" d="m464.4,334l-10.2,0c-1.2,0 -2.2,-1 -2.2,-2.2l0,-0.4c0,-1.2 1,-2.2 2.2,-2.2l10.2,0c1.2,0 2.2,1 2.2,2.2l0,0.4c-0.1,1.2 -1,2.2 -2.2,2.2z" id="svg_102"/>
      </g>
      <path class="st23" d="m455,332.8l-0.7,0c-0.6,0 -1.1,-0.5 -1.1,-1.1l0,-0.2c0,-0.6 0.5,-1.1 1.1,-1.1l0.7,0c0.6,0 1.1,0.5 1.1,1.1l0,0.2c-0.1,0.6 -0.5,1.1 -1.1,1.1z" id="svg_103"/>
     </g>
     <g id="svg_104">
      <path class="st6" d="m462.5,338.7l-10.2,0c-1.2,0 -2.2,-1 -2.2,-2.2l0,-0.4c0,-1.2 1,-2.2 2.2,-2.2l10.2,0c1.2,0 2.2,1 2.2,2.2l0,0.4c0,1.2 -1,2.2 -2.2,2.2z" id="svg_105"/>
      <path class="st23" d="m453.1,337.6l-0.7,0c-0.6,0 -1.2,-0.5 -1.2,-1.2l0,-0.2c0,-0.6 0.5,-1.2 1.2,-1.2l0.7,0c0.6,0 1.2,0.5 1.2,1.2l0,0.2c0,0.7 -0.5,1.2 -1.2,1.2z" id="svg_106"/>
     </g>
    </g>
   </g>
   <g id="HAND_2" class="st1">
    <g id="svg_107">
     <g id="svg_108">
      <path class="st6" d="m351.6,402.9l0.6,-11.1c0.1,-1.3 1.1,-2.2 2.2,-2.2l0.1,0c1.2,0.1 2.1,1.2 2,2.4l-0.6,11.1c-0.1,1.3 -1.1,2.2 -2.2,2.2l-0.1,0c-1.2,-0.1 -2.1,-1.2 -2,-2.4z" id="svg_109"/>
      <path class="st23" d="m353.4,392.8l0,-0.8c0,-0.7 0.6,-1.2 1.2,-1.2l0.1,0c0.6,0 1.1,0.6 1.1,1.3l0,0.8c0,0.7 -0.6,1.2 -1.2,1.2l-0.1,0c-0.7,0 -1.2,-0.6 -1.1,-1.3z" id="svg_110"/>
     </g>
     <g id="svg_111">
      <g id="svg_112">
       <path class="st6" d="m347.1,404.6l0.6,-11.1c0.1,-1.3 1.1,-2.2 2.2,-2.2l0.1,0c1.2,0.1 2.1,1.2 2,2.4l-0.6,11.1c-0.1,1.3 -1.1,2.2 -2.2,2.2l-0.1,0c-1.2,-0.1 -2.1,-1.1 -2,-2.4z" id="svg_113"/>
      </g>
      <path class="st23" d="m348.7,394.5l0,-0.8c0,-0.6 0.5,-1.1 1.1,-1.1l0.1,0c0.6,0 1,0.6 1,1.2l0,0.8c0,0.6 -0.5,1.1 -1.1,1.1l-0.1,0c-0.6,0 -1,-0.6 -1,-1.2z" id="svg_114"/>
     </g>
     <g id="svg_115">
      <path class="st6" d="m342.8,402.3l0.6,-11.1c0.1,-1.3 1.1,-2.2 2.2,-2.2l0.1,0c1.2,0.1 2.1,1.2 2,2.4l-0.6,11.1c-0.1,1.3 -1.1,2.2 -2.2,2.2l-0.1,0c-1.1,0 -2,-1.1 -2,-2.4z" id="svg_116"/>
      <path class="st23" d="m344.4,392.3l0,-0.8c0,-0.7 0.6,-1.2 1.2,-1.2l0.1,0c0.6,0 1.1,0.6 1.1,1.3l0,0.8c0,0.7 -0.6,1.2 -1.2,1.2l-0.1,0c-0.7,-0.1 -1.2,-0.7 -1.1,-1.3z" id="svg_117"/>
     </g>
    </g>
   </g>
  </g>
  <g stroke="null" id="monster2">
   <g stroke="null" id="svg_118">
    <path stroke="null" class="st24" d="m193.66745,140.02761c0.11887,2.02085 0.35662,4.04169 0.71324,6.06254c0.35662,2.02085 0.71324,3.92282 1.30761,5.82479c0.59437,1.90197 1.30761,3.68507 2.37747,5.3493c0.59437,0.83211 1.18873,1.54535 1.90197,2.02085c0.71324,0.59437 1.54535,0.95099 2.37747,1.18873c0.47549,0.11887 0.83211,0.11887 1.30761,0.23775c0.47549,0 0.83211,0 1.30761,0c0.83211,-0.11887 1.66423,-0.47549 2.49634,-0.95099c0.71324,-0.47549 1.42648,-1.06986 2.02085,-1.90197c0.59437,-0.71324 1.06986,-1.54535 1.54535,-2.37747c0.83211,-1.7831 1.54535,-3.68507 2.02085,-5.58704c0.47549,-1.90197 0.83211,-3.92282 1.06986,-5.94366c0,2.02085 -0.23775,4.04169 -0.59437,6.06254c-0.23775,0.95099 -0.47549,2.02085 -0.71324,2.97183c-0.23775,0.95099 -0.59437,1.90197 -1.06986,2.85296c-0.47549,0.95099 -0.95099,1.90197 -1.54535,2.61521c-0.59437,0.83211 -1.30761,1.54535 -2.25859,2.13972c-0.83211,0.59437 -1.7831,0.95099 -2.85296,1.06986c-0.47549,0.11887 -0.95099,0.11887 -1.54535,0.11887c-0.47549,0 -0.95099,-0.11887 -1.54535,-0.23775c-0.47549,-0.11887 -0.95099,-0.35662 -1.42648,-0.59437c-0.47549,-0.23775 -0.83211,-0.47549 -1.30761,-0.83211c-0.83211,-0.59437 -1.54535,-1.42648 -2.02085,-2.25859c-0.59437,-0.83211 -1.06986,-1.7831 -1.42648,-2.73409c-0.35662,-0.95099 -0.71324,-1.90197 -0.95099,-2.97183c-0.59437,-2.02085 -0.83211,-4.04169 -1.06986,-6.06254c-0.11887,-2.02085 -0.23775,-4.04169 -0.11887,-6.06254z" id="svg_119"/>
    <ellipse stroke="null" class="st24" cx="204.84154" cy="155.36227" rx="1.06986" ry="1.06986" id="svg_120"/>
   </g>
   <g stroke="null" id="svg_121">
    <path stroke="null" class="st24" d="m155.50913,140.02761c0.11887,2.02085 0.35662,4.04169 0.71324,6.06254c0.35662,2.02085 0.71324,3.92282 1.30761,5.82479c0.59437,1.90197 1.30761,3.68507 2.37747,5.3493c0.59437,0.83211 1.18873,1.54535 1.90197,2.02085c0.71324,0.59437 1.54535,0.95099 2.37747,1.18873c0.47549,0.11887 0.83211,0.11887 1.30761,0.23775c0.47549,0 0.83211,0 1.30761,0c0.83211,-0.11887 1.66423,-0.47549 2.49634,-0.95099c0.71324,-0.47549 1.42648,-1.06986 2.02085,-1.90197c0.59437,-0.71324 1.06986,-1.54535 1.54535,-2.37747c0.83211,-1.7831 1.54535,-3.68507 2.02085,-5.58704c0.47549,-1.90197 0.83211,-3.92282 1.06986,-5.94366c0,2.02085 -0.23775,4.04169 -0.59437,6.06254c-0.23775,0.95099 -0.47549,2.02085 -0.71324,2.97183c-0.23775,0.95099 -0.59437,1.90197 -1.06986,2.85296c-0.47549,0.95099 -0.95099,1.90197 -1.54535,2.61521c-0.59437,0.83211 -1.30761,1.54535 -2.25859,2.13972c-0.83211,0.59437 -1.7831,0.95099 -2.85296,1.06986c-0.47549,0.11887 -0.95099,0.11887 -1.54535,0.11887c-0.47549,0 -0.95099,-0.11887 -1.54535,-0.23775c-0.47549,-0.11887 -0.95099,-0.35662 -1.42648,-0.59437c-0.47549,-0.23775 -0.83211,-0.47549 -1.30761,-0.83211c-0.83211,-0.59437 -1.54535,-1.42648 -2.02085,-2.25859c-0.59437,-0.83211 -1.06986,-1.7831 -1.42648,-2.73409c-0.35662,-0.95099 -0.71324,-1.90197 -0.95099,-2.97183c-0.59437,-2.02085 -0.83211,-4.04169 -1.06986,-6.06254c-0.11887,-2.02085 -0.23775,-4.04169 -0.11887,-6.06254z" id="svg_122"/>
    <ellipse stroke="null" class="st24" cx="166.08885" cy="155.36227" rx="1.06986" ry="1.06986" id="svg_123"/>
   </g>
   <path stroke="null" class="st25" d="m152.77505,334.38541l18.06874,0c1.18873,0 2.13972,-1.06986 2.13972,-2.25859l0,-0.47549c-7.37014,-1.30761 -14.14592,-1.18873 -14.14592,-1.18873s-4.04169,1.06986 -7.96451,2.49634c0.23775,0.83211 1.06986,1.42648 1.90197,1.42648z" id="svg_124"/>
   <g stroke="null" id="svg_125">
    <g stroke="null" id="svg_126">
     <path stroke="null" class="st26" d="m205.67365,334.38541l-2.13972,0c-5.58704,0 -10.10423,-4.51718 -10.10423,-10.10423l0,-99.85355c0,-5.58704 4.51718,-10.10423 10.10423,-10.10423l2.13972,0c5.58704,0 10.10423,4.51718 10.10423,10.10423l0,99.85355c-0.11887,5.58704 -4.63606,10.10423 -10.10423,10.10423z" id="svg_127"/>
     <path stroke="null" class="st25" d="m199.72999,330.46259c0,0 -19.73296,5.46817 -14.62141,7.60789c5.11155,2.13972 6.53803,5.11155 6.53803,5.11155s-6.77578,32.9279 -4.04169,34.71099s43.26987,4.04169 43.74536,1.66423c0.47549,-2.25859 5.82479,-7.84564 -9.86648,-9.50986s-9.39099,-24.72564 -9.39099,-24.72564s15.5724,-10.10423 6.6569,-12.60057c-8.79662,-2.49634 -19.01972,-2.25859 -19.01972,-2.25859z" id="svg_128"/>
    </g>
    <g stroke="null" id="svg_129">
     <path stroke="null" class="st26" d="m220.65168,197.32453l-2.73409,-22.58592l-1.42648,-58.12903c0,-10.57972 -7.96451,-19.1386 -17.71212,-19.1386l-30.31268,0c-9.74761,0 -17.71212,8.55888 -17.71212,19.1386l0,66.09354l23.65578,14.74029l46.2417,0l0,-0.11887z" id="svg_130"/>
     <path stroke="null" class="st26" d="m220.17619,225.97299c1.66423,-2.97183 2.73409,-6.41916 2.73409,-10.10423l-1.30761,-10.93634l-35.18649,0l33.76001,21.04057z" id="svg_131"/>
     <path stroke="null" class="st26" d="m150.63533,204.93242l0,8.9155c0,10.57972 7.96451,19.1386 17.71212,19.1386l36.73184,2.02085c3.68507,0 7.25127,-1.30761 10.10423,-3.44732l-42.79438,-26.62761l-21.75381,0z" id="svg_132"/>
     <polygon stroke="null" class="st25" points="186.41617012023926,204.93242073059082 221.60264778137207,204.93242073059082 220.651704788208,197.324556350708 174.291109085083,197.324556350708 " id="svg_133"/>
     <polygon stroke="null" class="st25" points="160.38292121887207,197.324556350708 150.63533210754395,197.324556350708 150.63533210754395,204.93242073059082 172.50801277160645,204.93242073059082 " id="svg_134"/>
     <polygon stroke="null" class="st25" points="174.291109085083,197.324556350708 150.63533210754395,182.5842456817627 150.63533210754395,191.26201057434082 160.38292121887207,197.324556350708 " id="svg_135"/>
     <path stroke="null" class="st25" d="m220.17619,225.97299l-33.76001,-21.04057l-13.90817,0l42.79438,26.62761c1.90197,-1.54535 3.5662,-3.44732 4.8738,-5.58704z" id="svg_136"/>
     <polygon stroke="null" class="st25" points="160.38292121887207,197.324556350708 172.50801277160645,204.93242073059082 186.41617012023926,204.93242073059082 174.291109085083,197.324556350708 " id="svg_137"/>
     <polygon stroke="null" class="st26" points="150.63533210754395,191.26201057434082 150.63533210754395,197.324556350708 160.38292121887207,197.324556350708 " id="svg_138"/>
    </g>
    <g stroke="null" id="svg_139">
     <path stroke="null" class="st25" d="m180.47252,370.04739c-15.69127,-1.66423 -9.39099,-24.72564 -9.39099,-24.72564s15.5724,-10.10423 6.6569,-12.60057c-1.54535,-0.47549 -3.20958,-0.83211 -4.8738,-1.06986l0,0.47549c0,1.30761 -0.95099,2.25859 -2.13972,2.25859l-18.06874,0c-0.95099,0 -1.66423,-0.59437 -2.02085,-1.42648c-4.75493,1.7831 -9.50986,3.92282 -6.6569,5.11155c5.11155,2.13972 6.53803,5.11155 6.53803,5.11155s-6.77578,32.9279 -4.04169,34.71099s43.26987,4.04169 43.74536,1.66423c0.71324,-2.25859 5.94366,-7.84564 -9.74761,-9.50986z" id="svg_140"/>
     <g stroke="null" id="svg_141">
      <path stroke="null" class="st26" d="m172.9835,331.53245l0,-60.031l-0.23775,0.35662l-11.88733,-10.57972l-10.10423,6.30028l0,64.54819c0,0.23775 0,0.59437 0.11887,0.83211c3.92282,-1.42648 7.96451,-2.49634 7.96451,-2.49634s6.77578,-0.23775 14.14592,1.06986z" id="svg_142"/>
      <path stroke="null" class="st26" d="m172.9835,246.53806l0,-29.83719c0,-1.30761 -0.95099,-2.25859 -2.13972,-2.25859l-18.06874,0c-1.18873,0 -2.13972,1.06986 -2.13972,2.25859l0,27.69747l10.69859,9.39099l11.64958,-7.25127z" id="svg_143"/>
      <polygon stroke="null" class="st26" points="172.983491897583,264.0124225616455 172.983491897583,253.78935432434082 166.20770454406738,258.06880378723145 " id="svg_144"/>
      <polygon stroke="null" class="st26" points="150.63533210754395,252.48172187805176 150.63533210754395,260.44629096984863 155.98460578918457,257.117769241333 " id="svg_145"/>
      <polygon stroke="null" class="st25" points="166.20770454406738,258.06880378723145 172.983491897583,253.78935432434082 172.983491897583,246.5380573272705 161.33392524719238,253.78935432434082 " id="svg_146"/>
      <polygon stroke="null" class="st25" points="155.98460578918457,257.117769241333 150.63533210754395,260.44629096984863 150.63533210754395,267.6974506378174 160.73953437805176,261.39721870422363 " id="svg_147"/>
      <polygon stroke="null" class="st25" points="161.33392524719238,253.78935432434082 150.63533210754395,244.39834785461426 150.63533210754395,252.48172187805176 155.98460578918457,257.117769241333 " id="svg_148"/>
      <polygon stroke="null" class="st25" points="160.73953437805176,261.39721870422363 172.74571418762207,271.85803413391113 172.983491897583,271.5014362335205 172.983491897583,264.0124225616455 166.20770454406738,258.06880378723145 " id="svg_149"/>
      <polygon stroke="null" class="st25" points="161.33392524719238,253.78935432434082 155.98460578918457,257.117769241333 160.73953437805176,261.39721870422363 166.20770454406738,258.06880378723145 " id="svg_150"/>
     </g>
    </g>
   </g>
   <g stroke="null" id="svg_151">
    <path stroke="null" class="st27" d="m214.3514,109.35831l33.16564,58.36678c0,0 39.10931,34.2355 11.17409,45.05297c-27.81635,10.93634 -28.52958,-38.75269 -28.52958,-38.75269l-21.75381,-38.51494c0,0.11887 0,-27.34085 5.94366,-26.15212z" id="svg_152"/>
    <polygon stroke="null" class="st28" points="245.73396492004395,211.3515796661377 264.8725299835205,261.51611518859863 249.6567554473877,211.3515796661377 " id="svg_153"/>
    <polygon stroke="null" class="st28" points="254.173921585083,209.80623054504395 273.1936664581299,260.08963203430176 257.977876663208,209.80623054504395 " id="svg_154"/>
    <polygon stroke="null" class="st28" points="262.01956367492676,206.35891914367676 281.1581745147705,256.64232063293457 265.94241523742676,206.35891914367676 " id="svg_155"/>
    <polygon stroke="null" class="st28" points="263.44607734680176,191.85637092590332 294.11538887023926,179.13691902160645 264.3970355987549,187.81469917297363 " id="svg_156"/>
   </g>
   <g stroke="null" id="mon1-arm-2">
    <path stroke="null" class="st27" d="m153.36941,104.72225c0,0 -35.18649,48.14367 -14.50254,77.14875s66.80678,-2.61521 66.80678,-2.61521l-11.53071,-19.61409c0,0 -34.59212,22.34817 -36.61297,10.81747c-2.13972,-11.53071 -0.35662,-44.57748 6.89465,-46.59832c7.25127,-1.90197 -11.05521,-19.1386 -11.05521,-19.1386z" id="svg_157"/>
    <path stroke="null" class="st27" d="m193.66745,162.85128c0,0 -9.39099,-19.01972 -5.11155,-18.18761c4.27944,0.83211 11.17409,14.74029 11.17409,14.74029s10.57972,-10.93634 13.67043,-7.84564c3.20958,3.09071 15.21578,21.39719 6.53803,25.08226c-8.79662,3.68507 -19.97071,3.09071 -19.97071,3.09071l-6.30028,-16.88z" id="svg_158"/>
   </g>
   <g stroke="null" id="svg_159">
    <path stroke="null" class="st27" d="m210.07196,80.47211c1.30761,-3.09071 -2.13972,-7.01352 -2.13972,-7.01352l0,0l-8.32113,-28.05409c-1.18873,-11.76845 -10.93634,-20.20846 -21.87268,-19.01972l-4.51718,0.47549c-10.81747,1.30761 -18.78198,11.88733 -17.59324,23.53691l3.32845,33.87888c-2.02085,4.75493 -4.27944,12.0062 -2.73409,17.11775c0,0 -0.47549,2.13972 5.58704,5.11155c0,0 17.23662,54.32508 31.50142,49.21353c14.26479,-5.11155 11.88733,-32.33353 11.88733,-32.33353s3.09071,-5.94366 2.73409,-11.76845c0,0 1.90197,-12.48169 0.11887,-15.81014c-0.47549,-0.95099 -1.06986,-2.13972 -1.66423,-3.5662c2.49634,-3.68507 4.04169,-7.72676 3.68507,-11.76845z" id="svg_160"/>
    <g stroke="null" id="svg_161">
     <defs stroke="null" transform="translate(28.7924 28.7924) translate(-25.6223 -25.6223) translate(0 -3) translate(13.2853 -13.2853) translate(1 0) translate(0 -110.318) translate(-193.352 -2.84217e-14) translate(107.159 39.3884) scale(1.12632 1.12632) translate(-107.159 -39.3884) translate(97.0182 34.971) scale(1.03137 1.03137) translate(-97.0182 -34.971) translate(103.528 22.4707) scale(1.006 1.006) translate(-103.528 -22.4707) translate(97.2598 19.7696) scale(1.01721 1.01721) translate(-97.2598 -19.7696)">
      <path stroke="null" id="SVGID_3_" d="m152.5,213.8c0,0 -0.9,-13 8.7,-19c0,0 18.5,-5.5 27.6,-3.6c0,0 6.5,2.4 1.1,6.7l-3.8,1c0,0 0.2,2.2 1.1,3.4c0.9,1.2 2.5,3.5 3.4,6.1c0.9,2.6 0.1,15.5 0.1,15.5s-4.5,12.4 -4.9,13.9c-0.6,1.8 0.1,17.3 -7.1,17.2c0,0 -4.8,2 -11.4,-13.9c-0.1,0 -8.1,-24.7 -14.8,-27.3z"/>
     </defs>
     <clipPath stroke="null" transform="translate(28.7924 28.7924) translate(-25.6223 -25.6223) translate(0 -3) translate(13.2853 -13.2853) translate(1 0) translate(0 -110.318) translate(-193.352 -2.84217e-14) translate(107.159 39.3884) scale(1.12632 1.12632) translate(-107.159 -39.3884) translate(97.0182 34.971) scale(1.03137 1.03137) translate(-97.0182 -34.971) translate(103.528 22.4707) scale(1.006 1.006) translate(-103.528 -22.4707) translate(97.2598 19.7696) scale(1.01721 1.01721) translate(-97.2598 -19.7696)" id="SVGID_4_">
      <use stroke="null" xlink:href="#SVGID_3_" id="svg_162"/>
     </clipPath>
     <g stroke="null" class="st29" id="svg_163">
      <path stroke="null" class="st30" d="m161.09617,102.46366c0,0 -1.06986,-15.45353 10.34197,-22.58592c0,0 21.99156,-6.53803 32.80902,-4.27944c0,0 7.72676,2.85296 1.30761,7.96451l-4.51718,1.18873c0,0 0.23775,2.61521 1.30761,4.04169c1.06986,1.42648 2.97183,4.16056 4.04169,7.25127c1.06986,3.09071 0.11887,18.42536 0.11887,18.42536s-5.3493,14.74029 -5.82479,16.52338c-0.71324,2.13972 0.11887,20.56508 -8.44,20.4462c0,0 -5.70592,2.37747 -13.55155,-16.52338c-0.11887,0 -9.62873,-29.3617 -17.59324,-32.4524z" id="svg_164"/>
      <path stroke="null" class="st31" d="m177.97618,114.46986l-0.35662,0c-0.83211,0 -1.42648,-0.59437 -1.42648,-1.42648l0,-2.61521c0,-0.83211 0.59437,-1.42648 1.42648,-1.42648l0.35662,0c0.83211,0 1.42648,0.59437 1.42648,1.42648l0,2.61521c0,0.71324 -0.59437,1.42648 -1.42648,1.42648z" id="svg_165"/>
      <path stroke="null" class="st31" d="m192.71646,117.20395l-0.35662,0c-0.83211,0 -1.42648,-0.59437 -1.42648,-1.42648l0,-2.61521c0,-0.83211 0.59437,-1.42648 1.42648,-1.42648l0.35662,0c0.83211,0 1.42648,0.59437 1.42648,1.42648l0,2.61521c0,0.83211 -0.71324,1.42648 -1.42648,1.42648z" id="svg_166"/>
      <path stroke="null" class="st31" d="m198.42238,113.28113l-0.35662,0c-0.83211,0 -1.42648,-0.59437 -1.42648,-1.42648l0,-2.61521c0,-0.83211 0.59437,-1.42648 1.42648,-1.42648l0.35662,0c0.83211,0 1.42648,0.59437 1.42648,1.42648l0,2.61521c0,0.83211 -0.71324,1.42648 -1.42648,1.42648z" id="svg_167"/>
     </g>
     <ellipse stroke="null" class="st32" cx="181.66125" cy="82.84957" rx="10.81747" ry="11.64958" id="svg_168"/>
     <g stroke="null" class="st29" id="svg_169">
      <path stroke="null" class="st33" d="m187.48604,81.66084l-11.76845,2.61521c-1.90197,0.47549 -3.80394,-0.95099 -4.27944,-2.97183l0,-0.23775c-0.35662,-2.13972 0.83211,-4.16056 2.85296,-4.63606l11.76845,-2.61521c1.90197,-0.47549 3.80394,0.95099 4.27944,2.97183l0,0.23775c0.35662,2.02085 -0.95099,4.16056 -2.85296,4.63606z" id="svg_170"/>
      <path stroke="null" class="st31" d="m174.52885,86.77239l-0.23775,0c-0.47549,0 -0.83211,-0.35662 -0.83211,-0.83211l0,-2.25859c0,-0.47549 0.35662,-0.83211 0.83211,-0.83211l0.23775,0c0.47549,0 0.83211,0.35662 0.83211,0.83211l0,2.13972c0,0.47549 -0.35662,0.95099 -0.83211,0.95099z" id="svg_171"/>
      <path stroke="null" class="st31" d="m182.01787,84.75154l-0.23775,0c-0.47549,0 -0.83211,-0.35662 -0.83211,-0.83211l0,-2.13972c0,-0.47549 0.35662,-0.83211 0.83211,-0.83211l0.23775,0c0.47549,0 0.83211,0.35662 0.83211,0.83211l0,2.13972c0,0.47549 -0.35662,0.83211 -0.83211,0.83211z" id="svg_172"/>
      <path stroke="null" class="st31" d="m189.38801,82.84957l-0.23775,0c-0.47549,0 -0.83211,-0.35662 -0.83211,-0.83211l0,-2.13972c0,-0.47549 0.35662,-0.83211 0.83211,-0.83211l0.23775,0c0.47549,0 0.83211,0.35662 0.83211,0.83211l0,2.13972c0.11887,0.47549 -0.35662,0.83211 -0.83211,0.83211z" id="svg_173"/>
     </g>
    </g>
    <path stroke="null" class="st34" d="m162.87927,80.35323c0.23775,-0.47549 0.47549,-0.95099 0.59437,-1.42648c0.23775,-0.47549 0.47549,-0.95099 0.71324,-1.42648c0.47549,-0.95099 1.06986,-1.90197 1.66423,-2.73409c1.18873,-1.7831 2.49634,-3.5662 3.92282,-5.11155c0.35662,-0.35662 0.71324,-0.71324 1.06986,-1.18873c0.23775,-0.23775 0.35662,-0.35662 0.59437,-0.59437c0.23775,-0.23775 0.35662,-0.35662 0.59437,-0.47549c0.83211,-0.71324 1.66423,-1.30761 2.61521,-1.90197c1.7831,-1.18873 3.80394,-2.02085 5.82479,-2.49634l0.83211,-0.11887c0.23775,0 0.47549,-0.11887 0.83211,-0.11887l0.35662,0c0.11887,0 0.23775,0 0.35662,0c0.23775,0 0.47549,0 0.83211,0c1.06986,0 2.13972,0 3.09071,0.11887c1.06986,0.11887 2.02085,0.35662 3.09071,0.59437c0.95099,0.23775 2.02085,0.59437 2.97183,0.95099c1.90197,0.71324 3.80394,1.66423 5.58704,2.73409c0.83211,0.59437 1.7831,1.06986 2.61521,1.7831c0.83211,0.59437 1.66423,1.30761 2.37747,2.02085c-0.47549,-0.23775 -0.83211,-0.47549 -1.30761,-0.71324c-0.47549,-0.23775 -0.95099,-0.47549 -1.30761,-0.71324c-0.95099,-0.47549 -1.7831,-0.95099 -2.73409,-1.30761c-1.7831,-0.83211 -3.68507,-1.54535 -5.58704,-2.02085c-0.95099,-0.23775 -1.90197,-0.47549 -2.85296,-0.71324c-0.95099,-0.11887 -1.90197,-0.35662 -2.85296,-0.35662c-0.95099,-0.11887 -1.90197,-0.11887 -2.85296,0l-0.71324,0c-0.11887,0 -0.23775,0 -0.35662,0l-0.35662,0c-0.23775,0 -0.47549,0 -0.71324,0.11887l-0.71324,0.11887l-0.11887,0l-0.11887,0l-0.35662,0.11887c-0.23775,0 -0.47549,0.11887 -0.71324,0.23775l-0.71324,0.23775l-0.71324,0.23775c-0.83211,0.35662 -1.7831,0.83211 -2.61521,1.30761c-0.83211,0.47549 -1.66423,1.06986 -2.49634,1.66423c-0.83211,0.59437 -1.54535,1.30761 -2.25859,1.90197c-1.54535,1.42648 -2.85296,2.85296 -4.16056,4.51718c-0.71324,0.83211 -1.30761,1.66423 -1.90197,2.49634c-0.35662,0.47549 -0.59437,0.83211 -0.95099,1.30761c-0.47549,0.11887 -0.83211,0.47549 -1.06986,0.95099z" id="svg_174"/>
    <path stroke="null" class="st35" d="m166.44547,85.8214c0,0.71324 -0.11887,1.30761 -0.11887,1.90197c0,0.59437 0,1.30761 0.11887,1.90197c0.11887,1.30761 0.47549,2.49634 0.95099,3.5662c0.23775,0.47549 0.59437,1.06986 0.95099,1.42648c0.35662,0.47549 0.83211,0.83211 1.30761,1.18873c0.95099,0.71324 2.13972,1.18873 3.20958,1.54535c-1.18873,0 -2.49634,-0.23775 -3.5662,-0.83211c-0.59437,-0.35662 -1.06986,-0.71324 -1.54535,-1.18873c-0.47549,-0.47549 -0.83211,-1.06986 -1.18873,-1.66423c-0.59437,-1.18873 -0.83211,-2.61521 -0.83211,-3.92282c0,-0.71324 0,-1.30761 0.11887,-2.02085c0.23775,-0.59437 0.35662,-1.18873 0.59437,-1.90197z" id="svg_175"/>
    <path stroke="null" class="st35" d="m182.61224,126.00057c0.47549,0.35662 1.06986,0.71324 1.54535,0.95099c0.47549,0.35662 1.06986,0.59437 1.54535,0.83211c1.06986,0.47549 2.25859,0.83211 3.32845,0.83211c0.59437,0 1.06986,-0.11887 1.66423,-0.23775c0.59437,-0.11887 1.06986,-0.35662 1.54535,-0.71324c0.95099,-0.59437 1.90197,-1.42648 2.73409,-2.37747c-0.59437,1.18873 -1.42648,2.25859 -2.37747,2.97183c-0.47549,0.35662 -1.06986,0.71324 -1.66423,0.95099c-0.59437,0.23775 -1.30761,0.35662 -1.90197,0.35662c-1.30761,0 -2.49634,-0.47549 -3.68507,-1.06986c-0.59437,-0.35662 -1.06986,-0.71324 -1.54535,-1.06986c-0.35662,-0.47549 -0.83211,-0.83211 -1.18873,-1.42648z" id="svg_176"/>
    <path stroke="null" class="st35" d="m183.2066,135.15381c0.47549,0.35662 1.06986,0.71324 1.54535,0.95099c0.47549,0.35662 1.06986,0.59437 1.54535,0.83211c1.06986,0.47549 2.25859,0.83211 3.32845,0.83211c0.59437,0 1.06986,-0.11887 1.66423,-0.23775c0.59437,-0.11887 1.06986,-0.35662 1.54535,-0.71324c0.95099,-0.59437 1.90197,-1.42648 2.73409,-2.37747c-0.59437,1.18873 -1.42648,2.25859 -2.37747,2.97183c-0.47549,0.35662 -1.06986,0.71324 -1.66423,0.95099c-0.59437,0.23775 -1.30761,0.35662 -1.90197,0.35662c-1.30761,0 -2.49634,-0.47549 -3.68507,-1.06986c-0.59437,-0.35662 -1.06986,-0.71324 -1.54535,-1.06986c-0.35662,-0.47549 -0.83211,-0.95099 -1.18873,-1.42648z" id="svg_177"/>
    <path stroke="null" class="st35" d="m195.09393,79.52112c0.35662,0.59437 0.59437,1.18873 0.83211,1.7831c0.23775,0.59437 0.47549,1.30761 0.59437,1.90197c0.23775,1.30761 0.23775,2.73409 -0.11887,4.04169c-0.23775,0.71324 -0.47549,1.30761 -0.83211,1.90197c-0.35662,0.59437 -0.83211,1.06986 -1.30761,1.54535c-0.95099,0.83211 -2.13972,1.42648 -3.32845,1.66423c1.06986,-0.59437 2.02085,-1.30761 2.85296,-2.25859c0.35662,-0.47549 0.71324,-0.95099 1.06986,-1.42648c0.23775,-0.47549 0.47549,-1.06986 0.71324,-1.66423c0.35662,-1.18873 0.35662,-2.37747 0.23775,-3.68507c0,-0.59437 -0.11887,-1.30761 -0.23775,-1.90197c-0.11887,-0.71324 -0.23775,-1.30761 -0.47549,-1.90197z" id="svg_178"/>
    <path stroke="null" class="st35" d="m198.779,80.35323c0.35662,0.59437 0.59437,1.18873 0.83211,1.7831c0.23775,0.59437 0.47549,1.30761 0.59437,1.90197c0.23775,1.30761 0.23775,2.73409 -0.11887,4.04169c-0.23775,0.71324 -0.47549,1.30761 -0.83211,1.90197c-0.35662,0.59437 -0.83211,1.06986 -1.30761,1.54535c-0.95099,0.83211 -2.13972,1.42648 -3.32845,1.66423c1.06986,-0.59437 2.02085,-1.30761 2.85296,-2.25859c0.35662,-0.47549 0.71324,-0.95099 1.06986,-1.42648c0.23775,-0.47549 0.47549,-1.06986 0.71324,-1.66423c0.35662,-1.18873 0.35662,-2.37747 0.23775,-3.68507c0,-0.59437 -0.11887,-1.30761 -0.23775,-1.90197c-0.11887,-0.59437 -0.35662,-1.30761 -0.47549,-1.90197z" id="svg_179"/>
    <path stroke="null" class="st35" d="m163.11702,89.86309c0.11887,0.59437 0.11887,1.30761 0.23775,1.90197c0.11887,0.59437 0.23775,1.18873 0.47549,1.90197c0.35662,1.18873 0.83211,2.37747 1.54535,3.20958c0.35662,0.47549 0.83211,0.83211 1.18873,1.18873c0.47549,0.35662 0.95099,0.59437 1.54535,0.83211c1.06986,0.47549 2.25859,0.71324 3.44732,0.83211c-1.18873,0.23775 -2.49634,0.23775 -3.68507,-0.11887c-0.59437,-0.23775 -1.18873,-0.47549 -1.7831,-0.83211c-0.59437,-0.35662 -1.06986,-0.83211 -1.42648,-1.42648c-0.83211,-1.06986 -1.30761,-2.37747 -1.54535,-3.68507c-0.11887,-0.71324 -0.23775,-1.30761 -0.23775,-2.02085c0.11887,-0.47549 0.11887,-1.06986 0.23775,-1.7831z" id="svg_180"/>
    <path stroke="null" class="st36" d="m160.9773,101.63155c-0.23775,-1.54535 -0.23775,-3.20958 -0.23775,-4.75493c0.11887,-1.66423 0.23775,-3.20958 0.59437,-4.75493c0.35662,-1.54535 0.83211,-3.09071 1.54535,-4.63606c0.71324,-1.42648 1.54535,-2.85296 2.61521,-4.04169c1.06986,-1.18873 2.25859,-2.25859 3.5662,-3.09071c0.71324,-0.47549 1.42648,-0.83211 2.02085,-1.06986c0.71324,-0.35662 1.42648,-0.59437 2.13972,-0.83211c1.42648,-0.59437 2.85296,-1.06986 4.27944,-1.42648c1.42648,-0.35662 2.97183,-0.71324 4.39831,-1.06986c1.42648,-0.23775 2.97183,-0.59437 4.39831,-0.71324c1.42648,-0.23775 2.97183,-0.35662 4.51718,-0.47549c1.54535,-0.11887 2.97183,-0.11887 4.51718,-0.23775c1.54535,0 2.97183,0 4.51718,0.11887c0.71324,0.11887 1.54535,0.11887 2.25859,0.23775c0.71324,0.11887 1.54535,0.23775 2.25859,0.47549c0.83211,0.23775 1.42648,0.71324 2.13972,1.18873c0.59437,0.59437 1.18873,1.18873 1.54535,2.02085c0.11887,0.35662 0.23775,0.83211 0.35662,1.30761c0,0.47549 0,0.95099 -0.11887,1.30761c-0.11887,0.47549 -0.35662,0.83211 -0.59437,1.06986c-0.23775,0.35662 -0.59437,0.59437 -0.95099,0.83211c-0.71324,0.47549 -1.30761,0.71324 -2.13972,0.95099c-0.71324,0.23775 -1.42648,0.35662 -2.13972,0.47549c0.71324,-0.23775 1.42648,-0.47549 2.13972,-0.71324c0.71324,-0.35662 1.30761,-0.71324 1.90197,-1.06986c0.59437,-0.47549 1.06986,-1.06986 1.18873,-1.7831c0.23775,-0.71324 0,-1.42648 -0.23775,-2.02085c-0.71324,-1.18873 -1.90197,-2.13972 -3.20958,-2.49634c-0.35662,-0.11887 -0.71324,-0.11887 -1.06986,-0.23775c-0.35662,0 -0.71324,-0.11887 -1.06986,-0.11887c-0.71324,-0.11887 -1.42648,-0.11887 -2.13972,-0.11887c-2.97183,-0.11887 -5.82479,0.11887 -8.79662,0.35662c-1.42648,0.11887 -2.97183,0.35662 -4.39831,0.47549c-1.42648,0.23775 -2.85296,0.47549 -4.27944,0.71324c-2.85296,0.59437 -5.70592,1.30761 -8.44,2.37747c-0.71324,0.23775 -1.42648,0.47549 -2.02085,0.83211c-0.71324,0.23775 -1.30761,0.59437 -1.90197,0.95099c-1.18873,0.71324 -2.37747,1.66423 -3.32845,2.73409c-2.02085,2.13972 -3.44732,4.99268 -4.27944,7.96451c-0.47549,1.54535 -0.71324,3.09071 -0.95099,4.63606c-0.11887,0.83211 -0.23775,1.54535 -0.23775,2.37747c-0.35662,0.59437 -0.35662,1.42648 -0.35662,2.25859z" id="svg_181"/>
    <path stroke="null" class="st36" d="m166.08885,106.2676c2.97183,5.70592 5.82479,11.53071 8.55888,17.3555c0.71324,1.42648 1.30761,2.97183 2.02085,4.39831c0.71324,1.42648 1.30761,2.97183 1.90197,4.51718c1.18873,2.97183 2.37747,6.06254 3.68507,9.03437c0.59437,1.42648 1.30761,2.85296 2.13972,4.27944c0.83211,1.30761 1.66423,2.61521 2.85296,3.5662c0.59437,0.47549 1.18873,0.83211 1.7831,1.06986c0.59437,0.23775 1.30761,0.35662 2.02085,0.35662c0.71324,0 1.42648,-0.11887 2.13972,-0.35662c0.71324,-0.23775 1.30761,-0.47549 1.90197,-0.95099c1.18873,-0.83211 2.13972,-2.02085 2.85296,-3.44732c0.71324,-1.42648 1.18873,-2.85296 1.54535,-4.39831c0.35662,-1.54535 0.59437,-3.20958 0.71324,-4.75493c0.11887,-1.66423 0.11887,-3.20958 0,-4.8738l0,-0.11887l0,-0.11887l1.66423,-4.27944l1.66423,-4.27944l0.83211,-2.13972c0.23775,-0.71324 0.59437,-1.42648 0.83211,-2.13972c0.23775,-0.71324 0.47549,-1.42648 0.83211,-2.13972c0.11887,-0.35662 0.23775,-0.71324 0.35662,-1.06986c0.11887,-0.35662 0.23775,-0.71324 0.23775,-1.06986c0,0.35662 -0.11887,0.71324 -0.23775,1.18873c-0.11887,0.35662 -0.23775,0.71324 -0.35662,1.06986c-0.23775,0.71324 -0.47549,1.54535 -0.71324,2.25859c-0.47549,1.42648 -0.95099,2.97183 -1.42648,4.39831c-0.47549,1.42648 -0.95099,2.97183 -1.54535,4.39831l-1.54535,4.39831l0,-0.23775c0.11887,0.83211 0.11887,1.66423 0.11887,2.49634c0,0.83211 0,1.66423 0,2.49634c-0.11887,1.66423 -0.23775,3.32845 -0.59437,4.99268c-0.35662,1.66423 -0.83211,3.20958 -1.54535,4.75493c-0.35662,0.71324 -0.83211,1.42648 -1.30761,2.13972c-0.23775,0.35662 -0.59437,0.59437 -0.83211,0.95099c-0.35662,0.23775 -0.59437,0.59437 -0.95099,0.83211c-0.71324,0.47549 -1.42648,0.83211 -2.25859,1.06986c-0.83211,0.23775 -1.54535,0.35662 -2.37747,0.35662c-0.83211,0 -1.66423,-0.11887 -2.49634,-0.35662c-0.83211,-0.23775 -1.54535,-0.71324 -2.13972,-1.30761c-1.30761,-1.06986 -2.25859,-2.49634 -3.09071,-3.92282c-0.83211,-1.42648 -1.54535,-2.97183 -2.13972,-4.39831c-0.59437,-1.54535 -1.18873,-2.97183 -1.7831,-4.51718l-1.7831,-4.51718c-0.59437,-1.54535 -1.18873,-2.97183 -1.7831,-4.51718c-0.59437,-1.42648 -1.30761,-2.97183 -1.90197,-4.39831c-2.61521,-6.18141 -5.23042,-12.12507 -7.84564,-18.06874z" id="svg_182"/>
   </g>
   <g stroke="null" id="big-closedeyes">
    <ellipse stroke="null" class="st31" cx="194.38069" cy="58.12393" rx="5.46817" ry="1.7831" id="svg_183"/>
    <ellipse stroke="null" class="st31" cx="166.44547" cy="59.31266" rx="5.46817" ry="1.7831" id="svg_184"/>
   </g>
   <g stroke="null" id="big-opened-eyes_1_">
    <ellipse stroke="null" class="st31" cx="194.38069" cy="56.57858" rx="5.46817" ry="5.82479" id="svg_185"/>
    <ellipse stroke="null" class="st31" cx="166.44547" cy="60.85802" rx="5.46817" ry="5.82479" id="svg_186"/>
   </g>
   <g stroke="null" id="small-closed-eyes">
    <ellipse stroke="null" class="st37" cx="195.2128" cy="58.2428" rx="2.73409" ry="0.35662" id="svg_187"/>
    <ellipse stroke="null" class="st37" cx="167.87195" cy="58.7183" rx="2.73409" ry="0.35662" id="svg_188"/>
   </g>
   <g stroke="null" id="small-opened-eyes_1_">
    <ellipse stroke="null" class="st37" cx="195.2128" cy="56.57858" rx="2.73409" ry="2.97183" id="svg_189"/>
    <ellipse stroke="null" class="st37" cx="167.87195" cy="60.5014" rx="2.73409" ry="2.97183" id="svg_190"/>
   </g>
  </g>
 </g>
</svg>