<svg width="400" height="300" xmlns="http://www.w3.org/2000/svg" xmlns:xlink="http://www.w3.org/1999/xlink">
 <g>
  <title>background</title>
 
 </g>
 <style>#tablet { animation: 10s tb linear forwards;
transform-origin:center;
transform-box:fill-box;}
@keyframes tb { 0%{transform:scale(0)}
2%{transform:scale(1.1)}
4%{transform:scale(1)}

}
 #k{animation: m 0;}
 @keyframes m{
   0%{transform:translate(-300px,100px)}
   3%{transform:translate(-300px,100px)}
   
   5%{transform:translate(0px,0px)}
  
 }
  #f{animation: f 0;}
 @keyframes f{
   0%{transform:translate(200px,0px)}
   6%{transform:translate(200px,0px)}
   10%{transform:translate(0px,0px)}
  
 }
   #i{animation: i 0;}
 @keyframes i{
   0%{transform:translate(250px,170px)}
   7%{transform:translate(250px,170px)}
   
  15%{transform:translate(0px,0px)}
  
 }
  #i1
      {animation: i1 2s linear alternate infinite;}
   @keyframes i1 {
   0%{transform:translate(10px,10px)}
   
   
  100%{transform:translate(0px,0px)}
  
 }
 @keyframes g{
   0%{transform:translate(-400px,150px)}
   7%{transform:translate(-400px,150px)}
   
  15%{transform:translate(0px,0px)}
  
 }
  #g1
      {animation: g1 2s linear alternate infinite;}
   @keyframes g1 {
   0%{transform:translate(-10px,10px)}
   
   
  100%{transform:translate(0px,0px)}
  
 }
   #c
      {animation: c 0;}
 @keyframes c{
   0%{transform:translate(250px,170px)}
   7%{transform:translate(250px,170px)}
   
  13% {transform:translate(0px,0px)}
  
 }
  #c1
      {animation: c1 2s linear alternate infinite;}
   @keyframes c1 {
   0%{transform:translate(-10px,-10px)}
   
   
  100%{transform:translate(0px,0px)}
  
 }
  #h
    {animation: h 0;}
   @keyframes h{
   0%{transform:translate(-250px,-170px)}
   4%{transform:translate(-250px,-170px)}
   
  10%{transform:translate(0px,0px)}
  
 }
  #h1
      {animation: h1 2s linear alternate infinite;}
   @keyframes h1 {
   0%{transform:translate(10px,10px)}
   
   
  100%{transform:translate(0px,0px)}
  
 }
#b
      {animation: b 0;}
   @keyframes b{
   0%{transform:translate(250px,170px)}
   6%{transform:translate(250px,170px)}
   
  16%{transform:translate(0px,0px)}
  
 }
 #b1
      {animation: b1 2s linear alternate infinite;}
   @keyframes b1 {
   0%{transform:translate(10px,10px)}
   
   
  100%{transform:translate(0px,0px)}
  
 }
 #a
      {animation: a 0;}
   @keyframes a{
   0%{transform:translate(-250px,-70px)}
   8%{transform:translate(-250px,-70px)}
   
  18%{transform:translate(0px,0px)}
  
 }
  #j
      {animation: j 35s linear infinite;}
   @keyframes j{
   0%{transform:translate(100px,0px)}
   
   
  100%{transform:translate(-900px,0px)}
  
 }
  #a1
       {animation: a1 2s linear alternate infinite;}
   @keyframes a1 {
   0%{transform:translate(-10px,-10px)}
   
   
  100%{transform:translate(0px,0px)}
  
 }
 #d
     {animation: d 0;
     transform-origin:right;
     transform-box:fill-box;}
   @keyframes d{
   0%{transform:scale(0);}
   6%{transform:scale(0);}
   8%{transform:scale(1);}
  
 }
  #e
      {animation: e 0;
     transform-origin:top;
     transform-box:fill-box;}
   @keyframes e{
   0%{transform:scale(0);}
   6%{transform:scale(0);}
   8%{transform:scale(1);}
  
 }
 #e1{ animation: arm1 2s linear alternate infinite;

    transform-origin: top;
    transform-box: fill-box;}

  @keyframes arm1{
  0%{transform:rotateZ(0deg);}
  100%{transform: rotateZ(5deg);}

  }
   #d1 { animation: arm1 2s linear alternate infinite;

    transform-origin: bottom;
    transform-box: fill-box;}

  @keyframes arm1{
  0%{transform:rotateZ(0deg);}
  100%{transform: rotateZ(5deg);}

  }
#head1 { animation: arm1 2s linear alternate infinite;

    transform-origin:bottom;
    transform-box: fill-box;}

  @keyframes arm1{
  0%{transform:rotateZ(0deg);}
  100%{transform: rotateZ(5deg);}

  }</style>
 <defs>
  <linearGradient y2="1.53103" x2="0.40391" y1="0.18998" x1="1.219" id="linear-gradient-152">
   <stop stop-color="#94ac9d" offset="0"/>
   <stop stop-color="#809194" offset="0.41"/>
   <stop stop-color="#777d9c" offset="0.96"/>
  </linearGradient>
  <linearGradient xlink:href="#linear-gradient-152" y2="-3279.34" x2="9577.29" y1="-3279.34" x1="9476.34" id="linear-gradient-153"/>
  <linearGradient y2="9.6525" x2="0.61849" y1="8.04207" x1="-9.02158" id="linear-gradient-154">
   <stop stop-color="#92c5eb" offset="0"/>
   <stop stop-color="#6ab3e3" offset="1"/>
  </linearGradient>
  <linearGradient xlink:href="#linear-gradient-154" y2="-8637.95" x2="10266.53" y1="-8675.45" x1="10266.53" id="linear-gradient-155"/>
  <linearGradient xlink:href="#linear-gradient-154" y2="-8637.95" x2="10251.18" y1="-8675.45" x1="10251.18" id="linear-gradient-156"/>
  <linearGradient y2="-2.76366" x2="16.26375" y1="-1.25952" x1="13.1101" id="linear-gradient-157">
   <stop stop-color="#a25b31" offset="0"/>
   <stop stop-color="#5f3817" offset="0.58"/>
  </linearGradient>
  <linearGradient xlink:href="#linear-gradient-154" y2="-8637.95" x2="10237.13" y1="-8675.45" x1="10237.13" id="linear-gradient-158"/>
  <linearGradient xlink:href="#linear-gradient-157" y2="20.45" x2="7813.78" y1="20.45" x1="7821.05" id="linear-gradient-159"/>
  <linearGradient y2="-0.49448" x2="4.35193" y1="-3.63722" x1="7.99218" id="linear-gradient-160">
   <stop stop-color="#a25b31" offset="0.19"/>
   <stop stop-color="#5f3817" offset="0.77"/>
  </linearGradient>
  <linearGradient xlink:href="#linear-gradient-160" y2="8.36" x2="7807.75" y1="8.36" x1="7781.77" id="linear-gradient-161"/>
  <linearGradient xlink:href="#linear-gradient-160" y2="8.7" x2="7807.75" y1="8.7" x1="7781.77" id="linear-gradient-162"/>
  <linearGradient xlink:href="#linear-gradient-160" y2="14.32" x2="7807.75" y1="14.32" x1="7781.77" id="linear-gradient-163"/>
  <linearGradient xlink:href="#linear-gradient-160" y2="23.19" x2="7807.75" y1="23.19" x1="7781.77" id="linear-gradient-164"/>
  <linearGradient xlink:href="#linear-gradient-160" y2="14.99" x2="7807.75" y1="14.99" x1="7781.77" id="linear-gradient-165"/>
  <linearGradient xlink:href="#linear-gradient-160" y2="5.68" x2="7807.75" y1="5.68" x1="7781.77" id="linear-gradient-166"/>
  <linearGradient xlink:href="#linear-gradient-160" y2="22.54" x2="7807.75" y1="22.54" x1="7781.77" id="linear-gradient-167"/>
  <linearGradient y2="0.32202" x2="9.00512" y1="-2.60684" x1="18.42885" id="linear-gradient-168">
   <stop stop-color="#4d6e7d" offset="0.26"/>
   <stop stop-color="#2e4853" offset="0.77"/>
  </linearGradient>
  <linearGradient xlink:href="#linear-gradient-168" y2="7.73" x2="7804.8" y1="7.73" x1="7780.1" id="linear-gradient-169"/>
  <linearGradient xlink:href="#linear-gradient-168" y2="8.06" x2="7804.8" y1="8.06" x1="7780.1" id="linear-gradient-170"/>
  <linearGradient xlink:href="#linear-gradient-168" y2="15.5" x2="7804.8" y1="15.5" x1="7780.1" id="linear-gradient-171"/>
  <linearGradient xlink:href="#linear-gradient-168" y2="20.62" x2="7804.8" y1="20.62" x1="7780.1" id="linear-gradient-172"/>
  <linearGradient xlink:href="#linear-gradient-168" y2="11.42" x2="7804.8" y1="11.42" x1="7780.1" id="linear-gradient-173"/>
  <linearGradient xlink:href="#linear-gradient-168" y2="4" x2="7804.8" y1="4" x1="7780.1" id="linear-gradient-174"/>
  <linearGradient xlink:href="#linear-gradient-168" y2="13.56" x2="7804.8" y1="13.56" x1="7780.1" id="linear-gradient-175"/>
  <linearGradient xlink:href="#linear-gradient-168" y2="16.41" x2="7804.8" y1="16.41" x1="7780.1" id="linear-gradient-176"/>
  <linearGradient xlink:href="#linear-gradient-160" y2="7" x2="7807.75" y1="7" x1="7781.77" id="linear-gradient-177"/>
  <linearGradient xlink:href="#linear-gradient-168" y2="7" x2="7804.8" y1="7" x1="7780.1" id="linear-gradient-178"/>
  <linearGradient xlink:href="#linear-gradient-160" y2="7.99" x2="7807.75" y1="7.99" x1="7781.77" id="linear-gradient-179"/>
  <linearGradient xlink:href="#linear-gradient-168" y2="7.99" x2="7804.8" y1="7.99" x1="7780.1" id="linear-gradient-180"/>
  <linearGradient xlink:href="#linear-gradient-160" y2="8.33" x2="7807.75" y1="8.33" x1="7781.77" id="linear-gradient-181"/>
  <linearGradient xlink:href="#linear-gradient-168" y2="8.33" x2="7804.8" y1="8.33" x1="7780.1" id="linear-gradient-182"/>
  <linearGradient xlink:href="#linear-gradient-160" y2="14.56" x2="7807.75" y1="14.56" x1="7781.77" id="linear-gradient-183"/>
  <linearGradient xlink:href="#linear-gradient-168" y2="14.56" x2="7804.8" y1="14.56" x1="7780.1" id="linear-gradient-184"/>
  <linearGradient xlink:href="#linear-gradient-160" y2="5.58" x2="7807.75" y1="5.58" x1="7781.77" id="linear-gradient-185"/>
  <linearGradient xlink:href="#linear-gradient-168" y2="5.58" x2="7804.8" y1="5.58" x1="7780.1" id="linear-gradient-186"/>
  <linearGradient xlink:href="#linear-gradient-168" y2="14.5" x2="7804.8" y1="14.5" x1="7780.1" id="linear-gradient-187"/>
  <linearGradient xlink:href="#linear-gradient-168" y2="4.82" x2="7804.8" y1="4.82" x1="7780.1" id="linear-gradient-188"/>
  <linearGradient y2="0.11834" x2="3.57525" y1="0.43841" x1="2.41365" id="linear-gradient-189">
   <stop stop-color="#f58220" offset="0.07"/>
   <stop stop-color="#a25b31" offset="0.43"/>
   <stop stop-color="#5f3817" offset="0.77"/>
  </linearGradient>
  <linearGradient xlink:href="#linear-gradient-189" y2="-13.01" x2="7792.28" y1="-13.01" x1="7807.08" id="linear-gradient-190"/>
  <linearGradient xlink:href="#linear-gradient-189" y2="-5.08" x2="7792.28" y1="-5.08" x1="7807.08" id="linear-gradient-191"/>
  <linearGradient xlink:href="#linear-gradient-189" y2="-10.63" x2="7792.28" y1="-10.63" x1="7807.08" id="linear-gradient-192"/>
  <linearGradient xlink:href="#linear-gradient-189" y2="-5.04" x2="7792.28" y1="-5.04" x1="7807.08" id="linear-gradient-193"/>
  <linearGradient xlink:href="#linear-gradient-189" y2="-8.45" x2="7792.28" y1="-8.45" x1="7807.08" id="linear-gradient-194"/>
  <linearGradient xlink:href="#linear-gradient-189" y2="-6.01" x2="7792.28" y1="-6.01" x1="7807.08" id="linear-gradient-195"/>
  <linearGradient xlink:href="#linear-gradient-189" y2="-8.55" x2="7792.28" y1="-8.55" x1="7807.08" id="linear-gradient-196"/>
  <linearGradient xlink:href="#linear-gradient-189" y2="-10.26" x2="7792.28" y1="-10.26" x1="7807.08" id="linear-gradient-197"/>
  <linearGradient y2="-0.36056" x2="11.99077" y1="0.47983" x1="12.71402" id="linear-gradient-198">
   <stop stop-color="#9c6026" offset="0.26"/>
   <stop stop-color="#5f3817" offset="0.95"/>
  </linearGradient>
  <linearGradient xlink:href="#linear-gradient-189" y2="-7.38" x2="7792.28" y1="-7.38" x1="7807.08" id="linear-gradient-199"/>
  <linearGradient xlink:href="#linear-gradient-198" y2="-13.31" x2="7805.34" y1="-7.21" x1="7805.34" id="linear-gradient-200"/>
 </defs>
 <title>DIGITAL MAGAZINE</title>
 <g>
  <title>Layer 1</title>
  <g stroke="null" id="d">
   <g stroke="null" id="d1">
    <path stroke="null" id="svg_1888" fill="none" d="m80.56551,177.13548a15.8004,15.8004 0 0 0 -4.34032,-3.01221a2.94375,2.94375 0 0 0 -1.09535,0.35599c-1.53349,0.94474 -1.27334,3.80634 -1.27334,3.80634s-0.3286,-0.10953 -0.8352,-0.3423a20.20918,20.20918 0 0 0 0.35599,2.17701l7.18823,-2.98483z"/>
    <path stroke="null" id="svg_1889" fill="#d7cfcd" d="m162.03207,182.92714a3.23128,3.23128 0 0 1 1.20488,1.88948l2.38238,3.8748l-0.23276,0.13692a2.73837,2.73837 0 0 1 -0.30122,1.53349l210.00572,-123.76071l-0.08215,-29.12258l-245.00211,120.44728a5.0386,5.0386 0 0 1 2.39608,0.93105l29.62918,24.07029z"/>
    <path stroke="null" id="svg_1890" fill="url(#linear-gradient-152)" d="m161.62131,192.40191l-2.73837,-2.88898l-109.76763,62.2295c-3.62834,2.05378 -7.44837,2.21808 -9.51584,0.6709l1.8484,3.10805l0.27384,0.61613c1.36919,2.97113 6.2161,3.25866 10.67965,0.64352l111.10943,-64.85833a3.91587,3.91587 0 0 0 1.57456,-1.56087l-3.46404,2.04009zm-75.55167,43.81395l-17.79942,10.18674a2.09485,2.09485 0 0 1 -1.69779,-3.65573l17.79942,-10.20043a1.61564,1.61564 0 0 1 2.1907,0.60244a3.29974,3.29974 0 0 1 -0.49291,3.06698z"/>
    <path stroke="null" id="svg_1891" fill="#d7cfcd" d="m165.38658,188.82833l0.23276,-0.13692l-2.38238,-3.8611a3.16282,3.16282 0 0 1 -1.87578,3.29974l-2.47823,1.36919l2.73837,2.88898l3.46404,-2.04009a2.73837,2.73837 0 0 0 0.30122,-1.5198z"/>
    <path stroke="null" id="svg_1892" fill="url(#linear-gradient-153)" d="m165.38658,188.82833l0.23276,-0.13692l-2.38238,-3.8611a3.16282,3.16282 0 0 1 -1.87578,3.29974l-2.47823,1.36919l2.73837,2.88898l3.46404,-2.04009a2.73837,2.73837 0 0 0 0.30122,-1.5198z"/>
    <path stroke="null" id="svg_1893" fill="#9da4b4" d="m80.56551,177.13548l-7.18823,2.98483c0,0.15061 0.06846,0.31491 0.09584,0.47922l7.43468,-3.08067c-0.10953,-0.13692 -0.19169,-0.26015 -0.3423,-0.38337z"/>
    <path stroke="null" id="svg_1894" fill="#9da4b4" d="m49.11531,251.74242l109.76763,-62.2295l2.47823,-1.36919a3.16282,3.16282 0 0 0 1.87578,-3.29974a3.23128,3.23128 0 0 0 -1.20488,-1.88948l-29.62918,-24.13875a5.0386,5.0386 0 0 0 -2.39608,-0.93105a8.03712,8.03712 0 0 0 -4.2034,0.46552l-32.76462,13.6234a0.19169,0.19169 0 0 1 0,0.08215a2.84791,2.84791 0 0 1 0.27384,0.28753l32.86046,-13.69186a6.14764,6.14764 0 0 1 5.65474,0.41076l29.67026,24.19351c1.64302,1.36919 1.36919,3.32712 -0.57506,4.43616l-112.10894,63.28377c-3.84741,2.16331 -7.98235,1.86209 -9.13247,-0.68459l-19.79843,-43.64964c-0.78044,-1.73887 1.36919,-4.27186 4.60046,-5.64105l39.80223,-16.55346a4.42247,4.42247 0 0 0 -0.20538,-0.46552l-39.91177,16.52607c-3.84741,1.58826 -6.31195,4.53201 -5.39459,6.57209l19.64782,43.81395a3.73788,3.73788 0 0 0 1.1775,1.46503c2.06747,1.60195 5.8875,1.43765 9.51584,-0.61613z"/>
    <path stroke="null" id="svg_1895" fill="#bccbd4" d="m126.54277,159.00746l0.43814,-0.1643l33.77781,28.16415a3.05328,3.05328 0 0 1 -0.41076,0.27384l-1.88948,1.06796l0,0l-79.49493,44.66284l-19.85319,11.15886l0,0l-4.91538,2.73837l-24.49473,-47.53813l4.28555,-1.77994l0,0l5.32613,-2.23177l25.11087,-10.47427a4.3677,4.3677 0 0 0 -0.17799,-0.46552l-39.82962,16.55346c-3.29974,1.36919 -5.3809,3.90218 -4.60046,5.64105l19.82581,43.67703c1.15012,2.54669 5.28506,2.84791 9.13247,0.68459l112.10894,-63.28377c1.97163,-1.10904 2.21808,-3.10805 0.57506,-4.43616l-29.62918,-24.15244a6.14764,6.14764 0 0 0 -5.65474,-0.41076l-32.86046,13.69186l0.28753,0.39706l32.94261,-13.77401zm-91.22885,72.03287c-0.60244,0.30122 -1.21858,0.26015 -1.36919,-0.08215l-4.99753,-10.73442c-0.15061,-0.31491 0.20538,-0.79413 0.76674,-1.05427s1.16381,-0.23276 1.36919,0.08215l5.06599,10.63857c0.09584,0.3423 -0.24645,0.86259 -0.8352,1.15012zm7.2293,7.92759c-0.30122,-0.61613 0.27384,-1.54718 1.27334,-2.06747s2.0264,-0.43814 2.32762,0.1643s-0.24645,1.53349 -1.23227,2.06747s-2.06747,0.46552 -2.36869,-0.1643zm5.0523,7.59898c-1.86209,1.04058 -3.8611,0.90366 -4.43616,-0.30122s0.5066,-2.95744 2.355,-3.95695s3.76526,-0.8489 4.35401,0.30122s-0.42445,2.94375 -2.27285,3.95695z"/>
    <path stroke="null" id="svg_1896" fill="#bccbd4" d="m81.16795,177.82008l-0.26015,-0.30122l-7.43468,3.08067c0,0.1643 0,0.3286 0.10953,0.49291l7.65375,-3.1902l-0.06846,-0.08215z"/>
    <polygon stroke="null" id="svg_1897" fill="#92c5eb" points="33.985805605150745,197.61851020516588 29.713958415493835,199.39846934949855 33.972096580371726,197.61851020516588 59.11032539795815,244.1845319985714 59.11032539795815,244.17081900591256 33.985805605150745,197.61851020516588 "/>
    <path stroke="null" id="svg_1898" fill="#92c5eb" d="m54.19499,189.18432a52.54935,52.54935 0 0 1 9.0777,3.43666l0.8352,0.10953c0.98581,0.12323 1.83471,0.26015 2.42346,0.36968c-0.90366,-3.09436 -1.8484,-7.17453 -2.06747,-8.0782l0,-0.10953l-25.11087,10.47427l14.84197,-6.20241z"/>
    <path stroke="null" id="svg_1899" fill="#92c5eb" d="m98.29647,180.44891a1.19119,1.19119 0 0 0 0.12323,0.15061l1.46503,0.41076c0.13692,0 0.23276,-0.12323 0.26015,-0.23276a46.96307,46.96307 0 0 1 5.79166,-3.84741a56.8349,56.8349 0 0 0 5.83273,-4.42247a0.3286,0.3286 0 0 1 0.19169,-0.15061c0.19169,0 0.61613,0.1643 1.05427,0.43814l7.4073,-6.12026l4.77846,-1.5061l0.28753,0.91735l-2.39608,0.8489l-2.40977,1.13642l4.95645,-0.64352s0.47922,0.94474 0,1.36919a20.53779,20.53779 0 0 1 -2.94375,0.28753l3.03959,0.60244s0,0.72567 -0.28753,0.8352s0.36968,0.88997 -0.21907,1.08166s-2.97113,0.47922 -2.97113,0.47922a14.30799,14.30799 0 0 1 -5.55889,3.12174a6.66794,6.66794 0 0 0 -1.15012,0.38337c0.78044,1.36919 1.54718,2.90267 0.95843,3.09436a71.52627,71.52627 0 0 1 -6.61317,4.50462a62.7224,62.7224 0 0 1 6.57209,2.95744l-0.08215,0.57506c0.93105,1.04058 3.17651,3.35451 4.61416,3.61465a6.84593,6.84593 0 0 0 2.05378,0.09584a4.64154,4.64154 0 0 0 0.87628,-0.17799l3.62834,3.3682l0,0.46552l-1.23227,-0.15061a18.03218,18.03218 0 0 1 1.13642,2.20439c0.8352,2.04009 -0.94474,5.47674 -0.94474,5.47674a6.46256,6.46256 0 0 0 -1.19119,-2.58776a6.84593,6.84593 0 0 1 -0.56137,-0.78044c-0.6709,-1.08166 -1.36919,-2.61514 -2.08116,-3.5325s-5.0386,-3.0259 -6.84593,-3.80634l-0.38337,2.60145s-4.49093,-3.73788 -8.81756,-4.60046a39.40517,39.40517 0 0 0 -4.97014,-0.47922l-2.21808,1.36919l-1.36919,-1.49241c-3.97064,-0.09584 -7.59898,0 -7.59898,0s-6.84593,-7.58529 -9.11878,-10.37843l-7.65375,3.1902c0.86259,3.90218 2.45084,9.39261 3.34081,12.80189c1.13642,4.35401 1.36919,8.33834 -0.31491,9.72122c5.81904,8.4068 6.75009,19.38767 6.5584,27.04142l-4.2034,2.355l79.49493,-44.66284l-33.85997,-28.61598l1.82102,-0.75305l-32.86046,13.69186c1.42395,2.06747 4.13494,7.01023 4.61416,7.74959z"/>
    <polygon stroke="null" id="svg_1900" fill="#110c15" points="33.972096580371726,197.61851020516588 29.713958415493835,199.39846934949855 54.19499920208909,246.93658995583064 59.11032539795815,244.1845319985714 59.11032539795815,244.1845319985714 33.972096580371726,197.61851020516588 "/>
    <path stroke="null" id="svg_1901" fill="#110c15" d="m45.51436,242.33611c-1.8484,0.99951 -2.91637,2.73837 -2.355,3.95695s2.57407,1.36919 4.43616,0.30122s2.8616,-2.73837 2.27285,-3.95695s-2.53299,-1.31442 -4.35401,-0.30122z"/>
    <path stroke="null" id="svg_1902" fill="#110c15" d="m44.91191,239.13222c0.98581,-0.53398 1.54718,-1.45134 1.23227,-2.06747s-1.36919,-0.6709 -2.32762,-0.1643s-1.57456,1.45134 -1.27334,2.06747s1.36919,0.62983 2.36869,0.1643z"/>
    <path stroke="null" id="svg_1903" fill="#57657b" d="m31.01468,219.25164c-0.15061,-0.31491 -0.73936,-0.35599 -1.36919,-0.08215s-0.91735,0.73936 -0.76674,1.05427l4.99753,10.73442c0.1643,0.3423 0.78044,0.38337 1.36919,0.08215s0.93105,-0.80782 0.76674,-1.15012l-4.99753,-10.63857z"/>
    <path stroke="null" id="svg_1904" fill="#110c15" d="m158.4585,188.34912l0,0l1.88948,-1.06796a3.05328,3.05328 0 0 0 0.41076,-0.27384l-33.77781,-28.19154l-0.43814,0.1643l-1.82102,0.75305l33.73674,28.61598z"/>
    <polygon stroke="null" id="svg_1905" fill="#bccbd4" points="33.985805605150745,197.61851020516588 33.985805605150745,197.61851020516588 39.31195814185048,195.38675239297845 33.985805605150745,197.61851020516588 "/>
    <polygon stroke="null" id="svg_1906" fill="url(#linear-gradient-154)" points="33.985805605150745,197.61851020516588 33.985805605150745,197.61851020516588 39.31195814185048,195.38675239297845 33.985805605150745,197.61851020516588 "/>
    <polygon stroke="null" id="svg_1907" fill="#bccbd4" points="59.11032539795815,244.17081900591256 78.96350891378279,233.0119664588983 59.11032539795815,244.17081900591256 59.11032539795815,244.17081900591256 "/>
    <polygon stroke="null" id="svg_1908" fill="url(#linear-gradient-155)" points="59.11032539795815,244.17081900591256 78.96350891378279,233.0119664588983 59.11032539795815,244.17081900591256 59.11032539795815,244.17081900591256 "/>
    <path stroke="null" id="svg_1909" fill="#92c5eb" d="m62.91671,196.46839c-0.82151,-0.56137 -1.02689,0 -0.90366,1.20488a12.65128,12.65128 0 0 1 -0.43814,4.18971a19.77104,19.77104 0 0 1 -3.49142,-4.69631c0.90366,-1.20488 -0.45183,-4.92907 -0.45183,-4.92907l-2.38238,0.93105l0,-0.91735a7.58529,7.58529 0 0 0 1.1775,-0.64352c0.45183,-0.3286 1.64302,-1.24596 2.12224,-0.8489c0.19169,0.15061 0.45183,0.41076 0.8352,0.68459a6.2298,6.2298 0 0 0 3.14913,1.09535l0.76674,0.08215a52.54935,52.54935 0 0 0 -9.0777,-3.43666l-14.88305,6.20241l-5.32613,2.23177l25.12456,46.55232l19.85319,-11.15886l4.2034,-2.355c0.19169,-7.65375 -0.73936,-18.63462 -6.5584,-27.04142a2.10855,2.10855 0 0 1 -1.16381,0.5066a2.93006,2.93006 0 0 1 -1.77994,-0.47922l-0.30122,-0.19169c-2.13593,-0.36968 -8.21512,-5.23029 -10.00875,-6.64055l-0.46552,-0.3423zm12.32267,9.15985l0,0z"/>
    <path stroke="null" id="svg_1910" fill="url(#linear-gradient-156)" d="m62.91671,196.46839c-0.82151,-0.56137 -1.02689,0 -0.90366,1.20488a12.65128,12.65128 0 0 1 -0.43814,4.18971a19.77104,19.77104 0 0 1 -3.49142,-4.69631c0.90366,-1.20488 -0.45183,-4.92907 -0.45183,-4.92907l-2.38238,0.93105l0,-0.91735a7.58529,7.58529 0 0 0 1.1775,-0.64352c0.45183,-0.3286 1.64302,-1.24596 2.12224,-0.8489c0.19169,0.15061 0.45183,0.41076 0.8352,0.68459a6.2298,6.2298 0 0 0 3.14913,1.09535l0.76674,0.08215a52.54935,52.54935 0 0 0 -9.0777,-3.43666l-14.88305,6.20241l-5.32613,2.23177l25.12456,46.55232l19.85319,-11.15886l4.2034,-2.355c0.19169,-7.65375 -0.73936,-18.63462 -6.5584,-27.04142a2.10855,2.10855 0 0 1 -1.16381,0.5066a2.93006,2.93006 0 0 1 -1.77994,-0.47922l-0.30122,-0.19169c-2.13593,-0.36968 -8.21512,-5.23029 -10.00875,-6.64055l-0.46552,-0.3423zm12.32267,9.15985l0,0z"/>
    <path stroke="null" id="svg_1911" d="m66.70935,243.7053l17.79942,-10.20043a1.60195,1.60195 0 0 1 2.1907,0.60244a1.02689,1.02689 0 0 1 0.08215,0.17799a1.58826,1.58826 0 0 0 -0.17799,-1.05427a1.61564,1.61564 0 0 0 -2.1907,-0.60244l-17.79942,10.20043a1.58826,1.58826 0 0 0 -0.6709,2.0127a1.56087,1.56087 0 0 1 0.76674,-1.13642z"/>
    <path stroke="null" id="svg_1912" fill="#4d6e7d" d="m86.65839,234.121a1.60195,1.60195 0 0 0 -2.1907,-0.60244l-17.79942,10.20043a1.56087,1.56087 0 0 0 -0.78044,1.13642a1.58826,1.58826 0 0 0 2.36869,1.64302l17.79942,-10.18674a1.58826,1.58826 0 0 0 0.6709,-2.0127a1.02689,1.02689 0 0 0 -0.06846,-0.17799z"/>
    <path stroke="null" id="svg_1913" fill="#9da787" d="m111.27635,144.6584l-1.6841,0.61613a8.42049,8.42049 0 0 1 -2.20439,1.86209a4.73738,4.73738 0 0 1 -0.79413,1.24596l0.15061,0a21.90697,21.90697 0 0 0 3.8748,-3.39558a8.7491,8.7491 0 0 0 1.58826,0.13692a2.56038,2.56038 0 0 0 0.95843,-0.53398l-1.77994,-0.26015c0.10953,0.08215 0.17799,0.24645 -0.10953,0.3286z"/>
    <path stroke="null" id="svg_1914" fill="#9da787" d="m109.27734,144.24764l1.72517,0l-0.54767,-0.08215l2.24546,-0.71198c0.61613,-0.19169 0.42445,-0.57506 0.42445,-0.57506l-4.10756,0.68459l-0.72567,1.05427l0.98581,-0.36968z"/>
    <path stroke="null" id="svg_1915" fill="#e6f0cb" d="m102.96539,149.68331a23.57738,23.57738 0 0 0 3.16282,-0.91735a1.73887,1.73887 0 0 0 0.46552,-0.38337a4.73738,4.73738 0 0 0 0.79413,-1.24596a8.42049,8.42049 0 0 0 2.20439,-1.86209l1.6841,-0.61613c0.28753,-0.08215 0.21907,-0.24645 0.15061,-0.3423l0,0l-2.09485,0l-0.95843,0.38337l0.72567,-1.05427l0.73936,-1.06796s1.73887,-0.39706 2.42346,-0.61613s0.78044,-0.61613 0.78044,-0.61613l-4.29924,0.60244s-3.95695,4.10756 -4.86061,5.0523a7.31145,7.31145 0 0 1 -2.27285,1.36919c0.26015,0.54767 0.56137,1.1775 0.86259,1.69779l0.49291,-0.38337z"/>
    <path stroke="null" id="svg_1916" fill="#2e4853" d="m88.06865,145.63052a3.60096,3.60096 0 0 1 -0.61613,0.99951a10.55642,10.55642 0 0 1 1.98532,1.88948c0.94474,1.25965 3.03959,3.54619 4.5457,3.90218a7.11977,7.11977 0 0 1 2.57407,1.24596a53.78162,53.78162 0 0 0 6.64055,-2.66991a3.46404,3.46404 0 0 1 -0.78044,-1.05427c-0.30122,-0.52029 -0.60244,-1.15012 -0.86259,-1.69779s-0.56137,-1.36919 -0.56137,-1.36919l-9.43369,2.355l0.17799,-0.71198c0.5066,-1.90317 0.30122,-6.07919 -2.10855,-6.69532a3.40927,3.40927 0 0 0 -2.60145,0.27384a4.25817,4.25817 0 0 1 1.04058,3.5325z"/>
    <path stroke="null" id="svg_1917" fill="#e6f0cb" d="m59.35682,191.44348a60.42217,60.42217 0 0 0 0.91735,6.59948c0.31491,0.72567 1.72517,-0.36968 1.72517,-0.36968c-0.12323,-1.24596 0.08215,-1.76625 0.90366,-1.20488l0.45183,0.3423a15.06104,15.06104 0 0 1 0.68459,-3.80634a2.65622,2.65622 0 0 0 0,-0.27384l-0.8352,-0.10953l-0.76674,-0.08215a6.2298,6.2298 0 0 1 -3.08067,-1.09535z"/>
    <path stroke="null" id="svg_1918" fill="#92c5eb" d="m64.03944,193.04542c0.99951,0.52029 1.99901,1.09535 2.99852,1.71148c-0.1643,-0.47922 -0.3286,-1.02689 -0.5066,-1.61564c-0.58875,-0.10953 -1.36919,-0.24645 -2.42346,-0.36968a2.65622,2.65622 0 0 1 -0.06846,0.27384z"/>
    <path stroke="null" id="svg_1919" fill="url(#linear-gradient-157)" d="m64.03944,193.04542c0.99951,0.52029 1.99901,1.09535 2.99852,1.71148c-0.1643,-0.47922 -0.3286,-1.02689 -0.5066,-1.61564c-0.58875,-0.10953 -1.36919,-0.24645 -2.42346,-0.36968a2.65622,2.65622 0 0 1 -0.06846,0.27384z"/>
    <path stroke="null" id="svg_1920" fill="#92c5eb" d="m63.35485,196.81068c1.82102,1.36919 7.87282,6.27087 10.00875,6.64055l-0.13692,-0.09584l-0.21907,-0.1643l-0.3286,-0.26015l-0.23276,-0.19169l-0.3286,-0.31491l-0.20538,-0.19169c-0.13692,-0.13692 -0.27384,-0.27384 -0.39706,-0.42445l-0.12323,-0.12323c-0.17799,-0.19169 -0.35599,-0.39706 -0.52029,-0.60244l-0.10953,-0.12323l-0.41076,-0.5066l-0.12323,-0.1643l-0.38337,-0.5066l-0.09584,-0.13692l-0.43814,-0.61613l0,0c-0.31491,-0.45183 -0.58875,-0.87628 -0.8352,-1.28703l0,0l-0.30122,-0.5066l0,-0.08215c-0.09584,-0.15061 -0.1643,-0.28753 -0.24645,-0.42445l0,-0.06846c-0.08215,-0.15061 -0.15061,-0.30122 -0.20538,-0.42445a10.95349,10.95349 0 0 1 -0.57506,-1.46503c-0.99951,-0.61613 -1.99901,-1.19119 -2.99852,-1.71148a15.06104,15.06104 0 0 0 -0.79413,3.75157z"/>
    <path stroke="null" id="svg_1921" fill="url(#linear-gradient-158)" d="m63.35485,196.81068c1.82102,1.36919 7.87282,6.27087 10.00875,6.64055l-0.13692,-0.09584l-0.21907,-0.1643l-0.3286,-0.26015l-0.23276,-0.19169l-0.3286,-0.31491l-0.20538,-0.19169c-0.13692,-0.13692 -0.27384,-0.27384 -0.39706,-0.42445l-0.12323,-0.12323c-0.17799,-0.19169 -0.35599,-0.39706 -0.52029,-0.60244l-0.10953,-0.12323l-0.41076,-0.5066l-0.12323,-0.1643l-0.38337,-0.5066l-0.09584,-0.13692l-0.43814,-0.61613l0,0c-0.31491,-0.45183 -0.58875,-0.87628 -0.8352,-1.28703l0,0l-0.30122,-0.5066l0,-0.08215c-0.09584,-0.15061 -0.1643,-0.28753 -0.24645,-0.42445l0,-0.06846c-0.08215,-0.15061 -0.15061,-0.30122 -0.20538,-0.42445a10.95349,10.95349 0 0 1 -0.57506,-1.46503c-0.99951,-0.61613 -1.99901,-1.19119 -2.99852,-1.71148a15.06104,15.06104 0 0 0 -0.79413,3.75157z"/>
    <path stroke="null" id="svg_1922" fill="url(#linear-gradient-159)" d="m63.35485,196.81068c1.82102,1.36919 7.87282,6.27087 10.00875,6.64055l-0.13692,-0.09584l-0.21907,-0.1643l-0.3286,-0.26015l-0.23276,-0.19169l-0.3286,-0.31491l-0.20538,-0.19169c-0.13692,-0.13692 -0.27384,-0.27384 -0.39706,-0.42445l-0.12323,-0.12323c-0.17799,-0.19169 -0.35599,-0.39706 -0.52029,-0.60244l-0.10953,-0.12323l-0.41076,-0.5066l-0.12323,-0.1643l-0.38337,-0.5066l-0.09584,-0.13692l-0.43814,-0.61613l0,0c-0.31491,-0.45183 -0.58875,-0.87628 -0.8352,-1.28703l0,0l-0.30122,-0.5066l0,-0.08215c-0.09584,-0.15061 -0.1643,-0.28753 -0.24645,-0.42445l0,-0.06846c-0.08215,-0.15061 -0.15061,-0.30122 -0.20538,-0.42445a10.95349,10.95349 0 0 1 -0.57506,-1.46503c-0.99951,-0.61613 -1.99901,-1.19119 -2.99852,-1.71148a15.06104,15.06104 0 0 0 -0.79413,3.75157z"/>
    <path stroke="null" id="svg_1923" fill="#a25b31" d="m76.60857,203.61554c1.62933,-1.36919 1.45134,-5.36721 0.31491,-9.72122c-0.88997,-3.40927 -2.47823,-8.89971 -3.34081,-12.80189c0,-0.1643 0,-0.3286 -0.10953,-0.49291s-0.06846,-0.3286 -0.09584,-0.47922a20.20918,20.20918 0 0 1 -0.35599,-2.17701a13.952,13.952 0 0 1 -7.03762,-7.2293c-0.58875,0.5066 -3.58727,3.1902 -2.91637,5.31244c0.73936,2.34131 2.64253,3.83372 3.76526,7.62637s2.36869,12.32267 4.91538,16.74514c0.8352,1.46503 1.49241,2.5193 1.99901,3.28605l-0.08215,0a2.93006,2.93006 0 0 0 1.77994,0.47922a2.10855,2.10855 0 0 0 1.16381,-0.54767z"/>
    <path stroke="null" id="svg_1924" fill="#a25b31" d="m70.76214,200.95932l0.10953,0.12323l-0.10953,-0.12323z"/>
    <path stroke="null" id="svg_1925" fill="#a25b31" d="m67.81839,196.60531l0,0.06846l0,-0.06846z"/>
    <path stroke="null" id="svg_1926" fill="#a25b31" d="m73.00761,203.19109l0.21907,0.1643l-0.21907,-0.1643z"/>
    <path stroke="null" id="svg_1927" fill="#a25b31" d="m68.39345,197.68696l0,0z"/>
    <path stroke="null" id="svg_1928" fill="#a25b31" d="m69.31081,199.01507l0,0z"/>
    <path stroke="null" id="svg_1929" fill="#a25b31" d="m70.22816,200.28842l0.12323,0.1643l-0.12323,-0.1643z"/>
    <path stroke="null" id="svg_1930" fill="#a25b31" d="m69.76264,199.6449l0.09584,0.13692a1.1775,1.1775 0 0 0 -0.09584,-0.13692z"/>
    <path stroke="null" id="svg_1931" fill="#a25b31" d="m68.10592,197.15298l0,0.08215l0,-0.08215z"/>
    <path stroke="null" id="svg_1932" fill="#a25b31" d="m72.50101,202.73926l0.23276,0.19169l-0.23276,-0.19169z"/>
    <path stroke="null" id="svg_1933" fill="#a25b31" d="m71.39197,201.68499l0.12323,0.12323l-0.12323,-0.12323z"/>
    <path stroke="null" id="svg_1934" fill="#a25b31" d="m72.11764,202.42435l-0.20538,-0.19169l0.20538,0.19169z"/>
    <path stroke="null" id="svg_1935" fill="#1e7ba4" d="m60.27418,198.04295a60.42217,60.42217 0 0 1 -0.91735,-6.59948c-0.38337,-0.27384 -0.64352,-0.53398 -0.8352,-0.68459c-0.47922,-0.39706 -1.67041,0.52029 -2.12224,0.8489a7.58529,7.58529 0 0 1 -1.1775,0.64352l0,0.91735l2.38238,-0.93105s1.36919,3.72419 0.45183,4.92907a19.77104,19.77104 0 0 0 3.49142,4.69631a12.65128,12.65128 0 0 0 0.43814,-4.18971s-1.39657,1.09535 -1.71148,0.36968z"/>
    <path stroke="null" id="svg_1936" fill="#d5791a" d="m64.42281,184.91246l0,0.10953c0.21907,0.90366 1.16381,4.98384 2.06747,8.0782c0.17799,0.58875 0.3423,1.13642 0.5066,1.61564a10.95349,10.95349 0 0 0 0.57506,1.46503c0,0.12323 0.12323,0.27384 0.20538,0.42445l0,0.06846c0.08215,0.13692 0.15061,0.27384 0.24645,0.42445l0,0.08215l0.30122,0.5066l0,0c0.24645,0.41076 0.52029,0.8352 0.8352,1.28703l0,0l0.43814,0.61613a1.1775,1.1775 0 0 1 0.09584,0.13692l0.38337,0.5066l0.12323,0.1643l0.41076,0.5066l0.10953,0.12323c0.1643,0.20538 0.3423,0.41076 0.52029,0.60244l0.12323,0.12323c0.12323,0.15061 0.26015,0.28753 0.39706,0.42445l0.20538,0.19169l0.3286,0.31491l0.23276,0.19169l0.3286,0.26015l0.21907,0.1643l0.13692,0.09584l0.30122,0.19169l0.08215,0c-0.5066,-0.76674 -1.16381,-1.82102 -1.99901,-3.28605c-2.54669,-4.43616 -3.79264,-12.93881 -4.91538,-16.74514s-3.0259,-5.28506 -3.76526,-7.62637c-0.6709,-2.12224 2.32762,-4.80584 2.91637,-5.31244c-0.13692,-0.36968 -0.27384,-0.75305 -0.38337,-1.15012l0,0c0,-0.08215 0,-0.1643 -0.06846,-0.24645s0,-0.27384 -0.10953,-0.41076c-0.09584,-0.41076 -0.17799,-0.82151 -0.24645,-1.24596c0,0 -5.28506,3.95695 -4.73738,7.47575c0.45183,2.87529 2.65622,6.84593 3.61465,8.83125a4.42247,4.42247 0 0 1 0.20538,0.46552a4.3677,4.3677 0 0 1 0.31491,0.57506z"/>
    <path stroke="#d5791a" id="svg_1937" stroke-width="0" stroke-linejoin="round" stroke-linecap="round" fill="none" d="m75.23938,205.62824l0,0"/>
    <path stroke="null" id="svg_1938" fill="#43616f" d="m72.50101,164.05976c0,-0.08215 0.12323,-0.1643 0.17799,-0.26015s-0.17799,0.17799 -0.17799,0.26015z"/>
    <path stroke="null" id="svg_1939" fill="#43616f" d="m72.15871,164.45682c0.08215,-0.08215 0.15061,-0.19169 0.23276,-0.28753s-0.15061,0.20538 -0.23276,0.28753z"/>
    <path stroke="null" id="svg_1940" fill="#43616f" d="m73.76066,161.55415c0.26015,-0.58875 0.5066,-1.19119 0.73936,-1.73887c-0.23276,0.58875 -0.47922,1.19119 -0.73936,1.73887z"/>
    <path stroke="null" id="svg_1941" fill="#43616f" d="m95.77717,161.81429l0,0.23276l0,-0.23276z"/>
    <path stroke="null" id="svg_1942" fill="#43616f" d="m91.83391,169.30374a18.00479,18.00479 0 0 0 3.58727,-3.79264a3.79264,3.79264 0 0 0 0.45183,-1.65671l-1.61564,3.17651a25.28886,25.28886 0 0 1 -2.42346,2.27285z"/>
    <path stroke="null" id="svg_1943" fill="#43616f" d="m95.77717,162.44412a1.5061,1.5061 0 0 0 0,0.24645a1.5061,1.5061 0 0 1 0,-0.24645z"/>
    <path stroke="null" id="svg_1944" fill="#43616f" d="m95.8867,163.30671l0,0z"/>
    <polygon stroke="null" id="svg_1945" fill="#43616f" points="91.83391435702833,169.31746454344648 91.83391435702833,169.30376742230692 91.83391435702833,169.31746454344648 91.83391435702833,169.31746454344648 "/>
    <path stroke="null" id="svg_1946" fill="#43616f" d="m72.70639,163.67639l0.20538,-0.3423l-0.20538,0.3423z"/>
    <path stroke="null" id="svg_1947" fill="#43616f" d="m73.51421,162.15659c0,-0.17799 0.15061,-0.3423 0.23276,-0.52029c-0.08215,0.17799 -0.1643,0.3423 -0.23276,0.52029z"/>
    <path stroke="null" id="svg_1948" fill="#43616f" d="m72.95284,163.25194c0.17799,-0.31491 0.35599,-0.6709 0.52029,-1.02689c-0.1643,0.35599 -0.3423,0.69828 -0.52029,1.02689z"/>
    <path stroke="null" id="svg_1949" fill="#43616f" d="m95.58548,161.1297l0,0.1643l0,-0.1643z"/>
    <path stroke="null" id="svg_1950" fill="#43616f" d="m95.46225,160.63679l0,0.13692a0.60244,0.60244 0 0 1 0,-0.13692z"/>
    <polygon stroke="null" id="svg_1951" fill="#43616f" points="74.5136904105475,159.80159992936933 74.5136904105475,159.81532879354745 74.5136904105475,159.80159992936933 74.5136904105475,159.80159992936933 "/>
    <path stroke="null" id="svg_1952" fill="#43616f" d="m89.43784,148.5195a10.55642,10.55642 0 0 0 -1.98532,-1.88948a14.03415,14.03415 0 0 1 -3.08067,2.46453l-0.08215,0.13692a1.93055,1.93055 0 0 1 0.99951,0.94474a7.35253,7.35253 0 0 0 2.47823,1.53349c0.97212,0.15061 1.86209,1.80733 2.0127,2.8616s-1.5198,3.98433 -2.62884,4.24448l-0.24645,0l0,0c0,0.15061 0,0.30122 -0.10953,0.45183s0,0.20538 -0.09584,0.30122a4.10756,4.10756 0 0 1 -0.13692,0.43814a1.46503,1.46503 0 0 1 -0.09584,0.26015l-0.12323,0.31491a1.83471,1.83471 0 0 1 -0.09584,0.24645l0,0a3.57358,3.57358 0 0 1 -1.36919,1.87578a3.05328,3.05328 0 0 1 -1.15012,0.15061a0.3286,0.3286 0 0 1 -0.08215,0.10953c-0.52029,0.60244 -0.93105,0 -1.09535,-0.21907l-0.19169,0s0,0 0,0a7.66744,7.66744 0 0 1 -0.80782,0l0.15061,-0.19169c-0.58875,-0.15061 -0.98581,-0.28753 -0.98581,-0.28753l-1.15012,0.54767l-0.35599,-0.3423a8.4068,8.4068 0 0 1 -3.10805,2.60145c-3.08067,1.61564 -7.37991,2.54669 -8.87232,3.29974a5.47674,5.47674 0 0 0 -1.58826,1.15012c0.10953,0.39706 0.24645,0.78044 0.38337,1.15012a13.952,13.952 0 0 0 7.03762,7.2293c0.5066,0.23276 0.8352,0.3423 0.8352,0.3423s-0.26015,-2.8616 1.27334,-3.80634a2.94375,2.94375 0 0 1 1.09535,-0.35599c-0.64352,-0.31491 -1.08166,-0.47922 -1.08166,-0.47922l3.92956,-1.36919a9.5843,9.5843 0 0 1 10.03613,-6.06549a3.73788,3.73788 0 0 1 1.69779,1.49241a10.07721,10.07721 0 0 0 3.46404,-2.91637c1.6841,-2.39608 -1.69779,-6.98285 -1.69779,-6.98285a5.66843,5.66843 0 0 1 2.80683,2.42346l0,0c0.53398,-0.35599 2.46453,-3.54619 2.30023,-4.95645a2.62884,2.62884 0 0 0 -1.09535,-1.65671a7.11977,7.11977 0 0 0 -2.57407,-1.24596c-1.57456,-0.26015 -3.66942,-2.54669 -4.61416,-3.80634z"/>
    <path stroke="null" id="svg_1953" fill="#43616f" d="m65.51816,169.33112c0,-0.13692 0,-0.27384 -0.10953,-0.41076c0.04108,0.13692 0.08215,0.27384 0.10953,0.41076z"/>
    <path stroke="null" id="svg_1954" fill="#4d6e7d" d="m65.51816,169.33112c0,0.08215 0,0.1643 0.06846,0.24645l0,0a5.47674,5.47674 0 0 1 1.58826,-1.15012c1.49241,-0.75305 5.79166,-1.6841 8.87232,-3.29974a8.4068,8.4068 0 0 0 3.10805,-2.60145a12.89773,12.89773 0 0 1 -0.93105,-0.98581c-0.46552,-0.58875 -0.8489,-0.65721 -2.34131,-1.0132a2.99852,2.99852 0 0 1 -1.15012,-0.65721l-0.23276,0l0,0l0,0c-0.23276,0.54767 -0.47922,1.15012 -0.73936,1.73887l0,0c-0.08215,0.17799 -0.1643,0.3423 -0.23276,0.52029l0,0c-0.1643,0.35599 -0.3423,0.71198 -0.52029,1.02689l0,0.08215l-0.20538,0.3423a0.56137,0.56137 0 0 1 0,0.12323c0,0.09584 -0.12323,0.17799 -0.17799,0.26015a0.47922,0.47922 0 0 1 -0.06846,0.10953c-0.08215,0.09584 -0.15061,0.20538 -0.23276,0.28753c-1.36919,1.36919 -2.57407,1.45134 -6.99654,3.21759c0.06846,0.42445 0.15061,0.8352 0.24645,1.24596c-0.12323,0.23276 -0.08215,0.36968 -0.05477,0.5066z"/>
    <path stroke="null" id="svg_1955" fill="#2e4853" d="m111.96094,173.68513l1.05427,-0.87628c-0.43814,-0.27384 -0.86259,-0.49291 -1.05427,-0.43814a2.60145,2.60145 0 0 0 0,1.31442z"/>
    <path stroke="null" id="svg_1956" fill="#2e4853" d="m111.76926,172.50764l0.19169,-0.15061a0.3286,0.3286 0 0 0 -0.19169,0.15061z"/>
    <path stroke="null" id="svg_1957" fill="#2e4853" d="m116.43818,178.69635c0.58875,-0.19169 -0.17799,-1.76625 -0.95843,-3.09436a9.36523,9.36523 0 0 0 -2.40977,1.54718a19.5109,19.5109 0 0 0 3.3682,1.54718z"/>
    <path stroke="null" id="svg_1958" fill="#e6f0cb" d="m122.58583,194.71583c0.72567,0.91735 1.36919,2.45084 2.08116,3.5325a1.73887,1.73887 0 0 0 1.23227,-1.09535c0.31491,-1.04058 -2.17701,-5.47674 -2.8616,-6.73639a6.84593,6.84593 0 0 1 -2.05378,-0.09584c-1.36919,-0.26015 -3.68311,-2.57407 -4.61416,-3.61465l-0.62983,4.10756c1.80733,0.86259 6.0518,2.94375 6.84593,3.90218z"/>
    <path stroke="null" id="svg_1959" fill="url(#linear-gradient-160)" d="m80.56551,177.13548l4.94276,-2.05378l-1.16381,-1.20488l-0.49291,-0.13692c-2.45084,0.53398 -5.68212,0 -7.62637,0.38337a15.8004,15.8004 0 0 1 4.34032,3.01221z"/>
    <path stroke="null" id="svg_1960" fill="#9da4b4" d="m85.86426,175.45138l-0.35599,-0.36968l-4.94276,2.05378c0.10953,0.12323 0.23276,0.24645 0.3423,0.38337l4.95645,-2.06747z"/>
    <path stroke="null" id="svg_1961" fill="url(#linear-gradient-161)" d="m85.86426,175.45138l-0.35599,-0.36968l-4.94276,2.05378c0.10953,0.12323 0.23276,0.24645 0.3423,0.38337l4.95645,-2.06747z"/>
    <path stroke="null" id="svg_1962" fill="#bccbd4" d="m81.16795,177.82008l0,0.08215l4.98384,-2.08116l-0.35599,-0.36968l-4.95645,2.06747l0.3286,0.30122z"/>
    <path stroke="null" id="svg_1963" fill="url(#linear-gradient-162)" d="m81.16795,177.82008l0,0.08215l4.98384,-2.08116l-0.35599,-0.36968l-4.95645,2.06747l0.3286,0.30122z"/>
    <path stroke="null" id="svg_1964" fill="#92c5eb" d="m90.30042,188.28066s3.62834,0 7.59898,0c-1.36919,-1.53349 -3.54619,-3.92956 -5.12076,-5.58628s-4.62785,-4.84692 -6.61317,-6.84593l-4.98384,2.08116c2.27285,2.79314 9.11878,10.35104 9.11878,10.35104z"/>
    <path stroke="null" id="svg_1965" fill="url(#linear-gradient-163)" d="m90.30042,188.28066s3.62834,0 7.59898,0c-1.36919,-1.53349 -3.54619,-3.92956 -5.12076,-5.58628s-4.62785,-4.84692 -6.61317,-6.84593l-4.98384,2.08116c2.27285,2.79314 9.11878,10.35104 9.11878,10.35104z"/>
    <path stroke="null" id="svg_1966" fill="#92c5eb" d="m115.30176,193.51095l0.38337,-2.60145a4.55939,4.55939 0 0 0 -0.8352,-0.30122l-5.87381,-2.57407l-1.36919,-1.76625s0,-1.91686 1.36919,-2.17701s6.94177,2.14962 6.94177,2.14962l0.45183,0.49291l0.08215,-0.57506a62.7224,62.7224 0 0 0 -6.57209,-2.95744c-2.94375,1.88948 -6.20241,3.91587 -8.31096,5.23029a39.40517,39.40517 0 0 1 4.97014,0.47922c4.29924,0.86259 8.76279,4.60046 8.76279,4.60046z"/>
    <path stroke="null" id="svg_1967" fill="url(#linear-gradient-164)" d="m115.30176,193.51095l0.38337,-2.60145a4.55939,4.55939 0 0 0 -0.8352,-0.30122l-5.87381,-2.57407l-1.36919,-1.76625s0,-1.91686 1.36919,-2.17701s6.94177,2.14962 6.94177,2.14962l0.45183,0.49291l0.08215,-0.57506a62.7224,62.7224 0 0 0 -6.57209,-2.95744c-2.94375,1.88948 -6.20241,3.91587 -8.31096,5.23029a39.40517,39.40517 0 0 1 4.97014,0.47922c4.29924,0.86259 8.76279,4.60046 8.76279,4.60046z"/>
    <path stroke="null" id="svg_1968" fill="#92c5eb" d="m99.88473,181.01028l-1.46503,-0.41076a1.36919,1.36919 0 0 0 1.46503,0.41076z"/>
    <path stroke="null" id="svg_1969" fill="url(#linear-gradient-165)" d="m99.88473,181.01028l-1.46503,-0.41076a1.36919,1.36919 0 0 0 1.46503,0.41076z"/>
    <path stroke="null" id="svg_1970" fill="#43616f" d="m83.85156,173.7399l-4.84692,-1.36919a0.73936,0.73936 0 0 1 0,-0.15061l-3.92956,1.36919s0.43814,0.1643 1.08166,0.47922c2.0127,-0.27384 5.24398,0.20538 7.69482,-0.3286z"/>
    <path stroke="null" id="svg_1971" fill="url(#linear-gradient-166)" d="m83.85156,173.7399l-4.84692,-1.36919a0.73936,0.73936 0 0 1 0,-0.15061l-3.92956,1.36919s0.43814,0.1643 1.08166,0.47922c2.0127,-0.27384 5.24398,0.20538 7.69482,-0.3286z"/>
    <path stroke="null" id="svg_1972" fill="#e6f0cb" d="m108.92135,184.09095c-1.36919,0.26015 -1.36919,2.17701 -1.36919,2.17701l1.36919,1.76625l5.87381,2.57407a4.55939,4.55939 0 0 1 0.8352,0.30122l0.62983,-4.10756l-0.45183,-0.49291s-5.49044,-2.46453 -6.887,-2.21808z"/>
    <path stroke="null" id="svg_1973" fill="url(#linear-gradient-167)" d="m108.92135,184.09095c-1.36919,0.26015 -1.36919,2.17701 -1.36919,2.17701l1.36919,1.76625l5.87381,2.57407a4.55939,4.55939 0 0 1 0.8352,0.30122l0.62983,-4.10756l-0.45183,-0.49291s-5.49044,-2.46453 -6.887,-2.21808z"/>
    <path stroke="null" id="svg_1974" fill="#e6f0cb" d="m112.98783,177.1081l0.08215,0a9.36523,9.36523 0 0 1 2.40977,-1.54718a6.66794,6.66794 0 0 1 1.15012,-0.38337a14.30799,14.30799 0 0 0 5.55889,-3.12174s2.38238,-0.30122 2.97113,-0.47922s-0.12323,-0.97212 0.21907,-1.08166s0.28753,-0.8352 0.28753,-0.8352l-3.03959,-0.60244a20.53779,20.53779 0 0 0 2.94375,-0.28753c0.5066,-0.43814 0,-1.36919 0,-1.36919l-4.95645,0.64352l2.40977,-1.13642l2.39608,-0.8489l-0.28753,-0.91735l-4.71,1.53349l-7.36622,6.13395l-1.05427,0.87628a23.00232,23.00232 0 0 0 0.98581,3.42296z"/>
    <path stroke="null" id="svg_1975" fill="#9da787" d="m85.37136,152.06569a5.99703,5.99703 0 0 1 1.12273,1.15012a2.60145,2.60145 0 0 1 0.27384,0.46552a1.27334,1.27334 0 0 1 0.06846,0.13692a2.20439,2.20439 0 0 1 0.1643,0.45183a0.19169,0.19169 0 0 1 0,0.08215c0,0.19169 0.09584,0.38337 0.13692,0.58875s0,0.09584 0,0.15061s0,0.3423 0,0.52029a0.52029,0.52029 0 0 0 0,0.13692l0,0.64352s0,0.10953 0,0.1643a3.50512,3.50512 0 0 1 0,0.53398a0.8352,0.8352 0 0 1 0,0.19169c0,0.21907 0,0.43814 -0.09584,0.65721a0.68459,0.68459 0 0 1 0,0.1643c0,0.1643 0,0.3423 -0.09584,0.5066a1.02689,1.02689 0 0 0 0,0.21907l0.24645,0c1.10904,-0.26015 2.73837,-3.17651 2.62884,-4.24448s-1.04058,-2.73837 -2.0127,-2.8616a7.35253,7.35253 0 0 1 -2.47823,-1.53349a1.67041,1.67041 0 0 1 0.19169,0.68459a5.47674,5.47674 0 0 1 -0.15061,1.19119z"/>
    <path stroke="null" id="svg_1976" fill="#e6f0cb" d="m86.32979,160.6231a1.83471,1.83471 0 0 1 -0.09584,0.24645a1.83471,1.83471 0 0 0 0.09584,-0.24645z"/>
    <path stroke="null" id="svg_1977" fill="#e6f0cb" d="m82.37284,162.74534l0.19169,0l-0.06846,-0.15061l-0.12323,0.15061z"/>
    <path stroke="null" id="svg_1978" fill="#e6f0cb" d="m80.71612,162.3072s0.39706,0.13692 0.98581,0.28753c0.28753,-0.41076 0.97212,-1.36919 1.36919,-1.94424l0.45183,-0.78044s0,0.1643 -0.08215,0.41076a1.93055,1.93055 0 0 1 0.38337,2.61514a3.05328,3.05328 0 0 0 1.15012,-0.15061a3.57358,3.57358 0 0 0 1.36919,-1.87578a23.56369,23.56369 0 0 0 -0.56137,-4.44985c-0.41076,-1.16381 -2.83421,-2.31392 -4.10756,-2.87529c-0.78044,0.28753 -2.73837,0.36968 -3.24497,0.69828s-3.65573,2.0127 -3.65573,2.0127l0,0a17.79942,17.79942 0 0 1 -1.82102,1.19119a20.19549,20.19549 0 0 1 1.95794,2.42346l0,0a2.99852,2.99852 0 0 0 1.15012,0.65721c1.49241,0.35599 1.87578,0.42445 2.34131,1.0132a12.89773,12.89773 0 0 0 0.93105,0.98581l0.35599,0.3423l1.02689,-0.56137zm0.87628,-4.83323l-0.87628,1.95794l0,0l-0.20538,0.52029l0,0l-0.06846,0.17799s-0.24645,0 -0.54767,0l-0.08215,0a3.64203,3.64203 0 0 1 -0.38337,0l0,0a0.76674,0.76674 0 0 1 -0.56137,-0.30122l2.72468,-2.355zm-4.79215,2.16331a6.50363,6.50363 0 0 1 2.97113,-2.61514c-2.23177,1.28703 -2.46453,2.57407 -2.46453,2.57407s-0.79413,0.88997 -0.54767,0.04108l0.04108,0z"/>
    <path stroke="null" id="svg_1979" fill="#e6f0cb" d="m86.78162,159.30868c0,0.10953 0,0.20538 -0.09584,0.30122s0.06846,-0.19169 0.09584,-0.30122z"/>
    <path stroke="null" id="svg_1980" fill="#e6f0cb" d="m86.54886,160.04804a1.99901,1.99901 0 0 1 -0.09584,0.26015a1.46503,1.46503 0 0 0 0.09584,-0.26015z"/>
    <path stroke="null" id="svg_1981" fill="#e6f0cb" d="m87.19237,157.0906a0.8352,0.8352 0 0 1 0,0.19169a0.8352,0.8352 0 0 0 0,-0.19169z"/>
    <path stroke="null" id="svg_1982" fill="#e6f0cb" d="m86.89115,158.81578l0,0a1.02689,1.02689 0 0 1 0,-0.21907c0.04108,0.09584 0.02738,0.21907 0,0.21907z"/>
    <path stroke="null" id="svg_1983" fill="#e6f0cb" d="m87.24714,156.39232s0,0.10953 0,0.1643s0,-0.10953 0,-0.1643z"/>
    <path stroke="null" id="svg_1984" fill="#e6f0cb" d="m87.08284,157.9395a0.68459,0.68459 0 0 1 0,0.1643a0.68459,0.68459 0 0 0 0,-0.1643z"/>
    <path stroke="null" id="svg_1985" fill="#e6f0cb" d="m86.76792,153.68133a1.27334,1.27334 0 0 1 0.06846,0.13692a1.27334,1.27334 0 0 0 -0.06846,-0.13692z"/>
    <path stroke="null" id="svg_1986" fill="#e6f0cb" d="m87.16499,154.94098s0,0.09584 0,0.15061s0,-0.10953 0,-0.15061z"/>
    <path stroke="null" id="svg_1987" fill="#e6f0cb" d="m87.00069,154.27008a0.19169,0.19169 0 0 1 0,0.08215a0.19169,0.19169 0 0 0 0,-0.08215z"/>
    <path stroke="null" id="svg_1988" fill="#e6f0cb" d="m87.23345,155.61188a0.52029,0.52029 0 0 0 0,0.13692a0.52029,0.52029 0 0 1 0,-0.13692z"/>
    <path stroke="null" id="svg_1989" fill="#1e7ba4" d="m125.89926,197.15298a1.73887,1.73887 0 0 1 -1.1775,1.06796a6.84593,6.84593 0 0 0 0.56137,0.78044a6.46256,6.46256 0 0 1 1.19119,2.58776s1.77994,-3.42296 0.94474,-5.47674a18.03218,18.03218 0 0 0 -1.13642,-2.20439l1.23227,0.15061l0,-0.46552l-3.65573,-3.28605a4.64154,4.64154 0 0 1 -0.87628,0.17799c0.68459,1.19119 3.17651,5.65474 2.91637,6.66794z"/>
    <path stroke="null" id="svg_1990" fill="#2e4853" d="m92.57327,157.80258s3.38189,4.58677 1.69779,6.98285a10.07721,10.07721 0 0 1 -3.46404,2.91637a12.65128,12.65128 0 0 1 1.02689,1.61564l0,0a25.28886,25.28886 0 0 0 2.42346,-2.28654l1.61564,-3.1902l0,0a2.73837,2.73837 0 0 0 0,-0.3423l0,-0.17799c0,-0.20538 0,-0.41076 0,-0.61613a1.5061,1.5061 0 0 1 0,-0.24645c0,-0.13692 0,-0.27384 0,-0.39706l0,-0.23276c0,-0.17799 -0.06846,-0.35599 -0.10953,-0.52029l0,-0.1643c0,-0.13692 -0.06846,-0.24645 -0.09584,-0.35599l0,-0.13692l-0.10953,-0.35599l0,0a5.66843,5.66843 0 0 0 -2.98483,-2.49192z"/>
    <path stroke="null" id="svg_1991" fill="url(#linear-gradient-168)" d="m91.06717,172.78147l1.97163,-0.80782a17.16959,17.16959 0 0 0 -1.20488,-2.65622s-0.93105,0.71198 -2.20439,1.54718l1.43765,1.91686z"/>
    <path stroke="null" id="svg_1992" fill="#9da4b4" d="m91.3547,173.17854l1.98532,-0.8352a2.84791,2.84791 0 0 0 -0.27384,-0.28753a0.19169,0.19169 0 0 0 0,-0.08215l-1.97163,0.80782l0.26015,0.39706z"/>
    <path stroke="null" id="svg_1993" fill="url(#linear-gradient-169)" d="m91.3547,173.17854l1.98532,-0.8352a2.84791,2.84791 0 0 0 -0.27384,-0.28753a0.19169,0.19169 0 0 0 0,-0.08215l-1.97163,0.80782l0.26015,0.39706z"/>
    <path stroke="null" id="svg_1994" fill="#bccbd4" d="m91.66961,173.56191l1.98532,-0.82151l-0.28753,-0.39706l-1.98532,0.8352l0.28753,0.38337z"/>
    <path stroke="null" id="svg_1995" fill="url(#linear-gradient-170)" d="m91.66961,173.56191l1.98532,-0.82151l-0.28753,-0.39706l-1.98532,0.8352l0.28753,0.38337z"/>
    <path stroke="null" id="svg_1996" fill="#92c5eb" d="m113.57658,179.13449l-1.27334,-1.36919a7.95497,7.95497 0 0 0 -0.58875,0.6709l-0.08215,-1.36919l-0.69828,-0.71198l0.36968,-1.86209a6.84593,6.84593 0 0 1 0.41076,-2.05378a56.8349,56.8349 0 0 1 -5.83273,4.40878a46.96307,46.96307 0 0 0 -5.79166,3.84741c0,0.10953 -0.12323,0.17799 -0.26015,0.23276a32.4497,32.4497 0 0 0 6.16134,1.23227a14.39014,14.39014 0 0 1 3.77895,0.95843a71.52627,71.52627 0 0 0 6.61317,-4.50462a15.06104,15.06104 0 0 1 -2.80683,0.52029z"/>
    <path stroke="null" id="svg_1997" fill="url(#linear-gradient-171)" d="m113.57658,179.13449l-1.27334,-1.36919a7.95497,7.95497 0 0 0 -0.58875,0.6709l-0.08215,-1.36919l-0.69828,-0.71198l0.36968,-1.86209a6.84593,6.84593 0 0 1 0.41076,-2.05378a56.8349,56.8349 0 0 1 -5.83273,4.40878a46.96307,46.96307 0 0 0 -5.79166,3.84741c0,0.10953 -0.12323,0.17799 -0.26015,0.23276a32.4497,32.4497 0 0 0 6.16134,1.23227a14.39014,14.39014 0 0 1 3.77895,0.95843a71.52627,71.52627 0 0 0 6.61317,-4.50462a15.06104,15.06104 0 0 1 -2.80683,0.52029z"/>
    <path stroke="null" id="svg_1998" fill="#92c5eb" d="m101.51406,188.43127c-1.15012,0 -2.36869,-0.10953 -3.55988,-0.12323l1.36919,1.49241l2.1907,-1.36919z"/>
    <path stroke="null" id="svg_1999" fill="url(#linear-gradient-172)" d="m101.51406,188.43127c-1.15012,0 -2.36869,-0.10953 -3.55988,-0.12323l1.36919,1.49241l2.1907,-1.36919z"/>
    <path stroke="null" id="svg_2000" fill="#92c5eb" d="m96.48914,179.99708s0.78044,0.26015 1.93055,0.60244a1.19119,1.19119 0 0 1 -0.12323,-0.15061c-0.47922,-0.73936 -3.1902,-5.68212 -4.66892,-7.70852l-1.98532,0.82151l4.84692,6.43517z"/>
    <path stroke="null" id="svg_2001" fill="url(#linear-gradient-173)" d="m96.48914,179.99708s0.78044,0.26015 1.93055,0.60244a1.19119,1.19119 0 0 1 -0.12323,-0.15061c-0.47922,-0.73936 -3.1902,-5.68212 -4.66892,-7.70852l-1.98532,0.82151l4.84692,6.43517z"/>
    <path stroke="null" id="svg_2002" fill="#43616f" d="m91.02609,169.90618c-0.68459,-0.75305 -1.36919,-1.65671 -1.36919,-1.65671a9.68014,9.68014 0 0 0 1.1775,-0.54767a3.73788,3.73788 0 0 0 -1.69779,-1.49241a9.5843,9.5843 0 0 0 -10.03613,6.06549l9.18724,-3.21759l1.36919,1.80733c1.27334,-0.8352 2.1907,-1.54718 2.20439,-1.54718l0,0l-0.8352,0.58875z"/>
    <path stroke="null" id="svg_2003" fill="url(#linear-gradient-174)" d="m91.02609,169.90618c-0.68459,-0.75305 -1.36919,-1.65671 -1.36919,-1.65671a9.68014,9.68014 0 0 0 1.1775,-0.54767a3.73788,3.73788 0 0 0 -1.69779,-1.49241a9.5843,9.5843 0 0 0 -10.03613,6.06549l9.18724,-3.21759l1.36919,1.80733c1.27334,-0.8352 2.1907,-1.54718 2.20439,-1.54718l0,0l-0.8352,0.58875z"/>
    <path stroke="null" id="svg_2004" fill="#2e4853" d="m110.98882,176.4372l0.69828,0.71198l-0.20538,-3.06698l0.47922,-0.39706a2.60145,2.60145 0 0 1 0,-1.36919l-0.19169,0.15061a6.84593,6.84593 0 0 0 -0.41076,2.05378l-0.36968,1.91686z"/>
    <path stroke="null" id="svg_2005" fill="url(#linear-gradient-175)" d="m110.98882,176.4372l0.69828,0.71198l-0.20538,-3.06698l0.47922,-0.39706a2.60145,2.60145 0 0 1 0,-1.36919l-0.19169,0.15061a6.84593,6.84593 0 0 0 -0.41076,2.05378l-0.36968,1.91686z"/>
    <path stroke="null" id="svg_2006" fill="#2e4853" d="m112.35801,177.83377l1.27334,1.36919a15.06104,15.06104 0 0 0 2.80683,-0.43814a19.5109,19.5109 0 0 1 -3.3682,-1.54718a8.79017,8.79017 0 0 0 -0.71198,0.61613z"/>
    <path stroke="null" id="svg_2007" fill="url(#linear-gradient-176)" d="m112.35801,177.83377l1.27334,1.36919a15.06104,15.06104 0 0 0 2.80683,-0.43814a19.5109,19.5109 0 0 1 -3.3682,-1.54718a8.79017,8.79017 0 0 0 -0.71198,0.61613z"/>
    <path stroke="null" id="svg_2008" fill="url(#linear-gradient-177)" d="m83.85156,173.7399l0.49291,0.13692l1.16381,1.20488l5.55889,-2.30023l-1.36919,-1.91686a20.04488,20.04488 0 0 1 -5.69581,2.8616l-0.15061,0.01369z"/>
    <path stroke="null" id="svg_2009" fill="url(#linear-gradient-178)" d="m83.85156,173.7399l0.49291,0.13692l1.16381,1.20488l5.55889,-2.30023l-1.36919,-1.91686a20.04488,20.04488 0 0 1 -5.69581,2.8616l-0.15061,0.01369z"/>
    <path stroke="null" id="svg_2010" fill="#9da4b4" d="m85.86426,175.45138l5.47674,-2.27285l-0.28753,-0.39706l-5.55889,2.30023l0.36968,0.36968z"/>
    <path stroke="null" id="svg_2011" fill="url(#linear-gradient-179)" d="m85.86426,175.45138l5.47674,-2.27285l-0.28753,-0.39706l-5.55889,2.30023l0.36968,0.36968z"/>
    <path stroke="null" id="svg_2012" fill="url(#linear-gradient-180)" d="m85.86426,175.45138l5.47674,-2.27285l-0.28753,-0.39706l-5.55889,2.30023l0.36968,0.36968z"/>
    <path stroke="null" id="svg_2013" fill="#bccbd4" d="m86.19287,175.82106l5.47674,-2.25916l-0.28753,-0.38337l-5.47674,2.27285l0.28753,0.36968z"/>
    <path stroke="null" id="svg_2014" fill="url(#linear-gradient-181)" d="m86.19287,175.82106l5.47674,-2.25916l-0.28753,-0.38337l-5.47674,2.27285l0.28753,0.36968z"/>
    <path stroke="null" id="svg_2015" fill="url(#linear-gradient-182)" d="m86.19287,175.82106l5.47674,-2.25916l-0.28753,-0.38337l-5.47674,2.27285l0.28753,0.36968z"/>
    <path stroke="null" id="svg_2016" fill="#92c5eb" d="m92.83342,182.72176c1.57456,1.65671 3.73788,4.10756 5.12076,5.58628c1.19119,0 2.40977,0 3.55988,0.12323c2.10855,-1.36919 5.36721,-3.34081 8.31096,-5.23029a14.39014,14.39014 0 0 0 -3.77895,-0.95843a32.4497,32.4497 0 0 1 -6.16134,-1.23227a1.36919,1.36919 0 0 1 -1.46503,-0.41076c-1.15012,-0.3423 -1.93055,-0.60244 -1.93055,-0.60244l-4.81953,-6.43517l-5.47674,2.25916c2.0127,2.05378 5.0523,5.20291 6.64055,6.9007z"/>
    <path stroke="null" id="svg_2017" fill="url(#linear-gradient-183)" d="m92.83342,182.72176c1.57456,1.65671 3.73788,4.10756 5.12076,5.58628c1.19119,0 2.40977,0 3.55988,0.12323c2.10855,-1.36919 5.36721,-3.34081 8.31096,-5.23029a14.39014,14.39014 0 0 0 -3.77895,-0.95843a32.4497,32.4497 0 0 1 -6.16134,-1.23227a1.36919,1.36919 0 0 1 -1.46503,-0.41076c-1.15012,-0.3423 -1.93055,-0.60244 -1.93055,-0.60244l-4.81953,-6.43517l-5.47674,2.25916c2.0127,2.05378 5.0523,5.20291 6.64055,6.9007z"/>
    <path stroke="null" id="svg_2018" fill="url(#linear-gradient-184)" d="m92.83342,182.72176c1.57456,1.65671 3.73788,4.10756 5.12076,5.58628c1.19119,0 2.40977,0 3.55988,0.12323c2.10855,-1.36919 5.36721,-3.34081 8.31096,-5.23029a14.39014,14.39014 0 0 0 -3.77895,-0.95843a32.4497,32.4497 0 0 1 -6.16134,-1.23227a1.36919,1.36919 0 0 1 -1.46503,-0.41076c-1.15012,-0.3423 -1.93055,-0.60244 -1.93055,-0.60244l-4.81953,-6.43517l-5.47674,2.25916c2.0127,2.05378 5.0523,5.20291 6.64055,6.9007z"/>
    <path stroke="null" id="svg_2019" fill="#43616f" d="m83.85156,173.7399l0.08215,0a20.04488,20.04488 0 0 0 5.69581,-2.8616l-1.36919,-1.80733l-9.18724,3.21759a0.73936,0.73936 0 0 0 0,0.15061l4.77846,1.30073z"/>
    <path stroke="null" id="svg_2020" fill="url(#linear-gradient-185)" d="m83.85156,173.7399l0.08215,0a20.04488,20.04488 0 0 0 5.69581,-2.8616l-1.36919,-1.80733l-9.18724,3.21759a0.73936,0.73936 0 0 0 0,0.15061l4.77846,1.30073z"/>
    <path stroke="null" id="svg_2021" fill="url(#linear-gradient-186)" d="m83.85156,173.7399l0.08215,0a20.04488,20.04488 0 0 0 5.69581,-2.8616l-1.36919,-1.80733l-9.18724,3.21759a0.73936,0.73936 0 0 0 0,0.15061l4.77846,1.30073z"/>
    <path stroke="null" id="svg_2022" fill="#e6f0cb" d="m113.06998,177.14918l-0.08215,0a23.00232,23.00232 0 0 1 -1.02689,-3.42296l-0.47922,0.39706l0.20538,3.06698l0.08215,1.36919a7.95497,7.95497 0 0 1 0.58875,-0.6709a8.79017,8.79017 0 0 1 0.71198,-0.73936z"/>
    <path stroke="null" id="svg_2023" fill="url(#linear-gradient-187)" d="m113.06998,177.14918l-0.08215,0a23.00232,23.00232 0 0 1 -1.02689,-3.42296l-0.47922,0.39706l0.20538,3.06698l0.08215,1.36919a7.95497,7.95497 0 0 1 0.58875,-0.6709a8.79017,8.79017 0 0 1 0.71198,-0.73936z"/>
    <path stroke="null" id="svg_2024" fill="#2e4853" d="m91.02609,169.90618l0.80782,-0.58875a12.65128,12.65128 0 0 0 -1.02689,-1.61564a9.68014,9.68014 0 0 1 -1.1775,0.54767s0.6709,0.90366 1.39657,1.65671z"/>
    <path stroke="null" id="svg_2025" fill="url(#linear-gradient-188)" d="m91.02609,169.90618l0.80782,-0.58875a12.65128,12.65128 0 0 0 -1.02689,-1.61564a9.68014,9.68014 0 0 1 -1.1775,0.54767s0.6709,0.90366 1.39657,1.65671z"/>
    <path stroke="null" id="svg_2026" fill="#fff" d="m79.9083,160.18496c0.30122,0 0.54767,0 0.54767,0l0.06846,-0.17799a0.91735,0.91735 0 0 1 -0.30122,0.17799a1.20488,1.20488 0 0 1 -0.31491,0z"/>
    <path stroke="null" id="svg_2027" fill="#fff" d="m79.82615,160.18496a3.64203,3.64203 0 0 1 -0.38337,0a3.64203,3.64203 0 0 0 0.38337,0z"/>
    <path stroke="null" id="svg_2028" fill="#fff" d="m79.42909,160.10281a0.56137,0.56137 0 0 1 -0.21907,-0.28753a0.75305,0.75305 0 0 1 0,-0.30122l0.6709,-0.57506a0.71198,0.71198 0 0 1 0.86259,0.39706s0,0 0,0.09584l0.80782,-1.95794l-2.73837,2.32762a0.76674,0.76674 0 0 0 0.61613,0.30122z"/>
    <path stroke="null" id="svg_2029" fill="#764443" d="m77.26578,159.59621s0.23276,-1.28703 2.46453,-2.57407a6.50363,6.50363 0 0 0 -2.97113,2.61514c-0.24645,0.8489 0.5066,-0.04108 0.5066,-0.04108z"/>
    <path stroke="null" id="svg_2030" fill="#b43123" d="m79.86723,158.939l-0.6709,0.57506a0.75305,0.75305 0 0 0 0,0.30122a0.56137,0.56137 0 0 0 0.21907,0.28753l0,0a3.64203,3.64203 0 0 0 0.38337,0l0.08215,0a1.20488,1.20488 0 0 0 0.31491,0a0.91735,0.91735 0 0 0 0.30122,-0.17799l0,0l0.20538,-0.52029l0,0s0,0 0,-0.09584a0.71198,0.71198 0 0 0 -0.8352,-0.36968zm0.17799,1.09535a0.23276,0.23276 0 1 1 -0.13692,-0.45183a0.24645,0.24645 0 0 1 0.3286,0.13692a0.24645,0.24645 0 0 1 -0.19169,0.31491z"/>
    <path stroke="null" id="svg_2031" d="m79.9083,159.58252a0.23276,0.23276 0 1 0 0.13692,0.45183a0.24645,0.24645 0 0 0 0.19169,-0.31491a0.24645,0.24645 0 0 0 -0.3286,-0.13692z"/>
    <path stroke="null" id="svg_2032" fill="#995c5a" d="m82.49607,162.63581l0,0l0.24645,-0.57506l0.36968,-0.99951l0.21907,-0.80782l0,0c0,-0.24645 0.08215,-0.41076 0.08215,-0.41076l-0.45183,0.78044c-0.35599,0.60244 -1.04058,1.53349 -1.36919,1.94424l-0.15061,0.19169a7.66744,7.66744 0 0 0 0.80782,0s0,0 0,0l0.24645,-0.12323z"/>
    <path stroke="null" id="svg_2033" fill="#b08874" d="m83.35865,160.28081l0,0l-0.21907,0.80782l0.09584,-0.26015s0.49291,1.36919 -0.15061,1.73887c-0.36968,0.20538 -0.47922,0 -0.47922,0l0.1643,-0.43814l-0.24645,0.57506l0,0l0.06846,0.15061c0.1643,0.28753 0.57506,0.82151 1.09535,0.21907a0.3286,0.3286 0 0 0 0.08215,-0.10953a1.93055,1.93055 0 0 0 -0.41076,-2.6836z"/>
    <path stroke="null" id="svg_2034" fill="#fff" d="m82.57822,162.49889s0.10953,0.24645 0.47922,0c0.64352,-0.35599 0.15061,-1.73887 0.15061,-1.73887l-0.09584,0.26015l-0.36968,0.99951l-0.1643,0.47922z"/>
    <path stroke="null" id="svg_2035" fill="#c7d3a9" d="m86.95961,158.6104c0,-0.1643 0.06846,-0.3423 0.09584,-0.5066a0.68459,0.68459 0 0 0 0,-0.1643c0,-0.21907 0.06846,-0.43814 0.09584,-0.65721a0.8352,0.8352 0 0 0 0,-0.19169a3.50512,3.50512 0 0 0 0,-0.53398s0,-0.10953 0,-0.1643l0,-0.64352a0.52029,0.52029 0 0 1 0,-0.13692c0,-0.17799 0,-0.35599 0,-0.52029s0,-0.10953 0,-0.15061s-0.08215,-0.39706 -0.13692,-0.58875a0.19169,0.19169 0 0 0 0,-0.08215a2.20439,2.20439 0 0 0 -0.1643,-0.45183a1.27334,1.27334 0 0 0 -0.06846,-0.13692a2.60145,2.60145 0 0 0 -0.27384,-0.46552a5.99703,5.99703 0 0 0 -1.12273,-1.15012l0,0.13692l-2.65622,-0.90366a6.73639,6.73639 0 0 1 -2.40977,1.47872c-2.82052,0.98581 -2.62884,1.0132 -3.34081,1.69779a24.52212,24.52212 0 0 1 -2.30023,1.76625l0,0s3.12174,-1.69779 3.65573,-2.0127s2.46453,-0.41076 3.24497,-0.69828c1.30073,0.56137 3.72419,1.71148 4.10756,2.87529a23.56369,23.56369 0 0 1 0.5066,4.46355l0,0a1.83471,1.83471 0 0 0 0.09584,-0.24645l0.12323,-0.31491a1.99901,1.99901 0 0 0 0.09584,-0.26015a4.10756,4.10756 0 0 0 0.13692,-0.43814c0,-0.09584 0,-0.19169 0.09584,-0.30122s0.08215,-0.30122 0.10953,-0.45183s0.08215,-0.1643 0.10953,-0.24645z"/>
    <path stroke="null" id="svg_2036" fill="url(#linear-gradient-189)" d="m72.81592,157.44659l0.21907,-0.27384a0.64352,0.64352 0 0 1 -0.3286,0a7.70852,7.70852 0 0 1 -1.06796,-4.61416a6.48994,6.48994 0 0 1 3.43666,-4.80584c-1.20488,1.47872 -2.57407,6.51732 -1.49241,8.7491l1.88948,-2.30023l0.97212,-1.87578l2.73837,-0.57506l0,0l0.28753,0a24.19351,24.19351 0 0 1 4.32663,-4.10756l0.91735,-2.08116l1.23227,-2.50561a3.03959,3.03959 0 0 1 0.99951,-0.86259a3.32712,3.32712 0 0 0 -1.58826,-1.25965c-1.28703,-0.3286 -3.55988,2.13593 -4.40878,3.23128s-1.36919,0.15061 -5.24398,1.46503s-5.73689,7.24299 -5.25767,10.22782a5.47674,5.47674 0 0 0 3.54619,3.94326l0.43814,0.09584l0,-0.12323a11.21363,11.21363 0 0 1 -1.61564,-2.32762z"/>
    <path stroke="null" id="svg_2037" fill="#2e4853" d="m86.02856,142.9606l-1.23227,2.50561l-0.91735,2.08116a8.7491,8.7491 0 0 1 2.87529,-1.36919l0.69828,0.49291a3.60096,3.60096 0 0 0 0.61613,-0.99951a4.25817,4.25817 0 0 0 -1.04058,-3.5325a3.03959,3.03959 0 0 0 -0.99951,0.82151z"/>
    <path stroke="null" id="svg_2038" fill="url(#linear-gradient-190)" d="m86.02856,142.9606l-1.23227,2.50561l-0.91735,2.08116a8.7491,8.7491 0 0 1 2.87529,-1.36919l0.69828,0.49291a3.60096,3.60096 0 0 0 0.61613,-0.99951a4.25817,4.25817 0 0 0 -1.04058,-3.5325a3.03959,3.03959 0 0 0 -0.99951,0.82151z"/>
    <path stroke="null" id="svg_2039" fill="#43616f" d="m74.56848,159.67836l0,0l0,0.12323l0,0l0,-0.12323z"/>
    <path stroke="null" id="svg_2040" fill="url(#linear-gradient-191)" d="m74.56848,159.67836l0,0l0,0.12323l0,0l0,-0.12323z"/>
    <path stroke="null" id="svg_2041" fill="#43616f" d="m82.92051,149.23148a1.86209,1.86209 0 0 1 1.36919,0l0.08215,-0.13692a14.03415,14.03415 0 0 0 3.08067,-2.46453l-0.69828,-0.49291a8.7491,8.7491 0 0 0 -2.87529,1.36919a24.19351,24.19351 0 0 0 -4.32663,4.10756l2.73837,-0.54767s-0.87628,-1.41026 0.62983,-1.83471z"/>
    <path stroke="null" id="svg_2042" fill="url(#linear-gradient-192)" d="m82.92051,149.23148a1.86209,1.86209 0 0 1 1.36919,0l0.08215,-0.13692a14.03415,14.03415 0 0 0 3.08067,-2.46453l-0.69828,-0.49291a8.7491,8.7491 0 0 0 -2.87529,1.36919a24.19351,24.19351 0 0 0 -4.32663,4.10756l2.73837,-0.54767s-0.87628,-1.41026 0.62983,-1.83471z"/>
    <path stroke="null" id="svg_2043" fill="#4d6e7d" d="m74.51371,159.80159l0.23276,0l-0.17799,-0.17799l-0.05477,0.17799z"/>
    <path stroke="null" id="svg_2044" fill="url(#linear-gradient-193)" d="m74.51371,159.80159l0.23276,0l-0.17799,-0.17799l-0.05477,0.17799z"/>
    <path stroke="null" id="svg_2045" fill="#e6f0cb" d="m74.44525,155.44758l0.98581,-1.20488l2.355,-1.93055l1.46503,-0.56137l-2.73837,0.57506l-0.97212,1.87578l-1.88948,2.30023s0,0 0,0a0.99951,0.99951 0 0 1 -0.57506,0.58875l-0.21907,0.27384a17.79942,17.79942 0 0 0 1.82102,-1.19119l-0.23276,-0.72567z"/>
    <path stroke="null" id="svg_2046" fill="url(#linear-gradient-194)" d="m74.44525,155.44758l0.98581,-1.20488l2.355,-1.93055l1.46503,-0.56137l-2.73837,0.57506l-0.97212,1.87578l-1.88948,2.30023s0,0 0,0a0.99951,0.99951 0 0 1 -0.57506,0.58875l-0.21907,0.27384a17.79942,17.79942 0 0 0 1.82102,-1.19119l-0.23276,-0.72567z"/>
    <path stroke="null" id="svg_2047" fill="#e6f0cb" d="m72.81592,157.44659a11.21363,11.21363 0 0 0 1.75256,2.24546l0,0l0.17799,0.17799l0,0a20.19549,20.19549 0 0 0 -1.93055,-2.42346z"/>
    <path stroke="null" id="svg_2048" fill="url(#linear-gradient-195)" d="m72.81592,157.44659a11.21363,11.21363 0 0 0 1.75256,2.24546l0,0l0.17799,0.17799l0,0a20.19549,20.19549 0 0 0 -1.93055,-2.42346z"/>
    <path stroke="null" id="svg_2049" fill="#c7d3a9" d="m75.43107,154.2427l-0.98581,1.20488l0.19169,0.79413a24.52212,24.52212 0 0 0 2.30023,-1.76625c0.71198,-0.68459 0.52029,-0.71198 3.34081,-1.69779a6.73639,6.73639 0 0 0 2.40977,-1.47872l-0.43814,-0.15061l-2.73837,0.54767l-0.28753,0l0,0l-1.46503,0.56137l-2.32762,1.98532z"/>
    <path stroke="null" id="svg_2050" fill="url(#linear-gradient-196)" d="m75.43107,154.2427l-0.98581,1.20488l0.19169,0.79413a24.52212,24.52212 0 0 0 2.30023,-1.76625c0.71198,-0.68459 0.52029,-0.71198 3.34081,-1.69779a6.73639,6.73639 0 0 0 2.40977,-1.47872l-0.43814,-0.15061l-2.73837,0.54767l-0.28753,0l0,0l-1.46503,0.56137l-2.32762,1.98532z"/>
    <path stroke="null" id="svg_2051" fill="#ddebb8" d="m82.92051,149.23148c-1.5061,0.46552 -0.6709,1.95794 -0.6709,1.95794l0.43814,0.15061l2.65622,0.90366l0,-0.13692a5.47674,5.47674 0 0 0 0.10953,-1.20488a1.67041,1.67041 0 0 0 -0.19169,-0.68459a1.93055,1.93055 0 0 0 -0.99951,-0.94474a1.86209,1.86209 0 0 0 -1.3418,-0.04108z"/>
    <path stroke="null" id="svg_2052" fill="url(#linear-gradient-197)" d="m75.07508,147.75276a6.48994,6.48994 0 0 0 -3.43666,4.80584a7.70852,7.70852 0 0 0 1.06796,4.61416a0.64352,0.64352 0 0 0 0.3286,0l0.54767,-0.65721c-1.08166,-2.24546 0.28753,-7.28407 1.49241,-8.76279z"/>
    <path stroke="null" id="svg_2053" fill="url(#linear-gradient-198)" d="m75.07508,147.75276a6.48994,6.48994 0 0 0 -3.43666,4.80584a7.70852,7.70852 0 0 0 1.06796,4.61416a0.64352,0.64352 0 0 0 0.3286,0l0.54767,-0.65721c-1.08166,-2.24546 0.28753,-7.28407 1.49241,-8.76279z"/>
    <path stroke="null" id="svg_2054" fill="#e6f0cb" d="m73.61005,156.57031s0,0 0,0l-0.54767,0.65721a0.99951,0.99951 0 0 0 0.54767,-0.65721z"/>
    <path stroke="null" id="svg_2055" fill="url(#linear-gradient-199)" d="m73.61005,156.57031s0,0 0,0l-0.54767,0.65721a0.99951,0.99951 0 0 0 0.54767,-0.65721z"/>
    <path stroke="null" id="svg_2056" fill="url(#linear-gradient-200)" d="m73.61005,156.57031s0,0 0,0l-0.54767,0.65721a0.99951,0.99951 0 0 0 0.54767,-0.65721z"/>
   </g>
  </g>
 </g>
</svg>