<?xml version="1.0" encoding="utf-8"?>
<!-- Generator: Adobe Illustrator 16.0.0, SVG Export Plug-In . SVG Version: 6.00 Build 0)  -->
<!DOCTYPE svg PUBLIC "-//W3C//DTD SVG 1.1//EN" "http://www.w3.org/Graphics/SVG/1.1/DTD/svg11.dtd">
<svg version="1.1" id="Layer_1" xmlns="http://www.w3.org/2000/svg" xmlns:xlink="http://www.w3.org/1999/xlink" x="0px" y="0px"
	 width="20px" height="20px" viewBox="0 0 20 20" enable-background="new 0 0 20 20" xml:space="preserve">
<g>
	<polygon fill-rule="evenodd" clip-rule="evenodd" fill="#2C3E50" points="13.434,16.654 13.434,17.061 13.428,17.154 13.411,17.25 
		13.387,17.344 13.354,17.438 13.311,17.533 13.264,17.627 13.206,17.717 13.139,17.813 13.064,17.898 12.98,17.988 12.89,18.074 
		12.791,18.156 12.688,18.234 12.578,18.309 12.463,18.383 12.344,18.447 12.219,18.514 12.089,18.57 11.954,18.629 11.816,18.678 
		11.675,18.727 11.529,18.771 11.381,18.809 11.229,18.842 11.075,18.875 10.919,18.9 10.761,18.924 10.601,18.941 10.438,18.957 
		10.276,18.965 10.112,18.969 9.948,18.969 9.784,18.965 9.622,18.953 9.456,18.941 9.293,18.92 9.131,18.896 8.969,18.867 
		8.809,18.834 8.653,18.797 8.495,18.752 8.343,18.707 8.193,18.652 8.049,18.596 7.914,18.539 7.784,18.473 7.661,18.406 
		7.544,18.338 7.433,18.264 7.331,18.189 7.234,18.115 7.146,18.033 7.063,17.951 6.988,17.865 6.92,17.783 6.858,17.693 
		6.805,17.605 6.76,17.516 6.723,17.422 6.692,17.332 6.667,17.236 6.651,17.146 6.645,17.049 6.645,16.646 6.651,16.74 
		6.667,16.83 6.692,16.924 6.723,17.02 6.76,17.109 6.805,17.199 6.858,17.291 6.92,17.377 6.988,17.463 7.063,17.545 7.146,17.627 
		7.234,17.709 7.331,17.787 7.433,17.861 7.544,17.93 7.661,18 7.784,18.07 7.914,18.133 8.049,18.189 8.193,18.246 8.343,18.301 
		8.495,18.35 8.653,18.391 8.809,18.432 8.969,18.465 9.131,18.492 9.293,18.514 9.456,18.535 9.622,18.547 9.784,18.559 
		9.948,18.563 10.112,18.563 10.276,18.559 10.438,18.551 10.601,18.539 10.761,18.518 10.919,18.498 11.075,18.469 11.229,18.439 
		11.381,18.402 11.529,18.365 11.675,18.32 11.816,18.275 11.954,18.223 12.089,18.164 12.219,18.107 12.344,18.041 12.463,17.977 
		12.578,17.906 12.688,17.828 12.791,17.75 12.89,17.668 12.98,17.582 13.064,17.496 13.139,17.404 13.206,17.314 13.264,17.221 
		13.311,17.125 13.354,17.035 13.387,16.941 13.411,16.842 13.428,16.752 	"/>
	<path fill-rule="evenodd" clip-rule="evenodd" fill="#34485C" d="M8.343,18.301c-1.624-0.543-2.18-1.742-1.244-2.678
		c0.938-0.939,3.016-1.26,4.638-0.719c1.626,0.543,2.182,1.742,1.244,2.678C12.042,18.521,9.966,18.842,8.343,18.301z"/>
	<g>
		<polygon fill-rule="evenodd" clip-rule="evenodd" fill="#121220" points="8.063,16.029 7.739,15.84 10.866,14.039 11.189,14.227 
					"/>
		<polygon fill-rule="evenodd" clip-rule="evenodd" fill="#222F3B" points="8.062,17.318 7.739,17.135 7.739,15.84 8.063,16.029 		
			"/>
	</g>
	<polygon fill-rule="evenodd" clip-rule="evenodd" fill="#2C3E50" points="8.063,16.029 11.189,14.227 11.188,15.516 8.063,17.318 	
		"/>
	<polygon fill-rule="evenodd" clip-rule="evenodd" fill="#34485C" points="2.765,19.125 2.322,18.871 2.219,18.785 2.143,18.666 
		2.092,18.514 2.075,18.324 2.077,10.154 2.096,9.949 2.145,9.74 2.223,9.53 2.326,9.325 2.451,9.132 2.595,8.959 2.75,8.812 
		2.921,8.697 16.386,0.929 16.555,0.851 16.712,0.818 16.854,0.826 16.979,0.871 17.423,1.125 17.3,1.081 17.151,1.072 
		16.998,1.105 16.827,1.183 3.362,8.951 3.194,9.07 3.036,9.218 2.895,9.391 2.769,9.58 2.667,9.785 2.588,9.994 2.537,10.204 
		2.521,10.409 2.519,18.584 2.535,18.768 2.584,18.92 2.662,19.039 	"/>
	<path fill-rule="evenodd" clip-rule="evenodd" fill="#9DD6F5" d="M4.296,9.091l11.586-6.684c0.207-0.119,0.378-0.021,0.378,0.218
		l-0.004,7.871c0,0.238-0.169,0.534-0.378,0.653L4.292,17.832c-0.209,0.119-0.378,0.025-0.378-0.217l0.004-7.872
		C3.918,9.501,4.087,9.21,4.296,9.091z"/>
	<polygon fill-rule="evenodd" clip-rule="evenodd" fill="#2C3E50" points="15.764,11.082 4.175,17.766 4.292,17.832 15.879,11.148 
		15.955,11.095 16.026,11.029 16.09,10.951 16.147,10.865 16.193,10.774 16.228,10.68 16.248,10.585 16.257,10.495 16.261,2.625 
		16.253,2.542 16.229,2.472 16.195,2.419 16.149,2.378 16.033,2.313 16.078,2.354 16.113,2.407 16.136,2.472 16.144,2.559 
		16.142,10.429 16.134,10.52 16.11,10.614 16.076,10.708 16.03,10.799 15.974,10.885 15.909,10.963 15.84,11.029 	"/>
	<polygon fill-rule="evenodd" clip-rule="evenodd" fill="#2C3E50" points="4.292,17.832 4.175,17.766 4.099,17.799 4.03,17.816 
		3.964,17.813 3.908,17.791 4.025,17.857 4.081,17.881 4.146,17.881 4.216,17.865 	"/>
	<path fill-rule="evenodd" clip-rule="evenodd" fill="#3D566E" d="M3.362,8.951l13.465-7.768c0.464-0.267,0.842-0.049,0.842,0.489
		v8.17c-0.004,0.534-0.382,1.191-0.846,1.458L3.358,19.068c-0.462,0.266-0.84,0.049-0.84-0.484l0.002-8.175
		C2.521,9.875,2.9,9.218,3.362,8.951L3.362,8.951z M4.296,9.091C4.087,9.21,3.918,9.501,3.918,9.744l-0.004,7.872
		c0,0.242,0.168,0.336,0.378,0.217l11.586-6.684c0.209-0.119,0.378-0.415,0.378-0.653l0.004-7.871c0-0.238-0.171-0.337-0.378-0.218
		L4.296,9.091z"/>
	<path fill-rule="evenodd" clip-rule="evenodd" fill="#E02828" d="M10.237,14.592c-0.028-0.016-0.067-0.012-0.113,0.014
		c-0.043,0.023-0.082,0.068-0.111,0.119c-0.031,0.049-0.049,0.105-0.049,0.156c0,0.053,0.019,0.086,0.047,0.105
		c0.031,0.018,0.07,0.014,0.113-0.012c0.045-0.025,0.084-0.07,0.113-0.119c0.029-0.053,0.047-0.107,0.047-0.16
		C10.285,14.646,10.266,14.609,10.237,14.592z"/>
	<polygon fill-rule="evenodd" clip-rule="evenodd" fill="#222F3B" points="2.745,10.61 3.623,10.105 3.623,17.492 2.745,17.996 	"/>
	<polygon fill-rule="evenodd" clip-rule="evenodd" fill="#222F3B" points="16.477,2.682 17.356,2.173 17.356,9.563 16.477,10.072 	
		"/>
	<path fill-rule="evenodd" clip-rule="evenodd" fill="#222F3B" d="M12.038,5.617v2.365l0.369-0.218v0.546l-0.369,0.213v0.792
		L11.432,9.67V8.874l-1.73,0.998V9.083l1.4-2.923L12.038,5.617L12.038,5.617z M11.432,8.332V6.5l-0.018,0.008l-1.216,2.533
		L11.432,8.332z"/>
	<polygon fill-rule="evenodd" clip-rule="evenodd" fill="#222F3B" points="12.491,9.054 12.491,5.363 13.139,4.989 13.139,6.624 
		14.444,4.238 15.313,3.737 14.105,5.868 15.374,7.391 14.538,7.875 13.657,6.648 13.139,7.563 13.139,8.68 	"/>
	<polygon fill-rule="evenodd" clip-rule="evenodd" fill="#2C3E50" points="2.716,9.682 2.274,9.423 2.223,9.53 2.145,9.74 
		2.096,9.949 2.077,10.154 2.075,18.324 2.092,18.514 2.143,18.666 2.219,18.785 2.322,18.871 2.765,19.125 2.662,19.039 
		2.584,18.92 2.535,18.768 2.519,18.584 2.521,10.409 2.537,10.204 2.588,9.994 2.667,9.785 	"/>
</g>
</svg>
