<?xml version="1.0" encoding="utf-8"?>
<!-- Generator: Adobe Illustrator 16.0.0, SVG Export Plug-In . SVG Version: 6.00 Build 0)  -->
<!DOCTYPE svg PUBLIC "-//W3C//DTD SVG 1.1//EN" "http://www.w3.org/Graphics/SVG/1.1/DTD/svg11.dtd">
<svg version="1.1" id="Layer_1" xmlns="http://www.w3.org/2000/svg" xmlns:xlink="http://www.w3.org/1999/xlink" x="0px" y="0px"
	 width="656.967px" height="883.456px" viewBox="0 0 656.967 883.456" enable-background="new 0 0 656.967 883.456"
	 xml:space="preserve">
<g>
	<path opacity="0.16" fill="#FFFFFF" d="M484.854,362.637c-136.012-68.017-328.278-86.599-466.859-50.908
		c0.043,1.877,3.397,7.194,5.033,7.971c44.85-11.313,95.189-17.022,147.503-17.022c106.597,0,220.806,23.128,310.349,67.909
		c85.361,42.689,134.316,98.157,134.316,152.189c0,27.496-13.191,53.436-37.834,75.876c-0.008,0.297-0.013,0.594-0.021,0.891
		c2.643,1.195,5.26,2.466,7.846,3.828c25.275-23.74,38.896-51.244,38.896-80.595C624.083,465.255,573.331,406.888,484.854,362.637z"
		/>
	<path fill="#FFFFFF" d="M484.854,96.036C348.843,28.019,156.576,9.437,17.995,45.127c0.043,1.876,3.397,7.194,5.033,7.97
		c44.85-11.313,95.189-17.021,147.503-17.021c106.597,0,220.806,23.128,310.349,67.909
		c85.361,42.689,134.316,98.157,134.316,152.189c0,27.497-13.191,53.436-37.834,75.876c-0.008,0.297-0.013,0.594-0.021,0.892
		c2.643,1.195,5.26,2.465,7.846,3.827c25.275-23.74,38.896-51.244,38.896-80.595C624.083,198.653,573.331,140.287,484.854,96.036z"
		/>
	<path opacity="0.17" fill="#FFFFFF" d="M310.252,45.374c-177.54-35.44-292.257-0.246-292.257-0.246v267.448l5.033,7.971
		c60.979-19.292,259.381-38.742,440.562,41.799c0,0,137.122,56.887,149.47,143.705l9.482,1.922l1.349-257.85
		C623.891,250.122,612.206,106.363,310.252,45.374z"/>
	<path opacity="0.17" fill="#FFFFFF" d="M43.023,64.224V293.95c28.777-9.104,89.423-13.046,164.223-11.594l-0.815-233.221
		C104.234,45.444,43.023,64.224,43.023,64.224z"/>
	<path opacity="0.31" fill="#FFFFFF" d="M56.412,83.078v80.726c25.397-9.057,93.41-13.408,137.471-12.77L193.2,68.986
		C107.651,67.688,67.862,80.16,56.412,83.078z"/>
	<path opacity="0.17" fill="#FFFFFF" d="M56.412,173.536v106.126c25.397-9.057,55.747-10.465,86.097-10.957l-0.682-107.447
		C109.968,161.402,64.989,167.094,56.412,173.536z"/>
	<polygon opacity="0.17" fill="#FFFFFF" points="151.124,160.132 150.834,268.327 194.272,268.903 193.88,159.387 	"/>
	<path opacity="0.17" fill="#FFFFFF" d="M225.413,52.532v229.726c30.076,4.098,79.537,6.938,125.844,22.025l-0.769-231.884
		C303.035,56.81,225.413,52.532,225.413,52.532z"/>
	<path opacity="0.56" fill="#FFFFFF" d="M577.341,332.941v266.601l7.846,3.828c0,0,38.896-29.195,38.896-73.463s0-278.654,0-278.654
		S621.341,309.1,577.341,332.941z"/>
	<polygon opacity="0.17" fill="#FFFFFF" points="17.995,311.729 23.028,319.699 23.782,47.522 17.995,45.127 	"/>
	<polygon opacity="0.5" fill="#FFFFFF" points="577.341,599.542 585.187,603.37 585.187,336.769 577.341,332.941 	"/>
	<g>
		<path opacity="0.16" fill="#FFFFFF" d="M320.806,271.313c-1.252,1.794-2.723,3.56-4.563,5.259c-0.79,0.731-1.585,1.463-2.38,2.195
			c50.644,11.352,99.206,27.771,142.081,49.214c0.205,0.102,0.393,0.209,0.598,0.312c0.188-0.273,0.352-0.565,0.549-0.83
			c1.014-2.438,2.128-4.823,3.293-7.188c-0.16-0.08-0.307-0.164-0.462-0.244C417.851,298.996,370.381,282.75,320.806,271.313z"/>
		<path fill="#FFFFFF" d="M320.806,84.247c-1.252,1.794-2.723,3.56-4.563,5.259c-0.79,0.731-1.585,1.463-2.38,2.195
			c50.644,11.352,99.206,27.771,142.081,49.214c0.205,0.103,0.393,0.209,0.598,0.312c0.188-0.273,0.352-0.565,0.549-0.83
			c1.014-2.438,2.128-4.823,3.293-7.188c-0.16-0.08-0.307-0.165-0.462-0.244C417.851,111.93,370.381,95.683,320.806,84.247z"/>
		<path opacity="0.17" fill="#FFFFFF" d="M313.863,91.701v187.066c0,0,100.29,21.036,142.679,49.525l3.842-8.018V133.209
			c0,0-117.23-40.523-128.911-41.508C319.793,90.716,313.863,91.701,313.863,91.701z"/>
		<polygon opacity="0.2" fill="#FFFFFF" points="313.863,278.768 320.806,271.313 320.806,84.247 313.863,91.701 		"/>
		<polygon opacity="0.42" fill="#FFFFFF" points="457.091,327.463 460.384,320.275 460.384,133.209 456.542,141.227 		"/>
		<path opacity="0.27" fill="#FFFFFF" d="M325.639,227.898l88.856,25.332V133.209c0,0-53.392-21.059-88.856-27.294V227.898z"/>
		<polygon opacity="0.27" fill="#FFFFFF" points="422.679,255.568 447.015,264.921 447.015,147.226 422.679,136.313 		"/>
		<path opacity="0.27" fill="#FFFFFF" d="M325.639,264.921c0,0,91.194,19.876,121.376,39.362v-28.06
			c0,0-47.329-20.655-121.376-36.634V264.921z"/>
		<path opacity="0.27" fill-rule="evenodd" clip-rule="evenodd" fill="#FFFFFF" d="M331.474,171.302
			c30.395,6.694,64.35,12.945,78.056,21.717l0.001-36.439c-13.149-7.794-78.058-23.37-78.058-23.37L331.474,171.302z"/>
		<path opacity="0.56" fill-rule="evenodd" clip-rule="evenodd" fill="#FFFFFF" d="M624.083,293.95c0,0,0,1.112,0,3.146
			C624.201,295.067,624.083,293.95,624.083,293.95z"/>
		<path opacity="0.56" fill-rule="evenodd" clip-rule="evenodd" fill="#FFFFFF" d="M598.833,506.897c0,0,25.25-19.056,25.25-72.447
			c0-47.383,0-121.311,0-137.354c-0.413,7.094-3.734,25.392-25.25,46.58V506.897z"/>
		<path opacity="0.12" fill-rule="evenodd" clip-rule="evenodd" fill="#FFFFFF" d="M498.101,360.809
			c0,0,29.414,13.527,48.716,29.588l0.964-222.905c0,0-29.619-23.356-48.716-34.282L498.101,360.809z"/>
		<path opacity="0.12" fill-rule="evenodd" clip-rule="evenodd" fill="#FFFFFF" d="M556.906,175.626v210.467
			c0,0,37.803,17.506,48.715,60.571V240.891C605.621,240.891,588.759,193.019,556.906,175.626z"/>
		<path opacity="0.17" fill="#FFFFFF" d="M239.121,239.589c48.325,0.39,97.93,11.358,97.93,11.358V84.247
			c-38.083-11.146-97.93-15.355-97.93-15.355V239.589z"/>
		<path opacity="0.17" fill="#FFFFFF" d="M239.121,245.6c-2.204,0.149-0.002,27.411-0.002,27.411
			c32.823,1.691,64.322,4.356,86.519,13.891l1.949-31.333C327.587,255.568,271.116,243.428,239.121,245.6z"/>
		<path opacity="0.27" fill-rule="evenodd" clip-rule="evenodd" fill="#FFFFFF" d="M504.25,227.021
			c8.704,3.257,22.378,10.299,36.417,21.045V173.24c0,0-28.084-21.006-36.418-25.137L504.25,227.021z"/>
		<path opacity="0.27" fill-rule="evenodd" clip-rule="evenodd" fill="#FFFFFF" d="M564.294,193.019v78.918
			c8.705,3.257,29.57,24.743,34.539,42.475v-67.222C598.833,247.189,583.938,200.618,564.294,193.019z"/>
		<path opacity="0.27" fill-rule="evenodd" clip-rule="evenodd" fill="#FFFFFF" d="M563.994,281.762v78.918
			c8.705,3.257,29.57,24.275,34.539,42.008l0.3-74.395C598.833,328.293,583.757,292.702,563.994,281.762z"/>
		<path opacity="0.27" fill-rule="evenodd" clip-rule="evenodd" fill="#FFFFFF" d="M504.25,352.91
			c8.704,3.257,22.378,10.299,36.417,21.045V257.057c0,0-27.12-18.305-35.453-22.437L504.25,352.91z"/>
		<path opacity="0.44" fill="#FFFFFF" d="M62.771,132.221c0,0,34.49-7.892,46.475-6.43V79.609c0,0-23.237,1.461-46.475,8.769
			V132.221z"/>
		<path opacity="0.44" fill="#FFFFFF" d="M157.037,168.458v29.276c0,0,23.03-1.502,31.032-0.526v-29.88
			C188.069,167.328,172.075,165.996,157.037,168.458z"/>
		<path opacity="0.24" fill="#FFFFFF" d="M247.342,101.141v122.178c0,0,23.03,2.239,31.032,3.215V104.356
			C278.374,104.356,262.858,100.521,247.342,101.141z"/>
	</g>
</g>
<g>
	<polygon opacity="0.51" fill="#80C9DA" points="345.668,500.747 151.464,512.55 151.626,518.464 330.015,531.134 249.973,561.046 
		249.973,567.993 419.02,534.425 361.206,505.513 	"/>
	<path fill="#E4F4F8" d="M147.903,311.607c-9.082,1.911,0.416,51.366,1.101,61.903c0.444,6.83,4.463,15.875,6.162,6.747
		c2.568-13.794,6.216-48.642,2.011-59.478C155.392,316.182,151.521,311.049,147.903,311.607z"/>
	<path fill="#FFFFFF" d="M312.261,244.218c-3.451,9.405-21.324,54.42-14.806,67.997c2.63,5.169,6.389,3.955,8.488,0.77
		c4.949-7.509,11.391-50.451,11.391-69.436C317.334,239.258,312.261,244.218,312.261,244.218z"/>
	<path fill="#E4F4F8" d="M181.991,240.568c-12.223,3.979-30.549,48.137-34.977,63.704c0,0,2,12.165,11.052,0.847
		c14.98-18.733,33.901-41.964,36.325-57.92C195.419,240.429,186.72,239.291,181.991,240.568z"/>
	<path fill="#FFFFFF" d="M256.147,262.013c-6.113-3.015-18.195-1.011-16.852,11.085c1.853,12.551,44.532,37.116,58.281,45.963
		c0,0,13.791,1.803,4.669-10.041C287.147,289.418,270.558,269.12,256.147,262.013z"/>
	<path fill="#E4F4F8" d="M188.671,342.015c0,0-12.622,60.617-9.079,85.65c3.146,22.236,15.024,8.081,15.024,8.081
		s5.544-5.487,15.51-41.426l2.771-12.943C206.949,370.964,202.151,338.628,188.671,342.015z"/>
	<path fill="#FFFFFF" d="M225.459,308.863c8.329-21.363-29.528-26.518-29.528-26.518c-4.836-5.552,8.1,15.462,6.643,38.235
		c-0.313,4.897-7.731,14.571-7.731,14.571l40.229,15.825c0,0-1.164-6.263-2.479-8.507
		C228.298,335.139,220.019,322.815,225.459,308.863z"/>
	<path fill="#FFFFFF" d="M215.114,223.373c-3.092-1.642-5.599,7.047-5.599,19.408c0,12.36,2.507,23.711,5.599,25.352
		c3.093,1.642,5.6-7.047,5.6-19.407C220.714,236.365,218.207,225.014,215.114,223.373z"/>
	<path fill="#FFFFFF" d="M220.167,229.566c-1.885-0.369-1.109,7.864,1.732,18.391c2.842,10.526,6.674,19.359,8.56,19.728
		c1.886,0.37,1.11-7.864-1.731-18.39C225.886,238.768,222.054,229.936,220.167,229.566z"/>
	<path fill="#FFFFFF" d="M206.22,223.974c-1.97-1.277-4.413,4.874-5.457,13.739c-1.045,8.866-0.295,17.088,1.675,18.366
		c1.97,1.278,4.413-4.873,5.458-13.739C208.939,233.475,208.189,225.251,206.22,223.974z"/>
	<path fill="#FFFFFF" d="M226.747,324.541c-1.397,9.632-1.103,18.501,0.659,19.809s2.261-6.69,3.659-16.322
		c1.397-9.633,3.164-17.253,1.402-18.561C230.706,308.159,228.146,314.908,226.747,324.541z"/>
	<path fill="#203063" d="M231.716,340.988c-0.799,5.333-11.002,1.79-20.709-0.048c-19.893-3.765-9.331-14.965-16.531-7.412
		c-1.563,1.639-8.805,13.255,23.671,25.36c12.676,4.725,21.635,3.813,21.635-5.652C239.781,350.154,232.089,338.499,231.716,340.988
		z"/>
	<path fill="#FFFFFF" d="M239.781,353.237c-3.663,2.605-20.644,6.011-34.351-0.488c-16.703-7.92-12.091-17.368-12.091-17.368
		s-4.52,4.197-4.694,7.297c-0.354,6.265-0.869,16.439,0.004,21.317l19.279,13.875c15.831,9.067,36.362-4.399,36.362-12.673
		C244.291,363.128,241.854,351.763,239.781,353.237z"/>
	<linearGradient id="SVGID_1_" gradientUnits="userSpaceOnUse" x1="214.7803" y1="370.8521" x2="244.291" y2="370.8521">
		<stop  offset="0" style="stop-color:#6FCCD7"/>
		<stop  offset="0.2028" style="stop-color:#89D3DD"/>
		<stop  offset="0.6239" style="stop-color:#C6E8EC"/>
		<stop  offset="0.9819" style="stop-color:#FFFFFF"/>
	</linearGradient>
	<path opacity="0.43" fill="url(#SVGID_1_)" d="M214.78,380.165c14.543,4.354,29.511-7.513,29.511-14.968
		c0-0.444-0.113-1.319-0.31-2.402C229.606,353.723,222.406,375.482,214.78,380.165z"/>
	<path fill="#FFFFFF" d="M218.115,383.755c0,0-2.011-1.792,1.815,14.611c10.203,43.741,16.971,54.271,16.971,54.271
		s14.319,24.848,20.067,6.703c6.472-20.426-5.317-90.194-5.317-90.194C234.447,353.013,226.601,379.544,218.115,383.755z"/>
	<path fill="#213265" d="M242.915,373.169c-4.354,1.063-6.234,4.198-4.405,11.785c1.829,7.588,4.958,16.988,11.028,15.691
		c3.538-0.755,3.036-10.894,1.207-18.481S246.43,372.311,242.915,373.169z"/>
	<path fill="#FFFFFF" d="M244.371,471.911c-4.673,2.586-6.813,10.58-5.471,20.375l9.326,68.094c2.33,15.393,5.78,3.084,5.78,3.084
		s8.309-61.002,5.79-85.982C258.46,464.222,248.798,469.462,244.371,471.911z"/>
	<path fill="#E4F4F8" d="M177.618,442.989c-8.844,2.566-14.987,14.082-16.748,21.067l-11.102,50.599
		c-2.446,10.852,7.215-0.834,7.215-0.834s24.625-42.698,30.425-61.023C190.487,443.071,183.479,441.288,177.618,442.989z"/>
	<path fill="#FFFFFF" d="M220.714,245.752c-27.015-14.341-41.75,2.333-41.75,2.333s-2.426,18.599,7.159,33.672
		c3.194,5.025,10.727,10.598,16.45,13.528c7.578,3.879,13.614,16.766,21.676,16.447c20.902-0.829,27.295-7.453,28.11-13.442
		C256.731,266.183,247.728,260.094,220.714,245.752z"/>
	<path fill="#FFFFFF" d="M218.45,280.188c-11.949-6.343-27.563-15.456-27.563-5.991c0,5.028-0.582,11.128,1.807,20.48
		c3.104,12.157,5.891,14.568,15.288,20.881c11.229,7.544,31.799,12.799,37.232-6.852
		C247.737,299.583,230.398,286.531,218.45,280.188z"/>
	<path fill="#FFFFFF" d="M230.127,184.155c-16.385-5.896-29.651,2.731-34.243,8.248c-2.408,2.893-2.541,6.962-2.775,12.206
		c-0.682,15.243,3.855,27.426,17.19,35.125c13.335,7.698,21.826-3.422,28.505-16.946c2.641-5.346,4.297-11.742,4.256-18.402
		C243.001,195.111,238.954,187.332,230.127,184.155z"/>
	<path fill="#FFFFFF" d="M209.791,217.924l-6.854,2.105l7.495,17.095l21.058,8.475h7.632l6.659-23.679
		c0-20.747-4.711-27.624-4.711-27.624L209.791,217.924z"/>
	<path fill="#213265" d="M244.267,203.947l0.285,1.556c-1.709,4.558-8.073,5.476-8.073,5.476l-1.735,14.266
		c0,0,5.253-0.528,6.706-1.438c2.359-1.477,4.503-3.069,4.503-3.069l0.467-3.224l-0.639-12.781L244.267,203.947z"/>
	<path fill="#213265" d="M228.452,208.487c-4.289,3.204-6.914,11.128-5.863,17.7c1.052,6.572,5.381,9.302,9.671,6.098
		c4.289-3.204,6.914-11.128,5.863-17.7C237.071,208.014,232.741,205.284,228.452,208.487z"/>
	<path fill="#FFFFFF" d="M232.318,211.932c-3.048,2.276-4.913,7.907-4.166,12.576s3.823,6.609,6.871,4.333s4.913-7.907,4.166-12.576
		S235.366,209.656,232.318,211.932z"/>
	<path fill="#213265" d="M252.981,263.239c-2.345,2.156-1.781,5.268,1.643,8.976c3.449,3.736,9.546,5.873,10.971,4.967
		c2.818-1.79,1.497-4.636-1.551-8.707C260.996,264.404,254.545,261.801,252.981,263.239z"/>
	<path fill="#203063" d="M210.794,328.293c1.271-10.053,2.724-16.728,2.097-26.099c-1.323-19.781,3.054-26.981,2.59-36.011
		c-0.329-6.396-4.536-16.143-4.536-16.143l-3.143-1.415c0,0-6.759,8.487-8.802,13.296c-2.044,4.809,4.209,29.557,5.323,34.097
		c4.59,18.702,1.043,27.069,0.253,31.649l-2.573,2.74c-0.771,1.175-1.717,5.703-1.717,5.703l-1.386,4.119l16.675,4.303
		c0,0,0.731,1.314-0.006-4.938C215.311,337.4,210.351,331.793,210.794,328.293z"/>
</g>
<g>
	<path opacity="0.51" fill="#80C9DA" d="M474.472,686.359h-2.451l-83.373,28.604l0.162,5.914l14.201,1.281l-96.503,28.743v6.947
		l176.16-35.745C482.668,722.104,605.657,676.301,474.472,686.359z"/>
	<path fill="#E4F4F8" d="M458.019,431.746c-5.471,9.905-36.725,53.283-29.548,59.634c2.952,2.334,8.757-0.74,12.462-4.326
		c8.732-8.453,21.58-44.136,25.669-58.817C469.306,418.521,461.565,425.325,458.019,431.746z"/>
	<path fill="#FFFFFF" d="M298.771,537.393c-8.044,12.732,3.909,65.47,6.25,75.21c0,0,4.851,2.667,4.962,1.251
		c1.488-18.927,1.357-68.214-2.691-76.244C305.574,534.202,301.981,532.562,298.771,537.393z"/>
	<path fill="#E4F4F8" d="M392.233,430.594c-4.729-1.277-13.428-0.139-12.399,6.63c2.423,15.957,20.405,35.642,35.386,54.375
		c9.051,11.318,11.052-0.847,11.052-0.847C421.844,475.187,404.456,434.574,392.233,430.594z"/>
	<path fill="#FFFFFF" d="M314.624,456.152c-8.28,13.769-11.571,43.372-13.675,68.026c-1.271,14.895,7.457,7.089,7.457,7.089
		c6.783-14.876,31.615-63.341,26.388-74.901C329.384,445.464,318.138,450.312,314.624,456.152z"/>
	<path fill="#C5DDF3" d="M369.97,489.184c-1.98,1.157-3.199,9.565-2.723,18.782c0.478,9.215,2.469,15.748,4.449,14.591
		c1.979-1.157,0.935-7.992,0.458-17.208C371.677,496.134,371.949,488.026,369.97,489.184z"/>
	<path fill="#E4F4F8" d="M362.095,571.136l2.77,12.942c9.966,35.94,15.51,41.427,15.51,41.427s11.878,14.156,15.025-8.08
		c3.543-25.034-9.08-85.651-9.08-85.651C372.839,528.387,368.042,560.723,362.095,571.136z"/>
	<path fill="#FFFFFF" d="M347.116,499.329c7.105,18.223-9.611,42.113-9.611,42.113l29.64-6.139l8.668-15.088
		c-17.166-0.799,0.833-47.404,0.833-47.404S338.787,477.966,347.116,499.329z"/>
	<path fill="#FFFFFF" d="M357.46,413.838c-3.092,1.642-5.599,12.992-5.599,25.352c0,12.36,2.507,21.049,5.599,19.408
		c3.093-1.643,5.6-12.992,5.6-25.353S360.553,412.197,357.46,413.838z"/>
	<path fill="#FFFFFF" d="M352.407,420.032c-1.885,0.37-5.718,9.202-8.56,19.728c-2.842,10.526-3.616,18.761-1.731,18.391
		c1.886-0.37,5.718-9.202,8.561-19.728C353.519,427.896,354.293,419.662,352.407,420.032z"/>
	<path fill="#FFFFFF" d="M366.355,414.439c-1.97,1.278-2.72,9.501-1.676,18.367c1.045,8.866,3.488,15.017,5.458,13.739
		s2.72-9.5,1.676-18.366C370.769,419.313,368.325,413.162,366.355,414.439z"/>
	<path fill="#FFFFFF" d="M342.843,502.616c-1.979,0.945-1.708,8.764-2.185,18.484c-0.477,9.723-1.521,17.667,0.458,16.722
		c1.98-0.944,3.972-9.593,4.448-19.313C346.042,508.786,344.823,501.671,342.843,502.616z"/>
	<path fill="#203063" d="M361.569,531.406c-8.402,3.552-21.587,7.388-21.587,1.528c0-2.517-7.188,7.686-7.188,10.768
		c0,9.465,8.959,10.377,21.635,5.652c32.476-12.105,23.912-24.707,22.773-26.665C372.446,514.507,379.912,523.651,361.569,531.406z"
		/>
	<path fill="#FFFFFF" d="M367.145,543.214c-11.622,7.223-30.688,3.094-34.351,0.488c-2.073-1.474-4.51,9.892-4.51,11.96
		c0,8.274,20.531,21.741,36.362,12.674l14.558-21.456c1.307-7.292-0.144-14.014-0.144-18.135
		C379.061,528.745,379.061,535.81,367.145,543.214z"/>
	<linearGradient id="SVGID_2_" gradientUnits="userSpaceOnUse" x1="328.2842" y1="561.3174" x2="357.7949" y2="561.3174">
		<stop  offset="0" style="stop-color:#6FCCD7"/>
		<stop  offset="0.2028" style="stop-color:#89D3DD"/>
		<stop  offset="0.6239" style="stop-color:#C6E8EC"/>
		<stop  offset="0.9819" style="stop-color:#FFFFFF"/>
	</linearGradient>
	<path opacity="0.43" fill="url(#SVGID_2_)" d="M328.594,553.26c-0.196,1.083-0.31,1.958-0.31,2.402
		c0,7.455,14.968,19.321,29.511,14.968C350.169,565.947,342.97,544.188,328.594,553.26z"/>
	<path fill="#FFFFFF" d="M354.46,574.222c-8.486-4.212-16.332-30.742-33.535-14.609c0,0-11.789,69.769-5.318,90.194
		c5.748,18.145,20.067-6.703,20.067-6.703s6.768-10.53,16.971-54.272C356.471,572.429,354.46,574.222,354.46,574.222z"/>
	<path fill="#213265" d="M329.66,563.635c-3.515-0.858-6.001,1.408-7.83,8.995c-1.829,7.588-2.331,17.727,1.208,18.481
		c6.068,1.296,9.198-8.104,11.027-15.691C335.894,567.833,334.015,564.697,329.66,563.635z"/>
	<path fill="#FFFFFF" d="M327.962,664.527c-3.965-3.142-12.638-9.896-16.131,2.966c-6.581,24.229-8.392,85.768-8.392,85.768
		s1.386,12.708,6.208-2.096l20.369-65.641C332.946,676.082,332.147,667.846,327.962,664.527z"/>
	<path fill="#E4F4F8" d="M380.197,644.268c-4.677,7.765-6.589,17.284-4.893,24.285l11.789,48.668
		c2.892,10.741,5.995-4.101,5.995-4.101s1.892-52.729-1.513-71.646C389.77,631.433,384.626,636.913,380.197,644.268z"/>
	<path fill="#FFFFFF" d="M357.17,435.818c-27.015,14.341-44.595,19.267-43.237,52.115c0,0,13.492,13.437,34.395,14.265
		c8.061,0.319,14.098-12.567,21.674-16.446c5.725-2.931,11.71-8.753,14.904-13.777c9.586-15.073,10.012-22.248,10.012-22.248
		C394.917,433.884,384.185,421.477,357.17,435.818z"/>
	<path fill="#FFFFFF" d="M356.78,471.995c-11.949,6.344-26.766,19.055-26.766,28.52c0,9.464,24.597,11.682,37.232,6.852
		c16.73-6.396,21.4-32.218,21.4-41.683C388.647,456.22,368.729,465.651,356.78,471.995z"/>
	<path fill="#213265" d="M370.001,465.587c-7.718,4.097-13.975,15.158-13.975,24.706c0,9.547,6.257,13.965,13.975,9.867
		c7.719-4.098,13.977-15.159,13.977-24.706S377.72,461.489,370.001,465.587z"/>
	<path fill="#FFFFFF" d="M379.912,380.733c-4.592-5.517-17.859-14.144-34.244-8.248c-8.827,3.177-12.874,10.956-12.933,20.229
		c-0.041,6.66,1.616,13.057,4.256,18.402c6.679,13.524,16.028,11.02,29.364,3.322c13.335-7.698,17.566,2.054,16.886-13.189
		C383.007,396.006,382.319,383.626,379.912,380.733z"/>
	<path fill="#FFFFFF" d="M344.408,409.751l-6.854,2.105l7.495,17.095l19.411,8.99l12.914-2.844l4.755-21.023
		c1.461-4.399,0.604-17.745,0.604-17.745L344.408,409.751z"/>
	<path fill="#213265" d="M363.797,430.492c4.111-0.077,8.286-1.553,12.519-4.306l0.808-4.54c-5.225,3.208-9.929,4.582-14.243,4.583
		L363.797,430.492z"/>
	<path fill="#213265" d="M341.502,394.505c-4.289-3.204-8.619-0.473-9.671,6.099c-1.051,6.572,1.574,14.496,5.864,17.7
		c4.289,3.204,8.618,0.474,9.67-6.098S345.792,397.709,341.502,394.505z"/>
	<path fill="#FFFFFF" d="M337.636,397.95c-3.047-2.276-6.123-0.336-6.871,4.333c-0.746,4.669,1.119,10.3,4.166,12.576
		c3.048,2.276,6.124,0.336,6.871-4.333S340.684,400.227,337.636,397.95z"/>
	<path fill="#213265" d="M315.641,461.382c-2.645,4.354-2.964,9.862-0.714,12.305c2.251,2.443,6.22,0.896,8.864-3.457
		c2.645-4.354,2.964-9.862,0.713-12.306S318.285,457.028,315.641,461.382z"/>
	<path fill="#213265" d="M379.912,401.487c0,0-10.227,4.812-17.714,5.113s-19.388-3.004-19.388-3.004l0.285,10.675
		c0,0,3.356,0.942,13.979,1.921c10.623,0.979,20.449-2.978,22.837-4.786c3.153-2.388,3.398-3.877,3.398-3.877
		c0.126-0.003,0.154-10.815-0.328-11.2C382.903,399.613,379.912,401.487,379.912,401.487z"/>
</g>
<g>
	<g>
		<polygon opacity="0.22" fill="#FFFFFF" points="191.184,865.78 526.55,696.795 526.897,455.757 191.184,627.847 		"/>
		<polygon opacity="0.38" fill="#FFFFFF" points="183.718,861.517 519.085,695.056 519.431,454.018 183.718,626.107 		"/>
		<polygon opacity="0.22" fill="#FFFFFF" points="416.087,583.628 416.556,614.386 503.258,570.522 502.789,539.765 		"/>
		<polygon opacity="0.22" fill="#FFFFFF" points="416.087,621.863 416.556,652.62 503.258,608.758 502.789,578 		"/>
		<polygon opacity="0.22" fill="#FFFFFF" points="416.087,660.814 416.556,691.572 503.258,647.709 502.789,616.951 		"/>
		<polygon opacity="0.31" fill="#FFFFFF" points="212.718,711.908 311.436,661.966 312.359,594.343 213.642,644.284 		"/>
		<polygon opacity="0.31" fill="#FFFFFF" points="337.655,757.504 396.14,727.219 396.247,552.478 337.655,582.744 		"/>
		<polygon opacity="0.31" fill="#FFFFFF" points="213.18,822.079 239.469,808.465 239.517,730.498 213.18,743.521 		"/>
		<polygon opacity="0.31" fill="#FFFFFF" points="249.37,804.789 275.659,791.175 275.707,713.209 249.37,726.232 		"/>
		<polygon opacity="0.31" fill="#FFFFFF" points="286.022,786.169 312.312,772.556 312.359,694.589 286.022,707.612 		"/>
		<polygon opacity="0.31" fill="#FFFFFF" points="213.18,737.787 311.897,687.846 312.359,672.562 213.642,722.504 		"/>
		<polygon opacity="0.22" fill="#FFFFFF" points="416.087,544.979 416.556,575.737 503.258,531.874 502.789,501.116 		"/>
		<polygon opacity="0.22" fill="#FFFFFF" points="416.087,700.048 416.321,719.602 503.023,675.738 502.789,656.185 		"/>
		<polygon opacity="0.64" fill="#FFFFFF" points="219.423,646.67 219.766,669.141 239.929,659.142 239.586,636.671 		"/>
		<g opacity="0.54">
			<polygon opacity="0.64" fill="#FFFFFF" points="444.284,534.922 444.45,545.78 499.964,517.011 499.798,506.152 			"/>
			<polygon opacity="0.64" fill="#FFFFFF" points="445.662,574.048 445.827,584.907 501.341,556.138 501.175,545.278 			"/>
			<polygon opacity="0.64" fill="#FFFFFF" points="445.873,650.191 446.038,661.05 501.552,632.28 501.387,621.421 			"/>
			<polygon opacity="0.64" fill="#FFFFFF" points="421.106,546.242 421.449,568.714 441.612,558.714 441.271,536.243 			"/>
			<polygon opacity="0.45" fill="#FFFFFF" points="345.673,607.628 345.771,662.706 357.223,657.027 357.126,601.948 			"/>
			<polygon fill="#FFFFFF" points="343.438,716.771 343.524,743.355 390.464,719.151 390.378,692.566 			"/>
			<polygon opacity="0.45" fill="#FFFFFF" points="360.858,600.347 360.955,655.426 372.407,649.746 372.31,594.668 			"/>
			<polygon opacity="0.45" fill="#FFFFFF" points="343.191,588.704 343.276,600.923 390.26,578.469 390.174,566.249 			"/>
			<polygon opacity="0.64" fill="#FFFFFF" points="249.389,632.493 249.474,644.713 304.154,619.097 304.069,606.878 			"/>
			<polygon opacity="0.64" fill="#FFFFFF" points="421.106,585.991 421.449,608.462 441.612,598.462 441.271,575.991 			"/>
			<polygon opacity="0.64" fill="#FFFFFF" points="421.106,623.446 421.449,645.917 441.612,635.917 441.271,613.446 			"/>
			<polygon opacity="0.64" fill="#FFFFFF" points="421.106,663.359 421.449,685.831 441.612,675.831 441.271,653.36 			"/>
		</g>
		<polygon fill="#FFFFFF" points="183.718,626.107 191.184,627.847 526.897,455.757 521.81,452.798 		"/>
		<polygon opacity="0.39" fill="#FFFFFF" points="183.718,861.517 191.184,865.78 191.184,627.847 183.718,626.107 		"/>
	</g>
	<g>
		<polygon opacity="0.29" fill="#E4F4F8" points="406.622,657.817 564.696,577.409 564.76,350.715 406.21,431.431 		"/>
		<polygon opacity="0.29" fill="#E4F4F8" points="414.266,489.431 554.152,421.965 554.914,373.062 414.03,441.009 		"/>
		<polygon opacity="0.29" fill="#E4F4F8" points="414.915,545.794 554.914,478.273 554.914,429.738 414.03,497.685 		"/>
		<polygon fill="#FFFFFF" points="399.611,429.36 406.21,431.431 564.76,350.715 560.276,348.296 		"/>
		<polygon opacity="0.46" fill="#FFFFFF" points="399.611,429.36 399.561,655.209 406.622,657.817 406.21,431.431 		"/>
	</g>
	<g>
		<polygon opacity="0.29" fill="#E4F4F8" points="64.01,780.788 222.084,700.38 222.147,566.755 63.597,647.47 		"/>
		<polygon opacity="0.29" fill="#E4F4F8" points="76.386,703.587 210.805,636.671 211.566,587.768 76.149,655.165 		"/>
		<polygon fill="#FFFFFF" points="56.999,645.399 63.597,647.47 222.147,566.755 217.664,564.335 		"/>
		<polygon opacity="0.46" fill="#FFFFFF" points="56.999,645.399 56.948,778.167 64.01,780.776 63.597,647.47 		"/>
	</g>
</g>
</svg>
