<?xml version="1.0" encoding="utf-8"?>
<!-- Generator: Adobe Illustrator 16.0.0, SVG Export Plug-In . SVG Version: 6.00 Build 0)  -->
<!DOCTYPE svg PUBLIC "-//W3C//DTD SVG 1.1//EN" "http://www.w3.org/Graphics/SVG/1.1/DTD/svg11.dtd">
<svg version="1.1" id="Layer_1" xmlns="http://www.w3.org/2000/svg" xmlns:xlink="http://www.w3.org/1999/xlink" x="0px" y="0px"
	 width="60px" height="60px" viewBox="0 0 60 60" enable-background="new 0 0 60 60" xml:space="preserve">
<g>
	<g>
		<g>
			<path opacity="0.35" fill="#FFFFFF" d="M92.613,3.791L78.152,3.768c-0.369,0-0.668-0.231-0.668-0.515l0.014-8.644l0.001-0.973
				c0.001-0.284,0.3-0.513,0.669-0.513l14.461,0.022c0.369,0,0.668,0.231,0.668,0.515l-0.015,9.617
				C93.281,3.562,92.982,3.791,92.613,3.791z"/>
			<path fill="#FFFFFF" d="M78.639-5.491L78.639-5.491c-0.176,0-0.316-0.143-0.316-0.318c0-0.175,0.143-0.317,0.316-0.317l0,0
				c0.085,0,0.164,0.033,0.225,0.093c0.06,0.06,0.092,0.14,0.092,0.225c0,0.085-0.033,0.165-0.093,0.225
				C78.803-5.524,78.723-5.491,78.639-5.491z M78.639-5.988c-0.1,0-0.18,0.081-0.18,0.18s0.08,0.18,0.18,0.18l0,0
				c0.048,0,0.093-0.019,0.127-0.053c0.033-0.034,0.053-0.079,0.053-0.127l0,0c0-0.048-0.019-0.093-0.053-0.127
				C78.732-5.97,78.688-5.988,78.639-5.988L78.639-5.988z"/>
			<path fill="#FFFFFF" d="M79.57-5.49L79.57-5.49c-0.085,0-0.164-0.033-0.225-0.093c-0.06-0.06-0.092-0.14-0.092-0.225
				c0-0.175,0.143-0.317,0.316-0.317l0,0c0.085,0,0.164,0.033,0.225,0.093c0.06,0.06,0.092,0.14,0.092,0.225
				c0,0.085-0.033,0.165-0.093,0.225C79.734-5.522,79.654-5.49,79.57-5.49z M79.57-5.987c-0.1,0-0.18,0.081-0.18,0.18
				c0,0.048,0.019,0.093,0.053,0.127c0.033,0.034,0.078,0.053,0.127,0.053l0,0c0.048,0,0.094-0.019,0.127-0.053
				c0.034-0.034,0.053-0.079,0.053-0.127l0,0c0-0.048-0.019-0.093-0.053-0.127C79.664-5.968,79.619-5.987,79.57-5.987L79.57-5.987z"
				/>
			<path fill="#FFFFFF" d="M80.484-5.488L80.484-5.488c-0.175,0-0.316-0.143-0.316-0.318c0-0.175,0.143-0.317,0.316-0.317l0,0
				c0.176,0,0.317,0.143,0.316,0.318l0,0C80.801-5.63,80.659-5.488,80.484-5.488z M80.484-5.986c-0.099,0-0.18,0.081-0.18,0.18
				c0,0.099,0.08,0.18,0.18,0.18l0,0c0.1,0,0.18-0.081,0.18-0.18C80.664-5.905,80.584-5.985,80.484-5.986L80.484-5.986z"/>
			<path opacity="0.69" fill="#FFFFFF" d="M91.158-2.171L91.158-2.171l-6.334-0.01c-0.039,0-0.068-0.031-0.068-0.069
				s0.03-0.068,0.068-0.068l0,0l6.334,0.01c0.037,0,0.068,0.031,0.068,0.069C91.227-2.202,91.195-2.171,91.158-2.171z"/>
			<path opacity="0.69" fill="#FFFFFF" d="M87.986,0.612L87.986,0.612l-3.167-0.005c-0.038,0-0.069-0.031-0.069-0.069
				c0-0.038,0.031-0.068,0.069-0.068l0,0l3.167,0.005c0.038,0,0.068,0.031,0.068,0.069C88.055,0.582,88.023,0.612,87.986,0.612z"/>
			<path opacity="0.69" fill="#FFFFFF" d="M86.662-1.341L86.662-1.341l-1.841-0.004c-0.038,0-0.068-0.031-0.068-0.069
				c0-0.038,0.03-0.068,0.069-0.068l0,0l1.84,0.003c0.038,0,0.068,0.031,0.068,0.069C86.73-1.372,86.7-1.341,86.662-1.341z"/>
			<path opacity="0.69" fill="#FFFFFF" d="M88.402-0.352L88.402-0.352l-3.581-0.003c-0.038,0-0.068-0.031-0.068-0.069
				s0.03-0.069,0.069-0.069l0,0l3.58,0.004c0.037,0,0.068,0.031,0.068,0.069S88.439-0.352,88.402-0.352z"/>
		</g>
		<path fill="#FFFFFF" d="M81.506-0.944v-2.421c-1.335,0-2.418,1.084-2.418,2.421c0,1.337,1.083,2.421,2.418,2.421
			c1.336,0,2.418-1.084,2.418-2.421H81.506z"/>
		<path fill="#1A6CBE" d="M81.506-0.944v-2.421c-1.335,0-2.418,1.084-2.418,2.421C79.088-0.878,81.506-0.944,81.506-0.944z"/>
		<path fill="#102465" d="M83.838-1.211c0-0.58-0.237-1.104-0.621-1.479c-0.372-0.365-0.882-0.59-1.444-0.59v2.069H83.838z"/>
		<path fill="#FFFFFF" d="M83.217-2.69c-0.372-0.365-0.882-0.59-1.444-0.59v2.069"/>
		<path fill="#1A6CBE" d="M83.217-2.69c-0.372-0.365-0.882-0.59-1.444-0.59v2.069"/>
	</g>
	<g>
		<path opacity="0.1" fill="#1C1918" d="M78.512,52.258c0,0-0.352,1.551,7.993,1.893c2.732,0.112,18.101-0.33,17.327-0.871
			s-3.502-1.042-3.502-1.042L78.512,52.258z"/>
		<path fill="#FF5252" d="M80.25,22.462c0,0-2.513-2.812-2.604-2.812s-0.148,0.159-0.148,0.159l2.627,2.824L80.25,22.462z"/>
		<path fill="#06497F" d="M89.645,17.035c0,0,0.831,0.569,0.99,0.983s1.076,1.886,1.076,2.281c0,0.395,0.113,0.918,0.099,1.139
			s-0.007,1.556-0.121,1.738c0.015,0.486,0.015,0.888,0.015,1.131c0,0.243,0.031,1.73,0.061,2.437
			c0.031,0.706,0.076,1.814,0.183,2.088c0.106,0.272,0.102,1.403,0.147,1.532c0.045,0.129,0.25,0.288,0.182,0.395
			s-0.334,0.304-0.455,0.312c-0.121,0.129-0.011,1.261-0.299,1.359c-0.287,0.099-0.424,0.189-1.221,0.182
			c-0.795-0.007-2.683,0.267-3.63,0.068c-0.947-0.197-0.593-0.648-0.623-0.74c-0.03-0.091-0.651-0.144-0.826-0.759
			s0.315-2.152,0.347-2.608c0.029-0.455-0.248-5.213-0.196-5.525c0.428-2.569,1.653-3.601,1.751-3.776
			c0.099-0.174,0.685-1.484,1.178-1.811C88.793,17.133,89.645,17.035,89.645,17.035z"/>
		<path fill="#F0BEB9" d="M89.125,13.202c0,0,0.108,1.222,0.199,1.374c0.09,0.152,0.389,1.544,0.494,1.771s0.524,1.173,0.524,1.173
			s-1.257,0.897-1.951,0.92c-0.694,0.023-1.185,0.18-1.185,0.18s0.342-0.702,0.429-0.963c0.087-0.262,0.12-0.571,0.1-0.625
			s-0.241-0.015-0.241-0.015s-1.477-2.522-0.84-3.474C87.292,12.591,89.125,13.202,89.125,13.202z"/>
		<path fill="#FFE1E1" d="M97.215,47.137l0.875,1.406c0,0-0.422,1.349-0.959,1.539c-0.539,0.189,0.369-0.02-0.533,0.152
			c-0.029,0.006-1.021-1.731-1.021-1.731L97.215,47.137z"/>
		<path fill="#176396" d="M97.986,48.242c0,0,0.973,0.975,0.994,1.035c0.02,0.061,0.174,0,0.174,0l0.316,0.315l-1.256,1.204
			l-0.275-0.155c0,0-0.899,1.438-1.215,1.58s-1.154,0.612-2.523,0.363c-0.195-0.047-0.162-0.229-0.121-0.249
			c-0.088-0.256,0.02-0.585,0.55-0.604c0.53-0.021,0.839-0.102,0.873-0.155c0.033-0.054,0.081-0.369,0.255-0.363
			c-0.201-0.269-0.066-1.378-0.066-1.445s0.201-0.672,0.201-0.672s0.604,0.383,0.799,0.383c0.194,0,0.939-0.35,1.113-0.746
			C97.98,48.336,97.986,48.242,97.986,48.242z"/>
		<path fill="#176396" d="M84.237,51.749c0,0,0.188,0.891,0.159,1.026c0.063,0.126,0.116,0.484,0.063,0.557
			c-0.053,0.072-1.953,0.116-1.953,0.116v-0.175c0,0-0.933,0.247-1.503,0.214c-0.571-0.034-2.8-0.896-2.819-0.935
			c-0.019-0.039,0.049-0.199,0.111-0.17c0.044-0.146,0.029-0.373,0.416-0.368s1.074,0.02,1.286-0.033
			c0.213-0.054,0.406-0.165,0.552-0.209c0.145-0.043,0.98-0.688,1.082-0.73c0.102-0.044,0.837,0.314,1.373,0.445
			c0.537,0.131,1.195,0.053,1.195,0.053L84.237,51.749z"/>
		<path fill="#102465" d="M90.236,31.557c0,0,0.729,2.664,0.648,2.983c-0.079,0.318-0.045,0.33,0.006,0.467s0.143,0.216,0.143,0.455
			s-0.046,0.239,0.022,0.479s0.284,0.58,0.341,0.944c0.057,0.365,0.034,0.969,0.068,1.196s0.057,0.262,0.045,0.648
			c-0.011,0.388-0.045,0.559,0.023,0.729c0.068,0.171,0.182,0.251,0.238,0.399c0.057,0.147,0.171,0.614,0.171,0.614
			s0.011,0.217,0.046,0.364c0.033,0.148-0.308-0.045,0.079,0.205c0.387,0.251,5.821,6.251,5.821,6.251s-1.148,1.139-1.398,1.446
			s-0.955,0.547-0.955,0.547s-0.943-0.854-1.137-1.207c-0.193-0.354-2.172-2.995-2.627-3.325s-2.819-2.209-3.035-2.732
			c-0.217-0.523-2.012-6.217-2.012-6.217v-4.372L90.236,31.557z"/>
		<path fill="#FFE1E1" d="M82.205,23.427c0,0-0.308-0.268-0.41-0.416c-0.102-0.148-0.272-0.558-0.455-0.672
			c-0.182-0.114-0.557-0.456-0.631-0.512c-0.073-0.057-0.517-0.365-0.517-0.365s-0.381,0.014-0.449,0.014
			c-0.11-0.048-0.339-0.094-0.31,0.012c0.028,0.105,0.15,0.418,0.56,0.353c0.185,0.208,0.31,0.265,0.256,0.282
			s-0.577-0.213-0.653-0.219c-0.162-0.165-0.5-0.347-0.5-0.347s0.025-0.16-0.068-0.168c-0.094-0.009-0.526,0.068-0.354,0.355
			c0.174,0.288,0.205,0.25,0.205,0.25s-0.127-0.028-0.116,0.194s-0.003,0.31,0.065,0.375s0.461,0.319,0.461,0.319
			s-0.078,0.45-0.041,0.51c0.037,0.06,0.186,0.085,0.186,0.085s-0.143,0.271,0.133,0.416c0.276,0.145,0.976,0.313,1.535,0.358
			c0.461,0.242,0.967,0.641,0.967,0.641s0.315-0.085,0.497-0.413C82.748,24.152,82.762,24.024,82.205,23.427z"/>
		<path fill="#C3FFFF" d="M82.807,23.683c-0.021-0.046-0.688-0.438-0.688-0.438s-0.653,1.309-0.648,1.474
			c0.006,0.166,0,0.638,0,0.638l0.949,0.273L82.807,23.683z"/>
		<path fill="#043370" d="M91.771,31.078c0,0,0.023,2.209-0.625,3.018s-1.964,2.391-2.073,2.688
			c-0.109,0.296-1.759,3.541-1.815,3.894c-0.057,0.354,0.273,0.193-0.09,0.763c-0.364,0.569-0.752,0.524-0.695,1.07
			c0.059,0.547-0.135,2.072-0.42,2.915c-0.283,0.843-1.185,3.826-1.223,4.076c-0.039,0.251,0.038,0.523,0,0.569
			c-0.039,0.046-0.555,1.78-0.555,1.78s-0.77,0.025-1.088,0c-0.318-0.026-1.528-0.721-1.528-0.721s0.051-1.879,0.323-2.209
			c0.273-0.331,0.205-0.513,0.16-1.207c-0.046-0.695,0.591-2.973,0.807-3.655c0.217-0.684,0.057-1.275,0.08-1.594
			c0.022-0.319,0.932-4.009,1.012-4.657c0.079-0.649,1.592-4.372,1.592-4.372s-0.16-1.993-0.114-2.209
			c0.046-0.217,5.549-0.581,6.253-0.194"/>
		<path fill="#FFE1E1" d="M85.621,11.75c-0.209,0.164-1.115,0.706-1.197,1.622c-0.08,0.915,0.084,1.517,0.552,2.123
			s0.163,1.065,0.224,1.153c0.06,0.088,0.396,0.179,0.578,0.129c0.328,0.297,0.807,0.708,0.858,0.762s0.295,0.087,0.423,0.041
			c0.127-0.046,0.494-0.455,0.552-0.544c0.057-0.088,0.777-0.995,0.751-1.235c-0.026-0.24-0.652-1.249-0.652-1.249
			s2.038,0.15,1.354-1.517C88.379,11.366,86.485,11.067,85.621,11.75z"/>
		<path fill="#176396" d="M89.635,18.895c0,0,0.758,0.307,0.971,0.523c0.211,0.217,0.666,1.093,0.711,1.367
			c0.047,0.273,0.012,0.694-0.067,0.945s-2.001,3.542-2.364,3.985c-0.365,0.444-1.695,2.106-2.15,2.016
			c-0.453-0.091-1.522-0.353-1.852-0.58c-0.33-0.229-1.934-1.048-2.234-1.048c-0.302,0-1.109-0.661-0.824-1.35
			c0.283-0.688,0.533-1.395,0.92-1.338c0.387,0.057,0.273,0.262,0.626,0.433c0.353,0.17,0.637,0.148,0.772,0.296
			c0.137,0.148,0.318,0.091,0.592,0.262s0.284,0.182,0.592,0.296c0.307,0.114,0.642,0.102,0.75,0.131
			c0.012-0.199-0.006-0.233,0.153-0.37s0.136-0.353,0.302-0.546c0.164-0.194,0.42-0.957,0.59-1.202
			c0.172-0.245,0.068-1.395,0.223-1.805C87.497,20.5,87.719,18.713,89.635,18.895z"/>
		<path fill="#C3FFFF" d="M90.192,16.891c0,0,0.351,0.285,0.34,0.61s0.21,0.348,0.147,0.417c-0.063,0.069-1.123,0.123-1.289,0.328
			c-0.164,0.205-2.414,1.366-2.591,1.467c-0.005-0.27,0.192-0.237,0.202-0.555c0.01-0.318-0.148-0.672-0.096-0.772
			c0.054-0.1,0.779-0.181,1.139-0.382c0.361-0.201,1.078-0.843,1.395-0.95C89.754,16.948,90.192,16.891,90.192,16.891z"/>
		<path fill="#120236" d="M89.525,15.271c0,0-1.264-0.148-1.68-0.727c-0.416-0.578-0.305-0.68-0.379-0.68
			c-0.528,0-0.198,0.897-0.42,0.752c-0.24-0.158-0.417-0.681-0.448-0.79s-0.582,0.042-0.743-0.417c0,0-0.357,1.15-1.067,1.313
			c-0.603,0.139-1.475,0.316-1.345-0.85s1.782-3.581,4.143-3.041c1.912-0.85,1.93,3.405,1.94,3.582
			C89.537,14.591,89.545,14.79,89.525,15.271z"/>
		<path fill="#FFE1E1" d="M87.136,14.384c-0.003-0.844,0.644-0.651,0.808-0.312c0.163,0.34,0.188,0.909-0.012,1.042
			c-0.201,0.133-0.41-0.078-0.422-0.081L87.136,14.384z"/>
	</g>
</g>
<g>
	<path fill="#F0BEB9" d="M27.968,16.097c0,0-1.435,2.155-2.152,4.31c-0.717,2.156,0.808,6.398,0.808,6.398l2.061-10.708H27.968z"/>
	<path fill="#C4667D" d="M30.279,14.216c0.603,0.216,1.193,0.48,1.789,0.719c0.055,0.949,0.285,1.904,0.699,2.805
		c-0.178,0.034-0.354,0.058-0.523,0.057c-1.5-0.004-4.368-0.38-4.368-0.38l-0.625-0.603l0.736-1.476
		c0.423-0.848,1.929-1.613,2.85-1.398C30.838,13.941,30.277,14.216,30.279,14.216z"/>
	<path fill="#FFE1E1" d="M31.166,5.646c0,0-5.433-0.211-4.756,3.635c0.126,0.722,0.215,1.437,0.36,1.967
		c0.598,2.173,0.842,2.774,3.247,1.441c0.257-0.143,0.702,2.177,0.987,2.193c0.557,0.032,1.568-1.33,1.76-1.978
		c0.035-0.116-1.023-2.268-1.004-2.33C32.441,8.314,32.658,7.166,31.166,5.646z"/>
	<path fill="#A76478" d="M28.345,7.625c0,0,0.295,2.244,2.024,1.596c0,0,0.266-1.105,0.886-0.448c1.045,1.111,0.226,1.4,0.226,1.4
		l0.515,1.205c0,0,1.664-2.418,0.123-4.855c-1.047-1.655-1.911-1.407-3.959-0.632C26.11,6.667,27.898,7.203,28.345,7.625z"/>
	<ellipse opacity="0.1" fill="#1C1918" cx="30.462" cy="54.176" rx="7.309" ry="1.433"/>
	<g>
		<path fill="#C4667D" d="M33.945,50.543c-0.244,0.154-0.541,0.298-0.783,0.181c-0.32,0.49-2.056,3.193-1.455,3.443l4.074-3.013
			l-0.979-1.246C34.574,50.221,34.26,50.346,33.945,50.543z"/>
		<polygon fill="#FFFFFD" points="31.707,54.167 35.781,51.154 35.912,51.351 31.84,54.436 		"/>
	</g>
	<g>
		<path fill="#C4667D" d="M31.259,52.666c-0.287-0.021-0.534-0.186-0.661-0.424c-0.545,0.202-3.545,1.351-3.211,1.908l5.066-0.005
			l-0.051-1.586C32.035,52.676,31.631,52.693,31.259,52.666z"/>
		<polygon fill="#FFFFFD" points="27.387,54.15 32.453,54.146 32.443,54.38 27.337,54.446 		"/>
	</g>
	<path fill="#102465" d="M30.763,43.388c-0.486,0.769-1.362,1.292-1.948,2.017l4.416,5.268l1.381-1.176L30.763,43.388z"/>
	<path fill="#102465" d="M28.161,34.501c0,0,1.009-10.489-0.615-8.278c-1.623,2.21-2.497,11.768-2.497,11.768s2.195,6.102,5.26,8.52
		C32.625,48.338,28.161,34.501,28.161,34.501z"/>
	<path fill="#174C99" d="M28.32,18.469l3.571,0.91c0,0,2.055,4.026,2.18,7.87c0.131,3.999-3.928,10.811-3.928,10.811
		s2.489,5.039,2.196,14.061c-0.682,0.845-1.943,0.203-1.943,0.203s-2.489-8.512-3.269-13.779c-0.553-3.739,0.424-7.711,1.389-11.361
		C28.515,27.183,27.411,22.696,28.32,18.469z"/>
	<path fill="#DB7286" d="M28.085,17.038c0.456-1.783,1.548-2.726,2.277-3.381c0.156,0.2,0.425,0.333,0.852,0.333
		c0.729,0,1.543-0.372,1.74-1.049c0.227,0.976,0.666,0.292,0.715,0.293c2.146,0.052,1.963,4.663,1.963,4.663l-1.117,11.13
		c-5.216,1.638-7.994-0.65-7.994-0.65S26.556,23.006,28.085,17.038z"/>
	<path fill="#1A6CBE" d="M32.59,51.763c-0.109-0.076-2.776-0.284-2.776-0.284l0.195,0.942l2.499,0.618L32.59,51.763z"/>
	<path fill="#174C99" d="M34.568,49.047c-0.119,0.014-1.938,1.375-1.938,1.375l0.461,0.586l2.145-0.975L34.568,49.047z"/>
	<polygon fill="#AA1818" points="24.501,19.498 20.785,16.096 18.682,16.07 18.584,16.379 23.939,19.832 	"/>
	<polygon fill="#FF5252" points="24.404,19.807 20.688,16.406 18.584,16.379 22.497,20.142 	"/>
	<path fill="#FFE1E1" d="M23.811,18.203c0,0-2.065-1.137-0.664,0.388c0.114,0.125,0.208,0.225,0.293,0.315l-2.505-0.315
		c-0.774-0.055,0.442,0.941,0.442,0.941c0.212,0.45,0.612,0.583,0.973,0.6c0.264,0.106,0.568,0.166,0.92,0.141
		c0,0,0.609-0.061,0.792-0.061C24.245,20.211,24.907,18.568,23.811,18.203z"/>
	<path fill="#FFE1E1" d="M32.881,13.162c0,0,1.604-0.775,1.99,1.385c0.254,1.415-2.377,7.977-5.088,9.748
		c0,0-5.526-3.055-6.633-4.33c0,0,0.015-0.301,0.844-0.91l5.125,1.696C29.12,20.75,31.055,14.935,32.881,13.162z"/>
	<path fill="#F4879C" d="M30.373,17.319c0.721-1.65,1.664-3.712,2.549-4.572c0,0,1.98,0,2.049,1.74
		c0.027,0.683-0.383,2.46-1.236,4.383C32.641,18.284,31.518,17.774,30.373,17.319z"/>
	<path fill="#A76478" d="M30.365,8.926l0.257,0.818l-0.558,0.258l-0.258-0.946l-1.417-1.592c0,0-2.189,1.162-2.791-0.258
		l0.386-0.043c0,0-1.117-0.344-0.859-1.677c0,0,0.215,0.559,0.559,0.688c0,0-1.031-0.989,0-1.72c0,0-0.172,1.118,0.558,1.118
		c0.73,0,4.639-2.796,5.368,0.215c0,0,2.406,0.172,0.859,4.516L30.665,7.55L30.365,8.926z"/>
</g>
</svg>
