<?xml version="1.0" encoding="UTF-8"?>
<!DOCTYPE svg PUBLIC "-//W3C//DTD SVG 1.1//EN" "http://www.w3.org/Graphics/SVG/1.1/DTD/svg11.dtd">
<!-- Creator: CorelDRAW X6 -->
<svg xmlns="http://www.w3.org/2000/svg" xml:space="preserve" width="4.08883in" height="5.03664in" version="1.1" style="shape-rendering:geometricPrecision; text-rendering:geometricPrecision; image-rendering:optimizeQuality; fill-rule:evenodd; clip-rule:evenodd"
viewBox="0 0 663 817"
 xmlns:xlink="http://www.w3.org/1999/xlink">
 <defs>
  <style type="text/css">
   <![CDATA[
    .str0 {stroke:black;stroke-width:1.2765}
    .fil4 {fill:#373435}
    .fil3 {fill:#848688}
    .fil0 {fill:#91D8F8}
    .fil2 {fill:black}
    .fil6 {fill:#663333}
    .fil5 {fill:#D18B60}
    .fil8 {fill:#D44848}
    .fil1 {fill:#FFCC99}
    .fil7 {fill:white}
   ]]>
  </style>
 </defs>
 <rect class="fil0" x="1355" y="-526" width="1378" height="1783"/>
 <path class="fil1" d="M576 268c12,-4 12,-7 21,5 8,12 16,17 6,32 -9,14 -52,15 -55,3 0,0 -5,-10 -5,-16 0,-3 -2,-4 0,-8 4,-5 24,-30 32,-18 0,0 2,2 2,2z"/>
 <path class="fil1" d="M401 222c-35,-7 -16,-14 -33,20 -1,45 47,108 77,127 24,15 81,-30 116,-57l-16 -26c-21,8 -40,7 -78,31 -13,8 15,-69 -65,-95z"/>
 <path class="fil1" d="M176 534c11,-11 12,-44 38,-74l60 23c-20,53 -55,73 -81,93 -45,-2 -89,-1 -165,-16 0,2 -14,0 -7,-25 18,-13 120,-11 155,-1z"/>
 <path class="fil2" d="M294 418l0 0 0 0 0 0 0 0 -76 -1 -3 42 60 23 23 -20c9,3 18,5 25,-1l13 9 52 -35 -18 -19 -76 1 0 0 0 0z"/>
 <path class="fil1" d="M429 537c-10,-12 -67,-38 -94,-67l52 -35c50,26 68,60 85,88 -7,45 -11,89 -34,163 2,0 -2,14 -26,4 -11,-19 2,-121 17,-154z"/>
 <path class="fil3" d="M661 681c0,3 -1,58 -1,58l-93 77 -526 -15 0 -53 126 -29 493 -39z"/>
 <polygon class="fil4" points="167,683 659,684 564,749 41,749 "/>
 <path class="fil3" d="M642 302l6 0c7,0 13,6 13,13l0 367c0,7 -6,13 -13,13l-6 0c-7,0 -13,-6 -13,-13l0 -367c0,-7 6,-13 13,-13z"/>
 <path class="fil3" d="M545 291l8 0c9,0 17,8 17,17l0 436c0,9 -8,17 -17,17l-8 0c-9,0 -17,-8 -17,-17l0 -436c0,-9 8,-17 17,-17z"/>
 <path class="fil1" d="M272 169c20,0 40,0 59,0 -4,16 -6,31 0,46 -16,26 -40,22 -59,0 7,-13 6,-29 0,-46z"/>
 <path class="fil1" d="M297 227c-12,-1 -11,-7 -21,-21l-76 14 5 74c3,44 38,46 15,128 14,4 44,6 75,6l0 0 1 0 0 0 1 0 0 0c30,0 61,-2 75,-6 -24,-87 12,-84 15,-128l5 -74 -69 -12c-9,14 -15,19 -27,20z"/>
 <path class="fil5" d="M329 205c-16,10 -34,9 -52,0 0,-3 1,-15 0,-18 7,0 16,-2 26,-3 9,0 19,2 26,2 0,3 0,16 0,19z"/>
 <path class="fil6" d="M437 667c5,-3 1,-13 6,-13 15,8 24,18 54,26 9,-1 12,8 9,13 -8,11 -38,6 -48,7 -15,-11 -27,0 -27,0 -7,0 -17,0 -26,0 -3,0 -7,-26 0,-38 8,-3 17,16 31,6z"/>
 <path class="fil7" d="M402 689c21,0 46,-3 59,5 2,1 41,4 40,-10l5 0c2,3 2,6 0,8 -8,11 -45,8 -48,7 -15,-11 -27,0 -27,0 -7,0 -17,0 -26,0 -1,0 -2,-4 -3,-10z"/>
 <path class="fil7" d="M455 659l-9 6c-3,2 -1,4 1,2l8 -6c1,0 1,-1 1,-2l0 0c0,-1 -1,-1 -1,0z"/>
 <path class="fil7" d="M463 663l-9 6c-3,2 -1,4 1,2l8 -6c1,0 1,-1 1,-2l0 0c0,-1 -1,-1 -1,0z"/>
 <path class="fil7" d="M470 667l-9 6c-3,2 -1,4 1,2l8 -6c1,0 1,-1 1,-2l0 0c0,-1 -1,-1 -1,0z"/>
 <path class="fil7" d="M478 670l-9 6c-3,2 -1,4 1,2l8 -6c1,0 1,-1 1,-2l0 0c0,-1 -1,-1 -1,0z"/>
 <path class="fil5" d="M304 327c-27,30 -57,14 -60,10 2,0 34,13 60,-10z"/>
 <path class="fil5" d="M309 327c27,30 57,14 60,10 -2,0 -34,13 -60,-10z"/>
 <path class="fil5" d="M307 419c0,-6 0,-11 1,-18 0,-5 20,-2 26,-8 0,0 -26,4 -26,-3 0,-7 0,-12 0,-19 0,-4 18,-3 25,-7 0,0 -26,2 -26,-2 0,-8 -1,-13 -3,-19 0,2 0,10 0,20 0,4 -24,3 -24,3 4,4 24,2 24,5 0,6 1,14 0,22 0,5 -23,3 -23,3 4,4 22,2 23,8 1,16 0,21 2,18z"/>
 <path class="fil5" d="M304 235c-27,-30 -57,-14 -60,-10 2,0 34,-13 60,10z"/>
 <path class="fil5" d="M309 235c27,-30 57,-14 60,-10 -2,0 -34,-13 -60,10z"/>
 <ellipse class="fil5" cx="261" cy="318" rx="4" ry="5"/>
 <ellipse class="fil5" cx="354" cy="318" rx="4" ry="5"/>
 <path class="fil5" d="M306 310c2,-18 2,-42 1,-65 -2,16 -2,57 -1,65z"/>
 <path class="fil4" d="M254 417c8,10 11,9 3,21 -8,12 -11,20 -29,19 -14,-1 -30,-46 -21,-53 0,0 7,-8 13,-10 3,-1 4,-3 8,-3 6,2 37,12 28,23 0,0 -1,2 -1,2z"/>
 <path class="fil5" d="M246 397c2,2 17,9 10,17 -2,2 -1,4 -1,4l6 7 -9 -1 -24 -11 -4 -21 3 -1 0 -1c3,0 18,6 19,7z"/>
 <path class="fil1" d="M251 416c8,10 11,9 3,21 -8,12 -10,20 -28,17 -16,-3 -33,-44 -22,-50 0,0 7,-8 13,-10 3,-1 4,-3 8,-3 6,2 37,12 28,23 0,0 -1,2 -1,2z"/>
 <path class="fil1" d="M229 42l138 0c14,88 -21,156 -42,160 -10,2 -39,3 -50,-2 -22,-9 -59,-73 -46,-159z"/>
 <path class="fil5" d="M233 114c4,-10 12,-51 12,-61 4,0 13,10 17,11 -1,-1 -3,-4 -4,-7 -8,-5 -20,-13 -24,-15l0 0c-3,36 0,52 -1,68 0,2 0,4 -1,5 0,0 1,-1 1,-2z"/>
 <path class="fil2 str0" d="M232 116c15,-5 16,-19 11,-68 5,2 12,7 19,12 0,0 -9,-12 -9,-12 27,7 66,8 87,12 11,2 21,35 21,35 0,0 5,-22 5,-22 2,10 -2,52 -2,52 6,-3 18,-67 20,-78 6,-46 -110,-60 -145,-30 -1,1 -2,3 -3,5 -1,1 -7,-2 -7,-2 0,0 3,5 2,5 -1,0 -11,-2 -11,-2 0,0 7,7 6,8 -8,9 -14,40 6,85z"/>
 <ellipse class="fil7" cx="287" cy="101" rx="18" ry="12"/>
 <circle class="fil2 str0" cx="293" cy="102" r="8"/>
 <circle class="fil7" cx="298" cy="100" r="4"/>
 <ellipse class="fil7" cx="344" cy="101" rx="17" ry="12"/>
 <circle class="fil2 str0" cx="350" cy="102" r="8"/>
 <ellipse class="fil7" cx="354" cy="100" rx="3" ry="4"/>
 <path class="fil2 str0" d="M271 82c28,-3 30,10 35,12 0,-14 -25,-22 -39,-15 4,4 6,1 4,3z"/>
 <path class="fil5" d="M335 126c7,6 6,23 -9,24 -1,0 14,-7 9,-24z"/>
 <path class="fil2 str0" d="M359 86c-26,-4 -28,8 -33,10 0,-14 23,-20 36,-13 -4,4 -5,0 -3,3z"/>
 <path class="fil8" d="M342 176l-57 -3c12,-17 47,-16 57,3z"/>
 <path class="fil7" d="M341 176l-54 -2c11,-16 44,-15 54,2z"/>
 <path class="fil5" d="M257 52c9,3 60,9 72,12 1,0 2,1 3,1 1,1 13,-4 23,14 1,2 2,5 4,7 -4,-10 -11,-25 -18,-27 -21,-4 -60,-5 -87,-12l4 5z"/>
 <path class="fil1" d="M239 122l-5 -42c2,-11 -28,-23 -27,4 0,9 24,46 32,38z"/>
 <path class="fil5" d="M229 106c-4,-6 -5,-10 -7,-13 4,-2 4,-2 6,-1 -1,-4 -5,-4 -7,-2 -3,-7 -1,-8 5,-12 -21,1 -1,25 3,28z"/>
 <path class="fil5" d="M197 271c16,5 16,19 15,21 0,-1 -1,-15 -15,-21z"/>
 <path class="fil5" d="M412 286c-23,-4 -27,9 -27,11 1,-1 7,-13 27,-11z"/>
 <path class="fil5" d="M641 253c15,-5 21,-2 22,-1 -1,0 -9,-3 -22,1z"/>
 <path class="fil6" d="M39 558c5,3 13,-3 15,2 -3,16 -11,28 -10,57 4,8 -5,14 -10,12 -12,-4 -16,-33 -20,-42 7,-17 -7,-25 -8,-25 -2,-7 -4,-15 -7,-24 -1,-3 23,-14 36,-11 5,6 -10,20 3,31z"/>
 <path class="fil7" d="M8 533c6,19 16,42 12,56 -1,2 8,39 21,34l1 4c-2,2 -5,3 -8,3 -12,-4 -21,-39 -20,-42 7,-17 -7,-25 -8,-25 -2,-7 -4,-15 -7,-24 0,-1 3,-3 8,-6z"/>
 <path class="fil7" d="M52 573l-8 -6c-3,-2 -4,0 -2,2l8 6c1,0 1,0 2,0l0 0c1,0 1,-1 0,-1z"/>
 <path class="fil7" d="M51 581l-8 -6c-3,-2 -4,0 -2,2l8 6c1,0 1,0 2,0l0 0c1,0 1,-1 0,-1z"/>
 <path class="fil7" d="M49 588l-8 -6c-3,-2 -4,0 -2,2l8 6c1,0 1,0 2,0l0 0c1,0 1,-1 0,-1z"/>
 <path class="fil7" d="M48 597l-8 -6c-3,-2 -4,0 -2,2l8 6c1,0 1,0 2,0l0 0c1,0 1,-1 0,-1z"/>
 <polygon class="fil4" points="570,313 629,325 629,384 570,372 "/>
 <path class="fil1" d="M238 283c7,-33 5,-61 -38,-64 -42,17 -80,85 -86,121 -5,28 60,63 98,84l18 -25c-16,-16 -22,-34 -59,-59 -13,-9 46,0 68,-56z"/>
 <path class="fil5" d="M211 316c22,-6 21,-20 19,-22 -1,1 -1,15 -19,22z"/>
</svg>
