<?xml version="1.0" encoding="utf-8"?>
<!-- Generator: Adobe Illustrator 23.0.1, SVG Export Plug-In . SVG Version: 6.00 Build 0)  -->
<svg version="1.1" id="Layer_1" xmlns="http://www.w3.org/2000/svg" xmlns:xlink="http://www.w3.org/1999/xlink" x="0px" y="0px"
	 viewBox="0 0 800 450" style="enable-background:new 0 0 800 450;" xml:space="preserve">
<style type="text/css">
	.st0{fill:#3F464F;}
	.st1{fill:#353B42;}
	.st2{fill:#989EA5;}
	.st3{fill:#C8CED6;}
	.st4{fill:#EDF2EE;}
	.st5{fill:#FAA284;}
	.st6{fill:#D4D5D6;}
	.st7{fill:#E8EBEF;}
	.st8{fill:#B8BBBF;}
	.st9{fill:#EF8D72;}
	.st10{opacity:0.1;}
	.st11{clip-path:url(#SVGID_2_);}
	.st12{fill:#72382A;}
	.st13{fill:#5B2A21;}
	.st14{fill:#E0B155;}
	.st15{fill:#89493D;}
	.st16{clip-path:url(#SVGID_4_);}
	.st17{opacity:0.9;}
	.st18{opacity:0;clip-path:url(#SVGID_6_);}
	.st19{clip-path:url(#SVGID_8_);fill:#EA7460;}
	.st20{opacity:0.0909;clip-path:url(#SVGID_6_);}
	.st21{clip-path:url(#SVGID_10_);fill:#EA7460;}
	.st22{opacity:0.1818;clip-path:url(#SVGID_6_);}
	.st23{clip-path:url(#SVGID_12_);fill:#EA7460;}
	.st24{opacity:0.2727;clip-path:url(#SVGID_6_);}
	.st25{clip-path:url(#SVGID_14_);fill:#EA7460;}
	.st26{opacity:0.3636;clip-path:url(#SVGID_6_);}
	.st27{clip-path:url(#SVGID_16_);fill:#EA7460;}
	.st28{opacity:0.4545;clip-path:url(#SVGID_6_);}
	.st29{clip-path:url(#SVGID_18_);fill:#EA7460;}
	.st30{opacity:0.5455;clip-path:url(#SVGID_6_);}
	.st31{clip-path:url(#SVGID_20_);fill:#EA7460;}
	.st32{opacity:0.6364;clip-path:url(#SVGID_6_);}
	.st33{clip-path:url(#SVGID_22_);fill:#EA7460;}
	.st34{opacity:0.7273;clip-path:url(#SVGID_6_);}
	.st35{clip-path:url(#SVGID_24_);fill:#EA7460;}
	.st36{opacity:0.8182;clip-path:url(#SVGID_6_);}
	.st37{clip-path:url(#SVGID_26_);fill:#EA7460;}
	.st38{opacity:0.9091;clip-path:url(#SVGID_6_);}
	.st39{clip-path:url(#SVGID_28_);fill:#EA7460;}
	.st40{clip-path:url(#SVGID_6_);}
	.st41{clip-path:url(#SVGID_30_);fill:#EA7460;}
	.st42{opacity:0;clip-path:url(#SVGID_32_);}
	.st43{clip-path:url(#SVGID_34_);fill:#EA7460;}
	.st44{opacity:0.0909;clip-path:url(#SVGID_32_);}
	.st45{clip-path:url(#SVGID_36_);fill:#EA7460;}
	.st46{opacity:0.1818;clip-path:url(#SVGID_32_);}
	.st47{clip-path:url(#SVGID_38_);fill:#EA7460;}
	.st48{opacity:0.2727;clip-path:url(#SVGID_32_);}
	.st49{clip-path:url(#SVGID_40_);fill:#EA7460;}
	.st50{opacity:0.3636;clip-path:url(#SVGID_32_);}
	.st51{clip-path:url(#SVGID_42_);fill:#EA7460;}
	.st52{opacity:0.4545;clip-path:url(#SVGID_32_);}
	.st53{clip-path:url(#SVGID_44_);fill:#EA7460;}
	.st54{opacity:0.5455;clip-path:url(#SVGID_32_);}
	.st55{clip-path:url(#SVGID_46_);fill:#EA7460;}
	.st56{opacity:0.6364;clip-path:url(#SVGID_32_);}
	.st57{clip-path:url(#SVGID_48_);fill:#EA7460;}
	.st58{opacity:0.7273;clip-path:url(#SVGID_32_);}
	.st59{clip-path:url(#SVGID_50_);fill:#EA7460;}
	.st60{opacity:0.8182;clip-path:url(#SVGID_32_);}
	.st61{clip-path:url(#SVGID_52_);fill:#EA7460;}
	.st62{opacity:0.9091;clip-path:url(#SVGID_32_);}
	.st63{clip-path:url(#SVGID_54_);fill:#EA7460;}
	.st64{clip-path:url(#SVGID_32_);}
	.st65{clip-path:url(#SVGID_56_);fill:#EA7460;}
	.st66{fill:#D3755F;}
	.st67{fill:#754439;}
	.st68{fill:#B22828;}
	.st69{fill:#FFFFFF;}
#arm {
  animation: f2 2s linear infinite;
  animation-direction: alternate;
  transform-origin: 95%  45%;
  transform-box: fill-box;
}
@keyframes f2 {
 0%{ transform: rotateZ(0deg);}
 100%{ transform: rotateZ(9deg);}
 
}
#arm2 {
  animation: f32 2s linear infinite;
  animation-direction: alternate;
  transform-origin: 92%  1%;
  transform-box: fill-box;
}
@keyframes f32 {
 0%{ transform: rotateZ(0deg);}
 100%{ transform: rotateZ(-9deg);}
 
}
#mouth {
	animation: mouth 2s linear infinite;
  animation-direction: alternate;
  transform-origin: center;
  transform-box: fill-box;
}

@keyframes mouth {
	
	0%{transform:rotateX(0deg)}
	5%{transform:rotateX(98deg)}
	10%{transform:rotateX(0deg)}
	70%{transform:rotateX(0deg)}
	75%{transform:rotateX(98deg)}
	80%{transform:rotateX(0deg)}



}

</style>
<rect x="310.12" y="246.39" class="st0" width="13.14" height="117.21"/>
<polygon class="st0" points="320.37,440.39 313.8,440.39 312.28,363.6 321.88,363.6 "/>
<polygon class="st0" points="240.54,440.39 230.94,440.39 316.83,355.91 321.88,363.5 "/>
<polygon class="st0" points="393.62,440.39 403.22,440.39 317.33,355.91 312.28,363.5 "/>
<path class="st1" d="M325.27,374.95c0,1.77-1.42,3.81-3.5,3.81h-9.76c-2.08,0-3.92-2.04-3.92-3.81v-18.48
	c0-1.77,1.84-2.47,3.92-2.47h9.76c2.08,0,3.5,0.7,3.5,2.47V374.95z"/>
<path class="st2" d="M499.29,14.62h-4.37v257.15h4.37c5.54,0,10.02-4.49,10.02-10.02V24.64C509.31,19.11,504.83,14.62,499.29,14.62"
	/>
<path class="st3" d="M503.61,262.13c0,5.54-4.49,10.03-10.02,10.03H133.72c-5.54,0-10.02-4.49-10.02-10.03V25.03
	c0-5.54,4.49-10.03,10.02-10.03h359.87c5.54,0,10.02,4.49,10.02,10.03V262.13z"/>
<rect x="133.8" y="25.11" class="st4" width="359.71" height="236.94"/>
<rect x="133.8" y="25.11" class="st2" width="3.03" height="236.94"/>
<g id="arm">
	<path class="st5" d="M482.35,102.13c0.88-0.96,1.47-1.49,2.66-2.52l-9.19-8.45c-0.86-0.79-0.79-1.93,0.17-2.98l0.06-0.06
		c0.96-1.04,2.45-1.59,3.31-0.8l12.99,11.94l0.61,0.56l5.11,4.69c3.25,2.99,3.2,8.34-0.12,11.95c-3.32,3.61-8.64,4.11-11.9,1.12
		l-5.37-4.94C477.42,109.65,479.03,105.74,482.35,102.13"/>
	<path class="st6" d="M503.15,109.55c13.08,9.06,33.12,17.34,33.12,17.34c21.77-13.56,33.34-17.83,33.34-17.83
		c7.23,4.02,6.57,25.28,6.57,25.28s-20.15,12.01-38.71,14.19c-14.29,1.68-34.35-14.25-45.88-27.36
		C493.21,116.13,499.32,109.05,503.15,109.55"/>
</g>
<path class="st1" d="M611.42,406.29c0,0-9.17,33.09-5.8,33.6h18.31c0,0,2.74,0.94-0.23-32.93l-6.67-0.8L611.42,406.29z"/>
<path class="st5" d="M611.42,406.09l-3.06,25.06c1.59,0.34,10.05-1.32,13.21,1.01c0,0,1.93-11.48,2.13-26.05l-5.66-7.58
	L611.42,406.09z"/>
<path class="st1" d="M564.4,406.09c-4.17,11.95-14.94,25.06-14.94,25.06l-9.38,1.07l-9.4,2.28c0,0-2.35,2.35-0.29,5.88h23.88
	l8.16-20.34l-0.56,20.34h2.49l5.09-25.21C569.46,415.19,568.95,409.2,564.4,406.09"/>
<path class="st5" d="M564.4,406.06l-6-5.46l-6.75,5.45c0,0-7.28,23.14-11.57,26.17l8.58-0.06
	C548.65,432.17,560.23,418.01,564.4,406.06"/>
<path class="st0" d="M573.18,185.74l44.21,0.59c25.93,27.62,18.02,87.93,10.06,132.75c0,0,10.12,20.78-2.93,86.96h-14.36
	c0,0-1.22-72.54-3.09-81.47c-2.35-11.19-11.13-64.7-12.04-80.61l-3.24-0.21c0,0-5.9,38.76-13.85,73.23c0,0,4.92,20.27-1.33,42.71
	c-2.8,10.07-8.68,33.72-8.89,46.35H549.4c0,0,6.64-63.3,5.96-77.31C549.4,206.35,573.18,185.74,573.18,185.74"/>
<path class="st1" d="M555.27,326.82c0.03,0.65,0.06,1.25,0.09,1.9c0.68,14.01-5.96,77.31-5.96,77.31h18.31
	c0.22-12.63,6.09-36.28,8.89-46.35c6.24-22.44,1.33-42.73,1.33-42.73C566.05,336.94,555.29,326.84,555.27,326.82"/>
<path class="st1" d="M607.68,328.32v0.04c1.52,17.18,2.47,77.68,2.47,77.68h14.36c13.05-66.18,3-86.93,3-86.93
	C618.16,335.93,607.68,328.32,607.68,328.32"/>
<path class="st1" d="M591.78,243.76c0,0-8.1-2.7-13.83-6.65c0,0,7.11,18.6,11.22,22.65L591.78,243.76z"/>
<path class="st7" d="M612.13,106.49c0,0-9.27-2.05-14.32-2.1c-5.05-0.06-12.82,1.81-12.82,1.81c-7.95,1.18-15.35,2.87-15.35,2.87
	l-0.98,14.68c-7.92,10.14-8.37,13.48-8.37,17.97c0,7.77,6.87,13.54,6.87,13.54l6.02,30.5c26.34,10.24,44.43,0.59,44.43,0.59
	c2.92-19.9,10.79-45.41,10.79-45.41v-29.58C624.36,109.49,616.24,107.67,612.13,106.49"/>
<path class="st8" d="M586.96,123.29l7.66-7.16l4.01,8.84c0,0,12.34-7.2,13.26-18.49c-0.55-0.12-9.3-2.04-14.19-2.1
	c-5.05-0.06-12.77,1.81-12.77,1.81c-0.09,0.02-0.19,0.05-0.28,0.08C584.31,109.56,584.05,116.66,586.96,123.29"/>
<path class="st5" d="M590.95,100.34l-0.05,12.5l15.3,0.06l0.06-16.27C599.9,100.79,593.56,100.68,590.95,100.34"/>
<path class="st9" d="M606.26,96.63l0.05-12.53l-15.3-0.06l-0.06,16.29C593.56,100.68,599.9,100.79,606.26,96.63"/>
<path class="st7" d="M590.95,100.34c0,0-0.32,7.87,4.71,10.77c0,0,9.88-2.7,10.59-10.77l5.67,6.15c0,0-3.59,10.53-12.81,14.82
	l-3.76-8.43l-7.75,7.66c0,0-3.14-8.95-2.62-14.82L590.95,100.34z"/>
<g class="st10">
	<g>
		<defs>
			<rect id="SVGID_1_" x="562.76" y="142.2" width="55.47" height="13.38"/>
		</defs>
		<clipPath id="SVGID_2_">
			<use xlink:href="#SVGID_1_"  style="overflow:visible;"/>
		</clipPath>
		<path class="st11" d="M562.76,146.52c0,0,2,1.69,6.35,2.07c8.78,0.76,23.18,2.34,35.87,0.3c5.32-0.86,9.24-3.54,13.25-6.69
			c0,0-2.39,13.65-19.08,13.37C582.47,155.29,563.81,157.34,562.76,146.52"/>
	</g>
</g>
<path class="st12" d="M574.95,62.58c0,0-12.99,7.37-4.23,18.68C570.72,81.26,568.24,70.08,574.95,62.58"/>
<path class="st13" d="M610.2,22.77c0,0,9.76-18.22,25.25-4.51c0,0,12.1,9.29,7.5,15.74c-4.61,6.45,12.06,13.95,0.04,27.76
	c-12.02,13.81,13.8,17.21-5.48,34c0,0-5.5,5.47-0.66,12.55c0,0-19.63-2.75-17.5-19.11c0,0-3.07,6.03-0.39,12.36
	c0,0-10.51-10.03-6.95-19.21c3.56-9.18,3.48-17.87,0.18-21.53C608.88,57.16,601.1,40.37,610.2,22.77"/>
<path class="st14" d="M606.09,22.44c0,0,3.84-5.55,10.76-0.45c6.92,5.1,1.92,8.75,1.92,8.75L606.09,22.44z"/>
<path class="st12" d="M573.44,63.08l-1.14-4.05c0,0-3.07-0.24-4.96,0.14c0,0-10.8-26.53,13.64-31.22c0,0,14.16-12.7,33.19-3.27
	c0,0,22.07,8.67,11.47,36.44l-15,13.07L573.44,63.08z"/>
<path class="st15" d="M620.42,43.55C595.2,48,578.88,35.7,573.38,30.63c-6.71,3.85-8.46,10.35-8.43,16.18
	C596.62,56.07,620.42,43.55,620.42,43.55"/>
<g class="st10">
	<g>
		<defs>
			<rect id="SVGID_3_" x="559.24" y="133.43" width="68.65" height="91.62"/>
		</defs>
		<clipPath id="SVGID_4_">
			<use xlink:href="#SVGID_3_"  style="overflow:visible;"/>
		</clipPath>
		<path class="st16" d="M573.58,200.5c0,0,24.14-1.71,48.18-8.76c-1.33-1.91-2.77-3.71-4.34-5.38c0.04-0.02-0.07-0.03-0.07-0.03
			c2.92-19.9,10.54-45.41,10.54-45.41v-4.13l-9.75-3.35l-12.67,27.66l-35.1,10.69l2.81,14.48h0c0,0-8.38,7.3-13.94,38.79l18.71-1.09
			L573.58,200.5z"/>
	</g>
</g>
<path class="st5" d="M620.65,60.97l-0.4,0.14c0,0-10.37,6.4-11.88-19.12c-4.04,4.55-4.11,15.72-4.11,15.72
	c-5.28-1.08-16.15-0.26-16.15-0.26c-1.88-18.19,3.16-24.09,3.16-24.09c-9.22,4.34-6.96,24.03-6.96,24.03c-4-0.45-7.1,0.84-7.1,0.84
	l-3.68,0.39c0,0-0.1,11.93,0.35,16.84c0.88,9.6,5.87,16.62,15.28,18.84c22.7,5.35,29.1-16.22,29.1-16.22s8.53,0.18,9.53-10.86
	C628.59,58.19,620.65,60.97,620.65,60.97"/>
<path class="st9" d="M616.26,75.74c0,0-6.16,15.95-18.88,17.67c-7.75,1.05-14.41-2.26-18.44-5.01c2.49,2.83,5.88,4.87,10.21,5.89
	c22.7,5.35,29.1-16.22,29.1-16.22s6.76,0.09,8.94-7.58C621.52,78.37,616.26,75.74,616.26,75.74"/>
<g class="st17">
	<g>
		<defs>
			<rect id="SVGID_5_" x="572.3" y="67.22" width="18.37" height="18.37"/>
		</defs>
		<clipPath id="SVGID_6_">
			<use xlink:href="#SVGID_5_"  style="overflow:visible;"/>
		</clipPath>
		<g class="st18">
			<g>
				<defs>
					<rect id="SVGID_7_" x="572.3" y="67.22" width="18.37" height="18.37"/>
				</defs>
				<clipPath id="SVGID_8_">
					<use xlink:href="#SVGID_7_"  style="overflow:visible;"/>
				</clipPath>
				<path class="st19" d="M590.67,76.46c-0.03,5.07-4.16,9.16-9.24,9.14c-5.07-0.03-9.16-4.16-9.14-9.24
					c0.03-5.07,4.16-9.16,9.24-9.14C586.61,67.25,590.7,71.39,590.67,76.46"/>
			</g>
		</g>
		<g class="st20">
			<g>
				<defs>
					<rect id="SVGID_9_" x="573.1" y="68.03" width="16.76" height="16.76"/>
				</defs>
				<clipPath id="SVGID_10_">
					<use xlink:href="#SVGID_9_"  style="overflow:visible;"/>
				</clipPath>
				<path class="st21" d="M581.53,68.03c4.63,0.03,8.36,3.8,8.33,8.43c-0.03,4.63-3.8,8.36-8.43,8.33c-4.63-0.03-8.36-3.8-8.33-8.43
					C573.13,71.74,576.9,68,581.53,68.03"/>
			</g>
		</g>
		<g class="st22">
			<g>
				<defs>
					<rect id="SVGID_11_" x="573.91" y="68.84" width="15.15" height="15.15"/>
				</defs>
				<clipPath id="SVGID_12_">
					<use xlink:href="#SVGID_11_"  style="overflow:visible;"/>
				</clipPath>
				<path class="st23" d="M581.52,68.84c4.18,0.02,7.55,3.43,7.53,7.61c-0.02,4.18-3.43,7.55-7.61,7.53
					c-4.18-0.02-7.55-3.43-7.53-7.61C573.93,72.19,577.34,68.81,581.52,68.84"/>
			</g>
		</g>
		<g class="st24">
			<g>
				<defs>
					<rect id="SVGID_13_" x="574.72" y="69.64" width="13.53" height="13.53"/>
				</defs>
				<clipPath id="SVGID_14_">
					<use xlink:href="#SVGID_13_"  style="overflow:visible;"/>
				</clipPath>
				<path class="st25" d="M581.52,69.65c3.74,0.02,6.75,3.07,6.73,6.8c-0.02,3.74-3.07,6.75-6.8,6.73c-3.74-0.02-6.75-3.07-6.73-6.8
					C574.74,72.64,577.78,69.62,581.52,69.65"/>
			</g>
		</g>
		<g class="st26">
			<g>
				<defs>
					<rect id="SVGID_15_" x="575.52" y="70.45" width="11.92" height="11.92"/>
				</defs>
				<clipPath id="SVGID_16_">
					<use xlink:href="#SVGID_15_"  style="overflow:visible;"/>
				</clipPath>
				<path class="st27" d="M581.52,70.45c3.29,0.02,5.94,2.7,5.93,5.99c-0.02,3.29-2.7,5.94-5.99,5.93c-3.29-0.02-5.94-2.7-5.92-5.99
					C575.54,73.09,578.22,70.43,581.52,70.45"/>
			</g>
		</g>
		<g class="st28">
			<g>
				<defs>
					<rect id="SVGID_17_" x="576.33" y="71.26" width="10.3" height="10.3"/>
				</defs>
				<clipPath id="SVGID_18_">
					<use xlink:href="#SVGID_17_"  style="overflow:visible;"/>
				</clipPath>
				<path class="st29" d="M581.51,71.26c2.84,0.02,5.14,2.34,5.12,5.18c-0.02,2.84-2.34,5.14-5.18,5.12
					c-2.84-0.02-5.14-2.33-5.12-5.18C576.35,73.54,578.67,71.24,581.51,71.26"/>
			</g>
		</g>
		<g class="st30">
			<g>
				<defs>
					<rect id="SVGID_19_" x="577.14" y="72.07" width="8.69" height="8.69"/>
				</defs>
				<clipPath id="SVGID_20_">
					<use xlink:href="#SVGID_19_"  style="overflow:visible;"/>
				</clipPath>
				<path class="st31" d="M581.51,72.07c2.4,0.01,4.33,1.97,4.32,4.37c-0.01,2.4-1.97,4.33-4.37,4.32c-2.4-0.01-4.33-1.97-4.32-4.37
					C577.15,73.99,579.11,72.05,581.51,72.07"/>
			</g>
		</g>
		<g class="st32">
			<g>
				<defs>
					<rect id="SVGID_21_" x="577.94" y="72.87" width="7.07" height="7.07"/>
				</defs>
				<clipPath id="SVGID_22_">
					<use xlink:href="#SVGID_21_"  style="overflow:visible;"/>
				</clipPath>
				<path class="st33" d="M581.5,72.87c1.95,0.01,3.53,1.6,3.52,3.56c-0.01,1.95-1.6,3.53-3.56,3.52c-1.95-0.01-3.53-1.6-3.52-3.56
					C577.96,74.44,579.55,72.86,581.5,72.87"/>
			</g>
		</g>
		<g class="st34">
			<g>
				<defs>
					<rect id="SVGID_23_" x="578.75" y="73.68" width="5.46" height="5.46"/>
				</defs>
				<clipPath id="SVGID_24_">
					<use xlink:href="#SVGID_23_"  style="overflow:visible;"/>
				</clipPath>
				<path class="st35" d="M581.5,73.68c1.51,0.01,2.72,1.24,2.71,2.75c-0.01,1.51-1.24,2.72-2.74,2.71
					c-1.51-0.01-2.72-1.24-2.72-2.74C578.76,74.89,579.99,73.67,581.5,73.68"/>
			</g>
		</g>
		<g class="st36">
			<g>
				<defs>
					<rect id="SVGID_25_" x="579.56" y="74.49" width="3.84" height="3.85"/>
				</defs>
				<clipPath id="SVGID_26_">
					<use xlink:href="#SVGID_25_"  style="overflow:visible;"/>
				</clipPath>
				<path class="st37" d="M581.49,74.49c1.06,0.01,1.92,0.87,1.91,1.93c-0.01,1.06-0.87,1.92-1.93,1.91
					c-1.06-0.01-1.92-0.87-1.91-1.93C579.57,75.34,580.43,74.48,581.49,74.49"/>
			</g>
		</g>
		<g class="st38">
			<g>
				<defs>
					<rect id="SVGID_27_" x="580.36" y="75.29" width="2.23" height="2.23"/>
				</defs>
				<clipPath id="SVGID_28_">
					<use xlink:href="#SVGID_27_"  style="overflow:visible;"/>
				</clipPath>
				<path class="st39" d="M581.49,75.29c0.62,0,1.11,0.51,1.11,1.12c0,0.62-0.51,1.11-1.12,1.11c-0.62,0-1.11-0.5-1.11-1.12
					C580.37,75.79,580.87,75.29,581.49,75.29"/>
			</g>
		</g>
		<g class="st40">
			<g>
				<defs>
					<rect id="SVGID_29_" x="581.17" y="76.1" width="0.62" height="0.62"/>
				</defs>
				<clipPath id="SVGID_30_">
					<use xlink:href="#SVGID_29_"  style="overflow:visible;"/>
				</clipPath>
				<path class="st41" d="M581.79,76.41c0,0.17-0.14,0.31-0.31,0.31c-0.17,0-0.31-0.14-0.31-0.31c0-0.17,0.14-0.31,0.31-0.31
					C581.65,76.1,581.79,76.24,581.79,76.41"/>
			</g>
		</g>
	</g>
</g>
<g class="st17">
	<g>
		<defs>
			<rect id="SVGID_31_" x="595.13" y="65.43" width="21.22" height="21.22"/>
		</defs>
		<clipPath id="SVGID_32_">
			<use xlink:href="#SVGID_31_"  style="overflow:visible;"/>
		</clipPath>
		<g class="st42">
			<g>
				<defs>
					<rect id="SVGID_33_" x="595.13" y="65.43" width="21.22" height="21.22"/>
				</defs>
				<clipPath id="SVGID_34_">
					<use xlink:href="#SVGID_33_"  style="overflow:visible;"/>
				</clipPath>
				<path class="st43" d="M616.34,76.1c-0.03,5.86-4.81,10.58-10.67,10.55c-5.86-0.03-10.58-4.81-10.55-10.67
					c0.03-5.86,4.81-10.58,10.67-10.55C611.65,65.46,616.38,70.24,616.34,76.1"/>
			</g>
		</g>
		<g class="st44">
			<g>
				<defs>
					<rect id="SVGID_35_" x="596.06" y="66.36" width="19.35" height="19.35"/>
				</defs>
				<clipPath id="SVGID_36_">
					<use xlink:href="#SVGID_35_"  style="overflow:visible;"/>
				</clipPath>
				<path class="st45" d="M605.79,66.36c5.34,0.03,9.65,4.39,9.62,9.73c-0.03,5.34-4.39,9.65-9.73,9.62
					c-5.34-0.03-9.65-4.39-9.62-9.73C596.09,70.64,600.44,66.33,605.79,66.36"/>
			</g>
		</g>
		<g class="st46">
			<g>
				<defs>
					<rect id="SVGID_37_" x="596.99" y="67.29" width="17.49" height="17.49"/>
				</defs>
				<clipPath id="SVGID_38_">
					<use xlink:href="#SVGID_37_"  style="overflow:visible;"/>
				</clipPath>
				<path class="st47" d="M605.78,67.29c4.83,0.03,8.72,3.96,8.7,8.79c-0.03,4.83-3.96,8.72-8.79,8.7c-4.83-0.03-8.72-3.96-8.7-8.79
					C597.02,71.16,600.95,67.27,605.78,67.29"/>
			</g>
		</g>
		<g class="st48">
			<g>
				<defs>
					<rect id="SVGID_39_" x="597.92" y="68.23" width="15.63" height="15.63"/>
				</defs>
				<clipPath id="SVGID_40_">
					<use xlink:href="#SVGID_39_"  style="overflow:visible;"/>
				</clipPath>
				<path class="st49" d="M605.78,68.23c4.31,0.02,7.79,3.54,7.77,7.86c-0.02,4.31-3.54,7.79-7.86,7.77
					c-4.31-0.02-7.79-3.54-7.77-7.86C597.95,71.68,601.46,68.2,605.78,68.23"/>
			</g>
		</g>
		<g class="st50">
			<g>
				<defs>
					<rect id="SVGID_41_" x="598.85" y="69.16" width="13.76" height="13.76"/>
				</defs>
				<clipPath id="SVGID_42_">
					<use xlink:href="#SVGID_41_"  style="overflow:visible;"/>
				</clipPath>
				<path class="st51" d="M605.77,69.16c3.8,0.02,6.86,3.12,6.84,6.92c-0.02,3.8-3.12,6.86-6.92,6.84c-3.8-0.02-6.86-3.12-6.84-6.92
					C598.87,72.2,601.97,69.14,605.77,69.16"/>
			</g>
		</g>
		<g class="st52">
			<g>
				<defs>
					<rect id="SVGID_43_" x="599.78" y="70.09" width="11.9" height="11.9"/>
				</defs>
				<clipPath id="SVGID_44_">
					<use xlink:href="#SVGID_43_"  style="overflow:visible;"/>
				</clipPath>
				<path class="st53" d="M605.77,70.09c3.29,0.02,5.93,2.7,5.92,5.98c-0.02,3.28-2.7,5.93-5.98,5.92c-3.29-0.02-5.93-2.7-5.92-5.98
					C599.8,72.72,602.48,70.07,605.77,70.09"/>
			</g>
		</g>
		<g class="st54">
			<g>
				<defs>
					<rect id="SVGID_45_" x="600.72" y="71.02" width="10.03" height="10.03"/>
				</defs>
				<clipPath id="SVGID_46_">
					<use xlink:href="#SVGID_45_"  style="overflow:visible;"/>
				</clipPath>
				<path class="st55" d="M605.76,71.02c2.77,0.01,5,2.27,4.99,5.04c-0.02,2.77-2.27,5-5.04,4.99c-2.77-0.02-5-2.27-4.99-5.04
					C600.73,73.24,602.99,71.01,605.76,71.02"/>
			</g>
		</g>
		<g class="st56">
			<g>
				<defs>
					<rect id="SVGID_47_" x="601.65" y="71.95" width="8.17" height="8.17"/>
				</defs>
				<clipPath id="SVGID_48_">
					<use xlink:href="#SVGID_47_"  style="overflow:visible;"/>
				</clipPath>
				<path class="st57" d="M605.76,71.95c2.26,0.01,4.07,1.85,4.06,4.11c-0.01,2.26-1.85,4.07-4.11,4.06
					c-2.26-0.01-4.07-1.85-4.06-4.11C601.66,73.76,603.5,71.94,605.76,71.95"/>
			</g>
		</g>
		<g class="st58">
			<g>
				<defs>
					<rect id="SVGID_49_" x="602.58" y="72.89" width="6.31" height="6.3"/>
				</defs>
				<clipPath id="SVGID_50_">
					<use xlink:href="#SVGID_49_"  style="overflow:visible;"/>
				</clipPath>
				<path class="st59" d="M605.75,72.89c1.74,0.01,3.14,1.43,3.13,3.17c-0.01,1.74-1.43,3.14-3.17,3.13
					c-1.74-0.01-3.14-1.43-3.14-3.17C602.59,74.28,604.01,72.88,605.75,72.89"/>
			</g>
		</g>
		<g class="st60">
			<g>
				<defs>
					<rect id="SVGID_51_" x="603.51" y="73.82" width="4.44" height="4.44"/>
				</defs>
				<clipPath id="SVGID_52_">
					<use xlink:href="#SVGID_51_"  style="overflow:visible;"/>
				</clipPath>
				<path class="st61" d="M605.75,73.82c1.23,0.01,2.21,1.01,2.21,2.23c-0.01,1.23-1.01,2.21-2.23,2.21
					c-1.23-0.01-2.21-1.01-2.21-2.23C603.52,74.8,604.52,73.81,605.75,73.82"/>
			</g>
		</g>
		<g class="st62">
			<g>
				<defs>
					<rect id="SVGID_53_" x="604.45" y="74.75" width="2.58" height="2.58"/>
				</defs>
				<clipPath id="SVGID_54_">
					<use xlink:href="#SVGID_53_"  style="overflow:visible;"/>
				</clipPath>
				<path class="st63" d="M605.74,74.75c0.71,0,1.29,0.58,1.28,1.3c0,0.71-0.58,1.28-1.29,1.28c-0.71,0-1.29-0.58-1.28-1.3
					C604.45,75.32,605.03,74.75,605.74,74.75"/>
			</g>
		</g>
		<g class="st64">
			<g>
				<defs>
					<rect id="SVGID_55_" x="605.38" y="75.68" width="0.71" height="0.71"/>
				</defs>
				<clipPath id="SVGID_56_">
					<use xlink:href="#SVGID_55_"  style="overflow:visible;"/>
				</clipPath>
				<path class="st65" d="M606.09,76.04c0,0.2-0.16,0.35-0.36,0.35c-0.2,0-0.36-0.16-0.35-0.36c0-0.2,0.16-0.36,0.36-0.35
					C605.93,75.68,606.09,75.84,606.09,76.04"/>
			</g>
		</g>
	</g>
</g>
<g id="arm2">
	<polygon class="st3" points="569.62,216.03 570.8,214.7 555.24,150.27 517.05,150.92 515.48,152.67 	"/>
	<polygon class="st4" points="553.53,152.28 569.62,216.03 532.23,216.02 515.48,152.67 	"/>
	<path class="st5" d="M578.62,183.86l-5.84-4.81c0,0-5.44-2-8.27-3.12c-2.9-1.15-3.6-2.18-3.6-2.18l1.16,4.79
		c0,0-16.14-2.19-16.7,0.08c0,0-0.26,0.78,0.19,2.09c0,0-2.46-0.04-1.85,2.79c0,0-0.07,0.17,1.49,0.6c0,0-1.43,1.98,1.07,3.31
		c0,0-0.71,1.71,1.37,2.67c2.08,0.96,13.03,3.52,13.03,3.52s9.59,0.3,13.39-2.15L578.62,183.86z"/>
	<path class="st7" d="M571.45,176.93c21.01-3.95,37.47-13.22,37.47-13.22c9.68-38.69,19.23-52.38,19.23-52.38
		c20.38,5.8,2.37,65.63-7.55,70.59c-5.37,2.68-29.11,10.83-46.04,10.51C572.33,189.97,569.81,183.5,571.45,176.93"/>
</g>
<g id="face">
	<path class="st12" d="M585.55,59.09c0,0-4.43-1.73-9.29,1.77c0,0-0.05-0.6,0.94-1.62c1-1.02,3.99-2.56,7.1-1.85
		C584.3,57.39,586.21,58.46,585.55,59.09"/>
	<path class="st12" d="M597.59,59.45c0,0,5.09-2.13,10.77,1.68c0,0,0.05-0.68-1.12-1.81c-1.17-1.12-4.66-2.77-8.24-1.85
		C598.99,57.48,596.81,58.77,597.59,59.45"/>
	<path class="st66" d="M593.32,77.89c-4.52,2.04-7.09-0.03-7.35-2.2c-0.18-1.41,0.58-2.7,1.92-3.28c2.76-1.2,4.57-5.58,4.58-5.63
		c0.05,0.99-0.8,4.75-4.28,6.95c-0.75,0.48-1.21,0.97-1.13,1.66C587.21,76.61,589.05,78.37,593.32,77.89"/>
	<g id="eyes">
		<path class="st67" d="M603.54,63.25c0,0-2.83-0.1-3.17-1.18c0,0-0.43,1.48,1.26,2.06c-0.58,0.64-0.96,1.58-1.02,2.64
			c-0.1,2.02,1.06,3.72,2.58,3.79c1.52,0.07,2.83-1.51,2.93-3.53C606.21,65.02,605.06,63.33,603.54,63.25"/>
		<path class="st67" d="M582.83,63.14c0,0-2.83-0.1-3.17-1.18c0,0-0.43,1.48,1.26,2.06c-0.58,0.64-0.96,1.58-1.02,2.64
			c-0.1,2.02,1.06,3.72,2.58,3.79c1.52,0.07,2.83-1.51,2.93-3.53C585.5,64.91,584.35,63.21,582.83,63.14"/>
	</g>
	<g id="mouth">
		<path class="st68" d="M586.28,80.72c0,0,5.86,1.83,15.24-0.03c0,0-2.27,7.61-8.66,7.12C587.17,87.37,586.28,80.72,586.28,80.72"/>
		<path class="st69" d="M586.5,81.1c0,0,6.09,2.08,14.63-0.03c0,0-1.44,3.18-8.16,2.98C586.99,83.87,586.5,81.1,586.5,81.1"/>
	</g>
</g>
<path class="st12" d="M620.42,60.29c0,0-10.33,3.36-5.58,19.46C614.84,79.75,603.04,66.19,620.42,60.29"/>
</svg>
