<svg width="250" height="250" xmlns="http://www.w3.org/2000/svg">
 <g>
  <title>background</title>
 
 </g>

 <style type="text/css">.st0{fill:#C17A3C;}
	.st1{fill:#764F27;}
	.st2{fill:#732F2E;}
	.st3{fill:#7D7662;}
	.st4{fill:#615E47;}
	.st5{fill:#66634B;}
	.st6{fill:#6C684F;}
	.st7{fill:#716D53;}
	.st8{fill:#5B5942;}
	.st9{fill:#AA8F61;}
	.st10{fill:#A47E37;}
	.st11{fill:#825B4F;}
	.st12{fill:#6C5431;}
	.st13{fill:#96774D;}
	.st14{fill:#3C434D;}
	.st15{fill:#5A646D;}
	.st16{fill:#A5A6AA;}
	.st17{fill:#5A606F;}
	.st18{fill:#D5D6D7;}
	.st19{fill:#393A3E;}
	.st20{fill:#494A4F;}
	.st21{fill:#B6A5AF;}
	.st22{fill:#BEDDDC;}
	.st23{fill:#471210;}
	.st24{fill:#F0BC83;}
	.st25{fill:#B43831;}
	.st26{fill:#7D7B7A;}
	.st27{fill:none;}
	.st28{display:none;}
	.st29{display:inline;}
	.st30{fill:#68111E;}
	.st31{fill:#341215;}
	.st32{fill:#DBA77F;}
	.st33{fill:#EEC09B;}
	.st34{fill:#EEC9AB;}
	.st35{fill:#861728;}
	.st36{fill:#321215;}
	.st37{fill:#FFFFFF;}
	.st38{display:inline;fill:#352311;}
	.st39{fill:#352311;}
	.st40{fill:#17120E;}
	.st41{fill:#291E10;}
	.st42{fill:#3D3D3D;}
	.st43{fill:#9DD87D;}
	.st44{fill:#7FC5D6;}
	.st45{fill:#261D15;}
	.st46{fill:#483729;}
	.st47{fill:#191C19;}
	.st48{fill:#292E2A;}
	.st49{fill:#BEA176;}
	.st50{fill:#E3CCAA;}
	.st51{fill:#43311B;}
	.st52{display:inline;fill:#FFFFFF;}
	.st53{fill:#2B2B2B;}
	.st54{opacity:0.33;fill:#2B2B2B;}
	.st55{fill:#353535;}
	.st56{fill:#494949;}
	.st57{fill:#1C2528;}
	.st58{fill:#111719;}
	.st59{fill:#DDDDD8;}
	.st60{fill:#C15A3F;}
	.st61{fill:#2E9F8E;}
	.st62{fill:#F6921E;}
	.st63{fill:#A7B590;}
	.st64{fill:#DEA926;}
	.st65{fill:#F8B11D;}
	.st66{fill:#FDCD2F;}
	.st67{fill:#E14C4B;}
    
    #right-arm ,#phone{
    animation : swip1 4s ease-in-out infinite;
    
    }
    @keyframes swip1{
    0%,50%{
   visibility : visible
    }
    55%,100%{
    visibility : hidden
    }
   
    }
    #right-arm-2 ,#phone-2{
    animation : swip2 4s ease-in-out infinite;
    
    }
    @keyframes swip2{
    0%,50%{
   visibility : hidden
    }
    55%,100%{
    visibility : visible
    }
   
    }
    #left-arm{
    animation : swip 4s ease-in-out infinite;
    }
    @keyframes swip{
    0%,55%{
    visibility : visible
    }
    56%,100%{
    visibility : hidden
    }
    }
    #left-arm-1{
    animation : swip4 4s ease-in-out infinite;
    }
    @keyframes swip4{
    0%,65%{
    visibility : hidden
    }
    66%,75%{
    visibility : visible
    }
    76%,85%{
    visibility : hidden
    }
    86%,95%{
    visibility : visible
    }
    96%,100%{
    visibility : hidden
    }
    }
    
    #left-arm-2{
    animation : swip3 4s ease-in-out infinite;
    }
    @keyframes swip3{
    0%,55%{
    visibility : hidden
    }
    56%,65%{
    visibility : visible
    }
    66%,75%{
    visibility : hidden
    }
    76%,85%{
    visibility : visible
    }
    86%,95%{
    visibility : hidden
    }
    100%{
    visibility : visible
    }
   
    }
    #eyes{
    animation : blink 4s ease-in-out infinite
    }
    @keyframes blink{
    0%,20%{
    visibility : visible
    }
    25%,30%{
    visibility : hidden
    }
    35%,50%{
    visibility : visible
    }
    55%,60%{
     visibility : hidden
    }
    65%,85%{
    visibility : visible
    }
    90%,95%{
    visibility : hidden
    }
    100%{
    visibility : visible
    }
    }</style>
 <g>
  <title>Layer 1</title>
  <g stroke="null" id="man">
   <g stroke="null" id="closed-mouth">
    <g stroke="null" id="right-arm">
     <path stroke="null" id="XMLID_30_" class="st32" d="m128.39976,129.75357c0,0 -2.21897,-1.77518 -4.75493,-2.28237c-1.83857,-0.38039 -4.24774,-1.64838 -4.24774,-1.64838s-0.95099,1.07778 1.39478,2.34577c2.40917,1.26798 2.91636,2.66276 2.91636,2.66276l4.69153,-1.07778z"/>
     <path stroke="null" id="XMLID_29_" class="st32" d="m120.60167,134.6987c0,0 -6.59351,-1.45818 -12.10923,-5.13533c0,0 0.82419,-1.33138 2.91636,0.1268c2.02877,1.33138 6.02292,1.71178 6.02292,1.71178l3.16996,3.29675z"/>
     <path stroke="null" id="XMLID_28_" class="st55" d="m122.37685,81.69704c0,0 -3.74055,6.02292 0.69739,12.36283c4.43794,6.33991 18.82954,22.06289 18.82954,22.06289l-14.2648,13.63081l3.55035,3.42355c0,0 14.455,-9.19287 18.32234,-14.83539c0,-0.0634 -19.46353,-34.80611 -27.13482,-36.64469z"/>
     <path stroke="null" id="XMLID_27_" class="st32" d="m120.60167,134.6987c0,0 -6.78371,-2.09217 -9.95366,-7.0373c0,0 0.63399,-1.01439 2.09217,0.44379c1.45818,1.45818 5.76932,3.80395 7.1641,3.36015c0.0634,0 2.02877,1.96537 0.69739,3.23335z"/>
     <path stroke="null" id="XMLID_26_" class="st33" d="m131.18932,133.11373c0,0 -8.11509,3.55035 -10.84125,1.39478c-2.72616,-2.15557 -5.64252,-3.23335 -5.76932,-8.49548c0,0 1.64838,0.1902 2.34577,2.97976c0,0 1.01439,2.53596 5.26213,2.66276c0,0 2.53596,-2.40917 6.21311,-1.83857c0,-0.0634 2.91636,1.45818 2.78956,3.29675z"/>
     <path stroke="null" id="XMLID_25_" class="st55" d="m120.91867,86.32518c0,0 -2.97976,5.51572 8.68568,16.80077c11.72884,11.34844 10.71445,12.74322 10.71445,12.74322s-1.64838,0.57059 -1.01439,1.26798c0,0 -3.23335,0.44379 -2.91636,3.61375l4.50134,5.45232c0,0 7.79809,-3.80395 8.55888,-7.98829l-7.98829,-13.88441l-20.54131,-18.00535z"/>
     <polygon stroke="null" id="XMLID_24_" class="st55" points="136.45144605636597,120.56069135665894 132.5206904411316,124.55483961105347 136.89526319503784,129.24638319015503 141.07957410812378,126.13981580734253 "/>
    </g>
    <g stroke="null" id="right-arm-2">
     <path stroke="null" id="XMLID_32_" class="st32" d="m97.144,110.79724c0,0 0.57059,-2.78956 -0.1902,-5.26213c-0.50719,-1.77518 -0.50719,-4.50134 -0.50719,-4.50134s-1.39478,-0.317 -1.45818,2.34577c0,2.72616 -1.01439,3.80395 -1.01439,3.80395l3.16996,3.61375z"/>
     <path stroke="null" id="XMLID_7_" class="st32" d="m89.15571,106.1691c0,0 -1.77518,-6.53011 -1.01439,-13.12362c0,0 1.58498,0.1268 1.20458,2.66276c-0.2536,2.40917 1.26798,6.14971 1.26798,6.14971l-1.45818,4.31114z"/>
     <path stroke="null" id="XMLID_5_" class="st55" d="m137.02204,83.21862c0,0 -7.1007,-0.50719 -10.65105,6.33991c-3.55035,6.8471 -10.90465,26.88122 -10.90465,26.88122l-18.70274,-6.33991l-1.39478,4.75493c0,0 14.83539,8.55888 21.6191,9.38307c0.0634,0 21.93609,-33.34793 20.03412,-41.01923z"/>
     <path stroke="null" id="XMLID_4_" class="st32" d="m89.15571,106.1691c0,0 -1.26798,-6.9739 1.64838,-12.10923c0,0 1.20458,0.0634 0.57059,2.09217c-0.63399,1.96537 -0.69739,6.8471 0.317,7.92489c0.0634,0 -0.76079,2.66276 -2.53596,2.09217z"/>
     <path stroke="null" id="XMLID_3_" class="st33" d="m95.43222,114.79138c0,0 -6.9105,-5.57912 -6.21311,-9.00267c0.63399,-3.42355 0.2536,-6.46671 4.88173,-9.06607c0,0 0.57059,1.52158 -1.58498,3.48695c0,0 -1.77518,2.09217 0.0634,5.89612c0,0 3.29675,1.14118 4.50134,4.69153c0.0634,0 0.0634,3.29675 -1.64838,3.99414z"/>
     <path stroke="null" id="XMLID_2_" class="st55" d="m132.20371,84.10621c0,0 -6.27651,-0.1268 -10.90465,15.46938c-4.62814,15.65958 -6.33991,15.40598 -6.33991,15.40598s-1.26798,-1.20458 -1.58498,-0.317c0,0 -1.90197,-2.66276 -4.56474,-0.88759l-2.78956,6.53011c0,0 6.9739,5.13533 11.03145,3.93075l8.62228,-13.50401l6.53011,-26.62763z"/>
     <polygon stroke="null" id="XMLID_1_" class="st55" points="108.99963331222534,113.65019178390503 103.67409467697144,112.00182294845581 101.51855421066284,118.0881495475769 106.21006727218628,120.37049055099487 "/>
    </g>
    <g stroke="null" id="phone">
     <g stroke="null" id="svg_336">
      <path stroke="null" class="st42" d="m124.02522,153.27464l1.14118,-0.44379c2.21897,-0.88759 3.29675,-3.42355 2.40917,-5.64252l-7.92489,-19.71712c-0.88759,-2.21897 -3.42355,-3.29675 -5.64252,-2.40917l-1.14118,0.44379c-2.21897,0.88759 -3.29675,3.42355 -2.40917,5.64252l7.92489,19.71712c0.88759,2.21897 3.42355,3.29675 5.64252,2.40917z" id="svg_337"/>
      <path stroke="null" class="st40" d="m125.99059,152.51385l1.14118,-0.44379c2.21897,-0.88759 3.29675,-3.42355 2.40917,-5.64252l-7.92489,-19.71712c-0.88759,-2.21897 -3.42355,-3.29675 -5.64252,-2.40917l-1.14118,0.44379c-2.21897,0.88759 -3.29675,3.42355 -2.40917,5.64252l7.92489,19.71712c0.88759,2.21897 3.42355,3.29675 5.64252,2.40917z" id="svg_338"/>
     </g>
     <rect stroke="null" x="1227.79814" y="377.04253" transform="matrix(-0.592338 0.226081 -0.226081 -0.592338 941.376 93.5496)" class="st37" width="12.9" height="39" id="svg_339"/>
     <path stroke="null" class="st43" d="m118.95329,140.21443l2.66276,-1.07778c0.63399,-0.2536 0.88759,-0.95099 0.63399,-1.52158l-0.1268,-0.317c-0.2536,-0.63399 -0.95099,-0.88759 -1.52158,-0.63399l-2.66276,1.07778c-0.63399,0.2536 -0.88759,0.95099 -0.63399,1.52158l0.1268,0.317c0.1902,0.57059 0.88759,0.88759 1.52158,0.63399z" id="svg_340"/>
     <path stroke="null" class="st44" d="m118.6363,132.79673l2.72616,-1.07778c0.63399,-0.2536 0.88759,-0.95099 0.63399,-1.52158l-0.1268,-0.317c-0.2536,-0.63399 -0.95099,-0.88759 -1.52158,-0.63399l-2.72616,1.07778c-0.63399,0.2536 -0.88759,0.95099 -0.63399,1.52158l0.1268,0.317c0.1902,0.57059 0.88759,0.88759 1.52158,0.63399z" id="svg_341"/>
     <path stroke="null" class="st44" d="m123.51803,145.66675l2.72616,-1.07778c0.63399,-0.2536 0.88759,-0.95099 0.63399,-1.52158l-0.1268,-0.317c-0.2536,-0.63399 -0.95099,-0.88759 -1.52158,-0.63399l-2.72616,1.07778c-0.63399,0.2536 -0.88759,0.95099 -0.63399,1.52158l0.1268,0.317c0.1902,0.57059 0.88759,0.82419 1.52158,0.63399z" id="svg_342"/>
    </g>
    <g stroke="null" id="phone-2">
     <g stroke="null" id="svg_343">
      <path stroke="null" class="st42" d="m98.03159,110.79724l1.14118,-0.44379c2.21897,-0.88759 3.29675,-3.42355 2.40917,-5.64252l-7.92489,-19.71712c-0.88759,-2.21897 -3.42355,-3.29675 -5.64252,-2.40917l-1.14118,0.44379c-2.21897,0.88759 -3.29675,3.42355 -2.40917,5.64252l7.92489,19.71712c0.88759,2.21897 3.42355,3.29675 5.64252,2.40917z" id="svg_344"/>
      <path stroke="null" class="st40" d="m99.99696,110.03645l1.14118,-0.44379c2.21897,-0.88759 3.29675,-3.42355 2.40917,-5.64252l-7.92489,-19.71712c-0.88759,-2.21897 -3.42355,-3.29675 -5.64252,-2.40917l-1.14118,0.44379c-2.21897,0.88759 -3.29675,3.42355 -2.40917,5.64252l7.92489,19.71712c0.88759,2.21897 3.42355,3.29675 5.64252,2.40917z" id="svg_345"/>
     </g>
     <rect stroke="null" x="130.50186" y="-47.44253" transform="matrix(0.592338 -0.226081 0.226081 0.592338 19.8615 142.781)" class="st37" width="12.9" height="39" id="svg_346"/>
     <path stroke="null" class="st43" d="m92.95966,97.73702l2.66276,-1.07778c0.63399,-0.2536 0.88759,-0.95099 0.63399,-1.52158l-0.1268,-0.317c-0.2536,-0.63399 -0.95099,-0.88759 -1.52158,-0.63399l-2.66276,1.07778c-0.63399,0.2536 -0.88759,0.95099 -0.63399,1.52158l0.1268,0.317c0.1902,0.57059 0.88759,0.88759 1.52158,0.63399z" id="svg_347"/>
     <path stroke="null" class="st37" d="m92.64266,90.31932l2.72616,-1.07778c0.63399,-0.2536 0.88759,-0.95099 0.63399,-1.52158l-0.1268,-0.317c-0.2536,-0.63399 -0.95099,-0.88759 -1.52158,-0.63399l-2.72616,1.07778c-0.63399,0.2536 -0.88759,0.95099 -0.63399,1.52158l0.1268,0.317c0.1902,0.57059 0.88759,0.88759 1.52158,0.63399z" id="svg_348"/>
     <path stroke="null" class="st44" d="m97.52439,103.18934l2.72616,-1.07778c0.63399,-0.2536 0.88759,-0.95099 0.63399,-1.52158l-0.1268,-0.317c-0.2536,-0.63399 -0.95099,-0.88759 -1.52158,-0.63399l-2.72616,1.07778c-0.63399,0.2536 -0.88759,0.95099 -0.63399,1.52158l0.1268,0.317c0.1902,0.57059 0.88759,0.82419 1.52158,0.63399z" id="svg_349"/>
    </g>
    <path stroke="null" id="XMLID_23_" class="st33" d="m133.91548,92.98209l8.81248,-10.33406c0.2536,0 0.44379,-0.2536 0.44379,-0.50719l-1.26798,-16.42037c0,-0.2536 -0.2536,-0.44379 -0.50719,-0.44379l-8.36868,0.63399c-0.2536,0 -0.44379,0.2536 -0.44379,0.50719l1.26798,16.42037c0,0.317 -0.1902,10.20726 0.0634,10.14386z"/>
    <g stroke="null" id="svg_350">
     <path stroke="null" id="XMLID_22_" class="st56" d="m136.83184,82.39443l-1.96537,6.53011l-0.95099,-6.78371l-3.67715,-2.59936c0,0 -3.80395,0.1268 -6.08631,2.66276c0,0 -5.32553,12.17263 -3.23335,18.63934c2.09217,6.53011 -2.02877,14.5818 -3.36015,25.42304c-1.26798,10.52425 -0.95099,13.50401 -0.95099,13.50401s5.57912,2.02877 14.2648,3.04316l2.53596,-6.53011l2.78956,6.53011c0,0 10.52425,-0.0634 16.48377,-3.61375c0,0 -3.42355,-15.46938 -2.09217,-24.97925c1.33138,-9.50987 6.59351,-22.50669 1.58498,-34.67932c0,0 -6.46671,0.1902 -9.00267,-0.69739l-6.33991,3.55035z"/>
     <polygon stroke="null" id="XMLID_21_" class="st50" points="143.17175245285034,76.56172132492065 135.56382703781128,82.64802503585815 138.5435938835144,86.76896619796753 144.1227412223816,79.16107892990112 "/>
     <polygon stroke="null" id="XMLID_20_" class="st50" points="133.53512525558472,76.81531476974487 135.75407361984253,82.64802503585815 133.53512525558472,86.51536512374878 131.95010328292847,79.35127210617065 "/>
    </g>
    <path stroke="null" id="XMLID_19_" class="st47" d="m119.52389,134.19151c0,0 -6.33991,38.92706 -17.30796,97.76143l7.1641,0.44379l23.07728,-76.90312l1.52158,35.12311c0,0 -4.69153,8.81248 -1.45818,41.46302l6.14971,0.317l9.57327,-85.6522c0,0 1.77518,-8.17849 -1.83857,-12.55302c0,0 -16.67397,3.48695 -26.88122,0z"/>
    <g stroke="null" id="left-arm">
     <path stroke="null" class="st33" d="m150.71625,131.40195l-2.66276,-4.88173l7.67129,-6.59351l4.43794,3.80395c-5.00853,4.12094 -9.44647,7.67129 -9.44647,7.67129z" id="svg_351"/>
     <path stroke="null" class="st55" d="m163.96666,120.5607c-1.26798,1.07778 -2.53596,2.15557 -3.80395,3.16996l-4.43794,-3.80395l4.43794,-3.80395l3.80395,4.43794z" id="svg_352"/>
     <path stroke="null" class="st55" d="m166.56603,110.67044l-6.33991,5.45232l-0.1268,-0.1268c0.1268,-3.74055 3.29675,-5.07193 3.29675,-5.07193c-0.50719,-1.39478 1.52158,-1.45818 1.52158,-1.45818l-17.49816,-21.87269l0.1902,-1.26798l18.95633,24.34526z" id="svg_353"/>
     <path stroke="null" class="st56" d="m155.21759,81.63365c0.317,0.44379 0.69739,0.95099 1.01439,1.45818c0.1902,0.317 0.38039,0.57059 0.63399,0.88759c1.52158,2.15557 3.29675,4.81833 5.07193,7.54449c5.95952,9.06607 12.42623,19.40013 12.42623,19.40013c-3.04316,6.33991 -10.08046,9.95366 -10.08046,9.95366l-0.317,-0.38039c5.07193,-4.24774 9.63667,-8.24188 9.82686,-9.06607c0.38039,-1.77518 -21.04851,-31.63616 -21.04851,-31.63616l-5.45232,5.70592l3.36015,-7.86149c0.63399,0.1902 2.40917,1.20458 2.40917,1.20458c0.57059,0.63399 1.33138,1.58498 2.15557,2.78956z" id="svg_354"/>
     <path stroke="null" class="st55" d="m173.79353,111.49463c-0.1902,0.76079 -4.75493,4.81833 -9.82686,9.06607l-3.80395,-4.43794l6.33991,-5.45232l-16.03998,-19.40013c-0.1902,-0.1268 -3.61375,-2.72616 -3.16996,-6.78371c0.2536,-2.59936 1.96537,-4.18434 2.47257,-4.62814c0.95099,0 1.96537,0 2.91636,0.0634c0.0634,-0.0634 21.4923,29.79758 21.1119,31.57276z" id="svg_355"/>
     <path stroke="null" id="XMLID_215_" class="st33" d="m140.0018,130.19737c0,0 -2.40917,3.99414 -2.21897,7.2909c0,0 1.96537,0.317 2.53596,-1.45818c0,0 1.20458,1.20458 2.40917,-1.14118c1.20458,-2.34577 8.24188,-2.28237 7.86149,-3.04316l-3.48695,-2.59936l-7.1007,0.95099z"/>
     <g stroke="null" id="svg_356">
      <path stroke="null" class="st33" d="m139.11421,128.92938c2.34577,-1.39478 8.49548,-2.59936 9.44647,-2.72616c0.0634,0 0.1902,0 0.2536,0l4.94513,2.09217c0.2536,0.1268 0.317,0.44379 0.1268,0.69739c-0.1268,0.1902 -0.38039,0.38039 -0.57059,0.63399c0,0 0,0 0,0l-2.59936,2.34577c-0.1268,0.1268 -0.2536,0.1268 -0.38039,0.1268l-1.77518,-0.44379c-0.0634,0 -0.0634,-0.0634 -0.1268,-0.0634c-0.1902,-0.1902 -1.14118,-0.50719 -1.39478,-0.69739c-0.0634,-0.0634 -0.0634,-0.0634 -0.1268,-0.0634c-0.76079,-0.1902 -5.64252,-1.39478 -7.3543,2.09217c-1.26798,2.59936 -2.59936,3.04316 -3.29675,3.10656c-0.2536,0 -0.50719,-0.2536 -0.44379,-0.50719c0.1902,-1.39478 1.14118,-5.32553 3.29675,-6.59351z" id="svg_357"/>
     </g>
    </g>
    <g stroke="null" id="left-arm-1">
     <path stroke="null" class="st33" d="m110.26761,116.50316l2.47257,-5.00853l9.82686,2.47257l-0.57059,5.83272c-6.27651,-1.77518 -11.72884,-3.29675 -11.72884,-3.29675z" id="svg_358"/>
     <path stroke="null" class="st55" d="m126.75138,121.06789c-1.58498,-0.44379 -3.23335,-0.82419 -4.75493,-1.26798l0.57059,-5.83272l5.64252,1.45818l-1.45818,5.64252z" id="svg_359"/>
     <path stroke="null" class="st55" d="m136.32465,117.45414l-8.11509,-2.02877l0,-0.1902c3.10656,-2.02877 6.02292,-0.2536 6.02292,-0.2536c0.82419,-1.20458 2.09217,0.38039 2.09217,0.38039l7.79809,-26.88122l1.14118,-0.57059l-8.93928,29.54399z" id="svg_360"/>
     <path stroke="null" class="st56" d="m153.50581,91.46051c-0.1902,0.50719 -0.38039,1.14118 -0.63399,1.64838c-0.1268,0.317 -0.2536,0.63399 -0.38039,1.01439c-0.88759,2.47257 -2.02877,5.45232 -3.23335,8.49548c-3.99414,10.08046 -8.68568,21.3655 -8.68568,21.3655c-6.9105,1.14118 -13.9478,-2.47257 -13.9478,-2.47257l0.1268,-0.50719c6.40331,1.71178 12.29943,3.10656 13.06022,2.78956c1.64838,-0.69739 13.69421,-35.4401 13.69421,-35.4401l-7.79809,-1.14118l8.36868,-1.77518c0.1902,0.63399 0.38039,2.66276 0.38039,2.66276c-0.0634,0.82419 -0.44379,1.96537 -0.95099,3.36015z" id="svg_361"/>
     <path stroke="null" class="st55" d="m139.875,123.85746c-0.76079,0.2536 -6.65691,-1.07778 -13.06022,-2.78956l1.45818,-5.64252l8.11509,2.02877l6.59351,-24.28186c0,-0.2536 0.1268,-4.50134 3.74055,-6.53011c2.28237,-1.26798 4.56474,-0.82419 5.19873,-0.63399c0.57059,0.76079 1.14118,1.58498 1.64838,2.40917c0,0 -12.04583,34.74271 -13.69421,35.4401z" id="svg_362"/>
     <path stroke="null" id="XMLID_33_" class="st33" d="m105.06889,107.05669c0,0 -4.62814,0.317 -7.2275,2.40917c0,0 0.88759,1.77518 2.66276,1.20458c0,0 -0.317,1.64838 2.34577,1.33138c2.59936,-0.38039 6.59351,5.38892 7.0373,4.69153l0.1268,-4.37454l-4.94513,-5.26213z"/>
     <g stroke="null" id="svg_363">
      <path stroke="null" class="st33" d="m105.57608,105.59851c2.47257,1.14118 7.0373,5.45232 7.67129,6.14971c0.0634,0.0634 0.1268,0.1268 0.1268,0.1902l1.14118,5.26213c0.0634,0.2536 -0.1902,0.50719 -0.50719,0.50719c-0.2536,0 -0.50719,-0.0634 -0.82419,-0.1268l0,0l-3.42355,-0.76079c-0.1902,0 -0.2536,-0.1268 -0.317,-0.2536l-0.63399,-1.71178c-0.0634,-0.0634 0,-0.0634 0,-0.1268c0.0634,-0.2536 -0.2536,-1.20458 -0.2536,-1.52158c0,-0.0634 0,-0.0634 0,-0.1268c-0.2536,-0.76079 -2.09217,-5.38892 -5.95952,-4.81833c-2.85296,0.44379 -3.99414,-0.38039 -4.43794,-0.88759c-0.1268,-0.1902 -0.0634,-0.57059 0.1902,-0.63399c1.20458,-0.69739 5.00853,-2.21897 7.2275,-1.14118z" id="svg_364"/>
     </g>
    </g>
    <g stroke="null" id="left-arm-2">
     <path stroke="null" class="st33" d="m102.40612,100.78018l3.99414,-3.86735l8.36868,5.64252l-2.47257,5.26213c-5.26213,-3.67715 -9.89026,-7.0373 -9.89026,-7.0373z" id="svg_365"/>
     <path stroke="null" class="st55" d="m116.35393,110.67044c-1.39478,-0.95099 -2.72616,-1.90197 -4.05754,-2.85296l2.47257,-5.26213l4.81833,3.29675l-3.23335,4.81833z" id="svg_366"/>
     <path stroke="null" class="st55" d="m126.62459,110.60704l-6.9105,-4.69153l0.0634,-0.1268c3.61375,-0.88759 5.76932,1.83857 5.76932,1.83857c1.20458,-0.88759 1.83857,1.07778 1.83857,1.07778l16.48377,-22.63348l1.26798,-0.1268l-18.51254,24.66226z" id="svg_367"/>
     <path stroke="null" class="st56" d="m151.60384,91.9677c-0.317,0.44379 -0.76079,0.95099 -1.14118,1.39478c-0.2536,0.2536 -0.44379,0.50719 -0.69739,0.82419c-1.64838,2.02877 -3.80395,4.43794 -5.95952,6.9105c-7.1641,8.11509 -15.40598,17.11776 -15.40598,17.11776c-6.9105,-1.26798 -12.23603,-7.1007 -12.23603,-7.1007l0.2536,-0.38039c5.45232,3.74055 10.52425,7.1007 11.34844,7.1007c1.83857,-0.1268 24.97925,-28.6564 24.97925,-28.6564l-6.9739,-3.74055l8.49548,1.14118c0,0.63399 -0.50719,2.66276 -0.50719,2.66276c-0.50719,0.63399 -1.20458,1.64838 -2.15557,2.72616z" id="svg_368"/>
     <path stroke="null" class="st55" d="m127.70237,117.77114c-0.76079,0 -5.89612,-3.29675 -11.34844,-7.1007l3.29675,-4.81833l6.9105,4.69153l14.455,-20.60471c0.0634,-0.1902 1.64838,-4.18434 5.70592,-4.81833c2.59936,-0.44379 4.56474,0.76079 5.13533,1.14118c0.2536,0.88759 0.50719,1.90197 0.69739,2.85296c0.1268,0 -23.01388,28.593 -24.85245,28.6564z" id="svg_369"/>
     <path stroke="null" id="XMLID_34_" class="st33" d="m100.75775,90.12913c0,0 -4.50134,-1.26798 -7.60789,-0.1902c0,0 0.1902,1.96537 2.09217,2.09217c0,0 -0.82419,1.45818 1.71178,2.02877c2.59936,0.57059 4.37454,7.3543 5.00853,6.78371l1.58498,-4.05754l-2.78956,-6.65691z"/>
     <g stroke="null" id="svg_370">
      <path stroke="null" class="st33" d="m101.77213,88.92454c1.96537,1.90197 4.75493,7.4811 5.13533,8.36868c0,0.0634 0.0634,0.1902 0.0634,0.2536l-0.69739,5.32553c-0.0634,0.2536 -0.317,0.44379 -0.63399,0.317c-0.1902,-0.0634 -0.44379,-0.2536 -0.76079,-0.38039l0,0l-2.97976,-1.90197c-0.1268,-0.0634 -0.1902,-0.1902 -0.2536,-0.317l-0.0634,-1.83857c0,-0.0634 0.0634,-0.0634 0,-0.1268c0.1268,-0.2536 0.1902,-1.20458 0.317,-1.52158c0.0634,-0.0634 0.0634,-0.0634 0,-0.1268c0,-0.76079 -0.1268,-5.83272 -3.93075,-6.53011c-2.85296,-0.50719 -3.61375,-1.71178 -3.86735,-2.34577c-0.0634,-0.2536 0.1268,-0.57059 0.38039,-0.57059c1.45818,-0.2536 5.45232,-0.317 7.2909,1.39478z" id="svg_371"/>
     </g>
    </g>
    <g stroke="null" id="head">
     <path stroke="null" id="XMLID_18_" class="st32" d="m116.29053,57.47858l0,0c2.59936,-0.2536 4.56474,-2.66276 4.31114,-5.26213l-0.63399,-5.64252c-0.2536,-2.59936 -2.66276,-4.56474 -5.26213,-4.31114l0,0c-2.59936,0.2536 -4.56474,2.66276 -4.31114,5.26213l0.57059,5.64252c0.317,2.66276 2.66276,4.62814 5.32553,4.31114z"/>
     <path stroke="null" id="XMLID_17_" class="st32" d="m137.21224,77.8297l0,0c2.85296,0 5.19873,-2.34577 5.19873,-5.19873l0,-3.36015c0,-2.85296 -2.34577,-5.19873 -5.19873,-5.19873l0,0c-2.85296,0 -5.19873,2.34577 -5.19873,5.19873l0,3.36015c0,2.85296 2.34577,5.19873 5.19873,5.19873z"/>
     <path stroke="null" id="XMLID_16_" class="st33" d="m156.16857,56.4642l-0.82419,-27.13482c-0.317,-9.70006 -8.49548,-17.37136 -18.19555,-17.05436l-8.11509,0.2536c-9.70006,0.2536 -17.37136,8.49548 -17.11776,18.19555l0.76079,24.28186c0.1902,5.51572 6.08631,21.2387 18.57594,21.3655c12.93342,0.1268 25.04265,-14.96219 24.91585,-19.90732z"/>
     <path stroke="null" id="XMLID_15_" class="st32" d="m127.76577,53.23084c0,0 -3.86735,3.99414 1.58498,4.56474c0,0 -7.54449,0.2536 -1.58498,-4.56474z"/>
     <g stroke="null" id="XMLID_12_">
      <path stroke="null" id="XMLID_14_" class="st33" d="m155.97838,57.09819l0,0c2.66276,-0.1902 4.62814,-2.47257 4.43794,-5.13533l-0.38039,-5.64252c-0.1902,-2.66276 -2.47257,-4.62814 -5.13533,-4.43794l0,0c-2.66276,0.1902 -4.62814,2.47257 -4.43794,5.13533l0.38039,5.64252c0.1902,2.59936 2.47257,4.62814 5.13533,4.43794z"/>
      <path stroke="null" id="XMLID_13_" class="st32" d="m153.37901,53.80143c0,0 -2.21897,-7.92489 1.64838,-9.44647c0,0 -1.58498,2.78956 -0.57059,4.69153c0,0 1.45818,0 1.64838,2.53596s-1.96537,3.16996 -2.72616,2.21897z"/>
     </g>
     <path stroke="null" class="st57" d="m146.46851,31.99214l1.83857,5.26213l2.28237,-3.42355l0,10.20726l2.09217,-2.09217l1.64838,15.08899c0,0 3.86735,-13.82101 4.62814,-20.41451c0.76079,-6.59351 -1.58498,-27.00802 -21.1753,-28.14921c-19.59033,-1.14118 -32.58714,12.48963 -29.98778,30.05118c2.59936,17.56155 4.81833,16.35697 4.81833,16.35697l1.58498,-19.97072l3.16996,5.45232l6.46671,-6.9739l3.55035,7.73469l9.38307,-8.43208l3.42355,6.72031l6.27651,-7.4177z" id="svg_372"/>
     <path stroke="null" id="XMLID_11_" class="st32" d="m124.84941,65.27667c0,0 5.32553,1.26798 9.70006,-1.45818c0,0 -3.29675,4.75493 -9.70006,1.45818z"/>
     <g stroke="null" id="eyes">
      <path stroke="null" id="XMLID_10_" class="st39" d="m138.22662,52.78705l0,0c0.76079,0 1.39478,-0.63399 1.39478,-1.39478l0,-1.83857c0,-0.76079 -0.63399,-1.39478 -1.39478,-1.39478l0,0c-0.76079,0 -1.39478,0.63399 -1.39478,1.39478l0,1.83857c0,0.76079 0.63399,1.39478 1.39478,1.39478z"/>
      <path stroke="null" id="XMLID_9_" class="st39" d="m119.01669,53.04065l0,0c0.76079,0 1.39478,-0.63399 1.39478,-1.39478l0,-1.83857c0,-0.76079 -0.63399,-1.39478 -1.39478,-1.39478l0,0c-0.76079,0 -1.39478,0.63399 -1.39478,1.39478l0,1.83857c0,0.76079 0.63399,1.39478 1.39478,1.39478z"/>
     </g>
     <g stroke="null" id="eyes-closed">
      <path stroke="null" id="XMLID_83_" class="st39" d="m138.22662,51.13867l0,0c0.76079,0 1.39478,-0.1902 1.39478,-0.38039l0,-0.50719c0,-0.1902 -0.63399,-0.38039 -1.39478,-0.38039l0,0c-0.76079,0 -1.39478,0.1902 -1.39478,0.38039l0,0.50719c0,0.2536 0.63399,0.38039 1.39478,0.38039z"/>
      <path stroke="null" id="XMLID_31_" class="st39" d="m119.01669,51.20207l0,0c0.76079,0 1.39478,-0.1902 1.39478,-0.38039l0,-0.50719c0,-0.1902 -0.63399,-0.38039 -1.39478,-0.38039l0,0c-0.76079,0 -1.39478,0.1902 -1.39478,0.38039l0,0.50719c0,0.2536 0.63399,0.38039 1.39478,0.38039z"/>
     </g>
     <path stroke="null" id="XMLID_8_" class="st58" d="m132.9645,43.08698c0,0 5.26213,-3.93075 11.72884,0.1902l0.57059,-2.09217c0,0 -6.21311,-4.37454 -12.87002,0.38039l0.57059,1.52158z"/>
     <path stroke="null" id="XMLID_6_" class="st58" d="m121.86965,42.76999c0,0 -4.12094,-3.61375 -8.62228,0.82419l-0.57059,-2.09217c0,0 4.31114,-4.75493 9.50987,-0.317l-0.317,1.58498z"/>
    </g>
   </g>
  </g>
 </g>
</svg>