<?xml version="1.0" encoding="UTF-8"?>
<!DOCTYPE svg PUBLIC "-//W3C//DTD SVG 1.1//EN" "http://www.w3.org/Graphics/SVG/1.1/DTD/svg11.dtd">
<!-- Creator: CorelDRAW X6 -->
<svg xmlns="http://www.w3.org/2000/svg" xml:space="preserve" width="5.91885in" height="9.36016in" version="1.1" style="shape-rendering:geometricPrecision; text-rendering:geometricPrecision; image-rendering:optimizeQuality; fill-rule:evenodd; clip-rule:evenodd"
viewBox="0 0 735 1163"
 xmlns:xlink="http://www.w3.org/1999/xlink">
 <defs>
  <style type="text/css">
   <![CDATA[
    .str0 {stroke:#373435;stroke-width:0.862579}
    .str2 {stroke:black;stroke-width:0.97798}
    .str1 {stroke:#727376;stroke-width:7.33485}
    .fil2 {fill:#373435}
    .fil13 {fill:#727376}
    .fil11 {fill:#96989A}
    .fil12 {fill:#D2D3D5}
    .fil14 {fill:#E6E7E8}
    .fil16 {fill:#FEFEFE}
    .fil7 {fill:black}
    .fil4 {fill:#100E11}
    .fil17 {fill:#303561}
    .fil3 {fill:#333333}
    .fil9 {fill:#632F1A}
    .fil10 {fill:#9C5A40}
    .fil8 {fill:#DE9564}
    .fil6 {fill:#FFBD91}
    .fil1 {fill:white}
    .fil5 {fill:#292829}
    .fil15 {fill:#302F30}
    .fil0 {fill:#54546E}
   ]]>
  </style>
 </defs>
 <rect class="fil0" x="-3487" y="1309" width="1056" height="1366"/>
 <path class="fil1" d="M437 364l-9 48c128,-22 183,-84 221,-221l-40 -6c-27,88 -55,133 -113,160 0,0 -11,4 -59,19z"/>
 <path class="fil2" d="M466 355c8,-3 14,-5 18,-6 2,6 3,13 5,20 2,9 4,17 5,25 -6,2 -12,4 -18,6 -2,-8 -5,-18 -7,-26 -2,-8 -3,-13 -4,-20z"/>
 <path class="fil2" d="M493 361c-1,-5 -2,-10 -3,-14 4,-1 5,-2 5,-2 5,-2 9,-3 14,-6 2,6 2,9 4,17 2,8 4,20 6,28 -6,3 -11,5 -17,8 -3,-9 -6,-20 -8,-31z"/>
 <path class="fil2 str0" d="M34 1011c115,0 231,0 347,0l0 0 3 0 3 0 0 0c116,0 232,0 347,0 0,56 -12,68 -46,93 -31,24 -142,55 -301,58l0 0c-1,0 -2,0 -3,0 -1,0 -2,0 -3,0l0 0c-159,-3 -269,-34 -301,-58 -34,-26 -46,-38 -46,-93z"/>
 <ellipse class="fil2 str1" cx="384" cy="1010" rx="347" ry="107"/>
 <path class="fil3" d="M364 667c-27,5 -27,253 -27,278l-35 -1c-5,-43 -17,-299 -17,-299 22,-8 133,-7 155,1 0,0 -12,256 -17,298l-35 1c0,-23 -1,-274 -23,-278z"/>
 <polygon class="fil4" points="330,348 324,440 342,442 347,493 364,520 363,524 365,522 365,522 365,522 381,495 386,444 405,442 399,350 399,345 394,343 374,422 364,457 364,473 364,455 352,419 335,342 329,342 "/>
 <path class="fil1" d="M282 364l9 48c-128,-22 -183,-84 -221,-221l40 -6c27,88 55,133 113,160 0,0 11,4 59,19z"/>
 <path class="fil5" d="M361 643c32,32 52,-3 78,5l0 -2 -26 -7 -29 5 -66 -29 -22 18 -11 10 0 4 0 3c32,6 43,18 76,-6z"/>
 <path class="fil1" d="M339 342c0,5 16,192 22,267 1,9 -23,25 -21,30 1,3 52,0 52,2 1,-8 -26,-19 -25,-32 8,-78 26,-234 24,-264 0,0 -47,-4 -51,-3z"/>
 <path class="fil2" d="M394 343c0,0 48,15 48,22 8,94 11,167 4,278l-7 3c-25,-9 -48,28 -77,-6l-2 0 0 -29c-6,-74 -21,-263 -22,-269 0,0 0,0 1,0l-4 0c0,0 -7,0 -18,4 -9,3 -21,8 -29,12 -2,1 -5,3 -8,6 -2,82 -15,189 0,282 12,0 45,22 82,-5l1 0 1 0 0 -9c7,-64 28,-253 26,-286 0,0 -17,-1 -31,-2l35 1z"/>
 <path class="fil6" d="M345 312l37 0 0 26c4,27 -37,38 -37,0l0 -26z"/>
 <path class="fil7" d="M337 943l-35 0c-25,25 -56,15 -57,20 -2,5 1,13 24,13 8,0 25,-1 25,-1 2,-1 18,-6 17,-5l0 4 25 0c4,-11 6,-19 1,-33z"/>
 <path class="fil7" d="M387 943l35 0c25,25 56,15 57,20 2,5 -1,13 -24,13 -8,0 -25,-1 -25,-1 -2,-1 -18,-6 -17,-5l0 4 -25 0c-4,-11 -6,-19 -1,-33z"/>
 <path class="fil7" d="M323 544l-4 -3c-2,7 -33,31 -41,32l3 5c12,-1 39,-23 42,-34z"/>
 <path class="fil7" d="M398 544l4 -3c2,7 33,31 41,32l-3 5c-12,-1 -39,-23 -42,-34z"/>
 <circle class="fil7 str2" cx="383" cy="505" r="4"/>
 <circle class="fil7 str2" cx="381" cy="539" r="4"/>
 <circle class="fil7 str2" cx="378" cy="573" r="4"/>
 <circle class="fil7 str2" cx="374" cy="608" r="4"/>
 <path class="fil6" d="M465 227c15,-8 39,-40 12,-54 -3,-1 -4,-1 -7,-1 0,2 0,3 0,3 0,0 0,31 -5,52z"/>
 <path class="fil8" d="M472 206c0,0 1,-7 5,-13 3,-7 6,-1 6,-1 0,0 -4,3 -5,6 -1,3 2,2 3,3 -1,-1 -8,5 -8,5z"/>
 <path class="fil6" d="M253 227c-15,-8 -39,-40 -12,-54 3,-1 4,-1 7,-1 0,2 0,3 0,3 0,0 0,31 5,52z"/>
 <path class="fil8" d="M247 205c0,0 -1,-7 -5,-13 -3,-7 -6,-1 -6,-1 0,0 4,3 5,6 1,3 -2,2 -3,3 1,-1 8,5 8,5z"/>
 <path class="fil8" d="M345 312l37 0 0 27c0,10 -36,8 -37,2l-1 -29z"/>
 <path class="fil6" d="M254 212c13,54 47,121 94,130 10,2 13,2 14,2 1,0 5,1 14,-2 52,-15 83,-83 94,-130 -1,-62 7,-70 -37,-120 -17,-20 -63,-22 -71,-23l0 0 -1 0 -1 0 0 0c-8,0 -54,3 -71,23 -44,50 -36,58 -37,120z"/>
 <path class="fil8" d="M279 133c42,23 115,27 183,1l-3 -6 -101 12 -90 -27 11 20z"/>
 <path class="fil8" d="M449 136c18,64 -1,147 -40,187 0,0 10,-9 19,-20 11,-14 27,-41 36,-71 8,-23 9,-28 9,-28l0 -41 -13 -60 -11 33z"/>
 <path class="fil9" d="M453 131c7,34 1,45 -3,78 0,0 10,-17 13,-20 3,-3 -3,23 0,32 2,10 10,28 13,37 3,10 1,-41 1,-41 1,-12 0,-25 4,-37 12,-41 12,-80 -4,-100 2,-3 4,-4 10,-10 -18,-2 -21,-1 -25,-1 -10,-20 -5,-27 -38,-52l15 27c-28,-25 -79,-57 -116,-31 -18,13 -43,-4 -58,-15 1,17 2,26 15,37 -24,-9 -29,-14 -44,-33 0,0 0,37 8,49 8,13 -19,-16 -19,-19 0,-2 -8,16 21,50 -14,-5 -21,-9 -28,-22 -2,26 -1,38 11,61 -1,3 -12,-8 -13,-10 -5,26 10,50 22,72 0,0 10,22 12,40 2,18 0,50 0,50 0,0 14,-43 16,-49 2,-5 3,-6 3,-6 0,0 12,9 16,13 1,1 -18,-21 -10,-79 3,-22 6,-22 6,-22 58,18 115,19 172,-2z"/>
 <path class="fil8" d="M410 187c15,0 27,6 27,14 0,8 -12,10 -27,10 -15,0 -27,-2 -27,-10 0,-8 12,-14 27,-14z"/>
 <path class="fil8" d="M421 188c-3,-1 -7,-1 -11,-1 -1,0 -2,0 -2,0 1,1 1,2 1,3 0,3 -3,6 -6,6 -2,0 -4,-1 -5,-3 0,1 0,1 0,2 0,7 6,13 13,13 7,0 13,-6 13,-13 0,-3 -1,-5 -2,-7z"/>
 <path class="fil8" d="M407 187c-3,0 -6,0 -8,1 -1,2 -2,3 -2,5 1,2 3,3 5,3 3,0 6,-3 6,-6 0,-1 0,-2 -1,-3z"/>
 <path class="fil8" d="M314 187c15,0 27,6 27,14 0,8 -12,10 -27,10 -15,0 -27,-2 -27,-10 0,-8 12,-14 27,-14z"/>
 <path class="fil8" d="M326 188c-3,-1 -7,-1 -11,-1 -1,0 -2,0 -2,0 1,1 1,2 1,3 0,3 -3,6 -6,6 -2,0 -4,-1 -5,-3 0,1 0,1 0,2 0,7 6,13 13,13 7,0 13,-6 13,-13 0,-3 -1,-5 -2,-7z"/>
 <path class="fil8" d="M312 187c-3,0 -6,0 -8,1 -1,2 -2,3 -2,5 1,2 3,3 5,3 3,0 6,-3 6,-6 0,-1 0,-2 -1,-3z"/>
 <path class="fil8" d="M410 184c15,0 27,6 27,14 0,8 -12,10 -27,10 -15,0 -27,-2 -27,-10 0,-8 12,-14 27,-14z"/>
 <path class="fil8" d="M421 186c-3,-1 -7,-1 -11,-1 -1,0 -2,0 -2,0 1,1 1,2 1,3 0,3 -3,6 -6,6 -2,0 -4,-1 -5,-3 0,1 0,1 0,2 0,7 6,13 13,13 7,0 13,-6 13,-13 0,-3 -1,-5 -2,-7z"/>
 <path class="fil8" d="M407 184c-3,0 -6,0 -8,1 -1,2 -2,3 -2,5 1,2 3,3 5,3 3,0 6,-3 6,-6 0,-1 0,-2 -1,-3z"/>
 <path class="fil8" d="M314 184c15,0 27,6 27,14 0,8 -12,10 -27,10 -15,0 -27,-2 -27,-10 0,-8 12,-14 27,-14z"/>
 <path class="fil8" d="M326 186c-3,-1 -7,-1 -11,-1 -1,0 -2,0 -2,0 1,1 1,2 1,3 0,3 -3,6 -6,6 -2,0 -4,-1 -5,-3 0,1 0,1 0,2 0,7 6,13 13,13 7,0 13,-6 13,-13 0,-3 -1,-5 -2,-7z"/>
 <path class="fil8" d="M312 184c-3,0 -6,0 -8,1 -1,2 -2,3 -2,5 1,2 3,3 5,3 3,0 6,-3 6,-6 0,-1 0,-2 -1,-3z"/>
 <path class="fil1" d="M410 186c15,0 27,6 27,14 0,8 -12,10 -27,10 -15,0 -27,-2 -27,-10 0,-8 12,-14 27,-14z"/>
 <path class="fil7" d="M421 187c-3,-1 -7,-1 -11,-1 -1,0 -2,0 -2,0 1,1 1,2 1,3 0,3 -3,6 -6,6 -2,0 -4,-1 -5,-3 0,1 0,1 0,2 0,7 6,13 13,13 7,0 13,-6 13,-13 0,-3 -1,-5 -2,-7z"/>
 <path class="fil1" d="M407 186c-3,0 -6,0 -8,1 -1,2 -2,3 -2,5 1,2 3,3 5,3 3,0 6,-3 6,-6 0,-1 0,-2 -1,-3z"/>
 <path class="fil1" d="M315 186c15,0 27,6 27,14 0,8 -12,10 -27,10 -15,0 -27,-2 -27,-10 0,-8 12,-14 27,-14z"/>
 <path class="fil7" d="M326 187c-3,-1 -7,-1 -11,-1 -1,0 -2,0 -2,0 1,1 1,2 1,3 0,3 -3,6 -6,6 -2,0 -4,-1 -5,-3 0,1 0,1 0,2 0,7 6,13 13,13 7,0 13,-6 13,-13 0,-3 -1,-5 -2,-7z"/>
 <path class="fil1" d="M312 186c-3,0 -6,0 -8,1 -1,2 -2,3 -2,5 1,2 3,3 5,3 3,0 6,-3 6,-6 0,-1 0,-2 -1,-3z"/>
 <path class="fil8" d="M377 249c-3,6 -9,9 -15,10l0 0 0 0 0 0 0 0c-6,-1 -12,-4 -15,-10 13,7 19,7 30,0z"/>
 <path class="fil8" d="M446 181c-25,-29 -74,-12 -63,2 4,5 16,-16 63,-2z"/>
 <path class="fil9" d="M444 179c-25,-29 -73,-11 -62,3 4,5 15,-17 62,-3z"/>
 <path class="fil8" d="M278 180c25,-29 74,-12 63,2 -4,5 -16,-16 -63,-2z"/>
 <path class="fil9" d="M280 179c25,-29 73,-11 62,3 -4,5 -15,-17 -62,-3z"/>
 <path class="fil8" d="M347 312c6,6 27,5 37,-3 1,-1 -19,24 -37,3z"/>
 <path class="fil10" d="M452 79c-75,-92 -99,-30 -154,-48 54,26 78,-20 154,48z"/>
 <path class="fil10" d="M454 90c-87,-74 -116,-27 -181,-41 63,21 91,-13 181,41z"/>
 <path class="fil10" d="M454 102c-92,-68 -127,-7 -198,-44 65,50 104,-5 198,44z"/>
 <path class="fil10" d="M458 111c-100,-55 -116,12 -197,-24 74,50 98,-12 197,24z"/>
 <path class="fil10" d="M450 114c-95,-17 -106,24 -181,-3 71,41 90,-1 181,3z"/>
 <path class="fil10" d="M450 120c-47,-2 -81,19 -122,13 37,15 79,-4 122,-13z"/>
 <path class="fil10" d="M480 160c2,-53 1,-59 -17,-79 24,16 24,39 17,79z"/>
 <path class="fil10" d="M473 183c1,-47 5,-69 -10,-92 21,19 15,47 10,92z"/>
 <path class="fil10" d="M465 183c-1,-43 7,-54 -4,-81 16,25 9,44 4,81z"/>
 <path class="fil2" d="M137 163l-1 -17c0,-5 -4,-8 -9,-8l-119 7c-5,0 -8,4 -8,9l1 17c0,5 4,8 9,8l119 -7c5,0 8,-4 8,-9z"/>
 <path class="fil11" d="M136 152l0 -6c0,-5 -6,-8 -12,-8l-113 6c-6,0 -11,4 -11,9l0 6c0,-5 5,-9 11,-9l113 -6c6,0 12,3 12,8z"/>
 <ellipse class="fil12" transform="matrix(-0.0309465 -0.545843 -0.545843 0.0309465 163.548 152.818)" rx="72" ry="70"/>
 <path class="fil13" d="M202 151c-1,-22 -19,-38 -40,-37 -21,1 -37,20 -36,41 0,1 0,2 0,4 1,-20 16,-37 36,-38 20,-1 37,14 40,33 0,-1 0,-2 0,-4z"/>
 <path class="fil6" d="M58 176c4,11 13,19 26,22 25,3 60,-16 31,-25l-57 3zm52 -37c-5,9 -4,14 -11,19 -13,9 -39,-8 -44,-16 19,-18 33,-20 55,-3z"/>
 <path class="fil14" d="M93 194c11,26 19,40 41,57 0,0 -12,-28 -16,-42 -5,-14 -6,-17 -6,-17l-20 2z"/>
 <path class="fil14" d="M625 194c-11,26 -19,40 -41,57 0,0 12,-28 16,-42 5,-14 6,-17 6,-17l20 2z"/>
 <path class="fil6" d="M605 169c1,-8 3,-20 5,-35 2,-11 14,-71 17,12 0,4 4,-1 10,-2 9,-1 12,10 14,4 19,-55 18,-23 9,12 -2,9 -2,25 -8,31 -23,19 -72,-4 -69,-17 1,-4 10,-5 21,-6z"/>
 <polygon class="fil15" points="420,387 421,388 400,411 396,406 416,386 "/>
 <polygon class="fil15" points="424,423 426,424 379,494 379,488 "/>
 <path class="fil7" d="M390 360l30 27 -21 22 24 14c-15,23 -30,46 -45,69 2,-25 8,-88 11,-132z"/>
 <polygon class="fil15" points="309,387 308,388 330,411 334,406 313,386 "/>
 <polygon class="fil15" points="306,423 304,424 351,494 351,488 "/>
 <path class="fil7" d="M340 360l-30 27 21 22 -24 14c15,23 30,46 45,69 -2,-25 -8,-88 -11,-132z"/>
 <polygon class="fil2" points="362,375 362,402 346,402 353,404 344,405 354,406 362,406 362,413 365,411 366,417 367,411 367,406 383,407 379,405 386,403 367,403 366,375 364,371 "/>
 <path class="fil2" d="M252 355c-8,-3 -14,-5 -18,-6 -2,6 -3,13 -5,20 -2,9 -4,17 -5,25 6,2 12,4 18,6 2,-8 5,-18 7,-26 2,-8 3,-13 4,-20z"/>
 <path class="fil2" d="M225 361c1,-5 2,-10 3,-14 -4,-1 -5,-2 -5,-2 -5,-2 -9,-3 -14,-6 -2,6 -2,9 -4,17 -2,8 -4,20 -6,28 6,3 11,5 17,8 3,-9 6,-20 8,-31z"/>
 <path class="fil16" d="M363 283c17,0 30,-4 30,3 0,7 -14,13 -30,13 -17,0 -30,-6 -30,-13 0,-7 14,-3 31,-3z"/>
 <path class="fil17" d="M518 312l0 0c9,0 16,7 16,16l2 708c0,9 -7,16 -16,16l0 0c-9,0 -16,-7 -16,-16l-2 -708c0,-9 7,-16 16,-16z"/>
 <path class="fil17" d="M522 884l0 0c5,6 5,15 -1,20l-137 129c-6,5 -15,5 -20,-1l0 0c-5,-6 -5,-15 1,-20l137 -129c6,-5 15,-5 20,1z"/>
 <path class="fil17" d="M516 884l0 0c-5,6 -5,15 1,20l137 128c6,5 15,5 20,-1l0 0c5,-6 5,-15 -1,-20l-137 -128c-6,-5 -15,-5 -20,1z"/>
 <rect class="fil2" x="494" y="580" width="52" height="73" rx="13" ry="13"/>
 <rect class="fil2" x="500" y="310" width="38" height="18" rx="7" ry="7"/>
 <path class="fil2 str0" d="M531 278c2,3 3,8 3,12 0,5 -1,16 -4,20 -3,4 -8,1 -12,1 -5,0 -9,3 -12,-1 -3,-4 -4,-14 -4,-20 0,-5 2,-10 4,-14 0,1 0,2 0,3 0,12 5,22 12,22 7,0 12,-10 12,-22 0,0 0,-1 0,-1z"/>
</svg>
