<?xml version="1.0" encoding="utf-8"?>
<!-- Generator: Adobe Illustrator 16.0.0, SVG Export Plug-In . SVG Version: 6.00 Build 0)  -->
<!DOCTYPE svg PUBLIC "-//W3C//DTD SVG 1.1//EN" "http://www.w3.org/Graphics/SVG/1.1/DTD/svg11.dtd">
<svg version="1.1" id="Layer_1" xmlns="http://www.w3.org/2000/svg" xmlns:xlink="http://www.w3.org/1999/xlink" x="0px" y="0px"
	 width="50px" height="50px" viewBox="0 0 50 50" enable-background="new 0 0 50 50" xml:space="preserve">
<g>
	<g>
		<path fill-rule="evenodd" clip-rule="evenodd" fill="#EBF3F5" d="M35.799,40.096l-7.119-4.051
			c-0.775-0.357-1.885-0.639-2.677-0.227c-0.721,0.375-4.765,2.857-5.29,3.156c-0.398,0.227-1.781,1.055-0.92,1.523
			c2.535,1.379,5.042,2.928,7.617,4.328c0.486,0.266,1.197,0.361,1.947,0.299c0.744-0.061,1.506-0.279,2.105-0.627
			c0.43-0.25,3.709-2.211,4.121-2.449c0.559-0.326,0.854-0.709,0.883-1.066C36.496,40.637,36.273,40.314,35.799,40.096z"/>
		<g>
			<g>
				<path fill-rule="evenodd" clip-rule="evenodd" fill="#0C0D12" d="M34.625,36.682l-0.141-0.699l-1.559-7.221
					c-0.389-1.482-0.729-1.592-2.26-0.729c-0.113,0.066-0.205,0.223-0.205,0.354c-0.002,0.133,0.09,0.188,0.205,0.123
					c1.389-0.783,1.529-0.654,1.859,0.596c1.049,4.863,0.902,7.439,0.82,9.182c-0.109,2.209,1.314,1.916-4.025,5
					c-0.115,0.064-0.207,0.225-0.205,0.355c0,0.086,0.039,0.139,0.102,0.145h0.023c0.025,0,0.053-0.01,0.082-0.027l3.4-1.959
					c0.783-0.463,1.355-1.055,1.703-1.76C35,38.871,34.834,37.629,34.625,36.682z"/>
				<path fill-rule="evenodd" clip-rule="evenodd" fill="#161821" d="M29.32,43.287l-3.914-2.662l-3.242-1.494
					c-0.113,0.059-0.206,0.229-0.206,0.357c0,0.064,0.023,0.111,0.06,0.131l7.156,4.156C29.139,43.752,29.27,43.316,29.32,43.287z"
					/>
				<polygon fill-rule="evenodd" clip-rule="evenodd" fill="#242736" points="25.563,37.172 22.164,39.131 29.404,43.35 
					32.719,41.328 27.904,36.992 				"/>
				<path fill-rule="evenodd" clip-rule="evenodd" fill="#242736" d="M34.082,36.313l-2.533-1.668l-4.633-2.406
					c0.178,0.883,0.412,1.771,0.295,2.678l4.084,2.414l3.08,1.66C34.49,38.084,34.258,37.195,34.082,36.313z"/>
				<path fill-rule="evenodd" clip-rule="evenodd" fill="#0C0D12" d="M32.051,28.07l-5.793-3.365
					c0.21,0.123,0.321,0.461,0.473,1.035l5.074,3.057l0.721,0.309C32.373,28.533,32.262,28.193,32.051,28.07z"/>
				<path fill-rule="evenodd" clip-rule="evenodd" fill="#242736" d="M27.219,34.836c-0.135,1.064-0.725,1.787-1.656,2.336
					l7.156,4.156c0.93-0.498,1.611-1.563,1.656-2.338L27.219,34.836z"/>
				<polygon fill-rule="evenodd" clip-rule="evenodd" fill="#242736" points="32.525,29.105 25.36,25.032 26.916,32.238 
					34.082,36.313 				"/>
				<path fill-rule="evenodd" clip-rule="evenodd" fill="#0C0D12" d="M32.328,27.564l-5.793-3.368c-0.003,0-0.004-0.002-0.006-0.003
					c-0.297-0.173-0.734,0.011-1.009,0.137c-0.222,0.101-0.436,0.217-0.647,0.337l5.793,3.366
					C30.957,27.869,31.941,27.326,32.328,27.564z"/>
				<path fill-rule="evenodd" clip-rule="evenodd" fill="#0C0D12" d="M30.666,28.033l-5.793-3.366
					c-0.116,0.071-0.205,0.218-0.207,0.354c-0.001,0.067,0.022,0.113,0.06,0.135l5.795,3.368
					C30.404,28.432,30.539,28.111,30.666,28.033z"/>
			</g>
			<g>
				<g>
					<g>
						<polygon fill-rule="evenodd" clip-rule="evenodd" fill="#161821" points="24.749,1.992 24.148,1.939 45.672,14.632 
							46.383,14.482 						"/>
						<polygon fill-rule="evenodd" clip-rule="evenodd" fill="#0C0D12" points="45.783,14.429 42.229,20.753 37.688,35.189 
							38.289,35.242 46.383,14.482 						"/>
						<polygon fill-rule="evenodd" clip-rule="evenodd" fill="#242736" points="24.148,1.939 16.054,22.698 37.688,35.189 
							45.783,14.429 						"/>
					</g>
					<g>
						<polygon fill-rule="evenodd" clip-rule="evenodd" fill="#1D64C2" points="24.338,2.646 16.624,22.43 37.498,34.482 
							45.211,14.697 						"/>
						<path fill-rule="evenodd" clip-rule="evenodd" fill="#2B7CD3" d="M24.338,2.646L16.624,22.43
							c10.618-10.641,14.657-8.896,28.587-7.733L24.338,2.646z"/>
					</g>
				</g>
				<g>
					<path fill-rule="evenodd" clip-rule="evenodd" fill="#459EF2" d="M40.785,23.513c-0.148,1.518-1.525,5.334-2.096,6.809
						L18.378,19.727c1.25-3.119,3.9-10.755,5.701-9.757c2.167,1.21-1.392,7.309,0.082,8.126c0.026,0.015,0.052,0.027,0.082,0.038
						c1.322,0.503,3.296-5.853,5.294-4.746c1.359,0.755,0.381,4.167-0.271,6.275c-0.512,1.65-0.227,2.087,0.121,2.279
						c0.598,0.304,1.156-0.092,1.787-1.348c2.113-4.217,3.404-7.688,5.061-6.834c1.459,0.808,0.256,4.027-1.191,8.338
						c-0.547,1.622-0.172,1.964,0.424,2.294c0.057,0.031,0.115,0.062,0.176,0.095c0.953,0.512,1.936-1.767,2.881-2.594
						c0.555-0.485,1.143-0.588,1.584-0.344C40.584,21.813,40.889,22.483,40.785,23.513z"/>
					<path fill-rule="evenodd" clip-rule="evenodd" fill="#61B3FF" d="M35.037,16.804c0.773,0.437,1.082,0.741-0.377,5.083
						c-0.598,1.775-1,3.361,0.186,4.06c1.334,0.74,1.959-0.892,2.891-1.71c0.557-0.485,1.123-0.6,1.539-0.368
						c0.453,0.25,0.73,0.906,0.629,1.936c-0.146,1.475-0.805,3.447-1.215,4.518c-0.068,0.178-0.129,0.33-0.18,0.451L18.378,19.727
						c0.583-1.281,1.128-2.643,1.681-3.776c0.64-1.313,1.343-1.773,2.021-1.616c0.105,0.024,0.21,0.064,0.309,0.119
						c0.609,0.337,1.058,1.259,0.7,2.833c-0.225,0.997-0.283,1.904,0.521,2.349c2.131,1.092,3.31-5.846,5.306-4.738
						c1.717,0.953-0.594,4.696-0.504,7.015c0.031,0.801,0.41,1.168,0.697,1.328c1.23,0.625,2.023-1.514,2.477-2.419
						C33.684,16.643,34.299,16.393,35.037,16.804z"/>
					<g>
						<path fill-rule="evenodd" clip-rule="evenodd" fill="#FFFFFF" d="M35.234,14.872c0.121,0.066,0.17,0.242,0.111,0.394
							c-0.014,0.04-0.035,0.074-0.063,0.102c-0.07,0.075-0.17,0.1-0.258,0.05c-0.1-0.055-0.15-0.186-0.131-0.315
							c0.004-0.026,0.01-0.052,0.02-0.077c0.006-0.015,0.012-0.028,0.02-0.041C35,14.863,35.127,14.813,35.234,14.872z"/>
						<path fill-rule="evenodd" clip-rule="evenodd" fill="#FFFFFF" d="M28.408,15.183c0.096,0.054,0.146,0.181,0.131,0.307
							c-0.002,0.028-0.01,0.057-0.02,0.085c-0.006,0.012-0.01,0.022-0.016,0.034c-0.064,0.127-0.197,0.18-0.307,0.12
							c-0.113-0.064-0.164-0.228-0.117-0.374c0.002-0.007,0.004-0.013,0.006-0.019c0.014-0.034,0.031-0.063,0.051-0.088
							C28.207,15.161,28.314,15.132,28.408,15.183z"/>
						<path fill-rule="evenodd" clip-rule="evenodd" fill="#FFFFFF" d="M22.949,11.127c0.07,0.039,0.115,0.115,0.13,0.201
							c0.007,0.041,0.007,0.083-0.001,0.126c-0.003,0.022-0.009,0.044-0.018,0.066c-0.059,0.15-0.203,0.219-0.321,0.153
							c-0.053-0.028-0.091-0.079-0.114-0.138c-0.014-0.037-0.021-0.079-0.021-0.122c0-0.044,0.007-0.09,0.024-0.133
							C22.685,11.129,22.829,11.061,22.949,11.127z"/>
						<path fill-rule="evenodd" clip-rule="evenodd" fill="#41FFFF" d="M27.383,14.011c0.219,0.493,0.422,0.943,0.754,1.235
							c-0.02,0.025-0.037,0.055-0.051,0.088c-0.002,0.006-0.004,0.012-0.006,0.019c-0.35-0.306-0.559-0.771-0.785-1.28
							c-0.314-0.704-0.666-1.495-1.498-2.042c-0.083-0.055-0.167-0.105-0.251-0.152c-0.662-0.367-1.384-0.508-2.14-0.459
							c-0.108,0.007-0.218,0.019-0.328,0.033c0.009-0.042,0.009-0.085,0.001-0.126c0.108-0.015,0.216-0.025,0.323-0.032
							c0.773-0.049,1.511,0.095,2.188,0.471c0.086,0.048,0.171,0.1,0.256,0.154C26.703,12.484,27.063,13.292,27.383,14.011z"/>
						<path fill-rule="evenodd" clip-rule="evenodd" fill="#41FFFF" d="M34.926,14.981c0,0.017-0.006,0.03-0.012,0.045
							c-0.01,0.024-0.016,0.05-0.02,0.077c-1.066-0.569-2.348-0.179-3.566,0.192c-1.041,0.318-2.037,0.622-2.824,0.314
							c0.006-0.011,0.01-0.022,0.016-0.034c0.01-0.028,0.018-0.057,0.02-0.085c0.762,0.296,1.744-0.003,2.77-0.316
							C32.543,14.798,33.84,14.402,34.926,14.981z"/>
						<path fill-rule="evenodd" clip-rule="evenodd" fill="#41FFFF" d="M37.885,25.194c-0.008,0.015-0.016,0.031-0.021,0.047
							c-0.012,0.027-0.018,0.054-0.021,0.082c-0.43-0.384-0.676-1.012-0.828-1.777c-0.16-0.812-0.213-1.778-0.266-2.769
							c-0.117-2.129-0.238-4.377-1.465-5.41c0.027-0.028,0.049-0.062,0.063-0.102c1.262,1.063,1.385,3.34,1.502,5.499
							c0.055,0.985,0.105,1.945,0.266,2.748C37.256,24.232,37.484,24.826,37.885,25.194z"/>
						<path fill-rule="evenodd" clip-rule="evenodd" fill="#FFFFFF" d="M38.184,25.088c0.117,0.064,0.166,0.231,0.119,0.378
							c-0.004,0.004-0.004,0.01-0.006,0.014c-0.016,0.039-0.035,0.073-0.061,0.1c-0.07,0.078-0.172,0.104-0.262,0.055
							c-0.098-0.055-0.148-0.184-0.133-0.312c0.004-0.028,0.01-0.055,0.021-0.082c0.006-0.017,0.014-0.033,0.021-0.047
							C37.953,25.078,38.078,25.029,38.184,25.088z"/>
						<path fill-rule="evenodd" clip-rule="evenodd" fill="#41FFFF" d="M40.291,25.482c-0.902,0.314-1.564,0.318-2.055,0.098
							c0.025-0.026,0.045-0.061,0.061-0.1c0.002-0.004,0.002-0.01,0.006-0.014c0.469,0.206,1.102,0.196,1.963-0.104L40.291,25.482z"
							/>
						<path fill-rule="evenodd" clip-rule="evenodd" fill="#41FFFF" d="M22.604,11.413c0,0.042,0.008,0.083,0.021,0.122
							c-0.678,0.152-1.375,0.439-2.073,0.84l-0.041-0.113C21.215,11.858,21.918,11.567,22.604,11.413z"/>
					</g>
				</g>
			</g>
		</g>
	</g>
	<g>
		<g>
			<path fill-rule="evenodd" clip-rule="evenodd" fill="#F1B287" d="M11.94,15.693c-0.103,0.28-0.147,0.633-0.126,1.027
				c0.075,1.496,0.728,3.448,1.016,5.267c-0.027,0.386-0.49,0.734-0.484,1.286c0.007,0.663-0.048,1.677,0.245,1.955
				c0.271,0.257,0.741,0.434,1.156,0.329c0.139-0.035,0.308-0.036,0.412-0.163c0.474-0.577,0.034-2.233,0.059-3.292
				c0.044-1.866,0.106-3.419,0.083-5.205C14.281,15.621,12.506,14.954,11.94,15.693z"/>
			<g>
				<path fill-rule="evenodd" clip-rule="evenodd" fill="#EAEAF7" d="M9.094,30.439c1.12-2.678,2.456-4.89,3.422-5.89
					c0.368-0.379,0.715-0.601,1.03-0.632c0.348-0.035,0.639,0.143,0.855,0.569c0.312,0.611,0.474,1.789,0.43,3.67l-0.347-0.006
					c0.042-1.818-0.106-2.943-0.393-3.507c-0.143-0.282-0.316-0.401-0.51-0.381c-0.229,0.022-0.504,0.208-0.813,0.528
					c-0.937,0.969-2.094,3.096-3.198,5.736L9.094,30.439z"/>
				<path fill-rule="evenodd" clip-rule="evenodd" fill="#FAFAFF" d="M9.094,30.439c1.12-2.678,2.456-4.89,3.422-5.89
					c-0.583,1.043-1.877,2.437-3.239,5.9L9.094,30.439z"/>
				<path fill-rule="evenodd" clip-rule="evenodd" fill="#C4C4D8" d="M9.294,30.623c1.12-2.676,2.377-4.889,3.345-5.889
					c0.367-0.38,0.591-0.585,0.906-0.618c0.348-0.034,0.562,0.128,0.779,0.554c0.31,0.612,0.412,1.639,0.368,3.518l-0.209-0.037
					c0.042-1.818-0.106-2.943-0.393-3.507c-0.143-0.282-0.316-0.401-0.51-0.381c-0.229,0.022-0.504,0.208-0.813,0.528
					c-0.937,0.969-2.094,3.096-3.198,5.736L9.294,30.623z"/>
				<g>
					<path fill-rule="evenodd" clip-rule="evenodd" fill="#00506A" d="M9.758,29.84l-0.18-0.104C9.417,29.67,9.29,29.686,9.14,29.75
						c-0.466,0.201-0.891,0.988-1.126,2.178c-0.147,0.742-0.207,1.768-0.227,2.656c0.566,0.809,2.7,2.047,3.726,2.15
						C11.521,33.895,10.841,30.592,9.758,29.84z"/>
					<path fill-rule="evenodd" clip-rule="evenodd" fill="#00354D" d="M8.492,30.586c-0.405,0.908-0.668,2.406-0.705,3.998
						c0.453,0.744,2.412,1.992,3.726,2.15C10.287,35.9,8.802,34.027,8.492,30.586z"/>
					<path fill-rule="evenodd" clip-rule="evenodd" fill="#009FBF" d="M9.577,29.738l6.576-3.822c-0.001,0-0.003-0.002-0.004-0.002
						c-0.166-0.064-0.323-0.053-0.478,0.039l-6.574,3.82C9.242,29.699,9.41,29.686,9.577,29.738z"/>
					<path fill-rule="evenodd" clip-rule="evenodd" fill="#C4C4D8" d="M9.667,29.686l6.574-3.822
						c-0.013-0.006-0.041-0.016-0.063-0.006L9.604,29.68C9.625,29.668,9.648,29.674,9.667,29.686z"/>
					<path fill-rule="evenodd" clip-rule="evenodd" fill="#EAEAF7" d="M9.758,29.838l6.573-3.82c0-0.09-0.068-0.145-0.09-0.154
						l-6.574,3.822C9.717,29.717,9.755,29.779,9.758,29.838z"/>
					<path fill-rule="evenodd" clip-rule="evenodd" fill="#00354D" d="M9.833,29.906c-0.053,1.34-0.064,2.705-0.076,4.086
						c0,0.059-0.113,0.049-0.162,0.021c-0.051-0.031-0.09-0.098-0.09-0.154c-0.018-1.047-0.069-3.324,0.073-4.123
						C9.72,29.814,9.785,29.854,9.833,29.906z"/>
					<path fill-rule="evenodd" clip-rule="evenodd" fill="#C4C4D8" d="M9.667,29.686c0.05,0.029,0.09,0.096,0.09,0.152
						c-0.077,1.367-0.082,2.75-0.074,4.125c0,0.055-0.04,0.078-0.089,0.051c-0.051-0.031-0.09-0.098-0.09-0.154
						c-0.018-1.047-0.069-3.324,0.073-4.123C9.579,29.68,9.618,29.656,9.667,29.686z"/>
					<path fill-rule="evenodd" clip-rule="evenodd" fill="#006A86" d="M11.513,36.734l6.574-3.822
						c0.023-1.379-0.344-5.83-1.757-6.895L9.758,29.84C10.975,30.775,11.479,34.686,11.513,36.734z"/>
					<path fill-rule="evenodd" clip-rule="evenodd" fill="#0085A3" d="M17.096,27.094c-0.191-0.424-0.416-0.771-0.677-1.002
						l-6.573,3.822c0.952,0.869,1.446,3.592,1.608,5.639C12.856,34.465,16.788,29.357,17.096,27.094z"/>
					<path fill-rule="evenodd" clip-rule="evenodd" fill="#00506A" d="M11.513,36.734l6.574-3.822
						c0.018-1.035-0.185-3.801-0.884-5.564c-0.082,3.822-2.169,6.422-5.708,8.842C11.504,36.381,11.51,36.564,11.513,36.734z"/>
					<path fill-rule="evenodd" clip-rule="evenodd" fill="#009FBF" d="M17.134,27.18c-0.154-0.355-0.33-0.664-0.53-0.898
						l-6.59,3.811c0.196,0.236,0.371,0.553,0.524,0.926L17.134,27.18z"/>
				</g>
				<ellipse fill-rule="evenodd" clip-rule="evenodd" fill="#006A86" cx="12.107" cy="30.497" rx="0.488" ry="0.562"/>
				
					<ellipse transform="matrix(-0.544 -0.8391 0.8391 -0.544 1.766 57.2605)" fill-rule="evenodd" clip-rule="evenodd" fill="#006A86" cx="16.442" cy="28.15" rx="0.561" ry="0.487"/>
				<path fill-rule="evenodd" clip-rule="evenodd" fill="#EAEAF7" d="M11.826,30.545c-0.012-2.477,0.321-4.605,0.785-5.696
					c0.356-0.835,0.959-1.292,1.756-0.605c0.607,0.523,1.426,1.672,2.268,3.776l-0.416,0.221c-0.819-2.047-1.511-3.245-2.079-3.734
					c-0.604-0.52-0.95-0.128-1.209,0.479c-0.446,1.048-0.631,3.027-0.619,5.458L11.826,30.545z"/>
				<path fill-rule="evenodd" clip-rule="evenodd" fill="#C4C4D8" d="M12.172,30.533C12.16,28.057,12.354,26,12.818,24.91
					c0.355-0.835,0.751-1.353,1.548-0.667c0.607,0.523,1.426,1.672,2.268,3.776l-0.2-0.025c-0.819-2.047-1.666-3.23-2.234-3.718
					c-0.603-0.52-1.011,0.102-1.27,0.709c-0.446,1.048-0.631,3.027-0.619,5.458L12.172,30.533z"/>
				<path fill-rule="evenodd" clip-rule="evenodd" fill="#FAFAFF" d="M11.826,30.545c-0.012-2.477,0.321-4.605,0.785-5.696
					c0.356-0.835,0.897-1.123,1.694-0.436c0.608,0.523,1.241,1.687,2.083,3.792l-0.169,0.035c-0.819-2.047-1.527-3.345-2.095-3.833
					c-0.864-0.812-1.169-0.029-1.427,0.578c-0.447,1.048-0.72,2.919-0.708,5.351L11.826,30.545z"/>
				<ellipse fill-rule="evenodd" clip-rule="evenodd" fill="#EAEAF7" cx="12.107" cy="30.497" rx="0.408" ry="0.468"/>
				<path fill-rule="evenodd" clip-rule="evenodd" fill="#EAEAF7" d="M16.226,27.715c-0.2,0.105-0.265,0.373-0.146,0.604
					c0.119,0.229,0.377,0.332,0.578,0.229c0.2-0.105,0.265-0.373,0.146-0.605C16.684,27.715,16.425,27.611,16.226,27.715z"/>
				<path fill-rule="evenodd" clip-rule="evenodd" fill="#C4C4D8" d="M16.425,28.582c0.08,0.012,0.16,0.004,0.233-0.035
					c0.2-0.105,0.265-0.373,0.146-0.605c-0.115-0.219-0.356-0.32-0.553-0.238c0.138,0.023,0.27,0.117,0.345,0.262
					c0.119,0.232,0.054,0.5-0.146,0.605C16.441,28.574,16.434,28.578,16.425,28.582z"/>
				<path fill-rule="evenodd" clip-rule="evenodd" fill="#C4C4D8" d="M12.256,30.063c0.151,0.066,0.259,0.236,0.259,0.436
					c0,0.258-0.183,0.467-0.408,0.467c-0.12,0-0.228-0.059-0.303-0.154c0.046,0.021,0.097,0.031,0.149,0.031
					c0.225,0,0.408-0.209,0.408-0.467C12.361,30.256,12.321,30.145,12.256,30.063z"/>
				<ellipse fill-rule="evenodd" clip-rule="evenodd" fill="#FAFAFF" cx="11.977" cy="30.39" rx="0.167" ry="0.192"/>
				<ellipse fill-rule="evenodd" clip-rule="evenodd" fill="#FAFAFF" cx="16.256" cy="28.093" rx="0.167" ry="0.192"/>
			</g>
			<path fill-rule="evenodd" clip-rule="evenodd" fill="#DB9669" d="M12.653,25.896c0.156-0.484,0.073-1.148,0.154-1.447
				c0.043-0.166,0.332-0.187,0.468-0.222c0.283-0.072,0.63-0.183,0.902-0.297c0.412-0.174,0.441-0.125,0.462,0.29
				c0.017,0.312,0.045,0.801-0.205,1.071c-0.099,0.106-0.381,0.191-0.672,0.291C13.632,25.626,12.64,25.936,12.653,25.896z"/>
			<path fill-rule="evenodd" clip-rule="evenodd" fill="#193147" d="M15.213,9.484c0.031,0.468-0.416,3.02-0.838,4.899
				c0.004,0.034,0.004,0.073-0.003,0.12c-0.051,0.347-0.078,2.097-0.074,2.394c0.023,1.786,0.024,3.527-0.021,5.393
				c-0.304,0.865-1.593,0.471-1.615,0.011c-0.288-1.819-0.71-3.833-0.912-5.372c-0.031-0.153-0.092-0.458-0.114-0.616
				c-0.031-0.216,0.007-0.458,0.009-0.71c0.012-1.547,0.101-3.667,0.463-5.685c0.368-2.054,1.724-2.48,2.888-1.992
				C15.459,8.121,15.166,8.778,15.213,9.484z"/>
			<path fill-rule="evenodd" clip-rule="evenodd" fill="#0F2030" d="M15.213,9.484c0.031,0.468-0.416,3.02-0.838,4.899
				c0.004,0.034,0.004,0.073-0.003,0.12c-0.051,0.347-0.078,2.097-0.074,2.394c0.023,1.786,0.024,3.527-0.021,5.393
				c-0.304,0.865-1.593,0.471-1.615,0.011c-0.098-0.616-0.211-1.255-0.325-1.89c0.097-1.198,0.3-2.004,0.167-3.021
				c-0.031-0.153-0.767-0.632-0.868-1.076c0.298,0.216,0.868,0.418,0.832,0.168c-0.119-0.833-0.634-2.419-0.706-3.773
				c0.07-0.908,0.179-1.859,0.346-2.791c0.368-2.054,1.724-2.48,2.888-1.992C15.459,8.121,15.166,8.778,15.213,9.484z"/>
		</g>
		<g>
			<path fill-rule="evenodd" clip-rule="evenodd" fill="#111214" d="M15.994,45.031c-0.178,0.168-0.384,0.252-0.794,0.496v0.363
				c-0.426,0.744-0.835,1.082-1.374,0.924c-0.75-0.221-0.977-0.406-0.986-0.943c-0.085-0.914-0.104-1.084,0.142-1.76
				c0.744-0.484,1.095-0.59,1.625-0.76c0.436-0.139,1.092-0.518,1.725-0.688c0.369-0.096,0.591,0.215,0.606,0.453
				C16.972,43.689,16.468,44.529,15.994,45.031z"/>
			<path fill-rule="evenodd" clip-rule="evenodd" d="M15.994,45.031c-0.178,0.168-0.384,0.252-0.794,0.496v0.363
				c-0.426,0.744-0.835,1.082-1.374,0.924c-0.75-0.221-0.977-0.406-0.986-0.943c-0.046-0.506-0.074-0.783-0.046-1.045
				c0.998,0.51,1.845,0.463,2.775-0.498c0.279-0.287,1.099-1.033,1.168-1.588c0.124,0.094,0.194,0.246,0.202,0.377
				C16.972,43.689,16.468,44.529,15.994,45.031z"/>
		</g>
		<g>
			<path fill-rule="evenodd" clip-rule="evenodd" fill="#1D3F5E" d="M17.685,24.485c-0.06,2.126-0.45,4.125-0.878,6.382
				c-0.124,0.65-0.407,1.719-0.506,2.551c-0.481,4.074-0.71,5.824-0.578,10.119c-0.369,0.854-2.221,1.383-3.03,0.73
				c-0.128-1.705-0.306-8.635-0.241-9.781c0.077-1.375,0.693-2.682,0.89-3.854c0.207-1.232-0.312-4.623-0.445-6.59
				c-0.155-0.136-0.293-0.273-0.419-0.412c1.164-0.374,2.516-0.371,3.28-0.068C16.434,23.832,17.067,24.125,17.685,24.485z"/>
			<path fill-rule="evenodd" clip-rule="evenodd" fill="#215682" d="M12.572,44.152c-0.052-1.877-0.184-8.545-0.121-9.666
				c0.077-1.375,0.693-2.682,0.89-3.854c0.127-0.756-0.02-2.326-0.182-3.883c0.647,0.5,1.268,0.971,1.798,1.275
				c0.047,1.066,0.077,2.059,0.021,2.701c-0.121,1.369-0.67,1.979-0.865,3.096c-0.455,2.607-0.641,7.438-0.167,10.723
				C13.404,44.6,12.876,44.496,12.572,44.152z"/>
			<path fill-rule="evenodd" clip-rule="evenodd" fill="#193147" d="M17.632,24.491l-3.948-1.112
				c-0.121,0.013-0.243,0.03-0.365,0.05l-0.356,1.815l0.131,0.897c0.7,0.918,2.264,1.758,2.828,2.094
				c-0.021,1.434-0.132,2.553-0.352,3.463c-0.893,3.701-1.213,8.775-1.067,12.74c0.496-0.09,0.977-0.447,1.211-0.889
				c0.044-4.066,0.084-8.051,0.93-11.963C17.028,29.816,17.608,26.393,17.632,24.491z"/>
		</g>
		<g>
			<path fill-rule="evenodd" clip-rule="evenodd" fill="#111214" d="M16.679,46.031c0.244-0.064,0.875-1.027,1.76-0.838
				c1.063,0.227,2.297-0.375,3.254-0.387c0.171-0.002,0.387-0.045,0.491,0.031c0.455,0.342,0.512,0.693,0.118,1.141
				c-0.29,0.33-0.814,0.754-1.265,1.045c-0.477,0.311-0.851,0.57-1.43,0.811c-0.43,0.178-0.72,0.154-1.109,0.293l-0.025,0.338
				c-0.312,0.264-0.661,0.43-0.874,0.447c-0.549,0.049-1.191-0.301-1.653-0.795c-0.053-0.559-0.252-1.117,0.036-1.939L16.679,46.031
				z"/>
			<path fill-rule="evenodd" clip-rule="evenodd" d="M22.459,45.111c0.179,0.26,0.134,0.539-0.157,0.867
				c-0.29,0.33-0.814,0.754-1.265,1.045c-0.477,0.311-0.851,0.57-1.43,0.811c-0.43,0.178-0.72,0.154-1.109,0.293l-0.025,0.338
				c-0.312,0.264-0.661,0.43-0.874,0.447c-0.549,0.049-1.191-0.301-1.653-0.795c-0.04-0.426-0.166-0.854-0.096-1.396
				c1.182,0.904,1.909,0.291,2.364,0.27c0.674-0.035,1.648,0.023,3.148-1.053C21.711,45.688,22.086,45.412,22.459,45.111z"/>
			<path fill-rule="evenodd" clip-rule="evenodd" fill="#20232E" d="M19.087,46.338c0.274-0.48,0.275-0.795,0.183-0.982l1.888-0.373
				c0.925-0.191,1.113-0.02,0.868,0.199C21.201,45.916,20.116,46.1,19.087,46.338z"/>
		</g>
		<g>
			<path fill-rule="evenodd" clip-rule="evenodd" fill="#1D3F5E" d="M16.222,19.949l2.961-0.349c0.581,1.466,1.311,1.567,1.442,3.33
				c0.518,3.535-0.04,6.343-0.684,9.738c-0.123,0.648-0.407,1.719-0.505,2.549c-0.482,4.076-0.711,5.826-0.579,10.121
				c-0.369,0.854-2.221,1.381-3.03,0.729c-0.127-1.705-0.305-8.633-0.241-9.783c0.077-1.373,0.693-2.68,0.89-3.852
				c0.206-1.23-0.312-4.623-0.445-6.59C13.744,23.833,14.759,21.446,16.222,19.949z"/>
			<path fill-rule="evenodd" clip-rule="evenodd" fill="#215682" d="M15.708,45.953c-0.053-1.879-0.185-8.543-0.122-9.67
				c0.077-1.373,0.693-2.68,0.89-3.852c0.124-0.736-0.013-2.248-0.17-3.764c0.277,0.285,1.111,0.703,1.775,0.924
				c0.053,1.152,0.092,2.244,0.032,2.932c-0.122,1.371-0.67,1.98-0.865,3.098c-0.455,2.609-0.641,7.439-0.167,10.723
				C16.539,46.4,16.011,46.295,15.708,45.953z"/>
			<path fill-rule="evenodd" clip-rule="evenodd" fill="#193147" d="M20.767,26.291c-0.737,0.459-3.798,0.324-4.629,0.578
				c0.017,0.365,0.025,0.676,0.083,1.037c0.658,0.758,2.058,1.18,2.793,1.412c0.026,1.939-0.039,3.059-0.308,4.178
				c-0.893,3.699-1.213,8.777-1.066,12.74c0.495-0.09,0.976-0.447,1.21-0.889c0.045-4.066,0.084-8.051,0.93-11.961
				C20.164,31.615,20.743,28.191,20.767,26.291z"/>
		</g>
		<g>
			<path fill-rule="evenodd" clip-rule="evenodd" fill="#1D3F5E" d="M13.672,7.769c-1.878,0.777-1.925,3.334-1.602,5.086
				c0.366,1.987,0.915,3.106,1.001,4.658c0.094,1.662-1.134,5.067-0.786,7.752c0.243,0.71,2.274,1.628,2.831,1.916
				c-0.13-1.105-0.151-2.114-0.025-3.351c0.092,1.544,0.197,2.449,0.531,3.521c1.417,0.842,4.405,1.588,5.524-0.041
				c-0.303-2.318-1.121-5.018-1.081-6.844c0.068-3.117,1.515-6.593,1.192-8.162c-0.136-0.659-0.557-1.219-1.05-1.614
				c-1.05-0.845-3.973-2.763-5.711-2.988C14.174,7.661,13.894,7.677,13.672,7.769z"/>
			<path fill-rule="evenodd" clip-rule="evenodd" fill="#193147" d="M18.759,28.279c0.893,0.035,2.056-0.256,2.51-1.15
				c0.145-3.241-1.166-6.121-1.126-7.947c0.037-1.675,2.188-5.531,1.319-7.761c-0.154-0.397-0.426-0.59-0.732-0.836
				c-0.5-0.401-1.956-1.091-2.974-1.609l0.026,0.543c0.8,0.496,1.099,0.772,1.746,1.456c-2.02,1.916-0.894,7.192-0.61,9.363
				C19.161,22.192,18.798,25.693,18.759,28.279z"/>
			<path fill-rule="evenodd" clip-rule="evenodd" fill="#215682" d="M13.785,8.313c0.241,2.068,2.593,2.938,5.108,2.784
				c-1.32,2.174-1.044,6.366-0.632,9.537c0.28,2.159,0.342,5.398,0.322,7.326c-1.24-0.17-1.605-0.281-2.768-0.742
				c-0.728-2.85-0.557-5.287-0.406-8.015c-0.552,2.392-0.528,5.107-0.629,7.419c-0.984-0.434-1.442-0.727-2.327-1.339
				c-0.242-3.461,0.958-7.054,0.856-7.881C12.915,14.17,10.907,9.219,13.785,8.313z"/>
		</g>
		<g>
			<path fill-rule="evenodd" clip-rule="evenodd" fill="#215682" d="M15.575,7.983c-0.182-0.064-0.519-0.165-0.683-0.201
				c-0.369,0.131-0.537,1.182-0.398,1.503c0.296,0.686,1.188,1.119,2.302,1.335c1.354,0.265,3.166-0.433,3.573-0.231
				c0.072,0.036-1.246-0.743-1.393-0.771C17.631,9.364,15.306,9.386,15.575,7.983z"/>
			<g>
				<path fill-rule="evenodd" clip-rule="evenodd" fill="#E8A476" d="M19.723,8.145c-0.237,0.081-1.348-0.228-1.329-0.122
					c-0.05,0.509,0.062,0.836,0.02,1.537c-1.222-0.337-2.957-0.396-2.897-1.359c0.07-0.275,0.168-0.486,0.209-0.834
					c0.028-0.244,0.028-0.456-0.029-0.584c-0.208-0.461-0.688-1.007-0.795-1.678C14.73,4.032,14.991,2.9,16.054,2.261
					c1.94-1.167,4.059,0.121,4.361,2.237c0.059,0.413-0.284,0.588-0.317,0.931c-0.006,0.066,0.073,0.147,0.125,0.305
					C20.296,5.952,20.014,8.044,19.723,8.145z"/>
				<path fill-rule="evenodd" clip-rule="evenodd" fill="#DB9669" d="M19.713,8.131c-0.237,0.081-1.337-0.214-1.318-0.109
					c-0.05,0.509,0.062,0.836,0.02,1.537c-0.131-0.037-0.268-0.074-0.405-0.112c-0.445-0.841-0.881-1.413-2.28-2.112
					c0.025-0.232,0.023-0.431-0.032-0.553c-0.208-0.461-0.688-1.007-0.795-1.678C14.73,4.032,14.991,2.9,16.054,2.261
					c1.94-1.167,4.059,0.121,4.361,2.237c0.059,0.413-0.284,0.588-0.317,0.931c-0.006,0.066,0.073,0.147,0.125,0.305
					C20.296,5.952,20.004,8.031,19.713,8.131z"/>
				<path fill-rule="evenodd" clip-rule="evenodd" fill="#E8A476" d="M19.677,8.138c-0.126,0.048-0.609-0.058-0.955-0.245
					c-0.218-0.118-0.358-0.336-0.392-0.356c-0.143-0.081-0.416-0.6,0.202-1.288c0.603-0.671-2.707,0.816-2.835,0.533
					c-0.208-0.461-0.688-1.007-0.795-1.678C14.73,4.032,14.991,2.9,16.054,2.261c1.94-1.167,4.059,0.121,4.361,2.237
					c0.059,0.413-0.284,0.588-0.317,0.931c-0.006,0.066,0.073,0.147,0.125,0.305C20.296,5.952,19.964,8.029,19.677,8.138z"/>
				<path fill-rule="evenodd" clip-rule="evenodd" fill="#F1B287" d="M19.73,8.136c-0.052,0.022-0.325-0.024-0.455-0.088
					c-0.134-0.186-0.249-0.561-0.22-0.735c0.109-0.669,0.521-1.171,0.554-1.443c0.072-0.576-0.157-0.313,0.143-0.907
					c0.231-0.456,0.019-0.557-0.024-0.979c0.255-0.058,0.392-0.23,0.448-0.347c0.113,0.267,0.195,0.556,0.239,0.862
					c0.059,0.413-0.284,0.588-0.317,0.931c-0.006,0.066,0.073,0.147,0.125,0.305C20.296,5.952,20.013,8.014,19.73,8.136z"/>
				<path fill-rule="evenodd" clip-rule="evenodd" fill="#DB9669" d="M18.638,6.285c-0.553-0.669-1.405,1.119-0.389,1.231
					C17.908,7.047,18.295,6.423,18.638,6.285z"/>
				<path fill-rule="evenodd" clip-rule="evenodd" fill="#F1B287" d="M18.6,6.558c0.128-0.249,0.061-0.354-0.058-0.341
					c-0.13,0.015-0.333,0.173-0.462,0.431c-0.208,0.417-0.064,0.997,0.386,0.836c-0.366-0.026-0.274-0.459-0.131-0.715
					C18.433,6.596,18.565,6.481,18.6,6.558z"/>
				<path fill-rule="evenodd" clip-rule="evenodd" fill="#DB9669" d="M18.417,6.654c0.077,0.202,0.097,0.318,0.057,0.379
					c-0.029,0.042-0.105,0.084-0.206-0.041C18.282,6.861,18.344,6.746,18.417,6.654z"/>
				<path fill-rule="evenodd" clip-rule="evenodd" fill="#361D07" d="M15.718,7.045c-0.212-0.652-0.681-1.099-0.816-1.941
					C14.73,4.032,14.991,2.9,16.054,2.261c1.525-0.917,3.16-0.318,3.937,1.008c0.04,0.084-0.522,0.264-0.397,0.675
					c0.165,0.69,0.121,0.984,0.001,1.115c-0.465,0.508-0.482,0.587-0.572,1.44l-0.245,0.15c-0.003-0.68-0.308-0.666-0.625-0.48
					c-0.555,0.323-0.863,1.182-1.725,1.246C16.104,7.438,15.852,7.275,15.718,7.045z"/>
				<path fill-rule="evenodd" clip-rule="evenodd" fill="#361D07" d="M19.039,6.307C19.051,6.732,19.045,7,19.199,7.233
					c0.059,0.088,0.235,0.139,0.411,0.197c0.049-0.191,0.09-0.303,0.153-0.447c0.093-0.212,0.234-0.372,0.425-0.459
					c0.007,0.055-0.016,0.242-0.053,0.27c-0.091,0.071-0.122,0.167-0.179,0.297c-0.058,0.134-0.078,0.227-0.104,0.413
					c0.044,0.01,0.08,0.022,0.11,0.03c0.016,0.004,0.034-0.116,0.064-0.109c-0.031,0.348-0.086,0.811-0.168,0.831
					c-0.105,0.026-0.676-0.169-0.961-0.331c-0.296-0.168-0.196-0.225-0.177-0.6c0.016-0.308,0.062-0.655,0.062-0.986L19.039,6.307z"
					/>
				<path fill-rule="evenodd" clip-rule="evenodd" fill="#4F2B0C" d="M19.113,7.056c0.021,0.062,0.048,0.121,0.086,0.177
					c0.059,0.088,0.235,0.139,0.411,0.197c0.049-0.191,0.09-0.303,0.153-0.447c0.093-0.212,0.234-0.372,0.425-0.459
					c0.007,0.055-0.016,0.242-0.053,0.27c-0.091,0.071-0.122,0.167-0.179,0.297c-0.058,0.134-0.078,0.227-0.104,0.413
					c0.044,0.01,0.08,0.022,0.11,0.03c0.016,0.004,0.034-0.116,0.064-0.109c-0.031,0.348-0.086,0.811-0.168,0.831
					c-0.08,0.02-0.425-0.087-0.713-0.21c-0.073-0.252-0.111-0.604-0.09-0.732C19.069,7.224,19.09,7.139,19.113,7.056z"/>
				<path fill-rule="evenodd" clip-rule="evenodd" fill="#54321E" d="M16.302,4.615c-0.058,0.515-0.042,0.711,0.071,1.202
					c0.085-0.29,0.165-0.585,0.26-0.872c0.032-0.096,0.066-0.19,0.103-0.284c0.012,0.448,0.005,0.898,0.001,1.346
					c0.161-0.455,0.333-0.914,0.474-1.375c0.14,0.292,0.117,0.86,0.138,1.215c0.147-0.426,0.294-0.828,0.382-1.271
					c0.164,0.215,0.15,0.73,0.166,1.015c0.129-0.362,0.236-0.684,0.329-1.06c0.095,0.189,0.077,0.604,0.084,0.823
					c0.103-0.247,0.257-0.565,0.292-0.822c0.146,0.356,0.102,0.739,0.09,1.113c0.124-0.375,0.292-0.797,0.31-1.19
					c0.066,0.141,0.109,0.539,0.137,0.71c0.059-0.292,0.125-0.588,0.16-0.884c0.136,0.195,0.251,0.544,0.245,0.799
					c0.178-0.278,0.188-0.869,0.062-1.287l-0.015-0.05L19.539,3.74c-0.301-0.02-0.602-0.04-0.903-0.061
					c-0.199-0.013-0.396-0.026-0.595-0.041c-0.097-0.006-0.206-0.01-0.3-0.022c-0.04-0.007-0.087-0.021-0.125-0.032
					c-0.094-0.025-0.189-0.05-0.282-0.076c-0.271-0.075-0.543-0.15-0.814-0.225c-0.411-0.115-0.794-0.27-1.205-0.385
					c-0.718,0.95-0.412,2.006-0.245,2.537c0.022-0.327,0.018-0.68,0.107-0.992c-0.012,0.282,0.099,0.671,0.163,0.958
					c0.043-0.325,0.067-0.608,0.187-0.92c-0.075,0.45-0.034,0.728,0.14,1.152C15.7,5.219,15.7,4.888,15.87,4.478
					c-0.052,0.52,0.002,0.847,0.094,1.343C16.05,5.417,16.126,4.989,16.302,4.615z"/>
				<path fill-rule="evenodd" clip-rule="evenodd" fill="#361D07" d="M14.969,4.437c0.342-0.187,1.084-0.322,2.434-0.242
					c0.934,0.056,1.605-0.074,2.207-0.299c0.905-0.342,0.894-1.292,0.579-1.656c-0.61-0.703-2.404-0.873-3.672-0.416
					C15.59,2.157,14.995,2.98,14.969,4.437z"/>
				<path fill-rule="evenodd" clip-rule="evenodd" fill="#241304" d="M14.969,4.437c0.342-0.187,1.084-0.322,2.434-0.242
					c0.934,0.056,1.605-0.074,2.207-0.299c0.905-0.342,0.894-1.292,0.579-1.656c-0.058-0.066-0.126-0.128-0.204-0.185
					c-0.426,1.581-1.17,1.044-2.829,1.393c0.26-0.192,0.144-0.164,0.37-0.268c-0.529,0.116-0.91,0.034-1.529,0.328
					c0.203-0.142,0.262-0.236,0.388-0.308c-0.259,0.031-0.792,0.121-1.217,0.625l0.054-0.766C15.07,3.522,15.037,3.956,14.969,4.437
					z"/>
				<path fill-rule="evenodd" clip-rule="evenodd" fill="#4F2B0C" d="M20.105,3.558c-0.303,0.293-1.324-0.609-2.931-0.526
					c0.472-0.992,0.695-1.187,1.205-1.428c0.666-0.315,1.679-0.019,1.932,0.568C20.554,2.735,20.351,3.322,20.105,3.558z"/>
				<path fill-rule="evenodd" clip-rule="evenodd" fill="#361D07" d="M17.946,2.973c0.542-0.412,1.255-0.232,1.881,0.028
					c-0.329-0.404-1.119-0.372-1.518-0.228c0.565-0.403,0.897-0.34,1.521-0.177c-0.436-0.3-1.044-0.309-1.413-0.088
					c0.524-0.477,0.71-0.412,1.371-0.285c-0.431-0.308-1.137-0.312-1.455-0.083c0.394-0.355,0.67-0.408,1.303-0.324
					c-0.522-0.237-0.944-0.275-1.453,0.13c0.432-0.574,1.178-0.479,1.642-0.223c0.408,0.227,0.626,0.72,0.585,1.125
					c-0.038,0.375-0.223,0.588-0.333,0.599C19.554,3.495,19.353,3.047,17.946,2.973z"/>
			</g>
			<g>
				<path fill-rule="evenodd" clip-rule="evenodd" fill="#CBF1FA" d="M15.539,8.098c0.044,0.658,1.772,1.235,2.906,0.791
					l-0.021-0.128c0.127,0.102,0.586,0.927,0.591,1.222c-1.228,0.312-3.269,0.154-3.738-0.871
					C15.175,8.888,15.306,8.377,15.539,8.098z"/>
				<path fill-rule="evenodd" clip-rule="evenodd" fill="#E3FAFF" d="M15.512,8.231c0.02,0.292,0.476,0.567,1.006,0.711
					c0.631,0.319,0.665,1.074-0.093,0.949c-0.491-0.152-0.912-0.391-1.082-0.762C15.255,8.938,15.347,8.5,15.512,8.231z"/>
			</g>
		</g>
		<path fill-rule="evenodd" clip-rule="evenodd" fill="#0F2030" d="M18.867,11.671c-0.389,1.587,0.393,3.924,1.724,5.574
			l0.394-1.232C19.927,14.535,19.57,10.776,18.867,11.671z"/>
		<g>
			<g>
				<path fill-rule="evenodd" clip-rule="evenodd" fill="#F1B287" d="M27.176,15.357c1.039-0.191,2.598-0.763,3.271-0.417
					c0.584,0.3,0.428,1.142,0.168,1.567c-0.211,0.346-1.211,0.504-1.859,0.65c-0.572,0.13-1.033-0.309-1.434-0.187
					C26.893,16.53,27.043,15.885,27.176,15.357z"/>
				<path fill-rule="evenodd" clip-rule="evenodd" fill="#DB9669" d="M30.393,14.915c0.02,0.007,0.037,0.016,0.055,0.025
					c0.584,0.3,0.428,1.142,0.168,1.567c-0.211,0.346-1.211,0.504-1.859,0.65c-0.572,0.13-1.033-0.309-1.434-0.187
					c-0.178-0.182-0.236-0.407-0.236-0.645c0.66-0.082,1.168,0.213,1.646,0.176c0.66-0.052,1.174-0.227,1.385-0.461
					C30.184,15.968,30.299,15.389,30.393,14.915z"/>
				<path fill-rule="evenodd" clip-rule="evenodd" fill="#F1B287" d="M30.188,14.875c0.533-0.053,1.385-0.179,1.918-0.242
					c0.375-0.045,0.299,0.543-0.035,0.618c-0.328,0.072-1.201,0.234-1.203,0.234C30.516,15.497,30.137,15.303,30.188,14.875z"/>
				<path fill-rule="evenodd" clip-rule="evenodd" fill="#DB9669" d="M32.305,14.955c0.006,0.16-0.051,0.255-0.234,0.296
					c-0.328,0.072-1.201,0.234-1.203,0.234c-0.203,0.007-0.416-0.056-0.549-0.193L32.305,14.955z"/>
			</g>
			<g>
				<path fill-rule="evenodd" clip-rule="evenodd" fill="#1D3F5E" d="M21.142,19.183c0.293,0.04,0.636-0.062,1.03-0.093
					c1.522-0.121,3.593-1.621,5.364-2.26c0.02-0.558-0.113-1.198-0.357-1.483c-1.915,0.243-3.533,0.816-5.352,1.233
					C20.582,16.865,20.299,18.785,21.142,19.183z"/>
				<path fill-rule="evenodd" clip-rule="evenodd" fill="#1D3F5E" d="M21.564,11.926c0.253,0.509,0.395,1.313,0.531,1.995
					c0.195,0.967,0.394,1.813,0.616,2.887c0.261,1.262,0.069,1.928-0.378,2.261c-0.199,0.147-0.983,0.177-1.159,0.128
					c-0.409-0.113-0.74-0.522-1.154-1.613c-0.538-1.418-2.077-5.564-0.91-6.367C20.157,10.498,21.06,10.914,21.564,11.926z"/>
				<path fill-rule="evenodd" clip-rule="evenodd" fill="#215682" d="M20.02,17.584c-0.538-1.418-2.077-5.564-0.91-6.367
					c0.227-0.156,0.446-0.257,0.657-0.312c0.143,1.316,0.781,4.15,1.428,6.18c0.129,0.407,0.461,1.215-0.081,1.43
					C20.793,18.643,20.314,18.358,20.02,17.584z"/>
				<path fill-rule="evenodd" clip-rule="evenodd" fill="#193147" d="M22.582,19.03c1.566-0.326,3.319-1.464,4.94-2.051
					c0.043-0.188,0.029-0.511-0.02-0.706c-0.748,0.007-2.958,1.022-4.772,1.967c-0.635,0.33-1.282,0.949-2.275,0.292
					C21.083,19.664,21.904,19.351,22.582,19.03z"/>
				<path fill-rule="evenodd" clip-rule="evenodd" fill="#215682" d="M27.445,15.946c-0.061-0.249-0.15-0.464-0.268-0.599
					c-1.665,0.211-3.106,0.673-4.649,1.063c-0.127,0.265-0.254,0.39-0.674,1.237C24.045,16.736,25.088,16.325,27.445,15.946z"/>
				<path fill-rule="evenodd" clip-rule="evenodd" fill="#193147" d="M20.132,10.865c1.353,0.083,1.609,1.529,1.939,3.009
					c0.108,0.715,0.409,1.643,0.548,2.517c0.036,0.43-0.392,1.048-0.765,1.261C21.083,14.961,20.546,13.816,20.132,10.865z"/>
			</g>
		</g>
	</g>
</g>
</svg>
