<?xml version="1.0" encoding="utf-8"?>
<!-- Generator: Adobe Illustrator 16.0.0, SVG Export Plug-In . SVG Version: 6.00 Build 0)  -->
<!DOCTYPE svg PUBLIC "-//W3C//DTD SVG 1.1//EN" "http://www.w3.org/Graphics/SVG/1.1/DTD/svg11.dtd">
<svg version="1.1" id="Layer_1" xmlns="http://www.w3.org/2000/svg" xmlns:xlink="http://www.w3.org/1999/xlink" x="0px" y="0px"
	 width="100px" height="100px" viewBox="0 0 100 100" enable-background="new 0 0 100 100" xml:space="preserve">
<g>
	<ellipse fill="#E2E9FB" cx="57.776" cy="84.418" rx="26.58" ry="13.233"/>
	<path fill="#B8C9F5" d="M75.878,66.27v18.656c0,7.307-11.898,13.231-26.579,13.231c-14.679,0-26.579-5.925-26.579-13.231V66.27
		H75.878z"/>
	<path fill="#E2E9FB" d="M36.439,44.014v8.276c0-0.047,0-0.093,0.006-0.139c0.086-2.054,2.107-3.867,5.19-5.006
		c2.147-0.789,4.794-1.26,7.665-1.26c2.872,0,5.519,0.471,7.659,1.26c3.085,1.139,5.104,2.952,5.192,5.006
		c0.005,0.046,0.005,0.092,0.005,0.139v-8.276c0-0.045,0-0.091-0.005-0.138c-0.145-3.475-5.843-6.267-12.852-6.267
		c-6.939,0-12.59,2.734-12.85,6.158c-0.005,0.034-0.005,0.069-0.005,0.109C36.439,43.922,36.439,43.968,36.439,44.014z"/>
	<path fill="#FFFFFF" d="M22.72,67.824c0,7.308,11.9,13.229,26.579,13.229c14.681,0,26.579-5.922,26.579-13.229v-1.369H22.72V67.824
		z"/>
	<path fill="#E2E9FB" d="M30.116,14.255V26.6c0-0.068,0-0.138,0.008-0.207c0.129-3.065,3.142-5.769,7.744-7.468
		c3.202-1.176,7.151-1.88,11.434-1.88c4.284,0,8.233,0.704,11.427,1.88c4.603,1.699,7.616,4.403,7.744,7.468
		c0.008,0.069,0.008,0.138,0.008,0.207V14.255c0-0.069,0-0.138-0.008-0.206C68.259,8.864,59.76,4.7,49.302,4.7
		c-10.353,0-18.783,4.077-19.169,9.186c-0.009,0.052-0.009,0.103-0.009,0.164C30.116,14.118,30.116,14.187,30.116,14.255z"/>
	<ellipse fill="#E2E9FB" cx="49.299" cy="66.455" rx="26.579" ry="13.231"/>
	<g>
		<ellipse fill="#E2E9FB" cx="49.299" cy="66.455" rx="14.594" ry="7.376"/>
		<g>
			<path fill="#FCBAC0" d="M30.565,20.96c0.102,0.585,0.383,1.129,0.824,1.527c0.066,0.061,0.121,0.104,0.154,0.118
				c0.885,0.395,2.45,1.022,2.917,1.189c0.047,0.018,0.084,0.029,0.103,0.034c0.518,0.158,1.171,0.386,1.896,0.628l0.749-2.521
				c-0.709-0.105-1.472-0.217-2.279-0.331c-0.215-0.03-0.334-0.061-0.446-0.101c-1.047-0.33-2.32-3.3-2.998-2.433
				c-0.729,0.089-1.199,0.819-0.984,1.521L30.565,20.96z"/>
			<path fill="#3754E0" d="M34.397,23.771c0,0,6.288,2.281,7.609,1.732c0.575-0.245,1.95-2.586,3.205-4.913l-0.208-5.382
				c-0.64-0.109-1.071-0.629-1.071-0.629c-0.545,1.018-3.229,6.041-3.775,7.102c-0.05,0.105-0.157,0.143-0.27,0.146
				c-0.485,0.019-4.753-0.203-5.021-0.232C35.203,22.009,34.895,23.699,34.397,23.771z"/>
			<g>
				<path fill="#343C6B" d="M53.499,65.552c-0.337-1.09-1.19-1.793-1.904-1.572c-0.715,0.22-0.806,1.226-0.684,2.374
					c0.023,0.212,0.146,0.395,0.242,0.568c0.203,0.364,0.299,0.776,0.295,1.195c-0.004,0.32,0.045,0.664,0.153,1.012
					c0.172,0.56,0.634,0.975,1.084,1.264c0.567,0.361,1.329,0.124,1.59-0.496c0.263-0.629,0.453-1.44,0.097-2.086
					C54.196,67.493,53.562,65.758,53.499,65.552z"/>
				<path fill="#343C6B" d="M46.061,63.727c-0.538,0.428-1.612,1.439-2.213,1.65c-0.83,0.29-1.501,0.354-1.979,0.231
					c-0.463-0.121-0.507-0.867-0.235-1.261c0.263-0.378,3.134-3.248,3.134-3.248c0.026-0.284-0.117-0.746-0.073-0.763
					c1.013-0.385,2.568-0.166,2.827,0.324v1.804c0,0.372-0.224,0.706-0.568,0.846C46.592,63.458,46.172,63.638,46.061,63.727z"/>
				<path fill="#819BEA" d="M54.652,25.233v3.641c0,0.55-0.926,36.111-0.926,36.111c0,0.901-3.408,0.986-3.396-0.183l-1.084-25.909
					l-1.065-0.379l-0.485,22.463c-0.021,1.082-3.74,0.785-3.583-0.083l-0.531-29.567c-0.011-0.515,0.038-1.03,0.146-1.534
					L54.652,25.233z"/>
				<path fill="#FF4A59" d="M56.449,19.159l-1.399,4.635l-0.274,8.48c-0.48,3.138-10.917,2.21-10.917-1.876V16.148
					c0-2.43,1.747-3.229,3.536-3.044c0.387,0.039,0.778-0.146,1.152,0.014c0.141,0.055,1.236-0.541,1.378-0.468l2.906,1.679
					c0.197,0.116,0.39,0.227,0.575,0.339C55.308,15.823,56.449,16.908,56.449,19.159z"/>
				<path fill="#FCBAC0" d="M51.765,10.174v4.032c-0.015,0.175-0.116,0.342-0.328,0.481c-0.539,0.349-1.538,0.415-2.252,0.153
					c-0.416-0.153-0.642-0.387-0.642-0.634v-3.237l1.524-1.976h0.168L51.765,10.174z"/>
				<path fill="#FCBAC0" d="M52.799,41.396l0.069-1.583c0.042-0.211,0.118-0.415,0.225-0.601l0.21-0.367
					c0.232-0.406,0.348-0.867,0.336-1.334l-0.251-8.767c0.008-0.341-0.007-0.68-0.046-1.02c-0.169-1.534-0.541-5.632-0.636-6.897
					c-0.023-0.317,0.218-0.591,0.535-0.608l2.411-0.128c0.32-0.017,0.592,0.233,0.6,0.552l0.122,7.331
					c0.01,0.271,0,0.542-0.025,0.812l-0.91,9.496c0.051,0.324,0.22,0.878,0.377,1.393c0.191,0.638,0.188,1.319-0.026,1.951
					c-0.251,0.735-0.662,1.596-1.235,1.633c-0.749,0.048-0.968-2.492-0.968-2.492s-0.065,0.625-0.132,0.841
					c-0.076,0.243-0.316,0.48-0.501,0.419C52.722,41.949,52.693,41.718,52.799,41.396z"/>
				<path fill="#5278FF" d="M42.665,32.312c0,1.331,2.125,2.908,2.404,2.715c0.295-0.206-0.251-8.381,0.423-13.763
					c0.338-2.71,0.91-5.202,1.856-6.758c0.463-0.756,1.198-1.388,1.198-1.388s-0.238-0.097-0.35-0.13
					c-0.884-0.262-1.713-0.319-2.786,0.208c-1.048,0.514-1.83,1.357-1.83,2.919l-0.273,5.965L42.665,32.312z"/>
				<path fill="#5278FF" d="M54.838,35.046l0.212-11.252l1.957-4.395c0-2.25-1.697-3.577-3.602-4.731
					c-0.184-0.114-0.379-0.225-0.575-0.339l-1.065-0.617l0.091,0.618c0.159,1.071-2.009,5.271-2.668,8.129
					c-0.868,3.762-1.337,13.565-1.135,13.732C48.421,36.495,54.566,36.837,54.838,35.046z"/>
				<path fill="#5278FF" d="M52.099,21.112c0.094,1.282,0.618,6.044,0.739,7.157c0.036,0.3,0.048,0.609,0.04,0.919l0.212,7.792
					c-0.028,0.808,2.887,0.92,2.95,0.21l0.788-7.9c0.028-0.288,0.037-0.574,0.028-0.856l0.15-9.035L52.099,21.112z"/>
				<path fill="#FCBAC0" d="M45.956,7.645c-0.242,1.443,0.142,3.852,1.236,4.823c0.678,0.6,1.381,0.772,2.159,0.494
					c0.307-0.109,1.644-0.855,2.374-1.919c0.477-0.695,0.79-1.447,0.916-2.113c0.443-2.352-0.816-4.052-2.696-4.421
					C46.489,3.831,46.283,5.7,45.956,7.645z"/>
				<path fill="#343C6B" d="M53.727,6.072c0.466,1.423,0.123,3.941-1.962,5.694v-1.592c0.149-0.313,0.514-0.55,0.484-0.933
					c-0.015-0.229-0.386-0.213-0.661,0.04c-0.013,0.005-0.03,0.021-0.041,0.033c-0.114,0.125-0.336,0.199-0.568,0.246
					c-0.376,0.082-0.726-0.217-0.715-0.599c0.047-2.701-2.872-2.14-3.847-2.626c-0.179,0.395-0.46,1.311-0.46,1.311
					c-0.062-0.368-0.006-0.831-0.015-1.299c-0.008-1.224,0.826-2.293,1.991-2.6c0.184-0.051,0.386-0.094,0.602-0.125
					C51.502,3.181,53.26,4.664,53.727,6.072z"/>
				
					<ellipse transform="matrix(-0.8961 -0.4438 0.4438 -0.8961 93.7186 41.4405)" fill="#FCBAC0" cx="51.709" cy="9.753" rx="0.882" ry="1.358"/>
			</g>
		</g>
	</g>
	<g>
		<path fill="#D5DFF9" d="M36.439,43.767v8.241c0,0.046,0,0.098,0.006,0.144c0.149,3.47,5.847,6.256,12.855,6.256
			c7.002,0,12.702-2.786,12.852-6.256c0.005-0.046,0.005-0.098,0.005-0.144v-8.276c0,0.046,0,0.098-0.005,0.144
			c-0.088,2.048-2.113,3.856-5.192,4.996c-2.141,0.788-4.787,1.259-7.659,1.259c-2.871,0-5.518-0.471-7.665-1.259
			c-1.22-0.449-2.272-1.007-3.107-1.64c-1.272-0.967-2.032-2.118-2.083-3.355C36.439,43.841,36.439,43.801,36.439,43.767z"/>
	</g>
	<g>
		<path fill="#D5DFF9" d="M30.116,13.886v12.293c0,0.069,0,0.146,0.008,0.215c0.224,5.177,8.722,9.333,19.178,9.333
			c10.449,0,18.948-4.156,19.171-9.333c0.008-0.069,0.008-0.146,0.008-0.215V13.834c0,0.069,0,0.146-0.008,0.215
			c-0.128,3.056-3.151,5.751-7.744,7.452c-3.193,1.176-7.143,1.879-11.427,1.879c-4.283,0-8.232-0.703-11.434-1.879
			c-1.82-0.671-3.392-1.503-4.636-2.447c-1.897-1.442-3.03-3.159-3.108-5.004C30.116,13.997,30.116,13.938,30.116,13.886z"/>
	</g>
</g>
</svg>
