<?xml version="1.0" encoding="utf-8"?>
<!-- Generator: Adobe Illustrator 17.0.0, SVG Export Plug-In . SVG Version: 6.00 Build 0)  -->
<!DOCTYPE svg PUBLIC "-//W3C//DTD SVG 1.1//EN" "http://www.w3.org/Graphics/SVG/1.1/DTD/svg11.dtd">
<svg version="1.1" id="Layer_1" xmlns="http://www.w3.org/2000/svg" xmlns:xlink="http://www.w3.org/1999/xlink" x="0px" y="0px"
	 width="800px" height="600px" viewBox="0 0 800 600" enable-background="new 0 0 800 600" xml:space="preserve">
<g>
	<g>
		<g>
			<path d="M551.945,415.71c0.165-2.764,0.072-5.549-0.272-8.312c2.47,0.966,5.85,0.68,8.004-0.487
				c3.673-2.005,2.778-6.186,1.432-4.74c-3.179,3.43-7.768,3.193-9.895,2.263c-0.902-4.625-3.15-10.955-7.052-14.298
				c6.852-2.277,16.646-11.57,19.947-26.563c3.301-15.006-2.241-31.201-10.195-37.531c5.57-1.232,10.102,0.751,14.591,4.375
				c0.523,0.43,1.074-0.236,0.903-0.752c-2.191-6.2-9.73-7.51-15.165-5.069c15.064-12.629,7.381-49.602-17.777-49.795
				c-2.599-7.56-9.952-14.283-15.944-17.77c9.93-5.463,16.489-16.796,23.447-25.274c8.864-10.804,18.916-21.529,24.787-34.38
				c5.642-12.387,6.895-23.255-1.246-34.138c-3.623-4.832-8.055-12.064-11.054-17.949c-2.806-5.563-6.444-8.033-11.549-9.436
				c-0.831-0.236-2.034-0.086-1.002,1.346c5.935,8.227,13.854,17.312,13.918,28.016c0.036,6.766-6.702,12.336-11.455,16.338
				c-4.425,3.723-9.587,6.529-14.735,9.079c-11.026,5.434-22.51,10.159-33.671,15.285c-10.754,4.905-22.059,9.244-31.195,16.783
				c1.897-8.563,8.72-17.255,12.157-25.159c3.465-7.911,1.962-17.083,2.735-25.453c0.816-8.878-0.573-17.964-2.405-26.613
				c-3.466-16.424-10.826-33.951-19.639-48.249c-3.888-6.293-8.685-8.978-13.969-13.925c-3.995-3.73-9.293-15.522-11.384-12.136
				c-3.601,5.829,6.193,17.842,9.78,22.918c11.032,15.587,0.064,31.073-9.666,43.918c-4.353,5.749-8.263,11.87-11.606,18.293
				c2.305-15.701-0.566-31.847-5.943-46.817c-3.701-10.331-8.283-20.318-11.992-30.643c-2.348-6.507-4.546-13.087-6.623-19.681
				c-1.776-5.592-2.9-13.811-3.365-19.667c-6.894-2.549-22.703,4.904-24.944,10.711c3.694,4.897,10.345,19.775,14.083,30.385
				c4.238,12.021,7.668,24.179,10.037,36.737c2.413,12.773,3.494,25.753,3.702,38.734c0.179,10.975-0.759,23.62-1.697,32.018
				c-4.832-10.611-14.312-18.937-22.474-26.992c-5.377-5.291-11.691-9.909-17.928-14.14c-6.179-4.21-12.508-7.868-16.56-14.355
				c-9.093-14.463,8.67-29.054,11.771-42.721c3.759-16.467-9.494-34.531-14.505-39.916c0.207,3.974,2.577,12.48,3.608,16.288
				c1.461,5.348,0.831,11.183-0.472,16.46c-2.549,10.296-9.708,18.937-14.484,28.238c-7.124,13.854-8.455,28.087,0.057,41.898
				c3.845,6.272,16.431,21.321,20.068,28.632c-3.594-3.114-7.267-5.936-12.085-7.94c-8.613-3.609-17.921-5.485-26.942-7.647
				c-7.095-1.711-14.062-3.823-20.863-6.493c-4.289-1.675-8.542-3.738-12.4-6.286c-2.127-1.404-3.874-3.308-6.072-4.625
				c-1.253-0.745-2.441,0.716-1.632,1.861c9.236,12.851,13.324,29.613,20.312,43.738c6.293,12.723,14.857,26.104,27.923,32.648
				c-5.713,2.22-10.897,5.334-14.262,8.255c-6.208,5.406-11.019,12.615-13.925,20.283c-1.962,5.133-3.323,15.802,2.563,19.081
				c-20.212,9.815-27.192,48.206-11.527,67.236c-0.143,0.1-0.279,0.207-0.43,0.314c-7.231-0.902-13.882-2.162-16.761-9.966
				c-0.201-0.516-1.045-0.408-1.074,0.15c-0.372,8.785,8.32,11.656,15.844,11.276c-1.36,1.053-2.685,2.169-3.945,3.359
				c-2.377-0.752-4.746-1.54-7.059-2.442c-4.74-1.833-7.59-4.417-8.985-9.271c-0.172-0.573-0.91-0.673-1.146-0.1
				c-3.487,7.862,9.594,10.961,16.517,12.451c-6.837,6.666-11.999,15.236-13.732,24.35c-1.568,8.277-0.179,24.93,9.816,30.278
				c-8.076,6.988-12.164,19.983-12.236,29.491c-0.078,8.176,1.625,16.109,5.742,23.211c2.112,3.637,7.847,11.584,13.095,12.379
				c-0.537,1.783-0.859,7.468-0.817,8.277c-2.42,1.36-4.503,2.098-8.062,0.523c-2.928-1.317-5.527-4.253-7.138-6.945
				c-0.251-0.401-0.852-0.057-0.644,0.372c2.112,4.396,5.198,8.434,10.038,9.945c2.062,0.651,4.289,0.451,6.15-0.43
				c0.595,4.131,1.711,8.19,3.05,12.171c2.062,6.143,9.945,19.811,19.188,19.596c-0.014,0.035-8.993,2.584-16.195,11.155
				c-0.408,0.501,0.365,1.188,0.787,0.773c4.375-4.381,12.272-8.377,14.041-9.458c-5.907,6.322-15.909,14.369-10.002,21.966
				c0.336,0.422,0.952,0.1,0.823-0.408c-2.048-8.678,5.184-14.484,10.138-21.021c-1.002,11.348,4.955,23.305,13.769,30.421
				c1.174,0.938,2.427,1.804,3.737,2.606c-1.425,2.198-2.105,4.847-2.67,7.468c-0.96,4.417-0.852,12.644-5.993,14.348
				c-0.508,0.158-0.43,0.995,0.057,1.124c4.36,1.152,5.778-3.974,6.551-7.252c1.117-4.683,1.145-10.425,3.279-14.978
				c2.57,1.424,5.306,2.556,8.148,3.315c-2.793,5.348,0.78,11.993,4.26,16.56c4.439,5.764,10.109,9.229,17.126,10.775
				c7.439,1.625,16.925,1.074,24.1-2.455c2.62,11.52,20.577,16.696,30.614,16.03c8.004-0.515,14.9-3.293,21.973-8.384
				c2.95-2.106,7.847-7.31,9.293-11.577c0.029,0,0.078,0.021,0.114,0.035c1.282,2.485,1.69,5.384,2.284,8.162
				c0.501,2.441,1.468,5.456,3.967,6.43c0.422,0.172,0.966-0.301,0.723-0.724c-1.01-1.833-2.184-3.25-2.757-5.305
				c-0.451-1.603-0.687-3.286-1.067-4.919c-0.243-1.023-0.53-1.911-0.895-2.735c1.855,0.83,3.58,1.904,5.076,3.573
				c2.263,2.491,2.713,6.543,4.26,9.486c2.198,4.174,6.222,4.002,9.543,1.382c0.487-0.38,0.072-1.239-0.537-1.067
				c-3.523,0.909-5.921,0.694-7.647-2.757c-1.023-2.055-1.697-4.267-2.721-6.307c-1.324-2.592-3.615-4.325-6.221-5.435
				c8.663,0.781,19.882-2.577,24.708-4.897c7.51-3.595,13.288-10.461,16.94-17.806c2.513-5.062,5.076-13.288,2.749-18.937
				c4.288-0.981,8.319-2.535,11.455-4.253c6.572-3.652,14.856-12.222,18.135-21.107c2.141,3.057,5.004,5.362,8.598,7.002
				c3.637,1.661,9.043,1.876,11.284-1.961c0.272-0.473-0.114-1.117-0.68-0.988c-3.959,0.952-6.744,1.761-10.796,0.078
				c-2.699-1.138-5.642-3.364-7.875-5.742c0.974-3.257,1.21-6.515,0.408-9.565c11.334-2.699,25.839-13.095,28.338-31.86
				c1.647,0.451,3.243,1.253,4.447,2.434c2.227,2.183,1.661,4.683,1.84,7.425c0.071,1.21,1.776,2.033,2.455,0.759
				c2.9-5.312-2.828-13.675-8.627-12.472c0.179-4.682-0.659-9.286-2.928-12.844c9.665-2.8,18.744-12.694,19.818-29.369
				c2.398,1.489,8.033,6.465,7.532,14.09c-0.042,0.494,0.608,0.845,1.067,0.744c4.669-0.916,1.647-7.546,0.122-9.944
				C558.589,419.132,555.546,416.233,551.945,415.71z"/>
			<path fill="#ABC34D" d="M547.585,139.089c7.174,4.153,11.169,15.186,15.078,21.687c3.43,5.713,6.351,11.312,6.988,18.057
				c0.658,7.01-2.864,14.37-6.208,20.305c-6.2,11.005-15.315,20.062-23.369,29.67c-7.26,8.663-12.945,22.381-24.242,25.36
				c-1.568-0.114-4.411-1.045-5.735-1.232c6.422-5.513,12.064-12.142,17.57-18.486c6.938-7.983,14.133-15.823,21.5-23.404
				c0.207-0.194-0.05-0.551-0.251-0.351c-7.181,6.866-13.782,14.255-20.484,21.586c-6.508,7.16-13.632,13.697-20.477,20.505
				c-1.79-0.043-3.529,0.179-5.269,0.473c3.658-2.864,6.859-6.78,9.2-9.508c8.362-9.759,17.577-18.393,26.383-27.729
				c0.215-0.215-0.078-0.602-0.287-0.372c-7.668,7.56-16.338,13.868-23.254,22.166c-4.654,5.57-14.735,16.575-22.088,17.477
				c-0.387-0.723-0.795-1.418-1.224-2.098c5.585-1.525,10.904-6.837,14.706-10.417c5.871-5.506,10.797-11.799,15.945-17.964
				c0.215-0.265-0.243-0.644-0.472-0.401c-4.618,4.926-9.244,9.845-14.033,14.613c-5.427,5.391-10.983,8.813-17.455,12.221
				c-4.318-5.856-10.389-9.715-17.67-11.484c-3.551-3.236-5.341-6.601-5.936-10.03c21.994-11.813,46.352-18.379,68.525-29.763
				c14.849-7.625,31.624-23.133,24.386-40.616C557.172,152.342,552.16,145.461,547.585,139.089z"/>
			<path fill="#D4E854" d="M507.054,205.588c11.398-5.434,23.641-9.343,34.366-16.087c5.663-3.544,11.727-8.162,15.508-13.983
				c-5.37,12.809-20.584,21.651-33.414,27.451c-18.865,8.499-39.586,14.563-57.163,25.617c-0.093-1.067-0.107-2.126-0.014-3.193
				C479.575,217.988,493.344,212.096,507.054,205.588z"/>
			<path fill="#D4E854" d="M418.776,174.866c3.029-9.723,7.947-18.851,13.388-27.407c6.752-10.611,16.096-19.567,19.26-31.896
				c-0.243,3.623-1.017,7.26-2.334,11.012c-3.444,9.787-9.687,18.508-15.508,27.006c-6.415,9.365-12.53,19.059-16.804,29.448
				C417.28,180.336,417.902,177.629,418.776,174.866z"/>
			<path fill="#ABC34D" d="M397.941,119.386c-2.04-12.758-6.386-25.653-10.518-37.874c-3.365-10.01-6.83-22.732-13.703-31.202
				c3.465-4.804,13.338-7.317,17.591-6.973c0.136,9.801,4.546,21.035,7.288,30.264c3.079,10.324,7.016,20.233,10.911,30.256
				c4.059,10.461,8.033,21.043,9.128,32.226c0.795,8.341,1.382,19.21-1.202,31.932c-2.363,6.079-4.196,12.365-5.406,18.773
				c-1.732,9.2-1.067,22.703-6.68,31.366c-1.26-9.236-2.183-16.811-6.98-23.971c1.231-7.231,2.914-25.932,2.742-37.044
				C400.912,143.965,400.017,132.395,397.941,119.386z"/>
			<path fill="#D4E854" d="M322.9,132.187c-0.709-10.467,3.759-19.331,8.613-28.316c3.873-7.138,7.575-14.727,9.708-22.582
				c1.003-3.702,1.167-7.539,0.946-11.355c-0.251-4.232-2.141-8.084-3.051-12.172c7.976,12.1,12.852,26.183,5.227,39.836
				c-6.035,10.804-16.295,22.582-8.771,35.462c6.136,10.525,18.816,16.159,27.995,23.591c5.856,4.732,10.954,9.959,15.988,15.536
				c4.439,4.955,9.307,9.68,12.93,15.293c-1.109-1.059-2.291-2.091-3.594-3.072c-0.573-0.436-1.167-0.837-1.754-1.224
				c-4.188-6.393-9.529-11.842-15.45-16.689c-7.589-6.243-17.162-9.222-25.467-14.298c-15.887-9.708-20.456-27.887-10.381-43.552
				c0.193-0.294-0.251-0.602-0.458-0.308c-8.27,11.813-9.065,26.755,1.109,37.839c6.645,7.246,15.15,11.076,23.821,15.321
				c9.243,4.532,16.818,11.455,23.061,19.517c-3.093-1.582-6.373-2.82-9.716-3.966c-2.542-2.548-5.85-4.51-8.799-6.322
				c-5.979-3.644-12.343-6.579-18.321-10.238c-12.759-7.804-19.439-21.536-18.393-36.299c0.014-0.323-0.458-0.365-0.494-0.051
				c-1.504,11.52,1.496,22.317,9.608,30.816c4.833,5.083,10.318,8.878,16.389,12.321c3.795,2.148,7.653,4.153,11.334,6.458
				c0.451,0.279,0.88,0.565,1.289,0.852c-2.614-0.873-5.156-1.804-7.626-2.892c-8.999-4.002-17.835-10.84-24.98-17.585
				C327.404,148.189,323.488,140.814,322.9,132.187z"/>
			<path fill="#E6F29C" d="M527.345,201.149c5.992-2.906,12.222-6.465,17.555-10.754c1.46-1.947,2.771-4.009,3.93-6.172
				c-2.398,1.969-4.94,3.738-7.41,5.277c-7.318,4.603-15.336,7.883-23.312,11.226C521.238,201.235,524.345,201.435,527.345,201.149z
				"/>
			<path fill="#E6F29C" d="M440.383,143.493c3.466-5.363,6.609-10.947,8.706-16.918c1.317-3.752,2.091-7.389,2.334-11.012
				c-3.164,12.329-12.508,21.285-19.26,31.896c-1.253,1.969-2.455,3.959-3.637,5.985
				C432.515,150.265,436.639,146.957,440.383,143.493z"/>
			<path fill="#E6F29C" d="M329.48,122.257c0.837-4.833,2.871-9.594,5.9-13.918c0.207-0.294,0.651,0.014,0.458,0.308
				c-4.504,7.016-6.072,14.555-5.012,21.6c0.179,0.573,0.365,1.146,0.594,1.711c0.158,0.43,0.351,0.838,0.545,1.253
				c2.198,3.129,4.431,6.265,6.594,9.422c5.685,5.535,13.374,8.999,21.508,11.362c-8.671-6.221-19.123-11.684-24.494-20.935
				c-7.524-12.88,2.735-24.657,8.771-35.462c7.625-13.653,2.749-27.736-5.227-39.836c0.91,4.088,2.8,7.94,3.051,12.172
				c0.014,0.386,0.029,0.759,0.05,1.131c1.597,7.861-1.059,15.744-4.826,23.655C333.31,103.298,329.23,112.72,329.48,122.257z"/>
			<path fill="#ABC34D" d="M344.465,173.384c-2.198-2.949-4.582-5.763-7.002-8.549c1.933,1.425,3.88,2.793,5.763,4.16
				c7.754,5.664,16.002,9.393,25.238,11.914c10.231,2.793,20.584,5.177,27.335,13.883c5.169,6.672,6.881,17.255,8.312,24.429
				c-1.661,2.262-3.222,4.016-6.043,5.32c-0.616,0.279-0.258,1.339,0.394,1.124c5.197-1.675,8.305-3.451,11.398-8.054
				c3.293-4.89,3.78-14.513,5.326-21.136c1.54-6.6,4.554-15.314,8.298-22.51c5.127-9.815,12.122-18.629,18.164-27.887
				c8.419-12.93,15.558-28.581,10.145-43.295c-1.74-7.389-6.816-13.381-12.028-19.653c-1.561-1.854-2.864-4.059-3.96-6.222
				c-0.709-1.368-1.232-2.993-0.845-4.568c0.358-1.489,4.503,4.597,4.704,4.991c3.143,6.422,7.56,9.823,12.952,14.491
				c6.279,5.441,9.752,15.594,12.809,23.104c3.265,8.062,6.064,16.374,8.469,24.715c2.65,9.164,4.124,18.486,3.945,28.023
				c-0.078,4.582-0.809,9.092-0.93,13.653c-0.122,5.706-0.545,10.739-2.971,16.002c-4.998,10.754-16.453,21.544-11.849,34.581
				c1.103,3.1,3.136,5.212,5.491,7.117c-1.861-0.093-3.738,0.007-5.599,0.251c-8.197-11.957-0.236-30.937,4.683-42.973
				c3.158-7.739,7.31-16.109,7.145-24.708c-0.172-8.95-2.892-17.491-3.687-26.383c-0.029-0.351-0.551-0.236-0.53,0.107
				c0.809,10.833,4.732,21.308,2.348,32.219c-2.177,9.908-7.496,18.887-10.775,28.438c-3.078,8.899-8.406,25.058-1.504,33.707
				c-0.852,0.186-1.683,0.422-2.506,0.666c-7.202-12.379-4.36-27.621,1.418-40.072c5.999-12.916,9.809-25.875,8.455-40.187
				c-0.043-0.344-0.616-0.301-0.601,0.042c0.501,8.642-0.867,17.083-3.473,25.331c-2.541,8.098-6.88,15.45-9.321,23.577
				c-3.093,10.318-3.466,22.288,2.09,31.761c-4.904,2.033-8.706,5.505-12.579,8.42c-3.837-25.689,1.274-51.514,9.73-75.864
				c0.129-0.372-0.436-0.551-0.573-0.193c-8.134,22.217-16.152,49.008-11.541,73.064c-0.515-0.96-1.11-1.897-1.754-2.807
				c-2.126-22.016,2.485-42.249,8.985-63.47c0.1-0.315-0.372-0.487-0.479-0.172c-3.222,9.322-6.093,18.708-8.17,28.381
				c-2.234,10.274-4.153,22.138-2.312,32.849c-0.258-0.272-0.487-0.544-0.759-0.802c-6.479-6.386-15.107-8.999-24.085-8.892
				c-7.983,0.086-15.673,2.936-22.08,7.525c-0.744-5.377-3.343-9.172-7.031-11.692c-1.474-1.397-3.143-2.542-5.176-4.26
				c-3.165-2.649-5.943-5.735-8.563-8.906c-4.983-6.014-8.807-12.931-12.472-19.796
				C353.014,186.995,349.355,179.942,344.465,173.384z"/>
			<path fill="#ABC34D" d="M287.503,189.221c-5.864-11.018-11.463-22.266-16.99-33.493c2.249,1.683,4.783,3.036,7.282,4.289
				c6.465,3.286,13.553,5.398,20.519,7.331c8.47,2.377,17.133,3.952,25.596,6.358c5.155,1.468,10.518,3.25,15.114,6.05
				c3.408,2.084,6.021,4.961,9.229,7.181c2.306,4.188,4.454,8.463,6.702,12.744c3.974,7.568,8.491,14.864,13.954,21.437
				c0.559,0.637,1.089,1.295,1.661,1.955c-9.1-0.867-19.346,1.289-26.061,4.396c-1.268,0.594-2.492,1.238-3.673,1.926
				c-4.854-6.014-13.109-6.58-21.293-4.611c-0.036-0.845-0.494-1.669-1.532-2.169C303.562,215.741,294.785,202.975,287.503,189.221z
				"/>
			<path fill="#C4D974" d="M569.651,178.832c-0.243-2.527-0.802-4.897-1.582-7.16c-1.017,6.101-2.957,12.136-5.513,17.964
				c-2.878,6.616-6.58,13.217-8.04,20.334c-0.179,0.845-0.301,1.697-0.43,2.541c3.451-4.238,6.673-8.613,9.358-13.374
				C566.787,193.202,570.31,185.842,569.651,178.832z"/>
			<path fill="#C4D974" d="M418.876,138.882c-0.078-0.952-0.15-1.905-0.236-2.8c-1.095-11.183-5.069-21.765-9.128-32.226
				c-3.021-7.775-6.064-15.529-8.727-23.412C399.423,102.847,400.146,125.099,418.876,138.882z"/>
			<path fill="#C4D974" d="M464.397,151.762c-1.869,10.911-3.759,22.947-1.324,33.364c2.534-8.141,3.845-16.467,3.358-25.002
				c-0.015-0.343,0.558-0.386,0.601-0.042c0.909,9.587-0.508,18.572-3.344,27.349c0.638,2.112,1.475,4.153,2.578,6.093
				c2.284-5.234,4.468-10.467,5.678-15.994c2.384-10.911-1.539-21.386-2.348-32.219c-0.021-0.343,0.501-0.458,0.53-0.107
				c0.795,8.892,3.515,17.434,3.687,26.383c0.158,8.126-3.544,16.059-6.623,23.455c1.325,2.048,2.957,3.966,4.947,5.728
				c0.637-1.152,1.267-2.312,1.804-3.451c2.427-5.263,2.85-10.296,2.971-16.002c0.122-4.561,0.852-9.071,0.93-13.653
				c0.179-9.537-1.295-18.859-3.945-28.023c-2.405-8.341-5.205-16.653-8.469-24.715c-0.058-0.1-0.087-0.215-0.129-0.308
				C466.91,126.753,466.552,139.161,464.397,151.762z"/>
			<path fill="#C4D974" d="M295.966,177.458c5.205,3.773,11.298,7.274,17.935,7.331c7.367,0.086,13.503-3.408,18.772-8.162
				c-2.878-1.16-5.842-2.098-8.763-2.921c-8.463-2.405-17.126-3.981-25.596-6.358c-6.716-1.861-13.539-3.909-19.825-6.981
				C283.73,166.711,289.379,172.689,295.966,177.458z"/>
			<path fill="#91AB38" d="M472.437,239.761c1.561,0.38,3.043,0.874,4.489,1.439c8.678-3.451,16.825-7.818,24.637-12.887
				c-4.711-1.812-9.831-4.618-11.814-9.271c-7.904,3.221-15.715,6.651-23.247,10.689
				C467.096,233.16,468.886,236.525,472.437,239.761z"/>
			<path fill="#91AB38" d="M507.104,230.052c-7.947,5.37-16.159,10.024-24.93,13.797c3.057,1.955,5.721,4.403,7.933,7.395
				c6.472-3.408,12.028-6.83,17.455-12.221c2.671-2.664,5.313-5.384,7.904-8.12C512.667,230.933,509.868,230.676,507.104,230.052z"
				/>
			<path fill="#91AB38" d="M521.867,230.332c-1.597,0.258-3.208,0.43-4.804,0.53c-3.465,4.145-6.988,8.205-10.94,11.914
				c-3.801,3.58-9.121,8.892-14.706,10.417c0.43,0.68,0.837,1.375,1.224,2.098c7.353-0.902,17.434-11.906,22.088-17.477
				C516.949,235.136,519.376,232.687,521.867,230.332z"/>
			<path fill="#91AB38" d="M533.072,227.168c-2.649,1.031-5.362,1.897-8.134,2.541c-4.46,4.547-8.87,9.158-13.052,14.041
				c-2.342,2.728-5.542,6.644-9.2,9.508c1.74-0.294,3.48-0.515,5.269-0.473c6.845-6.809,13.969-13.346,20.477-20.505
				C529.987,230.583,531.54,228.885,533.072,227.168z"/>
			<path fill="#91AB38" d="M542.745,222.7c-2.592,1.382-5.291,2.677-8.055,3.831c-2.362,2.628-4.718,5.269-7.024,7.918
				c-5.506,6.344-11.148,12.974-17.57,18.486c1.325,0.186,4.167,1.117,5.735,1.232c11.298-2.979,16.983-16.697,24.242-25.36
				c2.584-3.071,5.248-6.079,7.911-9.121C546.246,220.73,544.514,221.74,542.745,222.7z"/>
			<path fill="#91AB38" d="M393.273,56.03c-1.117-4.318-1.905-8.634-1.962-12.694c-4.253-0.344-14.126,2.169-17.591,6.973
				c0.751,0.945,1.46,1.933,2.133,2.957C381.896,52.328,387.753,53.474,393.273,56.03z"/>
			<path fill="#91AB38" d="M419.084,155.406c0.078-1.074,0.128-2.162,0.172-3.194c-4.181,4.905-9.701,8.793-16.181,9.63
				c-0.659,0.086-1.325,0.143-1.99,0.194c-0.057,2.147-0.129,4.432-0.272,6.752C409.325,168.938,415.525,162.852,419.084,155.406z"
				/>
			<path fill="#91AB38" d="M417.437,168.014c0.185-0.888,0.322-1.768,0.479-2.67c-4.447,4.954-10.367,8.219-17.37,8.004
				c-0.58,8.327-1.453,16.575-2.176,20.835c4.797,7.16,5.72,14.735,6.98,23.971c5.613-8.664,4.947-22.167,6.68-31.366
				C413.241,180.379,415.074,174.093,417.437,168.014z"/>
			<path fill="#91AB38" d="M439.002,221.447c-0.652,7.195-0.724,14.463,0.007,21.966c0.644,0.909,1.239,1.847,1.754,2.807
				c-1.518-7.904-1.668-16.109-0.902-24.335C439.575,221.74,439.281,221.597,439.002,221.447z"/>
			<path fill="#91AB38" d="M448.23,153.394c-7.338,12.644-22.632,22.195-25.653,37.008c-2.878,14.184-0.394,29.162,4.274,43.567
				c3.444,1.439,6.63,3.487,9.422,6.229c0.272,0.258,0.501,0.53,0.759,0.802c-1.153-6.673-0.838-13.782,0.114-20.692
				c-0.107-0.078-0.236-0.15-0.336-0.222c-11.985-8.534-15.829-25.76-7.174-37.924c5.334-7.496,12.823-13.009,18.365-20.276
				c6.48-8.527,10.711-18.515,10.589-29.362c-0.057-3.924-0.523-7.768-1.339-11.527C456.814,132.33,453.851,143.693,448.23,153.394z
				"/>
			<path fill="#91AB38" d="M417.551,192.773c2.484-14.771,13.188-23.019,21.837-34.338c7.925-10.381,12.357-23.061,13.195-35.956
				c-1.94,8.277-6.229,16.374-10.933,23.598c-6.043,9.257-13.038,18.071-18.164,27.887c-3.744,7.196-6.758,15.909-8.298,22.51
				c-1.546,6.623-2.033,16.246-5.326,21.136c-3.093,4.603-6.201,6.379-11.398,8.054c-0.652,0.215-1.01-0.845-0.394-1.124
				c2.82-1.304,4.381-3.057,6.043-5.32c-1.432-7.174-3.143-17.756-8.312-24.429c-6.752-8.706-17.104-11.09-27.335-13.883
				c-9.236-2.521-17.484-6.25-25.238-11.914c-1.883-1.367-3.831-2.735-5.763-4.16c2.419,2.785,4.804,5.599,7.002,8.549
				c1.325,1.797,2.563,3.616,3.738,5.449c8.642,5.305,17.849,9.687,26.841,14.498c7.181,3.859,21.336,10.474,19.209,20.72
				c-1.797,8.685-12.851,6.43-23.068,2.105c2.09,2.392,4.296,4.69,6.716,6.723c2.033,1.718,3.702,2.864,5.176,4.26
				c3.688,2.52,6.287,6.315,7.031,11.692c6.408-4.59,14.098-7.439,22.08-7.525c3.408-0.057,6.78,0.308,10.002,1.117
				C418.51,219.814,415.325,205.917,417.551,192.773z"/>
			<path fill="#91AB38" d="M451.037,243.298c1.46-0.938,3.014-1.812,4.689-2.506c-2.985-5.084-4.238-10.89-4.31-16.782
				c-0.78,0.043-1.567,0.065-2.348,0.036C448.982,230.525,449.698,236.962,451.037,243.298z"/>
			<path fill="#91AB38" d="M444.55,223.48c-0.816-0.179-1.618-0.386-2.399-0.658c-0.565,8.756-0.307,17.591,0.996,26.39
				c1.289-0.981,2.599-2.019,3.916-3.043C445.309,238.701,444.4,231.127,444.55,223.48z"/>
			<path fill="#91AB38" d="M462.092,231.9c-1.239-3.502-1.317-6.837-0.659-10.06c-0.923,0.344-1.854,0.644-2.778,0.903
				c-0.601,6.021,0.1,11.827,3.329,16.524c1.861-0.243,3.738-0.344,5.599-0.251C465.227,237.112,463.194,235,462.092,231.9z"/>
			<path fill="#91AB38" d="M452.884,223.881c0.051,5.706,1.303,11.326,4.274,16.46c0.823-0.243,1.654-0.48,2.506-0.666
				c-3.386-4.238-3.816-10.296-3.021-16.424C455.397,223.53,454.152,223.745,452.884,223.881z"/>
			<path fill="#91AB38" d="M346.198,226.752c2.663-1.074,5.749-2.026,9.028-2.692c-2.263-4.117-4.711-8.119-7.474-11.885
				c-3.938-5.348-8.384-10.023-13.317-14.112c-0.802,5.521-3.129,10.59-8.356,13.389
				C332.301,217.123,339.096,222.141,346.198,226.752z"/>
			<path fill="#91AB38" d="M321.333,213.256c-5.377,1.439-11.234,1.181-17.062-0.293c3.952,3.845,8.47,7.138,13.739,9.651
				c1.038,0.501,1.496,1.324,1.532,2.169c8.183-1.969,16.439-1.403,21.293,4.611c0.194-0.122,0.422-0.23,0.644-0.358
				C334.335,224.282,327.54,219.098,321.333,213.256z"/>
			<path fill="#91AB38" d="M334.786,192.486c5.886,4.453,11.198,9.637,15.644,15.686c3.515,4.819,6.594,9.902,9.423,15.115
				c3.565-0.422,7.238-0.537,10.718-0.215c-0.573-0.659-1.103-1.317-1.661-1.955c-5.463-6.573-9.98-13.868-13.954-21.437
				c-2.248-4.281-4.396-8.555-6.702-12.744c-3.208-2.22-5.82-5.098-9.229-7.181c-2.219-1.346-4.603-2.449-7.052-3.43
				c1.032,2.928,1.812,5.921,2.241,9.007C334.542,187.596,334.772,190.03,334.786,192.486z"/>
			<path fill="#DB2447" d="M524.932,473.066c-3.208,5.183-8.299,9.179-13.611,11.971c-5.721,3-14.398,6.065-21.4,3.559
				c-0.68-0.258-1.289,0.458-0.795,0.966c3.737,3.809,8.362,4.997,13.181,4.496c-1.776,12.98-10.811,21.945-16.209,25.732
				c-4.389,3.078-9.057,4.417-14.262,5.305c-5.112,0.888-12.78,2.126-17.67-0.122c-0.787-0.358-1.611,0.644-0.93,1.267
				c4.653,4.282,11.763,5.141,18.708,4.232c-0.394,12.107-6.164,23.047-16.911,30.465c-9.78,6.737-23.548,7.016-33.564,0.894
				c-0.509-0.314-1.311,0.172-1.218,0.773c0.301,2.27,1.182,4.002,2.492,5.327c-3.573,11.197-18.186,16.46-24.622,18.042
				c-10.826,2.649-23.692-2.477-29.649-11.771c4.167-2.026,8.549-4.947,9.953-9.071c0.801,0.551,1.675,1.06,2.642,1.547
				c5.821,2.928,12.63,3.279,18.945,2.126c12.78-2.32,29.018-11.971,29.813-26.426c0.086-1.403-1.861-1.826-2.548-0.709
				c-6.644,10.947-15.086,18.501-27.787,21.429c-11.277,2.613-24.343-2.342-28.789-13.675c-0.279-0.694-1.368-0.25-1.21,0.444
				c1.188,5.134,2.713,9.279,5.793,12.579c-8.649,10.195-24.078,11.491-30.286,11.026c-10.976-0.823-23.255-10.546-22.367-22.274
				c9.601,1.798,19.654-0.644,25.861-9.351c0.744-1.045-0.616-2.52-1.733-1.847c-12.279,7.375-25.374,8.505-37.072-0.831
				c-5.649-4.503-9.945-11.162-11.262-18.279c-1.26-6.815,0.301-13.76,1.045-20.533c0.057-0.623-0.751-0.781-1.088-0.344
				c-1.367,1.79-2.449,3.68-3.265,5.628c-10.474-3.114-15.014-13.167-16.682-17.842c-4.059-11.477-3.179-24.006,4.661-33.858
				c0.437-0.544-1.26-1.417-3.493,0.666c-2.914,2.707-4.546,4.84-5.842,8.048c-4.991-1.812-9.115-8.255-10.976-11.477
				c-3.537-6.122-5.018-13.253-5.083-20.248c-0.057-6.787,1.897-13.553,5.241-19.417c3.458-6.035,8.749-8.849,14.176-12.716
				c0.738-0.529,0.351-1.754-0.573-1.675c-3.029,0.222-5.757,1.167-8.205,2.614c-3.136-2.098-5.957-6.301-7.746-10.711
				c-2.133-5.276-2.04-11.534-1.375-17.083c0.78-6.572,9.043-20.713,19.088-28.08c3.358,3.307,7.554,5.835,12.651,7.252
				c1.353,0.372,3.293-0.909,2.169-1.575c-9.429-5.463-16.975-14.62-19.796-26.111c-2.019-8.162-1.26-17.005,0.981-25.038
				c2.205-7.897,6.795-15.379,13.646-20.054c7.131-4.833,15.429-4.296,23.298-1.697c0.601,0.201,1.081-0.687,0.493-0.988
				c-8.119-4.139-15.357-4.525-21.522-2.363c-0.015-0.072,0.021-0.15-0.021-0.222c-2.557-6.315-1.79-14.004-0.874-16.804
				c2.076-6.2,6.373-11.727,10.804-16.395c9.494-10.002,26.705-16.568,39.306-9.615c-17.019,10.782-28.138,25.123-13.854,52.365
				c-5.334,3.494-9.859,7.955-13.882,12.974c-7.002,8.749-13.432,21.45-5.126,35.927c1.324,2.312,4.281,2.778,3.966,1.704
				c-1.819-6.021-3.05-11.398-2.205-18.408c0.787-6.507,4.224-12.386,8.255-17.469c3.809-4.811,8.412-8.834,13.56-12.15
				c5.856-3.766,13.252-5.134,20.004-4.324c1.439,0.179,0.709-2.249-2.069-3.186c-5.649-1.911-10.933-0.831-18.372,1.955
				c-3.816-9.021-8.14-21.801-2.814-31.703c4.203-7.79,12.007-14.298,19.825-18c7.21-3.437,17.706-4.554,25.574-2.886
				c8.778,1.869,14.011,9.057,14.649,14.241c-7.819,6.129-12.28,17.692-12.953,28.896c-0.043,0.673,0.952,0.745,1.039,0.086
				c3.014-19.482,22.423-35.462,42.113-33.05c19.668,2.42,27.049,23.77,25.016,40.732c-0.523,4.339,2.814,0.673,3.565-3.251
				c1.589-8.018,0.222-14.205-2.255-22.137c7.661-6.615,18.587-9.995,24.959-9.157c9.579,1.253,16.51,7.474,20.677,15.815
				c6.422,12.851,8.362,35.44-0.751,47.562c-1.196,1.589,3.472,0.051,6.816-3.859c3.35-3.916,4.632-10.453,4.718-16.883
				c0.194-10.425-1.46-18.429-5.563-27.357c4.661-1.675,10.782-3.072,16.697-1.246c7.131,2.176,13.747,7.889,18.085,13.796
				c10.467,14.305,6.501,31.18-0.466,45.786c-0.938,1.941,3.472,0.401,5.299-2.793c6.895-12.099,8.005-22.617,3.773-35.934
				c9.644,1.324,15.408,9.959,17.384,14.956c3.58,9.079,3.93,23.426-6.236,31.13c1.976,3.867,5.033,6.917,6.981,10.797
				c2.219,4.317,3.271,9.243,3.952,14.011c1.224,8.649-0.766,17.441-5.198,24.915c-4.102,6.895-11.126,11.742-18.994,13.189
				c-7.31,1.339-12.587-2.964-17.327-7.74c0.638-0.623,1.196-1.232,1.683-1.804c8.32-9.809,11.291-25.102,3.386-35.784
				c-0.73-0.988-2.326-0.164-2.09,0.981c2.055,10.296,0.988,21.293-4.776,30.207c-4.661,7.21-16.761,14.67-26.189,13.181
				c-2.958-7.625-9.029-13.374-17.427-14.563c0.007-0.007,0.021-0.015,0.021-0.015c7.561-5.018,13.002-12.458,14.456-21.393
				c1.597-9.666-0.194-20.656-4.439-29.441c-1.839-3.787-4.661-6.909-7.933-9.522c-4.754-3.802-9.78-3.558-15.536-3.358
				c-1.11,0.043-1.318,1.905-0.237,2.162c8.306,2.034,14.727,3.666,19.439,11.463c4.432,7.331,4.776,16.288,3.544,24.522
				c-2.162,14.642-13.353,25.338-27.83,26.605c-0.078-1.782-0.229-3.551-0.494-5.291c-1.231-8.133-8.162-11.598-13.868-16.324
				c-0.487-0.401-1.103,0.372-0.715,0.823c4.761,5.856,9.701,11.412,9.766,19.352c0.057,6.007-0.601,11.95-1.976,17.799
				c-3.086,13.03-10.675,21.787-24.114,23.913c-1.203,0.194-1.353,2.069-0.143,2.392c4.818,1.303,9.064,0.816,12.737-0.852
				c10.775,10.403,11.391,26.333,9.014,33.836c-2.964,9.3-12.115,20.162-28.489,18.551c-0.837-0.079-1.267,0.959-0.551,1.339
				c0.243,0.136,0.48,0.251,0.724,0.358c-2.463,5.263-1.897,13.818-1.468,19.045c0.243,2.699,2.828,10.918,5.957,5.499
				c0.329-0.595-0.315-1.296-0.945-1.081c-3.143,1.095-2.793-16.832-2.399-22.954c12.128,4.84,25.596-5.763,31.009-16.703
				c0.924-1.854,1.639-3.744,2.155-5.691c1.639,3.938,2.849,7.961,5.906,11.19c2.098,2.177,9,4.053,9.58-0.436
				c0.057-0.401-0.215-0.817-0.587-0.952c-1.704-0.551-2.828,0.773-4.554,0.666c-2.048-0.165-3.58-2.148-4.719-3.645
				c-2.012-2.613-3.487-5.634-5.219-8.455c1.139-5.427,0.795-11.041-1.017-16.475c-1.589-4.797-5.813-13.073-10.947-16.102
				c6.766-4.847,11.205-13.825,13.367-21.972c1.188-4.439,1.884-9.158,2.005-13.862c4.647,1.826,10.482-0.358,15.143-2.942
				c12.494,4.016,18.844,14.133,17.283,27.779c-0.751,6.565-3.48,12.923-7.439,18.178c-4.732,6.358-11.155,8.312-18.021,11.513
				c-0.916,0.43-0.952,1.998,0.128,2.262c7.818,1.933,15.952-3.609,20.828-9.243c2.191-2.521,3.988-5.284,5.463-8.198
				c12.895,4.059,13.539,22.088,11.026,32.942c-4.31,18.651-23.648,24.343-40.331,19.768c-0.844-0.236-1.331,0.909-0.751,1.468
				c2.721,2.584,6.079,3.995,9.651,4.568c1.847,10.332,0.845,17.233-5.721,27.307c-6.257,9.616-18.766,15.186-33.271,14.455
				c-0.709-0.029-0.845,0.945-0.207,1.181c0.966,0.351,1.962,0.616,2.943,0.859c-2.241,3.859-1.368,8.434,3.501,10.145
				c5.263,1.812,13.109-0.759,15.3-6.021c0.279-0.673-0.35-1.346-1.023-0.988c-3.867,2.012-7.238,4.496-11.778,4.56
				c-1.926,0.015-4.045-0.708-4.904-2.541c-0.716-1.49-0.272-3.23,0.286-4.833c11.742,2.348,23.119-2.62,31.367-11.499
				c4.732-5.09,10.768-17.534,8.713-32.39c4.697-0.215,9.444-1.554,13.403-3.351c8.663-3.902,14.047-11.226,16.281-20.262
				c1.976-8.026,2.556-16.854-0.186-24.786c-2.041-5.892-6.48-12.315-12.902-13.64c1.447-3.573,2.434-7.338,2.928-11.226
				c0.487-3.938,0.294-7.804-0.544-11.42c0.988,0.279,2.019,0.422,3.078,0.472c3.386,2.886,5.592,6.916,9.136,9.609
				c1.761,1.324,3.759,2.348,5.613,3.529c1.54,0.974,2.521,2.441,4.038,3.35c0.838,0.509,1.618-0.358,1.654-1.138
				c0.093-3.444-5.57-5.377-8.04-6.694c-4.267-2.249-7.231-6.071-11.29-8.67c6.93-0.222,15.028-4.812,20.434-9.379
				c1.167,2.556,2.914,4.711,5.076,6.4c4.732,6.365,6.573,15.78,5.978,23.483c-0.315,4.375-1.603,8.584-3.902,12.308
				c-1.991,3.243-4.489,6.45-7.439,8.355c-0.852,0.544,0.029,1.933,1.117,2.033c10.016,0.924,14.67-16.109,14.949-23.383
				c0.308-7.768-1.768-14.892-6.687-20.369c2.907,1.317,6.194,1.968,9.487,1.854c1.833-0.086,3.615-0.35,5.384-0.759
				c1.94,4.231,5.047,7.596,6.415,12.357c1.718,6.029,0.823,12.659-0.623,18.615c-2.399,9.887-7.181,17.484-16.446,21.3
				c-1.389-1.196-3.086-2.141-5.105-2.749c-1.059-0.308-2.191,0.88-1.503,1.689C533.344,454.851,527.674,468.634,524.932,473.066z"
				/>
			<path fill="#BA0038" d="M489.971,479.939c10.79,4.783,20.47-9.071,22.954-18.093c2.033-7.374,2.513-14.455-1.253-21.428
				c-0.738-1.361-7.274-13.06-8.52-11.313c-0.093,0.129-0.194,0.243-0.294,0.337c1.776,7.189,1.124,14.942-0.622,22.044
				c-2.234,9.036-7.618,16.36-16.281,20.262c-3.96,1.797-8.706,3.136-13.403,3.351c2.055,14.856-3.98,27.3-8.713,32.39
				c-0.609,0.659-1.253,1.31-1.912,1.933c13.79,8.441,26.662-15.129,25.267-27.3C487.028,480.648,488.511,479.302,489.971,479.939z"
				/>
			<path fill="#BA0038" d="M531.934,410.691c-0.136,3.658-1.381,9.773-3.866,14.842c11.018-2.871,19.281-18.436,14.956-28.982
				c-0.716-1.146-1.432-2.298-2.09-3.487c-0.229-0.279-0.451-0.559-0.694-0.795c-0.243-0.265-0.387-0.53-0.458-0.795
				c-1.647,0.38-3.329,0.616-5.048,0.702c-3.293,0.114-6.58-0.537-9.487-1.854C530.165,395.798,532.242,402.922,531.934,410.691z"/>
			<path fill="#BA0038" d="M505.622,388.238c-3.301,1.504-6.723,2.527-9.902,2.635c3.801,2.427,6.644,5.906,10.489,8.205
				C506.567,395.391,506.324,391.617,505.622,388.238z"/>
			<path fill="#BA0038" d="M495.097,416.046c6.215-2.262,9.487-7.876,10.704-14.184c-0.709-0.43-1.389-0.88-2.055-1.367
				c-3.544-2.692-5.749-6.723-9.136-9.609c-1.059-0.05-2.09-0.193-3.078-0.472c0.838,3.615,1.031,7.482,0.544,11.42
				c-0.494,3.888-1.482,7.653-2.928,11.226C491.374,413.519,493.358,414.607,495.097,416.046z"/>
			<path fill="#BA0038" d="M518.28,379.561c2.026,2.033,4.153,3.988,6.472,5.441c0.158-0.136,0.315-0.251,0.523-0.351
				c10.303-4.954,17.491-16.23,17.441-27.772c-0.05-6.494-2.155-12.458-6.572-17.277c-2.198-2.363-6.537-6.365-10.21-4.403
				c-2.578,1.361-3.215,3.831-3.15,6.386c0.222,0.065,0.422,0.165,0.565,0.386c7.905,10.683,4.933,25.975-3.386,35.784
				C519.476,378.329,518.918,378.937,518.28,379.561z"/>
			<path fill="#BA0038" d="M535.879,310.535c10.303-2.621,13.847-18.931,10.21-28.846c-2.37-1.668-5.147-2.943-8.37-3.386
				C541.499,290.251,540.998,299.938,535.879,310.535z"/>
			<path fill="#BA0038" d="M507.62,302.401c-4.016-6.422-4.446-16.145-4.803-23.477c-0.365-7.51-0.172-14.985,1.375-22.324
				c-3.587,0.129-6.988,1.053-9.859,2.091c4.103,8.928,5.757,16.932,5.563,27.357c-0.086,6.43-1.367,12.966-4.718,16.883
				c-3.344,3.909-8.012,5.448-6.816,3.859c2.42-3.243,4.081-7.231,5.054-11.577c-23.254,19.811-52.122-22.095-42.693-47.533
				c-2.549,1.361-5.04,2.985-7.246,4.89c2.477,7.933,3.845,14.119,2.255,22.137c-0.751,3.924-4.088,7.59-3.565,3.251
				c0.895-7.503-0.05-15.859-3.065-23.054c-0.078,0.386-0.143,0.759-0.236,1.138c-1.489,6.215-7.675,9.315-13.431,10.668
				c-10.661,2.513-47.419,10.332-45.958-9.043c-2.205,3.909-3.744,8.162-4.438,12.609c-0.087,0.658-1.081,0.587-1.039-0.086
				c0.673-11.205,5.134-22.767,12.953-28.896c-0.337-2.785-2.019-6.143-4.848-8.942c-2.327,10.496-10.467,20.462-17.942,26.892
				c-9.974,8.598-25.181,16.846-37.946,10.732c1.002,3.466,2.269,6.759,3.501,9.666c7.439-2.785,12.723-3.866,18.372-1.955
				c2.778,0.938,3.508,3.365,2.069,3.186c-3.122-0.372-6.379-0.272-9.587,0.322c4.024,2.563,0.573,12.128-1.525,16.267
				c-4.303,8.491-10.138,16.56-19.123,20.555c-2.964,1.339-7.482,2.907-10.181,0.221c-0.774-0.744-1.232-1.653-1.475-2.649
				c-0.658,6.637,0.537,11.843,2.277,17.634c0.315,1.074-2.642,0.609-3.966-1.704c-8.306-14.477-1.876-27.179,5.126-35.927
				c4.024-5.019,8.549-9.48,13.882-12.974c-14.283-27.242-3.164-41.583,13.854-52.365c-4.411-2.427-9.387-3.215-14.391-2.764
				c2.864,19.574-17.792,44.834-36.543,34.431c-0.158,3.372,0.215,7.474,1.697,11.148c0.042,0.072,0.007,0.15,0.021,0.222
				c3.551-1.253,7.467-1.639,11.72-0.952c0.68-0.315,1.568-0.207,2.07,0.415c2.484,0.595,5.062,1.54,7.732,2.9
				c0.587,0.301,0.108,1.188-0.493,0.988c-2.205-0.738-4.454-1.295-6.709-1.611c0.88,13.367-12.2,57.227-27.185,58.609
				c3.773,6.73,9.329,12.179,15.766,15.902c1.124,0.666-0.816,1.947-2.169,1.575c-3.236-0.902-6.093-2.241-8.62-3.945
				c11.012,13.862,0.694,44.19-17.255,49.531c1.017,1.253,2.126,2.276,3.257,3.036c2.449-1.447,5.177-2.392,8.205-2.614
				c0.924-0.078,1.31,1.146,0.573,1.675c-3.93,2.8-7.811,5.069-10.961,8.398c9.601,4.188,11.29,21.837,8.749,30.816
				c-1.804,6.379-4.754,12.694-8.598,18.472c2.026,2.599,4.59,5.141,7.453,6.172c1.296-3.208,2.928-5.341,5.842-8.048
				c2.234-2.083,3.93-1.21,3.493-0.666c-7.84,9.852-8.72,22.381-4.661,33.858c1.668,4.675,6.208,14.728,16.682,17.842
				c0.816-1.948,1.897-3.838,3.265-5.628c0.337-0.437,1.145-0.279,1.088,0.344c-0.673,6.079-1.969,12.3-1.331,18.422
				c7.145-3.479,17.004,0.881,23.24,5.678c4.833,3.73,13.761,13.296,12.537,20.734c4.317-0.888,8.642-2.664,12.844-5.191
				c1.117-0.673,2.477,0.802,1.733,1.847c-6.208,8.706-16.26,11.148-25.861,9.351c-0.186,2.435,0.215,4.79,1.031,7.01
				c15.164,5.592,32.004,0.444,46.438-5.95c-0.207-0.766-0.408-1.568-0.609-2.392c-0.158-0.694,0.931-1.139,1.21-0.444
				c0.322,0.809,0.687,1.576,1.095,2.306c1.324,0.029,2.183,1.561,1.782,2.749c1.16,1.532,2.506,2.864,4.009,4.017
				c-0.702-7.726,12.98-15.802,18.042-18.186c10.21-4.804,23.527-6.759,30.171,3.673c0.501-0.76,0.995-1.532,1.475-2.313
				c0.687-1.117,2.634-0.694,2.548,0.709c-0.336,6.351-3.666,11.756-8.377,16.038c1.06,0.301,1.977,1.361,1.532,2.699
				c-0.143,0.436-0.315,0.859-0.472,1.274c1.181,0.652,2.413,1.246,3.666,1.719c-2.227-9.837,8.205-20.699,15.958-25.388
				c9.329-5.649,20.212-7.911,29.491-4.353c0.164-1.288,0.279-2.592,0.322-3.895c-6.944,0.909-14.054,0.05-18.708-4.232
				c-0.68-0.622,0.143-1.625,0.93-1.267c0.867,0.394,1.833,0.694,2.85,0.888c-2.133-3.78-1.919-8.198-0.272-12.265
				c-7.16,4.869-15.615,7.131-24.272,5.392c-0.558,1.603-1.002,3.343-0.286,4.833c0.859,1.833,2.978,2.556,4.904,2.541
				c4.54-0.064,7.911-2.548,11.778-4.56c0.673-0.358,1.303,0.315,1.023,0.988c-2.191,5.263-10.038,7.833-15.3,6.021
				c-4.869-1.711-5.742-6.286-3.501-10.145c-0.981-0.243-1.977-0.508-2.943-0.859c-0.637-0.236-0.501-1.21,0.207-1.181
				c14.505,0.73,27.014-4.84,33.271-14.455c6.565-10.073,7.568-16.975,5.721-27.307c-3.573-0.573-6.93-1.983-9.651-4.568
				c-0.58-0.559-0.093-1.704,0.751-1.468c16.682,4.575,36.02-1.117,40.331-19.768c2.513-10.854,1.869-28.882-11.026-32.942
				c-1.475,2.914-3.272,5.678-5.463,8.198c-4.876,5.634-13.01,11.176-20.828,9.243c-1.067-0.265-1.045-1.811-0.143-2.241
				c-0.315,0.014-0.616,0.043-0.909,0.057c-0.315,0.057-0.63,0.107-0.938,0.164c-0.401,0.051-0.752-0.007-1.032-0.179
				c-2.67-0.086-5.355-0.479-7.961-0.837c1.318,4.861,1.504,9.837,0.479,14.656c1.733,2.821,3.208,5.842,5.219,8.455
				c0.759,1.002,1.69,2.198,2.828,2.95c-0.795-2.778-0.773-5.814,0.344-8.742c4.002-10.532,17.691-22.288,29.712-18.823
				c7.589,0.165,8.09,9.214,6.286,15.623c-2.534,8.956-9.086,20.734-19.044,22.911c-6.508,1.417-12.708-2.155-15.802-7.489
				c-1.633-0.401-3.215-1.21-4.046-2.062c-3.057-3.229-4.267-7.252-5.906-11.19c-0.516,1.947-1.232,3.837-2.155,5.691
				c-5.413,10.94-18.88,21.544-31.009,16.703c-0.394,6.122-0.744,24.049,2.399,22.954c0.63-0.215,1.274,0.487,0.945,1.081
				c-3.129,5.419-5.713-2.8-5.957-5.499c-0.43-5.227-0.996-13.782,1.468-19.045c-0.243-0.107-0.48-0.222-0.724-0.358
				c-0.716-0.38-0.286-1.418,0.551-1.339c1.697,0.179,3.323,0.179,4.869,0.086c-7.282-10.632-2.749-25.761,4.274-35.591
				c3.114-4.36,9.859-11.134,15.351-10.575c-1.346-2.241-3.015-4.382-5.019-6.307c-3.673,1.668-7.919,2.155-12.737,0.852
				c-0.487-0.129-0.738-0.501-0.809-0.916c-6.587,0.751-13.367-0.473-19.711-3.043c-4.167-1.675-8.541-4.067-10.038-8.57
				c-1.174-3.544,0.616-8.699,4.038-10.389c5.527-2.728,12.543-1.468,18.414-0.952c9.501,0.823,17.219-3.673,22.603-7.89
				c5.37-4.224,9.58,2.807,10.067,3.903c1.088-5.069,1.632-10.217,1.653-15.415c-3.322,3.043-9.1,2.542-11.269,0.279
				c-2.155-2.255-5.419-4.618-11.878-2.413c-6.457,2.205-19.546,0.63-11.663-8.642c5.348-6.308,15.701-10.84,24.063-9.429
				c0.401,0.064,0.795,0.164,1.174,0.25c-0.065-0.071-0.129-0.157-0.179-0.229c-0.387-0.451,0.229-1.224,0.715-0.823
				c0.938,0.78,1.926,1.532,2.9,2.262c1.633,0.802,3.079,1.919,4.26,3.343c3.272,2.757,5.985,5.922,6.708,10.718
				c0.265,1.741,0.416,3.509,0.494,5.291c7.274-0.644,13.704-3.651,18.601-8.362c-7.947-1.732-18.093-12.336-21.83-18.121
				c-5.026-7.797-6.766-15.494-4.403-24.665c1.725-6.652,5.907-11.634,11.777-12.516c0.029-0.529,0.351-1.052,0.938-1.088
				c5.276-0.179,9.93-0.401,14.326,2.485c4.425-6.845,14.205-2.141,20.448,1.367c5.213,2.943,10.145,6.651,15.651,9.014
				c6.301,2.699,13.102,0.286,18.673-3.437c0-0.122,0.014-0.257,0.114-0.451c0.458-0.974,0.909-1.962,1.354-2.971
				c-0.68-1.074-0.15-2.864,1.303-3.15c0.494-1.282,0.966-2.57,1.382-3.873C524.574,312.646,513.576,311.881,507.62,302.401z
				 M352.42,285.97c9.107-10.01,23.999-14.212,36.772-9.193c1.211,0.458,1.217,1.776,0.587,2.556
				c8.276,2.341-3.73,16.46-6.093,19.295c-6.608,7.897-15.608,17.456-27.242,14.513C343.298,309.804,344.659,294.475,352.42,285.97z
				 M338.902,344.127c12.695-9.794,33.142-10.102,42.393,4.504c0.708,1.124,0.05,2.885-1.475,2.649
				c-10.589-1.675-22.331,1.603-27.014,12.157c-4.51,10.181-1.79,20.92,5.091,29.29c0.522,0.637,0.472,1.833-0.272,2.298
				c-1.138,0.716-2.256,1.174-3.294,1.439c1.188,0.193,4.833,1.303,4.941,2.09c0.873,6.437-3.158,10.346-8.276,13.575
				c-2.95,1.869-8.105,4.181-9.516,7.603c-1.589,3.873-1.625,8.155-1.711,12.3c-0.078,4.969,1.017,11.843-4.754,13.711
				c-4.754,1.532-10.403-1.826-14.005-5.248c-0.265-0.1-0.523-0.293-0.723-0.594c-0.093-0.129-0.165-0.272-0.243-0.401
				c-0.165-0.179-0.315-0.344-0.466-0.509c-0.287-0.307-0.386-0.651-0.401-0.959c-8.083-15.243,3.365-45.006,21.966-45.249
				C330.017,379.21,322.343,356.914,338.902,344.127z M306.24,421.366c-3.337,9.207-9.222,20.476-19.145,23.863
				c-0.952,0.315-1.74-0.2-2.097-0.894c-0.2-0.115-0.386-0.265-0.565-0.509c-6.781-9.809-12.651-24.2-4.776-35.211
				c4.267-5.943,14.677-16.138,23.069-11.448C311.044,401.842,308.961,413.877,306.24,421.366z M294.355,385.116
				c-0.759,0.323-1.747,0.172-2.205-0.766c-6.651-13.102,5.033-26.769,16.918-31.524c4.017-1.611,10.252-3.744,14.255-0.816
				c4.046,2.985,3.867,8.326,2.506,12.737C323.23,373.174,301.636,391.08,294.355,385.116z M340.313,519.224
				c-9.387,3.007-18.937-0.251-25.918-6.895c-8.856-8.42-11.735-21.25-10.74-33.056c1.031-12.071,5.141-26.434,17.613-31.145
				c0.279-0.1,0.529-0.128,0.78-0.1c0.372-0.172,0.816-0.208,1.289-0.036c2.477,0.952,4.632,1.754,6.587,3.644
				c0.53,0.515,0.845,1.188,0.53,1.926c-4.389,10.03-5.241,23.305-1.747,33.75c1.367,4.117,3.623,9.307,8.176,10.739
				c6.201,1.947,12.2-2.57,16.668-6.293c1.152-0.959,2.728,0.129,2.642,1.482C355.449,503.587,351.253,515.701,340.313,519.224z
				 M425.484,480.003c4.626-8.398,17.448-20.348,27.607-12.372c6.158,4.826,7.697,13.317,6.745,21.171
				c0.301,0.293,0.487,0.738,0.394,1.296c-0.337,1.961-1.024,3.866-1.948,5.706c-0.207,0.622-0.436,1.238-0.673,1.826
				c-0.193,0.508-0.558,0.802-0.959,0.916c-5.513,8.048-16.059,13.725-25.195,11.541
				C417.938,506.852,420.487,489.06,425.484,480.003z M415.439,499.614c3.029,2.642,3.916,6.458,3.801,10.281
				c0.867,0.237,1.633,1.103,1.26,2.199c-5.756,17.076-25.116,30.178-43.423,26.433c-6.53-1.331-14.978-3.974-17.678-10.861
				c-2.004-5.12-0.881-10.675,2.306-15.085c7.983-11.019,24.078-16.417,37.251-17.055
				C404.693,495.254,410.914,495.661,415.439,499.614z M398.435,445.809c-0.201-2.541,2.598-1.453,4.252,0.76
				c3.051,4.066,6.337,14.247,6.036,22.889c-0.323,9.208-5.47,17.77-13.532,22.374c-13.124,7.446-32.132,7.417-41.433-4.862
				c-12.659-10.539-7.474-29.792,2.635-41.648c0.437-0.508,5.463-4.554,5.277-3.945c-4.189,13.653,5.892,26.305,18.808,25.403
				C393.38,465.892,399.309,456.548,398.435,445.809z M414.723,355.239c-1.41,0.523-3.15-1.174-1.955-2.477
				c8.37-9.207,9.609-26.863,3.68-37.674c-5.183-9.472-22.961-14.291-29.533-2.836c-2.441,4.232-4.625,2.764-4.146,0.716
				c5.757-24.293,40.488-39.342,56.239-15.494C452.734,318.267,435.736,347.557,414.723,355.239z"/>
			<path fill="#BA0038" d="M418.883,560.549c-5.677,4.282-12.672,7.131-18.873,8.255c-6.315,1.153-13.123,0.802-18.945-2.126
				c-0.966-0.487-1.84-0.996-2.642-1.547c-0.387,1.095-0.967,2.105-1.69,3.043c0.165,0.114,0.329,0.265,0.494,0.458
				C387.789,582.952,412.905,576.036,418.883,560.549z"/>
			<path fill="#BA0038" d="M472.895,371.763c0,0-0.021,0.007-0.029,0.015c3.014,0.43,5.721,1.453,8.105,2.921
				c0.365-0.415,0.93-0.702,1.625-0.666c26.176,1.274,28.624-54.106,0.709-52.194c3.96,8.62,5.578,19.173,4.038,28.531
				C485.89,359.306,480.449,366.745,472.895,371.763z"/>
			<path fill="#BA0038" d="M466.724,400.273c2.427-6.594,6.25-19.41-0.551-24.787c-3.916,1.705-8.219,2.692-11.806,1.282
				c-0.122,4.704-0.817,9.422-2.005,13.862c-2.162,8.147-6.601,17.126-13.367,21.972c2.971,1.754,5.62,5.249,7.653,8.814
				c0.129-0.029,0.251-0.065,0.401-0.079C457.08,420.299,463.602,408.772,466.724,400.273z"/>
			<path d="M404.929,447.548c-0.902-1.224-3.837-2.978-3.122-1.567c3.451,6.73,5.964,14.67,4.818,24.858
				c-1.425,12.758-14.412,19.961-25.237,22.782c-11.957,3.122-23.956-2.699-30.407-12.823c-8.026-12.608,3.737-32.992,11.126-39.127
				c3.601-2.993-3.816,0.437-6.272,2.85c-9.336,9.157-13.639,18.149-11.069,32.132c2.42,13.059,17.269,22.216,29.577,23.211
				c14.377,1.167,31.575-7.883,35.555-21.529C414.394,462.992,409.418,453.513,404.929,447.548z"/>
			<path d="M302.668,423.12c0.007-0.466-0.673-0.458-0.709-0.007c-0.165,1.633-1.117,3.323-1.74,4.84
				c-0.974,2.427-2.07,4.826-3.337,7.138c-1.059,1.941-2.198,4.038-4.002,5.37c-1.16,0.867-2.277-2.012-3.1-2.634
				c-0.479-0.358-1.253-0.122-1.446,0.458c-0.659,2.183,0.845,5.062,3.215,5.499c2.241,0.43,4.002-1.425,5.219-3.057
				C300.369,435.843,302.581,429.177,302.668,423.12z"/>
			<path d="M302.295,458.059c-1.317-0.744-2.979-1.246-4.46-1.518c-0.63-0.114-0.802,0.716-0.401,1.074
				c0.494,0.386,1.052,0.751,1.639,1.017c-1.496,2.885-4.668,5.262-6.923,7.568c-2.499,2.535-5.105,5.105-6.966,8.162
				c-2.534,4.181-1.554,9.515,1.675,9.565c0.344-0.007,0.587-0.509,0.537-0.853c-0.429-2.448-2.083-2.971-0.816-5.763
				c1.217-2.677,3.344-4.991,5.213-7.189c2.942-3.451,6.364-6.866,7.84-11.276c0.845,0.307,1.761,0.408,2.649,0.172
				C302.775,458.889,302.639,458.26,302.295,458.059z"/>
			<path d="M434.971,289.872c-6.301-4.904-15.494-7.189-23.363-6.029c-3.394,0.509-6.379,1.511-9.043,2.907
				c-2.513-5.384-9.315-9.05-14.627-10.847c-6.759-2.284-14.162-1.704-20.892,0.301c-15.429,4.576-26.419,18.472-25.309,34.682
				c0.035,0.63,1.081,0.551,1.102-0.065c0.279-13.317,9.616-24.242,21.594-29.211c5.892-2.442,12.279-2.993,18.508-1.948
				c3.515,0.609,11.155,3.566,15.565,9.702c-10.983,6.794-19.567,19.818-19.324,34.266c0.05,2.886,2.033,5.577,2.749,0.766
				c2.477-16.61,12.25-31.023,27.973-34.846c6.651-1.611,13.796-0.122,19.703,3.107c2.842,1.546,8.298,6.272,10.668,15.007
				c0.544,2.033,3.25-1.583,2.499-5.814C442.016,297.633,439.331,293.251,434.971,289.872z"/>
			<path d="M429.207,338.894c-3.257,8.169-8.276,14.964-20.634,17.191c-14.42,2.577-23.505-0.559-28.324-9.272
				c-0.38-0.673-1.468-0.272-1.268,0.479c1.604,5.892,5.807,9.623,10.969,11.628c-9.551,12.465-14.355,43.108,4.683,48.242
				c1.139,0.301,2.491-1.425,1.331-2.012c-7.632-3.845-10.889-11.083-10.811-20.519c0.051-7.84,4.095-17.706,6.645-25.08
				c15.343,3.909,28.91-3.322,34.094-9.293C431.849,343.376,429.709,337.641,429.207,338.894z"/>
			<path d="M420.301,503.809c-0.15-1.188-1.855-1.26-2.262-0.201c-2.764,7.482-4.439,14.434-9.98,20.541
				c-6.172,6.809-15.522,10.617-24.565,11.098c-15.415,0.816-34.603-16.697-28.023-32.763c0.287-0.73-0.401-1.489-1.124-1.067
				c-2.8,1.568-4.203,5.084-4.496,7.854c-6.895,12.501-20.935,12.494-26.562,10.804c-9.888-2.971-15.766-13.889-18.458-23.069
				c-2.599-8.87-1.697-19.095,0.916-27.836c2.649-8.814,8.384-14.785,15.844-19.338c1.26,1.131,2.664,2.083,4.282,2.792
				c1.11,0.501,1.94-0.959,1.289-1.761c-7.167-9.05-9.917-22.926-7.733-33.729c2.055-10.167,10.06-19.961,19.818-23.462
				c8.706,5.821,15.486,6.122,24.171,5.377c2.692-0.229,7.138-3.257,4.51-2.85c-7.775,1.224-14.148,0.631-21.135-2.606
				c-7.668-3.537-13.825-11.212-16.209-19.224c-5.886-19.761,11.119-41.125,32.777-37.159c0.637,0.108,0.816-0.902,0.215-1.081
				c-16.675-4.883-30.056,5.054-35.018,19.302c-7.611-12.544-23.749-7.088-32.104,2.449c-4.782,5.463-7.947,12.336-9.265,19.438
				c-1.059,5.749-0.888,15.387,4.396,19.224c-5.921,2.799-11.276,7.296-13.99,11.463c-6.959,10.611-6.422,31.316,6.508,37.316
				c1.074,0.494,1.804-0.837,1.268-1.675c-6.358-10.031-10.468-19.395-5.276-31.109c4.969-11.169,20.906-18.285,32.139-13.259
				c0.537,0.229,0.946-0.501,0.602-0.895c-4.711-5.477-11.928-5.449-18.758-2.886c-3.158-5.198-6.322-17.82,3.379-32.211
				c3.243-4.812,8.04-8.95,13.604-10.754c6.429-2.091,11.856,1.375,16.804,5.062c-1.188,4.246-1.647,8.799-1.253,13.41
				c0.673,7.94,4.46,15.071,10.088,20.455c-9.301,3.265-17.52,12.164-20.899,23.162c-2.842,9.293-3,24.308,3.687,32.921
				c-19.947,9.436-23.398,38.139-15.522,56.783c4.139,9.801,12.035,18.73,22.747,21.049c8.555,1.854,19.725-2.427,24.056-10.288
				c0.867,3.086,2.234,6.028,3.466,8.19c4.961,8.828,12.722,15.05,22.725,17.047c10.209,2.048,20.82-1.238,29.29-6.916
				c4.095-2.764,7.761-6.516,10.403-10.683C420.68,516.332,421.189,511.177,420.301,503.809z"/>
		</g>
		<path fill="#C4D974" d="M289.616,175.61c4.554,3.903,12.973,11.284,20.04,12.128c7.06,0.853,15.336-1.983,16.997-3.078
			c1.676-1.074-3.708,11.849-17.384,8.413C295.608,189.636,286.823,173.219,289.616,175.61z"/>
		<path fill="#C4D974" d="M463.845,135.374c0.165,2.892-2.563,21.436-3.78,27.178c-1.196,5.742-0.881,16.023-0.194,18.673
			c0.716,2.634-7.159-8.542-4.84-19.274C457.345,151.225,463.609,130.992,463.845,135.374z"/>
		<path fill="#C4D974" d="M564.782,179.226c-1.01,2.348-7.782,18.007-9.494,21.637c-1.732,3.637-3.68-7.862-0.287-12.573
			C558.375,183.572,567.625,172.668,564.782,179.226z"/>
		<path fill="#C4D974" d="M527.28,223.093c2.398-2.434,15.021-14.319,17.491-17.863c2.477-3.53-7.775,0.859-10.431,3.866
			C531.669,212.096,522.032,228.349,527.28,223.093z"/>
		<path fill="#C4D974" d="M534.977,220.695c1.89-2.012,9.851-11.62,12.258-14.656c2.419-3.035,0.093,5.649-3.387,9.065
			C540.361,218.526,531.755,224.146,534.977,220.695z"/>
		<path fill="#C4D974" d="M399.029,84.862c-0.172,2.534-0.551,15.293,0.458,21.794c1.01,6.522,3.158,14.197,4.425,16.403
			c1.282,2.198-5.735-5.614-7.303-18.014C394.253,86.322,399.416,79.521,399.029,84.862z"/>
		<path fill="#FF7D85" d="M308.768,470.266c2.276-5.778,12.064,2.269,18.228,19.474c6.164,17.184,3.38,26.72-5.356,24.035
			C312.927,511.084,301.651,488.344,308.768,470.266z"/>
		<path fill="#FF7D85" d="M323.073,433.315c-3.831-9.594-3.136-21.758,8.477-29.426c11.606-7.647,6.645,13.131,3.043,22.581
			C330.991,435.914,326.867,442.823,323.073,433.315z"/>
		<path fill="#FF7D85" d="M297.355,373.461c1.461-7.253,7.54-16.811,19.382-17.427C328.557,355.433,293.303,393.543,297.355,373.461
			z"/>
		<path fill="#FF7D85" d="M283.73,425.31c-1.925-8.591,1.418-18.758,13.36-22.259C309.025,399.551,286.931,439.68,283.73,425.31z"/>
		<path fill="#FF7D85" d="M277.744,317.629c-6.558-9.923-3.451-28.638,11.67-35.626C304.543,275.03,285.384,329.235,277.744,317.629
			z"/>
		<path fill="#FF7D85" d="M316.987,305.881c-0.509-9.816,11.785-18.228,19.675-19.846
			C346.778,283.958,317.997,324.932,316.987,305.881z"/>
		<path fill="#FF7D85" d="M297.083,252.491c0.051-10.661,12.967-19.009,21.981-18.751
			C328.099,233.998,296.968,273.862,297.083,252.491z"/>
		<path fill="#FF7D85" d="M332.015,249.276c3.365-12.222,18.329-22.481,36.901-19.439
			C387.452,232.888,323.252,281.137,332.015,249.276z"/>
		<path fill="#FF7D85" d="M395.635,247.05c6.344-6.816,25.367-12.594,33.113-1.79C436.517,256.071,377.7,266.28,395.635,247.05z"/>
		<path fill="#FF7D85" d="M358.771,293.623c2.921-8.649,16.46-13.661,24.278-10.245C390.86,286.786,352.377,312.611,358.771,293.623
			z"/>
		<path fill="#FF7D85" d="M411.458,293.372c10.217-5.018,23.72,1.203,25.131,16.997
			C437.964,326.171,393.975,301.964,411.458,293.372z"/>
		<path fill="#FF7D85" d="M456.542,253.536c4.053-6.351,22.467-8.821,29.341,9.279C492.764,280.915,445.402,271.121,456.542,253.536
			z"/>
		<path fill="#FF7D85" d="M374.515,511.9c6.959-5.463,32.97-14.148,35.046-4.017c1.983,9.623-6.794,22.209-21.672,22.89
			C372.99,531.453,363.625,520.456,374.515,511.9z"/>
		<path fill="#FF7D85" d="M379.712,475.507c8.098-7.439,23.52-17.749,24.458-7.711c0.687,7.374-13.489,23.655-23.684,21.786
			C370.29,487.693,374.178,480.591,379.712,475.507z"/>
		<path fill="#FF7D85" d="M352.391,463.164c2.563-7.081,10.03,1.239,13.024,8.148c4.518,10.41-0.523,18.035-4.296,15.114
			C357.36,483.512,348.704,473.423,352.391,463.164z"/>
		<path fill="#FF7D85" d="M426.673,396.973c7.267-5.713,16.796-8.548,15.45-2.312c-1.99,9.186-10.03,14.728-17.527,15.472
			C417.086,410.877,418.504,403.395,426.673,396.973z"/>
		<path fill="#FF7D85" d="M462.743,339.023c2.112-8.763,12.071-18.293,15.866-8.785c3.809,9.501-0.38,23.805-4.833,26.569
			C469.33,359.564,459.485,352.611,462.743,339.023z"/>
		<path fill="#FF7D85" d="M527.803,276.912c5.735,4.89,8.033,20.57,1.847,25.717C513.197,316.291,514.378,265.421,527.803,276.912z"
			/>
		<path fill="#FF7D85" d="M424.231,440.525c4.654-8.062,15.214-17.09,17.197-6.15c1.969,10.918-2.628,21.901-10.425,25.058
			C423.222,462.62,418.002,451.307,424.231,440.525z"/>
		<path fill="#FF7D85" d="M434.154,481.206c7.131-10.217,18.629-14.398,21.379,0.107c2.749,14.491-7.675,22.932-16.896,24.286
			C429.415,506.96,426.207,492.597,434.154,481.206z"/>
		<path fill="#FF7D85" d="M491.904,438.785c4.453,7.582-4.153,20.892-11.843,23.255c-7.697,2.37-12.006-11.155-5.864-19.625
			C479.124,435.599,488.461,432.929,491.904,438.785z"/>
		<path fill="#FF7D85" d="M496.479,503.509c0.365,8.19-10.26,16.861-19.467,18.221C467.798,523.091,495.785,488.609,496.479,503.509
			z"/>
		<path fill="#FF7D85" d="M525.326,455.131c3.78,9.623-2.133,21.293-13.045,26.412C505.3,484.822,520.908,443.926,525.326,455.131z"
			/>
		<path fill="#FF7D85" d="M443.491,547.318c8.906-6.436,23.033-13.682,21.772-3.136c-1.268,10.539-17.04,18.522-24.629,20.076
			C433.045,565.805,431.785,555.788,443.491,547.318z"/>
		<path fill="#FF7D85" d="M388.412,553.877c2.664-7.274,18.386-19.646,28.416-10.568C429.443,554.686,383.5,567.272,388.412,553.877
			z"/>
		<path fill="#FF7D85" d="M305.094,528.238c1.124,9.451,12.229,14.821,18.823,14.598
			C334.657,542.486,303.226,512.487,305.094,528.238z"/>
		<path fill="#FF7D85" d="M517.485,342.302c5.076,11.355,2.041,24.099-6.235,31.352
			C502.973,380.871,509.696,324.918,517.485,342.302z"/>
		<path fill="#FF7D85" d="M555.274,342.732c6.15,10.052,1.848,25.717-5.613,33.042C542.201,383.126,544.95,325.863,555.274,342.732z
			"/>
		<path fill="#FF7D85" d="M523.629,400.624c5.635,6.831-0.186,22.203-6.444,26.391C510.92,431.189,515.338,390.586,523.629,400.624z
			"/>
		<path fill="#FF7D85" d="M352.878,561.946c9.271-0.996,20.477,0.809,14.212,4.997c-6.265,4.188-20.348,4.962-25.932,3.479
			C335.595,568.919,342.039,563.12,352.878,561.946z"/>
		<path fill="#DB2447" d="M358.957,415.423c9.186-7.961,21.744-9.744,21.379,0.078c-0.35,9.845-12.071,18.3-20.369,18.959
			C351.661,435.098,349.785,423.363,358.957,415.423z"/>
		<path fill="#DB2447" d="M362.923,375.58c2.234-11.247,15.222-17.09,16.682-8.699c1.46,8.398-3.544,22.618-8.592,23.641
			C365.944,391.56,360.847,386.019,362.923,375.58z"/>
		<path fill="#DB2447" d="M397.196,336.918c8.155-2.485,19.317,8.277,10.181,11.098
			C391.984,352.733,383.529,341.027,397.196,336.918z"/>
		<path fill="#FF7D85" d="M468.45,407.991c6.035-9.15,15.736-14.563,15.673-7.167c-0.072,7.396-8.406,22.03-15.272,24.493
			C461.963,427.788,462.414,417.142,468.45,407.991z"/>
		<path fill="#FFC9CE" d="M427.374,441.735c3.831-8.771,13.919-13.153,13.274-0.874c-0.652,12.258-7.024,17.255-10.976,15.945
			C425.728,455.518,423.966,449.546,427.374,441.735z"/>
		<path fill="#FFC9CE" d="M437.82,484.943c4.31-8.534,17.169-12.744,16.511-0.479c-0.644,12.258-5.191,15.83-11.978,17.469
			C435.58,503.595,433.517,493.471,437.82,484.943z"/>
		<path fill="#FFC9CE" d="M477.241,444.434c4.138-4.854,13.231-7.467,13.181-0.065c-0.078,7.389-4.911,13.396-9.98,14.434
			C475.401,459.827,471.492,451.143,477.241,444.434z"/>
		<path fill="#FFC9CE" d="M518.28,465.82c3.566-6.895,7.561-8.155,6.787-1.654c-0.787,6.48-5.334,10.046-8.062,12.186
			C514.285,478.5,515.066,472.006,518.28,465.82z"/>
		<path fill="#FFC9CE" d="M472.416,409.288c5.119-8.434,11.19-10.99,9.701-5.406c-1.496,5.577-5.413,10.861-9.351,16.145
			C468.85,425.318,467.29,417.729,472.416,409.288z"/>
		<path fill="#FFC9CE" d="M430.31,400.273c3.809-3.487,12.902-7.754,9.58-2.184c-3.337,5.585-6.344,8.542-10.439,9.387
			C425.377,408.321,425.835,404.383,430.31,400.273z"/>
		<path fill="#FFC9CE" d="M387.015,476.381c6.015-6.279,16.252-12.043,15.472-5.557c-0.787,6.487-9.952,14.442-15.021,15.48
			C382.412,487.342,381.381,482.273,387.015,476.381z"/>
		<path fill="#FFC9CE" d="M396.416,514.52c3.508-6.035,9.479-10.374,11.04-2.778c1.647,8.026-3.708,10.246-7.954,11.384
			C395.249,524.264,393.294,519.912,396.416,514.52z"/>
		<path fill="#FFC9CE" d="M472.659,335.672c5.212,0.215,7.274,10.575,1.675,14.456C470.712,352.655,465.271,335.349,472.659,335.672
			z"/>
		<path fill="#FFC9CE" d="M516.046,343.991c-4.031-0.487-4.603,5.771-0.594,6.258C519.476,350.729,520.063,344.478,516.046,343.991z
			"/>
		<path fill="#FFC9CE" d="M554.444,350.278l0.014,0.007c-0.086-0.207-0.179-0.422-0.279-0.615c-0.158-0.215-0.308-0.401-0.466-0.595
			c-0.301-0.365-0.823-0.616-1.381-0.716c-0.494-0.122-1.038-0.086-1.504,0.136c-0.143,0.057-0.279,0.136-0.394,0.236
			c-0.186,0.15-0.372,0.294-0.566,0.444c-0.716,0.587-0.888,1.797-0.637,2.628c0.365,1.21,1.454,1.89,2.663,1.926
			c0.015,0,0.043-0.007,0.05-0.007C553.685,353.764,554.873,351.86,554.444,350.278z"/>
		<path fill="#FFC9CE" d="M521.388,404.999c-1.125-0.143-2.198,0.58-2.391,1.733c-0.165,1.095,0.623,2.255,1.754,2.391
			c1.117,0.129,2.191-0.594,2.37-1.754C523.292,406.287,522.519,405.128,521.388,404.999z"/>
		<path fill="#FFC9CE" d="M479.662,389.348c-3.136-0.38-3.294,4.56-0.15,4.947C482.676,394.667,482.826,389.727,479.662,389.348z"/>
		<path fill="#FFC9CE" d="M469.91,324.445c-1.26-0.158-2.413,0.903-2.506,2.127c-0.1,1.31,0.895,2.377,2.155,2.52
			c1.26,0.158,2.406-0.924,2.506-2.148C472.158,325.634,471.17,324.596,469.91,324.445z"/>
		<path fill="#FFC9CE" d="M487.136,431.146c-4.26-0.515-4.475,6.15-0.243,6.652C491.16,438.313,491.36,431.661,487.136,431.146z"/>
		<path fill="#FFC9CE" d="M451.688,467.839c-0.071-0.029-0.143-0.036-0.236-0.065c-1.79-0.379-3.622,0.365-4.188,2.22
			c-0.466,1.554,0.258,3.114,1.54,3.881c-0.036-0.022-0.072-0.022-0.108-0.036c0.051,0.029,0.115,0.043,0.158,0.071
			c0.065,0.036,0.122,0.051,0.179,0.087c0.186,0.078,0.358,0.172,0.551,0.229c0.251,0.065,0.515,0.108,0.795,0.122
			c0.065,0,0.136,0,0.201,0.015c1.489,0.05,2.864-0.931,3.301-2.363C454.388,470.402,453.464,468.204,451.688,467.839z"/>
		<path fill="#FFC9CE" d="M435.665,420.507c-1.654-0.194-3.2,1.023-3.408,2.685c-0.2,1.661,1.024,3.215,2.671,3.408
			c1.675,0.201,3.215-1.023,3.408-2.677C438.536,422.268,437.326,420.707,435.665,420.507z"/>
		<path fill="#FFC9CE" d="M518.932,392.828c-1.095-0.122-2.133,0.501-2.341,1.639c-0.186,1.024,0.537,2.198,1.647,2.334
			c1.081,0.128,2.119-0.509,2.312-1.633C520.758,394.138,520.027,392.963,518.932,392.828z"/>
	</g>
	<g>
		<path d="M366.79,312.589c-4.776-3.064-10.489-4.611-16.181-4.331c3.623-1.26,15.222-5.305,18.802-6.351
			c3.537-1.052,1.138-5.47-5.356-5.949c-23.483-1.732-36.336,11.842-40.337,25.345c-0.344,1.174,0.887,1.933,1.675,1.153
			c2.463-2.384,5.155-4.453,8.005-6.257c-8.263,8.692-13.575,22.747-10.725,37.195c0.68,3.457,1.861,6.558,3.451,9.286
			c-2.198-0.509-4.353-0.566-6.286,0.057c-0.366,0.114-0.416,0.73-0.079,0.945c2.556,1.525,5.384,2.27,7.869,3.988
			c2.119,1.468,4.124,3.186,5.978,4.976c3.086,2.979,5.162,7.088,8.513,9.673c1.41,1.074,3.88-0.158,3.415-2.04
			c-0.386-1.532-1.166-3.165-2.227-4.812c9.143,2.234,19.417-0.072,26.935-7.74C385.118,352.554,384.975,324.209,366.79,312.589z"/>
		<path fill="#FFFFFF" d="M372.087,354.982c-7.718,21.629-39.056,21.379-44.103-3.781c-1.532-7.596,0.101-16.925,3.315-23.984
			c3.666-8.012,11.413-15.931,22.675-15.035c10.024,0.801,16.832,7.102,19.682,16.395
			C376.512,337.891,375.403,345.702,372.087,354.982z"/>
		<path d="M454.817,334.855c-0.859-8.627-7.317-17.591-13.503-23.068c-7.103-6.279-17.62-10.303-27.021-9.952
			c-2.971,0.108-3.773,1.589-1.839,2.964c5.37,3.859,9.465,6.873,14.197,10.267c-6.651-2.212-14.104-1.51-21.443,2.32
			c-8.649,4.504-14.37,13.117-18.207,25.839c-3.838,12.694-2.656,31.152,14.148,39.644c2.477,1.246,4.911,2.112,7.296,2.692
			c-3.48,0.894-6.881,2.098-10.088,3.508c-1.331,0.587-0.723,2.692,0.58,2.356c7.317-1.912,21.901-3.165,33.586-0.194
			c3.609,0.909,3.444-4.704-6.587-7.059c5.57-2.449,10.296-6.716,13.775-11.999c7.095-10.754,8.205-26.569,4.983-37.646
			c1.268,1.439,6.594,6.036,8.134,7.16C455.576,343.677,455.133,338.099,454.817,334.855z"/>
		<path fill="#FFFFFF" d="M392.786,341.979c4.268-14.398,16.682-27.178,30.987-23.104c18.321,5.183,18.085,23.641,16.009,35.726
			c-2.9,16.804-15.787,30.901-35.047,23.04C391.333,372.186,388.591,356.098,392.786,341.979z"/>
		<path d="M373.24,349.06c-1.89,7.719-9.651,12.43-17.355,10.568c-7.711-1.891-12.422-9.658-10.546-17.348
			c1.875-7.711,9.629-12.436,17.355-10.553C370.384,333.596,375.116,341.371,373.24,349.06z"/>
		<path d="M436.753,358.039c-1.947,7.933-9.937,12.794-17.878,10.861c-7.925-1.94-12.787-9.938-10.846-17.87
			c1.925-7.926,9.923-12.794,17.856-10.861C433.825,342.108,438.679,350.098,436.753,358.039z"/>
		<path fill="#FFFFFF" d="M369.059,344.221c-0.58,2.405-2.993,3.881-5.384,3.293c-2.398-0.594-3.859-2.993-3.265-5.384
			c0.58-2.398,2.986-3.852,5.37-3.279C368.193,339.431,369.653,341.85,369.059,344.221z"/>
		<path fill="#FFFFFF" d="M433.503,352.891c-0.623,2.606-3.287,4.224-5.907,3.573c-2.62-0.637-4.224-3.279-3.58-5.9
			c0.63-2.628,3.287-4.238,5.9-3.594C432.536,347.6,434.148,350.263,433.503,352.891z"/>
	</g>
	<path d="M424.339,405.285c-6.215-8.871-18.83-7.238-24.665,0.995c-0.694,0.988,0.666,1.998,1.532,1.303
		c2.392-1.926,5.205-3.108,8.119-3.595c-2.198,7.482-4.546,14.928-8.219,21.873c-2.427,4.582-5.606,9.158-9.98,12.071
		c-4.296,2.886-10.518,1.511-16.582-8.169c-4.346-6.945-0.916,5.921,2.942,10.474c16.51,19.517,36.049-19.983,34.273-36.514
		c3.852-0.129,7.754,0.909,11.019,3.086C423.687,407.426,424.969,406.194,424.339,405.285z"/>
	<path d="M398.263,451.601c-7.281,5.82-13.145,7.331-21.386,0.293c-0.408-0.344-1.231,0.114-1.045,0.709
		c4.081,12.608,19.153,12.458,24.322,1.152C400.74,452.467,399.495,450.628,398.263,451.601z"/>
	<path d="M247.871,488.774c-1.31-3.974-6.139-9.995-12.64-13.181c0.161-0.68,0.49-1.911,0.49-2.62
		c2.524,0.294,12.676-0.215,15.866-7.095c2.796-6.071-3.197-14.598-6.333-8.498c-2.531,4.94-7.568,8.018-11.853,8.405
		c-5.51-4.246-12.4-5.949-18.465-5.842c-17.308-40.495,13.754-98.188,54.847-109.356c1.317-0.351,0.823-3.938-0.78-3.752
		c-23.713,2.585-45.435,22.245-56.304,42.55c-12.34,23.055-16.764,51.636-5.996,76.022c-1.603,6.358,2.76,12.558,7.278,15.551
		c1.443,3.315,2.43,7.925,2.674,11.384c-0.204-0.114-2.974-1.639-5.001-2.205c-2.051-0.551-5.635,3.129-1.203,7.761
		c1.901,1.969,4.808,5.019,7.829,5.706c2.724,0.616,6.548-1.188,6.225-4.51c-0.487-5.276-1.622-10.725-3.673-15.744
		c0.716,0.071,1.429,0.086,2.159,0.043c2.907,3.845,4.389,10.89,5.012,16.524c0.712,6.451,10.045,3.895,9.254-2.241
		c-0.694-5.342-3.487-12.573-7.318-16.252c0.33-0.186,1.855-0.967,2.152-1.203c3.952,3.293,6.826,9.086,8.151,14.355
		C241.438,499.256,249.854,494.788,247.871,488.774z"/>
	<path d="M578.092,536.6c-0.265-4.675,1.468-9.68,2.034-14.126c5.09-1.826,10.546-7.54,10.617-13.947
		c10.417-23.885,7.504-53.411,1.983-75.348c-4.961-19.783-22.195-50.834-47.54-44.949c-1.089,0.258-1.182,3.966-0.158,4.038
		c11.155,0.787,19.489,6.122,27.25,16.467c6.672,8.892,12.443,22.374,13.983,33.214c2.835,19.825,4.01,44.39-3.974,59.697
		c-6.315-1.861-13.639-0.329-18.35,4.11c-7.611-1.002-7.955-10.653-11.277-12.307c-3.401-1.675-8.126,0.508-7.138,6.429
		c1.045,6.258,7.117,10.983,13.553,12.329c-6.766,4.969-10.94,11.928-10.947,19.603c-0.007,6.301,6.952,8.04,8.334,1.797
		c1.21-5.463,3.323-10.381,7.196-14.083c0.244,0.68,0.945,1.146,1.424,1.46c-3.064,3.544-5.269,9.05-6.859,15.229
		c-1.69,6.58,8.62,10.568,8.656,3.114c0.015-5.012,1.425-11.849,4.296-16.102c0.902,0.15,1.067,0.308,1.983,0.323
		c-2.42,5.62-4.11,13.653-3.924,17.82c0.093,2.249,1.797,3.881,3.773,4.461c3.974,1.131,6.788,0.186,10.653-1.274
		C589.877,542.199,586.455,533.293,578.092,536.6z"/>
</g>
</svg>
