<?xml version="1.0" encoding="utf-8"?>
<!-- Generator: Adobe Illustrator 17.0.0, SVG Export Plug-In . SVG Version: 6.00 Build 0)  -->
<!DOCTYPE svg PUBLIC "-//W3C//DTD SVG 1.1//EN" "http://www.w3.org/Graphics/SVG/1.1/DTD/svg11.dtd">
<svg version="1.1" id="Layer_1" xmlns="http://www.w3.org/2000/svg" xmlns:xlink="http://www.w3.org/1999/xlink" x="0px" y="0px"
	 width="300px" height="300px" viewBox="0 0 300 300" enable-background="new 0 0 300 300" xml:space="preserve">
<path fill="#A1B3DA" stroke="#000000" stroke-linecap="round" stroke-linejoin="round" stroke-miterlimit="10" d="M261.488,183.331
	c1.351-3.716-0.18-34.327,0-35.765c0.18-1.438-0.359-6.29,0.899-7.009c1.258-0.719,11.143-4.313,11.143-6.47
	s-6.29-36.664-10.424-39.359c-4.134-2.696-18.332-4.313-18.871-4.313s-3.055-2.876-5.571-3.415s-12.76,1.797-14.737,3.415
	c-1.977,1.618-10.244,11.502-11.862,12.401c-1.618,0.899-7.369,11.682-7.369,13.479s-3.954,13.479-4.134,14.558
	c-0.18,1.078-0.18,11.502,0,11.502s5.212,1.258,6.29,1.977c1.078,0.719,8.806,8.627,8.806,10.604s-1.618,11.862-2.336,13.479
	c-0.719,1.618-1.438,5.212-1.438,7.009s0.359,4.134,1.797,5.931s42.235,6.65,43.493,6.65
	C258.433,188.004,260.05,187.285,261.488,183.331z"/>
<path fill="none" stroke="#000000" stroke-linecap="round" stroke-linejoin="round" stroke-miterlimit="10" d="M230.396,101.557
	c0,0,0.18,12.041,0,15.277c-0.18,3.235-1.078,15.097-1.258,16.714s-1.618,15.456-1.797,18.152c-0.18,2.696,0.539,8.627,0,10.783
	c-0.539,2.157,0.3,16.535-0.03,18.512"/>
<path fill="none" stroke="#000000" stroke-linecap="round" stroke-linejoin="round" stroke-miterlimit="10" d="M215.12,117.193
	c-0.719,2.696-0.18,19.511,0,20.269c0.18,0.758-0.18,5.791,0,8.127"/>
<path fill="none" stroke="#000000" stroke-linecap="round" stroke-linejoin="round" stroke-miterlimit="10" d="M256.652,108.069
	c-0.168,1.295-5.539,27.646-4.448,31.422"/>
<path fill="none" stroke="#000000" stroke-linecap="round" stroke-linejoin="round" stroke-miterlimit="10" d="M243.053,89.602
	c0.262,0.213,3.159,8.72,2.979,9.619c-0.18,0.899-5.032,2.876-6.111,2.336s-3.055-1.797-6.29-2.157"/>
<path fill="#FBB998" stroke="#000000" stroke-linecap="round" stroke-linejoin="round" stroke-miterlimit="10" d="M234.332,80.823
	c0.566,0.707,2.902,6.508,3.43,7.387s1.055,5.013,0.704,5.98c-0.352,0.967-4.479,10.29-4.834,10.729
	c-0.355,0.44-3.155,5.98-3.155,5.98s-2.582-1.143-3.321-1.055s-2.234,0.528-3.465,0.264s-3.254-1.847-4.661-2.638
	c-1.407-0.792-2.834-2.204-4.661-3.606c-1.827-1.402-3.694-2.99-5.101-4.133c-1.407-1.143-3.87-5.277-3.782-7.827
	c0.088-2.55,2.023-7.212,6.156-8.443C215.775,82.23,232.924,79.064,234.332,80.823z"/>
<path fill="#342827" stroke="#000000" stroke-linecap="round" stroke-linejoin="round" stroke-miterlimit="10" d="M230.476,86.364
	c0.233,1.428,0.602,5.013-0.718,5.101c-1.319,0.088-4.309-0.176-5.453-0.616c-1.143-0.44-4.046-1.966-5.804-1.247
	c-1.759,0.719-6.596,4.061-8.179,4.413c-1.583,0.352-4.309-0.264-5.629,0c-1.319,0.264-4.839-8.883-4.267-12.137
	c0.573-3.254,4.618-10.394,6.289-11.961c1.671-1.566,16.798-5.331,21.283-1.566c4.485,3.765,7.036,9.921,7.475,11.24
	c0.44,1.319-0.09,3.329-0.2,3.089s-2.966-1.154-3.318-0.538C231.605,82.758,230.279,85.156,230.476,86.364z"/>
<path fill="none" stroke="#000000" stroke-linecap="round" stroke-linejoin="round" stroke-miterlimit="10" d="M214.016,100.523
	c0,0-3.606-1.055-4.749-0.792"/>
<path fill="none" stroke="#000000" stroke-linecap="round" stroke-linejoin="round" stroke-miterlimit="10" d="M217.006,99.116
	c0.967-0.792,3.805-2.287,5.025-2.638"/>
<path fill="none" stroke="#000000" stroke-linecap="round" stroke-linejoin="round" stroke-miterlimit="10" d="M222.899,97.797
	c0,0-0.879,1.674-1.583,1.892c-0.704,0.218-1.797,0.417-1.797,0.417"/>
<path fill="none" stroke="#000000" stroke-linecap="round" stroke-linejoin="round" stroke-miterlimit="10" d="M221.579,102.897
	c0.44,0.352,0.264,2.287,0,2.638s-1.912,2.334-2.55,1.935"/>
<path fill="none" stroke="#000000" stroke-linecap="round" stroke-linejoin="round" stroke-miterlimit="10" d="M216.039,102.897
	c0.088,0,0.967,3.122,0.967,3.122"/>
<path fill="none" stroke="#000000" stroke-linecap="round" stroke-linejoin="round" stroke-miterlimit="10" d="M224.921,107.524
	c0,0-2.422,0.864-3.074,1.09"/>
<path fill="none" stroke="#000000" stroke-linecap="round" stroke-linejoin="round" stroke-miterlimit="10" d="M233.1,103.777
	c0,0-4.943,5.894-5.945,6.068"/>
<path fill="none" stroke="#000000" stroke-linecap="round" stroke-linejoin="round" stroke-miterlimit="10" d="M234.156,91.64
	c0.616,0.264,2.287-0.176,2.287-1.055c0-0.879,0.468-4.187,0-5.259"/>
<path fill="#6B5849" stroke="#000000" stroke-linecap="round" stroke-linejoin="round" stroke-miterlimit="10" d="M263.456,203.755
	c0,0-3.617,43.405-3.858,44.611c-0.241,1.206-40.336,37.135-43.559,39.547S195.455,300,195.455,300h-25.078
	c0,0-1.206-2.924-1.929-3.165c-0.723-0.241-45.334-21.22-49.433-23.632s-49.674-22.185-58.114-25.078s-15.674-3.617-15.674-2.17
	c0,1.447,8.199,36.412,8.199,37.135c0,0.723-12.78,2.17-12.78,0.723c0-1.447-6.752-30.112-6.993-31.935
	s-14.468-64.761-14.468-65.484s35.93-6.511,43.646-6.511S263.754,200.183,263.456,203.755z"/>
<path fill="none" stroke="#000000" stroke-linecap="round" stroke-linejoin="round" stroke-miterlimit="10" d="M168.929,242.337
	c0,1.447,2.411,40.27,0,40.27c-2.411,0-47.745-21.702-54.738-24.355s-66.313-20.979-68.724-23.149"/>
<path fill="none" stroke="#000000" stroke-linecap="round" stroke-linejoin="round" stroke-miterlimit="10" d="M182.192,244.99
	c0,0,2.411,52.388,1.688,55.01"/>
<path fill="none" stroke="#000000" stroke-linecap="round" stroke-linejoin="round" stroke-miterlimit="10" d="M190.391,250.295
	c0,3.858,1.929,36.171,1.929,36.171s32.053-29.66,34.835-32.554"/>
<path fill="#909392" stroke="#000000" stroke-linecap="round" stroke-linejoin="round" stroke-miterlimit="10" d="M10.984,184.176
	c-1.447,1.735,1.206,6.076,2.653,6.317s211.08,85.632,213.519,85.604c2.438-0.028,61.138-76.923,61.62-78.611
	c0.482-1.688,1.206-4.823,0-5.064s-176.513-36.171-179.166-36.894C106.957,154.804,10.984,184.176,10.984,184.176z"/>
<path fill="none" stroke="#000000" stroke-linecap="round" stroke-linejoin="round" stroke-miterlimit="10" d="M10.984,184.176
	c2.653,1.735,213.166,84.928,215.095,83.24c1.929-1.688,57.933-72.636,60.797-75.382"/>
<line fill="#909392" stroke="#000000" stroke-linecap="round" stroke-linejoin="round" stroke-miterlimit="10" x1="226.079" y1="267.416" x2="227.155" y2="276.097"/>
<path fill="#564A41" stroke="#000000" stroke-linecap="round" stroke-linejoin="round" stroke-miterlimit="10" d="M235.589,165.337
	c0.086,0.835,0.923,14.518,0.839,15.105c-0.084,0.587-4.532,6.042-4.532,6.042s-2.014,0.503-2.014-0.671s0.587-7.301,0-7.972
	c-0.587-0.671-3.86,0.252-4.699-1.007c-0.839-1.259-3.189-3.021-2.35-6.294c0.839-3.273,7.133-6.881,9.147-7.049
	C233.994,163.323,235.443,163.928,235.589,165.337z"/>
<path fill="#FBB998" stroke="#000000" stroke-linecap="round" stroke-linejoin="round" stroke-miterlimit="10" d="M220.438,152.414
	c-0.99-2.39-4.7-9.902-5.474-9.902c-0.774,0-9.082-1.633-10.257-1.236s-1.511,2.159-0.839,3.67
	c0.671,1.511,3.776,10.406,6.881,12.252c3.105,1.846,9.567,7.72,9.147,8.644s-1.314,5.539-0.867,6.042
	c0.447,0.504,1.982,0.671,2.18,1.175c0.198,0.504,1.804,3.776,2.176,3.608c0.372-0.168,2.05-1.343,2.722-3.525
	c0.671-2.182,1.882-9.905,1.235-10.659c-0.647-0.754-3.941-4.279-4.686-5.705S221.063,153.923,220.438,152.414z"/>
<path fill="none" stroke="#000000" stroke-linecap="round" stroke-linejoin="round" stroke-miterlimit="10" d="M221.239,169.785
	c0,0-0.677,1.46-0.38,2.954"/>
<path fill="none" stroke="#000000" stroke-linecap="round" stroke-linejoin="round" stroke-miterlimit="10" d="M226.967,166.428
	c-0.693,0.42-2.526,6.296-1.814,8.6"/>
<path fill="#FBB998" stroke="#000000" stroke-linecap="round" stroke-linejoin="round" stroke-miterlimit="10" d="M256.568,135.882
	c-0.819,0.182-4.196,1.229-4.867,1.58c-0.671,0.35-9.902,12.519-11.245,13.274c-1.343,0.755-9.915,7.301-10.328,7.888
	c-0.413,0.587-2.595,4.783-2.973,6.126c-0.378,1.343-0.21,5.371,0.713,4.783c0.923-0.587,1.582-2.601,2.259-3.105
	c0.678-0.504,3.95-0.755,3.95,0.587c0,1.343-0.755,10.825-0.504,11.832c0.252,1.007,1.259,1.091,1.594,0.671s1.101,0,1.809-0.504
	s4.233-8.308,4.4-9.483s-0.084-5.539,0.839-6.546s18.294-15.105,19.805-16.616s4.185-6.103,4.946-7.835
	c0.761-1.732-1.66-2.571-3.513-2.655S258.031,135.557,256.568,135.882z"/>
<path fill="none" stroke="#000000" stroke-linecap="round" stroke-linejoin="round" stroke-miterlimit="10" d="M236.978,168.191
	c0.288,0.923-0.886,10.322-1.809,11.329"/>
<path fill="none" stroke="#000000" stroke-linecap="round" stroke-linejoin="round" stroke-miterlimit="10" d="M240.288,168.946
	c0,0-0.246,4.148-0.785,5.312"/>
<path fill="#564A41" stroke="#000000" stroke-linecap="round" stroke-linejoin="round" stroke-miterlimit="10" d="M237.204,184.96
	c-0.543,0.039-12.131,9.772-12.212,10.199c-0.081,0.427-0.423,3.064,0,3.296c0.423,0.233,19.774,4.111,20.278,3.994
	c0.504-0.116,10.432-7.795,10.819-9.229c0.388-1.435,0-4.692-0.233-4.77C255.624,188.372,237.204,184.96,237.204,184.96z"/>
<path fill="none" stroke="#000000" stroke-linecap="round" stroke-linejoin="round" stroke-miterlimit="10" d="M225.102,195.012
	c0.274,0,19.16,5.033,20.013,4.335c0.853-0.698,10.437-10.512,10.841-10.704"/>
<path fill="none" stroke="#000000" stroke-linecap="round" stroke-linejoin="round" stroke-miterlimit="10" d="M245.27,202.449
	c0,0-0.155-2.792-0.155-3.102"/>
<path fill="#746E67" stroke="#000000" stroke-linecap="round" stroke-linejoin="round" stroke-miterlimit="10" d="M246.511,189.923
	c0,0.194-4.847,4.537-5.08,4.576c-0.233,0.039-6.515-1.163-6.515-1.435c0-0.271,0.427-4.848,0.504-5.061
	c0.078-0.213,4.886-4.479,5.545-4.479s5.662,1.28,5.739,1.435C246.782,185.115,246.511,189.923,246.511,189.923z"/>
<path fill="none" stroke="#000000" stroke-linecap="round" stroke-linejoin="round" stroke-miterlimit="10" d="M235.387,188.19
	c0.265,0.143,5.578,1.694,6.004,1.539s5.003-4.421,5.313-4.77"/>
<path fill="none" stroke="#000000" stroke-linecap="round" stroke-linejoin="round" stroke-miterlimit="10" d="M241.537,194.436
	c-0.067-0.673-0.145-4.706-0.145-4.706"/>
<path fill="#564A41" stroke="#000000" stroke-linecap="round" stroke-linejoin="round" stroke-miterlimit="10" d="M112.699,173.855
	c-0.543,0.039-38.252,24.218-38.333,24.645s2.577,8.101,3,8.333c0.423,0.233,33.233,13.222,33.737,13.105
	c0.504-0.116,51.375-26.421,51.763-27.856c0.388-1.435-0.767-3.363-1-3.44C161.633,188.565,112.699,173.855,112.699,173.855z"/>
<path fill="none" stroke="#000000" stroke-linecap="round" stroke-linejoin="round" stroke-miterlimit="10" d="M85.866,205.333
	c0.274,0,24.229,12.201,25.082,11.503c0.853-0.698,50.514-28.001,50.918-28.194"/>
<path fill="none" stroke="#000000" stroke-linecap="round" stroke-linejoin="round" stroke-miterlimit="10" d="M111.103,219.939
	c0,0-0.155-2.792-0.155-3.102"/>
<path fill="#746E67" stroke="#000000" stroke-linecap="round" stroke-linejoin="round" stroke-miterlimit="10" d="M136.098,193.746
	c-0.04,0.19-5.68,3.438-5.916,3.427c-0.236-0.01-5.613-1.452-5.557-1.717c0.056-0.266-0.05-5.284,0.07-5.476
	c0.12-0.193,5.706-3.373,6.351-3.236c0.645,0.136,5.275,2.422,5.319,2.59C136.409,189.502,136.098,193.746,136.098,193.746z"/>
<path fill="none" stroke="#000000" stroke-linecap="round" stroke-linejoin="round" stroke-miterlimit="10" d="M124.625,190.156
	c0.23,0.195,5.107,2.81,5.557,2.747c0.449-0.064,5.808-3.292,6.184-3.569"/>
<path fill="none" stroke="#000000" stroke-linecap="round" stroke-linejoin="round" stroke-miterlimit="10" d="M130.182,197.174
	c0.073-0.673,0-4.271,0-4.271"/>
<path fill="#FBB998" stroke="#000000" stroke-linecap="round" stroke-linejoin="round" stroke-miterlimit="10" d="M105.196,174.24
	c1.318-0.132,7.484,0.979,8.463,1.324s3.972,3.166,4.03,3.569c0.058,0.403-0.115,1.209-0.23,1.9
	c-0.115,0.691-0.806,2.774-1.151,3.143c-0.345,0.369-1.324,2.557-1.785,2.844c-0.461,0.288-2.245,1.67-4.375,0
	C108.017,185.351,102.893,174.47,105.196,174.24z"/>
<path fill="none" stroke="#000000" stroke-linecap="round" stroke-linejoin="round" stroke-miterlimit="10" d="M112.047,177.694
	c0.345,0,5.066,2.706,5.412,3.339"/>
<path fill="none" stroke="#000000" stroke-linecap="round" stroke-linejoin="round" stroke-miterlimit="10" d="M109.226,179.883
	c0,0,6.248,4.12,6.722,4.851"/>
<path fill="#FBB998" stroke="#000000" stroke-linecap="round" stroke-linejoin="round" stroke-miterlimit="10" d="M119.243,197.843
	c0.458,0.422,2.36,5.93,2.015,6.736c-0.345,0.806-7.657,11.917-11.111,11.802c-3.454-0.115-9.844-6.448-11.226-9.729
	c-1.382-3.281-0.058-5.872,1.842-6.966S116.364,195.195,119.243,197.843z"/>
<path fill="#FBB998" stroke="#000000" stroke-linecap="round" stroke-linejoin="round" stroke-miterlimit="10" d="M67.408,83.625
	c-0.331,0.306-11.5,10.828-11.75,11.977c-0.25,1.148,6.75,9.023,8.375,10.398s13.25,13.375,14.625,12.625s1.25-1.5,4.875-1.5
	s6.125-0.5,6.125-0.875s3.875-0.5,4.625-1.5s2.5-2.75,3.5-2.75s4.5-2.625,5.5-3.625s3.5-1.875,5.375-3s4.25-5,5.375-8
	s1.625-12.125-2.75-15.375S69.359,81.817,67.408,83.625z"/>
<path fill="#20211E" stroke="#000000" stroke-linecap="round" stroke-linejoin="round" stroke-miterlimit="10" d="M89.158,88.375
	c-2.344,0.26-5.75,7.078-7.5,7.227c-1.75,0.148-2.75-1.352-5.375-2.477s-2.125-1.388-4.5-1.132s-3.125-1.243-5.5-1.868
	s-5.375-3.5-5.375-5.25s3.125-9.5,4.5-11.25s7.912-7.848,10-10.75c5.125-7.125,17.75-6.375,26.125-5.375s18.75,10.5,20.5,12.625
	s5,10.125,4.25,12.25s-1.875,9.578-2.25,13.227c-0.375,3.648-2.875,9.898-3.875,9.523s-1.625-4.204-4-4.602s-10.25-0.977-11.5,0
	s-6.375,5.352-6.75,3.727s-0.625-8.497,1.25-10.123s3.875-2.752,2.875-4.502s-5.125-1-6.375-1S92.533,88,89.158,88.375z"/>
<path fill="none" stroke="#000000" stroke-linecap="round" stroke-linejoin="round" stroke-miterlimit="10" d="M90.158,99.615
	c-0.875-1.365-1-5.365,0-6.24s3.116-4.294,4.495-4.834"/>
<path fill="none" stroke="#000000" stroke-linecap="round" stroke-linejoin="round" stroke-miterlimit="10" d="M81.783,105.141
	c0,0-5.68,8.151-6,9.859"/>
<path fill="#A1B3DA" stroke="#000000" stroke-linecap="round" stroke-linejoin="round" stroke-miterlimit="10" d="M107.734,230.019
	c-0.357,1.512-1.392,7.834-1.733,9.31c-0.341,1.476-4.882,4.622-8.856,5.661c-3.974,1.038-29.747,1.947-33.381,1.947
	s-8.629,3.293-11.695,1.817c-3.066-1.476-9.764-9.764-12.035-12.716c-2.271-2.952-7.607-12.376-8.743-15.214
	s-1.249-8.288-2.498-9.991s-7.243-13.311-8.427-18.874c-1.184-5.564-5.992-30.289-5.992-34.944s0-18.961,0-21.459
	c0-2.498,0.114-7.039,0-10.332s3.485-9.431,4.808-10.222c1.323-0.791,19.83-10.329,20.852-11.237
	c1.022-0.908,4.201-2.498,4.655-3.066c0.454-0.568,7.039-8.515,7.948-8.288s14.647,6.812,16.009,8.175
	c1.362,1.362,9.266,13.511,10.136,15.441c0.87,1.93,2.398,6.472,3,7.494s14.113,9.197,15.135,9.764
	c1.022,0.568,3.179,4.996,4.087,7.834c0.908,2.839,6.758,21.005,6.729,23.276c-0.03,2.271,3.432,18.333,4.313,19.783
	s8.621,14.202,7.873,15.092s-8.202,5.432-10.095,5.545c-1.893,0.114-9.614,2.044-9.614,3.066c0,1.022,0.866,4.866,2.562,5.654
	c1.696,0.789,7.015,5.132,7.052,9.333C109.861,227.067,108.088,228.517,107.734,230.019z"/>
<path fill="none" stroke="#000000" stroke-linecap="round" stroke-linejoin="round" stroke-miterlimit="10" d="M65.127,161.782
	c1.817,2.271,11.354,17.664,12.716,20.527c1.362,2.863,14.192,26.252,15.668,26.025c1.476-0.227,4.939-0.038,7.185-0.972"/>
<path fill="none" stroke="#000000" stroke-linecap="round" stroke-linejoin="round" stroke-miterlimit="10" d="M101.278,141.97
	c-0.954-0.399-6.858,0.51-8.448,1.418s-11.808,6.585-13.738,8.402s-9.951,14.022-10.085,15.811"/>
<path fill="none" stroke="#000000" stroke-linecap="round" stroke-linejoin="round" stroke-miterlimit="10" d="M39.24,173.855
	c1.022,3.141,16.577,30.481,19.529,32.763s7.874,5.468,10.239,6.146"/>
<path fill="none" stroke="#000000" stroke-linecap="round" stroke-linejoin="round" stroke-miterlimit="10" d="M68.079,229.678
	c-3.293-1.476-27.022-8.856-30.542-9.197"/>
<path fill="#727EA5" stroke="#000000" stroke-linecap="round" stroke-linejoin="round" stroke-miterlimit="10" d="M109.824,300
	H49.799c0,0,0.454-18.661,0-20.478c-0.454-1.817-2.838-10.878-2.838-12.081s-7.22-31.759-6.327-30.634
	c0.893,1.125,6.781,7.745,10.755,8.654s4.542,1.59,6.812,0.908c2.271-0.681,1.93-0.908,5.336-0.795s6.44-0.813,10.827-0.293
	c4.387,0.52,10.291,0.601,13.357-0.291c3.066-0.892,6.812-1.005,9.764-1.8c2.952-0.795,8.62-4.343,8.691-4.714
	c0.071-0.37-0.289,3.465,0.62,4.941s3.633,16.35,3.633,18.28s-1.249,12.678-1.476,14.4c-0.227,1.722,0.494,15.461,0.871,17.504
	C110.202,295.645,109.824,300,109.824,300z"/>
<path fill="none" stroke="#000000" stroke-linecap="round" stroke-linejoin="round" stroke-miterlimit="10" d="M56.611,259.653
	c0.341,1.59,4.542,9.31,8.97,11.354c4.428,2.044,10.4,7.267,9.912,8.629c-0.488,1.362-1.851,4.428-2.078,7.153
	S74.778,298.11,78.411,300"/>
</svg>
