<?xml version="1.0" encoding="utf-8"?>
<!-- Generator: Adobe Illustrator 16.0.0, SVG Export Plug-In . SVG Version: 6.00 Build 0)  -->
<!DOCTYPE svg PUBLIC "-//W3C//DTD SVG 1.1//EN" "http://www.w3.org/Graphics/SVG/1.1/DTD/svg11.dtd">
<svg version="1.1" id="Layer_1" xmlns="http://www.w3.org/2000/svg" xmlns:xlink="http://www.w3.org/1999/xlink" x="0px" y="0px"
	 width="20px" height="20px" viewBox="0 0 20 20" enable-background="new 0 0 20 20" xml:space="preserve">
<g>
	<polygon fill-rule="evenodd" clip-rule="evenodd" fill="#F0B11D" points="15.875,2.586 13.512,1.223 13.275,1.097 13.027,0.994 
		12.771,0.909 12.505,0.845 12.227,0.8 11.943,0.774 11.648,0.77 11.348,0.787 11.04,0.823 10.724,0.883 10.399,0.964 10.071,1.066 
		9.736,1.19 9.394,1.335 9.048,1.506 8.698,1.699 8.348,1.91 8.002,2.141 7.661,2.388 7.328,2.65 6.997,2.928 6.674,3.218 
		6.358,3.526 6.049,3.846 5.748,4.177 5.456,4.519 5.169,4.873 4.894,5.236 4.627,5.609 4.369,5.992 4.121,6.382 3.886,6.779 
		3.662,7.181 3.447,7.59 3.244,8.002 3.056,8.423 2.879,8.841 2.714,9.266 2.565,9.693 2.428,10.118 2.305,10.547 2.2,10.972 
		2.106,11.398 2.031,11.821 1.972,12.244 1.927,12.663 1.901,13.077 1.893,13.486 1.901,13.886 1.927,14.268 1.972,14.638 
		2.031,14.989 2.106,15.327 2.2,15.647 2.305,15.95 2.428,16.236 2.565,16.505 2.714,16.757 2.879,16.996 3.056,17.21 3.244,17.406 
		3.447,17.585 3.662,17.748 3.886,17.893 6.25,19.259 6.025,19.114 5.812,18.951 5.609,18.772 5.419,18.576 5.242,18.358 
		5.078,18.123 4.928,17.867 4.792,17.603 4.67,17.316 4.563,17.014 4.471,16.693 4.395,16.355 4.335,16.004 4.292,15.634 
		4.267,15.25 4.258,14.851 4.267,14.44 4.292,14.026 4.335,13.608 4.395,13.188 4.471,12.763 4.563,12.338 4.67,11.911 
		4.792,11.484 4.928,11.057 5.078,10.63 5.242,10.208 5.419,9.787 5.609,9.369 5.812,8.955 6.025,8.547 6.25,8.144 6.487,7.746 
		6.734,7.358 6.993,6.976 7.257,6.602 7.535,6.237 7.819,5.885 8.113,5.541 8.414,5.21 8.724,4.892 9.038,4.584 9.362,4.292 
		9.691,4.015 10.026,3.752 10.368,3.504 10.713,3.276 11.062,3.063 11.414,2.871 11.76,2.702 12.099,2.555 12.434,2.431 
		12.763,2.328 13.085,2.247 13.403,2.189 13.713,2.151 14.014,2.134 14.307,2.138 14.592,2.164 14.867,2.208 15.135,2.273 
		15.393,2.358 15.641,2.463 	"/>
	<path fill-rule="evenodd" clip-rule="evenodd" fill="#F0B11D" d="M11.062,3.063c-3.757,2.171-6.804,7.448-6.804,11.788
		s3.046,6.1,6.804,3.931c3.759-2.169,6.808-7.449,6.808-11.789C17.869,2.653,14.82,0.894,11.062,3.063L11.062,3.063z M11.062,17.646
		C9.456,18.571,8,18.661,6.948,18.051c-1.055-0.606-1.706-1.913-1.706-3.768c0-1.857,0.651-3.913,1.706-5.738
		C8,6.722,9.456,5.127,11.062,4.2c1.607-0.928,3.065-1.016,4.118-0.408c1.055,0.608,1.703,1.913,1.703,3.768
		c0,1.857-0.648,3.913-1.703,5.738C14.127,15.122,12.669,16.715,11.062,17.646z"/>
	<path fill-rule="evenodd" clip-rule="evenodd" fill="#F0B11D" d="M11.062,3.063c-3.757,2.171-6.804,7.448-6.804,11.788
		s3.046,6.1,6.804,3.931c3.759-2.169,6.808-7.449,6.808-11.789C17.869,2.653,14.82,0.894,11.062,3.063z"/>
	<polygon fill-rule="evenodd" clip-rule="evenodd" fill="#F0B11D" points="11.062,17.646 9.988,17.021 10.287,16.843 10.583,16.646 
		10.874,16.433 11.159,16.208 11.443,15.972 11.719,15.722 11.99,15.459 12.253,15.186 12.511,14.902 12.763,14.609 13.006,14.307 
		13.243,13.995 13.47,13.677 13.691,13.35 13.902,13.017 14.104,12.678 15.18,13.299 14.977,13.639 14.766,13.972 14.545,14.298 
		14.319,14.616 14.082,14.928 13.837,15.23 13.587,15.523 13.328,15.808 13.063,16.078 12.793,16.341 12.518,16.591 12.235,16.83 
		11.949,17.056 11.657,17.266 11.362,17.462 	"/>
	<polygon fill-rule="evenodd" clip-rule="evenodd" fill="#F0B11D" points="15.18,13.299 14.104,12.678 14.298,12.334 14.479,11.983 
		14.652,11.629 14.814,11.273 14.966,10.912 15.106,10.549 15.234,10.187 15.351,9.821 15.452,9.456 15.547,9.089 15.623,8.726 
		15.691,8.363 15.743,8.002 15.777,7.646 15.803,7.29 15.812,6.941 16.883,7.561 16.879,7.911 16.853,8.265 16.818,8.624 
		16.768,8.982 16.699,9.347 16.622,9.71 16.528,10.075 16.426,10.442 16.307,10.805 16.183,11.17 16.042,11.533 15.888,11.895 
		15.726,12.251 15.555,12.605 15.371,12.953 	"/>
	<polygon fill-rule="evenodd" clip-rule="evenodd" fill="#F0B11D" points="16.883,7.561 15.812,6.941 15.803,6.598 15.777,6.271 
		15.743,5.955 15.691,5.654 15.623,5.366 15.547,5.093 15.452,4.833 15.351,4.587 15.234,4.356 15.106,4.141 14.966,3.942 
		14.814,3.756 14.652,3.585 14.479,3.432 14.298,3.293 14.104,3.171 15.18,3.792 15.371,3.915 15.555,4.051 15.726,4.207 
		15.888,4.377 16.042,4.561 16.183,4.762 16.307,4.978 16.426,5.208 16.528,5.454 16.622,5.714 16.699,5.987 16.768,6.275 
		16.818,6.577 16.853,6.89 16.879,7.219 	"/>
	<polygon fill-rule="evenodd" clip-rule="evenodd" fill="#F0B11D" points="6.948,18.051 5.872,17.432 6.072,17.534 6.286,17.628 
		6.504,17.696 6.732,17.756 6.969,17.79 7.212,17.816 7.464,17.816 7.721,17.803 7.987,17.769 8.256,17.722 8.534,17.653 
		8.813,17.56 9.102,17.457 9.394,17.329 9.689,17.188 9.988,17.021 11.062,17.646 10.765,17.808 10.468,17.952 10.178,18.076 
		9.889,18.184 9.607,18.272 9.33,18.341 9.061,18.388 8.796,18.422 8.54,18.439 8.288,18.435 8.043,18.414 7.808,18.375 
		7.58,18.319 7.36,18.243 7.148,18.157 	"/>
	<path fill-rule="evenodd" clip-rule="evenodd" fill="#E6EAEB" d="M10.732,17.453c1.607-0.929,3.063-2.521,4.118-4.347
		c1.055-1.823,1.703-3.881,1.703-5.736s-0.648-3.162-1.703-3.768c-1.055-0.608-2.511-0.521-4.118,0.408
		C9.125,4.939,7.671,6.532,6.617,8.354c-1.052,1.825-1.706,3.881-1.706,5.738c0,1.855,0.653,3.159,1.706,3.771
		C7.671,18.469,9.125,18.38,10.732,17.453z"/>
	<polygon fill-rule="evenodd" clip-rule="evenodd" fill="#9C9C9C" points="10.615,16.924 10.27,16.723 10.27,15.726 10.615,15.925 	
		"/>
	<polygon fill-rule="evenodd" clip-rule="evenodd" fill="#9C9C9C" points="7.18,14.381 8.598,13.563 8.944,13.762 7.526,14.582 
		7.535,14.917 7.539,15.115 7.55,15.301 7.567,15.474 7.592,15.637 7.622,15.786 7.663,15.923 7.71,16.046 7.763,16.157 
		7.821,16.258 7.885,16.348 7.955,16.426 8.032,16.492 8.113,16.548 7.768,16.35 7.687,16.292 7.609,16.226 7.539,16.146 
		7.475,16.059 7.415,15.959 7.364,15.846 7.315,15.722 7.276,15.587 7.247,15.438 7.221,15.275 7.204,15.103 7.193,14.917 
		7.189,14.716 	"/>
	<polygon fill-rule="evenodd" clip-rule="evenodd" fill="#9C9C9C" points="10.27,14.313 10.27,11.502 10.615,11.7 10.615,14.514 
		10.466,14.588 10.327,14.656 10.201,14.721 10.086,14.776 9.983,14.825 9.892,14.865 9.814,14.902 9.749,14.93 9.687,14.955 
		9.627,14.973 9.569,14.985 9.514,14.996 9.46,15.002 9.409,15.002 9.36,14.998 9.311,14.989 9.264,14.975 9.221,14.951 
		8.875,14.753 8.918,14.773 8.965,14.789 9.012,14.798 9.063,14.802 9.114,14.802 9.168,14.798 9.226,14.787 9.281,14.773 
		9.339,14.753 9.4,14.729 9.467,14.701 9.548,14.667 9.638,14.624 9.74,14.575 9.855,14.52 9.981,14.458 10.12,14.39 	"/>
	<polygon fill-rule="evenodd" clip-rule="evenodd" fill="#9C9C9C" points="10.27,5.238 11.164,4.721 11.51,4.92 10.615,5.438 
		10.615,6.318 10.38,6.457 10.154,6.596 9.938,6.736 9.733,6.877 9.539,7.019 9.352,7.161 9.176,7.304 9.01,7.447 8.852,7.595 
		8.705,7.75 8.566,7.911 8.434,8.079 8.31,8.254 8.196,8.438 8.09,8.626 7.996,8.824 7.906,9.027 7.833,9.241 7.768,9.46 
		7.716,9.693 7.676,9.932 7.648,10.182 7.629,10.44 7.622,10.707 7.626,10.921 7.637,11.119 7.652,11.301 7.676,11.469 
		7.706,11.623 7.742,11.764 7.785,11.888 7.833,11.997 7.889,12.093 7.951,12.174 8.02,12.248 8.09,12.309 7.744,12.109 
		7.673,12.048 7.605,11.976 7.543,11.892 7.488,11.796 7.438,11.688 7.396,11.563 7.36,11.424 7.33,11.271 7.306,11.102 
		7.289,10.918 7.281,10.72 7.276,10.509 7.283,10.242 7.3,9.981 7.33,9.734 7.371,9.493 7.421,9.262 7.486,9.04 7.563,8.827 
		7.648,8.624 7.744,8.427 7.851,8.237 7.964,8.056 8.088,7.881 8.218,7.712 8.359,7.55 8.506,7.396 8.664,7.249 8.831,7.104 
		9.005,6.963 9.191,6.82 9.388,6.679 9.593,6.538 9.808,6.397 10.035,6.256 10.27,6.118 	"/>
	<polygon fill-rule="evenodd" clip-rule="evenodd" fill="#9C9C9C" points="12.829,4.89 12.972,4.862 13.104,4.852 13.23,4.858 
		13.35,4.881 13.459,4.924 13.557,4.982 13.902,5.183 13.805,5.123 13.695,5.08 13.576,5.057 13.452,5.05 13.317,5.061 
		13.175,5.088 13.019,5.133 12.846,5.189 12.662,5.257 12.462,5.34 12.246,5.437 12.016,5.545 11.772,5.667 11.51,5.801 
		11.164,5.601 11.424,5.466 11.67,5.345 11.9,5.236 12.116,5.14 12.316,5.059 12.5,4.988 12.673,4.933 	"/>
	<polygon fill-rule="evenodd" clip-rule="evenodd" fill="#9C9C9C" points="13.006,7.74 12.66,7.539 12.658,7.52 12.656,7.501 
		12.651,7.479 12.651,7.456 12.649,7.433 12.649,7.409 12.649,7.381 12.649,7.355 12.646,7.191 12.633,7.048 12.613,6.92 
		12.583,6.815 12.547,6.726 12.502,6.658 12.449,6.606 12.797,6.807 12.849,6.856 12.893,6.927 12.93,7.014 12.959,7.121 
		12.979,7.247 12.991,7.392 12.995,7.554 12.995,7.582 12.995,7.607 12.998,7.633 12.998,7.657 13,7.678 13.002,7.699 13.004,7.719 
			"/>
	<polygon fill-rule="evenodd" clip-rule="evenodd" fill="#9C9C9C" points="12.631,10.649 12.581,10.609 12.927,10.808 
		12.977,10.848 13.021,10.899 13.062,10.965 13.096,11.045 13.121,11.139 13.143,11.245 13.158,11.367 13.166,11.502 13.171,11.65 
		13.164,11.845 13.149,12.03 13.121,12.204 13.085,12.37 13.038,12.526 12.979,12.673 12.91,12.81 12.829,12.938 12.739,13.06 
		12.637,13.18 12.521,13.297 12.397,13.41 12.261,13.521 12.114,13.63 11.954,13.734 11.783,13.839 11.51,13.997 11.164,13.796 
		11.438,13.639 11.607,13.536 11.768,13.429 11.915,13.32 12.052,13.209 12.176,13.096 12.291,12.979 12.392,12.859 12.483,12.739 
		12.563,12.611 12.633,12.473 12.69,12.327 12.739,12.172 12.775,12.005 12.804,11.83 12.818,11.646 12.822,11.452 12.82,11.303 
		12.812,11.168 12.797,11.047 12.775,10.938 12.75,10.846 12.716,10.767 12.675,10.701 	"/>
	<polygon fill-rule="evenodd" clip-rule="evenodd" fill="#9C9C9C" points="10.27,10.105 10.27,7.556 10.615,7.755 10.615,10.304 
		10.423,10.411 10.244,10.5 10.077,10.573 9.923,10.632 9.783,10.673 9.652,10.696 9.539,10.705 9.435,10.699 9.343,10.671 
		9.262,10.622 8.918,10.421 8.997,10.472 9.087,10.498 9.191,10.506 9.309,10.498 9.437,10.472 9.578,10.432 9.731,10.374 
		9.898,10.302 10.077,10.212 	"/>
	<polygon fill-rule="evenodd" clip-rule="evenodd" fill="#9C9C9C" points="11.51,9.821 11.164,9.623 11.414,9.49 11.65,9.371 
		11.877,9.262 12.091,9.164 12.291,9.076 12.481,9 12.66,8.936 12.827,8.88 12.982,8.839 13.13,8.816 13.271,8.81 13.403,8.818 
		13.529,8.841 13.646,8.884 13.758,8.942 14.104,9.143 13.992,9.085 13.875,9.042 13.749,9.017 13.616,9.008 13.476,9.017 
		13.328,9.04 13.173,9.081 13.006,9.134 12.827,9.198 12.637,9.275 12.437,9.362 12.223,9.46 11.996,9.571 11.76,9.691 	"/>
	<path fill-rule="evenodd" clip-rule="evenodd" fill="#BDBDBD" d="M11.51,7.238v2.583c0.681-0.365,1.233-0.61,1.663-0.741
		c0.425-0.13,0.771-0.085,1.033,0.137c0.263,0.22,0.393,0.694,0.393,1.419c0,0.743-0.094,1.381-0.284,1.913
		c-0.189,0.531-0.486,1.005-0.89,1.424c-0.403,0.418-0.952,0.841-1.642,1.276l-0.273,0.158v0.997l-0.895,0.519v-0.999
		c-0.47,0.271-0.888,0.472-1.26,0.604c-0.369,0.126-0.689,0.169-0.962,0.122c-0.271-0.047-0.482-0.209-0.63-0.493
		c-0.151-0.279-0.229-0.693-0.229-1.24l-0.008-0.335l1.417-0.82c0,0.414,0.03,0.713,0.089,0.903
		c0.056,0.186,0.149,0.295,0.278,0.324C9.437,15.02,9.582,15,9.749,14.93c0.16-0.066,0.45-0.207,0.867-0.416V11.7
		c-0.549,0.272-0.982,0.472-1.304,0.596c-0.325,0.123-0.615,0.17-0.875,0.145c-0.258-0.025-0.459-0.177-0.602-0.443
		c-0.139-0.273-0.211-0.702-0.211-1.288c0-0.728,0.126-1.354,0.374-1.885C8.241,8.291,8.581,7.832,9.01,7.45
		c0.429-0.384,0.965-0.762,1.605-1.131v-0.88L11.51,4.92v0.881c0.715-0.377,1.268-0.615,1.665-0.713
		c0.393-0.096,0.693-0.011,0.903,0.263c0.209,0.271,0.313,0.798,0.313,1.588l-1.386,0.8c-0.008-0.049-0.011-0.111-0.011-0.186
		c0-0.461-0.087-0.719-0.26-0.781s-0.464,0.028-0.876,0.263L11.51,7.238L11.51,7.238z M11.51,11.184v2.813l0.273-0.158
		c0.472-0.273,0.819-0.572,1.046-0.9c0.229-0.327,0.342-0.758,0.342-1.288c0-0.416-0.064-0.683-0.194-0.802
		c-0.126-0.12-0.293-0.149-0.495-0.083C12.276,10.829,11.951,10.97,11.51,11.184L11.51,11.184z M10.615,7.755l-0.218,0.126
		c-0.316,0.186-0.566,0.356-0.751,0.512C9.462,8.545,9.315,8.739,9.206,8.97C9.097,9.202,9.042,9.499,9.042,9.862
		c0,0.517,0.132,0.794,0.393,0.837c0.261,0.041,0.653-0.09,1.181-0.395V7.755z"/>
	<path fill-rule="evenodd" clip-rule="evenodd" fill="#FAC13C" d="M11.062,3.063c-3.757,2.171-6.804,7.448-6.804,11.788
		s3.046,6.1,6.804,3.931c3.759-2.169,6.808-7.449,6.808-11.789C17.869,2.653,14.82,0.894,11.062,3.063L11.062,3.063z M11.062,17.646
		C9.456,18.571,8,18.661,6.948,18.051c-1.055-0.606-1.706-1.913-1.706-3.768c0-1.857,0.651-3.913,1.706-5.738
		C8,6.722,9.456,5.127,11.062,4.2c1.607-0.928,3.065-1.016,4.118-0.408c1.055,0.608,1.703,1.913,1.703,3.768
		c0,1.857-0.648,3.913-1.703,5.738C14.127,15.122,12.669,16.715,11.062,17.646z"/>
	<polygon fill-rule="evenodd" clip-rule="evenodd" fill="#D19917" points="2.277,15.865 4.638,17.227 4.563,17.014 4.471,16.693 
		4.395,16.355 4.335,16.004 4.292,15.634 4.267,15.25 4.258,14.851 4.267,14.44 4.292,14.026 4.335,13.608 4.395,13.188 
		4.471,12.763 4.563,12.338 4.67,11.911 4.792,11.484 4.836,11.342 2.473,9.977 2.428,10.118 2.305,10.547 2.2,10.972 2.106,11.398 
		2.031,11.821 1.972,12.244 1.927,12.663 1.901,13.077 1.893,13.486 1.901,13.886 1.927,14.268 1.972,14.64 2.031,14.989 
		2.106,15.327 2.2,15.647 	"/>
	<polygon fill-rule="evenodd" clip-rule="evenodd" fill="#FAC13C" points="11.535,0.776 11.348,0.787 11.04,0.823 10.724,0.883 
		10.399,0.964 10.071,1.066 9.736,1.19 9.394,1.335 9.048,1.506 8.698,1.699 8.348,1.91 8.002,2.141 7.661,2.388 7.328,2.65 
		6.997,2.928 6.937,2.983 9.3,4.348 9.362,4.292 9.691,4.015 10.026,3.752 10.368,3.504 10.713,3.276 11.062,3.063 11.414,2.871 
		11.76,2.702 12.099,2.555 12.434,2.431 12.763,2.328 13.085,2.247 13.403,2.189 13.713,2.151 13.898,2.141 	"/>
</g>
</svg>
