<?xml version="1.0" encoding="utf-8"?>
<!-- Generator: Adobe Illustrator 16.0.0, SVG Export Plug-In . SVG Version: 6.00 Build 0)  -->
<!DOCTYPE svg PUBLIC "-//W3C//DTD SVG 1.1//EN" "http://www.w3.org/Graphics/SVG/1.1/DTD/svg11.dtd">
<svg version="1.1" id="Layer_1" xmlns="http://www.w3.org/2000/svg" xmlns:xlink="http://www.w3.org/1999/xlink" x="0px" y="0px"
	 width="20px" height="20px" viewBox="0 0 20 20" enable-background="new 0 0 20 20" xml:space="preserve">
<path fill-rule="evenodd" clip-rule="evenodd" fill="#F5F5F5" d="M246.335,220.861c0.933,0.539,0.933,1.413,0,1.952
	c-0.934,0.538-2.446,0.538-3.379,0c-0.934-0.539-0.934-1.413,0-1.952C243.889,220.322,245.401,220.322,246.335,220.861z"/>
<polygon fill-rule="evenodd" clip-rule="evenodd" fill="#89B04D" points="246.756,219.633 245.247,218.762 242.599,220.29 
	244.108,221.161 "/>
<polygon fill-rule="evenodd" clip-rule="evenodd" fill="#9BC957" points="244.107,221.273 246.756,219.745 246.756,219.633 
	244.108,221.161 "/>
<polygon fill-rule="evenodd" clip-rule="evenodd" fill="#70913F" points="244.108,221.161 242.599,220.29 242.599,220.402 
	244.107,221.273 "/>
<path fill-rule="evenodd" clip-rule="evenodd" fill="#BFC7C9" d="M245.712,219.507c0.034,0,0.068-0.008,0.095-0.022
	c0.026-0.016,0.039-0.035,0.039-0.055s-0.013-0.04-0.039-0.055c-0.026-0.016-0.061-0.022-0.095-0.022s-0.068,0.007-0.095,0.022
	c-0.026,0.015-0.039,0.035-0.039,0.055s0.013,0.039,0.039,0.055C245.644,219.499,245.678,219.507,245.712,219.507z"/>
<path fill-rule="evenodd" clip-rule="evenodd" fill="#FAC13C" d="M245.81,219.481c0.052-0.032,0.036-0.08,0.036-0.139
	c0-0.444,0.005-0.893,0-1.336c0-0.015,0.001,0.011-0.017,0.029c-0.062,0.062-0.224,0.058-0.251-0.035c-0.004,0.004,0,1.279,0,1.4
	c0,0.078,0.045,0.098,0.12,0.104C245.733,219.509,245.779,219.5,245.81,219.481z"/>
<path fill-rule="evenodd" clip-rule="evenodd" fill="#F5BE3D" d="M245.712,218.075c0.034,0,0.068-0.007,0.095-0.022
	c0.026-0.015,0.039-0.035,0.039-0.055s-0.013-0.04-0.039-0.055s-0.061-0.022-0.095-0.022s-0.068,0.008-0.095,0.022
	s-0.039,0.035-0.039,0.055s0.013,0.04,0.039,0.055C245.644,218.068,245.678,218.075,245.712,218.075z"/>
<polygon fill-rule="evenodd" clip-rule="evenodd" fill="#FFDC6A" points="245.807,219.483 245.81,219.481 245.812,219.48 
	245.813,219.479 245.816,219.478 245.816,219.477 245.816,218.047 245.816,218.047 245.813,218.049 245.812,218.05 245.81,218.052 
	245.807,218.053 245.804,218.055 245.802,218.056 245.799,218.057 245.797,218.059 245.794,218.06 245.791,218.061 245.788,218.062 
	245.786,218.063 245.783,218.063 245.78,218.064 245.777,218.065 245.774,218.066 245.771,218.067 245.769,218.068 245.766,218.069 
	245.763,218.069 245.76,218.07 245.756,218.071 245.755,218.071 245.755,219.502 245.756,219.502 245.76,219.501 245.763,219.5 
	245.766,219.5 245.769,219.499 245.771,219.498 245.774,219.497 245.777,219.496 245.78,219.495 245.783,219.494 245.786,219.493 
	245.788,219.492 245.791,219.491 245.794,219.489 245.797,219.488 245.799,219.487 245.802,219.486 245.804,219.484 "/>
<polygon fill-rule="evenodd" clip-rule="evenodd" fill="#E6B543" points="245.674,218.072 245.671,218.071 245.668,218.071 
	245.664,218.07 245.661,218.069 245.658,218.069 245.655,218.068 245.652,218.067 245.649,218.066 245.646,218.065 245.644,218.064 
	245.641,218.063 245.638,218.063 245.635,218.062 245.633,218.061 245.63,218.06 245.627,218.059 245.625,218.057 245.622,218.056 
	245.619,218.055 245.617,218.053 245.614,218.052 245.612,218.05 245.61,218.049 245.607,218.047 245.607,218.047 245.607,219.478 
	245.607,219.478 245.61,219.479 245.612,219.48 245.614,219.481 245.617,219.483 245.619,219.484 245.622,219.486 245.625,219.487 
	245.627,219.488 245.63,219.489 245.633,219.491 245.635,219.492 245.638,219.493 245.641,219.494 245.644,219.495 245.646,219.496 
	245.649,219.497 245.652,219.498 245.655,219.499 245.658,219.5 245.661,219.5 245.664,219.501 245.668,219.502 245.671,219.502 
	245.674,219.503 "/>
<path fill-rule="evenodd" clip-rule="evenodd" fill="#D19917" d="M245.712,218.055c0.03,0,0.061-0.007,0.084-0.021
	c0.023-0.013,0.035-0.03,0.035-0.049c0-0.017-0.012-0.034-0.035-0.048s-0.054-0.021-0.084-0.021s-0.061,0.007-0.084,0.021
	s-0.035,0.031-0.035,0.048c0,0.019,0.012,0.036,0.035,0.049C245.651,218.048,245.682,218.055,245.712,218.055z"/>
<rect x="246.307" y="217.814" transform="matrix(0.8673 0.4979 -0.4979 0.8673 141.1429 -93.729)" fill-rule="evenodd" clip-rule="evenodd" fill="#D1CACA" width="0.061" height="0"/>
<polygon fill-rule="evenodd" clip-rule="evenodd" fill="#D1CACA" points="246.275,217.704 246.223,217.674 245.87,217.642 
	245.871,217.651 245.871,217.661 245.871,217.671 245.87,217.681 245.869,217.691 245.868,217.702 245.866,217.712 245.864,217.723 
	245.918,217.754 245.92,217.742 245.921,217.732 245.922,217.722 245.924,217.712 245.924,217.702 245.924,217.692 245.924,217.682 
	245.924,217.673 "/>
<polygon fill-rule="evenodd" clip-rule="evenodd" fill="#D1CACA" points="245.918,217.754 245.864,217.723 245.858,217.747 
	245.852,217.771 245.843,217.795 245.832,217.819 245.819,217.844 245.806,217.867 245.791,217.89 245.773,217.912 245.826,217.942 
	245.843,217.92 245.858,217.897 245.872,217.874 245.885,217.85 245.896,217.826 245.904,217.802 245.912,217.777 "/>
<rect x="245.815" y="217.953" transform="matrix(0.8712 0.491 -0.491 0.8712 138.695 -92.6306)" fill-rule="evenodd" clip-rule="evenodd" fill="#D1CACA" width="0.062" height="0.001"/>
<polygon fill-rule="evenodd" clip-rule="evenodd" fill="#D1CACA" points="245.872,217.971 245.818,217.939 245.817,217.941 
	245.815,217.944 245.813,217.946 245.813,217.948 245.811,217.95 245.809,217.952 245.807,217.954 245.806,217.956 245.858,217.986 
	245.86,217.984 245.861,217.982 245.863,217.98 245.865,217.979 245.867,217.977 245.868,217.975 245.87,217.973 "/>
<path fill-rule="evenodd" clip-rule="evenodd" fill="#EBEBEB" d="M245.813,217.96l0.11,0.01l0.241,0.021l0.176-0.102
	c0.005-0.003,0.01-0.007,0.014-0.012l0.001-0.001c0.003-0.005,0.007-0.011,0.009-0.017s0.004-0.013,0.004-0.018
	c0-0.006-0.002-0.01-0.004-0.014l0,0l-0.088-0.125l-0.352-0.031c0.002,0.024-0.001,0.053-0.006,0.081
	c-0.014,0.063-0.045,0.131-0.092,0.188l-0.001,0.001C245.821,217.949,245.817,217.955,245.813,217.96z"/>
<polygon fill-rule="evenodd" clip-rule="evenodd" fill="#82888A" points="245.617,217.929 245.732,217.995 245.741,217.999 
	245.75,218.001 245.76,218.001 245.77,218.001 245.779,217.998 245.79,217.995 245.801,217.99 245.812,217.984 245.822,217.978 
	245.833,217.969 245.844,217.96 245.854,217.949 245.864,217.938 245.865,217.936 245.876,217.923 245.885,217.909 245.893,217.896 
	245.899,217.882 245.905,217.868 245.911,217.854 245.915,217.84 245.918,217.826 245.921,217.813 245.922,217.799 245.922,217.787 
	245.922,217.774 245.92,217.763 245.917,217.752 245.912,217.742 245.907,217.733 245.9,217.726 245.894,217.72 245.886,217.715 
	245.777,217.652 245.785,217.646 245.804,217.633 245.823,217.622 245.842,217.614 245.859,217.608 245.878,217.604 
	245.895,217.604 245.911,217.604 245.927,217.607 245.941,217.613 245.762,217.51 245.747,217.504 245.731,217.5 245.716,217.499 
	245.698,217.501 245.681,217.505 245.662,217.511 245.644,217.519 245.625,217.529 245.606,217.541 245.587,217.556 
	245.568,217.572 245.551,217.591 245.533,217.611 245.532,217.612 245.529,217.615 245.527,217.619 245.524,217.622 
	245.521,217.626 245.52,217.629 245.517,217.633 245.515,217.636 245.512,217.64 245.512,217.64 245.512,217.64 245.511,217.642 
	245.511,217.642 245.51,217.643 245.498,217.662 245.486,217.682 245.476,217.701 245.467,217.722 245.459,217.741 245.452,217.762 
	245.446,217.781 245.441,217.802 245.44,217.806 245.439,217.81 245.439,217.813 245.438,217.817 245.438,217.821 245.438,217.825 
	245.437,217.829 245.437,217.833 245.437,217.834 245.437,217.834 245.437,217.834 245.437,217.835 245.435,217.854 
	245.435,217.871 245.436,217.889 245.438,217.904 245.441,217.92 245.446,217.935 245.453,217.948 245.46,217.961 245.461,217.962 
	245.472,217.975 245.483,217.985 245.497,217.993 245.677,218.097 245.663,218.089 245.65,218.078 245.641,218.065 245.64,218.064 
	245.633,218.053 245.626,218.039 245.621,218.024 245.617,218.009 245.615,217.992 245.614,217.976 245.614,217.957 
	245.615,217.938 245.615,217.938 245.615,217.938 245.615,217.938 245.615,217.938 245.616,217.934 245.617,217.93 "/>
<path fill-rule="evenodd" clip-rule="evenodd" fill="#BFC7C9" d="M245.621,217.905c-0.003,0.011-0.004,0.021-0.006,0.032l0,0l0,0
	v0.001l0,0c-0.005,0.05,0.003,0.095,0.024,0.126l0.001,0.001c0.026,0.038,0.068,0.049,0.116,0.037h0.001l0,0l0,0h0.001l0,0
	c0.032-0.009,0.066-0.028,0.101-0.059l0,0l0.002-0.001v-0.001l0,0c0.008-0.007,0.015-0.014,0.021-0.021l0.001-0.001l0,0l0,0
	l0.001-0.002c0.007-0.007,0.015-0.015,0.021-0.023v-0.001c0.047-0.059,0.078-0.126,0.092-0.189c0.013-0.063,0.007-0.121-0.02-0.159
	c-0.027-0.039-0.07-0.05-0.119-0.037c-0.048,0.013-0.101,0.05-0.147,0.107v0.001c-0.007,0.009-0.014,0.018-0.021,0.026l0,0v0.001
	l-0.001,0.001l-0.001,0.001l0,0C245.655,217.797,245.632,217.854,245.621,217.905L245.621,217.905z M245.711,217.977
	c-0.016-0.022-0.019-0.056-0.011-0.092c0.007-0.037,0.025-0.076,0.053-0.11c0.026-0.033,0.058-0.055,0.086-0.063
	c0.027-0.007,0.053-0.001,0.068,0.021s0.019,0.056,0.011,0.093c-0.007,0.036-0.025,0.076-0.053,0.109l-0.001,0.002
	c-0.026,0.032-0.057,0.054-0.085,0.061C245.752,218.006,245.727,217.999,245.711,217.977L245.711,217.977z"/>
<polygon fill-rule="evenodd" clip-rule="evenodd" fill="#D1CACA" points="245.748,216.956 245.695,216.926 245.693,216.925 
	245.692,216.925 245.691,216.924 245.689,216.924 245.688,216.924 245.687,216.924 245.686,216.924 245.684,216.925 
	245.682,216.925 245.68,216.926 245.678,216.927 245.676,216.928 245.675,216.929 245.672,216.931 245.671,216.932 245.669,216.934 
	245.667,216.935 245.666,216.937 245.664,216.938 245.662,216.939 245.661,216.94 245.66,216.942 245.659,216.944 245.658,216.946 
	245.656,216.948 245.655,216.95 245.654,216.952 245.653,216.955 245.652,216.957 245.652,216.958 245.564,217.184 245.564,217.652 
	245.617,217.684 245.617,217.214 245.705,216.989 245.705,216.988 245.706,216.985 245.707,216.982 245.709,216.981 245.71,216.979 
	245.711,216.977 245.712,216.975 245.714,216.973 245.715,216.971 245.716,216.971 245.717,216.969 245.719,216.967 245.72,216.965 
	245.722,216.964 245.724,216.962 245.726,216.961 245.727,216.96 245.729,216.958 245.731,216.957 245.732,216.957 245.734,216.956 
	245.736,216.955 245.738,216.955 245.74,216.955 245.741,216.954 245.743,216.955 245.744,216.955 245.745,216.955 245.747,216.955 
	"/>
<path fill-rule="evenodd" clip-rule="evenodd" fill="#EBEBEB" d="M245.841,217.555v-0.177v-0.292l-0.088-0.126
	c-0.003-0.003-0.006-0.005-0.01-0.005c-0.004-0.001-0.009,0-0.014,0.003c-0.006,0.003-0.01,0.008-0.014,0.013h-0.001
	c-0.004,0.005-0.007,0.011-0.01,0.017v0.002l-0.088,0.225v0.47c0.005-0.007,0.01-0.013,0.015-0.019l0.001-0.001
	c0.046-0.058,0.099-0.094,0.146-0.107C245.802,217.552,245.822,217.551,245.841,217.555z"/>
<g>
	<path fill-rule="evenodd" clip-rule="evenodd" fill="#D1CACA" d="M245.534,217.897l-0.053-0.031l-0.352,0.438l-0.088,0.226v0.001
		l0.053,0.03l0,0l0,0l0.088-0.227L245.534,217.897L245.534,217.897z M245.042,218.531l0.053,0.03l-0.001,0.002l-0.001,0.003v0.002
		l-0.001,0.002v0.003v0.002l-0.001,0.002v0.002l0.027,0.016l0,0l-0.027-0.016l0,0v0.002l0.001,0.002v0.002v0.002l0.001,0.001v0.002
		l0.001,0.002l0.001,0.001l0.001,0.001l0.001,0.001l0.001,0.001l0.002,0.001l-0.053-0.03l-0.002-0.001l-0.001-0.001l-0.001-0.001
		l-0.001-0.001l-0.001-0.002l-0.001-0.001v-0.002l-0.001-0.001v-0.002l-0.001-0.002v-0.002v-0.002v-0.002v-0.002l0.001-0.003v-0.002
		l0.001-0.002v-0.003l0.001-0.002L245.042,218.531L245.042,218.531L245.042,218.531z"/>
</g>
<path fill-rule="evenodd" clip-rule="evenodd" fill="#EBEBEB" d="M245.534,217.898l-0.352,0.437l-0.088,0.227l0,0l0,0
	c-0.002,0.006-0.004,0.013-0.004,0.018c0,0.006,0.002,0.01,0.004,0.014c0.003,0.004,0.006,0.006,0.01,0.006l0,0l0,0
	c0.004,0,0.009-0.001,0.014-0.004l0,0l0.176-0.102l0.236-0.294l0.103-0.128l-0.038-0.021l-0.013-0.009l-0.013-0.01l-0.011-0.013
	v-0.001l-0.008-0.013l-0.006-0.014l-0.005-0.015l-0.004-0.016l-0.002-0.016l-0.001-0.018v-0.018L245.534,217.898z"/>
<path fill-rule="evenodd" clip-rule="evenodd" fill="#707E82" d="M245.696,217.915l0.16,0.093l-0.006-0.003l-0.005-0.004
	l-0.004-0.006l-0.001-0.001l-0.003-0.006l-0.003-0.006l-0.002-0.008l-0.001-0.008l-0.001-0.008l0.001-0.009v-0.009l0.002-0.009
	l0.002-0.01l0.003-0.01l0.004-0.01l0.004-0.01l0.005-0.009l0.006-0.01l0.006-0.009l0.007-0.009l0.007-0.008l0.008-0.008l0.007-0.007
	l0.008-0.006l0.007-0.005l0.008-0.004l0.007-0.003l0.008-0.003l0.007-0.001l0.007-0.001h0.007l0.006,0.002l0.006,0.002l-0.155-0.09
	c-0.019,0.012-0.036,0.027-0.053,0.048c-0.027,0.034-0.046,0.073-0.053,0.11C245.698,217.896,245.696,217.905,245.696,217.915z"/>
<path fill-rule="evenodd" clip-rule="evenodd" fill="#899EA3" d="M245.834,217.933c-0.005,0.024-0.003,0.047,0.007,0.062
	l0.001,0.001c0.011,0.016,0.027,0.02,0.047,0.015c0.019-0.005,0.039-0.02,0.058-0.042l0.001-0.001
	c0.019-0.022,0.03-0.05,0.036-0.074c0.005-0.025,0.003-0.049-0.008-0.063s-0.028-0.02-0.047-0.015
	c-0.02,0.005-0.04,0.021-0.059,0.043C245.852,217.881,245.839,217.907,245.834,217.933z"/>
<g>
	<polygon fill-rule="evenodd" clip-rule="evenodd" fill="#CFD1D1" points="244.037,219.966 242.98,219.356 242.98,220.288 
		244.036,220.897 	"/>
	<polygon fill-rule="evenodd" clip-rule="evenodd" fill="#CFD1D1" points="244.753,218.538 243.697,217.928 242.828,219.444 
		243.884,220.055 	"/>
</g>
<polygon fill-rule="evenodd" clip-rule="evenodd" fill="#E6EAEB" points="245.476,220.067 245.476,219.136 245.629,219.048 
	244.753,218.538 243.884,220.055 244.037,219.966 244.036,220.897 "/>
<polygon fill-rule="evenodd" clip-rule="evenodd" fill="#999999" points="244.509,220.625 244.98,220.353 244.98,219.46 
	244.509,219.732 "/>
<polygon fill-rule="evenodd" clip-rule="evenodd" fill="#666565" points="244.553,220.6 244.937,220.378 244.938,219.545 
	244.553,219.767 "/>
<polygon fill-rule="evenodd" clip-rule="evenodd" fill="#FAC13C" points="244.553,220.543 244.888,220.35 244.888,219.573 
	244.553,219.767 "/>
<path fill-rule="evenodd" clip-rule="evenodd" fill="#D19917" d="M243.467,219.715l0.2,0.115l0.003,0.002l0.002,0.002l0.003,0.002
	l0.002,0.002l0.002,0.002l0.002,0.003l0.002,0.003l0.002,0.003l0,0l0.001,0.003l0.002,0.003l0.001,0.003l0.001,0.003l0.001,0.003
	l0.001,0.003v0.003v0.003v0.515v0.002v0.003l-0.001,0.003l-0.001,0.002l-0.001,0.001l-0.001,0.002l-0.002,0.002l-0.001,0.001
	l-0.032,0.019l0.001-0.001l0.002-0.002l0.001-0.001l0.001-0.002l0.001-0.002l0.001-0.003v-0.002v-0.003v-0.515v-0.003v-0.003
	l-0.001-0.003l-0.001-0.003l-0.001-0.003l-0.001-0.003l-0.002-0.003l-0.001-0.003l0,0l-0.002-0.003l-0.002-0.003l-0.002-0.002
	l-0.002-0.003l-0.002-0.002l-0.003-0.002l-0.002-0.002l-0.003-0.002l-0.2-0.115l-0.044-0.025l-0.2-0.116l-0.003-0.001l-0.003-0.001
	l-0.002-0.001h-0.002h-0.002h-0.002l-0.002,0.001h-0.002l0.032-0.019l0.002-0.001h0.001h0.002h0.003h0.002l0.002,0.001l0.003,0.001
	l0.002,0.001l0.201,0.116L243.467,219.715L243.467,219.715z M243.43,219.77L243.43,219.77L243.43,219.77l-0.001,0.002v0.002v0.482
	v0.002v0.001l0.001,0.002v0.001l0.001,0.002l0.001,0.001l0.002,0.001l0.001,0.001l0.188,0.108h0.001h0.001h0.001h0.001l0.032-0.019
	h-0.001l-0.001,0.001l-0.001-0.001h-0.002l-0.187-0.108l-0.002-0.001l-0.001-0.001l-0.001-0.001l-0.001-0.002v-0.001l-0.001-0.002
	l-0.001-0.001v-0.002v-0.482v-0.002l0.001-0.001l0.001-0.001v-0.001L243.43,219.77L243.43,219.77z M243.423,220.223l-0.188-0.108
	h-0.001l-0.001-0.002l-0.001-0.001l-0.001-0.001l-0.001-0.002v-0.001l-0.001-0.002v-0.001v-0.287v-0.001l0.001-0.001v-0.001
	l0.001-0.001l-0.032,0.019l-0.001,0.001l-0.001,0.001v0.001v0.001v0.287v0.001v0.002l0.001,0.001l0.001,0.002l0.001,0.001
	l0.001,0.001l0.001,0.001l0.001,0.001l0.188,0.108l0.001,0.001h0.001h0.002l0,0l0.032-0.019h-0.001h-0.001L243.423,220.223
	L243.423,220.223L243.423,220.223z M243.423,219.886l-0.188-0.108l-0.001-0.001l-0.001-0.001l-0.001-0.001l-0.001-0.002
	l-0.001-0.001v-0.002l-0.001-0.001v-0.002v-0.146v-0.001l0.001-0.002l0,0l0.001-0.001l-0.032,0.019l-0.001,0.001h-0.001v0.002v0.001
	v0.146v0.002v0.001l0.001,0.002l0.001,0.002l0.001,0.001l0.001,0.001l0.001,0.001l0.001,0.001l0.188,0.108h0.001l0.001,0.001h0.002
	v-0.001l0.032-0.019l-0.001,0.001h-0.001L243.423,219.886L243.423,219.886z"/>
<polygon fill-rule="evenodd" clip-rule="evenodd" fill="#2192FC" points="243.449,219.761 243.449,220.244 243.456,220.255 
	243.643,220.362 243.648,220.359 243.648,219.876 243.643,219.865 243.456,219.757 "/>
<polygon fill-rule="evenodd" clip-rule="evenodd" fill="#2192FC" points="243.418,220.226 243.418,219.938 243.412,219.929 
	243.225,219.82 243.219,219.824 243.219,220.11 243.225,220.121 243.412,220.229 "/>
<polygon fill-rule="evenodd" clip-rule="evenodd" fill="#2192FC" points="243.418,219.889 243.418,219.742 243.412,219.732 
	243.225,219.624 243.219,219.627 243.219,219.773 243.225,219.784 243.412,219.892 "/>
<path fill-rule="evenodd" clip-rule="evenodd" fill="#FAC13C" d="M243.435,219.733l0.2,0.115c0.007,0.004,0.013,0.011,0.018,0.019
	l0,0c0.004,0.008,0.007,0.016,0.007,0.023v0.515c0,0.008-0.003,0.013-0.007,0.016c-0.005,0.002-0.011,0.002-0.018-0.002l-0.2-0.116
	l-0.044-0.025l-0.2-0.115c-0.007-0.004-0.013-0.011-0.018-0.019l0,0c-0.005-0.007-0.007-0.016-0.007-0.023v-0.515
	c0-0.007,0.002-0.013,0.007-0.016c0.005-0.002,0.011-0.002,0.018,0.002l0.2,0.116L243.435,219.733L243.435,219.733z M243.396,219.9
	v-0.146c0-0.004-0.002-0.009-0.006-0.011l-0.188-0.107c-0.003-0.003-0.006-0.001-0.006,0.003v0.146c0,0.004,0.003,0.009,0.006,0.011
	l0.188,0.108C243.395,219.906,243.396,219.904,243.396,219.9L243.396,219.9z M243.396,220.237v-0.286
	c0-0.004-0.002-0.009-0.006-0.011l-0.188-0.108c-0.003-0.001-0.006,0-0.006,0.004v0.287c0,0.004,0.003,0.008,0.006,0.01l0.188,0.108
	C243.395,220.243,243.396,220.242,243.396,220.237L243.396,220.237z M243.429,219.773v0.482c0,0.004,0.002,0.009,0.006,0.011
	l0.188,0.108c0.003,0.002,0.006,0,0.006-0.004v-0.482c0-0.005-0.003-0.009-0.006-0.011l-0.188-0.108
	C243.431,219.768,243.429,219.77,243.429,219.773z"/>
<g>
	<polygon fill-rule="evenodd" clip-rule="evenodd" fill="#D14232" points="244.824,218.596 243.6,217.889 244.51,218.419 
		245.734,219.127 	"/>
	<polygon fill-rule="evenodd" clip-rule="evenodd" fill="#E74C3C" points="244.824,218.408 243.599,217.701 242.534,219.56 
		243.759,220.267 	"/>
</g>
<polygon fill-rule="evenodd" clip-rule="evenodd" fill="#C0392B" points="245.734,219.127 245.896,219.033 244.824,218.408 
	243.759,220.267 243.92,220.173 244.824,218.596 "/>
<path fill-rule="evenodd" clip-rule="evenodd" fill="#323A3D" d="M244.163,218.893l-0.662-0.386
	c-0.016-0.009-0.021-0.029-0.012-0.045l0.19-0.323c0.009-0.017,0.029-0.021,0.045-0.013l0.663,0.386
	c0.016,0.009,0.021,0.029,0.012,0.045l-0.19,0.323C244.2,218.896,244.179,218.901,244.163,218.893z"/>
<path fill-rule="evenodd" clip-rule="evenodd" fill="#475459" d="M244.097,218.695l-0.069,0.118l0.124,0.072
	c0.012,0.006,0.023,0.009,0.034,0.008l0,0c0.01-0.001,0.019-0.006,0.023-0.014l0.052-0.089L244.097,218.695z"/>
<rect x="244.154" y="218.576" transform="matrix(0.5092 -0.8606 0.8606 0.5092 -68.3362 317.5081)" fill-rule="evenodd" clip-rule="evenodd" fill="#475459" width="0.136" height="0.191"/>
<rect x="243.968" y="218.468" transform="matrix(-0.5061 0.8625 -0.8625 -0.5061 556.0469 118.697)" fill-rule="evenodd" clip-rule="evenodd" fill="#475459" width="0.137" height="0.19"/>
<rect x="243.89" y="218.599" transform="matrix(-0.5061 0.8625 -0.8625 -0.5061 556.0437 118.9625)" fill-rule="evenodd" clip-rule="evenodd" fill="#475459" width="0.137" height="0.191"/>
<path fill-rule="evenodd" clip-rule="evenodd" fill="#475459" d="M244.182,218.55l0.165,0.096l0.053-0.089
	c0.005-0.008,0.004-0.018,0-0.027c-0.004-0.009-0.013-0.019-0.023-0.024l-0.125-0.072L244.182,218.55z"/>
<rect x="243.706" y="218.492" transform="matrix(0.5092 -0.8606 0.8606 0.5092 -68.4834 317.0819)" fill-rule="evenodd" clip-rule="evenodd" fill="#475459" width="0.136" height="0.191"/>
<rect x="243.783" y="218.36" transform="matrix(0.5092 -0.8606 0.8606 0.5092 -68.3325 317.0839)" fill-rule="evenodd" clip-rule="evenodd" fill="#475459" width="0.136" height="0.191"/>
<polygon fill-rule="evenodd" clip-rule="evenodd" fill="#475459" points="243.881,218.217 243.813,218.335 243.977,218.431 
	244.046,218.313 243.974,218.271 "/>
<path fill-rule="evenodd" clip-rule="evenodd" fill="#475459" d="M243.792,218.322l0.069-0.117l-0.125-0.072
	c-0.011-0.006-0.022-0.009-0.033-0.008l0,0c-0.011,0.001-0.02,0.006-0.023,0.014l-0.053,0.088L243.792,218.322z"/>
<rect x="243.599" y="218.252" transform="matrix(-0.5039 0.8638 -0.8638 -0.5039 555.0471 117.8927)" fill-rule="evenodd" clip-rule="evenodd" fill="#475459" width="0.136" height="0.191"/>
<path fill-rule="evenodd" clip-rule="evenodd" fill="#475459" d="M243.637,218.586l0.069-0.117l-0.165-0.096l-0.052,0.089
	c-0.005,0.008-0.005,0.018,0,0.026c0.004,0.01,0.013,0.019,0.023,0.025L243.637,218.586z"/>
<polygon fill-rule="evenodd" clip-rule="evenodd" fill="#475459" points="244.139,218.367 244.066,218.325 243.997,218.442 
	244.162,218.538 244.23,218.421 "/>
<path fill-rule="evenodd" clip-rule="evenodd" fill="#323A3D" d="M243.898,219.342l-0.662-0.385c-0.016-0.01-0.021-0.03-0.012-0.046
	l0.189-0.323c0.01-0.016,0.03-0.021,0.046-0.012l0.663,0.385c0.016,0.01,0.021,0.03,0.012,0.046l-0.19,0.323
	C243.935,219.346,243.914,219.352,243.898,219.342z"/>
<path fill-rule="evenodd" clip-rule="evenodd" fill="#475459" d="M243.832,219.146l-0.069,0.117l0.124,0.072
	c0.012,0.007,0.023,0.01,0.033,0.009h0.001c0.01-0.001,0.019-0.006,0.023-0.014l0.052-0.089L243.832,219.146z"/>
<rect x="243.889" y="219.025" transform="matrix(0.5092 -0.8606 0.8606 0.5092 -68.8531 317.501)" fill-rule="evenodd" clip-rule="evenodd" fill="#475459" width="0.136" height="0.191"/>
<rect x="243.704" y="218.917" transform="matrix(-0.5039 0.8638 -0.8638 -0.5039 555.7802 118.8018)" fill-rule="evenodd" clip-rule="evenodd" fill="#475459" width="0.136" height="0.191"/>
<rect x="243.626" y="219.049" transform="matrix(-0.5092 0.8606 -0.8606 -0.5092 556.3912 121.0024)" fill-rule="evenodd" clip-rule="evenodd" fill="#475459" width="0.136" height="0.191"/>
<path fill-rule="evenodd" clip-rule="evenodd" fill="#475459" d="M243.917,219l0.165,0.096l0.052-0.089
	c0.005-0.008,0.005-0.018,0.001-0.027c-0.005-0.009-0.013-0.019-0.023-0.024l-0.125-0.073L243.917,219z"/>
<rect x="243.441" y="218.942" transform="matrix(0.5039 -0.8638 0.8638 0.5039 -68.3876 319.0088)" fill-rule="evenodd" clip-rule="evenodd" fill="#475459" width="0.136" height="0.191"/>
<rect x="243.519" y="218.81" transform="matrix(0.5092 -0.8606 0.8606 0.5092 -68.8494 317.0768)" fill-rule="evenodd" clip-rule="evenodd" fill="#475459" width="0.136" height="0.191"/>
<polygon fill-rule="evenodd" clip-rule="evenodd" fill="#475459" points="243.616,218.667 243.548,218.784 243.712,218.88 
	243.781,218.763 243.709,218.721 "/>
<path fill-rule="evenodd" clip-rule="evenodd" fill="#475459" d="M243.527,218.772l0.069-0.117l-0.125-0.072
	c-0.011-0.007-0.022-0.009-0.033-0.009v0.001c-0.011,0.001-0.02,0.005-0.024,0.013l-0.052,0.089L243.527,218.772z"/>
<rect x="243.333" y="218.702" transform="matrix(-0.5092 0.8606 -0.8606 -0.5092 555.6508 120.7313)" fill-rule="evenodd" clip-rule="evenodd" fill="#475459" width="0.136" height="0.191"/>
<path fill-rule="evenodd" clip-rule="evenodd" fill="#475459" d="M243.372,219.036l0.069-0.117l-0.165-0.097l-0.052,0.089
	c-0.005,0.008-0.005,0.019,0,0.027c0.004,0.01,0.013,0.019,0.023,0.025L243.372,219.036z"/>
<polygon fill-rule="evenodd" clip-rule="evenodd" fill="#475459" points="243.874,218.816 243.802,218.774 243.732,218.892 
	243.897,218.988 243.966,218.87 "/>
<path fill-rule="evenodd" clip-rule="evenodd" fill="#323A3D" d="M243.634,219.792l-0.662-0.386
	c-0.016-0.009-0.021-0.029-0.012-0.045l0.189-0.323c0.01-0.016,0.03-0.021,0.046-0.012l0.662,0.385
	c0.017,0.01,0.021,0.03,0.013,0.046l-0.19,0.323C243.67,219.796,243.649,219.801,243.634,219.792z"/>
<path fill-rule="evenodd" clip-rule="evenodd" fill="#475459" d="M243.566,219.596l-0.068,0.117l0.124,0.072
	c0.012,0.007,0.023,0.009,0.033,0.008l0,0c0.011-0.001,0.02-0.005,0.024-0.013l0.052-0.089L243.566,219.596z"/>
<rect x="243.624" y="219.475" transform="matrix(0.5092 -0.8606 0.8606 0.5092 -69.37 317.494)" fill-rule="evenodd" clip-rule="evenodd" fill="#475459" width="0.136" height="0.191"/>
<rect x="243.439" y="219.368" transform="matrix(-0.5092 0.8606 -0.8606 -0.5092 556.3823 121.6442)" fill-rule="evenodd" clip-rule="evenodd" fill="#475459" width="0.136" height="0.191"/>
<rect x="243.362" y="219.499" transform="matrix(-0.5092 0.8606 -0.8606 -0.5092 556.3793 121.9096)" fill-rule="evenodd" clip-rule="evenodd" fill="#475459" width="0.136" height="0.191"/>
<path fill-rule="evenodd" clip-rule="evenodd" fill="#475459" d="M243.652,219.449l0.165,0.096l0.052-0.088
	c0.005-0.008,0.005-0.019,0.001-0.027c-0.005-0.01-0.013-0.019-0.023-0.025l-0.125-0.072L243.652,219.449z"/>
<rect x="243.176" y="219.391" transform="matrix(0.5008 -0.8656 0.8656 0.5008 -68.5466 320.1279)" fill-rule="evenodd" clip-rule="evenodd" fill="#475459" width="0.137" height="0.191"/>
<rect x="243.254" y="219.259" transform="matrix(0.5092 -0.8606 0.8606 0.5092 -69.3663 317.0698)" fill-rule="evenodd" clip-rule="evenodd" fill="#475459" width="0.136" height="0.191"/>
<polygon fill-rule="evenodd" clip-rule="evenodd" fill="#475459" points="243.352,219.117 243.283,219.234 243.447,219.33 
	243.517,219.213 243.444,219.171 "/>
<path fill-rule="evenodd" clip-rule="evenodd" fill="#475459" d="M243.263,219.223l0.068-0.117l-0.124-0.072
	c-0.011-0.007-0.023-0.01-0.033-0.009l0,0c-0.011,0.001-0.02,0.006-0.024,0.014l-0.052,0.089L243.263,219.223z"/>
<rect x="243.068" y="219.152" transform="matrix(-0.5061 0.8625 -0.8625 -0.5061 555.282 120.5041)" fill-rule="evenodd" clip-rule="evenodd" fill="#475459" width="0.137" height="0.191"/>
<path fill-rule="evenodd" clip-rule="evenodd" fill="#475459" d="M243.107,219.485l0.069-0.117l-0.165-0.096l-0.052,0.089
	c-0.005,0.008-0.005,0.018,0,0.027c0.004,0.009,0.012,0.019,0.023,0.024L243.107,219.485z"/>
<polygon fill-rule="evenodd" clip-rule="evenodd" fill="#475459" points="243.609,219.267 243.537,219.225 243.468,219.342 
	243.633,219.438 243.701,219.32 "/>
<g>
	<polygon fill-rule="evenodd" clip-rule="evenodd" fill="#3D566E" points="2.349,10.614 2.349,16.271 2.379,16.411 2.418,16.551 
		2.473,16.694 2.537,16.83 2.615,16.966 2.701,17.103 2.801,17.238 2.915,17.366 3.037,17.494 3.173,17.619 3.32,17.744 
		3.479,17.86 3.65,17.974 3.833,18.087 4.024,18.192 4.222,18.291 4.43,18.382 4.641,18.469 4.858,18.544 5.079,18.615 5.306,18.68 
		5.536,18.74 5.77,18.789 6.007,18.834 6.247,18.872 6.491,18.902 6.734,18.925 6.979,18.944 7.227,18.955 7.474,18.959 
		7.719,18.955 7.966,18.944 8.211,18.925 8.457,18.902 8.698,18.872 8.94,18.834 9.178,18.789 9.412,18.74 9.642,18.684 
		9.868,18.619 10.089,18.544 10.306,18.469 10.518,18.382 10.723,18.291 10.921,18.192 11.116,18.087 11.297,17.974 11.469,17.86 
		11.627,17.744 11.774,17.619 11.908,17.494 12.033,17.366 12.145,17.238 12.246,17.103 12.333,16.966 12.41,16.83 12.475,16.694 
		12.527,16.551 12.568,16.411 12.599,16.271 12.599,10.614 12.568,10.754 12.527,10.897 12.475,11.037 12.41,11.177 12.333,11.313 
		12.246,11.448 12.145,11.581 12.033,11.713 11.908,11.837 11.774,11.966 11.627,12.086 11.469,12.203 11.297,12.32 11.116,12.43 
		10.921,12.535 10.723,12.634 10.518,12.728 10.306,12.811 10.089,12.891 9.868,12.962 9.642,13.026 9.412,13.083 9.178,13.136 
		8.94,13.177 8.698,13.219 8.457,13.249 8.211,13.271 7.966,13.286 7.719,13.298 7.474,13.302 7.227,13.298 6.979,13.286 
		6.734,13.271 6.491,13.245 6.247,13.215 6.007,13.177 5.77,13.136 5.536,13.083 5.306,13.026 5.079,12.962 4.858,12.891 
		4.641,12.811 4.43,12.728 4.222,12.634 4.024,12.535 3.833,12.43 3.65,12.32 3.479,12.203 3.32,12.086 3.173,11.966 3.037,11.837 
		2.915,11.713 2.801,11.581 2.701,11.448 2.615,11.313 2.537,11.177 2.473,11.037 2.418,10.897 2.379,10.758 	"/>
	<polygon fill-rule="evenodd" clip-rule="evenodd" fill="#2C3E50" points="2.964,17.419 3.037,17.494 3.173,17.619 3.32,17.744 
		3.479,17.86 3.65,17.974 3.833,18.087 4.024,18.192 4.222,18.291 4.43,18.382 4.641,18.469 4.858,18.544 5.079,18.619 5.1,18.623 
		5.1,12.966 5.079,12.962 4.858,12.891 4.641,12.811 4.43,12.728 4.222,12.634 4.024,12.535 3.833,12.43 3.65,12.32 3.479,12.203 
		3.32,12.086 3.173,11.966 3.037,11.841 2.964,11.762 	"/>
	<polygon fill-rule="evenodd" clip-rule="evenodd" fill="#496682" points="9.861,18.619 9.868,18.619 10.089,18.544 10.306,18.469 
		10.518,18.382 10.723,18.291 10.921,18.192 11.116,18.087 11.297,17.974 11.469,17.86 11.627,17.744 11.774,17.619 11.908,17.494 
		11.997,17.404 11.997,11.747 11.908,11.841 11.774,11.966 11.627,12.086 11.469,12.203 11.297,12.32 11.116,12.43 10.921,12.535 
		10.723,12.634 10.518,12.728 10.306,12.811 10.089,12.891 9.868,12.962 9.861,12.966 	"/>
	<polygon fill-rule="evenodd" clip-rule="evenodd" fill="#3D566E" points="6.37,10.218 6.37,10.388 6.389,10.509 6.451,10.626 
		6.551,10.739 6.692,10.837 6.777,10.882 6.866,10.92 6.96,10.954 7.059,10.977 7.159,11 7.262,11.015 7.368,11.022 7.474,11.025 
		7.58,11.022 7.685,11.015 7.789,11 7.891,10.977 7.989,10.954 8.082,10.92 8.172,10.882 8.255,10.837 8.396,10.739 8.499,10.626 
		8.559,10.509 8.58,10.388 8.58,10.218 8.559,10.343 8.499,10.46 8.396,10.569 8.255,10.671 8.172,10.716 8.082,10.754 
		7.989,10.784 7.891,10.811 7.789,10.83 7.685,10.845 7.58,10.852 7.474,10.856 7.368,10.852 7.262,10.845 7.159,10.83 
		7.059,10.811 6.96,10.784 6.866,10.754 6.777,10.716 6.692,10.671 6.551,10.569 6.451,10.46 6.389,10.343 	"/>
	<path fill-rule="evenodd" clip-rule="evenodd" fill="#496682" d="M8.255,9.769c-0.43-0.249-1.13-0.249-1.563,0
		s-0.432,0.653,0,0.902s1.132,0.249,1.563,0C8.687,10.422,8.685,10.018,8.255,9.769z"/>
	<polygon fill-rule="evenodd" clip-rule="evenodd" fill="#34485C" points="0.371,9.191 0.371,9.996 0.413,10.192 0.469,10.388 
		0.542,10.581 0.631,10.773 0.739,10.965 0.861,11.15 1,11.335 1.156,11.517 1.328,11.693 1.515,11.867 1.72,12.037 1.941,12.203 
		2.179,12.362 2.432,12.517 2.698,12.664 2.975,12.8 3.26,12.928 3.552,13.045 3.853,13.154 4.162,13.253 4.475,13.343 
		4.796,13.423 5.121,13.494 5.451,13.555 5.783,13.607 6.121,13.648 6.458,13.683 6.8,13.705 7.142,13.721 7.485,13.725 
		7.829,13.721 8.17,13.705 8.512,13.683 8.851,13.648 9.187,13.607 9.521,13.555 9.852,13.494 10.176,13.423 10.497,13.343 
		10.81,13.253 11.117,13.154 11.42,13.045 11.712,12.928 11.997,12.8 12.274,12.664 12.54,12.517 12.793,12.362 13.031,12.203 
		13.252,12.037 13.458,11.867 13.645,11.693 13.816,11.517 13.973,11.335 14.11,11.15 14.233,10.965 14.339,10.773 14.43,10.581 
		14.501,10.388 14.56,10.192 14.602,9.996 14.602,9.191 14.56,9.388 14.501,9.584 14.43,9.776 14.339,9.973 14.233,10.162 
		14.11,10.35 13.973,10.535 13.816,10.716 13.645,10.894 13.456,11.067 13.252,11.237 13.031,11.399 12.793,11.558 12.54,11.713 
		12.274,11.86 11.997,12 11.712,12.124 11.42,12.245 11.117,12.351 10.81,12.452 10.497,12.539 10.176,12.622 9.852,12.69 
		9.521,12.754 9.187,12.804 8.851,12.849 8.512,12.879 8.17,12.905 7.829,12.917 7.485,12.924 7.142,12.917 6.8,12.905 
		6.458,12.879 6.121,12.849 5.783,12.804 5.451,12.754 5.121,12.69 4.796,12.622 4.475,12.539 4.16,12.448 3.853,12.351 
		3.552,12.245 3.26,12.124 2.975,12 2.698,11.86 2.432,11.713 2.179,11.558 1.941,11.399 1.72,11.237 1.515,11.067 1.328,10.894 
		1.156,10.716 1,10.535 0.861,10.35 0.739,10.162 0.631,9.973 0.542,9.78 0.469,9.584 0.413,9.388 	"/>
	<polygon fill-rule="evenodd" clip-rule="evenodd" fill="#253647" points="1.224,11.588 1.328,11.693 1.515,11.867 1.72,12.037 
		1.941,12.203 2.179,12.362 2.432,12.517 2.698,12.664 2.975,12.8 3.26,12.928 3.552,13.045 3.853,13.154 4.162,13.253 4.19,13.26 
		4.19,12.46 4.16,12.448 3.853,12.351 3.552,12.245 3.26,12.124 2.975,12 2.698,11.86 2.432,11.713 2.179,11.562 1.941,11.399 
		1.72,11.237 1.515,11.067 1.328,10.894 1.224,10.784 	"/>
	<polygon fill-rule="evenodd" clip-rule="evenodd" fill="#47637D" points="10.801,13.256 10.81,13.253 11.117,13.154 11.42,13.045 
		11.712,12.928 11.997,12.8 12.274,12.664 12.54,12.517 12.793,12.362 13.031,12.203 13.252,12.037 13.456,11.867 13.645,11.693 
		13.767,11.569 13.767,10.766 13.645,10.894 13.456,11.067 13.252,11.237 13.031,11.399 12.793,11.562 12.54,11.713 12.274,11.86 
		11.997,12 11.712,12.124 11.42,12.245 11.117,12.351 10.81,12.452 10.801,12.452 	"/>
	<path fill-rule="evenodd" clip-rule="evenodd" fill="#496682" d="M12.525,6.188c-2.793-1.612-7.318-1.612-10.113,0
		c-2.792,1.611-2.794,4.227-0.002,5.839c2.793,1.615,7.324,1.615,10.117,0C15.32,10.415,15.32,7.799,12.525,6.188z"/>
	<path fill-rule="evenodd" clip-rule="evenodd" fill="#364859" d="M10.616,7.29c-1.738-1.004-4.554-1.004-6.293,0
		c-1.738,1.004-1.738,2.63,0,3.634c1.736,1.004,4.557,1.004,6.293,0C12.355,9.92,12.354,8.293,10.616,7.29z"/>
	<path fill-rule="evenodd" clip-rule="evenodd" fill="#30404F" d="M10.616,7.29c-0.468-0.268-1.015-0.468-1.597-0.589v4.816
		c0.583-0.125,1.13-0.325,1.597-0.593c0.123-0.072,0.236-0.144,0.341-0.223V7.512C10.852,7.437,10.738,7.361,10.616,7.29z"/>
	<path fill-rule="evenodd" clip-rule="evenodd" fill="#3B4F61" d="M6.715,6.576C5.839,6.663,5,6.901,4.322,7.29L4.277,7.316v3.582
		l0.045,0.026c0.676,0.389,1.517,0.631,2.393,0.717V6.576z"/>
	<polygon fill-rule="evenodd" clip-rule="evenodd" fill="#D19917" points="6.86,4.995 6.479,4.776 6.513,4.791 6.553,4.799 
		6.596,4.799 6.642,4.795 7.976,4.52 8.017,4.516 8.053,4.52 8.085,4.534 8.466,4.753 8.436,4.742 8.398,4.738 8.357,4.742 
		7.023,5.014 6.978,5.021 6.934,5.021 6.895,5.01 	"/>
	<polygon fill-rule="evenodd" clip-rule="evenodd" fill="#B88612" points="5.883,9.229 5.502,9.007 5.476,8.988 5.453,8.958 
		5.436,8.92 5.005,7.629 5.387,7.848 5.819,9.143 5.834,9.18 5.856,9.207 	"/>
	<polygon fill-rule="evenodd" clip-rule="evenodd" fill="#B88612" points="5.387,7.848 5.005,7.629 4.988,7.584 4.964,7.55 
		4.938,7.52 4.907,7.497 5.289,7.716 5.319,7.739 5.347,7.769 5.37,7.807 	"/>
	<polygon fill-rule="evenodd" clip-rule="evenodd" fill="#D19917" points="3.683,7.958 3.301,7.739 3.273,7.716 3.252,7.689 
		3.235,7.652 3.226,7.61 3.222,7.561 3.226,7.508 3.235,7.456 3.252,7.403 3.273,7.35 3.301,7.297 3.332,7.248 3.37,7.199 
		3.409,7.157 4.743,5.889 5.125,6.112 3.79,7.376 3.75,7.421 3.715,7.467 3.683,7.516 3.654,7.569 3.632,7.622 3.617,7.678 
		3.607,7.731 3.604,7.784 3.607,7.829 3.617,7.875 3.632,7.908 3.654,7.938 	"/>
	<polygon fill-rule="evenodd" clip-rule="evenodd" fill="#B88612" points="5.125,6.112 4.743,5.889 4.791,5.844 4.832,5.791 
		4.872,5.738 4.907,5.682 4.938,5.625 4.964,5.565 4.988,5.5 5.005,5.437 5.387,5.655 5.37,5.719 5.347,5.784 5.319,5.844 
		5.289,5.904 5.253,5.961 5.215,6.014 5.171,6.063 	"/>
	<polygon fill-rule="evenodd" clip-rule="evenodd" fill="#B88612" points="5.387,5.655 5.005,5.437 5.436,3.647 5.453,3.591 
		5.476,3.538 5.502,3.485 5.534,3.433 5.57,3.387 5.607,3.349 5.649,3.312 5.692,3.281 6.076,3.504 6.03,3.534 5.989,3.568 
		5.951,3.61 5.915,3.655 5.883,3.704 5.856,3.757 5.834,3.81 5.819,3.866 	"/>
	<polygon fill-rule="evenodd" clip-rule="evenodd" fill="#D19917" points="6.076,3.504 5.692,3.281 5.736,3.263 5.777,3.248 
		5.817,3.248 5.853,3.251 5.883,3.263 6.266,3.485 6.234,3.47 6.198,3.466 6.16,3.47 6.119,3.481 	"/>
	<polygon fill-rule="evenodd" clip-rule="evenodd" fill="#D19917" points="9.229,8.686 8.848,8.467 8.864,8.475 8.883,8.479 
		8.904,8.479 8.925,8.475 9.306,8.697 9.283,8.701 9.265,8.697 9.248,8.693 	"/>
	<polygon fill-rule="evenodd" clip-rule="evenodd" fill="#D19917" points="9.306,8.697 8.925,8.475 9.551,8.346 9.931,8.569 	"/>
	<polygon fill-rule="evenodd" clip-rule="evenodd" fill="#D19917" points="9.931,8.569 9.551,8.346 9.568,8.346 9.587,8.35 
		9.603,8.354 9.983,8.573 9.968,8.569 9.952,8.565 	"/>
	<polygon fill-rule="evenodd" clip-rule="evenodd" fill="#B88612" points="8.772,10.671 8.391,10.452 8.377,10.441 8.366,10.43 
		8.361,10.411 8.159,9.807 8.149,9.784 8.138,9.769 8.126,9.754 8.111,9.743 8.493,9.965 8.508,9.973 8.521,9.988 8.53,10.003 
		8.54,10.026 8.742,10.633 8.75,10.648 8.759,10.664 	"/>
	<polygon fill-rule="evenodd" clip-rule="evenodd" fill="#D19917" points="7.74,10.075 7.358,9.856 7.345,9.845 7.336,9.833 
		7.329,9.818 7.323,9.795 7.321,9.773 7.323,9.75 7.329,9.724 7.336,9.701 7.345,9.675 7.358,9.648 7.374,9.625 7.391,9.603 
		7.41,9.584 7.791,9.803 7.772,9.826 7.755,9.845 7.74,9.871 7.727,9.894 7.717,9.92 7.709,9.946 7.704,9.969 7.704,9.996 
		7.704,10.018 7.709,10.037 7.717,10.052 7.727,10.067 	"/>
	<polygon fill-rule="evenodd" clip-rule="evenodd" fill="#D19917" points="7.791,9.803 7.41,9.584 8.034,8.992 8.057,8.969 
		8.076,8.946 8.095,8.92 8.111,8.894 8.126,8.863 8.138,8.837 8.149,8.807 8.159,8.776 8.54,8.999 8.53,9.029 8.521,9.06 
		8.508,9.086 8.493,9.112 8.478,9.139 8.459,9.165 8.438,9.188 8.417,9.21 	"/>
	<polygon fill-rule="evenodd" clip-rule="evenodd" fill="#B88612" points="8.54,8.999 8.159,8.776 8.361,7.938 8.366,7.912 
		8.377,7.886 8.391,7.859 8.406,7.837 8.423,7.818 8.44,7.799 8.459,7.78 8.479,7.769 8.5,7.757 8.519,7.75 8.538,7.75 8.555,7.754 
		8.568,7.757 8.951,7.98 8.936,7.973 8.919,7.973 8.902,7.973 8.881,7.98 8.861,7.988 8.84,8.003 8.823,8.018 8.804,8.037 
		8.787,8.06 8.772,8.082 8.759,8.108 8.75,8.131 8.742,8.158 	"/>
	<path fill-rule="evenodd" clip-rule="evenodd" fill="#FACC4D" d="M8.981,8.021l0.202,0.604c0.019,0.057,0.062,0.083,0.123,0.072
		l0.625-0.128c0.055-0.011,0.089,0.022,0.089,0.087c0,0.064-0.034,0.14-0.089,0.188L9.306,9.441
		C9.246,9.498,9.202,9.573,9.184,9.652l-0.202,0.842c-0.017,0.072-0.064,0.136-0.121,0.17c-0.055,0.03-0.102,0.019-0.119-0.03
		L8.54,10.026C8.519,9.969,8.478,9.943,8.417,9.954l-0.627,0.128c-0.053,0.011-0.086-0.023-0.086-0.087
		c0-0.064,0.034-0.14,0.086-0.192L8.417,9.21c0.06-0.057,0.102-0.132,0.123-0.211l0.202-0.841c0.017-0.068,0.064-0.136,0.119-0.17
		C8.917,7.954,8.964,7.969,8.981,8.021z"/>
	<path fill-rule="evenodd" clip-rule="evenodd" fill="#FACC4D" d="M6.33,3.572l0.432,1.291C6.804,4.987,6.895,5.04,7.023,5.014
		l1.334-0.271c0.115-0.023,0.188,0.049,0.188,0.188c0,0.136-0.073,0.294-0.188,0.404L7.023,6.603
		C6.895,6.723,6.804,6.882,6.762,7.056L6.33,8.844C6.294,8.999,6.192,9.143,6.076,9.21C5.955,9.278,5.854,9.252,5.819,9.143
		L5.387,7.848c-0.04-0.121-0.132-0.177-0.262-0.151L3.79,7.973C3.677,7.995,3.604,7.92,3.604,7.784c0-0.14,0.074-0.298,0.187-0.407
		l1.334-1.265c0.128-0.125,0.221-0.283,0.262-0.457l0.432-1.789c0.036-0.151,0.136-0.294,0.257-0.362
		C6.192,3.436,6.294,3.462,6.33,3.572z"/>
	<g>
		<polygon fill-rule="evenodd" clip-rule="evenodd" fill="#D19917" points="10.157,1.874 9.71,1.617 9.73,1.625 9.751,1.628 
			9.776,1.628 9.8,1.625 10.248,1.885 10.223,1.889 10.199,1.889 10.178,1.881 		"/>
		<polygon fill-rule="evenodd" clip-rule="evenodd" fill="#D19917" points="10.248,1.885 9.8,1.625 10.533,1.478 10.98,1.734 		"/>
		<polygon fill-rule="evenodd" clip-rule="evenodd" fill="#D19917" points="10.98,1.734 10.533,1.478 10.555,1.474 10.576,1.478 
			10.593,1.485 11.04,1.742 11.023,1.734 11.003,1.73 		"/>
		<polygon fill-rule="evenodd" clip-rule="evenodd" fill="#B88612" points="9.621,4.199 9.174,3.942 9.159,3.931 9.147,3.916 
			9.138,3.893 8.902,3.183 8.893,3.161 8.879,3.138 8.864,3.123 8.848,3.112 9.295,3.368 9.312,3.383 9.327,3.398 9.34,3.417 
			9.35,3.444 9.585,4.153 9.595,4.172 9.606,4.187 		"/>
		<polygon fill-rule="evenodd" clip-rule="evenodd" fill="#D19917" points="8.412,3.5 7.964,3.244 7.949,3.232 7.938,3.217 
			7.929,3.195 7.923,3.172 7.921,3.149 7.923,3.119 7.929,3.089 7.938,3.059 7.949,3.028 7.964,3.002 7.981,2.976 8.002,2.949 
			8.025,2.923 8.472,3.183 8.449,3.206 8.429,3.232 8.412,3.259 8.396,3.289 8.385,3.315 8.376,3.346 8.37,3.376 8.368,3.406 
			8.37,3.433 8.376,3.455 8.385,3.474 8.396,3.489 		"/>
		<polygon fill-rule="evenodd" clip-rule="evenodd" fill="#D19917" points="8.472,3.183 8.025,2.923 8.757,2.229 8.783,2.202 
			8.806,2.176 8.827,2.146 8.848,2.115 8.864,2.081 8.879,2.047 8.891,2.013 8.9,1.979 9.348,2.24 9.338,2.274 9.327,2.308 
			9.312,2.342 9.295,2.372 9.274,2.402 9.253,2.432 9.229,2.458 9.204,2.485 		"/>
		<polygon fill-rule="evenodd" clip-rule="evenodd" fill="#B88612" points="9.348,2.24 8.9,1.979 9.138,0.994 9.147,0.964 
			9.159,0.934 9.174,0.908 9.191,0.881 9.212,0.854 9.232,0.832 9.255,0.813 9.28,0.794 9.302,0.783 9.327,0.779 9.348,0.775 
			9.366,0.779 9.383,0.787 9.831,1.043 9.813,1.036 9.793,1.036 9.772,1.036 9.75,1.043 9.725,1.055 9.702,1.07 9.68,1.089 
			9.659,1.111 9.638,1.138 9.621,1.164 9.606,1.194 9.595,1.225 9.585,1.255 		"/>
		<path fill-rule="evenodd" clip-rule="evenodd" fill="#FACC4D" d="M9.867,1.092l0.238,0.709c0.022,0.068,0.073,0.098,0.143,0.083
			l0.732-0.151c0.062-0.011,0.104,0.03,0.104,0.106c0,0.075-0.042,0.162-0.104,0.223l-0.732,0.694
			c-0.07,0.068-0.121,0.155-0.143,0.249L9.867,3.987c-0.021,0.083-0.076,0.162-0.142,0.2c-0.064,0.038-0.119,0.026-0.14-0.034
			L9.35,3.444C9.327,3.376,9.276,3.346,9.204,3.361L8.472,3.508C8.41,3.519,8.368,3.481,8.368,3.406
			c0-0.075,0.042-0.162,0.104-0.223l0.732-0.698c0.07-0.064,0.123-0.151,0.144-0.245l0.238-0.985c0.021-0.083,0.075-0.163,0.14-0.2
			C9.791,1.017,9.846,1.032,9.867,1.092z"/>
	</g>
	<path fill-rule="evenodd" clip-rule="evenodd" fill="#BFC7C9" d="M10.008,6.059c-0.073,0.128-0.119,0.272-0.119,0.4
		c0,0.128,0.045,0.219,0.119,0.261c0.072,0.042,0.172,0.038,0.285-0.03c0.111-0.061,0.211-0.174,0.285-0.298
		c0.071-0.128,0.119-0.271,0.119-0.4s-0.047-0.219-0.119-0.26c-0.074-0.042-0.174-0.038-0.285,0.026
		C10.18,5.825,10.08,5.935,10.008,6.059z"/>
	<path fill-rule="evenodd" clip-rule="evenodd" fill="#FAC13C" d="M18.875,10.528l0.03,0.015c-0.026-0.03-7.728-4.495-8.337-4.816
		c-0.358-0.189-0.939,0.766-0.551,1c1.391,0.831,2.846,1.642,4.251,2.453c0.644,0.374,1.293,0.748,1.938,1.117
		c0.683,0.396,2.136,1.234,2.117,1.223C18,11.309,18.506,10.392,18.875,10.528z"/>
	<path fill-rule="evenodd" clip-rule="evenodd" fill="#F5BE3D" d="M18.347,10.875c-0.075,0.128-0.12,0.268-0.12,0.4
		c0,0.128,0.045,0.219,0.12,0.26c0.075,0.042,0.174,0.034,0.287-0.03c0.109-0.063,0.211-0.174,0.283-0.302
		c0.071-0.124,0.117-0.268,0.117-0.396c0-0.128-0.046-0.219-0.117-0.261c-0.072-0.042-0.174-0.038-0.283,0.026
		C18.521,10.637,18.419,10.75,18.347,10.875z"/>
	<polygon fill-rule="evenodd" clip-rule="evenodd" fill="#FFDC6A" points="9.893,6.459 9.893,6.474 9.893,6.486 9.893,6.497 
		9.895,6.508 9.895,6.512 18.229,11.32 18.229,11.32 18.229,11.309 18.227,11.298 18.227,11.286 18.227,11.275 18.227,11.264 
		18.227,11.248 18.229,11.237 18.229,11.226 18.233,11.211 18.233,11.199 18.233,11.188 18.233,11.173 18.237,11.162 18.241,11.15 
		18.241,11.136 18.245,11.124 18.249,11.112 18.253,11.098 18.256,11.086 18.26,11.075 18.264,11.06 18.268,11.049 18.271,11.041 
		9.935,6.233 9.933,6.236 9.929,6.248 9.923,6.259 9.921,6.274 9.917,6.286 9.914,6.301 9.91,6.312 9.908,6.323 9.906,6.338 
		9.904,6.35 9.9,6.361 9.898,6.376 9.896,6.388 9.895,6.399 9.895,6.41 9.893,6.425 9.893,6.437 9.893,6.448 	"/>
	<polygon fill-rule="evenodd" clip-rule="evenodd" fill="#E6B543" points="18.438,10.743 18.449,10.731 18.456,10.72 18.468,10.709 
		18.476,10.701 18.482,10.694 18.49,10.683 18.502,10.675 18.513,10.664 18.521,10.656 18.528,10.648 18.539,10.637 18.551,10.629 
		18.559,10.622 18.569,10.614 18.581,10.607 18.589,10.599 18.6,10.592 18.611,10.588 18.618,10.581 18.634,10.573 18.642,10.569 
		18.652,10.562 18.664,10.558 18.672,10.554 18.672,10.55 10.338,5.738 10.336,5.738 10.327,5.746 10.317,5.75 10.306,5.757 
		10.297,5.761 10.286,5.769 10.276,5.776 10.265,5.78 10.255,5.788 10.246,5.795 10.236,5.803 10.225,5.81 10.214,5.817 
		10.206,5.825 10.195,5.836 10.186,5.844 10.176,5.852 10.167,5.859 10.157,5.871 10.149,5.878 10.138,5.889 10.131,5.897 
		10.121,5.908 10.112,5.919 10.104,5.927 	"/>
	<path fill-rule="evenodd" clip-rule="evenodd" fill="#D19917" d="M18.422,10.92c-0.063,0.113-0.105,0.238-0.105,0.352
		c0,0.116,0.042,0.196,0.105,0.233c0.068,0.038,0.155,0.03,0.253-0.026c0.103-0.057,0.189-0.154,0.253-0.268
		c0.068-0.113,0.106-0.238,0.106-0.351c0-0.117-0.038-0.196-0.106-0.234c-0.063-0.034-0.15-0.03-0.253,0.026
		C18.577,10.709,18.49,10.807,18.422,10.92z"/>
</g>
</svg>
