<?xml version="1.0" encoding="utf-8"?>
<!-- Generator: Adobe Illustrator 16.0.0, SVG Export Plug-In . SVG Version: 6.00 Build 0)  -->
<!DOCTYPE svg PUBLIC "-//W3C//DTD SVG 1.1//EN" "http://www.w3.org/Graphics/SVG/1.1/DTD/svg11.dtd">
<svg version="1.1" id="Layer_1" xmlns="http://www.w3.org/2000/svg" xmlns:xlink="http://www.w3.org/1999/xlink" x="0px" y="0px"
	 width="60px" height="60px" viewBox="0 0 60 60" enable-background="new 0 0 60 60" xml:space="preserve">
<g>
	<path opacity="0.15" fill="#262626" d="M-25.6,68.096l0.684-0.238c-0.122,0.118-0.24,0.238-0.403,0.362l-2.503,2.176l-7.674,4.444
		c0.485,0.043,1.051,0.043,1.576,0.085c-0.403,0.196,0,0.32,1.088,0.32c1.01,0,1.616-0.124,1.697-0.362c0.364,0,0.728,0,1.091-0.043
		l4.968-3.713l4.887-3.151l-0.766,0.686l-1.373,1.659l-2.789,4.726c1.374-0.121,2.707-0.206,3.959-0.323l-0.161,0.202
		c-0.041,0.157,0.04,0.281,0.364,0.32c1.09-0.124,2.057-0.32,2.867-0.522l0.041-3.276l0.281-1.449
		c1.332-0.813,2.424-1.536,3.232-2.183c0.117-0.041,0.281-0.124,0.4-0.198c1.213-0.206,2.342-0.447,3.436-0.813l5.494-1.455
		c0.281-0.119,0.482-0.16,0.482-0.28c0.08-0.242,0.123-0.443,0.123-0.646c-0.043-0.082-0.043-0.2-0.082-0.324
		c-0.082-0.203-0.121-0.404-0.285-0.564l-0.199-0.529c0.363-0.199,0.443-0.317,0.281-0.44l-1.088-0.28l0.525-1.416
		c0.039-0.405-0.566-0.606-1.861-0.644h-0.041c-0.078,0-0.158,0-0.242,0c-0.201-0.042-0.404-0.042-0.604,0
		c-0.971,0-2.021,0.238-3.191,0.644c-0.727,0.284-1.291,0.483-1.654,0.768c-1.334,0.486-2.586,0.929-3.717,1.455
		c-0.365,0.161-0.488,0.282-0.365,0.404c0.041,0.039,0.084,0.039,0.203,0.079c-0.119,0-0.242,0.041-0.363,0.084
		c-0.242,0.079-0.566,0.198-0.846,0.323c-0.125,0.036-0.162,0.075-0.285,0.156c-0.283,0.124-0.566,0.327-0.889,0.526
		c-0.402,0.205-0.768,0.367-1.09,0.524c-1.295,0.403-2.343,0.807-3.151,1.253l-2.099,1.176l-1.415,0.561l-0.119,0.442
		c0.039,0,0.119,0,0.158,0c0.203,0,0.366,0,0.568,0l0.483-0.2c0.04,0,0,0-0.242,0c0.081,0,0.164-0.038,0.242-0.118L-25.6,68.096z
		 M-9.165,64.825c0.361-0.284,0.891-0.604,1.533-0.845l0.648,1.05c-0.809,0.28-1.617,0.561-2.424,0.927l-1.736,0.526
		C-10.216,65.957-9.567,65.391-9.165,64.825z"/>
	<g>
		<path fill="#5E432C" d="M-25.463,20.21c-0.079,0.021-0.18,0.059-0.281,0.082c0,0,0,0-0.02,0c-0.141,0.059-0.261,0.117-0.405,0.177
			c-0.927,0.486-1.673,1.637-2.241,3.437l-0.644,2.905l1.374-2.688c0.14-0.906,0.625-1.654,1.473-2.257
			c0.686,0.038,1.21,0.284,1.574,0.707c0.767,0.504,1.269,1.615,1.492,3.37c-0.423,2.06-0.122,3.472,0.93,4.24
			c0.321,1.105,0,2.119-0.988,2.986c0.222,0.021,0.422,0.021,0.605,0c0.302-0.021,0.544-0.061,0.765-0.14
			c0.14-0.063,0.264-0.124,0.365-0.184c0.121-0.081,0.22-0.184,0.304-0.28c0.261-0.344,0.341-0.85,0.28-1.475
			c-0.323-1.915-0.787-3.756-1.412-5.512c0.081-0.986-0.041-1.978-0.383-2.944c-0.546-1.517-1.252-2.325-2.14-2.445
			C-25.019,20.171-25.239,20.171-25.463,20.21L-25.463,20.21z M-24.834,20.351c0.829,0.141,1.492,0.908,1.998,2.343
			c0.343,0.943,0.467,1.897,0.383,2.884c0,0.021,0,0.041,0.019,0.059c0.628,1.738,1.092,3.555,1.393,5.474
			c0.063,0.527,0,0.928-0.18,1.228c-0.203-2.197-0.687-4.379-1.453-6.579l-0.587-3.271c-0.403-1.109-1.332-1.733-2.763-1.916
			c0.102-0.06,0.18-0.103,0.281-0.12l0,0c0.02,0,0.042,0,0.06-0.021c0.102-0.022,0.182-0.039,0.262-0.06
			C-25.218,20.329-25.019,20.329-24.834,20.351L-24.834,20.351z"/>
		<path fill="#A97053" d="M-25.422,20.372c0.204-0.043,0.403-0.043,0.587-0.021c0.829,0.141,1.492,0.908,1.998,2.343
			c0.343,0.943,0.467,1.897,0.383,2.884c0,0.021,0,0.041,0.019,0.059c0.628,1.738,1.092,3.555,1.393,5.474
			c0.063,0.527,0,0.928-0.18,1.228c-0.203-2.197-0.687-4.379-1.453-6.579l-0.587-3.271c-0.403-1.109-1.332-1.733-2.763-1.916
			c0.102-0.06,0.18-0.103,0.281-0.12l0,0c0.02,0,0.042,0,0.06-0.021C-25.582,20.41-25.502,20.393-25.422,20.372L-25.422,20.372z"/>
		<path fill="#432B1B" d="M-25.764,20.292c-0.141,0.059-0.261,0.117-0.405,0.177c-0.927,0.486-1.673,1.637-2.241,3.437l-0.644,2.905
			l1.374-2.688c-0.102,0.608-0.043,1.276,0.179,2.02l0.485,1.033l0.02,0.039c0.018,0.021,0.018,0.059,0.018,0.081
			c0.466,1.248,0.243,1.977-0.703,2.198c-0.083,0.021-0.162,0.043-0.264,0.043c-0.099,0.021-0.202,0.021-0.301,0.021
			c-0.224,0.017-0.465,0-0.728-0.043c-0.223-0.141-0.423-0.243-0.646-0.34c-0.625-0.248-1.232-0.248-1.837-0.026l-0.869,1.599
			c-0.102-0.667,0.042-1.211,0.426-1.676l1.532-1.049l1.754-5.329C-28.005,21.117-27.055,20.31-25.764,20.292L-25.764,20.292z"/>
		<path fill="#BFBFBF" d="M-32.93,31.838l0.606-1.09l0.869-1.599c0.605-0.222,1.211-0.222,1.837,0.026
			c0.02,0.297,0.039,0.583,0.02,0.868c-0.969-0.748-1.818-0.026-2.523,2.155C-32.385,32.015-32.666,31.897-32.93,31.838
			L-32.93,31.838z"/>
		<path fill="#D9AD85" d="M-31.011,33.675l-1.736-1.132l-2.806,5.894c-0.163,0.588-0.022,1.149,0.403,1.72l3.049,5.467l1.147,1.311
			c-0.019-0.646,0-1.271,0.083-1.857l-1.05-0.906c0-0.104,0-0.204-0.021-0.301l-0.887-2.021c-0.263-1.254-0.587-2.381-0.968-3.391
			l2.42-4.141L-31.011,33.675L-31.011,33.675z M-31.214,33.734l-2.726,4.644c-0.021,0.016-0.021,0.039-0.021,0.059
			c0,0.021,0,0.043,0.021,0.06c0.384,1.008,0.688,2.141,0.95,3.373c0,0.018,0,0.018,0,0.038l0.909,1.999c0,0.104,0,0.18,0,0.264
			c0,0.016,0,0.016,0,0.043l0.058,0.076c-0.021-0.017-0.021-0.017-0.039-0.039c0-0.021,0-0.021-0.019-0.037l-1.151-2.1l-1.05-3.596
			l2.806-4.963L-31.214,33.734L-31.214,33.734z"/>
		<path fill="#ECDDD5" d="M-31.477,33.555l0.262,0.18l-2.726,4.644c-0.021,0.016-0.021,0.039-0.021,0.059
			c0,0.021,0,0.043,0.021,0.06c0.384,1.008,0.688,2.141,0.95,3.373c0,0.018,0,0.018,0,0.038l0.909,1.999c0,0.104,0,0.18,0,0.264
			c0,0.016,0,0.016,0,0.043l-1.151-2.1l-1.05-3.596L-31.477,33.555L-31.477,33.555z"/>
		<path d="M-31.375,34.316l0.364-0.642l0.161-0.243l0.868-1.496c0.221-0.625,0.364-1.251,0.384-1.893
			c0.019-0.286,0-0.571-0.02-0.868c0.222,0.098,0.422,0.2,0.646,0.34c0.263,0.043,0.504,0.06,0.728,0.043
			c0.019,0.162,0.019,0.302,0.038,0.443l-0.706,0.28c-0.463,1.616-1.13,3.09-1.978,4.443l0.423,3.712l-0.949,5.307
			c1.434,1.617,2.929,0.2,4.459-4.239l-0.422,1.455l-0.483,1.734c1.856-0.424,3.693-0.36,5.511,0.146
			c-0.083-0.183-0.164-0.386-0.224-0.587c-0.141-0.424-0.261-0.846-0.343-1.309c-0.041-0.243-0.079-0.489-0.101-0.75
			c-0.081-0.668-0.081-1.373-0.02-2.123c0-0.017,0-0.061,0-0.08c0.405-1.471,0.564-2.866,0.505-4.154
			c-0.02-0.227-0.042-0.446-0.06-0.668c0.302-0.021,0.544-0.061,0.765-0.14l0.042,0.808L-22.17,34.1l-0.463,3.588
			c-0.203,0.971-0.203,1.898,0,2.791c0.241,1.429,0.787,2.621,1.614,3.607c0.099,0.363,0.181,0.73,0.243,1.091l-1.313-1.778
			c-0.019-0.016-0.019-0.037-0.041-0.059h-5.268l-0.747,0.324l-0.042,0.182c-0.461,0.728-1.048,1.23-1.753,1.537l0.242,8.296
			l0.242,3.228l-2.179,6.682l-3.694,9.202l3.793,2.93l-0.142,0.462c-1.27-0.304-2.42-0.687-3.449-1.167l-0.182,0.824
			c-0.224,0.627-0.508,0.991-0.828,1.051c-0.91-0.404-1.616-1.012-2.082-1.838l5.229-12.454l2.059-5.49
			c-0.08-2.985,0-5.713,0.262-8.196c-0.06-0.221-0.099-0.442-0.122-0.663c-0.079-0.468-0.14-0.889-0.162-1.314
			c-0.019-0.646,0-1.271,0.083-1.857l-1.05-0.906c0-0.104,0-0.204-0.021-0.301c-0.02-2.08,0.202-4.16,0.688-6.24
			C-31.174,36.52-31.214,35.426-31.375,34.316L-31.375,34.316z"/>
		<path fill="#AB8262" d="M-32.122,32.198c0.423,0.28,0.849,0.689,1.271,1.233l-0.161,0.243l-1.736-1.132l-2.806,5.894
			c-0.163,0.588-0.022,1.149,0.403,1.72l3.049,5.467l1.147,1.311c0.022,0.426,0.083,0.847,0.162,1.314
			c-0.868-0.809-1.573-1.838-2.12-3.107l-3.107-5.572c-0.183-0.306-0.222-0.668-0.082-1.072c0.263-0.785,0.566-1.556,0.908-2.322
			c0.205-0.42,0.407-0.866,0.627-1.309c0.383-0.748,0.79-1.494,1.213-2.242l0.422-0.785C-32.666,31.897-32.385,32.015-32.122,32.198
			L-32.122,32.198z"/>
		<path fill="#E6E6E6" d="M-30.851,33.432c-0.422-0.544-0.848-0.953-1.271-1.233c0.706-2.182,1.555-2.903,2.523-2.155
			c-0.02,0.641-0.164,1.268-0.384,1.893L-30.851,33.432L-30.851,33.432z"/>
		<path fill="#AB8262" d="M-26.207,21.865c0.686,0.038,1.21,0.284,1.574,0.707c0.019,0.705,0.2,1.393,0.543,2.041
			c0.265,0.543,0.343,1.109,0.243,1.654c-0.06,0.102-0.121,0.222-0.181,0.319c0.1-0.826-0.143-1.574-0.686-2.281l-0.326-1.552
			l-1.048-0.442c-1.149,0.947-1.354,2.458-0.647,4.542c0.748,0.949,1.638,0.868,2.707-0.267c-0.304,0.467-0.686,0.872-1.171,1.173
			c-0.02,0.023-0.061,0.023-0.082,0.043c-0.362,0.098-0.687,0.098-0.991,0.017c-0.059,1.013-0.282,1.719-0.687,2.14
			c0.105,1.313,0.75,2.688,1.939,4.116c-1.208-0.783-2.058-2.114-2.543-4.031c-0.039-0.183-0.08-0.365-0.118-0.549
			c0.946-0.222,1.169-0.95,0.703-2.198l0,0l-0.018-0.081l-0.02-0.039l-0.485-1.033c-0.222-0.744-0.281-1.412-0.179-2.02
			C-27.54,23.217-27.055,22.469-26.207,21.865L-26.207,21.865z"/>
		<path fill="#D9AD85" d="M-26.086,22.311c-1.149,0.947-1.354,2.458-0.647,4.542c0.748,0.949,1.638,0.868,2.707-0.267
			c0.1-0.826-0.143-1.574-0.686-2.281l-0.326-1.552L-26.086,22.311L-26.086,22.311z M-24.15,26.122
			c-0.041,0.549-0.361,0.91-0.989,1.071c0.606-0.625,0.871-1.271,0.808-1.934L-24.15,26.122L-24.15,26.122z"/>
		<path fill="#ECDDD5" d="M-24.332,25.259l0.181,0.863c-0.041,0.549-0.361,0.91-0.989,1.071
			C-24.534,26.568-24.269,25.922-24.332,25.259L-24.332,25.259z"/>
		<path fill="#432B1B" d="M-24.089,24.612c-0.343-0.647-0.524-1.335-0.543-2.041c0.767,0.504,1.269,1.615,1.492,3.37
			c-0.423,2.06-0.122,3.472,0.93,4.24c0.321,1.105,0,2.119-0.988,2.986c-0.222-0.021-0.464-0.037-0.707-0.102
			c0.929-0.664,1.129-1.455,0.605-2.339c-0.262-0.141-0.504-0.286-0.705-0.426c-0.104-0.059-0.185-0.119-0.244-0.182
			c-0.706-0.625-0.807-1.288-0.344-2.037c0.465-0.586,0.708-1.191,0.747-1.815C-23.746,25.722-23.825,25.156-24.089,24.612
			L-24.089,24.612z"/>
		<path fill="#D9AD85" d="M-25.198,27.758c0.485-0.301,0.867-0.706,1.171-1.173c0.06-0.098,0.121-0.218,0.181-0.319
			c-0.039,0.625-0.282,1.229-0.747,1.815c-0.463,0.75-0.362,1.413,0.344,2.037c0.059,0.063,0.141,0.124,0.244,0.182
			c0.079,1.434-0.263,2.685-1.013,3.773c-1.188-1.429-1.834-2.803-1.939-4.116c0.405-0.421,0.628-1.127,0.687-2.14
			c0.304,0.081,0.628,0.081,0.991-0.017C-25.259,27.782-25.218,27.782-25.198,27.758L-25.198,27.758z"/>
		<path fill="#D9AD85" d="M-26.977,27.296L-26.977,27.296c0-0.022,0-0.06-0.018-0.081L-26.977,27.296L-26.977,27.296z"/>
		<path fill="#BFBFBF" d="M-24.006,30.301c0.201,0.141,0.442,0.286,0.705,0.426c0.524,0.884,0.324,1.675-0.605,2.339
			c0.241,0.064,0.485,0.08,0.707,0.102c0.222,0.021,0.422,0.021,0.605,0c0.018,0.222,0.041,0.441,0.06,0.668l-1.453-0.242
			l-1.032,0.48C-24.269,32.985-23.927,31.734-24.006,30.301L-24.006,30.301z"/>
		<path fill="#E6E6E6" d="M-23.987,33.594l1.453,0.242c0.059,1.288-0.1,2.684-0.505,4.154c0,0.02,0,0.063,0,0.08
			c-0.061,0.75-0.061,1.455,0.02,2.123l-3.067-0.402v-0.767l-1.718-8.782l0.243-0.199c0.485,1.917,1.334,3.248,2.543,4.031
			L-23.987,33.594L-23.987,33.594z"/>
		<path fill="#BFBFBF" d="M-21.829,33.028c0.14-0.063,0.264-0.124,0.365-0.184c0.08,0.06,0.16,0.184,0.22,0.345l-0.243,0.281
			l0.143,1.109l-0.383,0.064l-0.061-0.809L-21.829,33.028L-21.829,33.028z"/>
		<path fill="#E6E6E6" d="M-21.486,33.471l0.243-0.281c0.124,0.281,0.224,0.728,0.284,1.312l-0.383,0.079L-21.486,33.471
			L-21.486,33.471z"/>
		<path fill="#AB8262" d="M-21.343,34.58l0.383-0.079c0.021,0.164,0.021,0.343,0.039,0.525l-0.422,0.485v1.816
			c-0.849,1.108-0.748,2.828,0.301,5.145c0.709,2.123,1.092,4.258,1.194,6.379v0.624l0.242,1.919c0.059-0.016,0.1-0.038,0.162-0.08
			v-1.633l0.279,0.624l-0.322,1.633c-0.182,0.022-0.361-0.017-0.525-0.079l-0.24-0.545c-0.021-0.122,0.061-0.161,0.281-0.103
			c-0.059-0.104-0.08-0.221-0.102-0.399v-0.808l-0.322-0.889c0.104-1.497-0.041-2.808-0.382-3.939
			c-0.062-0.36-0.144-0.728-0.243-1.091c-0.265-1.006-0.585-2.016-1.01-3.025c-0.849-1.433-0.706-2.844,0.425-4.261l-0.121-2.155
			L-21.343,34.58L-21.343,34.58z"/>
		<path fill="#2B2B2B" d="M-21.787,33.836l0.061,0.809l0.121,2.155c-1.131,1.417-1.274,2.828-0.425,4.261
			c0.425,1.01,0.746,2.02,1.01,3.025c-0.827-0.986-1.373-2.179-1.614-3.607c-0.203-0.893-0.203-1.82,0-2.791l0.463-3.588
			L-21.787,33.836L-21.787,33.836z"/>
		<path fill="#D9AD85" d="M-21.343,35.512v1.816c-0.849,1.108-0.748,2.828,0.301,5.145c0.709,2.123,1.092,4.258,1.194,6.379v0.624
			l0.242,1.919c0.059-0.016,0.1-0.038,0.162-0.08v-1.633l0.279,0.624l-0.322,1.633c0.061-0.017,0.121-0.017,0.182-0.017l0.566-1.659
			l-0.523-2.099l-0.203-4.479c-0.141-1.637-0.506-3.249-1.092-4.801c-0.14-0.506-0.239-1.137-0.281-1.88
			c-0.02-0.766-0.041-1.434-0.082-1.978L-21.343,35.512L-21.343,35.512z M-21.042,35.389c0.022,0.463,0.041,1.008,0.041,1.615l0,0
			c0.062,0.766,0.163,1.413,0.304,1.919v0.017c0.585,1.557,0.948,3.131,1.091,4.768l0.201,4.457c0,0.021,0,0.021,0,0.041l0.32,1.294
			l-0.402-0.465l-0.283-3.271l-0.625-4.563l-0.808-3.873V35.57L-21.042,35.389L-21.042,35.389z"/>
		<path fill="#ECDDD5" d="M-21.203,35.57l0.161-0.182c0.022,0.463,0.041,1.008,0.041,1.615l0,0c0.062,0.766,0.163,1.413,0.304,1.919
			v0.017c0.585,1.557,0.948,3.131,1.091,4.768l0.201,4.457c0,0.021,0,0.021,0,0.041l0.32,1.294l-0.402-0.465l-0.283-3.271
			l-0.625-4.563l-0.808-3.873V35.57L-21.203,35.57z"/>
		<path fill="#BFBFBF" d="M-28.208,30.001c-0.019-0.141-0.019-0.281-0.038-0.443c0.099,0,0.202,0,0.301-0.021
			c0.102,0,0.181-0.022,0.264-0.043c0.038,0.184,0.079,0.366,0.118,0.549l-0.243,0.199l1.718,8.782v0.767l3.067,0.402
			c0.022,0.261,0.06,0.507,0.101,0.75c-1.171-0.307-2.341-0.35-3.53-0.168c-0.304,0.043-0.627,0.102-0.931,0.184l0.422-1.455
			l0.083-0.26C-27.5,36.057-27.944,32.965-28.208,30.001L-28.208,30.001z"/>
		<path fill="#2B2B2B" d="M-28.913,30.281c-0.463,1.616-1.13,3.09-1.978,4.443l0.423,3.712l-0.949,5.307
			c1.434,1.617,2.929,0.2,4.459-4.239l0.083-0.26c-0.625-3.188-1.069-6.279-1.333-9.243L-28.913,30.281L-28.913,30.281z
			 M-28.409,31.047l1.213,7.935l-1.17,2.969l0.745-3.39l-1.049-7.349L-28.409,31.047L-28.409,31.047z"/>
		<polygon fill="#999999" points="-28.67,31.212 -28.409,31.047 -27.196,38.981 -28.366,41.95 -27.622,38.561 -28.67,31.212 		"/>
		<path fill="#3C3C3C" d="M-26.449,40.775l-0.404,1.154c1.514-0.199,2.925-0.102,4.277,0.322c0.06,0.201,0.141,0.404,0.224,0.587
			c-1.818-0.506-3.654-0.569-5.511-0.146l0.483-1.734C-27.076,40.877-26.753,40.818-26.449,40.775L-26.449,40.775z"/>
		<path fill="#555555" d="M-26.853,41.93l0.404-1.154c1.189-0.182,2.359-0.139,3.53,0.168c0.082,0.463,0.202,0.885,0.343,1.309
			C-23.927,41.828-25.338,41.73-26.853,41.93L-26.853,41.93z"/>
		<path fill="#333333" d="M-22.131,43.34h-5.268l-0.747,0.324l-0.042,0.182c-0.461,0.728-1.048,1.23-1.753,1.537l0.242,8.296
			l0.242,3.228l-2.179,6.682l-3.694,9.202l3.793,2.93l1.091-3.738l3.571-13.642l1.253-6.238l0.341-2.626l1.514,5.25l-0.362,7.892
			c0,0.103,0,0.2,0,0.304l-0.504,11.387l3.59,0.805l-0.463-13.341v-3.13l0.968-8.254c0.064-0.447,0.102-0.873,0.143-1.271
			c0.104-1.497-0.041-2.808-0.382-3.939l-1.314-1.778C-22.109,43.383-22.109,43.361-22.131,43.34L-22.131,43.34z M-20.697,50.366
			l-0.949,8.256c0,0.02,0,0.02,0,0.02v3.13l0.443,13.158l-0.564-0.141l-0.282-4.036l-0.283-12.554l1.01-7.754
			c0.243-2.219,0.243-4.137-0.021-5.77l0.422,0.583c0.346,1.11,0.467,2.381,0.363,3.857c-0.018,0.383-0.078,0.803-0.14,1.232V50.366
			L-20.697,50.366z M-27.035,58.299l-3.554,13.644l0,0l-1.028,3.536l-0.665-0.528l4.318-14.713l1.23-6.438l1.312-4.34l-0.342,2.643
			v-0.017L-27.035,58.299L-27.035,58.299L-27.035,58.299z"/>
		<path fill="#777777" d="M-20.697,50.349v0.018l-0.949,8.256c0,0.02,0,0.02,0,0.02v3.13l0.443,13.158l-0.564-0.141l-0.282-4.036
			l-0.283-12.554l1.01-7.754c0.243-2.219,0.243-4.137-0.021-5.77l0.422,0.583c0.346,1.11,0.467,2.381,0.363,3.857
			C-20.575,49.499-20.636,49.919-20.697,50.349L-20.697,50.349z"/>
		<polygon fill="#777777" points="-27.035,58.299 -27.035,58.299 -30.589,71.942 -30.589,71.942 -31.618,75.479 -32.282,74.95 
			-27.964,60.237 -26.734,53.799 -25.422,49.459 -25.764,52.102 -25.764,52.085 -27.035,58.299 		"/>
		<path d="M-24.128,62.617c0,0.103,0,0.2,0,0.304l-0.504,11.387l3.59,0.805l0.022,0.383c-0.566,0.14-1.131,0.225-1.676,0.284
			c0.063,0.744-0.465,1.127-1.614,1.153c-0.989-0.026-1.374-0.447-1.153-1.232c-0.342-0.065-0.663-0.121-0.986-0.205l0.341-7.103
			l0.666-6.987l0.161-3.33v-8.6l1.514,5.25L-24.128,62.617L-24.128,62.617z"/>
	</g>
</g>
<g>
	<path opacity="0.15" fill="#262626" d="M19.477,57.447c-0.242,0.121-0.119,0.204,0.398,0.161h2.082c0.759,0,1.159-0.12,1.279-0.36
		l0.48-0.277l1.281-0.401l0.881-0.918c1.356-0.762,2.278-1.401,2.758-2.042l2.121-0.962l1.082-0.959l0.838-0.48
		c0.441-0.201,0.843-0.359,1.241-0.56c1.68,0.038,3.32-0.039,4.883-0.162l1.199-1.48l0.438-0.116
		c1.043-0.284,1.961-0.602,2.801-0.962c0.28-0.158,0.403-0.319,0.32-0.519l0.483-0.241c1.438-0.918,2.039-1.56,1.797-2.041
		c-0.122,0-0.28-0.04-0.439-0.079c-0.161,0-0.361-0.038-0.563-0.038c-0.759-0.12-1.599-0.243-2.477-0.283
		c-0.121,0-0.242,0-0.322-0.04l-1.079-0.36l0.401-0.278c0.079-0.041,0.159-0.08,0.236-0.08c0.278-0.039,0.562-0.161,0.842-0.28
		c0-0.039,0.038-0.039,0.08-0.079c0.121-0.041,0.121-0.121,0.08-0.162c0.64-0.32,0.844-0.598,0.521-0.801c0,0-0.042,0-0.08-0.041
		c-0.922-0.236-2.161-0.196-3.724,0.161c-0.919-0.078-1.561,0.123-1.957,0.562l-0.242,0.321c-0.079,0.039-0.199,0.08-0.241,0.12
		c-0.158,0.16-0.158,0.199-0.118,0.238c0.039,0.041,0.118,0.041,0.28,0.041c0.038,0.12,0.16,0.161,0.321,0.238l-0.321,0.322
		c-0.12,0.038-0.32,0.118-0.558,0.239c-0.485,0-0.962,0.079-1.4,0.122c-0.281,0.04-0.602,0.078-0.922,0.078
		c-0.838,0.119-1.718,0.242-2.561,0.36c-0.119,0.037-0.199,0.12-0.323,0.159c-0.036,0.041-0.157,0.041-0.199,0.081
		c-0.56,0.32-1.159,0.718-1.639,1.199c-1.24,0.482-2.161,0.961-2.798,1.561c-1.119,0.319-1.761,0.681-1.921,1.199
		c-0.559,0.241-1.038,0.601-1.441,0.962c-2.16,1.282-3.68,2.643-4.56,3.921l0.042,0.399l-2.484,1.6l-1.639,0.161
		c-0.719,0.079-1.16,0.196-1.361,0.36c1.361,0.158,2.963,0.118,4.764-0.122l0.838-0.08l-0.2,0.162l1.482-0.082l-0.042,0.082
		l0.239,0.079L19.477,57.447z M21.036,55.971l1.4-0.523l-0.399,0.442l-0.919,0.281L21.036,55.971z"/>
	<path d="M19.731,3.062c0.462-0.042,0.902-0.138,1.283-0.283c0.579,0.305,1.019,0.824,1.297,1.523l0.419,1.42l0.242-0.36
		c0.142-1.26-0.122-2.278-0.739-3.04c-0.062-0.039-0.1-0.08-0.141-0.119l-0.102,0.84l-0.538-0.701L19.731,3.062L19.731,3.062z"/>
	<path fill="#AB8262" d="M21.014,2.779c-0.381,0.145-0.82,0.241-1.283,0.283c-0.297,0.022-0.635,0.042-0.977,0.022
		c-0.361,0.519-0.521,1.278-0.5,2.278V6c0.162-1.019,0.398-1.837,0.738-2.458c0.838,0.102,1.56,0.042,2.141-0.221
		c0.621,0.583,1.16,1.383,1.598,2.401l-0.419-1.42C22.033,3.603,21.593,3.083,21.014,2.779L21.014,2.779z"/>
	<path fill="#333333" d="M21.991,3.043l0.102-0.84c-1.321-0.98-2.499-0.842-3.557,0.399c-0.962-0.162-1.303,0.581-1.002,2.222
		l0.318,1.315c0.042-0.097,0.121-0.14,0.222-0.158l-0.06-2.24l0.74-0.658c0.342,0.02,0.68,0,0.977-0.022l1.722-0.719L21.991,3.043
		L21.991,3.043z M18.754,2.7c0.561-0.799,1.319-1.079,2.26-0.818C20.116,2.025,19.375,2.283,18.754,2.7L18.754,2.7z"/>
	<path fill="#999999" d="M21.014,1.882c-0.94-0.261-1.699,0.019-2.26,0.818C19.375,2.283,20.116,2.025,21.014,1.882L21.014,1.882z"
		/>
	<path fill="#D9AD85" d="M22.973,5.362l-0.242,0.36c-0.438-1.019-0.977-1.819-1.598-2.401c-0.582,0.262-1.303,0.323-2.141,0.221
		C18.652,4.163,18.416,4.981,18.254,6c-0.062-0.018-0.115-0.018-0.18-0.018C17.973,6,17.894,6.042,17.853,6.139
		c-0.059,0.102-0.059,0.244-0.037,0.462c0.059,0.459,0.139,0.759,0.259,0.901l0.28-0.521V7.58c0.22,0.36,0.438,0.642,0.697,0.842
		c1.963,0.401,3.183-0.281,3.68-2.039c0.203,0.178,0.342,0.061,0.419-0.401C23.15,5.681,23.096,5.461,22.973,5.362L22.973,5.362z
		 M18.434,6.062h0.358v1.401c0.181,0.417,0.503,0.718,1,0.88c-0.616,0.019-1.038-0.264-1.237-0.821L18.434,6.062L18.434,6.062z"/>
	<path fill="#ECDDD5" d="M18.792,6.062h-0.358l0.121,1.46c0.2,0.558,0.622,0.84,1.237,0.821c-0.496-0.163-0.819-0.463-1-0.88V6.062
		L18.792,6.062z"/>
	<path fill="#AB8262" d="M22.731,8.62l-0.059-1.078c0.023-0.101,0.04-0.241,0.059-0.38c0.261-0.101,0.4-0.44,0.419-1
		c0-0.061,0-0.12,0-0.181c-0.077,0.462-0.217,0.58-0.419,0.401c-0.497,1.757-1.717,2.438-3.68,2.039
		c0.583,0.498,1.241,0.6,2.022,0.338c0.298-0.079,0.558-0.181,0.779-0.278V9L20.074,11.1l0.139,0.2l2.542-2.381L22.731,8.62
		L22.731,8.62z"/>
	<path fill="#D9AD85" d="M21.853,8.482c-0.222,0.097-0.481,0.199-0.779,0.278c-0.781,0.262-1.438,0.16-2.022-0.338l0.203,1.219
		L19.332,10l0.742,1.1L21.853,9V8.482L21.853,8.482z M19.83,10.461l-0.357-0.622l-0.157-0.957L19.635,9L19.83,10.461L19.83,10.461z"
		/>
	<polygon fill="#ECDDD5" points="19.473,9.839 19.83,10.461 19.635,9 19.315,8.882 19.473,9.839 	"/>
	<polygon points="20.212,11.3 19.812,11.939 20.174,12.72 20.473,12.321 20.212,11.3 	"/>
	<path fill="#F2F2F2" d="M19.812,11.939l0.401-0.639l-0.139-0.2L19.332,10l-0.078-0.36c-0.078,0.16-0.143,0.462-0.203,0.902
		c-0.036,0.298-0.06,0.657-0.078,1.097l0.019,1.619l0.421-0.678L19.812,11.939L19.812,11.939z"/>
	<path fill="#F2F2F2" d="M20.212,11.3l0.26,1.021l0.278,1.059l1.823-2.08c0.26-0.697,0.481-1.461,0.64-2.261L22.731,8.62
		l0.023,0.299L20.212,11.3L20.212,11.3z"/>
	<path fill="#D5D5D5" d="M20.473,12.321l-0.298,0.399l0.576,1.278l1.283-1.217c0.102-0.301,0.181-0.582,0.278-0.864
		c0.081-0.217,0.161-0.418,0.262-0.617l-1.823,2.08L20.473,12.321L20.473,12.321z"/>
	<polygon fill="#333333" points="19.413,12.581 19.694,12.72 20.174,12.72 19.812,11.939 19.413,12.581 	"/>
	<path fill="#D5D5D5" d="M19.694,12.72l-0.281-0.14l-0.421,0.678l-0.019-1.619c-0.06,0.141-0.139,0.299-0.219,0.48v1.481l0.718-0.32
		L19.694,12.72L19.694,12.72z"/>
	<polygon points="20.174,12.72 19.694,12.72 18.074,24.654 17.612,27.375 17.833,27.736 18.876,26.697 19.272,26.278 19.332,25.456 
		19.533,21.436 20.212,17.018 20.174,12.72 	"/>
	<path fill="#917A58" d="M22.312,11.917c-0.097,0.282-0.177,0.563-0.278,0.864c-0.557,2-0.76,4.038-0.58,6.137
		c1.102-2.299,1.981-4.659,2.68-7.099h-0.62l0.88-0.58V10l-1.18-0.96c-0.159,0.799-0.38,1.563-0.64,2.261
		C22.472,11.499,22.393,11.7,22.312,11.917L22.312,11.917z M23.313,9.342l0.238,0.218l-1.281,4.238
		c-0.376,1.381-0.539,2.742-0.516,4.06c-0.061,0.141-0.123,0.279-0.18,0.418c-0.098-2.157,0.199-4.258,0.898-6.294
		c0.101-0.201,0.179-0.401,0.259-0.622v-0.02C22.973,10.72,23.174,10.04,23.313,9.342L23.313,9.342z"/>
	<path fill="#BE9B7E" d="M23.551,9.56l-0.238-0.218c-0.139,0.698-0.34,1.378-0.582,1.998v0.02c-0.08,0.221-0.158,0.421-0.259,0.622
		c-0.699,2.036-0.996,4.138-0.898,6.294c0.057-0.139,0.119-0.277,0.18-0.418c-0.023-1.318,0.139-2.679,0.516-4.06L23.551,9.56
		L23.551,9.56z"/>
	<path fill="#6A5841" d="M24.77,10.102c-0.139-0.02-0.26-0.062-0.376-0.102v1.239l-0.88,0.58h0.62c-0.699,2.44-1.579,4.8-2.68,7.099
		c0,0.16,0.023,0.319,0.039,0.461c0.56-0.899,1.022-1.9,1.401-2.998c0.579-1.342,1.18-2.94,1.781-4.781h-0.382l0.459-0.321
		L24.77,10.102L24.77,10.102z"/>
	<path fill="#917A58" d="M24.75,11.278L24.292,11.6h0.382c-0.601,1.841-1.202,3.439-1.781,4.781
		c-0.379,1.098-0.841,2.098-1.401,2.998c0.018,0.1,0.018,0.199,0.042,0.318c0.481,1.842,1.24,3.621,2.278,5.338
		c0.103,0.163,0.201,0.321,0.302,0.462l1.676-3.477c-0.599-3.861,0.025-7.501,1.861-10.919c-0.917-0.38-1.877-0.718-2.881-0.998
		L24.75,11.278L24.75,11.278z"/>
	<path fill="#917A58" d="M28.929,11.7c-0.177-0.078-0.359-0.178-0.559-0.28c-1.237,1.9-1.958,4.42-2.178,7.557
		c-0.062,1.021,0.08,2.021,0.44,2.979l-1.841,4.58l-0.195,0.5c0.136,0.499,0.296,0.979,0.497,1.441l0.4,0.298l3.436-7.339
		C29.512,17.92,29.512,14.68,28.929,11.7L28.929,11.7z M28.43,11.64c0.082,0.041,0.16,0.081,0.24,0.123
		c-0.5,0.895-0.897,1.899-1.18,2.978c-0.46,1.678-0.679,3.396-0.679,5.179c0.062,0.799,0.219,1.498,0.501,2.1l-2.379,5.537
		c-0.064-0.16-0.1-0.34-0.164-0.521l2.003-5.017c0.018-0.041,0.018-0.083,0-0.104c-0.344-0.937-0.48-1.917-0.424-2.914
		C26.553,15.961,27.253,13.499,28.43,11.64L28.43,11.64z"/>
	<path fill="#BE9B7E" d="M28.67,11.762c-0.08-0.042-0.159-0.082-0.24-0.123c-1.177,1.859-1.877,4.322-2.081,7.362
		c-0.057,0.997,0.08,1.977,0.424,2.914c0.018,0.022,0.018,0.063,0,0.104l-2.003,5.017c0.063,0.181,0.099,0.36,0.164,0.521
		l2.379-5.537c-0.282-0.603-0.439-1.301-0.501-2.1c0-1.783,0.219-3.501,0.679-5.179C27.773,13.661,28.171,12.657,28.67,11.762
		L28.67,11.762z"/>
	<path fill="#6A5841" d="M28.37,11.42c-0.237-0.099-0.479-0.221-0.719-0.32c-1.836,3.418-2.459,7.059-1.861,10.919l-1.676,3.477
		c0.141,0.22,0.258,0.419,0.396,0.62c0.102,0.14,0.183,0.281,0.281,0.421l1.841-4.58c-0.36-0.958-0.501-1.958-0.44-2.979
		C26.411,15.84,27.133,13.32,28.37,11.42L28.37,11.42z"/>
	<path d="M18.754,3.083l-0.74,0.658l0.06,2.24c0.064,0,0.118,0,0.18,0.018V5.362C18.233,4.361,18.393,3.603,18.754,3.083
		L18.754,3.083z"/>
	<path fill="#AB8262" d="M18.354,6.982l-0.28,0.521c0.08,0.119,0.18,0.142,0.28,0.077V6.982L18.354,6.982z"/>
	<path fill="#6A5841" d="M16.575,12.639l0.959-0.5h-0.842l1.202-1.1c-0.26,0.122-0.499,0.261-0.759,0.402l-0.961,0.961h0.421
		l-0.242,0.278c-0.037,1.541-0.037,3.038-0.019,4.54c0.08,0.818,0.261,1.579,0.52,2.277l0.359,0.602
		c0.042-0.143,0.083-0.302,0.122-0.46c-0.62-1.062-0.88-2.438-0.76-4.158V12.639L16.575,12.639z"/>
	<path fill="#917A58" d="M17.534,12.139l-0.959,0.5v2.841c-0.12,1.721,0.14,3.097,0.76,4.158c0.097-0.458,0.2-0.941,0.3-1.399
		c-0.022-1.162,0.139-2.32,0.44-3.499c0.099-0.942,0.342-1.821,0.68-2.621c0.08-0.181,0.159-0.339,0.219-0.48
		c0.019-0.44,0.042-0.799,0.078-1.097c-0.375,0.138-0.777,0.319-1.157,0.498l-1.202,1.099H17.534L17.534,12.139z M17.634,12.021
		c-0.022-0.022-0.061-0.04-0.1-0.04h-0.418l0.875-0.821C18.112,11.1,18.233,11.06,18.354,11l-0.642,0.781
		c0.302,0.261,0.302,0.478,0,0.7l-0.68,0.36l-0.139,2.519c-0.02,1.539,0.163,2.62,0.502,3.279c-0.042,0.183-0.079,0.364-0.12,0.542
		c-0.46-0.98-0.642-2.201-0.523-3.68v-2.759l0.861-0.44c0.022-0.019,0.064-0.061,0.083-0.08c0.017-0.04,0.017-0.082,0-0.101
		C17.676,12.059,17.653,12.041,17.634,12.021L17.634,12.021z"/>
	<path fill="#BE9B7E" d="M17.534,11.981c0.04,0,0.078,0.018,0.1,0.04c0.019,0.02,0.042,0.038,0.061,0.098
		c0.017,0.02,0.017,0.061,0,0.101c-0.019,0.019-0.061,0.061-0.083,0.08l-0.861,0.44V15.5c-0.118,1.479,0.063,2.7,0.523,3.68
		c0.042-0.178,0.079-0.359,0.12-0.542c-0.339-0.659-0.522-1.74-0.502-3.279l0.139-2.519l0.68-0.36c0.302-0.222,0.302-0.439,0-0.7
		L18.354,11c-0.121,0.061-0.242,0.101-0.363,0.161l-0.875,0.821H17.534L17.534,11.981z"/>
	<path fill="#917A58" d="M16.174,12.402l0.961-0.961c-0.7,0.397-1.359,0.84-2.003,1.34l0.042,0.558
		c0.022,0.201,0.042,0.4,0.061,0.603c0.239,2.237,0.521,4.097,0.819,5.597l-0.557,5.817l0.097,1.201
		c0.183-0.301,0.399-0.541,0.663-0.74v-1.18l-0.48-0.5c0.578-1.298,1.059-2.641,1.438-4.038l-0.359-0.602
		c-0.259-0.698-0.44-1.458-0.52-2.277c-0.018-1.502-0.018-2.999,0.019-4.54l0.242-0.278H16.174L16.174,12.402z M15.654,16.119
		l-0.342-3.14l0.542-0.479l-0.321,0.638l0.66,6.3L15.654,16.119L15.654,16.119z"/>
	<polygon fill="#BE9B7E" points="15.312,12.979 15.654,16.119 16.192,19.438 15.532,13.138 15.854,12.5 15.312,12.979 	"/>
	<path fill="#6A5841" d="M15.234,13.941c-0.018-0.203-0.039-0.402-0.061-0.603l-0.042-0.558c-0.036,0.159-0.06,0.337-0.078,0.519
		c-0.019,0.119-0.019,0.259-0.038,0.403c0.101,1.218,0.219,2.397,0.361,3.536l0.379,2.12c-0.379,1.061-0.539,2.701-0.461,4.881
		c-0.339,0.577-0.357,1.618-0.078,3.136c0.096-0.3,0.22-0.581,0.377-0.818l-0.097-1.201l0.557-5.817
		C15.755,18.039,15.473,16.178,15.234,13.941L15.234,13.941z"/>
	<path fill="#917A58" d="M15.755,19.358l-0.379-2.12c-0.142-1.139-0.26-2.317-0.361-3.536c-0.101,1.137-0.023,2.617,0.24,4.396
		c-0.5,1.758-0.601,3.737-0.3,5.958c-0.658,1.079-0.658,2.559,0,4.439c0.061-0.421,0.141-0.778,0.261-1.122
		c-0.28-1.518-0.261-2.559,0.078-3.136C15.216,22.059,15.376,20.419,15.755,19.358L15.755,19.358z"/>
	<path fill="#F2F2F2" d="M17.634,18.239c-0.1,0.458-0.203,0.941-0.3,1.399c-0.039,0.159-0.08,0.317-0.122,0.46
		c-0.379,1.397-0.86,2.74-1.438,4.038l0.48,0.5c0.218,0.101,0.418,0.18,0.618,0.258l0.5-3.657l1-5.36l1.101-2.597l-0.718,0.32V12.12
		c-0.338,0.799-0.582,1.678-0.68,2.621C17.773,15.919,17.612,17.077,17.634,18.239L17.634,18.239z"/>
	<path fill="#81684C" d="M16.873,24.895c-0.2-0.079-0.4-0.157-0.618-0.258v1.18c0.139,0.059,0.298,0.142,0.479,0.222L16.873,24.895
		L16.873,24.895z"/>
	<polygon fill="#333333" points="17.373,21.237 16.873,24.895 16.734,26.038 17.612,27.375 18.074,24.654 19.694,12.72 
		19.473,13.28 18.372,15.877 17.373,21.237 	"/>
	<path fill="#446184" d="M15.216,27.375c-0.121,0.343-0.201,0.701-0.261,1.122c-0.139,0.998-0.12,2.239,0.099,3.701
		c-0.038,4.957,0.561,9.915,1.781,14.854l0.7,1.58v5.917c0.298-0.021,0.578-0.039,0.838-0.058c0.984-0.12,1.523-0.861,1.66-2.218
		V49.11l-2.199-9.278v-8.276l1.802,6.396l1.138,2.143l0.704,6.459l0.617,4.197l0.238,1.536l-0.419,1.143l-0.378,1.118l0.159,0.462
		l0.4,1.078c1.458-0.461,2.3-1.439,2.561-2.938l-1.422-8.978l0.841-4.24l-1.18-5.079c0.78-1.998,1.021-4.261,0.76-6.778h-3.418
		l-2.522,0.619l-2.12-2.138C15.436,26.793,15.312,27.075,15.216,27.375L15.216,27.375z M15.116,28.514
		c0.058-0.397,0.139-0.755,0.239-1.079c0.1-0.218,0.178-0.417,0.281-0.618l0.238,0.258c-0.457,1.542-0.561,3.222-0.28,5.042
		c-0.12,2.977,0.08,5.859,0.581,8.636l1.199,6.079l0.881,1.601l-0.263,5.916c-0.097,0-0.198,0-0.296,0.022v-5.739
		c0-0.018,0-0.042,0-0.06l-0.699-1.561c-1.221-4.938-1.823-9.877-1.762-14.813c0-0.023,0-0.023,0-0.044
		C15.015,30.713,14.975,29.494,15.116,28.514L15.116,28.514z M20.935,40.071c0-0.021,0-0.021,0-0.037l-1.161-2.142l-1.783-6.376
		l0.625,0.376l1.538,5.902l1.299,2.3l0.816,8.174l0.624,4.121l-0.702,2.183l0.42,1.136c-0.139,0.06-0.28,0.1-0.438,0.162
		l-0.46-1.322l0.781-2.199c0-0.02,0-0.062,0-0.076l-0.863-5.741L20.935,40.071L20.935,40.071z"/>
	<path fill="#7691C0" d="M15.354,27.435c-0.1,0.324-0.181,0.682-0.239,1.079c-0.141,0.98-0.101,2.199,0.118,3.639
		c0,0.021,0,0.021,0,0.044c-0.061,4.937,0.542,9.875,1.762,14.813l0.699,1.561c0,0.018,0,0.042,0,0.06v5.739
		c0.098-0.022,0.199-0.022,0.296-0.022l0.263-5.916l-0.881-1.601l-1.199-6.079c-0.501-2.776-0.701-5.659-0.581-8.636
		c-0.281-1.819-0.176-3.5,0.28-5.042l-0.238-0.258C15.532,27.018,15.454,27.217,15.354,27.435L15.354,27.435z"/>
	<path fill="#7691C0" d="M20.935,40.034c0,0.017,0,0.017,0,0.037l0.696,6.46l0.863,5.741c0,0.015,0,0.057,0,0.076l-0.781,2.199
		l0.46,1.322c0.159-0.063,0.299-0.103,0.438-0.162l-0.42-1.136l0.702-2.183l-0.624-4.121l-0.816-8.174l-1.299-2.3l-1.538-5.902
		l-0.625-0.376l1.783,6.376L20.935,40.034L20.935,40.034z"/>
	<path fill="#2A3F53" d="M18.876,26.697l-1.044,1.039l-0.22-0.361l-0.878-1.336c-0.181-0.08-0.34-0.163-0.479-0.222
		c-0.263,0.199-0.48,0.439-0.663,0.74l2.12,2.138l2.522-0.619h3.418c0.261,2.518,0.02,4.78-0.76,6.778l1.18,5.079l-0.841,4.24
		l1.422,8.978c-0.261,1.498-1.103,2.477-2.561,2.938l0.141,0.36c0.659-0.578,1.858-0.578,3.555,0l0.681-1.46l-0.681-3.637
		c0.202-2.763,0.043-5.322-0.498-7.697l0.638-3.504l-0.499-3.637v-1.979c0.183-0.619,0.342-1.281,0.443-1.94
		c0.118-0.761,0.196-1.539,0.219-2.339c-0.059-0.06-0.12-0.138-0.163-0.2c-0.218-0.317-0.394-0.64-0.557-0.979
		c-0.1-0.198-0.201-0.399-0.28-0.598c-0.201-0.462-0.361-0.942-0.497-1.441l0.195-0.5c-0.098-0.14-0.179-0.281-0.281-0.421
		C22.573,26.857,20.691,27.036,18.876,26.697L18.876,26.697z"/>
	<path fill="#81684C" d="M19.272,26.278l-0.396,0.418c1.815,0.339,3.697,0.16,5.633-0.581c-0.139-0.2-0.255-0.4-0.396-0.62
		c-0.101-0.141-0.199-0.299-0.302-0.462c-1.577,0.422-3.076,0.564-4.479,0.422L19.272,26.278L19.272,26.278z"/>
	<path fill="#6A5841" d="M30.331,20.36v-1.041c0.021-3.38-0.458-5.919-1.402-7.619c0.583,2.979,0.583,6.22,0,9.736l-3.436,7.339
		l0.681,0.481l1.097,0.761l1.343-2.502v2.322c-0.602,1.417-1.523,2.336-2.74,2.756c1.718,0.101,3.237-0.14,4.555-0.72l-1.18-5.596
		l0.244-0.462c0.58-1.103,1.015-2.279,1.297-3.561C30.79,21.556,30.634,20.938,30.331,20.36L30.331,20.36z"/>
	<path fill="#F2F2F2" d="M21.534,19.696c-0.023-0.119-0.023-0.218-0.042-0.318c-0.016-0.142-0.039-0.301-0.039-0.461
		c-0.18-2.099,0.023-4.137,0.58-6.137l-1.283,1.217l-0.576-1.278l0.038,4.297l-0.679,4.418l-0.201,4.02
		c1.403,0.142,2.902,0,4.479-0.422C22.773,23.317,22.015,21.538,21.534,19.696L21.534,19.696z"/>
	<path fill="#F2F2F2" d="M25.493,28.775l-0.4-0.298c0.079,0.199,0.18,0.4,0.28,0.598l0.681,0.583l0.121-0.402L25.493,28.775
		L25.493,28.775z"/>
	<path fill="#917A58" d="M26.174,29.256l-0.121,0.402l-0.124,0.396c0.043,0.062,0.104,0.141,0.163,0.2
		c-0.023,0.8-0.101,1.579-0.219,2.339c1.217-0.42,2.139-1.339,2.74-2.756v-2.322l-1.343,2.502L26.174,29.256L26.174,29.256z"/>
	<path fill="#D9AD85" d="M25.93,30.054l0.124-0.396l-0.681-0.583C25.536,29.414,25.711,29.737,25.93,30.054L25.93,30.054z"/>
	<path fill="#2A3F53" d="M20.772,40.095l-1.138-2.143l-1.802-6.396v8.276l2.199,9.278v3.162c-0.136,1.356-0.675,2.098-1.66,2.218
		c1.203-0.022,2.301,0.158,3.321,0.52l-0.159-0.462l0.378-1.118l-0.436-0.88l0.617-1.799l-0.617-4.197L20.772,40.095L20.772,40.095z
		"/>
	<path d="M18.372,54.49c-0.26,0.019-0.54,0.037-0.838,0.058l-1.322,0.701c-0.62,0.241-0.878,0.681-0.796,1.301
		c1.598,0.619,3.12,0.461,4.557-0.462l0.718-0.26v0.5l1.402-0.24l-0.4-1.078C20.673,54.648,19.575,54.468,18.372,54.49L18.372,54.49
		z"/>
	<path d="M22.234,56.448l0.32,0.242l-0.285,1.419c-0.016,0.541,0.203,0.758,0.68,0.677h2.082c0.742,0,0.96-0.458,0.699-1.356
		l0.059-0.981C24.092,55.87,22.893,55.87,22.234,56.448L22.234,56.448z"/>
</g>
</svg>
