<?xml version="1.0" encoding="utf-8"?>
<!-- Generator: Adobe Illustrator 15.1.0, SVG Export Plug-In . SVG Version: 6.00 Build 0)  -->
<!DOCTYPE svg PUBLIC "-//W3C//DTD SVG 1.1//EN" "http://www.w3.org/Graphics/SVG/1.1/DTD/svg11.dtd">
<svg version="1.1" id="_x23_Layer_1" xmlns="http://www.w3.org/2000/svg" xmlns:xlink="http://www.w3.org/1999/xlink" x="0px"
	 y="0px" width="548.879px" height="572.892px" viewBox="0 0 548.879 572.892" enable-background="new 0 0 548.879 572.892"
	 xml:space="preserve">
<path fill-rule="evenodd" clip-rule="evenodd" fill="#5990B4" stroke="#000000" stroke-width="1.0001" stroke-linecap="round" stroke-miterlimit="2.6131" d="
	M137.697,155.867c-5.141,0-15.423,6.854-15.423,6.854l-1.143,4.57c0,0-16.565,1.142-22.277,1.142c-5.712,0-27.418,3.999-33.13,3.427
	c-5.712-0.571-18.85,10.282-29.132,19.421c-10.282,9.14-30.274,25.134-34.272,32.559c-3.999,7.426-0.572,24.562,2.285,34.273
	c2.856,9.71,13.138,32.559,13.138,32.559l5.712,1.143l3.999,12.566l19.421-10.853c0,0,12.566,1.714,22.848,2.285
	s48.553-5.141,48.553-5.141s5.712-1.143,5.712-9.71s-3.999-17.136-1.714-23.419s14.852-18.85,14.852-18.85l5.569-0.143l3.713-7.14
	c0,0,13.423-0.856,17.136,2c3.712,2.856,22.277,12.852,27.418,16.851s18.85,12.567,21.42,14.852
	c2.57,2.285,7.997,3.427,10.567,2.285c2.571-1.143,11.996-4.569,11.71-10.567c-0.286-5.998,2.285-17.993,2-19.992
	c-0.286-2,0.856-8.568-0.286-11.139c-1.143-2.57-5.998-9.425-5.998-9.425l-0.286-7.997c0,0-1.713-0.571-7.997-1.714
	c-6.283-1.142-10.282,2.571-10.282,2.571l-0.571,3.998l-2.285,5.141c0,0-2-2.856-6.569-4.284c-4.57-1.428-20.278-7.712-23.134-9.71
	c-2.856-1.999-3.713-4.285-7.426-8.283c-3.713-3.999-15.708-13.423-23.134-18.564c-7.426-5.141-6.854-8.854-8.568-10.853
	C138.411,164.578,137.554,156.296,137.697,155.867L137.697,155.867z M45.446,229.554c0.552,6.433-2.713,15.106-2.713,22.75
	c0,9.559-5.742-10.755-5.141-10.755C37.592,238.662,42.23,229.436,45.446,229.554z"/>
<path fill-rule="evenodd" clip-rule="evenodd" fill="#D9AA74" stroke="#000000" stroke-width="1.0001" stroke-linecap="round" stroke-miterlimit="2.6131" d="
	M151.549,146.3c-4.182,2.702-6.081,4.503-8.746,8.366c-0.833,1.208-6.292,7.924-7.177,8.127c0,0.033-1.142,5.737-1.142,8.009
	c0,7.105,0.375,19.66-0.583,26.108c-0.621,4.174,0.331,0.591,2.893-0.453c1.01-0.412,6.258-4.643,6.438-4.402
	c2.382,3.187,3.374,4.665,6.353,7.475c1.946,1.835,9.635,7.594,11.437,3.676c0.014-0.03,2.861-3.053,3.346-3.701
	c2.044-2.732,3.037-3.751,4.855-6.867c1.951-3.342,1.784-2.277,3.974-1.049c0.297,0.167,1.814,1.529,2.416,1.478
	c0,0.484,1.206,0.007,1.428-0.857c2.455-0.421,7.435-15.595,7.557-18.458c0.292-6.88,2.313-9.188-0.857-17.1
	c-2.992-7.466-11.93-14.779-20.11-15.479c-4.016-0.344-6.935,2.771-8.295,2.771c0,0.272-1.67,1.237-1.714,1.428
	C153.375,145.371,151.699,146.203,151.549,146.3z"/>
<path fill-rule="evenodd" clip-rule="evenodd" fill="#020100" stroke="#000000" stroke-width="1.0001" stroke-linecap="round" stroke-miterlimit="2.6131" d="
	M125.63,117.667c3.713,4.713,21.135,22.848,23.991,26.418c2.856,3.57,15.28,18.136,18.136,22.277
	c2.856,4.141,19.707,25.133,22.706,29.274c3,4.141,13.138,15.137,13.138,15.137s2.427-3.57,2.57-8.568
	c0.143-4.998,0.857-12.281,0.571-16.708c-0.286-4.427-0.857-9.568-0.857-11.853s-2.57-6.569-2.57-6.569s7.14-7.14,9.425-9.282
	s6.283-5.141,6.283-6.426s-6.854-6.569-8.568-8.711s-4.998-3.57-6.854-6.855c-1.856-3.284-7.568-13.137-9.14-15.994
	c-1.571-2.856-1.856-5.284-4.141-5.998c-2.285-0.714-10.71,4.569-12.995,6.854c-2.285,2.285-7.997,7.711-9.282,7.854
	c-1.285,0.143-8.426-4.141-11.853-5.712c-3.427-1.571-19.849-5.426-22.563-5.426S125.916,117.525,125.63,117.667z"/>
<path fill-rule="evenodd" clip-rule="evenodd" fill="#4C4B49" d="M181.894,140.374c4.815,3.57,5.483,7.139,9.151,9.673
	c2.906,2.008,5.482,3.999,7.985,6.605c3.422,3.563,9.091-1.221,12.567-2.57c0.482-0.188,4.916-2.577,4.998-2.57
	c0.941-1.375,1.145-0.865-0.143,0.559c-0.782,0.864-5.998,5.821-5.998,6.01c-1.814,0-7.806,13.749-9.531,6.463
	c-0.007-0.03-2.725-3.688-3.322-5.32c-0.661-1.81-9.775-10.815-10.71-11.139c-0.394-1.532-3.646-6.464-4.749-7.222
	C182.058,140.804,181.931,140.401,181.894,140.374z"/>
<path fill-rule="evenodd" clip-rule="evenodd" fill="#886751" stroke="#000000" stroke-width="1.0001" stroke-linecap="round" stroke-miterlimit="2.6131" d="
	M151.834,146.586c-2.769-0.889-8.76,7.824-10.117,10.055c-3.108,5.113-1.338-0.245,1.857,5.879c0.028,0.054,3.999-5.028,6.059-6.247
	c2.819-1.668,3.892-3.199,6.52,1.13c0.392,0.645-0.801,2.381,2.893,0.857c0.615-0.254,3.814,0.991-0.522-4.084
	C156.555,151.873,154.417,147.415,151.834,146.586z"/>
<path fill-rule="evenodd" clip-rule="evenodd" fill="none" stroke="#000000" stroke-width="1.0001" stroke-linecap="round" stroke-miterlimit="2.6131" d="
	M161.188,183.643c0.45,5.098,0.973,6.517,4.998,9.853"/>
<path fill-rule="evenodd" clip-rule="evenodd" fill="none" stroke="#000000" stroke-width="1.0001" stroke-linecap="round" stroke-miterlimit="2.6131" d="
	M171.184,190.069c-0.716-1.584-0.908-1.682-1.571-3.284l-0.143-0.286"/>
<path fill-rule="evenodd" clip-rule="evenodd" fill="none" stroke="#000000" stroke-width="1.0001" stroke-linecap="round" stroke-miterlimit="2.6131" d="
	M141.766,178.93c-0.749,2.561-0.532,10.599,1.131,12.697c0.234,0.295,0.243,0.184,0.297,0.583"/>
<path fill-rule="evenodd" clip-rule="evenodd" fill="none" stroke="#000000" stroke-width="1.0001" stroke-linecap="round" stroke-miterlimit="2.6131" d="
	M144.194,161.509c-1.542,0.696-4.658,8.997,1.856,8.997"/>
<path fill-rule="evenodd" clip-rule="evenodd" fill="none" stroke="#000000" stroke-width="1.0001" stroke-linecap="round" stroke-miterlimit="2.6131" d="
	M122.06,165.936c-2.834,7.525-5.99,16.545-8.475,24.382c-1.287,4.058-2.857,3.62,6.524,2.88c0.794-0.063,10.997-1.338,11.09-1.416"
	/>
<path fill-rule="evenodd" clip-rule="evenodd" fill="none" stroke="#000000" stroke-width="1.0001" stroke-linecap="round" stroke-miterlimit="2.6131" d="
	M78.719,179.573c-1.576,8.13-0.372,9.065-3.949,16.851c-2.999,6.526-6.055,11.809-10.617,17.993"/>
<path fill-rule="evenodd" clip-rule="evenodd" fill="none" stroke="#000000" stroke-width="1.0001" stroke-linecap="round" stroke-miterlimit="2.6131" d="
	M134.126,199.28c-4.353,5.848,0.181,18.098-11.138,25.207c-1.062,0.667-3.814,2.711-2.571,4.21
	c-1.299,1.971-1.381,8.731-6.022,13.995c-8.141,9.233-1.567,10.543-6.757,23.134c-1.108,2.688,1.811,5.531-0.856,11.995
	c-0.029,0.071,0.212,3.318,0.212,3.999"/>
<path fill-rule="evenodd" clip-rule="evenodd" fill="none" stroke="#000000" stroke-width="1.0001" stroke-linecap="round" stroke-miterlimit="2.6131" d="
	M83.718,207.563c0.501,0,11.689,3.01,15.279,3.452c2.315,0.285,7.54,3.117,11.71,3.117c-5.76,8.416,0.179,6.283-14.852,6.283
	c-1.767,0-3.092-3.763-7.426-5.81C84.32,212.663,83.118,212.73,83.718,207.563z"/>
<path fill-rule="evenodd" clip-rule="evenodd" fill="none" stroke="#000000" stroke-width="1.0001" stroke-linecap="round" stroke-miterlimit="2.6131" d="
	M145.551,230.697c-7.948-0.77-8.475-11.925-14.378-2.93c-1.859,2.832,2.547,6.99,3.811,10.641"/>
<path fill-rule="evenodd" clip-rule="evenodd" fill="none" stroke="#000000" stroke-width="1.0001" stroke-linecap="round" stroke-miterlimit="2.6131" d="
	M152.405,227.555c3.082-3.083,7.119-5.558,9.711-7.997"/>
<path fill-rule="evenodd" clip-rule="evenodd" fill="none" stroke="#000000" stroke-width="1.0001" stroke-linecap="round" stroke-miterlimit="2.6131" d="
	M209.241,217.844c-2.175,3.487-2.847,15.151-6.83,18.066c-1.652,1.21-4.594,11.604-4.594,14.493"/>
<path fill-rule="evenodd" clip-rule="evenodd" fill="none" stroke="#000000" stroke-width="1.0001" stroke-linecap="round" stroke-miterlimit="2.6131" d="
	M213.239,220.986c0,4.98,4.763,2.383,9.139,2.57c1.528,0.065,5.389-2.8,5.712-2.855"/>
<path fill-rule="evenodd" clip-rule="evenodd" fill="none" stroke="#000000" stroke-width="1.0001" stroke-linecap="round" stroke-miterlimit="2.6131" d="
	M45.304,229.269c3.033-1.105,14.822-11,17.422-13.709c0.414-0.431,0.305-0.477,0.857-0.571"/>
<path fill-rule="evenodd" clip-rule="evenodd" fill="none" stroke="#000000" stroke-width="1.0001" stroke-linecap="round" stroke-miterlimit="2.6131" d="
	M42.162,254.116c0,7.611,4.88,14.646,6.569,20.874c0.788,2.905-2.607,3.601-2.432,9.76c0.072,2.539,0.433,5.361,0.433,7.638"/>
<path fill-rule="evenodd" clip-rule="evenodd" fill="none" stroke="#000000" stroke-width="1.0001" stroke-linecap="round" stroke-miterlimit="2.6131" d="
	M25.597,289.246c-0.944-2.747,1.686-7.426,6.854-7.426c6.16,0,3.644-0.51,10.282,0.596c0.405,0.067,0.564-0.068,0.857-0.31"/>
<path fill-rule="evenodd" clip-rule="evenodd" fill="none" stroke="#000000" stroke-width="1.0001" stroke-linecap="round" stroke-miterlimit="2.6131" d="
	M36.165,237.551c-5.863-4.224-9.791-4.284-16.565-4.284"/>
<path fill-rule="evenodd" clip-rule="evenodd" fill="none" stroke="#000000" stroke-width="1.0001" stroke-linecap="round" stroke-miterlimit="2.6131" d="
	M35.308,232.41c-0.33-3.404-3.449-6.894-6.569-7.997"/>
<path fill-rule="evenodd" clip-rule="evenodd" fill="#4B6E8B" d="M68.866,207.42c-3.852,6.341-3.686,9.022-9.568,17.752
	c-9.801,14.547-9.711,18.264-9.711,34.085c-1.451,0,18.142-4.39,22.277-3.044c1.98,0.644-5.871,1.78-9.286,3.117
	c-3.588,1.404-20.571,7.638-5.28,7.638c-2.574,3.763-4.57,1.894-4.57,5.427c0,0.604-6.071,7.59-4.381,5.899
	c3.257-3.259-4.269-15.55-4.733-19.323c-0.914-7.427,0.421-12.773,1.379-20.563c2.19-17.806,1.274-4.914,11.759-15.398
	c4.281-4.281,9.105-9.177,11.473-13.946C68.901,207.703,68.011,208.828,68.866,207.42z"/>
<path fill-rule="evenodd" clip-rule="evenodd" fill="#4B6E8B" d="M160.117,222.7c-1.052,0.197-4.784,2.683-5.141,3.713
	c-1.298,0.334-4.455,5.022-6.569,4.855c1.069-0.794,4.77-1.4,5.427-0.857c0.25-0.887,8.859,2,9.425,2
	c0,0.198,10.195,5.051,11.685,6.21c1.377,1.07,12.546,7.945,5.239,2.93c-1.352-0.928-4.507-6.563-10.355-8.642
	C167.33,232.021,156.753,226.412,160.117,222.7z"/>
<path fill-rule="evenodd" clip-rule="evenodd" fill="#450F09" stroke="#000000" stroke-width="1.0001" stroke-linecap="round" stroke-miterlimit="2.6131" d="
	M49.302,298.385c1.385,6.114,0.447,22.311,8.952,13.807c4.547-4.547,35.425-10.99,43.028-10.665
	c1.544,0.065,15.708-1.409,15.708-1.714c0-2.722,0.143-9.673-2.285-9.972c-12.857-1.583-15.625-2.804-29.131-1.143
	c-8.521,1.048-23.525,4.291-31.131,8.356C53.565,297.524,49.267,298.227,49.302,298.385z"/>
<path fill-rule="evenodd" clip-rule="evenodd" fill="#F5F7F8" stroke="#000000" stroke-width="1.0001" stroke-linecap="round" stroke-miterlimit="2.6131" d="
	M103.139,284.391c-11.4-0.003-6.161,21.134-1.856,21.134c15.969,0,9.974-1.837,10.567-15.708
	C112.064,284.805,104.675,284.391,103.139,284.391z"/>
<path fill-rule="evenodd" clip-rule="evenodd" fill="#D9AA74" stroke="#000000" stroke-width="1.0001" stroke-linecap="round" stroke-miterlimit="2.6131" d="
	M33.594,300.956c0.812,3.04,6.82,5.819,9.898,9.237c4.694,5.214,4.787,4.845,12.591,0.971c7.301-3.623,3.5-5.711,8.307,4.357
	c1.876,3.93,7.104,1.016,1.265-8.07c-2.618-4.073,5.164-0.557,5.067,1.502c0.384,0,3.713,10.349,3.713-0.857
	c0-2.369-6.497-6.101,0.286-11.424c2.285-1.793-5.81-3.738-7.091-5.786c-2.781-4.443-7.841,11.863-20.686,2.717
	C46.894,293.567,33.462,300.463,33.594,300.956z"/>
<path fill-rule="evenodd" clip-rule="evenodd" fill="none" stroke="#000000" stroke-width="1.0001" stroke-linecap="round" stroke-miterlimit="2.6131" d="
	M70.151,300.956c-4.314-1.842-5.234-2.588-9.425-2"/>
<path fill-rule="evenodd" clip-rule="evenodd" fill="none" stroke="#000000" stroke-width="1.0001" stroke-linecap="round" stroke-miterlimit="2.6131" d="
	M65.582,305.811c-0.804-1.008-3.144-4.561-4.855-3.143"/>
<path fill-rule="evenodd" clip-rule="evenodd" fill="none" stroke="#000000" stroke-width="1.0001" stroke-linecap="round" stroke-miterlimit="2.6131" d="
	M72.436,298.1c-2.089-2.159-4.877-4.84-7.997-3.428"/>
<path fill-rule="evenodd" clip-rule="evenodd" fill="#1E3044" stroke="#000000" stroke-width="1.0001" stroke-linecap="round" stroke-miterlimit="2.6131" d="
	M85.288,304.382c-4.997,0.533-5.098,1.381-8.354,1.929c-5.409,0.909-1.628-1.828-2.415,4.569c-0.166,1.344-0.807,4.033-2.118,1.392
	c-0.146-0.295-2.426-4.544-2.881-4.627c-4.949-0.903-1.645,2.922-1.726,3.949c-0.006,0.07,0.571,3.321,0.571,4.569
	c-0.243,0,0.245,2.57-2.856,0c-6.249-5.178,0.264-8.065-8.426-2.606c-0.462,0.29-3.091,1.192-4.069,1.679
	c0.742,7.66,1.605,19.442,1.142,27.059c-0.204,3.359,8.592,10.313,11.09,9.449c0.04-0.193,6.616,38.567,12.828,47.46
	c3.19,4.566,7.568,12.593,12.093,15.781c0.625,0.441,9.535,9.305,8.592,9.327c-1.411,0.034-11.35,2.086-6.258,6.806
	c4.073,3.776,1.021,2.691,0.139,3.574c-0.452,0.451-0.903,0.902-1.354,1.354c-0.659,3.43-11.988,13.492-16.255,20.352
	c-4.941,7.943-8.5,10.914-12.926,19.968c-8.409,17.203-21.79,33.509-18.972,53.62c0.555,3.965-1.848,13.165,3.599,10.804
	c3.654-1.584,17.53-3.033,21.894-3.329c8.664-0.588,10.35-1.547,19.804-0.596c10.314,1.038-3.796-4.068,3.068-12.257
	c0.244-0.291,13.432-25.945,16.639-30.943c5.044-7.862,5.86-14.024,12.876-23.443c4.574-6.14,8.328-18.478,13.97-23.894
	c3.697-3.548,8.854-19.233,8.854-24.537c0-2.07-0.591-11.792-0.571-12.02c-1.476-0.081-5.148-32.477-7.067-37.129
	c-0.496-1.202-0.349-7.975-0.93-8.282c-0.582-0.309,13.423,3.428,21.706,4.855s27.418,0.57,33.416,0.856
	c5.998,0.285,10.282-0.285,10.282-0.285s1.713,5.426,2.856,10.281s-3.141,20.278-2.57,33.987
	c0.571,13.709,0.571,29.702,1.713,33.415c1.142,3.713,13.995,16.279,15.994,17.708c1.999,1.428,9.139-5.712,17.993-14.28
	c8.854-8.568,16.279-12.853,18.279-16.851c1.999-3.999,1.713-9.426,1.713-9.426s-4.569,0.857-7.711-2.57
	c-3.142-3.427-0.857-8.568-1.143-20.277c-0.286-11.71,2.57-39.984,0.856-46.554c-1.713-6.569-2.57-11.139-4.855-14.565
	c-2.285-3.428-14.852-6.569-19.993-9.711s-39.413-13.709-50.266-13.995c-10.853-0.285-30.56-3.141-37.414-4.854
	s-3.427-2.285-6.569-5.712c-3.142-3.428-7.711-6.569-11.71-6.283c-3.999,0.285-3.999-0.001-5.141,2.569
	c-1.143,2.571-2.856,3.714-6.569,3.143c-3.712-0.571-5.998-2-8.282-2.285S90.144,303.526,85.288,304.382z"/>
<path fill-rule="evenodd" clip-rule="evenodd" fill="none" stroke="#000000" stroke-width="1.0001" stroke-linecap="round" stroke-miterlimit="2.6131" d="
	M117.418,313.665c4.222,5.292,12.54,34.934,15.921,43.126c0.081,0.197,0.645,4.607,0.645,5.141c0.173,0,1.347,4.961,1.428,5.713"/>
<path fill-rule="evenodd" clip-rule="evenodd" fill="none" stroke="#000000" stroke-width="1.0001" stroke-linecap="round" stroke-miterlimit="2.6131" d="
	M67.152,329.659c7.305-8.404,4.966-2.312,11.139-15.709"/>
<path fill-rule="evenodd" clip-rule="evenodd" fill="#906E58" stroke="#000000" stroke-width="1.0001" stroke-linecap="round" stroke-miterlimit="2.6131" d="
	M47.731,540.149c-1.215,1.686-1.143,3.673-1.143,5.712c2.12,0-3.627,8.283,3.999,8.283c22.972,0,24.938,9.14,38.271,9.71
	c15.815,0.677,16.216-2.741,28.56-4.26c3.674-0.452,10.45,0.691,9.213-2.309c-1.57-3.809-2.642-2.692-7.76-4.497
	c-8.215-2.896-12.907-0.741-22.375-7.164c-2.062-1.398-7.562-5.243-8.209-7.761c-3.32-1.15-0.002-1.143-6.283-1.143
	C75.109,536.721,55.197,538.713,47.731,540.149z"/>
<path fill-rule="evenodd" clip-rule="evenodd" fill="#18201A" stroke="#000000" stroke-width="1.0001" stroke-linecap="round" stroke-miterlimit="2.6131" d="
	M47.874,552.288c-0.843,2.024-0.891,7.8,1.048,8.352c2.967,0.844,14.155,0.384,14.876-1.641c2.88-8.084,4.855-3.616-10.069-5.45
	c-1.932-0.238-3.421-0.833-4.284-0.833C49.445,552.373,48.059,551.842,47.874,552.288z"/>
<path fill-rule="evenodd" clip-rule="evenodd" fill="#906E58" stroke="#000000" stroke-width="1.0001" stroke-linecap="round" stroke-miterlimit="2.6131" d="
	M227.519,459.038c0.665,2.001,7.343,9.129,8.736,7.426c10.889-13.319,20.086-12.775,25.207-17.896
	c3.644-3.644,15.838-10.061,17.609-16.949c0.305,0,10.878-15.188,6.854-15.684c-3.057-0.376-10.729,8.438-17.993,10.902
	c-2.766,0.938-10.985,1.58-11.709,3.9c-2.013,6.445-8.981,11.665-14.566,15.162c-0.894,0.56-7.824,6.7-7.997,7.711
	C232.388,454.051,227.335,458.483,227.519,459.038z"/>
<path fill-rule="evenodd" clip-rule="evenodd" fill="#18201A" stroke="#000000" stroke-width="1.0001" stroke-linecap="round" stroke-miterlimit="2.6131" d="
	M236.801,466.606c5.242,4.594,7.778-0.845,12.591-3.905c0.343-0.218-0.355-12.064-4.954-5.401c-0.715,1.036-6.926,7.588-7.352,7.735
	C237.166,466.033,235.94,465.851,236.801,466.606z"/>
<path fill-rule="evenodd" clip-rule="evenodd" fill="#D9AA74" stroke="#000000" stroke-width="1.0001" stroke-linecap="round" stroke-miterlimit="2.6131" d="
	M384.602,375.212c5.141,15.423,16.564,35.415,16.564,35.415s-7.426-2.285-17.136-1.714c-9.711,0.571-22.849,7.997-28.561,9.711
	c-5.712,1.713,2.856,21.706,2.856,21.706s4.569,3.427,10.281,0.571c5.712-2.856,27.418-3.999,34.272-3.428
	s13.709,1.714,13.709,1.714s-11.424,2.856-17.136,18.278c-5.713,15.423-10.282,31.988-9.14,39.985
	c1.143,7.996,19.992,13.708,19.992,13.708s1.143-5.712,4.569-14.852c3.428-9.139,19.992-33.701,24.563-40.556
	c4.569-6.854,9.139-14.28,9.139-14.28s-2.855-3.998-5.141-23.419c-2.284-19.422,0.571-20.563-5.712-29.703
	S386.316,376.926,384.602,375.212z"/>
<path fill-rule="evenodd" clip-rule="evenodd" fill="none" stroke="#000000" stroke-width="1.0001" stroke-linecap="round" stroke-miterlimit="2.6131" d="
	M401.024,410.341c2.7,3.419,12.176,17.041,14.754,21.303c0.801,1.323,2.229,6.463,0.24,7.544"/>
<path fill-rule="evenodd" clip-rule="evenodd" fill="#BC6133" stroke="#000000" stroke-width="1.0001" stroke-linecap="round" stroke-miterlimit="2.6131" d="
	M349.043,414.197c-3.584-0.087-24.246,15.916-32.771,18.753c-4.646,1.546-26.173,9.416-25.28,12.379
	c2.468,8.19,6.536,9.133,6.071,19.992c-0.314,7.357,3.66,13.5,8.07,19.396c1.372,1.834,12.45,15.663,13.089,11.759
	c1.698-10.376-9.566-18.44-0.979-33.75c5.715-10.188,26.37-17.494,37.513-16.565c7.192,0.599,7.243,2.58,9.4-7.997
	c1.59-7.799-3.265-12.688-6.618-18.254C356.265,417.796,350.57,414.234,349.043,414.197z"/>
<path fill-rule="evenodd" clip-rule="evenodd" fill="#3D150B" stroke="#000000" stroke-width="1.0001" stroke-linecap="round" stroke-miterlimit="2.6131" d="
	M290.923,445.042c-0.445,0.034-7.209,4.279-5.283,7.091c0.052,0.076,2.419,5.326,2.57,5.762c11.727-3.018,8.198,3.025,4.284-8.283
	C292.042,448.307,290.475,445.077,290.923,445.042z"/>
<path fill-rule="evenodd" clip-rule="evenodd" fill="#BC6133" stroke="#000000" stroke-width="1.0001" stroke-linecap="round" stroke-miterlimit="2.6131" d="
	M382.459,494.024c3.105,7.254,0.978,24.275-0.024,32.416c-0.447,3.641-6.454,39.249-4.259,38.345
	c7.773-3.204,17.57,6.495,24.847,6.495c0-0.825,12.317,2.24,15.994,0.645c0.061-0.025,9.674,0.038,15.994-2.57
	c1.771-0.731,3.717,0.664,2.57-2.644c-5.398,0-21.218-5.757-25.346-9.237c-10.078-8.5-7.533-17.049-6.095-28.748
	c0.489-3.989,6.121-15.908,8.878-19.422c0.316-0.403,1.243-4.375,1.737-4.431c-0.121-0.284,1.118-2.389,1.118-4.423
	c-0.303-0.104-6.623-6.524-7.973-7.499c-8.29-5.99-16.802-3.303-25.729-0.212C383.255,493.056,382.211,493.445,382.459,494.024z"/>
<path fill-rule="evenodd" clip-rule="evenodd" fill="#3D150B" stroke="#000000" stroke-width="1.0001" stroke-linecap="round" stroke-miterlimit="2.6131" d="
	M377.89,563.569c-0.251,0.276-2.717,7.938,2.57,7.711c4.04-0.173,6.631,0.633,8.756-2.881c2.203-3.643-0.455-1.646-5.328-4.904
	c-0.926-0.619-5.06,0.144-5.28,0.384C378.698,563.878,377.912,563.544,377.89,563.569z"/>
<path fill-rule="evenodd" clip-rule="evenodd" fill="#2B475D" stroke="#000000" stroke-width="1.0001" stroke-linecap="round" stroke-miterlimit="2.6131" d="
	M384.745,280.535c-11.424,3.142-30.56,11.709-39.128,16.851c-8.568,5.141-23.991,17.136-28.274,27.703
	c-4.284,10.567-8.282,19.707-7.426,25.705c0.856,5.997-0.285,9.71,1.999,11.424c2.285,1.714,18.564,11.995,28.274,16.851
	c9.711,4.855,32.845,10.853,39.128,12.566s11.995,1.143,11.995,1.143l-5.426-13.138c0,0,9.139,6.283,18.85,10.567
	s18.85,5.427,29.132,5.427s26.847-3.142,26.847-3.142s-2.285-7.426-3.998-17.708c-1.714-10.281-3.143-27.989-7.141-42.27
	s-9.996-21.705-15.137-29.131c-5.141-7.426-6.854-11.996-8.568-13.709c-1.714-1.714-22.277-5.712-27.703-7.14
	C392.742,281.105,384.173,280.82,384.745,280.535z"/>
<path fill-rule="evenodd" clip-rule="evenodd" fill="#1E3044" stroke="#000000" stroke-width="1.0001" stroke-linecap="round" stroke-miterlimit="2.6131" d="
	M314.201,362.789c1.428-5.998,1.999-11.71,12.281-9.711c10.281,2,26.274,4.57,34.271,11.425s24.563,11.424,24.563,11.424
	c-1.073,2.651,3.646,13.297,3.642,13.353c0.034,0.012,2.639,3.427,1.143,3.427c-0.647,0-0.286,0.714-1.856,0
	c-1.571-0.714-14.566-2.713-19.421-4.427c-4.855-1.714-18.851-6.14-22.706-7.711s-13.566-6.569-16.565-8.282
	c-2.999-1.714-9.281-4.428-11.281-5.998C316.271,364.716,314.7,362.86,314.201,362.789z"/>
<path fill-rule="evenodd" clip-rule="evenodd" fill="#1E3044" d="M440.152,315.949c0.856,16.279,1.428,15.994-3.428,33.702
	c-4.854,17.707-9.996,31.987-7.711,35.985c2.285,3.999,7.711,7.712,9.425,7.997c1.714,0.286,19.707-2.57,19.707-2.57
	s-2.57-6.568-3.142-17.993c-0.571-11.424-2.285-28.846-4.569-35.985c-2.285-7.141-9.14-19.993-9.14-19.993L440.152,315.949z"/>
<path fill-rule="evenodd" clip-rule="evenodd" fill="#3D150B" stroke="#000000" stroke-width="1.0001" stroke-linecap="round" stroke-miterlimit="2.6131" d="
	M391.028,271.966c-1.999,4.855-2.855,7.997-2.855,7.997s8.567,4.57,16.85,6.283c8.283,1.714,20.85,3.713,20.85,3.713l-4.855-7.711
	c0,0-5.427-0.856-12.853-3.999C400.739,275.107,390.743,272.823,391.028,271.966z"/>
<path fill-rule="evenodd" clip-rule="evenodd" fill="#020100" stroke="#000000" stroke-width="1.0001" stroke-linecap="round" stroke-miterlimit="2.6131" d="
	M343.332,152.012c-3.886-0.96-0.24,4.299-7.14-3.427c-3.23-3.618-1.682,8.282-5.524,8.282c-8.456,0-23.507,9.152-21.273,17.087
	c1.723,0.357,3.285-8.918,12.231-9.637c2.879-0.231,0.465-1.694-1.786,7.328c-1.77,7.089,4.285,18.795,5.002,15.708
	c2.428-10.463,6.626-7.768,8.78-9.923c0.307,1.487,3.021-3.225-0.645,7.687c-4.211,12.531,12.8,18.736,3.859,30.013
	c-0.027,0.035,5.277,1.662,8.593-5.712c2.44-5.43,0.083-9.72,4.187-11.138c0,11.837,5.921,3.126,10.069,19.208
	c2.158,8.367,1.813-13.524,5.279-0.432c0.925,3.494,10.247,8.977,12.641,2.073c3.561-0.611,19.469-24.633,21.061-29.344
	c1.301-3.847,9.806-19.662,12.33-22.636c5.246-6.18,7.078-18.693,5.354-24.848c-1.479-5.275-0.499-4.961-3.231-11.4
	c-2.555-6.019-16.475-16.486-24.089-17.422c-7.624-0.938-15.34,2.629-17.422,1.689c-9.425,1.999-17.993,1.428-22.849,11.71
	S343.332,152.012,343.332,152.012z"/>
<path fill-rule="evenodd" clip-rule="evenodd" fill="#FFFFFF" stroke="#000000" stroke-width="1.0001" stroke-linecap="round" stroke-miterlimit="2.6131" d="
	M387.315,199.422c-7.141,3.713-13.423,4.57-14.852,10.567c-1.428,5.998,0.857,18.279,5.713,26.561
	c4.854,8.283,12.566,20.564,13.708,26.276c1.143,5.712,0,7.14-0.285,9.139c-0.286,2,11.995,3.427,16.564,5.998
	c4.57,2.57,12.853,4.284,14.852,5.712c2,1.428,9.711,4.284,10.567,1.713c0.857-2.57,2-5.426,3.428-13.138
	c1.428-7.711,4.569-29.417,6.568-36.843c2-7.426,1.143-7.711,4.57-12.852c3.427-5.141,5.712-11.71,2.57-15.137
	c-3.142-3.427-14.994-10.424-20.135-14.709c-5.142-4.284-8.14-6.711-11.281-8.14c-3.142-1.428-1.429-2.285-10.568,3.427
	C399.596,193.71,386.458,200.279,387.315,199.422z"/>
<path fill-rule="evenodd" clip-rule="evenodd" fill="#D9AA74" stroke="#000000" stroke-width="1.0001" stroke-linecap="round" stroke-miterlimit="2.6131" d="
	M379.033,207.705c-6.569,4.284-5.712,15.137-3.428,19.421c2.285,4.284,11.425,17.993,16.279,21.992
	c4.855,3.999,19.136,15.994,22.849,21.992s9.996,14.28,12.853,17.421c2.855,3.142,15.993,8.568,21.135,12.853
	c5.141,4.284,16.279,6.569,21.135,9.14c4.854,2.57,9.71,1.142,12.566,0.856c2.25,0.197,5.378-1.145,8.354-0.071
	c1.509,0.544,3.041-0.431,5.663,2.334c0.025,0.026,9.719,6.458,5.998,3.284c-0.994-0.849-6.656-9.401-3.807-8.226
	c4.743,1.957,10.793,1.012,10.854,1.036c0.032,0.014,3.646,0.016,2.57-1.285c1.293,0,1.27-2.673,2.57-2.57
	c-0.151-1.915-0.505-1.317-3.428-2.391c-4.237-1.557-6.753-2.666-10.853-4.358c-3.271-1.349-8.347-4.063-11.853-3.105
	c-4.375,1.197-11.931,4.539-15.708,4.843c-1.049,0.085-1.714,0.87-2.999,0.441s-5.713-1.856-8.283-4.57
	s-12.995-12.995-16.993-17.708s-7.141-8.854-10.139-11.139c-2.999-2.285-5.998-4.284-8.14-6.141
	c-2.143-1.856-6.427-9.853-7.568-10.996c-1.143-1.142-8.283-14.994-10.854-19.85c-2.57-4.855-8.14-14.137-12.139-18.278
	c-3.998-4.141-6.854-5.855-9.425-6.141C383.673,206.206,378.675,208.063,379.033,207.705z"/>
<path fill-rule="evenodd" clip-rule="evenodd" fill="#D9AA74" stroke="#000000" stroke-width="1.0001" stroke-linecap="round" stroke-miterlimit="2.6131" d="
	M393.098,199.352c3.999,1.142,9.854,6.426,11.71,9.425c1.856,2.999,5.427,9.139,6.854,9.282c1.429,0.143,11.71-3.427,14.994-5.854
	c3.285-2.428,6.569-6.284,6.427-7.854c-0.144-1.571-4.855-7.283-7.426-9.996s-7.711-7.711-9.282-8.283s-3.285-2.999-4.998-1.713
	c-1.714,1.285-8.14,5.711-10.425,7.854C398.667,194.354,393.098,199.494,393.098,199.352z"/>
<path fill-rule="evenodd" clip-rule="evenodd" fill="#AA9D94" stroke="#000000" stroke-width="1.0001" stroke-linecap="round" stroke-miterlimit="2.6131" d="
	M481.136,0.5c-3.142,6.569-4.569,10.567-7.997,12.281c-3.427,1.714-14.852,2-27.132,7.998C433.726,26.775,426.3,33.63,426.3,33.63
	s0.571,5.141,5.427,5.141c4.854,0,28.846,3.999,35.7,5.998c6.854,2,32.273,8.568,38.271,12.567
	c5.997,3.999,21.991,14.28,25.418,17.993c3.428,3.713,10.854,3.999,12.853,3.999s7.141,1.428,2.57-8.568
	c-4.569-9.996-11.139-20.563-15.994-27.132c-4.854-6.569-9.139-8.568-9.139-10.282c0-1.714,2.285-12.566,2.285-12.566
	s-6.569-8.854-11.425-10.282S487.419,0.5,481.136,0.5z"/>
<path fill-rule="evenodd" clip-rule="evenodd" fill="none" stroke="#000000" stroke-width="1.0001" stroke-linecap="round" stroke-miterlimit="2.6131" d="
	M476.852,13.067c8.854,0.286,21.421,4.569,26.562,7.711c5.141,3.142,16.565,11.424,16.565,11.424"/>
<path fill-rule="evenodd" clip-rule="evenodd" fill="none" stroke="#000000" stroke-width="1.0001" stroke-linecap="round" stroke-miterlimit="2.6131" d="
	M455.432,31.06c9.139-0.571,23.134-0.857,30.274,1.142c7.14,2,18.849,7.997,23.704,11.996s11.425,11.138,11.425,11.138
	s-2.285-1.428-7.712-5.998c-5.426-4.57-14.565-9.996-19.706-12.281c-5.141-2.285-19.706-5.427-25.99-5.141
	c-6.283,0.286-9.71,0-9.71,0"/>
<path fill-rule="evenodd" clip-rule="evenodd" fill="#D9AA74" stroke="#000000" stroke-width="1.0001" stroke-linecap="round" stroke-miterlimit="2.6131" d="
	M416.947,182.929c2.428-2.57,7.854-8.568,12.709-14.138c4.855-5.569,12.281-14.994,16.137-20.706
	c3.855-5.712,10.567-11.709,12.281-16.708c1.714-4.998,4.284-14.423,5.854-18.993c1.571-4.569,6.854-12.281,9.14-15.28
	c2.284-2.999,11.424-16.136,12.138-18.564c0.715-2.428,1.999-5.284,1-6.712c-1-1.428-5.998-8.425-6.141-9.996
	s1.999-5.855,3.57-8.997c1.57-3.142,6.568-13.281,7.711-15.137c1.143-1.856,3.855-0.286,2.714,1.999
	c-1.143,2.285-2.999,10.853-2.285,14.708c0.714,3.856,6.712,9.283,6.712,10.853c0,1.571-0.856,3.713-2.285,10.282
	c-1.428,6.569-3.855,19.421-4.284,20.849c-0.428,1.428-1.999,8.997-5.426,17.85c-3.428,8.854-9.425,16.137-12.424,20.992
	s-4.428,11.996-5.569,14.566c-1.143,2.57-5.855,9.996-10.425,18.279c-4.57,8.282-12.566,20.278-15.28,24.562
	c-2.713,4.284-3.855,5.712-3.855,5.712s-6.854-4.855-8.426-5.998c-1.57-1.142-6.568-5.712-8.567-6.854
	C419.946,184.357,417.089,183.072,416.947,182.929z"/>
<path fill-rule="evenodd" clip-rule="evenodd" fill="#D9AA74" stroke="#000000" stroke-width="1.0001" stroke-linecap="round" stroke-miterlimit="2.6131" d="
	M363.681,142.517c-2.19,2.396-2.935,13.643-0.607,17.315c1.065,1.682,2.183,5.327,0.787,7.283c-0.768,1.077-0.811,2.781-2.656,4.626
	c-2.976,2.976,3.425,5.771,5.487,6.035c1.232,0.157,1.967,4.734,4.105,5.177c0.146,0.703,1.954-1.097,1.31,0.689
	c-0.368,1.021,3.927,6.967,5.892,6.786c0.109-0.01,1.024,0.575,2.285-0.322c0.972-0.692,8.246-4.076,8.959-3.893
	c2.95,0.758-0.494,5.384,6.663,2.664c2.323-0.883,9.803-3.44,10.653-5.483c1.315-3.164,7.352-0.926,4.712-7.32
	c-0.283-0.687,0.319-7.303-0.358-6.891c-0.043,0.026-10.145-4.541-8.78-7.948c0.845-2.112,0.515-11.619-3.179-12.828
	c-2.784-0.912-3.101-3.131-6.806,2.832c-0.596,0.958-1.62,3.918-1.62,4.986c-2.437,0-7.839-11.275-11.281-11.698
	c-0.051-0.006-4.823-1.498-5.712-1.726c-3.008-0.774-4.846-1.077-7.854-0.571c-0.479,0.081-1.57,0.18-1.57,0.143
	C364.066,142.67,363.708,142.487,363.681,142.517z"/>
<path fill-rule="evenodd" clip-rule="evenodd" fill="none" stroke="#000000" stroke-width="1.0001" stroke-linecap="round" stroke-miterlimit="2.6131" d="
	M365.252,157.368c1.364-0.807,4.463-0.571,6.141-0.571"/>
<path fill-rule="evenodd" clip-rule="evenodd" fill="none" stroke="#000000" stroke-width="1.0001" stroke-linecap="round" stroke-miterlimit="2.6131" d="
	M369.25,163.651c1.252-0.511,4.982-0.89,5.974-0.546c0.01,0.05-3.029,2.012-4.26,3.26"/>
<path fill-rule="evenodd" clip-rule="evenodd" fill="none" stroke="#000000" stroke-width="1.0001" stroke-linecap="round" stroke-miterlimit="2.6131" d="
	M371.536,163.581c-1.082,0.263-0.621,1.177-0.429,1.642c0.586,0,2.586-0.776,0.869-1.267L371.536,163.581z"/>
<path fill-rule="evenodd" clip-rule="evenodd" fill="none" stroke="#000000" stroke-width="1.0001" stroke-linecap="round" stroke-miterlimit="2.6131" d="
	M371.821,182.93c3.354-2.739,3.408-1.951,6.663-5.761c0.356-0.417,0.192-0.892,0.478-1.236"/>
<path fill-rule="evenodd" clip-rule="evenodd" fill="none" stroke="#000000" stroke-width="1.0001" stroke-linecap="round" stroke-miterlimit="2.6131" d="
	M389.529,185.643c3.745-1.168,8.492-5.92,10.983-8.854c1.729-2.036,1.583-7.825,1.583-10.71"/>
<path fill-rule="evenodd" clip-rule="evenodd" fill="none" stroke="#000000" stroke-width="1.0001" stroke-linecap="round" stroke-miterlimit="2.6131" d="
	M397.811,165.793c1.449-0.357,2.63-0.237,3.713-2.856"/>
<path fill-rule="evenodd" clip-rule="evenodd" fill="#BC3A1A" stroke="#000000" stroke-width="1.0001" stroke-linecap="round" stroke-miterlimit="2.6131" d="
	M424.944,160.082c-1.555,1.081,1.914-10.51-3.142-2.236c-2.303,3.768-2.856,2.777-4.378,8.042c-0.341,1.177-3.666,8.527-2.763,9.617
	c-2.055,0.162-14.097,9.568-16.279,9.568c0,0.099-6.516,3.21-9.282,2.142c-0.824,2.211-1.646,14.63-0.428,13.815
	c3.712-2.484,10.831-4.612,12.827-8.959c0.066-0.145,4.051-3.367,4.488-4.105c1.442-2.436,5.904-6.191,8.674-5.414
	c3.612,1.014,11.809,0.013,15.292-1.526c2.729-1.205,6.54-1.185,0.273-3.77c-3.154-1.301-10.03-0.052-13.423,0.82
	c5.002-5.468,7.986-0.947,8.494-13.032C425.371,163.326,424.944,161.872,424.944,160.082z"/>
<path fill-rule="evenodd" clip-rule="evenodd" fill="#D9AA74" stroke="#000000" stroke-width="1.0001" stroke-linecap="round" stroke-miterlimit="2.6131" d="
	M214.524,211.633c1.206,2.672,11.516,4.574,11.638,1.713c0.138-3.216-1.173-11.123-1.583-14.565
	c-0.504-4.231-0.447-11.344-1.51-15.137c-0.505-1.803-0.299-3.262-1.048-5.427c-4.074,0,1.046-1.812-3.713-1.999
	c-2.201-0.087-2.205,1.511-4.998-2.571c-1.968,0.155,1.447-2.087-4.035-1.558c-2.885,0.278-3.358-0.733-6.141,0.951
	c-2.237,1.353-2.894-0.609-1.95,4.023c0.523,2.565,10.506-2.791,6.842,0.726c-0.941,0.903-6.304,5.571-4.011,6.83
	c0.83,0.456,5.193-3.242,2.048,1.204c-0.01,0.014-1.204,3.112,1.105,2.484c2.98-0.81-1.17,8.094,2.713,9.878
	c2.558,1.175,4.712,7.487,4.712,10.592C214.596,209.669,214.224,210.968,214.524,211.633z"/>
<path fill-rule="evenodd" clip-rule="evenodd" fill="none" stroke="#000000" stroke-width="1.0001" stroke-linecap="round" stroke-miterlimit="2.6131" d="
	M207.741,184.072c3.236-4.493,5.055-3.912,7.568-6.426"/>
<path fill-rule="evenodd" clip-rule="evenodd" fill="none" stroke="#000000" stroke-width="1.0001" stroke-linecap="round" stroke-miterlimit="2.6131" d="
	M208.027,187.785c4.111-3.977,3.582-3.052,8.425-4.712"/>
</svg>
