<?xml version="1.0" encoding="utf-8"?>
<!-- Generator: Adobe Illustrator 17.0.0, SVG Export Plug-In . SVG Version: 6.00 Build 0)  -->
<!DOCTYPE svg PUBLIC "-//W3C//DTD SVG 1.1//EN" "http://www.w3.org/Graphics/SVG/1.1/DTD/svg11.dtd">
<svg version="1.1" id="Layer_1" xmlns="http://www.w3.org/2000/svg" xmlns:xlink="http://www.w3.org/1999/xlink" x="0px" y="0px"
	 width="800px" height="600px" viewBox="0 0 800 600" enable-background="new 0 0 800 600" xml:space="preserve">
<path fill-rule="evenodd" clip-rule="evenodd" fill="#D19151" d="M486.437,373.158l0.306-0.107l0.418-1.282
	c0.25-0.765,0.521-1.605,0.655-2.399c0.128-0.758,0.062-1.518-0.242-2.158c0.058-0.179,0.116-0.348,0.163-0.492l0.447-1.371
	l-0.881-1.142c-4.946-6.407-15.557-14.903-22.959-18.26l-1.837-0.834l-1.335,1.513c-1.408,1.595-4.402,3.185-6.266,4.24
	c-2.559,1.449-5.715,3.165-7.669,5.379l-1.841,2.085l2.121,1.8c4.298,3.648,9.985,6.801,14.969,9.432
	c3.699,1.952,7.456,3.792,11.175,5.563c3.291,1.662,9.332,4.454,11.967,0.231c0.279-0.447,0.481-0.929,0.631-1.433
	C486.331,373.681,486.383,373.417,486.437,373.158L486.437,373.158z"/>
<path fill-rule="evenodd" clip-rule="evenodd" fill="#FFCC99" d="M449.282,358.049c3.055-3.461,10.88-6.158,13.935-9.619
	c7.808,3.542,17.948,12.29,21.926,17.443c-1.778,5.451,1.203-0.402-0.575,5.049c-1.733,0.608,1.256,7.286-9.677,1.767
	C466.606,368.742,455.191,363.065,449.282,358.049L449.282,358.049z"/>
<path fill-rule="evenodd" clip-rule="evenodd" fill="#D19151" d="M503.472,327.14c-6.259-2.303-12.519-4.607-18.778-6.91
	l-2.73-1.005l-0.828,2.789c-0.931,3.138-1.642,6.529-2.327,9.73c-1.096,5.125-2.075,10.289-2.902,15.464
	c-0.902,5.648-0.624,13.493,0.852,18.306c1,3.261-2.869,8.5,0.183,10.767c0.843,0.626,1.921,1.061,2.911,1.398
	c1.126,0.384,2.3,0.531,3.485,0.41c9.041-0.921,14.454-17.158,16.676-24.397c1.374-4.476,2.53-9.044,3.498-13.624
	c0.696-3.291,1.355-6.72,1.728-10.065l0.237-2.124L503.472,327.14L503.472,327.14z"/>
<path fill-rule="evenodd" clip-rule="evenodd" fill="#FFCC99" d="M502.53,329.7c-6.259-2.303-12.467-4.587-18.726-6.891
	c-2.842,9.581-7.214,30.665-7.501,40.781c-1.473,4.706-4.325,7.285-2.782,8.43c0.484,0.359,6.311,2.77,7.211,3.076
	C492.889,379.234,501.361,340.201,502.53,329.7L502.53,329.7z"/>
<path fill-rule="evenodd" clip-rule="evenodd" fill="#D19151" d="M502.034,302.222l0.816,9.998l4.352-9.392
	c0.358-0.773,0.655-1.286,1.2-1.925c0.745-0.874,1.287-1.642,1.83-2.666c0.32-0.604,0.435-1.232,0.376-1.817
	c1.595-3.127,3.203-6.246,4.743-9.401c1.562-3.201,3.109-6.481,4.382-9.809c0.782-2.043,1.272-4.228,1.645-6.381
	c0.713-4.115-1.228-8.179-5.331-9.498c-4.236-1.362-8.224,0.99-9.992,4.892c-4.3,9.49-6.174,19.976-9.494,29.83l-0.179,0.532
	l0.046,0.56c0.086,1.063,0.484,2.038,1.202,2.832c0.956,1.058,2.162,1.5,3.474,1.921
	C501.301,301.963,501.742,302.094,502.034,302.222L502.034,302.222z"/>
<path fill-rule="evenodd" clip-rule="evenodd" fill="#FFCC99" d="M499.146,296.924c3.377-10.022,5.28-20.497,9.394-29.575
	c2.914-6.43,11.323-3.751,10.151,3.015c-0.339,1.961-0.799,4.026-1.505,5.872c-2.342,6.12-6.762,14.53-9.545,20.001
	c-0.357,0.703,0.524,0.079,0.182,0.723c-1.282,2.418-1.827,1.985-3.095,4.722C504.479,298.638,499.393,299.966,499.146,296.924
	L499.146,296.924z"/>
<path fill-rule="evenodd" clip-rule="evenodd" fill="#D19151" d="M496.872,331.928c11.645,3.45,22.437-8.39,23.868-24.919
	c0.502-0.915,1.899-2.562,2.443-3.231c1.69-2.08,3.409-4.13,5.036-6.262c1.563-2.048,3.108-4.222,4.314-6.501
	c2.368-4.474,0.418-10.025-4.383-11.744c-3.539-1.267-6.975,0.246-9.16,3.143l-0.059,0.079l-0.054,0.083
	c-3.137,4.854-7.063,9.104-10.416,13.814c-2.442-1.44-4.885-2.881-7.327-4.321c1.002-6.365,2.005-12.73,3.007-19.096
	c0.103-0.655,0.246-1.306,0.38-1.955c0.718-3.483,1.011-6.951-2.084-9.437c-2.289-1.838-5.565-2.333-8.281-1.2
	c-5.328,2.221-5.297,10.065-6.492,14.828c-1.486,5.924-3.413,11.627-4.57,17.642c-0.62-0.773-0.938-1.568-1.325-2.528
	c-0.776-1.924-1.536-3.349-3.066-4.812c-2.153-2.058-5.041-3.298-8.031-3.313c-2.689-0.014-5.521,1.024-6.957,3.427
	c-1.608,2.691-0.733,5.718,0.984,8.103l0.05,0.069l0.054,0.066c2.442,2.977,5.211,5.67,7.64,8.651
	c0.433,0.532,2.079,2.464,2.234,3.137c0.076,0.329,0.055,0.845,0.052,1.182c-0.01,1.084-0.016,2.15,0.03,3.235
	c0.377,8.984,3.874,17.965,14.843,20.707c4.62,2.084,1.695,4.888,3.372,5.798c0.766,0.416,0.355,1.426,1.206,1.217
	c1.89-0.464,2.627-2.165,3.277-3.782C497.496,333.913,496.819,332.062,496.872,331.928L496.872,331.928z"/>
<path fill-rule="evenodd" clip-rule="evenodd" fill="#FFCC99" d="M492.599,340.118c-0.521-0.088-2.71-9.229-3.203-9.362
	c-7.608-2.051-11.506-11.157-11.911-20.801c-0.229-5.454,0.813-4.571-2.927-9.162c-2.397-2.941-5.236-5.72-7.645-8.658
	c-4.75-6.597,4.503-9.816,9.904-4.651c2.706,2.585,2.137,4.975,4.602,7.597c1.892,1.893,3.951,0.771,4.243-1.129
	c1.194-6.526,3.126-12.015,4.647-18.079c1.017-4.055,1.194-11.432,4.896-12.974c1.847-0.771,4.048-0.374,5.523,0.809
	c2.653,2.132,1.211,5.705,0.718,8.841c-1.098,6.976-2.196,13.951-3.295,20.927c4.345,2.562,6.783,4,11.127,6.562
	c3.763-5.822,8.127-10.16,11.89-15.981c4.517-5.989,12.003-0.078,8.954,5.682c-3.383,6.393-11.207,14.161-12.067,16.589
	c-0.709,11.356-7.372,24.789-21.183,25.601C500.84,333.841,494.356,341.056,492.599,340.118L492.599,340.118z"/>
<path fill-rule="evenodd" clip-rule="evenodd" fill="#D19151" d="M490.98,291.578c2.796,4.077,5.593,8.155,8.388,12.232l0.494,0.72
	l0.846,0.016c4.67,0.085,9.34,0.172,14.01,0.257l0.75,0.013l0.522-0.576c0.269-0.297,0.483-0.641,0.628-1.022
	c0.999-2.616-1.547-5.426-3.22-6.979c-2.492-2.312-5.664-4.278-8.712-5.653c-3.786-1.706-8.687-3.059-12.783-1.804l-2.347,0.72
	L490.98,291.578L490.98,291.578z"/>
<path fill-rule="evenodd" clip-rule="evenodd" fill="#FFCC99" d="M489.556,289.502c9.572-2.233,33.536,8.902,26.307,17.481
	c-4.67-0.086-11.402-1.229-16.073-1.313C496.995,301.593,486.881,295.666,489.556,289.502L489.556,289.502z"/>
<path fill="#D19151" d="M488.74,299.46c1.941,1.911,3.631,3.843,4.599,5.891c0.926,1.961,1.192,4.061,0.37,6.404l0,0
	C497.135,307.891,494.035,300.263,488.74,299.46L488.74,299.46L488.74,299.46z"/>
<path fill-rule="evenodd" clip-rule="evenodd" fill="#EDB47C" d="M473.517,369.679c1.451,0.642,2.639,0.664,2.565-1.141
	c-0.043-1.052,0.1-2.092,0.322-3.071c0.049,0.601,0.229,1.197,0.508,1.771c0.564,1.161,1.293,2.733,2.645,3.077
	c6.263,1.596,10.813-6.341,12.526-11.156c2.994-8.415,5.217-18.466,6.194-26.887c0.738,0.052,3.153,0.266,3.875,0.202
	c-1.713,11.009-7.577,35.717-15.951,41.636c-1.721,1.217-3.549,1.64-5.468,0.987c-0.242-0.082-0.839-0.316-1.594-0.622
	c-1.002-0.406-2.28-0.938-3.367-1.406c-0.386-0.167-0.747-0.325-1.064-0.467c-0.36-0.172-0.725-0.346-1.096-0.524
	c-2.641-1.267-8.216-4.1-11.116-5.602c0.419-1.061,1.109-1.486,1.704-3.051c1.334,0.946,4.547,3.235,5.223,3.705
	C470.407,367.815,472.089,369.047,473.517,369.679L473.517,369.679z"/>
<path fill-rule="evenodd" clip-rule="evenodd" d="M350.23,529.648c6.915,2.654,13.829,5.309,20.744,7.964
	c0.126,2.042,0.253,4.084,0.379,6.126c0.571-0.1,1.143-0.2,1.714-0.299c0.371,2.324,0.692,4.812-0.245,7.358
	c-1.233,1.016-2.466,2.034-3.699,3.05c-2.951,2.433-2.597,3.348-5.684,1.833c-0.488-0.24-0.976-0.479-1.464-0.719
	c-1.715,6.68-8.203,10.876-16.026,12.469c-3.348,0.682-5.73,0.605-9.061,0.34c-5.744-0.457-10.543-1.315-13.668-5.221
	c-0.382-3.369,0.484-5.237,2.086-5.615c-0.836-5.434,3.747-7.301,9.086-8.606c4.43-1.083,4.004-0.312,7.537-4.202
	C345.709,539.961,349.148,535.572,350.23,529.648L350.23,529.648z"/>
<path fill-rule="evenodd" clip-rule="evenodd" fill="#1A1A1A" d="M340.258,537.214c-0.725-4.616-1.259-9.301-1.757-13.949
	c-0.698-6.508-1.294-13.032-1.838-19.556c-1.348-16.173-2.381-32.401-3.119-48.616c-0.764-16.782-1.265-33.722-0.953-50.521
	l0.09-4.832l4.491,1.254c9.32,2.603,17.978,3.794,27.564,4.352c5.041,0.294,12.095,0.218,16.139,3.756
	c3.499,3.061,4.295,7.962,4.528,12.453c0.169,3.263,0.053,6.594-0.124,9.855c-0.247,4.542-0.641,9.086-1.059,13.613l-8.541,92.558
	l-1.431,0.997c-9.385,6.537-21.797,6.023-31.847,1.493l-1.823-0.821L340.258,537.214L340.258,537.214z"/>
<path fill-rule="evenodd" clip-rule="evenodd" fill="#252525" d="M336.228,404.645c-0.807,43.539,4.351,111.141,7.62,131.96
	c10.296,4.641,21.015,3.961,28.375-1.165l8.376-90.776C385.161,395.227,378.65,416.493,336.228,404.645L336.228,404.645z"/>
<path fill-rule="evenodd" clip-rule="evenodd" fill="#4D4D4D" d="M328.656,558.779c0.638-3.689,2.6-5.913,9.112-8.638
	C331.467,550.469,326.265,553.614,328.656,558.779L328.656,558.779z"/>
<path fill-rule="evenodd" clip-rule="evenodd" d="M415.156,529.648c-6.915,2.654-13.829,5.309-20.744,7.964
	c-0.127,2.042-0.253,4.084-0.379,6.126c-0.571-0.1-1.143-0.2-1.714-0.299c-0.371,2.324-0.692,4.812,0.245,7.358
	c1.233,1.016,2.466,2.034,3.699,3.05c2.951,2.433,2.597,3.348,5.684,1.833c0.488-0.24,0.976-0.479,1.464-0.719
	c1.715,6.68,8.203,10.876,16.026,12.469c3.349,0.682,5.73,0.605,9.061,0.34c5.744-0.457,10.543-1.315,13.668-5.221
	c0.382-3.369-0.484-5.237-2.086-5.615c0.836-5.434-3.747-7.301-9.086-8.606c-4.43-1.083-4.004-0.312-7.536-4.202
	C419.676,539.961,416.237,535.572,415.156,529.648L415.156,529.648z"/>
<path fill-rule="evenodd" clip-rule="evenodd" fill="#1A1A1A" d="M428.435,409.854c0.276,14.871,0.155,29.778-0.169,44.648
	c-0.353,16.202-0.95,32.431-1.91,48.607c-0.391,6.584-0.842,13.172-1.428,19.74c-0.427,4.779-0.904,9.627-1.648,14.365l-0.32,2.037
	l-1.823,0.821c-10.05,4.53-22.462,5.044-31.847-1.493l-1.431-0.997l-8.541-92.558c-0.404-4.375-0.807-8.756-1.116-13.139
	c-0.216-3.059-0.404-6.174-0.367-9.242c0.048-4.014,0.441-8.806,3.772-11.446c2.023-1.603,4.503-1.938,6.97-1.969
	c2.719-0.033,5.507,0.224,8.232,0.324c9.378,0.346,17.962-0.739,27.046-3.276l4.491-1.254L428.435,409.854L428.435,409.854z"/>
<path fill-rule="evenodd" clip-rule="evenodd" fill="#252525" d="M424.798,409.927c0.807,43.539-1.839,105.859-5.108,126.679
	c-10.297,4.641-21.015,3.961-28.375-1.165l-8.376-90.776C378.377,395.227,382.376,421.774,424.798,409.927L424.798,409.927z"/>
<path fill-rule="evenodd" clip-rule="evenodd" fill="#1A1A1A" d="M381.884,432.113c-14.281,0.335-22.924,4.831-22.773,11.764
	c0.151,6.933,9.037,13.676,23.319,13.341c14.281-0.335,23.012-7.344,22.861-14.276C405.14,436.009,396.165,431.778,381.884,432.113
	L381.884,432.113z"/>
<path fill-rule="evenodd" clip-rule="evenodd" fill="#262525" d="M381.544,429.555c-12.474,0.292-29.071,9.42-28.962,14.474
	c0.11,5.054,17.393,11.111,29.867,10.819c12.474-0.293,31.484-6.315,31.375-11.369C413.714,438.425,394.017,429.263,381.544,429.555
	L381.544,429.555z"/>
<path fill-rule="evenodd" clip-rule="evenodd" fill="#4D4D4D" d="M438.318,558.105c-0.638-3.689-2.6-5.913-9.112-8.639
	C435.507,549.795,440.709,552.94,438.318,558.105L438.318,558.105z"/>
<path fill-rule="evenodd" clip-rule="evenodd" fill="#1E1E1E" d="M398.842,535.618c-6.859-24.471-6.461-55.867-7.621-79.571
	c-2.164,0.561-4.549,0.942-7.13,1.101l7.224,78.293c1.003,0.698,2.067,1.314,3.185,1.845c1.686,0.801,3.492,1.409,5.385,1.817
	C399.519,537.958,399.172,536.796,398.842,535.618L398.842,535.618z"/>
<path fill-rule="evenodd" clip-rule="evenodd" fill="#1E1E1E" d="M373.56,456.428c-0.534,17.058-2.86,54.362-10.749,78.466
	c-0.525,1.603-1.074,3.147-1.649,4.623c2.807-0.335,5.465-1.086,7.877-2.232c1.117-0.531,2.182-1.147,3.185-1.845l7.221-78.257
	C377.341,457.083,375.376,456.823,373.56,456.428L373.56,456.428z"/>
<path fill-rule="evenodd" clip-rule="evenodd" fill="#B3B3B3" d="M399.62,355.93c-7.891-2.423-14.769-7.126-16.075-15.91
	c-0.413-2.775-0.205-5.611,0.36-8.348c0.785-3.805,2.252-7.476,3.931-10.967c0.625-1.301,1.287-2.579,1.942-3.864
	c0.216-0.422,0.578-1.077,0.788-1.595l-0.509-2.834l3.42,0.163c4.902,0.233,10.302,1.309,15.093,2.357
	c6.714,1.469,13.406,3.296,19.942,5.419c4.737,1.539,9.445,3.254,14.019,5.229l0.185,0.08l0.172,0.107
	c6.161,3.823,12.189,7.918,17.965,12.302c4.2,3.188,8.433,6.616,12.208,10.304l1.144,1.117l-0.416,1.544
	c-2.492,9.26-16.176,27.853-23.915,33.555l-1.038,0.765l-1.25-0.317c-3.745-0.948-7.576-2.483-11.112-4.028
	c-4.471-1.953-8.867-4.155-13.135-6.517C417.075,371.026,403.505,362.989,399.62,355.93L399.62,355.93z"/>
<path fill-rule="evenodd" clip-rule="evenodd" fill="#FFFFFF" d="M393.347,315.3c9.195,0.438,31.556,5.64,48.102,12.784
	c13.447,8.344,23.994,16.662,29.705,22.24c-2.297,8.534-15.586,26.679-22.899,32.068c-12.973-3.285-43.259-19.617-46.695-28.738
	C372.091,345.554,393.763,317.619,393.347,315.3L393.347,315.3z"/>
<polygon fill-rule="evenodd" clip-rule="evenodd" fill="#FFCC99" points="406.136,310.326 359.701,312.127 364.638,360.459 
	391.41,372.221 408.933,348.492 406.136,310.326 "/>
<path fill-rule="evenodd" clip-rule="evenodd" fill="#1A1A1A" d="M433.513,352.94c-0.078-0.339-0.027-1.114-0.005-1.434l0.024-0.347
	l-0.049-0.344c-0.792-5.52-2.045-11.06-4.08-16.262l-0.403-1.03l-0.945-0.575c-6.819-4.147-16.427-6.309-24.085-3.483l-1.878,0.693
	l-0.239,1.988c-3.123,26.027-33.068,25.026-35.18-1.242l-0.236-2.937l-2.945-0.073c-8.426-0.21-13.664,1.756-21.059,5.29
	l-1.336,0.638l-0.403,1.425c-2.827,10.011-4.479,20.53-5.73,30.846l-0.015,0.12l-0.005,0.121
	c-0.272,5.802-0.349,11.617-0.324,17.426c0.033,7.862,0.257,15.721,0.504,23.579c0.213,6.788,0.466,13.59,0.513,20.381l0.023,3.288
	l3.288-0.038c29.076-0.332,58.08,1.523,87.157,1.19l2.926-0.033l0.294-2.911c1.387-13.735,2.855-27.44,3.955-41.205
	c0.776-9.708,1.438-19.523,1.56-29.262c0.028-2.227-0.133-3.807-1.281-5.735C433.543,352.992,433.527,352.966,433.513,352.94
	L433.513,352.94z"/>
<path fill-rule="evenodd" clip-rule="evenodd" fill="#E6E6E6" d="M338.91,427.698c31.33-0.358,55.827,1.548,87.157,1.19
	c1.596-15.802,5.224-48.317,5.498-70.178c0.065-5.177-1.644-2.785-1.323-7.43c-0.799-5.575-2.045-10.822-3.888-15.534
	c-6.272-3.814-14.793-6.939-21.219-4.568c-1.892,31.199-39.293,30.219-41.725-0.011c-8.181-0.204-13.007,1.837-19.566,4.971
	c-2.594,9.183-4.324,19.58-5.63,30.35C337.226,387.58,338.796,411.391,338.91,427.698L338.91,427.698z"/>
<path fill-rule="evenodd" clip-rule="evenodd" fill="#D19151" d="M309.657,359.067c0.068-0.032,0.131-0.062,0.188-0.089
	c0.814-0.378,1.617-0.774,2.44-1.132c2.411-1.049,5.14-1.849,7.713-0.844c1.49,0.582,2.632,1.668,3.387,3.067
	c1.616,2.995,0.336,8.903-0.313,12.099c-1.193,5.873-2.717,11.728-4.124,17.556c-0.453,1.877-1.106,4.303-1.09,6.249
	c0.006,0.783,0.102,1.581,0.193,2.358c0.168,1.43,0.342,2.855,0.483,4.289c0.574,5.821,0.766,11.756,0.827,17.603
	c0.067,6.37-0.034,12.789-0.381,19.15l-0.122,2.244l-2.061,0.895c-2.129,0.925-4.241,2.951-5.823,4.617
	c-2.007,2.112-3.809,4.395-5.783,6.53c-1.952,2.111-4.539,4.592-7.699,3.836c-0.626-0.15-1.212-0.422-1.734-0.798
	c-1.52-1.098-2.054-3.171-2.442-4.909c-0.407-1.822,0.006,2.495-0.211,0.641c-0.277-2.368-1.287-11.736-1.019-14.142
	c0.053-3.384,0.271-6.824,0.497-10.199c0.347-5.182,0.795-10.367,1.372-15.528c0.609-5.442,1.347-10.989,2.497-16.344
	c1.119-5.206,1.976-10.491,3.016-15.719c1.181-5.939,2.808-14.001,5.655-19.325l2.313-4.326L309.657,359.067L309.657,359.067z"/>
<path fill-rule="evenodd" clip-rule="evenodd" fill="#FFCC99" d="M308.333,362.887c1.501,1.503,9.294-5.832,11.853-1.09
	c1.419,2.63-1.632,14.073-4.771,27.074c-1.795,7.433-1.218,6.797-0.498,14.106c1.05,10.664,0.987,26.03,0.434,36.199
	c-7.808,3.39-14.409,16.777-17.46,14.573c-1.208-0.872-2.604-11.844-2.168-15.218c0.082-5.963,1.412-28.158,4.289-41.55
	C302.075,387.371,304.386,370.267,308.333,362.887L308.333,362.887z"/>
<path fill-rule="evenodd" clip-rule="evenodd" fill="#EDB47C" d="M316.086,386.102c-1.603-0.232-2.715-1.193-4.328-1.517
	c-2.948-0.592-6.009-2.525-8.714-3.408c-0.121,0.629-0.607,3.127-0.725,3.751c3.789,1.243,6.713,2.981,8.016,6.316
	c4.582,11.734,2.13,35.242,2.281,48.982c0.186,0.052,0.371,0.104,0.557,0.154c0.054-0.036,0.108-0.07,0.163-0.104
	c0.662-0.431,1.334-0.803,2.015-1.099c0.553-10.169,0.616-25.535-0.434-36.199c-0.72-7.308-1.297-6.672,0.498-14.106
	C315.639,387.939,315.863,387.015,316.086,386.102L316.086,386.102z"/>
<path fill-rule="evenodd" clip-rule="evenodd" fill="#B3B3B3" d="M366.326,315.549c0.255,0.392,0.601,0.834,0.82,1.129
	c0.776,1.043,1.574,2.07,2.355,3.108c2.128,2.831,4.171,5.745,5.876,8.855c7.053,12.869,4.214,22.85-10.098,27.279
	c-3.604,6.979-15.117,15.471-20.898,19.711c-5.919,4.34-12.012,8.428-17.933,12.752l-1.059,0.774l-1.266-0.344
	c-4.447-1.21-8.867-2.24-13.23-3.766c-5.382-1.883-10.328-4.36-14.927-7.748l-1.098-0.809l-0.012-1.363
	c-0.026-2.934,0.742-6.429,1.431-9.276c0.961-3.964,2.161-7.907,3.471-11.769c1.107-3.267,2.311-6.513,3.635-9.698
	c1.085-2.609,2.274-5.281,3.668-7.74c2.997-5.285,9.174-8.43,14.573-10.72c5.625-2.387,11.43-4.454,17.248-6.319
	c7.861-2.52,15.982-4.769,24.069-6.438l3.949-0.815L366.326,315.549L366.326,315.549z"/>
<path fill-rule="evenodd" clip-rule="evenodd" fill="#FFFFFF" d="M363.503,315.839c-11.8,2.435-28.326,7.302-40.803,12.597
	c-4.752,2.016-10.628,4.903-13.266,9.555c-4.801,8.466-11.917,29.69-11.851,37.113c9.596,7.07,19.212,8.89,27.256,11.078
	c11.515-8.409,35.038-23.407,38.473-32.527C392.781,345.554,363.086,318.158,363.503,315.839L363.503,315.839z"/>
<path fill-rule="evenodd" clip-rule="evenodd" fill="#240F05" d="M337.115,419.524l-0.265-0.004l0.034-2.182l1.091,0.017
	c4.737,0.074,9.497,0.245,14.235,0.369c10.059,0.264,20.119,0.53,30.178,0.795c14.804,0.391,29.609,0.781,44.413,1.175l0.659,0.017
	l0.291,0.591c0.851,1.727,0.106,6.357-0.139,8.293c-0.159,1.257,0.198-1.986,0.096-0.723c-0.176,2.163,0.056,5.507,0.58,7.969
	c-6.258,1.234-14.683,2.459-21.04,2.939c-7.17,0.541-14.378,0.776-21.567,0.814c-9.461,0.05-18.958-0.238-28.398-0.877
	c-7.395-0.501-15.642-1.15-22.947-2.42c0.5-2.811,0.664-9.879,1.25-12.735C335.806,422.48,337.056,421.284,337.115,419.524
	L337.115,419.524z"/>
<path fill-rule="evenodd" clip-rule="evenodd" fill="#402314" d="M426.772,420.785c1.065,2.162-1.185,11.088-0.683,14.499
	c-26.172,5.16-71.02,3.368-90.933-0.092c0,0,4.045-16.727,2.802-16.746C339.201,418.465,426.772,420.785,426.772,420.785
	L426.772,420.785z"/>
<polygon fill-rule="evenodd" clip-rule="evenodd" fill="#262525" points="403.957,426.399 400.385,424.38 400.012,442.418 
	403.773,442.213 403.957,426.399 "/>
<polygon fill-rule="evenodd" clip-rule="evenodd" fill="#262525" points="358.551,424.265 361.903,424.304 361.581,442.042 
	358.002,441.851 358.551,424.265 "/>
<path fill-rule="evenodd" clip-rule="evenodd" fill="#FCE3B0" d="M371.855,427.449h18.641v13.595h-18.641V427.449L371.855,427.449z
	 M374.315,433.767h0.959c0.252,0,0.459,0.206,0.459,0.459v0.542c0,0.252-0.206,0.459-0.459,0.459h-0.959v3.723
	c0,0.395,0.323,0.718,0.719,0.718h11.574c0.395,0,0.718-0.323,0.718-0.718v-9.248c0-0.395-0.323-0.718-0.718-0.718h-11.574
	c-0.395,0-0.719,0.323-0.719,0.718V433.767L374.315,433.767z"/>
<path fill-rule="evenodd" clip-rule="evenodd" fill="#B3B3B3" d="M434.659,420.097c3.062-22.636,6.759-47.467,4.579-59.158
	c0.496-5.542-5.888-18.139-5.844-23.704c0.029-3.676-4.61,3.623-6.351,0.374c-4.288-7.999-11.57-4.415-19.872-6.992
	c-10.504-3.26-10.172-15.831-21.12-16.575c-1.759-0.119-3.598-0.212-5.496-0.271v121.05c0.66-0.009,1.32-0.015,1.981-0.017
	c10.118-0.03,20.194,1.23,30.327,1.021c3.477-0.072,6.872,0.094,10.335,0.132c2.424,0.027,5.009-0.046,7.029-1.575
	c1.827-1.383,2.594-3.474,3.088-5.628C433.953,425.97,434.276,422.933,434.659,420.097L434.659,420.097z"/>
<path fill-rule="evenodd" clip-rule="evenodd" fill="#FFFFFF" d="M431.415,419.658c2.549-18.846,8.536-53.063,8.708-74.947
	c0.153-19.406-25.589-25.452-54.295-27.403c-1.758-0.12-3.518-0.208-5.274-0.266v114.504c0.65-0.008,1.307-0.014,1.971-0.016
	c9.973-0.029,20.228,1.228,30.269,1.021C430.101,432.194,429.214,435.932,431.415,419.658L431.415,419.658z"/>
<path fill-rule="evenodd" clip-rule="evenodd" fill="#CCCCCC" d="M321.111,370.922c-2.063,5.196-4.083,9.209-8.526,11.822
	c2.395,1.648,8.715,2.481,10.79,3.046c1.466-1.071-0.845-0.604-1.185-1.36c-0.116-0.93-0.355-2.828-0.476-3.766
	C321.24,377.004,321.065,373.783,321.111,370.922L321.111,370.922z"/>
<path fill-rule="evenodd" clip-rule="evenodd" fill="#B3B3B3" d="M326.451,420.097c-1.816-13.424-2.998-25.99-4.737-39.433
	c-3.277-25.337,7.719-29.614,7.646-38.953c-0.029-3.676,1.611,5.367,3.352,2.118c4.288-7.999,6.218-6.687,14.52-9.264
	c10.504-3.26,21.194,8.958,32.142,8.214c1.758-0.119-5.45-4.457-3.552-4.516l5.046,96.553c-0.66-0.009-1.633-0.011-2.293-0.013
	c-10.118-0.03-20.194,1.23-30.327,1.021c-3.477-0.072-6.872,0.094-10.335,0.132c-2.424,0.027-5.009-0.046-7.029-1.575
	c-1.827-1.383-2.594-3.474-3.088-5.628C327.157,425.97,326.834,422.933,326.451,420.097L326.451,420.097z"/>
<path fill-rule="evenodd" clip-rule="evenodd" fill="#FFFFFF" d="M329.695,419.658c-2.549-18.846-8.536-53.063-8.708-74.947
	c-0.153-19.406,25.589-25.452,54.295-27.403c1.758-0.119,5.882,0.156,7.637,0.098l-1.535,114.13c-0.65-0.008-2.136-0.005-2.8-0.007
	c-9.973-0.029-20.228,1.228-30.269,1.021C331.009,432.194,331.896,435.932,329.695,419.658L329.695,419.658z"/>
<path fill="#B3B3B3" d="M393.106,363.911c11.988,2.188,23.667,1.056,35.333-2.088l0,0
	C421.258,366.098,404.825,369.805,393.106,363.911L393.106,363.911z"/>
<path fill="#B3B3B3" d="M428.994,366.089l0.648,17.683c-0.092,1.089-0.143,1.972-0.186,2.705c-0.117,2.02-0.176,3.043-0.811,3.921
	c-0.652,0.903-1.635,1.277-3.624,2.034c-0.616,0.234-1.345,0.512-2.29,0.894l-1.27,0.515c-5.485,2.228-8.044,3.268-11.056,2.851
	c-2.577-0.356-5.224-1.776-10.183-4.437c-1.432-0.768-3.064-1.644-4.991-2.652l0.989-1.895c1.881,0.984,3.547,1.878,5.008,2.662
	c4.738,2.542,7.266,3.898,9.467,4.203c2.453,0.339,4.844-0.632,9.967-2.713l1.27-0.515c0.861-0.349,1.659-0.652,2.332-0.908
	c1.59-0.605,2.375-0.904,2.651-1.285c0.27-0.375,0.318-1.189,0.411-2.796c0.044-0.756,0.097-1.667,0.189-2.755L428.994,366.089
	L428.994,366.089L428.994,366.089z"/>
<path fill="#B3B3B3" d="M381.49,395.062c-0.255,3.731,0.187,8.951,0.656,14.494c0.379,4.48,0.776,9.168,0.851,13.594
	c0.061,3.606-0.092,7.001-0.632,9.927c-0.385,1.399-4.019-0.882-9.418-0.746l-1.48,0.584c3.392-0.086,6.98,3.659,7.838-0.28
	c0.577-2.651,0.734-5.909,0.674-9.414c-0.072-4.224-0.464-8.861-0.839-13.291c-0.486-5.74-0.943-11.145-0.668-15.173L381.49,395.062
	L381.49,395.062z"/>
<polygon fill-rule="evenodd" clip-rule="evenodd" fill="#FFCC99" points="400.186,304.09 359.646,304.09 359.646,327.232 
	380.594,323.071 400.186,327.232 400.186,304.09 "/>
<path fill-rule="evenodd" clip-rule="evenodd" fill="#CCCCCC" d="M393.166,353.228c-0.09-0.294-0.18-0.588-0.27-0.882
	c-0.05-0.165-0.101-0.33-0.151-0.496c-0.289-0.949-0.585-1.83-0.861-2.659c-0.01-0.028-0.019-0.057-0.028-0.085
	c-0.981-2.954-1.689-5.252-0.882-7.646c3.952-11.72,13.524,7.207,15.827,5.379c-1.06-1.033-13.701-12.763-14.811-13.748
	c-0.305,0.429-0.596,0.863-0.872,1.283c-1.486,2.269-2.813,4.698-4.048,7.123c0.111,0.706,0.227,1.412,0.347,2.116
	c0.354,2.086,0.741,4.166,1.154,6.241c0.044,0.223,0.089,0.447,0.134,0.67c0.209,1.037,0.425,2.073,0.646,3.108
	c1.161,5.444,2.464,10.86,3.763,16.278c1.464,6.103,2.924,12.207,4.169,18.355c1.452,0.766,2.764,1.47,3.944,2.103
	c0.836,0.448-7.434-4.142-6.726-3.766c-0.897-4.93-2.251-18.989-5.725-20.148c-1.167-0.391,1.633-2.698,2.625-2.752
	c1.17,0.214,4.041,0.602,5.206,0.753C395.476,360.714,394.312,356.971,393.166,353.228L393.166,353.228z"/>
<path fill-rule="evenodd" clip-rule="evenodd" fill="#7E0000" d="M387.071,341.499c3.025,19.147,9.092,37.692,12.027,56.873
	l0.089,0.583l-0.159,0.567c-2.118,7.545-10.179,19.851-16.269,24.804l-1.721,1.4l-1.721-1.4c-6.09-4.954-14.151-17.26-16.269-24.804
	l-0.159-0.567l0.089-0.583c2.935-19.181,9.002-37.726,12.027-56.873c-1.235-2.425-2.562-4.854-4.048-7.123
	c-0.795-1.213-1.718-2.528-2.744-3.561c-0.272-0.274-0.688-0.669-1.043-0.843c-0.819-0.401-1.317-0.477-1.852-1.449
	c-0.808-1.467-0.044-2.648,0.436-3.987l0.636-1.774l1.884-0.032c3.906-0.067,8.021-0.747,11.888-1.311l0.393-0.057l0.393,0.057
	c4.153,0.605,8.659,1.239,12.852,1.311l1.884,0.032l0.636,1.774c0.481,1.339,1.244,2.52,0.436,3.987
	c-0.535,0.972-1.033,1.048-1.852,1.449c-0.355,0.174-0.771,0.569-1.043,0.843c-1.026,1.033-1.949,2.348-2.744,3.561
	C389.632,336.646,388.306,339.074,387.071,341.499L387.071,341.499z"/>
<path fill-rule="evenodd" clip-rule="evenodd" fill="#BA0000" d="M381.037,422.21c-6.024-4.9-13.545-16.945-15.364-23.425
	c2.955-19.312,9.206-38.422,12.161-57.734c-9.82-19.553-11.245-10.767-9.513-15.593c3.466-0.059,7.432-0.639,12.234-1.339
	c4.802,0.699,9.733,1.279,13.199,1.339c1.732,4.826,0.306-3.96-9.513,15.593c2.955,19.312,9.206,38.422,12.161,57.734
	C394.582,405.265,387.061,417.31,381.037,422.21L381.037,422.21z"/>
<path fill-rule="evenodd" clip-rule="evenodd" fill="#B3B3B3" d="M360.966,308.849c2.932,3.005,5.986,5.981,9.572,8.203
	c2.21,1.369,4.607,2.498,6.952,3.616l4.569,2.176l-3.857,3.275c-6.959,5.908-13.674,11.032-18.855,18.686l-2.832,4.184l-2.661-4.295
	c-1.957-3.159-2.955-6.581-3.096-10.286c-0.159-4.176,0.779-8.29,1.883-12.289c1.011-3.662,2.321-7.557,2.728-11.333l0.744-6.909
	L360.966,308.849L360.966,308.849z"/>
<path fill-rule="evenodd" clip-rule="evenodd" fill="#FFFFFF" d="M358.623,311.135c-1.095,10.167-8.438,21.423-1.988,31.834
	c5.402-7.98,11.581-12.668,19.447-19.347C368.827,320.167,365.939,318.633,358.623,311.135L358.623,311.135z"/>
<path fill-rule="evenodd" clip-rule="evenodd" fill="#B3B3B3" d="M406.617,310.784c0.407,3.776,1.717,7.672,2.728,11.333
	c2.158,7.816,3.309,15.277-1.212,22.575l-2.661,4.295l-2.832-4.184c-5.181-7.654-11.895-12.778-18.855-18.686l-3.857-3.275
	l4.569-2.176c2.345-1.117,4.742-2.246,6.952-3.616c3.586-2.222,6.64-5.198,9.572-8.203l4.853-4.973L406.617,310.784L406.617,310.784
	z"/>
<path fill-rule="evenodd" clip-rule="evenodd" fill="#FFFFFF" d="M403.362,311.135c1.095,10.167,8.438,21.423,1.988,31.834
	c-5.401-7.98-11.581-12.668-19.447-19.347C393.157,320.167,396.045,318.633,403.362,311.135L403.362,311.135z"/>
<path fill-rule="evenodd" clip-rule="evenodd" fill="#CCCCCC" d="M454.23,376.714c-7.152-0.188-10.611-1.988-14.357-4.791
	c-0.047,2.318-0.17,4.803-0.354,7.419c3.32,1.38,6.326,2.44,8.735,3.05C449.987,381.116,452.053,379.124,454.23,376.714
	L454.23,376.714z"/>
<path fill-rule="evenodd" clip-rule="evenodd" fill="#EDB47C" d="M384.561,313.14c1.201,2.839-2.539,8.322-5.46,8.201
	c-0.02,0.022-0.039,0.044-0.059,0.066l1.512,0.72l0.437,0.208l1.716-0.818l0.072-0.034l1.714-0.816
	c2.322-1.106,4.694-2.223,6.885-3.574c0.022-0.014,0.045-0.028,0.067-0.041c1.432-0.888,5.348-3.703,6.637-4.785
	c-4.106,0.872-8.236,0.331-12.435,0.398C385.603,312.76,384.609,313.045,384.561,313.14L384.561,313.14z"/>
<path fill-rule="evenodd" clip-rule="evenodd" fill="#4F2D0C" d="M413.761,140.029c5.744-19.545,1.94-48.639,7.684-68.184
	c43.223,3.962,87.809,48.374,29.364,134.743C434.152,192.061,430.418,154.556,413.761,140.029L413.761,140.029z"/>
<path fill-rule="evenodd" clip-rule="evenodd" fill="#4F2D0C" d="M329.193,140.029c-5.744-19.545-11.488-39.091-17.232-58.636
	c-43.223,3.962-77.309,52.897-6.134,125.626C322.485,192.493,312.535,154.556,329.193,140.029L329.193,140.029z"/>
<path fill-rule="evenodd" clip-rule="evenodd" fill="#D19151" d="M447.861,242.973c0.144-11.998,0.288-23.995,0.432-35.992
	l0.007-0.583l0.208-0.545c2.728-7.147,6.883-15.077,12.956-19.954c4.293-3.448,9.727-5.369,15.143-3.546
	c5.552,1.869,8.985,6.962,10.458,12.413c1.913,7.083,0.771,14.888-1.69,21.688c-2.531,6.996-4.701,14.116-7.253,21.104
	c-1.939,5.309-5.108,10.684-10.87,12.383c-5.989,1.766-12.562-1.195-17.712-4.069l-1.702-0.95L447.861,242.973L447.861,242.973z"/>
<path fill-rule="evenodd" clip-rule="evenodd" fill="#FFCC99" d="M451.134,243.012c0.144-11.997,0.288-23.995,0.432-35.992
	c14.579-38.187,41.419-21.222,30.73,8.32c-2.593,7.167-4.754,14.263-7.25,21.094C470.132,249.888,461.981,249.065,451.134,243.012
	L451.134,243.012z"/>
<path fill="#D19151" d="M459.351,229.201c4.166-0.946,6.067-2.288,6.609-4.057c0.575-1.876-0.167-4.494-1.35-7.711
	c-4.51-8.87-3.359-16.893-0.119-21.866c1.43-2.196,3.282-3.821,5.263-4.699c2.104-0.932,4.347-1.038,6.42-0.127
	c3.125,1.372,4.811,5.027,3.666,12.134l0,0c-0.742-5.466-2.657-8.383-4.881-9.36c-1.254-0.551-2.647-0.471-3.98,0.12
	c-1.457,0.645-2.847,1.884-3.953,3.582c-2.745,4.214-3.663,11.122,0.315,18.902l0.07,0.166c1.412,3.823,2.28,7.018,1.445,9.742
	c-0.873,2.85-3.434,4.9-8.837,6.126L459.351,229.201L459.351,229.201z"/>
<path fill-rule="evenodd" clip-rule="evenodd" fill="#EDB47C" d="M474.643,193.405c-0.159-0.09-0.32-0.169-0.483-0.238
	c-1.261-0.534-2.652-0.436-3.978,0.173c-1.448,0.665-2.821,1.922-3.904,3.635c-2.688,4.25-3.513,11.17,0.569,18.896l0.072,0.165
	c1.463,3.804,2.374,6.986,1.576,9.721c-0.651,2.231-2.334,3.989-5.596,5.271C472.918,233.226,482.386,212.857,474.643,193.405
	L474.643,193.405z"/>
<path fill-rule="evenodd" clip-rule="evenodd" fill="#D19151" d="M309.533,242.973c-0.144-11.998-0.288-23.995-0.432-35.992
	l-0.007-0.583l-0.208-0.545c-2.729-7.147-6.883-15.077-12.956-19.954c-4.293-3.448-9.728-5.369-15.143-3.546
	c-5.552,1.869-8.985,6.962-10.457,12.413c-1.913,7.083-0.771,14.888,1.69,21.688c2.531,6.996,4.701,14.116,7.253,21.104
	c1.939,5.309,5.108,10.684,10.87,12.383c5.989,1.766,12.562-1.195,17.712-4.069l1.701-0.95L309.533,242.973L309.533,242.973z"/>
<path fill-rule="evenodd" clip-rule="evenodd" fill="#FFCC99" d="M306.259,243.012c-0.144-11.997-0.288-23.995-0.432-35.992
	c-14.579-38.187-41.419-21.222-30.73,8.32c2.593,7.167,4.754,14.263,7.249,21.094C287.261,249.888,295.413,249.065,306.259,243.012
	L306.259,243.012z"/>
<path fill="#D19151" d="M298.042,229.201c-4.166-0.946-6.067-2.288-6.609-4.057c-0.575-1.876,0.167-4.494,1.35-7.711
	c4.51-8.87,3.359-16.893,0.119-21.866c-1.43-2.196-3.282-3.821-5.263-4.699c-2.104-0.932-4.347-1.038-6.42-0.127
	c-3.125,1.372-4.811,5.027-3.666,12.134l0,0c0.741-5.466,2.657-8.383,4.881-9.36c1.254-0.551,2.647-0.471,3.98,0.12
	c1.457,0.645,2.847,1.884,3.953,3.582c2.745,4.214,3.663,11.122-0.315,18.902l-0.07,0.166c-1.412,3.823-2.28,7.018-1.445,9.742
	c0.873,2.85,3.434,4.9,8.837,6.126L298.042,229.201L298.042,229.201z"/>
<path fill-rule="evenodd" clip-rule="evenodd" fill="#EDB47C" d="M282.75,193.405c0.159-0.09,0.321-0.169,0.483-0.238
	c1.261-0.534,2.652-0.436,3.978,0.173c1.448,0.665,2.821,1.922,3.904,3.635c2.688,4.25,3.513,11.17-0.569,18.896l-0.072,0.165
	c-1.463,3.804-2.374,6.986-1.576,9.721c0.651,2.231,2.334,3.989,5.596,5.271C284.476,233.226,275.007,212.857,282.75,193.405
	L282.75,193.405z"/>
<path fill-rule="evenodd" clip-rule="evenodd" fill="#D19151" d="M297.996,174.693c-3.483-29.029,16.81-38.645,39.723-57.432
	c15.201-12.464,15.038-32.196,34.572-33.486c13.43-0.887,27.085,0.911,39.715,5.614c16.229,6.043,29.953,16.572,39.588,31.011
	c11.593,17.372,8.549,34.84,8.227,55.485c1.309,7.716-0.415,14.008,0.077,21.964c1.28,20.706,2.659,31.553-4.025,51.056
	c-31.641,92.326-122.848,91.397-154.844-0.252C289.03,214.284,303.386,199.232,297.996,174.693L297.996,174.693z"/>
<path fill-rule="evenodd" clip-rule="evenodd" fill="#FFCC99" d="M463.823,179.243c0.394-25.272-2.031-47.776-12.731-62.435
	c-45.216-61.945-169.227-29.784-158.009,62.435C295.909,358.055,461.01,359.49,463.823,179.243L463.823,179.243z"/>
<path fill-rule="evenodd" clip-rule="evenodd" fill="#704214" d="M280.116,126.173c0.204,4.892,0.977,10.889,5.116,7.752
	c3.749-2.84,11.787-13.594,10.732-22.394c-0.856-7.141-1.824-2.425-4.948,6.06c-7.767,21.1-7.252,4.962-7.887-3.422
	c-0.345-4.545-2.569-8.158-7.448,1.693c-4.282,8.646-3.79,21.216-0.227,15.439C276.865,129.011,279.506,111.581,280.116,126.173
	L280.116,126.173z"/>
<path fill-rule="evenodd" clip-rule="evenodd" fill="#472B0E" d="M350.822,186.753c-3.034,0.02-5.466,4.193-5.431,9.319
	c0.034,5.127,2.522,9.266,5.556,9.246c3.034-0.02,5.466-4.193,5.431-9.319C356.344,190.872,353.856,186.733,350.822,186.753
	L350.822,186.753z"/>
<path fill-rule="evenodd" clip-rule="evenodd" fill="#472B0E" d="M405.237,186.78c-3.034,0.02-5.466,4.193-5.431,9.319
	c0.035,5.127,2.522,9.266,5.556,9.246c3.034-0.02,5.466-4.193,5.431-9.319C410.758,190.899,408.271,186.76,405.237,186.78
	L405.237,186.78z"/>
<path fill-rule="evenodd" clip-rule="evenodd" fill="#FFFFFF" d="M404.016,188.339c-1.412,0.009-2.544,1.952-2.528,4.338
	c0.016,2.387,1.174,4.314,2.587,4.304c1.412-0.009,2.544-1.952,2.528-4.338C406.586,190.257,405.428,188.33,404.016,188.339
	L404.016,188.339z"/>
<path fill-rule="evenodd" clip-rule="evenodd" fill="#FFFFFF" d="M349.751,196.553c-1.389,0.009-2.529-1.886-2.544-4.234
	c-0.016-2.348,1.098-4.258,2.487-4.268c1.389-0.009,2.529,1.886,2.544,4.234C352.254,194.633,351.141,196.544,349.751,196.553
	L349.751,196.553z"/>
<path fill-rule="evenodd" clip-rule="evenodd" fill="#D19151" d="M378.396,212.678c-5.967,0.04-10.74,3.752-10.703,9.353
	c0.038,5.601,6.635,10.677,11.407,10.475c4.772-0.202,10.328-4.93,10.29-10.53C389.354,216.374,384.363,212.638,378.396,212.678
	L378.396,212.678z"/>
<path fill-rule="evenodd" clip-rule="evenodd" fill="#FFCC99" d="M379.283,209.354c-4.159,0.028-12.949,5.549-12.924,9.341
	c0.076,11.295,20.275,15.962,24.055,1.776C390.388,216.678,383.442,209.326,379.283,209.354L379.283,209.354z"/>
<path fill-rule="evenodd" clip-rule="evenodd" fill="#472B0E" d="M412.313,247.045c-20.348,5.893-45.521,6.806-68.56,1.973
	C354.903,283.725,401.701,285.699,412.313,247.045L412.313,247.045z"/>
<path fill="#D19151" d="M392.798,283.044c-4.664,3.483-9.336,5.129-13.816,5.155c-4.67,0.026-9.169-1.715-13.263-4.975l0,0
	C373.21,295.289,386.256,293.234,392.798,283.044L392.798,283.044L392.798,283.044z"/>
<path fill-rule="evenodd" clip-rule="evenodd" fill="#CF6C6C" d="M364.254,270.625c2.612-3.776,9.037-6.382,15.024-3.593
	c4.866-3.15,11.658-1.123,14.332,2.837C383.071,274.775,372.071,274.639,364.254,270.625L364.254,270.625z"/>
<path fill-rule="evenodd" clip-rule="evenodd" fill="#FFFFFF" d="M398.39,256.837c-12.566,3.099-29.827,3.831-41.906,0.934
	c-2.32-1.316-3.298-3.512-3.517-5.98c17.181,2.49,35.511,2.151,49.447-1.158C402.26,252.504,401.151,255.73,398.39,256.837
	L398.39,256.837z"/>
<path fill-rule="evenodd" clip-rule="evenodd" fill="#4F2D0C" d="M401.762,169.959c7.119-0.048,16.51,5.555,14.59,9.223
	c-1.919,3.668-7.437-4.269-14.557-4.221c-7.119,0.048-8.65,6.896-11.225,4.395C387.996,176.854,394.643,170.007,401.762,169.959
	L401.762,169.959z"/>
<path fill-rule="evenodd" clip-rule="evenodd" fill="#4F2D0C" d="M350.492,169.928c-7.119,0.048-16.433,5.777-14.465,9.418
	c1.969,3.641,7.379-4.369,14.498-4.417c7.119-0.048,8.742,6.778,11.283,4.243C364.349,176.637,357.612,169.88,350.492,169.928
	L350.492,169.928z"/>
<path fill-rule="evenodd" clip-rule="evenodd" fill="#EDB47C" d="M391.473,284.889c-2.197,11.902-16.821,15.982-23.515,1.356
	C375.058,294.23,385.303,292.583,391.473,284.889L391.473,284.889z"/>
<path fill-rule="evenodd" clip-rule="evenodd" fill="#F7D6B4" d="M378.747,224.955c-2.51,0.086-4.432-0.211-4.401,0.71
	c0.032,0.921,2.099,2.31,4.608,2.223c2.509-0.086,4.511-1.614,4.479-2.535C383.403,224.432,381.256,224.869,378.747,224.955
	L378.747,224.955z"/>
<path fill-rule="evenodd" clip-rule="evenodd" fill="#F7D6B4" d="M379.872,284.065c-3.609,0.082-6.571-0.719-6.55,0.203
	c0.021,0.922,2.962,2.331,6.571,2.249c3.609-0.082,6.518-1.625,6.497-2.546C386.368,283.048,383.48,283.983,379.872,284.065
	L379.872,284.065z"/>
<path fill-rule="evenodd" clip-rule="evenodd" fill="#D88888" d="M372.549,269.675c-2.49,0.326-4.338,0.934-4.457,0.02
	c-0.12-0.914,1.692-2.622,4.182-2.948c2.49-0.326,4.714,0.853,4.834,1.767C377.228,269.428,375.039,269.349,372.549,269.675
	L372.549,269.675z"/>
<path fill-rule="evenodd" clip-rule="evenodd" fill="#CCCCCC" d="M402.415,250.635c-0.916,0.218-1.851,0.422-2.803,0.614
	c-0.407,1.17-1.129,2.307-2.039,3.387c-4.209,2.631-17.285,3.616-29.032,4.801c9.996,0.577,21.071-0.433,29.851-2.599
	C401.152,255.732,402.261,252.505,402.415,250.635L402.415,250.635z"/>
<path fill-rule="evenodd" clip-rule="evenodd" fill="#4F2D0C" d="M307.859,106.633c-1.27-2.036-2.305-4.031-3.143-5.986
	c-1.095,1.568-2.199,2.984-3.316,4.122c-7.488-8.756-17.159-18.535-33.651-13.189c8.495-10.449,23.758-15.004,35.142-8.864
	c-1.095-14.277,2.066-19.06,12.638-26.53c-1.31,3.758-1.622,7.279-1.492,10.694c17.005-13.473,49.926-19.39,83.843-13.812
	c45.777,7.529,83.133,30.176,80.906,77.972c-37.702,24.149-144.773,16.523-170.961-24.393L307.859,106.633L307.859,106.633z"/>
<path fill-rule="evenodd" clip-rule="evenodd" fill="#704214" d="M433.633,107.786c-2.728-0.737-5.264-0.346-7.51,1.758
	c-17.523,16.404-49.031-37.328-38.972-7.436c3.295,9.792-5.452,7.049-14.097,3.77c-2.579-0.978-5.148-2.004-7.387-2.759
	c-11.868-4.005-5.695,0.471-2.058,3.985c10.216,9.868-15.02,3.191-26.415-0.109c-8.118-2.35-7.72-6.551-0.291-5.317
	c2.921,0.486,9.562,2.157,12.151,1.335c3.255-1.033,0.603-5.854-2.045-8.008c-0.45-0.366-0.934-0.731-1.434-1.088
	c-0.892-0.638-1.836-1.25-2.731-1.804c-0.963-0.595-1.869-1.122-2.596-1.538c-0.339-0.194-0.639-0.364-0.887-0.505
	c-0.455-0.259-0.735-0.421-0.763-0.461c-0.235-0.333-0.444-0.644-0.629-0.936c-0.044-0.071-0.087-0.14-0.129-0.208
	c-0.487-0.796-0.78-1.435-0.904-1.937c-0.44-1.779,1.249-1.826,3.988-0.971c0.69,0.216,1.447,0.489,2.253,0.805
	c0.578,0.227,1.18,0.476,1.802,0.744c0.874,0.375,1.786,0.786,2.717,1.218c6.663,3.089,14.35,7.276,16.634,7.615
	c15.971,2.377-7.123-39.013,27.92-12.277c50.189,38.291,7.363-8.398,30.253,2.637c3.483,1.679,8.074,4.548,13.142,7.966
	c2.877,1.941,5.352,5.563,7.083,9.319c3.274,7.104,4.803,12.986-3.858,6.704c-1.256-0.911-1.015-0.685-2.35-1.362
	c-0.692-0.352-1.376-0.649-2.048-0.882C434.19,107.948,433.91,107.861,433.633,107.786L433.633,107.786z"/>
<path fill="#4F2D0C" d="M321.397,99.196c5.516,26.569,35.312,48.234,63.959,51.844l0,0c-28.187,8.437-72.482-14.41-80.235-44.115
	L321.397,99.196L321.397,99.196z"/>
<path fill-rule="evenodd" clip-rule="evenodd" fill="#EDB47C" d="M459.23,139.325c-4.236,1.188-8.767,2.181-13.522,2.977
	c-8.602,1.441-17.934,2.241-27.572,2.394c-25.638,0.408-53.44-3.756-75.414-12.571c12.029,10.054,27.492,17.007,42.634,18.915
	c-2.515,0.753-5.159,1.257-7.893,1.528c10.201,1.323,19.417,1.335,25.804,0.544c-11.897-2.728-19.02-2.274-25.688-8.184
	c11.551,3.851,26.895,5.075,43.264,3.608c34.493-3.09,31.567,9.615,33.139,46.083c-0.008,1.703-0.046,3.36-0.114,4.965
	c-0.032,0.758-0.067,1.517-0.106,2.275c-0.005,0.096-0.01,0.192-0.015,0.288c-0.411,7.868-1.19,15.72-2.405,23.443
	c-0.907,5.766-2.057,11.461-3.478,17.037c-5.898,23.14-16.469,44.245-33.734,59.987c15.855-10.7,29.711-29.022,38.741-55.006
	c0.359-1.032,0.71-2.076,1.053-3.132c2.916-8.973,5.27-18.818,6.953-29.536c0.333-2.12,0.639-4.274,0.919-6.462
	c0.399-3.123,0.743-6.316,1.029-9.578c0.299-3.412,0.536-6.901,0.707-10.466c0.051-1.059,0.096-2.125,0.135-3.198
	c0.011-0.308,0.022-0.616,0.032-0.925c0.055-1.673,0.096-3.363,0.123-5.068c0.229-14.705-0.496-28.474-3.25-40.304
	C460.128,139.07,459.681,139.198,459.23,139.325L459.23,139.325z"/>
<path fill-rule="evenodd" clip-rule="evenodd" fill="#EDB47C" d="M385.848,221.422c0.206,1.122,3.495,1.519,3.544,0.553
	c-0.146-4.852-4.352-16.794-6.613-21.525C384.27,208.102,385.802,214.199,385.848,221.422L385.848,221.422z"/>
<path fill="#7E0000" d="M385.905,347.07c-1.377-6.215-8.33-9.102-10.394,1.918l-0.828-4.2c1.35-9.239,10.599-7.643,11.933-3.289
	c0.758,1.534,0.41,3.954,1.117,5.686C386.736,347.696,386.546,347.5,385.905,347.07L385.905,347.07z"/>
<path fill-rule="evenodd" clip-rule="evenodd" fill="#CCCCCC" d="M400.223,392.257c-0.744-0.399-1.541-0.827-2.406-1.288
	c0.47,2.459,0.902,4.926,1.281,7.403l0.089,0.583l-0.159,0.567c-1.522,5.423-6.116,13.307-10.84,19.151
	c-0.295,0.364-0.59,0.721-0.884,1.068c-1.051,1.239-2.1,2.363-3.114,3.323c1.566-1.004,3.097-2.105,4.581-3.285
	c0.435-0.346,0.866-0.698,1.293-1.057c5.622-4.727,10.49-10.54,13.892-16.333c2.162-3.681-1.334-5.036,2.53-3.699
	c7.472,2.588,12.556-1.059,20.525-7.06c-0.524,0.245-1.171,0.491-1.987,0.801c-0.616,0.234-1.345,0.512-2.29,0.894l-1.27,0.515
	c-5.485,2.228-8.044,3.268-11.056,2.851c-1.833-0.254-3.701-1.045-6.411-2.438C402.894,393.69,401.655,393.025,400.223,392.257
	L400.223,392.257z"/>
<path fill-rule="evenodd" clip-rule="evenodd" fill="#9C0505" d="M380.555,332.491l2.143,1.315l0.787,0.482l2.602,1.596l0.678,0.416
	c1.219-2.15,2.268-3.774,3.163-5.003c-0.842-0.721-1.693-1.438-2.552-2.159c-0.747-0.627-1.5-1.256-2.256-1.892
	c-0.444-0.373-0.889-0.749-1.335-1.128l-0.971-0.825l-1.205-1.023c-0.351-0.05-0.702-0.1-1.052-0.151l-2.354,1.999
	c-0.966,0.82-1.926,1.624-2.879,2.423c-0.17,0.143-0.34,0.285-0.51,0.427l1.095,0.672L380.555,332.491L380.555,332.491z"/>
<path fill-rule="evenodd" clip-rule="evenodd" fill="#9C0505" d="M382.33,361.146l5.38-2.32c-0.356-1.571-0.704-3.144-1.04-4.716
	c-0.189-0.884-0.374-1.768-0.554-2.653l-3.677,1.586l-1.729,0.746l-0.155,0.067l-3.833,1.653l-1.789,0.772
	c-0.581,2.637-1.19,5.272-1.813,7.906c-0.082,0.346-0.164,0.692-0.246,1.038l1.316-0.568l2.943-1.269l3.421-1.476L382.33,361.146
	L382.33,361.146z"/>
<path fill-rule="evenodd" clip-rule="evenodd" fill="#9C0505" d="M377.822,376.555l-8.498,3.665
	c-0.676,2.96-1.324,5.921-1.921,8.885l10.831-4.671l2.321-1.001l1.485-0.64l10.282-4.434c-0.495-2.134-1.003-4.268-1.513-6.402
	c-0.072-0.303-0.145-0.606-0.217-0.909l-0.934,0.403l-7.509,3.238l-1.593,0.687L377.822,376.555L377.822,376.555z"/>
<path fill-rule="evenodd" clip-rule="evenodd" fill="#9C0505" d="M378.4,396.355l-11.777,5.133c0.827,2.021,1.986,4.314,3.344,6.65
	l8.723-3.762l0.572-0.246l1.292-0.557l1.083-0.467l0.129-0.056l14.33-6.18c-0.417-2.543-0.888-5.082-1.397-7.619l-12.823,5.589
	l-0.487,0.212l-0.835,0.364l-1.708,0.745L378.4,396.355L378.4,396.355z"/>
<path fill-rule="evenodd" clip-rule="evenodd" fill="#4D4D4D" d="M323.655,543.63c0.638-3.55,2.6-5.69,9.112-8.313
	C326.466,535.633,321.263,538.659,323.655,543.63L323.655,543.63z"/>
<polygon fill-rule="evenodd" clip-rule="evenodd" fill="#261706" points="346.157,473.627 345.873,484.496 343.03,506.324 
	318.935,515.406 317.743,484.525 325.956,472.483 346.157,473.627 "/>
<polygon fill-rule="evenodd" clip-rule="evenodd" fill="#261706" points="344.293,475.342 344.058,484.354 341.368,505.007 
	320.655,512.814 319.584,485.054 326.879,474.357 344.293,475.342 "/>
<path fill-rule="evenodd" clip-rule="evenodd" fill="#261706" d="M333.442,479.084c0.578,2.165,0.993,4.411,1.358,6.621
	c0.471,2.858,0.85,5.735,1.186,8.612c0.8,6.851,1.36,13.753,1.784,20.638c0.34,5.506,0.588,11.022,0.717,16.537
	c0.108,4.636,0.147,9.308-0.031,13.942l-0.065,1.706l-1.706,0.042c-2.116,0.053-4.594-0.378-6.672-0.767
	c-3.278-0.614-6.547-1.407-9.771-2.255c-8.333-2.193-16.641-4.857-24.734-7.81c-4.931-1.799-9.827-3.731-14.627-5.855
	c-2.346-1.038-4.796-2.013-7.086-3.159c-1.63-0.816-3.204-1.767-4.313-3.25c-1.096-1.465-1.547-3.188-1.801-4.971
	c-0.355-2.491-0.397-5.172-0.475-7.688c-0.127-4.127-0.016-8.282,0.241-12.402c0.343-5.484,0.946-11.025,1.886-16.44l0.302-1.739
	l1.748,0.25c5.134,0.735,10.222,0.802,15.385,0.373c4.817-0.401,9.569-1.214,14.327-2.035c4.866-0.84,9.719-1.666,14.644-2.076
	c5.436-0.453,10.797-0.377,16.203,0.397l1.189,0.17L333.442,479.084L333.442,479.084z"/>
<path fill-rule="evenodd" clip-rule="evenodd" fill="#613D17" d="M331.685,479.553c-22.513-3.225-38.046,6.567-60.559,3.342
	c-1.455,8.375-2.384,19.311-2.102,28.475c0.41,13.274,0.731,12.214,12.593,17.462c20.289,8.977,47.761,16.714,55.023,16.533
	C337.315,527.766,334.976,491.887,331.685,479.553L331.685,479.553z"/>
<path fill-rule="evenodd" clip-rule="evenodd" fill="#472B0E" d="M331.685,479.553c-22.513-3.225-34.909,6.938-57.422,3.713
	c-1.455,8.375-4.043,18.826-3.761,27.989c0.409,13.274-0.746,12.328,11.115,17.576c20.289,8.977,47.761,16.714,55.023,16.533
	C337.315,527.766,334.976,491.887,331.685,479.553L331.685,479.553z"/>
<path fill-rule="evenodd" clip-rule="evenodd" fill="#261706" d="M336.73,547.198c-2.7,0.456-4.697-1.025-5.817-3.475
	c-1.862-4.072-1.824-10.808-1.699-15.232c0.198-6.987,0.899-14.025,1.52-20.988c0.395-4.428,0.783-8.861,1.043-13.299
	c0.226-3.855,0.375-7.781,0.2-11.641l-0.015-0.321l0.096-0.307c0.678-2.156,4.768-3.772,6.737-4.331
	c1.047-0.297,2.144-0.509,3.233-0.558c1.192-0.054,2.379,0.175,3.189,1.13c1.034,1.218,0.833,2.979,0.835,4.467
	c0.012,7.87,0.461,15.784,0.72,23.653c0.146,4.446,0.254,8.898,0.225,13.347c-0.027,3.998-0.153,8.044-0.579,12.021
	c-0.503,4.689-1.712,13.011-6.742,15.081C338.735,547.133,337.736,547.271,336.73,547.198L336.73,547.198z"/>
<path fill-rule="evenodd" clip-rule="evenodd" fill="#382006" d="M336.639,545.364c-1.894,0.411-3.204-0.496-4.073-2.397
	c-4.47-9.774,2.06-42.088,1.226-60.485c0.372-1.183,4.804-3.46,8.317-3.618c2.412-0.109,2.121,1.328,2.124,3.783
	C344.27,505.699,349.095,546.761,336.639,545.364L336.639,545.364z"/>
<path fill-rule="evenodd" clip-rule="evenodd" fill="#261706" d="M268.792,464.988c0.595-0.748,1.471-1.104,2.299-1.526
	c2.474-1.26,5.865-2.329,8.591-2.474c2.425-0.202,5.7,0.54,8.076,1.077c3.48,0.787,6.932,1.697,10.416,2.474
	c2.461,0.548,4.955,1.047,7.457,1.361c1.933,0.243,3.868,0.47,5.804,0.687c7.687,0.862,15.414,1.522,23.085,2.482
	c2.528,0.316,5.216,0.656,7.692,1.257c1.697,0.412,4.502,1.274,3.955,3.602l-0.307,1.307l-1.339,0.091
	c-2.422,0.165-5,0.643-7.315,1.378c-0.584,0.186-2.263,0.724-2.568,1.347c-0.186,0.381-0.177,1.186-0.176,1.599
	c0.004,1.314,0.04,2.58-0.043,3.898c-0.29,4.59-0.754,9.196-1.75,13.693c-0.183,0.827-0.479,1.621-0.886,2.365
	c-2.663,4.871-9.282,6.448-14.367,6.928c-7.016,0.663-14.751-0.301-21.576-1.962c-6.77-1.647-14.047-4.324-19.843-8.245
	c-4.68-3.166-9.313-7.847-9.421-13.87c-0.071-4.014,0.305-8.302,0.941-12.269c0.156-0.972,0.262-1.949,0.416-2.92
	C268.062,466.45,268.242,465.633,268.792,464.988L268.792,464.988z"/>
<path fill-rule="evenodd" clip-rule="evenodd" fill="#472B0E" d="M270.195,466.146c0.309-0.412,1.018-0.705,1.721-1.063
	c2.161-1.101,5.36-2.145,7.916-2.282c4.662-0.387,16.176,3.722,25.571,4.904c18.455,2.321,39.543,3.468,38.993,5.807
	c-2.647,0.18-5.466,0.737-7.741,1.459c-5.215,1.655-3.712,3.095-4.052,8.463c-0.283,4.466-0.736,9.016-1.71,13.415
	c-3.707,16.744-62.148,5.239-62.499-14.424c-0.065-3.66,0.304-8.116,0.918-11.949C269.721,467.929,269.721,466.667,270.195,466.146
	L270.195,466.146L270.195,466.146z"/>
<path fill-rule="evenodd" clip-rule="evenodd" fill="#382006" d="M317.416,506.533c-4.176,0.395-8.606,0.213-12.948-0.349
	c0.001,0.087,0.003,0.175,0.004,0.263c0.008,0.642-17.245-2.363-17.52-1.821c0.247,2.615,13.653,6.163,15.835,5.906
	c1.305-0.154,1.882-0.773,2.415-1.362c1.456-1.607,2.613-0.972,4.693-0.708c3.336,0.423,7.962,1.162,8.824,1.394
	c0.68,0.183,1.293,0.4,1.845,0.652c0.898,0.41,1.636,0.91,2.243,1.497c0.465,0.449,0.854,0.949,1.18,1.498
	c2.142,3.609,1.562,9.329,2.095,16.633c0.123,1.687,0.116,3.131-0.011,4.358c-0.118,1.146-0.34,2.104-0.657,2.896
	c-0.495,1.238-1.222,2.074-2.145,2.595c-0.86,0.485-1.891,0.697-3.065,0.707c-5.736,0.049-14.892-4.729-24.239-6.11
	c8.207,3,16.561,5.626,23.665,7.535c1.31,0.352,2.577,0.68,3.793,0.981c0.108,0.027,0.215,0.053,0.322,0.079
	c2.947,0.724,5.584,1.289,7.783,1.664c-0.228-0.343-0.434-0.717-0.616-1.116c-0.862-1.884-1.316-4.338-1.544-6.869
	c-0.031-0.351-0.059-0.703-0.082-1.056c-0.048-0.729-0.08-1.46-0.099-2.179c-0.049-1.846-0.017-3.621,0.026-5.127
	c0.164-5.792,0.674-11.62,1.197-17.411c0.061-0.671,0.121-1.342,0.182-2.012c0.047-0.522,0.094-1.044,0.14-1.565
	c0.213-2.392,0.424-4.786,0.615-7.181c-2.325,3.461-6.785,5.074-10.951,5.811c-0.612,0.108-1.218,0.198-1.81,0.271
	C318.19,506.454,317.799,506.497,317.416,506.533L317.416,506.533z"/>
<path fill-rule="evenodd" clip-rule="evenodd" fill="#B87B02" d="M291.201,497.123c3.291,0.765,6.578,1.544,9.872,2.292
	c1.059,0.24,2.303,0.326,3.004,1.277c0.701,0.951,0.412,2.211,0.377,3.314c-0.026,0.823,0.007,1.622,0.017,2.441
	c0.012,0.93-0.079,1.824-0.838,2.481c-1.18,1.022-2.897,0.375-4.219,0.024c-3.184-0.846-6.368-1.693-9.553-2.539
	c-1.133-0.301-2.324-0.67-2.91-1.788c-0.594-1.131-0.162-2.717-0.118-3.969c0.042-1.206-0.213-2.655,0.857-3.506
	C288.75,496.309,290.053,496.856,291.201,497.123L291.201,497.123z"/>
<path fill-rule="evenodd" clip-rule="evenodd" fill="#CC9933" d="M290.789,498.894c3.296,0.766,6.607,1.551,9.882,2.294
	c2.513,0.57,2.05,0.118,1.966,2.76c-0.127,4.024,0.784,4.187-2.755,3.247c-3.184-0.846-6.368-1.693-9.553-2.539
	c-2.593-0.689-1.782-0.97-1.678-3.936C288.744,498.059,288.259,498.306,290.789,498.894L290.789,498.894z"/>
<path fill-rule="evenodd" clip-rule="evenodd" fill="#33200B" d="M289.986,468.129c-0.707,0.534-3.394,2.374-4.361,2.766
	c1.397,0.33,10.686,3.114,12.092,3.408C297.096,473.524,290.43,469.035,289.986,468.129L289.986,468.129z"/>
<path fill-rule="evenodd" clip-rule="evenodd" fill="#33200B" d="M270.195,466.146L270.195,466.146L270.195,466.146z
	 M285.275,463.392c-2.232-0.447-4.115-0.702-5.442-0.591c-2.556,0.137-5.756,1.182-7.916,2.282c-0.703,0.358-1.412,0.651-1.72,1.063
	c-0.035,0.038-0.066,0.079-0.096,0.125c4.282,1.568,9.402,3.146,13.81,4.289c-0.825-1.482-0.391-3.965,0.287-5.275
	C284.526,464.648,284.891,464.017,285.275,463.392L285.275,463.392z"/>
<path fill-rule="evenodd" clip-rule="evenodd" fill="#261706" d="M306.464,460.019c-1.966,0.251-3.932,0.502-5.899,0.753
	c-3.478,2.62-6.955,5.241-10.432,7.861c-1.473,1.11-4.381,3.4-6.223,1.927c-1.673-1.337-0.479-3.794,0.287-5.275
	c1.115-2.155,2.629-4.25,3.998-6.258c1.188-1.743,2.509-3.65,3.403-5.56l0.435-0.929l1.02-0.108
	c7.718-0.822,15.437-1.644,23.155-2.466l0.976-0.104l0.622,0.759c4.166,5.08,8.882,9.726,13.289,14.599
	c0.771,0.852,1.612,1.636,2.378,2.486c0.789,0.876,1.49,1.864,1.511,3.093c0.037,2.124-1.966,3.495-3.598,4.443
	c-2.101,1.221-4.597,2.339-7.042,1.48c-2.201-0.772-4.054-3.242-5.692-4.863C314.627,467.873,310.5,463.993,306.464,460.019
	L306.464,460.019z"/>
<path fill-rule="evenodd" clip-rule="evenodd" fill="#472B0E" d="M293.245,454.238c8.184-0.871,14.971-1.594,23.155-2.466
	c4.044,4.931,8.923,9.774,13.346,14.665c3.036,3.358,5.528,4.44,0.726,7.23c-5.765,3.35-6.661,0.738-10.541-3.103
	c-4.219-4.177-8.6-8.286-12.819-12.462c-2.419,0.309-4.837,0.617-7.256,0.926c-3.922,2.955-6.895,5.196-10.817,8.151
	c-2.949,2.222-5.639,3.604-3.227-1.06C287.598,462.668,291.523,457.916,293.245,454.238L293.245,454.238z"/>
<path fill-rule="evenodd" clip-rule="evenodd" fill="#D19151" d="M315.284,468.563c1.141,1.17,2.878,2.617,5.066,5.087
	c-0.485,1.486-1.941,2.67-3.446,3.224c-1.277,0.47-2.714,0.714-4.071,0.776c-1.889,0.086-3.785-0.179-5.494-0.863l-0.731,0.328
	c-1.454,0.653-3.047,0.901-4.628,0.667c-2.02-0.298-4.543-2.381-5.442-4.322c-7.708,0.102-11.07-12.824-9.305-20.84
	c1.177-5.344,6.386-12.727,12.946-10.817c2.787-1.683,3.048,5.222,6.243,4.865c3.959-0.442,2.565-6.837,6.393-6.08
	c5.402-3.956,13.565,1.452,15.684,6.375c1.486,3.454,2.142,8.31,0.435,11.802l-1.103,2.924c-1.01-1.074-3.1-3.466-4.749-4.087
	C315.755,454.84,314.051,467.371,315.284,468.563L315.284,468.563z"/>
<path fill-rule="evenodd" clip-rule="evenodd" fill="#FFCC99" d="M316.316,441.147c9.234,1.826,11.231,12.178,9.352,16.021
	c-0.766-0.687-1.706-1.223-2.724-1.606c-4.924-1.854-6.115-0.501-8.257,3.734c-0.951,1.88-1.758,3.992-2.143,5.746
	c-0.556,2.536-0.271,2.426,1.315,4.238c0.741,0.846,1.42,1.612,2.062,2.317c1.845,2.025-0.634,2.205-2.796,2.389
	c-2.415,0.205-5.429-0.298-7.159-2.634c-2.143-2.895-3.295-5.835-2.258-10.86c-2.931,3.297-2.157,10.637,1.409,13.305
	c-5.599,2.515-10.837-6.345-9.165-14.547c-2.085,3.764-2.59,7.83-0.295,12.047c-4.831-0.607-9.279-18.479,0.12-26.792
	C293.921,431.818,306.276,439.162,316.316,441.147L316.316,441.147z"/>
<path fill-rule="evenodd" clip-rule="evenodd" fill="#33200B" d="M334.244,472.952c-0.504,0.675-1.207,1.238-1.924,1.712
	c-0.314,0.208-0.63,0.399-0.934,0.575c-0.008,0.005-0.016,0.01-0.024,0.014c-0.72,0.417-1.486,0.822-2.28,1.139
	c0.79,0.03,1.58,0.058,2.37,0.083c0.691,0.022,1.381,0.042,2.071,0.06c0.35-0.348,0.838-0.661,1.514-0.964
	c0.451-0.202,0.985-0.4,1.62-0.602c0.054-0.017,0.108-0.034,0.162-0.051c2.211-0.686,4.91-1.215,7.46-1.399
	c0.04-0.003,0.079-0.006,0.119-0.008c0.237-1.009-3.55-1.796-9.415-2.551c-0.012,0.365-0.084,0.707-0.204,1.029
	C334.65,472.334,334.466,472.654,334.244,472.952L334.244,472.952z"/>
<path fill-rule="evenodd" clip-rule="evenodd" fill="#33200B" d="M323.123,476.112c-0.993-0.636-1.913-1.55-2.773-2.462
	c-0.276,0.845-0.866,1.593-1.6,2.182C320.207,475.936,321.665,476.03,323.123,476.112L323.123,476.112z"/>
<path fill-rule="evenodd" clip-rule="evenodd" fill="#33200B" d="M286.738,501.765c-3.811-1.45-7.506-3.251-10.741-5.439
	c-2.163-1.464-4.317-3.251-6.018-5.345c-0.013,0.111-0.025,0.222-0.038,0.333c4.201,4.37,10.05,8.341,16.71,11.424
	C286.668,502.414,286.703,502.086,286.738,501.765L286.738,501.765z"/>
<path fill-rule="evenodd" clip-rule="evenodd" fill="#33200B" d="M315.061,464.998c3.918-4.314,12.046-1.4,14.12,3.446
	c0.258,0.604,0.423,1.237,0.473,1.891c0.059,0.759-0.036,1.544-0.315,2.34c-0.206,0.586-0.511,1.178-0.929,1.769
	c-0.085,0.12-0.174,0.24-0.268,0.36c0.253-0.093,0.517-0.203,0.795-0.33c0.471-0.216,0.981-0.483,1.536-0.806
	c0.27-0.157,0.516-0.308,0.741-0.455c0.21-0.137,0.402-0.27,0.575-0.4c1.04-0.778,1.427-1.429,1.373-2.078
	c-0.052-0.623-0.51-1.244-1.186-1.974c-0.337-0.364-0.729-0.755-1.152-1.187c-0.342-0.35-0.706-0.726-1.077-1.137
	c-2.79-3.085-5.761-6.15-8.59-9.231C317.403,457.139,315.561,461.623,315.061,464.998L315.061,464.998z"/>
<path fill-rule="evenodd" clip-rule="evenodd" fill="#613D17" d="M269.091,484.032c1.943-13.877,1.296-14.316,19.824-10.641
	C268.955,467.683,270.197,465.125,269.091,484.032L269.091,484.032z"/>
</svg>
