<?xml version="1.0" encoding="UTF-8"?>
<!DOCTYPE svg PUBLIC "-//W3C//DTD SVG 1.1//EN" "http://www.w3.org/Graphics/SVG/1.1/DTD/svg11.dtd">
<!-- Creator: CorelDRAW X6 -->
<svg xmlns="http://www.w3.org/2000/svg" xml:space="preserve" width="6.79345in" height="9.28039in" version="1.1" style="shape-rendering:geometricPrecision; text-rendering:geometricPrecision; image-rendering:optimizeQuality; fill-rule:evenodd; clip-rule:evenodd"
viewBox="0 0 525 717"
 xmlns:xlink="http://www.w3.org/1999/xlink">
 <defs>
  <style type="text/css">
   <![CDATA[
    .str0 {stroke:black;stroke-width:0.608523}
    .fil9 {fill:#F08519}
    .fil17 {fill:#F0F0F0}
    .fil6 {fill:#FEFEFE}
    .fil3 {fill:black}
    .fil8 {fill:#1B191C}
    .fil15 {fill:#252326}
    .fil13 {fill:#42362A}
    .fil2 {fill:#4D4D4D}
    .fil0 {fill:#6666CC}
    .fil16 {fill:#7F1B1B}
    .fil10 {fill:#B48772}
    .fil1 {fill:#CCCCCC}
    .fil5 {fill:#CF2B2A}
    .fil12 {fill:#DBB48D}
    .fil11 {fill:#EFD0B3}
    .fil4 {fill:#F1CCAF}
    .fil7 {fill:#FE0505}
    .fil14 {fill:white}
   ]]>
  </style>
 </defs>
 <rect class="fil0" x="-3849" y="-1879" width="904" height="1278"/>
 <rect class="fil1" transform="matrix(0.00666777 0.672687 -0.999951 0.00991167 265.696 640.169)" width="35" height="120" rx="12" ry="12"/>
 <rect class="fil1" x="190" y="538" width="24" height="120" rx="12" ry="12"/>
 <path class="fil2" d="M111 528l184 0 0 17c0,9 -8,17 -17,17l-150 0c-9,0 -17,-8 -17,-17l0 -17z"/>
 <ellipse class="fil3" cx="203" cy="528" rx="92" ry="17"/>
 <path class="fil4" d="M0 399c3,-40 171,-131 182,-114l5 21c-63,28 -112,46 -154,78 -1,2 -3,5 -4,9 -2,5 0,18 -3,18 -3,0 -5,-4 -5,-7 0,-3 0,-7 0,-7 -11,5 -8,9 -9,20 -1,16 -14,-10 -11,-19z"/>
 <path class="fil4" d="M472 311c-23,-29 -214,-37 -213,-29l4 22c69,0 121,-5 173,7 2,1 5,3 7,6 3,4 8,17 11,15 3,-1 3,-5 2,-8 -1,-3 -3,-6 -3,-6 12,0 11,5 16,15 7,14 8,-15 3,-22z"/>
 <path class="fil4" d="M204 555l49 75 -5 41 -24 -21c0,0 -36,-59 -47,-71 -11,-12 -11,-8 -11,-8l38 -16z"/>
 <path class="fil5" d="M253 702c-10,-16 -19,-34 -30,-52 10,-7 20,-15 28,-22 1,2 2,3 3,5 13,23 24,47 27,52l-27 17z"/>
 <path class="fil3" d="M255 717c1,3 68,-34 64,-41 -13,-23 -39,-7 -50,5 -4,4 -6,10 -11,10 -4,0 -10,-3 -12,-1 -1,2 9,27 9,27z"/>
 <path class="fil4" d="M278 528l57 70 -1 41 -26 -18c0,0 -42,-55 -54,-66 -12,-11 -11,-7 -11,-7l36 -20z"/>
 <path class="fil5" d="M343 669c-11,-15 -23,-31 -35,-48 9,-8 18,-17 25,-25 1,2 2,3 3,4 15,21 29,44 32,49l-25 20z"/>
 <path class="fil3" d="M345 684c1,3 64,-40 59,-47 -15,-21 -40,-3 -49,10 -3,4 -5,10 -10,11 -4,1 -11,-2 -12,0 -1,2 12,26 12,26z"/>
 <path class="fil6" d="M287 289c0,0 -15,44 -10,99 6,55 35,150 35,150 0,0 -13,15 -33,27 -20,13 -23,-3 -23,-3l-19 -23c0,0 7,26 -10,36 -19,12 -41,23 -46,18 -77,-71 -58,-194 -50,-221 12,-44 58,-101 58,-101l84 4 14 14z"/>
 <path class="fil7" d="M200 281c3,4 24,37 26,37l8 0c2,0 21,-35 23,-39 0,-1 -2,-3 -3,-3 -1,0 -12,0 -24,1l-1 0 0 3 3 0c6,0 10,11 14,10l-15 27 -2 0 -17 -25c4,1 8,-11 13,-11l3 -1 0 -3 -1 0c-11,0 -22,1 -24,1 -1,0 -2,2 -3,3z"/>
 <polygon class="fil8" points="456,371 458,371 460,371 462,371 463,372 465,372 467,372 468,373 469,373 471,373 472,374 473,374 474,374 475,375 476,375 477,376 478,376 479,376 480,377 481,377 481,378 482,378 483,378 484,379 485,379 486,380 487,380 487,380 488,381 488,381 489,382 490,382 490,383 491,383 492,383 492,384 493,384 493,385 494,385 495,386 495,386 496,387 496,387 497,388 498,388 498,389 499,389 499,389 500,390 500,390 501,391 501,392 502,392 502,393 503,393 503,394 504,394 504,395 505,396 506,396 506,397 507,398 507,398 508,399 508,400 509,401 510,401 510,402 511,403 511,404 512,405 512,406 513,407 514,408 514,409 515,410 515,411 516,412 517,414 517,416 518,417 519,419 519,422 519,422 519,423 520,424 521,427 523,445 522,448 522,451 522,453 522,455 521,457 521,458 521,460 520,461 520,462 520,464 519,465 519,466 519,467 518,468 518,469 517,470 517,471 517,472 516,473 516,474 515,474 515,475 515,476 514,477 514,478 513,479 513,480 513,480 512,481 512,481 511,482 511,483 510,483 510,484 510,485 509,485 509,486 508,486 508,487 508,487 507,488 507,488 506,489 506,489 505,490 505,491 504,492 504,492 503,493 503,493 502,494 502,494 501,495 501,495 500,496 500,496 499,497 498,497 498,498 497,499 497,499 496,500 495,500 494,501 494,501 493,502 492,502 491,503 490,504 490,504 489,505 488,505 487,506 486,506 485,507 484,508 483,508 482,509 480,509 479,510 477,511 476,511 474,512 471,513 469,513 466,514 447,516 445,516 442,516 440,515 438,515 436,515 434,515 433,514 431,514 430,514 429,513 428,513 426,512 425,512 424,512 423,511 422,511 421,511 420,510 420,510 419,509 418,509 417,509 416,508 416,508 415,507 414,507 413,507 413,506 412,506 411,505 411,505 410,504 409,504 408,504 408,503 407,503 407,502 406,502 406,501 405,501 405,501 404,500 404,500 403,499 403,499 402,498 402,498 401,498 401,497 400,497 399,496 399,495 398,495 398,494 397,494 397,493 396,493 396,492 395,491 395,491 394,490 393,490 393,489 392,488 392,488 391,487 391,486 390,485 390,485 389,484 388,483 388,482 387,481 387,480 386,479 386,478 385,476 384,476 384,474 383,473 382,471 382,469 381,468 380,465 380,463 379,460 377,442 377,438 377,436 378,434 378,432 378,430 379,428 379,427 379,425 380,424 380,423 380,422 381,421 381,419 381,418 382,417 382,416 383,416 383,415 383,414 384,413 384,412 385,411 385,410 385,410 386,409 386,408 387,407 387,406 387,406 388,405 388,404 389,404 389,403 390,402 390,402 390,401 391,401 391,400 392,400 392,399 393,398 393,398 394,397 394,397 395,396 395,396 396,395 396,394 396,393 398,392 398,392 399,392 400,392 400,390 401,390 401,389 402,389 403,388 403,387 404,387 404,386 405,386 406,385 407,385 408,384 408,384 409,383 410,382 411,382 412,381 413,381 414,380 414,380 415,379 417,378 418,378 419,377 421,376 423,376 424,375 426,374 428,374 430,373 434,372 451,370 "/>
 <path class="fil9" d="M454 448l2 20 1 42 -3 0c-13,1 -41,-4 -42,-15l0 -1c-2,-21 29,-52 27,-76l0 -2 2 0 7 -1 6 34z"/>
 <path class="fil9" d="M503 475l0 2 0 6c-2,2 -5,6 -7,8 -3,3 -5,5 -8,7 -4,3 -16,9 -23,10l-1 -39 -2 -20 -5 -37 9 -1c2,20 36,42 38,63z"/>
 <path class="fil9" d="M430 420l0 2c1,12 -27,48 -27,69 -5,-1 -19,-25 -19,-34l-1 -8c0,-3 5,-10 7,-12 3,-3 7,-6 11,-9 6,-4 19,-11 29,-12 0,1 1,1 1,2z"/>
 <path class="fil9" d="M516 435l1 6 -1 14c-2,3 -2,12 -5,14l-1 -3c-1,-13 -34,-44 -35,-52l0 -3 2 0c6,-1 20,4 24,6 4,2 6,3 9,6 4,3 5,5 5,12z"/>
 <path class="fil9" d="M428 407l0 2c-5,1 -22,7 -25,9 -4,2 -7,4 -10,7 -3,3 -6,6 -8,8 0,-6 5,-18 7,-22 3,-5 7,-14 16,-15 8,-1 20,5 20,11z"/>
 <path class="fil9" d="M446 405l-10 2c-3,-8 -13,-19 -23,-18l0 -1c1,0 10,-5 12,-6 4,-2 9,-4 14,-4l7 27z"/>
 <path class="fil9" d="M476 382c-3,1 -6,3 -8,6 -3,4 -2,5 -4,9l0 6 -9 1 -7 -27c7,-1 25,2 28,5z"/>
 <path class="fil9" d="M509 412c-7,-4 -8,-5 -16,-7 -4,-1 -6,-1 -10,-2 -2,0 -9,0 -10,-2l0 -2c-1,-6 5,-12 11,-12l0 0c5,0 22,19 24,26z"/>
 <path class="fil8" d="M442 368c-41,4 -71,41 -67,82 4,41 41,71 82,67 41,-4 71,-41 67,-82 -4,-41 -41,-71 -82,-67zm1 8c-37,4 -64,37 -60,74 4,37 37,64 74,60 37,-4 64,-37 60,-74 -4,-37 -37,-64 -74,-60z"/>
 <path class="fil4" d="M241 271l-28 1 1 19c2,2 12,6 14,6 3,0 11,-5 13,-8l-1 -19z"/>
 <path class="fil10" d="M242 278c-10,5 -19,6 -28,2l-1 -16c9,0 18,-1 28,-2l1 16z"/>
 <path class="fil7" d="M287 289c0,0 -10,28 -11,67l-4 -13c0,0 -1,-33 3,-38 3,-5 7,-10 12,-17l1 1z"/>
 <path class="fil7" d="M184 291c-1,6 -25,28 -25,28l-5 1c16,-27 34,-49 34,-49 -2,8 -3,14 -5,20z"/>
 <path class="fil11" d="M311 156c0,0 3,51 -6,73 -10,23 -13,31 -39,40 -26,9 -55,9 -73,6 -18,-3 -26,-8 -37,-20 -11,-12 -15,-33 -17,-65 -1,-32 -4,-75 -1,-86 3,-12 48,-39 72,-46 24,-7 81,7 90,15 8,8 11,83 11,83z"/>
 <path class="fil12" d="M224 209c6,0 11,-3 14,-7l0 0 0 0 0 0 0 0c2,-5 2,-11 -1,-16 0,12 -3,18 -13,23z"/>
 <path class="fil12" d="M211 258c5,5 14,9 24,9 11,0 21,-4 25,-10 -7,4 -16,7 -26,7 -9,0 -17,-2 -23,-5z"/>
 <path class="fil8" d="M295 91c11,-2 -17,30 13,57 5,23 -1,45 10,7 12,-9 10,-20 10,-37 0,-9 7,-21 3,-34 -3,-10 -10,-12 -16,-21 -4,-5 -5,-22 -10,-26 -4,-4 -18,-8 -22,-11 -6,-4 -11,-16 -18,-19 -7,-3 -19,3 -28,3 -9,0 -11,-10 -22,-10 -11,0 -13,11 -22,12 -9,1 -21,-3 -28,0 -7,4 -10,16 -16,21 -4,4 -17,9 -21,14 -4,5 -4,21 -7,27 -5,9 -12,13 -14,23 -2,11 7,23 7,31 1,20 -1,29 13,38 2,8 12,35 14,44 0,0 -7,-31 -5,-52 27,-30 -5,-64 6,-61 41,11 112,4 153,-5z"/>
 <path class="fil11" d="M143 223c-19,-7 -43,-38 -17,-61 3,-3 13,-4 17,-4 0,10 -1,18 -1,29 0,11 -1,27 1,36z"/>
 <path class="fil12" d="M135 201c0,0 -2,-8 -6,-16 -4,-8 -7,-1 -7,-1 0,0 5,3 7,7 2,4 -2,2 -3,4 1,-2 10,5 10,5z"/>
 <path class="fil13" d="M242 146c20,-18 40,-3 41,-2 3,1 0,-25 -28,-12 -7,3 -12,15 -12,15z"/>
 <path class="fil13" d="M205 146c-22,-16 -40,2 -41,2 -3,1 -2,-25 27,-15 8,3 14,13 14,13z"/>
 <circle class="fil13" transform="matrix(-1.71004 0.0951797 0.0893136 1.60464 186.354 162.822)" r="10"/>
 <circle class="fil14" transform="matrix(-1.52636 0.0849561 0.0797201 1.43228 186.354 162.822)" r="10"/>
 <circle class="fil13" transform="matrix(-0.993229 0.0552826 0.0518754 0.932014 186.354 162.822)" r="10"/>
 <circle class="fil15" transform="matrix(-0.683853 0.0380629 0.035717 0.641706 186.353 162.822)" r="10"/>
 <circle class="fil14" transform="matrix(-0.257636 0.0143399 0.0134561 0.241758 190.569 166.732)" r="10"/>
 <circle class="fil14" transform="matrix(-0.14733 0.00820031 0.0076949 0.13825 182.66 157.646)" r="10"/>
 <circle class="fil13" transform="matrix(-1.71004 0.0951797 0.0893136 1.60464 263.2 158.545)" r="10"/>
 <circle class="fil14" transform="matrix(-1.52636 0.0849561 0.0797201 1.43228 263.2 158.545)" r="10"/>
 <circle class="fil13" transform="matrix(-0.993229 0.0552826 0.0518754 0.932014 263.2 158.545)" r="10"/>
 <circle class="fil15" transform="matrix(-0.683853 0.0380629 0.035717 0.641706 263.2 158.545)" r="10"/>
 <circle class="fil14" transform="matrix(-0.257636 0.0143399 0.0134561 0.241758 267.415 162.455)" r="10"/>
 <circle class="fil14" transform="matrix(-0.14733 0.00820031 0.0076949 0.13825 259.507 153.369)" r="10"/>
 <path class="fil8" d="M135 102c0,0 8,-2 10,-4 2,-2 3,-7 3,-7l-11 2 -1 10z"/>
 <polygon class="fil7" points="275,456 283,426 293,468 269,480 262,431 262,428 262,428 262,427 255,369 254,367 255,366 "/>
 <polygon class="fil7" points="128,466 123,439 125,483 139,488 135,439 136,436 135,436 135,435 131,377 131,374 130,374 "/>
 <path class="fil16" d="M293 468c0,1 1,3 1,4l-1 1c0,0 -11,7 -24,12 -13,5 -102,15 -130,8 -5,-1 -9,-3 -12,-4 0,-2 0,-4 -1,-6 3,1 -1,0 13,5 14,5 114,0 130,-8 16,-8 22,-11 24,-11z"/>
 <path class="fil7" d="M286 477l12 31 1 2c0,-1 -1,-3 -1,-4 0,-1 0,-2 -1,-2 0,-1 0,-2 0,-2 0,-1 -1,-3 -1,-4 0,0 0,-2 0,-2 0,-1 0,-1 -1,-2 -1,-3 -1,-6 -2,-9 0,-1 -1,-3 -1,-4 0,-1 -1,-5 -1,-6l-4 2z"/>
 <path class="fil17" d="M249 489c-1,0 -8,1 -10,1 3,15 -3,72 -17,79 5,1 13,-2 13,-2l4 -19c0,0 0,0 1,0 1,0 2,1 4,2 7,-13 4,-46 6,-61z"/>
 <ellipse class="fil3 str0" cx="234" cy="237" rx="6" ry="11"/>
</svg>
