<?xml version="1.0" encoding="utf-8"?>
<!-- Generator: Adobe Illustrator 15.1.0, SVG Export Plug-In . SVG Version: 6.00 Build 0)  -->
<!DOCTYPE svg PUBLIC "-//W3C//DTD SVG 1.1//EN" "http://www.w3.org/Graphics/SVG/1.1/DTD/svg11.dtd">
<svg version="1.1" id="_x23_Layer_1" xmlns="http://www.w3.org/2000/svg" xmlns:xlink="http://www.w3.org/1999/xlink" x="0px"
	 y="0px" width="287.613px" height="498.35px" viewBox="0 0 287.613 498.35" enable-background="new 0 0 287.613 498.35"
	 xml:space="preserve">
<path fill-rule="evenodd" clip-rule="evenodd" fill="#4D4D4D" stroke="#000000" stroke-width="1.0001" stroke-linecap="round" stroke-miterlimit="2.6131" d="
	M202.264,78.839c-4.5,1.5-6.75,2.25-13.125,1.125s-9.375,0.75-16.125,0.75s-7.125-3-13.125-1.125c-6,1.875-6.75,3.75-10.5,3
	s-6.75,1.5-12-2.25c-5.25-3.75-9.75-3.375-15.75-7.125c-6-3.75-13.5-2.625-21.75-8.625c-8.25-6-23.25-11.25-28.5-14.25
	c-5.25-3-11.25-7.5-13.125-4.875c-1.875,2.625-8.25,13.5-9,18.75c-0.75,5.25-0.375,27.375,2.625,28.875c3,1.5,13.125,6,27,11.25
	c13.875,5.25,37.5,17.25,47.625,20.25c10.125,3,27.375,10.875,30,15.375s6.75,5.625,7.5,16.875s3,18.375,5.625,28.5
	c2.625,10.125,2.625,12.75,4.875,16.875s-7.125,3-9.375,8.25s0.75,5.25-7.125,10.875c-7.875,5.625-14.625,8.625-14.625,8.625
	l3,7.875c0,0-11.25,2.25-19.875,7.5c-8.625,5.25-13.125,0-25.875,20.625c-12.75,20.624-14.625,22.5-11.25,28.125
	c3.375,5.625,9.375,17.625,12,22.5s9.375,14.249,13.875,24.749c4.5,10.501,15.375,29.251,16.5,33.001s3.375,5.25,3.375,5.25
	s12.375-2.25,17.25-4.5c4.875-2.251,11.625-7.125,11.625-7.125s3.75-1.5,9.75,4.125s18.375,10.875,20.25,13.875
	s-1.5,16.125-5.25,23.25s-5.25,13.125-5.25,13.125s18.75,13.875,24.75,17.25s18.75,10.125,24,11.625s24-6.375,28.125-10.125
	s7.125-2.625,8.625-6.375s7.5-28.5,9.375-33.75s7.125-4.875,7.5-8.625s-0.75-7.5,0-27c0.75-19.501-0.375-37.125-0.75-57.375
	s-3.75-29.25-3.75-40.5s-1.875-16.876-3-24.75c-1.125-7.875-5.25-24.75-3.75-27.375s6-6.75,6.75-16.5s0-27,1.5-30.75
	s3.75-4.5,4.125-10.125s-0.375-42-1.125-48.375c-0.75-6.375-2.625-15.75-4.5-19.875c-1.875-4.125-10.5-5.625-14.625-8.25
	c-4.125-2.625-7.875-4.875-11.625-4.875s-5.625,1.5-6.75-0.375s-1.5-6.75-6-10.5s-11.625-1.875-16.5,0
	C221.014,67.589,202.639,79.214,202.264,78.839z"/>
<path fill-rule="evenodd" clip-rule="evenodd" fill="#D5BBA7" stroke="#000000" stroke-width="1.0001" stroke-linecap="round" stroke-miterlimit="2.6131" d="
	M203.67,78.933c2.692-0.491,1.383,12.357,2.202,15.515c0.705,2.72,0.505,5.568,2.233,9.22c5.128,10.83,0.106,4.816,9.391-7.875
	c3.392-4.635,6.967-8.726,11.534-12.327c2.412-1.901,12.541-9.211,9.563-13.018c-0.18-0.229-0.235-2.911-0.235-3.514
	c0.057,0,0.801-12.314,1.875-12.563c0.753-5.362,5.966-17.583,4.125-26.593c-0.605-2.967-6.386-13.504-8.829-14.984
	c-2.442-1.479-2.389-4.029-8.813-5.094c-6.424-1.066-3.097-1.555-10.671-0.75c-1.684,0.179-5.112,0.188-6.281,0.64
	c-6.375,1.875-16.5,5.625-19.125,9.75c-2.625,4.125-4.875,15.375-4.875,15.375c1.705,1.803,1.823,9.891,0.721,12.908
	c-2.124,5.811-5.847,8.337,0.498,9.14c2.214,0.28,1.313,5.941,1.313,7.483c-0.548,0,2.296,0.396,0.75,3.75
	c5.371,1.238,1.373,9.68,6.578,9.954C197.817,76.064,203.521,78.944,203.67,78.933z"/>
<path fill-rule="evenodd" clip-rule="evenodd" fill="none" stroke="#000000" stroke-width="1.0001" stroke-linecap="round" stroke-miterlimit="2.6131" d="
	M192.795,39.433c2.67,1.665,8.669,0.964,2.577,3.669c-0.249-0.191-0.14-0.158-0.327,0.268"/>
<path fill-rule="evenodd" clip-rule="evenodd" fill="none" stroke="#000000" stroke-width="1.0001" stroke-linecap="round" stroke-miterlimit="2.6131" d="
	M198.795,36.745c-2.136,0.418-5.397-1.222-8.25,1.875"/>
<path fill-rule="evenodd" clip-rule="evenodd" fill="none" stroke="#000000" stroke-width="1.0001" stroke-linecap="round" stroke-miterlimit="2.6131" d="
	M190.17,62.995c4.823,1.313,6.915-1.24,5.872-0.081c-0.486,0.541-2.169,1.038-4.887,2.283c-0.424,0.194-0.399,0.126-0.798,0.423"/>
<path fill-rule="evenodd" clip-rule="evenodd" fill="none" stroke="#000000" stroke-width="1.0001" stroke-linecap="round" stroke-miterlimit="2.6131" d="
	M228.42,45.183c0.121-4.344,9.792-8.173,6.798,5.153c-0.35,1.558-1.836,7.555-4.875,5.673c-0.193-0.12-1.517-1.018-1.548-1.077"/>
<path fill-rule="evenodd" clip-rule="evenodd" fill="#1A1A1A" stroke="#000000" stroke-width="1.0001" stroke-linecap="round" stroke-miterlimit="2.6131" d="
	M164.764,150.839c-0.295,7.812-0.409,20.071,4.441,24.434c3.319,2.987,0.808-3.589,1.402-10.747
	c0.688-8.258,1.981-14.004-4.891-14.331L164.764,150.839z"/>
<path fill-rule="evenodd" clip-rule="evenodd" fill="none" stroke="#000000" stroke-width="1.0001" stroke-linecap="round" stroke-miterlimit="2.6131" d="
	M167.576,175.777c10.064,12.739,13.652,3.311,32.754,2.657c16.77-0.574,18.879-3.567,31.746,6.686
	c0.632,0.504,1.725,0.843,2.625,0.782"/>
<path fill-rule="evenodd" clip-rule="evenodd" fill="none" stroke="#000000" stroke-width="1.0001" stroke-linecap="round" stroke-miterlimit="2.6131" d="
	M245.951,180.652c5.898-5.72,7.974-17.951,17.871-25.939c0.25-0.202,22.041-28.8,21.879-30.686"/>
<path fill-rule="evenodd" clip-rule="evenodd" fill="none" stroke="#000000" stroke-width="1.0001" stroke-linecap="round" stroke-miterlimit="2.6131" d="
	M252.701,107.527c-1.751,0.474-22.371,19.587-20.657,24.321c3.164,8.741-3.49,4.283-10.093,6.708
	c-13.058,4.794-14.502-0.654-27.782-0.654c-9.748,0-9.815-1.059-17.593-4.125"/>
<path fill-rule="evenodd" clip-rule="evenodd" fill="#D5BBA7" stroke="#000000" stroke-width="1.0001" stroke-linecap="round" stroke-miterlimit="2.6131" d="
	M160.92,115.871c-4.313,0.743-1.124,4.731-6.563,2.485c-0.766-0.316-5.169-0.841-5.765,1.918c-0.739,3.424-3.127,1.686-4.971,6.659
	c-0.764,2.06,0.725,2.593-1.029,5.486c-0.016,0.027-1.01,7.223-0.375,7.778c4.772,4.172,9.778,7.458,16.125,7.939
	c3.371,0.255,13.375,6.174,13.452,6.171c0.063-0.002,1.546-12.362,2.127-13.736c0.144-0.341,2.051-7.605,1.688-7.778
	c-3.494-1.664-2.842-0.749-4.142-6.284c-1.32-5.624-2.191-4.403-7.034-7.028c-0.159-0.087-2.177-2.979-2.576-3.048
	C161.857,116.416,161.6,115.753,160.92,115.871z"/>
<path fill-rule="evenodd" clip-rule="evenodd" fill="none" stroke="#000000" stroke-width="1.0001" stroke-linecap="round" stroke-miterlimit="2.6131" d="
	M198.045,87.183c0.666,9.924,0.38,12.632-0.017,21.905c-0.295,6.92-1.153,12.443-0.905,19.891l-0.016,0.391"/>
<path fill-rule="evenodd" clip-rule="evenodd" fill="none" stroke="#000000" stroke-width="1.0001" stroke-linecap="round" stroke-miterlimit="2.6131" d="
	M245.857,76.496c-6.371,8.463-8.436,13.032-16.077,20.673c-3.897,3.898-17.673,34.466-17.673,40.64"/>
<path fill-rule="evenodd" clip-rule="evenodd" fill="none" stroke="#000000" stroke-width="1.0001" stroke-linecap="round" stroke-miterlimit="2.6131" d="
	M209.67,111.183c-5.405,6.989-8.396,15.583-11.797,23.625l-0.203,0.375"/>
<path fill-rule="evenodd" clip-rule="evenodd" fill="#D5BBA7" stroke="#000000" stroke-width="1.0001" stroke-linecap="round" stroke-miterlimit="2.6131" d="
	M21.794,41.058c4.96,2.667,6.641,7.229,12.75,7.671c7.155,0.519,14.363,14.974,19.5,19.704c0.386,0.356,4.116,5.396,4.157,5.593
	c0.062,0.013,0.343-8.979,0.343-10.093c1.28,0-1.676-16.983-0.563-17.813c-1.518-1.733-10.5-7.403-10.5-8.25
	c0,1.609-1.737-15.242-1.875-15.375c-3.241-3.11-5.202-3.978-8.015-7.923c-0.806-1.131-3.985-2.108-3.985,3.048
	c1.731,4.752,2.166,3.936-3.016-0.75c-2.021-1.827-2.513-3.422-5.421-5.298c-4.505-2.905-2.438-5.164-12-8.716
	c-0.485-0.18-6.87-4.936-4.189-0.407c4.216,7.122-2.106-2.241-4.763,2.657c-0.666,1.228,10.222,9.306,12.188,11.936
	c2.449,3.276,6.491,7.515-1.002,2.389c-2.724-1.864-11.032-8.7-13.28-7.998C-4.368,13.46,15.177,22.14,17.23,26.074
	c1.614,3.095,0.487,6.182-3.482,3.359c-2.93-2.083-4.428-3.43-7.345-4.907c-1.171-0.593-8.824-3.961-4.688,0.611
	c7.331,8.104,7.764,3.029,16.28,12.407C19.23,38.903,20.951,39.213,21.794,41.058z"/>
<path fill-rule="evenodd" clip-rule="evenodd" fill="#1A1A1A" stroke="#000000" stroke-width="1.0001" stroke-linecap="round" stroke-miterlimit="2.6131" d="
	M53.294,92.058c-2.197-2.882-0.488,2.396-2.438-3.418c-0.762-2.271-1.688-5.18-1.688-7.457c-1.028,0,1.156-17.143,1.189-17.078
	c0.342,0.672,2.021,3.124,2.186,3.766c0.053,0.018,5.25,5.61,5.25,5.625C57.794,76.808,56.951,90.792,53.294,92.058z"/>
<path fill-rule="evenodd" clip-rule="evenodd" fill="none" stroke="#000000" stroke-width="1.0001" stroke-linecap="round" stroke-miterlimit="2.6131" d="
	M10.357,4.308c1.291,2.158,10.465,10.279,13.141,11.625c0.382,0.192,0.516,0.209,0.546,0.563"/>
<path fill-rule="evenodd" clip-rule="evenodd" fill="none" stroke="#000000" stroke-width="1.0001" stroke-linecap="round" stroke-miterlimit="2.6131" d="
	M34.919,20.809c1.354,0.64,2.625,2.949,2.625,4.313"/>
<path fill-rule="evenodd" clip-rule="evenodd" fill="none" stroke="#000000" stroke-width="1.0001" stroke-linecap="round" stroke-miterlimit="2.6131" d="
	M175.075,202.028c8.805,10.19,25.413,15.681,39.215,16.157c10.857,0.375,37.677,5.479,46.854,1.564
	c1.637-0.698,8.187-2.661,8.808-4.222"/>
<path fill-rule="evenodd" clip-rule="evenodd" fill="#1A1A1A" stroke="#000000" stroke-width="1.0001" stroke-linecap="round" stroke-miterlimit="2.6131" d="
	M208.45,324.653c-1.171-0.133-3.193-1.278-4.436-1.779c-15.958-6.428-10.14-6.87-15.16-16.124
	c-5.715-10.533,14.318-16.863,12.846-35.347c2.207,15.005,4.129,10.75,2.969,27C204.414,301.971,208.45,319.019,208.45,324.653z"/>
<path fill-rule="evenodd" clip-rule="evenodd" fill="none" stroke="#000000" stroke-width="1.0001" stroke-linecap="round" stroke-miterlimit="2.6131" d="
	M137.575,376.028c14.766-14.766,20.619-21.691,38.625-30.621c3.455-1.714,8.127-5.754,12-5.754"/>
<path fill-rule="evenodd" clip-rule="evenodd" fill="none" stroke="#000000" stroke-width="1.0001" stroke-linecap="round" stroke-miterlimit="2.6131" d="
	M165.325,367.028c4.061-4.061,10.771-13.944,15.344-16.811c0.742-0.466,6.301-5.02,6.407-5.689"/>
<path fill-rule="evenodd" clip-rule="evenodd" fill="#D5BBA7" stroke="#000000" stroke-width="1.0001" stroke-linecap="round" stroke-miterlimit="2.6131" d="
	M195.888,328.028c-10.137,9.902,7.865,12.568,11.909,19.5c6.224,10.665,1.86,8.377,5.058,16.125c3.565,8.643-2.198,9.798,7.875,21
	c1.543,1.716,7.994,7.988,9.406,8.314c0.032,0.152-1.983-36.383-10.061-36.064c-5.892,0.232-5.058-26.453-20.25-27.718
	C199.551,329.162,196.126,327.796,195.888,328.028z"/>
<path fill-rule="evenodd" clip-rule="evenodd" fill="none" stroke="#000000" stroke-width="1.0001" stroke-linecap="round" stroke-miterlimit="2.6131" d="
	M196.451,385.778c1.486-4.613,6.75-22.235,6.75-25.5"/>
<path fill-rule="evenodd" clip-rule="evenodd" fill="#D5BBA7" stroke="#000000" stroke-width="1.0001" stroke-linecap="round" stroke-miterlimit="2.6131" d="
	M206.388,439.216c-2.109,3.962-13.528,31.977-11.716,34.966c3.303,5.446,6.654,5.115,6.654,15.847c0,0.386,6.71,11.197,8.25,6.75
	c2.304,0,10.617,1.246,11.721-0.996c0.982-1.996,11.021-8.207,0.622-13.5c-9.556-4.864-9.384-15.283-8.25-24.504
	c0.212-1.723,3.781-9.801,3.781-11.625c0.088,0,1.985-0.741-5.624-3.375C209.865,442.1,206.796,438.45,206.388,439.216z"/>
<path fill-rule="evenodd" clip-rule="evenodd" fill="none" stroke="#000000" stroke-width="1.0001" stroke-linecap="round" stroke-miterlimit="2.6131" d="
	M199.529,271.309c-4.711,6.329-19.198,29.551-14.212,35.903c2.496,3.18,8.139,15.849,14.212,17.952
	c0.156-1.047-12.273,8.771-13.464,9.724"/>
</svg>
