<svg width="450" height="450" xmlns="http://www.w3.org/2000/svg">


 <style type="text/css">.st0{fill:#ED6522;}
	.st1{fill:#F4EB45;}
	.st2{opacity:0.66;}
	.st3{fill:#E8633A;}
	.st4{fill:#EDD64F;}
	.st5{fill:#E5E8EC;}
	.st6{fill:#2C7EEA;}
	.st7{fill:#2366BD;}
	.st8{fill:#484F59;}
	.st9{fill:#F4DA80;}
	.st10{fill:#B91E2D;}
	.st11{fill:#E2C59C;}
	.st12{fill:#E9D6B8;}
	.st13{fill:#163F59;}
	.st14{fill:#194866;}
	.st15{fill:#FFAB01;}
	.st16{fill:#15100C;}
	.st17{fill:#CDD5D7;}
	.st18{fill:#B7BEC0;}
	.st19{fill:#F99B0F;}
	.st20{opacity:0.6;}
	.st21{fill:#EED2CE;}
	.st22{fill:#C49189;}
	.st23{fill:#FFEBE8;}
	.st24{fill:#E0B6AF;}
	.st25{fill:#FF8B5D;}
	.st26{fill:#FFFFFF;}
	.st27{fill:#EF8357;}
	.st28{fill:#D5E1F2;}
	.st29{fill:#3C463B;}
	.st30{fill:#2771D1;}
	.st31{fill:#161711;}
	.st32{fill:#323B31;}
	.st33{fill:#B6C2C9;}
	.st34{fill:#879BA6;}
	.st35{fill:#E4EEF3;}
	.st36{fill:#FF5931;}
	.st37{enable-background:new    ;}
	.st38{fill:#FFC910;}
	.st39{fill:#FFCA10;}
	.st40{fill:#282723;}
	.st41{fill:#B0BFDE;}
	.st42{fill:#D1DBEA;}
	.st43{fill:#19486D;}
	.st44{fill:#265880;}
	.st45{fill:#FBBC3E;}
	.st46{fill:#E59E0E;}
	.st47{fill:url(#SVGID_1_);}
	.st48{fill:url(#SVGID_2_);}
	.st49{fill:#081832;}
	.st50{fill:#EDEEF0;}
	.st51{fill:#BCD0E2;}
	.st52{fill:#4E99FF;}

			#t3  {
    animation-name: p;
   
	
	
    animation-timing-function: linear;
    animation-iteration-count: infinite;
    transform-origin:center;
    
    transform-box: fill-box;
  }
  @keyframes p{
    0%{opacity:0; transform:rotateZ(0deg)}
	20%{opacity:1; transform:rotateZ(0deg)}
	100%{opacity:1; transform:rotateZ(-10deg)}
}
#t2  {
    animation-name: t2;
   
	
	
    animation-timing-function: linear;
    animation-iteration-count: infinite;
    transform-origin:center;
    
    transform-box: fill-box;
  }
  @keyframes t2{
    0%{opacity:0; transform:rotateZ(-10deg)}
	50%{opacity:1;}
	100%{opacity:1; transform:rotateZ(0deg)}
}
#t1  {
    animation-name: t1;
   
	
	
    animation-timing-function: linear;
    animation-iteration-count: infinite;
    transform-origin:center;
    
    transform-box: fill-box;
  }
  @keyframes t1{
    0%{opacity:0; }
	30%{opacity:1;}
	100%{opacity:1;}
}

 #BUTTON {
    animation-name: box1;
   
    animation-timing-function: ease-in;
    animation-iteration-count: infinite;
    transform-origin:bottom;
    
    transform-box: fill-box;
  }
  @keyframes box1{
    0%{transform:scale(0) }
    13%{transform:scale(0)}
     15%{transform:scale(1.2)}
     
     16%{transform:scale(1)}
     100%{transform:scale(1) }
}
 #CELLPHONE {
    animation-name: box1;
   
    animation-timing-function: ease-in;
    animation-iteration-count: infinite;
    transform-origin:bottom;
    
    transform-box: fill-box;
  }
  @keyframes box1{
    0%{transform:scale(0) }
    17%{transform:scale(0)}
     19%{transform:scale(1.2)}
     
     21%{transform:scale(1)}
     100%{transform:scale(1) }
	 22%{transform:scale(1)}
	 50%{transform:translateY(10px)}
	 70%{transform:translateY(-10px)}
}
 #MEN_LAPTOP {
    animation-name: m1;
   
    animation-timing-function: ease-in;
    animation-iteration-count: infinite;
    transform-origin:bottom;
    
    transform-box: fill-box;
  }
  @keyframes m1{
    0%{transform:scale(0) }
    20%{transform:scale(0)}
     21%{transform:scale(1.2)}
     
     22%{transform:scale(1)}
	 50%{transform:translateY(10px)}
	 70%{transform:translateY(-10px)}
     
}

#m2{
    animation-name: m2;
   
    animation-iteration-count: infinite;
    transform-origin: bottom;
    transform-box: fill-box;
}
@keyframes m2 {
    0% { opacity: 0; transform: translate(-25px, 25px); }
    22% { opacity: 0; transform: translate(-25px, 0px); }
    24% { opacity: 1; transform: translate(0px, 0px); }
}
#w2{
    animation-name: w2;
   
    animation-iteration-count: infinite;
    transform-origin: bottom;
    transform-box: fill-box;
}
@keyframes w2 {
    0% { opacity: 0; transform: translate(-25px, 25px); }
    25% { opacity: 0; transform: translate(-25px, 0px); }
    28% { opacity: 1; transform: translate(0px, 0px); }
	22%{transform:scale(1)}
	 50%{transform:translateY(-10px)}
	 70%{transform:translateY(10px)}
}
#w1{
    animation-name: w1;
   
    animation-iteration-count: infinite;
    transform-origin: bottom;
    transform-box: fill-box;
}
@keyframes w1 {
    0% { opacity: 0; transform: translate(25px, 25px); }
    29% { opacity: 0; transform: translate(25px, 0px); }
    32% { opacity: 1; transform: translate(0px, 0px); }
}
#heart {
    animation-name: ht;
   
    animation-timing-function: ease-in;
    animation-iteration-count: infinite;
    transform-origin:bottom;
    
    transform-box: fill-box;
  }
  @keyframes ht{
    0%{transform:scale(0) }
    31%{transform:scale(0)}
     33%{transform:scale(1.2)}
     
     34%{transform:scale(1)}
     100%{transform:scale(1) }
}
#like {
    animation-name: lt;
   
    animation-timing-function: ease-in;
    animation-iteration-count: infinite;
    transform-origin:bottom;
    
    transform-box: fill-box;
  }
  @keyframes lt{
    0%{transform:scale(0) }
    31%{transform:scale(0)}
     33%{transform:scale(1.2)}
     
     34%{transform:scale(1)}
     100%{transform:scale(1) }
}
#box1 {
    animation-name: bt;
   
    animation-timing-function: ease-in;
    animation-iteration-count: infinite;
    transform-origin:bottom;
    
    transform-box: fill-box;
  }
  @keyframes bt{
    0%{transform:scale(0) }
    35%{transform:scale(0)}
     36%{transform:scale(1.2)}
     
     38%{transform:scale(1)}
     100%{transform:scale(1) }
}
#box2 {
    animation-name: b2;
   
    animation-timing-function: ease-in;
    animation-iteration-count: infinite;
    transform-origin:bottom;
    
    transform-box: fill-box;
  }
  @keyframes b2{
    0%{transform:scale(0) }
    38%{transform:scale(0)}
     39%{transform:scale(1.2)}
     
     40%{transform:scale(1)}
     100%{transform:scale(1) }
}
#w1l {
    animation-name: pa;
    animation-duration: 2s;
	animation-direction: alternate;
	
    animation-timing-function: linear;
    animation-iteration-count: infinite;
    transform-origin:95% 0%;
    
    transform-box: fill-box;
  }
  @keyframes pa{
    0%{transform:rotateZ(3deg);}
	100%{transform:rotateZ(-3deg);}
	
}
#w2a {
    animation-name: w2a;
    animation-duration: 1.5s;
	animation-direction: alternate;
	
    animation-timing-function: linear;
    animation-iteration-count: infinite;
    transform-origin:5% 90%;
    
    transform-box: fill-box;
  }
  @keyframes w2a{
    0%{transform:rotateZ(4deg);}
	100%{transform:rotateZ(-4deg);}
}
#m2l1 {
    animation-name: m2a;
    animation-duration: 1.5s;
	animation-direction: alternate;
	
    animation-timing-function: linear;
    animation-iteration-count: infinite;
    transform-origin:95% 0%;
    
    transform-box: fill-box;
  }
  @keyframes m2a{
    0%{transform:rotateZ(0deg);}
	100%{transform:rotateZ(-25deg);}
}
#m2l2 {
    animation-name: m2b;
    animation-duration: 1.5s;
	animation-direction: alternate;
	
    animation-timing-function: linear;
    animation-iteration-count: infinite;
    transform-origin:5% 10%;
    
    transform-box: fill-box;
  }
  @keyframes m2b{
    0%{transform:rotateZ(0deg);}
	100%{transform:rotateZ(25deg);}
}
#m1h {
    animation-name: m1h;
    animation-duration: 3s;
	animation-direction: alternate;
	
    animation-timing-function: linear;
    animation-iteration-count: infinite;
    transform-origin:5% 10%;
    
    transform-box: fill-box;
  }
  @keyframes m1h{
    0%{transform:translateY(0px);}
	20%{transform:translateY(0px);}
	 30%{transform:translateY(2px);}
	50%{transform:translateY(0px);}
	
	60%{transform:translatey(0px);}
	100%{transform:translatey(2px);}
}
#m2h {
    animation-name: m2h;
    animation-duration: 1.5s;
	animation-direction: alternate;
	
    animation-timing-function: linear;
    animation-iteration-count: infinite;
    transform-origin:5% 90%;
    
    transform-box: fill-box;
  }
  @keyframes m2h{
    0%{transform:rotateZ(4deg);}
	100%{transform:rotateZ(-4deg);}
}</style>
 <g>
  <title>Layer 1</title>
  <g stroke="null" id="w1">
   <g stroke="null" id="svg_247">
    <g stroke="null" id="svg_248">
     <g stroke="null" id="svg_249">
      <g stroke="null" id="svg_250">
       <g stroke="null" class="st37" id="svg_251">
        <g stroke="null" id="svg_252">
         <path stroke="null" class="st38" d="m220.45123,391.03194c-0.37791,-6.33764 -0.37791,-14.53931 -0.75581,-20.50414c0,4.10083 0.75581,15.65772 0.75581,20.50414c0,-0.37281 0,-0.37281 0,0z" id="svg_253"/>
        </g>
        <g stroke="null" id="svg_254">
         <path stroke="null" class="st15" d="m393.15399,361.58053c0.37791,7.45605 0.75581,15.28491 0.75581,22.74096c0.37791,5.96485 -7.55811,11.92968 -23.43013,17.14892c-34.38939,11.55688 -94.47634,14.53931 -134.1564,7.08326c-21.1627,-4.10083 -32.12196,-10.43847 -32.49986,-17.14892l-0.75581,-22.74096c0.37791,6.71045 11.33716,13.04809 32.49986,17.14892c39.68006,7.45605 99.38912,4.47363 134.1564,-7.08326c15.87203,-5.21924 23.80804,-11.18408 23.43013,-17.14892z" id="svg_255"/>
        </g>
        <g stroke="null" id="svg_256">
         <path stroke="null" class="st38" d="m360.65412,344.43161c39.68006,7.45605 43.45912,23.11377 9.06973,34.29785c-34.38939,11.55688 -94.47634,14.53931 -134.1564,7.08326s-43.45912,-23.11377 -9.06973,-34.29785c34.7673,-11.55688 94.85425,-14.53931 134.1564,-7.08326zm-114.50533,38.02587c32.87776,6.33764 82.38337,3.72803 111.10418,-5.59204s25.31966,-22.36817 -7.55811,-28.333c-32.87776,-6.33764 -82.38337,-3.72803 -111.10418,5.59204c-28.34291,8.94727 -24.94176,21.99536 7.55811,28.333" id="svg_257"/>
        </g>
        <path stroke="null" class="st15" d="m350.07277,348.15963c32.87776,6.33764 35.90101,19.01294 7.55811,28.333c-28.72081,9.32007 -78.22641,11.92968 -111.10418,5.59204c-32.87776,-6.33764 -35.90101,-19.01294 -7.55811,-28.333c28.72081,-9.32007 78.22641,-11.92968 111.10418,-5.59204z" id="svg_258"/>
        <path stroke="null" class="st19" d="m238.96859,356.7341c28.72081,-9.32007 78.22641,-11.92968 111.10418,-5.96485c16.24993,2.98242 25.31966,7.82886 26.83128,13.04809c1.51163,-6.33764 -7.55811,-12.30249 -26.83128,-15.65772c-32.87776,-6.33764 -82.38337,-3.72803 -111.10418,5.59204c-14.3604,4.84644 -20.78479,10.43847 -19.27318,15.65772c1.13372,-4.47363 7.55811,-8.94727 19.27318,-12.67529z" id="svg_259"/>
        <g stroke="null" id="svg_260">
         <path stroke="null" class="st19" d="m318.32872,370.15499c2.26743,2.23682 0.75581,4.84644 -6.04649,7.08326c-7.55811,2.60962 -18.89527,3.72803 -29.47661,3.35522c-3.77906,0 -7.18021,-0.37281 -10.20345,-1.11841l-1.88952,-0.37281l-0.75581,0.37281l-2.26743,0.7456l-1.51163,-0.37281l-7.18021,-1.49121l3.02324,-1.11841l-5.29067,-1.11841l-0.75581,0.37281l-2.26743,0.7456l-1.51163,-0.37281l-7.18021,-1.49121l3.02324,-1.11841l-5.29067,-1.11841l7.18021,-2.23682l0.75581,-0.37281l3.77906,0.7456l1.51163,0.37281l21.54061,-7.08326l7.55811,-2.60962l18.51736,-5.96485l-5.29067,-1.11841l7.18021,-2.23682l0.75581,-0.37281l3.77906,0.7456l1.51163,0.37281l2.26743,-0.7456l0.75581,-0.37281l8.69182,1.86401l-3.02324,1.11841l3.77906,0.7456l1.51163,0.37281l2.26743,-0.7456l0.75581,-0.37281l8.69182,1.86401l-3.02324,1.11841c10.58135,1.86401 11.71506,6.33764 2.26743,9.32007c-4.53487,1.11841 -11.33716,2.23682 -18.13946,2.60962l-0.00001,0.00003zm-32.12196,7.08326c6.04649,0.37281 12.84878,-0.37281 17.38364,-1.86401c6.04649,-1.86401 5.29067,-4.47363 -1.51163,-5.96485l-15.87203,-2.98242l-0.75581,0.37281l-20.78479,7.08326l15.87203,2.98242c1.88952,0 3.77906,0 5.66858,0.37281m25.69757,-19.38574l-17.76155,5.96485l13.98249,2.60962c1.51163,0.37281 3.02324,0.37281 4.53487,0.37281c5.29067,0.37281 11.33716,-0.37281 15.11621,-1.49121c5.29067,-1.86401 4.53487,-4.10083 -1.13372,-5.21924l-13.98249,-2.60962l-0.75581,0.37281" id="svg_261"/>
        </g>
        <g stroke="null" id="svg_262">
         <path stroke="null" class="st39" d="m318.32872,367.17257c2.26743,2.23682 0.75581,4.84644 -6.04649,7.08326c-7.55811,2.60962 -18.89527,3.72803 -29.47661,3.35522c-3.77906,0 -7.18021,-0.37281 -10.20345,-1.11841l-1.88952,-0.37281l-0.75581,0.37281l-2.26743,0.7456l-1.51163,-0.37281l-7.18021,-1.49121l3.02324,-1.11841l-5.29067,-1.11841l-0.75581,0.37281l-2.26743,0.7456l-1.51163,-0.37281l-7.18021,-1.49121l3.02324,-1.11841l-5.29067,-1.11841l7.18021,-2.23682l0.75581,-0.37281l3.77906,0.7456l1.51163,0.37281l21.54061,-7.08326l7.55811,-2.60962l18.51736,-5.96485l-5.29067,-1.11841l7.18021,-2.23682l0.75581,-0.37281l3.77906,0.7456l1.51163,0.37281l2.26743,-0.7456l0.75581,-0.37281l8.69182,1.86401l-3.02324,1.11841l3.77906,0.7456l1.51163,0.37281l2.26743,-0.7456l0.75581,-0.37281l8.69182,1.86401l-3.02324,1.11841c10.58135,1.86401 11.71506,6.33764 2.26743,9.32007c-4.53487,1.11841 -11.33716,2.23682 -18.13946,2.60962l-0.00001,0.00003zm-32.12196,7.08326c6.04649,0.37281 12.84878,-0.37281 17.38364,-1.86401c6.04649,-1.86401 5.29067,-4.47363 -1.51163,-5.96485l-15.87203,-2.98242l-0.75581,0.37281l-20.78479,7.08326l15.87203,2.98242c1.88952,0 3.77906,0.37281 5.66858,0.37281m25.69757,-19.38574l-17.76155,5.96485l13.98249,2.60962c1.51163,0.37281 3.02324,0.37281 4.53487,0.37281c5.29067,0.37281 11.33716,-0.37281 15.11621,-1.49121c5.29067,-1.86401 4.53487,-4.10083 -1.13372,-5.21924l-13.98249,-2.60962l-0.75581,0.37281" id="svg_263"/>
        </g>
        <path stroke="null" class="st19" d="m212.13731,378.72946l0,22.36817c5.29067,2.98242 13.6046,5.59204 24.18594,7.82886c10.58135,1.86401 22.67433,3.35522 35.1452,3.72803l0,-22.74096c-12.84878,-0.37281 -25.31966,-1.86401 -36.27891,-3.72803c-9.82554,-2.23682 -17.38364,-4.84644 -23.05222,-7.45605l0,-0.00001z" id="svg_264"/>
       </g>
      </g>
      <g stroke="null" id="svg_265">
       <g stroke="null" class="st37" id="svg_266">
        <g stroke="null" id="svg_267">
         <path stroke="null" class="st38" d="m229.14305,364.19015c-0.37791,-6.33764 -0.37791,-14.53931 -0.75581,-20.50414c0,4.10083 0.75581,15.65772 0.75581,20.13135c0,0 0,0 0,0.37281l0,-0.00001z" id="svg_268"/>
        </g>
        <g stroke="null" id="svg_269">
         <path stroke="null" class="st15" d="m401.84581,334.73874c0.37791,7.45605 0.75581,15.28491 0.75581,22.74096c0.37791,5.96485 -7.55811,11.92968 -23.43013,17.14892c-34.38939,11.55688 -94.47634,14.53931 -134.1564,7.08326c-21.1627,-4.10083 -32.12196,-10.43847 -32.49986,-17.14892l-0.75581,-22.74096c0.37791,6.71045 11.33716,13.04809 32.49986,17.14892c39.68006,7.45605 99.38912,4.47363 134.1564,-7.08326c15.87203,-5.21924 23.80804,-11.18408 23.43013,-17.14892z" id="svg_270"/>
        </g>
        <g stroke="null" id="svg_271">
         <path stroke="null" class="st38" d="m369.34594,317.58981c39.30216,7.45605 43.45912,23.11377 9.06973,34.29785c-34.38939,11.55688 -94.47634,14.53931 -134.1564,7.08326s-43.45912,-23.11377 -9.06973,-34.29785c34.7673,-11.55688 94.85425,-14.53931 134.1564,-7.08326zm-114.12742,37.65307c32.87776,6.33764 82.38337,3.72803 111.10418,-5.59204c28.72081,-9.32007 25.31966,-22.36817 -7.55811,-28.333c-32.87776,-6.33764 -82.38337,-3.72803 -111.10418,5.59204s-25.31966,22.36817 7.55811,28.333" id="svg_272"/>
        </g>
        <path stroke="null" class="st15" d="m358.76459,320.94503c32.87776,6.33764 35.90101,19.01294 7.55811,28.333c-28.72081,9.32007 -78.22641,11.92968 -111.10418,5.59204c-32.87776,-6.33764 -35.90101,-19.01294 -7.55811,-28.333c28.72081,-8.94727 78.22641,-11.55688 111.10418,-5.59204z" id="svg_273"/>
        <path stroke="null" class="st19" d="m247.66041,329.8923c28.72081,-9.32007 78.22641,-11.92968 111.10418,-5.96485c16.24993,2.98242 25.31966,7.82886 26.83128,13.04809c1.51163,-6.33764 -7.55811,-12.30249 -26.83128,-15.65772c-32.87776,-6.33764 -82.38337,-3.72803 -111.10418,5.59204c-14.3604,4.84644 -20.78479,10.43847 -19.27318,15.65772c1.13372,-4.47363 7.55811,-8.94727 19.27318,-12.67529z" id="svg_274"/>
        <g stroke="null" id="svg_275">
         <path stroke="null" class="st19" d="m327.39845,342.94039c2.26743,2.23682 0.75581,4.84644 -6.04649,7.08326c-7.55811,2.60962 -18.89527,3.72803 -29.47661,3.35522c-3.77906,0 -7.18021,-0.37281 -10.20345,-1.11841l-1.88952,-0.37281l-0.75581,0.37281l-2.26743,0.7456l-1.51163,-0.37281l-7.18021,-1.49121l3.02324,-1.11841l-5.29067,-1.11841l-0.75581,0.37281l-2.26743,0.7456l-1.51163,-0.37281l-7.18021,-1.49121l3.02324,-1.11841l-5.29067,-1.11841l7.18021,-2.23682l0.75581,-0.37281l3.77906,0.7456l1.51163,0.37281l21.54061,-7.08326l7.55811,-2.60962l18.51736,-5.96485l-5.29067,-1.11841l7.18021,-2.23682l0.75581,-0.37281l3.77906,0.7456l1.51163,0.37281l2.26743,-0.7456l0.75581,-0.37281l8.69182,1.86401l-3.02324,1.11841l3.77906,0.7456l1.51163,0.37281l2.26743,-0.7456l0.75581,-0.37281l8.69182,1.86401l-3.02324,1.11841c10.58135,1.86401 11.71506,6.33764 2.26743,9.32007c-4.91277,1.49121 -11.33716,2.60962 -18.13946,2.60962l-0.00001,0.00003zm-32.49986,7.08326c6.04649,0.37281 12.84878,-0.37281 17.38364,-1.86401c6.04649,-1.86401 5.29067,-4.47363 -1.51163,-5.96485l-15.87203,-2.98242l-0.75581,0.37281l-20.78479,7.08326l15.87203,2.98242c1.88952,0.37281 3.77906,0.37281 5.66858,0.37281m25.69757,-19.01294l-17.76155,5.96485l13.98249,2.60962c1.51163,0.37281 3.02324,0.37281 4.53487,0.37281c5.29067,0.37281 11.33716,-0.37281 15.11621,-1.49121c5.29067,-1.86401 4.53487,-4.10083 -1.13372,-5.21924l-13.98249,-2.60962l-0.75581,0.37281" id="svg_276"/>
        </g>
        <g stroke="null" id="svg_277">
         <path stroke="null" class="st39" d="m327.39845,340.33078c2.26743,2.23682 0.75581,4.84644 -6.04649,7.08326c-7.55811,2.60962 -18.89527,3.72803 -29.47661,3.35522c-3.77906,0 -7.18021,-0.37281 -10.20345,-1.11841l-1.88952,-0.7456l-0.75581,0.37281l-2.26743,0.7456l-1.51163,-0.37281l-7.18021,-1.49121l3.02324,-1.11841l-5.29067,-1.11841l-0.75581,0.37281l-2.26743,0.7456l-1.51163,-0.37281l-7.18021,-1.49121l3.02324,-1.11841l-5.29067,-1.11841l7.18021,-2.23682l0.75581,-0.37281l3.77906,0.7456l1.51163,0.37281l21.54061,-7.08326l7.55811,-2.60962l18.51736,-5.96485l-5.29067,-1.11841l7.18021,-2.23682l0.75581,-0.37281l3.77906,0.7456l1.51163,0.37281l2.26743,-0.7456l0.75581,-0.37281l8.69182,1.86401l-3.02324,1.11841l3.77906,0.7456l1.51163,0.37281l2.26743,-0.7456l0.75581,-0.37281l8.69182,1.86401l-3.02324,1.11841c10.58135,1.86401 11.71506,6.33764 2.26743,9.32007c-4.91277,1.49121 -11.33716,2.60962 -18.13946,2.98242l-0.00001,0.00003zm-32.49986,7.08326c6.04649,0.37281 12.84878,-0.37281 17.38364,-1.86401c6.04649,-1.86401 5.29067,-4.47363 -1.51163,-5.96485l-15.87203,-2.98242l-0.75581,0.37281l-20.78479,7.08326l15.87203,2.98242c1.88952,0 3.77906,0.37281 5.66858,0.37281m25.69757,-19.38574l-17.76155,5.96485l13.98249,2.60962c1.51163,0.37281 3.02324,0.37281 4.53487,0.37281c5.29067,0.37281 11.33716,-0.37281 15.11621,-1.49121c5.29067,-1.86401 4.53487,-4.10083 -1.13372,-5.21924l-13.98249,-2.60962l-0.75581,0.37281" id="svg_278"/>
        </g>
        <path stroke="null" class="st19" d="m220.82914,351.88766l0,22.36817c5.29067,2.98242 13.6046,5.59204 24.18594,7.82886c10.58135,1.86401 22.67433,3.35522 35.1452,3.72803l0,-22.74096c-12.84878,-0.37281 -25.31966,-1.86401 -36.27891,-3.72803c-9.82554,-2.23682 -17.38364,-4.84644 -23.05222,-7.45605l0,-0.00001z" id="svg_279"/>
       </g>
      </g>
     </g>
     <g stroke="null" id="svg_280">
      <g stroke="null" id="svg_281">
       <g stroke="null" class="st37" id="svg_282">
        <g stroke="null" id="svg_283">
         <path stroke="null" class="st38" d="m220.45123,332.50192c-0.37791,-6.33764 -0.37791,-14.53931 -0.75581,-20.50414c0,4.10083 0.75581,15.65772 0.75581,20.13135l0,0.37281l0,-0.00001z" id="svg_284"/>
        </g>
        <g stroke="null" id="svg_285">
         <path stroke="null" class="st15" d="m393.15399,303.05051c0.37791,7.45605 0.75581,15.28491 0.75581,22.74096c0.37791,5.96485 -7.55811,11.92968 -23.43013,17.14892c-34.38939,11.55688 -94.47634,14.53931 -134.1564,7.08326c-21.1627,-4.10083 -32.12196,-10.43847 -32.49986,-17.14892l-0.75581,-22.74096c0.37791,6.71045 11.33716,13.04809 32.49986,17.14892c39.68006,7.45605 99.38912,4.47363 134.1564,-7.08326c15.87203,-5.21924 23.80804,-11.18408 23.43013,-17.14892z" id="svg_286"/>
        </g>
        <g stroke="null" id="svg_287">
         <path stroke="null" class="st38" d="m360.65412,285.90158c39.68006,7.45605 43.45912,23.11377 9.06973,34.29785c-34.38939,11.55688 -94.47634,14.53931 -134.1564,7.08326s-43.45912,-23.11377 -9.06973,-34.29785c34.7673,-11.55688 94.85425,-14.53931 134.1564,-7.08326zm-114.50533,38.02587c32.87776,6.33764 82.38337,3.72803 111.10418,-5.59204s25.31966,-22.36817 -7.55811,-28.333c-32.87776,-6.33764 -82.38337,-3.72803 -111.10418,5.59204c-28.34291,9.32007 -24.94176,21.99536 7.55811,28.333" id="svg_288"/>
        </g>
        <path stroke="null" class="st15" d="m350.07277,289.62961c32.87776,6.33764 35.90101,19.01294 7.55811,28.333c-28.72081,9.32007 -78.22641,11.92968 -111.10418,5.59204c-32.87776,-6.33764 -35.90101,-19.01294 -7.55811,-28.333c28.72081,-9.32007 78.22641,-11.92968 111.10418,-5.59204z" id="svg_289"/>
        <path stroke="null" class="st19" d="m238.96859,298.20407c28.72081,-9.32007 78.22641,-11.92968 111.10418,-5.96485c16.24993,2.98242 25.31966,7.82886 26.83128,13.04809c1.51163,-6.33764 -7.55811,-12.30249 -26.83128,-15.65772c-32.87776,-6.33764 -82.38337,-3.72803 -111.10418,5.59204c-14.3604,4.84644 -20.78479,10.43847 -19.27318,15.65772c1.13372,-4.47363 7.55811,-8.94727 19.27318,-12.67529z" id="svg_290"/>
        <g stroke="null" id="svg_291">
         <path stroke="null" class="st19" d="m318.32872,311.62497c2.26743,2.23682 0.75581,4.84644 -6.04649,7.08326c-7.55811,2.60962 -18.89527,3.72803 -29.47661,3.35522c-3.77906,0 -7.18021,-0.37281 -10.20345,-1.11841l-1.88952,-0.37281l-0.75581,0.37281l-2.26743,0.7456l-1.51163,-0.37281l-7.18021,-1.49121l3.02324,-1.11841l-5.29067,-1.11841l-0.75581,0.37281l-2.26743,0.7456l-1.51163,-0.37281l-7.18021,-1.49121l3.02324,-1.11841l-5.29067,-1.11841l7.18021,-2.23682l0.75581,-0.37281l3.77906,0.7456l1.51163,0.37281l21.54061,-7.08326l7.55811,-2.60962l18.51736,-5.96485l-5.29067,-1.11841l7.18021,-2.23682l0.75581,-0.37281l3.77906,0.7456l1.51163,0.37281l2.26743,-0.7456l0.75581,-0.37281l8.69182,1.86401l-3.02324,1.11841l3.77906,0.7456l1.51163,0.37281l2.26743,-0.7456l0.75581,-0.37281l8.69182,1.86401l-3.02324,1.11841c10.58135,1.86401 11.71506,6.33764 2.26743,9.32007c-4.53487,1.11841 -11.33716,2.23682 -18.13946,2.60962l-0.00001,0.00003zm-32.12196,7.08326c6.04649,0.37281 12.84878,-0.37281 17.38364,-1.86401c6.04649,-1.86401 5.29067,-4.47363 -1.51163,-5.96485l-15.87203,-2.98242l-0.75581,0.37281l-20.78479,7.08326l15.87203,2.98242c1.88952,0 3.77906,0.37281 5.66858,0.37281m25.69757,-19.38574l-17.76155,5.96485l13.98249,2.60962c1.51163,0.37281 3.02324,0.37281 4.53487,0.37281c5.29067,0.37281 11.33716,-0.37281 15.11621,-1.49121c5.29067,-1.86401 4.53487,-4.10083 -1.13372,-5.21924l-13.98249,-2.60962l-0.75581,0.37281" id="svg_292"/>
        </g>
        <g stroke="null" id="svg_293">
         <path stroke="null" class="st39" d="m318.32872,308.64254c2.26743,2.23682 0.75581,4.84644 -6.04649,7.08326c-7.55811,2.60962 -18.89527,3.72803 -29.47661,3.35522c-3.77906,0 -7.18021,-0.37281 -10.20345,-1.11841l-1.88952,-0.37281l-0.75581,0.37281l-2.26743,0.7456l-1.51163,-0.37281l-7.18021,-1.49121l3.02324,-1.11841l-5.29067,-1.11841l-0.75581,0.37281l-2.26743,0.7456l-1.51163,-0.37281l-7.18021,-1.49121l3.02324,-1.11841l-5.29067,-1.11841l7.18021,-2.23682l0.75581,-0.37281l3.77906,0.7456l1.51163,0.37281l21.54061,-7.08326l7.55811,-2.60962l18.51736,-5.96485l-5.29067,-1.11841l7.18021,-2.23682l0.75581,-0.37281l3.77906,0.7456l1.51163,0.37281l2.26743,-0.7456l0.75581,-0.37281l8.69182,1.86401l-3.02324,1.11841l3.77906,0.7456l1.51163,0.37281l2.26743,-0.7456l0.75581,-0.37281l8.69182,1.86401l-3.02324,1.11841c10.58135,1.86401 11.71506,6.33764 2.26743,9.32007c-4.53487,1.49121 -11.33716,2.23682 -18.13946,2.60962l-0.00001,0.00003zm-32.12196,7.08326c6.04649,0.37281 12.84878,-0.37281 17.38364,-1.86401c6.04649,-1.86401 5.29067,-4.47363 -1.51163,-5.96485l-15.87203,-2.98242l-0.75581,0.37281l-20.78479,7.08326l15.87203,2.98242c1.88952,0 3.77906,0.37281 5.66858,0.37281m25.69757,-19.01294l-17.76155,5.96485l13.98249,2.60962c1.51163,0.37281 3.02324,0.37281 4.53487,0.37281c5.29067,0.37281 11.33716,-0.37281 15.11621,-1.49121c5.29067,-1.86401 4.53487,-4.10083 -1.13372,-5.21924l-13.98249,-2.60962l-0.75581,0.37281" id="svg_294"/>
        </g>
        <path stroke="null" class="st19" d="m212.13731,320.19943l0,22.36817c5.29067,2.98242 13.6046,5.59204 24.18594,7.82886c10.58135,1.86401 22.67433,3.35522 35.1452,3.72803l0,-22.74096c-12.84878,-0.37281 -25.31966,-1.86401 -36.27891,-3.72803c-9.82554,-2.23682 -17.38364,-4.84644 -23.05222,-7.45605l0,-0.00001z" id="svg_295"/>
       </g>
      </g>
      <path stroke="null" class="st38" d="m229.14305,305.66012c-0.37791,-6.33764 -0.37791,-14.53931 -0.75581,-20.50414c0,4.10083 0.75581,15.65772 0.75581,20.13135c0,0 0,0 0,0.37281l0,-0.00001z" id="svg_296"/>
      <g stroke="null" id="svg_297">
       <path stroke="null" class="st15" d="m401.84581,276.20871c0.37791,7.45605 0.75581,15.28491 0.75581,22.74096c0.37791,5.96485 -7.55811,11.92968 -23.43013,17.14892c-34.38939,11.55688 -94.47634,14.53931 -134.1564,7.08326c-21.1627,-4.10083 -32.12196,-10.43847 -32.49986,-17.14892l-0.75581,-22.74096c0.37791,6.71045 11.33716,13.04809 32.49986,17.14892c39.68006,7.45605 99.38912,4.47363 134.1564,-7.08326c15.87203,-5.21924 23.80804,-11.18408 23.43013,-17.14892z" id="svg_298"/>
      </g>
      <g stroke="null" id="svg_299">
       <path stroke="null" class="st38" d="m369.34594,259.05979c39.30216,7.45605 43.45912,23.11377 9.06973,34.29785c-34.38939,11.55688 -94.47634,14.53931 -134.1564,7.08326s-43.45912,-23.11377 -9.06973,-34.29785c34.7673,-11.55688 94.85425,-14.53931 134.1564,-7.08326zm-114.12742,38.02587c32.87776,6.33764 82.38337,3.72803 111.10418,-5.59204c28.72081,-9.32007 25.31966,-22.36817 -7.55811,-28.333c-32.87776,-6.33764 -82.38337,-3.72803 -111.10418,5.59204s-25.31966,21.99536 7.55811,28.333" id="svg_300"/>
      </g>
      <path stroke="null" class="st15" d="m358.76459,262.78781c32.87776,6.33764 35.90101,19.01294 7.55811,28.333c-28.72081,9.32007 -78.22641,11.92968 -111.10418,5.59204s-35.90101,-19.01294 -7.55811,-28.333c28.72081,-9.32007 78.22641,-11.92968 111.10418,-5.59204z" id="svg_301"/>
      <path stroke="null" class="st19" d="m247.66041,271.36227c28.72081,-9.32007 78.22641,-11.92968 111.10418,-5.96485c16.24993,2.98242 25.31966,7.82886 26.83128,13.04809c1.51163,-6.33764 -7.55811,-12.30249 -26.83128,-15.65772c-32.87776,-6.33764 -82.38337,-3.72803 -111.10418,5.59204c-14.3604,4.84644 -20.78479,10.43847 -19.27318,15.65772c1.13372,-4.47363 7.55811,-8.94727 19.27318,-12.67529z" id="svg_302"/>
      <g stroke="null" id="svg_303">
       <path stroke="null" class="st19" d="m327.39845,284.78317c2.26743,2.23682 0.75581,4.84644 -6.04649,7.08326c-7.55811,2.60962 -18.89527,3.72803 -29.47661,3.35522c-3.77906,0 -7.18021,-0.37281 -10.20345,-1.11841l-1.88952,-0.37281l-0.75581,0.37281l-2.26743,0.7456l-1.51163,-0.37281l-7.18021,-1.49121l3.02324,-1.11841l-5.29067,-1.11841l-0.75581,0.37281l-2.26743,0.7456l-1.51163,-0.37281l-7.18021,-1.49121l3.02324,-1.11841l-5.29067,-1.11841l7.18021,-2.23682l0.75581,-0.37281l3.77906,0.7456l1.51163,0.37281l21.54061,-7.08326l7.55811,-2.60962l18.51736,-5.96485l-5.29067,-1.11841l7.18021,-2.23682l0.75581,-0.37281l3.77906,0.7456l1.51163,0.37281l2.26743,-0.7456l0.75581,-0.37281l8.69182,1.86401l-3.02324,1.11841l3.77906,0.7456l1.51163,0.37281l2.26743,-0.7456l0.75581,-0.37281l8.69182,1.86401l-3.02324,1.11841c10.58135,2.23682 11.71506,6.33764 2.26743,9.32007c-4.91277,1.11841 -11.33716,2.23682 -18.13946,2.60962l-0.00001,0.00003zm-32.49986,7.08326c6.04649,0.37281 12.84878,-0.37281 17.38364,-1.86401c6.04649,-1.86401 5.29067,-4.47363 -1.51163,-5.96485l-15.87203,-2.98242l-0.75581,0.37281l-20.78479,7.08326l15.87203,2.98242c1.88952,0 3.77906,0 5.66858,0.37281m25.69757,-19.38574l-17.76155,5.96485l13.98249,2.60962c1.51163,0.37281 3.02324,0.37281 4.53487,0.37281c5.29067,0.37281 11.33716,-0.37281 15.11621,-1.49121c5.29067,-1.86401 4.53487,-4.10083 -1.13372,-5.21924l-13.98249,-2.60962l-0.75581,0.37281" id="svg_304"/>
      </g>
      <g stroke="null" id="svg_305">
       <path stroke="null" class="st39" d="m327.39845,281.80075c2.26743,2.23682 0.75581,4.84644 -6.04649,7.08326c-7.55811,2.60962 -18.89527,3.72803 -29.47661,3.35522c-3.77906,0 -7.18021,-0.37281 -10.20345,-1.11841l-1.88952,-0.37281l-0.75581,0.37281l-2.26743,0.7456l-1.51163,-0.37281l-7.18021,-1.49121l3.02324,-1.11841l-5.29067,-1.11841l-0.75581,0.37281l-2.26743,0.7456l-1.51163,-0.37281l-7.18021,-1.49121l3.02324,-1.11841l-5.29067,-1.11841l7.18021,-2.23682l0.75581,-0.37281l3.77906,0.7456l1.51163,0.37281l21.54061,-7.08326l7.55811,-2.60962l18.51736,-5.96485l-5.29067,-1.11841l7.18021,-2.23682l0.75581,-0.37281l3.77906,0.7456l1.51163,0.37281l2.26743,-0.7456l0.75581,-0.37281l8.69182,1.86401l-3.40115,1.11841l3.77906,0.7456l1.51163,0.37281l2.26743,-0.7456l0.75581,-0.37281l8.69182,1.86401l-3.02324,1.11841c10.58135,1.86401 11.71506,6.33764 2.26743,9.32007c-4.53487,1.11841 -10.95925,2.23682 -17.76155,2.60962l-0.00001,0.00003zm-32.49986,7.08326c6.04649,0.37281 12.84878,-0.37281 17.38364,-1.86401c6.04649,-1.86401 5.29067,-4.47363 -1.51163,-5.96485l-15.87203,-2.98242l-0.75581,0.37281l-20.78479,7.08326l15.87203,2.98242c1.88952,0 3.77906,0.37281 5.66858,0.37281m25.69757,-19.38574l-17.76155,5.96485l13.98249,2.60962c1.51163,0.37281 3.02324,0.37281 4.53487,0.37281c5.29067,0.37281 11.33716,-0.37281 15.11621,-1.49121c5.29067,-1.86401 4.53487,-4.10083 -1.13372,-5.21924l-13.98249,-2.60962l-0.75581,0.37281" id="svg_306"/>
      </g>
      <path stroke="null" class="st19" d="m220.82914,293.35763l0,22.36817c5.29067,2.98242 13.6046,5.59204 24.18594,7.82886c10.58135,1.86401 22.67433,3.35522 35.1452,3.72803l0,-23.11377c-12.84878,-0.37281 -25.31966,-1.86401 -36.27891,-3.72803c-9.82554,-1.86401 -17.38364,-4.47363 -23.05222,-7.08326z" id="svg_307"/>
     </g>
    </g>
    <g stroke="null" id="svg_308">
     <g stroke="null" id="svg_309">
      <path stroke="null" class="st40" d="m246.1488,128.20605c7.55811,15.28491 26.45337,21.62255 42.3254,13.79369c15.87203,-7.45605 22.67433,-26.09619 15.11621,-41.3811s-26.45337,-21.62255 -42.3254,-13.79369c-15.87203,7.82886 -22.29642,26.46899 -15.11621,41.3811z" id="svg_310"/>
      <path stroke="null" class="st40" d="m230.27677,167.72313c9.44764,19.38574 33.25567,27.21459 53.28466,17.52173s28.34291,-32.80664 18.89527,-52.19237c-9.44764,-19.38574 -33.25567,-27.21459 -53.28466,-17.52173c-20.02898,9.32007 -28.34291,32.80664 -18.89527,52.19237z" id="svg_311"/>
      <g stroke="null" id="svg_312">
       <g stroke="null" id="svg_313">
        <g stroke="null" id="svg_314">
         <path stroke="null" class="st11" d="m263.91035,210.22264c0,0 1.13372,5.21924 -23.80804,11.55688c-25.31966,6.33764 -63.4881,9.32007 -63.4881,9.32007l56.6858,-19.75854c-0.37791,0 21.54061,-6.71045 30.61033,-1.11841l0.00001,0z" id="svg_315"/>
         <path stroke="null" class="st11" d="m196.64319,227.74436c-11.71506,3.35522 -15.11621,10.81128 -19.27318,13.79369c-4.15696,2.98242 -7.93601,7.08326 -7.93601,7.08326c1.13372,-5.59204 4.91277,-7.08326 6.42439,-9.32007c1.51163,-2.23682 1.13372,-1.11841 -3.02324,-0.37281c-2.26743,0.37281 -5.29067,5.96485 -7.93601,8.94727c-1.88952,2.60962 -3.77906,3.35522 -3.77906,3.35522s1.88952,-5.21924 4.91277,-9.69287c3.40115,-5.59204 8.31392,-10.43847 9.44764,-11.55688c2.26743,-1.86401 10.20345,-4.10083 15.87203,-5.21924c6.42439,0 13.6046,0.7456 5.29067,2.98242z" id="svg_316"/>
         <path stroke="null" class="st11" d="m175.8584,230.72678c0,0 -8.31392,4.84644 -9.82554,6.33764c-0.75581,1.11841 -4.15696,7.08326 -4.15696,7.08326s3.40115,-1.49121 4.53487,-3.72803c1.88952,-2.23682 9.44764,-9.69287 9.44764,-9.69287l-0.00001,0z" id="svg_317"/>
        </g>
        <path stroke="null" class="st41" d="m249.92784,202.76658c0,0 23.43013,-5.21924 25.69757,8.57446c1.51163,7.82886 -3.02324,11.92968 -10.20345,13.4209c-13.22669,2.60962 -28.34291,4.84644 -28.34291,4.84644l-12.47088,-19.01294l25.31966,-7.82886l0.00001,0z" id="svg_318"/>
       </g>
       <path stroke="null" class="st41" d="m248.41623,191.20971l6.42439,-63.00366c0,0 -0.37791,-16.40332 5.66858,-16.03051c8.69182,0.37281 10.20345,14.53931 10.95925,19.75854c1.51163,10.43847 3.77906,14.53931 3.40115,40.63549c0,16.03051 1.13372,34.29785 0,45.10913c-0.75581,7.45605 -7.93601,-0.7456 -15.87203,-1.49121c-13.98249,-1.11841 -10.58135,-24.97778 -10.58135,-24.97778z" id="svg_319"/>
      </g>
      <path stroke="null" class="st40" d="m276.00332,88.31616c7.55811,15.28491 26.45337,21.62255 42.3254,13.79369c15.87203,-7.45605 22.67433,-26.09619 15.11621,-41.3811c-7.55811,-15.28491 -26.45337,-21.62255 -42.3254,-13.79369s-22.67433,26.09619 -15.11621,41.3811z" id="svg_320"/>
      <path stroke="null" class="st40" d="m243.50345,78.62329c5.66858,11.55688 20.02898,16.77612 32.12196,10.81128l0.37791,-12.67529c11.71506,-5.59204 17.00574,-19.75854 10.95925,-31.68823l-3.77906,-7.82886c-5.66858,-11.55688 -20.02898,-16.77612 -32.12196,-10.81128l-5.29067,2.60962c-11.71506,5.59204 -17.00574,19.75854 -10.95925,31.68823l8.69182,17.89453l0,-0.00001z" id="svg_321"/>
      <path stroke="null" class="st12" d="m236.70116,43.20703c1.13372,1.86401 2.26743,3.72803 3.40115,5.59204c9.06973,12.67529 22.29642,19.01294 32.12196,15.65772c3.40115,5.96485 7.18021,10.81128 11.33716,14.9121c4.53487,4.47363 13.6046,7.08326 13.6046,7.08326c6.42439,8.94727 2.64534,33.92504 -19.65108,36.53467c-13.6046,1.49121 -10.58135,-12.30249 -6.04649,-21.24976c2.26743,-4.10083 4.15696,-8.94727 3.77906,-11.18408c-1.51163,-8.20166 -4.53487,-9.32007 -9.44764,-11.92968c-7.93601,-3.35522 -15.49412,0 -15.49412,0c-0.75581,0.37281 -1.51163,0.37281 -2.26743,0c-1.13372,-1.11841 -2.26743,-2.60962 -3.02324,-4.10083l-8.69182,-17.52173c-2.26743,-3.72803 -1.88952,-9.32007 0.37791,-13.79369l-0.00001,-0.00001z" id="svg_322"/>
      <path stroke="null" class="st14" d="m306.99156,252.72214c0,0 -10.20345,2.23682 -13.22669,2.98242c-3.77906,1.49121 -14.73831,-0.37281 -14.73831,-0.37281s-1.51163,-54.05639 -4.15696,-72.69653c-2.64534,-19.01294 -7.55811,-23.85937 -7.55811,-29.82422c0,-9.32007 0.75581,-11.55688 2.64534,-19.01294c1.51163,-7.45605 -3.40115,-17.14892 -1.51163,-15.28491c2.64534,2.98242 12.84878,7.82886 22.29642,-2.60962c1.51163,-1.86401 16.24993,136.81858 16.24993,136.81858l0,0.00002z" id="svg_323"/>
      <path stroke="null" class="st42" d="m270.71265,96.51782c0,0 -13.98249,13.79369 -13.22669,18.26733c0.37791,4.47363 -0.75581,23.48657 2.26743,43.99072c3.02324,20.13135 5.66858,25.35058 6.42439,40.26269c0.37791,14.9121 -3.02324,18.26733 -1.51163,36.16186c1.13372,14.1665 3.40115,26.8418 3.40115,26.8418s6.42439,1.86401 11.33716,-3.35522c4.91277,-5.21924 3.02324,-54.80199 1.51163,-67.10448c-1.88952,-12.30249 -9.06973,-44.36352 -8.69182,-52.56518c0.37791,-8.57446 3.40115,-28.70581 4.91277,-31.31542c3.02324,-6.71045 -5.29067,-10.43847 -6.42439,-11.18408l-0.00001,0z" id="svg_324"/>
      <path stroke="null" class="st41" d="m270.71265,95.39941c0,0 0.75581,1.11841 1.88952,1.86401c1.88952,1.11841 4.15696,3.72803 4.15696,3.72803s-2.64534,-1.49121 -3.77906,1.11841c-1.13372,2.98242 -2.26743,9.32007 -2.26743,9.32007s-5.29067,-8.20166 -3.77906,-11.18408c1.88952,-4.84644 3.77906,-4.84644 3.77906,-4.84644l0.00001,0z" id="svg_325"/>
      <path stroke="null" class="st40" d="m289.60791,128.20605c5.29067,16.77612 23.80804,26.46899 41.56959,20.87695c17.38364,-5.21924 27.58709,-23.48657 21.91851,-40.26269c-5.29067,-16.77612 -23.80804,-26.46899 -41.56959,-20.87695c-17.38364,5.21924 -27.20919,23.48657 -21.91851,40.26269z" id="svg_326"/>
      <polygon stroke="null" class="st12" points="176.9920716142774,377.6111187615643 176.23618436674997,409.2993091412609 169.4339267445398,417.1280530066979 152.05038651778568,427.19380820531296 138.82368835703573,424.9569841193552 161.87584514484888,407.80797865509885 163.38755636985707,374.2558046129525 " id="svg_327"/>
      <g stroke="null" id="w1l">
       <polygon stroke="null" class="st12" points="108.21324434188,367.54539477081926 87.05063168025708,413.02737008977056 57.57408180643915,413.77289489743634 42.457839519498975,410.7905147959427 74.57978913201123,403.3344553146635 91.96336099378868,360.834953720816 " id="svg_328"/>
       <path stroke="null" class="st14" d="m226.49771,274.7175l-69.53458,-1.86401l-51.77303,112.21361l-21.54061,-8.20166l50.63931,-134.95457c0,0 4.15696,-8.57446 24.94176,-8.57446c20.40689,0 103.16816,-2.23682 112.6158,0.37281c21.91851,5.96485 -49.1277,22.36817 -45.34864,41.0083l-0.00001,-0.00001z" id="svg_329"/>
       <path stroke="null" class="st14" d="m83.64949,420.48335l-3.77906,-0.7456l-2.26743,-4.84644l-23.80804,1.11841l-19.27318,-3.35522c0,0 0.37791,-1.49121 1.13372,-1.86401c3.40115,-1.86401 18.13946,-2.60962 18.13946,-2.60962s-1.51163,4.10083 0,4.84644c1.51163,0.7456 20.02898,-0.37281 24.56385,-0.7456c7.55811,-1.11841 11.71506,-2.98242 11.33716,-1.86401c0,0.7456 -6.04649,10.06567 -6.04649,10.06567l0.00001,-0.00001z" id="svg_330"/>
      </g>
      <path stroke="null" class="st43" d="m175.10259,416.38252l-6.04649,4.10083l-1.88952,-1.49121l-16.24993,10.06567c0,0 -14.73831,3.72803 -17.76155,0.37281c-0.75581,-1.11841 1.51163,-2.98242 4.91277,-5.21924c2.64534,-1.86401 4.15696,-2.60962 4.15696,-2.60962s0.75581,2.60962 6.42439,3.35522c1.88952,0.37281 13.6046,-7.45605 17.38364,-9.32007c7.18021,-3.35522 10.20345,-8.57446 10.20345,-8.20166c1.51163,1.86401 -1.13372,8.94727 -1.13372,8.94727l0,0.00001z" id="svg_331"/>
      <path stroke="null" class="st44" d="m315.30548,209.10423l-8.31392,19.75854l-14.3604,1.86401l-116.77276,7.45605c0,0 -10.58135,-3.35522 -17.00574,13.04809c-9.44764,23.11377 3.02324,139.0554 3.02324,139.0554l17.38364,-0.37281l9.44764,-109.23118c0,0 112.23789,19.38574 144.35985,9.69287c12.47088,-3.72803 21.91851,-25.35058 20.02898,-46.97314c-1.51163,-17.14892 -12.84878,-32.80664 -12.84878,-32.80664l-24.94176,-1.49121l0.00001,0.00001z" id="svg_332"/>
      <path stroke="null" class="st42" d="m299.43345,250.11253c0,0 -5.29067,-48.09154 -8.31392,-71.20531c-3.02324,-22.74096 -2.26743,-61.13964 -3.02324,-66.73168s-3.77906,-13.4209 -3.77906,-13.4209s5.66858,-12.30249 12.84878,-11.92968c6.42439,0.37281 26.83128,7.08326 36.65682,11.18408c6.8023,2.60962 3.40115,79.77977 3.77906,83.5078c2.26743,14.53931 9.44764,31.31542 14.3604,42.87231c3.77906,9.32007 6.8023,22.74096 6.8023,22.74096s-37.41263,-3.72803 -59.33115,2.98242l0.00001,0z" id="svg_333"/>
      <path stroke="null" class="st41" d="m295.65439,83.46973l-5.66858,5.96485c0,0 -7.55811,10.43847 -5.29067,8.94727c3.02324,-1.86401 6.8023,8.94727 6.8023,8.94727l10.20345,-20.50414l-6.04649,-3.35522l0,-0.00001z" id="svg_334"/>
      <g stroke="null" id="svg_335">
       <path stroke="null" class="st12" d="m340.24723,200.52977c0,0 8.69182,5.96485 -23.80804,9.32007c-32.12196,3.35522 -80.49385,0.7456 -80.49385,0.7456l73.69155,-13.79369c0.37791,0 20.78479,-4.10083 30.61033,3.72803l0.00001,-0.00001z" id="svg_336"/>
       <path stroke="null" class="st12" d="m262.02081,210.22264c-15.11621,1.86401 -20.78479,9.69287 -26.83128,12.67529c-5.66858,2.98242 -11.33716,7.08326 -11.33716,6.71045c2.64534,-6.33764 7.55811,-7.08326 9.82554,-9.32007c2.26743,-2.23682 1.51163,-1.11841 -3.77906,-0.7456c-3.02324,0.37281 -7.93601,5.96485 -11.33716,8.94727c-3.02324,2.60962 -5.29067,3.35522 -5.29067,3.35522s3.40115,-5.59204 7.93601,-10.06567c5.29067,-5.59204 12.47088,-10.43847 13.98249,-11.55688c3.02324,-1.49121 13.22669,-3.35522 20.78479,-3.35522c8.31392,0 17.00574,1.86401 6.04649,3.35522l0.00001,0z" id="svg_337"/>
       <path stroke="null" class="st11" d="m235.94535,210.59544c0,0 -11.33716,4.10083 -13.22669,5.96485c-1.13372,1.11841 -6.42439,7.45605 -6.42439,7.45605s4.15696,-1.11841 6.42439,-3.72803c2.26743,-2.60962 13.22669,-9.69287 13.22669,-9.69287z" id="svg_338"/>
      </g>
      <path stroke="null" class="st41" d="m321.35196,191.5825l-10.58135,-70.0869c0,0 2.64534,-14.53931 7.18021,-19.38574c5.29067,-5.96485 15.49412,-4.10083 15.49412,-4.10083s12.09297,9.69287 12.84878,65.24047c0.75581,38.02587 4.15696,53.68359 -12.47088,55.1748c-15.49412,1.49121 -33.25567,2.60962 -33.25567,2.60962l-11.71506,-22.74096l32.49986,-6.71045l-0.00001,-0.00002z" id="svg_339"/>
     </g>
     <g stroke="null" id="svg_340">
      <rect stroke="null" x="132.02137" y="229.60838" class="st17" width="101.65655" height="2.23682" id="svg_341"/>
      <path stroke="null" class="st17" d="m188.70717,229.23558c0,1.49121 -1.13372,2.98242 -2.64534,2.98242l-52.15094,0c-1.51163,0 -3.40115,-1.11841 -4.91277,-5.21924l-25.69757,-46.60034c0,-1.86401 1.51163,-3.35522 3.02324,-2.98242l53.66256,1.49121c1.51163,0.37281 2.64534,1.49121 3.40115,3.35522l25.31966,46.97314l0.00001,0z" id="svg_342"/>
      <path stroke="null" class="st18" d="m182.66069,231.47239l0.37791,0l51.01722,0c-1.88952,1.11841 -4.91277,1.49121 -8.31392,1.49121l-42.70331,0l-0.37791,0l-42.70331,0c-3.40115,0 -6.42439,-0.7456 -8.31392,-1.49121l51.01722,0l0.00002,0z" id="svg_343"/>
     </g>
    </g>
   </g>
  </g>
 </g>
</svg>