<?xml version="1.0" encoding="utf-8"?>
<!-- Generator: Adobe Illustrator 17.0.0, SVG Export Plug-In . SVG Version: 6.00 Build 0)  -->
<!DOCTYPE svg PUBLIC "-//W3C//DTD SVG 1.1//EN" "http://www.w3.org/Graphics/SVG/1.1/DTD/svg11.dtd">
<svg version="1.1" id="Layer_1" xmlns="http://www.w3.org/2000/svg" xmlns:xlink="http://www.w3.org/1999/xlink" x="0px" y="0px"
	 width="800px" height="600px" viewBox="0 0 800 600" enable-background="new 0 0 800 600" xml:space="preserve">
<g>
	<path fill-rule="evenodd" clip-rule="evenodd" d="M397.502,53.497c0,0,5.175-3.818,7.09-0.801c2.999-2.449,8.492-4.756,7.12,1.283
		c3.09-1.801,7.014-3.134,8.914-0.602c1.897,2.533-3.539,6.237-6.822,7.505c4.473,3.652,0.482,6.485,0.482,6.485l6.308,4.118
		c0,0,7.734-15.6,15.061-12.839c3.016,1.136,4.622,4.104,4.931,7.283c0.313,3.179-1.247,6.668-2.833,8.558s-4.676,3.821-4.676,3.821
		s6.912,7.275,9.507,17.41c2.593,10.135,4.008,31.758-7.962,48.878c-1.925,2.75-5.385,7.28-5.385,7.28s4.196,10.004,5.696,23.76
		c1.498,13.755,0.048,22.117,0.048,22.117l4.953,3.392c0,0,5.601-11.127,7.643-14.708c4.559-7.988,10.357-14.99,16.995-21.33
		c12.638-12.073,31.978-24.03,50.217-17.565c15.88,5.627,17.442,27.975,7.224,39.148c-13.252,14.492-31.749,20.76-49.187,28.405
		c7.12,3.18,28.622,14.507,36.164,18.082c11.294,5.361,49.107,21.36,52.106,23.232c3.483,2.174,6.1,5.337,6.882,11.976
		c0.864,7.328,1.867,18.169-1.627,23.791c-2.876,4.627-11.13,6.753-11.13,6.753l-0.125,6.253c0,0,8.732,6.028,10.378,8.63
		c8.635,13.634-13.378,31.759-13.378,31.759s-5.927,30.859-7.965,42.503c-2.038,11.642-6.994,32.084-9.166,48.657
		c-6.286,7.474-24.804,16.126-24.804,16.126s-4.337,4.213-9.46,6.88c-5.123,2.666-11.556,4.521-11.556,4.521
		s-20.683,11.943-30.319,17.438c-3.408,1.947-13.263,7.548-13.263,7.548s0.372,11.003-0.253,22.008
		c-0.395,6.986-1.249,25.383-1.249,25.383s4.127,7.63,9.255,12.131c8.872,7.788,20.625,16.025,28.443,16.453
		c7.816,0.43,29.83,2.122,14.194,7.18c-23.987,7.755-47.674-5.588-63.046-23.289c-1.601,2.779-2.6,5.653-4.35,9.03
		c-3.282-0.83-7.987-2.645-8.505-6.627c-0.439-3.382,5.502-14.501,5.502-14.501s0.249-6.251,1.376-10.128
		c3.258-11.215,2.751-34.141,2.751-34.141s-46.417-16.956-57.249-21.217c-14.856-5.849-28.86-12.152-45.632-21.358
		c-2.031,6.564-1.493,22.185,0.97,27.697c4.177,9.346,8.652,16.936,13.406,26.031c4.404,8.419,10.668,17.626,13.942,26.448
		c3.617,9.765-0.277,12.999-9.551,15.013c-0.791-3.844-1.292-7.096-2.39-10.236c-3.777,3.892-10.707,9.24-15.696,12.284
		c-7.58,4.626-15.901,8.12-24.292,10.971c-6.523,2.215-12.334,3.68-19.234,3.166c-3.248-0.238-15.499-4.216-6.348-6.804
		c14.759-4.168,28.717-12.587,42.443-19.648c3.624-1.862,7.165-4.004,10.162-6.793c-2.202-3.362-4.326-6.774-6.333-10.257
		c-4.996-8.68-9.229-17.824-12.124-27.427c-2.74-9.086-4.248-18.523-4.406-28.017c-0.078-4.62-0.972-22.241-0.972-22.241
		s-36.619-18.025-54.809-27.213c-12.142-6.13-28.158-14.244-28.145-28.823c0.015-10.45,0.026-20.917,0.858-31.34
		c0.882-11.106,2.079-21.042,3.202-33.171c0.754-8.105,2.377-24.384,2.377-24.384s-7.859-9.505-9.493-22.008
		c-1.636-12.504-0.076-15.988,5.51-21.572c1.566-1.564,5.233-1.184,5.233-1.184s0.49-13.932,1.495-22.534
		c1.005-8.603,3.008-19.232,6.513-23.609c9.162-2.561,43-9.357,55.52-11.345c17.185-2.727,35.383-5.535,35.383-5.535
		s4.641-5.368,17.258-6.376c6.253-0.501,15.504,1,15.504,1s7.347-1.087,10.38-1.375c8.471-0.804,14.378-1.376,23.257-1.25
		c9.376,2.746,24.134,11.503,24.134,11.503s0.501-9.753-1.344-21.684c-0.728-4.709-2.092-9.286-2.092-9.286s-4.67,2.017-9.116,3.066
		c-4.728,1.117-6.977,0.152-6.977,0.152s-1.284,3.991-4.505,7.208c-1.88,1.88-6.928,1.697-8.494,0.514
		c-4.041-3.052-3.863-14.158-3.863-14.158s-9.432-5.245-13.025-10.256c-5.022-7.004-8.255-15.248-10.111-23.628
		c-1.05-4.738-1.67-11.468-1.835-16.315c-2.185,1.159-5.886,3.426-6.804-0.153c-0.916-3.58,1.013-9.758,1.013-9.758
		s-5.793-2.832,2.74-11.395c-9.587-2.749,1.128-9.614,4.082-11.26c1.566-0.871,12.131-5.061,7.669-7.571
		c-3.567-2.003-4.369-4.863,0.302-6.441c3.075-1.039,6.42-1.164,9.443-2.364c1.16-3.037,1.288-10.239,6.85-6.75
		c3.252,2.042,3.446,1.105,5.011-1.528C390.769,47.4,397.502,53.497,397.502,53.497z M458.456,201.557
		c3.745-1.153,9.793-3.746,19.877-10.661c10.085-6.914,17.144-12.1,13.542-18.006c-3.602-5.906-18.726,6.194-27.369,12.821
		c-8.643,6.627-16.569,19.158-16.569,19.158S454.709,202.709,458.456,201.557z"/>
	<linearGradient id="SVGID_1_" gradientUnits="userSpaceOnUse" x1="353.4729" y1="79.1882" x2="419.3671" y2="79.1882">
		<stop  offset="0" style="stop-color:#EABF7F"/>
		<stop  offset="0.1619" style="stop-color:#E6B879"/>
		<stop  offset="0.3916" style="stop-color:#DBA667"/>
		<stop  offset="0.6619" style="stop-color:#C8874A"/>
		<stop  offset="0.9609" style="stop-color:#AF5D23"/>
		<stop  offset="1" style="stop-color:#AB571D"/>
	</linearGradient>
	<path fill-rule="evenodd" clip-rule="evenodd" fill="url(#SVGID_1_)" d="M389.397,57.102c0.512-1.802,0.164-3.914,2.059-5.407
		c3.98-0.114,6.178,5.02,6.178,5.02s1.672-2.628,3.626-3.518c2.502,0.281,1.523,3.775,1.523,3.775s3.206-5.041,7.345-4.116
		c1.113,1.822-2.066,5.018-2.066,5.018s6.456-4.275,11.278-3.653c0.48,4.413-5.741,4.899-8.87,6.822
		c0.927,1.347,3.427,1.121,3.412,3.412c-2.952,1.686-6.05-1.735-10.577-0.682c-1.675,0.94-1.571,3.662-2.046,5.8
		c-2.963,3.929-7.031-0.967-9.896-0.682c-3.581,0.357-4.415,4.429-4.801,7.26c-7.47-0.986-11.068,3.991-12.615,6.308
		c-7.595-0.772-9.458,12.7-13.514,19.308c-0.91,1.48-2.96,6.564-5.793,4.376c-2.833-2.187,2.189-9.91,5.337-14.734
		c-2.634,1.218-3.245,2.901-5.119,4.093c-4.523-3.998,3.312-8.453,5.119-11.599c-0.458-1.936-4.635-0.145-4.78-2.388
		c1.753-3.026,4.244-4.938,7.507-6.824c3.261-1.887,8.874-2.652,9.183-6.134c0.255-2.889-2.176-2.122-3.042-4.785
		c1.789-3.717,7.643-4.75,11.794-3.325c-0.127-1.673-0.132-3.414,0.149-5.544C381.538,49.174,387.555,54.898,389.397,57.102z"/>
	<linearGradient id="SVGID_2_" gradientUnits="userSpaceOnUse" x1="360.9487" y1="129.6491" x2="441.5277" y2="129.6491">
		<stop  offset="0" style="stop-color:#F7E8D6"/>
		<stop  offset="0.5808" style="stop-color:#F7E7D4"/>
		<stop  offset="0.79" style="stop-color:#F5E2CD"/>
		<stop  offset="0.9386" style="stop-color:#F3DBC2"/>
		<stop  offset="1" style="stop-color:#F1D6BA"/>
	</linearGradient>
	<path fill-rule="evenodd" clip-rule="evenodd" fill="url(#SVGID_2_)" d="M428.213,78.787c2.63,2.129,9.372,6.272,11.601,18.424
		c2.228,12.152,2.457,19.583-0.343,31.046c-1.426,5.845-4.317,11.653-7.505,15.695c-1.659,2.103-7.507,7.505-7.507,7.505
		s2.764,4.859,3.414,6.824c3.513,10.656,7.357,27.09,4.516,38.649c-3.626-0.25-9.628-4.877-9.628-4.877s0.249-8.879-0.376-16.506
		c-0.624-7.627-1.573-12.998-3.725-18.974c-5.141,1.322-10.748,5.498-16.718,3.754c0.797-10.138,4.767-19.478,3.071-32.412
		c-0.439-3.342-1.361-9.4-3.412-8.871c-2.82,0.727,1.154,7.369,1.024,6.824c1.971,8.236,0.598,16.549-1.364,24.905
		c-1.441,6.127-3.926,19.031-9.555,18.765c-3.6-0.169-4.337-4.244-4.095-8.189c0.236-3.808,0.175-7.688-0.103-11.451
		c-0.441-5.928-1.601-12.679-2.625-16.184c-1.024-3.504-1.234-5.256-3.753-6.142c-1.789,1.543,0.518,3.122,1.022,4.776
		c1.742,5.71,2.749,14.271,2.221,21.288c-6.452-1.235-10.372-5.727-14.415-12.743c-3.343-5.796-5.791-13.658-6.91-21.51
		c-0.348-2.434-2.1-14.143-2.1-14.143s3.626-8.343,5.169-11.786c1.867-4.163,2.809-9.904,9.212-9.212
		c2.628-3.872,6.563-8.457,13.648-5.8c1.502-2.311-1.104-5.605,1.703-7.165c3.131-0.446,3.796,2.173,6.141,2.388
		c4.968,0.454,5.953-3.987,8.531-7.165c8.021,0.62,11.377,5.909,17.058,8.871c1.385-4.027,5.573-13.734,10.919-12.964
		c2.708,0.39,4.918,3.147,3.41,7.846C435.564,73.925,430.843,75.765,428.213,78.787z M412.176,100.623
		c-3.25,1.871-6.72,5.536-6.482,8.528c3.207,0.876,3.217-1.982,5.798-2.388c6.478-1.015,12.057,6.993,12.626,12.624
		c0.344,3.423-0.192,8.479-1.024,11.941c-1.834,7.643-7.928,12.001-8.189,16.377c7.023-3.808,11.208-15.355,11.258-25.93
		c0.007-1.569,0.052-3.838-0.341-5.458c-1.543-6.363-7.584-8.889-10.917-13.306c1.504-2.829,6.911-0.659,8.189-3.071
		C420.692,96.527,414.912,99.048,412.176,100.623z M381.812,114.952c2.898-0.013,3.592-6.517-0.681-4.777
		C378.809,111.119,379.022,114.964,381.812,114.952z M372.259,123.481c2.051,0.005,3.509-0.586,3.072-3.07
		C373.352,118.277,370.092,121.536,372.259,123.481z"/>
	<path fill-rule="evenodd" clip-rule="evenodd" d="M423.096,99.94c-1.277,2.412-6.685,0.241-8.189,3.071
		c3.334,4.416,9.374,6.943,10.917,13.306c0.393,1.619,0.348,3.889,0.341,5.458c-0.05,10.575-4.235,22.122-11.258,25.93
		c0.261-4.376,6.355-8.734,8.189-16.377c0.832-3.462,1.368-8.518,1.024-11.941c-0.57-5.631-6.148-13.639-12.626-12.624
		c-2.582,0.406-2.591,3.264-5.798,2.388c-0.238-2.992,3.232-6.657,6.482-8.528C414.912,99.048,420.692,96.527,423.096,99.94z"/>
	<path fill-rule="evenodd" clip-rule="evenodd" d="M381.131,110.175c4.274-1.74,3.58,4.764,0.681,4.777
		C379.022,114.964,378.809,111.119,381.131,110.175z"/>
	<path fill-rule="evenodd" clip-rule="evenodd" d="M375.33,120.411c0.437,2.484-1.02,3.075-3.072,3.07
		C370.092,121.536,373.352,118.277,375.33,120.411z"/>
	<linearGradient id="SVGID_3_" gradientUnits="userSpaceOnUse" x1="525.5648" y1="183.1293" x2="438.3397" y2="183.1293">
		<stop  offset="0" style="stop-color:#C0001F"/>
		<stop  offset="0.4802" style="stop-color:#BE011F"/>
		<stop  offset="0.6815" style="stop-color:#B70520"/>
		<stop  offset="0.8307" style="stop-color:#AA0B20"/>
		<stop  offset="0.9534" style="stop-color:#991421"/>
		<stop  offset="1" style="stop-color:#901922"/>
	</linearGradient>
	<path fill-rule="evenodd" clip-rule="evenodd" fill="url(#SVGID_3_)" d="M441.861,215.257c1.832-4.866,5.7-8.217,5.7-8.217
		s12.829-3.656,17.529-5.542c5.99-2.405,14.225-7.725,19.335-11.73c4.27-3.351,11.699-8.158,11.683-14.771
		c-0.009-3.159-2.77-6.124-6.143-6.482c-4.499-0.478-11.699,4.337-14.951,6.301c-9.817,5.924-19.847,16.755-22.943,21.138
		c-3.094,4.383-5.856,8.754-9.529,13.161c-0.916,1.096-2.2,3.353-4.093,2.73c-0.791-4.679,2.891-9.425,5.374-14.086
		c2.424-4.549,7.602-13.921,13.015-20.624c5.417-6.701,11.044-12.305,18.308-17.658c7.262-5.354,19.153-9.702,24.746-10.054
		c4.721-0.298,9.998-0.174,14.639,2.033c9.864,4.691,14.873,19.73,7.532,30.707c-7.157,10.698-22.2,17.574-31.838,22.428
		c-8.866,4.465-19.354,8.029-23.071,9.409C461.017,216.278,449.834,218.648,441.861,215.257z"/>
	<path fill-rule="evenodd" clip-rule="evenodd" fill="#F0F7FC" d="M434.668,202.142c-6.96-1.546-13.401-1.453-18.739,0.492
		c-1.216,0.444-2.329,2.622-3.753,2.729c-1.74,0.13-8.449-4.986-10.916-6.482c-9.023-5.475-17.82-8.959-27.978-13.306
		c1.813-1.941,6.692-2.749,9.21-3.07c4.268-0.541,11.988-0.441,15.696,0.682c3.6,1.092,8.291,3.849,12.622,5.8
		c4.281,1.929,8.95,4.17,12.284,6.141C426.362,197.06,432.239,200.345,434.668,202.142z"/>
	<linearGradient id="SVGID_4_" gradientUnits="userSpaceOnUse" x1="328.0924" y1="202.8004" x2="409.7921" y2="202.8004">
		<stop  offset="0" style="stop-color:#C0001F"/>
		<stop  offset="0.3396" style="stop-color:#BD021F"/>
		<stop  offset="0.5924" style="stop-color:#B40720"/>
		<stop  offset="0.8166" style="stop-color:#A30F21"/>
		<stop  offset="1" style="stop-color:#901922"/>
	</linearGradient>
	<path fill-rule="evenodd" clip-rule="evenodd" fill="url(#SVGID_4_)" d="M409.788,211.505c-2.818,1.303-5.761-1.393-8.187-2.73
		c-2.608-1.436-5.303-2.877-8.189-4.094c-8.243-3.479-16.037-7.688-26.613-8.871c-6.772-0.757-17.881,0.838-17.058,8.529
		c0.592,5.517,10.912,6.93,17.058,8.871c1.396,0.441,29.236,4.186,36.289,5.43c-1.502,2.085-14.391,2.115-17.524,2.418
		c-10.136,0.98-18.486,0.554-26.954-1.365c-10.363-2.349-20.251-5.449-26.61-11.6c-9.923-9.597,0.804-22.843,12.621-23.884
		c12.267-1.078,24.722,2.988,35.144,6.824c5.179,1.907,11.947,5.618,17.057,8.529C402.178,202.614,410.002,205.448,409.788,211.505z
		"/>
	<path fill-rule="evenodd" clip-rule="evenodd" fill="#F0F7FC" d="M293.089,195.805c11.926-2.183,31.526-5.229,34.513-5.752
		c-1.873,2.625-2.388,5.439-2.749,8.253c-0.666,5.16,0.836,8.229,3.626,11.253c5.826,6.319,18.473,10.03,25.755,13.129
		c-2.373,2.252-5.871,4.866-8.928,7.922c-2.172,2.17-8.827,9.21-8.827,9.21s-35.321-14.652-47.266-19.758
		c-9.413-4.024-40.515-15.005-40.515-15.005S285.068,197.271,293.089,195.805z"/>
	<path fill-rule="evenodd" clip-rule="evenodd" fill="#F0F7FC" d="M389.425,206.396c-4.125,1.29-7.088,1.676-9.538,2.707
		c-2.414,1.015-9.408,3.222-9.408,3.222s-10.458-2.545-14.438-5.028c-3.429-2.14-4.864-5.442-0.843-7.734
		c5.8-3.304,18.041,0.259,23.544,2.048C382.369,202.79,388.243,204.17,389.425,206.396z"/>
	<linearGradient id="SVGID_5_" gradientUnits="userSpaceOnUse" x1="412.9692" y1="215.2259" x2="436.496" y2="215.2259">
		<stop  offset="0" style="stop-color:#C0001F"/>
		<stop  offset="0.4802" style="stop-color:#BE011F"/>
		<stop  offset="0.6815" style="stop-color:#B70520"/>
		<stop  offset="0.8307" style="stop-color:#AA0B20"/>
		<stop  offset="0.9534" style="stop-color:#991421"/>
		<stop  offset="1" style="stop-color:#901922"/>
	</linearGradient>
	<path fill-rule="evenodd" clip-rule="evenodd" fill="url(#SVGID_5_)" d="M416.108,204.591c5.921-1.773,13.417-2.929,17.658,1.031
		c1.953,1.823,3.075,8.983,2.636,12.365c-0.177,1.347-1.336,1.954-2.049,3.754c-0.707,1.795-0.21,3.126-1.02,4.094
		c-2.144,2.554-8.859,1.941-12.284-0.342c-0.935-0.623-5.639-5.303-6.484-6.482C411.365,214.549,413.554,208.459,416.108,204.591z"
		/>
	<path fill-rule="evenodd" clip-rule="evenodd" fill="#CCE2DC" d="M334.354,242.321c-3.252,4.251-7.381,9.753-10.504,14.379
		c-3.125,4.627-5.002,8.128-8.377,14.381c-23.062-10.06-74.903-32.762-79.907-35.763c-0.061-10.211,3.181-22.395,7.628-28.761
		c9.13,1.626,17.645,5.15,27.051,8.701c7.297,2.755,14.808,5.5,21.496,8.53C306.374,230.419,322.426,235.009,334.354,242.321z"/>
	<linearGradient id="SVGID_6_" gradientUnits="userSpaceOnUse" x1="375.3768" y1="212.318" x2="406.3106" y2="212.318">
		<stop  offset="0" style="stop-color:#C0001F"/>
		<stop  offset="0.4802" style="stop-color:#BE011F"/>
		<stop  offset="0.6815" style="stop-color:#B70520"/>
		<stop  offset="0.8307" style="stop-color:#AA0B20"/>
		<stop  offset="0.9534" style="stop-color:#991421"/>
		<stop  offset="1" style="stop-color:#901922"/>
	</linearGradient>
	<path fill-rule="evenodd" clip-rule="evenodd" fill="url(#SVGID_6_)" d="M406.311,215.29c-2.061,0.772-8.073,0.056-10.51-0.033
		c-5.32-0.19-20.424-2.288-20.424-2.288s8.211-3.174,10.439-3.609C391.761,208.199,403.515,209.671,406.311,215.29z"/>
	<path fill-rule="evenodd" clip-rule="evenodd" fill="#F0F7FC" d="M556.43,258.701l-28.937,9.098c0,0-42.797-28.061-47.082-31.046
		c-2.779-1.939-22.736-14.157-25.588-16.036c4.369,0.033,14.7-4.53,14.7-4.53s24.434,12.732,36.137,18.519
		c4.737,2.344,9.583,4.388,13.987,7.165c4.389,2.767,9.54,4.338,14.331,6.822C538.832,251.211,556.43,258.701,556.43,258.701z"/>
	<linearGradient id="SVGID_7_" gradientUnits="userSpaceOnUse" x1="425.3814" y1="266.1435" x2="462.2023" y2="266.1435">
		<stop  offset="0" style="stop-color:#C0001F"/>
		<stop  offset="0.4802" style="stop-color:#BE011F"/>
		<stop  offset="0.6815" style="stop-color:#B70520"/>
		<stop  offset="0.8307" style="stop-color:#AA0B20"/>
		<stop  offset="0.9534" style="stop-color:#991421"/>
		<stop  offset="1" style="stop-color:#901922"/>
	</linearGradient>
	<path fill-rule="evenodd" clip-rule="evenodd" fill="url(#SVGID_7_)" d="M425.381,302.593c5.877-4.003,11.375-8.499,14.771-14.665
		c5.789-10.502,12.825-26.336,8.19-42.305c-0.944-3.25-3.021-7.09-4.777-9.894c-2.861-4.569-8.06-7.056-5.458-13.988
		c3.433-1.59,9.447,3.499,12.282,7.505c3.797,5.367,6.616,14.67,8.87,23.2c2.035,7.703,4.691,19.042,1.364,27.977
		c-1.871,5.023-5.618,11.377-9.212,16.037c-3.261,4.225-12.902,14.385-12.902,14.385S427.701,305.294,425.381,302.593z"/>
	<path fill-rule="evenodd" clip-rule="evenodd" fill="#F0F7FC" d="M409.449,223.446c-2.172,2.734-6.013,4.382-9.555,6.142
		c-9.721,4.829-21.405,11.381-30.364,16.717c-1.928,1.148-6.141,4.094-6.141,4.094s-8.849-2.054-11.941-4.094
		c3.576-7.168,10.009-13.917,17.058-18.765c1.848-1.269,3.578-2.814,5.8-3.07C385.002,223.239,398.239,222.306,409.449,223.446z"/>
	<linearGradient id="SVGID_8_" gradientUnits="userSpaceOnUse" x1="316.2563" y1="254.9857" x2="365.0959" y2="254.9857">
		<stop  offset="0" style="stop-color:#C0001F"/>
		<stop  offset="0.4802" style="stop-color:#BE011F"/>
		<stop  offset="0.6815" style="stop-color:#B70520"/>
		<stop  offset="0.8307" style="stop-color:#AA0B20"/>
		<stop  offset="0.9534" style="stop-color:#991421"/>
		<stop  offset="1" style="stop-color:#901922"/>
	</linearGradient>
	<path fill-rule="evenodd" clip-rule="evenodd" fill="url(#SVGID_8_)" d="M365.096,224.811c-2.511,5.227-7.744,7.529-11.258,11.941
		c-4.553,5.707-8.369,12.958-12.286,20.129c-3.836,7.026-6.632,13.598-9.08,20.825c-0.83,2.453-2.751,6.253-3.379,9.129
		c-3.751-0.75-11.828-3.028-12.786-7.096c-0.467-1.975,2.42-7.879,3.753-10.575c3.386-6.859,5.851-10.056,9.892-16.035
		c7.064-10.443,16.979-22.311,27.637-29.342C359.324,222.643,364.327,223.022,365.096,224.811z"/>
	<linearGradient id="SVGID_9_" gradientUnits="userSpaceOnUse" x1="444.4632" y1="247.1473" x2="524.7929" y2="247.1473">
		<stop  offset="0" style="stop-color:#C0001F"/>
		<stop  offset="0.4802" style="stop-color:#BE011F"/>
		<stop  offset="0.6815" style="stop-color:#B70520"/>
		<stop  offset="0.8307" style="stop-color:#AA0B20"/>
		<stop  offset="0.9534" style="stop-color:#991421"/>
		<stop  offset="1" style="stop-color:#901922"/>
	</linearGradient>
	<path fill-rule="evenodd" clip-rule="evenodd" fill="url(#SVGID_9_)" d="M524.793,269.204c0,0-6.954,2.296-9.579,3.372
		c-2.196,0.898-6.482,2.046-6.482,2.046s-25.999-14.985-36.166-20.811c-4.051-2.321-9.949-5.39-11.26-7.506
		c-0.975-1.575-1.242-4.145-2.046-6.141c-1.134-2.811-4.702-9.011-8.092-13.403c-3.446-4.459-6.705-7.088-6.705-7.088
		s9.948,3.97,12.611,5.324c8.723,4.436,18.602,11.313,26.705,16.574C496.73,249.981,524.793,269.204,524.793,269.204z"/>
	<linearGradient id="SVGID_10_" gradientUnits="userSpaceOnUse" x1="366.9836" y1="240.9444" x2="421.1278" y2="240.9444">
		<stop  offset="0" style="stop-color:#C0001F"/>
		<stop  offset="0.4802" style="stop-color:#BE011F"/>
		<stop  offset="0.6815" style="stop-color:#B70520"/>
		<stop  offset="0.8307" style="stop-color:#AA0B20"/>
		<stop  offset="0.9534" style="stop-color:#991421"/>
		<stop  offset="1" style="stop-color:#901922"/>
	</linearGradient>
	<path fill-rule="evenodd" clip-rule="evenodd" fill="url(#SVGID_10_)" d="M421.128,228.94c-2.898,4.011-8.429,7.219-13.252,10.503
		c-4.343,2.956-8.701,6.398-12.379,9.505c-2.992,2.521-12.007,9.503-12.007,9.503s-14.73-4.353-16.507-6.127
		c3.351-4.565,11.811-8.031,18.24-11.817c2.956-1.741,6.15-3.55,9.212-5.118c5.791-2.965,19.693-11.95,19.693-11.95
		S416.878,227.315,421.128,228.94z"/>
	<path fill-rule="evenodd" clip-rule="evenodd" fill="#F0F7FC" d="M446.764,261.452c-1.508,9.74-6.253,19.007-6.253,19.007
		l-53.895-21.382c0,0,14.384-12.504,21.384-17.507c7.003-5.003,11.63-9.129,15.629-11.13c7.88,3.002,11.63-0.624,11.63-0.624
		s8.274,9.216,9.754,13.13C446.66,247.296,447.67,255.609,446.764,261.452z"/>
	<path fill-rule="evenodd" clip-rule="evenodd" fill="#9DCACC" d="M235.318,238.193c16.697,7.031,79.403,35.513,79.403,35.513
		s-2.252,5.157-1.828,7.399c0.618,3.243,13.33,9.647,18.084,8.188c2.154-0.659,2.995-6.46,2.995-6.46s7.742,4.371,10.649,5.777
		c3.399,1.644,15.484,9.104,15.484,9.104s-1.225,7.892-1.495,10.345c-0.86,7.829-7.723,43.7-8.87,48.448
		c-2.411,9.989-12.986,51.185-13.645,54.587c-1.504,7.703-3.667,16.841-4.779,24.223c-0.776,5.149-2.048,11.941-2.048,11.941
		s-45.094-19.974-60.047-27.978c-9.788-5.234-20.757-10.026-29.34-16.375c-3.096-2.288-7.593-5.156-9.896-8.189
		c-3.308-4.36-3.937-7.312-3.918-14.601c0.026-10.02,0.205-21.184,1.191-31.459c0.91-9.508,1.655-16.87,2.433-25.435
		c0.663-7.32,1.878-17.129,2.682-25.059c2.195,1.802,9.497,6.844,11.822,8.429c4.084,2.79,9.573,6.54,14.88,8.254
		c1.353,0.437,3.003-0.375,3.003-0.375s5.731,4.293,7.483,5.189c8.453,4.326,27.215,6.534,36.507,2.388
		c1.553-0.696,2.401-3.576,2.401-3.576s9.858-1.263,10.562-6.319c2.344-1.28,6.495-2.735,5.462-6.484
		c-0.998-3.611-13.12-4.58-19.449-6.142c-6.329-1.563-14.603-3.856-18.425-7.164c1.096-3.15,5.555-3.584,8.531-4.775
		c1.997-0.801,7.375-2.888,7.165-5.801c-0.356-4.928-11.346-2.537-16.037-2.387c-3.073,0.098-7.195-1.011-8.87-1.025
		c-5.078-0.042-9.456,3.334-9.456,3.334s-8.848-5.27-17.004-11.378c-8.157-6.108-16.883-15.006-16.883-15.006
		S233.394,243.532,235.318,238.193z"/>
	<path fill-rule="evenodd" clip-rule="evenodd" fill="#CCE2DC" d="M361.98,254.321c-3.124,12.755-4.749,26.385-5.374,37.014
		c-7.479-3.438-15.882-7.125-22.01-11.502c1.971-5.935,6.316-16.123,10.026-22.609c1.411-2.469,4.981-8.528,4.981-8.528
		S359.746,252.289,361.98,254.321z"/>
	<path fill-rule="evenodd" clip-rule="evenodd" fill="#F0F7FC" d="M504.635,275.987c-2.599,1.97-13.255,7.135-19.48,10.349
		c-3.876,2.001-13.38,6.502-16.001,7.734c-3.006-1.481-5.756-3.106-8.529-4.777c1.271-2.206,3.135-6.533,3.773-8.957
		c2.876-10.88,1.597-19.365-1.752-28.636C468.532,254.363,493.033,267.83,504.635,275.987z"/>
	<linearGradient id="SVGID_11_" gradientUnits="userSpaceOnUse" x1="359.8559" y1="278.52" x2="381.9887" y2="278.52">
		<stop  offset="0" style="stop-color:#C0001F"/>
		<stop  offset="0.4802" style="stop-color:#BE011F"/>
		<stop  offset="0.6815" style="stop-color:#B70520"/>
		<stop  offset="0.8307" style="stop-color:#AA0B20"/>
		<stop  offset="0.9534" style="stop-color:#991421"/>
		<stop  offset="1" style="stop-color:#901922"/>
	</linearGradient>
	<path fill-rule="evenodd" clip-rule="evenodd" fill="url(#SVGID_11_)" d="M381.989,260.826c-1.748,8.128-3.71,18.447-3.93,27.446
		c-0.093,3.873-0.447,14.195-0.447,14.195s-6.921-3.496-9.877-4.877c-2.111-0.986-7.88-4.754-7.88-4.754s0.949-14.421,2.001-21.258
		c1.052-6.838,3.252-17.004,3.252-17.004S374.528,258.232,381.989,260.826z"/>
	<linearGradient id="SVGID_12_" gradientUnits="userSpaceOnUse" x1="222.9526" y1="282.3226" x2="265.5288" y2="282.3226">
		<stop  offset="0" style="stop-color:#F0CA00"/>
		<stop  offset="0.1832" style="stop-color:#EBC003"/>
		<stop  offset="0.4979" style="stop-color:#DCA40C"/>
		<stop  offset="0.9036" style="stop-color:#C57819"/>
		<stop  offset="1" style="stop-color:#BF6C1D"/>
	</linearGradient>
	<path fill-rule="evenodd" clip-rule="evenodd" fill="url(#SVGID_12_)" d="M259.67,310.446c-8.162-3.449-18.935-9.726-25.247-16.376
		c-5.112-5.384-10.32-13.311-11.26-20.472c-0.843-6.439,0.778-18.202,6.154-19.399c7.167,6.898,16.625,17.232,26.943,23.495
		c2.77,1.683,8.585,4.282,9.21,6.823c0.361,1.47-1.055,10.155-1.364,11.942C263.732,298.617,261.85,309.167,259.67,310.446z"/>
	<path fill-rule="evenodd" clip-rule="evenodd" fill="#DAECF8" d="M560.058,260.077c4.16,3.517,5.307,16.022,4.626,23.415
		c-0.731,7.948-4.008,8.899-10.577,11.943c-8.445,3.909-19,8.371-27.295,10.916c-0.929-7.959,0.02-19.321,0.343-26.613
		c0.102-2.358,0.015-8.908,0.015-8.908s7.641-2.875,11.243-4.054C541.775,265.673,556.68,261.335,560.058,260.077z"/>
	<path fill-rule="evenodd" clip-rule="evenodd" fill="#CCE2DC" d="M438.51,282.835c-1.392,4.661-4.866,8.37-8.376,11.879
		c-1.878,1.878-8.878,7.753-8.878,7.753s5.127,4.001,9.127,6.503c4,2.502,9.503,5.627,9.503,5.627s7.157-7.262,9.754-10.253
		c3.539-4.07,6.504-7.753,9.62-11.98c3.06,2.176,9.512,4.603,9.512,4.603s-2.167,29.569-2.007,34.634
		c-2.407,1.746-9.998,5.128-9.998,5.128l-75.276-31.387c0,0-1.627-9.754-0.503-20.884c1.126-11.132,3.755-22.881,3.755-22.881
		S430.882,278.583,438.51,282.835z"/>
	<linearGradient id="SVGID_13_" gradientUnits="userSpaceOnUse" x1="508.8974" y1="292.2078" x2="525.2028" y2="292.2078">
		<stop  offset="0" style="stop-color:#C0001F"/>
		<stop  offset="0.4802" style="stop-color:#BE011F"/>
		<stop  offset="0.6815" style="stop-color:#B70520"/>
		<stop  offset="0.8307" style="stop-color:#AA0B20"/>
		<stop  offset="0.9534" style="stop-color:#991421"/>
		<stop  offset="1" style="stop-color:#901922"/>
	</linearGradient>
	<path fill-rule="evenodd" clip-rule="evenodd" fill="url(#SVGID_13_)" d="M524.086,307.036c-4.79,2.036-9.021,4.628-14.672,5.798
		c-0.873-8.365-0.374-36.249-0.374-36.249s11.904-3.508,15.631-5.002c0.748,2.626,0.54,9.564,0.374,13.255
		C524.678,292.87,524.832,299.564,524.086,307.036z"/>
	<path fill-rule="evenodd" clip-rule="evenodd" fill="#DAECF8" d="M506.413,278.083c0,0,0.073,9.129,0.25,13.381
		c0.186,4.399,0.376,22.757,0.376,22.757s-8.846,4.185-12.256,5.627c-3.407,1.439-19.008,9.127-24.759,10.754
		c0.348-5.112,1.876-34.389,1.876-34.389s11.441-6.621,15.679-8.626C494.194,284.458,506.413,278.083,506.413,278.083z"/>
	<linearGradient id="SVGID_14_" gradientUnits="userSpaceOnUse" x1="263.6124" y1="301.2645" x2="321.0816" y2="301.2645">
		<stop  offset="0" style="stop-color:#F7E8D6"/>
		<stop  offset="0.5808" style="stop-color:#F7E7D4"/>
		<stop  offset="0.79" style="stop-color:#F5E2CD"/>
		<stop  offset="0.9386" style="stop-color:#F3DBC2"/>
		<stop  offset="1" style="stop-color:#F1D6BA"/>
	</linearGradient>
	<path fill-rule="evenodd" clip-rule="evenodd" fill="url(#SVGID_14_)" d="M299.72,281.959c0.873,3.001-3.647,3.505-7.234,4.691
		c-4.462,1.477-9.326,2.872-9.274,6.055c0.05,3.16,5.463,4.353,8.129,5.26c3.585,1.224,6.947,2.19,9.612,2.93
		c7.385,2.045,14.979,2.858,20.128,5.458c-0.653,4.3-5.504,3.924-9.11,3.867c-5.515-0.088-12.896-0.41-17.842-1.48
		c-2.211-0.477-4.242-2.726-5.8-0.341c0.821,1.431,5.169,2.039,7.388,2.444c3.498,0.637,6.807,1.037,11.254,1.001
		c2.809-0.02,6.917-0.81,8.993,1.333c-4.881,4.278-13.209,3.532-20.997,2.169c-2.433-0.427-5.251-1.001-7.662-1.83
		c-0.007,1.169,1.603,1.696,2.535,2.205c1.75,0.952,3.633,1.261,5.653,1.549c3.567,0.513,7.505,0.298,9.553,1.366
		c-2.157,3.671-9.192,3.591-16.035,3.069c-5.564-0.423-14.434-2.293-19.106-4.776c-2.416-1.283-5.827-4.477-6.141-5.8
		c-0.746-3.142,1.452-7.819,2.046-10.575c1.767-8.202,0.642-19.046,10.918-19.79c1.757-0.128,3.645,0.546,5.802,0.683
		C287.782,281.778,298.843,278.958,299.72,281.959z"/>
	<linearGradient id="SVGID_15_" gradientUnits="userSpaceOnUse" x1="354.7295" y1="456.3988" x2="354.7295" y2="299.3386">
		<stop  offset="0" style="stop-color:#C0001F"/>
		<stop  offset="0.4802" style="stop-color:#BE011F"/>
		<stop  offset="0.6815" style="stop-color:#B70520"/>
		<stop  offset="0.8307" style="stop-color:#AA0B20"/>
		<stop  offset="0.9534" style="stop-color:#991421"/>
		<stop  offset="1" style="stop-color:#901922"/>
	</linearGradient>
	<path fill-rule="evenodd" clip-rule="evenodd" fill="url(#SVGID_15_)" d="M348.477,456.399c0,0-12.479-4.412-15.629-7.755
		c0.545-12.783,4.16-26.302,6.752-37.763c3.58-15.843,7.265-28.983,10.482-43.115c2.035-8.939,3.081-13.546,5.802-27.295
		c2.722-13.749,7.224-41.132,7.224-41.132l13.503,7.003c0,0-1.318,12.922-1.962,18.435c-2.096,17.922-5.303,37.557-8.874,53.906
		c-5.562,25.498-11.282,46.468-16.035,67.893C349.078,449.58,348.477,456.399,348.477,456.399z"/>
	<path fill-rule="evenodd" clip-rule="evenodd" fill="#BEDEF3" d="M519.309,345.247c-1.285-9.732,1.783-20.932,1.02-32.414
		c3.427-2.063,8.619-4.097,13.65-5.798c5.231-1.769,17.325-6.695,17.325-6.695s0.322,11.024-0.607,15.565
		c-0.663,3.227-5.017,7.62-7.505,10.235C536.44,333.224,528.021,340.374,519.309,345.247z"/>
	<path fill-rule="evenodd" clip-rule="evenodd" fill="#9DCACC" d="M453.8,338.423c0.128,16.965,0.422,37.041-2.048,52.542
		c-5.614,1.783-14.343,3.743-15.493,7.533c-1.15,3.792,1.737,5.398,4.118,5.813c2.822,0.491,9.637-2.561,9.637-2.561l-0.752,8.877
		c0,0-6.266,3.138-6.752,5.879c-0.408,2.312,2.759,6.188,2.759,6.188s-0.732,7.593-1.363,12.284
		c-0.557,4.136-1.24,8.334-1.707,11.941c-1.284,9.968-5.02,41.665-7.061,43.489c-18.322-4.036-36.3-12.302-52.987-18.927
		c-5.199-2.059-10.372-4.326-15.353-6.82c-4.897-2.459-10.424-3.999-14.67-7.505c0.166-6.225,1.498-12.102,2.731-18.084
		c1.21-5.873,3.723-15.988,5.798-25.59c2.074-9.601,6.973-30.632,9.212-40.939c2.241-10.305,6.375-35.211,6.824-38.895
		c0.912-7.53,2.416-17.444,3.922-26.053C389.468,311.003,429.209,328.216,453.8,338.423z"/>
	<linearGradient id="SVGID_16_" gradientUnits="userSpaceOnUse" x1="493.0345" y1="347.4682" x2="564.3512" y2="347.4682">
		<stop  offset="0" style="stop-color:#F0CA00"/>
		<stop  offset="0.1684" style="stop-color:#EBC003"/>
		<stop  offset="0.4576" style="stop-color:#DCA40A"/>
		<stop  offset="0.8302" style="stop-color:#C57817"/>
		<stop  offset="1" style="stop-color:#B9611D"/>
	</linearGradient>
	<path fill-rule="evenodd" clip-rule="evenodd" fill="url(#SVGID_16_)" d="M493.035,365.716c5.128-3.933,11.629-6.134,17.401-9.892
		c5.376-3.501,10.627-7.399,16.035-11.258c7.842-5.594,14.289-11.822,21.494-19.449c3.868-4.09,7.978-6.364,5.802-13.647
		c0.192-0.49,0.532-0.832,1.024-1.024c3.931,0.941,9.804,5.778,9.553,11.602c-0.132,3.038-3.604,8.077-5.46,10.573
		c-3.42,4.616-8.213,9.821-12.967,14.674c-6.627,6.772-12.928,14.242-20.811,20.471c-5.248,4.149-9.121,7.647-15.692,11.601
		c-2.664,1.601-7.051,5.313-8.529,5.117c-2.541-0.337-3.771-5.905-4.776-8.531C494.641,372.123,493.083,368.828,493.035,365.716z"/>
	<linearGradient id="SVGID_17_" gradientUnits="userSpaceOnUse" x1="509.641" y1="356.5069" x2="509.641" y2="313.5164">
		<stop  offset="0" style="stop-color:#C0001F"/>
		<stop  offset="0.4802" style="stop-color:#BE011F"/>
		<stop  offset="0.6815" style="stop-color:#B70520"/>
		<stop  offset="0.8307" style="stop-color:#AA0B20"/>
		<stop  offset="0.9534" style="stop-color:#991421"/>
		<stop  offset="1" style="stop-color:#901922"/>
	</linearGradient>
	<path fill-rule="evenodd" clip-rule="evenodd" fill="url(#SVGID_17_)" d="M516.919,313.516c1.284,10.301-0.763,23.095-0.681,34.459
		c-4.817,2.688-8.704,6.307-13.989,8.531c-1.152-11.53,1.27-25.323,1.362-37.871C507.613,316.495,512.25,314.993,516.919,313.516z"
		/>
	<path fill-rule="evenodd" clip-rule="evenodd" fill="#BEDEF3" d="M501.532,320.475l-2.249,37.512c0,0-9.879,8.127-18.872,7.729
		c-4.058-0.179-9.856-2.708-13.646-4.434c-1.778-0.808-3.258-2.537-4.778-2.729c-2.09-0.266-3.667,1.813-4.844,2.935
		c0-7.003,0.022-15.519,0.071-21.358C468.649,334.296,501.532,320.475,501.532,320.475z"/>
	<path fill-rule="evenodd" clip-rule="evenodd" fill="#BEDEF3" d="M541.142,387.212c-0.962,6.385-8.591,48.778-8.591,48.778
		s-7.355,5.558-10.085,7.295c-3.712,2.36-9.728,4.994-13.179,6.111c0.352-5.478,3.072-33.423,3.537-44.785
		c0.467-11.36-0.409-24.115-0.409-24.115s10.253-7.126,17.382-13.004c7.128-5.877,18.006-17.755,18.006-17.755
		S542.59,377.612,541.142,387.212z"/>
	<linearGradient id="SVGID_18_" gradientUnits="userSpaceOnUse" x1="438.3856" y1="393.1291" x2="495.4251" y2="393.1291">
		<stop  offset="0" style="stop-color:#F7E8D6"/>
		<stop  offset="0.5808" style="stop-color:#F7E7D4"/>
		<stop  offset="0.79" style="stop-color:#F5E2CD"/>
		<stop  offset="0.9386" style="stop-color:#F3DBC2"/>
		<stop  offset="1" style="stop-color:#F1D6BA"/>
	</linearGradient>
	<path fill-rule="evenodd" clip-rule="evenodd" fill="url(#SVGID_18_)" d="M489.284,367.425c1.74,2.383,2.412,5.478,3.41,8.527
		c0.914,2.781,2.721,6.13,2.731,8.872c0.007,1.943-0.052,5.059-0.892,7.552c-0.473,1.409-3.116,8.192-6.001,13.881
		c-2.295,4.522-4.894,8.179-5.627,9.127c-2.785,3.593-7.643,7.686-10.629,8.004c-2.986,0.316,0.944-4.198,2.271-5.715
		c1.826-2.087,4.136-3.999,5.527-6.234c-1.999-0.704-3.044,1.673-4.436,3.069c-2.427,2.424-5.231,5.521-8.189,8.185
		c-1.076,0.972-6.333,4.173-7.163,0.683c-0.586-2.444,5.767-6.34,7.842-8.187c3.903-3.468,9.908-7.319,5.46-11.262
		c-4.531,1.841-8.025,5.596-13.985,9.213c-1.912,1.158-4.33,2.653-7.167,4.436c-2.094,1.318-7.005,3.656-7.504,0
		c-0.387-2.815,4.125-3.771,6.139-5.117c3.673-2.922,7.989-5.581,13.648-9.212c4.142-2.658,11.924-7.118,7.846-11.601
		c-8.416,1.13-14.786,4.304-21.442,7.196c-2.859,1.24-7.109,3.232-8.924,3.382c-1.815,0.149-3.82,0.236-3.814-2.725
		c0.006-2.962,17.697-8.468,19.167-9.216c3.777-1.927,8.833-3.284,13.648-5.117c3.418-1.305,10.208-4.129,9.896-7.505
		c-0.311-3.332-11.511-7.09-16.038-8.872c-3.17-1.251-6.32-2.023-5.117-6.824c1.817-1.832,3.381,0.57,5.117,1.364
		c2.848,1.301,11.374,4.741,14.332,5.119C482.564,368.852,485.561,367.38,489.284,367.425z"/>
	<path fill-rule="evenodd" clip-rule="evenodd" fill="#BEDEF3" d="M478.026,377.661c-1.512,3.952-6.528,5.473-10.577,7.163
		c-4.112,1.716-8.602,3.522-12.282,4.434c-1.422-5.866,0.988-13.477,1.364-19.787c0.277-0.063,0.337-0.341,0.683-0.339
		C463.88,370.885,472.313,373.811,478.026,377.661z"/>
	<linearGradient id="SVGID_19_" gradientUnits="userSpaceOnUse" x1="500.1327" y1="460.224" x2="500.1327" y2="382.1226">
		<stop  offset="0" style="stop-color:#C0001F"/>
		<stop  offset="0.4802" style="stop-color:#BE011F"/>
		<stop  offset="0.6815" style="stop-color:#B70520"/>
		<stop  offset="0.8307" style="stop-color:#AA0B20"/>
		<stop  offset="0.9534" style="stop-color:#991421"/>
		<stop  offset="1" style="stop-color:#901922"/>
	</linearGradient>
	<path fill-rule="evenodd" clip-rule="evenodd" fill="url(#SVGID_19_)" d="M509.538,382.123c0,0,0.875,10.584,0.75,13.378
		c-0.733,16.119-2.018,37.989-3.485,53.793c-0.231,2.515-2.36,4.505-4.935,6.221c-2.574,1.716-7.842,3.838-11.904,4.709
		c3.727-13.959,6.338-33.787,8.187-51.858c0.655-6.374,0.635-18.866,0.635-18.866L509.538,382.123z"/>
	<path fill-rule="evenodd" clip-rule="evenodd" fill="#BEDEF3" d="M470.518,395.06c-4.343,6.461-11.724,9.883-18.423,13.987
		c0.492-2.917,0.162-6.662,1.365-8.87c2.58-1.091,5.575-2.427,8.527-3.755C464.45,395.32,467.879,392.755,470.518,395.06z"/>
	<path fill-rule="evenodd" clip-rule="evenodd" fill="#BEDEF3" d="M492.012,433.951c-1.251,8.544-3.931,26.714-5.233,28.199
		c-2.535,2.896-8.78,6.201-12.509,7.967c-9.024,4.278-31.63,18.037-35.383,19.039c1.19-5.411,2.096-14.156,2.96-21.124
		c0.408-3.263,5.875-37.27,6.835-45.68c4.952-2.802,9.669-6.044,14.33-9.553c2.833-2.133,5.746-4.959,9.21-5.458
		c0.471,1.781-1.902,3.295-3.07,4.436c-1.266,1.238-2.677,2.446-4.095,3.751c-1.951,1.8-8.172,5.134-8.189,7.848
		c-0.007,1.618,3.392,3.453,5.653,3.511c2.465,0.067,6.625-3.001,6.625-3.001s2.264,1.694,4.099,1.197
		c3.118-0.845,7.941-4.913,11.031-8.449c5.236-5.985,8.628-14.255,12.254-23.133C497.282,396.128,493.55,423.441,492.012,433.951z"
		/>
	<linearGradient id="SVGID_20_" gradientUnits="userSpaceOnUse" x1="309.6406" y1="484.7444" x2="346.3305" y2="484.7444">
		<stop  offset="0" style="stop-color:#7F9DCC"/>
		<stop  offset="0.2489" style="stop-color:#7793C2"/>
		<stop  offset="0.6747" style="stop-color:#6277A9"/>
		<stop  offset="1" style="stop-color:#4F5E91"/>
	</linearGradient>
	<path fill-rule="evenodd" clip-rule="evenodd" fill="url(#SVGID_20_)" d="M346.331,521.978c-1.973,2.69-7.928,5.42-12.351,4.19
		c-1.411-0.391-4.598-6.031-6.072-7.945c-5.491-7.107-9.877-18.373-12.626-26.95c-2.303-7.193-4.229-12.161-4.812-19.998
		c-0.629-8.477-1.498-20.134,0-28.259c3.626,0.748,10.916,4.347,13.006,6.377c0.221,6.543-0.283,10.653-0.501,16.379
		c-0.101,2.651,0.409,6.863,0.875,9.629c0.638,3.805,2.318,7.33,4.399,11.093C334.767,498.293,341.5,509.279,346.331,521.978z"/>
	<linearGradient id="SVGID_21_" gradientUnits="userSpaceOnUse" x1="428.0126" y1="514.7416" x2="443.1496" y2="514.7416">
		<stop  offset="0" style="stop-color:#7F9DCC"/>
		<stop  offset="0.2489" style="stop-color:#7793C2"/>
		<stop  offset="0.6747" style="stop-color:#6277A9"/>
		<stop  offset="1" style="stop-color:#4F5E91"/>
	</linearGradient>
	<path fill-rule="evenodd" clip-rule="evenodd" fill="url(#SVGID_21_)" d="M442.542,491.612c1.126,2.632,0.339,9.57,0.352,12.924
		c0.05,11.018-0.748,21.533-1.502,32.015c-3.678,0.823-10.182,2.144-13.378,0.62c-0.043-3.412,1.625-9.372,3.001-16.375
		c1.374-7.005,0.672-15.024,1.634-25.43C435.886,494.22,439.622,491.96,442.542,491.612z"/>
	<linearGradient id="SVGID_22_" gradientUnits="userSpaceOnUse" x1="277.0841" y1="541.8361" x2="353.2919" y2="541.8361">
		<stop  offset="0" style="stop-color:#AF6C49"/>
		<stop  offset="0.1695" style="stop-color:#A86745"/>
		<stop  offset="0.4101" style="stop-color:#965A3B"/>
		<stop  offset="0.693" style="stop-color:#77432B"/>
		<stop  offset="1" style="stop-color:#4E2514"/>
	</linearGradient>
	<path fill-rule="evenodd" clip-rule="evenodd" fill="url(#SVGID_22_)" d="M353.184,535.662c0.471,3.364-0.514,6.23-4.806,6.104
		c-1.469-3.419-1.789-7.993-4.095-10.575c-10.353,9.283-24.08,18.296-39.688,24.614c-6.277,2.543-19.488,5.799-27.51,1.876
		c5.002-2.375,8.576-3.032,13.004-4.879c6.061-2.524,13.144-6.692,19.88-10.002c7.13-3.501,11.325-5.553,16.759-8.879
		c2.143-1.312,6-4.637,8.501-4.877c4.572-0.436,9.116-2.068,12.755-4.875C350.984,527.17,352.613,531.593,353.184,535.662z"/>
	<linearGradient id="SVGID_23_" gradientUnits="userSpaceOnUse" x1="497.8147" y1="556.1078" x2="422.7604" y2="556.1078">
		<stop  offset="0" style="stop-color:#AF6C49"/>
		<stop  offset="0.1695" style="stop-color:#A86745"/>
		<stop  offset="0.4101" style="stop-color:#965A3B"/>
		<stop  offset="0.693" style="stop-color:#77432B"/>
		<stop  offset="1" style="stop-color:#4E2514"/>
	</linearGradient>
	<path fill-rule="evenodd" clip-rule="evenodd" fill="url(#SVGID_23_)" d="M497.815,569.06c-1.988,2.278-4.404,3.503-12.533,3.753
		c-23.447,0.726-42.175-12.58-52.142-28.013c-3.064,2.509-6.003,10.004-6.003,10.004l-4.376-3.375c0,0,2.651-11.422,5.795-12.051
		c0.238-0.047,3.259,0.484,6.21,0.549c2.707,0.06,5.335-0.359,6.128-0.125c2.25,0.663,14.173,13.81,16.63,15.882
		c3.771,3.176,9.436,7.107,14.756,9.127c6.547,2.487,11.327,2.796,13.879,3.001C490.784,568.185,495.784,566.979,497.815,569.06z"/>
	<path fill-rule="evenodd" clip-rule="evenodd" fill="#CCE1D9" d="M382.056,465.827c0,0,40.131,14.268,44.591,15.16
		c4.458,0.89,13.376-54.403,13.376-54.403L382.056,465.827z"/>
	<path fill-rule="evenodd" clip-rule="evenodd" fill="#7AACB3" d="M378.489,352.561l5.348-40.134l64.215,29.433
		C448.052,341.859,376.704,357.91,378.489,352.561z"/>
	<path fill-rule="evenodd" clip-rule="evenodd" fill="#7AACB3" d="M234.899,304.401c0,0,17.732,12.329,20.513,13.378
		c3.167,1.193,7.543,1.567,7.543,1.567s5.834,3.783,12.969,5.568c7.135,1.783,19.62,2.675,19.62,2.675s-8.044,6.517-19.62,7.135
		c-22.742,1.212-44.266-8.068-44.266-8.068S232.223,302.618,234.899,304.401z"/>
	<polygon fill-rule="evenodd" clip-rule="evenodd" fill="#97CBED" points="518.507,383.776 540.801,377.534 544.37,357.021 	"/>
	<path fill-rule="evenodd" clip-rule="evenodd" fill="#97CBED" d="M525.792,313.095l23.635,1.127l0.123-11.881
		C549.55,302.341,531.144,309.527,525.792,313.095z"/>
</g>
</svg>
