<?xml version="1.0" encoding="utf-8"?>
<!-- Generator: Adobe Illustrator 15.1.0, SVG Export Plug-In . SVG Version: 6.00 Build 0)  -->
<!DOCTYPE svg PUBLIC "-//W3C//DTD SVG 1.1//EN" "http://www.w3.org/Graphics/SVG/1.1/DTD/svg11.dtd">
<svg version="1.1" id="_x23_Layer_1" xmlns="http://www.w3.org/2000/svg" xmlns:xlink="http://www.w3.org/1999/xlink" x="0px"
	 y="0px" width="300px" height="300px" viewBox="0 0 300 300" enable-background="new 0 0 300 300" xml:space="preserve">
<path fill-rule="evenodd" clip-rule="evenodd" fill="#B7E2F5" stroke="#000000" stroke-width="1.0001" stroke-linecap="round" stroke-miterlimit="2.6131" d="
	M11.936-48.286c0,11.357-4.184,69.336-2.988,86.67c1.195,17.334-0.598,54.393,3.586,57.382c4.184,2.988,110.579,8.368,129.109,7.172
	c18.53-1.195,130.903,2.988,133.293-1.195s-1.196-34.071,1.194-44.83c2.392-10.759,0-75.911,0-82.486
	c0-6.575,2.989-23.909-1.194-25.104c-4.185-1.195-80.096-1.793-96.832-0.598S57.961-49.482,44.811-50.677S9.545-50.08,11.936-48.286
	z"/>
<path fill-rule="evenodd" clip-rule="evenodd" fill="#1A8DBA" stroke="#000000" stroke-width="1.0001" stroke-linecap="round" stroke-miterlimit="2.6131" d="
	M13.131,95.766c0.598,10.161-4.781,25.105-0.597,30.484c4.184,5.379,53.795,26.898,66.945,31.679
	c13.15,4.782,93.246,35.266,108.189,51.404c14.942,16.139,65.151,81.889,77.704,90.257s14.943-34.07,14.346-68.141
	s-0.598-124.925-2.988-131.5c-2.391-6.575-10.759-3.587-23.909-4.184c-13.15-0.598-114.167-2.391-126.719-0.598
	c-12.552,1.793-65.152-1.793-77.704,0C35.845,96.961,12.534,95.766,13.131,95.766z"/>
<path fill-rule="evenodd" clip-rule="evenodd" fill="#F9D7A9" stroke="#000000" stroke-width="1.0001" stroke-linecap="round" stroke-miterlimit="2.6131" d="
	M12.534,125.055c0.597,17.334-0.598,74.118,0.597,97.43c1.196,23.311,1.793,98.625,0.598,104.603
	c-1.195,5.977-6.575,18.528,0,19.126c6.575,0.599,156.006-0.597,173.939-1.792c17.932-1.196,89.061,2.987,89.659-1.196
	c0.598-4.184,0-47.817-3.587-57.979c-3.586-10.162-41.242-50.21-52.6-60.371s-56.784-41.243-69.935-50.807
	c-13.15-9.563-53.794-28.093-72.324-36.462C60.352,129.239,11.338,125.652,12.534,125.055z"/>
<path fill-rule="evenodd" clip-rule="evenodd" fill="#59BFCD" d="M159.873,106.824c-2.593,0.479-86.732-5.331-42.84,3.885
	c17.947,3.769-48.634,3.577-25.241,8.215c0.699,0.138,28.912,2.876,28.981,2.784c-3.797-0.844-43.829,4.614-12.604,3.945
	c21.864-0.468,27.273,7.611,54.837,2.494c3.595-0.667,33.428,5.292,33.627,5.276c-0.326,2.828-80.86,12.98-48.911,13.697
	c9.259,0.208,112.883,11.192,104.551,16.189c-18.679,11.204-27.141,3.424,5.038,20.118c-0.065,1.359-30.244,12.39-3.347,14.499
	c11.744,0.921-24.654,6.609-9.563,12.45c0.226,0.088,32.733,4.313,33.523,1.998c0.496-1.453-1.983-10.438-2.391-13.201
	c-4.682-31.734,4.149-32.629,2.988-59.773c-1.577-36.871,8.379-20.211-23.909-26.3c-5.678-1.07,9.808-6.796-22.919-9.017
	c-8.591-0.583-66.183-1.829-69.934,1.742C160.563,105.568,160.462,106.715,159.873,106.824z"/>
<path fill-rule="evenodd" clip-rule="evenodd" fill="#EFDB9E" stroke="#000000" stroke-width="1.0001" stroke-linecap="round" stroke-miterlimit="2.6131" d="
	M43.839,44.287c-1.935,0.792-5.479,7.354-3.821,9.986c1.032,1.639,0.617,2.906,3.074,3.612c1.445,0.415,2.465,6.754,0.486,9.713
	c-5.264,7.87-7.761,4.276-11.882,13.637c-1.29,2.93-4.963,11.065-6.686,13.261c-0.612,0.779-7.942,14.171-7.361,14.982
	c0.085,0.118,1.489,8.094,2.13,9.375c7.331-7.322,6.483-6.708,11.456-15.105c0.698-1.178,7.381-14.313,8.517-13.859
	c8.133,3.253,6.191,5.029,15.802,5.64c5.844,0.372,3.208,0.738,9.205,0c2.06-0.253,3.688,0.461,5.23,0.461
	c5.413,2.403,2.339,16.762,7.881,24.545c1.228,1.724-0.135,3.611,4.521,6.763c0.081,0.054,4.759,8.043,6.575,9.785
	c1.842,1.768,3.968,4.569,6.276,5.867l0.298,0.26c4.402,4.063,2.603,3.05,5.355,7.24c0.625,0.951,8.86,4.182,7.717,0.092
	c-1.375-4.92,1.585-2.093-1.817-6.866c-1.509-2.118-4.814-3.102-6.613-5.398c-1.251-1.597-2.727-1.299-4.577-5.136
	c-0.276-0.572-0.539-1.232-1.117-1.557c-0.579-0.325-4.642-7.341-5.398-8.853c-0.756-1.512-5.398-7.773-5.398-9.608
	s0.324-7.125,0.54-9.5c0.216-2.375-0.324-13.278-0.324-16.949c0-3.67-2.051-11.767-6.045-13.171
	c-3.995-1.403-7.665-0.648-10.472-1.835c-2.807-1.188-4.103-0.432-4.535-3.131s-1.403-5.506-0.647-6.585
	c0.755-1.08,3.346-6.046,3.563-7.557c0.216-1.511,1.404-5.938,0.324-8.853c-1.08-2.915-6.261-6.37-10.903-6.37
	C50.553,39.174,44.723,41.873,43.839,44.287z"/>
<path fill-rule="evenodd" clip-rule="evenodd" fill="#D52C33" stroke="#000000" stroke-width="1.0001" stroke-linecap="round" stroke-miterlimit="2.6131" d="
	M27.45,104.165c-4.75,4.103-6.153,5.506-7.341,9.608c-1.188,4.102-2.591,5.506-1.295,10.903c1.295,5.398,2.699,9.068,4.75,11.336
	c2.051,2.267,4.534,2.591,6.37,4.318c1.835,1.728,2.915,2.375,4.642,2.915c1.728,0.54,1.512,0.864,2.807,0.432
	c1.295-0.432,9.932-12.091,10.688-14.035s3.346-13.818,3.131-16.949c-0.216-3.131-6.045-12.091-8.745-12.415
	C39.757,99.954,30.797,100.386,27.45,104.165z"/>
<path fill-rule="evenodd" clip-rule="evenodd" fill="#C95D5B" stroke="#000000" stroke-width="1.0001" stroke-linecap="round" stroke-miterlimit="2.6131" d="
	M71.173,73.504c-0.432,4.426-1.08,8.313-0.864,11.768s2.483,5.074,0,4.966c-2.483-0.108-6.585,0-8.637,1.619
	c-2.051,1.619-2.375,2.483-3.239,2.699c-0.863,0.215-2.59-0.864-3.778-1.62c-1.188-0.756-8.96-3.239-11.443-3.995
	c-2.483-0.756-3.347-0.971-3.455,2.483c-0.108,3.455-0.972,5.506,0.864,8.313s3.995,5.506,5.29,8.097
	c1.295,2.591,2.267,4.535,1.08,9.069c-1.188,4.534-4.75,11.983-5.722,14.79c-0.972,2.807-2.267,4.103-3.455,8.96
	s-1.511,5.397-3.239,9.608s-1.835,6.046-4.426,7.881c-2.591,1.835-5.074,3.131-5.938,4.21c-0.864,1.08-1.835,2.268-0.972,3.455
	s2.267,0.972,3.455,3.67c1.188,2.699,2.159,6.909,4.21,8.421s5.29,0.864,6.37,2.159c1.079,1.296,0.972,2.482,3.67,3.563
	s4.318,0.973,7.773,1.188c3.455,0.216,8.636,2.051,10.795,2.268c2.159,0.216,6.694,0,8.205-1.728s2.699-3.887,5.074-3.887
	c2.375,0,5.182,0.433,6.909-0.323c1.728-0.756,5.722-4.966,6.586-6.586c0.863-1.619,1.727-5.506,3.778-7.017
	c2.051-1.512,4.103-3.239,4.75-4.534c0.648-1.296,1.62-4.967,1.08-4.751s-2.483,1.836-3.778,1.08s-5.29-3.887-5.722-6.262
	c-0.432-2.375-3.886-13.603-4.966-15.438c-1.08-1.835-3.023-6.154-4.534-8.205c-1.511-2.051-3.023-3.455-2.915-4.858
	c0.108-1.403,0.432-7.449,0.108-9.716c-0.324-2.267-0.972-7.233,0-9.069c0.971-1.835,2.807-3.886,2.915-5.938
	s-0.971-6.909-1.403-8.097c-0.432-1.188-0.432-0.648-0.756-1.728c-0.324-1.08-1.403-9.285-0.864-11.012
	c0.54-1.727,0.648-6.153,0.648-6.153l-3.455-0.54C71.173,72.317,70.957,73.721,71.173,73.504z"/>
<path fill-rule="evenodd" clip-rule="evenodd" fill="#5B2314" stroke="#000000" stroke-width="1.0001" stroke-linecap="round" stroke-miterlimit="2.6131" d="
	M51.956,29.458c1.324-1.267,9.521,0.553,10.472,1.943c0.262,0.383,1.357,2.904,1.61,3.464l0.225-0.01
	c3.396,0.3,3.373,2.587,4.454,4.291c1.842,2.902,0.373,6.217,0.179,8.88c-0.228,3.134-4.649,9.768-4.065,8.421
	c1.13-2.609,0.616-4.075,0.728-6.693c0.038-0.897-3.901-5.117-4.534-5.722c-1.013,1.363-2.421,2.055-3.877,2.906
	c-4.668,2.728-0.644,0.935,0.278-1.746c1.754-5.103-0.675-1.513-2.113-0.376c-6.461,5.109-7.279,4.499-14.152,6.881
	c-3.263,1.131,2.559,7.532,2.699,7.979c0.266,0.852,6.264,9.13,7.261,10.129c1.197,1.2,2.39,2.542,2.995,4.238
	c0.397,0.603-0.602,5.74,0.352,7.313c1.142,1.884,1.362,9.983,0.873,11.795c-0.998,3.691-0.389,5.049-0.882,8.862
	c-0.731,5.651-2.476,7.738-6.524,11.786c-2.179,2.179-5.562,4.328-7.295,5.947c-0.829,0.775-2.039,1.091-0.784,0.207
	c2.628-1.851,2.876-3.054,4.643-5.102c2.174-2.52,4.252-10.655,3.257-9.618c-5.183,5.4,0.409-2.366-0.793-5.271
	c-0.042,0.015-2.137,1.699-1.888,1.548c1.386-0.837,0.92-5.648-0.352-6.416c-1.411-2.183-7.524-5.99-8.285-8.313
	c-1.373-4.194-0.751-6.942-1.333-11.659c-0.004-0.036-1.115,4.688-1.755,6.613c-0.687,2.066,0.033-3.572,0.037-3.59
	c0.324-4.21-0.648-5.938-0.864-10.04s1.835-5.182,3.239-9.284c1.403-4.102,3.131-5.182,3.455-6.478s-0.432-7.233-0.216-9.824
	c0.215-2.591,1.403-5.614,3.023-7.881C43.644,32.373,48.178,30.646,51.956,29.458z"/>
<path fill-rule="evenodd" clip-rule="evenodd" fill="none" stroke="#000000" stroke-width="1.0001" stroke-linecap="round" stroke-miterlimit="2.6131" d="
	M44.615,50.833c1.139-0.11,4.122-1.653,4.534,0.864"/>
<path fill-rule="evenodd" clip-rule="evenodd" fill="none" stroke="#000000" stroke-width="1.0001" stroke-linecap="round" stroke-miterlimit="2.6131" d="
	M57.246,51.373c1.331-1.576,3.787-0.741,3.831-0.54c-0.053,0.06,0.528,0.636,0.703,0.755"/>
<path fill-rule="evenodd" clip-rule="evenodd" fill="none" stroke="#000000" stroke-width="1.0001" stroke-linecap="round" stroke-miterlimit="2.6131" d="
	M47.263,50.726c-2.154-0.067-1.031,3.317,0.157,0.785"/>
<path fill-rule="evenodd" clip-rule="evenodd" fill="none" stroke="#000000" stroke-width="1.0001" stroke-linecap="round" stroke-miterlimit="2.6131" d="
	M59.675,50.726c-2.138-0.616-0.072,3.124,0.387,0.873C60.188,50.98,59.865,50.78,59.675,50.726z"/>
<path fill-rule="evenodd" clip-rule="evenodd" fill="none" stroke="#000000" stroke-width="1.0001" stroke-linecap="round" stroke-miterlimit="2.6131" d="
	M57.03,48.782c1.879,0.063,2.854-0.77,5.037-0.136l0.361,0.028"/>
<path fill-rule="evenodd" clip-rule="evenodd" fill="none" stroke="#000000" stroke-width="1.0001" stroke-linecap="round" stroke-miterlimit="2.6131" d="
	M50.391,60.172c0.675-0.273,7.962-0.283,7.747,0.082c-1.405,2.374-2.467,5.928-6.218,2.168
	C51.724,62.226,50.389,60.173,50.391,60.172z"/>
<path fill-rule="evenodd" clip-rule="evenodd" fill="none" stroke="#000000" stroke-width="1.0001" stroke-linecap="round" stroke-miterlimit="2.6131" d="
	M51.524,67.459c2.227,0.695,3.684,0.065,4.83,0.198c0.064-0.072,2.755-1.629,3.375-2.249"/>
<path fill-rule="evenodd" clip-rule="evenodd" fill="#EFDB9E" stroke="#000000" stroke-width="1.0001" stroke-linecap="round" stroke-miterlimit="2.6131" d="
	M76.409,182.164c-1.345-1.112-6.231-0.583-7.574,1.683c-2.58,4.352-9.432,3.294-13.532,2.789c-0.542-0.067-10.801-2.733-8.894-0.715
	l0.204,0.13c2.591,8.421,1.943,10.796,2.159,15.762s-1.08,11.875,1.728,19.864c2.807,7.988,4.966,17.058,5.83,22.239
	s5.398,18.137,5.614,23.534c0.216,5.398-0.432,15.33-0.647,18.138c-0.216,2.807,7.557,2.807,8.853,0.863
	c1.295-1.943,1.727-7.558,2.375-10.148c0.648-2.591,2.807,0,5.182-1.511c2.375-1.512,4.75-3.455,4.966-5.83
	c0.216-2.375-1.728-5.397-2.591-8.421c-0.863-3.022-4.75-6.909-4.75-11.228s1.079-17.704,1.511-22.455
	c0.432-4.75,2.591-19.864,1.08-24.398c-1.512-4.534-2.159-3.887-2.375-7.772C75.329,190.801,76.409,182.164,76.409,182.164z"/>
<path fill-rule="evenodd" clip-rule="evenodd" fill="none" stroke="#000000" stroke-width="1.0001" stroke-linecap="round" stroke-miterlimit="2.6131" d="
	M63.184,187.832c0.755,3.239,1.403,4.75,1.403,7.989c0,3.238-1.188,6.261-0.756,10.796c0.432,4.534,0.216,6.153,1.188,9.932
	s2.483,11.768,2.699,17.489c0.216,5.722,0.108,12.415,0,16.842c-0.108,4.426-0.432,8.636,0.972,10.795
	c1.404,2.159,3.887,6.153,4.103,8.205s0.432,3.778,0.108,4.858"/>
<path fill-rule="evenodd" clip-rule="evenodd" fill="#F3D599" stroke="#000000" stroke-width="1.0001" stroke-linecap="round" stroke-miterlimit="2.6131" d="
	M107.77,152.746c-0.534-0.167-4.863-0.438-5.802-1.107c-0.756-0.539-0.539,0.516-0.406,0.837c2.159,4.534,2.807,9.716,4.966,13.603
	c2.159,3.887,10.796,14.035,12.523,16.842s6.261,8.205,7.773,11.659c1.511,3.455,1.727,11.443,1.08,14.251
	c-0.647,2.807-2.159,4.102-1.511,6.261c0.647,2.159,22.887,2.591,24.614,1.943c1.728-0.647,2.808,0,3.023-2.591
	s-0.216-12.523,0.647-16.842s2.808-9.067,3.671-11.659c0.863-2.591,3.238-7.557,5.829-10.147s7.773-14.035,8.205-15.33
	c0.432-1.296,2.375-5.614,2.375-5.614s-5.83-5.83-6.046-4.75c-0.216,1.08-0.647,2.808-3.022,8.421
	c-2.375,5.614-6.693,11.012-8.637,13.171s-2.807,3.022-4.534,5.182s-1.728,2.592-3.023,0.864s-4.102-3.239-3.67-4.967
	c0.712-2.283,3.642-5.111,3.823-7.286c0.025-0.3,1.936-0.657,2.267-3.347c0.595-4.827,0.896-2.595-0.999-7.792
	c-1.628-4.465-2.804-5.787-7.008-8.331c-1.444-0.874-11.454-0.75-12.998,1.44c-2.648,3.758-3.531,5.859-2.727,10.688
	c0.523,3.14-0.759-0.612-1.305,1.296c-1.249,4.361,1.491,3.56,2.042,6.811c0.566,3.343,6.249,4.342,4.788,8.195
	c-1.024,2.701-0.063,2.863-3.483,4.643c-2.225,1.586-4.37-4.836-8.42-6.656c-2.604-1.171-8.768-11.087-10.5-13.828
	C110.715,157.67,108.559,152.881,107.77,152.746z"/>
<path fill-rule="evenodd" clip-rule="evenodd" fill="#5C2717" stroke="#000000" stroke-width="1.0001" stroke-linecap="round" stroke-miterlimit="2.6131" d="
	M136.703,140.655c-0.344-0.066-4.312-0.021-2.286,0.784c2.642,1.049-6.237,2.474-7.646,3.741c-1.472,1.324,0.682,0.154,0.981,1.62
	c0.593,2.906-4.98,3.965-0.972,4.318c1.014,0.09-2.225,3.668-0.333,4.731c0.163,0.092,2.667,7.479,3.032,2.539
	c0.121-1.644-0.131-3.925,1.366-4.266c1.82-0.415,3.933-2.804,3.942-2.779c0.506,1.313-2.717,3.243,2.967,0.728
	c3.75-1.659,1.118-1.188,2.313,0.324c1.131,1.431,3.695-2.755,3.652-1.483c-0.038,1.109,2.591,3.971,2.591,2.304
	c0-2.688,0.701-0.446,2.887,0.639c0.394,0.195-0.222,10.63,0.712,5.98c1.034-5.145,1.691,3.051,1.691-6.862
	c0-4.175,0.229-6.079-3.023-8.998c-1.809-1.624-2.675-0.791-3.023-2.699c-0.118-0.646-1.695-1.887-1.619,0.028
	c0.021,0.55-4.103,0.239-4.103-2.159C138.582,139.144,139.282,141.15,136.703,140.655z"/>
<path fill-rule="evenodd" clip-rule="evenodd" fill="none" stroke="#000000" stroke-width="1.0001" stroke-linecap="round" stroke-miterlimit="2.6131" d="
	M131.413,161.383c0.943-2.084,2.565-0.39,3.67,0.432"/>
<path fill-rule="evenodd" clip-rule="evenodd" fill="none" stroke="#000000" stroke-width="1.0001" stroke-linecap="round" stroke-miterlimit="2.6131" d="
	M143.504,161.923c0.069-0.649,0.9-1.352,1.493-1.466c0.045,0.15,0.548-0.453,1.135,0.133c0.234,0.234,0.546,0.369,0.827,0.577"/>
<path fill-rule="evenodd" clip-rule="evenodd" fill="none" stroke="#000000" stroke-width="1.0001" stroke-linecap="round" stroke-miterlimit="2.6131" d="
	M136.163,168.292c1.938,1.546,4.838,1.146,6.909-0.216"/>
<path fill-rule="evenodd" clip-rule="evenodd" fill="none" stroke="#000000" stroke-width="1.0001" stroke-linecap="round" stroke-miterlimit="2.6131" d="
	M143.072,158.576c1.087-0.409,2.139-1.196,3.455-0.108"/>
<path fill-rule="evenodd" clip-rule="evenodd" fill="none" stroke="#000000" stroke-width="1.0001" stroke-linecap="round" stroke-miterlimit="2.6131" d="
	M134.543,158.684c-0.672-0.182-1.401-0.329-2.131-0.234c-0.194-0.247-1.101,0.431-1.215,0.45"/>
<path fill-rule="evenodd" clip-rule="evenodd" fill="#F3D599" stroke="#000000" stroke-width="1.0001" stroke-linecap="round" stroke-miterlimit="2.6131" d="
	M126.555,244.51c0,5.29,0.432,11.444,0.864,15.33c0.432,3.887,0.756,6.585,1.835,9.716s3.239,12.524,3.994,15.007
	c0.756,2.482,0.864,5.83-0.108,7.881c-0.971,2.051-1.403,5.614-2.915,7.989c-1.511,2.374-1.511,4.642,0.216,5.397
	s6.693,2.267,7.557,1.512c0.864-0.756,1.296-0.864,2.052-5.074c0.755-4.211-0.108-7.989,0.755-9.933
	c0.864-1.942,1.404-4.21,1.404-4.21s-1.619-1.188-1.404-3.455c0.216-2.267,0.216-10.472,0.432-12.631
	c0.216-2.159,0.108-5.938,0-7.881c-0.108-1.943,0.432-6.585,0.324-8.42c-0.108-1.836-0.108-8.745-0.108-8.745
	s1.511-0.864,2.375,0.863s3.346,9.177,4.318,10.796c0.972,1.619,4.535,3.778,5.938,3.022c1.403-0.755,5.614-2.807,6.153-5.613
	c0.54-2.807,1.836-10.688,1.943-13.495c0.108-2.807,0.864-8.744,1.62-10.363c0.755-1.62,1.727-4.967,3.886-5.074
	c2.159-0.108,4.534,1.188,5.398,1.08c0.863-0.108,1.835-1.62,0.107-2.915c-1.728-1.296-3.778-1.404-5.182-1.943
	c-1.403-0.54-4.427-2.376-5.83-2.159c-1.403,0.216-3.778,2.051-4.534,6.045c-0.756,3.995-0.647,4.858-1.728,7.126
	c-1.079,2.267-2.482,7.125-5.721,7.557s-11.012-0.863-14.25-0.647c-3.239,0.216-7.773-0.216-9.068,0.54
	C125.583,242.566,126.231,244.618,126.555,244.51z"/>
<path fill-rule="evenodd" clip-rule="evenodd" fill="#56C1EB" stroke="#000000" stroke-width="1.0001" stroke-linecap="round" stroke-miterlimit="2.6131" d="
	M126.123,214.821c-0.648,3.995-0.324,6.262-0.864,10.904s-0.756,9.607,0,12.199c0.756,2.591,0.216,5.506,0.864,5.613
	c0.647,0.108,6.801,0.001,9.716-0.216c2.915-0.216,5.291-0.107,5.722,1.188c0.432,1.296,0.647,3.023,1.511,2.268
	s3.563-2.592,6.909-2.483c3.347,0.108,8.097,1.835,8.097,1.835s-0.647-2.482-0.647-5.506c0-3.022-1.619-9.284-0.972-11.443
	s0.324-6.261,0.324-9.068c0-2.807-1.619-5.722-1.619-5.722s0.216,0.324-2.915,1.08c-3.131,0.755-11.768,1.295-13.279,1.295
	c-1.511,0-9.176-1.942-10.795-2.267C126.555,214.174,126.015,214.714,126.123,214.821z"/>
<path fill-rule="evenodd" clip-rule="evenodd" fill="#EDCA90" stroke="#000000" stroke-width="1.0001" stroke-linecap="round" stroke-miterlimit="2.6131" d="
	M224.418,4.898c4.329,1.07,18.063-18.269,22.332-19.574c0.021-0.056,8.173-12.127,4.424-13.227
	c-0.402-0.118-3.985,9.621-3.023,1.277c-1.337-1.085-9.671,11.927-13.8,14.522c-2.02,1.269-13.186,9.657-13.961,8.458
	c-6.256,2.383,3.51-9.729,3.794-11.123c2.412-11.84-17.353-12.437-18.89-8.618c-0.198,0.494-0.639-0.055,0.34,1.08
	c-3.213-1.104-7.964,4.568-5.453,8.477c2.518,3.919,1.517,4.566,6.391,8.723c2.216,1.89-2.603,4.643-8.044,1.079
	c-7.224-4.73-18.236-7.42-21.395-16.551c-0.079-0.229-1.811-2.667-1.943-2.696c-1.143,1.018-2.099-5.453-3.06-0.796
	c-1.616,0.747-4.872-8.431-5.361-0.124c-0.156,2.669,5.689,8.603,8.365,9.932c0.153,0.076,8.397,10.056,10.617,11.66
	c14.032,10.141,8.224,7.531,27.439,9.895C217.966,7.879,220.428,6.277,224.418,4.898z"/>
<path fill-rule="evenodd" clip-rule="evenodd" fill="#593920" stroke="#000000" stroke-width="1.0001" stroke-linecap="round" stroke-miterlimit="2.6131" d="
	M220.424-27.921c-5.528-4.48-24.927-4.491-21.521,9.303c0.698,2.828-7.612,4.938,1.475,15.601c2.142,2.513,11.548-0.374,3.208-5.743
	c-0.025-0.344-3.158-5.028-3.566-6.206c-1.046-3.021,2.47-1.888,4.59-3.399c1.604-1.143,7.589,1.749,15.67-4.467
	c0.776-0.597-2.504,2.374,1.276,4.25c3.07,1.524-0.764,13.079-3.56,14.466c-1.013,0.503,1.906,1.255,6.799-6.373
	c2.814-4.388,4.682-14.613-3.418-17.075C220.446-27.846,221.648-26.928,220.424-27.921z"/>
<path fill-rule="evenodd" clip-rule="evenodd" fill="none" stroke="#000000" stroke-width="1.0001" stroke-linecap="round" stroke-miterlimit="2.6131" d="
	M203.097-13.185c2.427-1.512,1.958-0.622,3.778-0.324"/>
<path fill-rule="evenodd" clip-rule="evenodd" fill="none" stroke="#000000" stroke-width="1.0001" stroke-linecap="round" stroke-miterlimit="2.6131" d="
	M215.512-13.617c1.37-0.786,2.109-1.237,3.347,0"/>
<path fill-rule="evenodd" clip-rule="evenodd" fill="none" stroke="#000000" stroke-width="1.0001" stroke-linecap="round" stroke-miterlimit="2.6131" d="
	M208.278-7.409c1.086-0.521,6.531-0.194,6.515-0.162C213.047-4.054,207.583-7.075,208.278-7.409z"/>
<path fill-rule="evenodd" clip-rule="evenodd" fill="none" stroke="#000000" stroke-width="1.0001" stroke-linecap="round" stroke-miterlimit="2.6131" d="
	M209.034-2.821c0.588,0,2.005,0.5,2.385,0.305c0.62,0.405,3.474-0.44,4.093-0.737"/>
<path fill-rule="evenodd" clip-rule="evenodd" fill="none" stroke="#000000" stroke-width="1.0001" stroke-linecap="round" stroke-miterlimit="2.6131" d="
	M198.725-3.793c-0.257,0.36-0.498,6.836-0.388,6.802c1.758-0.55,2.124-0.298,2.65-0.631c0.611-0.386,1.002-1.451,0.715-3.696
	C201.692-1.397,198.753-3.833,198.725-3.793z"/>
<path fill-rule="evenodd" clip-rule="evenodd" fill="none" stroke="#000000" stroke-width="1.0001" stroke-linecap="round" stroke-miterlimit="2.6131" d="
	M219.29-3.199c0.945,1.393,0.413,5.729,0.892,5.587c2.507-0.74,2.319,0.329,1.259-4.876C221.273-3.304,218.966-3.678,219.29-3.199z"
	/>
<path fill-rule="evenodd" clip-rule="evenodd" fill="#F7F7F7" stroke="#000000" stroke-width="1.0001" stroke-linecap="round" stroke-miterlimit="2.6131" d="
	M193.003,47.109c-3.117-0.097-14.689,6.052-16.052,8.853c-4.013,8.248-13.166,21.292-2.949,28.285
	c4.635,3.172,6.793,3.62,12.109,4.3c2.328,0.298,1.856,29.066,0.901,32.35c-0.915,3.145-0.645,10.915-2.721,16.305
	c-0.189,0.493-0.09,0.729-0.357,1.023c1.616,1.513,8.546,2.421,12.664,6.768c6.307,6.657,17.988,2.767,24.997-0.234
	c5.529-2.367,15.638-6.487,21.086-7.378c0.019-0.002,4.269-1.822,3.708-2.43c-4.854-5.264-3.942-13.134-5.67-15.077
	c-1.727-1.943-5.397-10.795-5.83-15.978c-0.432-5.182-1.728-14.467-1.295-20.728c0.432-6.262,0.216-9.284,2.591-11.659
	c2.375-2.375,11.012-7.125,12.739-8.637s2.591-6.046,2.591-9.932s0.648-13.603-1.079-13.387s-10.364,3.67-12.308,4.102
	c-1.943,0.432-4.534,2.375-6.046,2.159c-1.511-0.215-17.057,6.478-21.159,5.182S193.003,47.109,193.003,47.109z"/>
<path fill-rule="evenodd" clip-rule="evenodd" fill="#EDCA90" stroke="#000000" stroke-width="1.0001" stroke-linecap="round" stroke-miterlimit="2.6131" d="
	M224.904,21.362c1.077-1.746-1.815-7-5.29-8.017c-3.872-1.133-8.525-2.336-12.505-0.657c-0.847,0.358-2.263,0.912-2.609,1.765
	c-1.097,0.054-6.625,2.845-7.477,4.778c-1.836,4.168-3.336,8.573-2.131,13.251c0.493,1.918,2.838,6.123,2.088,7.665
	c-1.987,4.086-4.68,1.337-4.68,6.153c0,2.756,0.864,6.088,0.864,7.773c-0.558,0.782,0.979,4.479,0.746,7.458
	c-0.438,5.59,0.158,10.675-3.094,15.537c-1.539,2.3-4.085,3.424-2.431,5.219c0.125,0.136,5.069-1.681,5.354-2.061
	c4.392-5.844,0.412-3.91,7.665-8.52c1.914-1.216,0.391-5.637,0.817-8.565c0.114-0.778,2.007,3.288,3.032,4.093
	c1.166,0.915,5.462,8.53,5.398,10.626c-0.164,5.337,1.129-4.982,1.539-5.974c2.933-7.112,3.369-6.524,7.745-12.416
	c0.5-0.673,1.963-1.68,2.159-2.159c0.975,1.109,0.356,8.211-1.403,9.824c-2.179,1.997,0.928,3.972,2.698,4.896
	c5.354,2.792,2.23,5.585,6.693,8.572c1.278,0.855,2.635,0.744,3.994,0.577c0.003,0,0.654-0.171,0.648-0.225
	c-1.427-3.145,0.782-0.766-2.601-4.75c-0.788-0.929-3.314-7.565-3.436-8.825c-0.535-5.545-0.028-8.979,1.582-14.306
	c0.495-1.638,1.643-7.161,0.972-8.717c-0.918-2.128-1.136-2.17-4.075-2.699c-3.211-1.036-3.901,0.933-5.613,1.511
	c0-0.002,3.047-5.026,3.553-8.43C225.811,30.036,226.122,26.102,224.904,21.362z"/>
<path fill-rule="evenodd" clip-rule="evenodd" fill="#8C5C34" stroke="#000000" stroke-width="1.0001" stroke-linecap="round" stroke-miterlimit="2.6131" d="
	M203.205-0.014c-5.337,0.315-11.503,8.42-9.322,7.017c3.046-1.958-2.417,3.745-2.652,6.397c-0.398,4.501,0.64-1.925,1.169,4.694
	c0.215,2.684-0.129,4.915,0.63,7.754c0.072,0.274,0.807,5.643,1.135,4.13c0.422-1.944,1.06-12.439,4.938-10.102
	c1.229,0.741-3.043,4.468,4.074-1.835c3.69-3.268,2.654-3.44,1.216,1.169c-0.329,1.053,7.868-1.765,9.068-3.948
	c1.278-2.324,5.816,2.27,7.351,3.264c2.562,1.66-2.162-5.612,3.191-0.259c1.091,1.09,1.718,11.804,1.774,11.308
	c0.534-4.674,1.654-6.034,2.032-11.237c0.292-4.014,0.187-3.811-0.583-7.495c0.167-0.166,3.607,2.349-0.693-2.789
	c-0.946-1.129-2.45-2.713-2.061-4.075c0.394-1.375-2.338,0.171-5.271-2.366c-4.948-4.279-4.004-0.127-6.576-1.385
	c-0.056-0.027-5.987-1.542-5.966-1c0.079,2.013-0.865,1.045-2.591,1.188C203.824,0.438,203.395-0.025,203.205-0.014z"/>
<path fill-rule="evenodd" clip-rule="evenodd" fill="none" stroke="#000000" stroke-width="1.0001" stroke-linecap="round" stroke-miterlimit="2.6131" d="
	M199.534,28.811c1.958-1.562,5.41-1.213,5.722,0"/>
<path fill-rule="evenodd" clip-rule="evenodd" fill="none" stroke="#000000" stroke-width="1.0001" stroke-linecap="round" stroke-miterlimit="2.6131" d="
	M203.259,28.055c1.333,0.898-1.658,3.275-1.035,0.207C202.381,27.493,203.006,27.885,203.259,28.055z"/>
<path fill-rule="evenodd" clip-rule="evenodd" fill="none" stroke="#000000" stroke-width="1.0001" stroke-linecap="round" stroke-miterlimit="2.6131" d="
	M215.728,29.243c1.407-1.232,2.357-2.645,5.065-1.042c0.441,0.261,0.42,0.55,0.98,0.935"/>
<path fill-rule="evenodd" clip-rule="evenodd" fill="none" stroke="#000000" stroke-width="1.0001" stroke-linecap="round" stroke-miterlimit="2.6131" d="
	M217.552,28.442c-0.549,2.549,3.985,0.454,0.873-0.181l-0.181,0.007"/>
<path fill-rule="evenodd" clip-rule="evenodd" fill="none" stroke="#000000" stroke-width="1.0001" stroke-linecap="round" stroke-miterlimit="2.6131" d="
	M205.958,40.848c0.171-0.397,9.875-0.062,10.587-0.88c-0.447,1.522-3.481,3.881-5.567,3.624
	C207.358,43.146,208.759,42.659,205.958,40.848z"/>
<path fill-rule="evenodd" clip-rule="evenodd" fill="none" stroke="#000000" stroke-width="1.0001" stroke-linecap="round" stroke-miterlimit="2.6131" d="
	M204.284,25.356c-1.983-1.427-5.146-0.766-7.233,0.108"/>
<path fill-rule="evenodd" clip-rule="evenodd" fill="none" stroke="#000000" stroke-width="1.0001" stroke-linecap="round" stroke-miterlimit="2.6131" d="
	M215.944,25.572c1.697-0.933,3.583-0.44,5.182-0.108"/>
<path fill-rule="evenodd" clip-rule="evenodd" fill="none" stroke="#000000" stroke-width="1.0001" stroke-linecap="round" stroke-miterlimit="2.6131" d="
	M195.863,36.854c-0.966-0.047-1.624,0.751-1.816,0.745c-2.281,2.662-2.904,2.964-3.68,6.768c-0.24,1.176,1.934,3.479,1.826,0.746
	c-0.141-3.569,7.813-0.777,8.6,0.146c2.635,3.09,1.177,4.245,2.708,1.662c0.295-0.498-4.364-5.467-5.226-6.891
	C197.567,38.858,196.835,36.901,195.863,36.854z"/>
<path fill-rule="evenodd" clip-rule="evenodd" fill="none" stroke="#000000" stroke-width="1.0001" stroke-linecap="round" stroke-miterlimit="2.6131" d="
	M224.418,36.476c-1.032,0.392-2.933,5.025-4.273,6.252c-1.476,1.351-0.561,6.33-0.099,6.271c1.557-0.197,0.83-2.325,1.808-3.698
	c1.768-2.483,2.496-2.131,5.75-2.131c3.271,0,5.073,1.641,5.073,1.619c0-1.852-1.843-7.312-4.642-7.656
	C227.167,37.026,225.223,36.17,224.418,36.476z"/>
<path fill-rule="evenodd" clip-rule="evenodd" fill="none" stroke="#000000" stroke-width="1.0001" stroke-linecap="round" stroke-miterlimit="2.6131" d="
	M202.233,48.999c-0.604,1.424-0.973,11.282-0.361,12.847c0.204,0.521,0.349,0.95,0.577,1.511"/>
<path fill-rule="evenodd" clip-rule="evenodd" fill="none" stroke="#000000" stroke-width="1.0001" stroke-linecap="round" stroke-miterlimit="2.6131" d="
	M220.694,50.187c0,1.262,0.501,6.405,1.187,7.233"/>
<path fill-rule="evenodd" clip-rule="evenodd" fill="#EDCA90" stroke="#000000" stroke-width="1.0001" stroke-linecap="round" stroke-miterlimit="2.6131" d="
	M250.274,33.777c0.322,1.354,1.788,6.972-0.469,6.063c-0.013-0.005-0.714-0.018-0.719-0.019c-4.063,5.713-2.855,9.729-2.061,16.194
	c0.126,1.025,1.796,4.906,3.896,3.347c1.995-1.482,6.352-2.511,7.844-5.83c0.827-1.84,5.936-7.448,6.182-10.04
	c0.196-2.063,2.869-4.369,1.061-9.608c-0.408-1.185-2.455-5.722-3.318-7.557c-0.863-1.835-4.103-6.91-5.613-9.824
	c-1.512-2.915-4.644-7.881-5.614-9.824c-0.972-1.943-3.239-4.318-3.347-5.83c-0.108-1.511-0.972-7.557-1.403-8.745
	c-0.432-1.187-2.483-3.994-2.483-3.994s-6.153,5.182-7.341,6.585s-7.341,7.557-7.341,7.557s2.375,0.54,4.533,2.159
	c2.159,1.619,5.83-0.108,6.478,0.647c0.648,0.756,4.751,7.773,5.507,11.875C246.819,21.038,249.95,30.539,250.274,33.777z"/>
<path fill-rule="evenodd" clip-rule="evenodd" fill="#EDCA90" stroke="#000000" stroke-width="1.0001" stroke-linecap="round" stroke-miterlimit="2.6131" d="
	M239.587-17.233c-6.294-0.984-2.255,1.451-4.183,0.945c-2.227-0.584-2.863,2.889-2.934,2.878c-3.173-0.519-1.881,2.139-2.601,2.051
	c-2.813-0.346-0.839,5.2-1.699,6.407c-0.067,0.094-0.912,4.798,0.197,5.66c-0.018-0.075,1.212,1.117,1.169,1.274
	c0.189,0.11,3.221-2.809,3.563-4.488c0.428-2.1,1.426-1.829,0.296-4.839c-0.157,0,3.048,5.99,3.825-0.01
	c0.077-0.595,1.049,1.981,1.798-2.088c0.007-0.035,1.07-0.547,1.099-1.25c0.042-1.032,1.087-6.254-0.314-6.365L239.587-17.233z"/>
<path fill-rule="evenodd" clip-rule="evenodd" fill="none" stroke="#000000" stroke-width="1.0001" stroke-linecap="round" stroke-miterlimit="2.6131" d="
	M236.456-16.639c0,2.321,0.432,4.345,0.432,7.017"/>
<path fill-rule="evenodd" clip-rule="evenodd" fill="none" stroke="#000000" stroke-width="1.0001" stroke-linecap="round" stroke-miterlimit="2.6131" d="
	M233.109-13.832c0.172,2.009,0.92,4.393,0.863,6.585"/>
<path fill-rule="evenodd" clip-rule="evenodd" fill="#EDCA90" stroke="#000000" stroke-width="1.0001" stroke-linecap="round" stroke-miterlimit="2.6131" d="
	M190.951,198.791c0,9.284-2.158,20.512,1.728,28.716c3.887,8.205,8.637,20.297,9.068,26.342c0.432,6.046-2.375,12.308-4.318,17.273
	s-4.966,4.966-4.75,9.933c0.216,4.966,6.693,8.853,9.068,7.341s6.262-9.716,7.341-14.898c1.08-5.182,0.864-18.568,3.239-14.898
	c2.375,3.671,9.284,11.444,10.796,14.683s5.182,7.342,6.909,6.478c1.728-0.863,2.375-4.318,5.182-6.693s1.307-4.388,0.875-6.33
	c-0.432-1.943-5.27-5.612-9.865-7.78c-4.595-2.169-5.907-2.731-4.612-7.481c1.296-4.75,6.478-21.591,9.5-24.614
	c3.023-3.022,9.5-18.784,11.228-20.943s6.478-9.717,4.75-11.228c-1.727-1.512-5.613-1.08-11.875-1.08s-27.853,2.591-31.739,2.807
	C199.588,196.632,190.52,198.791,190.951,198.791L190.951,198.791z M211.031,200.518c-0.021,0.026,0.521,0.649,0.92,0.29
	c2.212-1.994,6.748-3.063,7.538-1.153c-1.514,2.625-2.966,13.544-2.844,16.409c0.283,6.627-1.122,9.395-1.746,14.467
	c-0.518,4.204-4.053,13.022-4.028,12.955c2.13-5.745-0.065-13.994,0.753-15.979C213.227,223.617,210.499,201.161,211.031,200.518z"
	/>
<path fill-rule="evenodd" clip-rule="evenodd" fill="#A89E83" stroke="#000000" stroke-width="1.0001" stroke-linecap="round" stroke-miterlimit="2.6131" d="
	M184.906,139.414c0.216,6.91,1.511,17.49,1.727,24.831s-0.647,19.217-1.079,23.319c-0.432,4.102-3.022,9.284-1.728,10.796
	c1.296,1.511,11.012,1.727,15.114,3.022c4.103,1.295,11.012-0.433,13.171-1.943c2.159-1.512,9.716,1.295,12.738-0.216
	c3.023-1.512,3.239-2.375,8.421-3.239c5.183-0.863,12.523-2.159,14.683-2.807s0.863-4.966,0.863-6.909s-0.647,1.728-1.295-2.591
	c-0.648-4.318-4.75-19.001-4.103-23.319s-0.432-12.955,0-15.114s-0.432-7.989-0.432-7.989s-9.285,2.159-12.092,3.239
	s-10.796,3.455-14.466,5.182c-3.671,1.727-7.989,3.022-11.443,1.943c-3.455-1.08-10.148-4.966-12.092-5.614
	C190.951,141.357,184.689,139.63,184.906,139.414z"/>
<path fill-rule="evenodd" clip-rule="evenodd" fill="none" stroke="#000000" stroke-width="1.0001" stroke-linecap="round" stroke-miterlimit="2.6131" d="
	M217.509,151.289c-1.659,5.943-2.231,24.912-0.271,30.876c0.075,0.228-0.16,11.255-0.16,12.308"/>
<path fill-rule="evenodd" clip-rule="evenodd" fill="none" stroke="#000000" stroke-width="1.0001" stroke-linecap="round" stroke-miterlimit="2.6131" d="
	M210.815,242.837c0,2.497,0.728,12.378,0,13.603"/>
<path fill-rule="evenodd" clip-rule="evenodd" fill="#EDCA90" stroke="#000000" stroke-width="1.0001" stroke-linecap="round" stroke-miterlimit="2.6131" d="
	M170.547,78.526c0.98,4.121,2.298,15.213,0.812,19.216c-2.153,5.8-0.305,29.188-2.449,39.71c-1.129,5.541-4.122,9.415-1.764,15.133
	c0.582,1.413,0.161,0.535,0.573-1.314c0.055,0.047,2.107-1.167,3.097,0.019c0.794,0.95,4.624,5.282,5.293,4.806
	c1.391-0.99,4.163,1.527,1.672-5.669c-3-8.667,3.806-3.834,0.487-11.875c-0.744-1.802,4.519-21.507,6.064-24.398
	c3.612-6.76,0.829-17.972,2.677-22.456c1.979-4.801-7.67-2.338-13.257-10.851c-0.058-0.087-2.351-1.992-2.554-2.122
	C171.188,78.728,170.658,78.993,170.547,78.526z"/>
<path fill-rule="evenodd" clip-rule="evenodd" fill="none" stroke="#000000" stroke-width="1.0001" stroke-linecap="round" stroke-miterlimit="2.6131" d="
	M107.176,3.819c-8.952-6.451-10.511-0.148-11.66-1.295c-4.005-4.003-7.878,2.239-10.364,3.455"/>
<path fill-rule="evenodd" clip-rule="evenodd" fill="none" stroke="#000000" stroke-width="1.0001" stroke-linecap="round" stroke-miterlimit="2.6131" d="
	M59.891,10.944c-3.241-3.346-7.577,1.583-9.481,0.056c-3.936-3.156-6.826-0.018-8.871,1.887"/>
<path fill-rule="evenodd" clip-rule="evenodd" fill="none" stroke="#000000" stroke-width="1.0001" stroke-linecap="round" stroke-miterlimit="2.6131" d="
	M55.356-5.465c-3.969-3.166-5.292,1.576-8.186,0.376c-1.627-0.674-6.736,0.6-8.007,2.862"/>
<path fill-rule="evenodd" clip-rule="evenodd" fill="none" stroke="#000000" stroke-width="1.0001" stroke-linecap="round" stroke-miterlimit="2.6131" d="
	M39.163-10.215c-0.34-0.462-4.538-3.903-6.243-1.727c-1.123,1.432-6.058-4.589-11.246,1.079"/>
</svg>
