<svg width="400" height="400" xmlns="http://www.w3.org/2000/svg">
 <g>
  <title>background</title>
 </g>

 <style type="text/css">.st0{fill:#FFFFFF;}
	.st1{fill:#E4F0FF;}
	.st2{opacity:0.5;}
	.st3{fill:#FFC0BB;}
	.st4{fill:#7683C4;}
	.st5{fill:#3C2340;}
	.st6{fill:#07085B;}
	.st7{fill:#F99893;}
	.st8{fill:#333333;}
	.st9{fill:#2C377A;}
	.st10{fill:#404996;}
	.st11{fill:#838CCF;}
	.st12{fill:#FF5B7E;}
	.st13{fill:#E5426E;}
	.st14{fill:#4C2816;}
	.st15{opacity:0.5;fill:#4C2816;enable-background:new    ;}
	.st16{fill:#F484A2;}
	.st17{fill:#FCB7B4;}
	.st18{fill:#F24C78;}
	.st19{fill:#FEE4CB;}
	.st20{opacity:0.5;fill:#FEE4CB;enable-background:new    ;}
	.st21{fill:#E8B891;}
	.st22{fill:#88C7FF;}
	.st23{fill:#B0D6FF;}
	.st24{opacity:0.3;fill:#C9EAFD;enable-background:new    ;}
	.st25{fill:#142666;}
	.st26{fill:#FEB546;}
	.st27{fill:#E87B50;}
	.st28{fill:#F3FDFF;}
	.st29{fill:#29589B;}
	.st30{fill:#EA426E;}
	.st31{opacity:0.3;fill:#E87B50;enable-background:new    ;}
	.st32{fill:#F76390;}
	.st33{fill:#06062D;}
	.st34{fill:#09083C;}
	.st35{fill:#3660AC;}
	.st36{fill:#F9A435;}
	.st37{fill:#EF972E;}
	.st38{opacity:0.3;fill:#F99893;enable-background:new    ;}
	.st39{fill:#70C0FD;}
	.st40{opacity:0.3;fill:#4188E4;enable-background:new    ;}
	.st41{fill:#E6F7FF;}
	.st42{opacity:0.2;fill:#FFFFFF;enable-background:new    ;}
	.st43{fill:#183658;}
	.st44{opacity:0.2;fill:#E0A689;enable-background:new    ;}
	.st45{fill:#DAEEF7;}
	.st46{opacity:0.3;fill:#DAEEF7;enable-background:new    ;}
	.st47{opacity:0.5;fill:#88C7FF;enable-background:new    ;}
	.st48{fill:#4188E4;}
	.st49{fill:#18196B;}
	.st50{fill:#FF7B8C;}
	.st51{fill:#AFDBFE;}
	.st52{opacity:0.5;fill:#70C0FD;enable-background:new    ;}
	.st53{fill:#97CEF7;}
		#girltwo {
	 	}
	 
		#boyone&gt;#boyonehand {
			animation: boye 4s ease-in-out infinite reverse;
			transform-box: fill-box;
			 transform-origin: top;
		}

		@keyframes boye {
			0% {}

			50% {
				transform: rotateZ(-10deg);
			}
		}
	 #boytwo&gt;#boytwohand {
			animation: boy 7s ease-in-out infinite reverse;
			transform-box: fill-box;
			    transform-origin: right;
		}
			@keyframes boy {
			0% {}

			50% {
				transform: rotateZ(15deg);
			}
		}
.boytwohead{animation: gonee 7s ease-in-out infinite reverse;
    transform-box: fill-box;
    transform-origin: 1;
		}

		@keyframes gonee {
			0% {}

			50% {
				transform: rotateZ(-20deg);
			}
		}	

	.gonehead{
			animation: gone 7s ease-in-out infinite reverse;
    transform-box: fill-box;
    transform-origin: 1;
		}

		@keyframes gone {
			0% {}

			50% {
				transform: rotateZ(10deg);
			}
		}

		.gonehandup,.gonehanddown,.gonecup{
		animation: gonee 7s ease-in-out infinite ;
    transform-box: fill-box;
    transform-origin: left;	
		}	
				@keyframes gonee {
			0% {}

			50% {
				transform: rotateZ(-10deg);
			}
		}
 .gmtwo{	animation:goeneee 2.5s ease-in-out infinite ;}			@keyframes goeneee {
			0% {}

			10%,90% {
				opacity:0;
			}
			8%,20%,50% {
				opacity:1;
			}
		}		
 .boyonemouth{	animation:goneee 2s ease-in-out infinite ;}			@keyframes goneee {
			0% {}

			10%,90% {
				opacity:0;
			}
			5%,15%,85% {
				opacity:1;
			}
		}
		.boytwomuth{	animation:goneee 2s ease-in-out infinite reverse;}	

	.clockmin{animation: goneeee 20s cubic-bezier(0.51, 0.55, 1, 1) infinite;
    transform-box: fill-box;
	 transform-box: fill-box;
  
	}
	@keyframes goneeee {
			0% {}

			100% {
				    transform: rotate(
1turn
);
			}
		}
			.clockhour{animation: goneeee 120s cubic-bezier(0.51, 0.55, 1, 1) infinite;
    transform-box: fill-box;
	 transform-box: fill-box;
  
	}
	.gtwohand{
		animation: gaonee 7s ease-in-out infinite ;
    transform-box: fill-box;
    transform-origin: right;	
		}	
				@keyframes gaonee {
			0% {}

			50% {
				transform: rotateZ(8deg);
			}
		}</style>
 <g>
  <title>Layer 1</title>
  <g stroke="null" id="girltwo">
   <polygon stroke="null" class="st3" points="211.93124389648438,69.39214324951172 211.93124389648438,72.68814086914062 211.61741638183594,80.69270324707031 227.4695587158203,78.65234375 229.19598388671875,76.29804992675781 229.19598388671875,70.17689514160156 229.9807586669922,64.6835708618164 219.15109252929688,64.6835708618164 " id="svg_42"/>
   <path stroke="null" class="st6" d="m236.41584,28.7415c0,0 5.96419,-4.39466 13.18399,-0.47086c7.21981,3.6099 8.00457,16.95085 5.17943,20.56075c-2.82514,3.296 0.47086,7.69066 -4.86552,12.08533c-5.17943,4.39466 -13.96875,6.43504 -19.61904,1.56952c-5.17943,-4.86552 -2.04038,-15.69523 -2.04038,-15.69523l8.16152,-18.04951z" id="svg_43"/>
   <path stroke="null" class="st7" d="m202.35719,46.47711c0.78476,2.35428 0.47086,4.86552 -1.56952,5.65028c-2.04038,0.78476 -4.39466,-0.47086 -5.17943,-2.82514s-0.47086,-4.86552 1.56952,-5.65028c2.04038,-0.78476 4.39466,0.3139 5.17943,2.82514z" id="svg_44"/>
   <path stroke="null" class="st7" d="m229.98079,63.42796c0,0 -0.47086,3.296 -0.78476,6.9059c-3.6099,2.82514 -8.00457,4.39466 -12.71314,3.6099c-1.56952,0 -3.13905,-0.78476 -4.39466,-1.25562c0,-2.35428 0,-4.86552 -0.47086,-6.12114c-1.25562,-2.82514 18.36342,-3.13905 18.36342,-3.13905z" id="svg_45"/>
   <path stroke="null" class="st3" d="m203.14195,60.13196c-0.78476,-0.78476 -1.25562,-2.04038 -1.56952,-3.296c-1.25562,-2.82514 -1.56952,-6.12114 -2.04038,-8.94628c0,-0.47086 0,-1.25562 -0.47086,-1.56952c-0.47086,-2.35428 -0.47086,-4.86552 0,-7.69066c1.56952,-8.47542 9.26019,-14.91047 17.57866,-15.38133c11.61447,-0.78476 21.65942,8.00457 21.65942,19.30513c1.25562,-0.78476 2.82514,-0.78476 3.92381,-0.47086c2.35428,0.78476 3.13905,4.08076 2.04038,7.21981c-1.25562,2.82514 -4.39466,4.39466 -6.74895,3.296c-0.47086,0 -0.78476,-0.47086 -0.78476,-0.47086c-0.78476,9.73104 -8.78933,16.95085 -18.36342,16.95085c-4.86552,0 -8.78933,-2.04038 -11.92837,-4.86552c-0.47086,0 -0.47086,-0.47086 -0.78476,-0.78476c-0.94171,-0.78476 -1.72648,-2.04038 -2.51124,-3.296z" id="svg_46"/>
   <path stroke="null" class="st8" d="m220.4067,46.00625c0,1.25562 0.78476,2.04038 2.04038,2.04038s2.04038,-0.78476 2.04038,-2.04038s-0.78476,-2.04038 -2.04038,-2.04038s-2.04038,0.94171 -2.04038,2.04038z" id="svg_47"/>
   <path stroke="null" class="st8" d="m205.18233,46.47711c0,1.25562 0.78476,2.04038 2.04038,2.04038s2.04038,-0.78476 2.04038,-2.04038c0,-1.25562 -0.78476,-2.04038 -2.04038,-2.04038c-1.25562,0.47086 -2.04038,1.25562 -2.04038,2.04038z" id="svg_48"/>
   <g stroke="null" id="svg_49">
    <g stroke="null" id="svg_50">
     <path stroke="null" class="st7" d="m214.75642,42.86721c0,0.47086 0,1.25562 0,1.56952c0,0.47086 0,1.25562 0,1.56952c0,0.47086 0,1.25562 -0.47086,1.56952c0,0.47086 -0.47086,1.25562 -0.47086,1.56952l0,0l0,0l0,0l0,0c0,0.47086 -0.47086,0.47086 -0.47086,0.78476c0,0.78476 0.47086,1.25562 0.78476,1.56952c0.47086,0.47086 1.25562,0.78476 1.56952,0.78476c0.47086,0 1.25562,0.47086 1.56952,0.47086c-0.47086,0 -0.47086,0 -0.78476,0c-0.47086,0 -0.47086,0 -0.78476,-0.47086c-0.47086,-0.47086 -1.25562,-0.47086 -1.56952,-0.78476c-0.47086,-0.47086 -0.78476,-0.78476 -0.47086,-1.56952c0,-0.47086 0,-0.47086 0.47086,-0.78476l0,0l0,0l0,0l0,0c0,-0.47086 0.47086,-0.47086 0.47086,-0.78476c0,-0.47086 0,-0.47086 0.47086,-0.78476c0,-0.47086 0,-1.25562 0,-1.56952c-0.3139,-1.09867 -0.3139,-2.04038 -0.3139,-3.13905z" id="svg_51"/>
    </g>
   </g>
   <g stroke="null" id="svg_52">
    <g stroke="null" id="svg_53">
     <path stroke="null" class="st6" d="m218.68023,42.86721c0.78476,-0.47086 1.56952,-0.78476 2.35428,-1.25562c0.78476,-0.47086 2.04038,-0.47086 2.82514,-0.47086c0.47086,0 0.78476,0 1.25562,0s0.47086,0 0.78476,0l0.47086,0l0.47086,0c0.78476,0.47086 1.56952,0.78476 2.35428,1.25562c-0.78476,-0.78476 -1.25562,-1.25562 -2.35428,-2.04038c-0.47086,-0.47086 -0.78476,-0.47086 -1.25562,-0.47086c-0.47086,0 -0.78476,-0.47086 -1.56952,-0.47086c-0.78476,0 -2.04038,0 -2.82514,0.47086c-0.47086,0 -0.78476,0.47086 -1.25562,0.78476c-0.3139,1.72648 -0.78476,1.72648 -1.25562,2.19733z" id="svg_54"/>
    </g>
   </g>
   <g stroke="null" id="svg_55">
    <g stroke="null" id="svg_56">
     <path stroke="null" class="st6" d="m211.14652,43.18111c-0.47086,-0.47086 -0.78476,-0.47086 -1.25562,-0.78476c-0.47086,-0.47086 -0.78476,-0.47086 -1.25562,-0.47086c-0.78476,-0.47086 -2.04038,-0.47086 -2.82514,-0.47086c-0.47086,0 -0.78476,0 -1.56952,0.47086c-0.47086,0 -0.78476,0.47086 -1.25562,0.78476c-0.78476,0.47086 -1.56952,1.25562 -2.04038,2.04038c0.78476,-0.47086 1.56952,-1.25562 2.35428,-1.56952l0.47086,0l0.47086,0c0.47086,0 0.47086,0 0.78476,-0.47086c0.47086,0 0.78476,-0.47086 1.25562,-0.47086c0.78476,0 2.04038,0 2.82514,0c0.47086,0.15695 1.25562,0.62781 2.04038,0.94171z" id="svg_57"/>
    </g>
   </g>
   <path stroke="null" class="st6" d="m199.53205,28.7415c3.13905,-12.55618 19.93294,-13.65485 19.93294,-13.65485c26.05408,0.78476 22.75808,23.07199 22.44418,26.68189c-0.78476,0 -1.56952,0 -3.13905,0.78476c-0.47086,0.47086 -0.78476,0.78476 -1.25562,0.78476c-3.13905,-0.78476 -4.39466,-5.65028 -5.96419,-8.00457c-2.35428,-3.296 -11.61447,-1.25562 -15.22437,-3.296c-3.6099,-2.04038 -4.39466,-5.65028 -4.39466,-5.65028c-13.65485,2.82514 -12.71314,16.95085 -12.71314,16.95085c-0.78476,0 -1.25562,0 -1.25562,0s-1.25562,-3.296 1.56952,-14.59656z" id="svg_58"/>
   <path stroke="null" class="st0 gmtwo" d="m209.8909,56.52206c0.47086,2.04038 2.82514,3.296 5.65028,3.296c2.82514,0 4.86552,-1.56952 5.17943,-3.6099l-10.82971,0.3139z" id="svg_59"/>
   <path stroke="null" class="st3" d="m178.81434,376.39084l14.75352,-9.26019l12.71314,7.69066l-4.39466,3.296l-15.53828,2.35428c0,0 -5.96419,-0.78476 -6.43504,-0.78476c0,-0.47086 -1.09867,-3.296 -1.09867,-3.296z" id="svg_60"/>
   <path stroke="null" class="st3" d="m214.75642,244.08005c0,0 -2.04038,50.38169 -2.35428,59.32797c0,8.94628 -4.86552,73.45367 -6.74895,79.10396l-11.14361,-0.78476c0,0 -7.53371,-125.40488 -5.17943,-137.49021c2.66819,-12.24228 25.42627,-0.15695 25.42627,-0.15695z" id="svg_61"/>
   <path stroke="null" class="st11" d="m178.81434,376.39084l-3.6099,2.35428c-1.56952,1.25562 -0.78476,3.6099 1.25562,3.6099l28.72227,0c1.25562,0 2.04038,-0.78476 2.04038,-1.56952l0,-6.12114c-19.61904,6.27809 -26.05408,4.55162 -28.40837,1.72648z" id="svg_62"/>
   <path stroke="null" class="st3" d="m249.12897,376.86169l13.65485,-10.82971l13.96875,5.65028l-3.92381,3.6099l-15.22437,4.39466c0,0 -5.96419,0 -6.43504,0c-0.47086,0 -2.04038,-2.82514 -2.04038,-2.82514z" id="svg_63"/>
   <path stroke="null" class="st3" d="m265.92287,241.25491c0,0 5.17943,50.38169 5.96419,58.85711c1.25562,8.47542 5.65028,73.45367 4.39466,79.10396l-11.14361,0.78476c0,0 -25.11237,-123.0506 -24.32761,-135.60678c0.78476,-12.39923 25.11237,-3.13905 25.11237,-3.13905z" id="svg_64"/>
   <path stroke="null" class="st6" d="m249.12897,376.86169l-3.6099,2.82514c-1.56952,1.25562 -0.47086,4.08076 1.56952,3.6099l28.40837,-4.08076c1.25562,0 1.56952,-1.25562 1.56952,-2.04038l-0.78476,-5.65028c-17.89256,8.47542 -24.79846,7.69066 -27.15275,5.33638z" id="svg_65"/>
   <path stroke="null" class="st3" d="m261.5282,168.27209l11.14361,-12.08533l-8.00457,-8.00457l-13.65485,17.4217c0,0 8.00457,21.03161 8.31847,21.81637c0.47086,0.78476 2.04038,0 2.04038,0c-0.3139,-3.76686 -0.3139,-13.96875 0.15695,-19.14818l0,0z" id="svg_66"/>
   <path stroke="null" class="st12" d="m294.33123,122.75593c-3.92381,-12.87009 -33.9017,-46.77178 -44.4175,-48.34131c-10.35885,-1.56952 -19.14818,1.56952 -19.14818,1.56952s-10.82971,6.9059 -19.93294,2.04038c0,0 -2.35428,-0.47086 -5.96419,0l0,0c0,0 -19.61904,16.95085 -10.35885,37.98246c0,0 2.82514,21.03161 3.13905,37.04074c0,0 3.92381,8.47542 24.79846,8.00457c20.7177,-0.47086 23.22894,-9.73104 23.22894,-9.73104s2.35428,-39.86588 5.96419,-46.45788c0,0 21.97332,17.4217 22.44418,19.30513c0.47086,2.04038 -11.61447,23.85675 -15.53828,28.56532c0,0 2.82514,6.12114 12.39923,8.00457c-0.15695,0.62781 27.3097,-25.11237 23.38589,-37.98246z" id="svg_67"/>
   <path stroke="null" class="st11" d="m197.17776,153.36162c0,0 -14.75352,16.16609 -16.00913,68.1173c-1.25562,52.10816 1.56952,70.62853 1.56952,70.62853s40.8076,9.73104 97.15347,-8.47542c0,0 -13.96875,-98.40909 -34.37255,-131.83993c0,0 -24.0137,-14.12571 -48.34131,1.56952z" id="svg_68"/>
   <g stroke="null" class="gtwohand" id="svg_69">
    <path stroke="null" class="st3" d="m140.04713,127.46449l-17.26475,-7.69066l3.6099,-8.94628c0,0 8.31847,2.82514 16.7939,5.65028l-3.13905,10.98666z" id="svg_70"/>
    <path stroke="null" class="st3" d="m128.74656,113.02488c0,-0.78476 -2.35428,-2.04038 -2.35428,-2.04038c-2.04038,-0.78476 -5.65028,-1.56952 -9.26019,-1.56952c-1.25562,0 -2.04038,1.25562 -1.56952,2.04038l0,0l2.04038,0c0,0 0,0 -0.47086,0s-1.25562,0.47086 -2.04038,0.47086l0.78476,8.47542c1.56952,-0.47086 3.92381,1.25562 7.21981,0.47086l4.39466,-1.25562c-0.47086,-0.47086 -0.47086,-1.25562 -0.78476,-1.56952c-0.47086,-0.78476 -0.78476,-1.56952 -0.78476,-2.82514c0.15695,-0.15695 2.82514,-1.41257 2.82514,-2.19733z" id="svg_71"/>
    <g stroke="null" id="svg_72">
     <path stroke="null" class="st12" d="m111.16791,122.75593l2.35428,-0.47086c1.25562,-0.47086 2.35428,-0.78476 3.13905,-1.56952l0.47086,-0.47086c1.25562,-0.78476 2.04038,-2.35428 2.35428,-4.08076l0,-0.78476c0,-0.78476 0,-1.56952 -0.47086,-2.35428l0,0c-0.47086,-0.78476 -1.25562,-1.56952 -2.35428,-1.56952l-2.82514,-0.47086l-2.66819,11.77142zm1.72648,-2.04038l2.04038,-8.00457l1.56952,0c0.78476,0 1.25562,0.47086 1.56952,1.25562l0,0c0.47086,0.47086 0.47086,1.25562 0.47086,1.56952l0,0.47086c0,1.25562 -0.78476,2.04038 -1.56952,2.82514l-0.47086,0.47086c-0.78476,0.47086 -1.56952,0.78476 -2.04038,1.25562l-1.56952,0.15695z" id="svg_73"/>
     <path stroke="null" class="st12" d="m90.92106,108.94412l0,0l11.92837,0.47086l11.92837,-0.47086l0,0l0,0c0,1.25562 -0.47086,12.87009 -5.65028,18.20647c0,0 -3.6099,0.47086 -6.43504,0.47086c-3.13905,0 -6.74895,-1.25562 -6.74895,-1.25562c-5.02247,-4.86552 -5.02247,-16.16609 -5.02247,-17.4217l0,0z" id="svg_74"/>
     <path stroke="null" class="st13" d="m90.92106,108.94412l0,0l0,0l11.92837,0.47086l0.78476,0c-2.35428,1.56952 -4.86552,3.6099 -5.17943,6.9059c0,5.17943 2.82514,10.04495 7.21981,10.82971c-0.78476,0 -2.04038,0.47086 -2.82514,0.47086c-3.13905,0 -6.74895,-1.25562 -6.74895,-1.25562c-5.17943,-4.86552 -5.17943,-16.16609 -5.17943,-17.4217z" id="svg_75"/>
     <path stroke="null" class="st12" d="m90.92106,108.94412c0,1.56952 5.65028,3.296 11.92837,3.296c6.74895,0 11.92837,-1.56952 11.92837,-3.296c0,-1.56952 -5.17943,-3.296 -11.92837,-3.296c-6.43504,0.15695 -11.92837,1.25562 -11.92837,3.296z" id="svg_76"/>
     <path stroke="null" class="st14" d="m113.67914,110.19974l-3.6099,0.78476l-2.82514,0.47086l-3.92381,0l-3.92381,0l-2.35428,-0.47086l-2.35428,-0.47086l-1.56952,-0.78476c0,0 -0.47086,-0.47086 -0.78476,-0.78476c1.56952,-1.25562 5.96419,-2.04038 11.14361,-2.04038c5.17943,0 9.57409,0.78476 11.14361,2.04038l-0.94171,1.25562z" id="svg_77"/>
     <path stroke="null" class="st15" d="m93.27534,109.41498c0,-0.47086 0,-0.47086 0,0c3.13905,-0.78476 6.43504,-1.25562 9.26019,-1.25562l0,0l0,0l0,0l0,0c2.82514,0 5.96419,0.47086 9.26019,1.25562l0,0c0,0 0,0.47086 -0.47086,0.47086c-1.25562,0.47086 -2.35428,0.47086 -3.6099,0.47086c-1.25562,-0.47086 -3.13905,-0.47086 -5.17943,-0.78476c-2.04038,0 -3.92381,0.47086 -5.17943,0.78476c-1.25562,0.47086 -2.35428,0.47086 -3.6099,-0.47086c-0.47086,-0.47086 -0.47086,-0.47086 -0.47086,-0.47086z" id="svg_78"/>
     <path stroke="null" class="st0" d="m112.89438,108.94412c-0.47086,0 -0.78476,-0.47086 -1.25562,-0.47086s-0.78476,-0.47086 -1.25562,-0.47086c-0.47086,0 -0.78476,0 -1.25562,-0.47086c-0.47086,0 -0.47086,0 -0.78476,0c-0.47086,0 -0.47086,0 -0.78476,0c-0.78476,0 -1.56952,0 -2.35428,-0.47086c-0.78476,0 -1.56952,0 -2.82514,0c-1.56952,0 -3.6099,0 -5.17943,0.47086c-0.78476,0 -1.56952,0.47086 -2.35428,0.47086c-0.47086,0 -0.78476,0.47086 -1.25562,0.47086s-0.78476,0.47086 -1.25562,0.47086l0.47086,0l0.47086,0c0.47086,0 0.47086,0 0.78476,-0.47086c0.47086,0 0.78476,-0.47086 1.25562,-0.47086c0.78476,0 1.56952,-0.47086 2.35428,-0.47086s1.56952,0 2.35428,-0.47086c0.78476,0 1.56952,0 2.35428,0c1.56952,0 3.6099,0 5.17943,0.47086c0.47086,0 0.47086,0 0.78476,0c0.47086,0 0.47086,0 0.78476,0c0.47086,0 0.78476,0 1.25562,0.47086c0.47086,0 0.78476,0 1.25562,0.47086c0.47086,0.15695 0.47086,0.15695 1.25562,0.47086c-0.47086,0 0,0 0,0z" id="svg_79"/>
     <path stroke="null" class="st16" d="m90.92106,108.94412c0,1.56952 5.65028,3.296 11.92837,3.296c6.74895,0 11.92837,-1.56952 11.92837,-3.296c0,-1.56952 -5.17943,-3.296 -11.92837,-3.296c-6.43504,0.15695 -11.92837,1.25562 -11.92837,3.296zm0.3139,0c0,-1.56952 5.17943,-2.82514 11.61447,-2.82514c6.43504,0 11.61447,1.25562 11.61447,2.82514s-5.17943,2.82514 -11.61447,2.82514c-6.43504,0 -11.61447,-1.09867 -11.61447,-2.82514z" id="svg_80"/>
    </g>
    <path stroke="null" class="st17" d="m120.89895,113.02488c0,0.78476 -1.25562,1.25562 -2.82514,1.25562c-1.56952,0 -2.82514,-0.47086 -2.82514,-1.25562s1.25562,-1.25562 2.82514,-1.25562c1.09867,0 2.82514,0.47086 2.82514,1.25562z" id="svg_81"/>
    <path stroke="null" class="st17" d="m120.42809,115.06526c0,0.78476 -1.25562,1.25562 -2.82514,1.25562c-1.56952,0 -2.82514,-0.47086 -2.82514,-1.25562c0,-0.78476 1.25562,-1.25562 2.82514,-1.25562c1.56952,-0.3139 2.82514,0.47086 2.82514,1.25562z" id="svg_82"/>
    <path stroke="null" class="st17" d="m119.95723,117.10564c0,0.78476 -1.25562,1.25562 -2.82514,1.25562c-1.56952,0 -2.82514,-0.47086 -2.82514,-1.25562c0,-0.78476 1.25562,-1.25562 2.82514,-1.25562c1.72648,0 2.82514,0.3139 2.82514,1.25562z" id="svg_83"/>
    <path stroke="null" class="st17" d="m119.95723,118.98907c0,0.78476 -1.25562,1.25562 -2.82514,1.25562c-1.56952,0 -2.82514,-0.47086 -2.82514,-1.25562c0,-0.78476 1.25562,-1.25562 2.82514,-1.25562c1.72648,0.15695 2.82514,0.94171 2.82514,1.25562z" id="svg_84"/>
    <path stroke="null" class="st18" d="m204.39757,77.86757l0,0c-5.17943,0.78476 -13.18399,4.08076 -19.14818,13.65485c-10.04495,16.16609 -20.4038,26.68189 -20.4038,26.68189l-24.0137,-2.82514c0,0 -2.82514,8.94628 -1.56952,12.87009c0,0 17.57866,10.04495 27.6236,6.9059c10.04495,-3.296 26.83884,-19.30513 26.83884,-19.30513c-8.94628,-21.03161 10.67276,-37.98246 10.67276,-37.98246z" id="svg_85"/>
   </g>
  </g>
 </g>
</svg>