<?xml version="1.0" encoding="UTF-8"?>
<!DOCTYPE svg PUBLIC "-//W3C//DTD SVG 1.1//EN" "http://www.w3.org/Graphics/SVG/1.1/DTD/svg11.dtd">
<!-- Creator: CorelDRAW X6 -->
<svg xmlns="http://www.w3.org/2000/svg" xml:space="preserve" width="33.5236mm" height="71.4327mm" version="1.1" style="shape-rendering:geometricPrecision; text-rendering:geometricPrecision; image-rendering:optimizeQuality; fill-rule:evenodd; clip-rule:evenodd"
viewBox="0 0 257 548"
 xmlns:xlink="http://www.w3.org/1999/xlink">
 <defs>
  <style type="text/css">
   <![CDATA[
    .fil12 {fill:#2A292E}
    .fil22 {fill:#373435}
    .fil5 {fill:#606062}
    .fil24 {fill:#E6E7E8}
    .fil9 {fill:#FEFEFE}
    .fil1 {fill:#435353}
    .fil2 {fill:#537473}
    .fil0 {fill:#91D8F7}
    .fil3 {fill:#A9ABAE}
    .fil7 {fill:#ABA778}
    .fil6 {fill:#D7CC75}
    .fil18 {fill:#1C1A1C}
    .fil4 {fill:#242429}
    .fil21 {fill:#42362A}
    .fil25 {fill:#5C4C3D}
    .fil11 {fill:#6B2121}
    .fil17 {fill:#73593F}
    .fil16 {fill:#8C745C}
    .fil23 {fill:#964B12}
    .fil14 {fill:#B28770}
    .fil15 {fill:#B59474}
    .fil10 {fill:#D41B1B}
    .fil13 {fill:#D66666}
    .fil19 {fill:#ED5355}
    .fil20 {fill:white}
    .fil8 {fill:#2D2A2B}
   ]]>
  </style>
 </defs>
 <rect class="fil0" x="-2505" y="441" width="1657" height="2144"/>
 <polygon class="fil1" points="21,201 28,207 44,210 52,205 53,198 "/>
 <path class="fil2" d="M72 248c0,0 30,0 36,-2 6,1 21,7 21,6 0,0 25,39 20,45 -5,6 -14,17 -14,17 0,0 -21,-22 -24,-21 -3,0 -43,-16 -53,-18 -20,-19 -28,-39 -31,-68 8,3 19,1 26,-2 2,16 9,29 19,43z"/>
 <path class="fil1" d="M115 292c0,0 -4,-4 -4,-4 0,0 -41,-16 -44,-16 -3,0 -10,0 -10,0 10,3 20,6 29,10 5,2 18,8 24,8 1,0 1,0 1,0 2,1 4,3 6,5l-2 -4z"/>
 <path class="fil1" d="M129 252c0,0 25,39 20,45 -5,6 -14,17 -14,17 -6,-6 -11,-11 -18,-18 -4,-4 -17,-49 -16,-49 0,0 11,-5 29,5z"/>
 <path class="fil2" d="M217 319c0,0 -12,-15 -17,-16 -5,-2 -9,-16 -9,-16 0,0 7,-38 13,-38 6,-1 18,-3 18,-3 0,0 1,25 3,26 2,1 10,24 15,31 16,22 -23,54 -41,69l-2 -25 21 -28z"/>
 <path class="fil1" d="M209 309c-1,-1 -5,-5 -9,-6 -5,-2 -9,-16 -9,-16 0,0 7,-38 13,-38 6,-1 18,-3 18,-3 0,7 0,10 1,18 -2,3 -13,46 -13,46l0 0z"/>
 <path class="fil1" d="M199 342c3,0 6,6 6,14 0,8 -3,14 -6,14 -3,0 -6,-6 -6,-14 0,-8 3,-14 6,-14z"/>
 <path class="fil1" d="M199 342c3,0 6,6 6,14 0,8 -3,14 -6,14 -1,0 -1,0 -2,0 3,-1 5,-7 5,-14 0,-6 -2,-12 -4,-13 0,0 1,0 1,0z"/>
 <ellipse class="fil3" cx="164" cy="522" rx="93" ry="27"/>
 <path class="fil4" d="M149 511l-11 -4 2 -1 -1 -4 -8 -1 -5 0 0 2 -7 -2c-1,0 -4,13 -10,17 -7,4 -11,4 -12,8 0,0 0,1 0,1 -1,4 -1,6 7,8 23,4 41,5 48,-18l-2 -7z"/>
 <path class="fil5" d="M96 530c0,3 1,5 7,6 23,4 41,5 48,-18l-1 -5c-1,3 -2,6 -3,9 -3,6 -14,12 -16,12 -2,1 -21,0 -28,-1 -2,-1 -5,-2 -7,-3z"/>
 <path class="fil6" d="M132 386c0,0 3,47 1,57 -2,10 -7,43 -9,45 -2,2 -2,4 -2,4l1 3 -5 5 -1 6c0,0 12,-3 16,-1 3,2 18,15 18,15 0,0 4,-27 4,-35 0,-9 -2,-35 0,-40 1,-6 5,-27 7,-33 2,-6 4,-7 4,-7l9 39 1 41c0,0 1,17 1,20 0,3 5,14 5,14 0,0 7,-16 12,-16 5,0 19,2 19,2l-3 -12 -3 -3 0 -8c0,0 -8,-12 -8,-28 0,-16 -2,-39 -2,-59 1,-20 -2,-27 -2,-27l-64 1 2 16z"/>
 <path class="fil7" d="M195 388c0,0 -3,47 -1,57 2,10 7,43 9,45 2,2 2,4 2,4l-1 3 5 5 1 6c0,0 -2,0 -5,-1 0,-2 1,-4 0,-4 0,-1 -2,-4 -4,-4 -1,0 -20,3 -20,3 0,0 21,-5 21,-6 0,-1 1,-2 0,-4 -19,-22 -10,-91 -11,-107l4 0 0 3z"/>
 <polygon class="fil8" points="134,381 197,381 197,384 134,384 "/>
 <path class="fil7" d="M132 386c0,0 3,47 1,57 -2,10 -7,43 -9,45 -2,2 -2,4 -2,4l1 3 -5 5 -1 6c0,0 2,0 5,-1 0,-2 -1,-4 0,-4 0,-1 2,-4 4,-4 1,0 20,3 20,3 0,0 -21,-5 -21,-6 0,-1 -1,-2 0,-4 19,-22 10,-91 11,-106l-4 0 0 3z"/>
 <polygon class="fil4" points="130,378 198,377 197,380 197,383 132,383 131,380 "/>
 <polygon class="fil9" points="158,377 170,377 170,383 158,383 "/>
 <polygon class="fil8" points="193,387 181,395 179,397 166,385 166,384 167,383 188,383 193,383 "/>
 <polygon class="fil8" points="162,383 162,385 156,390 149,398 134,387 134,383 "/>
 <path class="fil2" d="M122 245l-15 0c0,0 -2,24 12,52 14,28 8,61 8,66 0,6 5,21 5,21l17 11 16 -14 2 2 13 10 18 -12c0,0 5,-14 5,-19 0,-6 -6,-39 8,-66 14,-28 12,-52 12,-52l-15 0c-13,-8 -23,-13 -30,-17l-13 9 -11 -8 0 0 0 0 0 0 0 0 0 0 0 0 0 0 0 0 0 0 0 0 0 0 0 0 0 0 0 0 0 0 0 0 0 0 0 0 0 0 -28 18zm36 -14l0 0 0 0c0,0 0,0 0,0zm-3 -1l0 0 0 0 0 0 0 0c0,0 0,0 1,0z"/>
 <path class="fil1" d="M187 235l17 17c0,0 5,20 0,37 -5,17 -10,64 -10,64l4 26c0,0 4,-12 4,-15 0,-3 -1,-13 -1,-16 0,-3 0,-17 1,-24 1,-7 5,-21 8,-26 2,-5 6,-34 5,-40 -1,-7 -8,-13 -8,-13l-18 -11 -1 1z"/>
 <polygon class="fil1" points="138,235 141,262 161,243 143,235 139,235 "/>
 <polygon class="fil1" points="190,236 187,262 166,243 184,235 189,235 "/>
 <polygon class="fil1" points="148,248 152,261 155,261 143,364 162,384 174,371 165,249 "/>
 <polygon class="fil10" points="158,253 148,363 165,382 165,382 165,382 181,363 171,253 165,242 165,251 165,242 "/>
 <path class="fil11" d="M158 258l0 1c6,1 7,1 13,0l0 -1c-6,1 -7,1 -13,0z"/>
 <path class="fil10" d="M150 242l5 17c6,1 12,1 18,0l6 -19 -19 -3 -9 5z"/>
 <polygon class="fil11" points="154,248 164,239 175,249 173,259 177,246 165,238 159,238 151,246 153,250 "/>
 <polygon class="fil12" points="160,238 152,247 150,242 159,237 "/>
 <polygon class="fil2" points="164,238 142,260 138,230 147,223 164,238 181,223 190,230 186,260 "/>
 <polygon class="fil1" points="164,238 161,241 145,230 139,235 138,230 147,223 164,238 181,223 190,230 189,235 183,230 166,241 "/>
 <path class="fil7" d="M147 513c1,1 2,2 3,-3 1,-6 4,-14 2,-29 -1,-16 -2,-55 7,-70 2,-3 6,-7 6,-7 0,0 -4,6 -5,13 -1,6 -5,24 -6,27 0,4 -1,10 0,20 0,9 1,20 1,23 0,3 -2,18 -2,22 0,3 -2,10 -2,10 0,0 -12,-10 -14,-12 -2,-2 -5,-3 -5,-3 6,0 9,5 15,9z"/>
 <path class="fil7" d="M182 517c0,0 -2,-7 -1,-10 0,-3 10,-6 10,-6 0,0 -11,-1 -11,-3 -1,-2 -3,-47 -3,-50 0,-3 -2,-3 -2,-3 0,0 0,21 0,26 0,6 1,34 1,36 1,3 5,13 5,13l1 -3z"/>
 <path class="fil1" d="M106 245l11 6c0,0 12,-8 14,-9 2,-1 5,-3 5,-3l1 0 -1 -4 -16 10 -15 0z"/>
 <path class="fil4" d="M212 505c3,3 6,7 9,8 7,4 11,4 12,8 1,4 2,7 -7,9 -21,4 -38,5 -46,-12 1,-2 7,-15 12,-16 5,0 19,2 19,2l0 0z"/>
 <path class="fil5" d="M234 523c1,3 1,6 -7,8 -21,4 -38,5 -46,-12 0,-1 1,-2 2,-4 1,3 3,5 4,7 5,7 11,7 15,7 5,1 25,-3 29,-5 1,0 1,-1 2,-2z"/>
 <polygon class="fil1" points="197,373 195,378 176,392 179,394 197,382 198,378 198,372 "/>
 <path class="fil13" d="M170 259c0,0 7,91 7,91l1 11 -13 20 16 -19 -10 -104 -2 1z"/>
 <path class="fil14" d="M179 225c-14,0 -27,1 -33,-2l17 15 16 -13z"/>
 <path class="fil15" d="M94 173c-1,63 133,81 134,-3 2,-1 5,-2 6,-4 2,-3 2,-8 5,-12 3,-4 6,-10 5,-14 -1,-4 -1,-5 -3,-6 -3,-1 -6,0 -9,3 0,0 -1,0 -1,1 2,-31 3,-65 3,-65l-30 -30 -92 3 -21 33 1 63c-3,-3 -6,-6 -9,-7 -5,-3 -5,2 -6,7 -1,6 3,13 9,26 1,3 5,4 7,5z"/>
 <path class="fil16" d="M176 134c0,6 8,8 17,8 14,-1 15,-5 15,-6 -7,-1 -9,3 -16,2 -7,-1 -13,1 -15,-3l-1 -1z"/>
 <path class="fil17" d="M233 150c1,-3 4,-17 9,-12 2,3 -6,17 -7,19 -1,3 -5,8 -5,8 2,-4 7,-12 3,-16z"/>
 <path class="fil17" d="M175 159c-3,5 -8,7 -14,8l0 0 0 0 0 0 0 0c-5,-1 -11,-3 -14,-8 11,6 17,5 27,0z"/>
 <path class="fil17" d="M89 151c-1,-3 -4,-20 -9,-13 -2,3 6,19 7,22 1,3 5,10 5,10 -2,-5 -7,-14 -3,-19z"/>
 <path class="fil17" d="M194 182c0,0 -16,-1 -31,-1 -14,0 -27,3 -27,3 7,16 8,27 29,27 22,0 24,-15 29,-29z"/>
 <path class="fil18" d="M193 183c0,0 -14,2 -24,3 -10,1 -31,-1 -31,-1 0,0 2,7 4,10 2,3 6,5 11,7 5,2 17,1 22,1 5,0 10,-4 12,-7 2,-3 5,-12 5,-12z"/>
 <path class="fil19" d="M168 197c-5,-2 -7,-1 -10,0 -4,2 -6,3 -6,3 0,0 2,1 8,2 7,0 15,0 18,-1 3,-1 5,-2 5,-2 -3,-2 -10,-7 -14,-3z"/>
 <path class="fil20" d="M183 190c-8,4 -24,4 -32,2 -4,-1 -7,-2 -8,-4 -1,-1 -2,-4 -2,-4 0,0 16,1 18,1 2,0 12,0 15,-1 3,0 16,-2 16,-2 -2,2 -4,5 -7,6z"/>
 <path class="fil16" d="M155 214c0,0 -1,1 8,1 4,0 15,0 18,-2 -1,3 -21,9 -26,1z"/>
 <path class="fil21" d="M101 76c-9,-1 15,23 -8,46 -2,16 0,45 0,45 -2,-7 -7,-32 -8,-39 -10,-7 -8,-16 -9,-29 -1,-8 -6,-16 -4,-27 2,-8 8,-10 12,-17 3,-4 3,-17 7,-21 3,-3 14,-7 17,-10 5,-4 8,-13 14,-16 6,-3 15,2 22,1 7,-1 9,-9 17,-9 9,0 11,8 18,9 7,1 16,-4 22,-1 6,3 9,12 14,16 4,3 14,7 17,10 4,4 4,17 7,21 4,7 10,10 12,17 2,9 -4,19 -4,25 0,16 2,23 -9,31 -1,7 -8,28 -10,36 0,0 4,-25 2,-42 -23,-23 1,-51 -7,-48 -32,11 -89,8 -122,2z"/>
 <path class="fil16" d="M215 119c0,0 0,0 0,1 -5,-6 -16,-8 -27,-8 -4,0 -6,1 -9,1 2,-1 5,-2 9,-2 11,-1 26,1 27,8l0 0z"/>
 <path class="fil22" d="M193 106c12,-1 22,3 23,10 0,1 0,2 -1,3 -1,-7 -16,-9 -27,-8 -6,1 -8,3 -13,3 4,-4 10,-7 18,-8z"/>
 <path class="fil16" d="M129 119c6,-1 15,4 16,7 -5,0 -6,-6 -16,-5 -10,1 -14,8 -17,9 -1,-3 11,-9 17,-10z"/>
 <path class="fil16" d="M146 134c0,6 -8,8 -17,8 -14,-1 -15,-5 -15,-6 7,-1 9,3 16,2 7,-1 13,1 15,-3l1 -1z"/>
 <path class="fil9" d="M129 120c9,-1 19,5 18,13 -1,8 -8,4 -17,6 -9,2 -18,-1 -19,-6 0,-5 9,-12 18,-12z"/>
 <path class="fil23" d="M130 138c-9,0 -10,-14 0,-15 11,0 11,15 0,15z"/>
 <path class="fil22" d="M131 125c-1,0 -2,0 -3,1 0,0 1,1 1,1 0,1 -1,2 -2,2 0,0 -1,0 -1,0 0,0 0,1 0,1 0,3 2,5 5,5 3,0 5,-2 5,-5 0,-3 -2,-5 -5,-5z"/>
 <path class="fil9" d="M127 126c-1,0 -2,1 -2,2 0,1 1,2 2,2 1,0 2,-1 2,-2 0,-1 -1,-2 -2,-2z"/>
 <path class="fil24" d="M145 137c-3,2 -8,1 -15,2 -9,2 -18,-1 -19,-6 0,-1 0,-2 1,-4 0,0 0,1 0,1 1,6 11,10 23,8 4,-1 8,-1 11,-1z"/>
 <path class="fil16" d="M109 119c0,0 0,0 0,1 5,-6 16,-8 27,-8 4,0 6,1 9,1 -2,-1 -5,-2 -9,-2 -11,-1 -26,1 -27,8l0 0z"/>
 <path class="fil22" d="M131 106c-12,-1 -22,3 -23,10 0,1 0,2 1,3 1,-7 16,-9 27,-8 6,1 8,3 13,3 -4,-4 -10,-7 -18,-8z"/>
 <path class="fil17" d="M65 175c0,-2 1,-4 1,-5 1,-6 4,-7 4,-7 0,0 -1,-7 -5,-7 -7,0 -11,7 -12,14 -1,3 -1,3 -1,3 0,0 -2,-6 -3,-9 -2,-3 -7,-37 -7,-37 0,0 -5,-1 -8,0 -3,1 -3,1 -3,1l1 13 -3 -14c0,0 -3,-1 -4,-1 -2,0 -4,2 -4,2l0 6 -2 -5c0,0 -2,-1 -4,0 -2,1 -3,2 -3,2l2 25 0 1 -8 -16c0,0 -3,-1 -5,0 -2,1 -3,3 -3,3l10 26c0,0 4,9 4,11 2,28 13,21 22,21 13,0 24,0 29,-28z"/>
 <path class="fil15" d="M68 161c0,0 -6,4 -7,9 -1,5 -1,11 -2,13 -1,2 -2,12 -8,15 -17,8 -24,-5 -21,-15 4,-15 18,-2 21,-7 1,-3 2,-6 2,-6 1,-7 7,-16 14,-14 2,1 2,3 1,4z"/>
 <path class="fil15" d="M46 157c-2,-10 -5,-29 -5,-29 0,0 -5,-1 -8,0 -3,1 -2,1 -2,1l1 12 0 1c0,0 1,12 1,13 0,1 0,1 0,1 -1,0 -3,-1 -4,0 -2,0 -3,2 -5,1 -4,0 -6,1 -8,3l-2 -5 -2 -24c0,0 1,-1 3,-2 2,-1 4,0 4,0l2 4 1 -5c0,0 2,-1 3,-2 2,0 4,1 4,1l3 13c0,0 2,15 2,15 0,0 -1,0 -1,0 0,0 0,0 1,0 2,0 4,0 6,0 2,0 4,1 6,1zm-25 -23l3 24c0,0 0,-6 -1,-11 0,-5 -2,-13 -2,-13zm-6 23c-3,-4 -6,-10 -9,-16 0,0 -1,-1 -3,0 -2,1 -4,3 -4,3l8 23c1,-2 2,-3 4,-4 1,-1 3,-2 4,-3 0,0 -1,-4 -1,-4z"/>
 <path class="fil15" d="M51 171c0,0 0,0 0,0 0,0 -1,-6 -3,-9 0,-1 -1,-3 -1,-6 -6,0 -15,-1 -21,0 -6,1 -13,6 -17,9l1 3c0,0 3,7 4,9 2,27 13,20 22,20 1,0 3,1 4,1 -9,-1 -12,-11 -10,-18 4,-15 18,-2 21,-7 0,-1 1,-2 1,-2l0 -2z"/>
 <path class="fil17" d="M19 174c6,0 9,0 14,3 0,0 0,1 -1,0 -2,-2 -10,-3 -13,-3z"/>
 <path class="fil1" d="M50 206c0,0 8,27 9,30 2,6 7,12 10,14 6,5 9,-3 8,-3l-5 0c0,0 -5,-7 -9,-14 -4,-7 -4,-7 -4,-7 0,0 -5,-12 -6,-17 -1,-5 -1,-5 -1,-5l-2 1 0 1z"/>
 <path class="fil16" d="M194 119c-6,-1 -15,4 -16,7 5,0 6,-6 16,-5 10,1 14,8 17,9 1,-3 -11,-9 -17,-10z"/>
 <path class="fil9" d="M194 120c-9,-1 -19,5 -18,13 1,8 8,4 17,6 9,2 18,-1 19,-6 0,-5 -9,-12 -18,-12z"/>
 <path class="fil23" d="M193 138c9,0 10,-14 0,-15 -11,0 -11,15 0,15z"/>
 <path class="fil22" d="M192 125c1,0 2,0 3,1 0,0 -1,1 -1,1 0,1 1,2 2,2 0,0 0,0 1,0 0,0 0,1 0,1 0,3 -2,5 -5,5 -3,0 -5,-2 -5,-5 0,-3 2,-5 5,-5z"/>
 <path class="fil9" d="M196 126c1,0 2,1 2,2 0,1 -1,2 -2,2 -1,0 -2,-1 -2,-2 0,-1 1,-2 2,-2z"/>
 <path class="fil24" d="M178 137c3,2 8,1 15,2 9,2 18,-1 19,-6 0,-1 0,-2 -1,-4 0,0 0,1 0,1 -1,6 -11,10 -23,8 -4,-1 -8,-1 -11,-1z"/>
 <path class="fil16" d="M115 211c-22,-26 -18,-59 -17,-95 -1,2 -3,4 -5,6 -2,16 0,45 0,45 -1,-5 -4,-20 -6,-30 -1,-1 -3,-2 -4,-3 -5,-3 -5,2 -6,7 -1,6 3,13 9,26 1,3 5,4 7,5 0,16 8,29 21,38zm-35 -73c5,-7 8,10 9,13 -4,5 1,14 3,19 0,0 -4,-7 -5,-10 -1,-3 -9,-19 -7,-22z"/>
 <path class="fil25" d="M139 61c-11,-7 -14,-13 -34,1 12,-11 21,-19 34,-1z"/>
 <path class="fil25" d="M164 27c-11,-7 -14,-13 -34,1 12,-11 21,-19 34,-1z"/>
 <path class="fil25" d="M162 48c-9,-6 -11,-10 -27,1 9,-9 16,-15 27,-1z"/>
 <path class="fil25" d="M200 27c-9,-6 -11,-10 -27,1 9,-9 16,-15 27,-1z"/>
 <path class="fil25" d="M129 37c-13,-2 -18,-6 -31,14 6,-15 12,-26 31,-14z"/>
 <path class="fil25" d="M202 59c-8,-5 -9,-9 -23,1 8,-8 14,-13 23,-1z"/>
 <path class="fil25" d="M224 46c-6,-9 -7,-14 -26,-9 12,-5 21,-8 26,9z"/>
 <path class="fil25" d="M187 40c-7,-5 -9,-8 -22,1 8,-7 14,-12 22,-1z"/>
 <path class="fil25" d="M98 63c-7,1 -10,0 -14,13 1,-9 2,-15 14,-13z"/>
 <path class="fil25" d="M239 73c-4,-8 -4,-12 -21,-10 11,-3 18,-5 21,10z"/>
 <path class="fil25" d="M172 68c-8,-5 -9,-9 -23,1 8,-8 14,-13 23,-1z"/>
</svg>
