<?xml version="1.0" encoding="utf-8"?>
<!-- Generator: Adobe Illustrator 16.0.0, SVG Export Plug-In . SVG Version: 6.00 Build 0)  -->
<!DOCTYPE svg PUBLIC "-//W3C//DTD SVG 1.1//EN" "http://www.w3.org/Graphics/SVG/1.1/DTD/svg11.dtd">
<svg version="1.1" id="Layer_1" xmlns="http://www.w3.org/2000/svg" xmlns:xlink="http://www.w3.org/1999/xlink" x="0px" y="0px"
	 width="20px" height="20px" viewBox="0 0 20 20" enable-background="new 0 0 20 20" xml:space="preserve">
<g>
	<path fill-rule="evenodd" clip-rule="evenodd" fill="#30383B" d="M12.552,5.412l0.176-0.069l0.156-0.026l0.137,0.011l0.118,0.049
		c0.126,0.073,0.251,0.141,0.377,0.217c-0.042-0.019-0.08-0.034-0.122-0.049l-0.137-0.012L13.101,5.56l-0.172,0.068v0.986
		c0.16,0.145,0.21,0.575,0.236,0.777c0.1,0.822,0.03,1.694,0.058,2.528c0,0.076,0.004,0.156,0.008,0.236l0.007,0.145l0.008,0.141
		l0.012,0.141l0.012,0.137l0.015,0.129l0.023,0.129l0.034,0.217l0.049,0.203l0.054,0.186l0.064,0.168l0.076,0.148l0.088,0.125
		l0.099,0.104l0.11,0.08l-0.377-0.217l-0.11-0.08l-0.095-0.104l-0.088-0.129l-0.076-0.145l-0.064-0.168l-0.058-0.186l-0.046-0.204
		l-0.038-0.216l-0.019-0.129l-0.016-0.133l-0.015-0.133l-0.012-0.141l-0.008-0.141l-0.008-0.145
		c-0.022-0.579-0.007-1.135-0.007-1.709c-0.004-0.514-0.027-1.12-0.168-1.611l-0.026-0.08l-0.03-0.065l-0.034-0.045l-0.035-0.031
		V5.412L12.552,5.412z M13.474,4.555l0.022,0.125l0.027,0.126c0.084,0.324,0.175,0.59,0.343,0.883c0.205,0.362,0.392,0.56,0.7,0.838
		c0.21,0.194,0.347,0.411,0.461,0.674c0.343,0.792,0.377,1.805,0.202,2.646c-0.065,0.263-0.164,0.598-0.347,0.804
		c-0.076,0.083-0.267,0.209-0.354,0.247c-0.152,0.061-0.156,0.065-0.315,0.069c-0.058,0-0.114-0.038-0.168-0.061
		c0.141,0.08,0.343,0.209,0.487,0.268c0.046,0.018,0.179,0.01,0.229-0.004c0.175-0.063,0.232-0.104,0.381-0.203
		c0.297-0.194,0.431-0.731,0.495-1.047l0.022-0.148c0.058-0.434,0.072-0.86,0.016-1.294c-0.088-0.667-0.267-1.306-0.777-1.771
		c-0.612-0.548-0.895-1.135-1.051-1.935c0.274-0.167,0.549-0.339,0.822-0.506l-0.377-0.217L13.474,4.555z"/>
	<path fill-rule="evenodd" clip-rule="evenodd" fill="#4E5A5E" d="M12.929,5.628c0.979-0.479,1.116,0.906,1.097,2.551
		c-0.007,0.77-0.019,1.584,0.076,2.189c0.107,0.713,0.385,1.105,1.07,0.579c0.058-0.046,0.114-0.106,0.164-0.183
		c0.156-0.236,0.267-0.59,0.323-0.994c0.072-0.464,0.068-0.971-0.004-1.447c-0.106-0.67-0.35-1.272-0.734-1.6
		c-0.678-0.571-0.96-1.298-1.074-1.954l0.822-0.506c0.107,0.522,0.347,1.063,0.88,1.512c0.477,0.408,0.777,1.135,0.902,1.938
		c0.088,0.575,0.088,1.192,0.004,1.771c-0.095,0.636-0.301,1.238-0.613,1.709c-0.155,0.236-0.339,0.443-0.54,0.6
		c-1.307,1-1.813,0.381-1.995-0.817c-0.107-0.669-0.096-1.53-0.088-2.341c0.012-1.036-0.1-1.904-0.29-2.022V5.628z"/>
	<polygon fill-rule="evenodd" clip-rule="evenodd" fill="#9C9C9C" points="13.687,4.909 13.059,4.543 13.063,4.456 13.066,4.353 
		13.07,4.242 13.074,4.125 13.078,3.995 13.081,3.865 13.081,3.736 13.081,3.603 13.081,3.473 13.078,3.344 13.074,3.226 
		13.066,3.107 13.055,3.005 13.043,2.91 13.028,2.83 13.009,2.765 12.975,2.689 12.933,2.609 12.891,2.552 12.525,2.338 
		12.689,1.626 13.317,1.992 13.165,2.651 13.31,2.738 13.382,2.78 13.451,2.833 13.508,2.898 13.562,2.971 13.604,3.047 
		13.638,3.126 13.656,3.191 13.672,3.275 13.684,3.367 13.694,3.473 13.702,3.587 13.706,3.706 13.71,3.835 13.71,3.964 
		13.71,4.098 13.71,4.231 13.706,4.36 13.702,4.486 13.698,4.604 13.694,4.714 13.69,4.817 	"/>
	<polygon fill-rule="evenodd" clip-rule="evenodd" fill="#A6B0B3" points="13.317,1.992 12.689,1.626 12.818,1.6 12.944,1.581 
		13.063,1.573 13.177,1.577 13.283,1.596 13.39,1.634 14.019,1.996 13.912,1.958 13.801,1.938 13.687,1.935 13.569,1.942 
		13.447,1.965 	"/>
	<path fill-rule="evenodd" clip-rule="evenodd" fill="#DCDCDC" d="M13.687,4.905c0.023-0.441,0.058-1.474-0.049-1.778
		c-0.076-0.209-0.263-0.43-0.483-0.422l0.163-0.712c0.712-0.16,1.127-0.137,1.736,2.125L13.687,4.905z"/>
	<polygon fill-rule="evenodd" clip-rule="evenodd" fill="#F0B11D" points="9.38,10.708 9.868,10.43 15.88,13.9 15.393,14.182 
		9.338,17.678 9.095,17.818 8.851,17.959 8.851,19.078 2.838,15.605 2.838,14.486 3.082,14.346 3.326,14.205 	"/>
	<polygon fill-rule="evenodd" clip-rule="evenodd" fill="#FAC13C" points="15.393,14.182 15.88,13.9 15.88,15.023 14.593,15.766 
		10.138,18.336 8.851,19.078 8.851,17.959 9.095,17.818 9.338,17.678 	"/>
	<polygon fill-rule="evenodd" clip-rule="evenodd" fill="#BDBDBD" points="7.335,16.523 5.298,15.348 5.298,4.989 5.313,4.791 
		5.363,4.593 5.435,4.391 5.534,4.201 5.652,4.018 5.789,3.854 5.938,3.713 6.098,3.603 10.557,1.028 10.717,0.956 10.865,0.922 
		11.002,0.93 11.121,0.975 13.157,2.148 13.04,2.106 12.902,2.099 12.754,2.129 12.594,2.205 8.135,4.779 7.975,4.89 7.827,5.031 
		7.689,5.194 7.571,5.374 7.472,5.567 7.4,5.77 7.351,5.967 7.335,6.162 	"/>
	<path fill-rule="evenodd" clip-rule="evenodd" fill="#E6EAEB" d="M8.135,4.779l4.459-2.574c0.438-0.255,0.8-0.045,0.8,0.461v2.768
		V6.42v6.603l-6.058,3.5V6.162C7.335,5.655,7.697,5.031,8.135,4.779z"/>
	<polygon fill-rule="evenodd" clip-rule="evenodd" fill="#B4CCFA" points="8.181,5.861 12.381,3.435 12.381,6.851 8.181,9.276 	"/>
	<polygon fill-rule="evenodd" clip-rule="evenodd" fill="#A2BAE8" points="8.181,5.861 12.381,3.435 12.381,6.851 8.181,9.276 	"/>
	<polygon fill-rule="evenodd" clip-rule="evenodd" fill="#B4CCFA" points="8.181,5.861 12.103,3.599 12.103,6.687 8.181,8.953 	"/>
	<path fill-rule="evenodd" clip-rule="evenodd" fill="#597B9C" d="M10.857,4.917l0.716-0.415l0.004-0.004
		c0.076-0.042,0.134-0.008,0.134,0.08v1.355v0.004c0,0.083-0.058,0.19-0.134,0.232l-0.716,0.411l-0.004,0.004
		c-0.076,0.042-0.133,0.007-0.133-0.076V5.149V5.145C10.725,5.061,10.782,4.958,10.857,4.917L10.857,4.917z M11.444,4.882
		l-0.454,0.263V6.2l0.454-0.263V4.882z"/>
	<path fill-rule="evenodd" clip-rule="evenodd" fill="#597B9C" d="M9.692,5.586l0.716-0.411l0.004-0.004
		c0.076-0.042,0.133-0.007,0.133,0.076v1.359v0.004c0,0.084-0.057,0.187-0.133,0.229L9.696,7.254L9.692,7.258
		C9.616,7.3,9.559,7.266,9.559,7.178V5.823V5.819C9.559,5.735,9.616,5.632,9.692,5.586L9.692,5.586z M10.279,5.556L9.826,5.819
		v1.055l0.453-0.263V5.556z"/>
	<path fill-rule="evenodd" clip-rule="evenodd" fill="#597B9C" d="M8.527,6.261l0.716-0.415h0.004C9.319,5.8,9.38,5.838,9.38,5.922
		v1.359v0.004c0,0.083-0.061,0.187-0.133,0.228L8.531,7.929H8.527C8.451,7.974,8.394,7.94,8.394,7.853v-1.36l0,0
		C8.394,6.405,8.451,6.303,8.527,6.261L8.527,6.261z M9.114,6.227L8.661,6.493v1.051l0.453-0.259V6.227z"/>
	<polygon fill-rule="evenodd" clip-rule="evenodd" fill="#9C9C9C" points="7.594,5.343 5.557,4.166 5.534,4.201 5.435,4.391 
		5.363,4.593 5.313,4.791 5.298,4.989 5.298,15.348 7.335,16.523 7.335,6.162 7.351,5.967 7.4,5.77 7.472,5.567 7.571,5.374 	"/>
	<polygon fill-rule="evenodd" clip-rule="evenodd" fill="#D19917" points="8.851,18.016 8.851,19.078 2.838,15.605 2.838,14.547 	
		"/>
</g>
</svg>
