<?xml version="1.0" encoding="utf-8"?>
<!-- Generator: Adobe Illustrator 16.0.0, SVG Export Plug-In . SVG Version: 6.00 Build 0)  -->
<!DOCTYPE svg PUBLIC "-//W3C//DTD SVG 1.1//EN" "http://www.w3.org/Graphics/SVG/1.1/DTD/svg11.dtd">
<svg version="1.1" id="Layer_1" xmlns="http://www.w3.org/2000/svg" xmlns:xlink="http://www.w3.org/1999/xlink" x="0px" y="0px"
	 width="213px" height="225px" viewBox="0 0 213 225" enable-background="new 0 0 213 225" xml:space="preserve">
<g>
	<g>
		<polygon fill="#194A54" points="124.589,171.052 104.551,173.981 84.53,171.052 70.487,170.193 85.504,174.445 104.592,179.023 
			124.42,174.445 138.627,170.193 		"/>
		<polygon fill="#2A6774" points="132.377,158.825 76.74,158.825 58.321,159.98 70.487,170.193 104.592,178.346 138.627,170.193 
			150.991,159.943 		"/>
		<polygon fill="#378899" points="157.057,113.996 133.045,139.525 76.068,139.525 52.063,113.996 34.61,109.258 38.961,133.193 
			58.321,159.98 104.592,171.052 150.991,159.943 170.154,133.193 174.496,109.258 		"/>
		<polygon fill="#4CA3B5" points="170.154,85.313 155.979,89.687 126.227,110.39 82.884,110.39 53.141,89.687 38.961,85.313 
			34.61,109.258 55.25,137.821 104.592,149.616 154.061,137.791 174.496,109.258 		"/>
		<polygon fill="#68BCCD" points="150.93,58.559 138.646,48.456 140.084,56.006 139.351,71.47 121.546,88.961 87.565,88.961 
			69.761,71.47 69.037,56.006 70.477,48.456 58.18,58.559 38.961,85.313 58.321,112.093 104.551,123.168 150.991,112.059 
			170.154,85.313 		"/>
		<polygon fill="#7FD1E2" points="138.646,48.456 123.75,44.093 125.498,49.435 124.336,57.371 111.166,63.885 97.947,63.885 
			84.775,57.371 83.62,49.435 85.375,44.093 70.477,48.456 56.327,68.126 70.487,87.857 104.551,95.997 138.675,87.83 
			152.785,68.126 		"/>
		<polygon fill="#C1E7F4" points="123.75,44.093 115.623,42.168 117.127,46.771 114.734,50.772 109.834,52.782 99.285,52.782 
			94.381,50.772 91.988,46.771 93.5,42.168 85.375,44.093 77.58,55.149 85.504,66.189 104.551,70.765 123.762,66.189 
			131.684,55.137 		"/>
		<polygon fill="#E9F3FB" points="115.638,54.931 120.194,48.552 115.623,42.168 104.551,39.531 93.5,42.179 88.922,48.562 
			93.522,54.95 104.577,57.583 		"/>
		<g>
			<path fill="#FFFFFF" d="M104.479,45.526l11.247,9.284l0.014,0.02l0.012,0.01l5.949,8.099c1.99,2.684,3.904,5.456,5.82,8.188
				l11.447,16.511l0.023,0.011L139,87.676c4.117,8.056,8.244,16.128,12.318,24.221l0.041,0.053v0.08l3.018,25.721l0.01,0.048
				l-0.01,0.033l-3.212,22.139l-0.015,0.068l-0.053,0.049l-12.471,10.105l12.271-10.373l-0.077,0.12l2.938-22.198v0.09
				l-3.139-25.731l0.033,0.12c-4.132-8.069-8.191-16.154-12.292-24.235l0.026,0.042l-11.35-16.568
				c-1.879-2.779-3.738-5.541-5.703-8.255l-5.837-8.181l0.043,0.024L104.479,45.526z"/>
			<path fill="#FFFFFF" d="M104.479,45.526L93.61,55.066l0.041-0.04l-5.77,8.228c-1.944,2.739-3.819,5.5-5.699,8.255L70.773,88.047
				l0.036-0.036c-4.06,8.081-8.082,16.181-12.164,24.241l0.045-0.113l-3.133,25.714v-0.076l2.926,22.178l-0.066-0.098l12.07,10.336
				L58.202,160.1l-0.049-0.03l-0.009-0.062l-3.212-22.141v-0.035v-0.055l3.012-25.735l0.014-0.056l0.017-0.046
				c4.029-8.104,8.127-16.172,12.211-24.247l0.012-0.017l0.005-0.022l11.495-16.468c1.922-2.73,3.843-5.488,5.803-8.196l5.902-8.141
				l0.012-0.011l0.005-0.008L104.479,45.526z"/>
			<polygon fill="#FFFFFF" points="104.479,45.526 104.68,62.209 104.79,78.903 104.912,112.267 104.852,145.646 104.768,162.333 
				104.592,179.023 104.379,162.333 104.269,145.646 104.136,112.267 104.208,78.903 104.303,62.209 			"/>
			<path fill="#FFFFFF" d="M104.479,45.526l15.758,2.813l0.043,0.015l0.015,0.01L128.613,53c1.368,0.788,2.766,1.538,4.121,2.386
				l4.046,2.481c2.714,1.655,5.419,3.272,8.097,4.965l8.085,5.018l0.03,0.034l0.046,0.002c2.87,2.878,5.722,5.792,8.588,8.676
				c2.861,2.898,5.71,5.801,8.528,8.751c-2.963-2.805-5.928-5.596-8.855-8.438c-2.918-2.823-5.867-5.629-8.767-8.494l0.063,0.055
				l-8.115-4.953c-2.699-1.647-5.373-3.344-8.072-4.997l-4.043-2.514c-1.314-0.84-2.732-1.601-4.082-2.412l-8.182-4.826l0.052,0.025
				L104.479,45.526z"/>
			<path fill="#FFFFFF" d="M104.479,45.526l-15.524,3.233l0.066-0.025l-8.156,4.889c-2.742,1.591-5.426,3.254-8.108,4.917
				c-2.727,1.648-5.395,3.344-8.117,4.964l-8.13,4.934l0.062-0.055c-2.89,2.865-5.835,5.671-8.746,8.494
				c-2.942,2.842-5.889,5.633-8.865,8.438c2.826-2.95,5.665-5.853,8.531-8.751c2.856-2.884,5.715-5.797,8.61-8.676l0.014-0.002
				l0.041-0.034l8.097-4.994c2.685-1.674,5.404-3.297,8.116-4.947c2.699-1.631,5.421-3.308,8.165-4.844l8.275-4.702l0.036-0.01
				l0.026-0.015L104.479,45.526z"/>
			<path fill="#FFFFFF" d="M104.479,45.526c-0.082-0.995-0.06-2-0.06-3.001c0.038-0.993,0.05-1.999,0.131-2.994
				c0.083,0.995,0.058,2.001,0.058,2.994C104.592,43.526,104.568,44.531,104.479,45.526z"/>
			<path fill="#FFFFFF" d="M104.479,45.526c1.827-0.638,3.678-1.201,5.54-1.779c1.865-0.538,3.727-1.095,5.604-1.579
				c-1.849,0.637-3.692,1.207-5.539,1.771C108.213,44.489,106.342,45.042,104.479,45.526z"/>
			<path fill="#FFFFFF" d="M104.479,45.526c-1.863-0.483-3.669-1.037-5.522-1.586c-1.827-0.564-3.652-1.134-5.457-1.771
				c1.841,0.483,3.668,1.041,5.507,1.579C100.825,44.325,102.671,44.888,104.479,45.526z"/>
			<polygon fill="#FFFFFF" points="85.375,44.093 77.745,55.282 77.738,55.046 85.767,66.007 85.581,65.875 104.608,70.393 
				104.432,70.393 123.688,65.857 123.485,65.994 131.51,55.017 131.51,55.259 123.75,44.093 131.85,55.015 131.945,55.132 
				131.85,55.259 124.032,66.378 123.965,66.474 123.844,66.494 104.608,71.137 104.505,71.165 104.432,71.137 85.43,66.51 
				85.32,66.489 85.251,66.394 77.416,55.282 77.324,55.162 77.401,55.046 			"/>
			<polygon fill="#FFFFFF" points="70.475,48.456 56.501,68.258 56.501,68.013 70.759,87.653 70.568,87.531 104.692,95.621 
				104.493,95.621 138.605,87.497 138.396,87.639 152.617,68.013 152.617,68.258 138.646,48.456 152.94,68.013 153.038,68.126 
				152.94,68.258 138.942,88.021 138.881,88.115 138.751,88.151 104.692,96.371 104.592,96.377 104.493,96.371 70.413,88.177 
				70.295,88.143 70.238,88.035 56.169,68.258 56.081,68.126 56.169,68.013 			"/>
			<polygon fill="#FFFFFF" points="38.961,85.313 48.806,98.581 58.583,111.897 58.386,111.769 104.542,122.785 104.358,122.785 
				150.905,111.74 150.745,111.864 160.395,98.557 170.154,85.313 160.73,98.799 151.271,112.251 151.193,112.353 151.072,112.376 
				104.542,123.539 104.458,123.555 104.358,123.539 58.233,112.413 58.113,112.376 58.051,112.28 48.467,98.808 			"/>
			<polygon fill="#FFFFFF" points="34.61,109.258 45.097,123.42 55.517,137.635 55.329,137.5 104.542,149.252 104.358,149.252 
				153.988,137.468 153.785,137.592 164.117,123.404 174.496,109.258 164.457,123.643 154.34,137.976 154.266,138.068 
				154.15,138.11 104.542,150 104.458,150.025 104.358,150 55.161,138.133 55.051,138.12 54.977,138.023 44.763,123.655 			"/>
			<path fill="#FFFFFF" d="M58.321,159.98c7.728,1.689,15.435,3.46,23.133,5.246l11.535,2.732l11.552,2.72h-0.184L116,167.924
				c3.889-0.897,7.762-1.826,11.655-2.715l11.657-2.673l11.679-2.593l-11.583,2.973l-11.624,2.867
				c-3.848,0.984-7.747,1.891-11.604,2.835l-11.638,2.808l-0.084,0.028l-0.1-0.028l-11.533-2.789l-11.505-2.822
				C73.637,163.896,65.966,161.989,58.321,159.98z"/>
			<polygon fill="#FFFFFF" points="70.487,170.193 79.044,172.143 87.58,174.143 104.64,178.143 104.551,178.143 121.584,174.129 
				130.101,172.139 138.627,170.193 130.139,172.322 121.637,174.387 104.64,178.512 104.592,178.529 104.551,178.512 87.5,174.387 
				78.999,172.322 			"/>
		</g>
	</g>
	<g>
		<polygon fill="#0C0B0B" points="138.942,187.416 138.942,162.924 173.658,142.92 173.694,168.038 		"/>
		<g>
			<g>
				<polygon fill="#C9DFE8" points="161.285,153.98 161.285,165.525 151.88,170.96 151.88,159.412 				"/>
				<polygon fill="#448AA9" points="155.092,166.195 155.376,166.031 155.376,165.115 154.418,164.563 154.418,161.08 
					155.668,158.912 157.438,157.894 158.684,158.615 158.684,162.101 157.727,163.75 157.727,164.672 158.072,164.473 
					160.18,164.588 160.18,166.166 152.982,170.322 152.982,168.742 				"/>
			</g>
			<g>
				<polygon fill="#2B627E" points="139.362,179.883 139.362,180.289 173.045,160.834 173.045,160.436 				"/>
			</g>
			<g>
				<polygon fill="#C84130" points="161.385,168.609 161.913,168.906 161.913,169.764 161.385,170.664 160.649,171.091 
					160.131,170.787 160.131,169.934 160.649,169.036 				"/>
				<polygon fill="#D0DC78" points="152.052,174.002 152.782,173.575 153.308,173.879 153.308,174.727 152.782,175.629 
					152.052,176.055 151.533,175.75 151.533,174.902 				"/>
				<polygon fill="#2B627E" points="153.592,174.566 159.856,170.943 159.856,170.096 153.592,173.709 				"/>
			</g>
		</g>
		<g>
			<polygon opacity="0.3" fill="#010101" points="174.434,171.34 198.637,185.316 162.338,206.271 138.135,192.303 			"/>
			<polygon fill="#D9D2C8" points="198.078,185.369 162.361,205.992 162.361,203.941 189.178,185.787 198.078,183.323 			"/>
			<polygon fill="#A49D95" points="138.549,192.238 162.361,205.992 162.361,203.941 157.836,198.91 138.549,190.189 			"/>
			<polygon fill="#B5AFA8" points="138.549,190.189 174.268,169.573 189.354,178.289 153.641,198.91 			"/>
			<polygon fill="#E6E1DD" points="162.361,203.941 198.078,183.323 189.354,178.289 153.641,198.91 			"/>
			<polygon fill="#A49D95" points="172.736,196.176 184.635,189.31 178.322,185.664 166.426,192.537 			"/>
			<g>
				<polygon fill="#413531" points="164.42,190.828 166.23,189.785 164.42,188.74 162.613,189.785 				"/>
				<polygon fill="#413531" points="162.414,191.988 164.223,190.945 162.414,189.902 160.604,190.945 				"/>
				<polygon fill="#413531" points="166.426,189.678 176.387,183.926 174.578,182.88 164.621,188.629 				"/>
				<polygon fill="#413531" points="160.406,193.15 162.217,192.109 160.406,191.063 158.596,192.109 				"/>
				<polygon fill="#413531" points="154.842,196.361 160.236,193.248 158.433,192.203 153.031,195.32 				"/>
				<polygon fill="#413531" points="180.582,181.504 182.39,180.462 180.582,179.414 178.771,180.462 				"/>
				<polygon fill="#413531" points="178.576,182.659 180.383,181.617 178.576,180.572 176.766,181.617 				"/>
				<polygon fill="#413531" points="182.59,180.342 184.924,178.996 183.115,177.955 180.779,179.297 				"/>
				<polygon fill="#413531" points="176.563,183.82 178.373,182.775 176.563,181.731 174.759,182.775 				"/>
				<polygon fill="#413531" points="162.324,189.623 164.131,188.578 162.324,187.538 160.516,188.578 				"/>
				<polygon fill="#413531" points="160.317,190.779 162.128,189.738 160.317,188.695 158.512,189.738 				"/>
				<polygon fill="#413531" points="158.311,191.936 160.119,190.898 158.311,189.852 156.504,190.898 				"/>
				<polygon fill="#413531" points="152.744,195.154 158.139,192.035 156.336,190.996 150.934,194.113 				"/>
				<polygon fill="#413531" points="168.376,186.13 170.186,185.09 168.376,184.038 166.564,185.09 				"/>
				<polygon fill="#413531" points="166.343,187.308 168.146,186.258 166.343,185.217 164.53,186.258 				"/>
				<polygon fill="#413531" points="164.33,188.465 166.143,187.416 164.33,186.375 162.527,187.416 				"/>
				<polygon fill="#413531" points="176.479,181.451 178.284,180.41 176.479,179.363 174.668,180.41 				"/>
				<polygon fill="#413531" points="174.465,182.609 176.278,181.566 174.465,180.521 172.66,181.566 				"/>
				<polygon fill="#413531" points="172.461,183.771 174.27,182.727 172.461,181.682 170.652,182.727 				"/>
				<polygon fill="#413531" points="170.449,184.934 172.262,183.885 170.449,182.84 168.643,183.885 				"/>
				<polygon fill="#413531" points="161.35,187.884 163.157,186.835 161.35,185.787 159.539,186.835 				"/>
				<polygon fill="#413531" points="159.34,189.039 161.151,187.993 159.34,186.952 157.535,187.993 				"/>
				<polygon fill="#413531" points="157.332,190.2 159.137,189.156 157.332,188.114 155.527,189.156 				"/>
				<polygon fill="#413531" points="155.309,191.365 157.117,190.328 155.309,189.278 153.499,190.328 				"/>
				<polygon fill="#413531" points="150.75,193.998 155.082,191.496 153.27,190.455 148.933,192.955 				"/>
				<polygon fill="#413531" points="167.398,184.387 169.202,183.344 167.398,182.303 165.588,183.344 				"/>
				<polygon fill="#413531" points="165.365,185.559 167.174,184.519 165.365,183.473 163.557,184.519 				"/>
				<polygon fill="#413531" points="163.357,186.72 165.163,185.679 163.357,184.638 161.542,185.679 				"/>
				<polygon fill="#413531" points="175.505,179.713 177.308,178.664 175.505,177.619 173.694,178.664 				"/>
				<polygon fill="#413531" points="173.491,180.868 175.299,179.824 173.491,178.783 171.686,179.824 				"/>
				<polygon fill="#413531" points="171.484,182.033 173.293,180.981 171.484,179.936 169.682,180.981 				"/>
				<polygon fill="#413531" points="169.472,183.188 171.281,182.145 169.472,181.104 167.664,182.145 				"/>
				<polygon fill="#413531" points="159.842,186.417 161.65,185.378 159.842,184.326 158.034,185.378 				"/>
				<polygon fill="#413531" points="157.836,187.576 159.648,186.53 157.836,185.484 156.027,186.53 				"/>
				<polygon fill="#413531" points="155.83,188.734 157.636,187.693 155.83,186.646 154.018,187.693 				"/>
				<polygon fill="#413531" points="153.805,189.902 155.615,188.861 153.805,187.812 151.994,188.861 				"/>
				<polygon fill="#413531" points="151.779,191.072 153.587,190.029 151.779,188.986 149.969,190.029 				"/>
				<polygon fill="#413531" points="148.727,192.838 151.545,191.203 149.734,190.166 146.92,191.789 				"/>
				<polygon fill="#413531" points="165.892,182.924 167.705,181.877 165.892,180.838 164.084,181.877 				"/>
				<polygon fill="#413531" points="163.861,184.103 165.667,183.051 163.861,182.01 162.051,183.051 				"/>
				<polygon fill="#413531" points="161.849,185.258 163.656,184.212 161.849,183.17 160.043,184.212 				"/>
				<polygon fill="#413531" points="173.997,178.244 175.811,177.201 173.997,176.156 172.191,177.201 				"/>
				<polygon fill="#413531" points="175.992,177.092 178.807,175.471 176.998,174.423 174.184,176.045 				"/>
				<polygon fill="#413531" points="177.506,178.553 180.823,176.635 179.02,175.588 175.697,177.508 				"/>
				<polygon fill="#413531" points="178.484,180.293 182.82,177.787 181.02,176.744 176.673,179.246 				"/>
				<polygon fill="#413531" points="171.992,179.406 173.801,178.356 171.992,177.32 170.186,178.356 				"/>
				<polygon fill="#413531" points="169.982,180.563 171.789,179.522 169.982,178.475 168.173,179.522 				"/>
				<polygon fill="#413531" points="167.97,181.727 169.777,180.68 167.97,179.638 166.164,180.68 				"/>
				<polygon fill="#413531" points="158.813,184.674 160.623,183.633 158.813,182.591 157.005,183.633 				"/>
				<polygon fill="#413531" points="156.802,185.834 158.615,184.788 156.802,183.742 154.998,184.788 				"/>
				<polygon fill="#413531" points="154.798,186.992 156.608,185.943 154.798,184.898 152.988,185.943 				"/>
				<polygon fill="#413531" points="152.777,188.164 154.583,187.121 152.777,186.074 150.967,187.121 				"/>
				<polygon fill="#413531" points="150.752,189.331 152.563,188.287 150.752,187.24 148.944,188.287 				"/>
				<polygon fill="#413531" points="146.704,191.67 150.535,189.45 148.727,188.409 144.895,190.621 				"/>
				<rect x="144.895" y="190.258" fill="#413531" width="0.613" height="0.363"/>
				<rect x="143.48" y="189.441" fill="#413531" width="0.611" height="0.369"/>
				<rect x="145.508" y="188.271" fill="#413531" width="0.609" height="0.369"/>
				<rect x="146.92" y="191.43" fill="#413531" width="0.608" height="0.359"/>
				<rect x="148.933" y="192.592" fill="#413531" width="0.616" height="0.363"/>
				<rect x="150.934" y="193.746" fill="#413531" width="0.607" height="0.367"/>
				<rect x="153.031" y="194.958" fill="#413531" width="0.606" height="0.362"/>
				<rect x="159.625" y="192.879" fill="#413531" width="0.611" height="0.369"/>
				<g>
					<rect x="161.602" y="191.739" fill="#413531" width="0.615" height="0.37"/>
					<rect x="158.596" y="191.739" fill="#413531" width="0.616" height="0.37"/>
				</g>
				<g>
					<rect x="159.502" y="190.529" fill="#413531" width="0.617" height="0.369"/>
					<rect x="156.504" y="190.529" fill="#413531" width="0.605" height="0.369"/>
				</g>
				<g>
					<rect x="156.506" y="189.959" fill="#413531" width="0.611" height="0.369"/>
					<rect x="153.499" y="189.959" fill="#413531" width="0.608" height="0.369"/>
				</g>
				<g>
					<rect x="152.979" y="189.66" fill="#413531" width="0.608" height="0.369"/>
					<rect x="149.969" y="189.66" fill="#413531" width="0.613" height="0.369"/>
				</g>
				<g>
					<rect x="151.949" y="187.92" fill="#413531" width="0.613" height="0.367"/>
					<rect x="148.944" y="187.92" fill="#413531" width="0.606" height="0.367"/>
				</g>
				<g>
					<rect x="155.004" y="188.497" fill="#413531" width="0.611" height="0.364"/>
					<rect x="151.994" y="188.497" fill="#413531" width="0.613" height="0.364"/>
				</g>
				<g>
					<rect x="158.531" y="188.789" fill="#413531" width="0.605" height="0.367"/>
					<rect x="155.527" y="188.789" fill="#413531" width="0.611" height="0.367"/>
				</g>
				<g>
					<rect x="161.512" y="189.377" fill="#413531" width="0.616" height="0.361"/>
					<rect x="158.512" y="189.377" fill="#413531" width="0.611" height="0.361"/>
				</g>
				<g>
					<rect x="163.609" y="190.587" fill="#413531" width="0.613" height="0.358"/>
					<rect x="160.604" y="190.587" fill="#413531" width="0.613" height="0.358"/>
				</g>
				<g>
					<rect x="165.619" y="189.418" fill="#413531" width="0.611" height="0.367"/>
					<rect x="162.613" y="189.418" fill="#413531" width="0.608" height="0.367"/>
				</g>
				<g>
					<rect x="163.523" y="188.213" fill="#413531" width="0.607" height="0.365"/>
					<rect x="160.516" y="188.213" fill="#413531" width="0.611" height="0.365"/>
				</g>
				<g>
					<rect x="162.549" y="186.471" fill="#413531" width="0.608" height="0.364"/>
					<rect x="159.539" y="186.471" fill="#413531" width="0.609" height="0.364"/>
				</g>
				<g>
					<rect x="161.041" y="185.007" fill="#413531" width="0.609" height="0.371"/>
					<rect x="158.034" y="185.007" fill="#413531" width="0.616" height="0.371"/>
				</g>
				<g>
					<rect x="155.992" y="185.581" fill="#413531" width="0.616" height="0.362"/>
					<rect x="152.988" y="185.581" fill="#413531" width="0.613" height="0.362"/>
				</g>
				<g>
					<rect x="158.003" y="184.422" fill="#413531" width="0.612" height="0.366"/>
					<rect x="154.998" y="184.422" fill="#413531" width="0.611" height="0.366"/>
				</g>
				<g>
					<rect x="164.555" y="185.308" fill="#413531" width="0.608" height="0.371"/>
					<rect x="161.542" y="185.308" fill="#413531" width="0.62" height="0.371"/>
				</g>
				<g>
					<rect x="167.542" y="185.895" fill="#413531" width="0.604" height="0.363"/>
					<rect x="164.53" y="185.895" fill="#413531" width="0.611" height="0.363"/>
				</g>
				<g>
					<rect x="169.57" y="184.717" fill="#413531" width="0.615" height="0.373"/>
					<rect x="166.564" y="184.717" fill="#413531" width="0.609" height="0.373"/>
				</g>
				<g>
					<rect x="171.643" y="183.521" fill="#413531" width="0.619" height="0.363"/>
					<rect x="168.643" y="183.521" fill="#413531" width="0.612" height="0.363"/>
				</g>
				<g>
					<rect x="173.658" y="182.357" fill="#413531" width="0.611" height="0.369"/>
					<rect x="170.652" y="182.357" fill="#413531" width="0.613" height="0.369"/>
				</g>
				<g>
					<rect x="175.667" y="181.203" fill="#413531" width="0.611" height="0.363"/>
					<rect x="172.66" y="181.203" fill="#413531" width="0.611" height="0.363"/>
				</g>
				<g>
					<rect x="177.676" y="180.045" fill="#413531" width="0.608" height="0.365"/>
					<rect x="174.668" y="180.045" fill="#413531" width="0.607" height="0.365"/>
				</g>
				<g>
					<rect x="176.696" y="178.302" fill="#413531" width="0.611" height="0.362"/>
					<rect x="173.694" y="178.302" fill="#413531" width="0.611" height="0.362"/>
				</g>
				<g>
					<rect x="174.688" y="179.46" fill="#413531" width="0.611" height="0.364"/>
					<rect x="171.686" y="179.46" fill="#413531" width="0.609" height="0.364"/>
				</g>
				<g>
					<rect x="172.679" y="180.617" fill="#413531" width="0.614" height="0.364"/>
					<rect x="169.682" y="180.617" fill="#413531" width="0.607" height="0.364"/>
				</g>
				<g>
					<rect x="170.668" y="181.783" fill="#413531" width="0.613" height="0.361"/>
					<rect x="167.664" y="181.783" fill="#413531" width="0.616" height="0.361"/>
				</g>
				<g>
					<rect x="167.09" y="181.513" fill="#413531" width="0.615" height="0.364"/>
					<rect x="164.084" y="181.513" fill="#413531" width="0.613" height="0.364"/>
				</g>
				<g>
					<rect x="169.168" y="180.32" fill="#413531" width="0.609" height="0.359"/>
					<rect x="166.164" y="180.32" fill="#413531" width="0.606" height="0.359"/>
				</g>
				<g>
					<rect x="171.18" y="179.155" fill="#413531" width="0.609" height="0.367"/>
					<rect x="168.173" y="179.155" fill="#413531" width="0.608" height="0.367"/>
				</g>
				<g>
					<rect x="165.059" y="182.689" fill="#413531" width="0.608" height="0.361"/>
					<rect x="162.051" y="182.689" fill="#413531" width="0.609" height="0.361"/>
				</g>
				<g>
					<rect x="168.596" y="182.982" fill="#413531" width="0.606" height="0.361"/>
					<rect x="165.588" y="182.982" fill="#413531" width="0.614" height="0.361"/>
				</g>
				<g>
					<rect x="163.049" y="183.851" fill="#413531" width="0.607" height="0.361"/>
					<rect x="160.043" y="183.851" fill="#413531" width="0.609" height="0.361"/>
				</g>
				<g>
					<rect x="160.012" y="183.268" fill="#413531" width="0.611" height="0.365"/>
					<rect x="157.005" y="183.268" fill="#413531" width="0.616" height="0.365"/>
				</g>
				<g>
					<rect x="162.02" y="182.105" fill="#413531" width="0.611" height="0.367"/>
					<rect x="159.014" y="182.105" fill="#413531" width="0.611" height="0.367"/>
				</g>
				<g>
					<rect x="164.023" y="180.945" fill="#413531" width="0.611" height="0.368"/>
					<rect x="161.024" y="180.945" fill="#413531" width="0.604" height="0.368"/>
				</g>
				<g>
					<rect x="166.059" y="179.771" fill="#413531" width="0.617" height="0.366"/>
					<rect x="163.059" y="179.771" fill="#413531" width="0.609" height="0.366"/>
				</g>
				<g>
					<rect x="168.139" y="178.567" fill="#413531" width="0.609" height="0.372"/>
					<rect x="165.13" y="178.567" fill="#413531" width="0.614" height="0.372"/>
				</g>
				<g>
					<rect x="170.15" y="177.416" fill="#413531" width="0.611" height="0.361"/>
					<rect x="167.143" y="177.416" fill="#413531" width="0.609" height="0.361"/>
				</g>
				<g>
					<rect x="172.158" y="176.252" fill="#413531" width="0.614" height="0.367"/>
					<rect x="169.149" y="176.252" fill="#413531" width="0.611" height="0.367"/>
				</g>
				<g>
					<rect x="174.16" y="175.094" fill="#413531" width="0.616" height="0.365"/>
					<rect x="171.155" y="175.094" fill="#413531" width="0.616" height="0.365"/>
				</g>
				<g>
					<rect x="176.176" y="173.939" fill="#413531" width="0.609" height="0.363"/>
					<rect x="173.166" y="173.939" fill="#413531" width="0.611" height="0.363"/>
				</g>
				<g>
					<rect x="175.193" y="176.833" fill="#413531" width="0.617" height="0.368"/>
					<rect x="172.191" y="176.833" fill="#413531" width="0.604" height="0.368"/>
				</g>
				<g>
					<rect x="173.188" y="177.998" fill="#413531" width="0.613" height="0.358"/>
					<rect x="170.186" y="177.998" fill="#413531" width="0.607" height="0.358"/>
				</g>
				<g>
					<rect x="166.559" y="184.149" fill="#413531" width="0.615" height="0.369"/>
					<rect x="163.557" y="184.149" fill="#413531" width="0.605" height="0.369"/>
				</g>
				<g>
					<rect x="159.033" y="186.166" fill="#413531" width="0.615" height="0.364"/>
					<rect x="156.027" y="186.166" fill="#413531" width="0.611" height="0.364"/>
				</g>
				<g>
					<rect x="165.528" y="187.052" fill="#413531" width="0.611" height="0.364"/>
					<rect x="162.527" y="187.052" fill="#413531" width="0.608" height="0.364"/>
				</g>
				<g>
					<rect x="177.764" y="182.41" fill="#413531" width="0.609" height="0.365"/>
					<rect x="174.759" y="182.41" fill="#413531" width="0.61" height="0.365"/>
				</g>
				<g>
					<rect x="179.77" y="181.254" fill="#413531" width="0.613" height="0.363"/>
					<rect x="176.766" y="181.254" fill="#413531" width="0.613" height="0.363"/>
				</g>
				<g>
					<rect x="181.775" y="180.092" fill="#413531" width="0.614" height="0.37"/>
					<rect x="178.771" y="180.092" fill="#413531" width="0.617" height="0.37"/>
				</g>
				<g>
					<rect x="184.311" y="178.631" fill="#413531" width="0.613" height="0.365"/>
					<rect x="182.211" y="177.422" fill="#413531" width="0.609" height="0.365"/>
					<rect x="176.673" y="178.881" fill="#413531" width="0.61" height="0.365"/>
					<rect x="175.697" y="177.135" fill="#413531" width="0.617" height="0.373"/>
					<rect x="180.217" y="176.27" fill="#413531" width="0.606" height="0.365"/>
					<rect x="178.201" y="175.105" fill="#413531" width="0.605" height="0.365"/>
					<rect x="174.184" y="175.684" fill="#413531" width="0.613" height="0.361"/>
					<rect x="175.775" y="183.557" fill="#413531" width="0.611" height="0.369"/>
					<rect x="164.621" y="188.262" fill="#413531" width="0.609" height="0.367"/>
					<rect x="180.779" y="178.934" fill="#413531" width="0.61" height="0.363"/>
				</g>
				<g>
					<rect x="160.537" y="187.625" fill="#413531" width="0.614" height="0.368"/>
					<rect x="157.535" y="187.625" fill="#413531" width="0.611" height="0.368"/>
				</g>
				<g>
					<rect x="157.021" y="187.328" fill="#413531" width="0.614" height="0.365"/>
					<rect x="154.018" y="187.328" fill="#413531" width="0.613" height="0.365"/>
				</g>
				<g>
					<rect x="153.975" y="186.752" fill="#413531" width="0.608" height="0.369"/>
					<rect x="150.967" y="186.752" fill="#413531" width="0.609" height="0.369"/>
				</g>
				<rect x="157.533" y="191.675" fill="#413531" width="0.605" height="0.36"/>
				<rect x="154.473" y="191.133" fill="#413531" width="0.609" height="0.363"/>
				<rect x="150.934" y="190.842" fill="#413531" width="0.611" height="0.361"/>
				<rect x="149.924" y="189.088" fill="#413531" width="0.611" height="0.362"/>
				<rect x="145.861" y="189.082" fill="#413531" width="0.611" height="0.359"/>
				<rect x="147.885" y="187.914" fill="#413531" width="0.607" height="0.361"/>
				<rect x="147.528" y="187.107" fill="#413531" width="0.614" height="0.361"/>
				<rect x="149.909" y="186.742" fill="#413531" width="0.608" height="0.369"/>
				<rect x="149.551" y="185.935" fill="#413531" width="0.609" height="0.372"/>
				<rect x="151.932" y="185.575" fill="#413531" width="0.614" height="0.359"/>
				<rect x="151.576" y="184.77" fill="#413531" width="0.611" height="0.361"/>
				<rect x="153.96" y="184.41" fill="#413531" width="0.608" height="0.359"/>
				<rect x="153.584" y="183.607" fill="#413531" width="0.612" height="0.369"/>
				<rect x="155.967" y="183.248" fill="#413531" width="0.611" height="0.359"/>
				<rect x="155.591" y="182.444" fill="#413531" width="0.616" height="0.368"/>
				<rect x="157.977" y="182.088" fill="#413531" width="0.609" height="0.368"/>
				<rect x="157.6" y="181.291" fill="#413531" width="0.613" height="0.359"/>
				<rect x="159.98" y="180.93" fill="#413531" width="0.611" height="0.363"/>
				<rect x="159.61" y="180.13" fill="#413531" width="0.614" height="0.366"/>
				<rect x="161.989" y="179.771" fill="#413531" width="0.606" height="0.362"/>
				<rect x="161.641" y="178.956" fill="#413531" width="0.611" height="0.363"/>
				<rect x="164.021" y="178.595" fill="#413531" width="0.613" height="0.366"/>
				<rect x="163.716" y="177.758" fill="#413531" width="0.614" height="0.362"/>
				<rect x="166.094" y="177.396" fill="#413531" width="0.617" height="0.366"/>
				<rect x="165.727" y="176.598" fill="#413531" width="0.616" height="0.361"/>
				<rect x="168.113" y="176.236" fill="#413531" width="0.606" height="0.367"/>
				<rect x="167.736" y="175.435" fill="#413531" width="0.611" height="0.369"/>
				<rect x="170.117" y="175.074" fill="#413531" width="0.615" height="0.366"/>
				<rect x="169.742" y="174.279" fill="#413531" width="0.615" height="0.359"/>
				<rect x="172.125" y="173.918" fill="#413531" width="0.611" height="0.367"/>
				<rect x="171.755" y="173.12" fill="#413531" width="0.611" height="0.364"/>
				<rect x="174.131" y="172.758" fill="#413531" width="0.614" height="0.362"/>
				<polygon fill="#413531" points="164.862,181.185 166.676,180.137 164.862,179.094 163.059,180.137 				"/>
				<polygon fill="#413531" points="162.83,182.357 164.635,181.313 162.83,180.268 161.024,181.313 				"/>
				<polygon fill="#413531" points="160.821,183.516 162.631,182.473 160.821,181.426 159.014,182.473 				"/>
				<polygon fill="#413531" points="172.969,176.504 174.776,175.459 172.969,174.417 171.155,175.459 				"/>
				<polygon fill="#413531" points="170.959,177.665 172.772,176.619 170.959,175.57 169.149,176.619 				"/>
				<polygon fill="#413531" points="174.972,175.342 176.785,174.303 174.972,173.256 173.166,174.303 				"/>
				<polygon fill="#413531" points="168.953,178.821 170.762,177.777 168.953,176.732 167.143,177.777 				"/>
				<polygon fill="#413531" points="166.936,179.98 168.748,178.939 166.936,177.898 165.13,178.939 				"/>
				<polygon fill="#413531" points="156.775,183.498 158.586,182.456 157.401,181.771 155.591,182.813 				"/>
				<polygon fill="#413531" points="154.768,184.658 156.578,183.607 155.395,182.932 153.584,183.977 				"/>
				<polygon fill="#413531" points="152.761,185.812 154.568,184.77 153.382,184.088 151.576,185.131 				"/>
				<polygon fill="#413531" points="150.738,186.982 152.546,185.935 151.363,185.258 149.551,186.307 				"/>
				<polygon fill="#413531" points="148.711,188.148 150.518,187.111 149.336,186.43 147.528,187.469 				"/>
				<polygon fill="#413531" points="146.686,189.322 148.492,188.275 147.313,187.593 145.508,188.64 				"/>
				<polygon fill="#413531" points="144.66,190.49 146.473,189.441 145.285,188.768 143.48,189.811 				"/>
				<polygon fill="#413531" points="162.828,180.002 164.635,178.961 163.451,178.281 161.641,179.319 				"/>
				<polygon fill="#413531" points="160.795,181.176 162.596,180.133 161.418,179.451 159.61,180.496 				"/>
				<polygon fill="#413531" points="158.779,182.339 160.592,181.293 159.417,180.612 157.6,181.65 				"/>
				<polygon fill="#413531" points="170.929,175.328 172.736,174.285 171.549,173.598 169.742,174.639 				"/>
				<polygon fill="#413531" points="168.923,176.486 170.732,175.443 169.541,174.76 167.736,175.804 				"/>
				<polygon fill="#413531" points="172.935,174.168 174.745,173.12 173.563,172.438 171.755,173.484 				"/>
				<polygon fill="#413531" points="166.919,177.641 168.72,176.604 167.542,175.918 165.727,176.959 				"/>
				<polygon fill="#413531" points="164.9,178.811 166.711,177.763 165.528,177.078 163.716,178.12 				"/>
				<polygon fill="#957D78" points="164.42,190.465 166.23,189.418 164.42,188.381 162.613,189.418 				"/>
				<polygon fill="#957D78" points="162.414,191.629 164.223,190.587 162.414,189.541 160.604,190.587 				"/>
				<polygon fill="#957D78" points="166.426,189.31 176.387,183.557 174.578,182.509 164.621,188.262 				"/>
				<polygon fill="#957D78" points="160.406,192.783 162.217,191.739 160.406,190.698 158.596,191.739 				"/>
				<polygon fill="#957D78" points="154.842,195.998 160.236,192.879 158.433,191.834 153.031,194.958 				"/>
				<polygon fill="#957D78" points="180.582,181.135 182.39,180.092 180.582,179.047 178.771,180.092 				"/>
				<polygon fill="#957D78" points="178.576,182.295 180.383,181.254 178.576,180.21 176.766,181.254 				"/>
				<polygon fill="#957D78" points="182.59,179.98 184.924,178.631 183.115,177.59 180.779,178.934 				"/>
				<polygon fill="#957D78" points="176.563,183.458 178.373,182.41 176.563,181.365 174.759,182.41 				"/>
				<polygon fill="#957D78" points="162.324,189.26 164.131,188.213 162.324,187.167 160.516,188.213 				"/>
				<polygon fill="#957D78" points="160.317,190.412 162.128,189.377 160.317,188.328 158.512,189.377 				"/>
				<polygon fill="#957D78" points="158.311,191.581 160.119,190.529 158.311,189.482 156.504,190.529 				"/>
				<polygon fill="#957D78" points="152.744,194.791 158.139,191.675 156.336,190.629 150.934,193.746 				"/>
				<polygon fill="#957D78" points="168.376,185.762 170.186,184.717 168.376,183.676 166.564,184.717 				"/>
				<polygon fill="#957D78" points="166.343,186.936 168.146,185.895 166.343,184.846 164.53,185.895 				"/>
				<polygon fill="#957D78" points="164.33,188.099 166.143,187.052 164.33,186.009 162.527,187.052 				"/>
				<polygon fill="#957D78" points="176.479,181.083 178.284,180.045 176.479,178.996 174.668,180.045 				"/>
				<polygon fill="#957D78" points="174.465,182.248 176.278,181.203 174.465,180.152 172.66,181.203 				"/>
				<polygon fill="#957D78" points="172.461,183.406 174.27,182.357 172.461,181.316 170.652,182.357 				"/>
				<polygon fill="#957D78" points="170.449,184.563 172.262,183.521 170.449,182.477 168.643,183.521 				"/>
				<polygon fill="#957D78" points="161.35,187.516 163.157,186.471 161.35,185.423 159.539,186.471 				"/>
				<polygon fill="#957D78" points="159.34,188.676 161.151,187.625 159.34,186.584 157.535,187.625 				"/>
				<polygon fill="#957D78" points="157.332,189.83 159.137,188.789 157.332,187.743 155.527,188.789 				"/>
				<polygon fill="#957D78" points="155.309,191.002 157.117,189.959 155.309,188.912 153.499,189.959 				"/>
				<polygon fill="#957D78" points="150.75,193.633 155.082,191.133 153.27,190.09 148.933,192.592 				"/>
				<polygon fill="#957D78" points="167.398,184.02 169.202,182.982 167.398,181.938 165.588,182.982 				"/>
				<polygon fill="#957D78" points="165.365,185.199 167.174,184.149 165.365,183.107 163.557,184.149 				"/>
				<polygon fill="#957D78" points="163.357,186.354 165.163,185.308 163.357,184.27 161.542,185.308 				"/>
				<polygon fill="#957D78" points="175.505,179.344 177.308,178.302 175.505,177.258 173.694,178.302 				"/>
				<polygon fill="#957D78" points="173.491,180.496 175.299,179.46 173.491,178.413 171.686,179.46 				"/>
				<polygon fill="#957D78" points="171.484,181.658 173.293,180.617 171.484,179.571 169.682,180.617 				"/>
				<polygon fill="#957D78" points="169.472,182.824 171.281,181.783 169.472,180.735 167.664,181.783 				"/>
				<polygon fill="#957D78" points="159.842,186.053 161.65,185.007 159.842,183.963 158.034,185.007 				"/>
				<polygon fill="#957D78" points="157.836,187.214 159.648,186.166 157.836,185.12 156.027,186.166 				"/>
				<polygon fill="#957D78" points="155.83,188.367 157.636,187.328 155.83,186.279 154.018,187.328 				"/>
				<polygon fill="#957D78" points="153.805,189.541 155.615,188.497 153.805,187.454 151.994,188.497 				"/>
				<polygon fill="#957D78" points="151.779,190.707 153.587,189.66 151.779,188.617 149.969,189.66 				"/>
				<polygon fill="#957D78" points="148.727,192.471 151.545,190.842 149.734,189.798 146.92,191.43 				"/>
				<polygon fill="#957D78" points="165.892,182.561 167.705,181.513 165.892,180.47 164.084,181.513 				"/>
				<polygon fill="#957D78" points="163.861,183.734 165.667,182.689 163.861,181.648 162.051,182.689 				"/>
				<polygon fill="#957D78" points="161.849,184.893 163.656,183.851 161.849,182.805 160.043,183.851 				"/>
				<polygon fill="#957D78" points="173.997,177.881 175.811,176.833 173.997,175.794 172.191,176.833 				"/>
				<polygon fill="#957D78" points="175.992,176.73 178.807,175.105 176.998,174.059 174.184,175.684 				"/>
				<polygon fill="#957D78" points="177.506,178.18 180.823,176.27 179.02,175.223 175.697,177.135 				"/>
				<polygon fill="#957D78" points="178.484,179.927 182.82,177.422 181.02,176.375 176.673,178.881 				"/>
				<polygon fill="#957D78" points="171.992,179.039 173.801,177.998 171.992,176.953 170.186,177.998 				"/>
				<polygon fill="#957D78" points="169.982,180.196 171.789,179.155 169.982,178.107 168.173,179.155 				"/>
				<polygon fill="#957D78" points="167.97,181.359 169.777,180.32 167.97,179.273 166.164,180.32 				"/>
				<polygon fill="#957D78" points="158.813,184.313 160.623,183.268 158.813,182.222 157.005,183.268 				"/>
				<polygon fill="#957D78" points="156.802,185.467 158.615,184.422 156.802,183.383 154.998,184.426 				"/>
				<polygon fill="#957D78" points="154.798,186.629 156.608,185.581 154.798,184.543 152.988,185.581 				"/>
				<polygon fill="#957D78" points="152.777,187.793 154.583,186.752 152.777,185.703 150.967,186.752 				"/>
				<polygon fill="#957D78" points="150.752,188.969 152.563,187.917 150.752,186.875 148.944,187.92 				"/>
				<polygon fill="#957D78" points="146.704,191.301 150.535,189.088 148.727,188.047 144.895,190.258 				"/>
				<polygon fill="#957D78" points="164.862,180.818 166.676,179.771 164.862,178.727 163.059,179.771 				"/>
				<polygon fill="#957D78" points="162.83,181.992 164.635,180.945 162.83,179.902 161.024,180.945 				"/>
				<polygon fill="#957D78" points="160.821,183.15 162.631,182.105 160.821,181.063 159.014,182.105 				"/>
				<polygon fill="#957D78" points="172.969,176.137 174.776,175.094 172.969,174.046 171.155,175.094 				"/>
				<polygon fill="#957D78" points="170.959,177.294 172.772,176.252 170.959,175.207 169.149,176.252 				"/>
				<polygon fill="#957D78" points="174.972,174.979 176.785,173.939 174.972,172.894 173.166,173.939 				"/>
				<polygon fill="#957D78" points="168.953,178.459 170.762,177.416 168.953,176.365 167.143,177.416 				"/>
				<polygon fill="#957D78" points="166.936,179.621 168.748,178.567 166.936,177.531 165.13,178.567 				"/>
				<polygon fill="#957D78" points="156.775,183.129 158.586,182.088 157.401,181.405 155.591,182.444 				"/>
				<polygon fill="#957D78" points="154.768,184.291 156.578,183.248 155.395,182.563 153.584,183.607 				"/>
				<polygon fill="#957D78" points="152.761,185.451 154.568,184.41 153.382,183.726 151.576,184.77 				"/>
				<polygon fill="#957D78" points="150.738,186.619 152.546,185.575 151.363,184.893 149.551,185.935 				"/>
				<polygon fill="#957D78" points="148.711,187.788 150.518,186.742 149.336,186.063 147.528,187.107 				"/>
				<polygon fill="#957D78" points="146.686,188.953 148.492,187.914 147.313,187.227 145.508,188.271 				"/>
				<polygon fill="#957D78" points="144.66,190.124 146.473,189.082 145.285,188.4 143.48,189.441 				"/>
				<polygon fill="#957D78" points="162.828,179.638 164.635,178.595 163.451,177.912 161.641,178.956 				"/>
				<polygon fill="#957D78" points="160.795,180.818 162.596,179.771 161.418,179.086 159.61,180.13 				"/>
				<polygon fill="#957D78" points="158.779,181.971 160.592,180.93 159.417,180.247 157.6,181.291 				"/>
				<polygon fill="#957D78" points="170.929,174.963 172.736,173.918 171.549,173.236 169.742,174.279 				"/>
				<polygon fill="#957D78" points="168.923,176.119 170.732,175.074 169.541,174.393 167.736,175.435 				"/>
				<polygon fill="#957D78" points="172.935,173.801 174.745,172.758 173.563,172.076 171.755,173.12 				"/>
				<polygon fill="#957D78" points="166.919,177.278 168.72,176.236 167.542,175.554 165.727,176.598 				"/>
				<polygon fill="#957D78" points="164.9,178.438 166.711,177.396 165.528,176.714 163.716,177.758 				"/>
			</g>
		</g>
		<g>
			<polygon fill="#413531" points="138.549,190.189 138.942,175.357 138.549,162.697 137.447,162.063 137.447,189.558 			"/>
			<path fill="#695851" d="M173.066,143.734v22.377l-33.685,19.456v-1.301v-21.085l-0.833-0.484v27.492l35.719-20.616V142.08
				L173.066,143.734z"/>
			<polygon fill="#413531" points="139.382,185.567 139.382,185.982 173.434,166.323 173.434,143.516 173.066,143.734 
				173.066,166.111 			"/>
		</g>
		<g>
			<polygon fill="#846F6A" points="174.268,142.08 173.162,141.443 137.447,162.063 138.549,162.697 156.832,152.695 			"/>
			<polygon fill="#695851" points="173.066,143.734 139.382,163.182 138.992,163.344 138.549,162.697 174.268,142.08 
				174.098,142.92 			"/>
		</g>
	</g>
	<g>
		<polygon fill="#695851" points="112.563,34.84 111.156,32.887 109.617,30.658 112.857,29.973 114.405,32.655 		"/>
		<polygon fill="#846F6A" points="111.154,30.955 105.077,28.987 95.404,21.862 97.112,20.881 112.857,29.973 		"/>
		<polygon fill="#362C29" points="112.702,69.279 110.201,45.488 112.702,33.636 114.405,32.655 114.407,68.3 		"/>
		<polygon fill="#76645B" points="112.702,33.636 111.154,30.955 95.404,21.862 93.861,22.756 93.861,25.014 96.206,40.439 
			93.861,54.935 93.861,58.401 95.406,61.083 111.154,70.172 112.702,69.279 112.702,65.813 110.916,43.929 112.702,35.895 		"/>
		<g>
			<polygon fill="#695851" points="101.033,63.425 105.504,66.009 105.504,62.691 101.033,60.104 			"/>
			<path fill="#A39685" d="M101.745,61.334l3.047,1.766v1.682l-3.047-1.765V61.334L101.745,61.334z M101.566,61.028v2.096
				l3.408,1.966v-2.096L101.566,61.028L101.566,61.028z"/>
			<polygon fill="#695851" points="106.683,64.056 106.683,65.999 110.025,67.93 110.027,65.988 			"/>
			<polygon fill="#695851" points="96.514,60.128 99.861,62.062 99.861,60.12 96.509,58.183 			"/>
		</g>
		<polygon fill="#0C0B0B" points="112.702,65.813 93.861,54.935 93.861,25.014 112.702,35.895 		"/>
		<g>
			<g>
				<polygon fill="#C9DFE8" points="97.231,31.927 97.231,46.793 109.338,53.789 109.338,38.923 				"/>
				<polygon fill="#448AA9" points="105.203,47.656 104.84,47.445 104.84,46.267 106.067,45.555 106.067,41.068 104.465,38.279 
					102.186,36.965 100.577,37.897 100.577,42.382 101.814,44.509 101.814,45.692 101.363,45.438 98.649,45.586 98.649,47.616 
					107.918,52.971 107.918,50.934 				"/>
			</g>
			<polygon fill="#2B627E" points="93.861,47.038 93.861,47.554 112.702,58.434 112.702,57.916 			"/>
			<g>
				<polygon fill="#C84130" points="97.097,50.766 96.421,51.148 96.421,52.248 97.097,53.41 98.048,53.96 98.714,53.567 
					98.714,52.47 98.048,51.31 				"/>
				<polygon fill="#D0DC78" points="109.119,57.708 108.174,57.154 107.498,57.548 107.498,58.641 108.174,59.801 109.119,60.348 
					109.786,59.963 109.786,58.866 				"/>
				<polygon fill="#2B627E" points="107.133,58.432 99.068,53.771 99.068,52.674 107.133,57.33 				"/>
			</g>
		</g>
		<polygon fill="#7FD1E2" points="107.484,31.151 95.406,24.181 95.406,23.62 107.482,30.59 		"/>
		<polygon fill="#60A0AD" points="108.605,31.236 108.605,31.797 111.156,33.27 111.156,32.71 		"/>
	</g>
	<g>
		<g>
			<polygon opacity="0.3" fill="#010101" points="77.157,189.818 70.225,193.816 25.114,167.776 32.05,163.775 			"/>
			<g>
				<g>
					<polygon fill="#413531" points="57.655,188.041 56.983,186.36 67.707,181.133 67.707,182.222 					"/>
					<polygon fill="#695851" points="57.655,188.041 33.984,174.383 33.984,173.293 47.137,177.871 57.655,186.952 					"/>
					<polygon fill="#846F6A" points="57.655,186.952 33.984,173.293 44.05,167.471 67.707,181.133 					"/>
				</g>
				<g>
					<polygon fill="#413531" points="61.067,179.025 59.864,179.719 43.191,162.326 44.393,161.628 57.681,169.307 					"/>
					<polygon fill="#554640" points="59.864,179.719 46.576,172.049 43.191,162.326 56.484,169.997 					"/>
				</g>
			</g>
			<polygon opacity="0.3" fill="#010101" points="59.025,186.152 59.023,187.27 67.707,182.222 67.707,181.133 44.05,167.471 
				35.37,172.492 			"/>
			<g>
				<polygon fill="#F4EFE9" points="72.194,176.123 70.225,177.262 25.114,151.219 27.099,150.078 				"/>
				<polygon fill="#413531" points="72.194,182.615 70.225,183.76 68.863,179.94 70.225,177.262 72.194,176.123 				"/>
				<polygon fill="#695851" points="70.225,177.262 25.114,151.219 25.114,157.71 70.225,183.76 				"/>
				<polygon fill="#F4EFE9" points="72.194,147.076 70.225,148.217 25.114,122.174 27.099,121.034 				"/>
				<polygon fill="#D1D2D2" points="72.194,176.123 70.225,177.262 70.225,148.217 72.194,147.076 				"/>
				<polygon fill="#E0DEDC" points="70.225,148.217 25.114,122.174 25.114,151.219 70.225,177.262 				"/>
				<polygon fill="#A49D95" points="69.531,175.67 69.531,176.073 25.804,150.823 25.804,123.362 26.158,123.568 26.158,150.617 
									"/>
				<g>
					<polygon fill="#0C0B0B" points="69.531,148.611 69.531,175.67 26.158,150.617 26.158,123.568 					"/>
				</g>
				<g>
					<g>
						<polygon fill="#C9DFE8" points="41.302,135.746 41.302,150.611 53.411,157.608 53.411,142.741 						"/>
						<polygon fill="#448AA9" points="49.277,151.475 48.911,151.262 48.911,150.083 50.143,149.373 50.143,144.885 48.536,142.096 
							46.258,140.782 44.65,141.714 44.65,146.201 45.885,148.328 45.885,149.512 45.436,149.254 42.724,149.404 42.724,151.436 
							51.99,156.788 51.99,154.754 						"/>
					</g>
					<g>
						<polygon fill="#2B627E" points="69.527,169.096 69.527,169.618 26.163,144.572 26.163,144.059 						"/>
					</g>
					<g>
						<polygon fill="#C84130" points="41.17,154.582 40.497,154.968 40.497,156.065 41.17,157.229 42.119,157.777 42.788,157.388 
							42.788,156.289 42.119,155.129 						"/>
						<polygon fill="#D0DC78" points="53.191,161.523 52.247,160.971 51.574,161.366 51.574,162.459 52.247,163.619 53.191,164.164 
							53.857,163.781 53.857,162.686 						"/>
						<polygon fill="#2B627E" points="51.206,162.251 43.141,157.588 43.141,156.494 51.206,161.148 						"/>
					</g>
				</g>
			</g>
		</g>
		<g>
			<polygon opacity="0.3" fill="#010101" points="50.015,203.832 12.21,182.002 26.371,173.83 64.18,195.657 			"/>
			<g>
				<polygon fill="#D1D2D2" points="49.986,203.672 48.78,201.367 64.022,194.613 64.022,195.568 				"/>
				<polygon fill="#F4EFE9" points="49.986,203.672 12.511,182.033 12.511,181.075 15.355,181.764 47.598,200.404 49.986,202.714 
									"/>
				<polygon fill="#FFFFFF" points="49.986,202.714 12.511,181.075 26.55,172.974 64.022,194.613 				"/>
			</g>
			<g>
				<polygon fill="#F4EFE9" points="56.608,192.303 55.109,191.441 55.744,191.079 57.241,191.939 				"/>
				<polygon fill="#F4EFE9" points="58.273,193.264 56.78,192.402 57.411,192.039 58.901,192.904 				"/>
				<polygon fill="#F4EFE9" points="59.94,194.232 58.438,193.369 59.078,193.002 60.568,193.861 				"/>
				<polygon fill="#DCE460" points="56.522,192.002 55.641,191.488 55.825,191.383 56.714,191.894 				"/>
				<polygon fill="#DCE460" points="58.192,192.959 57.308,192.448 57.497,192.345 58.374,192.854 				"/>
				<polygon fill="#DCE460" points="59.854,193.922 58.966,193.41 59.154,193.305 60.038,193.814 				"/>
			</g>
			<g>
				<g>
					<g>
						<polygon fill="#413531" points="28.47,175.336 28.47,174.879 25.518,173.906 25.518,174.355 27.837,175.697 						"/>
						<polygon fill="#846F6A" points="28.47,174.879 26.151,173.537 25.518,173.906 27.837,175.248 						"/>
					</g>
					<g>
						<polygon fill="#413531" points="29.501,176.65 30.132,176.289 30.132,175.834 28.003,175.342 28.003,175.791 						"/>
						<polygon fill="#846F6A" points="29.501,176.203 30.132,175.834 28.634,174.973 28.003,175.342 						"/>
					</g>
					<g>
						<polygon fill="#413531" points="31.166,177.615 31.796,177.253 31.796,176.798 29.671,176.299 29.671,176.756 						"/>
						<polygon fill="#846F6A" points="31.166,177.168 31.796,176.798 30.297,175.934 29.671,176.299 						"/>
					</g>
					<g>
						<polygon fill="#413531" points="32.826,178.575 33.456,178.213 33.456,177.76 31.333,177.262 31.333,177.715 						"/>
						<polygon fill="#846F6A" points="32.826,178.125 33.456,177.76 31.964,176.899 31.333,177.262 						"/>
					</g>
					<g>
						<polygon fill="#413531" points="34.495,179.535 35.126,179.172 35.126,178.726 33.002,178.229 33.002,178.673 						"/>
						<polygon fill="#846F6A" points="34.495,179.086 35.126,178.726 33.631,177.862 33.002,178.229 						"/>
					</g>
					<g>
						<polygon fill="#413531" points="36.155,180.496 36.788,180.135 36.788,179.686 34.663,179.188 34.663,179.638 						"/>
						<polygon fill="#846F6A" points="36.155,180.045 36.788,179.686 35.291,178.821 34.663,179.188 						"/>
					</g>
					<g>
						<polygon fill="#413531" points="37.822,181.464 38.458,181.096 38.458,180.645 36.33,180.148 36.33,180.602 						"/>
						<polygon fill="#846F6A" points="37.822,181.014 38.458,180.645 36.96,179.783 36.33,180.148 						"/>
					</g>
					<g>
						<polygon fill="#413531" points="39.487,182.42 40.122,182.057 40.122,181.607 37.987,181.107 37.987,181.561 						"/>
						<polygon fill="#846F6A" points="39.487,181.969 40.122,181.607 38.625,180.746 37.987,181.107 						"/>
					</g>
					<g>
						<polygon fill="#413531" points="41.149,183.383 41.782,183.02 41.782,182.57 39.657,182.068 39.657,182.521 						"/>
						<polygon fill="#846F6A" points="41.149,182.93 41.782,182.57 40.287,181.707 39.657,182.068 						"/>
					</g>
					<g>
						<polygon fill="#413531" points="42.816,184.346 43.449,183.979 43.449,183.525 41.323,183.031 41.323,183.482 						"/>
						<polygon fill="#846F6A" points="42.816,183.893 43.449,183.525 41.958,182.664 41.323,183.031 						"/>
					</g>
					<g>
						<polygon fill="#413531" points="44.481,185.308 45.111,184.942 45.111,184.488 42.993,183.992 42.993,184.439 						"/>
						<polygon fill="#846F6A" points="44.481,184.855 45.111,184.488 43.619,183.625 42.993,183.992 						"/>
					</g>
					<g>
						<polygon fill="#413531" points="46.148,186.27 46.776,185.905 46.776,185.451 44.65,184.954 44.65,185.405 						"/>
						<polygon fill="#846F6A" points="46.148,185.814 46.776,185.451 45.285,184.585 44.65,184.954 						"/>
					</g>
					<g>
						<polygon fill="#413531" points="47.808,187.231 48.445,186.865 48.445,186.411 46.317,185.91 46.317,186.364 						"/>
						<polygon fill="#846F6A" points="47.808,186.78 48.445,186.411 46.95,185.549 46.317,185.91 						"/>
					</g>
					<g>
						<polygon fill="#413531" points="49.475,188.188 50.108,187.821 50.108,187.375 47.979,186.875 47.979,187.331 						"/>
						<polygon fill="#846F6A" points="49.475,187.736 50.108,187.375 48.61,186.508 47.979,186.875 						"/>
					</g>
				</g>
				<g>
					<g>
						<polygon fill="#413531" points="26.69,176.365 26.69,175.907 22.876,175.428 22.876,175.879 25.2,177.223 						"/>
						<polygon fill="#846F6A" points="26.69,175.907 24.367,174.567 22.876,175.428 25.2,176.77 						"/>
					</g>
					<g>
						<polygon fill="#413531" points="27.567,176.865 26.855,176.458 26.139,176.865 25.358,176.865 25.358,177.32 26.855,178.187 
							28.353,177.32 28.353,176.865 						"/>
						<polygon fill="#846F6A" points="26.855,176 25.358,176.865 26.855,177.729 28.353,176.865 						"/>
					</g>
					<g>
						<polygon fill="#413531" points="29.232,177.826 28.52,177.416 27.806,177.826 27.027,177.826 27.027,178.277 28.52,179.136 
							30.015,178.277 30.015,177.826 						"/>
						<polygon fill="#846F6A" points="28.52,176.964 27.027,177.826 28.52,178.688 30.015,177.826 						"/>
					</g>
					<g>
						<polygon fill="#413531" points="30.906,178.787 30.185,178.377 29.47,178.787 28.687,178.787 28.687,179.239 30.185,180.105 
							31.68,179.239 31.68,178.787 						"/>
						<polygon fill="#846F6A" points="30.185,177.928 28.687,178.787 30.185,179.649 31.68,178.787 						"/>
					</g>
					<g>
						<polygon fill="#413531" points="32.565,179.748 31.854,179.338 31.133,179.748 30.357,179.748 30.357,180.203 31.854,181.067 
							33.344,180.203 33.344,179.748 						"/>
						<polygon fill="#846F6A" points="31.854,178.891 30.357,179.748 31.854,180.612 33.344,179.748 						"/>
					</g>
					<g>
						<polygon fill="#413531" points="34.228,180.709 33.509,180.3 32.797,180.709 32.024,180.709 32.024,181.16 33.509,182.027 
							35.006,181.16 35.006,180.709 						"/>
						<polygon fill="#846F6A" points="33.509,179.846 32.024,180.709 33.509,181.572 35.006,180.709 						"/>
					</g>
					<g>
						<polygon fill="#413531" points="35.896,181.669 35.176,181.262 34.464,181.669 33.688,181.669 33.688,182.121 35.176,182.986 
							36.671,182.121 36.671,181.669 						"/>
						<polygon fill="#846F6A" points="35.176,180.813 33.688,181.669 35.176,182.537 36.671,181.669 						"/>
					</g>
					<g>
						<polygon fill="#413531" points="37.564,182.631 36.845,182.223 36.134,182.631 35.351,182.631 35.351,183.086 36.845,183.949 
							38.338,183.086 38.338,182.631 						"/>
						<polygon fill="#846F6A" points="36.845,181.768 35.351,182.631 36.845,183.498 38.338,182.631 						"/>
					</g>
					<g>
						<polygon fill="#413531" points="39.219,183.596 38.506,183.182 37.796,183.596 37.013,183.596 37.013,184.047 38.506,184.906 
							40.005,184.047 40.005,183.596 						"/>
						<polygon fill="#846F6A" points="38.506,182.734 37.013,183.596 38.506,184.459 40.005,183.596 						"/>
					</g>
					<g>
						<polygon fill="#413531" points="40.889,184.553 40.172,184.144 39.461,184.553 38.682,184.553 38.682,185.007 40.172,185.871 
							41.667,185.007 41.667,184.553 						"/>
						<polygon fill="#846F6A" points="40.172,183.693 38.682,184.553 40.172,185.419 41.667,184.553 						"/>
					</g>
					<g>
						<polygon fill="#413531" points="42.554,185.516 41.839,185.104 41.127,185.516 40.342,185.516 40.342,185.965 41.839,186.832 
							43.335,185.965 43.335,185.516 						"/>
						<polygon fill="#846F6A" points="41.839,184.65 40.342,185.516 41.839,186.378 43.335,185.516 						"/>
					</g>
					<g>
						<polygon fill="#413531" points="44.213,186.477 43.501,186.068 42.79,186.477 42.014,186.477 42.014,186.931 43.501,187.791 
							45.001,186.931 45.001,186.477 						"/>
						<polygon fill="#846F6A" points="43.501,185.617 42.014,186.477 43.501,187.338 45.001,186.477 						"/>
					</g>
					<g>
						<polygon fill="#413531" points="45.885,187.441 45.171,187.027 44.464,187.441 43.673,187.441 43.673,187.889 45.171,188.754 
							46.669,187.889 46.669,187.441 						"/>
						<polygon fill="#846F6A" points="45.171,186.577 43.673,187.441 45.171,188.305 46.669,187.441 						"/>
					</g>
					<g>
						<polygon fill="#413531" points="47.547,188.4 46.838,187.987 46.119,188.4 45.343,188.4 45.343,188.854 46.838,189.714 
							48.328,188.854 48.328,188.4 						"/>
						<polygon fill="#846F6A" points="46.838,187.543 45.343,188.4 46.838,189.266 48.328,188.4 						"/>
					</g>
					<g>
						<polygon fill="#413531" points="23.493,176.354 22.767,175.936 22.062,176.354 21.279,176.354 21.279,176.798 22.767,177.665 
							24.266,176.798 24.266,176.354 						"/>
						<polygon fill="#846F6A" points="22.767,175.489 21.279,176.354 22.767,177.213 24.266,176.354 						"/>
					</g>
					<g>
						<polygon fill="#413531" points="25.153,177.315 24.434,176.899 23.722,177.315 22.938,177.315 22.938,177.76 24.434,178.627 
							25.926,177.76 25.926,177.315 						"/>
						<polygon fill="#846F6A" points="24.434,176.449 22.938,177.315 24.434,178.172 25.926,177.315 						"/>
					</g>
					<g>
						<polygon fill="#413531" points="26.81,178.275 26.098,177.862 25.387,178.275 24.61,178.275 24.61,178.726 26.098,179.586 
							27.595,178.726 27.595,178.275 						"/>
						<polygon fill="#846F6A" points="26.098,177.408 24.61,178.275 26.098,179.13 27.595,178.275 						"/>
					</g>
					<g>
						<polygon fill="#413531" points="28.481,179.232 27.763,178.821 27.056,179.232 26.268,179.232 26.268,179.686 27.763,180.548 
							29.258,179.686 29.258,179.232 						"/>
						<polygon fill="#846F6A" points="27.763,178.369 26.268,179.232 27.763,180.094 29.258,179.232 						"/>
					</g>
					<g>
						<polygon fill="#413531" points="30.144,180.196 29.427,179.783 28.716,180.196 27.937,180.196 27.937,180.645 29.427,181.506 
							30.925,180.645 30.925,180.196 						"/>
						<polygon fill="#846F6A" points="29.427,179.332 27.937,180.196 29.427,181.055 30.925,180.196 						"/>
					</g>
					<g>
						<polygon fill="#413531" points="31.811,181.156 31.092,180.746 30.381,181.156 29.602,181.156 29.602,181.607 31.092,182.473 
							32.59,181.607 32.59,181.156 						"/>
						<polygon fill="#846F6A" points="31.092,180.291 29.602,181.156 31.092,182.016 32.59,181.156 						"/>
					</g>
					<g>
						<polygon fill="#413531" points="33.473,182.119 32.759,181.707 32.05,182.119 31.269,182.119 31.269,182.564 32.759,183.43 
							34.254,182.564 34.254,182.119 						"/>
						<polygon fill="#846F6A" points="32.759,181.254 31.269,182.119 32.759,182.982 34.254,182.119 						"/>
					</g>
					<g>
						<polygon fill="#413531" points="35.143,183.08 34.426,182.664 33.714,183.08 32.929,183.08 32.929,183.525 34.426,184.392 
							35.926,183.525 35.926,183.08 						"/>
						<polygon fill="#846F6A" points="34.426,182.215 32.929,183.08 34.426,183.938 35.926,183.08 						"/>
					</g>
					<g>
						<polygon fill="#413531" points="36.808,184.038 36.091,183.625 35.376,184.038 34.593,184.038 34.593,184.488 36.091,185.352 
							37.588,184.488 37.588,184.038 						"/>
						<polygon fill="#846F6A" points="36.091,183.178 34.593,184.038 36.091,184.904 37.588,184.038 						"/>
					</g>
					<g>
						<polygon fill="#413531" points="38.467,185.003 37.755,184.591 37.043,185.003 36.263,185.003 36.263,185.451 37.755,186.315 
							39.25,185.451 39.25,185.003 						"/>
						<polygon fill="#846F6A" points="37.755,184.137 36.263,185.003 37.755,185.866 39.25,185.003 						"/>
					</g>
					<g>
						<polygon fill="#413531" points="40.131,185.961 39.42,185.549 38.71,185.961 37.922,185.961 37.922,186.411 39.42,187.275 
							40.917,186.411 40.917,185.961 						"/>
						<polygon fill="#846F6A" points="39.42,185.098 37.922,185.961 39.42,186.824 40.917,185.961 						"/>
					</g>
					<g>
						<polygon fill="#413531" points="41.796,186.922 41.087,186.508 40.368,186.922 39.592,186.922 39.592,187.375 41.087,188.239 
							42.582,187.375 42.582,186.922 						"/>
						<polygon fill="#846F6A" points="41.087,186.061 39.592,186.922 41.087,187.788 42.582,186.922 						"/>
					</g>
					<g>
						<polygon fill="#413531" points="43.464,187.881 42.752,187.475 42.035,187.881 41.259,187.881 41.259,188.335 42.752,189.198 
							44.244,188.335 44.244,187.881 						"/>
						<polygon fill="#846F6A" points="42.752,187.021 41.259,187.881 42.752,188.748 44.244,187.881 						"/>
					</g>
					<g>
						<polygon fill="#413531" points="46.735,189.771 46.735,189.318 42.923,188.846 42.923,189.296 45.243,190.637 						"/>
						<polygon fill="#846F6A" points="46.735,189.318 44.414,187.984 42.923,188.846 45.243,190.184 						"/>
					</g>
					<g>
						<polygon fill="#413531" points="23.43,178.213 23.43,177.76 19.671,177.32 19.671,177.766 21.928,179.076 						"/>
						<polygon fill="#846F6A" points="23.43,177.76 21.169,176.458 19.671,177.32 21.928,178.622 						"/>
					</g>
					<g>
						<polygon fill="#413531" points="24.312,178.726 23.593,178.313 22.884,178.726 22.103,178.726 22.103,179.172 23.593,180.037 
							25.093,179.172 25.093,178.726 						"/>
						<polygon fill="#846F6A" points="23.593,177.862 22.103,178.726 23.593,179.586 25.093,178.726 						"/>
					</g>
					<g>
						<polygon fill="#413531" points="25.977,179.686 25.26,179.271 24.548,179.686 23.765,179.686 23.765,180.135 25.26,181 
							26.755,180.135 26.755,179.686 						"/>
						<polygon fill="#846F6A" points="25.26,178.817 23.765,179.686 25.26,180.548 26.755,179.686 						"/>
					</g>
					<g>
						<polygon fill="#413531" points="27.638,180.645 26.925,180.234 26.216,180.645 25.432,180.645 25.432,181.096 26.925,181.959 
							28.419,181.096 28.419,180.645 						"/>
						<polygon fill="#846F6A" points="26.925,179.779 25.432,180.645 26.925,181.506 28.419,180.645 						"/>
					</g>
					<g>
						<polygon fill="#413531" points="29.306,181.605 28.591,181.193 27.88,181.605 27.097,181.605 27.097,182.055 28.591,182.922 
							30.084,182.055 30.084,181.605 						"/>
						<polygon fill="#846F6A" points="28.591,180.746 27.097,181.605 28.591,182.468 30.084,181.605 						"/>
					</g>
					<g>
						<polygon fill="#413531" points="30.968,182.564 30.254,182.152 29.544,182.564 28.761,182.564 28.761,183.02 30.254,183.882 
							31.749,183.02 31.749,182.564 						"/>
						<polygon fill="#846F6A" points="30.254,181.707 28.761,182.564 30.254,183.43 31.749,182.564 						"/>
					</g>
					<g>
						<polygon fill="#413531" points="32.635,183.525 31.923,183.117 31.209,183.525 30.43,183.525 30.43,183.979 31.923,184.84 
							33.416,183.979 33.416,183.525 						"/>
						<polygon fill="#846F6A" points="31.923,182.664 30.43,183.525 31.923,184.392 33.416,183.525 						"/>
					</g>
					<g>
						<polygon fill="#413531" points="34.295,184.486 33.585,184.076 32.869,184.486 32.09,184.486 32.09,184.938 33.585,185.802 
							35.078,184.938 35.078,184.486 						"/>
						<polygon fill="#846F6A" points="33.585,183.625 32.09,184.486 33.585,185.352 35.078,184.486 						"/>
					</g>
					<g>
						<polygon fill="#413531" points="35.964,185.448 35.252,185.039 34.536,185.448 33.755,185.448 33.755,185.905 35.252,186.765 
							36.745,185.905 36.745,185.448 						"/>
						<polygon fill="#846F6A" points="35.252,184.585 33.755,185.448 35.252,186.313 36.745,185.448 						"/>
					</g>
					<g>
						<polygon fill="#413531" points="37.627,186.411 36.917,186.004 36.203,186.411 35.425,186.411 35.425,186.865 36.917,187.727 
							38.41,186.865 38.41,186.411 						"/>
						<polygon fill="#846F6A" points="36.917,185.544 35.425,186.411 36.917,187.275 38.41,186.411 						"/>
					</g>
					<g>
						<polygon fill="#413531" points="39.289,187.375 38.58,186.959 37.865,187.375 37.084,187.375 37.084,187.821 38.58,188.684 
							40.075,187.821 40.075,187.375 						"/>
						<polygon fill="#846F6A" points="38.58,186.508 37.084,187.375 38.58,188.239 40.075,187.375 						"/>
					</g>
					<g>
						<polygon fill="#413531" points="40.958,188.335 40.247,187.92 39.532,188.335 38.751,188.335 38.751,188.787 40.247,189.646 
							41.744,188.787 41.744,188.335 						"/>
						<polygon fill="#846F6A" points="40.247,187.475 38.751,188.335 40.247,189.198 41.744,188.335 						"/>
					</g>
					<g>
						<polygon fill="#413531" points="42.623,189.296 41.911,188.881 41.199,189.296 40.416,189.296 40.416,189.748 41.911,190.607 
							43.406,189.748 43.406,189.296 						"/>
						<polygon fill="#846F6A" points="41.911,188.432 40.416,189.296 41.911,190.156 43.406,189.296 						"/>
					</g>
					<g>
						<polygon fill="#413531" points="22.265,179.402 22.265,178.956 18.057,178.254 18.057,178.699 20.77,180.266 						"/>
						<polygon fill="#846F6A" points="22.265,178.956 19.547,177.386 18.057,178.254 20.77,179.813 						"/>
					</g>
					<g>
						<polygon fill="#413531" points="23.148,179.916 22.437,179.503 21.72,179.916 20.938,179.916 20.938,180.366 22.437,181.23 
							23.93,180.366 23.93,179.916 						"/>
						<polygon fill="#846F6A" points="22.437,179.051 20.938,179.916 22.437,180.776 23.93,179.916 						"/>
					</g>
					<g>
						<polygon fill="#413531" points="24.813,180.875 24.095,180.461 23.387,180.875 22.6,180.875 22.6,181.324 24.095,182.188 
							25.589,181.324 25.589,180.875 						"/>
						<polygon fill="#846F6A" points="24.095,180.01 22.6,180.875 24.095,181.737 25.589,180.875 						"/>
					</g>
					<g>
						<polygon fill="#413531" points="26.48,181.834 25.767,181.423 25.047,181.834 24.266,181.834 24.266,182.285 25.767,183.15 
							27.251,182.285 27.251,181.834 						"/>
						<polygon fill="#846F6A" points="25.767,180.975 24.266,181.834 25.767,182.701 27.251,181.834 						"/>
					</g>
					<g>
						<polygon fill="#413531" points="28.14,182.797 27.429,182.385 26.714,182.797 25.933,182.797 25.933,183.248 27.429,184.111 
							28.926,183.248 28.926,182.797 						"/>
						<polygon fill="#846F6A" points="27.429,181.934 25.933,182.797 27.429,183.666 28.926,182.797 						"/>
					</g>
					<g>
						<polygon fill="#413531" points="29.805,183.76 29.091,183.35 28.377,183.76 27.595,183.76 27.595,184.209 29.091,185.073 
							30.59,184.209 30.59,183.76 						"/>
						<polygon fill="#846F6A" points="29.091,182.896 27.595,183.76 29.091,184.623 30.59,183.76 						"/>
					</g>
					<g>
						<polygon fill="#413531" points="31.469,184.721 30.753,184.309 30.043,184.721 29.265,184.721 29.265,185.17 30.753,186.031 
							32.25,185.17 32.25,184.721 						"/>
						<polygon fill="#846F6A" points="30.753,183.857 29.265,184.721 30.753,185.58 32.25,184.721 						"/>
					</g>
					<g>
						<polygon fill="#413531" points="33.137,185.679 32.427,185.271 31.711,185.679 30.925,185.679 30.925,186.134 32.427,186.998 
							33.915,186.134 33.915,185.679 						"/>
						<polygon fill="#846F6A" points="32.427,184.816 30.925,185.679 32.427,186.547 33.915,185.679 						"/>
					</g>
					<g>
						<polygon fill="#413531" points="34.806,186.642 34.089,186.229 33.375,186.642 32.59,186.642 32.59,187.094 34.089,187.953 
							35.58,187.094 35.58,186.642 						"/>
						<polygon fill="#846F6A" points="34.089,185.781 32.59,186.642 34.089,187.505 35.58,186.642 						"/>
					</g>
					<g>
						<polygon fill="#413531" points="36.466,187.602 35.75,187.19 35.038,187.602 34.259,187.602 34.259,188.055 35.75,188.918 
							37.242,188.055 37.242,187.602 						"/>
						<polygon fill="#846F6A" points="35.75,186.74 34.259,187.602 35.75,188.467 37.242,187.602 						"/>
					</g>
					<g>
						<polygon fill="#413531" points="38.13,188.566 37.419,188.152 36.702,188.566 35.926,188.566 35.926,189.02 37.419,189.878 
							38.916,189.02 38.916,188.566 						"/>
						<polygon fill="#846F6A" points="37.419,187.702 35.926,188.566 37.419,189.432 38.916,188.566 						"/>
					</g>
					<g>
						<polygon fill="#413531" points="39.795,189.525 39.083,189.117 38.374,189.525 37.588,189.525 37.588,189.977 39.083,190.839 
							40.579,189.977 40.579,189.525 						"/>
						<polygon fill="#846F6A" points="39.083,188.664 37.588,189.525 39.083,190.394 40.579,189.525 						"/>
					</g>
					<g>
						<polygon fill="#413531" points="45.076,190.709 45.076,190.256 41.961,190.779 39.25,190.486 39.25,190.936 41.961,192.506 
													"/>
						<polygon fill="#846F6A" points="45.076,190.256 43.576,189.398 41.961,190.324 40.75,189.623 39.25,190.486 41.961,192.053 
													"/>
					</g>
					<g>
						<polygon fill="#413531" points="19.824,179.846 19.824,179.395 16.457,179.178 16.457,179.627 18.324,180.704 						"/>
						<polygon fill="#846F6A" points="19.824,179.395 17.952,178.313 16.457,179.178 18.324,180.26 						"/>
					</g>
					<g>
						<polygon fill="#413531" points="20.714,180.358 19.994,179.95 19.282,180.358 18.503,180.358 18.503,180.813 19.994,181.672 
							21.491,180.813 21.491,180.358 						"/>
						<polygon fill="#846F6A" points="19.994,179.498 18.503,180.358 19.994,181.224 21.491,180.358 						"/>
					</g>
					<g>
						<polygon fill="#413531" points="22.373,181.319 21.66,180.908 20.949,181.319 20.164,181.319 20.164,181.768 21.66,182.631 
							23.158,181.768 23.158,181.319 						"/>
						<polygon fill="#846F6A" points="21.66,180.459 20.164,181.319 21.66,182.184 23.158,181.319 						"/>
					</g>
					<g>
						<polygon fill="#413531" points="24.044,182.281 23.333,181.869 22.614,182.281 21.833,182.281 21.833,182.734 23.333,183.596 
							24.821,182.734 24.821,182.281 						"/>
						<polygon fill="#846F6A" points="23.333,181.418 21.833,182.281 23.333,183.15 24.821,182.281 						"/>
					</g>
					<g>
						<polygon fill="#413531" points="25.707,183.242 24.987,182.832 24.281,183.242 23.5,183.242 23.5,183.693 24.987,184.553 
							26.485,183.693 26.485,183.242 						"/>
						<polygon fill="#846F6A" points="24.987,182.381 23.5,183.242 24.987,184.105 26.485,183.242 						"/>
					</g>
					<g>
						<polygon fill="#413531" points="27.371,184.204 26.655,183.793 25.943,184.204 25.162,184.204 25.162,184.65 26.655,185.521 
							28.154,184.65 28.154,184.204 						"/>
						<polygon fill="#846F6A" points="26.655,183.338 25.162,184.204 26.655,185.066 28.154,184.204 						"/>
					</g>
					<g>
						<polygon fill="#413531" points="29.036,185.162 28.322,184.754 27.607,185.162 26.824,185.162 26.824,185.617 28.322,186.477 
							29.816,185.617 29.816,185.162 						"/>
						<polygon fill="#846F6A" points="28.322,184.305 26.824,185.162 28.322,186.027 29.816,185.162 						"/>
					</g>
					<g>
						<polygon fill="#413531" points="30.701,186.126 29.988,185.716 29.274,186.126 28.494,186.126 28.494,186.577 29.988,187.437 
							31.484,186.577 31.484,186.126 						"/>
						<polygon fill="#846F6A" points="29.988,185.261 28.494,186.126 29.988,186.986 31.484,186.126 						"/>
					</g>
					<g>
						<polygon fill="#413531" points="32.365,187.088 31.651,186.674 30.939,187.088 30.159,187.088 30.159,187.543 31.651,188.4 
							33.146,187.543 33.146,187.088 						"/>
						<polygon fill="#846F6A" points="31.651,186.221 30.159,187.088 31.651,187.953 33.146,187.088 						"/>
					</g>
					<g>
						<polygon fill="#413531" points="34.037,188.052 33.325,187.643 32.606,188.052 31.828,188.052 31.828,188.506 33.325,189.367 
							34.815,188.506 34.815,188.052 						"/>
						<polygon fill="#846F6A" points="33.325,187.187 31.828,188.052 33.325,188.915 34.815,188.052 						"/>
					</g>
					<g>
						<polygon fill="#413531" points="35.702,189.011 34.988,188.598 34.276,189.011 33.493,189.011 33.493,189.463 34.988,190.326 
							36.482,189.463 36.482,189.011 						"/>
						<polygon fill="#846F6A" points="34.988,188.148 33.493,189.011 34.988,189.875 36.482,189.011 						"/>
					</g>
					<g>
						<polygon fill="#413531" points="37.364,189.973 36.647,189.563 35.936,189.973 35.157,189.973 35.157,190.426 36.647,191.287 
							38.15,190.426 38.15,189.973 						"/>
						<polygon fill="#846F6A" points="36.647,189.109 35.157,189.973 36.647,190.836 38.15,189.973 						"/>
					</g>
					<g>
						<polygon fill="#413531" points="41.851,192.563 41.851,192.111 36.819,190.934 36.819,191.383 40.356,193.428 						"/>
						<polygon fill="#846F6A" points="41.851,192.111 38.312,190.07 36.819,190.934 40.356,192.976 						"/>
					</g>
					<g>
						<polygon fill="#413531" points="14.847,180.105 14.847,180.553 17.176,181.893 18.666,181.031 18.666,180.578 						"/>
						<polygon fill="#846F6A" points="16.342,179.239 14.847,180.105 17.176,181.443 18.666,180.578 						"/>
					</g>
					<g>
						<polygon fill="#413531" points="17.34,181.543 17.34,181.992 19.225,183.086 20.717,182.217 20.717,181.768 						"/>
						<polygon fill="#846F6A" points="18.835,180.68 17.34,181.543 19.225,182.631 20.717,181.768 						"/>
					</g>
					<g>
						<polygon fill="#413531" points="19.399,182.727 19.399,183.179 21.73,184.525 23.221,183.666 23.221,183.215 						"/>
						<polygon fill="#846F6A" points="20.892,181.859 19.399,182.727 21.73,184.076 23.221,183.215 						"/>
					</g>
					<g>
						<polygon fill="#413531" points="21.897,184.17 21.897,184.623 31.718,190.295 33.213,189.432 33.213,188.978 						"/>
						<polygon fill="#846F6A" points="23.397,183.311 21.897,184.17 31.718,189.84 33.213,188.978 						"/>
					</g>
					<g>
						<polygon fill="#413531" points="31.89,189.941 31.89,190.394 34.063,191.646 35.553,190.786 35.553,190.328 						"/>
						<polygon fill="#846F6A" points="33.382,189.075 31.89,189.941 34.063,191.195 35.553,190.328 						"/>
					</g>
					<g>
						<polygon fill="#413531" points="34.242,191.297 34.242,191.748 36.155,192.854 37.65,191.988 37.65,191.539 						"/>
						<polygon fill="#846F6A" points="35.735,190.439 34.242,191.297 36.155,192.402 37.65,191.539 						"/>
					</g>
					<g>
						<polygon fill="#413531" points="36.31,192.498 36.31,192.947 38.751,194.357 40.247,193.496 40.247,193.041 						"/>
						<polygon fill="#846F6A" points="37.801,191.635 36.31,192.498 38.751,193.903 40.247,193.041 						"/>
					</g>
				</g>
				<g>
					<g>
						<polygon fill="#413531" points="49.393,189.469 48.684,189.061 47.973,189.469 47.187,189.469 47.187,189.918 48.684,190.783 
							50.182,189.918 50.182,189.469 						"/>
						<polygon fill="#846F6A" points="48.684,188.605 47.187,189.469 48.684,190.328 50.182,189.469 						"/>
					</g>
					<g>
						<polygon fill="#413531" points="47.801,190.389 47.088,189.977 46.377,190.389 45.599,190.389 45.599,190.839 47.088,191.703 
							48.584,190.839 48.584,190.389 						"/>
						<polygon fill="#846F6A" points="47.088,189.525 45.599,190.389 47.088,191.257 48.584,190.389 						"/>
					</g>
					<g>
						<polygon fill="#413531" points="46.165,191.338 45.45,190.925 44.736,191.338 43.955,191.338 43.955,191.789 45.45,192.654 
							46.941,191.789 46.941,191.338 						"/>
						<polygon fill="#846F6A" points="45.45,190.473 43.955,191.338 45.45,192.201 46.941,191.338 						"/>
					</g>
					<g>
						<polygon fill="#413531" points="51.058,190.431 50.349,190.016 49.637,190.431 48.852,190.431 48.852,190.879 50.349,191.743 
							51.846,190.879 51.846,190.431 						"/>
						<polygon fill="#846F6A" points="50.349,189.568 48.852,190.431 50.349,191.293 51.846,190.431 						"/>
					</g>
					<g>
						<polygon fill="#413531" points="49.468,191.346 48.753,190.936 48.044,191.346 47.26,191.346 47.26,191.801 48.753,192.664 
							50.249,191.801 50.249,191.346 						"/>
						<polygon fill="#846F6A" points="48.753,190.486 47.26,191.346 48.753,192.212 50.249,191.346 						"/>
					</g>
					<g>
						<polygon fill="#413531" points="47.827,192.295 47.115,191.889 46.403,192.295 45.62,192.295 45.62,192.75 47.115,193.615 
							48.61,192.75 48.61,192.295 						"/>
						<polygon fill="#846F6A" points="47.115,191.436 45.62,192.295 47.115,193.162 48.61,192.295 						"/>
					</g>
					<g>
						<polygon fill="#413531" points="52.728,191.389 52.019,190.98 51.302,191.389 50.521,191.389 50.521,191.844 52.019,192.703 
							53.508,191.844 53.508,191.389 						"/>
						<polygon fill="#846F6A" points="52.019,190.529 50.521,191.389 52.019,192.256 53.508,191.389 						"/>
					</g>
					<g>
						<polygon fill="#413531" points="51.132,192.312 50.423,191.906 49.702,192.312 48.92,192.312 48.92,192.76 50.423,193.625 
							51.916,192.76 51.916,192.312 						"/>
						<polygon fill="#846F6A" points="50.423,191.447 48.92,192.312 50.423,193.17 51.916,192.312 						"/>
					</g>
					<g>
						<polygon fill="#413531" points="49.494,193.261 48.78,192.846 48.068,193.261 47.287,193.261 47.287,193.709 48.78,194.577 
							50.274,193.709 50.274,193.261 						"/>
						<polygon fill="#846F6A" points="48.78,192.396 47.287,193.261 48.78,194.121 50.274,193.261 						"/>
					</g>
				</g>
				<g>
					<g>
						<polygon fill="#413531" points="41.342,194.121 40.624,193.709 39.912,194.121 39.126,194.121 39.126,194.577 40.624,195.436 
							42.122,194.577 42.122,194.121 						"/>
						<polygon fill="#846F6A" points="40.624,193.258 39.126,194.121 40.624,194.987 42.122,194.121 						"/>
					</g>
					<g>
						<polygon fill="#413531" points="44.605,194.16 43.888,193.746 43.187,194.16 42.408,194.16 42.408,194.606 43.888,195.471 
							45.386,194.606 45.386,194.16 						"/>
						<polygon fill="#846F6A" points="43.888,193.295 42.408,194.16 43.888,195.018 45.386,194.16 						"/>
					</g>
					<g>
						<polygon fill="#413531" points="43.005,195.084 42.288,194.67 41.577,195.084 40.793,195.084 40.793,195.535 42.288,196.395 
							43.784,195.535 43.784,195.084 						"/>
						<polygon fill="#846F6A" points="42.288,194.217 40.793,195.084 42.288,195.947 43.784,195.084 						"/>
					</g>
					<g>
						<polygon fill="#413531" points="44.667,196.046 43.955,195.632 43.242,196.046 42.46,196.046 42.46,196.494 43.955,197.363 
							45.45,196.494 45.45,196.046 						"/>
						<polygon fill="#846F6A" points="43.955,195.182 42.46,196.046 43.955,196.906 45.45,196.046 						"/>
					</g>
				</g>
				<g>
					<g>
						<polygon fill="#413531" points="54.682,192.514 53.964,192.109 53.253,192.514 52.47,192.514 52.47,192.967 53.964,193.832 
							55.459,192.967 55.459,192.514 						"/>
						<polygon fill="#846F6A" points="53.964,191.656 52.47,192.514 53.964,193.38 55.459,192.514 						"/>
					</g>
					<g>
						<polygon fill="#413531" points="53.088,193.441 52.375,193.026 51.66,193.441 50.879,193.441 50.879,193.89 52.375,194.757 
							53.862,193.89 53.862,193.441 						"/>
						<polygon fill="#846F6A" points="52.375,192.579 50.879,193.441 52.375,194.306 53.862,193.441 						"/>
					</g>
					<g>
						<polygon fill="#413531" points="51.443,194.388 50.734,193.974 50.015,194.388 49.243,194.388 49.243,194.837 50.734,195.7 
							52.226,194.837 52.226,194.388 						"/>
						<polygon fill="#846F6A" points="50.734,193.525 49.243,194.388 50.734,195.245 52.226,194.388 						"/>
					</g>
					<g>
						<polygon fill="#413531" points="49.804,195.334 49.095,194.923 48.381,195.334 47.598,195.334 47.598,195.784 49.095,196.645 
							50.583,195.784 50.583,195.334 						"/>
						<polygon fill="#846F6A" points="49.095,194.472 47.598,195.334 49.095,196.202 50.583,195.334 						"/>
					</g>
					<g>
						<polygon fill="#413531" points="48.192,196.262 47.48,195.854 46.764,196.262 45.988,196.262 45.988,196.72 47.48,197.578 
							48.976,196.72 48.976,196.262 						"/>
						<polygon fill="#846F6A" points="47.48,195.4 45.988,196.262 47.48,197.127 48.976,196.262 						"/>
					</g>
					<g>
						<polygon fill="#413531" points="56.343,193.477 55.629,193.069 54.908,193.477 54.129,193.477 54.129,193.931 55.629,194.791 
							57.124,193.931 57.124,193.477 						"/>
						<polygon fill="#846F6A" points="55.629,192.611 54.129,193.477 55.629,194.34 57.124,193.477 						"/>
					</g>
					<g>
						<polygon fill="#413531" points="54.748,194.4 54.036,193.988 53.318,194.4 52.539,194.4 52.539,194.85 54.036,195.711 
							55.527,194.85 55.527,194.4 						"/>
						<polygon fill="#846F6A" points="54.036,193.537 52.539,194.4 54.036,195.266 55.527,194.4 						"/>
					</g>
					<g>
						<polygon fill="#413531" points="53.109,195.352 52.391,194.936 51.679,195.352 50.9,195.352 50.9,195.799 52.391,196.663 
							53.893,195.799 53.893,195.352 						"/>
						<polygon fill="#846F6A" points="52.391,194.48 50.9,195.352 52.391,196.211 53.893,195.352 						"/>
					</g>
					<g>
						<polygon fill="#413531" points="51.467,196.296 50.752,195.884 50.036,196.296 49.26,196.296 49.26,196.746 50.752,197.608 
							52.25,196.746 52.25,196.296 						"/>
						<polygon fill="#846F6A" points="50.752,195.434 49.26,196.296 50.752,197.157 52.25,196.296 						"/>
					</g>
					<g>
						<polygon fill="#413531" points="49.859,197.223 49.147,196.813 48.421,197.223 47.647,197.223 47.647,197.676 49.147,198.533 
							50.635,197.676 50.635,197.223 						"/>
						<polygon fill="#846F6A" points="49.147,196.359 47.647,197.223 49.147,198.086 50.635,197.223 						"/>
					</g>
					<g>
						<polygon fill="#413531" points="47.851,197.881 45.904,196.76 44.984,197.289 44.409,197.167 44.409,197.621 47.576,199.447 
							49.066,198.584 49.066,198.128 						"/>
						<polygon fill="#846F6A" points="45.904,196.309 44.409,197.167 47.576,198.991 49.066,198.128 						"/>
					</g>
					<g>
						<polygon fill="#413531" points="58.01,194.438 57.294,194.027 56.58,194.438 55.804,194.438 55.804,194.893 57.294,195.754 
							58.792,194.893 58.792,194.438 						"/>
						<polygon fill="#846F6A" points="57.294,193.576 55.804,194.438 57.294,195.303 58.792,194.438 						"/>
					</g>
					<g>
						<polygon fill="#413531" points="56.413,195.364 55.706,194.952 54.985,195.364 54.208,195.364 54.208,195.814 55.706,196.674 
							57.196,195.814 57.196,195.364 						"/>
						<polygon fill="#846F6A" points="55.706,194.498 54.208,195.364 55.706,196.225 57.196,195.364 						"/>
					</g>
					<g>
						<polygon fill="#413531" points="54.779,196.309 54.06,195.895 53.349,196.309 52.563,196.309 52.563,196.76 54.06,197.621 
							55.558,196.76 55.558,196.309 						"/>
						<polygon fill="#846F6A" points="54.06,195.447 52.563,196.309 54.06,197.167 55.558,196.309 						"/>
					</g>
					<g>
						<polygon fill="#413531" points="53.126,197.256 52.419,196.844 51.703,197.256 50.922,197.256 50.922,197.711 52.419,198.571 
							53.91,197.711 53.91,197.256 						"/>
						<polygon fill="#846F6A" points="52.419,196.393 50.922,197.256 52.419,198.119 53.91,197.256 						"/>
					</g>
					<g>
						<polygon fill="#413531" points="51.524,198.184 50.812,197.777 50.096,198.184 49.313,198.184 49.313,198.637 50.812,199.498 
							52.3,198.637 52.3,198.184 						"/>
						<polygon fill="#846F6A" points="50.812,197.32 49.313,198.184 50.812,199.045 52.3,198.184 						"/>
					</g>
					<g>
						<polygon fill="#413531" points="49.948,199.088 49.243,198.678 48.524,199.088 47.743,199.088 47.743,199.545 49.243,200.404 
							50.734,199.545 50.734,199.088 						"/>
						<polygon fill="#846F6A" points="49.243,198.23 47.743,199.088 49.243,199.959 50.734,199.088 						"/>
					</g>
					<polygon fill="#413531" points="53.384,199.263 52.477,198.734 50.604,199.816 49.405,200.057 49.405,200.501 50.905,201.367 
						53.964,199.598 53.964,199.143 					"/>
					<g>
						<polygon fill="#413531" points="59.67,195.4 58.958,194.988 58.245,195.4 57.458,195.4 57.458,195.855 58.958,196.72 
							60.454,195.855 60.454,195.4 						"/>
						<polygon fill="#846F6A" points="58.958,194.537 57.458,195.4 58.958,196.267 60.454,195.4 						"/>
					</g>
					<g>
						<polygon fill="#413531" points="58.08,196.32 57.363,195.907 56.652,196.32 55.866,196.32 55.866,196.773 57.363,197.631 
							58.86,196.773 58.86,196.32 						"/>
						<polygon fill="#846F6A" points="57.363,195.455 55.866,196.32 57.363,197.188 58.86,196.32 						"/>
					</g>
					<g>
						<polygon fill="#413531" points="56.432,197.268 55.72,196.859 55.011,197.268 54.228,197.268 54.228,197.723 55.72,198.584 
							57.213,197.723 57.213,197.268 						"/>
						<polygon fill="#846F6A" points="55.72,196.408 54.228,197.268 55.72,198.128 57.213,197.268 						"/>
					</g>
					<g>
						<polygon fill="#413531" points="54.799,198.219 54.08,197.806 53.367,198.219 52.589,198.219 52.589,198.666 54.08,199.532 
							55.572,198.666 55.572,198.219 						"/>
						<polygon fill="#846F6A" points="54.08,197.352 52.589,198.219 54.08,199.078 55.572,198.219 						"/>
					</g>
					<polygon fill="#846F6A" points="49.405,200.057 50.905,200.916 53.964,199.143 52.477,198.285 					"/>
				</g>
			</g>
		</g>
		<g>
			<polygon opacity="0.3" fill="#010101" points="64.939,206.271 60.404,203.653 69.016,198.678 73.551,201.301 			"/>
			<polygon fill="#695851" points="67.595,198.832 68.741,199.698 71.361,198.914 70.332,198.199 			"/>
			<polygon fill="#F8F2E8" points="71.647,198.734 69.016,197.219 66.097,197.811 67.996,198.914 69.912,198.525 71.191,199.265 			
				"/>
			<g>
				<polygon fill="#695851" points="66.599,197.64 66.548,197.832 68.17,198.775 68.76,198.34 				"/>
				<polygon fill="#846F6A" points="66.599,197.64 68.221,198.573 69.078,198.497 70.573,198.1 68.954,197.167 				"/>
				<polygon fill="#413531" points="68.221,198.573 68.17,198.775 70.518,198.297 70.573,198.1 				"/>
			</g>
			<g>
				<polygon fill="#992220" points="68.65,199.741 69.188,198.811 69.957,198.365 70.496,198.678 70.496,199.563 69.957,200.496 
					69.188,200.937 68.65,200.629 				"/>
				<polygon fill="#F15E54" points="69.188,198.811 69.957,198.365 69.498,198.1 68.741,198.549 69.09,198.82 				"/>
				<polygon fill="#C84130" points="68.65,199.741 69.188,198.811 68.741,198.549 68.197,199.482 68.552,199.783 				"/>
				<polygon fill="#BF2926" points="68.65,200.629 68.65,199.741 68.197,199.482 68.197,200.363 				"/>
			</g>
			<polygon fill="#F8F2E8" points="71.647,198.734 68.724,199.33 70.635,200.434 73.551,199.842 			"/>
			<polygon fill="#D1D2D2" points="73.551,199.842 70.635,200.434 65.892,203.17 64.939,204.813 64.939,206 65.892,205.725 
				73.551,201.301 			"/>
			<g>
				<polygon fill="#695851" points="69.207,199.143 69.154,199.336 70.771,200.275 71.361,199.842 				"/>
				<polygon fill="#846F6A" points="69.207,199.143 70.826,200.078 71.684,200.01 73.178,199.605 71.557,198.672 				"/>
				<polygon fill="#413531" points="70.826,200.078 70.771,200.275 73.126,199.797 73.178,199.605 				"/>
			</g>
			<polygon fill="#F8F2E8" points="64.939,204.813 60.404,202.189 61.349,200.549 65.892,203.17 			"/>
			<polygon fill="#FFFFFF" points="65.892,203.17 61.349,200.549 66.097,197.811 70.635,200.434 			"/>
			<polygon fill="#E6E1DD" points="64.939,206 60.404,203.377 60.404,202.189 64.939,204.813 			"/>
			<polygon fill="#D9D2C8" points="65.617,201.778 65.617,201.557 64.17,200.721 63.797,200.721 63.525,200.879 63.525,201.098 
				64.97,201.934 65.359,201.934 			"/>
		</g>
	</g>
	<g>
		<g>
			<path fill="#FFFFFF" d="M184.289,133.751c-0.323,0-0.588-0.263-0.588-0.591v-2.944c0-0.329,0.265-0.591,0.588-0.591
				c0.327,0,0.59,0.262,0.59,0.591v2.944C184.879,133.488,184.616,133.751,184.289,133.751z"/>
			<path fill="#FFFFFF" d="M184.289,124.638c-0.323,0-0.588-0.265-0.588-0.589v-6.166c0-0.328,0.265-0.589,0.588-0.589
				c0.327,0,0.59,0.261,0.59,0.589v6.166C184.879,124.373,184.616,124.638,184.289,124.638z M184.289,112.306
				c-0.323,0-0.588-0.262-0.588-0.59v-6.165c0-0.327,0.265-0.588,0.588-0.588c0.327,0,0.59,0.262,0.59,0.588v6.165
				C184.879,112.044,184.616,112.306,184.289,112.306z M184.289,99.977c-0.323,0-0.588-0.266-0.588-0.59V93.22
				c0-0.325,0.265-0.59,0.588-0.59c0.327,0,0.59,0.265,0.59,0.59v6.167C184.879,99.711,184.616,99.977,184.289,99.977z
				 M183.558,87.839c-0.203,0-0.403-0.104-0.514-0.292l-3.081-5.341c-0.162-0.281-0.066-0.641,0.215-0.804
				c0.285-0.163,0.643-0.067,0.805,0.214l3.084,5.341c0.162,0.28,0.064,0.641-0.217,0.805
				C183.756,87.814,183.655,87.839,183.558,87.839z M177.392,77.162c-0.206,0-0.401-0.106-0.511-0.295l-3.082-5.339
				c-0.167-0.28-0.068-0.644,0.213-0.805c0.282-0.161,0.645-0.066,0.807,0.215l3.079,5.339c0.165,0.283,0.069,0.644-0.213,0.806
				C177.592,77.136,177.489,77.162,177.392,77.162z M171.225,66.483c-0.203,0-0.404-0.105-0.511-0.294l-3.083-5.341
				c-0.162-0.282-0.065-0.64,0.217-0.806c0.282-0.162,0.64-0.066,0.805,0.217l3.081,5.339c0.163,0.283,0.064,0.643-0.216,0.802
				C171.426,66.458,171.324,66.483,171.225,66.483z M165.059,55.802c-0.203,0-0.402-0.104-0.512-0.294l-1.717-2.973l-2.093-1.208
				c-0.281-0.164-0.376-0.523-0.212-0.806c0.162-0.28,0.521-0.377,0.802-0.214l2.367,1.366l1.872,3.249
				c0.162,0.28,0.066,0.642-0.215,0.802C165.256,55.779,165.156,55.802,165.059,55.802z M155.693,48.323
				c-0.1,0-0.2-0.026-0.296-0.081l-5.338-3.081c-0.282-0.162-0.377-0.523-0.215-0.806c0.16-0.281,0.522-0.376,0.804-0.215
				l5.339,3.084c0.282,0.164,0.38,0.52,0.218,0.805C156.096,48.219,155.895,48.323,155.693,48.323z M145.016,42.156
				c-0.101,0-0.203-0.025-0.297-0.079l-5.337-3.083c-0.284-0.162-0.38-0.523-0.22-0.806c0.164-0.281,0.527-0.376,0.81-0.214
				l5.337,3.083c0.281,0.162,0.378,0.521,0.216,0.805C145.414,42.051,145.216,42.156,145.016,42.156z"/>
			<path fill="#FFFFFF" d="M134.335,35.991c-0.098,0-0.198-0.026-0.296-0.08l-2.546-1.473c-0.286-0.162-0.382-0.523-0.22-0.804
				c0.164-0.283,0.527-0.377,0.811-0.216l2.545,1.475c0.284,0.161,0.38,0.52,0.22,0.804
				C134.736,35.885,134.537,35.991,134.335,35.991z"/>
		</g>
		<path fill="#FFFFFF" d="M129.25,37.295h-4.816l-3.41-3.408v-4.818l3.41-3.41h4.816l3.408,3.41v4.818L129.25,37.295z
			 M124.918,36.116h3.846l2.718-2.716v-3.845l-2.718-2.717h-3.846l-2.715,2.717V33.4L124.918,36.116z"/>
		<path fill="#FFFFFF" d="M186.699,144.211h-4.82l-3.41-3.408v-4.822l3.41-3.407h4.82l3.407,3.407v4.822L186.699,144.211z
			 M182.366,143.031h3.843l2.72-2.718v-3.845l-2.72-2.718h-3.843l-2.718,2.718v3.845L182.366,143.031z"/>
	</g>
	<g>
		<g>
			<path fill="#FFFFFF" d="M91.778,196.857h-2.947c-0.322,0-0.59-0.262-0.59-0.589c0-0.325,0.268-0.589,0.59-0.589h2.947
				c0.327,0,0.588,0.264,0.588,0.589C92.366,196.596,92.105,196.857,91.778,196.857z"/>
			<path fill="#FFFFFF" d="M115.363,196.857h-5.896c-0.325,0-0.588-0.262-0.588-0.589c0-0.325,0.263-0.589,0.588-0.589h5.896
				c0.326,0,0.59,0.264,0.59,0.589C115.953,196.596,115.689,196.857,115.363,196.857z M103.569,196.857h-5.896
				c-0.325,0-0.588-0.262-0.588-0.589c0-0.325,0.263-0.589,0.588-0.589h5.896c0.327,0,0.59,0.264,0.59,0.589
				C104.159,196.596,103.896,196.857,103.569,196.857z"/>
			<path fill="#FFFFFF" d="M124.205,196.857h-2.945c-0.325,0-0.591-0.262-0.591-0.589c0-0.325,0.266-0.589,0.591-0.589h2.945
				c0.326,0,0.589,0.264,0.589,0.589C124.794,196.596,124.531,196.857,124.205,196.857z"/>
		</g>
		<path fill="#FFFFFF" d="M131.844,202.262h-4.821l-3.405-3.41v-4.819l3.405-3.409h4.821l3.408,3.409v4.819L131.844,202.262z
			 M127.51,201.082h3.848l2.715-2.719v-3.843l-2.715-2.72h-3.848l-2.716,2.72v3.843L127.51,201.082z"/>
		<path fill="#FFFFFF" d="M86.015,202.262h-4.822l-3.406-3.41v-4.819l3.406-3.409h4.822l3.406,3.409v4.819L86.015,202.262z
			 M81.681,201.082h3.844l2.716-2.719v-3.843l-2.716-2.72h-3.844l-2.718,2.72v3.843L81.681,201.082z"/>
	</g>
	<g>
		<g>
			<path fill="#FFFFFF" d="M74.265,36.375c-0.198,0-0.401-0.106-0.509-0.296c-0.165-0.281-0.069-0.641,0.215-0.805l2.55-1.472
				c0.285-0.161,0.646-0.068,0.805,0.215c0.165,0.283,0.069,0.643-0.215,0.803l-2.55,1.474
				C74.468,36.351,74.363,36.375,74.265,36.375z"/>
			<path fill="#FFFFFF" d="M24.98,98.743c-0.325,0-0.587-0.265-0.587-0.588v-6.022c0-0.328,0.263-0.59,0.587-0.59
				c0.327,0,0.59,0.262,0.59,0.59v6.022C25.57,98.478,25.308,98.743,24.98,98.743z M26.189,87.021c-0.103,0-0.203-0.025-0.296-0.082
				c-0.282-0.16-0.38-0.522-0.218-0.803l3.014-5.215c0.162-0.283,0.523-0.376,0.805-0.216c0.279,0.162,0.377,0.523,0.212,0.806
				l-3.01,5.215C26.59,86.915,26.387,87.021,26.189,87.021z M32.209,76.59c-0.1,0-0.2-0.026-0.293-0.078
				c-0.287-0.166-0.382-0.523-0.215-0.806l3.012-5.216c0.16-0.282,0.521-0.379,0.802-0.215c0.281,0.163,0.38,0.522,0.217,0.802
				l-3.014,5.219C32.611,76.484,32.415,76.59,32.209,76.59z M38.233,66.16c-0.101,0-0.203-0.026-0.293-0.08
				c-0.282-0.163-0.38-0.522-0.215-0.805l3.011-5.215c0.16-0.28,0.523-0.377,0.803-0.215c0.284,0.162,0.38,0.523,0.215,0.804
				l-3.012,5.214C38.634,66.052,38.436,66.16,38.233,66.16z M44.253,55.728c-0.098,0-0.2-0.025-0.293-0.08
				c-0.279-0.163-0.377-0.519-0.215-0.805l1.83-3.17l2.319-1.337c0.282-0.164,0.645-0.064,0.805,0.216
				c0.162,0.28,0.067,0.644-0.216,0.803l-2.043,1.18l-1.674,2.898C44.66,55.623,44.457,55.728,44.253,55.728z M53.406,48.422
				c-0.205,0-0.404-0.105-0.511-0.294c-0.165-0.283-0.066-0.644,0.215-0.806l5.216-3.01c0.282-0.165,0.645-0.068,0.805,0.213
				c0.163,0.286,0.067,0.642-0.215,0.805l-5.218,3.012C53.606,48.396,53.506,48.422,53.406,48.422z M63.833,42.399
				c-0.2,0-0.403-0.107-0.508-0.295c-0.163-0.283-0.067-0.641,0.215-0.806l5.216-3.01c0.284-0.163,0.642-0.066,0.802,0.215
				c0.164,0.282,0.069,0.641-0.213,0.805l-5.216,3.01C64.036,42.374,63.936,42.399,63.833,42.399z"/>
			<path fill="#FFFFFF" d="M24.98,107.71c-0.325,0-0.587-0.261-0.587-0.589v-2.946c0-0.324,0.263-0.589,0.587-0.589
				c0.327,0,0.59,0.265,0.59,0.589v2.946C25.57,107.449,25.308,107.71,24.98,107.71z"/>
		</g>
		<path fill="#FFFFFF" d="M27.392,118.17H22.57l-3.41-3.408v-4.819l3.41-3.412h4.822l3.407,3.412v4.819L27.392,118.17z
			 M23.058,116.99h3.845l2.718-2.717v-3.842l-2.718-2.721h-3.845l-2.718,2.721v3.842L23.058,116.99z"/>
		<path fill="#FFFFFF" d="M83.787,37.295h-4.822l-3.406-3.408v-4.818l3.406-3.41h4.822l3.408,3.41v4.818L83.787,37.295z
			 M79.455,36.116h3.843l2.72-2.716v-3.845l-2.72-2.717h-3.843l-2.721,2.717V33.4L79.455,36.116z"/>
	</g>
</g>
</svg>
