<svg width="350" height="350" xmlns="http://www.w3.org/2000/svg" xmlns:xlink="http://www.w3.org/1999/xlink">
 <g>
  <title>background</title>
 
 </g>
 <style>#drone {
    animation: jj 10s ease-in-out infinite;
    animation-direction: normal;

    transform-origin: 50% 50%;
    transform-box: fill-box;
}


@keyframes jj {
  0%{transform:translateX(0px) rotateZ(0deg) ;}
   5%{transform:translateX(0px) rotateZ(0deg) ;}
   10%{transform: rotateZ(15deg) ;}
   20%{transform:translateX(120px) rotateZ(15deg) ;}
    25%{transform:translateX(120px) rotateZ(0deg) ;}
	60%{transform:translateX(120px) rotateZ(0deg) ;}
	65%{transform: translateX(120px) rotateZ(-15deg) ;}
	90%{transform:translateX(0px) rotateZ(-15deg) ;}
	 95%{transform:translateX(0px) rotateZ(0deg) ;}
}
#gift {
    animation: gf 10s ease-in-out infinite;
    animation-direction: normal;

    transform-origin: top;
    transform-box: fill-box;
}


@keyframes gf {
  0%{transform: rotateZ(0deg) ;}
   5%{transform: rotateZ(0deg) ;}
   10%{transform: rotateZ(0deg) ;}
   20%{transform: rotateZ(10deg) ;}
   22%{transform: rotateZ(-10deg) ;}
   24%{transform: rotateZ(10deg) ;}

    25%{transform: rotateZ(0deg) ;}
	60%{transform:rotateZ(0deg) ;}
	65%{transform:  rotateZ(0deg) ;}
	90%{transform: rotateZ(-10deg) ;}
	92%{transform: rotateZ(10deg) ;}
   94%{transform: rotateZ(-10deg) ;}
   96%{transform: rotateZ(10deg) ;}
}
#mhead {
    animation: mh 6s ease-in-out infinite;
    animation-direction: normal;

    transform-origin: bottom;
    transform-box: fill-box;
}


@keyframes mh {
  0%{transform: rotateZ(0deg) ;}
   20%{transform: rotateZ(0deg) ;}
   25%{transform: rotateZ(25deg) ;}
   75%{transform: rotateZ(25deg) ;}

80%{transform: rotateZ(0deg) ;}
}

#marm {
    animation: ma 6s ease-in-out infinite;
    animation-direction: normal;

    transform-origin: 90% 10%;
    transform-box: fill-box;
}


@keyframes ma {
  0%{transform: rotateZ(0deg) ;}
   20%{transform: rotateZ(0deg) ;}
   25%{transform: rotateZ(20deg) ;}
   75%{transform: rotateZ(20deg) ;}

80%{transform: rotateZ(0deg) ;}
}
#wing1 {
    animation: ww1 .09s linear infinite;
   
	

    transform-origin: center;
    transform-box: fill-box;
}


@keyframes ww1 {
  0%{transform: rotateY(0deg) ;}
   

100%{transform: rotateY(360deg) ;}
}
#wing2 {
    animation: w2 .09s linear infinite;

	

    transform-origin: center;
    transform-box: fill-box;
}


@keyframes w2 {
  0%{transform: rotateY(0deg) ;}
   

100%{transform: rotateY(360deg) ;}
}

#wing3 {
    animation: w3 .09s linear infinite;

	

    transform-origin: center;
    transform-box: fill-box;
}


@keyframes w3 {
  0%{transform: rotateY(0deg) ;}
   

100%{transform: rotateY(360deg) ;}
}
#wing4 {
    animation: w4 .09s linear infinite;

	

    transform-origin: center;
    transform-box: fill-box;
}


@keyframes w4 {
  0%{transform: rotateY(0deg) ;}
   

100%{transform: rotateY(360deg) ;}
}

#truck1, #truck2{
    animation: map1 10s  linear infinite;
   animation-direction: inherit;
  }
  @keyframes map1 {
    0%{ transform: translate(0px, 0px)}
   
    20%{ transform: translate(200px, -115px)}
	60%{ transform: translate(200px, -115px)}
	80%{ transform: translate(0px, 0px)}


  } 

  #watch{
    animation: w1 5s  linear infinite;
   animation-direction: alternate;
    transform-origin: center;
    transform-box: fill-box;
  }
  @keyframes w1 {
    0%{ transform: translate(0px, -7px)}
   
	100%{ transform: translate(0px, 7px)}


  }
    #map{
    animation: map 5s  linear infinite;
   animation-direction: alternate;
    transform-origin: center;
    transform-box: fill-box;
  }
  @keyframes map {
    0%{ transform: translate(0px, -14px) rotateY(0deg);}
   
	100%{ transform: translate(0px, 0px) rotateY(360deg);}


  }

    #search {
    animation: w1 2s  linear infinite;
   animation-direction: alternate;
    transform-origin: center;
    transform-box: fill-box;
  }
  @keyframes w1 {
    0%{ transform: translate(0px, -10px)}
   
	100%{ transform: translate(0px, 10px)}


  }

  #blank{ 
    animation: ma1 5s  linear infinite;
   animation-direction: inherit;
  }
  @keyframes ma1 {
    0%{ transform: translate(0px, 0px)}
   
    100%{ transform: translate(180px, -110px)}
	

  }
  #two  {
    animation-name: white;
    animation-duration: 5s;
	animation-iteration-count: infinite;
    
    transform-origin: center;
    transform-box: fill-box;
}
@keyframes white {
    0%   { transform: scale(1); }
    10%   { transform: scale(1.2); }
    
    20% { transform: scale(01); }
}
 #four  {
    animation-name: fr;
    animation-duration: 5s;
	animation-iteration-count: infinite;
    
    transform-origin: center;
    transform-box: fill-box;
}
@keyframes fr {
    0%   { transform: scale(1); }
	 20%   { transform: scale(1); }
    30%   { transform: scale(1.2); }
    
    40% { transform: scale(1); }
}
#seven  {
    animation-name: se;
    animation-duration: 5s;
	animation-iteration-count: infinite;
    
    transform-origin: center;
    transform-box: fill-box;
}
@keyframes se {
    0%   { transform: scale(1); }
	 40%   { transform: scale(1); }
    50%   { transform: scale(1.2); }
    
    60% { transform: scale(1); }
}
 #box1{ 
    animation: bb1 10s  linear infinite;
   animation-direction: inherit;
  }
  @keyframes bb1 {
   0%{ transform: translate(0px, 0px)}
   
  30%{ transform: translate(380px, -140px)}
	60%{ transform: translate(380px, -140px)}
	95%{ transform: translate(0px, 0px)}

}
 #box2{ 
    animation: b2 10s  linear infinite;
   animation-direction: inherit;
  }
  @keyframes b2 {
   0%{ transform: translate(0px, 0px)}
   
    20%{ transform: translate(380px, 140px)}
	60%{ transform: translate(380px, 140px)}
	80%{ transform: translate(0px, 0px)}

}

 #box3{ 
    animation: b3 10s  linear infinite;
   animation-direction: inherit;
  }
  @keyframes b3 {
   0%{ transform: translate(0px, 0px)}
   
    25%{ transform: translate(380px, 140px)}
	65%{ transform: translate(380px, 140px)}
	85%{ transform: translate(0px, 0px)}

}
 #box4{ 
    animation: b4 10s  linear infinite;
   animation-direction: inherit;
  }
  @keyframes b4 {
   0%{ transform: translate(0px, 0px)}
   
    30%{ transform: translate(380px, 140px)}
	68%{ transform: translate(380px, 140px)}
	93%{ transform: translate(0px, 0px)}

}

#dit1{
    animation: dt1 3s infinite linear;
}
@keyframes dt1 {
    0% {
        opacity: 0;
    }
    10% {
        opacity: 1;
    }
}
#dot2 {
    animation: dt2 3s infinite linear;
}
@keyframes dt2 {
    0% {
        opacity: 0;
    }
    10% {
        opacity: 0;
    }
    20% {
        opacity: 1;
    }
}
#dot3 {
    animation: dt3 3s infinite linear;
}

@keyframes dt3 {
    0% {
        opacity: 0;
    }
    20% {
        opacity: 0;
    }
    30% {
        opacity: 1;
    }
}
#dot4 {
    animation: dt4 3s infinite linear;
}

@keyframes dt4 {
    0% {
        opacity: 0;
    }
    30% {
        opacity: 0;
    }
    40% {
        opacity: 1;
    }
}
#dot5 {
    animation: dt5 3s infinite linear;
}

@keyframes dt5 {
    0% {
        opacity: 0;
    }
    40% {
        opacity: 0;
    }
    50% {
        opacity: 1;
    }
}
#arrow1{
    animation: ar1 4s infinite linear;
}
@keyframes ar1 {
    0% {
        opacity: 0;
    }
    10% {
        opacity: 1;
    }
}
#arrow2 {
    animation: ar2 4s infinite linear;
}
@keyframes ar2 {
    0% {
        opacity: 0;
    }
    10% {
        opacity: 0;
    }
    20% {
        opacity: 1;
    }
}
#arrow3 {
    animation: ar3 4s infinite linear;
}

@keyframes ar3 {
    0% {
        opacity: 0;
    }
    20% {
        opacity: 0;
    }
    30% {
        opacity: 1;
    }
}
#arrow4 {
    animation: ar4 4s infinite linear;
}

@keyframes ar4 {
    0% {
        opacity: 0;
    }
    30% {
        opacity: 0;
    }
    40% {
        opacity: 1;
    }
}
#arrow5 {
    animation: ar5 4s infinite linear;
}

@keyframes ar5 {
    0% {
        opacity: 0;
    }
    40% {
        opacity: 0;
    }
    50% {
        opacity: 1;
    }
}
#arrow6 {
    animation: ar6 4s infinite linear;
}

@keyframes ar6 {
    0% {
        opacity: 0;
    }
    40% {
        opacity: 0;
    }
    50% {
        opacity: 1;
    }
}</style>
 <defs>
  <clipPath id="clip-path">
   <rect fill="none" height="27.6" width="15.67" y="93.46" x="325.66" id="blank"/>
  </clipPath>
  <clipPath id="clip-path-2">
   <path id="svg_1" fill="none" d="m134.22966,29.02511q1.44,49.58 2.87,99.15l72.91,39.5q-0.74,64.73 -1.48,129.46l16.49,9.52l0,-223.65a15,15 0 0 0 -0.11,-1.62l-90.68,-52.36z"/>
  </clipPath>
  <clipPath id="clip-path-3">
   <path id="svg_2" opacity="0" stroke-width="92" stroke-miterlimit="10" stroke="#a3cfef" fill="none" d="m47.58966,148.18511c-23.9,25.29 -19.94,62.59 -14.46,109.29a330.34,330.34 0 0 0 14.46,65.14l167.28,0q-0.07,-76.77 -0.14,-153.54c-9.76,-5.94 -24.11,-14.49 -41.8,-24.34c-21,-11.68 -31.46,-17.52 -37.42,-19.37c-26.93,-8.42 -65.47,-0.89 -87.92,22.82z"/>
  </clipPath>
  <linearGradient y2="0.50002" x2="1.00009" y1="0.50002" x1="0" id="linear-gradient-3">
   <stop stop-color="#2693d1" offset="0"/>
   <stop stop-color="#238bca" offset="0.16"/>
   <stop stop-color="#1b75b6" offset="0.4"/>
   <stop stop-color="#0f5195" offset="0.71"/>
   <stop stop-color="#002770" offset="1"/>
  </linearGradient>
  <linearGradient y2="0.03024" x2="0.7586" y1="0.79364" x1="0.36045" id="linear-gradient-4">
   <stop stop-color="#fff" offset="0"/>
   <stop stop-color="#438be3" offset="1"/>
  </linearGradient>
  <linearGradient xlink:href="#linear-gradient-4" y2="271.12" x2="630.52" y1="248.32" x1="641.16" id="linear-gradient-5"/>
  <linearGradient xlink:href="#linear-gradient-4" y2="271.46" x2="2116.39" y1="255.29" x1="2116.52" id="linear-gradient-6"/>
  <linearGradient xlink:href="#linear-gradient-4" y2="268.92" x2="2115.58" y1="258.35" x1="2117.66" id="linear-gradient-7"/>
  <linearGradient xlink:href="#linear-gradient-4" y2="315.85" x2="1998.73" y1="330.71" x1="1992.71" id="linear-gradient-8"/>
  <linearGradient xlink:href="#linear-gradient-4" y2="336.55" x2="1991.97" y1="316.18" x1="1995.9" id="linear-gradient-9"/>
  <linearGradient xlink:href="#linear-gradient-4" y2="336.5" x2="1995.02" y1="320.33" x1="1995.15" id="linear-gradient-10"/>
  <linearGradient xlink:href="#linear-gradient-4" y2="333.96" x2="1994.2" y1="323.39" x1="1996.28" id="linear-gradient-11"/>
  <linearGradient xlink:href="#linear-gradient-4" y2="281.33" x2="468.01" y1="281.33" x1="483.66" id="linear-gradient-12"/>
  <linearGradient xlink:href="#linear-gradient-4" y2="255.65" x2="467.71" y1="246.73" x1="474.91" id="linear-gradient-13"/>
  <linearGradient xlink:href="#linear-gradient-4" y2="251.13" x2="2119.86" y1="265.99" x1="2113.84" id="linear-gradient-14"/>
  <linearGradient xlink:href="#linear-gradient-4" y2="271.44" x2="630.27" y1="248.65" x1="640.91" id="linear-gradient-15"/>
  <linearGradient xlink:href="#linear-gradient-4" y2="271.78" x2="2116.14" y1="255.61" x1="2116.27" id="linear-gradient-16"/>
  <linearGradient xlink:href="#linear-gradient-4" y2="269.24" x2="2115.33" y1="258.67" x1="2117.41" id="linear-gradient-17"/>
  <linearGradient xlink:href="#linear-gradient-4" y2="316.17" x2="1998.48" y1="331.03" x1="1992.46" id="linear-gradient-18"/>
  <linearGradient xlink:href="#linear-gradient-4" y2="336.87" x2="1991.72" y1="316.5" x1="1995.65" id="linear-gradient-19"/>
  <linearGradient xlink:href="#linear-gradient-4" y2="336.82" x2="1994.77" y1="320.65" x1="1994.9" id="linear-gradient-20"/>
  <linearGradient xlink:href="#linear-gradient-4" y2="334.28" x2="1993.96" y1="323.71" x1="1996.03" id="linear-gradient-21"/>
  <linearGradient xlink:href="#linear-gradient-4" y2="281.65" x2="467.76" y1="281.65" x1="483.41" id="linear-gradient-22"/>
  <linearGradient xlink:href="#linear-gradient-4" y2="255.98" x2="467.46" y1="247.05" x1="474.66" id="linear-gradient-23"/>
 </defs>
 <title>drone</title>
 <g>
  <title>Layer 1</title>
  <g id="svg_3">
   <g id="svg_58">
    <path id="svg_59" fill="#fff" d="m115.69966,19.88511c0,-6.41 4.55,-9 10.1,-5.83l89.12,51.42c5.56,3.21 10.11,11.09 10.11,17.5l0,232.41c0,6.42 -4.54,9 -10.1,5.83l-89.12,-51.45c-5.56,-3.2 -10.1,-11.08 -10.1,-17.5l-0.01,-232.38z"/>
    <path id="svg_60" opacity="0.2" fill="#438be3" d="m115.69966,19.88511c0,-6.41 4.55,-9 10.1,-5.83l89.12,51.42c5.56,3.21 10.11,11.09 10.11,17.5l0,232.41c0,6.42 -4.54,9 -10.1,5.83l-89.12,-51.45c-5.56,-3.2 -10.1,-11.08 -10.1,-17.5l-0.01,-232.38z"/>
    <path id="svg_61" fill="#fff" d="m225.01966,315.38511l0,-232.38c0,-6.41 -4.55,-14.29 -10.11,-17.5l-89.11,-51.45c-2.68,-1.55 -5.12,-1.73 -6.94,-0.78l0,0l10.32,-5.86c1.79,-0.83 4.16,-0.6 6.75,0.89l89.12,51.45c5.55,3.21 10.1,11.08 10.1,17.5l0,232.36c0,3.26 -1.17,5.54 -3,6.57l-9.49,5.35c1.45,-1.18 2.36,-3.28 2.36,-6.15z"/>
    <path id="svg_62" fill="url(#linear-gradient-3)" d="m115.69966,19.88511l0,223.66l109.32,63.11l0,-223.65a15,15 0 0 0 -0.11,-1.62l-109.12,-63a11.93,11.93 0 0 0 -0.09,1.5z"/>
    <g id="svg_63" opacity="0.4">
     <g id="svg_64" clip-path="url(#clip-path-2)">
      <g id="truck2">
       <path id="svg_65" opacity="0.1" fill="#438be3" d="m52.37966,286.58511l175.13,-101.11l89.79,51.84l-132.07,76.24l-7.36,-4.24l-45.8,26.45c-9.49,4.53 -24.38,-1.35 -34.33,-6.92l-41.87,-24.19c-10.77,-6.47 -11.49,-13.46 -3.49,-18.07z"/>
       <polygon id="svg_66" fill="#003f97" points="295.4796447753906,212.22512817382812 153.47964477539062,294.2051086425781 153.47964477539062,276.91510009765625 295.4796447753906,194.9451141357422 295.4796447753906,212.22512817382812 "/>
       <polygon id="svg_67" fill="#1959b1" points="257.7396545410156,169.51512145996094 115.7396469116211,251.49508666992188 153.47964477539062,276.91510009765625 295.4796447753906,194.9451141357422 257.7396545410156,169.51512145996094 "/>
       <polygon id="svg_68" fill="#00267e" points="287.3096618652344,226.1951446533203 286.3096618652344,228.98512268066406 272.2196350097656,220.9151153564453 274.7996520996094,215.43511962890625 283.3996887207031,218.90512084960938 287.3096618652344,226.1951446533203 "/>
       <g id="svg_69">
        <path id="svg_70" fill="#00267e" d="m280.29966,222.15511l-10.67,-6.38c-2.39,-1.36 -5.68,-1.15 -9.32,0.95c-7.3,4.21 -13.22,14.46 -13.22,22.89c0,4.25 1.5,7.22 3.92,8.59l10.68,6.37c2.39,1.36 5.67,1.15 9.3,-1c7.3,-4.21 13.22,-14.46 13.22,-22.89c0,-4.21 -1.49,-7.15 -3.91,-8.53z"/>
        <path id="svg_71" fill="#003f97" d="m284.20966,230.73511c0,8.43 -5.92,18.68 -13.22,22.89c-3.63,2.1 -6.91,2.31 -9.3,1s-3.92,-4.34 -3.92,-8.58c0,-8.43 5.92,-18.68 13.22,-22.89c3.63,-2.1 6.92,-2.31 9.31,-0.95s3.91,4.27 3.91,8.53z"/>
        <path id="svg_72" fill="#00267e" d="m283.39966,231.71511c0,7.68 -5.39,17 -12,20.87s-12,0.72 -12,-7s5.39,-17 12,-20.86s12,-0.69 12,6.99z"/>
        <path id="svg_73" fill="#fff" d="m279.44966,233.77511c0,5.17 -3.63,11.44 -8.09,14s-8.1,0.49 -8.1,-4.67s3.62,-11.44 8.1,-14s8.09,-0.49 8.09,4.67z"/>
        <path id="svg_74" opacity="0.2" fill="#438be3" d="m279.44966,233.77511c0,5.17 -3.63,11.44 -8.09,14s-8.1,0.49 -8.1,-4.67s3.62,-11.44 8.1,-14s8.09,-0.49 8.09,4.67z"/>
        <path id="svg_75" fill="#003f97" d="m277.86966,234.09511a15.37,15.37 0 0 1 -7,12c-3.84,2.22 -7,0.42 -7,-4a15.34,15.34 0 0 1 7,-12c3.83,-2.23 7,-0.43 7,4z"/>
        <path id="svg_76" fill="url(#linear-gradient-4)" d="m271.35966,229.72511a12.38,12.38 0 0 0 -1.16,0.78q0.33,-0.22 0.66,-0.42c3.84,-2.22 7,-0.42 7,4a15.37,15.37 0 0 1 -7,12c-3.84,2.22 -7,0.42 -7,-4a10.16,10.16 0 0 1 0.14,-1.63a11.67,11.67 0 0 0 -0.25,2.32c0,4.81 3.38,6.76 7.56,4.36a16.71,16.71 0 0 0 7.56,-13.05c0,-4.82 -3.35,-6.76 -7.51,-4.36z"/>
        <path id="svg_77" fill="url(#linear-gradient-5)" d="m277.37966,234.28511a14.66,14.66 0 0 1 -6.63,11.48c-3.67,2.12 -6.64,0.4 -6.64,-3.83a14.66,14.66 0 0 1 6.64,-11.46c3.66,-2.14 6.63,-0.43 6.63,3.81z"/>
        <path id="svg_78" fill="url(#linear-gradient-6)" d="m276.11966,236.41511a10,10 0 0 1 -4.53,7.85c-2.5,1.44 -4.53,0.27 -4.53,-2.62a10,10 0 0 1 4.53,-7.84c2.5,-1.45 4.53,-0.28 4.53,2.61z"/>
        <g id="svg_79">
         <path id="svg_80" fill="#003f97" d="m271.33966,232.22511c0.12,0.54 -0.06,1 -0.42,1.12s-0.75,-0.28 -0.88,-0.81s0.06,-1 0.42,-1.12s0.75,0.28 0.88,0.81z"/>
         <path id="svg_81" fill="#003f97" d="m265.65966,239.63511c0.55,0.07 0.94,0.43 0.89,0.8s-0.53,0.59 -1.07,0.52s-1,-0.44 -0.89,-0.8s0.53,-0.6 1.07,-0.52z"/>
         <path id="svg_82" fill="#003f97" d="m265.92966,243.84511c0.5,-0.24 1,-0.23 1.11,0s-0.2,0.62 -0.7,0.85s-1,0.22 -1.1,0s0.2,-0.62 0.69,-0.85z"/>
         <path id="svg_83" fill="#003f97" d="m268.37966,245.56511c0.21,-0.35 0.52,-0.53 0.71,-0.43s0.16,0.48 -0.05,0.83s-0.52,0.53 -0.7,0.42s-0.16,-0.48 0.04,-0.82z"/>
         <path id="svg_84" fill="#003f97" d="m268.03966,235.12511a0.76,0.76 0 1 1 -0.8,1.21a0.76,0.76 0 1 1 0.8,-1.21z"/>
         <path id="svg_85" fill="#003f97" d="m274.79966,231.40511c0,0.55 -0.28,1 -0.6,1s-0.56,-0.47 -0.54,-1s0.29,-1 0.6,-1s0.61,0.46 0.54,1z"/>
         <path id="svg_86" fill="#003f97" d="m276.86966,234.57511c-0.31,0.2 -0.66,0.21 -0.79,0s0,-0.51 0.33,-0.71s0.66,-0.22 0.79,0s-0.07,0.5 -0.33,0.71z"/>
         <path id="svg_87" fill="#003f97" d="m276.26966,238.28511c-0.14,0 -0.21,-0.21 -0.17,-0.41s0.19,-0.33 0.32,-0.3s0.21,0.21 0.16,0.41s-0.18,0.33 -0.31,0.3z"/>
         <path id="svg_88" fill="#003f97" d="m271.96966,244.88511a0.28,0.28 0 0 1 -0.32,-0.22a0.28,0.28 0 0 1 0.13,-0.36c0.12,-0.05 0.26,0.06 0.31,0.22a0.27,0.27 0 0 1 -0.12,0.36z"/>
         <path id="svg_89" fill="#003f97" d="m275.00966,241.40511a0.21,0.21 0 0 1 -0.29,0.08a0.22,0.22 0 0 1 0,-0.3a0.21,0.21 0 0 1 0.29,-0.08a0.21,0.21 0 0 1 0,0.3z"/>
        </g>
        <path id="svg_90" fill="#fff" d="m274.54966,237.86511a5.91,5.91 0 0 1 -2.68,4.61c-1.48,0.86 -2.67,0.17 -2.67,-1.54a5.88,5.88 0 0 1 2.67,-4.62c1.48,-0.84 2.68,-0.15 2.68,1.55z"/>
        <path id="svg_91" fill="url(#linear-gradient-7)" d="m274.80966,238.12511a5.74,5.74 0 0 1 -2.59,4.49c-1.43,0.82 -2.59,0.15 -2.59,-1.5a5.73,5.73 0 0 1 2.59,-4.49c1.43,-0.83 2.59,-0.15 2.59,1.5z"/>
       </g>
       <path id="svg_92" fill="#1959b1" d="m282.55966,215.47511l0,0l-13,-7.81c-3.21,-1.26 -7.34,-0.74 -11.86,1.87c-10.19,5.88 -18.46,20.2 -18.46,32l0,0l12.35,7.53l2.23,-1.29l0,0c0,-10.35 7.26,-22.93 16.22,-28.1s16.23,-1 16.23,9.37l2.23,-1.29c0.04,-6.28 -2.26,-10.54 -5.94,-12.28z"/>
       <path id="svg_93" fill="#003f97" d="m253.86966,247.71511l0,0c0,-10.35 7.26,-22.93 16.22,-28.1s16.23,-1 16.23,9.37l0,0l2.23,-1.29l0,0c0,-11.77 -8.26,-16.55 -18.46,-10.66s-18.45,20.2 -18.45,32l0,0l2.23,-1.32z"/>
       <polygon id="svg_94" fill="#00267e" points="164.51968383789062,294.1751403808594 157.5296173095703,292.6751403808594 151.51968383789062,282.7151184082031 160.11965942382812,281.6950988769531 164.51968383789062,294.1751403808594 "/>
       <g id="svg_95">
        <path id="svg_96" fill="#00267e" d="m158.92966,287.19511l-10.68,-6.37c-2.39,-1.36 -5.68,-1.16 -9.31,0.94c-7.3,4.21 -13.22,14.47 -13.22,22.89c0,4.25 1.5,7.22 3.92,8.59l10.67,6.38c2.39,1.35 5.68,1.14 9.31,-0.95c7.3,-4.2 13.25,-14.47 13.25,-22.9c0,-4.23 -1.53,-7.2 -3.94,-8.58z"/>
        <path id="svg_97" fill="#003f97" d="m162.86966,295.77511c0,8.43 -5.91,18.68 -13.21,22.9c-3.63,2.09 -6.92,2.3 -9.31,0.95s-3.91,-4.34 -3.91,-8.59c0,-8.42 5.91,-18.68 13.21,-22.89c3.64,-2.09 6.93,-2.3 9.32,-0.95s3.9,4.35 3.9,8.58z"/>
        <path id="svg_98" fill="#00267e" d="m162.01966,296.75511c0,7.68 -5.39,17 -12,20.87s-12.05,0.73 -12.05,-7s5.4,-17 12.05,-20.86s12,-0.69 12,6.99z"/>
        <path id="svg_99" fill="#fff" d="m158.06966,298.81511c0,5.17 -3.62,11.45 -8.09,14s-8.1,0.49 -8.1,-4.68s3.63,-11.44 8.1,-14s8.09,-0.48 8.09,4.68z"/>
        <path id="svg_100" opacity="0.2" fill="#438be3" d="m158.06966,298.81511c0,5.17 -3.62,11.45 -8.09,14s-8.1,0.49 -8.1,-4.68s3.63,-11.44 8.1,-14s8.09,-0.48 8.09,4.68z"/>
        <path id="svg_101" fill="#003f97" d="m156.43966,299.13511a15.36,15.36 0 0 1 -7,12c-3.84,2.22 -6.95,0.43 -6.95,-4a15.37,15.37 0 0 1 6.95,-12c3.89,-2.23 7,-0.43 7,4z"/>
        <path id="svg_102" fill="url(#linear-gradient-8)" d="m149.97966,294.77511a9.61,9.61 0 0 0 -1.15,0.77c0.21,-0.15 0.44,-0.29 0.66,-0.42c3.84,-2.22 7,-0.42 7,4a15.36,15.36 0 0 1 -7,12c-3.84,2.22 -6.95,0.43 -6.95,-4a11.17,11.17 0 0 1 0.13,-1.62a12.36,12.36 0 0 0 -0.25,2.31c0,4.81 3.39,6.77 7.56,4.36a16.7,16.7 0 0 0 7.55,-13.08c0,-4.78 -3.38,-6.73 -7.55,-4.32z"/>
        <path id="svg_103" fill="url(#linear-gradient-9)" d="m156.00966,299.32511a14.7,14.7 0 0 1 -6.63,11.49c-3.67,2.11 -6.64,0.4 -6.64,-3.83a14.65,14.65 0 0 1 6.64,-11.51c3.65,-2.1 6.63,-0.38 6.63,3.85z"/>
        <path id="svg_104" fill="url(#linear-gradient-10)" d="m154.74966,301.47511a10,10 0 0 1 -4.53,7.85c-2.5,1.44 -4.53,0.27 -4.53,-2.62a10,10 0 0 1 4.53,-7.84c2.5,-1.47 4.53,-0.29 4.53,2.61z"/>
        <g id="svg_105">
         <path id="svg_106" fill="#003f97" d="m149.95966,297.27511c0.13,0.53 -0.06,1 -0.42,1.12s-0.75,-0.28 -0.88,-0.82s0.06,-1 0.42,-1.12s0.79,0.28 0.88,0.82z"/>
         <path id="svg_107" fill="#003f97" d="m144.28966,304.67511c0.54,0.08 0.94,0.43 0.89,0.8s-0.54,0.6 -1.08,0.52s-0.94,-0.43 -0.89,-0.8s0.54,-0.6 1.08,-0.52z"/>
         <path id="svg_108" fill="#003f97" d="m144.55966,308.88511c0.5,-0.23 1,-0.22 1.1,0s-0.2,0.62 -0.7,0.85s-1,0.23 -1.1,0s0.2,-0.62 0.7,-0.85z"/>
         <path id="svg_109" fill="#003f97" d="m147.00966,310.60511c0.2,-0.34 0.52,-0.53 0.7,-0.42s0.16,0.47 0,0.82s-0.52,0.53 -0.7,0.42s-0.21,-0.48 0,-0.82z"/>
         <path id="svg_110" fill="#003f97" d="m146.66966,300.16511a0.76,0.76 0 1 1 -0.81,1.21a0.76,0.76 0 1 1 0.81,-1.21z"/>
         <path id="svg_111" fill="#003f97" d="m153.42966,296.47511c0,0.55 -0.29,1 -0.61,1s-0.56,-0.46 -0.54,-1s0.29,-1 0.61,-1s0.56,0.43 0.54,1z"/>
         <path id="svg_112" fill="#003f97" d="m155.44966,299.61511c-0.31,0.21 -0.66,0.22 -0.79,0s0,-0.51 0.33,-0.71s0.66,-0.22 0.78,0s-0.02,0.51 -0.32,0.71z"/>
         <path id="svg_113" fill="#003f97" d="m154.86966,303.32511c-0.13,0 -0.2,-0.21 -0.16,-0.41s0.19,-0.33 0.32,-0.3s0.2,0.21 0.16,0.41s-0.17,0.33 -0.32,0.3z"/>
         <path id="svg_114" fill="#003f97" d="m150.59966,309.92511a0.32,0.32 0 0 1 -0.2,-0.58a0.28,0.28 0 0 1 0.32,0.22a0.29,0.29 0 0 1 -0.12,0.36z"/>
         <path id="svg_115" fill="#003f97" d="m153.63966,306.47511a0.21,0.21 0 0 1 -0.29,0.08a0.21,0.21 0 0 1 0,-0.3a0.19,0.19 0 1 1 0.31,0.22l-0.02,0z"/>
        </g>
        <path id="svg_116" fill="#fff" d="m153.17966,302.90511a5.89,5.89 0 0 1 -2.68,4.63c-1.47,0.85 -2.67,0.16 -2.67,-1.54a5.91,5.91 0 0 1 2.67,-4.63c1.48,-0.89 2.68,-0.16 2.68,1.54z"/>
        <path id="svg_117" fill="url(#linear-gradient-11)" d="m153.43966,303.16511a5.73,5.73 0 0 1 -2.6,4.49c-1.43,0.83 -2.59,0.15 -2.59,-1.5a5.73,5.73 0 0 1 2.59,-4.49c1.44,-0.83 2.6,-0.19 2.6,1.5z"/>
       </g>
       <path id="svg_118" fill="#003f97" d="m163.50966,295.21511s-0.27,-14.71 -10.33,-11.27s-17.75,19 -17.75,19l1,-11.6l14.85,-10.8s9.1,-4.25 11.58,1.82a32.12,32.12 0 0 1 2.25,11.78l-1.6,1.07z"/>
       <g id="svg_119">
        <polygon id="svg_120" fill="#1959b1" points="190.34962463378906,265.3450927734375 193.48965454101562,272.3251037597656 193.48965454101562,274.7151184082031 196.12966918945312,273.1850891113281 196.12966918945312,271.91510009765625 192.72964477539062,263.9751281738281 190.34962463378906,265.3450927734375 "/>
        <polygon id="svg_121" fill="#003f97" points="248.89968872070312,247.16514587402344 248.89968872070312,245.3050994873047 246.70968627929688,244.04515075683594 180.67965698242188,282.1451110839844 180.67965698242188,287.8750915527344 182.39968872070312,288.91510009765625 248.42965698242188,250.82510375976562 248.42965698242188,249.31509399414062 248.04965209960938,249.06509399414062 248.04965209960938,247.65513610839844 248.89968872070312,247.16514587402344 "/>
        <polygon id="svg_122" fill="#003f97" points="182.86965942382812,285.26513671875 182.01968383789062,284.8551025390625 182.01968383789062,287.1651306152344 248.04965209960938,249.06509399414062 248.04965209960938,247.65513610839844 182.86965942382812,285.26513671875 "/>
        <polygon id="svg_123" fill="#1959b1" points="246.70968627929688,244.04515075683594 180.67965698242188,282.1451110839844 182.86965942382812,283.4051208496094 248.89968872070312,245.3050994873047 246.70968627929688,244.04515075683594 "/>
        <polygon id="svg_124" fill="#1959b1" points="248.42965698242188,249.31509399414062 182.39968872070312,287.4051208496094 182.01968383789062,287.1651306152344 248.04965209960938,249.06509399414062 248.42965698242188,249.31509399414062 "/>
        <polygon id="svg_125" fill="#1959b1" points="229.15963745117188,242.9751434326172 232.29965209960938,249.95513916015625 232.29965209960938,252.3350830078125 234.93966674804688,250.81512451171875 234.93966674804688,249.54513549804688 231.53964233398438,241.5951385498047 229.15963745117188,242.9751434326172 "/>
        <polygon id="svg_126" fill="#003f97" points="229.15963745117188,242.9751434326172 232.29965209960938,249.95513916015625 232.29965209960938,252.3350830078125 233.61965942382812,251.57510375976562 233.61965942382812,249.95513916015625 230.33961486816406,242.2851104736328 229.15963745117188,242.9751434326172 "/>
        <polygon id="svg_127" fill="#003f97" points="190.34962463378906,265.3450927734375 193.48965454101562,272.3251037597656 193.48965454101562,274.7151184082031 194.80966186523438,273.9450988769531 194.80966186523438,272.3251037597656 191.5296173095703,264.66510009765625 190.34962463378906,265.3450927734375 "/>
       </g>
       <g id="svg_128">
        <g id="svg_129">
         <polygon id="svg_130" fill="#003f97" points="235.71963500976562,174.8351287841797 306.3696594238281,215.61512756347656 306.3696594238281,211.3051300048828 235.71963500976562,170.51512145996094 235.71963500976562,174.8351287841797 "/>
         <polygon id="svg_131" fill="#1959b1" points="236.92965698242188,169.84510803222656 307.5696716308594,210.6351318359375 306.3696594238281,211.3051300048828 235.71963500976562,170.51512145996094 236.92965698242188,169.84510803222656 "/>
         <polygon id="svg_132" fill="#003f97" points="307.5896301269531,214.90512084960938 306.3696594238281,215.61512756347656 306.3696594238281,211.3051300048828 307.5896301269531,210.59512329101562 307.5896301269531,214.90512084960938 "/>
        </g>
        <polygon id="svg_133" fill="#003f97" points="234.50967407226562,164.50511169433594 308.7996520996094,207.3851318359375 308.7996520996094,199.90512084960938 234.50967407226562,157.01512145996094 234.50967407226562,164.50511169433594 "/>
        <polygon id="svg_134" fill="#003f97" points="312.7196350097656,197.63511657714844 312.7196350097656,205.1251220703125 308.7996520996094,207.3851318359375 308.7996520996094,199.90512084960938 312.7196350097656,197.63511657714844 "/>
        <polygon id="svg_135" fill="#fff" points="107.20967864990234,145.23512268066406 238.40963745117188,69.57511138916016 312.7096862792969,112.47510528564453 312.7196350097656,197.67510986328125 181.49966430664062,272.9950866699219 107.20967864990234,230.10511779785156 107.20967864990234,145.23512268066406 "/>
        <polygon id="svg_136" opacity="0.2" fill="#438be3" points="312.7096862792969,112.47510528564453 181.5596466064453,188.1951141357422 181.49966430664062,272.9950866699219 312.7196350097656,197.67510986328125 312.7096862792969,112.47510528564453 "/>
        <path id="svg_137" opacity="0.3" fill="#438be3" d="m107.20966,145.23511l0,84.87l74.29,42.89l0.06,-84.76l-74.35,-43z"/>
       </g>
       <path id="svg_138" fill="#fff" d="m159.15966,216.87511c2.66,2.66 5.09,4.69 6.11,15.32a303.71,303.71 0 0 1 1,32.67l-0.73,1.32l0.5,1.1l0,7.25s-15.14,7.57 -20.4,12.43s-10,13.06 -10.91,19.84l-13.34,7.58l-0.34,1.58s-3.56,2.6 -6.78,2.6s-7.18,-0.4 -18.09,-6.22s-31.43,-18.48 -34.6,-20.91s-8,-6 -8.76,-11.48a26,26 0 0 1 0.29,-9.32s-0.4,-9.67 0.9,-11.31c0,0 0,-9.78 -0.11,-10.8s1.8,-8.48 1.8,-8.48s1.87,-7.12 3.4,-11.75s7.34,-16.85 9.38,-20.75s5.82,-6.5 8.59,-8.31s20.52,-12.09 22.84,-13.28s5,-1.53 9.89,0.73s19.33,10.29 24.93,13.8s22.14,14.07 24.43,16.39z"/>
       <path id="svg_139" opacity="0.2" fill="#438be3" d="m165.49966,266.18511l0.73,-1.32a303.71,303.71 0 0 0 -1,-32.67c-0.54,-5.57 -1.46,-8.78 -2.6,-11a3.87,3.87 0 0 0 -2.55,0.55c-3.37,1.88 -16.28,9.91 -20.06,12.31s-9.55,6 -10.68,9.38s-7.22,28 -8,31.29s-2,8.2 -3.76,10.1s-11.89,1.84 -16.28,-0.57s-31.24,-17.5 -36.43,-21.31c-3.79,-2.77 -8.12,-7.68 -10.91,-10.62c0,3.12 0,7 0,7c-1.3,1.64 -0.9,11.31 -0.9,11.31a26,26 0 0 0 -0.29,9.32c0.74,5.48 5.6,9 8.76,11.48s23.69,15.09 34.6,20.91s14.86,6.22 18.09,6.22s6.78,-2.6 6.78,-2.6l0.34,-1.58l13.34,-7.58c0.9,-6.78 5.65,-15 10.91,-19.84s20.4,-12.43 20.4,-12.43l0,-7.25c-2.76,1.45 -18.57,11.66 -22,15.11s-22.66,24.32 -22.66,24.32l-0.28,-1.1s19.52,-21.15 22.94,-24.6s18.75,-13.38 21.51,-14.83zm-44.56,21.6l0.08,-1.59l4,-3.85s32,-42.51 32,-42.62s1.82,-9.91 2.9,-9.46s1.84,11.85 1.71,15s-1.84,4.93 -4,7.74s-11.71,12.24 -16.09,16.56s-20.6,18.22 -20.6,18.22z"/>
       <path id="svg_140" fill="url(#linear-gradient-12)" opacity="0.2" d="m162.66966,211.16511a3.81,3.81 0 0 0 -2.55,0.55c-3.37,1.87 -16.28,9.9 -20.06,12.31s-9.55,6 -10.68,9.37s-7.22,28 -8,31.3s-2,8.2 -3.76,10.1s-11.89,1.83 -16.28,-0.57s-31.28,-17.54 -36.47,-21.35c-3.79,-2.77 -8.12,-7.69 -10.91,-10.63c0,3.13 0,7 0,7c-1.3,1.64 -0.9,11.31 -0.9,11.31a26,26 0 0 0 -0.29,9.33c0.74,5.48 5.6,9 8.76,11.47s23.69,15.1 34.6,20.92s14.87,6.2 18.1,6.2s6.78,-2.6 6.78,-2.6l0.34,-1.59l13.34,-7.57c0.9,-6.78 5.65,-15 10.91,-19.84s20.4,-12.4 20.4,-12.4l0,-7.24l-0.5,-1.11l0.73,-1.31a303.58,303.58 0 0 0 -1,-32.67c-0.5,-5.59 -1.42,-8.8 -2.56,-10.98z"/>
       <path id="svg_141" opacity="0.2" fill="#438be3" d="m144.00966,280.36511c-3.42,3.46 -22.94,24.6 -22.94,24.6l0,0.65s19.52,-21.15 22.94,-24.6s18.73,-13.38 21.49,-14.83l0.5,-0.93c-2.76,1.45 -18.57,11.66 -21.99,15.11z"/>
       <polygon id="svg_142" opacity="0.2" fill="#438be3" points="124.84969329833984,281.6950988769531 120.94966888427734,285.29510498046875 121.0196762084961,286.19512939453125 125.05965423583984,282.3450927734375 124.84969329833984,281.6950988769531 "/>
       <path id="svg_143" opacity="0.3" fill="#438be3" d="m135.57966,302.89511l-14.64,8.09l0.41,3.4l13.34,-7.58a23.52,23.52 0 0 1 0.89,-3.91z"/>
       <path id="svg_144" fill="url(#linear-gradient-13)" opacity="0.3" d="m74.45966,201.00511a19.81,19.81 0 0 0 -6,6.54c-2,3.9 -7.86,16.11 -9.38,20.75s-3.4,11.75 -3.4,11.75s-1.92,7.46 -1.8,8.48c0,0.38 0.07,2 0.08,3.8c2.79,2.94 7.12,7.85 10.91,10.62c5.21,3.81 32.06,18.94 36.46,21.35s14.55,2.48 16.28,0.57s2.95,-6.79 3.76,-10.1s6.89,-27.88 8,-31.29c0.63,-1.91 2.71,-3.86 5.07,-5.63l-59.98,-36.84z"/>
       <path id="svg_145" fill="#1959b1" d="m121.04966,305.25511l-0.18,0l0,-22s4.26,-18.73 5,-22.09c0.62,-2.7 3.35,-13.78 4.24,-15.24s6,-5.52 8.48,-6.73c2,-1 8.06,-4.57 12.07,-6.95l2.49,-1.47c0.45,-0.26 0.91,-0.54 1.37,-0.83c2.24,-1.37 4.55,-2.8 6,-2.39a1.54,1.54 0 0 1 1,0.85c1.19,2.33 2.06,8 2.33,15.15s0.59,20.32 0,22.9l-0.38,1.06l0.32,1.19l-4.15,9.31l-0.2,-0.08l4.12,-9.25l-0.32,-1.18l0.4,-1.11c0.58,-2.54 0.27,-15.55 0,-22.83c-0.26,-7 -1.15,-12.79 -2.3,-15.07a1.35,1.35 0 0 0 -0.85,-0.73c-1.35,-0.38 -3.73,1.08 -5.83,2.37l-1.37,0.83l-2.54,1.51c-4,2.37 -10.08,6 -12.09,7c-2.43,1.2 -7.52,5.23 -8.38,6.64s-3.49,12 -4.21,15.18c-0.77,3.36 -5,22.07 -5,22.07l-0.02,21.89z"/>
       <rect id="svg_146" fill="#1959b1" height="10.54" width="0.22" y="287.78511" x="109.48966"/>
       <rect id="svg_147" fill="#1959b1" height="10.84" width="0.22" y="258.02511" x="57.60966"/>
       <polygon id="svg_148" fill="#1959b1" points="103.18965911865234,283.8351135253906 103.0396957397461,283.6751403808594 111.5196762084961,275.3150939941406 111.67964935302734,275.465087890625 103.18965911865234,283.8351135253906 "/>
       <rect transform="rotate(-4.61 -385.55 13.3851)" id="svg_149" fill="#1959b1" height="13.74" width="0.22" y="277.91511" x="38.30966"/>
       <polygon id="svg_150" fill="#003f97" points="137.86965942382812,311.7251281738281 127.20967864990234,317.8851013183594 127.20967864990234,318.93511962890625 137.86965942382812,312.8451232910156 137.86965942382812,311.7251281738281 "/>
       <polygon id="svg_151" fill="#003f97" points="133.11965942382812,307.6950988769531 133.11965942382812,309.0251159667969 122.6496810913086,315.2450866699219 122.5096664428711,313.7251281738281 133.11965942382812,307.6950988769531 "/>
       <polygon id="svg_152" fill="#003f97" points="127.20967864990234,317.8851013183594 122.6496810913086,315.2450866699219 122.5096664428711,313.7251281738281 121.34969329833984,314.3851013183594 121.08968353271484,316.0251159667969 120.30965423583984,316.4350891113281 122.2396469116211,317.6850891113281 127.20967864990234,318.93511962890625 127.20967864990234,317.8851013183594 "/>
       <polygon id="svg_153" fill="#1959b1" points="137.86965942382812,311.7251281738281 133.11965942382812,309.0251159667969 122.6496810913086,315.2450866699219 127.20967864990234,317.8851013183594 137.86965942382812,311.7251281738281 "/>
       <path id="svg_154" fill="#1959b1" d="m101.07966,282.18511a209.47,209.47 0 0 1 -24.49,-13.08c-9,-5.84 -15,-10.53 -16.25,-11.54c-0.21,-0.18 -0.55,-0.48 -1,-0.85l1.33,4.88l0,0c1.83,1.42 7.79,5.63 16.1,11a205.4,205.4 0 0 0 24.26,12.94l0.23,0.1l2.32,-2.44c-0.83,-0.29 -1.71,-0.64 -2.5,-1.01z"/>
       <path id="svg_155" fill="#003f97" d="m58.86966,229.01511q0.12,-0.37 0.24,-0.72l0,-0.11c-3.93,-1.81 -4.27,-2.6 -4.27,-3.42l0,-4.43l-0.87,0l0,4.43c-0.02,1.36 0.72,2.36 4.9,4.25z"/>
       <path id="svg_156" fill="#1959b1" d="m59.51966,223.97511c0,0.71 -0.5,1 -1.11,0.62l-5.75,-3.46a2.57,2.57 0 0 1 -1.11,-2l0,-13.54c0,-0.72 0.5,-1 1.11,-0.63l5.75,3.47a2.55,2.55 0 0 1 1.11,2l0,13.54z"/>
       <path id="svg_157" fill="#003f97" d="m54.44966,211.64511c-0.84,0 -1,-0.29 -1.2,-0.6s-1,-4.61 -1.31,-6.2a0.74,0.74 0 0 0 -0.39,0.75l0,13.57a2.57,2.57 0 0 0 1.11,2l5.75,3.46c0.61,0.37 1.11,0.09 1.11,-0.62l0,-13.61a2.24,2.24 0 0 0 -0.26,-1c-1.46,0.82 -4.21,2.25 -4.81,2.25z"/>
       <path id="svg_158" fill="#003f97" d="m54.43966,212.05511l0,0a0.41,0.41 0 0 0 0.39,-0.46c-0.17,-2.08 -0.08,-7.6 2.38,-8.23s12.23,-1.75 17.12,-2.28c0.49,-0.37 1,-0.71 1.44,-1c-4,0.43 -15.94,1.74 -18.77,2.47c-3.66,0.95 -3.06,8.81 -3,9.14a0.42,0.42 0 0 0 0.44,0.36z"/>
       <path id="svg_159" fill="#1058b0" d="m155.32966,270.60511c0.75,-0.49 5.63,-3.58 6.37,-4.12a1.94,1.94 0 0 0 0.84,-1.76c0,-0.54 0.18,-2.69 -1.2,-1.92a46,46 0 0 0 -4.78,3.27a12.55,12.55 0 0 0 -2,4.53c0.08,0.17 0.22,0.35 0.77,0z"/>
       <path id="svg_160" fill="#003f97" d="m154.86966,270.59511a13.14,13.14 0 0 1 1.88,-4.35a43.89,43.89 0 0 1 4.75,-3.25a0.77,0.77 0 0 1 0.41,-0.14a0.3,0.3 0 0 1 0.2,0.08c0.27,0.27 0.27,1.08 0.27,1.52l0,0.28a1.72,1.72 0 0 1 -0.76,1.57c-0.59,0.43 -3.88,2.53 -5.46,3.54l-0.9,0.58a0.91,0.91 0 0 1 -0.38,0.17l-0.01,0z"/>
       <path id="svg_161" fill="#1058b0" d="m162.05966,262.93511a0.3,0.3 0 0 0 -0.2,-0.08a0.77,0.77 0 0 0 -0.41,0.14a43.89,43.89 0 0 0 -4.75,3.25a9.78,9.78 0 0 0 -1.39,2.71l7,-4.57c0.02,-0.44 0.01,-1.19 -0.25,-1.45z"/>
       <path id="svg_162" fill="#003f97" d="m134.78966,244.05511c-1.74,1.06 -3.64,3.65 -4.44,7s-5.44,23.69 -5.76,25.91s-0.48,5.92 0.47,5.4s23.54,-21.6 26.81,-24.89s7.93,-8.67 8.46,-10.63a55.35,55.35 0 0 0 0.64,-11.16c-0.21,-2.22 -0.21,-6.71 -2.17,-5.81s-24.01,14.18 -24.01,14.18z"/>
       <path id="svg_163" fill="#2971c9" d="m125.22966,281.09511a21.14,21.14 0 0 1 0.21,-4c0.3,-2.1 4.86,-22.07 5.75,-25.83a10.67,10.67 0 0 1 4.05,-6.44c7.59,-4.59 22.36,-13.43 23.87,-14.13l0.1,0c0.5,0.39 0.69,3.08 0.77,4.1c0,0.38 0,0.74 0.08,1.05a54.62,54.62 0 0 1 -0.61,10.84c-0.43,1.6 -4.61,6.57 -8.24,10.26c-3.25,3.24 -22.16,20.83 -25.98,24.15z"/>
       <path id="svg_164" fill="#fff" d="m103.62966,283.21511l-2.32,2.44a29.58,29.58 0 0 0 12.09,3a16.33,16.33 0 0 0 7.54,-1.7l0,-3.73a16.33,16.33 0 0 1 -7.54,1.7a29.19,29.19 0 0 1 -9.77,-1.71z"/>
       <path id="svg_165" fill="#fff" d="m59.38966,256.71511a28.59,28.59 0 0 1 -5.48,-6.65c0,1 0,2.41 0,3.8c1.55,3 5.34,6.55 6.39,7.43l0.38,0.3l-1.29,-4.88z"/>
       <path id="svg_166" fill="#003f97" d="m66.86966,282.95511c3.37,2.28 7.41,4.91 11,7.06s10,5.69 15.8,8.88a8.11,8.11 0 0 1 4.85,-3.81a6.14,6.14 0 0 0 -2.17,-2.52c-1,-0.46 -13.81,-7.37 -16.31,-9s-12,-7.51 -13.48,-8.43a2,2 0 0 0 -2,-0.15a23.68,23.68 0 0 1 2.31,7.97z"/>
       <g id="svg_167">
        <path id="svg_168" fill="#001971" d="m80.19966,287.15511c-3,-1.8 -11,-6.79 -13.71,-8.5c0.06,0.2 0.11,0.4 0.16,0.6c2.08,1.31 10.66,6.71 13.81,8.57s11.37,6.47 14.93,8.45l0.39,-0.31c-3.51,-1.96 -12.26,-6.84 -15.58,-8.81z"/>
        <path id="svg_169" fill="#001971" d="m95.04966,296.57511c-3.63,-2 -11.7,-6.53 -14.82,-8.37s-10.86,-6.73 -13.44,-8.35c0.05,0.21 0.09,0.41 0.13,0.6c2.47,1.56 10.51,6.62 13.54,8.41s10.4,5.92 14.24,8.06c0.17,-0.12 0.23,-0.24 0.35,-0.35z"/>
        <path id="svg_170" fill="#001971" d="m94.14966,297.54511l0.25,-0.29c-3.87,-2.16 -11.22,-6.27 -14.17,-8s-10.4,-6.43 -13.2,-8.19c0,0.18 0.07,0.37 0.09,0.54c3.2,2 9.81,6.15 12.48,7.73c3.04,1.79 10.81,6.14 14.55,8.21z"/>
        <path id="svg_171" fill="#001971" d="m80.10966,285.06511c-3.17,-1.88 -11.36,-7 -14.5,-9c0.1,0.22 0.19,0.45 0.27,0.68c2.46,1.54 11.24,7.06 14.5,9c3.63,2.14 13.56,7.68 16.7,9.43c0.18,-0.09 0.35,-0.16 0.52,-0.23c-3.09,-1.72 -13.66,-7.61 -17.49,-9.88z"/>
        <path id="svg_172" fill="#001971" d="m79.37966,289.68511c-2.59,-1.53 -8.87,-5.46 -12.17,-7.54c0,0.21 0.06,0.4 0.08,0.56c2.85,1.92 7,4.65 10.85,6.93c3.29,2 9.32,5.35 15.44,8.69l0.3,-0.43c-3.76,-2.1 -11.47,-6.42 -14.5,-8.21z"/>
        <path id="svg_173" fill="#001971" d="m80.15966,286.11511c-3.09,-1.83 -11.09,-6.86 -14,-8.72c0.07,0.21 0.13,0.42 0.2,0.63c2.23,1.41 10.91,6.87 14.1,8.76c3.37,2 12.37,7 15.76,8.91c0.15,-0.1 0.29,-0.2 0.44,-0.28c-3.42,-1.88 -12.96,-7.2 -16.5,-9.3z"/>
        <path id="svg_174" fill="#001971" d="m80.32966,284.69511c3.8,2.25 14.27,8.08 17.43,9.84a5.15,5.15 0 0 0 -1.54,-1.58c-1,-0.45 -13.85,-7.39 -16.37,-9.06c-2.13,-1.41 -9.29,-5.83 -12.35,-7.72l-1.12,-0.69a1.71,1.71 0 0 0 -0.91,-0.29a1.07,1.07 0 0 0 -0.25,0l0.07,0.13c2.58,1.64 11.66,7.36 15.04,9.37z"/>
       </g>
       <path id="svg_175" fill="#1959b1" d="m105.86966,305.25511c3.42,1.51 4.06,2 7.9,2.18a12.94,12.94 0 0 0 7.19,-2.18l0,-8.13a30.44,30.44 0 0 1 -7.08,1.26c-2.76,0 -9.37,-2.2 -11.41,-3.09s-6,-0.72 -8.73,3.6c5.46,2.99 10.45,5.63 12.13,6.36z"/>
       <path id="svg_176" fill="#1959b1" d="m60.10966,278.22511c1.17,0.87 3.7,2.65 6.78,4.73c-0.22,-1.83 -1.11,-7.59 -3.75,-9.85a96.55,96.55 0 0 1 -8.41,-8.77c-0.77,-0.94 -0.59,-3.61 -0.76,-5c-1.3,1.64 -0.9,11.31 -0.9,11.31c1,2.74 4.6,5.83 7.04,7.58z"/>
       <path id="svg_177" fill="#003f97" d="m113.74966,307.47511c-3.84,-0.19 -4.48,-0.67 -7.9,-2.18s-21,-11.14 -27.93,-15.24s-15.36,-10 -17.81,-11.79s-6,-4.84 -7,-7.59a26,26 0 0 0 -0.29,9.32c0.74,5.48 5.6,9 8.76,11.48s23.69,15.09 34.6,20.91s14.86,6.22 18.09,6.22s6.78,-2.6 6.78,-2.6l0.34,-1.58l0,-8l-0.41,-1.17a12.94,12.94 0 0 1 -7.23,2.22z"/>
       <path id="svg_178" fill="#1959b1" d="m113.74966,307.47511c-3.84,-0.19 -4.48,-0.67 -7.9,-2.18s-21,-11.14 -27.93,-15.24s-15.36,-10 -17.81,-11.79s-6,-4.84 -7,-7.59a15.63,15.63 0 0 0 -0.31,1.66a17.09,17.09 0 0 0 4.83,6.57c3.62,2.94 14.38,9.6 20.59,13.44s17.28,10.12 22.36,12.8s9.94,4.25 14.08,4.07a10.66,10.66 0 0 0 6.58,-2.61l0.15,-0.14l-0.41,-1.17a12.94,12.94 0 0 1 -7.23,2.18z"/>
       <g id="svg_179">
        <path id="svg_180" fill="#003f97" d="m125.00966,241.41511c-2.43,-1.37 -22.16,-12.38 -30,-17.08s-21.79,-13.81 -24.22,-15.34a2.88,2.88 0 0 0 -3.11,0c-2.44,4.88 -7.27,15.14 -8.64,19.3c-1.46,4.4 -3.21,11.05 -3.38,11.7a9,9 0 0 0 2.38,4.75c1.75,1.63 7.41,7.4 22.63,16.6s29,15.34 34.06,15.34s5.77,-2.49 6.35,-4.6s4.6,-19 5.76,-23.59s-0.5,-6.33 -1.83,-7.08z"/>
        <path id="svg_181" fill="#2971c9" d="m114.74966,275.38511c-4.13,0 -16.92,-5.2 -33.38,-15.15c-14.13,-8.53 -19.87,-14 -22,-16.06l-0.4,-0.38a7.45,7.45 0 0 1 -1.94,-3.76c0.37,-1.4 2,-7.34 3.28,-11.34s6,-13.95 8.37,-18.73a1.7,1.7 0 0 1 0.64,-0.13a1.49,1.49 0 0 1 0.82,0.26c0.58,0.36 1.82,1.16 3.47,2.22c5.17,3.34 14.8,9.54 20.77,13.13c6.7,4 22.12,12.67 27.93,15.92l2.09,1.18c1.55,0.87 2,2.77 1.23,5.63c-0.57,2.23 -1.81,7.39 -3,12.37c-1.26,5.21 -2.45,10.13 -2.74,11.19c-0.58,1.96 -1.02,3.65 -5.14,3.65z"/>
        <path id="svg_182" fill="#a0d1f9" d="m73.58966,212.31511c-1.65,-1.06 -2.89,-1.86 -3.47,-2.22a1.74,1.74 0 0 0 -0.27,-0.14c-1.75,4.37 -10,25.36 -8.49,26.87c1.7,1.69 6.57,-1.5 8.42,-3c1.52,-1.21 11.88,-10.7 15.52,-14c-4.35,-2.76 -8.75,-5.6 -11.71,-7.51z"/>
        <path id="svg_183" fill="#367ed6" d="m68.21966,231.70511c-1.77,-0.76 -7.45,3.56 -10.62,6.15c-0.28,1 -0.48,1.78 -0.59,2.18a7.45,7.45 0 0 0 1.94,3.76l0.4,0.38c2.15,2.06 7.89,7.53 22,16.06c16.46,9.95 29.25,15.15 33.38,15.15s4.56,-1.69 5.1,-3.65c0.24,-0.86 1.07,-4.29 2,-8.35c-11.23,-6.82 -51.34,-30.71 -53.61,-31.68z"/>
        <path id="svg_184" fill="#367ed6" d="m100.79966,250.95511s-9.07,9 -8.54,10s10.08,8.09 11.5,8s13.83,-8.08 13.83,-8.08s-1.4,-3.67 -6.94,-6.95s-9.85,-2.97 -9.85,-2.97z"/>
        <path id="svg_185" fill="#367ed6" d="m105.19966,247.02511c-1,-0.49 -2.07,-1 -2.51,-0.57s-0.57,1.14 1,2.11s16.64,10.12 17.41,10.61s1.42,0.48 1.86,0s-0.58,-1.15 -1.51,-1.84s-15.07,-9.73 -16.25,-10.31z"/>
        <path id="svg_186" opacity="0.2" fill="#fff" d="m96.62966,226.78511l-2.27,-1.31c-6,-3.59 -15.6,-9.79 -20.77,-13.13c-1.65,-1.06 -2.89,-1.86 -3.47,-2.22a1.49,1.49 0 0 0 -0.82,-0.26a1.7,1.7 0 0 0 -0.64,0.13c-2.37,4.78 -7,14.67 -8.37,18.73s-2.91,9.94 -3.28,11.34a7.45,7.45 0 0 0 1.94,3.76l0.4,0.38a90.06,90.06 0 0 0 11.24,9.08a91.89,91.89 0 0 1 26.04,-26.5z"/>
       </g>
       <path id="svg_187" fill="#1959b1" d="m63.16966,288.73511c-0.19,-0.89 -0.82,-2.07 1,-0.88s11.57,7.1 15.29,9.4s14.52,8.57 16.09,9.3s2.07,1.11 1.56,2.12a2.58,2.58 0 0 1 -3.6,1.2c-1.84,-0.83 -12.94,-7.28 -15.93,-9.17s-11.61,-7.46 -12.35,-7.92s-1.78,-2.81 -2.06,-4.05z"/>
       <path id="svg_188" fill="#001971" d="m95.51966,306.55511c-1.57,-0.73 -12.35,-7 -16.09,-9.3s-13.49,-8.2 -15.29,-9.4l-0.11,-0.07c0,0.11 0.06,0.23 0.08,0.34c0.27,1.24 1.29,3.59 2,4.05s9.35,6 12.35,7.92s14.09,8.34 15.93,9.17a2.8,2.8 0 0 0 2.13,0.16a3.11,3.11 0 0 0 0.53,-0.75c0.54,-1.01 0.03,-1.38 -1.53,-2.12z"/>
       <path id="svg_189" fill="#1959b1" d="m105.09966,314.36511l-2.81,-1.31a2.24,2.24 0 0 1 -1.18,-1.84l0,-1a1,1 0 0 1 0.16,-0.56a0.76,0.76 0 0 0 -0.55,0.83l0,1a2.23,2.23 0 0 0 1.17,1.84l2.82,1.31a0.75,0.75 0 0 0 1,-0.19a1,1 0 0 1 -0.61,-0.08z"/>
       <path id="svg_190" fill="#1959b1" d="m59.86966,288.00511l-2.62,-1.93a3.24,3.24 0 0 1 -1,-2.22l0,-1.05a0.76,0.76 0 0 1 0.24,-0.63c-0.43,-0.22 -0.77,0 -0.78,0.63l0,1.05a3.29,3.29 0 0 0 1,2.22l2.62,1.93c0.39,0.33 0.57,0.35 0.66,0.09l-0.12,-0.09z"/>
       <path id="svg_191" fill="#fff" d="m105.86966,313.90511a0.76,0.76 0 0 1 -1.17,0.74l-2.83,-1.31a2.23,2.23 0 0 1 -1.17,-1.84l0,-1a0.76,0.76 0 0 1 1.17,-0.74l2.82,1.31a2.23,2.23 0 0 1 1.17,1.84l0.01,1z"/>
       <path id="svg_192" fill="#fff" d="m60.05966,287.58511c0,0.73 -0.16,0.91 -0.72,0.42l-2.62,-1.93a3.29,3.29 0 0 1 -1,-2.22l0,-1.05c0,-0.74 0.49,-0.94 1.05,-0.46l2.44,2.11a3,3 0 0 1 0.91,2.14l-0.06,0.99z"/>
       <path id="svg_193" opacity="0.3" fill="#438be3" d="m104.70966,311.04511l-2.84,-1.31a0.79,0.79 0 0 0 -1,0.1a0.93,0.93 0 0 1 0.62,0.09l2.81,1.31a2.22,2.22 0 0 1 1.18,1.85l0,1a0.93,0.93 0 0 1 -0.22,0.65a0.77,0.77 0 0 0 0.56,-0.83l0,-1a2.23,2.23 0 0 0 -1.11,-1.86z"/>
       <path id="svg_194" opacity="0.3" fill="#438be3" d="m59.23966,284.47511l-2.44,-2.11c-0.47,-0.4 -0.87,-0.32 -1,0.15a0.81,0.81 0 0 1 0.6,0.25l2.45,2.12a3,3 0 0 1 0.91,2.14l-0.09,1a1.85,1.85 0 0 1 0,0.24c0.31,0.16 0.4,-0.07 0.41,-0.64l0.09,-1a3,3 0 0 0 -0.93,-2.15z"/>
       <path id="svg_195" fill="#fff" d="m114.18966,307.23511l-0.43,0a14.28,14.28 0 0 1 -6.72,-1.68l-1.1,-0.49c-1.5,-0.66 -5.94,-3 -11.91,-6.24c2.12,-3.25 4.79,-3.73 6.2,-3.73a5.41,5.41 0 0 1 2.14,0.41c2.05,0.9 8.68,3.06 11.48,3.1l0.14,0a29.1,29.1 0 0 0 6.74,-1.19l0,7.74a13,13 0 0 1 -6.54,2.09l0,-0.01z"/>
       <path id="svg_196" fill="#fff" d="m66.60966,282.47511c-2.83,-1.92 -5.22,-3.6 -6.37,-4.45c-2.16,-1.59 -5.92,-4.68 -7,-7.47c-0.09,-2.37 -0.15,-8.19 0.53,-10.43c0,0.19 0,0.38 0,0.59c0.06,1.4 0.13,3 0.73,3.73a96.83,96.83 0 0 0 8.42,8.79c2.47,2.08 3.4,7.15 3.69,9.24z"/>
       <path id="svg_197" opacity="0.1" fill="#438be3" d="m114.18966,307.23511l-0.43,0a14.28,14.28 0 0 1 -6.72,-1.68l-1.1,-0.49c-1.5,-0.66 -5.94,-3 -11.91,-6.24c2.12,-3.25 4.79,-3.73 6.2,-3.73a5.41,5.41 0 0 1 2.14,0.41c2.05,0.9 8.68,3.06 11.48,3.1l0.14,0a29.1,29.1 0 0 0 6.74,-1.19l0,7.74a13,13 0 0 1 -6.54,2.09l0,-0.01z"/>
       <path id="svg_198" opacity="0.1" fill="#438be3" d="m66.60966,282.47511c-2.83,-1.92 -5.22,-3.6 -6.37,-4.45c-2.16,-1.59 -5.92,-4.68 -7,-7.47c-0.09,-2.37 -0.15,-8.19 0.53,-10.43c0,0.19 0,0.38 0,0.59c0.06,1.4 0.13,3 0.73,3.73a96.83,96.83 0 0 0 8.42,8.79c2.47,2.08 3.4,7.15 3.69,9.24z"/>
       <path id="svg_199" fill="#fff" d="m105.16966,300.97511c0,1.83 -1.28,2.58 -2.87,1.66a6.37,6.37 0 0 1 -2.87,-5c0,-1.83 1.29,-2.57 2.87,-1.66a6.35,6.35 0 0 1 2.87,5z"/>
       <path id="svg_200" fill="#fff" d="m112.48966,304.05511c0,1.63 -1.14,2.29 -2.56,1.48a5.66,5.66 0 0 1 -2.55,-4.43c0,-1.63 1.14,-2.29 2.55,-1.47a5.61,5.61 0 0 1 2.56,4.42z"/>
       <path id="svg_201" fill="#fff" d="m118.06966,302.67511c0,1 -0.72,1.44 -1.62,0.93a3.58,3.58 0 0 1 -1.61,-2.8c0,-1 0.72,-1.45 1.61,-0.93a3.57,3.57 0 0 1 1.62,2.8z"/>
       <path id="svg_202" fill="#fff" d="m63.45966,275.90511a2.42,2.42 0 0 1 -0.42,1.49l0,0a1.38,1.38 0 0 1 -1,0.55l0,0a2.6,2.6 0 0 1 -1.4,-0.39a6.35,6.35 0 0 1 -2.87,-5a3,3 0 0 1 0.17,-1.05a1.48,1.48 0 0 1 1.14,-1l0.08,0a2.23,2.23 0 0 1 1.29,0.28c0.7,0.7 1.39,1.37 2,2a5.93,5.93 0 0 1 1.01,3.12z"/>
       <path id="svg_203" fill="#fff" d="m57.80966,270.53511a2.15,2.15 0 0 1 -0.38,1.33l0,0a1.24,1.24 0 0 1 -0.91,0.49l0,0a2.27,2.27 0 0 1 -1.25,-0.35a5.43,5.43 0 0 1 -2,-2.27l0,0c0,-1 0,-2.31 0,-3.65l0,0a1.28,1.28 0 0 1 0.68,-0.3l0,0a2.1,2.1 0 0 1 1.33,0.34a5.64,5.64 0 0 1 2.53,4.41z"/>
       <polygon id="svg_204" fill="#003f97" points="137.5596466064453,239.5251007080078 141.94967651367188,236.9651336669922 141.94967651367188,239.37510681152344 137.5596466064453,239.5251007080078 "/>
       <path id="svg_205" fill="#1959b1" d="m140.05966,272.56511c0,0.72 -0.5,1 -1.11,0.63l-5.75,-3.47a2.55,2.55 0 0 1 -1.11,-2l0,-13.54c0,-0.71 0.5,-1 1.11,-0.62l5.75,3.46a2.57,2.57 0 0 1 1.11,2l0,13.54z"/>
       <polygon id="svg_206" fill="#003f97" points="133.77969360351562,278.0351257324219 132.36965942382812,279.1850891113281 132.36965942382812,283.1151123046875 133.77969360351562,282.6151428222656 135.42965698242188,282.7951354980469 135.42965698242188,279.26513671875 133.77969360351562,278.0351257324219 "/>
       <path id="svg_207" fill="#1959b1" d="m133.77966,278.03511a14,14 0 0 1 -1.41,1.15l3.06,0.08l-1.65,-1.23z"/>
       <path id="svg_208" fill="#003f97" d="m134.98966,260.23511c-0.84,0 -1,-0.29 -1.2,-0.59s-1,-4.62 -1.31,-6.2a0.73,0.73 0 0 0 -0.39,0.74l0,13.58a2.55,2.55 0 0 0 1.11,2l5.75,3.47c0.61,0.37 1.11,0.09 1.11,-0.63l0,-13.61a2.24,2.24 0 0 0 -0.26,-1c-1.46,0.81 -4.21,2.24 -4.81,2.24z"/>
       <rect id="svg_209" fill="#003f97" height="12.96" width="0.86" y="269.43511" x="134.27966"/>
       <path id="svg_210" fill="#003f97" d="m134.70966,260.66511a0.43,0.43 0 0 1 -0.43,-0.43l0,-7.76a12.54,12.54 0 0 1 1.89,-6c1,-1.78 4.18,-7.91 4.21,-8a0.44,0.44 0 0 1 0.59,-0.18a0.43,0.43 0 0 1 0.18,0.58c0,0.06 -3.22,6.21 -4.22,8a11.46,11.46 0 0 0 -1.78,5.62l0,7.72a0.44,0.44 0 0 1 -0.44,0.45z"/>
      </g>
     </g>
    </g>
    <g id="svg_211">
     <g id="svg_212" clip-path="url(#clip-path-3)">
      <g id="truck1">
       <path id="svg_213" opacity="0.1" fill="#438be3" d="m52.12966,286.90511l175.13,-101.11l89.79,51.83l-110.95,44l-0.05,20.07l-21.07,12.17l-7.34,-4.24l-45.77,26.46c-9.5,4.53 -24.39,-1.35 -34.34,-6.92l-41.88,-24.18c-10.78,-6.51 -11.51,-13.46 -3.52,-18.08z"/>
       <polygon id="svg_214" fill="#003f97" points="295.2296447753906,212.54513549804688 153.22962951660156,294.52508544921875 153.22962951660156,277.2351379394531 295.2296447753906,195.26512145996094 295.2296447753906,212.54513549804688 "/>
       <polygon id="svg_215" fill="#1959b1" points="257.4896545410156,169.84510803222656 115.4896469116211,251.81512451171875 153.22962951660156,277.2351379394531 295.2296447753906,195.26512145996094 257.4896545410156,169.84510803222656 "/>
       <polygon id="svg_216" fill="#00267e" points="287.0596618652344,226.5150909423828 286.0596618652344,229.3051300048828 271.9696350097656,221.23512268066406 274.5496520996094,215.75511169433594 283.1496887207031,219.22512817382812 287.0596618652344,226.5150909423828 "/>
       <g id="svg_217">
        <path id="svg_218" fill="#00267e" d="m280.04966,222.47511l-10.67,-6.39c-2.39,-1.36 -5.68,-1.15 -9.32,0.95c-7.29,4.22 -13.19,14.44 -13.19,22.9c0,4.25 1.5,7.22 3.92,8.59l10.68,6.38c2.39,1.35 5.67,1.14 9.3,-1c7.3,-4.21 13.22,-14.46 13.22,-22.89c-0.03,-4.19 -1.52,-7.16 -3.94,-8.54z"/>
        <path id="svg_219" fill="#003f97" d="m283.95966,231.05511c0,8.43 -5.92,18.68 -13.22,22.89c-3.63,2.1 -6.91,2.31 -9.3,1s-3.92,-4.34 -3.92,-8.59c0,-8.43 5.92,-18.67 13.22,-22.89c3.63,-2.1 6.92,-2.31 9.31,-0.94s3.91,4.3 3.91,8.53z"/>
        <path id="svg_220" fill="#00267e" d="m283.14966,232.03511c0,7.68 -5.39,17 -12,20.87s-12,0.72 -12,-7s5.39,-17 12,-20.86s12,-0.69 12,6.99z"/>
        <path id="svg_221" fill="#fff" d="m279.19966,234.09511c0,5.17 -3.63,11.44 -8.09,14s-8.1,0.49 -8.1,-4.67s3.62,-11.44 8.1,-14s8.09,-0.49 8.09,4.67z"/>
        <path id="svg_222" opacity="0.2" fill="#438be3" d="m279.19966,234.09511c0,5.17 -3.63,11.44 -8.09,14s-8.1,0.49 -8.1,-4.67s3.62,-11.44 8.1,-14s8.09,-0.49 8.09,4.67z"/>
        <path id="svg_223" fill="#003f97" d="m277.56966,234.41511a15.35,15.35 0 0 1 -7,12c-3.83,2.22 -7,0.42 -7,-4a15.38,15.38 0 0 1 7,-12c3.88,-2.22 7,-0.43 7,4z"/>
        <path id="svg_224" fill="url(#linear-gradient-14)" d="m271.10966,230.05511a10.59,10.59 0 0 0 -1.16,0.77q0.33,-0.22 0.66,-0.42c3.84,-2.21 7,-0.42 7,4a15.35,15.35 0 0 1 -7,12c-3.83,2.22 -7,0.42 -7,-4a10.16,10.16 0 0 1 0.14,-1.63a11.75,11.75 0 0 0 -0.25,2.32c0,4.81 3.38,6.77 7.56,4.36a16.7,16.7 0 0 0 7.55,-13.08c0.05,-4.79 -3.34,-6.73 -7.5,-4.32z"/>
        <path id="svg_225" fill="url(#linear-gradient-15)" d="m277.12966,234.60511a14.68,14.68 0 0 1 -6.63,11.49c-3.67,2.11 -6.64,0.4 -6.64,-3.84a14.64,14.64 0 0 1 6.64,-11.48c3.66,-2.12 6.63,-0.4 6.63,3.83z"/>
        <path id="svg_226" fill="url(#linear-gradient-16)" d="m275.86966,236.73511a10,10 0 0 1 -4.53,7.85c-2.5,1.44 -4.53,0.28 -4.53,-2.62a10,10 0 0 1 4.53,-7.84c2.53,-1.45 4.53,-0.28 4.53,2.61z"/>
        <g id="svg_227">
         <path id="svg_228" fill="#003f97" d="m271.08966,232.54511c0.12,0.54 -0.06,1 -0.42,1.12s-0.75,-0.27 -0.88,-0.81s0.06,-1 0.42,-1.12s0.75,0.28 0.88,0.81z"/>
         <path id="svg_229" fill="#003f97" d="m265.40966,239.95511c0.55,0.08 0.94,0.43 0.89,0.8s-0.53,0.59 -1.07,0.52s-0.94,-0.43 -0.89,-0.8s0.53,-0.6 1.07,-0.52z"/>
         <path id="svg_230" fill="#003f97" d="m265.68966,244.16511c0.49,-0.23 1,-0.23 1.1,0s-0.2,0.62 -0.7,0.85s-1,0.23 -1.1,0s0.2,-0.62 0.7,-0.85z"/>
         <path id="svg_231" fill="#003f97" d="m268.12966,245.88511c0.21,-0.34 0.52,-0.53 0.71,-0.43s0.16,0.48 -0.05,0.83s-0.52,0.53 -0.7,0.42s-0.16,-0.47 0.04,-0.82z"/>
         <path id="svg_232" fill="#003f97" d="m267.78966,235.47511a0.76,0.76 0 1 1 -0.8,1.21a0.76,0.76 0 1 1 0.8,-1.21z"/>
         <path id="svg_233" fill="#003f97" d="m274.54966,231.72511c0,0.55 -0.28,1 -0.6,1s-0.56,-0.47 -0.54,-1s0.29,-1 0.6,-1s0.56,0.46 0.54,1z"/>
         <path id="svg_234" fill="#003f97" d="m276.56966,234.89511c-0.31,0.21 -0.66,0.21 -0.79,0s0,-0.51 0.33,-0.71s0.66,-0.22 0.79,0s-0.03,0.5 -0.33,0.71z"/>
         <path id="svg_235" fill="#003f97" d="m276.01966,238.60511c-0.14,0 -0.21,-0.21 -0.16,-0.41s0.18,-0.33 0.31,-0.3s0.21,0.21 0.16,0.41s-0.18,0.33 -0.31,0.3z"/>
         <path id="svg_236" fill="#003f97" d="m271.71966,245.20511c-0.12,0 -0.26,-0.06 -0.32,-0.22a0.28,0.28 0 0 1 0.13,-0.36c0.12,0 0.26,0.06 0.31,0.22a0.27,0.27 0 0 1 -0.12,0.36z"/>
         <path id="svg_237" fill="#003f97" d="m274.75966,241.72511a0.21,0.21 0 0 1 -0.29,0.08a0.22,0.22 0 0 1 0,-0.3a0.21,0.21 0 0 1 0.29,-0.08a0.21,0.21 0 0 1 0,0.3z"/>
        </g>
        <path id="svg_238" fill="#fff" d="m274.29966,238.18511a5.94,5.94 0 0 1 -2.67,4.63c-1.48,0.85 -2.67,0.16 -2.67,-1.55a5.88,5.88 0 0 1 2.67,-4.62c1.47,-0.85 2.67,-0.17 2.67,1.54z"/>
        <path id="svg_239" fill="url(#linear-gradient-17)" d="m274.55966,238.47511a5.74,5.74 0 0 1 -2.59,4.49c-1.43,0.82 -2.59,0.15 -2.59,-1.5a5.74,5.74 0 0 1 2.59,-4.49c1.43,-0.86 2.59,-0.18 2.59,1.5z"/>
       </g>
       <path id="svg_240" fill="#1959b1" d="m282.31966,215.76511l0,0l-13,-7.81c-3.21,-1.25 -7.34,-0.74 -11.86,1.87c-10.19,5.88 -18.46,20.2 -18.46,32l0,0l12.35,7.54l2.23,-1.3l0,0c0,-10.35 7.26,-22.93 16.22,-28.1s16.23,-1 16.23,9.37l2.23,-1.29c0.03,-6.25 -2.27,-10.51 -5.94,-12.28z"/>
       <path id="svg_241" fill="#003f97" d="m253.60966,248.03511l0,0c0,-10.35 7.26,-22.93 16.22,-28.1s16.23,-1 16.23,9.37l0,0l2.23,-1.29l0,0c0,-11.77 -8.26,-16.55 -18.46,-10.66s-18.45,20.2 -18.45,32l0,0l2.23,-1.32z"/>
       <polygon id="svg_242" fill="#00267e" points="164.26968383789062,294.4950866699219 157.27963256835938,292.9950866699219 151.26968383789062,283.0351257324219 159.86965942382812,282.0151062011719 164.26968383789062,294.4950866699219 "/>
       <g id="svg_243">
        <path id="svg_244" fill="#00267e" d="m158.67966,287.52511l-10.68,-6.38c-2.39,-1.36 -5.68,-1.16 -9.31,0.94c-7.3,4.21 -13.22,14.47 -13.22,22.9c0,4.24 1.5,7.21 3.92,8.58l10.67,6.38c2.39,1.35 5.68,1.15 9.31,-1c7.3,-4.21 13.21,-14.47 13.21,-22.9c0,-4.18 -1.49,-7.15 -3.9,-8.52z"/>
        <path id="svg_245" fill="#003f97" d="m162.57966,296.09511c0,8.43 -5.91,18.69 -13.21,22.9c-3.63,2.1 -6.92,2.3 -9.31,1s-3.91,-4.34 -3.91,-8.59c0,-8.42 5.91,-18.68 13.22,-22.89c3.63,-2.09 6.92,-2.3 9.31,-0.94s3.9,4.29 3.9,8.52z"/>
        <path id="svg_246" fill="#00267e" d="m161.76966,297.07511c0,7.68 -5.39,17 -12,20.87s-12.05,0.73 -12.05,-7s5.4,-17 12.05,-20.86s12,-0.69 12,6.99z"/>
        <path id="svg_247" fill="#fff" d="m157.86966,299.13511c0,5.17 -3.62,11.45 -8.09,14s-8.1,0.49 -8.1,-4.68s3.63,-11.44 8.1,-14s8.09,-0.48 8.09,4.68z"/>
        <path id="svg_248" opacity="0.2" fill="#438be3" d="m157.86966,299.13511c0,5.17 -3.62,11.45 -8.09,14s-8.1,0.49 -8.1,-4.68s3.63,-11.44 8.1,-14s8.09,-0.48 8.09,4.68z"/>
        <path id="svg_249" fill="#003f97" d="m156.18966,299.47511a15.37,15.37 0 0 1 -7,12c-3.84,2.21 -6.95,0.42 -6.95,-4a15.37,15.37 0 0 1 6.95,-12c3.89,-2.24 7,-0.45 7,4z"/>
        <path id="svg_250" fill="url(#linear-gradient-18)" d="m149.72966,295.09511a9.61,9.61 0 0 0 -1.15,0.77l0.66,-0.42c3.84,-2.21 7,-0.42 7,4a15.37,15.37 0 0 1 -7,12c-3.84,2.21 -6.95,0.42 -6.95,-4a11.28,11.28 0 0 1 0.13,-1.62a12.36,12.36 0 0 0 -0.25,2.31c0,4.81 3.39,6.77 7.56,4.36a16.69,16.69 0 0 0 7.55,-13.02c0,-4.84 -3.41,-6.79 -7.55,-4.38z"/>
        <path id="svg_251" fill="url(#linear-gradient-19)" d="m155.75966,299.64511a14.7,14.7 0 0 1 -6.63,11.49c-3.67,2.11 -6.64,0.4 -6.64,-3.83a14.65,14.65 0 0 1 6.64,-11.49c3.65,-2.11 6.63,-0.4 6.63,3.83z"/>
        <path id="svg_252" fill="url(#linear-gradient-20)" d="m154.49966,301.78511a10,10 0 0 1 -4.53,7.84c-2.5,1.44 -4.53,0.28 -4.53,-2.61a10,10 0 0 1 4.53,-7.85c2.5,-1.44 4.53,-0.27 4.53,2.62z"/>
        <g id="svg_253">
         <path id="svg_254" fill="#003f97" d="m149.70966,297.59511c0.13,0.53 -0.06,1 -0.42,1.12s-0.75,-0.28 -0.88,-0.82s0.07,-1 0.42,-1.11s0.75,0.27 0.88,0.81z"/>
         <path id="svg_255" fill="#003f97" d="m144.03966,304.99511c0.54,0.08 0.94,0.43 0.89,0.8s-0.54,0.6 -1.08,0.52s-0.94,-0.43 -0.89,-0.8s0.54,-0.6 1.08,-0.52z"/>
         <path id="svg_256" fill="#003f97" d="m144.30966,309.20511c0.5,-0.23 1,-0.22 1.1,0s-0.2,0.62 -0.7,0.85s-1,0.23 -1.1,0s0.2,-0.58 0.7,-0.85z"/>
         <path id="svg_257" fill="#003f97" d="m146.75966,310.92511c0.2,-0.34 0.52,-0.53 0.7,-0.42s0.16,0.47 0,0.82s-0.52,0.53 -0.7,0.42s-0.21,-0.48 0,-0.82z"/>
         <path id="svg_258" fill="#003f97" d="m146.41966,300.47511a0.77,0.77 0 1 1 -0.81,1.22c-0.46,-0.31 -0.65,-0.83 -0.42,-1.16a0.89,0.89 0 0 1 1.23,-0.06z"/>
         <path id="svg_259" fill="#003f97" d="m153.17966,296.77511c0,0.54 -0.29,1 -0.61,1s-0.56,-0.46 -0.54,-1s0.29,-1 0.61,-1s0.56,0.45 0.54,1z"/>
         <path id="svg_260" fill="#003f97" d="m155.19966,299.93511c-0.31,0.21 -0.66,0.22 -0.79,0s0,-0.52 0.33,-0.72s0.66,-0.22 0.78,0s-0.02,0.52 -0.32,0.72z"/>
         <path id="svg_261" fill="#003f97" d="m154.63966,303.64511c-0.13,0 -0.2,-0.21 -0.16,-0.41s0.19,-0.33 0.32,-0.3s0.21,0.21 0.16,0.41s-0.19,0.33 -0.32,0.3z"/>
         <path id="svg_262" fill="#003f97" d="m150.34966,310.25511a0.29,0.29 0 0 1 -0.32,-0.23a0.24,0.24 0 1 1 0.44,-0.14a0.3,0.3 0 0 1 -0.12,0.37z"/>
         <path id="svg_263" fill="#003f97" d="m153.38966,306.77511a0.21,0.21 0 0 1 -0.29,0.07a0.21,0.21 0 0 1 0,-0.3a0.2,0.2 0 1 1 0.31,0.23l-0.02,0z"/>
        </g>
        <path id="svg_264" fill="#fff" d="m152.92966,303.22511a5.91,5.91 0 0 1 -2.67,4.63c-1.48,0.85 -2.68,0.16 -2.68,-1.54a5.89,5.89 0 0 1 2.68,-4.63c1.47,-0.85 2.67,-0.16 2.67,1.54z"/>
        <path id="svg_265" fill="url(#linear-gradient-21)" d="m153.18966,303.47511a5.73,5.73 0 0 1 -2.6,4.49c-1.43,0.83 -2.59,0.16 -2.59,-1.5a5.74,5.74 0 0 1 2.59,-4.49c1.44,-0.81 2.6,-0.14 2.6,1.5z"/>
       </g>
       <path id="svg_266" fill="#003f97" d="m163.25966,295.53511s-0.27,-14.71 -10.33,-11.27s-17.75,19 -17.75,19l1,-11.6l14.86,-10.8s9.09,-4.25 11.57,1.82a32.14,32.14 0 0 1 2.26,11.79l-1.61,1.06z"/>
       <g id="svg_267">
        <polygon id="svg_268" fill="#1959b1" points="190.09963989257812,265.66510009765625 193.23965454101562,272.6451416015625 193.23965454101562,275.0351257324219 195.87966918945312,273.5050964355469 195.87966918945312,272.2351379394531 192.47964477539062,264.29510498046875 190.09963989257812,265.66510009765625 "/>
        <polygon id="svg_269" fill="#003f97" points="248.64968872070312,247.4851531982422 248.64968872070312,245.62513732910156 246.45968627929688,244.36512756347656 180.42965698242188,282.465087890625 180.42965698242188,288.19512939453125 182.14968872070312,289.2351379394531 248.17965698242188,251.14511108398438 248.17965698242188,249.63510131835938 247.79965209960938,249.38510131835938 247.79965209960938,247.98512268066406 248.64968872070312,247.4851531982422 "/>
        <polygon id="svg_270" fill="#003f97" points="182.61965942382812,285.5850830078125 181.76968383789062,285.1751403808594 181.76968383789062,287.4851379394531 247.79965209960938,249.38510131835938 247.79965209960938,247.98512268066406 182.61965942382812,285.5850830078125 "/>
        <polygon id="svg_271" fill="#1959b1" points="246.45968627929688,244.36512756347656 180.42965698242188,282.465087890625 182.61965942382812,283.7251281738281 248.64968872070312,245.62513732910156 246.45968627929688,244.36512756347656 "/>
        <polygon id="svg_272" fill="#1959b1" points="248.17965698242188,249.63510131835938 182.14968872070312,287.7251281738281 181.76968383789062,287.4851379394531 247.79965209960938,249.38510131835938 248.17965698242188,249.63510131835938 "/>
        <polygon id="svg_273" fill="#1959b1" points="228.90963745117188,243.2951202392578 232.04965209960938,250.27508544921875 232.04965209960938,252.65512084960938 234.68966674804688,251.13510131835938 234.68966674804688,249.86514282226562 231.28964233398438,241.9151153564453 228.90963745117188,243.2951202392578 "/>
        <polygon id="svg_274" fill="#003f97" points="228.90963745117188,243.2951202392578 232.04965209960938,250.27508544921875 232.04965209960938,252.65512084960938 233.36965942382812,251.8951416015625 233.36965942382812,250.27508544921875 230.08963012695312,242.60511779785156 228.90963745117188,243.2951202392578 "/>
        <polygon id="svg_275" fill="#003f97" points="190.09963989257812,265.66510009765625 193.23965454101562,272.6451416015625 193.23965454101562,275.0351257324219 194.5596466064453,274.26513671875 194.5596466064453,272.6451416015625 191.27963256835938,264.985107421875 190.09963989257812,265.66510009765625 "/>
       </g>
       <g id="svg_276">
        <g id="svg_277">
         <polygon id="svg_278" fill="#003f97" points="235.46963500976562,175.1551055908203 306.1196594238281,215.94512939453125 306.1196594238281,211.6251220703125 235.46963500976562,170.8351287841797 235.46963500976562,175.1551055908203 "/>
         <polygon id="svg_279" fill="#1959b1" points="236.67965698242188,170.1651153564453 307.3296813964844,210.95510864257812 306.1196594238281,211.6251220703125 235.46963500976562,170.8351287841797 236.67965698242188,170.1651153564453 "/>
         <polygon id="svg_280" fill="#003f97" points="307.3396301269531,215.22512817382812 306.1196594238281,215.94512939453125 306.1196594238281,211.6251220703125 307.3396301269531,210.91513061523438 307.3396301269531,215.22512817382812 "/>
        </g>
        <polygon id="svg_281" fill="#003f97" points="234.25967407226562,164.8251190185547 308.5496520996094,207.7051239013672 308.5496520996094,200.22512817382812 234.25967407226562,157.33511352539062 234.25967407226562,164.8251190185547 "/>
        <polygon id="svg_282" fill="#003f97" points="312.4696350097656,197.9551239013672 312.4696350097656,205.44512939453125 308.5496520996094,207.7051239013672 308.5496520996094,200.22512817382812 312.4696350097656,197.9551239013672 "/>
        <polygon id="svg_283" fill="#fff" points="106.95967864990234,145.55511474609375 238.15963745117188,69.89511108398438 312.4596862792969,112.79512786865234 312.4696350097656,197.99513244628906 181.24966430664062,273.3150939941406 106.95967864990234,230.4251251220703 106.95967864990234,145.55511474609375 "/>
        <polygon id="svg_284" opacity="0.2" fill="#438be3" points="312.4596862792969,112.79512786865234 181.30966186523438,188.51512145996094 181.24966430664062,273.3150939941406 312.4696350097656,197.99513244628906 312.4596862792969,112.79512786865234 "/>
        <path id="svg_285" opacity="0.3" fill="#438be3" d="m106.95966,145.55511l0,84.92l74.29,42.89l0.06,-84.76l-74.35,-43.05z"/>
       </g>
       <path id="svg_286" fill="#fff" d="m158.91966,217.19511c2.65,2.66 5.08,4.7 6.1,15.32a303.71,303.71 0 0 1 1,32.67l-0.73,1.32l0.5,1.1l0,7.25s-15.14,7.57 -20.4,12.44s-10,13.05 -10.91,19.83l-13.34,7.58l-0.34,1.58s-3.56,2.6 -6.78,2.6s-7.18,-0.39 -18.09,-6.22s-31.43,-18.48 -34.6,-20.91s-8,-6 -8.76,-11.47a26.29,26.29 0 0 1 0.29,-9.33s-0.4,-9.67 0.9,-11.31c0,0 0,-9.78 -0.11,-10.8s1.81,-8.48 1.81,-8.48s1.86,-7.12 3.39,-11.75s7.34,-16.85 9.38,-20.75s5.82,-6.5 8.59,-8.31s20.48,-12.08 22.8,-13.28s5,-1.53 9.89,0.74s19.33,10.28 24.93,13.79s22.16,14.08 24.48,16.39z"/>
       <path id="svg_287" opacity="0.2" fill="#438be3" d="m165.24966,266.47511l0.73,-1.32a303.71,303.71 0 0 0 -1,-32.67c-0.54,-5.57 -1.46,-8.78 -2.59,-10.95a3.81,3.81 0 0 0 -2.56,0.54c-3.37,1.88 -16.27,9.91 -20.06,12.32s-9.55,5.95 -10.68,9.37s-7.22,28 -8,31.29s-2,8.2 -3.76,10.11s-11.89,1.83 -16.28,-0.58s-31.25,-17.53 -36.46,-21.35c-3.79,-2.77 -8.12,-7.68 -10.91,-10.62c0,3.13 0,7 0,7c-1.3,1.64 -0.9,11.31 -0.9,11.31a26.29,26.29 0 0 0 -0.29,9.33c0.74,5.48 5.6,9 8.76,11.47s23.69,15.09 34.6,20.91s14.86,6.22 18.09,6.22s6.78,-2.6 6.78,-2.6l0.34,-1.58l13.34,-7.58c0.9,-6.78 5.65,-15 10.91,-19.83s20.4,-12.44 20.4,-12.44l0,-7.25c-2.76,1.45 -18.57,11.66 -22,15.11s-22.66,24.32 -22.66,24.32l-0.28,-1.1s19.52,-21.14 22.94,-24.6s18.78,-13.35 21.54,-14.83zm-44.56,21.6l0.08,-1.59l4,-3.85s32,-42.51 32,-42.62s1.82,-9.91 2.9,-9.46s1.84,11.85 1.71,15s-1.84,4.93 -4,7.74s-11.72,12.24 -16.1,16.56s-20.59,18.25 -20.59,18.25l0,-0.03z"/>
       <path id="svg_288" fill="url(#linear-gradient-22)" opacity="0.2" d="m162.42966,211.47511a3.83,3.83 0 0 0 -2.56,0.55c-3.37,1.88 -16.27,9.9 -20.06,12.31s-9.55,6 -10.68,9.37s-7.22,28 -8,31.3s-2,8.2 -3.76,10.1s-11.89,1.84 -16.28,-0.57s-31.25,-17.54 -36.46,-21.35c-3.79,-2.77 -8.12,-7.69 -10.91,-10.63c0,3.13 0,7 0,7c-1.3,1.64 -0.9,11.3 -0.9,11.3a26.32,26.32 0 0 0 -0.29,9.33c0.74,5.48 5.6,9 8.76,11.47s23.69,15.1 34.6,20.92s14.86,6.22 18.09,6.22s6.78,-2.6 6.78,-2.6l0.34,-1.59l13.34,-7.57c0.9,-6.78 5.65,-15 10.91,-19.84s20.4,-12.43 20.4,-12.43l0,-7.25l-0.5,-1.11l0.73,-1.31a303.64,303.64 0 0 0 -1,-32.67c-0.5,-5.55 -1.42,-8.76 -2.55,-10.95z"/>
       <path id="svg_289" opacity="0.2" fill="#438be3" d="m143.75966,280.68511c-3.42,3.46 -22.94,24.6 -22.94,24.6l0,0.65s19.52,-21.14 22.94,-24.6s18.73,-13.38 21.49,-14.83l0.5,-0.93c-2.76,1.45 -18.57,11.66 -21.99,15.11z"/>
       <polygon id="svg_290" opacity="0.2" fill="#438be3" points="124.59969329833984,282.0151062011719 120.69966888427734,285.6151428222656 120.7696762084961,286.52508544921875 124.80965423583984,282.66510009765625 124.59969329833984,282.0151062011719 "/>
       <path id="svg_291" opacity="0.3" fill="#438be3" d="m135.32966,303.21511l-14.64,8.09l0.41,3.4l13.34,-7.58a23.52,23.52 0 0 1 0.89,-3.91z"/>
       <path id="svg_292" fill="url(#linear-gradient-23)" opacity="0.3" d="m74.20966,201.32511a19.81,19.81 0 0 0 -6,6.54c-2,3.9 -7.86,16.11 -9.38,20.75s-3.39,11.75 -3.39,11.75s-1.93,7.47 -1.81,8.48c0,0.38 0.07,2 0.08,3.8c2.79,2.94 7.12,7.85 10.91,10.62c5.21,3.82 32.07,18.94 36.46,21.35s14.55,2.48 16.28,0.58s2.95,-6.8 3.76,-10.11s6.89,-27.88 8,-31.29c0.63,-1.91 2.71,-3.86 5.07,-5.62l-59.98,-36.85z"/>
       <path id="svg_293" fill="#1959b1" d="m120.79966,305.57511l-0.21,0l0,-22s4.25,-18.73 5,-22.09c0.62,-2.7 3.35,-13.77 4.24,-15.24s6,-5.51 8.48,-6.73c2,-1 8.06,-4.57 12.07,-6.95l2.49,-1.47c0.45,-0.26 0.91,-0.54 1.37,-0.83c2.24,-1.37 4.55,-2.8 6,-2.39a1.54,1.54 0 0 1 1,0.85c1.19,2.33 2.06,8 2.33,15.15s0.59,20.32 0,22.9l-0.38,1.06l0.32,1.19l-4.15,9.31l-0.2,-0.08l4.12,-9.25l-0.32,-1.18l0.4,-1.11c0.58,-2.54 0.27,-15.55 0,-22.83c-0.26,-7 -1.14,-12.79 -2.3,-15.06a1.32,1.32 0 0 0 -0.85,-0.74c-1.35,-0.38 -3.73,1.08 -5.82,2.37l-1.37,0.83c-0.63,0.36 -1.49,0.87 -2.5,1.47c-4,2.37 -10.08,6 -12.09,7c-2.43,1.2 -7.52,5.24 -8.38,6.64s-3.49,12 -4.21,15.18c-0.77,3.36 -5,22.07 -5,22.07l-0.04,21.93z"/>
       <rect id="svg_294" fill="#1959b1" height="10.54" width="0.22" y="288.10511" x="109.23966"/>
       <rect id="svg_295" fill="#1959b1" height="10.84" width="0.22" y="258.34511" x="57.35966"/>
       <polygon id="svg_296" fill="#1959b1" points="102.93965911865234,284.15509033203125 102.7896957397461,283.9950866699219 111.2796859741211,275.6351013183594 111.42964935302734,275.7851257324219 102.93965911865234,284.15509033203125 "/>
       <rect transform="rotate(-4.6 -385.58 13.3651)" id="svg_297" fill="#1959b1" height="13.74" width="0.22" y="278.21511" x="38.02966"/>
       <polygon id="svg_298" fill="#003f97" points="137.61965942382812,312.0451354980469 126.95967864990234,318.2051086425781 126.95967864990234,319.2550964355469 137.61965942382812,313.1651306152344 137.61965942382812,312.0451354980469 "/>
       <polygon id="svg_299" fill="#003f97" points="132.86965942382812,308.0151062011719 132.86965942382812,309.3450927734375 122.3996810913086,315.5650939941406 122.2596664428711,314.0451354980469 132.86965942382812,308.0151062011719 "/>
       <polygon id="svg_300" fill="#003f97" points="126.95967864990234,318.2051086425781 122.3996810913086,315.5650939941406 122.2596664428711,314.0451354980469 121.09969329833984,314.7051086425781 120.83968353271484,316.3450927734375 120.05965423583984,316.7550964355469 121.9996566772461,318.0050964355469 126.95967864990234,319.2550964355469 126.95967864990234,318.2051086425781 "/>
       <polygon id="svg_301" fill="#1959b1" points="137.61965942382812,312.0451354980469 132.86965942382812,309.3450927734375 122.3996810913086,315.5650939941406 126.95967864990234,318.2051086425781 137.61965942382812,312.0451354980469 "/>
       <path id="svg_302" fill="#1959b1" d="m100.86966,282.47511a209.47,209.47 0 0 1 -24.53,-13c-9,-5.84 -15,-10.53 -16.25,-11.54c-0.21,-0.18 -0.55,-0.47 -1,-0.85l1.33,4.88l0,0c1.83,1.42 7.79,5.63 16.1,11a205.4,205.4 0 0 0 24.35,12.91l0.23,0.1l2.32,-2.44c-0.92,-0.31 -1.77,-0.65 -2.55,-1.06z"/>
       <path id="svg_303" fill="#003f97" d="m58.56966,229.33511q0.12,-0.37 0.24,-0.72l0,-0.11c-3.93,-1.81 -4.27,-2.6 -4.27,-3.42l0,-4.43l-0.87,0l0,4.43c0.03,1.39 0.77,2.39 4.9,4.25z"/>
       <path id="svg_304" fill="#1959b1" d="m59.26966,224.29511c0,0.71 -0.5,1 -1.11,0.62l-5.75,-3.44a2.57,2.57 0 0 1 -1.11,-2l0,-13.56c0,-0.72 0.5,-1 1.11,-0.63l5.75,3.47a2.55,2.55 0 0 1 1.11,2l0,13.54z"/>
       <path id="svg_305" fill="#003f97" d="m54.19966,211.96511a1.15,1.15 0 0 1 -1.2,-0.59c-0.16,-0.25 -1,-4.62 -1.31,-6.2a0.72,0.72 0 0 0 -0.39,0.74l0,13.56a2.57,2.57 0 0 0 1.11,2l5.75,3.46c0.61,0.38 1.11,0.09 1.11,-0.62l0,-13.6a2.24,2.24 0 0 0 -0.26,-1c-1.46,0.82 -4.21,2.25 -4.81,2.25z"/>
       <path id="svg_306" fill="#003f97" d="m54.18966,212.38511l0,0a0.43,0.43 0 0 0 0.39,-0.47c-0.17,-2.08 -0.08,-7.6 2.38,-8.23s12.23,-1.75 17.12,-2.28c0.49,-0.37 1,-0.71 1.44,-1c-4,0.43 -15.94,1.74 -18.77,2.47c-3.66,0.95 -3.06,8.81 -3,9.14a0.43,0.43 0 0 0 0.44,0.37z"/>
       <path id="svg_307" fill="#1058b0" d="m155.07966,270.92511c0.75,-0.48 5.63,-3.58 6.37,-4.12a1.93,1.93 0 0 0 0.84,-1.76c0,-0.54 0.18,-2.69 -1.2,-1.92a47.58,47.58 0 0 0 -4.78,3.27a12.42,12.42 0 0 0 -1.94,4.53c0.02,0.18 0.16,0.36 0.71,0z"/>
       <path id="svg_308" fill="#003f97" d="m154.56966,270.91511a13.23,13.23 0 0 1 1.88,-4.35a43.89,43.89 0 0 1 4.75,-3.25a0.87,0.87 0 0 1 0.41,-0.14a0.3,0.3 0 0 1 0.2,0.08c0.27,0.27 0.27,1.08 0.27,1.52l0,0.28a1.72,1.72 0 0 1 -0.76,1.57c-0.59,0.43 -3.88,2.53 -5.46,3.54l-0.89,0.58a0.82,0.82 0 0 1 -0.39,0.17l-0.01,0z"/>
       <path id="svg_309" fill="#1058b0" d="m161.80966,263.25511a0.3,0.3 0 0 0 -0.2,-0.08a0.87,0.87 0 0 0 -0.41,0.14a43.89,43.89 0 0 0 -4.75,3.25a9.78,9.78 0 0 0 -1.39,2.71l7,-4.57c0.02,-0.44 0.01,-1.23 -0.25,-1.45z"/>
       <path id="svg_310" fill="#003f97" d="m134.53966,244.37511c-1.74,1.06 -3.64,3.65 -4.44,7s-5.44,23.69 -5.76,25.91s-0.48,5.93 0.47,5.4s23.54,-21.58 26.76,-24.86s7.93,-8.67 8.46,-10.63a54.59,54.59 0 0 0 0.64,-11.16c-0.21,-2.22 -0.21,-6.71 -2.17,-5.81s-23.96,14.15 -23.96,14.15z"/>
       <path id="svg_311" fill="#2971c9" d="m124.98966,281.41511a20.11,20.11 0 0 1 0.2,-4c0.3,-2.11 4.86,-22.08 5.75,-25.84a10.67,10.67 0 0 1 4.05,-6.44c7.6,-4.58 22.36,-13.43 23.87,-14.12a0.22,0.22 0 0 1 0.1,0c0.5,0.4 0.69,3.08 0.77,4.1c0,0.38 0,0.74 0.08,1.05a54.76,54.76 0 0 1 -0.61,10.85c-0.43,1.59 -4.61,6.56 -8.24,10.25c-3.25,3.21 -22.16,20.83 -25.97,24.15z"/>
       <path id="svg_312" fill="#fff" d="m103.37966,283.53511l-2.32,2.44a29.63,29.63 0 0 0 12.09,3a16.25,16.25 0 0 0 7.54,-1.71l0,-3.73a16.33,16.33 0 0 1 -7.54,1.7a28.94,28.94 0 0 1 -9.77,-1.7z"/>
       <path id="svg_313" fill="#fff" d="m59.13966,257.03511a28.84,28.84 0 0 1 -5.48,-6.65c0,1 0,2.41 0,3.8c1.55,3 5.34,6.55 6.39,7.43l0.38,0.3l-1.29,-4.88z"/>
       <path id="svg_314" fill="#003f97" d="m66.63966,283.27511c3.37,2.28 7.41,4.91 11,7.06s10,5.69 15.8,8.88a8.19,8.19 0 0 1 4.85,-3.81a6.14,6.14 0 0 0 -2.17,-2.52c-1,-0.46 -13.81,-7.37 -16.31,-9s-12,-7.51 -13.48,-8.43a2,2 0 0 0 -2,-0.15a23.85,23.85 0 0 1 2.31,7.97z"/>
       <g id="svg_315">
        <path id="svg_316" fill="#001971" d="m79.94966,287.47511c-3,-1.8 -11,-6.8 -13.7,-8.51l0.15,0.6c2.08,1.31 10.66,6.71 13.81,8.57s11.37,6.47 14.93,8.45l0.39,-0.31c-3.51,-1.95 -12.26,-6.8 -15.58,-8.8z"/>
        <path id="svg_317" fill="#001971" d="m94.79966,296.90511c-3.63,-2 -11.69,-6.53 -14.82,-8.38s-10.86,-6.73 -13.44,-8.35c0.05,0.21 0.09,0.41 0.13,0.61c2.47,1.55 10.52,6.61 13.54,8.4s10.4,5.92 14.24,8.06l0.35,-0.34z"/>
        <path id="svg_318" fill="#001971" d="m93.86966,297.86511l0.25,-0.29c-3.87,-2.16 -11.22,-6.27 -14.17,-8s-10.4,-6.43 -13.2,-8.19c0,0.18 0.07,0.37 0.09,0.54c3.2,2 9.81,6.15 12.48,7.73c3.07,1.82 10.84,6.13 14.55,8.21z"/>
        <path id="svg_319" fill="#001971" d="m79.86966,285.38511c-3.17,-1.88 -11.36,-7 -14.5,-9c0.1,0.22 0.19,0.45 0.27,0.68c2.46,1.54 11.24,7.06 14.5,9c3.63,2.14 13.56,7.69 16.7,9.43l0.52,-0.23c-3.1,-1.72 -13.67,-7.61 -17.49,-9.88z"/>
        <path id="svg_320" fill="#001971" d="m79.12966,290.00511c-2.59,-1.53 -8.86,-5.46 -12.16,-7.54c0,0.21 0,0.4 0.07,0.56c2.85,1.93 7,4.65 10.85,6.94c3.29,1.95 9.32,5.34 15.44,8.68l0.3,-0.43c-3.76,-2.1 -11.47,-6.41 -14.5,-8.21z"/>
        <path id="svg_321" fill="#001971" d="m79.86966,286.47511c-3.09,-1.83 -11.09,-6.86 -14,-8.72c0.07,0.21 0.14,0.42 0.2,0.63c2.23,1.41 10.91,6.87 14.1,8.76c3.38,2 12.38,7 15.76,8.91l0.44,-0.28c-3.38,-1.92 -12.92,-7.24 -16.5,-9.3z"/>
        <path id="svg_322" fill="#001971" d="m80.07966,285.01511c3.8,2.25 14.27,8.09 17.43,9.84a5,5 0 0 0 -1.54,-1.58c-1,-0.45 -13.85,-7.38 -16.37,-9.06c-2.13,-1.41 -9.29,-5.83 -12.35,-7.72l-1.12,-0.69a1.69,1.69 0 0 0 -0.91,-0.28a1.06,1.06 0 0 0 -0.25,0l0.07,0.13c2.56,1.63 11.66,7.36 15.04,9.36z"/>
       </g>
       <path id="svg_323" fill="#1959b1" d="m105.59966,305.57511c3.42,1.51 4.07,2 7.9,2.18a12.94,12.94 0 0 0 7.19,-2.18l0,-8.1a30.44,30.44 0 0 1 -7.08,1.26c-2.76,0 -9.37,-2.19 -11.41,-3.09s-6,-0.72 -8.73,3.6c5.48,2.96 10.47,5.6 12.13,6.33z"/>
       <path id="svg_324" fill="#1959b1" d="m59.86966,278.55511c1.16,0.86 3.69,2.64 6.77,4.72c-0.22,-1.83 -1.11,-7.58 -3.75,-9.85a96.55,96.55 0 0 1 -8.41,-8.77c-0.77,-0.93 -0.59,-3.61 -0.76,-5c-1.3,1.64 -0.9,11.31 -0.9,11.31c1.05,2.74 4.6,5.78 7.05,7.59z"/>
       <path id="svg_325" fill="#003f97" d="m113.49966,307.75511c-3.83,-0.18 -4.48,-0.67 -7.9,-2.18s-21,-11.14 -27.93,-15.24s-15.36,-10 -17.8,-11.78s-6.05,-4.85 -7.05,-7.6a26.29,26.29 0 0 0 -0.29,9.33c0.74,5.48 5.6,9 8.76,11.47s23.69,15.09 34.6,20.91s14.86,6.22 18.09,6.22s6.78,-2.6 6.78,-2.6l0.34,-1.58l0,-8l-0.41,-1.17a12.94,12.94 0 0 1 -7.19,2.22z"/>
       <path id="svg_326" fill="#1959b1" d="m113.49966,307.75511c-3.83,-0.18 -4.48,-0.67 -7.9,-2.18s-21,-11.14 -27.93,-15.24s-15.36,-10 -17.8,-11.78s-6.05,-4.85 -7.05,-7.6a15.63,15.63 0 0 0 -0.31,1.66a17,17 0 0 0 4.83,6.57c3.62,2.94 14.38,9.6 20.59,13.44s17.28,10.12 22.36,12.8s9.94,4.25 14.08,4.07a10.62,10.62 0 0 0 6.58,-2.6l0.15,-0.15l-0.41,-1.17a12.94,12.94 0 0 1 -7.19,2.18z"/>
       <g id="svg_327">
        <path id="svg_328" fill="#003f97" d="m124.75966,241.73511c-2.43,-1.37 -22.15,-12.38 -30,-17.08s-21.79,-13.81 -24.22,-15.34a2.9,2.9 0 0 0 -3.11,0c-2.44,4.88 -7.27,15.14 -8.64,19.3c-1.45,4.4 -3.21,11.05 -3.38,11.7a9,9 0 0 0 2.39,4.75c1.74,1.64 7.4,7.4 22.63,16.6s29,15.34 34.05,15.34s5.77,-2.48 6.35,-4.6s4.6,-19 5.76,-23.59s-0.5,-6.34 -1.83,-7.08z"/>
        <path id="svg_329" fill="#2971c9" d="m114.49966,275.71511c-4.13,0 -16.92,-5.21 -33.38,-15.16c-14.13,-8.53 -19.87,-14 -22,-16.06l-0.4,-0.38a7.53,7.53 0 0 1 -1.94,-3.76c0.37,-1.4 2,-7.34 3.28,-11.34s6,-13.95 8.37,-18.73a1.74,1.74 0 0 1 0.64,-0.13a1.49,1.49 0 0 1 0.82,0.26c0.58,0.36 1.82,1.16 3.47,2.23c5.17,3.33 14.8,9.53 20.77,13.12c6.7,4 22.12,12.67 27.93,15.93l2.09,1.17c1.55,0.87 2,2.77 1.23,5.63c-0.57,2.23 -1.81,7.39 -3,12.38c-1.26,5.2 -2.45,10.12 -2.74,11.19c-0.58,1.96 -1.04,3.65 -5.14,3.65z"/>
        <path id="svg_330" fill="#a0d1f9" d="m73.33966,212.64511c-1.65,-1.07 -2.89,-1.87 -3.47,-2.23a1.74,1.74 0 0 0 -0.27,-0.14c-1.75,4.37 -10,25.36 -8.49,26.87c1.7,1.69 6.57,-1.49 8.42,-3c1.52,-1.21 11.88,-10.69 15.52,-14c-4.35,-2.76 -8.75,-5.6 -11.71,-7.5z"/>
        <path id="svg_331" fill="#367ed6" d="m67.96966,232.02511c-1.77,-0.76 -7.45,3.56 -10.62,6.16l-0.59,2.17a7.53,7.53 0 0 0 1.94,3.76l0.4,0.38c2.15,2.06 7.89,7.53 22,16.06c16.46,9.95 29.25,15.16 33.38,15.16s4.56,-1.69 5.1,-3.65c0.24,-0.87 1.07,-4.3 2,-8.36c-11.23,-6.82 -51.34,-30.71 -53.61,-31.68z"/>
        <path id="svg_332" fill="#367ed6" d="m100.54966,251.28511s-9.07,9 -8.54,9.95s10.08,8.1 11.51,8s13.82,-8.08 13.82,-8.08s-1.39,-3.67 -6.94,-6.95s-9.85,-2.92 -9.85,-2.92z"/>
        <path id="svg_333" fill="#367ed6" d="m104.94966,247.34511c-1,-0.49 -2.07,-1 -2.51,-0.56s-0.57,1.13 1,2.1s16.61,10.12 17.43,10.59s1.42,0.48 1.86,0s-0.58,-1.15 -1.51,-1.84s-15.09,-9.7 -16.27,-10.29z"/>
        <path id="svg_334" opacity="0.2" fill="#fff" d="m96.37966,227.10511l-2.27,-1.34c-6,-3.59 -15.6,-9.79 -20.77,-13.12c-1.65,-1.07 -2.89,-1.87 -3.47,-2.23a1.49,1.49 0 0 0 -0.82,-0.26a1.74,1.74 0 0 0 -0.64,0.13c-2.37,4.78 -7,14.68 -8.37,18.73s-2.91,9.94 -3.28,11.34a7.53,7.53 0 0 0 1.94,3.76l0.4,0.38a89.09,89.09 0 0 0 11.24,9.08a91.89,91.89 0 0 1 26.04,-26.47z"/>
       </g>
       <path id="svg_335" fill="#1959b1" d="m62.91966,289.05511c-0.19,-0.89 -0.82,-2.07 1,-0.87s11.57,7.09 15.29,9.39s14.52,8.57 16.09,9.3s2.07,1.11 1.56,2.12a2.58,2.58 0 0 1 -3.59,1.2c-1.85,-0.83 -12.95,-7.28 -15.94,-9.17s-11.61,-7.46 -12.35,-7.92s-1.78,-2.81 -2.06,-4.05z"/>
       <path id="svg_336" fill="#001971" d="m95.26966,306.87511c-1.57,-0.73 -12.35,-7 -16.09,-9.3s-13.49,-8.2 -15.29,-9.39a0.38,0.38 0 0 0 -0.11,-0.08c0,0.11 0.06,0.23 0.08,0.34c0.27,1.24 1.29,3.59 2,4s9.35,6 12.35,7.92s14.09,8.34 15.93,9.17a2.8,2.8 0 0 0 2.13,0.16a3.11,3.11 0 0 0 0.53,-0.75c0.54,-0.96 0.07,-1.33 -1.53,-2.07z"/>
       <path id="svg_337" fill="#1959b1" d="m104.86966,314.68511l-2.81,-1.31a2.24,2.24 0 0 1 -1.18,-1.84l0,-1a1,1 0 0 1 0.16,-0.56a0.77,0.77 0 0 0 -0.55,0.84l0,1a2.23,2.23 0 0 0 1.17,1.84l2.82,1.31a0.75,0.75 0 0 0 1,-0.19a1,1 0 0 1 -0.61,-0.09z"/>
       <path id="svg_338" fill="#1959b1" d="m59.62966,288.32511l-2.62,-1.93a3.22,3.22 0 0 1 -1,-2.22l0,-1.05a0.77,0.77 0 0 1 0.24,-0.63c-0.43,-0.22 -0.77,0 -0.78,0.63l0,1.05a3.27,3.27 0 0 0 1,2.22l2.62,1.93c0.39,0.33 0.58,0.35 0.66,0.09a0.74,0.74 0 0 1 -0.12,-0.09z"/>
       <path id="svg_339" fill="#fff" d="m105.62966,314.22511a0.76,0.76 0 0 1 -1.17,0.74l-2.82,-1.31a2.23,2.23 0 0 1 -1.17,-1.84l0,-1a0.76,0.76 0 0 1 1.17,-0.75l2.82,1.31a2.24,2.24 0 0 1 1.17,1.84l0,1.01z"/>
       <path id="svg_340" fill="#fff" d="m59.80966,287.90511c0,0.73 -0.15,0.91 -0.72,0.42l-2.62,-1.93a3.27,3.27 0 0 1 -1,-2.22l0,-1.05c0,-0.73 0.49,-0.94 1.05,-0.46l2.44,2.11a3,3 0 0 1 0.91,2.14l-0.06,0.99z"/>
       <path id="svg_341" opacity="0.3" fill="#438be3" d="m104.45966,311.36511l-2.82,-1.31a0.8,0.8 0 0 0 -1,0.1a0.93,0.93 0 0 1 0.62,0.09l2.81,1.31a2.22,2.22 0 0 1 1.18,1.85l0,1a0.92,0.92 0 0 1 -0.22,0.64a0.77,0.77 0 0 0 0.56,-0.83l0,-1a2.24,2.24 0 0 0 -1.13,-1.85z"/>
       <path id="svg_342" opacity="0.3" fill="#438be3" d="m58.98966,284.77511l-2.44,-2.11c-0.47,-0.4 -0.87,-0.32 -1,0.15a0.87,0.87 0 0 1 0.6,0.26l2.45,2.11a3,3 0 0 1 0.91,2.14l-0.09,1a1.77,1.77 0 0 1 0,0.24c0.31,0.16 0.4,-0.07 0.41,-0.64l0.09,-1a3,3 0 0 0 -0.93,-2.15z"/>
       <path id="svg_343" fill="#fff" d="m113.93966,307.55511l-0.43,0a14.28,14.28 0 0 1 -6.72,-1.68l-1.1,-0.49c-1.5,-0.65 -5.94,-3 -11.91,-6.24c2.12,-3.25 4.79,-3.73 6.2,-3.73a5.41,5.41 0 0 1 2.14,0.41c2.05,0.9 8.68,3.06 11.48,3.1l0.14,0a29.1,29.1 0 0 0 6.74,-1.19l0,7.74a13,13 0 0 1 -6.54,2.09l0,-0.01z"/>
       <path id="svg_344" fill="#fff" d="m66.35966,282.83511c-2.83,-1.93 -5.22,-3.61 -6.37,-4.46c-2.16,-1.59 -5.92,-4.68 -7,-7.47c-0.09,-2.37 -0.15,-8.19 0.53,-10.43c0,0.19 0,0.39 0,0.59c0.06,1.41 0.13,3 0.73,3.73a96.83,96.83 0 0 0 8.42,8.79c2.47,2.06 3.4,7.12 3.69,9.25z"/>
       <path id="svg_345" opacity="0.1" fill="#438be3" d="m113.93966,307.55511l-0.43,0a14.28,14.28 0 0 1 -6.72,-1.68l-1.1,-0.49c-1.5,-0.65 -5.94,-3 -11.91,-6.24c2.12,-3.25 4.79,-3.73 6.2,-3.73a5.41,5.41 0 0 1 2.14,0.41c2.05,0.9 8.68,3.06 11.48,3.1l0.14,0a29.1,29.1 0 0 0 6.74,-1.19l0,7.74a13,13 0 0 1 -6.54,2.09l0,-0.01z"/>
       <path id="svg_346" opacity="0.1" fill="#438be3" d="m66.35966,282.83511c-2.83,-1.93 -5.22,-3.61 -6.37,-4.46c-2.16,-1.59 -5.92,-4.68 -7,-7.47c-0.09,-2.37 -0.15,-8.19 0.53,-10.43c0,0.19 0,0.39 0,0.59c0.06,1.41 0.13,3 0.73,3.73a96.83,96.83 0 0 0 8.42,8.79c2.47,2.06 3.4,7.12 3.69,9.25z"/>
       <path id="svg_347" fill="#fff" d="m104.91966,301.29511c0,1.83 -1.28,2.58 -2.87,1.66a6.37,6.37 0 0 1 -2.87,-5c0,-1.83 1.29,-2.57 2.87,-1.66a6.35,6.35 0 0 1 2.87,5z"/>
       <path id="svg_348" fill="#fff" d="m112.23966,304.37511c0,1.63 -1.14,2.29 -2.56,1.48a5.66,5.66 0 0 1 -2.55,-4.43c0,-1.63 1.14,-2.29 2.55,-1.47a5.61,5.61 0 0 1 2.56,4.42z"/>
       <path id="svg_349" fill="#fff" d="m117.86966,302.99511c0,1 -0.72,1.45 -1.62,0.93a3.58,3.58 0 0 1 -1.61,-2.8c0,-1 0.72,-1.44 1.61,-0.93a3.57,3.57 0 0 1 1.62,2.8z"/>
       <path id="svg_350" fill="#fff" d="m63.21966,276.22511a2.42,2.42 0 0 1 -0.43,1.49l0,0a1.38,1.38 0 0 1 -1,0.55l0,0a2.6,2.6 0 0 1 -1.4,-0.39a6.35,6.35 0 0 1 -2.87,-5a3,3 0 0 1 0.17,-1.05a1.48,1.48 0 0 1 1.14,-1l0.04,0a2.31,2.31 0 0 1 1.29,0.28c0.7,0.7 1.39,1.37 2,2a6,6 0 0 1 1.06,3.12z"/>
       <path id="svg_351" fill="#fff" d="m57.55966,270.85511a2.15,2.15 0 0 1 -0.38,1.33l0,0a1.24,1.24 0 0 1 -0.91,0.49l0,0a2.27,2.27 0 0 1 -1.25,-0.35a5.37,5.37 0 0 1 -2,-2.27l0,0c0,-1 0,-2.3 0,-3.65l0,0a1.28,1.28 0 0 1 0.68,-0.3l0,0a2.17,2.17 0 0 1 1.33,0.34a5.64,5.64 0 0 1 2.53,4.41z"/>
       <polygon id="svg_352" fill="#003f97" points="137.30966186523438,239.8451385498047 141.69967651367188,237.2851104736328 141.69967651367188,239.6951141357422 137.30966186523438,239.8451385498047 "/>
       <path id="svg_353" fill="#1959b1" d="m139.80966,272.88511c0,0.72 -0.5,1 -1.11,0.63l-5.75,-3.47a2.54,2.54 0 0 1 -1.1,-2l0,-13.57c0,-0.71 0.49,-1 1.1,-0.62l5.75,3.46a2.57,2.57 0 0 1 1.11,2l0,13.57z"/>
       <polygon id="svg_354" fill="#003f97" points="133.52969360351562,278.3551330566406 132.11965942382812,279.51513671875 132.11965942382812,283.4350891113281 133.52969360351562,282.93511962890625 135.17965698242188,283.1151123046875 135.17965698242188,279.5850830078125 133.52969360351562,278.3551330566406 "/>
       <path id="svg_355" fill="#1959b1" d="m133.52966,278.35511a14,14 0 0 1 -1.41,1.15l3.06,0.08l-1.65,-1.23z"/>
       <path id="svg_356" fill="#003f97" d="m134.73966,260.55511a1.15,1.15 0 0 1 -1.2,-0.59c-0.17,-0.25 -1,-4.62 -1.31,-6.2a0.72,0.72 0 0 0 -0.38,0.74l0,13.58a2.54,2.54 0 0 0 1.1,2l5.75,3.47c0.61,0.37 1.11,0.09 1.11,-0.63l0,-13.61a2.24,2.24 0 0 0 -0.26,-1c-1.46,0.82 -4.21,2.24 -4.81,2.24z"/>
       <rect id="svg_357" fill="#003f97" height="12.96" width="0.86" y="269.75511" x="134.02966"/>
       <path id="svg_358" fill="#003f97" d="m134.45966,260.98511a0.43,0.43 0 0 1 -0.43,-0.43l0,-7.72a12.54,12.54 0 0 1 1.89,-6c1,-1.78 4.18,-7.9 4.21,-8a0.44,0.44 0 0 1 0.59,-0.18a0.43,0.43 0 0 1 0.18,0.58c0,0.06 -3.22,6.21 -4.22,8a11.49,11.49 0 0 0 -1.78,5.62l0,7.72a0.44,0.44 0 0 1 -0.44,0.41z"/>
      </g>
     </g>
     <path id="svg_359" opacity="0" stroke-width="92" stroke-miterlimit="10" stroke="#a3cfef" fill="none" d="m47.58966,148.18511c-23.9,25.29 -19.94,62.59 -14.46,109.29a330.34,330.34 0 0 0 14.46,65.14l167.28,0q-0.07,-76.77 -0.14,-153.54c-9.76,-5.94 -24.11,-14.49 -41.8,-24.34c-21,-11.68 -31.46,-17.52 -37.42,-19.37c-26.93,-8.42 -65.47,-0.89 -87.92,22.82z"/>
    </g>
   </g>
   <g id="icon">
    <path id="svg_452" fill="#fff" d="m159.40864,84.42212c0,9 6.3,19.89 14.08,24.38s14.08,0.85 14.08,-8.13s-6.3,-19.89 -14.08,-24.38s-14.08,-0.84 -14.08,8.13z"/>
    <path id="svg_453" opacity="0.2" fill="#438be3" d="m159.40864,84.42212c0,9 6.3,19.89 14.08,24.38s14.08,0.85 14.08,-8.13s-6.3,-19.89 -14.08,-24.38s-14.08,-0.84 -14.08,8.13z"/>
    <path id="svg_454" fill="#fff" d="m168.05864,84.82212a12,12 0 0 0 5.42,9.39c3,1.73 5.42,0.33 5.42,-3.13a12,12 0 0 0 -5.42,-9.39c-2.99,-1.73 -5.42,-0.33 -5.42,3.13z"/>
    <path id="svg_455" fill="#fff" d="m169.29864,91.99212l0,0l4.16,7.22l4.17,-2.41l0,0a26.45,26.45 0 0 1 5.37,8.55c-2.19,2.08 -5.65,2.24 -9.55,0s-7.37,-6.41 -9.55,-11a5.51,5.51 0 0 1 5.4,-2.36z"/>
   </g>
  </g>
 </g>
</svg>