<?xml version="1.0" encoding="UTF-8"?>
<!DOCTYPE svg PUBLIC "-//W3C//DTD SVG 1.1//EN" "http://www.w3.org/Graphics/SVG/1.1/DTD/svg11.dtd">
<!-- Creator: CorelDRAW X6 -->
<svg xmlns="http://www.w3.org/2000/svg" xml:space="preserve" width="63.4429mm" height="116.885mm" version="1.1" style="shape-rendering:geometricPrecision; text-rendering:geometricPrecision; image-rendering:optimizeQuality; fill-rule:evenodd; clip-rule:evenodd"
viewBox="0 0 287 529"
 xmlns:xlink="http://www.w3.org/1999/xlink">
 <defs>
  <style type="text/css">
   <![CDATA[
    .fil13 {fill:#332C2B}
    .fil11 {fill:black}
    .fil8 {fill:#211D18}
    .fil3 {fill:#2B423D}
    .fil7 {fill:#333333}
    .fil15 {fill:#42362A}
    .fil1 {fill:#4B6E66}
    .fil16 {fill:#5C4C3D}
    .fil14 {fill:#6E4B28}
    .fil9 {fill:#967554}
    .fil12 {fill:#996633}
    .fil10 {fill:#A68A6F}
    .fil5 {fill:#AD8053}
    .fil6 {fill:#B3B3B3}
    .fil4 {fill:#CDA67F}
    .fil0 {fill:#E6E6E6}
    .fil2 {fill:white}
   ]]>
  </style>
 </defs>
 <rect class="fil0" x="-3844" y="-520" width="1344" height="1901"/>
 <path class="fil1" d="M109 215l33 44c-26,3 -82,-7 -96,-21 -9,-9 -27,-46 -26,-62 12,0 20,-2 20,-1 2,9 2,32 29,42 8,2 36,-3 40,-3z"/>
 <path class="fil2" d="M40 183c-5,2 -12,5 -18,4 0,-2 -1,-7 -1,-9 4,1 15,3 20,-2 0,1 1,3 2,6 -1,0 -1,0 -3,1z"/>
 <path class="fil3" d="M70 218c8,2 37,-3 41,-3l-4 3 8 5c0,1 -3,-1 -8,-2 -11,1 -34,0 -38,0 0,0 -2,0 -3,2 0,0 -1,-1 -2,-3 -2,1 -2,3 -3,5 -1,-1 -1,-6 -1,-8 -14,-10 -21,-32 -21,-34 0,0 0,0 0,0 1,-1 2,-1 3,-1 4,11 13,31 27,36z"/>
 <path class="fil4" d="M23 184c16,-4 21,-6 20,-17 -2,-22 -10,-21 -11,-20 -4,-9 -4,-8 -21,-2 -25,8 -4,44 12,40z"/>
 <path class="fil5" d="M32 147c-4,0 -14,5 -13,11 0,4 -5,10 -8,11 -1,1 -10,1 -10,-1 2,10 16,3 19,-4 5,1 4,-2 9,-2 0,0 -1,0 -2,3 -3,6 0,10 0,10 0,1 8,5 4,1 -6,-5 4,-15 0,-17 -6,-2 -9,7 -12,0 -2,-4 11,-12 11,-12z"/>
 <path class="fil1" d="M178 215l-33 44c26,3 82,-7 96,-21 9,-9 27,-46 26,-62 -12,0 -20,-2 -20,-1 -2,9 -2,32 -29,42 -8,2 -36,-3 -40,-3z"/>
 <ellipse class="fil6" cx="143" cy="502" rx="93" ry="27"/>
 <path class="fil4" d="M137 405l-23 7c4,19 7,51 8,68 -21,17 -25,32 -12,33 8,1 28,-11 28,-29 0,-18 5,-54 0,-78z"/>
 <path class="fil4" d="M150 405l23 7c-4,19 -7,51 -8,68 21,17 25,32 12,33 -8,1 -28,-11 -28,-29 0,-18 -5,-54 0,-78z"/>
 <path class="fil7" d="M163 497c3,-6 8,-8 14,-7 11,13 12,22 2,23 -6,1 -20,-6 -26,-18 0,0 0,5 0,7 0,0 -2,0 -2,0 0,-2 -1,-16 -1,-18 0,-1 0,-2 0,-3 3,6 10,15 13,18 0,0 0,0 0,-1z"/>
 <path class="fil1" d="M178 411c1,-36 12,-65 6,-77 -14,0 -27,-7 -41,-7 -14,0 -28,6 -41,7 -6,11 5,40 6,77 22,2 49,1 70,0z"/>
 <path class="fil3" d="M107 342c0,30 7,39 3,69 0,0 -1,0 -1,0 -1,-31 -9,-57 -8,-71 1,0 1,0 2,1 0,0 0,0 0,0 1,0 2,1 4,1z"/>
 <path class="fil3" d="M103 338c10,4 22,8 41,-3 12,8 31,9 43,5l-9 -9 -54 -11 -14 10 -7 8z"/>
 <path class="fil8" d="M208 140l-127 -6c8,24 -1,35 -3,40 70,72 112,20 138,6 -14,-22 -11,-30 -8,-39z"/>
 <path class="fil3" d="M217 218c-8,2 -37,-3 -41,-3l4 3 -8 5c0,1 3,-1 8,-2 11,1 34,0 38,0 0,0 2,0 3,2 0,0 1,-1 2,-3 2,1 2,3 3,5 1,-1 1,-6 1,-8 14,-10 21,-32 21,-34 0,0 0,0 0,0 -1,-1 -2,-1 -3,-1 -4,11 -13,31 -27,36z"/>
 <path class="fil1" d="M104 255c0,1 1,1 1,1 -3,29 11,29 36,22 -26,9 -23,6 -37,63 8,2 29,3 41,-8 13,14 42,10 45,6 -9,-24 -11,-41 -9,-53 7,-7 8,-19 5,-28l-3 -4 -1 -37c-15,-7 -58,-7 -75,0l-1 36 -2 3z"/>
 <polygon class="fil3" points="144,265 143,265 143,334 144,334 "/>
 <path class="fil3" d="M102 257c-3,9 -2,22 5,29 1,11 -1,29 -9,53 1,1 3,2 5,2 15,-57 12,-53 37,-63 -25,7 -38,7 -36,-22 0,0 -1,-1 -1,-1l-2 2z"/>
 <path class="fil2" d="M128 212l32 0c11,37 -17,55 -17,55 0,0 -27,-18 -15,-55z"/>
 <polygon class="fil6" points="125,226 125,233 144,249 144,249 "/>
 <path class="fil4" d="M130 191l28 0 2 26c-4,4 -16,32 -16,32 -1,0 -12,-28 -16,-32l2 -26z"/>
 <path class="fil5" d="M132 205c9,3 22,6 26,-5l0 -4 -29 0 -2 20c1,1 1,3 2,4 1,-5 2,-11 2,-16z"/>
 <path class="fil9" d="M206 133c1,-4 1,-7 2,-10 0,-1 5,1 5,1 0,-1 -4,-4 -4,-5 2,-7 4,-8 7,-6 -5,-12 -10,5 -10,20z"/>
 <path class="fil10" d="M85 143l0 -32c-24,-22 -25,28 0,32 1,0 1,0 0,1z"/>
 <path class="fil4" d="M144 205c0,0 0,0 -1,0 0,0 0,0 -1,0l0 0c-24,-2 -52,-44 -58,-61 -3,-8 -2,-73 -2,-73 4,-14 35,-31 57,-31 22,0 57,14 63,31 0,0 1,65 -2,73 -5,17 -33,59 -58,61l0 0z"/>
 <path class="fil11" d="M179 95c-4,-10 -27,4 -26,13 6,-9 18,-13 26,-13z"/>
 <path class="fil2" d="M130 120c-10,-17 -20,-10 -31,-3 -2,13 32,11 31,3z"/>
 <path class="fil11" d="M99 117c-1,1 -3,-1 -2,-2 12,-12 26,-12 33,4 -12,-20 -24,-7 -31,-3z"/>
 <path class="fil12" d="M124 113c-6,-6 -12,-4 -17,-1 -1,2 -1,5 0,8 2,5 8,7 12,4 4,-2 6,-7 5,-11z"/>
 <circle class="fil13" transform="matrix(0.0572662 -0.0277574 0.0277574 0.0572662 114.896 115.752)" r="79"/>
 <circle class="fil2" transform="matrix(-0.0270484 0.0131106 0.0131106 0.0270484 110.86 115.979)" r="66"/>
 <path class="fil5" d="M133 145c0,-1 5,3 10,3 5,0 10,-4 10,-3 -2,4 -9,6 -10,6 -2,0 -10,-5 -9,-6z"/>
 <path class="fil2" d="M129 178l1 0 28 0c-3,-17 -21,-17 -28,0z"/>
 <path class="fil11" d="M105 95c4,-10 27,4 26,13 -6,-9 -18,-13 -26,-13z"/>
 <path class="fil14" d="M110 123c-3,-5 -3,-10 -1,-13 -1,0 -2,1 -3,2 -1,2 -1,5 0,8 1,2 2,3 4,4z"/>
 <path class="fil2" d="M155 120c10,-17 20,-10 31,-3 2,13 -32,11 -31,3z"/>
 <path class="fil11" d="M186 117c1,1 3,-1 2,-2 -12,-12 -26,-12 -33,4 12,-20 24,-7 31,-3z"/>
 <path class="fil12" d="M161 113c6,-6 12,-4 17,-1 1,2 1,5 0,8 -2,5 -8,7 -12,4 -4,-2 -6,-7 -5,-11z"/>
 <circle class="fil13" transform="matrix(-0.0572662 -0.0277574 -0.0277574 0.0572662 169.773 115.752)" r="79"/>
 <path class="fil9" d="M130 120c5,-28 -42,-18 -33,-4 12,-12 26,-12 33,4z"/>
 <path class="fil9" d="M155 120c-5,-28 42,-18 33,-4 -12,-12 -26,-12 -33,4z"/>
 <path class="fil5" d="M128 200c-63,-56 -22,-58 -33,-148l-12 19c0,0 0,20 0,39 0,13 0,26 1,32 0,0 0,1 0,1 0,1 0,1 0,1 4,14 23,44 43,56z"/>
 <path class="fil5" d="M96 56l0 4c77,-1 58,28 104,57 -10,-74 -21,-65 -104,-61z"/>
 <circle class="fil2" transform="matrix(0.0270484 0.0131106 -0.0131106 0.0270484 165.159 115.979)" r="66"/>
 <path class="fil14" d="M174 123c3,-5 3,-10 1,-13 1,0 2,1 3,2 1,2 1,5 0,8 -1,2 -2,3 -4,4z"/>
 <path class="fil15" d="M93 56c6,53 -3,123 -15,118 12,-22 -52,-109 1,-132 29,-85 164,-23 146,48 -11,45 -23,70 -8,90 -66,-47 -8,-129 -123,-123z"/>
 <path class="fil16" d="M76 138c4,-17 -21,-60 4,-87 -35,7 -5,75 -4,87z"/>
 <path class="fil16" d="M81 131c-1,-38 -4,-56 9,-80 -25,11 -14,50 -9,80z"/>
 <path class="fil16" d="M192 154c8,-75 -24,-122 -82,-103 64,-7 82,47 82,103z"/>
 <path class="fil16" d="M197 152c35,-132 -78,-126 -90,-104 6,-3 102,-39 90,104z"/>
 <path class="fil16" d="M206 133c40,-89 -67,-141 -103,-90 29,-27 126,-17 103,90z"/>
 <path class="fil16" d="M99 37c42,-37 105,-19 122,49 2,-48 -73,-115 -122,-49z"/>
 <path class="fil16" d="M157 5c-3,-1 -47,-5 -64,29 2,-28 41,-36 64,-29z"/>
 <polygon class="fil2" points="144,249 128,212 108,228 122,227 "/>
 <polygon class="fil6" points="163,226 162,233 144,249 144,249 "/>
 <polygon class="fil2" points="144,249 160,212 180,228 166,227 "/>
 <path class="fil3" d="M185 258c2,9 2,21 -5,28 -1,11 1,29 9,53 -1,1 -3,2 -5,2 -15,-57 -12,-53 -37,-63 25,7 38,7 36,-22 0,0 0,-1 1,-1l2 3z"/>
 <path class="fil2" d="M247 183c5,2 12,5 18,4 0,-2 1,-7 1,-9 -4,1 -15,3 -20,-2 0,1 -1,3 -2,6 1,0 1,0 3,1z"/>
 <path class="fil3" d="M180 342c0,30 -7,39 -3,69 0,0 1,0 1,0 1,-31 9,-57 8,-71 -1,0 -1,0 -2,1 0,0 0,0 0,0 -1,0 -2,1 -4,1z"/>
 <path class="fil7" d="M125 497c-3,-6 -8,-8 -14,-7 -11,13 -12,22 -2,23 6,1 20,-6 26,-18 0,0 0,5 0,7 0,0 2,0 2,0 0,-2 1,-16 1,-18 0,-1 0,-2 0,-3 -3,6 -10,15 -13,18 0,0 0,0 0,-1z"/>
 <path class="fil5" d="M114 414l24 0c0,-1 0,-1 0,-2 -8,0 -17,0 -25,-1 0,1 0,2 1,3z"/>
 <path class="fil5" d="M149 412c0,1 0,1 0,2l24 0c0,-1 0,-2 1,-3l0 0c-8,0 -16,1 -24,1z"/>
 <path class="fil6" d="M143 266c0,0 1,1 1,1 0,0 0,0 1,-1 0,0 0,0 0,0l0 -18 0 0 0 0 0 0 0 0c0,0 0,0 0,0l-1 -1 0 17 0 2z"/>
 <path class="fil16" d="M86 137c3,-16 3,-59 3,-80 -3,4 -9,37 -3,80z"/>
 <path class="fil4" d="M264 184c-16,-4 -21,-6 -20,-17 2,-22 10,-21 11,-20 4,-9 4,-8 21,-2 25,8 4,44 -12,40z"/>
 <path class="fil5" d="M255 147c4,0 14,5 13,11 0,4 5,10 8,11 1,1 10,1 10,-1 -2,10 -16,3 -19,-4 -5,1 -4,-2 -9,-2 0,0 1,0 2,3 3,6 0,10 0,10 0,1 -8,5 -4,1 6,-5 -4,-15 0,-17 6,-2 9,7 12,0 2,-4 -11,-12 -11,-12z"/>
</svg>
