<?xml version="1.0" encoding="utf-8"?>
<!-- Generator: Adobe Illustrator 16.0.0, SVG Export Plug-In . SVG Version: 6.00 Build 0)  -->
<!DOCTYPE svg PUBLIC "-//W3C//DTD SVG 1.1//EN" "http://www.w3.org/Graphics/SVG/1.1/DTD/svg11.dtd">
<svg version="1.1" id="Layer_1" xmlns="http://www.w3.org/2000/svg" xmlns:xlink="http://www.w3.org/1999/xlink" x="0px" y="0px"
	 width="60px" height="60px" viewBox="0 0 60 60" enable-background="new 0 0 60 60" xml:space="preserve">
<g>
	<path opacity="0.15" fill="#262626" d="M-25.6,68.096l0.684-0.238c-0.122,0.118-0.24,0.238-0.403,0.362l-2.503,2.176l-7.674,4.444
		c0.485,0.043,1.051,0.043,1.576,0.085c-0.403,0.196,0,0.32,1.088,0.32c1.01,0,1.616-0.124,1.697-0.362c0.364,0,0.728,0,1.091-0.043
		l4.968-3.713l4.887-3.151l-0.766,0.686l-1.373,1.659l-2.789,4.726c1.374-0.121,2.707-0.206,3.959-0.323l-0.161,0.202
		c-0.041,0.157,0.04,0.281,0.364,0.32c1.09-0.124,2.057-0.32,2.867-0.522l0.041-3.276l0.281-1.449
		c1.332-0.813,2.424-1.536,3.232-2.183c0.117-0.041,0.281-0.124,0.4-0.198c1.213-0.206,2.342-0.447,3.436-0.813l5.494-1.455
		c0.281-0.119,0.482-0.16,0.482-0.28c0.08-0.242,0.123-0.443,0.123-0.646c-0.043-0.082-0.043-0.2-0.082-0.324
		c-0.082-0.203-0.121-0.404-0.285-0.564l-0.199-0.529c0.363-0.199,0.443-0.317,0.281-0.44l-1.088-0.28l0.525-1.416
		c0.039-0.405-0.566-0.606-1.861-0.644h-0.041c-0.078,0-0.158,0-0.242,0c-0.201-0.042-0.404-0.042-0.604,0
		c-0.971,0-2.021,0.238-3.191,0.644c-0.727,0.284-1.291,0.483-1.654,0.768c-1.334,0.486-2.586,0.929-3.717,1.455
		c-0.365,0.161-0.488,0.282-0.365,0.404c0.041,0.039,0.084,0.039,0.203,0.079c-0.119,0-0.242,0.041-0.363,0.084
		c-0.242,0.079-0.566,0.198-0.846,0.323c-0.125,0.036-0.162,0.075-0.285,0.156c-0.283,0.124-0.566,0.327-0.889,0.526
		c-0.402,0.205-0.768,0.367-1.09,0.524c-1.295,0.403-2.343,0.807-3.151,1.253l-2.099,1.176l-1.415,0.561l-0.119,0.442
		c0.039,0,0.119,0,0.158,0c0.203,0,0.366,0,0.568,0l0.483-0.2c0.04,0,0,0-0.242,0c0.081,0,0.164-0.038,0.242-0.118L-25.6,68.096z
		 M-9.165,64.825c0.361-0.284,0.891-0.604,1.533-0.845l0.648,1.05c-0.809,0.28-1.617,0.561-2.424,0.927l-1.736,0.526
		C-10.216,65.957-9.567,65.391-9.165,64.825z"/>
	<g>
		<path fill="#5E432C" d="M-25.463,20.21c-0.079,0.021-0.18,0.059-0.281,0.082c0,0,0,0-0.02,0c-0.141,0.059-0.261,0.117-0.405,0.177
			c-0.927,0.486-1.673,1.637-2.241,3.437l-0.644,2.905l1.374-2.688c0.14-0.906,0.625-1.654,1.473-2.257
			c0.686,0.038,1.21,0.284,1.574,0.707c0.767,0.504,1.269,1.615,1.492,3.37c-0.423,2.06-0.122,3.472,0.93,4.24
			c0.321,1.105,0,2.119-0.988,2.986c0.222,0.021,0.422,0.021,0.605,0c0.302-0.021,0.544-0.061,0.765-0.14
			c0.14-0.063,0.264-0.124,0.365-0.184c0.121-0.081,0.22-0.184,0.304-0.28c0.261-0.344,0.341-0.85,0.28-1.475
			c-0.323-1.915-0.787-3.756-1.412-5.512c0.081-0.986-0.041-1.978-0.383-2.944c-0.546-1.517-1.252-2.325-2.14-2.445
			C-25.019,20.171-25.239,20.171-25.463,20.21L-25.463,20.21z M-24.834,20.351c0.829,0.141,1.492,0.908,1.998,2.343
			c0.343,0.943,0.467,1.897,0.383,2.884c0,0.021,0,0.041,0.019,0.059c0.628,1.738,1.092,3.555,1.393,5.474
			c0.063,0.527,0,0.928-0.18,1.228c-0.203-2.197-0.687-4.379-1.453-6.579l-0.587-3.271c-0.403-1.109-1.332-1.733-2.763-1.916
			c0.102-0.06,0.18-0.103,0.281-0.12l0,0c0.02,0,0.042,0,0.06-0.021c0.102-0.022,0.182-0.039,0.262-0.06
			C-25.218,20.329-25.019,20.329-24.834,20.351L-24.834,20.351z"/>
		<path fill="#A97053" d="M-25.422,20.372c0.204-0.043,0.403-0.043,0.587-0.021c0.829,0.141,1.492,0.908,1.998,2.343
			c0.343,0.943,0.467,1.897,0.383,2.884c0,0.021,0,0.041,0.019,0.059c0.628,1.738,1.092,3.555,1.393,5.474
			c0.063,0.527,0,0.928-0.18,1.228c-0.203-2.197-0.687-4.379-1.453-6.579l-0.587-3.271c-0.403-1.109-1.332-1.733-2.763-1.916
			c0.102-0.06,0.18-0.103,0.281-0.12l0,0c0.02,0,0.042,0,0.06-0.021C-25.582,20.41-25.502,20.393-25.422,20.372L-25.422,20.372z"/>
		<path fill="#432B1B" d="M-25.764,20.292c-0.141,0.059-0.261,0.117-0.405,0.177c-0.927,0.486-1.673,1.637-2.241,3.437l-0.644,2.905
			l1.374-2.688c-0.102,0.608-0.043,1.276,0.179,2.02l0.485,1.033l0.02,0.039c0.018,0.021,0.018,0.059,0.018,0.081
			c0.466,1.248,0.243,1.977-0.703,2.198c-0.083,0.021-0.162,0.043-0.264,0.043c-0.099,0.021-0.202,0.021-0.301,0.021
			c-0.224,0.017-0.465,0-0.728-0.043c-0.223-0.141-0.423-0.243-0.646-0.34c-0.625-0.248-1.232-0.248-1.837-0.026l-0.869,1.599
			c-0.102-0.667,0.042-1.211,0.426-1.676l1.532-1.049l1.754-5.329C-28.005,21.117-27.055,20.31-25.764,20.292L-25.764,20.292z"/>
		<path fill="#BFBFBF" d="M-32.93,31.838l0.606-1.09l0.869-1.599c0.605-0.222,1.211-0.222,1.837,0.026
			c0.02,0.297,0.039,0.583,0.02,0.868c-0.969-0.748-1.818-0.026-2.523,2.155C-32.385,32.015-32.666,31.897-32.93,31.838
			L-32.93,31.838z"/>
		<path fill="#D9AD85" d="M-31.011,33.675l-1.736-1.132l-2.806,5.894c-0.163,0.588-0.022,1.149,0.403,1.72l3.049,5.467l1.147,1.311
			c-0.019-0.646,0-1.271,0.083-1.857l-1.05-0.906c0-0.104,0-0.204-0.021-0.301l-0.887-2.021c-0.263-1.254-0.587-2.381-0.968-3.391
			l2.42-4.141L-31.011,33.675L-31.011,33.675z M-31.214,33.734l-2.726,4.644c-0.021,0.016-0.021,0.039-0.021,0.059
			c0,0.021,0,0.043,0.021,0.06c0.384,1.008,0.688,2.141,0.95,3.373c0,0.018,0,0.018,0,0.038l0.909,1.999c0,0.104,0,0.18,0,0.264
			c0,0.016,0,0.016,0,0.043l0.058,0.076c-0.021-0.017-0.021-0.017-0.039-0.039c0-0.021,0-0.021-0.019-0.037l-1.151-2.1l-1.05-3.596
			l2.806-4.963L-31.214,33.734L-31.214,33.734z"/>
		<path fill="#ECDDD5" d="M-31.477,33.555l0.262,0.18l-2.726,4.644c-0.021,0.016-0.021,0.039-0.021,0.059
			c0,0.021,0,0.043,0.021,0.06c0.384,1.008,0.688,2.141,0.95,3.373c0,0.018,0,0.018,0,0.038l0.909,1.999c0,0.104,0,0.18,0,0.264
			c0,0.016,0,0.016,0,0.043l-1.151-2.1l-1.05-3.596L-31.477,33.555L-31.477,33.555z"/>
		<path d="M-31.375,34.316l0.364-0.642l0.161-0.243l0.868-1.496c0.221-0.625,0.364-1.251,0.384-1.893
			c0.019-0.286,0-0.571-0.02-0.868c0.222,0.098,0.422,0.2,0.646,0.34c0.263,0.043,0.504,0.06,0.728,0.043
			c0.019,0.162,0.019,0.302,0.038,0.443l-0.706,0.28c-0.463,1.616-1.13,3.09-1.978,4.443l0.423,3.712l-0.949,5.307
			c1.434,1.617,2.929,0.2,4.459-4.239l-0.422,1.455l-0.483,1.734c1.856-0.424,3.693-0.36,5.511,0.146
			c-0.083-0.183-0.164-0.386-0.224-0.587c-0.141-0.424-0.261-0.846-0.343-1.309c-0.041-0.243-0.079-0.489-0.101-0.75
			c-0.081-0.668-0.081-1.373-0.02-2.123c0-0.017,0-0.061,0-0.08c0.405-1.471,0.564-2.866,0.505-4.154
			c-0.02-0.227-0.042-0.446-0.06-0.668c0.302-0.021,0.544-0.061,0.765-0.14l0.042,0.808L-22.17,34.1l-0.463,3.588
			c-0.203,0.971-0.203,1.898,0,2.791c0.241,1.429,0.787,2.621,1.614,3.607c0.099,0.363,0.181,0.73,0.243,1.091l-1.313-1.778
			c-0.019-0.016-0.019-0.037-0.041-0.059h-5.268l-0.747,0.324l-0.042,0.182c-0.461,0.728-1.048,1.23-1.753,1.537l0.242,8.296
			l0.242,3.228l-2.179,6.682l-3.694,9.202l3.793,2.93l-0.142,0.462c-1.27-0.304-2.42-0.687-3.449-1.167l-0.182,0.824
			c-0.224,0.627-0.508,0.991-0.828,1.051c-0.91-0.404-1.616-1.012-2.082-1.838l5.229-12.454l2.059-5.49
			c-0.08-2.985,0-5.713,0.262-8.196c-0.06-0.221-0.099-0.442-0.122-0.663c-0.079-0.468-0.14-0.889-0.162-1.314
			c-0.019-0.646,0-1.271,0.083-1.857l-1.05-0.906c0-0.104,0-0.204-0.021-0.301c-0.02-2.08,0.202-4.16,0.688-6.24
			C-31.174,36.52-31.214,35.426-31.375,34.316L-31.375,34.316z"/>
		<path fill="#AB8262" d="M-32.122,32.198c0.423,0.28,0.849,0.689,1.271,1.233l-0.161,0.243l-1.736-1.132l-2.806,5.894
			c-0.163,0.588-0.022,1.149,0.403,1.72l3.049,5.467l1.147,1.311c0.022,0.426,0.083,0.847,0.162,1.314
			c-0.868-0.809-1.573-1.838-2.12-3.107l-3.107-5.572c-0.183-0.306-0.222-0.668-0.082-1.072c0.263-0.785,0.566-1.556,0.908-2.322
			c0.205-0.42,0.407-0.866,0.627-1.309c0.383-0.748,0.79-1.494,1.213-2.242l0.422-0.785C-32.666,31.897-32.385,32.015-32.122,32.198
			L-32.122,32.198z"/>
		<path fill="#E6E6E6" d="M-30.851,33.432c-0.422-0.544-0.848-0.953-1.271-1.233c0.706-2.182,1.555-2.903,2.523-2.155
			c-0.02,0.641-0.164,1.268-0.384,1.893L-30.851,33.432L-30.851,33.432z"/>
		<path fill="#AB8262" d="M-26.207,21.865c0.686,0.038,1.21,0.284,1.574,0.707c0.019,0.705,0.2,1.393,0.543,2.041
			c0.265,0.543,0.343,1.109,0.243,1.654c-0.06,0.102-0.121,0.222-0.181,0.319c0.1-0.826-0.143-1.574-0.686-2.281l-0.326-1.552
			l-1.048-0.442c-1.149,0.947-1.354,2.458-0.647,4.542c0.748,0.949,1.638,0.868,2.707-0.267c-0.304,0.467-0.686,0.872-1.171,1.173
			c-0.02,0.023-0.061,0.023-0.082,0.043c-0.362,0.098-0.687,0.098-0.991,0.017c-0.059,1.013-0.282,1.719-0.687,2.14
			c0.105,1.313,0.75,2.688,1.939,4.116c-1.208-0.783-2.058-2.114-2.543-4.031c-0.039-0.183-0.08-0.365-0.118-0.549
			c0.946-0.222,1.169-0.95,0.703-2.198l0,0l-0.018-0.081l-0.02-0.039l-0.485-1.033c-0.222-0.744-0.281-1.412-0.179-2.02
			C-27.54,23.217-27.055,22.469-26.207,21.865L-26.207,21.865z"/>
		<path fill="#D9AD85" d="M-26.086,22.311c-1.149,0.947-1.354,2.458-0.647,4.542c0.748,0.949,1.638,0.868,2.707-0.267
			c0.1-0.826-0.143-1.574-0.686-2.281l-0.326-1.552L-26.086,22.311L-26.086,22.311z M-24.15,26.122
			c-0.041,0.549-0.361,0.91-0.989,1.071c0.606-0.625,0.871-1.271,0.808-1.934L-24.15,26.122L-24.15,26.122z"/>
		<path fill="#ECDDD5" d="M-24.332,25.259l0.181,0.863c-0.041,0.549-0.361,0.91-0.989,1.071
			C-24.534,26.568-24.269,25.922-24.332,25.259L-24.332,25.259z"/>
		<path fill="#432B1B" d="M-24.089,24.612c-0.343-0.647-0.524-1.335-0.543-2.041c0.767,0.504,1.269,1.615,1.492,3.37
			c-0.423,2.06-0.122,3.472,0.93,4.24c0.321,1.105,0,2.119-0.988,2.986c-0.222-0.021-0.464-0.037-0.707-0.102
			c0.929-0.664,1.129-1.455,0.605-2.339c-0.262-0.141-0.504-0.286-0.705-0.426c-0.104-0.059-0.185-0.119-0.244-0.182
			c-0.706-0.625-0.807-1.288-0.344-2.037c0.465-0.586,0.708-1.191,0.747-1.815C-23.746,25.722-23.825,25.156-24.089,24.612
			L-24.089,24.612z"/>
		<path fill="#D9AD85" d="M-25.198,27.758c0.485-0.301,0.867-0.706,1.171-1.173c0.06-0.098,0.121-0.218,0.181-0.319
			c-0.039,0.625-0.282,1.229-0.747,1.815c-0.463,0.75-0.362,1.413,0.344,2.037c0.059,0.063,0.141,0.124,0.244,0.182
			c0.079,1.434-0.263,2.685-1.013,3.773c-1.188-1.429-1.834-2.803-1.939-4.116c0.405-0.421,0.628-1.127,0.687-2.14
			c0.304,0.081,0.628,0.081,0.991-0.017C-25.259,27.782-25.218,27.782-25.198,27.758L-25.198,27.758z"/>
		<path fill="#D9AD85" d="M-26.977,27.296L-26.977,27.296c0-0.022,0-0.06-0.018-0.081L-26.977,27.296L-26.977,27.296z"/>
		<path fill="#BFBFBF" d="M-24.006,30.301c0.201,0.141,0.442,0.286,0.705,0.426c0.524,0.884,0.324,1.675-0.605,2.339
			c0.241,0.064,0.485,0.08,0.707,0.102c0.222,0.021,0.422,0.021,0.605,0c0.018,0.222,0.041,0.441,0.06,0.668l-1.453-0.242
			l-1.032,0.48C-24.269,32.985-23.927,31.734-24.006,30.301L-24.006,30.301z"/>
		<path fill="#E6E6E6" d="M-23.987,33.594l1.453,0.242c0.059,1.288-0.1,2.684-0.505,4.154c0,0.02,0,0.063,0,0.08
			c-0.061,0.75-0.061,1.455,0.02,2.123l-3.067-0.402v-0.767l-1.718-8.782l0.243-0.199c0.485,1.917,1.334,3.248,2.543,4.031
			L-23.987,33.594L-23.987,33.594z"/>
		<path fill="#BFBFBF" d="M-21.829,33.028c0.14-0.063,0.264-0.124,0.365-0.184c0.08,0.06,0.16,0.184,0.22,0.345l-0.243,0.281
			l0.143,1.109l-0.383,0.064l-0.061-0.809L-21.829,33.028L-21.829,33.028z"/>
		<path fill="#E6E6E6" d="M-21.486,33.471l0.243-0.281c0.124,0.281,0.224,0.728,0.284,1.312l-0.383,0.079L-21.486,33.471
			L-21.486,33.471z"/>
		<path fill="#AB8262" d="M-21.343,34.58l0.383-0.079c0.021,0.164,0.021,0.343,0.039,0.525l-0.422,0.485v1.816
			c-0.849,1.108-0.748,2.828,0.301,5.145c0.709,2.123,1.092,4.258,1.194,6.379v0.624l0.242,1.919c0.059-0.016,0.1-0.038,0.162-0.08
			v-1.633l0.279,0.624l-0.322,1.633c-0.182,0.022-0.361-0.017-0.525-0.079l-0.24-0.545c-0.021-0.122,0.061-0.161,0.281-0.103
			c-0.059-0.104-0.08-0.221-0.102-0.399v-0.808l-0.322-0.889c0.104-1.497-0.041-2.808-0.382-3.939
			c-0.062-0.36-0.144-0.728-0.243-1.091c-0.265-1.006-0.585-2.016-1.01-3.025c-0.849-1.433-0.706-2.844,0.425-4.261l-0.121-2.155
			L-21.343,34.58L-21.343,34.58z"/>
		<path fill="#2B2B2B" d="M-21.787,33.836l0.061,0.809l0.121,2.155c-1.131,1.417-1.274,2.828-0.425,4.261
			c0.425,1.01,0.746,2.02,1.01,3.025c-0.827-0.986-1.373-2.179-1.614-3.607c-0.203-0.893-0.203-1.82,0-2.791l0.463-3.588
			L-21.787,33.836L-21.787,33.836z"/>
		<path fill="#D9AD85" d="M-21.343,35.512v1.816c-0.849,1.108-0.748,2.828,0.301,5.145c0.709,2.123,1.092,4.258,1.194,6.379v0.624
			l0.242,1.919c0.059-0.016,0.1-0.038,0.162-0.08v-1.633l0.279,0.624l-0.322,1.633c0.061-0.017,0.121-0.017,0.182-0.017l0.566-1.659
			l-0.523-2.099l-0.203-4.479c-0.141-1.637-0.506-3.249-1.092-4.801c-0.14-0.506-0.239-1.137-0.281-1.88
			c-0.02-0.766-0.041-1.434-0.082-1.978L-21.343,35.512L-21.343,35.512z M-21.042,35.389c0.022,0.463,0.041,1.008,0.041,1.615l0,0
			c0.062,0.766,0.163,1.413,0.304,1.919v0.017c0.585,1.557,0.948,3.131,1.091,4.768l0.201,4.457c0,0.021,0,0.021,0,0.041l0.32,1.294
			l-0.402-0.465l-0.283-3.271l-0.625-4.563l-0.808-3.873V35.57L-21.042,35.389L-21.042,35.389z"/>
		<path fill="#ECDDD5" d="M-21.203,35.57l0.161-0.182c0.022,0.463,0.041,1.008,0.041,1.615l0,0c0.062,0.766,0.163,1.413,0.304,1.919
			v0.017c0.585,1.557,0.948,3.131,1.091,4.768l0.201,4.457c0,0.021,0,0.021,0,0.041l0.32,1.294l-0.402-0.465l-0.283-3.271
			l-0.625-4.563l-0.808-3.873V35.57L-21.203,35.57z"/>
		<path fill="#BFBFBF" d="M-28.208,30.001c-0.019-0.141-0.019-0.281-0.038-0.443c0.099,0,0.202,0,0.301-0.021
			c0.102,0,0.181-0.022,0.264-0.043c0.038,0.184,0.079,0.366,0.118,0.549l-0.243,0.199l1.718,8.782v0.767l3.067,0.402
			c0.022,0.261,0.06,0.507,0.101,0.75c-1.171-0.307-2.341-0.35-3.53-0.168c-0.304,0.043-0.627,0.102-0.931,0.184l0.422-1.455
			l0.083-0.26C-27.5,36.057-27.944,32.965-28.208,30.001L-28.208,30.001z"/>
		<path fill="#2B2B2B" d="M-28.913,30.281c-0.463,1.616-1.13,3.09-1.978,4.443l0.423,3.712l-0.949,5.307
			c1.434,1.617,2.929,0.2,4.459-4.239l0.083-0.26c-0.625-3.188-1.069-6.279-1.333-9.243L-28.913,30.281L-28.913,30.281z
			 M-28.409,31.047l1.213,7.935l-1.17,2.969l0.745-3.39l-1.049-7.349L-28.409,31.047L-28.409,31.047z"/>
		<polygon fill="#999999" points="-28.67,31.212 -28.409,31.047 -27.196,38.981 -28.366,41.95 -27.622,38.561 -28.67,31.212 		"/>
		<path fill="#3C3C3C" d="M-26.449,40.775l-0.404,1.154c1.514-0.199,2.925-0.102,4.277,0.322c0.06,0.201,0.141,0.404,0.224,0.587
			c-1.818-0.506-3.654-0.569-5.511-0.146l0.483-1.734C-27.076,40.877-26.753,40.818-26.449,40.775L-26.449,40.775z"/>
		<path fill="#555555" d="M-26.853,41.93l0.404-1.154c1.189-0.182,2.359-0.139,3.53,0.168c0.082,0.463,0.202,0.885,0.343,1.309
			C-23.927,41.828-25.338,41.73-26.853,41.93L-26.853,41.93z"/>
		<path fill="#333333" d="M-22.131,43.34h-5.268l-0.747,0.324l-0.042,0.182c-0.461,0.728-1.048,1.23-1.753,1.537l0.242,8.296
			l0.242,3.228l-2.179,6.682l-3.694,9.202l3.793,2.93l1.091-3.738l3.571-13.642l1.253-6.238l0.341-2.626l1.514,5.25l-0.362,7.892
			c0,0.103,0,0.2,0,0.304l-0.504,11.387l3.59,0.805l-0.463-13.341v-3.13l0.968-8.254c0.064-0.447,0.102-0.873,0.143-1.271
			c0.104-1.497-0.041-2.808-0.382-3.939l-1.314-1.778C-22.109,43.383-22.109,43.361-22.131,43.34L-22.131,43.34z M-20.697,50.366
			l-0.949,8.256c0,0.02,0,0.02,0,0.02v3.13l0.443,13.158l-0.564-0.141l-0.282-4.036l-0.283-12.554l1.01-7.754
			c0.243-2.219,0.243-4.137-0.021-5.77l0.422,0.583c0.346,1.11,0.467,2.381,0.363,3.857c-0.018,0.383-0.078,0.803-0.14,1.232V50.366
			L-20.697,50.366z M-27.035,58.299l-3.554,13.644l0,0l-1.028,3.536l-0.665-0.528l4.318-14.713l1.23-6.438l1.312-4.34l-0.342,2.643
			v-0.017L-27.035,58.299L-27.035,58.299L-27.035,58.299z"/>
		<path fill="#777777" d="M-20.697,50.349v0.018l-0.949,8.256c0,0.02,0,0.02,0,0.02v3.13l0.443,13.158l-0.564-0.141l-0.282-4.036
			l-0.283-12.554l1.01-7.754c0.243-2.219,0.243-4.137-0.021-5.77l0.422,0.583c0.346,1.11,0.467,2.381,0.363,3.857
			C-20.575,49.499-20.636,49.919-20.697,50.349L-20.697,50.349z"/>
		<polygon fill="#777777" points="-27.035,58.299 -27.035,58.299 -30.589,71.942 -30.589,71.942 -31.618,75.479 -32.282,74.95 
			-27.964,60.237 -26.734,53.799 -25.422,49.459 -25.764,52.102 -25.764,52.085 -27.035,58.299 		"/>
		<path d="M-24.128,62.617c0,0.103,0,0.2,0,0.304l-0.504,11.387l3.59,0.805l0.022,0.383c-0.566,0.14-1.131,0.225-1.676,0.284
			c0.063,0.744-0.465,1.127-1.614,1.153c-0.989-0.026-1.374-0.447-1.153-1.232c-0.342-0.065-0.663-0.121-0.986-0.205l0.341-7.103
			l0.666-6.987l0.161-3.33v-8.6l1.514,5.25L-24.128,62.617L-24.128,62.617z"/>
	</g>
</g>
<g>
	<path opacity="0.15" fill="#262626" d="M36.001,45.926l-1.571,0.51l-0.272,0.041c-0.628,0.195-1.021,0.391-1.22,0.59l-3.066,1.138
		c-1.178,0.629-1.963,1.223-2.319,1.81l-0.114,0.118l-0.396,0.078c0,0,0,0,0,0.039c0.079,0,0.233,0,0.552-0.039
		c-0.199,0.039-0.318,0.077-0.275,0.077c0.038,0.039,0.119,0.079,0.197,0.079c-0.04,0.038-0.078,0.038-0.04,0.038
		c-1.101,0.749-2.437,1.375-4.048,2.042c0.787,0.121,1.611,0.198,2.514,0.276c-0.51,0.237-0.708,0.472-0.588,0.709
		c-1.258,0.587-2.396,1.296-3.379,2.002c-1.022,0.554-2.636,1.104-4.716,1.654l-3.145,0.191L13.919,57.4
		c1.887,0.155,3.496,0.115,4.831-0.121c1.417-0.272,2.357-0.391,2.909-0.391l-2.79,0.983c0.827,0.079,2.003,0,3.538-0.276
		l2.123-0.745l0.393-0.276c0.156-0.234,0.51-0.472,1.02-0.667c1.415-0.511,2.516-0.943,3.421-1.376
		c1.021-0.55,1.806-1.139,2.278-1.688l0.473-0.236l0.354,0.116c-0.119,0.041-0.159,0.082-0.277,0.159l0.863-0.159l2.008-1.295
		c1.258-0.63,2.354-1.261,3.222-1.927l0.904-0.864c0.432-0.115,0.786-0.237,1.179-0.355l2.319-0.785
		c2.159-0.824,3.18-1.453,3.063-1.885c-0.119-0.08-0.274-0.118-0.513-0.118c0.121-0.117,0-0.198-0.354-0.239
		c0.434-0.192,0.63-0.387,0.63-0.624c0.591-0.236,0.981-0.474,1.141-0.748c0.079-0.195,0.079-0.353,0-0.509
		c-0.041-0.042-0.159-0.084-0.274-0.161c-0.081-0.077-0.197-0.077-0.315-0.112c-0.786-0.16-1.532-0.16-2.199,0
		c-0.826,0.075-1.456,0.231-1.847,0.388c-0.985,0.316-1.651,0.669-2.008,1.024c-0.353,0.233-0.391,0.355-0.115,0.391
		c0.312,0.159,0.157,0.273-0.472,0.393l-2.4,0.474c-0.154,0-0.23,0-0.352,0.039C36.396,45.848,36.198,45.886,36.001,45.926z
		 M22.917,56.455L22.683,56.3l1.06-0.707l3.025-1.26c-0.708,0.513-1.453,0.984-2.239,1.455L22.917,56.455z"/>
	<path fill="#333333" d="M23.464,3.613c-0.176-0.274-0.375-0.51-0.59-0.725c-0.158-0.176-0.333-0.313-0.511-0.434
		c-1.004-0.469-1.729-0.469-2.181,0c-0.687,0.336-1.098,0.825-1.194,1.513c-0.493,1.179-0.611,2.495-0.355,3.929
		c0.018,0.805,0.176,1.295,0.508,1.453c0.514,0.472,0.568,0.98,0.176,1.514l0.414-0.45l0.432-0.454V9.251
		c-0.156-0.099-0.315-0.256-0.491-0.432c-0.099-0.08-0.177-0.159-0.254-0.255c-0.179-0.293-0.294-0.629-0.353-1.004l-0.023-2.748
		c0.257-0.607,0.667-1.12,1.239-1.512c0.709,0.175,1.316,0.648,1.846,1.413c0.414,0.864,0.824,1.65,1.237,2.357
		c-0.154,1.158-0.096,2.022,0.157,2.57C24.092,7.855,24.073,5.834,23.464,3.613L23.464,3.613z M20.282,2.927
		c-0.018,0.021-0.04,0.021-0.057,0.021c-0.432,0.079-0.788,0.413-1.083,0.984c0.037-0.571,0.396-1.004,1.063-1.301
		c0.592-0.587,1.473-0.49,2.631,0.296C21.598,2.376,20.736,2.376,20.282,2.927L20.282,2.927z"/>
	<path fill="#666666" d="M20.225,2.947c0.018,0,0.04,0,0.057-0.021c0.454-0.55,1.316-0.55,2.554,0
		c-1.158-0.786-2.039-0.884-2.631-0.296c-0.667,0.296-1.026,0.73-1.063,1.301C19.437,3.36,19.792,3.026,20.225,2.947L20.225,2.947z"
		/>
	<path fill="#AB8262" d="M19.043,4.813c0.375-0.472,0.825-0.807,1.358-1.021c0.568,0.373,1.098,0.905,1.628,1.589
		c0.259,0.61,0.591,1.102,1.004,1.495v0.373c0.178,0.061,0.292,0,0.332-0.177c-0.413-0.708-0.824-1.494-1.237-2.357
		c-0.53-0.765-1.137-1.237-1.846-1.413C19.71,3.693,19.3,4.205,19.043,4.813L19.043,4.813z"/>
	<path fill="#D9AD85" d="M20.401,3.792c-0.533,0.214-0.982,0.549-1.358,1.021l0.023,2.748c0.058,0.375,0.173,0.711,0.353,1.004
		c1.137,0.961,2.062,0.901,2.788-0.178c0.432-0.215,0.705-0.611,0.827-1.139V6.875C22.62,6.482,22.288,5.99,22.029,5.38
		C21.499,4.697,20.969,4.165,20.401,3.792L20.401,3.792z M19.239,4.951l0.239-0.354l0.018,2.748c0.042,0.551,0.16,1.004,0.373,1.336
		c-0.39-0.157-0.604-0.569-0.629-1.217V4.951L19.239,4.951z"/>
	<path fill="#ECDDD5" d="M19.478,4.597l-0.239,0.354v2.513c0.024,0.648,0.239,1.06,0.629,1.217
		c-0.213-0.333-0.331-0.785-0.373-1.336L19.478,4.597L19.478,4.597z"/>
	<path fill="#AB8262" d="M19.673,8.819c0.175,0.176,0.335,0.333,0.491,0.432c0.648,0.453,1.239,0.433,1.788-0.083v0.535
		l-1.256,1.449H20.36l-0.178,0.533l0.239-0.293h0.608c0.373-0.648,0.884-1.198,1.53-1.652c0-0.333,0.041-0.746,0.118-1.196
		c0.274-0.259,0.393-0.571,0.373-0.946l-0.018-0.352c-0.122,0.528-0.395,0.923-0.827,1.139c-0.727,1.079-1.651,1.139-2.788,0.178
		C19.496,8.661,19.574,8.739,19.673,8.819L19.673,8.819z"/>
	<path fill="#E83734" d="M17.314,12.69c-0.215,0.096-0.37,0.23-0.469,0.451l-0.492,1.372C16.883,13.867,17.201,13.26,17.314,12.69
		L17.314,12.69z"/>
	<path fill="#EAEAEA" d="M19.615,11.274l0.117-0.861l-0.414,0.45l-1.667,1.765l0.097,0.392l0.097,0.159l0.058,0.195L19.615,11.274
		L19.615,11.274z M19.557,10.783l-0.061,0.294l-1.608,1.827l-0.098-0.276L19.557,10.783L19.557,10.783z"/>
	<polygon fill="#FFFFFF" points="19.496,11.078 19.557,10.783 17.79,12.628 17.888,12.905 19.496,11.078 	"/>
	<polygon fill="#CCCCCC" points="19.731,10.413 19.615,11.274 17.903,13.374 18.004,13.749 17.809,14.004 18.123,14.594 
		18.633,13.984 18.359,13.71 20.183,11.059 20.164,9.959 19.731,10.413 	"/>
	<path fill="#D9AD85" d="M20.36,11.153h0.335l1.256-1.449V9.169c-0.549,0.515-1.14,0.535-1.788,0.083v0.708l0.019,1.1l-1.823,2.651
		l0.274,0.274l0.216,0.315l0.157-1.14l1.176-1.474L20.36,11.153L20.36,11.153z M20.242,9.427l0.218,0.16l-0.02,1.335l-0.176,0.097
		L20.242,9.427L20.242,9.427z"/>
	<polygon fill="#ECDDD5" points="20.46,9.586 20.242,9.427 20.264,11.018 20.44,10.921 20.46,9.586 	"/>
	<path fill="#B8252E" d="M17.845,13.179l-0.097-0.159l-1.628,2.103l-0.16,0.217c-0.37,0.649-0.489,1.336-0.391,2.044
		c0.059,0.374,0.216,0.782,0.431,1.236c0.18,0.135,0.317,0.295,0.43,0.45c0.356,0.456,0.573,0.846,0.668,1.18v1.043l0.198,0.469
		l0.018,0.019l0.553-2.16v-0.333c-0.726-0.57-1.258-1.162-1.593-1.81c-0.292-0.45-0.393-1-0.314-1.648L17.845,13.179L17.845,13.179z
		"/>
	<path fill="#762221" d="M17.748,13.02l-0.097-0.392c-0.118,0-0.236,0.02-0.336,0.062c-0.114,0.569-0.431,1.177-0.961,1.823
		l-0.233,0.609L17.748,13.02L17.748,13.02z"/>
	<path fill="#EAEAEA" d="M20.183,11.686l-1.176,1.474l-0.157,1.14l-0.216-0.315l-0.511,0.61l-0.313-0.59l-0.729,1.002
		c-0.391,0.51-0.391,1.158,0.019,1.946c0.043,0.136,0.102,0.253,0.16,0.391c0.274-0.902,0.807-1.749,1.57-2.555l2.003-1.96
		l1.907-2.239c-0.119-0.218-0.179-0.492-0.179-0.847c-0.646,0.454-1.157,1.004-1.53,1.652l0.155,0.922L20.183,11.686L20.183,11.686z
		 M20.44,11.919l-1.123,1.259l-0.275,0.805l0.081-0.842l1.101-1.299L20.44,11.919L20.44,11.919z M17.79,14.239l0.136,0.195
		c-0.649,0.653-0.922,1.358-0.827,2.164c-0.216-0.335-0.232-0.707-0.095-1.12C17.218,14.987,17.473,14.573,17.79,14.239
		L17.79,14.239z"/>
	<polygon fill="#FFFFFF" points="19.318,13.179 20.44,11.919 20.225,11.842 19.124,13.142 19.043,13.984 19.318,13.179 	"/>
	<path fill="#FFFFFF" d="M17.926,14.434l-0.136-0.195c-0.317,0.334-0.572,0.748-0.786,1.239c-0.137,0.413-0.121,0.785,0.095,1.12
		C17.004,15.792,17.276,15.087,17.926,14.434L17.926,14.434z"/>
	<polygon fill="#CCCCCC" points="20.421,11.393 20.183,11.686 21.185,12.315 21.03,11.393 20.421,11.393 	"/>
	<path d="M24.289,8.25c0.274-0.786,0.256-1.709-0.041-2.771c-0.214-0.745-0.471-1.375-0.784-1.867
		c0.608,2.222,0.627,4.243,0.058,6.028c-0.253-0.547-0.312-1.412-0.157-2.57c-0.041,0.177-0.154,0.238-0.332,0.177L23.051,7.6
		c0.021,0.375-0.099,0.687-0.373,0.946c-0.077,0.45-0.118,0.863-0.118,1.196c0,0.355,0.06,0.629,0.179,0.847
		c0.058,0.076,0.096,0.157,0.154,0.213c0.239,0.257,0.588,0.352,1.042,0.336c0.175,0.016,0.353,0.038,0.53,0.077
		c0.334,0.08,0.647,0.179,0.923,0.294c-0.021-0.333-0.255-0.646-0.75-0.962C24.801,9.898,24.68,9.134,24.289,8.25L24.289,8.25z"/>
	<path fill="#B8252E" d="M23.936,11.137c-0.454,0.016-0.804-0.079-1.042-0.336l-4.734,5.362c-0.271,0.354-0.314,1.083-0.136,2.18
		c0.042-1.277,0.686-2.236,1.923-2.886l3.222-2.083l-0.53-0.823l1.434-0.411l0.394-0.926C24.289,11.175,24.111,11.153,23.936,11.137
		L23.936,11.137z M22.935,11.078l0.491,0.176l-1.159,1.336l-3.771,3.733c-0.236,0.33-0.393,0.705-0.472,1.137
		c0-0.508,0.099-0.901,0.272-1.198c0.926-1.101,1.887-2.18,2.928-3.221L22.935,11.078L22.935,11.078z"/>
	<path fill="#E83734" d="M23.425,11.254l-0.491-0.176l-1.711,1.964c-1.041,1.041-2.002,2.12-2.928,3.221
		c-0.173,0.297-0.272,0.69-0.272,1.198c0.079-0.432,0.236-0.808,0.472-1.137l3.771-3.733L23.425,11.254L23.425,11.254z"/>
	<path fill="#CCCCCC" d="M22.894,10.801c-0.058-0.056-0.096-0.137-0.154-0.213l-1.907,2.239l-2.003,1.96
		c-0.763,0.807-1.296,1.653-1.57,2.555c0.156,0.295,0.353,0.549,0.568,0.783c0.061,0.063,0.119,0.14,0.196,0.217
		c-0.179-1.097-0.136-1.826,0.136-2.18L22.894,10.801L22.894,10.801z"/>
	<path fill="#762221" d="M24.073,12.14l-1.434,0.411l0.53,0.823l-3.222,2.083c-1.237,0.65-1.881,1.609-1.923,2.886
		c-0.077-0.078-0.136-0.155-0.196-0.217l0.041,0.847c-1.239-1.121-1.831-2.1-1.748-2.985c0.411-0.866,1.002-1.73,1.783-2.614
		l-0.058-0.195L15.96,15.83c-0.079,0.648,0.023,1.198,0.314,1.648c0.335,0.648,0.867,1.242,1.593,1.81v0.333l-0.553,2.16v0.06
		c-0.172,0.708-0.253,1.415-0.215,2.14l-0.391,0.846l-0.336-1.515l0.886-1.491l0.038-0.058l-0.198-0.469l0.023,0.564l-0.769,1.24
		l-0.079-0.333l0.824-1.471v-1.043c-0.095-0.333-0.312-0.724-0.668-1.18c-0.113-0.154-0.25-0.314-0.43-0.45
		c-0.215-0.454-0.373-0.862-0.431-1.236l-0.117,0.469l0.842,1.709l-0.726,2.81l0.611,5.694l0.309-0.275h0.71
		c-0.059-0.058-0.102-0.138-0.14-0.195l0.335-0.414l-0.513-1.515l0.472-1.371c-0.096-0.611-0.058-1.453,0.157-2.553l0.53-2.261
		l-0.019-0.786c0.058-0.686,0.488-1.433,1.277-2.219l4.301-2.965l-0.432-0.649l1.12-0.392l0.531-0.844l0.333,0.432
		c-2.139,3.201-3.106,5.538-2.887,6.992l-0.588,1.355l-1.846,0.354l2.159,0.746c0.038-0.746,0.297-1.451,0.749-2.105
		c0.035-1.155,0.312-2.336,0.804-3.511c0.568-1.907,1.413-3.222,2.554-3.931c-0.198-0.177-0.432-0.332-0.708-0.451
		c-0.275-0.116-0.588-0.214-0.923-0.294L24.073,12.14L24.073,12.14z"/>
	<path fill="#B8252E" d="M25.153,12.06l-0.333-0.432l-0.531,0.844l-1.12,0.392l0.432,0.649L19.3,16.478
		c-0.789,0.786-1.219,1.533-1.277,2.219l0.019,0.788l-0.53,2.259c-0.215,1.1-0.253,1.941-0.157,2.553
		c1.004,0.53,1.787,0.135,2.376-1.139c-0.353-0.415-0.51-0.885-0.449-1.414l0.549-0.982l1.846-0.354l0.588-1.355
		C22.047,17.598,23.014,15.261,25.153,12.06L25.153,12.06z"/>
	<path fill="#B8252E" d="M23.543,15.891c-0.492,1.175-0.769,2.356-0.804,3.511c-0.452,0.654-0.71,1.359-0.749,2.105
		c0,0.118,0,0.237,0,0.333c-0.453,0.294-0.825,0.648-1.118,1.08c-0.137,0.214-0.238,0.45-0.317,0.688l-1.567,1.804l-1.592,1.769
		l-0.335,0.414c0.038,0.057,0.081,0.137,0.14,0.195c0.35,0.473,0.746,0.883,1.159,1.219c2.77-2.67,4.81-5.698,6.086-9.094
		c0.804-2.496,1.357-5.147,1.651-7.956C24.956,12.669,24.111,13.984,23.543,15.891L23.543,15.891z M24.134,15.733
		c-0.533,1.219-0.846,2.513-0.965,3.888c-0.372,0.748-0.609,1.609-0.727,2.577c-0.708,0.465-1.141,1.037-1.277,1.703l-3.554,4.008
		l-0.297-0.294l3.518-3.989c0.178-0.666,0.608-1.217,1.296-1.628c0.058-0.904,0.314-1.73,0.784-2.454
		c0.041-1.319,0.357-2.632,0.966-3.928c0.411-1.455,1.078-2.556,2-3.301C25.053,13.396,24.466,14.535,24.134,15.733L24.134,15.733z"
		/>
	<path fill="#E83734" d="M23.169,19.621c0.119-1.375,0.432-2.669,0.965-3.888c0.333-1.198,0.919-2.338,1.745-3.418
		c-0.923,0.745-1.59,1.846-2,3.301c-0.609,1.296-0.926,2.609-0.966,3.928c-0.469,0.724-0.726,1.549-0.784,2.454
		c-0.688,0.411-1.118,0.962-1.296,1.628l-3.518,3.989l0.297,0.294l3.554-4.008c0.136-0.666,0.569-1.237,1.277-1.703
		C22.56,21.23,22.797,20.369,23.169,19.621L23.169,19.621z"/>
	<path fill="#B8252E" d="M18.004,13.749l-0.102-0.375c-0.781,0.884-1.372,1.749-1.783,2.614c-0.083,0.885,0.509,1.864,1.748,2.985
		l-0.041-0.847c-0.216-0.234-0.412-0.488-0.568-0.783c-0.058-0.137-0.117-0.255-0.16-0.391c-0.41-0.789-0.41-1.437-0.019-1.946
		l0.729-1.002L18.004,13.749L18.004,13.749z"/>
	<path fill="#B8252E" d="M16.295,19.562l-0.842-1.709l-1.061,3.909c-0.178,2.377,0,4.634,0.53,6.773l0.138,0.532l1.121-1.001
		l-0.611-5.694L16.295,19.562L16.295,19.562z M15.489,18.365l0.179,0.412l-0.746,3.063c-0.119,1.12-0.1,2.357,0.037,3.672
		l0.513,2.906l-0.314,0.236l-0.492-3.301c-0.157-1.277-0.178-2.474-0.041-3.573L15.489,18.365L15.489,18.365z"/>
	<path fill="#E83734" d="M15.667,18.777l-0.179-0.412l-0.865,3.416c-0.137,1.099-0.117,2.299,0.041,3.573l0.492,3.301l0.314-0.236
		l-0.513-2.906c-0.137-1.315-0.156-2.552-0.037-3.672L15.667,18.777L15.667,18.777z"/>
	<path fill="#762221" d="M19.283,21.744c-0.061,0.529,0.096,1,0.449,1.414c-0.59,1.274-1.372,1.668-2.376,1.139
		c0.195,0.881,0.747,1.256,1.633,1.117l1.567-1.804c0.079-0.238,0.18-0.474,0.317-0.688c0.293-0.432,0.666-0.786,1.118-1.08
		c0-0.097,0-0.216,0-0.333c-0.885,0.923-1.709,1.12-2.453,0.568c-0.021-0.096-0.021-0.194,0.037-0.313l0.257-1L19.283,21.744
		L19.283,21.744z"/>
	<path fill="#B8252E" d="M19.574,21.762c-0.057,0.119-0.057,0.217-0.037,0.313c0.744,0.552,1.568,0.355,2.453-0.568l-2.159-0.746
		L19.574,21.762L19.574,21.762z M21.852,21.526l-0.099,0.118l-1.666-0.414l-0.454,0.768l0.258-1.041L21.852,21.526L21.852,21.526z"
		/>
	<polygon fill="#E83734" points="21.752,21.644 21.852,21.526 19.89,20.957 19.632,21.998 20.086,21.23 21.752,21.644 	"/>
	<polygon fill="#ECEAE4" points="17.259,21.82 17.314,21.84 17.314,21.781 17.297,21.762 17.259,21.82 	"/>
	<path fill="#B8252E" d="M17.314,21.84l-0.056-0.021l-0.886,1.491l0.336,1.515l0.391-0.846
		C17.061,23.255,17.142,22.549,17.314,21.84L17.314,21.84z"/>
	<polygon fill="#B8252E" points="16.354,23.097 17.122,21.856 17.099,21.292 16.275,22.763 16.354,23.097 	"/>
	<path fill="#333333" d="M16.883,25.667l0.513,1.515l1.592-1.769c-0.886,0.14-1.438-0.236-1.633-1.117L16.883,25.667L16.883,25.667z
		"/>
	<path fill="#D9AD85" d="M16.49,27.791l-0.309,0.275l-1.121,1.001l-0.296,0.217c0.022,0.098,0.058,0.177,0.099,0.215l1.159-1.042
		l-0.513,0.728c-0.079,0.057-0.137,0.118-0.199,0.178c-0.116,0.137-0.136,0.273-0.078,0.392l0.396-0.038
		c-0.059,0.098-0.097,0.193-0.12,0.255c-0.02,0.06-0.02,0.075,0,0.098c0.023,0.098,0.061,0.178,0.159,0.213l0.197-0.213H16.1
		c-0.099,0.118-0.159,0.213-0.178,0.294c-0.023,0.099,0.019,0.176,0.079,0.236l0.353-0.236h0.256
		c-0.12,0.118-0.217,0.216-0.292,0.313c-0.104,0.118-0.137,0.219-0.137,0.315c0,0.096,0.056,0.159,0.172,0.217l1.217-1.767
		l-0.37-1.65h-0.71V27.791z M17.142,27.89l-0.081,0.138l-0.451,0.153c-0.373,0.454-0.746,0.905-1.078,1.378H15.31l0.871-1.102
		l-0.18-0.137l0.53-0.431H17.142L17.142,27.89z"/>
	<path fill="#ECDDD5" d="M17.061,28.028l0.081-0.138h-0.611l-0.53,0.431l0.18,0.137L15.31,29.56h0.222
		c0.333-0.473,0.705-0.924,1.078-1.378L17.061,28.028L17.061,28.028z"/>
	<path fill="#AB8262" d="M15.509,29.186l0.513-0.728L14.862,29.5c0.096,0.099,0.256,0.04,0.448-0.137
		C15.372,29.304,15.43,29.243,15.509,29.186L15.509,29.186z"/>
	<path fill="#AB8262" d="M18.359,29.009c-0.413-0.336-0.809-0.746-1.159-1.219l0.37,1.651l-1.217,1.767
		c0.061,0.02,0.137,0.02,0.256,0.037l1.414-1.529l0.709,0.607l0.863,1.688h0.098l-0.807-1.766l-0.705-0.884L18.359,29.009
		L18.359,29.009z"/>
	<path fill="#762221" d="M24.408,23.411c0.216-0.414,0.431-0.846,0.609-1.296l1.038-3.046c0.808-3.2,0.808-5.575,0.042-7.109
		c-0.294,2.809-0.847,5.46-1.651,7.956c-1.277,3.396-3.317,6.423-6.086,9.094c0.35,0.253,0.726,0.472,1.136,0.627
		c0.882-0.766,1.67-1.553,2.379-2.395c0.332-0.374,0.626-0.747,0.9-1.16l2.164,0.667L24.408,23.411L24.408,23.411z M23.957,25.785
		l-0.769-0.294c0.276-0.411,0.527-0.801,0.769-1.194V25.785L23.957,25.785z"/>
	<path fill="#B8252E" d="M23.188,25.491l0.769,0.294v-1.488C23.715,24.689,23.464,25.08,23.188,25.491L23.188,25.491z"/>
	<path d="M21.875,27.242c0.823,0.136,1.567,0.453,2.236,0.903l0.041,3.868l-0.863-2.041c-0.942,2.12-1.591,4.438-1.964,6.972
		c-1.669,1.101-3.851,1.395-6.538,0.903c0.919,0.373,1.882,0.687,2.886,0.924c0.172,0.038,0.351,0.077,0.548,0.117
		c0.768,0.156,1.549,0.273,2.316,0.352c0.729,0.063,1.434,0.081,2.161,0.063c-0.137-2.791,0.159-5.267,0.882-7.404
		c0.179,1.078,0.335,2.158,0.454,3.279c0,0.019,0,0.019,0,0.038l-0.318,3.259l0.515,0.414c0,0.197,0,0.393,0,0.588l0.57-0.667
		l-0.06-4.831c0.292-2.34,0.373-4.755,0.197-7.229l-2.164-0.667C22.5,26.495,22.207,26.868,21.875,27.242L21.875,27.242z"/>
	<path fill="#333333" d="M24.111,28.145c-0.669-0.45-1.414-0.767-2.236-0.903c-0.709,0.842-1.497,1.629-2.379,2.395
		c-0.411-0.156-0.786-0.374-1.136-0.627l-0.177,0.354l0.705,0.884l0.807,1.766h-0.098l-0.159,0.021l0.101,0.198
		c0.294,0.605,0.294,0.882,0.019,0.843l-0.239-0.215c-0.054,0.138-0.154,0.236-0.275,0.274c-0.136,0.058-0.311,0-0.508-0.137
		c-0.076,0.099-0.157,0.137-0.239,0.137c-0.154,0-0.309-0.158-0.487-0.473c-0.061,0.06-0.1,0.102-0.158,0.116
		c-0.255,0.101-0.492-0.155-0.686-0.786l-0.355-0.745c-0.12-0.018-0.195-0.018-0.256-0.037c-0.117-0.058-0.172-0.121-0.172-0.217
		c0-0.096,0.033-0.198,0.137-0.315c-0.137,0-0.258-0.018-0.317-0.078c-0.06-0.06-0.102-0.137-0.079-0.236
		c-0.099-0.018-0.177-0.039-0.255-0.081c-0.098-0.035-0.136-0.115-0.159-0.213c0.061,2.768-0.176,5.361-0.723,7.777
		c2.687,0.491,4.869,0.197,6.538-0.903c0.373-2.534,1.022-4.852,1.964-6.972l0.863,2.041L24.111,28.145L24.111,28.145z
		 M15.727,30.755l0.214,0.118c0.095,1.08,0.118,2.183,0.042,3.263l-0.512,3.494h-0.434C15.532,34.45,15.745,32.15,15.727,30.755
		L15.727,30.755z"/>
	<path fill="#999999" d="M15.941,30.873l-0.214-0.118c0.018,1.395-0.195,3.695-0.69,6.875h0.434l0.512-3.494
		C16.06,33.056,16.037,31.953,15.941,30.873L15.941,30.873z"/>
	<path d="M13.271,56.188l-0.099,0.317c2.181,0.687,3.752,0.569,4.73-0.317c0.888-1.156,1.614-1.688,2.222-1.569l0.53-1.65
		l-0.472-0.609c-0.451,0.65-0.764,1.335-0.943,2.082c-1.08,1.119-2.039,1.495-2.886,1.081c-0.094-0.021-0.172-0.077-0.275-0.137
		L13.271,56.188L13.271,56.188z"/>
	<path fill="#AB8262" d="M24.034,35.215c0-0.02,0-0.02,0-0.038c-0.119-1.121-0.275-2.201-0.454-3.279
		c-0.724,2.138-1.02,4.613-0.882,7.404c-0.727,0.019-1.432,0-2.161-0.063c0.962,0.14,1.751,0.514,2.398,1.121
		c0.449,1.316,0.588,2.652,0.449,3.987c-0.251,2.438-0.686,4.793-1.292,7.067c0.016,2.301-0.63,4.048-1.967,5.227
		c0.571,0.296,1.22,0.096,1.904-0.609l0.846-2.613c-0.196-0.82-0.213-1.65-0.039-2.49c0.606-1.866,1.02-3.596,1.217-5.186
		c0.136-2.142,0-4.264-0.393-6.323l0.056-0.946L24.034,35.215L24.034,35.215z"/>
	<path fill="#D9AD85" d="M18.732,30.324l-0.709-0.607l-1.414,1.529l0.355,0.745c0.194,0.631,0.431,0.887,0.686,0.786l-0.375-0.744
		V31.68l0.533,0.981c0.178,0.314,0.333,0.473,0.487,0.473c-0.292-0.455-0.428-0.846-0.428-1.16v-0.313l0.274,0.941
		c0.137,0.175,0.256,0.297,0.393,0.395c0.198,0.137,0.373,0.194,0.508,0.137l-0.784-1.436l0.159-0.452l0.469,1.102l0.431,0.512
		l0.239,0.215l-0.688-1.806v-0.396l0.568,1.16l0.159-0.021L18.732,30.324L18.732,30.324z M17.987,29.895l0.155,0.152l-1.119,1.222
		l0.076,0.904l-0.312-0.927L17.987,29.895L17.987,29.895z"/>
	<polygon fill="#ECDDD5" points="18.142,30.046 17.987,29.895 16.787,31.246 17.099,32.173 17.023,31.269 18.142,30.046 	"/>
	<path fill="#AB8262" d="M18.418,31.246l-0.159,0.452l0.784,1.436c0.121-0.038,0.221-0.137,0.275-0.274l-0.431-0.512L18.418,31.246
		L18.418,31.246z"/>
	<path fill="#AB8262" d="M17.868,31.661v0.313c0,0.314,0.137,0.705,0.428,1.16c0.082,0,0.163-0.038,0.239-0.137
		c-0.137-0.098-0.256-0.22-0.393-0.395L17.868,31.661L17.868,31.661z"/>
	<path fill="#AB8262" d="M17.651,32.777c0.058-0.015,0.097-0.057,0.158-0.116l-0.533-0.981v0.354L17.651,32.777L17.651,32.777z"/>
	<path fill="#AB8262" d="M19.557,33.074c0.275,0.039,0.275-0.237-0.019-0.843l-0.101-0.198l-0.568-1.16v0.396L19.557,33.074
		L19.557,33.074z"/>
	<path fill="#AB8262" d="M16.318,30.677c0.075-0.098,0.172-0.195,0.292-0.313h-0.256l-0.353,0.236
		C16.06,30.659,16.181,30.677,16.318,30.677L16.318,30.677z"/>
	<path fill="#AB8262" d="M15.232,29.755c0.06,0.08,0.14,0.155,0.276,0.217c0.023-0.062,0.061-0.157,0.12-0.255L15.232,29.755
		L15.232,29.755z"/>
	<path fill="#AB8262" d="M15.667,30.282c0.078,0.042,0.156,0.063,0.255,0.081c0.019-0.081,0.079-0.176,0.178-0.294h-0.236
		L15.667,30.282L15.667,30.282z"/>
	<path fill="#D9AD85" d="M18.22,38.888c-0.197-0.04-0.375-0.079-0.548-0.117c-0.079,1.02,0.137,1.982,0.624,2.866
		c-0.292,2.221-0.35,4.711-0.194,7.481c-0.137,2.123-0.826,4.205-2.024,6.268c0.103,0.06,0.182,0.115,0.275,0.137
		c1.474-0.589,2.496-1.789,3.046-3.614l-0.041-2.435c0.61-1.925,0.923-3.947,0.981-6.088c-0.236-0.728-0.332-1.689-0.314-2.871
		C19.655,39.674,19.043,39.143,18.22,38.888L18.22,38.888z M17.845,39.064h0.356c0.019,0.805,0.217,1.629,0.608,2.435l-0.14,7.815
		c-0.135,1.276-0.45,2.477-0.98,3.595l-0.844,2.161l-0.492,0.217l1.141-2.414c0.492-1.396,0.743-2.617,0.784-3.692l-0.041-3.164
		l0.274-4.418C18.065,40.715,17.827,39.869,17.845,39.064L17.845,39.064z"/>
	<path fill="#ECDDD5" d="M18.201,39.064h-0.356c-0.018,0.805,0.221,1.65,0.667,2.534l-0.274,4.418l0.041,3.164
		c-0.041,1.075-0.292,2.296-0.784,3.692l-1.141,2.414l0.492-0.217l0.844-2.161c0.53-1.118,0.845-2.318,0.98-3.595l0.14-7.815
		C18.418,40.693,18.22,39.869,18.201,39.064L18.201,39.064z"/>
	<path fill="#AB8262" d="M20.537,39.239c-0.767-0.078-1.548-0.195-2.316-0.352c0.823,0.255,1.435,0.786,1.805,1.627
		c-0.018,1.182,0.079,2.144,0.314,2.871c-0.058,2.141-0.371,4.163-0.981,6.088l0.041,2.435c-0.55,1.825-1.572,3.025-3.046,3.614
		c0.847,0.414,1.806,0.038,2.886-1.081c0.179-0.747,0.492-1.432,0.943-2.082l-0.037-2.631l0.983-4.733
		c-0.041-0.864-0.083-1.729-0.138-2.612C20.634,41.398,20.479,40.36,20.537,39.239L20.537,39.239z"/>
	<path fill="#D9AD85" d="M20.991,42.383c0.056,0.884,0.098,1.748,0.138,2.612c0.076,1.867,0.117,3.694,0.137,5.518l-0.416,1.847
		l-0.195,0.609l-0.53,1.65l-0.529,1.649c0.174,0.179,0.351,0.314,0.529,0.373c1.336-1.179,1.983-2.926,1.967-5.227
		c0.606-2.274,1.041-4.63,1.292-7.067c0.139-1.335,0-2.671-0.449-3.987c-0.647-0.607-1.436-0.981-2.398-1.121
		C20.479,40.36,20.634,41.398,20.991,42.383L20.991,42.383z M21.146,39.495c-0.058,0.925,0.058,1.867,0.314,2.83l0.274,3.945
		l0.039,4.165l-0.686,2.944l-1.063,3.005l-0.194-0.196l0.923-2.865l0.725-2.905l-0.057-4.225l-0.276-3.852
		c-0.335-0.979-0.472-1.922-0.411-2.847H21.146L21.146,39.495z"/>
	<path fill="#ECDDD5" d="M21.461,42.325c-0.256-0.963-0.373-1.905-0.314-2.83h-0.411c-0.061,0.925,0.076,1.867,0.411,2.847
		l0.276,3.852l0.057,4.225l-0.725,2.905l-0.923,2.865l0.194,0.196l1.063-3.005l0.686-2.944l-0.039-4.165L21.461,42.325
		L21.461,42.325z"/>
	<path d="M20.125,56.642c-0.178-0.059-0.355-0.194-0.529-0.373l-0.727,1.964c0.999,0.45,2.038,0.118,3.122-0.964l0.921-2.886
		l-0.037-0.964l-0.846,2.613C21.344,56.737,20.695,56.938,20.125,56.642L20.125,56.642z"/>
</g>
</svg>
