<?xml version="1.0" encoding="utf-8"?>
<!-- Generator: Adobe Illustrator 15.1.0, SVG Export Plug-In . SVG Version: 6.00 Build 0)  -->
<!DOCTYPE svg PUBLIC "-//W3C//DTD SVG 1.1//EN" "http://www.w3.org/Graphics/SVG/1.1/DTD/svg11.dtd">
<svg version="1.1" id="_x23_Layer_1" xmlns="http://www.w3.org/2000/svg" xmlns:xlink="http://www.w3.org/1999/xlink" x="0px"
	 y="0px" width="500px" height="300px" viewBox="0 0 500 300" enable-background="new 0 0 500 300" xml:space="preserve">
<path fill-rule="evenodd" clip-rule="evenodd" fill="#A2A183" stroke="#000000" stroke-width="1.0001" stroke-linecap="round" stroke-miterlimit="2.6131" d="
	M193.746,87.314c-0.764-0.897,1.341-1.923,1.577-3.064c0.149-0.031,2.249-2.7,2.549-2.952c-1.891,4.298-2.063,2.922-2.751,6.705
	c-0.688,3.782-2.063,9.456-1.031,7.22c1.031-2.235,2.407-3.954,2.407-3.954s-1.031,2.235-0.859,7.22
	c0.172,4.986,0.516,9.112,0.859,8.252s2.063,3.61,2.063,3.61l4.298,2.751c0,0,0.172,2.922-0.172,6.36
	c-0.344,3.438-1.375,7.048-1.375,7.048s0.688,0.688,0.688,2.235c0,1.547-0.344,4.986-0.344,4.986s-3.094,1.719-3.782,2.579
	c-0.688,0.859-1.032,2.75-3.61,5.501s-1.375,3.782-4.126,6.876c-2.75,3.095-7.564,6.705-8.596,7.221
	c1.792,0.727,1.229,1.245-1.218,3.108c-4.529,3.451,4.909-1.559,2.122,1.66c-1.353,1.563-2.279,2.786-2.279,4.342
	c8.251,0,4.798-2.326,3.035,1.72c-0.852,1.955,4.392-3.05,0.948,1.277c-0.694,0.871-3.062,4.85,0.644,2.849
	c4.617-2.493,0.659,0.344,0.53,0.344c0.551-0.385,6.175-3.837,5.629-2.019c-2.592,8.63,6.302-6.646,9.328-3.482
	c3.556,3.719,5.576-4.44,8.08-6.405c2.911-2.285,1.999-1.384,4.858-3.035c0.413-0.238,0.44-0.297,0.643-0.702
	c0.992-0.535,9.012-7.946,9.843-9.799c1.982-4.417,11.541-11.054,6.547-16.906c-0.017-0.02-2.252-5.949-1.935-6.302
	c0.435-0.483,1.636-1.195,1.876-1.891c2.201,2.961-0.33,4.841,3.251,4.111c1.26-0.257,1.734,1.901,1.734,2.766
	c0.303,0,0.142,2.562,1.719,3.482l0.344,0.3c0,0,1.031-0.86,5.673-1.375c4.642-0.516,5.845,1.547,11.519,1.204
	c5.673-0.344,13.409-2.063,17.019-3.782c3.61-1.719,8.939-4.126,9.455-6.017c0.517-1.891-1.375-3.954,0-8.251
	c1.376-4.298,0.688-7.564,0.344-10.659s-0.859-7.564,0-9.971c0.859-2.407,0.688-6.017,0.688-6.876c0-0.86,2.063-1.375,2.063-1.375
	c2.867,1.151,4.314,0.995,2.81,5.629c-0.703,2.164-4.152,4.242,0.756-0.127c2.508-2.233,0.035-3.671,2.107-2.063
	c6.051,4.695,9.685,0.374,11.003,2.107c1.506,1.981,11.335,6.73,12.549,3.222c0.057,0.136-3.296,4.006-3.551,4.985
	c-0.486,1.865-4.752,10.903-1.263,11.332c2.263,0.278-0.657,6.577,1.892,6.375c0,4.214,3.165-3.311,4.057,6.302
	c0.298,3.207-0.619,3.942-0.619,6.248c0.032-0.238,2-3.291,2.25-0.172c0.128,1.601,3.035,1.898,2.824,9.327l0.083,0.472
	c0.498-0.595,3.156-3.249,2.751-4.126c1.365-0.315,1.611,2.284,3.954,3.094c0.862,0.298-0.765-2.281,0.918-5.673
	c1.171-2.359,2.025,9.748,4.239,4.082c2.544-6.51,1.44,4.152,4.813,1.12c1.162-1.045,2.604,1.137,0.903-5.172
	c-2.141-7.947,4.457-17.393,3.208-27.536c-0.489-3.969,0.521-3.26-1.42-8.296c-0.64-1.66-1.442-8.578-0.673-10.442
	c0.569-1.379,0.278-0.498,1.936,2.19c3.74,6.069,0.397-1.711-0.344-4.598c-3.568-0.61,4.447-2.502-1.72-4.769
	c-0.175-0.065,0.521-1.811-0.516-3.826c-2.233-2.018-5.383,1.12-2.75-2.235c1.49-1.899-7.88-4.145-8.237-7.048
	c-0.268-2.182-6.563-8.564,0.83-3.723c0.574,0.376-3.404-8.46-14.755-10.374c-1.595-0.269-1.993-1.571-2.422-1.719
	c-0.535-2.082-2.487-9.689-4.342-10.531c-0.458-0.208-0.822-0.426-1.331-0.644c-3.936-2.808-2.877-4.304-9.538-4.126
	c-4.238,0.114-8.479-1.578-13.267-0.216c-1.203,0.342-8.907,0.576-8.655-2.363c-4.305-1.493,8.936-2.063,1.032-2.063
	c-7.85,0-5.323-2.124-10.831-5.202c-1.845-1.03,0.204-2.404-5.845-1.66c-0.521,0.064,1.331-2.16-0.516-2.078
	c-10.335-5.34-9.799-3.227-21.474-0.845c-1.39,0.284,9.474-4.729,2.033-2.377c-1.955,0.617-6.104,2.019-8.065,2.019
	c-0.193,0.263-2.777,2.607-1.503-0.86c0.223-0.605,2.707-14.982,2.707-15.472c-4.113,3.788-6.812,6.895-11.921,9.328
	c-1.878,0.894-5.786,7.809-5.786,9.067c-2.375,0.821,1.15,0.898-1.361-0.747c-2.551-1.671-5.595,3.411-7.75,3.326
	c-3.16-0.125-9.456,7.947-9.456,11.518c0.058,0,1.453,5.232,1.675,5.545c0.852,1.197,0.827,3.989,0.216,4.985
	c-3.767,6.142,2.176,3.204-3.827,7.476c-3.679,2.619-6.813,4.479-8.551,9.5c-0.528,1.525,0.577,11.555,2.751,10.314
	c0.349,1.359,2.585,2.52,2.406,6.705c-0.06,1.405,2.751,2.213,2.751,5.845C191.168,86.613,193.746,86.984,193.746,87.314z"/>
<path fill-rule="evenodd" clip-rule="evenodd" fill="#7B7A5C" stroke="#000000" stroke-width="1.0001" stroke-linecap="round" stroke-miterlimit="2.6131" d="
	M254.087,19.409c-1.354-0.067-4.379-2.235-7.048-2.235c-0.717-2.066-18.58,3.667-10.143,0.472c2.279-0.863-8.864,0.539-8.768,1.763
	c-0.215,0.056-0.721,0.248-1.031,0.344c-2.979,5.201,4.146-0.436,2.191,4.298c-1.492,3.612,12.731,0.133,4.155,3.409
	c-6.368,2.432,2.798,0.461,1.518,2.078c-4.753,6.002,0.988,2.513,4.73,4.784c1.658,1.006,0.348-0.376-1.792,1.935
	c-1.84,1.987-3.643-0.665,1.92,5.487c1.628,1.8,6.452,7.49,6.36,9.642c-0.017,0.397,1.135,2.436,1.547,2.579
	c0,0.127-5.234,0.891-6.577,1.847c-4.715,3.355-4.703-0.077-2.908,3.482c0.507,1.006-5.753-2.731-3.468,1.719
	c1.198,2.332,0.696,9.771,0.059,5.845c-0.811-4.999-9.359,3.575-9.971,0c-0.883-0.228-11.474-4-6.817,1.159
	c0.836,0.926-1.184,1.419-2.122,1.419c-0.944-2.731-5.372,1.547-6.017,1.547c-0.458,2.129,1.354,12.192,0.845,16.332
	c-0.812,6.61,3.95,3.287,5.3,7.393c0.42,1.276,8.269,12.034,10.703,12.034c0.364,1.761,1.719-0.521,1.719-1.719
	c0,0.463,0.6-1.486,1.204,0.859c2.525,0.876-0.256-10.796,5.044-5.216c1.544,1.626,0.799-5.105,3.738-7.034
	c5.645-3.702,10.31-15.37,12.221-21.729c2.894,2.295,1.592,2.331,3.969-2.893c0.81-1.78,0.54-4.112,2.249-7.308
	c0.35-0.653,0.678-4.888,1.832-1.547c3.467-7.652,8.713-8.164,5.202-13.625c-0.1-0.155,4.425-0.625,6.316-1.891
	c1.266-0.847,9.273-5.784,10.314-6.145c0.672-0.343,3.604-0.91,1.734-1.861c-2.392-1.217,8.105-3.983,3.251-3.983
	c0-0.977-5.585,1.705-9.269,0.27c-0.367-0.143-8.678-0.575-3.58-3.664c1.48-0.897,6.368-0.046-2.107-1.09
	c-6.271-0.772-7.588-7.203-14.053-6.675C254.296,21.67,258.183,19.859,254.087,19.409z"/>
<path fill-rule="evenodd" clip-rule="evenodd" fill="none" stroke="#000000" stroke-width="1.0001" stroke-linecap="round" stroke-miterlimit="2.6131" d="
	M226.066,10.9c-4.51,3.063-4.835,6.907-5.86,11.933c-0.771,3.784,1.085-2.89,3.625-3.768
	C224.052,18.205,225.999,10.945,226.066,10.9z"/>
<path fill-rule="evenodd" clip-rule="evenodd" fill="#9C9D7E" stroke="#000000" stroke-width="1.0001" stroke-linecap="round" stroke-miterlimit="2.6131" d="
	M199.248,25.254c-1.43-1.678-0.868-7.297,1.891-8.252c0.006-0.023,2.587-6.742,2.407-3.251c-0.075,1.452,0.344,5.245,0.344,6.862
	c0.049,0,0.621,1.899,0.776,2.25c0.148-0.026-4.019,0.346-5.03,2.294C199.561,25.143,199.258,25.267,199.248,25.254z"/>
<path fill-rule="evenodd" clip-rule="evenodd" stroke="#000000" stroke-width="1.0001" stroke-linecap="round" stroke-miterlimit="2.6131" d="
	M204.233,41.844c0.563-1.374,11.679-9.141,10.359-8.293c-4.073,2.614,0.219,10.085-5.889,7.564
	C207.082,40.445,204.831,40.387,204.233,41.844z"/>
<path fill-rule="evenodd" clip-rule="evenodd" fill="#FF0000" stroke="#FF0000" stroke-width="1.0001" stroke-linecap="round" stroke-miterlimit="2.6131" d="
	M207.585,39.953c0.262-1.005,1.6-1.372,1.992-1.731c-0.04,0.266,1.352-0.337,0.373,1.547c-0.068-0.006-1.2,0.442-1.763,0.442
	C208.187,40.091,207.575,39.994,207.585,39.953z"/>
<path fill-rule="evenodd" clip-rule="evenodd" fill="none" stroke="#000000" stroke-width="1.0001" stroke-linecap="round" stroke-miterlimit="2.6131" d="
	M194.434,50.353c7.201-1.517,2.901-0.563,7.88-0.563"/>
<path fill-rule="evenodd" clip-rule="evenodd" fill="none" stroke="#000000" stroke-width="1.0001" stroke-linecap="round" stroke-miterlimit="2.6131" d="
	M207.327,48.978c-2.215,0-1.334-0.625-4.985-0.344"/>
<path fill-rule="evenodd" clip-rule="evenodd" fill="none" stroke="#000000" stroke-width="1.0001" stroke-linecap="round" stroke-miterlimit="2.6131" d="
	M200.623,39.351c0.328,4.45,2.208,3.095,4.298,3.095"/>
<path fill-rule="evenodd" clip-rule="evenodd" stroke="#000000" stroke-width="1.0001" stroke-linecap="round" stroke-miterlimit="2.6131" d="
	M184.033,61.098c3.492-3.59,7.505,3.509,2.493,7.522c-0.922,0.738-0.483,7.391-2.579,1.331
	C182.203,64.907,183.771,61.368,184.033,61.098z"/>
<path fill-rule="evenodd" clip-rule="evenodd" fill="#F9F5C6" stroke="#000000" stroke-width="1.0001" stroke-linecap="round" stroke-miterlimit="2.6131" d="
	M186.312,73.174c0.73,1.616,2.235,3.971,2.235,5.415c0.981-2.405,5.248-3.833,7.822-3.517c2.361,0.291,4.205-2.06,5.015-3.968
	c1.598-3.767,5-6.62,8.487-8.731c2.03-1.228,4.548-1.752,4.548-4.585c0.462,0-0.354-0.821-2.25-0.4
	c-0.65,0.144-3.782,0.187-3.996-0.138c-0.658-1-3.457-1.5-4.843-0.722c-1.965,1.104-4.9,3.691-6.525,5.221
	c-2.926,2.756-3.202,3.961-5.229,6.697C190.407,70.026,185.969,72.417,186.312,73.174z"/>
<path fill-rule="evenodd" clip-rule="evenodd" fill="none" stroke="#000000" stroke-width="1.0001" stroke-linecap="round" stroke-miterlimit="2.6131" d="
	M187.944,75.237c0.121-0.444,3.415-2.961,3.581-2.9c3.309,1.22,3.812,4.425,3.812-2.436c0-1.41,1.864-0.147,2.945-0.916
	c0.773-0.55,0.429-5.103,1.417-6.491c0.401-0.563,3.439,0.435,4.234,0.71c0.862,0.299,0.688-0.138,0.688-1.962
	c0-2.003,2.695,2.027,4.018-2.444c0.054-0.182,0.143-0.803,0.28-1.009"/>
<path fill-rule="evenodd" clip-rule="evenodd" fill="none" stroke="#FF0000" stroke-width="1.0001" stroke-linecap="round" stroke-miterlimit="2.6131" d="
	M192.93,75.409c1.339,0.033,4.963,0.454,5.329-1.296c0.003-0.018,2.298-2.644,2.414-2.721c0.92-0.614,1.458-4.242,3.008-5.374
	c1.471-1.074-0.253-1.015,2.744-1.783"/>
<path fill-rule="evenodd" clip-rule="evenodd" fill="none" stroke="#000000" stroke-width="1.0001" stroke-linecap="round" stroke-miterlimit="2.6131" d="
	M197.915,80.996c0.569-0.838,4.412-2.361,6.447-4.72c0.599-0.694,1.591-2.913,1.655-2.758c0.673,1.627,2.414-1.682,3.159-2.171
	l0.172-0.15"/>
<path fill-rule="evenodd" clip-rule="evenodd" fill="none" stroke="#000000" stroke-width="1.0001" stroke-linecap="round" stroke-miterlimit="2.6131" d="
	M214.591,36.901c1.086,0.68,4.179,1.58,4.713-0.15c0.041-0.132,0.958-0.795,0.96-0.796"/>
<path fill-rule="evenodd" clip-rule="evenodd" fill="none" stroke="#000000" stroke-width="1.0001" stroke-linecap="round" stroke-miterlimit="2.6131" d="
	M226.281,21.171c-1.092,0.646-1.639,2.87-2.063,2.836"/>
<path fill-rule="evenodd" clip-rule="evenodd" fill="none" stroke="#000000" stroke-width="1.0001" stroke-linecap="round" stroke-miterlimit="2.6131" d="
	M239.174,23.922c-0.565-0.906,1.476-0.849,2.729-1.555c1.919-1.081,4.629,1.936,7.736,2.463c0.297,0.05,0.685,0.187,0.968,0.294"/>
<path fill-rule="evenodd" clip-rule="evenodd" fill="none" stroke="#000000" stroke-width="1.0001" stroke-linecap="round" stroke-miterlimit="2.6131" d="
	M246.395,47.302c2.577,0.074,2.508-1.774,5.266-1.763c1.721,0.007,2.061-2.457,3.932-1.216l0.344,0.143"/>
<path fill-rule="evenodd" clip-rule="evenodd" fill="none" stroke="#000000" stroke-width="1.0001" stroke-linecap="round" stroke-miterlimit="2.6131" d="
	M222.542,93.934c3.678,2.552,2.507,4.846,5.374-4.656l0.127-0.329"/>
<path fill-rule="evenodd" clip-rule="evenodd" fill="none" stroke="#000000" stroke-width="1.0001" stroke-linecap="round" stroke-miterlimit="2.6131" d="
	M234.748,88.26c-3.421,8.109,2.478,0.314,2.407-0.516c0.354,0.428-0.176,5.804,2.235,0.815c0.795-1.646,3.224-11.771,4.298-15.084"
	/>
<path fill-rule="evenodd" clip-rule="evenodd" fill="none" stroke="#000000" stroke-width="1.0001" stroke-linecap="round" stroke-miterlimit="2.6131" d="
	M249.188,71.241c-1.41,2.083-3.68,16.932-2.407,6.189"/>
<path fill-rule="evenodd" clip-rule="evenodd" fill="none" stroke="#000000" stroke-width="1.0001" stroke-linecap="round" stroke-miterlimit="2.6131" d="
	M204.491,86.025c-1.182,4.161-0.808,12.056,0.815,15.988c1.556,3.769-3.455,4.029,3.64,9.155c1.095,0.791,1.284,2.773,1.733,3.222
	c1.488,1.488,2.403,3.09,2.923,3.61"/>
<path fill-rule="evenodd" clip-rule="evenodd" fill="none" stroke="#000000" stroke-width="1.0001" stroke-linecap="round" stroke-miterlimit="2.6131" d="
	M207.414,88.948c0,13.366,2.855,10.332,3.409,12.393c0.566,2.106-3.711,5.013,1.218,6.017c1.158,0.235-4.17,1.214-0.673,5.314"/>
<path fill-rule="evenodd" clip-rule="evenodd" fill="none" stroke="#000000" stroke-width="1.0001" stroke-linecap="round" stroke-miterlimit="2.6131" d="
	M214.118,118.001c2.32,2.157,10.486,6.597,13.237,3.61"/>
<path fill-rule="evenodd" clip-rule="evenodd" fill="#D7D4B5" d="M218.846,98.661c-2.145,1.142-5.325,1.142-0.13,4.787
	c1.524,1.07-6.288-0.672,2.293,4.523c2.564,1.552,0.795,0.614,0.314,4.529c-0.176,1.429,3.729-0.38,3.094,2.736
	c-0.584,2.865,3.872-0.196,3.797,1.405c-0.062,1.333,5.314,2.793,7.048-1.39c0.436,1.258,7.987,1.374,2.75-2.922
	c-1.355-1.112,5.185-1.369-0.859-2.922c0-2.067,11.222-4.162,4.642-6.317c-0.055-0.018,3.795-3.582,4.185-4.583
	c1.046-2.687,3.783-3.198-3.325-2.323c-1.564,0.192-1.756,0.582-2.751-3.281c-2.221,0-3.954,6.888-3.954,8.768
	c-0.299-1.161-1.882-1.884-2.893-2.093c-0.012-0.056-1.749-1.109-1.749,0.202c0,2.345-0.344,3.602-0.344,6.017
	c-5.908-3.101-0.553,2.849-3.782,2.579c-0.551-0.046-5.466-5.145-5.845-5.889C220.654,101.141,219.019,98.569,218.846,98.661z"/>
<path fill-rule="evenodd" clip-rule="evenodd" fill="none" stroke="#000000" stroke-width="1.0001" stroke-linecap="round" stroke-miterlimit="2.6131" d="
	M232.169,109.921c0.708,2.71,3.215,5.465,3.266,5.845"/>
<path fill-rule="evenodd" clip-rule="evenodd" fill="none" stroke="#000000" stroke-width="1.0001" stroke-linecap="round" stroke-miterlimit="2.6131" d="
	M252.627,73.476c8.028-5.45,7.896-3.311,3.609,5.472c-1.229,2.519,3.711-2.274,5.241-2.952c5.053-2.24-4.81,7.381,3.713,2.81
	c2.264-1.214,1.044,0.532,0.629,3.88c-0.749,6.043-2.864,3.475,3.782-0.742c1.563-0.992,1.265-1.935,2.967-1.935
	c0-0.851,8.589,3.707,9.283,6.705"/>
<path fill-rule="evenodd" clip-rule="evenodd" fill="none" stroke="#000000" stroke-width="1.0001" stroke-linecap="round" stroke-miterlimit="2.6131" d="
	M268.958,87.057c-0.114,0.456-1.024,4.797-1.031,4.813"/>
<path fill-rule="evenodd" clip-rule="evenodd" fill="none" stroke="#000000" stroke-width="1.0001" stroke-linecap="round" stroke-miterlimit="2.6131" d="
	M271.881,89.808c0.247,0.584,0.621,5.405,2.75,3.095c-0.1,1.66-0.271,3.316-0.344,4.985"/>
<path fill-rule="evenodd" clip-rule="evenodd" fill="none" stroke="#000000" stroke-width="1.0001" stroke-linecap="round" stroke-miterlimit="2.6131" d="
	M274.803,101.841c-1.983,5.438-0.813,13.409-4.971,13.925c-3.901,0.484-12.757,1.901-14.455,5.486
	c-2.354,4.971,1.242,5.043-3.738,0.373c-2.712-2.544-7.423-0.198-9.671-3.453"/>
<path fill-rule="evenodd" clip-rule="evenodd" fill="none" stroke="#000000" stroke-width="1.0001" stroke-linecap="round" stroke-miterlimit="2.6131" d="
	M276.694,110.781c-0.102,1.664-4.001,6.615-5.157,7.392"/>
<path fill-rule="evenodd" clip-rule="evenodd" fill="none" stroke="#000000" stroke-width="1.0001" stroke-linecap="round" stroke-miterlimit="2.6131" d="
	M278.241,118.001c-1.467,1.184-1.867,1.489-3.438,2.407"/>
<path fill-rule="evenodd" clip-rule="evenodd" fill="none" stroke="#000000" stroke-width="1.0001" stroke-linecap="round" stroke-miterlimit="2.6131" d="
	M226.152,126.425c-0.459,1.747-1.223,6.836-1.891,7.908"/>
<path fill-rule="evenodd" clip-rule="evenodd" fill="none" stroke="#000000" stroke-width="1.0001" stroke-linecap="round" stroke-miterlimit="2.6131" d="
	M213.086,144.132c-1.446-1.029-3.564,5.626-6.017,8.08"/>
<path fill-rule="evenodd" clip-rule="evenodd" fill="#D6D3B5" stroke="#000000" stroke-width="1.0001" stroke-linecap="round" stroke-miterlimit="2.6131" d="
	M180.939,155.22c-3.566-0.423-6.907-0.945-10.659-0.945c0-0.197-3.748-1.548-6.661,0.216c-3.985,2.414-6.644-0.168-11.689,5.802
	c-1.556,1.84-1.382,0.83-1.936,4.125c-0.968,5.769,4.823-3.933,2.75,4.126c-0.176,0.685-2.222,10.925,1.316,7.004
	c2.587-2.866-1.389-7.298,6.032-7.087c1.003,0.028-0.96,1.179-1.906,3.178c-0.887,1.876,0.035,7.294-0.8,7.735
	c7.524,0,2.853-6.345,6.188-7.966c2.367-1.15,6.196-4.333,2.451-0.585c-2.263,2.265-1.764,3.562-1.764,7.004
	c-0.276,0-0.803,6.707,2.107,1.72c4.018-6.887-0.724-2.208,9.411-4.813c2.146-0.552,6.58-3.014,7.437-4.426
	c1.702-2.805-0.444-0.387,2.421-3.252c0.026-0.026-4.201,1.737-0.806-1.321c1.124-1.012-2.429,0.022-3.335,0.217
	c-0.229-0.814-3.47,2.466,0.172-4.239c1.448-2.666,3.648-2.017-1.248-1.435C176.384,160.757,184.82,155.681,180.939,155.22z"/>
<path fill-rule="evenodd" clip-rule="evenodd" fill="none" stroke="#000000" stroke-width="1.0001" stroke-linecap="round" stroke-miterlimit="2.6131" d="
	M163.576,161.839c-0.159-4.934,6.895-6.59,10.314-4.843c0.24,0.122,3.923,0.373,4.47,0.373"/>
<path fill-rule="evenodd" clip-rule="evenodd" fill="none" stroke="#000000" stroke-width="1.0001" stroke-linecap="round" stroke-miterlimit="2.6131" d="
	M162.201,168.027c7.561,1.625,3.127-7.82,10.03-0.918c0.639,0.638,1.554,1.532,2.691,1.434"/>
<path fill-rule="evenodd" clip-rule="evenodd" fill="none" stroke="#000000" stroke-width="1.0001" stroke-linecap="round" stroke-miterlimit="2.6131" d="
	M153.605,165.105c1.55-1.55,3.216-3.991,6.705-3.095"/>
<path fill-rule="evenodd" clip-rule="evenodd" fill="#716E4F" stroke="#000000" stroke-width="1.0001" stroke-linecap="round" stroke-miterlimit="2.6131" d="
	M164.006,161.839c-2.104-0.604-12.319,6.105-6.977,5.688C166.19,166.809,162.94,164.645,164.006,161.839z"/>
<path fill-rule="evenodd" clip-rule="evenodd" fill="#716E4F" stroke="#000000" stroke-width="1.0001" stroke-linecap="round" stroke-miterlimit="2.6131" d="
	M151.886,160.635c-3.619,0.39-9.279,15.522-2.294,8.537c6.659-6.659,0.231-0.838,0.231-4.066
	C149.823,162.558,151.529,160.674,151.886,160.635z"/>
<path fill-rule="evenodd" clip-rule="evenodd" fill="#716E4F" stroke="#000000" stroke-width="1.0001" stroke-linecap="round" stroke-miterlimit="2.6131" d="
	M152.66,170.521c-2.431-0.192-2.511,9.66-1.805,9.31c0.902-0.447,4.073-2.736,1.72-3.551c-1.838-0.637-0.516-4.964-0.516-4.985
	C152.136,171.277,152.598,170.516,152.66,170.521z"/>
<path fill-rule="evenodd" clip-rule="evenodd" fill="#716E4F" stroke="#000000" stroke-width="1.0001" stroke-linecap="round" stroke-miterlimit="2.6131" d="
	M156.958,175.42c-1.91,0.164-0.945,5.207-0.945,6.36c0.156,0,0.006,2.336,0.619,1.876c-0.001,0.021,1.96,1.011,1.96-3.767
	c2.156,0-1.853-0.494-1.173-3.83C157.591,175.21,157.485,175.374,156.958,175.42z"/>
<path fill-rule="evenodd" clip-rule="evenodd" fill="none" stroke="#000000" stroke-width="1.0001" stroke-linecap="round" stroke-miterlimit="2.6131" d="
	M163.404,177.139c-0.169,1.693-1.095,5.431-0.344,7.221"/>
<path fill-rule="evenodd" clip-rule="evenodd" fill="none" stroke="#000000" stroke-width="1.0001" stroke-linecap="round" stroke-miterlimit="2.6131" d="
	M187.644,161.151c-0.924,0.058-1.646,1.535-1.892,2.406"/>
<path fill-rule="evenodd" clip-rule="evenodd" fill="none" stroke="#000000" stroke-width="1.0001" stroke-linecap="round" stroke-miterlimit="2.6131" d="
	M296.636,37.546c-0.234-0.705,6.36,0.774,2.176,1.95c-3.736,1.05,2.944,0.859,2.967,2.632c0.012,0.929,0.602,2.604,1.219,3.326"/>
<path fill-rule="evenodd" clip-rule="evenodd" fill="none" stroke="#000000" stroke-width="1.0001" stroke-linecap="round" stroke-miterlimit="2.6131" d="
	M290.619,76.742c-0.014,0.049-0.913,6.483,0.776,4.17c3.184-4.362,1.37,3.14,5.068-0.56c0.733-0.733,1.075,1.771,1.547,2.407"/>
<path fill-rule="evenodd" clip-rule="evenodd" fill="none" stroke="#000000" stroke-width="1.0001" stroke-linecap="round" stroke-miterlimit="2.6131" d="
	M310.217,89.12c-0.454-4.545-5.89-3.986-3.438-0.687c-0.709-0.237-3.35-1.36-3.954-0.86"/>
<path fill-rule="evenodd" clip-rule="evenodd" fill="none" stroke="#000000" stroke-width="1.0001" stroke-linecap="round" stroke-miterlimit="2.6131" d="
	M314.343,96.168c-1.061,0.483-4.121,5.216-2.691,7.377c1.56,2.358-0.843,5.133,2.304,10.271c0.396,0.649,0.542,3.81,0.903,4.356"/>
<path fill-rule="evenodd" clip-rule="evenodd" fill="none" stroke="#000000" stroke-width="1.0001" stroke-linecap="round" stroke-miterlimit="2.6131" d="
	M329.299,75.023c5.921,6.063,2.98,1.765,2.564,5.831c-0.379,3.702,3.394,1.726,2.465,4.47c-0.232,0.688-0.34,1.704-0.388,2.421"/>
<path fill-rule="evenodd" clip-rule="evenodd" fill="none" stroke="#000000" stroke-width="1.0001" stroke-linecap="round" stroke-miterlimit="2.6131" d="
	M335.315,108.89c-4.84,9.282-1.547,6.758-1.547,14.785"/>
<path fill-rule="evenodd" clip-rule="evenodd" fill="#D6D3B5" stroke="#000000" stroke-width="1.0001" stroke-linecap="round" stroke-miterlimit="2.6131" d="
	M336.52,136.567c-5.779,2.22-2.16-7.38-5.89-0.216c-1.663,3.195-4.296-5.827-4.71-5.098c-2.089,3.678,1.516,7.373-1.307,4.327
	c-0.248-0.268-3.266-1.218-3.223-1.763c-0.834,1.339-0.821,2.812-2.406,2.923c-2.386,0.869-6.765,9.059-8.709,8.767
	c0.193,0-0.28,6.329-2.465,6.705c-0.327,1.27-2.629,6.532,1.375,6.532c0.922,0,1.811-1.295,2.406-1.891
	c2.31-2.31-0.837-5.599,7.049-4.627c3.553,0.438,2.02,3.314,1.733,6.905c-0.287,3.618-2.205,5.137-2.765,6.489
	c-0.838,2.02-2.207-1.032-3.095-1.032c-1.726,0-3.294,3.643-5.673,3.438c-0.192,0.281-1.826,1.981-2.063,2.063
	c0.194,2.257-5.04,3.548,3.954,4.656c1.076,0.133,4.745,1.972,5.285,0.501c0.153-0.417,2.481-2.296,3.139-1.705
	c0.454,0.409,4,0.391,5.172-0.486c8.854-6.621,6.219-4.52,9.844-15.3c2.318-6.896,3.551-6.416,3.551-14.298
	c0-1.466-0.232-5.322-1.375-6.375C336.592,137.083,336.323,137.134,336.52,136.567z"/>
<path fill-rule="evenodd" clip-rule="evenodd" fill="none" stroke="#000000" stroke-width="1.0001" stroke-linecap="round" stroke-miterlimit="2.6131" d="
	M331.878,148.945c-1.18,2.792-0.716,5.368-1.547,7.393"/>
<path fill-rule="evenodd" clip-rule="evenodd" fill="none" stroke="#000000" stroke-width="1.0001" stroke-linecap="round" stroke-miterlimit="2.6131" d="
	M328.268,161.839c-0.223,0.31-3.474,8.013-3.438,8.424c-0.657-0.052-4.596,2.265-5.501,2.578"/>
<path fill-rule="evenodd" clip-rule="evenodd" fill="none" stroke="#000000" stroke-width="1.0001" stroke-linecap="round" stroke-miterlimit="2.6131" d="
	M313.483,166.137c-3.257,0.659-1.304-4.678-1.376-4.642"/>
<path fill-rule="evenodd" clip-rule="evenodd" fill="#716E4F" stroke="#000000" stroke-width="1.0001" stroke-linecap="round" stroke-miterlimit="2.6131" d="
	M307.294,152.899c-3.783,1.304-6.849,13.212-1.847,4.642c1.095-1.875,6.283-1.444,2.879-4.17
	C308.072,153.168,307.819,152.718,307.294,152.899z"/>
<path fill-rule="evenodd" clip-rule="evenodd" fill="#2F4B60" stroke="#000000" stroke-width="1.0001" stroke-linecap="round" stroke-miterlimit="2.6131" d="
	M235.779,128.831c-3.094,3.61-2.922,3.094-4.125,5.845c-1.204,2.75-2.751,3.782-5.845,8.424s-4.642,4.125-8.251,8.939
	c-3.61,4.813-2.75,2.235-6.361,10.314c-3.61,8.08-2.235,8.596-4.985,11.862s-3.954,3.095-5.158,5.845
	c-1.203,2.751-0.516,4.813-0.516,4.813s2.923-1.031,4.47-2.063c1.547-1.031,7.564-5.501,7.564-5.501l-2.407,4.47l3.267-0.859
	c0,0-1.547,10.658-1.891,12.205c-0.344,1.548,6.876-7.048,8.08-8.252c1.204-1.203,0.172,3.438,0.172,3.438l3.438-2.063l-0.688,5.845
	l3.954-3.61l0.688,3.61l6.36-1.547c0,0-1.203,4.985,2.063,3.61c3.266-1.376,6.876-2.751,9.111-6.018s4.47-8.768,5.501-10.658
	c1.031-1.892,2.578-4.298,2.578-4.298s4.126,3.267,5.502,7.393c1.375,4.126,5.329,9.799,7.22,12.549
	c1.892,2.751,4.47,4.985,4.47,4.985l-0.344-7.392c0,0,4.47,4.126,5.845,5.329c1.376,1.203,5.846,3.954,5.846,3.954l-0.688-4.985
	l2.234-1.892l4.813,5.846c0,0-1.031-5.158-0.344-6.018s2.75-9.111,2.75-9.111l2.063,3.438l-0.516-4.813c0,0,3.953,2.579,4.47,3.61
	c0.516,1.031-1.72-9.627-0.172-10.314c1.547-0.688,2.75,1.547,3.438,3.609c0.688,2.063,0.173-5.501,0.173-5.501l2.75,4.47
	l1.375-5.329l2.579,0.859c0,0-1.031-0.688-3.094-4.813c-2.063-4.126-5.674-11.689-7.564-16.503
	c-1.892-4.814-3.782-5.158-4.985-9.456c-1.204-4.298-3.954-5.845-7.049-8.939s-3.267-1.891-3.095-4.813
	c0.173-2.922,0.344-8.08,0.344-8.08s-1.547,2.579-6.876,4.47c-5.329,1.891-8.768,3.61-13.237,3.61s-8.596,0.859-13.237,0.516
	c-4.642-0.344-7.048,0.688-8.939,0S235.779,128.831,235.779,128.831z"/>
<path fill-rule="evenodd" clip-rule="evenodd" fill="none" stroke="#000000" stroke-width="1.0001" stroke-linecap="round" stroke-miterlimit="2.6131" d="
	M250.048,136.396c-4.897,8.701-2.524,4.717-3.424,12.034c-1.316,10.707,4.699,21.09,4.627,22.004"/>
<path fill-rule="evenodd" clip-rule="evenodd" fill="none" stroke="#000000" stroke-width="1.0001" stroke-linecap="round" stroke-miterlimit="2.6131" d="
	M254.689,136.052c-3.794-1.185-4.642,14.611-4.642,17.535c0,3.531,1,6.976,1.203,10.143"/>
<path fill-rule="evenodd" clip-rule="evenodd" fill="none" stroke="#000000" stroke-width="1.0001" stroke-linecap="round" stroke-miterlimit="2.6131" d="
	M258.644,144.131c-2.516,3.105-3.185,5.335-4.985,8.94"/>
<path fill-rule="evenodd" clip-rule="evenodd" fill="none" stroke="#000000" stroke-width="1.0001" stroke-linecap="round" stroke-miterlimit="2.6131" d="
	M265.176,154.618c-6.592,4.271-7.682,8.632-10.486,15.644"/>
<path fill-rule="evenodd" clip-rule="evenodd" fill="none" stroke="#000000" stroke-width="1.0001" stroke-linecap="round" stroke-miterlimit="2.6131" d="
	M277.21,133.817c-2.11,2.645,2.596,9.616,3.438,12.377"/>
<path fill-rule="evenodd" clip-rule="evenodd" fill="none" stroke="#000000" stroke-width="1.0001" stroke-linecap="round" stroke-miterlimit="2.6131" d="
	M231.653,154.446c3.888,5.832,3.238,2.773,7.952,5.629c1.693,1.025,4.923,0.42,5.973,5.545"/>
<path fill-rule="evenodd" clip-rule="evenodd" fill="none" stroke="#000000" stroke-width="1.0001" stroke-linecap="round" stroke-miterlimit="2.6131" d="
	M227.012,162.354c5.964,0,9.221,3.933,13.237,4.814"/>
<path fill-rule="evenodd" clip-rule="evenodd" fill="none" stroke="#000000" stroke-width="1.0001" stroke-linecap="round" stroke-miterlimit="2.6131" d="
	M229.59,183.155c3.522-2.576,7.052-5.769,8.94-9.799"/>
<path fill-rule="evenodd" clip-rule="evenodd" fill="none" stroke="#000000" stroke-width="1.0001" stroke-linecap="round" stroke-miterlimit="2.6131" d="
	M243.515,174.044c-1.899,1.838-9.111,16.573-9.111,19.254"/>
<path fill-rule="evenodd" clip-rule="evenodd" fill="none" stroke="#000000" stroke-width="1.0001" stroke-linecap="round" stroke-miterlimit="2.6131" d="
	M214.29,164.245c-2.739,1.797-6.498,12.957-6.876,15.988"/>
<path fill-rule="evenodd" clip-rule="evenodd" fill="none" stroke="#000000" stroke-width="1.0001" stroke-linecap="round" stroke-miterlimit="2.6131" d="
	M265.691,170.434c-0.725,0.893,2.063,6.878,2.579,8.552c1.958,6.358,7.138,9.601,11.66,13.925c0.472,0.45,0.264,0.223,0.718,0.56"/>
<path fill-rule="evenodd" clip-rule="evenodd" fill="#A2A183" stroke="#000000" stroke-width="1.0001" stroke-linecap="round" stroke-miterlimit="2.6131" d="
	M236.295,193.47c0.981-1.239-2.751,2.133-2.751-1.719c0-2.971-1.379-0.313-4.17-0.6c-1.686-0.173-3.772,2.986-2.765-2.15
	c1.008-5.145-4.901,10.01-3.566-0.86c0.973-7.915-3.557,5.86-3.251-1.891c0.094-2.395-4.245,5.136-7.063,6.017
	c-3.174,0.991-0.673-2.723-0.673-7.52c0-4.109,4.816-6.277-1.763-2.623c-2.242,1.245,5.877-9.535-1.287-1.331
	c-0.904,1.035-5.718,3.638-5.718,3.91c-0.93,0.321-0.203,1.244-1.547,0.171c-2.407,4.986-1.892,3.782-3.61,9.628
	c-1.719,5.845-2.579,7.392-0.344,11.689s1.375,8.08,3.782,8.252s7.908-1.376,8.939,0.344c1.031,1.719,1.203,7.393,5.673,7.908
	s9.284-6.361,12.378-4.985c3.094,1.375,6.188,2.234,8.767,6.188s5.845,6.36,5.845,6.36s-5.158,4.643-9.112,7.908
	c-3.954,3.267-1.375,6.017-4.125,7.564c-2.75,1.547-2.063,0.344-4.298,2.063c-2.235,1.72-8.252,1.203-8.768,2.235
	c-0.516,1.031,4.47,1.547,4.47,1.547s-1.031,1.892-3.782,3.438c-2.751,1.547-4.642,3.438-7.393,3.61
	c-2.75,0.172-7.736,1.031-7.736,1.031s-0.172,3.438,1.719,6.532c1.891,3.095,2.922,11.347,4.126,11.175
	c1.203-0.172,3.61-1.548,7.736-1.548s6.189,1.548,9.971,0.86c3.782-0.688,3.954,0.516,5.33-2.751
	c1.375-3.267,2.579-5.845,5.157-8.596s4.47-4.47,4.642-3.438c0.172,1.032,0.516,1.032,1.203,0.172
	c0.688-0.859,1.032-3.609,1.032-3.609s1.719,1.719,2.063,0.688c0.344-1.031,0.172-7.221,0.172-7.221s-0.344,2.235,3.61-2.063
	c3.955-4.298,5.501-6.189,5.501-6.189s0.859,4.642,1.031,3.438s0.172-4.813,0.859-5.673s2.407-6.017,4.47-9.627
	c2.063-3.61,2.751-3.61,1.548-7.736c-1.204-4.126-1.376-5.329-2.923-6.188s-7.048-5.33-9.971-8.768
	c-2.923-3.438-6.189-8.939-9.627-9.283c-3.438-0.344-5.501-1.548-6.533-1.892C232.513,197.596,235.436,193.47,236.295,193.47z"/>
<path fill-rule="evenodd" clip-rule="evenodd" fill="none" stroke="#000000" stroke-width="1.0001" stroke-linecap="round" stroke-miterlimit="2.6131" d="
	M212.055,197.939c5.7,0.239,4.274,0.946,9.927-0.918c3.303-1.09,5.214-1.163,9.5-2.736c0.24-0.088,0.208-0.093,0.516-0.299"/>
<path fill-rule="evenodd" clip-rule="evenodd" fill="none" stroke="#000000" stroke-width="1.0001" stroke-linecap="round" stroke-miterlimit="2.6131" d="
	M215.837,210.317c2.296-2.09,5.405-2.258,10.285-7.348c2.06-2.149,3.939-4.422,4.671-7.265"/>
<path fill-rule="evenodd" clip-rule="evenodd" fill="none" stroke="#000000" stroke-width="1.0001" stroke-linecap="round" stroke-miterlimit="2.6131" d="
	M230.965,198.972c-1.505,2.462-6.265,11.095-8.939,11.518"/>
<path fill-rule="evenodd" clip-rule="evenodd" fill="none" stroke="#000000" stroke-width="1.0001" stroke-linecap="round" stroke-miterlimit="2.6131" d="
	M257.096,223.383c1.238,3.608,3.563-0.251,0.389,7.908l-0.044,0.344"/>
<path fill-rule="evenodd" clip-rule="evenodd" fill="#716E4F" stroke="#000000" stroke-width="1.0001" stroke-linecap="round" stroke-miterlimit="2.6131" d="
	M203.46,260.258c-1.205-1.364-4.526,0.542-5.501,2.493c-0.903,0-0.415,4.089-1.719,5.845c-0.013,0.018-2.735,6.014-1.159,4.342
	c0.721-0.765,5.51-3.384,3.394-0.516c-0.866,1.175-0.859,5.039-0.859,6.66c6.704-7.648,11.558,2.59,10.815-3.438
	c-0.189-1.534,1.246-9.269-0.157-9.127c-3.598,0.365-2.235,2.88-2.235-2.735C202.707,262.631,203.46,265.157,203.46,260.258z"/>
<path fill-rule="evenodd" clip-rule="evenodd" fill="none" stroke="#000000" stroke-width="1.0001" stroke-linecap="round" stroke-miterlimit="2.6131" d="
	M197.099,267.564c0.546-2.563,3.296-4.494,5.329-3.654l0.344,0.044"/>
<path fill-rule="evenodd" clip-rule="evenodd" fill="none" stroke="#000000" stroke-width="1.0001" stroke-linecap="round" stroke-miterlimit="2.6131" d="
	M198.818,273.065c0.826-2.193,4.823-6.188,7.564-6.188"/>
<path fill-rule="evenodd" clip-rule="evenodd" fill="none" stroke="#000000" stroke-width="1.0001" stroke-linecap="round" stroke-miterlimit="2.6131" d="
	M208.617,265.845c4.112-2.459,1.377-1.792,5.673-0.688"/>
<path fill-rule="evenodd" clip-rule="evenodd" fill="none" stroke="#000000" stroke-width="1.0001" stroke-linecap="round" stroke-miterlimit="2.6131" d="
	M219.275,258.109c-1.348,0.523-3.346,2.144-4.297,3.266"/>
<path fill-rule="evenodd" clip-rule="evenodd" fill="#A2A183" stroke="#000000" stroke-width="1.0001" stroke-linecap="round" stroke-miterlimit="2.6131" d="
	M306.606,173.872c-4.381-5.155-2.734,8.512-4.872,3.61c-0.032-0.072-1.293-2.378-1.316-2.406c0.275,0-0.5-0.473-0.688-1.204
	c0,0.866,0.551,7.778-0.045,5.099c-0.17-0.766-1.29-2.268-2.019-2.52c0-0.929-3.416-1.929-2.563,2.563
	c0.336,1.773-0.128,5.782,1.36,7.579c-2.402-1.911-6.098-7.858-3.826-0.044c0.743,2.559-1.811-2.105-2.019-2.707
	c-0.698,3.173-3.921,11.271-2.967,13.581c1.905,4.616-3.025-1.882-3.051-1.891c0-2.784-1.504-1.488-3.438-0.688
	c0.249,1.075,0.344,4.308,0.344,5.673c-1.689-1.776-8.706-6.613-10.531-7.52c-1.415-0.703-0.815-1.344-0.815,2.706
	c0.533,0.221-0.351,1.605-0.516,1.891c1.376,5.673,3.438,9.111,6.705,12.55c3.266,3.438,4.298,2.751,8.079,4.126
	c3.782,1.375,5.158-0.859,7.736,5.157c2.579,6.017,2.406,10.659,6.532,9.799c4.126-0.859,6.361-6.532,13.754-5.501
	c7.392,1.031,11.518,3.267,11.861,4.642s-4.298,4.126-4.298,4.126l2.234,1.719c0,0-3.438,4.47-4.984,6.705
	c-1.548,2.234,2.234,2.063-1.892,4.813c-4.126,2.75-8.939,4.47-8.939,4.47l3.438,0.172l-3.267,3.782l3.095-1.204
	c0,0-1.204,1.203-2.579,5.329c-1.375,4.127-1.203,7.221-2.234,7.908c-1.032,0.688-3.782,2.579-5.673,3.267
	c-1.892,0.688-2.923,2.063-6.533,4.126s-2.063,3.267-4.642,4.298c-2.578,1.031-4.298,1.031-5.157,2.923
	c-0.859,1.891-1.376,13.581,1.031,12.549c2.407-1.031,5.158-3.094,8.252-3.609c3.095-0.517,4.813,0.516,6.876,1.547
	c2.063,1.031,2.751-1.031,5.33-1.892c2.578-0.859,10.486,0,12.894,0c2.406,0,4.125,1.892,5.673,0.345
	c1.547-1.548,3.267-3.955,2.406-8.252c-0.859-4.298-1.891-2.579,0.516-8.424c2.407-5.845,1.891-7.049,2.751-11.347
	c0.859-4.298-0.172-6.36,2.063-9.283c2.235-2.922,8.424-11.346,9.111-12.377c0.688-1.032,5.33-13.926,5.158-18.051
	c-0.173-4.126-1.376-5.33-4.986-7.221s-9.971-6.704-13.753-8.252c-3.781-1.547-4.985-3.61-6.188-8.08
	c-1.203-4.469-4.985-13.753-7.22-16.847C310.561,178.514,306.606,173.872,306.606,173.872z"/>
<path fill-rule="evenodd" clip-rule="evenodd" fill="none" stroke="#000000" stroke-width="1.0001" stroke-linecap="round" stroke-miterlimit="2.6131" d="
	M287.696,198.8c5.374,7.213,8.5,3.692,16.503,4.642"/>
<path fill-rule="evenodd" clip-rule="evenodd" fill="none" stroke="#000000" stroke-width="1.0001" stroke-linecap="round" stroke-miterlimit="2.6131" d="
	M311.076,190.72c3.071,0.297,5.845,11.042,5.845,13.581"/>
<path fill-rule="evenodd" clip-rule="evenodd" fill="none" stroke="#000000" stroke-width="1.0001" stroke-linecap="round" stroke-miterlimit="2.6131" d="
	M298.526,211.005c9.298,9.733,4.503,7.822,14.21,2.52c1.899-1.037,3.851-1.88,5.732-2.863"/>
<path fill-rule="evenodd" clip-rule="evenodd" fill="#716E4F" stroke="#000000" stroke-width="1.0001" stroke-linecap="round" stroke-miterlimit="2.6131" d="
	M285.117,281.66c-5.676-2.495-11.205,6.281-9.327,10.831c0.627,1.52-1.06,1.267,1.704-2.122c1.192-1.461,7.731,1.801,7.766,1.808
	c0.007,0.03-0.283-4.929,0.045-7.594C285.369,284.054,285.487,281.823,285.117,281.66z"/>
<path fill-rule="evenodd" clip-rule="evenodd" fill="#716E4F" stroke="#000000" stroke-width="1.0001" stroke-linecap="round" stroke-miterlimit="2.6131" d="
	M300.16,278.91c-7.336,0.399-4.968,10.473-6.575,14.612c-0.021,0.056-0.239,3.503-0.059,2.736c1.935-8.229,10.69-3.884,9.515-8.296
	c-0.678-2.541,0.682-5.233-2.25-8.753C300.647,279.037,300.685,278.882,300.16,278.91z"/>
<path fill-rule="evenodd" clip-rule="evenodd" fill="none" stroke="#000000" stroke-width="1.0001" stroke-linecap="round" stroke-miterlimit="2.6131" d="
	M306.435,273.753c-2.174,0.818-2.938,3.332-7.235,3.453c-0.598,0.017-0.306-0.138-1.017,0.157"/>
<path fill-rule="evenodd" clip-rule="evenodd" fill="#716E4F" stroke="#000000" stroke-width="1.0001" stroke-linecap="round" stroke-miterlimit="2.6131" d="
	M314.858,279.254c-6.92,1.514-6.634,15.855-6.017,15.143c2.812-3.245,8.251,0.846,8.251-9.828
	C317.093,283.07,316.126,278.977,314.858,279.254z"/>
</svg>
