<?xml version="1.0" encoding="utf-8"?>
<!-- Generator: Adobe Illustrator 17.0.0, SVG Export Plug-In . SVG Version: 6.00 Build 0)  -->
<!DOCTYPE svg PUBLIC "-//W3C//DTD SVG 1.1//EN" "http://www.w3.org/Graphics/SVG/1.1/DTD/svg11.dtd">
<svg version="1.1" id="Layer_1" xmlns="http://www.w3.org/2000/svg" xmlns:xlink="http://www.w3.org/1999/xlink" x="0px" y="0px"
	 width="800px" height="600px" viewBox="0 0 800 600" enable-background="new 0 0 800 600" xml:space="preserve">
<g>
	<g>
		<path fill-rule="evenodd" clip-rule="evenodd" d="M432.757,130.834c2.732,0.729,5.267-2.995,3.76-5.643
			c-3.588-6.31-11.673-5.815-17.877-4.413c-4.392,0.99-8.434,3.073-11.826,5.9c-1.105-1.44-2.483-2.686-4.033-3.659
			c1.024-1.55,2.157-3.031,3.617-4.375c3.837-3.533,7.587-4.446,12.534-5.202c3.43-0.519,4.19-6.245,0.976-7.618
			c-6.319-2.696-12.811,0.899-17.37,5.315c-2.349,2.268-5.09,6.061-6.362,9.955c-3.162-0.009-6.367,0.993-9.204,2.217
			c-5.425,2.337-9.975,7.403-11.238,12.945c-42.088,2.775-79.254,56.507-68.887,93.292c0.488,1.732,3.382,2.083,3.454-0.07
			c1.043-35.341,29.703-76.164,65.95-83.605c9.998,6.662,2.215,14.459,2.354,18.741c0.124,3.408,4.994,5.37,7.477,3.073
			c4.923-4.545,6.693-11.73,3.559-16.964c6.142,1.631,12.486-3.047,16.892-7.817c6.114-3.095,13.18-3.244,18.619,1.086
			c3.153,2.5,7.922-2.093,5.712-5.379c-5.238-7.762-14.098-7.37-21.498-3.038c0.11-0.495,0.134-1.833,0.028-2.713
			c2.923-1.208,6.769-2.982,10.238-3.482C425.189,128.574,428.136,129.602,432.757,130.834z"/>
		<g>
			<path fill-rule="evenodd" clip-rule="evenodd" d="M456.246,178.557c0,0,8.501-2.964,9.883-2.442
				c2.459,1.454,6.875,7.219,8.874,11.656c11.366,2.175,28.349,7.061,34.419,9.81c17.892,8.101,30.267,17.552,39.577,24.883
				c39.252,30.867,40.706,73.724,41.868,91.507c2.019,30.751-12.495,56.823-14.634,61.456
				c-7.659,16.574-14.667,30.176-29.134,44.693c-7.448,7.472-13.763,13.794-22.278,18.214c-1.603,0.833-3.11,0.349-4.435,1.039
				c-1.33,0.689-1.071,1.985-3.095,3.119c-6.047,3.396-9.63,3.007-15.667,5.018c-1.081,0.358-3.636,2.851-4.793,3.248
				c-1.621,0.536-3.664,1.05-5.425,1.38c-1.77,0.328-2.258,1.849-4.205,2.232c-1.937,0.366-2.325-0.529-4.454-0.1
				c-2.129,0.435-2.684,1.772-3.989,2.035c-8.047,1.612-18.188,3.169-20.394,3.55c-2.191,0.381-4.085-0.739-7.96-0.497
				c-2.072,0.131-3.339,1.573-5.98,2.174c-2.631,0.603-5.004,0.725-9.142,0.873c-2.636,0.1-4.836-1.401-6.994-1.48
				c-1.718-0.057-2.024,1.612-4.219,1.897c-5.932,0.772-10.309-0.048-16.604-0.801c-2.009-0.241-4.263-1.968-6.554-2.311
				c-3.402-0.514-3.038,0.708-6.434,0.304c-2.78-0.33-2.732-1.686-4.707-1.94c-1.971-0.248-2.32,1.05-5.244,0.45
				c-4.74-0.964-9.405-2.451-14.036-4.061c-21.771-7.544-53.182-25.328-83.052-67.414c-29.871-42.1-22.786-90.69-12.213-116.374
				c5.387-13.084,13.797-30.803,30.301-48.181c8.534-8.989,16.662-17.026,25.622-23.309c3.009-2.102,7.3-3.439,10.448-5.58
				c1.713-1.146,2.664-2.773,4.458-3.832c2.024-1.174,3.966-0.794,6.186-1.942c1.832-0.947,3.32-2.612,5.176-3.469
				c1.713-0.787,3.487-0.342,5.209-0.949c1.875-0.665,3.607-1.988,5.502-2.698c4.894-1.861,10.965-3.368,16.145-5.21
				c1.961-0.691,4.817-0.392,7.023-0.244c3.195-3.341,6.625-0.846,10.046-1.516c0.961-0.175,1.928-0.84,2.827-1.053
				c2.339-0.588,5.468-1.358,8.185-1.452c6.98-0.247,13.49,2.33,20.035,1.426c3.215-0.457,6.344-1.885,9.128-1.677
				C448.73,171.547,456.246,178.557,456.246,178.557z"/>
			<path fill-rule="evenodd" clip-rule="evenodd" fill="#E3770D" d="M575.32,263.832c-11.295-26.484-28.612-39.926-53.981-55.086
				c-22.164-13.24-36.223-13.704-38.012-12.964c2.133,3.21,5.611,6.948,6.186,11.565c13.993,6.468,27.005,19.332,25.412,24.414
				c-10.467-12.83-24.742-19.98-27.029-21.053c-6.143-0.218-13.194-2.557-18.389-4.714c-4.09,1.76-14.959,7.389-17.705,5.121
				c-1.899-1.557-3.593-9.824-4.296-12.414c-2.359,2.385-7.444,0.777-11.266,4.305c-3.827,3.53-2.258,8.384-4.573,9.85
				c-2.741,1.73-6.458-1.485-11.319,1.546c-4.856,3.04-6.338,6.379-7.128,8.563c-0.684-0.033-2.038-3.16,0.722-6.518
				c2.76-3.366,5.391-6.066,9.214-6.65c1.947-0.301,4.817,0.579,6.324-0.916c1.459-1.445,1.22-4.155,2.507-6.367
				c3.803-6.516,9.453-3.406,14.237-6.391c-3.689-3.136-7.898-8.57-6.664-12.895c4.061-2.255,7.535-2.21,11.926-2.356
				c-2.454-3.819-7.668-5.783-11.682-5.583c-3.195,0.173-5.846,1.115-11.204,1.32c-5.367,0.203-7.869-1.567-14.682-1.552
				c-6.821,0.01-12.079,3.911-15.653,2.473c-3.569-1.437-4.023,2.072-4.721,2.224c-4.181-1.244-7.31-1.045-10.032-0.134
				c-3.009,1.005-13.089,2.995-19.824,8.192c-4.396-0.944-6.382,2.512-11.132,4.445c-3.091,1.265-5.047,1.244-7.764,3.559
				c-4.554,3.873-8.692,4.901-12.792,7.982c-4.65,3.478-9.616,6.994-17.609,15.614c-7.989,8.616-16.461,16.774-25.082,32.16
				c-10.467,18.671-16.844,45.655-16.485,61.52c0.363,15.865,2.411,42.186,21.556,70.492c19.159,28.297,51.67,50.917,61.439,55.94
				c9.768,5.016,24.948,10.441,29.1,10.769c4.143,0.323,4.09-1.567,7.3-0.976c3.2,0.596,2.449,2.316,4.96,2.942
				c2.516,0.625,2.56-1.043,6.195-0.743c3.626,0.313,2.507,1.636,5.497,2.334c2.999,0.696,10.572,1.397,14.294,0.88
				c3.717-0.521,3.076-2.093,6.19-2.296c3.11-0.194,4.052,1.653,6.109,2.05c2.612,0.495,7.262-0.002,8.807-0.87
				c2.296-1.26,2.909-2.435,5.946-2.66c3.028-0.223,4.985,1.543,7.31,1.43c2.315-0.115,15.05-2.586,18.887-3.485
				c2.085-0.49,3.473-1.839,5.31-2.258c2.636-0.612,3.684,0.325,4.597,0.139c1.986-0.383,2.698-2.155,4.636-2.32
				c1.937-0.16,1.335,0.574,4.779,0.142c3.439-0.438,2.736-2.863,4.86-3.624c2.119-0.765,2.574,0.258,4.798-0.476
				c2.229-0.734,7.644-2.781,9.534-3.848c1.889-1.067,1.736-2.664,3.454-3.564c1.727-0.893,2.708,0.191,4.445-0.371
				c1.732-0.558,3.827-2.289,5.171-3.316c1.33-1.011,0.019-3.803,2.062-5.188c2.048-1.382,2.215,1.55,3.885,0.302
				c1.669-1.254,3.636-2.624,6.917-5.518c9.884-8.728,25.091-31.356,30.798-47.671c0.56-1.6-2.851-2.854-1.88-5.674
				c0.981-2.825,4.65-0.715,5.908-3.128c1.249-2.416,7.013-19.458,8.515-30.081c0.215-1.552-3.602-1.476-2.808-4.787
				c0.794-3.305,3.588-2.502,4.062-4.549C585.94,321.056,586.634,290.293,575.32,263.832z"/>
			<path fill-rule="evenodd" clip-rule="evenodd" fill="#D95D1E" d="M465.134,392.828c17.294-5.666,74.934-23.276,88.104-13.622
				c13.146,9.654-22.503,51.376-61.908,61.183c-39.39,9.807-80.312,7.02-86.679-1.612
				C398.275,430.15,414.727,409.349,465.134,392.828z"/>
			<path fill-rule="evenodd" clip-rule="evenodd" fill="#A1BC30" d="M465.225,179.1c-3.612-0.146-7.31,2.612-10.529,3.985
				c-3.698-0.217-10.343,0.634-12.137,2.358c1.937,5.731,7.63,10.283,7.63,10.283s1.311,11.773,3.703,13.041
				c2.392,1.265,9.908-3.437,16.619-6.239c6.625,2.56,10.572,4.557,15.15,3.964c-0.885-2.492-2.712-6.556-6.104-9.417
				c-18.007,8.114-27.641-3.136-25.733-7.917c1.894-4.791,13.768-4.344,16.365-3.36C469.856,184.757,466.325,178.921,465.225,179.1z
				"/>
			<path fill-rule="evenodd" clip-rule="evenodd" fill="#A1BC30" d="M456.599,190.773c0.259,6.645,15.72,7.872,18.121,3.583
				C477.136,190.062,456.379,185.013,456.599,190.773z"/>
			<path fill-rule="evenodd" clip-rule="evenodd" d="M515.03,233.115c2.602-0.333,1.923,3.822,4.607,3.696
				c0.751,1.426,1.095,3.059,0.144,3.865c-1.382,1.16-1.751-0.413-3.416-1.629C514.527,237.691,511.628,235.968,515.03,233.115z"/>
			<path fill-rule="evenodd" clip-rule="evenodd" d="M526.028,258.026c-4.037-1.741-5.635-6.157-3.708-9.72
				c3.684-1.034,2.224,2.631,2.856,5.111C525.702,255.482,527.778,256.797,526.028,258.026z"/>
			<path fill-rule="evenodd" clip-rule="evenodd" d="M531.103,269.625c-2.176-0.211-2.55-4.428-1.918-5.341
				C531.237,264.509,532.419,268.013,531.103,269.625z"/>
			<path fill-rule="evenodd" clip-rule="evenodd" d="M534.682,278.387c-0.761,0.495-1.507,0.619-2.234,0.464
				c-0.578-1.007-0.756-2.029-0.201-3.086C533.868,274.332,535.48,277.071,534.682,278.387z"/>
			<path fill-rule="evenodd" clip-rule="evenodd" d="M532.562,283.476c2.095-0.861,3.143,1.985,2.057,3.017
				C533.108,287.916,531.084,285.357,532.562,283.476z"/>
			<path fill-rule="evenodd" clip-rule="evenodd" d="M533.045,295.051c-1.655-1.428-1.134-2.927-0.684-4.418
				C535.59,288.49,536.906,295.338,533.045,295.051z"/>
			<path fill-rule="evenodd" clip-rule="evenodd" d="M574.397,343.064c-1.368,0.574-1.363-5.858,0.789-4.918
				C577.358,339.082,575.775,342.473,574.397,343.064z"/>
			<path fill-rule="evenodd" clip-rule="evenodd" d="M532.309,301.641c-0.622-1.134-0.564-2.294,0.192-3.481
				C535.605,296.967,535.361,303.119,532.309,301.641z"/>
			<path fill-rule="evenodd" clip-rule="evenodd" d="M569.46,357.502c-2.005-2.414,0.206-6.453,2.932-7.03
				C575.11,349.889,571.479,359.92,569.46,357.502z"/>
			<path fill-rule="evenodd" clip-rule="evenodd" d="M567.771,347.401c1.071,1.435-0.325,3.956-2.272,4.525
				C563.538,352.496,566.709,345.954,567.771,347.401z"/>
			<path fill-rule="evenodd" clip-rule="evenodd" d="M561.093,362.039c-1.646,0.421-1.842-5.398,0.187-5.097
				C563.303,357.246,562.739,361.623,561.093,362.039z"/>
			<path fill-rule="evenodd" clip-rule="evenodd" d="M557.146,371.05c-0.014-3.138,1.321-5.858,4.344-6.128
				C564.508,364.654,557.17,374.195,557.146,371.05z"/>
			<path fill-rule="evenodd" clip-rule="evenodd" d="M555.415,385.026c-1.316-4.614,2.636-6.92,4.617-7.558
				C562.012,376.829,556.735,389.642,555.415,385.026z"/>
			<path fill-rule="evenodd" clip-rule="evenodd" d="M549.851,372.093c2,1.258,0.1,4.301-1.124,4.42
				C547.507,376.635,547.856,370.83,549.851,372.093z"/>
			<path fill-rule="evenodd" clip-rule="evenodd" d="M405.025,228.532c-1.679-0.861-4.42,0.878-6.099,2.849
				c-1.866-1.478-0.1-3.038,2.043-4.473c1.923-1.289,2.927,0.287,4.124-0.373c1.206-0.655,1.545-3.006,1.206-3.872
				C410.775,220.459,408.096,230.089,405.025,228.532z"/>
			<path fill-rule="evenodd" clip-rule="evenodd" d="M545.445,386.906c-0.985-2.005,1.024-4.327,3.119-4.007
				C550.669,383.227,546.416,388.913,545.445,386.906z"/>
			<path fill-rule="evenodd" clip-rule="evenodd" d="M551.602,390.975c2.846,0.648-2.741,8.438-3.622,5.322
				C547.091,393.185,548.755,390.333,551.602,390.975z"/>
			<path fill-rule="evenodd" clip-rule="evenodd" d="M552.367,399.777c-0.818-1.957,0.273-4.069,2.421-4.15
				C556.926,395.538,553.19,401.726,552.367,399.777z"/>
			<path fill-rule="evenodd" clip-rule="evenodd" d="M537.159,386.829c-1.908,0.151-3.549-1.72-1.751-3.607
				C537.207,381.332,539.078,386.669,537.159,386.829z"/>
			<path fill-rule="evenodd" clip-rule="evenodd" d="M540.499,394.814c2.377,0.431-0.55,5.655-2.435,3.959
				C536.619,397.495,538.092,394.395,540.499,394.814z"/>
			<path fill-rule="evenodd" clip-rule="evenodd" d="M537.04,405.671c0.23-3.143,3.956-5.616,6.568-3.808
				C546.225,403.671,536.806,408.818,537.04,405.671z"/>
			<path fill-rule="evenodd" clip-rule="evenodd" d="M534.232,390.467c2.516,0.882-2.76,4.973-3.373,3.165
				C530.242,391.833,531.71,389.587,534.232,390.467z"/>
			<path fill-rule="evenodd" clip-rule="evenodd" d="M386.057,243.804c-0.038-2.327,1.876-5.102,4.162-4.975
				C392.496,238.954,386.1,246.139,386.057,243.804z"/>
			<path fill-rule="evenodd" clip-rule="evenodd" d="M525.516,403.805c0.77-3.227,2.464-4.301,5.525-4.349
				C534.107,399.418,524.75,407.034,525.516,403.805z"/>
			<path fill-rule="evenodd" clip-rule="evenodd" d="M525.238,417.381c0.584-4.923,5.626-9.599,10.434-7.657
				C540.475,411.669,524.659,422.301,525.238,417.381z"/>
			<path fill-rule="evenodd" clip-rule="evenodd" d="M517.617,399.604c0.45-2.222,3.698-2.603,4.631-0.84
				C522.803,399.815,517.077,402.252,517.617,399.604z"/>
			<path fill-rule="evenodd" clip-rule="evenodd" d="M381.015,248.617c1.12,2.734-0.492,2.466-2.631,4.153
				c-1.564,1.222-1.401,5.119-3.946,4.767C373.485,254.695,378.618,250.401,381.015,248.617z"/>
			<path fill-rule="evenodd" clip-rule="evenodd" d="M512.901,407.005c1.095-3.965,4.487-3.054,6.19-1.971
				C520.804,406.118,511.815,410.976,512.901,407.005z"/>
			<path fill-rule="evenodd" clip-rule="evenodd" d="M513.584,415.269c-0.201-3.115,3.1-4.777,6.626-3.703
				C523.736,412.645,513.786,418.378,513.584,415.269z"/>
			<path fill-rule="evenodd" clip-rule="evenodd" d="M514.68,424.887c0.914-3.65,3.521-4.327,6.831-3.325
				C524.831,422.555,513.776,428.533,514.68,424.887z"/>
			<path fill-rule="evenodd" clip-rule="evenodd" d="M500.118,408.012c0.196-4.035,7.176-6.054,5.076-1.909
				C504.409,407.658,501.553,408.904,500.118,408.012z"/>
			<path fill-rule="evenodd" clip-rule="evenodd" d="M506.988,412.839c1.65,0.944-4.177,5.958-4.061,2.951
				C503.027,412.777,505.342,411.899,506.988,412.839z"/>
			<path fill-rule="evenodd" clip-rule="evenodd" d="M503.323,422.371c0.545-2.631,4.248-3.076,6.19-0.936
				C511.465,423.574,502.759,425.011,503.323,422.371z"/>
			<path fill-rule="evenodd" clip-rule="evenodd" d="M491.775,421.823c0.794-3.301,3.349-3.593,5.367-2.781
				C499.176,419.857,490.986,425.131,491.775,421.823z"/>
			<path fill-rule="evenodd" clip-rule="evenodd" d="M495.827,432.494c0.66-3.074,3.76-5.908,7.291-3.691
				C506.643,431.027,495.167,435.577,495.827,432.494z"/>
			<path fill-rule="evenodd" clip-rule="evenodd" d="M482.121,418.348c-2.292-1.313,5.348-4.323,4.726-1.809
				C486.216,419.051,484.417,419.663,482.121,418.348z"/>
			<path fill-rule="evenodd" clip-rule="evenodd" d="M355.254,284.472c0.239,3.363-0.809,8.754-4.66,10.976
				C350.465,292.066,352.034,286.701,355.254,284.472z"/>
			<path fill-rule="evenodd" clip-rule="evenodd" d="M480.337,423.457c1.603,1.349-4.258,3.839-4.028,1.612
				C476.548,422.847,478.734,422.098,480.337,423.457z"/>
			<path fill-rule="evenodd" clip-rule="evenodd" d="M481.791,428.741c-2.172-1.698,6.444-3.846,5.798-1.974
				C486.508,429.896,483.963,430.451,481.791,428.741z"/>
			<path fill-rule="evenodd" clip-rule="evenodd" d="M473.745,438.301c2.531-4.439,6.554-5.621,10.582-2.827
				C488.345,438.273,471.2,442.741,473.745,438.301z"/>
			<path fill-rule="evenodd" clip-rule="evenodd" d="M464.718,427.791c0.627-2.731,1.435-4.607,4.817-3.447
				C472.912,425.507,464.091,430.53,464.718,427.791z"/>
			<path fill-rule="evenodd" clip-rule="evenodd" d="M456.934,441.973c1.703-4.042,5.037-7.056,9.587-5.104
				C471.056,438.81,455.231,446.015,456.934,441.973z"/>
			<path fill-rule="evenodd" clip-rule="evenodd" d="M456.131,432.476c2.923,1.285-6.305,8.123-6.281,4.342
				C449.864,433.034,453.217,431.188,456.131,432.476z"/>
			<path fill-rule="evenodd" clip-rule="evenodd" d="M341.103,330.731c-3.947-1.095-1.254-4.994-0.861-7.879
				c0.349-2.54-1.33-4.92,1.277-6.42c2.608-1.49,1.177,2.026,0.512,4.234C341.361,322.867,343.055,326.878,341.103,330.731z"/>
			<path fill-rule="evenodd" clip-rule="evenodd" fill="#D95D1E" d="M293.705,369.749c-2.951-8.016,2.492-16.105,14.739-11.897
				c12.252,4.202,36.898,24.421,50.03,42.083c13.122,17.667,22.747,40.509,15.05,41.201c-7.678,0.691-40.275-21.769-52.909-33.559
				C307.98,395.789,298.603,383.069,293.705,369.749z"/>
			<path fill-rule="evenodd" clip-rule="evenodd" d="M433.408,437.203c1.832-3.724,5.439-3.083,6.707-2.263
				C441.377,435.765,431.571,440.918,433.408,437.203z"/>
			<path fill-rule="evenodd" clip-rule="evenodd" d="M445.137,442.008c2.631,1.371-5.64,5.119-5.324,2.882
				C440.129,442.654,442.506,440.623,445.137,442.008z"/>
			<path fill-rule="evenodd" clip-rule="evenodd" d="M336.721,353.493c-1.722-1.985-0.507-8.608-0.22-10.226
				C338.965,341.376,339.213,351.488,336.721,353.493z"/>
			<path fill-rule="evenodd" clip-rule="evenodd" d="M425.815,446.343c-1.277,1.368-5.138,0.988-6.582-1.669
				C417.783,442.021,427.102,444.968,425.815,446.343z"/>
			<path fill-rule="evenodd" clip-rule="evenodd" d="M410.933,444.41c-1.674,0.749-5.052,0.189-6.142-2.531
				C403.7,439.167,412.603,443.676,410.933,444.41z"/>
			<path fill-rule="evenodd" clip-rule="evenodd" d="M377.321,440.886c2.277-2.179,7.932,0.641,8.262,3.887
				C383.32,445.5,377.776,443.429,377.321,440.886z"/>
			<path fill-rule="evenodd" clip-rule="evenodd" d="M364.697,438.832c-2.373,1.282-8.659-1.16-7.114-4.774
				C359.904,433.381,364.324,436.461,364.697,438.832z"/>
			<path fill-rule="evenodd" clip-rule="evenodd" fill="#FF9514" d="M478.242,293.078c11.304-12.199,18.671-30.136,18.973-46.946
				c-9.39-12.077-21.814-18.616-31.612-20.779c22.049,13.086,25.24,30.105,16.672,46.367
				c-12.065,22.896-41.686,28.388-61.243,20.616c-10.706-4.243-24.039-19.449-22.608-33.609c-0.938,1.222-1.857,2.461-2.751,3.724
				c-2.186,13.466,9.338,29.353,17.399,36.515C430.729,314.658,460.24,312.505,478.242,293.078z"/>
			<path fill-rule="evenodd" clip-rule="evenodd" fill="#FF9514" d="M407.039,276.669c5.22,7.941,12.295,13.347,21.728,15.258
				c20.499,4.15,58.664-8.74,53.771-41.184c-1.794-11.866-11.156-19.887-21.905-26.132c-21.513-1.866-42.131,10.156-58.377,29.344
				C399.131,261.713,403.082,270.649,407.039,276.669z"/>
			<path fill-rule="evenodd" clip-rule="evenodd" fill="#FF9514" d="M505.601,263.308c0.488-5.32-3.67-10.474-6.066-14.01
				c-1.349,19.391-10.75,40.495-26.33,51.505c-20.48,14.473-46.92,15.98-63.601-1.347c-6.97-7.243-16.437-20.265-16.83-32.75
				c-0.354,0.55-3.267,2.748-3.64,7.231c-1.143,13.617,7.893,34.448,26.057,42.114c9.276,3.93,19.934,6.184,30.32,5.827
				c11.586-0.414,22.01-5.985,31.726-13.103C494.2,296.314,504.534,274.899,505.601,263.308z"/>
			<path fill-rule="evenodd" clip-rule="evenodd" fill="#FF9514" d="M507.404,267.577c-5.444,20.669-17.686,36.999-36.123,48.279
				c-19.24,11.766-42.199,10.898-60.472,1.189c-15.107-8.015-23.469-24.488-23.637-38.752
				c-12.534,29.452,12.151,65.922,54.325,63.319C485.614,338.891,517.029,292.626,507.404,267.577z"/>
			<path fill-rule="evenodd" clip-rule="evenodd" fill="#FF9514" d="M551.296,258.4c2.799-9.359,1.296-16.98-1.392-21.432
				c-2.683-4.449-12.065-12.201-15.227-14.014c-14.581-8.331,3.095,19.659,9.812,46.563
				C547.56,266.688,549.932,262.956,551.296,258.4z"/>
			<path fill-rule="evenodd" clip-rule="evenodd" fill="#FF9514" d="M545.148,272.302c0.502,2.272,0.924,4.514,1.215,6.736
				c0.747,5.6,1.321,11.008,1.742,16.179c0.794-0.545,1.574-1.107,2.34-1.693c6.53-4.97,12.773-11.694,14.509-20.07
				c1.239-5.978,0.689-11.94-1.129-17.389c-2.856-4.892-6.157-9.609-9.529-13.857c1.392,6.241,1.186,12.859-1.636,19.707
				C550.884,266.167,548.282,269.627,545.148,272.302z"/>
			<path fill-rule="evenodd" clip-rule="evenodd" fill="#FF9514" d="M555.639,292.566c-2.325,2.002-4.784,3.803-7.319,5.492
				c0.684,9.719,0.798,18.59,0.469,26.512c7.707-5.934,15.705-12.993,20.226-21.606c3.066-5.851,5.148-14.62,4.932-20.262
				c-0.215-5.637-2.966-11.897-6.085-18.817C568.542,274.124,564.849,284.651,555.639,292.566z"/>
			<path fill-rule="evenodd" clip-rule="evenodd" fill="#FF9514" d="M571.455,316.59c4.492-11.794,3.44-18.305,3.411-23.699
				c-4.497,18.324-16.409,27.505-25.613,34.509c-0.216,0.16-0.426,0.318-0.646,0.481c-0.45,7.47-1.326,14.019-2.516,19.48
				C542.709,362.69,561.457,342.863,571.455,316.59z"/>
			<path fill-rule="evenodd" clip-rule="evenodd" fill="#FF9514" d="M335.382,224.645c-1.689,5.487-2.263,11.448-0.555,16.808
				c2.895,9.135,8.109,12.455,21.58,12.718c6.128-7.663,13.447-16.143,21.193-23.716c-4.234-0.244-8.305-1.031-11.831-2.705
				c-7.917-3.77-11.859-13.505-6.817-22.322c1.373-2.392,3.057-4.387,4.942-6.133C346.848,203.905,337.31,218.366,335.382,224.645z"
				/>
			<path fill-rule="evenodd" clip-rule="evenodd" fill="#FF9514" d="M310.779,254.063c0.526,6.86,3.282,13.155,7.874,17.674
				c5.942,5.879,13.337,7.417,21.379,4.702c0.842-1.352,8.917-12.849,13.452-18.655c-2.258,0.086-4.501-0.122-6.736-0.71
				c-9.639-2.55-14.791-9.927-15.786-20.231c-0.813-8.494,2.358-14.84,6.879-20.755c-6.889,5.733-17.193,15.167-21.265,21.295
				C312.5,243.522,310.329,248.32,310.779,254.063z"/>
			<path fill-rule="evenodd" clip-rule="evenodd" fill="#FF9514" d="M321.781,319.367c1.483-7.422,5.22-22.51,14.816-38.828
				c-0.952,0.196-1.918,0.342-2.89,0.426c-9.654,0.895-17.356-5.143-22.278-13.146c-4.478-7.322-4.564-14.043-2.344-20.975
				C278.468,292.049,320.169,327.452,321.781,319.367z"/>
			<path fill-rule="evenodd" clip-rule="evenodd" fill="#FF9514" d="M361.411,206.273c-6.822,14.665,7.817,21.278,18.657,21.006
				c16.906-15.143,37.768-33.556,33.989-34.992c-7.152-2.715-24.78-2.339-39.127,2.76
				C368.515,197.327,363.951,200.8,361.411,206.273z"/>
			<path fill-rule="evenodd" clip-rule="evenodd" fill="#80AD37" d="M464.656,191.842c1.77,0.349,9.003,1.854,7.487,2.99
				c-1.502,1.136-8.788,1.928-12.328-0.598C456.279,191.706,459.422,190.83,464.656,191.842z"/>
			<path fill-rule="evenodd" clip-rule="evenodd" fill="#80AD37" d="M469.2,202.137l-7.97-1.67c0,0-1.775,2.232-3.731,3.818
				c-1.937,1.579-2.951,2.105-2.951,2.105s-0.057,0.978,0.89,0.943c0.918-0.031,4.392-1.117,7.52-2.476
				C466.081,203.496,469.2,202.137,469.2,202.137z"/>
			<path fill-rule="evenodd" clip-rule="evenodd" fill="#80AD37" d="M479.394,197.554c0,0,2.473,2.186,3.779,4.638
				c1.316,2.442,1.469,3.633,1.469,3.633s-4.827-2.648-6.812-4.205c-1.99-1.555-2.669-2.287-2.669-2.287s1.363-0.376,2.425-0.845
				C478.648,198.028,479.394,197.554,479.394,197.554z"/>
			<path fill-rule="evenodd" clip-rule="evenodd" fill="#80AD37" d="M456.423,186.223c0,0,2.086-1.313,5.253-1.593
				c3.186-0.271,7.444,0.287,7.444,0.287s-2.842-4.769-3.808-5.018C462.771,179.282,456.423,186.223,456.423,186.223z"/>
		</g>
		<g>
			<path d="M412.966,242.934c-8.042-7.889-21.111-10.551-31.736-3.363c-9.553,6.46-17.432,18.655-17.619,32.874
				c-0.296,22.601,23.991,34.575,41.711,22.781C422.237,283.953,427.676,257.393,412.966,242.934z"/>
			<path fill="#FFFFFF" d="M409.56,283.654c-11.477,18.733-40.768,12.321-40.538-12.211c0.072-7.413,3.439-15.83,7.827-21.79
				c5.003-6.791,13.816-12.665,24.182-9.616c9.223,2.717,14.361,9.957,15.193,19.231C417.066,268.53,414.487,275.631,409.56,283.654
				z"/>
			<path d="M480.084,271.658c-5.315-14.459-17.844-20.664-32.133-16.669c-8.974,2.524-16.016,9.46-22.115,20.595
				c-6.1,11.127-8.621,28.646,5.43,39.897c13.486,10.795,28.363,7.324,38.204-2.411
				C480.318,302.325,484.092,282.508,480.084,271.658z"/>
			<path fill="#FFFFFF" d="M431.484,275.569c6.841-12.644,19.953-23.125,33.171-16.148c16.102,8.482,12.658,26.32,8.333,37.223
				c-6.018,15.143-20.858,25.807-37.347,14.653C424.189,303.547,424.792,287.947,431.484,275.569z"/>
			<path d="M413.507,279.092c-2.966,6.195-10.391,8.807-16.572,5.846c-6.181-2.969-8.793-10.376-5.841-16.562
				c2.966-6.19,10.376-8.804,16.571-5.831C413.856,265.496,416.468,272.907,413.507,279.092z"/>
			<path d="M472.037,295.666c-2.985,6.231-10.448,8.862-16.677,5.882c-6.224-2.985-8.855-10.445-5.884-16.686
				c2.985-6.217,10.448-8.85,16.677-5.868C472.381,281.974,475.012,289.435,472.037,295.666z"/>
			<path fill="#FFFFFF" d="M411.584,274.564c-0.918,1.916-3.22,2.727-5.138,1.815c-1.923-0.921-2.736-3.222-1.813-5.14
				c0.919-1.926,3.22-2.739,5.148-1.818C411.693,270.34,412.511,272.651,411.584,274.564z"/>
			<path fill="#FFFFFF" d="M409.115,267.453c-0.364,0.756-1.273,1.077-2.038,0.723c-0.756-0.371-1.077-1.28-0.713-2.04
				c0.364-0.763,1.273-1.088,2.038-0.718C409.158,265.777,409.488,266.69,409.115,267.453z"/>
			<path fill="#FFFFFF" d="M470.841,290.232c-0.976,2.061-3.435,2.925-5.507,1.942c-2.052-0.985-2.923-3.447-1.937-5.504
				c0.986-2.074,3.449-2.93,5.506-1.945C470.961,285.706,471.836,288.174,470.841,290.232z"/>
			<path fill="#FFFFFF" d="M467.157,283.061c-0.416,0.885-1.478,1.256-2.363,0.835c-0.885-0.421-1.258-1.481-0.837-2.366
				c0.431-0.89,1.483-1.256,2.373-0.837C467.205,281.118,467.583,282.178,467.157,283.061z"/>
		</g>
		<path fill-rule="evenodd" clip-rule="evenodd" d="M476.434,316.32c-13.955-3.75-26.919,2.725-40.538,5.109
			c-2.487,0.438-1.885,4.528,0.612,4.344c13.266-0.969,25.656-4.092,39.079-2.858C479.447,323.271,480.021,317.289,476.434,316.32z"
			/>
		<path fill-rule="evenodd" clip-rule="evenodd" d="M377.767,298.531c-4.296-8.458-10.247-16.318-18.586-21.078
			c-1.961-1.12-3.621,1.363-1.976,2.839c6.601,5.913,10.577,13.806,14.744,21.465C374.011,305.542,379.694,302.332,377.767,298.531z
			"/>
		<path fill-rule="evenodd" clip-rule="evenodd" d="M508.011,315.091c-6.314-2.608-13.49-1.579-20.001-0.66
			c-1.689,0.242-1.469,2.545,0.187,2.595c4.229,0.136,8.936,0.787,13.007,2.095c-20.963,34.279-61.003,41.452-98.294,31.956
			c-35.42-9.017-60.889-37.342-62.721-73.912c-0.015-0.249-0.12-0.455-0.273-0.615c3.468-0.187,6.75,0.943,10.261,1.148
			c2.564,0.153,4.616-3.559,2.005-5.098c-4.535-2.669-10.524-2.741-15.528-1.392c-5.621,1.526-8.664,4.982-10.965,10.065
			c-0.603,1.335,1.129,2.404,2.114,1.373c2.44-2.559,6.305-4.886,9.745-5.762c0.277-0.069,0.55-0.1,0.827-0.148
			c-0.028,0.057-0.052,0.105-0.067,0.182c-6.578,40.598,30.856,71.186,66.294,80.517c19.815,5.224,42.72,5.961,62.094-1.406
			c16.054-6.104,34.127-16.782,40.418-33.662c0.866,0.756,1.693,1.574,2.402,2.526c1.708,2.28,1.851,4.143,4.119,6.019
			c1.55,1.286,4.238,0.102,4.707-1.72C520.095,322.422,513.628,317.399,508.011,315.091z"/>
		<path fill-rule="evenodd" clip-rule="evenodd" d="M403.776,380.967c-4.477-12.089-13.84-16.155-25.048-20.563
			c-0.942-0.376-1.617,1.031-0.928,1.66c7.448,6.86,14.921,12.498,19.647,21.714C399.256,387.305,405.159,384.676,403.776,380.967z"
			/>
		<path fill-rule="evenodd" clip-rule="evenodd" d="M466.21,222.643c-6.898-0.715-10.577,12.756-4.808,14.818
			c14.265,5.09,26.474,15.698,28.34,30.354c0.215,1.727,2.999,2.152,3.731,0.579C502.477,249.225,486.345,224.76,466.21,222.643z"/>
		<path fill-rule="evenodd" clip-rule="evenodd" d="M434.733,223.162c-10.266-18.073-41.414-10.708-51.9,1.246
			c-1.244,1.419-0.134,4.399,2.024,3.571c15.213-5.839,29.234-7.245,42.863,2.529C430.987,232.852,436.57,226.386,434.733,223.162z"
			/>
		<path fill-rule="evenodd" clip-rule="evenodd" d="M602.803,277.377c3.573-12.581,2.947-26.053,0.531-38.759
			c-4.176-22.115-18.417-45.808-37.376-58.571c4.363-11.35-3.932-18.344-7.702-19.705c0.378-3.877,0.33-7.683-0.536-11.603
			c-1.033-4.688-3.947-10.558-9.429-10.391c-2.181,0.072-3.086,2.514-2.55,4.303c0.44,1.456,1.335,2.44,2.292,3.576
			c1.535,1.844,4.157,6.96,5.463,12.995c-1.583-0.117-3.215,0.01-4.817,0.385c-1.244-4.707-4.928-9.065-8.128-12.383
			c-3.626-3.77-12.271-10.24-16.944-5.38c-0.784,0.821-0.827,2.11-0.492,3.11c0.679,2.031,1.86,2.775,3.808,3.459
			c3.138,1.105,5.875,2.839,8.491,4.846c3.315,2.56,5.315,5.664,7.582,8.833c-1.421,0.962-2.679,2.11-3.621,3.464
			c-1.584-3.093-4.013-5.557-7.095-8.111c-4.899-4.054-12.356-6.673-17.518-1.909c-2.603,2.401-0.144,6.381,2.937,6.381
			c4.162,0,7.458,0.827,11.237,2.591c2.627,1.217,6.932,4.083,8.52,6.934c-0.005,0.845,0.182,3.248,1.038,4.641
			c-1.363,0.127-2.698,0.385-4.033,0.84c-5.975,2.076-10.395,8.912-8.095,15.174c1.201,3.251,6.066,3.378,7.429,0.201
			c0.823-1.928,0.588-4.71,2.1-6.286c1.445-1.509,5.961-3.179,10.635-2.616c1.44,1.203,7.936,3.141,12.807,1.474
			c12.581,16.459,25.55,30.54,31.918,50.854c8.946,28.497-2.435,53.062-15.146,78.343c-1.081,2.143,1.981,4.092,3.502,2.27
			C589.648,304.351,598.474,292.611,602.803,277.377z"/>
	</g>
	<path d="M298.981,393.429c-12.237-19.229-29.932-31.806-43.72-50.137c-3.052-4.066-9.974-3.289-10.969,2.162
		c-5.305,29,0.144,58.995-3.779,88.051c-3.186-3.205-6.319-6.468-9.152-10.094c-8.085-10.355-21.652-30.873-27.87-47.308
		c-2.468-6.523-4.071,12.268-3.21,18.47c3.162,22.783,25.536,49.577,44.069,63.695c9.329,7.109,13.768-4.442,7.549-15.985
		c4.53-28.478,1.761-50.991,3.143-79.598c10.477,13.887,31.057,28.074,41.72,35.183
		C299.861,399.935,300.952,396.526,298.981,393.429z"/>
	<path d="M633.717,401.973c-8.133-18.949-20.628-31.011-39.821-37.419c-10.654-3.552-17.323,7.998-7.549,14.215
		c7.994,30.2,10.166,52.991,5.774,82.612c-16.619-2.705-51.833-25.237-66.175-33.757c-8.166-4.846-10.659,3.552-8.889,6.214
		c12.419,18.638,55.421,42.155,78.359,43.528c3.32,0.201,6.874-2.837,7.453-6.044c4.923-27.265,4.353-61.908-3.645-88.111
		c7.707,5.913,32.582,37.108,38.194,45.751C641.601,435.395,641.864,420.962,633.717,401.973z"/>
</g>
</svg>
