<?xml version="1.0" encoding="utf-8"?>
<!-- Generator: Adobe Illustrator 16.0.0, SVG Export Plug-In . SVG Version: 6.00 Build 0)  -->
<!DOCTYPE svg PUBLIC "-//W3C//DTD SVG 1.1//EN" "http://www.w3.org/Graphics/SVG/1.1/DTD/svg11.dtd">
<svg version="1.1" id="Layer_1" xmlns="http://www.w3.org/2000/svg" xmlns:xlink="http://www.w3.org/1999/xlink" x="0px" y="0px"
	 width="50px" height="50px" viewBox="0 0 50 50" enable-background="new 0 0 50 50" xml:space="preserve">
<g>
	<g>
		<g opacity="0.07">
			<path d="M38.191,44.205c0,2.601-7.032,4.701-15.707,4.701c-8.669,0-15.702-2.101-15.702-4.701s7.033-4.7,15.702-4.7
				C31.159,39.505,38.191,41.604,38.191,44.205z"/>
			<path d="M35.512,44.205c0,2.155-5.83,3.9-13.027,3.9c-7.191,0-13.021-1.745-13.021-3.9s5.83-3.9,13.021-3.9
				C29.682,40.305,35.512,42.05,35.512,44.205z"/>
			<path d="M32.765,44.205c0,1.697-4.603,3.077-10.28,3.077c-5.671,0-10.274-1.38-10.274-3.077s4.603-3.076,10.274-3.076
				C28.162,41.129,32.765,42.508,32.765,44.205z"/>
			<path d="M30.146,44.205c0,1.27-3.431,2.296-7.662,2.296c-4.225,0-7.655-1.026-7.655-2.296s3.431-2.296,7.655-2.296
				C26.716,41.909,30.146,42.936,30.146,44.205z"/>
			<path d="M26.617,44.205c0,0.684-1.849,1.233-4.132,1.233c-2.277,0-4.127-0.55-4.127-1.233s1.85-1.233,4.127-1.233
				C24.768,42.972,26.617,43.521,26.617,44.205z"/>
		</g>
		<g opacity="0.0844">
			<path d="M38.191,44.143c0,2.601-7.032,4.702-15.707,4.702c-8.669,0-15.702-2.102-15.702-4.702c0-2.6,7.033-4.7,15.702-4.7
				C31.159,39.442,38.191,41.543,38.191,44.143z"/>
			<path d="M35.512,44.143c0,2.155-5.83,3.9-13.027,3.9c-7.191,0-13.021-1.745-13.021-3.9s5.83-3.9,13.021-3.9
				C29.682,40.242,35.512,41.987,35.512,44.143z"/>
			<path d="M32.765,44.143c0,1.698-4.603,3.077-10.28,3.077c-5.671,0-10.274-1.379-10.274-3.077c0-1.697,4.603-3.076,10.274-3.076
				C28.162,41.066,32.765,42.445,32.765,44.143z"/>
			<path d="M30.146,44.143c0,1.27-3.431,2.296-7.662,2.296c-4.225,0-7.655-1.026-7.655-2.296c0-1.269,3.431-2.296,7.655-2.296
				C26.716,41.847,30.146,42.874,30.146,44.143z"/>
			<path d="M26.617,44.143c0,0.684-1.849,1.234-4.132,1.234c-2.277,0-4.127-0.551-4.127-1.234s1.85-1.233,4.127-1.233
				C24.768,42.909,26.617,43.459,26.617,44.143z"/>
		</g>
		<g opacity="0.0988">
			<path d="M38.191,44.081c0,2.6-7.032,4.701-15.707,4.701c-8.669,0-15.702-2.102-15.702-4.701c0-2.601,7.033-4.701,15.702-4.701
				C31.159,39.38,38.191,41.48,38.191,44.081z"/>
			<path d="M35.512,44.081c0,2.155-5.83,3.9-13.027,3.9c-7.191,0-13.021-1.745-13.021-3.9s5.83-3.9,13.021-3.9
				C29.682,40.181,35.512,41.926,35.512,44.081z"/>
			<path d="M32.765,44.081c0,1.697-4.603,3.077-10.28,3.077c-5.671,0-10.274-1.38-10.274-3.077c0-1.698,4.603-3.077,10.274-3.077
				C28.162,41.004,32.765,42.383,32.765,44.081z"/>
			<path d="M30.146,44.081c0,1.269-3.431,2.295-7.662,2.295c-4.225,0-7.655-1.026-7.655-2.295c0-1.27,3.431-2.296,7.655-2.296
				C26.716,41.785,30.146,42.812,30.146,44.081z"/>
			<path d="M26.617,44.081c0,0.684-1.849,1.233-4.132,1.233c-2.277,0-4.127-0.55-4.127-1.233s1.85-1.234,4.127-1.234
				C24.768,42.847,26.617,43.397,26.617,44.081z"/>
		</g>
		<g opacity="0.1131">
			<path d="M38.191,44.019c0,2.6-7.032,4.702-15.707,4.702c-8.669,0-15.702-2.103-15.702-4.702s7.033-4.701,15.702-4.701
				C31.159,39.317,38.191,41.419,38.191,44.019z"/>
			<path d="M35.512,44.019c0,2.155-5.83,3.9-13.027,3.9c-7.191,0-13.021-1.745-13.021-3.9s5.83-3.9,13.021-3.9
				C29.682,40.118,35.512,41.863,35.512,44.019z"/>
			<path d="M32.765,44.019c0,1.698-4.603,3.077-10.28,3.077c-5.671,0-10.274-1.379-10.274-3.077s4.603-3.077,10.274-3.077
				C28.162,40.941,32.765,42.32,32.765,44.019z"/>
			<path d="M30.146,44.019c0,1.269-3.431,2.295-7.662,2.295c-4.225,0-7.655-1.026-7.655-2.295s3.431-2.296,7.655-2.296
				C26.716,41.723,30.146,42.75,30.146,44.019z"/>
			<path d="M26.617,44.019c0,0.684-1.849,1.234-4.132,1.234c-2.277,0-4.127-0.551-4.127-1.234s1.85-1.234,4.127-1.234
				C24.768,42.784,26.617,43.335,26.617,44.019z"/>
		</g>
		<g opacity="0.1275">
			<path d="M38.191,43.957c0,2.599-7.032,4.701-15.707,4.701c-8.669,0-15.702-2.103-15.702-4.701c0-2.6,7.033-4.702,15.702-4.702
				C31.159,39.255,38.191,41.357,38.191,43.957z"/>
			<path d="M35.512,43.957c0,2.154-5.83,3.899-13.027,3.899c-7.191,0-13.021-1.745-13.021-3.899c0-2.156,5.83-3.901,13.021-3.901
				C29.682,40.056,35.512,41.801,35.512,43.957z"/>
			<path d="M32.765,43.957c0,1.698-4.603,3.076-10.28,3.076c-5.671,0-10.274-1.378-10.274-3.076c0-1.699,4.603-3.078,10.274-3.078
				C28.162,40.879,32.765,42.258,32.765,43.957z"/>
			<path d="M30.146,43.957c0,1.268-3.431,2.293-7.662,2.293c-4.225,0-7.655-1.025-7.655-2.293c0-1.269,3.431-2.297,7.655-2.297
				C26.716,41.66,30.146,42.688,30.146,43.957z"/>
			<path d="M26.617,43.957c0,0.684-1.849,1.234-4.132,1.234c-2.277,0-4.127-0.551-4.127-1.234s1.85-1.235,4.127-1.235
				C24.768,42.722,26.617,43.273,26.617,43.957z"/>
		</g>
		<g opacity="0.1419">
			<path d="M38.191,43.895c0,2.599-7.032,4.702-15.707,4.702c-8.669,0-15.702-2.104-15.702-4.702c0-2.6,7.033-4.702,15.702-4.702
				C31.159,39.192,38.191,41.295,38.191,43.895z"/>
			<path d="M35.512,43.895c0,2.155-5.83,3.9-13.027,3.9c-7.191,0-13.021-1.745-13.021-3.9s5.83-3.9,13.021-3.9
				C29.682,39.994,35.512,41.739,35.512,43.895z"/>
			<path d="M32.765,43.895c0,1.698-4.603,3.076-10.28,3.076c-5.671,0-10.274-1.378-10.274-3.076c0-1.699,4.603-3.079,10.274-3.079
				C28.162,40.815,32.765,42.195,32.765,43.895z"/>
			<path d="M30.146,43.895c0,1.268-3.431,2.293-7.662,2.293c-4.225,0-7.655-1.025-7.655-2.293c0-1.269,3.431-2.296,7.655-2.296
				C26.716,41.599,30.146,42.626,30.146,43.895z"/>
			<path d="M26.617,43.895c0,0.684-1.849,1.234-4.132,1.234c-2.277,0-4.127-0.551-4.127-1.234s1.85-1.235,4.127-1.235
				C24.768,42.659,26.617,43.211,26.617,43.895z"/>
		</g>
		<g opacity="0.1563">
			<path d="M38.191,43.832c0,2.599-7.032,4.703-15.707,4.703c-8.669,0-15.702-2.104-15.702-4.703s7.033-4.702,15.702-4.702
				C31.159,39.13,38.191,41.233,38.191,43.832z"/>
			<path d="M35.512,43.832c0,2.155-5.83,3.9-13.027,3.9c-7.191,0-13.021-1.745-13.021-3.9s5.83-3.9,13.021-3.9
				C29.682,39.932,35.512,41.677,35.512,43.832z"/>
			<path d="M32.765,43.832c0,1.699-4.603,3.076-10.28,3.076c-5.671,0-10.274-1.377-10.274-3.076s4.603-3.079,10.274-3.079
				C28.162,40.753,32.765,42.133,32.765,43.832z"/>
			<path d="M30.146,43.832c0,1.268-3.431,2.293-7.662,2.293c-4.225,0-7.655-1.025-7.655-2.293s3.431-2.296,7.655-2.296
				C26.716,41.536,30.146,42.564,30.146,43.832z"/>
			<path d="M26.617,43.832c0,0.684-1.849,1.235-4.132,1.235c-2.277,0-4.127-0.552-4.127-1.235s1.85-1.235,4.127-1.235
				C24.768,42.597,26.617,43.148,26.617,43.832z"/>
		</g>
		<g opacity="0.1706">
			<path d="M38.191,43.771c0,2.598-7.032,4.702-15.707,4.702c-8.669,0-15.702-2.104-15.702-4.702c0-2.599,7.033-4.703,15.702-4.703
				C31.159,39.067,38.191,41.172,38.191,43.771z"/>
			<path d="M35.512,43.771c0,2.154-5.83,3.899-13.027,3.899c-7.191,0-13.021-1.745-13.021-3.899c0-2.156,5.83-3.901,13.021-3.901
				C29.682,39.869,35.512,41.614,35.512,43.771z"/>
			<path d="M32.765,43.771c0,1.699-4.603,3.076-10.28,3.076c-5.671,0-10.274-1.377-10.274-3.076c0-1.7,4.603-3.08,10.274-3.08
				C28.162,40.69,32.765,42.07,32.765,43.771z"/>
			<path d="M30.146,43.771c0,1.267-3.431,2.292-7.662,2.292c-4.225,0-7.655-1.025-7.655-2.292c0-1.268,3.431-2.297,7.655-2.297
				C26.716,41.474,30.146,42.503,30.146,43.771z"/>
			<path d="M26.617,43.771c0,0.684-1.849,1.235-4.132,1.235c-2.277,0-4.127-0.552-4.127-1.235s1.85-1.236,4.127-1.236
				C24.768,42.534,26.617,43.087,26.617,43.771z"/>
		</g>
		<g opacity="0.185">
			<path d="M38.191,43.708c0,2.597-7.032,4.703-15.707,4.703c-8.669,0-15.702-2.106-15.702-4.703c0-2.599,7.033-4.704,15.702-4.704
				C31.159,39.004,38.191,41.109,38.191,43.708z"/>
			<path d="M35.512,43.708c0,2.155-5.83,3.899-13.027,3.899c-7.191,0-13.021-1.744-13.021-3.899s5.83-3.901,13.021-3.901
				C29.682,39.807,35.512,41.553,35.512,43.708z"/>
			<path d="M32.765,43.708c0,1.7-4.603,3.076-10.28,3.076c-5.671,0-10.274-1.376-10.274-3.076s4.603-3.08,10.274-3.08
				C28.162,40.628,32.765,42.008,32.765,43.708z"/>
			<path d="M30.146,43.708c0,1.267-3.431,2.292-7.662,2.292c-4.225,0-7.655-1.025-7.655-2.292s3.431-2.296,7.655-2.296
				C26.716,41.412,30.146,42.441,30.146,43.708z"/>
			<path d="M26.617,43.708c0,0.684-1.849,1.235-4.132,1.235c-2.277,0-4.127-0.552-4.127-1.235s1.85-1.237,4.127-1.237
				C24.768,42.471,26.617,43.024,26.617,43.708z"/>
		</g>
		<g opacity="0.1994">
			<path d="M38.191,43.646c0,2.597-7.032,4.704-15.707,4.704c-8.669,0-15.702-2.107-15.702-4.704c0-2.598,7.033-4.704,15.702-4.704
				C31.159,38.941,38.191,41.048,38.191,43.646z"/>
			<path d="M35.512,43.646c0,2.155-5.83,3.9-13.027,3.9c-7.191,0-13.021-1.745-13.021-3.9s5.83-3.9,13.021-3.9
				C29.682,39.745,35.512,41.49,35.512,43.646z"/>
			<path d="M32.765,43.646c0,1.7-4.603,3.076-10.28,3.076c-5.671,0-10.274-1.376-10.274-3.076c0-1.701,4.603-3.08,10.274-3.08
				C28.162,40.565,32.765,41.944,32.765,43.646z"/>
			<path d="M30.146,43.646c0,1.266-3.431,2.292-7.662,2.292c-4.225,0-7.655-1.026-7.655-2.292c0-1.267,3.431-2.296,7.655-2.296
				C26.716,41.35,30.146,42.379,30.146,43.646z"/>
			<path d="M26.617,43.646c0,0.684-1.849,1.236-4.132,1.236c-2.277,0-4.127-0.553-4.127-1.236s1.85-1.237,4.127-1.237
				C24.768,42.408,26.617,42.962,26.617,43.646z"/>
		</g>
		<g opacity="0.2138">
			<path d="M38.191,43.584c0,2.596-7.032,4.703-15.707,4.703c-8.669,0-15.702-2.107-15.702-4.703c0-2.598,7.033-4.705,15.702-4.705
				C31.159,38.879,38.191,40.986,38.191,43.584z"/>
			<path d="M35.512,43.584c0,2.154-5.83,3.899-13.027,3.899c-7.191,0-13.021-1.745-13.021-3.899c0-2.156,5.83-3.901,13.021-3.901
				C29.682,39.683,35.512,41.428,35.512,43.584z"/>
			<path d="M32.765,43.584c0,1.7-4.603,3.076-10.28,3.076c-5.671,0-10.274-1.376-10.274-3.076c0-1.702,4.603-3.081,10.274-3.081
				C28.162,40.503,32.765,41.882,32.765,43.584z"/>
			<path d="M30.146,43.584c0,1.265-3.431,2.291-7.662,2.291c-4.225,0-7.655-1.026-7.655-2.291c0-1.267,3.431-2.297,7.655-2.297
				C26.716,41.287,30.146,42.317,30.146,43.584z"/>
			<path d="M26.617,43.584c0,0.684-1.849,1.236-4.132,1.236c-2.277,0-4.127-0.553-4.127-1.236s1.85-1.238,4.127-1.238
				C24.768,42.346,26.617,42.9,26.617,43.584z"/>
		</g>
		<g opacity="0.2281">
			<path d="M38.191,43.521c0,2.596-7.032,4.704-15.707,4.704c-8.669,0-15.702-2.108-15.702-4.704c0-2.597,7.033-4.705,15.702-4.705
				C31.159,38.816,38.191,40.925,38.191,43.521z"/>
			<path d="M35.512,43.521c0,2.154-5.83,3.899-13.027,3.899c-7.191,0-13.021-1.745-13.021-3.899c0-2.156,5.83-3.901,13.021-3.901
				C29.682,39.62,35.512,41.365,35.512,43.521z"/>
			<path d="M32.765,43.521c0,1.701-4.603,3.076-10.28,3.076c-5.671,0-10.274-1.375-10.274-3.076c0-1.702,4.603-3.081,10.274-3.081
				C28.162,40.44,32.765,41.819,32.765,43.521z"/>
			<path d="M30.146,43.521c0,1.265-3.431,2.291-7.662,2.291c-4.225,0-7.655-1.026-7.655-2.291c0-1.266,3.431-2.297,7.655-2.297
				C26.716,41.225,30.146,42.256,30.146,43.521z"/>
			<path d="M26.617,43.521c0,0.684-1.849,1.237-4.132,1.237c-2.277,0-4.127-0.554-4.127-1.237s1.85-1.238,4.127-1.238
				C24.768,42.283,26.617,42.838,26.617,43.521z"/>
		</g>
		<g opacity="0.2425">
			<path d="M38.191,43.459c0,2.596-7.032,4.705-15.707,4.705c-8.669,0-15.702-2.109-15.702-4.705c0-2.597,7.033-4.705,15.702-4.705
				C31.159,38.754,38.191,40.862,38.191,43.459z"/>
			<path d="M35.512,43.459c0,2.155-5.83,3.9-13.027,3.9c-7.191,0-13.021-1.745-13.021-3.9s5.83-3.9,13.021-3.9
				C29.682,39.559,35.512,41.304,35.512,43.459z"/>
			<path d="M32.765,43.459c0,1.701-4.603,3.076-10.28,3.076c-5.671,0-10.274-1.375-10.274-3.076c0-1.702,4.603-3.082,10.274-3.082
				C28.162,40.377,32.765,41.757,32.765,43.459z"/>
			<path d="M30.146,43.459c0,1.265-3.431,2.291-7.662,2.291c-4.225,0-7.655-1.026-7.655-2.291c0-1.266,3.431-2.296,7.655-2.296
				C26.716,41.163,30.146,42.193,30.146,43.459z"/>
			<path d="M26.617,43.459c0,0.684-1.849,1.237-4.132,1.237c-2.277,0-4.127-0.554-4.127-1.237s1.85-1.238,4.127-1.238
				C24.768,42.221,26.617,42.775,26.617,43.459z"/>
		</g>
		<g opacity="0.2569">
			<path d="M38.191,43.397c0,2.595-7.032,4.704-15.707,4.704c-8.669,0-15.702-2.109-15.702-4.704c0-2.597,7.033-4.706,15.702-4.706
				C31.159,38.691,38.191,40.801,38.191,43.397z"/>
			<path d="M35.512,43.397c0,2.154-5.83,3.899-13.027,3.899c-7.191,0-13.021-1.745-13.021-3.899c0-2.156,5.83-3.901,13.021-3.901
				C29.682,39.496,35.512,41.241,35.512,43.397z"/>
			<path d="M32.765,43.397c0,1.701-4.603,3.075-10.28,3.075c-5.671,0-10.274-1.374-10.274-3.075c0-1.703,4.603-3.083,10.274-3.083
				C28.162,40.314,32.765,41.694,32.765,43.397z"/>
			<path d="M30.146,43.397c0,1.264-3.431,2.289-7.662,2.289c-4.225,0-7.655-1.025-7.655-2.289c0-1.266,3.431-2.297,7.655-2.297
				C26.716,41.101,30.146,42.132,30.146,43.397z"/>
			<path d="M26.617,43.397c0,0.684-1.849,1.237-4.132,1.237c-2.277,0-4.127-0.554-4.127-1.237s1.85-1.239,4.127-1.239
				C24.768,42.158,26.617,42.714,26.617,43.397z"/>
		</g>
		<g opacity="0.2713">
			<path d="M38.191,43.335c0,2.595-7.032,4.705-15.707,4.705c-8.669,0-15.702-2.11-15.702-4.705c0-2.596,7.033-4.706,15.702-4.706
				C31.159,38.629,38.191,40.739,38.191,43.335z"/>
			<path d="M35.512,43.335c0,2.154-5.83,3.899-13.027,3.899c-7.191,0-13.021-1.745-13.021-3.899c0-2.156,5.83-3.901,13.021-3.901
				C29.682,39.434,35.512,41.179,35.512,43.335z"/>
			<path d="M32.765,43.335c0,1.702-4.603,3.075-10.28,3.075c-5.671,0-10.274-1.373-10.274-3.075c0-1.703,4.603-3.083,10.274-3.083
				C28.162,40.252,32.765,41.632,32.765,43.335z"/>
			<path d="M30.146,43.335c0,1.264-3.431,2.289-7.662,2.289c-4.225,0-7.655-1.025-7.655-2.289c0-1.265,3.431-2.297,7.655-2.297
				C26.716,41.038,30.146,42.07,30.146,43.335z"/>
			<path d="M26.617,43.335c0,0.684-1.849,1.238-4.132,1.238c-2.277,0-4.127-0.555-4.127-1.238s1.85-1.239,4.127-1.239
				C24.768,42.096,26.617,42.651,26.617,43.335z"/>
		</g>
		<g opacity="0.2856">
			<path d="M38.191,43.273c0,2.594-7.032,4.704-15.707,4.704c-8.669,0-15.702-2.11-15.702-4.704c0-2.597,7.033-4.707,15.702-4.707
				C31.159,38.566,38.191,40.677,38.191,43.273z"/>
			<path d="M35.512,43.273c0,2.154-5.83,3.899-13.027,3.899c-7.191,0-13.021-1.745-13.021-3.899c0-2.156,5.83-3.901,13.021-3.901
				C29.682,39.372,35.512,41.117,35.512,43.273z"/>
			<path d="M32.765,43.273c0,1.701-4.603,3.075-10.28,3.075c-5.671,0-10.274-1.374-10.274-3.075c0-1.704,4.603-3.084,10.274-3.084
				C28.162,40.189,32.765,41.569,32.765,43.273z"/>
			<path d="M30.146,43.273c0,1.263-3.431,2.288-7.662,2.288c-4.225,0-7.655-1.025-7.655-2.288c0-1.266,3.431-2.297,7.655-2.297
				C26.716,40.977,30.146,42.008,30.146,43.273z"/>
			<path d="M26.617,43.273c0,0.684-1.849,1.237-4.132,1.237c-2.277,0-4.127-0.554-4.127-1.237s1.85-1.24,4.127-1.24
				C24.768,42.033,26.617,42.59,26.617,43.273z"/>
		</g>
		<g opacity="0.3">
			<path d="M38.191,43.211c0,2.594-7.032,4.705-15.707,4.705c-8.669,0-15.702-2.111-15.702-4.705c0-2.596,7.033-4.707,15.702-4.707
				C31.159,38.504,38.191,40.615,38.191,43.211z"/>
			<path d="M35.512,43.211c0,2.154-5.83,3.899-13.027,3.899c-7.191,0-13.021-1.745-13.021-3.899c0-2.156,5.83-3.901,13.021-3.901
				C29.682,39.31,35.512,41.055,35.512,43.211z"/>
			<path d="M32.765,43.211c0,1.702-4.603,3.075-10.28,3.075c-5.671,0-10.274-1.373-10.274-3.075c0-1.704,4.603-3.084,10.274-3.084
				C28.162,40.127,32.765,41.507,32.765,43.211z"/>
			<path d="M30.146,43.211c0,1.263-3.431,2.288-7.662,2.288c-4.225,0-7.655-1.025-7.655-2.288c0-1.265,3.431-2.297,7.655-2.297
				C26.716,40.914,30.146,41.946,30.146,43.211z"/>
			<path d="M26.617,43.211c0,0.684-1.849,1.238-4.132,1.238c-2.277,0-4.127-0.555-4.127-1.238s1.85-1.24,4.127-1.24
				C24.768,41.971,26.617,42.527,26.617,43.211z"/>
		</g>
	</g>
	<g>
		<g>
			<path fill="#CC0000" d="M38.191,43.211c0,2.594-7.032,4.705-15.707,4.705c-8.669,0-15.702-2.111-15.702-4.705
				c0-2.596,7.033-4.707,15.702-4.707C31.159,38.504,38.191,40.615,38.191,43.211z"/>
			<path fill="#CCCCCC" d="M35.512,43.211c0,2.154-5.83,3.899-13.027,3.899c-7.191,0-13.021-1.745-13.021-3.899
				c0-2.156,5.83-3.901,13.021-3.901C29.682,39.31,35.512,41.055,35.512,43.211z"/>
			<path fill="#CC0000" d="M32.765,43.211c0,1.702-4.603,3.075-10.28,3.075c-5.671,0-10.274-1.373-10.274-3.075
				c0-1.704,4.603-3.084,10.274-3.084C28.162,40.127,32.765,41.507,32.765,43.211z"/>
			<path fill="#CCCCCC" d="M30.146,43.211c0,1.263-3.431,2.288-7.662,2.288c-4.225,0-7.655-1.025-7.655-2.288
				c0-1.265,3.431-2.297,7.655-2.297C26.716,40.914,30.146,41.946,30.146,43.211z"/>
			<path fill="#CC0000" d="M26.617,43.211c0,0.684-1.849,1.238-4.132,1.238c-2.277,0-4.127-0.555-4.127-1.238s1.85-1.24,4.127-1.24
				C24.768,41.971,26.617,42.527,26.617,43.211z"/>
		</g>
		<g>
			<path fill="#D20606" d="M38.191,42.997c0,2.595-7.032,4.705-15.707,4.705c-8.669,0-15.702-2.11-15.702-4.705
				c0-2.596,7.033-4.706,15.702-4.706C31.159,38.291,38.191,40.401,38.191,42.997z"/>
			<path fill="#D2D2D2" d="M35.512,42.997c0,2.155-5.83,3.9-13.027,3.9c-7.191,0-13.021-1.745-13.021-3.9s5.83-3.9,13.021-3.9
				C29.682,39.097,35.512,40.842,35.512,42.997z"/>
			<path fill="#D20606" d="M32.765,42.997c0,1.702-4.603,3.075-10.28,3.075c-5.671,0-10.274-1.373-10.274-3.075
				c0-1.703,4.603-3.083,10.274-3.083C28.162,39.914,32.765,41.294,32.765,42.997z"/>
			<path fill="#D2D2D2" d="M30.146,42.997c0,1.264-3.431,2.289-7.662,2.289c-4.225,0-7.655-1.025-7.655-2.289
				c0-1.265,3.431-2.296,7.655-2.296C26.716,40.701,30.146,41.732,30.146,42.997z"/>
			<path fill="#D20606" d="M26.617,42.997c0,0.684-1.849,1.238-4.132,1.238c-2.277,0-4.127-0.555-4.127-1.238
				s1.85-1.239,4.127-1.239C24.768,41.758,26.617,42.313,26.617,42.997z"/>
		</g>
		<g>
			<path fill="#D80C0C" d="M38.191,42.783c0,2.596-7.032,4.706-15.707,4.706c-8.669,0-15.702-2.11-15.702-4.706
				c0-2.595,7.033-4.705,15.702-4.705C31.159,38.078,38.191,40.188,38.191,42.783z"/>
			<path fill="#D8D8D8" d="M35.512,42.783c0,2.156-5.83,3.901-13.027,3.901c-7.191,0-13.021-1.745-13.021-3.901
				c0-2.154,5.83-3.899,13.021-3.899C29.682,38.884,35.512,40.629,35.512,42.783z"/>
			<path fill="#D80C0C" d="M32.765,42.783c0,1.702-4.603,3.076-10.28,3.076c-5.671,0-10.274-1.374-10.274-3.076
				s4.603-3.082,10.274-3.082C28.162,39.701,32.765,41.081,32.765,42.783z"/>
			<path fill="#D8D8D8" d="M30.146,42.783c0,1.265-3.431,2.29-7.662,2.29c-4.225,0-7.655-1.025-7.655-2.29
				c0-1.264,3.431-2.295,7.655-2.295C26.716,40.488,30.146,41.52,30.146,42.783z"/>
			<path fill="#D80C0C" d="M26.617,42.783c0,0.684-1.849,1.239-4.132,1.239c-2.277,0-4.127-0.556-4.127-1.239
				s1.85-1.238,4.127-1.238C24.768,41.545,26.617,42.1,26.617,42.783z"/>
		</g>
		<g>
			<path fill="#DE1212" d="M38.191,42.569c0,2.597-7.032,4.706-15.707,4.706c-8.669,0-15.702-2.109-15.702-4.706
				c0-2.595,7.033-4.704,15.702-4.704C31.159,37.865,38.191,39.975,38.191,42.569z"/>
			<path fill="#DEDEDE" d="M35.512,42.569c0,2.157-5.83,3.902-13.027,3.902c-7.191,0-13.021-1.745-13.021-3.902
				c0-2.153,5.83-3.898,13.021-3.898C29.682,38.671,35.512,40.416,35.512,42.569z"/>
			<path fill="#DE1212" d="M32.765,42.569c0,1.702-4.603,3.076-10.28,3.076c-5.671,0-10.274-1.374-10.274-3.076
				c0-1.701,4.603-3.081,10.274-3.081C28.162,39.488,32.765,40.868,32.765,42.569z"/>
			<path fill="#DEDEDE" d="M30.146,42.569c0,1.266-3.431,2.291-7.662,2.291c-4.225,0-7.655-1.025-7.655-2.291
				c0-1.264,3.431-2.294,7.655-2.294C26.716,40.275,30.146,41.306,30.146,42.569z"/>
			<path fill="#DE1212" d="M26.617,42.569c0,0.684-1.849,1.239-4.132,1.239c-2.277,0-4.127-0.556-4.127-1.239
				s1.85-1.237,4.127-1.237C24.768,41.332,26.617,41.886,26.617,42.569z"/>
		</g>
		<g>
			<path fill="#E51919" d="M38.191,42.356c0,2.598-7.032,4.705-15.707,4.705c-8.669,0-15.702-2.107-15.702-4.705
				c0-2.596,7.033-4.703,15.702-4.703C31.159,37.653,38.191,39.761,38.191,42.356z"/>
			<path fill="#E5E5E5" d="M35.512,42.356c0,2.158-5.83,3.903-13.027,3.903c-7.191,0-13.021-1.745-13.021-3.903
				c0-2.152,5.83-3.897,13.021-3.897C29.682,38.459,35.512,40.204,35.512,42.356z"/>
			<path fill="#E51919" d="M32.765,42.356c0,1.702-4.603,3.075-10.28,3.075c-5.671,0-10.274-1.373-10.274-3.075
				c0-1.7,4.603-3.08,10.274-3.08C28.162,39.276,32.765,40.656,32.765,42.356z"/>
			<path fill="#E5E5E5" d="M30.146,42.356c0,1.267-3.431,2.292-7.662,2.292c-4.225,0-7.655-1.025-7.655-2.292
				c0-1.265,3.431-2.293,7.655-2.293C26.716,40.063,30.146,41.092,30.146,42.356z"/>
			<path fill="#E51919" d="M26.617,42.356c0,0.684-1.849,1.238-4.132,1.238c-2.277,0-4.127-0.555-4.127-1.238
				s1.85-1.236,4.127-1.236C24.768,41.12,26.617,41.673,26.617,42.356z"/>
		</g>
		<g>
			<path fill="#EB1F1F" d="M38.191,42.143c0,2.599-7.032,4.705-15.707,4.705c-8.669,0-15.702-2.106-15.702-4.705
				c0-2.596,7.033-4.702,15.702-4.702C31.159,37.44,38.191,39.547,38.191,42.143z"/>
			<path fill="#EBEBEB" d="M35.512,42.143c0,2.159-5.83,3.904-13.027,3.904c-7.191,0-13.021-1.745-13.021-3.904
				c0-2.151,5.83-3.896,13.021-3.896C29.682,38.246,35.512,39.991,35.512,42.143z"/>
			<path fill="#EB1F1F" d="M32.765,42.143c0,1.702-4.603,3.075-10.28,3.075c-5.671,0-10.274-1.373-10.274-3.075
				c0-1.699,4.603-3.079,10.274-3.079C28.162,39.063,32.765,40.443,32.765,42.143z"/>
			<path fill="#EBEBEB" d="M30.146,42.143c0,1.268-3.431,2.293-7.662,2.293c-4.225,0-7.655-1.025-7.655-2.293
				c0-1.265,3.431-2.292,7.655-2.292C26.716,39.851,30.146,40.878,30.146,42.143z"/>
			<path fill="#EB1F1F" d="M26.617,42.143c0,0.684-1.849,1.238-4.132,1.238c-2.277,0-4.127-0.555-4.127-1.238
				s1.85-1.235,4.127-1.235C24.768,40.907,26.617,41.459,26.617,42.143z"/>
		</g>
		<g>
			<path fill="#F12525" d="M38.191,41.929c0,2.6-7.032,4.706-15.707,4.706c-8.669,0-15.702-2.106-15.702-4.706
				c0-2.595,7.033-4.701,15.702-4.701C31.159,37.228,38.191,39.334,38.191,41.929z"/>
			<path fill="#F1F1F1" d="M35.512,41.929c0,2.16-5.83,3.905-13.027,3.905c-7.191,0-13.021-1.745-13.021-3.905
				c0-2.15,5.83-3.896,13.021-3.896C29.682,38.033,35.512,39.778,35.512,41.929z"/>
			<path fill="#F12525" d="M32.765,41.929c0,1.702-4.603,3.076-10.28,3.076c-5.671,0-10.274-1.374-10.274-3.076
				c0-1.698,4.603-3.078,10.274-3.078C28.162,38.851,32.765,40.23,32.765,41.929z"/>
			<path fill="#F1F1F1" d="M30.146,41.929c0,1.269-3.431,2.294-7.662,2.294c-4.225,0-7.655-1.025-7.655-2.294
				c0-1.264,3.431-2.291,7.655-2.291C26.716,39.638,30.146,40.665,30.146,41.929z"/>
			<path fill="#F12525" d="M26.617,41.929c0,0.684-1.849,1.239-4.132,1.239c-2.277,0-4.127-0.556-4.127-1.239
				s1.85-1.234,4.127-1.234C24.768,40.694,26.617,41.245,26.617,41.929z"/>
		</g>
		<g>
			<path fill="#F72B2B" d="M38.191,41.715c0,2.601-7.032,4.706-15.707,4.706c-8.669,0-15.702-2.105-15.702-4.706
				c0-2.595,7.033-4.7,15.702-4.7C31.159,37.015,38.191,39.12,38.191,41.715z"/>
			<path fill="#F7F7F7" d="M35.512,41.715c0,2.161-5.83,3.906-13.027,3.906c-7.191,0-13.021-1.745-13.021-3.906
				c0-2.149,5.83-3.895,13.021-3.895C29.682,37.82,35.512,39.565,35.512,41.715z"/>
			<path fill="#F72B2B" d="M32.765,41.715c0,1.702-4.603,3.076-10.28,3.076c-5.671,0-10.274-1.374-10.274-3.076
				c0-1.697,4.603-3.077,10.274-3.077C28.162,38.638,32.765,40.018,32.765,41.715z"/>
			<path fill="#F7F7F7" d="M30.146,41.715c0,1.27-3.431,2.295-7.662,2.295c-4.225,0-7.655-1.025-7.655-2.295
				c0-1.264,3.431-2.29,7.655-2.29C26.716,39.425,30.146,40.451,30.146,41.715z"/>
			<path fill="#F72B2B" d="M26.617,41.715c0,0.684-1.849,1.239-4.132,1.239c-2.277,0-4.127-0.556-4.127-1.239
				s1.85-1.233,4.127-1.233C24.768,40.481,26.617,41.031,26.617,41.715z"/>
		</g>
	</g>
	<g>
		<path fill="#FF0000" d="M38.191,41.715c0,2.601-7.032,4.706-15.707,4.706c-8.669,0-15.702-2.105-15.702-4.706
			c0-2.595,7.033-4.7,15.702-4.7C31.159,37.015,38.191,39.12,38.191,41.715z"/>
		<path fill="#FFFFFF" d="M35.512,41.715c0,2.161-5.83,3.906-13.027,3.906c-7.191,0-13.021-1.745-13.021-3.906
			c0-2.149,5.83-3.895,13.021-3.895C29.682,37.82,35.512,39.565,35.512,41.715z"/>
		<path fill="#FF0000" d="M32.765,41.715c0,1.702-4.603,3.076-10.28,3.076c-5.671,0-10.274-1.374-10.274-3.076
			c0-1.697,4.603-3.077,10.274-3.077C28.162,38.638,32.765,40.018,32.765,41.715z"/>
		<path fill="#FFFFFF" d="M30.146,41.715c0,1.27-3.431,2.295-7.662,2.295c-4.225,0-7.655-1.025-7.655-2.295
			c0-1.264,3.431-2.29,7.655-2.29C26.716,39.425,30.146,40.451,30.146,41.715z"/>
		<path fill="#FF0000" d="M26.617,41.715c0,0.684-1.849,1.239-4.132,1.239c-2.277,0-4.127-0.556-4.127-1.239s1.85-1.233,4.127-1.233
			C24.768,40.481,26.617,41.031,26.617,41.715z"/>
	</g>
	<g opacity="0.65">
		<defs>
			<filter id="Adobe_OpacityMaskFilter" filterUnits="userSpaceOnUse" x="6.783" y="37.015" width="31.408" height="9.406">
				<feFlood  style="flood-color:white;flood-opacity:1" result="back"/>
				<feBlend  in="SourceGraphic" in2="back" mode="normal"/>
			</filter>
		</defs>
		<mask maskUnits="userSpaceOnUse" x="6.783" y="37.015" width="31.408" height="9.406" id="SVGID_1_">
			<g filter="url(#Adobe_OpacityMaskFilter)">
				<defs>
					<filter id="Adobe_OpacityMaskFilter_1_" filterUnits="userSpaceOnUse" x="6.783" y="37.015" width="31.408" height="9.406">
						<feFlood  style="flood-color:white;flood-opacity:1" result="back"/>
						<feBlend  in="SourceGraphic" in2="back" mode="normal"/>
					</filter>
				</defs>
				<mask maskUnits="userSpaceOnUse" x="6.783" y="37.015" width="31.408" height="9.406" id="SVGID_1_">
					<g filter="url(#Adobe_OpacityMaskFilter_1_)">
					</g>
				</mask>
				<linearGradient id="SVGID_2_" gradientUnits="userSpaceOnUse" x1="22.4878" y1="46.4209" x2="22.4878" y2="37.0146">
					<stop  offset="0" style="stop-color:#000000"/>
					<stop  offset="0.1624" style="stop-color:#030303"/>
					<stop  offset="0.2928" style="stop-color:#0D0D0D"/>
					<stop  offset="0.4122" style="stop-color:#1E1E1E"/>
					<stop  offset="0.525" style="stop-color:#363636"/>
					<stop  offset="0.6332" style="stop-color:#555555"/>
					<stop  offset="0.7379" style="stop-color:#7B7B7B"/>
					<stop  offset="0.8399" style="stop-color:#A7A7A7"/>
					<stop  offset="0.9371" style="stop-color:#DADADA"/>
					<stop  offset="1" style="stop-color:#FFFFFF"/>
				</linearGradient>
				<path mask="url(#SVGID_1_)" fill="url(#SVGID_2_)" d="M38.191,41.715c0,2.601-7.032,4.706-15.707,4.706
					c-8.669,0-15.702-2.105-15.702-4.706c0-2.595,7.033-4.7,15.702-4.7C31.159,37.015,38.191,39.12,38.191,41.715z"/>
			</g>
		</mask>
		<linearGradient id="SVGID_3_" gradientUnits="userSpaceOnUse" x1="22.4878" y1="46.4209" x2="22.4878" y2="37.0146">
			<stop  offset="0" style="stop-color:#FDFDFE"/>
			<stop  offset="0.9104" style="stop-color:#FDFDFE"/>
			<stop  offset="1" style="stop-color:#FDFDFE"/>
		</linearGradient>
		<path fill="url(#SVGID_3_)" d="M38.191,41.715c0,2.601-7.032,4.706-15.707,4.706c-8.669,0-15.702-2.105-15.702-4.706
			c0-2.595,7.033-4.7,15.702-4.7C31.159,37.015,38.191,39.12,38.191,41.715z"/>
		<defs>
			<filter id="Adobe_OpacityMaskFilter_2_" filterUnits="userSpaceOnUse" x="9.464" y="37.82" width="26.048" height="7.801">
				<feFlood  style="flood-color:white;flood-opacity:1" result="back"/>
				<feBlend  in="SourceGraphic" in2="back" mode="normal"/>
			</filter>
		</defs>
		<mask maskUnits="userSpaceOnUse" x="9.464" y="37.82" width="26.048" height="7.801" id="SVGID_4_">
			<g filter="url(#Adobe_OpacityMaskFilter_2_)">
				<defs>
					<filter id="Adobe_OpacityMaskFilter_3_" filterUnits="userSpaceOnUse" x="9.464" y="37.82" width="26.048" height="7.801">
						<feFlood  style="flood-color:white;flood-opacity:1" result="back"/>
						<feBlend  in="SourceGraphic" in2="back" mode="normal"/>
					</filter>
				</defs>
				<mask maskUnits="userSpaceOnUse" x="9.464" y="37.82" width="26.048" height="7.801" id="SVGID_4_">
					<g filter="url(#Adobe_OpacityMaskFilter_3_)">
					</g>
				</mask>
				<linearGradient id="SVGID_5_" gradientUnits="userSpaceOnUse" x1="22.4878" y1="45.6211" x2="22.4878" y2="37.8203">
					<stop  offset="0" style="stop-color:#000000"/>
					<stop  offset="0.1624" style="stop-color:#030303"/>
					<stop  offset="0.2928" style="stop-color:#0D0D0D"/>
					<stop  offset="0.4122" style="stop-color:#1E1E1E"/>
					<stop  offset="0.525" style="stop-color:#363636"/>
					<stop  offset="0.6332" style="stop-color:#555555"/>
					<stop  offset="0.7379" style="stop-color:#7B7B7B"/>
					<stop  offset="0.8399" style="stop-color:#A7A7A7"/>
					<stop  offset="0.9371" style="stop-color:#DADADA"/>
					<stop  offset="1" style="stop-color:#FFFFFF"/>
				</linearGradient>
				<path mask="url(#SVGID_4_)" fill="url(#SVGID_5_)" d="M35.512,41.715c0,2.161-5.83,3.906-13.027,3.906
					c-7.191,0-13.021-1.745-13.021-3.906c0-2.149,5.83-3.895,13.021-3.895C29.682,37.82,35.512,39.565,35.512,41.715z"/>
			</g>
		</mask>
		<linearGradient id="SVGID_6_" gradientUnits="userSpaceOnUse" x1="22.4878" y1="45.6211" x2="22.4878" y2="37.8203">
			<stop  offset="0" style="stop-color:#FDFDFE"/>
			<stop  offset="0.9104" style="stop-color:#FDFDFE"/>
			<stop  offset="1" style="stop-color:#FDFDFE"/>
		</linearGradient>
		<path fill="url(#SVGID_6_)" d="M35.512,41.715c0,2.161-5.83,3.906-13.027,3.906c-7.191,0-13.021-1.745-13.021-3.906
			c0-2.149,5.83-3.895,13.021-3.895C29.682,37.82,35.512,39.565,35.512,41.715z"/>
		<defs>
			<filter id="Adobe_OpacityMaskFilter_4_" filterUnits="userSpaceOnUse" x="12.211" y="38.638" width="20.554" height="6.153">
				<feFlood  style="flood-color:white;flood-opacity:1" result="back"/>
				<feBlend  in="SourceGraphic" in2="back" mode="normal"/>
			</filter>
		</defs>
		<mask maskUnits="userSpaceOnUse" x="12.211" y="38.638" width="20.554" height="6.153" id="SVGID_7_">
			<g filter="url(#Adobe_OpacityMaskFilter_4_)">
				<defs>
					<filter id="Adobe_OpacityMaskFilter_5_" filterUnits="userSpaceOnUse" x="12.211" y="38.638" width="20.554" height="6.153">
						<feFlood  style="flood-color:white;flood-opacity:1" result="back"/>
						<feBlend  in="SourceGraphic" in2="back" mode="normal"/>
					</filter>
				</defs>
				<mask maskUnits="userSpaceOnUse" x="12.211" y="38.638" width="20.554" height="6.153" id="SVGID_7_">
					<g filter="url(#Adobe_OpacityMaskFilter_5_)">
					</g>
				</mask>
				<linearGradient id="SVGID_8_" gradientUnits="userSpaceOnUse" x1="22.4878" y1="44.791" x2="22.4878" y2="38.6377">
					<stop  offset="0" style="stop-color:#000000"/>
					<stop  offset="0.1624" style="stop-color:#030303"/>
					<stop  offset="0.2928" style="stop-color:#0D0D0D"/>
					<stop  offset="0.4122" style="stop-color:#1E1E1E"/>
					<stop  offset="0.525" style="stop-color:#363636"/>
					<stop  offset="0.6332" style="stop-color:#555555"/>
					<stop  offset="0.7379" style="stop-color:#7B7B7B"/>
					<stop  offset="0.8399" style="stop-color:#A7A7A7"/>
					<stop  offset="0.9371" style="stop-color:#DADADA"/>
					<stop  offset="1" style="stop-color:#FFFFFF"/>
				</linearGradient>
				<path mask="url(#SVGID_7_)" fill="url(#SVGID_8_)" d="M32.765,41.715c0,1.702-4.603,3.076-10.28,3.076
					c-5.671,0-10.274-1.374-10.274-3.076c0-1.697,4.603-3.077,10.274-3.077C28.162,38.638,32.765,40.018,32.765,41.715z"/>
			</g>
		</mask>
		<linearGradient id="SVGID_9_" gradientUnits="userSpaceOnUse" x1="22.4878" y1="44.791" x2="22.4878" y2="38.6377">
			<stop  offset="0" style="stop-color:#FDFDFE"/>
			<stop  offset="0.9104" style="stop-color:#FDFDFE"/>
			<stop  offset="1" style="stop-color:#FDFDFE"/>
		</linearGradient>
		<path fill="url(#SVGID_9_)" d="M32.765,41.715c0,1.702-4.603,3.076-10.28,3.076c-5.671,0-10.274-1.374-10.274-3.076
			c0-1.697,4.603-3.077,10.274-3.077C28.162,38.638,32.765,40.018,32.765,41.715z"/>
		<defs>
			<filter id="Adobe_OpacityMaskFilter_6_" filterUnits="userSpaceOnUse" x="14.83" y="39.425" width="15.317" height="4.585">
				<feFlood  style="flood-color:white;flood-opacity:1" result="back"/>
				<feBlend  in="SourceGraphic" in2="back" mode="normal"/>
			</filter>
		</defs>
		<mask maskUnits="userSpaceOnUse" x="14.83" y="39.425" width="15.317" height="4.585" id="SVGID_10_">
			<g filter="url(#Adobe_OpacityMaskFilter_6_)">
				<defs>
					<filter id="Adobe_OpacityMaskFilter_7_" filterUnits="userSpaceOnUse" x="14.83" y="39.425" width="15.317" height="4.585">
						<feFlood  style="flood-color:white;flood-opacity:1" result="back"/>
						<feBlend  in="SourceGraphic" in2="back" mode="normal"/>
					</filter>
				</defs>
				<mask maskUnits="userSpaceOnUse" x="14.83" y="39.425" width="15.317" height="4.585" id="SVGID_10_">
					<g filter="url(#Adobe_OpacityMaskFilter_7_)">
					</g>
				</mask>
				<linearGradient id="SVGID_11_" gradientUnits="userSpaceOnUse" x1="22.4883" y1="44.0098" x2="22.4883" y2="39.4248">
					<stop  offset="0" style="stop-color:#000000"/>
					<stop  offset="0.1624" style="stop-color:#030303"/>
					<stop  offset="0.2928" style="stop-color:#0D0D0D"/>
					<stop  offset="0.4122" style="stop-color:#1E1E1E"/>
					<stop  offset="0.525" style="stop-color:#363636"/>
					<stop  offset="0.6332" style="stop-color:#555555"/>
					<stop  offset="0.7379" style="stop-color:#7B7B7B"/>
					<stop  offset="0.8399" style="stop-color:#A7A7A7"/>
					<stop  offset="0.9371" style="stop-color:#DADADA"/>
					<stop  offset="1" style="stop-color:#FFFFFF"/>
				</linearGradient>
				<path mask="url(#SVGID_10_)" fill="url(#SVGID_11_)" d="M30.146,41.715c0,1.27-3.431,2.295-7.662,2.295
					c-4.225,0-7.655-1.025-7.655-2.295c0-1.264,3.431-2.29,7.655-2.29C26.716,39.425,30.146,40.451,30.146,41.715z"/>
			</g>
		</mask>
		<linearGradient id="SVGID_12_" gradientUnits="userSpaceOnUse" x1="22.4883" y1="44.0098" x2="22.4883" y2="39.4248">
			<stop  offset="0" style="stop-color:#FDFDFE"/>
			<stop  offset="0.9104" style="stop-color:#FDFDFE"/>
			<stop  offset="1" style="stop-color:#FDFDFE"/>
		</linearGradient>
		<path fill="url(#SVGID_12_)" d="M30.146,41.715c0,1.27-3.431,2.295-7.662,2.295c-4.225,0-7.655-1.025-7.655-2.295
			c0-1.264,3.431-2.29,7.655-2.29C26.716,39.425,30.146,40.451,30.146,41.715z"/>
		<defs>
			<filter id="Adobe_OpacityMaskFilter_8_" filterUnits="userSpaceOnUse" x="18.358" y="40.481" width="8.259" height="2.473">
				<feFlood  style="flood-color:white;flood-opacity:1" result="back"/>
				<feBlend  in="SourceGraphic" in2="back" mode="normal"/>
			</filter>
		</defs>
		<mask maskUnits="userSpaceOnUse" x="18.358" y="40.481" width="8.259" height="2.473" id="SVGID_13_">
			<g filter="url(#Adobe_OpacityMaskFilter_8_)">
				<defs>
					<filter id="Adobe_OpacityMaskFilter_9_" filterUnits="userSpaceOnUse" x="18.358" y="40.481" width="8.259" height="2.473">
						<feFlood  style="flood-color:white;flood-opacity:1" result="back"/>
						<feBlend  in="SourceGraphic" in2="back" mode="normal"/>
					</filter>
				</defs>
				<mask maskUnits="userSpaceOnUse" x="18.358" y="40.481" width="8.259" height="2.473" id="SVGID_13_">
					<g filter="url(#Adobe_OpacityMaskFilter_9_)">
					</g>
				</mask>
				<linearGradient id="SVGID_14_" gradientUnits="userSpaceOnUse" x1="22.4878" y1="42.9541" x2="22.4878" y2="40.4814">
					<stop  offset="0" style="stop-color:#000000"/>
					<stop  offset="0.1624" style="stop-color:#030303"/>
					<stop  offset="0.2928" style="stop-color:#0D0D0D"/>
					<stop  offset="0.4122" style="stop-color:#1E1E1E"/>
					<stop  offset="0.525" style="stop-color:#363636"/>
					<stop  offset="0.6332" style="stop-color:#555555"/>
					<stop  offset="0.7379" style="stop-color:#7B7B7B"/>
					<stop  offset="0.8399" style="stop-color:#A7A7A7"/>
					<stop  offset="0.9371" style="stop-color:#DADADA"/>
					<stop  offset="1" style="stop-color:#FFFFFF"/>
				</linearGradient>
				<path mask="url(#SVGID_13_)" fill="url(#SVGID_14_)" d="M26.617,41.715c0,0.684-1.849,1.239-4.132,1.239
					c-2.277,0-4.127-0.556-4.127-1.239s1.85-1.233,4.127-1.233C24.768,40.481,26.617,41.031,26.617,41.715z"/>
			</g>
		</mask>
		<linearGradient id="SVGID_15_" gradientUnits="userSpaceOnUse" x1="22.4878" y1="42.9541" x2="22.4878" y2="40.4814">
			<stop  offset="0" style="stop-color:#FDFDFE"/>
			<stop  offset="0.9104" style="stop-color:#FDFDFE"/>
			<stop  offset="1" style="stop-color:#FDFDFE"/>
		</linearGradient>
		<path fill="url(#SVGID_15_)" d="M26.617,41.715c0,0.684-1.849,1.239-4.132,1.239c-2.277,0-4.127-0.556-4.127-1.239
			s1.85-1.233,4.127-1.233C24.768,40.481,26.617,41.031,26.617,41.715z"/>
	</g>
	<g opacity="0.4">
		<defs>
			<filter id="Adobe_OpacityMaskFilter_10_" filterUnits="userSpaceOnUse" x="6.783" y="37.015" width="31.408" height="9.406">
				<feFlood  style="flood-color:white;flood-opacity:1" result="back"/>
				<feBlend  in="SourceGraphic" in2="back" mode="normal"/>
			</filter>
		</defs>
		<mask maskUnits="userSpaceOnUse" x="6.783" y="37.015" width="31.408" height="9.406" id="SVGID_16_">
			<g filter="url(#Adobe_OpacityMaskFilter_10_)">
				<defs>
					<filter id="Adobe_OpacityMaskFilter_11_" filterUnits="userSpaceOnUse" x="6.783" y="37.015" width="31.408" height="9.406">
						<feFlood  style="flood-color:white;flood-opacity:1" result="back"/>
						<feBlend  in="SourceGraphic" in2="back" mode="normal"/>
					</filter>
				</defs>
				<mask maskUnits="userSpaceOnUse" x="6.783" y="37.015" width="31.408" height="9.406" id="SVGID_16_">
					<g filter="url(#Adobe_OpacityMaskFilter_11_)">
					</g>
				</mask>
				<linearGradient id="SVGID_17_" gradientUnits="userSpaceOnUse" x1="18.0645" y1="34.0547" x2="26.9121" y2="49.3793">
					<stop  offset="0" style="stop-color:#000000"/>
					<stop  offset="0.3052" style="stop-color:#020202"/>
					<stop  offset="0.4426" style="stop-color:#090909"/>
					<stop  offset="0.5464" style="stop-color:#161616"/>
					<stop  offset="0.6333" style="stop-color:#282828"/>
					<stop  offset="0.7097" style="stop-color:#404040"/>
					<stop  offset="0.7787" style="stop-color:#5D5D5D"/>
					<stop  offset="0.8421" style="stop-color:#7F7F7F"/>
					<stop  offset="0.9012" style="stop-color:#A7A7A7"/>
					<stop  offset="0.9546" style="stop-color:#D3D3D3"/>
					<stop  offset="1" style="stop-color:#FFFFFF"/>
				</linearGradient>
				<path mask="url(#SVGID_16_)" fill="url(#SVGID_17_)" d="M22.485,37.038c8.626,0,15.639,2.101,15.639,4.677
					c0,2.582-7.013,4.683-15.639,4.683c-8.62,0-15.634-2.101-15.634-4.683C6.851,39.139,13.865,37.038,22.485,37.038 M22.485,37.015
					c-8.669,0-15.702,2.105-15.702,4.7c0,2.601,7.033,4.706,15.702,4.706c8.674,0,15.707-2.105,15.707-4.706
					C38.191,39.12,31.159,37.015,22.485,37.015L22.485,37.015z"/>
			</g>
		</mask>
		<linearGradient id="SVGID_18_" gradientUnits="userSpaceOnUse" x1="18.0645" y1="34.0547" x2="26.9121" y2="49.3793">
			<stop  offset="0" style="stop-color:#FDFDFE"/>
			<stop  offset="0.853" style="stop-color:#FDFDFE"/>
			<stop  offset="1" style="stop-color:#FDFDFE"/>
		</linearGradient>
		<path fill="url(#SVGID_18_)" d="M22.485,37.038c8.626,0,15.639,2.101,15.639,4.677c0,2.582-7.013,4.683-15.639,4.683
			c-8.62,0-15.634-2.101-15.634-4.683C6.851,39.139,13.865,37.038,22.485,37.038 M22.485,37.015c-8.669,0-15.702,2.105-15.702,4.7
			c0,2.601,7.033,4.706,15.702,4.706c8.674,0,15.707-2.105,15.707-4.706C38.191,39.12,31.159,37.015,22.485,37.015L22.485,37.015z"
			/>
		<defs>
			<filter id="Adobe_OpacityMaskFilter_12_" filterUnits="userSpaceOnUse" x="9.464" y="37.82" width="26.048" height="7.801">
				<feFlood  style="flood-color:white;flood-opacity:1" result="back"/>
				<feBlend  in="SourceGraphic" in2="back" mode="normal"/>
			</filter>
		</defs>
		<mask maskUnits="userSpaceOnUse" x="9.464" y="37.82" width="26.048" height="7.801" id="SVGID_19_">
			<g filter="url(#Adobe_OpacityMaskFilter_12_)">
				<defs>
					<filter id="Adobe_OpacityMaskFilter_13_" filterUnits="userSpaceOnUse" x="9.464" y="37.82" width="26.048" height="7.801">
						<feFlood  style="flood-color:white;flood-opacity:1" result="back"/>
						<feBlend  in="SourceGraphic" in2="back" mode="normal"/>
					</filter>
				</defs>
				<mask maskUnits="userSpaceOnUse" x="9.464" y="37.82" width="26.048" height="7.801" id="SVGID_19_">
					<g filter="url(#Adobe_OpacityMaskFilter_13_)">
					</g>
				</mask>
				<linearGradient id="SVGID_20_" gradientUnits="userSpaceOnUse" x1="18.8198" y1="35.3643" x2="26.1577" y2="48.0739">
					<stop  offset="0" style="stop-color:#000000"/>
					<stop  offset="0.3052" style="stop-color:#020202"/>
					<stop  offset="0.4426" style="stop-color:#090909"/>
					<stop  offset="0.5464" style="stop-color:#161616"/>
					<stop  offset="0.6333" style="stop-color:#282828"/>
					<stop  offset="0.7097" style="stop-color:#404040"/>
					<stop  offset="0.7787" style="stop-color:#5D5D5D"/>
					<stop  offset="0.8421" style="stop-color:#7F7F7F"/>
					<stop  offset="0.9012" style="stop-color:#A7A7A7"/>
					<stop  offset="0.9546" style="stop-color:#D3D3D3"/>
					<stop  offset="1" style="stop-color:#FFFFFF"/>
				</linearGradient>
				<path mask="url(#SVGID_19_)" fill="url(#SVGID_20_)" d="M22.485,37.845c7.142,0,12.954,1.733,12.954,3.87
					c0,2.136-5.812,3.882-12.954,3.882c-7.137,0-12.948-1.746-12.948-3.882C9.537,39.578,15.348,37.845,22.485,37.845 M22.485,37.82
					c-7.191,0-13.021,1.745-13.021,3.895c0,2.161,5.83,3.906,13.021,3.906c7.197,0,13.027-1.745,13.027-3.906
					C35.512,39.565,29.682,37.82,22.485,37.82L22.485,37.82z"/>
			</g>
		</mask>
		<linearGradient id="SVGID_21_" gradientUnits="userSpaceOnUse" x1="18.8198" y1="35.3643" x2="26.1577" y2="48.0739">
			<stop  offset="0" style="stop-color:#FDFDFE"/>
			<stop  offset="0.853" style="stop-color:#FDFDFE"/>
			<stop  offset="1" style="stop-color:#FDFDFE"/>
		</linearGradient>
		<path fill="url(#SVGID_21_)" d="M22.485,37.845c7.142,0,12.954,1.733,12.954,3.87c0,2.136-5.812,3.882-12.954,3.882
			c-7.137,0-12.948-1.746-12.948-3.882C9.537,39.578,15.348,37.845,22.485,37.845 M22.485,37.82c-7.191,0-13.021,1.745-13.021,3.895
			c0,2.161,5.83,3.906,13.021,3.906c7.197,0,13.027-1.745,13.027-3.906C35.512,39.565,29.682,37.82,22.485,37.82L22.485,37.82z"/>
		<defs>
			<filter id="Adobe_OpacityMaskFilter_14_" filterUnits="userSpaceOnUse" x="12.211" y="38.638" width="20.554" height="6.153">
				<feFlood  style="flood-color:white;flood-opacity:1" result="back"/>
				<feBlend  in="SourceGraphic" in2="back" mode="normal"/>
			</filter>
		</defs>
		<mask maskUnits="userSpaceOnUse" x="12.211" y="38.638" width="20.554" height="6.153" id="SVGID_22_">
			<g filter="url(#Adobe_OpacityMaskFilter_14_)">
				<defs>
					<filter id="Adobe_OpacityMaskFilter_15_" filterUnits="userSpaceOnUse" x="12.211" y="38.638" width="20.554" height="6.153">
						<feFlood  style="flood-color:white;flood-opacity:1" result="back"/>
						<feBlend  in="SourceGraphic" in2="back" mode="normal"/>
					</filter>
				</defs>
				<mask maskUnits="userSpaceOnUse" x="12.211" y="38.638" width="20.554" height="6.153" id="SVGID_22_">
					<g filter="url(#Adobe_OpacityMaskFilter_15_)">
					</g>
				</mask>
				<linearGradient id="SVGID_23_" gradientUnits="userSpaceOnUse" x1="19.5938" y1="36.7021" x2="25.3833" y2="46.7299">
					<stop  offset="0" style="stop-color:#000000"/>
					<stop  offset="0.3052" style="stop-color:#020202"/>
					<stop  offset="0.4426" style="stop-color:#090909"/>
					<stop  offset="0.5464" style="stop-color:#161616"/>
					<stop  offset="0.6333" style="stop-color:#282828"/>
					<stop  offset="0.7097" style="stop-color:#404040"/>
					<stop  offset="0.7787" style="stop-color:#5D5D5D"/>
					<stop  offset="0.8421" style="stop-color:#7F7F7F"/>
					<stop  offset="0.9012" style="stop-color:#A7A7A7"/>
					<stop  offset="0.9546" style="stop-color:#D3D3D3"/>
					<stop  offset="1" style="stop-color:#FFFFFF"/>
				</linearGradient>
				<path mask="url(#SVGID_22_)" fill="url(#SVGID_23_)" d="M22.485,38.662c5.627,0,10.212,1.368,10.212,3.053
					s-4.585,3.053-10.212,3.053c-5.629,0-10.207-1.368-10.207-3.053S16.856,38.662,22.485,38.662 M22.485,38.638
					c-5.671,0-10.274,1.38-10.274,3.077c0,1.702,4.603,3.076,10.274,3.076c5.677,0,10.28-1.374,10.28-3.076
					C32.765,40.018,28.162,38.638,22.485,38.638L22.485,38.638z"/>
			</g>
		</mask>
		<linearGradient id="SVGID_24_" gradientUnits="userSpaceOnUse" x1="19.5938" y1="36.7021" x2="25.3833" y2="46.7299">
			<stop  offset="0" style="stop-color:#FDFDFE"/>
			<stop  offset="0.853" style="stop-color:#FDFDFE"/>
			<stop  offset="1" style="stop-color:#FDFDFE"/>
		</linearGradient>
		<path fill="url(#SVGID_24_)" d="M22.485,38.662c5.627,0,10.212,1.368,10.212,3.053s-4.585,3.053-10.212,3.053
			c-5.629,0-10.207-1.368-10.207-3.053S16.856,38.662,22.485,38.662 M22.485,38.638c-5.671,0-10.274,1.38-10.274,3.077
			c0,1.702,4.603,3.076,10.274,3.076c5.677,0,10.28-1.374,10.28-3.076C32.765,40.018,28.162,38.638,22.485,38.638L22.485,38.638z"/>
		<defs>
			<filter id="Adobe_OpacityMaskFilter_16_" filterUnits="userSpaceOnUse" x="14.83" y="39.425" width="15.317" height="4.585">
				<feFlood  style="flood-color:white;flood-opacity:1" result="back"/>
				<feBlend  in="SourceGraphic" in2="back" mode="normal"/>
			</filter>
		</defs>
		<mask maskUnits="userSpaceOnUse" x="14.83" y="39.425" width="15.317" height="4.585" id="SVGID_25_">
			<g filter="url(#Adobe_OpacityMaskFilter_16_)">
				<defs>
					<filter id="Adobe_OpacityMaskFilter_17_" filterUnits="userSpaceOnUse" x="14.83" y="39.425" width="15.317" height="4.585">
						<feFlood  style="flood-color:white;flood-opacity:1" result="back"/>
						<feBlend  in="SourceGraphic" in2="back" mode="normal"/>
					</filter>
				</defs>
				<mask maskUnits="userSpaceOnUse" x="14.83" y="39.425" width="15.317" height="4.585" id="SVGID_25_">
					<g filter="url(#Adobe_OpacityMaskFilter_17_)">
					</g>
				</mask>
				<linearGradient id="SVGID_26_" gradientUnits="userSpaceOnUse" x1="20.332" y1="37.9805" x2="24.646" y2="45.4525">
					<stop  offset="0" style="stop-color:#000000"/>
					<stop  offset="0.3052" style="stop-color:#020202"/>
					<stop  offset="0.4426" style="stop-color:#090909"/>
					<stop  offset="0.5464" style="stop-color:#161616"/>
					<stop  offset="0.6333" style="stop-color:#282828"/>
					<stop  offset="0.7097" style="stop-color:#404040"/>
					<stop  offset="0.7787" style="stop-color:#5D5D5D"/>
					<stop  offset="0.8421" style="stop-color:#7F7F7F"/>
					<stop  offset="0.9012" style="stop-color:#A7A7A7"/>
					<stop  offset="0.9546" style="stop-color:#D3D3D3"/>
					<stop  offset="1" style="stop-color:#FFFFFF"/>
				</linearGradient>
				<path mask="url(#SVGID_25_)" fill="url(#SVGID_26_)" d="M22.485,39.45c4.188,0,7.594,1.02,7.594,2.265
					c0,1.257-3.406,2.271-7.594,2.271c-4.182,0-7.588-1.014-7.588-2.271C14.897,40.47,18.303,39.45,22.485,39.45 M22.485,39.425
					c-4.225,0-7.655,1.026-7.655,2.29c0,1.27,3.431,2.295,7.655,2.295c4.231,0,7.662-1.025,7.662-2.295
					C30.146,40.451,26.716,39.425,22.485,39.425L22.485,39.425z"/>
			</g>
		</mask>
		<linearGradient id="SVGID_27_" gradientUnits="userSpaceOnUse" x1="20.332" y1="37.9805" x2="24.646" y2="45.4525">
			<stop  offset="0" style="stop-color:#FDFDFE"/>
			<stop  offset="0.853" style="stop-color:#FDFDFE"/>
			<stop  offset="1" style="stop-color:#FDFDFE"/>
		</linearGradient>
		<path fill="url(#SVGID_27_)" d="M22.485,39.45c4.188,0,7.594,1.02,7.594,2.265c0,1.257-3.406,2.271-7.594,2.271
			c-4.182,0-7.588-1.014-7.588-2.271C14.897,40.47,18.303,39.45,22.485,39.45 M22.485,39.425c-4.225,0-7.655,1.026-7.655,2.29
			c0,1.27,3.431,2.295,7.655,2.295c4.231,0,7.662-1.025,7.662-2.295C30.146,40.451,26.716,39.425,22.485,39.425L22.485,39.425z"/>
		<defs>
			<filter id="Adobe_OpacityMaskFilter_18_" filterUnits="userSpaceOnUse" x="18.358" y="40.481" width="8.259" height="2.473">
				<feFlood  style="flood-color:white;flood-opacity:1" result="back"/>
				<feBlend  in="SourceGraphic" in2="back" mode="normal"/>
			</filter>
		</defs>
		<mask maskUnits="userSpaceOnUse" x="18.358" y="40.481" width="8.259" height="2.473" id="SVGID_28_">
			<g filter="url(#Adobe_OpacityMaskFilter_18_)">
				<defs>
					<filter id="Adobe_OpacityMaskFilter_19_" filterUnits="userSpaceOnUse" x="18.358" y="40.481" width="8.259" height="2.473">
						<feFlood  style="flood-color:white;flood-opacity:1" result="back"/>
						<feBlend  in="SourceGraphic" in2="back" mode="normal"/>
					</filter>
				</defs>
				<mask maskUnits="userSpaceOnUse" x="18.358" y="40.481" width="8.259" height="2.473" id="SVGID_28_">
					<g filter="url(#Adobe_OpacityMaskFilter_19_)">
					</g>
				</mask>
				<linearGradient id="SVGID_29_" gradientUnits="userSpaceOnUse" x1="21.3247" y1="39.7002" x2="23.6519" y2="43.7309">
					<stop  offset="0" style="stop-color:#000000"/>
					<stop  offset="0.3052" style="stop-color:#020202"/>
					<stop  offset="0.4426" style="stop-color:#090909"/>
					<stop  offset="0.5464" style="stop-color:#161616"/>
					<stop  offset="0.6333" style="stop-color:#282828"/>
					<stop  offset="0.7097" style="stop-color:#404040"/>
					<stop  offset="0.7787" style="stop-color:#5D5D5D"/>
					<stop  offset="0.8421" style="stop-color:#7F7F7F"/>
					<stop  offset="0.9012" style="stop-color:#A7A7A7"/>
					<stop  offset="0.9546" style="stop-color:#D3D3D3"/>
					<stop  offset="1" style="stop-color:#FFFFFF"/>
				</linearGradient>
				<path mask="url(#SVGID_28_)" fill="url(#SVGID_29_)" d="M22.485,40.506c2.24,0,4.06,0.543,4.06,1.209
					c0,0.671-1.82,1.214-4.06,1.214c-2.234,0-4.054-0.543-4.054-1.214C18.431,41.049,20.25,40.506,22.485,40.506 M22.485,40.481
					c-2.277,0-4.127,0.55-4.127,1.233s1.85,1.239,4.127,1.239c2.283,0,4.132-0.556,4.132-1.239S24.768,40.481,22.485,40.481
					L22.485,40.481z"/>
			</g>
		</mask>
		<linearGradient id="SVGID_30_" gradientUnits="userSpaceOnUse" x1="21.3247" y1="39.7002" x2="23.6519" y2="43.7309">
			<stop  offset="0" style="stop-color:#FDFDFE"/>
			<stop  offset="0.853" style="stop-color:#FDFDFE"/>
			<stop  offset="1" style="stop-color:#FDFDFE"/>
		</linearGradient>
		<path fill="url(#SVGID_30_)" d="M22.485,40.506c2.24,0,4.06,0.543,4.06,1.209c0,0.671-1.82,1.214-4.06,1.214
			c-2.234,0-4.054-0.543-4.054-1.214C18.431,41.049,20.25,40.506,22.485,40.506 M22.485,40.481c-2.277,0-4.127,0.55-4.127,1.233
			s1.85,1.239,4.127,1.239c2.283,0,4.132-0.556,4.132-1.239S24.768,40.481,22.485,40.481L22.485,40.481z"/>
	</g>
</g>
<g>
	<g opacity="0.5">
		<path opacity="0" fill="#272F2F" d="M28.095,41.642c0,0.335-2.454,0.61-5.469,0.61c-3.022,0-5.47-0.275-5.47-0.61
			c0-0.33,2.447-0.605,5.47-0.605C25.641,41.036,28.095,41.312,28.095,41.642z"/>
		<path opacity="0.0476" fill="#272F2F" d="M27.933,41.63c0,0.325-2.381,0.593-5.307,0.593c-2.933,0-5.308-0.268-5.308-0.593
			c0-0.32,2.375-0.588,5.308-0.588C25.551,41.042,27.933,41.31,27.933,41.63z"/>
		<path opacity="0.0952" fill="#272F2F" d="M27.771,41.618c0,0.314-2.309,0.574-5.145,0.574c-2.843,0-5.146-0.26-5.146-0.574
			c0-0.311,2.303-0.569,5.146-0.569C25.461,41.049,27.771,41.308,27.771,41.618z"/>
		<path opacity="0.1429" fill="#272F2F" d="M27.608,41.606c0,0.305-2.236,0.557-4.983,0.557c-2.754,0-4.984-0.252-4.984-0.557
			c0-0.301,2.23-0.552,4.984-0.552C25.372,41.055,27.608,41.306,27.608,41.606z"/>
		<path opacity="0.1905" fill="#272F2F" d="M27.446,41.595c0,0.295-2.164,0.538-4.821,0.538c-2.664,0-4.822-0.243-4.822-0.538
			c0-0.291,2.158-0.534,4.822-0.534C25.282,41.061,27.446,41.304,27.446,41.595z"/>
		<path opacity="0.2381" fill="#272F2F" d="M27.284,41.583c0,0.285-2.091,0.521-4.659,0.521c-2.575,0-4.66-0.235-4.66-0.521
			c0-0.281,2.085-0.517,4.66-0.517C25.193,41.066,27.284,41.302,27.284,41.583z"/>
		<path opacity="0.2857" fill="#272F2F" d="M27.122,41.572c0,0.273-2.019,0.502-4.497,0.502c-2.485,0-4.499-0.229-4.499-0.502
			c0-0.272,2.013-0.499,4.499-0.499C25.104,41.073,27.122,41.3,27.122,41.572z"/>
		<path opacity="0.3333" fill="#272F2F" d="M26.959,41.561c0,0.264-1.945,0.483-4.333,0.483c-2.396,0-4.336-0.22-4.336-0.483
			c0-0.263,1.941-0.481,4.336-0.481C25.014,41.079,26.959,41.298,26.959,41.561z"/>
		<path opacity="0.381" fill="#272F2F" d="M26.797,41.549c0,0.254-1.873,0.466-4.171,0.466c-2.306,0-4.174-0.212-4.174-0.466
			c0-0.253,1.868-0.464,4.174-0.464C24.924,41.085,26.797,41.296,26.797,41.549z"/>
		<path opacity="0.4286" fill="#272F2F" d="M26.635,41.537c0,0.243-1.8,0.448-4.009,0.448c-2.217,0-4.013-0.205-4.013-0.448
			s1.796-0.445,4.013-0.445C24.835,41.092,26.635,41.294,26.635,41.537z"/>
		<path opacity="0.4762" fill="#272F2F" d="M26.473,41.525c0,0.233-1.728,0.43-3.847,0.43c-2.127,0-3.851-0.196-3.851-0.43
			s1.724-0.428,3.851-0.428C24.745,41.098,26.473,41.292,26.473,41.525z"/>
		<path opacity="0.5238" fill="#272F2F" d="M26.311,41.514c0,0.224-1.655,0.412-3.685,0.412c-2.038,0-3.689-0.188-3.689-0.412
			c0-0.225,1.651-0.41,3.689-0.41C24.656,41.104,26.311,41.289,26.311,41.514z"/>
		<path opacity="0.5714" fill="#272F2F" d="M26.148,41.502c0,0.214-1.583,0.394-3.523,0.394c-1.948,0-3.527-0.18-3.527-0.394
			c0-0.215,1.579-0.393,3.527-0.393C24.566,41.109,26.148,41.287,26.148,41.502z"/>
		<path opacity="0.619" fill="#272F2F" d="M25.986,41.49c0,0.203-1.51,0.376-3.361,0.376c-1.858,0-3.365-0.173-3.365-0.376
			c0-0.205,1.507-0.374,3.365-0.374C24.477,41.116,25.986,41.285,25.986,41.49z"/>
		<path opacity="0.6667" fill="#272F2F" d="M25.824,41.479c0,0.193-1.437,0.358-3.199,0.358c-1.769,0-3.203-0.165-3.203-0.358
			c0-0.195,1.434-0.356,3.203-0.356C24.387,41.122,25.824,41.283,25.824,41.479z"/>
		<path opacity="0.7143" fill="#272F2F" d="M25.662,41.467c0,0.184-1.365,0.34-3.037,0.34c-1.679,0-3.041-0.156-3.041-0.34
			c0-0.186,1.362-0.339,3.041-0.339C24.297,41.128,25.662,41.281,25.662,41.467z"/>
		<path opacity="0.7619" fill="#272F2F" d="M25.5,41.456c0,0.172-1.292,0.321-2.875,0.321c-1.59,0-2.879-0.149-2.879-0.321
			c0-0.177,1.29-0.321,2.879-0.321C24.208,41.135,25.5,41.279,25.5,41.456z"/>
		<path opacity="0.8095" fill="#272F2F" d="M25.338,41.444c0,0.162-1.219,0.304-2.712,0.304c-1.5,0-2.717-0.142-2.717-0.304
			c0-0.167,1.217-0.304,2.717-0.304C24.119,41.141,25.338,41.277,25.338,41.444z"/>
		<path opacity="0.8571" fill="#272F2F" d="M25.175,41.433c0,0.152-1.146,0.285-2.55,0.285c-1.411,0-2.556-0.133-2.556-0.285
			c0-0.157,1.145-0.286,2.556-0.286C24.029,41.146,25.175,41.275,25.175,41.433z"/>
		<path opacity="0.9048" fill="#272F2F" d="M25.013,41.421c0,0.143-1.074,0.268-2.388,0.268c-1.321,0-2.394-0.125-2.394-0.268
			c0-0.147,1.072-0.269,2.394-0.269C23.939,41.152,25.013,41.273,25.013,41.421z"/>
		<path opacity="0.9524" fill="#272F2F" d="M24.851,41.409c0,0.132-1.001,0.249-2.226,0.249c-1.231,0-2.232-0.117-2.232-0.249
			c0-0.138,1-0.25,2.232-0.25C23.85,41.159,24.851,41.271,24.851,41.409z"/>
		<path fill="#272F2F" d="M24.689,41.397c0,0.122-0.929,0.231-2.063,0.231c-1.142,0-2.07-0.109-2.07-0.231
			c0-0.128,0.928-0.232,2.07-0.232C23.76,41.165,24.689,41.27,24.689,41.397z"/>
	</g>
	<g>
		<path fill="#EF8631" d="M23.791,39.98c0,0.427,0.348,0.782,0.781,0.782c0.434,0,0.788-0.355,0.788-0.782
			c0-0.439-0.354-0.793-0.788-0.793C24.139,39.188,23.791,39.541,23.791,39.98z"/>
		<path fill="#EF8631" d="M23.181,39.853c-0.006,0.433,0.354,0.788,0.788,0.788s0.782-0.355,0.782-0.788
			c0-0.434-0.348-0.787-0.782-0.787S23.26,31.007,23.181,39.853z"/>
		<path fill="#EF8631" d="M24.676,39.749c0,0.439,0.354,0.793,0.788,0.793c0.434,0,0.787-0.354,0.787-0.793
			c0-0.428-0.354-0.781-0.787-0.781C25.031,38.968,24.676,39.321,24.676,39.749z"/>
		<circle fill="#EF8631" cx="20.907" cy="40.28" r="0.784"/>
		<path fill="#EF8631" d="M21.056,39.492c0,0.257,0.201,0.452,0.452,0.452s0.446-0.195,0.452-0.452
			c0.067-7.673-0.202-0.452-0.452-0.452S21.056,39.248,21.056,39.492z"/>
		<path fill="#EF8631" d="M19.06,39.98c0,0.427,0.354,0.782,0.787,0.782c0.434,0,0.788-0.355,0.788-0.782
			c0-0.439-0.354-0.793-0.788-0.793C19.414,39.188,19.06,39.541,19.06,39.98z"/>
		<path fill="#EA7A31" d="M21.734,10.605c0,0-0.287,29.497-1.337,29.669c-1.044,0.171-1.361,0.146-1.361,0.146h6.593
			c0,0-1.855-21.814-1.898-29.814H21.734z"/>
		<path fill="#F3AB28" d="M22.332,10.709c0,0-0.329,29.406-1.374,29.571c-0.012,0.005-0.024,0.005-0.037,0.005
			c-0.116,0.02-0.098,0.196,0.019,0.196l3.742-0.135c0,0-0.788-1.317-1.02-3.467c-0.225-2.088-0.415-25.823-0.439-26.171H22.332z"/>
		<path fill="#FAC82A" d="M19.518,40.641c0,0.555-0.452,1.007-1.007,1.007c-0.562,0-1.013-0.452-1.013-1.007
			c0-0.562,0.451-1.014,1.013-1.014C19.066,39.627,19.518,40.079,19.518,40.641z"/>
		<path fill="#FAC82A" d="M19.689,40.359c0,0.427-0.348,0.775-0.775,0.775c-0.434,0-0.782-0.349-0.782-0.775
			c0-0.428,0.348-0.781,0.782-0.781C19.341,39.578,19.689,39.932,19.689,40.359z"/>
		<path fill="#FAC82A" d="M20.519,40.53c0,0.366-0.305,0.672-0.672,0.672c-0.372,0-0.671-0.306-0.671-0.672
			c0-0.373,0.299-0.672,0.671-0.672C20.214,39.858,20.519,40.157,20.519,40.53z"/>
		<path fill="#FAC82A" d="M21.404,40.53c0,0.274-0.22,0.501-0.495,0.501s-0.5-0.227-0.5-0.501c0-0.281,0.225-0.5,0.5-0.5
			S21.404,40.249,21.404,40.53z"/>
		<path fill="#FAC82A" d="M22.149,40.701c0,0.27-0.226,0.501-0.5,0.501s-0.5-0.231-0.5-0.501c0-0.281,0.226-0.5,0.5-0.5
			S22.149,40.42,22.149,40.701z"/>
		<path fill="#FAC82A" d="M25.562,40.641c0,0.555,0.451,1.007,1.007,1.007s1.008-0.452,1.008-1.007c0-0.562-0.452-1.014-1.008-1.014
			S25.562,40.079,25.562,40.641z"/>
		<path fill="#FAC82A" d="M24.683,40.347c0,0.435,0.348,0.782,0.781,0.782c0.427,0,0.774-0.348,0.774-0.782
			c0-0.427-0.347-0.774-0.774-0.774C25.031,39.572,24.683,39.92,24.683,40.347z"/>
		<path fill="#FAC82A" d="M23.858,40.524c0,0.372,0.299,0.665,0.671,0.665c0.366,0,0.665-0.293,0.665-0.665
			s-0.299-0.672-0.665-0.672C24.158,39.853,23.858,40.152,23.858,40.524z"/>
		<path fill="#FAC82A" d="M23.296,41.019c0,0.373,0.3,0.672,0.672,0.672c0.366,0,0.665-0.299,0.665-0.672
			c0-0.366-0.299-0.666-0.665-0.666C23.596,40.353,23.296,40.652,23.296,41.019z"/>
		<path fill="#FAC82A" d="M21.288,41.312c0,0.366,0.299,0.665,0.672,0.665c0.366,0,0.666-0.299,0.666-0.665
			c0-0.372-0.299-0.671-0.666-0.671C21.587,40.641,21.288,40.939,21.288,41.312z"/>
		<path fill="#FAC82A" d="M20.238,41.031c0,0.366,0.299,0.665,0.671,0.665c0.367,0,0.666-0.299,0.666-0.665
			c0-0.373-0.299-0.672-0.666-0.672C20.537,40.359,20.238,40.658,20.238,41.031z"/>
		<path fill="#FAC82A" d="M19.573,41.129c0,0.366,0.299,0.671,0.666,0.671c0.373,0,0.671-0.305,0.671-0.671
			s-0.299-0.672-0.671-0.672C19.872,40.457,19.573,40.763,19.573,41.129z"/>
		<path fill="#FAC82A" d="M18.511,41.129c0,0.366,0.299,0.671,0.666,0.671c0.372,0,0.671-0.305,0.671-0.671
			s-0.299-0.672-0.671-0.672C18.81,40.457,18.511,40.763,18.511,41.129z"/>
		<path fill="#FAC82A" d="M24.353,41.202c0,0.366,0.299,0.665,0.666,0.665c0.373,0,0.672-0.299,0.672-0.665
			c0-0.372-0.299-0.672-0.672-0.672C24.652,40.53,24.353,40.83,24.353,41.202z"/>
		<path fill="#FAC82A" d="M25.232,41.019c0,0.373,0.299,0.672,0.666,0.672c0.372,0,0.671-0.299,0.671-0.672
			c0-0.366-0.299-0.666-0.671-0.666C25.531,40.353,25.232,40.652,25.232,41.019z"/>
		<circle fill="#FAC82A" cx="23.465" cy="40.524" r="0.498"/>
		<path fill="#FAC82A" d="M22.222,40.688c0,0.282,0.226,0.501,0.5,0.501s0.5-0.219,0.5-0.501c0-0.269-0.226-0.494-0.5-0.494
			S22.222,40.42,22.222,40.688z"/>
		<path fill="#FAC82A" d="M22.674,40.53c0,0.184-0.152,0.342-0.342,0.342c-0.189,0-0.342-0.158-0.342-0.342
			c0-0.188,0.153-0.342,0.342-0.342C22.521,40.188,22.674,40.342,22.674,40.53z"/>
		<path fill="#FAC82A" d="M23.828,41.019c0,0.415-0.33,0.751-0.738,0.758c-0.416,0-0.751-0.33-0.757-0.74
			c-0.006-0.408,0.324-0.751,0.733-0.756C23.479,40.274,23.821,40.604,23.828,41.019z"/>
	</g>
	<g>
		<g>
			<path fill="#D0D2D3" d="M22.692,1.091c0,0-4.737,3.352-1.282,9.197h1.282V1.091z"/>
			<path fill="#D7DADF" d="M22.692,1.091c0,0,4.737,3.352,1.282,9.197h-1.282V1.091z"/>
			<path fill="#EE4036" d="M21.508,2.288c0.317,0.204,0.733,0.329,1.184,0.329c0.458,0,0.874-0.125,1.19-0.329
				c-0.604-0.785-1.19-1.197-1.19-1.197S22.112,1.503,21.508,2.288z"/>
		</g>
		<g>
			<rect x="21.49" y="10.288" fill="#272F2F" width="1.202" height="0.427"/>
			<rect x="22.692" y="10.288" fill="#6D6E70" width="1.209" height="0.427"/>
		</g>
		<g>
			<linearGradient id="SVGID_31_" gradientUnits="userSpaceOnUse" x1="20.9585" y1="4.9175" x2="24.4321" y2="4.9175">
				<stop  offset="0" style="stop-color:#E3DFDD"/>
				<stop  offset="0" style="stop-color:#DBD6D4"/>
				<stop  offset="0.0636" style="stop-color:#CCC7C7"/>
				<stop  offset="0.1851" style="stop-color:#A5A1A4"/>
				<stop  offset="0.264" style="stop-color:#89858A"/>
				<stop  offset="0.5225" style="stop-color:#F1F1F1"/>
				<stop  offset="0.5855" style="stop-color:#E3E2E3"/>
				<stop  offset="0.7065" style="stop-color:#BEBBBE"/>
				<stop  offset="0.8719" style="stop-color:#827D82"/>
				<stop  offset="0.8764" style="stop-color:#807B80"/>
				<stop  offset="1" style="stop-color:#D0D1D2"/>
				<stop  offset="1" style="stop-color:#A4A6A9"/>
			</linearGradient>
			<path fill="url(#SVGID_31_)" d="M24.432,4.916c0,0.961-0.775,1.74-1.74,1.74c-0.958,0-1.733-0.778-1.733-1.74
				c0-0.962,0.775-1.737,1.733-1.737C23.657,3.179,24.432,3.954,24.432,4.916z"/>
			<linearGradient id="SVGID_32_" gradientUnits="userSpaceOnUse" x1="21.1479" y1="4.916" x2="24.2368" y2="4.916">
				<stop  offset="0" style="stop-color:#2AC4F3"/>
				<stop  offset="0.5" style="stop-color:#00AEEE"/>
				<stop  offset="1" style="stop-color:#0095DA"/>
			</linearGradient>
			<path fill="url(#SVGID_32_)" d="M24.237,4.916c0,0.851-0.69,1.544-1.545,1.544c-0.848,0-1.544-0.693-1.544-1.544
				c0-0.852,0.696-1.544,1.544-1.544C23.547,3.372,24.237,4.064,24.237,4.916z"/>
			<defs>
				<filter id="Adobe_OpacityMaskFilter_20_" filterUnits="userSpaceOnUse" x="21.196" y="3.42" width="2.992" height="2.992">
					<feFlood  style="flood-color:white;flood-opacity:1" result="back"/>
					<feBlend  in="SourceGraphic" in2="back" mode="normal"/>
				</filter>
			</defs>
			<mask maskUnits="userSpaceOnUse" x="21.196" y="3.42" width="2.992" height="2.992" id="SVGID_33_">
				<g filter="url(#Adobe_OpacityMaskFilter_20_)">
					<defs>
						<filter id="Adobe_OpacityMaskFilter_21_" filterUnits="userSpaceOnUse" x="21.196" y="3.42" width="2.992" height="2.992">
							<feFlood  style="flood-color:white;flood-opacity:1" result="back"/>
							<feBlend  in="SourceGraphic" in2="back" mode="normal"/>
						</filter>
					</defs>
					<mask maskUnits="userSpaceOnUse" x="21.196" y="3.42" width="2.992" height="2.992" id="SVGID_33_">
						<g filter="url(#Adobe_OpacityMaskFilter_21_)">
						</g>
					</mask>
					<linearGradient id="SVGID_34_" gradientUnits="userSpaceOnUse" x1="21.7856" y1="3.4395" x2="22.6372" y2="4.8262">
						<stop  offset="0" style="stop-color:#FFFFFF"/>
						<stop  offset="1" style="stop-color:#000000"/>
					</linearGradient>
					<path mask="url(#SVGID_33_)" fill="url(#SVGID_34_)" d="M24.188,4.916c0,0.827-0.666,1.496-1.496,1.496
						c-0.824,0-1.496-0.668-1.496-1.496c0-0.824,0.672-1.496,1.496-1.496C23.522,3.42,24.188,4.092,24.188,4.916z"/>
				</g>
			</mask>
			<linearGradient id="SVGID_35_" gradientUnits="userSpaceOnUse" x1="21.7856" y1="3.4395" x2="22.6372" y2="4.8262">
				<stop  offset="0" style="stop-color:#FFFFFF"/>
				<stop  offset="1" style="stop-color:#FFFFFF"/>
			</linearGradient>
			<path fill="url(#SVGID_35_)" d="M24.188,4.916c0,0.827-0.666,1.496-1.496,1.496c-0.824,0-1.496-0.668-1.496-1.496
				c0-0.824,0.672-1.496,1.496-1.496C23.522,3.42,24.188,4.092,24.188,4.916z"/>
		</g>
		<g>
			<path fill="#EE4036" d="M24.848,6.656l-0.708,3.312l0.513,0.214l1.215,1.651C25.867,11.832,26.185,8.6,24.848,6.656z"/>
			<path fill="#EE4036" d="M20.543,6.656l0.702,3.312l-0.507,0.214l-1.215,1.651C19.524,11.832,19.207,8.6,20.543,6.656z"/>
			<path fill="#BE1E2D" d="M24.848,6.656l-0.708,3.312l0.024,0.009c0.3-0.574,0.629-1.49,0.91-2.955
				C25,6.894,24.927,6.771,24.848,6.656z"/>
		</g>
		<path fill="#EE4036" d="M22.851,9.815c0,1.114-0.067,2.017-0.159,2.017c-0.085,0-0.158-0.903-0.158-2.017s0.073-2.018,0.158-2.018
			C22.784,7.797,22.851,8.701,22.851,9.815z"/>
	</g>
</g>
</svg>
