<?xml version="1.0" encoding="utf-8"?>
<!-- Generator: Adobe Illustrator 16.0.0, SVG Export Plug-In . SVG Version: 6.00 Build 0)  -->
<!DOCTYPE svg PUBLIC "-//W3C//DTD SVG 1.1//EN" "http://www.w3.org/Graphics/SVG/1.1/DTD/svg11.dtd">
<svg version="1.1" id="Layer_1" xmlns="http://www.w3.org/2000/svg" xmlns:xlink="http://www.w3.org/1999/xlink" x="0px" y="0px"
	 width="100px" height="100px" viewBox="0 0 100 100" enable-background="new 0 0 100 100" xml:space="preserve">
<g id="astronaut_flag">
	<g>
		<g enable-background="new    ">
			<g>
				<defs>
					<path id="SVGID_1_" d="M76.755,60.365l8.244-4.791c0.479-0.277,0.775-0.869,0.778-1.711l-8.243,4.791
						C77.532,59.494,77.234,60.088,76.755,60.365z"/>
				</defs>
				<use xlink:href="#SVGID_1_"  overflow="visible" fill="#E8EEF4"/>
				<clipPath id="SVGID_2_">
					<use xlink:href="#SVGID_1_"  overflow="visible"/>
				</clipPath>
				<g clip-path="url(#SVGID_2_)" enable-background="new    ">
					<path fill="#E8EEF4" d="M76.755,60.365l8.244-4.791c0.479-0.277,0.775-0.869,0.778-1.711l-8.243,4.791
						C77.532,59.494,77.234,60.088,76.755,60.365L76.755,60.365z"/>
				</g>
			</g>
			<g enable-background="new    ">
				<defs>
					<path id="SVGID_3_" enable-background="new    " d="M69.281,16.765l-8.242,4.791c0.485-0.283,1.157-0.243,1.899,0.186
						l8.242-4.79C70.439,16.523,69.768,16.483,69.281,16.765z"/>
				</defs>
				<use xlink:href="#SVGID_3_"  overflow="visible" fill="#FFFFFF"/>
				<clipPath id="SVGID_4_">
					<use xlink:href="#SVGID_3_"  overflow="visible"/>
				</clipPath>
				<g clip-path="url(#SVGID_4_)" enable-background="new    ">
					<path fill="#FFFFFF" d="M62.938,21.741l8.242-4.79c-0.582-0.336-1.121-0.433-1.562-0.323l-8.242,4.791
						C61.817,21.308,62.356,21.405,62.938,21.741L62.938,21.741z"/>
					<path fill="#FFFFFF" d="M61.377,21.419l8.242-4.791c-0.12,0.03-0.232,0.076-0.338,0.137l-8.242,4.791
						C61.144,21.495,61.257,21.448,61.377,21.419L61.377,21.419z"/>
				</g>
			</g>
			<g>
				<polygon fill="#E8EEF4" points="77.534,58.654 85.777,53.863 85.849,28.492 77.606,33.282 				"/>
			</g>
			<g>
				<polygon fill="#FFFFFF" points="74.945,28.673 83.188,23.884 71.181,16.951 62.938,21.741 				"/>
			</g>
			<g enable-background="new    ">
				<defs>
					<path id="SVGID_5_" enable-background="new    " d="M77.606,33.282l8.242-4.79c0.006-1.694-1.187-3.757-2.66-4.608l-8.243,4.79
						C76.421,29.524,77.611,31.588,77.606,33.282z"/>
				</defs>
				<use xlink:href="#SVGID_5_"  overflow="visible" fill="#E8EEF4"/>
				<clipPath id="SVGID_6_">
					<use xlink:href="#SVGID_5_"  overflow="visible"/>
				</clipPath>
				<g clip-path="url(#SVGID_6_)" enable-background="new    ">
					<path fill="#E8EEF4" d="M77.606,33.282l8.242-4.79c0.002-0.805-0.266-1.694-0.705-2.496L76.9,30.787
						C77.342,31.588,77.608,32.477,77.606,33.282L77.606,33.282z"/>
					<path fill="#FFFFFF" d="M76.9,30.787l8.243-4.791c-0.486-0.886-1.182-1.666-1.955-2.112l-8.243,4.79
						C75.72,29.12,76.415,29.9,76.9,30.787L76.9,30.787z"/>
				</g>
			</g>
			<g>
				<path fill="#A4A9C2" d="M62.938,21.741c-1.474-0.851-2.673-0.168-2.678,1.526l-0.072,25.371
					c-0.005,1.693,1.187,3.758,2.661,4.608l12.008,6.934c1.473,0.852,2.673,0.168,2.677-1.525l0.072-25.372
					c0.005-1.694-1.186-3.758-2.661-4.609L62.938,21.741z"/>
			</g>
		</g>
	</g>
	<g>
		<g enable-background="new    ">
			<g>
				<polygon fill="#A4A9C2" points="80.574,36.257 79.544,35.658 79.567,43.332 80.598,43.93 				"/>
			</g>
			<g>
				<polygon fill="#FFFFFF" points="84.957,33.728 83.927,33.129 79.544,35.658 80.574,36.257 				"/>
			</g>
			<g>
				<polygon fill="#C1C8DC" points="80.574,36.257 80.598,43.93 84.978,41.401 84.957,33.728 				"/>
			</g>
		</g>
	</g>
	<g>
		<path fill="#C1C8DC" d="M43.562,45.287c0.07-0.075,0.156-0.139,0.194-0.241c0.023-0.062,0.026-0.132,0.036-0.199
			c0.037-0.242,0.171-0.452,0.333-0.606c0.159-0.151,0.353-0.224,0.516-0.36c0.162-0.137,0.335-0.24,0.52-0.336
			c0.216-0.113,0.458-0.174,0.671-0.292c0.421-0.237,0.91-0.229,1.372-0.188c0.446,0.04,1.291-0.143,1.738-0.141
			c0.295,0.001,0.171,0.217,0.456,0.135c0.228-0.065,0.303,0.128,0.304,0.374c0.001,0.315-0.007,0.604,0.061,0.914
			c0.067,0.309,0.181,0.604,0.326,0.872c0.044,0.083,0.094,0.18,0.067,0.273c-0.011,0.041-0.037,0.074-0.063,0.104
			c-0.144,0.155-0.315,0.119-0.491,0.173c-0.186,0.057-0.358,0.161-0.516,0.287c-0.165,0.13,0.202,0.356-0.011,0.381
			c-0.401,0.046-0.595,0.227-0.671,0.308c-0.292,0.32-0.604,0.622-0.943,0.869c-0.299-0.36-0.643-0.672-1.058-0.888
			c0-0.002,0.001-0.004,0.001-0.007c0.006-0.077-0.033-0.153-0.085-0.2c-0.053-0.047-0.118-0.071-0.182-0.089
			c-0.571-0.165-1.211,0.021-1.657,0.468c-0.173,0.172-0.398,0.619-0.651,0.6c-0.449-0.033-0.464-0.903-0.215-1.193
			C43.479,46.045,43.34,45.521,43.562,45.287z"/>
		<path fill="#C1C8DC" d="M58.694,33.629c0.079-0.151,0.159-0.297,0.229-0.435c0.624-1.217,1.43-2.342,2.384-3.322
			c0.749-0.769,1.976-2.156,3.181-1.483c1.288,0.717,1.617,3.696-0.21,6.438c-0.368,0.551-0.729,1.106-1.091,1.663
			c-1.826,3.625-2.624,6.103-3.687,7.238c-0.366,0.391-0.974,0.497-1.398,0.596c-0.544,0.126-2.627-3.972-2.627-3.972
			C56.264,38.127,57.526,35.24,58.694,33.629z"/>
		<path fill="#10191B" d="M64.056,33.95c-1.462,0.585-2.923,0.439-4.313,1.316c-0.725,0.439-1.439,0.375-2.064,0.019
			c0.338-0.626,0.681-1.193,1.016-1.655c0.079-0.151,0.159-0.297,0.229-0.435c0.624-1.217,1.43-2.342,2.384-3.322
			c0.749-0.769,1.976-2.156,3.181-1.483c1.03,0.574,1.445,2.594,0.637,4.782C64.838,33.506,64.488,33.776,64.056,33.95z"/>
		<path fill="#C1C8DC" d="M48.793,46.392c-0.535-0.354-1.652-3.163-1.116-3.339c2.197-0.724,8.424-3.077,9.951-4.152
			c0.616-0.435,2.024,1.44,2.158,2.311c0.312,2.025-0.314,2.645-0.98,2.944C57.33,44.816,49.329,46.745,48.793,46.392z"/>
		<path fill="#E76E1E" d="M47.677,43.052c0.213-0.07,0.465-0.156,0.747-0.255c-0.218,1.331,0.486,2.634,1.483,3.56
			c-0.598,0.084-1.006,0.105-1.114,0.034C48.258,46.038,47.141,43.229,47.677,43.052z"/>
		<path fill="#E76E1E" d="M57.001,36.635c0.563,2.02,2.047,3.802,4.049,4.422c-0.27,0.584-0.518,1.096-0.762,1.533
			c-1.838-0.842-3.463-2.498-3.94-4.487C56.555,37.611,56.773,37.116,57.001,36.635z"/>
	</g>
	<path fill="#10191B" d="M74.524,94.002c1.798-0.424,2.326-3.26,3.255-4.426c0.311-0.389,0.683-0.729,0.994-1.117
		c0.313-0.389,0.569-0.85,0.592-1.348c0.021-0.441-0.145-0.871-0.337-1.271c-0.894-1.865-1.389-1.254-2.584-1.387
		c-0.246-0.029-0.535-0.203-0.865-0.166c-0.607-0.738-0.426-0.627-1.535-0.689c-0.438-0.025,0.738-0.375,0.365-0.115
		c-0.716,0.502-1.853,0.266-1.595,1.145c0.282,0.965,0.901,2.225,0.933,2.896c0.016,0.32-1.592,1.506-2.839,3.656
		C70.466,91.943,71.098,94.807,74.524,94.002z"/>
	<path fill="#EBE7E6" d="M74.251,93.611c1.797-0.422,2.349-3.51,3.276-4.674c0.311-0.391,0.682-0.73,0.994-1.117
		c0.312-0.391,0.569-0.85,0.592-1.348c0.021-0.441-0.145-0.873-0.337-1.271c-0.894-1.865-1.39-1.254-2.585-1.389
		c-0.245-0.027-0.534-0.203-0.865-0.164c-0.607-0.74-0.425-0.627-1.535-0.691c-0.436-0.025,0.739-0.377,0.366-0.115
		c-0.717,0.5-1.853,0.266-1.596,1.146c0.283,0.963,0.903,2.225,0.935,2.895c0.015,0.322-1.341,2.146-2.588,4.297
		C70.466,91.943,70.824,94.416,74.251,93.611z"/>
	<path fill="#10191B" d="M64.385,81.813c-0.105-0.117-0.224-0.215-0.378-0.25c-0.535-0.123-1.322,0.283-1.757,0.555
		c-0.86,0.541-1.6,1.258-2.484,1.758c-0.476,0.268-0.986,0.465-1.496,0.66c-0.553,0.209-1.108,0.42-1.655,0.641
		c-0.447,0.182-0.818,0.504-1.005,0.955c-0.139,0.332-0.168,0.701-0.175,1.063c-0.009,0.475,0.247,0.928,0.563,1.27
		c0.672,0.729,1.746,1.025,2.72,0.846c0.92-0.168,1.958-0.666,2.689-1.24c0.487-0.381,0.933-0.652,1.546-0.838
		c0.479-0.145,0.977-0.211,1.453-0.354c0.479-0.143,0.902-0.416,1.253-0.771c0.451-0.455,0.267-1.496,0.336-1.936
		c0.076-0.48,0.659-3.789,0.378-4.229c-0.252-0.391-1.248,2.625-1.604,2.314C64.629,82.135,64.517,81.959,64.385,81.813z"/>
	<path fill="#D8DFE9" d="M64.385,81.35c-0.105-0.117-0.224-0.215-0.378-0.25c-0.535-0.123-1.322,0.281-1.757,0.555
		c-0.86,0.541-1.6,1.258-2.484,1.758c-0.476,0.27-0.986,0.463-1.496,0.658c-0.553,0.213-1.108,0.422-1.655,0.643
		c-0.447,0.182-0.818,0.504-1.005,0.957c-0.139,0.332-0.168,0.699-0.175,1.059c-0.009,0.477,0.247,0.93,0.563,1.273
		c0.672,0.727,1.746,1.023,2.72,0.846c0.92-0.17,1.958-0.666,2.689-1.24c0.487-0.383,0.933-0.654,1.546-0.84
		c0.479-0.143,0.977-0.211,1.453-0.354c0.479-0.143,0.951-0.375,1.253-0.77c0.269-0.354,0.377-0.803,0.446-1.24
		c0.077-0.482,0.549-4.486,0.268-4.926c-0.252-0.391-1.248,2.625-1.604,2.314C64.629,81.672,64.517,81.496,64.385,81.35z"/>
	<g id="_x30_4_x5F_man_x5F_smart_x5F_watch_2_">
		<g id="man_3_">
			<g>
				<g>
					<g>
						<path fill="#D8DFE9" d="M60.075,62.775c-0.307,3.602,0.487,15.314,3.909,14.154c1.073-0.365,2.787-0.854,2.798-3.242
							c0.007-1.289,1.336-8.709,1.319-9.996c-0.033-2.664,0.981-8.635-4.538-9.916c-0.829-0.191-0.48-3.927-1.134-3.312
							c-0.475,0.447-2.006,0.43-2.041,2.021c-0.012,0.555-0.064,0.607-0.074,1.176C60.264,56.717,60.275,60.42,60.075,62.775z"/>
						<path fill="#D8DFE9" d="M61.398,70.213c-0.479,0.08-0.833,0.271-0.849,0.646c-0.018,0.418,0.126,0.912,0.159,1.344
							c0.075,0.992,0.155,1.986,0.239,2.979c0.113,1.348,0.161,2.711,0.403,4.057c0.196,1.09,0.124,2.174,0.384,3.275
							c0.038,0.162,0.081,0.328,0.188,0.479c0.122,0.168,0.319,0.309,0.536,0.422c0.768,0.408,1.946,0.537,2.75,0.227
							c0.813-0.313,0.906-1.148,1.052-1.752c0.507-2.107,0.449-5.852,0.52-8.014c0.034-1.064-0.397-2.129-1.621-2.893
							c-0.942-0.586-2.216-0.891-3.407-0.813C61.63,70.18,61.51,70.193,61.398,70.213z"/>
						<path fill="#FB852A" d="M64.421,81.461c0.698,0.117,1.444-0.047,2.014-0.488c0.013,0.336-0.065,1.139-0.086,1.23
							c-1.605,0.521-3.449,0.303-4.793-0.867c-0.016-0.223-0.071-0.965-0.091-1.188C62.33,80.791,63.348,81.238,64.421,81.461z"/>
						<path fill="#242A31" d="M60.709,72.203c-0.033-0.432-0.177-0.926-0.159-1.344c0.016-0.375,0.369-0.566,0.849-0.646
							c0.111-0.02,0.231-0.033,0.354-0.043c0.844-0.055,1.728,0.082,2.507,0.375c0.194,0.205,0.353,0.451,0.453,0.754
							c0.73,2.412-1.169,4.314-2.924,5.631c-0.215,0.156-0.444,0.264-0.684,0.322c-0.058-0.691-0.099-1.383-0.157-2.07
							C60.864,74.189,60.784,73.195,60.709,72.203z"/>
						<path fill="#EBE7E6" d="M69.67,51.119c-3.119,0.496-4.078,0.635-6.192-0.656c-0.154,1.009-2.81-1.438-2.872-0.438
							c-0.06,0.935-0.177,3.571-0.254,4.51c-0.212,2.52,3.14,5.424,3.806,6.098c1.004,1.014,2.358,0.533,2.625,2.266
							c0.622,4.035,2.861,10.334,3.046,10.6c0.265,0.377,2.108,1.316,2.722,1.355c0.285,0.018,0.567-0.076,0.827-0.199
							c0.578-0.27,1.898-0.969,2.52-2.189c0.559-1.1-0.231-7.445-0.217-9.141c0.008-0.896,0.016-1.793,0.075-2.689
							c0.056-0.844,0.19-1.648,0.155-2.508c-0.071-1.738-0.484-3.465-1.217-5.045c-0.29-0.623-0.635-1.234-1.129-1.715
							c-0.467-0.45-1.116-0.808-1.78-0.798C71.082,50.579,70.37,51.006,69.67,51.119z"/>
						<path fill="#E8EEF4" d="M60.39,54.063c0.21,0.576,0.727,0.674,1.235,0.846c0.542,0.182,1.792,0.928,2.344,1.125
							c1.693,0.598,3.43,1.203,5.227,1.188c0.991-0.008,1.971-0.207,2.942-0.406c0.731-0.148,1.464-0.299,2.196-0.447
							c0.955-0.193,1.555,2.072,1.508,0.854c-0.09-2.479-1.007-13.426,0.255-16.458c0.813-1.958,2.477-3.03,2.232-4.575
							c-0.421-2.652-4.16-5.455-10.841-7.549c-1.063-0.333-3.061-1.096-4.053-0.597c-0.854,0.429-1.251,1.406-1.584,2.245
							c-0.645,1.631-0.664,3.362-0.716,5.111c-0.007,0.22-0.012,0.44-0.018,0.661v0.003c-0.027,1.498-0.011,2.995-0.007,4.491
							c0.002,0.264,0.002,0.526,0.002,0.79c-0.004,3.947-0.462,7.892-0.781,11.824C60.309,53.467,60.285,53.777,60.39,54.063z"/>
						<path fill="#E76E1E" d="M61.606,35.867c0,0.407,0.597,1.08,1.332,1.505c0.735,0.424,1.332,0.439,1.332,0.033
							c0-0.407-0.597-1.081-1.332-1.506C62.203,35.475,61.606,35.46,61.606,35.867z"/>
						<path fill="#A4A9C2" d="M63.484,46.651c0.057-2.985,0.355-5.965,0.875-8.905c0.146-0.823,0.3-1.648,0.498-2.46
							c0.1-0.406,0.194-0.814,0.327-1.21c0.132-0.39,0.258-0.813,0.563-1.102c0.186-0.176,0.483-0.096,0.559,0.147
							c0.202,0.659-0.08,1.49-0.213,2.145c-0.144,0.707-0.289,1.414-0.42,2.122c-0.266,1.432-0.475,2.873-0.625,4.322
							c-0.3,2.89-0.384,5.805-0.243,8.708c0.04,0.813,0.096,1.624,0.17,2.434c0.063,0.68,0.385,1.775-0.167,2.229
							c-0.093,0.074-0.221,0.139-0.344,0.092c-0.699-0.273-0.641-1.131-0.704-1.764c-0.075-0.742-0.136-1.482-0.18-2.225
							C63.487,49.674,63.457,48.162,63.484,46.651z"/>
						<path fill="#FB852A" d="M63.273,55.379c-1.128-0.434-2.044-1.168-2.959-1.932c0.004-0.094,0.011-0.188,0.018-0.281
							c0.044-0.537,0.09-1.072,0.137-1.609c1.654,1.346,3.703,2.223,5.807,2.883c3.064,0.939,6.192,0.564,9.069-0.438
							c0.105-0.031,0.21-0.072,0.313-0.119c0.031,0.564,0.062,1.09,0.09,1.557c-2.044,0.744-4.144,1.252-6.345,1.252
							C67.276,56.754,65.275,56.129,63.273,55.379z"/>
					</g>
				</g>
			</g>
		</g>
	</g>
	<path fill="#EBE7E6" d="M69.336,69.564c-0.339,0.236,0.063,2.641,0.152,3.084c0.542,2.67,2.1,6.719,2.822,10.301
		c0.186,0.918,0.458,1.822,0.766,2.707c0.073,0.213,0.336,1.02,0.42,1.227c0.091,0.229-0.08-0.26,0.175-0.193
		c0.536,0.139,1.103,0.123,1.646,0.029c0.603-0.105,1.184-0.307,1.762-0.508c0.179-0.063,0.357-0.125,0.528-0.209
		c0.387-0.195,1.155,0.229,1.363-0.154c0.086-0.158-0.249-0.725-0.325-1.037c-0.087-0.357-0.219-0.729-0.264-0.924
		c-0.169-0.742-0.323-1.484-0.461-2.232c-0.284-1.533-0.495-3.08-0.734-4.619c-0.309-1.982-0.685-3.955-1.128-5.912
		c-0.18-0.795-2.394-0.637-2.642-0.455c-0.381,0.273-1.05,0.018-1.438-0.111c-0.608-0.205-1.191-0.477-1.776-0.738
		C69.979,69.717,69.527,69.43,69.336,69.564z"/>
	<path fill="#FB852A" d="M78.231,83.207c0.05,0.227,0.1,0.453,0.15,0.68c0.032,0.137,0.107,0.367,0.181,0.613
		c-1.301,1.148-3.102,1.701-4.858,1.418c-0.192-0.035-0.389-0.08-0.586-0.137c-0.018-0.051-0.032-0.096-0.042-0.125
		c-0.175-0.504-0.338-1.012-0.479-1.525c0.611,0.209,1.256,0.357,1.911,0.471C75.97,84.873,77.192,84.141,78.231,83.207z"/>
	<path fill="#242A31" d="M69.395,72.107c1.738-0.045,3.516,0.588,4.527,2.043c0.293,0.438,0.293,1.098,0.074,1.607
		c-0.673,1.482-0.976,3.396-2.391,4.318c-0.763-2.732-1.716-5.455-2.117-7.428C69.469,72.551,69.433,72.355,69.395,72.107z"/>
	<g>
		<path fill="#FFFFFF" d="M77.082,50.541c-0.646-1.506-1.476-4.876-2.091-6.773c-0.519-1.601,0.05-1.73-0.34-3.281l4.573-3.509
			c0.243,0.667,0.355,1.447,0.536,2.065c0.298,1.015,0.877,1.813,1.265,3.196c0.576,2.051,0.928,4.766,0.909,6.342
			c-0.008,0.643-0.987,0.242-1.494,1.236c-0.225,0.44,0.181,1.005-0.288,1.164C79.535,51.189,77.33,51.119,77.082,50.541z"/>
		<g>
			<path fill="#FFFFFF" d="M75.157,61.852c0.058-0.881,0.902-3.16,1.575-3.729c0,0,0.524,0.061,0.757-0.646
				c0.08-0.244,1.254,1.385,1.55,1.4c0.257,0.014,0.475,0.197,0.587,0.414c0.316,0.613,0.485,1.186,0.519,1.873
				c0.034,0.713-0.045,1.432-0.243,2.117c-0.046,0.162-0.137,0.354-0.306,0.357c-0.11,0.002-0.21-0.084-0.319-0.07
				c-0.213,0.029-0.195,0.34-0.286,0.535c-0.139,0.301-0.68,0.24-0.75-0.082c-0.099,0.252-0.226,0.521-0.469,0.645
				c-0.243,0.121-0.617-0.012-0.62-0.285c-0.012,0.303-0.305,0.564-0.606,0.543c-0.303-0.021-0.555-0.322-0.522-0.625
				c0.024-0.225,0.179-0.412,0.273-0.619c0.308-0.676-0.054-1.449-0.088-2.197c-0.105,0.107-0.274,0.369-0.277,0.402
				c-0.014,0.135-0.028,0.275-0.089,0.395c-0.061,0.123-0.179,0.225-0.315,0.227c-0.141,0.002-0.266-0.109-0.322-0.238
				C75.148,62.139,75.147,61.994,75.157,61.852z"/>
			<path fill="#FFFFFF" d="M77.334,59.633c-0.386-0.414-0.638-0.898-0.783-1.414c0.156-2.471,0.553-6.076,0.284-8.315
				c-0.11-0.921,0.568-2.394,1.405-2.793c1.889-0.902,3.942-0.192,3.672,1.937c-0.153,1.207-0.249,3.859-1.01,7.421
				c-0.157,0.742-0.654,2.398-0.973,3.316C79.219,60.434,77.99,60.338,77.334,59.633z"/>
			<path fill="#FB852A" d="M78.162,58.947c0.663,0.398,1.445,0.254,2.076-0.104c-0.109,0.348-0.216,0.676-0.309,0.941
				c-0.711,0.648-1.939,0.553-2.596-0.152c-0.386-0.414-0.638-0.898-0.783-1.414c0.019-0.279,0.038-0.572,0.062-0.877
				C77.002,57.961,77.501,58.508,78.162,58.947z"/>
			<path fill="#FFFFFF" d="M80.062,38.757c-0.012-0.038-0.024-0.075-0.037-0.112c-0.307-0.926-0.511-2.031-1.161-2.792
				c-0.872-1.022-1.919-2.38-3.463-2.038c-1.216,0.269-1.48,1.683-1.546,2.591c-0.085,1.196,0.275,2.376,0.401,3.556
				c0.495,4.646,1.313,4.884,1.836,5.03c1.261,0.352,1.163-0.094,1.878-0.341c0.847-0.292,1.691-0.584,2.538-0.876
				c0.214-0.074,0.443-0.161,0.562-0.353c0.119-0.195,0.088-0.443,0.051-0.669C80.89,41.375,80.485,40.078,80.062,38.757z"/>
			<path fill="#242A31" d="M73.854,36.406c0.065-0.908,0.33-2.322,1.546-2.591c1.544-0.342,2.591,1.016,3.463,2.038
				c0.65,0.762,0.854,1.866,1.161,2.792c0.013,0.037,0.025,0.074,0.037,0.112c0.281,0.878,0.555,1.748,0.774,2.637
				c-0.161,0.087-0.329,0.161-0.501,0.224c-1.813,0.625-3.502-0.438-4.564-1.939c-0.528-0.812-1.109-1.755-1.896-2.266
				C73.843,37.078,73.83,36.743,73.854,36.406z"/>
		</g>
	</g>
	<g id="head_2_">
		<path fill="#A4A9C2" d="M72.111,27.001c0.235,1.896,1.103,2.581,1.155,4.115c0.197,5.669-11.419,5.764-11.252,0.434
			c0.06-1.914,0.138-3.391,0.285-4.549H72.111z"/>
	</g>
	<g>
		<g>
			<g enable-background="new    ">
				<g enable-background="new    ">
					<defs>
						<path id="SVGID_7_" enable-background="new    " d="M73.974,28.823l-1.915,1.117c0.159-0.094,0.38-0.083,0.625,0.057
							l1.915-1.117C74.354,28.741,74.132,28.729,73.974,28.823z"/>
					</defs>
					<clipPath id="SVGID_8_">
						<use xlink:href="#SVGID_7_"  overflow="visible"/>
					</clipPath>
					<g clip-path="url(#SVGID_8_)" enable-background="new    ">
						<path fill="#E8EEF4" d="M72.684,29.997l1.915-1.117c-0.094-0.053-0.184-0.087-0.269-0.105l-1.914,1.117
							C72.5,29.909,72.591,29.944,72.684,29.997L72.684,29.997z"/>
						<path fill="#E8EEF4" d="M72.416,29.892l1.914-1.117c-0.129-0.026-0.245-0.012-0.341,0.04l-1.915,1.117
							C72.169,29.881,72.285,29.866,72.416,29.892L72.416,29.892z"/>
						<path fill="#C1C8DC" d="M72.074,29.931l1.915-1.117c-0.006,0.003-0.01,0.006-0.016,0.009l-1.915,1.117
							C72.063,29.937,72.069,29.934,72.074,29.931L72.074,29.931z"/>
					</g>
				</g>
				<g enable-background="new    ">
					<defs>
						<path id="SVGID_9_" enable-background="new    " d="M73.319,32.072l1.914-1.117c0.157-0.093,0.254-0.288,0.252-0.566
							c-0.003-0.557-0.4-1.232-0.887-1.509l-1.915,1.117c0.487,0.276,0.885,0.952,0.888,1.509
							C73.572,31.783,73.476,31.979,73.319,32.072z"/>
					</defs>
					<clipPath id="SVGID_10_">
						<use xlink:href="#SVGID_9_"  overflow="visible"/>
					</clipPath>
					<g clip-path="url(#SVGID_10_)" enable-background="new    ">
						<path fill="#C1C8DC" d="M73.319,32.072l1.914-1.117c0.157-0.093,0.254-0.288,0.252-0.566c-0.001-0.213-0.061-0.444-0.16-0.664
							l-1.914,1.118c0.1,0.219,0.159,0.45,0.16,0.663C73.572,31.783,73.476,31.979,73.319,32.072L73.319,32.072z"/>
						<path fill="#E8EEF4" d="M73.411,30.843l1.914-1.118c-0.076-0.17-0.179-0.334-0.299-0.477l-1.915,1.117
							C73.231,30.508,73.333,30.672,73.411,30.843L73.411,30.843z"/>
						<path fill="#FFFFFF" d="M73.111,30.365l1.915-1.117c-0.127-0.152-0.272-0.28-0.428-0.368l-1.915,1.117
							C72.839,30.084,72.985,30.213,73.111,30.365L73.111,30.365z"/>
					</g>
				</g>
				<g>
					<path fill="#CCD4EB" d="M72.684,29.997c-0.486-0.277-0.88-0.049-0.877,0.508c0.003,0.558,0.399,1.234,0.887,1.51
						c0.487,0.276,0.88,0.048,0.878-0.509C73.568,30.949,73.171,30.273,72.684,29.997z"/>
				</g>
			</g>
		</g>
		<g>
			<g enable-background="new    ">
				<g enable-background="new    ">
					<defs>
						<path id="SVGID_11_" enable-background="new    " d="M72.015,30.168l-0.744,0.433c0.137-0.081,0.327-0.071,0.54,0.049
							l0.744-0.433C72.344,30.097,72.152,30.086,72.015,30.168z"/>
					</defs>
					<clipPath id="SVGID_12_">
						<use xlink:href="#SVGID_11_"  overflow="visible"/>
					</clipPath>
					<g clip-path="url(#SVGID_12_)" enable-background="new    ">
						<path fill="#E8EEF4" d="M71.811,30.649l0.744-0.433c-0.08-0.046-0.158-0.076-0.231-0.09l-0.744,0.433
							C71.651,30.574,71.729,30.604,71.811,30.649L71.811,30.649z"/>
						<path fill="#E8EEF4" d="M71.579,30.559l0.744-0.433c-0.112-0.023-0.212-0.01-0.295,0.034l-0.745,0.433
							C71.365,30.549,71.467,30.537,71.579,30.559L71.579,30.559z"/>
						<polygon fill="#C1C8DC" points="71.283,30.593 72.028,30.16 72.015,30.168 71.271,30.601 71.283,30.593 						"/>
					</g>
				</g>
				<g enable-background="new    ">
					<defs>
						<path id="SVGID_13_" enable-background="new    " d="M72.358,32.442l0.745-0.433c0.136-0.08,0.219-0.249,0.218-0.488
							c-0.002-0.481-0.346-1.066-0.767-1.304l-0.744,0.433c0.421,0.239,0.765,0.822,0.766,1.304
							C72.577,32.193,72.494,32.361,72.358,32.442z"/>
					</defs>
					<clipPath id="SVGID_14_">
						<use xlink:href="#SVGID_13_"  overflow="visible"/>
					</clipPath>
					<g clip-path="url(#SVGID_14_)" enable-background="new    ">
						<path fill="#C1C8DC" d="M72.358,32.442l0.745-0.433c0.136-0.08,0.219-0.249,0.218-0.488c-0.001-0.185-0.052-0.384-0.138-0.573
							l-0.745,0.433c0.087,0.189,0.138,0.389,0.138,0.573C72.577,32.193,72.494,32.361,72.358,32.442L72.358,32.442z"/>
						<path fill="#E8EEF4" d="M72.438,31.38l0.745-0.433c-0.067-0.148-0.156-0.289-0.259-0.413l-0.745,0.433
							C72.283,31.091,72.371,31.233,72.438,31.38L72.438,31.38z"/>
						<path fill="#FFFFFF" d="M72.18,30.968l0.745-0.433c-0.11-0.131-0.235-0.243-0.37-0.318l-0.744,0.433
							C71.944,30.725,72.069,30.836,72.18,30.968L72.18,30.968z"/>
					</g>
				</g>
				<g>
					<path fill="#CCD4EB" d="M71.811,30.649c-0.422-0.239-0.762-0.042-0.758,0.439c0.002,0.482,0.345,1.065,0.766,1.305
						c0.421,0.238,0.76,0.042,0.758-0.44C72.575,31.472,72.231,30.888,71.811,30.649z"/>
				</g>
			</g>
		</g>
	</g>
	<path fill="#E8EEF4" d="M65.104,34.485c3.835,1.386,7.594-0.967,8.922-4.949c1.753-5.255-1.009-10.884-7.343-10.386
		c-4.184,0.328-5.771,3.236-6.233,6.453C59.938,29.149,61.199,33.075,65.104,34.485z"/>
	<path fill="#10191B" d="M60.652,25.373c0.186-1.288,0.481-2.499,1.119-3.545c0.042-0.068,0.123-0.183,0.177-0.251
		c3.33-0.235,7.229,1.357,8.286,4.815c0.671,2.268,0.391,5.582-1.787,6.57c-2.124,0.93-4.806,0.349-6.481-1.454
		c-0.263-0.313-0.475-0.625-0.67-0.955C60.58,28.966,60.4,27.123,60.652,25.373z"/>
	<path fill="#242A31" d="M60.449,25.602c0.198-1.373,0.601-2.69,1.322-3.774c3.331-0.234,7.202,1.335,8.26,4.793
		c0.671,2.268,0.392,5.582-1.788,6.57c-2.122,0.93-4.804,0.349-6.479-1.453c-0.263-0.312-0.475-0.625-0.671-0.955
		C60.377,29.195,60.197,27.353,60.449,25.602z"/>
	<g>
		<g>
			<g>
				<g enable-background="new    ">
					<g enable-background="new    ">
						<defs>
							<path id="SVGID_15_" enable-background="new    " d="M43.252,87.84l0.019,0.848c0.001,0.305,0.201,0.607,0.6,0.84
								c0.803,0.467,2.108,0.467,2.916,0c0.406-0.234,0.61-0.543,0.609-0.852l-0.02-0.85c0.001,0.311-0.202,0.617-0.608,0.852
								c-0.808,0.465-2.113,0.467-2.916,0C43.453,88.445,43.253,88.143,43.252,87.84z"/>
						</defs>
						<use xlink:href="#SVGID_15_"  overflow="visible" fill="#D8DFE9"/>
						<clipPath id="SVGID_16_">
							<use xlink:href="#SVGID_15_"  overflow="visible"/>
						</clipPath>
						<g clip-path="url(#SVGID_16_)" enable-background="new    ">
							<path fill="#D8DFE9" d="M43.252,87.84l0.019,0.848c0.001,0.205,0.091,0.408,0.27,0.59l-0.019-0.85
								C43.343,88.246,43.253,88.043,43.252,87.84L43.252,87.84z"/>
							<path fill="#D8DFE9" d="M43.523,88.428l0.019,0.85c0.089,0.09,0.199,0.174,0.33,0.25c0.138,0.08,0.29,0.145,0.452,0.197
								l-0.02-0.85c-0.162-0.053-0.314-0.117-0.452-0.197C43.72,88.602,43.611,88.518,43.523,88.428L43.523,88.428z"/>
							<path fill="#E8EEF4" d="M44.303,88.875l0.02,0.85c0.352,0.115,0.75,0.164,1.142,0.15l-0.02-0.85
								C45.053,89.039,44.655,88.99,44.303,88.875L44.303,88.875z"/>
							<path fill="#D8DFE9" d="M45.445,89.025l0.02,0.85c0.363-0.014,0.721-0.084,1.033-0.207l-0.02-0.85
								C46.166,88.941,45.808,89.01,45.445,89.025L45.445,89.025z"/>
							<path fill="#D8DFE9" d="M46.478,88.818l0.02,0.85c0.102-0.043,0.199-0.088,0.29-0.141c0.406-0.234,0.61-0.543,0.609-0.852
								l-0.02-0.85c0.001,0.311-0.202,0.617-0.608,0.852C46.677,88.729,46.58,88.775,46.478,88.818L46.478,88.818z"/>
						</g>
					</g>
					<g>
						<path fill="#A4A9C2" d="M43.861,86.988c-0.808,0.467-0.812,1.223-0.009,1.689c0.803,0.467,2.108,0.465,2.916,0
							c0.808-0.467,0.812-1.223,0.009-1.689C45.975,86.523,44.669,86.523,43.861,86.988z"/>
					</g>
				</g>
			</g>
			<g>
				<g enable-background="new    ">
					<g enable-background="new    ">
						<defs>
							<path id="SVGID_17_" enable-background="new    " d="M44.428,18.735l0.008,68.908c0,0.133,0.087,0.266,0.259,0.365
								c0.347,0.199,0.912,0.199,1.262,0c0.175-0.102,0.263-0.236,0.263-0.369l-0.008-68.909c0,0.133-0.087,0.266-0.263,0.368
								c-0.35,0.202-0.915,0.202-1.262,0C44.514,18.998,44.428,18.866,44.428,18.735z"/>
						</defs>
						<use xlink:href="#SVGID_17_"  overflow="visible" fill="#D8DFE9"/>
						<clipPath id="SVGID_18_">
							<use xlink:href="#SVGID_17_"  overflow="visible"/>
						</clipPath>
						<g clip-path="url(#SVGID_18_)" enable-background="new    ">
							<path fill="#D8DFE9" d="M44.428,18.735l0.008,68.908c0,0.09,0.04,0.178,0.117,0.256L44.544,18.99
								C44.467,18.911,44.428,18.823,44.428,18.735L44.428,18.735z"/>
							<path fill="#D8DFE9" d="M44.544,18.99l0.009,68.909c0.038,0.041,0.085,0.076,0.142,0.109c0.06,0.033,0.125,0.063,0.195,0.084
								l-0.008-68.908c-0.07-0.023-0.136-0.052-0.195-0.086C44.63,19.064,44.583,19.028,44.544,18.99L44.544,18.99z"/>
							<path fill="#E8EEF4" d="M44.882,19.184l0.008,68.908c0.152,0.049,0.324,0.07,0.494,0.064l-0.008-68.909
								C45.206,19.254,45.035,19.233,44.882,19.184L44.882,19.184z"/>
							<path fill="#D8DFE9" d="M45.376,19.248l0.008,68.909c0.157-0.004,0.312-0.035,0.447-0.088l-0.009-68.911
								C45.688,19.212,45.533,19.242,45.376,19.248L45.376,19.248z"/>
							<path fill="#D8DFE9" d="M45.823,19.158l0.009,68.911c0.043-0.02,0.086-0.039,0.125-0.061
								c0.175-0.102,0.263-0.236,0.263-0.369l-0.008-68.909c0,0.133-0.087,0.266-0.263,0.368
								C45.91,19.12,45.867,19.14,45.823,19.158L45.823,19.158z"/>
						</g>
					</g>
					<g>
						<path fill="#A4A9C2" d="M44.691,18.367c-0.35,0.202-0.352,0.529-0.004,0.731c0.347,0.202,0.912,0.202,1.262,0
							c0.35-0.202,0.351-0.529,0.004-0.731C45.605,18.165,45.041,18.165,44.691,18.367z"/>
					</g>
				</g>
			</g>
		</g>
		<g>
			<path fill="#13B7FD" d="M14.151,25.36c11.669,0.375,19.061,12.872,30.73,13.248c0-5.662,0-13.292,0-18.953
				C33.212,19.28,25.821,6.783,14.151,6.408C14.151,12.069,14.151,19.699,14.151,25.36z"/>
		</g>
		<polygon fill="#FFFFFF" points="29.516,15.821 27.75,18.935 23.801,17.317 26.658,22.183 25.983,26.335 29.516,26.231 
			33.048,30.415 32.374,25.483 35.232,23.916 31.282,20.974 		"/>
	</g>
	<g>
		<g enable-background="new    ">
			<g>
				<polygon fill="#C1C8DC" points="67.507,52.324 69.772,51.006 69.792,44.31 67.525,45.627 				"/>
			</g>
			<g>
				<polygon fill="#FFFFFF" points="67.525,45.627 69.792,44.31 62.326,39.999 60.06,41.316 				"/>
			</g>
			<g>
				<polygon fill="#D8DFE9" points="60.06,41.316 60.041,48.012 67.507,52.324 67.525,45.627 				"/>
			</g>
		</g>
	</g>
	<path fill="#37404A" d="M68.979,26.854c0.076,0.44,0.054,0.938-0.235,1.279c-0.259,0.303-0.686,0.422-1.083,0.385
		c-0.396-0.037-0.767-0.209-1.112-0.409c-0.88-0.509-1.682-1.267-1.94-2.25c-0.323-1.229,0.712-2.357,1.95-1.909
		C67.709,24.367,68.77,25.672,68.979,26.854z"/>
	<path fill="#FB852A" d="M81.758,46.009c0.057,0.45,0.1,0.886,0.129,1.292c-0.673,0.486-1.447,0.811-2.263,0.975
		c-1.068,0.254-2.349,0.26-3.374-0.202c-0.107-0.364-0.216-0.74-0.324-1.118C77.802,47.722,80.177,47.237,81.758,46.009z"/>
	<path fill="#C1C8DC" d="M47.461,47.611c-0.134,0.098-0.27,0.187-0.413,0.265c-0.691,0.378-1.609,0.511-2.306,0.059
		c-0.106-0.07-0.217-0.182-0.207-0.325c0.025-0.339,0.507-0.29,0.696-0.323c0.331-0.057,0.655-0.167,0.962-0.323
		c0.093-0.048,0.197-0.122,0.209-0.24C46.818,46.938,47.162,47.251,47.461,47.611z"/>
</g>
</svg>
