<?xml version="1.0" encoding="utf-8"?>
<!-- Generator: Adobe Illustrator 17.0.0, SVG Export Plug-In . SVG Version: 6.00 Build 0)  -->
<!DOCTYPE svg PUBLIC "-//W3C//DTD SVG 1.1//EN" "http://www.w3.org/Graphics/SVG/1.1/DTD/svg11.dtd">
<svg version="1.1" id="Layer_1" xmlns="http://www.w3.org/2000/svg" xmlns:xlink="http://www.w3.org/1999/xlink" x="0px" y="0px"
	 width="800px" height="600px" viewBox="0 0 800 600" enable-background="new 0 0 800 600" xml:space="preserve">
<g>
	<path d="M261.243,300.812c-27.412-15.026-56.924-27.298-87.226-35.118c-0.264-2.126-1.221-6.367-0.426-11.13
		c0.586-3.48,1.738-6.886,3.424-10.009c1.271-2.347,1.358-0.827,3.86,0.041c5.675,1.973,9.242-5.561,5.567-9.515
		c-3.483-3.75-9.484-4.215-13.552-1.196c-3.121,2.313-4.39,6.744-5.021,10.403c-0.272,1.607-0.488,3.252-0.648,4.929
		c-5.135-3.546-11.057-4.282-13.537-3.223c-6.219-5.162-14.029-19.199-18.068-20.998c-2.76-1.225-5.617-0.091-6.558,2.841
		c-1.919,6.018,7.262,12.82,10.96,16.093c2.502,2.218,5.264,4.651,8.257,6.574c-1.481,2.047-2.544,4.502-3.184,7.031
		c-6.313-4.984-14.17-8.755-22.073-10.316c-2.606-0.507-5.308,0.561-6.572,2.978c-5.208,9.93,18.591,11.82,27.994,11.812
		c-0.014,0.394,0.008,3.634,0.397,5.332c-7.806-0.781-15.771,0.058-21.689,3.322c-4.506,2.488-1.782,7.99,2.936,7.492
		c3.818-0.403,16.837-4.992,19.862-6.732c3.682,5.266,13.776,7.687,22.607,2.841c30.627,8.9,59.341,21.874,88.998,33.366
		C261.587,309.201,265.217,302.988,261.243,300.812z"/>
	<g>
		<g>
			<path d="M238.021,406.881c0.077-16.126,1.036-32.186,2.76-48.109c0.569-5.258,1.265-10.728,2.147-16.222
				c1.73-10.844,10.819-60.19,14.959-73.069c2.959-9.208-1.987-19.511,0.596-28.511c1.997-6.957,7.102-11.994,8.292-19.337
				c0.999-6.121,0.102-11.678,3.055-17.185c3.808-7.11,10.333-11.255,10.987-19.702c0.309-4.049,2.394-13.726,6.3-19.876
				c3.906-6.155,13.146-29.545,15.067-33.955c4.062-9.336,8.393-18.356,14.577-26.389c12.158-15.786,30.303-24.337,50.495-24.64
				c0.171-3.065,1.489-7.816,4.51-7.517c4.448-4.361,8.985-5.441,14.868-6.412c1.645-0.274,2.731,0.216,3.69,0.311
				c2.909,0.282,2.816-0.411,4.788-1.076c3.024-1.013,6.558,0.751,7.552,0.195c0.991-0.557,3.399,0.561,3.929,0.947
				c1.977,1.47,4.637,4.116,5.296,6.715c9.878-0.332,19.928,4.448,28.533,9.535c8.196,4.834,15.441,9.635,21.272,17.343
				c6.861,9.066,10.731,23.27,14.768,26.912c4.045,3.638,7.117,10.64,7.866,16.234c0.831,6.175,0.955,10.939,5.766,16.155
				c3.082,3.343,4.926,5.503,5.193,9.901c0.21,3.314,2.608,4.797,4.145,12.206c1.271,6.134,2.81,9.527,9.669,14.141
				c7.328,4.93,6.412,14.291,8.231,22.036c1.543,6.591,6.782,5.797,9.751,10.628c2.799,4.564,2.537,9.851,5.395,12.472
				c2.156,1.985,5.067,5.428,5.495,8.235c1.263,8.381,4.789,11.658,8.801,18.643c3.127,5.453,3.999,11.936,6.541,17.642
				c2.334,5.262,5.137,10.366,7.683,15.545c3.667,7.492,6.051,16.463,6.715,23.079c0.66,6.624,6.333,17.771,7.862,26.924
				c1.395,8.273,0.44,16.911,1.395,25.296c2.114,18.568,6.367,39.076,4.054,57.428c-1.757,13.913-4.249,28.482-10.034,41.501
				c-5.698,12.808-13.398,26.451-22.477,35.429c-9.801,9.698-22.055,19.827-36.547,27.63c-15.435,8.315-40.118,15.977-61.44,19.964
				c-41.854,7.829-85.551,9.195-128.373-4.406c-11.687-3.717-28.866-10.167-44.701-29.42
				c-13.321-16.197-22.747-35.463-29.539-54.808C240.664,448.644,237.919,428.206,238.021,406.881z"/>
			<path fill="#8A593B" d="M398.223,66.218c-2.278-0.951-5.412,1.727-7.916,1.246c-1.358-0.258-2.918-0.444-4.049-0.054
				c-1.13,0.403-9.188,2.861-11.032,5.636c2.541,0.12,5.104-0.137,7.583,0.286c1.462,0.262,3.358-1.412,4.662-1.997
				c1.534-0.677,3.555-0.814,5.191-1.266c2.772-0.76,8.238,0.079,9.859-2.521c0.06-0.1,0.141-0.183,0.21-0.278
				C401.138,67.501,399.921,66.92,398.223,66.218z"/>
			<path fill="#9C7259" d="M380.147,69.715c2.672-1.204,5.478-2.077,6.111-2.305c1.132-0.39,2.691-0.204,4.049,0.054
				c2.504,0.481,5.637-2.197,7.916-1.246c1.001,0.415,1.838,0.764,2.685,0.955C394.435,69.74,387.257,69.52,380.147,69.715z"/>
			<path fill="#572F1C" d="M404.645,68.112c-0.658-0.452-1.142,0.959-3.272,2.072c-2.618,1.371-4.761,0.772-6.85,1.034
				c-2.509,0.324-5.16,0.191-7.32,1.42c-1.115,0.631-2.639,2.018-3.765,1.798c-2.224-0.432-3.856-0.257-5.918-0.104
				c-4.217,0.303-7.102,0.311-7.233,5.299c2.581,0.029,5.173,0.179,7.768,0.494c7.247-2.658,14.579-2.118,21.398,0.619
				c2.519-4.215,5.883-6.487,9.674-7.426C407.924,71.364,406.527,69.404,404.645,68.112z"/>
			<path fill="#381A04" d="M381.48,76.493c5.683-1.32,10.503,1.508,15.979-1.042c3.266-1.528,5.679-4.178,8.655-6.092
				c1.175,1.158,2.147,2.558,3.015,3.962c-3.792,0.939-7.156,3.21-9.674,7.426c-6.819-2.737-14.151-3.277-21.398-0.619
				c-1.788-0.216-3.58-0.332-5.361-0.411C375.983,79.031,378.255,77.236,381.48,76.493z"/>
			<path fill="#446B13" d="M251.568,461.834c10.318,33.801,31.208,76.35,73.588,88.14c61.224,17.04,127.268,9.589,179.796-20.009
				c11.888-6.707,25.894-16.999,33.565-24.636c7.663-7.637,19.162-23.265,25.247-36.946c6.408-14.419,9.872-27.572,11.487-43.757
				c2.342-23.373-2.014-35.587-2.762-53.45c-0.403-9.49-0.004-19.698-2.986-28.735c-1.773-5.39-4.884-11.757-5.52-18.689
				c-0.627-6.944-4.037-17.306-8.779-26.833c-2.151-4.331-4.203-8.676-6.068-13.119c-3.281-7.762-3.194-14.756-8.738-21.65
				c-5.453-6.782-5.582-17.135-12.156-23.236c-1.881-1.753-2.452-4.755-2.857-7.01c-0.507-2.824-6.697-6.226-8.572-9.004
				c-5-7.418-2.305-16.587-8.3-24.046c-2.909-3.617-9.457-4.718-10.572-9.93c-1.202-5.619-1.692-9.71-3.995-13.917
				c-1.412-2.583-1.369-5.565-2.303-7.961c-1.074-2.758-3.138-4.922-5.219-7.687c-2.031-2.692-3.746-5.071-4.253-9.319
				c-0.903-7.476-2.103-15.516-9.577-22.721c-7.475-7.21-6.483-20.118-19.842-32.843c-5.65-5.387-14.754-10.939-21.836-13.618
				c-11.39-4.307-19.605-4.967-28.92,1.017c5.835,2.862,11.232,7.276,15.773,12.638c0.318,0.365-0.119,0.922-0.546,0.694
				c-12.907-6.882-24.44-15.275-38.779-9.581c-13.423,5.328-24.914,18.892-32.456,30.649c-0.442,0.689-1.728,0.245-1.462-0.631
				c4.159-13.506,13.942-24.308,25.83-31.593c-1.215,0.004-2.44-0.004-3.694-0.008c-7.754,0.004-14.424,2.131-21.226,5.253
				c-11.062,5.096-19.999,13.431-27.038,23.137c-6.203,8.555-10.81,17.63-14.573,27.601c-2.133,5.648-11.749,25.367-13.582,28.424
				c-4.18,6.944-5.466,13.643-7.683,21.924c-2.176,8.115-9.994,12.285-11.768,21.031c-1.076,5.274,0.27,11.388-2.008,16.496
				c-3.657,8.219-8.032,13.227-7.941,19.685c0.116,8.161,2.498,14.087,0.808,22.165c-1.497,7.139-3.439,14.569-4.915,21.779
				c-2.123,10.403-9.071,47.594-10.181,61.606c-1.19,14.897-2.913,29.599-3.084,44.65
				C243.222,419.556,245.081,440.554,251.568,461.834z"/>
			<path fill="#96C259" d="M334.268,282.754c0.187,0.228,0.357,0.486,0.49,0.789c1.337,3.024,3.773,3.829,6.267,3.431
				c0.205-0.312,0.374-0.656,0.496-1.009c0.266,0.245,0.544,0.481,0.841,0.689c2.396-0.773,4.675-2.504,5.927-4.323
				c0.328-1.587,2.012-2.538,3.511-2.276c0.062-0.133,0.135-0.266,0.195-0.395c0.062,0.158,0.104,0.336,0.17,0.495
				c0.748,0.241,1.418,0.814,1.786,1.815c0.976,2.675,2.687,4.826,5.628,5.212c2.675,0.349,3.063-2.932,3.04-4.805
				c-0.046-3.862,5.958-2.7,6.007,1.121c0.06,5.092-3.03,9.589-8.449,9.656c-2.072,0.029-4.016-0.586-5.727-1.628
				c0.403,2.94,0.851,5.897,1.642,8.593c-0.529-0.208-1.104-0.299-1.69-0.249c-1.734,0.141-2.818,1.985-2.456,3.625
				c0.392,1.811,2.099,2.845,3.833,2.708c0.997-0.083,1.767-0.735,2.18-1.574c1.933,3.352,4.992,5.835,10.179,6.624
				c6.811,1.034,10.169-2.961,10.887-8.315c1.933,3.617,3.665,7.642,7.274,9.273c3.37,1.524,7.926,1.495,9.83-1.956
				c1.915-3.455-1.132-7.712-2.745-10.893c-0.538-1.059-4.032-7.094-0.897-5.599c0.747,0.357,1.483,0.714,2.23,1.072
				c-1.848-4.639-0.936-10.412,3.825-13.36c3.185-1.977,7.01,2.936,3.81,4.921c-2.151,1.333-2.897,3.472-2.434,6.038
				c0.532,2.932,3.113,3.601,5.592,3.161c3.113-0.548,4.253,3.38,2.496,5.175l0.234-2.999c-0.37,0.029-0.723,0.108-1.055,0.208
				c-0.006-0.029-0.012-0.054-0.021-0.083c-0.696,0.183-1.287,0.532-1.773,1.047c-0.085,0.112-0.164,0.228-0.251,0.349
				c-0.091,0.108-0.174,0.224-0.247,0.34c-0.027,0.037-0.056,0.083-0.083,0.117c-0.021,0.05-0.027,0.091-0.048,0.133
				c-0.114,0.233-0.202,0.474-0.266,0.735c-0.013,0.046-0.027,0.091-0.037,0.137c-0.058,0.307-0.096,0.635-0.079,0.988
				c0.014,0.225,0.056,0.453,0.108,0.694c0.037,0.15,0.087,0.299,0.141,0.453c0.023,0.066,0.046,0.133,0.071,0.199
				c0.068,0.162,0.137,0.316,0.225,0.465c0.05,0.087,0.104,0.174,0.158,0.253c0.06,0.099,0.122,0.203,0.193,0.299
				c0.324,0.457,0.723,0.847,1.186,1.138c0.421,0.307,0.743,0.428,0.988,0.415c0.058,0.017,0.11,0.046,0.166,0.058
				c-0.002-0.025,0.004-0.046,0.008-0.071c0.679-0.241,0.598-1.856,0.293-3.759c0.012-0.183,0.031-0.37,0.043-0.557
				c3.736,1.686,7.586,3.048,11.17,3.306c-0.071,0.532-0.06,1.071,0.071,1.582c0.633,2.554,3.015,3.812,5.426,3.613
				c2.415-0.204,3.8-2.932,3.25-5.146c-0.635-2.55-3.021-3.8-5.43-3.605c-0.042,0.004-0.079,0.017-0.125,0.025
				c-0.461-0.449-0.8-1.034-0.908-1.744c-0.154-0.989,0.262-2.043,1.016-2.666c-0.403-0.615-0.825-1.229-1.246-1.798
				c1.491,0.241,2.969,0.589,4.448,0.972c1.753-0.536,3.03-1.886,2.77-4.02c-0.474-3.854,5.496-4.361,5.974-0.49
				c0.01,0.075-0.002,0.145,0.008,0.22c0.453,0.565,0.727,1.287,0.663,2.168c-0.011,0.1,0.008,0.212,0.002,0.312
				c0.228,0.249,0.427,0.536,0.586,0.88c0.172,0.378,0.394,0.785,0.606,1.188c-2.037,1.641-2.39,5.407,0.691,6.678
				c0.671,0.183,1.348,0.361,2.023,0.548c0.409-0.033,0.802-0.125,1.175-0.253c-0.031,0.05-0.063,0.108-0.117,0.12
				c1.267-0.307,2.033-1.096,2.399-2.064c0.237-0.511,0.364-1.096,0.326-1.765c-0.029-0.411-0.133-0.818-0.282-1.204
				c0.378-0.066,0.756-0.137,1.14-0.233c0.079-0.017,0.15-0.054,0.222-0.079c-0.185,0.544-0.241,1.134-0.11,1.699
				c0.405,1.798,2.103,2.795,3.821,2.654c1.719-0.145,2.768-1.994,2.401-3.609c-0.409-1.794-2.103-2.795-3.821-2.658
				c-0.947,0.083-1.686,0.689-2.101,1.487c-1.852-0.802-3.536-2.231-4.724-4.461c-1.526-2.865,2.201-5.091,4.539-3.318
				c1.873,1.42,3.968,2.13,5.572,1.711c0.569-2.454,0.151-5.083-1.75-6.998c-4.763-4.793-12.804-5.685-19.36-5.17
				c0.993,0.777,1.603,2.052,1.072,3.476c-3.131,8.464-16.575,13.032-20.736,1.79c-1.371-3.701,4.132-5.777,5.513-2.064
				c2.172,5.864,8.213,1.412,9.594-2.326c0.048-0.125,0.108-0.22,0.16-0.328c-0.85,0.133-1.705,0.295-2.492,0.59
				c-0.534-1.981-0.203-3.838,0.999-5.545c1.424-0.818,2.928-1.428,4.433-2.118c3.331-1.533,5.93-3.318,7.419-6.744
				c0.565-1.3-0.247-2.621-1.709-2.803c-1.565-0.195-3.584-0.378-5.602-0.74c-6.442,7.987-22.809,9.253-22.771-4.074
				c0.012-3.854,6.011-2.699,6.001,1.121c-0.006,4.498,6.618,3.547,10.491,0.233c0.083-0.191,0.297-0.386,0.61-0.569
				c1.539-1.549,2.463-3.505,1.987-5.627c-0.029-0.137-0.027-0.258-0.043-0.387c-3.684,0.411-7.598-1.104-10.022-4.203
				c-2.487-3.161,2.203-6.599,4.683-3.443c2.305,2.94,7.573,2.081,7.096-1.906c-0.457-3.862,5.507-4.365,5.968-0.495
				c0.388,3.281-0.621,6.209-2.865,8.078c0.546,0.436,0.972,1.038,1.154,1.864c0.33,1.474,0.345,2.874,0.127,4.191
				c2.382-0.228,4.766-0.453,7.129-0.797c0.438-0.066,0.911-0.137,1.371-0.195c0.22-1.279,0.39-2.563,0.386-3.883
				c-0.197-0.324-0.409-0.627-0.644-0.918c-2.471-3.177,2.218-6.607,4.687-3.447c0.586,0.76,1.098,1.591,1.557,2.455
				c0.116,0.029,0.226,0.083,0.336,0.133c-0.158,0.498-0.218,1.034-0.116,1.582c0.195,1.055,0.858,1.902,1.719,2.425
				c-0.014,0.075-0.021,0.141-0.029,0.212c0.081-0.021,0.168-0.05,0.253-0.066c0.615,0.311,1.312,0.469,2.016,0.411
				c1.831-0.15,3.05-1.94,2.718-3.725c-0.274-1.458-1.42-2.542-2.783-2.878c-0.066-0.257-0.139-0.498-0.232-0.697
				c-0.081-0.187-0.135-0.37-0.177-0.548c-1.032-1.483-0.771-3.779,1.094-4.485c3.792-1.42,4.058-4.473,1.198-6.923
				c-3.289-1.554-7.054-2.126-10.106-0.972c-3.213,1.213-5.719,3.335-9.521,0.822c-0.243-0.158-0.457-0.316-0.66-0.461
				c-2.465-0.631-4.263-2.492-5.459-4.813c-0.382-0.756-0.822-1.915-1.462-3.372c-0.64-1.458,1.657-0.145,3.609-0.876
				c1.582-0.598,2.172-2.442,1.819-4.207c-0.262-1.304-1.001-2.363-1.997-3.069c-0.92-0.66-2.839,0.046-3.216-1.001
				c-0.378-1.047,0.868-1.636,1.73-2.01c0.64-0.27,1.414-0.32,2.265-0.009c1.167,0.424,2.461,0.573,3.676,0.698
				c0.65,0.066,3.482-1.931,4.591-2.097c-1.433-1.603-3.163-3.036-5.312-2.504c-1.466,0.357-2.718,0.955-4.093,1.545
				c-2.072,1.483-4.535,0.195-4.759-1.595c-0.22-1.794,8.478-4.008,6.95-7.256c-1.528-3.248-6.558-1.744-8.919-4.714
				c-2.498-3.152,2.182-6.582,4.683-3.443c2.384,2.999,5.424,2.77,7.428-0.112c1.756-2.521,0.862-6.064-1.61-5.611
				c-4.167,0.764-9.052,3.509-13.487,2.608c-4.407-0.893-5.576-4.984-5.237-8.83c0.546-6.229,4.132-5.727,8.545-3.543
				c1.364,0.677,2.976,1.329,4.678,1.861c0.696-2.861,2.672-4.415,6.086-4.759c3.995-0.411,4.251-2.666,3.678-6.308
				c-0.6-3.825-1.447-7.268-4.375-10.192c-0.488-0.482-0.773-1.03-0.92-1.574c-0.578-0.12-1.161-0.191-1.763-0.179
				c-7.866,0.224-17.783,10.736-18.942-2.197c6.286,0.104,15.587,1.233,18.552-4.568c2.22-4.356-0.922-6.342-4.738-7.156
				c-1.248,3.335-3.842,5.856-8.009,5.86c-1.636,0-3.175-1.018-3.443-2.745c-0.239-1.537,0.874-3.239,2.513-3.244
				c1.4,0,2.396-0.278,3.04-1.528c0.756-1.47,0.828-3.231,0.799-4.909c-0.025-1.296,1.161-2.193,2.378-2.384
				c-0.814-1.296-2.128-2.496-3.582-2.139c-2.382,0.578-3.397,4.789-4.398,6.545c-0.65,1.13-4.905-4.415-6.24-6.437
				c-0.042-0.34-0.26-0.685-0.708-0.851c-2.081-0.785-10.148-8.26-12.046-4.929c-0.771,1.349,0.833,9.087,0.457,9.049
				c-8.057-0.768-5.081-9.639-5.551-14.569c-0.465-4.917-6.937-10.603-11.853-9.722c-3.885,0.689-1.074,8.771-0.397,10.885
				c0.091,0.295,0.227,0.743,0.399,1.292c-0.158,0-0.305-0.021-0.467-0.009c-2.575,0.208-3.644,2.064-3.551,4.053
				c0.191,0.112,0.378,0.262,0.56,0.436c2.67,2.541,6.115,3.298,7.349-0.544c1.161-3.6,6.757-0.988,5.605,2.6
				c-1.146,3.567-3.81,5.495-6.867,5.922c0.216,3.485-0.415,6.18-2.957,5.956c-4.792-0.424-9.595-6.329-13.223-9.216
				c-3.152-2.513-5.983-4.053-8.443-4.568c0.625-0.365,1.067-0.988,1.279-1.699c0.004,0.009,0.014,0.021,0.023,0.029
				c0.305-0.166,0.216-0.872,0.058-1.483c-0.008-0.037-0.006-0.075-0.01-0.108c-0.056-0.233-0.139-0.452-0.241-0.669
				c-0.02-0.054-0.048-0.104-0.062-0.137c-0.025-0.05-0.06-0.087-0.089-0.133c-0.091-0.149-0.193-0.295-0.308-0.436
				c-0.05-0.067-0.1-0.133-0.158-0.195c-0.179-0.183-0.365-0.361-0.577-0.498c-0.243-0.166-0.492-0.291-0.752-0.382
				c-0.023-0.004-0.04-0.004-0.06-0.012c-0.237-0.079-0.474-0.141-0.721-0.166c0.004,0,0.004,0.004,0.004,0.004
				c-0.552-0.058-1.107,0.029-1.603,0.258c-2.043,0.963-2.218,4.086-0.125,5.415c0.166,0.042,0.33,0.079,0.496,0.117
				c-2.766,0.461-4.832,2.762-6.072,7.048c3.233,1.52,7.102,2.425,7.903-0.827c0.903-3.63,6.892-2.567,5.984,1.126
				c-0.886,3.584-2.936,5.532-5.509,6.342c2.426,0.885,4.807,1.923,7.004,3.098c3.64,1.961,8.657,8.85,2.228,10.429
				c-2.334,0.577-4.707,0.656-7.139,0.702c-7.093,0.125-12.995,2.147-18.269,6.79c-4.639,4.083-6.639,9.863-1.073,14.922
				c3.497,3.185,8.489,0.718,12.866-1.661c0.28-1.047,0.172-1.89-0.694-2.143c-3.746-1.104-3.096-7.023,0.7-5.901
				c8.693,2.575,6.132,11.857,2.226,16.89c-3.773,4.859-9.322,7.26-15.047,6.741c-4.157,3.551-6.813,7.7-4.49,13.767
				c1.213,3.156,4.012,5.96,7.119,7.197c2.07,0.826,3.976-0.141,5.835-1.059c-2.934-0.623-5.37-2.957-6.813-5.927
				c-1.742-3.592,3.775-5.636,5.505-2.064c1.852,3.821,5.553,1.574,6.122-1.62c0.658-3.738,6.657-2.65,5.991,1.121
				c-0.578,3.256-2.481,6.117-5.355,7.625c1.086,0.524,2.195,1.645,3.355,3.717c2.255,4.02,2.994,7.637,1.636,10.656
				c0.49,1.495,1.51,2.832,2.951,3.958c2.035,1.574,4.311,1.736,4.863-0.905c0.762-3.705,6.765-2.625,5.995,1.117
				c-1.217,5.872-6.19,8.514-12.009,5.848c-2.537-1.159-4.684-3.161-6.152-5.532c0,0-0.013,0.004-0.017,0.008
				c-2.55,1.491-4.65,1.454-6.82,0.162c-1.457,1.674-3.129,3.759-4.012,5.914c0.035,0.66,0.116,1.32,0.183,1.985
				c0.44,0.212,0.872,0.511,1.233,1.021c0.264,0.361,0.552,0.735,0.868,1.109c0.081,0.046,0.172,0.087,0.256,0.129
				c0.947,0.507,1.671,1.3,2.16,2.205c1.835,1.35,4.001,1.977,6.198,0.403c1.605-1.146,3.74-0.336,4.658,1.433
				c2.702,5.22,10.817,3.044,10.366-2.496c-0.311-3.85,5.65-4.365,5.97-0.49c0.905,11.209-12.879,15.682-19.904,7.882
				c-2.66,0.913-5.42,0.581-7.982-0.573c-0.262,0.233-0.55,0.428-0.882,0.59c-0.547,0.174-1.036,0.424-1.477,0.76
				c-0.777,0.54-1.879,1.266-2.112,2.293c-0.706,3.056-1.086,6.221-1.212,9.407c1.42,1.225,3.015,2.201,4.849,2.683
				c3.684,0.959,6.047-2.484,7.594-5.079c1.919-3.218,6.769,0.706,4.87,3.887c-2.504,4.203-6.672,8.086-12.202,7.239
				c-0.501-0.075-0.988-0.179-1.468-0.307c0.004-0.316-0.027-0.627-0.094-0.93c-0.592-2.583-3.011-3.987-5.469-3.779
				c-2.463,0.199-3.947,2.874-3.429,5.179c0.59,2.579,3.013,3.983,5.468,3.783c0.12-0.012,0.23-0.054,0.343-0.071
				c0.174,1.342,0.405,2.683,0.766,3.954c-0.23-0.025-0.465-0.037-0.72-0.012C335.985,280.532,334.847,281.517,334.268,282.754z
				 M366.107,216.534c3.495,6.172,14.148,0.395,9.972-5.025c-2.457-3.173,2.228-6.608,4.682-3.439
				c4.353,5.64,2.002,12.334-3.434,15.466c-6.041,3.484-13.084,1.495-16.729-4.946C358.632,215.113,364.164,213.104,366.107,216.534
				z M372.974,196.661c-2.097-3.364,2.564-6.823,4.681-3.443c2.195,3.513,6.636,3.355,9.184,0.681
				c2.552-2.691,7.442,1.175,4.866,3.879C386.854,202.887,377.451,203.821,372.974,196.661z M374.694,176.619
				c1.217,10.964-12.472,18.56-20.157,8.493c-2.436-3.194,2.251-6.636,4.678-3.451c3.786,4.967,10.092,0.581,9.523-4.556
				C368.308,173.251,374.26,172.748,374.694,176.619z M390.361,165.019c-4.556,12.218-26.162-3.14-19.777-10.619
				c2.363-2.766,7.033,0.848,5.008,3.667c0.143,0.32,0.316,0.611,0.513,0.889c0.851,1.204,2.006,2.139,3.194,2.991
				c1.767,1.266,4.61,2.737,5.449,0.481C386.071,158.885,391.68,161.485,390.361,165.019z M387.311,149.441
				c-1.742-3.592,3.759-5.627,5.492-2.06c3.065,6.321,12.796-0.453,8.904-4.315c-2.82-2.791,0.698-7.409,3.551-4.577
				C416.855,149.989,394.558,164.38,387.311,149.441z M406.616,177.013c-5.775,4.232-14.548,0.174-16.863-6.541
				c-1.279-3.717,4.209-5.793,5.495-2.06c1.962,5.685,6.614,4.34,10.054,1.773c2.44-1.819,8.356,0.478,9.069-3.343
				c0.693-3.725,6.688-2.637,5.993,1.121c-0.583,3.11-1.9,4.672-4.61,6.134C412.611,175.788,409.49,174.9,406.616,177.013z
				 M399.948,190.893c1.271,2.903,4.838,3.476,6.487,0.98c2.081-3.115,6.936,0.793,4.878,3.891
				c-4.117,6.188-13.844,4.103-16.861-2.816C392.859,189.311,398.364,187.255,399.948,190.893z M401.4,229.969
				c0.28-3.833,6.277-2.708,6.001,1.121c-0.432,5.96,9.656,4.361,8.67-0.295c-0.816-3.841,5.15-4.311,5.964-0.486
				c1.31,6.171-4.197,10.108-9.695,10.557C405.756,241.406,400.937,236.41,401.4,229.969z M376.776,231.875
				c-2.757-2.936,1.964-6.342,4.685-3.447c2.137,2.276,10.522,2.907,8.472-1.624c-0.632-1.37-0.054-3.501,1.509-3.854
				c2.532-0.565,4.82-1.238,4.026-4.344c-0.716-2.824,2.359-3.8,4.407-2.579c0.546-2.185,3.526-3.447,5.145-0.959
				c2.7,4.153,9.837,0.818,8.15-3.642c-1.4-3.696,4.101-5.768,5.501-2.064c3.798,10.05-9.741,18.319-16.968,10.873
				c0.094,3.605-2.122,6.18-5.336,7.567C397.691,236.971,382.871,238.358,376.776,231.875z M396.136,247.025
				c-3.568,13.36-27.774,0.926-19.565-9.008c2.378-2.882,7.257,0.992,4.865,3.883c-1.35,1.645,1.211,3.335,3.148,4.24
				c2.591,1.209,5.173,1.134,5.93-1.711C391.493,240.767,397.101,243.4,396.136,247.025z M387.894,270.573
				c1.715,1.258,3.511-0.573,4.305-1.981c1.275-2.239,1.478-4.942-0.953-6.67c-3.281-2.33,0.303-6.898,3.565-4.581
				c10.177,7.23,0.106,25.595-10.484,17.8C381.085,272.762,384.665,268.194,387.894,270.573z M373.074,278.07
				c-3.8-0.967-3.138-6.881,0.704-5.897c1.909,0.49,2.953,0.17,3.304-1.802c0.336-1.898-0.174-4.112-1.369-5.744
				c-2.359-3.239,2.33-6.687,4.695-3.443C385.371,267.986,383.496,280.748,373.074,278.07z M377.171,291.953
				c-1.576-3.651,3.945-5.698,5.523-2.06c3.867,8.954-6.632,15.379-14.494,11.55c-3.586-1.748-1.381-7.176,2.222-5.415
				C373.286,297.423,378.861,295.861,377.171,291.953z"/>
			<path fill="#2E4F00" d="M243.472,397.794c0.17-15.051,1.894-29.752,3.084-44.65c1.111-14.012,8.059-51.203,10.181-61.606
				c1.476-7.21,3.418-14.64,4.915-21.779c1.69-8.078-0.691-14.004-0.808-22.165c-0.091-6.458,4.284-11.467,7.941-19.685
				c2.278-5.108,0.932-11.222,2.008-16.496c1.773-8.746,9.592-12.916,11.768-21.031c2.218-8.281,3.503-14.98,7.683-21.924
				c1.833-3.056,11.45-22.775,13.582-28.424c3.287-8.717,7.222-16.745,12.304-24.341c-0.112,0.967-0.216,1.935-0.318,2.932
				c-0.717,7.139-3.019,13.772-5.021,20.545c-3.765,12.692-7.673,25.533-9.801,38.74c-2.131,13.248-2.07,26.721-2.546,40.201
				c-0.239,6.74-0.395,13.456-2.064,19.918c-1.543,5.989-3.341,11.828-3.891,18.07c-0.172,1.977,2.307,3.073,3.547,1.632
				c-1.46,1.694-0.397,1.125,1.277,2.82c1.858,1.873,5.056,4.9,3.63,7.824c-1.477,3.019-3.767,5.391-4.888,8.605
				c-1.531,4.406,2.184,11.18,4.996,14.677c6.456,8.016,11.186,15.105,10.848,25.495c-0.166,4.997,1.755,8.535,4.805,12.538
				c0.104,0.241,0.258,0.461,0.453,0.656c2.973,2.878,6.273,5.478,9.361,8.235c2.515,2.251,5.037,4.502,7.459,6.852
				c0.932,0.91,1.894,1.807,2.753,2.787c0.279,0.32,0.47,0.54,0.609,0.685c-0.197,0.98,0.293,2.093,1.638,2.309
				c8.852,1.458,18.533-1.051,27.161-2.06c1.52-0.17,4.67-1.084,6.192-0.731c2.45,0.573,5.023,1.923,7.517,2.134
				c3.107,0.262,4.83-1.113,6.443-3.696c2.45-3.941,4.195-8.647,9.803-9.324c3.947-0.473,7.887-0.723,11.894-0.781
				c5.677-0.075,12.588,0.503,17.829-1.603c3.266-1.312,5.926-5,8.493-7.259c4.747-4.17,9.066-0.494,14.797-0.091
				c8.759,0.627,17.628-13.767,21.527-19.569c4.101-6.105,5.127-9.942,6.454-17.185c1.404-7.704,3.333-15.462,2.768-23.473
				c-0.966-13.73-7.073-26.496-8.084-40.268c-0.372-5.071,0.042-11.309-2.068-16.143c-1.298-2.986-5.347-4.56-7.15-7.152
				c-3.6-5.199,4.087-11.774,1.983-18.074c-3.071-9.186-7.718-18.032-11.473-26.995c-4.315-10.304-10.084-22.119-10.551-33.204
				c-0.222-5.258,2.409-6.388,7.247-3.962c7.748,3.883,11.521,10.711,14.632,18.46c7.393,18.444,12.59,37.639,20.551,55.904
				c2.186,5.03,4.091,9.781,7.297,14.345c2.945,4.19,6.973,8.501,8.995,13.194c3.869,8.954,2.21,19.345,6.859,27.917
				c4.278,7.882,12.52,10.071,18.845,15.939c8.219,7.617,6.175,19.042,12.675,27.522c4.651,6.064,10.146,9.606,17.443,11.541
				c0.877,0.224,1.757,0.444,2.65,0.66c2.322,6.155,3.879,12.027,4.277,16.487c0.635,6.932,3.746,13.298,5.52,18.689
				c2.982,9.037,2.583,19.245,2.986,28.735c0.748,17.862,4.672,36.003,2.33,59.376c-1.62,16.18-4.22,26.297-9.693,41.099
				c-12.243,33.129-37.859,51.12-49.75,57.823c-52.527,29.599-128.996,37.54-190.22,20.499c-42.38-11.79-63.269-54.338-73.588-88.14
				C245.081,440.554,243.222,419.556,243.472,397.794z"/>
			<path d="M425.712,212.244c0.691,2.014,1.962,3.227,4.228,3.131c1.902-0.087,3.493-2.292,3.642-4.24
				c0.193-2.521-1.4-4.826-2.367-5.906c-0.962-1.084,3.138-1.209,5.121,3.725c0.922,2.296,0.509,4.635-0.756,6.607
				c-1.292,2.006-3.584,2.645-5.935,2.359c-2.868-0.345-4.178-1.761-4.783-4.253C424.462,212.032,425.471,211.521,425.712,212.244z"
				/>
			<path d="M406.061,228.632c0.22-1.84,1.649-2.118,1.437-1.487c-0.521,1.562-0.533,3.127,0.403,4.951
				c0.939,1.827,2.641,2.122,4.755,1.732c2.112-0.39,3.206-2.031,3.161-4.647c-0.006-0.54,0.772-0.802,0.984-0.195
				c0.791,2.164,0.924,4.523-0.675,6.188c-1.26,1.325-3.231,1.782-5.093,1.487c-0.934-0.141-2.61-0.236-3.883-1.952
				C405.754,232.843,405.81,230.683,406.061,228.632z"/>
			<path d="M416.534,241.548c0.247-0.32,1.715-0.656,1.613,0.137c-0.33,2.537-0.201,4.277,3.404,4.481
				c2.608,0.149,2.93-3.713,2.455-5.665c-0.154-0.648,0.859-0.781,1.086-0.195c0.747,1.873,1.189,3.738,0.372,5.544
				c-0.688,1.516-2.108,2.558-3.782,2.828C417.944,249.276,414.202,244.671,416.534,241.548z"/>
			<path d="M410.668,254.073c0.627-0.145,1.65,0.71,1.252,1.159c-1.101,1.263-1.348,3.161,0.037,5.029
				c1.47,1.994,3.418,3.04,5.397,1.616c1.281-0.91,2.342-2.052,3.646-2.953c1.809-1.234,2.816-2.259,2.035-4.693
				c-0.235-0.74,0.797-1.213,1.219-0.511c1.423,2.355,1.736,4.419-0.046,6.471c-1.036,1.192-2.531,2.006-3.632,3.165
				c-0.98,1.017-2.271,2.184-3.744,2.475C410.921,266.969,403.655,255.78,410.668,254.073z"/>
			<path d="M395.339,163.246c0.604-0.191,1.619,0.037,1.493,0.656c-1.273,6.342,3.736,6.923,5.403,6.769
				c3.092-0.282,4.515-4.684,4.074-8.431c-0.089-0.789,2.288-0.619,1.784,4.834c6.85,2.38,6.736-4.871,1.724-8.676
				c-0.6-0.453,0.577-0.885,2.026-0.096c1.732,0.951,5.167,3.625,4.259,8.364c-0.781,4.066-5.069,5.503-8.481,3.941
				c-1.439,2.903-4.604,4.244-7.168,3.962c-2.726-0.303-5.129-1.873-6.462-4.356C392.755,167.914,392.508,164.131,395.339,163.246z"
				/>
			<path d="M378.06,149.923c0.656-0.199,1.321,0.681,0.951,1.229c-0.974,1.474-2.891,3.048-2.317,5.091
				c0.409,1.454,1.451,2.687,2.839,3.647c2.783,1.931,6.952,2.047,6.215-2.301c-0.106-0.627,0.908-0.818,1.084-0.191
				c0.687,2.417,1.123,5.362-1.472,6.541c-2.164,0.985-4.853,0.116-6.944-1.005c-2.228-1.196-4.201-3.244-4.762-5.715
				C372.918,153.993,375.177,150.803,378.06,149.923z"/>
			<path d="M402.38,211.616c0.322-0.523,1.18-0.556,1.597-0.033c0.916,1.159,0.964,2.637,2.064,3.663
				c0.808,0.747,2.056,0.88,3.028,0.681c3.314-0.66,3.09-4.622,2.085-7.247c-0.208-0.544,0.536-0.943,0.882-0.44
				c1.397,1.997,2.598,4.477,1.871,6.811c-0.575,1.861-2.07,3.185-3.941,3.7c-1.769,0.49-3.883,0.095-5.455-1.03
				C402.596,216.355,401.113,213.648,402.38,211.616z"/>
			<path d="M397.849,187.338c-0.023-2.027,1.391-2.401,1.449-1.857c0.436,4.245,2.5,4.951,4.824,5.486
				c2.527,0.581,4.02-1.072,3.509-3.692c-0.152-0.802,1.117-0.913,1.366-0.17c1.24,3.754-0.122,6.715-4.33,6.549
				C401.57,193.53,397.903,191.973,397.849,187.338z"/>
			<path d="M375.904,189.053c0.212-0.768,1.298-0.797,1.699-0.075c1.306,2.376,2.57,5.283,5.7,4.934
				c2.978-0.328,5.258-3.273,4.101-6.296c-0.278-0.723,0.764-1.022,1.084-0.341c2.151,4.568,0.384,9.008-4.689,9.834
				c-1.935,0.307-4.033-0.228-5.656-1.482c-0.982-0.756-1.694-1.773-2.249-2.849C375.211,191.441,375.56,190.328,375.904,189.053z"
				/>
			<path d="M367.476,213.813c0.565,1.209,0.772,2.446,2.114,3.073c1.169,0.552,2.454,0.573,3.567,0.05
				c3.489-1.624,1.989-5.91,0.112-8.518c-0.436-0.602,0.405-1.117,0.879-0.586c1.786,1.981,3.264,4.265,3.175,6.915
				c-0.071,2.031-1.352,3.742-3.009,4.709c-1.655,0.972-3.81,1.192-5.729,0.615c-2.245-0.669-4.564-3.106-4.712-5.457
				C363.744,212.543,366.504,211.741,367.476,213.813z"/>
			<path d="M379.098,225.824c0.077-0.582,0.868-0.752,1.325-0.444c2.052,1.337,2.878,3.364,5.594,3.36
				c2.33,0.004,4.07-1.993,4.058-4.215c-2.234,0.071-4.492-0.868-5.25-3.215c-0.202-0.61,0.469-1.262,1.084-1.001
				c2.095,0.91,3.53,1.927,5.739,1.084c2.338-0.885,3.505-3.887,2.087-6.143c-0.396-0.64,0.438-1.179,0.912-0.594
				c2.539,3.086,2.234,6.483-0.829,8.676c-0.716,0.511-1.615,0.872-2.573,1.055c1.019,3.526-0.625,6.686-4.353,7.243
				C383.701,232.112,378.558,229.67,379.098,225.824z"/>
			<path d="M378.815,239.625c0.677-1.641,1.896-2.355,3.298-2.919c1.273-0.515,2.322,1.308,1.551,2.242
				c0.017,0-0.031,0.091-0.247,0.395c-0.214,0.32-0.427,0.606-0.697,0.889c-0.15,0.154-0.15,0.162-0.322,0.398
				c-0.031,0.05-0.202,0.374-0.235,0.411c-0.054,0.12-0.094,0.257-0.133,0.382c0.006,0.021-0.056,0.32-0.054,0.39
				c0.004-0.179,0.168,0.764,0.068,0.503c0.519,1.346,1.705,2.242,3.227,2.982c0.501,0.236,1.395,0.519,2.093,0.569
				c0.768,0.062,1.235-0.037,1.723-0.357c1.371-0.93,0.899-3.95,0.411-5.532c-0.235-0.76,0.793-1.063,1.124-0.345
				c1.101,2.384,2.4,5.515,0.455,7.634c-1.578,1.715-4.319,1.591-6.493,0.864c-2.257-0.752-4.562-2.334-5.58-4.568
				C378.427,242.312,378.309,240.85,378.815,239.625z"/>
			<path d="M361.402,148.453c0.631-1.138,1.663-1.977,2.928-2.359c3.139-0.967,5.471,1.79,6.196,4.647
				c0.233,0.889-0.953,1.179-1.329,0.336c-0.65-1.454-2.427-2.949-3.91-1.811c-0.538,0.407-0.758,1.013-0.831,1.686
				c-0.145,1.283,0.117,2.151-0.976,3.044c-0.316,0.253-0.81,0.262-1.196,0.096C359.921,153.025,360.486,150.114,361.402,148.453z"
				/>
			<path d="M344.215,160.933c0.654-1.894,2.205-3.173,4.12-3.725c1.773-0.503,3.979,0.021,5.468,1.242
				c1.763,1.433,1.956,3.825,1.748,5.806c-0.064,0.623-1.098,0.544-1.119-0.1c-0.112-3.177-2.419-5.088-5.401-4.145
				c-2.932,0.93-2.237,4.735-1.385,7.11c0.233,0.631-0.561,1.109-1.059,0.643C344.57,165.863,343.292,163.62,344.215,160.933z"/>
			<path d="M334.386,180.685c0.39-0.498,1.543-0.714,1.568-0.037c0.1,2.168,1.387,4.282,2.861,4.685
				c1.506,0.407,3.125-0.39,4.328-1.275c3.05-2.251,4.338-6.512,0.158-8.825c-0.795-0.432-0.328-1.74,0.532-1.412
				c2.801,1.072,5.615,3.115,5.412,6.4c-0.172,2.795-2.029,5.233-4.149,6.824c-2.079,1.574-4.9,2.587-7.598,1.528
				C334.642,187.458,332.525,183.11,334.386,180.685z"/>
			<path d="M356.746,177.321c0.214-0.403,0.76-0.478,1.171-0.345c1.753,0.59,2.34,2.916,4.16,3.377
				c1.256,0.324,2.45-0.112,3.441-0.768c1.026-0.673,1.856-1.889,1.939-3.156c0.112-1.719-1.526-2.953-2.934-3.621
				c-0.623-0.303-0.241-1.167,0.378-0.926c2.166,0.856,4.13,2.205,4.67,4.573c0.496,2.176-0.613,4.328-2.11,5.685
				c-1.667,1.512-3.97,2.168-6.282,1.545C358.746,183.027,355.359,179.925,356.746,177.321z"/>
			<path d="M321.383,162.964c0.23-0.532,0.97-0.424,1.275,0.025c0.924,1.32,1.221,2.932,2.38,4.136
				c0.592,0.611,1.209,0.573,1.813,0.262c2.639-1.35,1.79-5.956,0.816-8.398c-0.307-0.756,0.777-1.15,1.212-0.507
				c1.608,2.363,2.633,4.805,2.216,7.571c-0.262,1.79-1.308,3.455-2.94,4.22C323.949,172.212,319.722,166.83,321.383,162.964z"/>
			<path d="M302.983,189.838c0.287-0.573,1.302-0.498,1.58,0.125c0.924,2.097,1.202,4.519,3.866,5.229
				c2.137,0.573,3.954-1.208,4.461-3.061c0.671-2.442-1.283-6.288-1.954-8.759c-0.21-0.797,0.872-1.283,1.318-0.523
				c2.185,3.659,5.443,8.505,3.225,12.368c0.671,1.051,1.281,2.097,2.746,2.047c2.188-0.066,3.875-2.214,4.346-4.124
				c0.166-0.681,1.196-0.486,1.117,0.237c-0.285,2.778-1.929,5.66-4.822,6.234c-1.923,0.374-4.12-0.689-5.229-2.35
				c-1.983,1.553-4.506,2.16-7.066,0.897C303.749,196.761,301.619,192.604,302.983,189.838z"/>
			<path d="M331.213,210.051c0.567-0.532,1.516,0.145,1.181,0.876c-0.787,1.69-1.946,4.274-0.349,5.981
				c0.947,1.017,2.531,1.844,3.847,2.16c1.472,0.361,2.974,0.424,4.255-0.382c1.167-0.731,0.779-3.181,0.033-4.531
				c-0.424-0.748,0.538-1.341,1.07-0.652c1.869,2.417,3.326,4.951,1.213,7.447c-1.479,1.727-4.411,1.948-6.602,1.682
				c-2.637-0.316-5.549-1.661-6.68-4.265C327.82,215.226,328.914,212.198,331.213,210.051z"/>
			<path d="M304.54,232.166c0.563-1.686,1.9-1.508,1.755-1.063c-0.523,1.541,0.689,3.841,3.484,3.463
				c2.531-0.341,2.882-3.422,1.798-5.561c-0.378-0.739,0.504-1.312,1.038-0.644c2.562,3.181,1.95,7.654-1.8,9.079
				c-1.402,0.54-3.086,0.411-4.413-0.503C304.615,235.713,304.046,233.657,304.54,232.166z"/>
			<path d="M381.845,119.207c1.41-1.271,4.012-0.897,5.688,0.025c1.466,0.814,2.438,2.172,2.857,3.75
				c1.001,3.742-2.149,6.159-5.586,5.827c-0.797-0.079-0.945-1.229-0.118-1.258c2.405-0.096,4.41-1.707,3.746-4.286
				c-0.241-0.935-0.988-1.724-1.84-2.147c-1.433-0.71-2.878-0.096-4.34-0.436C381.59,120.532,381.407,119.606,381.845,119.207z"/>
			<path d="M368.429,112.276c0.993-0.125,2.133,0.208,2.94,0.872c1.101,0.897,1.136,2.313,1.302,3.555
				c0.091,0.706-1.057,0.901-1.223,0.183c-0.326-1.358-1.57-2.33-2.909-1.981c-1.505,0.39-2.29,1.873-3.499,2.679
				c-0.42,0.287-1.176-0.079-1.255-0.594C363.354,114.315,366.109,112.571,368.429,112.276z"/>
			<path d="M400.33,126.895c3.056-0.818,6.718,0.203,7.745,3.708c0.421,1.437,0.127,2.886-0.793,3.958
				c-1.036,1.192-3.615,2.106-5.088,0.913c-0.447-0.361-0.675-1.076-0.183-1.462c1.42-1.113,4.377-0.486,3.831-3.19
				c-0.467-2.342-3.285-3.215-5.247-2.928C400.029,127.979,399.782,127.048,400.33,126.895z"/>
			<path d="M392.911,145.33c2.031,1.545,4.07,3.057,6.244,1.346c2.083-1.64,1.464-4.519-0.484-6.25
				c-0.559-0.503,0.081-1.204,0.674-0.814c3.173,2.11,4.166,5.86,1.699,8.622c-2.708,3.024-8.15,2.471-9.401-2.014
				C391.451,145.529,392.274,144.844,392.911,145.33z"/>
			<path d="M338.469,236.742c0.496-3.119,3.46-6.342,6.751-6.404c0.903-0.017,1.755,1.03,1.119,1.819
				c-1.539,1.89-4.114,2.733-4.73,5.329c-0.372,1.574,0.637,3.19,1.784,4.277c3.586,3.431,8.572,1.616,10.659-1.952
				c0.398-0.677,1.701-0.216,1.41,0.59c-0.395,1.096-0.878,2.081-1.482,2.94c0.569,2.222,2.147,3.443,3.815,4.394
				c1.046,0.594,2.398,0.511,3.401,0.054c2.953-1.35,2.496-4.547,0.641-6.923c-0.392-0.503,0.279-1.055,0.748-0.681
				c1.861,1.462,3.349,3.468,3.165,5.835c-0.16,2.014-1.641,3.63-3.412,4.385c-1.865,0.806-3.906,0.752-5.841-0.174
				c-2.014-0.963-3.817-3.368-3.705-5.54c-1.016,0.913-2.282,1.557-3.902,1.786c-2.708,0.382-5.492-0.814-7.596-2.629
				C339.235,242.079,338.051,239.301,338.469,236.742z"/>
			<path d="M335.236,253.405c0.592-0.419,1.622-0.145,1.738,0.706c0.283,2.015-0.288,3.908,0.15,5.914
				c0.382,1.781,1.956,3.04,3.534,3.787c3.565,1.694,6.827-0.939,8.046-3.983c0.276-0.698,1.402-0.229,1.258,0.486
				c-0.498,2.575-1.47,4.892-4.006,5.964c-2.01,0.851-4.34,0.822-6.462-0.063C334.984,264.315,330.364,256.827,335.236,253.405z"/>
			<path d="M431.852,277.742c1.657,0.893,3.493,1.885,4.755,0.208c1.207-1.595,1.073-3.949-0.112-5.673
				c-0.359-0.523,0.332-1.2,0.808-0.71c2.193,2.234,2.758,5.615,1.067,8.044c-0.772,1.121-2.118,1.778-3.524,1.744
				c-1.773-0.037-3.113-1.088-4.089-2.554C430.272,278.061,431.163,277.364,431.852,277.742z"/>
			<path d="M433.432,256.424c1.466-0.399,2.948-0.287,3.839-1.665c0.91-1.387-0.137-3.352-1.171-4.469
				c-0.428-0.465,0.289-1.076,0.748-0.685c1.819,1.578,3.017,3.638,2.404,5.943c-0.641,2.401-3.742,3.46-5.995,2.392
				C432.518,257.595,432.816,256.59,433.432,256.424z"/>
			<path d="M447.428,243.857c1.788-0.694,3.761-0.785,4.049-3.069c0.297-2.338-1.607-5.357-3.422-6.84
				c-0.517-0.428,0.017-1.32,0.589-0.947c2.785,1.84,4.695,4.39,4.913,7.679c0.222,3.223-3.015,5.424-6.064,4.627
				C446.678,245.094,446.791,244.102,447.428,243.857z"/>
			<path d="M447.131,211.621c2.824-0.021,5.391,1.155,6.144,4.573c0.586,2.654-1.41,5.789-4.032,5.856
				c-0.729,0.021-1.098-0.735-0.573-1.109c1.439-1.047,2.77-2.143,2.643-4.128c-0.137-2.205-2.376-3.679-4.305-4.194
				C446.361,212.451,446.458,211.613,447.131,211.621z"/>
			<path d="M440.499,194.386c0.685-0.386,1.896-0.415,3.397,0.374c0.999,0.519,1.572,1.117,1.998,2.16
				c0.99,2.392-0.32,4.049-2.351,4.639c-0.694,0.199-1.269-0.889-0.592-1.217c1.059-0.507,2.564-3.539-2.413-4.539
				C439.915,195.682,439.955,194.693,440.499,194.386z"/>
			<path d="M446.618,265.768c1.835-0.017,4.103,0.752,4.61-1.474c0.498-2.177-0.341-4.755-1.977-6.404
				c-0.486-0.498,0.021-1.454,0.665-1.013c2.762,1.898,4.697,5.245,4.12,8.489c-0.681,3.858-5.341,4.655-8.086,1.906
				C445.304,266.636,445.877,265.777,446.618,265.768z"/>
			<path d="M412.152,278.78c2.064,1.312,3.829,3.289,6.362,2.795c2.695-0.527,3.488-3.904,3.061-6.25
				c-0.179-0.997,1.219-1.553,1.707-0.544c1.85,3.858,0.897,7.99-2.845,9.809c-3.775,1.84-9.234-0.643-9.708-5.121
				C410.655,278.726,411.6,278.427,412.152,278.78z"/>
			<path d="M444.762,288.884c0.957,0.478,2.598,0.777,3.509-0.839c0.702-1.258,0.858-3.543,0.349-4.896
				c-0.222-0.606,0.606-1.018,0.984-0.461c1.526,2.209,2.637,4.618,1.148,7.023c-1.26,2.039-4.454,2.766-6.275,0.719
				C444.054,289.955,444.151,288.581,444.762,288.884z"/>
			<path d="M420.145,294.4c2.307,1.595,3.594,1.491,5.409,0.635c1.74-0.822,3.248-2.654,2.203-4.672
				c-0.324-0.623,0.621-0.988,1.02-0.473c0.967,1.283,1.622,2.209,1.348,3.825c-0.247,1.458-1.248,2.563-2.386,3.397
				c-2.301,1.673-6.437,0.797-8.366-1.811C418.971,294.761,419.651,294.063,420.145,294.4z"/>
			<path d="M337.725,130.562c2.477-0.777,4.678,0.963,5.26,3.418c0.143,0.61-0.669,1.142-1.044,0.482
				c-0.872-1.549-2.409-2.297-3.906-1.337c-1.248,0.793-1.452,2.529-1.873,3.85c-0.199,0.644-1.111,0.805-1.497,0.12
				C333.12,134.374,335.098,131.384,337.725,130.562z"/>
			<path d="M319.392,138.012c1.482-1.292,3.488-1.138,5.202-0.033c0.735,0.469,0.334,1.786-0.534,1.412
				c-2.324-0.996-3.511,0.453-3.339,2.733c0.077,0.947,0.511,2.189-0.145,2.97c-1.07,1.258-2.531-0.39-2.816-1.524
				C317.259,141.571,317.911,139.3,319.392,138.012z"/>
			<path d="M308.527,154.151c2.259-0.909,4.541,0.495,4.871,2.974c0.075,0.54-0.652,0.98-1.115,0.631
				c-0.976-0.723-1.719-1.466-2.679-0.532c-1.073,1.047-0.964,2.837-2.293,3.676c-0.438,0.278-1.053,0.32-1.447-0.171
				C304.044,158.416,306.336,155.019,308.527,154.151z"/>
			<path d="M369.706,271.632c1.784-0.594,4.265-0.012,5.324-1.831c0.972-1.69,0.081-3.941-1.113-5.407
				c-0.357-0.424,0.168-1.047,0.648-0.781c2.957,1.636,4.467,4.797,3.192,7.82c-0.573,1.346-1.946,2.355-3.339,2.741
				c-1.831,0.494-3.463,0.262-4.915-1.138C369.106,272.65,369.17,271.815,369.706,271.632z"/>
			<path d="M386.125,268.21c2.365,0.478,4.715,1.686,5.989-0.872c1.088-2.197-0.009-4.709-2.425-5.536
				c-0.609-0.208-0.301-1.076,0.27-0.988c3.786,0.544,5.785,4.502,4.668,7.858c-0.548,1.649-1.784,2.778-3.476,3.235
				c-2.257,0.615-4.527-0.461-5.868-2.38C384.883,268.958,385.465,268.073,386.125,268.21z"/>
			<path d="M397.631,287.779c0.667-4.934,5.522-7.168,9.726-3.8c0.602,0.486-0.037,1.383-0.691,1.03
				c-3.21-1.719-5.613,0.074-6.128,3.285c-0.189,1.18,0.058,2.708,0.872,3.713c0.505,0.627,1.155,0.98,1.904,1.225
				c0.97,0.316,2.076,0.606,3.05,0.864c0.883,0.241,0.899,1.52,0.171,1.827C401.321,298.158,396.952,292.834,397.631,287.779z"/>
			<path d="M426.866,146.567c1.782-0.394,2.478-1.719,2.318-3.322c-0.135-1.404-1.317-2.529-3.007-2.471
				c-0.428,0.017-0.457-0.747-0.114-0.976c2.479-1.645,5.528,0.74,5.93,3.452c0.413,2.82-1.744,5.565-4.718,4.738
				C426.656,147.809,426.277,146.7,426.866,146.567z"/>
			<path d="M418.71,182.354c8.972,1.163,6.744-7.966,5.631-10.117c-0.382-0.735,0.507-1.317,1.04-0.644
				c1.119,1.425,2.085,3.011,2.556,4.652c1.823,1.142,5.262,2.317,4.807-3.933c-0.241-3.273-1.716-7.463-4.251-9.843
				c-0.498-0.465,0.074-1.192,0.62-0.764c3.547,2.787,5.773,8.24,6.558,12.414c0.349,1.881-0.035,4.34-1.869,5.212
				c-1.807,0.86-4.178,0.495-5.569-1.092c0.019,0.943-0.143,1.906-0.592,2.849c-1.454,3.107-5.418,5.025-8.827,3.318
				C417.915,183.953,417.696,182.225,418.71,182.354z"/>
			<path d="M444.481,178.895c0.536-1.296,1.89-1.948,1.817-3.517c-0.079-1.653-1.024-3.339-1.871-4.772
				c-0.403-0.673,0.467-1.454,1.039-0.831c1.668,1.815,3.185,3.825,3.43,6.279c0.204,2.064-1.223,4.469-3.511,4.145
				C444.81,180.12,444.239,179.48,444.481,178.895z"/>
			<path d="M437.585,159.986c1.175-0.407,2.897-2.799-0.205-5.81c-0.612-0.598,0.451-1.337,1.044-0.835
				c1.443,1.238,2.463,2.293,2.762,4.17c0.268,1.636-1.013,3.326-2.49,3.688C437.97,161.377,437.002,160.193,437.585,159.986z"/>
			<path d="M447.995,162.229c0.307-0.964,0.912-1.815,1.063-2.824c0.202-1.371-0.43-2.891-1.381-3.937
				c-0.563-0.623,0.203-1.545,0.839-0.922c1.304,1.267,2.494,2.675,2.672,4.494c0.166,1.673-0.451,3.451-2.01,4.112
				C448.63,163.379,447.777,162.922,447.995,162.229z"/>
			<path d="M438.327,131.189c1.84,0.964,3.073,1.977,3.931,3.908c0.802,1.802,0.455,4.02-0.876,5.258
				c-0.523,0.49-2.031-0.045-1.616-0.606c1.558-2.093,0.866-5.598-2.251-7.421C436.755,131.882,437.596,130.807,438.327,131.189z"/>
			<path d="M290.023,238.516c-0.05-1.2,0.068-2.641,0.75-3.551c1.283-1.674,3.665-2.417,5.683-1.175
				c0.612,0.374,0.575,1.466-0.191,1.545c-1.717,0.191-3.088,0.386-3.422,2.226c-0.712,3.904,2.077,4.83,0.507,5.117
				C291.919,242.931,290.123,241.153,290.023,238.516z"/>
			<path d="M299.93,252.026c0.783,0.187,0.723,1.437-0.085,1.374c-5.173-0.365-3.04,5.324-1.827,8.352
				c0.274,0.673-0.635,1.292-1.211,0.864C291.961,259.09,293.317,250.489,299.93,252.026z"/>
			<path d="M276.416,260.012c1.327-2.658,5.474-4.988,7.637-1.329c0.33,0.552-0.094,1.283-0.735,1.225
				c-2.35-0.237-3.289,0.195-4.197,2.388c-0.878,2.118-1.148,4.959-0.878,7.289c0.079,0.718-0.92,1.03-1.394,0.507
				C274.227,267.201,274.925,263.015,276.416,260.012z"/>
			<path d="M304.538,274.186c2.045-0.145,4.014,1.275,6.03,0.619c2.035-0.677,1.802-3.177,0.44-4.618
				c-0.532-0.552,0.112-1.354,0.727-0.851c1.366,1.134,2.639,2.218,2.986,3.979c0.282,1.462-0.448,2.803-1.41,3.746
				c-2.332,2.297-8.067,2.185-9.612-1.354C303.409,275.034,303.803,274.245,304.538,274.186z"/>
			<path d="M318.108,281.832c1.649,0.764,3.476,2.322,5.146,1.088c1.923-1.42,1.998-3.899,0.623-5.897
				c-0.486-0.714,0.513-1.266,1.042-0.643c2.513,2.928,3.424,6.861,0.234,9.294c-1.215,0.922-2.863,1.292-4.439,0.984
				c-2.209-0.436-3.663-1.782-3.858-4.016C316.804,282.04,317.564,281.583,318.108,281.832z"/>
			<path d="M347.676,304.359c0.245-0.868,1.454-0.785,1.869-0.021c1.296,2.359,2.623,4.576,5.507,4.701
				c3.418,0.141,4.907-3.077,3.761-6.022c-0.226-0.594,0.66-1.055,0.984-0.461c2.388,4.274,1.09,8.618-3.733,9.643
				c-2.041,0.432-4.234-0.141-6.012-1.35C347.643,309.226,346.98,306.879,347.676,304.359z"/>
			<path d="M342.377,293.893c1.619,0.345,3.05,1.267,4.709,0.851c1.954-0.473,2.598-2.6,2.008-4.456
				c-0.288-0.914,1.101-1.425,1.531-0.544c1.389,2.845,1.178,5.524-1.426,7.293c-2.278,1.545-6.728,1.071-7.883-1.898
				C341.008,294.349,341.542,293.714,342.377,293.893z"/>
			<path d="M334.44,305.442c1.707,0.312,3.231,1.304,4.969,1.35c1.971,0.046,3.042-2.168,2.675-3.916
				c-0.205-0.996,1.146-1.316,1.512-0.349c0.594,1.574,1.215,3.11,0.507,4.689c-0.507,1.121-1.431,1.906-2.587,2.342
				c-2.795,1.076-6.925,0.162-8.034-3.011C333.279,305.978,333.867,305.343,334.44,305.442z"/>
			<path d="M367.59,294.03c-0.054-0.768,1.028-1.104,1.524-0.515c1.264,1.495,2.666,2.675,4.547,1.798
				c2.201-1.022,3.443-3.75,1.998-6.026c-0.45-0.723,0.517-1.283,1.047-0.648c2.587,3.123,1.844,6.815-1.227,8.863
				C372.407,299.537,367.91,298.17,367.59,294.03z"/>
			<path d="M376.82,303.133c0.535-0.598,1.692,0.046,1.617,0.831c-0.185,1.873-0.939,3.754-0.058,5.636
				c0.544,1.163,1.921,1.848,3.117,2.097c1.119,0.233,2.513,0.025,3.171-0.635c1.215-1.221,0.38-3.597-0.38-4.983
				c-0.365-0.669,0.457-1.229,0.949-0.615c1.491,1.873,2.948,4.269,1.75,6.504c-0.962,1.786-2.996,2.455-5.019,2.313
				C376.32,313.906,373.099,307.245,376.82,303.133z"/>
			<path d="M377.808,102.815c2.303-0.361,4.095,1.416,5.044,3.385c0.282,0.589-0.54,0.901-0.913,0.457
				c-0.882-1.072-2.39-2.027-3.752-1.611c-1.186,0.357-1.713,1.827-2.54,2.621c-0.619,0.598-1.481-0.037-1.564-0.777
				C373.836,104.672,375.833,103.127,377.808,102.815z"/>
			<path d="M403.761,114.348c0.463-2.123,2.128-3.505,4.388-3.393c2.392,0.12,4.051,2.313,4.533,4.46
				c0.158,0.702-0.897,0.802-1.152,0.183c-0.517-1.238-1.445-2.404-2.832-2.658c-1.632-0.307-2.768,1.084-3.642,2.16
				C404.583,115.677,403.611,115.029,403.761,114.348z"/>
			<path d="M422.626,116.877c3.677-1.441,3.978,2.097,3.569,3.19c-0.203,0.561-1.186,0.233-1.049-0.357
				c0.15-0.64-0.286-2.417-2.425-1.478C422.028,118.534,422.061,117.098,422.626,116.877z"/>
			<path d="M464.574,226.02c1.207-0.341,3.022-0.415,3.509-1.773c0.484-1.362-0.706-2.916-1.676-3.833
				c-0.534-0.503,0.083-1.242,0.675-0.806c1.696,1.246,3.005,3.065,2.639,5.154c-0.388,2.197-3.03,3.102-5.048,2.571
				C463.992,227.157,463.93,226.194,464.574,226.02z"/>
			<path d="M458.218,207.75c0.529-0.848,1.531-1.175,2.052-2.085c0.523-0.93,0.457-2.118,0.21-3.164
				c-0.147-0.615,0.779-0.731,1.018-0.191c0.588,1.312,0.856,2.72,0.339,4.024c-0.463,1.163-1.524,2.541-2.897,2.575
				C458.382,208.925,457.927,208.211,458.218,207.75z"/>
			<path d="M462.026,271.553c1.381-0.648,3.476,0.287,3.815-1.694c0.313-1.782-0.459-3.908-1.593-5.362
				c-0.39-0.503,0.318-1.15,0.77-0.702c1.983,1.956,3.563,4.535,3.123,7.268c-0.426,2.6-4.3,4.041-6.327,1.915
				C461.384,272.534,461.505,271.794,462.026,271.553z"/>
			<path d="M458.867,299.985c0.43,1.121,1.994,2.741,4.396,1.965c1.747-0.561,2.342-2.426,2.199-4.294
				c-0.045-0.586,1.148,0.095,1.184,1.25c0.042,1.67-0.251,4.016-2.382,5.241c-2.556,1.466-5.999-0.415-6.73-3.252
				C457.337,300.135,458.579,299.234,458.867,299.985z"/>
			<path d="M408.491,318.296c2.355-0.802,3.181-2.575,3.509-4.876c0.264-1.844-1.063-3.717-2.621-4.655
				c-0.567-0.349-0.374-1.308,0.332-1.113c2.133,0.581,3.823,1.844,4.585,3.663c2.724,1.096,2.417-1.973,2.315-2.675
				c-0.081-0.532,0.733-0.847,1.018-0.324c0.712,1.292,0.995,2.442,0.253,3.684c-0.623,1.043-1.923,1.541-3.154,1.35
				c0.091,3.601-2.288,6.599-5.469,6.288C408.661,319.583,407.845,318.512,408.491,318.296z"/>
			<path d="M387.417,319.55c0.168-0.54,1.165-1.121,1.391-0.577c0.575,1.441,1.869,2.583,3.344,2.783
				c4.797,0.652,6.036-3.518,4.846-6.678c-0.413-0.81,0.951-1.682,2.492,0.353c0.752,1.001,0.775,2.089,0.609,3.268
				c-0.285,2.077-1.522,3.862-3.136,5.1c-1.67,1.275-3.69,1.736-5.833,1.151C388.924,324.339,386.714,321.764,387.417,319.55z"/>
			<path d="M337.806,313.279c0.912,0.029,1.821,1.022,1.522,1.927c-0.484,1.466-2.579,2.426-2.231,4.191
				c0.251,1.279,1.196,2.322,2.237,3.086c2.984,2.209,6.527,1.611,7.503-1.886c0.27-0.963,1.688-0.532,1.545,0.449
				c-0.823,5.441-6.153,6.064-10.518,3.298c-1.881-1.188-3.559-3.061-3.997-5.233C333.356,316.515,334.887,313.188,337.806,313.279z
				"/>
			<path d="M302.493,306.161c0.176-0.44,0.928-2.151,2.496-2.28c0.575-0.05,1.84,0.133,1.147,0.98
				c-1.121,1.366-2.507,2.392-0.8,4.581c1.709,2.184,3.374,0.643,3.588,0.39c0.303-0.374,0.611-0.856,0.794-1.283
				c0.276-0.652,1.171-0.295,1.277,0.312c0.589,3.605-3.104,5.212-6.143,3.567c-1.358-0.735-2.378-2.131-2.633-3.609
				C302.059,307.893,302.167,307.008,302.493,306.161z"/>
		</g>
		<path fill="#446B13" d="M260.431,420.436c0.893-1.067,2.18-1.757,3.594-2.002c-0.029-0.075-0.062-0.137-0.093-0.208
			c-1.528-4.324-3.433-8.128-3.85-12.002c-0.253-0.096-0.507-0.208-0.758-0.345l0.162,0.112c-0.077-0.042-0.149-0.096-0.222-0.137
			c-0.112-0.063-0.222-0.129-0.334-0.199c-0.237-0.154-0.465-0.316-0.689-0.49c-0.063-0.05-0.137-0.091-0.193-0.141l0.139,0.095
			c-0.129-0.104-0.264-0.191-0.382-0.299c-2.137-1.844-3.246-5.328-1.875-7.75c0.804-1.403,1.578-2.367,3.142-2.978
			c1.775-0.697,3.474-0.569,5.039,0.129c3.156-5.253,5.79-10.096,0.602-16.845c-4.959-6.458-3.929-11.753,0.04-17.738
			c1.979-2.99,4.851-5.059,7.934-6.807c1.767-1.005,0.521-2.741,0.06-4.83c-0.465-2.093-0.772-4.411-0.885-6.736
			c-0.563,0.249-1.184,0.44-1.931,0.502c-7.764,0.64-10.163-11.379-2.39-12.019c1.858-0.15,3.395,0.432,4.577,1.403
			c0.951-1.632,2.083-2.757,3.339-3.472c-0.936-0.714-1.642-1.74-1.885-2.998c-0.482-2.446,1.179-5.034,3.725-5.237
			c2.546-0.208,5.031,1.446,5.54,4.07c0.251,1.258-0.073,2.55-0.789,3.534c2.795,0.71,5.739,2.396,8.505,4.577
			c0.355-0.274,0.719-0.532,1.08-0.773c2.085-1.395,4.803-1.516,7.293-0.905c3.335,0.831,5.488,3.613,6.288,6.782
			c0.37,1.441,0.056,2.729-0.588,3.85c0.328,1.196,0.245,2.396-0.199,3.455c1.144,0.029,2.208,0.274,3.285,0.993
			c1.287,0.864,2.24,2.193,2.621,3.663c0.393,1.52,0.154,3.115-0.654,4.377c-0.548,0.864-1.493,1.711-2.544,2.122
			c1.572,3.571,3.244,7.097,4.971,10.607c0.972-0.527,2.01-0.615,3.121-0.29l0.004-0.017c0.02,0.008,0.043,0.025,0.064,0.033
			c0.39,0.12,0.789,0.295,1.198,0.523c0.023,0.017,0.048,0.012,0.068,0.029h0.004c0.388,0.236,0.739,0.507,1.059,0.814
			c0.031,0.025,0.065,0.046,0.098,0.074c0.326,0.316,0.604,0.673,0.845,1.055c0.019,0.025,0.044,0.05,0.063,0.083
			c0.405,0.64,0.666,1.35,0.789,2.072c0.131,0.714,0.117,1.446-0.052,2.151c-0.042,0.179-0.099,0.344-0.158,0.511
			c-0.023,0.054-0.031,0.104-0.05,0.15c-0.002,0.004-0.002,0.008-0.002,0.012c0.473-0.009,0.947,0.017,1.358,0.116
			c1.329,0.303,2.538,1.117,3.337,2.239c0.824,1.159,1.167,2.595,0.947,3.937c-0.235,1.412-0.999,2.263-2.017,3.136
			c0.272-0.228,0.544-0.473,0.812-0.714c-0.089,0.083-0.17,0.179-0.243,0.274c-0.631,0.743-1.459,1.221-2.376,1.457
			c0.988,1.989,1.977,3.983,2.934,5.989c-0.017,0.004-0.037,0.009-0.05,0.009c0.079,0.145,0.168,0.287,0.216,0.457
			c0.648,2.284,1.198,4.593,1.738,6.919c0.079-0.029,0.15-0.067,0.226-0.079c1.665-0.341,1.711-0.341,3.483-0.158
			c2.818,0.295,5.162,3.185,5.523,5.806c0.216,1.558-0.179,3.102-1.053,4.328c-0.918,1.807-2.698,3.032-4.755,3.273
			c1.661,3.164,5.607,5.32,6.593,8.9c0.706,2.55,1.067,4.971-0.091,7.359c-1.364,2.795-6.365,6.811-5.685,10.241
			c0,0.021,0.002,0.046,0.012,0.062c0.704-0.552,1.528-0.98,2.444-1.2c1.761-0.428,3.713-0.12,5.347,0.851
			c1.067,0.648,1.929,1.5,2.577,2.558c0.646,1.059,1.001,2.193,1.063,3.401c0.019,0.058,0.023,0.116,0.023,0.182
			c0.236,3.04-1.869,5.769-4.747,6.5c-0.982,0.249-2.02,0.245-3.04,0.037c0.11,0.311,0.212,0.627,0.312,0.939
			c3.216-0.428,6.14,1.13,8.14,3.904c1.207,1.682,2.01,4.128,1.821,6.113c-0.422,4.427-3.545,7.256-7.548,7.97
			c-0.611,4.689-2.182,8.949-4.857,12.16c1.638,0.743,2.967,2.193,3.079,4.054c0.006,0.062,0.01,0.125,0.012,0.182
			c0.139,2.234-0.785,4.248-2.955,5.038c-0.609,0.216-1.26,0.266-1.915,0.228c0.216,0.432,0.436,0.868,0.654,1.304
			c0.401,0.848,0.488,1.857,0.376,2.837c-0.004,0.004,0.002,0.017,0.002,0.021c-0.027,0.174-0.05,0.353-0.085,0.527
			c-0.316,2.301-1.997,4.382-4.176,5.079c-1.634,0.527-3.503,0.349-5.104-0.473c-1.285-0.66-2.151-1.595-2.84-2.733
			c-0.025-0.033-0.052-0.05-0.075-0.087c-0.474-0.714-0.794-1.474-0.978-2.272c-1.082,1.333-2.726,2.205-4.633,2.363
			c-3.578,0.291-6.923-2.911-7.262-6.354c-0.247-2.413,0.841-4.41,2.602-5.603c-3.299-1.184-6.535-2.853-9.608-4.78l0,0
			c0.259,3.003-1.697,5.727-4.537,6.512c-2.297,0.631-4.959-0.104-6.753-1.815c0.017,0.021,0.031,0.033,0.048,0.054
			c-0.035-0.029-0.062-0.071-0.094-0.1c-0.185-0.175-0.359-0.366-0.521-0.565c-0.102-0.116-0.187-0.245-0.276-0.365
			c-0.081-0.108-0.176-0.212-0.247-0.332c0.031,0.046,0.065,0.083,0.102,0.125c-0.072-0.112-0.158-0.212-0.228-0.328
			c-0.623-1.013-1.107-2.284-1.102-3.455c-0.085-1.229,0.147-2.376,0.697-3.439c0.766-1.466,2.129-2.554,3.736-3.027
			c-1.088-0.913-2.134-1.827-3.136-2.724c-1.362-1.233-2.647-2.542-3.893-3.879c-1.101,1.412-2.809,2.38-4.689,2.45
			c-3.699,0.137-6.728-2.737-7.258-6.28l-0.06-0.39c-0.43-2.882,1.443-5.432,4.001-6.375c-3.892-6.525-3.437-11.77-1.18-18.593
			c1.655-5.021,0.453-7.642-1.617-9.764c-0.654,2.33-2.783,4.058-5.27,4.236c-1.694,0.133-3.453-0.444-4.807-1.57
			c-1.433-1.184-2-2.584-2.431-4.278c-0.023-0.087-0.05-0.179-0.067-0.262C258.709,423.543,259.461,421.591,260.431,420.436z"/>
		<path fill="#446B13" d="M282.789,269.315c0.023-1.337,0.856-3.164,2.23-3.576c1.338-0.403,2.266-0.59,3.673-0.569
			c1.356,0.025,2.93,1.533,3.04,2.878c0.073,0.847,0.18,1.777-0.027,2.595c-0.125,0.503-0.424,1.096-0.681,1.57
			c-1.34,2.45-5.038,2.43-6.967,0.365C283.229,271.686,282.764,270.49,282.789,269.315z"/>
		<path fill="#446B13" d="M282.635,291.745c0.523-1.553,2.018-2.575,3.65-2.778c1.246-0.54,3.092-0.515,4.236,0.424
			c0.685,0.436,1.252,0.985,1.748,1.608c2.338,1.682,3.175,4.929,1.83,7.309c-0.687,1.2-1.856,2.085-3.223,2.417
			c-0.835,0.203-1.89,0.182-2.855-0.071c-1.792-0.162-3.748-1.321-4.763-2.799C281.921,295.907,281.952,293.785,282.635,291.745z"/>
		<path fill="#446B13" d="M269.908,282.563c-0.043-1.462,0.501-2.857,1.51-3.85c1.101-1.084,2.347-1.346,3.873-1.47
			c1.375-0.112,3.017,0.802,3.983,1.769c1.076,1.067,1.705,2.504,1.75,3.962c0.05,1.466-0.494,2.857-1.505,3.85
			c-1.098,1.088-2.345,1.35-3.875,1.474c-1.371,0.108-3.017-0.802-3.985-1.765C270.589,285.462,269.956,284.025,269.908,282.563z"/>
		<path fill="#446B13" d="M271.511,295.791c0.125-0.353,0.301-0.669,0.534-0.964c0.083-0.208,0.195-0.361,0.336-0.469
			c0.262-0.527,0.878-0.885,1.476-0.677l0.945,0.112c1.79,0.199,3.366,1.03,4.01,2.878c0.588,1.686-0.019,3.53-1.462,4.428
			c-1.457,0.905-3.463,0.673-4.822-0.548C271.241,299.387,270.643,297.248,271.511,295.791z"/>
		<path fill="#446B13" d="M291.948,239.451c0.233-2.251,1.909-3.584,4.022-3.979c1.632-0.316,3.987,0.673,4.89,2.16
			c0.731,1.225,1.242,2.288,1.08,3.717c-0.15,1.241-0.787,2.371-1.776,3.098c-1.663,1.242-3.782,1.104-5.495,0.029
			C292.839,243.603,291.757,241.303,291.948,239.451z"/>
		<path fill="#446B13" d="M279.095,244.609c0.031-0.096,0.052-0.191,0.081-0.295c0.42-1.565,1.391-2.807,3.171-2.907
			c1.734-0.1,3.061,0.976,3.844,2.471c0.083,0.17,0.179,0.336,0.264,0.507c0.443,0.864,0.289,2.105-0.083,2.907
			c-0.556,1.196-1.767,1.981-3.131,2.018C280.93,249.372,278.49,246.984,279.095,244.609z"/>
		<path fill="#446B13" d="M287.592,309.114c0.447-0.407,0.897-0.797,1.348-1.192c1.645-1.429,4.583-0.922,6.244,0.481
			c1.73,1.47,2.548,4.149,1.53,6.105c-0.128,0.216-0.236,0.448-0.332,0.685c-1.14,2.513-4.41,3.401-6.952,2.056
			c-1.227-0.648-2.208-1.748-2.692-3.044C286.128,312.573,286.302,310.289,287.592,309.114z"/>
		<path fill="#446B13" d="M259.378,348.406c-0.004,0.004-0.013,0.004-0.017,0.008c0.019-0.025,0.046-0.041,0.067-0.074
			c0.625-0.943,1.595-1.628,2.805-1.724c-0.039,0.021-0.079,0.046-0.12,0.071c1.553-0.282,3.285,0.208,4.481,1.565
			c0.835,0.947,1.279,2.185,1.221,3.397c-0.068,1.37-0.986,3.247-2.431,3.621c-1.707,0.449-3.076,0.586-4.608-0.486
			c-1.026-0.714-1.757-1.794-2.017-2.982C258.5,350.64,258.749,349.39,259.378,348.406z"/>
		<path fill="#446B13" d="M305.171,321.959c4.51-0.37,5.598,6.645,1.07,7.023C301.727,329.347,300.639,322.328,305.171,321.959z"/>
		<path fill="#446B13" d="M264.065,313.844c1.192-0.095,2.193-0.066,3.283,0.615c0.99,0.631,1.73,1.611,2.033,2.716
			c0.569,2.089-0.675,4.884-3.007,5.079c-1.188,0.091-2.195,0.058-3.281-0.627c-0.99-0.623-1.726-1.607-2.039-2.72
			C260.487,316.826,261.735,314.035,264.065,313.844z"/>
		<path fill="#446B13" d="M289.639,213.444c2.384-0.195,4.74,1.005,5.376,3.547c0.555,2.193-0.803,4.934-3.192,5.129
			c-2.384,0.191-4.745-1.013-5.382-3.555C285.891,216.38,287.247,213.639,289.639,213.444z"/>
		<path fill="#446B13" d="M277.89,230.899c0.029-0.241,0.064-0.486,0.089-0.735c0.367-0.336,0.39-0.66,0.073-0.976
			c0.222-1.101,1.358-1.744,2.191-2.268c0.764-0.482,2.168-0.424,2.942,0.17c0.033,0.021,0.062,0.046,0.097,0.071
			c0.235,0.087,0.472,0.183,0.696,0.307c0.737,0.332,0.879,1.188,0.625,1.823c0.085,0.993-0.104,1.881-0.594,2.77
			c-0.469,0.872-1.418,1.649-2.415,1.864C279.775,234.297,277.909,232.776,277.89,230.899z"/>
		<path fill="#446B13" d="M321.005,348.044c0.916-2.433,3.656-3.389,6.144-2.421c0.99,0.386,1.933,0.967,2.623,1.802
			c1.304,1.587,1.478,3.568,0.932,5.332c-0.328,1.067-1.748,2.118-2.917,2.031c-0.262,0.074-0.517,0.137-0.773,0.208
			c-0.851,0.095-1.684-0.029-2.498-0.378c-0.222-0.079-0.419-0.182-0.637-0.295C321.483,353.153,320.073,350.511,321.005,348.044z"
			/>
		<path fill="#446B13" d="M326.604,361.754c1.2-0.1,2.232-0.037,3.322,0.664c1.001,0.64,1.742,1.64,2.043,2.774
			c0.563,2.126-0.731,4.892-3.104,5.092c-1.2,0.1-2.228,0.033-3.321-0.66c-1.003-0.643-1.744-1.653-2.041-2.778
			C322.936,364.719,324.236,361.949,326.604,361.754z"/>
		<g>
			<path fill="#446B13" d="M468.926,195.997c0.777-0.399,1.746-0.665,2.664-0.478c2.01,0.398,3.713,1.566,4.234,3.671
				c0.559,2.238-0.635,4.166-2.575,4.929c-0.28,0.088-0.555,0.187-0.841,0.258c-0.833,0.195-1.647-0.025-2.469-0.27
				c-1.497-0.444-2.71-1.894-3.082-3.355C466.358,198.804,467.232,196.869,468.926,195.997z"/>
			<path fill="#446B13" d="M472.581,204.332c0.232-0.05,0.455-0.133,0.669-0.212c0.145-0.058,0.297-0.087,0.442-0.141
				C473.318,204.096,472.949,204.216,472.581,204.332z"/>
		</g>
		<path fill="#446B13" d="M465.598,173.026c0.648-1.487,2.564-1.661,3.769-0.606c0.066,0.05,0.1,0.071,0.183,0.137
			c0.351,0.299,0.697,0.602,1.04,0.922c0.727,0.656,1.026,1.532,1.306,2.417c0.559,1.757-0.999,3.497-2.623,3.696
			c-1.788,0.22-3.563-1.101-3.924-2.895C465.12,175.547,465.145,174.056,465.598,173.026z"/>
		<path fill="#446B13" d="M459.632,158.582c0.849-0.996,2.251-1.433,3.594-1.121c2.675,0.623,4.29,4.556,2.824,6.645
			c-0.48,0.689-1.559,1.715-2.56,1.42c-0.523-0.15-0.951-0.279-1.344-0.436c-0.029-0.004-0.058-0.008-0.087-0.012
			c-1.207-0.162-2.734-1.537-2.99-2.733C458.762,160.941,458.695,159.691,459.632,158.582z"/>
		<path fill="#446B13" d="M455.379,150.8c1.248-0.686,2.548-0.341,3.777,0.398c0.712,0.428,0.943,1.263,0.797,1.985
			c0.174-0.469,0.239-0.282,0.204,0.569c-0.023,0.382-0.094,0.756-0.212,1.109c-0.557,1.935-3.003,2.612-4.732,1.433
			C453.041,154.815,453.365,151.896,455.379,150.8z"/>
		<path fill="#446B13" d="M475.739,207.846c0.388-0.27,0.719-0.589,1.159-0.802c0.706-0.357,1.331-0.378,2.027-0.357
			c0.226-0.05,0.471-0.091,0.743-0.117c0.012-0.017,0.126-0.062,0.359-0.149c0.21-0.121,0.438-0.175,0.686-0.166
			c0.5,0.004,0.993,0.287,1.26,0.727c0.108,0.179,0.212,0.602,0.214,0.98c0.864,1.337,1.451,2.454,1.315,4.078
			c-0.251,2.924-3.131,4.834-6.043,3.679C474.342,214.49,472.949,209.826,475.739,207.846z"/>
		<path fill="#446B13" d="M478.02,220.06c1.238-0.498,2.203-0.714,3.588-0.357c0.804,0.216,1.534,0.648,2.131,1.254
			c1.017,1.034,1.632,2.251,1.402,3.659c-0.102,0.652-0.364,1.217-0.777,1.707c-0.422,0.506-0.962,0.855-1.597,1.059
			c0.006,0.066,0.01,0.133,0.015,0.203c-0.403,0.241-0.839,0.374-1.308,0.399c-1.91,0.179-3.753-0.37-4.838-2.197
			C475.509,223.901,475.918,220.903,478.02,220.06z"/>
		<path fill="#446B13" d="M482.945,232.44c1.809-1.511,3.748-1.885,6.155-1.707c0.959,0.074,1.639,0.44,2.533,0.839
			c0.268,0.141,0.523,0.303,0.773,0.478c0.145,0.121,0.245,0.208,0.324,0.279c0.015-0.037,0.119-0.037,0.405,0.058
			c1.871,0.615,1.37,3.011-0.353,3.094c-0.089,0.074-0.177,0.154-0.266,0.233c-0.677,0.739-1.385,1.457-2.108,2.155
			c-0.652,0.64-1.316,1.175-2.101,1.661C484.251,242.017,479.349,235.467,482.945,232.44z"/>
		<path fill="#446B13" d="M486.614,248.828c0.303-2.014,1.165-3.123,2.687-4.439c0.72-0.627,1.319-1.146,2.214-1.574
			c1.564-0.752,3.571,0.112,4.392,1.694c1.13,2.156,1.275,6.383-0.461,8.227c-1.458,1.553-3.48,2.305-5.694,1.312
			C487.789,253.172,486.296,250.925,486.614,248.828z"/>
		<path fill="#446B13" d="M339.6,358.759c0.916-2.787,4.936-4.502,7.82-3.082c1.47,0.719,2.774,1.608,3.272,3.24
			c0.225,0.735,0.249,1.454,0.079,2.168l-0.376,0.968c-0.152,0.274-0.341,0.515-0.548,0.735c0.014,0.033-0.021,0.117-0.164,0.32
			c-0.112,0.183-0.264,0.349-0.415,0.515c-0.121,0.183-0.289,0.428-0.55,0.793c-0.347,0.378-0.837,0.764-1.319,1.026
			c-1.983,1.097-4.375,1.117-6.296-0.527C339.144,363.232,338.882,360.927,339.6,358.759z"/>
		<path fill="#446B13" d="M337.241,368.706c1.402-0.502,3.231-0.627,4.687,0.137c1.279,0.669,2.265,1.417,3.061,2.65
			c0.629,0.976,0.675,1.993,0.652,3.069c-0.014,1.175-1.136,2.43-2.234,2.72c-0.484,0.133-0.991,0.465-1.478,0.64
			c-0.632,0.224-1.292,0.328-1.966,0.39c-2.187,0.204-4.417-1.225-5.295-3.277C333.581,372.502,334.743,369.595,337.241,368.706z"/>
		<path fill="#446B13" d="M349.239,371.871c-0.102-2.405,1.73-3.788,3.952-3.975c0.748,0.228,1.493,0.457,2.241,0.685
			c2.145,1.096,2.93,3.563,1.63,5.441C354.483,377.738,349.408,375.758,349.239,371.871z"/>
		<path fill="#446B13" d="M495.19,263.447c-0.019-1.1,0.407-2.143,1.167-2.886c0.282-0.216,0.569-0.419,0.855-0.631
			c-0.745,0.212-0.575,0.029,0.517-0.54c1.896-0.939,4.41-0.424,6.101,0.993c0.764,0.64,1.065,1.79,0.874,2.679
			c-0.49,2.201-0.97,3.584-2.772,4.39c-0.717,0.324-1.57,0.544-2.396,0.498C497.204,267.812,495.226,265.764,495.19,263.447z"/>
		<path fill="#446B13" d="M487.642,271.471c0.988-1.425,2.504-1.848,4.228-1.782c1.786,0.071,3.003,1.395,4.084,2.687
			c1.429,1.715,0.652,4.465-0.994,5.44c-0.085,0.058-0.166,0.112-0.241,0.175c-2.101,2.076-6.034,0.723-7.326-1.873
			C486.631,274.585,486.724,272.787,487.642,271.471z"/>
		<path fill="#446B13" d="M505.214,273.181c2.08-0.174,4.029,1.757,4.22,3.754c0.212,2.18-1.397,3.75-3.474,3.916
			c-2.081,0.171-4.029-1.761-4.222-3.75C501.524,274.913,503.133,273.352,505.214,273.181z"/>
		<path fill="#446B13" d="M488.99,285.537c0.507-1.516,1.599-2.837,3.121-3.41c1.383-0.523,3.277-0.751,4.755,0
			c1.003,0.403,1.861,1.013,2.579,1.836c1.065,1.238,1.632,2.824,1.559,4.39c-0.102,2.296-1.528,4.066-3.546,4.851
			c0.093-0.029,0.18-0.054,0.276-0.087c-0.851,0.49-2.286,0.739-3.295,0.532c-1.632-0.344-2.994-0.885-4.147-2.209
			C488.85,289.794,488.329,287.489,488.99,285.537z"/>
		<path fill="#446B13" d="M485.293,295.089c6.051-0.498,7.895,8.892,1.825,9.386C481.068,304.973,479.228,295.587,485.293,295.089z"
			/>
		<path fill="#446B13" d="M505.338,295.442c5.266-0.432,5.582,7.803,0.344,8.235C500.415,304.109,500.105,295.87,505.338,295.442z"
			/>
		<path fill="#446B13" d="M494.042,308.528c5.646-0.469,7.903,8.265,2.199,8.734C490.595,317.723,488.342,308.989,494.042,308.528z"
			/>
		<path fill="#446B13" d="M477.936,311.265c1.618-0.133,3.079,0.037,4.516,1.017c1.3,0.893,2.251,2.247,2.621,3.734
			c0.728,2.919-1.095,6.491-4.27,6.753c-1.619,0.133-3.079-0.037-4.519-1.022c-1.295-0.885-2.249-2.234-2.623-3.729
			C472.936,315.102,474.765,311.522,477.936,311.265z"/>
		<path fill="#446B13" d="M512.211,284.603c0.197-1.956,1.52-3.335,3.235-4.095c2.091-0.935,4.812,0.199,6.392,1.873
			c1.638,1.732,1.921,4.519,0.336,6.138c-0.399,0.411-0.891,0.714-1.433,0.905c-0.079,0.067-0.16,0.141-0.235,0.208
			c0.075-0.075,0.131-0.137,0.189-0.199c-0.012,0.008-0.029,0.008-0.041,0.012v0.004c-0.119,0.12-0.256,0.245-0.415,0.411
			c-1.541,1.296-3.896,1.354-5.667,0.1c-0.106-0.075-0.212-0.174-0.316-0.266l0.102,0.166c-0.702-0.536-1.235-1.18-1.607-1.961
			C512.191,286.887,512.104,285.682,512.211,284.603z"/>
		<path fill="#446B13" d="M520.1,307.697c0.581-0.785,1.261-1.254,2.18-1.619c1.366-0.544,3.119,0.125,4.269,1.047
			c1.779,1.412,1.896,3.713,0.608,4.983l0.05-0.025c-0.449,0.498-1.028,0.71-1.663,0.851c-0.021,0.004-0.034,0.017-0.058,0.02
			c0.205-0.029,0.087,0.046-0.37,0.212c-0.802,0.382-0.897,0.058-1.556,0.179c-1.146,0.22-2.518-0.502-3.252-1.408
			C519.294,310.675,519.205,308.906,520.1,307.697z"/>
		<path fill="#446B13" d="M509.29,325.606c0.307-2.384,2.797-2.725,4.315-1.79c0.691,0.424,1.217,1.113,1.425,1.881
			c0.106,0.374,0.118,0.785,0.06,1.184c0.156-0.037,0.104,0.241-0.187,0.868c-0.06,0.12-0.168,0.199-0.247,0.303
			c-0.376,0.59-0.941,1.034-1.678,1.097c0.008-0.013,0.015-0.017,0.023-0.034c-0.731,0.175-1.528,0.083-2.24-0.386h-0.009
			C509.603,327.964,509.124,326.889,509.29,325.606z"/>
		<path fill="#446B13" d="M469.236,332.537c0.862-0.797,2.461-1.383,3.68-0.731c1.435,0.777,2.253,1.624,2.593,3.239
			c0.133,0.602-0.05,1.424-0.581,1.757c-0.087,0.041-0.174,0.091-0.264,0.128c-0.06,0.075-0.12,0.145-0.183,0.216
			c-0.766,0.498-0.885,0.594-0.359,0.282c-1.281,1.022-2.847,0.789-4.278-0.017C468.019,336.387,467.896,333.77,469.236,332.537z"/>
		<path fill="#446B13" d="M438.158,337.039c0.15-1.416,2.22-2.658,3.609-1.769c0.361,0.233,0.775,0.478,1.138,0.739
			c0.557,0.407,0.629,0.706,0.953,1.155c0.794,1.063-0.34,2.371-1.474,2.131c-0.378,0.253-0.754,0.461-1.273,0.486
			C439.616,339.838,437.99,338.646,438.158,337.039z"/>
		<path fill="#446B13" d="M428.843,344.73c0.475-0.536,1.169-0.951,1.906-1.121c-0.041-0.009,0.014-0.037,0.222-0.096
			c0.689-0.183,1.389-0.179,2.106,0.004c1.861,0.502,2.994,2.056,3.549,3.759c0.506,1.561-0.648,3.073-2.05,3.538
			c-0.008,0-0.008,0-0.015,0.012c-0.878,0.632-2.309,0.656-3.389,0.378C428.266,350.482,426.96,346.852,428.843,344.73z"/>
		<path fill="#446B13" d="M399.552,343.434c1.298-0.332,2.237-0.074,3.482,0.444c1.34,0.552,1.929,2.06,2.295,3.289
			c0.307,1.038-0.282,2.575-1.165,3.102c0.565-0.349,0.409-0.199-0.465,0.461c-0.382,0.187-0.762,0.353-1.161,0.507
			c-0.781,0.311-1.692,0.179-2.513-0.021C396.005,350.225,395.779,344.402,399.552,343.434z"/>
		<path fill="#446B13" d="M382.896,361.263c0.068-1.362,1.125-2.695,2.552-2.811c1.858-0.141,3.206,0.353,4.382,1.944
			c0.652,0.88,0.413,1.69,0.212,2.583c-0.459,2.043-3.26,2.417-4.871,1.645C383.807,363.98,382.825,362.788,382.896,361.263z"/>
		<path fill="#446B13" d="M368.344,357.052c2.081-0.171,4.016,1.761,4.209,3.759c0.203,2.172-1.414,3.746-3.497,3.916
			c-2.079,0.17-4.018-1.753-4.205-3.75C364.648,358.801,366.261,357.227,368.344,357.052z"/>
		<path fill="#446B13" d="M345.448,391.361c4.402-0.361,5.596,6.458,1.175,6.819C342.223,398.545,341.031,391.726,345.448,391.361z"
			/>
		<path fill="#446B13" d="M370.769,386.169c0.536-0.498,1.209-0.706,1.89-0.702c0.251-0.033,0.56-0.021,1.001,0.112
			c0.509,0.166,0.957,0.44,1.331,0.831c0.077,0.075,0.129,0.174,0.193,0.262c0.268,0.324,0.496,0.702,0.611,1.142
			c0.133,0.515,0.137,1.013,0.006,1.508c-0.029,0.116-0.091,0.212-0.133,0.32c-0.287,0.864-0.939,1.553-1.977,1.64
			c-1.69,0.137-3.216-0.689-3.653-2.338C369.76,387.93,370.053,386.859,370.769,386.169z"/>
		<path fill="#446B13" d="M360.04,400.747c4.006-0.328,5.474,5.876,1.422,6.209C357.45,407.288,355.984,401.074,360.04,400.747z"/>
		<path fill="#446B13" d="M338.348,410.382c-0.411-2.567,2.153-4.29,4.49-3.792c0-0.004,0-0.012,0-0.021
			c0.319,0.079,0.627,0.195,0.924,0.345c0.004,0.004,0.009,0.004,0.017,0.008c0.013,0.004,0.027,0.021,0.04,0.021
			c0.282,0.15,0.552,0.328,0.802,0.548c0.01,0.008,0.014,0.017,0.019,0.021c0.004,0.004,0.012,0.012,0.017,0.017
			c0.235,0.199,0.434,0.436,0.617,0.689c0.046,0.067,0.087,0.133,0.131,0.208c0.127,0.195,0.233,0.403,0.324,0.627
			c0.037,0.075,0.079,0.162,0.104,0.245c0.102,0.291,0.179,0.594,0.21,0.902c0.027,0.32,0.01,0.619-0.035,0.909
			c-0.011,0.066-0.031,0.141-0.046,0.204c-0.043,0.216-0.11,0.428-0.195,0.627c-0.02,0.05-0.027,0.108-0.05,0.158
			c-0.023,0.046-0.058,0.083-0.085,0.125c-0.064,0.121-0.135,0.233-0.218,0.341c-0.251,0.374-0.55,0.71-0.936,0.964
			c-0.006-0.021-0.008-0.042-0.014-0.058c-0.55,0.357-1.194,0.59-1.904,0.648C341.152,412.869,339.754,411.628,338.348,410.382z"/>
		<path fill="#446B13" d="M414.816,353.418c2.98-0.241,3.574,4.385,0.596,4.631C412.432,358.29,411.834,353.663,414.816,353.418z"/>
		<path fill="#446B13" d="M457.234,334.784c3.061-0.249,3.619,4.51,0.56,4.759C454.739,339.797,454.175,335.033,457.234,334.784z"/>
		<path fill="#446B13" d="M494.659,324.912c2.103-0.174,2.984,3.073,0.859,3.244C493.415,328.334,492.536,325.086,494.659,324.912z"
			/>
		<path fill="#446B13" d="M514.857,299.89c0.334-0.075,0.658-0.145,1.015-0.108c1.948,0.237,2.195,2.766,0.436,3.268
			c-0.324,0.091-0.667,0.058-1.009,0.042C513.412,303.013,513.09,300.264,514.857,299.89z"/>
		<path fill="#446B13" d="M534.609,303.453c0.187-0.075,0.378-0.141,0.573-0.22c1.163-0.428,2.566,0.287,2.828,1.587
			c0.233,1.208-0.781,2.429-2.06,2.188c-0.179-0.033-0.357-0.066-0.532-0.096c-0.831-0.154-1.532-0.664-1.732-1.524
			C533.513,304.624,533.866,303.731,534.609,303.453z"/>
		<path fill="#446B13" d="M271.046,247.304c2.176-0.178,3.023,3.202,0.822,3.385C269.688,250.863,268.839,247.486,271.046,247.304z"
			/>
		<path fill="#446B13" d="M285.168,205.479c1.101-0.091,1.36,1.632,0.259,1.719C284.325,207.289,284.066,205.57,285.168,205.479z"/>
		<path fill="#446B13" d="M275.164,213.357c0.089-2.247,3.567-2.409,4.331-0.303c0.287,0.797,0.291,1.358,0.087,2.151
			c-0.191,0.735-1.076,1.229-1.796,1.275c-1.086,0.075-1.894-0.59-2.392-1.52C275.11,214.433,275.143,213.913,275.164,213.357z"/>
		<path fill="#446B13" d="M268.805,266.815c2.558-0.208,3.32,3.767,0.745,3.979C266.995,271.005,266.239,267.026,268.805,266.815z"
			/>
		<path fill="#446B13" d="M263.406,299.151c3.3-0.27,3.671,4.875,0.388,5.145C260.497,304.57,260.119,299.425,263.406,299.151z"/>
		<path fill="#446B13" d="M275.023,306.601c3.177-0.262,3.632,4.685,0.465,4.946C272.309,311.809,271.852,306.859,275.023,306.601z"
			/>
		<path fill="#446B13" d="M255.19,325.323c1.593-0.137,1.767,2.351,0.185,2.48C253.782,327.935,253.601,325.456,255.19,325.323z"/>
		<path fill="#446B13" d="M252.772,340.39c0.06-0.805,0.351-1.317,0.93-1.869c0.723-0.677,1.887-0.39,2.668,0.112
			c0.586,0.37,0.833,0.976,1.072,1.574c0.586,1.487-0.465,3.061-2.012,3.123C253.779,343.389,252.654,341.91,252.772,340.39z"/>
		<path fill="#446B13" d="M252.226,356.458c1.466-0.116,2.6,1.175,2.519,2.563c-0.01,0.179-0.017,0.353-0.031,0.527
			c-0.119,1.993-3.204,2.43-3.958,0.428c-0.077-0.204-0.154-0.403-0.226-0.606C250.027,358.028,250.771,356.571,252.226,356.458z"/>
		<path fill="#446B13" d="M358.655,382.835c4.051-0.332,5.492,5.939,1.397,6.279C356.003,389.442,354.566,383.171,358.655,382.835z"
			/>
		<path fill="#446B13" d="M330.539,386.46c0.438-0.939,1.524-1.578,2.556-1.536c0.686,0.025,1.402,0.349,1.952,0.839
			c0.017,0.012,0.044,0.025,0.081,0.066c0.565,0.532,0.936,1.25,0.891,2.014c-0.058,0.835-0.218,1.5-0.768,2.105
			c-0.787,0.872-2.039,1.018-3.177,0.66c-0.893-0.274-1.628-0.839-1.956-1.74C329.832,388.059,329.988,387.091,330.539,386.46z"/>
		<path fill="#446B13" d="M375.531,369.267c2.273-0.187,3.119,3.326,0.822,3.517C374.085,372.971,373.244,369.453,375.531,369.267z"
			/>
		<path fill="#446B13" d="M250.549,377.153c0.249-1.719,2.137-2.346,3.682-1.885c1.667,0.49,2.365,2.151,2.122,3.671l-0.004,0.008
			c-0.201,1.288-1.476,1.948-2.678,1.989c-0.05,0.004-0.096,0.004-0.141,0.012c-1.312,0.037-2.502-1.15-2.857-2.33
			c-0.011-0.046-0.023-0.087-0.037-0.129c0.027,0.042,0.052,0.087,0.079,0.12C250.547,378.145,250.474,377.639,250.549,377.153z"/>
		<path fill="#446B13" d="M456.096,139.702c1.667-0.141,1.84,2.471,0.185,2.604C454.611,142.439,454.438,139.839,456.096,139.702z"
			/>
		<path fill="#446B13" d="M473.212,185.452c0.484,0.046,0.88,0.108,1.329,0.353c0.908,0.486,1.09,1.848,0.386,2.467
			c-0.384,0.349-0.814,0.452-1.31,0.581C471.298,189.452,470.606,185.22,473.212,185.452z"/>
		<path fill="#446B13" d="M488.402,220.666c0.6-0.349,1.287-0.573,2.004-0.253c1.069,0.469,1.761,1.807,1.05,2.795l-0.378,0.519
			c-0.333,0.465-1.095,0.461-1.591,0.199c-0.293-0.15-0.457-0.241-0.554-0.291c-0.013-0.004-0.037-0.012-0.102-0.037
			C487.464,223.096,487.214,221.343,488.402,220.666z"/>
		<path fill="#446B13" d="M452.133,131.99c0.035-0.012,0.056-0.025,0.081-0.037c1.038-0.805,2.606-0.012,3.185,1.084
			c0.235,0.457,0.264,0.98,0.226,1.462c-0.128,1.844-2.562,2.251-3.599,0.772C450.803,134.561,450.886,132.493,452.133,131.99z"/>
		<path fill="#446B13" d="M290.403,194.909c3.453-0.282,3.711,5.117,0.285,5.399C287.239,200.59,286.983,195.187,290.403,194.909z"
			/>
		<path fill="#96C259" d="M336.238,297.24c2.519-0.208,4.988,1.379,5.528,3.991c0.492,2.404-1.111,5.008-3.634,5.22
			c-2.519,0.204-4.99-1.379-5.528-3.983C332.108,300.056,333.713,297.444,336.238,297.24z"/>
		<g>
			<path fill="#96C259" d="M316.196,280.221c-0.164-0.212-0.31-0.436-0.421-0.689C315.913,279.76,316.052,279.993,316.196,280.221z"
				/>
			<path fill="#96C259" d="M318.357,274.672c2.182-0.191,4.388,1.873,4.053,4.095c-0.006,0.033-0.012,0.071-0.017,0.104
				c-0.226,1.524-1.292,2.724-2.899,2.878c-1.256,0.125-2.513-0.49-3.287-1.508c-0.199-0.274-0.376-0.552-0.504-0.86
				C314.728,277.247,316.121,274.868,318.357,274.672z"/>
			<path fill="#96C259" d="M316.273,280.35c-0.027-0.046-0.054-0.083-0.077-0.129c0,0.008,0.004,0.012,0.012,0.021
				C316.235,280.275,316.246,280.312,316.273,280.35z"/>
		</g>
		<path fill="#96C259" d="M306.91,224.412c3.41-0.282,3.7,5.05,0.313,5.329C303.809,230.023,303.518,224.682,306.91,224.412z"/>
		<path fill="#96C259" d="M320.281,206.654c0.411-0.212,0.866-0.366,1.335-0.399c2.43-0.183,4.826,1.121,5.432,3.709
			c0.542,2.276-0.912,4.946-3.346,5.162c-1.044,0.091-1.503,0.034-2.529-0.236c-1.51-0.403-2.729-2.002-3.082-3.434
			C317.614,209.453,318.546,207.534,320.281,206.654z"/>
		<path fill="#96C259" d="M325.09,221.787c1.389-0.108,2.675,1.225,2.774,2.55c0.116,1.474-0.98,2.471-2.372,2.583
			c-1.393,0.116-2.672-1.221-2.772-2.55C322.606,222.901,323.702,221.904,325.09,221.787z"/>
		<path fill="#96C259" d="M312.296,213.793c1.85-0.15,3.648,1.188,3.975,3.069c0.316,1.827-0.953,3.601-2.806,3.755
			c-1.85,0.149-3.651-1.175-3.972-3.065C309.177,215.724,310.44,213.951,312.296,213.793z"/>
		<path fill="#96C259" d="M327.262,184.215c2.606-0.216,5.135,1.67,5.588,4.323c0.447,2.575-1.335,5.054-3.943,5.27
			c-2.608,0.212-5.135-1.661-5.59-4.319C322.876,186.914,324.656,184.431,327.262,184.215z"/>
		<path fill="#96C259" d="M321.053,174.385c3.725-0.307,5.32,5.478,1.545,5.789C318.873,180.481,317.271,174.696,321.053,174.385z"
			/>
		<path fill="#96C259" d="M320.725,159.205c-0.01-0.041-0.039-0.071-0.052-0.112c-0.012-0.021-0.006-0.042-0.017-0.067
			c-0.066-0.187-0.11-0.374-0.131-0.569c-0.014-0.208-0.009-0.407,0.027-0.598c0-0.033,0.011-0.062,0.017-0.095
			c0.031-0.15,0.073-0.295,0.131-0.428c0.025-0.067,0.054-0.129,0.077-0.183c0.05-0.083,0.097-0.158,0.154-0.228
			c0.048-0.075,0.079-0.145,0.133-0.208c0.606-0.706,2.035-1.175,2.939-0.507c-0.135,0.44-0.266,0.881-0.401,1.321
			c0.444,0.851,0.889,1.703,1.333,2.55c-0.609,0.656-1.497,0.88-2.324,0.706c-0.004,0.008-0.004,0.012-0.006,0.025
			c-0.409-0.1-0.779-0.287-1.107-0.557c-0.012-0.017-0.033-0.025-0.048-0.037l-0.009-0.004c-0.143-0.128-0.272-0.274-0.388-0.428
			c-0.042-0.058-0.083-0.12-0.12-0.191C320.856,159.471,320.787,159.338,320.725,159.205z"/>
		<path fill="#96C259" d="M345.215,146.239c2.039-0.166,3.95,1.67,4.16,3.651c0.226,2.131-1.335,3.733-3.37,3.9
			c-2.046,0.17-3.956-1.674-4.168-3.659C341.616,148.004,343.178,146.406,345.215,146.239z"/>
		<path fill="#96C259" d="M359.549,128.963c-0.071-1.632,1.157-2.558,2.643-2.679c1.495-0.125,2.824,1.47,2.884,2.845
			c0.069,1.624-1.158,2.558-2.647,2.675C360.939,131.928,359.603,130.341,359.549,128.963z"/>
		<path fill="#96C259" d="M339.426,136.185c2.633-0.212,3.375,3.892,0.729,4.108C337.528,140.508,336.782,136.401,339.426,136.185z"
			/>
		<path fill="#96C259" d="M367.609,118.322c1.593-0.128,3.175,0.627,3.632,2.347c0.39,1.449-0.488,3.339-2.089,3.468
			c-1.599,0.129-3.181-0.631-3.638-2.346C365.127,120.337,366.003,118.451,367.609,118.322z"/>
		<path fill="#96C259" d="M376.49,110.382c-0.05-1.682,1.221-2.584,2.743-2.708c1.526-0.125,2.871,1.554,2.915,2.949
			c0.048,1.674-1.217,2.575-2.743,2.7C377.883,113.447,376.54,111.773,376.49,110.382z"/>
		<path fill="#96C259" d="M408.913,114.784c1.659-0.137,3.304,0.752,3.731,2.521c0.38,1.541-0.592,3.409-2.251,3.543
			c-1.667,0.137-3.304-0.752-3.738-2.513C406.28,116.786,407.247,114.917,408.913,114.784z"/>
		<path fill="#96C259" d="M420.823,121.5c0.008-0.054,0.019-0.104,0.023-0.158c0.179-1.121,1.531-1.358,2.43-0.818
			c-0.054-0.062,0.037,0.004,0.21,0.15c0.044,0.037,0.087,0.071,0.127,0.108c0,0,0,0.004,0.008,0.008
			c0.108,0.117,0.177,0.22,0.241,0.332c0.01,0.017,0.023,0.025,0.027,0.037c-0.004-0.008-0.008-0.004-0.017-0.012
			c0.04,0.066,0.075,0.137,0.114,0.212c0.511,1.009,0.019,2.214-1.084,2.401C421.542,124.004,420.633,122.712,420.823,121.5z"/>
		<path fill="#96C259" d="M423.942,142.182c2.822-0.233,3.497,4.174,0.665,4.402C421.783,146.816,421.112,142.414,423.942,142.182z"
			/>
		<path fill="#96C259" d="M432.649,134.503c1.19-1.599,3.21-1.52,4.886-0.49c0.048,0.029,0.087,0.058,0.133,0.087
			c1.692,1.038,1.856,3.597,0.843,4.954c-0.54,0.723-1.389,1.184-2.33,1.267c-1.317,0.108-2.336-0.519-3.256-1.462
			c-0.031-0.033-0.06-0.066-0.091-0.095C431.715,137.622,431.821,135.62,432.649,134.503z"/>
		<path fill="#96C259" d="M435.496,155.446c0.937,0.465,1.593,1.446,1.647,2.459c0.042,0.702-0.199,1.379-0.662,1.873
			c-0.181,0.145-0.364,0.287-0.548,0.436c-0.785,0.274-0.876,0.336-0.274,0.179c-1.753,1.275-4.321-0.706-4.369-2.67
			C431.233,155.446,433.565,154.487,435.496,155.446z"/>
		<path fill="#96C259" d="M439.033,169.829c1.744-1.051,4.462-0.486,5.6,1.466c0.023,0.033,0.037,0.062,0.058,0.096
			c1.142,1.952,0.825,4.356-1.065,5.498c-0.895,0.536-2.017,0.673-3.073,0.386c-0.741-0.208-1.331-0.577-1.815-1.046
			c0.056,0.133-0.18-0.137-0.72-0.822c-0.164-0.311-0.316-0.631-0.463-0.951c-0.006-0.013-0.019-0.029-0.023-0.042
			c0,0,0.004,0.008,0.008,0.012c-0.014-0.037-0.033-0.066-0.052-0.104C436.742,172.678,437.668,170.647,439.033,169.829z"/>
		<path fill="#96C259" d="M440.468,199.49c0.037,0.021,0.062,0.033,0.089,0.054c1.212,0.751,1.061,2.338,0.239,3.14l-0.154,0.141
			c-1.138,1.1-3.181-0.037-3.435-1.487C436.871,199.39,438.937,198.555,440.468,199.49z"/>
		<path fill="#96C259" d="M416.567,183.654c1.202-0.1,2.253-0.008,3.339,0.694c1.005,0.656,1.744,1.674,2.039,2.82
			c0.565,2.164-0.756,4.917-3.136,5.113c-1.206,0.1-2.253,0.012-3.341-0.698c-1.003-0.652-1.742-1.673-2.035-2.811
			C412.866,186.603,414.189,183.853,416.567,183.654z"/>
		<path fill="#96C259" d="M439.496,214.283l0.116-0.768c0.152-0.515,1.979-2.259,3.121-1.989c0.237,0.041,0.475,0.095,0.71,0.145
			c0.828,0.195,1.487,0.868,1.875,1.657c0.089,0.166,0.158,0.341,0.214,0.523c0.004,0.008,0.01,0.017,0.014,0.033
			c0.021,0.058,0.05,0.117,0.063,0.179c0.017,0.054,0.014,0.125,0.027,0.191c0.019,0.104,0.029,0.199,0.04,0.303
			c0.002,0.046,0.012,0.091,0.01,0.137c0.002,0.054,0.013,0.112,0.008,0.162c0.002,0.066-0.027,0.116-0.029,0.179
			c-0.023,0.212-0.058,0.419-0.122,0.619c-0.033,0.104-0.066,0.203-0.108,0.303c-0.364,0.872-1.109,1.57-2.1,1.653
			c-1.337,0.228-2.772-0.498-3.445-1.74C439.62,215.367,439.49,214.84,439.496,214.283z"/>
		<path fill="#96C259" d="M433.181,187.367l1.094-1.428c1.256-1.258,3.437-0.719,4.631,0.532c-0.666-0.686-0.59-0.627,0.224,0.174
			c0.222,0.316,0.43,0.652,0.6,1.001c1.121,2.122-0.532,4.56-2.68,4.735c-1.223,0.091-2.49-0.473-3.277-1.482
			c-0.413-0.519-0.669-1.113-0.775-1.761C432.905,188.517,432.967,187.924,433.181,187.367z"/>
		<path fill="#96C259" d="M332.115,227.971c2.593-0.208,5.112,1.608,5.58,4.261c0.452,2.546-1.294,5.054-3.885,5.266
			c-2.595,0.216-5.111-1.611-5.584-4.257C327.776,230.692,329.523,228.187,332.115,227.971z"/>
		<path fill="#96C259" d="M330.621,241.473c4.878-0.399,5.615,7.213,0.748,7.612C326.493,249.484,325.758,241.876,330.621,241.473z"
			/>
		<path fill="#96C259" d="M319.769,233.279c2.675-0.224,5.247,1.881,5.638,4.56c0.395,2.703-1.516,5.087-4.194,5.303
			c-2.677,0.225-5.247-1.881-5.638-4.56C315.18,235.883,317.091,233.495,319.769,233.279z"/>
		<path fill="#96C259" d="M332.748,146.451c2.11-0.179,4.06,1.873,4.213,3.883c0.176,2.247-1.491,3.767-3.601,3.937
			c-2.111,0.17-4.06-1.873-4.22-3.879C328.964,148.137,330.636,146.621,332.748,146.451z"/>
		<path fill="#96C259" d="M449.721,185.058c1.923-0.158,3.783,1.379,4.076,3.302c0.288,1.952-1.095,3.663-3.028,3.817
			c-1.933,0.162-3.787-1.371-4.074-3.302C446.407,186.927,447.785,185.216,449.721,185.058z"/>
		<path fill="#96C259" d="M455.622,177.321c2.473-0.204,3.279,3.638,0.793,3.846C453.946,181.37,453.141,177.528,455.622,177.321z"
			/>
		<path fill="#96C259" d="M345.591,357.509c4.934-0.407,5.621,7.272,0.702,7.679C341.363,365.587,340.67,357.908,345.591,357.509z"
			/>
		<path fill="#96C259" d="M339.393,370.18c1.823-0.15,3.605,1.092,3.952,2.961c0.326,1.773-0.889,3.576-2.718,3.725
			c-1.827,0.145-3.607-1.096-3.952-2.961C336.346,372.12,337.561,370.326,339.393,370.18z"/>
		<path fill="#96C259" d="M324.396,346.242c3.746-0.307,5.337,5.482,1.541,5.793C322.195,352.339,320.6,346.549,324.396,346.242z"/>
		<path fill="#96C259" d="M326.797,362.68c3.142-0.257,3.632,4.627,0.492,4.888C324.147,367.821,323.659,362.933,326.797,362.68z"/>
		<path fill="#96C259" d="M287.251,292.061c1.57-0.129,3.117,0.556,3.591,2.247c0.388,1.4-0.444,3.293-2.016,3.422
			c-1.568,0.125-3.121-0.565-3.588-2.251C284.853,294.08,285.683,292.19,287.251,292.061z"/>
		<path fill="#96C259" d="M290.136,308.329c1.958-0.162,3.831,1.437,4.089,3.372c0.268,1.994-1.163,3.684-3.121,3.841
			c-1.962,0.162-3.835-1.428-4.095-3.372C286.747,310.181,288.177,308.487,290.136,308.329z"/>
		<path fill="#96C259" d="M274.74,278.348c1.68-0.141,3.341,0.789,3.76,2.567c0.366,1.565-0.646,3.435-2.328,3.571
			c-1.686,0.141-3.349-0.793-3.761-2.566C272.047,280.35,273.05,278.481,274.74,278.348z"/>
		<path fill="#96C259" d="M304.543,252.2c5.768-0.469,7.849,8.489,2.031,8.966C300.798,261.644,298.726,252.678,304.543,252.2z"/>
		<path fill="#96C259" d="M287.594,266.715c2.55-0.208,3.316,3.767,0.739,3.975C285.781,270.902,285.015,266.927,287.594,266.715z"
			/>
		<path fill="#96C259" d="M291.101,215.363c1.329-0.108,2.573,1.105,2.7,2.388c0.135,1.4-0.889,2.425-2.222,2.533
			c-1.331,0.108-2.579-1.104-2.701-2.392C288.742,216.496,289.766,215.466,291.101,215.363z"/>
		<path fill="#96C259" d="M281.395,226.958c3.53-0.291,3.723,5.233,0.218,5.523C278.083,232.768,277.895,227.241,281.395,226.958z"
			/>
		<path fill="#96C259" d="M461.154,160.995c0.002-1.026,0.951-1.503,1.761-1.287c-0.01-0.012-0.027-0.025-0.035-0.037
			c0.143,0.029,0.274,0.1,0.397,0.183c0.02,0.008,0.039,0.029,0.062,0.046c0.094,0.075,0.181,0.145,0.259,0.233
			c0.044,0.05,0.083,0.1,0.121,0.15c0.097,0.141,0.179,0.286,0.222,0.432c0.085,0.262,0.11,0.503,0.1,0.764
			c-0.025,1.553-2.203,1.877-2.737,0.299C461.218,161.514,461.15,161.269,461.154,160.995z"/>
		<path fill="#96C259" d="M467.41,172.462c3.856-0.316,5.416,5.677,1.512,5.997C465.066,178.774,463.505,172.781,467.41,172.462z"/>
		<path fill="#96C259" d="M469.83,197.401c2.342-0.191,3.177,3.451,0.814,3.646C468.301,201.238,467.46,197.592,469.83,197.401z"/>
		<path fill="#96C259" d="M478.069,207.431c4.292-0.353,5.582,6.329,1.263,6.686C475.04,214.466,473.75,207.788,478.069,207.431z"/>
		<path fill="#96C259" d="M479.648,221.052c2.388-0.195,3.216,3.509,0.812,3.705C478.071,224.956,477.239,221.256,479.648,221.052z"
			/>
		<path fill="#96C259" d="M457.875,213.851c-0.1-2.433,1.744-3.796,3.975-3.978c2.232-0.183,4.224,2.214,4.309,4.261
			c0.1,2.438-1.744,3.8-3.977,3.983C459.949,218.303,457.96,215.899,457.875,213.851z"/>
		<path fill="#96C259" d="M453.78,197.829c4.159-0.336,5.538,6.138,1.341,6.483C450.962,204.652,449.588,198.177,453.78,197.829z"/>
		<path fill="#96C259" d="M434.639,121.354c2.216-0.179,3.077,3.26,0.833,3.443C433.262,124.976,432.404,121.537,434.639,121.354z"
			/>
		<path fill="#96C259" d="M396.79,119.153c2.587-0.208,3.352,3.829,0.749,4.041C394.95,123.41,394.188,119.373,396.79,119.153z"/>
		<path fill="#96C259" d="M392.383,108.717c1.836-0.15,3.62,1.146,3.96,3.019c0.324,1.811-0.914,3.597-2.747,3.742
			c-1.827,0.154-3.62-1.142-3.96-3.028C389.312,110.652,390.55,108.866,392.383,108.717z"/>
		<path fill="#96C259" d="M443.507,305.729c2.521-0.203,3.312,3.7,0.773,3.904C441.767,309.84,440.97,305.937,443.507,305.729z"/>
		<path fill="#96C259" d="M445.295,273.235c2.035-0.166,3.956,1.645,4.182,3.617c0.23,2.114-1.314,3.729-3.347,3.896
			c-2.039,0.166-3.958-1.645-4.178-3.613C441.715,275.017,443.26,273.406,445.295,273.235z"/>
		<path fill="#96C259" d="M443.69,259.668c0.64-1.823,3.52-1.653,4.516-0.046c0.025,0.05,0.048,0.091,0.081,0.137
			c0.48,0.785,0.655,1.873,0.187,2.645c-0.01,0.021-0.021,0.042-0.033,0.058c-1.155,1.919-3.966,1.645-4.867-0.623
			C443.26,261.051,443.429,260.398,443.69,259.668z"/>
		<path fill="#96C259" d="M459.387,264.78c2.683-0.216,3.42,3.954,0.727,4.17C457.431,269.174,456.691,265.004,459.387,264.78z"/>
		<path fill="#96C259" d="M408.126,295.006c2.886-0.236,5.54,2.579,5.742,5.308c0.235,3.073-2.058,5.096-4.946,5.337
			c-2.891,0.236-5.536-2.584-5.742-5.304C402.945,297.269,405.235,295.242,408.126,295.006z"/>
		<path fill="#96C259" d="M405.355,309.89c1.192-0.1,2.185-0.071,3.279,0.611c0.995,0.623,1.736,1.603,2.048,2.712
			c0.583,2.077-0.642,4.871-2.972,5.062c-1.189,0.1-2.182,0.071-3.275-0.615c-0.999-0.619-1.744-1.603-2.052-2.708
			C401.805,312.881,403.026,310.081,405.355,309.89z"/>
		<path fill="#96C259" d="M392.539,313.312c4.554-0.374,5.621,6.712,1.05,7.085C389.034,320.775,387.971,313.686,392.539,313.312z"
			/>
		<path fill="#96C259" d="M444.344,226.734c2.502-0.203,4.971,1.35,5.526,3.954c0.507,2.401-1.071,5.013-3.58,5.216
			c-2.506,0.199-4.971-1.346-5.521-3.954C440.256,229.554,441.83,226.937,444.344,226.734z"/>
		<path fill="#96C259" d="M441.3,145.467c2.71-0.225,3.432,4.012,0.708,4.236C439.296,149.927,438.572,145.691,441.3,145.467z"/>
		<path fill="#96C259" d="M423.074,131.309c2.791-0.229,3.478,4.136,0.675,4.365C420.952,135.907,420.265,131.542,423.074,131.309z"
			/>
		<path fill="#96C259" d="M356.96,115.818c0.409-1.362,1.46-2.268,2.984-2.193c2.043,0.1,3.956,2.886,2.598,4.622
			c-0.162,0.203-0.326,0.411-0.492,0.615c-0.471,0.611-1.289,0.814-2.085,0.735C358.166,119.701,356.451,117.505,356.96,115.818z"/>
		<path fill="#96C259" d="M379.038,94.023c2.417-0.195,3.227,3.58,0.787,3.775C377.41,98.002,376.596,94.231,379.038,94.023z"/>
		<path fill="#96C259" d="M391.823,97.146c1.383-0.117,1.62,2.052,0.241,2.163C390.681,99.422,390.444,97.254,391.823,97.146z"/>
		<path fill="#96C259" d="M370.262,98.151c2.34-0.195,3.169,3.451,0.812,3.646C368.734,101.988,367.901,98.342,370.262,98.151z"/>
		<path fill="#96C259" d="M343.261,99.455c0.085-0.236,0.166-0.473,0.245-0.714c0.299-0.897,1.609-0.731,2.101-0.029
			c0.104,0.166,0.222,0.324,0.33,0.486c0.548,0.818,0.039,1.906-0.822,2.106C344.152,101.523,342.885,100.497,343.261,99.455z"/>
		<path fill="#96C259" d="M336.566,108.833c4.28-0.349,5.549,6.337,1.242,6.69C333.529,115.872,332.264,109.186,336.566,108.833z"/>
		<path fill="#96C259" d="M295.734,335.955c3.538-0.29,3.729,5.229,0.212,5.515C292.409,341.761,292.222,336.241,295.734,335.955z"
			/>
		<path fill="#96C259" d="M275.99,336.769c0.303-2.023,1.508-3.659,3.659-3.975c1.765-0.253,3.447,0.548,4.55,1.935
			c1.84,2.026,1.786,5.22-0.297,6.861c-0.974,0.764-2.262,1.088-3.539,0.889c-1.423-0.216-3.484-1.383-3.889-2.919
			C276.204,338.555,275.835,337.811,275.99,336.769z"/>
		<path fill="#96C259" d="M288.703,345.76c1.972-0.162,2.845,2.882,0.847,3.048C287.571,348.97,286.703,345.922,288.703,345.76z"/>
		<path fill="#96C259" d="M278.091,352.65c3.262-0.266,3.667,4.809,0.411,5.075C275.24,357.991,274.84,352.92,278.091,352.65z"/>
		<path fill="#96C259" d="M289.818,362.123c1.283-0.428,3.177,0.548,3.195,2.068c0,0.457-0.012,0.885-0.083,1.325
			c-0.31,2.014-3.088,2.438-4.026,0.407c-0.135-0.29-0.278-0.573-0.37-0.876C288.175,363.818,288.557,362.547,289.818,362.123z"/>
		<path fill="#96C259" d="M301.602,355.852c1.84-0.15,1.933,2.712,0.11,2.861C299.879,358.867,299.781,356.006,301.602,355.852z"/>
		<path fill="#96C259" d="M299.384,372.198c0.637-1.2,2.496-0.893,3.304,0.054c0.623,0.727,0.567,1.528,0.526,2.367
			c-0.091,1.869-3.048,2.421-3.763,0.482c-0.064-0.166-0.125-0.332-0.183-0.498C298.919,373.664,298.936,373.046,299.384,372.198z"
			/>
		<path fill="#96C259" d="M260.64,350.017c0.793-0.648,2.135-0.665,3.019-0.021c0.851,0.611,0.98,1.454,0.856,2.367
			c-0.096,0.748-0.474,1.379-1.275,1.52c-0.528,0.1-1.134-0.087-1.545-0.469c-0.287-0.071-0.557-0.187-0.806-0.365
			C259.837,352.314,259.712,350.781,260.64,350.017z"/>
	</g>
	<g>
		<path d="M356.677,248.276c-13.244-4.145-29.052,0.278-36.667,14.128c-6.842,12.438-8.622,30.23-0.858,45.916
			c1.79,3.613,4.033,6.674,6.574,9.224c-4.861-1.441-10.094-1.295-15.499,1.258c-0.758,0.353-0.505,1.504,0.359,1.433
			c12.158-1.109,19.187,6.682,28.027,13.46c2.51,1.927,5.987-1.449,3.937-3.941c-1.265-1.536-2.619-2.978-4.039-4.34
			c14.185,4.618,30.915-0.831,39.151-15.553C389.869,288.02,380.921,255.859,356.677,248.276z"/>
		<path fill="#FFFFFF" d="M375.813,294.802c-2.056,26.978-37.766,36.397-51.286,9.39c-4.083-8.173-5.123-19.287-3.657-28.295
			c1.67-10.237,8.026-21.637,21.108-24.104c11.633-2.201,21.33,2.849,27.447,12.542
			C375.549,274.024,376.708,283.253,375.813,294.802z"/>
		<path d="M476.425,256.843c-8.373-11.683-16.417-23.132-27.971-31.912c-7.789-5.914-22.387-15.001-31.339-7.172
			c-2.625,2.288-2.272,7.28,1.41,8.385c3.927,1.175,7.874,0.864,11.855,1.939c2.837,0.764,5.592,2.031,8.248,3.46
			c-7.908-0.228-15.778,2.857-22.643,9.211c-8.316,7.704-12.102,19.121-12.528,34.57c-0.432,15.441,6.55,35.807,28.011,40.198
			c4.117,0.847,7.963,1.013,11.545,0.652c-2.504,2.101-4.861,4.373-7.021,6.807c-2.22,2.5,1.593,5.76,3.877,3.389
			c10.079-10.44,23.273-18.398,37.442-21.82c1.225-0.299,1.115-2.305-0.216-2.255c-4.238,0.174-8.404,0.905-12.44,2.101
			c2.996-3.692,5.314-8.007,6.848-12.687c3.89-11.832,2.05-26.31-2.701-37.444c1.898,1.516,3.825,2.994,5.845,4.365
			C475.698,259.339,477.176,257.886,476.425,256.843z"/>
		<path fill="#FFFFFF" d="M409.563,272.177c0.39-17.485,8.794-36.115,26.968-35.895c22.15,0.253,28.301,21.48,29.672,35.687
			c1.894,19.748-8.267,39.516-32.307,36.589C417.189,306.526,409.191,289.295,409.563,272.177z"/>
		<path d="M374.179,288.178c0.259,9.785-7.457,17.916-17.225,18.174c-9.772,0.266-17.9-7.447-18.172-17.214
			c-0.266-9.768,7.442-17.904,17.223-18.166C365.777,270.698,373.915,278.402,374.179,288.178z"/>
		<path d="M464.038,275.918c0.785,9.386-6.186,17.63-15.568,18.419c-9.373,0.777-17.623-6.175-18.423-15.562
			c-0.789-9.382,6.177-17.63,15.559-18.419C454.993,259.572,463.232,266.537,464.038,275.918z"/>
		<path fill="#FFFFFF" d="M368.346,283.091c0.079,3.036-2.301,5.552-5.332,5.64c-3.038,0.083-5.559-2.313-5.636-5.341
			c-0.091-3.036,2.301-5.574,5.341-5.648C365.754,277.658,368.269,280.059,368.346,283.091z"/>
		<path fill="#FFFFFF" d="M458.033,271.512c0.243,2.791-1.827,5.245-4.629,5.47c-2.791,0.257-5.247-1.824-5.47-4.61
			c-0.253-2.799,1.832-5.254,4.616-5.486C455.346,266.649,457.804,268.717,458.033,271.512z"/>
	</g>
	<g>
		<path d="M495.07,345.079c-3.266-7.372-8.75-12.663-18.73-15.209c-9.257-2.359-20.518-0.964-27.095,5.15
			c-2.894,2.679,1.747,5.262,5.007,4.261c6.238-1.923,11.593-3.352,17.983-2.853c-5.264,24.383-43.252,37-71.003,40.957
			c-32.365,4.614-70.052,0.303-84.814-23.851c3.75-1.387,7.868-2.255,12.404-2.961c4.155-0.652,4.103-5.768,0.089-6.288
			c-19.611-2.537-33.887,17.563-39.921,29.129c-0.654,1.258,1.786,2.151,2.891,1.192c5.189-4.523,8.969-9.647,13.815-14.39
			c1.036-1.026,2.13-1.894,3.244-2.712c0,0.042-0.027,0.075-0.015,0.121c5.264,26.471,17.308,57.586,24.7,68.982
			c12.648,19.507,33.503,39.757,64.518,40.795c33.332,1.126,54.602-25.612,65.645-46.236c6.958-12.991,11.178-27.066,13.857-40.779
			c2.787-14.253,4.629-29.155,0.299-43.063c6.136,1.404,12.154,4.17,15.086,8.456C493.679,346.724,495.527,346.097,495.07,345.079z"
			/>
		<path fill="#FFFFFF" d="M363.375,383.3c10.652,1.163,21.6,1.138,31.48,0.34c0.908,6.554,2.783,25.583,3.408,31.779
			c-11.654,1.387-23.504-0.216-34.022-4.095C363.493,402.022,363.507,392.307,363.375,383.3z"/>
		<path fill="#FFFFFF" d="M323.586,389.708c-0.484-1.371-0.978-2.791-1.485-4.236c3.625,5.415,7.859,10.599,12.397,15.412
			c0.27,5.577,0.926,11.139,1.844,16.65C331.055,408.6,326.917,399.214,323.586,389.708z"/>
		<path fill="#FFFFFF" d="M316.292,361.837c4.273,6.624,11.234,11.496,19.639,14.984c-0.805,4.577-1.279,9.178-1.462,13.784
			C325.615,381.061,318.509,370.03,316.292,361.837z"/>
		<path fill="#FFFFFF" d="M361.001,422.911c0.177,8.896,0.143,17.841,2.112,26.517c-9.539-7.334-17.019-16.816-22.752-25.487
			c-1.368-6.603-2.284-13.215-2.741-19.856c1.848,1.835,3.731,3.609,5.629,5.299c5.127,4.564,11.118,8.319,17.699,11.114
			C360.966,421.3,360.986,422.106,361.001,422.911z"/>
		<path fill="#FFFFFF" d="M347.498,402.412c-3.491-2.587-6.94-5.615-10.215-8.896c0.037-5.233,0.39-10.486,1.028-15.769
			c6.865,2.558,14.581,4.24,22.534,5.258c-0.556,8.929-0.415,17.925-0.179,26.883C355.905,407.836,351.449,405.34,347.498,402.412z"
			/>
		<path fill="#FFFFFF" d="M402.116,461.846c-1.889,0.125-3.816,0.158-5.789,0.083c-11.126-0.411-20.689-4.078-28.878-9.427
			c-3.514-9.701-3.048-20.52-3.127-30.683c10.586,3.833,22.543,5.166,34.931,3.285C400.382,437.335,400.555,449.665,402.116,461.846
			z"/>
		<path fill="#FFFFFF" d="M471.782,346.583c-3.152,6.657-7.399,15.536-13.23,24.781c-1.034-2.338-2.147-4.635-3.318-6.894
			C462.333,359.507,468.081,353.56,471.782,346.583z"/>
		<path fill="#FFFFFF" d="M452.586,366.235c1.418,2.886,2.637,5.756,3.694,8.626c-5.106,7.612-11.288,15.292-18.84,22.003
			c-0.37-2.122-3.875-15.948-5.507-20.832C439.415,373.428,446.425,370.159,452.586,366.235z"/>
		<path fill="#FFFFFF" d="M397.49,383.424c1.608-0.158,3.187-0.333,4.722-0.528c8.686-1.101,17.411-2.957,25.695-5.54
			c2.099,6.757,4.627,15.67,6.065,22.443c-4.234,3.398-8.856,6.483-13.923,9.083c-5.636,2.894-11.591,4.83-17.64,5.93
			C401.099,404.322,399.477,393.861,397.49,383.424z"/>
		<path fill="#FFFFFF" d="M434.199,449.462c-7.862,6.005-17.13,10.466-27.821,11.948c-0.617-12.405-1.539-24.756-2.86-37.066
			c12.873-2.699,23.296-8.111,31.935-15.101C437.344,422.446,437.685,438.182,434.199,449.462z"/>
		<path fill="#FFFFFF" d="M439.286,445.188c2.123-9.162,0.615-27.95-0.556-38.748c8.013-7.251,14.376-15.902,19.685-24.939
			c2.86,10.3,4.554,24.657,3.792,30.903C458.897,422.924,449.343,435.948,439.286,445.188z"/>
		<path fill="#FFFFFF" d="M465.932,402.794c0.019-8.663-1.942-17.343-5.034-25.649c5.793-10.624,10.3-21.55,14.421-31.185
			C478.331,364.457,473.119,384.504,465.932,402.794z"/>
	</g>
	<path d="M440.399,477.462c-17.927,18.614-55.032,18.66-74.217,0.718c-0.916-0.851-2.226,0.204-1.501,1.25
		c15.925,23.128,67.19,34.852,83.036,4.639C450.09,479.534,444.654,473.047,440.399,477.462z"/>
	<path d="M362.752,222.278c-21.237-3.671-40.148,14.523-51.436,30.309c-1.034,1.441,0.484,3.958,2.177,2.641
		c7.623-5.897,15.522-11.168,24.193-15.358c8.206-3.962,16.606-4.556,25.446-5.881C370.065,232.955,369.118,223.382,362.752,222.278
		z"/>
	<path fill="#446B13" d="M406.066,472.283c14.791,1.885,22.308,14.22,0.029,14.677C383.82,487.417,382.724,469.305,406.066,472.283z
		"/>
	<path fill="#446B13" d="M382.327,474.035c2.533,0.615,2.519,6.275-1.09,5.765C376.878,479.177,377.534,472.86,382.327,474.035z"/>
	<path fill="#446B13" d="M387.067,469.729c2.963,0.615,2.116,3.941-0.056,4.116C384.092,474.085,383.679,469.031,387.067,469.729z"
		/>
	<path fill="#446B13" d="M424.206,478.629c0.839,3.061,6.591,1.611,5.529-1.827C428.32,472.233,423.128,474.7,424.206,478.629z"/>
	<path d="M678.944,199.631c-5.748-0.171-11.915,4.439-16.322,7.783c-3.75,2.84-6.923,5.91-9.598,9.506
		c-0.839-1.047-1.777-1.985-2.865-2.691c5.424-4.46,10.42-9.884,13.647-15.636c0.926-1.649,0.926-4.768-0.864-6.744
		c-1.504-1.661-3.26-2.438-5.457-1.815c-3.31,0.93-4.323,3.784-6.084,6.35c-1.487,2.176-6.795,12.384-9.025,15.362
		c-2.185,0.27-8.082,1.433-11.275,5.781c-2.625-9.282-11.018-14.415-18.448-12.505c-7.073,1.81-3.929,12.505,2.816,12.056
		c2.973-0.199,4.253-0.556,6.271,2.263c1.632,2.288,4.078,9.228,5.507,11.587c-31.027,6.686-70.452,18.954-93.087,41.7
		c-2.126,2.131-0.125,6.566,2.974,4.871c30.45-16.641,66.245-32.086,95.632-38.607c6.375,4.419,16.728,3.048,23.174-4.813
		c2.919,0.478,5.839,0.972,8.75,1.412c3.833,0.577,7.11,2.035,11.018,1.67c3.468-0.32,4.257-5.349,1.549-7.135
		c-5.549-3.675-13.406-3.214-20.342-2.392c-0.108-1.96-0.453-3.085-1.113-4.929c3.75-2.392,7.654-4.627,11.504-6.815
		c4.814-2.741,10.893-5.021,15.038-8.622C685.568,204.477,682.507,199.735,678.944,199.631z"/>
</g>
</svg>
