<?xml version="1.0" encoding="utf-8"?>
<!-- Generator: Adobe Illustrator 16.0.0, SVG Export Plug-In . SVG Version: 6.00 Build 0)  -->
<!DOCTYPE svg PUBLIC "-//W3C//DTD SVG 1.1//EN" "http://www.w3.org/Graphics/SVG/1.1/DTD/svg11.dtd">
<svg version="1.1" id="Layer_1" xmlns="http://www.w3.org/2000/svg" xmlns:xlink="http://www.w3.org/1999/xlink" x="0px" y="0px"
	 width="50px" height="50px" viewBox="0 0 50 50" enable-background="new 0 0 50 50" xml:space="preserve">
<g>
	<g>
		<g>
			<g>
				<g>
					<path fill-rule="evenodd" clip-rule="evenodd" fill="#062533" d="M32.9,15.731c1.141,1.108,2,1.77,3.044,2.043
						c0.905,0.237,2.839,0.223,4.056,0.143c0.013,0,0.536,0.061,0.919-0.091c1.861,0.097,3.791,0.742,5.447,1.186
						c0.661,0.084,1.028-1.589,0.538-1.931c-2.271-0.868-3.548-2.435-6.442-1.867c-0.688-0.418-2.101-0.949-2.608-1.22
						c-0.671-1.088-2.063-1.585-3.592-0.757L32.9,15.731z"/>
					<path fill-rule="evenodd" clip-rule="evenodd" fill="#031821" d="M32.9,15.731c1.141,1.108,2,1.77,3.044,2.043
						c0.573,0.15,1.437,0.106,2.304,0.034c0.556-0.717,0.976-0.861,1.415-1.917l0.768,0.35c2.73-0.459,4.216,0.548,6.745,1.443
						c-0.063-0.269-0.12-0.499-0.271-0.603c-2.271-0.868-3.548-2.435-6.442-1.867c-0.688-0.418-2.101-0.949-2.608-1.22
						c-0.671-1.088-2.063-1.585-3.592-0.757L32.9,15.731z"/>
					<g>
						<path fill-rule="evenodd" clip-rule="evenodd" fill="#00111C" d="M46.992,17.134c0.111,0.02,0.297,0.072,0.429,0.055
							c0.378-0.046,0.729-0.073,1.03,0.162c0.081,0.061,0.16,0.076,0.194,0.137c0.095,0.293,0.075,0.713-0.034,1.06
							c-0.014,0.043-0.026,0.111-0.053,0.13c-0.114,0.087-0.298,0.196-0.394,0.526c-0.232,0.793,0.321,1.011,0.184,1.7
							c-0.046,0.23-0.222,0.525-0.429,0.714c-0.084,0.114-0.499,0.345-0.79,0.357c-0.208,0.008-0.351-0.125-0.494-0.258
							c-0.099-0.09-0.149-0.206-0.101-0.325c0.041-0.104,0.247-0.123,0.319-0.415c0.037-0.15,0.065-0.295,0.037-0.453
							c-0.062-0.353-0.27-0.754-0.538-1.546C47.257,18.552,47.119,17.716,46.992,17.134z"/>
						<path fill-rule="evenodd" clip-rule="evenodd" fill="#001C2E" d="M46.526,21.42c0.002-0.009,0.004-0.017,0.009-0.026
							c0.041-0.104,0.247-0.123,0.319-0.415c0.037-0.15,0.065-0.295,0.037-0.453c-0.058-0.332-0.245-0.707-0.492-1.41
							c0.332,0.055,0.647,0.014,1.02-0.185c-0.044,0.361,0.02,0.761,0.109,1.09c0.129,0.485,0.288,0.872,0.069,1.207
							c-0.273,0.021-0.477-0.032-0.737-0.14c0.243,0.146,0.374,0.212,0.64,0.245c-0.294,0.254-0.418,0.355-0.561,0.324
							C46.858,21.641,46.629,21.501,46.526,21.42z"/>
						<path fill-rule="evenodd" clip-rule="evenodd" d="M47.793,17.159c0.236-0.004,0.459,0.036,0.658,0.192
							c0.081,0.061,0.16,0.076,0.194,0.137c0.095,0.293,0.075,0.713-0.034,1.06c-0.014,0.043-0.026,0.111-0.053,0.13
							c-0.114,0.087-0.245,0.188-0.307,0.526c-0.116,0.63,0.234,1.011,0.097,1.7c-0.046,0.23-0.222,0.525-0.429,0.714
							c-0.084,0.114-0.499,0.345-0.79,0.357c-0.208,0.008-0.351-0.125-0.494-0.258c-0.07-0.064-0.116-0.143-0.121-0.225
							c0.19,0.173,0.446,0.408,0.677,0.276c0.535-0.304,0.75-0.708,0.726-1.1c-0.023-0.39-0.319-0.785-0.253-1.234
							C47.808,18.438,48.185,17.881,47.793,17.159z"/>
					</g>
				</g>
				<g>
					<g>
						<path fill-rule="evenodd" clip-rule="evenodd" d="M40.076,21.289c0.349,0.028,0.718,0.023,0.917,0.084
							c0.109,0.034,0.037,0.09,0.182,0.213l-0.105,1.268l-0.605,0.11l-0.457-0.197l-0.309-0.495l0.041-0.529L40.076,21.289z"/>
						<path fill-rule="evenodd" clip-rule="evenodd" fill="#00111C" d="M41.586,21.61c0.425,0.314,0.466,0.296,0.619,0.56
							c0.033,0.054,0.074,0.116,0.12,0.202c0.012,0.583,0.009,0.803-0.057,1.003c-0.02,0.056-0.099,0.097-0.15,0.161
							c-0.06,0.071-0.07,0.255-0.07,0.43c0.002,0.346-0.035,0.568-0.088,0.874c-0.046,0.25-0.188,0.443-0.372,0.606
							c-0.325,0.291-0.729,0.521-1.152,0.661c-0.354,0.116-0.676,0.126-0.847-0.057c-0.208-0.223-0.026-0.436,0.148-0.649
							c0.062-0.077,0.171-0.151,0.208-0.243c0.212-0.521,0.169-1.292,0.175-1.861l-0.15-0.47c0.374,0.003,0.595-0.021,0.783-0.185
							c0.186-0.164,0.323-0.81,0.302-1.059c-0.007-0.104-0.055-0.192-0.188-0.24C41.062,21.315,41.36,21.437,41.586,21.61z"/>
						<path fill-rule="evenodd" clip-rule="evenodd" fill="#001C2E" d="M39.541,25.674c0.043-0.092,0.12-0.184,0.196-0.275
							c0.062-0.077,0.171-0.151,0.208-0.243c0.201-0.494,0.173-1.212,0.175-1.771c0.263,0.054,0.589,0.023,0.945-0.108
							c0.013,0.752-0.046,1.222-0.273,1.885c-0.289,0.098-0.51,0.061-0.827,0.023c0.284,0.126,0.409,0.146,0.713,0.213
							C40.346,25.706,40.007,25.962,39.541,25.674z"/>
						<path fill-rule="evenodd" clip-rule="evenodd" d="M41.586,21.61c0.425,0.314,0.466,0.296,0.619,0.56
							c0.033,0.054,0.074,0.116,0.12,0.202c0.012,0.583,0.009,0.803-0.057,1.003c-0.02,0.056-0.099,0.097-0.15,0.161
							c-0.06,0.071-0.07,0.255-0.07,0.43c0.002,0.346-0.035,0.568-0.088,0.874c-0.046,0.25-0.188,0.443-0.372,0.606
							c-0.325,0.291-0.729,0.521-1.152,0.661c-0.354,0.116-0.676,0.126-0.847-0.057c-0.055-0.06-0.083-0.119-0.09-0.178
							c0.138,0.077,0.267,0.113,0.407,0.104c0.321-0.021,0.873-0.302,1.181-0.678c0.145-0.177,0.396-0.641,0.379-1.26
							c-0.013-0.519,0.035-1.078,0.055-1.466c0.033-0.596-0.048-0.922-0.278-1.159C41.36,21.46,41.481,21.529,41.586,21.61z"/>
					</g>
					<path fill-rule="evenodd" clip-rule="evenodd" fill="#082F41" d="M33.914,23.495c2.413-0.331,3.934-0.13,6.27-0.304
						c0.394-0.327,0.265-1.691-0.085-1.95c-2.512-0.115-3.791-1.525-6.555,0.107c-0.735,0.581-0.974,1.21-0.787,1.648
						c0.083,0.195,0.267,0.352,0.501,0.449C33.428,23.517,33.682,23.519,33.914,23.495z"/>
					<path fill-rule="evenodd" clip-rule="evenodd" fill="#031821" d="M40.394,21.948c-0.048-0.321-0.153-0.603-0.295-0.707
						c-1.649-0.076-2.77-0.71-4.126-0.673l-0.386,0.956C37.021,21.28,40.007,21.878,40.394,21.948z"/>
					<path fill-rule="evenodd" clip-rule="evenodd" fill="#082F41" d="M36.167,12.717c2.688,0.86,2.96,3.32,1.487,5.411
						c-0.556,1.089-1.445,2.265-2.106,3.422c-0.214,0.377-0.411,0.792-0.658,1.159c-0.792,1.171-2.446,1.015-2.332-0.634
						c0.175-2.556,0.847-4.148,1.69-5.869c-0.262-0.356-0.348-0.409-0.68-0.698l1.623-1.831L36.167,12.717z"/>
					<path fill-rule="evenodd" clip-rule="evenodd" fill="#0B3A4F" d="M34.174,21.698c-0.498,1.21-1.643,1.502-1.616,0.377
						c0.153-2.226,0.683-3.721,1.374-5.208c0.293-0.376,2.006-0.247,2.323-0.102C35.907,17.807,35.544,18.359,34.174,21.698z"/>
					<path fill-rule="evenodd" clip-rule="evenodd" fill="#062533" d="M36.167,12.717c2.688,0.86,2.96,3.32,1.487,5.411
						c-0.556,1.089-1.445,2.265-2.106,3.422c0.219-1.32,1.658-4.419,1.229-5.431c-0.26-0.356-2.877-0.322-3.209-0.611l1.623-1.831
						L36.167,12.717z"/>
					<path fill-rule="evenodd" clip-rule="evenodd" fill="#0B3A4F" d="M33.914,23.495c2.413-0.331,3.934-0.13,6.27-0.304
						c0.143-0.118,0.217-0.371,0.236-0.659c-0.729,0.049-2.135-0.187-3.439-0.225c-1.477-0.042-2.807,0.178-3.297,0.123
						c-0.383,0.302-0.896-0.251-1.054-0.237c-0.149,0.013,0.037,0.593,0.127,0.803c0.083,0.195,0.267,0.352,0.501,0.449
						C33.428,23.517,33.682,23.519,33.914,23.495z"/>
				</g>
			</g>
			<path fill-rule="evenodd" clip-rule="evenodd" fill="#031821" d="M33.354,16.936c-0.505-0.345-1.168-0.825-1.616-1.037
				c-2.849-1.347-4.045-2.312-4.979-3.132l2.164-1.396c4.001,1.278,2.824,0.599,6.072,3.577
				C34.574,16.021,34.082,16.653,33.354,16.936z"/>
			<g>
				<g>
					<g>
						<path fill-rule="evenodd" clip-rule="evenodd" fill="#E8A476" d="M16.907,11.665c-0.104-0.032-0.261,0.203-0.049,0.643
							c0.124,0.239,0.419,0.295,0.821,0.345c0.404,0.05,0.841,0.257,1.068,0.496c0.235,0.247,0.487,0.579,1.161,0.371
							c0.352-0.109,0.616-0.091,0.982-0.108l0.038-0.928c-0.412,0.021-0.759-0.056-1.091-0.184
							c-0.334-0.129-0.652-0.309-1.006-0.492c-0.179-0.092-0.443-0.101-0.796-0.085C17.662,11.739,17.162,11.658,16.907,11.665z"/>
						<path fill-rule="evenodd" clip-rule="evenodd" fill="#F1B287" d="M16.907,11.665c-0.09-0.027-0.221,0.146-0.115,0.479
							c0.15,0.133,1.482,0.143,1.783,0.241c0.088-0.288,0.102-0.333,0.101-0.634c-0.166-0.04-0.379-0.042-0.642-0.03
							C17.662,11.739,17.162,11.658,16.907,11.665z"/>
						<path fill-rule="evenodd" clip-rule="evenodd" fill="#DB9669" d="M16.858,12.307c0.124,0.239,0.419,0.295,0.821,0.345
							c0.404,0.05,0.841,0.257,1.068,0.496c0.235,0.247,0.487,0.579,1.161,0.371c0.352-0.109,0.616-0.091,0.982-0.108l0.038-0.928
							c-0.244,0.012-0.417-0.026-0.619-0.043c-0.082,0.042-0.155,0.534-0.21,0.732c-0.314,0.076-0.545,0.102-0.735,0.03
							c-0.224-0.084-0.393-0.288-0.603-0.469c-0.152-0.131-0.361-0.206-0.76-0.248C17.257,12.407,17,12.28,16.858,12.307z"/>
					</g>
					<path fill-rule="evenodd" clip-rule="evenodd" fill="#DB9669" d="M18.777,13.43l-0.447-0.25l-0.518-0.267
						c0.162-0.255,0.449-0.052,0.809,0.128c0.538,0.218,0.801,0.029,1.396,0.157c-0.024,0.239-0.198,0.347-0.348,0.394
						C19.419,13.667,19.111,13.662,18.777,13.43z"/>
				</g>
				<g>
					<path fill-rule="evenodd" clip-rule="evenodd" fill="#0B3A4F" d="M26.578,14.093l-1.237-0.205l-0.292-0.907
						c0.356-0.624,0.517-1.119,0.671-1.625l1.929,0.993C27.342,12.909,26.991,13.467,26.578,14.093z"/>
					<path fill-rule="evenodd" clip-rule="evenodd" fill="#0B3A4F" d="M20.357,12.268c-0.013,0.369-0.074,0.974-0.124,1.339
						c1.51,0.386,4.239,0.86,5.798,0.675c0.172-0.021,0.324-0.029,0.441-0.085c0.098-0.045,0.231-0.302,0.297-0.404
						c0.539-0.842-0.396-1.342-1.38-1.51c-0.907-0.154-2.465-0.126-3.394-0.062C21.309,12.268,21.016,12.366,20.357,12.268z"/>
					<path fill-rule="evenodd" clip-rule="evenodd" fill="#124F6B" d="M25.34,12.274c0.326,0.137,0.463,0.479,0.531,0.684
						c-0.895,0.373-3.708-0.26-5.537-0.314c0.011-0.138,0.019-0.268,0.023-0.377c0.659,0.098,0.951,0,1.638-0.047
						C22.908,12.157,24.427,12.129,25.34,12.274z"/>
					<path fill-rule="evenodd" clip-rule="evenodd" fill="#062533" d="M20.299,13.044c-0.021,0.206-0.044,0.406-0.065,0.562
						c1.51,0.386,4.239,0.86,5.798,0.675c0.172-0.021,0.324-0.029,0.441-0.085c0.098-0.045,0.231-0.302,0.297-0.404
						c0.076-0.119,0.123-0.231,0.145-0.337l-0.863-0.004C24.81,13.556,21.748,13.214,20.299,13.044z"/>
				</g>
			</g>
			<path fill-rule="evenodd" clip-rule="evenodd" fill="#E4EBF0" d="M32.949,9.13c1.219,0.58,2.229,2.482,3.274,3.626
				c0.268,0.921-0.023,1.685-0.685,2.316c-0.529,0.506-0.954,0.729-2.56,0.667c-1.142-0.762-2.334-1.019-3.583-1.583
				c-0.582-0.144-1.087-0.292-1.582-0.649c-0.522-0.376-1.152-1.005-1.592-1.673c-0.631-0.958-0.646-2.631,0.806-3.163
				C28.706,8.059,31.233,8.311,32.949,9.13z"/>
			<g>
				<path fill-rule="evenodd" clip-rule="evenodd" fill="#CED5DB" d="M28.92,9.227c-0.068,0.066-0.112,0.174-0.222,0.188
					c0.499,0.442-0.345,1.305-0.729,1.922c-0.093-0.042-0.243-0.166-0.39-0.257c-0.132-0.083-0.477-0.217-0.555-0.248
					c-0.086,0.197,0.396,1.052,0.619,1.367c0.025-0.137,0.122-0.297,0.217-0.429c0.082,0.087,0.21,0.187,0.387,0.284
					c-0.042,0.076-0.099,0.17-0.136,0.336c0.148,0.2,0.293,0.39,0.437,0.573c0.241-0.063,1.328,1.47,1.571,1.406
					c-0.065-0.231-0.865-1.742-0.956-2.146c-0.159-0.106-0.339-0.158-0.503-0.25c0.021-0.185,0.007-0.255,0.013-0.303
					c0.087,0.037,0.19,0.096,0.252,0.149c0.258-0.449,0.893-1.95,0.339-2.461C29.152,9.258,29.028,9.235,28.92,9.227z"/>
				<g>
					<path fill-rule="evenodd" clip-rule="evenodd" fill="#3C5466" d="M28.359,11.264c0.21,0.319,0.199,0.329,0.145,0.746
						c0.168,0.102,0.308,0.194,0.468,0.309c0.689,1.586,2.002,3.487,3.373,4.782c-1.463-1.087-3.36-3.356-4.287-4.686
						c0.048-0.167,0.111-0.26,0.156-0.334c-0.366-0.217-0.524-0.437-0.5-0.531C27.923,11.326,28.039,11.261,28.359,11.264z"/>
					<path fill-rule="evenodd" clip-rule="evenodd" fill="#2A3C4A" d="M28.359,11.264c0.21,0.319,0.199,0.329,0.145,0.746
						c0.168,0.102,0.308,0.194,0.468,0.309c0.689,1.586,2.059,3.484,3.369,4.776c-1.358-1.053-2.989-3.329-3.582-4.659
						c-0.163-0.18-0.244-0.258-0.406-0.391c0.058-0.323-0.025-0.559-0.173-0.772c-0.006,0.001-0.011,0.002-0.016,0.003l0.024,0.005
						l-0.007-0.008C28.234,11.266,28.292,11.263,28.359,11.264z"/>
					<path fill-rule="evenodd" clip-rule="evenodd" fill="#56738A" d="M27.731,11.631l0.191-0.135l0.241,0.107l0.104,0.453
						l0.004-0.003c0.044,0.126,0.196,0.302,0.315,0.433c0.468,1.058,1.485,2.388,2.262,3.277c-0.862-0.823-2.256-2.58-2.791-3.348
						c0.048-0.167,0.111-0.26,0.156-0.334C27.987,11.934,27.814,11.82,27.731,11.631z"/>
				</g>
			</g>
			<path fill-rule="evenodd" clip-rule="evenodd" fill="#00263D" d="M27.611,13.502c-1.1-0.554-1.561-1.567-1.691-1.765l0.664-0.96
				C26.461,11.318,26.877,12.626,27.611,13.502z"/>
			<g>
				<path fill-rule="evenodd" clip-rule="evenodd" fill="#0B3A4F" d="M32.949,9.13c0.842,0.4,1.463,1.219,2.025,2.006
					c0.365,0.513,0.626,0.958,1.173,1.305c0.317,0.2,0.709,0.424,1.293,0.766c0.39,1.233,0.048,2.587-2.251,3.717
					c-1.475-1.377-3.492-2.135-5.156-3.431c-1.42-1.106-0.033-3.378-1.689-4.243c-0.305-0.16-1.173-0.319-1.529-0.335l1.431-0.663
					C29.917,8.344,31.363,8.373,32.949,9.13z"/>
				<path fill-rule="evenodd" clip-rule="evenodd" fill="#124F6B" d="M37.315,15.119c-0.326,0.629-0.984,1.245-2.126,1.805
					c-0.91-0.851-2.028-1.465-3.142-2.116c0.36-0.455,1.443-1.233,1.693-2.031C35.043,14.066,36.419,14.862,37.315,15.119z"/>
				<path fill-rule="evenodd" clip-rule="evenodd" fill="#062533" d="M32.949,9.13c0.842,0.4,1.463,1.219,2.025,2.006
					c0.365,0.513,0.626,0.958,1.173,1.305c0.317,0.2,0.709,0.424,1.293,0.766c0.127,0.399,0.175,0.812,0.107,1.224
					c-1.799-0.539-3.118-1.58-3.822-2.291c-0.475,0.656-0.783,1.16-1.7,1.702c0.788-1.671,1.171-3.081,1.044-3.507
					c-0.367-1.248-1.818-1.077-3.521-1.678c-0.64-0.225-1.294-0.148-2.034-0.066l0.731-0.339C29.917,8.344,31.363,8.373,32.949,9.13
					z"/>
				<path fill-rule="evenodd" clip-rule="evenodd" fill="#031821" d="M32.025,13.842c0.788-1.671,0.729-3.983,0.604-4.411
					C34.159,9.694,33.997,12.249,32.025,13.842z"/>
				<path fill-rule="evenodd" clip-rule="evenodd" fill="#155A7A" d="M30.7,13.865c-1.379-0.69-1.313-1.025-1.504-2.915
					c-0.073-0.728-0.096-1.569-0.727-1.883c-0.233-0.116-0.69-0.07-1.066,0.018c1.434-0.628,2.516-0.14,2.842,0.82
					c0.265,0.777,0.016,1.587-0.053,2.244C30.125,12.826,30.14,13.345,30.7,13.865z"/>
			</g>
			<g>
				<g>
					<path fill-rule="evenodd" clip-rule="evenodd" fill="#DB9669" d="M28.67,9.136c-0.28-0.087-0.661-0.139-1.072-0.233
						l-0.898,2.321c0.44,0.001,0.812,0.117,1.295,0.104C29.492,11.289,29.473,9.387,28.67,9.136z"/>
					<g>
						<path fill-rule="evenodd" clip-rule="evenodd" fill="#E4EBF0" d="M27.97,11.338c-0.092-0.041-0.243-0.166-0.39-0.257
							c-0.132-0.083-0.489-0.25-0.559-0.318c-0.081,0.136,0.466,0.824,0.601,1.209C27.681,11.646,27.753,11.552,27.97,11.338z"/>
						<path fill-rule="evenodd" clip-rule="evenodd" fill="#F8FAFC" d="M27.876,11.356c-0.151-0.103-0.245-0.182-0.306-0.142
							c-0.1,0.067-0.082,0.351,0.029,0.667C27.65,11.602,27.689,11.541,27.876,11.356z"/>
					</g>
					<g>
						<path fill-rule="evenodd" clip-rule="evenodd" fill="#E4EBF0" d="M28.42,9.06c0.499,0.444-0.071,1.665-0.454,2.282
							c0.277,0.027,0.63,0.056,0.772,0.214c0.264-0.458,0.707-1.237,0.497-1.946C29.091,9.126,28.709,9.022,28.42,9.06z"/>
						<path fill-rule="evenodd" clip-rule="evenodd" fill="#F8FAFC" d="M28.569,10.347c-0.192,0.358-0.311,0.673-0.456,0.908
							c0.278-0.007,0.478,0.009,0.611,0.155c0.148-0.257,0.323-0.635,0.422-1.067C29.143,9.986,28.779,9.9,28.569,10.347z"/>
					</g>
				</g>
				<g>
					<path fill-rule="evenodd" clip-rule="evenodd" fill="#F1B287" d="M26.389,11.853c0.207-0.161,0.701-0.563,0.886-0.72
						c0.404-0.346,0.321-0.743,0.397-1.379c0.379-0.316,0.497-0.552,0.513-0.812c0.039-0.615-0.357-1.245-0.85-1.568
						c-0.43-0.283-0.903-0.334-1.42-0.18c-1.004,0.301-1.366,1.105-1.353,1.991c0.001,0.076,0.016,0.144,0.045,0.217
						c0.068,0.174,0.12,0.198,0.155,0.321c0.022,0.08-0.013,0.172-0.007,0.307c0.019,0.375,0.232,0.786,0.337,1.117
						c0.076,0.282,0.134,0.722,0.249,0.787c0.184,0.102,0.537,0.106,0.729,0.094C26.174,12.021,26.232,11.947,26.389,11.853z"/>
					<path fill-rule="evenodd" clip-rule="evenodd" fill="#E8A476" d="M26.289,11.935c0.208-0.16,0.862-0.633,1.046-0.792
						c0.404-0.346,0.261-0.754,0.337-1.39c0.379-0.316,0.497-0.552,0.513-0.812c0.039-0.615-0.357-1.245-0.85-1.568
						c-0.43-0.283-0.903-0.334-1.42-0.18c-0.872,0.261-1.259,0.902-1.337,1.647c0.038,0.05,0.585,0.195,1.079,0.182
						c0.316-0.009,0.469-0.181,0.748-0.335c0.092,0.242-0.016,0.869,0.014,1.041c0.007,0.042,0.168,0.209,0.088,0.396
						c-0.02,0.05-0.093,0.118-0.063,0.193c0.299,0.785-0.272,1.424-0.481,1.715C26.077,12.041,26.15,12.02,26.289,11.935z"/>
					<g>
						<path fill-rule="evenodd" clip-rule="evenodd" fill="#361D07" d="M25.235,8.784c0.224-0.164,1.059-0.78,1.418-1.069
							c0.367-0.296,0.77-0.613,1.145-0.41c0.352,0.318,0.542,0.96,0.539,1.336c-0.002,0.538-0.273,1.052-0.656,1.607
							c-0.145,0.209-0.242-0.536-0.323-0.683c-0.023,0.125-0.053,0.255-0.082,0.391l-0.277,0.252
							c0.032-0.984-0.385-0.94-0.309-1.385c0.048-0.286,0.021-0.491-0.055-0.587C26.26,8.319,25.796,8.833,25.235,8.784z"/>
						<path fill-rule="evenodd" clip-rule="evenodd" fill="#E8A476" d="M27.502,9.234c0.369-0.204,0.452,0.252,0.44,0.54
							c-0.01,0.197-0.17,0.211-0.199,0.371c-0.037,0.191-0.161,0.299-0.281,0.316c-0.24,0.036-0.155-0.348-0.15-0.495
							C27.243,9.739,27.266,9.364,27.502,9.234z"/>
						<path fill-rule="evenodd" clip-rule="evenodd" fill="#4F2B0C" d="M27.818,7.341c0.164,0.118,0.383,0.47,0.414,0.727
							c-0.063-0.173-0.127-0.338-0.342-0.438c0.178,0.229,0.23,0.339,0.239,0.649c-0.062-0.219-0.169-0.428-0.381-0.51
							c0.263,0.311,0.322,0.723,0.297,0.946c-0.052-0.334-0.249-0.675-0.519-0.801c0.193,0.223,0.19,0.517,0.215,0.764
							c-0.122-0.313-0.166-0.489-0.432-0.613c0.132,0.271,0.147,0.586,0.095,0.803c-0.007-0.11-0.226-0.548-0.338-0.686
							c0.025,0.191,0.01,0.385-0.072,0.485c-0.034-0.257-0.116-0.414-0.175-0.531c-0.025-0.052-0.131-0.028-0.219-0.024
							C27.117,7.85,27.652,7.281,27.818,7.341z"/>
						<path fill-rule="evenodd" clip-rule="evenodd" fill="#4F2B0C" d="M27.832,7.333C27.047,7.44,26,8.898,25.07,8.808
							c-0.31-0.03-0.564-0.171-0.629-0.296C23.447,6.662,27.079,5.724,27.832,7.333z"/>
						<path fill-rule="evenodd" clip-rule="evenodd" fill="#361D07" d="M26.623,8.172c-0.404,0.101-0.833,0.594-1.303,0.614
							c-0.083,0.021-0.166,0.03-0.25,0.022c-0.31-0.03-0.564-0.171-0.629-0.296c-0.038-0.07-0.068-0.139-0.091-0.206
							c-0.1-0.537,0.207-0.769,0.451-0.9c-0.211,0.217-0.295,0.552-0.235,0.909c0.144-0.373,0.23-0.654,0.691-0.889
							c-0.247,0.302-0.331,0.534-0.397,0.897c0.218-0.365,0.396-0.587,0.692-0.804c-0.177,0.263-0.254,0.456-0.262,0.836
							c0.149-0.381,0.218-0.469,0.735-0.884c-0.244,0.314-0.299,0.502-0.348,0.817c0.206-0.375,0.361-0.636,0.668-0.865
							c-0.094,0.112-0.189,0.358-0.281,0.646c0.326-0.304,0.27-0.484,0.79-0.747c-0.153,0.169-0.286,0.35-0.362,0.567
							c0.205-0.238,0.42-0.523,0.758-0.734c-0.1,0.137-0.208,0.275-0.321,0.508c0.274-0.312,0.351-0.573,0.896-0.526
							c-0.226,0.055-0.385,0.112-0.526,0.32c0.244-0.233,0.454-0.295,0.736-0.181C27.467,7.311,27.188,8.032,26.623,8.172z"/>
						<path fill-rule="evenodd" clip-rule="evenodd" fill="#241304" d="M26.369,7.879c-0.044,0.133-0.084,0.225-0.077,0.298
							c0.235-0.25,0.478-0.561,0.723-0.781c-0.178,0.227-0.237,0.403-0.306,0.598c0.163-0.187,0.472-0.637,0.699-0.721
							c-0.183,0.134-0.22,0.289-0.313,0.486c0.201-0.154,0.495-0.462,0.756-0.461c-0.44,0.177-0.751,0.752-1.225,0.87
							c-0.434,0.108-0.761,0.529-1.23,0.612c-0.238,0.043-0.489,0.054-0.733-0.09c-0.083-0.042-0.154-0.082-0.203-0.148
							c-0.19-0.265-0.14-0.696,0.1-0.919c-0.184,0.309-0.041,0.771,0.024,0.885c0.03-0.116,0.061-0.388,0.229-0.575
							c-0.082,0.235-0.028,0.439-0.021,0.668c0.036,0.043,0.168-0.402,0.335-0.547c-0.079,0.278-0.009,0.506,0.07,0.603
							c0.186-0.01,0.102-0.365,0.363-0.574c-0.082,0.208-0.04,0.389-0.029,0.51c0.21-0.246,0.269-0.354,0.449-0.612
							c-0.046,0.145-0.091,0.252-0.098,0.382C26.106,8.155,26.188,8.093,26.369,7.879z"/>
						<g>
							<path fill-rule="evenodd" clip-rule="evenodd" fill="#DB9669" d="M27.839,9.63c-0.04-0.267-0.088-0.281-0.185-0.287
								c-0.118-0.007-0.233,0.273-0.226,0.356c0.053-0.034,0.139-0.075,0.193-0.021c-0.046-0.005-0.081,0.015-0.117,0.039
								c-0.032,0.022-0.051,0.065-0.102,0.071c-0.018-0.027-0.009-0.106-0.005-0.139c0.032-0.162,0.115-0.359,0.268-0.347
								C27.743,9.309,27.843,9.363,27.839,9.63z"/>
							<path fill-rule="evenodd" clip-rule="evenodd" fill="#DB9669" d="M27.495,9.983c0.007-0.046-0.027-0.107,0.039-0.168
								c-0.08,0.017-0.108,0.054-0.12,0.103c-0.016,0.06-0.003,0.103,0.009,0.109C27.431,10.03,27.479,10.064,27.495,9.983z"/>
						</g>
					</g>
					<path fill-rule="evenodd" clip-rule="evenodd" fill="#E8A476" d="M24.618,9.329c0.003,0.061,0.011,0.116,0.036,0.178
						c0.06,0.155,0.085,0.096,0.106,0.22c0.026,0.153-0.044,0.244-0.009,0.435c0.053,0.285,0.123,0.379,0.226,0.66
						c0.02-0.058,0.041-0.005,0.071,0.009c0.089,0.038,0.048,0.045,0.126,0.043c0.013,0,0.02,0.026,0.022,0.058
						c0.001,0.011,0.002,0.02,0.004,0.021c0.002,0.001,0.008-0.003,0.01-0.019c0.004-0.027,0.009-0.055,0.032-0.06
						c0.009-0.001,0.038,0.014,0.049,0.023c0.019,0.014,0.023,0.057,0.026,0.089c0.002,0.038,0.01,0.029,0.018,0
						c0.015-0.055,0.053-0.117,0.108-0.13c0.063-0.015,0.16-0.036,0.195-0.119c-0.224-0.14-0.136-0.069-0.386-0.016
						c-0.105,0.021-0.14,0.026-0.125-0.098c0.023-0.189,0.098-0.404,0.087-0.587c-0.013-0.228-0.118-0.323-0.265-0.435
						C24.772,9.589,24.734,9.5,24.618,9.329z"/>
					<g>
						<path fill-rule="evenodd" clip-rule="evenodd" fill="#E8A476" d="M25.935,11.173c0.017-0.013,0.028-0.034,0.037-0.045
							c0.018-0.019,0.046,0.001,0.029,0.024c-0.009,0.013-0.031,0.027-0.059,0.043c-0.027,0.015-0.033,0.015-0.062,0.028
							c-0.087,0.041-0.413,0.716-0.663,0.057c-0.013-0.034-0.042-0.076-0.015-0.074c0.085,0,0.462,0.017,0.646-0.007
							C25.892,11.193,25.924,11.182,25.935,11.173z"/>
						<path fill-rule="evenodd" clip-rule="evenodd" fill="#F1B287" d="M25.215,11.26c-0.056,0.017-0.002,0.187,0.048,0.241
							c0.047,0.05,0.299,0.099,0.39,0.025c0.041-0.033,0.084-0.054,0.14-0.109c0.033-0.033,0.156-0.218,0.128-0.216
							c-0.002,0-0.13,0.03-0.147,0.032c-0.06,0.01-0.123,0.085-0.176,0.085l-0.177-0.047L25.215,11.26z"/>
						<path fill-rule="evenodd" clip-rule="evenodd" fill="#5E3920" d="M25.866,11.219c-0.055,0.044-0.133,0.104-0.148,0.113
							c-0.021,0.012-0.045,0.022-0.049,0.023c-0.11,0.024-0.144,0.019-0.242,0.005c-0.049-0.007-0.138,0-0.186-0.042
							c-0.014-0.012-0.024-0.056-0.029-0.077c0.06-0.037,0.098,0.011,0.186,0c0.071-0.009,0.136,0.005,0.207,0L25.866,11.219z"/>
						<path fill-rule="evenodd" clip-rule="evenodd" fill="#EBD3C3" d="M25.802,11.228c-0.041,0.032-0.172,0.063-0.225,0.065
							c-0.063,0.001-0.13,0-0.198-0.009c-0.049-0.007-0.109-0.004-0.155-0.033c-0.012-0.007-0.025-0.04-0.028-0.05
							c0.099,0.027,0.1,0.016,0.19,0.026c0.07,0.007,0.138,0.02,0.209,0.014L25.802,11.228z"/>
						<path fill-rule="evenodd" clip-rule="evenodd" fill="#E8A476" d="M26.094,11.247c-0.021-0.158-0.047-0.17-0.184-0.167
							C26.017,11.106,26.045,11.134,26.094,11.247z"/>
						<path fill-rule="evenodd" clip-rule="evenodd" fill="#DB9669" d="M25.208,11.116c0.04-0.011,0.06,0.011,0.111,0.018
							c0.078-0.014,0.114-0.012,0.161,0c0.249,0.063,0.294,0.078,0.425,0.055c0.033-0.002,0.036,0.009,0.012,0.019
							c-0.028,0.01-0.097,0.028-0.201,0.04c-0.089,0.011-0.167,0.015-0.257,0.011c-0.039-0.002-0.077-0.002-0.103-0.004
							c-0.039-0.004-0.093-0.013-0.119-0.021c-0.011-0.001-0.019-0.002-0.027-0.003c-0.008,0.007,0.006,0.019,0.021,0.074
							c-0.008-0.001-0.071-0.082-0.077-0.087C25.148,11.21,25.126,11.14,25.208,11.116z"/>
						<path fill-rule="evenodd" clip-rule="evenodd" fill="#E8A476" d="M25.779,11.388c-0.065,0.066-0.135,0.091-0.187,0.098
							c-0.053,0.008-0.119-0.009-0.173-0.015c-0.055-0.006-0.087,0.009-0.14-0.012c-0.025-0.01-0.039-0.019-0.063-0.032
							c0.153,0.18,0.309,0.264,0.481,0.092C25.713,11.503,25.747,11.424,25.779,11.388z"/>
					</g>
					<path fill-rule="evenodd" clip-rule="evenodd" fill="#E8A476" d="M25.536,9.739c0.273,0.047,0.478-0.026,0.731-0.113
						c0.117,0.068,0.207,0.133,0.333,0.188l0.049,0.029c-0.152,0.009-0.206-0.003-0.311-0.051c-0.103-0.048-0.071-0.045-0.179-0.006
						c-0.108,0.042-0.201,0.055-0.276,0.091c-0.034,0.016,0.088,0.084,0.233,0.159c-0.077,0.008-0.166,0.001-0.214-0.009
						c-0.065-0.015-0.103-0.068-0.164-0.071c-0.021,0-0.029,0.022-0.047,0.029C25.619,9.984,25.539,9.823,25.536,9.739z"/>
					<path fill-rule="evenodd" clip-rule="evenodd" fill="#361D07" d="M25.475,9.688c0.063,0.076,0.096,0.132,0.197,0.124
						c0.147-0.01,0.36-0.06,0.482-0.099c0.132-0.043,0.077-0.062,0.204,0.016c0.105,0.064,0.158,0.077,0.296,0.1
						c-0.142-0.086-0.263-0.167-0.396-0.264c-0.144,0.029-0.283,0.049-0.408,0.07c-0.063,0.01-0.129,0.004-0.209,0.026
						c-0.021-0.002,0.009-0.016,0.057-0.026C25.661,9.635,25.524,9.643,25.475,9.688z"/>
					<path fill-rule="evenodd" clip-rule="evenodd" fill="#E6E6E6" d="M25.713,9.914c0.021,0.021,0.083-0.011,0.098,0
						c0.064,0.045,0.131,0.087,0.207,0.107c0.073,0.019,0.137,0.006,0.264-0.031c0.035-0.01,0.07-0.019,0.117-0.027
						C26.215,9.874,25.874,9.762,25.713,9.914z"/>
					<g>
						<path fill-rule="evenodd" clip-rule="evenodd" fill="#032836" d="M25.903,9.843c0.004,0.053,0.016,0.115,0.039,0.141
							c0.021,0.023,0.06,0.031,0.138,0.031c0.054,0,0.09-0.025,0.137-0.113L26.16,9.868l-0.135-0.029L25.903,9.843z"/>
						<path fill-rule="evenodd" clip-rule="evenodd" d="M25.953,9.837c-0.001,0.034,0.005,0.084,0.022,0.102
							c0.014,0.016,0.022,0.027,0.079,0.027c0.037,0,0.071-0.027,0.104-0.089l-0.04-0.025l-0.095-0.021L25.953,9.837z"/>
						<path fill-rule="evenodd" clip-rule="evenodd" fill="#096282" d="M25.924,9.918c0.045,0.129,0.193,0.096,0.24,0.034
							l-0.029-0.014c-0.068,0.06-0.149,0.047-0.182-0.02L25.924,9.918z"/>
						<path fill-rule="evenodd" clip-rule="evenodd" fill="#FFFFFF" d="M25.919,9.881c0.018,0.003,0.095,0.023,0.119,0.036
							c-0.037,0.022-0.083,0.01-0.107,0.007C25.925,9.909,25.922,9.898,25.919,9.881z"/>
					</g>
					<path fill-rule="evenodd" clip-rule="evenodd" fill="#C2845B" d="M25.748,9.916c0.023-0.008,0.037-0.009,0.056-0.007
						c0.032,0.004,0.059,0.025,0.089,0.049c0.041,0.033,0.078,0.044,0.115,0.052c0.063,0.011,0.154,0,0.236-0.021
						c0.051-0.012,0.098-0.031,0.135-0.034c0.015-0.001,0.01,0.006,0.023,0.009c-0.028,0.009-0.117,0.031-0.152,0.041
						c-0.137,0.038-0.275,0.064-0.386-0.022c-0.027-0.021-0.052-0.039-0.066-0.044c-0.01-0.005-0.024-0.011-0.046-0.007
						c-0.014,0.003-0.024,0.007-0.028,0.007C25.715,9.935,25.726,9.923,25.748,9.916z"/>
					<path opacity="0.5" fill-rule="evenodd" clip-rule="evenodd" fill="#756E6E" d="M25.713,9.914
						c0.016-0.01,0.04-0.015,0.068-0.018c0.083-0.008,0.157,0.016,0.25,0.037c0.111,0.026,0.231,0.043,0.351,0.023
						C26.199,9.867,25.874,9.762,25.713,9.914z"/>
					<path fill-rule="evenodd" clip-rule="evenodd" fill="#C2845B" d="M25.77,9.846c0.089-0.037,0.196-0.035,0.291-0.019
						c0.107,0.019,0.273,0.068,0.395,0.119c0.008,0.003,0.119,0.054,0.072,0.057c-0.021,0.001-0.077-0.021-0.092-0.025
						c-0.189-0.065-0.426-0.15-0.587-0.121c-0.038,0.007-0.075,0.023-0.109,0.045c-0.036,0.024-0.042,0.048-0.05,0.011
						c0.002-0.003,0.004-0.007,0.007-0.011C25.715,9.881,25.754,9.853,25.77,9.846z"/>
					<path fill-rule="evenodd" clip-rule="evenodd" fill="#704A31" d="M25.698,9.931c0.005,0.002,0.021-0.016,0.037-0.027
						c0.019-0.013,0.041-0.021,0.046-0.023c0.011-0.005,0.019-0.009,0.021-0.009c0.002,0-0.001,0.005-0.004,0.008
						c0.012-0.002,0.035-0.021,0.035-0.018c0.002,0.003-0.012,0.011-0.017,0.015c0.013,0,0.042-0.017,0.043-0.018
						c-0.002,0.003-0.012,0.014-0.02,0.02c0.004-0.002,0.056-0.023,0.056-0.023c0.004,0.001-0.008,0.014-0.031,0.026
						c0.02-0.005,0.041-0.01,0.067-0.03c0.007,0.011-0.014,0.021-0.034,0.03c0.032-0.005,0.05-0.014,0.078-0.027
						c0.015,0.01-0.012,0.026-0.037,0.036c0.039-0.01,0.073-0.033,0.077-0.032c-0.002,0.004,0.008,0.012-0.04,0.036
						c0.032-0.002,0.062-0.022,0.081-0.03c0.01,0.008,0.004,0.025-0.041,0.04c0.043-0.008,0.064-0.019,0.103-0.028
						C26.115,9.9,26.09,9.91,26.066,9.922c0.033-0.01,0.068-0.021,0.104-0.032c0.029,0.012-0.018,0.028-0.05,0.048
						c0.042-0.016,0.062-0.021,0.1-0.033c0.008,0.012-0.003,0.029-0.038,0.047c0.037-0.007,0.059-0.009,0.098-0.026
						c0.002,0.01-0.014,0.017-0.028,0.025c0.017-0.002,0.042-0.009,0.059-0.014c-0.002,0.006-0.002,0.016,0.004,0.016
						c0.071,0.005,0.159,0.042,0.204,0.046c-0.002,0-0.209-0.077-0.301-0.107c-0.123-0.039-0.288-0.087-0.411-0.039
						C25.782,9.862,25.715,9.892,25.698,9.931z"/>
					<path fill-rule="evenodd" clip-rule="evenodd" fill="#DB9669" d="M24.766,9.82l-0.002-0.112
						c0.296,0.018-0.024-0.095-0.101-0.179c-0.031-0.034-0.098-0.173-0.079-0.206l0.475,0.292c0.233,0.308,0.194,0.301,0.145,0.662
						c-0.018-0.101-0.021-0.258-0.052-0.335C25.146,9.926,24.865,9.951,24.766,9.82z"/>
					<g>
						<path fill-rule="evenodd" clip-rule="evenodd" fill="#E6E6E6" d="M25.156,9.868c-0.02-0.008-0.032-0.017-0.047-0.018
							c-0.116-0.005-0.14,0.018-0.21-0.007c-0.073-0.026-0.108-0.079-0.143-0.123c-0.009-0.012-0.02-0.055-0.01-0.06
							c0.164-0.008,0.223,0.008,0.32,0.076c0.016,0.011,0.09,0.087,0.109,0.114C25.194,9.876,25.174,9.875,25.156,9.868z"/>
						<g>
							<path fill-rule="evenodd" clip-rule="evenodd" fill="#032836" d="M24.795,9.662c0.017,0.101,0.036,0.159,0.138,0.174
								c0.076,0.012,0.116-0.015,0.145-0.083l-0.063-0.052l-0.11-0.037L24.795,9.662z"/>
							<path fill-rule="evenodd" clip-rule="evenodd" d="M24.838,9.659c0.002,0.034,0.013,0.082,0.028,0.1
								c0.016,0.017,0.024,0.027,0.074,0.03c0.034,0.001,0.062-0.022,0.087-0.081l-0.039-0.026l-0.088-0.024L24.838,9.659z"/>
							<path fill-rule="evenodd" clip-rule="evenodd" fill="#096282" d="M24.82,9.735c0.052,0.128,0.182,0.104,0.219,0.046
								l-0.028-0.016c-0.056,0.054-0.131,0.039-0.166-0.027L24.82,9.735z"/>
							<path fill-rule="evenodd" clip-rule="evenodd" fill="#FFFFFF" d="M24.812,9.7c0.016,0.003,0.087,0.026,0.111,0.041
								c-0.032,0.02-0.075,0.005-0.095,0.001C24.82,9.726,24.817,9.715,24.812,9.7z"/>
						</g>
						<path opacity="0.5" fill-rule="evenodd" clip-rule="evenodd" fill="#6E6A6A" d="M24.745,9.688
							c-0.002-0.013-0.002-0.025,0.002-0.027c0.164-0.008,0.223,0.008,0.32,0.076c0.016,0.011,0.09,0.087,0.109,0.114
							c0.008,0.012,0.009,0.018,0.006,0.02c-0.023-0.016-0.084-0.053-0.136-0.07C24.933,9.761,24.798,9.735,24.745,9.688z"/>
						<path fill-rule="evenodd" clip-rule="evenodd" fill="#C2845B" d="M24.784,9.647c-0.034,0.003-0.08-0.015-0.116-0.022
							c0.044,0.032,0.086,0.051,0.126,0.052c0.141,0.001,0.178,0.001,0.294,0.1l0.063,0.064c0.087,0.087,0.058,0.034,0.006-0.025
							c-0.02-0.021-0.036-0.042-0.063-0.064C24.961,9.638,24.928,9.648,24.784,9.647z"/>
						<path fill-rule="evenodd" clip-rule="evenodd" fill="#C2845B" d="M25.156,9.88c-0.02-0.008-0.031-0.015-0.047-0.016
							c-0.116-0.005-0.14,0.017-0.21-0.007c-0.09-0.032-0.129-0.094-0.159-0.164c0.034,0.05,0.094,0.116,0.168,0.14
							c0.065,0.021,0.125-0.003,0.198,0.006c0.017,0.002,0.031,0.008,0.055,0.02C25.187,9.873,25.172,9.887,25.156,9.88z"/>
						<path fill-rule="evenodd" clip-rule="evenodd" fill="#704A31" d="M24.763,9.705c0.027-0.009,0.043-0.011,0.067-0.027
							c0.006,0.011-0.017,0.025-0.035,0.031c0.029-0.002,0.042-0.016,0.067-0.027c-0.003,0.007-0.012,0.027-0.033,0.038
							c0.034-0.007,0.068-0.04,0.072-0.038c0.006,0.003,0.026,0.021-0.022,0.039c0.022-0.003,0.035-0.023,0.058-0.026
							c0.018,0.014,0.003,0.027-0.036,0.039c0.037-0.005,0.056-0.015,0.089-0.021c-0.003,0.023-0.027,0.03-0.047,0.041
							C24.975,9.746,25,9.74,25.03,9.732c0.008,0.007-0.015,0.022-0.043,0.039c0.036-0.012,0.038-0.009,0.07-0.019
							c0.007,0.013,0,0.015-0.028,0.033c0.022-0.004,0.032-0.002,0.053-0.016c0,0.017-0.017,0.027-0.033,0.034
							c0.012-0.002,0.038-0.011,0.049-0.018c0.006,0.004,0,0.011-0.008,0.021c0.01,0.006,0.02,0,0.029,0.003
							c0.004,0.003-0.002,0.007-0.009,0.012c0.018,0.003,0.058,0.036,0.072,0.048c-0.062-0.081-0.116-0.15-0.211-0.183
							c-0.048-0.017-0.084-0.026-0.117-0.025c-0.05,0-0.098,0.001-0.142-0.01c0.01,0.009,0.027,0.011,0.03,0.016
							c0,0.003-0.004,0.012-0.011,0.017c0.018,0,0.034-0.013,0.035-0.011c0.002,0.002-0.011,0.017-0.022,0.024
							c0.021-0.003,0.052-0.021,0.051-0.02C24.791,9.685,24.783,9.694,24.763,9.705z"/>
					</g>
					<g>
						<g>
							<g>
								<path fill-rule="evenodd" clip-rule="evenodd" fill="#DB9669" d="M25.41,10.765c0.086-0.024,0.227,0.068,0.33-0.041
									C25.8,10.661,25.549,10.582,25.41,10.765z"/>
								<path fill-rule="evenodd" clip-rule="evenodd" fill="#F1B287" d="M25.029,9.638c0.231,0.253,0.213,0.449,0.068,0.837
									c-0.039,0.103-0.086,0.221-0.082,0.255c0.008,0.057,0.093,0.109,0.174,0.12c0.126,0.018,0.184-0.109,0.33-0.12
									c0.026-0.002,0.051-0.002,0.075,0c0.085,0.003,0.172,0.032,0.182-0.087c0.005-0.056-0.029-0.117-0.069-0.151
									c-0.044-0.039-0.121-0.043-0.204-0.006C25.493,10.083,25.46,9.782,25.029,9.638z"/>
								<path fill-rule="evenodd" clip-rule="evenodd" fill="#F5BC95" d="M25.159,9.812c0.107,0.186,0.061,0.364-0.051,0.663
									c-0.037,0.099-0.084,0.212-0.08,0.245c0.007,0.055,0.082,0.108,0.158,0.119c0.086,0.012,0.155-0.047,0.223-0.09
									c-0.186,0.053-0.304-0.005-0.264-0.132C25.322,10.092,25.213,9.852,25.159,9.812z"/>
							</g>
							<path fill-rule="evenodd" clip-rule="evenodd" fill="#E8A476" d="M25.489,10.524c0.153-0.074,0.234-0.054,0.262,0.117
								C25.797,10.456,25.625,10.355,25.489,10.524z"/>
						</g>
						<path fill-rule="evenodd" clip-rule="evenodd" fill="#361D07" d="M25.068,9.698c-0.057,0.009-0.118-0.028-0.177-0.063
							c-0.096-0.058-0.158-0.095-0.225-0.151c-0.022-0.018-0.044-0.034-0.068-0.059c-0.05-0.053-0.059-0.163-0.042-0.218
							c0.051,0.063,0.085,0.095,0.152,0.143c0.064,0.046,0.107,0.071,0.152,0.091c0.051,0.025,0.104,0.046,0.197,0.095
							c-0.017-0.015-0.026-0.027-0.039-0.034c0.054,0.011,0.114,0.057,0.115,0.065C25.138,9.612,25.129,9.688,25.068,9.698z"/>
					</g>
				</g>
			</g>
		</g>
		<g>
			<g>
				<g>
					<polygon fill-rule="evenodd" clip-rule="evenodd" fill="#E99E05" points="23.562,23.952 25.9,25.312 25.365,25.36 
						23.025,24.001 					"/>
					<polygon fill-rule="evenodd" clip-rule="evenodd" fill="#E99E05" points="17.852,38.166 18.071,38.658 15.731,37.3 
						15.512,36.805 					"/>
					<polygon fill-rule="evenodd" clip-rule="evenodd" fill="#E99E05" points="13.945,40.646 13.948,41.31 11.608,39.951 
						11.605,39.288 					"/>
					<polygon fill-rule="evenodd" clip-rule="evenodd" fill="#E99E05" points="23.856,18.743 26.194,20.102 25.611,20.44 
						23.271,19.079 					"/>
					<polygon fill-rule="evenodd" clip-rule="evenodd" fill="#E99E05" points="7.68,39.944 10.019,41.306 9.793,42.049 7.454,40.69 
											"/>
					<path fill-rule="evenodd" clip-rule="evenodd" fill="#FFC517" d="M9.101,39.006l-2.339-1.579
						c0.106,0.061,0.217,0.118,0.33,0.173c0.038,0.015,0.075,0.03,0.113,0.046c0.077,0.032,0.155,0.067,0.234,0.096
						c0.064,0.024,0.128,0.044,0.195,0.065c0.04,0.012,0.08,0.024,0.12,0.038c0.082,0.021,0.164,0.041,0.249,0.059
						c0.028,0.007,0.055,0.018,0.083,0.021c0.104,0.022,0.21,0.038,0.317,0.053c0.029,0.005,0.057,0.007,0.086,0.009
						C8.554,37.995,8.621,38,8.688,38.004c0.09,0.009,0.184,0.011,0.279,0.014c0.053,0.002,0.103,0.004,0.157,0.002
						c0.075,0,0.15-0.002,0.226-0.007c0.062-0.002,0.121-0.004,0.183-0.009c0.062-0.007,0.126-0.013,0.191-0.02
						c0.068-0.009,0.139-0.018,0.21-0.026c0.057-0.009,0.118-0.02,0.177-0.03c0.075-0.014,0.153-0.026,0.229-0.042
						c0.051-0.011,0.104-0.021,0.155-0.032c0.082-0.021,0.164-0.04,0.246-0.062c0.051-0.014,0.104-0.028,0.155-0.042
						c0.088-0.028,0.18-0.057,0.27-0.085c0.042-0.014,0.084-0.026,0.126-0.042c0.132-0.048,0.265-0.094,0.401-0.148
						c0,0,0.001,0,0.001,0c0.135-0.055,0.271-0.111,0.408-0.175c0.042-0.02,0.083-0.04,0.125-0.06
						c0.095-0.046,0.193-0.094,0.29-0.142c0.049-0.024,0.096-0.051,0.145-0.075c0.127-0.069,0.256-0.138,0.387-0.212
						c0.144-0.083,0.288-0.173,0.429-0.263c0.009-0.004,0.018-0.011,0.026-0.015c0.14-0.09,0.279-0.182,0.417-0.276
						c0.047-0.032,0.093-0.067,0.141-0.101c0.091-0.067,0.182-0.131,0.272-0.199c0.058-0.041,0.113-0.083,0.168-0.124
						c0.082-0.065,0.164-0.129,0.246-0.195c0.06-0.048,0.12-0.096,0.179-0.144c0.078-0.066,0.155-0.132,0.23-0.197
						c0.063-0.053,0.122-0.105,0.184-0.157c0.075-0.07,0.15-0.136,0.224-0.204c0.061-0.057,0.121-0.111,0.181-0.168
						c0.076-0.074,0.15-0.146,0.226-0.219c0.056-0.055,0.111-0.107,0.166-0.164c0.077-0.079,0.153-0.158,0.23-0.236
						c0.051-0.055,0.102-0.107,0.15-0.16c0.088-0.096,0.177-0.192,0.263-0.288c0.036-0.04,0.071-0.079,0.106-0.118
						c0.122-0.139,0.244-0.28,0.361-0.425c0.021-0.024,0.042-0.048,0.062-0.072c0.098-0.12,0.195-0.24,0.292-0.363
						c0.108-0.142,0.217-0.282,0.326-0.427c0.015-0.021,0.033-0.043,0.048-0.063c0.171-0.233,0.336-0.473,0.498-0.711
						c0.039-0.057,0.08-0.118,0.117-0.175c0.06-0.092,0.12-0.182,0.177-0.271c0.051-0.081,0.102-0.159,0.153-0.24
						c0.057-0.092,0.112-0.187,0.168-0.278c0.044-0.076,0.091-0.15,0.135-0.225c0.13-0.226,0.259-0.453,0.381-0.683
						c0.046-0.086,0.091-0.169,0.135-0.254c0.044-0.088,0.091-0.175,0.135-0.263c0.064-0.129,0.128-0.261,0.19-0.392
						c0.018-0.035,0.035-0.07,0.051-0.105c0.077-0.164,0.153-0.328,0.224-0.492c0.02-0.043,0.038-0.087,0.058-0.132
						c0.052-0.121,0.104-0.244,0.152-0.368c0.025-0.056,0.047-0.11,0.069-0.168c0.047-0.117,0.094-0.237,0.138-0.354
						c0.017-0.05,0.037-0.102,0.057-0.152c0.058-0.157,0.113-0.316,0.166-0.476c0.005-0.011,0.009-0.021,0.011-0.031
						c0.058-0.171,0.112-0.339,0.163-0.509c0.017-0.055,0.033-0.111,0.048-0.166c0.035-0.117,0.068-0.234,0.1-0.35
						c0.018-0.064,0.035-0.13,0.05-0.195c0.029-0.108,0.056-0.219,0.082-0.327c0.016-0.064,0.031-0.128,0.047-0.195
						c0.024-0.111,0.048-0.224,0.071-0.337c0.013-0.058,0.025-0.117,0.035-0.177c0.029-0.148,0.056-0.295,0.08-0.441
						c0.003-0.021,0.007-0.042,0.012-0.062c0.026-0.168,0.048-0.336,0.068-0.502c0.006-0.047,0.011-0.093,0.015-0.14
						c0.013-0.12,0.027-0.239,0.038-0.359c0.003-0.055,0.009-0.113,0.013-0.17c0.008-0.112,0.016-0.223,0.02-0.336
						c0.002-0.054,0.007-0.108,0.007-0.162c0.007-0.159,0.011-0.316,0.011-0.473c-0.002-0.166-0.007-0.326-0.013-0.485
						c-0.002-0.046-0.007-0.091-0.009-0.135c-0.008-0.108-0.014-0.216-0.022-0.323c-0.006-0.062-0.013-0.121-0.02-0.183
						c-0.009-0.088-0.021-0.179-0.031-0.266c-0.009-0.066-0.021-0.131-0.029-0.193c-0.013-0.082-0.026-0.162-0.042-0.241
						c-0.013-0.071-0.026-0.142-0.042-0.21c-0.016-0.071-0.031-0.142-0.049-0.212c-0.02-0.082-0.04-0.162-0.062-0.241
						c-0.018-0.063-0.035-0.124-0.053-0.184c-0.031-0.097-0.062-0.19-0.095-0.28c-0.016-0.052-0.033-0.1-0.051-0.148
						c-0.06-0.155-0.122-0.306-0.19-0.45c-0.051-0.111-0.106-0.219-0.164-0.323c0,0,0-0.002-0.002-0.002
						c-0.057-0.108-0.119-0.21-0.186-0.313c-0.011-0.02-0.026-0.037-0.037-0.057c-0.052-0.076-0.103-0.146-0.153-0.217
						c-0.022-0.029-0.042-0.056-0.064-0.084c-0.049-0.065-0.1-0.125-0.151-0.187c-0.021-0.021-0.04-0.046-0.06-0.068
						c-0.073-0.08-0.146-0.157-0.221-0.23c-0.011-0.011-0.022-0.02-0.032-0.031c-0.066-0.062-0.134-0.121-0.203-0.181
						c-0.026-0.021-0.051-0.041-0.077-0.063c-0.058-0.046-0.12-0.093-0.18-0.137c-0.026-0.018-0.051-0.035-0.078-0.053
						c-0.083-0.06-0.172-0.115-0.261-0.168v0.002c0,0,0,0,0-0.002c0.859,0.5,1.888,0.882,2.54,1.309
						c4.586,3.002,2.468,11.024-1.09,16.117C18.561,36.416,13.144,41.36,9.101,39.006z"/>
				</g>
				<path fill-rule="evenodd" clip-rule="evenodd" fill="#E99E05" d="M13.921,17.191c4.862-2.806,8.841-0.54,8.858,5.051
					c0.016,5.587-3.938,12.439-8.801,15.249c-4.867,2.809-8.849,0.54-8.863-5.05C5.099,26.849,9.054,20.002,13.921,17.191z"/>
				<g>
					<polygon fill-rule="evenodd" clip-rule="evenodd" fill="#FFDC42" points="4.135,25.614 4.408,25.682 6.474,26.976 5.94,27.15 
						3.599,25.663 					"/>
					<polygon fill-rule="evenodd" clip-rule="evenodd" fill="#FFC517" points="22.53,14.996 24.87,16.355 24.632,16.771 
						24.332,16.917 21.992,15.558 					"/>
					<path fill-rule="evenodd" clip-rule="evenodd" fill="#E99E05" d="M6.691,40.671c0.285,0.261,0.593,0.487,0.92,0.681
						L5.272,39.99c-0.33-0.19-0.635-0.418-0.92-0.681L6.691,40.671z"/>
					<polygon fill-rule="evenodd" clip-rule="evenodd" fill="#E99E05" points="4.761,38.604 7.306,40.073 6.691,40.671 4.352,39.31 
											"/>
					<path fill-rule="evenodd" clip-rule="evenodd" fill="#FFC517" d="M22.202,14.281c-0.078-0.027-0.155-0.053-0.232-0.077
						l-2.339-1.361c0.066,0.021,0.133,0.044,0.2,0.066c0.011,0.005,0.021,0.009,0.031,0.014c0.142,0.048,0.278,0.104,0.414,0.166
						c0.027,0.011,0.051,0.024,0.077,0.035c0.14,0.066,0.274,0.135,0.408,0.212l2.339,1.358c-0.133-0.077-0.268-0.146-0.407-0.209
						c-0.024-0.014-0.05-0.024-0.077-0.038C22.479,14.388,22.342,14.333,22.202,14.281z"/>
					<polygon fill-rule="evenodd" clip-rule="evenodd" fill="#FFC517" points="19.631,12.843 20.698,13.365 21.97,14.204 
						21.663,14.981 19.222,13.555 					"/>
					<path fill-rule="evenodd" clip-rule="evenodd" fill="#FFC517" d="M18.352,13.38c0.135,0.016,0.266,0.036,0.394,0.062
						c0.008,0.003,0.018,0.005,0.026,0.007c0.15,0.028,0.301,0.066,0.449,0.106l2.446,1.423c-0.146-0.042-0.381-0.034-0.534-0.065
						c-0.137-0.028-0.299-0.156-0.44-0.171L18.352,13.38z"/>
					<path fill-rule="evenodd" clip-rule="evenodd" fill="#E99E05" d="M6.504,39.111c0.219,0.311,0.333,0.605,0.597,0.851
						l-2.339-1.358c-0.264-0.247-0.502-0.525-0.72-0.834L6.504,39.111z"/>
					<polygon fill-rule="evenodd" clip-rule="evenodd" fill="#F7BC0A" points="15.917,12.863 17.674,13.794 18.257,14.221 
						18.239,14.599 18.031,14.967 15.692,13.606 					"/>
					<polygon fill-rule="evenodd" clip-rule="evenodd" fill="#F5B20E" points="2.959,35.307 5.299,36.665 4.801,37.346 2.421,35.86 
											"/>
					<path fill-rule="evenodd" clip-rule="evenodd" fill="#E99E05" d="M2.817,34.622c-0.022-0.125-0.04-0.247-0.057-0.377
						l2.34,1.361c0.049,0.348,0.259,0.851,0.341,1.192l-2.482-1.492c-0.011-0.046-0.021-0.092-0.033-0.138
						c-0.011-0.057-0.021-0.116-0.033-0.171c-0.02-0.099-0.04-0.194-0.06-0.295C2.829,34.677,2.822,34.648,2.817,34.622z"/>
					<path fill-rule="evenodd" clip-rule="evenodd" fill="#FFC517" d="M16.767,15.399l-2.339-1.359
						c0.311-0.135,0.966-0.388,1.279-0.473l2.641,1.559C17.86,15.255,17.538,15.073,16.767,15.399z"/>
					<polygon fill-rule="evenodd" clip-rule="evenodd" fill="#FFDC42" points="2.749,30.929 5.09,32.287 4.561,32.756 2.171,31.259 
											"/>
					<polygon fill-rule="evenodd" clip-rule="evenodd" fill="#F7BC0A" points="13.972,16.373 13.879,17.067 11.54,15.706 
						11.538,15.036 					"/>
					<path fill-rule="evenodd" clip-rule="evenodd" fill="#FFC517" d="M12.858,17.88l-2.339-1.359
						c0.02-0.018,0.04-0.036,0.062-0.054c0.295-0.249,0.653-0.556,0.958-0.785l2.518,1.452
						C13.712,17.385,13.185,17.603,12.858,17.88z"/>
					<path fill-rule="evenodd" clip-rule="evenodd" fill="#E99E05" d="M5.233,32.373l-2.484-1.444
						c0.009-0.078,0.02-0.155,0.029-0.234c0.047-0.356,0.101-0.715,0.168-1.069c0.017-0.101,0.038-0.199,0.057-0.3l2.341,1.363
						C5.144,31.627,5.319,31.592,5.233,32.373z"/>
					<path fill-rule="evenodd" clip-rule="evenodd" fill="#FFC517" d="M6.632,27.086l-2.498-1.472
						c0.029-0.07,0.057-0.139,0.086-0.21c0.049-0.115,0.097-0.228,0.148-0.343c0.02-0.048,0.042-0.1,0.063-0.148
						c0.006-0.013,0.01-0.026,0.018-0.04c0.085-0.194,0.175-0.387,0.266-0.58c0.001-0.004,0.001-0.011,0.004-0.016l2.342,1.361
						C6.702,26.394,6.804,26.662,6.632,27.086z"/>
					<path fill-rule="evenodd" clip-rule="evenodd" fill="#FFC517" d="M9.096,22.113l-2.395-1.273
						c0.367-0.529,0.729-1.04,1.138-1.537l2.565,1.464C10.028,21.228,9.432,21.622,9.096,22.113z"/>
					<polygon fill-rule="evenodd" clip-rule="evenodd" fill="#F7BC0A" points="10.067,20.11 10.179,20.664 7.839,19.303 
						7.625,18.807 					"/>
					<path fill-rule="evenodd" clip-rule="evenodd" fill="#F5B20E" d="M15.386,38.173c4.878-2.818,8.818-9.646,8.801-15.251
						c-0.015-5.604-3.981-7.863-8.858-5.048c-4.878,2.817-8.822,9.643-8.807,15.246C6.538,38.726,10.508,40.986,15.386,38.173
						L15.386,38.173z M4.522,35.938c-0.175-1.376-0.25-2.159-0.009-3.316l0.577-0.335c0.061-0.531,0.144-1.065,0.255-1.599
						L4.81,30.732c0.259-1.236,0.502-2.494,1.131-3.709l0.533-0.048c0.182-0.45,0.378-0.894,0.587-1.336l-0.412-0.232
						c0.583-1.227,1.102-2.471,2.036-3.532l0.411,0.238c0.345-0.502,0.704-0.986,1.083-1.449l-0.214-0.498
						c0.829-1.02,1.602-2.024,2.68-2.786l0.214,0.5c0.334-0.284,0.673-0.555,1.021-0.813l-0.003-0.67
						c0.826-0.662,1.586-1.276,2.888-1.668l0.002,0.67c0.432-0.177,0.854-0.326,1.264-0.432l0.226-0.746
						c0.984-0.366,1.841-0.32,2.66-0.223l-0.224,0.743c0.299,0.031,0.587,0.095,0.868,0.175l0.409-0.713
						c0.771,0.236,1.459,0.628,2.052,1.171l-0.412,0.708c0.264,0.247,0.505,0.522,0.722,0.833l0.538-0.562
						c0.473,0.69,0.841,1.511,1.084,2.463l-0.543,0.563c0.082,0.338,0.151,0.688,0.2,1.06l0.583-0.338
						c0.064,0.506,0.096,1.04,0.099,1.604c0.002,0.562-0.029,1.138-0.09,1.716l-0.583,0.335c-0.06,0.534-0.144,1.063-0.254,1.603
						l0.535-0.048c-0.259,1.234-0.637,2.48-1.13,3.712l-0.534,0.048c-0.177,0.444-0.378,0.895-0.587,1.335l0.417,0.231
						c-0.589,1.226-1.273,2.411-2.039,3.531l-0.412-0.234c-0.348,0.501-0.706,0.98-1.084,1.448l0.221,0.495
						c-0.837,1.023-1.735,1.962-2.682,2.78l-0.219-0.492c-0.335,0.284-0.673,0.558-1.018,0.813l0.002,0.663
						c-0.472,0.344-0.952,0.663-1.443,0.947c-0.489,0.28-0.974,0.521-1.445,0.72l-0.002-0.663c-0.434,0.18-0.852,0.322-1.266,0.434
						l-0.224,0.744c-0.945,0.242-1.836,0.313-2.662,0.225l0.226-0.743c-0.299-0.037-0.588-0.097-0.87-0.176l-0.407,0.707
						c-0.772-0.229-1.538-0.621-2.051-1.166l0.41-0.709c-0.264-0.245-0.5-0.525-0.72-0.833l-0.538,0.558
						C5.367,39.002,5,38.179,4.761,37.221l0.538-0.556c-0.082-0.339-0.148-0.689-0.199-1.059L4.522,35.938z"/>
					<path fill-rule="evenodd" clip-rule="evenodd" fill="#FFDC42" d="M20.18,13.958c-0.126,0-0.254,0.007-0.383,0.013
						c-0.033,0.003-0.066,0.005-0.1,0.007c-0.139,0.011-0.281,0.024-0.422,0.044c-0.027,0.002-0.051,0.007-0.078,0.011
						c-0.115,0.015-0.229,0.035-0.344,0.057c-0.045,0.007-0.086,0.016-0.131,0.025c-0.102,0.022-0.206,0.044-0.31,0.07
						c-0.054,0.011-0.104,0.022-0.155,0.036l-2.339-1.358c0.023-0.007,0.049-0.014,0.075-0.02c0.026-0.007,0.053-0.011,0.08-0.018
						c0.104-0.025,0.206-0.049,0.31-0.068c0.022-0.005,0.046-0.012,0.069-0.016c0.02-0.004,0.04-0.006,0.062-0.011
						c0.115-0.021,0.229-0.04,0.345-0.055c0.02-0.005,0.04-0.009,0.06-0.012c0.006,0,0.011,0,0.016-0.002
						c0.144-0.018,0.283-0.033,0.425-0.042c0.011-0.002,0.026-0.005,0.038-0.005c0.021-0.002,0.042-0.002,0.062-0.002
						c0.128-0.009,0.257-0.013,0.382-0.013c0.018,0,0.036-0.003,0.054-0.003c0.007,0,0.013,0,0.021,0
						c0.155,0.003,0.307,0.009,0.46,0.022c0.015,0,0.03,0,0.046,0.002c0.052,0.005,0.104,0.009,0.157,0.016l2.339,1.361
						c-0.066-0.009-0.135-0.014-0.204-0.02c-0.151-0.011-0.305-0.02-0.46-0.02C20.228,13.958,20.205,13.958,20.18,13.958z"/>
					<path fill-rule="evenodd" clip-rule="evenodd" fill="#FFDC42" d="M13.876,16.397l-2.339-1.361
						c0.13-0.095,0.266-0.19,0.399-0.281c0.077-0.052,0.154-0.101,0.232-0.155c0.046-0.029,0.093-0.06,0.139-0.091
						c0.031-0.02,0.062-0.042,0.095-0.062c0.155-0.1,0.312-0.197,0.469-0.291c0.038-0.02,0.073-0.042,0.112-0.061
						c0.119-0.071,0.238-0.138,0.358-0.202c0,0,0.002,0,0.002-0.001c0.139-0.074,0.274-0.145,0.412-0.213
						c0.011-0.006,0.024-0.013,0.035-0.018c0.031-0.015,0.062-0.028,0.093-0.043c0.093-0.045,0.184-0.089,0.276-0.131
						c0.021-0.009,0.042-0.021,0.064-0.031c0.066-0.028,0.135-0.058,0.202-0.086l2.339,1.359c-0.088,0.037-0.177,0.077-0.265,0.119
						c-0.093,0.04-0.184,0.084-0.277,0.128c-0.042,0.022-0.084,0.042-0.128,0.062c-0.136,0.068-0.273,0.139-0.412,0.214
						c-0.12,0.064-0.239,0.13-0.361,0.202c-0.225,0.131-0.451,0.27-0.675,0.414c-0.047,0.031-0.093,0.062-0.139,0.093
						C14.294,16.101,14.085,16.244,13.876,16.397z"/>
					<path fill-rule="evenodd" clip-rule="evenodd" fill="#FFDC42" d="M11.319,18.638c-0.047,0.049-0.093,0.1-0.142,0.149
						C11,18.975,10.822,19.166,10.65,19.36c-0.022,0.024-0.044,0.048-0.066,0.073c-0.21,0.239-0.417,0.482-0.62,0.732l-2.34-1.359
						c0.06-0.073,0.118-0.146,0.177-0.217c0.139-0.166,0.279-0.33,0.418-0.489c0.009-0.009,0.018-0.018,0.024-0.026
						c0.022-0.024,0.044-0.048,0.064-0.073c0.113-0.126,0.226-0.252,0.339-0.374c0.061-0.069,0.125-0.133,0.189-0.2
						c0.046-0.051,0.095-0.099,0.142-0.15c0.038-0.038,0.073-0.078,0.11-0.115c0.153-0.155,0.306-0.306,0.461-0.456
						c0.011-0.009,0.02-0.018,0.031-0.026c0.028-0.029,0.057-0.053,0.086-0.082c0.119-0.113,0.239-0.223,0.358-0.334
						c0.093-0.082,0.186-0.164,0.278-0.244l2.339,1.359c-0.216,0.186-0.426,0.38-0.637,0.58c-0.029,0.027-0.057,0.053-0.086,0.081
						C11.717,18.234,11.517,18.435,11.319,18.638z"/>
					<path fill-rule="evenodd" clip-rule="evenodd" fill="#FFDC42" d="M7.626,23.552c-0.091,0.16-0.176,0.321-0.266,0.48
						c-0.079,0.144-0.159,0.285-0.236,0.429c-0.024,0.046-0.046,0.093-0.071,0.14c-0.139,0.266-0.276,0.534-0.405,0.806l-2.34-1.361
						c0.058-0.124,0.12-0.246,0.18-0.37c0.073-0.146,0.148-0.29,0.226-0.436c0.022-0.047,0.046-0.093,0.07-0.14
						c0.009-0.018,0.019-0.035,0.027-0.052c0.069-0.126,0.142-0.251,0.21-0.377c0.088-0.159,0.175-0.321,0.266-0.478
						c0.008-0.016,0.018-0.033,0.028-0.049c0.124-0.216,0.257-0.429,0.387-0.641c0.031-0.049,0.058-0.098,0.089-0.144
						c0.166-0.266,0.339-0.531,0.516-0.791c0.013-0.018,0.024-0.037,0.038-0.055l2.339,1.361c-0.191,0.276-0.374,0.56-0.554,0.843
						c-0.031,0.049-0.057,0.098-0.088,0.146C7.901,23.091,7.762,23.322,7.626,23.552z"/>
					<path fill-rule="evenodd" clip-rule="evenodd" fill="#FFC517" d="M5.292,28.863c-0.005,0.016-0.01,0.031-0.013,0.046
						c-0.08,0.263-0.153,0.525-0.224,0.792c-0.014,0.055-0.029,0.114-0.045,0.171c-0.073,0.289-0.141,0.575-0.201,0.86l-2.34-1.359
						c0.009-0.05,0.02-0.098,0.031-0.148c0.042-0.192,0.086-0.383,0.135-0.575c0.011-0.047,0.024-0.092,0.035-0.136
						c0.014-0.057,0.029-0.115,0.044-0.173c0.024-0.09,0.047-0.184,0.073-0.273c0.048-0.173,0.1-0.346,0.15-0.519
						c0.004-0.016,0.009-0.03,0.014-0.046c0.001-0.004,0.004-0.011,0.004-0.017c0.059-0.189,0.119-0.379,0.183-0.571
						c0.027-0.079,0.058-0.161,0.084-0.24c0.02-0.053,0.038-0.106,0.055-0.159c0.018-0.051,0.036-0.1,0.054-0.15
						c0.064-0.18,0.129-0.357,0.201-0.534c0.019-0.055,0.042-0.113,0.064-0.168l2.341,1.36c-0.113,0.282-0.219,0.564-0.318,0.852
						c-0.02,0.053-0.038,0.104-0.057,0.158C5.468,28.311,5.379,28.587,5.292,28.863z"/>
					<path fill-rule="evenodd" clip-rule="evenodd" fill="#FFC517" d="M2.079,33.003c0-0.009,0-0.018,0-0.026
						c0-0.148,0.003-0.298,0.006-0.446c0-0.007,0-0.011,0-0.018c0.002-0.03,0.004-0.063,0.004-0.094
						c0.004-0.123,0.012-0.245,0.018-0.37c0.002-0.02,0.002-0.035,0.002-0.055c0.002-0.035,0.006-0.07,0.009-0.103
						c0.009-0.123,0.017-0.243,0.028-0.363c0.002-0.03,0.004-0.062,0.007-0.094c0.006-0.058,0.013-0.116,0.017-0.176l2.341,1.363
						C4.502,32.71,4.496,32.8,4.487,32.889c-0.012,0.118-0.02,0.239-0.029,0.361c-0.002,0.053-0.007,0.105-0.011,0.16
						c-0.006,0.122-0.013,0.247-0.017,0.369c0,0.037-0.002,0.074-0.005,0.111C4.42,34.04,4.418,34.188,4.42,34.333
						c0,0.037,0,0.076,0.002,0.111c0,0.125,0.002,0.245,0.007,0.365c0.002,0.046,0.006,0.097,0.009,0.145
						c0.004,0.114,0.011,0.228,0.02,0.342c0.004,0.048,0.01,0.096,0.012,0.145C4.484,35.6,4.5,35.757,4.518,35.91
						c0.001,0.009,0.001,0.02,0.004,0.028L2.183,34.58c-0.002-0.004-0.002-0.007-0.002-0.011c0-0.007-0.002-0.014-0.002-0.02
						c-0.018-0.153-0.036-0.311-0.049-0.469c-0.002-0.021-0.004-0.043-0.007-0.065c-0.002-0.026-0.002-0.053-0.004-0.078
						c-0.009-0.114-0.016-0.23-0.022-0.344c0-0.035-0.004-0.065-0.004-0.099c-0.003-0.016-0.003-0.03-0.003-0.046
						c-0.005-0.12-0.006-0.24-0.008-0.363C2.081,33.058,2.082,33.031,2.079,33.003z"/>
					<path fill-rule="evenodd" clip-rule="evenodd" fill="#FFC517" d="M2.515,36.206c-0.033-0.116-0.064-0.228-0.093-0.346
						l2.339,1.36c0.031,0.118,0.062,0.234,0.095,0.348c0.051,0.171,0.106,0.342,0.166,0.501c0.011,0.033,0.02,0.062,0.031,0.09
						c0.071,0.184,0.146,0.365,0.229,0.538c0.013,0.031,0.026,0.062,0.041,0.09c0.043,0.09,0.089,0.18,0.136,0.267
						c0.013,0.026,0.027,0.049,0.04,0.072c0.059,0.109,0.122,0.217,0.188,0.317c0.05,0.083,0.102,0.162,0.157,0.243l-2.34-1.363
						c-0.05-0.07-0.1-0.145-0.148-0.219c-0.002-0.007-0.006-0.013-0.01-0.02c-0.064-0.103-0.127-0.21-0.188-0.317
						c-0.013-0.024-0.024-0.05-0.038-0.074c-0.046-0.085-0.093-0.175-0.137-0.265c-0.007-0.016-0.015-0.03-0.022-0.048
						c-0.006-0.016-0.013-0.029-0.017-0.04c-0.082-0.175-0.157-0.354-0.229-0.542c-0.004-0.009-0.008-0.022-0.013-0.033
						c-0.007-0.018-0.011-0.037-0.018-0.055c-0.06-0.164-0.117-0.328-0.166-0.503C2.515,36.206,2.515,36.206,2.515,36.206z"/>
				</g>
			</g>
			<g>
				<polygon fill-rule="evenodd" clip-rule="evenodd" fill="#F5B20E" points="10.16,30.902 14.769,35.663 15.969,36.37 
					16.144,32.933 11.398,31.627 				"/>
				<polygon fill-rule="evenodd" clip-rule="evenodd" fill="#FFDC42" points="14.754,31.666 16.477,32.896 20.534,26.313 
					19.337,25.604 14.757,31.498 				"/>
				<polygon fill-rule="evenodd" clip-rule="evenodd" fill="#FFF15C" points="10.16,30.902 11.433,31.653 16.184,32.27 
					14.757,31.498 				"/>
				<polygon fill-rule="evenodd" clip-rule="evenodd" fill="#F5B20E" points="10.156,29.89 11.358,30.597 14.754,30.452 
					19.333,24.591 15.918,19.064 14.72,18.363 				"/>
				<g>
					<polygon fill-rule="evenodd" clip-rule="evenodd" fill="#FFC517" points="11.359,31.609 15.97,36.367 20.538,26.311 
						15.958,32.204 					"/>
					<polygon fill-rule="evenodd" clip-rule="evenodd" fill="#FFC517" points="11.357,30.594 15.955,31.156 20.534,25.296 
						15.92,19.068 					"/>
				</g>
				<g>
					<polygon fill-rule="evenodd" clip-rule="evenodd" fill="#FFC517" points="11.359,31.609 15.97,36.367 20.538,26.311 
						15.958,32.204 15.97,36.367 					"/>
					<polygon fill-rule="evenodd" clip-rule="evenodd" fill="#FFDC42" points="11.359,31.609 15.97,36.367 15.958,32.204 					"/>
					<polygon fill-rule="evenodd" clip-rule="evenodd" fill="#F5B20E" points="15.936,24.735 15.955,31.156 11.357,30.594 
						15.955,31.156 20.534,25.296 					"/>
					<polygon fill-rule="evenodd" clip-rule="evenodd" fill="#FFC517" points="15.936,24.735 11.357,30.594 15.955,31.156 					"/>
					<polygon fill-rule="evenodd" clip-rule="evenodd" fill="#FFDC42" points="15.92,19.068 11.357,30.594 15.936,24.735 					"/>
					<polygon fill-rule="evenodd" clip-rule="evenodd" fill="#FFC517" points="15.92,19.068 15.936,24.735 20.534,25.296 					"/>
				</g>
			</g>
		</g>
		<g>
			<g>
				<path fill-rule="evenodd" clip-rule="evenodd" fill="#F1B287" d="M21.82,14.739l-1.017,0.335
					c-0.295,0.152-0.371,0.232-0.125,0.654c0.142,0.229,0.257,0.298,0.619,0.192c0.396-0.116,0.751-0.107,0.909-0.079
					c0.181,0.033,0.3,0.131,0.407,0.238c0.24,0.242,0.415,0.536,1.069,0.275c0.342-0.136,0.606-0.141,0.972-0.186l-0.037-0.928
					c-0.82,0.108-1.413-0.199-2.145-0.507C22.119,14.585,22.187,14.619,21.82,14.739z"/>
				<path fill-rule="evenodd" clip-rule="evenodd" fill="#E8A476" d="M22.292,15.524l-0.059,0.283
					c0.181,0.033,0.345,0.104,0.451,0.211c0.24,0.241,0.345,0.475,1,0.213c0.342-0.136,0.606-0.07,0.972-0.063l-0.037-0.928
					c-0.82,0.108-1.413-0.199-2.145-0.507c-0.074-0.031-0.13-0.054-0.174-0.07C22.32,14.76,22.372,15.15,22.292,15.524z"/>
				<path fill-rule="evenodd" clip-rule="evenodd" fill="#DB9669" d="M20.708,15.773c0.131,0.193,0.254,0.246,0.59,0.147
					c0.396-0.116,0.751-0.107,0.909-0.079c0.181,0.033,0.3,0.131,0.407,0.238c0.24,0.242,0.415,0.536,1.069,0.275
					c0.342-0.136,0.606-0.141,0.972-0.186l-0.037-0.928c-0.174,0.022-0.338,0.027-0.496,0.016l0,0
					c-0.009,0.212-0.018,0.488-0.042,0.547c-0.057,0.133-0.516,0.163-0.676,0.16c-0.559-0.009-0.937-0.481-1.162-0.53
					c-0.323-0.07-1.056,0.196-1.52,0.36C20.717,15.787,20.713,15.781,20.708,15.773z"/>
			</g>
			<path fill-rule="evenodd" clip-rule="evenodd" fill="#0B3A4F" d="M24.252,15.055c0.016,0.367,0.003,0.975-0.018,1.343
				c1.536,0.265,4.293,0.52,5.833,0.212c0.171-0.035,0.319-0.056,0.436-0.12c0.092-0.053,0.206-0.319,0.263-0.426
				c0.468-0.883-0.501-1.307-1.496-1.396c-0.916-0.082-2.469,0.07-3.389,0.209C25.2,14.979,24.916,15.099,24.252,15.055z"/>
			<path fill-rule="evenodd" clip-rule="evenodd" fill="#0B3A4F" d="M30.45,16.387l-1.24-0.181l-0.31-0.901
				c0.666-1.217,0.853-2.221,1.426-3.486c0.09-0.478,0.168-0.894,0.273-1.242c0.282-0.953,0.783-1.327,1.404-1.284
				c1.404,0.096,1.468,1.177,1.118,2.28C32.584,13.263,31.409,14.871,30.45,16.387z"/>
			<path fill-rule="evenodd" clip-rule="evenodd" fill="#124F6B" d="M29.219,14.664c0.428-0.948,0.639-1.809,1.107-2.845
				c0.09-0.478,0.168-0.894,0.273-1.242c0.282-0.953,1.061-1.344,1.729-1.275c-1.328,2.755-2.407,5.941-2.525,6.001
				c-0.861,0.443-3.717,0.036-5.543,0.128c0-0.139-0.002-0.268-0.007-0.376c0.664,0.044,0.948-0.076,1.628-0.178
				C26.785,14.74,28.298,14.592,29.219,14.664z"/>
			<path fill-rule="evenodd" clip-rule="evenodd" fill="#062533" d="M24.255,15.833c-0.004,0.208-0.011,0.408-0.021,0.565
				c1.536,0.265,4.293,0.52,5.833,0.212c0.171-0.035,0.319-0.056,0.436-0.12c0.092-0.053,0.206-0.319,0.263-0.426
				c0.065-0.125,0.105-0.241,0.116-0.348c0.857-1.316,1.78-2.7,2.24-4.143c0.293-0.926,0.297-1.836-0.541-2.162
				c-0.277,1.949-1.929,4.801-2.56,6.37C28.792,15.983,25.713,15.887,24.255,15.833z"/>
		</g>
	</g>
</g>
</svg>
