<svg width="450" height="450" xmlns="http://www.w3.org/2000/svg" xmlns:xlink="http://www.w3.org/1999/xlink">
 
 <style type="text/css">.st0{display:none;fill:#F1F3F9;}
	.st1{display:none;fill:#BFD3C9;stroke:#91BCA6;stroke-width:6;stroke-miterlimit:10;}
	.st2{display:none;fill:#8C8B98;stroke:#77768C;stroke-width:7;stroke-miterlimit:10;}
	.st3{display:none;}
	.st4{display:inline;fill:#C7EAF9;stroke:#9ED3E5;stroke-width:6;stroke-miterlimit:10;}
	.st5{display:inline;fill:#FFFEFD;}
	.st6{display:inline;fill:#E5E1DF;stroke:#B7B7B7;stroke-width:5;stroke-miterlimit:10;}
	.st7{display:inline;fill:#BCB0A4;stroke:#93867A;stroke-width:6;stroke-miterlimit:10;}
	.st8{fill:#F1F3F9;}
	.st9{fill:#BFD3C9;}
	.st10{fill:#91BCA6;}
	.st11{fill:#8C8B98;}
	.st12{fill:#77768C;}
	.st13{fill:#C7EAF9;}
	.st14{fill:#9ED3E5;}
	.st15{fill:#FFFEFD;}
	.st16{fill:#C0784C;}
	.st17{fill:#AA5B30;}
	.st18{fill:#4F4D52;}
	.st19{fill:#F9F9F9;}
	.st20{fill:#B1DBE5;}
	.st21{fill:#87C2CC;}
	.st22{fill:#F2BB91;}
	.st23{fill:#EAA475;}
	.st24{fill:#FCCEA7;}
	.st25{fill:#F4B687;}
	.st26{fill:#554544;}
	.st27{fill:#423434;}
	.st28{fill:#258384;}
	.st29{fill:#16706D;}
	.st30{fill:#969E9C;}
	.st31{fill:#0B4745;}
	.st32{fill:#072D2B;}
	.st33{fill:#212121;}
	.st34{fill:#9F5A37;}
	.st35{fill:#844428;}
	.st36{fill:#4A5055;}
	.st37{fill:#393E42;}
	.st38{fill:#7A7A7A;}
	.st39{fill:#303030;}
	.st40{fill:#DBAD2C;}
	.st41{fill:#BF9221;}
	.st42{fill:#AD3431;}
	.st43{fill:#892121;}
	.st44{fill:#7C4B31;}
	.st45{fill:#6D3B24;}
	.st46{fill:#2E7099;}
	.st47{fill:#1B5987;}
	.st48{fill:#125666;}
	.st49{fill:#094E51;}
	.st50{fill:#E5E1DF;}
	.st51{fill:#B7B7B7;}
	.st52{fill:#BCB0A4;}
	.st53{fill:#93867A;}
	.st54{opacity:0.61;fill:#C05B57;enable-background:new    ;}
	.st55{fill:#161616;}
	.st56{fill:#111111;}
	.st57{fill:#2B2B2B;}
	.st58{fill:#1D8CB2;}
	.st59{fill:#137389;}
	.st60{fill:#D12A2A;}
	.st61{fill:#A31616;}
	.st62{fill:#E5A376;}
	.st63{fill:#F2B88C;}
	.st64{fill:#EAA373;}
	.st65{fill:#89442C;}
	.st66{fill:#723525;}
	.st67{fill:#FFFFFF;}
	.st68{fill:#141414;}
	.st69{clip-path:url(#SVGID_2_);fill:#682727;}
	.st70{clip-path:url(#SVGID_4_);fill:#FFFFFF;}
	.st71{fill:none;stroke:#F4B687;stroke-width:3;stroke-miterlimit:10;}
	.st72{fill:#8E5720;stroke:#4C3116;stroke-width:6;stroke-miterlimit:10;}
	.st73{fill:#35210F;stroke:#382615;stroke-width:6;stroke-miterlimit:10;}
	.st74{fill:#A41408;}
	.st75{fill:#9E6216;stroke:#3D2814;stroke-width:6;stroke-miterlimit:10;}
	.st76{fill:#725944;}
	.st77{fill:#5B3C1D;}
	.st78{fill:#DD3131;}
	.st79{fill:#DB8F5D;}
	.st80{fill:#999999;}
	.st81{fill:#595959;}
	.st82{fill:#3A3A3A;}
	.st83{fill:#BABABA;}
	.st84{fill:#BA1C1C;}
	.st85{fill:#282828;}
	.st86{clip-path:url(#SVGID_6_);fill:#722121;}
	.st87{clip-path:url(#SVGID_8_);fill:#D82E2E;}
	.st88{clip-path:url(#SVGID_10_);fill:#FFFFFF;}
	.st89{clip-path:url(#SVGID_12_);fill:#722121;}
	.st90{clip-path:url(#SVGID_14_);fill:#D82E2E;}
	.st91{clip-path:url(#SVGID_16_);fill:#FFFFFF;}
	.st92{clip-path:url(#SVGID_18_);fill:#DB8F5D;}
	.st93{clip-path:url(#SVGID_20_);fill:#FFFFFF;}
	.st94{fill:#AFAFAF;}
	.st95{display:none;fill:#999999;}
	.st96{fill:#F4CEA7;stroke:#F1B687;stroke-width:5;stroke-miterlimit:10;}
	.st97{fill:#F4CEA7;stroke:#F1B687;stroke-width:4;stroke-miterlimit:10;}
	.st98{fill:#F1B687;}
	.st99{fill:#D1292A;stroke:#A31415;stroke-width:5;stroke-miterlimit:10;}
    #OJOS_1_1_,#OJOS_2{
    
    animation : blink 8s ease-in-out infinite;
     transform-origin: 0% 35%
    }
    @keyframes blink{
    0%,5%{
    transform : scaleY(1)
    }
    8%,12%{
     transform : scaleY(.1)
    }
    
    16%,70%{
    transform : scaleY(1)
    }
    73%,77%{
    transform : scaleY(1)
    }
    80%,100%{
    visibility : hidden
    }
    }
    #eyes_x5F_sad,#boca1{
    animation : fade 8s ease-in-out infinite
    }
    @keyframes fade{
    0%,81%{
    visibility : hidden
    }
    82%,100%{
    visibility : visible
    }
    }
    #BOCA_2{
    animation : fadeout 8s ease-in-out infinite 
    }
    @keyframes fadeout{
    0%,79%{
    visibility : visible
    }
    80%,100%{
    visibility : hidden
    }
    }
    #BRAZO_IZQ,#MANO_1{animation : move1 8s linear infinite}
    @keyframes move1{
    0%,60%{
    visibility : visible
    }
    65%,100%{
    visibility : hidden
    }
    }
    #Rightarm{
    animation : move2 8s linear infinite
    }
    @keyframes move2{
    0%,65%{
    visibility : hidden
    }
    70%,100%{
    visibility : visible
    }
    }
    #CEJAS{
    animation : bounce2 8s linear infinite;
    transform-origin: 60% 50%
    }
    @keyframes bounce2{
    0%,5%{
    transform : rotate(0deg)
    }
    10%,15%{
    transform: rotate(-10deg)
    }
    20%,25%{
    transform : rotate(0deg)
    }
    30%,35%{
    transform: rotate(-10deg)
    }
    40%,45%{
    transform : rotate(0deg)
    }
    50%,55%{
    transform: rotate(-10deg)
    }
    60%,65%{
    transform : rotate(0deg)
    }
    70%,75%{
    transform: rotate(-10deg)
    }
    80%,85%{
    transform : rotate(0deg)
    }
     90%,100%{
    transform: rotate(-10deg)
    }
    }
    #CEJAS_copy,#CEJAS_copy_2{
    animation : bounce1 8s linear infinite;
    transform-origin: 20% 30%
    }
    @keyframes bounce1{
    0%,5%{
    transform : rotate(0deg)
    }
    10%,15%{
    transform: rotate(10deg)
    }
    20%,25%{
    transform : rotate(0deg)
    }
    30%,35%{
    transform: rotate(10deg)
    }
    40%,45%{
    transform : rotate(0deg)
    }
    50%,55%{
    transform: rotate(10deg)
    }
    60%,65%{
    transform : rotate(0deg)
    }
    70%,75%{
    transform: rotate(10deg)
    }
    80%,85%{
    transform : rotate(0deg)
    }
     90%,100%{
    transform: rotate(10deg)
    }
    }
    #bg{
    animation : hell 8s linear infinite
    }
    @keyframes hell{
    0%,30%{
    opacity : .6
    }
    40%,80%{
    opacity : .7
    }
    90%,100%{
    opacity : .9
    }
    }
    #eyes1,#eyes2{
    animation : blink2 8s ease-in-out infinite;
     transform-origin: 0% 60%
    }
    @keyframes blink2{
    0%,5%{
    transform : scaleY(1)
    }
    8%,12%{
     transform : scaleY(.1)
    }
    
    16%,70%{
    transform : scaleY(1)
    }
    73%,77%{
    transform : scaleY(.1)
    }
    80%,100%{
    transform : scaleY(1)
    }
    }</style>
 <g>
  <title>Layer 1</title>
  <g stroke="null" id="CEJAS_copy_2">
   <g stroke="null" id="svg_384">
    <g stroke="null" id="svg_385">
     <g stroke="null" id="svg_386">
      <path stroke="null" id="svg_387" d="m251.38653,172.10013c0,0 5.22942,-68.63613 24.18606,-81.70968c0,0 23.53239,64.71406 10.89462,77.56972c-12.41987,13.29144 -35.08069,4.13996 -35.08069,4.13996z" class="st72"/>
      <polygon stroke="null" id="svg_388" points="247.682373046875,142.6846466064453 122.17630004882812,90.60836029052734 165.75479125976562,133.5331573486328 74.45784759521484,155.54029846191406 133.72462463378906,165.99913024902344 80.7767333984375,207.83448791503906 125.22677612304688,207.83448791503906 70.10000610351562,247.70883178710938 117.81845092773438,247.70883178710938 " class="st73"/>
      <path stroke="null" id="svg_389" d="m289.51771,282.13583l96.52636,20.264c1.52525,0.43578 3.26839,-0.65368 3.48628,-1.96103l6.31888,-24.83974c0.43578,-1.52525 -0.65368,-2.8326 -2.17892,-3.26839l-96.52636,-20.264c-1.52525,-0.43578 -3.26839,0.65368 -3.48628,1.96103l-6.31888,24.83974c-0.43578,1.30735 0.65368,2.8326 2.17892,3.26839z" class="st67"/>
      <path stroke="null" id="svg_390" d="m276.66206,308.06503l28.76181,10.02305c3.48628,1.30735 7.62624,-0.43578 8.93359,-3.48628l4.13996,-9.36938c1.30735,-3.26839 -0.43578,-6.75467 -3.92206,-8.06202l-28.76181,-10.02305c-3.48628,-1.30735 -7.62624,0.43578 -8.93359,3.48628l-4.13996,9.36938c-1.30735,3.26839 0.43578,6.97256 3.92206,8.06202z" class="st74"/>
      <path stroke="null" id="svg_391" d="m281.0199,329.85428l91.29695,19.17454c3.05049,0.65368 6.10099,-1.08946 6.75467,-3.92206l5.22942,-20.264c0.65368,-2.8326 -1.30735,-5.44731 -4.13996,-6.10099l-91.29695,-19.17454c-3.05049,-0.65368 -6.10099,1.08946 -6.75467,3.92206l-5.22942,20.264c-0.87157,2.8326 1.08946,5.44731 4.13996,6.10099z" class="st67"/>
      <path stroke="null" id="svg_392" d="m226.76468,140.28783c0,0 84.97806,9.80516 82.79914,52.51209s62.97092,63.40671 62.97092,63.40671s26.36499,-7.84413 26.36499,11.33041s3.70417,28.54391 -22.00714,26.58288s-65.80353,-35.29858 -77.56972,-29.85127s-17.21351,48.37213 0.21789,52.29419s87.15699,13.07355 82.36335,25.05763c-4.57574,11.98409 -27.89024,32.24809 -68.20034,11.11252s-50.98684,-13.07355 -54.47312,-41.61746c0,0 -33.55544,-3.26839 -55.1268,-20.48189c-14.16301,-11.33041 -15.90615,-15.25247 -17.4314,-38.34907s-4.35785,60.57411 -4.35785,60.57411l-74.95501,-21.78925c0,0 16.77772,-125.07028 44.01428,-143.59114c27.67234,-18.30297 75.39079,-7.19045 75.39079,-7.19045z" class="st75"/>
      <path stroke="null" id="svg_393" d="m145.92657,178.6369c0,0 5.22942,-80.18443 24.18606,-95.4369c0,0 23.53239,75.39079 10.89462,90.64327c-12.41987,15.47037 -35.08069,4.79363 -35.08069,4.79363z" class="st75"/>
      <ellipse stroke="null" id="svg_394" ry="6.53677" rx="7.19045" cy="270.58753" cx="373.6242" class="st76"/>
      <ellipse stroke="null" id="svg_395" ry="6.53677" rx="7.19045" cy="264.05075" cx="342.68347" class="st76"/>
      <g stroke="null" id="svg_396">
       <path stroke="null" id="svg_397" d="m372.75263,258.60344c-5.8831,-0.21789 -10.89462,-0.65368 -15.90615,-1.30735c-5.01153,-0.43578 -9.80516,-0.87157 -14.3809,-1.30735c-4.79363,-0.43578 -9.36938,-0.43578 -14.16301,-0.43578c-1.08946,0 -2.39682,0 -3.70417,0c-1.30735,0 -2.39682,0.21789 -3.70417,0.21789c-2.61471,0 -5.22942,0.43578 -8.27991,0.43578c0.87157,-1.30735 1.74314,-2.39682 2.8326,-3.48628c0.43578,-0.65368 1.08946,-1.08946 1.52525,-1.52525s1.08946,-0.87157 1.74314,-1.30735c1.08946,-0.87157 2.39682,-1.74314 3.70417,-2.39682c1.30735,-0.65368 2.61471,-1.30735 3.92206,-1.74314c5.44731,-2.17892 11.33041,-3.05049 17.21351,-2.39682c5.8831,0.43578 11.33041,1.96103 16.55983,4.57574c4.79363,2.39682 9.36938,5.8831 12.63776,10.67673z" class="st77"/>
      </g>
      <g stroke="null" id="svg_398">
       <path stroke="null" id="svg_399" d="m289.9535,258.60344c-1.74314,5.22942 -3.70417,9.58727 -5.44731,13.94512c-1.74314,4.13996 -3.48628,8.27991 -4.79363,12.20198c-1.52525,3.92206 -2.61471,7.84413 -3.70417,11.98409c-0.21789,1.08946 -0.43578,2.17892 -0.65368,3.26839s-0.21789,2.17892 -0.43578,3.48628c-0.65368,2.39682 -0.43578,4.79363 -1.08946,7.62624c-1.08946,-0.87157 -1.96103,-1.96103 -2.8326,-3.05049c-0.43578,-0.43578 -0.87157,-1.08946 -1.30735,-1.74314c-0.43578,-0.65368 -0.65368,-1.08946 -1.08946,-1.74314c-0.65368,-1.30735 -1.30735,-2.39682 -1.74314,-3.70417s-0.65368,-2.61471 -0.87157,-4.13996c-0.87157,-5.44731 -0.43578,-11.33041 1.52525,-16.55983s5.01153,-9.80516 8.7157,-13.50933s8.06202,-6.75467 13.72723,-8.06202z" class="st77"/>
      </g>
     </g>
    </g>
    <g stroke="null" id="svg_400">
     <ellipse stroke="null" id="svg_401" ry="22.22503" rx="24.62185" cy="186.69892" cx="209.33328" class="st67"/>
     <ellipse stroke="null" id="svg_402" ry="8.93359" rx="10.02305" cy="186.69892" cx="209.33328" class="st55"/>
    </g>
    <g stroke="null" id="svg_403">
     <ellipse stroke="null" id="svg_404" ry="20.91768" rx="23.0966" cy="186.69892" cx="270.77896" class="st67"/>
     <ellipse stroke="null" id="svg_405" ry="8.06202" rx="8.93359" cy="186.69892" cx="270.77896" class="st55"/>
    </g>
   </g>
  </g>
 </g>
</svg>