<?xml version="1.0" encoding="utf-8"?>
<!-- Generator: Adobe Illustrator 16.0.0, SVG Export Plug-In . SVG Version: 6.00 Build 0)  -->
<!DOCTYPE svg PUBLIC "-//W3C//DTD SVG 1.1//EN" "http://www.w3.org/Graphics/SVG/1.1/DTD/svg11.dtd">
<svg version="1.1" id="Layer_1" xmlns="http://www.w3.org/2000/svg" xmlns:xlink="http://www.w3.org/1999/xlink" x="0px" y="0px"
	 width="658px" height="612.613px" viewBox="0 0 658 612.613" enable-background="new 0 0 658 612.613" xml:space="preserve">
<rect x="181" y="149.613" fill="#18AAE2" stroke="#000000" stroke-miterlimit="10" width="300" height="300"/>
<g>
	<g>
		<polygon opacity="0.51" fill="#80C9DA" points="257.125,565.331 87.145,467.332 72.824,493.728 83.197,493.728 103.574,509.17 
			130.478,514.138 165.828,539.953 181.161,539.953 197.135,555.574 207.455,555.574 227.885,571.017 240.639,571.017 
			259.191,586.637 271.828,588.295 281.717,583.948 291.205,588.295 297.242,585.394 265.845,567.513 		"/>
		<polygon opacity="0.51" fill="#80C9DA" points="634.134,436.982 318.976,593.049 323.24,598.396 337.834,598.396 367.102,583.274 
			386.048,580.592 392.35,587.084 403.156,587.084 410.734,583.274 423.371,586.424 636.868,478.226 620.542,470.285 
			632.148,463.631 621.124,458.269 649.172,443.725 		"/>
		<g>
			<g>
				<polygon fill="#65C4CE" points="232.273,311.165 233.461,314.793 235.585,316.147 243.994,320.108 243.684,314.793 				"/>
				<polygon fill="#FFFFFF" points="223.393,323.475 230.647,327.103 230.395,319.195 				"/>
				<polygon fill="#FFFFFF" points="229.88,303.082 230.395,319.195 268.483,295.921 254.888,290.574 				"/>
				<path fill="#C8EAF9" d="M245.712,318.754l-1.718-8.935l-14.114-6.737l0.768,26.395l-7.255-3.629v8.278l14.042,5.818
					l-0.132-3.395c-0.131-0.453,0-21.757,0-21.757L245.712,318.754z"/>
			</g>
			<g>
				<polygon fill="#65C4CE" points="265.098,294.376 266.284,298.003 268.408,299.358 276.817,303.318 276.507,298.003 				"/>
				<polygon fill="#FFFFFF" points="256.216,306.685 263.471,310.313 263.219,302.406 				"/>
				<polygon fill="#FFFFFF" points="262.703,286.292 263.219,302.406 301.307,279.132 287.711,273.784 				"/>
				<path fill="#C8EAF9" d="M278.535,301.965l-1.718-8.935l-14.114-6.738l0.768,26.395l-7.255-3.629v8.277l14.042,5.818
					l-0.131-3.394c-0.132-0.454,0-21.757,0-21.757L278.535,301.965z"/>
			</g>
			<g>
				<polygon fill="#65C4CE" points="199.755,328.145 200.942,331.771 203.066,333.127 211.476,337.088 211.164,331.771 				"/>
				<polygon fill="#FFFFFF" points="190.874,340.453 198.129,344.082 197.876,336.175 				"/>
				<polygon fill="#FFFFFF" points="197.361,320.061 197.876,336.175 235.965,312.9 222.369,307.553 				"/>
				<path fill="#C8EAF9" d="M213.193,335.732l-1.718-8.934l-14.114-6.738l0.768,26.396l-7.255-3.629v8.277l14.041,5.819
					l-0.131-3.395c-0.132-0.454,0-21.757,0-21.757L213.193,335.732z"/>
			</g>
			<g>
				<polygon fill="#65C4CE" points="134.396,360.48 135.584,364.107 137.708,365.462 146.117,369.423 145.807,364.107 				"/>
				<polygon fill="#FFFFFF" points="125.516,372.789 132.771,376.417 132.519,368.51 				"/>
				<polygon fill="#FFFFFF" points="132.003,352.396 132.519,368.51 170.606,345.236 157.011,339.889 				"/>
				<path fill="#C8EAF9" d="M147.835,368.068l-1.718-8.935l-14.114-6.737l0.768,26.396l-7.255-3.629v8.277l14.042,5.818
					l-0.132-3.394c-0.131-0.454,0-21.758,0-21.758L147.835,368.068z"/>
			</g>
			<g>
				<polygon fill="#65C4CE" points="168.327,343.746 169.514,347.374 171.639,348.729 180.047,352.689 179.736,347.374 				"/>
				<polygon fill="#FFFFFF" points="159.445,356.056 166.7,359.684 166.448,351.776 				"/>
				<polygon fill="#FFFFFF" points="165.934,335.663 166.448,351.776 204.536,328.503 190.94,323.154 				"/>
				<path fill="#C8EAF9" d="M181.765,351.335l-1.718-8.935l-14.113-6.737l0.767,26.395l-7.255-3.628v8.277l14.042,5.818
					l-0.132-3.394c-0.131-0.454,0-21.758,0-21.758L181.765,351.335z"/>
			</g>
			<g>
				<polygon fill="#65C4CE" points="64.754,395.212 65.94,398.839 68.065,400.194 76.474,404.154 76.163,398.839 				"/>
				<polygon fill="#FFFFFF" points="62.36,387.128 62.875,403.242 100.963,379.968 87.367,374.62 				"/>
				<polygon fill="#FFFFFF" points="55.873,407.521 63.128,411.148 62.875,403.242 				"/>
				<path fill="#C8EAF9" d="M78.191,402.8l-1.718-8.934l-14.113-6.738l0.768,26.396l-7.255-3.629v8.277l14.041,5.819l-0.131-3.395
					c-0.132-0.454,0-21.757,0-21.757L78.191,402.8z"/>
			</g>
			<g>
				<polygon fill="#65C4CE" points="98.91,378.101 100.098,381.728 102.222,383.082 110.63,387.043 110.319,381.728 				"/>
				<polygon fill="#FFFFFF" points="96.517,370.017 97.031,386.131 135.119,362.856 121.523,357.509 				"/>
				<polygon fill="#FFFFFF" points="90.029,390.409 97.283,394.038 97.031,386.131 				"/>
				<path fill="#C8EAF9" d="M112.348,385.688l-1.718-8.934l-14.113-6.738l0.767,26.396l-7.254-3.629v8.277l14.041,5.819
					l-0.131-3.395c-0.132-0.454,0-21.758,0-21.758L112.348,385.688z"/>
			</g>
		</g>
		<g>
			<g>
				<polygon fill="#65C4CE" points="404.546,321.639 412.954,317.678 415.078,316.323 416.266,312.696 404.856,316.323 				"/>
				<polygon fill="#FFFFFF" points="417.892,328.633 425.146,325.005 418.145,320.727 				"/>
				<polygon fill="#FFFFFF" points="380.057,297.452 418.145,320.727 418.659,304.612 393.652,292.104 				"/>
				<path fill="#C8EAF9" d="M418.659,304.612l-14.113,6.737l-1.718,8.935l8.408-3.961c0,0,0.132,21.304,0,21.758l-0.131,3.394
					l14.041-5.818v-8.277l-7.255,3.629L418.659,304.612z"/>
			</g>
			<g>
				<polygon fill="#65C4CE" points="371.723,304.85 380.131,300.889 382.255,299.534 383.442,295.907 372.033,299.534 				"/>
				<polygon fill="#FFFFFF" points="385.068,311.844 392.323,308.215 385.321,303.937 				"/>
				<polygon fill="#FFFFFF" points="347.232,280.663 385.321,303.937 385.836,287.823 360.828,275.315 				"/>
				<path fill="#C8EAF9" d="M385.836,287.823l-14.113,6.738l-1.719,8.934l8.409-3.96c0,0,0.131,21.304,0,21.757l-0.132,3.395
					l14.042-5.818v-8.277l-7.255,3.628L385.836,287.823z"/>
			</g>
			<g>
				<polygon fill="#65C4CE" points="437.064,338.618 445.473,334.657 447.598,333.303 448.784,329.676 437.375,333.303 				"/>
				<polygon fill="#FFFFFF" points="450.41,345.612 457.666,341.984 450.663,337.705 				"/>
				<polygon fill="#FFFFFF" points="412.574,314.432 450.663,337.705 451.178,321.592 426.171,309.084 				"/>
				<path fill="#C8EAF9" d="M451.178,321.592l-14.113,6.737l-1.718,8.935l8.409-3.961c0,0,0.131,21.304,0,21.758l-0.132,3.394
					l14.042-5.818v-8.277l-7.256,3.628L451.178,321.592z"/>
			</g>
			<g>
				<polygon fill="#65C4CE" points="502.423,370.953 510.831,366.993 512.955,365.638 514.143,362.011 502.733,365.638 				"/>
				<polygon fill="#FFFFFF" points="515.769,377.948 523.023,374.319 516.021,370.041 				"/>
				<polygon fill="#FFFFFF" points="477.934,346.767 516.021,370.041 516.536,353.928 491.529,341.419 				"/>
				<path fill="#C8EAF9" d="M516.536,353.928l-14.113,6.737l-1.718,8.934l8.408-3.96c0,0,0.131,21.303,0,21.757l-0.131,3.395
					l14.041-5.819v-8.276l-7.255,3.628L516.536,353.928z"/>
			</g>
			<g>
				<polygon fill="#65C4CE" points="468.492,354.22 476.901,350.259 479.025,348.904 480.213,345.277 468.803,348.904 				"/>
				<polygon fill="#FFFFFF" points="481.839,361.215 489.094,357.586 482.092,353.307 				"/>
				<polygon fill="#FFFFFF" points="444.003,330.033 482.092,353.307 482.606,337.193 457.599,324.686 				"/>
				<path fill="#C8EAF9" d="M482.606,337.193l-14.114,6.738l-1.717,8.934l8.408-3.961c0,0,0.131,21.304,0,21.758l-0.132,3.395
					l14.042-5.819v-8.277l-7.255,3.629L482.606,337.193z"/>
			</g>
			<g>
				<polygon fill="#65C4CE" points="572.065,405.686 580.475,401.725 582.599,400.37 583.785,396.742 572.377,400.37 				"/>
				<polygon fill="#FFFFFF" points="547.576,381.499 585.664,404.772 586.18,388.659 561.172,376.15 				"/>
				<polygon fill="#FFFFFF" points="585.412,412.68 592.667,409.051 585.664,404.772 				"/>
				<path fill="#C8EAF9" d="M586.18,388.659l-14.114,6.737l-1.718,8.935l8.408-3.961c0,0,0.132,21.304,0,21.757l-0.131,3.395
					l14.042-5.818v-8.277l-7.255,3.628L586.18,388.659z"/>
			</g>
			<g>
				<polygon fill="#65C4CE" points="537.909,388.574 546.318,384.613 548.442,383.259 549.629,379.631 538.221,383.259 				"/>
				<polygon fill="#FFFFFF" points="551.256,395.568 558.511,391.939 551.508,387.661 				"/>
				<polygon fill="#FFFFFF" points="513.42,364.388 551.508,387.661 552.023,371.548 527.016,359.039 				"/>
				<path fill="#C8EAF9" d="M552.023,371.548l-14.114,6.737l-1.718,8.935l8.408-3.961c0,0,0.132,21.304,0,21.757l-0.131,3.395
					l14.042-5.818v-8.277l-7.255,3.628L552.023,371.548z"/>
			</g>
		</g>
		<polygon fill="#045477" points="9.283,430.221 9.283,441.628 322.911,598.477 636.539,441.628 636.539,430.221 322.911,284.78 		
			"/>
		<radialGradient id="SVGID_1_" cx="322.9111" cy="430.2217" r="247.9553" gradientUnits="userSpaceOnUse">
			<stop  offset="0" style="stop-color:#7DC6CE"/>
			<stop  offset="1" style="stop-color:#187998"/>
		</radialGradient>
		<polygon fill="url(#SVGID_1_)" points="9.283,430.221 322.911,587.069 636.539,430.221 322.911,273.374 		"/>
		<polygon fill="#C8EAF9" points="65.658,394.219 66.887,397.973 69.086,399.375 77.79,403.476 77.469,397.973 		"/>
		<polygon opacity="0.28" fill="#037392" points="344.847,302.881 113.381,418.639 113.381,440.253 344.847,556.012 
			384.176,553.018 615.642,437.26 616.515,422.699 385.048,306.941 		"/>
		<polygon fill="#045477" points="302.852,302.881 71.385,410.665 71.385,440.253 302.852,556.012 346.07,556.012 577.537,440.253 
			577.537,410.665 346.07,302.881 		"/>
		<radialGradient id="SVGID_2_" cx="325.6987" cy="399.8584" r="200.0826" gradientUnits="userSpaceOnUse">
			<stop  offset="0" style="stop-color:#7DC6CE"/>
			<stop  offset="1" style="stop-color:#187998"/>
		</radialGradient>
		<polygon fill="url(#SVGID_2_)" points="304.089,273.293 72.623,389.051 72.623,410.665 304.089,526.424 347.309,526.424 
			578.774,410.665 578.774,389.051 347.309,273.293 		"/>
		<polygon opacity="0.32" fill="#0F6788" points="306.623,294.376 115.564,389.926 115.564,407.768 306.623,503.318 
			342.299,503.318 533.357,407.768 533.357,389.926 342.299,294.376 		"/>
		<polygon fill="#BCE6F5" points="309.345,310.313 147.432,391.287 147.432,406.406 309.345,487.381 339.577,487.381 
			501.49,406.406 501.49,391.287 339.577,310.313 		"/>
		<polygon fill="#F1F9FB" points="309.345,300.726 147.432,381.699 147.432,396.819 309.345,477.793 339.577,477.793 
			501.49,396.819 501.49,381.699 339.577,300.726 		"/>
		<polygon fill="#0F6788" points="9.283,441.628 322.911,598.477 322.911,587.069 9.283,430.221 		"/>
		<g>
			<g>
				<polygon fill="#A6DDE7" points="55.908,472.529 47.514,472.502 47.514,481.314 72.496,493.809 88.406,485.729 88.629,457.664 
					104.51,449.83 104.51,441.018 56.089,449.059 				"/>
				<polygon fill="#FFFFFF" points="56.089,440.246 55.873,468.321 47.514,472.502 72.496,484.996 80.848,480.805 81.07,452.74 
					104.51,441.018 79.527,428.523 				"/>
				<polygon fill="#C8EAF9" points="47.514,481.314 72.496,493.809 72.676,485.037 47.514,472.502 				"/>
				<polygon opacity="0.68" fill="#C8EAF9" points="55.873,468.321 80.896,480.703 81.075,452.737 56.093,440.243 				"/>
			</g>
			<g>
				<polygon fill="#A6DDE7" points="86.657,487.972 78.263,487.944 78.263,496.757 103.245,509.251 119.156,501.172 
					119.379,473.106 135.26,465.273 135.26,456.461 86.838,464.501 				"/>
				<polygon fill="#FFFFFF" points="86.838,455.688 86.622,483.764 78.263,487.944 103.245,500.438 111.598,496.248 111.82,468.183 
					135.26,456.461 110.277,443.967 				"/>
				<polygon fill="#C8EAF9" points="78.263,496.757 103.245,509.251 103.425,500.48 78.263,487.944 				"/>
				<polygon opacity="0.68" fill="#C8EAF9" points="86.622,483.764 111.646,496.146 111.824,468.181 86.843,455.687 				"/>
			</g>
			<g>
				<polygon fill="#A6DDE7" points="117.964,503.593 109.569,503.564 109.569,512.378 134.552,524.871 150.463,516.792 
					150.686,488.727 166.566,480.894 166.566,472.081 118.145,480.122 				"/>
				<polygon fill="#FFFFFF" points="118.145,471.31 117.929,499.385 109.569,503.564 134.552,516.059 142.904,511.868 
					143.127,483.803 166.566,472.081 141.584,459.587 				"/>
				<polygon fill="#C8EAF9" points="109.569,512.378 134.552,524.871 134.731,516.101 109.569,503.564 				"/>
				<polygon opacity="0.68" fill="#C8EAF9" points="117.929,499.385 142.952,511.767 143.132,483.801 118.149,471.307 				"/>
			</g>
			<g>
				<polygon fill="#A6DDE7" points="148.911,518.755 140.517,518.728 140.517,527.54 165.499,540.034 181.41,531.954 
					181.633,503.89 197.514,496.056 197.514,487.243 149.092,495.284 				"/>
				<polygon fill="#FFFFFF" points="149.092,486.472 148.876,514.547 140.517,518.728 165.499,531.221 173.852,527.03 
					174.074,498.966 197.514,487.243 172.531,474.75 				"/>
				<polygon fill="#C8EAF9" points="140.517,527.54 165.499,540.034 165.679,531.264 140.517,518.728 				"/>
				<polygon opacity="0.68" fill="#C8EAF9" points="148.876,514.547 173.899,526.929 174.079,498.963 149.097,486.47 				"/>
			</g>
			<g>
				<polygon fill="#A6DDE7" points="180.218,534.375 171.823,534.348 171.823,543.16 196.806,555.654 212.717,547.575 
					212.939,519.51 228.82,511.677 228.82,502.864 180.398,510.904 				"/>
				<polygon fill="#FFFFFF" points="180.398,502.092 180.183,530.168 171.823,534.348 196.806,546.842 205.158,542.651 
					205.381,514.586 228.82,502.864 203.838,490.37 				"/>
				<polygon fill="#C8EAF9" points="171.823,543.16 196.806,555.654 196.985,546.884 171.823,534.348 				"/>
				<polygon opacity="0.68" fill="#C8EAF9" points="180.183,530.168 205.206,542.55 205.386,514.584 180.403,502.09 				"/>
			</g>
			<g>
				<polygon fill="#A6DDE7" points="210.968,549.818 202.573,549.791 202.573,558.604 227.556,571.098 243.466,563.018 
					243.689,534.953 259.569,527.119 259.569,518.307 211.148,526.348 				"/>
				<polygon fill="#FFFFFF" points="211.148,517.535 210.932,545.61 202.573,549.791 227.556,562.285 235.907,558.094 
					236.131,530.029 259.569,518.307 234.587,505.813 				"/>
				<polygon fill="#C8EAF9" points="202.573,558.604 227.556,571.098 227.734,562.326 202.573,549.791 				"/>
				<polygon opacity="0.68" fill="#C8EAF9" points="210.932,545.61 235.955,557.992 236.135,530.026 211.152,517.533 				"/>
			</g>
			<g>
				<polygon fill="#A6DDE7" points="242.274,565.439 233.88,565.411 233.88,574.224 258.862,586.718 274.772,578.639 
					274.996,550.573 290.876,542.74 290.876,533.928 242.455,541.969 				"/>
				<polygon fill="#FFFFFF" points="242.455,533.156 242.238,561.23 233.88,565.411 258.862,577.905 267.214,573.715 
					267.438,545.649 290.876,533.928 265.894,521.434 				"/>
				<polygon fill="#C8EAF9" points="233.88,574.224 258.862,586.718 259.042,577.947 233.88,565.411 				"/>
				<polygon opacity="0.68" fill="#C8EAF9" points="242.238,561.23 267.262,573.613 267.441,545.647 242.459,533.153 				"/>
			</g>
		</g>
		<g>
			<g>
				<polygon fill="#C8EAF9" points="594.795,448.846 546.373,440.805 546.373,449.617 562.254,457.45 562.478,485.516 
					578.388,493.595 603.37,481.102 603.37,472.288 594.976,472.316 				"/>
				<polygon fill="#FFFFFF" points="594.795,440.032 571.355,428.311 546.373,440.805 569.813,452.526 570.035,480.592 
					578.388,484.782 603.37,472.288 595.011,468.108 				"/>
				<polygon fill="#A6DDE7" points="578.388,493.595 603.37,481.102 603.37,472.288 578.208,484.824 				"/>
				<polygon fill="#A6DDE7" points="569.809,452.524 569.987,480.49 595.011,468.108 594.79,440.03 				"/>
			</g>
			<g>
				<polygon fill="#C8EAF9" points="564.046,464.288 515.624,456.247 515.624,465.06 531.505,472.894 531.728,500.958 
					547.639,509.038 572.621,496.544 572.621,487.731 564.227,487.759 				"/>
				<polygon fill="#FFFFFF" points="564.046,455.476 540.606,443.753 515.624,456.247 539.063,467.969 539.286,496.034 
					547.639,500.225 572.621,487.731 564.262,483.551 				"/>
				<polygon fill="#A6DDE7" points="547.639,509.038 572.621,496.544 572.621,487.731 547.459,500.268 				"/>
				<polygon fill="#A6DDE7" points="539.059,467.967 539.238,495.933 564.262,483.551 564.041,455.473 				"/>
			</g>
			<g>
				<polygon fill="#C8EAF9" points="532.738,479.908 484.317,471.868 484.317,480.681 500.197,488.514 500.421,516.579 
					516.332,524.658 541.314,512.164 541.314,503.352 532.92,503.379 				"/>
				<polygon fill="#FFFFFF" points="532.738,471.096 509.3,459.374 484.317,471.868 507.756,483.59 507.979,511.655 
					516.332,515.846 541.314,503.352 532.955,499.172 				"/>
				<polygon fill="#A6DDE7" points="516.332,524.658 541.314,512.164 541.314,503.352 516.152,515.888 				"/>
				<polygon fill="#A6DDE7" points="507.752,483.588 507.932,511.554 532.955,499.172 532.734,471.094 				"/>
			</g>
			<g>
				<polygon fill="#C8EAF9" points="501.791,495.071 453.37,487.03 453.37,495.843 469.25,503.676 469.474,531.741 485.385,539.82 
					510.367,527.327 510.367,518.515 501.973,518.542 				"/>
				<polygon fill="#FFFFFF" points="501.791,486.259 478.353,474.536 453.37,487.03 476.81,498.752 477.032,526.817 
					485.385,531.008 510.367,518.515 502.008,514.334 				"/>
				<polygon fill="#A6DDE7" points="485.385,540.481 510.367,527.987 510.367,519.175 485.205,531.711 				"/>
				<polygon fill="#A6DDE7" points="476.805,498.75 476.984,526.716 502.008,514.334 501.787,486.256 				"/>
			</g>
			<g>
				<polygon fill="#C8EAF9" points="470.484,510.691 422.063,502.65 422.063,511.463 437.943,519.297 438.167,547.361 
					454.078,555.441 479.06,542.947 479.06,534.135 470.665,534.162 				"/>
				<polygon fill="#FFFFFF" points="470.484,501.879 447.046,490.157 422.063,502.65 445.502,514.373 445.726,542.438 
					454.078,546.629 479.06,534.135 470.701,529.954 				"/>
				<polygon fill="#A6DDE7" points="454.078,556.102 479.06,543.607 479.06,534.795 453.898,547.331 				"/>
				<polygon fill="#A6DDE7" points="445.498,514.371 445.678,542.336 470.701,529.954 470.48,501.877 				"/>
			</g>
			<g>
				<polygon fill="#C8EAF9" points="439.735,526.135 391.314,518.094 391.314,526.906 407.194,534.74 407.418,562.805 
					423.328,570.884 448.311,558.391 448.311,549.578 439.916,549.605 				"/>
				<polygon fill="#FFFFFF" points="439.735,517.322 416.297,505.6 391.314,518.094 414.753,529.815 414.977,557.881 
					423.328,562.071 448.311,549.578 439.951,545.397 				"/>
				<polygon fill="#A6DDE7" points="423.328,571.545 448.311,559.051 448.311,550.238 423.148,562.774 				"/>
				<polygon fill="#A6DDE7" points="414.748,529.813 414.928,557.779 439.951,545.397 439.73,517.319 				"/>
			</g>
			<g>
				<polygon fill="#C8EAF9" points="408.429,541.755 360.007,533.714 360.007,542.527 375.888,550.36 376.11,578.426 
					392.021,586.505 417.004,574.011 417.004,565.198 408.609,565.226 				"/>
				<polygon fill="#FFFFFF" points="408.429,532.942 384.989,521.221 360.007,533.714 383.446,545.437 383.669,573.501 
					392.021,577.692 417.004,565.198 408.645,561.018 				"/>
				<polygon fill="#A6DDE7" points="392.021,587.165 417.004,574.672 417.004,565.859 391.842,578.395 				"/>
				<polygon fill="#A6DDE7" points="383.441,545.434 383.621,573.4 408.645,561.018 408.424,532.94 				"/>
			</g>
		</g>
		<g opacity="0.24">
			<path fill="#037392" d="M604.188,426.925c-3.625-1.813-9.557-1.813-13.182,0c-3.625,1.813-3.625,4.779,0,6.593
				c3.625,1.813,9.557,1.813,13.182,0C607.813,431.704,607.813,428.738,604.188,426.925z"/>
			<path fill="#037392" d="M329.502,564.298L329.502,564.298c-3.625-1.813-9.557-1.813-13.182,0c-3.625,1.813-3.625,4.779,0,6.592
				l0,0c3.625,1.813,9.557,1.813,13.182,0C333.127,569.077,333.127,566.11,329.502,564.298z"/>
			<path fill="#037392" d="M54.816,426.925L54.816,426.925c-3.625-1.813-9.557-1.813-13.182,0l0,0c-3.625,1.813-3.625,4.779,0,6.593
				l0,0c3.625,1.813,9.557,1.813,13.182,0C58.441,431.704,58.441,428.738,54.816,426.925z"/>
		</g>
		<rect x="302.852" y="526.424" opacity="0.11" fill="#A6DDE7" width="43.219" height="29.588"/>
		<polygon opacity="0.39" fill="#045477" points="349.395,529.828 347.691,543.704 579.157,427.946 574.872,418.028 		"/>
	</g>
	<g>
		<path fill="#BCE6F5" d="M274.83,366.01l28.268,7.079c29.533-2.176,120.256-10.372,150.471-15.355l-38.41-19.21
			C415.158,338.523,301.583,359.558,274.83,366.01z"/>
		<path fill="#BCE6F5" d="M463.424,362.662c-13.684,7.138-60.596,31.376-90.975,48.486l18.41,7.77c0,0,87.1-27.574,106.926-39.287
			l-7.39-3.48L463.424,362.662z"/>
		<path fill="#FFFFFF" d="M239.126,175.871c-15.329-13.334-17.284,14.705-10.037,48.049l6.366,3.433
			c2.542-3.994,4.739-19.778,6.183-34.495C242.259,186.526,242.275,178.001,239.126,175.871z"/>
		<path fill="#E4F4F8" d="M257.456,87.899c-14.228,6.83-24.119,59.506-25.093,79.343c0,0,6.123,14.635,14.18-0.711
			c13.336-25.401,30.172-52.449,28.504-72.447C274.338,85.6,263.038,85.579,257.456,87.899z"/>
		<path fill="#E4F4F8" d="M293.792,147.286c-2.838-1.172-0.863,9.429,0.348,21.618c1.21,12.189,1.198,21.351,4.036,22.523
			c2.837,1.172,4.155-7.758,2.945-19.948C299.91,159.29,296.629,148.458,293.792,147.286z"/>
		<path fill="#E4F4F8" d="M283.765,201.318c0,0-15.308,80.525-9.999,113.78c4.715,29.541,20.15,10.734,20.15,10.734
			s7.232-7.288,19.603-55.031l3.368-17.193C308.736,239.775,301.586,196.819,283.765,201.318z"/>
		<path fill="#FFFFFF" d="M325.902,156.6c6.705-29.524-44.166-29.648-44.166-29.648s32.992,58.059,10.552,62.123l14.422,18.299
			l40.247,2.858C346.957,210.231,320.183,181.785,325.902,156.6z"/>
		<path fill="#FFFFFF" d="M283.641,48.468c-2.848-1.333-4.838,7.177-4.444,19.006c0.393,11.829,3.021,22.498,5.868,23.832
			c2.848,1.333,4.839-7.177,4.445-19.006C289.116,60.471,286.489,49.802,283.641,48.468z"/>
		<path fill="#FFFFFF" d="M332.184,160.167c-2.795-0.894-2.979,8.667-0.413,21.354c2.567,12.686,6.914,23.695,9.709,24.59
			c2.796,0.894-0.165-9.358-2.731-22.045C336.181,171.379,334.979,161.062,332.184,160.167z"/>
		<path fill="#203063" d="M341.997,199.492c1.169,7.697-16.953,4.973-28.724,1.782c-25.697-6.966-17.691-20.29-22.321-8.706
			c-1.108,2.771-9.869,20.83,35.301,31.028c17.631,3.981,29.245,1.21,27.357-11.223
			C352.995,208.325,341.495,196.185,341.997,199.492z"/>
		<path fill="#FFFFFF" d="M353.61,212.374c-4.304,4.065-28.582,12.836-45.322,5.39c-17.165-7.634-18.574-16.914-18.574-16.914
			c0.821,5.413,0.254,14.498,3.428,23.847l23.446,25.628c22.65,9.131,46.995-12.163,45.345-23.032
			C361.52,224.575,356.045,210.073,353.61,212.374z"/>
		<path fill="#E4F4F8" d="M361.045,224.19c-20.735-9.392-25.873,20.455-34.98,27.944c20.016,3.166,37.355-15.05,35.868-24.843
			C361.844,226.708,361.52,225.579,361.045,224.19z"/>
		<path fill="#FFFFFF" d="M327.102,257.707c0,0-2.715-2.381,2.763,19.409c14.605,58.107,23.847,72.096,23.847,72.096
			s19.617,33.007,26.816,8.903c8.103-27.135-9.235-119.815-9.235-119.815C348.054,216.868,338.271,252.112,327.102,257.707z"/>
		<path fill="#213265" d="M361.436,242.437c-5.758,1.411-8.179,5.576-5.566,15.656c2.611,10.079,6.994,22.566,15.024,20.845
			c4.681-1.004,3.771-14.472,1.159-24.551C369.44,244.307,366.083,241.297,361.436,242.437z"/>
		<path fill="#FFFFFF" d="M364.087,376.755c-5.48,4.407-7.811,16.513-3.69,29.056l1.339,4.078l2.779,7.468
			c6.532,5.705,22.224,7.631,26.345,1.562c-1.821-14.374-4.055-27.781-6.743-37.062
			C379.166,364.772,369.276,372.581,364.087,376.755z"/>
		<path fill="#E4F4F8" d="M277.271,339.664c-1.342,4.589-3.797,15.513-2.782,19.162c1.228,0.165-0.887,5.739,0.341,5.904
			c6.513,8.183,22.124,13.041,28.269,7.079c-0.569-7.452-3.2-20.642-7.6-27.735C289.438,334.306,281.057,326.72,277.271,339.664z"/>
		<path fill="#FFFFFF" d="M301.516,72.378c-38.207-14.68-50.438,14.406-47.277,35.216c0,0,0.236,2.792,15.862,20.91
			c5.209,6.04,14.844,11.434,22.964,14.279c10.749,3.766,21.268,19.633,31.816,17.798c27.354-4.758,34.859-29.907,34.859-29.907
			C354.976,87.287,340.422,87.326,301.516,72.378z"/>
		<path fill="#FFFFFF" d="M307.728,122.392c-16.997-6.234-45.104-15.128-43.216-2.695c1.889,12.432,13.188,45.531,36.49,50.995
			c17.6,4.127,49.539-3.105,47.651-15.537C346.766,142.721,324.724,128.626,307.728,122.392z"/>
		<path fill="#E4F4F8" d="M290.324,74.996l-12.167,5.73l7.692,8.488l25.865-0.526c0,0,14.171-2.574,10.938-5.969
			C315.287,74.981,290.324,74.996,290.324,74.996z"/>
		<path fill="#FFFFFF" d="M295.231,46.117c-4.398-1.613-5.966,10.241-3.501,26.477c2.466,16.236,8.03,30.706,12.429,32.319
			c4.398,1.614,5.965-10.24,3.5-26.476C305.193,62.2,299.63,47.73,295.231,46.117z"/>
		<path fill="#FFFFFF" d="M302.973,52.275c-2.555-0.155,0.107,10.524,5.948,23.853c5.841,13.329,12.649,24.258,15.204,24.412
			c2.557,0.155-0.106-10.525-5.947-23.853S305.529,52.429,302.973,52.275z"/>
		<path fill="#213265" d="M289.52,116.678c-10.979-4.028-18.336,2.874-16.432,15.416c1.904,12.541,12.349,25.973,23.328,30
			c10.979,4.028,18.336-2.874,16.432-15.416C310.943,134.136,300.499,120.705,289.52,116.678z"/>
		<path fill="#E4F4F8" d="M333.63,113.403c0.661,2.713,2.826,5.737,6.066,8.941c1.343,1.328-6.296,12.357-6.296,12.357
			c-16.014,4.845-12.27,4.702-11.766,6.563c3.694,13.665,21.986,22.733,35.891-5.344c1.557-3.108,2.215-5.248,2.215-5.248
			c-1.947-17.738-5.913-27.873-12.49-34.69C339.405,96.401,331.184,101.538,333.63,113.403z"/>
		<path fill="#FFFFFF" d="M393.125,195.581c-5.781,10.148-7.106,49.514-6.184,73.529c0.069,1.796,6.833,1.34,6.833,1.34
			c4.243-11.042,20.511-58.847,10.601-75.066C400.407,189.229,395.578,191.277,393.125,195.581z"/>
		<path fill="#FFFFFF" d="M367.304,100.054c-6.24-6.558-22.222-9.594-26.086,6.102c-3.439,16.497,38.067,65.969,51.157,83.296
			c0,0,16.14,6.628,10.19-12.315C392.718,145.784,382.016,115.513,367.304,100.054z"/>
		<path fill="#FFFFFF" d="M390.773,266.082c-3.309-0.395-4.348,6.325-9.416,8.87c-5.068,2.545-11.303,5.797-11.404,10.931
			c-0.006,0.335,0.048,0.755,0.149,1.239c2.123,10.032,15.958,11.583,21.144,2.737c1.064-1.815,1.981-3.696,2.679-5.524
			C397.429,275.146,394.082,266.477,390.773,266.082z"/>
		<path fill="#FFFFFF" d="M239.479,227.84c-6.415-7.698-18.769-4.868-19.05,4.021c-0.057,1.824,0.039,3.658,0.297,5.384
			c1.292,8.671,8.107,14.874,11.073,14.217s0.739-6.545,3.828-10.167s6.833-8.178,4.55-12.47
			C240.028,228.544,239.789,228.211,239.479,227.84z"/>
		<g>
			<path fill="#FFFFFF" d="M281.099,0c-21.494-0.05-33.115,15.312-36.046,23.537c-1.536,4.313,3.013,18.823,5.005,24.946
				c5.79,17.798,6.476,4.854,25.22,8.227c18.745,3.373,30.639,2.414,32.527-15.872c0.746-7.227-0.098-15.259-3.02-22.896
				C300.716,7.307,292.679,0.027,281.099,0z"/>
			<path fill="#FFFFFF" d="M248.521,42.618c0,0,2.875,9.656,4.164,13.11l19.625,26.603l15.192,3.588l18.679-21.278l1.291-22.724
				l-8.836,0.395L248.521,42.618z"/>
			<path fill="#213265" d="M265.935,70.448l2.894,4.886c7.573,3.863,13.854,1.073,16.433-0.57l-0.908-3.725
				C279.146,72.431,273.118,74.842,265.935,70.448z"/>
			<path fill="#213265" d="M295.419,23.597c-3.578,5.443-3.194,15.628,0.856,22.75c4.053,7.121,10.238,8.482,13.816,3.039
				s3.194-15.628-0.857-22.75C305.184,19.515,298.997,18.154,295.419,23.597z"/>
			<path fill="#FFFFFF" d="M301.377,25.969c-2.543,3.867-2.271,11.104,0.608,16.164c2.879,5.06,7.274,6.026,9.817,2.159
				c2.542-3.867,2.27-11.104-0.609-16.164C308.314,23.068,303.919,22.102,301.377,25.969z"/>
			<path fill="#213265" d="M276.702,45.993c-8.789,2.727-22.693,1.395-22.693,1.395s-4.268-0.925-5.776-4.667
				c-0.392,0.641,4.308,13.055,4.453,13.007c0,0,0.928,1.611,5.604,3.061c3.542,1.098,16.615,1.611,28.479-3.875
				c11.863-5.486,15.338-7.946,15.338-7.946l-4.277-12.386C297.828,34.582,285.491,43.266,276.702,45.993z"/>
		</g>
	</g>
	<g>
		<polygon opacity="0.32" fill="#0F6788" points="239.273,469.636 215.864,482.302 211.254,494.079 175.716,498.7 183.193,517.192 
			187.633,518.895 186.14,534.213 193.29,537.752 184.247,540.98 183.193,549.951 131.56,574.112 147.665,576.563 160.081,579.725 
			208.353,561.494 208.802,552.895 215.452,549.955 219.088,522.605 239.061,509.155 238.391,494.672 259.274,479.638 		"/>
		<g>
			<polygon fill-rule="evenodd" clip-rule="evenodd" fill="#F9A974" points="108.311,400.717 108.445,413.156 118.735,419.401 
				122.637,430.43 125.516,432.747 125.905,418.22 118.258,398.298 			"/>
			<polygon fill-rule="evenodd" clip-rule="evenodd" fill="#FFFFFF" points="103.998,399.508 106.69,402.925 121.71,405.496 
				121.735,401.773 104.975,394.604 			"/>
			<polygon fill-rule="evenodd" clip-rule="evenodd" fill="#213266" points="102.916,298.079 96.405,335.699 101.636,393.606 
				106.104,400.122 121.281,402.54 118.962,347.84 127.627,284.056 			"/>
		</g>
		<g>
			<polygon fill="#367795" points="94.254,442.141 94.239,441.884 94.051,438.605 94.045,438.509 92.659,438.126 92.584,438.102 
				81.08,434.832 81.04,434.801 79.953,434.487 80.33,441.046 83.203,485.191 97.05,490.725 95.751,468.154 			"/>
			<g>
				<polygon fill="#0F6788" points="154.001,405.518 94.158,438.563 94.053,438.605 95.75,468.154 155.738,434.479 154.073,405.542 
									"/>
				<polygon fill="#045477" points="95.969,468.066 95.75,468.154 97.049,490.724 156.905,454.703 155.738,434.479 				"/>
				<polygon fill="#A6DDE7" points="118.036,450.94 118.055,459.48 119.807,459.87 131.526,453.641 131.791,445.024 
					129.686,444.211 				"/>
			</g>
			<path fill="#4591AC" d="M79.927,434.038l0.026,0.449l14.205,4.076L154,405.519l-13.71-3.831
				C138.863,402.506,80.322,433.839,79.927,434.038z"/>
			<path fill="#A6DDE7" d="M110.189,408.723c-0.998,0.351-7.487,3.313-7.487,3.313s0.961,13.873,1.063,15.151
				c-0.891-0.378,1.492,0.727,2.683,0.575c0.376-0.095,1.938-1.181,1.938-1.181c-0.067-0.607-0.62-10.784-0.71-12.34
				c0,0,1.759-0.951,2.523-1.474c0,0,0.12-0.123,0.183-0.156c1.177-1.121,0.221-3.345,0.221-3.345
				C110.436,409.118,110.327,408.905,110.189,408.723z"/>
			<polygon opacity="0.68" fill="#C8EAF9" points="118.036,450.94 120.156,451.434 131.791,445.024 129.686,444.211 			"/>
		</g>
		<polygon fill-rule="evenodd" clip-rule="evenodd" fill="#213266" points="179.717,494.431 164.131,503.015 164.131,510.797 
			174.971,517.544 206.786,503.318 207.139,495.736 194.62,492.195 		"/>
		<path fill-rule="evenodd" clip-rule="evenodd" fill="#213266" d="M138.861,563.93l-23.475-2.206l-4.879,17.997l2.565,3.434
			l5.122,5.451l43.098-9.38l2.486-5.47l-10.521-11.303C153.258,562.453,139.776,563.93,138.861,563.93z"/>
		<path fill-rule="evenodd" clip-rule="evenodd" fill="#213266" d="M118.122,376.272c0,1.543-2.135,7.972-2.135,7.972l-2.606,26.322
			l53.248,32.826l-3.19,39.894v19.749l11.282,4.398l16.161-12.181l8.149-54.194l-3.682-17.067L118.122,376.272z"/>
		<path fill-rule="evenodd" clip-rule="evenodd" fill="#1F386B" d="M113.381,410.566c0,0,17.856,18.335,22.426,23.753
			c0.658,0.781-2.967,58.397-2.967,58.397l-23.809,80.776c0,0,13.326,7.472,12.684,8.672c0,0,17.22-4.494,19.045-6.737
			l26.047-82.711l12.91-93.585l-66.184-15.376L113.381,410.566z"/>
		<polygon fill-rule="evenodd" clip-rule="evenodd" fill="#1A3F71" points="178.465,316.793 173.658,298.079 132.06,271.935 
			118.728,269.615 107.782,277.616 102.916,298.079 119.179,356.726 111.86,384.695 157.762,410.566 181.11,410.566 
			181.336,395.311 178.537,349.508 		"/>
		<path fill-rule="evenodd" clip-rule="evenodd" fill="#F9A974" d="M138.247,264.809c-0.915,1.015-8.843,12.18-8.843,12.18
			l12.502,12.181l15.855,1.353c0-1.015,2.264-20.907,2.264-20.907S139.161,263.793,138.247,264.809z"/>
		<path fill-rule="evenodd" clip-rule="evenodd" fill="#FFFFFF" d="M144.502,285.129l-13.942-9.823l1.128-1.582l-4.577,1.582
			l-0.535,3.798l16.099,11.814c0,0,15.741,0,16.143,0s-0.98-3.451-0.98-3.451L144.502,285.129z"/>
		<g>
			<polygon fill-rule="evenodd" clip-rule="evenodd" fill="#F9A974" points="142.126,246.11 157.762,278.187 170.519,265.659 
				159.405,231.204 			"/>
			<polygon fill-rule="evenodd" clip-rule="evenodd" fill="#213266" points="158.514,220.939 126.87,227.066 116.342,238.104 
				121.762,257.831 129.506,268.241 131.476,272.124 146.264,280.862 154.165,277.371 156.617,267.485 152.601,256.764 
				154.662,251.574 158.609,256.023 158.666,255.516 159.132,252.816 157.049,244.875 161.976,231.674 			"/>
		</g>
		<g>
			<path fill-rule="evenodd" clip-rule="evenodd" fill="#F9A974" d="M230.156,233.46l-0.606,6.575c0,0-8.228,21.715-8.896,22.356
				l11.971,1.099l10.402-18.889l-8.634-13.397L230.156,233.46z"/>
			<polygon fill-rule="evenodd" clip-rule="evenodd" fill="#FFFFFF" points="224.301,250.901 221.842,258.168 233.525,270.838 
				240.271,257.241 238.555,254.695 			"/>
			<path fill-rule="evenodd" clip-rule="evenodd" fill="#124C7C" d="M222.23,252.684l-17.069,37.344l-43.186,12.115
				c-9.571,5.995-7.122,22.771-7.122,22.771c2.809,4.607,8.08,6.932,16.22,5.205l46.068-19.271l22.46-50.068l-2.305-2.934
				L222.23,252.684z"/>
		</g>
	</g>
</g>
</svg>
