<?xml version="1.0" encoding="UTF-8"?>
<!DOCTYPE svg PUBLIC "-//W3C//DTD SVG 1.1//EN" "http://www.w3.org/Graphics/SVG/1.1/DTD/svg11.dtd">
<!-- Creator: CorelDRAW X6 -->
<svg xmlns="http://www.w3.org/2000/svg" xml:space="preserve" width="135.1mm" height="254.855mm" version="1.1" style="shape-rendering:geometricPrecision; text-rendering:geometricPrecision; image-rendering:optimizeQuality; fill-rule:evenodd; clip-rule:evenodd"
viewBox="0 0 1779 3356"
 xmlns:xlink="http://www.w3.org/1999/xlink">
 <defs>
  <style type="text/css">
   <![CDATA[
    .fil4 {fill:#332C2B}
    .fil18 {fill:#A68845}
    .fil19 {fill:#DAB96B}
    .fil21 {fill:#FEFEFE}
    .fil1 {fill:black}
    .fil7 {fill:#061F38}
    .fil6 {fill:#0D3054}
    .fil9 {fill:#145DAD}
    .fil17 {fill:#1A4A7D}
    .fil8 {fill:#26AFE2}
    .fil12 {fill:#333333}
    .fil16 {fill:#3C98BA}
    .fil14 {fill:#6E4B28}
    .fil13 {fill:#996633}
    .fil11 {fill:#AD967E}
    .fil2 {fill:#B3B3B3}
    .fil0 {fill:#CCCCCC}
    .fil15 {fill:#D47474}
    .fil10 {fill:#E0CDBA}
    .fil5 {fill:#FFEDDB}
    .fil3 {fill:white}
    .fil20 {fill:#B49552}
   ]]>
  </style>
 </defs>
 <rect class="fil0" x="-8711" y="878" width="3912" height="5531"/>
 <path class="fil1" d="M614 661l12 2 12 -2 0 3 410 57c2,84 -48,247 46,272 -184,152 -373,161 -458,162l0 0 -9 0 -2 0 -9 0 0 0c-85,0 -273,-10 -458,-162 94,-26 44,-188 46,-272l410 -57 0 -3z"/>
 <ellipse class="fil2" cx="622" cy="3176" rx="622" ry="181"/>
 <path class="fil3" d="M1092 3174c-6,-28 -65,-108 -216,-164l-163 1 0 123 47 1c95,101 352,130 331,39z"/>
 <path class="fil4" d="M713 3104c87,5 134,103 326,103 17,0 30,-40 54,-21 -3,77 -241,46 -332,-51l-47 -1 0 -31z"/>
 <path class="fil5" d="M1046 1496l-88 72c25,39 125,178 187,182 95,6 189,-250 226,-321l-92 -34c-27,34 -118,227 -146,203 -11,-9 -75,-83 -87,-102z"/>
 <path class="fil5" d="M282 1592l-98 -57c-28,37 -110,177 -80,231 21,37 128,218 172,249l60 -80c-23,-25 -135,-185 -119,-226 5,-13 51,-99 65,-118z"/>
 <path class="fil6" d="M538 3015c0,-172 3,-801 87,-804 84,-4 87,633 87,804 60,0 120,0 180,0 3,-324 66,-901 10,-973 -194,-4 -360,-4 -554,0 -61,124 6,649 10,973l180 0z"/>
 <path class="fil7" d="M334 2092c146,49 374,51 585,1 -4,-24 -9,-42 -16,-51 -194,-4 -360,-4 -554,0 -6,13 -11,30 -15,50z"/>
 <path class="fil8" d="M342 1545c2,-3 4,-6 5,-8l-5 8 0 0zm7 -11c-18,62 -15,146 34,196 8,76 -5,193 -63,352 41,44 569,44 610,0 -57,-159 -71,-276 -63,-352 50,-50 52,-135 34,-197 2,4 5,7 7,11l-1 -2 -24 -36 -5 -246c-104,-49 -404,-49 -507,0l-5 247 -17 26z"/>
 <rect class="fil9" x="615" y="1417" width="29" height="215"/>
 <path class="fil9" d="M349 1534c-18,62 -15,146 34,196 8,76 -5,193 -63,352 6,6 17,11 33,15 98,-382 77,-359 251,-422 -165,46 -257,46 -238,-149 -1,-3 -4,-5 -6,-10l-11 16zm-7 11c2,-3 4,-6 5,-8l-5 8 0 0z"/>
 <path class="fil9" d="M901 1533c18,62 16,147 -34,197 -8,76 5,193 63,352 -6,6 -17,11 -33,15 -98,-382 -77,-359 -251,-422 165,46 257,46 238,-149 1,-3 4,-5 6,-10l17 26 1 2c-3,-4 -5,-8 -7,-11z"/>
 <path class="fil5" d="M536 1088l187 0 15 175c-23,27 -108,165 -108,165 0,0 -83,-133 -109,-165l15 -175z"/>
 <path class="fil10" d="M551 1186c58,21 148,38 177,-32l-2 -29 -193 3 -12 136c5,6 11,12 18,17 6,-35 11,-62 13,-95z"/>
 <path class="fil5" d="M1021 767l0 -216c158,-147 165,185 2,212 -4,1 -4,2 -2,4z"/>
 <path class="fil10" d="M1044 704c5,-27 10,-50 14,-69 1,-4 33,9 34,5 1,-5 -29,-28 -28,-32 13,-50 25,-57 45,-39 -33,-81 -67,36 -66,134z"/>
 <path class="fil10" d="M231 767l0 -216c-158,-147 -165,185 -2,212 4,1 4,2 2,4z"/>
 <path class="fil11" d="M208 704c-5,-27 -10,-50 -14,-69 -1,-4 -33,9 -34,5 -1,-5 29,-28 28,-32 -13,-50 -25,-57 -45,-39 33,-81 67,36 66,134z"/>
 <path class="fil5" d="M630 1184c-2,0 -3,0 -5,0 -2,0 -3,0 -5,0l0 0c-164,-11 -350,-292 -386,-408 -17,-56 -10,-493 -10,-493l396 0 10 0 396 0c0,0 7,437 -10,493 -36,116 -222,397 -386,408l0 0z"/>
 <path class="fil3" d="M712 640c59,-129 126,-95 206,-47 -47,135 -130,86 -206,47z"/>
 <path class="fil12" d="M921 596c6,-1 34,-3 27,-8 -86,-73 -200,-73 -237,52 70,-149 167,-66 210,-44z"/>
 <path class="fil13" d="M746 585c40,-44 83,-36 121,-19 9,16 12,36 5,55 -12,34 -50,52 -84,40 -31,-11 -49,-44 -42,-76z"/>
 <circle class="fil4" transform="matrix(-0.145019 -0.0521327 -0.0521327 0.145019 811.549 601.268)" r="230"/>
 <path class="fil12" d="M921 596l-5 -3c-3,9 -18,66 -67,85 45,-13 62,-54 72,-82z"/>
 <circle class="fil3" transform="matrix(0.0684963 0.0246237 -0.0246237 0.0684963 840.002 599.847)" r="192"/>
 <path class="fil4" d="M896 501c-71,-64 -145,-8 -154,19 34,-24 88,-54 154,-19z"/>
 <path class="fil14" d="M849 652c19,-34 17,-70 -5,-95 8,2 15,5 23,9 9,16 12,36 5,55 -5,13 -13,23 -23,31z"/>
 <path class="fil1" d="M984 391l55 5c113,111 -6,493 -78,579 38,-207 45,-348 23,-583z"/>
 <path class="fil3" d="M559 640c-59,-129 -126,-95 -206,-47 47,135 130,86 206,47z"/>
 <path class="fil12" d="M350 596c-6,-1 -34,-3 -27,-8 86,-73 200,-73 237,52 -70,-149 -167,-66 -210,-44z"/>
 <path class="fil13" d="M525 585c-40,-44 -83,-36 -121,-19 -9,16 -12,36 -5,55 12,34 50,52 84,40 31,-11 49,-44 42,-76z"/>
 <circle class="fil4" transform="matrix(0.145019 -0.0521327 0.0521327 0.145019 459.45 601.268)" r="230"/>
 <path class="fil12" d="M350 596l5 -3c3,9 18,66 67,85 -45,-13 -62,-54 -72,-82z"/>
 <circle class="fil3" transform="matrix(-0.0684963 0.0246237 0.0246237 0.0684963 430.997 599.847)" r="192"/>
 <path class="fil10" d="M574 785c1,-7 110,-7 108,-2 -9,20 -47,35 -57,35 -12,-1 -52,-25 -51,-33z"/>
 <path class="fil10" d="M591 1178c-64,-48 -359,-257 -293,-726 10,-70 -47,-25 -65,-38 -1,-4 -4,177 -4,172 0,58 -6,121 2,173 0,2 1,5 1,7 1,4 1,7 2,9 34,109 201,364 357,403z"/>
 <path class="fil4" d="M375 501c71,-64 145,-8 154,19 -34,-24 -88,-54 -154,-19z"/>
 <path class="fil14" d="M422 652c-19,-34 -17,-70 5,-95 -8,2 -15,5 -23,9 -9,16 -12,36 -5,55 5,13 13,23 23,31z"/>
 <path class="fil7" d="M381 3015c1,-82 -55,-853 -6,-912 0,1 -38,-10 -41,-11 -33,179 22,632 25,923l23 0z"/>
 <path class="fil7" d="M871 3015c-1,-82 55,-853 6,-912 0,1 38,-10 41,-11 33,179 -22,632 -25,923l-23 0z"/>
 <path class="fil5" d="M364 1930c20,68 50,60 93,65 31,4 32,25 7,39 -9,5 -92,-14 -93,-13 -7,9 45,26 79,31 42,6 30,40 -1,39 -28,-1 -88,-26 -86,-22 14,29 86,22 85,47 -2,48 -114,-25 -98,-7 10,11 53,29 53,37 2,49 -134,-33 -132,-133 9,-20 43,-98 93,-84z"/>
 <path class="fil5" d="M1536 1298c13,17 -123,150 -172,142 -78,-12 -120,-69 -96,-111 65,-112 95,-110 110,-94 8,8 -56,47 -39,59 19,13 95,-129 120,-113 24,16 -54,88 -46,103 8,15 65,-111 89,-89 24,23 -70,104 -62,113 8,9 70,-83 87,-65 17,18 -77,92 -68,101 8,9 63,-63 77,-46z"/>
 <path class="fil10" d="M175 1547c24,32 49,66 85,80 5,-8 9,-15 13,-22 -28,-13 -68,-41 -91,-68 -2,3 -4,6 -6,9z"/>
 <path class="fil10" d="M983 1603c6,8 13,17 20,26 26,-23 56,-52 82,-86 -3,-4 -7,-8 -10,-12 -21,27 -61,56 -91,71z"/>
 <path class="fil3" d="M158 3174c6,-28 65,-108 216,-164l163 1 0 123 -47 1c-95,101 -352,130 -331,39z"/>
 <path class="fil4" d="M537 3104c-87,5 -134,103 -326,103 -17,0 -30,-40 -54,-21 3,77 241,46 332,-51l47 -1 0 -31z"/>
 <path class="fil3" d="M612 909c-45,6 -12,4 -39,15 -21,9 -18,-8 -18,36 0,20 17,25 28,36 6,6 50,29 62,25 35,-12 23,-21 48,-39 9,-6 8,-22 15,-27 0,0 17,-43 -9,-34 -3,1 -43,-25 -52,-14 -7,8 -28,0 -35,1z"/>
 <path class="fil15" d="M543 924c4,4 9,9 16,10 56,9 109,3 147,-1 9,-1 16,-7 22,-12 -43,4 -67,-37 -96,-3 -29,-35 -48,8 -89,6z"/>
 <path class="fil15" d="M722 925c-9,153 -177,132 -174,1 2,2 9,7 12,9 37,120 131,73 146,-1 1,-4 15,-8 16,-8z"/>
 <path class="fil3" d="M596 1010c1,-5 18,2 17,6 -1,6 -19,-1 -17,-6z"/>
 <path class="fil3" d="M618 1019c0,-9 31,6 58,-21 -11,24 -58,30 -58,21z"/>
 <path class="fil8" d="M164 1508c3,37 81,94 121,109 23,-43 25,-78 46,-78 0,-10 1,-60 -9,-67 14,8 21,44 26,56 2,-16 14,-73 13,-87 12,31 -1,54 -1,76 0,3 1,5 1,6l12 -20 2 -245c-58,29 -185,193 -212,249z"/>
 <path class="fil9" d="M362 1523c-1,-2 -1,-4 -1,-6 0,-21 13,-45 1,-76 1,13 -12,70 -13,87 -5,-12 -11,-48 -26,-56 10,6 9,57 9,67 -20,0 -23,35 -46,78 8,3 15,4 19,3 7,-27 33,-56 47,-80l10 -17z"/>
 <path class="fil8" d="M1086 1508c-3,37 -81,94 -121,109 -23,-43 -25,-78 -46,-78 0,-10 -1,-60 9,-67 -14,8 -21,44 -26,56 -2,-16 -14,-73 -13,-87 -12,31 1,54 1,76 0,3 -1,5 -1,6l-12 -20 -2 -245c58,29 185,193 212,249z"/>
 <path class="fil9" d="M889 1524c1,-2 1,-4 1,-6 0,-21 -13,-45 -1,-76 -1,13 12,70 13,87 5,-12 11,-48 26,-56 -10,6 -9,57 -9,67 20,0 23,35 46,78 -8,3 -15,4 -19,3 -7,-27 -33,-56 -47,-80l-10 -17z"/>
 <path class="fil1" d="M271 391l-55 5c-113,111 6,493 78,579 -38,-207 -45,-348 -23,-583z"/>
 <path class="fil6" d="M216 396c0,-209 39,-396 414,-396 375,0 414,187 414,396 -276,0 -552,0 -828,0z"/>
 <path class="fil7" d="M1044 396l-828 0c110,138 665,161 825,0 2,-2 1,-2 3,0z"/>
 <rect class="fil16" x="373" y="163" width="504" height="159"/>
 <path class="fil7" d="M284 396c-11,-131 -10,-284 196,-383 -236,45 -264,206 -264,383l68 0z"/>
 <path class="fil17" d="M423 1288l59 -4 139 142 0 -3 -126 -172c2,11 -54,28 -72,36z"/>
 <polygon class="fil9" points="524,1221 632,1433 486,1270 423,1288 482,1217 "/>
 <ellipse class="fil17" cx="674" cy="1458" rx="20" ry="19"/>
 <ellipse class="fil9" cx="678" cy="1455" rx="16" ry="15"/>
 <ellipse class="fil17" cx="674" cy="1569" rx="20" ry="19"/>
 <ellipse class="fil9" cx="678" cy="1566" rx="16" ry="15"/>
 <path class="fil17" d="M838 1288l-59 -4 -139 142 0 -3 126 -172c-2,11 54,28 72,36z"/>
 <polygon class="fil9" points="737,1221 629,1433 775,1270 838,1288 779,1217 "/>
 <polygon class="fil18" points="1410,1187 1779,947 1289,848 1069,900 "/>
 <rect class="fil19" transform="matrix(0.33299 0.0751342 -0 0.494731 1068.66 899.825)" width="1443" height="871"/>
 <rect class="fil20" transform="matrix(-0.160413 0.042243 -0 0.494731 1779.27 947.275)" width="1443" height="871"/>
 <rect class="fil21" transform="matrix(0.883813 0.198142 -0 0.883813 1317.33 991.974)" width="230" height="139"/>
 <polygon class="fil18" points="1406,811 1664,643 1321,574 1167,610 "/>
 <rect class="fil19" transform="matrix(0.232806 0.0525292 -0 0.345886 1167.39 609.659)" width="1443" height="871"/>
 <rect class="fil20" transform="matrix(-0.112151 0.0295337 -0 0.345886 1664.2 642.833)" width="1443" height="871"/>
 <rect class="fil21" transform="matrix(0.617908 0.138529 -0 0.617908 1341.24 674.084)" width="230" height="139"/>
</svg>
