<?xml version="1.0" encoding="utf-8"?>
<!-- Generator: Adobe Illustrator 15.1.0, SVG Export Plug-In . SVG Version: 6.00 Build 0)  -->
<!DOCTYPE svg PUBLIC "-//W3C//DTD SVG 1.1//EN" "http://www.w3.org/Graphics/SVG/1.1/DTD/svg11.dtd">
<svg version="1.1" id="_x23_Layer_1" xmlns="http://www.w3.org/2000/svg" xmlns:xlink="http://www.w3.org/1999/xlink" x="0px"
	 y="0px" width="392.637px" height="586.597px" viewBox="0 0 392.637 586.597" enable-background="new 0 0 392.637 586.597"
	 xml:space="preserve">
<path fill-rule="evenodd" clip-rule="evenodd" fill="#C7C0C7" stroke="#000000" stroke-width="1.0001" stroke-linecap="round" stroke-miterlimit="2.6131" d="
	M210.018,48.181c0,9.142,0.677,9.818-1.693,17.944c-2.37,8.125-8.126,19.298-8.126,19.298l2.37,3.047c0,0,15.913-1.693,23.7-6.095
	c7.787-4.401,20.314-0.677,24.715-3.724c4.401-3.047,20.653-7.11,24.716-7.787c4.063-0.677,12.527,1.693,16.929-0.677
	c4.401-2.37,7.109-5.756,7.109-5.756s-3.386-8.803-3.386-13.543s-2.708-17.944-2.708-17.944s-18.622,0.677-26.07,3.386
	s-24.038,7.11-30.132,7.787S209.34,48.52,210.018,48.181z"/>
<path fill-rule="evenodd" clip-rule="evenodd" fill="#FEC387" stroke="#000000" stroke-width="1.0001" stroke-linecap="round" stroke-miterlimit="2.6131" d="
	M294.66,34.3c-2.592,6.281,2.441,18.715,0.678,20.653c0.526-0.323,11.423-5.424,11.511-5.417c5.884,0.464,16.743-6.503,20.314-6.8
	c17.318-1.442,6.287,4.542,25.982-6.152c6.313-3.428,14.206,4.643,19.135,8.097c8.646,6.059-2.918-9.892-6.404-12.866
	c-7.092-6.049,6.655-7.729,6.655-6.656c5.489,0,15.255,3.744,17.519,2.622c6.149-3.049-3.237-5.425-3.27-5.446
	c-6.509-4.265-16.014-0.336-15.235-6.655c2.074-16.85-3.642-8.66-5.446-8.803c-3.152-12.266-9.409-3.062-9.48-3.047l-11.173,0.338
	c0,0-2.708,4.74-3.724,7.11s-6.433,2.031-10.157,5.755c-3.724,3.724-10.496,6.433-15.235,9.48
	C311.588,29.56,296.691,32.945,294.66,34.3z"/>
<path fill-rule="evenodd" clip-rule="evenodd" fill="#FEC387" stroke="#000000" stroke-width="1.0001" stroke-linecap="round" stroke-miterlimit="2.6131" d="
	M159.909,97.612c10.72,3.266,16.354,20.823,23.139,8.126c2.912-5.449,8.104-0.528,3.357-7.197c-2.863-4.022,5.38,0.144,6.229-0.706
	c5.568-5.571-0.328-2.206,7.478-2.428c5.629-0.16,2.253-1.587,3.444-10.999c1.153-9.118,7.513-10.268,9.538-22.655
	c1.23-7.524,2.745-9.823-0.619-17.973c-1.742-4.219-3.034-3.728-5.166-7.449c-8.803-1.693-19.975-5.078-34.534,0.339
	s-29.456,13.543-33.857,20.314c-4.401,6.771-8.465,10.157-11.512,13.204c-3.047,3.047-12.527,6.094-12.527,6.094
	s1.016,6.433,5.079,13.543s14.559,21.33,17.267,22.684c2.708,1.354,7.11,1.016,6.094-1.693c-1.016-2.708-3.047-4.74-1.016-7.11
	C144.335,101.337,157.201,96.935,159.909,97.612z"/>
<path fill-rule="evenodd" clip-rule="evenodd" fill="#623114" stroke="#000000" stroke-width="1.0001" stroke-linecap="round" stroke-miterlimit="2.6131" d="
	M184.963,12.631c-6.134-1.759-2.196-0.677-7.449-0.677c0-2.991-20.609,6.458-21.33,6.771c-24.291,9.929-12.982,29.506-25.982,45.736
	c-2.543,3.175,5.624-0.5,5.697,2.708c0.205,8.961,2.173,2.137,10.157-0.029c9.769-2.649,10.854-8.701,12.247-9.393
	c7.953-3.949,11.451,9.629,8.464,14.559c-0.458,0.757,1.71,10.652,7.022-6.52c0.666-2.154,0.993-2.104,2.96-5.166
	c0.725-1.127,3.356-3.637,3.473-3.976c2.134-0.549,4.841-2.776,5.756-4.74c3.207-0.356,10.537,4.625,10.97,2.679
	c0.052,0.044,7.939,3.713,9.683-1.325c0.428,1.237,3.165,2.031,4.401,2.031c0-0.473,3.29-4.198,4.827-1.103
	c2.134,4.296,7.539-1.049,7.362-3.299c0.018,0,2.934-1.178-0.029-2.931c-8.413-4.978-15.031-33.431-27.057-32.957
	C194.919,15.049,186.428,12.741,184.963,12.631z"/>
<path fill-rule="evenodd" clip-rule="evenodd" fill="none" stroke="#000000" stroke-width="1.0001" stroke-linecap="round" stroke-miterlimit="2.6131" d="
	M207.394,71.289c-2.994-1.644-4.914-5.764-6.094-5.925c-0.008-0.052-3.509-2.609-4.174-3.275c-0.529-0.529-2.062-1.418-2.937-1.126
	c4.552,0.142,3.152-0.146,7.236,2.075C205.396,65.196,207.394,67.123,207.394,71.289z"/>
<path fill-rule="evenodd" clip-rule="evenodd" fill="none" stroke="#000000" stroke-width="1.0001" stroke-linecap="round" stroke-miterlimit="2.6131" d="
	M193.512,68.75c3.402-1.061,7.824,5.055,10.326,2.965c0.155,0.129,0.137,0.098,0.338,0.082l-0.169,0.339"/>
<path fill-rule="evenodd" clip-rule="evenodd" fill="none" stroke="#000000" stroke-width="1.0001" stroke-linecap="round" stroke-miterlimit="2.6131" d="
	M197.744,70.95c-4.865,4.255,2.721,5.982,1.679,0.861C199.203,70.732,198.371,70.402,197.744,70.95z"/>
<path fill-rule="evenodd" clip-rule="evenodd" fill="none" stroke="#000000" stroke-width="1.0001" stroke-linecap="round" stroke-miterlimit="2.6131" d="
	M195.713,93.973c-1.583-0.716-2.522-1.856-2.54-1.862"/>
<path fill-rule="evenodd" clip-rule="evenodd" fill="#C7C0C7" stroke="#000000" stroke-width="1.0001" stroke-linecap="round" stroke-miterlimit="2.6131" d="
	M142.812,105.907c-0.931-3.543-1.201,1.558,0.041,3.514c0.941,1.483,0.656,9.255-7.347,1.252c-3.347-3.347-5.388-4.815-8.479-9.098
	c-2.181-3.022-6.303-7.909-7.323-11.173c-0.73-2.339-5.093-12.844-4.416-13.756c0.527-0.71,9.729-4.098,10.341-5.867
	c2.195-0.28,4.571-5.253,4.571-7.449c0.404-0.093,0.999-0.747-0.254-0.423c-6.433,3.725-16.251,3.386-22.684,6.771
	s-15.913,9.142-23.7,19.976c-7.787,10.834-14.22,20.652-19.637,26.747s-7.449,5.756-8.464,12.188
	c-1.016,6.433-3.385,8.464-6.433,21.668c-3.047,13.205-10.496,24.039-13.881,35.211s-3.724,10.157-5.079,18.622
	c-1.354,8.464-1.016,11.511-3.386,14.22c-2.37,2.708-3.724,6.094-4.74,12.527c-1.016,6.433,2.37,6.434,1.016,10.496
	c-1.354,4.063-5.079,4.401-6.094,8.125c-1.016,3.724,2.031,8.803,2.031,8.803s24.716,11.85,30.133,11.173s33.18,4.063,37.581,3.047
	s23.022-13.204,25.731-16.928c2.708-3.724,35.211-1.693,40.628,0c5.417,1.693,19.976,2.032,24.039,1.016
	c4.063-1.016,8.803-2.37,8.803-2.37s2.031-11.173,1.693-13.882c-0.339-2.708-3.725-13.543-4.74-15.235
	c-1.016-1.693,0.339-0.339-3.047-2.709c-3.386-2.37-22.007-7.11-26.747-15.574c-4.74-8.464-9.48-13.882-8.803-18.283
	s2.37-16.928,2.708-22.684c0.338-5.756,0.338-15.575,0-18.96c-0.339-3.386-2.708-6.771-2.708-11.172
	c0-4.402,1.016-14.22,1.016-17.267C145.182,115.387,142.812,105.907,142.812,105.907z"/>
<path fill-rule="evenodd" clip-rule="evenodd" fill="none" stroke="#000000" stroke-width="1.0001" stroke-linecap="round" stroke-miterlimit="2.6131" d="
	M115.896,121.481c-6.783,0.399-20.388,24.56-19.976,34.196c0.303,7.082-1.215,5.037,1.267,15.013
	c3.081,12.38,5.122,16.774,8.494,27.792c2.199,7.186-0.775,31.59,2.002,35.492c0.088,0.124,0.876,8.922,5.166,10.409"/>
<path fill-rule="evenodd" clip-rule="evenodd" fill="#FEC387" stroke="#000000" stroke-width="1.0001" stroke-linecap="round" stroke-miterlimit="2.6131" d="
	M185.641,232.194c1.304-3.913,6.59-4.91,10.408-4.092c0.667-2.369,13.347,3.896,16.677,3.753c9.099-0.389,18.856,14.41,7.11,9.567
	c-6.689-2.758-32.165,5.009-31.738,3.976c0.213-0.517-0.087-5.624-0.087-6.771C187.718,238.627,185.213,233.479,185.641,232.194z"/>
<path fill-rule="evenodd" clip-rule="evenodd" fill="#FFCC9A" stroke="#000000" stroke-width="1.0001" stroke-linecap="round" stroke-miterlimit="2.6131" d="
	M239.474,233.209c-0.415-0.444-0.754-4.631-0.764-4.653c-3.965-7.984,2.175-15.979,3.047-21.813
	c1.094-7.314-3.859-33.248,14.308-32.783l8.918,0.222c4.703,0.117,10.081-0.293,13.176-1.828
	c5.259-2.609,11.737-19.943,15.062-26.921c3.958-8.31,16.761-30.384,14.559-38.568c-1.545-5.739,10.496-22.247,13.407-28.721
	c2.964-6.592,8.042-14.292,12.634-20.401c24.471-32.559,0.528-24.295,6.21-44.604c1.558-0.255,7.787-4.142,7.787,3.725
	c1.106,0.383,1.253,2.944,2.708,4.401c0-0.113,2.253,0.311,3.048,0.677c0-0.113,4.767-3.465,6.181-2.457
	c5.515,3.93,11.912,1.479,2.709,14.394c-2.987,4.192-18.564,38.079-19.076,42.234c-1.012,8.226-6.286,18.044-7.391,29.707
	c-1.347,14.228-9.702,11.007-14.839,24.493c-2.268,5.954-9.765,25.525-10.215,31.12c-0.839,10.422-3.35,25.559-9.509,34.195
	c-0.521,0.729-0.947,1.459-1.016,2.37c-0.494,1.716-0.309,6.094,2.369,6.094c-0.066,0,9.341,4.833,13.766,9.257
	c6.991,6.992,8.523,13.427,22.123,13.427c0.005,0.013,1.97,2.694,2.031,2.708c0.402,0.984,1.704,5.225,2.031,5.417
	c0,3.76,1.312-2.541-0.028,4.034c-0.779,3.822,1.383-1.491,1.383,5.446c0,5.309,13.51,0.618,4.518,10.612
	c-6.849,7.611-1.385,21.454-2.824,30.017c-1.295,7.698-15.563,10.061-23.361,7.197c-3.512-1.289-15.244-7.206-17.354-5.62
	c-11.323,8.508-3.941,13.033-5.33,21.445c-0.046,0.279,1.504,21.677,1.354,26.38c-0.052,1.627,1.467,11.104,2.37,12.218
	c0.902,1.113,1.404,1.822,2.031,3.047s3.644,7.307,4.827,10.495c1.183,3.189,0.995,4.452,1.944,6.433
	c0.948,1.981,4.089,8.317,6.713,8.861c0.047,0.225,10.965,2.461,13.011,3.918c4.873,3.472-2.652,2.796-4.826,2.796
	c-0.261,0-6.051-1.324-9.649-1.017c-1.523,0.972-4.232-2.821-3.556,1.693c0.413,0,2.045,7.569,4.688,10.21
	c1.816,1.816,6.377,12.233-0.74,6.157c-0.651-0.556-2.996-2.801-5.3-5.852c-3.115-4.128-6.299-9.311-6.435-9.839
	c-2.91-1.008-1.94-4.04-0.986,5.843c0.375,3.892,6.921,21.128,6.912,21.243c-3.753-0.625-5.876-2.141-8.465-7.816
	c-0.042-0.092-6.801-29.68-7.589-20.623c-0.58,6.666,2.14,23.4,1.268,25.054c-1.347,2.554-4.936-7.276-6.375-12.02
	c-1.439-4.742-1.923-9.682-1.692-15.066c0.176-4.131-2.299-15.46-9.229-11.26c-0.103,0.063-15.487,2.48-15.487,0.087
	c0-1.97,10.729-4.048,13.514-5.871c5.777-3.784,9.763-15.543,8.832-17.151s-6.856-13.458-7.025-15.32s-5.925-9.649-7.448-15.235
	s-1.185-14.559-1.693-19.468c-0.508-4.909-0.338-6.603-0.677-10.665s-4.401-15.067-5.078-18.96
	c-0.678-3.894-4.063-15.066-5.079-15.913c-1.016-0.847-2.2-5.078-8.634-7.787c-6.433-2.709-11.003-3.894-11.342-4.909
	S239.389,233.125,239.474,233.209z"/>
<path fill-rule="evenodd" clip-rule="evenodd" fill="#971A1E" stroke="#000000" stroke-width="1.0001" stroke-linecap="round" stroke-miterlimit="2.6131" d="
	M260.888,211.457c-3.047,0.169-14.559,2.708-17.267,6.94c-2.709,4.232-4.063,9.48-3.386,13.881c0.677,4.402,1.016,6.771,1.016,6.771
	s-5.079-0.677-8.634-2.54c-3.555-1.862-16.928-5.078-21.499-5.755s-8.633-2.37-13.374-2.539s-10.665,1.016-12.019,1.185
	c-1.354,0.169-1.862-3.386-3.216-5.079c-1.354-1.693-5.079-4.063-7.957-4.232c-2.877-0.169-10.665,0.338-12.865-1.693
	c-2.201-2.031-5.586-1.185-7.618-4.063c-2.031-2.877-3.385-6.602-4.909-7.11c-1.524-0.508-4.91-0.847-5.417-2.201
	s1.016-3.893,1.185-5.417c0.169-1.523-0.169-12.866-0.169-12.866s5.586-1.862,9.988-3.047c4.401-1.185,20.146-4.063,26.747-5.079
	c6.602-1.016,18.114-3.725,19.807-4.232c1.693-0.507,8.972-2.031,12.358-3.555c3.385-1.523,7.448-4.571,11.172-7.449
	c3.725-2.877,8.972-4.909,12.358-3.386c3.385,1.524,9.988,2.878,15.236,6.602c5.247,3.724,15.404,8.126,15.404,8.126
	s-7.109-2.708-10.834,1.523s-5.587,6.263-3.555,13.374c2.031,7.11,2.369,7.787,4.231,12.358c1.863,4.571,5.249,5.586,5.249,6.602
	s-1.354,2.37-1.354,2.37L260.888,211.457z"/>
<path fill-rule="evenodd" clip-rule="evenodd" fill="none" stroke="#000000" stroke-width="1.0001" stroke-linecap="round" stroke-miterlimit="2.6131" d="
	M267.66,175.229c2.201,0.508,6.264,3.385,9.311,5.248c3.048,1.862,10.326,4.91,13.712,6.602c3.386,1.693,7.618,5.079,8.295,7.957
	c0.678,2.877,1.016,6.094,1.016,6.094"/>
<path fill-rule="evenodd" clip-rule="evenodd" fill="none" stroke="#000000" stroke-width="1.0001" stroke-linecap="round" stroke-miterlimit="2.6131" d="
	M262.92,208.917c1.354,2.878,6.264,6.771,9.479,9.649s7.787,3.217,10.665,5.417c2.878,2.201,7.617,4.063,8.633,9.311
	c1.017,5.248,1.862,11.68,2.37,13.035s-2.369-5.755-3.894-10.326c-1.523-4.571-3.216-6.433-5.925-8.464s-9.142-4.232-10.834-5.586
	s-8.295-6.941-9.311-8.634s-3.386-1.693-3.386-1.693S262.582,209.086,262.92,208.917z"/>
<path fill-rule="evenodd" clip-rule="evenodd" fill="none" stroke="#000000" stroke-width="1.0001" stroke-linecap="round" stroke-miterlimit="2.6131" d="
	M298.639,196.39c-2.204,3.604,1.576,4.158-3.894,8.015c-0.337,0.237-0.552,0.493-0.847,0.788"/>
<path fill-rule="evenodd" clip-rule="evenodd" fill="none" stroke="#000000" stroke-width="1.0001" stroke-linecap="round" stroke-miterlimit="2.6131" d="
	M291.19,210.271c1.962,2.173-0.896,8.18-0.213,13.204c0.1,0.731,0.044,1.933,0.044,2.708"/>
<path fill-rule="evenodd" clip-rule="evenodd" fill="#FDED99" stroke="#000000" stroke-width="1.0001" stroke-linecap="round" stroke-miterlimit="2.6131" d="
	M310.658,262.581c-1.397,4.994-13.754-1.467-6.036-10.621c1.563-1.854-4.02-7.741-10.384-7.154c-0.451,0.042-0.325,0.064,0,0.846
	c0,6.777,0.812,10.722,1.016,16.716c0.261,7.653,0.186,15.469-0.522,23.023c-0.533,5.686,1.973,13.24,3.443,18.79l0.295,0.721
	c1.004,3.746,1.15,2.141,1.679,6.434c0.164,1.33,0.589,5.026,0.89,5.896c0.013,0.003,0.648,2.8,0.648,3.076
	c-1.088,0,0.847,19.37,0.847,20.822c0.207,0,0.71,7.609,2.2,8.125c-0.038,0.443,1.201,0.955,1.813,2.046
	c1.091-2.254,1.235-4.281,1.235-7.124c0-1.498,3.386-5.927,3.386-11.003c0,2.135,0.815,3.68,0.677,7.743
	c-0.17,4.99,0.107,5.077-0.522,10.2c-0.039,0.325-0.741,5.465-0.806,9.149c0.276,0.648,0.502,1.273,0.65,1.854
	c0.066,0.256,0.476-2.24,0.692-2.583c2.388-3.774,3.879-13.208,3.879-17.73c-1.354,7.434-0.443,16.834,1.142,23.699
	c0.287,1.247,0.597,5.557,1.088,7.928c0.013,0.003,0.16,0.479,0.373,0.936c0.312,0.065,0.695,0.142,1.179,0.241
	c0.291-0.83,0.532-2.659,0.62-6.227c0.024-0.968,0.068-11.371,0.085-11.342c2.178,3.855,5.668,14.04,5.332,18.113
	c-0.07,0.858,0.856,1.974,1.058,3.314c0.442-0.028,0.981,1.024,0.466-1.453c-0.516-2.477,0.847-6.771,0-13.881
	c-0.847-7.109-3.386-11.85-0.677-19.468c2.708-7.617,5.078-10.665,6.602-15.743c1.524-5.079,5.248-6.095,4.402-11.342
	c-0.847-5.248,1.185-14.39,2.369-18.791c1.186-4.401,3.217-4.57,4.909-6.433c1.693-1.862,2.54-7.956,2.201-10.665
	s-1.186,1.693-3.725,2.709s-8.803-0.509-11.85-1.186s-6.94-1.862-12.02-4.909c-5.078-3.047-6.94-5.078-8.125-7.618
	C309.981,267.151,310.658,262.581,310.658,262.581z"/>
<path fill-rule="evenodd" clip-rule="evenodd" fill="none" stroke="#000000" stroke-width="1.0001" stroke-linecap="round" stroke-miterlimit="2.6131" d="
	M333.766,284.334c-0.247,2.798-2.791,8.04-5.756,8.803"/>
<path fill-rule="evenodd" clip-rule="evenodd" fill="none" stroke="#000000" stroke-width="1.0001" stroke-linecap="round" stroke-miterlimit="2.6131" d="
	M340.875,286.365c-1.086,4.261-2.022,3.707-3.047,5.756"/>
<path fill-rule="evenodd" clip-rule="evenodd" fill="none" stroke="#000000" stroke-width="1.0001" stroke-linecap="round" stroke-miterlimit="2.6131" d="
	M317.175,288.735c-11.088,7.274-11.104,29.047-4.488,38.936c1.475,2.203,2.457,10.862,2.457,13.543"/>
<path fill-rule="evenodd" clip-rule="evenodd" fill="none" stroke="#000000" stroke-width="1.0001" stroke-linecap="round" stroke-miterlimit="2.6131" d="
	M326.656,291.444c-6.229,8.498-8.854,22.651-4.653,32.841c2.151,5.216,3.299,9.839,3.299,16.59"/>
<path fill-rule="evenodd" clip-rule="evenodd" fill="none" stroke="#000000" stroke-width="1.0001" stroke-linecap="round" stroke-miterlimit="2.6131" d="
	M337.406,262.412c2.317,1.847,4.289,2.2,7.787,2.2c0-0.711,0.951,1.342,1.199,1.287c0-0.14-1.757-3.179-1.171-0.638
	c0.056,0.011-1.748-1.391-1.383,0.029c-1.243-1.242-0.748-0.338-2.709-0.338"/>
<path fill-rule="evenodd" clip-rule="evenodd" fill="none" stroke="#000000" stroke-width="1.0001" stroke-linecap="round" stroke-miterlimit="2.6131" d="
	M343.331,261.719c-1.653,0.271-1.759,1.312-2.37,1.523c0,1.119,3.386,2.528,3.386-0.677
	C343.983,262.565,344.422,261.54,343.331,261.719z"/>
<path fill-rule="evenodd" clip-rule="evenodd" fill="none" stroke="#000000" stroke-width="1.0001" stroke-linecap="round" stroke-miterlimit="2.6131" d="
	M334.104,227.116c-6.391,2.404-17.684,10.452-20.313,16.928"/>
<path fill-rule="evenodd" clip-rule="evenodd" fill="#010302" stroke="#000000" stroke-width="1.0001" stroke-linecap="round" stroke-miterlimit="2.6131" d="
	M19.404,259.11c-1.016,9.48-4.063,24.716-4.063,36.565c0,11.851,2.37,24.038,8.464,31.825c6.094,7.788,31.825,28.778,38.597,36.566
	c6.771,7.787,24.377,14.896,32.503,20.652s19.298,13.204,18.96,19.299c-0.338,6.094-10.496,18.621-11.85,21.668
	c-1.354,3.048-10.157,20.991-9.48,23.361s6.433,3.386,4.063,10.496c-2.37,7.109-8.464,15.574-14.559,20.991
	c-6.094,5.417-11.172,4.74-13.542,10.834c-2.37,6.095-2.37,14.897-8.464,24.716s-19.637,23.361-22.685,28.439
	c-3.047,5.079-5.417,9.818-5.417,9.818s20.653-0.338,25.054,0.678s12.188,3.386,18.96-0.339
	c6.771-3.725,18.621-10.157,24.377-11.512c5.756-1.354,13.205-7.786,16.59-7.109c3.386,0.677,4.401-2.37,8.126-12.865
	c3.724-10.496,2.708-17.606,12.188-28.44s9.818-11.173,14.559-18.96c4.74-7.787,3.047-9.479,6.771-14.22
	c3.724-4.74,7.448-11.173,7.448-11.173s15.913,11.173,17.605,17.267c1.693,6.095,4.063,8.465,6.094,9.48s14.559,18.96,17.944,28.439
	c3.386,9.48,18.96,33.857,21.668,41.306s9.48,18.283,9.819,23.7c0.338,5.417,4.401,4.063,4.401,4.063s9.142-7.109,15.913-10.834
	s27.763-10.496,32.503-11.512c4.739-1.016,8.126-4.401,6.771-6.094c-1.354-1.693-6.434-8.126-5.418-11.512
	c1.017-3.386,2.031-8.125-1.016-9.141c-3.047-1.017-5.417,3.385-8.464-1.354c-3.047-4.74-8.803-5.079-10.157-9.142
	c-1.354-4.063-5.756-9.819-8.126-15.913c-2.369-6.094-7.787-11.511-13.204-17.605c-5.417-6.094-16.59-21.669-19.298-25.055
	s-2.37-5.417-5.755-6.094s-8.465-4.401-11.173-10.495c-2.709-6.095-11.85-18.622-14.897-22.346
	c-3.047-3.725-22.007-17.268-28.44-23.023c-6.433-5.755-20.653-21.668-26.07-28.101c-5.417-6.434-13.882-18.621-19.299-25.055
	c-5.417-6.433-18.283-36.904-24.377-46.046c-6.094-9.141-25.054-27.424-25.054-27.424s-25.392-3.047-30.81-3.386
	C41.749,264.189,18.727,259.788,19.404,259.11z"/>
<path fill-rule="evenodd" clip-rule="evenodd" fill="#971A1E" stroke="#000000" stroke-width="1.0001" stroke-linecap="round" stroke-miterlimit="2.6131" d="
	M112.849,245.906c-3.386,4.74-7.448,12.866-11.173,15.574s-9.819,5.756-13.205,6.094s-10.834,1.016-10.834,1.016
	s-14.22,14.558-21.33,19.976c-7.11,5.417-20.652,14.559-23.361,18.96s-2.371,8.464-3.725,11.85s-3.386,6.094-1.016,5.417
	s44.353-4.401,50.108-4.74c5.755-0.338,27.763-3.047,29.456-1.354c1.693,1.692,14.22,17.267,16.928,23.022
	s15.913,15.235,18.96,19.976s23.361,25.393,23.361,25.393s9.819-2.031,8.464-5.756s-1.016-9.479-1.016-11.173
	c0-1.692,0.678-7.448-0.677-16.251s-5.079-26.408-5.756-35.55c-0.677-9.142-4.401-14.22-2.37-18.283
	c2.032-4.063,10.496-13.881,11.173-21.668c0.677-7.788,0-15.913,0-15.913l-0.338-6.094c0,0-10.157-1.354-16.59-2.708
	s-18.621-2.031-22.684-3.047S112.849,246.245,112.849,245.906z"/>
<path fill-rule="evenodd" clip-rule="evenodd" fill="#96171C" stroke="#000000" stroke-width="1.0001" stroke-linecap="round" stroke-miterlimit="2.6131" d="
	M193.768,374.224c-4.388-4.153-21.642,4.114-12.953,13.205c8.971,9.386,10.348,15.421,20.653,23.022
	c8.086,5.965,1.571,12.354,17.441,20.228c3.324,1.648,6.087,13.039,7.023,16.677c2.334,0,0.648,0.892,1.664-4.092
	c2.234-10.969,3.837-12.907-1.268-24.01c-3.564-7.752-20.417-14.347-23.419-25.422c-0.182-0.67-2.37-12.052-2.37-12.159
	c-1.027,0-2.062-6.359-5.417-6.095C195.122,375.466,194.376,374.801,193.768,374.224z"/>
<path fill-rule="evenodd" clip-rule="evenodd" fill="#040404" stroke="#000000" stroke-width="1.0001" stroke-linecap="round" stroke-miterlimit="2.6131" d="
	M199.523,379.642c15.052,3.576,13.117-1.141,24.657-5.137c0.023-0.11,8.478,6.829,0.735,6.829c-2.767,0-18.79,4.076-18.96,4.063
	c0.004,0.051-2.359,9.344-1.354,12.526C201.704,395.255,198.372,379.368,199.523,379.642z"/>
<path fill-rule="evenodd" clip-rule="evenodd" fill="#FFCD9A" stroke="#000000" stroke-width="1.0001" stroke-linecap="round" stroke-miterlimit="2.6131" d="
	M51.229,306.172c-6.094,5.756-13.881,11.173-19.298,17.944c-5.417,6.771-10.157,17.943-16.59,30.471S4.507,376.256,2.137,384.72
	c-2.37,8.465-2.37,16.929,1.354,20.652c3.724,3.725,28.101,5.756,34.196,5.418c6.094-0.339,36.565,0.677,44.353-1.016
	c7.787-1.693,32.503-6.434,43.337-7.449s22.685-5.078,30.472-2.37c7.787,2.709,28.778,9.142,32.841,12.188
	c4.063,3.048,18.622,10.835,18.622,10.835c11.062-17.736,5.704-11.766-4.286-23.478c-6.872-8.058-6.372-15.81-17.044-17.122
	c-6.907-0.85-12.188,2.003-14.22,1.325c-2.031-0.677-30.81,1.354-37.581-1.354c-6.771-2.708-32.165-10.834-39.613-10.834
	s-19.976-0.678-28.439,1.016c-8.464,1.692-16.59,6.433-16.59,6.433s6.095-6.771,16.59-16.59s18.96-17.943,26.07-26.069
	s16.251-17.605,16.251-17.605s-5.756-18.283-10.157-20.992c-4.401-2.708-13.543-9.818-22.007-6.771
	C67.819,293.983,54.954,302.447,51.229,306.172z"/>
<path fill-rule="evenodd" clip-rule="evenodd" fill="none" stroke="#000000" stroke-width="1.0001" stroke-linecap="round" stroke-miterlimit="2.6131" d="
	M114.542,405.373c5.756,3.386,14.559,13.204,18.283,14.559c3.724,1.354,9.48,6.771,13.543,10.834
	c4.063,4.063,14.22,15.574,14.22,15.574l5.417,4.063"/>
<path fill-rule="evenodd" clip-rule="evenodd" fill="#FDCE9A" stroke="#000000" stroke-width="1.0001" stroke-linecap="round" stroke-miterlimit="2.6131" d="
	M172.183,456.073c1.862,5.926,5.925,17.606,8.972,24.716c3.047,7.11,11.172,18.283,14.558,25.563s10.158,22.345,11.173,24.715
	s3.555,10.327,3.555,15.575c0,5.247-0.338,13.881-0.508,15.065c-0.169,1.186,3.385,7.279,5.248,7.449
	c1.863,0.169,8.126-0.339,8.803-3.048c0.677-2.708,1.015-12.188,2.201-14.22c1.185-2.031,0.846-6.094,0.677-7.448
	c-0.169-1.354-5.417-12.696-7.109-15.574c-1.693-2.878-8.464-16.421-9.48-17.605c-1.016-1.186-6.941-14.897-9.311-18.622
	c-2.37-3.724-6.433-10.664-7.448-12.865c-1.016-2.2-3.894-1.354-5.248-3.217c-1.354-1.861-3.386-7.956-5.079-10.495
	s-8.634-10.326-8.634-10.326S172.691,454.72,172.183,456.073z"/>
<path fill-rule="evenodd" clip-rule="evenodd" fill="#9A191D" stroke="#000000" stroke-width="1.0001" stroke-linecap="round" stroke-miterlimit="2.6131" d="
	M208.241,560.691c-1.185,5.925-3.555,10.496-6.094,12.188c-2.539,1.693-8.633,4.401-11.342,5.417
	c-2.709,1.016-4.571,1.186-4.232,2.709s4.232,2.878,8.295,3.724c4.063,0.847,14.389,2.201,17.437,0.678s8.633-3.217,11.003-7.787
	s3.216-6.434,3.555-11.512c0.339-5.078-0.168-9.311,0.508-11.003c0.677-1.693,2.539-5.756,2.539-5.756l-3.555-5.925
	c0,0-0.677,5.248-1.016,9.479c-0.338,4.232,0.847,10.665-1.354,11.851c-2.201,1.185-4.909,2.539-7.279,0.846
	C214.335,563.908,208.41,560.691,208.241,560.691z"/>
<path fill-rule="evenodd" clip-rule="evenodd" fill="#050003" stroke="#000000" stroke-width="1.0001" stroke-linecap="round" stroke-miterlimit="2.6131" d="
	M207.056,566.616c1.862,1.693,6.941,7.11,9.649,7.449c2.708,0.338,6.94,1.692,6.94,1.692s-7.618,8.295-8.972,8.295
	c-1.354,0-5.925-3.217-7.449-5.248s-3.386-6.263-3.386-6.263S207.225,567.125,207.056,566.616z"/>
<path fill-rule="evenodd" clip-rule="evenodd" fill="#1D1B20" stroke="#000000" stroke-width="1.0001" stroke-linecap="round" stroke-miterlimit="2.6131" d="
	M244.553,575.673c1.016,5.079,5.755,9.142,12.865,9.142s26.408-0.677,26.408-0.677s7.11-6.433,13.543-6.095
	c6.433,0.339,10.157,6.771,10.157,6.771s17.267-1.016,23.022-1.354c5.756-0.338,17.944-0.338,21.669-2.031
	c3.724-1.692,7.11-2.708,6.771-5.756c-0.339-3.047-3.725-11.511-8.465-13.542c-4.739-2.031-10.495-1.354-14.559-1.354
	c-4.063,0-8.803-1.693-15.912-6.095c-7.11-4.401-13.543-8.125-18.622-8.803c-5.078-0.677-8.125,2.37-14.22,5.079
	c-6.094,2.708-13.881,3.047-21.33,7.787c-7.448,4.739-11.173,7.787-13.881,10.156C249.292,571.271,244.214,576.351,244.553,575.673z
	"/>
<path fill-rule="evenodd" clip-rule="evenodd" fill="none" stroke="#000000" stroke-width="1.0001" stroke-linecap="round" stroke-miterlimit="2.6131" d="
	M252.001,576.351c6.433,0.338,27.086,0.677,33.857,0c6.771-0.678,25.054-0.339,31.486,0.338c6.433,0.678,28.44,1.017,32.842-0.338"
	/>
<path fill-rule="evenodd" clip-rule="evenodd" fill="#1D1B20" stroke="#000000" stroke-width="1.0001" stroke-linecap="round" stroke-miterlimit="2.6131" d="
	M47.255,555.486c-0.375,3.563,1.313,10.875,1.875,13.5c0.563,2.625,0.188,7.876,0.563,9.375c0.375,1.5,6.563,3.563,11.25,3.563
	c4.687,0,17.25,0.75,20.813,0.563c3.563-0.188,9.75-1.688,9.75-1.688s3.375-7.5,5.25-9.188c1.875-1.688,7.688-0.375,10.688-1.125
	s10.688-4.5,16.5-7.125c5.812-2.625,13.125-7.125,13.875-8.25c0.75-1.125,0.938-4.5-0.938-6.75s-5.813-6.375-7.313-6.75
	c-1.5-0.375-5.625,0.75-8.813,0.938c-3.187,0.188-3,0.375-3.937-0.938c-0.938-1.313-1.875-6.188-4.688-6
	c-2.813,0.188-9.375-0.75-14.062,3.75c-4.688,4.5-9.75,9.938-14.625,12c-4.875,2.063-11.25,6.75-15.938,6
	C62.817,556.611,47.255,555.861,47.255,555.486z"/>
<path fill-rule="evenodd" clip-rule="evenodd" fill="none" stroke="#000000" stroke-width="1.0001" stroke-linecap="round" stroke-miterlimit="2.6131" d="
	M52.13,571.049c5.063,2.063,10.875,3.376,16.688,3.188c5.813-0.188,14.25-0.375,17.25-1.875c3-1.5,6-2.438,10.5-4.875
	s14.063-5.063,19.125-7.125c5.062-2.063,15.188-5.625,17.813-7.5"/>
</svg>
