<?xml version="1.0" encoding="utf-8"?>
<!-- Generator: Adobe Illustrator 16.0.0, SVG Export Plug-In . SVG Version: 6.00 Build 0)  -->
<!DOCTYPE svg PUBLIC "-//W3C//DTD SVG 1.1//EN" "http://www.w3.org/Graphics/SVG/1.1/DTD/svg11.dtd">
<svg version="1.1" id="Layer_1" xmlns="http://www.w3.org/2000/svg" xmlns:xlink="http://www.w3.org/1999/xlink" x="0px" y="0px"
	 width="20px" height="20px" viewBox="0 0 20 20" enable-background="new 0 0 20 20" xml:space="preserve">
<path fill-rule="evenodd" clip-rule="evenodd" fill="#F5F5F5" d="M246.335,220.861c0.933,0.539,0.933,1.413,0,1.952
	c-0.934,0.538-2.446,0.538-3.379,0c-0.934-0.539-0.934-1.413,0-1.952C243.889,220.322,245.401,220.322,246.335,220.861z"/>
<polygon fill-rule="evenodd" clip-rule="evenodd" fill="#89B04D" points="246.756,219.633 245.247,218.762 242.599,220.29 
	244.108,221.161 "/>
<polygon fill-rule="evenodd" clip-rule="evenodd" fill="#9BC957" points="244.107,221.273 246.756,219.745 246.756,219.633 
	244.108,221.161 "/>
<polygon fill-rule="evenodd" clip-rule="evenodd" fill="#70913F" points="244.108,221.161 242.599,220.29 242.599,220.402 
	244.107,221.273 "/>
<path fill-rule="evenodd" clip-rule="evenodd" fill="#BFC7C9" d="M245.712,219.507c0.034,0,0.068-0.008,0.095-0.022
	c0.026-0.016,0.039-0.035,0.039-0.055s-0.013-0.04-0.039-0.055c-0.026-0.016-0.061-0.022-0.095-0.022s-0.068,0.007-0.095,0.022
	c-0.026,0.015-0.039,0.035-0.039,0.055s0.013,0.039,0.039,0.055C245.644,219.499,245.678,219.507,245.712,219.507z"/>
<path fill-rule="evenodd" clip-rule="evenodd" fill="#FAC13C" d="M245.81,219.481c0.052-0.032,0.036-0.08,0.036-0.139
	c0-0.444,0.005-0.893,0-1.336c0-0.015,0.001,0.011-0.017,0.029c-0.062,0.062-0.224,0.058-0.251-0.035c-0.004,0.004,0,1.279,0,1.4
	c0,0.078,0.045,0.098,0.12,0.104C245.733,219.509,245.779,219.5,245.81,219.481z"/>
<path fill-rule="evenodd" clip-rule="evenodd" fill="#F5BE3D" d="M245.712,218.075c0.034,0,0.068-0.007,0.095-0.022
	c0.026-0.015,0.039-0.035,0.039-0.055s-0.013-0.04-0.039-0.055s-0.061-0.022-0.095-0.022s-0.068,0.008-0.095,0.022
	s-0.039,0.035-0.039,0.055s0.013,0.04,0.039,0.055C245.644,218.068,245.678,218.075,245.712,218.075z"/>
<polygon fill-rule="evenodd" clip-rule="evenodd" fill="#FFDC6A" points="245.807,219.483 245.81,219.481 245.812,219.48 
	245.813,219.479 245.816,219.478 245.816,219.477 245.816,218.047 245.816,218.047 245.813,218.049 245.812,218.05 245.81,218.052 
	245.807,218.053 245.804,218.055 245.802,218.056 245.799,218.057 245.797,218.059 245.794,218.06 245.791,218.061 245.788,218.062 
	245.786,218.063 245.783,218.063 245.78,218.064 245.777,218.065 245.774,218.066 245.771,218.067 245.769,218.068 245.766,218.069 
	245.763,218.069 245.76,218.07 245.756,218.071 245.755,218.071 245.755,219.502 245.756,219.502 245.76,219.501 245.763,219.5 
	245.766,219.5 245.769,219.499 245.771,219.498 245.774,219.497 245.777,219.496 245.78,219.495 245.783,219.494 245.786,219.493 
	245.788,219.492 245.791,219.491 245.794,219.489 245.797,219.488 245.799,219.487 245.802,219.486 245.804,219.484 "/>
<polygon fill-rule="evenodd" clip-rule="evenodd" fill="#E6B543" points="245.674,218.072 245.671,218.071 245.668,218.071 
	245.664,218.07 245.661,218.069 245.658,218.069 245.655,218.068 245.652,218.067 245.649,218.066 245.646,218.065 245.644,218.064 
	245.641,218.063 245.638,218.063 245.635,218.062 245.633,218.061 245.63,218.06 245.627,218.059 245.625,218.057 245.622,218.056 
	245.619,218.055 245.617,218.053 245.614,218.052 245.612,218.05 245.61,218.049 245.607,218.047 245.607,218.047 245.607,219.478 
	245.607,219.478 245.61,219.479 245.612,219.48 245.614,219.481 245.617,219.483 245.619,219.484 245.622,219.486 245.625,219.487 
	245.627,219.488 245.63,219.489 245.633,219.491 245.635,219.492 245.638,219.493 245.641,219.494 245.644,219.495 245.646,219.496 
	245.649,219.497 245.652,219.498 245.655,219.499 245.658,219.5 245.661,219.5 245.664,219.501 245.668,219.502 245.671,219.502 
	245.674,219.503 "/>
<path fill-rule="evenodd" clip-rule="evenodd" fill="#D19917" d="M245.712,218.055c0.03,0,0.061-0.007,0.084-0.021
	c0.023-0.013,0.035-0.03,0.035-0.049c0-0.017-0.012-0.034-0.035-0.048s-0.054-0.021-0.084-0.021s-0.061,0.007-0.084,0.021
	s-0.035,0.031-0.035,0.048c0,0.019,0.012,0.036,0.035,0.049C245.651,218.048,245.682,218.055,245.712,218.055z"/>
<rect x="246.307" y="217.814" transform="matrix(0.8673 0.4979 -0.4979 0.8673 141.1429 -93.729)" fill-rule="evenodd" clip-rule="evenodd" fill="#D1CACA" width="0.061" height="0"/>
<polygon fill-rule="evenodd" clip-rule="evenodd" fill="#D1CACA" points="246.275,217.704 246.223,217.674 245.87,217.642 
	245.871,217.651 245.871,217.661 245.871,217.671 245.87,217.681 245.869,217.691 245.868,217.702 245.866,217.712 245.864,217.723 
	245.918,217.754 245.92,217.742 245.921,217.732 245.922,217.722 245.924,217.712 245.924,217.702 245.924,217.692 245.924,217.682 
	245.924,217.673 "/>
<polygon fill-rule="evenodd" clip-rule="evenodd" fill="#D1CACA" points="245.918,217.754 245.864,217.723 245.858,217.747 
	245.852,217.771 245.843,217.795 245.832,217.819 245.819,217.844 245.806,217.867 245.791,217.89 245.773,217.912 245.826,217.942 
	245.843,217.92 245.858,217.897 245.872,217.874 245.885,217.85 245.896,217.826 245.904,217.802 245.912,217.777 "/>
<rect x="245.815" y="217.953" transform="matrix(0.8712 0.491 -0.491 0.8712 138.695 -92.6306)" fill-rule="evenodd" clip-rule="evenodd" fill="#D1CACA" width="0.062" height="0.001"/>
<polygon fill-rule="evenodd" clip-rule="evenodd" fill="#D1CACA" points="245.872,217.971 245.818,217.939 245.817,217.941 
	245.815,217.944 245.813,217.946 245.813,217.948 245.811,217.95 245.809,217.952 245.807,217.954 245.806,217.956 245.858,217.986 
	245.86,217.984 245.861,217.982 245.863,217.98 245.865,217.979 245.867,217.977 245.868,217.975 245.87,217.973 "/>
<path fill-rule="evenodd" clip-rule="evenodd" fill="#EBEBEB" d="M245.813,217.96l0.11,0.01l0.241,0.021l0.176-0.102
	c0.005-0.003,0.01-0.007,0.014-0.012l0.001-0.001c0.003-0.005,0.007-0.011,0.009-0.017s0.004-0.013,0.004-0.018
	c0-0.006-0.002-0.01-0.004-0.014l0,0l-0.088-0.125l-0.352-0.031c0.002,0.024-0.001,0.053-0.006,0.081
	c-0.014,0.063-0.045,0.131-0.092,0.188l-0.001,0.001C245.821,217.949,245.817,217.955,245.813,217.96z"/>
<polygon fill-rule="evenodd" clip-rule="evenodd" fill="#82888A" points="245.617,217.929 245.732,217.995 245.741,217.999 
	245.75,218.001 245.76,218.001 245.77,218.001 245.779,217.998 245.79,217.995 245.801,217.99 245.812,217.984 245.822,217.978 
	245.833,217.969 245.844,217.96 245.854,217.949 245.864,217.938 245.865,217.936 245.876,217.923 245.885,217.909 245.893,217.896 
	245.899,217.882 245.905,217.868 245.911,217.854 245.915,217.84 245.918,217.826 245.921,217.813 245.922,217.799 245.922,217.787 
	245.922,217.774 245.92,217.763 245.917,217.752 245.912,217.742 245.907,217.733 245.9,217.726 245.894,217.72 245.886,217.715 
	245.777,217.652 245.785,217.646 245.804,217.633 245.823,217.622 245.842,217.614 245.859,217.608 245.878,217.604 
	245.895,217.604 245.911,217.604 245.927,217.607 245.941,217.613 245.762,217.51 245.747,217.504 245.731,217.5 245.716,217.499 
	245.698,217.501 245.681,217.505 245.662,217.511 245.644,217.519 245.625,217.529 245.606,217.541 245.587,217.556 
	245.568,217.572 245.551,217.591 245.533,217.611 245.532,217.612 245.529,217.615 245.527,217.619 245.524,217.622 
	245.521,217.626 245.52,217.629 245.517,217.633 245.515,217.636 245.512,217.64 245.512,217.64 245.512,217.64 245.511,217.642 
	245.511,217.642 245.51,217.643 245.498,217.662 245.486,217.682 245.476,217.701 245.467,217.722 245.459,217.741 245.452,217.762 
	245.446,217.781 245.441,217.802 245.44,217.806 245.439,217.81 245.439,217.813 245.438,217.817 245.438,217.821 245.438,217.825 
	245.437,217.829 245.437,217.833 245.437,217.834 245.437,217.834 245.437,217.834 245.437,217.835 245.435,217.854 
	245.435,217.871 245.436,217.889 245.438,217.904 245.441,217.92 245.446,217.935 245.453,217.948 245.46,217.961 245.461,217.962 
	245.472,217.975 245.483,217.985 245.497,217.993 245.677,218.097 245.663,218.089 245.65,218.078 245.641,218.065 245.64,218.064 
	245.633,218.053 245.626,218.039 245.621,218.024 245.617,218.009 245.615,217.992 245.614,217.976 245.614,217.957 
	245.615,217.938 245.615,217.938 245.615,217.938 245.615,217.938 245.615,217.938 245.616,217.934 245.617,217.93 "/>
<path fill-rule="evenodd" clip-rule="evenodd" fill="#BFC7C9" d="M245.621,217.905c-0.003,0.011-0.004,0.021-0.006,0.032l0,0l0,0
	v0.001l0,0c-0.005,0.05,0.003,0.095,0.024,0.126l0.001,0.001c0.026,0.038,0.068,0.049,0.116,0.037h0.001l0,0l0,0h0.001l0,0
	c0.032-0.009,0.066-0.028,0.101-0.059l0,0l0.002-0.001v-0.001l0,0c0.008-0.007,0.015-0.014,0.021-0.021l0.001-0.001l0,0l0,0
	l0.001-0.002c0.007-0.007,0.015-0.015,0.021-0.023v-0.001c0.047-0.059,0.078-0.126,0.092-0.189c0.013-0.063,0.007-0.121-0.02-0.159
	c-0.027-0.039-0.07-0.05-0.119-0.037c-0.048,0.013-0.101,0.05-0.147,0.107v0.001c-0.007,0.009-0.014,0.018-0.021,0.026l0,0v0.001
	l-0.001,0.001l-0.001,0.001l0,0C245.655,217.797,245.632,217.854,245.621,217.905L245.621,217.905z M245.711,217.977
	c-0.016-0.022-0.019-0.056-0.011-0.092c0.007-0.037,0.025-0.076,0.053-0.11c0.026-0.033,0.058-0.055,0.086-0.063
	c0.027-0.007,0.053-0.001,0.068,0.021s0.019,0.056,0.011,0.093c-0.007,0.036-0.025,0.076-0.053,0.109l-0.001,0.002
	c-0.026,0.032-0.057,0.054-0.085,0.061C245.752,218.006,245.727,217.999,245.711,217.977L245.711,217.977z"/>
<polygon fill-rule="evenodd" clip-rule="evenodd" fill="#D1CACA" points="245.748,216.956 245.695,216.926 245.693,216.925 
	245.692,216.925 245.691,216.924 245.689,216.924 245.688,216.924 245.687,216.924 245.686,216.924 245.684,216.925 
	245.682,216.925 245.68,216.926 245.678,216.927 245.676,216.928 245.675,216.929 245.672,216.931 245.671,216.932 245.669,216.934 
	245.667,216.935 245.666,216.937 245.664,216.938 245.662,216.939 245.661,216.94 245.66,216.942 245.659,216.944 245.658,216.946 
	245.656,216.948 245.655,216.95 245.654,216.952 245.653,216.955 245.652,216.957 245.652,216.958 245.564,217.184 245.564,217.652 
	245.617,217.684 245.617,217.214 245.705,216.989 245.705,216.988 245.706,216.985 245.707,216.982 245.709,216.981 245.71,216.979 
	245.711,216.977 245.712,216.975 245.714,216.973 245.715,216.971 245.716,216.971 245.717,216.969 245.719,216.967 245.72,216.965 
	245.722,216.964 245.724,216.962 245.726,216.961 245.727,216.96 245.729,216.958 245.731,216.957 245.732,216.957 245.734,216.956 
	245.736,216.955 245.738,216.955 245.74,216.955 245.741,216.954 245.743,216.955 245.744,216.955 245.745,216.955 245.747,216.955 
	"/>
<path fill-rule="evenodd" clip-rule="evenodd" fill="#EBEBEB" d="M245.841,217.555v-0.177v-0.292l-0.088-0.126
	c-0.003-0.003-0.006-0.005-0.01-0.005c-0.004-0.001-0.009,0-0.014,0.003c-0.006,0.003-0.01,0.008-0.014,0.013h-0.001
	c-0.004,0.005-0.007,0.011-0.01,0.017v0.002l-0.088,0.225v0.47c0.005-0.007,0.01-0.013,0.015-0.019l0.001-0.001
	c0.046-0.058,0.099-0.094,0.146-0.107C245.802,217.552,245.822,217.551,245.841,217.555z"/>
<g>
	<path fill-rule="evenodd" clip-rule="evenodd" fill="#D1CACA" d="M245.534,217.897l-0.053-0.031l-0.352,0.438l-0.088,0.226v0.001
		l0.053,0.03l0,0l0,0l0.088-0.227L245.534,217.897L245.534,217.897z M245.042,218.531l0.053,0.03l-0.001,0.002l-0.001,0.003v0.002
		l-0.001,0.002v0.003v0.002l-0.001,0.002v0.002l0.027,0.016l0,0l-0.027-0.016l0,0v0.002l0.001,0.002v0.002v0.002l0.001,0.001v0.002
		l0.001,0.002l0.001,0.001l0.001,0.001l0.001,0.001l0.001,0.001l0.002,0.001l-0.053-0.03l-0.002-0.001l-0.001-0.001l-0.001-0.001
		l-0.001-0.001l-0.001-0.002l-0.001-0.001v-0.002l-0.001-0.001v-0.002l-0.001-0.002v-0.002v-0.002v-0.002v-0.002l0.001-0.003v-0.002
		l0.001-0.002v-0.003l0.001-0.002L245.042,218.531L245.042,218.531L245.042,218.531z"/>
</g>
<path fill-rule="evenodd" clip-rule="evenodd" fill="#EBEBEB" d="M245.534,217.898l-0.352,0.437l-0.088,0.227l0,0l0,0
	c-0.002,0.006-0.004,0.013-0.004,0.018c0,0.006,0.002,0.01,0.004,0.014c0.003,0.004,0.006,0.006,0.01,0.006l0,0l0,0
	c0.004,0,0.009-0.001,0.014-0.004l0,0l0.176-0.102l0.236-0.294l0.103-0.128l-0.038-0.021l-0.013-0.009l-0.013-0.01l-0.011-0.013
	v-0.001l-0.008-0.013l-0.006-0.014l-0.005-0.015l-0.004-0.016l-0.002-0.016l-0.001-0.018v-0.018L245.534,217.898z"/>
<path fill-rule="evenodd" clip-rule="evenodd" fill="#707E82" d="M245.696,217.915l0.16,0.093l-0.006-0.003l-0.005-0.004
	l-0.004-0.006l-0.001-0.001l-0.003-0.006l-0.003-0.006l-0.002-0.008l-0.001-0.008l-0.001-0.008l0.001-0.009v-0.009l0.002-0.009
	l0.002-0.01l0.003-0.01l0.004-0.01l0.004-0.01l0.005-0.009l0.006-0.01l0.006-0.009l0.007-0.009l0.007-0.008l0.008-0.008l0.007-0.007
	l0.008-0.006l0.007-0.005l0.008-0.004l0.007-0.003l0.008-0.003l0.007-0.001l0.007-0.001h0.007l0.006,0.002l0.006,0.002l-0.155-0.09
	c-0.019,0.012-0.036,0.027-0.053,0.048c-0.027,0.034-0.046,0.073-0.053,0.11C245.698,217.896,245.696,217.905,245.696,217.915z"/>
<path fill-rule="evenodd" clip-rule="evenodd" fill="#899EA3" d="M245.834,217.933c-0.005,0.024-0.003,0.047,0.007,0.062
	l0.001,0.001c0.011,0.016,0.027,0.02,0.047,0.015c0.019-0.005,0.039-0.02,0.058-0.042l0.001-0.001
	c0.019-0.022,0.03-0.05,0.036-0.074c0.005-0.025,0.003-0.049-0.008-0.063s-0.028-0.02-0.047-0.015
	c-0.02,0.005-0.04,0.021-0.059,0.043C245.852,217.881,245.839,217.907,245.834,217.933z"/>
<g>
	<polygon fill-rule="evenodd" clip-rule="evenodd" fill="#CFD1D1" points="244.037,219.966 242.98,219.356 242.98,220.288 
		244.036,220.897 	"/>
	<polygon fill-rule="evenodd" clip-rule="evenodd" fill="#CFD1D1" points="244.753,218.538 243.697,217.928 242.828,219.444 
		243.884,220.055 	"/>
</g>
<polygon fill-rule="evenodd" clip-rule="evenodd" fill="#E6EAEB" points="245.476,220.067 245.476,219.136 245.629,219.048 
	244.753,218.538 243.884,220.055 244.037,219.966 244.036,220.897 "/>
<polygon fill-rule="evenodd" clip-rule="evenodd" fill="#999999" points="244.509,220.625 244.98,220.353 244.98,219.46 
	244.509,219.732 "/>
<polygon fill-rule="evenodd" clip-rule="evenodd" fill="#666565" points="244.553,220.6 244.937,220.378 244.938,219.545 
	244.553,219.767 "/>
<polygon fill-rule="evenodd" clip-rule="evenodd" fill="#FAC13C" points="244.553,220.543 244.888,220.35 244.888,219.573 
	244.553,219.767 "/>
<path fill-rule="evenodd" clip-rule="evenodd" fill="#D19917" d="M243.467,219.715l0.2,0.115l0.003,0.002l0.002,0.002l0.003,0.002
	l0.002,0.002l0.002,0.002l0.002,0.003l0.002,0.003l0.002,0.003l0,0l0.001,0.003l0.002,0.003l0.001,0.003l0.001,0.003l0.001,0.003
	l0.001,0.003v0.003v0.003v0.515v0.002v0.003l-0.001,0.003l-0.001,0.002l-0.001,0.001l-0.001,0.002l-0.002,0.002l-0.001,0.001
	l-0.032,0.019l0.001-0.001l0.002-0.002l0.001-0.001l0.001-0.002l0.001-0.002l0.001-0.003v-0.002v-0.003v-0.515v-0.003v-0.003
	l-0.001-0.003l-0.001-0.003l-0.001-0.003l-0.001-0.003l-0.002-0.003l-0.001-0.003l0,0l-0.002-0.003l-0.002-0.003l-0.002-0.002
	l-0.002-0.003l-0.002-0.002l-0.003-0.002l-0.002-0.002l-0.003-0.002l-0.2-0.115l-0.044-0.025l-0.2-0.116l-0.003-0.001l-0.003-0.001
	l-0.002-0.001h-0.002h-0.002h-0.002l-0.002,0.001h-0.002l0.032-0.019l0.002-0.001h0.001h0.002h0.003h0.002l0.002,0.001l0.003,0.001
	l0.002,0.001l0.201,0.116L243.467,219.715L243.467,219.715z M243.43,219.77L243.43,219.77L243.43,219.77l-0.001,0.002v0.002v0.482
	v0.002v0.001l0.001,0.002v0.001l0.001,0.002l0.001,0.001l0.002,0.001l0.001,0.001l0.188,0.108h0.001h0.001h0.001h0.001l0.032-0.019
	h-0.001l-0.001,0.001l-0.001-0.001h-0.002l-0.187-0.108l-0.002-0.001l-0.001-0.001l-0.001-0.001l-0.001-0.002v-0.001l-0.001-0.002
	l-0.001-0.001v-0.002v-0.482v-0.002l0.001-0.001l0.001-0.001v-0.001L243.43,219.77L243.43,219.77z M243.423,220.223l-0.188-0.108
	h-0.001l-0.001-0.002l-0.001-0.001l-0.001-0.001l-0.001-0.002v-0.001l-0.001-0.002v-0.001v-0.287v-0.001l0.001-0.001v-0.001
	l0.001-0.001l-0.032,0.019l-0.001,0.001l-0.001,0.001v0.001v0.001v0.287v0.001v0.002l0.001,0.001l0.001,0.002l0.001,0.001
	l0.001,0.001l0.001,0.001l0.001,0.001l0.188,0.108l0.001,0.001h0.001h0.002l0,0l0.032-0.019h-0.001h-0.001L243.423,220.223
	L243.423,220.223L243.423,220.223z M243.423,219.886l-0.188-0.108l-0.001-0.001l-0.001-0.001l-0.001-0.001l-0.001-0.002
	l-0.001-0.001v-0.002l-0.001-0.001v-0.002v-0.146v-0.001l0.001-0.002l0,0l0.001-0.001l-0.032,0.019l-0.001,0.001h-0.001v0.002v0.001
	v0.146v0.002v0.001l0.001,0.002l0.001,0.002l0.001,0.001l0.001,0.001l0.001,0.001l0.001,0.001l0.188,0.108h0.001l0.001,0.001h0.002
	v-0.001l0.032-0.019l-0.001,0.001h-0.001L243.423,219.886L243.423,219.886z"/>
<polygon fill-rule="evenodd" clip-rule="evenodd" fill="#2192FC" points="243.449,219.761 243.449,220.244 243.456,220.255 
	243.643,220.362 243.648,220.359 243.648,219.876 243.643,219.865 243.456,219.757 "/>
<polygon fill-rule="evenodd" clip-rule="evenodd" fill="#2192FC" points="243.418,220.226 243.418,219.938 243.412,219.929 
	243.225,219.82 243.219,219.824 243.219,220.11 243.225,220.121 243.412,220.229 "/>
<polygon fill-rule="evenodd" clip-rule="evenodd" fill="#2192FC" points="243.418,219.889 243.418,219.742 243.412,219.732 
	243.225,219.624 243.219,219.627 243.219,219.773 243.225,219.784 243.412,219.892 "/>
<path fill-rule="evenodd" clip-rule="evenodd" fill="#FAC13C" d="M243.435,219.733l0.2,0.115c0.007,0.004,0.013,0.011,0.018,0.019
	l0,0c0.004,0.008,0.007,0.016,0.007,0.023v0.515c0,0.008-0.003,0.013-0.007,0.016c-0.005,0.002-0.011,0.002-0.018-0.002l-0.2-0.116
	l-0.044-0.025l-0.2-0.115c-0.007-0.004-0.013-0.011-0.018-0.019l0,0c-0.005-0.007-0.007-0.016-0.007-0.023v-0.515
	c0-0.007,0.002-0.013,0.007-0.016c0.005-0.002,0.011-0.002,0.018,0.002l0.2,0.116L243.435,219.733L243.435,219.733z M243.396,219.9
	v-0.146c0-0.004-0.002-0.009-0.006-0.011l-0.188-0.107c-0.003-0.003-0.006-0.001-0.006,0.003v0.146c0,0.004,0.003,0.009,0.006,0.011
	l0.188,0.108C243.395,219.906,243.396,219.904,243.396,219.9L243.396,219.9z M243.396,220.237v-0.286
	c0-0.004-0.002-0.009-0.006-0.011l-0.188-0.108c-0.003-0.001-0.006,0-0.006,0.004v0.287c0,0.004,0.003,0.008,0.006,0.01l0.188,0.108
	C243.395,220.243,243.396,220.242,243.396,220.237L243.396,220.237z M243.429,219.773v0.482c0,0.004,0.002,0.009,0.006,0.011
	l0.188,0.108c0.003,0.002,0.006,0,0.006-0.004v-0.482c0-0.005-0.003-0.009-0.006-0.011l-0.188-0.108
	C243.431,219.768,243.429,219.77,243.429,219.773z"/>
<g>
	<polygon fill-rule="evenodd" clip-rule="evenodd" fill="#D14232" points="244.824,218.596 243.6,217.889 244.51,218.419 
		245.734,219.127 	"/>
	<polygon fill-rule="evenodd" clip-rule="evenodd" fill="#E74C3C" points="244.824,218.408 243.599,217.701 242.534,219.56 
		243.759,220.267 	"/>
</g>
<polygon fill-rule="evenodd" clip-rule="evenodd" fill="#C0392B" points="245.734,219.127 245.896,219.033 244.824,218.408 
	243.759,220.267 243.92,220.173 244.824,218.596 "/>
<path fill-rule="evenodd" clip-rule="evenodd" fill="#323A3D" d="M244.163,218.893l-0.662-0.386
	c-0.016-0.009-0.021-0.029-0.012-0.045l0.19-0.323c0.009-0.017,0.029-0.021,0.045-0.013l0.663,0.386
	c0.016,0.009,0.021,0.029,0.012,0.045l-0.19,0.323C244.2,218.896,244.179,218.901,244.163,218.893z"/>
<path fill-rule="evenodd" clip-rule="evenodd" fill="#475459" d="M244.097,218.695l-0.069,0.118l0.124,0.072
	c0.012,0.006,0.023,0.009,0.034,0.008l0,0c0.01-0.001,0.019-0.006,0.023-0.014l0.052-0.089L244.097,218.695z"/>
<rect x="244.154" y="218.576" transform="matrix(0.5092 -0.8606 0.8606 0.5092 -68.3362 317.5081)" fill-rule="evenodd" clip-rule="evenodd" fill="#475459" width="0.136" height="0.191"/>
<rect x="243.968" y="218.468" transform="matrix(-0.5061 0.8625 -0.8625 -0.5061 556.0469 118.697)" fill-rule="evenodd" clip-rule="evenodd" fill="#475459" width="0.137" height="0.19"/>
<rect x="243.89" y="218.599" transform="matrix(-0.5061 0.8625 -0.8625 -0.5061 556.0437 118.9625)" fill-rule="evenodd" clip-rule="evenodd" fill="#475459" width="0.137" height="0.191"/>
<path fill-rule="evenodd" clip-rule="evenodd" fill="#475459" d="M244.182,218.55l0.165,0.096l0.053-0.089
	c0.005-0.008,0.004-0.018,0-0.027c-0.004-0.009-0.013-0.019-0.023-0.024l-0.125-0.072L244.182,218.55z"/>
<rect x="243.706" y="218.492" transform="matrix(0.5092 -0.8606 0.8606 0.5092 -68.4834 317.0819)" fill-rule="evenodd" clip-rule="evenodd" fill="#475459" width="0.136" height="0.191"/>
<rect x="243.783" y="218.36" transform="matrix(0.5092 -0.8606 0.8606 0.5092 -68.3325 317.0839)" fill-rule="evenodd" clip-rule="evenodd" fill="#475459" width="0.136" height="0.191"/>
<polygon fill-rule="evenodd" clip-rule="evenodd" fill="#475459" points="243.881,218.217 243.813,218.335 243.977,218.431 
	244.046,218.313 243.974,218.271 "/>
<path fill-rule="evenodd" clip-rule="evenodd" fill="#475459" d="M243.792,218.322l0.069-0.117l-0.125-0.072
	c-0.011-0.006-0.022-0.009-0.033-0.008l0,0c-0.011,0.001-0.02,0.006-0.023,0.014l-0.053,0.088L243.792,218.322z"/>
<rect x="243.599" y="218.252" transform="matrix(-0.5039 0.8638 -0.8638 -0.5039 555.0471 117.8927)" fill-rule="evenodd" clip-rule="evenodd" fill="#475459" width="0.136" height="0.191"/>
<path fill-rule="evenodd" clip-rule="evenodd" fill="#475459" d="M243.637,218.586l0.069-0.117l-0.165-0.096l-0.052,0.089
	c-0.005,0.008-0.005,0.018,0,0.026c0.004,0.01,0.013,0.019,0.023,0.025L243.637,218.586z"/>
<polygon fill-rule="evenodd" clip-rule="evenodd" fill="#475459" points="244.139,218.367 244.066,218.325 243.997,218.442 
	244.162,218.538 244.23,218.421 "/>
<path fill-rule="evenodd" clip-rule="evenodd" fill="#323A3D" d="M243.898,219.342l-0.662-0.385c-0.016-0.01-0.021-0.03-0.012-0.046
	l0.189-0.323c0.01-0.016,0.03-0.021,0.046-0.012l0.663,0.385c0.016,0.01,0.021,0.03,0.012,0.046l-0.19,0.323
	C243.935,219.346,243.914,219.352,243.898,219.342z"/>
<path fill-rule="evenodd" clip-rule="evenodd" fill="#475459" d="M243.832,219.146l-0.069,0.117l0.124,0.072
	c0.012,0.007,0.023,0.01,0.033,0.009h0.001c0.01-0.001,0.019-0.006,0.023-0.014l0.052-0.089L243.832,219.146z"/>
<rect x="243.889" y="219.025" transform="matrix(0.5092 -0.8606 0.8606 0.5092 -68.8531 317.501)" fill-rule="evenodd" clip-rule="evenodd" fill="#475459" width="0.136" height="0.191"/>
<rect x="243.704" y="218.917" transform="matrix(-0.5039 0.8638 -0.8638 -0.5039 555.7802 118.8018)" fill-rule="evenodd" clip-rule="evenodd" fill="#475459" width="0.136" height="0.191"/>
<rect x="243.626" y="219.049" transform="matrix(-0.5092 0.8606 -0.8606 -0.5092 556.3912 121.0024)" fill-rule="evenodd" clip-rule="evenodd" fill="#475459" width="0.136" height="0.191"/>
<path fill-rule="evenodd" clip-rule="evenodd" fill="#475459" d="M243.917,219l0.165,0.096l0.052-0.089
	c0.005-0.008,0.005-0.018,0.001-0.027c-0.005-0.009-0.013-0.019-0.023-0.024l-0.125-0.073L243.917,219z"/>
<rect x="243.441" y="218.942" transform="matrix(0.5039 -0.8638 0.8638 0.5039 -68.3876 319.0088)" fill-rule="evenodd" clip-rule="evenodd" fill="#475459" width="0.136" height="0.191"/>
<rect x="243.519" y="218.81" transform="matrix(0.5092 -0.8606 0.8606 0.5092 -68.8494 317.0768)" fill-rule="evenodd" clip-rule="evenodd" fill="#475459" width="0.136" height="0.191"/>
<polygon fill-rule="evenodd" clip-rule="evenodd" fill="#475459" points="243.616,218.667 243.548,218.784 243.712,218.88 
	243.781,218.763 243.709,218.721 "/>
<path fill-rule="evenodd" clip-rule="evenodd" fill="#475459" d="M243.527,218.772l0.069-0.117l-0.125-0.072
	c-0.011-0.007-0.022-0.009-0.033-0.009v0.001c-0.011,0.001-0.02,0.005-0.024,0.013l-0.052,0.089L243.527,218.772z"/>
<rect x="243.333" y="218.702" transform="matrix(-0.5092 0.8606 -0.8606 -0.5092 555.6508 120.7313)" fill-rule="evenodd" clip-rule="evenodd" fill="#475459" width="0.136" height="0.191"/>
<path fill-rule="evenodd" clip-rule="evenodd" fill="#475459" d="M243.372,219.036l0.069-0.117l-0.165-0.097l-0.052,0.089
	c-0.005,0.008-0.005,0.019,0,0.027c0.004,0.01,0.013,0.019,0.023,0.025L243.372,219.036z"/>
<polygon fill-rule="evenodd" clip-rule="evenodd" fill="#475459" points="243.874,218.816 243.802,218.774 243.732,218.892 
	243.897,218.988 243.966,218.87 "/>
<path fill-rule="evenodd" clip-rule="evenodd" fill="#323A3D" d="M243.634,219.792l-0.662-0.386
	c-0.016-0.009-0.021-0.029-0.012-0.045l0.189-0.323c0.01-0.016,0.03-0.021,0.046-0.012l0.662,0.385
	c0.017,0.01,0.021,0.03,0.013,0.046l-0.19,0.323C243.67,219.796,243.649,219.801,243.634,219.792z"/>
<path fill-rule="evenodd" clip-rule="evenodd" fill="#475459" d="M243.566,219.596l-0.068,0.117l0.124,0.072
	c0.012,0.007,0.023,0.009,0.033,0.008l0,0c0.011-0.001,0.02-0.005,0.024-0.013l0.052-0.089L243.566,219.596z"/>
<rect x="243.624" y="219.475" transform="matrix(0.5092 -0.8606 0.8606 0.5092 -69.37 317.494)" fill-rule="evenodd" clip-rule="evenodd" fill="#475459" width="0.136" height="0.191"/>
<rect x="243.439" y="219.368" transform="matrix(-0.5092 0.8606 -0.8606 -0.5092 556.3823 121.6442)" fill-rule="evenodd" clip-rule="evenodd" fill="#475459" width="0.136" height="0.191"/>
<rect x="243.362" y="219.499" transform="matrix(-0.5092 0.8606 -0.8606 -0.5092 556.3793 121.9096)" fill-rule="evenodd" clip-rule="evenodd" fill="#475459" width="0.136" height="0.191"/>
<path fill-rule="evenodd" clip-rule="evenodd" fill="#475459" d="M243.652,219.449l0.165,0.096l0.052-0.088
	c0.005-0.008,0.005-0.019,0.001-0.027c-0.005-0.01-0.013-0.019-0.023-0.025l-0.125-0.072L243.652,219.449z"/>
<rect x="243.176" y="219.391" transform="matrix(0.5008 -0.8656 0.8656 0.5008 -68.5466 320.1279)" fill-rule="evenodd" clip-rule="evenodd" fill="#475459" width="0.137" height="0.191"/>
<rect x="243.254" y="219.259" transform="matrix(0.5092 -0.8606 0.8606 0.5092 -69.3663 317.0698)" fill-rule="evenodd" clip-rule="evenodd" fill="#475459" width="0.136" height="0.191"/>
<polygon fill-rule="evenodd" clip-rule="evenodd" fill="#475459" points="243.352,219.117 243.283,219.234 243.447,219.33 
	243.517,219.213 243.444,219.171 "/>
<path fill-rule="evenodd" clip-rule="evenodd" fill="#475459" d="M243.263,219.223l0.068-0.117l-0.124-0.072
	c-0.011-0.007-0.023-0.01-0.033-0.009l0,0c-0.011,0.001-0.02,0.006-0.024,0.014l-0.052,0.089L243.263,219.223z"/>
<rect x="243.068" y="219.152" transform="matrix(-0.5061 0.8625 -0.8625 -0.5061 555.282 120.5041)" fill-rule="evenodd" clip-rule="evenodd" fill="#475459" width="0.137" height="0.191"/>
<path fill-rule="evenodd" clip-rule="evenodd" fill="#475459" d="M243.107,219.485l0.069-0.117l-0.165-0.096l-0.052,0.089
	c-0.005,0.008-0.005,0.018,0,0.027c0.004,0.009,0.012,0.019,0.023,0.024L243.107,219.485z"/>
<polygon fill-rule="evenodd" clip-rule="evenodd" fill="#475459" points="243.609,219.267 243.537,219.225 243.468,219.342 
	243.633,219.438 243.701,219.32 "/>
<path fill-rule="evenodd" clip-rule="evenodd" fill="#16A085" d="M4.786,15.421"/>
<path fill-rule="evenodd" clip-rule="evenodd" fill="#16A085" d="M4.79,15.417"/>
<path fill-rule="evenodd" clip-rule="evenodd" fill="#16A085" d="M4.794,15.413"/>
<path fill-rule="evenodd" clip-rule="evenodd" fill="#16A085" d="M4.794,15.409"/>
<path fill-rule="evenodd" clip-rule="evenodd" fill="#16A085" d="M5.619,14.939"/>
<path fill-rule="evenodd" clip-rule="evenodd" fill="#16A085" d="M5.623,14.939"/>
<path fill-rule="evenodd" clip-rule="evenodd" fill="#16A085" d="M5.623,14.939"/>
<path fill-rule="evenodd" clip-rule="evenodd" fill="#16A085" d="M5.619,14.939"/>
<path fill-rule="evenodd" clip-rule="evenodd" fill="#16A085" d="M4.794,15.409"/>
<path fill-rule="evenodd" clip-rule="evenodd" fill="#16A085" d="M4.794,15.413"/>
<path fill-rule="evenodd" clip-rule="evenodd" fill="#16A085" d="M4.79,15.417"/>
<path fill-rule="evenodd" clip-rule="evenodd" fill="#16A085" d="M4.786,15.421"/>
<path fill-rule="evenodd" clip-rule="evenodd" fill="#DBB04B" d="M4.293,18.938l-1.4-0.806l-0.02-0.02L2.858,18.08l-0.004-0.047
	v-0.281l0.004-0.031l0.008-0.039l0.012-0.035l0.02-0.035l0.02-0.031l0.023-0.031l0.027-0.023l0.031-0.023l0.399-0.231
	c3.989-2.303,7.982-4.606,11.976-6.911l0.396-0.23l0.031-0.012l0.027-0.008h0.023l0.023,0.008l1.396,0.81l-0.02-0.008l-0.027-0.004
	l-0.027,0.008l-0.027,0.012l-0.399,0.231l-0.398,0.23l-0.399,0.23l-0.399,0.231c-3.461,1.998-6.918,3.993-10.379,5.991l-0.399,0.23
	l-0.399,0.231l-0.027,0.02L4.34,18.354l-0.027,0.031l-0.02,0.031l-0.016,0.035l-0.016,0.039l-0.008,0.035L4.25,18.562v0.277
	l0.008,0.048l0.012,0.035L4.293,18.938z"/>
<path fill-rule="evenodd" clip-rule="evenodd" fill="#FACC4D" d="M4.489,18.87H4.485l-0.008,0.004l-0.004,0.004H4.469l-0.004,0.005
	c-0.102,0.059-0.215,0.113-0.215-0.044v-0.277c0-0.094,0.066-0.203,0.145-0.25c4.259-2.46,8.515-4.916,12.774-7.376
	c0.078-0.043,0.145-0.008,0.145,0.085v0.278c0,0.156-0.113,0.23-0.216,0.289l-0.004,0.004H17.09l-0.004,0.004L17.078,11.6
	l-0.004,0.004L4.489,18.87z"/>
<polygon fill-rule="evenodd" clip-rule="evenodd" fill="#9C9C9C" points="3.12,17.432 3.12,17.432 3.12,7.688 3.433,7.869 
	3.433,17.615 "/>
<polygon fill-rule="evenodd" clip-rule="evenodd" fill="#9C9C9C" points="3.433,7.869 3.12,7.688 15.659,0.449 15.972,0.629 "/>
<path fill-rule="evenodd" clip-rule="evenodd" fill="#E6EAEB" d="M15.972,0.629c0,4.091,0,5.656,0,9.743L3.433,17.615V7.869
	L15.972,0.629z"/>
<path fill-rule="evenodd" clip-rule="evenodd" fill="#27AE60" d="M15.447,1.541L3.96,8.174V16.7l11.487-6.629
	C15.447,7.227,15.447,4.384,15.447,1.541z"/>
<path fill-rule="evenodd" clip-rule="evenodd" fill="#E6EAEB" d="M6.906,10.591l0.063,0.407L5.044,12.46l-0.082-0.547
	c-0.043-0.286-0.023-0.513,0.059-0.677c0.082-0.168,0.301-0.423,0.653-0.767c0.289-0.286,0.458-0.474,0.508-0.563
	c0.047-0.09,0.055-0.23,0.027-0.426C6.182,9.292,6.135,9.194,6.073,9.187s-0.2,0.07-0.407,0.227c-0.211,0.16-0.344,0.29-0.391,0.383
	c-0.051,0.094-0.059,0.238-0.031,0.434l0.016,0.113l-0.47,0.36l-0.016-0.113C4.723,10.254,4.75,9.977,4.868,9.758
	c0.113-0.219,0.36-0.469,0.739-0.759c0.368-0.282,0.629-0.415,0.778-0.395c0.152,0.016,0.25,0.191,0.301,0.524
	c0.047,0.317,0.027,0.563-0.055,0.747c-0.086,0.18-0.305,0.446-0.657,0.798c-0.29,0.286-0.458,0.466-0.501,0.544
	s-0.047,0.211-0.02,0.398l0.012,0.074L6.906,10.591z"/>
<path fill-rule="evenodd" clip-rule="evenodd" fill="#E6EAEB" d="M11.161,7.353l0.059,0.403l-1.92,1.466L9.213,8.67
	C9.17,8.385,9.194,8.162,9.276,7.994c0.082-0.168,0.297-0.422,0.649-0.767c0.289-0.285,0.458-0.473,0.508-0.559
	c0.047-0.09,0.059-0.231,0.027-0.426c-0.027-0.188-0.074-0.286-0.137-0.293c-0.063-0.008-0.2,0.066-0.407,0.227
	c-0.211,0.16-0.34,0.289-0.391,0.383c-0.047,0.09-0.059,0.234-0.027,0.43l0.016,0.117l-0.474,0.36L9.025,7.353
	c-0.051-0.34-0.02-0.618,0.094-0.837C9.233,6.3,9.479,6.046,9.858,5.761c0.372-0.286,0.63-0.415,0.782-0.399
	c0.149,0.02,0.25,0.195,0.297,0.528c0.051,0.313,0.031,0.563-0.055,0.743c-0.086,0.184-0.305,0.45-0.657,0.798
	C9.937,7.716,9.769,7.9,9.726,7.974c-0.039,0.078-0.047,0.211-0.02,0.403l0.012,0.074L11.161,7.353z"/>
<path fill-rule="evenodd" clip-rule="evenodd" fill="#E6EAEB" d="M8.768,8.799L8.564,9.241c-0.02,0.043-0.059,0.075-0.086,0.067
	L8.021,9.187l-0.329,0.72c-0.023,0.043-0.059,0.07-0.09,0.066L7.32,9.898C7.293,9.891,7.289,9.848,7.309,9.805l0.329-0.716
	L7.184,8.972C7.156,8.964,7.152,8.921,7.172,8.877l0.203-0.442c0.02-0.043,0.059-0.074,0.086-0.066l0.454,0.117l0.329-0.715
	c0.023-0.043,0.063-0.075,0.09-0.066l0.281,0.074c0.027,0.008,0.031,0.047,0.012,0.09l-0.329,0.72l0.458,0.117
	C8.783,8.709,8.787,8.752,8.768,8.799z"/>
<path fill-rule="evenodd" clip-rule="evenodd" fill="#E6EAEB" d="M11.501,6.813c-0.031,0.027-0.066,0.02-0.07-0.016l-0.055-0.368
	c-0.008-0.035,0.016-0.086,0.051-0.109c0.86-0.657,0.72-0.547,1.576-1.201c0.035-0.027,0.066-0.02,0.074,0.016l0.055,0.364
	c0.004,0.039-0.02,0.09-0.055,0.113C12.217,6.269,12.361,6.16,11.501,6.813z"/>
<path fill-rule="evenodd" clip-rule="evenodd" fill="#E6EAEB" d="M11.388,6.058c-0.035,0.027-0.066,0.016-0.07-0.02l-0.055-0.364
	c-0.008-0.035,0.016-0.086,0.051-0.113c0.86-0.653,0.72-0.547,1.576-1.201c0.035-0.027,0.066-0.016,0.074,0.02l0.055,0.364
	c0.004,0.035-0.02,0.086-0.055,0.113C12.104,5.514,12.248,5.401,11.388,6.058z"/>
<polygon fill-rule="evenodd" clip-rule="evenodd" fill="#DFE7ED" points="15.111,11.146 15.104,11.146 15.1,11.143 15.092,11.139 
	15.088,11.135 15.084,11.135 15.076,11.131 15.072,11.127 15.064,11.127 15.061,11.127 15.053,11.123 15.049,11.123 15.045,11.119 
	15.037,11.119 15.033,11.119 15.029,11.119 15.021,11.119 15.018,11.119 15.014,11.119 15.006,11.119 15.002,11.119 14.998,11.119 
	14.994,11.119 14.986,11.119 14.982,11.119 14.979,11.119 14.975,11.123 14.971,11.123 14.967,11.123 14.963,11.127 14.959,11.127 
	14.955,11.131 13.155,12.167 13.159,12.167 13.167,12.163 13.167,12.163 13.175,12.159 13.179,12.159 13.183,12.155 13.187,12.155 
	13.19,12.155 13.194,12.155 13.202,12.155 13.206,12.155 13.21,12.155 13.214,12.155 13.223,12.155 13.227,12.155 13.23,12.155 
	13.238,12.155 13.242,12.155 13.246,12.159 13.254,12.159 13.258,12.159 13.266,12.163 13.27,12.163 13.273,12.167 13.281,12.167 
	13.285,12.171 13.293,12.175 13.297,12.175 13.305,12.179 13.309,12.183 13.316,12.187 13.32,12.19 13.324,12.19 13.332,12.194 
	13.34,12.198 13.344,12.202 13.352,12.21 13.355,12.214 13.359,12.218 13.367,12.222 13.371,12.226 13.379,12.229 13.383,12.237 
	13.387,12.241 13.395,12.245 13.398,12.253 13.402,12.257 13.41,12.261 13.414,12.269 13.418,12.272 13.422,12.28 13.43,12.284 
	13.434,12.292 13.438,12.3 13.441,12.304 13.445,12.312 13.449,12.315 13.457,12.323 13.461,12.331 13.465,12.335 13.469,12.343 
	13.473,12.347 13.477,12.354 13.48,12.362 13.484,12.37 13.488,12.374 13.492,12.382 13.496,12.39 13.496,12.397 13.5,12.401 
	13.504,12.409 13.508,12.417 13.512,12.425 13.512,12.433 13.516,12.437 13.52,12.444 13.52,12.452 13.523,12.46 13.523,12.468 
	13.527,12.476 13.527,12.479 13.531,12.487 13.531,12.495 13.535,12.503 13.535,12.511 13.539,12.519 13.539,12.526 13.539,12.53 
	13.539,12.538 13.539,12.546 13.543,12.554 13.543,12.558 13.543,12.565 13.543,12.573 13.543,12.581 13.543,12.589 13.543,12.593 
	13.543,12.601 13.543,12.605 13.539,12.613 13.539,12.621 13.539,12.625 13.539,12.629 13.539,12.637 13.535,12.641 13.535,12.648 
	13.531,12.652 13.531,12.656 13.527,12.664 13.527,12.668 13.523,12.672 13.523,12.676 13.52,12.684 13.52,12.688 13.516,12.691 
	13.512,12.695 13.512,12.699 13.508,12.699 13.504,12.707 13.5,12.711 13.496,12.711 13.496,12.715 13.492,12.719 13.488,12.719 
	13.484,12.723 13.48,12.727 15.275,11.689 15.279,11.686 15.283,11.682 15.287,11.682 15.291,11.678 15.295,11.674 15.295,11.67 
	15.299,11.666 15.303,11.666 15.307,11.658 15.311,11.654 15.311,11.65 15.314,11.646 15.318,11.643 15.318,11.639 15.322,11.635 
	15.322,11.631 15.326,11.627 15.326,11.619 15.33,11.615 15.33,11.611 15.33,11.604 15.334,11.6 15.334,11.592 15.334,11.588 
	15.338,11.58 15.338,11.576 15.338,11.568 15.338,11.561 15.338,11.557 15.338,11.549 15.338,11.541 15.338,11.537 15.338,11.529 
	15.338,11.521 15.338,11.518 15.338,11.506 15.338,11.502 15.334,11.494 15.334,11.486 15.334,11.479 15.33,11.471 15.33,11.467 
	15.33,11.459 15.326,11.451 15.326,11.443 15.322,11.436 15.322,11.428 15.318,11.424 15.318,11.416 15.314,11.408 15.311,11.4 
	15.311,11.393 15.307,11.389 15.303,11.381 15.299,11.373 15.295,11.365 15.295,11.357 15.291,11.354 15.287,11.346 15.283,11.338 
	15.279,11.33 15.275,11.326 15.271,11.318 15.268,11.311 15.264,11.303 15.26,11.299 15.256,11.291 15.252,11.287 15.248,11.279 
	15.244,11.271 15.24,11.268 15.232,11.26 15.229,11.256 15.225,11.248 15.221,11.244 15.217,11.236 15.209,11.232 15.205,11.225 
	15.201,11.221 15.193,11.217 15.189,11.209 15.186,11.205 15.178,11.197 15.174,11.193 15.17,11.189 15.162,11.186 15.158,11.182 
	15.15,11.174 15.146,11.17 15.139,11.166 15.135,11.162 15.127,11.158 15.123,11.154 15.119,11.15 "/>
<path fill-rule="evenodd" clip-rule="evenodd" fill="#CCCCD4" d="M13.477,12.354c-0.043-0.07-0.098-0.133-0.16-0.168
	c-0.063-0.039-0.122-0.039-0.165-0.016c-0.039,0.023-0.066,0.074-0.066,0.145c0,0.074,0.027,0.156,0.066,0.227
	c0.043,0.071,0.103,0.134,0.165,0.169c0.063,0.039,0.117,0.043,0.16,0.02c0.039-0.027,0.066-0.078,0.066-0.149
	C13.543,12.507,13.516,12.429,13.477,12.354z"/>
<polygon fill-rule="evenodd" clip-rule="evenodd" fill="#3D566E" points="7.359,15.722 6.35,15.14 4.579,16.164 5.584,16.747 "/>
<polygon fill-rule="evenodd" clip-rule="evenodd" fill="#2C3E50" points="5.584,16.747 4.579,16.164 4.579,16.954 5.584,17.533 "/>
<polygon fill-rule="evenodd" clip-rule="evenodd" fill="#496682" points="7.359,16.508 7.359,15.722 5.584,16.747 5.584,17.533 "/>
</svg>
