<svg width="450" height="450" xmlns="http://www.w3.org/2000/svg">
 <g>
  <title>background</title>
 
 </g>

 <style type="text/css">.st0{fill:#58AB59;}
	.st1{fill:#83BB40;}
	.st2{fill:#0D894D;}
	.st3{fill:#8CC041;}
	.st4{fill:#5EA346;}
	.st5{fill:#268C4B;}
	.st6{fill:#047340;}
	.st7{fill:#339653;}
	.st8{display:none;fill:#AE8930;}
	.st9{fill:#07894D;}
	.st10{fill:#097239;}
	.st11{fill:#1E9E5E;}
	.st12{fill:#BD943A;}
	.st13{fill:#EDB77B;}
	.st14{fill:#66300E;}
	.st15{fill:#E9AB6E;}
	.st16{fill:#794617;}
	.st17{fill:#390B00;}
	.st18{fill:#FFFFFF;}
	.st19{fill:#FF78D9;}
	.st20{display:none;}
	.st21{display:inline;fill:none;stroke:#BD943A;stroke-width:35;stroke-linecap:round;stroke-miterlimit:10;}
    #female-monkey {
    animation : jump1 4s ease-in-out infinite;
    transform-origin : 30% -30%
    }
    #male-monkey{
    animation : jump2 4s ease-in-out infinite;
    transform-origin : 60% -40%
    }
     @keyframes jump2{
    0%{
    transform : translateY(0)
    }
    40%{
    transform : translateY(350px)
    }
    50%{
    transform :translateY(350px) rotate(5deg)
    }
   
    70%{
    transform :translateY(350px) rotate(-5deg)
    }
    
    90%{
    transform :translateY(350px) rotate(5deg)
    }
    
    100%{
    transform : translateY(350px) rotate(-5deg)
    }
    }
    
    @keyframes jump1{
    0%{
    transform : translateY(0)
    }
    30%{
    transform : translateY(410px)
    }
    40%{
    transform :translateY(410px) rotate(5deg)
    }
   
    60%{
    transform :translateY(410px) rotate(-5deg)
    }
    
    80%{
    transform :translateY(410px) rotate(5deg)
    }
    
    100%{
    transform : translateY(410px) rotate(-5deg)
    }
    }</style>
 <g>
  <title>Layer 1</title>
  <g id="female-monkey">
   <g id="PIERNA_DERE">
    <g id="svg_63">
     <path id="svg_64" d="m299.3,-5.8c0,0 16.7,4.4 17.9,10.8s-28.5,3.4 -29,-0.1c-0.4,-3.6 0,-9.3 0,-9.3l11.1,-1.4z" class="st13"/>
     <path id="svg_65" d="m296.5,-58.9c0,0 -21.9,-15.6 -26.7,-16.5c-4.8,-0.9 -5.9,10.6 -5.9,10.6l18.7,13.7l5.3,52.4c0,0 19,1.8 14.9,-5.9c-4.1,-7.6 -6.3,-54.3 -6.3,-54.3z" class="st14"/>
    </g>
   </g>
   <g id="PIERNA_IZQ">
    <g id="svg_66">
     <path id="svg_67" d="m252.5,3.4c0,0 15.2,8.3 14.8,14.7s-28.5,-3.4 -28.1,-7s2.2,-9 2.2,-9l11.1,1.3z" class="st13"/>
     <path id="svg_68" d="m262.4,-48.8c0,0 -15.5,-18.6 -23.8,-18.6s-9.6,2.5 -7.7,5.8s16.1,17 16.1,17l-7.4,52.1c0,0 18,6.2 15.9,-2.1c-2.1,-8.4 6.9,-54.2 6.9,-54.2z" class="st14"/>
    </g>
   </g>
   <g id="COLA">
    <path id="svg_69" d="m129.9,-122c0,0 11.1,-16.8 14.3,-5.5c3.2,11.3 -9.7,22.7 -29.4,16.3c-16.5,-5.3 -16.9,-44.6 0,-56.2c2.9,-2 7.3,-4.2 12.6,-3.7c24.3,2.6 23,54.5 58.1,81.2c9.3,7 25.3,10.3 51.2,11.1c-3.1,1 -6.5,8.9 -9.6,9.9c-10,0.5 -26.5,-2.3 -42,-11c-39.7,-22.1 -44,-78.1 -58,-76.1c-6,0.9 -12.7,13.9 -11,19.7c2.5,8.9 9.7,13.5 13.8,14.3z" class="st14"/>
   </g>
   <g id="CUERPO">
    <g id="svg_70">
     <ellipse id="svg_71" ry="46" rx="29.2" cy="-89.35477" cx="241.44548" class="st14" transform="matrix(0.9928 -0.1201 0.1201 0.9928 15.2327 16.7023)"/>
     <ellipse id="svg_72" ry="38" rx="19.5" cy="-89.95477" cx="246.04548" class="st15" transform="matrix(0.9928 -0.1201 0.1201 0.9928 15.3321 17.2469)"/>
    </g>
   </g>
   <g id="BRAZO_DERE">
    <g id="svg_73">
     <path id="svg_74" d="m311.8,-170.7l-11.5,0.4c0,0 1.4,47.9 -7.5,50.3s-29.2,-11.4 -29.2,-11.4l0.8,8.8c0,0 8.8,22.2 31.2,15.1c22.5,-7 16.2,-63.2 16.2,-63.2z" class="st14"/>
     <path id="svg_75" d="m312,-169.1c0,0 0.7,-27.1 -8.8,-27.3c-9.5,-0.2 -15.5,3.3 -12.8,5.5c2.7,2.2 10.2,0.1 12.3,2.8s4.8,9.8 -0.6,9c-5.4,-0.8 -11.1,-4.9 -12,-1.5c-0.9,3.4 11.4,11.5 11.4,11.5l10.5,0z" class="st13"/>
    </g>
   </g>
   <g id="BRAZO_IZQ">
    <g id="svg_76">
     <path id="svg_77" d="m173.5,-69.1l11.5,-0.3c0,0 -0.8,-48 8.2,-50.2s28.8,0.3 28.8,0.3l3.7,-9.3c0,0 -16.5,-8.3 -35.2,-3.6c-22.9,5.9 -17,63.1 -17,63.1z" class="st14"/>
     <path id="svg_78" d="m173.2,-70.7c0,0 -1.1,27.1 8.4,27.4c9.5,0.3 15.5,-3.1 12.8,-5.3c-2.7,-2.2 -10.1,-0.3 -12.2,-3s-4.7,-9.8 0.7,-9c5.4,0.8 11,5 11.9,1.7s-11.2,-11.6 -11.2,-11.6l-10.4,-0.2z" class="st13"/>
    </g>
   </g>
   <g id="CARA">
    <g id="svg_79">
     <g id="svg_80">
      <ellipse id="svg_81" ry="40.7" rx="43.4" cy="-184.75477" cx="229.24548" class="st14" transform="matrix(0.9928 -0.1201 0.1201 0.9928 26.6008 14.5489)"/>
      <ellipse id="svg_82" ry="30.6" rx="32.4" cy="-145.95477" cx="240.44548" class="st13" transform="matrix(0.9928 -0.1201 0.1201 0.9928 22.0128 16.1738)"/>
      <ellipse id="svg_83" ry="29.7" rx="31.7" cy="-184.75477" cx="232.84548" class="st13" transform="matrix(0.9928 -0.1201 0.1201 0.9928 26.627 14.9831)"/>
      <ellipse id="svg_84" ry="15.2" rx="10.6" cy="-179.45477" cx="183.74548" class="st14" transform="matrix(0.9928 -0.1201 0.1201 0.9928 25.6355 9.1177)"/>
      <ellipse id="svg_85" ry="15.2" rx="10.6" cy="-190.55477" cx="275.04548" class="st14" transform="matrix(0.9928 -0.1201 0.1201 0.9928 27.6233 20.0062)"/>
     </g>
     <path id="svg_86" d="m222.9,-160.7c1.6,1.3 3.3,2.4 5.1,3.4c1.8,1 3.6,1.8 5.6,2.4c1.9,0.6 3.9,1 5.9,1.2l1.5,0.1l0.4,0l0.4,0l0.7,0l0.7,0l0.4,0l0.4,0l1.5,-0.1c0.5,0 1,-0.1 1.5,-0.2l0.7,-0.1c0.2,0 0.5,-0.1 0.7,-0.2l1.4,-0.4l0.4,-0.1l0.4,-0.1l0.7,-0.2c0.5,-0.2 0.9,-0.3 1.4,-0.5c0.5,-0.2 0.9,-0.4 1.4,-0.6l1.3,-0.7c0.4,-0.2 0.9,-0.5 1.3,-0.8c1.7,-1.1 3.3,-2.3 4.8,-3.6c1.5,-1.4 2.9,-2.9 4.1,-4.5c-1,1.8 -2.2,3.5 -3.6,5c-1.4,1.5 -3,2.9 -4.7,4.1c-0.4,0.3 -0.9,0.6 -1.3,0.9l-1.4,0.8c-0.5,0.2 -0.9,0.4 -1.4,0.7c-0.5,0.2 -1,0.4 -1.5,0.6l-0.7,0.3l-0.4,0.1l-0.4,0.1l-1.5,0.4c-0.3,0.1 -0.5,0.1 -0.8,0.2l-0.8,0.1c-0.5,0.1 -1,0.2 -1.6,0.2l-1.6,0.1l-0.4,0l-0.4,0l-0.8,0l-0.8,0l-0.4,0l-0.4,0l-1.6,-0.1c-2.1,-0.3 -4.1,-0.7 -6.1,-1.5c-2,-0.7 -3.8,-1.7 -5.5,-2.8c-1.6,-1.4 -3.2,-2.7 -4.6,-4.2z" class="st16"/>
     <g id="svg_87">
      <ellipse id="svg_88" ry="3.4" rx="1.6" cy="-168.95477" cx="232.64548" class="st14" transform="matrix(0.9928 -0.1201 0.1201 0.9928 24.726 15.0658)"/>
      <ellipse id="svg_89" ry="3.4" rx="1.6" cy="-170.25477" cx="243.54548" class="st14" transform="matrix(0.9928 -0.1201 0.1201 0.9928 24.9631 16.3647)"/>
     </g>
    </g>
   </g>
   <g id="OJOS">
    <g id="svg_90">
     <g id="svg_91">
      <ellipse id="svg_92" ry="8.9" rx="4.7" cy="-186.05477" cx="222.14548" class="st17" transform="matrix(0.9928 -0.1201 0.1201 0.9928 26.706 13.6895)"/>
      <ellipse id="svg_93" ry="8.9" rx="4.7" cy="-188.95477" cx="245.84548" class="st17" transform="matrix(0.9928 -0.1201 0.1201 0.9928 27.2206 16.5083)"/>
     </g>
     <circle id="svg_94" r="1.4" cy="-203.6" cx="225.9" class="st18"/>
     <circle id="svg_95" r="1.4" cy="-206.4" cx="249.3" class="st18"/>
    </g>
   </g>
   <g id="RIBBON">
    <path id="svg_96" d="m216.3,-233.8c0,0 6.3,-12.6 -1.5,-12c-6,0.5 -9.4,9.9 -10.6,14c-0.9,0 -1.8,0.2 -2.6,0.7c-0.5,0.3 -0.9,0.7 -1.2,1.2c-3,-0.8 -15.1,-3.7 -19,2c-4.4,6.5 9.8,7.3 9.8,7.3s-5.5,7.4 0.6,9.1c4.8,1.4 10,-7.6 11.9,-11.3c1,0.1 2,-0.1 2.9,-0.7l0,0c0.4,-0.3 0.7,-0.6 1,-0.9c3.2,0.2 14.9,0.6 16.2,-4.6c1.5,-5.8 -7.5,-4.8 -7.5,-4.8z" class="st19"/>
   </g>
  </g>
  <g class="st20" id="LIANA">
   <path id="svg_130" d="m133.7,-355.4c0,0 220.6,777.4 107.2,941.5" class="st21"/>
  </g>
 </g>
</svg>