<?xml version="1.0" encoding="utf-8"?>
<!-- Generator: Adobe Illustrator 15.1.0, SVG Export Plug-In . SVG Version: 6.00 Build 0)  -->
<!DOCTYPE svg PUBLIC "-//W3C//DTD SVG 1.1//EN" "http://www.w3.org/Graphics/SVG/1.1/DTD/svg11.dtd">
<svg version="1.1" id="_x23_Layer_1" xmlns="http://www.w3.org/2000/svg" xmlns:xlink="http://www.w3.org/1999/xlink" x="0px"
	 y="0px" width="500px" height="300px" viewBox="0 0 500 300" enable-background="new 0 0 500 300" xml:space="preserve">
<linearGradient id="SVGID_1_" gradientUnits="userSpaceOnUse" x1="244.7715" y1="18.5181" x2="250.4872" y2="247.9621">
	<stop  offset="0" style="stop-color:#D4E1DC"/>
	<stop  offset="1" style="stop-color:#FFFFFF"/>
</linearGradient>
<path fill-rule="evenodd" clip-rule="evenodd" fill="url(#SVGID_1_)" d="M56.878,6.993c-6.167,20.183-5.606,38.684-5.606,79.049
	c0,40.365,0.561,93.625,1.121,125.582s-5.046,74.563,2.803,80.73c7.849,6.167,132.87,1.682,149.128,2.242
	c16.259,0.562,170.432-6.166,186.69-4.484s44.29,1.121,46.532-7.849c2.243-8.971,7.85-113.248,7.85-118.854
	s-2.804-108.763-3.364-113.248s6.728-37.002,0-38.684S305.238,5.872,288.979,5.312C272.722,4.75,154.988,6.993,143.215,7.554
	S75.379,5.312,56.878,6.993z"/>
<path fill-rule="evenodd" clip-rule="evenodd" fill="#A4C29E" stroke="#000000" stroke-width="1.0001" stroke-linecap="round" stroke-miterlimit="2.6131" d="
	M55.196,189.198c10.652-2.803,39.244-2.242,54.942-1.682s80.731,3.924,93.065,3.363s39.244-10.091,49.896-9.53
	c10.651,0.561,21.304,0,29.152,3.924c7.849,3.925,52.7,2.804,65.033,2.243c12.334-0.561,64.474,0.561,68.397,0
	s27.471-2.804,25.789,13.455s5.606,19.622,4.485,36.44c-1.121,16.819,17.379,55.504-0.561,53.821
	c-17.94-1.682-96.989,1.121-113.248,1.682s-131.749,6.167-148.567,3.364c-16.819-2.804-108.202-2.242-113.248-2.804
	c-5.046-0.561-15.698-4.485-15.698-4.485S54.075,189.759,55.196,189.198z"/>
<path fill-rule="evenodd" clip-rule="evenodd" fill="#629496" d="M54.776,184.714c-2.048,1.897-2.639,11.392,0,10.304
	c15.503-6.396,32.094-3.054,48.471-8.554c10.856-3.646,22.645,0.569,23.755,0.304c2.671-0.639,1.118-5.361-6.071-4.717
	c-6.221,0.558-5.247-4.116-19.623,0.208c-3.684,1.108-9.502,1.801-12.614-0.28c-0.443-0.297-18.019,4.994-22.986,2.947
	c-0.168-0.069-4.955-0.353-5.326-0.353C60.382,183.273,54.786,184.704,54.776,184.714z"/>
<path fill-rule="evenodd" clip-rule="evenodd" fill="#629496" d="M79.444,208.12c10.392-3.675,4.47,1.672,13.007-3.877
	c5.612-3.648,9.354,3.347,17.571-3.62c1.031-0.874,3.58,1.379,9.691-0.536c5.407-1.694,3.257,1.271,10.188-2.435
	c0.02-0.011,5.37-1.078,5.606-1.05c6.224,0.766,11.882-3.117,18.781-5.374c6.952-2.273,0.228,2.358,9.458-1.001
	c0.157-0.058,8.416,1.364,12.43,1.049c6.682-0.523,1.721,0.577,9.715-1.585c2.736-0.74,10.264,3.775,19.414,0
	c0.428-0.177,2.204-0.072,2.803-0.072c6.972,1.496,12.524-0.571,16.259,2.522c8.023-6.647,16.001,2.881,23.618-2.267
	c4.777-3.228,14.709-1.976,20.392-2.219c4.912-0.21,28.228,9.638,31.956,6.472c2.196-1.865-5.727-6.472-8.971-6.472
	c-0.093,0,12.536-5.831,20.207-5.302c6.722,0.464,11.837-4.072,18.757-1.217c1.2,0.495,5.762-1.33,9.812-1.33
	c0.013,0,2.137,0.28,3.083,0.28c7.148,0.85,13.684,0.734,21.585,1.706c5.621,0.691,11.021-1.647,16.818,0.745
	c3.337,1.376,8.913-4.008,15.138-3.268c4.684,0.558,1.669-3.073,12.357,0.16c6.725,2.034,6.996-2.569,14.368-2.146
	c3.342,0.191,8.858-5.448,14.833-1.193c5.705,4.063,4.987-2.721,9.13,5.398c0.04,0.077-0.513,16.846-0.513,19.061
	c0,0.094-3.128-0.53-3.996-0.56c-4.725-0.161-13.274-0.664-17.308,1.425c-1.532,0.794-31.818-1.045-37.282,0.185
	c-9.531,2.145-34.649-4.554-50.896-1.818c-2.959,0.498-16.326,3.321-17.5-0.072c-1.348,0-6.875,2.973-14.528,2.804
	c-7.3-0.161-15.005,2.199-21.913,1.377c-9.834-1.17-4.946-5.802-13.455-2.29c-0.29,0.119-9.328,0.353-10.092,0.353
	c-4.885,0.809-47.093,4.091-47.093,1.401c0-3.815-4.74,0.508-9.531,1.098c-11.596,1.426-14.172,0.304-25.02,0.023
	c-2.286-0.059-22.66,3.14-25.998,3.645c-5.088,0-19.064,2.843-23.546,1.586c-6.972-1.955-27.293,9.429-35.088,3.556
	c-3.482-2.624-7.333-0.938-11.164-0.938c0,0.571-2.523-0.123-2.523-2.522c-0.034,0.087-1.706,0.021-1.962,0L79.444,208.12z"/>
<path fill-rule="evenodd" clip-rule="evenodd" fill="#629496" d="M53.654,229.704c0.602-2.522,3.307-8.409,3.307-8.409l2.104,8.409
	l5.111,1.121c0,0,2.706-3.363,5.712-3.083s8.718,0.841,8.718,0.841s3.908-5.887,5.111-4.485c1.202,1.401,10.522,7.288,8.621,5.887
	c0.841-1.401,19.902,0.28,19.902,0.28s8.41-3.645,10.372-4.205c1.962-0.561,3.924-2.242,6.447-1.401
	c2.523,0.841,3.364,3.364,4.766,3.364s4.485-2.523,4.485-2.523l5.045,3.925l7.008,0.561c0,0,3.925-0.28,5.606,0.28
	c1.682,0.561,4.766,0,4.766,0s-8.41,0.841-12.054,1.121s-17.099,1.401-20.463,1.683c-3.364,0.28-8.129,1.121-10.933,2.522
	s-3.924,3.644-3.924,3.644s2.243,1.401,2.243,3.084c0,1.682-0.281,2.804,1.121,3.925s1.962,0,3.364,2.803
	c1.401,2.804,1.121,14.296-0.841,13.455c-1.962-0.841-3.083-3.084-4.766-4.485c-1.682-1.401-1.121-2.522-3.924-2.803
	c-2.803-0.28-4.766-0.561-6.167-1.121s-0.561-3.364-3.644-3.084c-3.083,0.28-3.924-1.962-5.886-1.121s-4.205,0.561-8.69,0.841
	s-8.97-2.803-8.97-2.803s0.56,4.484-2.523,5.046c-3.083,0.561-5.326,0.28-7.849,1.121c-2.522,0.841-4.765,1.682-6.447,2.522
	c-1.682,0.841-3.925,1.963-5.887,2.243c-1.962,0.28-2.523-7.85-2.523-9.531s2.523-8.97,2.523-8.97l3.083,1.121
	c0,0,1.121-1.683,3.924-2.523s5.326-0.28,5.326-0.28l4.205,1.683L75.239,244l3.364-3.363l-5.045-3.364l-2.523-3.924l-11.773-0.562
	l-4.485-2.242L53.654,229.704z"/>
<path fill-rule="evenodd" clip-rule="evenodd" fill="#629496" d="M169.986,225.499c3.924,3.084,3.644,7.568,7.008,6.447
	s11.212-1.401,18.781-1.682c7.568-0.28,16.258,0,20.183,0c3.924,0,14.576-2.803,17.94-2.803c3.364,0,22.426-1.682,25.789-1.682
	c3.364,0,20.184-3.084,24.668-3.084c4.485,0,14.296-0.841,15.979,0c1.682,0.841,3.083,3.364,7.568,2.522
	c4.484-0.841,23.827-3.363,28.872-2.242c5.046,1.121,24.388,1.682,30.835,1.401s10.371,2.804,16.819,1.402
	c6.447-1.402,11.773-5.607,16.818-4.205c5.046,1.401,16.259,0.841,21.864,2.242c5.606,1.401,15.138-0.841,17.1-0.561
	c1.963,0.28,7.008-0.28,7.008-0.28l2.243-15.138c0,0-2.804,1.683-4.766,3.084s-1.401,3.924-5.046,2.242
	c-3.644-1.682-6.446-2.803-8.97-3.083s-3.925-2.243-8.129-1.401c-4.205,0.841-11.213,1.401-15.138,1.962
	c-3.924,0.561-5.046-0.841-8.409-0.28c-3.364,0.561-7.008,1.962-9.251,1.962c-2.242,0-6.728,2.804-8.97,1.963
	c-2.242-0.842-9.53-1.122-13.175-1.122s-5.045-0.841-7.288-1.682s-4.205,0.28-4.205,0.28s-0.28,1.683-3.083,0.841
	c-2.804-0.841-9.251-2.242-9.251-2.242s-2.522,1.401-8.129,0s-12.054-2.523-12.054-2.523s-2.242,0-4.205,1.122
	c-1.962,1.121-4.204,1.121-5.886,0.841c-1.683-0.28-8.409-0.561-10.372-0.561c-1.962,0-6.167-0.28-10.092,0
	c-3.924,0.28-3.644,1.121-5.886,2.803c-2.243,1.682-3.645,2.523-7.009,2.243c-3.363-0.28-7.008-2.523-9.53-0.28
	c-2.522,2.242-5.326,1.682-9.531,1.121c-4.204-0.561-5.326,0-9.811,0.561c-4.485,0.561-10.652,1.121-14.577,1.401
	s-7.007-0.28-11.773,0.561s-8.129,0.28-10.652-0.28c-2.523-0.561-3.924,0.561-7.849,1.121c-3.924,0.561-20.183,1.402-20.183,1.402
	s-2.803-1.963-5.887-0.562c-3.083,1.402-5.887,1.122-5.887,1.122S169.706,224.378,169.986,225.499z"/>
<path fill-rule="evenodd" clip-rule="evenodd" fill="#7B635A" stroke="#000000" stroke-width="1.0001" stroke-linecap="round" stroke-miterlimit="2.6131" d="
	M180.918,21.149c-10.372,3.925-14.577,6.447-27.191,15.978s-17.94,16.539-23.266,23.827s-12.895,19.902-15.417,30.274
	s-4.205,17.66-3.083,26.91c1.122,9.25,5.046,16.539,8.129,19.342c3.083,2.803,5.886,4.204,9.811,3.083
	c3.924-1.121,9.811-4.485,9.811-4.485s0.841-6.167,3.083-12.334c2.242-6.167,22.705-37.563,22.705-37.563
	s21.865-25.228,27.191-30.834c5.326-5.606,22.145-17.94,25.229-20.463c3.083-2.523,6.728-7.289,9.811-7.289
	c3.083,0,27.751,0.28,34.479,1.121c6.728,0.841,22.426,4.206,27.752,7.289c5.326,3.083,26.91,8.41,31.955,12.895
	c5.046,4.485,18.222,15.978,22.146,14.857c3.925-1.122,8.129-2.523,8.129-2.523s1.401-1.682-6.167-6.167
	s-21.584-14.857-29.433-20.463c-7.849-5.606-38.964-17.379-43.729-18.781c-4.766-1.402-23.266-3.924-26.91-4.485
	c-3.644-0.561-28.593,1.401-35.601,1.962c-7.008,0.561-15.697,2.523-18.5,3.924S180.357,20.869,180.918,21.149z"/>
<path fill-rule="evenodd" clip-rule="evenodd" fill="#A879CF" stroke="#000000" stroke-width="1.0001" stroke-linecap="round" stroke-miterlimit="2.6131" d="
	M280.43,18.346c-7.535,0.15-31.071-8.361-37.258-6.703c-0.167,0.044-2.326-0.247-3.107-0.585c7.008,0.841,21.304-0.561,31.396,2.523
	c10.091,3.083,29.993,5.045,40.646,9.811s26.069,8.409,29.434,14.016c3.363,5.606,9.811,11.213,10.091,15.417
	s2.523,6.167,0.561,7.008c-1.962,0.841-3.644,3.924-5.605,2.523c-1.963-1.401-9.812-13.736-17.94-17.94
	c-5.38,2.454-2.211-4.533-7.85-3.083c-1.813-7.052-3.976-0.261-6.631-6.167c-1.699-3.779-4.151,1.22-6.92-2.731
	c-0.784-1.119-2.292-1.193-3.548-1.193c0,2.273-2.896-2.523-8.13-2.523c-1.483,0-6.61-6.566-10.066-5.862
	C285.408,22.874,281.281,18.817,280.43,18.346z"/>
<path fill-rule="evenodd" clip-rule="evenodd" fill="#08060D" stroke="#000000" stroke-width="1.0001" stroke-linecap="round" stroke-miterlimit="2.6131" d="
	M321.636,40.21c1.909-0.417,9.16-4.785,9.251-5.045c5.193-1.335,3.554-3.136,9.25-2.219c7.652,1.233,3.136-1.912,1.938,7.825
	c-0.196,1.6-0.312,0.561-5.582,0.561c-2.409,0-6.02-1.402-10.372-1.402c0-0.299-2.481-0.2-2.522,0L321.636,40.21z"/>
<path fill-rule="evenodd" clip-rule="evenodd" fill="#A33AD3" stroke="#000000" stroke-width="1.0001" stroke-linecap="round" stroke-miterlimit="2.6131" d="
	M125.976,76.652c-5.326,10.091-9.812,19.342-10.933,28.873c-1.121,9.53-2.522,14.856-0.841,19.902
	c1.682,5.045,4.205,11.773,9.531,12.054c5.326,0.28,14.016,0.28,14.857-1.962c0.841-2.243,5.045-12.895,8.129-21.024
	s12.054-21.304,17.94-28.032c5.887-6.727,22.145-24.667,25.789-28.312c3.644-3.644,21.024-19.623,24.667-21.865
	c3.644-2.243,8.41-8.97,10.372-9.25c1.962-0.28,22.145,0,27.471,1.682s35.32,7.569,38.123,8.41
	c2.804,0.841-14.016-3.644-18.221-5.326c-4.205-1.682-24.107-6.447-28.592-6.447c-4.485,0-31.396-1.121-37.002,0
	s-27.191,6.447-35.32,10.372S147,51.984,141.674,57.31C136.348,62.636,129.62,72.167,125.976,76.652z"/>
<path fill-rule="evenodd" clip-rule="evenodd" fill="none" stroke="#000000" stroke-width="1.0001" stroke-linecap="round" stroke-miterlimit="2.6131" d="
	M337.054,53.666c-2.556,0.247-2.112,0.558-3.363,2.242"/>
<path fill-rule="evenodd" clip-rule="evenodd" fill="none" stroke="#000000" stroke-width="1.0001" stroke-linecap="round" stroke-miterlimit="2.6131" d="
	M332.288,48.34c-1.796,0.676-3.259,2.135-4.765,2.523"/>
<path fill-rule="evenodd" clip-rule="evenodd" fill="none" stroke="#000000" stroke-width="1.0001" stroke-linecap="round" stroke-miterlimit="2.6131" d="
	M324.72,44.415c-0.44,0.401-2.404,2.126-3.083,2.243"/>
<path fill-rule="evenodd" clip-rule="evenodd" fill="none" stroke="#000000" stroke-width="1.0001" stroke-linecap="round" stroke-miterlimit="2.6131" d="
	M319.674,40.491c-1.592,1.746-1.899,1.901-3.363,3.364"/>
<path fill-rule="evenodd" clip-rule="evenodd" fill="none" stroke="#000000" stroke-width="1.0001" stroke-linecap="round" stroke-miterlimit="2.6131" d="
	M310.704,35.165c-4.57,1.321-4.331,3.86-5.326,4.205"/>
<path fill-rule="evenodd" clip-rule="evenodd" fill="none" stroke="#000000" stroke-width="1.0001" stroke-linecap="round" stroke-miterlimit="2.6131" d="
	M299.211,32.082c-1.25,0.739-5.72,4.456-5.887,4.485"/>
<path fill-rule="evenodd" clip-rule="evenodd" fill="none" stroke="#000000" stroke-width="1.0001" stroke-linecap="round" stroke-miterlimit="2.6131" d="
	M293.044,28.437c-1.036,0.942-4.056,3.997-4.765,4.485"/>
<path fill-rule="evenodd" clip-rule="evenodd" fill="none" stroke="#000000" stroke-width="1.0001" stroke-linecap="round" stroke-miterlimit="2.6131" d="
	M285.476,23.952c-2.134,1.399-3.821,4.702-5.326,6.728"/>
<path fill-rule="evenodd" clip-rule="evenodd" fill="none" stroke="#000000" stroke-width="1.0001" stroke-linecap="round" stroke-miterlimit="2.6131" d="
	M279.869,20.028c-1.866,1.377-5.566,5.793-6.167,8.129"/>
<path fill-rule="evenodd" clip-rule="evenodd" fill="none" stroke="#000000" stroke-width="1.0001" stroke-linecap="round" stroke-miterlimit="2.6131" d="
	M267.255,17.505c-2.482,0.934-7.295,7.377-7.568,8.97"/>
<path fill-rule="evenodd" clip-rule="evenodd" fill="none" stroke="#000000" stroke-width="1.0001" stroke-linecap="round" stroke-miterlimit="2.6131" d="
	M255.202,14.702c-1.777,1.395-6.345,7.023-7.569,8.97"/>
<path fill-rule="evenodd" clip-rule="evenodd" fill="none" stroke="#000000" stroke-width="1.0001" stroke-linecap="round" stroke-miterlimit="2.6131" d="
	M242.027,22.271c1.478-2.148,8.72-8.017,8.69-8.41"/>
<path fill-rule="evenodd" clip-rule="evenodd" fill="none" stroke="#000000" stroke-width="1.0001" stroke-linecap="round" stroke-miterlimit="2.6131" d="
	M233.057,21.429c0.955-1.674,6.067-8.409,7.849-8.69"/>
<path fill-rule="evenodd" clip-rule="evenodd" fill="none" stroke="#000000" stroke-width="1.0001" stroke-linecap="round" stroke-miterlimit="2.6131" d="
	M225.488,20.588c1.842-2.935,5.788-5.776,6.728-7.568"/>
<path fill-rule="evenodd" clip-rule="evenodd" fill="none" stroke="#000000" stroke-width="1.0001" stroke-linecap="round" stroke-miterlimit="2.6131" d="
	M215.958,21.709c2.833-4.546,1.643-3.884,6.167-8.409"/>
<path fill-rule="evenodd" clip-rule="evenodd" fill="none" stroke="#000000" stroke-width="1.0001" stroke-linecap="round" stroke-miterlimit="2.6131" d="
	M208.669,23.111c0-3.768-0.537-4.468,1.402-7.849"/>
<path fill-rule="evenodd" clip-rule="evenodd" fill="none" stroke="#000000" stroke-width="1.0001" stroke-linecap="round" stroke-miterlimit="2.6131" d="
	M200.54,23.672c0-3.466,0.137-3.522,0.841-6.728"/>
<path fill-rule="evenodd" clip-rule="evenodd" fill="none" stroke="#000000" stroke-width="1.0001" stroke-linecap="round" stroke-miterlimit="2.6131" d="
	M192.691,25.354c0.042-1.326-0.475-1.661-0.841-3.083"/>
<path fill-rule="evenodd" clip-rule="evenodd" fill="none" stroke="#000000" stroke-width="1.0001" stroke-linecap="round" stroke-miterlimit="2.6131" d="
	M125.275,120.241c11.773,12.334,38.123,32.516,52.139,46.533c14.016,14.016,48.214,37.002,58.306,51.018
	c10.091,14.016,26.35,24.106,26.35,24.106s-14.577-19.622-22.986-33.077c-8.41-13.455-49.896-53.82-57.745-62.23
	c-7.849-8.41-28.592-24.668-33.077-33.077c-4.485-8.41-16.259-7.849-16.259-7.849l10.652,1.122l-4.485-10.652"/>
<path fill-rule="evenodd" clip-rule="evenodd" fill="none" stroke="#000000" stroke-width="1.0001" stroke-linecap="round" stroke-miterlimit="2.6131" d="
	M143.215,83.239c3.924,5.606,10.091,12.334,19.622,20.743s47.654,58.866,53.821,67.275c6.167,8.41,39.244,60.549,42.047,63.912
	c2.804,3.364-15.697-32.517-21.864-43.729c-6.167-11.212-33.638-56.063-43.169-70.079c-9.53-14.016-30.273-43.729-31.395-46.532
	c-1.121-2.803,5.046,2.803,5.046,2.803l-3.364-9.531"/>
<path fill-rule="evenodd" clip-rule="evenodd" fill="none" stroke="#000000" stroke-width="1.0001" stroke-linecap="round" stroke-miterlimit="2.6131" d="
	M269.918,35.024c1.121,15.698,4.485,45.972,4.485,87.459c0,41.486-0.561,62.229-0.561,83.534c0,21.304,0,28.031,0,28.031
	s5.605-26.35,6.728-33.077c1.121-6.728,5.605-70.079,6.728-84.095c1.121-14.016,3.364-48.215,4.485-53.821
	s2.242-21.304,2.242-21.304"/>
<path fill-rule="evenodd" clip-rule="evenodd" fill="none" stroke="#000000" stroke-width="1.0001" stroke-linecap="round" stroke-miterlimit="2.6131" d="
	M313.087,49.601c0,0-9.531,36.441-11.213,60.548c-1.682,24.107-9.53,58.866-15.697,90.822s-9.531,38.684-9.531,38.684"/>
<path fill-rule="evenodd" clip-rule="evenodd" fill="none" stroke="#000000" stroke-width="1.0001" stroke-linecap="round" stroke-miterlimit="2.6131" d="
	M274.403,230.686c0,0-5.046-53.26-12.334-72.322c-7.288-19.061-17.38-66.715-20.183-77.367
	c-2.803-10.651-11.773-36.44-13.456-42.607c-1.682-6.167-3.924-8.41-3.924-8.41"/>
<path fill-rule="evenodd" clip-rule="evenodd" fill="#FF0000" stroke="#000000" stroke-width="1.0001" stroke-linecap="round" stroke-miterlimit="2.6131" d="
	M267.045,240.847c-2.559-0.082-5.182,5.363,0.981,5.606c4.736,0.187,3.178-5.912-1.963-5.746L267.045,240.847z"/>
<path fill-rule="evenodd" clip-rule="evenodd" fill="#663333" stroke="#000000" stroke-width="1.0001" stroke-linecap="round" stroke-miterlimit="2.6131" d="
	M265.924,243.229c-1.712,5.304,4.191,6.627,2.486,0.981c-0.268-0.888-0.985-0.813-1.646-0.421L265.924,243.229z"/>
<path fill-rule="evenodd" clip-rule="evenodd" fill="#663300" stroke="#000000" stroke-width="1.0001" stroke-linecap="round" stroke-miterlimit="2.6131" d="
	M272.371,245.893c-0.52,0.438-5.727,1.914-7.185,0.877c-0.197-0.141-0.486,0.023-0.664,0.104
	c-3.099,11.101,4.594,6.476,0.035,14.028c-2.629,4.357-0.728,9.491,1.274,13.724c0.757,1.602-6.839,6.957,0.231,3.876
	c2.38-1.036,4.435,1.128,2.896-2.475c-2.779-6.507,2.938-0.126,2.303-8.514c-0.327-4.317-2.713-5.06,2.194-8.493
	c1.325-0.928-0.873-8.019,1.298-8.361C274.607,248.952,275.978,246.82,272.371,245.893z"/>
<path fill-rule="evenodd" clip-rule="evenodd" fill="#000066" stroke="#000000" stroke-width="1.0001" stroke-linecap="round" stroke-miterlimit="2.6131" d="
	M276.436,238.184c-1.588-1.01-5.079-0.52-4.613,2.663c0.459,3.141-0.88,3.613,2.23,6.155c1.248,1.021-0.421,9.09-0.421,11.225
	c0,3.291-3.492,1.482-1.821,6.307c1.969,0.507,0.523,1.665,5.045,1.109c5.189-0.638,7.8-3.812,7.301-9.799
	c-0.223-2.675-0.64-7.422-2.723-9.202c-2.381-2.034-2.756,1.14-2.756-3.272c-0.047,0-1.93-4.931-1.962-4.965L276.436,238.184z"/>
<path fill-rule="evenodd" clip-rule="evenodd" fill="#336698" stroke="#000000" stroke-width="0.5" stroke-linecap="round" stroke-miterlimit="2.6131" d="
	M281.341,256.124c0.846-0.949-1.539-2.217-1.822-1.682c-2.457-0.082-5.849,5.79-2.475,9.915c0.25,0.305,2.055,2.4,2.055,2.419
	c0.496,0,1.497,5.071,2.755,6.915c1.57,2.304,3.473-0.581,2.163-1.485c-2.33-1.608,1.403-4.761-3.144-10.159
	c-0.848-1.007,0.357-4.385,0.608-5.362C281.264,256.468,281.341,256.566,281.341,256.124z"/>
<path fill-rule="evenodd" clip-rule="evenodd" fill="none" stroke="#000000" stroke-width="1.0001" stroke-linecap="round" stroke-miterlimit="2.6131" d="
	M266.765,263.412c0.914,3.265,1.542,5.972,1.542,9.391"/>
<path fill-rule="evenodd" clip-rule="evenodd" fill="none" stroke="#000000" stroke-width="1.0001" stroke-linecap="round" stroke-miterlimit="2.6131" d="
	M293.673,187.143c10.482-3.378,16.096-3.723,26.371-4.987c2.011-0.247,8.797-5.471,14.65,0.383
	c4.174-3.455,27.129,2.757,36.106,0.107c9.729-2.871,7.08,3.911,21.658-3.527c0.341-0.174,18.158,2.537,30.976-2.751
	c3.358-1.386,11.002-2.509,13.777,0.347c0.103,0.105,3.225,2.379,3.385,2.476"/>
<path fill-rule="evenodd" clip-rule="evenodd" fill="none" stroke="#000000" stroke-width="1.0001" stroke-linecap="round" stroke-miterlimit="2.6131" d="
	M440.178,212.258c-4.774-3.808-16.471-6.286-23.165-2.93c-6.693,3.354-25.605,1.741-36.166,5.716
	c-11.227,4.226-24.935-3.205-40.185-3.205c-12.099,0-10.012-4.59-19.542-3.001l-1.495,0.071c-5.103-0.638-10.034,3.545-14.231,3.349
	c0,0.305-14.558-1.753-22.604,1.566c-6.504,2.684-18.487-2.625-33.906,3.349c-0.175,0.068-45.165,1.602-46.882,0.144
	c-3.765-3.196-10.636,3.651-21.24,3.313c-1.125-0.036-3.296,0.634-4.293,1.256"/>
<path fill-rule="evenodd" clip-rule="evenodd" fill="none" stroke="#000000" stroke-width="1.0001" stroke-linecap="round" stroke-miterlimit="2.6131" d="
	M148.423,229.839c-14.835,1.589-2.454-2.931-11.302-2.931c-1.6,6.219-3.283-1.421-11.72-0.383
	c-4.744,0.584-12.22,6.456-16.672,4.915c-0.129-0.625-19.07,2.066-21.001-2.857c-3.555-9.064-6.142,4.313-13.813,1.147
	c-6.136-2.531-9.711,7.054-11.721,2.201c-0.036-0.086-5.834-5.438-5.86-5.442"/>
<path fill-rule="evenodd" clip-rule="evenodd" fill="none" stroke="#000000" stroke-width="1.0001" stroke-linecap="round" stroke-miterlimit="2.6131" d="
	M54.66,244.07c6.295-10.643,14.827-3.188,22.185,0.837"/>
<path fill-rule="evenodd" clip-rule="evenodd" fill="none" stroke="#000000" stroke-width="1.0001" stroke-linecap="round" stroke-miterlimit="2.6131" d="
	M75.589,210.583c12.347-3.614,13.546-8.024,23.094-6.422c2.904,0.487,22.8-8.799,29.229-6.136c0.052,0.021,7.185-1.623,13.813,0.838
	"/>
</svg>
