<svg width="300" height="300" xmlns="http://www.w3.org/2000/svg">
 <g>
  <title>background</title>
 
 </g>

 <g>
  <title>background</title>
 </g>
 <style type="text/css">.st0{display:none;}
	.st1{display:inline;}
	.st2{fill:#EE7D00;}
	.st3{fill:#2F373B;}
	.st4{opacity:0.3;fill:url(#SVGID_1_);}
	.st5{fill:url(#SVGID_2_);}
	.st6{opacity:0.3;fill:url(#SVGID_3_);}
	.st7{fill:#FFFFFF;}
	.st8{opacity:0.4;fill:url(#SVGID_4_);}
	.st9{fill:url(#SVGID_5_);}
	.st10{fill:url(#SVGID_6_);}
	.st11{fill:#F1F2F2;}
	.st12{fill:#444A9A;}
	.st13{fill:#231F9A;}
	.st14{opacity:0.1;fill:#FFFFFF;}
	.st15{opacity:0.2;fill:#FFFFFF;}
	.st16{opacity:0.5;fill:url(#SVGID_7_);}
	.st17{opacity:0.5;fill:url(#SVGID_8_);}
	.st18{opacity:0.5;fill:url(#SVGID_9_);}
	.st19{opacity:0.5;fill:url(#SVGID_10_);}
	.st20{opacity:0.5;fill:url(#SVGID_11_);}
	.st21{opacity:0.5;fill:url(#SVGID_12_);}
	.st22{opacity:0.5;fill:url(#SVGID_13_);}
	.st23{opacity:0.5;fill:url(#SVGID_14_);}
	.st24{opacity:0.5;fill:url(#SVGID_15_);}
	.st25{opacity:0.5;fill:url(#SVGID_16_);}
	.st26{opacity:0.3;fill:url(#SVGID_17_);}
	.st27{opacity:0.3;fill:url(#SVGID_18_);}
	.st28{opacity:0.3;fill:url(#SVGID_19_);}
	.st29{opacity:0.3;fill:url(#SVGID_20_);}
	.st30{opacity:0.3;fill:url(#SVGID_21_);}
	.st31{opacity:0.3;fill:url(#SVGID_22_);}
	.st32{opacity:0.3;fill:url(#SVGID_23_);}
	.st33{opacity:0.3;fill:url(#SVGID_24_);}
	.st34{opacity:0.3;fill:url(#SVGID_25_);}
	.st35{opacity:0.3;fill:url(#SVGID_26_);}
	.st36{opacity:0.2;fill:#FABEA1;}
	.st37{fill:#FF57CA;}
	.st38{fill:#E6E7E8;}
	.st39{fill:#F2CAAA;}
	.st40{fill:#E1E2E3;}
	.st41{fill:url(#SVGID_27_);}
	.st42{fill:url(#SVGID_28_);}
	.st43{fill:#F246BC;}
	.st44{fill:#ECEDED;}
	.st45{fill:#BF8867;}
	.st46{fill:#F5D4B3;}
	.st47{fill:#EBC4A5;}
	.st48{fill:#A87967;}
	.st49{fill:url(#SVGID_29_);}
	.st50{fill:url(#SVGID_30_);}
	.st51{fill:url(#SVGID_31_);}
	.st52{fill:url(#SVGID_32_);}
	.st53{fill:url(#SVGID_33_);}
	.st54{fill:url(#SVGID_34_);}
	.st55{fill:url(#SVGID_35_);}
	.st56{fill:url(#SVGID_36_);}
	.st57{fill:url(#SVGID_37_);}
	.st58{fill:url(#SVGID_38_);}
	.st59{fill:url(#SVGID_39_);}
	.st60{fill:url(#SVGID_40_);}
	.st61{fill:url(#SVGID_41_);}
	.st62{fill:url(#SVGID_42_);}
	.st63{fill:url(#SVGID_43_);}
	.st64{fill:url(#SVGID_44_);}
	.st65{fill:url(#SVGID_45_);}
	.st66{fill:url(#SVGID_46_);}
	.st67{fill:url(#SVGID_47_);}
	.st68{fill:url(#SVGID_48_);}
	.st69{fill:url(#SVGID_49_);}
	.st70{fill:url(#SVGID_50_);}
	.st71{fill:url(#SVGID_51_);}
	.st72{fill:url(#SVGID_52_);}
	.st73{fill:url(#SVGID_53_);}
	.st74{fill:url(#SVGID_54_);}
	.st75{fill:url(#SVGID_55_);}
	.st76{fill:url(#SVGID_56_);}
	.st77{fill:url(#SVGID_57_);}
	.st78{fill:url(#SVGID_58_);}
	.st79{fill:url(#SVGID_59_);}
	.st80{fill:url(#SVGID_60_);}
	.st81{fill:url(#SVGID_61_);}
	.st82{fill:url(#SVGID_62_);}
	.st83{fill:url(#SVGID_63_);}
	.st84{fill:url(#SVGID_64_);}
	.st85{fill:url(#SVGID_65_);}
	.st86{fill:url(#SVGID_66_);}
	.st87{fill:url(#SVGID_67_);}
	.st88{fill:url(#SVGID_68_);}
	.st89{fill:url(#SVGID_69_);}
	.st90{fill:url(#SVGID_70_);}
	.st91{fill:url(#SVGID_71_);}
	.st92{fill:url(#SVGID_72_);}
	.st93{fill:url(#SVGID_73_);}
	.st94{fill:url(#SVGID_74_);}
	.st95{fill:url(#SVGID_75_);}
	.st96{fill:url(#SVGID_76_);}
	.st97{fill:url(#SVGID_77_);}
	.st98{fill:url(#SVGID_78_);}
	.st99{fill:url(#SVGID_79_);}
	.st100{fill:url(#SVGID_80_);}
	.st101{fill:url(#SVGID_81_);}
	.st102{opacity:0.5;fill:url(#SVGID_82_);}
	.st103{fill:#7DE5FF;}
	.st104{opacity:0.5;fill:url(#SVGID_83_);}
	.st105{fill:#6D7DFA;}
	.st106{opacity:0.5;fill:url(#SVGID_84_);}
	.st107{opacity:0.5;fill:url(#SVGID_85_);}
	.st108{opacity:0.2;fill:#857DFA;}
	.st109{opacity:0.2;fill:#84BAFA;}
	.st110{opacity:0.2;fill:#FA8E78;}
	.st111{font-family:'DINPro-Black';}
	.st112{font-size:27.6616px;}
	.st113{fill:#1A3136;}
	.st114{font-family:'D-DIN';}
	.st115{font-size:10.8089px;}
	.st116{letter-spacing:2;}
    #REPRODUCTOR{
   
    #CORAZON{
   )
    }
    }
    #LIKE{
   
    }
    }
    #CANDADO{
     
    }
    #EMAIL{
    
    }
    50%{
    visibility : visible ;
    transform : translateY(0)
    }
    60%,100%{
    visibility : visible ;
    transform : translateY(0)
    }
    }
    #LUPA{
     animation : fade11  0s ease-in-out infinite;
    visibility : hidden;
    }
    @keyframes fade11{
    0%,50%{
    visibility : hidden;
    transform : translateY(20px)
    }
    60%{
    visibility : visible ;
    transform : translateY(0)
    }
    70%,100%{
    visibility : visible ;
    transform : translateY(0)
    }
    }
    #TUERCA{
    animation : fade7  0s ease-in-out infinite;
    visibility : hidden;
    }
     @keyframes fade7{
    0%,55%{
    visibility : hidden;
    transform : translateY(20px)
    }
    65%{
    visibility : visible ;
    transform : translateY(0)
    }
    75%,100%{
    visibility : visible ;
    transform : translateY(0)
    }
    }
    #UBICACION{
    animation : fade8  0s ease-in-out infinite;
    visibility : hidden;
    }
     @keyframes fade8{
    0%,60%{
    visibility : hidden;
    transform : translateY(20px)
    }
    70%{
    visibility : visible ;
    transform : translateY(0)
    }
    80%,100%{
    visibility : visible ;
    transform : translateY(0)
    }
    }
    #Arm{
    animation : point 10s linear infinite;
    transform-origin : left ;
    transform-box : fill-box
    }
    @keyframes point{
    0%{
    transform : rotate(-3deg)
    }
    10%{
    transform : rotate(0)
    }
    20%{
    transform : rotate(-3deg)
    }
    30%{
    transform : rotate(0)
    }
    40%{
    transform : rotate(-3deg)
    }
    50%{
    transform : rotate(0)
    }
    60%{
    transform : rotate(-3deg)
    }
    70%{
    transform : rotate(0)
    }
    80%{
    transform : rotate(-3deg)
    }
    90%{
    transform : rotate(0)
    }
    100%{
    transform : rotate(-3deg)
    }
   
    }
    #TEXTO{
    animation : slide 10s ease-in-out infinite
    }
    @keyframes slide{
    0%{
    transform : translateY(-100px)
    }
    10%{
    transform : translateY(0)
    }
    20%,100%{
    transform : translateY(0)
    }
    }</style>
 <g>
  <title>Layer 1</title>
  <g id="LOGO" class="st0">
   <g class="st1" id="svg_1">
    <g id="svg_2">
     <g id="svg_3">
      <path class="st2" d="m422,489l1.2,0l-0.6,-2.5l0,0l-0.6,2.5l0,0zm-1.3,1.9l1.5,-5.2l1.1,0l1.4,5.2l-0.9,0l-0.3,-1.3l-1.5,0l-0.3,1.3l-1,0l0,0zm6,0l0,-0.5l0,0c-0.2,0.4 -0.4,0.6 -0.9,0.6c-0.9,0 -1.3,-0.7 -1.3,-2.1c0,-0.8 0.1,-1.3 0.4,-1.7c0.2,-0.2 0.5,-0.3 0.8,-0.3c0.4,0 0.7,0.2 0.9,0.6l0,0l0,-1.7l0.8,0l0,5.2l-0.7,0l0,-0.1zm0,-1.9c0,-0.5 0,-0.9 -0.1,-1.1c-0.1,-0.3 -0.3,-0.4 -0.6,-0.4c-0.2,0 -0.4,0.1 -0.5,0.3c-0.1,0.2 -0.1,0.6 -0.1,1.1c0,0.5 0,0.8 0.1,1.1c0.1,0.3 0.3,0.4 0.5,0.4c0.3,0 0.4,-0.1 0.5,-0.4c0.2,-0.2 0.2,-0.6 0.2,-1l0,0zm2.1,1.9l-1,-3.9l0.8,0l0.7,3.1l0,0l0.6,-3.1l0.8,0l-1,3.9l-0.9,0l0,0zm4.7,-3.1l0,2.2c0,0.2 0.1,0.3 0.2,0.3c0.1,0 0.1,0 0.1,0l0,0.5c-0.1,0.1 -0.3,0.1 -0.4,0.1c-0.4,0 -0.6,-0.2 -0.7,-0.5l0,0c-0.2,0.4 -0.5,0.6 -1,0.6c-0.7,0 -1,-0.4 -1,-1.1c0,-0.4 0.1,-0.7 0.3,-0.9c0.1,-0.1 0.3,-0.3 0.6,-0.3l0.6,-0.2c0.2,0 0.3,-0.1 0.3,-0.2c0.1,-0.1 0.1,-0.2 0.1,-0.4c0,-0.4 -0.2,-0.6 -0.5,-0.6c-0.4,0 -0.6,0.2 -0.6,0.7l-0.7,0c0,-0.4 0.1,-0.7 0.3,-1c0.2,-0.2 0.6,-0.3 1.1,-0.3c0.4,0 0.7,0.1 0.9,0.2c0.2,0.4 0.4,0.6 0.4,0.9l0,0zm-0.8,1.7l0,-0.7c-0.1,0.1 -0.2,0.1 -0.4,0.2c-0.3,0.1 -0.4,0.1 -0.4,0.2c-0.2,0.1 -0.3,0.3 -0.3,0.6c0,0.2 0,0.3 0.1,0.4c0.1,0.1 0.2,0.2 0.4,0.2c0.4,0 0.6,-0.3 0.6,-0.9l0,0zm1.4,1.4l0,-3.9l0.7,0l0,0.5l0,0c0.2,-0.4 0.5,-0.6 1,-0.6c0.6,0 1,0.4 1,1.1l0,2.9l-0.8,0l0,-2.7c0,-0.3 0,-0.4 -0.1,-0.5c-0.1,-0.1 -0.2,-0.2 -0.4,-0.2c-0.2,0 -0.3,0.1 -0.4,0.2c-0.1,0.1 -0.2,0.3 -0.2,0.6l0,2.6l-0.8,0l0,0zm5.3,-1.4l0.7,0c0,0.5 -0.1,0.9 -0.3,1.1c-0.2,0.3 -0.5,0.4 -1,0.4c-0.5,0 -0.9,-0.2 -1.1,-0.6c-0.2,-0.3 -0.3,-0.8 -0.3,-1.5c0,-0.7 0.1,-1.2 0.3,-1.5c0.2,-0.4 0.6,-0.6 1.1,-0.6c0.5,0 0.9,0.2 1.1,0.5c0.2,0.2 0.2,0.5 0.2,0.9l-0.8,0c0,-0.6 -0.2,-0.8 -0.6,-0.8c-0.3,0 -0.4,0.1 -0.5,0.4c-0.1,0.2 -0.1,0.6 -0.1,1.1c0,0.5 0,0.8 0.1,1.1c0.1,0.3 0.3,0.4 0.5,0.4c0.5,0 0.7,-0.3 0.7,-0.9l0,0zm3.8,-0.5l-2,0l0,0.2c0,0.8 0.2,1.2 0.7,1.2c0.2,0 0.4,-0.1 0.5,-0.3c0.1,-0.2 0.1,-0.4 0.1,-0.6l0.7,0c0,0.4 -0.1,0.8 -0.4,1c-0.2,0.2 -0.6,0.4 -1,0.4c-0.4,0 -0.7,-0.1 -1,-0.3c-0.3,-0.3 -0.5,-0.9 -0.5,-1.7c0,-1.4 0.5,-2.1 1.4,-2.1c0.5,0 0.9,0.2 1.1,0.5c0.2,0.3 0.3,0.7 0.3,1.3l0,0.4l0.1,0zm-2,-0.5l1.3,0l0,-0.2c0,-0.6 -0.2,-0.9 -0.6,-0.9c-0.5,0 -0.7,0.3 -0.7,1.1l0,0l0,0zm4.5,2.4l0,-0.5l0,0c-0.1,0.4 -0.4,0.6 -0.9,0.6c-0.8,0 -1.3,-0.7 -1.3,-2.1c0,-0.8 0.1,-1.3 0.4,-1.7c0.2,-0.2 0.5,-0.3 0.8,-0.3c0.4,0 0.7,0.2 0.9,0.6l0,0l0,-1.7l0.8,0l0,5.2l-0.7,0l0,-0.1zm0,-1.9c0,-0.5 0,-0.9 -0.1,-1.1c-0.1,-0.3 -0.3,-0.4 -0.6,-0.4c-0.2,0 -0.4,0.1 -0.5,0.3c-0.1,0.2 -0.1,0.6 -0.1,1.1c0,0.5 0,0.8 0.1,1.1c0.1,0.3 0.3,0.4 0.5,0.4c0.3,0 0.4,-0.1 0.5,-0.4c0.2,-0.2 0.2,-0.6 0.2,-1l0,0zm3.2,1.9l0,-5.2l1.3,0l0.9,3.8l0,0l0.9,-3.8l1.3,0l0,5.2l-0.8,0l0,-4.3l0,0l-1.1,4.3l-0.7,0l-1.1,-4.3l0,0l0,4.3l-0.7,0l0,0zm7.6,-3.1l0,2.2c0,0.2 0.1,0.3 0.2,0.3c0.1,0 0.1,0 0.1,0l0,0.5c-0.1,0.1 -0.3,0.1 -0.4,0.1c-0.4,0 -0.6,-0.2 -0.7,-0.5l0,0c-0.2,0.4 -0.5,0.6 -1,0.6c-0.7,0 -1,-0.4 -1,-1.1c0,-0.4 0.1,-0.7 0.3,-0.9c0.1,-0.1 0.3,-0.3 0.7,-0.3l0.6,-0.2c0.2,0 0.3,-0.1 0.3,-0.2c0.1,-0.1 0.1,-0.2 0.1,-0.4c0,-0.4 -0.2,-0.6 -0.5,-0.6c-0.4,0 -0.6,0.2 -0.6,0.7l-0.7,0c0,-0.4 0.1,-0.7 0.3,-1c0.2,-0.2 0.6,-0.3 1.1,-0.3c0.4,0 0.7,0.1 0.9,0.2c0.1,0.4 0.3,0.6 0.3,0.9l0,0zm-0.8,1.7l0,-0.7c-0.1,0.1 -0.2,0.1 -0.4,0.2c-0.3,0.1 -0.4,0.1 -0.4,0.2c-0.2,0.1 -0.3,0.3 -0.3,0.6c0,0.2 0,0.3 0.1,0.4c0.1,0.1 0.2,0.2 0.4,0.2c0.4,0 0.6,-0.3 0.6,-0.9l0,0zm1.4,1.4l0,-3.9l0.8,0l0,0.6l0,0c0.2,-0.5 0.5,-0.7 0.9,-0.7c0.1,0 0.1,0 0.2,0l0,0.8c-0.1,0 -0.2,0 -0.3,0c-0.5,0 -0.8,0.3 -0.8,0.9l0,2.3l-0.8,0l0,0zm2.1,0l0,-5.2l0.8,0l0,2.9l0,0l1.2,-1.6l0.9,0l-1.2,1.5l1.3,2.4l-0.9,0l-1,-1.8l-0.4,0.5l0,1.2l-0.7,0l0,0.1zm5.9,-1.9l-2,0l0,0.2c0,0.8 0.2,1.2 0.7,1.2c0.2,0 0.4,-0.1 0.5,-0.3c0.1,-0.2 0.1,-0.4 0.1,-0.6l0.7,0c0,0.4 -0.1,0.8 -0.4,1c-0.2,0.2 -0.6,0.4 -1,0.4c-0.4,0 -0.7,-0.1 -0.9,-0.3c-0.3,-0.3 -0.5,-0.9 -0.5,-1.7c0,-1.4 0.5,-2.1 1.4,-2.1c0.5,0 0.9,0.2 1.1,0.5c0.2,0.3 0.3,0.7 0.3,1.3l0,0.4l0,0zm-2,-0.5l1.3,0l0,-0.2c0,-0.6 -0.2,-0.9 -0.6,-0.9c-0.5,0 -0.7,0.3 -0.7,1.1l0,0l0,0zm2.2,-0.9l0,-0.6l0.5,0l0,-1.1l0.8,0l0,1.1l0.6,0l0,0.6l-0.6,0l0,2.3c0,0.2 0,0.3 0.1,0.3c0.1,0.1 0.1,0.1 0.3,0.1c0.1,0 0.2,0 0.3,0l0,0.6c-0.2,0 -0.4,0.1 -0.6,0.1c-0.3,0 -0.5,-0.1 -0.6,-0.2c-0.1,-0.1 -0.2,-0.4 -0.2,-0.8l0,-2.4l-0.6,0l0,0zm2.2,3.3l0,-3.9l0.8,0l0,3.9l-0.8,0l0,0zm0,-4.5l0,-0.8l0.8,0l0,0.8l-0.8,0l0,0zm1.5,4.5l0,-3.9l0.7,0l0,0.5l0,0c0.2,-0.4 0.5,-0.6 1,-0.6c0.6,0 1,0.4 1,1.1l0,2.9l-0.8,0l0,-2.7c0,-0.3 0,-0.4 -0.1,-0.5c-0.1,-0.1 -0.2,-0.2 -0.4,-0.2c-0.2,0 -0.3,0.1 -0.4,0.2c-0.1,0.1 -0.2,0.3 -0.2,0.6l0,2.6l-0.8,0l0,0zm3.3,0.3l0.7,0c0,0.1 0.1,0.2 0.2,0.3c0.1,0.1 0.2,0.1 0.4,0.1c0.2,0 0.4,-0.1 0.5,-0.2c0.1,-0.1 0.2,-0.3 0.2,-0.5l0,-0.6l0,0c-0.1,0.2 -0.2,0.3 -0.3,0.4c-0.2,0.1 -0.3,0.1 -0.5,0.1c-0.8,0 -1.2,-0.7 -1.2,-2c0,-1.3 0.4,-2 1.2,-2c0.2,0 0.4,0.1 0.6,0.2c0.1,0.1 0.2,0.2 0.3,0.4l0,0l0,-0.4l0.7,0l0,3.7c0,1 -0.5,1.5 -1.5,1.5c-0.5,0 -0.9,-0.1 -1.1,-0.4c-0.1,-0.1 -0.2,-0.3 -0.2,-0.6l0,0zm0.7,-2.4c0,0.4 0,0.8 0.1,1c0.1,0.3 0.3,0.5 0.5,0.5c0.4,0 0.7,-0.5 0.7,-1.4c0,-0.9 -0.2,-1.3 -0.6,-1.3c-0.3,0 -0.4,0.1 -0.5,0.4c-0.1,0.1 -0.2,0.4 -0.2,0.8z" id="svg_4"/>
     </g>
     <g id="svg_5">
      <path class="st2" d="m392.7,465l1.3,-1.3c0.1,-0.1 0.1,-0.1 0,-0.1l-1.3,0c-0.1,0 -0.2,-0.1 -0.2,-0.2l0,-5.1c0,-0.1 0.1,-0.2 0.2,-0.2l4.5,0c0.1,0 0.2,0.1 0.2,0.2l0,5.1c0,0.1 0,0.3 -0.1,0.3l-0.1,0l-4.6,3.1c-0.1,0 -0.1,0 -0.1,-0.1l0,-1.3c0,-0.2 0.1,-0.2 0.2,-0.4z" id="svg_6"/>
      <path class="st2" d="m386.2,465l1.3,-1.3c0.1,-0.1 0.1,-0.1 0,-0.1l-1.3,0c-0.1,0 -0.2,-0.1 -0.2,-0.2l0,-5.1c0,-0.1 0.1,-0.2 0.2,-0.2l4.5,0c0.1,0 0.2,0.1 0.2,0.2l0,5.1c0,0.1 0,0.3 -0.1,0.3l-0.1,0l-4.6,3.1c-0.1,0 -0.1,0 -0.1,-0.1l0,-1.3c0,-0.2 0.1,-0.2 0.2,-0.4z" id="svg_7"/>
     </g>
     <g id="svg_8">
      <g id="svg_9">
       <path class="st3" d="m382,472.7l-4,0.7c-0.1,-0.8 -0.4,-1.4 -0.9,-1.8c-0.5,-0.4 -1.1,-0.6 -1.9,-0.6c-1,0 -1.8,0.3 -2.4,1.1c-0.6,0.7 -0.9,1.9 -0.9,3.5c0,1.8 0.3,3.1 0.9,3.9c0.6,0.8 1.4,1.1 2.5,1.1c0.8,0 1.4,-0.2 1.9,-0.7c0.5,-0.4 0.8,-1.2 1,-2.3l4,0.7c-0.4,1.8 -1.2,3.2 -2.4,4.2c-1.2,0.9 -2.8,1.4 -4.8,1.4c-2.3,0 -4.1,-0.7 -5.4,-2.1c-1.3,-1.4 -2,-3.4 -2,-5.9c0,-2.6 0.7,-4.5 2,-6c1.3,-1.4 3.2,-2.1 5.5,-2.1c1.9,0 3.4,0.4 4.5,1.2c1.2,0.8 1.9,2.1 2.4,3.7z" id="svg_10"/>
       <path class="st3" d="m382.7,475.7c0,-1.4 0.3,-2.7 1,-3.9c0.7,-1.3 1.6,-2.2 2.8,-2.9c1.2,-0.7 2.6,-1 4.1,-1c2.3,0 4.3,0.8 5.8,2.3c1.5,1.5 2.2,3.4 2.2,5.8c0,2.3 -0.8,4.3 -2.3,5.8c-1.5,1.5 -3.4,2.3 -5.7,2.3c-1.4,0 -2.8,-0.3 -4.1,-1c-1.3,-0.6 -2.3,-1.6 -2.9,-2.8c-0.6,-1.4 -0.9,-2.9 -0.9,-4.6l0,0zm4.2,0.2l0,0c0,1.5 0.4,2.7 1.1,3.5c0.7,0.8 1.6,1.2 2.7,1.2c1.1,0 2,-0.4 2.7,-1.2c0.7,-0.8 1.1,-2 1.1,-3.6c0,-1.5 -0.4,-2.7 -1.1,-3.5c-0.7,-0.8 -1.6,-1.2 -2.7,-1.2c-1.1,0 -2,0.4 -2.7,1.2c-0.7,0.9 -1.1,2 -1.1,3.6z" id="svg_11"/>
       <rect x="400.4" y="462.3" class="st3" width="4.1" height="21.3" id="svg_12"/>
       <path class="st3" d="m411.5,484c-1.6,0 -2.9,-0.4 -3.8,-1.2c-0.9,-0.8 -1.4,-1.9 -1.5,-3.2c0,-0.9 0.2,-1.7 0.6,-2.4c0.4,-0.7 1,-1.2 1.7,-1.6c0.7,-0.4 1.8,-0.7 3.2,-1c1.9,-0.4 3.2,-0.8 3.9,-1.1l0,-0.4c0,-0.8 -0.2,-1.3 -0.6,-1.7c-0.4,-0.3 -1.1,-0.5 -2.2,-0.4c-0.7,0 -1.3,0.2 -1.7,0.5c-0.4,0.3 -0.7,0.8 -0.9,1.5l-3.7,-0.6c0.4,-1.5 1.1,-2.6 2.1,-3.4c1,-0.7 2.5,-1.1 4.5,-1.2c1.8,-0.1 3.2,0.1 4.1,0.5c0.9,0.4 1.5,0.9 1.9,1.6c0.4,0.7 0.6,1.9 0.6,3.6l0,3c0.5,8.4 -8.2,7.5 -8.2,7.5l0,0zm4.2,-7.9l0,0c-0.5,0.2 -1.3,0.4 -2.5,0.7c-1.1,0.3 -1.9,0.5 -2.2,0.8c-0.5,0.4 -0.8,0.9 -0.8,1.5c0,0.6 0.2,1.1 0.7,1.5c0.4,0.4 1,0.6 1.6,0.6c0.7,0 1.4,-0.3 2.1,-0.8c0.5,-0.4 0.8,-0.8 0.9,-1.4c0.1,-0.4 0.1,-1 0.1,-2l0.1,-0.9z" id="svg_13"/>
       <path class="st3" d="m438.9,467.8c1.6,0 2.9,0.4 3.8,1.2c0.9,0.8 1.4,1.9 1.5,3.2c0,0.9 -0.2,1.7 -0.6,2.4c-0.4,0.7 -1,1.2 -1.7,1.6c-0.7,0.4 -1.8,0.7 -3.2,1c-1.9,0.4 -3.2,0.8 -4,1.1l0,0.4c0,0.8 0.2,1.3 0.6,1.7c0.4,0.3 1.1,0.5 2.2,0.4c0.7,0 1.3,-0.2 1.7,-0.5c0.4,-0.3 0.7,-0.8 0.9,-1.5l3.7,0.6c-0.4,1.5 -1.1,2.6 -2.1,3.4c-1,0.7 -2.5,1.1 -4.5,1.2c-1.8,0 -3.2,-0.1 -4.1,-0.5c-0.9,-0.4 -1.5,-0.9 -1.9,-1.6c-0.4,-0.7 -0.6,-1.9 -0.6,-3.6l0,-3c-0.4,-8.4 8.3,-7.5 8.3,-7.5l0,0zm-4.3,7.9l0,0c0.5,-0.2 1.3,-0.4 2.5,-0.7c1.1,-0.3 1.9,-0.5 2.2,-0.8c0.5,-0.4 0.8,-0.9 0.8,-1.5c0,-0.6 -0.2,-1.1 -0.7,-1.5c-0.4,-0.4 -1,-0.6 -1.6,-0.6c-0.7,0 -1.4,0.3 -2.1,0.8c-0.5,0.4 -0.8,0.8 -0.9,1.4c-0.1,0.4 -0.1,1 -0.1,2l-0.1,0.9z" id="svg_14"/>
       <path class="st3" d="m460.5,484c-1.6,0 -2.9,-0.4 -3.8,-1.2c-0.9,-0.8 -1.4,-1.9 -1.5,-3.2c0,-0.9 0.2,-1.7 0.6,-2.4c0.4,-0.7 1,-1.2 1.7,-1.6c0.7,-0.4 1.8,-0.7 3.2,-1c1.9,-0.4 3.2,-0.8 3.9,-1.1l0,-0.4c0,-0.8 -0.2,-1.3 -0.6,-1.7c-0.4,-0.3 -1.1,-0.5 -2.2,-0.4c-0.7,0 -1.3,0.2 -1.7,0.5c-0.4,0.3 -0.7,0.8 -0.9,1.5l-3.7,-0.6c0.4,-1.5 1.1,-2.6 2.1,-3.4c1,-0.7 2.5,-1.1 4.5,-1.2c1.8,-0.1 3.2,0.1 4.1,0.5c0.9,0.4 1.5,0.9 1.9,1.6c0.4,0.7 0.6,1.9 0.7,3.6l0,3c0.4,8.4 -8.3,7.5 -8.3,7.5l0,0zm4.3,-7.9l0,0c-0.5,0.2 -1.3,0.4 -2.5,0.7c-1.1,0.3 -1.9,0.5 -2.2,0.8c-0.5,0.4 -0.8,0.9 -0.8,1.5c0,0.6 0.2,1.1 0.7,1.5c0.4,0.4 1,0.6 1.7,0.6c0.7,0 1.4,-0.3 2.1,-0.8c0.5,-0.4 0.8,-0.8 0.9,-1.4c0.1,-0.4 0.1,-1 0.1,-2l0,-0.9z" id="svg_15"/>
       <path class="st3" d="m429.4,468.1l0,3.3l-2.8,0l0,6.2c0,1.3 0,2 0.1,2.2c0.1,0.2 0.2,0.4 0.4,0.5c0.2,0.1 0.4,0.2 0.7,0.2c0.4,0 0.9,-0.1 1.6,-0.4l0.3,3.2c-0.9,0.4 -2,0.6 -3.2,0.6c-0.7,0 -1.4,-0.1 -2,-0.4c-0.6,-0.2 -1,-0.6 -1.3,-1c-0.3,-0.4 -0.5,-0.9 -0.6,-1.6c-0.1,-0.5 -0.1,-1.4 -0.1,-2.9l0,-6.7l-1.9,0l0,-3.3l1.9,0l0,-3.1l4.1,-2.4l0,5.5l2.8,0l0,0.1z" id="svg_16"/>
       <path class="st3" d="m449.7,483.6l-4.1,0l0,-15.5l3.8,0l0,2.2c0.6,-1 1.2,-1.7 1.8,-2.1c0.5,-0.3 1.1,-0.5 1.8,-0.5c0.9,0 1.8,0.3 2.7,0.8l-1.3,3.6c-0.7,-0.5 -1.3,-0.7 -1.9,-0.7c-0.6,0 -1.1,0.2 -1.5,0.5c-0.4,0.3 -0.7,0.9 -0.9,1.7c-0.2,0.8 -0.3,2.6 -0.3,5.2l0,4.8l-0.1,0z" id="svg_17"/>
       <rect x="471" y="462.3" class="st3" width="4.1" height="21.3" id="svg_18"/>
       <g id="svg_19">
        <path class="st3" d="m479.9,465.5c-0.1,-0.1 -0.1,-0.2 -0.2,-0.2c0,0 -0.1,-0.1 -0.2,-0.1c0.2,0 0.4,-0.1 0.5,-0.2c0.1,-0.1 0.2,-0.3 0.2,-0.5c0,-0.1 0,-0.3 -0.1,-0.4c-0.1,-0.1 -0.1,-0.2 -0.2,-0.2c-0.1,-0.1 -0.2,-0.1 -0.4,-0.1c-0.1,0 -0.3,0 -0.8,0l-0.5,0l0,2.6l0.5,0l0,-1.1l0.1,0c0.1,0 0.3,0 0.4,0.1c0.1,0.1 0.2,0.3 0.4,0.5l0.2,0.4l0.6,0l-0.3,-0.5c-0.2,-0.1 -0.2,-0.2 -0.2,-0.3zm-0.5,-0.6c-0.1,0 -0.3,0 -0.6,0l-0.2,0l0,-0.7l0.2,0c0.3,0 0.5,0 0.6,0c0.1,0 0.1,0.1 0.2,0.1c0,0.1 0.1,0.1 0.1,0.2c0,0.1 0,0.1 -0.1,0.2c-0.1,0.1 -0.1,0.2 -0.2,0.2z" id="svg_20"/>
        <path class="st3" d="m481.3,463.9c-0.2,-0.4 -0.5,-0.7 -0.9,-0.9c-0.4,-0.2 -0.8,-0.3 -1.2,-0.3c-0.4,0 -0.8,0.1 -1.2,0.3c-0.4,0.2 -0.7,0.5 -0.9,0.9c-0.2,0.4 -0.3,0.8 -0.3,1.2c0,0.4 0.1,0.8 0.3,1.2c0.2,0.4 0.5,0.7 0.9,0.9c0.4,0.2 0.8,0.3 1.2,0.3c0.4,0 0.8,-0.1 1.2,-0.3c0.4,-0.2 0.7,-0.5 0.9,-0.9c0.2,-0.4 0.3,-0.8 0.3,-1.2c0,-0.4 -0.1,-0.9 -0.3,-1.2zm-0.4,2.2c-0.2,0.3 -0.4,0.5 -0.7,0.7c-0.3,0.2 -0.6,0.3 -1,0.3c-0.3,0 -0.7,-0.1 -1,-0.3c-0.3,-0.2 -0.5,-0.4 -0.7,-0.7c-0.2,-0.3 -0.3,-0.6 -0.3,-1c0,-0.3 0.1,-0.7 0.3,-1c0.2,-0.3 0.4,-0.6 0.7,-0.7c0.3,-0.2 0.6,-0.3 1,-0.3c0.3,0 0.6,0.1 1,0.3c0.3,0.2 0.5,0.4 0.7,0.7c0.2,0.3 0.3,0.6 0.3,1c0,0.3 -0.1,0.6 -0.3,1z" id="svg_21"/>
       </g>
      </g>
     </g>
    </g>
   </g>
  </g>
  <g id="SUELO">
   <path class="st4" d="m572,362l0,-28.1l-8.7,0c-7,-11.1 -18.1,-21.5 -33.5,-30.4c-56.3,-32.5 -147.5,-32.5 -203.7,0c-15.4,8.9 -26.6,19.3 -33.5,30.4l-8.7,0l0,28.4c0,21.3 14.1,42.6 42.2,58.8c56.3,32.5 147.5,32.5 203.7,0c28.3,-16.3 42.3,-37.7 42.2,-59.1z" id="svg_22"/>
   <path class="st5" d="m529.8,275.6c56.3,32.5 56.3,85.1 0,117.6c-56.3,32.5 -147.5,32.5 -203.7,0c-56.3,-32.5 -56.3,-85.1 0,-117.6c56.2,-32.5 147.4,-32.5 203.7,0z" id="svg_23"/>
  </g>
  <g id="NUBE">
   <path class="st15" d="m518.6,208.7c0.9,-0.9 1.5,-2.4 1.5,-4.2c0,-5.3 -4.3,-12 -9.5,-15c-1.7,-1 -3.3,-1.4 -4.7,-1.4c-2,-5.5 -6.4,-11.1 -11.5,-14c-5.1,-2.9 -9.4,-2.4 -11.4,0.7c-1.3,-1.5 -2.9,-2.8 -4.5,-3.8c-3.3,-1.9 -6.2,-1.9 -7.9,-0.3l0,0l-6.2,4.9l8.1,6.3c1.6,2.6 3.8,5.1 6.3,6.7l0,0.1l9,5.2l25.1,19.6l5.6,-4.4c-0.1,-0.2 0,-0.3 0.1,-0.4l0,0l0,0z" id="svg_39"/>
   <path class="st7" d="m504.5,194.3c-1.7,-1 -3.3,-1.4 -4.7,-1.4c-2,-5.5 -6.4,-11.1 -11.5,-14c-5.1,-2.9 -9.4,-2.4 -11.4,0.7c-1.3,-1.5 -2.9,-2.8 -4.5,-3.8c-5.3,-3 -9.5,-1.2 -9.5,4c0,5 3.9,11.3 8.8,14.5l0,0.1l32.9,19c5.3,3 9.5,1.2 9.5,-4c-0.1,-5.3 -4.4,-12.1 -9.6,-15.1z" id="svg_40"/>
  </g>
  <style rel="stylesheet" type="text/css">:root {
        --animate-duration: 1s;
        --animate-delay: 1s;
        --animate-repeat: 1;
      }
      
       .animate__animated {
        -webkit-animation-duration: 1s;
        animation-duration: 1s;
        -webkit-animation-duration: var(--animate-duration);
        animation-duration: var(--animate-duration);
        -webkit-animation-fill-mode: both;
        animation-fill-mode: both;
      }
    
         @-webkit-keyframes flash {
          from,
          50%,
          to {
            opacity: 1;
          }
        
          25%,
          75% {
            opacity: 0;
          }
        }
        @keyframes flash {
          from,
          50%,
          to {
            opacity: 1;
          }
        
          25%,
          75% {
            opacity: 0;
          }
        }
        .animate__flash {
          -webkit-animation-name: flash;
          animation-name: flash;
        }
        
    .animate__animated.animate__infinite {
          -webkit-animation-iteration-count: infinite;
          animation-iteration-count: infinite;
        }
    
    .animate__animated.animate__slower {
          -webkit-animation-duration: calc(1s * 8);
          animation-duration: calc(1s * 8);
          -webkit-animation-duration: calc(var(--animate-duration) * 8);
          animation-duration: calc(var(--animate-duration) * 8);
        }</style>
  <g class="animate__animated animate__flash animate__infinite animate__slower">
   <path class="st102" d="m233.7151,80.54109l-122.95834,-71.25278c-10.08889,-5.675 -18.28611,-5.675 -23.96111,-1.89167l0,0l-41.61667,24.59167l35.94167,25.22222l0,88.27778c0,16.39445 13.24167,37.83334 30.26667,47.29167l103.41112,59.90278l-1.26111,39.725l44.13889,-25.85278l0,0c4.41389,-2.52222 6.93611,-7.56667 6.93611,-15.13333l0,-122.95834c-1.26111,-17.025 -14.50278,-38.46389 -30.89722,-47.92222l-0.00001,0z" id="svg_174" stroke="null" xmlns="http://www.w3.org/2000/svg"/>
  </g>
  <style rel="stylesheet" type="text/css">:root {
        --animate-duration: 1s;
        --animate-delay: 1s;
        --animate-repeat: 1;
      }
      
       .animate__animated {
        -webkit-animation-duration: 1s;
        animation-duration: 1s;
        -webkit-animation-duration: var(--animate-duration);
        animation-duration: var(--animate-duration);
        -webkit-animation-fill-mode: both;
        animation-fill-mode: both;
      }
    
         @-webkit-keyframes flash {
          from,
          50%,
          to {
            opacity: 1;
          }
        
          25%,
          75% {
            opacity: 0;
          }
        }
        @keyframes flash {
          from,
          50%,
          to {
            opacity: 1;
          }
        
          25%,
          75% {
            opacity: 0;
          }
        }
        .animate__flash {
          -webkit-animation-name: flash;
          animation-name: flash;
        }
        
    .animate__animated.animate__infinite {
          -webkit-animation-iteration-count: infinite;
          animation-iteration-count: infinite;
        }
    .animate__animated.animate__delay-2s {
          -webkit-animation-delay: calc(1s * 2);
          animation-delay: calc(1s * 2);
          -webkit-animation-delay: calc(var(--animate-delay) * 2);
          animation-delay: calc(var(--animate-delay) * 2);
        }
    .animate__animated.animate__slower {
          -webkit-animation-duration: calc(1s * 8);
          animation-duration: calc(1s * 8);
          -webkit-animation-duration: calc(var(--animate-duration) * 8);
          animation-duration: calc(var(--animate-duration) * 8);
        }</style>
  <g class="animate__animated animate__flash animate__infinite animate__delay-2s animate__slower">
   <path class="st103" d="m221.10399,276.64388c0,16.39445 -13.24167,22.06945 -30.26667,12.61111l-122.95834,-71.25278c-16.39445,-9.45833 -30.26667,-30.89722 -30.26667,-47.29167l0,-122.95834c0,-16.39445 13.24167,-22.06945 30.26667,-12.61111l122.95834,71.25278c16.39445,9.45833 30.26667,30.89722 30.26667,47.29167l0,122.95834z" id="svg_175" stroke="null" xmlns="http://www.w3.org/2000/svg"/>
  </g>
  <style rel="stylesheet" type="text/css">:root {
        --animate-duration: 1s;
        --animate-delay: 1s;
        --animate-repeat: 1;
      }
      
       .animate__animated {
        -webkit-animation-duration: 1s;
        animation-duration: 1s;
        -webkit-animation-duration: var(--animate-duration);
        animation-duration: var(--animate-duration);
        -webkit-animation-fill-mode: both;
        animation-fill-mode: both;
      }
    
         @-webkit-keyframes flash {
          from,
          50%,
          to {
            opacity: 1;
          }
        
          25%,
          75% {
            opacity: 0;
          }
        }
        @keyframes flash {
          from,
          50%,
          to {
            opacity: 1;
          }
        
          25%,
          75% {
            opacity: 0;
          }
        }
        .animate__flash {
          -webkit-animation-name: flash;
          animation-name: flash;
        }
        
    .animate__animated.animate__infinite {
          -webkit-animation-iteration-count: infinite;
          animation-iteration-count: infinite;
        }
    .animate__animated.animate__delay-3s {
          -webkit-animation-delay: calc(1s * 3);
          animation-delay: calc(1s * 3);
          -webkit-animation-delay: calc(var(--animate-delay) * 3);
          animation-delay: calc(var(--animate-delay) * 3);
        }
    .animate__animated.animate__slower {
          -webkit-animation-duration: calc(1s * 8);
          animation-duration: calc(1s * 8);
          -webkit-animation-duration: calc(var(--animate-duration) * 8);
          animation-duration: calc(var(--animate-duration) * 8);
        }</style>
  <g class="animate__animated animate__flash animate__infinite animate__delay-3s animate__slower">
   <path class="st7" d="m170.65954,134.76887c-10.08889,-17.025 -22.7,-30.26667 -35.94167,-37.83334c-13.24167,-7.56667 -25.85278,-9.45833 -35.94167,-3.78333c-16.39445,9.45833 -18.91667,35.31111 -8.82778,63.68611l-0.63056,0l-24.59167,14.50278c-5.675,3.15278 -5.675,13.24167 0,22.7c2.52222,4.41389 6.30556,8.19722 10.08889,10.08889c3.78333,1.89167 6.93611,2.52222 10.08889,1.26111l25.22222,-13.87222l0,-0.63056c7.56667,9.45833 16.39445,17.025 25.22222,22.06945c13.24167,7.56667 25.85278,8.82778 35.94167,3.15278c18.91667,-10.71945 19.54722,-47.29167 -0.63056,-81.34167l0.00002,0zm-12.61111,61.16389c-6.30556,3.78333 -15.13333,2.52222 -23.96111,-2.52222c-8.82778,-5.04444 -17.025,-13.87222 -23.96111,-24.59167c-12.61111,-22.06945 -12.61111,-46.66111 0.63056,-53.59723c6.30556,-3.78333 15.13333,-2.52222 23.96111,2.52222c8.82778,5.04444 17.025,13.24167 23.96111,24.59167c12.61111,22.06945 12.61111,46.03056 -0.63056,53.59723z" id="svg_176" stroke="null" xmlns="http://www.w3.org/2000/svg"/>
  </g>
  <g id="TUERCA">
   <g id="svg_177">
    <path class="st104" d="m552.3,268l-19.5,-11.3c-1.6,-0.9 -2.9,-0.9 -3.8,-0.3l0,0l-6.6,3.9l5.7,4l0,14c0,2.6 2.1,6 4.8,7.5l16.4,9.5l-0.2,6.3l7,-4.1l0,0c0.7,-0.4 1.1,-1.2 1.1,-2.4l0,-19.5c-0.2,-2.7 -2.3,-6.1 -4.9,-7.6z" id="svg_178"/>
    <path class="st105" d="m550.3,299c0,2.6 -2.1,3.5 -4.8,2l-19.5,-11.2c-2.6,-1.5 -4.8,-4.9 -4.8,-7.5l0,-19.5c0,-2.6 2.1,-3.5 4.8,-2l19.5,11.3c2.6,1.5 4.8,4.9 4.8,7.5l0,19.4z" id="svg_179"/>
    <path class="st7" d="m545.5,288.1l-1.2,-1.3c0,-0.3 0.1,-0.6 0.1,-0.9c0,-0.3 0,-0.6 -0.1,-1l1.2,0c0.5,0 0.6,-0.5 0.4,-1.1l-2.5,-5.8c-0.3,-0.6 -0.9,-1.1 -1.3,-1.1l-1.2,0c-0.5,-0.7 -1,-1.3 -1.6,-1.9l0,-1.3c0,-0.5 -0.4,-1.2 -1,-1.5l-5.1,-2.9c-0.5,-0.3 -1,-0.1 -1,0.4l0,1.3c-0.6,-0.1 -1.1,-0.1 -1.6,0l-1.2,-1.3c-0.5,-0.5 -1.1,-0.7 -1.3,-0.4l-2.5,2.9c-0.3,0.3 -0.1,1 0.4,1.5l1.2,1.3c0,0.3 -0.1,0.6 -0.1,0.9c0,0.3 0,0.6 0.1,1l-1.2,0c-0.5,0 -0.6,0.5 -0.4,1.1l2.5,5.8c0.3,0.6 0.8,1.1 1.3,1.1l1.2,0c0.5,0.7 1,1.3 1.6,1.9l0,1.3c0,0.5 0.4,1.2 1,1.5l5.1,2.9c0.5,0.3 1,0.1 1,-0.4l0,-1.3c0.6,0.1 1.1,0.1 1.6,0l1.2,1.3c0.5,0.5 1.1,0.7 1.3,0.4l2.5,-2.9c0.2,-0.3 0.1,-1 -0.4,-1.5zm-9.7,-2.4c-2.7,-1.6 -4.9,-5 -4.9,-7.7c0,-2.7 2.2,-3.6 4.9,-2.1c2.7,1.6 4.9,5 4.9,7.7c0,2.8 -2.2,3.7 -4.9,2.1z" id="svg_180"/>
   </g>
  </g>
  <g id="UBICACION">
   <ellipse class="st106" cx="537.4" cy="242.9" rx="12.4" ry="7.2" id="svg_181"/>
   <path class="st107" d="m560.6,211.5c0,-8.6 -7,-19.6 -15.6,-24.6c-4.9,-2.8 -9.2,-3.1 -12,-1.3l0,0l-8.1,5l4.9,0c-0.2,0.9 -0.3,1.8 -0.3,2.9c0,0.5 0,1.1 0.1,1.7l-3.2,3.4l2.6,15.6l7.9,2.9c2.4,5.6 4.9,10.7 6.6,13.4l-4.2,6.3l8,-4.8l0,0c4.5,-2.7 13.3,-13.3 13.3,-20.5zm-15.6,1.1c-5.5,-3.1 -9.9,-10.1 -9.9,-15.6c0,-1.9 0.6,-3.3 1.5,-4.3l9.7,10.5l4.5,10.8c-1.6,0.3 -3.6,-0.1 -5.8,-1.4z" id="svg_182"/>
   <path class="st37" d="m537.4,191.5c-8.6,-5 -15.6,-2 -15.6,6.6c0,8.6 12.8,37.3 15.6,38.9c2.8,1.6 15.6,-12.3 15.6,-20.9c0,-8.6 -6.9,-19.6 -15.6,-24.6zm0,25.7c-5.5,-3.1 -9.9,-10.1 -9.9,-15.6c0,-5.5 4.4,-7.3 9.9,-4.2c5.4,3.1 9.9,10.1 9.9,15.6c0,5.5 -4.4,7.4 -9.9,4.2z" id="svg_183"/>
   <path class="st37" d="m539.5,241.7c1.2,0.7 1.2,1.8 0,2.4c-1.2,0.7 -3,0.7 -4.2,0c-1.2,-0.7 -1.2,-1.7 0,-2.4c1.2,-0.7 3.1,-0.7 4.2,0z" id="svg_184"/>
  </g>
 </g>
</svg>