<?xml version="1.0" encoding="utf-8"?>
<!-- Generator: Adobe Illustrator 16.0.0, SVG Export Plug-In . SVG Version: 6.00 Build 0)  -->
<!DOCTYPE svg PUBLIC "-//W3C//DTD SVG 1.1//EN" "http://www.w3.org/Graphics/SVG/1.1/DTD/svg11.dtd">
<svg version="1.1" id="Layer_1" xmlns="http://www.w3.org/2000/svg" xmlns:xlink="http://www.w3.org/1999/xlink" x="0px" y="0px"
	 width="20px" height="20px" viewBox="0 0 20 20" enable-background="new 0 0 20 20" xml:space="preserve">
<polygon fill-rule="evenodd" clip-rule="evenodd" fill="#DDE1E1" points="6.883,5.03 6.883,5.114 6.879,5.146 6.875,5.179 
	6.867,5.211 6.867,5.125 6.875,5.092 6.879,5.062 "/>
<polygon fill-rule="evenodd" clip-rule="evenodd" fill="#DDE1E1" points="6.867,5.125 6.867,5.211 6.313,6.839 6.313,6.755 "/>
<polygon fill-rule="evenodd" clip-rule="evenodd" fill="#DDE1E1" points="6.313,6.755 6.313,6.839 5.959,6.677 5.959,6.592 "/>
<path fill-rule="evenodd" clip-rule="evenodd" fill="#C5CCD1" d="M5.959,6.592L4.003,5.69l2.193-1.265l0.43,0.248
	c0.108,0.062,0.181,0.134,0.221,0.208c0.04,0.076,0.048,0.159,0.02,0.243l-0.554,1.63L5.959,6.592z"/>
<polygon fill-rule="evenodd" clip-rule="evenodd" fill="#C5CCD1" points="16.534,9.713 14.836,8.733 14.82,8.728 14.8,8.724 
	14.783,8.719 14.764,8.719 14.748,8.717 14.728,8.719 14.707,8.724 14.688,8.725 14.667,8.731 14.643,8.737 14.623,8.745 
	14.6,8.755 14.579,8.765 14.555,8.777 14.535,8.793 14.511,8.806 14.487,8.821 14.467,8.84 14.447,8.858 14.422,8.876 14.406,8.896 
	14.386,8.918 14.365,8.938 14.346,8.96 14.325,8.984 14.31,9.006 14.294,9.03 14.277,9.057 14.262,9.081 14.245,9.107 14.229,9.133 
	14.218,9.159 14.202,9.185 14.189,9.211 14.182,9.239 14.169,9.268 14.157,9.294 14.149,9.322 14.142,9.35 14.133,9.376 
	14.129,9.404 14.125,9.432 14.121,9.458 14.117,9.487 14.117,9.513 14.117,9.541 14.117,9.564 14.117,9.591 14.121,9.615 
	14.125,9.637 14.129,9.659 14.133,9.679 14.142,9.697 14.149,9.717 14.157,9.733 14.169,9.752 14.182,9.766 14.189,9.78 
	14.202,9.793 14.218,9.804 15.913,10.786 15.9,10.774 15.889,10.76 15.876,10.746 15.868,10.731 15.856,10.715 15.849,10.698 
	15.841,10.679 15.832,10.659 15.828,10.639 15.824,10.617 15.82,10.595 15.816,10.571 15.812,10.545 15.812,10.521 15.812,10.495 
	15.816,10.466 15.82,10.44 15.824,10.413 15.828,10.384 15.832,10.358 15.841,10.33 15.849,10.302 15.856,10.276 15.868,10.248 
	15.876,10.22 15.889,10.193 15.9,10.165 15.913,10.139 15.929,10.113 15.94,10.087 15.956,10.061 15.973,10.037 15.988,10.013 
	16.009,9.986 16.025,9.964 16.045,9.94 16.062,9.918 16.081,9.898 16.102,9.876 16.121,9.858 16.146,9.838 16.166,9.82 
	16.186,9.804 16.209,9.788 16.229,9.772 16.254,9.76 16.273,9.746 16.299,9.735 16.318,9.726 16.342,9.717 16.362,9.711 
	16.382,9.707 16.402,9.702 16.422,9.699 16.442,9.697 16.463,9.699 16.479,9.702 16.499,9.703 16.515,9.707 "/>
<path fill-rule="evenodd" clip-rule="evenodd" fill="#E6EAEB" d="M16.218,10.764c0.249-0.145,0.449-0.496,0.449-0.785
	s-0.2-0.406-0.449-0.261c-0.254,0.145-0.454,0.496-0.454,0.785S15.964,10.908,16.218,10.764z"/>
<polygon fill-rule="evenodd" clip-rule="evenodd" fill="#A3ADB5" points="16.503,9.669 16.451,9.639 16.435,9.633 16.414,9.629 
	16.398,9.627 16.379,9.623 16.358,9.623 16.339,9.625 16.318,9.627 16.299,9.633 16.273,9.637 16.254,9.643 16.229,9.651 
	16.209,9.661 16.186,9.673 16.161,9.686 16.137,9.699 16.113,9.715 16.094,9.731 16.069,9.748 16.049,9.768 16.029,9.788 
	16.005,9.808 15.984,9.83 15.964,9.852 15.944,9.874 15.924,9.898 15.908,9.92 15.889,9.946 15.872,9.971 15.856,9.999 
	15.841,10.022 15.824,10.051 15.812,10.079 15.801,10.105 15.788,10.133 15.776,10.161 15.764,10.191 15.751,10.22 15.743,10.246 
	15.735,10.276 15.728,10.304 15.724,10.332 15.716,10.36 15.716,10.388 15.711,10.417 15.708,10.444 15.708,10.473 15.708,10.499 
	15.711,10.522 15.716,10.547 15.716,10.571 15.724,10.593 15.728,10.615 15.735,10.635 15.743,10.655 15.751,10.671 15.764,10.689 
	15.776,10.706 15.788,10.718 15.801,10.734 15.812,10.744 15.868,10.775 15.852,10.764 15.841,10.75 15.828,10.735 15.816,10.722 
	15.809,10.704 15.801,10.686 15.792,10.665 15.784,10.645 15.776,10.625 15.771,10.603 15.769,10.579 15.764,10.555 15.764,10.529 
	15.764,10.502 15.764,10.475 15.764,10.449 15.769,10.42 15.771,10.392 15.776,10.362 15.784,10.336 15.792,10.308 15.801,10.278 
	15.809,10.25 15.816,10.221 15.828,10.193 15.841,10.165 15.852,10.137 15.868,10.109 15.881,10.083 15.896,10.055 15.913,10.029 
	15.929,10.002 15.944,9.979 15.961,9.952 15.98,9.928 16.001,9.904 16.021,9.882 16.041,9.86 16.062,9.84 16.081,9.818 
	16.102,9.798 16.126,9.78 16.149,9.762 16.169,9.746 16.193,9.731 16.218,9.717 16.238,9.703 16.262,9.693 16.286,9.683 
	16.307,9.675 16.33,9.669 16.351,9.663 16.374,9.659 16.391,9.657 16.411,9.655 16.431,9.655 16.451,9.657 16.471,9.659 
	16.486,9.666 "/>
<path fill-rule="evenodd" clip-rule="evenodd" fill="#DADFE3" d="M16.218,10.754c0.245-0.143,0.441-0.486,0.441-0.77
	c0-0.283-0.196-0.397-0.441-0.255c-0.245,0.14-0.446,0.484-0.446,0.767S15.973,10.894,16.218,10.754z"/>
<path fill-rule="evenodd" clip-rule="evenodd" fill="#646E75" d="M16.218,10.619c0.181-0.104,0.325-0.359,0.325-0.568
	s-0.145-0.293-0.325-0.189c-0.185,0.104-0.329,0.359-0.329,0.568S16.033,10.724,16.218,10.619z"/>
<path fill-rule="evenodd" clip-rule="evenodd" fill="#9E3636" d="M16.149,9.908c-0.129,0.104-0.229,0.279-0.257,0.444l0.201,0.113
	l-0.008-0.004l-0.005-0.006l-0.004-0.006l-0.004-0.004l-0.004-0.008l-0.004-0.006l-0.004-0.01l-0.005-0.006v-0.01l-0.003-0.008
	v-0.01l-0.005-0.01v-0.01v-0.01v-0.01v-0.012l0.005-0.01v-0.012l0.003-0.012v-0.01l0.005-0.012l0.004-0.012l0.004-0.012l0.004-0.01
	l0.004-0.012l0.004-0.01l0.005-0.012l0.008-0.01l0.003-0.012l0.005-0.01l0.008-0.01l0.008-0.012l0.004-0.008l0.008-0.013
	l0.008-0.008l0.009-0.01l0.008-0.01l0.008-0.008l0.008-0.008l0.009-0.008l0.008-0.008l0.008-0.008l0.008-0.008l0.013-0.006
	l0.008-0.006l0.008-0.006l0.012-0.004l0.008-0.006l0.009-0.002l0.012-0.004l0.009-0.004l0.008-0.002h0.008h0.008l0.008-0.001h0.009
	l0.008,0.001h0.008l0.005,0.002l0.008,0.001L16.149,9.908z"/>
<path fill-rule="evenodd" clip-rule="evenodd" fill="#E74C3C" d="M16.218,10.446c0.097-0.056,0.177-0.195,0.177-0.309
	c0-0.115-0.08-0.159-0.177-0.103c-0.101,0.056-0.181,0.195-0.181,0.309C16.037,10.457,16.117,10.505,16.218,10.446z"/>
<polygon fill-rule="evenodd" clip-rule="evenodd" fill="#DDE1E1" points="14.724,11.145 14.724,11.409 17.728,6.619 17.728,6.357 
	"/>
<polygon fill-rule="evenodd" clip-rule="evenodd" fill="#BFC7C9" points="11.281,9.434 11.281,9.892 14.655,11.84 14.655,11.385 "/>
<path fill-rule="evenodd" clip-rule="evenodd" fill="#C5CCD1" d="M14.671,11.228l0.442-0.705l0.004-0.001l0.57-0.914
	c0.004-0.008,0.012-0.016,0.016-0.024l2.024-3.226c0.068-0.11,0.08-0.225,0.04-0.331c-0.04-0.105-0.136-0.203-0.28-0.288
	l-1.081-0.623l-4.932,4.266L14.671,11.228z"/>
<polygon fill-rule="evenodd" clip-rule="evenodd" fill="#DDE1E1" points="17.728,6.357 17.728,6.619 17.752,6.576 17.768,6.536 
	17.78,6.494 17.788,6.452 17.792,6.412 17.792,6.149 17.788,6.19 17.78,6.233 17.768,6.273 17.752,6.315 "/>
<path fill-rule="evenodd" clip-rule="evenodd" fill="#C5CCD1" d="M17.592,16.027l-0.169-0.044l-0.156-0.046l-0.157-0.042
	l-0.157-0.045l-0.156-0.046l-0.164-0.05l-0.178-0.053l-0.12-0.04l-0.12-0.039l-0.112-0.043l-0.108-0.045l-0.104-0.046l-0.104-0.05
	l-0.101-0.053l-0.104-0.057l-3.354-1.938l-3.551-2.051l-0.381-0.277l-0.382-0.277l-0.385-0.277l-0.382-0.275L6.763,9.958
	L6.381,9.679L5.996,9.404L5.614,9.125L2.818,6.574C2.3,6.412,2.569,5.134,3.469,5.446l5.74,2.641l3.78,1.986l1.434,0.83l0.924,0.547
	l2.054,1.22c0.498,0.295,0.726,0.711,0.903,0.907c0.919,1.017,0.851,1.161,0.851,1.971l-0.008,0.064l-0.024,0.063l-0.035,0.06
	l-0.048,0.056l-0.064,0.055l-0.077,0.051l-0.141,0.08l-0.088,0.044l-0.097,0.038l-0.101,0.028l-0.104,0.022l-0.108,0.012
	l-0.112,0.004l-0.116-0.004C17.853,16.096,17.772,16.073,17.592,16.027z"/>
<path fill-rule="evenodd" clip-rule="evenodd" fill="#AEB7BD" d="M17.592,16.027l-0.169-0.044l-0.156-0.046l-0.157-0.042
	l-0.157-0.045l-0.156-0.046l-0.164-0.05l-0.178-0.053l-0.12-0.04l-0.12-0.039l-0.112-0.043l-0.108-0.045l-0.104-0.046l-0.104-0.05
	l-0.101-0.053l-0.104-0.057l-3.354-1.938l-3.551-2.051l-0.381-0.277l-0.382-0.277l-0.385-0.277l-0.382-0.275L6.763,9.958
	L6.381,9.679L5.996,9.404L5.614,9.125L2.818,6.574c-0.261-0.08-0.321-0.441-0.209-0.743c0.594,0.821,3.45,3.147,6.318,4.954
	c4.114,2.59,8.688,5.387,9.986,4.662c0.136-0.09,0.145-0.108,0.24-0.245c0.005,0.103,0,0.215,0,0.346l-0.008,0.064l-0.024,0.063
	l-0.035,0.06l-0.048,0.056l-0.064,0.055l-0.077,0.051l-0.141,0.08l-0.088,0.044l-0.097,0.038l-0.101,0.028l-0.104,0.022
	l-0.108,0.012l-0.112,0.004l-0.116-0.004C17.853,16.096,17.772,16.073,17.592,16.027z"/>
<path fill-rule="evenodd" clip-rule="evenodd" fill="#DADFE3" d="M2.846,5.512c0.052-0.039,0.112-0.071,0.177-0.091
	C3.071,5.43,3.12,5.444,3.171,5.46l5.913,2.721l3.892,2.048l1.479,0.854l0.951,0.564l2.116,1.255
	c0.515,0.306,0.748,0.733,0.933,0.937c0.261,0.287,0.441,0.506,0.57,0.69c0.08,0.165,0.112,0.313,0.125,0.483
	c-0.182-0.164-0.406-0.318-0.632-0.52c-0.288-0.255-0.461-0.723-1.111-1.149C13.595,10.848,4.341,6.068,2.846,5.512z"/>
<g>
	<path fill-rule="evenodd" clip-rule="evenodd" fill="#8AD2ED" d="M14.365,12.955l-0.048-0.028
		c-0.072-0.042-0.132-0.008-0.132,0.076v0.186c0,0.083,0.06,0.188,0.132,0.23l0.048,0.027c0.077,0.043,0.138,0.009,0.138-0.075
		v-0.183C14.503,13.102,14.442,12.997,14.365,12.955z"/>
	<g>
		<path fill-rule="evenodd" clip-rule="evenodd" fill="#8AD2ED" d="M13.526,12.469c-0.016-0.008-0.032-0.019-0.048-0.028
			c-0.072-0.042-0.133-0.008-0.133,0.078c0,0.062,0,0.122,0,0.184c0,0.084,0.061,0.188,0.133,0.23
			c0.016,0.011,0.032,0.021,0.048,0.03c0.076,0.042,0.137,0.006,0.137-0.078c0-0.061,0-0.122,0-0.183
			C13.663,12.617,13.603,12.511,13.526,12.469z"/>
		<path fill-rule="evenodd" clip-rule="evenodd" fill="#8AD2ED" d="M12.687,11.985c-0.016-0.011-0.031-0.019-0.048-0.028
			c-0.072-0.042-0.133-0.009-0.133,0.076c0,0.062,0,0.122,0,0.183c0,0.087,0.061,0.19,0.133,0.234
			c0.017,0.008,0.032,0.019,0.048,0.027c0.077,0.041,0.137,0.008,0.137-0.077c0-0.063,0-0.122,0-0.185
			C12.823,12.132,12.764,12.027,12.687,11.985z"/>
		<path fill-rule="evenodd" clip-rule="evenodd" fill="#8AD2ED" d="M11.848,11.501c-0.017-0.011-0.032-0.021-0.048-0.028
			c-0.072-0.043-0.133-0.008-0.133,0.076c0,0.063,0,0.123,0,0.186c0,0.083,0.061,0.188,0.133,0.23
			c0.016,0.01,0.031,0.018,0.048,0.028c0.076,0.044,0.136,0.008,0.136-0.076c0-0.063,0-0.123,0-0.183
			C11.983,11.647,11.924,11.543,11.848,11.501z"/>
		<path fill-rule="evenodd" clip-rule="evenodd" fill="#8AD2ED" d="M11.008,11.015c-0.016-0.008-0.032-0.018-0.048-0.028
			c-0.073-0.042-0.133-0.005-0.133,0.078c0,0.061,0,0.123,0,0.183c0,0.085,0.06,0.191,0.133,0.233
			c0.016,0.009,0.032,0.019,0.048,0.028c0.076,0.043,0.137,0.008,0.137-0.079c0-0.06,0-0.122,0-0.183
			C11.145,11.164,11.084,11.057,11.008,11.015z"/>
	</g>
	<path fill-rule="evenodd" clip-rule="evenodd" fill="#8AD2ED" d="M10.169,10.531l-0.048-0.028
		c-0.073-0.042-0.133-0.008-0.133,0.077v0.183c0,0.086,0.06,0.191,0.133,0.232l0.048,0.028c0.076,0.042,0.132,0.009,0.132-0.076
		v-0.185C10.301,10.678,10.245,10.573,10.169,10.531z"/>
	<path fill-rule="evenodd" clip-rule="evenodd" fill="#8AD2ED" d="M9.354,10.059c-0.016-0.008-0.032-0.018-0.049-0.028
		c-0.072-0.042-0.132-0.008-0.132,0.078c0,0.063,0,0.123,0,0.183c0,0.084,0.06,0.19,0.132,0.233c0.017,0.01,0.033,0.018,0.049,0.028
		c0.076,0.042,0.132,0.008,0.132-0.078c0-0.061,0-0.121,0-0.183C9.486,10.208,9.43,10.103,9.354,10.059z"/>
	<path fill-rule="evenodd" clip-rule="evenodd" fill="#8AD2ED" d="M8.514,9.575c-0.016-0.01-0.032-0.018-0.048-0.028
		C8.393,9.504,8.333,9.541,8.333,9.625c0,0.061,0,0.121,0,0.183c0,0.086,0.06,0.188,0.132,0.233
		c0.016,0.008,0.032,0.018,0.048,0.028c0.077,0.042,0.133,0.008,0.133-0.078c0-0.06,0-0.123,0-0.183
		C8.646,9.723,8.59,9.617,8.514,9.575z"/>
</g>
<path fill-rule="evenodd" clip-rule="evenodd" fill="#2192FC" d="M17.595,14.286c-0.65,0.376-1.152,0.03-1.763-0.277l0.262,0.021
	c0.811,0.06,1.884-0.601,1.687-1.041C18.138,13.499,18.366,13.842,17.595,14.286z"/>
<path fill-rule="evenodd" clip-rule="evenodd" fill="#8AD2ED" d="M15.832,14.009l0.262,0.021c0.811,0.06,1.884-0.601,1.687-1.041
	C18.443,14.054,16.929,14.521,15.832,14.009z"/>
<path fill-rule="evenodd" clip-rule="evenodd" fill="#A2DDF2" d="M17.6,13.481c0.128-0.125,0.205-0.258,0.205-0.38
	c0.048,0.04,0.093,0.08,0.133,0.12c0.16,0.254,0.24,0.468,0.104,0.689C17.925,13.771,17.784,13.626,17.6,13.481z"/>
<g>
	<path fill-rule="evenodd" clip-rule="evenodd" fill="#2192FC" d="M14.365,12.955l-0.048-0.028c-0.02-0.012-0.035-0.019-0.052-0.019
		c-0.004,0.015-0.008,0.028-0.008,0.047v0.183c0,0.084,0.06,0.19,0.137,0.233l0.048,0.027c0.016,0.01,0.036,0.016,0.053,0.018
		c0.003-0.012,0.008-0.029,0.008-0.045v-0.183C14.503,13.102,14.442,12.997,14.365,12.955z"/>
	<path fill-rule="evenodd" clip-rule="evenodd" fill="#2192FC" d="M13.526,12.469c-0.016-0.008-0.032-0.019-0.048-0.028
		c-0.02-0.01-0.036-0.016-0.052-0.018c-0.005,0.015-0.008,0.03-0.008,0.048c0,0.061,0,0.12,0,0.183c0,0.087,0.06,0.189,0.136,0.232
		c0.017,0.009,0.032,0.02,0.048,0.029c0.017,0.01,0.036,0.016,0.052,0.016c0.005-0.012,0.009-0.028,0.009-0.046
		c0-0.061,0-0.122,0-0.183C13.663,12.617,13.603,12.511,13.526,12.469z"/>
	<path fill-rule="evenodd" clip-rule="evenodd" fill="#2192FC" d="M12.687,11.985c-0.016-0.011-0.031-0.019-0.048-0.028
		c-0.02-0.01-0.035-0.017-0.053-0.019c-0.003,0.014-0.008,0.03-0.008,0.049c0,0.06,0,0.12,0,0.183c0,0.084,0.061,0.188,0.138,0.23
		c0.016,0.01,0.031,0.018,0.048,0.028c0.02,0.01,0.035,0.017,0.052,0.019c0.004-0.015,0.008-0.029,0.008-0.047
		c0-0.063,0-0.122,0-0.185C12.823,12.132,12.764,12.027,12.687,11.985z"/>
	<path fill-rule="evenodd" clip-rule="evenodd" fill="#2192FC" d="M11.848,11.501c-0.017-0.011-0.032-0.021-0.048-0.028
		c-0.021-0.013-0.037-0.019-0.053-0.019c-0.004,0.013-0.008,0.028-0.008,0.047c0,0.061,0,0.122,0,0.183
		c0,0.086,0.061,0.191,0.137,0.233c0.016,0.008,0.032,0.018,0.048,0.027c0.017,0.011,0.036,0.016,0.052,0.019
		c0.005-0.015,0.008-0.03,0.008-0.046c0-0.063,0-0.123,0-0.183C11.983,11.647,11.924,11.543,11.848,11.501z"/>
	<path fill-rule="evenodd" clip-rule="evenodd" fill="#2192FC" d="M11.008,11.015c-0.016-0.008-0.032-0.018-0.048-0.028
		c-0.021-0.01-0.037-0.016-0.052-0.018c-0.004,0.014-0.008,0.03-0.008,0.046c0,0.063,0,0.122,0,0.185
		c0,0.085,0.06,0.189,0.136,0.233c0.016,0.008,0.031,0.018,0.048,0.027c0.021,0.011,0.036,0.017,0.053,0.017
		c0.004-0.012,0.008-0.027,0.008-0.047c0-0.062,0-0.122,0-0.183C11.145,11.164,11.084,11.057,11.008,11.015z"/>
	<path fill-rule="evenodd" clip-rule="evenodd" fill="#2192FC" d="M10.169,10.531l-0.048-0.028c-0.021-0.01-0.037-0.016-0.053-0.018
		c-0.004,0.014-0.008,0.028-0.008,0.048v0.183c0,0.085,0.061,0.189,0.137,0.231l0.048,0.028c0.016,0.012,0.036,0.016,0.052,0.018
		c0.004-0.012,0.004-0.028,0.004-0.046v-0.185C10.301,10.678,10.245,10.573,10.169,10.531z"/>
	<path fill-rule="evenodd" clip-rule="evenodd" fill="#2192FC" d="M9.354,10.059c-0.016-0.008-0.032-0.018-0.049-0.028
		c-0.016-0.01-0.036-0.016-0.052-0.016c-0.004,0.012-0.008,0.028-0.008,0.046c0,0.06,0,0.123,0,0.183
		c0,0.086,0.06,0.191,0.137,0.233c0.016,0.008,0.032,0.018,0.048,0.028c0.016,0.01,0.036,0.016,0.052,0.016
		c0.004-0.012,0.008-0.026,0.008-0.046c0-0.061,0-0.121,0-0.183C9.49,10.208,9.43,10.103,9.354,10.059z"/>
	<path fill-rule="evenodd" clip-rule="evenodd" fill="#2192FC" d="M8.514,9.575c-0.016-0.01-0.032-0.018-0.048-0.028
		c-0.016-0.01-0.036-0.016-0.052-0.019C8.409,9.543,8.405,9.559,8.405,9.577c0,0.061,0,0.121,0,0.183
		c0,0.084,0.064,0.188,0.137,0.231c0.016,0.01,0.032,0.02,0.048,0.028c0.016,0.01,0.036,0.016,0.052,0.019
		c0.004-0.015,0.004-0.029,0.004-0.046c0-0.06,0-0.123,0-0.185C8.646,9.723,8.59,9.617,8.514,9.575z"/>
</g>
<polygon fill-rule="evenodd" clip-rule="evenodd" fill="#C5CCD1" points="9.815,13.619 8.12,12.64 8.1,12.636 8.084,12.63 
	8.068,12.628 8.048,12.625 8.028,12.625 8.012,12.628 7.991,12.63 7.971,12.633 7.947,12.64 7.927,12.644 7.907,12.653 
	7.883,12.661 7.863,12.674 7.839,12.686 7.815,12.7 7.795,12.714 7.771,12.73 7.751,12.748 7.73,12.764 7.706,12.784 7.686,12.804 
	7.666,12.824 7.646,12.846 7.63,12.868 7.61,12.891 7.594,12.915 7.574,12.938 7.558,12.963 7.542,12.988 7.53,13.016 7.514,13.039 
	7.502,13.067 7.486,13.094 7.474,13.119 7.461,13.147 7.453,13.176 7.441,13.201 7.433,13.23 7.425,13.256 7.417,13.284 
	7.413,13.313 7.409,13.341 7.405,13.366 7.401,13.395 7.401,13.421 7.401,13.446 7.401,13.474 7.401,13.497 7.405,13.521 
	7.409,13.546 7.413,13.565 7.417,13.588 7.425,13.605 7.433,13.626 7.441,13.642 7.453,13.659 7.461,13.674 7.474,13.688 
	7.486,13.702 7.502,13.712 9.197,14.692 9.185,14.68 9.172,14.668 9.161,14.654 9.152,14.638 9.141,14.622 9.132,14.604 
	9.125,14.587 9.116,14.567 9.112,14.545 9.108,14.525 9.104,14.502 9.1,14.479 9.096,14.453 9.096,14.427 9.096,14.401 9.1,14.375 
	9.104,14.347 9.108,14.32 9.112,14.292 9.116,14.267 9.125,14.238 9.132,14.21 9.141,14.182 9.152,14.156 9.161,14.127 
	9.172,14.102 9.185,14.073 9.197,14.047 9.212,14.02 9.225,13.995 9.241,13.969 9.257,13.943 9.273,13.919 9.293,13.895 
	9.309,13.871 9.329,13.849 9.345,13.826 9.365,13.804 9.385,13.784 9.406,13.767 9.426,13.746 9.45,13.729 9.47,13.71 9.494,13.693 
	9.514,13.68 9.538,13.666 9.562,13.653 9.583,13.642 9.603,13.634 9.626,13.626 9.646,13.619 9.667,13.613 9.687,13.609 
	9.707,13.607 9.727,13.605 9.747,13.605 9.767,13.607 9.783,13.611 9.799,13.616 "/>
<path fill-rule="evenodd" clip-rule="evenodd" fill="#E6EAEB" d="M9.498,14.672c0.253-0.145,0.454-0.496,0.454-0.785
	s-0.201-0.405-0.454-0.261c-0.249,0.145-0.449,0.493-0.449,0.783C9.048,14.697,9.249,14.816,9.498,14.672z"/>
<polygon fill-rule="evenodd" clip-rule="evenodd" fill="#A3ADB5" points="9.787,13.577 9.735,13.546 9.715,13.539 9.699,13.537 
	9.679,13.533 9.663,13.531 9.643,13.531 9.623,13.531 9.603,13.535 9.579,13.539 9.558,13.546 9.538,13.551 9.514,13.559 
	9.49,13.569 9.47,13.581 9.446,13.594 9.421,13.607 9.397,13.624 9.377,13.64 9.354,13.656 9.333,13.676 9.309,13.693 9.289,13.716 
	9.269,13.736 9.249,13.759 9.229,13.782 9.208,13.804 9.192,13.829 9.172,13.854 9.156,13.879 9.141,13.904 9.125,13.931 
	9.108,13.959 9.096,13.984 9.08,14.014 9.068,14.041 9.056,14.069 9.048,14.098 9.036,14.126 9.028,14.154 9.02,14.182 9.012,14.21 
	9.008,14.24 9,14.269 8.996,14.297 8.996,14.322 8.992,14.351 8.992,14.379 8.992,14.404 8.996,14.432 8.996,14.455 9,14.479 
	9.008,14.502 9.012,14.523 9.02,14.544 9.028,14.562 9.036,14.579 9.048,14.596 9.056,14.611 9.068,14.626 9.08,14.64 9.096,14.652 
	9.148,14.682 9.136,14.67 9.125,14.657 9.112,14.645 9.1,14.628 9.092,14.611 9.08,14.594 9.072,14.574 9.068,14.554 9.06,14.534 
	9.056,14.51 9.052,14.487 9.048,14.463 9.048,14.437 9.048,14.409 9.048,14.383 9.048,14.354 9.052,14.326 9.056,14.299 9.06,14.27 
	9.068,14.242 9.072,14.214 9.08,14.187 9.092,14.156 9.1,14.13 9.112,14.102 9.125,14.073 9.136,14.046 9.148,14.017 9.165,13.991 
	9.181,13.964 9.197,13.937 9.212,13.911 9.229,13.885 9.245,13.861 9.265,13.837 9.285,13.812 9.305,13.791 9.321,13.769 
	9.345,13.746 9.365,13.727 9.385,13.706 9.41,13.688 9.43,13.669 9.454,13.653 9.478,13.64 9.498,13.626 9.522,13.611 9.546,13.602 
	9.57,13.592 9.59,13.581 9.614,13.576 9.635,13.569 9.655,13.567 9.675,13.563 9.695,13.562 9.715,13.563 9.735,13.565 
	9.755,13.567 9.771,13.571 "/>
<path fill-rule="evenodd" clip-rule="evenodd" fill="#DADFE3" d="M9.498,14.66c0.249-0.141,0.446-0.484,0.446-0.768
	s-0.197-0.397-0.446-0.257c-0.245,0.141-0.441,0.486-0.441,0.769C9.056,14.688,9.253,14.803,9.498,14.66z"/>
<path fill-rule="evenodd" clip-rule="evenodd" fill="#646E75" d="M9.498,14.527c0.185-0.104,0.33-0.359,0.33-0.568
	s-0.145-0.293-0.33-0.188c-0.18,0.103-0.325,0.359-0.325,0.566C9.172,14.547,9.317,14.632,9.498,14.527z"/>
<path fill-rule="evenodd" clip-rule="evenodd" fill="#9E3636" d="M9.434,13.816c-0.129,0.104-0.229,0.279-0.257,0.443l0.201,0.112
	L9.37,14.369l-0.004-0.007l-0.004-0.006l-0.004-0.006L9.35,14.345v-0.008l-0.004-0.008L9.341,14.32v-0.008l-0.004-0.008v-0.011
	l-0.004-0.01v-0.01v-0.013v-0.01v-0.01l0.004-0.013v-0.01l0.004-0.012v-0.012l0.004-0.013l0.004-0.01v-0.012l0.008-0.011
	l0.004-0.012l0.004-0.01l0.004-0.013l0.008-0.01l0.004-0.012l0.004-0.012l0.008-0.011l0.004-0.01l0.008-0.01l0.008-0.01l0.008-0.011
	l0.008-0.01l0.008-0.009l0.008-0.008l0.008-0.01l0.008-0.006l0.008-0.01l0.008-0.007l0.008-0.008l0.012-0.006l0.008-0.007
	l0.008-0.005l0.012-0.006l0.008-0.002l0.008-0.007l0.008-0.004l0.012-0.002l0.008-0.002h0.009l0.008-0.002h0.008h0.008H9.61
	l0.008,0.002l0.004,0.002l0.008,0.002L9.434,13.816z"/>
<path fill-rule="evenodd" clip-rule="evenodd" fill="#E74C3C" d="M9.502,14.354c0.097-0.058,0.177-0.195,0.177-0.309
	c0-0.115-0.08-0.161-0.177-0.103c-0.101,0.056-0.181,0.194-0.181,0.309C9.321,14.364,9.401,14.411,9.502,14.354z"/>
<polygon fill-rule="evenodd" clip-rule="evenodd" fill="#DADFE3" points="12.233,12.638 12.233,12.898 3.794,14.662 3.794,14.401 
	"/>
<polygon fill-rule="evenodd" clip-rule="evenodd" fill="#AEB7BD" points="3.794,14.401 3.794,14.662 3.722,14.677 3.649,14.687 
	3.578,14.694 3.505,14.697 3.437,14.697 3.364,14.697 3.296,14.694 3.224,14.687 3.224,14.423 3.296,14.433 3.364,14.435 
	3.437,14.437 3.505,14.435 3.578,14.433 3.649,14.423 3.722,14.412 "/>
<polygon fill-rule="evenodd" clip-rule="evenodd" fill="#AEB7BD" points="3.224,14.423 3.224,14.687 3.155,14.677 3.091,14.662 
	3.027,14.646 2.962,14.628 2.898,14.605 2.838,14.582 2.782,14.554 2.726,14.523 2.726,14.262 2.782,14.292 2.838,14.32 
	2.898,14.345 2.962,14.364 3.027,14.385 3.091,14.401 3.155,14.415 "/>
<polygon fill-rule="evenodd" clip-rule="evenodd" fill="#AEB7BD" points="2.726,14.262 2.726,14.523 1.645,13.901 1.645,13.64 "/>
<path fill-rule="evenodd" clip-rule="evenodd" fill="#C5CCD1" d="M12.233,12.638l-1.221,0.253l-0.005,0.002l-1.582,0.331
	c-0.016,0.002-0.028,0.005-0.044,0.008l-5.587,1.17c-0.189,0.04-0.386,0.046-0.571,0.021c-0.18-0.021-0.354-0.078-0.498-0.161
	L1.645,13.64l7.391-2.85L12.233,12.638z"/>
<polygon fill-rule="evenodd" clip-rule="evenodd" fill="#DDE1E1" points="4.891,7.42 4.891,7.504 2.228,7.899 2.228,7.815 "/>
<polygon fill-rule="evenodd" clip-rule="evenodd" fill="#DDE1E1" points="2.228,7.815 2.228,7.899 2.171,7.906 2.119,7.908 
	2.063,7.91 2.011,7.91 1.959,7.908 1.906,7.904 1.854,7.898 1.806,7.89 1.806,7.806 1.854,7.813 1.906,7.819 1.959,7.822 
	2.011,7.826 2.063,7.826 2.119,7.823 2.171,7.819 "/>
<polygon fill-rule="evenodd" clip-rule="evenodd" fill="#AEB7BD" points="1.806,7.806 1.806,7.89 1.758,7.879 1.71,7.87 
	1.665,7.855 1.617,7.842 1.573,7.823 1.529,7.806 1.489,7.783 1.445,7.761 1.445,7.677 1.489,7.699 1.529,7.719 1.573,7.739 
	1.617,7.755 1.665,7.771 1.71,7.783 1.758,7.795 "/>
<polygon fill-rule="evenodd" clip-rule="evenodd" fill="#AEB7BD" points="1.445,7.677 1.445,7.761 1.015,7.514 1.015,7.428 "/>
<path fill-rule="evenodd" clip-rule="evenodd" fill="#C5CCD1" d="M4.891,7.42L2.228,7.815c-0.149,0.016-0.289,0.012-0.422-0.01
	C1.673,7.782,1.553,7.739,1.445,7.677l-0.43-0.249l2.193-1.265L4.891,7.42z"/>
<rect x="2.124" y="4.654" transform="matrix(0.4847 0.8747 -0.8747 0.4847 6.4058 -1.3899)" fill-rule="evenodd" clip-rule="evenodd" fill="#DADFE3" width="4.517" height="0.176"/>
<polygon fill-rule="evenodd" clip-rule="evenodd" fill="#AEB7BD" points="2.886,5.484 2.28,2.275 3.211,2.811 5.401,6.761 "/>
<polygon fill-rule="evenodd" clip-rule="evenodd" fill="#F3F3F3" points="2.28,2.275 2.433,2.184 3.364,2.723 3.211,2.811 "/>
<path fill-rule="evenodd" clip-rule="evenodd" fill="#B6E8FA" d="M17.6,13.481l0.003-0.006l0.01-0.007l0.003-0.006l0.005-0.002
	v-0.004l0.008-0.006l0.004-0.006l0.008-0.004v-0.005l0.004-0.004l0.004-0.006l0.008-0.006l0.005-0.007l0,0l0.004-0.006l0.008-0.004
	l0.004-0.006l0.004-0.006l0.005-0.006l0.003-0.006l0.005-0.008l0.003-0.005l0.005-0.002l0.004-0.003l0.004-0.007l0.004-0.006v-0.007
	h0.004l0.004-0.005l0.005-0.006l0.003-0.007v-0.003l0.005-0.003v-0.006l0.003-0.006l0.005-0.006l0.004-0.002v-0.005l0.004-0.006
	l0.004-0.006l0.004-0.006v-0.002v-0.005l0.004-0.006l0.005-0.005l0.003-0.007l0,0v-0.006l0.005-0.007l0.003-0.005v-0.005V13.23
	l0.005-0.007v-0.006l0.004-0.006l0.004-0.011v-0.008l0.004-0.003v-0.005v-0.002v-0.006l0.004-0.006v-0.006V13.16v-0.007l0.004-0.006
	v-0.006V13.14v-0.002v-0.007l0.005-0.005l0,0v-0.013v-0.006v-0.006l0.063,0.059c0.097,0.223,0.093,0.416,0.013,0.574
	C17.8,13.649,17.708,13.565,17.6,13.481z"/>
</svg>
