<svg width="300" height="300" xmlns="http://www.w3.org/2000/svg">
 <g>
  <title>background</title>
 </g>

 <g>
  <title>background</title>
 </g>
 <style type="text/css">.st0{fill:#2F88BC;}
	.st1{fill:#91501C;}
	.st2{fill:#FFAB44;}
	.st3{fill:#B16827;}
	.st4{fill:#C2EEFC;}
	.st5{opacity:0.25;fill:#5D5D5D;}
	.st6{fill:#FBEBBA;}
	.st7{fill:#CABC9C;}
	.st8{fill:#8F8676;}
	.st9{fill:#8C8C8C;}
	.st10{fill:#FFFFFF;}
	.st11{fill:#C1A9A9;}
	.st12{fill:#CDCACA;}
	.st13{fill:#85361F;}
	.st14{fill:#FF7D43;}
	.st15{fill:#46D1FA;}
	.st16{fill:#E85E3C;}
	.st17{fill:#7F714C;}
	.st18{fill:#242221;}
	.st19{fill:#EFC73E;}
	.st20{fill:#B73A4A;}
	.st21{fill:#7D2833;}
	.st22{fill:#EEC09B;}
	.st23{fill:#DBA77F;}
	.st24{fill:#EEC9AB;}
	.st25{fill:#E1475C;}
	.st26{fill:#352311;}
	.st27{fill:#DC959C;}
	.st28{fill:#3D3D3D;}
	.st29{fill:#17120E;}
	.st30{fill:#9DD87D;}
	.st31{fill:#7FC5D6;}
	.st32{fill:#B04B5D;}
	.st33{fill:#D28691;}
	.st34{fill:#562947;}
	.st35{fill:#7F5D7F;}
	.st36{fill:#876B8E;}
	.st37{fill:#3F112B;}
	.st38{fill:#AB6346;}
	.st39{fill:#C57C5F;}
	.st40{fill:#DE8B6C;}
	.st41{fill:#C47C5F;}
	.st42{fill:#321829;}
	.st43{fill:#CCA93F;}
	.st44{fill:#E8BF4D;}
	.st45{fill:#A17C5B;}
	.st46{fill:#111719;}
	.st47{fill:#808184;}
	.st48{fill:#58595B;}
	.st49{fill:#BE1E2D;}
	.st50{fill:#FED03D;}
	.st51{fill:#312C32;}
	.st52{fill:#E08400;}
	.st53{fill:#FEDB78;}
	.st54{fill:#FDD03D;}
	.st55{fill:#E08501;}
	.st56{fill:#FD5544;}
	.st57{fill:#E08604;}
	.st58{fill:#E18503;}
	.st59{fill:#322D2F;}
	.st60{fill:#312C31;}
	.st61{fill:#82E1DE;}
	.st62{fill:#353032;}
	.st63{fill:#F7F6F4;}
	.st64{fill:#302C2F;}
	.st65{fill:#302C30;}
	.st66{fill:#E18A05;}
	.st67{fill:#322D31;}
	.st68{fill:#E08602;}
	.st69{fill:#FBFBFB;}
	.st70{fill:#F8F7F3;}
	.st71{fill:#312D31;}
	.st72{fill:#FDFDFB;}
	.st73{fill:#353034;}
	.st74{fill:#353133;}
	.st75{fill:#FAFAF8;}
	.st76{fill:#FBFCF9;}
	.st77{fill:#322E30;}
	.st78{fill:#302C31;}
	.st79{fill:#ADF8FE;}
	.st80{fill:#7EE1DF;}
	.st81{fill:#353031;}
	.st82{fill:#373233;}
	.st83{fill:#332E32;}
	.st84{fill:#332E33;}
	.st85{fill:#FCFCF8;}
	.st86{fill:#FCFCFB;}
	.st87{fill:#FCFCFA;}
	.st88{fill:#F8F8F5;}
	.st89{fill:#FDFDFC;}
	.st90{fill:#312C30;}
	.st91{fill:#F7F7F4;}
	.st92{fill:#312C2F;}
	.st93{fill:#332F33;}
	.st94{fill:#FBFBF7;}
	.st95{fill:#FDFDFD;}
	.st96{fill:#302D2F;}
	.st97{fill:#E18C0A;}
	.st98{fill:#E08F09;}
	.st99{fill:#363033;}
	.st100{fill:#342F32;}
	.st101{fill:#322D30;}
	.st102{fill:#FAF9F4;}
	.st103{fill:#373333;}
	.st104{fill:#FCFDFB;}
	.st105{fill:#FEFEFE;}
	.st106{fill:#FBFBF8;}
	.st107{fill:#ECEBE9;}
	.st108{fill:#FCFCF9;}
	.st109{fill:#3A3538;}
	.st110{fill:#DBBC42;}
    #TAXI{
    animation : slide 4s ease-in-out  
    }
    @keyframes slide{
    0%{
    transform : translateX(0)
    }
    50%,60%{
    transform : translateX(-830px)
    }
    70%{
     transform : translateX(-1400px)
    }
    100%{
    transform : translateX(-1400px)
    }
    }
    #girl1 ,#girl2{
  
    }
    @keyframes fade{
    0%,60%{
    visibility : hidden
    }
    65%,100%{
    visibility : visible
    }
    }
    #BRAZO_IZQ ,#BRAZO_DERE_1_{
    animation : wave 4s ease-in-out infinite;
    
    }
    @keyframes wave{
    0%,60%{
    visibility : hidden
    }
    
    71%,100%{
   visibility : hidden
    }
    }
   
    #BRAZO_IZQ-2{
     animation-name: arm1;
    animation-duration: 4s;
    animation-timing-function: linear;
   
    animation-iteration-count: infinite;
    transform-origin:right top;
    animation-direction: normal;
    transform-box: fill-box;
    }
    @keyframes arm1 {
      0%{transform:rotateZ(0deg)}
      70%{transform:rotateZ(0deg)}
      80%{transform:rotateZ(15deg)}
      100%{transform:rotateZ(15deg)}
    }

	#BRAZO_DERE-2{
      animation-name: arm2;
    animation-duration: 4s;
    animation-timing-function: linear;
   
    animation-iteration-count: infinite;
    transform-origin: 25% 25%;
    animation-direction: normal;
    transform-box: fill-box;
    }
    @keyframes arm2 {
      0%{transform:rotateZ(0deg)}
      70%{transform:rotateZ(0deg)}
      80%{transform:rotateZ(-15deg)}
      100%{transform:rotateZ(-15deg)}
}
    #OJOS_1_ ,#OJOS{
    animation : blink 3s ease-in-out infinite
    }
    @keyframes blink{
    0%,70%{
    visibility : hidden
    }
    72%,75%{
    visibility : visible
    }
    
    85%,90%{
    visibility : visible
    }
    92%,95%{
    visibility : hidden
    }
    100%{
    visibility : visible
    }
    }</style>
 <g>
  <title>Layer 1</title>
  <g id="girl1">
   <g id="CARA">
    <g id="svg_311">
     <path id="XMLID_44_" class="st23" d="m142.85214,80.26902l0,0c-4.1,-0.3 -7.1,-4 -6.8,-8l0.7,-8.8c0.3,-4.1 4,-7.1 8,-6.8l0,0c4.1,0.3 7.1,4 6.8,8l-0.6,8.8c-0.4,4.1 -4,7.2 -8.1,6.8z"/>
     <path id="XMLID_42_" class="st22" d="m207.55214,85.46902l0,0c-3.9,-1.1 -6.2,-5.3 -5.1,-9.2l2.4,-8.5c1.1,-3.9 5.3,-6.2 9.2,-5.1l0,0c3.9,1.1 6.2,5.3 5.1,9.2l-2.4,8.5c-1.1,3.9 -5.3,6.2 -9.2,5.1z"/>
     <path id="XMLID_40_" class="st23" d="m176.35214,115.96902l-2.4,0c-4.5,0 -8.1,-3.7 -8.1,-8.1l0,-4.1c0,-4.5 3.7,-8.1 8.1,-8.1l2.3,0c4.5,0 8.1,3.7 8.1,8.1l0,4.1c0.1,4.4 -3.5,8.1 -8,8.1z"/>
     <path id="XMLID_39_" class="st22" d="m142.95214,79.16902l3.5,-41.8c1.3,-15 14.5,-26.2 29.5,-24.9l12.5,1c15,1.3 26.2,14.5 24.9,29.5l-3.1,37.4c-0.7,8.5 -12.4,33.2 -34.6,31.3c-23,-1.9 -33.3,-24.9 -32.7,-32.5z"/>
     <path id="XMLID_36_" class="st23" d="m177.95214,78.86902c0,0 5.7,6.5 -2.8,7c0,0 11.7,1 2.8,-7z"/>
     <path id="XMLID_33_" class="st43" d="m170.35214,57.76902c-2.4,-1.4 -8.3,-4 -15.6,-0.6c-0.7,0.3 -1.6,-0.1 -1.8,-0.9l-0.2,-0.8c-0.1,-0.6 0.2,-1.1 0.7,-1.4c2.6,-1.3 10.3,-4.2 18.2,1.5c0.5,0.4 0.7,1 0.4,1.6l0,0c-0.2,0.7 -1,1 -1.7,0.6z"/>
     <g id="svg_312">
      <path id="XMLID_30_" class="st44" d="m140.35214,52.46902c0.4,7.3 1.4,15.2 2.6,23.8l2.1,-22.2c0,0 9.7,-9.9 15.2,-23.2c0,0 11.6,31.2 50.5,39.4l-0.4,8.6c0,0 10.9,-12.5 9.3,-38.8c-1.6,-26.4 -36.6,-45.4 -62.2,-31c-14.7,8.3 -18.2,23.3 -17.1,43.4z"/>
      <path id="XMLID_27_" class="st43" d="m167.95214,22.06902c1.9,9 10.9,26.1 31.7,32.6c20.7,6.5 -9.2,-1.6 -20.2,-24.4c-7.7,-15.8 -13.4,-17.2 -11.5,-8.2z"/>
      <path id="XMLID_9_" class="st43" d="m140.35214,52.46902c0.4,7.3 1.4,15.2 2.6,23.8l2.1,-22.2c0,0 9.7,-9.9 15.2,-23.2c0,0 11.6,31.2 50.5,39.4l-0.4,8.6l3.1,-12.5c0,0 -34.8,-6.7 -53.8,-47c0,0 -7.6,23.7 -19.3,33.1z"/>
     </g>
    </g>
   </g>
   <g id="BRAZO_DERE">
    <path id="XMLID_51_" class="st22" d="m194.35214,209.86902l-2.6,7.5c0,0 -4.7,2.5 -6.9,10.2c-2.2,7.7 3.2,3.6 5.1,0.6c0,0 -2.5,8.1 0.5,9.2c0,0 4.8,2.4 6.6,0.4c0,0 4,1.6 5.6,-0.5c0,0 3.4,2.3 4.9,-1l-3.2,-0.3c0,0 2.9,-14.9 -5,-19l0.8,-6.9l-5.8,-0.2z"/>
    <path id="XMLID_50_" class="st45" d="m198.45214,124.76902c0,0 2.8,3.4 6.3,21.2c3.5,17.8 5.8,40 5.8,40l-8.7,30l-11.8,-3.7l8.5,-25.9l-6.9,-35c0.1,-0.1 0.2,-19.9 6.8,-26.6z"/>
   </g>
   <g id="CUERPO">
    <g id="svg_313">
     <path id="XMLID_46_" class="st46" d="m155.05214,195.66902c0,0 -6.2,16.7 -1.6,43.9l-12.2,107.9l13,1.4l17.9,-106.5c0.2,-3 3.6,-15.8 5.3,0.3l3.7,5.7l2,-20.6l-4,-32l-24.1,0l0,-0.1z"/>
     <path id="XMLID_45_" class="st46" d="m196.65214,192.26902c0,0 5.7,13.9 0,50.6c-5.8,37.5 -1.5,104.9 -1.5,104.9l-14.3,1.6l-1,-68.6l-5.5,-85l22.3,-3.5z"/>
     <path id="XMLID_29_" class="st47" d="m153.45214,199.86902c0,0 22.2,6.2 44.4,-3.2c0,0 0.1,-0.5 -0.3,-2.3c-0.4,-1.4 -0.9,-2.2 -0.9,-2.2s-19.1,6.9 -41.6,3.4c0,0 -0.4,0.5 -1,1.9c-0.6,1.5 -0.6,2.4 -0.6,2.4z"/>
     <path id="XMLID_28_" class="st48" d="m171.65214,196.56902c0,0 -0.7,1.7 0,5.3c0,0 4.2,0.6 8.6,-0.6c0,0 0.4,-2.3 -0.3,-5.4c0.1,0 -4.4,-0.1 -8.3,0.7z"/>
     <path id="XMLID_26_" class="st23" d="m209.45214,377.56902l-16.6,0c-3.1,-8.7 -11.9,-15.6 -11.9,-15.6l2.4,-5.7l0.9,-2.2c2.5,-3.5 6.2,0 6.2,0c1.3,5.2 7.7,12.5 12.7,17.5c3.4,3.5 6.3,6 6.3,6z"/>
     <path id="XMLID_23_" class="st23" d="m124.35214,377.56902l16.6,0c3.1,-8.7 11.9,-15.6 11.9,-15.6l-2.4,-5.7l-0.9,-2.2c-2.5,-3.5 -6.2,0 -6.2,0c-1.3,5.2 -7.7,12.5 -12.7,17.5c-3.5,3.5 -6.3,6 -6.3,6z"/>
    </g>
    <g id="svg_314">
     <path id="XMLID_41_" class="st22" d="m182.15214,121.36902l-13.9,-0.1c-0.9,0 -1.5,-0.7 -1.5,-1.6l0.2,-23.8c0,-0.9 0.7,-1.5 1.6,-1.5l13.9,0.1c0.9,0 1.5,0.7 1.5,1.6l-0.2,23.8c0,0.8 -0.7,1.5 -1.6,1.5z"/>
     <polygon id="XMLID_31_" class="st22" points="167.75213623046875,119.86901092529297 153.85214233398438,124.2690200805664 154.65213012695312,149.56902313232422 199.85214233398438,147.9690170288086 197.15216064453125,124.86901092529297 182.4521484375,120.2690200805664 "/>
     <path id="XMLID_15_" class="st45" d="m176.65214,136.06902l9.3,-0.5l-0.5,-14.4l13.3,3.8l1.4,21.1l-3.5,34.6l-1.3,19.2c0,0 -17.3,4.6 -40.1,-3.2c0,0 -1.9,-32 -1.8,-32.9c1.1,-12.7 1,-24 1,-24l-2.6,-15.1l12.1,-4.4l2.6,14.4l10.1,1.4z"/>
    </g>
   </g>
   <g id="BRAZO_IZQ">
    <g id="svg_315">
     <path id="XMLID_13_" class="st23" d="m86.65214,160.96902c0,0 -3.2,-10.4 -2.4,-21.1c0,0 2.5,0.1 2.1,4.2c-0.3,3.9 2.4,9.8 2.4,9.8l-2.1,7.1z"/>
     <path id="XMLID_12_" class="st45" d="m162.35214,121.36902c0,0 -11.5,-0.5 -16.8,10.8c-5.3,11.3 -16,43.9 -16,43.9l-30.4,-9.2l-1.9,7.7c0,0 24.3,12.9 35.3,13.9c0.1,0 33.4,-54.9 29.8,-67.1z"/>
     <path id="XMLID_11_" class="st23" d="m86.65214,160.96902c0,0 -2.4,-11.2 2,-19.5c0,0 2,0.1 1.1,3.3c-0.9,3.2 -0.7,11.1 1,12.7c0,0 -1.3,4.3 -4.1,3.5z"/>
     <path id="XMLID_10_" class="st22" d="m100.25214,172.56902c0,0 -14.2,-1.6 -16.2,-6.9c-2,-5.2 -5.2,-9.1 -1.2,-16.5c0,0 2.1,1.6 0.9,6c0,0 -0.6,4.3 5.2,8c0,0 5.5,-1.3 10.2,2.4c-0.1,0.1 2.7,4.5 1.1,7z"/>
     <path id="XMLID_8_" class="st45" d="m154.75214,122.96902c0,0 -10.1,0.1 -16.7,25.6c-6.6,25.4 -9.3,25.2 -9.3,25.2s-2.1,-1.9 -2.6,-0.4c0,0 -3.2,-4.2 -7.4,-1.2l-4.1,10.6c0,0 11.5,7.9 18,5.7l13.1,-22.3l9,-43.2z"/>
     <polygon id="XMLID_7_" class="st45" points="119.0521469116211,171.9690170288086 110.35213470458984,169.66902923583984 107.25214385986328,179.4690170288086 114.95214080810547,182.86901092529297 "/>
     <g id="phone_2_">
      <g id="svg_316">
       <path class="st28" d="m107.95214,177.76902l2,-1.2c4,-2.4 5.1,-6.8 2.6,-9.8l-22.6,-26.9c-2.5,-3 -7.8,-3.5 -11.8,-1.1l-2,1.2c-4,2.4 -5.1,6.8 -2.6,9.8l22.7,26.9c2.4,3 7.7,3.5 11.7,1.1z" id="svg_317"/>
       <path class="st29" d="m111.55214,175.66902l2,-1.2c4,-2.4 5.1,-6.8 2.6,-9.8l-22.7,-26.9c-2.5,-3 -7.8,-3.5 -11.8,-1.1l-2,1.2c-4,2.4 -5.1,6.8 -2.6,9.8l22.7,26.9c2.5,3 7.8,3.5 11.8,1.1z" id="svg_318"/>
      </g>
      <polygon class="st10" points="101.65213775634766,175.06902313232422 115.45214080810547,166.9690170288086 89.75214385986328,135.36901092529297 75.95214080810547,143.4690170288086 " id="svg_319"/>
      <path class="st30" d="m93.25214,159.86902l4.8,-2.9c1.1,-0.7 1.4,-1.9 0.7,-2.7l-0.4,-0.4c-0.7,-0.8 -2.2,-1 -3.2,-0.3l-4.8,2.9c-1.1,0.7 -1.4,1.9 -0.7,2.7l0.4,0.4c0.7,0.8 2.1,1 3.2,0.3z" id="svg_320"/>
      <path class="st31" d="m89.85214,148.56902l4.9,-3c1.1,-0.7 1.4,-1.9 0.7,-2.7l-0.4,-0.4c-0.7,-0.8 -2.2,-1 -3.2,-0.3l-4.9,3c-1.1,0.7 -1.4,1.9 -0.7,2.7l0.4,0.4c0.7,0.8 2.1,1 3.2,0.3z" id="svg_321"/>
      <path class="st31" d="m104.15214,166.16902l4.9,-3c1.1,-0.7 1.4,-1.9 0.7,-2.7l-0.4,-0.4c-0.7,-0.8 -2.2,-1 -3.2,-0.3l-4.9,3c-1.1,0.7 -1.4,1.9 -0.7,2.7l0.4,0.4c0.7,0.8 2.1,1 3.2,0.3z" id="svg_322"/>
     </g>
     <path id="XMLID_17_" class="st23" d="m102.25214,151.06902c0.1,4.4 -1.4,6.2 -1.4,6.2l5.2,5.7c0,0 0.7,-4.5 -0.6,-8.5"/>
    </g>
   </g>
   <g id="BRAZO_IZQ-2">
    <g id="svg_323">
     <path id="XMLID_24_" class="st23" d="m84.35214,135.56902c0,0 0,-10.9 4,-20.9c0,0 2.4,0.8 0.8,4.6c-1.4,3.6 -0.6,10.1 -0.6,10.1l-4.2,6.2z"/>
     <path id="XMLID_22_" class="st45" d="m168.35214,120.26902c0,0 -10.8,-3.9 -19.3,5.3c-8.4,9.2 -28.4,37.1 -28.4,37.1l-26.3,-17.8l-4.1,6.8c0,0 19.3,19.6 29.5,23.8c0.3,0 48.4,-42.4 48.6,-55.2z"/>
     <path id="XMLID_21_" class="st23" d="m84.35214,135.56902c0,0 1,-11.4 7.7,-18c0,0 1.9,0.7 0.1,3.5c-1.8,2.8 -4,10.4 -2.8,12.4c-0.1,-0.1 -2.6,3.7 -5,2.1z"/>
     <path id="XMLID_20_" class="st22" d="m93.85214,150.66902c0,0 -13.1,-5.8 -13.4,-11.4c-0.4,-5.6 -2.2,-10.2 3.8,-16.1c0,0 1.5,2.2 -0.9,6c0,0 -1.9,3.9 2.6,9.2c0,0 5.6,0.4 9,5.3c-0.2,0 1.1,5.1 -1.1,7z"/>
     <path id="XMLID_19_" class="st45" d="m160.65214,119.56902c0,0 -9.7,-2.9 -23.6,19.5c-13.9,22.3 -16.4,21.3 -16.4,21.3s-1.4,-2.4 -2.4,-1.2c0,0 -1.8,-5 -6.7,-3.4l-7.1,8.9c0,0 8.6,11 15.5,10.8l19.2,-17.4l21.5,-38.5z"/>
     <polygon id="XMLID_18_" class="st45" points="111.95214080810547,155.66902923583984 104.35213470458984,150.86901092529297 98.45214080810547,159.36901092529297 104.75214385986328,164.86901092529297 "/>
     <g id="phone_3_">
      <g id="svg_324">
       <path class="st28" d="m99.65214,157.86902l2.3,-0.5c4.5,-1.1 6.9,-5 5.4,-8.6l-13.5,-32.4c-1.5,-3.6 -6.4,-5.7 -10.9,-4.6l-2.3,0.5c-4.5,1.1 -6.9,5 -5.4,8.6l13.6,32.4c1.3,3.7 6.2,5.7 10.8,4.6z" id="svg_325"/>
       <path class="st29" d="m103.65214,156.96902l2.3,-0.5c4.5,-1.1 6.9,-5 5.4,-8.6l-13.6,-32.4c-1.5,-3.6 -6.4,-5.7 -10.9,-4.6l-2.3,0.5c-4.5,1.1 -6.9,5 -5.4,8.6l13.6,32.4c1.5,3.7 6.4,5.7 10.9,4.6z" id="svg_326"/>
      </g>
      <polygon class="st10" points="94.45214080810547,153.4690170288086 110.0521469116211,149.86901092529297 94.85213470458984,111.9690170288086 79.35213470458984,115.66901397705078 " id="svg_327"/>
      <path class="st30" d="m90.95214,136.46902l5.4,-1.3c1.3,-0.3 1.9,-1.4 1.5,-2.4l-0.3,-0.5c-0.4,-1 -1.8,-1.6 -3,-1.2l-5.4,1.3c-1.3,0.3 -1.9,1.4 -1.5,2.4l0.3,0.5c0.4,0.9 1.7,1.5 3,1.2z" id="svg_328"/>
      <path class="st31" d="m91.05214,124.66902l5.6,-1.4c1.3,-0.3 1.9,-1.4 1.5,-2.4l-0.3,-0.5c-0.4,-1 -1.8,-1.6 -3,-1.2l-5.6,1.4c-1.3,0.3 -1.9,1.4 -1.5,2.4l0.3,0.5c0.5,0.9 1.7,1.5 3,1.2z" id="svg_329"/>
      <path class="st31" d="m99.45214,145.66902l5.6,-1.4c1.3,-0.3 1.9,-1.4 1.5,-2.4l-0.3,-0.5c-0.4,-1 -1.8,-1.6 -3,-1.2l-5.6,1.4c-1.3,0.3 -1.9,1.4 -1.5,2.4l0.3,0.5c0.5,1 1.7,1.6 3,1.2z" id="svg_330"/>
     </g>
     <path id="XMLID_16_" class="st23" d="m102.15214,130.76902c-1.2,4.2 -3.2,5.5 -3.2,5.5l3.3,7c0,0 2,-4.1 2,-8.3"/>
    </g>
   </g>
   <g id="BOCA">
    <g id="XMLID_3_">
     <path id="XMLID_52_" class="st26" d="m166.55214,95.96902c0,0 0.6,1.7 1.8,3.4c0.2,0.2 0.3,0.5 0.5,0.7c2,2.5 5.3,4.7 9.9,1.2c0.1,-0.1 0.3,-0.2 0.4,-0.3c0.9,-0.7 1.8,-1.6 2.8,-2.8c0,-0.1 -7.8,0.3 -15.4,-2.2z"/>
     <path id="XMLID_53_" class="st49" d="m168.85214,100.06902c2,2.5 5.3,4.7 9.9,1.2c-0.9,-1.4 -2.8,-2.5 -4.9,-2.7c-2,-0.2 -3.8,0.4 -5,1.5z"/>
    </g>
   </g>
   <g id="OJOS">
    <path id="XMLID_2_" class="st26" d="m160.35214,74.86902l0,0c-1.2,-0.1 -2.1,-1.1 -2,-2.3l0.2,-2.9c0.1,-1.2 1.1,-2.1 2.3,-2l0,0c1.2,0.1 2.1,1.1 2,2.3l-0.2,2.9c-0.1,1.2 -1.2,2.1 -2.3,2z"/>
    <path id="XMLID_1_" class="st26" d="m191.85214,77.56902l0,0c-1.2,-0.1 -2.1,-1.1 -2,-2.3l0.2,-2.9c0.1,-1.2 1.1,-2.1 2.3,-2l0,0c1.2,0.1 2.1,1.1 2,2.3l-0.2,2.9c-0.1,1.2 -1.1,2.1 -2.3,2z"/>
   </g>
   <g id="ojos-closed">
    <path id="XMLID_5_" class="st26" d="m160.35214,73.16902l0,0c-1.2,0 -2.1,-0.3 -2,-0.6l0.2,-0.7c0.1,-0.3 1.1,-0.5 2.3,-0.5l0,0c1.2,0 2.1,0.3 2,0.6l-0.2,0.7c-0.1,0.3 -1.2,0.6 -2.3,0.5z"/>
    <path id="XMLID_4_" class="st26" d="m191.85214,73.86902l0,0c-1.2,0 -2.1,-0.3 -2,-0.6l0.2,-0.7c0.1,-0.3 1.1,-0.5 2.3,-0.5l0,0c1.2,0 2.1,0.3 2,0.6l-0.2,0.7c-0.1,0.3 -1.1,0.5 -2.3,0.5z"/>
   </g>
  </g>
 </g>
</svg>