<?xml version="1.0" encoding="UTF-8"?>
<!DOCTYPE svg PUBLIC "-//W3C//DTD SVG 1.1//EN" "http://www.w3.org/Graphics/SVG/1.1/DTD/svg11.dtd">
<!-- Creator: CorelDRAW X6 -->
<svg xmlns="http://www.w3.org/2000/svg" xml:space="preserve" width="26.0724mm" height="58.0962mm" version="1.1" style="shape-rendering:geometricPrecision; text-rendering:geometricPrecision; image-rendering:optimizeQuality; fill-rule:evenodd; clip-rule:evenodd"
viewBox="0 0 134 298"
 xmlns:xlink="http://www.w3.org/1999/xlink">
 <defs>
  <style type="text/css">
   <![CDATA[
    .fil12 {fill:#373435}
    .fil0 {fill:#4E5A62}
    .fil10 {fill:#848688}
    .fil2 {fill:#A59482}
    .fil20 {fill:#C37950}
    .fil19 {fill:#E9C047}
    .fil9 {fill:#F5874F}
    .fil7 {fill:#FEFEFE}
    .fil17 {fill:#FFCC29}
    .fil13 {fill:black}
    .fil5 {fill:#100E11}
    .fil8 {fill:#333333}
    .fil4 {fill:#C9A37D}
    .fil3 {fill:#EFD0B3}
    .fil11 {fill:#FBFFFF}
    .fil6 {fill:white}
    .fil15 {fill:#6E6048}
    .fil14 {fill:#8A765C}
    .fil16 {fill:#AD997C}
    .fil18 {fill:#C0AA49}
    .fil1 {fill:#CEBAA3}
   ]]>
  </style>
 </defs>
 <rect class="fil0" x="-1858" y="354" width="1109" height="1435"/>
 <path class="fil1" d="M31 91c-8,-4 -21,-21 -6,-29 1,-1 2,-1 4,-1 0,1 0,1 0,1 0,0 0,17 3,28z"/>
 <path class="fil2" d="M28 79c0,0 -1,-4 -2,-7 -2,-4 -3,0 -3,0 0,0 2,1 3,3 1,2 -1,1 -1,2 1,-1 4,3 4,3z"/>
 <path class="fil3" d="M91 91c8,-4 21,-21 6,-29 -1,-1 -2,-1 -4,-1 0,1 0,1 0,1 0,0 0,17 -3,28z"/>
 <path class="fil4" d="M94 79c0,0 1,-4 2,-7 2,-4 3,0 3,0 0,0 -2,1 -3,3 -1,2 1,1 1,2 -1,-1 -4,3 -4,3z"/>
 <polygon class="fil5" points="51,118 50,144 55,144 56,159 61,167 61,168 61,167 61,167 61,167 66,160 68,145 73,144 71,118 71,117 70,116 64,139 61,149 61,153 61,148 58,138 53,116 51,116 "/>
 <polygon class="fil6" points="38,190 83,190 83,206 38,206 "/>
 <path class="fil3" d="M22 136l11 13c-7,9 -16,16 -17,16 5,3 16,19 16,23l-7 6c-10,-6 -25,-16 -24,-31 0,-5 18,-25 22,-27z"/>
 <path class="fil7" d="M39 140l-2 -19c-2,1 -18,13 -17,15l11 14c2,-2 7,-5 8,-11z"/>
 <path class="fil3" d="M92 141l4 -16c11,1 18,3 19,4 -1,-6 -1,-25 2,-27l10 0c4,9 9,36 -4,44 -4,3 -28,-1 -31,-4z"/>
 <path class="fil7" d="M77 121l-6 15c2,1 20,7 22,6l5 -17c-3,-1 -14,-4 -22,-4z"/>
 <path class="fil8" d="M61 213c-4,2 -6,13 -7,32 0,1 1,2 1,3 0,1 -2,3 -2,3 0,0 1,1 1,1 0,0 -1,1 -1,1 5,11 0,32 0,35l-10 0c-1,-5 -7,-26 -8,-41 -1,-24 3,-44 3,-44 3,-1 13,-2 23,-2 10,0 19,1 23,2 0,0 4,20 3,44 -1,15 -7,37 -8,41l-10 0c0,-3 -5,-24 0,-35 0,0 -1,-1 -1,-1 0,0 1,-1 1,-1 0,0 -2,-1 -2,-3 0,-1 1,-2 1,-3 -1,-19 -3,-30 -7,-32z"/>
 <path class="fil9" d="M70 116c0,0 14,4 14,6 2,27 3,48 1,80l-2 1c-7,-3 -14,3 -22,-7 -11,8 -20,7 -24,7 -4,-27 -1,-57 0,-81 1,-1 2,-1 2,-2 2,-1 6,-3 8,-3 3,-1 5,-1 5,-1l17 0z"/>
 <polygon class="fil10" points="60,149 61,149 61,196 60,196 "/>
 <path class="fil11" d="M54 116c0,1 7,42 7,42 1,-8 8,-37 8,-42 0,0 -14,-1 -15,0z"/>
 <polygon class="fil7" points="68,114 62,126 69,119 76,119 "/>
 <path class="fil10" d="M68 121l-6 4 0 0 6 -6c0,1 0,1 0,2z"/>
 <polygon class="fil7" points="55,114 61,126 54,119 47,119 "/>
 <path class="fil3" d="M56 107l11 0 0 8c0,2 -5,11 -5,11 0,0 -5,-8 -5,-11l0 -7z"/>
 <path class="fil3" d="M27 68c0,0 -1,27 6,33 23,18 35,17 53,3 5,-4 7,-10 8,-26 1,-16 1,-35 0,-39 -1,-4 -21,-7 -30,-9 -9,-2 -33,4 -36,7 -3,3 0,31 0,31z"/>
 <path class="fil1" d="M29 47l-1 3c8,6 50,12 66,-3l0 0 -66 1z"/>
 <path class="fil1" d="M36 100c-7,-7 -5,-44 -7,-52 -1,-1 -1,-1 -2,-1 0,4 0,9 1,14 0,0 0,1 0,1 2,15 -2,12 1,27 1,3 1,5 2,8 2,1 4,2 6,3z"/>
 <path class="fil4" d="M67 80c-1,2 -3,3 -5,3l0 0 0 0 0 0 0 0c-2,0 -4,-1 -5,-3 4,2 6,2 10,0z"/>
 <path class="fil12" d="M34 60c7,-10 23,-6 20,-1 -1,2 -5,-5 -20,1z"/>
 <path class="fil12" d="M60 21c-19,0 -43,10 -35,39 1,4 2,22 3,24 0,0 1,-16 0,-18 -1,-12 -6,-27 9,-33 16,-6 24,6 24,6 0,0 9,-11 24,-6 14,5 9,22 9,34 0,2 -1,16 -1,16 1,-3 3,-20 4,-24 8,-29 -14,-39 -36,-39z"/>
 <path class="fil13" d="M53 289l-10 0c-7,7 -16,4 -16,6 -1,1 0,4 7,4 2,0 7,0 7,0 1,0 5,-2 5,-1l0 1 7 0c1,-3 2,-6 0,-9z"/>
 <path class="fil13" d="M68 289l10 0c7,7 16,4 16,6 1,1 0,4 -7,4 -2,0 -7,0 -7,0 -1,0 -5,-2 -5,-1l0 1 -7 0c-1,-3 -2,-6 0,-9z"/>
 <path class="fil12" d="M61 120c-8,0 -30,-16 -31,-23 9,4 17,13 22,10 4,-3 9,-4 14,1 5,4 14,-5 23,-10 -1,6 -21,22 -29,22z"/>
 <path class="fil3" d="M50 99c1,-5 2,-7 11,-7 9,0 10,3 11,7 1,5 -5,2 -11,2 -6,0 -12,2 -11,-2z"/>
 <path class="fil10" d="M61 125l-1 21 0 3 0 6c0,2 0,3 0,3 0,-1 0,-1 0,-2l0 -5 0 -1 0 -24z"/>
 <circle class="fil10" cx="63" cy="131" r="1"/>
 <circle class="fil6" cx="63" cy="131" r="1"/>
 <circle class="fil10" cx="63" cy="139" r="1"/>
 <circle class="fil6" cx="63" cy="139" r="1"/>
 <path class="fil6" d="M54 66c0,4 -16,3 -17,-1 -1,-5 17,-7 17,1z"/>
 <path class="fil14" d="M50 62c-2,-1 -5,-1 -7,0 0,1 -1,2 -1,3 0,2 2,4 4,4 2,0 4,-2 4,-4 0,-1 0,-1 0,-1z"/>
 <path class="fil12" d="M49 61c-1,0 -3,0 -4,0 0,1 -1,1 -1,2 0,2 1,3 3,3 2,0 3,-1 3,-3 0,-1 0,-1 0,-1z"/>
 <circle class="fil7" transform="matrix(0.16012 -0.0121176 0.0121176 0.16012 44.936 63.1969)" r="10"/>
 <path class="fil15" d="M44 67c-1,-1 -2,-4 -1,-6 0,0 -1,0 -1,0 0,1 -1,2 -1,3 0,1 1,3 2,3z"/>
 <path class="fil12" d="M89 60c-7,-10 -23,-6 -20,-1 1,2 5,-5 20,1z"/>
 <path class="fil6" d="M69 66c0,4 16,3 17,-1 1,-5 -17,-7 -17,1z"/>
 <path class="fil14" d="M73 62c2,-1 5,-1 7,0 0,1 1,2 1,3 0,2 -2,4 -4,4 -2,0 -4,-2 -4,-4 0,-1 0,-1 0,-1z"/>
 <path class="fil12" d="M74 61c1,0 3,0 4,0 0,1 1,1 1,2 0,2 -1,3 -3,3 -2,0 -3,-1 -3,-3 0,-1 0,-1 0,-1z"/>
 <circle class="fil7" transform="matrix(-0.16012 -0.0121176 -0.0121176 0.16012 77.8456 63.1969)" r="10"/>
 <path class="fil15" d="M79 67c1,-1 2,-4 1,-6 0,0 1,0 1,0 0,1 1,2 1,3 0,1 -1,3 -2,3z"/>
 <path class="fil16" d="M87 84c-19,9 -30,10 -51,1 24,3 28,4 51,-1z"/>
 <path class="fil16" d="M85 85c-12,23 -36,23 -46,1 7,14 37,17 46,-1z"/>
 <path class="fil7" d="M38 86c7,14 37,17 46,-1 -17,8 -28,9 -46,1z"/>
 <path class="fil12" d="M38 86c1,2 2,4 4,5 0,-1 0,-2 0,-3 -1,0 -3,-1 -4,-2z"/>
 <path class="fil12" d="M81 87c0,1 0,2 0,3 2,-1 3,-3 4,-5 -1,1 -3,1 -4,2z"/>
 <path class="fil1" d="M59 100c0,2 10,1 15,-3 -8,3 -15,2 -15,3z"/>
 <path class="fil17" d="M22 43c0,-22 4,-41 38,-41 35,0 38,20 38,41 -26,0 -51,0 -77,0z"/>
 <path class="fil18" d="M77 43c2,-10 6,-24 11,-33 -3,-2 -6,-5 -11,-6 -4,10 -8,32 -9,39l8 0z"/>
 <path class="fil18" d="M51 2c3,-2 14,-2 17,0 0,8 -4,26 -4,41 -3,0 -6,0 -10,0 0,-15 -4,-32 -4,-41z"/>
 <path class="fil18" d="M42 43c-2,-10 -6,-23 -11,-33 3,-2 6,-5 10,-6 4,10 8,32 8,39l-8 0z"/>
 <path class="fil19" d="M99 43l-77 0c10,14 62,17 77,0 0,0 0,0 0,0z"/>
 <path class="fil19" d="M52 2c3,-2 14,-2 17,0 0,8 -4,26 -4,41 -3,0 -6,0 -10,0 0,-15 -4,-32 -4,-41z"/>
 <path class="fil19" d="M78 43c2,-10 6,-24 11,-33 -3,-2 -6,-4 -11,-6 -4,10 -8,32 -9,39l8 0z"/>
 <path class="fil19" d="M43 43c-2,-10 -6,-24 -11,-33 3,-2 6,-4 11,-6 4,10 8,32 9,39l-8 0z"/>
 <path class="fil10" d="M55 121l6 4 0 0 -6 -6c0,1 0,1 0,2z"/>
 <path class="fil7" d="M120 81c4,-4 13,-7 14,9 1,19 -25,26 -23,-8 1,-16 9,-18 9,0z"/>
 <path class="fil10" d="M126 101c-14,1 -7,-18 -6,-21 -3,1 -9,25 6,21z"/>
 <path class="fil10" d="M31 151c1,-1 3,-2 5,-4 0,-1 0,-2 0,-3l-4 4 -2 2 1 1z"/>
 <path class="fil7" d="M24 193l7 -6 3 -2 0 4c7,2 13,3 12,5 0,1 -7,-1 -8,0 -1,1 9,4 7,6 -1,1 -8,-3 -9,-2 -1,0 6,5 5,6 -2,1 -7,-5 -8,-4 -1,1 3,5 2,6 -1,1 -2,-3 -8,-6 -3,-1 -5,-6 -5,-6z"/>
 <path class="fil1" d="M30 149c-4,3 -10,11 -15,16 1,0 9,-6 16,-14l-1 -1z"/>
 <path class="fil1" d="M16 165c3,4 13,17 16,23l0 0c0,-5 -11,-20 -16,-23z"/>
 <path class="fil1" d="M117 125c-1,-7 -1,-15 1,-22 0,0 -1,-1 -1,-1 -2,5 -2,20 -1,25 1,1 2,2 2,2 0,0 0,-4 0,-5z"/>
 <path class="fil10" d="M67 121l2 -1c-2,11 -4,23 -7,37 0,0 0,0 0,0l0 -3c5,-17 5,-24 6,-33z"/>
 <path class="fil14" d="M46 158c7,0 6,-9 6,-14 -4,0 -8,0 -11,0 0,5 -1,14 6,14z"/>
 <path class="fil20" d="M47 158c7,0 6,-9 6,-14 -4,0 -8,0 -11,0 0,5 -1,14 6,14z"/>
 <path class="fil14" d="M47 144l-1 0 -5 0c0,2 3,3 6,3 2,0 6,-1 6,-3l-5 0z"/>
 <path class="fil14" d="M75 158c7,0 6,-9 6,-14 -4,0 -8,0 -11,0 0,5 -1,14 6,14z"/>
 <path class="fil20" d="M76 158c7,0 6,-9 6,-14 -4,0 -8,0 -11,0 0,5 -1,14 6,14z"/>
 <path class="fil14" d="M76 144l-1 0 -5 0c0,2 3,3 6,3 2,0 6,-1 6,-3l-5 0z"/>
 <path class="fil14" d="M46 180c7,0 6,-9 6,-14 -4,0 -8,0 -11,0 0,5 -1,14 6,14z"/>
 <path class="fil20" d="M47 180c7,0 6,-9 6,-14 -4,0 -8,0 -11,0 0,5 -1,14 6,14z"/>
 <path class="fil14" d="M47 166l-1 0 -5 0c0,2 3,3 6,3 2,0 6,-1 6,-3l-5 0z"/>
 <path class="fil14" d="M75 180c7,0 6,-9 6,-14 -4,0 -8,0 -11,0 0,5 -1,14 6,14z"/>
 <path class="fil20" d="M76 180c7,0 6,-9 6,-14 -4,0 -8,0 -11,0 0,5 -1,14 6,14z"/>
 <path class="fil14" d="M76 166l-1 0 -5 0c0,2 3,3 6,3 2,0 6,-1 6,-3l-5 0z"/>
 <path class="fil12" d="M61 213c7,2 9,27 9,33 0,2 2,2 3,3 -2,0 -2,2 -3,2 0,1 1,1 2,1 0,11 -6,20 -2,35 0,0 0,1 0,1l-1 0c0,0 0,0 0,0 0,-4 -5,-24 0,-35 0,0 -1,-1 -1,-1 0,0 1,-1 1,-1 0,0 -2,-1 -2,-3 0,-1 1,-2 1,-3 -1,-19 -3,-30 -7,-32z"/>
 <path class="fil12" d="M46 289c-9,-20 -13,-60 0,-86 -1,0 -2,0 -2,0 0,0 0,1 0,1 -1,0 -1,0 -2,-1 -1,0 -1,0 -2,0 0,0 -1,0 -1,0 0,0 0,0 0,0 0,0 0,1 0,2 0,0 0,0 0,1 -1,6 -4,23 -2,42 1,15 7,36 8,41 0,0 0,0 0,0l2 0z"/>
</svg>
