<?xml version="1.0" encoding="utf-8"?>
<!-- Generator: Adobe Illustrator 16.0.0, SVG Export Plug-In . SVG Version: 6.00 Build 0)  -->
<!DOCTYPE svg PUBLIC "-//W3C//DTD SVG 1.1//EN" "http://www.w3.org/Graphics/SVG/1.1/DTD/svg11.dtd">
<svg version="1.1" id="Layer_1" xmlns="http://www.w3.org/2000/svg" xmlns:xlink="http://www.w3.org/1999/xlink" x="0px" y="0px"
	 width="50px" height="50px" viewBox="0 0 50 50" enable-background="new 0 0 50 50" xml:space="preserve">
<g>
	<g>
		<g>
			<g>
				<g>
					<g>
						<path fill="#573A43" d="M28.725,16.425h-5.098V4.531c0-1.408,1.141-2.548,2.549-2.548l0,0c1.406,0,2.549,1.141,2.549,2.548
							V16.425z"/>
					</g>
				</g>
			</g>
		</g>
		<g>
			<g>
				<g>
					<g>
						<g>
							<path fill="#B0727C" d="M28.844,36.522c-0.389,5.158-1.805,9.678-1.805,9.678H25.44c0,0,0.348-4.676,0.169-9.678
								c-0.047-1.289-0.128-2.602-0.261-3.859v-0.004c-0.041-0.4-0.088-0.793-0.14-1.18c-0.528-3.896-2.05-6.968-2.05-6.968h4.549
								c0,0,0.961,2.155,1.213,8.417C28.967,34.13,28.932,35.343,28.844,36.522z"/>
						</g>
					</g>
				</g>
			</g>
			<g>
				<g>
					<g>
						<g>
							<path fill="#B0727C" d="M25.692,24.511l-0.344,8.148v0.004l-0.163,3.859L24.776,46.2h-1.833c0,0-0.691-5.801-1.231-9.678
								c-0.012-0.086-0.024-0.174-0.037-0.26c-0.612-4.354-0.757-8.49-0.246-10.687c0.101-0.436,0.229-0.794,0.383-1.064H25.692z"/>
						</g>
					</g>
				</g>
			</g>
			<g>
				<g>
					<g>
						<g>
							<path fill="#414366" d="M28.844,36.522h-7.132c-0.012-0.086-0.024-0.174-0.037-0.26c-0.612-4.354-0.757-8.49-0.246-10.687
								l0.3-1.106l5.977,0.042c0,0,0.961,2.155,1.213,8.417C28.967,34.13,28.932,35.343,28.844,36.522z"/>
						</g>
					</g>
				</g>
			</g>
			<g>
				<g>
					<g>
						<g>
							<path fill="#B9D0ED" d="M29.133,47.835c0-0.902-0.732-1.635-1.635-1.635H25.44l0.305,1.635H29.133z"/>
						</g>
					</g>
				</g>
			</g>
			<g>
				<g>
					<g>
						<g>
							<path fill="#573A43" d="M24.467,11.667L24.467,11.667c-2.064,0-3.737-1.673-3.737-3.737V6.233h3.737V11.667z"/>
						</g>
					</g>
				</g>
			</g>
			<g>
				<g>
					<g>
						<g>
							<g>
								
									<rect x="25.579" y="6.693" transform="matrix(0.5197 -0.8543 0.8543 0.5197 6.6506 25.2731)" fill="#5C656B" width="0.451" height="0.057"/>
							</g>
						</g>
					</g>
				</g>
			</g>
			<g>
				<path fill="#88B3E3" d="M20.18,12.44l-1.045,7.136c-0.062,0.646,0.149,0.453,0.797,0.458l0.845,0.023l1.242-6.26L20.18,12.44z"
					/>
			</g>
			<path fill="#B0727C" d="M16.38,23.625l-1.911,1.559c0,0,2.086,1.25,2.505-0.679L16.38,23.625z"/>
			<path fill="#88B3E3" d="M19.909,21.537c-1.944,1.858-2.934,2.968-2.934,2.968l-0.594-0.88l2.754-4.048l1.363-1.073
				C21.157,19.57,20.741,20.742,19.909,21.537z"/>
			<path fill="#B0727C" d="M34.783,16.615l1.938-1.527c0,0,0.768,2.309-1.207,2.297L34.783,16.615z"/>
			<path fill="#88B3E3" d="M31.979,19.604c2.279-1.427,3.535-2.219,3.535-2.219l-0.73-0.771l-4.549,1.808l-1.344,1.097
				C29.719,20.396,30.955,20.245,31.979,19.604z"/>
			<polygon fill="#88B3E3" points="27.9,12.612 30.531,18.504 28.891,19.52 27.605,17.093 			"/>
			<g>
				<g>
					<g>
						<g>
							<polygon fill="#88B3E3" points="28.031,25.455 27.23,25.712 26.275,24.501 24.571,25.896 21.306,24.579 21.895,21.124 
								20.729,17.9 20.18,12.44 22.576,11.723 25.363,11.592 27.92,12.614 27.486,21.336 							"/>
						</g>
					</g>
				</g>
			</g>
			<polygon fill="#5F8BBA" points="21.037,18.792 21.439,16.286 21.764,16.392 			"/>
			<g>
				<g>
					<g>
						<g>
							<path fill="#5F8BBA" d="M25.88,17.831l-3.952-3.015l0.978-0.763l-1.188-0.27l2.155-3.129l3.256,2.893l-0.637,0.308
								l0.842,0.521L25.88,17.831z M22.305,14.814l3.479,2.654l1.263-3l-1.031-0.637l0.703-0.34l-2.802-2.491l-1.815,2.636
								l1.329,0.302L22.305,14.814z"/>
						</g>
					</g>
				</g>
			</g>
			<g>
				<g>
					<g>
						<g>
							<path fill="#FFFFFF" d="M22.589,11.722c0,0,0.669,2.572,3.243,5.928c0.813-3.029-0.469-6.058-0.469-6.058L22.589,11.722z"/>
						</g>
					</g>
				</g>
			</g>
			<g>
				<g>
					<g>
						<g>
							<polygon fill="#FFFFFF" points="22.589,11.722 21.688,13.118 26.889,13.118 25.363,11.592 							"/>
						</g>
					</g>
				</g>
			</g>
			<g>
				<g>
					<g>
						<g>
							<path fill="#B0727C" d="M25.361,11.722c0,0,0.084,0.46-0.938,0.46c-1.022,0-1.833-0.46-1.833-0.46V8.745h2.772V11.722z"/>
						</g>
					</g>
				</g>
			</g>
			<g>
				<g>
					<g>
						<g>
							<path fill="#8F4B59" d="M25.361,11.32V9.458H22.85C22.85,9.458,23.293,11.133,25.361,11.32z"/>
						</g>
					</g>
				</g>
			</g>
			<g>
				<g>
					<g>
						<g>
							<path fill="#B0727C" d="M22.063,5.972v1.583h0.526v2.191c0,0,1.73,1.521,3.359,0.763c0.714-0.333,1.15-1.07,1.15-1.857V5.972
								c0-0.46-0.117-0.891-0.326-1.263c-0.424-0.767-1.227-1.284-2.145-1.284h-0.093C23.169,3.425,22.063,4.565,22.063,5.972z"/>
						</g>
					</g>
				</g>
			</g>
			<g>
				<g>
					<g>
						<g>
							<path fill="#573A43" d="M20.729,5.808V7.25c0.517,0.122,1.128,0.081,1.128,0.081s0.869,0.289,1.508-0.569l-0.01-0.714
								c0-1.081,1.562,0.187,1.494-1.51l1.907,0.007c-0.404-0.96-1.085-1.647-3.013-1.647C21.814,2.897,20.729,4.401,20.729,5.808z"
								/>
						</g>
					</g>
				</g>
			</g>
			<g>
				<g>
					<g>
						<g>
							<path fill="#B0727C" d="M22.464,6.608h-0.015c-0.268,0-0.485,0.217-0.485,0.484v0.972c0,0.268,0.217,0.485,0.485,0.485h0.505
								V7.099C22.954,6.828,22.735,6.608,22.464,6.608z"/>
						</g>
					</g>
				</g>
			</g>
			<g>
				<g>
					<g>
						<g>
							<path fill="#8F4B59" d="M26.006,8.292v-0.23c0.232,0,0.424-0.19,0.424-0.423V7.579h0.229v0.061
								C26.658,7.999,26.365,8.292,26.006,8.292z"/>
						</g>
					</g>
				</g>
			</g>
			<g>
				<g>
					<g>
						<g>
							<polygon fill="#FFFFFF" points="26.133,22.753 24.524,25.896 26.275,24.501 27.23,25.712 							"/>
						</g>
					</g>
				</g>
			</g>
			<g>
				<g>
					<g>
						<g>
							<polygon fill="#B0727C" points="22.589,11.722 24.912,13.505 25.361,11.774 							"/>
						</g>
					</g>
				</g>
			</g>
			<g>
				<g>
					<g>
						<g>
							<polygon fill="#5F8BBA" points="26.162,22.745 25.959,22.636 26.43,21.946 26.43,18.632 25.74,17.719 25.923,17.581 
								26.658,18.555 26.658,22.003 							"/>
						</g>
					</g>
				</g>
			</g>
			<g>
				<g>
					<g>
						<g>
							<polygon fill="#5F8BBA" points="24.489,13.729 23.709,13.233 21.688,13.233 21.688,13.003 23.776,13.003 24.613,13.536 
															"/>
						</g>
					</g>
				</g>
			</g>
			<g>
				<g>
					<g>
						<g>
							<polygon fill="#5F8BBA" points="25.407,13.547 25.192,13.463 25.374,13.003 26.889,13.003 26.889,13.233 25.53,13.233 
															"/>
						</g>
					</g>
				</g>
			</g>
			<g>
				<g>
					<g>
						<g>
							<circle fill="#5F8BBA" cx="25.691" cy="19.572" r="0.229"/>
						</g>
					</g>
				</g>
			</g>
			<g>
				<g>
					<g>
						<g>
							<circle fill="#5F8BBA" cx="25.662" cy="21.493" r="0.229"/>
						</g>
					</g>
				</g>
			</g>
			<g>
				<g>
					<g>
						<g>
							<path fill="#FFFFFF" d="M26.635,47.835c0-0.902-0.732-1.635-1.634-1.635h-2.058v1.635H26.635z"/>
						</g>
					</g>
				</g>
			</g>
			<g>
				<g>
					<g>
						<g>
							<path fill="#5D342B" d="M25.98,9.78c-1.014,0-0.89-0.758-0.89-0.758h0.89V9.78z"/>
						</g>
					</g>
				</g>
			</g>
		</g>
	</g>
	<g>
		<path fill="#FFFFFF" d="M25.811,7.915l-1.269,0.019c-0.384,0.005-0.7-0.301-0.705-0.686l-0.013-0.905
			c-0.005-0.384,0.301-0.7,0.686-0.706l1.268-0.018c0.384-0.006,0.701,0.301,0.707,0.685l0.012,0.905
			C26.502,7.593,26.195,7.909,25.811,7.915z"/>
		<path fill="#E6E7E8" d="M27.088,7.985L27.088,7.985c-0.08-0.269-0.193-0.339-0.352-0.344l-0.023-1.599
			c-0.004-0.192,0.15-0.351,0.342-0.354l0,0c0.193-0.003,0.352,0.151,0.355,0.344l0.021,1.599
			C27.436,7.824,27.281,7.982,27.088,7.985z"/>
		<path fill="#414042" d="M27.641,7.715l-2.607,0.038c-0.279,0.004-0.508-0.218-0.512-0.497l-0.016-1.111
			c-0.004-0.279,0.218-0.508,0.497-0.512l2.606-0.038c0.279-0.004,0.508,0.218,0.512,0.497l0.016,1.111
			C28.143,7.482,27.92,7.711,27.641,7.715z"/>
		<path fill="#FFFFFF" d="M25.006,6.934L21.805,6.98c-0.108,0.001-0.198-0.085-0.199-0.194L21.6,6.372
			c-0.001-0.108,0.085-0.198,0.194-0.199l3.201-0.046c0.083-0.001,0.151,0.065,0.152,0.148l0.007,0.507
			C25.155,6.864,25.089,6.932,25.006,6.934z"/>
		<path fill="#171415" d="M24.813,6.937l-4.133,0.06c-0.089,0.001-0.163-0.07-0.164-0.159L20.51,6.353
			c-0.001-0.089,0.07-0.163,0.16-0.164l4.132-0.06c0.093-0.001,0.17,0.073,0.171,0.166l0.007,0.47
			C24.981,6.858,24.907,6.935,24.813,6.937z"/>
		<path fill="#171415" d="M28.127,5.995l0.016,1.035c0.004,0.225-0.176,0.41-0.4,0.413L25.858,7.47
			c-0.181,0.002-0.336-0.113-0.392-0.275c-0.005-0.014-0.009-0.028-0.012-0.042c-0.006-0.026-0.01-0.054-0.01-0.083L25.43,6.034
			c-0.001-0.009,0-0.018,0-0.026c0.011-0.213,0.185-0.383,0.4-0.386l1.884-0.027C27.939,5.591,28.125,5.77,28.127,5.995z"/>
		<path fill="#FFFFFF" d="M27.965,6.097l0.012,0.838c0.002,0.182-0.148,0.332-0.338,0.334l-1.59,0.022
			c-0.153,0.002-0.284-0.091-0.33-0.223c-0.004-0.011-0.008-0.022-0.011-0.034c-0.005-0.022-0.008-0.044-0.008-0.067l-0.013-0.838
			c0-0.007,0-0.014,0-0.021c0.009-0.172,0.156-0.311,0.337-0.313l1.59-0.022C27.805,5.77,27.961,5.915,27.965,6.097z"/>
	</g>
</g>
</svg>
