<?xml version="1.0" encoding="UTF-8" standalone="no"?>
<!-- Created with Keyshape -->
<svg xmlns="http://www.w3.org/2000/svg" id="shiba" shape-rendering="geometricPrecision" text-rendering="geometricPrecision" viewBox="0 0 500 537" style="white-space: pre;">
    <style>
@keyframes tail_t { 0% { transform: translate(138.573px,329.168px) rotate(0deg) translate(-68px,-24px); animation-timing-function: cubic-bezier(0.333,0,0.667,1); } 12.3701% { transform: translate(138.573px,329.168px) rotate(-24.514deg) translate(-68px,-24px); animation-timing-function: cubic-bezier(0.333,0,0.667,1); } 24.7402% { transform: translate(138.573px,329.168px) rotate(0deg) translate(-68px,-24px); animation-timing-function: cubic-bezier(0.333,0,0.667,1); } 37.1103% { transform: translate(138.573px,329.168px) rotate(-24.514deg) translate(-68px,-24px); animation-timing-function: cubic-bezier(0.333,0,0.667,1); } 49.4804% { transform: translate(138.573px,329.168px) rotate(0deg) translate(-68px,-24px); animation-timing-function: cubic-bezier(0.333,0,0.667,1); } 61.8505% { transform: translate(138.573px,329.168px) rotate(-24.514deg) translate(-68px,-24px); animation-timing-function: cubic-bezier(0.333,0,0.667,1); } 74.2206% { transform: translate(138.573px,329.168px) rotate(0deg) translate(-68px,-24px); animation-timing-function: cubic-bezier(0.333,0,0.667,1); } 86.5907% { transform: translate(138.573px,329.168px) rotate(-24.514deg) translate(-68px,-24px); animation-timing-function: cubic-bezier(0.333,0,0.667,1); } 98.9609% { transform: translate(138.573px,329.168px) rotate(0deg) translate(-68px,-24px); } 100% { transform: translate(138.573px,329.168px) rotate(0deg) translate(-68px,-24px); } }
@keyframes ▽-head_t { 0% { transform: translate(230.93px,204.5px) rotate(-5deg) translate(-144px,-204.5px); animation-timing-function: cubic-bezier(0.333,0,0.667,1); } 49.4804% { transform: translate(230.93px,204.5px) rotate(5deg) translate(-144px,-204.5px); animation-timing-function: cubic-bezier(0.333,0,0.667,1); } 98.9609% { transform: translate(230.93px,204.5px) rotate(-5deg) translate(-144px,-204.5px); } 100% { transform: translate(230.93px,204.5px) rotate(-5deg) translate(-144px,-204.5px); } }
@keyframes ▽-head-2_t { 0% { transform: translate(230.93px,204.5px) rotate(-5deg) translate(-144px,-204.5px); animation-timing-function: cubic-bezier(0.333,0,0.667,1); } 49.4804% { transform: translate(230.93px,204.5px) rotate(5deg) translate(-144px,-204.5px); animation-timing-function: cubic-bezier(0.333,0,0.667,1); } 98.9609% { transform: translate(230.93px,204.5px) rotate(-5deg) translate(-144px,-204.5px); } 100% { transform: translate(230.93px,204.5px) rotate(-5deg) translate(-144px,-204.5px); } }
@keyframes ▽-head-3_t { 0% { transform: translate(230.93px,204.5px) rotate(-5deg) translate(-144px,-204.5px); animation-timing-function: cubic-bezier(0.333,0,0.667,1); } 49.4804% { transform: translate(230.93px,204.5px) rotate(5deg) translate(-144px,-204.5px); animation-timing-function: cubic-bezier(0.333,0,0.667,1); } 98.9609% { transform: translate(230.93px,204.5px) rotate(-5deg) translate(-144px,-204.5px); } 100% { transform: translate(230.93px,204.5px) rotate(-5deg) translate(-144px,-204.5px); } }
@keyframes ▽-head-4_t { 0% { transform: translate(230.93px,204.5px) rotate(-5deg) translate(-144px,-204.5px); animation-timing-function: cubic-bezier(0.333,0,0.667,1); } 49.4804% { transform: translate(230.93px,204.5px) rotate(5deg) translate(-144px,-204.5px); animation-timing-function: cubic-bezier(0.333,0,0.667,1); } 98.9609% { transform: translate(230.93px,204.5px) rotate(-5deg) translate(-144px,-204.5px); } 100% { transform: translate(230.93px,204.5px) rotate(-5deg) translate(-144px,-204.5px); } }
@keyframes ▽-head-5_t { 0% { transform: translate(230.93px,204.5px) rotate(-5deg) translate(-144px,-204.5px); animation-timing-function: cubic-bezier(0.333,0,0.667,1); } 49.4804% { transform: translate(230.93px,204.5px) rotate(5deg) translate(-144px,-204.5px); animation-timing-function: cubic-bezier(0.333,0,0.667,1); } 98.9609% { transform: translate(230.93px,204.5px) rotate(-5deg) translate(-144px,-204.5px); } 100% { transform: translate(230.93px,204.5px) rotate(-5deg) translate(-144px,-204.5px); } }
@keyframes ▽-head-6_t { 0% { transform: translate(230.93px,204.5px) rotate(-5deg) translate(-144px,-204.5px); animation-timing-function: cubic-bezier(0.333,0,0.667,1); } 49.4804% { transform: translate(230.93px,204.5px) rotate(5deg) translate(-144px,-204.5px); animation-timing-function: cubic-bezier(0.333,0,0.667,1); } 98.9609% { transform: translate(230.93px,204.5px) rotate(-5deg) translate(-144px,-204.5px); } 100% { transform: translate(230.93px,204.5px) rotate(-5deg) translate(-144px,-204.5px); } }
@keyframes Path-25_mo { 0% { offset-distance: 0%; animation-timing-function: cubic-bezier(0.333,0,0.667,1); } 24.7402% { offset-distance: 25%; animation-timing-function: cubic-bezier(0.333,0,0.667,1); } 49.4805% { offset-distance: 50%; animation-timing-function: cubic-bezier(0.333,0,0.667,1); } 74.2207% { offset-distance: 75%; animation-timing-function: cubic-bezier(0.333,0,0.667,1); } 98.9609% { offset-distance: 100%; } 100% { offset-distance: 100%; } }
@keyframes ▽-head-7_t { 0% { transform: translate(230.93px,204.5px) rotate(-5deg) translate(-144px,-204.5px); animation-timing-function: cubic-bezier(0.333,0,0.667,1); } 49.4804% { transform: translate(230.93px,204.5px) rotate(5deg) translate(-144px,-204.5px); animation-timing-function: cubic-bezier(0.333,0,0.667,1); } 98.9609% { transform: translate(230.93px,204.5px) rotate(-5deg) translate(-144px,-204.5px); } 100% { transform: translate(230.93px,204.5px) rotate(-5deg) translate(-144px,-204.5px); } }
@keyframes Path-27_t { 0% { transform: translate(89.535px,96.801px) scale(1,1); animation-timing-function: cubic-bezier(1,0,0.667,1); } 12.3701% { transform: translate(89.535px,96.801px) scale(1,0.2); animation-timing-function: cubic-bezier(0.333,0,0,1); } 24.7402% { transform: translate(89.535px,96.801px) scale(1,1); animation-timing-function: cubic-bezier(0.333,0,0.667,1); } 49.4804% { transform: translate(89.535px,96.801px) scale(1,1); animation-timing-function: cubic-bezier(1,0,0.667,1); } 61.8505% { transform: translate(89.535px,96.801px) scale(1,0.2); animation-timing-function: cubic-bezier(0.333,0,0,1); } 74.2206% { transform: translate(89.535px,96.801px) scale(1,1); } 100% { transform: translate(89.535px,96.801px) scale(1,1); } }
@keyframes ▽-head-8_t { 0% { transform: translate(230.93px,204.5px) rotate(-5deg) translate(-144px,-204.5px); animation-timing-function: cubic-bezier(0.333,0,0.667,1); } 49.4804% { transform: translate(230.93px,204.5px) rotate(5deg) translate(-144px,-204.5px); animation-timing-function: cubic-bezier(0.333,0,0.667,1); } 98.9609% { transform: translate(230.93px,204.5px) rotate(-5deg) translate(-144px,-204.5px); } 100% { transform: translate(230.93px,204.5px) rotate(-5deg) translate(-144px,-204.5px); } }
@keyframes Path-29_t { 0% { transform: translate(89.535px,96.801px) scale(1,1); animation-timing-function: cubic-bezier(1,0,0.667,1); } 12.3701% { transform: translate(89.535px,96.801px) scale(1,0.2); animation-timing-function: cubic-bezier(0.333,0,0,1); } 24.7402% { transform: translate(89.535px,96.801px) scale(1,1); animation-timing-function: cubic-bezier(0.333,0,0.667,1); } 49.4804% { transform: translate(89.535px,96.801px) scale(1,1); animation-timing-function: cubic-bezier(1,0,0.667,1); } 61.8505% { transform: translate(89.535px,96.801px) scale(1,0.2); animation-timing-function: cubic-bezier(0.333,0,0,1); } 74.2206% { transform: translate(89.535px,96.801px) scale(1,1); } 100% { transform: translate(89.535px,96.801px) scale(1,1); } }
@keyframes ▽-head-9_t { 0% { transform: translate(230.93px,204.5px) rotate(-5deg) translate(-144px,-204.5px); animation-timing-function: cubic-bezier(0.333,0,0.667,1); } 49.4804% { transform: translate(230.93px,204.5px) rotate(5deg) translate(-144px,-204.5px); animation-timing-function: cubic-bezier(0.333,0,0.667,1); } 98.9609% { transform: translate(230.93px,204.5px) rotate(-5deg) translate(-144px,-204.5px); } 100% { transform: translate(230.93px,204.5px) rotate(-5deg) translate(-144px,-204.5px); } }
@keyframes ▽-head-10_t { 0% { transform: translate(230.93px,204.5px) rotate(-5deg) translate(-144px,-204.5px); animation-timing-function: cubic-bezier(0.333,0,0.667,1); } 49.4804% { transform: translate(230.93px,204.5px) rotate(5deg) translate(-144px,-204.5px); animation-timing-function: cubic-bezier(0.333,0,0.667,1); } 98.9609% { transform: translate(230.93px,204.5px) rotate(-5deg) translate(-144px,-204.5px); } 100% { transform: translate(230.93px,204.5px) rotate(-5deg) translate(-144px,-204.5px); } }
@keyframes ▽-head-11_t { 0% { transform: translate(230.93px,204.5px) rotate(-5deg) translate(-144px,-204.5px); animation-timing-function: cubic-bezier(0.333,0,0.667,1); } 49.4804% { transform: translate(230.93px,204.5px) rotate(5deg) translate(-144px,-204.5px); animation-timing-function: cubic-bezier(0.333,0,0.667,1); } 98.9609% { transform: translate(230.93px,204.5px) rotate(-5deg) translate(-144px,-204.5px); } 100% { transform: translate(230.93px,204.5px) rotate(-5deg) translate(-144px,-204.5px); } }
@keyframes ▽-head-12_t { 0% { transform: translate(230.93px,204.5px) rotate(-5deg) translate(-144px,-204.5px); animation-timing-function: cubic-bezier(0.333,0,0.667,1); } 49.4804% { transform: translate(230.93px,204.5px) rotate(5deg) translate(-144px,-204.5px); animation-timing-function: cubic-bezier(0.333,0,0.667,1); } 98.9609% { transform: translate(230.93px,204.5px) rotate(-5deg) translate(-144px,-204.5px); } 100% { transform: translate(230.93px,204.5px) rotate(-5deg) translate(-144px,-204.5px); } }
    </style>
    <g id="▽-shiba" transform="translate(249.5,268) translate(-216.5,-232.5)">
        <g id="tail" transform="translate(138.573,329.168) translate(-68,-24)" style="animation: 4.042s linear infinite both tail_t;">
            <g id="tail-2" opacity="1">
                <path id="Path-1" fill="#ee9200" d="M35.967,31.269C21.477,29.489,8.587,21.189,0.957,8.739C-6.673,-3.711,-8.223,-18.951,-3.233,-32.681C1.497,-44.611,0.547,-58.041,-5.803,-69.191C-5.803,-69.191,-7.313,-71.711,-7.313,-71.711C-42.663,-67.191,-69.383,-37.491,-70.153,-1.861C-70.933,33.759,-45.533,64.599,-10.413,70.659C24.697,76.719,58.967,56.179,70.177,22.349C60.337,29.589,48.087,32.789,35.967,31.269Z" fill-opacity="1" fill-rule="nonzero"/>
            </g>
        </g>
    </g>
    <g id="▽-shiba-2" transform="translate(249.5,268) translate(-216.5,-232.5)">
        <g id="Path" transform="translate(230.289,368.271)">
            <g id="Path-2" opacity="1">
                <path id="Path-1-2" fill="#f7a116" d="M152.05,56.115C152.05,56.115,166.02,-9.755,166.02,-9.755C170.48,-30.805,165.21,-52.745,151.67,-69.465C138.14,-86.195,117.78,-95.925,96.27,-95.955C96.27,-95.955,-95.73,-96.225,-95.73,-96.225C-117.25,-96.255,-137.64,-86.575,-151.22,-69.885C-164.8,-53.195,-170.13,-31.275,-165.73,-10.205C-165.73,-10.205,-151.95,55.725,-151.95,55.725C-151.95,55.725,-159.95,55.725,-159.95,55.725C-182.04,55.695,-199.97,73.575,-200,95.675C-200,95.675,-104,95.795,-104,95.795C-104,95.795,104,96.095,104,96.095C104,96.095,200,96.225,200,96.225C200.03,74.135,182.15,56.205,160.05,56.165C160.05,56.165,152.05,56.115,152.05,56.115Z" fill-opacity="1" fill-rule="nonzero"/>
            </g>
        </g>
    </g>
    <g id="▽-shiba-3" transform="translate(249.5,268) translate(-216.5,-232.5)">
        <g id="Path-3" transform="translate(292.506,376.133)">
            <g id="Path-4" opacity="1">
                <path id="Path-1-3" fill="#f58f00" d="M139.961,88.672C139.961,66.572,122.051,48.672,99.961,48.672C99.961,48.672,91.961,48.672,91.961,48.672C91.961,48.672,105.831,-17.218,105.831,-17.218C111.521,-44.178,101.161,-71.998,79.221,-88.668C40.541,13.032,-57.759,63.662,-139.959,88.672C-139.959,88.672,139.961,88.672,139.961,88.672Z" fill-opacity="1" fill-rule="nonzero"/>
            </g>
        </g>
    </g>
    <g id="▽-shiba-4" transform="translate(249.5,268) translate(-216.5,-232.5)">
        <g id="Path-5" transform="translate(372.465,196.801)">
            <g id="Path-6" opacity="1">
                <path id="Path-1-4" fill="#348fd9" d="M4,-20C4,-20,36,-20,36,-20C36,2.09,18.09,20,-4,20C-4,20,-36,20,-36,20C-36,-2.09,-18.09,-20,4,-20Z" fill-opacity="1" fill-rule="nonzero"/>
            </g>
        </g>
    </g>
    <g id="▽-shiba-5" transform="translate(249.5,268) translate(-216.5,-232.5)">
        <g id="Path-7" transform="translate(372.465,236.801)">
            <g id="Path-8" opacity="1">
                <path id="Path-1-5" fill="#3086cd" d="M-36,-20C-36,-20,-4,-20,-4,-20C18.09,-20,36,-2.09,36,20C36,20,4,20,4,20C-18.09,20,-36,2.09,-36,-20C-36,-20,-36,-20,-36,-20Z" fill-opacity="1" fill-rule="nonzero"/>
            </g>
        </g>
    </g>
    <g id="▽-shiba-6" transform="translate(249.5,268) translate(-216.5,-232.5)">
        <g id="Path-9" transform="translate(232.465,316.801)">
            <g id="Path-10" opacity="1">
                <path id="Path-1-6" fill="#ffb531" d="M104,-148C104,-148,-104,-148,-104,-148C-104,-148,-104,-115.91,-104,-115.91C-104,-115.91,-88,148,-88,148C-88,148,-24,148,-24,148C-24,148,-24,28,-24,28C-24,28,24,28,24,28C24,28,24,148,24,148C24,148,88,148,88,148C88,148,104,-115.91,104,-115.91C104,-115.91,104,-148,104,-148Z" fill-opacity="1" fill-rule="nonzero"/>
            </g>
        </g>
    </g>
    <g id="▽-shiba-7" transform="translate(249.5,268) translate(-216.5,-232.5)">
        <g id="Path-11" transform="translate(232.465,244.801)">
            <g id="Path-12" opacity="1">
                <path id="Path-1-7" fill="#348fd9" d="M104,-68C104,-68,-104,-68,-104,-68C-104,-68,-104,-43.91,-104,-43.91C-102.11,-11.3,-84.75,18.43,-57.28,36.09C-46.61,42.93,-35.68,49.33,-24.48,55.3C-23.99,55.55,-23.52,55.84,-23.03,56.09C-23.03,56.09,-0.47,68,-0.47,68C-0.47,68,23.53,54.56,23.53,54.56C23.53,54.56,49.32,40.16,49.32,40.16C49.32,40.16,52.52,38.35,52.52,38.35C82.43,21.29,101.77,-9.64,104,-44C104,-44,104,-68,104,-68Z" fill-opacity="1" fill-rule="nonzero"/>
            </g>
        </g>
    </g>
    <g id="▽-shiba-8" transform="translate(249.5,268) translate(-216.5,-232.5)">
        <g id="Path-13" transform="translate(232.465,244.801)">
            <g id="Path-14" opacity="1">
                <path id="Path-1-8" fill="#3086cd" d="M104,-68C104,-68,-104,-68,-104,-68C-104,-68,-104,-43.91,-104,-43.91C-102.11,-11.3,-84.75,18.43,-57.28,36.09C-46.61,42.93,-35.68,49.33,-24.48,55.3C-23.99,55.55,-23.52,55.84,-23.03,56.09C-23.03,56.09,-0.47,68,-0.47,68C-0.47,68,23.53,54.56,23.53,54.56C23.53,54.56,49.32,40.16,49.32,40.16C49.32,40.16,52.52,38.35,52.52,38.35C82.43,21.29,101.77,-9.64,104,-44C104,-44,104,-68,104,-68Z" fill-opacity="1" fill-rule="nonzero"/>
            </g>
        </g>
    </g>
    <g id="▽-shiba-9" transform="translate(249.5,268) translate(-216.5,-232.5)">
        <g id="▽-head" transform="translate(230.93,204.5) rotate(-5) translate(-144,-204.5)" style="animation: 4.042s linear infinite both ▽-head_t;">
            <g id="Path-15" transform="translate(43.969,48.008)">
                <g id="Path-16" opacity="1">
                    <path id="Path-1-9" fill="#f7a116" d="M-43.969,-48.008C-43.969,-48.008,-43.969,-31.738,-43.969,-31.738C-43.989,-15.998,-41.829,-0.328,-37.519,14.812C-37.519,14.812,-28.079,48.012,-28.079,48.012C-28.079,48.012,43.971,-23.898,43.971,-23.898C43.971,-23.898,31.751,-30.028,31.751,-30.028C8.251,-41.828,-17.679,-47.978,-43.969,-48.008Z" fill-opacity="1" fill-rule="nonzero"/>
                </g>
            </g>
        </g>
    </g>
    <g id="▽-shiba-10" transform="translate(249.5,268) translate(-216.5,-232.5)">
        <g id="▽-head-2" transform="translate(230.93,204.5) rotate(-5) translate(-144,-204.5)" style="animation: 4.042s linear infinite both ▽-head-2_t;">
            <g id="Path-17" transform="translate(243.961,48.375)">
                <g id="Path-18" opacity="1">
                    <path id="Path-1-10" fill="#f7a116" d="M-31.763,-30.214C-31.763,-30.214,-44.023,-24.114,-44.023,-24.114C-44.023,-24.114,27.877,47.986,27.877,47.986C27.877,47.986,37.437,14.826,37.437,14.826C41.777,-0.304,43.997,-15.974,44.027,-31.714C44.027,-31.714,44.027,-47.984,44.027,-47.984C17.727,-48.024,-8.223,-41.934,-31.763,-30.214C-31.763,-30.214,-31.763,-30.214,-31.763,-30.214Z" fill-opacity="1" fill-rule="nonzero"/>
                </g>
            </g>
        </g>
    </g>
    <g id="▽-shiba-11" transform="translate(249.5,268) translate(-216.5,-232.5)">
        <g id="▽-head-3" transform="translate(230.93,204.5) rotate(-5) translate(-144,-204.5)" style="animation: 4.042s linear infinite both ▽-head-3_t;">
            <g id="Path-19" transform="translate(145.535,132.801)">
                <g id="Path-20" opacity="1">
                    <path id="Path-1-11" fill="#ffb531" d="M36.8,108C36.8,108,-36.8,108,-36.8,108C-44.07,108,-51.13,105.53,-56.8,100.98C-56.8,100.98,-116,53.6,-116,53.6C-123.58,47.53,-128,38.34,-128,28.63C-128,28.63,-128,-30.75,-128,-30.75C-128,-39.23,-124.63,-47.38,-118.62,-53.37C-118.63,-53.37,-73.38,-98.63,-73.37,-98.62C-67.38,-104.63,-59.23,-108,-50.74,-108C-50.74,-108,50.75,-108,50.75,-108C59.23,-108,67.37,-104.63,73.37,-98.62C73.37,-98.63,118.62,-53.37,118.62,-53.37C124.63,-47.38,128,-39.23,128,-30.75C128,-30.75,128,28.63,128,28.63C128,38.34,123.59,47.53,116,53.6C116,53.6,56.8,100.98,56.8,100.98C51.13,105.52,44.07,108,36.8,108Z" fill-opacity="1" fill-rule="nonzero"/>
                </g>
            </g>
        </g>
    </g>
    <g id="▽-shiba-12" transform="translate(249.5,268) translate(-216.5,-232.5)">
        <g id="▽-head-4" transform="translate(230.93,204.5) rotate(-5) translate(-144,-204.5)" style="animation: 4.042s linear infinite both ▽-head-4_t;">
            <g id="Path-21" transform="translate(145.553,176.801)">
                <g id="Path-22" opacity="1">
                    <path id="Path-1-12" fill="#ffd896" d="M67.986,-64C42.926,-63.55,20.776,-47.61,12.386,-24C12.386,-24,-12.414,-24,-12.414,-24C-20.804,-47.61,-42.954,-63.55,-68.014,-64C-92.644,-63.59,-114.534,-48.17,-123.214,-25.12C-128.394,-12.03,-124.414,2.91,-113.404,11.68C-113.404,11.68,-56.814,56.98,-56.814,56.98C-51.144,61.53,-44.084,64,-36.814,64C-36.814,64,36.786,64,36.786,64C44.056,64,51.106,61.53,56.786,56.98C56.786,56.98,113.406,11.69,113.406,11.69C124.416,2.91,128.396,-12.02,123.216,-25.11C114.526,-48.18,92.626,-63.6,67.986,-64C67.986,-64,67.986,-64,67.986,-64Z" fill-opacity="1" fill-rule="nonzero"/>
                </g>
            </g>
        </g>
    </g>
    <g id="▽-shiba-13" transform="translate(249.5,268) translate(-216.5,-232.5)">
        <g id="▽-head-5" transform="translate(230.93,204.5) rotate(-5) translate(-144,-204.5)" style="animation: 4.042s linear infinite both ▽-head-5_t;">
            <g id="Path-23" transform="translate(145.535,136.801)">
                <g id="Path-24" opacity="1">
                    <path id="Path-1-13" fill="#2e3e51" d="M-8,-16C-8,-16,8,-16,8,-16C16.84,-16,24,-8.84,24,0C24,8.84,16.84,16,8,16C8,16,-8,16,-8,16C-16.84,16,-24,8.84,-24,0C-24,-8.84,-16.84,-16,-8,-16C-8,-16,-8,-16,-8,-16Z" fill-opacity="1" fill-rule="nonzero"/>
                </g>
            </g>
        </g>
    </g>
    <g id="▽-shiba-14" transform="translate(249.5,268) translate(-216.5,-232.5)">
        <g id="▽-head-6" transform="translate(230.93,204.5) rotate(-5) translate(-144,-204.5)" style="animation: 4.042s linear infinite both ▽-head-6_t;">
            <g id="Path-25" style="animation: 4.042s linear infinite both Path-25_mo; offset-path: path('M145.535,192.801C145.535,191.468,145.535,184.801,145.535,184.801C145.535,184.801,145.535,192.801,145.535,192.801C145.535,192.801,145.535,184.801,145.535,184.801C145.535,184.801,145.535,191.468,145.535,192.801L145.535,192.801'); offset-rotate: 0deg;">
                <g id="Path-26" opacity="1">
                    <path id="Path-1-14" fill="#e94f4f" d="M24,-8C24,5.25,13.25,16,0,16C-13.25,16,-24,5.25,-24,-8C-24,-8,0,-16,0,-16C0,-16,24,-8,24,-8Z" fill-opacity="1" fill-rule="nonzero"/>
                </g>
            </g>
        </g>
    </g>
    <g id="▽-shiba-15" transform="translate(249.5,268) translate(-216.5,-232.5)">
        <g id="▽-head-7" transform="translate(230.93,204.5) rotate(-5) translate(-144,-204.5)" style="animation: 4.042s linear infinite both ▽-head-7_t;">
            <g id="Path-27" transform="translate(89.535,96.801)" style="animation: 4.042s linear infinite both Path-27_t;">
                <g id="Path-28" opacity="1">
                    <path id="Path-1-15" fill="#2e3e51" d="M16,0C16,8.84,8.84,16,0,16C-8.84,16,-16,8.84,-16,0C-16,-8.84,-8.84,-16,0,-16C8.84,-16,16,-8.84,16,0Z" fill-opacity="1" fill-rule="nonzero"/>
                </g>
            </g>
        </g>
    </g>
    <g id="▽-shiba-16" transform="translate(249.5,268) translate(-216.5,-232.5)">
        <g id="▽-head-8" transform="translate(230.93,204.5) rotate(-5) translate(-144,-204.5)" style="animation: 4.042s linear infinite both ▽-head-8_t;">
            <g id="Path-29" transform="translate(89.535,96.801)" style="animation: 4.042s linear infinite both Path-29_t;">
                <g id="Path-30" transform="translate(112,0)">
                    <g id="Path-31" opacity="1">
                        <path id="Path-1-16" fill="#2e3e51" d="M16,0C16,8.84,8.84,16,0,16C-8.84,16,-16,8.84,-16,0C-16,-8.84,-8.84,-16,0,-16C8.84,-16,16,-8.84,16,0Z" fill-opacity="1" fill-rule="nonzero"/>
                    </g>
                </g>
            </g>
        </g>
    </g>
    <g id="▽-shiba-17" transform="translate(249.5,268) translate(-216.5,-232.5)">
        <g id="▽-head-9" transform="translate(230.93,204.5) rotate(-5) translate(-144,-204.5)" style="animation: 4.042s linear infinite both ▽-head-9_t;">
            <g id="Path-32" transform="translate(89.535,56.801)">
                <g id="Path-33" opacity="1">
                    <path id="Path-1-17" fill="#ffd896" d="M-8,-8C-8,-8,8,-8,8,-8C8,-8,8,8,8,8C8,8,-8,8,-8,8C-8,8,-8,-8,-8,-8Z" fill-opacity="1" fill-rule="nonzero"/>
                </g>
            </g>
        </g>
    </g>
    <g id="▽-shiba-18" transform="translate(249.5,268) translate(-216.5,-232.5)">
        <g id="▽-head-10" transform="translate(230.93,204.5) rotate(-5) translate(-144,-204.5)" style="animation: 4.042s linear infinite both ▽-head-10_t;">
            <g id="Path-34" transform="translate(201.535,56.801)">
                <g id="Path-35" opacity="1">
                    <path id="Path-1-18" fill="#ffd896" d="M-8,-8C-8,-8,8,-8,8,-8C8,-8,8,8,8,8C8,8,-8,8,-8,8C-8,8,-8,-8,-8,-8Z" fill-opacity="1" fill-rule="nonzero"/>
                </g>
            </g>
        </g>
    </g>
    <g id="▽-shiba-19" transform="translate(249.5,268) translate(-216.5,-232.5)">
        <g id="▽-head-11" transform="translate(230.93,204.5) rotate(-5) translate(-144,-204.5)" style="animation: 4.042s linear infinite both ▽-head-11_t;">
            <g id="Path-36" transform="translate(145.535,171.913)">
                <g id="Path-37" opacity="1">
                    <path id="Path-1-19" fill="#2e3e51" d="M49.344,-15.552C49.344,-15.552,39.294,-0.462,39.294,-0.462C37.484,2.228,34.244,3.568,31.064,2.938C31.064,2.938,8.004,-1.672,8.004,-1.672C8.004,-1.672,8.004,-19.112,8.004,-19.112C8.004,-19.112,-7.996,-19.112,-7.996,-19.112C-7.996,-19.112,-7.996,-1.672,-7.996,-1.672C-7.996,-1.672,-31.066,2.938,-31.066,2.938C-34.246,3.578,-37.486,2.228,-39.286,-0.462C-39.286,-0.462,-49.346,-15.552,-49.346,-15.552C-49.346,-15.552,-62.656,-6.672,-62.656,-6.672C-62.656,-6.672,-52.596,8.408,-52.596,8.408C-47.216,16.518,-37.456,20.548,-27.916,18.628C-27.916,18.628,0.004,13.028,0.004,13.028C0.004,13.028,27.924,18.628,27.924,18.628C37.464,20.578,47.234,16.528,52.604,8.408C52.604,8.408,62.654,-6.672,62.654,-6.672C62.654,-6.672,49.344,-15.552,49.344,-15.552Z" fill-opacity="1" fill-rule="nonzero"/>
                </g>
            </g>
        </g>
    </g>
    <g id="▽-shiba-20" transform="translate(249.5,268) translate(-216.5,-232.5)">
        <g id="▽-head-12" transform="translate(230.93,204.5) rotate(-5) translate(-144,-204.5)" style="animation: 4.042s linear infinite both ▽-head-12_t;"/>
    </g>
    <g id="▽-shiba-21" transform="translate(249.5,268) translate(-216.5,-232.5)"/>
</svg>
