<svg width="400" height="400" xmlns="http://www.w3.org/2000/svg">
 <g>
  <title>background</title>
  
 </g>

 <style type="text/css">.st0{fill:#ED6522;}
	.st1{fill:url(#SVGID_1_);}
	.st2{fill:#FFFFFF;}
	.st3{fill:#FFFFFE;}
	.st4{fill:#FFFEFD;}
	.st5{fill:#FFFEFC;}
	.st6{fill:#FFFEFB;}
	.st7{fill:#FFFEFA;}
	.st8{fill:#FFFDF9;}
	.st9{fill:#FFFDF8;}
	.st10{fill:#FFFDF7;}
	.st11{fill:#FFFCF6;}
	.st12{fill:#FFFCF5;}
	.st13{fill:#FFFCF4;}
	.st14{fill:#FFFBF3;}
	.st15{fill:#FFFBF2;}
	.st16{fill:#FFFBF1;}
	.st17{fill:#FFFBF0;}
	.st18{fill:#FFFAEF;}
	.st19{fill:#FFFAEE;}
	.st20{fill:#FFFAED;}
	.st21{fill:#FFF9EC;}
	.st22{fill:#FFF9EB;}
	.st23{fill:#FFF9EA;}
	.st24{fill:#FFF8E9;}
	.st25{fill:#FFF8E8;}
	.st26{fill:#FFF8E7;}
	.st27{fill:#FFF8E6;}
	.st28{fill:#FFF7E5;}
	.st29{fill:#FFF7E4;}
	.st30{fill:#FFF7E3;}
	.st31{fill:#FFF6E2;}
	.st32{fill:#FFF6E1;}
	.st33{fill:#FFF6E0;}
	.st34{fill:#FFF6DF;}
	.st35{fill:#FFF5DE;}
	.st36{fill:#FFF5DD;}
	.st37{fill:#FFF5DC;}
	.st38{fill:#FFF4DB;}
	.st39{fill:#FFF4DA;}
	.st40{fill:#FFF4D9;}
	.st41{fill:#FFF3D8;}
	.st42{fill:#FFF3D7;}
	.st43{fill:#FFF3D6;}
	.st44{fill:#FFF3D5;}
	.st45{fill:#FFF2D4;}
	.st46{fill:#FFF2D3;}
	.st47{fill:#FFF2D2;}
	.st48{fill:#FFF1D1;}
	.st49{fill:#FFF1D0;}
	.st50{fill:#FFF1CF;}
	.st51{fill:#FFF0CE;}
	.st52{fill:#FFF0CD;}
	.st53{fill:#FFF0CC;}
	.st54{fill:#FFF0CB;}
	.st55{fill:#FFEFCA;}
	.st56{fill:#FFEFC9;}
	.st57{fill:#FFEFC8;}
	.st58{fill:#FFEEC7;}
	.st59{fill:#FFEEC6;}
	.st60{fill:#FFEEC5;}
	.st61{fill:#FFEDC4;}
	.st62{fill:#FFEDC3;}
	.st63{fill:#FFEDC2;}
	.st64{fill:#FFEDC1;}
	.st65{fill:#FFECC0;}
	.st66{fill:#FFECBF;}
	.st67{fill:#FFEBBE;}
	.st68{fill:#FFEBBD;}
	.st69{fill:#FFEBBC;}
	.st70{fill:#FFEBBB;}
	.st71{fill:#FFEABA;}
	.st72{fill:#FFEAB9;}
	.st73{fill:#FFEAB8;}
	.st74{fill:#FFE9B7;}
	.st75{fill:#FFE9B6;}
	.st76{fill:#FFE9B5;}
	.st77{fill:#FFE8B4;}
	.st78{fill:#FFE8B3;}
	.st79{fill:#FFE8B2;}
	.st80{fill:#FFE8B1;}
	.st81{fill:#FFE7B0;}
	.st82{fill:#FFE7AF;}
	.st83{fill:#FFE7AE;}
	.st84{fill:#FFE6AD;}
	.st85{fill:#FFE6AC;}
	.st86{fill:#FFE6AB;}
	.st87{fill:#FFE5AA;}
	.st88{fill:#FFE5A9;}
	.st89{fill:#FFE5A8;}
	.st90{fill:#FFE5A7;}
	.st91{fill:#FFE4A6;}
	.st92{fill:#FFE4A5;}
	.st93{fill:#FFE4A4;}
	.st94{fill:#FFE3A3;}
	.st95{fill:#FFE3A2;}
	.st96{fill:#FFE3A1;}
	.st97{fill:#FFE3A0;}
	.st98{fill:#FFE29F;}
	.st99{fill:#FFE29E;}
	.st100{fill:#FFE29D;}
	.st101{fill:#FFE19C;}
	.st102{fill:#FFE19B;}
	.st103{fill:#FFE19A;}
	.st104{fill:#FFE099;}
	.st105{fill:#FFE098;}
	.st106{fill:#FFE097;}
	.st107{fill:#FFE096;}
	.st108{fill:#FFDF95;}
	.st109{fill:#FFDF94;}
	.st110{fill:#FFDF93;}
	.st111{fill:#FFDE92;}
	.st112{fill:#FFDE91;}
	.st113{fill:#FFDE90;}
	.st114{fill:#FFDD8F;}
	.st115{fill:#FFDD8E;}
	.st116{fill:#FFDD8D;}
	.st117{fill:#FFDD8C;}
	.st118{fill:#FFDC8B;}
	.st119{fill:#FFDC8A;}
	.st120{fill:#FFDC89;}
	.st121{fill:#FFDB88;}
	.st122{fill:#FFDB87;}
	.st123{fill:#FFDB86;}
	.st124{fill:#FFDA85;}
	.st125{fill:#FFDA84;}
	.st126{fill:#FFDA83;}
	.st127{fill:#FFDA82;}
	.st128{fill:#FFD981;}
	.st129{fill:#FFD980;}
	.st130{fill:url(#SVGID_2_);}
	.st131{fill:url(#SVGID_3_);}
	.st132{fill:url(#SVGID_4_);}
	.st133{fill:url(#SVGID_5_);}
	.st134{fill:#E5E8EC;}
	.st135{fill:#2C7EEA;}
	.st136{fill:#2366BD;}
	.st137{fill:#484F59;}
	.st138{fill:#F4DA80;}
	.st139{fill:#B91E2D;}
	.st140{fill:#E2C59C;}
	.st141{fill:#E9D6B8;}
	.st142{fill:#163F59;}
	.st143{fill:#194866;}
	.st144{fill:#FFAB01;}
	.st145{fill:#15100C;}
	.st146{fill:#CDD5D7;}
	.st147{fill:#B7BEC0;}
	.st148{fill:#F99B0F;}
	.st149{opacity:0.6;}
	.st150{fill:#EED2CE;}
	.st151{fill:#C49189;}
	.st152{fill:#FFEBE8;}
	.st153{fill:#E0B6AF;}
	.st154{fill:#FF8B5D;}
	.st155{fill:#EF8357;}
	.st156{fill:#D5E1F2;}
	.st157{fill:#3C463B;}
	.st158{fill:#2771D1;}
	.st159{fill:#161711;}
	.st160{fill:#323B31;}
	.st161{fill:#B6C2C9;}
	.st162{fill:#879BA6;}
	.st163{fill:#E4EEF3;}
	.st164{fill:#FF5931;}
	.st165{enable-background:new    ;}
	.st166{fill:#FFC910;}
	.st167{fill:#FFCA10;}
	.st168{fill:#282723;}
	.st169{fill:#B0BFDE;}
	.st170{fill:#D1DBEA;}
	.st171{fill:#19486D;}
	.st172{fill:#265880;}
	.st173{fill:#FBBC3E;}
	.st174{fill:#E59E0E;}
	.st175{fill:url(#SVGID_6_);}
	.st176{fill:url(#SVGID_7_);}
	.st177{fill:#081832;}
	.st178{fill:#EDEEF0;}
	.st179{fill:#BCD0E2;}
	.st180{fill:#4E99FF;}

		#t3  {
   
  }
 

 #BUTTON {
    animation-name: box1;
    animation-duration: 0;
    animation-timing-function: ease-in;
    animation-iteration-count: infinite;
    transform-origin:bottom;
    
    transform-box: fill-box;
  }
  @keyframes box1{
    0%{transform:scale(0) }
    13%{transform:scale(0)}
     15%{transform:scale(1.2)}
     
     16%{transform:scale(1)}
     100%{transform:scale(1) }

}
 
     
}

#m2{
    animation-name: m2;
    animation-duration: 0;
    animation-iteration-count: infinite;
    transform-origin: bottom;
    transform-box: fill-box;
}
@keyframes m2 {
    0% { opacity: 0; transform: translate(-25px, 25px); }
    22% { opacity: 0; transform: translate(-25px, 0px); }
    24% { opacity: 1; transform: translate(0px, 0px); }
}
#w2{
    animation-name: w2;
    animation-duration: 0;
    animation-iteration-count: infinite;
    transform-origin: bottom;
    transform-box: fill-box;
}
@keyframes w2 {
    0% { opacity: 0; transform: translate(-25px, 25px); }
    25% { opacity: 0; transform: translate(-25px, 0px); }
    28% { opacity: 1; transform: translate(0px, 0px); }
	22%{transform:scale(1)}
	 50%{transform:translateY(-10px)}
	 70%{transform:translateY(10px)}
}
#w1{
    animation-name: w1;
    animation-duration: 0;
    animation-iteration-count: infinite;
    transform-origin: bottom;
    transform-box: fill-box;
}
@keyframes w1 {
    0% { opacity: 0; transform: translate(25px, 25px); }
    29% { opacity: 0; transform: translate(25px, 0px); }
    32% { opacity: 1; transform: translate(0px, 0px); }
}
#heart {
    animation-name: ht;
    animation-duration: 0;
    animation-timing-function: ease-in;
    animation-iteration-count: infinite;
    transform-origin:bottom;
    
    transform-box: fill-box;
  }
  @keyframes ht{
    0%{transform:scale(0) }
    31%{transform:scale(0)}
     33%{transform:scale(1.2)}
     
     34%{transform:scale(1)}
     100%{transform:scale(1) }
}
#like {
    animation-name: lt;
    animation-duration: 0;
    animation-timing-function: ease-in;
    animation-iteration-count: infinite;
    transform-origin:bottom;
    
    transform-box: fill-box;
  }
  @keyframes lt{
    0%{transform:scale(0) }
    31%{transform:scale(0)}
     33%{transform:scale(1.2)}
     
     34%{transform:scale(1)}
     100%{transform:scale(1) }
}
#box1 {
    animation-name: bt;
    animation-duration: 0;
    animation-timing-function: ease-in;
    animation-iteration-count: infinite;
    transform-origin:bottom;
    
    transform-box: fill-box;
  }
  @keyframes bt{
    0%{transform:scale(0) }
    35%{transform:scale(0)}
     36%{transform:scale(1.2)}
     
     38%{transform:scale(1)}
     100%{transform:scale(1) }
}
#box2 {
    animation-name: b2;
    animation-duration: 0;
    animation-timing-function: ease-in;
    animation-iteration-count: infinite;
    transform-origin:bottom;
    
    transform-box: fill-box;
  }
  @keyframes b2{
    0%{transform:scale(0) }
    38%{transform:scale(0)}
     39%{transform:scale(1.2)}
     
     40%{transform:scale(1)}
     100%{transform:scale(1) }
}
#w1l {
    animation-name: pa;
    animation-duration: 2s;
	animation-direction: alternate;
	
    animation-timing-function: linear;
    animation-iteration-count: infinite;
    transform-origin:95% 0%;
    
    transform-box: fill-box;
  }
  @keyframes pa{
    0%{transform:rotateZ(3deg);}
	100%{transform:rotateZ(-3deg);}
	
}
#w2a {
    animation-name: w2a;
    animation-duration: 1.5s;
	animation-direction: alternate;
	
    animation-timing-function: linear;
    animation-iteration-count: infinite;
    transform-origin:5% 90%;
    
    transform-box: fill-box;
  }
  @keyframes w2a{
    0%{transform:rotateZ(4deg);}
	100%{transform:rotateZ(-4deg);}
}
#m2l1 {
    animation-name: m2a;
    animation-duration: 1.5s;
	animation-direction: alternate;
	
    animation-timing-function: linear;
    animation-iteration-count: infinite;
    transform-origin:95% 0%;
    
    transform-box: fill-box;
  }
  @keyframes m2a{
    0%{transform:rotateZ(0deg);}
	100%{transform:rotateZ(-25deg);}
}
#m2l2 {
    animation-name: m2b;
    animation-duration: 1.5s;
	animation-direction: alternate;
	
    animation-timing-function: linear;
    animation-iteration-count: infinite;
    transform-origin:5% 10%;
    
    transform-box: fill-box;
  }
  @keyframes m2b{
    0%{transform:rotateZ(0deg);}
	100%{transform:rotateZ(25deg);}
}
#m1h {
    animation-name: m1h;
    animation-duration: 3s;
	animation-direction: alternate;
	
    animation-timing-function: linear;
    animation-iteration-count: infinite;
    transform-origin:5% 10%;
    
    transform-box: fill-box;
  }
  @keyframes m1h{
    0%{transform:translateY(0px);}
	20%{transform:translateY(0px);}
	 30%{transform:translateY(2px);}
	50%{transform:translateY(0px);}
	
	60%{transform:translatey(0px);}
	100%{transform:translatey(2px);}
}
#m2h {
    animation-name: m2h;
    animation-duration: 1.5s;
	animation-direction: alternate;
	
    animation-timing-function: linear;
    animation-iteration-count: infinite;
    transform-origin:5% 90%;
    
    transform-box: fill-box;
  }
  @keyframes m2h{
    0%{transform:rotateZ(4deg);}
	100%{transform:rotateZ(-4deg);}
}</style>
 <g>
  <title>Layer 1</title>
  <g stroke="null" id="CELLPHONE">
   <g stroke="null" id="svg_270">
    <g stroke="null" id="svg_271">
     <path stroke="null" class="st146" d="m276.09324,322.87563c0,9.94056 -8.13319,18.22437 -18.22437,18.22437l-108.59313,0c-9.94056,0 -18.22437,-8.13319 -18.22437,-18.22437l0,-257.40037c0,-9.94056 8.13319,-18.22437 18.22437,-18.22437l108.59313,0c9.94056,0 18.22437,8.13319 18.22437,18.22437l0,257.40037z" id="svg_272"/>
    </g>
    <g stroke="null" id="svg_273">
     <path stroke="null" class="st134" d="m152.13741,338.23832c-9.94056,0 -18.22437,-8.13319 -18.22437,-18.22437l0,-251.67701c0,-9.94056 8.13319,-18.22437 18.22437,-18.22437l103.02039,0c9.94056,0 18.22437,8.13319 18.22437,18.22437l0,251.67701c0,9.94056 -8.13319,18.22437 -18.22437,18.22437l-103.02039,0z" id="svg_274"/>
    </g>
    <g stroke="null" id="svg_275">
     <path stroke="null" class="st146" d="m212.98572,65.02342c0,0.60246 -0.45184,1.20492 -1.20492,1.20492l-16.71822,0c-0.60246,0 -1.20492,-0.45184 -1.20492,-1.20492l0,0c0,-0.60246 0.45184,-1.20492 1.20492,-1.20492l16.71822,0c0.75307,0.15061 1.20492,0.60246 1.20492,1.20492l0,0z" id="svg_276"/>
    </g>
    <path stroke="null" class="st146" d="m213.58817,325.43608c0,1.20492 -0.90369,2.1086 -2.1086,2.1086l-15.36269,0c-1.20492,0 -2.1086,-0.90369 -2.1086,-2.1086l0,-4.21721c0,-1.20492 0.90369,-2.1086 2.1086,-2.1086l15.36269,0c1.20492,0 2.1086,0.90369 2.1086,2.1086l0,4.21721z" id="svg_277"/>
    <polygon stroke="null" class="st146" points="133.7624168395996,93.03772735595703 133.7624168395996,93.03772735595703 130.29829788208008,93.03772735595703 130.29829788208008,93.03772735595703 130.29829788208008,81.89227294921875 130.29829788208008,81.89227294921875 133.7624168395996,81.89227294921875 133.7624168395996,81.89227294921875 " id="svg_278"/>
    <polygon stroke="null" class="st146" points="133.7624168395996,122.4075927734375 133.7624168395996,122.4075927734375 130.29829788208008,122.4075927734375 130.29829788208008,122.4075927734375 130.29829788208008,103.58075714111328 130.29829788208008,103.58075714111328 133.7624168395996,103.58075714111328 133.7624168395996,103.58075714111328 " id="svg_279"/>
    <polygon stroke="null" class="st146" points="133.7624168395996,144.8491668701172 133.7624168395996,144.8491668701172 130.29829788208008,144.8491668701172 130.29829788208008,144.8491668701172 130.29829788208008,126.7754135131836 130.29829788208008,126.7754135131836 133.7624168395996,126.7754135131836 133.7624168395996,126.7754135131836 " id="svg_280"/>
    <g stroke="null" id="svg_281">
     <rect stroke="null" x="139.93763" y="80.68734" class="st148" width="127.26934" height="225.7713" id="svg_282"/>
    </g>
   </g>
   <g stroke="null" class="st149" id="svg_283">
    <g stroke="null" id="svg_284">
     <rect stroke="null" x="134.81673" y="129.7877" class="st150" width="136.45684" height="168.23652" id="svg_285"/>
     <rect stroke="null" x="134.81673" y="128.88401" class="st151" width="135.40253" height="5.57274" id="svg_286"/>
     <g stroke="null" id="svg_287">
      <rect stroke="null" x="228.04718" y="150.4219" class="st152" width="32.38214" height="36.74996" id="svg_288"/>
      <rect stroke="null" x="188.58615" y="150.4219" class="st152" width="32.38214" height="36.74996" id="svg_289"/>
      <rect stroke="null" x="149.27574" y="150.4219" class="st152" width="32.38214" height="36.74996" id="svg_290"/>
     </g>
     <polygon stroke="null" class="st152" points="176.6875877380371,205.99868774414062 181.65787887573242,205.99868774414062 220.9682731628418,205.99868774414062 220.9682731628418,281.9084167480469 181.65787887573242,281.9084167480469 176.6875877380371,281.9084167480469 149.2757682800293,281.9084167480469 149.2757682800293,205.99868774414062 " id="svg_291"/>
     <polygon stroke="null" class="st150" points="181.65787887573242,205.99868774414062 220.9682731628418,205.99868774414062 220.9682731628418,220.30706787109375 149.2757682800293,220.30706787109375 149.2757682800293,205.99868774414062 176.6875877380371,205.99868774414062 " id="svg_292"/>
     <polygon stroke="null" class="st151" points="176.08515548706055,205.99868774414062 181.3566551208496,205.99868774414062 223.22751998901367,205.99868774414062 223.22751998901367,209.6134490966797 181.3566551208496,209.6134490966797 176.08515548706055,209.6134490966797 147.01652145385742,209.6134490966797 147.01652145385742,205.99868774414062 " id="svg_293"/>
     <polygon stroke="null" class="st153" points="176.08515548706055,278.293701171875 181.3566551208496,278.293701171875 223.22751998901367,278.293701171875 223.22751998901367,281.9084167480469 181.3566551208496,281.9084167480469 176.08515548706055,281.9084167480469 147.01652145385742,281.9084167480469 147.01652145385742,278.293701171875 " id="svg_294"/>
     <rect stroke="null" x="228.04718" y="205.99869" class="st153" width="32.38214" height="87.05524" id="svg_295"/>
     <rect stroke="null" x="231.21008" y="257.50889" class="st151" width="26.05633" height="1.80738" id="svg_296"/>
     <rect stroke="null" x="231.21008" y="262.62979" class="st151" width="26.05633" height="1.80738" id="svg_297"/>
     <rect stroke="null" x="220.96829" y="293.20455" class="st152" width="46.3893" height="6.92827" id="svg_298"/>
     <rect stroke="null" x="228.04718" y="205.99869" class="st151" width="32.38214" height="14.30839" id="svg_299"/>
     <rect stroke="null" x="134.81673" y="297.8736" class="st153" width="133.14331" height="10.39241" id="svg_300"/>
     <rect stroke="null" x="134.06366" y="120.14837" class="st153" width="144.89125" height="10.39241" id="svg_301"/>
    </g>
   </g>
   <g stroke="null" id="svg_302">
    <g stroke="null" id="svg_303">
     <g stroke="null" id="svg_304">
      <path stroke="null" class="st154" d="m98.51861,114.12378l0,18.37498c0,4.97028 5.87397,8.88626 12.95286,8.88626c7.2295,0 12.95286,-3.91598 12.95286,-8.88626l0,-18.37498l-25.90571,0z" id="svg_305"/>
      <path stroke="null" class="st2" d="m124.57494,114.12378l0,18.37498c0,4.97028 5.87397,8.88626 12.95286,8.88626c7.2295,0 12.95286,-3.91598 12.95286,-8.88626l0,-18.37498l-25.90571,0z" id="svg_306"/>
      <path stroke="null" class="st154" d="m150.63127,114.12378l0,18.37498c0,4.97028 5.87397,8.88626 12.95286,8.88626c7.2295,0 12.95286,-3.91598 12.95286,-8.88626l0,-18.37498l-25.90571,0z" id="svg_307"/>
      <path stroke="null" class="st2" d="m176.6876,114.12378l0,18.37498c0,4.97028 5.87397,8.88626 12.95286,8.88626c7.2295,0 12.95286,-3.91598 12.95286,-8.88626l0,-18.37498l-25.90571,0z" id="svg_308"/>
      <path stroke="null" class="st154" d="m202.74392,114.12378l0,18.37498c0,4.97028 5.87397,8.88626 12.95286,8.88626c7.2295,0 12.95286,-3.91598 12.95286,-8.88626l0,-18.37498l-25.90571,0z" id="svg_309"/>
      <path stroke="null" class="st2" d="m228.64964,114.12378l0,18.37498c0,4.97028 5.87397,8.88626 12.95286,8.88626c7.2295,0 12.95286,-3.91598 12.95286,-8.88626l0,-18.37498l-25.90571,0z" id="svg_310"/>
      <path stroke="null" class="st154" d="m254.70596,114.12378l0,18.37498c0,4.97028 5.87397,8.88626 12.95286,8.88626c7.2295,0 12.95286,-3.91598 12.95286,-8.88626l0,-18.37498l-25.90571,0z" id="svg_311"/>
      <path stroke="null" class="st2" d="m280.76229,114.12378l0,18.37498c0,4.97028 5.87397,8.88626 12.95286,8.88626c7.2295,0 12.95286,-3.91598 12.95286,-8.88626l0,-18.37498l-25.90571,0z" id="svg_312"/>
     </g>
     <g stroke="null" id="svg_313">
      <path stroke="null" class="st155" d="m136.17227,85.05516c-12.50101,9.63933 -25.00203,19.42928 -37.50304,29.06862c8.73565,0 17.32068,0 26.05633,0c9.33811,-9.63933 18.82683,-19.42928 28.16493,-29.06862c-5.72336,0 -11.2961,0 -16.71822,0z" id="svg_314"/>
      <path stroke="null" class="st156" d="m152.73987,85.05516c-9.33811,9.63933 -18.82683,19.42928 -28.16493,29.06862c8.73565,0 17.32068,0 26.05633,0c6.32581,-9.63933 12.50101,-19.42928 18.82683,-29.06862c-5.57274,0 -11.14548,0 -16.71822,0z" id="svg_315"/>
      <path stroke="null" class="st155" d="m169.45809,85.05516c-6.32581,9.63933 -12.50101,19.42928 -18.82683,29.06862c8.73565,0 17.32068,0 26.05633,0c3.16291,-9.63933 6.32581,-19.42928 9.33811,-29.06862c-5.57274,0 -11.14548,0 -16.56761,0z" id="svg_316"/>
      <path stroke="null" class="st156" d="m186.0257,85.05516c-3.16291,9.63933 -6.32581,19.42928 -9.33811,29.06862c8.73565,0 17.32068,0 26.05633,0c0,-9.63933 0,-19.42928 0,-29.06862c-5.57274,0 -11.14548,0 -16.71822,0z" id="svg_317"/>
      <path stroke="null" class="st155" d="m202.74392,85.05516c0,9.63933 0,19.42928 0,29.06862c8.73565,0 17.32068,0 26.05633,0c-3.16291,-9.63933 -6.32581,-19.42928 -9.33811,-29.06862c-5.72336,0 -11.2961,0 -16.71822,0z" id="svg_318"/>
      <path stroke="null" class="st156" d="m219.31153,85.05516c3.16291,9.63933 6.32581,19.42928 9.33811,29.06862c8.73565,0 17.32068,0 26.05633,0c-6.32581,-9.63933 -12.50101,-19.42928 -18.82683,-29.06862c-5.42213,0 -10.99487,0 -16.56761,0z" id="svg_319"/>
      <path stroke="null" class="st155" d="m236.02975,85.05516c6.32581,9.63933 12.50101,19.42928 18.82683,29.06862c8.73565,0 17.32068,0 26.05633,0c-9.33811,-9.63933 -18.82683,-19.42928 -28.16493,-29.06862c-5.72336,0 -11.2961,0 -16.71822,0z" id="svg_320"/>
      <path stroke="null" class="st156" d="m280.76229,114.12378c8.73565,0 17.32068,0 26.05633,0c-12.50101,-9.63933 -25.00203,-19.42928 -37.50304,-29.06862c-5.57274,0 -11.14548,0 -16.71822,0c9.33811,9.78995 18.82683,19.42928 28.16493,29.06862z" id="svg_321"/>
     </g>
     <g stroke="null" id="svg_322">
      <rect stroke="null" x="136.02165" y="79.18119" class="st155" width="16.71822" height="6.02458" id="svg_323"/>
      <rect stroke="null" x="152.73987" y="79.18119" class="st2" width="16.71822" height="6.02458" id="svg_324"/>
      <rect stroke="null" x="169.30748" y="79.18119" class="st155" width="16.71822" height="6.02458" id="svg_325"/>
      <rect stroke="null" x="186.0257" y="79.18119" class="st2" width="16.71822" height="6.02458" id="svg_326"/>
      <rect stroke="null" x="202.74392" y="79.18119" class="st155" width="16.71822" height="6.02458" id="svg_327"/>
      <rect stroke="null" x="219.31153" y="79.18119" class="st2" width="16.71822" height="6.02458" id="svg_328"/>
      <rect stroke="null" x="236.02975" y="79.18119" class="st155" width="16.71822" height="6.02458" id="svg_329"/>
      <rect stroke="null" x="252.74797" y="79.18119" class="st2" width="16.71822" height="6.02458" id="svg_330"/>
     </g>
    </g>
   </g>
  </g>
  <g id="MEN_LAPTOP">
   <g id="svg_331">
    <path class="st157" d="m202.86731,318.6c0,0 20.6,0 28.5,0.2c5.5,0.1 6,-7.8 3.8,-8.9c-6.6,-3.6 -27.1,-5.4 -27.1,-5.4l-14,12.8c0,-0.1 0.8,-0.1 8.8,1.3z" id="svg_332"/>
    <path class="st158" d="m222.26731,276.6c0,0 5.3,-1.5 7.6,5.4c3.5,10.6 3.2,20.3 2.7,22.4c-0.2,1 -0.9,4.3 -6.8,4.4c-2.4,0.1 -1.4,-5.1 -1.4,-5.1s-1.5,-4.4 -3.2,-11.7c-1.7,-7.4 1.1,-15.4 1.1,-15.4z" id="svg_333"/>
    <path class="st135" d="m226.46731,277.2l-13.6,-4.4l-10.3,-0.7l-11.3,3.4c0,0 -3.7,2.5 -0.3,10.7c3.4,8.2 2.1,21 2.1,21l29,0.9c0,0 0.6,-11.8 2.5,-23.6c0.5,-2.7 0.6,-5.8 1.9,-7.3z" id="svg_334"/>
    <path class="st158" d="m206.46731,307.5l1.5,0c1.5,-11.4 1.5,-23.2 -0.2,-34.6c-0.4,0.3 -0.9,0.5 -1.3,0.8c0.3,11.7 -0.3,23.3 0,33.8z" id="svg_335"/>
    <g id="svg_336">
     <path class="st140" d="m212.26731,276c-0.2,1.6 -1.5,2.9 -2.8,3c-1.3,0 -2.6,0 -3.8,0c-1.3,-0.1 -2.6,-1.4 -2.8,-3c-0.3,-2.6 -0.6,-5.2 -0.9,-7.8c-0.2,-1.6 0.7,-4.7 2.8,-5.6c1.9,-0.8 4,-0.8 5.9,0c2,0.9 3,4 2.8,5.6c-0.6,2.6 -0.9,5.2 -1.2,7.8z" id="svg_337"/>
    </g>
    <polygon class="st158" points="207.36729192733765,279.20001220703125 204.9673285484314,283.20001220703125 200.4673285484314,277.6000061035156 201.16734075546265,274.70001220703125 202.5673041343689,273.5 202.66734075546265,275.70001220703125 " id="svg_338"/>
    <polygon class="st158" points="207.66734075546265,279.20001220703125 210.0673041343689,283.20001220703125 214.26731634140015,278 213.5673041343689,274.79998779296875 212.5673041343689,273.3999938964844 212.0673041343689,276.1000061035156 " id="svg_339"/>
    <path class="st159" d="m179.16731,358c-0.3,0.4 -0.1,1.4 -0.1,1.4s5.5,0.6 7.3,0.2c0.5,-0.1 1.2,-0.5 2,-0.9c0.1,-0.1 0.3,-0.5 0.5,-0.6s0.3,0.1 0.5,0c0.5,-0.3 0.8,-0.6 0.8,-0.6c0.5,-2.5 -0.2,-3.6 -0.2,-3.6s-4.7,-1.6 -5.6,-0.5c-2,2.6 -4.5,3.7 -5.2,4.6z" id="svg_340"/>
    <path class="st159" d="m230.96731,355.2l0.4,4.2l4.2,0.4c0,0 0.3,-0.6 0.6,-0.5c0.3,0 0.6,0.6 1,0.7c0.9,0.1 1.9,0.2 2.3,0.2c0.8,0.1 8.4,0.8 8.4,0.8s0.3,-0.8 0.1,-1.2c-0.1,-0.2 -0.8,-0.5 -1.2,-0.7c-2.1,-0.8 -8.1,-3.3 -9,-5.5c-1.1,-2.6 -6.8,1.6 -6.8,1.6z" id="svg_341"/>
    <g id="svg_342">
     <path class="st141" d="m224.66731,302.2l-14.2,5.8c0,0 10.1,1.4 16.3,0.2c4.3,-0.9 -2,-6.2 -2.1,-6z" id="svg_343"/>
    </g>
    <path class="st157" d="m192.46731,311c0,0 -1.4,12.9 -1.2,19.8c0.1,5.2 0.2,15.1 -1.1,23.5c-0.1,0.5 -6.7,0.1 -6.7,0.1s-2.4,-32.1 -3.1,-37.4c-0.6,-5.2 1.5,-9.1 12.1,-6z" id="svg_344"/>
    <path class="st160" d="m233.86731,314.1c0,0 -2.1,3.4 -8,4.1c-2.1,0.3 3.4,37.6 3.4,37.6l8.6,-2.8l-1.7,-41.2l-2.3,2.3z" id="svg_345"/>
    <path class="st160" d="m210.16731,318.3c0,0 -11.3,1.6 -18.8,2.4c-2.8,0.3 -5.1,-7.4 -5.5,-7.8c-2,-2.1 -4,-1.8 -3.9,-1.9c1.6,-1.8 10.1,-3.4 18.9,-5.5s10.1,-0.8 10.1,-0.8l-0.8,13.6z" id="svg_346"/>
    <path class="st157" d="m200.86731,305.6c-8.8,2.1 -17.2,3.7 -18.9,5.5c-0.1,0.1 1.9,-0.2 3.9,1.9c0.1,0.1 0.6,2.6 1,3.4c-1.4,-2.6 19.3,-9.9 23.7,-11.8c-0.8,-0.3 -3.2,-0.6 -9.7,1z" id="svg_347"/>
    <polygon class="st160" points="191.16731023788452,318.20001220703125 190.36732244491577,343.3999938964844 189.4673285484314,349.20001220703125 189.36732244491577,343.3999938964844 189.5673041343689,339.70001220703125 187.5673041343689,334.1000061035156 186.4673285484314,321 188.0673041343689,321.5 187.86732244491577,315.79998779296875 " id="svg_348"/>
    <path class="st157" d="m233.66731,311l2.1,0.6l0.8,30.3l-4.4,10.8l2.1,-7.4l-0.9,-15.2c0,0 -3.1,7.4 -3.1,7s2.6,-16 2.6,-16s-2.9,2.4 -2.6,2.3c0.3,-0.1 1.7,-11 3.4,-12.4z" id="svg_349"/>
    <path class="st135" d="m197.56731,275.6c0,0 -4.5,-3.5 -8.9,3c-6.5,9.6 -9.3,19.9 -10.3,22.9c-0.8,2.3 -0.4,8.7 2.3,11.4c0.6,0.6 4.5,0.1 4.5,0.1l2.5,-1.7l-1.1,-2l-0.1,-1.6c0,0 3.2,-7.8 7.2,-15.1c3.9,-7.4 3.9,-17 3.9,-17z" id="svg_350"/>
    <g id="svg_351">
     <path class="st141" d="m186.46731,305.1l14.7,0.8c0,0 -14.1,6.5 -14.6,5.4c-2.7,-6.4 -0.1,-6.2 -0.1,-6.2z" id="svg_352"/>
     <g id="svg_353">
      <path class="st141" d="m194.56731,304.7c0.9,-0.4 0.8,-0.4 0.8,-0.4s0.8,0.9 1.9,1.1c0.6,0.1 2.4,0.1 2.4,0.1l2.7,0.1l1.3,-0.1c0,0 0.7,-0.1 0.9,0c0.5,0.4 0.1,0.6 0.1,0.6l-4.8,0.7l4.7,0.6c0,0 0.6,0.2 0.6,0.5s-0.2,0.3 -0.2,0.3l-5.4,0.6l2.4,0.6c0,0 0.6,0.2 0.6,0.5s0.1,0.4 0.1,0.4l-5,-0.5c-0.2,-0.1 -4,-4.7 -3.1,-5.1z" id="svg_354"/>
      <path class="st141" d="m199.96731,307.7l3.3,0.6c0,0 0.7,0.1 1.1,0.3c0.4,0.3 0.2,0.6 0.2,0.6l-5,-0.4l0.4,-1.1z" id="svg_355"/>
     </g>
    </g>
    <g id="svg_356">
     <path class="st161" d="m220.36731,310.2l0,0l0,-1l-28.9,0l0,0.9l0,0l0.1,0.2c0.5,0.8 1.4,0.9 2.4,0.9l24,0c1,0 1.9,-0.1 2.4,-0.9l0,-0.1z" id="svg_357"/>
     <g id="svg_358">
      <rect x="196.26731" y="309.5" class="st162" width="19.2" height="0.7" id="svg_359"/>
     </g>
     <g id="svg_360">
      <path class="st163" d="m220.36731,309.4l0.1,-19c0,-0.5 -0.4,-0.9 -0.9,-0.9l-27.1,0c-0.5,0 -0.9,0.4 -0.9,0.9l-0.1,19l28.9,0z" id="svg_361"/>
      <path class="st161" d="m207.66731,299.4c0,1 -0.8,1.8 -1.8,1.8s-1.8,-0.8 -1.7,-1.8c0,-1 0.8,-1.8 1.8,-1.8c0.9,0.1 1.7,0.9 1.7,1.8z" id="svg_362"/>
     </g>
    </g>
    <polygon class="st158" points="184.5673041343689,312.3999938964844 183.5673041343689,306 185.26731634140015,304.29998779296875 188.9673285484314,304.8999938964844 188.16731023788452,312 " id="svg_363"/>
    <polygon class="st135" points="229.5673041343689,307.79998779296875 229.9673285484314,305.5 225.26731634140015,301.20001220703125 222.76731634140015,302.3999938964844 226.0673041343689,308.70001220703125 " id="svg_364"/>
   </g>
   <g id="m1h">
    <path class="st142" d="m206.96731,257.7c-1.1,0 -2,0.6 -2.6,1.4l-1.1,0c-1.3,0 -2.4,1.1 -2.4,2.4l0,5.9l1.7,0l0,-2.4c0,-0.9 0.7,-1.7 1.7,-1.7l1,0l-1.5,0l1,0c1.7,0 3.1,-1.4 3.1,-3.1l0,-2.5l-0.9,0l0,0z" id="svg_365"/>
    <path class="st140" d="m203.96731,269.5c0,0.8 -0.7,1.5 -1.5,1.5l-0.1,0c-0.8,0 -1.5,-0.6 -1.5,-1.5l0,-1.8c0,-0.8 0.7,-1.5 1.5,-1.5l0.1,0c0.6,0 1.1,0.4 1.3,0.9" id="svg_366"/>
    <path class="st142" d="m205.66731,260l0,-2.3l1,0l2.5,0l1.5,0c1.7,0 3.1,1.4 3.1,3.1l0,2.3l-1,0l-2.5,0l-1.5,0c-1.8,0 -3.1,-1.4 -3.1,-3.1z" id="svg_367"/>
    <path class="st141" d="m213.26731,271.8c0,1.2 -0.9,3.3 -2.5,3.9c-2.1,0.9 -4.6,0.9 -6.7,0c-1.6,-0.7 -2.5,-2.7 -2.5,-3.9c0,-3.5 0,-6.9 0,-10.4c0,-1.2 1.2,-2.3 2.7,-2.3c2.1,0 4.1,0 6.2,0c1.5,0 2.7,1.1 2.7,2.3c0.1,3.4 0.1,6.9 0.1,10.4z" id="svg_368"/>
    <path class="st142" d="m208.66731,257.7c1.1,0 2,0.6 2.6,1.4l1.1,0c1.3,0 2.4,1.1 2.4,2.4l0,5.9l-1.7,0l0,-2.4c0,-0.9 -0.8,-1.7 -1.7,-1.7l0,0l0.6,0l-2.7,0c-1.7,0 -3.1,-1.4 -3.1,-3.1l0,-2.5l2.5,0l0,0z" id="svg_369"/>
    <path class="st141" d="m211.66731,267.8c0,-0.8 0.7,-1.5 1.5,-1.5l0.1,0c0.8,0 1.5,0.7 1.5,1.5l0,1.8c0,0.8 -0.7,1.5 -1.5,1.5l-0.1,0c-0.6,0 -1.1,-0.4 -1.3,-0.9" id="svg_370"/>
    <path class="st142" d="m206.16731,260.7c0,-0.2 0.1,-0.4 0.1,-0.6l0,-2.3l-1,0l-1.2,0c-1.7,0 -3.1,1.4 -3.1,3.1l0,2.3l0.6,0l0.3,0l1.2,0c0.2,0 0.4,0 0.6,-0.1c0.3,-1.3 1.3,-2.2 2.5,-2.4z" id="svg_371"/>
   </g>
  </g>
 </g>
</svg>