<?xml version="1.0" encoding="utf-8"?>
<!-- Generator: Adobe Illustrator 17.0.0, SVG Export Plug-In . SVG Version: 6.00 Build 0)  -->
<!DOCTYPE svg PUBLIC "-//W3C//DTD SVG 1.1//EN" "http://www.w3.org/Graphics/SVG/1.1/DTD/svg11.dtd">
<svg version="1.1" id="Layer_1" xmlns="http://www.w3.org/2000/svg" xmlns:xlink="http://www.w3.org/1999/xlink" x="0px" y="0px"
	 width="800px" height="600px" viewBox="0 0 800 600" enable-background="new 0 0 800 600" xml:space="preserve">
<g>
	<g>
		<path fill="#00BB00" d="M382.67,415.18c-2.238-0.233-9.992-0.711-12.243-0.679c-0.322-94.81-4.36-157.822,0.843-252.568
			c0.709-12.908-11.573-22.317-23.47-22.319c-5.486-0.001-10.889,1.997-14.902,6.575c-32.942,51.927-62.291,83.473-95.384,123.678
			c-7.744,9.408-2.487,24.349,8.063,30.462c10.586,6.142,23.113,1.484,30.754-7.988c18.63-23.092,35.427-45.212,51.961-70.986
			c-1.067,70.434-3.095,120.814-2.822,191.261c-2.89-0.121-11.769,0.1-16.642,1.066c-6.245,1.236-13.624,4.342-17.163,17.072
			c-2.917,10.499,3.447,26.71,15.704,27.393c24.096,1.344,48.48,1.833,71.085,1.196c12.245-0.35,21.204-10.313,21.204-22.713
			C399.658,424.754,392.612,416.225,382.67,415.18z"/>
		<path fill="#FFFFFF" d="M248.397,269.624c-8.18-0.264-8.59,12.304-0.411,12.566C256.168,282.451,256.578,269.885,248.397,269.624z
			"/>
		<path fill="#FFFFFF" d="M365.664,161.688c-0.353-4.377-2.002-8.276-5.413-11.196c-3.257-2.79-7.458-4.726-11.855-4.413
			c-3.45,0.243-6.427,2.386-6.548,6.079c-0.105,3.156,2.681,6.732,6.138,6.487c0.399-0.043,0.8-0.058,1.202-0.041
			c0.107,0,0.198,0,0.27-0.002c0.096,0.034,0.236,0.078,0.45,0.137c0.343,0.133,0.529,0.199,0.573,0.204
			c0.436,0.237,0.853,0.509,1.266,0.791c-0.801-0.552,0.879,1.265,0.858,1.038c0.117,0.206,0.231,0.418,0.332,0.632
			c-0.369-0.637,0.086,1.045,0.052,0.098c0.009,0.019,0.019,0.035,0.03,0.054c0.362,3.295,2.449,6.093,6.093,6.21
			C362.279,167.868,365.94,165.108,365.664,161.688z"/>
	</g>
	<g>
		<path d="M364.494,443.305c1.23,0.406,8.877,2.298,9.97,2.57c1.093,0.27,3.55,0.812,3.687,3.113
			c0.138,2.298-3.399,2.747-5.175,3.965c-1.775,1.22,0.064,3.968,0.61,4.642c0.549,0.676,1.527,0.142,1.834,0.998
			c0.255,0.718-1.375,1.148-1.375,1.148s2.878,1.829,4.244,2.232c1.365,0.406,2.729,1.168,1.91,2.166c-0.819,1-5.191,1.862-9.012,1
			c-3.825-0.866-5.463-3.03-4.782-3.57c0.683-0.543,2.186-1.76,2.186-1.76s-1.776-0.812-1.366-1.487
			c0.411-0.677,3.962-0.406,3.278-2.03c-0.682-1.624-3.278-2.163-4.372-3.112c-1.091-0.948,0.683-2.436,1.093-4.06
			C367.636,447.497,364.494,443.305,364.494,443.305z"/>
		<path d="M365.521,443.704c1.095,1.436,3.529,3.305,1.543,4.959c-1.985,1.654-7.823,4.047-9.369,5.082
			c-1.543,1.034-0.774,2.494,0.108,3.941c0.883,1.447,1.371,3.413,2.473,3.621c1.104,0.206,2.159,0.793,2.378,1.618
			c0.221,0.829-1.088,1.47-1.088,1.47s3.481,2.226,4.768,3.572c1.837,1.921,0.218,3.345-5.52,3.139
			c-5.736-0.207-9.852-2.187-10.072-3.635c-0.223-1.445,3.726-2.864,3.726-2.864s-1.962-1.106-1.522-2.325
			c0.442-1.217,1.939-3.195,1.522-4.812c-0.564-2.196-2.987-4.844-3.869-6.496c-0.883-1.653,2.347-3.552,3.891-6.032
			c1.543-2.479,1.97-5.541-0.236-7.815c-2.205-2.275,3.986,0.581,6.856,1.822C363.979,440.191,364.419,442.258,365.521,443.704z"/>
		<path d="M442.11,319.871c-1.324-0.291-3.092-0.439-3.241-1.899c-0.146-1.459,0.67-4.904,0.442-7.445
			c-0.134-1.495-2.836-3.865-5.55-5.092c-2.712-1.226-8.238-5.225-11.25-8.044c-5.45-5.11-15.456-9.391-21.955-11.386
			c-5.459-1.677-5.955-1.572-5.955-1.572l-0.483-7.264c0,0,0.7-0.134,1.202-1.185c0.409-0.854,0.112-2.65-0.949-3.203
			c-1.109-0.581-2.956,0.023-3.503,0.849c-0.824,1.245-0.489,2.261-0.237,2.613c0.306,0.428,1.102,0.855,1.102,0.855l-0.689,7.333
			c0,0-1.861-0.232-3.508-0.05c-1.645,0.179-2.161,0.27-2.161,0.27l-1.225-7.598c0,0,0.642-0.016,1.282-0.468
			c0.638-0.453,1.325-2.402,0.685-3.308c-0.64-0.908-1.786-1.823-3.682-1.493c-1.34,0.234-2.174,1.493-2.063,3.148
			c0.073,1.089,1.443,2.011,1.443,2.011l-0.222,8.259l-1.836,0.809c0,0-3.477-2.265-5.581-3.079
			c-2.102-0.817-7.411-1.905-10.796-0.726c-3.383,1.179-2.286,2.448-0.548,3.715c1.738,1.269,5.581,3.355,8.144,3.989
			c2.56,0.634,6.676,0.09,6.676,0.09s0.366,13.414,2.014,19.394c1.647,5.982,3.844,29.544,3.844,37.882
			c0,6.904-0.681,34.327-0.869,43.606c-1.764,0.234-6.62,1.162-9.198,1.908c-16.145,4.683-25.568,15.276-26.087,26.528
			c-0.723,15.754,13.543,28.813,34.326,28.813c20.78,0,37.63-12.785,37.63-28.553c0-5.928-2.381-11.434-6.456-15.998
			c-0.811-9.542-3.428-40.457-4.051-49.554c-0.737-10.803-1.62-22.187-1.472-27.588c0.147-5.403-0.934-14.928-0.934-14.928
			s4.803,1.986,7.418,3.248c3.666,1.774,6.675,1.599,7.515,3.652c0.457,1.115,0.735,4.817,3.538,4.523
			c2.797-0.29,4.566-2.335,5.746-1.898c1.179,0.439,3.831,2.336,3.831,3.942s-0.295,4.233,0.882,4.088
			c1.179-0.147,3.392-2.627,2.213-4.67c-1.179-2.045-0.59-1.607-0.59-1.607s0.886,0.73,1.769,0.875
			c0.882,0.147,2.948,0.294,3.683-0.73C443.143,321.913,443.439,320.162,442.11,319.871z"/>
		<path fill="#E6B111" d="M367.588,445.543c0.676,0.898,0.802,2.034,0.702,3.323c-0.104,1.286-1.67,2.43-1.562,3.388
			c0.108,0.958,2.366,1.704,3.333,2.449c0.97,0.745,1.185,1.279,1.185,2.024c0,0.745-0.862,1.173-1.399,1.383
			c-0.538,0.214-1.829,0.533-1.29,0.852c0.537,0.321,1.612,0.532,2.796,0.532c1.183,0,2.795-0.317,2.903-0.636
			c0.107-0.322-0.513-0.52-1.051-0.735c-0.538-0.212-1.178-1.377-1.5-2.548c-0.325-1.171-0.491-2.358,0.583-3.103
			c1.078-0.745,3.697-1.312,4.764-2.6c0.491-0.587,0.23-1.538-0.304-2.372C373.46,447.125,369.955,446.396,367.588,445.543z"/>
		<path fill="#F0CA00" d="M441.382,320.043c-0.925-0.089-1.662-0.089-2.495-0.821c-0.831-0.73-0.926-2.377-0.926-3.845
			c0-1.465,0.833-4.393-0.093-5.583c-0.922-1.191-4.685-2.661-6.994-4.125c-2.31-1.465-5.57-3.932-8.436-7.043
			c-2.865-3.112-9.978-7.23-14.692-9.519c-4.713-2.288-13.952-4.119-13.952-4.119l-0.275-8.238c0,0,1.014-0.55,1.2-1.374
			c0.185-0.825-0.277-1.74-1.11-2.195c-0.828-0.458-2.218,1.098-2.218,2.013c0,0.917,1.019,1.922,1.019,1.922l-0.556,7.872
			c0,0-2.401,0.001-3.88,0.092c-1.481,0.091-3.883,0.732-3.883,0.732l0.093-1.099l-0.554-7.872c0,0,0.554-0.274,0.833-0.641
			c0.274-0.365,0.645-0.824,0.828-1.737c0.187-0.914-0.369-1.649-1.756-2.015c-1.385-0.366-2.493,0.915-2.493,2.289
			c0,1.374,1.662,2.197,1.662,2.197l-0.554,8.603l-2.311,1.19l-0.368-0.275c0,0-1.756-1.28-3.512-2.379
			c-1.755-1.099-7.761-1.831-9.147-1.831c-1.386,0-4.436,1.007-4.158,1.925c0.277,0.913,2.402,2.379,6.561,4.119
			c4.156,1.736,8.962,0.731,8.962,0.731s0.555,5.31,0.833,7.688c0.275,2.379,0.462,5.309,0.924,8.147
			c0.461,2.838,2.401,12.816,3.233,19.496c0.833,6.682,1.48,20.228,1.48,26.638c0,5.144-0.742,31.002-0.987,40.947
			c-1.342,0.045-6.021,0.825-9.264,1.789c-5.349,1.589-10.022,3.822-13.869,6.49c-7.219,5.007-11.498,11.649-11.67,19.109
			c-0.158,6.947,2.017,13.492,6.798,18.341c5.697,5.785,15.061,9.245,25.991,9.245c20.093,0,36.38-12.353,36.38-27.586
			c0-5.733-2.308-11.06-6.257-15.471c-0.44-5.703-3.952-51.366-4.298-56.344c-0.37-5.306-0.925-18.948-1.019-23.433
			c-0.091-4.485-1.569-14.37-1.569-14.37s3.789,1.006,6.93,2.654c3.142,1.65,6.007,2.656,7.299,2.838
			c1.295,0.182,3.327,1.554,3.603,3.018c0.28,1.466,1.14,2.936,3.698,2.841c1.203-0.047,2.402-0.46,3.603-0.644
			c1.202-0.182,3.881,1.832,4.436,2.839c0.554,1.007,0.739,2.563,0.739,3.295c0,0.733,0.738,1.373,1.109,0.733
			c0.369-0.642,0.647-1.65,0.555-2.381c-0.093-0.733-0.461-1.921-0.649-2.381c-0.183-0.457-0.369-1.737,0.463-1.006
			c0.834,0.732,2.865,1.375,3.885,1.281c1.013-0.092,1.845-0.64,2.031-1.463C442.764,320.504,442.304,320.138,441.382,320.043z"/>
		<g>
			<g>
				<path fill="#B8671D" d="M388.445,342.6c2.287-2.733,4.477-5.27,1.282-8.482c-1.445-1.452-3.742-4.032-6.108-5.294
					c0.485,5.723,0.853,13.22,0.979,18.634C386.306,346.689,387.299,343.973,388.445,342.6z"/>
				<path fill="#B8671D" d="M397.237,346.372c0.821-1.727,0.662-5.903-0.38-7.211c-1.57-1.97-2.525-0.524-3.833,0.869
					c-1.329,1.411-3.503,2.873-4.209,4.708l-0.548,0.908C390.422,346.729,396.097,348.774,397.237,346.372z"/>
				<path fill="#B8671D" d="M391.012,332.778h0.55c1.625-0.532,2.849-0.524,2.704-2.733c-0.13-1.936-1.066-1.689-2.888-2.388
					c-1.247-0.481-2.985-1.365-3.342,0.73C387.745,330.099,390.175,331.366,391.012,332.778z"/>
				<path fill="#B8671D" d="M403.459,352.621c-1.075,2.118-1.214,4.773-1.661,7.053c-0.305,1.56-0.861,3.069-1.13,4.626
					c-0.393,2.3,0.973,2.449,3.277,3.097c1.579,0.444,3.4,0.555,5.085,0.495c-0.262-3.724-0.963-11.806-1.332-17.07
					C405.949,351.25,404.335,350.9,403.459,352.621z"/>
				<path fill="#B8671D" d="M394.318,361.778c-1.486-0.367-5.177,0.051-6.406,0.726c-1.829,1.004-3.091,12.186-2.379,14.687
					c0.712,2.501,9.064-0.577,11.199-2.309c-0.636-2.277-0.94-8.556-1.146-10.93C395.446,362.31,395.84,362.153,394.318,361.778z"/>
				<path fill="#B8671D" d="M399.797,354.347c-1.436-0.371-4.183,0.846-4.434,1.997c-0.471,2.178,2.604,8.878,2.604,8.878
					c1.473-0.04,2.218-5.115,2.514-6.395C400.882,357.102,401.693,354.838,399.797,354.347z"/>
				<path fill="#B8671D" d="M387.192,354.826c2.115-0.856,4.311-1.553,6.038-3.016c-0.836-1.268-3.305-2.855-4.639-2.941
					c-0.99-0.064-2.522,0.413-3.953,0.996c0.005,0.391,0.007,0.768,0.007,1.119c0,1.438-0.029,3.195-0.071,5.055
					C385.484,355.603,386.369,355.159,387.192,354.826z"/>
				<path fill="#B8671D" d="M399.283,341.375c-0.42,0.813-0.263,2.224-0.398,3.193c-0.246,1.786-0.789,3.617-0.918,5.429
					l0.363-0.182c3.085-0.011,6.181-0.228,9.26-0.566c-0.045-0.666-0.087-1.255-0.121-1.743c-0.052-0.733-0.107-1.629-0.164-2.635
					c-0.739-0.307-1.513-0.559-2.198-0.81C402.973,343.282,401.422,341.994,399.283,341.375z"/>
				<path fill="#B8671D" d="M390.963,356.653c-1.424-1.387-4.053-0.595-6.417,0.509c-0.041,1.614-0.092,3.265-0.144,4.83
					c2.526-0.905,5.237-2.106,6.06-2.536C392.163,358.566,392.54,358.199,390.963,356.653z"/>
				<path fill="#B8671D" d="M417.734,309.404c-1.962-0.769-4.581-2.416-6.747-2.152c-0.511,1.322-0.958,2.695-1.388,4.076
					c0.735,0.305,1.492,0.65,2.214,1.029c3.142,1.65,6.007,2.656,7.299,2.838c0.19,0.025,0.394,0.078,0.607,0.154
					c0.309-1.539,0.492-3.074,0.383-4.008C419.921,309.76,419.443,310.073,417.734,309.404z"/>
				<path fill="#B8671D" d="M373.417,286.198c-1.532-1.222-5.767-2.393-7.824-2.187c-0.552,0.056-1.572,0.312-2.603,0.706
					c0.782,0.904,2.821,2.142,6.225,3.568c1.942,0.811,4.026,1.023,5.696,1.021C374.828,288.096,374.31,286.91,373.417,286.198z"/>
				<path fill="#B8671D" d="M375.119,283.679c0.103,2.368,0.599,5.405,3.092,2.472c0.116-0.137,0.213-0.263,0.294-0.384
					c-0.67-0.47-1.607-1.106-2.546-1.695C375.74,283.936,375.454,283.805,375.119,283.679z"/>
				<path fill="#B8671D" d="M387.128,325.304c0.904-1.988-2.246-5.316-4.966-7.741c0.388,2.369,0.749,4.734,1.003,6.784
					c0.051,0.407,0.101,0.838,0.151,1.293C384.8,326.167,386.603,326.458,387.128,325.304z"/>
				<path fill="#B8671D" d="M399.247,336.767l-1.28,0.722c2.747,1.573,5.357,2.696,8.24,3.982c0.32,0.146,0.634,0.307,0.946,0.47
					c-0.101-2.041-0.205-4.297-0.299-6.529C404.345,336.185,401.606,336.8,399.247,336.767z"/>
				<path fill="#B8671D" d="M400.161,335.858c1.319-0.415,2.501-0.698,3.813-1.107c0.189-2.017-1.163-5.311-2.579-6.84
					c-1.182,0.673-2.637,1.073-3.951,1.269c-0.059,2.146,0.758,5.02,1.438,6.861L400.161,335.858z"/>
				<path fill="#B8671D" d="M401.82,324.831c0.842,1.84,1.553,3.725,2.362,5.584c0.778,1.789,1.405,2.622,2.579,2.737
					c-0.118-2.946-0.217-5.69-0.272-7.638C404.817,324.989,403.066,324.66,401.82,324.831z"/>
				<path fill="#B8671D" d="M405.581,314.81c-2.959-1.835-6.284-3.258-9.407-4.323c-0.567,3.012,2.304,5.744,4.151,7.725
					c1.61,1.732,3.301,3.95,5.137,5.453c0.344,0.281,0.676,0.48,0.995,0.615c-0.001-0.069-0.004-0.141-0.006-0.207
					C406.404,321.733,405.977,317.921,405.581,314.81z"/>
				<path fill="#B8671D" d="M382.762,294.005c-1.117-1.521-0.393-1.138-2.115-0.798c-0.661,0.129-1.316,0.311-1.97,0.502
					c0.123,1.118,0.242,2.216,0.334,2.996c0.196,1.678,0.346,3.635,0.581,5.638c2.219-0.791,4.745-1.279,6.683-1.779
					C385.417,298.223,384.249,296.028,382.762,294.005z"/>
				<path fill="#B8671D" d="M384.73,318.296c1.199-2.165,2.312-4.554,2.049-7.076c-1.712,0.42-3.63,0.676-5.563,0.834
					c0.185,1.034,0.373,2.117,0.562,3.219C382.805,316.272,383.79,317.312,384.73,318.296z"/>
				<path fill="#B8671D" d="M385.192,306.1c1.006-0.041,4.655,0.254,5.28-0.682c0.746-1.117-0.56-2.994-0.589-4.182
					c-3.228,1.088-6.764,1.721-10.071,2.821c0.039,0.265,0.078,0.53,0.121,0.795c0.036,0.224,0.082,0.494,0.137,0.798
					C381.763,305.881,383.47,306.17,385.192,306.1z"/>
				<path fill="#B8671D" d="M386.184,320.071c0.199,1.048,2.485,2.885,3.164,3.945c1.195-1.065,4.281-3.97,3.894-5.718
					c-0.416-1.888-4.116-3.675-5.342-5.279C387.901,313.019,385.973,318.955,386.184,320.071z"/>
				<path fill="#B8671D" d="M383.693,306.857c-1.067-0.306-2.27-0.298-3.46-0.282c0.214,1.2,0.498,2.754,0.81,4.5
					c1.726-0.007,3.522-0.154,4.846-0.764C385.403,308.326,385.605,307.407,383.693,306.857z"/>
				<path fill="#B8671D" d="M390.097,312.839c0.942-1.129,3.234-3.352,3.278-4.749c-2.054-0.771-3.976-0.917-6.213-0.29
					c0.369,1.122,1.002,2.723,1.653,3.588L390.097,312.839z"/>
				<path fill="#B8671D" d="M390.775,284.995c-0.826,0.011-1.963,0.032-2.802,0.085c-0.502,0.031-1.11,0.125-1.695,0.235
					c1.018,1.746,2.384,3.337,3.682,4.792C390.339,288.781,390.777,286.692,390.775,284.995z"/>
				<path fill="#B8671D" d="M388.287,292.324c-1.14-1.539-2.086-3.154-3.495-4.498l-0.916-0.546c-1.058,0.309-1.54,0.98-1.965,1.984
					C380.519,292.528,386.015,292.373,388.287,292.324z"/>
				<path fill="#B8671D" d="M407.746,289.107c-0.201-0.099-0.417-0.199-0.637-0.292c-0.785,1.261-1.83,2.803-1.671,3.729
					c0.197,1.153,2.896,2.382,3.904,2.825c0.709-1.161,2.078-2.619,2.811-3.954C410.594,290.543,409.073,289.749,407.746,289.107z"
					/>
				<path fill="#B8671D" d="M418.449,295.319c-1.452-1.018-3.079-2.044-4.718-3.003c-1.312,1.449-2.222,3.144-2.977,4.906
					C412.092,297.364,416.403,296.594,418.449,295.319z"/>
				<path fill="#B8671D" d="M422.165,305.769c-1.631-1.063-6.171-0.353-8.281-0.362v0.906c2.631,1.558,6.165,2.234,8.94,3.39
					C422.878,308.483,423.177,306.43,422.165,305.769z"/>
				<path fill="#B8671D" d="M427.816,317.759c-0.082,1.026,0.078,2.076,0.209,3.119c0.664-0.154,1.327-0.363,1.99-0.467
					c0.819-0.123,2.327,0.772,3.377,1.675c0.796-1.083,1.56-2.174,2.077-3.427C433.043,317.789,430.344,317.211,427.816,317.759z"/>
				<path fill="#B8671D" d="M392.147,305.184c1.161,1.457,4.008,1.94,5.086,3.666l4.759,2.175c1.538-2.701,1.406-7.534,1.067-10.496
					c-3.789-0.427-7.863-0.18-11.671,0.007C391.446,301.866,391.306,304.129,392.147,305.184z"/>
				<path fill="#B8671D" d="M388.634,299.609l1.282-0.361c0.953,0.388,4.708,1.228,4.43-0.737c-1.81-0.767-4.154-1.301-6.048-1.78
					C388.28,297.734,388.5,298.628,388.634,299.609z"/>
				<path fill="#B8671D" d="M391.378,323.897l-0.183,1.086c1.281,0.715,3.402,0.516,4.256,1.796
					c1.549-0.385,3.294-0.463,4.875-1.106c-0.119-0.715-0.47-1.366-0.887-2.005c-0.902-1.386-2.079-3.429-3.131-4.518
					C394.68,320.706,392.539,322.073,391.378,323.897z"/>
			</g>
		</g>
		<g>
			<ellipse cx="406.195" cy="288.815" rx="3.477" ry="3.443"/>
			<ellipse fill="#FFFFFF" cx="405.998" cy="288.62" rx="2.886" ry="2.859"/>
		</g>
		<g>
			<ellipse cx="399.699" cy="286.185" rx="4.482" ry="4.44"/>
			<path fill="#FFFFFF" d="M403.168,285.934c0,2.037-1.666,3.687-3.723,3.687c-2.054,0-3.72-1.651-3.72-3.687
				c0-2.034,1.666-3.685,3.72-3.685C401.502,282.249,403.168,283.9,403.168,285.934z"/>
		</g>
		<ellipse cx="398.515" cy="287.826" rx="1.738" ry="1.722"/>
		<ellipse cx="405.102" cy="290.001" rx="1.372" ry="1.359"/>
		<linearGradient id="SVGID_1_" gradientUnits="userSpaceOnUse" x1="428.9173" y1="312.4833" x2="436.5891" y2="312.4833">
			<stop  offset="0" style="stop-color:#D7AB12"/>
			<stop  offset="1" style="stop-color:#A15B1C"/>
		</linearGradient>
		<path fill="url(#SVGID_1_)" d="M435.476,314.29c-0.422-3.395-3.016-6.426-6.558-3.944c1.05,2.076,5.343,5.09,7.629,5.183
			c0.15-0.584-0.113-0.76-0.523-1.059L435.476,314.29z"/>
		<path d="M397.43,280.462c2.24,0.001,4.802-0.259,7.064-0.701c0.095-0.855,0-1.418-0.34-1.902
			c-1.675,0.662-3.935,1.368-6.934,1.769C397.332,279.985,397.43,280.462,397.43,280.462z"/>
		<path d="M406.566,281.369c0.658-0.432,1.24-0.763,1.89-0.987c0.284,1.446,1.253,3.659,1.253,3.659s-0.739,0.332-1.232,0.454
			L406.566,281.369z"/>
		
			<ellipse transform="matrix(0.9708 0.2399 -0.2399 0.9708 76.8576 -83.7549)" fill="#FFF498" cx="382.523" cy="273.881" rx="0.866" ry="0.973"/>
		
			<ellipse transform="matrix(0.9576 0.288 -0.288 0.9576 95.7382 -101.4875)" fill="#FFF498" cx="392.749" cy="274.599" rx="0.748" ry="0.812"/>
		<path fill="#F0CA00" d="M405.581,314.81c-0.004-0.033-0.007-0.062-0.01-0.095h-0.149
			C405.475,314.748,405.53,314.776,405.581,314.81z"/>
		<path fill="#B8671D" d="M417.258,314.714c0.768,0.254,1.407,0.417,1.852,0.481c0.19,0.025,0.394,0.078,0.607,0.154
			c0.043-0.212,0.081-0.423,0.119-0.635H417.258z"/>
		<path fill="#B8671D" d="M407.478,371.164c-0.425-0.913-5.956-2.567-6.797-2.63c-0.841-0.063-1.229,10.259-0.711,11.286
			c0.518,1.024,6.019,2.114,6.666,2.114C407.282,381.935,408.256,372.83,407.478,371.164z"/>
		<path fill="#B8671D" d="M391.151,378.844c1.406-0.463,7.434-2.455,7.434-2.455s0.473,8.767-0.117,10.169
			c-0.589,1.402-6.135,0.35-6.135,0.35S390.444,379.076,391.151,378.844z"/>
		<path fill="#B8671D" d="M383.909,380.648c0,0,3.911,0.808,4.877,1.684c0.967,0.873,2.142,5.614,1.554,6.987
			c-0.587,1.371-6.703,1.425-6.703,1.425L383.909,380.648z"/>
		<path fill="#B8671D" d="M400.547,381.54c0.418,0,9.699,2.122,9.699,2.122l0.926,12.105c0,0-5.839-2.371-6.721-2.996
			C403.57,392.15,400.547,381.54,400.547,381.54z"/>
		<path d="M409.415,449.293c3.175-3.187,3.94-14.96,3.94-14.96l-8.014,6.93c0,0-1.705,5.429-0.789,7.845
			c0.871,2.302,0.429,4.618,0.278,6.013c-0.15,1.393-0.69,2.496-1.435,3.715c-0.749,1.221-2.865,1.817-2.343,3.313
			c-0.449,1.219-0.68,2.582-0.313,3.513c0.257,0.647,1.816,2.421,4.085,3.36c4.626,1.918,8.845,0.643,11.346-0.521
			c2.666-1.237-4.592-3.038-6.631-5.954c-0.72-1.023,1.055-1.019,0.269-2.568c-0.612-1.214-2.085-0.96-2.384-2.705
			C407.125,455.535,407.416,451.304,409.415,449.293z"/>
		<path d="M401.494,442.96c0,0-0.366,4.939-0.739,7.343c-0.376,2.402-2.039,2.983-2.762,4.637c-0.63,1.446-1.641,4.869-1.456,6.836
			c0.189,1.965,1.644,2.127,1.644,3.218c0,1.093-0.937,1.967-0.937,1.967s3.827,2.621,2.753,4.846
			c-1.223,2.53-4.025,3.149-7.956,2.929c-3.934-0.218-7.854-1.919-7.039-4.748c0.437-1.515,4.38-3.247,4.38-3.247
			s0-2.622,0.561-3.496c0.562-0.874,2.462-0.905,3.397-2.435c0.939-1.53,1.527-4.333,1.717-5.644
			c0.185-1.311-1.388-2.324-1.576-3.855c-0.189-1.53-0.51-4.864-0.51-4.864L401.494,442.96z"/>
		<path d="M350.117,409.689c-2.314,1.928-4.861,4.452-6.621,9.271c-1.783,4.875-1.9,8.58-0.682,11.639
			c0.52,1.31,1.192,2.309,1.33,3.411c0.14,1.109-0.303,2.13-0.303,2.13s-1.256-0.01-2.224,1.478c-0.966,1.488-1.441,2.924-1.1,4.959
			c0.343,2.034,0.861,2.641,0.767,3.767c-0.067,0.794-0.365,1.46-0.934,1.687c-0.571,0.225-1.435,0.131-1.435,0.131
			s0.332,1.08,1.234,1.256c1.012,0.2,1.467-0.298,1.467-0.298s0.029,0.375,0.168,0.926c0.196,0.775,0.686,1.127,1.485,1.239
			c0.798,0.115,1.818-0.777,1.818-0.777s-1.234-0.528-1.27-1.882c-0.03-1.358,1.013-3.452,1.739-6.346
			c0.999-3.999-0.689-5.689-0.689-5.689s0.805-1.707,0.295-3.82c-0.353-1.466-1.501-3.543-1.158-5.92
			c0.342-2.373,1.04-3.816,1.715-5.003c1.018-1.787,2.64-2.569,2.64-2.569s0.386-4.165,0.842-5.633
			C349.66,412.177,350.117,409.689,350.117,409.689z"/>
		<path fill="#F0CA00" d="M343.61,430.419c0,0-1.18-1.731-0.855-5.767c0.165-2.064,1.071-5.244,2.362-7.482
			c1.291-2.235,3.977-5.178,5.589-6.136c1.612-0.961,2.366,0.746,2.044,1.918c-0.323,1.169-1.292,2.45-2.581,3.408
			c-1.289,0.96-4.013,2.818-5.592,6.176C342.427,427.117,343.61,430.419,343.61,430.419z"/>
		<path fill="#F0CA00" d="M354.793,436.276c1.506,1.492,2.151,3.623,2.151,5.006c0,1.384-1.182,4.153-2.151,5.113
			c-0.967,0.958-2.687,2.45-3.011,3.62c-0.324,1.175,2.044,2.878,3.011,5.646c0.725,2.077,0.753,3.408,0.214,4.474
			c-0.538,1.066-1.291,2.342-0.43,3.089c0.859,0.745,2.796,0.851,3.977,0.745c1.183-0.107,2.904-0.427,3.011-1.064
			c0.109-0.64-2.258-0.852-2.258-0.852s-3.009-4.582-3.546-6.392c-0.536-1.811,0.429-2.663,2.042-3.302
			c1.613-0.64,6.56-2.982,7.634-3.834c1.075-0.853,1.398-2.13,0.431-3.408c-0.969-1.279-3.012-3.835-3.763-4.689
			C361.35,439.578,354.073,435.566,354.793,436.276z"/>
		<path fill="#F0CA00" d="M393.85,444.61c-0.047,1.607,0.101,4.238,0.325,5.693c0.231,1.514,0.881,2.522,1.528,3.394
			c0.553,0.743-0.324,3.994-0.834,5.507c-0.509,1.515-1.202,2.615-2.131,3.213c-0.714,0.46-1.873,0.52-2.334,1.85
			c-0.306,0.877-0.291,2.765-0.291,2.765s2.097,1.154,3.876,0.846c1.853-0.322,3.104-1.239,3.383-2.341
			c0.279-1.103-1.204-1.881-1.622-2.752c-0.417-0.873,0.093-3.03,0.604-5.002c0.509-1.973,0.879-3.444,1.529-4.268
			c0.646-0.826,1.932-1.488,2.363-4.452c0.323-2.249,0.464-6.837,0.464-6.837L393.85,444.61z"/>
		<path fill="#E6B111" d="M412.611,435.158c0,0-1.411,1.428-3.149,3.029c-1.39,1.284-3.149,2.569-3.149,2.569
			s-1.159,4.822-1.205,6.196c-0.047,1.377,0.183,2.25,0.463,3.257c0.278,1.014,0.092,3.584-0.091,4.865
			c-0.189,1.287-0.788,3.492-1.623,4.407c-0.834,0.917-1.919,1.326-1.972,1.997c-0.051,0.672,1.669,1.292,3.733,0.94
			c1.29-0.222,3.381-0.966,3.659-1.745c0.278-0.78-0.835-0.917-1.482-1.239c-0.647-0.32-0.974-1.33-1.066-2.066
			c-0.094-0.734,0.091-3.35,0.37-4.907c0.278-1.563,0.926-2.755,1.715-3.442c0.836-0.733,1.574-2.481,1.991-3.902
			c0.416-1.424,0.926-4.085,1.251-5.874C412.382,437.452,412.611,435.158,412.611,435.158z"/>
		<path fill="#D5BD7D" d="M389.653,467.655c0,0,1.377,1.359,3.958,1.151c2.581-0.205,3.581-0.783,3.581-0.783
			s2.388,1.557,1.958,3.26c-0.376,1.485-2.957,3.3-8.288,2.477c-5.997-0.93-5.166-3.674-3.791-4.745
			C388.233,468.108,389.653,467.655,389.653,467.655z"/>
		<path fill="#D5BD7D" d="M355.169,465.342c0,0,1.251,0.331,3.084,0.125c1.169-0.133,2.538-0.662,2.538-0.662
			s3.166,2.061,4.25,3.011c1.082,0.948,2.121,2.188-2.585,2.516c-4.705,0.332-10.619-1.936-10.161-3.053
			C352.752,466.167,355.169,465.342,355.169,465.342z"/>
		<path fill="#BAA26E" d="M368.746,460.434c0,0,1.666,0.328,2.792,0.205c1.123-0.124,1.914-0.496,1.914-0.496
			s2.25,1.404,3.332,1.899c1.084,0.494,2.833,0.616,2.709,1.569c-0.092,0.696-3.165,1.443-6.914,1.071
			c-3.748-0.371-5.789-2.476-5.416-2.971C367.359,461.455,368.746,460.434,368.746,460.434z"/>
		<path fill="#BAA26E" d="M401.78,462.977c0,0,1.951,0.59,3.825,0.301c1.876-0.289,3.125-1.115,3.125-1.115s0.298,1.742,2.123,2.981
			c1.829,1.244,5.672,2.171,4.797,2.998c-0.536,0.506-6.761,1.763-10.218,0.153c-3.46-1.608-3.858-2.791-3.951-3.366
			C401.314,463.898,401.78,462.977,401.78,462.977z"/>
		<path fill="#B8671D" d="M393.766,389.435c0.777,0.383,5.857,0,6.572,0c0.713,0,3,7.356,3.145,8.345
			c0.141,0.992-14.144-4.669-13.716-5.093C390.195,392.264,393.195,389.151,393.766,389.435z"/>
		<path fill="#B8671D" d="M388.06,394.532c1.556-0.257,13.436,6.082,13.722,6.508c0.285,0.425-1.775,5.246-2.347,5.811
			c-0.571,0.566-17.518-5.667-17.947-6.515C381.06,399.485,387.202,394.674,388.06,394.532z"/>
		<path fill="#B8671D" d="M405.052,395.943c0.356,0.881,1.001,3.68,1.001,3.68l4.144-1.133
			C410.197,398.49,404.484,394.529,405.052,395.943z"/>
		<path fill="#B8671D" d="M384.18,394.499c0,0-2.13-0.573-4.987-0.289c-2.857,0.284-6.318,1.468-6.748,2.034
			c-0.428,0.566,4.403,4.514,4.403,4.514S384.321,395.492,384.18,394.499z"/>
		<path fill="#B8671D" d="M368.673,395.684c0,0-2.072,0.812-4.65,2.284c-2.405,1.371-4.299,2.671-4.299,2.671
			s6.408,5.921,6.565,5.921c0.157,0,7.035-6.348,7.151-6.425C373.556,400.057,368.673,395.684,368.673,395.684z"/>
		<path fill="#B8671D" d="M344.154,437.09c0.866,0.296,1.267,1.983,1,4.164c-0.267,2.184-1.594,5.02-1.836,6.81
			c-0.298,2.248,0.737,2.445,0.737,2.445s-0.602,0.793-1.404,0.032c-0.798-0.759-0.499-2.544-0.499-2.544s-0.668,0.859-1.301,1.024
			c-0.635,0.166-1.202-0.462-1.202-0.462s0.834,0.265,1.501-0.495c0.668-0.761,0.9-2.215,0.601-3.306
			c-0.301-1.09-1.101-3.768-0.067-5.685C342.718,437.156,343.285,436.793,344.154,437.09z"/>
		<path fill="#934E1C" d="M344.261,437.504c0.343,0.136,0.615,1.405,0.473,2.669c-0.142,1.264-2.035,6.044-2.035,6.044
			s0.049-3.513,0.191-5.293C343.032,439.143,343.553,437.221,344.261,437.504z"/>
		<polygon fill="#B8671D" points="402.368,406.705 406.182,402.054 410.141,403.654 		"/>
		<path fill="#B8671D" d="M379.926,401.039c-0.459-0.065-5.572,3.921-5.131,4.212c0.436,0.289,11.144,7.701,11.879,7.701
			c0.734,0,4.989-5.668,4.989-5.668S380.953,401.183,379.926,401.039z"/>
		<path fill="#B8671D" d="M387.408,416.44c0.145-0.436,5.867-8.429,6.454-8.574c0.586-0.145,12.187,3.799,14.211,4.699
			c2.027,0.9-4.093,9.687-4.678,9.979C402.807,422.834,387.408,416.44,387.408,416.44z"/>
		<path fill="#B8671D" d="M385.5,413.824c-0.438-0.29-6.16-3.197-6.746-3.197c-0.587,0-5.722,6.394-5.574,6.975
			c0.145,0.582,5.006,7.826,5.426,7.7C383.006,423.996,385.5,413.824,385.5,413.824z"/>
		<path fill="#B8671D" d="M404.232,407.997c0.478-0.449,8.522-2.974,8.522-2.974s1.61,1.659,2.586,3.528
			c0.978,1.869,1.048,2.355,1.048,2.631C416.387,411.458,402.835,409.311,404.232,407.997z"/>
		<path fill="#B8671D" d="M417.647,415.402c0,0-6.149-1.452-6.569-1.246c-0.417,0.208-3.215,12.802-3.423,15.642
			c-0.21,2.837,6.844,1.659,7.685,0.274c0.838-1.385,2.585-5.881,2.794-8.165C418.343,419.624,418.064,416.026,417.647,415.402z"/>
		<path fill="#B8671D" d="M405.627,423.5c0.581-0.159,0.281,5.744,0.21,6.299c-0.068,0.552-5.589,1.384-5.518,1.037
			C400.389,430.49,404.37,423.845,405.627,423.5z"/>
		<path fill="#B8671D" d="M382.502,426.13c0.169-0.475,4.193-7.821,4.614-7.96c0.417-0.138,7.753,2.768,8.102,2.908
			c0.35,0.14-7.195,7.611-7.823,7.611C386.766,428.689,382.085,427.304,382.502,426.13z"/>
		<path fill="#B8671D" d="M391.097,429.106c0.204-0.28,6.706-4.431,7.196-4.431c0.487,0-0.069,5.262-0.142,5.538
			C398.083,430.489,390.119,430.421,391.097,429.106z"/>
		<path fill="#B8671D" d="M375.656,409.035c-0.083-0.274-4.051-2.701-4.47-2.769c-0.419-0.067-5.241,5.468-4.891,5.606
			c0.349,0.14,4.961,1.315,5.311,1.177C371.954,412.911,375.867,409.728,375.656,409.035z"/>
		<path fill="#B8671D" d="M363.919,407.373l-8.033-3.461c0,0-1.818,1.594-2.865,3.253c-1.049,1.661-1.957,2.769-1.888,3.253
			c0.07,0.485,5.241,0.275,6.149,0.207C358.19,410.557,364.338,407.997,363.919,407.373z"/>
		<path fill="#B8671D" d="M365.386,414.019c0.767,0.053,5.728,1.037,5.94,1.246c0.209,0.208-4.683,3.596-5.311,3.667
			C365.386,419.002,364.409,413.948,365.386,414.019z"/>
		<path fill="#B8671D" d="M366.923,421.839c0.33-0.217,3.775-2.837,4.124-2.907c0.348-0.069,3.841,4.847,4.052,5.326
			c0.21,0.488-1.747,2.079-2.025,2.079C372.792,426.337,366.294,422.254,366.923,421.839z"/>
		<path fill="#B8671D" d="M358.749,412.496c0.236-0.164,4.961-2.008,5.17-1.869c0.209,0.139-1.049,5.815-1.327,6.228
			C362.312,417.271,357.564,413.327,358.749,412.496z"/>
		<path fill="#B8671D" d="M351.554,413.534c0.186-0.094,4.332,0.069,4.679,0.347c0.351,0.275-2.164,5.397-2.514,5.811
			c-0.351,0.416-2.933-0.275-2.933-0.621S350.995,413.81,351.554,413.534z"/>
		<path fill="#B8671D" d="M356.304,420.731c0-0.208,1.327-4.222,1.606-4.498c0.28-0.277,6.637,3.183,6.918,3.598
			c0.278,0.415-1.608,2.144-1.608,2.144S356.304,421.699,356.304,420.731z"/>
		<path fill="#B8671D" d="M376.216,426.061c-0.346,0.213-3.704,3.738-3.704,4.012c0,0.277,3.076,1.593,3.704,1.316
			C376.843,431.112,377.334,425.368,376.216,426.061z"/>
		<path fill="#B8671D" d="M371.327,427.1c-0.328-0.128-3.215-1.732-3.634-1.732c-0.418,0-1.189,4.36-0.977,4.705
			c0.208,0.348,1.746,0.83,1.956,0.83C368.88,430.904,372.583,427.582,371.327,427.1z"/>
		<path fill="#B8671D" d="M380.337,428.066c0.35,0,4.124,1.662,4.331,1.87c0.21,0.207-1.465,2.422-1.676,2.77
			c-0.209,0.345-4.82,1.311-5.169,1.243C377.473,433.881,379.57,428.066,380.337,428.066z"/>
		<path fill="#B8671D" d="M388.233,430.768c0.415-0.034,5.099,0.899,5.449,0.899c0.349,0,0.489,3.183,0.138,3.528
			C393.471,435.543,387.324,430.836,388.233,430.768z"/>
		<path fill="#B8671D" d="M389.281,433.95c-0.156-0.155-2.515-2.146-2.866-2.493c-0.349-0.345-3.073,3.393-2.934,3.738
			c0.141,0.349,3.214,1.801,4.473,1.938C389.212,437.271,390.258,434.919,389.281,433.95z"/>
		<path fill="#B8671D" d="M397.314,432.428c0.357-0.02,5.659,0.207,6.01,0.207c0.348,0-1.957,2.491-2.656,2.908
			c-0.698,0.413-4.19,0.758-4.33,0.413C396.197,435.611,396.057,432.496,397.314,432.428z"/>
		<path fill="#B8671D" d="M406.117,432.635c0.488-0.048,5.868,1.937,5.868,1.937s-1.466,1.661-2.932,3.046
			c-1.469,1.384-2.446,1.661-2.446,1.661S404.719,432.771,406.117,432.635z"/>
		<path fill="#B8671D" d="M401.296,437.618c0.357-0.353,2.027-2.63,2.306-2.699c0.28-0.069,1.815,3.321,1.815,3.599
			C405.417,438.793,400.668,438.239,401.296,437.618z"/>
		<path fill="#B8671D" d="M397.942,437.548c-0.272,0.055-4.329-0.693-4.61-0.622c-0.279,0.069-0.699,2.699-0.628,3.252
			c0.07,0.554,3.565-0.138,4.192-0.276C397.524,439.762,398.292,437.479,397.942,437.548z"/>
		<path fill="#B8671D" d="M364.06,424.258c-0.343-0.066-6.498-1.452-6.988-1.244c-0.488,0.207-0.14,2.422-0.14,2.976
			c0,0.555,4.822,1.037,5.309,0.968C362.731,426.89,364.409,424.33,364.06,424.258z"/>
		<path fill="#B8671D" d="M363.153,428.343c0.095-0.194,1.814-2.422,2.093-2.491c0.282-0.068,0.141,3.045,0.071,3.322
			C365.245,429.451,362.733,429.173,363.153,428.343z"/>
		<path fill="#B8671D" d="M355.185,424.746c-0.108-1.07-0.558-2.354-0.838-2.492c-0.28-0.139-3.214,0.97-3.353,1.178
			c-0.141,0.205-0.629,3.943-0.209,4.289c0.417,0.346,3.003,0.9,3.353,0.9C354.486,428.62,355.257,425.437,355.185,424.746z"/>
		<path fill="#B8671D" d="M355.326,429.588c0.131-0.325,0.769-2.285,1.049-2.422c0.279-0.139,2.515,0.279,2.794,0.415
			C359.449,427.721,355.185,429.936,355.326,429.588z"/>
		<path fill="#B8671D" d="M398.705,440.11c-0.061-0.359,0.842-1.907,1.083-1.907c0.238,0,1.803,0.893,1.803,1.251
			C401.591,439.811,398.766,440.467,398.705,440.11z"/>
		<path fill="#B8671D" d="M388.902,438.978c0.135-0.213,1.924-2.622,2.226-2.622c0.299,0,0.841,0.356,1.022,0.477
			c0.181,0.118-0.723,2.679-0.783,2.859C391.307,439.87,388.601,439.454,388.902,438.978z"/>
		<path fill="#B8671D" d="M383.791,437.191c0.292,0.067,3.788,1.132,3.788,1.132s-2.587,1.667-3.188,1.667
			C383.791,439.989,383.009,437.011,383.791,437.191z"/>
		<path fill="#B8671D" d="M379.461,435.462c0.222-0.111,2.463-0.775,2.705-0.654c0.241,0.118,0,2.262-0.121,2.681
			C381.924,437.906,378.618,435.88,379.461,435.462z"/>
		<path fill="#B8671D" d="M376.031,435.64c0.243-0.344,0-2.325-0.059-2.501c-0.061-0.18-4.391,1.786-4.21,2.201
			C371.941,435.761,375.61,436.237,376.031,435.64z"/>
		<path fill="#B8671D" d="M373.324,432.425c-0.01-0.18-1.744-1.134-2.105-1.134c-0.36,0-2.645,2.024-2.463,2.203
			C368.934,433.675,373.386,433.316,373.324,432.425z"/>
		<path fill="#B8671D" d="M365.748,430.874c0.466,0.133,2.526,0.715,2.526,0.894c0,0.179-1.805,1.966-2.046,1.966
			C365.987,433.734,365.326,430.754,365.748,430.874z"/>
		<path fill="#B8671D" d="M360.694,428.133c0.241,0,0.963,0.717,1.202,0.954c0.242,0.238-1.261,2.206-1.442,2.263
			c-0.179,0.061-2.946-0.533-2.946-0.533S360.274,428.133,360.694,428.133z"/>
		<path fill="#B8671D" d="M362.92,430.874c0.474,0.079,1.503,0.356,1.686,0.595c0.178,0.239-0.121,2.085-0.182,2.323
			c-0.059,0.239-1.805,0.179-2.165-0.059C361.896,433.495,362.558,430.816,362.92,430.874z"/>
		<path fill="#B8671D" d="M355.583,431.23c-0.108-0.185-2.226-0.95-2.287-0.713c-0.06,0.237,0.062,1.728,0.303,2.025
			C353.839,432.841,355.824,431.647,355.583,431.23z"/>
		<path fill="#B8671D" d="M350.275,429.028c0,0,0.259,0.773,0.445,1.24c0.186,0.465,0.52,1.165,0.593,1.237
			c0.076,0.074,1.451-1.754,1.486-1.9C352.838,429.459,350.224,428.671,350.275,429.028z"/>
		<path fill="#D18B1A" d="M357.818,432.048c0.456,0.063,1.934,0.181,2.214,0.548c0.273,0.365-0.829,1.642-0.829,1.642l-2.49-1.005
			C356.712,433.232,357.173,431.955,357.818,432.048z"/>
		<path fill="#D18B1A" d="M356.712,434.33c-0.68-0.405-2.117-0.275-1.844,0.091c0.275,0.365,0.829,1.369,1.383,1.461
			C356.804,435.973,357.173,434.603,356.712,434.33z"/>
		<path fill="#D18B1A" d="M361.137,434.421c0.548,0.067,2.395,0.18,2.856,0.365c0.463,0.181,0,0.73-0.83,1.278
			C362.335,436.611,360.399,434.33,361.137,434.421z"/>
		<path fill="#D18B1A" d="M358.279,435.79c0.537,0,1.473-0.638,1.753-0.367c0.273,0.275,0.827,0.915,0.827,1.37
			c0,0.458-1.474,1.003-1.75,0.914C358.832,437.615,357.91,435.79,358.279,435.79z"/>
		<path fill="#D18B1A" d="M365.284,435.79c0.202-0.333,2.118-1.369,2.581-1.369c0.459,0,2.212,0.457,2.489,0.731
			C370.628,435.423,365.006,436.246,365.284,435.79z"/>
		<path fill="#D18B1A" d="M368.049,436.427c0.262-0.085,2.578-0.272,2.856-0.272c0.277,0,2.488,0.729,2.765,1.004
			c0.277,0.272-1.106,1.278-1.472,1.553C371.829,438.985,367.772,436.519,368.049,436.427z"/>
		<path fill="#D18B1A" d="M374.224,438.163c-0.233-0.461,2.212-1.37,2.487-1.459c0.278-0.093,1.108,1.368,1.108,1.915
			C377.819,439.168,374.407,438.528,374.224,438.163z"/>
		<path fill="#D18B1A" d="M379.295,439.989c-0.098-0.254-0.187-1.918,0.088-2.008c0.278-0.092,2.582,1.003,2.766,1.277
			c0.184,0.274-0.09,1.279-0.459,1.643C381.321,441.267,379.571,440.719,379.295,439.989z"/>
		<path fill="#D18B1A" d="M384.914,441.267c0.406-0.462,2.397-1.095,2.765-1.095c0.369,0,1.198,0.729,1.474,1.095
			C389.431,441.63,384.269,441.996,384.914,441.267z"/>
		<path fill="#D18B1A" d="M390.537,440.719c0.267,0.067,2.027,0.091,2.305,0.182c0.277,0.093,0.921,1.37,0.921,1.735
			c0,0.366-1.474,0-1.844-0.09C391.552,442.453,390.169,440.626,390.537,440.719z"/>
		<path fill="#D18B1A" d="M394.685,441.177c0.345-0.13,2.856-0.275,3.133-0.275c0.277,0-0.737,1.187-1.015,1.37
			C396.526,442.453,393.948,441.449,394.685,441.177z"/>
		<path fill="#D18B1A" d="M399.662,441.63c0.09-0.363,1.383-1.275,2.025-1.366c0.646-0.092,0,0.821-0.181,1.277
			C401.321,441.996,399.569,441.996,399.662,441.63z"/>
		<path fill="#D18B1A" d="M375.237,440.08c0.259-0.096,2.765-0.181,2.858,0.092c0.092,0.272,0.275,1.005,0.184,1.369
			C378.187,441.908,374.5,440.355,375.237,440.08z"/>
		<path fill="#D18B1A" d="M381.137,442.363c0.274-0.183,1.657-1.096,2.024-0.914c0.371,0.181,0.83,0.822,1.016,1.098
			c0.185,0.272-0.829,1.093-1.197,1.186C382.61,443.823,381.137,442.363,381.137,442.363z"/>
		<path fill="#D18B1A" d="M385.929,443.003c0,0,1.842-0.184,2.211-0.184c0.371,0-0.183,0.821-0.369,1.097
			C387.588,444.19,385.651,443.275,385.929,443.003z"/>
		<path fill="#D18B1A" d="M364.639,437.159c0.412-0.205,2.951-0.182,2.951-0.182s-0.093,1.46-0.462,1.642
			C366.758,438.802,364.084,437.432,364.639,437.159z"/>
		<path fill="#D18B1A" d="M368.418,439.442c0,0,0-1.371,0.369-1.371c0.367,0,1.751,0.823,1.841,1.188
			c0.094,0.365-0.921,0.914-0.921,0.914S368.694,439.899,368.418,439.442z"/>
		<path fill="#D18B1A" d="M371.643,440.445c0.123-0.368,2.026-1.187,2.303-1.187c0.277,0,0,1.553,0,1.553
			S371.549,440.719,371.643,440.445z"/>
		<path fill="#D18B1A" d="M361.137,438.071c0,0,1.382-0.639,1.845-0.639c0.458,0,1.102,1.005,1.102,1.281
			c0,0.272-1.657,0.272-1.657,0.272S361.044,438.255,361.137,438.071z"/>
		<path fill="#D18B1A" d="M357.265,437.797c0.268,0.068,1.844,0.64,1.844,0.915c0,0.272-1.106,0.456-1.477,0.456
			C357.265,439.168,356.897,437.707,357.265,437.797z"/>
		<path fill="#D18B1A" d="M364.455,439.808c0.522-0.26,1.752-0.367,2.212-0.185c0.461,0.185,0.552,0.822,0.369,1.097
			c-0.186,0.275-1.66,0.092-1.66,0.092S364.27,439.899,364.455,439.808z"/>
		<path fill="#D18B1A" d="M368.509,441.449c0.278-0.09,1.29-0.548,1.568-0.455c0.277,0.091,0,1.094,0,1.094L368.509,441.449z"/>
		<path fill="#D18B1A" d="M374.038,442.453l1.844-0.545l1.383,1.004c0,0-1.107,0.456-1.751,0.362
			C374.868,443.184,373.765,442.728,374.038,442.453z"/>
		<path fill="#D18B1A" d="M378.885,443.629c-0.066-0.522,0.46-1.041,0.854-0.847c0.393,0.197,1.642,0.781,1.511,1.107
			c-0.13,0.324-1.445,0.39-1.641,0.39C379.411,444.279,378.885,443.629,378.885,443.629z"/>
		<path fill="#D18B1A" d="M384.534,444.411c0-0.293,0.658-0.522,0.921-0.458c0.262,0.065,0.854,0.586,0.46,0.717
			C385.521,444.8,384.534,444.604,384.534,444.411z"/>
		<path fill="#D18B1A" d="M389.92,443.693c0.122-0.359,0.921-0.586,1.25-0.389c0.328,0.194,0.198,0.78-0.066,0.845
			C390.841,444.213,389.856,443.889,389.92,443.693z"/>
		<path fill="#D18B1A" d="M361.673,440.245c0.633-0.188,0.986,0.521,1.182,0.715c0.198,0.196-0.788,0.456-1.051,0.389
			C361.543,441.285,361.017,440.441,361.673,440.245z"/>
		<path fill="#D18B1A" d="M371.46,442.912c0.164-0.203,1.381,0.325,1.381,0.325s-0.591,0.521-0.854,0.586
			C371.725,443.889,371.199,443.238,371.46,442.912z"/>
		<path fill="#D18B1A" d="M366.995,441.871c0.258,0.052,0.657,0.39,0.723,0.584c0.065,0.197-1.051,0.391-1.051,0.391l-0.592-0.909
			C366.075,441.937,366.667,441.808,366.995,441.871z"/>
		<path fill="#D18B1A" d="M376.851,444.411c0.497-0.165,0.983,0.846,0.983,0.846s-1.641,0-1.903-0.197
			C375.666,444.864,376.257,444.604,376.851,444.411z"/>
	</g>
</g>
</svg>
