<?xml version="1.0" encoding="utf-8"?>
<!-- Generator: Adobe Illustrator 17.0.0, SVG Export Plug-In . SVG Version: 6.00 Build 0)  -->
<!DOCTYPE svg PUBLIC "-//W3C//DTD SVG 1.1//EN" "http://www.w3.org/Graphics/SVG/1.1/DTD/svg11.dtd">
<svg version="1.1" id="Layer_1" xmlns="http://www.w3.org/2000/svg" xmlns:xlink="http://www.w3.org/1999/xlink" x="0px" y="0px"
	 width="800px" height="600px" viewBox="0 0 800 600" enable-background="new 0 0 800 600" xml:space="preserve">
<g>
	<g>
		<g>
			<g>
				<path d="M534.778,141.828c-15.433-28.621-36.057-54.381-62.897-73.025c-20.89-14.51-45.66-24.436-70.417-29.971
					c-12.474-2.788-25.547-4.032-38.278-2.417c-5.39,0.684-12.72,2.677-17.515,5.202c-49.652,26.122-77.743,94.223-86.518,147.664
					c-8.746,53.214-6.463,107.355,11.129,158.593c16.934,49.295,49.035,95.264,98.802,115.178
					c54.683,21.892,117.132,1.21,159.285-36.638c22.092-19.841,38.941-45.519,47.155-74.109
					c9.574-33.277,2.951-68.642-1.623-102.157C568.674,211.813,553.007,175.635,534.778,141.828z"/>
				<path fill="#FFBA00" d="M570.28,265.794c1.035,7.831,2.019,15.702,2.773,23.583c-1.4-6.372-3.03-12.714-4.784-19.018
					c-7.849-28.345-18.074-55.163-29.719-82.155c-0.242-0.55-1.035-0.119-0.817,0.428c10.296,25.707,20.557,51.782,27.894,78.51
					c4.236,15.427,6.707,31.877,7.056,47.845c0.222,9.781-0.194,20.636-4.161,34.191c-3.97,13.559-14.492,39.536-29.457,56.908
					c2.019-5.753,3.189-11.837,4.034-17.82c2.642-18.66,0.396-36.698-1.872-55.205c-0.071-0.577-1.063-0.468-1.011,0.113
					c1.467,15.453,1.317,31.653,0.048,47.119c-0.682,8.389-1.912,16.833-4.95,24.684c-7.429,19.249-37.204,37.073-55.012,45.352
					c3.959-8.311,2.657-19.465,1.837-28c-1.325-13.769-3.657-29.904-6.826-43.335c-5.331-22.526-9.281-43.06-14.179-65.705
					c-5.497-25.495-12.526-50.621-22.163-74.871c-0.226-0.571-1.222-0.178-1.008,0.403c8.56,22.78,14.763,46.288,19.891,70.052
					c5.001,23.169,9.23,45.188,14.302,68.315c2.761,12.577,4.76,26.554,6.517,39.324c1.527,11.048,2.503,32.991-7.893,37.901
					c4.565-9.241,3.336-24.692,2.753-32.305c-1.476-19.264-4.887-32.523-9.88-51.076c-1.412-5.22-4.109-8.781-3.252-4.825
					c3.252,15.076,6.989,29.882,8.591,45.241c1.063,10.161,1.995,20.823,0.305,30.969c-0.956,5.717-2.844,12.091-7.837,15.347
					c-23.409,7.625-60.347,9.608-72.563,4.216c-7.885-3.477-14.259-12.748-19.157-20.498c-8.317-13.176-14.271-27.839-19.657-42.4
					c-14.219-38.358-26.034-77.384-29.921-118.276c-0.052-0.523-0.968-0.446-0.922,0.075c3.663,43.706,16.05,86.177,31.589,127.042
					c4.438,11.685,9.428,23.258,15.635,34.122c3.248,5.676,7.425,12.381,12.668,17.345c-6.473-1.047-10.511-9.027-13.775-13.874
					c-7.294-10.858-12.906-22.905-18.177-34.84c-16.087-36.422-27.208-74.411-32.216-113.971c-0.078-0.595-1.111-0.47-1.045,0.123
					c4.359,40.892,14.941,79.956,31.087,117.709c5.569,13.022,14.933,32.196,22.505,40.623
					c-21.509-9.184-39.98-24.426-54.822-42.447c-34.851-42.316-50.274-100.289-52.325-154.238
					c-1.045-27.522,1.997-55.488,7.264-82.478c5.85-29.987,15.73-59.494,32.521-85.211c8.944-13.688,18.616-24.872,33.124-36.192
					c8.408-6.558,17.031-10.471,25.705-12.513c-2.328,1.928-4.034,4.624-4.546,7.637c-5.933,0.331-11.847,3.996-15.127,8.898
					c-0.226,0.343-0.424,0.671-0.623,1c-27.778,10.384-34.822,44.198-39.133,70.374c-1.087,6.62,0.234,8.258,0.315,7.663
					c3.788-26.038,11.917-64.16,37.438-74.867c-0.385,1.464-0.357,2.832,0.131,4.137c-11.609,11.911-17.055,28.285-20.67,44.202
					c-4.042,17.773-5.374,36.065-6.463,54.217c-0.041,0.658,0.974,0.67,1.026,0.022c1.503-16.92,2.941-33.846,6.304-50.525
					c3.306-16.387,8.754-33.977,20.696-46.231c0.254,0.377,0.555,0.746,0.885,1.11c5.346,5.773,15.44,4.137,21.291-0.125
					c1.678-1.23,3.157-2.592,4.323-4.03c20.24,7.879,34.384,23.855,48.198,40.057c0.373,0.44,1.015-0.151,0.662-0.599
					c-12.989-16.178-27.645-33.656-47.071-42.227c0.563-1.178,0.896-2.372,0.924-3.564c18.594,7.201,33.927,23.5,47.425,37.539
					c0.472,0.502,1.19-0.202,0.757-0.73c-13.485-16.644-28.982-32.168-49.11-40.432c-0.726-1.267-1.876-2.485-3.57-3.623
					c-2.233-1.495-4.692-2.189-7.175-2.283c2.023-4.987,5.513-8.012,10.578-8.718c-2.17,1.446-4.026,3.445-5.402,6.209
					c-0.25,0.5,0.46,0.992,0.75,0.484c2.677-4.706,6.398-6.828,10.82-7.365c4.427-0.53,10.118,0.115,13.648,0.732
					c3.538,0.621,6.965,1.648,10.356,2.519c4.934,1.263,9.761,2.75,14.639,5.152c9.467,4.648,18.019,11.06,25.995,17.891
					c16.884,14.459,32.083,32.434,42.962,51.861c0.385,0.694,1.416,0.081,1.055-0.615c-10.114-19.31-23.366-36.692-39.27-51.591
					c-6.049-5.68-12.621-10.854-19.609-15.338c1.84,0.68,3.661,1.361,5.454,2.033c31.21,11.716,57.868,30.637,78.77,56.65
					c10.733,13.345,19.597,28.121,27.308,43.383c8.896,17.622,17.245,35.435,23.719,54.116
					C564.268,226.24,567.615,245.79,570.28,265.794z"/>
				<path fill="#FFDB3B" d="M480.211,118.467c-10.265-18.312-24.361-35.338-40.083-49.343c-22.826-10.498-29.033-4.131-29.084,3.393
					c-0.036,5.967,2.352,11.582,4.704,16.952c2.717,6.201,5.259,12.448,8.397,18.465c7.449,14.263,16.476,27.891,27.7,39.482
					c9.067,9.359,19.808,18.933,32.309,23.355c6.374,2.259,14.31,3.835,20.391-0.197c7.615-5.037,8.516-13.816,7.159-22.203
					c-2.257-14.045-9.043-27.225-17.781-38.35c-11.974-15.256-27.558-28.454-45.18-37.114c12.93,13.346,23.881,28.434,32.524,44.944
					C481.626,118.548,480.595,119.161,480.211,118.467z"/>
				<path fill="#FFA100" d="M367.537,59.231c-0.028,1.192-0.361,2.386-0.924,3.564c2.689,1.187,5.267,2.556,7.789,4.047
					c0.321-0.674,0.627-1.368,0.841-2.102c0.186-0.601,0.277-1.168,0.329-1.729C372.967,61.585,370.286,60.3,367.537,59.231z"/>
				<path fill="#FFA100" d="M291.795,146.864c-0.133,0.117-0.26,0.264-0.353,0.452c-1.16,2.487-2.098,5.033-2.848,7.643
					C289.574,152.226,290.635,149.523,291.795,146.864z"/>
				<path fill="#FFA100" d="M501.617,282.375c0.519-7.226-0.286-14.669-1.785-21.735c-3.074-14.384-7.599-27.365-13.251-40.86
					c-0.484-1.158-2.086-0.688-1.848,0.543c2.3,12.313,5.398,24.49,7.564,36.833c0.932,5.325,1.313,10.82,1.428,16.254
					c-0.214-0.537-0.42-1.073-0.634-1.606c-0.456-14.423-4.867-28.349-9.277-42.025c-4.843-14.986-10.027-31.819-19.966-44.285
					c-1.361-1.715-3.538,0.244-3.252,1.914c2.447,14.556,9.67,28.551,14.62,42.381c1.059,2.931,2.027,5.886,2.983,8.863
					c-6.413-12.993-13.346-25.644-20.664-37.864c-2.09-3.488-4.295-6.939-6.556-10.372c-1.428-6.175-2.844-12.345-4.49-18.453
					c-3.344-12.44-6.545-25.573-14.461-35.99c-1.059-1.398-3.22-0.119-2.911,1.456c2.495,12.583,7.508,24.625,11.106,36.93
					c0.143,0.5,0.294,0.993,0.436,1.491c-1.523-2.005-3.09-3.98-4.668-5.946c-1.991-10.907-5.295-21.543-11.486-30.877
					c-0.773-1.156-2.923-0.296-2.554,1.093c1.983,7.441,4.728,14.651,7.369,21.898c-3.764-4.24-7.667-8.331-11.736-12.228
					c-1.238-3.647-2.633-7.155-3.923-10.35c-5.16-12.813-13.01-23.71-20.494-35.181c-0.662-1.021-2.214-0.097-1.618,0.958
					c5.882,10.381,9.781,22.139,13.489,33.568c-2.356-1.882-4.843-3.754-7.437-5.573c-0.877-5.275-2.245-10.483-4.157-15.73
					c-3.316-9.148-8.242-21.208-17.444-25.854c-1.476-0.75-3.3,0.575-2.475,2.247c4.347,8.843,10.023,16.71,13.68,25.949
					c1.114,2.824,2.177,5.723,3.197,8.668c-5.977-3.657-12.363-6.861-18.923-9.186c15.607,65.227,38.263,129.717,37.247,197.506
					c-0.028,1.557-2.443,1.416-2.419-0.139c1.023-68.041-21.953-132.786-37.529-198.273c-4.87-1.537-9.809-2.556-14.743-2.866
					c-1.055,11.486-0.167,23.322,0.052,34.616c0.448,22.979,1.916,45.729,5.898,68.39c8.179,46.562,23.873,91.349,44.66,133.733
					c0.69,1.4-1.459,2.524-2.15,1.128c-21.164-43.155-37.441-89.082-45.263-136.598c-3.744-22.79-4.97-45.418-5.6-68.46
					c-0.297-10.729-1.007-21.969-0.02-32.892c-2.245-0.024-4.49,0.071-6.719,0.367c0.75-7.629,1.46-15.262,1.797-22.911
					c0.06-1.335-1.936-2.197-2.443-0.718c-2.717,7.924-3.561,16.145-3.76,24.442c-3.074,0.742-6.108,1.839-9.067,3.344
					c2.122-10.378,5.097-20.714,5.736-31.207c0.119-1.934-2.4-2.362-3.395-0.99c-7.06,9.799-8.986,23.607-10.203,35.351
					c-0.079,0.724-0.115,1.44-0.186,2.162c-3.022,2.414-5.918,4.89-8.682,7.427c-1.442,10.838-2.392,21.739-3.359,32.644
					c-0.052,0.648-1.067,0.636-1.026-0.022c0.619-10.304,1.339-20.652,2.558-30.931c-2.781,2.651-5.422,5.37-7.932,8.153
					c-8.607,26.302-10.558,54.82-9.594,82.264c1.148,32.394,6.16,64.779,15.085,95.944c0.433,1.497-1.945,2.001-2.364,0.512
					c-8.962-31.326-14.154-64.015-15.135-96.59c-0.781-25.85,0.797-52.547,8.062-77.549c-2.834,3.409-5.485,6.909-7.95,10.491
					c0.345-3.207,0.676-6.405,0.97-9.6c0.006-0.066-0.014-0.119-0.014-0.179c-12.277,28.158-14.062,60.616-11.933,90.841
					c2.378,33.65,9.474,67.343,21.517,98.883c0.547,1.447-1.592,2.584-2.148,1.121c-12.385-32.43-19.839-67.218-21.904-101.87
					c-1.222-20.629-0.71-42.088,3.639-62.56c-2.826,5.543-5.303,11.25-7.447,17.081c0.53-6.132,1.233-12.232,2.326-18.292
					c1.263-7.02,3.667-13.785,4.882-20.795c0.28-1.636-2.136-2.309-2.977-1.028c-7.199,10.927-8.359,25.718-9.323,38.445
					c-0.523,6.953-0.71,13.954-0.752,20.962c-8.032,33.186-7.225,69.469-2.122,105.318c7.905,35.264,22.33,69.298,44.942,96.753
					c14.842,18.021,33.313,33.263,54.822,42.447c-7.572-8.426-16.936-27.601-22.505-40.623
					c-16.146-37.753-26.728-76.817-31.087-117.709c-0.066-0.593,0.967-0.718,1.045-0.123c5.007,39.559,16.129,77.549,32.216,113.971
					c5.271,11.935,10.883,23.982,18.177,34.84c3.264,4.847,7.302,12.827,13.775,13.874c-5.243-4.964-9.42-11.669-12.668-17.345
					c-6.208-10.863-11.197-22.437-15.635-34.122c-15.54-40.864-27.926-83.335-31.589-127.042c-0.045-0.521,0.871-0.599,0.922-0.075
					c3.887,40.892,15.702,79.918,29.921,118.276c5.386,14.56,11.34,29.224,19.657,42.4c4.898,7.75,11.272,17.021,19.157,20.498
					c12.216,5.392,49.154,3.409,72.563-4.216c4.994-3.256,6.881-9.63,7.837-15.347c1.69-10.146,0.757-20.807-0.305-30.969
					c-1.602-15.36-5.339-30.166-8.591-45.241c-0.857-3.956,1.84-0.395,3.252,4.825c4.994,18.552,8.405,31.811,9.88,51.076
					c0.583,7.613,1.812,23.064-2.753,32.305c10.396-4.91,9.42-26.854,7.893-37.901c-1.757-12.77-3.756-26.747-6.517-39.324
					c-5.073-23.127-9.301-45.146-14.302-68.315c-5.128-23.764-11.331-47.272-19.891-70.052c-0.214-0.581,0.781-0.974,1.008-0.403
					c9.638,24.25,16.666,49.376,22.163,74.871c4.899,22.645,8.849,43.179,14.179,65.705c3.169,13.432,5.501,29.566,6.826,43.335
					c0.821,8.535,2.122,19.688-1.837,28c11.593-5.392,28.26-14.834,40.531-26.07c1.666-16.434,1.329-33.085-0.567-49.483
					c-3.264-28.254-10.217-56.372-19.859-83.655C501.271,288.415,501.394,285.373,501.617,282.375z"/>
				<path fill="#E68F00" d="M457.853,308.873c-0.456-2.132-0.94-4.268-1.424-6.382c-4.549-3.899-9.321-7.553-14.274-10.901
					c-1.317-0.888-2.657-1.753-4.01-2.625c0.42-5.517,0.032-11.13-0.547-17.027c-0.936-9.614-3.189-19.159-9.352-26.836
					c-1.202-1.499-3.677-0.331-3.689,1.434c-0.04,10.189,2.09,19.966,3.522,30.001c0.325,2.287,0.599,4.579,0.869,6.86
					c-2.253-1.273-4.525-2.523-6.85-3.687c-0.369-4.226-0.849-8.446-1.317-12.666c-1.884-17.055-4.609-37.963-17.091-50.748
					c-1.595-1.636-4.482-0.024-4.256,2.12c1.511,14.544,6.937,28.551,9.507,42.965c0.797,4.484,1.515,8.989,2.281,13.485
					c-5.188-2.011-10.503-3.617-15.909-4.663c-1.495-0.29-2.991-0.537-4.498-0.755c0.08,0.129,0.147,0.286,0.175,0.472
					c5.862,38.388,14.532,77.179,34.396,110.996c0.797,1.35-1.361,2.461-2.142,1.123c-19.966-33.991-28.732-73.023-34.621-111.609
					c-0.079-0.535,0.159-0.948,0.512-1.186c-4.184-0.532-8.412-0.807-12.636-0.829c-0.774-5.547-1.829-10.947-4.656-15.855
					c-1.21-2.11-3.875-0.95-4.145,1.114c-0.599,4.533-0.397,9.777,0.504,15.02c-1.019,0.061-2.035,0.138-3.054,0.23
					c-0.98-3.976-1.888-7.972-2.653-12.016c-1.563-8.262-2.562-16.682-3.244-25.063c-0.651-7.845-1.019-16.643-4.085-23.95
					c-1.031-2.445-4.311-2.136-5.366,0.056c-6.691,13.928-3.264,33.558-0.623,48.162c0.885,4.902,1.932,9.805,3.228,14.642
					c-0.976,0.184-1.939,0.405-2.907,0.613c4.137,20.948,6.858,42.171,13.529,62.546c3.657,11.175,8.087,22.02,12.747,32.814
					c4.284,9.922,8.877,19.649,15.94,27.929c1.015,1.184-0.769,2.822-1.785,1.628c-6.735-7.885-11.403-17.083-15.5-26.562
					c-4.387-10.178-8.758-20.375-12.307-30.887c-7.369-21.864-10.487-44.46-14.981-66.964c-1.384,0.327-2.764,0.652-4.137,1.007
					c-0.27-9.015-0.377-18.064-2.808-26.653c-0.567-1.991-3.32-2.11-4.002-0.127c-2.796,8.153-2.344,16.66-1.408,25.118
					c0.147,1.345,0.349,2.644,0.587,3.929c-0.539,0.175-1.083,0.345-1.619,0.53c-0.091-2.572-0.27-5.168-0.63-7.853
					c-1.352-10.013-2.348-20.054-3.808-30.052c-0.302-2.158-3.479-1.989-4.052-0.111c-2.754,8.996-3.076,17.38-1.987,26.632
					c0.601,5.132,1.876,9.622,3.528,14.007c-2.233,0.922-4.446,1.892-6.602,2.949c3.929,40.733,15.713,79.623,29.88,117.839
					c5.386,14.56,11.34,29.224,19.657,42.4c4.898,7.75,11.272,17.021,19.157,20.498c12.216,5.392,49.154,3.409,72.563-4.216
					c4.994-3.256,6.881-9.63,7.837-15.347c1.69-10.146,0.757-20.807-0.305-30.969c-1.602-15.36-5.339-30.166-8.591-45.241
					c-0.857-3.956,1.84-0.395,3.252,4.825c4.994,18.552,8.405,31.811,9.88,51.076c0.583,7.613,1.812,23.064-2.753,32.305
					c10.396-4.91,9.42-26.854,7.893-37.901c-1.757-12.77-3.756-26.747-6.517-39.324
					C467.082,354.061,462.854,332.042,457.853,308.873z"/>
				<path fill="#E68F00" d="M298.11,380.328c-7.372-13.954-13.464-28.771-17.624-44.022c-2.229-8.168-4.063-16.446-5.289-24.829
					c-0.829-5.686-2.324-11.345-2.192-17.112c-0.883-0.778-2.53-0.351-2.81,1.045c-2.082,10.699-0.004,23.169,4.101,34.167
					c-0.647,1.481-1.267,2.971-1.862,4.47c8.452,28.706,21.543,55.946,40.254,78.667c7.191,8.73,15.239,16.797,24.056,23.849
					C322.441,418.804,308.757,400.48,298.11,380.328z"/>
				<path fill="#E68F00" d="M347.178,410.677c5.271,11.935,10.883,23.982,18.177,34.84c3.264,4.847,7.302,12.827,13.775,13.874
					c-5.243-4.964-9.42-11.669-12.668-17.345c-6.208-10.863-11.197-22.437-15.635-34.122
					c-15.444-40.621-27.768-82.824-31.506-126.246c-4.051,2.019-7.934,4.292-11.645,6.808c-0.099-1.085-0.208-2.177-0.295-3.266
					c-1.129-13.694,0.286-28.107-2.652-41.565c-0.48-2.209-3.97-2.203-4.775-0.264c-5.585,13.315-4.375,29.047-3.082,43.095
					c0.295,3.23,0.652,6.413,1.088,9.559c-1.896,1.688-3.722,3.457-5.487,5.311c-0.046-0.676-0.111-1.333-0.161-2.003
					c-0.803-11.034-1.463-21.616-3.774-32.47c-0.424-1.991-3.587-2.168-4.061-0.103c-2.929,12.742-2.967,24.777-1.372,37.684
					c0.294,2.382,0.645,4.738,1.053,7.086c-0.089,0.127-0.171,0.262-0.252,0.383c-0.823-7.155-1.46-14.342-2.602-21.341
					c-0.357-2.203-3.296-1.743-3.657,0.193c-0.962,5.204-1.337,10.183-1.18,15.04c0.577,3.324,1.281,6.612,1.843,9.759
					c1.346,7.553,2.98,15.062,5.174,22.417c4.444,14.921,10.28,29.505,17.814,43.131c12.19,22.037,27.56,41.933,43.441,61.388
					c7.147,4.942,14.743,9.217,22.771,12.64c-7.572-8.426-16.936-27.601-22.505-40.623c-16.146-37.753-26.728-76.817-31.087-117.709
					c-0.066-0.593,0.967-0.718,1.045-0.123C319.97,336.266,331.091,374.256,347.178,410.677z"/>
				<path fill="#E68F00" d="M500.605,376.599c-4.034-17.455-10.4-34.731-21.053-49.301c-1.848-2.522-3.804-4.985-5.811-7.381
					c-0.515-8.734-4.423-23.088-4.902-24.992c-2.769-10.871-5.732-22.869-12.367-32.093c-1.678-2.33-4.764-0.748-4.815,1.775
					c-0.214,10.165,2.752,21.009,5.212,30.802c1.166,4.656,2.185,9.759,3.562,14.717c0.238,1.057,0.48,2.104,0.702,3.163
					c4.899,22.645,8.849,43.179,14.179,65.705c3.169,13.432,5.501,29.566,6.826,43.335c0.821,8.535,2.122,19.688-1.837,28
					c7.461-3.474,17.024-8.627,26.154-14.844C506.38,415.711,505.071,395.856,500.605,376.599z"/>
				<path fill="#FFA100" d="M350.24,79.423c7.421-0.119,17.69-3.506,22.652-10.122c-2.586-1.382-5.26-2.644-8.068-3.738
					c-1.166,1.438-2.645,2.8-4.323,4.03c-5.85,4.262-15.944,5.898-21.291,0.125c-0.329-0.365-0.631-0.733-0.885-1.11
					c-0.853,0.872-1.658,1.781-2.443,2.703C338.853,76.45,344.271,79.522,350.24,79.423z"/>
				<path fill="#FFA100" d="M337.302,62.784c-0.393,0.169-0.777,0.361-1.158,0.539c-1.361,1.7-1.955,3.792-1.103,6.233
					c0.766-0.898,1.551-1.783,2.392-2.635C336.945,65.617,336.917,64.248,337.302,62.784z"/>
				<path fill="#FFA100" d="M364.324,52.948c1.007,0.851,1.769,1.737,2.285,2.659c2.979,1.224,5.846,2.624,8.635,4.145
					C373.84,55.661,368.953,53.248,364.324,52.948z"/>
				<path fill="#E6DEB3" d="M359.014,59.167c-1.943,2.239-5.16,3.339-7.949,4.018c-2.701,0.653-9.087,0.847-9.983-1.674
					c-0.888-2.517,3.772-6.114,8.143-7.962c4.379-1.839,7.544-1.956,9.682-0.413C360.521,54.303,360.937,56.934,359.014,59.167z"/>
				<path fill="#D1C485" d="M343.858,56.722c-1.991,1.601-3.28,3.367-2.776,4.789c0.896,2.521,7.282,2.326,9.983,1.674
					c2.705-0.664,5.823-1.727,7.766-3.841C353.877,60.101,348.344,58.779,343.858,56.722z"/>
				<path fill="#E6DEB3" d="M362.417,56.29c3.415,3.671,0.722,8.149-4.665,11.776c-4.038,2.705-9.951,2.951-14.318,0.789
					c-1.991-0.989-2.788-2.735-2.804-4.619c2.693,2.34,7.694,1.674,10.859,1.073C355.178,64.617,362.305,62.539,362.417,56.29z"/>
				<path d="M475.023,167.224c2.804-5.718,5.029-11.839,6.592-18.376c0.484-2.043-2.372-2.588-3.074-0.742
					c-1.844,4.89-3.836,9.598-6.061,14.112c-1.004-2.126-2.197-4.533-4.506-8.547c-0.944-1.636-2.193-1.818-1.908-1.301
					c2.364,4.311,3.605,6.691,5.799,11.084c-6.005,11.863-13.707,22.31-24.801,30.921c-13.271,10.317-29.311,16.694-45.414,21.008
					c-36.03,9.65-75.387,10.566-104.432-15.855c-0.785-0.71-1.993,0.369-1.38,1.225c22.399,31.292,71.389,28.581,104.269,21.019
					c31.361-7.213,59.859-25.086,74.241-53.204c11.371,23.715,20.287,48.444,27.054,73.941c0.186,0.7,1.245,0.42,1.09-0.288
					C496.524,216.327,486.937,191.083,475.023,167.224z"/>
				<path d="M500.74,201.322c-5.422-13.85-8.833-19.266-16.036-32.236c-1.999-3.575-3.359-3.617-3.062-3.032
					c5.604,11.104,9.61,18.03,14.644,29.406c5.854,13.206,8.512,26.342,10.546,40.509c0.123,0.892,1.321,0.827,1.376-0.063
					C509.002,224.124,504.992,212.144,500.74,201.322z"/>
				<path d="M503.996,197.417c-0.246-0.551-1.043-0.117-0.825,0.425c3.784,9.513,7.584,19.017,7.901,29.376
					c0.024,0.712,1.19,0.875,1.269,0.125C513.452,217.037,507.987,206.611,503.996,197.417z"/>
			</g>
			<path fill="#E68F00" d="M475.713,275.452c-1.194-1.646-4.268-1.317-4.145,1.118c0.698,14.481,4.117,26.971,11.625,39.498
				c0.595,0.99,2.34,0.664,2.467-0.51C487.278,300.737,484.482,287.612,475.713,275.452z"/>
			<path fill="#FFA100" d="M518.548,209.495c-3.74-10.681-8.75-20.536-14.897-29.961c-0.655-1.013-2.071-0.137-1.587,0.922
				c3.55,7.681,6.08,15.833,8.587,23.895c2.979,9.523,3.122,19.434,8.627,27.944c0.924,1.444,2.927,1.059,3.181-0.662
				C523.629,223.714,521.162,216.949,518.548,209.495z"/>
			<path fill="#FFA100" d="M526.723,199.016c-2.959-6.681-7.349-13.17-13.537-17.196c-0.868-0.565-1.721,0.49-1.515,1.313
				c1.606,6.39,4.823,12.23,7.036,18.415c1.82,5.113,2.316,12.92,7.456,15.671c0.785,0.428,1.9,0.294,2.487-0.412
				C532.978,211.734,529.063,204.301,526.723,199.016z"/>
			<path fill="#FFA100" d="M543.322,207.75c-3.224-7.857-7.349-15.377-12.033-22.445c-0.591-0.894-1.833-0.175-1.432,0.789
				c2.959,7.124,5.501,14.362,7.988,21.658c2.066,6.05,2.951,15.431,7.663,19.942c0.861,0.821,2.634,0.754,2.935-0.636
				C549.799,220.87,545.678,213.473,543.322,207.75z"/>
			<path fill="#FFDB3B" d="M411.59,55.391c-7.132-10.1-23.607-10.657-34.518-8.777c-0.813,0.133-0.924,1.45-0.183,1.773
				c6.009,2.629,11.887,4.297,18.126,6.27c4.998,1.581,9.571,4,14.909,3.865C411.404,58.485,412.479,56.665,411.59,55.391z"/>
			<path fill="#FFDB3B" d="M396.455,57.25c-4.204-1.476-8.77-1.775-12.843-3.528c-0.777-0.329-1.321,0.95-0.599,1.348
				c2.82,1.575,5.533,3.252,8.532,4.502c2.134,0.89,4.248,1.793,6.287,2.876c1.61,0.847,2.423,1.44,4.192,0.833
				c0.611-0.212,0.964-0.952,0.869-1.559C402.424,58.759,398.918,58.124,396.455,57.25z"/>
			<path fill="#FFDB3B" d="M494.624,97.841c-7.913-6.737-15.73-12.982-24.555-18.445c-0.849-0.514-1.515,0.682-0.789,1.263
				c6.794,5.45,13.323,11.268,19.288,17.628c3.744,4.002,7.235,8.486,10.467,12.924c1.971,2.695,3.466,5.256,6.397,6.957
				c0.96,0.559,2.657,0.093,2.574-1.271C507.574,109.513,499.979,102.395,494.624,97.841z"/>
			<path fill="#FFDB3B" d="M404.907,99.338c-6.251-5.898-13.315-10.812-19.593-16.67c-0.94-0.87-2.11,0.454-1.341,1.392
				c4.902,6.037,9.896,11.94,15.306,17.539c4.847,5.011,9.131,12.216,15.199,15.683c1.222,0.704,2.78-0.171,2.523-1.662
				C415.85,108.896,409.651,103.804,404.907,99.338z"/>
			<path fill="#FFDB3B" d="M409.091,92.595c-3.411-3.503-7.246-6.592-10.491-10.249c-0.488-0.549-1.261,0.175-0.833,0.742
				c2.657,3.514,5.219,7.054,7.992,10.479c2.685,3.324,5.208,7.748,8.785,10.16c0.809,0.553,2.265-0.06,1.963-1.192
				C415.418,98.513,411.939,95.512,409.091,92.595z"/>
			<path fill="#FFDB3B" d="M324.11,77.975c-13.531,5.331-16.898,27.264-15.476,39.925c0.105,0.976,1.703,1.204,1.795,0.131
				c0.563-6.412,2.51-12.892,4.92-18.83c2.798-6.909,7.778-12.5,10.665-19.296C326.458,78.868,325.152,77.567,324.11,77.975z"/>
			<path fill="#FFF58B" d="M424.306,68.516c17.361,5.073,35.451,22.059,45.481,38.475c8.892,14.544,11.736,23.014,9.721,26.142
				c-3.371,5.216-16.412,1.862-36.862-19.609C427.007,97.109,406.184,63.219,424.306,68.516z"/>
			<path fill="#FFF58B" d="M466.13,89.95c3.966,5.13,18.856,26.521,25.531,37.188c6.675,10.663,9.317-2.017-1.646-18.479
				C480.068,93.704,456.782,77.844,466.13,89.95z"/>
			<path fill="#FFFFBD" d="M429.962,73.557c7.147,3.657,21.148,12.238,29.164,25.977c8.02,13.737-10.34,6.61-20.303-3.676
				C428.8,85.501,417.488,67.173,429.962,73.557z"/>
			<path fill="#FFFFD9" d="M439.727,91.477c-6.374-5.853-14.278-15.8-9.475-15.423c3.8,0.299,19.538,11.695,21.124,19.038
				C452.344,99.605,444.641,95.982,439.727,91.477z"/>
		</g>
		<g>
			<path d="M353.988,138.195c-9.713-2.689-21.093,0.904-26.28,11.143c-4.669,9.202-5.531,22.16,0.488,33.362
				c1.868,3.473,4.303,6.201,7.052,8.254c-8.063-1.828-11.869,1.214-9.737,1.676c4.502,0.994,17.392,4.615,24.468,8.522
				c1.951,1.077,3.621-2.558-1.396-5.624c8.742,0.242,17.555-4.258,22.132-13.116C379.055,166.248,371.777,143.111,353.988,138.195z
				"/>
			<path fill="#FFFFFF" d="M369.012,171.52c-0.849,19.635-26.546,27.339-37.017,8.047c-3.161-5.826-4.185-13.874-3.339-20.442
				c0.964-7.48,5.303-15.911,14.746-18.017c8.389-1.88,15.556,1.547,20.232,8.442C368.318,156.434,369.381,163.107,369.012,171.52z"
				/>
			<path d="M427.368,172.014c6.188-10.86,0.357-32.153-8.396-40.504c-9.971-9.499-22.933-8.417-32.377,0.918
				c-5.918,5.864-8.428,14.356-8.361,25.715c0.063,11.348,5.695,26.146,21.565,28.853c3.839,0.647,7.349,0.552,10.51-0.143
				c-2.391,3.365-1.677,6.368-0.757,5.235c3.213-3.958,13.323-13.57,23.845-16.829C435.542,174.594,434.61,170.112,427.368,172.014z
				"/>
			<path fill="#FFFFFF" d="M382.644,155.674c-0.139-12.855,5.58-26.756,18.943-27.026c16.277-0.367,21.323,15.084,22.671,25.499
				c1.876,14.455-5.104,29.239-22.846,27.669C389.094,180.731,382.787,168.263,382.644,155.674z"/>
			<path d="M364.661,167.137c0.373,6.138-4.304,11.399-10.427,11.772c-6.124,0.359-11.383-4.301-11.752-10.425
				c-0.381-6.13,4.295-11.389,10.423-11.76C359.029,156.347,364.289,161.015,364.661,167.137z"/>
			<path d="M419.951,157.483c0.376,6.166-4.323,11.463-10.487,11.84c-6.16,0.363-11.47-4.327-11.843-10.497
				c-0.361-6.158,4.327-11.461,10.491-11.833C414.287,146.626,419.578,151.317,419.951,157.483z"/>
			<path fill="#FFFFFF" d="M360.798,163.773c0.111,1.894-1.333,3.532-3.228,3.649c-1.908,0.115-3.542-1.333-3.649-3.235
				c-0.119-1.9,1.328-3.536,3.228-3.655C359.057,160.424,360.687,161.872,360.798,163.773z"/>
			<path fill="#FFFFFF" d="M354.726,159.716c0.056,0.96-0.682,1.789-1.638,1.848c-0.964,0.059-1.797-0.672-1.848-1.636
				c-0.063-0.964,0.67-1.795,1.638-1.852C353.838,158.02,354.667,158.752,354.726,159.716z"/>
			<path fill="#FFFFFF" d="M416.207,154.06c0.131,2.035-1.42,3.786-3.462,3.905c-2.039,0.131-3.784-1.422-3.911-3.457
				c-0.123-2.045,1.436-3.792,3.466-3.913C414.339,150.477,416.092,152.022,416.207,154.06z"/>
			<path fill="#FFFFFF" d="M409.199,150.629c0.063,1.027-0.718,1.912-1.745,1.975c-1.031,0.064-1.916-0.72-1.979-1.751
				c-0.063-1.029,0.726-1.91,1.757-1.977C408.255,148.815,409.143,149.602,409.199,150.629z"/>
		</g>
		<path d="M309.544,187.906c-10.501,0.107-24.621,7.34-22.753,19.659c0.103,0.698,1.226,0.65,1.352-0.016
			c2.029-10.705,12.048-14.515,21.684-16.187C312.019,190.978,311.797,187.89,309.544,187.906z"/>
		<path d="M482.777,141.098c-6.909,0.097-13.251,2.729-18.808,6.491c-1.484,1.004-0.837,2.592-0.123,2.241
			c3.475-1.695,9.067-3.478,13.838-4.256c2.527-0.409,5.168-0.45,7.532,0.631c2.657,1.207,4.367,4.17,5.188,8.222
			c0.381,1.868,3.391,0.061,3.7-2.816C494.806,145.011,488.885,141.009,482.777,141.098z"/>
		<path d="M350.549,119.006c-13.569,2.362-23.286,16.091-30.439,26.73c-1.285,1.92,1.358,4.043,2.842,2.229
			c8.38-10.247,20.153-14.8,30.956-21.698C358.058,123.617,354.813,118.255,350.549,119.006z"/>
		<path d="M403.642,96.252c-7.512-2.992-16.674-1.396-22.588,4.016c-3.355,3.076-0.619,10.064,4.184,7.629
			c10.344-5.235,22.048-3.355,29.41,6.201c0.928,1.214,3.308,0.597,2.971-1.128C416.005,104.581,411.681,99.455,403.642,96.252z"/>
		<path d="M392.869,309.074c-3.276-0.982-19.791-12.704-19.807-12.742c4.137-0.043,8.896,0.797,12.458-2.112
			c4.7-3.853,1.368-12.664-2.915-8.603c-3.324,3.149-11.597,6.467-16.658,6.311c-5.057-0.153-20.732,14.384-24.436,18.522
			c-8.047,2.582-16.319,2.122-25.402-0.258c-11.534-3.014-22.029-10.039-31.552-16.963c-13.201-9.607-43.202-31.31-29.065-49.325
			c4.377-5.569,1.38-8.24-3.419-2.761c-14.707,16.819,8.377,39.834,20.022,49.848c16.888,14.542,49.507,38.425,73.088,24.678
			c5.529,4.156,13.545,3.837,19.903,0.807c-0.714,5.216-0.698,9.325,0.23,14.463c0.94,5.182,7.917,4.367,7.076-0.767
			c-0.944-5.761-1.011-11.639-1.777-17.418c0.428-0.411,0.837-0.839,1.214-1.281c1.551,5.368,4.669,23.173,9.904,24.513
			c6.231,1.595,5.041-5.531,3.459-8.573c-3.78-7.296-10.828-23.11-10.8-23.384c0.75,0.932,8.646,9.688,12.466,11.58
			C393.318,318.819,400.505,311.372,392.869,309.074z"/>
		<path d="M556.422,168.591c-3.197-1.206-7.139-2.132-11.094-2.194c0.583,1.783,0.984,3.635,1.285,5.499
			c23.508,0.924,23.262,38.509,21.466,58.3c-0.916,10.221-4.046,20.327-8.56,29.507c-3.637,7.399-9.923,17.239-17.995,22.479
			c-5.636-3.254-12.891-4.857-16.845-4.68c-0.603-1.321-2.15-2.302-3.927-1.654c-4.101,1.505-9.348,5.009-13.64,2.487
			c-4.525-2.653-9.011,4.732-4.847,7.802c4.172,3.078,8.412,1.935,12.482-0.186c-6.683,7.234-8.884,18.738-13.077,27.27
			c-2.098,4.252,6.282,8.762,7.258,4.07c0.658-3.183,3.466-19.498,7.71-24.569c0.42,0.926,0.988,1.783,1.642,2.578
			c-2.685,2.969-3.855,6.765-4.724,10.967c-0.746,3.584-1.043,6.554-1.273,10.195c-0.19,2.97,0.044,4.756-0.96,7.615
			c-2.15,6.156,9.126,6.608,7.98,0.984c-0.936-4.631-0.984-7.54-0.758-12.22c0.226-4.926,0.972-10.124,2.816-14.802
			c0.964,0.621,1.999,1.125,3.058,1.478c-3.181,7.99-2.233,12.452-3.292,20.926c-0.694,5.58,8.718,7.127,7.71,1.447
			c-1.42-7.817-0.563-13.868-1.479-21.777c6.048,0.367,15.048-4.45,17.666-10.304c9.047-4.462,14.913-13.303,19.482-21.664
			c5.957-10.885,9.519-22.383,11.375-34.643C578.57,215.849,577.007,176.341,556.422,168.591z"/>
		<path d="M411.083,244.406c-4.196-6.126-10.011-10.084-18.09-10.58c-8.488-0.508-16.888,1.932-25.297,2.697
			c-1.015,0.093-1.305,1.588-0.226,1.836c6.501,1.499,12.605,1.565,19.236,1.567c8.643,0.014,17.896,5.055,24.123,10.745
			C413.895,253.465,413.439,247.821,411.083,244.406z"/>
	</g>
	<path d="M399.568,517.41c-22.262-7.633-40.658-19.258-61.521-30.752c9.269-7.627,27.609-18.249,39.222-21.589
		c6.874-1.979-2.384-8.119-9.757-6.685c-17.678,3.439-32.932,12.811-45.912,25.081c-3.244,3.068-1.654,8.444,1.864,10.425
		c18.961,10.683,38.804,18.863,58.397,27.847c-24.725,5.618-48.594,10.257-74.816,6.11c-8.458-1.337,6.219,9.31,14.697,11.179
		c33.981,7.484,54.054,0.793,86.47-10.013C414.545,526.905,409.532,514.693,399.568,517.41z"/>
	<path d="M589.346,443.913c-8.726-11.918-25.123-23.748-39.817-26.625c-10.467-2.049-11.153,10.695-5.466,13.658
		c-0.008,20.821-0.155,39.756-3.185,60.297c-12.002-15.798-28.847-40.434-38.687-57.799c-4.121-7.288-12.061,0.684-8.417,8.194
		c10.166,20.952,29.045,49.564,45.62,65.961c3.304,3.268,9.507,1.914,10.626-2.81c5.446-23.109,4.386-47.29,4.509-70.887
		c7.758,2.616,32.091,22.3,37.549,32.315C600.17,481.065,598.675,456.658,589.346,443.913z"/>
</g>
</svg>
