<svg width="450" height="450" xmlns="http://www.w3.org/2000/svg">
 
 <style type="text/css">.st0{fill:#5954A4;}
	.st1{opacity:0.4;}
	.st2{fill:#FFFFFF;}
	.st3{fill:#4AA4DB;}
	.st4{fill:#F3AA06;}
	.st5{fill:#F3F3F3;}
	.st6{fill:#FFBF0D;}
	.st7{fill:#FECE40;}
	.st8{fill:#CDD5D7;}
	.st9{fill:#D9E1E4;}
	.st10{fill:#E04037;}
	.st11{fill:#FF5931;}
	.st12{fill:#92B400;}
	.st13{fill:#9FC400;}
	.st14{fill:#EDEDED;}
	.st15{fill:#E2E2E2;}
	.st16{fill:#B3B3B3;}
	.st17{fill:#FF3D0D;}
	.st18{fill:#879BA6;}
	.st19{fill:#4E99FF;}
	.st20{fill:#FDBF14;}
	.st21{fill:#2C7EEA;}
	.st22{fill:none;stroke:#FFFFFF;stroke-width:1.988;stroke-miterlimit:10;}
	.st23{fill:#2B83FD;}
	.st24{fill:#5DCFCA;}
	.st25{opacity:0.3;}
	.st26{fill:none;stroke:#879BA6;stroke-width:3.711;}
	.st27{fill:#3DC7C9;}
	.st28{fill:none;stroke:#B5D1DE;stroke-width:2.474;}
	.st29{fill:none;stroke:#D8E5ED;stroke-width:2.474;}
	.st30{fill:#D0DEE6;}
	.st31{fill:url(#SVGID_7_);}
	.st32{fill:#D8E5ED;}
	.st33{fill:#F5B1AE;}
	.st34{fill:#30363D;}
	.st35{fill:#596273;}
	.st36{fill:none;stroke:#879BA6;stroke-width:2.103;}
	.st37{fill:#2872D4;}
	.st38{fill:#37B3B5;}
	.st39{fill:#E0C9A4;}
	.st40{fill:#163F59;}
	.st41{fill:#E9D6B8;}
	.st42{fill:#161711;}
	.st43{fill:#B6C2C9;}
	.st44{fill:#E4EEF3;}
	.st45{fill:#86C0F0;}
	.st46{fill:#74B2E8;}
	.st47{fill:#ECB60D;}
	.st48{fill:#C4D1E1;}
	.st49{fill:#282723;}
	.st50{fill:#316091;}
	.st51{fill:#323B31;}
	.st52{fill:#3C463B;}
	.st53{fill:#194866;}
	.st54{fill:#3E3BC9;}
	.st55{fill:#E2C59C;}
	.st56{fill:#2975D9;}
	.st57{fill:#15100C;}
	.st58{fill:#E5E8EC;}
	.st59{fill:#F7F8FC;}
	.st60{fill:#484F59;}
	.st61{fill:#B7BEC0;}

 
#main
{    animation-name: main;
    
    animation-timing-function: ease-out;
    animation-iteration-count: infinite;
    transform-origin: bottom;
    transform-box: fill-box;
}
@keyframes main {
    0%   { transform: scale(0); }
    3% { transform: scale(1.1); }
    4% { transform: scale(1); }
}
#a
{    animation-name: a;
    animation-duration: 30s;
    animation-timing-function: ease-out;
    animation-iteration-count: infinite;
    transform-origin: bottom;
    transform-box: fill-box;
}
@keyframes a {
    0%   { transform: scale(0); }
    1% { transform: scale(1.1); }
    2% { transform: scale(1); }
}
#garm1{
   animation-name: garm1;
    animation-duration: 30s;
    animation-timing-function: ease-out;
    animation-iteration-count: infinite;
    animation-direction:initial;
    transform-origin: left;
    transform-box: fill-box;
}
@keyframes garm1 {
  0%{transform:rotateZ(0deg)}
  10%{transform:rotateZ(5deg)}
  15%{transform:rotateZ(5deg)}
  20%{transform:rotateZ(0deg)}
  50%{transform:rotateZ(10deg)}
  100%{transform:rotateZ(0deg)}
}
#garm2{
   animation-name: garm2;
    animation-duration: 30s;
    animation-timing-function: ease-out;
    animation-iteration-count: infinite;
    animation-direction:initial;
    transform-origin: left;
    transform-box: fill-box;
}
@keyframes garm2 {
  0%{transform:rotateZ(0deg)}
  10%{transform:rotateZ(5deg)}
  15%{transform:rotateZ(5deg)}
  20%{transform:rotateZ(0deg)}
  15%{transform:rotateZ(0deg)}
  50%{transform:rotateZ(5deg)}
  100%{transform:rotateZ(0deg)}
}
#mike{
   animation-name: garm2;
    animation-duration: 30s;
    animation-timing-function: ease-out;
    animation-iteration-count: infinite;
    animation-direction:initial;
    transform-origin: left;
    transform-box: fill-box;
}
@keyframes garm2 {
  0%{transform:rotateZ(0deg)}
  10%{transform:rotateZ(5deg)}
  15%{transform:rotateZ(5deg)}
  20%{transform:rotateZ(0deg)}
  15%{transform:rotateZ(0deg)}
  50%{transform:rotateZ(5deg)}
  100%{transform:rotateZ(0deg)}
}
 #b{
   animation-name: bb;
    animation-duration: 30s;
    animation-timing-function: ease-out;
    animation-iteration-count: infinite;
    animation-direction:initial;
    transform-origin: left 70%;
    transform-box: fill-box;
}
@keyframes bb {
  0%   { transform: scale(0); }
  10% { transform: scale(0); }
  11% { transform: scale(1); }
  20%{transform:rotateZ(0deg)}
  15%{transform:rotateZ(0deg)}
  50%{transform:rotateZ(5deg)}
  100%{transform:rotateZ(0deg)}
}
#t {
    animation: t 30s ease-in-out infinite;
    animation-direction: initial;
    transform-origin:bottom;
    transform-box: fill-box;
}


@keyframes t{
  0%{transform:scale(0);}
  10%{transform:scale(0);}
   11%{transform:scale(1.3);}
   
  12%{transform:scale(1);}
  20%{transform:translateY(0px);}

  40%{transform:translateY(10px);}
  60%{transform:translateY(0px);}
  80%{transform:translateY(10px);}
  90%{transform:translateY(0px);}
  
  100%{transform:scale(1);}
}
#u {
    animation: u 30s ease-in-out infinite;
    animation-direction: initial;
    transform-origin:bottom;
    transform-box: fill-box;
}


@keyframes u{
  0%{transform:scale(0);}
  10%{transform:scale(0);}
   11%{transform:scale(1.3);}
   
  12%{transform:scale(1);}
  20%{transform:translateY(0px);}

  40%{transform:translateY(10px);}
  60%{transform:translateY(0px);}
  80%{transform:translateY(10px);}
  90%{transform:translateY(0px);}
  
  100%{transform:scale(1);}
}
#r,#s {
    animation: rs 30s ease-in-out infinite;
    animation-direction: initial;
    transform-origin:bottom;
    transform-box: fill-box;
}


@keyframes rs{
  0%{transform:scale(0);}
  14%{transform:scale(0);}
   15%{transform:scale(1.3);}
   
  16%{transform:scale(1);}
  20%{transform:translateY(0px);}

  56%{transform:translateY(10px);}
  70%{transform:translateY(0px);}
  80%{transform:translateY(10px);}
  90%{transform:translateY(0px);}
  
  100%{transform:scale(1);}
}
#v
{    animation-name: v;
    animation-duration: 30s;
    animation-timing-function: ease-out;
    animation-iteration-count: infinite;
    transform-origin: bottom;
    transform-box: fill-box;
}
@keyframes v {
    0%   { transform: scale(0); }
    12% { transform: scale(0); }
    14% { transform: scale(1); }
}
#w
{    animation-name: w;
    animation-duration: 30s;
    animation-timing-function: ease-out;
    animation-iteration-count: infinite;
    transform-origin: bottom;
    transform-box: fill-box;
}
@keyframes w {
    0%   { transform: scale(0); }
    12% { transform: scale(0); }
    14% { transform: scale(1); }
}

 #vhead{
   animation-name: vh;
    animation-duration: 1.5s;
    animation-timing-function: ease-out;
    animation-iteration-count: infinite;
    animation-direction:alternate;
    transform-origin: bottom;
    transform-box: fill-box;
}
@keyframes vh {
  
  0%{transform:rotateZ(0deg)}
  
  100%{transform:rotateZ(6deg)}
  
}

#c
{    animation-name: c;
    animation-duration: 30s;
    animation-timing-function: ease-out;
    animation-iteration-count: infinite;
    transform-origin: bottom;
    transform-box: fill-box;
}
@keyframes c {
    0%   { transform: scale(0); }
    12% { transform: scale(0); }
    14% { transform: scale(1); }
    40%{transform:translateY(-5px);}
  60%{transform:translateY(0px);}
  
  100%{transform:translateY(-5px);}
}
#d{
    animation-name: d ;
    animation-duration: 30s;
    animation-iteration-count: infinite;
    transform-origin: bottom;
    transform-box: fill-box;
}
@keyframes d {
    0% { opacity: 0; transform: translate(-25px, -25px); }
    15% { opacity: 0; transform: translate(-25px, 20px); }
    16% { opacity: 1; transform: translate(0px, 0px); }
    20%{transform:translateY(0px);}

  40%{transform:translateY(-5px);}
  60%{transform:translateY(0px);}
  
  100%{transform:translateY(-5px);}
}
#e{
    animation-name: e ;
    animation-duration: 30s;
    animation-iteration-count: infinite;
    transform-origin: bottom;
    transform-box: fill-box;
}
@keyframes e {
    0% { opacity: 0; transform: translate(-25px, -25px); }
    17% { opacity: 0; transform: translate(-25px, 20px); }
    18% { opacity: 1; transform: translate(0px, 0px); }
    40%{transform:translateY(-5px);}
  60%{transform:translateY(0px);}
  
  100%{transform:translateY(-5px);}
}
#f {
    animation-name: ff ;
    animation-duration: 30s;
    animation-iteration-count: infinite;
    transform-origin: bottom;
    transform-box: fill-box;
}
@keyframes ff {
    0% { opacity: 0; transform: translate(-25px, -25px); }
    19% { opacity: 0; transform: translate(-25px, 20px); }
    20% { opacity: 1; transform: translate(0px, 0px); }
    40%{transform:translateY(-5px);}
  60%{transform:translateY(0px);}
  
  100%{transform:translateY(-5px);}
}
#g {
    animation-name: g ;
    animation-duration: 30s;
    animation-iteration-count: infinite;
    transform-origin: bottom;
    transform-box: fill-box;
}
@keyframes g {
    0% { opacity: 0; transform: translate(-65px, -45px); }
    19% { opacity: 0; transform: translate(-65px, 40px); }
    23% { opacity: 1; transform: translate(0px, 0px); }
    40%{transform:translateY(-5px);}
  60%{transform:translateY(0px);}
  
  100%{transform:translateY(-5px);}
}
#h {
    animation-name: h ;
    animation-duration: 30s;
    animation-iteration-count: infinite;
    transform-origin: bottom;
    transform-box: fill-box;
}
@keyframes h {
    0% { opacity: 0; transform: translate(-75px, -45px); }
    22% { opacity: 0; transform: translate(-75px, 40px); }
    23% { opacity: 1;}
    27% { opacity: 1; transform: translate(0px, 0px); }
    40%{transform:translateY(-5px);}
  60%{transform:translateY(0px);}
  
  100%{transform:translateY(-5px);}
}
#l {
    animation-name: l ;
    animation-duration: 30s;
    animation-iteration-count: infinite;
    transform-origin: bottom;
    transform-box: fill-box;
}
@keyframes l {
    0% { opacity: 0; transform: translate(-75px, -5px); }
    26% { opacity: 0; transform: translate(-75px, 0px); }
    27% { opacity: 1;}
    30% { opacity: 1; transform: translate(0px, 0px); }
    440%{transform:translateY(-5px);}
  60%{transform:translateY(0px);}
  
  100%{transform:translateY(-5px);}
}
#m {
    animation-name: m ;
    animation-duration: 30s;
    animation-iteration-count: infinite;
    transform-origin: bottom;
    transform-box: fill-box;
}
@keyframes m {
    0% { opacity: 0; transform: translate(-75px, -5px); }
    29% { opacity: 0; transform: translate(-75px, 0px); }
    30% { opacity: 1;}
    34% { opacity: 1; transform: translate(0px, 0px); }
    40%{transform:translateY(-5px);}
  60%{transform:translateY(0px);}
  
  100%{transform:translateY(-5px);}
}
#n {
    animation-name: n ;
    animation-duration: 30s;
    animation-iteration-count: infinite;
    transform-origin: bottom;
    transform-box: fill-box;
}
@keyframes n {
    0% { opacity: 0; transform: translate(-105px, 5px); }
    34% { opacity: 0; transform: translate(-105px, -10px); }
    35% { opacity: 1;}
    40% { opacity: 1; transform: translate(0px, 0px); }
    40%{transform:translateY(-5px);}
  60%{transform:translateY(0px);}
  
  100%{transform:translateY(-5px);}
}
#o {
    animation-name: o ;
    animation-duration: 30s;
    animation-iteration-count: infinite;
    transform-origin: bottom;
    transform-box: fill-box;
}
@keyframes o {
    0% { opacity: 0; transform: translate(-145px, 5px); }
    40% { opacity: 0; transform: translate(-145px, 30px); }
    41% { opacity: 1;}
    47% { opacity: 1; transform: translate(0px, 0px); }
    40%{transform:translateY(-5px);}
  60%{transform:translateY(0px);}
  
  100%{transform:translateY(-5px);}
}
#p {
    animation-name: p ;
    animation-duration: 30s;
    animation-iteration-count: infinite;
    transform-origin: bottom;
    transform-box: fill-box;
}
@keyframes p {
    0% { opacity: 0; transform: translate(-165px, 5px); }
    47% { opacity: 0; transform: translate(-165px, 10px); }
    48% { opacity: 1;}
    56% { opacity: 1; transform: translate(0px, 0px); }
    40%{transform:translateY(-5px);}
  60%{transform:translateY(0px);}
  
  100%{transform:translateY(-5px);}
}
#i {
    animation-name: i ;
    animation-duration: 30s;
    animation-iteration-count: infinite;
    transform-origin: bottom;
    transform-box: fill-box;
}
@keyframes i {
    0% { opacity: 0; transform: translate(-165px, 50px); }
    38% { opacity: 0; transform: translate(-165px, 50px); }
    39% { opacity: 1;}
    46% { opacity: 1; transform: translate(0px, 0px); }
    40%{transform:translateY(-5px);}
  60%{transform:translateY(0px);}
  
  100%{transform:translateY(-5px);}
}
#q {
    animation-name: q ;
    animation-duration: 30s;
    animation-iteration-count: infinite;
    transform-origin: bottom;
    transform-box: fill-box;
}
@keyframes q {
    0% { opacity: 0; transform: translate(-65px, 5px); }
    47% { opacity: 0; transform: translate(-65px, 10px); }
    48% { opacity: 1;}
    56% { opacity: 1; transform: translate(0px, 0px); }
    40%{transform:translateY(-5px);}
  60%{transform:translateY(0px);}
  
  100%{transform:translateY(-5px);}
}
#j {
    animation-name: j ;
    animation-duration: 30s;
    animation-iteration-count: infinite;
    transform-origin: bottom;
    transform-box: fill-box;
}
@keyframes j {
    0% { opacity: 0; transform: translate(-65px, 5px); }
    18% { opacity: 0; transform: translate(-65px, 10px); }
    19% { opacity: 1;}
    24% { opacity: 1; transform: translate(0px, 0px); }
    40%{transform:translateY(-5px);}
  60%{transform:translateY(0px);}
  
  100%{transform:translateY(-5px);}
}
#k {
    animation-name: k ;
    animation-duration: 30s;
    animation-iteration-count: infinite;
    transform-origin: bottom;
    transform-box: fill-box;
}
@keyframes k {
    0% { opacity: 0; transform: translate(-65px, 5px); }
    19% { opacity: 0; transform: translate(-65px, 10px); }
    20% { opacity: 1;}
    24% { opacity: 1; transform: translate(0px, 0px); }
    40%{transform:translateY(-5px);}
  60%{transform:translateY(0px);}
  
  100%{transform:translateY(-5px);}
}</style>
 <g>
  <title>Layer 1</title>
  <g stroke="null" id="main">
   <g stroke="null" id="girl">
    <g stroke="null" id="svg_223">
     <g stroke="null" id="garm1">
      <g stroke="null" id="svg_224">
       <path stroke="null" id="svg_225" d="m184.16929,156.5673c0,0 1.52576,-2.66606 2.90697,-3.32454c0.96364,-0.46576 5.89423,-1.84697 5.89423,-1.84697s-1.07606,1.57394 -3.05151,2.13606c-2.87484,0.81909 -5.74969,3.03545 -5.74969,3.03545" class="st55"/>
       <path stroke="null" id="svg_226" d="m187.04413,154.55973c0.78697,-1.76666 2.74636,-2.82666 5.36424,-3.51727c2.47333,-0.67454 3.09969,-2.2003 3.09969,-2.2003s-1.63818,0.25697 -5.3803,1.68636c-1.04394,0.40151 -2.08788,0.86727 -3.09969,1.33303c-3.35666,1.55788 -1.99151,7.24332 0.01606,2.69818" class="st55"/>
       <path stroke="null" id="svg_227" d="m182.53111,159.18518c1.34909,-0.09636 3.16394,-1.91121 3.98303,-1.71848c2.37697,0.56212 3.50121,1.59 3.50121,1.55788c0.11242,-2.84272 -3.88666,-3.4209 -5.07514,-4.70575c-1.17242,-1.26879 -5.89423,5.12333 -2.40909,4.86636" class="st41"/>
       <path stroke="null" id="svg_228" d="m173.63354,172.38698c2.02363,-4.64151 4.23999,-10.02181 6.35999,-12.0615c3.01939,-2.90697 5.86211,-3.08363 7.03454,-5.74969c0.12848,-0.28909 0.32121,-0.54606 0.48182,-0.81909c0.43364,-0.73879 0.80303,-1.63818 1.02788,-1.91121c0.24091,-0.32121 1.06,-1.12424 0.6103,-0.93151c-4.03121,1.70242 -8.36756,4.01515 -9.00999,4.8503c-1.33303,1.71848 -8.23908,11.57968 -10.05393,15.77149c-2.03969,4.70575 0.81909,7.1309 3.54939,0.85121" class="st41"/>
       <path stroke="null" id="svg_229" d="m186.64262,154.43125c0,0 -0.94757,-0.43364 -0.65848,-1.18848c0.48182,-1.23667 2.39303,-3.16394 3.09969,-3.80636c0.78697,-0.72273 5.07514,-3.50121 5.07514,-3.50121s-0.54606,1.81485 -2.2806,2.93909c-2.50545,1.63818 -5.23575,5.55696 -5.23575,5.55696" class="st41"/>
       <path stroke="null" id="svg_230" d="m165.55507,177.71909c0.77091,3.40484 -2.13606,12.76817 -0.33727,13.07332c6.47242,-7.70908 13.74786,-33.38996 13.74786,-33.38996l-13.41059,20.31664z" class="st41"/>
      </g>
      <path stroke="null" id="svg_231" d="m126.49573,188.14241c-0.16061,-1.83091 1.36515,-3.2603 4.11151,-3.54939c13.89241,-1.41333 33.71117,3.66181 33.71117,3.66181s2.10394,2.71424 0.09636,4.72181c-2.40909,2.40909 -11.80453,5.34817 -31.12541,3.50121c-5.58908,-0.54606 -6.50454,-5.21969 -6.79363,-8.33544" class="st56"/>
      <path stroke="null" id="svg_232" d="m177.90566,172.45122c-1.73454,-2.69818 -3.66181,-2.77848 -6.35999,-4.01515c-4.36848,5.58908 -9.57211,14.13331 -13.66756,20.31664c-1.50969,2.31272 1.1403,4.51302 2.84272,5.20363c2.89091,1.17242 7.27545,-4.4809 10.3109,-9.20272c2.79454,-4.27212 6.1512,-8.49605 6.87393,-12.30241" class="st56"/>
     </g>
     <path stroke="null" id="svg_233" d="m135.65026,170.23486c-1.86303,-1.68636 -4.17575,-2.95515 -6.80969,-3.58151c-8.2712,-1.99151 -16.55846,2.95515 -18.51785,11.04968c-1.95939,8.09453 3.16394,16.28543 11.43514,18.27695c8.09453,1.95939 16.18907,-2.74636 18.37331,-10.5518c-3.64575,-4.04727 -5.41242,-9.57211 -4.4809,-15.19331" class="st49"/>
     <path stroke="null" id="svg_234" d="m149.4463,429.67755c0,0 -1.42939,-0.53 -5.34817,-1.04394c-2.29666,-0.30515 -3.99909,-0.19273 -4.86636,-0.99576c-1.42939,-1.33303 -1.34909,-6.27969 -1.65424,-6.19939c-3.18,0.83515 -3.32454,10.96938 -1.78272,10.93726c2.08788,-0.03212 12.41483,-1.02788 13.2821,-1.1403c0.85121,-0.11242 0.62636,-1.76666 0.36939,-1.55788" class="st55"/>
     <path stroke="null" id="svg_235" d="m134.10844,344.74918c-1.06,1.31697 -5.09121,4.91454 -5.89423,9.04211c-1.60606,8.09453 -1.99151,12.27029 -0.86727,20.54149c1.76666,13.10544 5.0109,34.00026 6.50454,42.80146c1.33303,7.93393 0.40151,17.87543 5.95848,15.22543c-3.64575,-10.4715 -2.31272,-27.68845 -1.89515,-36.8751c2.87484,-62.5881 -1.92727,-53.06417 -3.80636,-50.73539" class="st55"/>
     <path stroke="null" id="svg_236" d="m120.3927,266.56625c-2.55363,-0.75485 -2.66606,1.47757 -4.68969,7.01848c-3.96696,10.85696 -6.53666,27.0139 -5.81393,44.35934c0.85121,20.31664 3.72606,38.09571 7.54847,49.33812c3.69393,-7.91787 6.26363,-12.43089 8.73696,-30.09754c5.47666,-39.12359 2.03969,-68.30567 -5.78181,-70.61839" class="st41"/>
     <path stroke="null" id="svg_237" d="m147.19782,429.11543c0.73879,2.48939 -7.0506,1.91121 -9.10635,1.36515c-1.94333,-0.51394 -3.18,-0.64242 -3.18,-0.64242c-0.0803,0.01606 -0.16061,0 -0.24091,0c0,0.06424 -0.01606,0.12848 -0.01606,0.19273c0.0803,1.38121 -0.43364,3.2603 1.78272,3.13181l13.87635,-0.78697c11.37089,-0.64242 -3.13181,-3.30848 -3.11575,-3.2603" class="st21"/>
     <path stroke="null" id="svg_238" d="m132.47026,260.15808c-2.66606,-0.70667 -2.71424,1.62212 -4.62545,7.41999c-3.75818,11.37089 -5.89423,28.21845 -4.57727,46.15812c1.52576,21.02331 4.75393,42.11085 9.07423,53.64235c3.56545,-8.31938 6.44029,-15.83574 8.43181,-34.22511c4.4006,-40.69752 -0.12848,-70.82718 -8.30332,-72.99536" class="st55"/>
     <path stroke="null" id="svg_239" d="m133.3536,263.11322c-2.42515,-0.51394 -2.42515,1.42939 -3.99909,6.32787c-3.11575,9.62029 -4.60939,23.75361 -2.98727,38.73813c1.92727,17.55422 5.73363,36.98753 10.40726,37.16419c1.79879,0.06424 2.55363,-13.05726 3.24424,-24.05876c2.16818,-34.22511 0.78697,-56.58144 -6.66514,-58.17144" class="st41"/>
     <path stroke="null" id="svg_240" d="m112.08938,433.86936c0,0 -1.54182,-0.43364 -5.02696,-1.23667c-2.44121,-0.54606 -3.66181,-0.93151 -4.22393,-1.91121c-0.93151,-1.62212 -0.51394,-6.29575 -1.15636,-6.29575c-3.18,-0.03212 -4.09545,8.3515 -3.3406,9.68453c0.99576,1.7506 11.32271,2.52151 12.91271,1.70242c0.73879,-0.38545 1.12424,-2.07182 0.83515,-1.94333" class="st41"/>
     <path stroke="null" id="svg_241" d="m114.70726,350.33826c-1.47757,-0.65848 0,-6.72939 -2.79454,-2.7303c-4.54515,6.53666 -8.38363,21.34452 -9.04211,29.35875c-1.04394,12.70392 -2.93909,32.89208 -3.35666,41.48449c-0.36939,7.7412 -3.32454,16.92786 2.45727,15.57877c-0.27303,-10.90514 3.16394,-26.67663 5.84605,-35.10844c9.12241,-28.81269 11.43514,-46.55964 6.88999,-48.58327" class="st41"/>
     <path stroke="null" id="svg_242" d="m112.08938,433.83724c-3.08363,3.22818 -9.05817,0.89939 -11.0015,0.12848c-3.30848,-1.31697 -3.09969,-2.39303 -3.11575,-2.32878c-0.32121,1.30091 -0.81909,3.19606 1.07606,4.17575c1.71848,0.88333 3.64575,0.81909 5.78181,1.12424c1.91121,0.27303 13.1215,1.30091 13.49089,-0.11242c0.51394,-1.99151 -6.19939,-3.01939 -6.23151,-2.98727" class="st21"/>
     <path stroke="null" id="svg_243" d="m117.61422,341.53706c-1.34909,-0.78697 -3.90272,2.65 -5.79787,6.00666c-3.72606,6.58484 -5.17151,14.7918 -7.09878,26.11451c-2.24848,13.2821 -2.98727,25.15088 -2.31272,32.89208c2.92303,-5.76575 5.33211,-13.21786 8.7209,-20.92694c20.413,-46.60782 10.64817,-41.69328 6.48848,-44.08631" class="st41"/>
     <path stroke="null" id="svg_244" d="m121.00301,264.09292c-2.53757,-0.62636 -2.58575,1.41333 -4.41666,6.5206c-3.58151,10.00574 -5.63727,24.8136 -4.4006,40.61722c1.1403,14.77574 3.53333,28.04178 6.53666,37.96722c0.75485,2.50545 3.54939,2.58575 4.04727,0.30515c1.54182,-7.19514 2.48939,-15.28968 3.32454,-24.05876c3.4209,-35.89541 2.69818,-59.44023 -5.09121,-61.35143" class="st41"/>
     <path stroke="null" id="svg_245" d="m112.87635,163.89093c-1.09212,-0.25697 -2.2003,-0.40151 -3.27636,-0.48182c-0.06424,1.09212 -0.19273,2.18424 -0.46576,3.27636c-2.12,8.76908 -10.34302,14.48665 -19.22452,13.90847c-0.46576,8.68878 5.42848,16.78331 14.37422,18.93543c10.05393,2.42515 20.12391,-3.58151 22.50088,-13.44271c2.37697,-9.81302 -3.85454,-19.75452 -13.90847,-22.19573" class="st49"/>
     <path stroke="null" id="svg_246" d="m136.56571,163.6179c0.69061,7.91787 -4.76999,14.85604 -12.18998,15.49846c-7.41999,0.64242 -13.98877,-5.26787 -14.67937,-13.18574c-0.67454,-7.91787 4.78605,-14.8721 12.20604,-15.49846c7.40393,-0.64242 13.97271,5.25181 14.66331,13.18574" class="st49"/>
     <path stroke="null" id="svg_247" d="m107.84939,189.45938c0,0 7.41999,11.82059 15.01665,12.88059c7.61272,1.06 11.03362,-0.85121 11.85271,-3.91878c0.80303,-3.06757 0.59424,-8.96181 -1.23667,-10.3109c-1.83091,-1.34909 -3.62969,-2.69818 -5.36424,-5.34817c-1.41333,-2.15212 -1.39727,-6.32787 -0.83515,-9.58817c0.57818,-3.27636 3.11575,-3.71 0.41758,-4.97878c-2.68212,-1.26879 -1.7506,-2.85878 -4.27212,-2.2003c-2.52151,0.64242 -4.09545,-0.17667 -3.88666,2.26454c0.38545,4.4809 1.30091,10.72847 -0.96364,13.82816c-2.45727,3.43697 -5.10727,4.62545 -10.72847,7.37181" class="st41"/>
     <path stroke="null" id="svg_248" d="m127.42724,155.81246c-0.22485,-0.03212 -0.4497,-0.0803 -0.67454,-0.09636c-0.24091,2.68212 -2.07182,5.97454 -5.10727,8.7209c-0.73879,0.65848 -1.49363,1.23667 -2.26454,1.7506l0.20879,2.47333c0.30515,3.66181 3.67787,6.35999 7.50029,6.02272c3.82242,-0.33727 6.6812,-3.56545 6.35999,-7.22726l-0.48182,-5.57302c-2.00757,-1.10818 -4.03121,-3.24424 -5.5409,-6.0709" class="st41"/>
     <path stroke="null" id="svg_249" d="m145.19025,332.89647c0.22485,-1.6703 0.33727,-3.2603 0.35333,-4.72181c-0.70667,-16.15695 1.99151,-32.20147 -12.39877,-86.72716c-0.72273,-2.92303 -2.42515,-7.41999 -3.4209,-9.8612c-6.48848,-4.07939 -11.94908,-0.04818 -18.77482,-3.03545c-2.29666,2.84272 -7.5806,8.52817 -9.9415,14.2618c-13.98877,33.88783 -2.55363,80.15838 -3.03545,97.7126c15.33786,2.39303 31.67147,0.59424 47.21812,-7.62878" class="st21"/>
     <path stroke="null" id="svg_250" d="m130.02906,231.81114c0,0.25697 -1.23667,0.49788 -2.77848,0.54606l-17.39361,0.41758c-1.54182,0.03212 -2.79454,-0.14455 -2.79454,-0.40151l-0.01606,-0.99576c0,-0.25697 1.23667,-0.51394 2.77848,-0.54606l17.40967,-0.41758c1.54182,-0.03212 2.79454,0.14455 2.79454,0.40151l0,0.99576z" class="st57"/>
     <path stroke="null" id="svg_251" d="m136.43723,204.13876c-1.47757,-5.15545 -2.93909,-10.3109 -4.38454,-15.49846c-0.32121,-1.1403 -0.72273,-2.16818 -1.17242,-3.05151c0.16061,12.46301 -16.55846,7.22726 -16.18907,1.99151c-2.52151,2.82666 -9.7809,5.9103 -9.74878,6.42423c0.27303,5.68545 1.06,11.33877 1.36515,17.02422c0.12848,2.42515 1.62212,4.56121 3.3406,6.02272c-0.0803,0.43364 -0.14455,0.91545 -0.11242,1.41333l-0.0803,2.77848c0.11242,2.2806 -3.83848,10.42332 -2.26454,10.3912l22.88633,-0.73879c1.57394,-0.03212 3.21212,-4.86636 3.09969,-7.1309l1.38121,-11.32271c0,-0.19273 -0.04818,-0.38545 -0.06424,-0.57818c1.52576,-2.10394 2.71424,-5.12333 1.94333,-7.72514" class="st24"/>
     <path stroke="null" id="svg_252" d="m116.29725,184.36818c0,0 -9.12241,-0.11242 -11.11392,4.20787c-2.61788,5.71757 -1.34909,11.48332 -0.46576,15.3218c1.02788,4.46484 1.26879,10.35908 2.77848,16.09271c1.83091,6.98635 -3.51727,13.7318 -2.40909,12.49514c0.22485,-0.25697 8.91362,-0.93151 13.33029,-3.38878c4.43272,-2.44121 1.06,-10.16635 0.49788,-12.73604c-1.26879,-5.78181 2.90697,-17.69876 1.70242,-22.30815c-1.28485,-4.88242 -4.3203,-9.68453 -4.3203,-9.68453" class="st21"/>
     <path stroke="null" id="svg_253" d="m137.51329,193.90816c-0.38545,-1.76666 -1.52576,-3.62969 -3.11575,-5.9103c-1.28485,-1.86303 -5.95848,-3.9509 -5.20363,-3.77424c0.11242,0.03212 5.15545,2.21636 4.72181,18.95149c-0.0803,2.85878 -2.02363,9.63635 -3.01939,14.08513c-0.9797,4.44878 -1.99151,12.68786 -1.99151,12.68786s4.70575,1.02788 4.91454,1.73454c0.20879,0.70667 -1.1403,-6.00666 0.43364,-12.28635c3.83848,-15.08089 4.97878,-17.66664 3.2603,-25.48815" class="st21"/>
     <g stroke="null" id="garm2">
      <path stroke="null" id="svg_254" d="m105.90606,195.00028c-0.11242,-1.89515 0.94757,-6.87393 4.73787,-6.24757c16.57452,2.71424 47.65176,12.44695 47.65176,12.44695s2.08788,3.43697 -1.02788,4.70575c-3.91878,1.60606 -15.81968,3.64575 -42.48025,-1.33303c-7.69302,-1.44545 -8.67272,-6.35999 -8.8815,-9.57211" class="st56"/>
      <path stroke="null" id="svg_255" d="m172.86264,199.78634c0,0 7.75726,-1.06 8.46393,-1.36515c0.69061,-0.28909 0.83515,-0.85121 1.97545,-2.07182c1.1403,-1.2206 1.41333,-1.38121 2.36091,-2.29666c0.96364,-0.91545 1.09212,-0.99576 1.09212,-0.99576s0.43364,0.6103 0.14455,1.04394c-0.25697,0.40151 -1.07606,1.17242 -1.28485,1.50969c-0.20879,0.35333 0.69061,-0.62636 2.37697,-1.65424c1.68636,-1.01182 3.46909,-1.79879 4.25606,-2.08788c0.49788,-0.19273 0.57818,-0.20879 0.59424,-0.17667c0.14455,0.19273 0.25697,0.38545 0.0803,0.56212c-0.14455,0.16061 -0.78697,0.54606 -0.72273,0.54606c0.22485,0 1.39727,-0.35333 1.59,-0.43364c0.19273,-0.0803 0.46576,-0.20879 0.64242,-0.25697c0.36939,-0.09636 0.49788,0.35333 0.0803,0.85121c0,0.01606 0.06424,0.33727 -0.06424,0.49788c-0.04818,0.0803 -0.09636,0.14455 -0.16061,0.22485c-0.06424,0.0803 -0.17667,0.16061 -0.25697,0.25697c-0.28909,0.32121 -0.59424,0.6103 -0.91545,0.88333c-0.12848,0.11242 -1.38121,0.86727 -1.33303,0.94757c0,0.01606 1.07606,-0.46576 1.12424,-0.38545c0.0803,0.19273 0.04818,0.51394 -0.12848,0.62636c-0.32121,0.19273 -0.80303,0.48182 -2.15212,1.2206c-1.49363,0.81909 -1.87909,0.88333 -3.50121,2.36091c-1.39727,1.30091 -2.07182,1.39727 -3.51727,1.42939c-4.96272,0.14455 -12.81635,3.54939 -14.27786,3.61363c-1.42939,0.09636 3.53333,-4.8503 3.53333,-4.8503" class="st41"/>
      <path stroke="null" id="svg_256" d="m173.72991,205.45572c1.09212,-3.01939 -0.01606,-4.60939 -0.65848,-7.48423c-7.08272,-0.0803 -17.85937,0.24091 -25.2633,0.75485c-2.76242,0.19273 -7.64484,5.23575 -7.16302,7.01848c0.81909,3.01939 13.53907,2.18424 19.12816,1.7506c5.10727,-0.41758 10.50362,-0.30515 13.95665,-2.03969" class="st56"/>
     </g>
    </g>
   </g>
   <g stroke="null" id="mike">
    <path stroke="null" id="svg_257" d="m171.54567,170.79698c-4.59333,1.70242 -9.20272,3.40484 -13.8121,5.10727c-14.22968,-12.33453 -21.15179,-31.07723 -18.37331,-49.69145c4.59333,-1.70242 9.20272,-3.40484 13.8121,-5.10727c6.11908,16.55846 12.25423,33.13299 18.37331,49.69145" class="st8"/>
    <path stroke="null" id="svg_258" d="m163.7884,149.82186c-3.54939,-9.57211 -7.08272,-19.14422 -10.61605,-28.73239c-4.60939,1.70242 -9.20272,3.40484 -13.8121,5.10727c-1.60606,10.71241 0.03212,21.473 4.4006,31.02905c6.6812,-2.47333 13.34635,-4.9306 20.02755,-7.40393" class="st58"/>
    <path stroke="null" id="svg_259" d="m261.17979,217.29238c0.64242,1.02788 0.32121,2.37697 -0.69061,3.01939l-31.51087,19.70634c-1.02788,0.64242 -2.37697,0.33727 -3.01939,-0.69061l-33.22935,-53.12842c-0.64242,-1.02788 -0.32121,-2.37697 0.69061,-3.01939l31.51087,-19.70634c1.02788,-0.64242 2.37697,-0.33727 3.01939,0.69061l33.22935,53.12842z" class="st58"/>
    <path stroke="null" id="svg_260" d="m261.17979,217.29238l-33.22935,-53.12842c-0.64242,-1.02788 -1.99151,-1.33303 -3.01939,-0.69061l-31.51087,19.70634c-0.85121,0.53 -1.17242,1.54182 -0.89939,2.45727l25.61663,-16.0124c1.01182,-0.64242 2.36091,-0.32121 3.01939,0.69061l33.22935,53.12842c0.11242,0.17667 0.14455,0.36939 0.20879,0.56212l5.9103,-3.69393c0.99576,-0.64242 1.31697,-1.99151 0.67454,-3.01939" class="st59"/>
    <path stroke="null" id="svg_261" d="m202.10896,184.52878c-0.64242,-1.02788 -0.33727,-2.37697 0.69061,-3.00333l25.8736,-16.18907l-0.73879,-1.17242c-0.64242,-1.02788 -1.99151,-1.33303 -3.01939,-0.69061l-31.51087,19.69028c-1.02788,0.64242 -1.33303,1.99151 -0.69061,3.01939l33.22935,53.12842c0.64242,1.02788 1.99151,1.33303 3.01939,0.69061l5.63727,-3.51727l-32.49056,-51.95599z" class="st8"/>
    <path stroke="null" id="svg_262" d="m247.75314,140.29793c1.94333,2.03969 1.86303,5.28393 -0.17667,7.22726l-46.94509,44.55206c-2.03969,1.94333 -5.28393,1.86303 -7.22726,-0.19273l-21.69785,-22.85421c-1.94333,-2.05575 -1.86303,-5.28393 0.17667,-7.22726l46.96115,-44.56812c2.03969,-1.94333 5.28393,-1.86303 7.22726,0.19273l21.68179,22.87027z" class="st8"/>
    <path stroke="null" id="svg_263" d="m182.8202,171.53577c-5.33211,1.97545 -10.66423,3.93484 -15.98028,5.9103c-16.4621,-14.2618 -24.47633,-35.97571 -21.26421,-57.51295c5.33211,-1.97545 10.64817,-3.93484 15.98028,-5.9103c7.08272,19.17634 14.16544,38.33662 21.26421,57.51295" class="st34"/>
    <path stroke="null" id="svg_264" d="m180.7002,176.85182c-2.50545,0.91545 -5.0109,1.84697 -7.51635,2.77848c-12.15786,-18.69452 -21.29634,-43.3957 -24.21936,-65.51113c2.50545,-0.91545 5.0109,-1.84697 7.51635,-2.77848c8.06241,21.8424 16.14089,43.68479 24.21936,65.51113" class="st60"/>
    <path stroke="null" id="svg_265" d="m248.20284,151.90973c-2.50545,0.93151 -67.72749,25.03845 -70.23294,25.95391c-12.15786,-18.69452 -21.29634,-43.3957 -24.21936,-65.51113c2.50545,-0.93151 67.72749,-25.03845 70.23294,-25.95391c8.06241,21.8424 16.14089,43.66873 24.21936,65.51113" class="st34"/>
    <path stroke="null" id="svg_266" d="m223.53378,86.55921c-0.19273,0.06424 -0.43364,0.16061 -0.72273,0.25697c-0.67454,0.25697 -1.62212,0.6103 -2.79454,1.02788c-0.41758,0.16061 -0.85121,0.30515 -1.31697,0.48182c-0.78697,0.28909 -1.63818,0.6103 -2.56969,0.94757c-0.48182,0.17667 -0.96364,0.35333 -1.47757,0.54606c-1.07606,0.40151 -2.2003,0.81909 -3.4209,1.26879c-2.15212,0.80303 -4.4809,1.65424 -6.97029,2.56969c-1.62212,0.6103 -3.30848,1.2206 -5.02696,1.86303c-7.43605,2.74636 -15.53059,5.73363 -22.82209,8.43181c-2.66606,0.99576 -5.21969,1.92727 -7.59666,2.8106c-1.17242,0.43364 -2.31272,0.85121 -3.38878,1.25273c-6.50454,2.39303 -11.04968,4.07939 -11.67605,4.30424c2.18424,16.62271 7.90181,34.70692 15.77149,50.6069l72.81869,-26.91754c-6.11908,-16.5424 -12.23817,-33.08481 -18.35725,-49.64327c-0.0803,0.06424 -0.24091,0.11242 -0.4497,0.19273" class="st60"/>
    <path stroke="null" id="svg_267" d="m244.39648,180.91515l-12.76817,-13.57119l-4.22393,2.85878c-1.17242,0.78697 -1.47757,2.37697 -0.67454,3.54939l11.0818,16.36574l6.48848,-6.11908c0.86727,-0.83515 0.91545,-2.21636 0.09636,-3.08363" class="st34"/>
    <path stroke="null" id="svg_268" d="m231.61226,167.34396l-1.38121,0.93151c-0.38545,0.78697 -0.38545,1.7506 0.14455,2.53757l10.87302,16.06058l3.03545,-2.85878c0.88333,-0.83515 0.91545,-2.21636 0.09636,-3.08363l-12.76817,-13.58725z" class="st60"/>
    <path stroke="null" id="svg_269" d="m336.05424,82.2068c-9.17059,-24.8136 -20.10785,-47.68388 -32.02481,-67.92021c-13.84422,26.74087 -46.83267,54.76659 -90.69412,75.48475l0.04818,0.16061c-0.6103,1.71848 1.86303,17.0724 8.31938,34.56238c6.47242,17.50604 14.58301,30.75602 16.15695,31.67147l0.04818,0.11242c0.06424,-0.01606 0.11242,-0.03212 0.16061,-0.04818l0,0l0,0c46.7363,-12.7521 89.93928,-12.91271 117.80439,-1.62212c-4.06333,-23.11118 -10.64817,-47.58751 -19.81876,-72.40112" class="st58"/>
    <path stroke="null" id="svg_270" d="m334.49636,78.09529c-1.54182,-4.06333 -3.13181,-8.06241 -4.75393,-12.01332c-5.26787,-11.85271 -11.80453,-22.64542 -19.25664,-32.13723c-17.04028,19.28876 -52.0363,42.15904 -96.52412,62.37931c1.07606,6.40817 3.58151,16.81543 7.77332,28.15421c1.86303,5.02696 3.85454,9.68453 5.78181,13.8121c47.45903,-15.11301 89.55382,-21.68179 115.41136,-18.59816c-0.78697,-13.60332 -3.56545,-27.64027 -8.43181,-41.59692" class="st59"/>
    <path stroke="null" id="svg_271" d="m305.74792,92.63011c14.55089,39.38055 37.59783,67.14931 51.47417,62.00992c13.87635,-5.12333 13.31422,-41.1954 -1.23667,-80.57595c-14.55089,-39.38055 -37.59783,-67.14931 -51.47417,-62.02598c-13.87635,5.12333 -13.31422,41.21146 1.23667,80.59202" class="st60"/>
    <path stroke="null" id="svg_272" d="m312.28457,90.20497c14.55089,39.38055 36.45753,67.56688 48.90448,62.97355c12.44695,-4.60939 10.74453,-40.26389 -3.80636,-79.62838c-14.55089,-39.38055 -36.44147,-67.56688 -48.90448,-62.97355c-12.46301,4.59333 -10.76059,40.24783 3.80636,79.62838" class="st34"/>
    <path stroke="null" id="svg_273" d="m312.927,89.96406c14.13331,38.24025 35.39753,65.60749 47.47509,61.14265c12.09362,-4.46484 10.43938,-39.0754 -3.69393,-77.31566c-14.13331,-38.24025 -35.39753,-65.62355 -47.47509,-61.14265c-12.09362,4.46484 -10.43938,39.0754 3.69393,77.31566" class="st8"/>
    <path stroke="null" id="svg_274" d="m320.41123,61.79379l-15.00059,3.66181c1.89515,7.80544 4.4006,16.07665 7.51635,24.52451c3.35666,9.05817 7.09878,17.50604 11.03362,25.07057l13.58725,-6.88999c1.49363,-0.54606 2.15212,-2.47333 1.47757,-4.30424l-14.67937,-39.73389c-0.67454,-1.84697 -2.44121,-2.87484 -3.93484,-2.32878" class="st61"/>
    <path stroke="null" id="svg_275" d="m335.0103,82.8974c4.62545,12.49514 6.0709,23.48058 3.22818,24.52451c-2.82666,1.04394 -8.8815,-8.23908 -13.50695,-20.73422c-4.60939,-12.5112 -6.05484,-23.48058 -3.22818,-24.52451c2.85878,-1.04394 8.89756,8.23908 13.50695,20.73422" class="st8"/>
    <path stroke="null" id="svg_276" d="m334.91394,82.62437c4.4809,12.10968 6.05484,22.69361 3.53333,23.62512c-2.52151,0.93151 -8.1909,-8.12666 -12.6718,-20.2524c-4.4809,-12.12574 -6.05484,-22.69361 -3.53333,-23.62512c2.52151,-0.93151 8.1909,8.14272 12.6718,20.2524" class="st58"/>
    <path stroke="null" id="svg_277" d="m333.7897,83.04195c3.37272,9.12241 4.81818,16.9921 3.22818,17.58634c-1.59,0.59424 -5.6212,-6.32787 -8.99393,-15.46634c-3.37272,-9.12241 -4.81818,-16.9921 -3.22818,-17.57028c1.59,-0.59424 5.6212,6.32787 8.99393,15.45028" class="st61"/>
   </g>
  </g>
 </g>
</svg>