<?xml version="1.0" encoding="utf-8"?>
<!-- Generator: Adobe Illustrator 16.0.0, SVG Export Plug-In . SVG Version: 6.00 Build 0)  -->
<!DOCTYPE svg PUBLIC "-//W3C//DTD SVG 1.1//EN" "http://www.w3.org/Graphics/SVG/1.1/DTD/svg11.dtd">
<svg version="1.1" id="Layer_1" xmlns="http://www.w3.org/2000/svg" xmlns:xlink="http://www.w3.org/1999/xlink" x="0px" y="0px"
	 width="371px" height="533px" viewBox="0 0 371 533" enable-background="new 0 0 371 533" xml:space="preserve">
<g>
	<g>
		<g>
			<g enable-background="new    ">
				<g>
					<defs>
						<path id="SVGID_1_" d="M27.834,401.598l0.454,29.662c0.314,20.634,14.137,41.071,41.423,56.478
							c54.929,31.012,143.639,29.907,198.136-2.468c27.426-16.294,40.963-37.4,40.643-58.305l-0.455-29.662
							c0.322,20.9-13.216,42.01-40.643,58.304c-54.494,32.376-143.208,33.48-198.136,2.469
							C41.97,442.665,28.151,422.23,27.834,401.598z"/>
					</defs>
					<use xlink:href="#SVGID_1_"  overflow="visible" fill="#D9D9D8"/>
					<clipPath id="SVGID_2_">
						<use xlink:href="#SVGID_1_"  overflow="visible"/>
					</clipPath>
					<g clip-path="url(#SVGID_2_)" enable-background="new    ">
						<path fill="#D9D9D8" d="M27.834,401.598l0.454,29.662c0.077,4.907,0.914,9.807,2.518,14.629l-0.451-29.666
							C28.751,411.404,27.91,406.505,27.834,401.598L27.834,401.598z"/>
						<path fill="#D9D9D8" d="M30.354,416.223l0.451,29.666c3.763,11.315,11.733,22.21,23.902,31.846l-0.451-29.664
							C42.084,438.435,34.118,427.539,30.354,416.223L30.354,416.223z"/>
						<path fill="#D9D9D8" d="M54.257,448.07l0.451,29.664c4.442,3.515,9.444,6.863,15.003,10.003
							c8.652,4.883,18.137,8.97,28.196,12.263l-0.455-29.663c-10.059-3.292-19.544-7.382-28.196-12.262
							C63.698,454.936,58.695,451.585,54.257,448.07L54.257,448.07z"/>
						<path fill="#D9D9D8" d="M97.453,470.337L97.907,500c17.945,5.878,37.71,9.229,57.788,10.078l-0.452-29.665
							C135.163,479.567,115.398,476.212,97.453,470.337L97.453,470.337z"/>
						<path fill="#D9D9D8" d="M155.243,480.413l0.452,29.665c15.192,0.64,30.564-0.152,45.461-2.372l-0.451-29.663
							C185.805,480.262,170.434,481.055,155.243,480.413L155.243,480.413z"/>
						<path fill="#D9D9D8" d="M200.705,478.043l0.451,29.663c24.471-3.645,47.665-11.134,66.691-22.437
							c27.426-16.294,40.963-37.4,40.643-58.305l-0.455-29.662c0.322,20.9-13.216,42.01-40.643,58.304
							C248.37,466.91,225.176,474.399,200.705,478.043L200.705,478.043z"/>
					</g>
				</g>
				<g>
					<path fill="#F7F8F9" d="M68.473,343.297c-54.495,32.375-54.143,83.763,0.784,114.778
						c54.928,31.012,143.642,29.907,198.136-2.469c54.502-32.378,54.154-83.766-0.775-114.778
						C211.688,309.813,122.978,310.919,68.473,343.297z"/>
				</g>
			</g>
		</g>
	</g>
	<g id="telescope_1_">
		<g>
			<g>
				
					<rect x="73.981" y="367.01" transform="matrix(0.8461 0.533 -0.533 0.8461 215.796 -9.9353)" fill="#12191B" width="102.249" height="3.543"/>
			</g>
			<g>
				
					<rect x="210.701" y="316.16" transform="matrix(0.5329 0.8461 -0.8461 0.5329 410.8516 -7.7789)" fill="#12191B" width="3.542" height="104.229"/>
			</g>
			<g>
				<rect x="83.951" y="339.896" fill="#12191B" width="171.293" height="3.543"/>
			</g>
		</g>
		<g>
			<g>
				<path fill="#12191B" d="M50.712,403.9c-1.208,0-2.429-0.324-3.532-1.004c-3.17-1.954-4.156-6.108-2.203-9.279l8.546-14.304
					c1.954-3.17,6.109-4.157,9.28-2.203c3.17,1.954,4.156,6.108,2.202,9.279l-8.547,14.304
					C55.185,402.762,52.974,403.9,50.712,403.9z"/>
			</g>
		</g>
		<g>
			<g>
				<path fill="#12191B" d="M285.563,403.9c1.207,0,2.429-0.324,3.531-1.004c3.172-1.954,4.158-6.108,2.204-9.279l-8.548-14.304
					c-1.954-3.17-6.108-4.157-9.279-2.203c-3.17,1.954-4.156,6.108-2.202,9.279l8.546,14.304
					C281.09,402.762,283.299,403.9,285.563,403.9z"/>
			</g>
		</g>
		<g>
			<g>
				<g>
					<path fill="#252A32" d="M278.418,391.725c-1.856,0-3.668-0.934-4.713-2.63L164.746,212.293c-1.604-2.6-0.794-6.007,1.807-7.609
						c2.6-1.603,6.006-0.794,7.609,1.807l108.959,176.802c1.602,2.601,0.793,6.007-1.807,7.609
						C280.41,391.459,279.407,391.725,278.418,391.725z"/>
				</g>
			</g>
			<g>
				<g>
					<path fill="#252A32" d="M59.329,388.863c-0.989,0-1.992-0.266-2.896-0.822c-2.6-1.604-3.409-5.01-1.806-7.61l68.845-111.711
						c1.603-2.6,5.009-3.408,7.609-1.807c2.6,1.603,3.409,5.01,1.807,7.609L64.042,386.234
						C62.997,387.93,61.185,388.863,59.329,388.863z"/>
				</g>
			</g>
			<g>
				<g>
					<path fill="#A5AAC2" d="M238.308,329.953c-2.97,0-5.869-1.494-7.541-4.207l-68.846-111.712
						c-2.563-4.16-1.269-9.611,2.89-12.175c4.162-2.565,9.613-1.271,12.176,2.89l68.846,111.712c2.564,4.16,1.27,9.611-2.891,12.175
						C241.495,329.528,239.891,329.953,238.308,329.953z"/>
				</g>
			</g>
			<g>
				<g>
					<path fill="#12191B" d="M210.745,123.579L187.6,86.023c-1.553-2.521-4.855-3.306-7.377-1.752
						c-2.521,1.554-3.305,4.856-1.75,7.377l19.678,31.931H210.745z"/>
				</g>
			</g>
			<g>
				<g>
					<path fill="#12191B" d="M193.609,138.927l-23.145-37.558c-1.555-2.521-4.856-3.306-7.378-1.751
						c-2.521,1.554-3.304,4.856-1.751,7.377l19.679,31.932H193.609z"/>
				</g>
			</g>
			<g>
				<g>
					<path fill="#A5AAC2" d="M97.859,329.953c-1.583,0-3.187-0.425-4.633-1.317c-4.16-2.563-5.455-8.015-2.891-12.175
						l68.845-111.712c2.563-4.16,8.014-5.453,12.175-2.89c4.16,2.563,5.455,8.015,2.891,12.175l-68.845,111.712
						C103.729,328.458,100.829,329.953,97.859,329.953z"/>
				</g>
			</g>
			<g>
				<g>
					<path fill="#252A32" d="M168.084,449.849c-3.055,0-5.531-2.476-5.531-5.529V288.626c0-3.054,2.477-5.53,5.531-5.53
						c3.054,0,5.529,2.477,5.529,5.53v155.693C173.613,447.373,171.138,449.849,168.084,449.849z"/>
				</g>
			</g>
			<g>
				<g>
					<path fill="#C1C8DB" d="M168.084,371.708c-4.887,0-8.849-3.961-8.849-8.848V207.167c0-4.887,3.962-8.848,8.849-8.848
						s8.848,3.961,8.848,8.848V362.86C176.932,367.747,172.971,371.708,168.084,371.708z"/>
				</g>
			</g>
		</g>
		<g>
			<g enable-background="new    ">
				<g>
					<g>
						<polygon fill="#252A32" points="195.57,203.872 195.549,211.813 170.729,226.237 170.752,218.295 						"/>
					</g>
				</g>
				<g>
					<g>
						<polygon fill="#12191B" points="170.752,218.295 170.729,226.237 141.219,209.199 141.242,201.259 						"/>
					</g>
				</g>
				<g>
					<g>
						<polygon fill="#38414B" points="195.57,203.872 170.752,218.295 141.242,201.259 166.062,186.835 						"/>
					</g>
				</g>
			</g>
		</g>
		<g>
			<g enable-background="new    ">
				<g>
					<g>
						<polygon fill="#232930" points="137.336,180.345 157.936,168.373 170.119,168.76 149.518,180.731 						"/>
					</g>
				</g>
				<g>
					<g>
						<polygon fill="#2B323A" points="169.116,205.224 189.717,193.252 189.686,204.148 169.085,216.12 						"/>
					</g>
				</g>
				<g>
					<g>
						<polygon fill="#38404A" points="149.518,180.731 170.119,168.76 189.717,193.252 169.116,205.224 						"/>
					</g>
				</g>
				<g>
					<g>
						<polygon fill="#1E2228" points="149.518,180.731 169.116,205.224 169.085,216.12 149.45,204.783 137.336,180.345 						"/>
					</g>
				</g>
			</g>
		</g>
		<g>
			<g enable-background="new    ">
				<g enable-background="new    ">
					<defs>
						<path id="SVGID_3_" enable-background="new    " d="M173.023,166.917l-123.239,86.6c-5.534,3.889-13.833,2.277-19.326-4.042
							c-5.949-6.842-6.35-16.616-0.896-21.827c0.419-0.4,0.861-0.763,1.321-1.086l123.239-86.599
							c-0.46,0.322-0.902,0.685-1.322,1.086c-5.454,5.21-5.053,14.984,0.895,21.827
							C159.191,169.195,167.489,170.807,173.023,166.917z"/>
					</defs>
					<use xlink:href="#SVGID_3_"  overflow="visible" fill="#252A32"/>
					<clipPath id="SVGID_4_">
						<use xlink:href="#SVGID_3_"  overflow="visible"/>
					</clipPath>
					<g clip-path="url(#SVGID_4_)" enable-background="new    ">
						<g>
							<path fill="#252A32" d="M173.023,166.917l-123.239,86.6c-5.534,3.889-13.833,2.277-19.326-4.042
								c-5.949-6.842-6.35-16.616-0.896-21.827c0.419-0.4,0.861-0.763,1.321-1.086l123.239-86.599
								c-0.46,0.322-0.902,0.685-1.322,1.086c-5.454,5.21-5.053,14.984,0.895,21.827
								C159.191,169.195,167.489,170.807,173.023,166.917L173.023,166.917z"/>
						</g>
					</g>
				</g>
				<g>
					<g>
						<path fill="#252A32" d="M173.45,144.003c5.951,6.846,6.349,16.617,0.896,21.827c-5.455,5.212-14.697,3.892-20.649-2.954
							c-5.948-6.843-6.349-16.617-0.895-21.827C158.256,135.838,167.502,137.161,173.45,144.003z"/>
					</g>
				</g>
			</g>
		</g>
		<g>
			<g enable-background="new    ">
				<g enable-background="new    ">
					<defs>
						<path id="SVGID_5_" enable-background="new    " d="M37.843,187.256l17.415,24.365c1.348,1.885-0.305,5.583-4.089,8.778
							c-4.223,3.564-9.498,5.152-11.785,3.551c-0.237-0.165-0.432-0.358-0.588-0.576L21.38,199.009
							c0.155,0.218,0.351,0.411,0.587,0.576c2.287,1.602,7.563,0.014,11.785-3.551C37.539,192.838,39.19,189.141,37.843,187.256z"/>
					</defs>
					<use xlink:href="#SVGID_5_"  overflow="visible" fill="#12191B"/>
					<clipPath id="SVGID_6_">
						<use xlink:href="#SVGID_5_"  overflow="visible"/>
					</clipPath>
					<g clip-path="url(#SVGID_6_)" enable-background="new    ">
						<g>
							<path fill="#12191B" d="M37.843,187.256l17.415,24.365c0.085,0.117,0.158,0.243,0.219,0.375l-17.415-24.365
								C38,187.499,37.927,187.373,37.843,187.256L37.843,187.256z"/>
						</g>
						<g>
							<path fill="#12191B" d="M38.062,187.631l17.415,24.365c0.314,0.677,0.323,1.524,0.056,2.467l-17.415-24.364
								C38.383,189.155,38.374,188.307,38.062,187.631L38.062,187.631z"/>
						</g>
						<g>
							<path fill="#12191B" d="M38.118,190.099l17.415,24.364c-0.497,1.761-1.952,3.853-4.18,5.778l-17.415-24.365
								C36.165,193.95,37.62,191.858,38.118,190.099L38.118,190.099z"/>
						</g>
						<g>
							<path fill="#12191B" d="M33.938,195.876l17.415,24.365c-1.309,1.107-2.508,1.916-3.705,2.563l-17.416-24.366
								c1.198-0.645,2.396-1.455,3.521-2.403C33.938,195.876,33.938,195.876,33.938,195.876z"/>
						</g>
						<g>
							<path fill="#12191B" d="M30.232,198.438l17.416,24.366c-3.3,1.779-6.587,2.321-8.265,1.146
								c-0.237-0.165-0.432-0.358-0.588-0.576L21.38,199.009c0.155,0.218,0.351,0.411,0.587,0.576
								C23.646,200.76,26.933,200.218,30.232,198.438L30.232,198.438z"/>
						</g>
					</g>
				</g>
				<g>
					<g>
						<path fill="#38414B" d="M37.256,186.68c2.287,1.602,0.719,5.79-3.503,9.354c-4.222,3.564-9.498,5.152-11.785,3.551
							c-2.286-1.602-0.72-5.787,3.502-9.351C29.691,186.67,34.969,185.078,37.256,186.68z"/>
					</g>
					<g>
						<path fill="#252A32" d="M24.333,199.196c-0.756,0-1.373-0.151-1.786-0.44c-0.39-0.273-0.592-0.67-0.617-1.212
							c-0.06-1.333,1.002-3.845,4.191-6.536c2.835-2.393,6.278-3.939,8.772-3.939c0.754,0,1.371,0.151,1.782,0.439
							c0.391,0.273,0.593,0.671,0.617,1.214c0.079,1.755-1.566,4.322-4.193,6.539C30.267,197.652,26.826,199.196,24.333,199.196z"/>
					</g>
				</g>
			</g>
		</g>
		<g>
			<g enable-background="new    ">
				<g enable-background="new    ">
					<defs>
						<path id="SVGID_7_" enable-background="new    " d="M224.109,141.063l-123.238,86.599c-7.828,5.501-19.566,3.22-27.332-5.715
							c-8.413-9.677-8.979-23.499-1.265-30.869c0.593-0.566,1.217-1.078,1.869-1.536l123.239-86.599
							c-0.651,0.457-1.276,0.969-1.87,1.536c-7.714,7.369-7.147,21.191,1.266,30.868
							C204.543,144.282,216.283,146.563,224.109,141.063z"/>
					</defs>
					<use xlink:href="#SVGID_7_"  overflow="visible" fill="#A5AAC2"/>
					<clipPath id="SVGID_8_">
						<use xlink:href="#SVGID_7_"  overflow="visible"/>
					</clipPath>
					<g clip-path="url(#SVGID_8_)" enable-background="new    ">
						<g>
							<path fill="#A5AAC2" d="M224.109,141.063l-123.238,86.599c-7.828,5.501-19.566,3.22-27.332-5.715
								c-8.413-9.677-8.979-23.499-1.265-30.869c0.593-0.566,1.217-1.078,1.869-1.536l123.239-86.599
								c-0.651,0.457-1.276,0.969-1.87,1.536c-7.714,7.369-7.147,21.191,1.266,30.868
								C204.543,144.282,216.283,146.563,224.109,141.063L224.109,141.063z"/>
						</g>
					</g>
				</g>
				<g>
					<g>
						<path fill="#A5AAC2" d="M224.713,108.657c8.414,9.678,8.98,23.498,1.266,30.869c-7.714,7.37-20.787,5.499-29.201-4.18
							c-8.413-9.677-8.979-23.499-1.266-30.868C203.227,97.108,216.301,98.979,224.713,108.657z"/>
					</g>
				</g>
			</g>
		</g>
		<g>
			<path fill="#12191B" d="M180.341,171.364l-31.812,22.979c-7.828,5.5-19.067,2.392-26.834-6.544
				c-0.987-1.139-1.873-2.333-2.642-3.563l37.759-26.924c0.996,1.923,2.24,3.774,3.738,5.495c2.187,2.515,4.681,4.499,7.322,5.936
				c0.587,0.319,1.18,0.612,1.775,0.876c0.896,0.395,1.802,0.729,2.718,1.001c0.607,0.183,1.22,0.334,1.827,0.461
				c1.831,0.375,3.662,0.496,5.444,0.354C179.875,171.415,180.107,171.39,180.341,171.364z"/>
		</g>
		<g>
			<path fill="#252A32" d="M181.883,171.364l-31.311,22.152c-7.829,5.5-19.567,3.218-27.335-5.718
				c-0.986-1.139-1.872-2.333-2.641-3.563l37.759-26.924c0.997,1.923,2.241,3.774,3.739,5.495c2.186,2.515,4.68,4.499,7.322,5.936
				c0.586,0.319,1.178,0.612,1.775,0.876c0.896,0.395,1.801,0.729,2.717,1.001c0.607,0.183,1.22,0.334,1.826,0.461
				c1.832,0.375,3.664,0.496,5.445,0.354C181.418,171.415,181.65,171.39,181.883,171.364z"/>
		</g>
		<g>
			<g enable-background="new    ">
				<g enable-background="new    ">
					<defs>
						<path id="SVGID_9_" enable-background="new    " d="M311.316,87.651l-123.238,86.6c-9.635,6.77-24.082,3.964-33.644-7.035
							c-10.356-11.913-11.05-28.923-1.556-37.994c0.73-0.698,1.499-1.328,2.302-1.892l123.239-86.6
							c-0.803,0.563-1.572,1.193-2.302,1.892c-9.495,9.071-8.801,26.082,1.556,37.994C287.234,91.616,301.682,94.422,311.316,87.651
							z"/>
					</defs>
					<use xlink:href="#SVGID_9_"  overflow="visible" fill="#C1C8DB"/>
					<clipPath id="SVGID_10_">
						<use xlink:href="#SVGID_9_"  overflow="visible"/>
					</clipPath>
					<g clip-path="url(#SVGID_10_)" enable-background="new    ">
						<g>
							<path fill="#D8DFE9" d="M311.316,87.651l-123.238,86.6c-9.635,6.77-24.082,3.964-33.644-7.035
								c-10.356-11.913-11.05-28.923-1.556-37.994c0.73-0.698,1.499-1.328,2.302-1.892l123.239-86.6
								c-0.803,0.563-1.572,1.193-2.302,1.892c-9.495,9.071-8.801,26.082,1.556,37.994
								C287.234,91.616,301.682,94.422,311.316,87.651L311.316,87.651z"/>
						</g>
					</g>
				</g>
				<g>
					<g>
						<path fill="#C1C8DB" d="M312.059,47.763c10.359,11.916,11.054,28.926,1.559,37.997c-9.494,9.072-25.586,6.772-35.943-5.144
							c-10.356-11.912-11.051-28.923-1.556-37.994C285.613,33.55,301.705,35.851,312.059,47.763z"/>
					</g>
				</g>
			</g>
		</g>
		<g>
			<g enable-background="new    ">
				<g enable-background="new    ">
					<defs>
						<path id="SVGID_11_" enable-background="new    " d="M335.683,77.335l-17.925,12.596c-11.674,8.202-29.181,4.801-40.764-8.523
							c-12.551-14.438-13.396-35.051-1.891-46.043c0.885-0.845,1.815-1.608,2.787-2.292l17.927-12.596
							c-0.972,0.684-1.903,1.446-2.788,2.292c-11.506,10.991-10.66,31.604,1.891,46.041
							C306.502,82.136,324.009,85.537,335.683,77.335z"/>
					</defs>
					<use xlink:href="#SVGID_11_"  overflow="visible" fill="#252A32"/>
					<clipPath id="SVGID_12_">
						<use xlink:href="#SVGID_11_"  overflow="visible"/>
					</clipPath>
					<g clip-path="url(#SVGID_12_)" enable-background="new    ">
						<g>
							<path fill="#12191B" d="M335.683,77.335l-17.925,12.596c-11.674,8.202-29.181,4.801-40.764-8.523
								c-12.551-14.438-13.396-35.051-1.891-46.043c0.885-0.845,1.815-1.608,2.787-2.292l17.927-12.596
								c-0.972,0.684-1.903,1.446-2.788,2.292c-11.506,10.991-10.66,31.604,1.891,46.041
								C306.502,82.136,324.009,85.537,335.683,77.335L335.683,77.335z"/>
						</g>
					</g>
				</g>
				<g>
					<g>
						<path fill="#38414B" d="M336.583,29.004c12.548,14.435,13.394,35.047,1.888,46.038c-11.505,10.993-31.004,8.203-43.551-6.232
							c-12.551-14.437-13.396-35.05-1.891-46.041C304.533,11.776,324.033,14.566,336.583,29.004z"/>
					</g>
					<g>
						<path fill="#12191B" d="M335.776,72.222c-3.856,3.694-8.891,5.643-14.548,5.643c-2.459,0-4.929-0.359-7.352-1.053
							c-3.734-1.073-7.353-2.936-10.662-5.49c-1.897-1.467-3.693-3.163-5.358-5.065c-11.179-12.868-12.144-31.114-2.136-40.673
							c3.83-3.658,8.81-5.606,14.411-5.637c4.549,0,8.977,1.153,13.116,3.314c3.785,1.968,7.326,4.776,10.398,8.299
							C344.824,44.427,345.785,62.663,335.776,72.222z"/>
					</g>
					<g>
						<path fill="#46B2E6" d="M328.282,71.169c-3.825,3.664-8.8,5.606-14.405,5.643c-3.734-1.073-7.353-2.936-10.662-5.49
							c-1.897-1.467-3.693-3.163-5.358-5.065c-11.179-12.868-12.144-31.114-2.136-40.673c3.83-3.658,8.81-5.606,14.411-5.637
							c1.913,0.551,3.796,1.311,5.622,2.262c3.785,1.969,7.326,4.776,10.398,8.299C337.33,43.374,338.291,61.61,328.282,71.169z"/>
					</g>
				</g>
			</g>
		</g>
		<g>
			<g>
				<g enable-background="new    ">
					<g enable-background="new    ">
						<defs>
							<path id="SVGID_13_" enable-background="new    " d="M188.711,98.049l-32.176,22.869c-2.907,2.043-7.269,1.196-10.153-2.123
								c-3.125-3.596-3.335-8.73-0.47-11.467c0.22-0.211,0.452-0.401,0.694-0.572l32.176-22.868c-0.242,0.17-0.475,0.361-0.694,0.57
								c-2.865,2.738-2.655,7.873,0.471,11.469C181.443,99.245,185.804,100.093,188.711,98.049z"/>
						</defs>
						<use xlink:href="#SVGID_13_"  overflow="visible" fill="#12191B"/>
						<clipPath id="SVGID_14_">
							<use xlink:href="#SVGID_13_"  overflow="visible"/>
						</clipPath>
						<g clip-path="url(#SVGID_14_)" enable-background="new    ">
							<g>
								<path fill="#12191B" d="M188.711,98.049l-32.176,22.869c-2.907,2.043-7.269,1.196-10.153-2.123
									c-3.125-3.596-3.335-8.73-0.47-11.467c0.22-0.211,0.452-0.401,0.694-0.572l32.176-22.868
									c-0.242,0.17-0.475,0.361-0.694,0.57c-2.865,2.738-2.655,7.873,0.471,11.469C181.443,99.245,185.804,100.093,188.711,98.049
									L188.711,98.049z"/>
							</g>
						</g>
					</g>
					<g>
						<g>
							<path fill="#252A32" d="M188.937,86.01c3.125,3.596,3.336,8.731,0.47,11.469c-2.865,2.738-7.723,2.044-10.848-1.552
								c-3.126-3.596-3.336-8.73-0.471-11.469S185.811,82.415,188.937,86.01z"/>
						</g>
					</g>
				</g>
			</g>
			<g>
				<g enable-background="new    ">
					<g enable-background="new    ">
						<defs>
							<path id="SVGID_15_" enable-background="new    " d="M204.541,89.591l-32.177,22.869c-3.579,2.515-8.946,1.473-12.497-2.614
								c-3.848-4.426-4.105-10.744-0.578-14.115c0.271-0.258,0.557-0.493,0.854-0.702l32.176-22.868
								c-0.298,0.209-0.583,0.442-0.854,0.702c-3.527,3.37-3.27,9.689,0.578,14.114C195.595,91.064,200.961,92.105,204.541,89.591z"
								/>
						</defs>
						<use xlink:href="#SVGID_15_"  overflow="visible" fill="#252A32"/>
						<clipPath id="SVGID_16_">
							<use xlink:href="#SVGID_15_"  overflow="visible"/>
						</clipPath>
						<g clip-path="url(#SVGID_16_)" enable-background="new    ">
							<g>
								<path fill="#252A32" d="M204.541,89.591l-32.177,22.869c-3.579,2.515-8.946,1.473-12.497-2.614
									c-3.848-4.426-4.105-10.744-0.578-14.115c0.271-0.258,0.557-0.493,0.854-0.702l32.176-22.868
									c-0.298,0.209-0.583,0.442-0.854,0.702c-3.527,3.37-3.27,9.689,0.578,14.114C195.595,91.064,200.961,92.105,204.541,89.591
									L204.541,89.591z"/>
							</g>
						</g>
					</g>
					<g>
						<g>
							<path fill="#38414B" d="M204.817,74.772c3.848,4.427,4.106,10.746,0.578,14.115c-3.527,3.371-9.505,2.517-13.353-1.911
								c-3.848-4.425-4.105-10.744-0.578-14.114S200.97,70.347,204.817,74.772z"/>
						</g>
						<g>
							<path fill="#12191B" d="M200.107,89.937c-2.639,0-5.3-1.32-7.302-3.624c-3.491-4.016-3.778-9.722-0.642-12.719
								c1.219-1.163,2.805-1.78,4.588-1.78c2.639,0,5.301,1.321,7.301,3.622c3.492,4.018,3.781,9.724,0.644,12.721
								C203.479,89.321,201.892,89.937,200.107,89.937z"/>
						</g>
					</g>
				</g>
			</g>
		</g>
		<g>
			<g enable-background="new    ">
				<g enable-background="new    ">
					<defs>
						<path id="SVGID_17_" enable-background="new    " d="M154.113,209.315l-1.03,0.598c0.202-0.154,1.232-0.754,1.232-0.754
							C154.252,209.222,154.185,209.272,154.113,209.315z"/>
					</defs>
					<use xlink:href="#SVGID_17_"  overflow="visible" fill="#252A32"/>
					<clipPath id="SVGID_18_">
						<use xlink:href="#SVGID_17_"  overflow="visible"/>
					</clipPath>
					<g clip-path="url(#SVGID_18_)" enable-background="new    ">
						<g>
							<path fill="#252A32" d="M153.285,209.759l1.03-0.6c-0.202,0.156-1.232,0.754-1.232,0.754
								C153.285,209.759,153.285,209.759,153.285,209.759z"/>
						</g>
					</g>
				</g>
				<g>
					<g>
						<polygon fill="#252A32" points="153.922,209.119 154.952,208.521 154.314,209.159 153.285,209.759 						"/>
					</g>
				</g>
				<g enable-background="new    ">
					<defs>
						<path id="SVGID_19_" enable-background="new    " d="M147.613,194.233l1.03-0.599c0.382-0.223,0.91-0.176,1.459,0.143
							c0.207,0.119,0.418,0.277,0.625,0.474l-1.03,0.599c-0.207-0.196-0.417-0.355-0.624-0.475
							C148.522,194.059,147.996,194.011,147.613,194.233z"/>
					</defs>
					<use xlink:href="#SVGID_19_"  overflow="visible" fill="#252A32"/>
					<clipPath id="SVGID_20_">
						<use xlink:href="#SVGID_19_"  overflow="visible"/>
					</clipPath>
					<g clip-path="url(#SVGID_20_)" enable-background="new    ">
						<g>
							<path fill="#252A32" d="M147.613,194.233l1.03-0.599c0.257-0.149,0.579-0.178,0.928-0.084l-1.03,0.6
								C148.192,194.056,147.87,194.084,147.613,194.233L147.613,194.233z"/>
						</g>
						<g>
							<path fill="#252A32" d="M148.541,194.15l1.03-0.6c0.172,0.047,0.351,0.121,0.531,0.227c0.16,0.1-0.87,0.698-0.87,0.698
								C148.892,194.271,148.713,194.195,148.541,194.15L148.541,194.15z"/>
						</g>
						<g>
							<path fill="#252A32" d="M149.233,194.476l1.029-0.599c0.155,0.104,0.311,0.229,0.465,0.374l-1.03,0.599
								C149.543,194.704,149.387,194.578,149.233,194.476L149.233,194.476z"/>
						</g>
					</g>
				</g>
				<g>
					<g>
						<polygon fill="#252A32" points="149.697,194.85 150.727,194.251 151.753,195.229 150.723,195.829 						"/>
					</g>
				</g>
				<g enable-background="new    ">
					<defs>
						<path id="SVGID_21_" enable-background="new    " d="M162.539,214.182l-1.03,0.599c0.692-0.401,0.804-1.628,0.212-2.908
							l1.03-0.599C163.342,212.554,163.23,213.78,162.539,214.182z"/>
					</defs>
					<use xlink:href="#SVGID_21_"  overflow="visible" fill="#252A32"/>
					<clipPath id="SVGID_22_">
						<use xlink:href="#SVGID_21_"  overflow="visible"/>
					</clipPath>
					<g clip-path="url(#SVGID_22_)" enable-background="new    ">
						<g>
							<path fill="#252A32" d="M161.721,211.872l1.03-0.599c0.146,0.315,0.248,0.628,0.312,0.925l-1.031,0.599
								C161.971,212.499,161.867,212.188,161.721,211.872L161.721,211.872z"/>
						</g>
						<g>
							<path fill="#252A32" d="M162.031,212.797l1.031-0.599c0.062,0.297,0.084,0.579,0.064,0.836l-1.029,0.599
								C162.115,213.376,162.094,213.094,162.031,212.797L162.031,212.797z"/>
						</g>
						<g>
							<path fill="#252A32" d="M162.098,213.633l1.029-0.599c-0.035,0.527-0.236,0.944-0.588,1.147l-1.03,0.599
								C161.86,214.576,162.063,214.16,162.098,213.633L162.098,213.633z"/>
						</g>
					</g>
				</g>
				<g>
					<g>
						<polygon fill="#252A32" points="161.086,210.497 162.116,209.897 162.751,211.273 161.721,211.872 						"/>
					</g>
				</g>
				<g enable-background="new    ">
					<defs>
						<path id="SVGID_23_" enable-background="new    " d="M151.323,195.373l1.03-0.599c0.702-0.408,1.565-0.534,2.53-0.347
							l-1.03,0.598C152.888,194.839,152.024,194.966,151.323,195.373z"/>
					</defs>
					<use xlink:href="#SVGID_23_"  overflow="visible" fill="#252A32"/>
					<clipPath id="SVGID_24_">
						<use xlink:href="#SVGID_23_"  overflow="visible"/>
					</clipPath>
					<g clip-path="url(#SVGID_24_)" enable-background="new    ">
						<g>
							<path fill="#252A32" d="M151.323,195.373l1.03-0.599c0.702-0.408,1.565-0.534,2.53-0.347l-1.03,0.598
								C152.888,194.839,152.024,194.966,151.323,195.373L151.323,195.373z"/>
						</g>
					</g>
				</g>
				<g enable-background="new    ">
					<defs>
						<path id="SVGID_25_" enable-background="new    " d="M162.289,206.971l1.029-0.599c-0.016,1.562-0.458,2.763-1.202,3.525
							l-1.03,0.6C161.83,209.734,162.273,208.532,162.289,206.971z"/>
					</defs>
					<use xlink:href="#SVGID_25_"  overflow="visible" fill="#252A32"/>
					<clipPath id="SVGID_26_">
						<use xlink:href="#SVGID_25_"  overflow="visible"/>
					</clipPath>
					<g clip-path="url(#SVGID_26_)" enable-background="new    ">
						<g>
							<path fill="#252A32" d="M162.289,206.971l1.029-0.599c-0.001,0.157-0.007,0.312-0.018,0.462l-1.029,0.598
								C162.281,207.281,162.287,207.128,162.289,206.971L162.289,206.971z"/>
						</g>
						<g>
							<path fill="#252A32" d="M162.271,207.432l1.029-0.598c-0.091,1.337-0.516,2.377-1.185,3.063l-1.03,0.6
								C161.754,209.811,162.18,208.771,162.271,207.432L162.271,207.432z"/>
						</g>
					</g>
				</g>
				<g>
					<g>
						<polygon fill="#252A32" points="157.934,196.137 158.964,195.537 158.961,196.781 157.93,197.381 						"/>
					</g>
				</g>
				<g enable-background="new    ">
					<defs>
						<path id="SVGID_27_" enable-background="new    " d="M154.453,192.476l1.03-0.599c0.372-0.216,0.885-0.187,1.447,0.139
							l-1.029,0.599C155.337,192.289,154.824,192.26,154.453,192.476z"/>
					</defs>
					<use xlink:href="#SVGID_27_"  overflow="visible" fill="#252A32"/>
					<clipPath id="SVGID_28_">
						<use xlink:href="#SVGID_27_"  overflow="visible"/>
					</clipPath>
					<g clip-path="url(#SVGID_28_)" enable-background="new    ">
						<g>
							<path fill="#252A32" d="M154.453,192.476l1.03-0.599c0.252-0.146,0.568-0.18,0.92-0.086l-1.029,0.6
								C155.021,192.296,154.705,192.329,154.453,192.476L154.453,192.476z"/>
						</g>
						<g>
							<path fill="#252A32" d="M155.373,192.391l1.029-0.6c0.169,0.045,0.346,0.119,0.527,0.225l-1.029,0.599
								C155.719,192.509,155.541,192.435,155.373,192.391L155.373,192.391z"/>
						</g>
					</g>
				</g>
				<g enable-background="new    ">
					<defs>
						<path id="SVGID_29_" enable-background="new    " d="M157.93,197.381l1.031-0.6c1.258,1.21,2.34,2.756,3.111,4.407
							l-1.029,0.598C160.271,200.135,159.188,198.59,157.93,197.381z"/>
					</defs>
					<use xlink:href="#SVGID_29_"  overflow="visible" fill="#252A32"/>
					<clipPath id="SVGID_30_">
						<use xlink:href="#SVGID_29_"  overflow="visible"/>
					</clipPath>
					<g clip-path="url(#SVGID_30_)" enable-background="new    ">
						<g>
							<path fill="#252A32" d="M157.93,197.381l1.031-0.6c1.258,1.21,2.34,2.756,3.111,4.407l-1.029,0.598
								C160.271,200.135,159.188,198.59,157.93,197.381L157.93,197.381z"/>
						</g>
					</g>
				</g>
				<g>
					<g>
						<polygon fill="#252A32" points="161.043,201.786 162.072,201.188 163.104,201.396 162.072,201.995 						"/>
					</g>
				</g>
				<g enable-background="new    ">
					<defs>
						<path id="SVGID_31_" enable-background="new    " d="M155.9,192.614l1.029-0.599c1.123,0.648,2.037,2.232,2.034,3.521
							l-1.03,0.6C157.938,194.846,157.023,193.263,155.9,192.614z"/>
					</defs>
					<use xlink:href="#SVGID_31_"  overflow="visible" fill="#252A32"/>
					<clipPath id="SVGID_32_">
						<use xlink:href="#SVGID_31_"  overflow="visible"/>
					</clipPath>
					<g clip-path="url(#SVGID_32_)" enable-background="new    ">
						<g>
							<path fill="#252A32" d="M155.9,192.614l1.029-0.599c0.162,0.101-0.867,0.699-0.867,0.699
								C155.9,192.614,155.9,192.614,155.9,192.614z"/>
						</g>
						<g>
							<path fill="#252A32" d="M156.063,192.715l1.029-0.599c0.863,0.577,1.577,1.693,1.8,2.755l-1.03,0.599
								C157.641,194.408,156.925,193.292,156.063,192.715L156.063,192.715z"/>
						</g>
						<g>
							<path fill="#252A32" d="M157.861,195.47l1.03-0.599c0.048,0.227,0.072,0.45,0.072,0.666l-1.03,0.6
								C157.934,195.921,157.909,195.696,157.861,195.47L157.861,195.47z"/>
						</g>
					</g>
				</g>
				<g enable-background="new    ">
					<defs>
						<path id="SVGID_33_" enable-background="new    " d="M165.166,206.474l-1.029,0.6c0.521-0.304,0.743-1.089,0.5-2.091
							c-0.274-1.148-1.078-2.244-1.938-2.74c-0.208-0.119-0.418-0.205-0.626-0.247l1.031-0.6c0.207,0.043,0.418,0.128,0.625,0.247
							c0.86,0.498,1.664,1.593,1.939,2.741C165.91,205.386,165.689,206.171,165.166,206.474z"/>
					</defs>
					<use xlink:href="#SVGID_33_"  overflow="visible" fill="#252A32"/>
					<clipPath id="SVGID_34_">
						<use xlink:href="#SVGID_33_"  overflow="visible"/>
					</clipPath>
					<g clip-path="url(#SVGID_34_)" enable-background="new    ">
						<g>
							<path fill="#252A32" d="M162.072,201.995l1.031-0.6c0.098,0.023-0.933,0.623-0.933,0.623
								C162.072,201.995,162.072,201.995,162.072,201.995z"/>
						</g>
						<g>
							<path fill="#252A32" d="M162.171,202.019l1.03-0.6c0.176,0.048,0.352,0.124,0.527,0.224c0.16,0.101-0.869,0.7-0.869,0.7
								C162.523,202.142,162.347,202.064,162.171,202.019L162.171,202.019z"/>
						</g>
						<g>
							<path fill="#252A32" d="M162.859,202.343l1.029-0.6c0.799,0.534,1.521,1.564,1.779,2.641
								c0.025,0.117-1.004,0.715-1.004,0.715C164.379,203.906,163.658,202.877,162.859,202.343L162.859,202.343z"/>
						</g>
						<g>
							<path fill="#252A32" d="M164.664,205.099l1.029-0.598c0.063,0.299,0.084,0.576,0.066,0.826l-1.029,0.599
								C164.746,205.676,164.727,205.398,164.664,205.099L164.664,205.099z"/>
						</g>
						<g>
							<path fill="#252A32" d="M164.73,205.926l1.029-0.599c-0.037,0.54-0.25,0.948-0.594,1.146l-1.029,0.6
								C164.479,206.874,164.692,206.466,164.73,205.926L164.73,205.926z"/>
						</g>
					</g>
				</g>
				<g>
					<g>
						<path fill="#12191B" d="M155.9,192.614c1.123,0.648,2.037,2.231,2.033,3.522l-0.004,1.244
							c1.259,1.209,2.342,2.754,3.113,4.405l1.029,0.209c0.208,0.042,0.418,0.128,0.626,0.247c0.86,0.496,1.664,1.592,1.938,2.74
							c0.346,1.428-0.249,2.416-1.316,2.196l-1.031-0.208c-0.016,1.562-0.459,2.764-1.203,3.526l0.635,1.375
							c0.656,1.421,0.447,2.775-0.461,3.01c-0.36,0.093-0.781-0.005-1.195-0.245c-0.633-0.364-1.256-1.059-1.651-1.918l-0.632-1.37
							c-0.609-0.131-1.258-0.386-1.932-0.776c-0.672-0.388-1.319-0.879-1.928-1.453l-0.637,0.64c-0.4,0.399-1.025,0.373-1.657,0.008
							c-0.416-0.24-0.834-0.627-1.194-1.136c-0.904-1.28-1.104-2.871-0.442-3.53l0.641-0.64c-0.737-1.617-1.174-3.327-1.18-4.901
							l-1.031-0.981c-1.063-1.012-1.649-2.682-1.298-3.707c0.281-0.827,1.088-0.992,1.949-0.496
							c0.206,0.119,0.417,0.278,0.624,0.475l1.026,0.979c0.781-0.756,1.869-1.048,3.13-0.804l0.003-1.243
							C153.859,192.492,154.78,191.967,155.9,192.614z"/>
					</g>
				</g>
			</g>
		</g>
		<g>
			<g>
				<path fill="#12191B" d="M168.084,463.742c-3.548,0-6.424-2.876-6.424-6.424v-18.161c0-3.548,2.876-6.424,6.424-6.424
					c3.547,0,6.423,2.876,6.423,6.424v18.161C174.507,460.866,171.631,463.742,168.084,463.742z"/>
			</g>
		</g>
	</g>
</g>
</svg>
