<svg width="400" height="400" xmlns="http://www.w3.org/2000/svg">
 <g>
  <title>background</title>

 </g>

 <style type="text/css">.st0 {
			fill: #89c9f6;
		}

		.st1 {
			opacity: 0.4;
		}

		.st2 {
			fill: #FFFFFF;
		}

		.st3 {
			fill: #040A10;
		}

		.st4 {
			fill: #DEE0E2;
		}

		.st5 {
			opacity: 0.1;
		}

		.st6 {
			fill: #003975;
		}

		.st7 {
			fill: #E4E5EA;
		}

		.st8 {
			opacity: 0.15;
		}

		.st9 {
			fill: #1CA79B;
		}

		.st10 {
			opacity: 0.8;
		}

		.st11 {
			opacity: 0.4;
			fill: #FFFFFF;
			enable-background: new;
		}

		.st12 {
			opacity: 0.7;
			fill: #FFFFFF;
			enable-background: new;
		}

		.st13 {
			opacity: 0.7;
		}

		.st14 {
			fill: #0097F8;
		}

		.st15 {
			fill: #FF5A33;
		}

		.st16 {
			fill: #273864;
		}

		.st17 {
			fill: #95C6EB;
		}

		.st18 {
			opacity: 0.5;
		}

		.st19 {
			fill: #ED9766;
		}

		.st20 {
			opacity: 7.000000e-02;
			enable-background: new;
		}

		.st21 {
			fill: #0D2B49;
		}

		.st22 {
			opacity: 0.2;
			enable-background: new;
		}

		.st23 {
			opacity: 7.000000e-02;
		}

		.st24 {
			fill: #081B2A;
		}

		.st25 {
			opacity: 0.1;
			enable-background: new;
		}

		.st26 {
			fill: #2B2B2B;
		}

		.st27 {
			fill: #E7E7E7;
		}

		.st28 {
			opacity: 0.3;
			enable-background: new;
		}

		.st29 {
			fill: #466874;
		}

		.st30 {
			fill: #004F80;
		}

		.st31 {
			fill: #DB855A;
			display: none;
		}

		.st32 {
			fill: #020202;
		}

		.st33 {
			opacity: 0.5;
			fill: #FFFFFF;
			enable-background: new;
		}

		.st34 {
			fill: #A66E4F;
		}

		.st35 {
			fill: #5F7485;
		}

		.st36 {
			fill: #362221;
		}

		.st37 {
			opacity: 0.15;
			enable-background: new;
		}

		.st38 {
			fill: #D9EDFF;
		}

		.st39 {
			display: none;
			fill: #B7866E;
		}

		#mbruone {
			display: none;
			animation: ab11 10s ;
		}

		/* Mady By 
Name:  Freelancer Tajul Rasel
Web and Graphic Desiner. (Map design and coding)
Web: https://freelancertajulrasel.com/nataliafiona
WhatsApp : +8801821010080
Mail: freelancertajulrasel@gmail.com
fiverr: https://fiverr.com/natalia_fiona
 */
		@keyframes ab11 {


			60% {
				transform: translate(0px, 0px);
			}



			65% {
				transform: translate(0px, -3px);
			}

			70% {
				transform: translate(0px, 0px);
			}


		}

		#meyeone&gt;path {
			animation: ab12 10s ;
			display: none;
		}

		@keyframes ab12 {




			60% {
				d: path("M 220.4 135.3 c 0 1.1 -0.9 1.9 -1.9 1.9 c -1.1 0 -1.9 -0.9 -1.9 -1.9 s 0.9 -1.9 1.9 -1.9 c 0.5 0 0.9 0.2 1.3 0.5 C 220.2 134.1 220.4 134.7 220.4 135.3 Z");
			}

			65% {
				d: path("M 220.4 135.3 c 0 1.1 -0.9 1.9 -1.9 1.9 c -1.1 0 -1.9 -0.9 -1.9 -1.9 s 0.9 0.1 1.9 0.1 C 219.6 135.3 220.4 134.2 220.4 135.3 Z");
			}

			70% {
				d: path("M 220.4 135.3 c 0 1.1 -0.9 1.9 -1.9 1.9 c -1.1 0 -1.9 -0.9 -1.9 -1.9 s 0.9 -1.9 1.9 -1.9 c 0.5 0 0.9 0.2 1.3 0.5 C 220.2 134.1 220.4 134.7 220.4 135.3 Z");
			}


		}

		#meyetwo&gt;path {
			animation: ab13 10s ;
			display: none;
		}

		@keyframes ab13 {




			60% {
				d: path("M 231.2 131.8 c 0 1.1 -0.9 1.9 -1.9 1.9 c -1.1 0 -1.9 -0.9 -1.9 -1.9 c 0 -0.7 0.3 -1.3 0.9 -1.6 c 0.3 -0.2 0.7 -0.3 1.1 -0.3 C 230.4 129.9 231.2 130.8 231.2 131.8 Z");
			}

			65% {
				d: path("M 231.2 131.8 c 0 1.1 -0.9 1.9 -1.9 1.9 c -1.1 0 -1.9 -0.9 -1.9 -1.9 s 0.9 0.7 1.9 0.7 C 230.4 132.6 231.2 130.8 231.2 131.8 Z");
			}

			70% {
				d: path("M 231.2 131.8 c 0 1.1 -0.9 1.9 -1.9 1.9 c -1.1 0 -1.9 -0.9 -1.9 -1.9 c 0 -0.7 0.3 -1.3 0.9 -1.6 c 0.3 -0.2 0.7 -0.3 1.1 -0.3 C 230.4 129.9 231.2 130.8 231.2 131.8 Z");
			}


		}

		#mmouthone&gt;path {
			animation: ab14 10s infinite;
			transform-box: fill-box;
			transform-origin: center;
			display: none;
		}

		@keyframes ab14 {


			70% {
				/* d: path("M 221.1 149.1 l 11.5 -1.4 C 230.9 160.1 221.1 149.1 221.1 149.1 Z"); */
				transform: scale(0.5);
			}



			80% {
				/* d: path("M 221 149.2 l 11.4 -1.3 C 231.1 154.2 221 149.2 221 149.2 Z"); */
				transform: scale(1.5);
			}

			90% {
				/* d: path("M 221.1 149.1 l 11.5 -1.4 C 230.9 160.1 221.1 149.1 221.1 149.1 Z"); */
				transform: scale(0.6);
			}

			100% {

				transform: scale(1);
			}

		}

		#menlhand {
			animation: ab15 10s infinite;
			transform-box: fill-box;
			transform-origin: revert;
		}

		@keyframes ab15 {
			0% {
				transform: rotate3d(1, 1, 5,
						10deg);
			}

			30% {
				transform: rotate3d(1, 1, 5,
						10deg);
			}

			36% {
				transform: rotate3d(1, 1, 1,
						0deg);
			}

			40% {
				transform: rotate3d(1, 1, 1,
						0deg);
			}

			48% {
				transform: rotate3d(1, 1, 5,
						10deg);
			}

			50% {
				transform: rotate3d(1, 1, 1,
						0deg);
			}

		}

		#handrm {
			animation: ab16 10s infinite;
			transform-box: fill-box;
			transform-origin: top;
		}

		@keyframes ab16 {


			60% {
				transform: rotate(0deg);
			}

			70% {
				transform: rotate(-10deg);
			}

			80% {
				transform: rotate(0deg);
			}
		}

		.dotone {
			animation: ab17 1s infinite linear;
		}

		.dottwo {
			animation: ab17 2s infinite linear;
		}

		.dotthree {
			animation: ab17 3s infinite linear;
		}

		@keyframes ab17 {
			0% {
				opacity: 0;
			}

			100% {
				opacity: 1;
			}
		}

		#dotsix {
			animation: ab17as 10s infinite linear;
		}

		#linedotani {
			animation: ab17as 10s infinite;
		}

		@keyframes ab17as {
			0% {
				opacity: 0;
			}

			30% {
				opacity: 0;
			}

			32% {
				opacity: 1;
			}

			100% {
				opacity: 1;
			}
		}


		#dotfour,
		#dotthreee,
		#dotfive {
			animation: ab3a9a 10s infinite;

		}

		@keyframes ab3a9a {
			0% {
				opacity: 0;
			}

			40% {
				opacity: 0;
			}

			43% {
				opacity: 1;
			}
		}

		#dotroundopa {
			animation: ab3a9 10s infinite;

		}

		@keyframes ab3a9 {
			0% {
				opacity: 0;
			}

			35% {
				opacity: 0;
			}

			40% {
				opacity: 1;
			}
		}

		#dotround {
			/*animation: ab18 10s linear 4s infinite;*/
			transform-box: fill-box;
			transform-origin: center;
		}

		@keyframes ab18 {
			0% {
				transform: rotate(0turn);
			}

			100% {
				transform: rotate(1turn);
			}
		}

		.settingone {
			animation: ab18 8s linear infinite;
			transform-box: fill-box;
			transform-origin: center;
		}

		.settingtwo {
			animation: ab18 8s linear infinite reverse;
			transform-box: fill-box;
			transform-origin: center;
		}


		#dotplus {
			animation: ab25 3s infinite alternate;
			transform-box: fill-box;
			transform-origin: center;
		}

		@keyframes ab25 {

			0% {}

			50% {
				transform: rotate(90deg);
			}
		}

		#dotmin {
			animation: ab26 3s infinite alternate;
			fill: white;
		}

		@keyframes ab26 {
			0% {}

			50% {
				opacity: 0;
			}
		}

		#whead {
			animation: ab4aa5 10s infinite;
			transform-box: fill-box;
			transform-origin: bottom;
		}

		@keyframes ab4aa5 {

			12% {
				transform: rotate(10deg);
			}

			15% {
				transform: rotate(10deg);
			}

			20% {
				transform: rotate(0deg);
			}

			30% {
				transform: rotate(0deg);
			}


			45% {
				transform: rotate(0deg);
			}



			50% {
				transform: rotate(10deg);
			}

			55% {
				transform: rotate(10deg);
			}

			100% {
				transform: rotate(10deg);
			}

		}

		#whandr {
			animation: ab45 10s infinite;
			transform-box: fill-box;
			transform-origin: top;
		}

		@keyframes ab45 {
			25% {
				transform: rotate(-6deg);
			}

			30% {
				transform: rotate(0deg);
			}

			40% {
				transform: rotate(-6deg);
			}
		}

		#whandl {
			animation: ab27 10s infinite;
			transform-box: fill-box;
			transform-origin: right;
		}

		@keyframes ab27 {
			0% {
				transform: rotate(-10deg);
			}

			15% {
				transform: rotate(-10deg);
			}

			20% {
				transform: rotate(0deg);
			}

			30% {
				transform: rotate(0deg);
			}

			35% {
				transform: rotate(-10deg);
			}

			100% {
				transform: rotate(-10deg);
			}
		}

		#whandl&gt;g {
			animation: ab27a 10s infinite;
			transform-box: fill-box;
			transform-origin: bottom;
		}

		@keyframes ab27a {
			12% {
				transform: rotate(0deg);
			}

			15% {
				transform: rotate(10deg);
			}

			20% {
				transform: rotate(45deg);
			}

			30% {
				transform: rotate(-10deg);
			}


			45% {
				transform: rotate(-10deg);
			}



			50% {
				transform: rotate(45deg);
			}

			55% {
				transform: rotate(-10deg);
			}

			100% {
				transform: rotate(-10deg);
			}
		}

		#wbru {
			animation: ab28 10s infinite;
			display: none;
		}

		@keyframes ab28 {




			25% {
				transform: translate(0px, 0px);
			}

			30% {
				transform: translate(0px, -3px);
			}

			40% {
				transform: translate(0px, 0px);
			}





		}

		#weyetwo&gt;path {
			animation: ab29 10s infinite;
			display: none;
		}

		@keyframes ab29 {
			0% {}



			25% {
				d: path("M 568.4 149.9 c 0 1.1 -0.9 2 -2 2 s -2 -0.9 -2 -2 s 0.9 -2 2 -2 c 0.4 0 0.8 0.1 1.1 0.3 C 568 148.6 568.4 149.2 568.4 149.9 Z");
			}

			30% {
				d: path("M 568.4 150.3 c -0.2 1.1 -1.3 1.8 -2.4 1.6 s -1.8 -1.3 -1.6 -2.4 s 0.7 1.1 1.8 1.4 C 567.3 151.1 568.6 149.2 568.4 150.3 Z");
			}

			40% {
				d: path("M 568.4 149.9 c 0 1.1 -0.9 2 -2 2 s -2 -0.9 -2 -2 s 0.9 -2 2 -2 c 0.4 0 0.8 0.1 1.1 0.3 C 568 148.6 568.4 149.2 568.4 149.9 Z");
			}





		}

		#weyeone&gt;path {
			animation: ab30 10s infinite;
			display: none;
		}

		@keyframes ab30 {
			0% {}



			25% {
				d: path("M 581.7 153.3 c 0 1.1 -0.9 2 -2 2 s -2 -0.9 -2 -2 s 0.9 -2 2 -2 c 0.6 0 1.1 0.2 1.4 0.6 C 581.5 152.3 581.7 152.8 581.7 153.3 Z");
			}

			30% {
				d: path("M 581.7 153.8 c -0.4 1.5 -2.3 2.2 -3.6 0.8 c -0.3 -0.3 -0.4 -0.8 -0.4 -1.2 c 0.3 -2.4 1.2 0.8 3.1 -0.1 C 581.5 152.9 581.9 153.1 581.7 153.8 Z");
			}

			40% {
				d: path("M 581.7 153.3 c 0 1.1 -0.9 2 -2 2 s -2 -0.9 -2 -2 s 0.9 -2 2 -2 c 0.6 0 1.1 0.2 1.4 0.6 C 581.5 152.3 581.7 152.8 581.7 153.3 Z");
			}






		}

		#wmouth&gt;path {
			animation: ab33 10s infinite;
			transform-box: fill-box;
			transform-origin: center;
			display: none;
		}

		@keyframes ab33 {


			25% {
				/* d: path("M 564.3 166.2 l 8.5 2.1 C 565 173.1 564.3 166.2 564.3 166.2 Z"); */
				transform: scale(0.5);
			}

			30% {
				/* d: path("M 562.7 165.5 l 12.5 3 C 564.2 177.8 562.7 165.5 562.7 165.5 Z"); */
				transform: scale(1.5);
			}

			40% {
				/* d: path("M 562.7 165.5 l 12.5 3 C 564.2 177.8 562.7 165.5 562.7 165.5 Z"); */
				transform: scale(0.6);
			}

			50% {

				transform: scale(1);
			}

			60% {

				transform: scale(0.5);
			}

		}

		#mobileone {
			animation: ab34 10s ;
		}

		@keyframes ab34 {
			0% {
				transform: translate(-279px, 0px);
			}

			10% {
				transform: translate(0px, 0px);
			}
		}

		#mobiletwo {
			animation: ab35 10s ;
		}

		@keyframes ab35 {
			0% {
				transform: translate(279px, 0px);
			}

			10% {
				transform: translate(0px, 0px);
			}
		}

		#menopa,
		#wenopa {
			animation: ab36 10s ;
		}

		@keyframes ab36 {
			0% {
				opacity: 0;
			}

			10% {
				opacity: 0;
			}

			12% {
				opacity: 1;
			}


		}

		#mmentonet {
			animation: ab36ae 10s ;
			transform-box: fill-box;

			transform-origin: bottom;
		}

		@keyframes ab36ae {
			0% {
				transform: rotate(-2deg);
			}

			10% {
				transform: rotate(-2deg) translate(-18px, 0px);
			}

			12% {
				transform: rotate(-2deg) translate(0px, 0px);
			}

			28% {
				transform: rotate(-2deg);
			}

			30% {
				transform: rotate(0deg);
			}

			36% {
				transform: rotate(0deg);
			}

			40% {
				transform: rotate(-1deg);
			}

			48% {
				transform: rotate(0deg);
			}

			50% {
				transform: rotate(0deg);
			}

		}

		#womanonets {
			animation: ab36aea 10s ;
			transform-box: fill-box;

			transform-origin: bottom;
		}

		@keyframes ab36aea {
			0% {
				transform: rotate(3deg);
			}

			10% {
				transform: rotate(3deg) translate(18px, 0px);
			}

			12% {
				transform: rotate(3deg) translate(0px, 0px);
			}

			15% {
				transform: rotate(3deg);
			}

			20% {
				transform: rotate(0deg);
			}

			36% {
				transform: rotate(0deg);
			}


		}

		#cartrect {
			animation: ab37aa 10s infinite;
			transform-box: fill-box;
		}

		@keyframes ab37aa {


			38% {

				transform: scaleY(0.5);
			}

			45% {

				transform: scaleY(1);
			}
		}

		.dotshowone {
			animation: ab37aas 10s infinite;
		}

		@keyframes ab37aas {


			45% {

				opacity: 0;
			}

			48% {

				opacity: 1;
			}
		}

		.dotshowtwo {
			animation: ab37aast 10s ;
		}

		@keyframes ab37aast {


			48% {

				opacity: 0;
			}

			50% {

				opacity: 1;
			}
		}

		.dotshowthree {
			animation: ab37aastaa 10s ;
		}

		@keyframes ab37aastaa {


			50% {

				opacity: 0;
			}

			52% {

				opacity: 1;
			}
		}

		.dotshowfour {
			animation: ab37aastaaa 10s ;
		}

		@keyframes ab37aastaaa {


			52% {

				opacity: 0;
			}

			54% {

				opacity: 1;
			}
		}

		.dotshowfive {
			animation: ab37aastaae 10s ;
		}

		@keyframes ab37aastaae {


			54% {

				opacity: 0;
			}

			56% {

				opacity: 1;
			}
		}

		#cartopa {
			animation: ab37 10s ;
		}

		@keyframes ab37 {
			0% {
				opacity: 0;
			}

			35% {
				opacity: 0;
				transform: scaleY(0.5);
			}

			37% {
				opacity: 1;
				transform: scaleY(1);
			}
		}

		#dotnetopa {
			animation: ab38 10s ;
		}

		@keyframes ab38 {
			0% {
				opacity: 0;
			}

			25% {
				opacity: 0;
				transform: scaleY(0.5);
			}

			30% {
				opacity: 1;
				transform: scaleY(1);
			}
		}



		;
			}
		}</style>
 <g>
  <title>Layer 1</title>
  <g stroke="null" id="setting">
   <path stroke="null" class="st15" d="m184.38242,384.42988l21.36585,0c95.2561,0 171.81708,-76.56098 171.81708,-171.81708l0,-16.02439c0,-95.2561 -76.56098,-171.81708 -171.81708,-171.81708l-21.36585,0c-95.2561,0 -171.81708,76.56098 -171.81708,171.81708l0,16.02439c0.89024,94.36586 77.45122,171.81708 171.81708,171.81708z" id="svg_33"/>
   <path stroke="null" class="st2 settingone" d="m179.9312,226.85671c-1.78049,4.45122 -2.67073,9.79268 -2.67073,15.13415l-21.36585,7.12195c0,5.34146 0.89024,9.79268 1.78049,15.13415l22.2561,1.78049c1.78049,4.45122 3.56098,8.90244 6.23171,13.35366l-13.35366,17.80488c3.56098,4.45122 7.12195,7.12195 10.68293,11.57317l19.58537,-11.57317c1.78049,1.78049 4.45122,2.67073 6.23171,3.56098c2.67073,0.89024 4.45122,2.67073 7.12195,3.56098l0,22.2561c5.34146,0.89024 9.79268,2.67073 15.13415,2.67073l8.90244,-20.47561c5.34146,0 9.79268,-0.89024 15.13415,-1.78049l13.35366,17.80488c4.45122,-1.78049 9.79268,-3.56098 14.2439,-6.23171l-5.34146,-21.36585c3.56098,-3.56098 7.12195,-6.23171 10.68293,-10.68293l21.36585,7.12195c0.89024,-2.67073 2.67073,-4.45122 3.56098,-6.23171s2.67073,-4.45122 3.56098,-7.12195l-16.91463,-14.2439c1.78049,-5.34146 2.67073,-9.79268 2.67073,-15.13415l21.36585,-7.12195c0,-5.34146 -0.89024,-9.79268 -1.78049,-15.13415l-22.2561,-1.78049c-1.78049,-4.45122 -3.56098,-8.90244 -6.23171,-13.35366l13.35366,-17.80488c-2.67073,-3.56098 -7.12195,-7.12195 -10.68293,-10.68293l-18.69512,11.57317c-1.78049,-1.78049 -4.45122,-2.67073 -7.12195,-3.56098c-1.78049,-0.89024 -4.45122,-2.67073 -6.23171,-3.56098l0,-22.2561c-5.34146,-1.78049 -9.79268,-2.67073 -15.13415,-2.67073l-8.0122,20.47561c-5.34146,0 -9.79268,0.89024 -15.13415,1.78049l-13.35366,-17.80488c-4.45122,1.78049 -9.79268,4.45122 -14.2439,6.23171l5.34146,21.36585c-4.45122,2.67073 -8.0122,6.23171 -10.68293,10.68293l-21.36585,-7.12195c-1.78049,1.78049 -2.67073,4.45122 -4.45122,6.23171c-0.89024,1.78049 -2.67073,4.45122 -3.56098,7.12195l16.02439,13.35366zm24.92683,0c10.68293,-18.69512 33.82927,-25.81707 53.41464,-15.13415c19.58537,10.68293 25.81707,33.82927 16.02439,52.52439c-10.68293,18.69512 -34.71951,25.81707 -53.41464,15.13415c-19.58537,-10.68293 -25.81707,-33.82927 -16.02439,-52.52439z" id="svg_34"/>
   <path stroke="null" class="st2 settingtwo" d="m83.78486,151.18597c0.89024,3.56098 1.78049,7.12195 2.67073,10.68293l-12.46341,11.57317c1.78049,3.56098 3.56098,6.23171 6.23171,9.79268l16.02439,-6.23171c0.89024,0.89024 2.67073,2.67073 4.45122,3.56098c0.89024,0.89024 2.67073,1.78049 4.45122,2.67073l-3.56098,16.91463c3.56098,1.78049 7.12195,3.56098 10.68293,4.45122l9.79268,-14.2439c3.56098,0.89024 7.12195,0.89024 11.57317,0.89024l8.0122,15.13415c4.45122,0 8.0122,-1.78049 11.57317,-2.67073l-1.78049,-16.91463c3.56098,-1.78049 7.12195,-3.56098 9.79268,-6.23171l16.02439,8.0122c0.89024,-1.78049 2.67073,-3.56098 3.56098,-4.45122c1.78049,-1.78049 2.67073,-3.56098 3.56098,-4.45122l-10.68293,-13.35366c1.78049,-3.56098 3.56098,-7.12195 3.56098,-11.57317l16.91463,-1.78049c0.89024,-3.56098 0.89024,-8.0122 0.89024,-11.57317l-16.91463,-4.45122c0,-3.56098 -0.89024,-7.12195 -2.67073,-10.68293l12.46341,-11.57317c-1.78049,-3.56098 -3.56098,-7.12195 -6.23171,-9.79268l-16.02439,6.23171c-0.89024,-0.89024 -2.67073,-2.67073 -4.45122,-3.56098s-2.67073,-1.78049 -5.34146,-3.56098l3.56098,-16.91463c-2.67073,-1.78049 -7.12195,-3.56098 -11.57317,-4.45122l-8.90244,14.2439c-4.45122,-0.89024 -8.0122,-0.89024 -11.57317,-0.89024l-8.0122,-16.02439c-4.45122,0 -8.0122,1.78049 -11.57317,2.67073l1.78049,16.91463c-3.56098,1.78049 -7.12195,3.56098 -9.79268,6.23171l-16.02439,-8.0122c-1.78049,0.89024 -2.67073,2.67073 -3.56098,4.45122s-2.67073,3.56098 -3.56098,4.45122l10.68293,13.35366c-1.78049,3.56098 -3.56098,7.12195 -4.45122,10.68293l-16.91463,2.67073c-0.89024,3.56098 -0.89024,8.0122 -0.89024,11.57317l18.69512,6.23171zm24.92683,-25.81707c10.68293,-12.46341 30.26829,-14.2439 42.73171,-4.45122c13.35366,10.68293 15.13415,29.37805 4.45122,42.73171s-30.26829,15.13415 -42.73171,4.45122c-13.35366,-10.68293 -15.13415,-30.26829 -4.45122,-42.73171z" id="svg_35"/>
  </g>
 </g>
</svg>