<?xml version="1.0" encoding="utf-8"?>
<!-- Generator: Adobe Illustrator 17.0.0, SVG Export Plug-In . SVG Version: 6.00 Build 0)  -->
<!DOCTYPE svg PUBLIC "-//W3C//DTD SVG 1.1//EN" "http://www.w3.org/Graphics/SVG/1.1/DTD/svg11.dtd">
<svg version="1.1" id="Layer_1" xmlns="http://www.w3.org/2000/svg" xmlns:xlink="http://www.w3.org/1999/xlink" x="0px" y="0px"
	 width="800px" height="600px" viewBox="0 0 800 600" enable-background="new 0 0 800 600" xml:space="preserve">
<g>
	<g>
		<path fill="#FFA400" d="M376.128,466.947c13.112-41.223,30.849-92.027,49.218-139.605c20.074,47.578,38.75,98.049,53.575,142.779
			c16.31,49.184,102.499,51.588,117.645,2.393c32.307-104.943,76.913-267.71,87.36-308.348
			c20.962-81.587-90.856-115.175-114.147-43.191c-20.034,61.93-29.125,109.182-45.422,164.374
			c-17.965-36.517-33.782-76.784-53.581-119.975c-18.131-39.555-82.43-37.315-99.557,5.801
			c-13.424,33.791-28.956,73.068-41.374,102.175c-9.325-41.991-22.132-97.183-34.946-145.172
			c-23.447-87.841-143.261-62.388-123.458,26.39c11.511,51.624,60.051,246.417,78.033,307.151
			C270.44,532.507,360.786,515.173,376.128,466.947z"/>
		<path fill="#FFB632" d="M509.591,253.662c-12.4-27.723-24.577-57.236-38.815-88.288c-8.11-17.694-25.459-26.996-43.691-28.046
			c-30.391,96.861-114.202,343.998-124.22,371.255c30.933,3.515,64.454-13.946,73.263-41.636
			c13.112-41.223,30.849-92.027,49.218-139.605c10.869,25.754,21.292,52.333,30.949,78.414
			C464.561,380.49,500.938,279.435,509.591,253.662z"/>
	</g>
	<g>
		<g>
			<path fill-rule="evenodd" clip-rule="evenodd" d="M236.285,245.16c1.094-0.817,3.159-1.374,4.562-0.181
				c1.516,1.291,1.246,4.187,0.352,5.828c-0.994,1.832-2.825,1.986-4.318,1.731c-0.535,6.217,1.111,18.141-0.699,22.642
				c2.871,3.753,10.642,16.116,14.747,24.946c1.99,4.277,3.803,10.01,5.121,15.054c1.382,5.279,2.827,18.084,2.296,26.452
				c1.544,2.163,3.489,6.312,4.642,10.941c1.634-5.903,3.67-18.674,4.095-25.039c-2.155,0.612-4.914,0.618-5.382-1.155
				c1.842-3,3.482-7.675,4.537-10.071c0.687-1.568,1.472-2.537,3.365-2.316c0.332-3.592,0.936-11.977,1.631-15.051
				c-1.381-1.676-2.603-3.476-3.615-7.689c-0.745-3.102-1.674-9.164,0.71-11.756c0.784-0.849,2.037-0.911,3.05-0.085
				c1.511,1.231,2.444,3.289,3.99,4.831c1.562,1.57,3.011,3.166,3.895,4.914c0.5-2.897,1.078-5.633,1.95-8.387
				c1.018-3.202,1.449-5.451,2.12-8.226c0.456-1.863,1.947-5.256,2.078-7.167c0.26-3.836-0.417-6.553-0.634-10.465
				c-0.237-4.311-1.279-8.494-0.848-12.719c0.538-5.255,6.689-10.283,3.478-16.105c-0.414-0.745-1.345-1.302-1.446-2.034
				c-0.215-1.603,0.872-4.052,1.19-5.68c0.809-4.156,1.187-8.467,1.102-12.205c-0.895,0.673-4.908,3.198-6.498,3.732
				c-0.233-1.213,1.845-7.334,2.889-10.268c-2.328-2.133-4.393-4.198-6.311-6.352c2.454-0.661,5.97-1.313,8.981-1.702
				c1.917-3.447,5.323-8.013,6.696-9.318c0.849,2.694,1.368,7.077,1.408,10.798c3.277,0.993,6.865,2.572,8.855,4.036
				c-1.868,1.788-5.435,3.681-7.884,4.724c-0.025,3.347,0,7.084-0.439,9.319c-1.217-0.518-4.173-2.964-4.684-3.739
				c-0.676,3.133-1.039,7.402-1.827,10.807c-0.267,1.135-0.72,2.66-0.524,3.607c0.237,1.169,0.982,2.253,1.457,3.429
				c2.853,7.087-2.886,12.207-3.818,18.48c-0.482,3.258,1.273,5.795,1.698,8.901c0.536,3.937,0.134,7.444-0.086,11.445
				c-0.129,2.31,0.533,4.613-0.082,6.613c-0.539,1.731-1.667,3.509-2.46,5.425c-0.378,0.903-0.532,2.001-0.849,3.054
				c-0.3,0.984-0.95,1.962-1.105,2.796c-0.458,2.457-0.467,4.593-1.037,6.88c2.997-0.474,8.582-0.183,11.56,0.258
				c1.74,0.271,3.733,0.551,4.361,1.676c0.838,1.487-0.345,3.102-1.401,3.479c-2.268,0.809-5.894,0.357-8.139,1.017
				c3.126,0.371,13.402,2.033,14.396,5.066c1.29,3.944-3.874,4.088-7.191,3.664c4.22,3.246,1.759,5.634,0.173,5.936
				c-3.732,0.714-10.107-1.645-11.956-2.124c1.785,1.587,2.791,2.939,3.475,5.005c0.353,1.069,0.205,3.077-0.844,3.305
				c-1.618,0.349-4.477-0.889-6.312-2.103c0.026,3.016-0.23,5.426-0.477,8.548c-0.256,3.341-0.281,6.93-1.017,10.259
				c-2.057,9.373-1.199,21.405-1.353,31.537c-1.172-0.047-7.135-0.933-7.462-1.615c-0.55-1.125,0.244-5.462,0.86-8.766
				c0.616-3.307,1.728-7.31,2.382-12.379c0.345-2.667,0.687-6.925,1.385-9.221c0.33-1.091,1.08-1.917,1.384-2.765
				c0.296-0.842,0.789-6.069,0.771-8.154c-0.017-1.897,0.151-8.102,0.287-9.869c-1.151-1.003-2.059-2.197-2.521-2.889
				c-0.615,1.776-1.645,6.958-1.461,9.301c3.074,0.847,1.026,7.381,0.727,10.157c-0.727-0.086-1.264-0.238-1.878-0.471
				c-0.896,5.595-3.537,22.907-3.615,26.676c-0.075,3.762,0.154,7.864,0,8.373c-0.151,0.515-3.68,4.169-5.534,3.307
				c-2.151-1.003-4.304-9.376-5.907-12.273c-0.575,5.434-3.443,20.184-7.737,31.011c1.245,4.097,2.655,10.553,3.48,13.569
				c0.604,2.227,1.003,4.648,1.352,7.121c0.302,2.105,0.742,7.648,1.403,11.132c0.662,3.487,3.493,13.777,3.972,19.209
				c0.49,5.426,2.875,13.467,4.903,17.661c2.033,4.191,3.269,5.828,5.347,9.495c2.073,3.659,6.178,10.905,7.857,14.921
				c1.677,4.016,5.163,9.052,7.24,11.171c2.076,2.119,4.948,4.856,9.498,7.905c4.544,3.044,12.545,10.348,15.891,14.129
				c4.106,4.639,7.33,8.653,9.592,11.032c3.875,0.576,6.779,4.307,6.477,5.346c-0.349,1.238-9.662,0.958-11.568,1.064
				c-3.716,0.199-8.43,0.083-12.713,0.025c-4.334-0.05-8.667-0.598-12.881-0.587c-7.123,0.011-14.062,0.811-21.282,0.764
				c-2.72-0.022-5.448-0.402-8.22-0.681c-5.453-0.543-11.626-1.595-16.958-0.85c-7.905,1.108-13.794,1.047-21.857,0.313
				c-3.4-0.313-7.992-1.197-11.658-1.944c-4.998,1.39-20.139,4.174-22.351,4.684c-5.731,1.321-16.454,3.149-21.533,3.728
				c-5.087,0.584-8.887,2.772-14.069,2.545c-9.678-0.421-15.45-5.678-15.938-13.904c-0.285-4.731,1.165-15.533,8.56-16.954
				c4.443-0.848,7.269,1.404,8.374,4.443c0.734,2.036-0.102,4.72-1.847,5.817c-1.598,1.008-5.087,1.075-5.257-0.931
				c0.612,0.108,1.879-0.377,2.628-0.847c1.469-0.925,0.024-3.34-1.102-3.39c-1.458-0.078-2.95,1.709-3.476,2.626
				c-0.977,1.706-1.839,5.263-1.101,7.373c1.152,3.296,5.281,5.393,8.875,6.052c1.456,0.258,5.386,0,7.063-0.443
				c3.299-0.867,9.717-3.357,12.885-4.844c-0.61-3.723,0.654-5.612,4.203-7.52c-0.025-2.268,0.198-13.215,0.198-17.419
				c0-8.063,0.446-17.874,1.172-22.832c0.724-4.952,1.112-14.591,0.702-20.558c-0.337-4.883-1.422-9.866-1.951-15.342
				c-0.477-4.93-0.044-10.016-1.017-14.924c-1.422-7.174-2.561-13.586-2.134-21.35c0.453-8.279,3.781-20.522,5.281-25.951
				c-2.119-4.506-4.458-12.01-5.436-16.023c-1.319,1.978-2.957,7.066-3.558,8.39c-0.612,1.341-1.636,3.653-3.478,3.565
				c-1.613-0.089-3.378-1.853-4.325-5.432c-0.673-2.551-2.984-15.275-3.249-18.187c-1.569,0.08-6.099,0.188-7.546-0.31
				c1.939-7.021,3.882-16.425,4.366-17.223c0.359-0.585,2.033-0.216,2.519-0.039c0.043-2.299-0.708-6.581-1.262-9.337
				c-13.266,0.33-17.019-8.811-17.504-12.168c-3.401,0.221-7.994,0.352-9.708,0.385c-3.757,0.061-9.815-0.781-10.089-4.41
				c-0.28-3.725,4.939-3.742,9.412-3.301c1.727,0.155,3.84,0.689,5.847,1.011c1.814,0.294,4.148,1.191,5.936,0.847
				c0.634-0.122,1.607-1.379,0.59-2.653c-1.015-1.28-3.617-2.997-5.252-3.961c-3.037-1.776-5.565-3.271-8.527-5.177
				c-1.339-0.864-3.398-2.122-4.324-3.537c-3.072-4.68,1.014-8.298,4.149-7.593c2.827,0.638,4.26,2.415,5.393,3.592
				c3.765,3.91,12.122,13.931,12.798,13.939c0.645,0.006,2.278-1.726,2.207-2.213c-0.068-0.471-6.373-9.692-8.608-13.113
				c-1.906-2.917-4.371-5.444-4.53-9.377c-0.151-3.713,3.267-4.66,6.188-2.969c1.345,0.78,2.359,2.541,3.377,4.446
				c1.012,1.901,2.807,5.828,3.49,7.253c1.361,2.839,2.082,5.34,3.221,8.562c0.368,1.044,0.882,2.908,1.676,3.831
				c0.425,0.496,1.457,0.133,1.589-1.764c0.048-0.662,0.422-6.952,0.443-8.523c0.019-1.494,0.353-7.638,0.44-10.244
				c0.089-2.604,0.62-6.135,3.144-6.866c1.613-0.464,2.906,0.332,3.612,2.099c1.181,2.953-0.219,8.039-0.528,10.995
				c-0.31,2.961-1.799,10.6-1.724,11.035c0.076,0.449,1.069,1.191,1.523,1.986c1.346,2.338,0.864,4.864,2.119,6.016
				c0.774-0.183,3.071-0.094,4.306-1.294c1.237-1.188,3.136-4.055,4.591-4.362c0.892-2.983,1.574-5.291,3.356-7.027
				c2.462-2.389,8.347-3.261,9.025,0.986c0.575,3.604-1.96,8.201-4.832,9.747c-1.537,0.823-3.314,0.72-5.002,1.443
				c-3.031,1.288-5.753,4.764-6.189,5.933c-0.204,0.54-1.037,4.146-1.611,6.708c-0.573,2.568-1.633,4.77-4.832,7.362
				c0.195,4.293,0.33,9.592-0.202,12.329c0.838,0.222,2.824,0.643,3.136,1.15c1.28,2.072,3.137,10.991,3.004,14.309
				c-0.809,0.177-2.96,0.266-3.562,0.022c0.382,6.905,2.191,14.062,2.677,14.062c0.487,0,1.105-3.058,1.856-4.988
				c0.78-2.016,1.532-3.407,2.737-5.348c-0.176-6.044-0.443-11.127,1.037-18.899c1.274-6.703,3.541-13.362,5.764-19.763
				c1.603-4.589,3.403-9.448,5.595-13.472c4.015-7.37,8.908-13.069,11.755-16.566c2.915-3.579,8.832-9.609,13.934-13.617
				c1.14-3.854,2.302-9.917,2.198-15.334c-1.561,1.09-3.944,1.529-4.997-0.771c-1.481-3.234,2.496-8.297,5.939-6.118
				c1.325-4.033,2.825-9.183,3.651-11.978c-0.958-0.648-3.853-2.734-4.759-3.436c-3.243-2.523-6.63-4.662-10.243-6.727
				c-2.609-1.49-6.668-3.439-9.194-5.923c-2.907-2.858-5.299-7.645-2.403-9.773c3.273-2.4,12.217-0.497,14.37,0.332
				c2.156,0.828,4.763,2.486,6.339,2.9c1.575,0.413,5.175,0.83,6.13,1.033c2.036-3.238,4.538-6.678,5.687-8.121
				c1.145-1.445,5.162-6.362,6.61-7.631c1.451-1.266,3.147-3.106,4.849-4.995c1.324-1.471,3.644-3.684,3.727-4.638
				c0.082-0.953,0.042-2.735,0.371-3.893c0.332-1.162,0.993-3.727,5.718-6.904c3.02-2.027,9.646-3.617,8.989-9.411
				c-0.143-1.246-0.814-2.613-1.356-3.645c-2.997-5.709-11.417-8.686-13.229-14.921c-0.381-1.321-0.324-2.27,0.256-3.389
				c2.191-4.221,11.23-13.286,12.461-13.479c1.582-0.251,5.338,0.734,7.08,1.098c3.954,0.827,14.364,3.436,14.452,8.407
				c0.047,2.277-1.993,3.775-3.808,5.134c-1.813,1.363-7.08,4.763-7.124,5.923c-0.037,1.162,1.371,1.656,1.91,3.022
				c0.536,1.368,0.116,3.4-0.916,3.687c0-0.661-0.482-2.198-1.5-3.027c-1.026-0.821-5.454-0.899-5.685-2.288
				c-0.309-1.889,1.8-3.588,6.952-7.969c0.798-0.678,3.025-2.079,2.968-3.051c-0.169-2.962-15.074-3.458-17.041-1.95
				c-0.771,0.59-1.007,3.255-0.847,4.831c0.256,2.475,1.828,4.213,3.137,5.936c1.306,1.719,2.598,3.383,3.987,5.001
				c1.331,1.558,2.905,3.047,4.065,5.001c1.594,2.681,3.491,5.544,2.205,9.326c-0.515,1.526-1.679,2.832-1.883,4.178
				c-0.295,1.953,0.246,3.559-0.402,5.149c-0.423,1.033-1.431,1.983-2.291,2.797c-1.771,1.66-3.146,4.52-4.349,7.582
				c-1.199,3.066-2.691,9.444-2.897,11.434c-0.208,1.986-0.785,4.925-0.663,7.372c0.123,2.443,0.935,5.649,1.126,9.47
				c4.298,1.878,11.863,10.24,15.941,13.904c1.435,1.288,2.252,2.296,4.661,1.184c0.546-0.249,1.26-1.087,1.95-0.59
				c0.913,0.654-0.566,2.62-1.187,3.306c-0.756,0.832-2.109,2.086-3.986,2.033c-4.874-0.132-8.174-3.044-13.731-2.965
				c-3.859,0.048-10.365,2.356-14.587,2.065C237.339,239.664,236.755,243.6,236.285,245.16z"/>
			<path fill-rule="evenodd" clip-rule="evenodd" fill="#56267D" d="M258.913,151.699c0.205-1.947,3.357-3.564,4.597-4.473
				c1.242-0.91,5.329-3.59,6.209-5.425c0.789-1.637-0.073-3.562-2.238-4.728c-3.717-2.005-7.689-3.491-12.462-4.324
				c-1.484-0.26-3.602-0.892-5.001-0.594c-1.686,0.357-3.299,5.148-3.032,6.706c5.962-1.201,13.754-0.233,16.607,1.035
				c1.492,0.663,2.802,2.267-0.58,4.761c-1.903,1.41-7.66,6.215-7.495,7.579c0.165,1.368,3.933,1.119,5.754,3.065
				C261.436,153.73,258.707,153.649,258.913,151.699z"/>
			<path fill-rule="evenodd" clip-rule="evenodd" fill="#68428A" d="M239.76,142.244c-0.965,1.255-2.388,2.811-2.033,4.915
				c0.314,1.871,2.252,3.838,3.645,5.428c3.241,3.692,9.297,6.776,10.94,12.716c1.641,5.96-3.044,8.095-6.11,10.171
				c0.364,1.392,0.674,2.835,0.678,4.579c-0.847,0.306-2.381,0.263-3.301-0.085c-0.279,1.26-0.683,3.334-1.7,4.324
				c-1.289-0.828-2.058-2.195-2.843-3.273c-1.42,1.907-1.368,3.977-1.395,5.392c-0.025,1.431-1.504,2.894-2.334,3.887
				c-0.829,0.996-2.113,2.115-2.982,3.397c0.083,1.158,0.088,2.054,0.061,2.972c1.593-0.613,4.451-1.026,6.561-1.026
				c-0.577,0.828-4.743,4.383-6.583,5.59c-0.314,2.644-1.061,6.316-1.989,8.657c-1.364-1.368-3.062-4.515-3.809-6.545
				c-1.242,0.582-3.397,1.077-4.39,1.161c-1.274,1.629-3.77,4.39-5.307,7.678c0.195,0.393,7.793,1.517,10.027,1.972
				c2.239,0.454,4.742,0.384,6.164,0.489c3.486,0.256,9.325,1.123,13.903,2.882c0.313-1.742-0.852-5.897-0.891-8.091
				c-0.377,1.49-1.244,3.559-1.949,4.758c-1.078-0.654-2.647-2.854-3.094-3.959c-1.336-0.057-4.112-0.057-5.602-0.388
				c0.613-0.867,2.277-2.731,3.482-3.425c-0.954-1.129-1.868-2.331-2.282-3.863c1.348-0.001,3.023,0.208,4.185,0.414
				c0.87-1.601,2.277-3.354,3.27-4.182c0.623,1.698,0.746,4.886,0.746,4.886s1.121-0.204,1.656-0.204
				c0.29-2.577,1.241-7.416,1.665-9.938c-1.248-0.004-3.9-0.461-4.979-1.039c0.881-1.382,2.116-2.485,3.645-3.688
				c-0.681-2.134-0.705-4.635-0.413-6.337c1.465,0.986,3.644,3.025,4.678,4.019c0.686-1.629,2.185-3.879,2.748-4.57
				c0.738-0.899,2.678-1.849,2.8-4.068c-1.159-0.806-4.015-2.874-4.664-3.986c0.897-0.631,3.418-1.004,5.08-1.126
				c1.098-1.591,2.01-2.846,1.872-5.487c-0.239-4.565-3.975-8.285-6.609-11.273c-1.253-1.42-2.679-3.292-4.075-4.916
				c-1.352-1.578-2.983-3.561-3.131-5.853c-0.253-3.742,1.483-9.309,2.169-11.111C246.297,134.99,241.735,139.685,239.76,142.244z"
				/>
			<linearGradient id="SVGID_1_" gradientUnits="userSpaceOnUse" x1="253.4885" y1="175.182" x2="256.7182" y2="175.182">
				<stop  offset="0" style="stop-color:#F6D800"/>
				<stop  offset="1" style="stop-color:#EABA0A"/>
			</linearGradient>
			<path fill-rule="evenodd" clip-rule="evenodd" fill="url(#SVGID_1_)" d="M256.718,173.859c-0.621-0.127-2.691,0.04-3.23,0.37
				c0.619,0.621,2.231,1.778,3.102,2.318C256.591,175.805,256.574,174.441,256.718,173.859z"/>
			<linearGradient id="SVGID_2_" gradientUnits="userSpaceOnUse" x1="239.9038" y1="179.3041" x2="245.9513" y2="179.3041">
				<stop  offset="0" style="stop-color:#F6D800"/>
				<stop  offset="1" style="stop-color:#EABA0A"/>
			</linearGradient>
			<path fill-rule="evenodd" clip-rule="evenodd" fill="url(#SVGID_2_)" d="M245.205,175.805c-1.327,0.33-4.54,3.008-5.302,4.181
				c0.328,1.033,1.091,2.321,1.989,2.817c0.621-1.325,0.766-2.814,1.078-3.851c0.783,0.233,1.967,0.497,2.937,0.536
				C246.122,178.4,245.495,176.59,245.205,175.805z"/>
			<linearGradient id="SVGID_3_" gradientUnits="userSpaceOnUse" x1="280.3254" y1="196.3815" x2="302.239" y2="196.3815">
				<stop  offset="0" style="stop-color:#F6D800"/>
				<stop  offset="1" style="stop-color:#EABA0A"/>
			</linearGradient>
			<path fill-rule="evenodd" clip-rule="evenodd" fill="url(#SVGID_3_)" d="M287.751,192.401c-2.523,0.267-5.698,0.846-7.426,1.456
				c1.579,1.577,3.811,3.738,5.39,5c-0.706,1.965-2.134,6.478-2.548,9.369c1.12-0.334,4.22-2.424,5.94-4.249
				c1.019,0.873,3.757,3.361,5.656,4.782c0.249-2.4,0.533-5.146,0.461-7.768c2.209-0.992,5.458-2.256,7.015-3.642
				c-1.144-1.331-5.536-2.788-7.961-3.443c0.146-3.129-0.324-8.357-0.896-9.9C292.252,185.281,289.259,189.412,287.751,192.401z"/>
			<linearGradient id="SVGID_4_" gradientUnits="userSpaceOnUse" x1="244.9561" y1="188.4736" x2="250.3019" y2="188.4736">
				<stop  offset="0" style="stop-color:#F6D800"/>
				<stop  offset="1" style="stop-color:#EABA0A"/>
			</linearGradient>
			<path fill-rule="evenodd" clip-rule="evenodd" fill="url(#SVGID_4_)" d="M250.302,187.483c-0.585-1.036-1.95-2.318-2.943-2.939
				c-0.125,1.159,0.165,3.145,0.626,4.75c-0.671,0.425-2.368,1.749-3.029,2.659c0.951,0.249,2.557,0.606,3.52,0.375
				C248.806,191.003,249.554,188.933,250.302,187.483z"/>
			<linearGradient id="SVGID_5_" gradientUnits="userSpaceOnUse" x1="223.4623" y1="201.2052" x2="236.6715" y2="201.2052">
				<stop  offset="0" style="stop-color:#F6D800"/>
				<stop  offset="1" style="stop-color:#EABA0A"/>
			</linearGradient>
			<path fill-rule="evenodd" clip-rule="evenodd" fill="url(#SVGID_5_)" d="M231.115,194.719c-2.32,2.145-6.2,5.812-7.653,8.542
				c0.948-0.125,2.544-0.737,3.601-1.159c0.457,0.62,1.575,3.853,3.066,5.59c0.648-2.205,0.878-4.631,1.239-7.121
				c1.784-1.121,4.02-2.321,5.303-3.978c-1.101,0.057-4.346,0.828-5.135,1.285C231.348,197.116,231.288,195.808,231.115,194.719z"/>
			<linearGradient id="SVGID_6_" gradientUnits="userSpaceOnUse" x1="237.6242" y1="206.3674" x2="246.2426" y2="206.3674">
				<stop  offset="0" style="stop-color:#F6D800"/>
				<stop  offset="1" style="stop-color:#EABA0A"/>
			</linearGradient>
			<path fill-rule="evenodd" clip-rule="evenodd" fill="url(#SVGID_6_)" d="M241.395,203.881c-0.871-0.165-2.527-0.328-3.522-0.41
				c0.416,0.99,1.368,2.19,1.989,3.061c-0.913,0.827-1.865,1.616-2.238,2.443c1.145,0.305,2.53,0.377,3.811,0.331
				c0.62,0.954,1.781,2.527,2.443,3.026c0.83-1.659,1.989-4.806,1.989-4.806s0.165-2.195,0.375-3.065
				c-0.544,0-1.411,0.042-2.03,0.208c-0.091-0.985-0.086-3.065-0.499-4.267C242.649,201.603,241.963,202.754,241.395,203.881z"/>
			<path fill-rule="evenodd" clip-rule="evenodd" fill="#824E20" d="M289.521,213.196c0.547-2.382,0.922-6.163,0.922-6.163
				s-0.845-0.824-1.176-0.783c-0.036,1.827-0.426,6.145-0.766,8.96C288.694,215.087,289.2,214.606,289.521,213.196z"/>
			<path fill-rule="evenodd" clip-rule="evenodd" fill="#56267D" d="M266.548,234.989c-1.392-0.04-2.501-1.666-3.561-2.628
				c-3.056-2.78-5.337-5.453-8.477-8.055c-1.88-1.562-3.667-3.242-5.764-4.494c-2.077-1.239-4.556-2.124-7.461-2.797
				c-3.412-0.792-9.626-1.699-12.632-1.611c-1.979,0.06-11.302-1.713-13.393-2.162c-2.462-0.529-6.343-0.789-8.224-1.908
				c-2.501-1.487-6.065-2.814-9.084-3.31c-3.026-0.497-7.891-0.86-8.865,1.906c-0.818,2.322,1.784,5.922,3.727,7.495
				c1.947,1.573,5.428,3.727,6.93,4.505c1.781,0.924,3.335,1.773,4.919,2.885c3.744,2.629,7.382,5.29,11.189,7.547
				c0.28-1.23,0.648-2.885,0.897-3.587c-1.778-0.291-5.508-1.907-5.588-3.148c-0.083-1.242,2.234,0.371,4.098,0.705
				c1.863,0.328,6.525-0.618,10.425-0.414c3.904,0.205,7.197,1.285,9.074,1.781c1.872,0.496,7.877,1.903,7.877,3.353
				c0,1.447-4.597,0.29-5.843,0.208c0.294,1.239,0.336,2.959,0.335,4.429c4.743,0.597,8.017-1.116,12.463-1.548
				c5.641-0.546,8.772,1.506,13.227,2.291c2.854,0.501,5.473,0.398,6.019-1.95C267.948,234.279,267.418,235.012,266.548,234.989z"/>
			<path fill-rule="evenodd" clip-rule="evenodd" fill="#94632B" d="M288.041,218.753c0.55-0.185,0.978-2.656,1.018-3.347
				c-0.265,0.195-0.726,0.68-0.893,1.188C287.994,217.103,287.758,218.534,288.041,218.753z"/>
			<path fill-rule="evenodd" clip-rule="evenodd" fill="#824E20" d="M280.973,284.558c-0.568,2.447-0.979,4.624-0.979,4.624
				s1.108,0.011,1.615-0.086c0.385-0.92,0.745-2.645,0.88-3.33c0.028-0.141,0.043-0.285,0.064-0.429
				C282.016,285.103,281.49,284.837,280.973,284.558z"/>
			<path fill-rule="evenodd" clip-rule="evenodd" fill="#94632B" d="M282.77,278.242c-0.136,0.463-0.281,0.936-0.452,1.425
				c-0.404,1.155-0.811,2.681-1.169,4.173c0.485,0.275,0.977,0.529,1.485,0.757c0.097-1.328,0.06-2.716,0.589-3.721
				c0.263-0.501,0.533-1.194,0.796-1.951C283.587,278.721,283.167,278.497,282.77,278.242z"/>
			<path fill-rule="evenodd" clip-rule="evenodd" fill="#A37736" d="M289.61,233.377c1.302-3.646,0.464-7.495-1.155-10.207
				c-0.346-0.584-0.17-2.741-0.094-3.666c-0.111,0.036-0.925,0.294-1.314,2.573c-0.57,2.086,0.788,2.534,1.375,3.923
				c2.586,6.089-2.921,11.071-3.561,15.684c-0.956,6.923,1.272,13.953,1.272,20.853c0,1.368,0.136,2.863,0,4.239
				c-0.118,1.222-1.334,3.278-1.604,4.25c-0.623,2.247-0.958,4.293-1.561,6.506c0.4,0.277,0.83,0.514,1.274,0.724
				c0.344-1.039,0.673-2.132,0.981-2.996c0.838-2.357,1.723-3.12,2.185-5.686c0.269-1.54-0.058-3.591,0-5.425
				c0.098-3.225,0.576-6.591,0.251-9.838c-0.288-2.832-1.111-4.646-1.627-7.477c-0.155-0.845-0.483-2.626-0.321-3.54
				C286.354,239.673,288.463,236.583,289.61,233.377z"/>
			<path fill-rule="evenodd" clip-rule="evenodd" fill="#ECCAAF" d="M236.012,239.828c0.043-2.842,0.26-9.575-1.424-10.776
				c-0.874-0.622-3.202-1.032-4.578-1.354c-1.687-0.402-3.507-0.835-5.34-0.679c-1.492,0.128-6.011,0.544-6.781,1.355
				c-0.769,4.566-5.451,17.406-5.891,19.079c-1.559-1.712-5.18-1.064-5.328,2.556c-0.147,3.625,4.067,1.302,4.944,0.623
				c0.914,3.203-0.861,14.251-1.234,15.981c1.119-0.881,2.207-1.443,2.843-1.867c-1.4-1.109-1.215-5.278,2.037-5.767
				c0.713-0.107-0.906,1.131-1.291,2.072c-0.384,0.938-0.442,2.559,0.356,3.18c0.53-0.356,1.705-1.029,2.119-1.296
				c0.295-0.854,0.087-1.292-0.677-1.534c-0.766-0.233,0.791-1.526,1.529-0.555c0.737,0.972-0.062,3.882-0.681,6.441
				c-0.613,2.563-2.806,9.976-4.324,15.003c-3.75,12.453-5.126,21.851-7.77,35.457c-0.558,2.867-1.415,9.448-1.986,13.594
				c-0.575,4.152-1.677,12.941-2.163,22.475c-0.487,9.539,0.352,24.507,4.811,24.596c4.461,0.092,7.875-13.101,9.451-20.139
				c1.721-7.675,3.667-18.104,4.526-24.433c0.86-6.337,3.771-32.787,3.995-38.7c0.217-5.917,0-17.223,0-21.461
				c0-4.238-0.331-8.309-0.18-9.865c0.149-1.555,0.383-2.968,1.503-3.084c1.12-0.119,1.593,0.494,1.354,1.26
				c-0.234,0.768-1.918-0.634-1.795,1.857c1.479,0.55,3.504-0.854,3.709-3.268c0.158-1.853-1.354-2.618-2.144-2.613
				c0.948-1.32,2.868-0.094,3.264,1.526c0.557,2.292-0.444,4.797-3.264,5.76c2.526,0.686,6.118,4.45,9.428,8.866
				c0.77-1.44,0.789-3.793,0.914-5.814c0.267-4.396-0.431-12.985-0.169-17.55c1.273,1.026,4.746,0.317,4.864-2.624
				c0.116-2.944-3.261-3.62-5.375-1.053C235.431,245.545,235.971,242.605,236.012,239.828z"/>
			<path fill-rule="evenodd" clip-rule="evenodd" fill="#FFFCEA" d="M216.297,264.437c-1.284,0.539-4.355,2.364-6.504,4.056
				c-2.768,2.185-6.286,5.339-7.418,6.512c-2.341,2.41-4.565,4.97-6.83,7.679c-2.267,2.706-7.317,8.387-10.466,14.19
				c-2.201,4.055-9.124,20.422-11.817,32.833c-2.504,11.536-1.524,25.391,1.732,35.407c1.533,4.731,5.817,15.461,8.866,18.677
				c-1.284-6.708-2.228-14.104-2.084-20.538c0.137-6.432,0.712-14.78,2.435-20.826c1.187-4.174,3.457-10.476,6.36-14.796
				c1.897-2.822,3.98-4.307,5.191-6.595c2.05-3.867,4.564-8.678,9.242-11.536c1.418-9.902,5.405-24.078,8.055-32.63
				C214.881,270.97,216.324,264.437,216.297,264.437z"/>
			<path fill-rule="evenodd" clip-rule="evenodd" fill="#FFFCEA" d="M246.232,429.826c1.162,0.507,1.33,3.288,0.503,4.969
				c-0.716,1.451-2.106,3.113-4.065,1.812c-5.12-3.404-4.083-18.381-2.232-28.679c1.792-9.958,11.063-32.701,12.344-37.468
				c1.281-4.767,3.268-15.985,3.667-21.677c0.396-5.695,0.529-14.575,0.014-21.305c-0.656-8.573-2.277-15.065-5.34-22.976
				c-3.065-7.908-7.69-15.068-12.039-21.869c-3.21-5.027-10.056-14.783-15.076-16.931c-0.087,2.827,1.007,24.945-0.183,37.19
				c2.749,1.925,5.152,3.836,7.206,6.44c2.021,2.571,3.449,5.614,4.916,8.733c2.215,4.712,3.807,9.678,5.087,15.431
				c0.403,1.811,1.026,3.77,0.679,5.678c-1.248-7.32-3.32-14.162-6.102-20.178c-2.745-5.922-6.084-11.797-11.97-14.677
				c-0.037,1.579-0.353,4.681-0.483,6.753c2.386,1.371,7.064,5.792,11.262,15.046c2.511,5.537,4.717,13.971,5.27,20.195
				c0.553,6.227,0.026,15.057-1.03,15.921c0.083-1.44,0.571-7.008,0.425-11.78c-0.254-8.445-2.165-14.799-4.407-21.026
				c-1.586-4.399-2.735-6.168-4.192-8.506c0.717,2.864-0.839,5.517-1.998,6.808c1.425,9.883,2.53,19.815,1.782,21.535
				c-0.591-6.116-2.39-20.882-2.39-20.882s-0.35,0.355-0.835,0.305c0.181,3.382,0.472,7.126,0.705,10.777
				c0.234,3.664,0.612,7.354,0.485,10.478c-1.054-5.581-1.432-14.999-1.852-21.161c-0.179,0.174-0.798,0.305-1.107,0.266
				c-0.485,1.324-1.455,13.16-1.619,14.788c-0.764-0.795-0.101-10.595,0.759-14.83c-0.86,0.258-2.586-0.092-3.218-0.936
				c-0.602,6.451-4.353,27.247-7.269,38.42c-1.929,7.398-5.21,13.904-9.139,13.639c-3.928-0.26-4.901-6.88-5.609-12.977
				c-0.705-6.096-0.119-14.71,0.708-22.92c0.581-5.772,1.404-11.068,1.982-16.328c0.712-6.501,1.551-11.265,2.744-16.389
				c-3.698,2.684-6.049,6.141-8.433,11.306c-0.757,1.64-2.256,2.579-3.386,4.06c-3.856,5.077-6.992,13.207-8.221,20.092
				c-1.45,8.149-1.823,16.979-1.024,26.319c0.489,5.645,1.547,10.282,2.72,13.78c0.787,2.341,4.181,8.52,6.782,10.766
				c2.3,1.981,5.356,3.598,8.224,4.916c2.36,1.083,8.192,2.532,9.872,6.21c1.255,2.745,2.367,5.664,3.777,8.287
				c2.669,4.961,6.022,9.841,9.578,13.905c2.143,2.443,4.131,4.875,7.311,6.991c3.178,2.122,9.298,4.861,14.564,1.909
				c2.23-1.252,4.516-4.376,4.066-8.351c-0.528-4.733-7.195-6.711-6.708-0.712C244.305,429.804,245.261,429.408,246.232,429.826z"/>
			<path fill-rule="evenodd" clip-rule="evenodd" fill="#ECCAAF" d="M159.393,294.163c-0.513-1.15-1.496-2.335-1.983-2.914
				c0.665-2.426,1.784-11.754,2.238-15.061c0.457-3.309,0.457-7.632-1.707-7.804c-2.165-0.18-2.654,2.762-2.786,4.67
				c-0.129,1.903-0.393,6.34-0.593,10.171c-0.197,3.83-0.051,8.428-1.104,11.617c0.861-0.28,2.276-0.324,2.54,0.296
				c-1.235,0.221-3.706,1.551-5.081,2.329c-3.803,2.15-8.077,9.016-9.579,11.697c-0.717-0.861,0.138-2.003,0.594-2.712
				c2.639-4.094,5.545-7.83,9.493-10.428c-1.839-1.479-2.689-5.667-3.473-7.634c-0.785-1.953-3.257-8.597-5.426-12.371
				c-0.994-1.728-2.284-4.005-3.88-4.725c-2.029-0.913-3.803-0.258-3.886,2.032c-0.126,3.493,2.002,5.335,3.443,7.692
				c2.668,4.379,9.517,13.844,9.538,14.65c0.04,1.329-1.748,3.457-3.088,3.44c-1.658-0.014-6.094-6-8.301-8.254
				c-2.209-2.252-7.041-8.096-9.539-8.875c-2.824-0.88-5.329,1.498-4.195,4.634c0.752,2.074,3.947,3.587,5.344,4.595
				c3.34,2.41,10.024,6.182,11.259,7.066c1.237,0.881,2.529,2.357,2.472,3.748c-0.068,1.654-1.3,2.548-3.151,2.396
				c-3.714-0.296-7.864-1.701-11.19-1.864c-2.508-0.127-8.009-0.474-7.885,2.291c0.102,2.28,4.131,2.817,6.275,3.055
				c3.56,0.388,10.273-0.116,13.568-0.269c0.793,5.213,5.738,12.542,16.379,11.966c3.421-0.18,7.718-3.703,8.61-7.152
				c0.893-3.448,1.237-6.492,2.302-8.451c1.181-2.163,4.613-6.118,7.206-6.695c2.151-0.479,3.664-0.288,5.171-1.612
				c1.482-1.302,3.689-4.526,3.203-7.703c-0.482-3.177-5.652-2.116-7.149-0.396c-1.504,1.72-2.784,4.022-3.27,6.712
				c-1.15,0.13-2.341,1.767-3.843,3.667c-1.5,1.895-4.371,1.978-7.503,3c-3.528,1.141-6.095,3.975-6.933,7.903
				c-0.576,2.698-0.176,4.327-1.12,4.537c-1.131-5.332,1.033-10.675,8.307-14.073C159.848,297.799,160.248,296.066,159.393,294.163z
				"/>
			<path fill-rule="evenodd" clip-rule="evenodd" fill="#ECCAAF" d="M272.991,282.967c-0.712-0.943-1.565-2.7-2.71-2.879
				c-1.95-0.305-2.573,4.023-2.544,5.679c0.082,4.149,1.651,9.636,4.58,12.462c-0.776,4.936-1.986,15.348-2.316,19.461
				c0.404,0.468,2.252,0.809,2.653,0.294c0.028-2.98,1.115-8.592,1.782-10.179c-0.745-0.792-1.67-3.255-0.51-3.98
				c-1.363-1.535-0.926-2.964,0.169-4.318c-3.245-2.598-3.655-8.163-3.984-10.849c-0.108-0.872-0.472-3.448,0.277-4.246
				c0.233,1.848,0.626,4.576,0.77,5.686c0.356,2.85,1.453,6.498,3.191,8.052c1.475,1.31,8.233,2.764,8.732-0.258
				c0.151-0.906-0.69-2.329-1.273-2.374c-1.507,1.269-4.202,2.324-5.255,1.95c-1.709-0.604-2.324-4.6-2.093-5.83
				c1.357-0.593,2.843-1.15,4.227-1.23C277.77,287.019,274.874,285.46,272.991,282.967z"/>
			<path fill-rule="evenodd" clip-rule="evenodd" fill="#ECCAAF" d="M282.497,294.52c1.688,0.222,4.64,0.091,6.214-0.1
				c2.947-0.366,5.805-0.174,8.013-0.861c0.857-0.26,1.53-1.241,1.083-2.324c-0.461-1.105-4.447-1.629-6.789-1.789
				c-4.115-0.291-7.833-0.183-10.726,1.197C281.188,291.83,281.904,293.254,282.497,294.52z"/>
			<path fill-rule="evenodd" clip-rule="evenodd" fill="#F6E4D0" d="M281.07,294.789c0.162-0.986-1.228-3.152-2.074-3.615
				c-1.241-0.141-2.921,0.463-3.843,1.078c-0.105,1.784,1.001,4.459,1.843,4.689C277.844,297.168,280.302,295.786,281.07,294.789z"
				/>
			<path fill-rule="evenodd" clip-rule="evenodd" fill="#ECCAAF" d="M294.83,302.819c1.947,0.637,4.332,0.817,6.116,0.202
				c2.03-0.698,1.711-2.811,0.109-3.604c-3.061-1.512-13.989-4.21-17.357-3.673c0.529,0.532,0.512,2.332,0.141,3.468
				C285.391,299.824,292.137,301.943,294.83,302.819z"/>
			<path fill-rule="evenodd" clip-rule="evenodd" fill="#ECCAAF" d="M274.442,302.655c0.507,0.933,3.203,1.703,4.239,2.08
				c3.389,1.227,7.346,2.648,10.68,3.465c1.518,0.368,5.651,1.449,7.033,0.454c2.287-1.645-0.724-3.653-1.912-4.285
				c-2.75-1.468-8.319-4.047-12.705-4.044c0.301,1.205-0.443,2.329-1.325,3.415c-0.972,0.216-4.396-1.188-4.725-1.82
				c-0.472-0.898,0.103-1.878,0.103-1.878s-0.622-0.163-0.798-0.263C273.87,300.81,273.93,301.716,274.442,302.655z"/>
			<path fill-rule="evenodd" clip-rule="evenodd" fill="#F6E4D0" d="M276.723,300.29c0,0-0.669,0.659-0.287,1.221
				c0.778,1.144,3.446,1.391,3.446,1.391s1.183-1.186,1.001-2.304C280.21,300.583,276.723,300.29,276.723,300.29z"/>
			<path fill-rule="evenodd" clip-rule="evenodd" fill="#ECCAAF" d="M279.557,305.934c-0.775,1.005-1.266,1.715-2.487,1.814
				c-1.285-0.714-2.057-2.241-1.669-3.443c-0.857-0.407-1.245,0.122-1.431,1.036c-0.183,0.925,2.45,4.191,4.302,5.872
				c1.937,1.762,7.181,5.169,8.642,3.637C288.372,313.313,283.988,307.367,279.557,305.934z"/>
			<path fill-rule="evenodd" clip-rule="evenodd" fill="#F6E4D0" d="M276.09,304.53c-0.525,1.426,0.716,2.257,1.082,2.565
				c0.622,0,1.706-0.867,1.813-1.385C278.335,305.428,276.662,304.713,276.09,304.53z"/>
			<path fill-rule="evenodd" clip-rule="evenodd" fill="#ECCAAF" d="M221.609,327.016c0,0,1.722,1.368,4.501,0.463
				c2.418-0.789,3.91-4.606,2.917-7.659c-0.616-1.9-2.604-5.831-5.883-7.351c-0.076,0.77-0.387,2.842-0.591,4.155
				c6.586-2.363,5.262,9.961-0.677,7.127C221.432,324.855,221.609,327.016,221.609,327.016z"/>
			<path fill-rule="evenodd" clip-rule="evenodd" fill="#824E20" d="M279.842,316.291c0.051-1.047,0.093-1.992,0.125-2.753
				c-0.06,0-1.064-0.792-1.775-1.382c-0.05,0.449-0.086,1.612-0.145,2.897C278.604,315.526,279.209,315.936,279.842,316.291z"/>
			<path fill-rule="evenodd" clip-rule="evenodd" fill="#94632B" d="M279.594,320.728c0.079-1.244,0.147-2.498,0.205-3.659
				c-0.627-0.341-1.231-0.715-1.798-1.152c-0.024,0.421-0.053,0.839-0.082,1.238c-0.043,0.529-0.021,1.371,0.008,2.399
				C278.456,319.986,279.014,320.371,279.594,320.728z"/>
			<path fill-rule="evenodd" clip-rule="evenodd" fill="#A37736" d="M277.949,320.468c0.064,2.656,0.073,6.26-0.717,9.553
				c-0.172,0.723-0.916,1.446-1.188,2.116c-0.608,1.529-0.908,3.908-1.098,5.764c-0.336,3.235-0.87,6.703-1.442,10.174
				c-0.403,2.426-0.926,4.626-1.334,6.861c-0.408,2.23-0.836,6.6-0.62,7.044c0.217,0.449,4.736,1.512,5.429,0.936
				c-0.133-3.484,0.018-9.401,0.018-13.093c0-3.689,0.924-14.522,1.763-18.192c0.714-3.136,0.554-6.54,0.76-9.747
				c0.009-0.116,0.018-0.241,0.025-0.357C278.992,321.21,278.464,320.844,277.949,320.468z"/>
			<path fill-rule="evenodd" clip-rule="evenodd" fill="#56267D" d="M267.62,315.923c-0.924,1.382-3.171,7.512-4.461,10.304
				c1.836,1.534,4.763-0.075,6.865-0.277c1.376-0.127,2.439,0.197,3.512,0.817c0.749-1.778,1.616-7.537,0-7.844
				c-1.644,0.283-3.609,0-4.526-0.77c-0.075-0.748,0.454-3.075,0.454-3.075S268.544,314.54,267.62,315.923z"/>
			<path fill-rule="evenodd" clip-rule="evenodd" fill="#FFFFFF" d="M222.723,318.066c0.872,0.745,2.144,1.518,3.388,1.612
				C226.794,317.914,223.735,316.438,222.723,318.066z"/>
			<path fill-rule="evenodd" clip-rule="evenodd" fill="#ECCAAF" d="M156.684,320.95c0.637,2.49,1.213,6.595,1.213,9.382
				c0.483,0.041,1.323,0.219,1.72,0.305c0.357-3.307,0.443-7.642,0.177-11.127C158.956,320.351,157.719,320.745,156.684,320.95z"/>
			<path fill-rule="evenodd" clip-rule="evenodd" fill="#68428A" d="M268.159,327.224c-0.452,3.905-3.537,26.593-5.385,27.521
				c-1-3.54-3.656-9.839-4.61-10.841c-0.075,2.385-0.152,5.224-0.386,7.609c1.425,3.108,4.844,12.758,6.143,13.182
				c0.931,0.305,3.809-1.479,3.984-2.374c0.134-0.682-0.361-5.349,0.341-10.683c1.1-8.321,2.375-17.721,3.39-24.413
				C269.85,326.766,268.85,327.071,268.159,327.224z"/>
			<path fill-rule="evenodd" clip-rule="evenodd" fill="#56267D" d="M162.885,332.755c-0.616-0.526-7.062-1.991-7.548-1.498
				c-0.489,0.482-2.608,11.522-3.666,15.273c2.116,0.194,5.562,0.221,7.904,0c0.396-1.764,0.969-5.252,1.515-7.864
				c0.737,0.621,0.251,4.241-0.086,6.102c0.989,0.596,3.206,0.839,4.752,0.571C165.448,340.748,163.504,333.289,162.885,332.755z"/>
			<path fill-rule="evenodd" clip-rule="evenodd" fill="#68428A" d="M168.404,357.481c-0.31,0.853-1.544,4.991-2.605,5.033
				c-1.058,0.045-1.986-4.329-2.648-7.545c-0.662-3.23-0.882-7.066-0.974-8.44c-0.57,0.047-1.234-0.263-1.234-0.263l-0.174,1.321
				c0,0-0.931,0.139-1.943,0.183c0.306,3.484,2.382,15.766,2.911,17.923c0.535,2.174,2.076,4.593,3.761,4.593
				c1.287,0.003,2.209-2.396,2.713-3.98c0.503-1.582,2.135-5.736,3.326-7.717c-0.306-1.548-0.705-4.465-0.881-6.138
				C169.597,354.215,169.027,355.783,168.404,357.481z"/>
			<path fill-rule="evenodd" clip-rule="evenodd" fill="#68428A" d="M178.516,376.911c-1.485,6.016-5.617,18.549-5.302,29.662
				c0.234,8.423,2.922,15.946,3.088,25.754c0.111,6.31,1.784,14.586,2.396,21.045c1.003,1.172,1.924,1.947,2.674,3.233
				c1.082-1.283,3.676-3.509,5.346-4.678c0.501,2.953,0.501,7.069,0.501,9.911c2.503,1.742,6.959,5.57,8.372,7.636
				c-1.203,0.512-5.979,0.886-8.481,1.163c-0.895,3.008-3.371,8.672-4.32,9.52c-1.03-1.504-1.753-6.457-2.033-9.575
				c-0.701,0.003-1.503-0.111-2.224-0.28c-0.694,4.65-1.253,10.279-1.502,15.874c-0.256,5.559-0.237,22.873-0.238,27.036
				c2.385-1.102,5.566-1.499,9.474-0.837c2.805,0.471,17.328,5.52,19.271,6.18c4.273,1.46,14.763,2.072,20.318,1.701
				c1.109-0.075,2.375-0.241,3.224-0.172c-0.629,0.9-4.022,1.13-7.823,1.119c-3.778-0.011-8.476-0.443-12.27-0.947
				c-0.709-0.097-3.402-0.729-3.984-0.931c-1.937-0.681-11.456-3.966-14.497-4.831c-2.9-0.834-6.784-1.728-10.18-1.061
				c-2.694,0.526-4.982,1.626-6.358,2.958c-1.335,1.293-1.677,3.088-1.263,4.542c3.482-0.681,5.9-2.393,9.834-2.628
				c9.135-0.549,23.398,4.135,26.842,5.235c4.282-0.219,14.676,0.141,18.257-0.152c7.297-0.579,12.79-4.122,20.347-4.152
				c0.735-2.313,2.281-6.113,3.645-8.224c1.551,1.534,3.939,5.191,5.126,7.013c2.073-0.637,6.974-1.947,10.157-2.166
				c3.176-0.219,9.442-0.438,12.863-0.438c1.975,0,6.563-0.399,11.694-0.593c0.388-0.823,0.917-2.238,1.228-2.811
				c-1.55-1.764-3.306-3.778-3.843-4.905c2.029-0.607,5.432-0.125,7.067,0.404c0.868-0.997,2.515-2.828,3.52-3.368
				c0.496,1.069,0.98,3.457,1.186,4.916c1.075,0.346,3.415,1.185,4.302,2.116c-1.317,1.208-3.667,2.69-4.771,3.446
				c2.914-0.266,7.904-0.709,9.289,0.033c-0.486,0.59-5.934,0.775-7.97,0.933c-7.02,0.532-14.872,0.621-20.614,0.975
				c-0.043,1.102-0.482,4.551-1.003,5.637c-1.469-0.607-3.278-1.667-4.661-3.052c-1.223,0.681-2.547,1.654-4.41,2.712
				c-0.123-0.707-0.215-3.709,0.337-5.083c-6.504-0.499-13.577,2.615-17.803,3.133c-2.648,0.332-5.596-0.117-8.645,0.341
				c-5.114,0.77-10.126,3.313-15.682,3.897c-3.895,0.413-13.743,0.23-17.803,0.258c6.023,1.856,12.986,2.454,20.008,2.454
				c5.883,0,11.87-1.166,17.803-0.931c5.85,0.233,11.69,1.474,17.378,1.612c7.305,0.18,15.165-0.704,22.887-0.682
				c3.859,0.014,7.706,0.773,11.532,0.593c4.101-0.188,8.073,0.368,11.953,0.089c3.843-0.274,11.687,0.149,12.262-0.648
				c0.283-0.388-0.878-1.856-2.823-2.825c-1.943-0.969-11.391-2.207-14.881-2.296c-5.164-0.13-9.448,0.806-11.853,1.022
				c-2.409,0.216-9.675,1.182-11.275,1.526c-2.706,0.579-9.891,0.864-10.595,0.252c2.465-0.285,5.22-0.332,7.966-0.593
				c2.065-0.188,5.581-1.058,9.066-1.543c3.49-0.485,8.541-0.878,14.161-1.593c0.896-1.593,2-3.266,3.56-4.493
				c1.27,1.097,3.032,3.302,3.784,4.714c2.118,0.222,3.965,0.488,6.049,0.928c-0.216-0.956-5.66-6.24-7.372-8.351
				c-2.356-2.914-5.199-5.202-7.884-7.889c-2.615-2.615-5.466-5.152-8.395-7.379c-2.968-2.252-6.284-4.213-8.984-6.78
				c-6.984-6.626-10.145-16.381-14.917-25.344c-2.318,3.767-5.607,6.667-8.002,7.498c-0.335-1.726,0.23-8.863,1.226-11.694
				c-2-1.681-5.832-4.31-7.964-6.398c1.183-0.31,6.685-0.621,8.52-0.169c-3.281-5.445-4.991-13.797-5.614-20.123
				c-0.63-6.326-4.238-15.453-4.702-24.219c-0.35-6.648-4.336-22.53-5.322-24.308c-1.413,3.094-3.931,10.42-5.272,14.309
				c-2.033,5.864-5.016,23.887-2.206,31.446c0.762,2.041,2.532,4.615,4.408,2.291c0.482-0.595,1.348-3.49,0.245-3.977
				c-1.105-0.482-1.987,1.235-2.022,2.116c-0.625,0.022-1.053-1.573-1.192-2.291c-0.513-2.701,1.753-5.11,4.45-4.504
				c2.561,0.568,5.297,3.443,4.108,9.005c-0.911,4.243-5.645,7.501-10.505,7.113c-4.706-0.374-8.286-1.753-11.274-4.407
				c-6.173-5.487-10.431-11.459-14.43-17.805c-1.518-2.418-2.645-5.221-3.713-7.885c-0.454-1.13-1.152-2.828-1.895-3.778
				c-1.782-2.271-4.997-3.16-7.767-4.185c-3.854-1.435-7.545-3.988-10.006-6.362c-2.281-2.199-5.76-6.581-7.127-11.525
				C182.61,384.526,179.929,380.177,178.516,376.911z"/>
			<linearGradient id="SVGID_7_" gradientUnits="userSpaceOnUse" x1="178.534" y1="465.8394" x2="193.0494" y2="465.8394">
				<stop  offset="0" style="stop-color:#F6D800"/>
				<stop  offset="1" style="stop-color:#E2A616"/>
			</linearGradient>
			<path fill-rule="evenodd" clip-rule="evenodd" fill="url(#SVGID_7_)" d="M181.092,458.718c-0.557-0.773-1.28-1.726-2.199-2.637
				c0.083,3.864-0.021,8.62-0.359,12.664c0.643,0.227,1.946,0.496,2.949,0.496c0.339,2.576,1.003,6.24,1.648,8.118
				c1.029-2.169,2.558-4.894,2.863-7.78c2.284-0.114,5.07-0.443,7.056-1.036c-0.949-1.224-5.105-4.589-7.207-5.927
				c0.151-2.894,0.374-6.567-0.292-8.296C183.736,455.724,182.93,456.827,181.092,458.718z"/>
			<linearGradient id="SVGID_8_" gradientUnits="userSpaceOnUse" x1="259.0573" y1="464.0388" x2="269.6949" y2="464.0388">
				<stop  offset="0" style="stop-color:#F6D800"/>
				<stop  offset="1" style="stop-color:#E2A616"/>
			</linearGradient>
			<path fill-rule="evenodd" clip-rule="evenodd" fill="url(#SVGID_8_)" d="M269.695,465.455c-1.224-2.618-4.014-7.29-4.955-8.742
				c-1.782-0.33-4.288-0.388-5.682-0.274c1.118,1.737,4.955,4.008,6.138,4.983c-0.514,2.587-1.613,7.747-1.183,10.271
				C265.63,470.637,268.248,468.072,269.695,465.455z"/>
			<linearGradient id="SVGID_9_" gradientUnits="userSpaceOnUse" x1="290.542" y1="510.2098" x2="303.1599" y2="510.2098">
				<stop  offset="0" style="stop-color:#F6D800"/>
				<stop  offset="1" style="stop-color:#E2A616"/>
			</linearGradient>
			<path fill-rule="evenodd" clip-rule="evenodd" fill="url(#SVGID_9_)" d="M296.307,508.725c-1.446-0.504-3.522-0.9-5.765-0.933
				c0.786,1.49,2.421,3.08,3.304,3.781c-0.226,0.526-0.921,2.05-1.148,3.097c1.417,0.009,4.502-0.041,6.137-0.091
				c1.368-0.925,3.728-2.282,4.325-3.136c-0.686-0.604-2.426-1.23-3.548-1.698c-0.043-1.338-0.115-3.025-0.598-3.994
				C297.98,506.337,297.113,507.825,296.307,508.725z"/>
			<path fill-rule="evenodd" clip-rule="evenodd" fill="#55133A" d="M184.496,520.375c3.727,0.46,7.296,1.916,10.525,3.783
				c1.346,0.787,2.744,1.637,4.026,2.615c4.125-0.911,7.449-1.709,8.33-2.111c-5.969-2.629-12.941-4.49-20.516-5.171
				c-2.635-0.235-5.137,0.078-7.433,0.615C181.122,520.076,182.818,520.167,184.496,520.375z"/>
			<path fill-rule="evenodd" clip-rule="evenodd" fill="#621643" d="M184.955,526.175c0.964,0.931,1.788,1.955,2.515,3.047
				c3.431-0.706,7.264-1.507,10.661-2.246c-1.263-0.933-2.622-1.751-3.983-2.493c-3.383-1.85-7.003-3.23-10.878-3.534
				c-1.909-0.144-3.846-0.241-5.756-0.047c-0.683,0.064-1.338,0.205-1.985,0.363c-0.821,0.285-1.582,0.568-2.313,0.85
				C177.444,522.12,181.879,523.219,184.955,526.175z"/>
			<path fill-rule="evenodd" clip-rule="evenodd" fill="#70184B" d="M184.797,527.003c-3.635-3.493-8.753-4.507-13.674-4.102
				c-0.59,0.221-1.241,0.46-1.921,0.706c2.957,0.355,6.167,1.404,7.711,3.925c0.68,1.116,1.07,2.316,1.285,3.559
				c0.738-0.13,1.456-0.269,2.135-0.41c1.656-0.341,3.928-0.803,6.454-1.321C186.201,528.512,185.543,527.72,184.797,527.003z"/>
			<path fill-rule="evenodd" clip-rule="evenodd" fill="#611542" d="M171.147,532.163c2.125-0.299,4.345-0.612,6.417-0.967
				c-0.175-1.047-0.489-2.047-1.033-2.933c-1.823-2.98-5.594-3.933-8.916-4.077c-1.066,0.388-2.169,0.789-3.242,1.169
				C168.093,525.917,170.571,528.737,171.147,532.163z"/>
			<path fill-rule="evenodd" clip-rule="evenodd" fill="#70184B" d="M162.572,532.083c0.098,0.46,0.154,0.914,0.177,1.352
				c1.8-0.377,4.623-0.762,7.718-1.186c-0.621-3.598-3.573-6.421-7.851-6.271c-1.389,0.488-2.645,0.92-3.588,1.238
				C160.853,528.08,162.158,530.18,162.572,532.083z"/>
			<path fill-rule="evenodd" clip-rule="evenodd" fill="#70184B" d="M153.36,534.307c-0.21,0.438-0.455,0.834-0.719,1.205
				c3.592-0.02,6.649-1.252,9.469-1.925c-0.018-0.26-0.05-0.521-0.105-0.776c-0.456-2.105-1.796-4.836-4.115-5.243
				c-1.576,0.443-3.367,0.554-5.036,0.454C154.227,529.753,154.421,532.102,153.36,534.307z"/>
			<path fill-rule="evenodd" clip-rule="evenodd" fill="#70184B" d="M141.329,521.183c-1.701,0.025-3.327-0.645-4.621-1.731
				c-0.107,1.238-0.109,2.363-0.032,3.263c0.159,1.856,0.597,3.504,1.259,4.961c0.23-0.033,0.456-0.064,0.678-0.125
				c1.11-0.263,4.929-1.518,4.691-3.288c-0.352-0.332-0.671-0.676-0.95-1.03C141.885,522.632,141.555,521.937,141.329,521.183z"/>
			<path fill-rule="evenodd" clip-rule="evenodd" fill="#70184B" d="M140.222,509.528c-0.935,1.108-1.659,2.462-2.202,3.911
				c0.788,1.371,1.742,2.573,3.148,3.318c0.155-0.928,0.424-1.834,0.767-2.681C140.704,512.769,140.207,511.179,140.222,509.528z"/>
			<path fill-rule="evenodd" clip-rule="evenodd" fill="#841251" d="M145.287,506.794c-1.744,0.155-3.173,0.875-4.324,1.95
				c-0.177,1.648,0.152,3.277,1.275,4.612c0.165-0.338,0.347-0.676,0.537-0.981c0.248-0.402,0.626-0.853,1.091-1.282
				C143.96,509.428,144.458,507.96,145.287,506.794z"/>
			<path fill-rule="evenodd" clip-rule="evenodd" fill="#70184B" d="M148.602,510.323c0.748-0.363,1.536-0.54,2.336-0.595
				c-0.982-1.917-2.748-2.886-4.613-2.964c-0.037,0-0.08,0.003-0.119,0.003c-0.836,0.978-1.377,2.246-1.57,3.709
				c0.744-0.515,1.606-0.872,2.465-0.817C147.629,509.692,148.155,509.943,148.602,510.323z"/>
			<path fill-rule="evenodd" clip-rule="evenodd" fill="#671646" d="M149.011,514.375c-0.435,0.468-1.076,0.889-1.996,1.219
				c0.86,0.221,1.776,0.069,2.564-0.352C149.404,514.949,149.215,514.66,149.011,514.375z"/>
			<path fill-rule="evenodd" clip-rule="evenodd" fill="#6C1749" d="M149.441,513.782c0.265,0.344,0.51,0.707,0.728,1.08
				c1.083-0.859,1.734-2.302,1.235-3.991c-0.048-0.163-0.116-0.313-0.174-0.471c-0.731,0.022-1.445,0.161-2.123,0.457
				C149.72,511.672,149.976,512.783,149.441,513.782z"/>
			<path fill-rule="evenodd" clip-rule="evenodd" fill="#621643" d="M141.06,517.486c-1.364-0.651-2.522-1.776-3.362-3.097
				c-0.446,1.399-0.733,2.845-0.899,4.196c1.172,1.133,2.709,1.859,4.36,1.892C140.97,519.524,140.952,518.505,141.06,517.486z"/>
			<path fill-rule="evenodd" clip-rule="evenodd" fill="#621643" d="M143.957,524.82c-0.385,1.582-2.772,2.726-4.137,3.141
				c-0.53,0.161-1.062,0.258-1.587,0.335c0.781,1.482,1.821,2.748,3.105,3.781c0.404-0.077,0.809-0.177,1.209-0.33
				c1.747-0.651,5.756-2.734,4.446-5.091C145.874,526.153,144.839,525.532,143.957,524.82z"/>
			<path fill-rule="evenodd" clip-rule="evenodd" fill="#841251" d="M151.829,527.942c-0.878-0.1-1.703-0.241-2.411-0.424
				c-0.513-0.136-1.017-0.305-1.511-0.49c0.464,2.105-2.143,4.072-3.898,4.875c-0.672,0.302-1.338,0.515-2.004,0.659
				c2.535,1.773,5.865,2.762,9.825,2.939c0.155-0.197,0.309-0.407,0.443-0.632C153.618,532.495,153.775,529.759,151.829,527.942z"/>
			<linearGradient id="SVGID_10_" gradientUnits="userSpaceOnUse" x1="249.2548" y1="515.9383" x2="255.3596" y2="515.9383">
				<stop  offset="0" style="stop-color:#F6D800"/>
				<stop  offset="1" style="stop-color:#E2A616"/>
			</linearGradient>
			<path fill-rule="evenodd" clip-rule="evenodd" fill="url(#SVGID_10_)" d="M251.8,512.88c-0.872,1.615-1.915,3.853-2.546,6.016
				c1.673,0.188,4.554,0.149,6.105-0.421C254.598,516.519,253.044,514.633,251.8,512.88z"/>
			<linearGradient id="SVGID_11_" gradientUnits="userSpaceOnUse" x1="271.8615" y1="518.7022" x2="279.8477" y2="518.7022">
				<stop  offset="0" style="stop-color:#F6D800"/>
				<stop  offset="1" style="stop-color:#E2A616"/>
			</linearGradient>
			<path fill-rule="evenodd" clip-rule="evenodd" fill="url(#SVGID_11_)" d="M272.231,516.865c-0.287,0.806-0.449,2.13-0.33,2.925
				c1.018-0.465,2.449-1.285,3.401-1.986c0.771,0.964,2.647,2.252,3.929,2.955c0.311-1.191,0.469-2.969,0.616-4.013
				C277.819,516.616,273.622,516.569,272.231,516.865z"/>
			<linearGradient id="SVGID_12_" gradientUnits="userSpaceOnUse" x1="306.1207" y1="519.1948" x2="310.5817" y2="519.1948">
				<stop  offset="0" style="stop-color:#F6D800"/>
				<stop  offset="1" style="stop-color:#E2A616"/>
			</linearGradient>
			<path fill-rule="evenodd" clip-rule="evenodd" fill="url(#SVGID_12_)" d="M308.28,517.583c-0.724,0.714-1.716,2.296-2.159,3.133
				c1.102,0,2.93-0.174,4.461,0.091C310.127,519.915,308.993,518.198,308.28,517.583z"/>
			<path fill-rule="evenodd" clip-rule="evenodd" d="M231.964,238.378c-0.008,0.928-0.126,2.097-0.305,3.069
				c-0.644,0.205-1.352,0.173-2.293,0.145c1.914,0.265,5.062,2.915,3.854,7.035c-1.144,3.903-4.383,5.65-8.213,4.648
				c0.088,0.87,0.944,1.622,1.504,2.327c-1.266,0.024-3.592-2.205-4.417-4.971c-1.206,2.087-4.225,4.081-4.799,3.681
				c0.382-0.359,1.097-1.043,1.442-1.692c-3.59,0.422-7.239-3.108-3.001-7.879c-0.518-0.302-1.436-0.988-1.407-1.702
				c1.204-2.124,4.41-4.655,5.339-5.085c0.514,0.342,1.251,1.284,1.426,2.462c-0.913,1.084-2.5,2.474-3.533,3.357
				c1.737-1.093,4.299-0.474,5.074,1.048c0.694-1.814,2.727-3.408,5.407-3.343c-1.298-0.122-2.475-0.326-3.475-0.475
				c-0.234-0.816,0.089-2.559,0.411-3.297C226.905,237.449,230.327,237.583,231.964,238.378z"/>
			<path fill-rule="evenodd" clip-rule="evenodd" fill="#FFFCEA" d="M225.747,238.356c-0.38,0.19-0.493,1.285-0.355,1.825
				c1.064,0.299,5.623,0.469,5.623,0.469s0.264-0.823,0.118-1.735C230.603,238.624,226.926,238.268,225.747,238.356z"/>
			<path fill-rule="evenodd" clip-rule="evenodd" fill="#FFFCEA" d="M220.331,240.152c-0.179-0.443-0.6-1.076-0.856-1.237
				c-1.212,0.674-3.561,2.944-4.326,4.149c0.179,0.324,0.472,0.738,0.825,0.823C216.973,243.448,219.681,241.064,220.331,240.152z"
				/>
			<path fill-rule="evenodd" clip-rule="evenodd" fill="#FFFFFF" d="M225.184,252.042c3.507,1.471,6.509-1.382,7.038-4.329
				c0.531-2.939-2.09-5.483-5.152-4.94C223.156,243.468,221.685,250.568,225.184,252.042z"/>
			<path fill-rule="evenodd" clip-rule="evenodd" fill="#FFFFFF" d="M215.442,250.248c1.589,2.322,5.242,1.324,6.094-0.24
				c0.853-1.555,1.267-5.765-2.532-5.65C216.607,244.437,213.655,247.638,215.442,250.248z"/>
			<path fill-rule="evenodd" clip-rule="evenodd" d="M195.908,426.638c0.309,2.886,0.524,6.116,0.195,8.506
				c-1.411-0.673-5.821-4.324-7.548-6.191c-2.05,0.551-4.844,1.421-7.289,1.186c0.662-1.321,2.444-4.501,3.558-5.781
				c-1.536-2.221-3.105-4.927-3.472-6.595c1.521-0.642,4.14-0.366,5.59-0.424c1.669-2.67,3.285-4.786,4.9-6.459
				c0.778,1.507,1.925,4.858,2.507,7.913c2.785,0.723,5.957,2.39,7.773,3.291C201.141,423.577,198.133,425.533,195.908,426.638z"/>
			<linearGradient id="SVGID_13_" gradientUnits="userSpaceOnUse" x1="182.873" y1="422.7174" x2="200.3617" y2="422.7174">
				<stop  offset="0" style="stop-color:#F6D800"/>
				<stop  offset="1" style="stop-color:#EABA0A"/>
			</linearGradient>
			<path fill-rule="evenodd" clip-rule="evenodd" fill="url(#SVGID_13_)" d="M187.794,418.27c-1.299,0.022-3.58,0.064-4.921,0.299
				c0.56,1.559,2.008,3.728,3.4,5.567c-0.895,1.396-2.341,3.509-2.954,4.789c2.026-0.252,3.789-0.726,5.85-1.338
				c1.536,1.46,4.105,4.094,5.901,5.013c0.194-2.122-0.055-4.789-0.335-6.792c1.782-0.615,4.513-2.119,5.627-3.459
				c-1.426-0.59-3.844-1.723-6.738-2.612c-0.18-1.136-1.279-4.789-1.949-6.905C190.735,413.625,188.089,417.113,187.794,418.27z"/>
			<path fill-rule="evenodd" clip-rule="evenodd" d="M216.193,465.319c-2.299-1.421-7.533-5.598-9.37-7.434
				c-3.399,1-7.686,1.615-10.719,1.332c0.479-1.665,3.045-6.279,4.763-8.794c-2.01-2.232-4.124-5.628-4.792-7.686
				c1.001-0.391,4.676-0.889,7.574-0.947c1.838-3.011,4.232-7.016,6.527-9.193c0.055,0,2.827,5.404,3.885,9.861
				c2.841,1.061,7.632,2.728,8.916,4.041c-1.843,2.03-5.74,4.257-8.693,6.207C215.229,456.488,216.247,463.828,216.193,465.319z"/>
			<linearGradient id="SVGID_14_" gradientUnits="userSpaceOnUse" x1="198.0768" y1="448.8355" x2="221.0233" y2="448.8355">
				<stop  offset="0" style="stop-color:#F6D800"/>
				<stop  offset="1" style="stop-color:#E2A616"/>
			</linearGradient>
			<path fill-rule="evenodd" clip-rule="evenodd" fill="url(#SVGID_14_)" d="M209.774,435.333c-2.51,2.667-3.845,5.287-5.348,7.678
				c-2.226,0.058-4.763,0.379-6.349,0.842c0.183,1.097,2.896,4.398,4.403,6.404c-1.561,2.282-3.642,6.24-3.734,7.628
				c2.449-0.227,6.07-0.892,8.408-1.62c2.419,1.859,5.124,4.515,7.521,6.074c-0.364-3.398-1.172-6.908-1.893-10.304
				c2.939-1.975,5.525-3.252,8.242-5.448c-1.863-0.922-5.295-2.238-8.222-3.221C211.833,438.942,209.803,435.333,209.774,435.333z"
				/>
			<path fill-rule="evenodd" clip-rule="evenodd" d="M248.758,486.059c-3.279-0.77-6.156-2.083-8.521-3.396
				c-1.839,3.121-5.077,7.465-6.75,8.343c-0.332-1.548-0.101-7.229,0.177-10.176c-2.619-1.227-6.959-3.845-8.018-5.457
				c1.843-1.124,5.624-2.174,8.243-2.451c-0.508-3.576-0.114-8.021,0.389-11.251c1.472,1.13,4.735,4.786,6.573,8.129
				c2.836-0.501,8.128-0.889,10.355-0.327c0.249,0.831-2.842,4.57-4.954,6.567C247.474,479.653,248.429,483.281,248.758,486.059z"/>
			<linearGradient id="SVGID_15_" gradientUnits="userSpaceOnUse" x1="227.7249" y1="476.0144" x2="249.4791" y2="476.0144">
				<stop  offset="0" style="stop-color:#F6D800"/>
				<stop  offset="1" style="stop-color:#E2A616"/>
			</linearGradient>
			<path fill-rule="evenodd" clip-rule="evenodd" fill="url(#SVGID_15_)" d="M240.123,471.083c-1.181-1.853-3.113-5.31-5.011-7.182
				c-0.269,2.407,0.077,6.864,0.327,9.98c-2.163,0.54-6.285,1.097-7.714,1.784c1.486,1.379,5.159,3.385,7.387,3.988
				c-0.222,2.457-0.625,6.016-0.524,8.476c1.359-1.62,3.921-5.346,5.004-7.379c1.813,0.914,6.035,3.227,7.543,3.479
				c-0.108-1.404-1.388-5.797-2.458-8.395c1.629-1.631,4.022-3.576,4.802-5.531C246.362,470.141,243.131,470.64,240.123,471.083z"/>
			<path fill-rule="evenodd" clip-rule="evenodd" d="M203.262,483.231c0.64,2.567,0.997,6.121,0.997,8.949
				c3.08,0.421,6.24,1.601,7.782,2.559c-1.781,1.645-4.608,2.886-7.43,3.855c0.176,3.443,0.618,8.036-0.265,10.775
				c-2.713-2.041-5.718-5-7.681-8.243c-2.651,0.352-7.692,1.277-9.982,0.859c0.922-1.454,3.579-5.13,5.167-6.634
				c-1.058-2.471-2.008-6.448-2.138-8.949c1.07-0.005,4.749,1.03,7.311,2.712C198.363,487.422,200.482,484.658,203.262,483.231z"/>
			<linearGradient id="SVGID_16_" gradientUnits="userSpaceOnUse" x1="189.6424" y1="496.2231" x2="209.7847" y2="496.2231">
				<stop  offset="0" style="stop-color:#F6D800"/>
				<stop  offset="1" style="stop-color:#E2A616"/>
			</linearGradient>
			<path fill-rule="evenodd" clip-rule="evenodd" fill="url(#SVGID_16_)" d="M197.34,491.003c-1.888-1.285-4.277-2.105-5.916-2.745
				c0.533,2.318,1.282,5.631,2.033,7.448c-1.606,1.715-2.888,3.604-3.814,4.742c2.288,0.08,5.454-0.748,7.486-1.102
				c1.426,2.39,5.306,6.95,6.56,7.664c0.219-2.684-0.017-6.348-0.571-8.769c2.033-1.108,5.968-2.346,6.667-3.135
				c-2.077-0.839-4.242-1.432-7.023-1.825c0.176-2.919-0.107-5.559-0.393-7.844C200.691,486.619,198.351,489.355,197.34,491.003z"/>
			<path fill-rule="evenodd" clip-rule="evenodd" d="M230.791,500.147c2.102-0.546,7.376-0.399,8.654-0.177
				c-0.665,1.163-3.929,4.083-5.295,5.116c1.104,2.21,2.207,6.803,2.303,8.728c-2.746-1.127-4.776-3.03-6.782-4.831
				c-0.777,2.019-2,5.063-3.476,7.118c-0.832-0.368-1.849-5.229-1.717-7.791c-1.94-0.751-5.033-2.695-6.711-4.548
				c1.811-0.706,5.078-1.764,6.624-2.252c0.353-2.692,1.81-7.415,3.417-9.91C229.027,494.136,230.143,497.094,230.791,500.147z"/>
			<linearGradient id="SVGID_17_" gradientUnits="userSpaceOnUse" x1="220.2394" y1="503.7627" x2="237.0192" y2="503.7627">
				<stop  offset="0" style="stop-color:#F6D800"/>
				<stop  offset="1" style="stop-color:#E2A616"/>
			</linearGradient>
			<path fill-rule="evenodd" clip-rule="evenodd" fill="url(#SVGID_17_)" d="M227.661,494.183c-0.619,1.498-2.101,5.645-2.167,8.257
				c-1.438,0.26-4.282,1.236-5.255,1.764c0.846,1.064,3.181,2.341,5.169,3.401c0.043,2.612,0.335,4.512,1.059,5.736
				c1.194-1.629,2.042-4.534,2.738-5.869c1.732,1.543,3.609,3.058,5.807,4.135c-0.378-2.415-1.264-4.65-2.234-6.875
				c1.569-1.058,3.403-2.426,4.241-3.839c-2.269-0.172-4.548,0.222-6.754,0.615C229.559,499.435,228.804,496.255,227.661,494.183z"
				/>
			<path fill-rule="evenodd" clip-rule="evenodd" d="M268.187,491.579c1.975-1.23,7.409-2.767,8.791-2.95
				c-0.31,1.407-2.708,5.437-3.774,6.933c1.832,1.903,4.44,6.243,5.154,8.177c-3.17-0.269-5.857-1.562-8.48-2.761
				c-0.149,2.316-0.418,5.817-1.269,8.393c-0.971-0.114-3.441-5.025-4.126-7.684c-2.227-0.141-6.139-0.864-8.448-2.224
				c1.622-1.304,4.621-3.432,6.048-4.426c-0.503-2.864-0.528-8.16,0.31-11.224C264.457,486.012,266.545,488.682,268.187,491.579z"/>
			<linearGradient id="SVGID_18_" gradientUnits="userSpaceOnUse" x1="258.7068" y1="496.4807" x2="276.1776" y2="496.4807">
				<stop  offset="0" style="stop-color:#F6D800"/>
				<stop  offset="1" style="stop-color:#E2A616"/>
			</linearGradient>
			<path fill-rule="evenodd" clip-rule="evenodd" fill="url(#SVGID_18_)" d="M263.072,486.497c-0.148,1.734-0.332,6.443,0.438,9.135
				c-1.386,0.731-3.983,2.64-4.803,3.49c1.204,0.817,4.201,1.058,6.571,1.504c0.882,2.662,1.587,4.814,2.72,5.839
				c0.698-2.053,0.632-5.293,0.916-6.875c2.266,1.022,4.674,1.964,7.264,2.36c-1.162-2.346-2.782-4.346-4.486-6.304
				c1.264-1.593,2.696-3.579,3.101-5.293c-2.378,0.557-4.577,1.69-6.707,2.795C266.696,491.258,264.913,488.25,263.072,486.497z"/>
			<path fill-rule="evenodd" clip-rule="evenodd" fill="#916CA2" d="M238.695,147.856c-0.4-1.133-0.577-2.303,0.115-3.343
				c0.694-1.037,7.381-9,7.381-9s-3.461,6.116-4.382,8.883c-0.924,2.768-0.346,6.693-0.346,6.693S239.387,149.82,238.695,147.856z"
				/>
			<path fill-rule="evenodd" clip-rule="evenodd" fill="#916CA2" d="M250.116,159.395c1.079,1.436,3.577,3.692,3.346,7.153
				c-0.23,3.462-1.039,4.616-1.845,5.537c-0.809,0.925,7.265-2.419,5.883-6.113C256.118,162.281,248.039,156.625,250.116,159.395z"
				/>
			<path fill-rule="evenodd" clip-rule="evenodd" fill="#916CA2" d="M234.31,192.391c1.068-1.008,3.808-3.806,3.922-4.731
				c0.115-0.92,0.119-3.806,0.347-4.73c0.23-0.922,1.962,2.654,1.962,5.077C240.542,190.431,232.236,194.352,234.31,192.391z"/>
			<path fill-rule="evenodd" clip-rule="evenodd" fill="#916CA2" d="M218.506,211.082c0.54-0.878,3.112-4.73,3.921-5.423
				c0.809-0.691,1.616,0.807,0.461,2.886C221.734,210.622,217.58,212.58,218.506,211.082z"/>
			<path fill-rule="evenodd" clip-rule="evenodd" fill="#71448B" d="M230.964,216.161c1.845,0,11.766,0.92,15.691,2.997
				c3.922,2.074,8.998,6.462,10.499,8.653c1.496,2.192-2.538-0.692-4.04-1.844c-1.497-1.155-6.691-4.734-10.384-5.886
				C239.042,218.927,228.888,216.161,230.964,216.161z"/>
			<path fill-rule="evenodd" clip-rule="evenodd" fill="#71448B" d="M194.392,208.428c1.04-0.04,3.923,0.231,6.346,0.925
				c2.425,0.69,6.232,2.537,7.038,3.23c0.807,0.692-4.501-0.807-8.076-1.27c-3.577-0.46-8.19-0.807-8.19,1.039
				c0,1.846-0.464,2.425-1.619,0C189.492,211.512,188.507,208.659,194.392,208.428z"/>
			<path fill-rule="evenodd" clip-rule="evenodd" fill="#48216A" d="M217.927,222.967c-3.357,0.213-5.747-1.077-7.038-0.464
				c-1.422,0.678,1.158,2.109,4.268,3.003c1.302,0.371,7.846-0.579,12.117-0.118c4.268,0.462,11.769,2.54,14.768,3.808
				c2.998,1.27-0.809-5.077-9.46-7.501C230.401,221.085,223.356,222.621,217.927,222.967z"/>
			<path fill-rule="evenodd" clip-rule="evenodd" fill="#48216A" d="M245.039,234.387c1.382-0.367,4.268-1.27,8.307-0.576
				c4.034,0.692,7.274,1.73,8.887,2.192c1.611,0.461-3.583-3.577-9.348-4.847C247.118,229.889,241.582,235.314,245.039,234.387z"/>
			<path fill-rule="evenodd" clip-rule="evenodd" fill="#48216A" d="M209.16,226.888c-1.69-1.105-6.923-4.616-9.347-5.767
				c-2.422-1.157-5.768-3.347-6.923-4.385c-1.154-1.039,5.653,0.922,9.347,2.652C205.928,221.121,212.852,229.313,209.16,226.888z"
				/>
			<path fill-rule="evenodd" clip-rule="evenodd" fill="#441C5F" d="M249.425,138.166c1.044-0.05,4.268-0.346,8.075,0
				c3.805,0.348,6.116,1.039,7.037,1.731c0.924,0.694-1.845-2.768-5.998-3.461C254.385,135.742,247.118,138.284,249.425,138.166z"/>
			<path fill-rule="evenodd" clip-rule="evenodd" fill="#E5B593" d="M218.618,228.272c0.576-0.345,3.58-0.691,5.425-0.921
				c1.847-0.233,4.425,0.108,6.344,0.806c1.268,0.463,3.577,0.576,4.272,1.27c0.688,0.689,0.807,2.189,0.92,3.112
				c0.115,0.925-6.805-0.113-11.075-1.039c-4.271-0.92-6.459-1.266-6.459-1.612C218.044,229.543,218.044,228.62,218.618,228.272z"/>
			<path fill-rule="evenodd" clip-rule="evenodd" fill="#E5B593" d="M207.544,360.891c0.697-4.952,7.1-16.824,8.02-13.769
				c0.927,3.047-3.406,20.3-5.891,25.554C207.191,377.928,205.699,374.025,207.544,360.891z"/>
			<path fill-rule="evenodd" clip-rule="evenodd" fill="#E5B593" d="M226.286,265.273c0,0,1.278-0.641,2.127-1.637
				c0.853-0.989,0.924-3.048,0.924-3.048s2.131,2.27,3.124,5.468c0.994,3.194,1.205,5.536,1.205,5.536s-2.129-2.342-3.832-4.048
				C228.132,265.84,226.286,265.273,226.286,265.273z"/>
			<path fill-rule="evenodd" clip-rule="evenodd" fill="#E5B593" d="M280.449,309.854c1.631,1.116,5.891,5.036,4.264,4.825
				c-1.634-0.213-6.177-3.05-7.742-5.11C275.409,307.513,277.754,308.006,280.449,309.854z"/>
			<path fill-rule="evenodd" clip-rule="evenodd" fill="#E5B593" d="M281.374,305.378c-0.893-0.424,2.698-1.13,6.603,0
				c3.904,1.138,8.728,3.407,6.461,3.482C292.162,308.931,283.149,306.234,281.374,305.378z"/>
			<path fill-rule="evenodd" clip-rule="evenodd" fill="#E5B593" d="M285.207,299.345c0.601,0.202,8.021,2.773,9.866,3.266
				c1.848,0.499,3.976,0.712,5.329,0.355c1.342-0.355-3.267-1.493-6.675-2.41C290.318,299.628,284.144,298.99,285.207,299.345z"/>
			<path fill-rule="evenodd" clip-rule="evenodd" fill="#E5B593" d="M285.065,294.451c0.989,0.088,4.828-0.501,6.179-0.574
				c1.346-0.066,4.185-0.208,5.393-0.64c1.206-0.421-3.264-0.92-5.961-0.709C287.977,292.745,282.792,294.235,285.065,294.451z"/>
			<path fill-rule="evenodd" clip-rule="evenodd" fill="#E5B593" d="M159.674,299.619c0,0-3.353,1.764-5.293,3.967
				c-1.939,2.213-2.558,4.673-2.558,6.886c0,0.969-3.529,0.174-4.235-1.061c-0.704-1.236,1.323-4.939,4.766-7.232
				C155.791,299.885,160.907,298.83,159.674,299.619z"/>
			<path fill-rule="evenodd" clip-rule="evenodd" fill="#E5B593" d="M156.759,321.038c0,0,0.728-0.108,1.606-0.474
				c0.877-0.366,1.325-0.836,1.325-0.836s0.085,1.114,0.127,1.95c0.043,0.836,0.043,2.313,0.043,2.313s-0.404,0.302-1.069,0.424
				c-0.663,0.13-1.305,0.067-1.305,0.067s-0.235-1.499-0.408-2.208C156.909,321.576,156.759,321.038,156.759,321.038z"/>
			<path fill-rule="evenodd" clip-rule="evenodd" fill="#F5E4D2" d="M125.281,282.607c0.851-0.219,3.011,0.584,4.663,2.336
				c1.652,1.749,1.748,6.995-1.749,5.247C124.698,288.44,120.52,283.875,125.281,282.607z"/>
			<path fill-rule="evenodd" clip-rule="evenodd" fill="#F5E4D2" d="M137.619,271.633c0.878,0,2.913,1.55,3.789,3.691
				c0.875,2.141-2.14,4.758-3.886,2.719C135.774,276.005,134.512,271.633,137.619,271.633z"/>
			<path fill-rule="evenodd" clip-rule="evenodd" fill="#F5E4D2" d="M155.982,271.146c0.12-0.794,0.969-2.138,2.04-2.042
				c1.068,0.1,1.557,2.141,1.263,4.374c-0.292,2.234-3.303,3.597-3.597,2.14C155.399,274.162,155.785,272.41,155.982,271.146z"/>
			<path fill-rule="evenodd" clip-rule="evenodd" fill="#F5E4D2" d="M123.338,303.012c0.73-0.039,3.205,0.291,3.497,1.753
				c0.291,1.454-0.924,2.327-2.04,2.232c-2.234-0.197-3.887-0.778-4.177-1.751C120.326,304.273,121.491,303.112,123.338,303.012z"/>
			<path fill-rule="evenodd" clip-rule="evenodd" fill="#F5E4D2" d="M175.608,290.869c0.429-0.903,2.331-3.205,4.275-3.399
				c1.942-0.194,1.746,4.368-0.875,6.7C176.386,296.503,173.568,295.143,175.608,290.869z"/>
			<path fill-rule="evenodd" clip-rule="evenodd" fill="#F5E4D2" d="M156.176,305.148c1.044-1.404,3.012-3.005,4.86-3.495
				c1.843-0.482,1.068,4.374-0.972,6.9c-2.041,2.526-4.472,4.08-5.15,3.498C154.232,311.469,153.941,308.167,156.176,305.148z"/>
			<path fill-rule="evenodd" clip-rule="evenodd" fill="#F5E4D2" d="M148.308,300.101c1.309-1.313,3.788-2.814,6.508-3.501
				c2.72-0.682,2.331,1.263,1.166,2.238c-1.166,0.969-5.635,2.332-8.163,4.562c-2.525,2.238-3.788,3.21-3.691,2.717
				C144.226,305.638,145.102,303.306,148.308,300.101z"/>
			<path fill-rule="evenodd" clip-rule="evenodd" fill="#F5E4D2" d="M210.71,294.52c1.086-5.695,2.322-12.661,4.592-17.818
				c2.43-5.54,2.566,5.94-1.081,26.463c-2.256,12.714-10.128,46.01-10.128,36.058C204.093,331.929,207.335,312.216,210.71,294.52z"
				/>
			<path fill-rule="evenodd" clip-rule="evenodd" fill="#E8E5D1" d="M224.351,302.625c0,0,5.669,3.244,9.586,9.993
				c3.918,6.75,6.887,15.528,8.237,25.521c1.352,9.993,1.352,20.801-0.267,27.95c-1.623,7.168-5.135,14.863-5.135,14.863
				s12.158-12.154,8.509-42.403c-3.646-30.246-20.39-40.517-20.39-40.517L224.351,302.625z"/>
			<path fill-rule="evenodd" clip-rule="evenodd" fill="#E8E5D1" d="M224.891,296.819c0,0,16.097,10.57,19.987,34.166
				c4.052,24.579,0.539,32.41,0.539,32.41s2.16-2.025,2.429-17.96c0.132-7.761-1.248-18.663-4.319-27.959
				c-6.08-18.364-18.502-24.845-18.502-24.845L224.891,296.819z"/>
			<path fill-rule="evenodd" clip-rule="evenodd" fill="#E8E5D1" d="M223.54,311l0.136-2.698c0,0,10.396,5.262,15.395,25.515
				c4.995,20.259,0.403,29.302,0.403,29.302s2.972-14.445-2.43-31.463C231.787,315.094,223.54,311,223.54,311z"/>
			<path fill-rule="evenodd" clip-rule="evenodd" fill="#E8E5D1" d="M204.768,308.837c0,0-4.861,3.917-6.348,6.482
				c-1.483,2.565-3.104,6.08-4.725,7.83c-1.619,1.759-3.648,3.919-5.941,8.78c-2.299,4.861-4.592,10.802-5.401,17.422
				c-0.811,6.617-0.576,13.902-0.576,13.902s-3.343-6.612-0.775-20.25c2.565-13.641,8.776-20.663,10.803-23.499
				c2.026-2.834,4.861-8.099,7.155-9.996c2.298-1.886,6.482-4.044,6.482-4.044L204.768,308.837z"/>
			<path fill-rule="evenodd" clip-rule="evenodd" fill="#E8E5D1" d="M205.44,304.106c0,0-4.184,2.299-6.752,4.459
				c-2.565,2.16-4.318,4.457-7.289,9.185c-2.972,4.725-6.214,8.775-8.645,15.53c-2.43,6.75-2.835,12.154-2.835,12.154
				s-1.487-6.617,2.835-16.885c4.321-10.262,6.482-15.123,11.075-19.444c4.59-4.321,12.287-8.373,12.287-8.373L205.44,304.106z"/>
			<path fill-rule="evenodd" clip-rule="evenodd" fill="#E8E5D1" d="M204.953,398.973c3.091,1.82,5.831,4.171,8.337,6.725
				c2.321,2.374,4.075,4.241,4.702,7.576c0.813,4.324,3.08,7.656,5.395,11.295c2.314,3.64,4.738,7.257,7.832,10.293
				c1.972,1.931,4.094,3.629,6.322,5.158c2.624,0.886,4.5,1.028,4.5,1.028s-7.429-4.457-11.884-10.265
				c-4.455-5.806-7.967-15.121-12.558-23.497c-4.593-8.371-10.614-9.62-15.667-10.401c-5.623-0.864-9.508-2.504-10.836-3.127
				C194.698,396.691,201.194,396.765,204.953,398.973z"/>
			<path fill-rule="evenodd" clip-rule="evenodd" fill="#E8E5D1" d="M230.603,435.482c-2.928-2.958-5.333-6.31-7.557-9.819
				c-2.187-3.435-4.839-6.847-5.66-10.927c-0.456-2.263-0.778-4.21-2.413-5.988c-1.231-1.335-2.48-2.664-3.809-3.905
				c-3.062-2.856-6.653-5.867-10.834-6.861c-2.843-0.673-6.362-1.346-8.972-3.033c0.819,1.335,2.284,3.288,4.363,4.368
				c3.376,1.756,10.261,3.371,13.91,6.615c3.646,3.243,4.59,9.052,8.237,15.259c3.644,6.215,9.729,12.999,13.234,15.536
				c0.935,0.676,1.873,1.241,2.788,1.728C232.744,437.526,231.644,436.535,230.603,435.482z"/>
			<path fill-rule="evenodd" clip-rule="evenodd" fill="#E8E5D1" d="M201.122,396.342c0,0,7.71,0.856,11.342,3.648
				c5.268,4.052,7.697,9.321,10.534,16.076c2.836,6.75,6.616,12.963,8.915,15.796c2.295,2.834,5.401,5.266,5.401,5.266
				s-6.483-5.944-9.182-16.339c-2.701-10.401-6.079-20.256-11.884-23.499C210.439,394.048,201.122,396.342,201.122,396.342z"/>
			<path fill-rule="evenodd" clip-rule="evenodd" fill="#E8E5D1" d="M191.804,309.646c0,0,3.778-3.642,8.236-6.482
				c4.458-2.839,6.077-3.238,6.077-3.238l1.08-4.728c0,0-4.725,2.426-8.778,6.074C194.371,304.923,191.804,309.646,191.804,309.646z
				"/>
			<path fill-rule="evenodd" clip-rule="evenodd" fill="#785394" d="M155.941,331.597c0.334-0.188,2.461,0.202,3.753,0.576
				c1.291,0.374,2.917,0.836,3.085,1.252c0.165,0.421-1.584,0.332-3.793-0.291C156.778,332.503,155.484,331.844,155.941,331.597z"/>
			<path fill-rule="evenodd" clip-rule="evenodd" fill="#785394" d="M268.649,318.878c0.825,0.332,1.832,0.543,3.043,0.753
				c0.619,0.102,1.627-0.332,1.96-0.127c0.331,0.205,0.496,0.839,0.413,1.205c-0.082,0.377-1.374,0.091-2.538,0
				c-1.169-0.08-2.334-0.537-2.877-0.908C268.105,319.421,266.773,318.13,268.649,318.878z"/>
			<path fill-rule="evenodd" clip-rule="evenodd" fill="#916CA2" d="M248.294,524.05c4.633,0.172,16.31,0,20.495,0.659
				c4.192,0.665,14.108,0.665,18.079,0c3.965-0.659,16.749-2.648,21.159-2.648c4.408,0,16.095,1.989,14.771,3.529
				c-1.327,1.543-12.123-1.762-18.518-1.102c-6.391,0.662-21.161,2.423-29.755,2.423C265.926,526.911,242.34,523.831,248.294,524.05
				z"/>
			<path fill-rule="evenodd" clip-rule="evenodd" fill="#916CA2" d="M175.993,515.893c1.978-1.116,6.393-3.307,11.686-1.543
				c5.287,1.762,16.309,5.069,19.394,6.171c3.086,1.1-1.099,1.319-5.951-0.443c-4.85-1.759-14.549-4.631-17.854-3.745
				C179.961,517.214,170.923,518.757,175.993,515.893z"/>
			<path fill-rule="evenodd" clip-rule="evenodd" fill="#916CA2" d="M180.404,508.619c2.424,0,10.8,0.44,16.09,2.867
				c5.29,2.421,14.989,5.947,20.938,6.39c5.954,0.443,3.307-0.665-2.866-2.645c-6.171-1.986-14.764-5.955-20.937-8.373
				C187.457,504.434,177.317,508.619,180.404,508.619z"/>
			<path fill-rule="evenodd" clip-rule="evenodd" fill="#916CA2" d="M261.077,515.231c3.54-0.82,18.957-1.986,22.923-1.986
				c3.971,0,2.868-2.202,0.663-2.426c-2.203-0.216-9.478,0-14.549,0.886C265.046,512.586,255.346,516.558,261.077,515.231z"/>
			<path fill-rule="evenodd" clip-rule="evenodd" fill="#916CA2" d="M164.75,364.68c0.75,1.945,2.426,5.069,0.443,4.847
				c-1.983-0.216-2.645-4.182-3.306-6.387C161.225,360.94,163.652,361.813,164.75,364.68z"/>
			<path fill-rule="evenodd" clip-rule="evenodd" fill="#916CA2" d="M264.755,356.908c0.489-1.87,2.598-4.886,2.673-1.837
				c0.076,3.055,0.15,5.886-0.154,6.952c-0.305,1.069-3.358,1.983-3.591,0.914C263.457,361.874,264.067,359.5,264.755,356.908z"/>
			<path fill-rule="evenodd" clip-rule="evenodd" fill="#552973" d="M184.205,387.118c0,0,1.936,6.604,6.8,10.949
				c7.07,6.324,12.175,7.21,15.032,8.639c2.853,1.426,3.533,2.723,4.961,5.916c1.431,3.199,3.809,8.431,6.393,12.104
				c2.584,3.676,8.095,10.409,10.476,12.586c2.381,2.171,5.099,3.531,5.099,3.531s-4.148,0.28-11.969-6.936
				c-7.821-7.204-12.039-17.815-15.098-21.153c-3.062-3.327-9.199-5.75-14.758-10.47
				C183.524,395.827,184.205,387.118,184.205,387.118z"/>
			<path fill-rule="evenodd" clip-rule="evenodd" fill="#552973" d="M239.836,442.753c0,0,3.195,0.136,5.711-0.82
				c2.518-0.95,4.694-3.194,5.443-4.964c0.748-1.767,0.816-3.468,0.816-3.468s2.583,5.238-1.699,8.977
				C245.822,446.218,239.836,442.753,239.836,442.753z"/>
			<path fill-rule="evenodd" clip-rule="evenodd" fill="#552973" d="M248.765,387.595c0,0-2.474,6.446-4.151,11.387
				c-1.679,4.95-2.914,9.716-3.443,14.312c-0.53,4.589-0.616,7.858-0.616,7.858s3.44-6.797,5.558-14.484
				C248.23,398.981,248.765,387.595,248.765,387.595z"/>
			<path fill-rule="evenodd" clip-rule="evenodd" fill="#552973" d="M179.707,509.462c1.055-0.094,7.242,0,10.953,0.881
				c5.519,1.313,11.039,4.152,15.538,5.562c4.506,1.413,9.628,2.651,12.806,2.739c3.18,0.089-0.44,1.413-6.8,0.612
				c-6.357-0.786-14.13-3.615-18.631-5.207c-4.507-1.582-8.301-2.734-11.041-2.557c-2.736,0.174-4.238,0.706-4.68,0.44
				C177.414,511.666,177.677,509.636,179.707,509.462z"/>
			<path fill-rule="evenodd" clip-rule="evenodd" fill="#552973" d="M283.383,516.965c1.145-0.022,13.068-0.709,17.04-0.886
				c3.975-0.174,7.065-0.612,7.951-0.703c0.883-0.089-4.591,2.296-12.277,3.357C288.412,519.79,279.409,517.051,283.383,516.965z"/>
			<path fill-rule="evenodd" clip-rule="evenodd" fill="#552973" d="M225.542,476.08c0,0,1.587,1.767,3.532,2.825
				c1.942,1.058,3.971,2.122,3.971,2.122s0,1.498-0.087,2.825c-0.087,1.321-0.087,3.531-0.087,3.531s-3.796-3.889-5.209-6.008
				C226.247,479.254,225.542,476.08,225.542,476.08z"/>
			<path fill-rule="evenodd" clip-rule="evenodd" fill="#552973" d="M217.768,504.426c0,0,1.501,1.413,3.003,2.471
				c1.502,1.064,3.091,1.501,3.091,1.501s0.265,1.679,0.53,3.443c0.266,1.77,1.151,4.415,1.151,4.415s-2.828-3.088-4.507-5.562
				C219.357,508.221,217.768,504.426,217.768,504.426z"/>
			<path fill-rule="evenodd" clip-rule="evenodd" fill="#552973" d="M195.868,443.67c0,0,0.619,1.853,1.854,3.626
				c1.235,1.762,2.472,3.177,2.472,3.177s-1.501,2.468-2.472,4.235c-0.971,1.764-1.766,3.886-1.766,3.886s-1.15-3.182-1.238-7.863
				C194.631,446.052,195.868,443.67,195.868,443.67z"/>
			<path fill-rule="evenodd" clip-rule="evenodd" fill="#552973" d="M255.918,500.008c0,0,1.945,1.061,3.882,1.501
				c1.944,0.44,4.152,0.623,4.152,0.623s0.619,1.764,1.327,3.352c0.707,1.593,2.296,3.709,2.296,3.709s-2.913-1.058-6.181-3.709
				C258.126,502.836,255.918,500.008,255.918,500.008z"/>
			<path fill-rule="evenodd" clip-rule="evenodd" fill="#552973" d="M181.384,430.602c0,0,1.414,0,3.534-0.352
				c2.12-0.357,3.354-0.801,3.354-0.801s1.854,2.033,3.534,3.269c1.677,1.238,3.622,2.476,3.622,2.476s-5.742-1.504-8.832-2.559
				C183.505,431.571,181.384,430.602,181.384,430.602z"/>
			<path fill-rule="evenodd" clip-rule="evenodd" fill="#552973" d="M268.313,327.392c0,0,1.202-0.277,1.739-0.235
				c0.708,0.055,1.367,0.235,1.367,0.235l-0.399,2.626c0,0-1.415-0.177-1.943-0.091c-0.532,0.091-1.152,0.446-1.152,0.446
				L268.313,327.392z"/>
			<path fill-rule="evenodd" clip-rule="evenodd" fill="#552973" d="M158.911,347.872c0,0,0.372-0.064,0.888-0.094
				c0.62-0.039,1.081-0.086,1.081-0.086l0.143-1.277c0,0,0.263,0.089,0.513,0.138c0.249,0.055,0.533,0.069,0.533,0.069
				s0.051,0.607,0.088,1.191c0.036,0.585,0.176,1.895,0.176,1.895s-0.284,0.36-1.365,0.46c-1.08,0.113-1.773,0.019-1.773,0.019
				L158.911,347.872z"/>
			<path fill-rule="evenodd" clip-rule="evenodd" fill="#552973" d="M235.289,210.139c0,0,1.918,0.143,3.056,0.212
				c1.136,0.075,2.413,0.147,2.413,0.147s0.715,1.062,1.356,1.914c0.636,0.856,1.703,1.918,1.703,1.918s-2.559-0.78-4.833-1.918
				C236.71,211.278,235.289,210.139,235.289,210.139z"/>
			<path fill-rule="evenodd" clip-rule="evenodd" fill="#552973" d="M243.177,192.876c0,0,1.281,0.497,2.415,0.709
				c1.137,0.216,2.205,0.216,2.205,0.216l-0.285,2.273c0,0-1.849-0.924-2.843-1.637
				C243.673,193.729,243.177,192.876,243.177,192.876z"/>
			<path fill-rule="evenodd" clip-rule="evenodd" fill="#552973" d="M251.845,174.19c0,0,1.205,1.493,2.629,2.487
				c1.42,0.996,1.918,1.28,1.918,1.28s-0.284,1.209-0.854,1.845c-0.568,0.64-2.13-1.42-2.913-2.841
				C251.845,175.542,251.845,174.19,251.845,174.19z"/>
			<linearGradient id="SVGID_19_" gradientUnits="userSpaceOnUse" x1="287.7985" y1="196.774" x2="300.6282" y2="196.774">
				<stop  offset="0" style="stop-color:#F7DA37"/>
				<stop  offset="1" style="stop-color:#F9E68E"/>
			</linearGradient>
			<path fill-rule="evenodd" clip-rule="evenodd" fill="url(#SVGID_19_)" d="M292.946,186.276c0,0,0.41,3.018,0.342,5.076
				c-0.069,2.061-0.273,3.227-0.273,3.227s1.99,0.274,3.908,0.96c1.922,0.686,3.705,1.784,3.705,1.784s-3.563,2.059-5.968,2.953
				c0.069,3.088-0.479,6.996-0.479,6.996s-1.443-1.99-3.64-5.145c-2.197-3.156-2.744-7.961-2.744-7.961L292.946,186.276z"/>
		</g>
		<g>
			<path fill-rule="evenodd" clip-rule="evenodd" d="M230.478,249.863c0,1.115-0.908,2.028-2.03,2.028
				c-1.12,0-2.028-0.913-2.028-2.028c0-1.122,0.907-2.029,2.028-2.029C229.57,247.834,230.478,248.742,230.478,249.863z"/>
			<circle fill-rule="evenodd" clip-rule="evenodd" fill="#FFFFFF" cx="229.069" cy="249.298" r="0.732"/>
		</g>
		<g>
			<path fill-rule="evenodd" clip-rule="evenodd" d="M221.349,249.47c0,0.868-0.704,1.575-1.578,1.575s-1.578-0.707-1.578-1.575
				c0-0.871,0.704-1.583,1.578-1.583S221.349,248.599,221.349,249.47z"/>
			<circle fill-rule="evenodd" clip-rule="evenodd" fill="#FFFFFF" cx="220.166" cy="249.016" r="0.564"/>
		</g>
	</g>
</g>
</svg>
