<?xml version="1.0" encoding="utf-8"?>
<!-- Generator: Adobe Illustrator 16.0.0, SVG Export Plug-In . SVG Version: 6.00 Build 0)  -->
<!DOCTYPE svg PUBLIC "-//W3C//DTD SVG 1.1//EN" "http://www.w3.org/Graphics/SVG/1.1/DTD/svg11.dtd">
<svg version="1.1" id="Layer_1" xmlns="http://www.w3.org/2000/svg" xmlns:xlink="http://www.w3.org/1999/xlink" x="0px" y="0px"
	 width="20px" height="20px" viewBox="0 0 20 20" enable-background="new 0 0 20 20" xml:space="preserve">
<g>
	<path fill-rule="evenodd" clip-rule="evenodd" fill="#E6EAEB" d="M14.936,1.277l2.388,1.377l0,0
		c0.009,0.003,0.015,0.009,0.022,0.015c0.132,0.074,0.212,0.226,0.224,0.441v0.955l0,0v5.96l0,0v0.955
		c-0.012,0.228-0.092,0.476-0.224,0.698c-0.134,0.233-0.324,0.44-0.53,0.56L5.522,18.756c-0.206,0.123-0.395,0.133-0.53,0.056
		c-0.007-0.008-0.015-0.008-0.023-0.018l0,0l-2.385-1.376l-0.021-0.017l-0.021-0.016L2.52,17.362L2.503,17.34l-0.02-0.021
		l-0.015-0.026l-0.016-0.025l-0.013-0.025l-0.011-0.032l-0.01-0.034l-0.009-0.037l-0.008-0.028L2.395,17.07l-0.004-0.038
		l-0.001-0.04v-0.953H2.388c0-2.308,0.002-4.613,0.002-6.918l0.001-0.043l0.004-0.044l0.006-0.043l0.008-0.044l0.009-0.044
		l0.01-0.044l0.011-0.044L2.453,8.77l0.016-0.044l0.015-0.044l0.02-0.042L2.52,8.595l0.021-0.044L2.563,8.51l0.021-0.045
		l0.022-0.042l0.027-0.042l0.027-0.042l0.028-0.044l0.029-0.041L2.75,8.214L2.78,8.176l0.032-0.039L2.848,8.1L2.88,8.066
		l0.036-0.035l0.035-0.032l0.037-0.031l0.037-0.028l0.039-0.027L3.1,7.887l0.038-0.023l11.298-6.519l0.036-0.021l0.039-0.02
		l0.035-0.015l0.036-0.015l0.036-0.012l0.038-0.008l0.031-0.006l0.037-0.005l0.034-0.002l0.03,0.002l0.03,0.001l0.031,0.006
		l0.029,0.006l0.031,0.011L14.936,1.277z"/>
	<polygon fill-rule="evenodd" clip-rule="evenodd" fill="#C0392B" points="4.771,10.497 2.39,9.121 2.39,10.076 4.771,11.452 	"/>
	<polygon fill-rule="evenodd" clip-rule="evenodd" fill="#BDBDBD" points="17.323,2.654 14.936,1.277 14.911,1.267 14.88,1.256 
		14.851,1.25 14.819,1.244 14.789,1.242 14.759,1.24 14.725,1.242 14.688,1.248 14.656,1.253 14.618,1.262 14.582,1.273 
		14.546,1.289 14.511,1.304 14.472,1.323 14.436,1.345 3.138,7.864 3.1,7.887 3.063,7.912 3.025,7.939 2.988,7.967 2.952,7.999 
		2.917,8.031 2.88,8.066 2.848,8.1 2.813,8.137 2.78,8.176 2.75,8.214 2.718,8.254 2.689,8.295 2.661,8.339 2.634,8.381 
		2.606,8.423 2.584,8.465 2.563,8.51 2.542,8.551 2.52,8.595 2.503,8.639 2.483,8.682 2.469,8.726 2.453,8.77 2.439,8.814 
		2.428,8.859 2.418,8.903 2.409,8.947 2.401,8.991 2.395,9.034 2.391,9.078 2.39,9.121 4.771,10.497 4.775,10.455 4.779,10.411 
		4.785,10.368 4.792,10.323 4.802,10.28 4.812,10.236 4.825,10.19 4.838,10.146 4.852,10.103 4.869,10.058 4.884,10.014 
		4.904,9.972 4.925,9.928 4.946,9.884 4.969,9.842 4.992,9.8 5.018,9.758 5.045,9.714 5.074,9.671 5.102,9.631 5.133,9.59 
		5.166,9.55 5.197,9.514 5.231,9.478 5.264,9.442 5.298,9.407 5.335,9.375 5.372,9.344 5.408,9.315 5.444,9.288 5.485,9.263 
		5.522,9.241 16.815,2.719 16.853,2.698 16.89,2.679 16.929,2.663 16.968,2.65 17.002,2.638 17.037,2.63 17.075,2.623 17.107,2.619 
		17.14,2.617 17.177,2.617 17.208,2.621 17.237,2.626 17.269,2.634 17.291,2.642 	"/>
	<polygon fill-rule="evenodd" clip-rule="evenodd" fill="#9C9C9C" points="4.771,11.452 2.388,10.076 2.388,16.039 2.39,16.039 
		2.39,16.992 2.391,17.032 2.395,17.07 2.401,17.109 2.409,17.138 2.418,17.175 2.428,17.209 2.439,17.241 2.453,17.267 
		2.469,17.292 2.483,17.318 2.503,17.34 2.52,17.362 2.542,17.386 2.563,17.401 2.584,17.418 4.969,18.794 4.946,18.78 
		4.925,18.762 4.904,18.742 4.884,18.721 4.869,18.694 4.852,18.669 4.838,18.643 4.825,18.615 4.812,18.583 4.802,18.554 
		4.792,18.518 4.785,18.484 4.779,18.444 4.775,18.41 4.771,18.369 4.771,17.414 4.771,17.414 	"/>
	<path fill-rule="evenodd" clip-rule="evenodd" fill="#E6EAEB" d="M17.346,11.679c0.132-0.223,0.212-0.471,0.224-0.698l-3.963-1.17
		l-1.859,2.693c-0.171,0.251-0.376,0.443-0.58,0.563c-0.2,0.117-0.402,0.157-0.577,0.107l-1.857-0.55l-3.962,5.745
		c0.009,0.214,0.092,0.365,0.221,0.442c0.135,0.077,0.324,0.067,0.53-0.056l11.293-6.518C17.021,12.119,17.212,11.912,17.346,11.679
		z"/>
	<polygon fill-rule="evenodd" clip-rule="evenodd" fill="#E6EAEB" points="4.771,11.452 4.771,17.414 4.771,17.414 4.771,18.369 
		8.733,12.624 8.185,12.461 	"/>
	<polygon fill-rule="evenodd" clip-rule="evenodd" fill="#E6EAEB" points="17.569,10.98 17.569,10.025 17.569,10.025 17.569,4.065 
		14.153,9.017 13.606,9.811 	"/>
	<path fill-rule="evenodd" clip-rule="evenodd" fill="#E6EAEB" d="M16.815,2.719L5.522,9.241C5.316,9.359,5.127,9.566,4.992,9.8
		c-0.129,0.224-0.211,0.47-0.221,0.696v0.956c5.779,1.71,0.16,0.05,5.819,1.722c0.175,0.05,0.376,0.01,0.577-0.107
		c0.204-0.119,0.409-0.312,0.58-0.563c5.956-8.637,0.115-0.162,5.822-8.439V3.11c-0.012-0.216-0.092-0.368-0.224-0.441
		C17.212,2.588,17.021,2.599,16.815,2.719z"/>
	<path fill-rule="evenodd" clip-rule="evenodd" fill="#E74C3C" d="M17.569,4.065V3.11l-6.02,8.725
		c-0.114,0.167-0.248,0.292-0.383,0.369c-0.132,0.078-0.264,0.104-0.379,0.072l-6.017-1.78v0.956
		c5.219,1.543,1.253,0.371,5.819,1.722c0.175,0.05,0.376,0.01,0.577-0.107c0.204-0.119,0.409-0.312,0.58-0.563
		C17.703,3.867,11.862,12.342,17.569,4.065z"/>
	<polygon fill-rule="evenodd" clip-rule="evenodd" fill="#9C9C9C" points="4.937,9.902 2.555,8.525 2.542,8.551 2.52,8.595 
		2.503,8.639 2.483,8.682 2.469,8.726 2.453,8.77 2.439,8.814 2.428,8.859 2.418,8.903 2.409,8.947 2.401,8.991 2.395,9.034 
		2.391,9.078 2.39,9.121 4.771,10.497 4.775,10.455 4.779,10.411 4.785,10.368 4.792,10.323 4.802,10.28 4.812,10.236 4.825,10.19 
		4.838,10.146 4.852,10.103 4.869,10.058 4.884,10.014 4.904,9.972 4.925,9.928 	"/>
</g>
</svg>
