<?xml version="1.0" encoding="utf-8"?>
<!-- Generator: Adobe Illustrator 16.0.0, SVG Export Plug-In . SVG Version: 6.00 Build 0)  -->
<!DOCTYPE svg PUBLIC "-//W3C//DTD SVG 1.1//EN" "http://www.w3.org/Graphics/SVG/1.1/DTD/svg11.dtd">
<svg version="1.1" id="Layer_1" xmlns="http://www.w3.org/2000/svg" xmlns:xlink="http://www.w3.org/1999/xlink" x="0px" y="0px"
	 width="60px" height="60px" viewBox="0 0 60 60" enable-background="new 0 0 60 60" xml:space="preserve">
<g>
	<path fill-rule="evenodd" clip-rule="evenodd" fill="#CFAA8A" d="M35.534,46.345c-8.635,0-15.638,0.988-15.638,2.2
		c0,1.217,7.003,2.201,15.638,2.201c8.634,0,15.638-0.984,15.638-2.201C51.172,47.333,44.168,46.345,35.534,46.345z"/>
	<g>
		<g>
			<path fill-rule="evenodd" clip-rule="evenodd" fill="#C26A39" d="M22.213,35.612l1.535,10.417
				c-1.195,0.251-2.077,1.099-2.077,1.821c0,0.859,1.244,1.218,2.777,1.218c1.534,0,2.778-0.358,2.778-1.218
				c0-0.514-0.446-1.091-1.135-1.473l0.254-10.563L22.213,35.612z"/>
			<path fill-rule="evenodd" clip-rule="evenodd" fill="#C26A39" d="M32.888,35.612l-1.532,10.417
				c1.193,0.251,2.073,1.099,2.073,1.821c0,0.859-1.241,1.218-2.772,1.218s-2.772-0.358-2.772-1.218
				c0-0.514,0.446-1.091,1.132-1.473l-0.253-10.563L32.888,35.612z"/>
			<path fill-rule="evenodd" clip-rule="evenodd" fill="#C26A39" d="M37.833,35.612l1.533,10.417
				c-1.193,0.251-2.075,1.099-2.075,1.821c0,0.859,1.243,1.218,2.777,1.218c1.532,0,2.777-0.358,2.777-1.218
				c0-0.514-0.448-1.091-1.135-1.473l0.254-10.563L37.833,35.612z"/>
			<path fill-rule="evenodd" clip-rule="evenodd" fill="#C26A39" d="M48.508,35.612l-1.532,10.417
				c1.192,0.251,2.072,1.099,2.072,1.821c0,0.859-1.241,1.218-2.771,1.218c-1.531,0-2.772-0.358-2.772-1.218
				c0-0.514,0.446-1.091,1.132-1.473l-0.253-10.563L48.508,35.612z"/>
			<path fill-rule="evenodd" clip-rule="evenodd" fill="#C26A39" d="M52.002,23.511l1.445-4.637l1.898,3.562L54.43,15.72
				l-6.453,2.879C47.977,18.599,50.688,20.552,52.002,23.511z"/>
			<path fill-rule="evenodd" clip-rule="evenodd" fill="#C26A39" d="M52.998,26.936c0-12.548-16.648-14.66-25.995-11.173
				c-11.892,4.438-10.249,20.886,0.471,23.092C37.171,40.851,52.998,40.239,52.998,26.936z"/>
			<path fill-rule="evenodd" clip-rule="evenodd" fill="#3D3838" d="M44.199,33.229c-2.75,3.222-8.123,1.369-7.954-2.94
				c2.092,0.991,3.718,1.321,5.101-1.21C41.151,30.996,40.806,32.256,44.199,33.229z"/>
			
				<ellipse transform="matrix(0.3517 -0.9361 0.9361 0.3517 8.1116 58.8646)" fill-rule="evenodd" clip-rule="evenodd" fill="#FFFFFF" cx="46.554" cy="23.576" rx="3.245" ry="2.541"/>
			
				<ellipse transform="matrix(0.3518 -0.9361 0.9361 0.3518 6.5496 52.6566)" fill-rule="evenodd" clip-rule="evenodd" fill="#FFFFFF" cx="41.296" cy="21.599" rx="3.245" ry="2.541"/>
			<path fill-rule="evenodd" clip-rule="evenodd" fill="#3D3838" d="M47.11,25.12c0.839,0.266,1.797-0.387,2.138-1.459
				c0.341-1.072-0.065-2.158-0.905-2.424c-0.839-0.267-1.797,0.387-2.138,1.459c-0.085,0.265-0.122,0.533-0.12,0.787l1.261-0.041
				l-1.074,0.902C46.446,24.717,46.734,25.001,47.11,25.12z"/>
			<path fill-rule="evenodd" clip-rule="evenodd" fill="#3D3838" d="M50.109,21.041c0,0-2.562-0.295-3.535-1.705l0.856-1.056
				C47.431,18.279,47.417,19.652,50.109,21.041z"/>
			<path fill-rule="evenodd" clip-rule="evenodd" fill="#3D3838" d="M40.393,17.386c0,0,2.124,1.468,3.787,1.048l0.05-1.358
				C44.229,17.076,43.337,18.117,40.393,17.386z"/>
			
				<ellipse transform="matrix(0.3518 -0.9361 0.9361 0.3518 1.8774 57.0373)" fill-rule="evenodd" clip-rule="evenodd" fill="#3D3838" cx="42.123" cy="27.163" rx="1.6" ry="2.122"/>
			<path fill-rule="evenodd" clip-rule="evenodd" fill="#3D3838" d="M42.421,27.655c0,0-1.292,2.772-0.577,3.813
				c0.713,1.043,3.501,2.367,5.868,0.33c0,0-1.485,2.469-4.346,1.57c-2.275-0.717-2.614-1.953-2.316-3.407
				c-0.734,1.289-1.806,1.997-3.99,1.035c-2.746-1.209-2.237-4.045-2.237-4.045c0.44,3.093,3.413,3.933,4.636,3.621
				c1.223-0.314,2.079-3.25,2.079-3.25C42.133,27.378,41.938,27.305,42.421,27.655z"/>
			<path fill-rule="evenodd" clip-rule="evenodd" fill="#C26A39" d="M39.159,15.286l1.929-3.52l-3.342,0.682l4.541-3.194
				l2.081,7.109C44.368,16.363,42.344,15.408,39.159,15.286z"/>
			<path fill-rule="evenodd" clip-rule="evenodd" fill="#C26A39" d="M20.047,26.62c0,0-12.976-1.237-10.568-15.159
				c-1.806,2.476-7.893,17.556,10.568,16.551V26.62z"/>
			<path fill-rule="evenodd" clip-rule="evenodd" fill="#B61E47" d="M39.726,34.753c0.349-0.785,4.262-3.147,5.17,1.437
				c0.453,2.291-0.095,4.518-2.769,4.639c-2.667,0.121-1.162-3.297-1.007-4.741c0.068-0.644,0.053-0.97,0.053-1.253
				C40.874,34.881,40.215,34.885,39.726,34.753z"/>
			<path fill-rule="evenodd" clip-rule="evenodd" fill="#3D3838" d="M41.868,23.132c0.839,0.267,1.795-0.386,2.137-1.458
				c0.34-1.072-0.065-2.158-0.905-2.424c-0.839-0.267-1.796,0.386-2.137,1.459c-0.084,0.265-0.123,0.532-0.12,0.787l1.26-0.041
				l-1.074,0.902C41.202,22.73,41.492,23.013,41.868,23.132z"/>
		</g>
		<g>
			<path fill-rule="evenodd" clip-rule="evenodd" fill="#3D3838" d="M13.15,29.007c-0.022-0.003-7.716-0.938-7.919-7.478
				C3.766,25.583,9.06,29.665,13.15,29.007z"/>
			<path fill-rule="evenodd" clip-rule="evenodd" fill="#3D3838" d="M10.202,29.855c-0.012-0.002-3.594-0.408-5.147-3.163
				C5.187,29.319,8.666,30.197,10.202,29.855z"/>
		</g>
	</g>
</g>
</svg>
