<?xml version="1.0" encoding="utf-8"?>
<!-- Generator: Adobe Illustrator 16.0.0, SVG Export Plug-In . SVG Version: 6.00 Build 0)  -->
<!DOCTYPE svg PUBLIC "-//W3C//DTD SVG 1.1//EN" "http://www.w3.org/Graphics/SVG/1.1/DTD/svg11.dtd">
<svg version="1.1" id="Layer_1" xmlns="http://www.w3.org/2000/svg" xmlns:xlink="http://www.w3.org/1999/xlink" x="0px" y="0px"
	 width="100px" height="100px" viewBox="0 0 100 100" enable-background="new 0 0 100 100" xml:space="preserve">
<g>
	<g>
		<linearGradient id="SVGID_1_" gradientUnits="userSpaceOnUse" x1="29.0532" y1="62.582" x2="72.9434" y2="62.582">
			<stop  offset="0.0405" style="stop-color:#262526"/>
			<stop  offset="0.4189" style="stop-color:#2A292B"/>
			<stop  offset="0.9757" style="stop-color:#373639"/>
		</linearGradient>
		<path fill="url(#SVGID_1_)" d="M72.943,29.47l-43.89-0.188v53.931h0.001c0.035,3.229,2.194,6.459,6.476,8.93
			c8.596,4.964,22.491,4.988,31.033,0.056c4.289-2.476,6.413-5.729,6.378-8.985h0.002V29.47z"/>
		<path fill="#3B3B3D" d="M72.943,67.518l-43.89-0.188v10.575h0.001c0.035,3.229,2.194,6.459,6.476,8.93
			c8.596,4.964,22.491,4.989,31.033,0.057c4.289-2.477,6.413-5.73,6.378-8.986h0.002V67.518z"/>
		<path fill="#131315" d="M72.943,67.142l-43.89-0.188v10.573h0.001c0.035,3.23,2.194,6.46,6.476,8.932
			c8.596,4.963,22.491,4.988,31.033,0.056c4.289-2.476,6.413-5.731,6.378-8.987h0.002V67.142z"/>
		<linearGradient id="SVGID_2_" gradientUnits="userSpaceOnUse" x1="29.0532" y1="56.1289" x2="72.9434" y2="56.1289">
			<stop  offset="0.0405" style="stop-color:#262526"/>
			<stop  offset="0.4189" style="stop-color:#2A292B"/>
			<stop  offset="0.9757" style="stop-color:#373639"/>
		</linearGradient>
		<path fill="url(#SVGID_2_)" d="M72.943,23.017l-43.89-0.188V76.76h0.001c0.035,3.229,2.194,6.46,6.476,8.931
			c8.596,4.964,22.491,4.989,31.033,0.057c4.289-2.477,6.413-5.731,6.378-8.987h0.002V23.017z"/>
		<path fill="#3B3B3D" d="M72.943,16.21l-43.89-0.188v10.574h0.001c0.035,3.23,2.194,6.459,6.476,8.931
			c8.596,4.963,22.491,4.988,31.033,0.056c4.289-2.476,6.413-5.731,6.378-8.987h0.002V16.21z"/>
		<path fill="#131315" d="M72.943,15.784l-43.89-0.188V26.17h0.001c0.035,3.229,2.194,6.459,6.476,8.931
			c8.596,4.963,22.491,4.988,31.033,0.056c4.289-2.476,6.413-5.73,6.378-8.986h0.002V15.784z"/>
		<linearGradient id="SVGID_3_" gradientUnits="userSpaceOnUse" x1="29.0532" y1="26.4282" x2="72.9434" y2="26.4282">
			<stop  offset="0.0405" style="stop-color:#262526"/>
			<stop  offset="0.4189" style="stop-color:#2A292B"/>
			<stop  offset="0.9757" style="stop-color:#373639"/>
		</linearGradient>
		<path fill="url(#SVGID_3_)" d="M72.943,14.994l-43.89-0.188v10.575h0.001c0.035,3.229,2.194,6.459,6.476,8.931
			c8.596,4.963,22.491,4.988,31.033,0.056c4.289-2.476,6.413-5.731,6.378-8.986h0.002V14.994z"/>
		<path fill="#505052" d="M66.563,23.954c-8.542,4.932-22.438,4.907-31.033-0.057c-8.597-4.963-8.641-12.985-0.098-17.917
			c8.542-4.933,22.438-4.908,31.033,0.056C75.063,11,75.106,19.022,66.563,23.954z"/>
		<path fill="#00E7F4" d="M66.107,23.69c-8.293,4.788-21.779,4.764-30.125-0.054c-8.344-4.818-8.386-12.605-0.094-17.392
			c8.292-4.788,21.779-4.763,30.123,0.055C74.357,11.116,74.399,18.903,66.107,23.69z"/>
		<path fill="#242426" d="M64.907,22.997c-7.634,4.407-20.048,4.384-27.73-0.05c-7.681-4.435-7.721-11.603-0.086-16.01
			c7.632-4.407,20.047-4.384,27.729,0.05C72.501,11.422,72.54,18.59,64.907,22.997z"/>
		<g>
			<path fill="#7A7A7B" d="M63.8,21.641c-7.025,4.057-18.454,4.036-25.523-0.046c-7.07-4.082-7.106-10.679-0.08-14.736
				C45.222,2.802,56.65,2.823,63.72,6.905C70.79,10.987,70.826,17.584,63.8,21.641z"/>
			<path fill="#505052" d="M63.234,21.315c-6.878,3.972-18.068,3.952-24.991-0.045c-6.924-3.997-6.958-10.457-0.079-14.429
				c6.88-3.972,18.07-3.952,24.993,0.045C70.081,10.883,70.115,17.343,63.234,21.315z"/>
			<g>
				<path fill="#2E2E30" d="M39.223,21.273c-1.578-0.902-1.604-2.367-0.055-3.268c1.57-0.914,4.116-0.919,5.698-0.014
					c1.588,0.909,1.6,2.372,0.028,3.288C43.333,22.189,40.821,22.187,39.223,21.273z"/>
				<path fill="#575758" d="M44.212,18.648c-1.266-0.725-3.302-0.719-4.558,0.011c-1.239,0.72-1.219,1.891,0.044,2.613
					c1.278,0.73,3.286,0.733,4.535,0.005C45.492,20.546,45.481,19.375,44.212,18.648z"/>
				<g>
					<path fill="#DCDADB" d="M42.972,19.425c-0.166-0.097-0.349-0.18-0.55-0.252c-0.373-0.133-0.777-0.216-1.211-0.249
						c-0.216-0.017-0.432-0.019-0.648-0.009c-0.102,0.004-0.184-0.018-0.239-0.068c-0.051-0.047-0.052-0.097-0.007-0.145
						c0.04-0.043,0.104-0.069,0.188-0.074c0.237-0.013,0.473-0.01,0.708,0.005c0.297,0.02,0.584,0.061,0.862,0.122
						c0.229,0.05,0.446,0.114,0.652,0.19c0.18,0.066,0.346,0.142,0.504,0.225c0.157,0.083,0.298,0.176,0.426,0.274
						c0.171,0.131,0.312,0.273,0.423,0.424c0.125,0.17,0.21,0.347,0.253,0.531c0.034,0.148,0.041,0.297,0.019,0.445
						c-0.011,0.08-0.131,0.136-0.272,0.129c-0.13-0.006-0.233-0.075-0.226-0.152c0.014-0.113,0.014-0.225-0.007-0.337
						c-0.028-0.158-0.093-0.312-0.194-0.459c-0.072-0.106-0.162-0.208-0.268-0.305C43.265,19.613,43.127,19.515,42.972,19.425z"/>
					<path fill="#DCDADB" d="M42.632,19.645c0.315,0.186,0.543,0.417,0.655,0.687c0.063,0.151,0.081,0.305,0.059,0.46
						c-0.012,0.077-0.126,0.134-0.259,0.13c-0.136-0.003-0.243-0.069-0.241-0.147c0.002-0.052,0.008-0.104,0.005-0.156
						c-0.012-0.191-0.101-0.37-0.265-0.536c-0.136-0.137-0.311-0.253-0.528-0.349c-0.334-0.146-0.71-0.228-1.129-0.24
						c-0.093-0.003-0.187,0-0.281,0.001c-0.093,0.002-0.169-0.017-0.224-0.061c-0.058-0.048-0.065-0.099-0.02-0.15
						c0.041-0.045,0.106-0.071,0.195-0.076c0.375-0.019,0.74,0.01,1.094,0.085c0.207,0.043,0.401,0.103,0.581,0.176
						C42.395,19.518,42.506,19.573,42.632,19.645z"/>
					<path fill="#DCDADB" d="M41.938,20.067c0.267,0.16,0.418,0.378,0.405,0.634c-0.001,0.036-0.008,0.071-0.044,0.104
						c-0.067,0.062-0.225,0.084-0.333,0.044c-0.092-0.033-0.132-0.08-0.124-0.142c0.015-0.131-0.035-0.254-0.162-0.364
						c-0.174-0.152-0.419-0.242-0.734-0.264c-0.07-0.005-0.141-0.004-0.211-0.002c-0.11,0.002-0.219-0.038-0.254-0.099
						c-0.036-0.063,0.005-0.131,0.1-0.166c0.038-0.015,0.08-0.021,0.125-0.024c0.279-0.012,0.543,0.019,0.794,0.089
						C41.628,19.914,41.784,19.978,41.938,20.067z"/>
					<path fill="#DCDADB" d="M40.48,20.863c-0.197-0.113-0.2-0.295-0.007-0.408c0.196-0.114,0.514-0.115,0.712-0.002
						c0.198,0.113,0.201,0.297,0.004,0.411C40.995,20.977,40.68,20.977,40.48,20.863z"/>
				</g>
			</g>
			<g>
				<g>
					<path fill="#160C0D" d="M62.534,8.646c-0.501,0.29-1.317,0.288-1.822-0.004c-0.506-0.291-0.508-0.763-0.006-1.052
						c0.501-0.29,1.317-0.288,1.822,0.003C63.034,7.884,63.037,8.355,62.534,8.646z"/>
					<path fill="#160C0D" d="M54.369,14.667c-0.699,0.075-1.375-0.191-1.51-0.596s0.322-0.792,1.021-0.868
						c0.7-0.075,1.376,0.191,1.511,0.596C55.526,14.203,55.068,14.591,54.369,14.667z"/>
					<path fill="#160C0D" d="M52.666,12.52c-0.111,0.405-0.773,0.679-1.477,0.612c-0.703-0.067-1.182-0.451-1.07-0.856
						c0.113-0.406,0.774-0.68,1.477-0.612C52.301,11.73,52.779,12.114,52.666,12.52z"/>
					<path fill="#160C0D" d="M48.6,12.696c0.623,0.202,0.846,0.657,0.5,1.014c-0.346,0.358-1.131,0.485-1.753,0.283
						c-0.622-0.202-0.846-0.656-0.499-1.014C47.192,12.621,47.978,12.494,48.6,12.696z"/>
					<path fill="#160C0D" d="M47.779,15.291c0.45-0.318,1.261-0.363,1.814-0.102s0.637,0.73,0.188,1.047s-1.261,0.363-1.814,0.102
						C47.415,16.077,47.33,15.608,47.779,15.291z"/>
					<path fill="#160C0D" d="M51.468,16.312c-0.366-0.354-0.167-0.81,0.444-1.019c0.609-0.21,1.402-0.092,1.768,0.262
						c0.366,0.354,0.167,0.811-0.443,1.02C52.625,16.784,51.834,16.666,51.468,16.312z"/>
					<path fill="#160C0D" d="M58.198,14.914c-0.711,0.008-1.304-0.318-1.322-0.729s0.545-0.751,1.257-0.759s1.303,0.319,1.321,0.729
						C59.473,14.566,58.911,14.907,58.198,14.914z"/>
					<path fill="#160C0D" d="M56.682,16.901c-0.626-0.198-0.857-0.651-0.519-1.011c0.342-0.36,1.124-0.491,1.749-0.292
						c0.626,0.199,0.857,0.651,0.518,1.011C58.09,16.969,57.306,17.101,56.682,16.901z"/>
					<path fill="#160C0D" d="M53.641,18.179c-0.372-0.352-0.18-0.809,0.427-1.022c0.607-0.212,1.401-0.099,1.773,0.253
						c0.371,0.352,0.18,0.809-0.428,1.021S54.013,18.531,53.641,18.179z"/>
					<path fill="#160C0D" d="M49.892,18.403c-0.017-0.411,0.544-0.75,1.256-0.758s1.305,0.319,1.321,0.73
						c0.019,0.411-0.544,0.75-1.255,0.758C50.503,19.141,49.911,18.814,49.892,18.403z"/>
					<path fill="#160C0D" d="M46.44,17.515c0.34-0.36,1.124-0.491,1.749-0.292c0.625,0.199,0.857,0.652,0.517,1.012
						c-0.34,0.359-1.123,0.491-1.749,0.292C46.332,18.327,46.1,17.875,46.44,17.515z"/>
					<path fill="#160C0D" d="M44.209,15.751c0.607-0.212,1.402-0.099,1.773,0.253c0.372,0.352,0.18,0.81-0.427,1.022
						c-0.607,0.212-1.4,0.099-1.771-0.252C43.412,16.421,43.603,15.963,44.209,15.751z"/>
					<path fill="#160C0D" d="M43.797,13.585c0.713-0.008,1.304,0.319,1.323,0.73c0.019,0.411-0.545,0.751-1.256,0.758
						c-0.712,0.008-1.304-0.318-1.322-0.729C42.523,13.933,43.085,13.593,43.797,13.585z"/>
					<path fill="#160C0D" d="M45.315,11.598c0.626,0.198,0.857,0.652,0.517,1.011c-0.339,0.36-1.123,0.491-1.749,0.292
						c-0.625-0.199-0.857-0.651-0.517-1.011S44.689,11.399,45.315,11.598z"/>
					<path fill="#160C0D" d="M48.356,10.321c0.372,0.352,0.18,0.81-0.427,1.022s-1.401,0.099-1.773-0.253
						c-0.372-0.352-0.18-0.809,0.427-1.021S47.983,9.97,48.356,10.321z"/>
					<path fill="#160C0D" d="M52.104,10.097c0.018,0.411-0.544,0.75-1.256,0.758c-0.711,0.008-1.304-0.319-1.321-0.73
						c-0.019-0.411,0.543-0.75,1.255-0.759C51.493,9.359,52.086,9.686,52.104,10.097z"/>
					<path fill="#160C0D" d="M61.418,16.649c-0.688-0.108-1.099-0.517-0.917-0.914c0.183-0.396,0.888-0.63,1.576-0.523
						c0.688,0.107,1.1,0.517,0.917,0.914C62.813,16.523,62.106,16.757,61.418,16.649z"/>
					<path fill="#160C0D" d="M59.391,18.557c-0.584-0.237-0.729-0.701-0.322-1.037c0.406-0.336,1.21-0.417,1.794-0.18
						c0.586,0.237,0.729,0.701,0.323,1.037C60.777,18.713,59.975,18.794,59.391,18.557z"/>
					<path fill="#160C0D" d="M56.351,19.945c-0.41-0.337-0.271-0.802,0.311-1.036c0.582-0.235,1.387-0.151,1.797,0.186
						c0.411,0.338,0.271,0.802-0.312,1.037C57.565,20.366,56.761,20.283,56.351,19.945z"/>
					<path fill="#160C0D" d="M52.665,20.647c-0.187-0.398,0.22-0.806,0.907-0.911c0.687-0.105,1.396,0.132,1.582,0.53
						c0.186,0.397-0.22,0.804-0.906,0.91C53.561,21.281,52.852,21.044,52.665,20.647z"/>
					<path fill="#160C0D" d="M48.779,20.577c0.06-0.41,0.684-0.711,1.393-0.675c0.709,0.037,1.236,0.399,1.176,0.81
						c-0.059,0.409-0.683,0.71-1.393,0.673S48.719,20.986,48.779,20.577z"/>
					<path fill="#160C0D" d="M39.808,14.047c0.709-0.034,1.336,0.27,1.4,0.679c0.065,0.41-0.458,0.77-1.168,0.805
						c-0.708,0.034-1.335-0.269-1.4-0.679C38.576,14.442,39.098,14.083,39.808,14.047z"/>
					<path fill="#160C0D" d="M40.579,11.851c0.688,0.108,1.099,0.517,0.917,0.913c-0.183,0.396-0.889,0.631-1.576,0.524
						c-0.689-0.107-1.1-0.517-0.917-0.914C39.184,11.977,39.89,11.743,40.579,11.851z"/>
					<path fill="#160C0D" d="M42.606,9.943c0.584,0.237,0.729,0.701,0.322,1.038c-0.406,0.336-1.21,0.416-1.794,0.179
						c-0.585-0.237-0.729-0.701-0.323-1.038C41.217,9.786,42.021,9.706,42.606,9.943z"/>
					<path fill="#160C0D" d="M45.646,8.555c0.41,0.337,0.271,0.801-0.311,1.036c-0.582,0.235-1.387,0.151-1.796-0.186
						c-0.411-0.337-0.272-0.801,0.31-1.037C44.431,8.134,45.235,8.217,45.646,8.555z"/>
					<path fill="#160C0D" d="M49.332,7.854c0.186,0.397-0.22,0.805-0.907,0.91c-0.687,0.105-1.396-0.131-1.583-0.529
						c-0.186-0.398,0.22-0.805,0.907-0.911C48.436,7.219,49.145,7.456,49.332,7.854z"/>
					<path fill="#160C0D" d="M64.672,10.569c-0.615,0.204-1.403,0.081-1.763-0.276c-0.357-0.356-0.148-0.812,0.467-1.016
						c0.616-0.204,1.405-0.081,1.763,0.276C65.498,9.91,65.289,10.365,64.672,10.569z"/>
					<path fill="#160C0D" d="M65.88,12.744c-0.688,0.105-1.396-0.132-1.583-0.529c-0.187-0.398,0.22-0.805,0.907-0.911
						c0.688-0.105,1.396,0.132,1.581,0.53C66.973,12.231,66.566,12.639,65.88,12.744z"/>
					<path fill="#160C0D" d="M66.071,15.021c-0.712-0.001-1.291-0.335-1.293-0.747c-0.003-0.411,0.573-0.744,1.285-0.742
						c0.712,0.001,1.291,0.335,1.293,0.747C67.359,14.691,66.783,15.023,66.071,15.021z"/>
					<path fill="#160C0D" d="M65.236,17.247c-0.688-0.107-1.1-0.517-0.917-0.914s0.889-0.631,1.577-0.523s1.098,0.517,0.916,0.913
						C66.63,17.12,65.925,17.354,65.236,17.247z"/>
					<path fill="#160C0D" d="M63.431,19.267c-0.617-0.207-0.831-0.662-0.477-1.018c0.354-0.355,1.141-0.476,1.759-0.27
						c0.618,0.207,0.831,0.662,0.478,1.018C64.837,19.353,64.049,19.474,63.431,19.267z"/>
					<path fill="#160C0D" d="M60.777,20.946c-0.505-0.292-0.507-0.763-0.005-1.053c0.502-0.29,1.318-0.289,1.823,0.003
						c0.506,0.292,0.508,0.763,0.006,1.053S61.283,21.238,60.777,20.946z"/>
					<path fill="#160C0D" d="M57.459,22.168c-0.357-0.356-0.149-0.812,0.466-1.016c0.616-0.204,1.405-0.081,1.764,0.276
						c0.357,0.356,0.148,0.811-0.467,1.016C58.606,22.648,57.817,22.525,57.459,22.168z"/>
					<path fill="#160C0D" d="M53.699,22.851c-0.186-0.397,0.22-0.805,0.907-0.91c0.688-0.104,1.396,0.132,1.581,0.529
						c0.188,0.398-0.219,0.805-0.906,0.911C54.595,23.486,53.887,23.248,53.699,22.851z"/>
					<path fill="#160C0D" d="M49.756,22.948c-0.002-0.411,0.572-0.743,1.285-0.742c0.713,0.001,1.292,0.335,1.293,0.747
						c0.002,0.412-0.572,0.744-1.284,0.743C50.337,23.693,49.759,23.359,49.756,22.948z"/>
					<path fill="#160C0D" d="M45.896,22.452c0.183-0.396,0.889-0.631,1.577-0.523c0.688,0.108,1.098,0.517,0.916,0.914
						c-0.182,0.396-0.887,0.631-1.576,0.523C46.125,23.257,45.716,22.849,45.896,22.452z"/>
					<path fill="#160C0D" d="M36.117,15.755c0.687-0.104,1.396,0.132,1.583,0.53c0.186,0.397-0.22,0.805-0.907,0.91
						c-0.688,0.105-1.396-0.132-1.583-0.529C35.024,16.269,35.43,15.861,36.117,15.755z"/>
					<path fill="#160C0D" d="M35.925,13.479c0.712,0.001,1.292,0.335,1.293,0.747c0.002,0.411-0.573,0.743-1.285,0.742
						c-0.712-0.001-1.291-0.336-1.293-0.747C34.637,13.81,35.213,13.478,35.925,13.479z"/>
					<path fill="#160C0D" d="M36.76,11.254c0.688,0.107,1.1,0.516,0.917,0.913c-0.183,0.396-0.889,0.631-1.577,0.523
						c-0.688-0.107-1.098-0.516-0.916-0.913C35.365,11.38,36.071,11.146,36.76,11.254z"/>
					<path fill="#160C0D" d="M38.565,9.233c0.618,0.207,0.831,0.662,0.477,1.018s-1.141,0.476-1.759,0.27
						c-0.618-0.207-0.831-0.663-0.478-1.018C37.16,9.147,37.948,9.026,38.565,9.233z"/>
					<path fill="#160C0D" d="M41.219,7.554c0.505,0.292,0.507,0.763,0.005,1.053c-0.502,0.29-1.319,0.289-1.824-0.003
						c-0.505-0.292-0.508-0.763-0.006-1.053C39.897,7.261,40.713,7.262,41.219,7.554z"/>
					<path fill="#160C0D" d="M44.537,6.332c0.359,0.356,0.15,0.812-0.466,1.016c-0.616,0.205-1.405,0.082-1.764-0.276
						c-0.357-0.357-0.148-0.812,0.467-1.016C43.39,5.852,44.179,5.975,44.537,6.332z"/>
					<path fill="#160C0D" d="M48.297,5.649c0.187,0.397-0.22,0.805-0.907,0.91c-0.688,0.105-1.396-0.132-1.582-0.529
						c-0.187-0.397,0.219-0.805,0.906-0.91C47.401,5.015,48.11,5.251,48.297,5.649z"/>
					<path fill="#160C0D" d="M52.24,5.552c0.002,0.411-0.572,0.744-1.286,0.742c-0.712-0.001-1.291-0.336-1.293-0.747
						s0.574-0.743,1.285-0.742C51.66,4.807,52.238,5.141,52.24,5.552z"/>
					<path fill="#160C0D" d="M56.1,6.048c-0.183,0.396-0.889,0.631-1.577,0.523c-0.688-0.107-1.099-0.516-0.916-0.913
						c0.183-0.396,0.888-0.631,1.576-0.523C55.871,5.243,56.282,5.651,56.1,6.048z"/>
					<path fill="#160C0D" d="M59.611,7.103c-0.354,0.356-1.143,0.477-1.761,0.27c-0.618-0.207-0.831-0.662-0.478-1.018
						c0.354-0.355,1.142-0.476,1.761-0.27C59.751,6.292,59.965,6.748,59.611,7.103z"/>
				</g>
			</g>
			<g>
				<g>
					<g>
						<path fill="#2E2E30" d="M59.454,13.495l-7.083-4.089c-0.887-0.513-0.775-1.408,0.248-2l0,0
							c1.025-0.592,2.576-0.656,3.464-0.144l7.082,4.089c0.889,0.513,0.776,1.408-0.248,2l0,0
							C61.892,13.943,60.341,14.007,59.454,13.495z"/>
						<path fill="#424244" d="M59.658,13.424l-7.164-4.136c-0.809-0.467-0.708-1.284,0.227-1.823l0,0
							c0.935-0.539,2.348-0.598,3.157-0.131l7.165,4.137c0.81,0.467,0.707,1.283-0.228,1.823l0,0
							C61.882,13.833,60.468,13.892,59.658,13.424z"/>
						<path fill="#2E2E30" d="M56.266,9.503c-0.791,0.457-2.077,0.455-2.874-0.005c-0.795-0.459-0.8-1.202-0.008-1.659
							c0.791-0.457,2.077-0.454,2.873,0.005C57.053,8.303,57.057,9.046,56.266,9.503z"/>
						<path fill="#2E2E30" d="M62.249,12.957c-0.791,0.457-2.077,0.455-2.874-0.005c-0.796-0.459-0.8-1.203-0.009-1.659
							c0.792-0.457,2.078-0.455,2.873,0.005C63.035,11.758,63.04,12.501,62.249,12.957z"/>
						<path fill="#484849" d="M62.081,12.965c-0.699,0.403-1.836,0.402-2.539-0.005c-0.703-0.406-0.707-1.063-0.008-1.466
							s1.836-0.402,2.539,0.005C62.776,11.905,62.779,12.562,62.081,12.965z"/>
						<path fill="#484849" d="M56.099,9.511c-0.699,0.404-1.836,0.402-2.54-0.004c-0.703-0.406-0.707-1.063-0.008-1.466
							c0.699-0.404,1.836-0.401,2.539,0.004C56.794,8.451,56.798,9.107,56.099,9.511z"/>
						<path fill="#575758" d="M55.938,9.332c-0.612,0.353-1.606,0.351-2.222-0.004c-0.614-0.355-0.617-0.93-0.007-1.283
							c0.612-0.353,1.605-0.351,2.222,0.004C56.546,8.405,56.549,8.979,55.938,9.332z"/>
						<path fill="#575758" d="M61.932,12.792c-0.611,0.353-1.605,0.351-2.221-0.004c-0.614-0.354-0.618-0.929-0.007-1.282
							c0.611-0.353,1.605-0.351,2.221,0.004C62.54,11.866,62.543,12.439,61.932,12.792z"/>
					</g>
				</g>
				<polygon fill="#DCDADB" points="54.942,9.231 54.035,8.708 54.802,8.266 55.708,8.789 				"/>
			</g>
		</g>
		<polygon fill="#DCDADB" points="60.925,12.733 60.019,12.209 60.785,11.767 61.691,12.291 		"/>
		<g>
			<g>
				<ellipse cx="29.647" cy="49.835" rx="0.413" ry="0.944"/>
				<ellipse cx="29.647" cy="52.635" rx="0.413" ry="0.943"/>
				<ellipse cx="29.647" cy="55.435" rx="0.413" ry="0.943"/>
				<ellipse cx="29.647" cy="58.234" rx="0.413" ry="0.943"/>
				<ellipse cx="29.647" cy="61.034" rx="0.413" ry="0.943"/>
				<ellipse cx="29.647" cy="63.834" rx="0.413" ry="0.943"/>
				<ellipse cx="29.647" cy="66.634" rx="0.413" ry="0.943"/>
				<ellipse cx="29.647" cy="69.434" rx="0.413" ry="0.943"/>
				<ellipse cx="29.647" cy="72.233" rx="0.413" ry="0.943"/>
			</g>
			<g>
				<ellipse cx="30.711" cy="54.611" rx="0.414" ry="0.944"/>
				<ellipse cx="30.711" cy="57.416" rx="0.414" ry="0.944"/>
				<ellipse cx="30.711" cy="60.221" rx="0.414" ry="0.944"/>
				<ellipse cx="30.711" cy="63.025" rx="0.414" ry="0.944"/>
				<ellipse cx="30.711" cy="65.831" rx="0.414" ry="0.943"/>
				<ellipse cx="30.711" cy="68.636" rx="0.414" ry="0.943"/>
				<ellipse cx="30.711" cy="71.44" rx="0.414" ry="0.943"/>
				<ellipse cx="30.711" cy="74.245" rx="0.414" ry="0.943"/>
			</g>
			<g>
				<ellipse cx="31.775" cy="53.78" rx="0.413" ry="0.944"/>
				<ellipse cx="31.775" cy="56.58" rx="0.413" ry="0.944"/>
				<ellipse cx="31.775" cy="59.38" rx="0.413" ry="0.944"/>
				<ellipse cx="31.775" cy="62.18" rx="0.413" ry="0.944"/>
				<ellipse cx="31.775" cy="64.979" rx="0.413" ry="0.945"/>
				<ellipse cx="31.775" cy="67.778" rx="0.413" ry="0.944"/>
				<ellipse cx="31.775" cy="70.578" rx="0.413" ry="0.944"/>
				<ellipse cx="31.775" cy="73.378" rx="0.413" ry="0.944"/>
				<ellipse cx="31.775" cy="76.178" rx="0.413" ry="0.944"/>
			</g>
			<g>
				<ellipse cx="32.946" cy="55.975" rx="0.481" ry="0.944"/>
				<ellipse cx="32.946" cy="58.779" rx="0.481" ry="0.944"/>
				<ellipse cx="32.946" cy="61.584" rx="0.481" ry="0.944"/>
				<ellipse cx="32.946" cy="64.389" rx="0.481" ry="0.944"/>
				<ellipse cx="32.946" cy="67.193" rx="0.481" ry="0.943"/>
				<ellipse cx="32.946" cy="69.998" rx="0.481" ry="0.943"/>
				<ellipse cx="32.946" cy="72.803" rx="0.481" ry="0.943"/>
				<ellipse cx="32.946" cy="75.607" rx="0.481" ry="0.943"/>
			</g>
			<g>
				<ellipse cx="34.183" cy="55.556" rx="0.48" ry="0.942"/>
				<ellipse cx="34.183" cy="58.355" rx="0.48" ry="0.942"/>
				<ellipse cx="34.183" cy="61.155" rx="0.48" ry="0.942"/>
				<ellipse cx="34.183" cy="63.955" rx="0.48" ry="0.942"/>
				<ellipse cx="34.183" cy="66.755" rx="0.48" ry="0.942"/>
				<ellipse cx="34.183" cy="69.555" rx="0.48" ry="0.942"/>
				<ellipse cx="34.183" cy="72.354" rx="0.48" ry="0.942"/>
				<ellipse cx="34.183" cy="75.154" rx="0.48" ry="0.942"/>
				<ellipse cx="34.183" cy="77.954" rx="0.48" ry="0.942"/>
			</g>
			<g>
				<ellipse cx="35.73" cy="58.281" rx="0.677" ry="0.943"/>
				<ellipse cx="35.73" cy="61.086" rx="0.677" ry="0.943"/>
				<ellipse cx="35.73" cy="63.891" rx="0.677" ry="0.943"/>
				<ellipse cx="35.73" cy="66.695" rx="0.677" ry="0.943"/>
				<ellipse cx="35.73" cy="69.499" rx="0.677" ry="0.944"/>
				<ellipse cx="35.73" cy="72.304" rx="0.677" ry="0.944"/>
				<ellipse cx="35.73" cy="75.108" rx="0.677" ry="0.944"/>
				<ellipse cx="35.73" cy="77.913" rx="0.677" ry="0.944"/>
			</g>
			<g>
				<ellipse cx="37.474" cy="57.265" rx="0.677" ry="0.943"/>
				<ellipse cx="37.474" cy="60.064" rx="0.677" ry="0.943"/>
				<ellipse cx="37.474" cy="62.864" rx="0.677" ry="0.943"/>
				<ellipse cx="37.474" cy="65.664" rx="0.677" ry="0.943"/>
				<ellipse cx="37.474" cy="68.464" rx="0.677" ry="0.942"/>
				<ellipse cx="37.474" cy="71.264" rx="0.677" ry="0.942"/>
				<ellipse cx="37.474" cy="74.063" rx="0.677" ry="0.942"/>
				<ellipse cx="37.474" cy="76.863" rx="0.677" ry="0.942"/>
				<ellipse cx="37.474" cy="79.663" rx="0.677" ry="0.942"/>
			</g>
			<g>
				<ellipse cx="39.219" cy="59.571" rx="0.677" ry="0.942"/>
				<ellipse cx="39.219" cy="62.376" rx="0.677" ry="0.942"/>
				<ellipse cx="39.219" cy="65.181" rx="0.677" ry="0.942"/>
				<ellipse cx="39.219" cy="67.985" rx="0.677" ry="0.942"/>
				<ellipse cx="39.219" cy="70.789" rx="0.677" ry="0.943"/>
				<ellipse cx="39.219" cy="73.594" rx="0.677" ry="0.943"/>
				<ellipse cx="39.219" cy="76.398" rx="0.677" ry="0.943"/>
				<ellipse cx="39.219" cy="79.203" rx="0.677" ry="0.943"/>
			</g>
			<g>
				<circle cx="41.382" cy="58.875" r="0.944"/>
				<circle cx="41.382" cy="61.675" r="0.944"/>
				<circle cx="41.382" cy="64.475" r="0.944"/>
				<circle cx="41.382" cy="67.274" r="0.944"/>
				<circle cx="41.382" cy="70.074" r="0.944"/>
				<circle cx="41.382" cy="72.874" r="0.944"/>
				<circle cx="41.382" cy="75.674" r="0.944"/>
				<circle cx="41.382" cy="78.474" r="0.944"/>
				<circle cx="41.382" cy="81.273" r="0.944"/>
			</g>
			<g>
				<circle cx="43.813" cy="61.182" r="0.944"/>
				<circle cx="43.813" cy="63.986" r="0.944"/>
				<circle cx="43.813" cy="66.791" r="0.944"/>
				<circle cx="43.813" cy="69.596" r="0.944"/>
				<circle cx="43.813" cy="72.4" r="0.944"/>
				<circle cx="43.813" cy="75.205" r="0.944"/>
				<circle cx="43.813" cy="78.01" r="0.944"/>
				<circle cx="43.813" cy="80.814" r="0.944"/>
			</g>
			<g>
				<circle cx="46.242" cy="59.819" r="0.943"/>
				<circle cx="46.242" cy="62.619" r="0.943"/>
				<circle cx="46.242" cy="65.419" r="0.943"/>
				<circle cx="46.242" cy="68.219" r="0.943"/>
				<circle cx="46.242" cy="71.019" r="0.943"/>
				<circle cx="46.242" cy="73.818" r="0.943"/>
				<circle cx="46.242" cy="76.618" r="0.943"/>
				<circle cx="46.242" cy="79.418" r="0.943"/>
				<circle cx="46.242" cy="82.218" r="0.943"/>
			</g>
			<g>
				<circle cx="48.672" cy="61.705" r="0.943"/>
				<circle cx="48.672" cy="64.51" r="0.943"/>
				<circle cx="48.672" cy="67.314" r="0.943"/>
				<circle cx="48.672" cy="70.119" r="0.943"/>
				<circle cx="48.672" cy="72.924" r="0.943"/>
				<circle cx="48.672" cy="75.729" r="0.943"/>
				<circle cx="48.672" cy="78.533" r="0.943"/>
				<circle cx="48.672" cy="81.338" r="0.943"/>
			</g>
			<g>
				<circle cx="51.103" cy="60.342" r="0.943"/>
				<circle cx="51.103" cy="63.142" r="0.943"/>
				<circle cx="51.103" cy="65.941" r="0.943"/>
				<circle cx="51.103" cy="68.741" r="0.943"/>
				<circle cx="51.103" cy="71.541" r="0.943"/>
				<circle cx="51.103" cy="74.341" r="0.943"/>
				<circle cx="51.103" cy="77.141" r="0.943"/>
				<circle cx="51.103" cy="79.94" r="0.943"/>
				<circle cx="51.103" cy="82.74" r="0.943"/>
			</g>
			<g>
				<circle cx="53.533" cy="61.705" r="0.943"/>
				<circle cx="53.533" cy="64.51" r="0.943"/>
				<circle cx="53.533" cy="67.314" r="0.943"/>
				<circle cx="53.533" cy="70.119" r="0.943"/>
				<circle cx="53.533" cy="72.924" r="0.943"/>
				<circle cx="53.533" cy="75.729" r="0.943"/>
				<circle cx="53.533" cy="78.533" r="0.943"/>
				<circle cx="53.533" cy="81.338" r="0.943"/>
			</g>
			<g>
				<circle cx="55.963" cy="59.819" r="0.943"/>
				<circle cx="55.963" cy="62.619" r="0.943"/>
				<circle cx="55.963" cy="65.419" r="0.943"/>
				<circle cx="55.963" cy="68.219" r="0.943"/>
				<circle cx="55.963" cy="71.019" r="0.943"/>
				<circle cx="55.963" cy="73.818" r="0.943"/>
				<circle cx="55.963" cy="76.618" r="0.943"/>
				<circle cx="55.963" cy="79.418" r="0.943"/>
				<circle cx="55.963" cy="82.218" r="0.943"/>
			</g>
			<g>
				<ellipse cx="58.324" cy="61.182" rx="0.874" ry="0.943"/>
				<ellipse cx="58.324" cy="63.986" rx="0.874" ry="0.943"/>
				<ellipse cx="58.324" cy="66.791" rx="0.874" ry="0.943"/>
				<ellipse cx="58.324" cy="69.596" rx="0.874" ry="0.943"/>
				<ellipse cx="58.324" cy="72.4" rx="0.874" ry="0.943"/>
				<ellipse cx="58.324" cy="75.205" rx="0.874" ry="0.943"/>
				<ellipse cx="58.324" cy="78.01" rx="0.874" ry="0.943"/>
				<ellipse cx="58.324" cy="80.814" rx="0.874" ry="0.943"/>
			</g>
			<g>
				<ellipse cx="60.438" cy="58.875" rx="0.736" ry="0.944"/>
				<ellipse cx="60.438" cy="61.675" rx="0.736" ry="0.944"/>
				<ellipse cx="60.438" cy="64.475" rx="0.736" ry="0.944"/>
				<ellipse cx="60.438" cy="67.274" rx="0.736" ry="0.944"/>
				<ellipse cx="60.438" cy="70.074" rx="0.736" ry="0.944"/>
				<ellipse cx="60.438" cy="72.874" rx="0.736" ry="0.944"/>
				<ellipse cx="60.438" cy="75.674" rx="0.736" ry="0.944"/>
				<ellipse cx="60.438" cy="78.474" rx="0.736" ry="0.944"/>
				<ellipse cx="60.438" cy="81.273" rx="0.736" ry="0.944"/>
			</g>
			<g>
				<ellipse cx="62.334" cy="59.571" rx="0.736" ry="0.942"/>
				<ellipse cx="62.334" cy="62.376" rx="0.736" ry="0.942"/>
				<ellipse cx="62.334" cy="65.181" rx="0.736" ry="0.942"/>
				<ellipse cx="62.334" cy="67.985" rx="0.736" ry="0.942"/>
				<ellipse cx="62.334" cy="70.789" rx="0.736" ry="0.943"/>
				<ellipse cx="62.334" cy="73.594" rx="0.736" ry="0.943"/>
				<ellipse cx="62.334" cy="76.398" rx="0.736" ry="0.943"/>
				<ellipse cx="62.334" cy="79.203" rx="0.736" ry="0.943"/>
			</g>
			<g>
				<ellipse cx="64.229" cy="57.265" rx="0.736" ry="0.943"/>
				<ellipse cx="64.229" cy="60.064" rx="0.736" ry="0.943"/>
				<ellipse cx="64.229" cy="62.864" rx="0.736" ry="0.943"/>
				<ellipse cx="64.229" cy="65.664" rx="0.736" ry="0.943"/>
				<ellipse cx="64.229" cy="68.464" rx="0.736" ry="0.942"/>
				<ellipse cx="64.229" cy="71.264" rx="0.736" ry="0.942"/>
				<ellipse cx="64.229" cy="74.063" rx="0.736" ry="0.942"/>
				<ellipse cx="64.229" cy="76.863" rx="0.736" ry="0.942"/>
				<ellipse cx="64.229" cy="79.663" rx="0.736" ry="0.942"/>
			</g>
			<g>
				<ellipse cx="65.976" cy="58.281" rx="0.587" ry="0.943"/>
				<ellipse cx="65.976" cy="61.086" rx="0.587" ry="0.943"/>
				<ellipse cx="65.976" cy="63.891" rx="0.587" ry="0.943"/>
				<ellipse cx="65.976" cy="66.695" rx="0.587" ry="0.943"/>
				<ellipse cx="65.976" cy="69.499" rx="0.587" ry="0.944"/>
				<ellipse cx="65.976" cy="72.304" rx="0.587" ry="0.944"/>
				<ellipse cx="65.976" cy="75.108" rx="0.587" ry="0.944"/>
				<ellipse cx="65.976" cy="77.913" rx="0.587" ry="0.944"/>
			</g>
			<g>
				<ellipse cx="67.487" cy="55.556" rx="0.586" ry="0.942"/>
				<ellipse cx="67.487" cy="58.355" rx="0.586" ry="0.942"/>
				<ellipse cx="67.487" cy="61.155" rx="0.586" ry="0.942"/>
				<ellipse cx="67.487" cy="63.955" rx="0.586" ry="0.942"/>
				<ellipse cx="67.487" cy="66.755" rx="0.586" ry="0.942"/>
				<ellipse cx="67.487" cy="69.555" rx="0.586" ry="0.942"/>
				<ellipse cx="67.487" cy="72.354" rx="0.586" ry="0.942"/>
				<ellipse cx="67.487" cy="75.154" rx="0.586" ry="0.942"/>
				<ellipse cx="67.487" cy="77.954" rx="0.586" ry="0.942"/>
			</g>
			<g>
				<ellipse cx="68.842" cy="55.975" rx="0.431" ry="0.944"/>
				<ellipse cx="68.842" cy="58.779" rx="0.431" ry="0.944"/>
				<ellipse cx="68.842" cy="61.584" rx="0.431" ry="0.944"/>
				<ellipse cx="68.842" cy="64.389" rx="0.431" ry="0.944"/>
				<ellipse cx="68.842" cy="67.193" rx="0.431" ry="0.943"/>
				<ellipse cx="68.842" cy="69.998" rx="0.431" ry="0.943"/>
				<ellipse cx="68.842" cy="72.803" rx="0.431" ry="0.943"/>
				<ellipse cx="68.842" cy="75.607" rx="0.431" ry="0.943"/>
			</g>
			<g>
				<ellipse cx="69.954" cy="53.78" rx="0.431" ry="0.944"/>
				<ellipse cx="69.954" cy="56.58" rx="0.431" ry="0.944"/>
				<ellipse cx="69.954" cy="59.38" rx="0.431" ry="0.944"/>
				<ellipse cx="69.954" cy="62.18" rx="0.431" ry="0.944"/>
				<ellipse cx="69.954" cy="64.979" rx="0.431" ry="0.945"/>
				<ellipse cx="69.954" cy="67.778" rx="0.431" ry="0.944"/>
				<ellipse cx="69.954" cy="70.578" rx="0.431" ry="0.944"/>
				<ellipse cx="69.954" cy="73.378" rx="0.431" ry="0.944"/>
				<ellipse cx="69.954" cy="76.178" rx="0.431" ry="0.944"/>
			</g>
			<g>
				<ellipse cx="71.065" cy="54.611" rx="0.431" ry="0.944"/>
				<ellipse cx="71.065" cy="57.416" rx="0.431" ry="0.944"/>
				<ellipse cx="71.065" cy="60.221" rx="0.431" ry="0.944"/>
				<ellipse cx="71.065" cy="63.025" rx="0.431" ry="0.944"/>
				<ellipse cx="71.065" cy="65.831" rx="0.431" ry="0.943"/>
				<ellipse cx="71.065" cy="68.636" rx="0.431" ry="0.943"/>
				<ellipse cx="71.065" cy="71.44" rx="0.431" ry="0.943"/>
				<ellipse cx="71.065" cy="74.245" rx="0.431" ry="0.943"/>
			</g>
			<g>
				<ellipse cx="72.176" cy="49.835" rx="0.431" ry="0.944"/>
				<ellipse cx="72.176" cy="52.635" rx="0.431" ry="0.943"/>
				<ellipse cx="72.176" cy="55.435" rx="0.431" ry="0.943"/>
				<ellipse cx="72.176" cy="58.234" rx="0.431" ry="0.943"/>
				<ellipse cx="72.176" cy="61.034" rx="0.431" ry="0.943"/>
				<ellipse cx="72.176" cy="63.834" rx="0.431" ry="0.943"/>
				<ellipse cx="72.176" cy="66.634" rx="0.431" ry="0.943"/>
				<ellipse cx="72.176" cy="69.434" rx="0.431" ry="0.943"/>
				<ellipse cx="72.176" cy="72.233" rx="0.431" ry="0.943"/>
			</g>
		</g>
	</g>
	<g>
		<path fill="#474749" d="M65.873,44.185v0.707l-2.067,1.258v-0.707c0-0.764,0.463-1.665,1.035-2.013
			c0.284-0.173,0.543-0.176,0.73-0.039C65.758,43.528,65.873,43.803,65.873,44.185z"/>
		<path fill="#474749" d="M63.806,46.409l2.067-1.257v0.566c0,0.766-0.462,1.665-1.032,2.011c-0.572,0.349-1.035,0.011-1.035-0.753
			V46.409z"/>
		<path fill="#474749" d="M63.443,46.723c0,0.208-0.123,0.453-0.276,0.546s-0.276,0-0.276-0.208c0-0.208,0.123-0.452,0.276-0.545
			S63.443,46.515,63.443,46.723z"/>
		<path fill="#474749" d="M66.789,44.688c0,0.208-0.123,0.452-0.276,0.545c-0.153,0.094-0.277,0-0.277-0.208
			s0.124-0.453,0.277-0.545S66.789,44.479,66.789,44.688z"/>
		<polygon fill="#474749" points="65.069,49.583 64.61,49.861 64.61,48.309 65.069,48.03 		"/>
		<polygon fill="#474749" points="65.477,49.105 65.477,49.784 64.203,50.558 64.203,49.88 		"/>
		<g>
			<path fill="#474749" d="M64.84,48.451c-0.582,0.354-1.038,0.399-1.354,0.133c-0.523-0.441-0.463-1.573-0.46-1.621l0.285-0.143
				c-0.002,0.01-0.053,1.01,0.387,1.378c0.26,0.217,0.645,0.174,1.143-0.129V48.451z"/>
		</g>
		<g>
			<path fill="#474749" d="M64.84,48.451v-0.382c0.5-0.304,0.885-0.729,1.145-1.264c0.44-0.906,0.387-1.837,0.386-1.847l0.284-0.204
				c0.004,0.044,0.063,1.103-0.46,2.181C65.878,47.587,65.422,48.097,64.84,48.451z"/>
		</g>
	</g>
</g>
</svg>
