<?xml version="1.0" encoding="utf-8"?>
<!-- Generator: Adobe Illustrator 17.0.0, SVG Export Plug-In . SVG Version: 6.00 Build 0)  -->
<!DOCTYPE svg PUBLIC "-//W3C//DTD SVG 1.1//EN" "http://www.w3.org/Graphics/SVG/1.1/DTD/svg11.dtd">
<svg version="1.1" id="Layer_1" xmlns="http://www.w3.org/2000/svg" xmlns:xlink="http://www.w3.org/1999/xlink" x="0px" y="0px"
	 width="300px" height="300px" viewBox="0 0 300 300" enable-background="new 0 0 300 300" xml:space="preserve">
<path fill="#C7CACF" stroke="#000000" stroke-linecap="round" stroke-linejoin="round" stroke-miterlimit="10" d="M211.206,69.274
	c-0.277-0.033-9.854,3.112-10.217,3.942s2.541,8.246,3.06,8.35c0.519,0.104,10.114-3.164,10.165-3.527
	C214.266,77.676,212.087,69.378,211.206,69.274z"/>
<path fill="#545554" stroke="#000000" stroke-linecap="round" stroke-linejoin="round" stroke-miterlimit="10" d="M206.175,72.282
	c-0.052,0.259,0.415,1.919,0.726,1.919s1.4-0.519,1.348-0.674c-0.052-0.156-0.653-1.608-0.663-1.763
	C207.575,71.608,206.175,72.282,206.175,72.282z"/>
<path fill="#545554" stroke="#000000" stroke-linecap="round" stroke-linejoin="round" stroke-miterlimit="10" d="M207.834,77.105
	c0.044,0.261,0.622,1.919,0.83,1.919c0.207,0,1.245-0.415,1.245-0.674s-0.363-1.867-0.622-1.919S207.778,76.773,207.834,77.105z"/>
<path fill="#CBCBCB" stroke="#000000" stroke-linecap="round" stroke-linejoin="round" stroke-miterlimit="10" d="M201.766,71.297
	c0,0-12.084,3.633-12.81,4.124c-0.726,0.492-1.297,1.892-1.141,2.826s2.645,7.209,2.801,7.676c0.156,0.467,0.934,1.297,2.023,1.193
	c1.089-0.104,12.447-4.097,12.551-4.46S202.441,71.4,201.766,71.297z"/>
<path fill="#CBCBCB" stroke="#000000" stroke-linecap="round" stroke-linejoin="round" stroke-miterlimit="10" d="M185.118,81.568
	c-0.218,0.242,0.467,2.954,0.985,2.954s3.63-1.294,3.734-1.477s-0.442-2.586-1.31-2.629S185.585,81.052,185.118,81.568z"/>
<path fill="none" stroke="#000000" stroke-width="2" stroke-linecap="round" stroke-linejoin="round" stroke-miterlimit="10" d="
	M185.353,83.197c-0.014-0.044-3.659,1.221-5.733,4.489s-5.913,12.655-7.054,15.248c-1.141,2.593-20.249,56.816-21.499,58.441
	s-4,5.625-8,4.75s-6.75-2.125-6.125-4.875s17-49.75,16.875-51.5s-0.625-4.125-4.875-4.125s-10.802,0.75-12.089,4.5
	s-12.411,47.25-13.161,48.5s-2.25,4.375-5.625,4.5s-8.625-0.5-8.125-4.875s9.125-45.375,9.25-46.625s-1.125-3.75-5.125-3.375
	s-9,0.625-10.125,2.25s-7.875,44-8.25,45s-1,4.625-2.75,4.75s-9.375-0.125-10.25-2.125s0.875-40.375,1.25-42.875s-2-4.5-4-4.625
	s-8.125-0.25-9.125,0.375s-3.75,4.625-3.875,6.625s2,34,1.625,35.75s-1.125,4.875-3.625,5s-8.125-1.125-9-3.375
	s-7.25-41.75-6.875-44.125s2.75-4.375,6.375-5.375s113.25-8.125,115.625-8.625s9-1.125,10,2.125s-2.75,15-4.125,15.875
	s-3,2.25-5.375,2.625s-107.25,2-110.125,2.625s-3.375,4.875-2.375,6.125s2.375,1.75,4.5,2s91-1.25,93.125-1.25s11.25-0.375,13,1.375
	s0,10.125-2.875,12.25s-6.625,1.625-13.625,1.625s-88.375-2.375-90.25-2.125s-5.375,6.625-0.25,7.375s86,3.75,87.625,3.75
	s8.125,0,9.375,0.625s3.125,2,1.875,5.25s-5.25,15.375-12.25,15.625s-86.25-7.125-89-7s-4.5,6.387,0,7.006
	c4.5,0.619,88.5,7.869,90.375,8.494s6.75,4.75,9.5,6.625s8,7.125,8.75,8.5s-1,6.25-2.875,6.75s-106.875,0.375-108.5,0.75
	s-3.375,3-2.625,4.375s1.75,3.5,3.75,3.25s17.625-2.25,20.625,4.75s-1.625,13.375-6.625,13.375s-11-5.5-10.125-10.25
	s3.875-8.125,14.25-7.75s84.625-1.75,89.5,0.875s7.125,6.125,6.5,9.125s-2.75,7.5-8.75,8s-10.125-5-9.625-8.875s3.875-9.25,13-9.5
	s9.875-6.625,10.375-10.625s-2.375-10.875-5.5-13.5s-11.125-8.375-9.25-14.75s19-49.375,23.125-55.375s17.625-9.125,23.125-5
	s9.25,11.375,9.625,14.875"/>
<path fill="#CBCBCB" stroke="#000000" stroke-linecap="round" stroke-linejoin="round" stroke-miterlimit="10" d="M225.51,124.77
	c-1.548-0.065-14.128,0.911-17.47,3.038c-3.342,2.127-6.532,5.165-6.684,9.723c-0.152,4.557-2.127,30.839,5.165,51.955
	c7.292,21.116,26.585,19.293,32.358,14.128s11.394-13.52,12.001-23.547c0.608-10.026-2.886-30.231-7.596-41.625
	C238.575,127.049,232.664,125.069,225.51,124.77z"/>
<path fill="none" stroke="#000000" stroke-linecap="round" stroke-linejoin="round" stroke-miterlimit="10" d="M227.029,164.724
	c0-4.102-5.696-34.692-8.087-39.443"/>
<path fill="#CBCBCB" stroke="#000000" stroke-linecap="round" stroke-linejoin="round" stroke-miterlimit="10" d="M226.304,135.095
	c-0.951-1.2-2.645-2.99-5.519-2.587c-2.875,0.402-3.507,2.817-3.392,4.427s2.185,9.832,3.737,10.981
	c1.552,1.15,6.669,1.207,7.072-1.552C228.604,143.604,226.92,135.872,226.304,135.095z"/>
<path fill="#B4A8A9" stroke="#000000" stroke-linecap="round" stroke-linejoin="round" stroke-miterlimit="10" d="M224.407,135.957
	c-0.415-1.055-3.335-1.955-3.91-1.035c-0.575,0.92-0.747,1.667-0.575,3.565s1.067,7.762,3.063,8.107
	c1.996,0.345,3.721-0.92,3.376-1.897C226.017,143.719,225.039,137.567,224.407,135.957z"/>
</svg>
