<?xml version="1.0" encoding="utf-8"?>
<!-- Generator: Adobe Illustrator 16.0.0, SVG Export Plug-In . SVG Version: 6.00 Build 0)  -->
<!DOCTYPE svg PUBLIC "-//W3C//DTD SVG 1.1//EN" "http://www.w3.org/Graphics/SVG/1.1/DTD/svg11.dtd">
<svg version="1.1" id="Layer_1" xmlns="http://www.w3.org/2000/svg" xmlns:xlink="http://www.w3.org/1999/xlink" x="0px" y="0px"
	 width="36.5px" height="45.834px" viewBox="0 0 36.5 45.834" enable-background="new 0 0 36.5 45.834" xml:space="preserve">
<g>
	<g>
		<g>
			<g>
				<path fill="#FFFFFF" d="M20.586,28.229c3.853,2.224,3.873,5.83,0.046,8.055c-3.827,2.224-10.053,2.224-13.905-0.001
					c-3.853-2.224-3.873-5.83-0.046-8.054C10.508,26.004,16.734,26.004,20.586,28.229z"/>
			</g>
			<g>
				<path fill="#FFFFFF" d="M20.586,28.229c3.853,2.224,3.873,5.83,0.046,8.055c-3.827,2.224-10.053,2.224-13.905-0.001
					c-3.853-2.224-3.873-5.83-0.046-8.054C10.508,26.004,16.734,26.004,20.586,28.229z"/>
			</g>
			<g>
				<path fill="#D6E7F7" d="M19.611,28.795c3.311,1.91,3.328,5.01,0.039,6.921s-8.639,1.911-11.949,0
					c-3.311-1.911-3.329-5.011-0.04-6.921C10.952,26.883,16.301,26.883,19.611,28.795z"/>
			</g>
		</g>
		<g>
			<path fill="#95A4C2" d="M13.077,5.201c0.058-0.135,0.138-0.261,0.249-0.332c0.12-0.078,0.266-0.109,0.408-0.112
				c0.105-0.002,0.213,0.01,0.311,0.05c0.582,0.237,0.814,1.093,0.588,1.64c-0.123,0.298-0.379,0.509-0.711,0.487
				c-0.67-0.043-1.085-0.807-0.942-1.424C13.001,5.415,13.033,5.305,13.077,5.201z"/>
			<g>
				<g>
					<path fill="#64C7C6" d="M17.469,13.542c0.014,0.08,0.104,0.127,0.029,0.222c-0.382-0.31-0.994-0.409-1.446-0.781
						c-0.054-0.043-0.106-0.093-0.155-0.146c-0.781-0.852-1.538-1.952-1.918-2.513c-0.111-0.167-0.191-0.286-0.228-0.337
						c-0.224-0.313-0.187-0.479-0.044-0.749c0.013-0.023,0.025-0.047,0.039-0.072c0.19-0.347,0.877-0.479,1.348-0.231
						c0.094,0.049,0.178,0.113,0.249,0.195c0.889,1.018,1.491,1.863,1.829,2.438c0.038,0.064,0.072,0.125,0.104,0.182
						c0.072,0.131,0.126,0.245,0.164,0.338c0.051,0.127,0.07,0.217,0.061,0.266c-0.063,0.315,0.145,0.816-0.014,1.096
						C17.467,13.487,17.464,13.516,17.469,13.542z"/>
				</g>
				<path fill="#64C7C6" d="M20.074,13.656c-0.038,0.066-0.074,0.132-0.111,0.199c-0.127,0.229-0.254,0.46-0.395,0.683
					c-0.105,0.168-0.215,0.333-0.326,0.5l-2.805-1.775l-0.22-0.139c-0.046-0.034-0.09-0.064-0.13-0.104l-0.001-0.001
					c-0.013-0.011-0.024-0.023-0.035-0.035c-0.151-0.157-0.242-0.356-0.268-0.564c-0.021-0.168,0.003-0.343,0.073-0.504
					c0.021-0.052,0.049-0.102,0.081-0.15c0.263-0.399,0.8-0.337,0.854-0.306c0.105,0.062,0.222,0.131,0.347,0.208
					c0.044,0.027,0.089,0.055,0.136,0.084c0.108,0.067,0.223,0.14,0.34,0.215C18.379,12.457,19.311,13.097,20.074,13.656z"/>
				<path opacity="0.2" fill="#31A6A1" d="M19.963,13.855c-0.127,0.229-0.254,0.46-0.395,0.683c-0.105,0.168-0.215,0.333-0.326,0.5
					l-2.805-1.775l-0.22-0.139c-0.046-0.034-0.09-0.064-0.13-0.104l-0.001-0.001c-0.013-0.011-0.024-0.023-0.035-0.035
					c-0.054-0.043-0.106-0.093-0.155-0.146c-0.781-0.852-1.538-1.952-1.918-2.513c-0.031-0.269-0.092-0.534-0.184-0.788
					c-0.034-0.098-0.074-0.197-0.088-0.298c0.013-0.023,0.025-0.047,0.039-0.072c0.19-0.347,0.877-0.479,1.348-0.231
					c0.176,0.148,0.322,0.335,0.43,0.539c0.209,0.399,0.281,0.86,0.285,1.312c0.002,0.376-0.036,0.77,0.049,1.129
					c0.023,0.104,0.059,0.204,0.107,0.301c0.086,0.171,0.211,0.318,0.344,0.455c0.338,0.349,0.731,0.643,1.16,0.871
					c0.205,0.109,0.418,0.203,0.637,0.28c0.303,0.107,0.633,0.181,0.943,0.098c0.135-0.036,0.261-0.102,0.397-0.13
					C19.626,13.754,19.799,13.784,19.963,13.855z"/>
				<path opacity="0.2" fill="#31A6A1" d="M17.615,11.965c-0.055,0.045-0.115,0.086-0.176,0.124c-0.039,0.025-0.08,0.047-0.12,0.069
					c-0.186,0.099-0.382,0.182-0.553,0.304c0.036-0.232,0.184-0.427,0.297-0.633c0.028-0.051,0.054-0.106,0.076-0.163
					c0.013-0.032,0.023-0.065,0.032-0.098c0.038,0.064,0.072,0.125,0.104,0.182C17.384,11.818,17.498,11.89,17.615,11.965z"/>
				<g>
					<g>
						<g>
							<path fill="#010101" d="M10.573,31.775c-0.046,0.089-0.018,0.194-0.008,0.293c0.027,0.242-0.083,0.467-0.133,0.699
								c-0.053,0.242-0.11,0.486-0.094,0.734c0.026,0.367,0.172,0.727,0.418,1c0.124,0.137,0.275,0.256,0.452,0.313
								c0.176,0.058,0.38,0.048,0.538-0.051c0.15-0.098,0.244-0.268,0.286-0.441c0.035-0.154,0.037-0.313,0.033-0.469
								c0-0.022,0-0.045-0.001-0.066c-0.007-0.324-0.051-0.67-0.003-0.989c0.033-0.235,0.122-0.46,0.143-0.696
								c0.008-0.095,0.003-0.193-0.036-0.28c-0.011-0.022-0.024-0.045-0.039-0.065c-0.03-0.045-0.067-0.084-0.104-0.123
								c-0.079-0.085-0.161-0.17-0.256-0.236c-0.037-0.026-0.479-0.246-0.475-0.261c-0.059,0.197-0.21,0.366-0.399,0.446
								c-0.077,0.033-0.167,0.057-0.235,0.102C10.623,31.707,10.592,31.737,10.573,31.775z"/>
							<path fill="#181817" d="M12.063,32.61c-0.014,0.094-0.021,0.189-0.022,0.286c-0.003,0.234,0.02,0.473,0.025,0.703
								c0,0.021,0,0.045,0.001,0.066c0.003,0.156,0.002,0.314-0.033,0.469c-0.042,0.175-0.135,0.344-0.286,0.441
								c-0.157,0.099-0.361,0.108-0.538,0.051c-0.177-0.057-0.328-0.176-0.452-0.313c-0.247-0.273-0.393-0.633-0.418-1
								c-0.007-0.113,0-0.225,0.016-0.336c0.019-0.134,0.049-0.266,0.078-0.397c0.038-0.179,0.112-0.353,0.132-0.533
								c0.006-0.056,0.008-0.11,0.001-0.167c-0.011-0.099-0.039-0.204,0.007-0.292c0.02-0.039,0.05-0.069,0.085-0.093
								c0.069-0.045,0.158-0.068,0.235-0.102c0.189-0.08,0.34-0.249,0.399-0.446c0,0.017,0.438,0.235,0.475,0.261
								c0.096,0.066,0.177,0.151,0.256,0.236c0.038,0.039,0.075,0.078,0.104,0.123c0.004,0.005,0.007,0.011,0.011,0.016
								c0.011,0.016,0.02,0.032,0.027,0.051c0.04,0.086,0.044,0.186,0.037,0.28C12.185,32.15,12.096,32.376,12.063,32.61z"/>
							<path opacity="0.3" fill="#1A1C1F" d="M12.206,31.915c-0.021,0.235-0.11,0.461-0.143,0.695
								c-0.014,0.094-0.021,0.189-0.022,0.286c-0.562,0.027-1.123,0.055-1.685,0.082c0.019-0.134,0.049-0.266,0.078-0.397
								c0.038-0.179,0.112-0.353,0.132-0.533c0.475-0.262,0.999-0.429,1.54-0.462c0.011-0.001,0.024-0.002,0.035-0.002
								c0.011,0.016,0.02,0.032,0.027,0.051C12.209,31.721,12.213,31.82,12.206,31.915z"/>
							<path fill="#010101" d="M14.87,30.279c0,0-1.04-0.461-1.144,0.911c-0.027,0.356,0.42,0.498,0.621,0.519
								c0.088,0.01,0.219-0.008,0.342,0.1c0.153,0.134,0.205,0.254,0.252,0.307c0.478,0.555,1.424,0.557,1.711,0.314
								c0.41-0.346-0.243-0.867-0.881-1.36C15.104,30.555,14.87,30.279,14.87,30.279z"/>
							<g>
								<path fill="#181817" d="M16.654,32.227c-0.285,0.242-1.232,0.24-1.711-0.314c-0.046-0.053-0.098-0.172-0.252-0.308
									c-0.121-0.105-0.252-0.089-0.341-0.099c-0.129-0.013-0.358-0.076-0.501-0.212c-0.079-0.077-0.131-0.179-0.121-0.306
									c0.021-0.281,0.082-0.484,0.164-0.631c0.201-0.359,0.533-0.379,0.756-0.344c0.132,0.021,0.225,0.063,0.225,0.063
									s0.234,0.275,0.9,0.79c0.117,0.091,0.236,0.183,0.348,0.274C16.617,31.547,16.99,31.945,16.654,32.227z"/>
							</g>
							<path opacity="0.3" fill="#1A1C1F" d="M16.121,31.141c-0.094,0.059-0.196,0.102-0.305,0.129
								c-0.129,0.031-0.262,0.041-0.393,0.049c-0.194,0.014-0.388,0.027-0.582,0.04c-0.177,0.013-0.354,0.024-0.531,0.013
								c-0.156-0.012-0.309-0.04-0.461-0.077c-0.079-0.077-0.131-0.179-0.121-0.306c0.021-0.281,0.082-0.484,0.164-0.631
								c0.247-0.125,0.5-0.24,0.756-0.344c0.132,0.021,0.225,0.063,0.225,0.063s0.234,0.275,0.9,0.79
								C15.891,30.957,16.01,31.049,16.121,31.141z"/>
							<g>
								<g>
									<path fill="#022640" d="M14.063,19.315c-0.015,0.035-0.029,0.07-0.043,0.106c-0.016,0.04-0.033,0.082-0.05,0.123
										c-0.048,0.123-0.101,0.251-0.151,0.382c-0.043,0.106-0.084,0.213-0.127,0.321c-0.055,0.141-0.111,0.283-0.164,0.422
										c-0.018,0.047-0.037,0.095-0.054,0.142c-0.227,0.591-0.406,1.09-0.409,1.194c0,0.003-0.001,0.007-0.001,0.011
										c-0.024,0.572-0.049,1.727-0.076,2.26v0.003c-0.003,0.054-0.006,0.102-0.008,0.143c-0.019,0.302-0.162,1.671-0.206,2.019
										c-0.272,2.14-0.318,4.422-0.42,6.124c-0.013,0.007-0.029,0.013-0.045,0.019c-0.035,0.012-0.075,0.021-0.12,0.033
										c-0.042,0.01-0.089,0.02-0.139,0.029c-0.318,0.058-0.773,0.094-1.16,0.104c-0.129,0.002-0.251,0.002-0.356-0.001
										c-0.029-0.001-0.056-0.003-0.082-0.003c-0.086-0.006-0.159-0.012-0.213-0.021c0.003-0.008,0.009-0.167,0.011-0.392
										c0.005-0.418,0-1.063-0.058-1.363c-0.027-0.1-0.044-0.199-0.058-0.289h0.005c-0.053-0.298-0.09-0.609-0.113-0.979
										c-0.067-1.098-0.006-2.852,0.313-4.114c0.012-0.049,0.025-0.097,0.038-0.145c-0.008-0.099-0.017-0.203-0.024-0.313
										c-0.085-1.122-0.166-2.805-0.237-4.235c-0.021-0.425-0.042-0.828-0.061-1.186c-0.007-0.139-0.015-0.27-0.021-0.395H14.063z
										"/>
									<path opacity="0.3" fill="#0B0B0B" d="M10.927,25.859c-0.197-0.083-0.397-0.171-0.588-0.27
										c0.012-0.049,0.025-0.097,0.038-0.145c-0.008-0.099-0.017-0.203-0.024-0.313c0.319-0.046,0.75,0.034,0.955,0.081
										c-0.104,0.059-0.635,0.212-0.735,0.117C10.727,25.477,10.85,25.659,10.927,25.859z"/>
									<path opacity="0.3" fill="#0B0B0B" d="M12.965,21.662c-0.083,0.275-0.142,0.559-0.181,0.842
										c-0.097,0.688-0.097,1.387-0.15,2.081c-0.115,1.507-0.479,2.989-0.508,4.499c-0.011,0.617,0.032,1.244-0.125,1.84
										c-0.157,0.596-0.569,1.174-1.17,1.314c-0.191,0.045-0.393,0.044-0.583,0.096c-0.002,0.225-0.008,0.384-0.011,0.392
										c0.054,0.009,0.127,0.016,0.213,0.021c0.026,0,0.053,0.002,0.082,0.003c0.106,0.003,0.228,0.003,0.356,0.001
										c0.386-0.01,0.841-0.046,1.16-0.104c0.05-0.01,0.097-0.02,0.139-0.029c0.044-0.012,0.085-0.021,0.12-0.033
										c0.017-0.006,0.032-0.012,0.045-0.019c0.103-1.702,0.148-3.984,0.42-6.124c0.044-0.348,0.187-1.717,0.206-2.019
										c0.002-0.041,0.005-0.088,0.008-0.143v-0.003c0.027-0.536,0.052-1.703,0.077-2.271c0.001-0.036,0.023-0.119,0.061-0.237
										c-0.014-0.032-0.02-0.068-0.023-0.104L12.965,21.662z"/>
									<g>
										<path fill="#022640" d="M15.756,28.755c0.004,0.563,0.002,1.081-0.014,1.472c-0.018,0.426-0.051,0.705-0.107,0.736
											c-0.325,0.183-1.684,0.335-2.052,0.103c-0.1-0.062-0.169-0.333-0.22-0.74c-0.159-1.276-0.127-3.897-0.211-5.674
											c-0.026-0.543-0.046-1.099-0.062-1.644c0,0,0,0,0,0c-0.002-0.069-0.004-0.137-0.006-0.205
											c-0.008-0.266-0.014-0.527-0.02-0.784c-0.003-0.175-0.007-0.349-0.01-0.518c-0.005-0.241-0.009-0.475-0.013-0.7
											c-0.002-0.17-0.005-0.336-0.007-0.495c-0.002-0.222-0.006-0.433-0.007-0.629c0-0.04-0.001-0.079-0.001-0.118
											c0-0.023-0.008-0.118-0.02-0.242c-0.029-0.315-0.081-0.824-0.081-0.88l2.829,0.88c0.016,0.285,0.032,0.601,0.049,0.943
											c0.004,0.085,0.008,0.173,0.012,0.261c0.041,0.858-0.157,3.602-0.135,4.605c0.018,0.812,0.062,2.211,0.076,3.436
											C15.754,28.627,15.755,28.691,15.756,28.755z"/>
										<path opacity="0.3" fill="#1A1C1F" d="M15.813,20.52c-0.004-0.088-0.008-0.176-0.012-0.261
											c-0.017-0.342-0.033-0.659-0.049-0.943l-2.829-0.88c0,0.056,0.052,0.565,0.081,0.88h-2.972
											c0.007,0.125,0.014,0.256,0.021,0.395c0.012,0.23,0.025,0.479,0.038,0.74c0.151,0.067,0.292,0.154,0.451,0.203
											c0.227,0.069,0.474,0.072,0.709,0.074c0.426,0.003,0.854,0.001,1.279-0.035c0.625-0.053,1.228-0.248,1.852-0.297
											c0.427-0.034,1.046,0.005,1.197,0.498c0.012,0.036,0.019,0.073,0.024,0.111c0.037,0.139,0.033,0.288,0.025,0.432
											c-0.094,1.803-0.42,3.618-0.142,5.401c0.085,0.548,0.228,1.09,0.261,1.644c0.001,0.027,0.002,0.054,0.004,0.081
											c-0.015-1.225-0.059-2.624-0.076-3.436C15.655,24.122,15.854,21.378,15.813,20.52z"/>
										<path opacity="0.3" fill="#1A1C1F" d="M15.756,28.755c0.004,0.563,0.002,1.081-0.014,1.472
											c-0.018,0.426-0.051,0.705-0.107,0.736c-0.325,0.183-1.684,0.335-2.052,0.103c-0.1-0.062-0.169-0.333-0.22-0.74
											c0.18,0.052,0.354,0.175,0.534,0.244c0.517,0.202,1.134-0.058,1.466-0.503C15.639,29.693,15.747,29.223,15.756,28.755z"/>
										<path opacity="0.4" fill="#1A1C1F" d="M12.769,21.613c-0.194-0.012-0.247-0.028-0.435,0.034
											c0.169,0.038,0.341,0.049,0.512,0.033c0.077-0.006,0.155-0.019,0.228-0.053c0.094-0.043,0.175-0.12,0.261-0.185
											c0.192-0.145,0.411-0.23,0.634-0.249c-0.226,0.093-0.44,0.227-0.637,0.395c0.266,0.006,0.53,0.013,0.795,0.02
											c0.079,0.001,0.164,0.006,0.223,0.076c-0.332,0.146-0.871,0.156-1.184,0.183c-0.138,0.012-0.217-0.346-0.33-0.429
											c-0.178-0.133-0.592-0.268-0.809-0.307C12.012,21.27,12.568,21.515,12.769,21.613z"/>
									</g>
								</g>
								<path fill="#31A6A1" d="M15.861,19.704c-0.072-1.064-0.537-4.106-0.482-5.568c0.018-0.462,0.031-0.9,0.051-1.287
									c0.023-0.447,0.043-0.826,0.031-1.098c-0.016-0.426,0.078-2.059-0.467-2.665c-0.109-0.123-0.313-0.212-0.537-0.279
									c-0.285-0.085-0.605-0.134-0.82-0.171c-0.059-0.01-0.109-0.02-0.149-0.028c-0.011-0.003-0.021-0.005-0.031-0.007
									c0,0,0.014,0.01,0.038,0.03c0.01,0.008,0.023,0.019,0.037,0.031c-0.32,0.005-0.635,0.106-0.978,0.156
									c-0.172,0.025-0.559,0.149-0.979,0.319c-0.012-0.135-0.02-0.22-0.024-0.229c-0.093,0.094-0.207,0.179-0.331,0.257
									c-0.277,0.175-0.607,0.313-0.886,0.433C10.265,9.627,10.2,9.655,10.14,9.682c-0.2,0.089-0.35,0.169-0.397,0.25
									c-0.047,0.079-0.083,0.16-0.112,0.248c-0.004,0.014-0.009,0.028-0.013,0.042c-0.11,0.375-0.071,0.841,0.021,1.5
									c0.003,0.021,0.006,0.04,0.009,0.061c0.001,0.011,0.003,0.022,0.005,0.034c0.183,1.175,0.679,1.975,0.608,3.737
									c-0.052,1.325-0.241,3.661-0.3,4.589c0.487,0.302,1.868,0.229,2.855,0.229C13.595,20.371,15.301,20.025,15.861,19.704z"/>
								<path fill="#248B85" d="M15.379,14.136c0.018-0.462,0.031-0.9,0.051-1.287c0.023-0.447,0.043-0.826,0.031-1.098
									c-0.016-0.426,0.078-2.059-0.467-2.665c-0.109-0.123-0.313-0.212-0.537-0.279c-0.218-0.065-0.455-0.109-0.652-0.143
									c0.393,0.414,0.744,0.433,1.006,0.974c0.17,0.353,0.148,0.91,0.193,1.287c0.082,0.706,0.545,2.059-0.143,2.599
									c-0.729,0.574-1.945-0.39-2.458-0.79c-0.436-0.34-0.974-1.054-1.492-1.185c-1.387-0.35-0.871,1.016-0.197,1.747
									c1.117,1.211,3.342,1.533,4.188,2.917c0.409,0.669,0.817,2.065,0.357,2.816c-0.496,0.808-2.102,1.168-2.924,1.284
									c-0.194,0.027-0.397,0.048-0.605,0.065c0.374,0,0.751-0.007,1.085-0.007c0.779,0,2.485-0.346,3.045-0.667
									C15.789,18.64,15.324,15.598,15.379,14.136z"/>
								<g>
									<path fill="#DFB29D" d="M12.33,9.458c-0.268-0.063-0.512-0.196-0.583-0.351c-0.08-0.173-0.024-0.761-0.024-0.761
										l1.593-0.103c0,0-0.012,0.625-0.037,0.825C13.249,9.31,12.732,9.552,12.33,9.458z"/>
								</g>
								<g>
									<path fill="#FDD5BF" d="M11.723,8.346c0,0-0.001,0.021-0.004,0.055c0.344,0.372,0.971,0.393,1.165,0.78
										c0.037,0.073,0.048,0.145,0.041,0.215c0.193-0.079,0.339-0.204,0.355-0.329c0.025-0.2,0.037-0.825,0.037-0.825
										L11.723,8.346z"/>
								</g>
								<path fill="#F0F4FA" d="M13.145,9.25c0.073-0.077,0.138-0.15,0.15-0.281c0.017-0.176-0.012-0.387-0.012-0.387
									s0.025,0.001,0.152,0.02c0,0,0.723,0.688,0.276,1.395c-0.033-0.021-0.796-0.548-0.869-0.57
									C12.939,9.373,13.067,9.331,13.145,9.25z"/>
								<path id="XMLID_6_" fill="#F0F4FA" d="M11.526,8.837c0.021-0.051,0.182-0.252,0.182-0.252
									c0.029,0.098,0.06,0.198,0.115,0.282c0.055,0.083,0.137,0.16,0.211,0.223c0.116,0.1,0.248,0.179,0.385,0.242
									c0.23,0.107,0.424,0.093,0.422,0.094c-0.005,0.006-0.67,0.796-0.677,0.784C12.116,10.125,11.297,9.417,11.526,8.837z"/>
								<g>
									<g>
										<path fill="#FDD5BF" d="M13.613,8.672c-0.208,0.165-0.487,0.212-0.775,0.18c-0.372-0.042-0.758-0.217-1.022-0.438
											C11.557,8.197,11.086,7.305,11,6.94c-0.015-0.062-0.026-0.122-0.034-0.179c-0.139-1.004,0.769-1.248,1.458-1.782
											c0.729-0.567,1.65-0.415,1.744,0.771C14.263,6.935,14.247,8.167,13.613,8.672z"/>
										<path fill="#FDD5BF" d="M14.168,5.75c-0.094-1.186-1.015-1.337-1.744-0.771c-0.126,0.098-0.259,0.186-0.393,0.271
											c0.065,0.204,0.179,0.385,0.354,0.521c0.264,0.238,0.661,0.105,1.004,0.185c0.66,0.159,0.547,1.598,0.469,2.127
											c-0.106,0.924-1.276,0.679-1.948,0.304c-0.042-0.023-0.095-0.012-0.142-0.018C11.784,8.385,11.8,8.4,11.816,8.414
											c0.265,0.221,0.65,0.396,1.022,0.438c0.288,0.033,0.567-0.015,0.775-0.18C14.247,8.167,14.263,6.935,14.168,5.75z"/>
										<path fill="#1A1C1F" d="M14.125,5.695c-0.064,0,0.034-0.466-0.809-0.17c-0.594,0.209-0.995-0.244-1.158-0.02
											c-0.144,0.199-0.182,0.598-0.132,0.941c0.024,0.165-0.174,0.564-0.258,0.539c-0.147-0.044,0.119,0.155,0.053,0.266
											c-0.177,0.294-0.118,0.943-0.066,1.104c-0.238-0.16-0.451-0.397-0.581-0.593c-0.023-0.036-0.046-0.071-0.069-0.108
											c-0.1-0.104-0.192-0.219-0.27-0.356c-0.162-0.284-0.316-0.568-0.402-0.894c-0.399-1.523,0.783-1.73,0.783-1.73
											s0.88-1.207,2.136-0.558C14.407,4.661,14.235,5.695,14.125,5.695z"/>
									</g>
									
										<ellipse transform="matrix(0.6163 0.7875 -0.7875 0.6163 10.1472 -6.5848)" fill="#FDD5BF" cx="11.831" cy="7.121" rx="0.25" ry="0.154"/>
								</g>
							</g>
						</g>
					</g>
				</g>
				<g>
					<path fill="#DFB29D" d="M20.896,14.389c-0.004-0.002-0.005-0.006-0.005-0.011c-0.135-0.083-0.577-0.346-0.831-0.554v0.805
						H19.09c0.057,0.071,0.105,0.147,0.17,0.22c0.068,0.075,0.154,0.142,0.232,0.206c0.182,0.148,0.373,0.427,0.641,0.35
						c0.078-0.022,0.09-0.107,0.158-0.127c0.078-0.024,0.057,0.044,0.186-0.027c0.156-0.086,0.034-0.153,0.133-0.231
						c0.033-0.025,0.079,0.01,0.107-0.018c0.008-0.008,0.016-0.016,0.021-0.023c0.073-0.083,0.078-0.158,0.063-0.257
						c0.028,0.006,0.07,0.025,0.121,0.052c0.027-0.009,0.053-0.01,0.072-0.038c0.021-0.033,0.025-0.08,0.025-0.119
						C21.018,14.523,20.98,14.436,20.896,14.389z"/>
					<g>
						<path fill="#64C7C6" d="M14.527,13.691l-0.471-0.047l-0.477,0.814l-0.164,0.281c-0.051,0-0.105-0.005-0.161-0.015
							c-1.236-0.221-3.447-2.825-3.723-3.142C8.93,10.89,9.177,10.28,9.595,9.966C9.87,9.758,10.22,9.68,10.45,9.791
							c1.473,0.71,2.568,2.063,3.274,2.884c0.033,0.039,0.065,0.077,0.098,0.113c0.014,0.016,0.028,0.032,0.042,0.047
							c0.05,0.058,0.1,0.114,0.146,0.17c0.001,0.002,0.003,0.003,0.005,0.005c0.027,0.032,0.053,0.063,0.078,0.094
							c0.018,0.022,0.035,0.043,0.053,0.065C14.295,13.359,14.423,13.535,14.527,13.691z"/>
					</g>
					<g>
						<path fill="#FDD5BF" d="M18.943,14.259c0.166,0.125,0.406,0.106,0.623,0.099c0.271-0.114,0.534,0.028,0.604-0.257
							c0.031-0.133-0.135-0.076-0.217-0.069c-0.089,0.007-0.169-0.014-0.254-0.02c-0.389-0.025-0.59,0.116-0.771,0.237
							C18.932,14.255,18.937,14.259,18.943,14.259z"/>
						<g>
							<g enable-background="new    ">
								<g>
									<defs>
										<path id="SVGID_1_" d="M20.199,15.703l-0.441,0.257c0.014-0.008,0.022-0.022,0.025-0.043
											c0.009-0.053-0.037-0.105-0.076-0.167c-0.019-0.029-0.018-0.065-0.012-0.099l0.441-0.257
											c-0.006,0.034-0.006,0.07,0.012,0.1c0.039,0.061,0.086,0.114,0.077,0.167C20.223,15.681,20.213,15.695,20.199,15.703z"/>
									</defs>
									<use xlink:href="#SVGID_1_"  overflow="visible" fill="#262C34"/>
									<clipPath id="SVGID_2_">
										<use xlink:href="#SVGID_1_"  overflow="visible"/>
									</clipPath>
									<g clip-path="url(#SVGID_2_)" enable-background="new    ">
										<polygon fill="#262C34" points="19.695,15.651 20.137,15.394 20.136,15.406 19.693,15.663 19.695,15.651 										"/>
										<path fill="#262C34" d="M19.693,15.663l0.442-0.257c-0.005,0.029-0.003,0.059,0.012,0.084l-0.442,0.257
											C19.691,15.723,19.689,15.692,19.693,15.663L19.693,15.663z"/>
										<path fill="#262C34" d="M19.705,15.748l0.442-0.257c0.001,0.001,0.001,0.001,0.001,0.003
											c0.02,0.029,0.039,0.056,0.054,0.082l-0.442,0.257c-0.016-0.025-0.035-0.053-0.053-0.082
											C19.706,15.75,19.706,15.749,19.705,15.748L19.705,15.748z"/>
										<path fill="#262C34" d="M19.76,15.832l0.442-0.257c0.017,0.028,0.026,0.056,0.023,0.083l-0.442,0.257
											C19.787,15.888,19.776,15.86,19.76,15.832L19.76,15.832z"/>
										<path fill="#262C34" d="M19.783,15.916l0.442-0.257c0,0.001,0,0.001,0,0.002c-0.001,0.006-0.003,0.012-0.005,0.018
											l-0.442,0.256c0.002-0.005,0.004-0.011,0.005-0.018C19.783,15.917,19.783,15.916,19.783,15.916L19.783,15.916z"/>
										<path fill="#262C34" d="M19.778,15.935l0.442-0.256c-0.002,0.005-0.006,0.01-0.009,0.014l-0.442,0.257
											C19.773,15.945,19.775,15.94,19.778,15.935L19.778,15.935z"/>
										<path fill="#262C34" d="M19.77,15.949l0.442-0.257c-0.003,0.004-0.007,0.008-0.013,0.01l-0.441,0.257
											C19.762,15.958,19.767,15.954,19.77,15.949L19.77,15.949z"/>
									</g>
								</g>
								<g>
									<polygon fill="#262C34" points="19.091,13.34 19.533,13.083 19.58,13.06 19.139,13.317 									"/>
								</g>
								<g>
									<polygon fill="#262C34" points="20.063,14.64 20.506,14.384 20.137,15.394 19.695,15.651 									"/>
								</g>
								<g>
									<defs>
										<path id="SVGID_3_" d="M20.178,14.426l0.443-0.257c-0.002,0-0.003,0.001-0.004,0.002c-0.07,0.05-0.109,0.203-0.111,0.212
											l-0.443,0.256c0.003-0.008,0.043-0.161,0.112-0.211C20.176,14.428,20.178,14.427,20.178,14.426z"/>
									</defs>
									<use xlink:href="#SVGID_3_"  overflow="visible" fill="#262C34"/>
									<clipPath id="SVGID_4_">
										<use xlink:href="#SVGID_3_"  overflow="visible"/>
									</clipPath>
									<g clip-path="url(#SVGID_4_)" enable-background="new    ">
										<path fill="#262C34" d="M20.178,14.426l0.443-0.257c-0.002,0-0.003,0.001-0.004,0.002
											c-0.011,0.007-0.02,0.017-0.029,0.028l-0.442,0.257c0.009-0.011,0.019-0.021,0.029-0.028
											C20.176,14.428,20.178,14.427,20.178,14.426L20.178,14.426z"/>
										<path fill="#262C34" d="M20.146,14.457l0.442-0.257c-0.021,0.027-0.039,0.063-0.053,0.096l-0.442,0.257
											C20.106,14.52,20.124,14.484,20.146,14.457L20.146,14.457z"/>
										<path fill="#262C34" d="M20.093,14.553l0.442-0.257c-0.019,0.044-0.029,0.083-0.029,0.088l-0.443,0.256
											C20.064,14.636,20.074,14.598,20.093,14.553L20.093,14.553z"/>
									</g>
								</g>
								<g>
									<defs>
										<path id="SVGID_5_" d="M19.257,12.902l0.442-0.257c0.002-0.001,0.004-0.002,0.007-0.003
											c0.049-0.021,0.175,0.047,0.224,0.075l-0.442,0.257c-0.048-0.028-0.175-0.096-0.224-0.076
											C19.262,12.9,19.26,12.901,19.257,12.902z"/>
									</defs>
									<use xlink:href="#SVGID_5_"  overflow="visible" fill="#262C34"/>
									<clipPath id="SVGID_6_">
										<use xlink:href="#SVGID_5_"  overflow="visible"/>
									</clipPath>
									<g clip-path="url(#SVGID_6_)" enable-background="new    ">
										<path fill="#262C34" d="M19.257,12.902l0.442-0.257c0.002-0.001,0.004-0.002,0.007-0.003
											c0.049-0.021,0.175,0.047,0.224,0.075l-0.442,0.257c-0.048-0.028-0.175-0.096-0.224-0.076
											C19.262,12.9,19.26,12.901,19.257,12.902L19.257,12.902z"/>
									</g>
								</g>
								<g>
									<defs>
										<path id="SVGID_7_" d="M19.487,12.975l0.442-0.257c0.012,0.007,0.018,0.011,0.018,0.011l-0.441,0.257
											C19.506,12.986,19.499,12.981,19.487,12.975z"/>
									</defs>
									<use xlink:href="#SVGID_7_"  overflow="visible" fill="#262C34"/>
									<clipPath id="SVGID_8_">
										<use xlink:href="#SVGID_7_"  overflow="visible"/>
									</clipPath>
									<g clip-path="url(#SVGID_8_)" enable-background="new    ">
										<path fill="#262C34" d="M19.487,12.975l0.442-0.257c0.012,0.007,0.018,0.011,0.018,0.011l-0.441,0.257
											C19.506,12.986,19.499,12.981,19.487,12.975L19.487,12.975z"/>
									</g>
								</g>
								<g>
									<polygon fill="#262C34" points="19.506,12.986 19.947,12.729 20.129,12.834 19.688,13.091 									"/>
								</g>
								<g>
									<defs>
										<path id="SVGID_9_" d="M22.57,15.192l-0.441,0.257c0.015-0.009,0.025-0.028,0.025-0.055l0.441-0.257
											C22.596,15.164,22.586,15.183,22.57,15.192z"/>
									</defs>
									<use xlink:href="#SVGID_9_"  overflow="visible" fill="#191B1E"/>
									<clipPath id="SVGID_10_">
										<use xlink:href="#SVGID_9_"  overflow="visible"/>
									</clipPath>
									<g clip-path="url(#SVGID_10_)" enable-background="new    ">
										<polygon fill="#191B1E" points="22.154,15.394 22.596,15.137 22.595,15.15 22.152,15.407 22.154,15.394 										"/>
										<path fill="#191B1E" d="M22.152,15.407l0.442-0.257c-0.001,0.007-0.003,0.013-0.005,0.019l-0.441,0.257
											C22.15,15.42,22.152,15.414,22.152,15.407L22.152,15.407z"/>
										<path fill="#191B1E" d="M22.148,15.426l0.441-0.257c-0.002,0.005-0.004,0.01-0.008,0.014l-0.441,0.257
											C22.143,15.435,22.146,15.431,22.148,15.426L22.148,15.426z"/>
										<polygon fill="#191B1E" points="22.141,15.439 22.582,15.182 22.57,15.192 22.129,15.449 22.141,15.439 										"/>
									</g>
								</g>
								<g>
									<polygon fill="#262C34" points="19.688,13.091 20.129,12.834 22.268,14.071 21.824,14.328 									"/>
								</g>
								<g>
									<polygon fill="#262C34" points="21.824,14.328 22.268,14.071 22.48,14.194 22.038,14.452 									"/>
								</g>
								<g>
									<polygon fill="#191B1E" points="22.156,14.62 22.6,14.363 22.596,15.137 22.154,15.394 									"/>
								</g>
								<g>
									<polygon fill="#262C34" points="22.038,14.452 22.48,14.194 22.513,14.213 22.07,14.47 									"/>
								</g>
								<g>
									<path fill="#1A1C1F" d="M21.047,14.75c0,0-0.16-0.226-0.26-0.283c-0.063-0.038-0.119-0.039-0.15-0.011
										c-0.029-0.027-0.059-0.051-0.09-0.069c-0.018-0.01-0.213-0.083-0.213-0.063s0.014,0.045,0.031,0.055
										c0.121,0.069,0.219,0.238,0.219,0.377c0,0.139-0.098,0.195-0.218,0.126c-0.018-0.01-0.032-0.002-0.032,0.019
										c0,0.02,0.015,0.044,0.032,0.055c0.155,0.089,0.462,0.097,0.462-0.082c0-0.016-0.002-0.031-0.003-0.047L21.047,14.75z"/>
									<path fill="#1A1C1F" d="M21.254,14.722c0-0.273-0.192-0.607-0.43-0.743l-1.012-0.583v0.132l1.013,0.583
										c0.173,0.1,0.314,0.345,0.315,0.545v0.389c0,0.201-0.141,0.282-0.314,0.182l-1.014-0.583v0.132l1.014,0.583
										c0.237,0.137,0.43,0.025,0.43-0.249L21.254,14.722z"/>
									<path fill="#0F1012" d="M19.487,12.975c0.012,0.007,0.019,0.011,0.019,0.011l0.182,0.105l2.137,1.237l0.214,0.124
										l0.032,0.019c0.048,0.027,0.087,0.095,0.086,0.149l-0.002,0.774c0,0.054-0.04,0.077-0.087,0.049l-0.032-0.02l-0.214-0.123
										L20.6,14.594c-0.002-0.002-0.044-0.029-0.104-0.064c-0.107-0.062-0.268-0.141-0.321-0.102
										c-0.069,0.05-0.109,0.204-0.112,0.211l-0.367,1.011c-0.006,0.034-0.007,0.07,0.012,0.099
										c0.039,0.062,0.085,0.114,0.076,0.167c-0.008,0.048-0.047,0.062-0.092,0.037c-0.006-0.003-0.01-0.007-0.016-0.01
										l-0.641-0.494c-0.01-0.01-0.199-0.193-0.18-0.4c0.039-0.385,0.306-0.857,0.366-0.995c0.108-0.248-0.149-0.539-0.163-0.555
										l0.032-0.16l0.048-0.023l0.062-0.31c0.001-0.005,0.017-0.089,0.063-0.108C19.313,12.879,19.439,12.947,19.487,12.975z"/>
									<path fill="#1A1C1F" d="M19.1,15.377c-0.025-0.025-0.162-0.17-0.147-0.318c0.03-0.297,0.209-0.661,0.305-0.855
										c0.023-0.046,0.042-0.084,0.053-0.11c0.11-0.25-0.063-0.514-0.147-0.619l0.014-0.068l0.048-0.023l0.071-0.356
										c0.002-0.01,0.006-0.021,0.009-0.03c0.026,0.007,0.072,0.027,0.135,0.063l0.017,0.009l2.567,1.486
										c0.017,0.01,0.038,0.045,0.038,0.065l-0.004,0.707l-0.188-0.108l-1.219-0.706c-0.012-0.007-0.051-0.033-0.105-0.065
										c-0.217-0.125-0.302-0.125-0.33-0.125c-0.037,0-0.07,0.01-0.097,0.03c-0.089,0.063-0.134,0.21-0.147,0.261l-0.369,1.014
										l-0.001,0.008c-0.01,0.051-0.007,0.097,0.009,0.137L19.1,15.377z"/>
									<polygon fill="#0F1012" points="19.453,13.596 19.453,13.265 19.834,13.484 20.055,13.736 20.055,13.942 									"/>
								</g>
								<g>
									<defs>
										<path id="SVGID_11_" d="M22.07,14.47l0.442-0.257c0.048,0.027,0.087,0.095,0.087,0.149l-0.443,0.257
											C22.157,14.565,22.118,14.498,22.07,14.47z"/>
									</defs>
									<use xlink:href="#SVGID_11_"  overflow="visible" fill="#262C34"/>
									<clipPath id="SVGID_12_">
										<use xlink:href="#SVGID_11_"  overflow="visible"/>
									</clipPath>
									<g clip-path="url(#SVGID_12_)" enable-background="new    ">
										<polygon fill="#262C34" points="22.07,14.47 22.513,14.213 22.525,14.221 22.082,14.478 22.07,14.47 										"/>
										<path fill="#262C34" d="M22.082,14.478l0.443-0.257c0.006,0.005,0.012,0.01,0.018,0.016l-0.442,0.257
											C22.095,14.488,22.089,14.482,22.082,14.478L22.082,14.478z"/>
										<path fill="#262C34" d="M22.101,14.494l0.442-0.257c0.006,0.006,0.011,0.012,0.016,0.018l-0.442,0.257
											C22.111,14.505,22.106,14.5,22.101,14.494L22.101,14.494z"/>
										<path fill="#262C34" d="M22.116,14.512l0.442-0.257c0.006,0.007,0.01,0.015,0.015,0.022l-0.442,0.257
											C22.127,14.526,22.121,14.519,22.116,14.512L22.116,14.512z"/>
										<path fill="#262C34" d="M22.131,14.534l0.442-0.257c0.016,0.027,0.026,0.058,0.026,0.085l-0.443,0.257
											C22.157,14.592,22.146,14.562,22.131,14.534L22.131,14.534z"/>
									</g>
								</g>
							</g>
						</g>
						<g>
							<path fill="#FDD5BF" d="M20.404,14.582c-0.045-0.083-0.119-0.142-0.216-0.144c-0.005,0-0.007-0.003-0.01-0.006
								c-0.212-0.012-1.069-0.048-1.235-0.173c-0.007,0-0.012-0.004-0.015-0.01c-0.126,0.084-0.241,0.161-0.403,0.165
								c-0.02,0.001-0.036,0.002-0.054,0.003l-0.639-0.324c-0.06,0.02-0.118,0.046-0.173,0.081
								c-0.272,0.177-0.379,0.479-0.387,0.788c-0.002,0.066,0.001,0.133,0.006,0.2c0.73,0.172,1.25,0.294,1.27,0.298
								c0.158,0.025,0.271,0.109,0.418,0.161c0.096,0.034,0.203,0.052,0.302,0.072c0.231,0.043,0.532,0.199,0.73,0.004
								c0.059-0.057,0.028-0.138,0.078-0.187c0.058-0.06,0.071,0.012,0.151-0.112c0.096-0.149-0.043-0.151,0.007-0.267
								c0.017-0.038,0.073-0.028,0.085-0.067c0.004-0.01,0.007-0.021,0.009-0.03c0.024-0.108-0.007-0.175-0.067-0.256
								c0.029-0.008,0.074-0.011,0.131-0.011c0.021-0.021,0.043-0.034,0.046-0.068C20.442,14.659,20.424,14.615,20.404,14.582z"/>
							<path fill="#64C7C6" d="M18.396,15.295c-0.007,0.031-0.015,0.061-0.021,0.089c-0.035,0.147-0.063,0.246-0.069,0.246
								c0,0-3.272-0.456-5.05-0.906c-0.042-0.011-0.084-0.021-0.125-0.032c-0.109-0.111-0.193-0.244-0.237-0.411
								c-0.007-0.026-0.013-0.052-0.017-0.078c-0.092-0.511,0.242-0.954,0.688-1.156l0,0c0.009-0.003,0.016-0.007,0.025-0.011
								c0.195,0.006,0.131-0.098,0.04-0.194c-0.077-0.081-0.175-0.155-0.148-0.15c0.003,0.001,0.073,0.021,0.197,0.055
								c0.042,0.011,0.089,0.025,0.143,0.041c0.069,0.019,0.149,0.042,0.236,0.066c1.342,0.379,4.558,1.291,4.558,1.291
								C18.645,14.149,18.498,14.858,18.396,15.295z"/>
						</g>
					</g>
					<path opacity="0.2" fill="#31A6A1" d="M14.058,12.854c-0.006,0.021-0.012,0.042-0.017,0.064
						c-0.01,0.031-0.018,0.062-0.027,0.092c-0.018,0.051-0.038,0.099-0.068,0.142c-0.07,0.096-0.181,0.152-0.268,0.233
						c-0.157,0.149-0.233,0.386-0.427,0.484c0.122-0.224,0.217-0.461,0.282-0.707c0.012-0.038,0.021-0.077,0.031-0.116l0,0
						c0.018-0.069,0.037-0.139,0.065-0.205c0.012-0.027,0.024-0.055,0.04-0.081c0.003-0.005,0.006-0.01,0.009-0.014
						c0.015-0.024,0.03-0.048,0.045-0.072c0.033,0.039,0.065,0.077,0.098,0.113C13.891,12.807,13.971,12.83,14.058,12.854z"/>
					<g>
						<polygon fill="#1A1C1F" points="21.141,14.563 21.097,14.538 21.004,14.089 21.049,14.115 						"/>
						<polygon fill="#1A1C1F" points="21.224,14.61 21.18,14.585 21.088,14.137 21.132,14.162 						"/>
						<polygon fill="#1A1C1F" points="21.307,14.658 21.262,14.633 21.17,14.185 21.215,14.21 						"/>
						<polygon fill="#1A1C1F" points="21.389,14.706 21.345,14.68 21.253,14.232 21.297,14.257 						"/>
						<polygon fill="#1A1C1F" points="21.472,14.753 21.428,14.728 21.335,14.28 21.379,14.305 						"/>
						<polygon fill="#1A1C1F" points="21.555,14.801 21.51,14.775 21.418,14.327 21.463,14.353 						"/>
						<polygon fill="#1A1C1F" points="21.637,14.849 21.592,14.823 21.5,14.375 21.545,14.4 						"/>
						<polygon fill="#1A1C1F" points="21.72,14.896 21.676,14.871 21.584,14.422 21.627,14.448 						"/>
						<polygon fill="#1A1C1F" points="21.803,14.944 21.758,14.918 21.666,14.47 21.71,14.496 						"/>
						<polygon fill="#1A1C1F" points="21.793,14.737 21.748,14.517 21.793,14.543 21.885,14.991 21.84,14.966 21.793,14.737 						
							"/>
					</g>
				</g>
				<g>
					<g>
						<g enable-background="new    ">
							<g enable-background="new    ">
								<defs>
									<path id="SVGID_13_" enable-background="new    " d="M12.085,6.671l-0.08,0.964c-0.001,0.013,0.011,0.029,0.037,0.047
										c0.008,0.005,0.015,0.011,0.022,0.016c0.013,0.009,0.024,0.017,0.032,0.022l0.08-0.963
										c-0.009-0.006-0.02-0.014-0.033-0.023c-0.006-0.004-0.014-0.009-0.021-0.015C12.096,6.7,12.084,6.684,12.085,6.671z"/>
								</defs>
								<clipPath id="SVGID_14_">
									<use xlink:href="#SVGID_13_"  overflow="visible"/>
								</clipPath>
								<g clip-path="url(#SVGID_14_)" enable-background="new    ">
									<polygon fill="#9F9F9F" points="12.085,6.671 12.005,7.635 12.007,7.644 12.086,6.68 12.085,6.671 									"/>
									<path fill="#C0C8DA" d="M12.086,6.68l-0.08,0.963c0.003,0.011,0.015,0.024,0.035,0.038
										c0.008,0.005,0.015,0.011,0.022,0.016c0.013,0.009,0.024,0.017,0.032,0.022l0.08-0.963
										c-0.009-0.006-0.02-0.014-0.033-0.023c-0.006-0.004-0.014-0.009-0.021-0.015C12.102,6.704,12.09,6.691,12.086,6.68
										L12.086,6.68z"/>
								</g>
							</g>
							<g enable-background="new    ">
								<defs>
									<path id="SVGID_15_" enable-background="new    " d="M14.432,6.923l0.08-0.963c-0.001,0.016-0.006,0.031-0.015,0.043
										c-0.161,0.24-0.414,0.441-0.737,0.592c-0.322,0.151-0.716,0.253-1.159,0.295c-0.122,0.012-0.294-0.043-0.37-0.096
										c-0.008-0.006-0.016-0.011-0.022-0.016c0,0-0.009-0.006-0.033-0.022l-0.08,0.963c0.024,0.017,0.032,0.023,0.033,0.023
										c0.007,0.005,0.014,0.01,0.022,0.016c0.076,0.053,0.249,0.108,0.37,0.096c0.443-0.042,0.836-0.144,1.159-0.295
										c0.323-0.151,0.576-0.352,0.737-0.592C14.426,6.954,14.431,6.939,14.432,6.923z"/>
								</defs>
								<clipPath id="SVGID_16_">
									<use xlink:href="#SVGID_15_"  overflow="visible"/>
								</clipPath>
								<g clip-path="url(#SVGID_16_)" enable-background="new    ">
									<path fill="#C0C8DA" d="M12.176,6.757l-0.08,0.963c0.024,0.017,0.032,0.023,0.033,0.023
										c0.007,0.005,0.014,0.01,0.022,0.016c0.062,0.043,0.189,0.088,0.3,0.097l0.08-0.964c-0.111-0.008-0.238-0.053-0.3-0.096
										c-0.008-0.006-0.016-0.011-0.022-0.016C12.208,6.779,12.2,6.773,12.176,6.757L12.176,6.757z"/>
									<path fill="#FFFFFF" d="M12.531,6.891l-0.08,0.964c0.024,0.001,0.048,0.001,0.07,0c0.443-0.042,0.836-0.144,1.159-0.295
										c0.323-0.151,0.576-0.352,0.737-0.592c0.009-0.013,0.014-0.028,0.015-0.043l0.08-0.963
										c-0.001,0.016-0.006,0.031-0.015,0.043c-0.161,0.24-0.414,0.441-0.737,0.592c-0.322,0.151-0.716,0.253-1.159,0.295
										C12.579,6.894,12.555,6.894,12.531,6.891L12.531,6.891z"/>
									<path fill="#DFE7F5" d="M13.499,6.823c-0.232,0.096-0.507,0.162-0.811,0.191c-0.017,0.002-0.036,0.002-0.055,0
										l-0.062,0.747c0.019,0.001,0.038,0.001,0.055,0c0.303-0.029,0.577-0.094,0.809-0.19L13.499,6.823z"/>
								</g>
							</g>
							<g>
								<path fill="#DFE7F5" d="M12.106,6.648c-0.031,0.015-0.028,0.039,0.016,0.07c0.008,0.005,0.015,0.01,0.021,0.015
									c0.013,0.009,0.024,0.017,0.033,0.023c0.024,0.017,0.032,0.022,0.033,0.022c0.006,0.005,0.014,0.01,0.022,0.016
									c0.076,0.053,0.249,0.108,0.37,0.096c0.443-0.042,0.836-0.145,1.159-0.295c0.323-0.151,0.576-0.352,0.737-0.592
									c0.044-0.066-0.015-0.174-0.091-0.227c-0.008-0.006-0.016-0.011-0.021-0.016c-0.001,0-0.009-0.006-0.033-0.022
									c-0.008-0.006-0.02-0.014-0.032-0.023C14.313,5.71,14.305,5.706,14.297,5.7c-0.043-0.031-0.084-0.038-0.115-0.023
									c-0.022,0.011-0.04,0.032-0.049,0.063c-0.137,0.285-0.357,0.498-0.672,0.646c-0.315,0.147-0.724,0.229-1.238,0.248
									C12.168,6.633,12.128,6.638,12.106,6.648z"/>
							</g>
						</g>
					</g>
					<g>
						<path fill="#DFE7F5" d="M12.064,6.918c-0.125-0.012-0.252-0.04-0.379-0.083c-0.301-0.1-0.602-0.278-0.886-0.491V6.76h-0.239
							c0.206,0.169,0.421,0.324,0.641,0.452c0.307,0.18,0.621,0.305,0.926,0.34l0.051-0.599C12.14,6.933,12.101,6.92,12.064,6.918z"
							/>
					</g>
					<polygon fill="#0E2030" points="12.178,7.727 12.052,7.639 12.12,6.849 12.246,6.937 					"/>
				</g>
			</g>
			<g>
				<path fill="#C0C8DA" d="M10.144,6.437c0.061-0.143,0.146-0.275,0.263-0.351c0.127-0.083,0.281-0.116,0.433-0.119
					c0.111-0.003,0.225,0.01,0.328,0.052c0.616,0.251,0.862,1.158,0.623,1.736c-0.13,0.315-0.402,0.539-0.754,0.516
					C10.329,8.226,9.89,7.417,10.04,6.763C10.063,6.663,10.097,6.547,10.144,6.437z"/>
				<path fill="#414141" d="M10.698,5.144c0.017,0.005,0.032,0.015,0.043,0.028c0.035,0.042,0.022,0.133,0.022,0.183
					c0,0.08,0,0.159,0,0.238c0,0.147,0,0.293,0.001,0.44c0,0.12,0.015,0.261-0.04,0.374c-0.011,0.022-0.033,0.046-0.058,0.04
					c-0.021-0.006-0.03-0.032-0.034-0.054c-0.041-0.202-0.05-0.408-0.048-0.613c0.001-0.191-0.005-0.398,0.033-0.585
					c0.003-0.014,0.006-0.029,0.017-0.039c0.007-0.007,0.017-0.011,0.026-0.013C10.672,5.141,10.686,5.141,10.698,5.144z"/>
				<path fill="#262C34" d="M10.135,6.572c0.051-0.119,0.122-0.23,0.219-0.293c0.106-0.068,0.235-0.096,0.361-0.099
					c0.093-0.002,0.188,0.009,0.274,0.044c0.513,0.209,0.718,0.964,0.519,1.447c-0.109,0.263-0.335,0.449-0.628,0.43
					c-0.59-0.038-0.957-0.712-0.831-1.257C10.068,6.76,10.096,6.664,10.135,6.572z"/>
				<path fill="#FFFFFF" d="M10.132,6.787c0.039-0.091,0.093-0.176,0.168-0.224c0.082-0.052,0.18-0.074,0.277-0.076
					c0.071-0.001,0.144,0.007,0.21,0.034c0.394,0.16,0.551,0.74,0.398,1.11c-0.083,0.201-0.257,0.344-0.482,0.33
					C10.25,7.931,9.97,7.414,10.066,6.996C10.081,6.932,10.102,6.858,10.132,6.787z"/>
				<path fill="#DFE7F5" d="M10.649,4.735c0.459-1.166,1.88-1.255,2.023-1.256c0.268-0.002,0.542,0.062,0.778,0.215
					c0.117,0.076,0.225,0.175,0.311,0.296c0.038,0.054,0.074,0.11,0.105,0.171c0.08,0.159,0.094,0.341,0.091,0.524
					c-0.017-0.035-0.025-0.073-0.04-0.109c-0.01-0.024-0.018-0.046-0.029-0.068c-0.025-0.044-0.049-0.09-0.082-0.128
					c-0.059-0.071-0.126-0.133-0.196-0.188c-0.137-0.107-0.288-0.181-0.446-0.229c-0.18-0.048-0.367-0.042-0.551-0.029
					C12.39,3.948,11.39,4.26,11.011,5.201c-0.047,0.116-0.112,0.215-0.174,0.321c-0.033,0.058-0.072,0.112-0.124,0.146
					C10.656,5.705,10.245,5.761,10.649,4.735z"/>
			</g>
		</g>
		<g>
			<g enable-background="new    ">
				<g>
					<polygon fill="#131417" points="13.867,34.601 13.869,35.354 15.992,36.588 15.99,35.834 					"/>
				</g>
				<g>
					<polygon fill="#17191E" points="15.99,35.834 15.992,36.588 20.68,33.881 20.678,33.129 					"/>
				</g>
				<g>
					<polygon fill="#232730" points="13.867,34.601 15.99,35.834 20.678,33.129 18.554,31.895 					"/>
				</g>
			</g>
		</g>
	</g>
	<g>
		<g>
			<g>
				<g>
					<g>
						<path fill="#333333" d="M24.275,41.34c0-0.376,0.229-0.814,0.512-0.977c0.127-0.074,0.244-0.079,0.334-0.027l0.091,0.048
							c0,0-0.01,0.005-0.022,0.009c0.068,0.076,0.108,0.199,0.108,0.356c0,0.376-0.229,0.814-0.511,0.978
							c-0.087,0.049-0.17,0.068-0.241,0.058l0.011,0.022l-0.082-0.043l0,0C24.354,41.709,24.275,41.559,24.275,41.34z"/>
						<path fill="#292929" d="M24.893,41.781c-0.281,0.164-0.511-0.01-0.511-0.387c0-0.375,0.229-0.813,0.511-0.977
							c0.282-0.162,0.512,0.012,0.512,0.387C25.404,41.182,25.175,41.619,24.893,41.781z"/>
						<path fill="#FAFAFA" d="M24.893,41.715c-0.254,0.146-0.461-0.01-0.461-0.349s0.207-0.733,0.461-0.88
							c0.254-0.147,0.461,0.009,0.461,0.348S25.146,41.568,24.893,41.715z"/>
						<path fill="#333333" d="M24.893,40.673c-0.177,0.102-0.32,0.376-0.32,0.612s0.144,0.345,0.32,0.242
							c0.178-0.102,0.321-0.376,0.321-0.612C25.214,40.68,25.07,40.57,24.893,40.673z"/>
					</g>
				</g>
				<g>
					<g>
						<path fill="#333333" d="M27.211,39.606c0-0.376,0.229-0.813,0.511-0.977c0.128-0.073,0.245-0.078,0.335-0.026l0.09,0.048
							c0,0-0.01,0.004-0.021,0.009c0.067,0.076,0.107,0.198,0.107,0.356c0,0.376-0.229,0.813-0.511,0.977
							c-0.087,0.05-0.169,0.068-0.241,0.059l0.011,0.022l-0.081-0.043l0,0C27.289,39.977,27.211,39.826,27.211,39.606z"/>
						<path fill="#292929" d="M27.828,40.049c-0.281,0.163-0.512-0.01-0.512-0.386s0.23-0.813,0.512-0.978
							c0.282-0.162,0.512,0.012,0.512,0.387C28.34,39.448,28.11,39.887,27.828,40.049z"/>
						<path fill="#FAFAFA" d="M27.828,39.982c-0.254,0.146-0.461-0.01-0.461-0.349s0.207-0.734,0.461-0.881
							c0.254-0.147,0.461,0.01,0.461,0.349S28.082,39.836,27.828,39.982z"/>
						<path fill="#333333" d="M27.828,38.939c-0.178,0.103-0.32,0.377-0.32,0.613s0.143,0.345,0.32,0.242
							c0.178-0.102,0.32-0.376,0.32-0.613C28.148,38.946,28.006,38.838,27.828,38.939z"/>
					</g>
				</g>
				<g>
					<g>
						<path fill="#333333" d="M22.024,39.941c0-0.376,0.229-0.814,0.511-0.977c0.129-0.074,0.245-0.078,0.335-0.026l0.091,0.048
							c0,0-0.011,0.004-0.022,0.008c0.067,0.077,0.108,0.199,0.108,0.357c0,0.375-0.229,0.813-0.512,0.977
							c-0.086,0.051-0.168,0.068-0.24,0.059l0.011,0.022l-0.081-0.043l0,0C22.103,40.311,22.024,40.161,22.024,39.941z"/>
						<path fill="#292929" d="M22.642,40.385c-0.282,0.162-0.511-0.012-0.511-0.387c0-0.377,0.229-0.814,0.511-0.977
							c0.282-0.164,0.511,0.01,0.511,0.386S22.924,40.221,22.642,40.385z"/>
						<path fill="#FAFAFA" d="M22.642,40.316c-0.254,0.147-0.461-0.009-0.461-0.348s0.207-0.734,0.461-0.881
							c0.255-0.146,0.462,0.01,0.462,0.348C23.104,39.775,22.896,40.17,22.642,40.316z"/>
						<path fill="#333333" d="M22.642,39.274c-0.177,0.103-0.321,0.377-0.321,0.613c0,0.235,0.145,0.345,0.321,0.242
							s0.32-0.376,0.32-0.612S22.818,39.172,22.642,39.274z"/>
					</g>
				</g>
				<g>
					<g enable-background="new    ">
						<g>
							<polygon fill="#2E2E2E" points="22.217,39.061 22.223,39.572 25.213,41.314 25.208,40.804 							"/>
						</g>
						<g>
							<polygon fill="#1A1A1A" points="25.208,40.804 25.213,41.314 28.545,39.39 28.539,38.879 							"/>
						</g>
						<g>
							<polygon fill="#333333" points="22.217,39.061 25.208,40.804 28.539,38.879 25.55,37.135 							"/>
						</g>
					</g>
				</g>
			</g>
			<g>
				<g enable-background="new    ">
					<g enable-background="new    ">
						<g enable-background="new    ">
							<path fill="#1A1A1A" d="M25.674,30.799l-0.012,8.127c0,0.008,0,0.018-0.002,0.026l0.011-8.126
								C25.672,30.816,25.673,30.808,25.674,30.799L25.674,30.799z"/>
							<path fill="#1A1A1A" d="M25.671,30.826l-0.011,8.126c-0.006,0.035-0.025,0.069-0.057,0.102l0.012-8.126
								C25.646,30.896,25.664,30.861,25.671,30.826L25.671,30.826z"/>
							<path fill="#1A1A1A" d="M25.615,30.928l-0.012,8.126c-0.019,0.02-0.043,0.038-0.072,0.055
								c-0.079,0.046-0.182,0.071-0.285,0.076l0.01-8.126c0.105-0.005,0.207-0.029,0.286-0.076
								C25.57,30.966,25.595,30.947,25.615,30.928L25.615,30.928z"/>
							<path fill="#1A1A1A" d="M25.256,31.059l-0.01,8.126c-0.06,0.003-0.121-0.002-0.178-0.013l0.01-8.127
								C25.137,31.057,25.196,31.061,25.256,31.059L25.256,31.059z"/>
							<path fill="#1A1A1A" d="M25.078,31.045l-0.01,8.127c-0.064-0.013-0.125-0.033-0.176-0.063
								c-0.088-0.052-0.133-0.118-0.133-0.186l0.01-8.126c0,0.066,0.045,0.135,0.134,0.186
								C24.954,31.012,25.015,31.033,25.078,31.045L25.078,31.045z"/>
						</g>
					</g>
					<g>
						<path fill="#333333" d="M25.54,30.613c0.177,0.102,0.178,0.268,0.002,0.369c-0.177,0.103-0.462,0.103-0.639,0
							c-0.177-0.102-0.178-0.268-0.002-0.369C25.078,30.51,25.363,30.51,25.54,30.613z"/>
					</g>
				</g>
			</g>
			<g>
				<g enable-background="new    ">
					<g enable-background="new    ">
						<defs>
							<path id="SVGID_17_" enable-background="new    " d="M28.686,26.58l-0.111-0.064c-0.002-0.02-0.004-0.043-0.006-0.066
								l0.111,0.064C28.682,26.537,28.684,26.561,28.686,26.58z"/>
						</defs>
						<clipPath id="SVGID_18_">
							<use xlink:href="#SVGID_17_"  overflow="visible"/>
						</clipPath>
						<g clip-path="url(#SVGID_18_)" enable-background="new    ">
							<path fill="#010101" d="M28.686,26.58l-0.111-0.064c-0.002-0.02-0.004-0.043-0.006-0.066l0.111,0.064
								C28.682,26.537,28.684,26.561,28.686,26.58L28.686,26.58z"/>
						</g>
					</g>
					<g>
						<path fill="#010101" d="M28.666,26.384c0,0,0.006,0.064,0.013,0.13c0,0,0,0,0.001,0
							C28.669,26.419,28.666,26.384,28.666,26.384z"/>
					</g>
					<g enable-background="new    ">
						<defs>
							<path id="SVGID_19_" enable-background="new    " d="M28.68,26.514l-0.111-0.064c-0.01-0.095-0.015-0.13-0.015-0.13
								l0.112,0.064C28.666,26.384,28.669,26.419,28.68,26.514z"/>
						</defs>
						<clipPath id="SVGID_20_">
							<use xlink:href="#SVGID_19_"  overflow="visible"/>
						</clipPath>
						<g clip-path="url(#SVGID_20_)" enable-background="new    ">
							<path fill="#010101" d="M28.68,26.514l-0.111-0.064c-0.01-0.095-0.015-0.13-0.015-0.13l0.112,0.064
								C28.666,26.384,28.669,26.419,28.68,26.514L28.68,26.514z"/>
						</g>
					</g>
					<g enable-background="new    ">
						<defs>
							<path id="SVGID_21_" enable-background="new    " d="M26.148,24.979l-0.111-0.064c0.083,0.047,0.249,0.044,0.326,0.044
								c0.446,0,0.9-0.214,1.273-0.015c0.015,0.007,0.029,0.015,0.043,0.023l0.111,0.064c-0.015-0.008-0.028-0.016-0.043-0.023
								c-0.373-0.199-0.827,0.015-1.274,0.015C26.396,25.024,26.23,25.028,26.148,24.979z"/>
						</defs>
						<clipPath id="SVGID_22_">
							<use xlink:href="#SVGID_21_"  overflow="visible"/>
						</clipPath>
						<g clip-path="url(#SVGID_22_)" enable-background="new    ">
							<path fill="#010101" d="M26.148,24.979l-0.111-0.064c0.083,0.047,0.249,0.044,0.326,0.044c0.446,0,0.9-0.214,1.273-0.015
								c0.015,0.007,0.029,0.015,0.043,0.023l0.111,0.064c-0.015-0.008-0.028-0.016-0.043-0.023
								c-0.373-0.199-0.827,0.015-1.274,0.015C26.396,25.024,26.23,25.028,26.148,24.979L26.148,24.979z"/>
						</g>
					</g>
					<g enable-background="new    ">
						<defs>
							<path id="SVGID_23_" enable-background="new    " d="M24.809,25.107l0.111,0.064c0.012,0.008,0.021,0.016,0.027,0.027
								c0.066,0.11,0.002,0.387-0.078,0.535c-0.318,0.576-0.881,0.895-1.257,1.39c-0.483,0.636-0.826,1.462-1.038,2.185
								c-0.189,0.65-0.198,1.147-0.199,1.716c-0.004,1.444-0.232,3.222,0.742,3.778l-0.111-0.063
								c-0.974-0.558-0.746-2.335-0.742-3.778c0.001-0.569,0.01-1.067,0.2-1.717c0.212-0.723,0.555-1.549,1.036-2.185
								c0.377-0.495,0.939-0.813,1.258-1.39c0.081-0.147,0.145-0.425,0.079-0.535C24.831,25.123,24.82,25.114,24.809,25.107z"/>
						</defs>
						<clipPath id="SVGID_24_">
							<use xlink:href="#SVGID_23_"  overflow="visible"/>
						</clipPath>
						<g clip-path="url(#SVGID_24_)" enable-background="new    ">
							<path fill="#010101" d="M23.117,34.801l-0.111-0.063c-0.974-0.558-0.746-2.335-0.742-3.778c0.001-0.569,0.01-1.067,0.2-1.717
								c0.212-0.723,0.555-1.549,1.036-2.185c0.377-0.495,0.939-0.813,1.258-1.39c0.081-0.147,0.145-0.425,0.079-0.535
								c-0.006-0.01-0.017-0.019-0.028-0.026l0.111,0.064c0.012,0.008,0.021,0.016,0.027,0.027c0.066,0.11,0.002,0.387-0.078,0.535
								c-0.318,0.576-0.881,0.895-1.257,1.39c-0.483,0.636-0.826,1.462-1.038,2.185c-0.189,0.65-0.198,1.147-0.199,1.716
								C22.371,32.467,22.143,34.244,23.117,34.801L23.117,34.801z"/>
						</g>
					</g>
					<g enable-background="new    ">
						<defs>
							<path id="SVGID_25_" enable-background="new    " d="M24.666,25.094l-0.11-0.064c-0.103-0.059-0.188-0.144-0.257-0.25
								c-0.096-0.142-0.105-0.36-0.188-0.506c-0.059-0.105-0.161-0.077-0.162-0.272c0-0.084,0.025-0.137,0.037-0.219
								c0.02-0.134,0.023-0.204,0.016-0.339c-0.008-0.168-0.002-0.347,0.021-0.531c0.076-0.617,0.354-1.302,0.835-1.799
								c0.171-0.178,0.357-0.325,0.544-0.433c0.357-0.206,0.715-0.268,0.971-0.126l0.109,0.064
								c-0.255-0.141-0.612-0.079-0.969,0.127c-0.187,0.107-0.373,0.255-0.545,0.433c-0.48,0.498-0.758,1.182-0.835,1.799
								c-0.022,0.185-0.029,0.363-0.021,0.532c0.008,0.136,0.004,0.205-0.016,0.339c-0.013,0.083-0.037,0.135-0.037,0.22
								c0,0.195,0.103,0.167,0.161,0.272c0.083,0.146,0.093,0.364,0.188,0.506C24.479,24.95,24.564,25.035,24.666,25.094z"/>
						</defs>
						<clipPath id="SVGID_26_">
							<use xlink:href="#SVGID_25_"  overflow="visible"/>
						</clipPath>
						<g clip-path="url(#SVGID_26_)" enable-background="new    ">
							<path fill="#010101" d="M24.666,25.094l-0.11-0.064c-0.103-0.059-0.188-0.144-0.257-0.25
								c-0.096-0.142-0.105-0.36-0.188-0.506c-0.059-0.105-0.161-0.077-0.162-0.272c0-0.084,0.025-0.137,0.037-0.219
								c0.02-0.134,0.023-0.204,0.016-0.339c-0.008-0.168-0.002-0.347,0.021-0.531c0.076-0.617,0.354-1.302,0.835-1.799
								c0.171-0.178,0.357-0.325,0.544-0.433c0.357-0.206,0.715-0.268,0.971-0.126l0.109,0.064
								c-0.255-0.141-0.612-0.079-0.969,0.127c-0.187,0.107-0.373,0.255-0.545,0.433c-0.48,0.498-0.758,1.182-0.835,1.799
								c-0.022,0.185-0.029,0.363-0.021,0.532c0.008,0.136,0.004,0.205-0.016,0.339c-0.013,0.083-0.037,0.135-0.037,0.22
								c0,0.195,0.103,0.167,0.161,0.272c0.083,0.146,0.093,0.364,0.188,0.506C24.479,24.95,24.564,25.035,24.666,25.094
								L24.666,25.094z"/>
						</g>
					</g>
					<g enable-background="new    ">
						<defs>
							<polygon id="SVGID_27_" enable-background="new    " points="26.382,20.558 26.492,20.623 26.482,20.617 26.373,20.553 
															"/>
						</defs>
						<clipPath id="SVGID_28_">
							<use xlink:href="#SVGID_27_"  overflow="visible"/>
						</clipPath>
						<g clip-path="url(#SVGID_28_)" enable-background="new    ">
							<polygon fill="#010101" points="26.482,20.617 26.373,20.553 26.382,20.558 26.492,20.623 26.482,20.617 							"/>
						</g>
					</g>
				</g>
				<path fill="#1C1E22" d="M28.692,26.637c-0.005-0.049-0.009-0.09-0.013-0.123c0.002,0.023,0.004,0.047,0.006,0.066
					c-0.092-0.72-0.451-1.312-0.938-1.571c-0.373-0.199-0.827,0.015-1.274,0.015c-0.095-0.001-0.324,0.005-0.368-0.087
					c-0.021-0.049,0-0.178,0-0.246c0-0.199-0.002-0.159,0.141-0.367c0.236-0.348,0.408-0.746,0.506-1.126
					c0.021-0.078,0.029-0.162,0.053-0.241c0.038-0.131,0.072-0.166,0.116-0.291c0.085-0.242,0.028-0.312,0.004-0.493
					c-0.044-0.312,0.019-0.696-0.063-1c-0.068-0.249-0.191-0.452-0.379-0.556c-0.255-0.141-0.612-0.079-0.969,0.127
					c-0.187,0.107-0.373,0.255-0.545,0.433c-0.48,0.498-0.758,1.182-0.835,1.799c-0.022,0.185-0.029,0.363-0.021,0.532
					c0.008,0.136,0.004,0.205-0.016,0.339c-0.013,0.083-0.037,0.135-0.037,0.22c0,0.195,0.103,0.167,0.161,0.272
					c0.083,0.146,0.093,0.364,0.188,0.506c0.071,0.109,0.161,0.196,0.267,0.255c0.066,0.037,0.236,0.037,0.271,0.098
					c0.066,0.11,0.002,0.387-0.078,0.535c-0.318,0.576-0.881,0.895-1.257,1.39c-0.483,0.636-0.826,1.462-1.038,2.185
					c-0.189,0.65-0.198,1.147-0.199,1.716c-0.004,1.444-0.232,3.222,0.742,3.778c0.705,0.403,1.571-0.055,2.496-0.59
					c0.123-0.07,0.246-0.139,0.37-0.211c0.3-0.172,0.599-0.359,0.89-0.619c0.617-0.551,1.153-1.332,1.482-2.152
					c0.395-0.98,0.359-1.768,0.354-2.613C28.707,27.965,28.758,27.247,28.692,26.637z M25.332,28.111
					c-0.088,0.15-0.228,0.23-0.314,0.182c-0.086-0.051-0.086-0.213,0-0.361c0.087-0.15,0.227-0.232,0.313-0.182
					S25.418,27.962,25.332,28.111z M26.765,28.288c-0.086,0.149-0.226,0.231-0.313,0.181c-0.087-0.05-0.087-0.211,0-0.361
					s0.227-0.23,0.313-0.181C26.852,27.977,26.852,28.139,26.765,28.288z M27.153,26.671c-0.087,0.149-0.228,0.23-0.313,0.181
					c-0.087-0.05-0.087-0.212,0-0.361c0.086-0.15,0.227-0.23,0.313-0.182C27.24,26.359,27.24,26.521,27.153,26.671z"/>
			</g>
		</g>
		<defs>
			<filter id="Adobe_OpacityMaskFilter" filterUnits="userSpaceOnUse" x="18.577" y="19.069" width="14.92" height="23.471">
				<feFlood  style="flood-color:white;flood-opacity:1" result="back"/>
				<feBlend  in="SourceGraphic" in2="back" mode="normal"/>
			</filter>
		</defs>
		<mask maskUnits="userSpaceOnUse" x="18.577" y="19.069" width="14.92" height="23.471" id="SVGID_29_">
			<g filter="url(#Adobe_OpacityMaskFilter)">
				<defs>
					<filter id="Adobe_OpacityMaskFilter_1_" filterUnits="userSpaceOnUse" x="18.577" y="19.069" width="14.92" height="23.471">
						<feFlood  style="flood-color:white;flood-opacity:1" result="back"/>
						<feBlend  in="SourceGraphic" in2="back" mode="normal"/>
					</filter>
				</defs>
				<mask maskUnits="userSpaceOnUse" x="18.577" y="19.069" width="14.92" height="23.471" id="SVGID_29_">
					<g filter="url(#Adobe_OpacityMaskFilter_1_)">
					</g>
				</mask>
				<linearGradient id="SVGID_30_" gradientUnits="userSpaceOnUse" x1="26.0371" y1="22.5742" x2="26.0371" y2="44.6981">
					<stop  offset="0" style="stop-color:#000000"/>
					<stop  offset="1" style="stop-color:#FFFFFF"/>
				</linearGradient>
				<path mask="url(#SVGID_29_)" fill="url(#SVGID_30_)" d="M30.177,39.687c0.037-0.235,3.32-15.047,3.32-15.047h-0.003
					c0.055-1.437-0.672-2.886-2.183-3.983c-2.913-2.116-7.636-2.116-10.55,0c-1.382,1.004-2.107,2.303-2.178,3.618h-0.007
					l2.806,15.56c0.145,0.645,0.559,1.264,1.243,1.762c1.734,1.26,4.546,1.26,6.279,0C29.643,41.061,30.065,40.385,30.177,39.687
					L30.177,39.687L30.177,39.687z"/>
			</g>
		</mask>
		<linearGradient id="SVGID_31_" gradientUnits="userSpaceOnUse" x1="26.0371" y1="22.5742" x2="26.0371" y2="44.6981">
			<stop  offset="0" style="stop-color:#FFFFFF"/>
			<stop  offset="1" style="stop-color:#53B6E7"/>
		</linearGradient>
		<path opacity="0.5" fill="url(#SVGID_31_)" d="M30.177,39.687c0.037-0.235,3.32-15.047,3.32-15.047h-0.003
			c0.055-1.437-0.672-2.886-2.183-3.983c-2.913-2.116-7.636-2.116-10.55,0c-1.382,1.004-2.107,2.303-2.178,3.618h-0.007l2.806,15.56
			c0.145,0.645,0.559,1.264,1.243,1.762c1.734,1.26,4.546,1.26,6.279,0C29.643,41.061,30.065,40.385,30.177,39.687L30.177,39.687
			L30.177,39.687z"/>
	</g>
</g>
</svg>
