<?xml version="1.0" encoding="UTF-8"?>
<!DOCTYPE svg PUBLIC "-//W3C//DTD SVG 1.1//EN" "http://www.w3.org/Graphics/SVG/1.1/DTD/svg11.dtd">
<!-- Creator: CorelDRAW X6 -->
<svg xmlns="http://www.w3.org/2000/svg" xml:space="preserve" width="4.35491in" height="9.53536in" version="1.1" style="shape-rendering:geometricPrecision; text-rendering:geometricPrecision; image-rendering:optimizeQuality; fill-rule:evenodd; clip-rule:evenodd"
viewBox="0 0 228 500"
 xmlns:xlink="http://www.w3.org/1999/xlink">
 <defs>
  <style type="text/css">
   <![CDATA[
    .fil5 {fill:#FEFEFE}
    .fil3 {fill:black}
    .fil4 {fill:#191919}
    .fil11 {fill:#1B191C}
    .fil14 {fill:#252326}
    .fil12 {fill:#42362A}
    .fil0 {fill:#6666CC}
    .fil7 {fill:#7F1B1B}
    .fil8 {fill:#B48772}
    .fil2 {fill:#CF2B2A}
    .fil10 {fill:#DBB48D}
    .fil9 {fill:#EFD0B3}
    .fil1 {fill:#F1CCAF}
    .fil6 {fill:#FE0505}
    .fil13 {fill:white}
   ]]>
  </style>
 </defs>
 <rect class="fil0" x="-2484" y="-1509" width="613" height="867"/>
 <path class="fil1" d="M46 65c0,12 -61,72 -43,99 31,46 63,78 65,74l3 -27c-24,-16 -39,-41 -51,-64 -7,-15 55,-60 45,-72 0,-1 -1,-4 -1,-7 0,-3 4,-14 1,-14 -2,0 -5,2 -6,5 -1,3 -1,5 -1,5 -7,-5 -4,-8 -2,-16 3,-12 -10,11 -11,18z"/>
 <path class="fil1" d="M182 65c0,12 61,72 43,99 -31,46 -63,78 -65,74l-3 -27c24,-16 39,-41 51,-64 7,-15 -55,-60 -45,-72 0,-1 1,-4 1,-7 0,-3 -4,-14 -1,-14 2,0 5,2 6,5 1,3 1,5 1,5 7,-5 4,-8 2,-16 -3,-12 10,11 11,18z"/>
 <path class="fil1" d="M71 398l-1 56 16 20 6 -19c0,0 0,-43 1,-53 2,-10 3,-8 3,-8l-25 4z"/>
 <path class="fil2" d="M93 491c0,-11 -1,-24 -1,-37 -8,0 -15,-1 -22,-3 0,1 0,2 0,3 1,16 3,33 3,36l20 0z"/>
 <path class="fil3" d="M97 497c0,2 -47,5 -47,-1 -1,-16 18,-17 28,-14 3,1 7,3 9,2 2,-1 4,-5 6,-4 1,1 4,17 4,17z"/>
 <path class="fil4" d="M50 495c0,0 0,1 0,1 0,5 47,3 47,1 0,0 0,-1 0,-3 -5,1 -15,3 -26,2 -8,0 -15,-1 -20,-2z"/>
 <path class="fil1" d="M160 398l1 56 -16 20 -6 -19c0,0 0,-43 -1,-53 -2,-10 -3,-8 -3,-8l25 4z"/>
 <path class="fil2" d="M138 491c0,-11 1,-24 1,-37 8,0 15,-1 22,-3 0,1 0,2 0,3 -1,16 -3,33 -3,36l-20 0z"/>
 <path class="fil3" d="M134 497c0,2 47,5 47,-1 1,-16 -18,-17 -28,-14 -3,1 -7,3 -9,2 -2,-1 -4,-5 -6,-4 -1,1 -4,17 -4,17z"/>
 <path class="fil4" d="M181 495c0,0 0,1 0,1 0,5 -47,3 -47,1 0,0 0,-1 0,-3 5,1 15,3 26,2 8,0 15,-1 20,-2z"/>
 <path class="fil5" d="M123 383c4,8 6,22 8,32l35 -1c2,-30 -1,-61 -3,-64 -3,-7 -5,-9 -5,-9 -30,-1 -56,-1 -85,0 0,0 -2,1 -5,9 -1,3 -4,35 -2,66l35 0c1,-10 3,-24 7,-32 4,-9 11,-9 15,0z"/>
 <path class="fil6" d="M155 358l8 30 1 2c0,-1 0,-3 0,-4 0,-1 0,-1 0,-2 0,-1 0,-2 0,-2 0,-1 0,-3 -1,-4 0,0 0,-2 0,-2 0,-1 0,-1 0,-2 0,-3 -1,-5 -1,-8 0,-1 0,-3 -1,-4 0,-1 -1,-4 -1,-5l-4 1z"/>
 <path class="fil6" d="M75 359l-8 30 -1 2c0,-1 0,-3 0,-4 0,-1 0,-1 0,-2 0,-1 0,-2 0,-2 0,-1 0,-3 1,-4 0,0 0,-2 0,-2 0,-1 0,-1 0,-2 0,-3 1,-5 1,-8 0,-1 0,-3 1,-4 0,-1 1,-4 1,-5l4 1z"/>
 <path class="fil7" d="M66 357c28,9 79,8 98,-1 0,0 0,-1 0,-1 -41,8 -57,8 -98,0 0,1 0,2 0,3z"/>
 <path class="fil5" d="M67 263l-1 92c41,8 57,8 98,0l-1 -92c0,-1 0,-2 0,-3 0,-8 -2,-31 -1,-43 0,-3 1,-6 3,-10 -10,-8 -20,-12 -33,-12l-30 0c-14,-1 -26,3 -36,12 1,3 2,7 3,9 1,11 -1,35 -1,43 0,1 0,2 0,3z"/>
 <path class="fil6" d="M95 198c2,3 16,27 18,27l6 0c2,0 16,-24 18,-27 0,0 -2,-2 -2,-2 -1,0 -9,0 -17,0l-1 0 0 2 2 0c4,0 7,8 10,7l-12 19 -2 0 -12 -19c3,1 6,-7 10,-7l2 0 0 -2 -1 0c-8,0 -16,0 -17,0 0,0 -2,2 -2,2z"/>
 <polygon class="fil6" points="76,343 66,325 66,354 85,358 80,323 80,321 79,321 80,320 73,279 73,277 73,277 "/>
 <polygon class="fil6" points="154,343 164,325 164,354 145,358 150,323 150,321 150,321 150,320 156,279 156,277 157,277 "/>
 <path class="fil1" d="M103 205l12 19 2 0 12 -19c-1,0 -2,-1 -2,-1 -1,1 -8,1 -10,1 -2,0 -8,0 -10,-2l0 0c-1,1 -2,2 -3,2z"/>
 <path class="fil6" d="M67 275c4,-8 7,-22 8,-36 0,-1 0,-1 0,-2 0,-10 -1,-19 -3,-27 -1,-2 -1,-4 -2,-5 -1,1 -2,2 -4,3 0,0 0,0 0,0 1,3 2,7 3,9 1,11 -1,35 -1,43 0,1 0,2 0,3l0 7 0 6z"/>
 <path class="fil6" d="M156 239c0,15 3,28 7,36l0 -6 0 -6c0,-1 0,-2 0,-3 0,-8 -2,-31 -1,-43 0,-3 1,-6 3,-10 0,0 0,0 0,0 -1,-1 -2,-2 -3,-3 -1,1 -1,3 -2,5 -2,8 -4,18 -4,28 0,1 0,1 0,2z"/>
 <path class="fil1" d="M106 193l20 0 0 14c-1,1 -8,5 -10,5 -2,0 -8,-4 -10,-5l0 -14z"/>
 <path class="fil8" d="M106 203c7,4 14,4 20,0l0 -11c-7,0 -13,0 -20,-1l0 12z"/>
 <path class="fil9" d="M51 115c0,0 0,36 7,52 8,16 11,22 30,27 19,6 40,4 53,1 13,-3 18,-7 25,-16 7,-9 10,-24 9,-47 0,-23 0,-54 -3,-62 -3,-8 -36,-26 -53,-30 -18,-4 -58,8 -64,14 -6,6 -5,60 -5,60z"/>
 <path class="fil10" d="M125 148c-2,4 -6,6 -9,6l0 0 0 0 0 0 0 0c-4,0 -8,-3 -9,-6 8,4 12,4 19,0z"/>
 <path class="fil11" d="M59 68c-8,-1 13,21 -7,41 -2,15 0,40 0,40 -2,-6 -6,-29 -7,-35 -9,-6 -8,-14 -9,-26 -1,-7 -6,-15 -3,-25 2,-7 7,-9 11,-16 2,-4 3,-16 6,-19 3,-3 12,-7 15,-9 4,-3 7,-12 12,-14 5,-2 14,1 20,1 6,-1 8,-8 16,-8 8,0 10,7 16,8 7,1 15,-3 20,-1 5,2 8,11 12,14 3,2 13,6 15,9 3,3 4,15 6,19 4,6 9,9 11,16 2,8 -4,17 -4,23 0,14 2,21 -8,28 -1,6 -7,25 -9,32 0,0 4,-23 1,-37 -20,-20 1,-46 -7,-44 -29,10 -80,7 -110,2z"/>
 <path class="fil9" d="M174 157c13,-6 29,-29 10,-45 -3,-2 -9,-2 -12,-2 0,7 1,13 2,21 0,8 2,19 1,26z"/>
 <path class="fil10" d="M178 141c0,0 1,-6 4,-11 3,-6 5,-1 5,-1 0,0 -3,2 -4,5 -1,3 1,2 2,3 -1,-1 -7,4 -7,4z"/>
 <path class="fil9" d="M56 160c-13,-6 -33,-33 -10,-45 2,-1 3,-1 6,-1 0,1 0,2 0,2 0,0 0,27 4,44z"/>
 <path class="fil10" d="M52 141c0,0 -1,-6 -4,-11 -3,-6 -5,-1 -5,-1 0,0 3,2 4,5 1,3 -1,2 -2,3 1,-1 7,4 7,4z"/>
 <path class="fil12" d="M101 87c-15,12 -29,0 -29,0 -2,-1 -1,18 20,10 5,-2 9,-10 9,-10z"/>
 <path class="fil12" d="M131 86c15,12 29,0 29,0 2,-1 1,18 -20,10 -5,-2 -9,-10 -9,-10z"/>
 <ellipse class="fil12" cx="141" cy="116" rx="12" ry="11"/>
 <circle class="fil13" cx="141" cy="116" r="10"/>
 <circle class="fil12" cx="141" cy="116" r="7"/>
 <circle class="fil14" cx="141" cy="116" r="5"/>
 <circle class="fil13" cx="138" cy="119" r="2"/>
 <circle class="fil13" cx="143" cy="112" r="1"/>
 <ellipse class="fil12" cx="86" cy="116" rx="12" ry="11"/>
 <circle class="fil13" cx="86" cy="116" r="10"/>
 <circle class="fil12" cx="86" cy="116" r="7"/>
 <circle class="fil14" cx="86" cy="116" r="5"/>
 <circle class="fil13" cx="83" cy="119" r="2"/>
 <circle class="fil13" cx="88" cy="112" r="1"/>
 <path class="fil1" d="M70 128c0,0 -3,-3 4,-5 8,-2 14,-4 19,0 5,3 10,8 10,8l-33 -3z"/>
 <path class="fil1" d="M158 128c0,0 3,-3 -4,-5 -8,-2 -14,-4 -19,0 -5,3 -10,8 -10,8l33 -3z"/>
 <path class="fil10" d="M123 186c-1,3 -3,6 -6,6 -3,0 -5,-2 -6,-5 2,1 4,1 6,1 3,0 5,-1 7,-2z"/>
 <path class="fil13" d="M128 175c-1,-5 -7,-8 -11,-8 -5,0 -10,4 -11,8 3,-1 7,-3 11,-3 3,0 9,1 12,3z"/>
</svg>
