<?xml version="1.0" encoding="utf-8"?>
<!-- Generator: Adobe Illustrator 17.0.0, SVG Export Plug-In . SVG Version: 6.00 Build 0)  -->
<!DOCTYPE svg PUBLIC "-//W3C//DTD SVG 1.1//EN" "http://www.w3.org/Graphics/SVG/1.1/DTD/svg11.dtd">
<svg version="1.1" id="Layer_1" xmlns="http://www.w3.org/2000/svg" xmlns:xlink="http://www.w3.org/1999/xlink" x="0px" y="0px"
	 width="800px" height="600px" viewBox="0 0 800 600" enable-background="new 0 0 800 600" xml:space="preserve">
<g>
	<g>
		<path fill="#007CFF" d="M411.173,299.401c-24.332-22.344-55.982-28.98-87.715-22.29c-16.288,3.434-31.692,11.2-45.51,21.132
			c-0.185-38.188,31.102-100.872,71.777-103.292c33.631-2.003,43.853,23.167,45.32,28.374c3.425,12.164,17.578,18.665,29.226,14.882
			c12.367-4.021,18.306-17.076,14.879-29.232c-7.59-26.93-39.134-47.968-68.295-53.862c-26.468-5.349-55.658,4.938-70.017,15.372
			c-20.031,14.548-32.426,31.178-45.391,52.183c-12.071,19.563-20.205,48.146-24.888,70.449c-4.479,21.337-6.956,63.079-3.318,91.48
			c3.635,28.4,11.876,48.533,25.394,66.469c19.612,26.039,46.967,38.305,79.251,40.688c29.716,2.203,61.884-10.075,82.932-30.009
			c21.695-20.537,31.481-48.819,33.543-78.227C450.615,351.415,434.298,320.644,411.173,299.401z M405.885,389.092
			c-3.813,42.051-33.755,62.246-65.571,61.534c-48.288-1.075-72.226-42.707-67.294-78.894c3.967-29.105,32.334-52.751,69.672-53.755
			C380.033,316.975,409.699,347.04,405.885,389.092z"/>
		<path fill="#FFFFFF" d="M384.233,167.453c-9.72,1.218-7.932,15.45,1.783,14.229C395.739,180.464,393.948,166.232,384.233,167.453z
			"/>
		<path fill="#FFFFFF" d="M432.457,211.01c-2.566-13.436-10.241-23.557-23.444-32.673c-7.959-5.494-14.823,9.309-6.064,13.243
			c8.308,3.736,12.872,13.125,14.435,21.323C419.11,221.947,434.189,220.107,432.457,211.01z"/>
	</g>
	<g>
		<path fill="#141111" d="M383.062,434.185c1.041-2.678-0.124-5.484-2.14-7.451c4.268-5.796,7.502-12.386,8.431-19.572
			c0.569-4.398-0.103-8.907-2.289-12.792c-1.95-3.471-5.633-5.424-9.297-6.579c-2.208-0.694-4.573-1.211-6.948-1.431
			c-1.016-1.191-5.007-2.943-10.716-3.359c-3.418-0.249-6.915,0.555-10.137,1.64c-6.871,2.305-12.931,6.846-17.909,12.028
			c-5.144,5.355-9.326,11.961-12.482,18.656c-1.85,3.914-3.041,7.871-3.763,11.928c-0.304-0.203-0.638-0.383-1.003-0.524
			c0.018-0.158,0.032-0.321,0.034-0.474c0.17-1.439-0.405-2.754-2.04-2.794c-1.42-0.037-2.914,0.905-3.642,2.087
			c-0.968,1.572,0.023,3.191,1.419,4.065c1.986,1.238,3.556-0.325,4.075-2.141c0.379,0.155,0.714,0.354,1.016,0.594
			c-0.293,1.812-0.679,5.496-0.719,5.496c-5.454,0.13-10.188,3.986-10.075,9.655c-1.998,0-9.021,1.271-9.313,3.8
			c-0.029,0.24,0.097,0.474,0.358,0.474c4.223-0.025,8.545-0.528,12.712,0.358c0.261,0.06,0.561-0.174,0.46-0.458
			c-0.997-2.829-1.015-5.575,0.333-8.294c1.099-2.22,3.306-2.506,5.497-2.785c-0.02,0.735-0.029,1.744,0.002,2.425
			c-1.567,1.946-2.848,4.048-3.717,6.221c-2.247,5.627-1.96,13.931,4.21,17.462c3.846,2.195,9.21,2.35,13.3,1.748
			c5.467-0.799,9.435-3.011,13.116-5.817c3.224-2.46,6.283-6.432,8.063-10.394c0.051-0.008,2.62-0.717,6.743-2.477
			c2.282,1.657,3.094,4.993,2.456,7.673c-0.466,1.955-3.181,4.676-3.079,5.749c0.144,1.528,5.28,0.381,7.658,0.292
			c4.762-0.18,8.549,1.533,9.103,0.584c1.114-1.911-1.717-2.783-3.485-3.39c-1.521-0.52-4.243-1.313-7.961-1.321
			c1.573-3.195,1.481-8.756-1.806-10.824c3.935-1.684,8.928-4.809,10.457-5.999c2.317,0.629,3.36,3.553,2.867,5.73
			c-0.574,2.564-3.81,4.63-2.52,4.875c2.001,0.373,12.326,1.655,12.925,1.4c2.708-1.187-4.363-3.862-7.242-5.229
			c2.022-3.326-0.904-7.172-3.685-8.749c1.571-1.406,5.147-5.136,6.742-7.13c2.768,2.348,1.422,5.796-0.006,8.586
			c-0.159,0.305,0.618,0.574,1.139,0.729c4.799,1.464,10.91,1.723,11.921,0.814C393.135,438.356,386.279,434.204,383.062,434.185z"
			/>
		<path fill="#DD9B6B" d="M312.984,428.449c-0.661,0.762-1.592,0.449-2.275-0.112c-0.84-0.681-1.062-1.563-0.425-2.46
			c0.504-0.712,1.31-1.236,2.171-1.298c0.863-0.068,1.34,0.255,1.403,1.083C313.923,426.496,313.548,427.796,312.984,428.449z"/>
		<path fill="#3B3735" d="M383.053,421.642c-4.668,1.748-7.381-4.535-6.317-8.323c1.425-5.055,8.506-4.558,10.187-0.095
			C385.988,416.144,384.657,418.966,383.053,421.642z"/>
		<path fill="#3B3735" d="M377.374,388.843c2.703,0.822,7.308,3.129,8.235,5.43c-0.927,0.863-2.161,1.392-2.467,1.491
			c-1.648,0.526-3.281,0.4-4.674-0.677C376.716,393.73,375.386,390.425,377.374,388.843z"/>
		<path fill="#3B3735" d="M326.633,405.197c2.846-0.008,3.03,3.529,2.656,5.693c-0.668,3.891-4.792,5.72-7.77,2.957
			C323.003,410.875,324.721,407.964,326.633,405.197z"/>
		<path fill="#C0001F" d="M316.787,427.173c0.701-3.897,2.107-7.695,3.751-11.282c0.207-0.451,0.419-0.905,0.639-1.352
			c3.121,2.715,7.484,1.278,8.678-2.779c0.758-2.572,0.42-6.91-2.716-7.287c1.641-2.313,3.416-4.525,5.3-6.579
			c4.754-5.177,10.651-9.489,17.253-11.97c3.137-1.182,6.463-1.911,9.815-1.816c3.655,0.103,7.008,0.81,8.863,2.133
			c-5.688,0.015-12.236,2.348-19.33,8.923c-1.45-2.452-5.674-0.476-7.444,1.238c-2.166,2.096-2.702,6.884-0.812,9.24
			c-0.422,0.677-0.836,1.354-1.235,2.038c-3.652,6.241-6.237,13.168-7.217,20.348c-0.517,0.089-1.033,0.188-1.546,0.309
			c-4.153,1-8.361,3.29-11.901,6.329c-0.126-2.375-0.635-5.028-2.227-6.691C316.699,427.707,316.738,427.436,316.787,427.173z"/>
		<path fill="#3B3735" d="M348.493,395.717c-2.755,2.789-5.168,5.966-7.282,9.259c-1.397-2.017-1.065-5.861,0.45-7.625
			C343.46,395.261,347.478,393.455,348.493,395.717z"/>
		<path fill="#C0001F" d="M316.516,428.933c1.286,1.702,1.596,4.262,1.648,6.37c-0.754,0.688-1.472,1.41-2.149,2.156
			C316.036,434.607,316.133,431.762,316.516,428.933z"/>
		<path fill="#D7885C" d="M309.31,437.89c-1.893,2.744-2.069,6.028-1.125,9.116c-3.87-0.694-7.845-0.319-11.754-0.263
			c1.087-2.417,9.224-2.835,9.224-2.872c-0.201-5.351,3.756-9.375,9.297-9.563c0.027,0,0.042-0.008,0.065-0.013
			c-0.025,0.425-0.052,0.847-0.067,1.276C312.897,435.819,310.59,436.036,309.31,437.89z"/>
		<path fill="#E7BA87" d="M344.311,454.363c-3.299,3.701-7.76,6.356-12.468,7.772c-6.337,1.903-13.333,1.081-16.492-1.081
			c-3.156-2.164-4.383-6.923-4.257-10.812c0.161-4.875,3.269-9.288,6.526-12.661c6.779-7.022,17.483-11.719,26.62-6.459
			C353.557,436.473,350.272,447.662,344.311,454.363z"/>
		<path fill="#D7885C" d="M360.686,455.121c-0.556-0.099-1.295,0.547-0.636,0.505c0.66-0.035,1.969-0.066,4.191,0.186
			c2.225,0.253,3.539,0.774,5.404,1.385c0.812,0.265,2.213,0.731,2.476,1.309c0.455,1.013-0.388,0.905-0.856,0.866
			c-1.089-0.11-2.606-0.447-3.69-0.611c-1.599-0.236-2.95-0.362-4.567-0.271c-2.05,0.112-6.004,0.82-6.048,0.068
			c-0.04-0.76,2.906-4.084,3.082-6.724c0.165-2.479-0.728-5.088-2.614-6.687c0.417-0.174,0.829-0.354,1.245-0.538
			C362.088,446.157,362.138,452.185,360.686,455.121z"/>
		<path fill="#D7885C" d="M374.93,445.363c0.832,0.331,8.241,3.5,7.842,4.055c-0.394,0.553-11.42-0.87-11.691-1.187
			c-0.273-0.325,2.858-2.046,2.578-6.215c-0.117-1.785-1.316-3.626-2.984-4.326c0.356-0.296,0.703-0.603,1.056-0.905
			C374.12,437.97,377.426,441.793,374.93,445.363z"/>
		<path fill="#C0001F" d="M373.388,433.746c-3.302,3.282-7.056,5.931-11.198,8.033c-3.868,1.965-9.26,4.227-11.776,4.689
			c1.236-3.402,1.369-6.556,0.143-10.027c-1.168-3.307-4.093-5.453-7.084-7.02c-1.176-0.615-2.385-1.05-3.621-1.329
			c0.213-2.112,0.967-5.206,3.011-6.049c1.539,1.396,4.959-0.141,5.49-2.174c0.504-1.94-1.281-3.384-3.023-3.572
			c-0.937-0.102-2.1,0.369-2.664,1.129c-0.643,0.861-1.024,2.297-0.26,4.003c-2.191,1.05-3.034,4.183-3.283,6.519
			c-1.85-0.333-3.748-0.333-5.644-0.095c1.469-10.479,6.52-20.46,13.293-28.51c6.527-7.759,15.162-13.274,25.634-11.601
			c1.381,0.222,2.772,0.491,4.138,0.862c-1.902,2.054-0.493,5.813,1.742,7.271c1.643,1.079,3.615,1.253,5.436,0.481
			c0.472-0.199,1.825-0.932,2.359-1.518c2.249,3.562,2.593,8.279,2.155,12.328c-0.185,1.694-0.522,3.361-0.991,5.005
			c-2.37-4.225-9.274-4.531-11.101,0.609c-1.521,4.268,1.502,10.739,6.346,9.783C379.895,426.695,376.686,430.472,373.388,433.746z"
			/>
		<path fill="#DD9B6B" d="M343.327,418.496c0.237-0.824,1.265-1.094,2.002-1.081c1.344,0.023,2.4,1.404,1.763,2.636
			c-0.615,1.189-3.568,2.288-3.925,0.166C343.056,419.556,343.16,419.065,343.327,418.496z"/>
		<path fill="#D7885C" d="M379.925,437.668c1.496-3.034,2.588-6.662-0.388-9.108c0.315-0.402,0.63-0.81,0.936-1.222
			c1.855,1.855,2.712,4.098,1.905,7.333c4.392,0.652,9.038,3.585,8.532,4.189C390.404,439.468,383.402,438.884,379.925,437.668z"/>
		<path fill="#141111" d="M323.796,439.346c-1.203,0-1.203,1.866,0,1.866C325,441.211,325,439.346,323.796,439.346z"/>
		<path fill="#141111" d="M331.014,437.266c-1.203,0-1.203,1.868,0,1.868C332.22,439.134,332.22,437.266,331.014,437.266z"/>
		<path fill="#141111" d="M338.389,434.307c-0.128-0.534-1.223-0.116-1.043,0.286c0.18,0.393,0.571,1.265,0.504,2.609
			c-0.065,1.344-0.941,2.937-1.629,3.92c-1.289,1.831-3.31,3.129-5.239,4.202c-4.776,2.642-10.188,4.158-15.216,1.247
			c-0.625-0.356-0.876,0.335-0.25,0.698c3.11,1.798,6.008,2.313,9.154,1.667c0.113,2.386,0.969,4.558,2.896,6.047
			c1.872,1.443,4.849,1.214,6.583-0.317C338.978,450.396,340.007,440.963,338.389,434.307z"/>
		<path fill="#B65B42" d="M329.265,454.587c-2.481-0.677-3.425-3.622-3.487-5.89c-0.002-0.008-0.002-0.012-0.004-0.023
			c2.122-0.576,4.201-1.514,6.193-2.62c2.263-1.251,5.232-3.622,6.209-6.527c0.083,3.829-0.766,8.182-2.759,11.754
			C334.099,453.636,332.112,455.376,329.265,454.587z"/>
		<path fill="#141111" d="M368.565,399.324c-1.494-3.071-5.254-2.483-7.601-0.888c-3.032,2.065-4.555,6.014-2.673,9.195
			c1.806,3.053,5.162,2.001,7.27,0.325C368.143,405.905,370.145,402.567,368.565,399.324z"/>
		<path fill="#3B3735" d="M358.808,406.951c-1.291-2.402-0.154-5.529,2.037-7.484c1.931-1.717,5.199-2.522,6.895-0.085
			C370.958,404.01,361.821,412.567,358.808,406.951z"/>
		<path fill="#141111" d="M362.989,421.803c-3.854-4.208-11.944,2.336-9.474,7.695C356.822,436.674,368.429,427.738,362.989,421.803
			z"/>
		<path fill="#3B3735" d="M354.645,429.813c-2.843-4.425,3.813-10.897,7.608-7.693C367.314,426.396,357.892,434.864,354.645,429.813
			z"/>
		<path fill="#EFCFA4" d="M323.57,433.499c1.792-1.334,5.34-2.957,8.058-3.533c3.675-0.783,6.291-0.642,5.514,0.209
			C336.626,430.739,319.68,436.397,323.57,433.499z"/>
		<path fill="#EFCFA4" d="M343.783,431.592c1.084,0.234,3.053,1.947,3.607,3.601C348.24,437.74,339.261,430.6,343.783,431.592z"/>
		<path fill="#E0A371" d="M340.534,453.432c1.981-1.686,7.493-6.146,6.221-3.324c-1.273,2.829-5.867,8.128-11.168,10.11
			C330.284,462.193,337.708,455.836,340.534,453.432z"/>
		<path fill="#EFCFA4" d="M332.406,438.519c0.041-0.358,1.766-1.344,1.766-0.779C334.171,438.304,332.335,439.155,332.406,438.519z"
			/>
		<path fill="#EFCFA4" d="M322.864,441.416c0.161,0.321-1.698,0.493-1.628-0.141C321.309,440.638,322.651,440.99,322.864,441.416z"
			/>
		<path fill="#E7B994" d="M310.67,425.949c0.326-0.698,1.114-1.166,2.142-1.073C313.839,424.965,309.507,428.403,310.67,425.949z"/>
		<path fill="#E7B994" d="M344.118,417.953c0.586-0.451,2.186-0.491,2.634,0.493C347.2,419.432,342.732,419.026,344.118,417.953z"/>
		<path fill="#CC855B" d="M343.671,420.813c0.214,0.319,0.626,0.582,1.519,0.354c0.892-0.219,1.381-0.623,1.517-0.938
			C346.841,419.921,343.315,420.275,343.671,420.813z"/>
		<path fill="#CC855B" d="M312.277,427.689c0.399-0.257,1.25-0.58,0.892,0.182c-0.356,0.758-0.937,1.066-1.563,0.714
			C310.98,428.225,311.65,428.09,312.277,427.689z"/>
		<path fill="#C2784F" d="M361.185,458.499c0.796-0.122,2.225-0.321,3.717-0.182c1.493,0.139,2.89,0.317,3.578,0.482
			c0.691,0.162-0.367-1.126-3.693-1.261C361.462,457.401,358.981,458.847,361.185,458.499z"/>
		<path fill="#C2784F" d="M373.198,448.466c0.976,0.126,4.24,0.565,5.463,0.609c1.225,0.041-2.188-1.094-2.882-1.139
			C375.077,447.896,370.878,448.155,373.198,448.466z"/>
		<path fill="#C2784F" d="M381.984,438.057c0.874,0.143,3.539,0.615,4.897,0.7c1.356,0.089-0.436-0.874-2.055-1.004
			C383.209,437.623,379.056,437.581,381.984,438.057z"/>
		<path fill="#C2784F" d="M299.882,446.494c1.224-0.046,3.236-0.087,4.635-0.039c1.398,0.039,0.438-0.741-1.357-0.741
			C301.367,445.713,295.509,446.672,299.882,446.494z"/>
		<path fill="#DE9F6E" d="M362.983,455.892c1.095,0,3.568,0.528,4.924,0.878c1.354,0.35-1.102,0.238-2.449,0.087
			C363.886,456.681,360.489,455.892,362.983,455.892z"/>
		<path fill="#DE9F6E" d="M375.339,445.842c0.843,0.344,2.712,1.176,3.367,1.485c0.654,0.3-3.278-0.263-3.806-0.565
			C374.378,446.455,373.633,445.14,375.339,445.842z"/>
		<path fill="#DE9F6E" d="M384.737,435.57c0.901,0.066,3.412,1.222,3.937,1.789C389.199,437.925,380.935,435.262,384.737,435.57z"/>
		<path fill="#2A2624" d="M359.776,427.303c1.13-1.009,3.848-3.146,3.585-1.617c-0.262,1.53-1.529,4.193-4.678,5.202
			C355.536,431.892,358.158,428.745,359.776,427.303z"/>
		<path fill="#2A2624" d="M382.204,416.028c1.284-0.71,4.547-2.319,3.759-0.615c-0.786,1.702-2.841,5.854-3.235,6.121
			c-0.393,0.261-2.449,0.35-3.409-0.609C378.355,419.96,378.794,417.91,382.204,416.028z"/>
		<path fill="#2A2624" d="M363.926,404.555c2.224-1.891,4.579-3.717,4.184-2.015c-0.402,1.748-1.824,4.635-5.099,5.79
			C360.243,409.308,360.063,407.843,363.926,404.555z"/>
		<path fill="#2A2624" d="M343.119,399.193c2.098-2.8,4.153-2.408,4.153-2.408s-1.913,2.089-3.093,3.624
			c-1.182,1.528-2.371,3.373-2.371,3.373S341.082,401.904,343.119,399.193z"/>
		<path fill="#2A2624" d="M326.244,411.478c1.073-0.901,3.103-2.798,2.884-1.181c-0.215,1.619-0.802,3.9-3.715,4.55
			C323.053,415.371,324.888,412.613,326.244,411.478z"/>
		<path fill="#2A2624" d="M381.02,393.424c1.201-0.162,4.165,0,4.078,0.7c-0.089,0.694-2.414,2.098-4.688,1.613
			C378.138,395.257,377.394,393.9,381.02,393.424z"/>
		<path fill="#514D4B" d="M359.468,401.683c0.555-0.986,1.377-2.216,3.107-3.015c1.378-0.642,3.061-0.613,3.408-0.222
			C366.332,398.844,358.858,402.778,359.468,401.683z"/>
		<path fill="#514D4B" d="M377.002,413.797c0.141-1.004,1.222-3.11,3.147-3.589c1.926-0.474,3.235-0.045,3.671,0.22
			C384.258,410.687,376.87,414.713,377.002,413.797z"/>
		<path fill="#514D4B" d="M376.693,390.492c0.093-0.727,0.525-1.18,0.921-1.226c0.391-0.039,2.711,0.793,3.67,1.443
			C382.245,391.363,376.607,391.194,376.693,390.492z"/>
		<path fill="#514D4B" d="M341.281,398.144c0.48-0.901,1.924-2.276,3.236-2.578C345.828,395.257,340.146,400.287,341.281,398.144z"
			/>
		<path fill="#514D4B" d="M323.622,410.343c0.426-0.797,2.796-4.724,3.059-4.897c0.262-0.174,1.269,0,1.66,0.611
			C328.735,406.667,323.007,411.478,323.622,410.343z"/>
		<path fill="#514D4B" d="M354.705,425.554c0.354-1.017,0.875-2.274,3.061-3.454c1.607-0.87,3.059-0.652,3.147-0.35
			C360.998,422.058,354.354,426.562,354.705,425.554z"/>
		<path fill="#A20F20" d="M356.576,444.053c1.358-0.561,6.967-3.309,9.607-5.088c3.904-2.618,6.934-5.188,8.986-7.552
			c2.055-2.353-6.779,1.545-11.248,4.473C359.452,438.811,351.236,446.264,356.576,444.053z"/>
		<path fill="#A20F20" d="M339.933,406.454c0,0-2.875,4.67-4.672,9.348c-1.798,4.676-3.033,10.172-3.033,10.172
			s-2.157-4.829,1.234-12.435C336.852,405.938,339.933,406.454,339.933,406.454z"/>
		<path fill="#A20F20" d="M350.466,393.563c0,0,2.72-2.568,7.188-4.885c4.471-2.309,8.938-2.568,8.938-2.568
			s-5.699-1.125-10.94,1.34C350.414,389.91,350.466,393.563,350.466,393.563z"/>
		<path fill="#CB5C49" d="M333.052,397.978c1.557-1.74,7.14-6.983,12.275-9.607c4.365-2.224-3.031,4.574-5.394,6.372
			C337.57,396.539,329.044,402.447,333.052,397.978z"/>
		<path fill="#CB5C49" d="M344.183,405.081c1.495-2.746,5.038-7.078,8.398-9.814c3.357-2.74,5.128-3.711,6.455-4.156
			c1.325-0.443-4.293,5.326-7.603,8.491C347.632,403.226,343.121,407.023,344.183,405.081z"/>
		<path fill="#CB5C49" d="M337.64,415.955c0.96-2.178,2.74-5.84,3.624-6.37c0.885-0.526-0.796,4.688-2.21,7.43
			c-1.414,2.736-3.536,6.896-3.625,5.836C335.342,421.789,336.314,418.962,337.64,415.955z"/>
	</g>
	<g>
		<path fill="#141111" d="M283.889,203.73c-0.993-2.166-3.331-3.099-5.668-3.039c-0.978-5.892-3.019-11.625-6.747-16.335
			c-2.286-2.884-5.351-5.091-8.924-6.04c-3.189-0.849-6.483,0.207-9.29,1.717c-1.69,0.908-3.366,2.012-4.87,3.297
			c-1.295-0.086-4.648,1.27-8.196,4.42c-2.126,1.888-3.671,4.431-4.894,6.973c-2.605,5.418-3.416,11.646-3.217,17.599
			c0.206,6.153,1.709,12.463,3.857,18.209c1.26,3.368,2.922,6.364,4.915,9.141c-0.299,0.062-0.599,0.158-0.896,0.291
			c-0.083-0.102-0.17-0.201-0.262-0.293c-0.757-0.932-1.869-1.352-2.84-0.407c-0.844,0.821-1.148,2.255-0.866,3.371
			c0.374,1.488,1.908,1.835,3.234,1.512c1.89-0.465,1.867-2.3,1.087-3.662c0.312-0.135,0.626-0.215,0.941-0.258
			c0.908,1.223,2.869,3.582,2.849,3.605c-3.081,3.316-3.525,8.363-0.099,11.571c-1.153,1.189-4.458,6.099-3.126,7.737
			c0.122,0.154,0.337,0.215,0.489,0.06c2.427-2.521,4.632-5.382,7.568-7.343c0.181-0.121,0.222-0.434-0.006-0.539
			c-2.257-1.045-3.9-2.622-4.733-4.998c-0.682-1.936,0.421-3.415,1.527-4.878c0.427,0.439,1.017,1.026,1.439,1.402
			c0.25,2.057,0.758,4.034,1.548,5.811c2.042,4.592,7.138,9.222,12.803,7.599c3.533-1.01,6.728-4.108,8.739-6.886
			c2.687-3.711,3.67-7.346,4.132-11.16c0.404-3.341-0.184-7.455-1.509-10.804c0.025-0.034,1.089-1.974,2.432-5.441
			c2.304-0.396,4.757,1.052,5.979,2.986c0.889,1.405,0.936,4.591,1.631,5.15c0.993,0.798,3.289-2.909,4.61-4.375
			c2.647-2.936,5.858-4.191,5.613-5.072c-0.493-1.77-2.649-0.591-4.031,0.105c-1.19,0.604-3.234,1.763-5.392,3.97
			c-0.99-2.787-4.344-5.945-7.477-5.194c1.282-3.309,2.313-8.083,2.485-9.687c1.719-1.009,4.058,0.065,5.068,1.621
			c1.19,1.822,0.549,4.94,1.434,4.314c1.376-0.974,8.118-6.365,8.31-6.868c0.863-2.293-4.816,0.359-7.293,1.279
			c-0.81-3.129-4.786-3.615-7.33-2.877c0.073-1.748-0.073-6.029-0.338-8.13c2.999-0.285,4.271,2.51,5.098,4.973
			c0.089,0.269,0.699-0.038,1.095-0.256c3.647-2.002,7.332-5.486,7.377-6.612C292.194,200.163,285.761,201.831,283.889,203.73z"/>
		<path fill="#DD9B6B" d="M239.927,242.045c0.069,0.833-0.657,1.203-1.38,1.287c-0.893,0.103-1.546-0.277-1.709-1.174
			c-0.131-0.711,0.023-1.493,0.483-2.044c0.46-0.552,0.926-0.647,1.457-0.205C239.307,240.351,239.866,241.328,239.927,242.045z"/>
		<path fill="#3B3735" d="M276.428,196.478c-1.662,3.785-6.963,1.76-8.599-1.066c-2.178-3.771,2.213-7.69,5.839-6.101
			C274.861,191.553,275.767,193.979,276.428,196.478z"/>
		<path fill="#3B3735" d="M253.657,180.871c2.052-1.129,6.09-2.529,7.992-1.75c-0.023,1.049-0.422,2.089-0.544,2.329
			c-0.639,1.282-1.662,2.18-3.108,2.385C256.18,184.089,253.451,182.966,253.657,180.871z"/>
		<path fill="#3B3735" d="M234.01,220.478c1.641-1.698,3.848,0.241,4.92,1.717c1.926,2.65,0.627,6.161-2.741,6.326
			C235.283,225.92,234.549,223.215,234.01,220.478z"/>
		<path fill="#C0001F" d="M241.37,239.045c-1.911-2.676-3.352-5.706-4.533-8.761c-0.15-0.383-0.289-0.768-0.433-1.156
			c3.421-0.284,5.086-3.713,3.369-6.768c-1.087-1.937-3.862-4.25-5.898-2.6c-0.428-2.318-0.713-4.652-0.839-6.958
			c-0.326-5.821,0.524-11.815,2.868-17.176c1.116-2.551,2.605-4.947,4.6-6.883c2.18-2.108,4.536-3.694,6.403-4.031
			c-3.285,3.389-5.691,8.625-5.892,16.648c-2.295-0.555-3.568,3.096-3.572,5.14c-0.008,2.499,2.525,5.585,5.021,5.829
			c0.158,0.642,0.321,1.28,0.496,1.913c1.594,5.779,4.215,11.329,7.909,16.059c-0.244,0.362-0.482,0.726-0.706,1.103
			c-1.81,3.044-2.887,6.869-3.13,10.73c-1.482-1.299-3.354-2.534-5.264-2.553C241.635,239.405,241.498,239.228,241.37,239.045z"/>
		<path fill="#3B3735" d="M241.028,202.007c0.065,3.252,0.556,6.523,1.288,9.683c-2.005-0.337-4.098-2.76-4.268-4.68
			C237.847,204.734,239.1,201.302,241.028,202.007z"/>
		<path fill="#C0001F" d="M242.258,240.228c1.754,0.218,3.457,1.517,4.739,2.705c-0.027,0.845-0.016,1.688,0.036,2.523
			C245.35,243.793,243.718,242.087,242.258,240.228z"/>
		<path fill="#D7885C" d="M243.408,249.686c0.534,2.713,2.382,4.717,4.765,5.948c-2.651,1.896-4.727,4.473-6.96,6.828
			c-0.808-2.044,3.656-7.122,3.632-7.141c-3.294-2.977-3.395-7.653-0.3-11.055c0.014-0.018,0.019-0.033,0.027-0.047
			c0.238,0.258,0.477,0.518,0.72,0.775C244.254,246.359,243.047,247.855,243.408,249.686z"/>
		<path fill="#E7BA87" d="M273.446,238.426c0.294,4.102-0.71,8.29-2.595,11.903c-2.535,4.87-7.072,8.55-10.185,9.174
			c-3.117,0.622-6.648-1.4-8.887-3.729c-2.801-2.915-3.623-7.316-3.744-11.204c-0.25-8.087,3.158-17.164,11.564-19.552
			C268.174,222.583,272.917,231.009,273.446,238.426z"/>
		<path fill="#D7885C" d="M283.376,229.139c-0.381,0.271-0.425,1.086-0.066,0.67c0.36-0.411,1.099-1.207,2.535-2.384
			c1.436-1.175,2.508-1.653,3.95-2.409c0.626-0.327,1.714-0.891,2.213-0.71c0.862,0.315,0.309,0.756,0.011,1.009
			c-0.691,0.586-1.772,1.288-2.494,1.838c-1.065,0.812-1.923,1.544-2.803,2.554c-1.119,1.287-2.988,4.044-3.461,3.632
			c-0.473-0.41-0.746-4.086-2.212-5.721c-1.376-1.534-3.443-2.512-5.483-2.313c0.134-0.349,0.267-0.701,0.398-1.051
			C278.862,223.122,282.474,226.581,283.376,229.139z"/>
		<path fill="#D7885C" d="M285.822,215.03c0.676-0.304,6.843-2.87,6.945-2.314c0.1,0.559-7.122,6.283-7.472,6.259
			c-0.351-0.028,0.441-2.883-2.193-5.128c-1.133-0.961-2.921-1.316-4.303-0.733c0.034-0.38,0.052-0.763,0.076-1.146
			C280.961,211.234,285.144,211.481,285.822,215.03z"/>
		<path fill="#C0001F" d="M278.029,209.224c0.038,3.858-0.563,7.623-1.71,11.3c-1.072,3.436-2.846,7.947-4.029,9.71
			c-1.305-2.704-3.102-4.608-5.874-5.886c-2.642-1.222-5.609-0.726-8.269,0.144c-1.045,0.344-2.004,0.814-2.886,1.383
			c-1.134-1.351-2.535-3.585-1.853-5.288c1.721-0.107,2.787-3.032,1.886-4.524c-0.864-1.424-2.751-1.196-3.869-0.268
			c-0.604,0.499-0.995,1.46-0.875,2.233c0.142,0.882,0.774,1.939,2.227,2.473c-0.644,1.907,0.729,4.222,1.974,5.722
			c-1.269,0.907-2.368,2.033-3.322,3.3c-5.376-6.94-8.383-15.715-9.244-24.396c-0.833-8.367,0.887-16.686,7.943-21.943
			c0.929-0.692,1.897-1.363,2.905-1.957c0.121,2.317,3.166,3.657,5.328,3.176c1.593-0.353,2.835-1.428,3.429-2.957
			c0.153-0.397,0.502-1.618,0.464-2.277c3.418,0.724,6.421,3.251,8.571,5.853c0.899,1.089,1.695,2.256,2.398,3.484
			c-3.884-1.035-8.056,2.889-6.061,6.947c1.655,3.374,7.246,5.322,9.485,1.891C277.601,201.277,277.991,205.369,278.029,209.224z"/>
		<path fill="#DD9B6B" d="M251.57,218.256c-0.347-0.616,0.083-1.383,0.518-1.813c0.791-0.786,2.222-0.615,2.586,0.477
			c0.353,1.055-0.703,3.443-2.168,2.43C252.047,219.033,251.813,218.684,251.57,218.256z"/>
		<path fill="#D7885C" d="M284.139,207.61c-0.934-2.645-2.46-5.393-5.637-5.037c-0.055-0.421-0.113-0.845-0.179-1.263
			c2.173-0.028,4.002,0.759,5.454,3.112c2.934-2.232,7.362-3.297,7.431-2.646C291.275,202.426,286.874,206.247,284.139,207.61z"/>
		<path fill="#141111" d="M252.656,241.924c-0.695,0.715,0.411,1.794,1.107,1.078C254.46,242.289,253.352,241.209,252.656,241.924z"
			/>
		<path fill="#141111" d="M255.599,236.434c-0.696,0.714,0.413,1.794,1.107,1.078C257.404,236.797,256.295,235.72,255.599,236.434z"
			/>
		<path fill="#141111" d="M258.108,230.338c-0.391-0.229-0.775,0.659-0.436,0.787c0.342,0.121,1.083,0.392,1.845,1.21
			c0.759,0.818,1.198,2.255,1.384,3.232c0.345,1.83-0.056,3.78-0.537,5.546c-1.191,4.372-3.423,8.461-8.059,9.767
			c-0.578,0.159-0.312,0.708,0.264,0.55c2.87-0.808,4.854-2.231,6.292-4.475c1.481,1.311,3.266,2.061,5.265,1.775
			c1.937-0.273,3.531-2.174,3.622-4.092C268.005,239.3,262.996,233.232,258.108,230.338z"/>
		<path fill="#B65B42" d="M264.877,247.499c-1.84,1.078-4.134-0.066-5.516-1.339c-0.007-0.004-0.011-0.007-0.015-0.011
			c0.884-1.589,1.527-3.368,2.024-5.193c0.566-2.071,0.876-5.205-0.284-7.471c2.319,2.169,4.416,5.189,5.385,8.443
			C267.111,244.075,266.991,246.258,264.877,247.499z"/>
		<path fill="#141111" d="M254.79,192.168c-2.693-0.889-4.518,1.684-4.927,4.006c-0.529,2.991,0.937,6.185,3.913,6.908
			c2.859,0.696,4.172-1.913,4.401-4.134C258.453,196.23,257.63,193.106,254.79,192.168z"/>
		<path fill="#3B3735" d="M253.672,202.383c-2.172-0.624-3.372-3.109-3.267-5.542c0.095-2.143,1.511-4.549,3.942-4.145
			C258.959,193.462,258.753,203.843,253.672,202.383z"/>
		<path fill="#141111" d="M264.917,208.49c-4.733-0.144-5.527,8.447-0.916,10.081C270.181,220.759,271.588,208.694,264.917,208.49z"
			/>
		<path fill="#3B3735" d="M264.848,218.082c-4.277-0.871-4.271-8.573-0.168-8.969C270.147,208.578,269.727,219.077,264.848,218.082z
			"/>
		<path fill="#EFCFA4" d="M249.051,238.677c0.245-1.839,1.332-4.884,2.564-6.832c1.667-2.635,3.263-4.106,3.317-3.155
			C254.967,229.321,248.525,242.662,249.051,238.677z"/>
		<path fill="#EFCFA4" d="M259.617,225.564c0.766-0.504,2.923-0.689,4.228-0.057C265.845,226.475,256.411,227.677,259.617,225.564z"
			/>
		<path fill="#E0A371" d="M270.709,240.131c0.146-2.148,0.682-8.007,1.628-5.615c0.941,2.39,1.432,8.187-0.461,12.483
			C269.987,251.292,270.502,243.204,270.709,240.131z"/>
		<path fill="#EFCFA4" d="M257.145,236.331c-0.189-0.232,0.227-1.826,0.561-1.5C258.042,235.161,257.482,236.74,257.145,236.331z"/>
		<path fill="#EFCFA4" d="M253.347,243.677c0.283,0.09-0.69,1.295-1.026,0.884C251.986,244.15,252.971,243.558,253.347,243.677z"/>
		<path fill="#E7B994" d="M237.101,241.97c-0.225-0.596-0.043-1.335,0.602-1.893C238.351,239.52,237.887,244.084,237.101,241.97z"/>
		<path fill="#E7B994" d="M251.707,217.474c0.071-0.613,0.975-1.585,1.818-1.28C254.367,216.497,251.544,218.916,251.707,217.474z"
			/>
		<path fill="#CC855B" d="M253.146,219.393c0.316,0.058,0.707-0.035,1.093-0.695c0.383-0.659,0.428-1.183,0.321-1.443
			C254.45,216.994,252.621,219.296,253.146,219.393z"/>
		<path fill="#CC855B" d="M239.064,242.024c0.081-0.387,0.378-1.08,0.624-0.427c0.244,0.651,0.094,1.177-0.482,1.341
			C238.633,243.103,238.943,242.628,239.064,242.024z"/>
		<path fill="#C2784F" d="M285.672,230.798c0.385-0.547,1.095-1.509,2.04-2.316c0.947-0.805,1.865-1.53,2.358-1.847
			c0.494-0.315-0.88-0.431-2.888,1.465C285.177,229.997,284.602,232.304,285.672,230.798z"/>
		<path fill="#C2784F" d="M286.661,217.854c0.642-0.506,2.792-2.191,3.526-2.892c0.736-0.704-1.914,0.665-2.345,1.056
			C287.411,216.408,285.14,219.053,286.661,217.854z"/>
		<path fill="#C2784F" d="M285.563,206.612c0.592-0.436,2.415-1.748,3.251-2.503c0.834-0.756-0.774-0.246-1.787,0.638
			C286.012,205.634,283.583,208.074,285.563,206.612z"/>
		<path fill="#C2784F" d="M243.064,260.27c0.678-0.752,1.822-1.97,2.657-2.778c0.834-0.806-0.19-0.69-1.225,0.375
			C243.458,258.932,240.642,262.968,243.064,260.27z"/>
		<path fill="#DE9F6E" d="M285.162,228.218c0.631-0.649,2.379-1.811,3.371-2.414c0.991-0.605-0.495,0.79-1.364,1.503
			C286.155,228.142,283.718,229.697,285.162,228.218z"/>
		<path fill="#DE9F6E" d="M286.34,215.065c0.697-0.302,2.27-0.929,2.832-1.14c0.56-0.213-2.053,1.794-2.539,1.931
			C286.15,215.988,284.94,215.67,286.34,215.065z"/>
		<path fill="#DE9F6E" d="M285.677,203.536c0.564-0.494,2.7-1.32,3.341-1.302C289.661,202.252,283.294,205.618,285.677,203.536z"/>
		<path fill="#2A2624" d="M266.322,213.583c0.056-1.257,0.357-4.108,1.114-3.065c0.757,1.039,1.608,3.336,0.382,5.789
			C266.596,218.758,266.243,215.378,266.322,213.583z"/>
		<path fill="#2A2624" d="M272.601,193.732c0.32-1.172,1.255-4.041,1.811-2.589c0.56,1.455,1.837,5.081,1.765,5.466
			c-0.071,0.385-1.209,1.657-2.337,1.672C272.714,198.294,271.746,196.846,272.601,193.732z"/>
		<path fill="#2A2624" d="M255.21,197.955c0.166-2.416,0.441-4.876,1.225-3.655c0.806,1.251,1.699,3.767,0.489,6.38
			C255.903,202.889,254.925,202.151,255.21,197.955z"/>
		<path fill="#2A2624" d="M239.983,207.21c-0.445-2.865,0.977-3.858,0.977-3.858s0.136,2.346,0.362,3.933
			c0.224,1.586,0.631,3.361,0.631,3.361S240.42,209.991,239.983,207.21z"/>
		<path fill="#2A2624" d="M237.518,224.345c0.088-1.158,0.133-3.465,0.967-2.398c0.836,1.068,1.852,2.735,0.553,4.838
			C237.98,228.492,237.408,225.806,237.518,224.345z"/>
		<path fill="#2A2624" d="M258.488,181.354c0.601-0.805,2.41-2.474,2.774-2.016c0.367,0.458-0.147,2.646-1.752,3.72
			C257.912,184.131,256.676,183.789,258.488,181.354z"/>
		<path fill="#514D4B" d="M250.928,198.94c-0.269-0.903-0.522-2.099,0.004-3.591c0.417-1.19,1.405-2.171,1.844-2.151
			C253.211,193.217,251.222,199.934,250.928,198.94z"/>
		<path fill="#514D4B" d="M268.267,195.533c-0.513-0.668-1.136-2.524-0.31-3.947c0.828-1.42,1.848-1.945,2.257-2.054
			C270.62,189.424,268.737,196.141,268.267,195.533z"/>
		<path fill="#514D4B" d="M254.247,182.229c-0.38-0.474-0.398-0.994-0.197-1.255c0.201-0.256,2.036-1.153,2.982-1.345
			C257.978,179.437,254.611,182.686,254.247,182.229z"/>
		<path fill="#514D4B" d="M238.298,207.697c-0.258-0.809-0.236-2.461,0.341-3.415C239.215,203.325,238.913,209.61,238.298,207.697z"
			/>
		<path fill="#514D4B" d="M235.327,225.245c-0.227-0.711-1.189-4.395-1.141-4.652c0.05-0.258,0.733-0.752,1.325-0.632
			C236.104,220.08,235.645,226.266,235.327,225.245z"/>
		<path fill="#514D4B" d="M262.349,215.585c-0.399-0.802-0.845-1.837-0.279-3.817c0.413-1.458,1.382-2.2,1.612-2.074
			C263.914,209.819,262.744,216.373,262.349,215.585z"/>
		<path fill="#A20F20" d="M274.423,225.177c0.453-1.133,2.064-6.058,2.537-8.65c0.704-3.834,0.932-7.122,0.717-9.708
			c-0.215-2.589-3.009,4.92-3.854,9.268C272.975,220.433,272.644,229.628,274.423,225.177z"/>
		<path fill="#A20F20" d="M242.455,213.305c0,0,1.112,4.412,2.848,8.185c1.737,3.772,4.289,7.686,4.289,7.686
			s-4.117-1.513-6.671-7.925C240.368,214.838,242.455,213.305,242.455,213.305z"/>
		<path fill="#A20F20" d="M240.89,199.589c0,0,0.05-3.105,1.262-7.097c1.214-3.993,3.647-6.797,3.647-6.797s-3.972,2.734-5.54,7.272
			C238.692,197.508,240.89,199.589,240.89,199.589z"/>
		<path fill="#CB5C49" d="M233.436,212.489c-0.129-1.933-0.018-8.284,1.4-12.85c1.203-3.883,0.963,4.444,0.662,6.889
			C235.196,208.971,233.773,217.457,233.436,212.489z"/>
		<path fill="#CB5C49" d="M244.098,209.987c-0.764-2.479-1.286-7.089-0.971-10.669c0.316-3.583,0.763-5.197,1.266-6.242
			c0.504-1.042,0.681,5.639,0.641,9.431C244.989,206.864,244.638,211.741,244.098,209.987z"/>
		<path fill="#CB5C49" d="M246.77,220.164c-0.736-1.832-1.879-5.005-1.685-5.838c0.197-0.83,2.327,3.186,3.134,5.612
			c0.81,2.425,2.05,6.09,1.368,5.53C248.909,224.907,247.789,222.693,246.77,220.164z"/>
	</g>
	<g>
		<path fill="#141111" d="M310.189,281.036c-0.895-2.31,0.107-4.733,1.849-6.43c-3.684-5.004-6.473-10.688-7.275-16.887
			c-0.493-3.796,0.091-7.686,1.971-11.036c1.687-2.994,4.863-4.681,8.028-5.678c1.903-0.601,3.942-1.047,5.992-1.234
			c0.877-1.027,4.321-2.544,9.246-2.903c2.951-0.214,5.964,0.48,8.748,1.415c5.929,1.991,11.16,5.908,15.453,10.379
			c4.438,4.621,8.048,10.323,10.771,16.096c1.596,3.384,2.624,6.796,3.247,10.299c0.261-0.177,0.549-0.33,0.865-0.456
			c-0.016-0.135-0.026-0.274-0.029-0.409c-0.144-1.238,0.351-2.376,1.759-2.412c1.228-0.032,2.514,0.782,3.144,1.803
			c0.836,1.361-0.022,2.755-1.222,3.507c-1.716,1.073-3.07-0.277-3.52-1.849c-0.325,0.134-0.616,0.311-0.876,0.516
			c0.251,1.565,0.588,4.742,0.62,4.742c4.704,0.11,8.792,3.443,8.695,8.328c1.726,0.002,7.782,1.102,8.036,3.282
			c0.025,0.204-0.086,0.409-0.31,0.407c-3.644-0.018-7.376-0.455-10.972,0.313c-0.222,0.05-0.482-0.149-0.392-0.395
			c0.857-2.44,0.875-4.809-0.289-7.157c-0.947-1.914-2.854-2.167-4.746-2.4c0.018,0.634,0.028,1.501,0,2.086
			c1.352,1.681,2.458,3.494,3.209,5.37c1.939,4.86,1.691,12.017-3.635,15.062c-3.32,1.899-7.945,2.033-11.475,1.515
			c-4.718-0.693-8.139-2.595-11.319-5.022c-2.78-2.125-5.42-5.551-6.955-8.968c-0.043-0.005-2.261-0.623-5.82-2.14
			c-1.969,1.432-2.67,4.313-2.117,6.625c0.402,1.685,2.741,4.031,2.657,4.959c-0.125,1.317-4.558,0.334-6.608,0.255
			c-4.11-0.158-7.377,1.323-7.854,0.504c-0.964-1.654,1.482-2.405,3.005-2.929c1.314-0.447,3.66-1.131,6.873-1.136
			c-1.359-2.762-1.278-7.556,1.557-9.346c-3.397-1.444-7.705-4.142-9.026-5.177c-1.998,0.549-2.898,3.07-2.475,4.952
			c0.498,2.212,3.288,3.997,2.177,4.202c-1.726,0.319-10.638,1.429-11.153,1.203c-2.336-1.017,3.767-3.328,6.252-4.501
			c-1.747-2.878,0.78-6.193,3.177-7.553c-1.357-1.214-4.441-4.434-5.817-6.153c-2.389,2.03-1.23,5.002,0.006,7.409
			c0.136,0.261-0.536,0.494-0.986,0.63c-4.141,1.264-9.414,1.484-10.285,0.698C301.499,284.635,307.416,281.055,310.189,281.036z"/>
		<path fill="#DD9B6B" d="M370.66,276.087c0.569,0.658,1.374,0.389,1.961-0.093c0.724-0.593,0.919-1.353,0.37-2.127
			c-0.437-0.613-1.134-1.067-1.875-1.123c-0.746-0.057-1.154,0.22-1.21,0.938C369.849,274.398,370.173,275.522,370.66,276.087z"/>
		<path fill="#3B3735" d="M310.199,270.211c4.032,1.509,6.369-3.912,5.449-7.182c-1.228-4.364-7.339-3.935-8.789-0.078
			C307.666,265.47,308.815,267.903,310.199,270.211z"/>
		<path fill="#3B3735" d="M315.097,241.908c-2.331,0.71-6.305,2.702-7.106,4.689c0.802,0.743,1.865,1.198,2.132,1.284
			c1.421,0.457,2.83,0.343,4.03-0.586C315.667,246.128,316.811,243.277,315.097,241.908z"/>
		<path fill="#3B3735" d="M358.884,256.022c-2.457-0.013-2.614,3.04-2.293,4.913c0.575,3.357,4.133,4.937,6.701,2.547
			C362.013,260.92,360.533,258.408,358.884,256.022z"/>
		<path fill="#C0001F" d="M367.382,274.983c-0.609-3.361-1.823-6.637-3.241-9.736c-0.178-0.387-0.363-0.775-0.549-1.163
			c-2.693,2.344-6.46,1.097-7.488-2.402c-0.654-2.215-0.361-5.961,2.342-6.284c-1.415-2.001-2.948-3.907-4.574-5.675
			c-4.102-4.469-9.189-8.186-14.886-10.332c-2.707-1.019-5.578-1.648-8.468-1.567c-3.156,0.09-6.048,0.698-7.651,1.843
			c4.909,0.01,10.557,2.022,16.681,7.697c1.256-2.115,4.899-0.412,6.426,1.066c1.866,1.809,2.329,5.938,0.698,7.976
			c0.365,0.584,0.722,1.17,1.068,1.758c3.15,5.384,5.381,11.364,6.229,17.556c0.442,0.077,0.888,0.165,1.334,0.27
			c3.581,0.861,7.212,2.836,10.266,5.458c0.109-2.048,0.55-4.341,1.923-5.773C367.456,275.446,367.419,275.215,367.382,274.983z"/>
		<path fill="#3B3735" d="M340.019,247.839c2.378,2.41,4.461,5.15,6.283,7.989c1.207-1.734,0.92-5.057-0.386-6.576
			C344.366,247.45,340.896,245.891,340.019,247.839z"/>
		<path fill="#C0001F" d="M367.612,276.508c-1.109,1.464-1.378,3.673-1.423,5.494c0.648,0.591,1.27,1.213,1.852,1.86
			C368.027,281.398,367.942,278.946,367.612,276.508z"/>
		<path fill="#D7885C" d="M373.829,284.23c1.634,2.368,1.786,5.2,0.974,7.867c3.336-0.598,6.767-0.275,10.142-0.228
			c-0.939-2.09-7.96-2.446-7.96-2.478c0.174-4.615-3.24-8.087-8.024-8.25c-0.021-0.002-0.034-0.011-0.055-0.014
			c0.023,0.368,0.043,0.732,0.057,1.099C370.736,282.444,372.725,282.632,373.829,284.23z"/>
		<path fill="#E7BA87" d="M343.628,298.442c2.846,3.197,6.696,5.49,10.757,6.711c5.47,1.641,11.509,0.937,14.23-0.936
			c2.727-1.867,3.785-5.965,3.677-9.328c-0.14-4.203-2.822-8.01-5.632-10.925c-5.847-6.056-15.087-10.11-22.97-5.575
			C335.65,283.01,338.483,292.666,343.628,298.442z"/>
		<path fill="#D7885C" d="M329.498,299.102c0.482-0.088,1.117,0.472,0.549,0.439c-0.569-0.034-1.702-0.058-3.617,0.155
			c-1.921,0.219-3.053,0.67-4.664,1.194c-0.7,0.228-1.909,0.634-2.136,1.136c-0.392,0.87,0.335,0.778,0.741,0.74
			c0.939-0.092,2.248-0.386,3.181-0.522c1.38-0.205,2.547-0.317,3.942-0.238c1.769,0.101,5.182,0.708,5.219,0.06
			c0.035-0.653-2.505-3.523-2.66-5.804c-0.142-2.14,0.632-4.389,2.257-5.765c-0.357-0.152-0.717-0.311-1.072-0.466
			C328.29,291.368,328.244,296.57,329.498,299.102z"/>
		<path fill="#D7885C" d="M317.206,290.683c-0.717,0.28-7.108,3.016-6.766,3.498c0.343,0.477,9.854-0.749,10.086-1.028
			c0.235-0.282-2.463-1.762-2.222-5.36c0.102-1.541,1.135-3.129,2.575-3.735c-0.307-0.253-0.608-0.517-0.911-0.778
			C317.903,284.305,315.056,287.6,317.206,290.683z"/>
		<path fill="#C0001F" d="M318.539,280.656c2.848,2.831,6.088,5.116,9.664,6.931c3.336,1.694,7.987,3.647,10.162,4.048
			c-1.07-2.937-1.186-5.657-0.126-8.653c1.01-2.855,3.532-4.706,6.116-6.058c1.013-0.531,2.057-0.902,3.122-1.146
			c-0.183-1.824-0.833-4.493-2.596-5.22c-1.328,1.204-4.281-0.123-4.738-1.879c-0.437-1.674,1.103-2.919,2.606-3.079
			c0.81-0.087,1.811,0.316,2.299,0.972c0.558,0.745,0.886,1.983,0.227,3.452c1.89,0.906,2.618,3.61,2.833,5.626
			c1.599-0.288,3.233-0.288,4.873-0.08c-1.271-9.046-5.63-17.656-11.476-24.6c-5.629-6.696-13.081-11.454-22.117-10.012
			c-1.192,0.189-2.393,0.425-3.57,0.745c1.64,1.773,0.426,5.013-1.501,6.276c-1.419,0.929-3.12,1.078-4.693,0.411
			c-0.408-0.174-1.574-0.799-2.036-1.307c-1.939,3.072-2.236,7.143-1.858,10.637c0.16,1.459,0.452,2.9,0.853,4.317
			c2.048-3.647,8.003-3.91,9.582,0.524c1.311,3.684-1.298,9.267-5.478,8.445C312.923,274.57,315.691,277.831,318.539,280.656z"/>
		<path fill="#DD9B6B" d="M344.478,267.493c-0.208-0.704-1.091-0.938-1.729-0.927c-1.158,0.018-2.069,1.209-1.52,2.275
			c0.533,1.026,3.078,1.974,3.387,0.144C344.711,268.415,344.623,267.986,344.478,267.493z"/>
		<path fill="#D7885C" d="M312.897,284.039c-1.29-2.618-2.231-5.748,0.339-7.857c-0.273-0.348-0.548-0.699-0.812-1.054
			c-1.599,1.604-2.338,3.537-1.641,6.324c-3.793,0.569-7.8,3.098-7.364,3.619C303.855,285.594,309.899,285.09,312.897,284.039z"/>
		<path fill="#141111" d="M361.332,285.485c1.036,0,1.036,1.612,0,1.612C360.293,287.098,360.293,285.485,361.332,285.485z"/>
		<path fill="#141111" d="M355.101,283.692c1.038,0,1.038,1.612,0,1.612C354.063,285.304,354.063,283.692,355.101,283.692z"/>
		<path fill="#141111" d="M348.738,281.14c0.111-0.457,1.056-0.097,0.901,0.244c-0.154,0.342-0.492,1.096-0.435,2.256
			c0.056,1.16,0.81,2.531,1.401,3.378c1.115,1.588,2.861,2.705,4.525,3.627c4.122,2.286,8.79,3.592,13.13,1.082
			c0.539-0.314,0.756,0.283,0.218,0.595c-2.686,1.553-5.189,1.998-7.899,1.442c-0.103,2.053-0.839,3.93-2.501,5.214
			c-1.613,1.246-4.187,1.053-5.685-0.271C348.23,295.022,347.343,286.885,348.738,281.14z"/>
		<path fill="#B65B42" d="M356.612,298.642c2.137-0.586,2.956-3.127,3.01-5.083c0-0.006,0.002-0.014,0.002-0.02
			c-1.829-0.496-3.623-1.308-5.342-2.261c-1.955-1.08-4.516-3.124-5.361-5.635c-0.068,3.304,0.663,7.061,2.383,10.145
			C352.441,297.823,354.152,299.318,356.612,298.642z"/>
		<path fill="#141111" d="M322.698,250.953c1.289-2.649,4.533-2.14,6.56-0.761c2.616,1.779,3.929,5.186,2.308,7.927
			c-1.557,2.639-4.453,1.726-6.273,0.283C323.066,256.633,321.336,253.752,322.698,250.953z"/>
		<path fill="#3B3735" d="M331.122,257.539c1.111-2.073,0.129-4.773-1.759-6.457c-1.667-1.49-4.486-2.178-5.95-0.076
			C320.635,255.001,328.521,262.383,331.122,257.539z"/>
		<path fill="#141111" d="M327.51,270.353c3.326-3.633,10.308,2.011,8.176,6.634C332.832,283.182,322.817,275.472,327.51,270.353z"
			/>
		<path fill="#3B3735" d="M334.71,277.264c2.454-3.82-3.29-9.407-6.564-6.637C323.778,274.314,331.908,281.621,334.71,277.264z"/>
		<path fill="#EFCFA4" d="M361.525,280.442c-1.547-1.151-4.608-2.553-6.952-3.05c-3.172-0.669-5.431-0.548-4.76,0.185
			C350.26,278.06,364.881,282.941,361.525,280.442z"/>
		<path fill="#EFCFA4" d="M344.082,278.798c-0.931,0.204-2.636,1.682-3.11,3.108C340.238,284.104,347.985,277.941,344.082,278.798z"
			/>
		<path fill="#E0A371" d="M346.888,297.642c-1.711-1.452-6.466-5.307-5.369-2.865c1.098,2.44,5.062,7.013,9.638,8.719
			C355.733,305.204,349.324,299.717,346.888,297.642z"/>
		<path fill="#EFCFA4" d="M353.901,284.775c-0.034-0.313-1.526-1.16-1.526-0.671C352.375,284.592,353.965,285.323,353.901,284.775z"
			/>
		<path fill="#EFCFA4" d="M362.136,287.274c-0.142,0.278,1.464,0.427,1.401-0.121C363.476,286.605,362.318,286.907,362.136,287.274z
			"/>
		<path fill="#E7B994" d="M372.658,273.928c-0.283-0.599-0.961-1.002-1.85-0.925C369.924,273.08,373.659,276.046,372.658,273.928z"
			/>
		<path fill="#E7B994" d="M343.796,267.03c-0.509-0.393-1.89-0.423-2.275,0.426C341.136,268.301,344.989,267.954,343.796,267.03z"/>
		<path fill="#CC855B" d="M344.183,269.495c-0.186,0.277-0.54,0.5-1.312,0.309c-0.768-0.193-1.195-0.541-1.309-0.81
			C341.444,268.726,344.489,269.033,344.183,269.495z"/>
		<path fill="#CC855B" d="M371.272,275.431c-0.344-0.222-1.078-0.5-0.77,0.153c0.306,0.657,0.809,0.926,1.347,0.617
			C372.389,275.893,371.811,275.777,371.272,275.431z"/>
		<path fill="#C2784F" d="M329.065,302.018c-0.686-0.11-1.917-0.281-3.204-0.159c-1.29,0.117-2.497,0.277-3.09,0.416
			c-0.595,0.138,0.318-0.97,3.187-1.093C328.828,301.065,330.97,302.313,329.065,302.018z"/>
		<path fill="#C2784F" d="M318.702,293.355c-0.844,0.114-3.658,0.491-4.714,0.527c-1.057,0.041,1.885-0.94,2.49-0.978
			C317.08,292.865,320.702,293.091,318.702,293.355z"/>
		<path fill="#C2784F" d="M311.12,284.378c-0.754,0.124-3.054,0.529-4.225,0.604c-1.17,0.078,0.378-0.756,1.772-0.868
			C310.064,284,313.647,283.961,311.12,284.378z"/>
		<path fill="#C2784F" d="M381.965,291.66c-1.056-0.045-2.79-0.078-4-0.04c-1.204,0.04-0.374-0.64,1.171-0.64
			C380.684,290.98,385.739,291.809,381.965,291.66z"/>
		<path fill="#DE9F6E" d="M327.514,299.763c-0.942,0-3.076,0.458-4.246,0.762c-1.171,0.3,0.948,0.202,2.113,0.075
			C326.739,300.447,329.668,299.763,327.514,299.763z"/>
		<path fill="#DE9F6E" d="M316.854,291.092c-0.728,0.301-2.337,1.017-2.904,1.284c-0.565,0.263,2.831-0.225,3.28-0.49
			C317.685,291.619,318.327,290.489,316.854,291.092z"/>
		<path fill="#DE9F6E" d="M308.745,282.227c-0.775,0.064-2.943,1.057-3.395,1.55C304.897,284.267,312.025,281.963,308.745,282.227z"
			/>
		<path fill="#2A2624" d="M330.284,275.096c-0.977-0.867-3.318-2.713-3.093-1.395c0.226,1.321,1.32,3.622,4.036,4.49
			C333.943,279.058,331.681,276.343,330.284,275.096z"/>
		<path fill="#2A2624" d="M310.933,265.366c-1.109-0.612-3.924-2.001-3.246-0.528c0.679,1.47,2.454,5.055,2.793,5.283
			c0.339,0.226,2.111,0.3,2.942-0.529C314.252,268.759,313.876,266.986,310.933,265.366z"/>
		<path fill="#2A2624" d="M326.703,255.47c-1.919-1.632-3.951-3.211-3.611-1.739c0.347,1.506,1.574,3.998,4.401,4.995
			C329.88,259.568,330.039,258.303,326.703,255.47z"/>
		<path fill="#2A2624" d="M344.657,250.84c-1.809-2.413-3.581-2.075-3.581-2.075s1.646,1.804,2.665,3.126
			c1.019,1.32,2.047,2.91,2.047,2.91S346.416,253.185,344.657,250.84z"/>
		<path fill="#2A2624" d="M359.218,261.442c-0.924-0.776-2.677-2.415-2.489-1.02c0.189,1.397,0.693,3.366,3.206,3.925
			C361.972,264.801,360.388,262.422,359.218,261.442z"/>
		<path fill="#2A2624" d="M311.952,245.861c-1.033-0.137-3.593,0.003-3.516,0.604c0.075,0.607,2.082,1.812,4.044,1.397
			C314.438,247.446,315.082,246.276,311.952,245.861z"/>
		<path fill="#514D4B" d="M330.549,252.992c-0.48-0.853-1.186-1.909-2.678-2.602c-1.19-0.556-2.641-0.528-2.942-0.189
			C324.625,250.54,331.075,253.935,330.549,252.992z"/>
		<path fill="#514D4B" d="M315.419,263.439c-0.122-0.862-1.054-2.677-2.714-3.092c-1.662-0.414-2.792-0.036-3.169,0.19
			C309.158,260.762,315.534,264.234,315.419,263.439z"/>
		<path fill="#514D4B" d="M315.684,243.334c-0.078-0.629-0.45-1.018-0.791-1.056c-0.34-0.037-2.338,0.678-3.168,1.246
			C310.893,244.089,315.76,243.937,315.684,243.334z"/>
		<path fill="#514D4B" d="M346.242,249.938c-0.414-0.781-1.662-1.965-2.793-2.229C342.319,247.446,347.223,251.784,346.242,249.938z
			"/>
		<path fill="#514D4B" d="M361.482,260.461c-0.368-0.685-2.414-4.076-2.639-4.226c-0.227-0.151-1.094,0-1.434,0.528
			C357.07,257.292,362.011,261.442,361.482,260.461z"/>
		<path fill="#514D4B" d="M334.659,273.588c-0.305-0.879-0.752-1.96-2.638-2.979c-1.388-0.749-2.642-0.569-2.718-0.303
			C329.229,270.571,334.96,274.457,334.659,273.588z"/>
		<path fill="#A20F20" d="M333.046,289.551c-1.174-0.487-6.013-2.861-8.29-4.388c-3.368-2.261-5.981-4.477-7.755-6.517
			c-1.773-2.039,5.85,1.333,9.707,3.856C330.563,285.029,337.654,291.456,333.046,289.551z"/>
		<path fill="#A20F20" d="M347.407,257.104c0,0,2.48,4.034,4.032,8.07c1.551,4.032,2.616,8.776,2.616,8.776s1.859-4.17-1.064-10.728
			C350.064,256.662,347.407,257.104,347.407,257.104z"/>
		<path fill="#A20F20" d="M338.32,245.982c0,0-2.352-2.217-6.208-4.21c-3.854-1.994-7.711-2.216-7.711-2.216
			s4.919-0.978,9.441,1.151C338.365,242.834,338.32,245.982,338.32,245.982z"/>
		<path fill="#CB5C49" d="M353.343,249.793c-1.343-1.501-6.159-6.028-10.592-8.289c-3.766-1.922,2.616,3.945,4.656,5.497
			C349.445,248.553,356.802,253.649,353.343,249.793z"/>
		<path fill="#CB5C49" d="M343.74,255.922c-1.292-2.369-4.349-6.106-7.246-8.469c-2.899-2.365-4.425-3.206-5.569-3.586
			c-1.147-0.381,3.702,4.597,6.558,7.324C340.764,254.319,344.657,257.597,343.74,255.922z"/>
		<path fill="#CB5C49" d="M349.385,265.305c-0.829-1.881-2.365-5.035-3.127-5.494c-0.765-0.457,0.686,4.044,1.908,6.406
			c1.219,2.368,3.051,5.955,3.127,5.038C351.366,270.338,350.531,267.899,349.385,265.305z"/>
	</g>
	<g>
		<path fill="#141111" d="M234.993,390.026c-1.777,1.242-4.045,0.897-5.856-0.226c-3.48,4.179-7.726,7.739-12.829,9.719
			c-3.125,1.216-6.552,1.535-9.794,0.638c-2.899-0.807-5-3.156-6.51-5.639c-0.906-1.489-1.712-3.127-2.304-4.831
			c-1.055-0.532-3.065-3.141-4.401-7.252c-0.8-2.462-0.84-5.175-0.632-7.735c0.453-5.453,2.687-10.721,5.588-15.308
			c2.999-4.742,7.088-9.002,11.43-12.526c2.538-2.066,5.224-3.656,8.072-4.915c-0.205-0.189-0.398-0.398-0.57-0.641
			c-0.111,0.042-0.229,0.078-0.341,0.107c-1.025,0.387-2.092,0.202-2.42-0.987c-0.285-1.037,0.141-2.303,0.877-3.05
			c0.978-0.997,2.342-0.56,3.235,0.306c1.271,1.234,0.406,2.667-0.835,3.38c0.185,0.25,0.393,0.456,0.621,0.634
			c1.278-0.541,3.908-1.49,3.9-1.518c-0.888-4.026,1.087-8.194,5.258-9.136c-0.357-1.468-0.691-6.848,1.111-7.518
			c0.17-0.065,0.367-0.016,0.412,0.176c0.745,3.101,1.159,6.363,2.561,9.262c0.086,0.175-0.026,0.442-0.254,0.417
			c-2.253-0.22-4.272,0.262-6.024,1.744c-1.428,1.207-1.243,2.881-1.047,4.535c0.535-0.147,1.27-0.337,1.775-0.436
			c1.145-1.5,2.457-2.82,3.894-3.851c3.722-2.665,9.859-3.952,13.564-0.066c2.31,2.427,3.393,6.328,3.691,9.437
			c0.398,4.157-0.504,7.467-1.901,10.673c-1.223,2.81-3.581,5.771-6.165,7.793c0.004,0.037-0.053,2.052-0.599,5.395
			c1.628,1.373,4.221,1.367,6.072,0.412c1.351-0.69,2.856-3.177,3.659-3.295c1.146-0.17,1.241,3.8,1.603,5.565
			c0.726,3.525,2.669,5.991,2.071,6.573c-1.203,1.16-2.354-0.76-3.118-1.945c-0.657-1.021-1.73-2.877-2.406-5.602
			c-2.064,1.729-6.156,2.667-8.269,0.629c-0.518,3.189-1.91,7.42-2.512,8.756c0.884,1.582,3.216,1.822,4.729,1.066
			c1.773-0.884,2.707-3.632,3.114-2.729c0.633,1.402,3.445,8.739,3.36,9.228c-0.375,2.199-3.616-2.506-5.137-4.367
			c-2.079,2.085-5.427,0.634-7.085-1.121c-0.749,1.406-2.837,4.705-4.016,6.236c2.227,1.605,4.512-0.006,6.3-1.555
			c0.196-0.18,0.532,0.346,0.743,0.698c1.941,3.26,3.23,7.693,2.746,8.602C239.873,396.661,235.589,392.376,234.993,390.026z"/>
		<path fill="#DD9B6B" d="M218.123,339.658c0.441-0.619,0.041-1.249-0.491-1.646c-0.657-0.493-1.342-0.495-1.883,0.13
			c-0.43,0.501-0.671,1.186-0.565,1.826c0.11,0.648,0.431,0.939,1.054,0.839C216.857,340.701,217.743,340.192,218.123,339.658z"/>
		<path fill="#3B3735" d="M225.789,392.283c0.437-3.734-4.66-4.595-7.247-3.125c-3.451,1.959-1.81,7.06,1.775,7.484
			C222.287,395.431,224.116,393.944,225.789,392.283z"/>
		<path fill="#3B3735" d="M200.703,394.045c1.092,1.833,3.617,4.794,5.473,5.061c0.467-0.837,0.629-1.835,0.644-2.085
			c0.091-1.296-0.297-2.473-1.34-3.299C204.171,392.681,201.507,392.302,200.703,394.045z"/>
		<path fill="#3B3735" d="M203.531,353.869c0.506,2.094,3.134,1.588,4.658,0.923c2.733-1.193,3.33-4.548,0.764-6.235
			C207.04,350.184,205.215,351.972,203.531,353.869z"/>
		<path fill="#C0001F" d="M217.871,342.678c-2.73,1.219-5.263,2.94-7.598,4.793c-0.292,0.233-0.583,0.47-0.873,0.709
			c2.557,1.798,2.285,5.261-0.472,6.87c-1.748,1.019-4.993,1.557-5.833-0.679c-1.405,1.626-2.705,3.328-3.869,5.078
			c-2.938,4.425-5.037,9.528-5.665,14.815c-0.299,2.518-0.234,5.09,0.443,7.529c0.738,2.667,1.858,4.995,3.169,6.117
			c-1.019-4.175-0.493-9.396,3.047-15.79c-2.058-0.625-1.372-4.08-0.436-5.685c1.146-1.967,4.56-3.224,6.634-2.265
			c0.417-0.433,0.841-0.857,1.27-1.274c3.915-3.804,8.533-6.954,13.619-8.969c-0.029-0.395-0.048-0.795-0.05-1.193
			c-0.02-3.228,0.901-6.727,2.489-9.871c-1.763,0.337-3.804,0.444-5.313-0.423C218.247,342.519,218.06,342.598,217.871,342.678z"/>
		<path fill="#3B3735" d="M200.527,371.618c1.553-2.524,3.446-4.864,5.477-7.014c-1.732-0.661-4.495,0.279-5.512,1.71
			C199.287,368.008,198.686,371.282,200.527,371.618z"/>
		<path fill="#C0001F" d="M219.118,342.161c1.479,0.637,3.411,0.402,4.968,0.059c0.367-0.676,0.767-1.334,1.193-1.965
			C223.189,340.784,221.124,341.372,219.118,342.161z"/>
		<path fill="#D7885C" d="M224.384,335.262c1.666-1.889,4.042-2.608,6.481-2.479c-1.205-2.712-1.647-5.691-2.319-8.571
			c-1.576,1.235-0.41,7.278-0.439,7.285c-3.958,0.818-6.194,4.446-5.333,8.548c0.004,0.018,0,0.031,0.002,0.05
			c0.306-0.096,0.613-0.191,0.922-0.279C223.51,338.267,223.252,336.533,224.384,335.262z"/>
		<path fill="#E7BA87" d="M242.786,357.956c2.124-3.09,3.263-6.841,3.451-10.547c0.254-4.995-1.613-9.981-3.774-11.904
			c-2.159-1.927-5.866-1.966-8.699-1.169c-3.543,0.997-6.22,4.075-8.105,7.074c-3.928,6.241-5.438,14.941,0.067,20.694
			C231.34,367.969,238.952,363.539,242.786,357.956z"/>
		<path fill="#D7885C" d="M246.305,369.831c-0.173-0.389,0.17-1.048,0.257-0.557c0.092,0.491,0.307,1.456,0.894,3.044
			c0.588,1.58,1.206,2.448,1.991,3.711c0.34,0.545,0.934,1.491,1.409,1.574c0.825,0.153,0.593-0.449,0.474-0.781
			c-0.271-0.783-0.795-1.831-1.111-2.599c-0.46-1.129-0.797-2.098-1.023-3.299c-0.285-1.526-0.482-4.556-1.043-4.448
			c-0.562,0.106-2.471,2.87-4.379,3.475c-1.786,0.569-3.862,0.387-5.372-0.706c-0.054,0.333-0.114,0.671-0.172,1.006
			C239.983,372.475,244.418,371.425,246.305,369.831z"/>
		<path fill="#D7885C" d="M241.722,382.043c0.39,0.549,4.054,5.411,4.39,5.02c0.338-0.396-2.698-8.217-2.987-8.362
			c-0.285-0.143-0.979,2.464-4.085,3.011c-1.333,0.24-2.9-0.305-3.716-1.406c-0.151,0.313-0.313,0.627-0.472,0.938
			C236.154,382.782,239.553,384.519,241.722,382.043z"/>
		<path fill="#C0001F" d="M232.919,383.008c1.811-3.011,3.077-6.248,3.87-9.663c0.742-3.195,1.426-7.559,1.313-9.487
			c-2.273,1.52-4.56,2.187-7.328,1.918c-2.639-0.259-4.744-2.017-6.431-3.926c-0.664-0.754-1.2-1.564-1.629-2.421
			c-1.516,0.538-3.645,1.65-3.893,3.301c1.301,0.88,0.791,3.665-0.607,4.423c-1.334,0.721-2.711-0.327-3.165-1.572
			c-0.241-0.671-0.109-1.609,0.347-2.156c0.517-0.629,1.501-1.17,2.889-0.917c0.373-1.797,2.52-2.98,4.187-3.589
			c-0.576-1.296-0.918-2.688-1.087-4.121c-7.423,2.974-13.83,8.48-18.509,14.9c-4.513,6.192-6.999,13.521-3.879,20.901
			c0.412,0.973,0.863,1.946,1.38,2.878c1.164-1.766,4.173-1.406,5.649-0.037c1.084,1.009,1.569,2.423,1.331,3.902
			c-0.061,0.385-0.351,1.508-0.686,2.002c3.021,1.009,6.543,0.408,9.431-0.642c1.209-0.443,2.371-0.994,3.49-1.63
			c-3.526-0.977-4.996-5.983-1.558-8.259c2.859-1.882,8.149-0.835,8.325,2.889C228.922,389.061,231.113,386.021,232.919,383.008z"/>
		<path fill="#DD9B6B" d="M216.303,363.713c-0.556,0.325-0.572,1.124-0.432,1.663c0.26,0.984,1.466,1.51,2.254,0.82
			c0.762-0.667,1.033-3.032-0.583-2.91C217.036,363.324,216.689,363.488,216.303,363.713z"/>
		<path fill="#D7885C" d="M236.976,387.098c-1.951,1.64-4.417,3.1-6.748,1.352c-0.237,0.311-0.481,0.615-0.724,0.913
			c1.694,1.021,3.496,1.249,5.72,0.068c1.275,3.11,4.262,5.985,4.617,5.509C240.194,394.453,238.497,389.421,236.976,387.098z"/>
		<path fill="#141111" d="M228.066,345.622c-0.217-0.884,1.151-1.221,1.37-0.338C229.654,346.167,228.286,346.503,228.066,345.622z"
			/>
		<path fill="#141111" d="M227.847,351.292c-0.217-0.881,1.151-1.222,1.369-0.336C229.434,351.837,228.064,352.175,227.847,351.292z
			"/>
		<path fill="#141111" d="M227.008,357.236c-0.412,0.002-0.305-0.876,0.02-0.818c0.324,0.06,1.034,0.191,2.008-0.099
			c0.975-0.292,1.984-1.22,2.578-1.903c1.116-1.276,1.701-2.994,2.135-4.604c1.08-3.98,1.213-8.222-1.831-11.388
			c-0.376-0.39,0.087-0.702,0.462-0.31c1.886,1.96,2.785,3.993,2.883,6.416c1.764-0.348,3.515-0.112,4.953,1.033
			c1.398,1.11,1.771,3.336,0.961,4.886C238.916,354.761,232.185,357.221,227.008,357.236z"/>
		<path fill="#B65B42" d="M240.239,346.879c-0.949-1.698-3.281-1.859-4.952-1.494c-0.006,0.002-0.01,0.002-0.019,0.002
			c-0.036,1.655-0.353,3.354-0.8,5.013c-0.511,1.888-1.714,4.493-3.669,5.737c2.821-0.634,5.863-2.042,8.121-4.148
			C240.416,350.596,241.326,348.827,240.239,346.879z"/>
		<path fill="#141111" d="M206.8,385.689c-2.523-0.538-2.77-3.402-2.024-5.415c0.966-2.597,3.589-4.423,6.261-3.622
			c2.566,0.775,2.396,3.425,1.551,5.277C211.552,384.19,209.467,386.263,206.8,385.689z"/>
		<path fill="#3B3735" d="M210.633,377.151c-1.995-0.51-4.084,0.888-5.118,2.849c-0.914,1.727-0.909,4.27,1.182,5.076
			C210.675,386.599,215.299,378.352,210.633,377.151z"/>
		<path fill="#141111" d="M222.283,377.541c-3.786-2.069-0.446-9.184,3.929-8.341C232.074,370.33,227.616,380.458,222.283,377.541z"
			/>
		<path fill="#3B3735" d="M226.652,369.971c-3.761-1.288-7.308,4.763-4.269,6.97C226.434,379.885,230.944,371.442,226.652,369.971z"
			/>
		<path fill="#EFCFA4" d="M223.739,346.511c-0.657,1.555-1.208,4.452-1.137,6.55c0.094,2.835,0.669,4.73,1.15,4.007
			C224.07,356.588,225.164,343.137,223.739,346.511z"/>
		<path fill="#EFCFA4" d="M225.991,361.684c0.37,0.75,1.982,1.887,3.296,1.994C231.306,363.84,224.45,358.546,225.991,361.684z"/>
		<path fill="#E0A371" d="M241.426,355.353c-0.878,1.756-3.157,6.606-1.314,5.163c1.842-1.443,4.901-5.772,5.393-10.019
			C246.002,346.251,242.676,352.843,241.426,355.353z"/>
		<path fill="#EFCFA4" d="M229.016,352.083c-0.256,0.097-0.667,1.541-0.251,1.439C229.18,353.419,229.47,351.918,229.016,352.083z"
			/>
		<path fill="#EFCFA4" d="M229.417,344.563c0.267,0.06,0.057-1.336-0.398-1.168C228.565,343.562,229.067,344.483,229.417,344.563z"
			/>
		<path fill="#E7B994" d="M215.869,338.412c-0.45,0.368-0.65,1.029-0.401,1.766C215.719,340.914,217.46,337.117,215.869,338.412z"/>
		<path fill="#E7B994" d="M216.049,364.391c-0.228,0.516,0.037,1.696,0.838,1.845C217.686,366.385,216.585,363.183,216.049,364.391z
			"/>
		<path fill="#CC855B" d="M218.067,363.548c0.271,0.099,0.537,0.354,0.535,1.05c-0.003,0.691-0.21,1.126-0.414,1.282
			C217.982,366.035,217.607,363.384,218.067,363.548z"/>
		<path fill="#CC855B" d="M217.435,339.278c-0.115,0.337-0.199,1.02,0.294,0.619c0.491-0.396,0.617-0.879,0.239-1.275
			C217.596,338.228,217.619,338.746,217.435,339.278z"/>
		<path fill="#C2784F" d="M248.873,369.586c0.054,0.605,0.168,1.692,0.537,2.758c0.371,1.071,0.757,2.065,1.002,2.541
			c0.239,0.476-0.893-0.066-1.597-2.485C248.115,369.986,248.728,367.907,248.873,369.586z"/>
		<path fill="#C2784F" d="M243.682,380.21c0.271,0.696,1.185,3.005,1.437,3.897c0.254,0.893-1.197-1.408-1.355-1.911
			C243.607,381.688,243.038,378.566,243.682,380.21z"/>
		<path fill="#C2784F" d="M237.639,388.535c0.262,0.613,1.087,2.487,1.397,3.467c0.311,0.975-0.718-0.166-1.109-1.327
			C237.539,389.512,236.757,386.476,237.639,388.535z"/>
		<path fill="#C2784F" d="M228.994,326.787c0.184,0.907,0.519,2.39,0.801,3.408c0.285,1.02-0.465,0.458-0.788-0.858
			C228.682,328.019,228.331,323.549,228.994,326.787z"/>
		<path fill="#DE9F6E" d="M247.281,371.378c0.2,0.799,1.036,2.52,1.538,3.452c0.502,0.93-0.024-0.851-0.378-1.816
			C248.028,371.893,246.831,369.547,247.281,371.378z"/>
		<path fill="#DE9F6E" d="M242.145,382.254c0.406,0.555,1.356,1.777,1.699,2.201c0.342,0.427-0.787-2.359-1.105-2.688
			C242.422,381.44,241.324,381.129,242.145,382.254z"/>
		<path fill="#DE9F6E" d="M236.31,391.007c0.213,0.642,1.512,2.28,2.025,2.56C238.846,393.849,235.396,388.266,236.31,391.007z"/>
		<path fill="#2A2624" d="M225.738,374.188c-0.536,1.011-1.615,3.39-0.541,2.922c1.077-0.47,2.804-1.881,2.973-4.376
			C228.337,370.249,226.502,372.74,225.738,374.188z"/>
		<path fill="#2A2624" d="M221.514,392.677c-0.287,1.071-0.877,3.752,0.231,2.872c1.109-0.886,3.784-3.146,3.906-3.481
			c0.12-0.335-0.185-1.86-1.066-2.394C223.707,389.144,222.278,389.833,221.514,392.677z"/>
		<path fill="#2A2624" d="M209.801,381.341c-0.987,1.973-1.899,4.03-0.722,3.436c1.207-0.611,3.068-2.177,3.324-4.786
			C212.618,377.781,211.513,377.915,209.801,381.341z"/>
		<path fill="#2A2624" d="M202.109,367.05c-1.675,2.044-1.015,3.481-1.015,3.481s1.186-1.779,2.096-2.924
			c0.911-1.141,2.048-2.348,2.048-2.348S203.729,365.066,202.109,367.05z"/>
		<path fill="#2A2624" d="M208.069,352.452c-0.466,0.949-1.492,2.781-0.344,2.33c1.146-0.454,2.715-1.292,2.662-3.549
			C210.346,349.408,208.658,351.252,208.069,352.452z"/>
		<path fill="#2A2624" d="M204.722,395.89c0.099,0.913,0.754,3.052,1.251,2.868c0.497-0.195,1.103-2.147,0.338-3.736
			C205.548,393.447,204.42,393.147,204.722,395.89z"/>
		<path fill="#514D4B" d="M206.891,378.59c-0.626,0.584-1.376,1.41-1.653,2.827c-0.222,1.125,0.101,2.353,0.457,2.543
			C206.045,384.138,207.58,377.944,206.891,378.59z"/>
		<path fill="#514D4B" d="M218.939,389.262c-0.709,0.29-2.055,1.462-2.059,2.957c-0.005,1.499,0.551,2.386,0.822,2.655
			C217.973,395.149,219.59,389.005,218.939,389.262z"/>
		<path fill="#514D4B" d="M201.792,393.25c-0.518,0.197-0.77,0.598-0.73,0.895c0.038,0.296,1.068,1.843,1.718,2.433
			C203.439,397.168,202.289,393.062,201.792,393.25z"/>
		<path fill="#514D4B" d="M201.005,365.89c-0.574,0.514-1.319,1.825-1.309,2.843C199.71,369.752,202.374,364.67,201.005,365.89z"/>
		<path fill="#514D4B" d="M206.762,350.732c-0.504,0.457-2.959,2.904-3.039,3.128c-0.081,0.226,0.228,0.932,0.749,1.11
			C204.992,355.146,207.485,350.077,206.762,350.732z"/>
		<path fill="#514D4B" d="M223.537,370.785c-0.686,0.441-1.511,1.05-1.981,2.866c-0.346,1.338,0.074,2.363,0.313,2.371
			C222.109,376.033,224.211,370.346,223.537,370.785z"/>
		<path fill="#A20F20" d="M237.444,368.816c-0.166,1.095-1.171,5.709-1.996,7.962c-1.213,3.338-2.55,6.022-3.912,7.958
			c-1.361,1.934-0.094-5.252,1.246-9.058C234.12,371.87,238.101,364.496,237.444,368.816z"/>
		<path fill="#A20F20" d="M206.856,363.403c0,0,2.91-2.955,6.014-5.117c3.102-2.166,6.912-4.063,6.912-4.063s-3.93-0.71-8.896,3.15
			C205.923,361.235,206.856,363.403,206.856,363.403z"/>
		<path fill="#A20F20" d="M199.304,373.455c0,0-1.393,2.462-2.279,6.157c-0.888,3.697-0.269,7.02-0.269,7.02
			s-1.862-3.978-0.997-8.265C196.617,374.076,199.304,373.455,199.304,373.455z"/>
		<path fill="#CB5C49" d="M199.396,359.884c-0.993,1.458-3.832,6.498-4.826,10.74c-0.844,3.603,2.805-3.048,3.699-5.105
			C199.159,363.459,201.951,356.138,199.396,359.884z"/>
		<path fill="#CB5C49" d="M206.616,366.768c-1.739,1.593-4.276,4.97-5.68,7.931c-1.402,2.959-1.795,4.43-1.881,5.486
			c-0.086,1.052,3.134-4.115,4.853-7.113C205.88,369.628,207.851,365.637,206.616,366.768z"/>
		<path fill="#CB5C49" d="M213.411,360.002c-1.422,1.097-3.785,3.065-4.014,3.808c-0.23,0.747,3.296-1.431,5.049-2.963
			c1.753-1.533,4.419-3.839,3.626-3.715C217.277,357.261,215.376,358.486,213.411,360.002z"/>
	</g>
	<g>
		<path fill="#141111" d="M432.136,322.788c1.987-1.484,4.587-1.167,6.69,0.054c3.832-4.891,8.559-9.104,14.316-11.542
			c3.526-1.492,7.427-1.977,11.16-1.06c3.338,0.818,5.815,3.427,7.624,6.209c1.089,1.67,2.066,3.514,2.801,5.439
			c1.223,0.567,3.605,3.479,5.274,8.127c0.997,2.783,1.14,5.876,0.987,8.809c-0.329,6.242-2.698,12.334-5.852,17.67
			c-3.26,5.517-7.784,10.522-12.614,14.697c-2.828,2.448-5.841,4.353-9.048,5.892c0.241,0.203,0.465,0.441,0.669,0.712
			c0.129-0.054,0.259-0.102,0.388-0.139c1.155-0.472,2.382-0.3,2.795,1.046c0.36,1.176-0.08,2.632-0.895,3.512
			c-1.082,1.17-2.657,0.723-3.703-0.234c-1.495-1.369-0.558-3.034,0.836-3.887c-0.218-0.282-0.465-0.512-0.732-0.706
			c-1.439,0.663-4.409,1.837-4.401,1.868c1.154,4.564-0.958,9.398-5.689,10.615c0.461,1.663,1.027,7.793-1.006,8.623
			c-0.191,0.075-0.417,0.027-0.475-0.193c-0.959-3.514-1.545-7.219-3.242-10.487c-0.108-0.197,0.014-0.499,0.272-0.481
			c2.58,0.176,4.869-0.449,6.82-2.199c1.587-1.431,1.318-3.33,1.037-5.214c-0.608,0.184-1.439,0.427-2.012,0.557
			c-1.255,1.754-2.706,3.307-4.314,4.535c-4.157,3.17-11.119,4.854-15.483,0.543c-2.721-2.69-4.092-7.109-4.54-10.651
			c-0.601-4.732,0.318-8.54,1.801-12.249c1.301-3.251,3.889-6.714,6.77-9.11c-0.005-0.043-0.009-2.345,0.497-6.18
			c-1.904-1.513-4.865-1.415-6.948-0.262c-1.515,0.839-3.145,3.723-4.061,3.889c-1.303,0.235-1.548-4.298-2.02-6.294
			c-0.953-4.002-3.257-6.752-2.595-7.431c1.333-1.373,2.714,0.78,3.627,2.109c0.788,1.143,2.074,3.222,2.943,6.315
			c2.296-2.05,6.933-3.261,9.42-1.009c0.48-3.658,1.922-8.534,2.564-10.083c-1.066-1.779-3.738-1.969-5.433-1.053
			c-1.996,1.072-2.969,4.239-3.464,3.226c-0.771-1.582-4.235-9.865-4.156-10.423c0.354-2.522,4.216,2.73,6.017,4.812
			c2.301-2.454,6.173-0.912,8.127,1.032c0.806-1.633,3.076-5.469,4.37-7.256c-2.6-1.755-5.154,0.162-7.14,1.998
			c-0.215,0.201-0.618-0.385-0.872-0.782c-2.33-3.651-3.954-8.67-3.431-9.723C426.335,315.383,431.375,320.118,432.136,322.788z"/>
		<path fill="#DD9B6B" d="M453.136,379.711c-0.48,0.725-0.005,1.425,0.618,1.864c0.765,0.538,1.549,0.52,2.146-0.219
			c0.472-0.582,0.724-1.371,0.579-2.104c-0.145-0.733-0.522-1.054-1.226-0.913C454.547,378.474,453.548,379.088,453.136,379.711z"/>
		<path fill="#3B3735" d="M442.567,319.89c-0.372,4.285,5.479,5.084,8.382,3.32c3.873-2.353,1.819-8.123-2.284-8.484
			C446.455,316.179,444.42,317.937,442.567,319.89z"/>
		<path fill="#3B3735" d="M471.145,317.013c-1.311-2.054-4.297-5.349-6.42-5.586c-0.502,0.97-0.659,2.115-0.67,2.396
			c-0.054,1.49,0.43,2.816,1.647,3.725C467.237,318.691,470.288,319.033,471.145,317.013z"/>
		<path fill="#3B3735" d="M469.305,362.976c-0.648-2.367-3.631-1.698-5.35-0.884c-3.077,1.454-3.644,5.306-0.658,7.14
			C465.425,367.311,467.449,365.208,469.305,362.976z"/>
		<path fill="#C0001F" d="M453.319,376.25c3.077-1.485,5.907-3.533,8.509-5.734c0.327-0.271,0.651-0.555,0.972-0.839
			c-2.978-1.965-2.79-5.925,0.305-7.859c1.958-1.222,5.644-1.949,6.68,0.574c1.548-1.903,2.974-3.889,4.242-5.931
			c3.202-5.152,5.42-11.052,5.956-17.113c0.255-2.886,0.092-5.818-0.766-8.58c-0.932-3.015-2.295-5.637-3.828-6.875
			c1.308,4.734,0.886,10.714-2.936,18.136c2.372,0.638,1.71,4.609,0.696,6.476c-1.242,2.283-5.096,3.837-7.495,2.812
			c-0.465,0.509-0.931,1.009-1.406,1.499c-4.341,4.481-9.503,8.238-15.239,10.713c0.043,0.449,0.077,0.901,0.094,1.358
			c0.134,3.682-0.793,7.712-2.501,11.356c2.001-0.445,4.329-0.64,6.078,0.302C452.894,376.449,453.108,376.356,453.319,376.25z"/>
		<path fill="#3B3735" d="M472.123,342.613c-1.685,2.936-3.765,5.676-6.011,8.195c1.997,0.696,5.119-0.473,6.232-2.139
			C473.664,346.692,474.236,342.932,472.123,342.613z"/>
		<path fill="#C0001F" d="M451.915,376.888c-1.711-0.677-3.912-0.342-5.674,0.103c-0.397,0.783-0.831,1.549-1.297,2.284
			C447.314,378.599,449.655,377.861,451.915,376.888z"/>
		<path fill="#D7885C" d="M446.143,384.954c-1.84,2.205-4.529,3.114-7.319,3.046c1.474,3.054,2.083,6.44,2.944,9.708
			c1.759-1.466,0.219-8.329,0.25-8.333c4.495-1.077,6.921-5.291,5.794-9.944c-0.005-0.019,0-0.037-0.003-0.054
			c-0.346,0.114-0.695,0.234-1.044,0.346C447.034,381.488,447.387,383.457,446.143,384.954z"/>
		<path fill="#E7BA87" d="M424.345,359.669c-2.317,3.603-3.489,7.925-3.575,12.166c-0.113,5.707,2.188,11.332,4.72,13.459
			c2.532,2.121,6.768,2.044,9.972,1.035c4.013-1.261,6.962-4.871,9.012-8.358c4.266-7.263,5.689-17.248-0.793-23.624
			C437.069,347.844,428.531,353.164,424.345,359.669z"/>
		<path fill="#D7885C" d="M419.916,346.236c0.215,0.439-0.155,1.204-0.273,0.648c-0.122-0.557-0.401-1.656-1.126-3.446
			c-0.725-1.786-1.46-2.761-2.399-4.17c-0.41-0.614-1.121-1.67-1.666-1.752c-0.942-0.144-0.66,0.532-0.517,0.911
			c0.343,0.882,0.975,2.063,1.361,2.925c0.566,1.274,0.987,2.37,1.284,3.734c0.379,1.73,0.709,5.181,1.344,5.044
			c0.638-0.142,2.722-3.362,4.877-4.122c2.02-0.711,4.398-0.572,6.162,0.63c0.05-0.387,0.104-0.773,0.157-1.161
			C427.043,342.995,422.019,344.352,419.916,346.236z"/>
		<path fill="#D7885C" d="M424.728,332.136c-0.463-0.615-4.814-6.039-5.185-5.582c-0.371,0.462,3.366,9.292,3.697,9.446
			c0.332,0.149,1.035-2.85,4.562-3.581c1.514-0.316,3.322,0.254,4.294,1.477c0.161-0.367,0.332-0.724,0.504-1.086
			C431.061,331.095,427.121,329.236,424.728,332.136z"/>
		<path fill="#C0001F" d="M434.744,330.728c-1.96,3.505-3.295,7.239-4.084,11.168c-0.734,3.672-1.368,8.676-1.168,10.875
			c2.542-1.815,5.13-2.658,8.298-2.444c3.021,0.206,5.484,2.141,7.478,4.264c0.782,0.833,1.424,1.742,1.944,2.705
			c1.709-0.667,4.104-2.011,4.33-3.904c-1.514-0.957-1.028-4.159,0.541-5.069c1.497-0.87,3.106,0.282,3.666,1.686
			c0.3,0.755,0.179,1.829-0.321,2.475c-0.566,0.737-1.673,1.383-3.267,1.145c-0.362,2.063-2.774,3.489-4.657,4.239
			c0.705,1.462,1.146,3.038,1.383,4.67c8.375-3.653,15.502-10.162,20.622-17.654c4.936-7.221,7.522-15.678,3.706-23.994
			c-0.503-1.096-1.053-2.193-1.675-3.241c-1.269,2.055-4.717,1.757-6.451,0.239c-1.277-1.116-1.875-2.715-1.655-4.408
			c0.058-0.441,0.349-1.733,0.714-2.313c-3.484-1.044-7.482-0.237-10.748,1.065c-1.364,0.545-2.673,1.214-3.928,1.983
			c4.06,0.992,5.913,6.658,2.066,9.367c-3.197,2.255-9.275,1.241-9.603-3.009C439.1,323.685,436.702,327.226,434.744,330.728z"/>
		<path fill="#DD9B6B" d="M454.386,352.183c0.624-0.391,0.615-1.305,0.431-1.915c-0.329-1.11-1.722-1.669-2.598-0.854
			c-0.847,0.787-1.077,3.494,0.767,3.301C453.56,352.653,453.95,352.452,454.386,352.183z"/>
		<path fill="#D7885C" d="M429.97,326.201c2.173-1.946,4.939-3.691,7.663-1.783c0.259-0.356,0.524-0.712,0.793-1.062
			c-1.973-1.112-4.034-1.304-6.535,0.115c-1.562-3.501-5.073-6.683-5.459-6.125C426.046,317.906,428.155,323.594,429.97,326.201z"/>
		<path fill="#141111" d="M441.578,373.243c0.278,1.002-1.271,1.435-1.552,0.433C439.747,372.676,441.298,372.247,441.578,373.243z"
			/>
		<path fill="#141111" d="M441.632,366.766c0.279,1-1.27,1.431-1.549,0.431C439.803,366.198,441.354,365.764,441.632,366.766z"/>
		<path fill="#141111" d="M442.384,359.947c0.471-0.013,0.379,0.992,0.005,0.934c-0.37-0.056-1.187-0.178-2.288,0.186
			c-1.103,0.367-2.219,1.46-2.88,2.259c-1.226,1.499-1.836,3.481-2.279,5.328c-1.092,4.585-1.098,9.433,2.483,12.939
			c0.447,0.437-0.067,0.81-0.516,0.373c-2.218-2.172-3.317-4.463-3.51-7.225c-2.005,0.456-4.01,0.25-5.692-1.011
			c-1.635-1.22-2.139-3.746-1.263-5.546C428.877,363.185,436.476,360.147,442.384,359.947z"/>
		<path fill="#B65B42" d="M427.638,372.229c1.139,1.905,3.808,2.009,5.703,1.537c0.006-0.004,0.014-0.004,0.021-0.006
			c-0.014-1.889,0.287-3.837,0.743-5.751c0.518-2.17,1.8-5.188,3.989-6.674c-3.2,0.82-6.623,2.535-9.129,5.018
			C427.307,367.992,426.327,370.042,427.638,372.229z"/>
		<path fill="#141111" d="M464.474,326.759c2.9,0.532,3.279,3.795,2.495,6.116c-1.013,2.997-3.943,5.178-7.021,4.355
			c-2.958-0.795-2.857-3.828-1.955-5.971C459.099,328.641,461.41,326.199,464.474,326.759z"/>
		<path fill="#3B3735" d="M460.392,336.641c2.294,0.517,4.632-1.154,5.748-3.423c0.985-2.008,0.89-4.912-1.526-5.755
			C460.018,325.862,455.026,335.439,460.392,336.641z"/>
		<path fill="#141111" d="M447.079,336.602c4.392,2.233,0.827,10.47-4.197,9.659C436.148,345.177,440.888,333.457,447.079,336.602z"
			/>
		<path fill="#3B3735" d="M442.353,345.397c4.338,1.338,8.179-5.695,4.632-8.108C442.259,334.073,437.402,343.868,442.353,345.397z"
			/>
		<path fill="#EFCFA4" d="M446.489,372.08c0.696-1.8,1.223-5.125,1.072-7.515c-0.205-3.235-0.927-5.38-1.454-4.535
			C445.758,360.588,444.981,375.983,446.489,372.08z"/>
		<path fill="#EFCFA4" d="M443.393,354.834c-0.446-0.841-2.327-2.085-3.832-2.16C437.248,352.558,445.263,358.364,443.393,354.834z"
			/>
		<path fill="#E0A371" d="M425.992,362.597c0.941-2.038,3.374-7.654,1.318-5.941c-2.055,1.713-5.398,6.759-5.813,11.626
			C421.08,373.144,424.648,365.5,425.992,362.597z"/>
		<path fill="#EFCFA4" d="M440.269,365.898c0.291-0.114,0.708-1.779,0.237-1.65C440.037,364.38,439.756,366.105,440.269,365.898z"/>
		<path fill="#EFCFA4" d="M440.072,374.498c-0.307-0.054-0.019,1.526,0.495,1.323C441.078,375.61,440.473,374.579,440.072,374.498z"
			/>
		<path fill="#E7B994" d="M455.754,381.055c0.501-0.431,0.706-1.193,0.394-2.029C455.835,378.193,453.981,382.589,455.754,381.055z"
			/>
		<path fill="#E7B994" d="M454.65,351.4c0.243-0.593-0.1-1.933-1.019-2.077C452.712,349.181,454.081,352.798,454.65,351.4z"/>
		<path fill="#CC855B" d="M452.376,352.433c-0.314-0.106-0.626-0.385-0.646-1.179c-0.022-0.794,0.198-1.295,0.426-1.481
			C452.384,349.59,452.905,352.605,452.376,352.433z"/>
		<path fill="#CC855B" d="M453.931,380.123c0.121-0.393,0.195-1.174-0.354-0.7c-0.549,0.474-0.674,1.027-0.231,1.466
			C453.788,381.322,453.744,380.736,453.931,380.123z"/>
		<path fill="#C2784F" d="M416.994,346.603c-0.083-0.689-0.249-1.924-0.707-3.13c-0.46-1.209-0.937-2.329-1.228-2.865
			c-0.296-0.533,1.017,0.046,1.902,2.779C417.846,346.119,417.217,348.513,416.994,346.603z"/>
		<path fill="#C2784F" d="M422.552,334.295c-0.331-0.782-1.454-3.393-1.775-4.398c-0.319-1.009,1.415,1.561,1.615,2.133
			C422.59,332.6,423.346,336.149,422.552,334.295z"/>
		<path fill="#C2784F" d="M429.168,324.582c-0.323-0.694-1.329-2.8-1.716-3.909c-0.389-1.105,0.827,0.162,1.312,1.473
			C429.247,323.461,430.248,326.905,429.168,324.582z"/>
		<path fill="#C2784F" d="M441.171,394.778c-0.241-1.025-0.676-2.702-1.034-3.86c-0.362-1.154,0.516-0.538,0.93,0.953
			C441.481,393.362,442.037,398.454,441.171,394.778z"/>
		<path fill="#DE9F6E" d="M418.747,344.503c-0.253-0.908-1.268-2.841-1.871-3.886c-0.605-1.045,0.056,0.97,0.495,2.054
			C417.881,343.938,419.326,346.575,418.747,344.503z"/>
		<path fill="#DE9F6E" d="M424.239,331.908c-0.483-0.622-1.609-1.981-2.016-2.455c-0.405-0.473,0.979,2.663,1.352,3.032
			C423.952,332.846,425.214,333.162,424.239,331.908z"/>
		<path fill="#DE9F6E" d="M430.6,321.713c-0.267-0.731-1.807-2.55-2.398-2.855C427.606,318.556,431.736,324.807,430.6,321.713z"/>
		<path fill="#2A2624" d="M443.252,340.552c0.574-1.174,1.725-3.93,0.513-3.358c-1.213,0.575-3.133,2.245-3.24,5.095
			C440.419,345.139,442.429,342.228,443.252,340.552z"/>
		<path fill="#2A2624" d="M447.433,319.298c0.29-1.232,0.872-4.317-0.362-3.268c-1.238,1.049-4.211,3.719-4.34,4.106
			c-0.125,0.389,0.275,2.114,1.298,2.694C445.052,323.405,446.659,322.566,447.433,319.298z"/>
		<path fill="#2A2624" d="M461.198,331.831c1.058-2.286,2.033-4.669,0.705-3.945c-1.358,0.739-3.429,2.588-3.628,5.582
			C458.102,335.994,459.364,335.805,461.198,331.831z"/>
		<path fill="#2A2624" d="M470.475,347.885c1.839-2.394,1.036-4.009,1.036-4.009s-1.293,2.072-2.29,3.408
			c-0.999,1.336-2.257,2.754-2.257,2.754S468.692,350.205,470.475,347.885z"/>
		<path fill="#2A2624" d="M464.173,364.757c0.5-1.1,1.608-3.229,0.315-2.669c-1.294,0.555-3.057,1.568-2.919,4.14
			C461.68,368.313,463.543,366.145,464.173,364.757z"/>
		<path fill="#2A2624" d="M466.494,315.042c-0.148-1.032-0.967-3.459-1.528-3.226c-0.56,0.237-1.184,2.493-0.257,4.271
			C465.636,317.866,466.934,318.169,466.494,315.042z"/>
		<path fill="#514D4B" d="M464.618,334.868c0.693-0.686,1.522-1.65,1.788-3.278c0.212-1.294-0.202-2.682-0.61-2.884
			C465.389,328.506,463.852,335.631,464.618,334.868z"/>
		<path fill="#514D4B" d="M450.489,323.104c0.805-0.354,2.298-1.737,2.252-3.448c-0.046-1.71-0.712-2.696-1.031-3.003
			C451.387,316.351,449.757,323.425,450.489,323.104z"/>
		<path fill="#514D4B" d="M469.932,317.96c0.583-0.243,0.858-0.709,0.805-1.046c-0.055-0.337-1.282-2.073-2.051-2.717
			C467.917,313.547,469.368,318.194,469.932,317.96z"/>
		<path fill="#514D4B" d="M471.774,349.168c0.638-0.607,1.445-2.126,1.394-3.285C473.118,344.72,470.257,350.609,471.774,349.168z"
			/>
		<path fill="#514D4B" d="M465.726,366.675c0.559-0.54,3.276-3.421,3.36-3.68c0.086-0.259-0.291-1.054-0.892-1.236
			C467.594,361.572,464.923,367.445,465.726,366.675z"/>
		<path fill="#514D4B" d="M445.88,344.361c0.767-0.532,1.688-1.253,2.162-3.343c0.348-1.54-0.165-2.695-0.439-2.697
			C447.327,338.318,445.125,344.883,445.88,344.361z"/>
		<path fill="#A20F20" d="M430.07,347.09c0.151-1.26,1.142-6.558,2.001-9.163c1.273-3.854,2.706-6.966,4.196-9.22
			c1.486-2.256,0.289,5.994-1.11,10.386C433.76,343.483,429.471,352.04,430.07,347.09z"/>
		<path fill="#A20F20" d="M465.179,352.214c0,0-3.219,3.473-6.69,6.051c-3.469,2.578-7.75,4.875-7.75,4.875
			s4.512,0.673,10.046-3.906C466.318,354.659,465.179,352.214,465.179,352.214z"/>
		<path fill="#A20F20" d="M473.458,340.472c0,0,1.501-2.856,2.387-7.106c0.887-4.247,0.064-8.024,0.064-8.024
			s2.261,4.477,1.426,9.403C476.502,339.672,473.458,340.472,473.458,340.472z"/>
		<path fill="#CB5C49" d="M473.818,355.973c1.083-1.7,4.151-7.552,5.139-12.43c0.841-4.144-3.098,3.578-4.044,5.958
			C473.967,351.883,471.031,360.338,473.818,355.973z"/>
		<path fill="#CB5C49" d="M465.335,348.364c1.936-1.88,4.712-5.826,6.213-9.256c1.501-3.425,1.897-5.12,1.96-6.325
			c0.06-1.205-3.437,4.801-5.293,8.286C466.079,345.067,463.966,349.697,465.335,348.364z"/>
		<path fill="#CB5C49" d="M457.813,356.32c1.588-1.302,4.214-3.628,4.451-4.488c0.236-0.856-3.709,1.746-5.662,3.556
			c-1.95,1.812-4.91,4.539-4.009,4.368C453.494,359.584,455.623,358.12,457.813,356.32z"/>
	</g>
	<g>
		<path fill="#141111" d="M325.79,161.47c-1.052-1.831-0.519-3.999,0.729-5.653c-3.744-3.747-6.828-8.175-8.298-13.298
			c-0.901-3.136-0.912-6.488,0.243-9.551c1.037-2.742,3.497-4.571,6.034-5.819c1.525-0.749,3.189-1.39,4.892-1.809
			c0.606-0.979,3.314-2.699,7.418-3.636c2.458-0.558,5.091-0.358,7.557,0.07c5.248,0.916,10.162,3.547,14.352,6.76
			c4.337,3.323,8.109,7.666,11.147,12.183c1.78,2.643,3.088,5.392,4.059,8.261c0.199-0.184,0.421-0.349,0.672-0.493
			c-0.032-0.113-0.056-0.232-0.077-0.345c-0.283-1.023-0.011-2.043,1.17-2.258c1.029-0.185,2.221,0.337,2.884,1.117
			c0.877,1.035,0.337,2.321-0.584,3.113c-1.307,1.124-2.621,0.158-3.2-1.108c-0.256,0.157-0.478,0.341-0.672,0.546
			c0.413,1.286,1.106,3.923,1.133,3.918c3.979-0.511,7.853,1.772,8.397,5.901c1.454-0.219,6.698-0.069,7.193,1.736
			c0.046,0.169-0.02,0.354-0.211,0.381c-3.069,0.45-6.268,0.565-9.202,1.671c-0.182,0.067-0.426-0.063-0.384-0.283
			c0.41-2.166,0.121-4.164-1.161-5.995c-1.045-1.491-2.685-1.457-4.309-1.411c0.097,0.534,0.217,1.261,0.269,1.759
			c1.353,1.244,2.518,2.63,3.391,4.115c2.261,3.844,2.972,9.907-1.126,13.161c-2.552,2.025-6.434,2.733-9.477,2.748
			c-4.063,0.023-7.193-1.144-10.181-2.779c-2.617-1.433-5.283-3.978-7.015-6.663c-0.038,0-1.986-0.232-5.18-1.055
			c-1.474,1.458-1.695,3.978-0.933,5.853c0.556,1.371,2.833,3.046,2.877,3.839c0.063,1.127-3.798,0.868-5.534,1.065
			c-3.484,0.393-6.048,2.062-6.556,1.432c-1.022-1.269,0.94-2.214,2.159-2.854c1.047-0.548,2.937-1.423,5.644-1.84
			c-1.499-2.156-2.049-6.204,0.11-8.076c-3.045-0.783-7.023-2.503-8.267-3.204c-1.618,0.72-2.049,2.959-1.451,4.491
			c0.704,1.799,3.283,2.947,2.373,3.262c-1.413,0.491-8.777,2.571-9.243,2.448c-2.1-0.558,2.747-3.287,4.686-4.599
			c-1.838-2.197-0.135-5.317,1.709-6.772c-1.3-0.851-4.314-3.165-5.692-4.44c-1.751,2.016-0.395,4.375,0.956,6.245
			c0.148,0.205-0.387,0.486-0.749,0.658c-3.329,1.597-7.741,2.458-8.581,1.909C318.927,165.621,323.452,161.842,325.79,161.47z"/>
		<path fill="#DD9B6B" d="M376.112,149.53c0.562,0.482,1.21,0.152,1.644-0.329c0.533-0.59,0.596-1.257,0.033-1.839
			c-0.445-0.461-1.09-0.755-1.721-0.707c-0.637,0.047-0.95,0.334-0.902,0.945C375.21,148.21,375.628,149.119,376.112,149.53z"/>
		<path fill="#3B3735" d="M324.406,152.347c3.591,0.754,4.863-4.114,3.668-6.749c-1.593-3.521-6.688-2.375-7.414,1.062
			C321.664,148.678,322.946,150.579,324.406,152.347z"/>
		<path fill="#3B3735" d="M324.899,127.869c-1.874,0.897-4.968,3.087-5.387,4.861c0.769,0.524,1.725,0.773,1.96,0.809
			c1.257,0.202,2.43-0.071,3.324-1.01C325.919,131.348,326.517,128.798,324.899,127.869z"/>
		<path fill="#3B3735" d="M363.612,134.134c-2.076,0.31-1.815,2.9-1.305,4.436c0.917,2.754,4.121,3.628,5.98,1.286
			C366.879,137.86,365.304,135.937,363.612,134.134z"/>
		<path fill="#C0001F" d="M373.208,149.021c-0.943-2.755-2.388-5.359-3.982-7.788c-0.202-0.305-0.406-0.609-0.613-0.908
			c-1.966,2.321-5.301,1.753-6.621-1.06c-0.834-1.785-1.071-4.979,1.17-5.599c-1.453-1.505-2.986-2.915-4.583-4.197
			c-4.034-3.238-8.798-5.721-13.873-6.793c-2.417-0.511-4.913-0.672-7.339-0.232c-2.645,0.482-5.008,1.367-6.212,2.537
			c4.141-0.621,9.158,0.349,15.047,4.341c0.785-1.939,4.074-0.972,5.553,0.079c1.807,1.284,2.727,4.702,1.612,6.63
			c0.384,0.444,0.758,0.89,1.125,1.343c3.347,4.133,5.995,8.886,7.501,13.995c0.387,0.009,0.773,0.025,1.163,0.058
			c3.129,0.263,6.443,1.461,9.354,3.279c-0.174-1.741-0.098-3.728,0.877-5.114C373.327,149.402,373.271,149.212,373.208,149.021z"/>
		<path fill="#3B3735" d="M346.665,129.664c2.311,1.728,4.417,3.769,6.319,5.925c0.793-1.618,0.123-4.379-1.174-5.494
			C350.272,128.776,347.15,127.91,346.665,129.664z"/>
		<path fill="#C0001F" d="M373.598,150.275c-0.746,1.381-0.691,3.276-0.493,4.814c0.626,0.415,1.228,0.863,1.802,1.331
			C374.577,154.344,374.187,152.288,373.598,150.275z"/>
		<path fill="#D7885C" d="M379.832,155.988c1.679,1.783,2.17,4.151,1.83,6.504c2.738-0.931,5.667-1.101,8.517-1.495
			c-1.06-1.64-7.021-1.04-7.025-1.067c-0.448-3.911-3.769-6.398-7.823-5.921c-0.015,0.002-0.03-0.002-0.047-0.005
			c0.065,0.306,0.128,0.611,0.186,0.921C376.992,154.879,378.694,154.783,379.832,155.988z"/>
		<path fill="#E7BA87" d="M356.206,171.844c2.808,2.33,6.346,3.765,9.927,4.272c4.821,0.683,9.814-0.689,11.872-2.615
			c2.057-1.926,2.424-5.517,1.899-8.334c-0.659-3.524-3.407-6.389-6.153-8.481c-5.705-4.356-14.012-6.581-20.071-1.75
			C347.498,159.865,351.127,167.635,356.206,171.844z"/>
		<path fill="#D7885C" d="M344.384,174.214c0.39-0.135,1.001,0.256,0.517,0.3c-0.482,0.045-1.44,0.169-3.026,0.597
			c-1.589,0.43-2.487,0.958-3.778,1.605c-0.558,0.284-1.528,0.778-1.653,1.23c-0.22,0.785,0.383,0.614,0.72,0.529
			c0.778-0.197,1.845-0.614,2.612-0.849c1.139-0.351,2.109-0.592,3.293-0.706c1.502-0.141,4.46-0.067,4.406-0.621
			c-0.053-0.551-2.564-2.646-2.987-4.549c-0.393-1.782-0.034-3.781,1.163-5.149c-0.324-0.083-0.646-0.167-0.966-0.253
			C342.372,167.852,343.001,172.243,344.384,174.214z"/>
		<path fill="#D7885C" d="M332.942,168.698c-0.569,0.33-5.603,3.456-5.254,3.817c0.351,0.36,8.207-1.895,8.371-2.161
			c0.162-0.267-2.303-1.167-2.564-4.228c-0.111-1.313,0.556-2.784,1.691-3.482c-0.294-0.172-0.579-0.356-0.866-0.538
			C332.713,163.233,330.732,166.379,332.942,168.698z"/>
		<path fill="#C0001F" d="M332.776,160.08c2.765,2.019,5.787,3.529,9.034,4.598c3.032,0.998,7.201,2.045,9.082,2.104
			c-1.279-2.337-1.721-4.614-1.214-7.273c0.481-2.536,2.368-4.424,4.372-5.895c0.785-0.576,1.616-1.023,2.487-1.364
			c-0.391-1.516-1.28-3.682-2.861-4.066c-0.964,1.185-3.624,0.445-4.234-0.977c-0.582-1.354,0.556-2.6,1.803-2.931
			c0.67-0.175,1.567,0.038,2.062,0.526c0.562,0.556,1.001,1.557,0.634,2.88c1.709,0.521,2.669,2.707,3.11,4.377
			c1.309-0.445,2.688-0.655,4.094-0.692c-2.231-7.46-7.011-14.157-12.828-19.259c-5.607-4.918-12.496-7.971-19.929-5.594
			c-0.975,0.315-1.958,0.668-2.911,1.087c1.61,1.282,1.001,4.169-0.46,5.481c-1.075,0.966-2.49,1.309-3.901,0.949
			c-0.366-0.091-1.429-0.474-1.882-0.839c-1.241,2.837-0.966,6.309-0.2,9.2c0.321,1.213,0.754,2.389,1.276,3.53
			c1.257-3.335,6.241-4.321,8.138-0.79c1.58,2.939,0.099,7.976-3.532,7.821C327.264,155.67,330.013,158.063,332.776,160.08z"/>
		<path fill="#DD9B6B" d="M352.946,145.656c-0.266-0.567-1.042-0.657-1.579-0.562c-0.973,0.165-1.587,1.288-0.987,2.111
			c0.581,0.797,2.849,1.267,2.873-0.311C353.259,146.401,353.128,146.05,352.946,145.656z"/>
		<path fill="#D7885C" d="M328.457,163.654c-1.425-2.04-2.622-4.558-0.726-6.665c-0.275-0.259-0.55-0.518-0.819-0.781
			c-1.141,1.554-1.514,3.278-0.57,5.54c-3.121,0.963-6.176,3.612-5.741,3.993C321.036,166.128,326.064,164.925,328.457,163.654z"/>
		<path fill="#141111" d="M369.459,158.65c0.875-0.13,1.08,1.224,0.208,1.358C368.79,160.141,368.58,158.786,369.459,158.65z"/>
		<path fill="#141111" d="M363.978,157.94c0.878-0.132,1.081,1.224,0.208,1.358C363.309,159.431,363.103,158.074,363.978,157.94z"/>
		<path fill="#141111" d="M358.288,156.607c0.035-0.401,0.877-0.219,0.791,0.09c-0.089,0.31-0.274,0.986-0.079,1.956
			c0.196,0.969,1.009,2.028,1.618,2.667c1.138,1.194,2.755,1.91,4.277,2.476c3.767,1.396,7.87,1.895,11.202-0.775
			c0.416-0.335,0.676,0.141,0.26,0.472c-2.065,1.656-4.113,2.352-6.474,2.229c0.181,1.746-0.198,3.421-1.435,4.716
			c-1.201,1.258-3.393,1.426-4.822,0.502C359.644,168.37,357.851,161.626,358.288,156.607z"/>
		<path fill="#B65B42" d="M367.173,170.346c1.727-0.773,2.085-3.018,1.881-4.673c0-0.004,0-0.01,0-0.018
			c-1.603-0.181-3.221-0.635-4.793-1.217c-1.784-0.661-4.205-2.055-5.239-4.06c0.367,2.792,1.463,5.865,3.311,8.243
			C363.547,170.191,365.187,171.231,367.173,170.346z"/>
		<path fill="#141111" d="M332.466,134.514c0.75-2.401,3.547-2.39,5.429-1.488c2.435,1.164,3.979,3.868,2.966,6.387
			c-0.975,2.424-3.532,2.026-5.253,1.042C333.504,139.253,331.677,137.049,332.466,134.514z"/>
		<path fill="#3B3735" d="M340.408,138.981c0.675-1.893-0.501-4.037-2.309-5.216c-1.597-1.039-4.061-1.258-5.025,0.702
			C331.247,138.19,338.839,143.396,340.408,138.981z"/>
		<path fill="#141111" d="M339.012,150.243c2.339-3.489,8.946,0.372,7.743,4.542C345.148,160.371,335.716,155.16,339.012,150.243z"
			/>
		<path fill="#3B3735" d="M345.969,155.142c1.577-3.536-3.982-7.505-6.384-4.75C336.378,154.061,344.168,159.175,345.969,155.142z"
			/>
		<path fill="#EFCFA4" d="M368.974,154.375c-1.451-0.773-4.212-1.559-6.251-1.674c-2.76-0.159-4.643,0.235-3.985,0.763
			C359.174,153.815,372.122,156.053,368.974,154.375z"/>
		<path fill="#EFCFA4" d="M354.063,155.23c-0.758,0.291-2.005,1.756-2.221,3.02C351.507,160.195,357.241,154.009,354.063,155.23z"/>
		<path fill="#E0A371" d="M358.849,170.751c-1.628-1.005-6.13-3.642-4.889-1.725c1.236,1.914,5.165,5.259,9.239,6.11
			C367.275,175.989,361.17,172.186,358.849,170.751z"/>
		<path fill="#EFCFA4" d="M363.108,159.005c-0.071-0.255-1.436-0.781-1.373-0.37C361.797,159.047,363.227,159.457,363.108,159.005z"
			/>
		<path fill="#EFCFA4" d="M370.365,160.055c-0.079,0.251,1.289,0.171,1.169-0.284C371.409,159.316,370.473,159.722,370.365,160.055z
			"/>
		<path fill="#E7B994" d="M377.52,147.455c-0.316-0.468-0.94-0.722-1.677-0.542C375.104,147.094,378.635,149.115,377.52,147.455z"/>
		<path fill="#E7B994" d="M352.31,145.35c-0.477-0.265-1.644-0.116-1.861,0.649C350.233,146.764,353.434,145.976,352.31,145.35z"/>
		<path fill="#CC855B" d="M352.953,147.381c-0.121,0.255-0.393,0.491-1.066,0.429c-0.673-0.065-1.076-0.304-1.206-0.518
			C350.546,147.081,353.15,146.951,352.953,147.381z"/>
		<path fill="#CC855B" d="M376.545,148.9c-0.322-0.142-0.975-0.283-0.633,0.231c0.348,0.511,0.802,0.673,1.217,0.344
			C377.546,149.147,377.044,149.123,376.545,148.9z"/>
		<path fill="#C2784F" d="M344.394,176.726c-0.593-0.002-1.656,0.014-2.724,0.279c-1.066,0.267-2.066,0.555-2.548,0.747
			c-0.482,0.195,0.142-0.858,2.546-1.327C344.071,175.957,346.033,176.733,344.394,176.726z"/>
		<path fill="#C2784F" d="M334.546,170.76c-0.697,0.204-3.02,0.884-3.907,1.052c-0.884,0.167,1.469-1.039,1.974-1.147
			C333.115,170.554,336.197,170.28,334.546,170.76z"/>
		<path fill="#C2784F" d="M327.004,164.167c-0.619,0.202-2.507,0.839-3.483,1.051c-0.977,0.215,0.221-0.682,1.383-0.957
			C326.064,163.986,329.079,163.493,327.004,164.167z"/>
		<path fill="#C2784F" d="M387.643,161.201c-0.895,0.102-2.363,0.295-3.376,0.48c-1.013,0.189-0.4-0.492,0.902-0.69
			C386.474,160.794,390.839,160.843,387.643,161.201z"/>
		<path fill="#DE9F6E" d="M342.797,175.027c-0.797,0.12-2.537,0.782-3.482,1.186c-0.947,0.406,0.825,0.053,1.79-0.206
			C342.228,175.704,344.609,174.751,342.797,175.027z"/>
		<path fill="#DE9F6E" d="M332.7,169.09c-0.578,0.346-1.844,1.16-2.286,1.453c-0.441,0.297,2.358-0.553,2.703-0.833
			C333.465,169.428,333.862,168.392,332.7,169.09z"/>
		<path fill="#DE9F6E" d="M324.723,162.661c-0.644,0.151-2.342,1.269-2.662,1.742C321.743,164.873,327.456,162.02,324.723,162.661z"
			/>
		<path fill="#2A2624" d="M341.958,153.884c-0.932-0.608-3.144-1.863-2.785-0.78c0.363,1.085,1.58,2.886,3.98,3.265
			C345.552,156.754,343.296,154.756,341.958,153.884z"/>
		<path fill="#2A2624" d="M324.402,148.17c-1.013-0.374-3.563-1.18-2.804-0.027c0.764,1.15,2.719,3.943,3.034,4.092
			c0.315,0.146,1.818-0.018,2.41-0.823C327.636,150.606,327.09,149.16,324.402,148.17z"/>
		<path fill="#2A2624" d="M336.42,137.803c-1.826-1.128-3.743-2.197-3.268-1.001c0.488,1.228,1.842,3.168,4.354,3.645
			C339.624,140.849,339.595,139.764,336.42,137.803z"/>
		<path fill="#2A2624" d="M350.956,131.596c-1.837-1.802-3.286-1.288-3.286-1.288s1.621,1.307,2.65,2.287
			c1.027,0.984,2.099,2.194,2.099,2.194S352.737,133.344,350.956,131.596z"/>
		<path fill="#2A2624" d="M364.59,138.66c-0.881-0.536-2.57-1.691-2.228-0.541c0.337,1.153,1.015,2.747,3.204,2.896
			C367.34,141.136,365.701,139.336,364.59,138.66z"/>
		<path fill="#2A2624" d="M322.753,131.602c-0.889,0.02-3.027,0.464-2.886,0.961c0.142,0.5,1.988,1.259,3.589,0.658
			C325.056,132.617,325.447,131.549,322.753,131.602z"/>
		<path fill="#514D4B" d="M339.343,135.225c-0.513-0.661-1.245-1.46-2.59-1.853c-1.077-0.311-2.294-0.106-2.506,0.219
			C334.038,133.917,339.908,135.949,339.343,135.225z"/>
		<path fill="#514D4B" d="M327.938,145.971c-0.217-0.713-1.235-2.121-2.687-2.258c-1.453-0.136-2.357,0.328-2.646,0.566
			C322.316,144.518,328.136,146.626,327.938,145.971z"/>
		<path fill="#514D4B" d="M325.575,128.992c-0.144-0.518-0.51-0.801-0.802-0.787c-0.293,0.011-1.883,0.871-2.512,1.456
			C321.636,130.245,325.718,129.491,325.575,128.992z"/>
		<path fill="#514D4B" d="M352.175,130.632c-0.446-0.605-1.652-1.441-2.639-1.517C348.547,129.035,353.239,132.06,352.175,130.632z"
			/>
		<path fill="#514D4B" d="M366.372,137.541c-0.4-0.526-2.561-3.122-2.77-3.222c-0.209-0.096-0.922,0.143-1.141,0.632
			C362.244,135.439,366.943,138.301,366.372,137.541z"/>
		<path fill="#514D4B" d="M345.454,152.051c-0.372-0.704-0.887-1.555-2.608-2.172c-1.263-0.453-2.297-0.139-2.329,0.094
			C340.487,150.207,345.82,152.743,345.454,152.051z"/>
		<path fill="#A20F20" d="M346.145,165.711c-1.052-0.26-5.436-1.636-7.549-2.633c-3.131-1.472-5.618-3.005-7.372-4.495
			c-1.757-1.49,5.101,0.367,8.674,2.004C343.472,162.218,350.272,166.723,346.145,165.711z"/>
		<path fill="#A20F20" d="M354.078,136.524c0,0,2.608,3.079,4.435,6.28c1.825,3.2,3.331,7.057,3.331,7.057s1.033-3.747-2.274-8.903
			C356.262,135.809,354.078,136.524,354.078,136.524z"/>
		<path fill="#A20F20" d="M344.989,128.315c0,0-2.263-1.565-5.77-2.749c-3.505-1.186-6.783-0.878-6.783-0.878
			s4.022-1.454,8.105-0.242C344.625,125.657,344.989,128.315,344.989,128.315z"/>
		<path fill="#CB5C49" d="M358.14,129.599c-1.324-1.092-5.965-4.289-9.988-5.625c-3.424-1.135,2.708,2.989,4.625,4.033
			C354.695,129.05,361.551,132.405,358.14,129.599z"/>
		<path fill="#CB5C49" d="M350.835,135.997c-1.393-1.829-4.447-4.585-7.193-6.206c-2.748-1.62-4.142-2.132-5.157-2.306
			c-1.013-0.176,3.713,3.401,6.469,5.328C348.12,135.027,351.823,137.292,350.835,135.997z"/>
		<path fill="#CB5C49" d="M356.8,143.177c-0.941-1.478-2.641-3.938-3.341-4.228c-0.704-0.287,1.095,3.323,2.427,5.157
			c1.333,1.836,3.337,4.621,3.285,3.841C359.118,147.166,358.098,145.217,356.8,143.177z"/>
	</g>
</g>
</svg>
