<?xml version="1.0" encoding="utf-8"?>
<!-- Generator: Adobe Illustrator 16.0.0, SVG Export Plug-In . SVG Version: 6.00 Build 0)  -->
<!DOCTYPE svg PUBLIC "-//W3C//DTD SVG 1.1//EN" "http://www.w3.org/Graphics/SVG/1.1/DTD/svg11.dtd">
<svg version="1.1" id="Layer_1" xmlns="http://www.w3.org/2000/svg" xmlns:xlink="http://www.w3.org/1999/xlink" x="0px" y="0px"
	 width="60.508px" height="40.339px" viewBox="0 0 60.508 40.339" enable-background="new 0 0 60.508 40.339" xml:space="preserve">
<g>
	<g>
		<path fill="#97AF63" d="M53.369,24.556c0.023-4.938-8.998-8.952-20.136-8.981c-11.144-0.02-20.195,3.959-20.215,8.894
			c0,0.072-0.004,0.226-0.007,0.232c-0.014,6.275,9.003,11.389,20.142,11.43c11.146,0.031,20.191-5.021,20.211-11.296
			C53.362,24.832,53.369,24.646,53.369,24.556z"/>
		<path fill="#F2F2F2" d="M3.35,24.077c-0.018,4.918,8.963,8.922,20.061,8.947c11.102,0.021,20.115-3.942,20.139-8.86
			c0.022-4.918-8.966-8.917-20.062-8.947C12.387,15.2,3.373,19.161,3.35,24.077z"/>
		<g>
			<path fill="#F2F2F2" d="M23.435,35.033c4.245,0.009,7.695-1.684,7.704-3.647l-15.376-0.033
				C15.755,33.317,19.191,35.022,23.435,35.033z"/>
		</g>
		<path fill="#D9D9D9" d="M31.139,31.386c-0.009,1.964-3.459,3.656-7.704,3.647c-4.244-0.011-7.68-1.716-7.672-3.681v1.021
			c-0.008,1.964,3.428,3.673,7.672,3.684c4.245,0.006,7.695-1.686,7.704-3.649V31.386z"/>
		<path fill="#BFBFBF" d="M4.308,23.569c-0.017,4.684,8.536,8.497,19.104,8.521c10.575,0.021,19.16-3.754,19.181-8.438
			c0.021-4.685-8.539-8.493-19.105-8.521C12.915,15.113,4.329,18.888,4.308,23.569z"/>
		<path fill="#F2F2F2" d="M4.308,22.61c-0.017,4.687,8.536,8.497,19.104,8.522c10.575,0.02,19.16-3.755,19.181-8.437
			c0.021-4.685-8.539-8.493-19.105-8.521C12.915,14.156,4.329,17.931,4.308,22.61z"/>
		<path fill="#CCCCCC" d="M25.37,34.916c3.313-0.412,5.761-1.874,5.77-3.53l-14.43-0.031C18.958,32.939,21.941,34.183,25.37,34.916z
			"/>
		<g>
			<path fill="#F2F2F2" d="M23.437,33.603c3.766,0.009,6.826-1.334,6.833-3.005l-13.641-0.03
				C16.625,32.238,19.67,33.594,23.437,33.603z"/>
		</g>
		<linearGradient id="SVGID_1_" gradientUnits="userSpaceOnUse" x1="16.6294" y1="32.2168" x2="30.27" y2="32.2168">
			<stop  offset="0" style="stop-color:#8B9299"/>
			<stop  offset="1" style="stop-color:#5D6266"/>
		</linearGradient>
		<path fill="url(#SVGID_1_)" d="M16.629,30.567c-0.005,1.671,3.041,3.026,6.808,3.035c3.766,0.009,6.826-1.334,6.833-3.005v0.264
			c-0.007,1.668-3.067,3.011-6.833,3.005c-3.767-0.011-6.813-1.366-6.808-3.037V30.567z"/>
		<path fill="#D9D9D9" d="M16.629,30.567c-0.005,1.671,3.041,3.026,6.808,3.035c3.766,0.009,6.826-1.334,6.833-3.005v0.976
			c-0.007,1.668-3.067,3.014-6.833,3.007c-3.767-0.011-6.813-1.366-6.808-3.037V30.567z"/>
		<g>
			<path fill="#F04B52" d="M41.55,13.82c0.006-1.16-0.519-2.282-1.556-3.325C37.128,7.606,30.7,5.728,23.618,5.709
				c-0.024,0-0.048,0-0.072,0c-4.746,0-9.213,0.817-12.582,2.299c-3.439,1.514-5.338,3.55-5.349,5.736l0,0
				c-0.003,1.163,0.522,2.284,1.562,3.33c0.117,0.119,0.241,0.234,0.37,0.349c0.014,0.013,0.028,0.027,0.041,0.043
				c0.117,0.119,0.238,0.231,0.368,0.344c0.015,0.018,0.029,0.032,0.046,0.049c0.116,0.117,0.238,0.232,0.368,0.347
				c0.015,0.015,0.027,0.03,0.044,0.045c0.113,0.116,0.235,0.229,0.364,0.342c0.015,0.017,0.031,0.034,0.048,0.051
				c0.111,0.113,0.234,0.228,0.362,0.338c0.015,0.018,0.032,0.034,0.05,0.054c0.114,0.112,0.233,0.223,0.359,0.336
				c0.016,0.017,0.035,0.036,0.051,0.055c0.113,0.113,0.233,0.224,0.357,0.334c0.018,0.02,0.037,0.038,0.055,0.058
				c0.112,0.112,0.231,0.221,0.355,0.329c0.018,0.021,0.038,0.043,0.058,0.063c0.109,0.108,0.226,0.217,0.348,0.323
				c0.021,0.023,0.043,0.045,0.064,0.068c0.109,0.108,0.222,0.215,0.342,0.32c0.022,0.023,0.046,0.047,0.07,0.072
				c0.106,0.106,0.219,0.211,0.34,0.313c0.021,0.025,0.046,0.054,0.072,0.077c2.078,2.091,6.727,3.449,11.848,3.46
				c0.018,0,0.038,0,0.058,0c3.433,0,6.665-0.589,9.101-1.662c1.216-0.533,2.165-1.158,2.82-1.845
				c0.146-0.126,0.282-0.255,0.408-0.385c0.146-0.128,0.282-0.257,0.407-0.387c0.146-0.126,0.28-0.258,0.407-0.385
				c0.146-0.128,0.281-0.257,0.408-0.39c0.145-0.123,0.279-0.252,0.407-0.384c0.144-0.128,0.278-0.255,0.408-0.385
				c0.145-0.128,0.279-0.258,0.406-0.387c0.145-0.128,0.28-0.255,0.408-0.385c0.146-0.128,0.28-0.258,0.408-0.39
				c0.145-0.123,0.28-0.252,0.407-0.387C40.875,16.362,41.544,15.117,41.55,13.82z M7.442,14.403
				c0.028,0.116,0.062,0.233,0.103,0.346c-0.081,0.294-0.124,0.594-0.124,0.896l0,0c-0.001,0.091,0.005,0.185,0.011,0.276
				c-0.061-0.249-0.09-0.498-0.089-0.751C7.344,14.913,7.379,14.656,7.442,14.403z M39.823,15.24
				c-0.001,0.242-0.032,0.484-0.087,0.725c0.004-0.083,0.008-0.165,0.008-0.248c0.006-0.48-0.094-0.952-0.292-1.414
				c0.029-0.155,0.047-0.31,0.054-0.47C39.717,14.295,39.825,14.765,39.823,15.24z M39.38,15.714c0,0.258-0.036,0.515-0.102,0.77
				c0.01-0.098,0.015-0.197,0.015-0.295c0.001-0.332-0.046-0.661-0.144-0.984c0.046-0.098,0.087-0.195,0.127-0.293
				C39.346,15.175,39.381,15.444,39.38,15.714z M8.231,15.982c0.039,0.051,0.081,0.104,0.127,0.157
				c-0.022,0.15-0.035,0.302-0.035,0.457l0,0c0,0.119,0.006,0.237,0.02,0.358c-0.079-0.273-0.118-0.552-0.118-0.835
				C8.225,16.073,8.226,16.026,8.231,15.982z M38.941,16.187c0,0.275-0.041,0.548-0.118,0.815c0.015-0.114,0.02-0.228,0.02-0.34
				c0.001-0.266-0.031-0.529-0.094-0.79c0.05-0.07,0.1-0.143,0.146-0.213C38.926,15.833,38.942,16.01,38.941,16.187z M8.669,16.483
				c0.046,0.047,0.093,0.094,0.14,0.139c-0.021,0.148-0.034,0.3-0.035,0.45l0,0c0,0.132,0.009,0.266,0.024,0.397
				c-0.088-0.287-0.132-0.58-0.132-0.873C8.667,16.558,8.667,16.522,8.669,16.483z M38.5,16.66
				c-0.002,0.289-0.048,0.573-0.134,0.856c0.016-0.128,0.024-0.255,0.026-0.383c0-0.246-0.027-0.488-0.085-0.729
				c0.056-0.06,0.109-0.119,0.159-0.179C38.489,16.369,38.5,16.516,38.5,16.66z M9.113,16.902c0.053,0.045,0.104,0.089,0.158,0.134
				c-0.028,0.168-0.045,0.338-0.046,0.513l0,0c0,0.145,0.011,0.291,0.031,0.436c-0.1-0.302-0.15-0.606-0.15-0.912
				C9.106,17.015,9.111,16.958,9.113,16.902z M9.547,17.549c0.002-0.096,0.006-0.189,0.017-0.283c0.06,0.045,0.119,0.089,0.18,0.134
				c-0.042,0.204-0.065,0.412-0.066,0.623l0,0c-0.003,0.143,0.01,0.285,0.028,0.427c-0.003-0.004-0.007-0.006-0.01-0.008
				C9.597,18.147,9.547,17.849,9.547,17.549z M38.059,17.134c-0.002,0.302-0.053,0.6-0.151,0.895
				c0.021-0.138,0.031-0.278,0.033-0.42c0-0.254-0.029-0.504-0.093-0.753c0.06-0.056,0.119-0.108,0.176-0.163
				C38.046,16.839,38.059,16.985,38.059,17.134z M37.618,17.608c-0.003,0.293-0.052,0.584-0.146,0.869
				c-0.004,0.002-0.009,0.006-0.013,0.008c0.02-0.134,0.028-0.27,0.03-0.403c0-0.28-0.038-0.56-0.114-0.833
				c0.066-0.054,0.13-0.103,0.194-0.155C37.601,17.264,37.618,17.436,37.618,17.608z M9.988,18.022
				c0.003-0.143,0.015-0.285,0.039-0.428c0.068,0.045,0.139,0.092,0.21,0.137c-0.071,0.25-0.107,0.508-0.108,0.765l0,0
				c-0.002,0.062,0.001,0.121,0.007,0.183c-0.026-0.01-0.051-0.025-0.072-0.036C10.012,18.438,9.988,18.229,9.988,18.022z
				 M37.175,18.08c0,0.199-0.024,0.399-0.069,0.595c-0.025,0.013-0.05,0.025-0.072,0.038c0.003-0.053,0.004-0.106,0.004-0.157
				c0.002-0.323-0.052-0.642-0.158-0.954c0.075-0.049,0.148-0.103,0.221-0.153C37.151,17.657,37.178,17.867,37.175,18.08z
				 M10.43,18.498c0-0.204,0.026-0.401,0.075-0.601c0.08,0.049,0.16,0.095,0.241,0.14c-0.101,0.285-0.157,0.574-0.165,0.869
				c-0.043-0.021-0.085-0.044-0.128-0.063C10.438,18.728,10.43,18.613,10.43,18.498z M36.734,18.554
				c0,0.108-0.008,0.215-0.021,0.321c-0.044,0.021-0.085,0.042-0.128,0.063c-0.008-0.342-0.08-0.68-0.22-1.012
				c0.086-0.049,0.169-0.102,0.251-0.153C36.696,18.031,36.737,18.292,36.734,18.554z M10.872,18.973
				c0.001-0.269,0.047-0.531,0.133-0.791c2.943,1.59,7.403,2.61,12.396,2.62c5.162,0.011,9.76-1.056,12.709-2.725
				c0.123,0.311,0.186,0.63,0.184,0.95c0,0.015-0.001,0.032-0.002,0.047c-0.083,0.038-0.167,0.077-0.253,0.115
				c-3.316,1.458-7.724,2.261-12.412,2.261c-0.026,0-0.054,0-0.078,0c-4.872-0.013-9.421-0.909-12.674-2.408
				C10.873,19.02,10.872,18.998,10.872,18.973z M7.925,15.544c-0.035,0.189-0.054,0.383-0.054,0.576l0,0
				c0,0.106,0.005,0.211,0.015,0.316c-0.068-0.261-0.101-0.524-0.101-0.79c0-0.106,0.005-0.213,0.016-0.314
				C7.84,15.401,7.882,15.474,7.925,15.544z M40.189,15.43c0.005-0.062,0.007-0.123,0.007-0.188c0.005-0.79-0.256-1.558-0.777-2.295
				c-0.068-0.291-0.177-0.578-0.326-0.86c0.781,0.854,1.176,1.755,1.171,2.68C40.261,14.989,40.237,15.211,40.189,15.43z
				 M7.358,13.558c-0.255,0.522-0.386,1.063-0.389,1.61l0,0c-0.001,0.072,0.002,0.145,0.007,0.217
				c-0.051-0.228-0.076-0.459-0.075-0.688c0.004-0.633,0.193-1.254,0.561-1.852C7.4,13.079,7.366,13.317,7.358,13.558z
				 M40.643,14.904c0.002-0.042,0.004-0.091,0.004-0.136c0.006-1.105-0.49-2.168-1.476-3.158c-0.404-0.406-0.878-0.791-1.419-1.149
				c-0.859-0.746-2.006-1.416-3.373-1.979c2.094,0.748,3.801,1.717,4.924,2.848c0.934,0.939,1.405,1.938,1.401,2.962
				C40.705,14.499,40.682,14.703,40.643,14.904z M8.225,11.343c-1.111,1.026-1.703,2.166-1.707,3.352l0,0
				c0,0.053,0,0.106,0.003,0.157c-0.041-0.206-0.062-0.419-0.062-0.632c0.01-1.762,1.428-3.434,4.025-4.777
				C9.526,10.017,8.762,10.656,8.225,11.343z M39.582,11.052c-2.795-2.814-9.063-4.644-15.964-4.665c-0.024,0-0.048,0-0.072,0
				c-4.627,0-8.981,0.797-12.266,2.24c-3.352,1.475-5.204,3.46-5.214,5.591l0,0c0,0.034,0,0.07,0.002,0.104
				c-0.032-0.191-0.049-0.385-0.048-0.576c0.009-2.017,1.82-3.923,5.107-5.368c3.316-1.46,7.723-2.262,12.418-2.262
				c0.023,0,0.048,0,0.072,0c6.979,0.018,13.296,1.85,16.09,4.663c0.958,0.965,1.444,1.987,1.438,3.039
				c0,0.191-0.018,0.376-0.05,0.562c0.002-0.025,0.003-0.056,0.003-0.085C41.104,13.162,40.593,12.069,39.582,11.052z"/>
		</g>
		<path fill="#CCCCCC" d="M16.641,30.748c1.588,1.131,3.55,2.094,5.777,2.82c0.332,0.023,0.672,0.034,1.019,0.034
			c3.766,0.009,6.826-1.334,6.833-3.005l-13.641-0.03C16.629,30.63,16.634,30.687,16.641,30.748z"/>
		<path fill="#214E25" d="M11.41,17.181c0.02,0.013,0.037,0.025,0.057,0.041c0.005,0.002,0.012,0.008,0.016,0.01
			c-0.004-0.002-0.011-0.008-0.016-0.01c0.012,0.008,0.022,0.015,0.033,0.021c-0.005-0.004-0.011-0.006-0.018-0.011
			c0.007,0.005,0.013,0.007,0.018,0.011c0.065,0.047,0.132,0.092,0.201,0.136c0.009,0.007,0.017,0.014,0.024,0.018
			c0.072,0.047,0.147,0.092,0.222,0.141c0.278,0.168,0.577,0.333,0.892,0.49c0.083,0.043,0.169,0.083,0.254,0.123
			c0.013,0.007,0.025,0.014,0.039,0.02c0.081,0.04,0.166,0.079,0.25,0.115c0.016,0.008,0.033,0.015,0.047,0.023
			c0.085,0.035,0.171,0.074,0.259,0.11c0.106,0.044,0.212,0.087,0.321,0.13c0.077,0.031,0.158,0.061,0.235,0.093
			c0.021,0.009,0.042,0.015,0.061,0.021c0.082,0.029,0.161,0.06,0.243,0.089c0.32-2.482,3.895-4.571,8.86-5.455
			C17.786,13.296,13.022,14.924,11.41,17.181z"/>
		<path fill="#C1282D" d="M37.633,14.104c0.007-0.07,0.009-0.136,0.009-0.204c0-0.202-0.021-0.404-0.063-0.604l0,0
			c-0.011-0.053-0.023-0.104-0.035-0.155c0,0,0-0.002-0.004-0.004c-0.014-0.052-0.027-0.103-0.044-0.153
			c0,0-0.002-0.002-0.002-0.004c-0.094-0.291-0.235-0.576-0.417-0.853l0,0l0,0c-0.021-0.032-0.04-0.063-0.063-0.094
			c-0.004-0.011-0.014-0.019-0.021-0.032c-0.034-0.046-0.069-0.095-0.104-0.142c-0.013-0.018-0.026-0.032-0.039-0.052
			c-0.018-0.021-0.037-0.042-0.056-0.067c-0.022-0.028-0.045-0.054-0.068-0.081c-0.016-0.017-0.031-0.036-0.047-0.055
			c-0.033-0.039-0.065-0.075-0.101-0.111c-0.012-0.015-0.022-0.025-0.036-0.04c-0.041-0.042-0.082-0.085-0.127-0.13
			c-0.049-0.047-0.099-0.096-0.15-0.145l0,0l0,0c-0.415-0.382-0.913-0.746-1.488-1.084l0,0l0,0c-0.136-0.08-0.28-0.159-0.427-0.237
			c-0.006-0.003-0.012-0.007-0.016-0.009c-0.147-0.076-0.297-0.153-0.45-0.228c-0.006-0.002-0.011-0.006-0.017-0.009
			c-0.075-0.033-0.152-0.069-0.229-0.105h-0.002c-0.161-0.072-0.321-0.145-0.49-0.215c-0.006-0.002-0.014-0.005-0.021-0.011
			c-0.164-0.066-0.333-0.132-0.505-0.195c-0.008-0.005-0.015-0.009-0.022-0.011c-0.084-0.032-0.168-0.062-0.254-0.094
			c0,0-0.004-0.002-0.005-0.002c-0.179-0.063-0.358-0.125-0.541-0.183c-0.011-0.003-0.02-0.007-0.028-0.011
			c-0.182-0.058-0.367-0.115-0.555-0.168c-0.011-0.002-0.021-0.007-0.026-0.011c-0.092-0.025-0.185-0.051-0.276-0.076
			c-0.002,0-0.007-0.003-0.011-0.003c-2.158-0.593-4.699-0.941-7.422-0.945c-3.079-0.006-5.931,0.421-8.259,1.154l0,0l0,0
			c-0.093,0.029-0.186,0.06-0.278,0.089c-0.001,0-0.002,0-0.004,0c-0.091,0.032-0.178,0.062-0.266,0.094
			c-0.002,0-0.007,0-0.008,0.002c-0.087,0.03-0.175,0.06-0.259,0.094c-0.004,0-0.007,0-0.01,0.002
			c-0.084,0.03-0.169,0.063-0.253,0.096c-0.002,0-0.005,0-0.009,0.002c-0.084,0.032-0.167,0.063-0.246,0.098
			c-0.006,0.002-0.007,0.002-0.008,0.002c-0.083,0.032-0.164,0.066-0.244,0.103c-0.001,0-0.003,0-0.006,0
			c-0.08,0.036-0.16,0.07-0.239,0.106c-0.003,0-0.003,0-0.004,0.002c-0.078,0.034-0.158,0.07-0.234,0.106c-0.002,0-0.002,0-0.003,0
			c-0.079,0.038-0.155,0.074-0.231,0.11l0,0c-0.536,0.264-1.024,0.546-1.455,0.846l0,0l0,0c-0.479,0.329-0.887,0.685-1.218,1.057
			l0,0c-0.035,0.038-0.069,0.078-0.102,0.116c-0.019,0.021-0.034,0.043-0.05,0.062c-0.019,0.021-0.036,0.045-0.054,0.068
			c-0.019,0.021-0.036,0.043-0.054,0.065c-0.015,0.02-0.028,0.039-0.042,0.058c-0.02,0.025-0.035,0.052-0.056,0.077
			c-0.001,0.002-0.003,0.006-0.003,0.008c-0.046,0.066-0.088,0.13-0.13,0.198c-0.006,0.011-0.013,0.021-0.021,0.029
			c-0.019,0.034-0.037,0.063-0.054,0.096c-0.007,0.011-0.013,0.021-0.017,0.032c-0.14,0.251-0.245,0.506-0.312,0.767l0,0l0,0
			c-0.013,0.05-0.023,0.099-0.034,0.147c0,0.002,0,0.002,0,0.004c-0.011,0.047-0.02,0.096-0.026,0.145
			c-0.001,0-0.001,0.004-0.001,0.006c-0.008,0.047-0.015,0.094-0.019,0.145c0,0.003,0,0.005,0,0.005
			c-0.005,0.049-0.01,0.098-0.011,0.146l0,0l0,0c-0.003,0.042-0.003,0.079-0.003,0.119c-0.003,0.399,0.081,0.79,0.24,1.169l0,0l0,0
			c0.021,0.055,0.048,0.11,0.074,0.166c0.002,0.004,0.004,0.008,0.008,0.013c0.077,0.159,0.168,0.314,0.271,0.47l0,0l0,0
			c0.062,0.091,0.13,0.183,0.202,0.275l0,0l0,0c0.03,0.039,0.063,0.079,0.097,0.117l0,0c0.037,0.043,0.075,0.087,0.115,0.132
			c0.005,0.007,0.008,0.011,0.012,0.013l0,0c0.007,0.007,0.011,0.013,0.018,0.02c0.038,0.042,0.078,0.087,0.121,0.129
			c0.045,0.045,0.089,0.092,0.137,0.135c0.01,0.01,0.019,0.019,0.028,0.027c0.048,0.047,0.096,0.092,0.146,0.136
			c0.046,0.043,0.093,0.085,0.143,0.126c0.01,0.006,0.019,0.017,0.029,0.023c0.027,0.022,0.059,0.046,0.088,0.072l0,0
			c0.084,0.067,0.172,0.138,0.262,0.203c0.011,0.009,0.016,0.014,0.023,0.018l0,0c0,0,0,0,0,0.002
			c0.063,0.047,0.128,0.092,0.193,0.139c0.005,0.002,0.012,0.008,0.016,0.01c-0.004-0.002-0.011-0.008-0.016-0.01
			c0.012,0.008,0.022,0.015,0.033,0.021c-0.005-0.004-0.011-0.006-0.018-0.011c0.007,0.005,0.013,0.007,0.018,0.011
			c0.003,0.005,0.007,0.007,0.011,0.009l0,0c0.063,0.043,0.127,0.085,0.19,0.127c0.009,0.007,0.017,0.014,0.024,0.018
			c0.072,0.047,0.147,0.092,0.222,0.141c0.278,0.168,0.577,0.333,0.892,0.49c0.083,0.043,0.169,0.083,0.254,0.123
			c0.013,0.007,0.025,0.014,0.039,0.02c0.081,0.04,0.166,0.079,0.25,0.115c0.016,0.008,0.033,0.015,0.047,0.023
			c0.085,0.035,0.171,0.074,0.259,0.11c0.106,0.044,0.212,0.087,0.321,0.13c0.077,0.031,0.158,0.061,0.235,0.093
			c0.021,0.009,0.042,0.015,0.061,0.021c0.082,0.029,0.161,0.06,0.243,0.089c0.302-2.333,3.475-4.318,7.979-5.281
			c0.127-0.027,0.257-0.055,0.388-0.08c0.016-0.002,0.03-0.005,0.044-0.009c0.408-0.081,0.828-0.151,1.255-0.215
			c0.718-0.104,1.461-0.185,2.225-0.24l0,0c0.572-0.038,1.156-0.063,1.75-0.074l0,0c0.185-0.002,0.369-0.004,0.557-0.004
			c0.494,0.002,0.983,0.015,1.465,0.038c0.381,0.02,0.758,0.042,1.131,0.074c0.009,0,0.021,0.002,0.031,0.002
			c0.12,0.011,0.241,0.021,0.359,0.034l0,0c0.548,0.053,1.084,0.121,1.607,0.2l0,0c0.1,0.017,0.2,0.031,0.299,0.049
			c0.004,0,0.006,0.002,0.012,0.002c0.096,0.015,0.192,0.031,0.287,0.049c0.004,0,0.008,0,0.015,0.004
			c0.095,0.016,0.188,0.032,0.282,0.051c0.004,0,0.007,0,0.012,0c0.095,0.02,0.191,0.039,0.289,0.058
			c0.394,0.081,0.781,0.166,1.157,0.262c0.152,0.036,0.301,0.076,0.446,0.119c0.002,0,0.004,0,0.004,0
			c0.147,0.038,0.293,0.081,0.438,0.123c0.268,0.081,0.527,0.161,0.778,0.249l0,0c0.089,0.029,0.176,0.062,0.261,0.091
			c0.005-0.047,0.012-0.091,0.014-0.138C37.631,14.109,37.631,14.105,37.633,14.104z"/>
		<path fill="#1A723A" d="M23.527,15.646c-0.174,0-0.381,0.015-0.541,0.038c0.004-0.021-0.093-0.036-0.267-0.034
			c-0.175,0-0.383,0.015-0.542,0.038c0.003-0.021-0.094-0.036-0.268-0.033c-0.175,0-0.381,0.015-0.544,0.038
			c0.006-0.021-0.092-0.038-0.266-0.034c-0.173,0-0.382,0.015-0.542,0.038c0.006-0.021-0.091-0.038-0.267-0.036
			c-0.255,0.002-0.581,0.036-0.727,0.074c-0.078,0.021-0.09,0.043-0.04,0.054c-0.006,0.008-0.004,0.015,0.007,0.019
			c-0.184,0.016-0.364,0.036-0.462,0.064c-0.081,0.023-0.09,0.042-0.042,0.055c-0.006,0.007-0.003,0.013,0.008,0.018
			c-0.187,0.015-0.363,0.038-0.463,0.065c-0.079,0.021-0.089,0.04-0.041,0.056c-0.006,0.004-0.003,0.01,0.007,0.017
			c-0.185,0.015-0.364,0.038-0.463,0.063c-0.079,0.023-0.089,0.043-0.041,0.054c-0.023,0.027,0.074,0.044,0.264,0.044
			c0.175-0.002,0.382-0.019,0.544-0.04c-0.006,0.021,0.09,0.034,0.266,0.034c0.174,0,0.383-0.015,0.543-0.038
			c-0.005,0.021,0.092,0.036,0.266,0.036c0.175,0,0.384-0.018,0.544-0.043c-0.004,0.025,0.09,0.038,0.266,0.038
			c0.176-0.002,0.382-0.019,0.542-0.04c-0.003,0.021,0.094,0.036,0.267,0.036c0.255-0.002,0.581-0.034,0.727-0.076
			c0.079-0.02,0.09-0.041,0.04-0.054c0.008-0.006,0.004-0.013-0.006-0.017c0.184-0.015,0.363-0.038,0.461-0.066
			c0.079-0.021,0.091-0.04,0.041-0.055c0.006-0.005,0.005-0.013-0.006-0.018c0.186-0.013,0.365-0.036,0.462-0.063
			c0.08-0.021,0.089-0.04,0.041-0.053c0.007-0.009,0.004-0.013-0.008-0.02c0.187-0.013,0.365-0.036,0.463-0.063
			c0.079-0.021,0.091-0.043,0.041-0.056C23.814,15.661,23.717,15.645,23.527,15.646z"/>
		<polygon fill="#1A723A" points="19.449,15.854 16.586,15.854 16.506,15.914 16.446,15.959 19.449,15.959 		"/>
		<polygon fill="#CECECD" points="16.75,15.854 16.696,15.959 16.565,15.959 16.62,15.854 		"/>
		<path fill="#166835" d="M10.826,18.855c-0.013,3.084,5.62,5.594,12.581,5.61c6.966,0.013,12.621-2.472,12.634-5.558
			c0.014-3.083-5.622-5.593-12.585-5.612C16.493,13.285,10.837,15.77,10.826,18.855z"/>
		<g>
			<polygon fill="#219C48" points="12.932,24.184 10.016,24.184 15.446,14.516 17.168,14.516 			"/>
			<polygon fill="#1D8B43" points="15.557,24.184 12.64,24.184 16.997,14.516 18.717,14.516 			"/>
			<polygon fill="#219C48" points="18.181,24.184 15.264,24.184 18.547,14.516 20.269,14.516 			"/>
			<polygon fill="#1D8B43" points="20.806,24.184 17.89,24.184 20.098,14.516 21.821,14.516 			"/>
			<polygon fill="#219C48" points="23.43,24.184 20.514,24.184 21.647,14.516 23.371,14.516 			"/>
			<polygon fill="#1D8B43" points="26.056,24.184 23.138,24.184 23.198,14.516 24.921,14.516 			"/>
			<polygon fill="#219C48" points="28.68,24.184 25.764,24.184 24.75,14.516 26.472,14.516 			"/>
			<polygon fill="#1D8B43" points="31.303,24.184 28.387,24.184 26.299,14.516 28.021,14.516 			"/>
			<polygon fill="#219C48" points="33.928,24.184 31.012,24.184 27.849,14.516 29.573,14.516 			"/>
			<polygon fill="#1D8B43" points="36.554,24.184 33.637,24.184 29.399,14.516 31.125,14.516 			"/>
			<g>
				<rect x="23.218" y="14.792" fill="#FFFFFF" width="0.134" height="8.535"/>
			</g>
			<g>
				<path fill="#1B6935" d="M15.446,14.516l-1.033,1.839c0.618-0.67,1.455-1.288,2.475-1.839H15.446z"/>
				<path fill="#208240" d="M13.237,18.662c0.015-0.106,0.033-0.21,0.058-0.316l-0.156,0.28
					C13.169,18.639,13.204,18.649,13.237,18.662z"/>
			</g>
			<path fill="none" d="M16.887,14.516c-1.02,0.551-1.856,1.169-2.475,1.839l1.033-1.839H16.887z M13.237,18.662
				c0.015-0.106,0.033-0.21,0.058-0.316l-0.156,0.28C13.169,18.639,13.204,18.649,13.237,18.662z"/>
			<path fill="#FFFFFF" d="M35.137,23.476l-1.218-2.369l0,0l-0.882-1.716l0,0l-0.511-0.992l-1.334-2.597l0,0L30.626,14.7H15.943
				l-0.567,1.102l0,0l-1.333,2.597l-0.512,0.992l0,0l-0.882,1.716l0,0l-1.218,2.369H35.137z M29.73,19.145
				c-0.599-0.247-1.042-0.65-1.169-1.08c-0.118-0.393,0.055-0.737,0.463-0.931L29.73,19.145z M28.748,15.936h2.364l0.509,0.988
				h-1.226l1.083,2.467h1.409l0.812,1.582h-3.186L28.748,15.936z M32.819,19.257h-1.254l-0.964-2.197h1.086L32.819,19.257z
				 M17.544,17.134c0.407,0.193,0.58,0.538,0.464,0.931c-0.129,0.43-0.571,0.833-1.17,1.08L17.544,17.134z M16.056,20.973H12.87
				l0.813-1.582h1.409l1.084-2.467H14.95l0.508-0.988h2.364L16.056,20.973z M14.881,17.06h1.089l-0.968,2.197h-1.25L14.881,17.06z
				 M16.152,21.106l0.636-1.813c0.681-0.255,1.189-0.71,1.334-1.196c0.136-0.45-0.072-0.858-0.538-1.077l0.428-1.218h-2.484
				l0.497-0.965h14.521l0.497,0.965h-2.485l0.428,1.218c-0.466,0.219-0.674,0.627-0.538,1.077c0.145,0.486,0.656,0.941,1.336,1.196
				l0.636,1.813h3.349l1.15,2.235H11.651l1.15-2.235H16.152z M23.284,19.678c0.713,0,1.362-0.255,1.742-0.68
				c0.245-0.274,0.355-0.595,0.319-0.925c-0.088-0.763-0.992-1.36-2.062-1.36c-1.066,0-1.972,0.598-2.061,1.36
				c-0.037,0.33,0.074,0.65,0.321,0.925C21.923,19.423,22.573,19.678,23.284,19.678z M21.36,18.088
				c0.078-0.696,0.925-1.241,1.924-1.241c1.002,0,1.847,0.545,1.928,1.241c0.032,0.292-0.065,0.574-0.286,0.82
				c-0.354,0.397-0.967,0.634-1.642,0.634c-0.672,0-1.285-0.236-1.64-0.634C21.425,18.662,21.325,18.38,21.36,18.088z M16.71,18.08
				c-0.025,0.069-0.131,0.129-0.229,0.129c-0.101,0-0.158-0.06-0.132-0.129c0.028-0.068,0.132-0.124,0.229-0.124
				C16.678,17.956,16.737,18.012,16.71,18.08z M30.219,18.08c0.028,0.069-0.03,0.129-0.129,0.129c-0.103,0-0.204-0.06-0.23-0.129
				c-0.027-0.068,0.031-0.124,0.129-0.124C30.09,17.956,30.193,18.012,30.219,18.08z"/>
			<path fill="#CECECD" d="M15.639,15.287c0.076-0.053,0.155-0.108,0.235-0.161l0.149-0.289h0.306
				c0.073-0.047,0.151-0.092,0.226-0.137h-0.612L15.639,15.287z"/>
		</g>
		<path fill="#CCCCCC" d="M42.327,14.794c0.019-4.618-8.42-8.373-18.84-8.401C13.061,6.372,4.592,10.095,4.574,14.714
			c0,0.065-0.002,0.21-0.006,0.216c-0.013,5.87,8.423,10.656,18.844,10.692c10.428,0.032,18.892-4.696,18.909-10.566
			C42.319,15.052,42.327,14.881,42.327,14.794z M23.422,20.449c-7.729-0.019-13.979-2.803-13.968-6.229
			c0.013-3.421,6.293-6.182,14.023-6.167c7.725,0.017,13.982,2.804,13.968,6.228C37.429,17.704,31.154,20.464,23.422,20.449z"/>
		<path fill="#8B9299" d="M4.712,22.438c-0.018,4.587,8.355,8.316,18.699,8.342c10.352,0.02,18.754-3.675,18.774-8.259
			c0.021-4.586,0-6.216,0-6.216l-18.834,7.021l-18.64-7.021C4.712,16.306,4.719,20.772,4.712,22.438z"/>
		<polygon fill="#757B7F" points="28.625,29.235 28.625,29.229 28.625,29.104 28.625,28.668 28.625,28.542 28.625,28.106 
			28.625,27.981 28.625,27.548 28.625,27.42 28.625,26.984 28.625,26.859 28.625,26.424 28.625,26.298 28.625,25.864 28.625,25.737 
			28.625,25.302 28.625,25.178 28.625,24.74 28.625,24.615 28.625,24.179 28.625,23.474 18.293,23.474 18.293,24.167 18.293,24.601 
			18.293,24.726 18.293,25.159 18.293,25.286 18.293,25.72 18.293,25.848 18.293,26.283 18.293,26.411 18.293,26.845 18.293,26.97 
			18.293,27.405 18.293,27.53 18.293,27.964 18.293,28.092 18.293,28.525 18.293,28.653 18.293,29.089 18.293,29.216 18.293,29.235 
			18.237,29.235 18.237,30.587 23.412,31.133 28.642,30.587 28.642,29.235 		"/>
		<g>
			<path fill="#F2F2F2" d="M24.119,33.082c0-0.092-0.002-7.099-0.002-7.099l-1.387,0.002c0,0-0.002,6.963-0.002,7.097
				s0.311,0.242,0.696,0.242C23.808,33.324,24.119,33.216,24.119,33.082z"/>
		</g>
		<g>
			<path fill="#F2F2F2" d="M27.091,32.648c0-0.094-0.002-7.099-0.002-7.099h-1.388c0,0-0.002,6.965-0.002,7.099
				s0.31,0.242,0.693,0.242C26.779,32.891,27.091,32.782,27.091,32.648z"/>
		</g>
		<g>
			<path fill="#F2F2F2" d="M29.463,31.299c0-0.096-0.004-7.099-0.004-7.099h-1.388c0,0,0,6.963,0,7.099
				c0,0.132,0.31,0.24,0.695,0.24C29.15,31.539,29.463,31.431,29.463,31.299z"/>
		</g>
		<g>
			<path fill="#F2F2F2" d="M21.147,32.61c0-0.092-0.002-7.097-0.002-7.097h-1.388c0,0,0,6.963,0,7.097s0.31,0.242,0.695,0.242
				C20.836,32.853,21.147,32.744,21.147,32.61z"/>
		</g>
		<g>
			<path fill="#F2F2F2" d="M18.784,31.313c0-0.094-0.003-7.098-0.003-7.098l-1.39,0.002c0,0,0,6.962,0,7.096
				c0,0.132,0.312,0.242,0.695,0.242S18.784,31.445,18.784,31.313z"/>
		</g>
		<path fill="#BFBFBF" d="M43.625,14.862c0.023-4.936-8.996-8.949-20.137-8.978C12.345,5.864,3.294,9.842,3.273,14.777
			c0,0.072-0.002,0.228-0.003,0.231c-0.017,6.275,9.002,11.39,20.141,11.428c11.144,0.036,20.191-5.016,20.21-11.294
			C43.619,15.139,43.625,14.953,43.625,14.862z M23.422,20.666c-7.836-0.019-14.178-2.846-14.163-6.318
			c0.014-3.471,6.38-6.27,14.219-6.255c7.834,0.02,14.18,2.844,14.164,6.318C37.627,17.882,31.261,20.679,23.422,20.666z"/>
		<path fill="#F2F2F2" d="M43.625,14.354c0.023-4.938-8.996-8.952-20.137-8.981C12.345,5.354,3.294,9.33,3.273,14.267
			c0,0.072-0.002,0.226-0.003,0.232c-0.017,6.275,9.002,11.389,20.141,11.43c11.144,0.031,20.191-5.021,20.21-11.298
			C43.619,14.631,43.625,14.443,43.625,14.354z M23.422,20.156c-7.836-0.02-14.178-2.846-14.163-6.318
			c0.014-3.473,6.38-6.27,14.219-6.255c7.834,0.02,14.18,2.844,14.164,6.316C37.627,17.374,31.261,20.169,23.422,20.156z"/>
		<g>
			<polygon fill="#343434" points="12.953,18.024 13.428,17.746 13.428,10.828 12.953,11.104 			"/>
			<polygon fill="#5A5A5A" points="12.53,10.864 12.53,17.782 12.953,18.024 12.953,11.104 			"/>
			<polygon fill="#737373" points="12.53,10.864 13.004,10.586 13.428,10.828 12.953,11.104 			"/>
		</g>
		<g>
			<polygon fill="#5A5A5A" points="33.878,18.024 33.402,17.746 33.402,10.828 33.878,11.104 			"/>
			<polygon fill="#5A5A5A" points="34.304,10.864 34.304,17.782 33.878,18.024 33.878,11.104 			"/>
			<polygon fill="#737373" points="34.304,10.864 33.828,10.586 33.402,10.828 33.878,11.104 			"/>
		</g>
		<path fill="#FCFCFC" d="M43.625,14.354c0.023-4.938-8.996-8.952-20.137-8.981c-0.025,0-0.053,0-0.081,0
			c-11.106,0-20.112,3.97-20.134,8.894c0,0.072-0.002,0.226-0.003,0.232c-0.017,6.275,9.002,11.389,20.141,11.43
			c0.035,0,0.073,0,0.11,0c11.094,0,20.081-5.039,20.1-11.298C43.619,14.631,43.625,14.443,43.625,14.354z M42.602,14.503
			C42.6,14.541,42.6,14.584,42.6,14.628l0,0c-0.004,1.303-0.47,2.583-1.382,3.796c-0.928,1.23-2.273,2.345-3.993,3.312
			c-1.764,0.99-3.823,1.768-6.122,2.314c-2.398,0.567-4.949,0.856-7.582,0.856c-0.037,0-0.072,0-0.108,0
			c-2.643-0.009-5.203-0.309-7.61-0.891c-2.311-0.559-4.375-1.35-6.142-2.351c-1.728-0.981-3.072-2.108-3.999-3.35
			c-0.908-1.216-1.37-2.49-1.373-3.791c0.005-0.079,0.005-0.164,0.006-0.253c0.003-0.936,0.444-1.864,1.309-2.765
			c0.91-0.95,2.291-1.85,3.992-2.6c1.774-0.784,3.852-1.402,6.171-1.834c2.417-0.453,4.987-0.681,7.641-0.681h0.08
			c3.888,0.009,7.641,0.519,10.85,1.471c1.528,0.453,2.899,0.997,4.074,1.615c1.151,0.608,2.09,1.273,2.791,1.979
			c0.936,0.942,1.408,1.915,1.403,2.891C42.605,14.384,42.604,14.452,42.602,14.503z"/>
		<g>
			<path fill="#343434" d="M29.463,12.335H17.372V6.929h12.092V12.335z"/>
			<g>
				<circle fill="#85152F" cx="24.811" cy="11.334" r="0.362"/>
				<circle fill="#85152F" cx="25.676" cy="10.484" r="0.361"/>
				<circle fill="#85152F" cx="27.406" cy="10.484" r="0.361"/>
				<circle fill="#85152F" cx="28.272" cy="11.334" r="0.361"/>
				<path fill="#85152F" d="M24.449,7.93c0-0.202,0.163-0.363,0.361-0.363c0.199,0,0.362,0.161,0.362,0.363
					c0,0.197-0.163,0.359-0.362,0.359C24.612,8.289,24.449,8.127,24.449,7.93z"/>
				<path fill="#85152F" d="M25.315,9.634c0-0.204,0.162-0.363,0.362-0.363c0.198,0,0.36,0.159,0.36,0.363
					c0,0.197-0.162,0.359-0.36,0.359C25.477,9.993,25.315,9.831,25.315,9.634z"/>
				<circle fill="#85152F" cx="27.406" cy="8.779" r="0.361"/>
				<path fill="#85152F" d="M27.044,9.634c0-0.204,0.161-0.363,0.362-0.363c0.202,0,0.36,0.159,0.36,0.363
					c0,0.197-0.158,0.359-0.36,0.359C27.206,9.993,27.044,9.831,27.044,9.634z"/>
				<circle fill="#85152F" cx="24.811" cy="8.779" r="0.362"/>
				<path fill="#85152F" d="M24.449,9.634c0-0.204,0.163-0.363,0.361-0.363c0.199,0,0.362,0.159,0.362,0.363
					c0,0.197-0.163,0.359-0.362,0.359C24.612,9.993,24.449,9.831,24.449,9.634z"/>
				<circle fill="#85152F" cx="24.811" cy="10.484" r="0.362"/>
				<circle fill="#85152F" cx="28.272" cy="8.779" r="0.361"/>
				<path fill="#85152F" d="M27.911,9.634c0-0.204,0.161-0.363,0.361-0.363c0.201,0,0.361,0.159,0.361,0.363
					c0,0.197-0.16,0.359-0.361,0.359C28.072,9.993,27.911,9.831,27.911,9.634z"/>
				<circle fill="#85152F" cx="28.272" cy="10.484" r="0.361"/>
				<path fill="#85152F" d="M25.315,7.93c0-0.202,0.162-0.363,0.362-0.363c0.198,0,0.36,0.161,0.36,0.363
					c0,0.197-0.162,0.359-0.36,0.359C25.477,8.289,25.315,8.127,25.315,7.93z"/>
				<path fill="#85152F" d="M27.044,7.93c0-0.202,0.161-0.363,0.362-0.363c0.202,0,0.36,0.161,0.36,0.363
					c0,0.197-0.158,0.359-0.36,0.359C27.206,8.289,27.044,8.127,27.044,7.93z"/>
				<circle fill="#85152F" cx="25.676" cy="11.334" r="0.361"/>
				<g>
					<circle fill="#F8EB32" cx="26.541" cy="10.484" r="0.362"/>
					<circle fill="#F8EB32" cx="25.676" cy="8.779" r="0.361"/>
					<circle fill="#F8EB32" cx="26.541" cy="8.779" r="0.362"/>
					<path fill="#F8EB32" d="M26.178,9.634c0-0.204,0.163-0.363,0.362-0.363c0.2,0,0.362,0.159,0.362,0.363
						c0,0.197-0.162,0.359-0.362,0.359C26.341,9.993,26.178,9.831,26.178,9.634z"/>
					<path fill="#F8EB32" d="M26.178,7.93c0-0.202,0.163-0.363,0.362-0.363c0.2,0,0.362,0.161,0.362,0.363
						c0,0.197-0.162,0.359-0.362,0.359C26.341,8.289,26.178,8.127,26.178,7.93z"/>
					<circle fill="#F8EB32" cx="26.541" cy="11.334" r="0.362"/>
				</g>
				<circle fill="#85152F" cx="27.406" cy="11.334" r="0.361"/>
				<path fill="#85152F" d="M27.911,7.93c0-0.202,0.161-0.363,0.361-0.363c0.201,0,0.361,0.161,0.361,0.363
					c0,0.197-0.16,0.359-0.361,0.359C28.072,8.289,27.911,8.127,27.911,7.93z"/>
			</g>
			<g>
				<circle fill="#85152F" cx="18.56" cy="11.334" r="0.362"/>
				<circle fill="#85152F" cx="19.425" cy="10.484" r="0.362"/>
				<circle fill="#85152F" cx="21.156" cy="10.484" r="0.362"/>
				<circle fill="#85152F" cx="22.021" cy="11.334" r="0.361"/>
				<path fill="#85152F" d="M18.198,7.93c0-0.202,0.162-0.363,0.361-0.363s0.362,0.161,0.362,0.363c0,0.197-0.163,0.359-0.362,0.359
					S18.198,8.127,18.198,7.93z"/>
				<path fill="#85152F" d="M19.063,9.634c0-0.204,0.161-0.363,0.362-0.363s0.362,0.159,0.362,0.363
					c0,0.197-0.161,0.359-0.362,0.359S19.063,9.831,19.063,9.634z"/>
				<circle fill="#85152F" cx="21.156" cy="8.779" r="0.362"/>
				<path fill="#85152F" d="M20.793,9.634c0-0.204,0.162-0.363,0.362-0.363c0.199,0,0.362,0.159,0.362,0.363
					c0,0.197-0.163,0.359-0.362,0.359C20.956,9.993,20.793,9.831,20.793,9.634z"/>
				<circle fill="#85152F" cx="20.292" cy="10.484" r="0.362"/>
				<circle fill="#85152F" cx="19.425" cy="8.779" r="0.362"/>
				<circle fill="#85152F" cx="20.292" cy="8.779" r="0.362"/>
				<path fill="#85152F" d="M19.929,9.634c0-0.204,0.162-0.363,0.362-0.363s0.362,0.159,0.362,0.363
					c0,0.197-0.162,0.359-0.362,0.359S19.929,9.831,19.929,9.634z"/>
				<g>
					<circle fill="#F8EB32" cx="18.56" cy="8.779" r="0.362"/>
					<path fill="#F8EB32" d="M18.198,9.634c0-0.204,0.162-0.363,0.361-0.363s0.362,0.159,0.362,0.363
						c0,0.197-0.163,0.359-0.362,0.359S18.198,9.831,18.198,9.634z"/>
					<circle fill="#F8EB32" cx="18.56" cy="10.484" r="0.362"/>
					<circle fill="#F8EB32" cx="22.021" cy="8.779" r="0.361"/>
					<path fill="#F8EB32" d="M21.661,9.634c0-0.204,0.162-0.363,0.359-0.363c0.201,0,0.362,0.159,0.362,0.363
						c0,0.197-0.161,0.359-0.362,0.359C21.823,9.993,21.661,9.831,21.661,9.634z"/>
					<circle fill="#F8EB32" cx="22.021" cy="10.484" r="0.361"/>
					<path fill="#F8EB32" d="M19.063,7.93c0-0.202,0.161-0.363,0.362-0.363s0.362,0.161,0.362,0.363
						c0,0.197-0.161,0.359-0.362,0.359S19.063,8.127,19.063,7.93z"/>
					<path fill="#F8EB32" d="M20.793,7.93c0-0.202,0.162-0.363,0.362-0.363c0.199,0,0.362,0.161,0.362,0.363
						c0,0.197-0.163,0.359-0.362,0.359C20.956,8.289,20.793,8.127,20.793,7.93z"/>
					<circle fill="#F8EB32" cx="19.425" cy="11.334" r="0.362"/>
					<path fill="#F8EB32" d="M19.929,7.93c0-0.202,0.162-0.363,0.362-0.363s0.362,0.161,0.362,0.363
						c0,0.197-0.162,0.359-0.362,0.359S19.929,8.127,19.929,7.93z"/>
					<circle fill="#F8EB32" cx="20.292" cy="11.334" r="0.362"/>
					<circle fill="#F8EB32" cx="21.156" cy="11.334" r="0.362"/>
				</g>
				<path fill="#85152F" d="M21.661,7.93c0-0.202,0.162-0.363,0.359-0.363c0.201,0,0.362,0.161,0.362,0.363
					c0,0.197-0.161,0.359-0.362,0.359C21.823,8.289,21.661,8.127,21.661,7.93z"/>
			</g>
		</g>
		<g>
			<polygon fill="#5A5A5A" points="10.32,7.731 10.32,14.14 10.744,14.38 10.744,7.974 			"/>
			<polygon fill="#343434" points="10.744,14.38 15.333,11.749 15.333,5.343 10.744,7.974 			"/>
			<polygon fill="#737373" points="10.32,7.731 14.908,5.101 15.333,5.343 10.744,7.974 			"/>
			<g>
				<g>
					<polygon fill="#F6EB16" points="13.376,7.097 12.773,7.442 12.773,8.3 13.376,7.95 					"/>
					<polygon fill="#F6EB16" points="11.927,8.786 12.53,8.438 12.53,7.583 11.927,7.93 					"/>
					<polygon fill="#F6EB16" points="14.469,6.472 14.469,7.326 14.988,7.028 14.988,6.174 					"/>
					<polygon fill="#F6EB16" points="14.226,6.609 13.622,6.958 13.622,7.813 14.226,7.466 					"/>
					<polygon fill="#F6EB16" points="11.683,8.069 11.087,8.412 11.087,9.267 11.683,8.924 					"/>
				</g>
				<g>
					<polygon fill="#F6EB16" points="13.376,8.505 12.773,8.852 12.773,9.708 13.376,9.362 					"/>
					<polygon fill="#F6EB16" points="11.927,10.192 12.53,9.847 12.53,8.992 11.927,9.339 					"/>
					<polygon fill="#F6EB16" points="14.469,7.881 14.469,8.735 14.988,8.438 14.988,7.583 					"/>
					<polygon fill="#F6EB16" points="14.226,8.021 13.622,8.367 13.622,9.22 14.226,8.875 					"/>
					<polygon fill="#F6EB16" points="11.683,9.479 11.087,9.819 11.087,10.675 11.683,10.333 					"/>
				</g>
				<g>
					<polygon fill="#F6EB16" points="13.376,9.917 12.773,10.261 12.773,11.117 13.376,10.769 					"/>
					<polygon fill="#F6EB16" points="11.927,11.604 12.53,11.256 12.53,10.401 11.927,10.747 					"/>
					<polygon fill="#F6EB16" points="14.469,9.29 14.469,10.144 14.988,9.847 14.988,8.992 					"/>
					<polygon fill="#F6EB16" points="14.226,9.43 13.622,9.776 13.622,10.631 14.226,10.284 					"/>
					<polygon fill="#F6EB16" points="11.683,10.888 11.087,11.229 11.087,12.084 11.683,11.742 					"/>
				</g>
				<g>
					<polygon fill="#F6EB16" points="13.376,11.323 12.773,11.67 12.773,12.526 13.376,12.18 					"/>
					<polygon fill="#F6EB16" points="11.927,13.011 12.53,12.665 12.53,11.811 11.927,12.159 					"/>
					<polygon fill="#F6EB16" points="14.469,10.698 14.469,11.556 14.988,11.256 14.988,10.401 					"/>
					<polygon fill="#F6EB16" points="14.226,10.839 13.622,11.186 13.622,12.04 14.226,11.693 					"/>
					<polygon fill="#F6EB16" points="11.683,12.297 11.087,12.639 11.087,13.493 11.683,13.151 					"/>
				</g>
			</g>
		</g>
		<path fill="#D9D9D9" d="M42.058,13.302l-4.587-2.631h-1.822c1.144,0.851,1.847,1.83,1.972,2.873h4.014L42.058,13.302z"/>
		<g>
			<polygon fill="#343434" points="36.512,7.731 36.512,14.14 36.088,14.38 36.088,7.974 			"/>
			<polygon fill="#5A5A5A" points="36.088,14.38 31.5,11.749 31.5,5.343 36.088,7.974 			"/>
			<polygon fill="#737373" points="36.512,7.731 31.924,5.101 31.5,5.343 36.088,7.974 			"/>
			<g>
				<g>
					<polygon fill="#F6EB16" points="33.454,7.097 34.059,7.442 34.059,8.3 33.454,7.95 					"/>
					<polygon fill="#F6EB16" points="34.905,8.786 34.303,8.438 34.303,7.583 34.905,7.93 					"/>
					<polygon fill="#F6EB16" points="32.363,6.472 32.363,7.326 31.844,7.028 31.844,6.174 					"/>
					<polygon fill="#F6EB16" points="32.606,6.609 33.211,6.958 33.211,7.813 32.606,7.466 					"/>
					<polygon fill="#F6EB16" points="35.149,8.069 35.744,8.412 35.744,9.267 35.149,8.924 					"/>
				</g>
				<g>
					<polygon fill="#F6EB16" points="33.454,8.505 34.059,8.852 34.059,9.708 33.454,9.362 					"/>
					<polygon fill="#F6EB16" points="34.905,10.192 34.303,9.847 34.303,8.992 34.905,9.339 					"/>
					<polygon fill="#F6EB16" points="32.363,7.881 32.363,8.735 31.844,8.438 31.844,7.583 					"/>
					<polygon fill="#F6EB16" points="32.606,8.021 33.211,8.367 33.211,9.22 32.606,8.875 					"/>
					<polygon fill="#F6EB16" points="35.149,9.479 35.744,9.819 35.744,10.675 35.149,10.333 					"/>
				</g>
				<g>
					<polygon fill="#F6EB16" points="33.454,9.917 34.059,10.261 34.059,11.117 33.454,10.769 					"/>
					<polygon fill="#F6EB16" points="34.905,11.604 34.303,11.256 34.303,10.401 34.905,10.747 					"/>
					<polygon fill="#F6EB16" points="32.363,9.29 32.363,10.144 31.844,9.847 31.844,8.992 					"/>
					<polygon fill="#F6EB16" points="32.606,9.43 33.211,9.776 33.211,10.631 32.606,10.284 					"/>
					<polygon fill="#F6EB16" points="35.149,10.888 35.744,11.229 35.744,12.084 35.149,11.742 					"/>
				</g>
				<g>
					<polygon fill="#F6EB16" points="33.454,11.323 34.059,11.67 34.059,12.526 33.454,12.18 					"/>
					<polygon fill="#F6EB16" points="34.905,13.011 34.303,12.665 34.303,11.811 34.905,12.159 					"/>
					<polygon fill="#F6EB16" points="32.363,10.698 32.363,11.556 31.844,11.256 31.844,10.401 					"/>
					<polygon fill="#F6EB16" points="32.606,10.839 33.211,11.186 33.211,12.04 32.606,11.693 					"/>
					<polygon fill="#F6EB16" points="35.149,12.297 35.744,12.639 35.744,13.493 35.149,13.151 					"/>
				</g>
			</g>
		</g>
	</g>
	<g>
		<path fill="#97AF63" d="M55.094,23.468c-1.832,0-3.344,0.541-3.571,1.24l-0.903-0.057l0.296,0.529
			c-0.467,0.114-0.776,0.316-0.776,0.548c0,0.357,0.73,0.646,1.633,0.646c0.569,0,1.07-0.117,1.363-0.292
			c0.564,0.147,1.234,0.23,1.959,0.23c1.99,0,3.603-0.636,3.603-1.422C58.697,24.104,57.084,23.468,55.094,23.468z"/>
		<g>
			<path fill="#713F2A" d="M51.588,23.155l-0.821,0.642c-0.068,0.067-0.029,0.221,0.09,0.338c0.12,0.121,0.273,0.163,0.343,0.094
				l0.641-0.82L51.588,23.155z"/>
			<g>
				<circle fill="#74923C" cx="52.11" cy="22.921" r="0.622"/>
				<circle fill="#AEBF5F" cx="52.026" cy="22.836" r="0.421"/>
			</g>
			<path fill="#704735" d="M50.214,22.507l-0.288,2.342c0,0.221,0.31,0.401,0.693,0.401s0.691-0.181,0.691-0.401l-0.286-2.342
				H50.214z"/>
			<path fill="#714F40" d="M49.203,23.512l0.855,1.095c0.091,0.092,0.294,0.036,0.453-0.121c0.161-0.159,0.215-0.361,0.124-0.455
				l-1.095-0.854L49.203,23.512z"/>
			<g>
				<circle fill="#74923C" cx="50.619" cy="20.375" r="2.489"/>
				<path fill="#AEBF5F" d="M48.594,20.035c0-0.929,0.755-1.684,1.686-1.684c0.935,0,1.687,0.755,1.687,1.684
					c0,0.933-0.752,1.688-1.687,1.688C49.349,21.723,48.594,20.968,48.594,20.035z"/>
			</g>
			<g>
				<path fill="#74923C" d="M47.562,22.731c0-0.686,0.558-1.243,1.244-1.243c0.688,0,1.245,0.558,1.245,1.243
					c0,0.689-0.558,1.246-1.245,1.246C48.12,23.978,47.562,23.421,47.562,22.731z"/>
				<circle fill="#AEBF5F" cx="48.637" cy="22.564" r="0.843"/>
			</g>
		</g>
		<path fill="#DF4544" d="M47.939,20.101c0-0.157,0.13-0.284,0.286-0.284c0.159,0,0.287,0.127,0.287,0.284
			c0,0.16-0.128,0.289-0.287,0.289C48.069,20.39,47.939,20.261,47.939,20.101z"/>
		<circle fill="#DF4544" cx="49.9" cy="23.168" r="0.285"/>
		<path fill="#DE302C" d="M51.894,21.846c0-0.157,0.128-0.287,0.285-0.287c0.158,0,0.285,0.13,0.285,0.287
			c0,0.155-0.127,0.285-0.285,0.285C52.022,22.131,51.894,22.001,51.894,21.846z"/>
		<circle fill="#DF4544" cx="47.923" cy="23.197" r="0.286"/>
		<circle fill="#DE302C" cx="51.85" cy="19.524" r="0.286"/>
		<circle fill="#DE302C" cx="49.183" cy="21.419" r="0.286"/>
		<circle fill="#DF4544" cx="49.414" cy="18.481" r="0.285"/>
		<circle fill="#C52A29" cx="53.096" cy="20.489" r="0.286"/>
		<circle fill="#C52A29" cx="52.73" cy="18.938" r="0.285"/>
		<circle fill="#DE302C" cx="49.634" cy="19.963" r="0.286"/>
		<circle fill="#C52A29" cx="52.669" cy="22.892" r="0.286"/>
	</g>
	<path fill="#E0C490" d="M51.593,29.474l-9.649,5.551C46.21,33.877,49.641,31.907,51.593,29.474z"/>
</g>
</svg>
