<?xml version="1.0" encoding="utf-8"?>
<!-- Generator: Adobe Illustrator 16.0.0, SVG Export Plug-In . SVG Version: 6.00 Build 0)  -->
<!DOCTYPE svg PUBLIC "-//W3C//DTD SVG 1.1//EN" "http://www.w3.org/Graphics/SVG/1.1/DTD/svg11.dtd">
<svg version="1.1" id="Layer_1" xmlns="http://www.w3.org/2000/svg" xmlns:xlink="http://www.w3.org/1999/xlink" x="0px" y="0px"
	 width="100px" height="100px" viewBox="0 0 100 100" enable-background="new 0 0 100 100" xml:space="preserve">
<g>
	<g>
		<g opacity="0.8">
			<polygon fill="#BCC5DF" points="59.033,92.572 49.917,74.857 35.011,83.463 50.653,92.572 			"/>
		</g>
		<g>
			<g enable-background="new    ">
				<g>
					<polygon fill="#544965" points="66.01,87.023 49.603,77.488 43.591,80.961 59.996,90.494 					"/>
				</g>
				<g>
					<polygon fill="#3C314E" points="54.279,78.125 37.874,68.592 42.627,83.037 59.033,92.572 					"/>
				</g>
				<g>
					<polygon fill="#544965" points="64.09,57.244 47.685,47.712 37.874,68.592 54.279,78.125 					"/>
				</g>
				<g>
					<polygon fill="#3C314E" points="60.176,43.675 43.772,34.142 47.685,47.712 64.09,57.244 					"/>
				</g>
				<g>
					<polygon fill="#CFCFCF" points="61.449,42.53 45.042,32.996 43.772,34.142 60.176,43.675 					"/>
				</g>
				<g>
					<polygon fill="#30273E" points="61.449,42.53 60.176,43.675 64.09,57.244 54.279,78.125 59.033,92.572 66.014,88.541 
						66.01,87.023 59.996,90.494 55.744,77.564 65.539,56.717 					"/>
				</g>
			</g>
		</g>
		<g>
			<g enable-background="new    ">
				<g enable-background="new    ">
					<defs>
						<path id="SVGID_1_" enable-background="new    " d="M53.715,7.532l-1.133-0.098C52.791,7.452,53,7.517,53.199,7.632
							l1.135,0.099C54.135,7.615,53.926,7.55,53.715,7.532z"/>
					</defs>
					<clipPath id="SVGID_2_">
						<use xlink:href="#SVGID_1_"  overflow="visible"/>
					</clipPath>
					<g clip-path="url(#SVGID_2_)" enable-background="new    ">
						<path fill="#2D3036" d="M53.199,7.632l1.135,0.099c-0.199-0.115-0.408-0.18-0.619-0.198l-1.133-0.098
							C52.791,7.452,53,7.517,53.199,7.632L53.199,7.632z"/>
					</g>
				</g>
				<g enable-background="new    ">
					<defs>
						<path id="SVGID_3_" enable-background="new    " d="M55.805,63.025l1.137,0.1c0.742,0.064,1.488-0.453,1.842-1.357l-1.137-0.1
							C57.295,62.574,56.547,63.09,55.805,63.025z"/>
					</defs>
					<clipPath id="SVGID_4_">
						<use xlink:href="#SVGID_3_"  overflow="visible"/>
					</clipPath>
					<g clip-path="url(#SVGID_4_)" enable-background="new    ">
						<path fill="#2D3036" d="M55.805,63.025l1.137,0.1c0.742,0.064,1.488-0.453,1.842-1.357l-1.137-0.1
							C57.295,62.574,56.547,63.09,55.805,63.025L55.805,63.025z"/>
					</g>
				</g>
				<g>
					<polygon fill="#272A30" points="72.359,18.693 73.494,18.792 54.334,7.73 53.199,7.632 					"/>
				</g>
				<g>
					<polygon fill="#30273E" points="57.646,61.668 58.783,61.768 63.443,49.789 67.055,40.508 69.447,34.359 71.252,29.722 
						74.316,21.849 73.182,21.75 70.535,28.551 68.73,33.188 66.338,39.337 62.727,48.616 					"/>
				</g>
				<g enable-background="new    ">
					<defs>
						<path id="SVGID_5_" enable-background="new    " d="M73.182,21.751l1.135,0.098c0.453-1.164,0.084-2.533-0.822-3.057
							l-1.135-0.099C73.268,19.217,73.633,20.587,73.182,21.751z"/>
					</defs>
					<clipPath id="SVGID_6_">
						<use xlink:href="#SVGID_5_"  overflow="visible"/>
					</clipPath>
					<g clip-path="url(#SVGID_6_)" enable-background="new    ">
						<path fill="#2D3036" d="M73.182,21.751l1.135,0.098c0.453-1.164,0.084-2.533-0.822-3.057l-1.135-0.099
							C73.268,19.217,73.633,20.587,73.182,21.751L73.182,21.751z"/>
					</g>
				</g>
				<g>
					
						<linearGradient id="SVGID_7_" gradientUnits="userSpaceOnUse" x1="122.9746" y1="22.0308" x2="158.6215" y2="49.5039" gradientTransform="matrix(-1 0 0 1 194.293 0)">
						<stop  offset="0.0051" style="stop-color:#FFAF03"/>
						<stop  offset="1" style="stop-color:#D602FC"/>
					</linearGradient>
					<path fill="url(#SVGID_7_)" d="M36.027,51.766l19.159,11.061c0.908,0.523,2.01,0.006,2.461-1.158l5.08-13.052l3.611-9.279
						l2.393-6.149l1.805-4.637l2.646-6.801c0.453-1.164,0.084-2.533-0.822-3.057l-12.141-7.009l-7.02-4.052
						c-0.047-0.026-0.094-0.052-0.143-0.072V7.558c-0.877-0.394-1.891,0.131-2.32,1.235l-1.198,3.078l-3.611,9.281l-10.723,27.56
						C34.751,49.875,35.12,51.242,36.027,51.766z"/>
				</g>
			</g>
		</g>
		<path opacity="0.4" fill="#FFFFFF" d="M53.057,7.56L68.73,33.188l1.805-4.637L60.219,11.684l-7.02-4.052
			C53.152,7.605,53.105,7.58,53.057,7.56z"/>
		<polygon opacity="0.4" fill="#FFFFFF" points="45.927,21.151 62.727,48.616 66.338,39.337 49.539,11.871 		"/>
	</g>
</g>
</svg>
