<?xml version="1.0" encoding="utf-8"?>
<!-- Generator: Adobe Illustrator 16.0.0, SVG Export Plug-In . SVG Version: 6.00 Build 0)  -->
<!DOCTYPE svg PUBLIC "-//W3C//DTD SVG 1.1//EN" "http://www.w3.org/Graphics/SVG/1.1/DTD/svg11.dtd">
<svg version="1.1" id="Layer_1" xmlns="http://www.w3.org/2000/svg" xmlns:xlink="http://www.w3.org/1999/xlink" x="0px" y="0px"
	 width="50px" height="50px" viewBox="0 0 50 50" enable-background="new 0 0 50 50" xml:space="preserve">
<g>
	<g>
		<g>
			<path fill-rule="evenodd" clip-rule="evenodd" fill="#F1B287" d="M23.821,13.287l-1.314,0.24c-0.479,0.005-0.533,0.814-0.3,1.008
				c0.362,0.304,1.338,0.38,1.563,0.454c0.625,0.203,1.396-0.151,2.783,0.098l0.236-0.694c-0.793-0.646-0.995-1.014-1.372-1.139
				C25.102,13.151,24.625,13.074,23.821,13.287z"/>
			<path fill-rule="evenodd" clip-rule="evenodd" fill="#E8A476" d="M23.821,13.287c0.026,0.136,0.242,0.228,0.911,0.163
				c0.144-0.014,0.304,0.072,0.688,0.104C25.146,13.416,24.625,13.074,23.821,13.287z"/>
			<path fill-rule="evenodd" clip-rule="evenodd" fill="#E8A476" d="M23.994,13.65c-0.539,0.097-1.451,0.1-1.849,0.128
				c-0.108,0.245-0.082,0.637,0.062,0.757c0.362,0.304,1.338,0.38,1.563,0.454c0.625,0.203,1.396-0.151,2.783,0.098l0.039-0.583
				c-0.676-0.521-0.812-0.51-1.05-0.61C25.239,13.765,24.751,13.659,23.994,13.65z"/>
			<path fill-rule="evenodd" clip-rule="evenodd" fill="#DB9669" d="M24.153,13.95c0.136,0.47-0.474,0.908-0.383,1.039
				c0.625,0.203,1.396-0.151,2.783,0.098l0.039-0.583c-0.676-0.521-0.624-0.258-0.859-0.357
				C25.427,14.017,24.909,13.959,24.153,13.95z"/>
			<path fill-rule="evenodd" clip-rule="evenodd" fill="#F1B287" d="M24.551,12.947c-0.221,0.054-0.463,0.075-0.69,0.025
				c-0.098,0.41,0.33,0.495,0.892,0.402c0.541,0.15,1.333,0.438,1.249,0.323C25.74,13.339,25.269,12.77,24.551,12.947z"/>
			<path fill-rule="evenodd" clip-rule="evenodd" fill="#F7C09C" d="M24.551,12.947c-0.141,0.035-0.29,0.055-0.438,0.053
				c-0.012,0.098,0.071,0.218,0.646,0.153c0.511,0.1,0.636,0.036,1.243,0.544C25.74,13.339,25.269,12.77,24.551,12.947z"/>
			<path fill-rule="evenodd" clip-rule="evenodd" fill="#6087A8" d="M30.925,14.651l-0.523-0.142l-3.873-1.05
				c-0.697-0.047-0.907,1.375-0.425,1.811l4.187,1.578c1.109,0.32,1.679-0.222,1.735-0.85
				C32.078,15.425,31.182,14.923,30.925,14.651z"/>
		</g>
		<path fill-rule="evenodd" clip-rule="evenodd" fill="#6087A8" d="M29.244,10c-0.108,1.149,0.329,4.007,0.767,5.939
			c0.117,0.646,1.875,1.184,2.009,0.109c0.064-0.524-0.002-0.67-0.061-1.17c-0.104-0.879-0.184-2.125-0.321-3.155
			c-0.124-0.931-0.283-2.783-1.616-2.656C29.515,9.116,29.288,9.539,29.244,10z"/>
	</g>
	<g>
		<g>
			<g>
				<g>
					<path fill-rule="evenodd" clip-rule="evenodd" fill="#E8A476" d="M30.42,23.171c-0.132,3.329-1.516,7.595-1.766,9.866
						c0.753,0.579,1.211,1.196,1.506,1.901c0.304,0.723,0.28,1.755,0.325,2.88c0.05,1.229,0.137,2.534,0.559,3.356
						c0.131,0.142,0.291,0.227,0.366,0.388c0.406,0.861,0.495,1.69,0.213,6.111l-1.038,0.023l-0.132-1.563
						c-0.129-0.633-0.485-1.559-0.628-2.132c-0.313-1.251-0.344-1.877-0.536-2.796c-0.375-1.797-2.02-4.587-2.886-6.219
						c-0.938-1.767-0.835-1.399-0.66-3.543c0.2-3.287,0.224-5.608,0.933-8.221L30.42,23.171z"/>
					<path fill-rule="evenodd" clip-rule="evenodd" fill="#DB9669" d="M30.467,23.243c-0.125,3.184-1.39,7.155-1.77,9.485
						c-0.329,0.376-0.815,0.72-1.362,0.887c1.161,2.269,1.959,4.269,2.424,6.528c0.33,1.601,0.073,3.554,0.899,5.073l1.084,0.324
						c-0.027,0.602-0.066,1.305-0.119,2.134l-1.038,0.023l-0.132-1.563c-0.129-0.633-0.485-1.559-0.628-2.132
						c-0.313-1.251-0.344-1.877-0.536-2.796c-0.375-1.797-2.02-4.587-2.886-6.219c-0.938-1.767-0.835-1.399-0.66-3.543
						c0.2-3.287,0.224-5.608,0.933-8.221L30.467,23.243z"/>
					<path fill-rule="evenodd" clip-rule="evenodd" fill="#F1B287" d="M28.795,33.147c-0.242,0.247-0.523,0.479-0.841,0.67
						c1.16,2.27,1.882,4.199,2.146,6.444c0.099,0.842,0,1.606,0.089,2.494c0.047-1.071,0.259-2.074,0.696-1.959
						c-0.287-0.813-0.357-1.923-0.399-2.979c-0.045-1.125-0.021-2.157-0.325-2.88C29.884,34.277,29.465,33.694,28.795,33.147z"/>
				</g>
				<g>
					<g>
						<path fill-rule="evenodd" clip-rule="evenodd" fill="#1F202B" d="M32.875,44.355c0.113-0.015,0.274-0.014,0.298-0.039
							c0.053-0.062,0.06-0.182,0.014-0.213C33.055,44.017,32.91,44.27,32.875,44.355z"/>
						<path fill-rule="evenodd" clip-rule="evenodd" d="M32.177,42.795c-0.124,0.396-0.089,0.753,0.033,1.162
							c0.436,1.434,0.833,1.538,0.647,2.188c-0.127,0.449-0.351,0.815-0.635,1.138c-0.281,0.319-0.619,0.594-0.98,0.845
							c-0.336,0.231-0.523,0.285-0.624,0.239c-0.024-0.012-0.04-0.039-0.049-0.078c-0.053-0.219,0.105-0.897,0.194-1.108
							c0.386-0.894,0.834-1.286,0.591-2.402c-0.18-0.829-0.467-1.375-0.094-1.935L32.177,42.795z"/>
					</g>
					<path fill-rule="evenodd" clip-rule="evenodd" fill="#171717" d="M32.827,45.92c-0.032,0.428-0.361,0.937-0.603,1.213
						c-0.254,0.287-0.618,0.653-0.943,0.878c-0.302,0.208-0.513,0.345-0.603,0.303c-0.114-0.054,0.036-0.525,0.063-0.605
						c0.08-0.247,0.208-0.514,0.255-0.621c0.193-0.451,0.39-0.717,0.503-1.068c0.057-0.174,0.029-0.23,0.239-0.265
						c0.24-0.039,0.613-0.066,0.867-0.086C32.835,45.651,32.847,45.691,32.827,45.92z"/>
					<path fill-rule="evenodd" clip-rule="evenodd" fill="#122536" d="M32.091,41.889c0.163,0.749,0.407,1.389,1.096,2.215
						c-0.088-0.023-0.19,0.002-0.312,0.252c-0.897-1.032-1.452-1.332-1.728-0.888c0.025,0.373,0.18,0.781,0.295,1.307
						c0.242,1.116-0.246,1.515-0.631,2.409c-0.093,0.218-0.177,0.586-0.222,0.813c-0.032,0.162-0.039,0.286,0.005,0.349
						l-0.002,0.001c-0.14-0.156-0.135-0.409-0.134-0.811c0.002-0.584,0.101-1.374,0.113-1.859c0.018-0.656-0.23-1.227-0.271-2.12
						c-0.011-0.252-0.014-0.5,0.001-0.749c0.021-0.326,0.163-1.615,0.461-1.713c0.172-0.056,0.761,0.151,0.92,0.247
						C31.951,41.502,32.033,41.623,32.091,41.889z"/>
					<path fill-rule="evenodd" clip-rule="evenodd" fill="#1D3F5E" d="M30.525,48.098c0.057-0.863,0.57-1.732,0.628-2.445
						c0.086-1.063-0.34-1.735-0.15-2.621c0.124-0.59,0.34-1.137,0.908-1.412c-0.115-0.294-0.972-0.556-1.103-0.463
						c-0.122,0.086-0.262,0.521-0.345,0.978c-0.039,0.209-0.097,0.763-0.081,1.318c0.017,0.61,0.208,1.336,0.25,2.013
						C30.682,46.281,30.438,47.277,30.525,48.098z"/>
					<path fill-rule="evenodd" clip-rule="evenodd" fill="#215682" d="M30.525,48.098c0.015-0.938,0.443-1.733,0.501-2.446
						c0.03-0.382-0.002-0.714-0.049-1.025c-0.128-0.837-0.235-1.241,0.021-2.07c0.128-0.413,0.332-0.777,0.75-0.981
						c-0.156-0.186-0.744-0.428-0.874-0.335c-0.122,0.086-0.278,0.599-0.34,1.057c-0.173,1.262,0.104,2.043,0.179,3.253
						C30.764,46.366,30.464,47.285,30.525,48.098z"/>
					<path fill-rule="evenodd" clip-rule="evenodd" fill="#1D3F5E" d="M31.956,41.807c-0.239,0.048-0.577,0.459-0.546,0.88
						c0.589,0.509,0.974,0.862,1.513,1.493c0.025-0.055,0.102-0.135,0.175-0.126C32.366,43.092,32.279,42.919,31.956,41.807z"/>
					<path fill-rule="evenodd" clip-rule="evenodd" fill="#215682" d="M31.84,41.995c-0.119,0.08-0.252,0.285-0.283,0.458
						c0.228,0.101,0.911,0.992,1.407,1.668c0.018-0.02,0.039-0.039,0.063-0.052C32.49,43.418,31.842,42.209,31.84,41.995z"/>
				</g>
			</g>
			<g>
				<path fill-rule="evenodd" clip-rule="evenodd" fill="#F1B287" d="M23.193,23.536c-0.059,1.609-1.086,2.912,0.536,8.242
					c0.079,0.26,0.034,0.662,0.054,1.104c0.021,0.468,0.079,0.985,0.168,1.454c-0.02,0.862-0.07,1.454-0.024,2.084
					c0.141,1.935,0.601,3.047,0.957,4.438c0.508,1.989,0.825,2.849,0.307,4.924c-0.165,0.66-0.001,1.204-0.373,1.693
					c-0.17,0.149-0.356,0.062-0.563,0.185c-0.463,0.407-0.037,0.977,0.199,0.96c1.026-0.074,1.773-1.32,2.118-1.32
					c0.848-1.356,1.589-0.817,1.4-1.864c-0.082-0.456-0.661-1.049-0.692-1.752c-0.046-1.04,0.053-2.146,0.058-3.174
					c0.006-1.361,0.2-2.54,0.087-3.647c-0.094-0.916-0.574-1.607-0.426-2.505c0.159-0.973,0.033-1.12-0.115-2.355
					c-0.314-2.604,1.772-6.454,0.651-7.865L23.193,23.536z"/>
				<path fill-rule="evenodd" clip-rule="evenodd" fill="#E8A476" d="M23.193,23.536c-0.059,1.609-1.086,2.912,0.536,8.242
					c0.079,0.26,0.034,0.662,0.054,1.104c0.021,0.468,0.079,0.985,0.168,1.454c-0.02,0.862-0.07,1.454-0.024,2.084
					c0.141,1.935,0.601,3.047,0.957,4.438c0.508,1.989,0.825,2.849,0.307,4.924c-0.165,0.66-0.001,1.204-0.373,1.693
					c-0.17,0.149-0.356,0.062-0.563,0.185c-0.463,0.407-0.037,0.977,0.199,0.96c0.543-0.04,1.01-0.408,1.379-0.747l-0.221-0.142
					c0-1.475,0.502-2.295,0.648-3.647c0.062-0.572,0.009-1.213-0.09-2.081c-0.265-2.324-0.823-4.58-0.826-6.966
					c0.501,0.089,0.863,0.105,1.483-0.458c-0.416,0.278-0.96,0.26-1.563,0c-0.1-0.321-0.12-0.626-0.094-0.948
					c0.741-0.223,1.223-0.425,1.808-0.938c-0.028-0.19-0.061-0.412-0.094-0.691c-0.314-2.604,1.772-6.454,0.651-7.865L23.193,23.536
					z"/>
				<g>
					<path fill-rule="evenodd" clip-rule="evenodd" fill="#1D3F5E" d="M27.61,44.633c-0.834,0.108-1.612,2.288-2.207,3.206
						c-0.245,0.377-0.502,0.534-0.833,0.464c-0.172-0.038-0.202-0.152-0.165-0.303c0.033-0.128,0.051-0.351,0.277-0.45
						c-0.451,0.036-1.139,0.101-1.414,0.274c-0.099,0.063-0.099,0.27,0.074,0.397c0.92,0.68,1.745,1.09,2.552,0.674
						c0.12-0.063,0.277-0.176,0.438-0.297c0.11-0.084,0.238-0.177,0.291-0.24c0.266-0.325,0.314-0.89,0.646-1.282
						c0.459-0.543,1.035-0.521,1.109-0.776c0.075-0.266,0.043-0.583-0.093-0.837C28.083,45.083,27.7,44.791,27.61,44.633z"/>
					<path fill-rule="evenodd" clip-rule="evenodd" fill="#122536" d="M23.352,47.779c-0.031,0.014-0.059,0.028-0.083,0.045
						c-0.099,0.063-0.099,0.27,0.074,0.397c0.92,0.68,1.745,1.09,2.552,0.674c0.12-0.063,0.277-0.176,0.438-0.297
						c0.11-0.084,0.238-0.177,0.291-0.24c0.266-0.325,0.314-0.89,0.646-1.282c0.459-0.543,1.035-0.521,1.109-0.776
						c0.063-0.224,0.05-0.483-0.036-0.712c-0.597,0.104-0.986,0.453-1.343,0.946c-0.26,0.358-0.478,0.797-0.707,1.25
						c-0.319,0.63-0.686,0.985-1.081,1.042c-0.368,0.051-1.352-0.306-1.735-0.722C23.359,47.976,23.335,47.88,23.352,47.779z"/>
					<path fill-rule="evenodd" clip-rule="evenodd" fill="#215682" d="M27.571,44.763c-0.771,0.101-1.549,2.371-2.101,3.221
						c-0.226,0.35-0.607,0.458-0.914,0.393c-0.334-0.072-0.319-0.198-0.285-0.338c0.03-0.119,0.067-0.354,0.276-0.445
						c-0.417,0.034-0.591,0.065-0.907,0.15c-0.088,0.022-0.126,0.13,0.002,0.271c0.15,0.165,0.528,0.438,0.737,0.512
						c0.568,0.197,1.037,0.219,1.439-0.284c0.607-0.758,1.084-2.643,2.379-2.748C28.011,45.141,27.655,44.909,27.571,44.763z"/>
					<path fill-rule="evenodd" clip-rule="evenodd" d="M25.472,49.04c0.143-0.024,0.283-0.072,0.423-0.145
						c0.12-0.063,0.277-0.176,0.438-0.297c0.11-0.084,0.238-0.177,0.291-0.24c0.266-0.325,0.314-0.89,0.646-1.282
						c0.021-0.025,0.107-0.114,0.129-0.135c-0.122-0.023-0.295-0.049-0.48,0.102c-0.502,0.896-0.742,1.532-1.319,1.928
						C25.559,48.998,25.517,49.021,25.472,49.04z"/>
					<path fill-rule="evenodd" clip-rule="evenodd" fill="#122536" d="M28.38,46.291c-0.262,1.231-0.355,1.952-0.375,3.246
						c-0.101,0.038-0.393,0.024-0.417-0.08c-0.021-0.832,0.259-2.198-0.335-2.652C27.334,46.744,28.422,46.097,28.38,46.291z"/>
					<path fill-rule="evenodd" clip-rule="evenodd" fill="#1D3F5E" d="M27.929,49.554c-0.053,0.005-0.117,0.004-0.176-0.006
						c0.035-0.474,0.082-1.136,0.082-1.751c0.002-0.571-0.06-1.056-0.084-1.346c-0.021-0.384,0.611-0.636,0.577-0.215
						c-0.077,0.515-0.202,0.964-0.26,1.39C27.989,48.222,27.932,48.944,27.929,49.554z"/>
					<path fill-rule="evenodd" clip-rule="evenodd" fill="#215682" d="M27.905,49.557c-0.035,0-0.074,0.001-0.109-0.005
						c0.034-0.474,0.105-1.148,0.105-1.765c0.001-0.571-0.051-1.104-0.005-1.411c-0.008-0.169,0.274-0.292,0.252-0.11
						C28.048,47.102,27.906,49.038,27.905,49.557z"/>
				</g>
				<path fill-rule="evenodd" clip-rule="evenodd" fill="#F7C09C" d="M27.034,33.083c-0.396,0.291-0.795,0.485-1.312,0.641
					c-0.025,0.307-0.037,0.44,0.059,0.746c0.404,0.175,0.866-0.037,1.243-0.272C27.093,33.718,27.083,33.448,27.034,33.083
					L27.034,33.083z M26.987,34.976c-0.343,0.32-0.797,0.472-1.084,0.421c0.022,2.216,0.379,4.032,0.629,6.248
					c0.095,0.828,0.139,1.455,0.079,2.001c-0.089,0.823-0.311,1.396-0.432,2.087c0.081,0.316,0.708-1.087,1.28-1.377
					c-0.095-0.21-0.169-0.436-0.18-0.674c-0.046-1.04,0.053-2.146,0.058-3.174c0.006-1.361,0.2-2.54,0.087-3.647
					C27.354,36.165,27.061,35.601,26.987,34.976z"/>
			</g>
		</g>
		<g>
			<path fill-rule="evenodd" clip-rule="evenodd" fill="#1D3F5E" d="M29.623,18.487c0.016,0.299,0.151,0.585,0.269,0.878
				c1.078,1.715,1.795,3.967,0.649,6.237c-0.056,0.519-0.133,1.044-0.212,1.572c-0.171,1.669-0.042,3.155-0.143,4.692
				c-0.931,0.806-2.48,1.935-3.875,2.059c-0.993,0.088-1.971-0.59-2.3-1.098c-0.284-0.98-0.589-2.54-0.762-3.555
				c-0.303-1.778-0.345-3.437-0.252-5.065c0.081-1.024,0.008-1.787,0.365-2.78c0.294-0.817,0.701-1.333,0.962-2.178
				C25.879,20.915,27.615,19.603,29.623,18.487z"/>
			<path fill-rule="evenodd" clip-rule="evenodd" fill="#122536" d="M25.93,33.923c-0.76-0.065-1.846-0.714-2.154-1.188
				c-1.088-4.618-1.111-6.34-0.848-8.786c0.081-1.024-0.016-1.526,0.341-2.52c0.294-0.817,0.795-1.333,1.057-2.178
				c0.458,0.491,5.803,1.468,6.299,1.52l0.099,0.278c-0.13,1.063-2.619,2.818-5.446,2.989C25.363,27.869,25.923,33.896,25.93,33.923
				z"/>
			<path fill-rule="evenodd" clip-rule="evenodd" fill="#215682" d="M25.782,24.396c-0.006,0.807,0.031,1.314,0.253,1.582
				c0.352,0.425,0.648,0.573,2.43-0.159c0.207-0.084,0.842,0.204-0.062,0.876c-0.686,0.513-1.849,0.954-2.01,1.411
				c0.194,1.304-0.024,3.02,0.167,5.534c1.48-0.408,2.66-1.117,3.588-1.906c0.074-2.364,0.066-4.201,0.379-6.133
				c0.337-0.833,0.545-1.431,0.571-2.329c0.015-0.505-0.044-0.992-0.152-1.421C30.404,22.595,28.065,24.436,25.782,24.396z"/>
		</g>
	</g>
	<g>
		<path fill-rule="evenodd" clip-rule="evenodd" fill="#E8E3E3" d="M29.905,9.121c1.862-0.211,1.862,3,1.076,4.378
			c-0.955,1.674-1.512,3.158-1.339,5.142c-1.14,1.366-3.998,2.662-5.34,0.655c0.075-0.176,0.244-0.998,0.248-1.587
			c0.007-0.804-0.421-1.559-0.489-2.353c-0.777-1.138-0.998-2.054-0.76-2.595C23.982,11.209,28.254,9.307,29.905,9.121z"/>
		<path fill-rule="evenodd" clip-rule="evenodd" fill="#6087A8" d="M29.905,9.121c0.415-0.047,0.736,0.076,0.979,0.31
			c-0.006,0-0.013,0-0.02,0c-1.741,0.1-4.456,1.423-5.777,2.386c0.782,0.85,1.253,1.944,1.31,2.571
			c0.138,1.517-0.995,3.562-0.619,5.899c-0.568-0.104-1.085-0.408-1.475-0.991c0.075-0.176,0.244-0.998,0.248-1.587
			c0.007-0.804-0.421-1.559-0.489-2.353c-0.777-1.138-0.998-2.054-0.76-2.595C23.982,11.209,28.254,9.307,29.905,9.121z"/>
		<path fill-rule="evenodd" clip-rule="evenodd" fill="#F6F5F5" d="M29.832,10.318c-0.625,0.687-1.703,1.135-2.861,1.347
			c-1.365,0.25-0.558,0.765-0.237,1.767c0.799,2.491-0.604,4.206-0.459,6.572c0.443,0.374,2.9-0.831,3.349-1.521
			c-0.045-0.701,0.015-1.374,0.116-1.844c0.427-1.966,1.831-3.266,1.659-5.419C31.31,10.101,30.581,9.499,29.832,10.318z"/>
	</g>
	<g>
		<path fill-rule="evenodd" clip-rule="evenodd" fill="#1D3F5E" d="M29.905,9.121c1.862-0.211,1.862,3,1.076,4.378
			c-0.801,1.405-1.369,2.538-1.414,4.082c-0.046,1.636,0.604,2.265,1.15,3.176c-1.152,2.219-5.973,3.828-7.46,1.002
			c0.03-0.107,0.065-0.217,0.106-0.33c0.253-0.704,0.67-1.416,0.945-2.149c0.078-0.205,0.238-0.998,0.242-1.571
			c0.002-0.206-0.024-0.407-0.066-0.607c0.191-0.027,0.36-0.104,0.493-0.174c0.815-0.432,0.842-2.14,0.696-2.933
			c-0.072-0.395-0.196-0.763-0.384-1.052c-0.615-0.952-1.425-0.775-1.791-0.518c0.382-0.525,1.108-1.072,1.954-1.567
			c0.883,0.116,2.13,0.616,3.468-0.137c0.344-0.193,0.511-1-0.035-1.373C29.279,9.231,29.628,9.151,29.905,9.121z"/>
		<path fill-rule="evenodd" clip-rule="evenodd" fill="#193147" d="M29.905,9.121c0.415-0.047,0.736,0.076,0.979,0.31
			c-0.006,0-0.013,0-0.02,0C30.37,9.46,29.797,9.587,29.2,9.776c-0.05-0.163-0.149-0.314-0.314-0.427
			C29.279,9.231,29.628,9.151,29.905,9.121L29.905,9.121z M26.354,11.024c-0.489,0.27-0.924,0.543-1.267,0.792
			c0.782,0.85,1.253,1.944,1.31,2.571c0.108,1.207-0.552,2.75-0.685,4.504c-0.133,1.77-0.159,3.083-0.473,4.303
			c-0.829-0.165-1.547-0.611-1.981-1.436c0.03-0.107,0.065-0.217,0.106-0.33c0.313-0.869,0.844-1.6,1.033-2.483
			c0.085-0.392,0.15-0.838,0.154-1.237c0.002-0.206-0.024-0.407-0.066-0.607c0.191-0.027,0.36-0.104,0.493-0.174
			c0.815-0.432,0.842-2.14,0.696-2.933c-0.072-0.395-0.196-0.763-0.384-1.052c-0.615-0.952-1.425-0.775-1.791-0.518
			c0.382-0.525,1.108-1.072,1.954-1.567C25.722,10.893,26.025,10.963,26.354,11.024z"/>
		<path fill-rule="evenodd" clip-rule="evenodd" fill="#215682" d="M29.832,10.318c-0.625,0.687-1.703,1.135-2.861,1.347
			c-1.365,0.25-0.558,0.765-0.237,1.767c0.377,1.172-0.179,3.188-0.446,4.866c-0.298,1.886-0.193,3.442-0.179,4.821
			c1.308,0.055,3.605-0.712,4.61-2.362c-1.01-1.924-1.108-2.758-1.11-2.891c-0.022-2.046,1.162-3.402,1.654-4.938
			c0.17-0.533,0.184-1.098,0.136-1.708C31.31,10.101,30.581,9.499,29.832,10.318z"/>
	</g>
	<g>
		<g>
			<g>
				<g>
					<path fill-rule="evenodd" clip-rule="evenodd" fill="#E8A476" d="M29.308,9.968c0.145,0.612-2.09,1.273-2.856,0.94
						c-0.115-1.08-0.226-2.034-0.69-3.077l2.425-0.825l0.631-0.265C28.569,8.104,28.771,8.772,29.308,9.968z"/>
					<path fill-rule="evenodd" clip-rule="evenodd" fill="#DB9669" d="M24.602,8.504c0.077,0.122,0.951,0.078,1.307-0.074
						c0.136,0.642,0.331,1.418,0.527,2.332c0.203-0.952,0.34-1.733,2.334-2.339c0.015-0.249,0.076-0.497,0.158-0.615
						c0.301-0.448,0.904-0.938,1.138-1.625C29.711,5.232,26.957,6.623,24.602,8.504z"/>
				</g>
				<path fill-rule="evenodd" clip-rule="evenodd" fill="#E8A476" d="M24.614,8.514c0.204,0.132,1.491-0.531,1.607-0.525
					c1.122,0.056,2.482,0.148,2.706-0.182c0.301-0.448,0.904-0.938,1.138-1.625c0.373-1.099,0.3-2.34-0.706-3.203
					c-1.748-1.501-4.49-0.401-4.882,1.299c-0.161,0.698,0.085,0.874,0.054,1.341c-0.006,0.071-0.154,0.428-0.237,0.585
					c-0.059,0.11,0.075,0.591,0.11,1.194C24.434,7.917,24.48,8.426,24.614,8.514z"/>
				<path fill-rule="evenodd" clip-rule="evenodd" fill="#F1B287" d="M24.614,8.514c0.052,0.034,0.175,0.016,0.33-0.029
					c0.169-0.179,0.348-0.537,0.349-0.72c0.004-0.726-0.339-1.327-0.325-1.62c0.027-0.619,0.221-0.303,0.01-0.982
					c-0.105-0.343-0.004-0.477,0.056-0.675c0.108-0.357-0.106-1.085-0.106-1.085c-0.091,0.097-0.155,0.184-0.247,0.35
					c-0.093,0.167-0.163,0.343-0.205,0.525c-0.161,0.698,0.085,0.874,0.054,1.341c-0.006,0.071-0.154,0.428-0.237,0.585
					c-0.059,0.11,0.075,0.591,0.11,1.194C24.434,7.917,24.48,8.426,24.614,8.514z"/>
			</g>
			<g>
				<path fill-rule="evenodd" clip-rule="evenodd" fill="#6087A8" d="M29.043,9.171c-0.061,0.557-1.771,0.967-2.721,0.745
					c-0.102-0.023-0.164-0.043-0.201-0.108c-0.139,0.077-0.438,0.585-0.481,0.859c0.822,0.792,3.395,0.422,3.71-0.505
					C29.425,9.94,29.24,9.463,29.043,9.171z"/>
				<path fill-rule="evenodd" clip-rule="evenodd" fill="#8FBCE0" d="M27.097,10.12c-0.386,0.031-0.771-0.04-0.948-0.126
					c-0.108,0.06-0.356,0.423-0.39,0.635c0.35,0.261,1.354,0.442,2.03,0.292C27.424,10.744,27.232,10.492,27.097,10.12z"/>
			</g>
		</g>
		<g>
			<path fill-rule="evenodd" clip-rule="evenodd" fill="#361D07" d="M30.428,3.858c0.469,0.85,0.37,1.315,0.207,2.384
				c-0.101,0.653,0.184,1.111,0.775,1.494c3.642,2.349,1.195,4.065-0.285,5.241c-2.444,1.943-2.052,2.386-1.345,2.89
				c0.674,0.481,1.822,0.521,3.258,0.047c-4.681,4.085-10.077,0.478-7.22-3.002c0.611-0.744,1.468-1.437,1.826-2.168
				c0.787-1.608-1.459-2.248-2.355-3.646c-0.712-1.112-1.228-2.659-0.718-3.544c0.499-0.867,1.654-1.442,2.786-1.432
				C28.167,2.129,29.531,2.234,30.428,3.858z"/>
			<path fill-rule="evenodd" clip-rule="evenodd" fill="#241304" d="M25.196,2.869c-1.674,1.169-0.44,3.97,0.767,4.966
				c-0.876-1.001-2.112-3.551-0.791-4.635c-0.622,1.005-0.105,2.692,0.789,3.533c1.215,1.145,2.936,2.102,3.412,3.107
				c0.493,1.038-0.862,2.2-2.204,3.175c-1.113,0.807-1.602,1.528-1.602,2.172c0.002,1.153,1.729,1.981,3.486,1.914
				c-2.028-0.249-3.184-0.827-3.252-1.879c-0.039-0.597,0.358-1.296,1.406-2.091c1.026-0.779,3.249-1.901,2.301-3.359
				c-0.715-1.095-2.293-1.893-3.372-3.04c-0.714-0.76-1.334-2.147-0.655-3.106c-0.168,1.939,0.31,2.661,1.773,3.942
				c-0.861-0.875-1.8-2.663-0.598-4.266c-0.549,1.583,0.13,3.099,1.367,3.984c0.947,0.678,2.11,1.272,2.55,2.428
				c0.273,0.717,0.134,1.496-0.676,2.352c-1.029,1.088-2.617,1.616-3.285,2.718c-0.37,0.613-0.185,1.221,1.371,1.617
				c-1.233-0.435-1.491-0.968-1.214-1.529c0.499-1.013,2.099-1.629,3.171-2.758c0.88-0.925,1.038-1.729,0.738-2.463
				c-0.443-1.087-1.683-1.771-2.571-2.499c-0.772-0.633-1.246-2.482-0.335-3.668c-0.527,2.646,1.165,3.381,2.421,4.166
				c1.106,0.819,1.813,1.753,1.799,2.462c-0.015,0.736-0.379,1.456-0.939,2.021c-0.457,0.462-1.715,1.291-2.645,1.809
				c-0.835,0.465-1.51,1.289-0.433,1.939c0.513,0.309,1.441,0.541,3.014,0.565c-1.522-0.086-2.347-0.304-2.767-0.606
				c-0.709-0.512-0.365-1.232,0.231-1.65c0.815-0.571,2.202-1.553,2.649-2.003c0.672-0.678,1.132-1.475,1.021-2.203
				c-0.118-0.786-0.9-1.761-2.38-2.802c-1.081-0.945-1.357-2.286-0.737-3.499c0.706,0.479-0.181,2.821,1.696,3.487
				c-1.06-1.306,0.221-1.938-0.608-3.489c0.255,0.231,0.656,0.836,0.662,1.581c0.135-0.851-0.551-1.833-0.998-2.291l-2.501-0.748
				L25.196,2.869L25.196,2.869z M30.925,13.003c-1.924,1.763-2.45,2.082-1.027,2.993C27.414,15.121,29.609,13.93,30.925,13.003z"/>
			<path fill-rule="evenodd" clip-rule="evenodd" fill="#140A02" d="M24.774,3.206c-0.375,0.46-0.535,1.024-0.456,1.558
				c0.146,0.983,0.636,2.239,1.645,3.071c-0.495-0.565-1.457-1.872-1.525-3.071c-0.036-0.615,0.302-1.432,0.868-1.792
				c-0.267,0.433-0.729,2.251,0.561,3.561c-1.164-1.436-0.936-3.673,0.559-3.944c-1.126,0.673-1.038,3.057-0.1,3.936
				c-0.781-1.086-0.457-3.244,0.706-3.679c-0.469,0.824-0.644,2.745,0.528,3.971c-1.24-1.837-0.302-3.544,0.519-3.856
				c-0.615,1.57,0.129,3.164,0.896,3.771c-1.001-1.275-0.604-3.266,0.039-3.506c1.094,0.538,0.208,2.958,1.516,3.758
				c-1.079-1.018,0.207-2.032-0.89-3.803c0.317,0.073,0.956,0.836,1.113,1.592c-0.215-1.457-1.574-2.726-3.393-2.688
				C26.059,2.11,25.067,2.847,24.774,3.206z"/>
			<path fill-rule="evenodd" clip-rule="evenodd" fill="#4A2B12" d="M24.727,4.077c-0.077,1.521,0.583,2.734,1.416,3.575
				c1.312,1.325,1.647,1.59,1.854,2.188c0.429,1.235-0.744,1.745-1.827,2.908c-0.897,0.965-1.207,1.926-0.955,2.729
				c0.997,3.179,5.826,2.213,7.312,0.742c-1.793,1.279-6.625,1.505-7.178-0.885c-0.424-1.839,3.841-2.944,3.916-4.924
				c0.044-1.165-1.446-1.839-2.858-3.069C25.595,6.634,24.861,5.862,24.727,4.077L24.727,4.077z M29.032,4.105
				c0.011,0.521,0.036,1.115,0.172,1.602c0.641,2.275,4.16,1.661,4.096,4.646c-0.048,2.138-4.51,3.028-4.69,4.64
				c-0.119,1.056,2.688,1.389,3.561,1.162c-1.066,0.401-4.031,0.367-4.033-1.168c-0.003-0.71,1.527-1.394,2.649-2.364
				c0.956-0.827,1.765-1.942,1.45-2.871c-0.379-1.122-1.151-1.686-1.83-2.184c-0.701-0.514-1.264-0.947-1.425-1.864
				C28.911,5.304,28.907,4.74,29.032,4.105L29.032,4.105z M27.626,3.818c-0.35,2.052,0.435,2.636,1.128,3.083
				c1.301,0.841,3.175,1.598,3.131,3.57c-0.02,0.931-1.015,1.917-2.203,2.61c-1.345,0.782-2.589,1.275-2.541,2.078
				c0.074,1.249,3.119,1.293,3.98,1.288c-1.014,0.129-4.317,0.329-4.319-1.31c-0.001-0.711,1.416-1.378,2.54-2.349
				c0.957-0.826,1.891-1.958,1.577-2.886c-0.452-1.338-1.559-2.03-2.383-2.738C27.924,6.639,26.991,6.028,27.626,3.818L27.626,3.818
				z M26.38,3.904c-0.39,3.022,1.561,3.323,3.049,4.488c1.836,1.436,1.396,3.036-0.376,4.303c-0.735,0.525-2.637,1.479-2.706,2.437
				c-0.14,1.915,4.895,1.553,6.132,1.088c-1.597,0.87-6.24,1.387-6.337-1.072c-0.072-1.813,2.858-2.631,3.522-3.984
				c0.483-0.987,0.061-1.583-0.675-2.219C27.652,7.784,25.708,6.665,26.38,3.904z"/>
			<path fill-rule="evenodd" clip-rule="evenodd" fill="#7D512D" d="M25.908,7.162c0.29,0.353,0.708,0.715,0.962,0.974
				c0.798,0.809,1.314,1.365,1.472,1.818c0.427,1.234-0.979,1.962-2.061,3.125c-0.898,0.964-1.182,1.455-1.021,2.282
				c0.238,1.223,1.346,1.917,2.63,2.102c0.976,0.14,2.056-0.033,2.914-0.375c-1.068,0.381-4.894,0.529-5.518-1.731
				c-0.196-0.71,0.283-1.507,0.991-2.118c1.108-0.953,2.637-1.667,2.683-2.874C29,9.369,28.138,8.923,26.94,8.04
				C26.626,7.809,26.226,7.442,25.908,7.162L25.908,7.162z M29.832,6.934c1.849,1.067,3.363,1.725,3.277,3.42
				c-0.055,1.071-1.14,1.758-2.231,2.452c-1.085,0.689-2.424,1.388-2.403,2.196c0.023,0.9,1.282,1.136,2.47,1.276
				c-1-0.021-2.648-0.094-2.635-1.273c0.008-0.711,1.389-1.339,2.524-2.294c1.508-1.269,2.003-1.958,1.767-2.91
				C32.207,8.217,30.748,7.769,29.832,6.934L29.832,6.934z M28.609,6.998c1.156,0.792,3.104,1.689,3.069,3.267
				c-0.029,1.42-1.782,2.538-3.015,3.256c-0.685,0.399-1.261,0.77-1.521,1.174c-0.497,0.773,0.27,1.234,0.926,1.47
				c0.731,0.262,1.573,0.294,1.915,0.323c-0.335,0.011-1.234,0.038-2.001-0.215c-0.689-0.228-1.444-0.84-0.891-1.588
				c0.29-0.389,0.9-0.775,1.547-1.248c1.096-0.797,2.539-1.835,2.588-3.124C31.285,8.85,29.702,7.794,28.609,6.998L28.609,6.998z
				 M30.411,10.122c0.176,0.843-0.399,1.611-1.524,2.415c-0.734,0.525-2.553,1.516-2.626,2.473c-0.06,0.799,0.565,1.28,1.55,1.523
				c1.149,0.284,2.494,0.211,3.321,0.067c-0.664,0.146-2.313,0.385-3.373,0.12c-0.915-0.229-1.471-0.699-1.512-1.691
				c-0.034-0.861,1.391-1.758,2.476-2.59c0.809-0.62,1.497-1.417,1.352-2.286c-0.207-1.236-2.211-2.212-3.26-3.43
				C27.943,7.866,30.077,8.522,30.411,10.122z"/>
		</g>
	</g>
	<g>
		<g>
			<path fill-rule="evenodd" clip-rule="evenodd" fill="#087882" d="M21.343,14.72l-0.188-0.03l-1.827-2.099l-0.001-0.001
				c-0.048-0.05-0.097-0.109-0.16-0.142c-0.103-0.053-0.222-0.022-0.326,0.014l-1.093,0.421l-0.236-0.039l-0.039,0.234
				c-0.024,0.085,0.014,0.187,0.093,0.288l1.836,2.188c0.158,0.188,0.263,0.266,0.499,0.157l1.256-0.583
				c0.096-0.043,0.14-0.102,0.145-0.165L21.343,14.72z"/>
			<path fill-rule="evenodd" clip-rule="evenodd" fill="#045961" d="M21.303,14.962l0.03-0.183c-0.039,0.098-0.161,0.153-0.463,0.31
				c-0.159,0.083-0.337,0.167-0.476,0.24c-0.067,0.049-0.027,0.104,0.023,0.083c0.108-0.05,0.805-0.314,0.848-0.36
				c0.007-0.009,0.015-0.02,0.021-0.031C21.297,14.999,21.302,14.977,21.303,14.962z"/>
			<path fill-rule="evenodd" clip-rule="evenodd" fill="#045961" d="M17.503,12.904l-0.029,0.174c-0.021,0.076,0,0.157,0.072,0.239
				c0.354,0.403,1.033,1.18,1.422,1.642c0.041,0.036,0.092,0.009,0.044-0.059c-0.216-0.263-0.427-0.528-0.634-0.783
				c-0.182-0.223-0.446-0.561-0.596-0.748C17.584,13.125,17.511,13.043,17.503,12.904z"/>
			<path fill-rule="evenodd" clip-rule="evenodd" fill="#0BA6AA" d="M21.254,14.706l-0.099-0.016l-1.827-2.099l-0.001-0.001
				c-0.048-0.05-0.097-0.109-0.16-0.142c-0.103-0.053-0.222-0.022-0.326,0.014l-1.093,0.421l-0.141-0.023
				c-0.019,0.108-0.006,0.217,0.058,0.308c0.438,0.623,1.221,1.553,1.755,2.211c0.034,0.028-0.007,0.101-0.052,0.056
				c-0.447-0.499-1.62-1.911-1.801-2.068l1.836,2.188c0.158,0.188,0.263,0.266,0.499,0.157l1.256-0.583
				c-0.407,0.147-1.138,0.488-1.181,0.506c-0.032,0.014-0.053-0.013-0.051-0.042c0.003-0.035,0.021-0.078,0.047-0.088
				c0.561-0.288,0.858-0.403,1.084-0.589C21.117,14.866,21.231,14.772,21.254,14.706z"/>
			<path fill-rule="evenodd" clip-rule="evenodd" fill="#0DD9E0" d="M18.515,14.212c0.313,0.396,0.667,0.816,1.009,1.237
				c0.034,0.028-0.025,0.149-0.076,0.099l-0.319-0.343l0.274,0.346c0.157,0.188,0.262,0.268,0.499,0.159l0.375-0.195
				c-0.083,0.032-0.274,0.119-0.391,0.165c-0.088,0.038-0.116-0.121-0.043-0.148c0.097-0.05,0.198-0.097,0.291-0.157L18.515,14.212z
				"/>
			<path fill-rule="evenodd" clip-rule="evenodd" fill="#4EF6FC" d="M21.226,14.478l-1.857-2.134l-0.001,0
				c-0.048-0.05-0.097-0.109-0.16-0.142c-0.102-0.054-0.222-0.023-0.326,0.014l-1.188,0.458c-0.237,0.082-0.228,0.268-0.086,0.446
				l1.836,2.188c0.157,0.188,0.263,0.266,0.499,0.157l1.256-0.583C21.41,14.786,21.365,14.624,21.226,14.478z"/>
			<path fill-rule="evenodd" clip-rule="evenodd" fill="#160004" d="M19.331,12.38l1.857,2.133c0.162,0.17,0.117,0.264-0.011,0.321
				l-1.256,0.582c-0.188,0.087-0.27,0.057-0.437-0.143l-1.835-2.187c-0.148-0.187-0.1-0.306,0.063-0.364l1.19-0.458
				C19.16,12.174,19.208,12.252,19.331,12.38z"/>
			<path fill-rule="evenodd" clip-rule="evenodd" fill="#311B38" d="M19.313,12.536l1.572,1.806
				c0.137,0.144,0.099,0.222-0.009,0.271l-1.064,0.493c-0.159,0.073-0.228,0.048-0.37-0.121l-1.553-1.851
				c-0.125-0.158-0.084-0.259,0.054-0.308l1.007-0.388C19.169,12.362,19.209,12.429,19.313,12.536z"/>
			<path fill-rule="evenodd" clip-rule="evenodd" fill="#583663" d="M20.884,14.342c0.137,0.144,0.099,0.222-0.009,0.271
				l-1.064,0.493c-0.159,0.073-0.228,0.048-0.37-0.121l-1.553-1.851c-0.125-0.158-0.084-0.259,0.054-0.308
				C18.55,12.757,20.018,13.695,20.884,14.342z"/>
			
				<ellipse transform="matrix(0.1521 -0.9884 0.9884 0.1521 3.767 29.1521)" fill-rule="evenodd" clip-rule="evenodd" fill="#00FFFF" cx="18.874" cy="12.381" rx="0.042" ry="0.067"/>
			<g>
				<path fill-rule="evenodd" clip-rule="evenodd" fill="#02444A" d="M20.94,15.041c-0.044,0.003-0.086,0.042-0.093,0.085
					c-0.007,0.043,0.023,0.075,0.067,0.071s0.086-0.042,0.093-0.084C21.015,15.069,20.984,15.037,20.94,15.041z"/>
				<path fill-rule="evenodd" clip-rule="evenodd" fill="#011E21" d="M20.937,15.059c-0.034,0.003-0.065,0.033-0.071,0.066
					c-0.005,0.033,0.018,0.057,0.052,0.054c0.034-0.002,0.066-0.032,0.071-0.064C20.994,15.08,20.971,15.056,20.937,15.059z"/>
			</g>
		</g>
		<path fill-rule="evenodd" clip-rule="evenodd" fill="#F1B287" d="M19.419,16.246c-0.312-0.468-1.785-1.026-1.809-1.441
			l-0.085-1.501c0.174,0.212,0.462,0.547,0.654,0.743l0.674,0.694l-0.229-0.542c-0.082-0.196-0.248-0.672,0.007-0.76
			c0.05-0.017,0.173,0.123,0.361,0.48c0.187,0.357,0.355,0.241,0.739,0.667c0.286,0.317,0.255,0.614,0.855,0.98L19.419,16.246z"/>
		<path fill-rule="evenodd" clip-rule="evenodd" fill="#E8A476" d="M19.371,16.227c-0.215-0.304-0.463-0.254-0.868-0.504
			c-0.389-0.239-0.882-0.715-0.893-0.918l-0.085-1.501c0.068,0.313,0.24,0.772,0.448,0.95c0.279,0.241,0.78,0.505,0.962,0.706
			l-0.082-0.219c-0.101-0.238-0.255-0.547-0.318-0.79c-0.045-0.172-0.076-0.377,0.032-0.471c0,0.149,0.027,0.288,0.06,0.393
			c0.17,0.558,0.374,0.856,0.613,1.121c0.286,0.318,0.799,0.303,0.882,0.993L19.371,16.227z"/>
		<path fill-rule="evenodd" clip-rule="evenodd" fill="#729EC1" d="M23.852,12.229c-0.839,0.505-1.431,3.926-1.778,6.023
			c-0.308,0.73,1.51,2.426,1.939,0.689c0.252-1.021,0.583-2.398,0.74-3.248c0.174-0.945,0.508-2.732-0.305-3.342
			C24.312,12.25,24.014,12.131,23.852,12.229z"/>
		<path fill-rule="evenodd" clip-rule="evenodd" fill="#729EC1" d="M23.579,17.708l-3.232-2.551
			c-0.756-0.385-1.429,0.877-1.147,1.345l3.261,2.976c0.484,0.279,0.897,0.327,1.152,0.184c0.302-0.17,0.399-0.595,0.387-0.992
			C23.988,18.307,23.864,18.036,23.579,17.708z"/>
		<path fill-rule="evenodd" clip-rule="evenodd" fill="#6087A8" d="M19.425,15.458c-0.258,0.332-0.392,0.794-0.226,1.045
			l2.952,2.693c0.293,0.268,0.47,0.434,0.882,0.525c0.233,0.051,0.433,0.029,0.58-0.059c0.081-0.049,0.15-0.112,0.205-0.191
			C23.044,19.513,20.269,16.964,19.425,15.458z"/>
		<path fill-rule="evenodd" clip-rule="evenodd" fill="#6087A8" d="M23.613,12.375c-0.722,0.423-1.036,2.624-1.303,4.35
			c0.175,0.636,0.252,1.059,0.703,1.634c-0.451-1.443,0.837-5.179,1.304-6.086C24.098,12.188,23.821,12.252,23.613,12.375z"/>
		<path fill-rule="evenodd" clip-rule="evenodd" fill="#8FBCE0" d="M24.488,12.398c-0.456,0.866-0.924,2.864-1.246,5.211
			c-0.093,0.677,0.18,1.204,0.572,1.648C24.267,17.583,25.689,13.452,24.488,12.398z"/>
		<path fill-rule="evenodd" clip-rule="evenodd" fill="#8FBCE0" d="M20.303,15.135c-0.206-0.039-0.525,0.12-0.743,0.321
			c1.261,1.634,1.827,2.082,3.665,3.529c-0.708-0.969-0.855-1.544-1.041-2.359C21.573,16.093,20.981,15.672,20.303,15.135z"/>
	</g>
</g>
</svg>
