<?xml version="1.0" encoding="utf-8"?>
<!-- Generator: Adobe Illustrator 15.1.0, SVG Export Plug-In . SVG Version: 6.00 Build 0)  -->
<!DOCTYPE svg PUBLIC "-//W3C//DTD SVG 1.1//EN" "http://www.w3.org/Graphics/SVG/1.1/DTD/svg11.dtd">
<svg version="1.1" id="_x23_Layer_1" xmlns="http://www.w3.org/2000/svg" xmlns:xlink="http://www.w3.org/1999/xlink" x="0px"
	 y="0px" width="500px" height="300px" viewBox="0 0 500 300" enable-background="new 0 0 500 300" xml:space="preserve">
<path fill-rule="evenodd" clip-rule="evenodd" fill="#7E4000" stroke="#000000" stroke-width="1.0001" stroke-linecap="round" stroke-miterlimit="2.6131" d="
	M74.833,4.127c-0.403,9.663,0.402,51.132,0,67.64c-0.403,16.507-0.805,45.897-0.403,64.016c0.403,18.118,0.403,34.625,0.403,34.625
	s82.939,0.403,100.251,0c17.313-0.402,105.083,0.402,123.201,0.402c18.117,0,81.328-2.818,89.38-2.013
	c8.053,0.805,36.639,2.415,36.639,2.415s0.402-54.756,0.402-66.431c0-11.676-1.61-79.315-0.402-86.965
	c1.207-7.65,1.207-12.481,1.207-12.481s-84.549-0.403-97.433-0.806c-12.884-0.402-93.004-0.403-106.693-0.805
	c-13.688-0.402-66.028,0.806-78.107,0.403S75.638,3.724,74.833,4.127z"/>
<path fill-rule="evenodd" clip-rule="evenodd" fill="#017F01" stroke="#000000" stroke-width="1.0001" stroke-linecap="round" stroke-miterlimit="2.6131" d="
	M81.275,10.569c-0.805,8.455-2.818,49.521-1.208,64.016c1.611,14.494-0.805,48.717,0,57.977c0.805,9.26,0,31.001,0,31.001
	s62.003,1.208,70.458,1.208c8.455,0,93.81,0.805,103.07-0.402c9.26-1.208,68.847-0.806,74.483,0
	c5.637,0.805,90.589-0.403,90.589-0.403s-1.61-35.43-0.806-45.897c0.806-10.468,0.403-49.12,0-64.419
	c-0.402-15.299,1.208-44.288,1.208-44.288s-46.703,1.61-56.769,1.208c-10.065-0.403-93.004-0.805-103.473-0.403
	c-10.468,0.403-64.016-0.403-76.899-0.805s-72.471,1.611-80.121,0.403C94.159,8.556,81.275,10.166,81.275,10.569z"/>
<path fill-rule="evenodd" clip-rule="evenodd" fill="#EEDDD6" stroke="#000000" stroke-width="1.0001" stroke-linecap="round" stroke-miterlimit="2.6131" d="
	M128.678,60.468c-0.85,5.898-6.268,13.419-1.12,17.02c3.158,2.209,7.276,3.483,10.983,2.941c0.557-0.082,1.219-7.114,3.813-7.114
	c0.813-2.343,3.954,1.509,4.225-8c0.035-1.226,0.598-2.961-1.738-3.77c0.757-1.829-1.02-10.032-7.251-8.165
	C132.025,55.047,133.218,56.644,128.678,60.468z"/>
<path fill-rule="evenodd" clip-rule="evenodd" fill="#FFFE7F" stroke="#000000" stroke-width="1.0001" stroke-linecap="round" stroke-miterlimit="2.6131" d="
	M121.135,74.973c-1.161,2.321-1.658,2.486-3.481,3.979c-1.823,1.492-3.481,2.155-5.47,2.155c-1.989,0-5.802,2.156-7.128,4.642
	c-1.326,2.486-2.321,7.294-3.647,12.267c-1.326,4.973-3.647,10.277-2.818,15.417c0.829,5.139-0.166,9.946,2.652,10.609
	s4.31,1.657,5.802,0.995c1.492-0.663,4.973-1.327,4.973-1.327s0.166,5.802-1.16,8.952c-1.326,3.149-4.144,9.946-5.636,13.096
	c-1.492,3.149-0.829,4.642,0.829,4.642s27.518,1.492,31.662,0.663c4.145-0.829,9.78-0.663,11.272-2.32
	c1.492-1.658,3.978-1.824,3.978-1.824s-1.326-1.823-1.326-3.481s-0.498-5.968-0.166-12.433c0.332-6.465,0.332-13.924,1.161-17.24
	c0.829-3.315,1.326-9.615,1.326-9.615s11.604-1.491,15.085-2.818c3.481-1.326,10.443-3.813,13.096-5.47
	c2.652-1.658,9.449-8.786,9.449-13.096c0-4.31-5.968-6.134-8.123-5.636c-2.155,0.498-3.481,4.642-6.631,5.802
	c-3.15,1.16-13.427,2.487-16.08,1.989s-5.636,0.332-5.636,0.332l0.995-2.321c0,0-8.289-1.658-9.78-1.16
	c-1.492,0.497-2.818,1.989-3.315,0.829c-0.498-1.161-2.155-2.321-3.481-3.149c-1.326-0.829-15.25-2.487-15.25-2.487
	S120.969,75.139,121.135,74.973z"/>
<path fill-rule="evenodd" clip-rule="evenodd" fill="#AC8969" stroke="#000000" stroke-width="1.0001" stroke-linecap="round" stroke-miterlimit="2.6131" d="
	M130.75,46.958c-0.593,0.358-2.455,0.763-2.667,0.568c0.012,0.081-1.422,0.12-2.141,0.426c-3.744,2.145-9.117,7.451-9.117,12.059
	c0,5.191-0.291,7.142,2.543,11.466c2.075,3.167,4.747,4.992,0.549,8.577c-4.805,4.104-1.406,0.155-4.694,5.707
	c-3.951,6.673-1.977,5.38-0.057,10.927c0.832,2.404-1.794,9.274,0.995,6.962c0.251,0.977,1.758,0.98,1.658,2.155
	c2.46,0.852,1.332-2.268,4.807-5.47c2.464-2.27,4.808-10.071,5.968-13.427c-2.796-0.97-0.175-4.804-2.112-8
	c-1.854-3.057,3.939-2.846,6.422-1.824c4.086,1.683,3.58-6.872,5.096-7.625c2.271-1.128,6.95-13.424,5.058-16.08
	c-1.429-2.005,1.393-1.743-4.31-5.484c-0.854-0.561-2.481-2.737-4.561-1.478C134.176,46.425,131.378,46.759,130.75,46.958z"/>
<path fill-rule="evenodd" clip-rule="evenodd" fill="none" stroke="#000000" stroke-width="1.0001" stroke-linecap="round" stroke-miterlimit="2.6131" d="
	M110.692,99.175c1.049,4.665-0.9,14.85,0.952,19.892c0.081,0.219,0.241,4.871,0.208,5.636"/>
<path fill-rule="evenodd" clip-rule="evenodd" fill="none" stroke="#FFFFFF" stroke-width="2.0001" stroke-linecap="round" stroke-miterlimit="2.6131" d="
	M197.057,47.456c-0.74,1.026-2.056,6.591-2.818,7.293"/>
<path fill-rule="evenodd" clip-rule="evenodd" fill="#EEDDD6" stroke="#000000" stroke-width="1.0001" stroke-linecap="round" stroke-miterlimit="2.6131" d="
	M184.126,77.957c-0.876-1.049,3.481-5.68,3.481-10.775c0-5.668,1.078-3.481,2.984-7.294c-0.009,0.07,1.353-1.315,1.146-1.591
	c0.035-0.008,1.568-9.582,3.95-5.825c0.849,1.34-1.143,1.615,1.534,1.615c0,0.069,0.498,1.379,0.498,2.486
	c0.363,0-0.11,3.132,0.885,2.183c2.117,0.579,2.43-0.697,2.43,2.956c-0.23,0,0.497,2.493,0.497,2.818
	c-0.662,0,0.788,1.168-0.952,2.032c-2.262,1.123-8.994,11.622-8.994,15.042c-1.158-0.24-0.525-3.924-6.134-3.481
	C184.73,78.179,184.371,78.249,184.126,77.957z"/>
<path fill-rule="evenodd" clip-rule="evenodd" fill="none" stroke="#000000" stroke-width="1.0001" stroke-linecap="round" stroke-miterlimit="2.6131" d="
	M195.896,55.081c0.031,0.969-1.16,3.357-1.16,4.642"/>
<path fill-rule="evenodd" clip-rule="evenodd" fill="none" stroke="#000000" stroke-width="1.0001" stroke-linecap="round" stroke-miterlimit="2.6131" d="
	M198.383,59.888c-0.049,0.458-0.512,1.636-0.497,1.824"/>
<path fill-rule="evenodd" clip-rule="evenodd" fill="none" stroke="#000000" stroke-width="1.0001" stroke-linecap="round" stroke-miterlimit="2.6131" d="
	M200.538,63.038c-0.127,0.215-0.585,1.27-0.829,1.326"/>
<path fill-rule="evenodd" clip-rule="evenodd" fill="none" stroke="#000000" stroke-width="1.0001" stroke-linecap="round" stroke-miterlimit="2.6131" d="
	M151.802,89.726c-2.037,2.828,0.618,9.605,1.658,12.267"/>
<path fill-rule="evenodd" clip-rule="evenodd" fill="none" stroke="#000000" stroke-width="1.0001" stroke-linecap="round" stroke-miterlimit="2.6131" d="
	M159.759,85.416c0,1.346-0.529,4.002-1.326,4.973"/>
<path fill-rule="evenodd" clip-rule="evenodd" fill="none" stroke="#000000" stroke-width="1.0001" stroke-linecap="round" stroke-miterlimit="2.6131" d="
	M174.678,84.587c1.735,0.387,2.528,1.093,3.481,2.486"/>
<path fill-rule="evenodd" clip-rule="evenodd" fill="#7F7E00" stroke="#000000" stroke-width="1.0001" stroke-linecap="round" stroke-miterlimit="2.6131" d="
	M105.222,146.916c-0.663,1.824-2.984,7.792-2.984,12.598c0,4.808,0.332,8.62,1.16,12.433s1.326,7.626,1.658,15.251
	s0.498,11.935,1.326,17.737c0.829,5.802,0.829,4.476,0.498,7.625c-0.332,3.149-1.492,7.957-1.658,10.111
	c-0.166,2.155-1.161,4.311,0.663,4.642c1.824,0.332,9.117,2.818,12.433,4.311c3.315,1.491,12.102,2.983,14.09,2.652
	c1.989-0.332,9.946,1.989,13.262,0.331c3.315-1.657,5.139-1.657,5.636-3.149c0.498-1.492-0.332-0.829-0.332-5.802
	c0-4.974,0.332-8.123,0.663-16.411s0-17.737,0-22.876s-1.326-12.599-0.829-15.416c0.497-2.818-0.166-7.128-0.663-9.449
	c-0.498-2.32-2.321-2.652-1.658-4.642c0.663-1.988,0.498-7.293,0.332-8.122c-0.166-0.829-7.791-1.326-13.261-1.989
	s-14.421,1.16-18.897,0.829C112.184,147.248,109.697,148.739,105.222,146.916z"/>
<path fill-rule="evenodd" clip-rule="evenodd" fill="#EEDDD6" stroke="#000000" stroke-width="1.0001" stroke-linecap="round" stroke-miterlimit="2.6131" d="
	M107.045,228.142c0.497,4.808,0.995,7.626,2.818,14.422c1.824,6.796,3.813,10.609,3.647,14.919c-0.166,4.31-1.989,7.46-1.989,9.449
	c0,1.988,6.63,3.149,9.283,3.646c2.652,0.497,6.796,0.828,5.802,3.646s-4.145,5.637-3.481,8.123c0.663,2.486,4.31,3.481,5.305,3.979
	c0.994,0.497,7.957,3.315,9.78,3.48c1.824,0.166,8.455,1.823,10.609,0.995c2.155-0.829,6.133-2.321,5.802-3.813
	c-0.332-1.492-1.658-3.481-2.984-3.481s-4.31,0.166-5.802-1.16s-4.642-3.315-5.471-6.465c-0.829-3.15-2.486-5.305-1.326-11.106
	s1.989-17.737,2.486-21.219c0.497-3.48,0.995-8.62,0.995-8.62s-5.47,0-7.957-0.497c-2.487-0.497-8.454-0.663-8.454-0.663
	s-1.824,1.658-1.492,5.968c0.332,4.311,2.155,14.09,1.989,16.743c-0.166,2.652-0.332,4.31-0.332,4.31s-2.984-3.813-3.979-9.283
	s-2.652-12.433-1.823-14.09c0.829-1.658,1.326-4.476,1.326-4.476s-7.294-2.155-9.615-3.315S107.376,228.142,107.045,228.142z"/>
<path fill-rule="evenodd" clip-rule="evenodd" fill="none" stroke="#000000" stroke-width="1.0001" stroke-linecap="round" stroke-miterlimit="2.6131" d="
	M126.274,260.466c0.829,3.647,0.829,10.775,0.498,13.096"/>
<path fill-rule="evenodd" clip-rule="evenodd" fill="#191919" stroke="#000000" stroke-width="1.0001" stroke-linecap="round" stroke-miterlimit="2.6131" d="
	M111.355,267.014c-4.172-0.151-1.823,5.513-1.823,9.034c0.021,0,0.618,4.185,3.192,2.529c2.856-1.837,2.041,2.737,2.676-4.684
	c0.426-4.97,4.073-2.105,7.739-1.435c0.93,0.169,3.633,4.639,3.633-1.55c-1.73-1.131-11.577-1.889-13.082-2.875
	c-0.181-0.118-2.34-0.947-1.96-1.011L111.355,267.014z"/>
<path fill-rule="evenodd" clip-rule="evenodd" stroke="#191919" stroke-width="1.0001" stroke-linecap="round" stroke-miterlimit="2.6131" d="
	M138.624,269.086c0.005,0.001,5.169,2.312,1.683,3.287c-0.995,0.278-1.269-0.503-1.269-1.464
	C138.869,270.909,138.688,269.093,138.624,269.086z"/>
<path fill-rule="evenodd" clip-rule="evenodd" fill="#191919" stroke="#000000" stroke-width="1.0001" stroke-linecap="round" stroke-miterlimit="2.6131" d="
	M134.728,288.979c-2.133-0.571-10.935-4.936-11.547-5.831c-0.161-0.234-0.013-0.021-0.293,0.109l-0.261-0.246
	c-0.858,2.304-1.098,11.904,0.332,12.267c1.963,0.497,5.029,1.46,4.684-6.133c-0.173-3.813,2.835,1.173,4.973-0.124
	C133.127,288.71,134.923,289.45,134.728,288.979z"/>
<path fill-rule="evenodd" clip-rule="evenodd" fill="#191919" stroke="#000000" stroke-width="1.0001" stroke-linecap="round" stroke-miterlimit="2.6131" d="
	M144.342,282.016c-1.196,2.553-3.239,7.344-5.967,8.289c1.666,0.576,3.12,4.128,6.673,2.197c0.875-0.476,4.339-1.783,4.267-2.695
	c0.793,0.328,0.03-7.683-3.315-6.299L144.342,282.016z"/>
</svg>
