<svg width="450" height="450" xmlns="http://www.w3.org/2000/svg" xmlns:xlink="http://www.w3.org/1999/xlink">

 <style type="text/css">.st0{fill:#43494F;}
	.st1{fill:#9B3737;}
	.st2{fill:#B23F3F;}
	.st3{fill:#C44343;}
	.st4{fill:#D34444;}
	.st5{fill:#5D656D;}
	.st6{fill:#353B42;}
	.st7{fill:#FAA284;}
	.st8{fill:#D4D5D6;}
	.st9{fill:#3F464F;}
	.st10{fill:#E8EBEF;}
	.st11{fill:#B8BBBF;}
	.st12{fill:#EF8D72;}
	.st13{opacity:0.1;}
	.st14{clip-path:url(#SVGID_2_);}
	.st15{fill:#72382A;}
	.st16{fill:#5B2A21;}
	.st17{fill:#E0B155;}
	.st18{fill:#89493D;}
	.st19{opacity:0.9;}
	.st20{opacity:0;clip-path:url(#SVGID_4_);}
	.st21{clip-path:url(#SVGID_6_);fill:#EA7460;}
	.st22{opacity:0.0909;clip-path:url(#SVGID_4_);}
	.st23{clip-path:url(#SVGID_8_);fill:#EA7460;}
	.st24{opacity:0.1818;clip-path:url(#SVGID_4_);}
	.st25{clip-path:url(#SVGID_10_);fill:#EA7460;}
	.st26{opacity:0.2727;clip-path:url(#SVGID_4_);}
	.st27{clip-path:url(#SVGID_12_);fill:#EA7460;}
	.st28{opacity:0.3636;clip-path:url(#SVGID_4_);}
	.st29{clip-path:url(#SVGID_14_);fill:#EA7460;}
	.st30{opacity:0.4545;clip-path:url(#SVGID_4_);}
	.st31{clip-path:url(#SVGID_16_);fill:#EA7460;}
	.st32{opacity:0.5455;clip-path:url(#SVGID_4_);}
	.st33{clip-path:url(#SVGID_18_);fill:#EA7460;}
	.st34{opacity:0.6364;clip-path:url(#SVGID_4_);}
	.st35{clip-path:url(#SVGID_20_);fill:#EA7460;}
	.st36{opacity:0.7273;clip-path:url(#SVGID_4_);}
	.st37{clip-path:url(#SVGID_22_);fill:#EA7460;}
	.st38{opacity:0.8182;clip-path:url(#SVGID_4_);}
	.st39{clip-path:url(#SVGID_24_);fill:#EA7460;}
	.st40{opacity:0.9091;clip-path:url(#SVGID_4_);}
	.st41{clip-path:url(#SVGID_26_);fill:#EA7460;}
	.st42{clip-path:url(#SVGID_4_);}
	.st43{clip-path:url(#SVGID_28_);fill:#EA7460;}
	.st44{opacity:0;clip-path:url(#SVGID_30_);}
	.st45{clip-path:url(#SVGID_32_);fill:#EA7460;}
	.st46{opacity:0.0909;clip-path:url(#SVGID_30_);}
	.st47{clip-path:url(#SVGID_34_);fill:#EA7460;}
	.st48{opacity:0.1818;clip-path:url(#SVGID_30_);}
	.st49{clip-path:url(#SVGID_36_);fill:#EA7460;}
	.st50{opacity:0.2727;clip-path:url(#SVGID_30_);}
	.st51{clip-path:url(#SVGID_38_);fill:#EA7460;}
	.st52{opacity:0.3636;clip-path:url(#SVGID_30_);}
	.st53{clip-path:url(#SVGID_40_);fill:#EA7460;}
	.st54{opacity:0.4545;clip-path:url(#SVGID_30_);}
	.st55{clip-path:url(#SVGID_42_);fill:#EA7460;}
	.st56{opacity:0.5455;clip-path:url(#SVGID_30_);}
	.st57{clip-path:url(#SVGID_44_);fill:#EA7460;}
	.st58{opacity:0.6364;clip-path:url(#SVGID_30_);}
	.st59{clip-path:url(#SVGID_46_);fill:#EA7460;}
	.st60{opacity:0.7273;clip-path:url(#SVGID_30_);}
	.st61{clip-path:url(#SVGID_48_);fill:#EA7460;}
	.st62{opacity:0.8182;clip-path:url(#SVGID_30_);}
	.st63{clip-path:url(#SVGID_50_);fill:#EA7460;}
	.st64{opacity:0.9091;clip-path:url(#SVGID_30_);}
	.st65{clip-path:url(#SVGID_52_);fill:#EA7460;}
	.st66{clip-path:url(#SVGID_30_);}
	.st67{clip-path:url(#SVGID_54_);fill:#EA7460;}
	.st68{fill:#D3755F;}
	.st69{fill:#993434;}
	.st70{fill:#754439;}
	.st71{fill:#841819;}
	.st72{fill:#B42525;}
					#cup{
  animation: f32 5s linear infinite;
    animation-direction: initial;
  transform-origin: 28% 16%;
  transform-box: fill-box;
}
@keyframes f32 {
 0%{ transform: rotateZ(0deg);}
 10%{ transform: rotateZ(0deg);}

 30%{ transform: rotateZ(-73deg);}

 70%{ transform: rotateZ(-73deg);}
 80%{ transform: rotateZ(0deg);}
 
}
	#eyes {
	animation: ey 5s linear infinite;
  animation-direction: initial;
  transform-origin: 50% 50%;
  transform-box: fill-box;
}
@keyframes ey {
	0%{transform: rotateX(0deg)}
	5%{transform: rotateX(0deg)}
	8%{transform: rotateX(88deg)}
	10%{ transform: rotateZ(0deg);}
	60%{transform: rotateX(0deg)}
	63%{transform: rotateX(88deg)}
68%{ transform: rotateZ(0deg);}

100%{transform: rotateX(0deg)}
}
#m2 {
	animation: m2 5s linear infinite;
  animation-direction: initial;
  transform-origin: 50% 50%;
  transform-box: fill-box;
}
@keyframes m2 {
	0%{transform: scale(0);}
	29%{transform:scale(0)}
	30%{transform:scale(1)}
    69%{transform:scale(1)}
	70%{transform:scale(0)}

	100%{transform: scale(0);}

}
#mu1 {
	animation: m1 5s linear infinite;
  animation-direction: initial;
  transform-origin: 50% 50%;
  transform-box: fill-box;
}
@keyframes m1 {
	0%{transform: scale(1);}
	29%{transform:scale(1)}
	30%{transform:scale(0)}
    69%{transform:scale(0)}
	70%{transform:scale(1)}

	100%{transform: scale(1);}

}</style>
 <g>
  <title>Layer 1</title>
  <polygon id="svg_1" points="75.86668395996094,433.9666543006897 64.17666625976562,433.9666543006897 70.94667053222656,407.5066628456116 90.02665710449219,407.5066628456116 " class="st0"/>
  <polygon id="svg_2" points="310.39666748046875,433.9666543006897 322.0966796875,433.9666543006897 315.3266906738281,407.5066628456116 296.24664306640625,407.5066628456116 " class="st0"/>
  <path id="svg_3" d="m283.56667,198.00667c0,-7.71 -6.25,-13.96 -13.96,-13.96l-171.52,0c-7.71,0 -13.96,6.25 -13.96,13.96l0,146.9c0,7.71 6.25,13.96 13.96,13.96l171.52,0c7.71,0 13.96,-6.25 13.96,-13.96l0,-146.9z" class="st1"/>
  <path id="svg_4" d="m283.56667,198.00667c0,-7.71 -6.25,-13.96 -13.96,-13.96l-127.82,0c-7.71,0 -13.96,6.25 -13.96,13.96l0,148.13c0,7.71 6.25,13.96 13.96,13.96l127.82,0c7.71,0 13.96,-6.25 13.96,-13.96l0,-148.13z" class="st2"/>
  <path id="svg_5" d="m398.06667,247.64667c0,-7.58 -6.14,-13.73 -13.71,-13.73l-87.08,0c-7.57,0 -13.71,6.15 -13.71,13.73l0,146.12c0,7.58 6.14,13.73 13.71,13.73l87.08,0c7.57,0 13.71,-6.15 13.71,-13.73l0,-146.12z" class="st1"/>
  <path id="svg_6" d="m353.74667,326.66667c0,-7.71 -6.25,-13.96 -13.96,-13.96l-197.38,0c-7.71,0 -13.96,6.25 -13.96,13.96l0,18.86c0,7.71 6.25,13.96 13.96,13.96l197.38,0c7.71,0 13.96,-6.25 13.96,-13.96l0,-18.86z" class="st3"/>
  <path id="svg_7" d="m127.82667,393.57667c0,7.71 9.51,13.93 13.1,13.93l225.18,0c15.69,0 17.79,-6.22 17.79,-13.93l0,-20.1c0,-7.71 -6.68,-13.99 -14.97,-13.99l-226.68,0c-8.29,0 -14.42,6.28 -14.42,13.99l0,20.1z" class="st4"/>
  <path id="svg_8" d="m398.06667,247.87667c0,-7.71 -6.25,-13.96 -13.96,-13.96l-17.02,0c-7.71,0 -13.96,6.25 -13.96,13.96l0,145.67c0,7.71 6.25,13.96 13.96,13.96l17.02,0c7.71,0 13.96,-6.25 13.96,-13.96l0,-145.67z" class="st4"/>
  <path id="svg_9" d="m172.14667,247.87667c0,-7.71 -6.25,-13.96 -13.96,-13.96l-86.58,0c-7.71,0 -13.96,6.25 -13.96,13.96l0,145.67c0,7.71 6.25,13.96 13.96,13.96l86.58,0c7.71,0 13.96,-6.25 13.96,-13.96l0,-145.67z" class="st1"/>
  <path id="svg_10" d="m172.76667,247.87667c0,-7.71 -6.25,-13.96 -13.96,-13.96l-17.02,0c-7.71,0 -13.96,6.25 -13.96,13.96l0,145.67c0,7.71 6.25,13.96 13.96,13.96l17.02,0c7.71,0 13.96,-6.25 13.96,-13.96l0,-145.67z" class="st4"/>
  <polygon id="svg_11" points="144.81666564941406,433.9666543006897 133.11668395996094,433.9666543006897 139.8866729736328,407.5066628456116 158.97666931152344,407.5066628456116 " class="st5"/>
  <polygon id="svg_12" points="379.3466796875,433.9666543006897 391.03668212890625,433.9666543006897 384.26666259765625,407.5066628456116 365.1866760253906,407.5066628456116 " class="st5"/>
  <path id="svg_13" d="m273.29667,393.76667c0,0 11.17,40.2 7.07,40.82l-22.31,0c0,0 -3.33,1.26 0.28,-40l8.13,-0.97l6.83,0.15z" class="st6"/>
  <path id="svg_14" d="m273.29667,393.63667l3.72,30.54c-1.94,0.41 -12.24,-1.61 -16.1,1.23c0,0 -2.36,-13.99 -2.59,-31.73l6.9,-9.24l8.07,9.2z" class="st7"/>
  <path id="svg_15" d="m297.95667,393.02667c5.08,14.56 18.2,30.54 18.2,30.54l11.43,1.31l11.45,2.67c0,0 2.87,2.74 0.36,7.05l-29.1,0l-9.95,-24.79l0.68,24.79l-3.04,0l-6.2,-30.6c0.01,-0.01 0.63,-7.19 6.17,-10.97" class="st6"/>
  <path id="svg_16" d="m297.95667,392.98667l7.31,-6.65l8.22,6.64c0,0 8.87,28.2 14.1,31.89l-10.45,-0.08c0.01,0.01 -14.1,-17.24 -19.18,-31.8" class="st7"/>
  <path id="svg_17" d="m317.96667,222.28667c0,0 -3.6,2.61 -3.53,6.19c0.07,3.88 2.59,5 3.53,5.19c0,0 5.35,3.58 13.28,1.87c7.94,-1.71 4.95,-2.86 7.5,-2.41c2.55,0.45 6.03,2.69 9.03,3.13c5.63,0.83 11.23,-5.57 11.23,-5.57s-7.46,-5.39 -16.61,-8.74c-9.14,-3.34 -24.43,0.34 -24.43,0.34" class="st7"/>
  <path id="svg_18" d="m253.39667,137.89667c0,0 9.02,6.85 12.67,24.02c0,0 3.9,12.31 9.9,38.47c0,0 22.01,12.78 43.56,20.17l-1.54,13.69c0,0 -46.75,0.1 -57.09,-19.4c-12.32,-23.19 -17.65,-65.86 -7.5,-76.95" class="st8"/>
  <path id="svg_19" d="m338.33667,286.09667c-7.91,-13.7 -30.52,-18.63 -81.4,-25.29l-3.46,-15.68c-22.81,5.66 -33.15,59.94 -3.39,64.7c17.74,2.84 41.61,-2.15 55.9,-1.88c-5.23,15.07 -9.55,46.63 -11.09,84.79l20.88,0c-0.01,-0.01 31.53,-94.64 22.56,-106.64" class="st6"/>
  <path id="svg_20" d="m296.11667,295.17667c-0.37,-0.12 4.73,-21.03 -55.19,-25.65c6.14,-5.59 9.43,-15.5 12.54,-24.31l-3.14,-14.81l-53.92,0.71c0,0 -4.4,5.91 -13.75,37.71c-0.26,0.46 -0.41,0.97 -0.45,1.54c0,0 -10.84,46.69 37.93,44.86c13.25,0.43 30.52,-4.66 40.91,-4.36c-3.09,17.41 -4.39,27.39 -5,83.49l19.51,-0.06c-0.01,0 23.64,-90.19 20.56,-99.12" class="st9"/>
  <path id="svg_21" d="m240.92667,269.53667l-22.07,-5.44c0,0 23.6,4.62 30.83,-4.24c0,-0.01 0.11,9.16 -8.76,9.68" class="st6"/>
  <path id="svg_22" d="m202.95667,133.85667c0,0 11.25,-2.5 17.4,-2.57c6.15,-0.07 15.6,2.2 15.6,2.2c11.73,1.86 17.42,4.41 17.42,4.41l2.46,16.98c9.65,12.35 10.19,16.43 10.19,21.89c0,9.46 -8.37,16.49 -8.37,16.49l-7.33,37.16c-32.1,12.48 -54.04,0.71 -54.04,0.71c-3.56,-24.25 -13.05,-55.33 -13.05,-55.33l0,-36.04c4.92,-2.25 14.72,-4.46 19.72,-5.9" class="st10"/>
  <path id="svg_23" d="m233.53667,154.31667l-9.34,-8.72l-4.88,10.77c0,0 -15.03,-8.78 -16.15,-22.53c0.67,-0.15 11.33,-2.49 17.28,-2.56c6.15,-0.07 15.55,2.2 15.55,2.2c0.12,0.03 0.23,0.06 0.34,0.09c0.43,4.03 0.75,12.68 -2.8,20.75" class="st11"/>
  <path id="svg_24" d="m228.67667,126.35667l0.06,15.23l-18.64,0.08l-0.08,-19.82c7.75,5.07 15.48,4.92 18.66,4.51" class="st7"/>
  <path id="svg_25" d="m210.01667,121.84667l-0.06,-15.27l18.64,-0.07l0.08,19.85c-3.18,0.41 -10.91,0.56 -18.66,-4.51" class="st12"/>
  <path id="svg_26" d="m228.67667,126.35667c0,0 0.39,9.59 -5.74,13.12c0,0 -12.04,-3.29 -12.9,-13.12l-6.91,7.49c0,0 4.37,12.82 15.61,18.06l4.58,-10.28l9.45,9.34c0,0 3.83,-10.9 3.19,-18.06l-7.28,-6.55z" class="st10"/>
  <g id="svg_27" class="st13">
   <g id="svg_28">
    <defs transform="translate(-4,-5.333333492279053) translate(-177.3333282470703,8) ">
     <rect height="16.3" width="67.58" y="174.69" x="376.77" id="SVGID_1_"/>
    </defs>
    <clipPath transform="translate(-4,-5.333333492279053) translate(-177.3333282470703,8) " id="SVGID_2_">
     <use id="svg_29" xlink:href="#SVGID_1_"/>
    </clipPath>
    <path id="svg_30" d="m263.02667,182.62667c0,0 -2.44,2.06 -7.74,2.52c-10.7,0.92 -28.24,2.85 -43.71,0.36c-6.49,-1.04 -11.26,-4.32 -16.14,-8.15c0,0 2.91,16.63 23.24,16.29c20.34,-0.33 43.07,2.17 44.35,-11.02" class="st14"/>
   </g>
  </g>
  <path id="svg_31" d="m247.10667,80.96667c0,0 15.83,8.98 5.16,22.77c0,-0.01 3.02,-13.63 -5.16,-22.77" class="st15"/>
  <path id="svg_32" d="m204.16667,32.46667c0,0 -11.89,-22.2 -30.76,-5.5c0,0 -14.75,11.32 -9.13,19.18c5.62,7.86 -14.7,17 -0.05,33.82c14.65,16.82 -16.81,20.96 6.67,41.42c0,0 6.7,6.66 0.8,15.3c0,0 23.92,-3.35 21.32,-23.28c0,0 3.74,7.35 0.47,15.06c0,0 12.8,-12.22 8.47,-23.41c-4.33,-11.18 -4.24,-21.77 -0.22,-26.24c4.03,-4.45 13.51,-24.91 2.43,-46.35" class="st16"/>
  <path id="svg_33" d="m209.16667,32.06667c0,0 -4.68,-6.76 -13.11,-0.54c-8.43,6.21 -2.34,10.66 -2.34,10.66l15.45,-10.12z" class="st17"/>
  <path id="svg_34" d="m248.95667,81.57667l1.39,-4.94c0,0 3.74,-0.29 6.05,0.17c0,0 13.16,-32.32 -16.62,-38.03c0,0 -17.25,-15.47 -40.43,-3.98c0,0 -26.9,10.56 -13.98,44.4l18.27,15.92l45.32,-13.54z" class="st15"/>
  <path id="svg_35" d="m191.71667,57.77667c30.72,5.43 50.61,-9.56 57.31,-15.74c8.18,4.69 10.31,12.61 10.27,19.72c-38.59,11.28 -67.58,-3.98 -67.58,-3.98" class="st18"/>
  <path id="svg_36" d="m191.43667,79.00667l0.49,0.17c0,0 12.63,7.8 14.48,-23.29c4.92,5.54 5,19.15 5,19.15c6.43,-1.31 19.67,-0.32 19.67,-0.32c2.29,-22.16 -3.85,-29.36 -3.85,-29.36c11.23,5.29 8.48,29.28 8.48,29.28c4.87,-0.55 8.66,1.02 8.66,1.02l4.49,0.48c0,0 0.12,14.54 -0.43,20.51c-1.07,11.7 -7.15,20.25 -18.62,22.96c-27.66,6.52 -35.46,-19.76 -35.46,-19.76s-10.4,0.22 -11.61,-13.23c-0.98,-10.99 8.7,-7.61 8.7,-7.61" class="st7"/>
  <path id="svg_37" d="m196.78667,97.00667c0,0 7.5,19.43 23,21.53c9.44,1.28 17.55,-2.75 22.46,-6.1c-3.03,3.45 -7.16,5.94 -12.44,7.18c-27.66,6.52 -35.46,-19.76 -35.46,-19.76s-8.24,0.11 -10.89,-9.24c6.92,9.59 13.33,6.39 13.33,6.39" class="st12"/>
  <g id="svg_38" class="st19">
   <g id="svg_39">
    <defs transform="translate(-4,-5.333333492279053) translate(-177.3333282470703,8) ">
     <rect height="22.39" width="22.39" y="83.96" x="409.29" id="SVGID_3_"/>
    </defs>
    <clipPath transform="translate(-4,-5.333333492279053) translate(-177.3333282470703,8) " id="SVGID_4_">
     <use id="svg_40" xlink:href="#SVGID_3_"/>
    </clipPath>
    <g id="svg_41" class="st20">
     <g id="svg_42">
      <defs transform="translate(-4,-5.333333492279053) translate(-177.3333282470703,8) ">
       <rect height="22.39" width="22.39" y="83.96" x="409.29" id="SVGID_5_"/>
      </defs>
      <clipPath transform="translate(-4,-5.333333492279053) translate(-177.3333282470703,8) " id="SVGID_6_">
       <use id="svg_43" xlink:href="#SVGID_5_"/>
      </clipPath>
      <path id="svg_44" d="m227.95667,97.88667c0.03,6.18 5.07,11.17 11.26,11.13c6.18,-0.03 11.17,-5.07 11.13,-11.25c-0.03,-6.18 -5.07,-11.17 -11.26,-11.13c-6.18,0.03 -11.16,5.06 -11.13,11.25" class="st21"/>
     </g>
    </g>
    <g id="svg_45" class="st22">
     <g id="svg_46">
      <defs transform="translate(-4,-5.333333492279053) translate(-177.3333282470703,8) ">
       <rect height="20.42" width="20.42" y="84.94" x="410.28" id="SVGID_7_"/>
      </defs>
      <clipPath transform="translate(-4,-5.333333492279053) translate(-177.3333282470703,8) " id="SVGID_8_">
       <use id="svg_47" xlink:href="#SVGID_7_"/>
      </clipPath>
      <path id="svg_48" d="m239.09667,87.60667c-5.64,0.03 -10.18,4.63 -10.15,10.27c0.03,5.64 4.63,10.18 10.27,10.15c5.64,-0.03 10.18,-4.63 10.15,-10.27c-0.04,-5.63 -4.63,-10.18 -10.27,-10.15" class="st23"/>
     </g>
    </g>
    <g id="svg_49" class="st24">
     <g id="svg_50">
      <defs transform="translate(-4,-5.333333492279053) translate(-177.3333282470703,8) ">
       <rect height="18.45" width="18.45" y="85.93" x="411.26" id="SVGID_9_"/>
      </defs>
      <clipPath transform="translate(-4,-5.333333492279053) translate(-177.3333282470703,8) " id="SVGID_10_">
       <use id="svg_51" xlink:href="#SVGID_9_"/>
      </clipPath>
      <path id="svg_52" d="m239.10667,88.59667c-5.09,0.03 -9.2,4.18 -9.17,9.28c0.03,5.1 4.18,9.2 9.28,9.18c5.1,-0.03 9.2,-4.18 9.18,-9.28c-0.05,-5.1 -4.2,-9.21 -9.29,-9.18" class="st25"/>
     </g>
    </g>
    <g id="svg_53" class="st26">
     <g id="svg_54">
      <defs transform="translate(-4,-5.333333492279053) translate(-177.3333282470703,8) ">
       <rect height="16.49" width="16.49" y="86.91" x="412.24" id="SVGID_11_"/>
      </defs>
      <clipPath transform="translate(-4,-5.333333492279053) translate(-177.3333282470703,8) " id="SVGID_12_">
       <use id="svg_55" xlink:href="#SVGID_11_"/>
      </clipPath>
      <path id="svg_56" d="m239.10667,89.57667c-4.55,0.03 -8.22,3.74 -8.2,8.29s3.74,8.22 8.29,8.2c4.55,-0.03 8.22,-3.74 8.2,-8.29c-0.03,-4.55 -3.74,-8.22 -8.29,-8.2" class="st27"/>
     </g>
    </g>
    <g id="svg_57" class="st28">
     <g id="svg_58">
      <defs transform="translate(-4,-5.333333492279053) translate(-177.3333282470703,8) ">
       <rect height="14.52" width="14.52" y="87.89" x="413.23" id="SVGID_13_"/>
      </defs>
      <clipPath transform="translate(-4,-5.333333492279053) translate(-177.3333282470703,8) " id="SVGID_14_">
       <use id="svg_59" xlink:href="#SVGID_13_"/>
      </clipPath>
      <path id="svg_60" d="m239.11667,90.55667c-4.01,0.02 -7.24,3.29 -7.22,7.3c0.02,4.01 3.29,7.24 7.3,7.22c4.01,-0.02 7.24,-3.29 7.22,-7.3c-0.03,-4.01 -3.29,-7.24 -7.3,-7.22" class="st29"/>
     </g>
    </g>
    <g id="svg_61" class="st30">
     <g id="svg_62">
      <defs transform="translate(-4,-5.333333492279053) translate(-177.3333282470703,8) ">
       <rect height="12.55" width="12.55" y="88.88" x="414.21" id="SVGID_15_"/>
      </defs>
      <clipPath transform="translate(-4,-5.333333492279053) translate(-177.3333282470703,8) " id="SVGID_16_">
       <use id="svg_63" xlink:href="#SVGID_15_"/>
      </clipPath>
      <path id="svg_64" d="m239.11667,91.54667c-3.47,0.02 -6.26,2.85 -6.24,6.31c0.02,3.47 2.85,6.26 6.31,6.24c3.47,-0.02 6.26,-2.84 6.24,-6.31c-0.02,-3.47 -2.84,-6.26 -6.31,-6.24" class="st31"/>
     </g>
    </g>
    <g id="svg_65" class="st32">
     <g id="svg_66">
      <defs transform="translate(-4,-5.333333492279053) translate(-177.3333282470703,8) ">
       <rect height="10.59" width="10.58" y="89.86" x="415.19" id="SVGID_17_"/>
      </defs>
      <clipPath transform="translate(-4,-5.333333492279053) translate(-177.3333282470703,8) " id="SVGID_18_">
       <use id="svg_67" xlink:href="#SVGID_17_"/>
      </clipPath>
      <path id="svg_68" d="m239.12667,92.52667c-2.92,0.02 -5.28,2.4 -5.26,5.32c0.02,2.92 2.4,5.28 5.32,5.26c2.92,-0.02 5.28,-2.4 5.26,-5.32c-0.02,-2.92 -2.4,-5.27 -5.32,-5.26" class="st33"/>
     </g>
    </g>
    <g id="svg_69" class="st34">
     <g id="svg_70">
      <defs transform="translate(-4,-5.333333492279053) translate(-177.3333282470703,8) ">
       <rect height="8.62" width="8.62" y="90.85" x="416.18" id="SVGID_19_"/>
      </defs>
      <clipPath transform="translate(-4,-5.333333492279053) translate(-177.3333282470703,8) " id="SVGID_20_">
       <use id="svg_71" xlink:href="#SVGID_19_"/>
      </clipPath>
      <path id="svg_72" d="m239.12667,93.51667c-2.38,0.01 -4.3,1.95 -4.29,4.33c0.01,2.38 1.95,4.3 4.33,4.28c2.38,-0.01 4.3,-1.95 4.29,-4.33c-0.01,-2.38 -1.95,-4.3 -4.33,-4.28" class="st35"/>
     </g>
    </g>
    <g id="svg_73" class="st36">
     <g id="svg_74">
      <defs transform="translate(-4,-5.333333492279053) translate(-177.3333282470703,8) ">
       <rect height="6.65" width="6.65" y="91.83" x="417.16" id="SVGID_21_"/>
      </defs>
      <clipPath transform="translate(-4,-5.333333492279053) translate(-177.3333282470703,8) " id="SVGID_22_">
       <use id="svg_75" xlink:href="#SVGID_21_"/>
      </clipPath>
      <path id="svg_76" d="m239.13667,94.49667c-1.84,0.01 -3.32,1.51 -3.31,3.34c0.01,1.84 1.51,3.32 3.34,3.31c1.84,-0.01 3.32,-1.51 3.31,-3.34c-0.01,-1.84 -1.51,-3.32 -3.34,-3.31" class="st37"/>
     </g>
    </g>
    <g id="svg_77" class="st38">
     <g id="svg_78">
      <defs transform="translate(-4,-5.333333492279053) translate(-177.3333282470703,8) ">
       <rect height="4.68" width="4.69" y="92.81" x="418.14" id="SVGID_23_"/>
      </defs>
      <clipPath transform="translate(-4,-5.333333492279053) translate(-177.3333282470703,8) " id="SVGID_24_">
       <use id="svg_79" xlink:href="#SVGID_23_"/>
      </clipPath>
      <path id="svg_80" d="m239.13667,95.47667c-1.29,0.01 -2.34,1.06 -2.33,2.36c0.01,1.29 1.06,2.34 2.36,2.33c1.29,-0.01 2.34,-1.06 2.33,-2.36c-0.01,-1.29 -1.06,-2.33 -2.36,-2.33" class="st39"/>
     </g>
    </g>
    <g id="svg_81" class="st40">
     <g id="svg_82">
      <defs transform="translate(-4,-5.333333492279053) translate(-177.3333282470703,8) ">
       <rect height="2.72" width="2.72" y="93.8" x="419.13" id="SVGID_25_"/>
      </defs>
      <clipPath transform="translate(-4,-5.333333492279053) translate(-177.3333282470703,8) " id="SVGID_26_">
       <use id="svg_83" xlink:href="#SVGID_25_"/>
      </clipPath>
      <path id="svg_84" d="m239.14667,96.46667c-0.75,0 -1.36,0.62 -1.35,1.37c0,0.75 0.62,1.35 1.37,1.35c0.75,0 1.36,-0.61 1.35,-1.37c-0.01,-0.75 -0.62,-1.36 -1.37,-1.35" class="st41"/>
     </g>
    </g>
    <g id="svg_85" class="st42">
     <g id="svg_86">
      <defs transform="translate(-4,-5.333333492279053) translate(-177.3333282470703,8) ">
       <rect height="0.75" width="0.75" y="94.78" x="420.11" id="SVGID_27_"/>
      </defs>
      <clipPath transform="translate(-4,-5.333333492279053) translate(-177.3333282470703,8) " id="SVGID_28_">
       <use id="svg_87" xlink:href="#SVGID_27_"/>
      </clipPath>
      <path id="svg_88" d="m238.77667,97.82667c0,0.21 0.17,0.37 0.38,0.37c0.21,0 0.38,-0.17 0.37,-0.38c0,-0.21 -0.17,-0.37 -0.38,-0.37c-0.2,0 -0.37,0.17 -0.37,0.38" class="st43"/>
     </g>
    </g>
   </g>
  </g>
  <g id="svg_89" class="st19">
   <g id="svg_90">
    <defs transform="translate(-4,-5.333333492279053) translate(-177.3333282470703,8) ">
     <rect height="25.85" width="25.85" y="81.77" x="378.01" id="SVGID_29_"/>
    </defs>
    <clipPath transform="translate(-4,-5.333333492279053) translate(-177.3333282470703,8) " id="SVGID_30_">
     <use id="svg_91" xlink:href="#SVGID_29_"/>
    </clipPath>
    <g id="svg_92" class="st44">
     <g id="svg_93">
      <defs transform="translate(-4,-5.333333492279053) translate(-177.3333282470703,8) ">
       <rect height="25.85" width="25.85" y="81.77" x="378.01" id="SVGID_31_"/>
      </defs>
      <clipPath transform="translate(-4,-5.333333492279053) translate(-177.3333282470703,8) " id="SVGID_32_">
       <use id="svg_94" xlink:href="#SVGID_31_"/>
      </clipPath>
      <path id="svg_95" d="m196.67667,97.43667c0.04,7.14 5.86,12.89 13,12.85c7.14,-0.04 12.89,-5.86 12.86,-13c-0.04,-7.14 -5.86,-12.9 -13,-12.86c-7.14,0.05 -12.9,5.87 -12.86,13.01" class="st45"/>
     </g>
    </g>
    <g id="svg_96" class="st46">
     <g id="svg_97">
      <defs transform="translate(-4,-5.333333492279053) translate(-177.3333282470703,8) ">
       <rect height="23.58" width="23.58" y="82.91" x="379.15" id="SVGID_33_"/>
      </defs>
      <clipPath transform="translate(-4,-5.333333492279053) translate(-177.3333282470703,8) " id="SVGID_34_">
       <use id="svg_98" xlink:href="#SVGID_33_"/>
      </clipPath>
      <path id="svg_99" d="m209.53667,85.57667c-6.51,0.04 -11.76,5.34 -11.73,11.86c0.04,6.51 5.34,11.76 11.86,11.73c6.51,-0.04 11.76,-5.34 11.73,-11.86c-0.04,-6.52 -5.35,-11.76 -11.86,-11.73" class="st47"/>
     </g>
    </g>
    <g id="svg_100" class="st48">
     <g id="svg_101">
      <defs transform="translate(-4,-5.333333492279053) translate(-177.3333282470703,8) ">
       <rect height="21.31" width="21.31" y="84.05" x="380.28" id="SVGID_35_"/>
      </defs>
      <clipPath transform="translate(-4,-5.333333492279053) translate(-177.3333282470703,8) " id="SVGID_36_">
       <use id="svg_102" xlink:href="#SVGID_35_"/>
      </clipPath>
      <path id="svg_103" d="m209.54667,86.71667c-5.88,0.03 -10.63,4.83 -10.6,10.71c0.03,5.88 4.83,10.63 10.71,10.6c5.88,-0.03 10.63,-4.83 10.6,-10.71c-0.03,-5.89 -4.83,-10.64 -10.71,-10.6" class="st49"/>
     </g>
    </g>
    <g id="svg_104" class="st50">
     <g id="svg_105">
      <defs transform="translate(-4,-5.333333492279053) translate(-177.3333282470703,8) ">
       <rect height="19.04" width="19.04" y="85.18" x="381.42" id="SVGID_37_"/>
      </defs>
      <clipPath transform="translate(-4,-5.333333492279053) translate(-177.3333282470703,8) " id="SVGID_38_">
       <use id="svg_106" xlink:href="#SVGID_37_"/>
      </clipPath>
      <path id="svg_107" d="m209.54667,87.84667c-5.26,0.03 -9.5,4.31 -9.47,9.57c0.03,5.26 4.32,9.5 9.57,9.47c5.26,-0.03 9.5,-4.31 9.47,-9.57c-0.02,-5.26 -4.31,-9.5 -9.57,-9.47" class="st51"/>
     </g>
    </g>
    <g id="svg_108" class="st52">
     <g id="svg_109">
      <defs transform="translate(-4,-5.333333492279053) translate(-177.3333282470703,8) ">
       <rect height="16.77" width="16.77" y="86.32" x="382.55" id="SVGID_39_"/>
      </defs>
      <clipPath transform="translate(-4,-5.333333492279053) translate(-177.3333282470703,8) " id="SVGID_40_">
       <use id="svg_110" xlink:href="#SVGID_39_"/>
      </clipPath>
      <path id="svg_111" d="m209.55667,88.98667c-4.63,0.03 -8.36,3.8 -8.34,8.43c0.03,4.63 3.8,8.36 8.43,8.34c4.63,-0.03 8.36,-3.8 8.34,-8.43c-0.03,-4.64 -3.8,-8.37 -8.43,-8.34" class="st53"/>
     </g>
    </g>
    <g id="svg_112" class="st54">
     <g id="svg_113">
      <defs transform="translate(-4,-5.333333492279053) translate(-177.3333282470703,8) ">
       <rect height="14.5" width="14.5" y="87.45" x="383.69" id="SVGID_41_"/>
      </defs>
      <clipPath transform="translate(-4,-5.333333492279053) translate(-177.3333282470703,8) " id="SVGID_42_">
       <use id="svg_114" xlink:href="#SVGID_41_"/>
      </clipPath>
      <path id="svg_115" d="m209.56667,90.11667c-4,0.02 -7.23,3.28 -7.21,7.29c0.02,4 3.29,7.23 7.29,7.21c4,-0.02 7.23,-3.28 7.21,-7.29c-0.03,-4 -3.29,-7.23 -7.29,-7.21" class="st55"/>
     </g>
    </g>
    <g id="svg_116" class="st56">
     <g id="svg_117">
      <defs transform="translate(-4,-5.333333492279053) translate(-177.3333282470703,8) ">
       <rect height="12.22" width="12.23" y="88.59" x="384.82" id="SVGID_43_"/>
      </defs>
      <clipPath transform="translate(-4,-5.333333492279053) translate(-177.3333282470703,8) " id="SVGID_44_">
       <use id="svg_118" xlink:href="#SVGID_43_"/>
      </clipPath>
      <path id="svg_119" d="m209.56667,91.25667c-3.38,0.02 -6.1,2.77 -6.08,6.15c0.02,3.38 2.77,6.1 6.15,6.08c3.38,-0.02 6.1,-2.77 6.08,-6.15c-0.02,-3.38 -2.77,-6.1 -6.15,-6.08" class="st57"/>
     </g>
    </g>
    <g id="svg_120" class="st58">
     <g id="svg_121">
      <defs transform="translate(-4,-5.333333492279053) translate(-177.3333282470703,8) ">
       <rect height="9.95" width="9.95" y="89.72" x="385.96" id="SVGID_45_"/>
      </defs>
      <clipPath transform="translate(-4,-5.333333492279053) translate(-177.3333282470703,8) " id="SVGID_46_">
       <use id="svg_122" xlink:href="#SVGID_45_"/>
      </clipPath>
      <path id="svg_123" d="m209.57667,92.39667c-2.75,0.01 -4.96,2.26 -4.95,5c0.01,2.75 2.26,4.96 5,4.95c2.75,-0.01 4.96,-2.26 4.95,-5c-0.01,-2.75 -2.25,-4.97 -5,-4.95" class="st59"/>
     </g>
    </g>
    <g id="svg_124" class="st60">
     <g id="svg_125">
      <defs transform="translate(-4,-5.333333492279053) translate(-177.3333282470703,8) ">
       <rect height="7.68" width="7.68" y="90.86" x="387.1" id="SVGID_47_"/>
      </defs>
      <clipPath transform="translate(-4,-5.333333492279053) translate(-177.3333282470703,8) " id="SVGID_48_">
       <use id="svg_126" xlink:href="#SVGID_47_"/>
      </clipPath>
      <path id="svg_127" d="m209.58667,93.52667c-2.12,0.01 -3.83,1.74 -3.82,3.86c0.01,2.12 1.74,3.83 3.86,3.82c2.12,-0.01 3.83,-1.74 3.82,-3.86c-0.01,-2.12 -1.74,-3.83 -3.86,-3.82" class="st61"/>
     </g>
    </g>
    <g id="svg_128" class="st62">
     <g id="svg_129">
      <defs transform="translate(-4,-5.333333492279053) translate(-177.3333282470703,8) ">
       <rect height="5.41" width="5.41" y="92" x="388.23" id="SVGID_49_"/>
      </defs>
      <clipPath transform="translate(-4,-5.333333492279053) translate(-177.3333282470703,8) " id="SVGID_50_">
       <use id="svg_130" xlink:href="#SVGID_49_"/>
      </clipPath>
      <path id="svg_131" d="m209.58667,94.66667c-1.49,0.01 -2.7,1.23 -2.69,2.72c0.01,1.49 1.23,2.7 2.72,2.69c1.49,-0.01 2.7,-1.23 2.69,-2.72c-0.01,-1.5 -1.22,-2.7 -2.72,-2.69" class="st63"/>
     </g>
    </g>
    <g id="svg_132" class="st64">
     <g id="svg_133">
      <defs transform="translate(-4,-5.333333492279053) translate(-177.3333282470703,8) ">
       <rect height="3.14" width="3.14" y="93.13" x="389.37" id="SVGID_51_"/>
      </defs>
      <clipPath transform="translate(-4,-5.333333492279053) translate(-177.3333282470703,8) " id="SVGID_52_">
       <use id="svg_134" xlink:href="#SVGID_51_"/>
      </clipPath>
      <path id="svg_135" d="m209.59667,95.79667c-0.87,0 -1.57,0.71 -1.56,1.58c0,0.87 0.71,1.56 1.58,1.56c0.87,0 1.57,-0.71 1.56,-1.58c-0.01,-0.86 -0.72,-1.56 -1.58,-1.56" class="st65"/>
     </g>
    </g>
    <g id="svg_136" class="st66">
     <g id="svg_137">
      <defs transform="translate(-4,-5.333333492279053) translate(-177.3333282470703,8) ">
       <rect height="0.87" width="0.87" y="94.27" x="390.5" id="SVGID_53_"/>
      </defs>
      <clipPath transform="translate(-4,-5.333333492279053) translate(-177.3333282470703,8) " id="SVGID_54_">
       <use id="svg_138" xlink:href="#SVGID_53_"/>
      </clipPath>
      <path id="svg_139" d="m209.16667,97.36667c0,0.24 0.2,0.43 0.44,0.43c0.24,0 0.43,-0.2 0.43,-0.44c0,-0.24 -0.2,-0.43 -0.44,-0.43c-0.24,0.01 -0.43,0.2 -0.43,0.44" class="st67"/>
     </g>
    </g>
   </g>
  </g>
  <path id="svg_140" d="m234.19667,76.70667c0,0 5.4,-2.1 11.32,2.15c0,0 0.06,-0.73 -1.15,-1.97c-1.21,-1.24 -4.86,-3.12 -8.66,-2.25c0.01,0.01 -2.31,1.32 -1.51,2.07" class="st15"/>
  <path id="svg_141" d="m219.52667,77.15667c0,0 -6.2,-2.59 -13.12,2.04c0,0 -0.06,-0.83 1.37,-2.2c1.42,-1.37 5.68,-3.37 10.04,-2.25c0,0 2.66,1.58 1.71,2.41" class="st15"/>
  <path id="svg_142" d="m224.72667,99.62667c5.51,2.48 8.63,-0.04 8.96,-2.68c0.21,-1.72 -0.7,-3.29 -2.34,-4c-3.36,-1.46 -5.56,-6.8 -5.59,-6.86c-0.06,1.2 0.98,5.79 5.21,8.47c0.91,0.58 1.48,1.18 1.37,2.03c-0.17,1.48 -2.4,3.62 -7.61,3.04" class="st68"/>
  <path id="svg_143" d="m191.71667,78.18667c0,0 12.59,4.09 6.79,23.71c0,-0.01 14.39,-16.53 -6.79,-23.71" class="st15"/>
  <g id="m2">
   <path id="svg_144" d="m228.59667,107.98667c0,1.67 -1.36,3.03 -3.03,3.03c-1.67,0 -3.03,-1.36 -3.03,-3.03c0,-1.67 1.36,-3.03 3.03,-3.03c1.67,0 3.03,1.36 3.03,3.03" class="st69"/>
  </g>
  <g id="eyes">
   <path id="svg_145" d="m212.27667,81.78667c0,0 3.45,-0.12 3.87,-1.44c0,0 0.52,1.8 -1.54,2.51c0.7,0.78 1.18,1.92 1.24,3.22c0.12,2.46 -1.29,4.53 -3.14,4.62c-1.85,0.09 -3.45,-1.84 -3.57,-4.3c-0.12,-2.45 1.29,-4.52 3.14,-4.61" class="st70"/>
   <path id="svg_146" d="m237.51667,81.65667c0,0 3.45,-0.12 3.87,-1.44c0,0 0.52,1.8 -1.54,2.51c0.7,0.78 1.18,1.92 1.24,3.22c0.12,2.46 -1.29,4.53 -3.14,4.62c-1.85,0.09 -3.45,-1.84 -3.57,-4.3c-0.12,-2.46 1.29,-4.53 3.14,-4.61" class="st70"/>
  </g>
  <g id="mu1">
   <path id="svg_147" d="m226.51667,109.14667c3.58,-0.4 6.48,-2.72 6.53,-2.76c0.25,-0.2 0.31,-0.63 0.13,-0.95c-0.18,-0.32 -0.52,-0.42 -0.77,-0.21c-0.34,0.28 -8.35,6.65 -13.6,-1.43c-0.2,-0.3 -0.55,-0.36 -0.78,-0.13c-0.24,0.23 -0.27,0.66 -0.07,0.97c2.58,3.98 5.78,4.82 8.56,4.51" class="st69"/>
  </g>
  <g id="cup">
   <path id="svg_148" d="m182.82667,139.59667c0,0 -12.71,1.58 -20.35,28.83c0,0 -16.5,43.21 -3.4,51.44c13.72,8.61 55.38,-7.74 55.38,-7.74l-2.8,-16.29c0,0 -18.52,5.46 -35.61,3.88c0,0 3.72,-8.2 6.57,-17.95c1.86,-6.37 4.79,-12.4 8.83,-17.66c3.22,-4.2 6.47,-9.19 6.6,-12.35c0.28,-6.36 -7.01,-15.23 -15.22,-12.16" class="st10"/>
   <path id="svg_149" d="m244.24667,210.78667l-3.22,0c-6.69,0 -12.13,-6.36 -12.13,-14.19c0,-7.83 5.44,-14.19 12.13,-14.19l3.22,0l0,3.92l-3.22,0c-4.53,0 -8.21,4.61 -8.21,10.27c0,5.66 3.68,10.27 8.21,10.27l3.22,0l0,3.92z" class="st71"/>
   <rect id="svg_150" height="31.59" width="24.56" class="st72" y="180.94667" x="240.82667"/>
   <path id="svg_151" d="m231.08667,187.95667c1.33,-1.23 0.85,-3.15 0.85,-3.15c-25.74,1.73 -21.7,19.39 -21.7,19.39c2.63,10.45 13.02,8.29 21.32,5.96c8.3,-2.33 4.82,-15.14 4.82,-15.14c6.12,-6.1 0.19,-7.16 -5.29,-7.06" class="st7"/>
  </g>
 </g>
</svg>