<?xml version="1.0" encoding="utf-8"?>
<!-- Generator: Adobe Illustrator 16.0.0, SVG Export Plug-In . SVG Version: 6.00 Build 0)  -->
<!DOCTYPE svg PUBLIC "-//W3C//DTD SVG 1.1//EN" "http://www.w3.org/Graphics/SVG/1.1/DTD/svg11.dtd">
<svg version="1.1" id="Layer_1" xmlns="http://www.w3.org/2000/svg" xmlns:xlink="http://www.w3.org/1999/xlink" x="0px" y="0px"
	 width="20px" height="20px" viewBox="0 0 20 20" enable-background="new 0 0 20 20" xml:space="preserve">
<g>
	<polygon fill-rule="evenodd" clip-rule="evenodd" fill="#A82C1E" points="17.434,3.057 14.469,1.345 14.222,1.252 13.955,1.197 
		13.678,1.177 13.392,1.195 13.091,1.245 12.785,1.33 12.477,1.447 12.164,1.598 11.852,1.78 11.539,1.99 11.229,2.231 
		10.925,2.501 10.628,2.797 10.342,3.121 10.064,3.468 9.802,3.843 9.555,4.238 9.327,4.659 9.119,5.103 8.933,5.566 8.767,6.049 
		8.628,6.552 8.52,7.074 11.485,8.786 11.593,8.263 11.731,7.761 11.894,7.276 12.083,6.813 12.291,6.371 12.523,5.953 
		12.767,5.555 13.028,5.18 13.307,4.831 13.592,4.509 13.89,4.211 14.194,3.943 14.503,3.702 14.816,3.492 15.129,3.31 
		15.441,3.159 15.75,3.042 16.056,2.957 16.356,2.905 16.642,2.889 16.92,2.909 17.182,2.964 	"/>
	<polygon fill-rule="evenodd" clip-rule="evenodd" fill="#C0392B" points="10.45,7.149 7.482,5.437 7.238,5.323 6.976,5.251 
		6.698,5.223 6.413,5.23 6.115,5.277 5.81,5.358 5.501,5.476 5.188,5.626 4.876,5.806 4.563,6.018 4.254,6.257 3.95,6.523 
		3.648,6.817 3.363,7.134 3.085,7.473 2.818,7.834 2.571,8.214 2.34,8.612 2.128,9.029 1.938,9.459 1.772,9.905 1.629,10.363 
		1.518,10.83 1.433,11.306 1.382,11.795 1.363,12.285 1.379,12.604 1.421,12.904 1.486,13.187 1.58,13.453 1.691,13.703 
		1.831,13.938 1.985,14.16 2.159,14.37 2.352,14.563 2.56,14.742 2.784,14.911 3.023,15.07 3.27,15.217 6.235,16.928 5.988,16.78 
		5.749,16.626 5.525,16.456 5.316,16.274 5.123,16.079 4.949,15.873 4.792,15.651 4.656,15.416 4.544,15.164 4.452,14.898 
		4.386,14.614 4.343,14.315 4.328,13.996 4.347,13.505 4.397,13.021 4.482,12.542 4.594,12.072 4.737,11.615 4.903,11.172 
		5.092,10.741 5.305,10.324 5.536,9.926 5.783,9.546 6.049,9.185 6.328,8.846 6.613,8.529 6.915,8.235 7.215,7.969 7.528,7.728 
		7.841,7.518 8.153,7.336 8.466,7.188 8.775,7.072 9.08,6.989 9.377,6.942 9.663,6.935 9.94,6.963 10.203,7.035 	"/>
	<path fill-rule="evenodd" clip-rule="evenodd" fill="#E74C3C" d="M11.485,18.528c2.3-3.347,7.152-9.305,7.152-12.792
		c0-5.281-6.142-2.606-7.152,3.049c-1.012-4.487-7.157-0.067-7.157,5.21C4.328,17.486,9.184,17.838,11.485,18.528z"/>
</g>
</svg>
