<?xml version="1.0" encoding="utf-8"?>
<!-- Generator: Adobe Illustrator 15.1.0, SVG Export Plug-In . SVG Version: 6.00 Build 0)  -->
<!DOCTYPE svg PUBLIC "-//W3C//DTD SVG 1.1//EN" "http://www.w3.org/Graphics/SVG/1.1/DTD/svg11.dtd">
<svg version="1.1" id="_x23_Layer_1" xmlns="http://www.w3.org/2000/svg" xmlns:xlink="http://www.w3.org/1999/xlink" x="0px"
	 y="0px" width="171.634px" height="443.163px" viewBox="0 0 171.634 443.163" enable-background="new 0 0 171.634 443.163"
	 xml:space="preserve">
<path fill-rule="evenodd" clip-rule="evenodd" fill="#CDD8DB" stroke="#000000" stroke-width="1.0001" stroke-linecap="round" stroke-miterlimit="2.6131" d="
	M21.988,365.648c-1.833,0.773-2.275,1.429-4.616,1.429c0,1.563-16.846-0.402-16.485,6.575c0.548,10.604-1.116,24.99,0.019,35.331
	c0.989,9.013-0.785,22.574,5.401,29.824c2.486,2.913,15.235,5.427,15.957,2.285c2.313-10.059,3.141-11.289,7.273-20.165
	c2.131-4.577,5.693-11.958,6.795-16.648c0.901-3.84,8.691-7.963,12.196-13.043c0.417-0.605,6.842-8.262,2.254-6.136
	c-7.547,3.498-5.524-0.918-13.571-4.98c-1.684-0.85-15.003-13.507-15.003-14.293C22.246,365.955,21.785,365.733,21.988,365.648z"/>
<path fill-rule="evenodd" clip-rule="evenodd" fill="#2E416A" stroke="#000000" stroke-width="1.0001" stroke-linecap="round" stroke-miterlimit="2.6131" d="
	M10.888,369.055c-3.367,0.387-4.286,5.882-4.286,8.572c-0.073,0-1.067,3.737,0.66,3.737c3.006,0,11.649-2.45,11.649-7.693
	c0.073,0,0.985-6.398-2.638-5.953C15.629,367.797,11.095,369.031,10.888,369.055z"/>
<path fill-rule="evenodd" clip-rule="evenodd" fill="#2E416A" stroke="#000000" stroke-width="1.0001" stroke-linecap="round" stroke-miterlimit="2.6131" d="
	M32.539,380.045c-5.043,1.169-4.197,9.563-8.572,10.551c-4.325,0.976-1.007,12.98-2.361,16.266c-1.858,4.508,3.103,9.3-8.409,2.58
	c-0.903-0.526-7.131-3.769-7.31-2.801c-1.381,7.455,1.383,15.62,2.273,22.859c0.175,1.424,6.206,14.451,10.368,11.927
	c0.114-0.07,2.801,0.072,2.801-1.263c-1.002-0.332-5.522-3.95-5.916-7.146c-0.714-5.811-1.089-8.317-4.27-13.169
	c-2.885-4.402,11.068,3.633,12.824,2.179c0,0.506,2.604,1.244,3.737-2.418c1.007-3.254,7.048-10.033,7.894-17.145
	c0.367-3.091,15.163-11.172,14.745-16.045c0.079,0-8.873,6.546-16.629-5.295C33.469,380.753,32.988,379.94,32.539,380.045z"/>
<path fill-rule="evenodd" clip-rule="evenodd" fill="none" stroke="#000000" stroke-width="1.0001" stroke-linecap="round" stroke-miterlimit="2.6131" d="
	M7.262,381.364c-0.646,6.027-1.319,16.981-1.319,23.079"/>
<path fill-rule="evenodd" clip-rule="evenodd" fill="#CDD8DB" stroke="#000000" stroke-width="1.0001" stroke-linecap="round" stroke-miterlimit="2.6131" d="
	M78.257,372.901c-0.862,0.494-5.586,2.375-5.715,2.748c-2.93,0-15.01,10.627-14.212,13.295c2.942,9.834,6.113,12.127,12.836,18.853
	c6.567,6.568,7.983,9.161,13.025,16.629c6.248,9.255,5.329,13.486,17.258,17.986c2.184,0.824,6.796-0.585,8.86-1.3
	c0.397-1.918,3.697,4.041,1.596-10.092c-1.135-7.632-5.885-6.68-5.514-17.565c0.258-7.571-3.263-16.39,0.075-22.64
	c0.8-1.498,9.222-13.976,3.222-12.969c-2.819,0.474-5.339,2.55-11.21,2.418c-13.582-0.304-12.481-5.098-19.343-7.473
	C78.632,372.617,79.089,372.424,78.257,372.901z"/>
<path fill-rule="evenodd" clip-rule="evenodd" fill="#2E416A" stroke="#000000" stroke-width="1.0001" stroke-linecap="round" stroke-miterlimit="2.6131" d="
	M72.982,379.386c-1.312-0.779-2.559-1.128-3.077-1.539c-9.206,6.631-8.129,7.688-2.123,17.565c0.248,0.408,7.485,7.567,7.235,7.216
	c-4.192-5.88,6.438-10.714,11.593-10.494c8.031,0.344,2.418-1.182,2.418-8.133c-1.909-0.653-8.84,0.765-13.465-2.6
	C74.313,380.493,74.438,380.841,72.982,379.386z"/>
<path fill-rule="evenodd" clip-rule="evenodd" fill="#2E416A" stroke="#000000" stroke-width="1.0001" stroke-linecap="round" stroke-miterlimit="2.6131" d="
	M99.578,388.178c-4.65-1.449-3.694,3.764-7.768,7.838c-0.239,0.238,5.26,7.049,6.01,9.966c1.255,4.881,6.974,6.146-6.154,8.353
	c-2.541,0.428-4.75-0.697-6.538-2.072c-2.15-1.654,5.079,8.08,5.401,8.503c1.465,1.923,3.293,6.269,5.972,8.735
	c0.707,0.651,3.601,6.944,7.034,8.133c0.562,2.185,7.049,5.741,7.674-1.758c0.072-0.871-0.81,1.086-3.498-0.604
	c-6.203-3.896-3.602-6.538-5.715-7.491c-2.528-1.142-7.869-2.311-6.116-6.192c1.539-3.409,13.535,3.39,7.712-6.211
	c-0.141-0.231,0.482-10.161,0.145-12.912c-0.459-3.727-0.136-10.757,1.996-13.628c3.933-5.293,5.721-13.182-1.481-2.417
	C102.937,388.382,102.652,389.136,99.578,388.178z"/>
<path fill-rule="evenodd" clip-rule="evenodd" fill="none" stroke="#000000" stroke-width="1.0001" stroke-linecap="round" stroke-miterlimit="2.6131" d="
	M73.861,400.706c2.983,5.045,7.866,9.368,11.429,13.848"/>
<path fill-rule="evenodd" clip-rule="evenodd" fill="#F7E6A0" stroke="#000000" stroke-width="1.0001" stroke-linecap="round" stroke-miterlimit="2.6131" d="
	M100.457,331.908c-3.517,6.375-4.396,8.793-6.374,12.09c-1.978,3.297-0.439,4.176-1.538,5.715c-1.099,1.538-3.077,0.879-6.814,4.176
	c-3.736,3.297-5.274,4.836-6.594,9.892c-1.318,5.055-1.758,8.132-1.758,8.132l2.197,5.495c0,0,5.275,3.736,8.792,7.034
	c3.518,3.297,2.858,4.176,6.814,4.176s9.231-0.879,10.11-2.197c0.88-1.319,5.715-5.716,5.495-7.034s-1.318-2.198,0.659-5.935
	c1.979-3.736,5.275-6.594,5.275-6.594l0.439-2.857c0,0,9.232-1.759,9.892-3.297c0.659-1.539,6.374-12.749,8.572-19.782
	c2.198-7.034,4.396-18.684,8.572-24.398s4.616-9.671,9.891-16.045c5.275-6.375,6.374-16.704,4.836-19.782
	c-1.539-3.077-9.232-12.529-13.848-18.244c-4.616-5.715-14.946-14.507-18.463-20.881c-3.518-6.374-3.297-5.494-5.935-8.353
	c-2.638-2.857-9.232-6.154-12.529-7.912c-3.297-1.759-7.473-9.452-12.968-9.892s-14.507-1.759-20.881-2.418
	c-6.374-0.659-23.519-0.879-30.552-1.099s-10.551-1.539-14.507,0.22c-3.957,1.758-10.55,7.474-10.331,11.649
	s0.879,12.089,4.835,19.563c3.957,7.473,14.946,16.485,20.661,21.76c5.715,5.275,15.386,16.266,17.584,18.903
	c2.198,2.638,3.077,3.736,6.594,8.572s8.572,10.551,8.572,10.551s-2.857,3.956-9.231,11.43
	c-6.375,7.473-10.111,15.166-14.947,19.562c-4.835,4.396-7.913,5.056-11.21,9.452c-3.297,4.396-4.176,11.21-5.935,12.528
	s-3.077,3.957-7.473,4.836s-9.231,2.198-9.231,2.198s1.759,5.494,0.66,7.692c-1.1,2.198-1.539,4.836-1.539,4.836
	s3.297-0.439,4.616-0.439c1.319,0,5.935,0,5.935,0s3.297,6.813,4.835,7.473s3.737,1.759,6.594,1.539
	c2.857-0.22,7.034,1.979,7.034,1.979l1.758-5.275c0,0,5.715,0.439,7.034-0.221c1.318-0.659,4.176-3.077,4.616-4.835
	c0.439-1.759-1.539-2.418,1.319-4.396c2.857-1.978,9.891-7.692,13.847-12.528s8.353-10.55,13.408-15.166
	C94.302,339.162,100.457,332.129,100.457,331.908z"/>
<path fill-rule="evenodd" clip-rule="evenodd" fill="none" stroke="#000000" stroke-width="1.0001" stroke-linecap="round" stroke-miterlimit="2.6131" d="
	M100.677,331.47c3.956-4.396,7.253-8.133,10.989-12.31c3.737-4.176,9.013-7.473,9.013-13.188c0-5.715,1.318-7.033,0-12.748
	c-1.319-5.715-4.396-8.792-7.254-14.507s-2.857-8.792-4.396-10.331"/>
<path fill-rule="evenodd" clip-rule="evenodd" fill="none" stroke="#000000" stroke-width="1.0001" stroke-linecap="round" stroke-miterlimit="2.6131" d="
	M119.58,289.487c7.245-3.347,5.541-2.62,10.99-7.8c1.239-1.178,3.522-5.576-1.614,2.744c-3.231,5.235-11.096,11.02,1.319,7.053
	c3.529-1.128,11.349-8.052,4.653-2.217c-1.041,0.906-10.499,6.771-11.794,7.071c-0.547,2.647,21.175-0.709,8.792,2.38
	c-0.941,0.234-1.941,0.436-2.895,0.659"/>
<path fill-rule="evenodd" clip-rule="evenodd" fill="none" stroke="#000000" stroke-width="1.0001" stroke-linecap="round" stroke-miterlimit="2.6131" d="
	M77.598,303.555c4.777-3.398,8.436-4.064,10.55-5.495"/>
<path fill-rule="evenodd" clip-rule="evenodd" fill="none" stroke="#000000" stroke-width="1.0001" stroke-linecap="round" stroke-miterlimit="2.6131" d="
	M86.17,305.313c8.636,3.25,13.996,3.528,23.462,3.059c0.511-0.025,1.39-0.288,1.814-0.641"/>
<path fill-rule="evenodd" clip-rule="evenodd" fill="none" stroke="#000000" stroke-width="1.0001" stroke-linecap="round" stroke-miterlimit="2.6131" d="
	M56.497,373.671c-1.775-0.496-14.747-4.396-15.386-4.396c6.461,6.465-4.755,6.155-11.43-0.66c-1.084-1.106-9.172-5.805-2.619-1.117
	c1.729,1.236,6.832,7.857,8.553,7.932"/>
<path fill-rule="evenodd" clip-rule="evenodd" fill="none" stroke="#000000" stroke-width="1.0001" stroke-linecap="round" stroke-miterlimit="2.6131" d="
	M116.063,364.439c-8.088-3.306-14.878-2.041-24.674-4.893c-8.114-2.361,14.935,9.238,15.003,9.289
	c-11.83,0-32.246-6.713-9.106,1.833c1.604,0.593,8.865,2.614,6.852,4.102c-7.86,5.805-10.204,0.058-19.688,1.884
	c-0.082-0.272,0.092,0.967,1.062,1.633"/>
<path fill-rule="evenodd" clip-rule="evenodd" fill="none" stroke="#000000" stroke-width="1.0001" stroke-linecap="round" stroke-miterlimit="2.6131" d="
	M92.764,350.152c8.517,8.243,3.21,2.564,12.032,4.101c0.951,0.166,3.362,1.481,4.233,2.054"/>
<path fill-rule="evenodd" clip-rule="evenodd" fill="#2A6BC5" stroke="#000000" stroke-width="1.0001" stroke-linecap="round" stroke-miterlimit="2.6131" d="
	M53.31,62.104C39.682,72.214,31.769,75.292,23.856,86.721s-7.913,8.792-9.671,24.178c-1.758,15.386-3.077,18.023-1.758,25.057
	s0,16.705,1.319,20.222c1.319,3.517,2.638,9.671,2.198,11.87c-0.44,2.198-0.44,7.913-0.44,7.913
	c-3.975,3.391-6.885,12.825-3.57,6.924c2.448-4.358,24.95-13.416,27.695-9.653c6.502,8.915,12.417,19.848,17.201,29.893
	c2.007,4.214,18.337,19.436,22.583,16.743c3.205-2.032,16.857,3.154,21.503,4.101c0.18,0.037,6.547,4.535,6.795,5.074
	c0-13.177,0.475-10.223-4.34-23.738c-2.61-7.329-3.176-12.487-8.245-18.884c-0.208-0.263,2.679-18.934,4.289-21.34
	c1.191-1.78,1.813-20.284,3.404-25.754c0.104-0.358,1.903-17.42,1.89-17.49l-0.295-1.155c0-1.266-0.439-25.937,1.099-25.717
	c1.539,0.22,7.034-0.22,12.31,2.857c5.274,3.077,14.946,3.517,18.463,4.835s8.792,0.439,11.649,1.758s5.495,0.879,8.353,0.879
	s14.507-4.396,14.507-4.396s-3.736-4.396-6.594-7.034s-15.386-5.495-19.563-8.353s-9.672-9.671-14.727-13.627
	c-5.056-3.957-13.848-7.034-18.903-7.473c-5.055-0.44-9.231,1.758-9.451,0.439s-0.439-4.616-5.056-4.616
	c-4.615,0-11.43,1.759-17.364,0.879S53.859,61.334,53.31,62.104z"/>
<path fill-rule="evenodd" clip-rule="evenodd" fill="#EFDBD4" stroke="#000000" stroke-width="1.0001" stroke-linecap="round" stroke-miterlimit="2.6131" d="
	M69.685,16.495C54.962,21.858,51.923,31.746,54.977,45.27c0.101,0.445-0.115,1.131,0.641,0.458
	c-0.346,5.039-1.099,7.354-1.099,13.188c0,5.52-0.097,2.376,1.099,7.034c0.521,0.18,1.796,2.704,1.758,3.297
	c0.757,0.156,5.286,10.632,5.037,13.627c-0.419,5.037,3.935,6.196,7.548,8.516c3.14,2.015,4.943,12.688,7.58,14.419
	c0.37,0.243,4.646,5.071,4.798,5.438c-0.036-0.005-2.017-7.308-1.664-9.031c0.045-0.007,6.241-6.787,4.69-9.91
	c-2.28-4.595,2.123-8.509,2.123-16.523c0-4.396,4.655-2.45,5.916-12.692c0.392-3.183-0.618-8.557,1.777-8.352
	c1.075-3.11,4.345-5.202,1.595-11.869c-4.335-10.514-2.488-17.956-13.244-24.235C78.237,15.544,78.38,11.759,69.685,16.495z"/>
<path fill-rule="evenodd" clip-rule="evenodd" fill="#325CCD" stroke="#000000" stroke-width="1.0001" stroke-linecap="round" stroke-miterlimit="2.6131" d="
	M78.477,8.362c-14.619-3.113-11.735,1.187-19.581,1.3c-0.203,0.003-0.812,0.843-0.86,0.898c-0.877,0.395-4.594,2.63-4.616,2.637
	c0,0.097-2.828,7.241-2.638,9.452c0.112,1.311-1.246,4.525-0.641,9.452c0.449,3.653-0.249,5.391-0.898,7.913
	c-1.97,0.683-12.457,10.551-1.099,10.551c0.293,1.412,26.705,2.724,31.211,1.099c0.158-0.057,5.649-0.806,8.353-1.921
	c4.477-1.848,6.836-5.162,9.892-8.849c2.962-3.574,0.599-23.66-4.836-25.058c-0.435-1.254-10.09-6.154-10.771-6.154
	C81.827,8.703,79.243,8.432,78.477,8.362z"/>
<path fill-rule="evenodd" clip-rule="evenodd" fill="none" stroke="#000000" stroke-width="1.0001" stroke-linecap="round" stroke-miterlimit="2.6131" d="
	M52.321,38.255c2.735,3.589,31.17,1.16,37.969,2.914c1.21,0.312,2.541,0.163,3.793,0.163"/>
<path fill-rule="evenodd" clip-rule="evenodd" fill="none" stroke="#000000" stroke-width="1.0001" stroke-linecap="round" stroke-miterlimit="2.6131" d="
	M65.069,55.839c-0.805,1.361-3.104,6.737-1.558,7.053c0.151,0.031,2.577,1,2.876,1.3c0-0.073,4.991-1.099,5.935-1.099l0.22-0.439"/>
<path fill-rule="evenodd" clip-rule="evenodd" fill="none" stroke="#000000" stroke-width="1.0001" stroke-linecap="round" stroke-miterlimit="2.6131" d="
	M64.135,71.829c2.435-1.675,1.518-1.461,2.93-3.115c0.783-0.917,1.01,0.997,3.033-0.154c1.239-0.705,6.188,3.459,5.175,4.616
	c-1.144,1.304-2.536,6.885-7.602,3.561c-1.202-0.789-1.717-4.113-2.656-5.127L64.135,71.829z"/>
<path fill-rule="evenodd" clip-rule="evenodd" fill="#1A1A1A" stroke="#000000" stroke-width="1.0001" stroke-linecap="round" stroke-miterlimit="2.6131" d="
	M67.067,72.392c0.148-0.051,1.23-1.019,1.316-1.012c0-0.036,0.688-0.656,1.544-1.143c0.175,0.072,1.213,0.515,1.55,1.33
	c0.25-0.089,0.117,0.824,1.304,0.824c0,0.177,1.168,0.372,1.759,0.22c-0.925,0-2.595,0.269-3.407,0.55
	c-1.934,0.667-1.719,0.781-3.078-0.87C67.912,72.116,67.633,72.197,67.067,72.392z"/>
<path fill-rule="evenodd" clip-rule="evenodd" fill="#B8978B" d="M61.498,75.566c-0.24-0.53-0.234-1.722-0.769-2.088
	c-0.07,2.102,1.878,7.749,4.396,8.939c1.677,0.793,0.477,4.189,4.835,4.789c6.168,0.849,4.581,1.285,9.891-3.407
	c1.804-1.594,1.491-2.955,3.307-4.195c1.562-1.067,3.617-3.534,3.617-5.357c-0.046,0.011-6.084,4.904-8.004,5.687
	c-2.428,0.99-1.558,5.613-8.931,2.804c-2.012-0.767-2.153,0.703-3.215-1.796C65.178,77.537,62.816,78.394,61.498,75.566z"/>
<path fill-rule="evenodd" clip-rule="evenodd" fill="none" stroke="#000000" stroke-width="1.0001" stroke-linecap="round" stroke-miterlimit="2.6131" d="
	M63.916,81.94c1.232,1.364,0.931,2.053,2.719,3.225c2.303,1.509,6.079,1.33,8.82,0.622c0.993-0.257,4.608-3.134,5.056-4.066"/>
<path fill-rule="evenodd" clip-rule="evenodd" fill="#EFDBD4" stroke="#000000" stroke-width="1.0001" stroke-linecap="round" stroke-miterlimit="2.6131" d="
	M136.56,87.545c2.197,6.154,3.297,6.044,6.813,10.111c3.517,4.066,3.406,6.484,6.484,6.154c3.077-0.33,5.604-1.868,8.132-3.517
	c2.528-1.648,5.605-3.407,6.155-5.385c0.549-1.978,1.209-7.803-1.429-12.639c-2.638-4.836-6.924-9.891-9.452-14.507
	c-2.527-4.616-10.55-14.067-13.737-17.364c-3.187-3.297-11.869-13.847-13.408-15.276c-1.538-1.429-8.571-9.012-10.11-10.551
	c-1.538-1.539-11.319-7.693-14.177-10.111c-2.857-2.417-10.99-7.693-13.738-8.792c-2.747-1.099-10.66-5.055-11.539-5.165
	c-0.879-0.11-1.099,1.869-0.109,2.748c0.988,0.879-2.089,0.659-3.627,0.22c-1.538-0.44-5.165-1.759-5.714-0.879
	c-0.55,0.879-0.66,2.088,0.549,2.528c1.209,0.439,3.956,2.198,6.374,2.308c2.418,0.11,7.473,1.758,9.671,2.638
	s5.604,2.527,7.693,3.957c2.088,1.429,4.396,5.055,5.274,6.814c0.88,1.758,2.309,4.726,2.198,8.132
	c-0.109,3.407-0.22,9.562-0.22,9.562s4.726-0.11,6.045-0.22c1.318-0.11,8.572,4.066,9.341,6.264
	c0.77,2.198,7.034,8.902,9.672,14.836s5.165,9.891,5.604,12.529s0.77,6.374,2.309,8.902
	C133.153,83.369,136.669,87.545,136.56,87.545z"/>
<path fill-rule="evenodd" clip-rule="evenodd" fill="#F7F7A9" stroke="#000000" stroke-width="1.0001" stroke-linecap="round" stroke-miterlimit="2.6131" d="
	M111.722,21.88c-2.563,1.04-6.813,8.652-6.813,12.134c0,3.505-2.139,3.554,3.077,5.256c0.422,0.138,3.592-6.121,5.643-7.721
	c1.087-0.849,2.883-3.167,4.688-3.79c-1.457-1.994-0.829-1.709-2.748-3.627C112.857,21.424,113.838,21.021,111.722,21.88z"/>
<path fill-rule="evenodd" clip-rule="evenodd" fill="none" stroke="#000000" stroke-width="1.0001" stroke-linecap="round" stroke-miterlimit="2.6131" d="
	M114.25,22.484c-0.266,0.23-5.856,10.512-6.155,11.86c-0.172,0.78-0.879,2.324-0.879,3.086"/>
<path fill-rule="evenodd" clip-rule="evenodd" fill="none" stroke="#000000" stroke-width="1.0001" stroke-linecap="round" stroke-miterlimit="2.6131" d="
	M112.381,27.54c1.005-0.614,3.018-1.673,4.177-2.308"/>
<path fill-rule="evenodd" clip-rule="evenodd" fill="#1C2982" stroke="#000000" stroke-width="1.0001" stroke-linecap="round" stroke-miterlimit="2.6131" d="
	M114.525,30.672c0.123,1.694-2.911,10.627-2.024,14.113c0.01,0.036-2.766,0.487-2.537-1.099c0.127-0.875,0.442-3.876,0.312-4.679
	c-0.077-0.032,0.039-3.586,0.77-4.104C112.367,33.966,114.629,32.111,114.525,30.672z"/>
<path fill-rule="evenodd" clip-rule="evenodd" fill="#B8C4CF" stroke="#000000" stroke-width="1.0001" stroke-linecap="round" stroke-miterlimit="2.6131" d="
	M51.332,67.818c0.093-1.867,1.32-5.667-0.22-3.737c-1.97,1.165-20.25,12.837-18.903,14.048c10.261,9.229,5.588,10.245,9.615,15.901
	c2.833,3.979-0.368,19.187,1.099,24.561c1.169,4.286,0.33,8.721,3.078,15.386c0.395,0.958,2.679,14.308,1.871,16.265
	c-1.481,3.587-1.996,9.133-3.956,12.365c-0.589,0.971,0.536,4.133-0.497,5.878c1.512,7.868,1.099,3.486,1.099,11.209
	c0.055,0,4.04,6.829,5.2,7.989c1.071,1.07,3.723,4.766,3.85,5.382c0.258,0.054,6.28,10.544,8.698,11.743
	c0.931,0.462,8.464,10.53,12.384,11.594c1.582,0.429,6.284,3.544,7.178,2.417c2.15-2.711,4.316-7.595,2.619-10.77
	c-2.096-3.921-5.738-3.126-10.093-9.433c-0.687-0.996-1.695-1.724-2.951-3.479c0.353-0.325,1.404-9.987,2.644-12.365
	c1.425-2.735,3.108-16.299,2.342-18.024c-2.266-1.439-12.183-40.881-12.729-46.378c-0.323-3.243-3.694-20.48-5.018-22.916
	l-0.276-0.383c1.23-0.736-1.099-4.582-1.099-7.473c0-3.525-2.089,1.468-3.373,2.562c-0.318,0.271-1.386,2.754-1.903,2.933
	c0,0.061-3.124,6.587-2.179-1.099c0.391-3.181,0.861-5.69,0.861-8.792c0.286,0,0.439-3.425,0.439-3.956
	C51.525,79.248,51.744,69.421,51.332,67.818z"/>
<path fill-rule="evenodd" clip-rule="evenodd" fill="none" stroke="#000000" stroke-width="1.0001" stroke-linecap="round" stroke-miterlimit="2.6131" d="
	M56.827,85.842c0.407-0.394,3.517-3.309,3.517-1.319c0.113,0,1.329,8.322,3.957,9.232c0.009,0.054,7.862,7.801,9.087,9.872
	c1.562,2.641,4.014,5.782,5.2,8.152"/>
<path fill-rule="evenodd" clip-rule="evenodd" fill="none" stroke="#000000" stroke-width="1.0001" stroke-linecap="round" stroke-miterlimit="2.6131" d="
	M93.094,68.038c0.28,3.988,6.166,13.149,6.173,13.207c0.356,2.912-4.983,5.976-4.396,10.751c0.465,3.774-6.645,10.987-7.033,16.924
	c-0.247,3.767-3.013,11.182-2.877,16.705c0.076,3.106-0.22,9.681-0.22,13.628c1.169,0-0.051,8.985-0.804,11.134
	c-2.288,6.534,2.45,13.351,1.52,19.619c-0.206,1.385,0.054,8.524-0.276,9.25c-8.25,16.003-2.95,4.209-0.019,21.359
	c1.494,8.742,0.322,4.209,5.57,12.051c0.969,1.447,7.072,10.695,7.637,10.99"/>
<path fill-rule="evenodd" clip-rule="evenodd" fill="#B8C4CF" stroke="#000000" stroke-width="1.0001" stroke-linecap="round" stroke-miterlimit="2.6131" d="
	M93.314,64.301c0.115,0.083,1.102,7.117,1.922,8.409c1.007,1.587,5.448,9.602,3.718,11.078c-2.573,2.195-3.798,12.153-6.814,16.761
	c-0.066,0.102-1.138,2.344-1.243,2.656c0.729,1.62,9.668,31.97,9.872,33.629c0.138,1.119,2.028,10.589,2.217,11.65
	c-2.069,3.881-3.025,20.162-5.551,27.676c-4.366,12.988-0.229,9.715,3.391,19.361c0.558,1.486,2.098,4.019,2.38,4.836
	c3.183,1.525,12.286,8.703,16.046,9.231c0.021,0.05,8.431,5.973,10.494,8.572c1.157,1.459,3.375-11.395,1.432-16.905
	c-2.381-6.75-4.84-13.657-5.533-20.844c-1.127-11.692-5.788-23.455-7.548-34.553c-1.522-9.598-5.965-18.703-8.812-27.783
	c-0.176-0.563-0.227-0.762-0.584-1.243c-2.091-0.958-4.396-14.544-4.396-16.705c0-10.545,0.178-16.479-5.219-26.433
	C96.431,68.8,97.553,68.907,93.314,64.301z"/>
<path fill-rule="evenodd" clip-rule="evenodd" fill="#6E6961" stroke="#000000" stroke-width="1.0001" stroke-linecap="round" stroke-miterlimit="2.6131" d="
	M107.162,159.915c-2.888-0.97-2.967-9.774-5.715-11.869c0.765,7.135-5.737,37.986-5.42,38.409c1.491,1.984,6.299,8.042,6.079,10.607
	c1.389,0.48,7.992,8.055,14.745,9.433c0.603,0.122,8.863,6.517,8.993,7.272c0.948-0.075,5.764,7.104,3.699,2.618
	c-0.341-0.74,3.01-7.283,1.633-12.014c-2.497-8.578-2.602-7.707-7.033-15.06c-4.461-7.398-8.121-13.212-11.631-21.264
	C111.906,166.656,107.581,161.546,107.162,159.915z"/>
<path fill-rule="evenodd" clip-rule="evenodd" fill="none" stroke="#000000" stroke-width="1.0001" stroke-linecap="round" stroke-miterlimit="2.6131" d="
	M71.994,166.729c-0.742,0.247-4.427,1.333-3.297,3.736c0.412,0.875,2.705,0.509,3.957-1.319"/>
<path fill-rule="evenodd" clip-rule="evenodd" fill="none" stroke="#000000" stroke-width="1.0001" stroke-linecap="round" stroke-miterlimit="2.6131" d="
	M68.037,180.137c-2.103,0.767-1.136,2.722-0.22,3.956c0.014-0.001,2.357,0.453,2.637-1.318"/>
<path fill-rule="evenodd" clip-rule="evenodd" fill="none" stroke="#000000" stroke-width="1.0001" stroke-linecap="round" stroke-miterlimit="2.6131" d="
	M55.289,185.632c4.788,4.309,8.119,6.928,12.453,10.626c2.528,2.156,7.437,5.411,8.647,6.519"/>
<path fill-rule="evenodd" clip-rule="evenodd" fill="#2A6BC5" stroke="#000000" stroke-width="1.0001" stroke-linecap="round" stroke-miterlimit="2.6131" d="
	M19.571,203.875c-0.5,1.925-3.706,21.015-1.429,21.541c0,2.938,1.276-6.555,3.297-7.254c0-1.997,9.313-6.119,8.295-6.776
	c-1.076-0.695-3.209-1.576-4.339-1.576c-0.116-0.503-2.572-1.373-2.857-2.198C20.728,207.146,19.281,204.991,19.571,203.875z"/>
<path fill-rule="evenodd" clip-rule="evenodd" fill="#B8C4CF" stroke="#000000" stroke-width="1.0001" stroke-linecap="round" stroke-miterlimit="2.6131" d="
	M19.021,186.73c-0.719,2.403-3.721,16.065-1.978,17.603c3.698,3.264,17.212,10.715,21.76,12.29
	c7.545,2.614,2.646,2.369,12.749,3.718c8.582,1.146,9.278,2.487,1.701-6.154c-2.026-2.311-23.513-18.122-23.977-19.104
	c-0.485-1.026-6.881-5.174-8.057-8.572c-0.412-0.106-1.238-0.646-1.978-0.88L19.021,186.73z"/>
<path fill-rule="evenodd" clip-rule="evenodd" fill="#EFDBD4" stroke="#000000" stroke-width="1.0001" stroke-linecap="round" stroke-miterlimit="2.6131" d="
	M17.043,177.499c0,1.714,0.206,8.103,2.198,8.792c0,0.128,18.219,23.543,20.661,24.341c0.12,0.039,5.352,4.711,7.913,5.771
	c2.277,0.943,12.879,11.713,18.463,14.362c2.683,1.273,8.689,16.782,10.99,20.806c0-0.031,0.1,5.588-1.042,8.353
	c-0.087,0.212-1.641,11.397-0.734,11.945c2.479,1.499,1.498,0.529,3.24-3.573c0.712-1.678,3.983-17.496,6.616-13.153
	c1.058,1.744,2.483,7.188,5.385,11.759c0.04,0.063,0.995,3.609,1.08,3.976c0.059,0.012,2.56,5.027,4.302,1.52
	c0.896-1.802-6.751-21.065-4.34-19.066c1.784,1.479,2.183,0.237,5.112,4.616c2.309,3.451,3.461,4.187,6.538,6.65
	c9.095,7.282,7.323,0.09,2.856-3.41c-1.289-1.011-7.97-10.646-8.113-11.316c0.104-0.029,25.822,18.771,18.959,7.178
	c-0.327-0.552-11.447-8.768-11.505-8.773c0-0.25-2.608-1.669-2.857-2.638c-1.392,0-5.601-11.502-2.801-9.508
	c2.854,2.033,12.253,1.498,12.253-5.219c-1.257-1.648-6.975,1.867-11.926-0.822c-0.664-0.36-2.393-1.43-3.021-1.375
	c0-1.203-6.155-0.847-6.155-4.396c-2.661-0.923-3.197,3.681-12.089-4.195c-0.279-0.248-1.838-1.044-2.198-1.08
	c-1.95-2.229,0.04-0.605,0,0c-1.491-1.491,0.66,1.1,0,0c-0.659-1.099-8.353-9.231-10.331-11.869s-9.671-8.133-12.089-13.188
	c-2.418-5.055-9.892-12.198-12.089-15.605c-2.198-3.407-1.869-5.605-5.386-6.264c-3.517-0.659-19.012,6.044-19.012,6.044
	L17.043,177.499z"/>
<path fill-rule="evenodd" clip-rule="evenodd" fill="#7CDDF9" stroke="#000000" stroke-width="1.0001" stroke-linecap="round" stroke-miterlimit="2.6131" d="
	M81.5,219.976c-2.083,2.083-6.166,7.77-8.462,9.149c-0.357,0.215-2.843,3.095-4.735,3.882c0.005-0.034-0.9,0.052,1.036,3.005
	c0.601,0.916,1.446,2.996,2.38,3.636c0.083-0.24,6.797-5.617,7.913-7.115c2.596-3.486,4.597-3.007,6.374-8.381
	c0.363-1.101,0.106-0.668-2.418-2.646C83.208,221.207,81.691,219.785,81.5,219.976z"/>
<path fill-rule="evenodd" clip-rule="evenodd" fill="none" stroke="#000000" stroke-width="1.0001" stroke-linecap="round" stroke-miterlimit="2.6131" d="
	M71.17,235.032c2.66-1.184,9.613-8.535,11.84-11.311c0.248-0.309,0.321-0.529,0.469-0.889"/>
<path fill-rule="evenodd" clip-rule="evenodd" fill="none" stroke="#000000" stroke-width="1.0001" stroke-linecap="round" stroke-miterlimit="2.6131" d="
	M42.43,225.525c0.331,1.125,7.845,11.866,8.409,9.729c1.372-5.197,3.033-5.657,4.559-11.486"/>
<path fill-rule="evenodd" clip-rule="evenodd" fill="none" stroke="#000000" stroke-width="1.0001" stroke-linecap="round" stroke-miterlimit="2.6131" d="
	M58.696,227.064c-2.568,2.093-3.604,4.822-5.275,7.473"/>
</svg>
