<?xml version="1.0" encoding="utf-8"?>
<!-- Generator: Adobe Illustrator 17.0.0, SVG Export Plug-In . SVG Version: 6.00 Build 0)  -->
<!DOCTYPE svg PUBLIC "-//W3C//DTD SVG 1.1//EN" "http://www.w3.org/Graphics/SVG/1.1/DTD/svg11.dtd">
<svg version="1.1" id="Ebene_1" xmlns="http://www.w3.org/2000/svg" xmlns:xlink="http://www.w3.org/1999/xlink" x="0px" y="0px"
	 width="1000px" height="1000px" viewBox="0 0 1000 1000" enable-background="new 0 0 1000 1000" xml:space="preserve">
<g>
	<g>
		<ellipse fill="#DBDBDB" cx="470" cy="950" rx="150" ry="32"/>
		<g>
			
				<radialGradient id="SVGID_1_" cx="457.2301" cy="40.8855" r="56.8259" gradientTransform="matrix(1 0 0 -0.9991 84 974.7029)" gradientUnits="userSpaceOnUse">
				<stop  offset="0" style="stop-color:#3A3A3A"/>
				<stop  offset="0.5716" style="stop-color:#272725"/>
				<stop  offset="1" style="stop-color:#1D1D1B"/>
			</radialGradient>
			<path fill="url(#SVGID_1_)" d="M486.593,942.031c3.831,1.374,33.223,6.609,36.832,6.216c0.283-1.585,0.93-5.033,0.836-6.666
				c19.963,10.662,49.951,13.469,42.092-3.02c-5.396-11.339-74.873-46.006-75.066-44.764L486.593,942.031z"/>
			
				<radialGradient id="SVGID_2_" cx="354.2117" cy="26.4004" r="52.4325" gradientTransform="matrix(1 0 0 -0.9991 84 974.7029)" gradientUnits="userSpaceOnUse">
				<stop  offset="0" style="stop-color:#3A3A3A"/>
				<stop  offset="0.5716" style="stop-color:#272725"/>
				<stop  offset="1" style="stop-color:#1D1D1B"/>
			</radialGradient>
			<path fill="url(#SVGID_2_)" d="M389.028,954.498c3.732,1.622,32.722,8.757,36.349,8.598c0.385-1.563,1.255-4.962,1.27-6.597
				c19.224,11.936,48.964,16.686,42.199-0.276c-4.649-11.665-71.72-50.776-71.995-49.549L389.028,954.498z"/>
			<g>
				
					<linearGradient id="SVGID_3_" gradientUnits="userSpaceOnUse" x1="355.8797" y1="308.1932" x2="326.9304" y2="38.0035" gradientTransform="matrix(1 0 0 -1 84 975)">
					<stop  offset="0" style="stop-color:#423F44"/>
					<stop  offset="0.3088" style="stop-color:#555257"/>
					<stop  offset="0.7194" style="stop-color:#69666B"/>
					<stop  offset="1" style="stop-color:#706D72"/>
				</linearGradient>
				<path fill="url(#SVGID_3_)" d="M419.781,645.793c-5.283,76.367-11.962,128.384-19.035,183.454
					c-4.183,32.574-8.509,66.257-12.494,105.276l43.028,4.388c3.929-38.461,8.218-71.862,12.367-104.164
					c6.84-53.266,13.913-108.345,19.283-185.972L419.781,645.793z"/>
				<path fill="#88838C" d="M440.007,647.191c-5.323,76.955-12.04,129.261-19.151,184.636
					c-4.167,32.445-8.475,65.994-12.435,104.753l2.69,0.274c3.956-38.724,8.262-72.256,12.426-104.686
					c7.116-55.415,13.838-107.756,19.168-184.791L440.007,647.191z"/>
				<g>
					<path fill="#AFAFAF" d="M420.17,796.71l0.158-2.695c-5.161-0.306-10.246-0.167-15.126,0.197
						c-0.114,0.912-0.228,1.824-0.342,2.733C409.797,796.56,414.955,796.407,420.17,796.71z"/>
					<path fill="#AFAFAF" d="M419.991,788.394l0.576-2.639c-2.395-0.522-4.883-0.99-7.402-1.464
						c-2.185-0.41-4.386-0.845-6.577-1.303c-0.11,0.9-0.22,1.795-0.33,2.692c2.138,0.444,4.281,0.865,6.407,1.265
						C415.159,787.416,417.621,787.879,419.991,788.394z"/>
				</g>
			</g>
			<g>
				
					<linearGradient id="SVGID_4_" gradientUnits="userSpaceOnUse" x1="421.2458" y1="321.7711" x2="422.8538" y2="52.3908" gradientTransform="matrix(1 0 0 -1 84 975)">
					<stop  offset="0" style="stop-color:#423F44"/>
					<stop  offset="0.3088" style="stop-color:#555257"/>
					<stop  offset="0.7194" style="stop-color:#69666B"/>
					<stop  offset="1" style="stop-color:#706D72"/>
				</linearGradient>
				<path fill="url(#SVGID_4_)" d="M524.017,633.765l-43.142,3.101c7.583,105.3,8.196,192.623,1.988,283.14l43.151,2.954
					C532.367,830.348,531.751,741.156,524.017,633.765z"/>
				<path fill="#88838C" d="M503.795,635.219l-2.697,0.193c7.653,106.279,8.267,194.48,1.992,285.977l2.697,0.186
					C512.072,829.943,511.458,741.629,503.795,635.219z"/>
				<g>
					<path fill="#AFAFAF" d="M503.52,772.457c-5.011-1.217-10.518-2.026-16.642-2.459c0.013,0.907,0.021,1.805,0.031,2.709
						c5.882,0.424,11.168,1.21,15.97,2.374L503.52,772.457z"/>
					<path fill="#AFAFAF" d="M503.532,781.775l-0.663-2.617c-4.362,1.104-8.974,1.688-13.434,2.254
						c-0.801,0.102-1.611,0.207-2.42,0.313c0.007,0.904,0.021,1.816,0.027,2.719c0.915-0.119,1.829-0.237,2.734-0.352
						C494.316,783.517,499.011,782.922,503.532,781.775z"/>
				</g>
			</g>
			<g>
				<g>
					
						<linearGradient id="SVGID_5_" gradientUnits="userSpaceOnUse" x1="444.5886" y1="410.3127" x2="617.6284" y2="470.6752" gradientTransform="matrix(1 0 0 -1 84 975)">
						<stop  offset="0" style="stop-color:#423F44"/>
						<stop  offset="0.3088" style="stop-color:#555257"/>
						<stop  offset="0.7194" style="stop-color:#69666B"/>
						<stop  offset="1" style="stop-color:#706D72"/>
					</linearGradient>
					<path fill="url(#SVGID_5_)" d="M677.308,490.739c-30.073,49.977-59.27,75.895-84.405,74.853
						c-23.379-0.934-49.289-26.608-71.092-70.434L483.08,514.39c29.902,60.112,67.279,92.748,108.09,94.382
						c1.066,0.043,2.13,0.063,3.194,0.063c41.373,0,81.734-32.221,120.014-95.829L677.308,490.739z"/>
					<g>
						<path fill="#AFAFAF" d="M596.025,585.799l2.671,0.421c0.207-1.311,0.432-2.667,0.663-4.064
							c0.856-5.159,1.809-10.992,2.345-17.28c-0.92,0.18-1.834,0.325-2.745,0.438c-0.539,5.948-1.449,11.481-2.266,16.399
							C596.462,583.119,596.234,584.482,596.025,585.799z"/>
						<path fill="#AFAFAF" d="M584.792,586.606c3.753-7.63,6.118-14.905,6.966-21.096c-0.896-0.066-1.796-0.165-2.699-0.303
							c-0.823,5.887-3.107,12.915-6.692,20.207L584.792,586.606z"/>
					</g>
				</g>
				<g>
					<g>
						
							<radialGradient id="SVGID_6_" cx="734.4018" cy="507.0777" r="426.7895" gradientTransform="matrix(1 0 0 -0.9991 84 974.7029)" gradientUnits="userSpaceOnUse">
							<stop  offset="0" style="stop-color:#86C341"/>
							<stop  offset="0.1518" style="stop-color:#7DBD42"/>
							<stop  offset="0.6923" style="stop-color:#5FAC45"/>
							<stop  offset="1" style="stop-color:#54A546"/>
						</radialGradient>
						<path fill="url(#SVGID_6_)" d="M624.186,839.65c54.868-17.011,168.436-79.032,223.991-292.094
							c55.558-213.065-13.282-322.569-52.869-364.164L624.186,839.65z"/>
						
							<radialGradient id="SVGID_7_" cx="648.5996" cy="522.0002" r="263.7335" gradientTransform="matrix(1 0 0 -0.9991 84 974.7029)" gradientUnits="userSpaceOnUse">
							<stop  offset="0" style="stop-color:#A1D140"/>
							<stop  offset="0.3958" style="stop-color:#94CA40"/>
							<stop  offset="0.7091" style="stop-color:#86C341"/>
							<stop  offset="0.8056" style="stop-color:#79BB42"/>
							<stop  offset="0.9827" style="stop-color:#58A746"/>
							<stop  offset="1" style="stop-color:#54A546"/>
						</radialGradient>
						<path fill="url(#SVGID_7_)" d="M692.158,506.944c-13.011,49.897-31.085,86.613-50.425,113.601l-22.843,87.611
							c34.496-10.692,105.89-49.688,140.815-183.631c34.925-133.947-8.351-202.781-33.236-228.937L703.625,383.2
							C707.323,416.189,705.171,457.044,692.158,506.944z"/>
					</g>
					<g>
						
							<linearGradient id="SVGID_8_" gradientUnits="userSpaceOnUse" x1="696.2146" y1="837.8145" x2="594.3241" y2="586.8156" gradientTransform="matrix(1 0 0 -1 84 975)">
							<stop  offset="0" style="stop-color:#347133"/>
							<stop  offset="0.0489" style="stop-color:#377735"/>
							<stop  offset="0.361" style="stop-color:#4A9743"/>
							<stop  offset="0.5333" style="stop-color:#51A348"/>
							<stop  offset="1" style="stop-color:#2F682F"/>
						</linearGradient>
						<path fill="url(#SVGID_8_)" d="M806.884,286.672c-29.531,113.259-125.271,103.921-176.195,90.665l66.672-255.692
							C748.29,134.899,836.415,173.417,806.884,286.672z"/>
						
							<radialGradient id="SVGID_9_" cx="561.1976" cy="754.6168" r="162.385" gradientTransform="matrix(1 0 0 -0.9991 84 974.7029)" gradientUnits="userSpaceOnUse">
							<stop  offset="0" style="stop-color:#A1D140"/>
							<stop  offset="0.2647" style="stop-color:#86C341"/>
							<stop  offset="1" style="stop-color:#54A546"/>
						</radialGradient>
						<path fill="url(#SVGID_9_)" d="M756.236,273.489c-18.413,70.608-74.623,117.105-125.548,103.849
							c-50.924-13.256-77.283-81.241-58.869-151.85c18.409-70.607,74.618-117.1,125.541-103.842
							C748.29,134.899,774.646,202.882,756.236,273.489z"/>
						<g>
							<g>
								<path fill="#417F34" d="M707.856,204.839c-3.217,4.247-8.026,4.731-10.744,1.088c-2.714-3.638-2.313-10.032,0.919-14.275
									c3.224-4.241,8.033-4.73,10.748-1.09C711.497,194.204,711.085,200.599,707.856,204.839z"/>
								<path fill="#417F34" d="M688.504,184.995c-1.433,5.499-5.808,9.118-9.77,8.088c-3.957-1.029-6.013-6.323-4.578-11.82
									c1.432-5.498,5.81-9.12,9.771-8.089C687.89,174.205,689.938,179.499,688.504,184.995z"/>
								<path fill="#417F34" d="M662.594,182.428c0.744,5.279-2.027,11.058-6.174,12.906c-4.149,1.853-8.11-0.915-8.846-6.188
									c-0.745-5.276,2.014-11.056,6.164-12.911C657.89,174.38,661.852,177.152,662.594,182.428z"/>
								<path fill="#417F34" d="M637.059,197.848c2.722,3.627,2.304,10.018-0.916,14.261c-3.219,4.241-8.034,4.742-10.752,1.09
									c-2.709-3.642-2.306-10.029,0.918-14.273C629.536,194.683,634.347,194.191,637.059,197.848z"/>
								<path fill="#417F34" d="M618.753,227.087c3.97,1.031,6.025,6.318,4.592,11.814c-1.433,5.497-5.81,9.117-9.781,8.084
									c-3.96-1.033-6.013-6.325-4.582-11.822C610.418,229.668,614.793,226.058,618.753,227.087z"/>
								<path fill="#417F34" d="M612.582,262.335c4.15-1.865,8.111,0.919,8.846,6.195c0.746,5.267-2.016,11.05-6.162,12.893
									c-4.151,1.864-8.111-0.905-8.858-6.185C605.668,269.963,608.434,264.192,612.582,262.335z"/>
								<path fill="#417F34" d="M620.196,294.141c3.217-4.247,8.027-4.725,10.743-1.085c2.716,3.635,2.315,10.027-0.916,14.276
									c-3.222,4.231-8.035,4.727-10.751,1.092C616.555,304.776,616.97,298.386,620.196,294.141z"/>
								<path fill="#417F34" d="M639.547,313.995c1.435-5.512,5.814-9.13,9.771-8.097c3.964,1.029,6.009,6.323,4.576,11.828
									c-1.428,5.494-5.806,9.112-9.769,8.078C640.167,324.779,638.115,319.485,639.547,313.995z"/>
								<path fill="#417F34" d="M665.461,316.556c-0.743-5.287,2.027-11.061,6.171-12.91c4.15-1.853,8.112,0.912,8.849,6.189
									c0.744,5.271-2.017,11.057-6.166,12.913C670.165,324.597,666.207,321.823,665.461,316.556z"/>
								<path fill="#417F34" d="M690.992,301.134c-2.719-3.631-2.302-10.023,0.926-14.264c3.211-4.243,8.028-4.738,10.744-1.087
									c2.713,3.642,2.31,10.03-0.917,14.272C698.521,304.298,693.71,304.782,690.992,301.134z"/>
								<path fill="#417F34" d="M709.296,271.902c-3.97-1.036-6.018-6.327-4.586-11.824c1.436-5.494,5.808-9.106,9.775-8.075
									c3.966,1.034,6.017,6.319,4.586,11.813C717.637,269.312,713.264,272.933,709.296,271.902z"/>
								<path fill="#417F34" d="M715.475,236.656c-4.154,1.852-8.117-0.925-8.848-6.199c-0.745-5.278,2.011-11.054,6.158-12.902
									c4.151-1.859,8.113,0.91,8.858,6.186C722.385,229.019,719.619,234.789,715.475,236.656z"/>
							</g>
							<g>
								<path fill="#417F34" d="M678.352,217.374c-1.109,4.254-4.509,7.049-7.581,6.253c-3.074-0.802-4.671-4.9-3.563-9.156
									c1.116-4.275,4.516-7.073,7.583-6.275C677.865,208.999,679.469,213.101,678.352,217.374z"/>
								<path fill="#417F34" d="M651.965,221.262c2.107,2.853,1.792,7.801-0.708,11.106c-2.505,3.286-6.232,3.646-8.346,0.835
									c-2.113-2.819-1.786-7.783,0.705-11.06C646.112,218.845,649.853,218.454,651.965,221.262z"/>
								<path fill="#417F34" d="M637.642,253.412c3.218-1.422,6.298,0.704,6.879,4.792c0.567,4.106-1.574,8.581-4.808,10.046
									c-3.214,1.415-6.286-0.741-6.858-4.84C632.284,259.339,634.423,254.836,637.642,253.412z"/>
								<path fill="#417F34" d="M649.706,281.601c1.11-4.256,4.504-7.047,7.58-6.247c3.067,0.798,4.671,4.892,3.562,9.148
									c-1.112,4.28-4.519,7.078-7.588,6.279C650.188,289.983,648.59,285.884,649.706,281.601z"/>
								<path fill="#417F34" d="M676.094,277.72c-2.109-2.855-1.792-7.799,0.705-11.113c2.504-3.287,6.229-3.64,8.347-0.827
									c2.114,2.814,1.778,7.781-0.706,11.056C681.94,280.141,678.199,280.522,676.094,277.72z"/>
								<path fill="#417F34" d="M690.415,245.572c-3.221,1.416-6.306-0.708-6.881-4.808c-0.563-4.099,1.577-8.573,4.808-10.036
									c3.21-1.417,6.286,0.749,6.854,4.84C695.767,239.646,693.639,244.137,690.415,245.572z"/>
							</g>
						</g>
					</g>
				</g>
				<path fill="#E3BB94" d="M680.919,492.908l5.486-15.506c0,0,20.584-5.796,26.454-7.95c1.84,1.673,3.354,6.848,1.226,10.952
					c-2.654,5.119-9.22,8.583-17.415,8.574l-2.91,11.645L680.919,492.908z"/>
			</g>
			<g>
				<polygon fill="#606060" points="640.357,165.724 602.72,228.89 612.012,234.417 649.648,171.251 				"/>
				<path fill="#E3BB94" d="M637.463,277.614c-0.54-7.29-8.065-20.413-10.949-25.052c-8.742-14.064-19.667-31.974-23.55-59.921
					c-6.458-46.466-12.707-76.556-12.707-76.556s-17.22-0.355-43.722,2.99c-30.835,41.274-54.896,137.236-59.78,168.604
					c-12.435,70.84,0.92,105.055,43.945,124.981l-0.002,0.003C575.511,381.776,642.853,350.245,637.463,277.614z"/>
				<g>
					<path fill="#C1916B" d="M595.723,235.195c-9.569,3.357-19.587-0.359-22.38-8.311c-2.793-7.942,2.701-17.103,12.271-20.457
						c9.57-3.357,19.585,0.361,22.377,8.302C610.785,222.683,605.29,231.836,595.723,235.195z"/>
					<path fill="#FFFFFF" d="M594.14,235.75c-8.034,2.819-16.619-0.743-19.158-7.967c-2.535-7.221,1.938-15.359,9.973-18.174
						c8.051-2.829,16.636,0.733,19.174,7.952C606.665,224.787,602.192,232.925,594.14,235.75z"/>
					
						<radialGradient id="SVGID_10_" cx="4184.998" cy="223.0585" r="7.1703" gradientTransform="matrix(-0.9904 -0.1385 0.1386 -0.9895 4702.9771 1025.9426)" gradientUnits="userSpaceOnUse">
						<stop  offset="0" style="stop-color:#3A3A3A"/>
						<stop  offset="0.5716" style="stop-color:#272725"/>
						<stop  offset="1" style="stop-color:#1D1D1B"/>
					</radialGradient>
					<path fill="url(#SVGID_10_)" d="M582.773,227.811c1.395,3.967,5.345,6.208,8.824,4.987c3.488-1.225,5.167-5.438,3.774-9.407
						c-1.397-3.971-5.351-6.2-8.831-4.98C583.06,219.636,581.377,223.837,582.773,227.811z"/>
					<path fill="#FFFFFF" d="M586.297,222.526c0.871,2.482-0.031,5.06-2.019,5.756c-1.988,0.698-4.307-0.749-5.179-3.232
						c-0.872-2.484,0.034-5.062,2.019-5.758C583.104,218.596,585.424,220.04,586.297,222.526z"/>
				</g>
				<path fill="#1D1D1B" d="M652.513,185.186c-2.57-10.201-4.45-26.286-4.45-26.286c-6.305-0.081-19.036,1.221-27.84,3.588
					c-10.925,2.942-32.751,11.229-53.542,29.179c-3.538,3.047-7.878,4.623-8.541,4.817l4.937,17.428c0,0,4.222,21.116,33.804,36.658
					c15.134,7.955,42.65-0.165,53.046-19.355C660.318,212.028,654.134,191.628,652.513,185.186z M643.287,230.904
					c-9.019,10.734-28.246,18.893-41.554,14.992c-12.998-3.808-23.373-20.893-27.115-36.802
					c-2.422-10.373,10.194-21.734,16.858-26.674c8-5.921,30.405-17.878,41.273-11.678c2.759,1.584,11.019,6.357,14.165,18.545
					C650.06,201.473,652.304,220.153,643.287,230.904z"/>
				
					<radialGradient id="SVGID_11_" cx="4196.1006" cy="88.6654" r="43.6824" gradientTransform="matrix(-0.9904 -0.1385 0.1386 -0.9895 4702.9771 1025.9426)" gradientUnits="userSpaceOnUse">
					<stop  offset="0" style="stop-color:#D2948B"/>
					<stop  offset="1" style="stop-color:#AA6963"/>
				</radialGradient>
				<path fill="url(#SVGID_11_)" d="M589.167,358.777c-11.2,2.661-29.128-5.181-28.288-28.543
					c-12.89-2.421-46.095-4.768-46.095-4.768s8.977,50.233,32.738,50.229C571.282,375.693,589.167,358.777,589.167,358.777z"/>
				
					<linearGradient id="SVGID_12_" gradientUnits="userSpaceOnUse" x1="-1489.397" y1="-155.2844" x2="-1686.2977" y2="-255.6173" gradientTransform="matrix(0.9824 0.1869 0.1869 -0.9824 2119.4004 384.621)">
					<stop  offset="0" style="stop-color:#F9E8D8"/>
					<stop  offset="0.8321" style="stop-color:#F5DCC4"/>
					<stop  offset="1" style="stop-color:#F4D9BF"/>
				</linearGradient>
				<path fill="url(#SVGID_12_)" d="M627.007,252.128c-36.163-1.663-55.305-19.873-62.081-33.706
					c-6.563-13.384-16.5-64.941-19.918-98.554c-21.885,3.104-50.078,8.83-80.122,19.45c-23.978,8.475-69.211,41.652-85.011,48.65
					c19.87,44.22,71.338,172.701,67.033,272.585c5.712,10.866,30.286,15.487,49.59,0c3.521-16.149,16.858-33.203,37.136-46.893
					c41.302-27.882,55.532-54.884,55.532-54.884c-24.196,19.086-59.734,1.15-70.425-31.733c15.42,9.837,69.837,11.676,77.912,1.014
					c-8.506-9.377-8.96-22.974-5.182-32.107c21.18-1.987,36.886-9.82,46.861-18.944
					C648.547,267.676,649.896,253.178,627.007,252.128z"/>
				
					<radialGradient id="SVGID_13_" cx="-1372.5719" cy="312.658" r="200.2802" gradientTransform="matrix(0.9904 0.1385 0.1386 -0.9895 1812.8085 622.3981)" gradientUnits="userSpaceOnUse">
					<stop  offset="0" style="stop-color:#CA9E67"/>
					<stop  offset="1" style="stop-color:#7D4E24"/>
				</radialGradient>
				<path fill="url(#SVGID_13_)" d="M459.473,291.876c-19.192-20.297-44.41-58.087-44.85-84.541
					c38.253-23.517,55.672-59.688,64.755-61.48c10.669-2.106,54.403,11.443,65.168,9.109c45.958-9.956,89.069-71.399,57.737-120.346
					c-4.715,18.092-6.494,30.803-12.777,38.308C591.559,58.27,586.882,24.57,572.413,11c-9.591,22.444-30.569,48.641-54.879,56.789
					c8.999-17.985,4.891-34.915,1.064-48.919c-32.87,84.68-141.38,134.48-170.003,139.464
					c11.664,47.352,46.566,122.551,71.892,148.753L459.473,291.876z"/>
				<g>
					<path fill="#CA9E67" d="M406.287,234.455l-1.789,0.623c0.801,2.3,2.043,5.193,3.358,8.261c1.656,3.854,3.531,8.222,4.75,11.982
						l1.801-0.583c-1.248-3.843-3.14-8.255-4.811-12.146C408.295,239.561,407.063,236.695,406.287,234.455z"/>
					<path fill="#CA9E67" d="M395.512,230.847l-1.66,0.906c1.51,2.763,3.302,6.956,5.035,11.009
						c1.879,4.399,3.826,8.947,5.522,11.961l1.652-0.926c-1.65-2.925-3.575-7.425-5.434-11.776
						C398.879,237.923,397.067,233.689,395.512,230.847z"/>
					<path fill="#CA9E67" d="M391.926,239.477l-1.682,0.871l1.25,2.394c2.563,4.909,4.987,9.548,6.293,12.834l1.759-0.699
						c-1.349-3.375-3.789-8.056-6.376-13.01L391.926,239.477z"/>
					<path fill="#CA9E67" d="M581.661,70.427l-1.888-0.058c-0.463,15.071-13.215,36.577-26.236,44.25l0.961,1.63
						C567.981,108.303,581.184,86.035,581.661,70.427z"/>
					<path fill="#CA9E67" d="M562.202,93.006c-4.114,8.244-14.606,20.551-21.968,24.066l0.816,1.706
						c7.814-3.735,18.508-16.238,22.845-24.926L562.202,93.006z"/>
					<path fill="#CA9E67" d="M562.697,85.123l-1.779-0.646c-1.688,4.641-4.887,10.461-6.985,12.707l1.384,1.291
						C557.557,96.075,560.938,89.96,562.697,85.123z"/>
					<path fill="#CA9E67" d="M418.528,190.606l1.539,1.104c2.548-3.558,6.808-9.506,9.915-16.454l-1.729-0.771
						C425.456,180.736,421.916,185.878,418.528,190.606z"/>
					<path fill="#CA9E67" d="M423.525,167.788l-1.874-0.262c-1.024,7.306-8.354,25.683-10.107,29.334l1.704,0.817
						C415.091,193.845,422.457,175.412,423.525,167.788z"/>
					<path fill="#CA9E67" d="M411.772,185.047l0.467-2.187l-1.849-0.397l-0.471,2.188c-0.702,3.289-1.313,6.132-1.874,8.233
						l1.827,0.489C410.448,191.225,411.059,188.363,411.772,185.047z"/>
					<path fill="#CA9E67" d="M414.27,172.837l-1.863-0.342c-0.229,1.245-0.583,3.063-1.012,5.173l1.854,0.376
						C413.681,175.917,414.037,174.091,414.27,172.837z"/>
				</g>
				<g>
					<path fill="#DDB180" d="M471.843,104.985l0.455,1.833c17.6-4.37,32.713-21.519,38.868-30.96l-1.585-1.033
						C503.989,83.404,488.905,100.748,471.843,104.985z"/>
					<path fill="#DDB180" d="M462.859,118.797l-0.262,1.872c5.94,0.83,14.958-1.891,20.423-4.877l-0.905-1.66
						C476.839,117.01,468.196,119.544,462.859,118.797z"/>
					<path fill="#DDB180" d="M469.068,113.045l0.21,1.879c8.336-0.94,19.578-5.901,26.157-11.538l-1.233-1.435
						C487.878,107.372,477.07,112.142,469.068,113.045z"/>
				</g>
				<polygon fill="#1D1D1B" points="435.483,230.817 411.284,292.486 421.293,296.573 445.495,234.901 				"/>
				
					<linearGradient id="SVGID_14_" gradientUnits="userSpaceOnUse" x1="-1233.9053" y1="212.8809" x2="-1433.5396" y2="111.1551" gradientTransform="matrix(0.9904 0.1386 0.1386 -0.9904 1812.8085 622.2685)">
					<stop  offset="0" style="stop-color:#F9E8D8"/>
					<stop  offset="0.8321" style="stop-color:#F5DCC4"/>
					<stop  offset="1" style="stop-color:#F4D9BF"/>
				</linearGradient>
				<path fill="url(#SVGID_14_)" d="M434.144,282.326c-4.331-0.607-44.187,8.302-27.492,38.562
					c10.142,18.375,37.112,5.881,41.735-2.414L434.144,282.326z"/>
				<path fill="#D8AC7C" d="M418.098,301.234c4.245-2.38,10.818-0.08,13.388,5.799c2.567,5.876-5.306,6.497-5.465,1.016
					C425.755,298.983,418.098,301.234,418.098,301.234z"/>
				
					<radialGradient id="SVGID_15_" cx="4812.7612" cy="258.9807" r="67.8615" gradientTransform="matrix(-0.9904 -0.1385 0.1386 -0.9895 5255.5044 1103.1902)" gradientUnits="userSpaceOnUse">
					<stop  offset="0" style="stop-color:#CA9E67"/>
					<stop  offset="1" style="stop-color:#7D4E24"/>
				</radialGradient>
				<path fill="url(#SVGID_15_)" d="M462.442,213.039c0.531-0.281,4.796-11.992,6.445-13.892
					c4.312-4.967,43.723-32.035,43.723-32.035l12.123,14.681C523.056,190.752,475.603,206.141,462.442,213.039z"/>
				
					<radialGradient id="SVGID_16_" cx="4731.5981" cy="296.772" r="60.9643" gradientTransform="matrix(-0.9904 -0.1385 0.1386 -0.9895 5255.5044 1103.1902)" gradientUnits="userSpaceOnUse">
					<stop  offset="0" style="stop-color:#CA9E67"/>
					<stop  offset="1" style="stop-color:#7D4E24"/>
				</radialGradient>
				<path fill="url(#SVGID_16_)" d="M556.674,181.115c0.46-0.245,4.155-10.388,5.584-12.039
					c3.734-4.299,37.888-27.755,37.888-27.755l10.503,12.723C609.194,161.805,568.077,175.141,556.674,181.115z"/>
				<g>
					<path fill="#E3BB94" d="M511.954,266.472c12.426-4.358,19.927-15.202,16.751-24.239c-3.172-9.026-15.81-12.807-28.235-8.447
						c-12.428,4.358-19.926,15.204-16.754,24.228C486.893,267.05,499.529,270.832,511.954,266.472z"/>
					<path fill="#FFFFFF" d="M514.008,265.752c10.436-3.661,16.576-13.281,13.688-21.488c-2.879-8.203-13.692-11.878-24.127-8.218
						c-10.454,3.668-16.596,13.29-13.713,21.493C492.74,265.745,503.556,269.42,514.008,265.752z"/>
					
						<radialGradient id="SVGID_17_" cx="4264.0405" cy="181.5312" r="8.1226" gradientTransform="matrix(-0.9904 -0.1385 0.1386 -0.9895 4702.9771 1025.9426)" gradientUnits="userSpaceOnUse">
						<stop  offset="0" style="stop-color:#3A3A3A"/>
						<stop  offset="0.5716" style="stop-color:#272725"/>
						<stop  offset="1" style="stop-color:#1D1D1B"/>
					</radialGradient>
					<path fill="url(#SVGID_17_)" d="M497.832,258.271c1.57,4.463,6.063,6.966,10.042,5.568c3.985-1.397,5.927-6.152,4.356-10.618
						c-1.571-4.47-6.066-6.959-10.044-5.564C498.208,249.054,496.262,253.797,497.832,258.271z"/>
					<path fill="#FFFFFF" d="M502.638,251.979c0.874,2.484-0.431,5.203-2.92,6.076c-2.485,0.869-5.206-0.438-6.076-2.918
						c-0.875-2.486,0.434-5.201,2.919-6.074C499.042,248.192,501.764,249.497,502.638,251.979z"/>
				</g>
				<path fill="#1D1D1B" d="M564.971,212.953l-6.831-16.469c-2.697,1.114-11.367,3.524-16.974,3.407
					c-33.006-0.694-61.036,8.051-74.302,13.507c-10.697,4.4-24.831,12.667-31.381,17.418c0,0,8.121,15.824,11.829,26.884
					c2.339,6.982,8.66,29.878,31.559,39.385c22.908,9.521,56.796-3.586,67.621-21.944c10.391-17.606,9.229-43.605,9.998-51.453
					C557.261,215.839,564.971,212.953,564.971,212.953z M538.485,274.545c-11.472,13.359-36.7,20.295-52.862,17.344
					c-16.175-2.965-25.533-21.392-29.886-34.66c-4.353-13.267,1.296-23.671,3.194-27.139c7.48-13.622,38.411-19.501,50.493-20.118
					c10.064-0.503,30.385,0.342,34.349,11.445C549.84,238.467,549.691,261.489,538.485,274.545z"/>
			</g>
			<g>
				<polygon fill="#635F66" points="387.517,496.057 407.081,672.463 529.785,647.285 526.466,482.578 498.745,486.015 
					467.853,489.843 443.466,486.376 				"/>
				<g>
					<polygon fill="#D4E6E8" points="496.498,460.554 496.498,477.178 497.545,488.675 484.214,611.816 449.903,493.984 
						446.402,471.587 446.908,460.554 480.119,466.605 					"/>
					<polygon fill="#D60712" points="483.006,496.552 497.813,549.067 483.507,611.816 464.666,560.644 475.865,496.344 
						471.236,487.673 480.484,473.102 485.908,486.166 					"/>
					<polygon fill="#9B989E" points="496.498,477.178 481.24,635.315 513.243,515.202 499.333,511.198 512.357,502.768 					"/>
					<polygon fill="#9B989E" points="446.402,471.587 486.023,613.058 483.95,619.178 432.816,519.858 446.54,514.309 
						428.348,504.155 					"/>
					<polygon fill="#A3B6B7" points="491.597,485.674 487.768,489.321 480.673,470.944 468.737,490.708 451.713,479.442 
						450.661,481.032 469.342,493.396 480.294,475.26 487.017,492.668 492.914,487.053 					"/>
				</g>
			</g>
			
				<radialGradient id="SVGID_18_" cx="237.4594" cy="56.6266" r="193.0474" gradientTransform="matrix(1 0 0 -0.9991 84 974.7029)" gradientUnits="userSpaceOnUse">
				<stop  offset="0" style="stop-color:#7B7B7B"/>
				<stop  offset="0.6545" style="stop-color:#3A3A3A"/>
				<stop  offset="0.852" style="stop-color:#272725"/>
				<stop  offset="1" style="stop-color:#1D1D1B"/>
			</radialGradient>
			<path fill="url(#SVGID_18_)" d="M500.341,824.574c-3.314,20.841-13.66,44.028-30.778,57.111
				c-1.443,1.104-3.953,2.884-6.924,4.652c0.251-7.542-0.535-15.209-2.172-22.656c-1.646-7.495-4.914-19.727-15.054-18.043
				c-7.116,1.183-10.932,9.683-13.286,15.555c-5.759,14.364-6.591,39.063,13.532,41.165c1.198,0.125,2.418,0.117,3.643,0.052
				c-3.038,8.857-8.601,16.475-15.854,22.577c-16.908,14.224-42.431,17.577-63.523,13.5c-6.408-1.24-12.922-3.417-18.768-6.576
				c2.442-8.889,3.659-18.11,3.879-26.818c0.228-8.998-3.218-51.392-22.264-38.989c-8.362,5.445-11.649,19.077-12.821,28.23
				c-1.296,10.133,0.574,20.183,5.868,28.963c3.238,5.37,7.512,9.784,12.419,13.412c-5.564,13.537-15.161,24.927-29.716,30.745
				c-18.391,7.352-39.546,9.775-58.492,3.227c-4.482-1.547-8.414-3.827-11.837-6.618c13.28-17.269,18.603-42.427-1.314-56.275
				c-8.121-5.646-18.641-2.975-23.173,5.643c-7.119,13.536-1.064,34.036,6.138,46.194c1.056,1.782,2.206,3.435,3.413,5.006
				c-22.822,19.432-65.607,19.653-82.079-7.006c-3.655-5.913-13.011-0.492-9.337,5.453c19.051,30.831,62.651,32.042,91.346,14.743
				c2.546-1.536,5.033-3.415,7.41-5.544c22.972,19.075,60.901,14.128,86.651,3.169c14.767-6.284,24.482-18.712,30.369-33.096
				c9.809,4.785,20.946,7.306,31.404,8.21c22.306,1.927,45.842-4.278,63.077-18.777c10.353-8.709,16.312-20.046,18.949-32.322
				c8.678-3.721,16.889-10.227,22.426-15.756c14.502-14.479,24.108-36.201,27.297-56.255
				C511.85,820.636,501.433,817.71,500.341,824.574z M221.846,924.614c0.369-10.154,7.938-11.303,13.473-3.581
				c7.777,10.85,2.767,25.312-4.401,35.276C224.503,947.398,221.434,935.969,221.846,924.614z M338.048,875.192
				C337.686,875.133,337.636,874.876,338.048,875.192L338.048,875.192z M330.326,902.023c-0.286-5.995,2.04-23.766,7.888-26.689
				c0.064,0.058,0.122,0.104,0.202,0.185c0.856,0.852,1.523,2.272,1.995,3.392c2.048,4.873,2.929,10.285,3.441,15.511
				c0.997,10.165,0.426,20.893-2,31.018C335.29,919.56,330.792,911.801,330.326,902.023z M441.22,888.815
				c-4.086-6.286-1.5-16.365,0.642-22.851c0.986-2.986,2.378-6.152,4.438-8.563c0.345-0.402,0.533-0.688,0.659-0.917
				c0.013,0.201,0.064,0.439,0.236,0.73c5.247,8.969,5.978,22.9,4.594,34.021C447.409,892.408,443.399,892.166,441.22,888.815z"/>
			<g>
				
					<linearGradient id="SVGID_19_" gradientUnits="userSpaceOnUse" x1="563.1246" y1="356.2085" x2="487.3312" y2="116.4037" gradientTransform="matrix(1 0 0 -1 84 975)">
					<stop  offset="0" style="stop-color:#347133"/>
					<stop  offset="0.0489" style="stop-color:#377735"/>
					<stop  offset="0.361" style="stop-color:#4A9743"/>
					<stop  offset="0.5333" style="stop-color:#51A348"/>
					<stop  offset="1" style="stop-color:#2F682F"/>
				</linearGradient>
				<path fill="url(#SVGID_19_)" d="M684.728,755.14c-29.533,113.255-125.268,103.919-176.195,90.665l66.674-255.694
					C626.133,603.364,714.26,641.888,684.728,755.14z"/>
				
					<radialGradient id="SVGID_20_" cx="445.6005" cy="295.8855" r="178.5007" gradientTransform="matrix(1 0 0 -0.9991 84 974.7029)" gradientUnits="userSpaceOnUse">
					<stop  offset="0" style="stop-color:#A1D140"/>
					<stop  offset="0.2647" style="stop-color:#86C341"/>
					<stop  offset="1" style="stop-color:#54A546"/>
				</radialGradient>
				<path fill="url(#SVGID_20_)" d="M634.08,741.958c-18.412,70.607-74.62,117.101-125.547,103.847
					c-50.924-13.255-77.28-81.241-58.872-151.848c18.412-70.607,74.621-117.103,125.546-103.847
					C626.133,603.364,652.492,671.352,634.08,741.958z"/>
				<g>
					<g>
						<path fill="#417F34" d="M585.702,673.306c-3.22,4.247-8.027,4.727-10.741,1.086c-2.716-3.632-2.314-10.031,0.915-14.271
							c3.224-4.242,8.034-4.733,10.752-1.091C589.341,662.671,588.927,669.063,585.702,673.306z"/>
						<path fill="#417F34" d="M566.349,653.461c-1.435,5.499-5.806,9.119-9.768,8.088c-3.959-1.029-6.014-6.323-4.579-11.822
							c1.435-5.496,5.81-9.118,9.771-8.089C565.732,642.671,567.782,647.964,566.349,653.461z"/>
						<path fill="#417F34" d="M540.435,650.896c0.749,5.274-2.024,11.055-6.165,12.9c-4.155,1.858-8.117-0.91-8.854-6.182
							c-0.743-5.278,2.018-11.059,6.17-12.913C535.734,642.845,539.694,645.619,540.435,650.896z"/>
						<path fill="#417F34" d="M514.906,666.31c2.716,3.633,2.305,10.021-0.919,14.262c-3.218,4.242-8.034,4.739-10.748,1.091
							c-2.712-3.638-2.31-10.025,0.914-14.271C507.382,663.146,512.191,662.661,514.906,666.31z"/>
						<path fill="#417F34" d="M496.597,695.551c3.971,1.034,6.026,6.322,4.593,11.816c-1.432,5.495-5.813,9.117-9.783,8.081
							c-3.96-1.03-6.012-6.324-4.578-11.822C488.26,698.135,492.635,694.521,496.597,695.551z"/>
						<path fill="#417F34" d="M490.425,730.801c4.153-1.861,8.113,0.925,8.847,6.196c0.747,5.271-2.016,11.049-6.158,12.897
							c-4.156,1.859-8.118-0.91-8.859-6.186C483.514,738.433,486.28,732.661,490.425,730.801z"/>
						<path fill="#417F34" d="M498.043,762.607c3.217-4.247,8.027-4.725,10.743-1.085c2.715,3.633,2.313,10.024-0.918,14.271
							c-3.223,4.237-8.034,4.733-10.753,1.096C494.399,773.242,494.813,766.854,498.043,762.607z"/>
						<path fill="#417F34" d="M517.392,782.458c1.435-5.505,5.815-9.125,9.771-8.096c3.964,1.036,6.011,6.325,4.577,11.831
							c-1.427,5.492-5.804,9.11-9.768,8.082C518.012,793.244,515.959,787.95,517.392,782.458z"/>
						<path fill="#417F34" d="M543.308,785.019c-0.745-5.28,2.027-11.055,6.167-12.903c4.156-1.855,8.113,0.908,8.851,6.184
							c0.742,5.275-2.019,11.06-6.17,12.919C548.01,793.065,544.051,790.289,543.308,785.019z"/>
						<path fill="#417F34" d="M568.835,769.604c-2.718-3.63-2.302-10.024,0.924-14.266c3.213-4.242,8.032-4.741,10.749-1.086
							c2.714,3.64,2.309,10.027-0.921,14.269C576.365,772.765,571.553,773.251,568.835,769.604z"/>
						<path fill="#417F34" d="M587.143,740.369c-3.97-1.032-6.02-6.325-4.586-11.827c1.433-5.493,5.804-9.104,9.773-8.074
							c3.967,1.035,6.019,6.322,4.583,11.813C595.483,737.778,591.104,741.402,587.143,740.369z"/>
						<path fill="#417F34" d="M593.316,705.119c-4.149,1.853-8.114-0.923-8.845-6.192c-0.745-5.281,2.013-11.059,6.159-12.905
							c4.15-1.86,8.116,0.915,8.857,6.185C600.228,697.483,597.465,703.257,593.316,705.119z"/>
					</g>
					<g>
						<path fill="#417F34" d="M556.197,685.844c-1.11,4.252-4.512,7.047-7.583,6.251c-3.07-0.802-4.67-4.902-3.562-9.152
							c1.116-4.276,4.512-7.077,7.585-6.277S557.311,681.565,556.197,685.844z"/>
						<path fill="#417F34" d="M529.81,689.731c2.104,2.848,1.792,7.797-0.708,11.104c-2.507,3.282-6.232,3.647-8.344,0.837
							c-2.115-2.821-1.788-7.782,0.704-11.062C523.957,687.313,527.696,686.925,529.81,689.731z"/>
						<path fill="#417F34" d="M515.488,721.879c3.218-1.424,6.293,0.703,6.875,4.79c0.569,4.108-1.574,8.58-4.807,10.045
							c-3.213,1.423-6.287-0.74-6.856-4.837C510.133,727.802,512.266,723.306,515.488,721.879z"/>
						<path fill="#417F34" d="M527.551,750.067c1.109-4.254,4.507-7.047,7.582-6.25c3.063,0.801,4.669,4.895,3.559,9.151
							c-1.113,4.278-4.514,7.08-7.586,6.281C528.032,758.446,526.435,754.35,527.551,750.067z"/>
						<path fill="#417F34" d="M553.94,746.183c-2.111-2.853-1.794-7.798,0.703-11.108c2.504-3.289,6.228-3.643,8.349-0.832
							c2.113,2.816,1.778,7.785-0.708,11.06C559.786,748.607,556.046,748.991,553.94,746.183z"/>
						<path fill="#417F34" d="M568.26,714.039c-3.223,1.417-6.304-0.708-6.879-4.806c-0.564-4.099,1.577-8.573,4.807-10.037
							c3.213-1.417,6.285,0.748,6.854,4.84C573.614,708.117,571.485,712.606,568.26,714.039z"/>
					</g>
				</g>
			</g>
			<g>
				<path fill="#AFAFAF" d="M451.648,720.424c-14.017-9.656-25.784-20.289-35.181-31.708c-0.114,1.334-0.228,2.674-0.343,3.993
					c9.244,10.789,20.577,20.86,33.917,30.049L451.648,720.424z"/>
				<path fill="#AFAFAF" d="M410.738,747.291c-0.123,1.121-0.246,2.242-0.37,3.355c4.323,3.449,8.827,6.794,13.513,10.022
					l1.608-2.334C420.346,754.792,415.436,751.102,410.738,747.291z"/>
			</g>
			<path fill="#E3BB94" d="M478.772,793.848c-5.083-2.488-11.144-4.452-11.144-4.452l-14.249-15.122l-7.836-16.688l7.421,7.268
				l11.246,10.256c0,0,4.447-2.591,2.581-8.732s-7.325-9.61-7.325-9.61s-5.645-9.347-9.428-16.44
				c-3.751-7.02-9.041-12.116-9.041-12.116l-15.741,13.802l1.289,3.529l5.434,12.191l8.45,30.538l16.811,18.104l18.048,8.229
				c0,0,3.367-6.485-1.362-9.251c-4.728-2.765-9.966-5.833-9.966-5.833l-1.555-2.24l18.672,5.348
				C481.076,802.628,485.1,796.945,478.772,793.848z"/>
			<g>
				
					<linearGradient id="SVGID_21_" gradientUnits="userSpaceOnUse" x1="282.8982" y1="413.4576" x2="331.1466" y2="222.8739" gradientTransform="matrix(1 0 0 -1 84 975)">
					<stop  offset="0" style="stop-color:#423F44"/>
					<stop  offset="0.3088" style="stop-color:#555257"/>
					<stop  offset="0.7194" style="stop-color:#69666B"/>
					<stop  offset="1" style="stop-color:#706D72"/>
				</linearGradient>
				<path fill="url(#SVGID_21_)" d="M387.038,626.726c-1.62-17.967,1.674-36.544,9.012-53.727l-7.386-66.564
					c-32.453,35.156-48.686,79.986-44.705,124.164c4.435,49.211,33.39,94.576,81.53,127.736l24.551-35.577
					C412.132,696.644,390.347,663.438,387.038,626.726z"/>
				<g>
					<path fill="#AFAFAF" d="M377.849,657.399l1.824,1.994c1.586-1.448,3.965-3.462,6.72-5.793c1.642-1.389,3.39-2.869,5.158-4.389
						c-0.292-0.938-0.602-1.873-0.868-2.818c-2.064,1.781-4.122,3.529-6.037,5.147C381.87,653.89,379.473,655.917,377.849,657.399z"
						/>
					<path fill="#AFAFAF" d="M372.142,644.592c3.707-1.94,10.189-4.94,16.372-7.609c-0.17-0.904-0.362-1.807-0.51-2.717
						c-6.424,2.758-13.258,5.914-17.116,7.934L372.142,644.592z"/>
				</g>
			</g>
		</g>
	</g>
</g>
</svg>
