<?xml version="1.0" encoding="utf-8"?>
<!-- Generator: Adobe Illustrator 15.1.0, SVG Export Plug-In . SVG Version: 6.00 Build 0)  -->
<!DOCTYPE svg PUBLIC "-//W3C//DTD SVG 1.1//EN" "http://www.w3.org/Graphics/SVG/1.1/DTD/svg11.dtd">
<svg version="1.1" id="_x23_Layer_1" xmlns="http://www.w3.org/2000/svg" xmlns:xlink="http://www.w3.org/1999/xlink" x="0px"
	 y="0px" width="500px" height="300px" viewBox="0 0 500 300" enable-background="new 0 0 500 300" xml:space="preserve">
<path fill-rule="evenodd" clip-rule="evenodd" fill="#DCD6D6" stroke="#000000" stroke-width="1.0001" stroke-linecap="round" stroke-miterlimit="2.6131" d="
	M99.626,178.783c-1.999,12.794-3.998,19.59-2.399,38.779c1.6,19.19,8.795,34.782,9.995,49.975c1.2,15.191-0.799,27.985-0.799,27.985
	l48.774,0.399c0,0,1.999-23.987,1.999-30.784c0-6.796,4.397-43.577,6.796-54.371s2.799-36.781-0.4-41.179
	c-3.198-4.397-10.794-3.598-16.791-0.399S99.626,179.183,99.626,178.783z"/>
<path fill-rule="evenodd" clip-rule="evenodd" fill="#644940" stroke="#000000" stroke-width="1.0001" stroke-linecap="round" stroke-miterlimit="2.6131" d="
	M118.816,65.243c-5.197,1.599-15.192-1.6-20.389,1.599c-5.198,3.198-9.595,14.393-9.995,21.189
	c-0.4,6.796,2.798,13.992,3.198,25.187c0.399,11.194,1.999,17.191-0.4,27.985c-2.399,10.794-3.998,27.186-2.399,31.983
	c1.599,4.797,15.991,4.397,19.59,7.196c3.598,2.798,25.986,3.198,33.183-1.2c7.196-4.397,19.589-9.195,19.589-12.793
	s-6.396-13.992-6.396-18.79c0-4.797,3.198-14.393,3.998-17.191s2.398-5.597,2.398-5.597s1.2,3.198,2.399,10.794
	c1.2,7.596,1.999,13.193,2.399,19.589c0.4,6.397,10.794,24.388,11.994,29.186c1.199,4.797,16.792-2.399,16.792-2.399
	s-2.399-5.597-3.199-13.192c-0.799-7.597-1.599-17.592-4.397-21.189c-2.799-3.598-5.597-18.391-5.997-24.387
	c-0.399-5.997,1.199-21.189,1.599-23.987s-3.998-9.995-6.396-14.792c-2.399-4.798-22.388,0.399-26.386-3.998
	S119.216,64.843,118.816,65.243z"/>
<path fill-rule="evenodd" clip-rule="evenodd" fill="#E7C3BC" stroke="#000000" stroke-width="1.0001" stroke-linecap="round" stroke-miterlimit="2.6131" d="
	M123.913,61.945c-1.719,1.72-1.739,4.131-2.998,5.597c0,8.141,1.154,6.614,1.816,11.994c0.413,3.362,3.321,19.943,4.329,22.388
	c0.58,1.406,3.25,9.792,3.25,10.994c1.314,0-1.693,3.62,2.999,5.729c2.007,0.902,9.239,5.359,10.264,4.335
	c0.824-0.824,3.016-5.055,2.93-6.065c0.359-0.203,1.513-2.642,1.633-3.164c0.844-0.175,3.651-13.411,4.198-14.992
	c0.079-0.017,4.208-9.913,4.38-9.932c-0.98-2.289,12.361-10.208,14.707-13.542c2.987-4.242,4.795-15.019,5.449-20.337
	c1.089-8.864,2.277-8.622-2.73-16.592c-3.327-5.296-13.298-7.134-18.841-4.849c-1.923,0.792-9.738,2.156-12.445,3.798
	c-1.71,1.037-9.059,3.85-9.127,3.901c-1.003,0.75-1.338-0.037-2.747,1.616c-3.778,4.434-5.775,10.083-6.248,16.506
	C124.711,59.58,124.013,61.588,123.913,61.945z"/>
<path fill-rule="evenodd" clip-rule="evenodd" fill="#CA8F5B" stroke="#000000" stroke-width="1.0001" stroke-linecap="round" stroke-miterlimit="2.6131" d="
	M167.091,22.965c-10.053-4.041-10.203-5.866-21.189-1.6c-11.598,4.504-12.764,11.624-19.938,20.572
	c-0.685,0.854-3.465,5.801-2.451,6.414c-1.167,0.847-5.631,18.774-2.381,22.388c0.245,0.272,0.65,2.083,0.817,2.564
	c0.035,0.007,0.631,7.963-0.314,8.846c-3.334,3.118-10.329,3.182,0.88,3.182c7.487,0-2.69,7.396-1,7.396
	c0-0.066-2.981,2.135-0.731,1.982c0.589-0.04,4.113-0.584,4.129-0.583c0.174-0.503,4.148-3.321,4.798-5.197
	c4.223,4.225,0.807,10.041,2.347,15.209c1.428,4.793,1.923,6.64,7.613,8.613c0.116,0.56-11.727-7.935-3.563-15.426
	c5.779-5.303-0.942-22.174-0.6-22.188c3.387-0.145,6.026,0.771-0.4-1.599c-4.3-1.585-1.063-13.094-1.599-14.792
	c0.06-2.48-5.548-3.191-5.014-9.595c0.311-3.737,5.272-9.744,7.213-2.199c4.879,1.686,0.537,3.082,7.179-1.268l0.417-0.131
	c3.593-2.125,21.329-1.458,23.188-2.999c1.243,0.649,4.809-1.925,5.597-1.599c6.117,0.487,5.167,12.444,2.25,17.043
	c-0.842,1.328-1.426,12.917-3.85,15.34c-0.065,0.065-2.225,3.879-3.364,5.249c-0.776,0.933-1.811,1.106-2.033,1.748
	c-0.988,0.254-5.061,4.604-5.197,4.998c-1.207,0,0.643,0.8-2.799,0.8c0,0.146-2.238,0.399-2.798,0.399
	c0,0.067-1.502,0.822-1.748,1.599c-1.144,3.615-2.634,2.277-3.632,10.395c-0.75,6.105,5.402,16.582,6.779,22.788
	c0.069,0.314,1.509,2.109,1.599,2.199c-0.761,0.157-0.756-1.999,5.597-1.999c0,1.822,11.225-1.366,7.944-6.014l-0.349-0.583
	c0.501-0.875,10.002-11.824,4.666-5.78c-3.072,3.48-4.866,0.629-4.866-3.615c0.167-0.035,2.971-7.329,3.747-8.047
	c2.338-2.167,7.202-10.344,7.048-13.941c-0.051-1.185,0.748-5.372,0-6.196c2.594-3.151,3.729-15.005,2.25-18.591
	c-0.058-0.14-0.251-1.545-0.251-1.799c-2.029-6.611,0.974-8.865-2.947-19.19C176.068,27.048,178.345,27.763,167.091,22.965z"/>
<path fill-rule="evenodd" clip-rule="evenodd" fill="none" stroke="#000000" stroke-width="1.0001" stroke-linecap="round" stroke-miterlimit="2.6131" d="
	M152.898,29.562c-10.348,3.854-10.761,11.131-18.79,13.393"/>
<path fill-rule="evenodd" clip-rule="evenodd" fill="none" stroke="#000000" stroke-width="1.0001" stroke-linecap="round" stroke-miterlimit="2.6131" d="
	M169.089,28.962c1.798,2.612,6.285,6.557,6.797,10.195"/>
<path fill-rule="evenodd" clip-rule="evenodd" fill="none" stroke="#000000" stroke-width="1.0001" stroke-linecap="round" stroke-miterlimit="2.6131" d="
	M123.913,56.148c-1.152,5.883,2.853,14.303,7.745,17.391c0.448,0.282,0.554,0.361,1.051,0.6"/>
<path fill-rule="evenodd" clip-rule="evenodd" fill="none" stroke="#000000" stroke-width="1.0001" stroke-linecap="round" stroke-miterlimit="2.6131" d="
	M130.11,88.73c0.929-2.272,2.04-5.145,2.999-7.396"/>
<path fill-rule="evenodd" clip-rule="evenodd" fill="none" stroke="#000000" stroke-width="1.0001" stroke-linecap="round" stroke-miterlimit="2.6131" d="
	M167.89,84.133c0.2,6.804-5.857,17.347,0.332,25.038c0.621,0.771,1.632,2.053,2.867,1.948"/>
<path fill-rule="evenodd" clip-rule="evenodd" fill="none" stroke="#000000" stroke-width="1.0001" stroke-linecap="round" stroke-miterlimit="2.6131" d="
	M160.694,87.531c-3.596,5.729-6.285,23.936,0.999,28.185"/>
<path fill-rule="evenodd" clip-rule="evenodd" fill="none" stroke="#000000" stroke-width="1.0001" stroke-linecap="round" stroke-miterlimit="2.6131" d="
	M182.482,59.546c-0.513,5.308-2.65,8.294-6.197,12.193"/>
<path fill-rule="evenodd" clip-rule="evenodd" fill="none" stroke="#000000" stroke-width="1.0001" stroke-linecap="round" stroke-miterlimit="2.6131" d="
	M149.709,48.678c0.986-0.308,8.126,1.352,8.886,2.112c0.104,0.104,0.116,0.053,0.279,0.229"/>
<path fill-rule="evenodd" clip-rule="evenodd" fill="none" stroke="#000000" stroke-width="1.0001" stroke-linecap="round" stroke-miterlimit="2.6131" d="
	M168.548,55.908c1.806-0.975,5.606,0.033,5.906,0.611"/>
<path fill-rule="evenodd" clip-rule="evenodd" fill="none" stroke="#000000" stroke-width="1.0001" stroke-linecap="round" stroke-miterlimit="2.6131" d="
	M150.524,53.362c3.579-1.118,6.321-0.26,7.535,3.259"/>
<path fill-rule="evenodd" clip-rule="evenodd" fill="none" stroke="#000000" stroke-width="1.0001" stroke-linecap="round" stroke-miterlimit="2.6131" d="
	M154.699,53.77c-0.976-0.024-2.116,1.234-0.128,2.368c0.781,0.445,0.674,0.25,1.35,0.076
	C156.034,55.552,156.948,53.824,154.699,53.77z"/>
<path fill-rule="evenodd" clip-rule="evenodd" fill="none" stroke="#000000" stroke-width="1.0001" stroke-linecap="round" stroke-miterlimit="2.6131" d="
	M166.104,59.167c2.192-1.184,6.517-1.72,6.517,1.527"/>
<path fill-rule="evenodd" clip-rule="evenodd" fill="none" stroke="#000000" stroke-width="1.0001" stroke-linecap="round" stroke-miterlimit="2.6131" d="
	M168.803,58.403c-1.788,2.447,1.964,2.926,2.189,2.096C171.717,57.83,169.006,58.125,168.803,58.403z"/>
<path fill-rule="evenodd" clip-rule="evenodd" fill="none" stroke="#000000" stroke-width="1.0001" stroke-linecap="round" stroke-miterlimit="2.6131" d="
	M156.43,64.36c-2.05,1.176-0.739,3.134,0.815,2.546c0.161,0.177,1,0.554,1.222,0.611"/>
<path fill-rule="evenodd" clip-rule="evenodd" fill="none" stroke="#000000" stroke-width="1.0001" stroke-linecap="round" stroke-miterlimit="2.6131" d="
	M160.503,67.517c1.824,1.389-1.07,1.784,2.75,1.315c1.839-0.226,1.654-0.234,1.333-2.843c-0.267-2.17-0.573-1.942,0.093-4.481"/>
<path fill-rule="evenodd" clip-rule="evenodd" fill="none" stroke="#000000" stroke-width="1.0001" stroke-linecap="round" stroke-miterlimit="2.6131" d="
	M163.049,73.322c-2.173-0.805-3.264-1.409-5.092-2.165c-2.757-1.141-6.017-0.927-8.656-2.214c-0.96,1.302,1.459,4.167,2.724,4.914
	c1.133,0.671,3.496,4.047,5.525,4.047c0,0.296,2.608,0.116,3.36-0.509"/>
<path fill-rule="evenodd" clip-rule="evenodd" fill="none" stroke="#000000" stroke-width="1.0001" stroke-linecap="round" stroke-miterlimit="2.6131" d="
	M152.255,73.322c3.005,1.775,5.356,3.924,9.183,1.452l0.492-0.23"/>
<path fill-rule="evenodd" clip-rule="evenodd" fill="none" stroke="#000000" stroke-width="1.0001" stroke-linecap="round" stroke-miterlimit="2.6131" d="
	M135.86,60.898c0.109,3.294-0.613,5.245,0.221,8.842c0.031,0.007,2.037,4.009,2.595,4.626c1.68,1.859,0.899,1.009,2.683,2.595
	c2.721,2.421,4.297,4.941,7.536,6.977c1.54,0.968,4.269,2.011,6.11,2.011"/>
<path fill-rule="evenodd" clip-rule="evenodd" fill="none" stroke="#000000" stroke-width="1.0001" stroke-linecap="round" stroke-miterlimit="2.6131" d="
	M131.31,117.316c0.175,1.806,2.199,6.419,2.199,7.996c1.372,0,0.367,8.21-6.214,9.995c-0.241,0.065-7.043,5.069-7.179,5.197"/>
<path fill-rule="evenodd" clip-rule="evenodd" fill="none" stroke="#000000" stroke-width="1.0001" stroke-linecap="round" stroke-miterlimit="2.6131" d="
	M143.104,123.113c-3.041,10.339-12.387,13.025-3.05,21.457c3.162,2.856,9.828,0.723,13.044-1.068"/>
<path fill-rule="evenodd" clip-rule="evenodd" fill="none" stroke="#000000" stroke-width="1.0001" stroke-linecap="round" stroke-miterlimit="2.6131" d="
	M107.722,89.53c1.241,4.237,1.191,11.848,3.147,16.591c0.94,2.28,3.01,12.72,3.232,15.443c0.556,6.803,1.616,9.304,1.616,17.54
	c0,5.091-0.302,12.869-2.199,17.19c-0.034,0.078-0.64,5.223-1.667,7.945c-0.498,1.32-2.205,10.046-2.13,10.046
	c-0.525,0.359-0.399,0.183-0.399,0.8"/>
<path fill-rule="evenodd" clip-rule="evenodd" fill="none" stroke="#000000" stroke-width="1.0001" stroke-linecap="round" stroke-miterlimit="2.6131" d="
	M112.52,182.682c4.68,0,16.087,2.951,20.389,1.399c2.8-1.011,7.014,1.246,16.243-4.347c1.239-0.751,2.93-2.031,3.347-3.649"/>
<path fill-rule="evenodd" clip-rule="evenodd" fill="#DAAE8E" stroke="#000000" stroke-width="1.0001" stroke-linecap="round" stroke-miterlimit="2.6131" d="
	M49.652,211.767c8.396,6.796,44.377,22.788,51.573,24.787s90.752,4.397,105.145,4.798c14.392,0.399,79.958-3.599,91.552-1.6
	c11.594,1.999,96.35,8.796,103.945,8.396s29.185-6.396,29.185-6.396l11.993-18.391c0,0-44.776-3.198-53.972-3.998
	s-60.368,0-76.359,0.8c-15.992,0.8-43.577-2.398-54.771-1.199c-11.194,1.199-95.95-5.197-108.343-3.998
	c-12.393,1.199-62.767-1.199-70.363-2.799C71.641,210.567,49.253,212.966,49.652,211.767z"/>
<path fill-rule="evenodd" clip-rule="evenodd" fill="#E7C3BC" stroke="#000000" stroke-width="1.0001" stroke-linecap="round" stroke-miterlimit="2.6131" d="
	M91.231,174.786c-0.756,0.777-2.099,15.277-2.099,17.091c0,1.873-1.475,8.527-3.398,9.464c-3.651,1.776-18.671,7.722-21.971,7.71
	c-4.176-0.015-3.5,5.333,5.38,1.668c0.29-0.12,18.896,2.727,19.79,3.095c0.193,0.08,3.686,0.148,3.747,0.114
	c0.115,0.064,7.647,0.269,7.647-0.063c0-1.155,3.958-13.438,3.798-17.191c-0.205-4.802,4.998-17.125,4.998-20.988
	c2.913,0-6.127-1.925-6.597-1.982C96.504,172.963,94.942,170.966,91.231,174.786z"/>
<path fill-rule="evenodd" clip-rule="evenodd" fill="#E7C3BC" stroke="#000000" stroke-width="1.0001" stroke-linecap="round" stroke-miterlimit="2.6131" d="
	M195.676,181.882c-0.649-1.611-21.942-0.799-15.923,6.346c0.321,0.382,3.636,9.959,7.944,14.844
	c5.495,6.229,1.15,13.593,7.796,13.593c6.782,0,29.56,4.218,31.715-1c0.462-1.117-6.263-0.482-8.795-2.93
	c-1.097-1.061-12.763-6.326-12.942-7.465c-2.65,1.556-4.696-9.37-6.665-12.376C198.14,191.877,195.945,182.551,195.676,181.882z"/>
<path fill-rule="evenodd" clip-rule="evenodd" fill="none" stroke="#000000" stroke-width="1.0001" stroke-linecap="round" stroke-miterlimit="2.6131" d="
	M130.91,205.47c0.635,1.654,1.399,6.097,1.599,8.195"/>
<path fill-rule="evenodd" clip-rule="evenodd" fill="none" stroke="#000000" stroke-width="1.0001" stroke-linecap="round" stroke-miterlimit="2.6131" d="
	M137.706,263.039c0-5.649-4.031-13.225-2.327-16.99c-1.169-2.249-1.271-4.614-1.271-6.997"/>
<path fill-rule="evenodd" clip-rule="evenodd" fill="#F0D1C7" stroke="#000000" stroke-width="1.0001" stroke-linecap="round" stroke-miterlimit="2.6131" d="
	M330.306-2.521c-8.729,1.371,3.217,26.002-5.397,28.985c-9.881,3.422-6.66,19.168-1.736,25.29c1.006,1.25,2.242,4.838,4.136,5.494
	C328,59.94,346,84.094,347.399,83.828c3.173,4.966,13.059,25.056,17.02,26.089c14.469,3.776,22.506-0.567,25.655-0.297
	c-1.971-3.012-17.322-23.618-18.391-23.987c0-0.549-4.354-5.464-5.197-5.597c0.012-0.137-13.302-22.037-14.357-27.22
	c-1.762-8.645,5.318-25.152-5.632-25.152c0,0.133-9.195-0.878-9.195-4.397c-2.357-0.544-5.197-18.22-5.197-20.79
	C331.588,2.476,331.638-2.73,330.306-2.521z"/>
<path fill-rule="evenodd" clip-rule="evenodd" fill="none" stroke="#000000" stroke-width="1.0001" stroke-linecap="round" stroke-miterlimit="2.6131" d="
	M327.308,38.058c-0.742-2.38-1.6-7.811-1.999-10.395"/>
<path fill-rule="evenodd" clip-rule="evenodd" fill="#FFFFFF" stroke="#000000" stroke-width="1.0001" stroke-linecap="round" stroke-miterlimit="2.6131" d="
	M238.354,223.96c-0.014,0.014-4.687,15.592,0.6,15.592c13.69,0,29.545-1.417,43.977-0.8c6.508,0.278,7.346-1.226,17.591,0.034
	c3.74,0.461,22.301-0.908,21.691-2.136c-0.629-1.267-15.327-11.164-16.895-11.091c-9.137,0.427-16.258-0.455-25.986,0
	c-7.676,0.358-9.668-2.286-21.291-1.165C256.467,224.546,238.444,223.869,238.354,223.96z"/>
<path fill-rule="evenodd" clip-rule="evenodd" fill="#F0D1C7" stroke="#000000" stroke-width="1.0001" stroke-linecap="round" stroke-miterlimit="2.6131" d="
	M256.145,221.361c-8.587,3.74-33.982,38.915-33.982,50.974c0,15.534,13.62,25.55,24.524,5.631
	c7.24-13.226,8.354-16.394,13.559-30.418c7.762-20.916,23.406-9.889,19.989-19.19c-0.142-0.386-11.845-11.876-19.396-7.299
	C260.369,221.344,256.398,221.251,256.145,221.361z"/>
<path fill-rule="evenodd" clip-rule="evenodd" fill="#CBD989" stroke="#000000" stroke-width="1.0001" stroke-linecap="round" stroke-miterlimit="2.6131" d="
	M235.555,263.34c-5.443,5.027,2.296,33.086,2.999,32.72c22.383-11.67,74.034-5.343,98.052-7.63
	c26.724-2.547,53.054-4.356,79.82-5.666c9.546-0.467,9.708-2.631,13.524-12.428c0.624-1.601,3.302-26.918,3.302-29.984
	c0-10.563-7.891-17.652-9.161-27.985c-0.167-1.356-7.934-18.193-9.629-23.622c-5.903-18.891-14.581,1.486-29.688,12.028
	c-16.955,11.831-5.54,8.273-27.883,17.487c-3.769,1.555-20.266,3.039-21.988,10.498c-7.603,0-3.342,5.294-13.993,0.902
	c-5.499-2.268-8.139,5.177-18.79,3.461c-8.192-1.32-17.619,13.876-25.552,11.765c-1.001-0.266-29.846,16.549-38.049,18.22
	C237.553,263.303,236.262,262.687,235.555,263.34z"/>
<path fill-rule="evenodd" clip-rule="evenodd" fill="#F0D1C7" stroke="#000000" stroke-width="1.0001" stroke-linecap="round" stroke-miterlimit="2.6131" d="
	M334.504,128.81c-3.467,3.833-11.089,25.644-9.127,29.984c2.967,6.566,1.931,7.065,1.931,14.393c-0.479,0-1.125,5.922-0.4,6.797
	c-2.882,0.81,6.763,21.988,9.195,21.988c-0.765,8.924,11.594,0.604,11.594,20.39c0,14.225-1.15,5.346,13.593,12.656
	c5.575,2.764,29.21,4.97,31.184,3.335c0.836,2.973,3.199-0.642,3.199-4.397c0-15.161,2.971-4.078-3.096-18.79
	c-4.197-10.178,22.654-69.099,1.53-81.42c-6.773-3.951-7.357-6.958-18.321-7.699c-5.225-0.353-6.865-2.317-15.661-1.599
	c-11.774,0.961-9.695,1.16-19.224,2.764C339.088,127.516,335.582,127.617,334.504,128.81z"/>
<path fill-rule="evenodd" clip-rule="evenodd" fill="#D5AC8F" stroke="#000000" stroke-width="1.0001" stroke-linecap="round" stroke-miterlimit="2.6131" d="
	M346.697,111.219c-6.969,2.268-22.738,23.984-17.688,32.646c1.898,3.257-0.448,11.753,7.458,13.364
	c0.511,0.104,3.633,3.518,3.633,4.363c0.474,0,2.978,3.938,3.198,4.798c1.473,0,7.459,11.04,7.196,17.19
	c-0.592,13.836,7.414-6.194,8.361,5.598c0.374,4.656,11.745,5.104,15.764,6.533c3.045,1.083,19.181,2.662,23.051,2.662
	c0-1.529,12.14-4.369,15.591-17.191c4.894-18.181,17.399-36.703,1.737-54.075c-5.037-5.587,2.835-13.656-23.325-23.085
	c-5.557-2.002-39.845-0.112-43.041,5.369C347.708,109.353,347.261,111.036,346.697,111.219z"/>
<path fill-rule="evenodd" clip-rule="evenodd" fill="none" stroke="#000000" stroke-width="1.0001" stroke-linecap="round" stroke-miterlimit="2.6131" d="
	M334.104,159.594c2.421,5.925,4.941,39.875,9.195,18.391"/>
<path fill-rule="evenodd" clip-rule="evenodd" fill="#666666" stroke="#000000" stroke-width="1.0001" stroke-linecap="round" stroke-miterlimit="2.6131" d="
	M240.153,294.323c17.991-11.194,38.379-21.188,58.37-24.787c19.989-3.598,59.568-12.793,71.563-10.794
	c11.993,1.999,31.583-1.2,36.78-0.8c5.197,0.399,22.788,0.8,25.986,5.997s7.196,13.992,5.197,20.389
	c-1.999,6.397-4.397,12.394-4.397,12.394s-51.173,0.001-62.767,0.4c-11.595,0.399-79.559,1.599-89.953,0
	C270.537,295.522,239.753,295.123,240.153,294.323z"/>
</svg>
