<?xml version="1.0" encoding="utf-8"?>
<!-- Generator: Adobe Illustrator 16.0.0, SVG Export Plug-In . SVG Version: 6.00 Build 0)  -->
<!DOCTYPE svg PUBLIC "-//W3C//DTD SVG 1.1//EN" "http://www.w3.org/Graphics/SVG/1.1/DTD/svg11.dtd">
<svg version="1.1" id="Layer_1" xmlns="http://www.w3.org/2000/svg" xmlns:xlink="http://www.w3.org/1999/xlink" x="0px" y="0px"
	 width="20px" height="20px" viewBox="0 0 20 20" enable-background="new 0 0 20 20" xml:space="preserve">
<g>
	<path fill-rule="evenodd" clip-rule="evenodd" fill="#2C3E50" d="M17.882,8.078v2.02c0-0.227-0.061-0.376-0.13-0.333
		c-4.984,2.877-7.6,4.386-12.585,7.267c-0.072,0.042-0.129,0.254-0.131,0.481v-2.019c0.002,0.224,0.06,0.374,0.131,0.332
		c4.985-2.876,7.601-4.387,12.585-7.265C17.821,8.521,17.882,8.304,17.882,8.078z"/>
	<path fill-rule="evenodd" clip-rule="evenodd" fill="#41607D" d="M5.035,15.268c-0.073,0.042-0.132,0.145-0.132,0.23v2.96
		c0,0.55,0.39,0.771,0.866,0.498l11.378-6.568c0.479-0.276,0.867-0.951,0.867-1.502V7.927c0-0.084-0.058-0.119-0.132-0.076
		C13.264,10.517,9.864,12.479,5.035,15.268z"/>
	<path fill-rule="evenodd" clip-rule="evenodd" fill="#3D566E" d="M18.222,8.753V3.172c0-0.552-0.389-0.774-0.866-0.501L5.977,9.242
		c-0.478,0.276-0.868,0.95-0.868,1.501v5.579c0,0.086,0.062,0.12,0.135,0.078l5.351-3.088v-0.301c0-0.21,0.149-0.47,0.333-0.576
		l1.477-0.851c0.185-0.109,0.333-0.021,0.333,0.192v0.298l5.353-3.091C18.164,8.941,18.222,8.837,18.222,8.753z"/>
	<polygon fill-rule="evenodd" clip-rule="evenodd" fill="#6995BF" points="12.64,11.561 12.434,11.439 12.453,11.455 12.475,11.474 
		12.49,11.497 12.505,11.523 12.515,11.551 12.523,11.582 12.529,11.619 12.529,11.655 12.529,11.953 12.737,12.075 12.737,11.777 
		12.735,11.737 12.729,11.703 12.724,11.669 12.711,11.642 12.696,11.615 12.681,11.595 12.661,11.576 	"/>
	<polygon fill-rule="evenodd" clip-rule="evenodd" fill="#808080" points="10.644,14.167 10.335,13.988 10.313,13.975 
		10.295,13.953 10.276,13.933 10.262,13.906 10.252,13.879 10.244,13.845 10.239,13.811 10.237,13.772 10.237,13.519 10.441,13.4 
		10.546,13.46 10.546,13.948 10.548,13.991 10.554,14.024 10.56,14.055 10.573,14.087 10.586,14.11 10.603,14.133 10.622,14.15 	"/>
	<g>
		<polygon fill-rule="evenodd" clip-rule="evenodd" fill="#BAB8B8" points="10.793,14.315 10.486,14.137 10.462,14.121 
			10.444,14.103 10.427,14.081 10.413,14.055 10.403,14.026 10.395,13.995 10.391,13.959 10.386,13.921 10.386,13.622 
			10.697,13.801 10.697,14.099 10.699,14.137 10.703,14.173 10.711,14.205 10.724,14.233 10.738,14.257 10.754,14.283 
			10.773,14.299 		"/>
		<polygon fill-rule="evenodd" clip-rule="evenodd" fill="#BAB8B8" points="10.697,13.801 10.386,13.622 10.386,13.185 
			10.697,13.36 		"/>
		<polygon fill-rule="evenodd" clip-rule="evenodd" fill="#BAB8B8" points="10.697,13.36 10.386,13.185 10.386,12.886 
			10.391,12.844 10.395,12.804 10.403,12.762 10.413,12.72 10.427,12.68 10.444,12.636 10.462,12.598 10.486,12.556 10.509,12.518 
			10.534,12.481 10.562,12.445 10.591,12.414 10.622,12.382 10.654,12.354 10.687,12.33 10.72,12.308 12.196,11.455 12.231,11.437 
			12.264,11.425 12.296,11.415 12.327,11.411 12.355,11.411 12.385,11.415 12.408,11.421 12.434,11.431 12.741,11.611 
			12.717,11.599 12.692,11.593 12.665,11.589 12.636,11.591 12.604,11.595 12.572,11.604 12.539,11.615 12.507,11.633 11.03,12.485 
			10.996,12.508 10.962,12.532 10.93,12.56 10.901,12.592 10.871,12.624 10.844,12.658 10.818,12.696 10.793,12.736 10.773,12.776 
			10.754,12.816 10.738,12.856 10.724,12.9 10.711,12.94 10.703,12.982 10.699,13.022 10.697,13.063 		"/>
	</g>
	<path fill-rule="evenodd" clip-rule="evenodd" fill="#E6EAEB" d="M12.84,12.563v0.299c0,0.212-0.149,0.47-0.333,0.576l-1.477,0.854
		c-0.184,0.104-0.333,0.018-0.333-0.194v-0.298v-0.44v-0.298c0-0.213,0.149-0.471,0.333-0.577l1.477-0.853
		c0.184-0.104,0.333-0.018,0.333,0.194v0.298V12.563z"/>
	<polygon fill-rule="evenodd" clip-rule="evenodd" fill="#34485C" points="17.76,2.491 15.149,0.984 15.088,0.956 15.023,0.938 
		14.949,0.927 14.876,0.929 14.794,0.941 14.713,0.964 14.623,0.999 14.537,1.043 3.156,7.614 3.113,7.64 3.068,7.671 3.026,7.702 
		2.983,7.734 2.942,7.771 2.901,7.808 2.86,7.847 2.819,7.888 2.783,7.931 2.746,7.973 2.709,8.018 2.672,8.065 2.64,8.112 
		2.607,8.161 2.576,8.21 2.545,8.261 2.517,8.313 2.488,8.365 2.464,8.418 2.439,8.469 2.417,8.525 2.396,8.578 2.376,8.633 
		2.36,8.686 2.343,8.741 2.332,8.794 2.319,8.85 2.309,8.905 2.3,8.958 2.294,9.011 2.292,9.064 2.291,9.115 2.291,13.991 
		2.291,14.697 2.291,16.951 2.294,17.049 2.309,17.137 2.332,17.219 2.36,17.297 2.396,17.367 2.439,17.423 2.488,17.469 
		2.545,17.505 5.158,19.017 5.101,18.977 5.05,18.926 5.007,18.87 4.97,18.804 4.942,18.73 4.919,18.65 4.907,18.556 4.903,18.458 
		4.903,16.204 4.905,16.232 4.913,16.259 4.927,16.278 4.942,16.29 5.148,16.41 5.133,16.396 5.121,16.378 5.113,16.354 
		5.109,16.322 5.109,10.743 5.111,10.692 5.115,10.636 5.121,10.585 5.127,10.53 5.137,10.478 5.148,10.422 5.162,10.369 
		5.178,10.314 5.195,10.261 5.215,10.206 5.235,10.153 5.258,10.098 5.282,10.044 5.307,9.994 5.335,9.94 5.364,9.889 5.395,9.838 
		5.425,9.789 5.458,9.74 5.493,9.693 5.528,9.646 5.564,9.601 5.601,9.558 5.64,9.515 5.679,9.475 5.72,9.436 5.76,9.399 
		5.801,9.362 5.844,9.33 5.889,9.299 5.932,9.271 5.977,9.242 17.355,2.671 17.444,2.626 17.531,2.591 17.613,2.569 17.694,2.555 
		17.768,2.555 17.841,2.565 17.907,2.583 17.968,2.612 	"/>
	<g>
		<polygon fill-rule="evenodd" clip-rule="evenodd" fill="#BAB8B8" points="7.705,6.84 7.235,6.568 7.235,5.547 7.235,5.496 
			7.239,5.443 7.245,5.39 7.251,5.337 7.262,5.281 7.274,5.228 7.288,5.173 7.302,5.12 7.321,5.065 7.339,5.01 7.36,4.957 
			7.382,4.903 7.407,4.851 7.434,4.797 7.46,4.745 7.49,4.693 7.519,4.642 7.551,4.593 7.583,4.546 7.617,4.497 7.651,4.45 
			7.688,4.405 7.727,4.362 7.764,4.32 7.803,4.279 7.844,4.24 7.887,4.203 7.927,4.167 7.97,4.133 8.013,4.103 8.056,4.074 
			8.101,4.046 11.337,2.179 11.424,2.132 11.51,2.097 11.594,2.075 11.673,2.064 11.749,2.061 11.82,2.07 11.888,2.089 11.949,2.12 
			12.418,2.391 12.357,2.361 12.292,2.342 12.218,2.334 12.144,2.336 12.063,2.346 11.982,2.371 11.896,2.406 11.806,2.451 
			8.573,4.32 8.528,4.346 8.485,4.375 8.44,4.405 8.397,4.44 8.356,4.475 8.315,4.511 8.274,4.552 8.236,4.591 8.197,4.634 
			8.161,4.679 8.124,4.724 8.089,4.769 8.054,4.818 8.021,4.865 7.989,4.916 7.96,4.965 7.932,5.018 7.903,5.069 7.878,5.122 
			7.854,5.175 7.832,5.228 7.811,5.283 7.791,5.337 7.774,5.392 7.758,5.445 7.744,5.5 7.733,5.555 7.723,5.608 7.715,5.662 
			7.709,5.714 7.707,5.768 7.705,5.819 		"/>
		<polygon fill-rule="evenodd" clip-rule="evenodd" fill="#BAB8B8" points="12.069,4.322 11.598,4.048 11.598,3.116 11.596,3.078 
			11.592,3.042 11.584,3.012 11.57,2.984 11.557,2.957 11.541,2.935 11.52,2.916 11.5,2.902 11.969,3.174 11.992,3.188 
			12.012,3.207 12.029,3.229 12.043,3.255 12.053,3.282 12.062,3.314 12.065,3.35 12.069,3.388 		"/>
	</g>
	<path fill-rule="evenodd" clip-rule="evenodd" fill="#E6EAEB" d="M8.315,5.555v0.934L7.705,6.84V5.819
		c0-0.55,0.39-1.226,0.868-1.499l3.233-1.869c0.479-0.275,0.869-0.049,0.869,0.5v1.021l-0.605,0.35V3.388
		c0-0.212-0.151-0.298-0.334-0.192L8.648,4.977C8.465,5.083,8.315,5.343,8.315,5.555z"/>
	<polygon fill-rule="evenodd" clip-rule="evenodd" fill="#2C3E50" points="2.536,8.28 2.517,8.313 2.488,8.365 2.464,8.418 
		2.439,8.472 2.417,8.525 2.396,8.578 2.376,8.633 2.36,8.686 2.343,8.741 2.332,8.794 2.319,8.85 2.309,8.905 2.3,8.958 
		2.294,9.011 2.292,9.064 2.291,9.115 2.291,13.991 2.291,14.697 2.291,16.951 2.294,17.049 2.309,17.137 2.332,17.219 2.36,17.297 
		2.396,17.367 2.439,17.423 2.488,17.469 2.545,17.505 5.158,19.017 5.101,18.977 5.05,18.926 5.007,18.87 4.97,18.804 4.942,18.73 
		4.919,18.65 4.907,18.556 4.903,18.458 4.903,16.204 4.905,16.232 4.913,16.259 4.925,16.278 4.942,16.29 5.148,16.41 
		5.133,16.396 5.121,16.378 5.113,16.354 5.109,16.322 5.109,10.743 5.111,10.692 5.115,10.636 5.121,10.585 5.127,10.53 
		5.137,10.478 5.148,10.422 5.162,10.369 5.178,10.316 5.195,10.261 5.215,10.206 5.235,10.153 5.258,10.098 5.282,10.044 
		5.307,9.994 5.335,9.94 5.354,9.905 	"/>
</g>
</svg>
