<?xml version="1.0" encoding="utf-8"?>
<!-- Generator: Adobe Illustrator 16.0.0, SVG Export Plug-In . SVG Version: 6.00 Build 0)  -->
<!DOCTYPE svg PUBLIC "-//W3C//DTD SVG 1.1//EN" "http://www.w3.org/Graphics/SVG/1.1/DTD/svg11.dtd">
<svg version="1.1" id="Layer_1" xmlns="http://www.w3.org/2000/svg" xmlns:xlink="http://www.w3.org/1999/xlink" x="0px" y="0px"
	 width="100px" height="100px" viewBox="0 0 100 100" enable-background="new 0 0 100 100" xml:space="preserve">
<g>
	<g>
		<path fill-rule="evenodd" clip-rule="evenodd" fill="#EBEBEC" d="M50,42.624c5.439,0,9.851,4.412,9.851,9.85
			c0,5.439-4.411,9.852-9.851,9.852s-9.85-4.412-9.85-9.852C40.15,47.035,44.561,42.624,50,42.624L50,42.624z"/>
		<path fill-rule="evenodd" clip-rule="evenodd" fill="#E7E7E8" d="M50,42.681c5.407,0,9.793,4.386,9.793,9.792
			c0,5.408-4.386,9.793-9.793,9.793c-5.408,0-9.792-4.385-9.792-9.793C40.208,47.067,44.592,42.681,50,42.681L50,42.681z"/>
		<path fill-rule="evenodd" clip-rule="evenodd" fill="#E3E4E4" d="M50,42.739c5.376,0,9.735,4.36,9.735,9.735
			c0,5.377-4.359,9.736-9.735,9.736s-9.735-4.359-9.735-9.736C40.265,47.099,44.624,42.739,50,42.739L50,42.739z"/>
		<path fill-rule="evenodd" clip-rule="evenodd" fill="#DFE0E1" d="M50,42.796c5.344,0,9.678,4.334,9.678,9.677
			c0,5.344-4.334,9.678-9.678,9.678c-5.344,0-9.677-4.334-9.677-9.678C40.323,47.13,44.656,42.796,50,42.796L50,42.796z"/>
		<path fill-rule="evenodd" clip-rule="evenodd" fill="#DCDCDD" d="M50,42.854c5.313,0,9.62,4.308,9.62,9.62
			c0,5.313-4.308,9.621-9.62,9.621c-5.312,0-9.62-4.309-9.62-9.621C40.38,47.162,44.688,42.854,50,42.854L50,42.854z"/>
		<path fill-rule="evenodd" clip-rule="evenodd" fill="#D8D9D9" d="M50,42.912c5.28,0,9.563,4.282,9.563,9.562
			c0,5.281-4.282,9.563-9.563,9.563s-9.562-4.281-9.562-9.563C40.438,47.194,44.72,42.912,50,42.912L50,42.912z"/>
		<path fill-rule="evenodd" clip-rule="evenodd" fill="#D4D5D6" d="M50,42.969c5.249,0,9.505,4.257,9.505,9.504
			c0,5.25-4.256,9.506-9.505,9.506c-5.249,0-9.505-4.256-9.505-9.506C40.495,47.226,44.751,42.969,50,42.969L50,42.969z"/>
		<path fill-rule="evenodd" clip-rule="evenodd" fill="#D0D1D2" d="M50,43.027c5.217,0,9.447,4.231,9.447,9.447
			c0,5.217-4.23,9.447-9.447,9.447s-9.447-4.23-9.447-9.447C40.553,47.258,44.783,43.027,50,43.027L50,43.027z"/>
		<path fill-rule="evenodd" clip-rule="evenodd" fill="#CDCECF" d="M50,43.084c5.185,0,9.39,4.205,9.39,9.389
			c0,5.186-4.205,9.391-9.39,9.391c-5.185,0-9.39-4.205-9.39-9.391C40.61,47.29,44.815,43.084,50,43.084L50,43.084z"/>
		<path fill-rule="evenodd" clip-rule="evenodd" fill="#C9CACB" d="M50,43.142c5.153,0,9.332,4.179,9.332,9.332
			c0,5.154-4.179,9.332-9.332,9.332s-9.332-4.178-9.332-9.332C40.668,47.321,44.847,43.142,50,43.142L50,43.142z"/>
		<path fill-rule="evenodd" clip-rule="evenodd" fill="#C5C6C7" d="M50,43.2c5.121,0,9.274,4.153,9.274,9.274
			c0,5.121-4.153,9.275-9.274,9.275c-5.122,0-9.274-4.154-9.274-9.275C40.726,47.353,44.878,43.2,50,43.2L50,43.2z"/>
		<path fill-rule="evenodd" clip-rule="evenodd" fill="#C2C2C4" d="M50,43.257c5.09,0,9.218,4.128,9.218,9.217
			c0,5.09-4.128,9.219-9.218,9.219c-5.089,0-9.217-4.129-9.217-9.219C40.783,47.385,44.911,43.257,50,43.257L50,43.257z"/>
		<path fill-rule="evenodd" clip-rule="evenodd" fill="#BEBFC0" d="M50,43.314c5.058,0,9.16,4.102,9.16,9.159
			c0,5.059-4.103,9.16-9.16,9.16s-9.159-4.102-9.159-9.16C40.841,47.417,44.942,43.314,50,43.314L50,43.314z"/>
		<path fill-rule="evenodd" clip-rule="evenodd" fill="#BABBBC" d="M50,43.372c5.026,0,9.103,4.076,9.103,9.102
			c0,5.027-4.076,9.104-9.103,9.104c-5.026,0-9.102-4.076-9.102-9.104C40.898,47.448,44.974,43.372,50,43.372L50,43.372z"/>
		<path fill-rule="evenodd" clip-rule="evenodd" fill="#B6B7B9" d="M50,43.43c4.994,0,9.045,4.05,9.045,9.044
			c0,4.994-4.051,9.045-9.045,9.045s-9.044-4.051-9.044-9.045C40.956,47.48,45.006,43.43,50,43.43L50,43.43z"/>
		<path fill-rule="evenodd" clip-rule="evenodd" fill="#B3B4B5" d="M50,43.487c4.962,0,8.987,4.024,8.987,8.986
			c0,4.963-4.025,8.988-8.987,8.988c-4.962,0-8.986-4.025-8.986-8.988C41.014,47.512,45.038,43.487,50,43.487L50,43.487z"/>
		<path fill-rule="evenodd" clip-rule="evenodd" fill="#AFB0B2" d="M50,43.545c4.931,0,8.93,3.999,8.93,8.929
			c0,4.932-3.999,8.93-8.93,8.93s-8.929-3.998-8.929-8.93C41.071,47.544,45.069,43.545,50,43.545L50,43.545z"/>
		<path fill-rule="evenodd" clip-rule="evenodd" fill="#ABACAE" d="M50,43.603c4.898,0,8.872,3.973,8.872,8.871
			c0,4.898-3.974,8.873-8.872,8.873c-4.899,0-8.872-3.975-8.872-8.873C41.128,47.576,45.101,43.603,50,43.603L50,43.603z"/>
		<path fill-rule="evenodd" clip-rule="evenodd" fill="#A7A9AA" d="M50,43.66c4.867,0,8.814,3.947,8.814,8.813
			c0,4.867-3.947,8.814-8.814,8.814c-4.867,0-8.814-3.947-8.814-8.814C41.186,47.607,45.133,43.66,50,43.66L50,43.66z"/>
		<path fill-rule="evenodd" clip-rule="evenodd" fill="#A4A5A7" d="M50,43.718c4.835,0,8.757,3.921,8.757,8.756
			c0,4.836-3.922,8.758-8.757,8.758s-8.756-3.922-8.756-8.758C41.244,47.639,45.165,43.718,50,43.718L50,43.718z"/>
		<path fill-rule="evenodd" clip-rule="evenodd" fill="#A0A1A3" d="M50,43.775c4.804,0,8.699,3.896,8.699,8.698
			c0,4.805-3.896,8.699-8.699,8.699c-4.803,0-8.699-3.895-8.699-8.699C41.301,47.671,45.197,43.775,50,43.775L50,43.775z"/>
		<path fill-rule="evenodd" clip-rule="evenodd" fill="#9C9E9F" d="M50,43.833c4.771,0,8.642,3.87,8.642,8.641
			c0,4.771-3.87,8.643-8.642,8.643s-8.641-3.871-8.641-8.643C41.359,47.703,45.229,43.833,50,43.833L50,43.833z"/>
	</g>
	<g>
		<path fill-rule="evenodd" clip-rule="evenodd" fill="#DFE0E1" d="M3.534,15.599c0-0.475,0.387-0.862,0.862-0.862h43.622
			c0.475,0,0.862,0.388,0.862,0.862v24.319c0,0.428-0.306,0.785-0.729,0.851c-5.063,0.794-9.063,4.793-9.856,9.856
			c-0.066,0.422-0.424,0.729-0.852,0.729H4.396c-0.475,0-0.862-0.387-0.862-0.861V15.599L3.534,15.599z"/>
		<path fill-rule="evenodd" clip-rule="evenodd" fill="#DBDCDD" d="M3.599,15.649c0-0.473,0.386-0.86,0.86-0.86h43.497
			c0.474,0,0.859,0.387,0.859,0.86v24.22c0,0.427-0.305,0.783-0.726,0.849c-5.048,0.792-9.055,4.81-9.846,9.857
			c-0.066,0.422-0.422,0.727-0.849,0.727H4.459c-0.474,0-0.86-0.387-0.86-0.86V15.649L3.599,15.649z"/>
		<path fill-rule="evenodd" clip-rule="evenodd" fill="#D7D7D8" d="M3.664,15.699c0-0.472,0.385-0.857,0.857-0.857h43.373
			c0.472,0,0.857,0.386,0.857,0.857V39.82c0,0.425-0.304,0.78-0.725,0.846c-5.033,0.789-9.047,4.825-9.836,9.86
			c-0.066,0.42-0.421,0.723-0.847,0.723H4.521c-0.472,0-0.857-0.385-0.857-0.856V15.699L3.664,15.699z"/>
		<path fill-rule="evenodd" clip-rule="evenodd" fill="#D2D3D4" d="M3.729,15.749c0-0.471,0.384-0.855,0.855-0.855h43.248
			c0.471,0,0.854,0.384,0.854,0.855v24.022c0,0.424-0.303,0.778-0.722,0.844c-5.019,0.787-9.04,4.841-9.826,9.86
			c-0.065,0.418-0.42,0.723-0.844,0.723H4.583c-0.471,0-0.855-0.385-0.855-0.856V15.749L3.729,15.749z"/>
		<path fill-rule="evenodd" clip-rule="evenodd" fill="#CECFD0" d="M3.793,15.798c0-0.469,0.383-0.853,0.853-0.853h43.124
			c0.469,0,0.852,0.383,0.852,0.853v23.923c0,0.423-0.302,0.776-0.72,0.841c-5.005,0.785-9.032,4.857-9.816,9.862
			c-0.066,0.417-0.419,0.72-0.842,0.72H4.646c-0.47,0-0.853-0.383-0.853-0.852V15.798L3.793,15.798z"/>
		<path fill-rule="evenodd" clip-rule="evenodd" fill="#CACBCC" d="M3.858,15.848c0-0.468,0.382-0.85,0.85-0.85h42.999
			c0.468,0,0.85,0.382,0.85,0.85v23.824c0,0.422-0.301,0.774-0.718,0.839c-4.991,0.783-9.024,4.873-9.806,9.864
			c-0.065,0.417-0.418,0.717-0.839,0.717H4.708c-0.468,0-0.85-0.381-0.85-0.85V15.848L3.858,15.848z"/>
		<path fill-rule="evenodd" clip-rule="evenodd" fill="#C6C7C8" d="M3.922,15.898c0-0.466,0.381-0.848,0.848-0.848h42.875
			c0.466,0,0.847,0.381,0.847,0.848v23.726c0,0.42-0.301,0.771-0.716,0.836c-4.976,0.78-9.016,4.889-9.796,9.865
			c-0.065,0.417-0.417,0.715-0.837,0.715H4.77c-0.467,0-0.848-0.381-0.848-0.846V15.898L3.922,15.898z"/>
		<path fill-rule="evenodd" clip-rule="evenodd" fill="#C2C2C4" d="M3.987,15.948c0-0.465,0.379-0.845,0.845-0.845h42.75
			c0.465,0,0.845,0.38,0.845,0.845v23.626c0,0.419-0.3,0.769-0.714,0.834c-4.961,0.778-9.009,4.905-9.786,9.866
			c-0.065,0.415-0.416,0.715-0.834,0.715H4.833c-0.466,0-0.845-0.381-0.845-0.846V15.948L3.987,15.948z"/>
		<path fill-rule="evenodd" clip-rule="evenodd" fill="#BDBEC0" d="M4.052,15.998c0-0.464,0.378-0.843,0.842-0.843H47.52
			c0.464,0,0.842,0.379,0.842,0.843v23.527c0,0.418-0.299,0.767-0.712,0.832c-4.947,0.776-9.001,4.92-9.776,9.869
			c-0.064,0.413-0.414,0.711-0.832,0.711H4.895c-0.464,0-0.842-0.379-0.842-0.842V15.998L4.052,15.998z"/>
		<path fill-rule="evenodd" clip-rule="evenodd" fill="#B9BABB" d="M4.117,16.047c0-0.462,0.377-0.84,0.84-0.84h42.5
			c0.462,0,0.84,0.378,0.84,0.84v23.429c0,0.417-0.298,0.764-0.71,0.829c-4.932,0.773-8.993,4.936-9.766,9.869
			c-0.064,0.413-0.413,0.709-0.83,0.709H4.957c-0.463,0-0.84-0.377-0.84-0.84V16.047L4.117,16.047z"/>
		<path fill-rule="evenodd" clip-rule="evenodd" fill="#B5B6B7" d="M4.182,16.097c0-0.461,0.376-0.838,0.837-0.838h42.376
			c0.461,0,0.837,0.377,0.837,0.838v23.33c0,0.416-0.297,0.762-0.708,0.827c-4.918,0.771-8.985,4.952-9.756,9.87
			c-0.064,0.411-0.412,0.708-0.827,0.708H5.019c-0.461,0-0.837-0.375-0.837-0.836V16.097L4.182,16.097z"/>
		<path fill-rule="evenodd" clip-rule="evenodd" fill="#B1B2B3" d="M4.246,16.147c0-0.46,0.375-0.835,0.835-0.835h42.251
			c0.46,0,0.835,0.375,0.835,0.835v23.23c0,0.414-0.296,0.76-0.706,0.824c-4.904,0.769-8.978,4.968-9.746,9.872
			c-0.064,0.409-0.411,0.707-0.825,0.707H5.082c-0.46,0-0.835-0.375-0.835-0.836V16.147L4.246,16.147z"/>
		<path fill-rule="evenodd" clip-rule="evenodd" fill="#ACADAF" d="M4.311,16.197c0-0.458,0.374-0.833,0.833-0.833h42.127
			c0.458,0,0.833,0.374,0.833,0.833v23.131c0,0.413-0.296,0.758-0.704,0.822c-4.89,0.767-8.97,4.984-9.736,9.874
			c-0.064,0.408-0.41,0.704-0.822,0.704H5.144c-0.458,0-0.833-0.375-0.833-0.833V16.197L4.311,16.197z"/>
		<path fill-rule="evenodd" clip-rule="evenodd" fill="#A8A9AB" d="M4.375,16.247c0-0.457,0.373-0.83,0.831-0.83h42.002
			c0.457,0,0.83,0.373,0.83,0.83v23.033c0,0.412-0.295,0.755-0.702,0.819c-4.875,0.764-8.962,5-9.726,9.875
			c-0.064,0.407-0.408,0.702-0.82,0.702H5.206c-0.458,0-0.831-0.374-0.831-0.831V16.247L4.375,16.247z"/>
		<path fill-rule="evenodd" clip-rule="evenodd" fill="#A4A5A7" d="M4.44,16.296c0-0.456,0.372-0.828,0.828-0.828h41.878
			c0.456,0,0.828,0.372,0.828,0.828V39.23c0,0.411-0.294,0.753-0.7,0.817c-4.86,0.762-8.955,5.016-9.716,9.876
			c-0.063,0.405-0.407,0.699-0.817,0.699H5.268c-0.456,0-0.828-0.372-0.828-0.827V16.296L4.44,16.296z"/>
		<path fill-rule="evenodd" clip-rule="evenodd" fill="#A0A1A3" d="M4.505,16.346c0-0.455,0.371-0.825,0.825-0.825h41.753
			c0.455,0,0.825,0.371,0.825,0.825v22.834c0,0.409-0.293,0.751-0.697,0.814c-4.846,0.76-8.947,5.032-9.707,9.878
			c-0.063,0.404-0.406,0.698-0.815,0.698H5.331c-0.455,0-0.825-0.372-0.825-0.827V16.346L4.505,16.346z"/>
		<path fill-rule="evenodd" clip-rule="evenodd" fill="#9C9D9E" d="M4.57,16.396c0-0.453,0.37-0.823,0.823-0.823h41.629
			c0.453,0,0.823,0.37,0.823,0.823v22.736c0,0.408-0.292,0.749-0.696,0.812c-4.831,0.757-8.939,5.047-9.696,9.879
			c-0.063,0.403-0.404,0.696-0.813,0.696H5.393c-0.453,0-0.823-0.37-0.823-0.823V16.396L4.57,16.396z"/>
		<path fill-rule="evenodd" clip-rule="evenodd" fill="#97999A" d="M4.635,16.446c0-0.452,0.369-0.82,0.82-0.82h41.504
			c0.452,0,0.82,0.369,0.82,0.82v22.637c0,0.407-0.292,0.747-0.693,0.81c-4.817,0.755-8.932,5.063-9.687,9.88
			c-0.063,0.402-0.403,0.693-0.81,0.693H5.455c-0.452,0-0.82-0.368-0.82-0.82V16.446L4.635,16.446z"/>
		<path fill-rule="evenodd" clip-rule="evenodd" fill="#939496" d="M4.699,16.496c0-0.45,0.368-0.818,0.818-0.818h41.38
			c0.45,0,0.818,0.368,0.818,0.818v22.538c0,0.406-0.291,0.745-0.691,0.807c-4.803,0.753-8.924,5.08-9.676,9.882
			c-0.063,0.401-0.402,0.691-0.808,0.691H5.517c-0.45,0-0.818-0.368-0.818-0.817V16.496L4.699,16.496z"/>
		<path fill-rule="evenodd" clip-rule="evenodd" fill="#8F9092" d="M4.764,16.545c0-0.449,0.366-0.815,0.815-0.815h41.255
			c0.449,0,0.815,0.366,0.815,0.815v22.438c0,0.404-0.29,0.743-0.689,0.805c-4.789,0.751-8.917,5.095-9.667,9.884
			c-0.063,0.399-0.401,0.689-0.805,0.689H5.58c-0.449,0-0.815-0.367-0.815-0.816V16.545L4.764,16.545z"/>
		<path fill-rule="evenodd" clip-rule="evenodd" fill="#8B8C8E" d="M4.829,16.595c0-0.448,0.366-0.813,0.813-0.813h41.131
			c0.447,0,0.813,0.365,0.813,0.813v22.34c0,0.403-0.289,0.74-0.688,0.802c-4.773,0.748-8.908,5.111-9.656,9.884
			c-0.063,0.398-0.4,0.688-0.803,0.688H5.642c-0.447,0-0.813-0.365-0.813-0.813V16.595L4.829,16.595z"/>
		<path fill-rule="evenodd" clip-rule="evenodd" fill="#87888A" d="M4.894,16.645c0-0.446,0.364-0.811,0.811-0.811H46.71
			c0.446,0,0.811,0.364,0.811,0.811v22.241c0,0.402-0.288,0.738-0.685,0.8c-4.759,0.746-8.901,5.127-9.646,9.886
			c-0.062,0.397-0.398,0.685-0.8,0.685H5.704c-0.446,0-0.811-0.363-0.811-0.811V16.645L4.894,16.645z"/>
	</g>
	<g>
		<path fill-rule="evenodd" clip-rule="evenodd" fill="#DFE0E1" d="M3.534,89.349c0,0.475,0.387,0.863,0.862,0.863h43.622
			c0.475,0,0.862-0.389,0.862-0.863V65.03c0-0.428-0.306-0.785-0.729-0.852c-5.063-0.793-9.063-4.793-9.856-9.855
			c-0.066-0.424-0.424-0.729-0.852-0.729H4.396c-0.475,0-0.862,0.387-0.862,0.861V89.349L3.534,89.349z"/>
		<path fill-rule="evenodd" clip-rule="evenodd" fill="#DBDCDD" d="M3.599,89.3c0,0.473,0.386,0.859,0.86,0.859h43.497
			c0.474,0,0.859-0.387,0.859-0.859V65.079c0-0.426-0.305-0.781-0.726-0.848c-5.048-0.793-9.055-4.811-9.846-9.859
			c-0.066-0.42-0.422-0.725-0.849-0.725H4.459c-0.474,0-0.86,0.385-0.86,0.859V89.3L3.599,89.3z"/>
		<path fill-rule="evenodd" clip-rule="evenodd" fill="#D7D7D8" d="M3.664,89.249c0,0.473,0.385,0.857,0.857,0.857h43.373
			c0.472,0,0.857-0.385,0.857-0.857V65.128c0-0.426-0.304-0.779-0.725-0.846c-5.033-0.789-9.047-4.826-9.836-9.859
			c-0.066-0.42-0.421-0.725-0.847-0.725H4.521c-0.472,0-0.857,0.387-0.857,0.857V89.249L3.664,89.249z"/>
		<path fill-rule="evenodd" clip-rule="evenodd" fill="#D2D3D4" d="M3.729,89.2c0,0.471,0.384,0.854,0.855,0.854h43.248
			c0.471,0,0.854-0.383,0.854-0.854V65.177c0-0.424-0.303-0.777-0.722-0.842c-5.019-0.787-9.04-4.842-9.826-9.861
			c-0.065-0.42-0.42-0.723-0.844-0.723H4.583c-0.471,0-0.855,0.385-0.855,0.855V89.2L3.729,89.2z"/>
		<path fill-rule="evenodd" clip-rule="evenodd" fill="#CECFD0" d="M3.793,89.149c0,0.469,0.383,0.854,0.853,0.854h43.124
			c0.469,0,0.852-0.385,0.852-0.854V65.228c0-0.424-0.302-0.777-0.72-0.842c-5.005-0.785-9.032-4.857-9.816-9.861
			c-0.066-0.42-0.419-0.721-0.842-0.721H4.646c-0.47,0-0.853,0.383-0.853,0.852V89.149L3.793,89.149z"/>
		<path fill-rule="evenodd" clip-rule="evenodd" fill="#CACBCC" d="M3.858,89.101c0,0.467,0.382,0.85,0.85,0.85h42.999
			c0.468,0,0.85-0.383,0.85-0.85V65.276c0-0.422-0.301-0.773-0.718-0.84c-4.991-0.781-9.024-4.873-9.806-9.863
			c-0.065-0.416-0.418-0.717-0.839-0.717H4.708c-0.468,0-0.85,0.381-0.85,0.85V89.101L3.858,89.101z"/>
		<path fill-rule="evenodd" clip-rule="evenodd" fill="#C6C7C8" d="M3.922,89.05c0,0.467,0.381,0.848,0.848,0.848h42.875
			c0.466,0,0.847-0.381,0.847-0.848V65.325c0-0.42-0.301-0.771-0.716-0.836c-4.976-0.781-9.016-4.889-9.796-9.865
			c-0.065-0.416-0.417-0.717-0.837-0.717H4.77c-0.467,0-0.848,0.381-0.848,0.848V89.05L3.922,89.05z"/>
		<path fill-rule="evenodd" clip-rule="evenodd" fill="#C2C2C4" d="M3.987,89.001c0,0.465,0.379,0.844,0.845,0.844h42.75
			c0.465,0,0.845-0.379,0.845-0.844V65.374c0-0.42-0.3-0.77-0.714-0.834c-4.961-0.777-9.009-4.904-9.786-9.865
			c-0.065-0.416-0.416-0.715-0.834-0.715H4.833c-0.466,0-0.845,0.381-0.845,0.846V89.001L3.987,89.001z"/>
		<path fill-rule="evenodd" clip-rule="evenodd" fill="#BDBEC0" d="M4.052,88.95c0,0.465,0.378,0.844,0.842,0.844H47.52
			c0.464,0,0.842-0.379,0.842-0.844V65.423c0-0.418-0.299-0.766-0.712-0.83c-4.947-0.775-9.001-4.922-9.776-9.869
			c-0.064-0.412-0.414-0.711-0.832-0.711H4.895c-0.464,0-0.842,0.379-0.842,0.842V88.95L4.052,88.95z"/>
		<path fill-rule="evenodd" clip-rule="evenodd" fill="#B9BABB" d="M4.117,88.901c0,0.463,0.377,0.84,0.84,0.84h42.5
			c0.462,0,0.84-0.377,0.84-0.84v-23.43c0-0.416-0.298-0.764-0.71-0.828c-4.932-0.773-8.993-4.936-9.766-9.869
			c-0.064-0.412-0.413-0.709-0.83-0.709H4.957c-0.463,0-0.84,0.377-0.84,0.84V88.901L4.117,88.901z"/>
		<path fill-rule="evenodd" clip-rule="evenodd" fill="#B5B6B7" d="M4.182,88.851c0,0.461,0.376,0.838,0.837,0.838h42.376
			c0.461,0,0.837-0.377,0.837-0.838V65.522c0-0.416-0.297-0.764-0.708-0.826c-4.918-0.771-8.985-4.953-9.756-9.871
			c-0.064-0.412-0.412-0.709-0.827-0.709H5.019c-0.461,0-0.837,0.377-0.837,0.838V88.851L4.182,88.851z"/>
		<path fill-rule="evenodd" clip-rule="evenodd" fill="#B1B2B3" d="M4.246,88.802c0,0.459,0.375,0.834,0.835,0.834h42.251
			c0.46,0,0.835-0.375,0.835-0.834v-23.23c0-0.414-0.296-0.76-0.706-0.824c-4.904-0.77-8.978-4.969-9.746-9.873
			c-0.064-0.408-0.411-0.705-0.825-0.705H5.082c-0.46,0-0.835,0.375-0.835,0.836V88.802L4.246,88.802z"/>
		<path fill-rule="evenodd" clip-rule="evenodd" fill="#ACADAF" d="M4.311,88.751c0,0.459,0.374,0.834,0.833,0.834h42.127
			c0.458,0,0.833-0.375,0.833-0.834V65.62c0-0.414-0.296-0.758-0.704-0.822c-4.89-0.766-8.97-4.984-9.736-9.873
			c-0.064-0.408-0.41-0.703-0.822-0.703H5.144c-0.458,0-0.833,0.375-0.833,0.832V88.751L4.311,88.751z"/>
		<path fill-rule="evenodd" clip-rule="evenodd" fill="#A8A9AB" d="M4.375,88.702c0,0.457,0.373,0.83,0.831,0.83h42.002
			c0.457,0,0.83-0.373,0.83-0.83V65.669c0-0.412-0.295-0.756-0.702-0.818c-4.875-0.766-8.962-5-9.726-9.875
			c-0.064-0.408-0.408-0.701-0.82-0.701H5.206c-0.458,0-0.831,0.373-0.831,0.83V88.702L4.375,88.702z"/>
		<path fill-rule="evenodd" clip-rule="evenodd" fill="#A4A5A7" d="M4.44,88.651c0,0.457,0.372,0.828,0.828,0.828h41.878
			c0.456,0,0.828-0.371,0.828-0.828V65.718c0-0.41-0.294-0.752-0.7-0.816c-4.86-0.762-8.955-5.016-9.716-9.877
			c-0.063-0.404-0.407-0.699-0.817-0.699H5.268c-0.456,0-0.828,0.373-0.828,0.828V88.651L4.44,88.651z"/>
		<path fill-rule="evenodd" clip-rule="evenodd" fill="#A0A1A3" d="M4.505,88.603c0,0.453,0.371,0.824,0.825,0.824h41.753
			c0.455,0,0.825-0.371,0.825-0.824V65.769c0-0.41-0.293-0.752-0.697-0.814c-4.846-0.76-8.947-5.033-9.707-9.879
			c-0.063-0.404-0.406-0.697-0.815-0.697H5.331c-0.455,0-0.825,0.371-0.825,0.826V88.603L4.505,88.603z"/>
		<path fill-rule="evenodd" clip-rule="evenodd" fill="#9C9D9E" d="M4.57,88.552c0,0.453,0.37,0.824,0.823,0.824h41.629
			c0.453,0,0.823-0.371,0.823-0.824V65.817c0-0.408-0.292-0.75-0.696-0.813c-4.831-0.758-8.939-5.047-9.696-9.879
			c-0.063-0.404-0.404-0.695-0.813-0.695H5.393c-0.453,0-0.823,0.369-0.823,0.822V88.552L4.57,88.552z"/>
		<path fill-rule="evenodd" clip-rule="evenodd" fill="#97999A" d="M4.635,88.503c0,0.451,0.369,0.82,0.82,0.82h41.504
			c0.452,0,0.82-0.369,0.82-0.82V65.866c0-0.406-0.292-0.746-0.693-0.809c-4.817-0.756-8.932-5.064-9.687-9.883
			c-0.063-0.4-0.403-0.691-0.81-0.691H5.455c-0.452,0-0.82,0.367-0.82,0.82V88.503L4.635,88.503z"/>
		<path fill-rule="evenodd" clip-rule="evenodd" fill="#939496" d="M4.699,88.452c0,0.451,0.368,0.818,0.818,0.818h41.38
			c0.45,0,0.818-0.367,0.818-0.818V65.915c0-0.406-0.291-0.744-0.691-0.807c-4.803-0.754-8.924-5.08-9.676-9.883
			c-0.063-0.4-0.402-0.691-0.808-0.691H5.517c-0.45,0-0.818,0.369-0.818,0.818V88.452L4.699,88.452z"/>
		<path fill-rule="evenodd" clip-rule="evenodd" fill="#8F9092" d="M4.764,88.403c0,0.449,0.366,0.814,0.815,0.814h41.255
			c0.449,0,0.815-0.365,0.815-0.814V65.964c0-0.404-0.29-0.742-0.689-0.805c-4.789-0.75-8.917-5.094-9.667-9.883
			c-0.063-0.4-0.401-0.689-0.805-0.689H5.58c-0.449,0-0.815,0.367-0.815,0.816V88.403L4.764,88.403z"/>
		<path fill-rule="evenodd" clip-rule="evenodd" fill="#8B8C8E" d="M4.829,88.353c0,0.447,0.366,0.814,0.813,0.814h41.131
			c0.447,0,0.813-0.367,0.813-0.814V66.015c0-0.404-0.289-0.742-0.688-0.803c-4.773-0.748-8.908-5.111-9.656-9.885
			c-0.063-0.4-0.4-0.688-0.803-0.688H5.642c-0.447,0-0.813,0.365-0.813,0.813V88.353L4.829,88.353z"/>
		<path fill-rule="evenodd" clip-rule="evenodd" fill="#87888A" d="M4.894,88.304c0,0.445,0.364,0.811,0.811,0.811H46.71
			c0.446,0,0.811-0.365,0.811-0.811v-22.24c0-0.402-0.288-0.738-0.685-0.801c-4.759-0.746-8.901-5.127-9.646-9.887
			c-0.062-0.396-0.398-0.684-0.8-0.684H5.704c-0.446,0-0.811,0.363-0.811,0.811V88.304L4.894,88.304z"/>
	</g>
	<g>
		<path fill-rule="evenodd" clip-rule="evenodd" fill="#DFE0E1" d="M96.466,15.599c0-0.475-0.387-0.862-0.861-0.862H51.982
			c-0.475,0-0.862,0.388-0.862,0.862v24.319c0,0.428,0.306,0.785,0.729,0.851c5.063,0.794,9.063,4.793,9.856,9.856
			c0.066,0.422,0.424,0.729,0.852,0.729h33.048c0.475,0,0.861-0.387,0.861-0.861V15.599L96.466,15.599z"/>
		<path fill-rule="evenodd" clip-rule="evenodd" fill="#DBDCDD" d="M96.401,15.649c0-0.473-0.386-0.86-0.859-0.86H52.045
			c-0.474,0-0.859,0.387-0.859,0.86v24.22c0,0.427,0.305,0.783,0.726,0.849c5.048,0.792,9.056,4.81,9.847,9.857
			c0.066,0.422,0.423,0.727,0.849,0.727h32.936c0.474,0,0.859-0.387,0.859-0.86V15.649L96.401,15.649z"/>
		<path fill-rule="evenodd" clip-rule="evenodd" fill="#D7D7D8" d="M96.336,15.699c0-0.472-0.384-0.857-0.856-0.857H52.107
			c-0.473,0-0.857,0.386-0.857,0.857V39.82c0,0.425,0.304,0.78,0.724,0.846c5.034,0.789,9.048,4.825,9.837,9.86
			c0.065,0.42,0.421,0.723,0.847,0.723h32.822c0.473,0,0.856-0.385,0.856-0.856V15.699L96.336,15.699z"/>
		<path fill-rule="evenodd" clip-rule="evenodd" fill="#D2D3D4" d="M96.271,15.749c0-0.471-0.383-0.855-0.854-0.855H52.169
			c-0.471,0-0.854,0.384-0.854,0.855v24.022c0,0.424,0.304,0.778,0.723,0.844c5.019,0.787,9.04,4.841,9.826,9.86
			c0.065,0.418,0.42,0.723,0.844,0.723h32.711c0.471,0,0.854-0.385,0.854-0.856V15.749L96.271,15.749z"/>
		<path fill-rule="evenodd" clip-rule="evenodd" fill="#CECFD0" d="M96.207,15.798c0-0.469-0.383-0.853-0.852-0.853H52.231
			c-0.469,0-0.853,0.383-0.853,0.853v23.923c0,0.423,0.303,0.776,0.721,0.841c5.005,0.785,9.032,4.857,9.816,9.862
			c0.065,0.417,0.419,0.72,0.842,0.72h32.598c0.469,0,0.852-0.383,0.852-0.852V15.798L96.207,15.798z"/>
		<path fill-rule="evenodd" clip-rule="evenodd" fill="#CACBCC" d="M96.143,15.848c0-0.468-0.382-0.85-0.85-0.85H52.294
			c-0.468,0-0.851,0.382-0.851,0.85v23.824c0,0.422,0.303,0.774,0.719,0.839c4.99,0.783,9.024,4.873,9.807,9.864
			c0.065,0.417,0.417,0.717,0.839,0.717h32.485c0.468,0,0.85-0.381,0.85-0.85V15.848L96.143,15.848z"/>
		<path fill-rule="evenodd" clip-rule="evenodd" fill="#C6C7C8" d="M96.077,15.898c0-0.466-0.38-0.848-0.847-0.848H52.356
			c-0.467,0-0.848,0.381-0.848,0.848v23.726c0,0.42,0.301,0.771,0.716,0.836c4.976,0.78,9.017,4.889,9.796,9.865
			c0.065,0.417,0.417,0.715,0.838,0.715H95.23c0.467,0,0.847-0.381,0.847-0.846V15.898L96.077,15.898z"/>
		<path fill-rule="evenodd" clip-rule="evenodd" fill="#C2C2C4" d="M96.013,15.948c0-0.465-0.379-0.845-0.844-0.845H52.418
			c-0.465,0-0.845,0.38-0.845,0.845v23.626c0,0.419,0.3,0.769,0.714,0.834c4.962,0.778,9.01,4.905,9.786,9.866
			c0.065,0.415,0.416,0.715,0.835,0.715h32.261c0.465,0,0.844-0.381,0.844-0.846V15.948L96.013,15.948z"/>
		<path fill-rule="evenodd" clip-rule="evenodd" fill="#BDBEC0" d="M95.948,15.998c0-0.464-0.378-0.843-0.842-0.843H52.48
			c-0.464,0-0.843,0.379-0.843,0.843v23.527c0,0.418,0.3,0.767,0.713,0.832c4.946,0.776,9.001,4.92,9.775,9.869
			c0.065,0.413,0.414,0.711,0.832,0.711h32.148c0.464,0,0.842-0.379,0.842-0.842V15.998L95.948,15.998z"/>
		<path fill-rule="evenodd" clip-rule="evenodd" fill="#B9BABB" d="M95.883,16.047c0-0.462-0.376-0.84-0.839-0.84H52.543
			c-0.463,0-0.84,0.378-0.84,0.84v23.429c0,0.417,0.298,0.764,0.71,0.829c4.932,0.773,8.993,4.936,9.766,9.869
			c0.064,0.413,0.413,0.709,0.83,0.709h32.035c0.463,0,0.839-0.377,0.839-0.84V16.047L95.883,16.047z"/>
		<path fill-rule="evenodd" clip-rule="evenodd" fill="#B5B6B7" d="M95.818,16.097c0-0.461-0.375-0.838-0.837-0.838H52.605
			c-0.462,0-0.838,0.377-0.838,0.838v23.33c0,0.416,0.298,0.762,0.708,0.827c4.918,0.771,8.985,4.952,9.756,9.87
			c0.064,0.411,0.412,0.708,0.827,0.708h31.923c0.462,0,0.837-0.375,0.837-0.836V16.097L95.818,16.097z"/>
		<path fill-rule="evenodd" clip-rule="evenodd" fill="#B1B2B3" d="M95.754,16.147c0-0.46-0.375-0.835-0.834-0.835H52.667
			c-0.459,0-0.835,0.375-0.835,0.835v23.23c0,0.414,0.297,0.76,0.706,0.824c4.903,0.769,8.979,4.968,9.746,9.872
			c0.064,0.409,0.41,0.707,0.825,0.707H94.92c0.459,0,0.834-0.375,0.834-0.836V16.147L95.754,16.147z"/>
		<path fill-rule="evenodd" clip-rule="evenodd" fill="#ACADAF" d="M95.689,16.197c0-0.458-0.374-0.833-0.832-0.833H52.729
			c-0.458,0-0.833,0.374-0.833,0.833v23.131c0,0.413,0.296,0.758,0.704,0.822c4.89,0.767,8.971,4.984,9.736,9.874
			c0.064,0.408,0.409,0.704,0.822,0.704h31.698c0.458,0,0.832-0.375,0.832-0.833V16.197L95.689,16.197z"/>
		<path fill-rule="evenodd" clip-rule="evenodd" fill="#A8A9AB" d="M95.624,16.247c0-0.457-0.372-0.83-0.829-0.83H52.792
			c-0.457,0-0.83,0.373-0.83,0.83v23.033c0,0.412,0.295,0.755,0.701,0.819c4.875,0.764,8.963,5,9.727,9.875
			c0.063,0.407,0.408,0.702,0.82,0.702h31.585c0.457,0,0.829-0.374,0.829-0.831V16.247L95.624,16.247z"/>
		<path fill-rule="evenodd" clip-rule="evenodd" fill="#A4A5A7" d="M95.56,16.296c0-0.456-0.371-0.828-0.827-0.828H52.854
			c-0.456,0-0.828,0.372-0.828,0.828V39.23c0,0.411,0.294,0.753,0.7,0.817c4.859,0.762,8.954,5.016,9.716,9.876
			c0.063,0.405,0.406,0.699,0.817,0.699h31.473c0.456,0,0.827-0.372,0.827-0.827V16.296L95.56,16.296z"/>
		<path fill-rule="evenodd" clip-rule="evenodd" fill="#A0A1A3" d="M95.495,16.346c0-0.455-0.37-0.825-0.824-0.825H52.916
			c-0.454,0-0.825,0.371-0.825,0.825v22.834c0,0.409,0.294,0.751,0.698,0.814c4.846,0.76,8.947,5.032,9.706,9.878
			c0.063,0.404,0.405,0.698,0.814,0.698h31.361c0.454,0,0.824-0.372,0.824-0.827V16.346L95.495,16.346z"/>
		<path fill-rule="evenodd" clip-rule="evenodd" fill="#9C9D9E" d="M95.43,16.396c0-0.453-0.368-0.823-0.821-0.823h-41.63
			c-0.453,0-0.822,0.37-0.822,0.823v22.736c0,0.408,0.292,0.749,0.695,0.812c4.831,0.757,8.939,5.047,9.695,9.879
			c0.063,0.403,0.405,0.696,0.813,0.696h31.248c0.453,0,0.821-0.37,0.821-0.823V16.396L95.43,16.396z"/>
		<path fill-rule="evenodd" clip-rule="evenodd" fill="#97999A" d="M95.365,16.446c0-0.452-0.367-0.82-0.819-0.82H53.041
			c-0.452,0-0.82,0.369-0.82,0.82v22.637c0,0.407,0.291,0.747,0.693,0.81c4.816,0.755,8.932,5.063,9.686,9.88
			c0.063,0.402,0.403,0.693,0.811,0.693h31.136c0.452,0,0.819-0.368,0.819-0.82V16.446L95.365,16.446z"/>
		<path fill-rule="evenodd" clip-rule="evenodd" fill="#939496" d="M95.301,16.496c0-0.45-0.367-0.818-0.817-0.818h-41.38
			c-0.45,0-0.818,0.368-0.818,0.818v22.538c0,0.406,0.291,0.745,0.691,0.807c4.803,0.753,8.924,5.08,9.676,9.882
			c0.063,0.401,0.402,0.691,0.809,0.691h31.022c0.45,0,0.817-0.368,0.817-0.817V16.496L95.301,16.496z"/>
		<path fill-rule="evenodd" clip-rule="evenodd" fill="#8F9092" d="M95.236,16.545c0-0.449-0.366-0.815-0.814-0.815H53.165
			c-0.448,0-0.815,0.366-0.815,0.815v22.438c0,0.404,0.29,0.743,0.69,0.805c4.787,0.751,8.916,5.095,9.665,9.884
			c0.063,0.399,0.401,0.689,0.806,0.689h30.911c0.448,0,0.814-0.367,0.814-0.816V16.545L95.236,16.545z"/>
		<path fill-rule="evenodd" clip-rule="evenodd" fill="#8B8C8E" d="M95.171,16.595c0-0.448-0.364-0.813-0.812-0.813H53.228
			c-0.447,0-0.813,0.365-0.813,0.813v22.34c0,0.403,0.289,0.74,0.688,0.802c4.773,0.748,8.908,5.111,9.655,9.884
			c0.063,0.398,0.399,0.688,0.804,0.688h30.798c0.447,0,0.812-0.365,0.812-0.813V16.595L95.171,16.595z"/>
		<path fill-rule="evenodd" clip-rule="evenodd" fill="#87888A" d="M95.106,16.645c0-0.446-0.363-0.811-0.81-0.811H53.29
			c-0.446,0-0.811,0.364-0.811,0.811v22.241c0,0.402,0.288,0.738,0.686,0.8c4.759,0.746,8.9,5.127,9.646,9.886
			c0.063,0.397,0.398,0.685,0.801,0.685h30.686c0.446,0,0.81-0.363,0.81-0.811V16.645L95.106,16.645z"/>
	</g>
	<g>
		<path fill-rule="evenodd" clip-rule="evenodd" fill="#DFE0E1" d="M96.466,89.349c0,0.475-0.387,0.863-0.861,0.863H51.982
			c-0.475,0-0.862-0.389-0.862-0.863V65.03c0-0.428,0.306-0.785,0.729-0.852c5.063-0.793,9.063-4.793,9.856-9.855
			c0.066-0.424,0.424-0.729,0.852-0.729h33.048c0.475,0,0.861,0.387,0.861,0.861V89.349L96.466,89.349z"/>
		<path fill-rule="evenodd" clip-rule="evenodd" fill="#DBDCDD" d="M96.401,89.3c0,0.473-0.386,0.859-0.859,0.859H52.045
			c-0.474,0-0.859-0.387-0.859-0.859V65.079c0-0.426,0.305-0.781,0.726-0.848c5.048-0.793,9.056-4.811,9.847-9.859
			c0.066-0.42,0.423-0.725,0.849-0.725h32.936c0.474,0,0.859,0.385,0.859,0.859V89.3L96.401,89.3z"/>
		<path fill-rule="evenodd" clip-rule="evenodd" fill="#D7D7D8" d="M96.336,89.249c0,0.473-0.384,0.857-0.856,0.857H52.107
			c-0.473,0-0.857-0.385-0.857-0.857V65.128c0-0.426,0.304-0.779,0.724-0.846c5.034-0.789,9.048-4.826,9.837-9.859
			c0.065-0.42,0.421-0.725,0.847-0.725h32.822c0.473,0,0.856,0.387,0.856,0.857V89.249L96.336,89.249z"/>
		<path fill-rule="evenodd" clip-rule="evenodd" fill="#D2D3D4" d="M96.271,89.2c0,0.471-0.383,0.854-0.854,0.854H52.169
			c-0.471,0-0.854-0.383-0.854-0.854V65.177c0-0.424,0.304-0.777,0.723-0.842c5.019-0.787,9.04-4.842,9.826-9.861
			c0.065-0.42,0.42-0.723,0.844-0.723h32.711c0.471,0,0.854,0.385,0.854,0.855V89.2L96.271,89.2z"/>
		<path fill-rule="evenodd" clip-rule="evenodd" fill="#CECFD0" d="M96.207,89.149c0,0.469-0.383,0.854-0.852,0.854H52.231
			c-0.469,0-0.853-0.385-0.853-0.854V65.228c0-0.424,0.303-0.777,0.721-0.842c5.005-0.785,9.032-4.857,9.816-9.861
			c0.065-0.42,0.419-0.721,0.842-0.721h32.598c0.469,0,0.852,0.383,0.852,0.852V89.149L96.207,89.149z"/>
		<path fill-rule="evenodd" clip-rule="evenodd" fill="#CACBCC" d="M96.143,89.101c0,0.467-0.382,0.85-0.85,0.85H52.294
			c-0.468,0-0.851-0.383-0.851-0.85V65.276c0-0.422,0.303-0.773,0.719-0.84c4.99-0.781,9.024-4.873,9.807-9.863
			c0.065-0.416,0.417-0.717,0.839-0.717h32.485c0.468,0,0.85,0.381,0.85,0.85V89.101L96.143,89.101z"/>
		<path fill-rule="evenodd" clip-rule="evenodd" fill="#C6C7C8" d="M96.077,89.05c0,0.467-0.38,0.848-0.847,0.848H52.356
			c-0.467,0-0.848-0.381-0.848-0.848V65.325c0-0.42,0.301-0.771,0.716-0.836c4.976-0.781,9.017-4.889,9.796-9.865
			c0.065-0.416,0.417-0.717,0.838-0.717H95.23c0.467,0,0.847,0.381,0.847,0.848V89.05L96.077,89.05z"/>
		<path fill-rule="evenodd" clip-rule="evenodd" fill="#C2C2C4" d="M96.013,89.001c0,0.465-0.379,0.844-0.844,0.844H52.418
			c-0.465,0-0.845-0.379-0.845-0.844V65.374c0-0.42,0.3-0.77,0.714-0.834c4.962-0.777,9.01-4.904,9.786-9.865
			c0.065-0.416,0.416-0.715,0.835-0.715h32.261c0.465,0,0.844,0.381,0.844,0.846V89.001L96.013,89.001z"/>
		<path fill-rule="evenodd" clip-rule="evenodd" fill="#BDBEC0" d="M95.948,88.95c0,0.465-0.378,0.844-0.842,0.844H52.48
			c-0.464,0-0.843-0.379-0.843-0.844V65.423c0-0.418,0.3-0.766,0.713-0.83c4.946-0.775,9.001-4.922,9.775-9.869
			c0.065-0.412,0.414-0.711,0.832-0.711h32.148c0.464,0,0.842,0.379,0.842,0.842V88.95L95.948,88.95z"/>
		<path fill-rule="evenodd" clip-rule="evenodd" fill="#B9BABB" d="M95.883,88.901c0,0.463-0.376,0.84-0.839,0.84H52.543
			c-0.463,0-0.84-0.377-0.84-0.84v-23.43c0-0.416,0.298-0.764,0.71-0.828c4.932-0.773,8.993-4.936,9.766-9.869
			c0.064-0.412,0.413-0.709,0.83-0.709h32.035c0.463,0,0.839,0.377,0.839,0.84V88.901L95.883,88.901z"/>
		<path fill-rule="evenodd" clip-rule="evenodd" fill="#B5B6B7" d="M95.818,88.851c0,0.461-0.375,0.838-0.837,0.838H52.605
			c-0.462,0-0.838-0.377-0.838-0.838V65.522c0-0.416,0.298-0.764,0.708-0.826c4.918-0.771,8.985-4.953,9.756-9.871
			c0.064-0.412,0.412-0.709,0.827-0.709h31.923c0.462,0,0.837,0.377,0.837,0.838V88.851L95.818,88.851z"/>
		<path fill-rule="evenodd" clip-rule="evenodd" fill="#B1B2B3" d="M95.754,88.802c0,0.459-0.375,0.834-0.834,0.834H52.667
			c-0.459,0-0.835-0.375-0.835-0.834v-23.23c0-0.414,0.297-0.76,0.706-0.824c4.903-0.77,8.979-4.969,9.746-9.873
			c0.064-0.408,0.41-0.705,0.825-0.705H94.92c0.459,0,0.834,0.375,0.834,0.836V88.802L95.754,88.802z"/>
		<path fill-rule="evenodd" clip-rule="evenodd" fill="#ACADAF" d="M95.689,88.751c0,0.459-0.374,0.834-0.832,0.834H52.729
			c-0.458,0-0.833-0.375-0.833-0.834V65.62c0-0.414,0.296-0.758,0.704-0.822c4.89-0.766,8.971-4.984,9.736-9.873
			c0.064-0.408,0.409-0.703,0.822-0.703h31.698c0.458,0,0.832,0.375,0.832,0.832V88.751L95.689,88.751z"/>
		<path fill-rule="evenodd" clip-rule="evenodd" fill="#A8A9AB" d="M95.624,88.702c0,0.457-0.372,0.83-0.829,0.83H52.792
			c-0.457,0-0.83-0.373-0.83-0.83V65.669c0-0.412,0.295-0.756,0.701-0.818c4.875-0.766,8.963-5,9.727-9.875
			c0.063-0.408,0.408-0.701,0.82-0.701h31.585c0.457,0,0.829,0.373,0.829,0.83V88.702L95.624,88.702z"/>
		<path fill-rule="evenodd" clip-rule="evenodd" fill="#A4A5A7" d="M95.56,88.651c0,0.457-0.371,0.828-0.827,0.828H52.854
			c-0.456,0-0.828-0.371-0.828-0.828V65.718c0-0.41,0.294-0.752,0.7-0.816c4.859-0.762,8.954-5.016,9.716-9.877
			c0.063-0.404,0.406-0.699,0.817-0.699h31.473c0.456,0,0.827,0.373,0.827,0.828V88.651L95.56,88.651z"/>
		<path fill-rule="evenodd" clip-rule="evenodd" fill="#A0A1A3" d="M95.495,88.603c0,0.453-0.37,0.824-0.824,0.824H52.916
			c-0.454,0-0.825-0.371-0.825-0.824V65.769c0-0.41,0.294-0.752,0.698-0.814c4.846-0.76,8.947-5.033,9.706-9.879
			c0.063-0.404,0.405-0.697,0.814-0.697h31.361c0.454,0,0.824,0.371,0.824,0.826V88.603L95.495,88.603z"/>
		<path fill-rule="evenodd" clip-rule="evenodd" fill="#9C9D9E" d="M95.43,88.552c0,0.453-0.368,0.824-0.821,0.824h-41.63
			c-0.453,0-0.822-0.371-0.822-0.824V65.817c0-0.408,0.292-0.75,0.695-0.813c4.831-0.758,8.939-5.047,9.695-9.879
			c0.063-0.404,0.405-0.695,0.813-0.695h31.248c0.453,0,0.821,0.369,0.821,0.822V88.552L95.43,88.552z"/>
		<path fill-rule="evenodd" clip-rule="evenodd" fill="#97999A" d="M95.365,88.503c0,0.451-0.367,0.82-0.819,0.82H53.041
			c-0.452,0-0.82-0.369-0.82-0.82V65.866c0-0.406,0.291-0.746,0.693-0.809c4.816-0.756,8.932-5.064,9.686-9.883
			c0.063-0.4,0.403-0.691,0.811-0.691h31.136c0.452,0,0.819,0.367,0.819,0.82V88.503L95.365,88.503z"/>
		<path fill-rule="evenodd" clip-rule="evenodd" fill="#939496" d="M95.301,88.452c0,0.451-0.367,0.818-0.817,0.818h-41.38
			c-0.45,0-0.818-0.367-0.818-0.818V65.915c0-0.406,0.291-0.744,0.691-0.807c4.803-0.754,8.924-5.08,9.676-9.883
			c0.063-0.4,0.402-0.691,0.809-0.691h31.022c0.45,0,0.817,0.369,0.817,0.818V88.452L95.301,88.452z"/>
		<path fill-rule="evenodd" clip-rule="evenodd" fill="#8F9092" d="M95.236,88.403c0,0.449-0.366,0.814-0.814,0.814H53.165
			c-0.448,0-0.815-0.365-0.815-0.814V65.964c0-0.404,0.29-0.742,0.69-0.805c4.787-0.75,8.916-5.094,9.665-9.883
			c0.063-0.4,0.401-0.689,0.806-0.689h30.911c0.448,0,0.814,0.367,0.814,0.816V88.403L95.236,88.403z"/>
		<path fill-rule="evenodd" clip-rule="evenodd" fill="#8B8C8E" d="M95.171,88.353c0,0.447-0.364,0.814-0.812,0.814H53.228
			c-0.447,0-0.813-0.367-0.813-0.814V66.015c0-0.404,0.289-0.742,0.688-0.803c4.773-0.748,8.908-5.111,9.655-9.885
			c0.063-0.4,0.399-0.688,0.804-0.688h30.798c0.447,0,0.812,0.365,0.812,0.813V88.353L95.171,88.353z"/>
		<path fill-rule="evenodd" clip-rule="evenodd" fill="#87888A" d="M95.106,88.304c0,0.445-0.363,0.811-0.81,0.811H53.29
			c-0.446,0-0.811-0.365-0.811-0.811v-22.24c0-0.402,0.288-0.738,0.686-0.801c4.759-0.746,8.9-5.127,9.646-9.887
			c0.063-0.396,0.398-0.684,0.801-0.684h30.686c0.446,0,0.81,0.363,0.81,0.811V88.304L95.106,88.304z"/>
	</g>
	<path fill-rule="evenodd" clip-rule="evenodd" fill="#3A5461" d="M4.519,13.518h45.346v25.941
		c-5.649,0.53-10.146,5.027-10.676,10.676H4.519V13.518L4.519,13.518z"/>
	<path fill-rule="evenodd" clip-rule="evenodd" fill="#FE592B" d="M4.519,88.993h45.346V63.052
		c-5.649-0.531-10.146-5.027-10.676-10.678H4.519V88.993L4.519,88.993z"/>
	<g>
		<path fill-rule="evenodd" clip-rule="evenodd" fill="#3A5461" d="M48.282,39.716c-4.805,1.081-8.686,5.249-9.094,10.419H4.519
			V20.046H41.22c0.379,0,0.701,0.233,0.819,0.592l6.256,19C48.309,39.682,48.327,39.707,48.282,39.716L48.282,39.716z"/>
		<path fill-rule="evenodd" clip-rule="evenodd" fill="#38515D" d="M48.217,39.735c-4.744,1.083-8.623,5.233-9.029,10.4H4.519
			V20.108H41.17c0.379,0,0.701,0.233,0.819,0.592l6.242,18.957C48.245,39.7,48.262,39.725,48.217,39.735L48.217,39.735z"/>
		<path fill-rule="evenodd" clip-rule="evenodd" fill="#364E5A" d="M48.153,39.753c-4.683,1.087-8.56,5.218-8.965,10.382H4.519
			V20.17h36.602c0.379,0,0.701,0.233,0.819,0.592l6.228,18.912C48.181,39.718,48.198,39.743,48.153,39.753L48.153,39.753z"/>
		<path fill-rule="evenodd" clip-rule="evenodd" fill="#344B56" d="M48.088,39.771c-4.623,1.089-8.497,5.202-8.9,10.364H4.519
			V20.232h36.552c0.379,0,0.701,0.233,0.819,0.592l6.213,18.869C48.117,39.737,48.133,39.761,48.088,39.771L48.088,39.771z"/>
		<path fill-rule="evenodd" clip-rule="evenodd" fill="#314853" d="M48.024,39.79c-4.562,1.092-8.434,5.187-8.836,10.345H4.519
			v-29.84h36.503c0.379,0,0.701,0.233,0.819,0.592l6.199,18.824C48.053,39.755,48.069,39.779,48.024,39.79L48.024,39.79z"/>
		<path fill-rule="evenodd" clip-rule="evenodd" fill="#2F454F" d="M47.96,39.808c-4.501,1.095-8.371,5.171-8.772,10.327H4.519
			V20.357h36.453c0.379,0,0.701,0.233,0.819,0.592l6.185,18.78C47.989,39.773,48.004,39.797,47.96,39.808L47.96,39.808z"/>
		<path fill-rule="evenodd" clip-rule="evenodd" fill="#2D424C" d="M47.896,39.827c-4.441,1.098-8.308,5.156-8.708,10.309H4.519
			V20.419h36.403c0.379,0,0.701,0.233,0.819,0.592l6.17,18.736C47.926,39.791,47.94,39.815,47.896,39.827L47.896,39.827z"/>
		<path fill-rule="evenodd" clip-rule="evenodd" fill="#2B3F48" d="M47.831,39.845c-4.38,1.101-8.245,5.14-8.643,10.29H4.519V20.481
			h36.354c0.379,0,0.701,0.233,0.819,0.592l6.156,18.692C47.862,39.809,47.875,39.834,47.831,39.845L47.831,39.845z"/>
		<path fill-rule="evenodd" clip-rule="evenodd" fill="#293C45" d="M47.767,39.863c-4.319,1.104-8.182,5.125-8.579,10.272H4.519
			V20.544h36.304c0.379,0,0.701,0.233,0.819,0.592l6.143,18.648C47.798,39.828,47.811,39.852,47.767,39.863L47.767,39.863z"/>
		<path fill-rule="evenodd" clip-rule="evenodd" fill="#273941" d="M47.702,39.882c-4.259,1.106-8.119,5.109-8.514,10.253H4.519
			V20.606h36.254c0.379,0,0.701,0.233,0.819,0.592l6.128,18.604C47.734,39.846,47.747,39.87,47.702,39.882L47.702,39.882z"/>
		<path fill-rule="evenodd" clip-rule="evenodd" fill="#25363E" d="M47.638,39.9c-4.198,1.109-8.056,5.093-8.45,10.235H4.519V20.668
			h36.205c0.379,0,0.701,0.233,0.819,0.592l6.114,18.56C47.67,39.864,47.682,39.888,47.638,39.9L47.638,39.9z"/>
		<path fill-rule="evenodd" clip-rule="evenodd" fill="#22323A" d="M47.574,39.918c-4.138,1.112-7.993,5.078-8.386,10.217H4.519
			V20.73h36.155c0.379,0,0.701,0.233,0.819,0.592l6.1,18.516C47.606,39.882,47.618,39.907,47.574,39.918L47.574,39.918z"/>
		<path fill-rule="evenodd" clip-rule="evenodd" fill="#202F37" d="M47.509,39.937c-4.077,1.115-7.93,5.063-8.321,10.198H4.519
			V20.793h36.106c0.379,0,0.701,0.233,0.819,0.592l6.085,18.472C47.542,39.9,47.554,39.925,47.509,39.937L47.509,39.937z"/>
		<path fill-rule="evenodd" clip-rule="evenodd" fill="#1E2C33" d="M47.445,39.956c-4.016,1.118-7.867,5.047-8.257,10.18H4.519
			v-29.28h36.056c0.379,0,0.701,0.233,0.819,0.592l6.071,18.428C47.479,39.918,47.489,39.943,47.445,39.956L47.445,39.956z"/>
		<path fill-rule="evenodd" clip-rule="evenodd" fill="#1C2930" d="M47.38,39.974c-3.956,1.121-7.804,5.031-8.192,10.162H4.519
			V20.917h36.006c0.379,0,0.701,0.233,0.819,0.592l6.057,18.383C47.415,39.937,47.425,39.961,47.38,39.974L47.38,39.974z"/>
		<path fill-rule="evenodd" clip-rule="evenodd" fill="#1A262C" d="M47.316,39.992c-3.895,1.124-7.741,5.016-8.128,10.143H4.519
			V20.979h35.957c0.379,0,0.701,0.233,0.819,0.592l6.043,18.34C47.351,39.955,47.36,39.979,47.316,39.992L47.316,39.992z"/>
		<path fill-rule="evenodd" clip-rule="evenodd" fill="#182329" d="M47.251,40.011c-3.834,1.126-7.678,5-8.063,10.125H4.519V21.042
			h35.907c0.379,0,0.701,0.233,0.819,0.592l6.028,18.295C47.288,39.973,47.296,39.998,47.251,40.011L47.251,40.011z"/>
		<path fill-rule="evenodd" clip-rule="evenodd" fill="#162025" d="M47.187,40.029c-3.773,1.129-7.615,4.985-7.999,10.106H4.519
			V21.104h35.857c0.379,0,0.701,0.233,0.819,0.592l6.015,18.251C47.224,39.991,47.231,40.016,47.187,40.029L47.187,40.029z"/>
		<path fill-rule="evenodd" clip-rule="evenodd" fill="#131D22" d="M47.123,40.047c-3.713,1.132-7.552,4.969-7.935,10.088H4.519
			V21.167h35.808c0.379,0,0.701,0.233,0.819,0.592l6,18.207C47.16,40.009,47.167,40.034,47.123,40.047L47.123,40.047z"/>
		<path fill-rule="evenodd" clip-rule="evenodd" fill="#111A1E" d="M47.059,40.066c-3.652,1.135-7.489,4.953-7.871,10.069H4.519
			V21.229h35.758c0.379,0,0.701,0.233,0.819,0.592l5.986,18.164C47.096,40.027,47.103,40.052,47.059,40.066L47.059,40.066z"/>
		<path fill-rule="evenodd" clip-rule="evenodd" fill="#0F171B" d="M46.994,40.084c-3.591,1.138-7.426,4.938-7.806,10.051H4.519
			V21.291h35.709c0.379,0,0.701,0.233,0.819,0.592l5.972,18.119C47.032,40.045,47.038,40.07,46.994,40.084L46.994,40.084z"/>
		<path fill-rule="evenodd" clip-rule="evenodd" fill="#0D1417" d="M46.93,40.103c-3.531,1.141-7.363,4.922-7.742,10.033H4.519
			V21.353h35.659c0.379,0,0.701,0.233,0.819,0.592l5.958,18.075C46.968,40.063,46.974,40.088,46.93,40.103L46.93,40.103z"/>
	</g>
	<g>
		<path fill-rule="evenodd" clip-rule="evenodd" fill="#FE592B" d="M48.282,62.794c-4.805-1.082-8.686-5.25-9.094-10.42H4.519v30.09
			H41.22c0.379,0,0.701-0.232,0.819-0.592l6.256-19.002C48.309,62.827,48.327,62.804,48.282,62.794L48.282,62.794z"/>
		<path fill-rule="evenodd" clip-rule="evenodd" fill="#F85629" d="M48.217,62.774c-4.744-1.084-8.623-5.232-9.029-10.4H4.519
			v30.027H41.17c0.379,0,0.701-0.232,0.819-0.592l6.242-18.957C48.245,62.81,48.262,62.784,48.217,62.774L48.217,62.774z"/>
		<path fill-rule="evenodd" clip-rule="evenodd" fill="#F15428" d="M48.153,62.757c-4.683-1.086-8.56-5.219-8.965-10.383H4.519
			v29.965h36.602c0.379,0,0.701-0.232,0.819-0.592l6.228-18.912C48.181,62.792,48.198,62.767,48.153,62.757L48.153,62.757z"/>
		<path fill-rule="evenodd" clip-rule="evenodd" fill="#EB5126" d="M48.088,62.737c-4.623-1.088-8.497-5.201-8.9-10.363H4.519
			v29.904h36.552c0.379,0,0.701-0.234,0.819-0.594l6.213-18.869C48.117,62.772,48.133,62.749,48.088,62.737L48.088,62.737z"/>
		<path fill-rule="evenodd" clip-rule="evenodd" fill="#E44E25" d="M48.024,62.72c-4.562-1.092-8.434-5.188-8.836-10.346H4.519
			v29.842h36.503c0.379,0,0.701-0.234,0.819-0.594l6.199-18.824C48.053,62.755,48.069,62.731,48.024,62.72L48.024,62.72z"/>
		<path fill-rule="evenodd" clip-rule="evenodd" fill="#DE4C23" d="M47.96,62.702c-4.501-1.096-8.371-5.172-8.772-10.328H4.519
			v29.779h36.453c0.379,0,0.701-0.234,0.819-0.594l6.185-18.779C47.989,62.737,48.004,62.712,47.96,62.702L47.96,62.702z"/>
		<path fill-rule="evenodd" clip-rule="evenodd" fill="#D84921" d="M47.896,62.683c-4.441-1.098-8.308-5.154-8.708-10.309H4.519
			v29.717h36.403c0.379,0,0.701-0.234,0.819-0.592l6.17-18.736C47.926,62.72,47.94,62.694,47.896,62.683L47.896,62.683z"/>
		<path fill-rule="evenodd" clip-rule="evenodd" fill="#D14620" d="M47.831,62.665c-4.38-1.102-8.245-5.141-8.643-10.291H4.519
			v29.654h36.354c0.379,0,0.701-0.232,0.819-0.592l6.156-18.693C47.862,62.7,47.875,62.677,47.831,62.665L47.831,62.665z"/>
		<path fill-rule="evenodd" clip-rule="evenodd" fill="#CB441E" d="M47.767,62.646c-4.319-1.104-8.182-5.123-8.579-10.271H4.519
			v29.592h36.304c0.379,0,0.701-0.232,0.819-0.592l6.143-18.648C47.798,62.683,47.811,62.657,47.767,62.646L47.767,62.646z"/>
		<path fill-rule="evenodd" clip-rule="evenodd" fill="#C5411C" d="M47.702,62.628c-4.259-1.105-8.119-5.109-8.514-10.254H4.519
			v29.529h36.254c0.379,0,0.701-0.232,0.819-0.592l6.128-18.604C47.734,62.665,47.747,62.64,47.702,62.628L47.702,62.628z"/>
		<path fill-rule="evenodd" clip-rule="evenodd" fill="#BE3E1B" d="M47.638,62.608c-4.198-1.107-8.056-5.092-8.45-10.234H4.519
			v29.467h36.205c0.379,0,0.701-0.232,0.819-0.592l6.114-18.561C47.67,62.646,47.682,62.622,47.638,62.608L47.638,62.608z"/>
		<path fill-rule="evenodd" clip-rule="evenodd" fill="#B83C19" d="M47.574,62.591c-4.138-1.111-7.993-5.078-8.386-10.217H4.519
			V81.78h36.155c0.379,0,0.701-0.234,0.819-0.594l6.1-18.516C47.606,62.628,47.618,62.603,47.574,62.591L47.574,62.591z"/>
		<path fill-rule="evenodd" clip-rule="evenodd" fill="#B13918" d="M47.509,62.573c-4.077-1.115-7.93-5.063-8.321-10.199H4.519
			v29.344h36.106c0.379,0,0.701-0.234,0.819-0.594l6.085-18.471C47.542,62.61,47.554,62.585,47.509,62.573L47.509,62.573z"/>
		<path fill-rule="evenodd" clip-rule="evenodd" fill="#AB3616" d="M47.445,62.554c-4.016-1.117-7.867-5.047-8.257-10.18H4.519
			v29.281h36.056c0.379,0,0.701-0.234,0.819-0.592l6.071-18.428C47.479,62.593,47.489,62.567,47.445,62.554L47.445,62.554z"/>
		<path fill-rule="evenodd" clip-rule="evenodd" fill="#A53414" d="M47.38,62.536c-3.956-1.121-7.804-5.031-8.192-10.162H4.519
			v29.219h36.006c0.379,0,0.701-0.234,0.819-0.592l6.057-18.385C47.415,62.573,47.425,62.548,47.38,62.536L47.38,62.536z"/>
		<path fill-rule="evenodd" clip-rule="evenodd" fill="#9E3113" d="M47.316,62.517c-3.895-1.123-7.741-5.016-8.128-10.143H4.519
			V81.53h35.957c0.379,0,0.701-0.232,0.819-0.592l6.043-18.34C47.351,62.556,47.36,62.53,47.316,62.517L47.316,62.517z"/>
		<path fill-rule="evenodd" clip-rule="evenodd" fill="#982E11" d="M47.251,62.499c-3.834-1.125-7.678-5-8.063-10.125H4.519v29.094
			h35.907c0.379,0,0.701-0.232,0.819-0.592l6.028-18.295C47.288,62.538,47.296,62.513,47.251,62.499L47.251,62.499z"/>
		<path fill-rule="evenodd" clip-rule="evenodd" fill="#922C0F" d="M47.187,62.479c-3.773-1.127-7.615-4.982-7.999-10.105H4.519
			v29.031h35.857c0.379,0,0.701-0.232,0.819-0.592l6.015-18.252C47.224,62.519,47.231,62.493,47.187,62.479L47.187,62.479z"/>
		<path fill-rule="evenodd" clip-rule="evenodd" fill="#8B290E" d="M47.123,62.462c-3.713-1.131-7.552-4.969-7.935-10.088H4.519
			v28.969h35.808c0.379,0,0.701-0.232,0.819-0.592l6-18.207C47.16,62.501,47.167,62.476,47.123,62.462L47.123,62.462z"/>
		<path fill-rule="evenodd" clip-rule="evenodd" fill="#85260C" d="M47.059,62.444c-3.652-1.135-7.489-4.953-7.871-10.07H4.519
			v28.908h35.758c0.379,0,0.701-0.234,0.819-0.594l5.986-18.162C47.096,62.483,47.103,62.458,47.059,62.444L47.059,62.444z"/>
		<path fill-rule="evenodd" clip-rule="evenodd" fill="#7E240B" d="M46.994,62.425c-3.591-1.137-7.426-4.938-7.806-10.051H4.519
			V81.22h35.709c0.379,0,0.701-0.234,0.819-0.592l5.972-18.119C47.032,62.466,47.038,62.44,46.994,62.425L46.994,62.425z"/>
		<path fill-rule="evenodd" clip-rule="evenodd" fill="#782109" d="M46.93,62.407c-3.531-1.141-7.363-4.922-7.742-10.033H4.519
			v28.783h35.659c0.379,0,0.701-0.234,0.819-0.592l5.958-18.076C46.968,62.446,46.974,62.421,46.93,62.407L46.93,62.407z"/>
	</g>
	<path fill-rule="evenodd" clip-rule="evenodd" fill="#FFFFFF" d="M46.913,40.126c-4.202,1.539-7.291,5.388-7.725,10.009H4.519
		V21.408h36.233L46.913,40.126L46.913,40.126z"/>
	<path fill-rule="evenodd" clip-rule="evenodd" fill="#FFFFFF" d="M46.913,62.384c-4.202-1.539-7.291-5.389-7.725-10.01H4.519
		v28.729h36.233L46.913,62.384L46.913,62.384z"/>
	<circle fill-rule="evenodd" clip-rule="evenodd" fill="#FFFFFF" cx="50.984" cy="51.254" r="9.85"/>
	<path fill-rule="evenodd" clip-rule="evenodd" fill="#FFB200" d="M97.45,13.518H52.104v25.941
		c5.649,0.53,10.146,5.027,10.676,10.676h34.67V13.518L97.45,13.518z"/>
	<path fill-rule="evenodd" clip-rule="evenodd" fill="#44AFB5" d="M97.45,88.993H52.104V63.052
		c5.649-0.531,10.146-5.027,10.676-10.678h34.67V88.993L97.45,88.993z"/>
	<g>
		<path fill-rule="evenodd" clip-rule="evenodd" fill="#FFB200" d="M53.687,39.716c4.805,1.081,8.686,5.249,9.094,10.419h34.67
			V20.046H60.749c-0.379,0-0.7,0.233-0.819,0.592l-6.255,19C53.66,39.682,53.642,39.707,53.687,39.716L53.687,39.716z"/>
		<path fill-rule="evenodd" clip-rule="evenodd" fill="#F8AD00" d="M53.751,39.735c4.744,1.083,8.622,5.233,9.029,10.4h34.67V20.108
			H60.799c-0.379,0-0.7,0.233-0.819,0.592l-6.241,18.957C53.724,39.7,53.706,39.725,53.751,39.735L53.751,39.735z"/>
		<path fill-rule="evenodd" clip-rule="evenodd" fill="#F2A900" d="M53.815,39.753c4.684,1.087,8.56,5.218,8.965,10.382h34.67V20.17
			H60.849c-0.379,0-0.7,0.233-0.819,0.592l-6.227,18.912C53.788,39.718,53.771,39.743,53.815,39.753L53.815,39.753z"/>
		<path fill-rule="evenodd" clip-rule="evenodd" fill="#EBA400" d="M53.88,39.771c4.622,1.089,8.496,5.202,8.9,10.364h34.67V20.232
			H60.897c-0.379,0-0.7,0.233-0.819,0.592l-6.212,18.869C53.852,39.737,53.835,39.761,53.88,39.771L53.88,39.771z"/>
		<path fill-rule="evenodd" clip-rule="evenodd" fill="#E5A000" d="M53.944,39.79c4.562,1.092,8.434,5.187,8.836,10.345h34.67
			v-29.84H60.947c-0.379,0-0.7,0.233-0.819,0.592L53.93,39.711C53.915,39.755,53.899,39.779,53.944,39.79L53.944,39.79z"/>
		<path fill-rule="evenodd" clip-rule="evenodd" fill="#DE9B00" d="M54.009,39.808c4.501,1.095,8.37,5.171,8.771,10.327h34.67
			V20.357H60.997c-0.379,0-0.7,0.233-0.819,0.592l-6.184,18.78C53.979,39.773,53.964,39.797,54.009,39.808L54.009,39.808z"/>
		<path fill-rule="evenodd" clip-rule="evenodd" fill="#D89700" d="M54.073,39.827c4.44,1.098,8.308,5.156,8.707,10.309h34.67
			V20.419H61.047c-0.379,0-0.7,0.233-0.819,0.592l-6.17,18.736C54.043,39.791,54.028,39.815,54.073,39.827L54.073,39.827z"/>
		<path fill-rule="evenodd" clip-rule="evenodd" fill="#D19200" d="M54.138,39.845c4.38,1.101,8.244,5.14,8.643,10.29h34.67V20.481
			H61.097c-0.379,0-0.701,0.233-0.819,0.592l-6.156,18.692C54.106,39.809,54.093,39.834,54.138,39.845L54.138,39.845z"/>
		<path fill-rule="evenodd" clip-rule="evenodd" fill="#CA8D00" d="M54.202,39.863c4.318,1.104,8.182,5.125,8.578,10.272h34.67
			V20.544H61.146c-0.379,0-0.7,0.233-0.819,0.592l-6.141,18.648C54.171,39.828,54.157,39.852,54.202,39.863L54.202,39.863z"/>
		<path fill-rule="evenodd" clip-rule="evenodd" fill="#C48900" d="M54.267,39.882c4.258,1.106,8.118,5.109,8.514,10.253h34.67
			V20.606H61.195c-0.379,0-0.7,0.233-0.819,0.592l-6.127,18.604C54.234,39.846,54.222,39.87,54.267,39.882L54.267,39.882z"/>
		<path fill-rule="evenodd" clip-rule="evenodd" fill="#BD8400" d="M54.331,39.9c4.197,1.109,8.056,5.093,8.449,10.235h34.67V20.668
			H61.245c-0.379,0-0.7,0.233-0.819,0.592l-6.113,18.56C54.298,39.864,54.286,39.888,54.331,39.9L54.331,39.9z"/>
		<path fill-rule="evenodd" clip-rule="evenodd" fill="#B78000" d="M54.395,39.918c4.138,1.112,7.993,5.078,8.386,10.217h34.67
			V20.73H61.295c-0.379,0-0.701,0.233-0.819,0.592l-6.099,18.516C54.362,39.882,54.351,39.907,54.395,39.918L54.395,39.918z"/>
		<path fill-rule="evenodd" clip-rule="evenodd" fill="#B07B00" d="M54.459,39.937C58.536,41.052,62.39,45,62.78,50.135h34.67
			V20.793H61.345c-0.379,0-0.701,0.233-0.819,0.592L54.44,39.857C54.426,39.9,54.415,39.925,54.459,39.937L54.459,39.937z"/>
		<path fill-rule="evenodd" clip-rule="evenodd" fill="#AA7700" d="M54.523,39.956c4.017,1.118,7.867,5.047,8.257,10.18h34.67
			v-29.28H61.395c-0.379,0-0.701,0.233-0.819,0.592l-6.071,18.428C54.489,39.918,54.479,39.943,54.523,39.956L54.523,39.956z"/>
		<path fill-rule="evenodd" clip-rule="evenodd" fill="#A37200" d="M54.588,39.974c3.955,1.121,7.805,5.031,8.192,10.162h34.67
			V20.917H61.443c-0.379,0-0.7,0.233-0.819,0.592l-6.056,18.383C54.554,39.937,54.544,39.961,54.588,39.974L54.588,39.974z"/>
		<path fill-rule="evenodd" clip-rule="evenodd" fill="#9C6D00" d="M54.652,39.992c3.895,1.124,7.741,5.016,8.128,10.143h34.67
			V20.979H61.493c-0.379,0-0.701,0.233-0.819,0.592l-6.042,18.34C54.617,39.955,54.608,39.979,54.652,39.992L54.652,39.992z"/>
		<path fill-rule="evenodd" clip-rule="evenodd" fill="#966900" d="M54.717,40.011c3.834,1.126,7.679,5,8.063,10.125h34.67V21.042
			H61.543c-0.379,0-0.701,0.233-0.819,0.592L54.695,39.93C54.681,39.973,54.673,39.998,54.717,40.011L54.717,40.011z"/>
		<path fill-rule="evenodd" clip-rule="evenodd" fill="#8F6400" d="M54.781,40.029c3.773,1.129,7.615,4.985,7.999,10.106h34.67
			V21.104H61.593c-0.379,0-0.701,0.233-0.819,0.592L54.76,39.948C54.745,39.991,54.737,40.016,54.781,40.029L54.781,40.029z"/>
		<path fill-rule="evenodd" clip-rule="evenodd" fill="#896000" d="M54.846,40.047c3.713,1.132,7.553,4.969,7.935,10.088h34.67
			V21.167H61.643c-0.379,0-0.701,0.233-0.819,0.592l-6,18.207C54.809,40.009,54.802,40.034,54.846,40.047L54.846,40.047z"/>
		<path fill-rule="evenodd" clip-rule="evenodd" fill="#825B00" d="M54.91,40.066c3.651,1.135,7.489,4.953,7.87,10.069h34.67V21.229
			H61.691c-0.379,0-0.701,0.233-0.819,0.592l-5.985,18.164C54.872,40.027,54.866,40.052,54.91,40.066L54.91,40.066z"/>
		<path fill-rule="evenodd" clip-rule="evenodd" fill="#7C5700" d="M54.975,40.084c3.591,1.138,7.427,4.938,7.806,10.051h34.67
			V21.291H61.741c-0.379,0-0.701,0.233-0.819,0.592l-5.971,18.119C54.937,40.045,54.931,40.07,54.975,40.084L54.975,40.084z"/>
		<path fill-rule="evenodd" clip-rule="evenodd" fill="#755200" d="M55.039,40.103c3.53,1.141,7.363,4.922,7.741,10.033h34.67
			V21.353H61.791c-0.379,0-0.701,0.233-0.819,0.592l-5.957,18.075C55,40.063,54.995,40.088,55.039,40.103L55.039,40.103z"/>
	</g>
	<g>
		<path fill-rule="evenodd" clip-rule="evenodd" fill="#44AFB5" d="M53.687,62.794c4.805-1.082,8.686-5.25,9.094-10.42h34.67v30.09
			H60.749c-0.379,0-0.7-0.232-0.819-0.592L53.675,62.87C53.66,62.827,53.642,62.804,53.687,62.794L53.687,62.794z"/>
		<path fill-rule="evenodd" clip-rule="evenodd" fill="#42A9AF" d="M53.751,62.774c4.744-1.084,8.622-5.232,9.029-10.4h34.67v30.027
			H60.799c-0.379,0-0.7-0.232-0.819-0.592l-6.241-18.957C53.724,62.81,53.706,62.784,53.751,62.774L53.751,62.774z"/>
		<path fill-rule="evenodd" clip-rule="evenodd" fill="#3FA3A9" d="M53.815,62.757c4.684-1.086,8.56-5.219,8.965-10.383h34.67
			v29.965H60.849c-0.379,0-0.7-0.232-0.819-0.592l-6.227-18.912C53.788,62.792,53.771,62.767,53.815,62.757L53.815,62.757z"/>
		<path fill-rule="evenodd" clip-rule="evenodd" fill="#3D9EA3" d="M53.88,62.737c4.622-1.088,8.496-5.201,8.9-10.363h34.67v29.904
			H60.897c-0.379,0-0.7-0.234-0.819-0.594l-6.212-18.869C53.852,62.772,53.835,62.749,53.88,62.737L53.88,62.737z"/>
		<path fill-rule="evenodd" clip-rule="evenodd" fill="#3B989D" d="M53.944,62.72c4.562-1.092,8.434-5.188,8.836-10.346h34.67
			v29.842H60.947c-0.379,0-0.7-0.234-0.819-0.594L53.93,62.798C53.915,62.755,53.899,62.731,53.944,62.72L53.944,62.72z"/>
		<path fill-rule="evenodd" clip-rule="evenodd" fill="#399297" d="M54.009,62.702c4.501-1.096,8.37-5.172,8.771-10.328h34.67
			v29.779H60.997c-0.379,0-0.7-0.234-0.819-0.594L53.994,62.78C53.979,62.737,53.964,62.712,54.009,62.702L54.009,62.702z"/>
		<path fill-rule="evenodd" clip-rule="evenodd" fill="#368C91" d="M54.073,62.683c4.44-1.098,8.308-5.154,8.707-10.309h34.67
			v29.717H61.047c-0.379,0-0.7-0.234-0.819-0.592l-6.17-18.736C54.043,62.72,54.028,62.694,54.073,62.683L54.073,62.683z"/>
		<path fill-rule="evenodd" clip-rule="evenodd" fill="#34878B" d="M54.138,62.665c4.38-1.102,8.244-5.141,8.643-10.291h34.67
			v29.654H61.097c-0.379,0-0.701-0.232-0.819-0.592l-6.156-18.693C54.106,62.7,54.093,62.677,54.138,62.665L54.138,62.665z"/>
		<path fill-rule="evenodd" clip-rule="evenodd" fill="#328185" d="M54.202,62.646c4.318-1.104,8.182-5.123,8.578-10.271h34.67
			v29.592H61.146c-0.379,0-0.7-0.232-0.819-0.592l-6.141-18.648C54.171,62.683,54.157,62.657,54.202,62.646L54.202,62.646z"/>
		<path fill-rule="evenodd" clip-rule="evenodd" fill="#2F7B7F" d="M54.267,62.628c4.258-1.105,8.118-5.109,8.514-10.254h34.67
			v29.529H61.195c-0.379,0-0.7-0.232-0.819-0.592l-6.127-18.604C54.234,62.665,54.222,62.64,54.267,62.628L54.267,62.628z"/>
		<path fill-rule="evenodd" clip-rule="evenodd" fill="#2D7579" d="M54.331,62.608c4.197-1.107,8.056-5.092,8.449-10.234h34.67
			v29.467H61.245c-0.379,0-0.7-0.232-0.819-0.592l-6.113-18.561C54.298,62.646,54.286,62.622,54.331,62.608L54.331,62.608z"/>
		<path fill-rule="evenodd" clip-rule="evenodd" fill="#2B7074" d="M54.395,62.591c4.138-1.111,7.993-5.078,8.386-10.217h34.67
			V81.78H61.295c-0.379,0-0.701-0.234-0.819-0.594l-6.099-18.516C54.362,62.628,54.351,62.603,54.395,62.591L54.395,62.591z"/>
		<path fill-rule="evenodd" clip-rule="evenodd" fill="#296A6E" d="M54.459,62.573c4.077-1.115,7.931-5.063,8.321-10.199h34.67
			v29.344H61.345c-0.379,0-0.701-0.234-0.819-0.594L54.44,62.653C54.426,62.61,54.415,62.585,54.459,62.573L54.459,62.573z"/>
		<path fill-rule="evenodd" clip-rule="evenodd" fill="#266468" d="M54.523,62.554c4.017-1.117,7.867-5.047,8.257-10.18h34.67
			v29.281H61.395c-0.379,0-0.701-0.234-0.819-0.592l-6.071-18.428C54.489,62.593,54.479,62.567,54.523,62.554L54.523,62.554z"/>
		<path fill-rule="evenodd" clip-rule="evenodd" fill="#245E62" d="M54.588,62.536c3.955-1.121,7.805-5.031,8.192-10.162h34.67
			v29.219H61.443c-0.379,0-0.7-0.234-0.819-0.592l-6.056-18.385C54.554,62.573,54.544,62.548,54.588,62.536L54.588,62.536z"/>
		<path fill-rule="evenodd" clip-rule="evenodd" fill="#22595C" d="M54.652,62.517c3.895-1.123,7.741-5.016,8.128-10.143h34.67
			V81.53H61.493c-0.379,0-0.701-0.232-0.819-0.592l-6.042-18.34C54.617,62.556,54.608,62.53,54.652,62.517L54.652,62.517z"/>
		<path fill-rule="evenodd" clip-rule="evenodd" fill="#1F5356" d="M54.717,62.499c3.834-1.125,7.679-5,8.063-10.125h34.67v29.094
			H61.543c-0.379,0-0.701-0.232-0.819-0.592l-6.028-18.295C54.681,62.538,54.673,62.513,54.717,62.499L54.717,62.499z"/>
		<path fill-rule="evenodd" clip-rule="evenodd" fill="#1D4D50" d="M54.781,62.479c3.773-1.127,7.615-4.982,7.999-10.105h34.67
			v29.031H61.593c-0.379,0-0.701-0.232-0.819-0.592L54.76,62.562C54.745,62.519,54.737,62.493,54.781,62.479L54.781,62.479z"/>
		<path fill-rule="evenodd" clip-rule="evenodd" fill="#1B474A" d="M54.846,62.462c3.713-1.131,7.553-4.969,7.935-10.088h34.67
			v28.969H61.643c-0.379,0-0.701-0.232-0.819-0.592l-6-18.207C54.809,62.501,54.802,62.476,54.846,62.462L54.846,62.462z"/>
		<path fill-rule="evenodd" clip-rule="evenodd" fill="#194244" d="M54.91,62.444c3.651-1.135,7.489-4.953,7.87-10.07h34.67v28.908
			H61.691c-0.379,0-0.701-0.234-0.819-0.594l-5.985-18.162C54.872,62.483,54.866,62.458,54.91,62.444L54.91,62.444z"/>
		<path fill-rule="evenodd" clip-rule="evenodd" fill="#163C3E" d="M54.975,62.425c3.591-1.137,7.427-4.938,7.806-10.051h34.67
			V81.22H61.741c-0.379,0-0.701-0.234-0.819-0.592l-5.971-18.119C54.937,62.466,54.931,62.44,54.975,62.425L54.975,62.425z"/>
		<path fill-rule="evenodd" clip-rule="evenodd" fill="#143638" d="M55.039,62.407c3.53-1.141,7.363-4.922,7.741-10.033h34.67
			v28.783H61.791c-0.379,0-0.701-0.234-0.819-0.592l-5.957-18.076C55,62.446,54.995,62.421,55.039,62.407L55.039,62.407z"/>
	</g>
	<path fill-rule="evenodd" clip-rule="evenodd" fill="#FFFFFF" d="M55.056,40.126c4.203,1.539,7.291,5.388,7.725,10.009h34.67
		V21.408H61.217L55.056,40.126L55.056,40.126z"/>
	<path fill-rule="evenodd" clip-rule="evenodd" fill="#FFFFFF" d="M55.056,62.384c4.203-1.539,7.291-5.389,7.725-10.01h34.67v28.729
		H61.217L55.056,62.384L55.056,62.384z"/>
</g>
</svg>
