<?xml version="1.0" encoding="utf-8"?>
<!-- Generator: Adobe Illustrator 16.0.0, SVG Export Plug-In . SVG Version: 6.00 Build 0)  -->
<!DOCTYPE svg PUBLIC "-//W3C//DTD SVG 1.1//EN" "http://www.w3.org/Graphics/SVG/1.1/DTD/svg11.dtd">
<svg version="1.1" id="Layer_1" xmlns="http://www.w3.org/2000/svg" xmlns:xlink="http://www.w3.org/1999/xlink" x="0px" y="0px"
	 width="50px" height="50px" viewBox="0 0 50 50" enable-background="new 0 0 50 50" xml:space="preserve">
<g>
	<g>
		<path fill-rule="evenodd" clip-rule="evenodd" fill="#1854AC" d="M26.324,1.938c-8.551,0-15.522,2.371-15.86,5.34
			c-0.009,0.006-0.019,0.012-0.027,0.018l0.273,10.341c1.175-2.435,6.859-4.332,13.938-4.598c1.208-0.069,2.26-0.022,3.389-0.002
			c0.854,0.032,1.687,0.087,2.493,0.164V2.136C29.19,2.006,27.781,1.938,26.324,1.938z"/>
		<path fill-rule="evenodd" clip-rule="evenodd" fill="#1D64C2" d="M26.632,3.512c9.974,0,18.104,2.765,18.498,6.228
			c0.009,0.007,0.021,0.014,0.031,0.02L44.843,21.82c-1.37-2.84-8-5.052-16.255-5.362c-1.409-0.081-2.635-0.026-3.952-0.002
			c-0.995,0.037-1.967,0.101-2.909,0.191V3.743C23.289,3.593,24.934,3.512,26.632,3.512z"/>
		<path opacity="0.5" fill-rule="evenodd" clip-rule="evenodd" fill="#3994E3" d="M26.669,4.626c6.998,0,14.031,1.604,15.055,3.712
			l-0.019,9.736c-1.363-1.021-6.635-2.967-15.071-2.967c-5.873,0-10.958,1.182-13.432,2.902V7.551
			C15.663,5.817,19.668,4.626,26.669,4.626z"/>
		<g>
			<g>
				<path fill-rule="evenodd" clip-rule="evenodd" fill="#111214" d="M19.805,44.264c-0.139,0.133-0.301,0.195-0.621,0.389v0.281
					c-0.333,0.582-0.653,0.846-1.073,0.723c-0.586-0.174-0.764-0.316-0.771-0.736c-0.067-0.715-0.082-0.85,0.111-1.375
					c0.581-0.379,0.855-0.463,1.27-0.594c0.341-0.109,0.854-0.406,1.348-0.537c0.288-0.076,0.463,0.166,0.475,0.354
					C20.569,43.215,20.175,43.871,19.805,44.264z"/>
				<path fill-rule="evenodd" clip-rule="evenodd" d="M19.805,44.264c-0.139,0.133-0.301,0.195-0.621,0.389v0.281
					c-0.333,0.582-0.653,0.846-1.073,0.723c-0.586-0.174-0.764-0.316-0.771-0.736c-0.037-0.395-0.058-0.613-0.037-0.818
					c0.779,0.4,1.442,0.363,2.169-0.387c0.218-0.227,0.858-0.809,0.913-1.242c0.096,0.074,0.152,0.193,0.158,0.295
					C20.569,43.215,20.175,43.871,19.805,44.264z"/>
			</g>
			<g>
				<path fill-rule="evenodd" clip-rule="evenodd" fill="#111214" d="M21.551,45.482c0.164-0.043,0.586-0.686,1.179-0.561
					c0.711,0.152,1.538-0.25,2.178-0.258c0.115-0.002,0.259-0.031,0.329,0.021c0.305,0.229,0.343,0.465,0.08,0.764
					c-0.194,0.221-0.545,0.504-0.847,0.699c-0.32,0.207-0.57,0.383-0.958,0.543c-0.288,0.119-0.482,0.104-0.743,0.195l-0.016,0.227
					c-0.208,0.176-0.442,0.287-0.585,0.301c-0.367,0.031-0.797-0.203-1.107-0.533c-0.035-0.375-0.169-0.748,0.024-1.299
					L21.551,45.482z"/>
				<path fill-rule="evenodd" clip-rule="evenodd" d="M25.421,44.867c0.12,0.176,0.089,0.361-0.105,0.582
					c-0.194,0.221-0.545,0.504-0.847,0.699c-0.32,0.207-0.57,0.383-0.958,0.543c-0.288,0.119-0.482,0.104-0.743,0.195l-0.016,0.227
					c-0.208,0.176-0.442,0.287-0.585,0.301c-0.367,0.031-0.797-0.203-1.107-0.533c-0.027-0.285-0.111-0.572-0.063-0.936
					c0.792,0.605,1.279,0.195,1.583,0.18c0.451-0.021,1.104,0.018,2.107-0.705C24.92,45.254,25.171,45.068,25.421,44.867z"/>
				<path fill-rule="evenodd" clip-rule="evenodd" fill="#20232E" d="M23.163,45.688c0.184-0.32,0.184-0.529,0.123-0.656l1.264-0.25
					c0.619-0.129,0.746-0.014,0.581,0.135C24.579,45.406,23.852,45.529,23.163,45.688z"/>
			</g>
			<path fill-rule="evenodd" clip-rule="evenodd" fill="#1D3F5E" d="M21.738,28.344c-0.193,1.502-0.569,7.045-1.068,8.293
				c-0.751,1.879-0.964,4.746-1.42,6.811c-0.07,0.242-0.281,0.549-0.622,0.721c-0.531,0.268-1.266,0.291-1.41-0.094
				c0.124-1.904,0.08-4.309,0.143-5.367c0.069-1.188,0.36-2.346,0.828-3.035c0.061-0.852-0.002-4.363-0.003-5.945
				c0-1.416,0.021-2.326,0.431-3.239L21.738,28.344z"/>
			<path fill-rule="evenodd" clip-rule="evenodd" fill="#122536" d="M21.738,28.9c-0.193,1.504-0.829,6.422-1.068,7.736
				c-0.396,2.174-0.964,4.746-1.42,6.811c-0.07,0.242-0.281,0.549-0.622,0.721c-0.102,0.051-0.211,0.094-0.322,0.125
				c0.185-1.492,0.376-5.121,0.795-6.803c0.189-0.762,0.158-0.924,0.593-1.424c0.034-1.715,0.095-3.451-0.08-5.17
				c-0.269-0.357-1.079-1.109-1.422-1.637l0.004-0.955c0.062-0.445,0.241-0.857,0.421-1.26L21.738,28.9z"/>
			<path fill-rule="evenodd" clip-rule="evenodd" fill="#1D3F5E" d="M24.506,28.389c0.116,0.477,0.32,1.217,0.342,1.709
				c0.119,2.639-0.793,5.959-1.081,7.609c-0.389,2.234-0.34,5.371-0.541,7.596c-0.128,0.641-1.717,1.244-2.322,0.609
				c-0.113-1.9-0.343-4.732-0.251-5.777c0.077-0.869,0.101-1.373,0.437-2.139c-0.014-0.389-0.024-1.438-0.043-2.605
				c-0.022-1.313-0.057-2.77-0.125-3.596c-0.108-1.316-0.768-3.68-0.063-5.303l3.067-0.499L24.506,28.389z"/>
			<path fill-rule="evenodd" clip-rule="evenodd" fill="#122536" d="M24.746,29.262c0.566,2.738-0.637,6.484-0.978,8.445
				c-0.389,2.234-0.34,5.371-0.541,7.596c-0.064,0.318-0.488,0.627-0.972,0.781c-0.048-1.93-0.055-4.648,0.004-6.115
				c0.064-1.58,0.216-1.08,0.368-1.773c0.071-1.75,0.226-4.059,0.337-6.18c-0.75-0.455-2.314-1.064-2.302-1.762l2.711-0.104
				L24.746,29.262z"/>
			<path fill-rule="evenodd" clip-rule="evenodd" fill="#215682" d="M20.881,31.377c0.557,0.402,0.841,0.598,1.469,0.893
				c-0.018,1.754-0.361,4.178-0.547,6.041c-0.467,1.191-0.245,6.201-0.155,7.781c-0.349-0.035-0.418-0.035-0.725-0.197
				c-0.06-2.963-0.487-6.916,0.181-7.854C21.184,35.984,21.094,33.41,20.881,31.377z"/>
			<path fill-rule="evenodd" clip-rule="evenodd" fill="#215682" d="M19.138,30.92c0.018,1.342-0.163,3.715-0.199,5.055
				c-0.962,1.463-0.858,6.797-0.934,8.215c-0.322,0.043-0.429,0.018-0.724-0.119c0.061-1.021-0.068-3.764,0.153-5.883
				c0.12-1.152,0.512-2.078,0.765-2.521c0.014-1.555,0.048-4.027,0.009-5.582C18.514,30.422,18.698,30.678,19.138,30.92z"/>
		</g>
		<path fill-rule="evenodd" clip-rule="evenodd" fill="#459EF2" d="M45.13,9.74c0.131,0.401,0,11.974-0.003,13.134
			c0,2.064-2.743,3.915-7.021,5.114V15.097c4.288-1.189,7.04-3.028,7.04-5.094C45.146,9.915,45.139,9.827,45.13,9.74z"/>
		<path fill-rule="evenodd" clip-rule="evenodd" fill="#459EF2" d="M10.464,7.277c-0.113,0.344-0.001,10.267,0.001,11.262
			c0,1.77,2.352,3.357,6.021,4.385V11.871c-3.676-1.02-6.037-2.597-6.037-4.368C10.45,7.428,10.456,7.353,10.464,7.277z"/>
		<g>
			<circle fill-rule="evenodd" clip-rule="evenodd" fill="#1854AC" cx="41.36" cy="8.49" r="0.677"/>
			<path fill-rule="evenodd" clip-rule="evenodd" fill="#41FFFF" d="M41.072,8.126l-0.098,0.116
				c-5.544-2.776-14.837-3.284-20.202-2.603C26.852,4.62,36.102,5.569,41.072,8.126z"/>
			<circle fill-rule="evenodd" clip-rule="evenodd" fill="#41FFFF" cx="41.36" cy="8.49" r="0.475"/>
			<circle fill-rule="evenodd" clip-rule="evenodd" fill="#FFFFFF" cx="41.36" cy="8.49" r="0.244"/>
		</g>
		<g>
			<g>
				<circle fill-rule="evenodd" clip-rule="evenodd" fill="#1D64C2" cx="25.896" cy="6.021" r="0.58"/>
				<circle fill-rule="evenodd" clip-rule="evenodd" fill="#41FFFF" cx="25.896" cy="6.022" r="0.407"/>
				<circle fill-rule="evenodd" clip-rule="evenodd" fill="#8AC6FF" cx="25.896" cy="6.021" r="0.209"/>
			</g>
			<g>
				<circle fill-rule="evenodd" clip-rule="evenodd" fill="#1D64C2" cx="29.137" cy="11.805" r="0.58"/>
				<circle fill-rule="evenodd" clip-rule="evenodd" fill="#41FFFF" cx="29.138" cy="11.805" r="0.407"/>
				<circle fill-rule="evenodd" clip-rule="evenodd" fill="#8AC6FF" cx="29.137" cy="11.805" r="0.209"/>
			</g>
			<g>
				<circle fill-rule="evenodd" clip-rule="evenodd" fill="#1D64C2" cx="34.131" cy="10.97" r="0.58"/>
				<circle fill-rule="evenodd" clip-rule="evenodd" fill="#41FFFF" cx="34.131" cy="10.969" r="0.407"/>
				<circle fill-rule="evenodd" clip-rule="evenodd" fill="#8AC6FF" cx="34.131" cy="10.969" r="0.209"/>
			</g>
			<g>
				<circle fill-rule="evenodd" clip-rule="evenodd" fill="#1D64C2" cx="36.936" cy="12.943" r="0.58"/>
				<circle fill-rule="evenodd" clip-rule="evenodd" fill="#41FFFF" cx="36.936" cy="12.943" r="0.408"/>
				<circle fill-rule="evenodd" clip-rule="evenodd" fill="#8AC6FF" cx="36.936" cy="12.943" r="0.209"/>
			</g>
			<path fill-rule="evenodd" clip-rule="evenodd" fill="#8AC6FF" d="M40.3,12.086c-0.67,0.435-1.362,0.738-2.048,0.867
				c-0.641,0.122-1.276,0.09-1.881-0.127c-0.695-0.25-1.047-0.695-1.359-1.091c-0.274-0.348-0.518-0.657-0.94-0.752
				c-0.611-0.137-1.337,0.151-2.097,0.453c-0.878,0.348-1.802,0.715-2.669,0.479c-1.322-0.36-1.686-1.851-2.028-3.256
				c-0.143-0.582-0.28-1.149-0.482-1.612c-0.402-0.923-1.062-1.428-2.535-0.786l-0.031-0.069c1.529-0.667,2.215-0.139,2.636,0.824
				c0.202,0.468,0.342,1.039,0.485,1.625c0.337,1.384,0.696,2.852,1.976,3.2c0.842,0.229,1.753-0.132,2.62-0.476
				c0.771-0.306,1.508-0.598,2.142-0.456c0.448,0.101,0.7,0.42,0.983,0.779c0.306,0.389,0.65,0.825,1.325,1.067
				c0.592,0.213,1.213,0.243,1.842,0.124c0.675-0.127,1.358-0.426,2.021-0.855L40.3,12.086z"/>
		</g>
		<g>
			<g>
				<g>
					<path fill-rule="evenodd" clip-rule="evenodd" fill="#E8A476" d="M25.618,5.984c-0.057,0.12-0.112,0.241-0.17,0.359
						l-0.245,0.489c-0.052-0.24-0.244-0.332-0.39-0.21c-0.045,0.037-0.09,0.09-0.119,0.16c-0.024-0.065-0.208-0.212-0.459,0.143
						c-0.156-0.018-0.238,0.049-0.304,0.175c-0.04,0.076-0.074,0.166-0.105,0.256c-0.044,0.128-0.074,0.236-0.073,0.347
						c0.001,0.236,0.012,0.491,0.005,0.773c-0.007,0.306-0.354,0.692-0.542,0.915L24.35,9.75c0.173-0.217,0.267-0.375,0.441-0.552
						c0.178-0.18,0.403-0.202,0.573-0.341c0.094-0.078,0.149-0.182,0.311-0.41c0.133-0.189,0.207-0.394,0.334-0.601
						c0.124-0.215,0.116-0.167,0.13-0.408c0.009-0.186,0.068-0.37,0.084-0.482c-0.232-0.116-0.416,0.171-0.415,0.452
						c-0.132,0.075-0.22,0.259-0.25,0.341c-0.186-0.243-0.075-0.343,0-0.654c0.118-0.216,0.202-0.407,0.267-0.625
						c0.036-0.096,0.071-0.195,0.11-0.302c0.054-0.174-0.015-0.298-0.067-0.333C25.825,5.808,25.713,5.821,25.618,5.984z"/>
					<path fill-rule="evenodd" clip-rule="evenodd" fill="#F1B287" d="M24.053,9.656L24.35,9.75
						c0.173-0.217,0.267-0.375,0.441-0.552c0.178-0.18,0.403-0.202,0.573-0.341c0.094-0.078,0.149-0.182,0.311-0.41
						c0.133-0.189,0.207-0.394,0.334-0.601c0.124-0.215,0.116-0.167,0.13-0.408c0.009-0.186,0.068-0.37,0.084-0.482
						c-0.232-0.116-0.416,0.171-0.415,0.452c-0.132,0.075-0.22,0.259-0.25,0.341c-0.186-0.243-0.075-0.343,0-0.654
						c0.118-0.216,0.202-0.407,0.267-0.625c0.036-0.096,0.071-0.195,0.11-0.302c0.049-0.162-0.005-0.281-0.057-0.324
						c-0.052,0.098-0.112,0.261-0.185,0.443c-0.095,0.233-0.216,0.5-0.316,0.706c-0.066,0.134-0.108,0.192-0.146,0.261
						c-0.04,0.072-0.076,0.156-0.132,0.347C24.904,8.358,24.528,9.053,24.053,9.656z"/>
					<path fill-rule="evenodd" clip-rule="evenodd" fill="#DB9669" d="M26.147,6.933c-0.195-0.028-0.34,0.227-0.339,0.476
						c-0.132,0.075-0.22,0.259-0.25,0.341c-0.004-0.005-0.007-0.01-0.012-0.015c0.003,0.075,0.013,0.155,0.034,0.243
						c0.163-0.327,0.243-0.382,0.398-0.461C25.957,7.25,25.998,7.076,26.147,6.933L26.147,6.933z M25.618,5.984
						c0.057-0.097,0.118-0.141,0.169-0.154c-0.152,0.402-0.26,0.69-0.473,1.059c-0.113,0.196-0.208,0.235-0.269,0.371
						c-0.078,0.172-0.138,0.395-0.211,0.567c-0.29,0.674-0.622,1.196-1.04,1.749l-0.579-0.184c0.188-0.223,0.535-0.609,0.542-0.915
						c0.007-0.282-0.004-0.537-0.005-0.773c-0.001-0.111,0.028-0.219,0.073-0.347c0.031-0.09,0.065-0.18,0.105-0.256
						c0.066-0.126,0.148-0.193,0.304-0.175c0.25-0.355,0.435-0.208,0.459-0.143c0.029-0.07,0.074-0.123,0.119-0.16
						c0.146-0.121,0.338-0.029,0.39,0.21l0.245-0.489C25.506,6.225,25.561,6.104,25.618,5.984z"/>
					<path fill-rule="evenodd" clip-rule="evenodd" fill="#C9875B" d="M26.09,6.933c-0.165,0.023-0.282,0.252-0.281,0.476
						c-0.125,0.07-0.209,0.236-0.244,0.324c0.068-0.087,0.241-0.274,0.298-0.297C25.88,7.221,25.956,7.043,26.09,6.933L26.09,6.933z
						 M25.224,6.791l-0.021,0.042c-0.013-0.06-0.035-0.11-0.062-0.15c-0.006,0.163-0.097,0.28-0.162,0.36
						C25.125,6.976,25.185,6.897,25.224,6.791L25.224,6.791z M24.692,6.778c-0.008-0.019-0.029-0.044-0.061-0.061
						c-0.03,0.144-0.064,0.211-0.127,0.325C24.608,6.961,24.659,6.873,24.692,6.778L24.692,6.778z M24.24,6.917l-0.005,0.007
						c-0.026-0.003-0.05-0.003-0.072-0.002C24.14,7.08,24.107,7.177,24.03,7.286C24.15,7.169,24.21,7.089,24.24,6.917z"/>
					<path fill-rule="evenodd" clip-rule="evenodd" fill="#F1B287" d="M25.761,5.866c-0.055,0.02-0.099,0.149-0.117,0.207
						c-0.006,0.02,0.174,0.099,0.19,0.07c0.033-0.065,0.096-0.191,0.058-0.233C25.857,5.871,25.817,5.846,25.761,5.866z"/>
					<path fill-rule="evenodd" clip-rule="evenodd" fill="#FCC5A1" d="M25.761,5.866c0.037,0.051,0.096,0.096,0.073,0.277
						c0.033-0.065,0.096-0.191,0.058-0.233C25.857,5.871,25.817,5.846,25.761,5.866z"/>
				</g>
				<path fill-rule="evenodd" clip-rule="evenodd" fill="#1D3F5E" d="M21.335,12.182c0.868-1.153,1.467-2.228,2.268-3.43
					c0.374,0.006,0.883,0.161,1.199,0.479c-0.541,1.609-0.935,2.714-1.642,4.26c-0.792,1.021-3.487,4.294-4.531,3.577
					c-0.313-0.216-0.589-0.616-0.452-1.31C18.358,14.838,19.722,13.846,21.335,12.182z"/>
				<path fill-rule="evenodd" clip-rule="evenodd" fill="#193147" d="M22.479,13.104c0.65-0.864,1.252-2.533,1.835-4.194
					c0.181,0.078,0.353,0.184,0.489,0.321c-0.541,1.609-0.935,2.714-1.642,4.26c-0.792,1.021-3.487,4.294-4.531,3.577
					c-0.313-0.216-0.553-0.432-0.416-1.125C18.395,15.022,20.865,14.767,22.479,13.104z"/>
			</g>
			<g>
				<path fill-rule="evenodd" clip-rule="evenodd" fill="#1D3F5E" d="M19.172,14.898c-1.467,0.607-1.402,2.504-1.15,4.095
					c0.248,1.56,0.604,2.686,0.673,3.899c0.072,1.298-0.776,2.596-0.725,5.873c0.189,0.557,1.611,1.219,2.046,1.443
					c-0.102-0.865-0.008-1.357,0.091-2.324c0.072,1.207,0.043,1.617,0.304,2.457c0.921,0.547,2.858,1.098,3.931,0.516
					c0.052-2.219-0.528-4.021-0.278-6.181c0.141-2.344,1.158-4.87,0.917-6.039c-0.106-0.515-0.436-0.953-0.821-1.261
					c-0.821-0.66-2.985-2.353-4.344-2.529C19.565,14.814,19.346,14.827,19.172,14.898z"/>
				<path fill-rule="evenodd" clip-rule="evenodd" fill="#215682" d="M19.443,16.446c0.557,0.94,1.788,1.323,3.322,1.229
					c-1.032,1.7-0.577,4.865-0.255,7.343c0.219,1.688,0.211,4.312,0.197,5.817c-0.969-0.133-1.145-0.219-2.054-0.58
					c-0.402-2.229-0.545-2.527-0.427-4.66c-0.433,1.869-0.395,2.386-0.473,4.197c-0.769-0.342-0.888-0.533-1.58-1.012
					c-0.189-2.705,0.97-4.444,0.762-6.142c-0.282-2.299-1.669-5.964-0.235-7.096C19.149,15.188,19.304,16.212,19.443,16.446z"/>
				<path fill-rule="evenodd" clip-rule="evenodd" fill="#193147" d="M23.036,31.121c0.698,0.027,1.607-0.199,1.961-0.898
					c0.114-2.533-0.911-4.784-0.88-6.211c0.029-1.31,1.71-4.323,1.031-6.066c-0.121-0.31-0.333-0.461-0.572-0.653
					c-0.39-0.313-1.529-0.853-2.325-1.258l0.021,0.424c0.625,0.388,0.859,0.604,1.365,1.138c-1.579,1.498-0.699,5.621-0.478,7.318
					C23.35,26.365,23.066,29.1,23.036,31.121z"/>
				<g>
					<g>
						<path fill-rule="evenodd" clip-rule="evenodd" fill="#241304" d="M22.02,15.068l0.989-0.139l0.668-0.041
							c0.061,0.587,0.144,0.855,0.018,0.872c-0.296,0.04-0.757-0.023-1.104-0.214C22.332,15.404,22.307,15.24,22.02,15.068z"/>
						<path fill-rule="evenodd" clip-rule="evenodd" fill="#E8A476" d="M23.624,15.118c-0.178,0.087-0.985-0.176-0.958-0.095
							c-0.037,0.553,0.1,0.893,0.087,1.792c-1.056,0.753-2.526-0.117-2.42-0.659c-0.008-0.369,0.176-1.395-0.009-1.694
							c-0.211-0.34-0.643-0.719-0.796-1.235c-0.245-0.824-0.156-1.74,0.613-2.35c1.404-1.115,3.199-0.322,3.654,1.309
							c0.089,0.318-0.163,0.491-0.154,0.763c0.002,0.054,0.073,0.109,0.129,0.227C23.849,13.338,23.842,15.01,23.624,15.118z"/>
						<path fill-rule="evenodd" clip-rule="evenodd" fill="#DB9669" d="M23.614,15.108c-0.178,0.088-0.952-0.178-0.926-0.097
							c-0.057,0.509,0.077,0.905,0.064,1.803c-0.625-0.914-0.889-1.417-2.347-1.922c-0.005-0.184-0.027-0.34-0.083-0.431
							c-0.211-0.34-0.643-0.719-0.796-1.235c-0.245-0.824-0.156-1.74,0.613-2.35c1.404-1.115,3.199-0.322,3.654,1.309
							c0.089,0.318-0.163,0.491-0.154,0.763c0.002,0.054,0.073,0.109,0.129,0.227C23.849,13.338,23.833,15,23.614,15.108z"/>
						<path fill-rule="evenodd" clip-rule="evenodd" fill="#E8A476" d="M23.587,15.118c-0.094,0.05-0.485,0.017-0.775-0.095
							c-0.184-0.07-0.316-0.228-0.345-0.239c-0.12-0.049-0.387-0.428,0.027-1.032c-0.214-0.594-2.042,0.918-2.171,0.709
							c-0.211-0.34-0.643-0.719-0.796-1.235c-0.245-0.824-0.156-1.74,0.613-2.35c1.404-1.115,3.199-0.322,3.654,1.309
							c0.089,0.318-0.163,0.491-0.154,0.763c0.002,0.054,0.073,0.109,0.129,0.227C23.849,13.338,23.802,15.002,23.587,15.118z"/>
						<path fill-rule="evenodd" clip-rule="evenodd" fill="#361D07" d="M20.367,14.667c-0.234-0.491-0.648-0.792-0.84-1.44
							c-0.245-0.824-0.156-1.74,0.613-2.35c1.103-0.876,2.448-0.574,3.194,0.387c0.04,0.062-0.383,0.261-0.243,0.571
							c0.2,0.525,0.232,0.728,0.166,0.852c-0.248,0.46-0.24,0.556-0.223,1.235l-0.324,0.129c-0.073-0.533-0.292-0.5-0.521-0.322
							c-0.402,0.311-0.558,1.017-1.227,1.155C20.71,14.935,20.496,14.833,20.367,14.667z"/>
						<path fill-rule="evenodd" clip-rule="evenodd" fill="#F1B287" d="M23.628,15.111c-0.038,0.022-0.257,0.014-0.366-0.023
							c-0.125-0.133-0.252-0.415-0.248-0.555c0.017-0.537,0.288-0.973,0.287-1.19c-0.003-0.459-0.155-0.23,0.02-0.727
							c0.134-0.381-0.042-0.439-0.12-0.766c0.194-0.071,0.284-0.221,0.316-0.318c0.117,0.198,0.21,0.417,0.276,0.652
							c0.089,0.318-0.163,0.491-0.154,0.763c0.002,0.054,0.073,0.109,0.129,0.227C23.849,13.338,23.838,14.986,23.628,15.111z"/>
						<path fill-rule="evenodd" clip-rule="evenodd" fill="#DB9669" d="M22.582,13.77c-0.503-0.468-0.989,1.023-0.179,1.007
							C22.086,14.442,22.326,13.913,22.582,13.77z"/>
						<path fill-rule="evenodd" clip-rule="evenodd" fill="#F1B287" d="M22.579,13.988c0.075-0.208,0.012-0.284-0.08-0.262
							c-0.101,0.025-0.244,0.17-0.318,0.386c-0.121,0.348,0.052,0.788,0.389,0.617c-0.29,0.017-0.263-0.333-0.176-0.548
							C22.452,14.034,22.544,13.931,22.579,13.988z"/>
						<path fill-rule="evenodd" clip-rule="evenodd" fill="#DB9669" d="M22.446,14.083c0.08,0.15,0.108,0.24,0.083,0.292
							c-0.019,0.036-0.074,0.078-0.166-0.011C22.361,14.259,22.397,14.161,22.446,14.083z"/>
						<path fill-rule="evenodd" clip-rule="evenodd" fill="#54321E" d="M20.576,12.699c0.007,0.41,0.04,0.562,0.178,0.936
							c0.037-0.236,0.069-0.477,0.115-0.711c0.015-0.079,0.033-0.156,0.052-0.233c0.055,0.35,0.096,0.705,0.139,1.056
							c0.08-0.374,0.167-0.751,0.231-1.128c0.14,0.215,0.18,0.664,0.233,0.94c0.072-0.35,0.146-0.681,0.169-1.038
							c0.15,0.152,0.193,0.557,0.235,0.78c0.064-0.297,0.114-0.562,0.148-0.866c0.094,0.138,0.123,0.466,0.151,0.637
							c0.055-0.204,0.145-0.47,0.145-0.675c0.151,0.264,0.156,0.569,0.185,0.864c0.059-0.308,0.147-0.657,0.122-0.967
							c0.066,0.104,0.141,0.412,0.18,0.544c0.017-0.235,0.037-0.474,0.035-0.71c0.126,0.14,0.252,0.401,0.274,0.602
							c0.111-0.236,0.058-0.701-0.084-1.017l-0.017-0.037l-0.041,0.002c-0.238,0.015-0.477,0.03-0.715,0.045
							c-0.158,0.009-0.314,0.02-0.472,0.029c-0.076,0.005-0.162,0.013-0.237,0.013c-0.031-0.001-0.071-0.008-0.103-0.012
							c-0.076-0.01-0.153-0.021-0.229-0.031c-0.221-0.031-0.441-0.062-0.662-0.094c-0.334-0.047-0.651-0.129-0.985-0.178
							c-0.466,0.819-0.118,1.617,0.068,2.017c-0.016-0.259-0.056-0.535-0.018-0.79c0.02,0.223,0.147,0.517,0.227,0.736
							c0-0.26-0.009-0.485,0.052-0.742c-0.012,0.361,0.049,0.574,0.229,0.89c-0.018-0.329-0.052-0.588,0.04-0.928
							c0.012,0.414,0.089,0.665,0.212,1.044C20.461,13.354,20.477,13.01,20.576,12.699z"/>
						<path fill-rule="evenodd" clip-rule="evenodd" fill="#6B4027" d="M19.668,11.494c-0.192,0.423-0.34,0.705-0.081,1.515
							c-0.063-0.591,0.092-0.978,0.213-1.061c-0.071,0.432-0.064,0.536,0.015,0.924c-0.019-0.411,0.112-0.588,0.229-0.813
							c-0.017,0.166-0.075,0.592,0.047,1.061c-0.03-0.262,0.041-0.717,0.196-0.961c0,0.39,0,0.621,0.088,0.982
							c0.021-0.328,0.088-0.672,0.258-0.915c0.029,0.369,0.006,0.65,0.066,0.998c0.058-0.377,0.118-0.599,0.233-0.966
							c0.074,0.351,0.087,0.507,0.123,0.932c0.067-0.317,0.134-0.633,0.182-0.954c0.202,0.183,0.229,0.445,0.273,0.782
							c0.068-0.33,0.103-0.495,0.119-0.828c0.197,0.143,0.231,0.28,0.286,0.668c0.055-0.254,0.065-0.496,0.094-0.755
							c0.154,0.143,0.186,0.323,0.218,0.639c0.085-0.315,0.054-0.512,0.031-0.704c0.161,0.119,0.3,0.428,0.303,0.762
							c0.058-0.303,0.053-0.632-0.014-0.895c0.14,0.158,0.168,0.187,0.251,0.464c0.013-0.188,0.006-0.359-0.002-0.549
							c0.12,0.053,0.256,0.251,0.329,0.481c0.01-0.37-0.069-0.514-0.138-0.666c0,0-1.332,0.138-1.399,0.138
							C21.521,11.774,19.668,11.494,19.668,11.494z"/>
						<path fill-rule="evenodd" clip-rule="evenodd" fill="#4F2B0C" d="M19.235,12.746c0.489-0.551,1.057-0.646,2.125-0.721
							c0.739-0.052,1.252-0.222,1.702-0.462c0.675-0.36,0.587-0.977,0.302-1.23c-0.551-0.489-1.974-0.433-2.925,0.051
							c-0.233,0.119-0.434,0.263-0.591,0.443C19.427,11.312,19.308,12.106,19.235,12.746z"/>
						<path fill-rule="evenodd" clip-rule="evenodd" fill="#361D07" d="M19.213,12.772c0.192-0.146,0.673-0.518,1.002-0.592
							c0.293-0.066,0.67-0.122,1.145-0.155c0.739-0.052,1.252-0.222,1.702-0.462c0.675-0.36,0.587-0.977,0.302-1.23
							c-0.283-0.25-0.794-0.359-1.354-0.34c-0.045,0.01-0.092,0.021-0.141,0.034c0.476,0.026,0.605,0.042,1.019,0.175
							c-0.336-0.033-0.382-0.025-0.719,0.035c0.333,0.013,0.59,0.044,0.897,0.229c-0.288-0.063-0.566-0.122-0.922-0.01
							c0.321,0.027,0.667,0.082,0.922,0.286c-0.294-0.09-0.476-0.092-0.774-0.092c0.325,0.087,0.482,0.065,0.71,0.313
							c-0.359-0.089-0.577-0.12-0.922-0.092c0.347,0.065,0.511,0.125,0.866,0.332c-0.411-0.082-0.792-0.156-1.208-0.12
							c0.343,0.074,0.485,0.133,0.812,0.268c-0.377-0.017-0.553-0.056-0.917-0.106c0.281,0.103,0.322,0.123,0.576,0.286
							c-0.421-0.083-0.716-0.14-1.125-0.162c0.271,0.078,0.422,0.166,0.543,0.313c-0.472-0.137-0.576-0.164-1.079-0.203
							c0.22,0.063,0.406,0.149,0.599,0.268c-0.262-0.054-0.644-0.166-1.092-0.166c0.317,0.089,0.366,0.105,0.585,0.231
							c-0.37-0.07-0.679-0.079-1.051-0.056c0.253,0.051,0.347,0.064,0.525,0.189c-0.319-0.027-0.548-0.023-0.77,0.211
							c0.247-0.086,0.36-0.076,0.585-0.06C19.552,12.258,19.4,12.332,19.213,12.772z"/>
						<path fill-rule="evenodd" clip-rule="evenodd" fill="#241304" d="M22.577,10.487c0.273-0.006,0.596,0.083,0.867,0.143
							c-0.233-0.141-0.439-0.284-0.709-0.351c0.165,0.008,0.328,0.033,0.491,0.054c-0.305-0.167-0.456-0.205-0.79-0.3
							c0.388,0.008,0.816,0.209,0.913,0.29c0.154,0.129,0.257,0.377,0.229,0.617c-0.033,0.282-0.243,0.485-0.483,0.613
							c-0.536,0.286-1.075,0.419-1.679,0.462c-0.891,0.063-1.568,0.164-2.005,0.604c0.179-0.315,0.427-0.447,0.783-0.555
							c-0.173-0.013-0.361-0.016-0.531,0c0.361-0.112,0.694-0.074,0.919-0.037c-0.107-0.075-0.425-0.135-0.544-0.188
							c0.345,0.004,0.643,0.063,0.977,0.126c-0.148-0.085-0.304-0.183-0.457-0.257c0.311,0.045,0.639,0.131,0.95,0.196
							c-0.162-0.1-0.324-0.207-0.494-0.291c0.28,0.041,0.559,0.131,0.832,0.211c-0.107-0.131-0.194-0.209-0.344-0.3
							c0.346,0.043,0.628,0.218,1.009,0.179c-0.145-0.082-0.287-0.176-0.452-0.297c0.305,0.122,0.604,0.085,0.88,0.097
							c-0.245-0.133-0.446-0.234-0.713-0.326c-0.004-0.001-0.008-0.002-0.012-0.004c0.369,0.025,0.696,0.068,1.059,0.141
							c-0.236-0.138-0.436-0.252-0.69-0.349c0.219,0.023,0.432,0.08,0.645,0.133c-0.111-0.122-0.214-0.25-0.365-0.326
							c0.178,0.03,0.355,0.093,0.527,0.146C23.102,10.689,22.965,10.565,22.577,10.487z"/>
						<path fill-rule="evenodd" clip-rule="evenodd" fill="#361D07" d="M23.009,13.414c-0.011,0.327,0.06,0.967,0.453,1.109
							c0.082-0.262,0.126-0.592,0.36-0.739c0.011,0.043,0.031,0.229,0.005,0.254c-0.116,0.116-0.153,0.367-0.155,0.526
							c0.099,0.019,0.075-0.094,0.125-0.122c0.15,0.276,0.076,1.267-0.056,1.311c-0.168,0.055-0.684-0.273-0.872-0.453
							c-0.223-0.211-0.27-0.289-0.224-0.632c0.033-0.25,0.175-0.968-0.195-1.117L23.009,13.414z"/>
					</g>
					<path fill-rule="evenodd" clip-rule="evenodd" fill="#215682" d="M20.4,14.993c-0.121-0.038-0.244-0.078-0.372-0.107
						c-0.289,0.103-0.42,1.111-0.306,1.36c0.315,0.692,0.962,0.858,1.894,1.028c1.061,0.193,2.389-0.307,2.707-0.148
						c0.056,0.028-0.974-0.567-1.088-0.589c-0.947-0.178-2.649-0.453-2.838-1.155L20.4,14.993z"/>
					<g>
						<path fill-rule="evenodd" clip-rule="evenodd" fill="#729EC1" d="M20.397,15.111c-0.065,0.543,1.426,1.053,2.311,0.796
							c0.222,0.13,0.383,0.644,0.372,0.884c-1.053,0.175-2.631-0.053-2.974-0.878C20.03,15.733,20.185,15.315,20.397,15.111z"/>
						<path fill-rule="evenodd" clip-rule="evenodd" fill="#8FBCE0" d="M21.778,16.063c0.313,0.02,0.805,0,0.957-0.078
							c0.167,0.149,0.286,0.476,0.31,0.712c-0.077,0.062-0.755,0.104-1.313,0.003C21.256,16.616,21.333,16.037,21.778,16.063z"/>
					</g>
				</g>
			</g>
			<g>
				<g>
					<path fill-rule="evenodd" clip-rule="evenodd" fill="#E8A476" d="M31.645,13.986c-0.039,0.094-0.04,0.15-0.053,0.251
						c-0.063,0.153-0.101,0.272-0.121,0.38c-0.04,0.201-0.025,0.359-0.031,0.625c-0.003,0.155,0.021,0.235,0.056,0.385
						c-0.157,0.307-0.404,0.495-0.634,0.748l0.745,0.569c0.314-0.208,0.561-0.425,0.831-0.606c0.22-0.086,0.297-0.136,0.363-0.204
						c0.133-0.139,0.261-0.336,0.418-0.506c0.325-0.258,0.353-0.173,0.252-0.538c0.118-0.149,0.231-0.246,0.228-0.379
						c-0.002-0.114-0.015-0.215-0.028-0.355c0.026-0.067,0.027-0.085,0.046-0.158c0.019-0.075,0.057-0.191,0.076-0.256l0.013-0.132
						c0.009-0.079,0.046-0.176-0.014-0.238c-0.038-0.041-0.093-0.038-0.148-0.001c-0.076,0.049-0.128,0.161-0.151,0.254
						c-0.079,0.1-0.088,0.112-0.131,0.232c-0.17,0.156-0.169,0.156-0.292,0.354l-0.044,0.01c0.097-0.17,0.196-0.339,0.294-0.508
						c0.024-0.061,0.04-0.127,0.062-0.176c0.106-0.254,0.171-0.366,0.137-0.436c-0.078-0.162-0.307-0.035-0.397,0.182
						c-0.072,0.084-0.105,0.113-0.15,0.214c-0.116,0.134-0.2,0.251-0.302,0.396c-0.088,0.081-0.171,0.157-0.251,0.245
						c-0.138,0.078-0.228,0.159-0.294,0.177c-0.076,0.021-0.118-0.032-0.121-0.1c-0.002-0.075,0.045-0.207,0.084-0.403
						c0-0.324-0.079-0.507-0.253-0.49c-0.09,0.009-0.14,0.056-0.163,0.151C31.652,13.749,31.656,13.854,31.645,13.986z"/>
					<path fill-rule="evenodd" clip-rule="evenodd" fill="#F1B287" d="M31.645,13.986c-0.039,0.094-0.04,0.15-0.053,0.251
						c-0.063,0.153-0.101,0.272-0.121,0.38c-0.04,0.201-0.025,0.359-0.031,0.625c-0.003,0.155,0.021,0.235,0.056,0.385
						c-0.157,0.307-0.404,0.495-0.634,0.748l0.183,0.139c0.497-0.483,0.601-0.66,0.733-0.964c0.062-0.141,0.111-0.325,0.258-0.622
						c0.097-0.192,0.213-0.214,0.554-0.542c0.172-0.166,0.264-0.321,0.479-0.637c0.096-0.14,0.192-0.276,0.236-0.375
						c0.019-0.042,0.035-0.086,0.048-0.137c-0.087,0.031-0.182,0.124-0.232,0.245c-0.072,0.084-0.105,0.113-0.15,0.214
						c-0.116,0.134-0.2,0.251-0.302,0.396c-0.088,0.081-0.171,0.157-0.251,0.245c-0.138,0.078-0.228,0.159-0.294,0.177
						c-0.076,0.021-0.118-0.032-0.121-0.1c-0.002-0.075,0.045-0.207,0.084-0.403c0-0.324-0.079-0.507-0.253-0.49
						c-0.09,0.009-0.14,0.056-0.163,0.151C31.652,13.749,31.656,13.854,31.645,13.986z"/>
					<path fill-rule="evenodd" clip-rule="evenodd" fill="#DB9669" d="M31.227,16.653l0.38,0.29
						c0.314-0.208,0.561-0.425,0.831-0.606c0.22-0.086,0.297-0.136,0.363-0.204c0.133-0.139,0.261-0.336,0.418-0.506
						c0.325-0.258,0.353-0.173,0.252-0.538c0.083-0.104,0.161-0.182,0.202-0.265c-0.046-0.06-0.063-0.111-0.131-0.189
						c0.018-0.065,0.128-0.279,0.128-0.281c0.026-0.067,0.027-0.085,0.046-0.158c0.019-0.075,0.057-0.191,0.076-0.256l0.013-0.132
						c0.009-0.079,0.046-0.176-0.014-0.238c-0.005-0.004-0.009-0.009-0.013-0.012c-0.028,0.212-0.044,0.299-0.176,0.479
						c-0.037,0.05-0.072,0.135-0.11,0.209c-0.025,0.051-0.247,0.28-0.432,0.446c-0.06-0.061-0.068-0.161-0.036-0.273
						c0.097-0.17,0.196-0.339,0.294-0.508c0.024-0.061,0.04-0.127,0.062-0.176c0.106-0.254,0.171-0.366,0.137-0.436
						c-0.014-0.03-0.033-0.05-0.057-0.061c-0.064,0.189-0.173,0.409-0.274,0.587c-0.129,0.228-0.31,0.438-0.451,0.667
						c-0.127,0.207-0.324,0.694-0.478,1.074c-0.076,0.189-0.132,0.296-0.197,0.379C31.929,16.11,31.517,16.392,31.227,16.653z"/>
					<path fill-rule="evenodd" clip-rule="evenodd" fill="#FCC5A1" d="M31.743,13.606c-0.055,0.046-0.051,0.21-0.047,0.283
						c0.001,0.025,0.239,0.039,0.244,0c0.011-0.087,0.026-0.256-0.032-0.288C31.854,13.572,31.798,13.562,31.743,13.606z"/>
				</g>
				<g>
					<path fill-rule="evenodd" clip-rule="evenodd" fill="#1D3F5E" d="M29.316,21.349c0.558-0.021,0.7-0.705,0.887-0.978
						c0.646-0.94,1.39-2.615,2.02-3.767c0.007-0.227-0.604-0.767-0.989-0.821c-0.882,1.215-2.09,2.027-2.785,3.449
						C28.028,20.09,28.669,21.538,29.316,21.349z"/>
					<path fill-rule="evenodd" clip-rule="evenodd" fill="#1D3F5E" d="M24.147,17.398c1.061,0.164,3.123,1.186,4.493,1.783
						c0.936,0.407,1.278,0.835,1.289,1.277c0.014,0.537-0.33,0.915-0.86,0.93c-0.25,0.007-0.658-0.089-1.118-0.205
						c-0.735-0.185-3.107-0.616-4.198-1.192c-0.77-0.406-1.36-1.138-1.054-1.979C22.894,17.472,23.487,17.296,24.147,17.398z"/>
					<path fill-rule="evenodd" clip-rule="evenodd" fill="#193147" d="M29.324,21.349c0.551-0.027,0.693-0.706,0.879-0.978
						c0.646-0.94,1.39-2.615,2.02-3.767c0.003-0.104-0.124-0.274-0.3-0.433c-0.825,1.185-1.411,2.546-1.999,3.849
						c-0.187,0.415-0.263,0.776-0.422,0.899c-0.216,0.167-0.712-0.004-1.272-0.225c-1.889-0.68-2.901-1.094-3.673-1.442
						c-0.982-0.442-1.492-0.769-1.858-1.24c-0.306,0.842,0.285,1.573,1.054,1.979c1.091,0.576,3.463,1.007,4.198,1.192
						c0.46,0.116,0.868,0.212,1.118,0.205C29.16,21.385,29.245,21.372,29.324,21.349z"/>
					<path fill-rule="evenodd" clip-rule="evenodd" fill="#215682" d="M31.737,16.02c-0.17-0.121-0.354-0.216-0.504-0.237
						c-0.857,1.183-2.027,1.984-2.729,3.338c-1.369-0.603-3.332-1.564-4.358-1.723c-0.462-0.072-0.892-0.007-1.175,0.224
						c0.795,1.138,5.279,2.456,6.171,2.696C29.233,20.316,30.497,17.689,31.737,16.02z"/>
				</g>
			</g>
		</g>
		<g>
			<g>
				<path fill-rule="evenodd" clip-rule="evenodd" fill="#8AC6FF" d="M44.814,21.04c-0.003,1.323-0.922,2.941-2.055,3.609
					c-1.131,0.668-2.044-0.192-2.04-1.188c0.003-0.997,0.236-1.411,0.612-2.068c0.173,0.101,0.345,0.203,0.517,0.302
					c-0.244,0.422-0.396,0.693-0.397,1.333c-0.002,0.641,0.586,1.193,1.313,0.764c0.727-0.429,1.317-1.468,1.319-2.318
					C44.324,21.329,44.57,21.184,44.814,21.04z"/>
				<path fill-rule="evenodd" clip-rule="evenodd" fill="#61B3FF" d="M44.219,19.698c0.369,0.214,0.598,0.679,0.596,1.342
					c-0.244,0.145-0.49,0.289-0.731,0.433c0.001-0.425-0.145-0.725-0.383-0.862C43.873,20.307,44.047,20.003,44.219,19.698z"/>
				<path fill-rule="evenodd" clip-rule="evenodd" fill="#73BBFF" d="M42.773,19.85c0.566-0.334,1.076-0.367,1.445-0.154
					c-0.172,0.306-0.346,0.611-0.519,0.915c-0.237-0.138-0.565-0.117-0.929,0.098c-0.361,0.214-0.693,0.582-0.932,1.001
					c-0.171-0.099-0.344-0.199-0.517-0.3C41.695,20.755,42.207,20.184,42.773,19.85z"/>
			</g>
			<path fill-rule="evenodd" clip-rule="evenodd" fill="#73BBFF" d="M39.087,21.239l-0.002-0.427l2.245-0.968l0.001,0.428
				L39.087,21.239L39.087,21.239z M39.069,16.213l4.847-2.09l0.001,0.428L39.07,16.64L39.069,16.213L39.069,16.213z M41.536,15.837
				l-2.465,1.062l0.001,0.427l2.465-1.063L41.536,15.837L41.536,15.837z M39.08,19.367l4.846-2.09l-0.005-1.782l-4.848,2.089
				L39.08,19.367L39.08,19.367z M39.084,20.266l4.847-2.089l-0.003-0.562l-4.847,2.089L39.084,20.266z"/>
		</g>
		<g>
			<circle fill-rule="evenodd" clip-rule="evenodd" fill="#1854AC" cx="13.299" cy="5.749" r="0.535"/>
			<path fill-rule="evenodd" clip-rule="evenodd" fill="#41FFFF" d="M13.519,5.456l0.08,0.09c4.335-2.301,11.682-2.877,15.94-2.439
				C24.708,2.414,17.406,3.338,13.519,5.456z"/>
			<circle fill-rule="evenodd" clip-rule="evenodd" fill="#41FFFF" cx="13.299" cy="5.749" r="0.376"/>
			<circle fill-rule="evenodd" clip-rule="evenodd" fill="#FFFFFF" cx="13.299" cy="5.749" r="0.193"/>
		</g>
	</g>
</g>
</svg>
