<?xml version="1.0" encoding="utf-8"?>
<!-- Generator: Adobe Illustrator 16.0.0, SVG Export Plug-In . SVG Version: 6.00 Build 0)  -->
<!DOCTYPE svg PUBLIC "-//W3C//DTD SVG 1.1//EN" "http://www.w3.org/Graphics/SVG/1.1/DTD/svg11.dtd">
<svg version="1.1" id="Layer_1" xmlns="http://www.w3.org/2000/svg" xmlns:xlink="http://www.w3.org/1999/xlink" x="0px" y="0px"
	 width="20px" height="20px" viewBox="0 0 20 20" enable-background="new 0 0 20 20" xml:space="preserve">
<g>
	<path fill-rule="evenodd" clip-rule="evenodd" fill="#6AA8D0" d="M16.437,2.432l-0.686-0.39l0.051,0.03l0.042,0.042l0.034,0.046
		l0.029,0.055l0.025,0.063l0.017,0.067l0.013,0.077v0.08v7.352v0.089l-0.013,0.089l-0.017,0.089l-0.025,0.089l-0.029,0.093
		l-0.034,0.084l-0.042,0.089l-0.051,0.089l-0.051,0.08l-0.051,0.081l-0.063,0.076l-0.063,0.072l-0.063,0.063l-0.07,0.063
		l-0.072,0.056l-0.073,0.042l-2.197,1.27v0.627l0.682,0.394v-0.627l2.201-1.27L16,11.447l0.072-0.051l0.067-0.063l0.068-0.063
		l0.059-0.071l0.06-0.076l0.06-0.081l0.051-0.08l0.042-0.089l0.043-0.085l0.038-0.093l0.029-0.089l0.025-0.089l0.017-0.089
		l0.009-0.089l0.009-0.089V2.897l-0.009-0.08l-0.009-0.076l-0.017-0.072L16.589,2.61L16.56,2.555l-0.038-0.051l-0.043-0.038
		L16.437,2.432L16.437,2.432z M13.046,2.737l2.675-1.545l0.081-0.046l0.084-0.03l0.076-0.025l0.076-0.008l0.072-0.004l0.072,0.008
		l0.059,0.021l0.06,0.025l0.682,0.394l-0.055-0.025l-0.068-0.021l-0.067-0.008L16.72,1.476l-0.071,0.008l-0.081,0.025l-0.08,0.03
		l-0.085,0.046l-2.675,1.541v0.626l-0.682-0.394V2.737z"/>
	<path fill-rule="evenodd" clip-rule="evenodd" fill="#83BADF" d="M13.728,3.752l2.201-1.27c0.186-0.11,0.363-0.123,0.49-0.055
		c0.009,0,0.009,0.004,0.018,0.004c0.127,0.076,0.212,0.237,0.212,0.465v7.352c0,0.229-0.085,0.483-0.212,0.711
		c-0.132,0.225-0.313,0.419-0.508,0.533l-2.201,1.27v0.627l2.675-1.545c0.229-0.127,0.432-0.355,0.58-0.609v-0.005
		c0.148-0.258,0.241-0.546,0.241-0.808V2.06c0-0.262-0.093-0.444-0.241-0.533c-0.148-0.085-0.352-0.072-0.58,0.059l-2.675,1.541
		V3.752z"/>
	<rect x="3.576" y="5.137" fill-rule="evenodd" clip-rule="evenodd" fill="#73BCE3" width="11.428" height="11.056"/>
	<path fill-rule="evenodd" clip-rule="evenodd" fill="#6AA8D0" d="M5.251,2.805c2.233-1.291,5.854-1.291,8.088,0
		c2.233,1.287,2.233,3.382,0,4.668c-2.232,1.291-5.855,1.291-8.09,0S3.017,4.091,5.251,2.805L5.251,2.805z M5.734,3.084
		C3.768,4.218,3.764,6.06,5.732,7.194s5.16,1.134,7.125,0c1.969-1.134,1.967-2.976,0-4.11C10.89,1.945,7.702,1.945,5.734,3.084z"/>
	<path fill-rule="evenodd" clip-rule="evenodd" fill="#83BADF" d="M13.929,7.075c-0.176,0.14-0.37,0.271-0.589,0.398
		c-0.493,0.284-1.052,0.508-1.648,0.665v-0.44c0.419-0.131,0.813-0.296,1.166-0.503c0.468-0.271,0.825-0.58,1.071-0.915V7.075z"/>
	<path fill-rule="evenodd" clip-rule="evenodd" fill="#EBEBEB" d="M5.734,3.084c1.968-1.139,5.155-1.139,7.123,0
		c0.29,0.165,0.536,0.347,0.741,0.542h0.734v1.511l0,0c0,0.745-0.493,1.49-1.476,2.057c-1.966,1.134-5.157,1.134-7.125,0
		C4.75,6.626,4.257,5.882,4.257,5.137V3.625h0.734C5.199,3.431,5.444,3.249,5.734,3.084z"/>
	<path fill-rule="evenodd" clip-rule="evenodd" fill="#73BCE3" d="M5.251,13.645c2.233-1.287,5.854-1.291,8.088,0
		c2.233,1.291,2.233,3.382,0,4.673c-2.232,1.286-5.855,1.286-8.09,0C3.015,17.026,3.017,14.936,5.251,13.645z"/>
	<path fill-rule="evenodd" clip-rule="evenodd" fill="#A2DBFA" d="M11.691,12.979c0.597,0.161,1.155,0.381,1.648,0.665
		c0.216,0.127,0.413,0.258,0.589,0.397v3.877c-0.176,0.14-0.37,0.271-0.589,0.398c-0.493,0.283-1.052,0.503-1.648,0.664V12.979z"/>
	<path fill-rule="evenodd" clip-rule="evenodd" fill="#6AA8D0" d="M5.251,12.658c2.233-1.287,5.854-1.291,8.088,0
		c2.233,1.291,2.233,3.382,0,4.673c-2.232,1.291-5.855,1.291-8.09,0S3.017,13.949,5.251,12.658L5.251,12.658z M5.734,12.938
		c-1.966,1.139-1.971,2.979-0.002,4.114c1.968,1.134,5.16,1.134,7.125,0c1.969-1.135,1.967-2.976,0-4.114
		C10.89,11.803,7.702,11.803,5.734,12.938z"/>
	<path fill-rule="evenodd" clip-rule="evenodd" fill="#83BADF" d="M12.913,12.434c0.146,0.072,0.289,0.148,0.427,0.225
		c0.216,0.127,0.413,0.263,0.589,0.397v0.796c-0.246-0.33-0.604-0.644-1.071-0.914c-0.355-0.203-0.749-0.372-1.166-0.504H12.913
		L12.913,12.434z M13.929,16.933c-0.176,0.14-0.37,0.271-0.589,0.398c-0.493,0.283-1.052,0.504-1.648,0.664v-0.439
		c0.419-0.132,0.813-0.301,1.166-0.504c0.468-0.271,0.825-0.58,1.071-0.914V16.933z"/>
	<path fill-rule="evenodd" clip-rule="evenodd" fill="#FAC13C" d="M4.266,14.994h10.048V6.783c-0.097,0.66-0.582,1.304-1.456,1.807
		c-1.966,1.135-5.157,1.135-7.125,0C4.831,8.07,4.342,7.397,4.27,6.715L4.266,14.994z"/>
	<path fill-rule="evenodd" clip-rule="evenodd" fill="#EBEBEB" d="M14.322,6.715c-0.074,0.682-0.561,1.354-1.465,1.875
		c-1.966,1.135-5.157,1.135-7.125,0C4.831,8.07,4.342,7.397,4.27,6.715c0.254,0.271,0.582,0.529,0.98,0.758
		c2.235,1.291,5.858,1.291,8.09,0C13.738,7.245,14.066,6.986,14.322,6.715z"/>
	<path fill-rule="evenodd" clip-rule="evenodd" fill="#F2F2F2" d="M5.734,1.568c1.968-1.134,5.155-1.134,7.123,0
		c1.967,1.139,1.969,2.98,0,4.114c-1.966,1.134-5.157,1.134-7.125,0C3.764,4.544,3.768,2.707,5.734,1.568z"/>
	<path fill-rule="evenodd" clip-rule="evenodd" fill="#F5C24C" d="M5.734,12.938c1.968-1.135,5.155-1.135,7.123,0
		c1.967,1.139,1.969,2.979,0,4.114c-1.966,1.134-5.157,1.134-7.125,0C3.764,15.917,3.768,14.076,5.734,12.938z"/>
	<circle fill-rule="evenodd" clip-rule="evenodd" fill="#DEB24C" cx="6.623" cy="14.995" r="0.516"/>
	<path fill-rule="evenodd" clip-rule="evenodd" fill="#FAC13C" d="M6.682,15.409c0.244,0,0.44-0.199,0.44-0.44
		c0-0.245-0.197-0.444-0.44-0.444c-0.245,0-0.442,0.199-0.442,0.444C6.24,15.21,6.437,15.409,6.682,15.409z"/>
	<path fill-rule="evenodd" clip-rule="evenodd" fill="#FCD57C" d="M7.019,14.728c-0.116-0.152-0.296-0.102-0.296,0.085
		c0,0.11,0.089,0.203,0.201,0.203C7.105,15.016,7.101,14.838,7.019,14.728z"/>
	<path fill-rule="evenodd" clip-rule="evenodd" fill="#DEB24C" d="M10.898,12.832c0.275,0,0.498-0.225,0.498-0.496
		c0-0.274-0.223-0.499-0.498-0.499c-0.273,0-0.495,0.225-0.495,0.499C10.403,12.607,10.625,12.832,10.898,12.832z"/>
	<circle fill-rule="evenodd" clip-rule="evenodd" fill="#FAC13C" cx="10.955" cy="12.309" r="0.425"/>
	<path fill-rule="evenodd" clip-rule="evenodd" fill="#FCD57C" d="M11.281,12.078c-0.115-0.148-0.288-0.102-0.288,0.08
		c0,0.106,0.089,0.195,0.194,0.195C11.363,12.354,11.359,12.184,11.281,12.078z"/>
	<circle fill-rule="evenodd" clip-rule="evenodd" fill="#DEB24C" cx="9.455" cy="10.686" r="0.546"/>
	<circle fill-rule="evenodd" clip-rule="evenodd" fill="#FAC13C" cx="9.518" cy="10.656" r="0.47"/>
	<path fill-rule="evenodd" clip-rule="evenodd" fill="#FCD57C" d="M9.876,10.406c-0.127-0.165-0.315-0.114-0.315,0.085
		c0,0.118,0.095,0.216,0.211,0.216C9.967,10.707,9.962,10.521,9.876,10.406z"/>
	<circle fill-rule="evenodd" clip-rule="evenodd" fill="#DEB24C" cx="9.053" cy="14.205" r="0.472"/>
	<circle fill-rule="evenodd" clip-rule="evenodd" fill="#FAC13C" cx="9.105" cy="14.18" r="0.404"/>
	<path fill-rule="evenodd" clip-rule="evenodd" fill="#FCD57C" d="M9.412,13.962c-0.105-0.14-0.271-0.094-0.271,0.076
		c0,0.102,0.083,0.187,0.184,0.187C9.493,14.225,9.488,14.06,9.412,13.962z"/>
	<circle fill-rule="evenodd" clip-rule="evenodd" fill="#DEB24C" cx="6.52" cy="11.185" r="0.3"/>
	<path fill-rule="evenodd" clip-rule="evenodd" fill="#FAC13C" d="M6.551,11.427c0.144,0,0.258-0.114,0.258-0.259
		c0-0.14-0.114-0.254-0.258-0.254c-0.142,0-0.258,0.114-0.258,0.254C6.293,11.313,6.409,11.427,6.551,11.427z"/>
	<path fill-rule="evenodd" clip-rule="evenodd" fill="#FCD57C" d="M6.748,11.033c-0.068-0.094-0.174-0.063-0.174,0.046
		c0,0.063,0.053,0.119,0.119,0.119C6.799,11.198,6.796,11.097,6.748,11.033z"/>
	<circle fill-rule="evenodd" clip-rule="evenodd" fill="#DEB24C" cx="8.744" cy="12.489" r="0.3"/>
	<path fill-rule="evenodd" clip-rule="evenodd" fill="#FAC13C" d="M8.777,12.73c0.142,0,0.256-0.114,0.256-0.259
		c0-0.14-0.114-0.254-0.256-0.254c-0.144,0-0.258,0.114-0.258,0.254C8.519,12.616,8.633,12.73,8.777,12.73z"/>
	<path fill-rule="evenodd" clip-rule="evenodd" fill="#FCD57C" d="M8.972,12.336c-0.068-0.093-0.171-0.063-0.171,0.047
		c0,0.063,0.053,0.119,0.116,0.119C9.025,12.502,9.021,12.396,8.972,12.336z"/>
	<path fill-rule="evenodd" clip-rule="evenodd" fill="#FCD988" d="M13.929,7.676v7.318h-2.237v-5.9
		c0.419-0.131,0.813-0.301,1.166-0.504C13.325,8.32,13.683,8.011,13.929,7.676z"/>
	<path fill-rule="evenodd" clip-rule="evenodd" fill="#FFD269" d="M11.691,12.434c0.417,0.132,0.811,0.301,1.166,0.504
		c0.468,0.271,0.825,0.584,1.071,0.914v2.286c-0.246,0.334-0.604,0.643-1.071,0.914c-0.354,0.203-0.747,0.372-1.166,0.504V12.434z"
		/>
	<circle fill-rule="evenodd" clip-rule="evenodd" fill="#F0C663" cx="12.168" cy="14.669" r="0.597"/>
	<path fill-rule="evenodd" clip-rule="evenodd" fill="#FFD269" d="M12.233,15.151c0.283,0,0.512-0.233,0.512-0.513
		c0-0.283-0.229-0.512-0.512-0.512c-0.281,0-0.51,0.229-0.51,0.512C11.724,14.918,11.952,15.151,12.233,15.151z"/>
	<path fill-rule="evenodd" clip-rule="evenodd" fill="#FCD988" d="M12.625,14.364c-0.136-0.178-0.343-0.123-0.343,0.093
		c0,0.131,0.104,0.232,0.232,0.232C12.727,14.689,12.72,14.486,12.625,14.364z"/>
</g>
</svg>
