<?xml version="1.0" encoding="UTF-8" ?>
<!DOCTYPE svg PUBLIC "-//W3C//DTD SVG 1.1//EN" "http://www.w3.org/Graphics/SVG/1.1/DTD/svg11.dtd">
<svg width="197pt" height="321pt" viewBox="0 0 197 321" version="1.1" xmlns="http://www.w3.org/2000/svg">
<g id="#8a9e72ff">
<path fill="#8a9e72" opacity="1.00" d=" M 152.27 0.00 L 160.86 0.00 C 164.39 0.19 166.41 3.01 167.25 6.16 C 172.01 8.69 177.43 9.92 181.80 13.17 C 187.71 17.17 190.13 24.31 192.22 30.79 C 192.98 33.84 194.60 37.54 192.24 40.29 C 189.95 42.85 186.13 42.22 183.07 42.59 C 179.25 42.61 174.49 43.68 171.68 40.34 C 169.60 37.44 168.69 33.89 166.78 30.88 C 166.56 36.24 166.34 41.63 166.71 46.98 C 166.71 48.96 168.45 50.18 170.10 50.82 C 176.24 53.36 182.91 55.45 187.61 60.40 C 194.01 66.57 196.84 75.52 197.00 84.24 L 197.00 86.70 C 196.52 97.67 191.24 108.86 181.67 114.71 C 177.93 117.19 173.48 118.08 169.31 119.55 C 168.25 119.86 167.69 120.90 167.01 121.68 C 165.40 124.06 162.98 125.77 160.10 126.18 C 157.77 126.26 155.44 126.26 153.12 126.18 C 149.81 125.97 146.84 124.25 145.88 120.91 C 145.77 120.69 145.54 120.24 145.42 120.02 C 141.44 117.85 136.99 116.73 132.99 114.61 C 129.45 112.56 126.41 109.79 123.90 106.58 C 120.65 99.99 117.75 93.15 116.20 85.95 C 115.49 83.12 117.52 80.06 120.38 79.57 C 124.23 78.81 128.18 78.43 132.10 78.29 C 135.16 78.10 137.93 80.29 138.85 83.14 C 140.50 87.77 142.36 92.50 146.16 95.84 C 146.49 88.90 146.35 81.94 146.38 75.00 C 146.48 72.80 145.95 70.23 143.69 69.29 C 137.87 66.34 131.32 64.17 126.87 59.12 C 116.33 47.82 115.95 28.72 126.01 16.99 C 130.27 11.70 136.59 8.74 142.99 6.95 C 145.96 6.50 146.73 3.38 148.44 1.42 C 149.64 0.77 150.96 0.38 152.27 0.00 M 151.67 4.65 C 149.91 6.58 149.06 9.60 146.23 10.26 C 141.26 11.93 136.01 13.46 132.07 17.13 C 121.12 26.66 120.20 44.80 129.04 56.04 C 132.49 60.79 137.85 63.52 143.11 65.77 C 145.66 66.94 148.89 68.10 149.63 71.17 C 150.78 77.76 149.26 84.52 150.35 91.11 C 150.18 93.25 150.46 95.57 149.45 97.54 C 148.18 99.87 144.66 99.72 142.84 98.16 C 138.64 94.52 136.66 89.14 135.03 84.00 C 135.20 83.43 135.53 82.28 135.70 81.70 C 135.42 81.81 134.85 82.03 134.56 82.14 C 129.83 82.56 123.77 81.45 120.44 85.66 C 122.71 92.41 124.60 99.46 128.57 105.46 C 132.48 111.11 139.38 113.04 145.39 115.54 C 148.03 116.53 148.61 119.71 150.75 121.25 C 153.15 121.93 155.69 121.85 158.15 122.12 C 159.33 121.97 160.50 121.76 161.67 121.49 C 163.07 119.92 163.66 117.55 165.70 116.64 C 170.18 114.61 175.24 114.02 179.44 111.34 C 195.90 101.16 197.74 74.39 183.24 61.77 C 178.39 57.61 171.96 56.33 166.40 53.49 C 163.08 51.61 162.51 47.50 162.61 44.04 C 162.76 39.03 162.13 33.93 163.14 28.98 C 163.50 26.97 165.65 25.45 167.62 26.42 C 170.31 28.13 171.57 31.20 172.84 33.98 C 172.70 37.70 177.13 38.30 179.92 38.54 C 182.94 38.41 185.99 38.52 188.96 37.87 C 189.73 32.77 186.81 27.71 184.97 23.01 C 181.89 15.82 173.87 13.50 167.30 10.70 C 164.10 9.64 162.90 6.34 161.57 3.58 L 161.15 4.07 C 157.99 4.16 154.73 3.75 151.67 4.65 Z" />
<path fill="#8a9e72" opacity="1.00" d=" M 138.73 41.35 C 134.87 35.53 138.94 26.17 145.99 25.61 C 149.86 25.50 150.67 30.02 150.24 33.01 C 150.09 35.67 150.08 38.33 150.16 40.99 C 150.31 42.88 150.13 45.26 148.07 46.05 C 144.36 47.89 140.52 44.37 138.73 41.35 M 141.26 36.03 C 141.13 39.23 143.70 41.52 146.25 42.95 C 146.49 38.35 146.55 33.74 146.23 29.14 C 143.60 30.47 141.08 32.83 141.26 36.03 Z" />
<path fill="#8a9e72" opacity="1.00" d=" M 162.73 77.04 C 162.62 74.90 164.03 71.50 166.69 72.43 C 170.08 73.51 173.18 75.52 175.75 77.98 C 179.78 82.17 179.29 88.89 175.79 93.23 C 174.09 95.63 172.11 97.95 169.57 99.48 C 166.89 101.06 162.72 99.33 162.75 96.00 C 162.46 89.69 162.51 83.35 162.73 77.04 M 166.66 76.52 C 166.48 83.18 166.33 89.85 166.72 96.51 C 170.99 94.01 174.42 89.26 173.46 84.10 C 173.18 80.27 169.74 78.09 166.66 76.52 Z" />
</g>
<g id="#cbe0b3ff">
<path fill="#cbe0b3" opacity="1.00" d=" M 151.67 4.65 C 154.73 3.75 157.99 4.16 161.15 4.07 C 158.54 6.86 156.39 10.57 152.35 11.40 C 146.24 13.12 140.32 16.32 136.67 21.67 C 128.69 32.74 129.80 49.72 139.75 59.24 C 144.25 63.57 150.52 65.09 155.61 68.49 C 158.39 70.38 157.87 74.15 158.06 77.06 C 157.90 82.69 158.38 88.36 157.78 93.97 C 157.74 95.17 157.14 95.97 155.98 96.39 C 153.29 95.75 151.75 93.27 150.35 91.11 C 149.26 84.52 150.78 77.76 149.63 71.17 C 148.89 68.10 145.66 66.94 143.11 65.77 C 137.85 63.52 132.49 60.79 129.04 56.04 C 120.20 44.80 121.12 26.66 132.07 17.13 C 136.01 13.46 141.26 11.93 146.23 10.26 C 149.06 9.60 149.91 6.58 151.67 4.65 Z" />
<path fill="#cbe0b3" opacity="1.00" d=" M 173.23 25.42 C 178.16 27.16 179.24 32.75 181.51 36.84 C 181.11 37.26 180.32 38.11 179.92 38.54 C 177.13 38.30 172.70 37.70 172.84 33.98 C 172.77 31.12 172.99 28.26 173.23 25.42 Z" />
<path fill="#cbe0b3" opacity="1.00" d=" M 150.24 33.01 C 151.46 30.64 155.40 27.36 157.61 30.25 C 158.61 35.14 157.98 40.18 157.80 45.13 C 154.55 45.80 151.50 43.94 150.16 40.99 C 150.08 38.33 150.09 35.67 150.24 33.01 Z" />
<path fill="#cbe0b3" opacity="1.00" d=" M 175.75 77.98 C 176.45 76.83 177.02 75.58 177.99 74.62 C 181.51 75.78 185.10 77.97 186.41 81.62 C 188.51 87.45 185.21 94.27 179.91 97.08 C 177.25 98.36 176.30 95.14 175.79 93.23 C 179.29 88.89 179.78 82.17 175.75 77.98 Z" />
<path fill="#cbe0b3" opacity="1.00" d=" M 120.44 85.66 C 123.77 81.45 129.83 82.56 134.56 82.14 C 132.74 83.00 130.37 83.40 129.24 85.23 C 128.83 88.24 130.14 91.14 131.03 93.94 C 132.91 98.78 134.59 103.94 138.19 107.82 C 142.06 111.87 147.65 113.25 152.57 115.52 C 155.39 116.70 156.57 119.74 158.15 122.12 C 155.69 121.85 153.15 121.93 150.75 121.25 C 148.61 119.71 148.03 116.53 145.39 115.54 C 139.38 113.04 132.48 111.11 128.57 105.46 C 124.60 99.46 122.71 92.41 120.44 85.66 Z" />
</g>
<g id="#a9c191ff">
<path fill="#a9c191" opacity="1.00" d=" M 161.15 4.07 L 161.57 3.58 C 162.90 6.34 164.10 9.64 167.30 10.70 C 173.87 13.50 181.89 15.82 184.97 23.01 C 186.81 27.71 189.73 32.77 188.96 37.87 C 185.99 38.52 182.94 38.41 179.92 38.54 C 180.32 38.11 181.11 37.26 181.51 36.84 C 179.24 32.75 178.16 27.16 173.23 25.42 C 172.99 28.26 172.77 31.12 172.84 33.98 C 171.57 31.20 170.31 28.13 167.62 26.42 C 165.65 25.45 163.50 26.97 163.14 28.98 C 162.13 33.93 162.76 39.03 162.61 44.04 C 162.51 47.50 163.08 51.61 166.40 53.49 C 171.96 56.33 178.39 57.61 183.24 61.77 C 197.74 74.39 195.90 101.16 179.44 111.34 C 175.24 114.02 170.18 114.61 165.70 116.64 C 163.66 117.55 163.07 119.92 161.67 121.49 C 160.50 121.76 159.33 121.97 158.15 122.12 C 156.57 119.74 155.39 116.70 152.57 115.52 C 147.65 113.25 142.06 111.87 138.19 107.82 C 134.59 103.94 132.91 98.78 131.03 93.94 C 130.14 91.14 128.83 88.24 129.24 85.23 C 130.37 83.40 132.74 83.00 134.56 82.14 C 134.85 82.03 135.42 81.81 135.70 81.70 C 135.53 82.28 135.20 83.43 135.03 84.00 C 136.66 89.14 138.64 94.52 142.84 98.16 C 144.66 99.72 148.18 99.87 149.45 97.54 C 150.46 95.57 150.18 93.25 150.35 91.11 C 151.75 93.27 153.29 95.75 155.98 96.39 C 157.14 95.97 157.74 95.17 157.78 93.97 C 158.38 88.36 157.90 82.69 158.06 77.06 C 157.87 74.15 158.39 70.38 155.61 68.49 C 150.52 65.09 144.25 63.57 139.75 59.24 C 129.80 49.72 128.69 32.74 136.67 21.67 C 140.32 16.32 146.24 13.12 152.35 11.40 C 156.39 10.57 158.54 6.86 161.15 4.07 M 138.73 41.35 C 140.52 44.37 144.36 47.89 148.07 46.05 C 150.13 45.26 150.31 42.88 150.16 40.99 C 151.50 43.94 154.55 45.80 157.80 45.13 C 157.98 40.18 158.61 35.14 157.61 30.25 C 155.40 27.36 151.46 30.64 150.24 33.01 C 150.67 30.02 149.86 25.50 145.99 25.61 C 138.94 26.17 134.87 35.53 138.73 41.35 M 162.73 77.04 C 162.51 83.35 162.46 89.69 162.75 96.00 C 162.72 99.33 166.89 101.06 169.57 99.48 C 172.11 97.95 174.09 95.63 175.79 93.23 C 176.30 95.14 177.25 98.36 179.91 97.08 C 185.21 94.27 188.51 87.45 186.41 81.62 C 185.10 77.97 181.51 75.78 177.99 74.62 C 177.02 75.58 176.45 76.83 175.75 77.98 C 173.18 75.52 170.08 73.51 166.69 72.43 C 164.03 71.50 162.62 74.90 162.73 77.04 Z" />
</g>
<g id="#ed317fff">
<path fill="#ed317f" opacity="1.00" d=" M 63.84 35.85 C 68.50 30.67 75.94 34.30 80.12 38.22 C 82.42 38.21 84.70 38.60 86.76 39.66 C 91.62 37.62 97.36 37.39 101.86 40.45 C 103.10 43.64 101.31 46.34 98.91 48.31 C 99.10 48.65 99.50 49.34 99.70 49.68 C 99.68 51.55 99.59 53.41 99.52 55.27 C 97.19 55.50 94.78 56.02 92.47 55.44 C 89.27 54.36 87.05 51.62 84.11 50.09 C 82.39 49.49 80.62 49.02 78.85 48.59 C 74.38 50.35 68.89 52.26 64.45 49.44 C 61.67 47.34 64.44 44.05 65.35 41.72 C 65.24 41.27 65.03 40.36 64.93 39.91 C 64.58 38.55 64.20 37.20 63.84 35.85 Z" />
<path fill="#ed317f" opacity="1.00" d=" M 71.90 149.99 C 79.74 145.72 89.17 144.90 96.28 139.15 C 99.39 142.95 101.85 147.23 103.74 151.76 C 102.68 152.08 101.65 152.48 100.65 152.95 C 101.59 159.23 102.54 165.51 103.18 171.83 C 103.93 171.71 105.44 171.47 106.19 171.36 C 105.67 177.36 104.08 183.17 102.80 189.04 C 101.38 196.52 107.05 202.76 108.01 209.88 C 107.34 210.46 106.64 210.99 105.90 211.47 C 93.89 214.66 81.17 217.53 68.84 214.29 C 68.30 212.86 67.75 211.44 67.20 210.02 C 66.53 211.45 65.86 212.88 65.20 214.32 C 53.41 217.29 41.12 215.08 29.70 211.62 C 28.72 211.42 27.72 211.26 26.72 211.16 C 26.58 209.96 26.12 208.67 26.70 207.50 C 28.79 202.46 31.94 197.60 32.05 191.97 C 31.79 187.90 30.10 184.09 29.54 180.07 C 30.61 178.20 32.34 176.44 32.15 174.13 C 32.01 168.70 31.46 163.17 32.90 157.84 C 33.66 154.32 35.59 151.07 35.72 147.42 C 35.06 147.08 33.74 146.42 33.08 146.09 C 34.12 144.58 35.05 143.00 36.02 141.45 C 43.36 148.12 53.51 149.46 63.03 149.75 C 63.73 151.06 64.44 152.37 65.14 153.69 C 62.32 157.47 64.44 161.78 65.40 165.77 C 65.91 164.16 66.38 162.53 66.99 160.96 C 67.97 161.81 68.91 162.70 69.87 163.59 C 70.48 161.76 71.29 159.96 71.56 158.04 C 71.16 156.54 70.39 155.16 69.78 153.75 C 70.45 152.47 71.14 151.21 71.90 149.99 Z" />
</g>
<g id="#8a5d3bff">
<path fill="#8a5d3b" opacity="1.00" d=" M 18.69 55.63 C 30.59 43.80 47.08 36.60 63.84 35.85 C 64.20 37.20 64.58 38.55 64.93 39.91 C 52.04 39.96 39.55 44.83 29.00 52.04 C 21.66 57.11 15.30 64.25 13.10 73.08 C 10.53 83.07 11.92 93.82 16.31 103.09 C 21.98 99.73 27.00 95.06 30.07 89.17 C 31.63 86.17 32.30 82.80 33.87 79.80 C 35.40 78.88 37.33 79.05 39.04 78.75 C 47.60 78.08 56.17 75.34 63.05 70.10 C 66.50 67.54 68.97 63.93 72.35 61.30 C 75.73 62.89 77.10 66.87 79.57 69.50 C 83.43 74.45 88.75 78.24 94.67 80.31 C 98.96 81.58 103.50 81.26 107.92 81.42 C 107.32 72.18 104.91 62.91 99.52 55.27 C 99.59 53.41 99.68 51.55 99.70 49.68 C 107.09 57.13 110.65 67.59 111.54 77.87 C 111.99 83.02 112.85 88.18 114.58 93.07 C 116.51 98.28 120.19 102.55 123.90 106.58 C 126.41 109.79 129.45 112.56 132.99 114.61 C 126.29 120.47 116.87 121.54 108.43 123.13 C 106.29 129.67 101.90 135.24 96.28 139.15 C 89.17 144.90 79.74 145.72 71.90 149.99 C 68.94 149.98 65.98 149.93 63.03 149.75 C 53.51 149.46 43.36 148.12 36.02 141.45 C 35.68 141.20 35.00 140.70 34.65 140.45 C 28.16 141.98 21.70 143.95 14.98 144.17 C 12.73 144.14 10.09 144.83 8.29 143.07 C 10.79 135.12 15.59 127.59 15.30 118.99 C 14.54 116.90 13.26 115.03 12.62 112.89 C 12.09 110.54 12.73 108.15 13.11 105.83 C 10.03 98.94 7.66 91.60 7.86 83.96 C 7.51 73.55 11.17 62.97 18.69 55.63 M 36.63 83.22 C 34.98 91.43 29.12 97.68 23.45 103.41 C 22.72 110.01 25.77 116.49 28.50 122.39 C 31.60 128.15 33.90 134.72 39.21 138.90 C 46.85 145.28 57.46 145.91 66.96 145.14 C 78.00 143.83 89.40 140.45 97.72 132.75 C 103.18 127.85 106.19 120.26 104.98 112.94 C 103.72 103.79 103.23 94.45 100.47 85.59 C 98.38 85.28 96.30 84.95 94.22 84.63 C 93.35 87.04 92.39 89.41 91.47 91.79 C 93.65 90.39 95.53 88.60 97.37 86.79 C 96.45 89.50 94.52 91.73 91.64 92.41 C 92.13 95.55 93.03 99.17 90.88 101.95 C 88.11 106.33 81.39 106.97 77.76 103.32 C 73.91 99.74 74.52 92.88 78.95 90.06 C 81.97 87.79 85.82 88.76 89.06 89.87 C 89.16 89.04 89.37 87.39 89.47 86.56 C 84.48 84.87 79.62 86.96 74.85 88.31 C 77.12 82.48 84.56 83.53 89.41 84.85 C 89.75 82.01 86.78 81.17 84.97 79.80 C 79.78 76.59 76.04 71.67 72.45 66.85 C 63.55 77.25 50.03 82.36 36.63 83.22 M 89.62 82.72 C 90.10 84.12 90.53 85.56 91.21 86.88 C 92.73 87.39 92.86 84.91 93.75 84.13 C 92.37 83.66 90.99 83.19 89.62 82.72 M 106.17 84.94 C 106.53 88.23 107.24 91.48 108.28 94.63 C 110.65 91.32 109.19 87.23 106.17 84.94 M 90.21 88.07 C 89.72 89.53 90.16 90.00 91.53 89.47 C 92.02 88.01 91.58 87.54 90.21 88.07 M 76.77 99.99 C 78.55 105.10 86.08 106.31 89.43 102.10 C 92.58 98.77 91.40 93.42 88.14 90.63 C 88.06 91.22 87.90 92.41 87.82 93.01 C 87.92 90.85 85.28 90.61 83.67 90.42 L 84.36 89.45 C 79.09 89.29 74.41 94.99 76.77 99.99 M 107.36 100.11 C 108.29 106.36 108.74 112.68 109.99 118.88 C 115.54 117.97 120.96 116.46 126.23 114.50 C 120.88 109.13 115.27 103.87 111.84 96.97 C 110.35 98.01 108.85 99.06 107.36 100.11 M 19.87 116.50 C 19.39 113.17 18.60 109.89 17.56 106.70 C 15.49 110.11 16.41 114.42 19.87 116.50 M 19.59 120.50 C 18.70 127.31 16.20 133.70 13.86 140.10 C 19.81 140.05 25.64 138.78 31.30 137.00 C 28.71 131.27 25.75 125.73 22.84 120.16 C 21.76 120.27 20.67 120.39 19.59 120.50 Z" />
<path fill="#8a5d3b" opacity="1.00" d=" M 83.56 121.55 C 84.88 119.07 88.32 121.68 86.63 123.72 C 83.50 128.28 78.71 131.63 73.53 133.47 C 66.67 135.87 59.00 134.62 52.68 131.29 C 51.39 130.94 51.54 127.99 52.98 128.10 C 54.95 127.61 56.82 128.91 58.69 129.38 C 64.51 131.65 71.31 130.90 76.60 127.62 C 79.32 126.10 81.31 123.66 83.56 121.55 Z" />
<path fill="#8a5d3b" opacity="1.00" d=" M 140.55 131.96 C 140.99 127.73 143.11 124.04 145.88 120.91 C 146.84 124.25 149.81 125.97 153.12 126.18 C 152.76 126.61 152.04 127.47 151.67 127.90 C 150.25 126.90 148.83 125.89 147.41 124.89 C 146.47 127.09 144.64 129.28 145.19 131.81 C 146.44 133.67 148.15 135.15 149.71 136.73 C 153.39 133.43 156.82 129.87 160.10 126.18 C 162.98 125.77 165.40 124.06 167.01 121.68 C 163.75 130.33 155.84 135.63 150.09 142.42 C 146.61 139.25 142.68 136.29 140.55 131.96 Z" />
<path fill="#8a5d3b" opacity="1.00" d=" M 65.40 165.77 C 64.44 161.78 62.32 157.47 65.14 153.69 C 65.94 155.13 66.75 156.58 67.56 158.02 C 68.31 156.60 69.04 155.17 69.78 153.75 C 70.39 155.16 71.16 156.54 71.56 158.04 C 71.29 159.96 70.48 161.76 69.87 163.59 C 68.91 162.70 67.97 161.81 66.99 160.96 C 66.38 162.53 65.91 164.16 65.40 165.77 Z" />
<path fill="#8a5d3b" opacity="1.00" d=" M 6.05 207.72 C 6.84 208.84 7.70 209.93 8.63 210.95 C 6.23 214.92 3.73 219.27 4.18 224.10 C 4.35 227.32 6.37 231.24 10.02 231.30 C 12.73 230.89 14.87 228.55 15.38 225.91 C 16.02 222.47 15.78 218.96 15.78 215.48 C 18.09 218.31 20.45 221.11 23.23 223.49 C 23.80 218.88 21.33 214.61 17.36 212.38 C 18.85 211.90 20.02 210.87 21.14 209.84 C 23.84 212.70 27.01 215.79 27.24 219.98 C 27.62 222.43 26.34 224.63 25.26 226.71 C 23.38 226.62 21.50 226.51 19.62 226.35 C 18.31 230.73 14.96 235.16 10.01 235.31 C 4.12 235.50 0.23 229.39 0.13 224.04 C -0.29 217.99 2.81 212.56 6.05 207.72 Z" />
<path fill="#8a5d3b" opacity="1.00" d=" M 44.95 263.11 C 46.28 263.10 47.60 263.08 48.93 263.07 C 48.95 278.43 48.94 293.80 48.99 309.16 C 51.90 309.11 54.81 309.05 57.72 308.97 C 58.87 293.66 60.09 278.35 61.27 263.04 C 62.61 263.04 63.94 263.03 65.28 263.04 C 64.14 277.66 63.07 292.29 61.83 306.90 C 61.73 307.83 61.61 308.75 61.50 309.68 C 56.01 309.84 50.19 308.64 44.98 310.87 C 44.96 294.95 44.93 279.03 44.95 263.11 Z" />
<path fill="#8a5d3b" opacity="1.00" d=" M 68.32 263.03 C 69.66 263.03 71.00 263.03 72.34 263.03 C 73.44 278.38 74.73 293.72 75.90 309.06 C 78.82 309.08 81.73 309.08 84.65 309.05 C 84.62 293.73 84.60 278.41 84.71 263.09 C 86.03 263.11 87.35 263.12 88.67 263.11 C 88.65 279.03 88.62 294.95 88.64 310.87 C 83.33 308.63 77.41 309.77 71.83 309.77 C 70.89 294.17 69.41 278.61 68.32 263.03 Z" />
</g>
<g id="#603813ff">
<path fill="#603813" opacity="1.00" d=" M 29.00 52.04 C 39.55 44.83 52.04 39.96 64.93 39.91 C 65.03 40.36 65.24 41.27 65.35 41.72 C 64.44 44.05 61.67 47.34 64.45 49.44 C 68.89 52.26 74.38 50.35 78.85 48.59 C 80.62 49.02 82.39 49.49 84.11 50.09 C 87.05 51.62 89.27 54.36 92.47 55.44 C 94.78 56.02 97.19 55.50 99.52 55.27 C 104.91 62.91 107.32 72.18 107.92 81.42 C 103.50 81.26 98.96 81.58 94.67 80.31 C 88.75 78.24 83.43 74.45 79.57 69.50 C 77.10 66.87 75.73 62.89 72.35 61.30 C 68.97 63.93 66.50 67.54 63.05 70.10 C 56.17 75.34 47.60 78.08 39.04 78.75 C 37.33 79.05 35.40 78.88 33.87 79.80 C 32.30 82.80 31.63 86.17 30.07 89.17 C 27.00 95.06 21.98 99.73 16.31 103.09 C 11.92 93.82 10.53 83.07 13.10 73.08 C 15.30 64.25 21.66 57.11 29.00 52.04 Z" />
<path fill="#603813" opacity="1.00" d=" M 33.80 97.52 C 36.68 95.06 40.09 92.79 44.03 92.84 C 45.52 92.60 46.63 93.51 47.53 94.56 C 42.49 95.11 36.96 95.55 33.58 99.88 C 34.40 100.58 35.24 101.26 36.10 101.90 C 37.10 101.34 38.01 100.66 38.95 100.02 C 37.19 102.86 35.39 106.49 37.24 109.75 C 39.36 114.23 46.09 115.27 49.32 111.40 C 52.54 108.16 50.82 103.29 49.07 99.76 C 51.58 101.99 53.13 105.62 51.84 108.89 C 50.41 114.51 42.42 116.73 38.33 112.62 C 36.20 110.93 35.81 108.09 35.17 105.62 C 32.42 105.67 29.64 105.23 27.58 103.27 C 30.02 104.15 32.48 105.10 35.12 105.11 C 33.29 102.94 30.93 101.30 28.94 99.29 C 30.49 99.98 32.07 100.59 33.70 101.08 C 33.21 99.38 32.70 97.69 32.19 96.00 C 32.59 96.38 33.40 97.14 33.80 97.52 M 33.72 101.93 C 34.35 102.45 34.35 102.45 33.72 101.93 C 33.08 101.40 33.08 101.40 33.72 101.93 Z" />
<path fill="#603813" opacity="1.00" d=" M 107.36 100.11 C 108.85 99.06 110.35 98.01 111.84 96.97 C 115.27 103.87 120.88 109.13 126.23 114.50 C 120.96 116.46 115.54 117.97 109.99 118.88 C 108.74 112.68 108.29 106.36 107.36 100.11 Z" />
<path fill="#603813" opacity="1.00" d=" M 19.59 120.50 C 20.67 120.39 21.76 120.27 22.84 120.16 C 25.75 125.73 28.71 131.27 31.30 137.00 C 25.64 138.78 19.81 140.05 13.86 140.10 C 16.20 133.70 18.70 127.31 19.59 120.50 Z" />
</g>
<g id="#f4d0aeff">
<path fill="#f4d0ae" opacity="1.00" d=" M 36.63 83.22 C 50.03 82.36 63.55 77.25 72.45 66.85 C 76.04 71.67 79.78 76.59 84.97 79.80 C 86.78 81.17 89.75 82.01 89.41 84.85 C 84.56 83.53 77.12 82.48 74.85 88.31 C 79.62 86.96 84.48 84.87 89.47 86.56 C 89.37 87.39 89.16 89.04 89.06 89.87 C 85.82 88.76 81.97 87.79 78.95 90.06 C 74.52 92.88 73.91 99.74 77.76 103.32 C 81.39 106.97 88.11 106.33 90.88 101.95 C 93.03 99.17 92.13 95.55 91.64 92.41 C 94.52 91.73 96.45 89.50 97.37 86.79 C 95.53 88.60 93.65 90.39 91.47 91.79 C 92.39 89.41 93.35 87.04 94.22 84.63 C 96.30 84.95 98.38 85.28 100.47 85.59 C 103.23 94.45 103.72 103.79 104.98 112.94 C 106.19 120.26 103.18 127.85 97.72 132.75 C 89.40 140.45 78.00 143.83 66.96 145.14 C 57.46 145.91 46.85 145.28 39.21 138.90 C 33.90 134.72 31.60 128.15 28.50 122.39 C 25.77 116.49 22.72 110.01 23.45 103.41 C 29.12 97.68 34.98 91.43 36.63 83.22 M 33.80 97.52 C 33.40 97.14 32.59 96.38 32.19 96.00 C 32.70 97.69 33.21 99.38 33.70 101.08 C 32.07 100.59 30.49 99.98 28.94 99.29 C 30.93 101.30 33.29 102.94 35.12 105.11 C 32.48 105.10 30.02 104.15 27.58 103.27 C 29.64 105.23 32.42 105.67 35.17 105.62 C 35.81 108.09 36.20 110.93 38.33 112.62 C 42.42 116.73 50.41 114.51 51.84 108.89 C 53.13 105.62 51.58 101.99 49.07 99.76 C 46.33 97.84 41.24 97.23 38.95 100.02 C 38.01 100.66 37.10 101.34 36.10 101.90 C 35.24 101.26 34.40 100.58 33.58 99.88 C 36.96 95.55 42.49 95.11 47.53 94.56 C 46.63 93.51 45.52 92.60 44.03 92.84 C 40.09 92.79 36.68 95.06 33.80 97.52 M 83.56 121.55 C 81.31 123.66 79.32 126.10 76.60 127.62 C 71.31 130.90 64.51 131.65 58.69 129.38 C 56.82 128.91 54.95 127.61 52.98 128.10 C 51.54 127.99 51.39 130.94 52.68 131.29 C 59.00 134.62 66.67 135.87 73.53 133.47 C 78.71 131.63 83.50 128.28 86.63 123.72 C 88.32 121.68 84.88 119.07 83.56 121.55 Z" />
<path fill="#f4d0ae" opacity="1.00" d=" M 89.62 82.72 C 90.99 83.19 92.37 83.66 93.75 84.13 C 92.86 84.91 92.73 87.39 91.21 86.88 C 90.53 85.56 90.10 84.12 89.62 82.72 Z" />
<path fill="#f4d0ae" opacity="1.00" d=" M 106.17 84.94 C 109.19 87.23 110.65 91.32 108.28 94.63 C 107.24 91.48 106.53 88.23 106.17 84.94 Z" />
<path fill="#f4d0ae" opacity="1.00" d=" M 90.21 88.07 C 91.58 87.54 92.02 88.01 91.53 89.47 C 90.16 90.00 89.72 89.53 90.21 88.07 Z" />
<path fill="#f4d0ae" opacity="1.00" d=" M 82.70 96.06 C 81.98 94.04 82.03 91.97 83.67 90.42 C 85.28 90.61 87.92 90.85 87.82 93.01 C 87.67 94.03 87.52 95.06 87.34 96.08 C 85.79 96.09 84.24 96.08 82.70 96.06 Z" />
<path fill="#f4d0ae" opacity="1.00" d=" M 42.98 99.84 C 44.81 99.67 48.06 99.36 48.05 102.02 C 49.10 105.09 43.93 106.90 42.72 104.07 C 41.74 102.75 42.75 101.22 42.98 99.84 Z" />
<path fill="#f4d0ae" opacity="1.00" d=" M 33.72 101.93 C 33.08 101.40 33.08 101.40 33.72 101.93 Z" />
<path fill="#f4d0ae" opacity="1.00" d=" M 33.72 101.93 C 34.35 102.45 34.35 102.45 33.72 101.93 Z" />
<path fill="#f4d0ae" opacity="1.00" d=" M 19.87 116.50 C 16.41 114.42 15.49 110.11 17.56 106.70 C 18.60 109.89 19.39 113.17 19.87 116.50 Z" />
<path fill="#f4d0ae" opacity="1.00" d=" M 145.19 131.81 C 144.64 129.28 146.47 127.09 147.41 124.89 C 148.83 125.89 150.25 126.90 151.67 127.90 C 152.04 127.47 152.76 126.61 153.12 126.18 C 155.44 126.26 157.77 126.26 160.10 126.18 C 156.82 129.87 153.39 133.43 149.71 136.73 C 148.15 135.15 146.44 133.67 145.19 131.81 Z" />
<path fill="#f4d0ae" opacity="1.00" d=" M 63.03 149.75 C 65.98 149.93 68.94 149.98 71.90 149.99 C 71.14 151.21 70.45 152.47 69.78 153.75 C 69.04 155.17 68.31 156.60 67.56 158.02 C 66.75 156.58 65.94 155.13 65.14 153.69 C 64.44 152.37 63.73 151.06 63.03 149.75 Z" />
<path fill="#f4d0ae" opacity="1.00" d=" M 8.63 210.95 C 11.53 211.48 14.46 211.87 17.36 212.38 C 21.33 214.61 23.80 218.88 23.23 223.49 C 20.45 221.11 18.09 218.31 15.78 215.48 C 15.78 218.96 16.02 222.47 15.38 225.91 C 14.87 228.55 12.73 230.89 10.02 231.30 C 6.37 231.24 4.35 227.32 4.18 224.10 C 3.73 219.27 6.23 214.92 8.63 210.95 Z" />
<path fill="#f4d0ae" opacity="1.00" d=" M 48.93 263.07 C 53.04 263.02 57.16 263.04 61.27 263.04 C 60.09 278.35 58.87 293.66 57.72 308.97 C 54.81 309.05 51.90 309.11 48.99 309.16 C 48.94 293.80 48.95 278.43 48.93 263.07 Z" />
<path fill="#f4d0ae" opacity="1.00" d=" M 72.34 263.03 C 76.46 263.04 80.58 263.02 84.71 263.09 C 84.60 278.41 84.62 293.73 84.65 309.05 C 81.73 309.08 78.82 309.08 75.90 309.06 C 74.73 293.72 73.44 278.38 72.34 263.03 Z" />
</g>
<g id="#3b0f24ff">
<path fill="#3b0f24" opacity="1.00" d=" M 76.77 99.99 C 74.41 94.99 79.09 89.29 84.36 89.45 L 83.67 90.42 C 82.03 91.97 81.98 94.04 82.70 96.06 C 84.24 96.08 85.79 96.09 87.34 96.08 C 87.52 95.06 87.67 94.03 87.82 93.01 C 87.90 92.41 88.06 91.22 88.14 90.63 C 91.40 93.42 92.58 98.77 89.43 102.10 C 86.08 106.31 78.55 105.10 76.77 99.99 Z" />
<path fill="#3b0f24" opacity="1.00" d=" M 38.95 100.02 C 41.24 97.23 46.33 97.84 49.07 99.76 C 50.82 103.29 52.54 108.16 49.32 111.40 C 46.09 115.27 39.36 114.23 37.24 109.75 C 35.39 106.49 37.19 102.86 38.95 100.02 M 42.98 99.84 C 42.75 101.22 41.74 102.75 42.72 104.07 C 43.93 106.90 49.10 105.09 48.05 102.02 C 48.06 99.36 44.81 99.67 42.98 99.84 Z" />
<path fill="#3b0f24" opacity="1.00" d=" M 103.74 151.76 C 117.77 149.80 131.92 143.60 140.55 131.96 C 142.68 136.29 146.61 139.25 150.09 142.42 C 140.29 157.63 123.85 167.93 106.19 171.36 C 105.44 171.47 103.93 171.71 103.18 171.83 C 102.54 165.51 101.59 159.23 100.65 152.95 C 101.65 152.48 102.68 152.08 103.74 151.76 Z" />
<path fill="#3b0f24" opacity="1.00" d=" M 21.05 159.02 C 24.37 154.08 29.06 150.38 33.08 146.09 C 33.74 146.42 35.06 147.08 35.72 147.42 C 35.59 151.07 33.66 154.32 32.90 157.84 C 31.46 163.17 32.01 168.70 32.15 174.13 C 32.34 176.44 30.61 178.20 29.54 180.07 C 26.19 184.96 23.43 190.32 21.80 196.04 C 20.75 200.48 19.33 205.42 21.14 209.84 C 20.02 210.87 18.85 211.90 17.36 212.38 C 14.46 211.87 11.53 211.48 8.63 210.95 C 7.70 209.93 6.84 208.84 6.05 207.72 C 6.15 203.44 5.92 199.16 6.34 194.90 C 7.55 181.82 12.88 169.26 21.05 159.02 Z" />
<path fill="#3b0f24" opacity="1.00" d=" M 65.20 214.32 C 65.86 212.88 66.53 211.45 67.20 210.02 C 67.75 211.44 68.30 212.86 68.84 214.29 C 81.17 217.53 93.89 214.66 105.90 211.47 C 106.99 228.63 102.27 245.66 94.88 261.01 C 94.05 263.70 90.80 262.79 88.67 263.11 C 87.35 263.12 86.03 263.11 84.71 263.09 C 80.58 263.02 76.46 263.04 72.34 263.03 C 71.00 263.03 69.66 263.03 68.32 263.03 C 67.31 263.03 66.29 263.03 65.28 263.04 C 63.94 263.03 62.61 263.04 61.27 263.04 C 57.16 263.04 53.04 263.02 48.93 263.07 C 47.60 263.08 46.28 263.10 44.95 263.11 C 42.86 262.83 39.79 263.76 38.75 261.30 C 31.30 246.11 26.63 229.24 27.49 212.21 C 28.04 212.06 29.15 211.77 29.70 211.62 C 41.12 215.08 53.41 217.29 65.20 214.32 Z" />
<path fill="#3b0f24" opacity="1.00" d=" M 61.50 309.68 C 61.61 308.75 61.73 307.83 61.83 306.90 C 61.70 311.60 62.13 316.35 61.24 321.00 L 32.47 321.00 C 32.63 319.79 31.90 318.10 33.29 317.40 C 36.99 314.89 41.13 313.13 44.98 310.87 C 50.19 308.64 56.01 309.84 61.50 309.68 Z" />
<path fill="#3b0f24" opacity="1.00" d=" M 71.83 309.77 C 77.41 309.77 83.33 308.63 88.64 310.87 C 93.19 313.48 98.05 315.60 102.19 318.85 C 101.61 319.39 100.45 320.46 99.87 321.00 L 72.46 321.00 C 71.75 317.29 71.71 313.52 71.83 309.77 Z" />
</g>
</svg>
