<?xml version="1.0" encoding="utf-8"?>
<!-- Generator: Adobe Illustrator 16.0.0, SVG Export Plug-In . SVG Version: 6.00 Build 0)  -->
<!DOCTYPE svg PUBLIC "-//W3C//DTD SVG 1.1//EN" "http://www.w3.org/Graphics/SVG/1.1/DTD/svg11.dtd">
<svg version="1.1" id="Layer_1" xmlns="http://www.w3.org/2000/svg" xmlns:xlink="http://www.w3.org/1999/xlink" x="0px" y="0px"
	 width="50px" height="50px" viewBox="0 0 50 50" enable-background="new 0 0 50 50" xml:space="preserve">
<g>
	<path opacity="0.5" fill-rule="evenodd" clip-rule="evenodd" fill="#EBF3F5" d="M37.396,39.318c0.624,0.356,2.788,1.652,1.44,2.386
		c-3.967,2.157-7.891,4.581-11.919,6.772c-0.761,0.414-1.875,0.563-3.044,0.467c-1.164-0.097-2.359-0.436-3.298-0.982
		c-2.246-1.306-4.412-2.55-6.656-3.856c-0.874-0.509-1.336-1.109-1.383-1.666c-0.045-0.544,0.304-1.047,1.049-1.387l11.137-6.343
		c1.214-0.555,2.951-0.996,4.188-0.353C31.581,35.746,34.738,37.804,37.396,39.318z"/>
	<g>
		<g>
			<polygon fill-rule="evenodd" clip-rule="evenodd" fill="#DCEAF0" points="18.469,20.252 23.833,17.671 28.171,14.616 
				23.488,3.438 13.788,9.076 15.019,13.1 			"/>
			<polygon fill-rule="evenodd" clip-rule="evenodd" fill="#CFE0E8" points="18.352,42.195 28.054,36.558 28.171,14.616 
				18.469,20.252 18.011,21.92 			"/>
			<polygon fill-rule="evenodd" clip-rule="evenodd" fill="#F5FCFF" points="13.788,9.076 23.488,3.438 21.746,2.486 12.044,8.123 
				12.921,8.863 			"/>
			<polygon fill-rule="evenodd" clip-rule="evenodd" fill="#AEC4CF" points="13.788,9.076 12.044,8.123 16.95,19.891 16.836,41.32 
				18.352,42.195 18.469,20.252 			"/>
			<polygon fill-rule="evenodd" clip-rule="evenodd" fill="#212934" points="18.717,19.42 27.459,14.341 23.239,4.269 14.5,9.35 			
				"/>
			<polygon fill-rule="evenodd" clip-rule="evenodd" fill="#1D64C2" points="18.938,18.681 26.826,14.098 23.02,5.009 15.132,9.593 
							"/>
			<path fill-rule="evenodd" clip-rule="evenodd" fill="#2B7CD3" d="M18.938,18.681l7.888-4.583
				c-5.16-0.296-8.675-1.717-11.694-4.505L18.938,18.681z"/>
		</g>
		<g>
			<g>
				<g>
					<path fill-rule="evenodd" clip-rule="evenodd" fill="#F1B287" d="M35.594,16.419c0.086,0.235,0.062,0.535,0.106,0.865
						c0.165,1.234-0.614,2.904-0.856,4.437c0.023,0.325,0.413,0.619,0.408,1.083c-0.006,0.559,0.041,1.413-0.206,1.647
						c-0.305,0.289-0.971,0.566-1.32,0.139c-0.398-0.485-0.028-1.881-0.049-2.773c-0.036-1.571-0.089-2.879-0.069-4.384
						C33.621,16.358,35.116,15.796,35.594,16.419z"/>
					<g>
						<path fill-rule="evenodd" clip-rule="evenodd" fill="#EAEAF7" d="M37.965,28.839c-0.936-2.238-2.052-4.086-2.859-4.922
							c-0.308-0.317-0.597-0.502-0.86-0.529c-0.292-0.029-0.533,0.12-0.716,0.476c-0.26,0.511-0.396,1.496-0.358,3.068l0.29-0.005
							c-0.036-1.521,0.089-2.461,0.328-2.932c0.12-0.234,0.265-0.334,0.428-0.318c0.19,0.02,0.421,0.174,0.679,0.441
							c0.783,0.81,1.75,2.588,2.673,4.793L37.965,28.839z"/>
						<path fill-rule="evenodd" clip-rule="evenodd" fill="#FAFAFF" d="M37.965,28.839c-0.936-2.238-2.052-4.086-2.859-4.922
							c0.487,0.872,1.568,2.037,2.707,4.931L37.965,28.839z"/>
						<path fill-rule="evenodd" clip-rule="evenodd" fill="#C4C4D8" d="M37.799,28.993c-0.937-2.237-1.987-4.086-2.796-4.922
							c-0.308-0.317-0.494-0.489-0.758-0.516c-0.292-0.029-0.47,0.107-0.651,0.463c-0.26,0.51-0.344,1.368-0.308,2.94l0.175-0.031
							c-0.036-1.521,0.089-2.461,0.328-2.932c0.12-0.234,0.265-0.334,0.428-0.318c0.19,0.02,0.421,0.174,0.679,0.441
							c0.783,0.81,1.75,2.588,2.673,4.793L37.799,28.993z"/>
						<g>
							<path fill-rule="evenodd" clip-rule="evenodd" fill="#00314F" d="M37.411,28.338l0.149-0.087
								c0.135-0.055,0.241-0.042,0.367,0.012c0.389,0.168,0.744,0.824,0.939,1.819c0.123,0.621,0.174,1.479,0.189,2.22
								c-0.473,0.677-2.256,1.713-3.113,1.798C35.938,31.726,36.506,28.967,37.411,28.338z"/>
							<path fill-rule="evenodd" clip-rule="evenodd" fill="#001E30" d="M38.469,28.961c0.339,0.761,0.559,2.012,0.588,3.341
								c-0.378,0.623-2.016,1.666-3.113,1.798C36.969,33.404,38.21,31.837,38.469,28.961z"/>
							<path fill-rule="evenodd" clip-rule="evenodd" fill="#003F66" d="M37.562,28.253l-5.495-3.195c0.002,0,0.003,0,0.004-0.001
								c0.138-0.053,0.27-0.043,0.398,0.032l5.494,3.192C37.842,28.222,37.702,28.21,37.562,28.253z"/>
							<path fill-rule="evenodd" clip-rule="evenodd" fill="#EAEAF7" d="M37.486,28.209l-5.494-3.194
								c0.011-0.006,0.033-0.014,0.053-0.005l5.494,3.193C37.522,28.193,37.503,28.2,37.486,28.209z"/>
							<path fill-rule="evenodd" clip-rule="evenodd" fill="#FAFAFF" d="M37.411,28.337l-5.494-3.192
								c-0.001-0.076,0.057-0.121,0.075-0.129l5.494,3.194C37.444,28.235,37.414,28.286,37.411,28.337z"/>
							<path fill-rule="evenodd" clip-rule="evenodd" fill="#001E30" d="M37.348,28.394c0.046,1.12,0.055,2.262,0.064,3.416
								c0,0.047,0.094,0.04,0.135,0.016c0.042-0.024,0.076-0.081,0.075-0.128c0.015-0.875,0.058-2.777-0.062-3.446
								C37.441,28.317,37.388,28.35,37.348,28.394z"/>
							<path fill-rule="evenodd" clip-rule="evenodd" fill="#C4C4D8" d="M37.486,28.209c-0.042,0.023-0.075,0.081-0.075,0.128
								c0.064,1.143,0.067,2.299,0.062,3.447c0,0.046,0.033,0.065,0.074,0.041c0.042-0.024,0.076-0.081,0.075-0.128
								c0.015-0.875,0.058-2.777-0.062-3.446C37.561,28.203,37.527,28.185,37.486,28.209z"/>
							<path fill-rule="evenodd" clip-rule="evenodd" fill="#00314F" d="M35.943,34.1l-5.495-3.192
								c-0.019-1.153,0.289-4.874,1.47-5.763l5.493,3.193C36.394,29.119,35.973,32.388,35.943,34.1z"/>
							<path fill-rule="evenodd" clip-rule="evenodd" fill="#003F66" d="M31.278,26.042c0.16-0.353,0.347-0.646,0.565-0.837
								l5.493,3.195c-0.796,0.728-1.208,3.003-1.344,4.713C34.821,32.202,31.535,27.935,31.278,26.042z"/>
							<path fill-rule="evenodd" clip-rule="evenodd" fill="#001E30" d="M35.943,34.1l-5.495-3.192
								c-0.014-0.865,0.156-3.177,0.74-4.653c0.068,3.195,1.813,5.367,4.771,7.391C35.951,33.806,35.946,33.958,35.943,34.1z"/>
							<path fill-rule="evenodd" clip-rule="evenodd" fill="#005082" d="M31.246,26.115c0.128-0.298,0.275-0.555,0.443-0.752
								l5.508,3.186c-0.164,0.197-0.31,0.462-0.438,0.773L31.246,26.115z"/>
						</g>
						<ellipse fill-rule="evenodd" clip-rule="evenodd" fill="#001E30" cx="35.447" cy="28.888" rx="0.407" ry="0.469"/>
						
							<ellipse transform="matrix(0.5431 -0.8397 0.8397 0.5431 -8.0677 39.0237)" fill-rule="evenodd" clip-rule="evenodd" fill="#001E30" cx="31.825" cy="26.925" rx="0.469" ry="0.407"/>
						<path fill-rule="evenodd" clip-rule="evenodd" fill="#EAEAF7" d="M35.683,28.928c0.01-2.07-0.269-3.849-0.656-4.761
							c-0.297-0.699-0.801-1.08-1.467-0.506c-0.508,0.438-1.191,1.398-1.896,3.156l0.347,0.186c0.686-1.713,1.264-2.714,1.738-3.123
							c0.504-0.434,0.794-0.108,1.01,0.4c0.373,0.875,0.527,2.53,0.518,4.561L35.683,28.928z"/>
						<path fill-rule="evenodd" clip-rule="evenodd" fill="#C4C4D8" d="M35.394,28.917c0.011-2.069-0.152-3.786-0.541-4.699
							c-0.297-0.698-0.627-1.131-1.293-0.557c-0.508,0.438-1.191,1.398-1.896,3.156l0.167-0.021
							c0.686-1.712,1.393-2.701,1.867-3.109c0.503-0.434,0.845,0.085,1.061,0.593c0.373,0.875,0.527,2.53,0.518,4.561L35.394,28.917
							z"/>
						<path fill-rule="evenodd" clip-rule="evenodd" fill="#FAFAFF" d="M35.683,28.928c0.01-2.07-0.269-3.849-0.656-4.761
							c-0.297-0.699-0.749-0.938-1.416-0.365c-0.508,0.437-1.037,1.412-1.74,3.168l0.141,0.032c0.686-1.713,1.276-2.797,1.751-3.206
							c0.723-0.678,0.977-0.024,1.193,0.484c0.373,0.875,0.602,2.439,0.591,4.471L35.683,28.928z"/>
						<ellipse fill-rule="evenodd" clip-rule="evenodd" fill="#EAEAF7" cx="35.447" cy="28.888" rx="0.341" ry="0.392"/>
						
							<ellipse transform="matrix(0.4611 -0.8873 0.8873 0.4611 -6.7281 42.7398)" fill-rule="evenodd" clip-rule="evenodd" fill="#EAEAF7" cx="31.824" cy="26.909" rx="0.392" ry="0.342"/>
						<path fill-rule="evenodd" clip-rule="evenodd" fill="#C4C4D8" d="M31.84,27.286c-0.067,0.012-0.135,0.003-0.196-0.029
							c-0.166-0.087-0.221-0.313-0.12-0.504c0.095-0.184,0.297-0.271,0.461-0.201c-0.114,0.019-0.225,0.098-0.288,0.22
							c-0.1,0.192-0.045,0.418,0.122,0.505C31.824,27.28,31.832,27.284,31.84,27.286z"/>
						<path fill-rule="evenodd" clip-rule="evenodd" fill="#C4C4D8" d="M35.323,28.523c-0.128,0.057-0.217,0.199-0.217,0.364
							c0,0.217,0.153,0.392,0.341,0.392c0.101,0,0.19-0.05,0.253-0.13c-0.038,0.018-0.08,0.027-0.125,0.027
							c-0.188,0-0.34-0.175-0.34-0.392C35.235,28.685,35.269,28.593,35.323,28.523z"/>
						<ellipse fill-rule="evenodd" clip-rule="evenodd" fill="#FAFAFF" cx="35.557" cy="28.798" rx="0.14" ry="0.16"/>
						<ellipse fill-rule="evenodd" clip-rule="evenodd" fill="#FAFAFF" cx="31.979" cy="26.877" rx="0.14" ry="0.161"/>
					</g>
					<path fill-rule="evenodd" clip-rule="evenodd" fill="#DB9669" d="M34.767,24.766c0.029-0.012,0.079-0.018,0.086-0.054
						c0.058-0.322-0.01-0.851-0.076-1.088c-0.038-0.131-0.279-0.099-0.396-0.105c-0.238-0.012-0.53-0.044-0.759-0.094
						c-0.348-0.074-0.371-0.028-0.39,0.325c-0.015,0.265-0.038,0.683,0.173,0.866C33.596,24.781,34.519,24.865,34.767,24.766z"/>
				</g>
				<path fill-rule="evenodd" clip-rule="evenodd" fill="#6087A8" d="M32.837,11.19c-0.042,0.63,0.944,5.744,1.235,5.861
					c0.685,0.273,1.7,0.088,1.694-0.288c-0.02-1.321,0.024-3.317-0.314-5.208c-0.311-1.73-1.451-2.089-2.433-1.678
					C32.629,10.041,32.876,10.595,32.837,11.19z"/>
			</g>
			<g>
				<g>
					<path fill-rule="evenodd" clip-rule="evenodd" fill="#F6F5F5" d="M32.906,39.226c-0.332-0.033-1.079-0.414-2.218-0.576
						c-0.445-0.063-1.067,0.061-0.868,0.706c0.268,0.863,1.049,1.493,1.815,1.799c0.271,0.107,0.614,0.133,0.939,0.289
						c0.253,0.12,0.309,0.319,0.496,0.452c0.411,0.293,0.884,0.264,1.221,0.154c0.405-0.133,0.553-0.295,0.648-0.761
						c0.089-0.427,0.105-1.199-0.004-1.502C34.783,39.075,33.109,39.007,32.906,39.226z"/>
					<path fill-rule="evenodd" clip-rule="evenodd" fill="#DBD4D4" d="M29.925,38.798c-0.129,0.111-0.188,0.29-0.104,0.558
						c0.268,0.863,1.049,1.493,1.815,1.799c0.271,0.107,0.614,0.133,0.939,0.289c0.253,0.12,0.309,0.319,0.496,0.452
						c0.411,0.293,0.884,0.264,1.221,0.154c0.405-0.133,0.553-0.295,0.648-0.761c0.024-0.113,0.043-0.253,0.055-0.401
						c-0.313,0.234-0.616,0.309-0.904,0.303c-0.504-0.011-0.781-0.288-1.395-0.529c-0.404-0.158-0.877-0.284-1.374-0.489
						C30.563,39.857,29.854,39.422,29.925,38.798z"/>
					<path fill-rule="evenodd" clip-rule="evenodd" fill="#F6F5F5" d="M29.886,38.836c-0.212,0.238-0.074,0.641,0.048,0.894
						c0.334,0.688,1.046,1.209,1.702,1.469c0.271,0.108,0.609,0.169,0.935,0.325c0.254,0.12,0.305,0.288,0.492,0.422
						c0.41,0.292,0.911,0.271,1.248,0.162c0.382-0.124,0.519-0.328,0.614-0.742c-0.098,0.209-0.244,0.334-0.511,0.421
						c-0.337,0.109-0.838,0.13-1.249-0.162c-0.188-0.134-0.239-0.302-0.491-0.422c-0.326-0.155-0.71-0.189-0.981-0.298
						c-0.767-0.305-1.596-0.851-1.862-1.714C29.807,39.118,29.785,38.974,29.886,38.836z"/>
					<path fill-rule="evenodd" clip-rule="evenodd" fill="#F1B287" d="M34.906,39.791c-0.127-0.427,0.004-1.4,0.11-2.536
						l-2.187-0.587c0.166,1.293,0.188,2.11-0.018,2.785C32.958,40.297,34.506,40.765,34.906,39.791z"/>
					<path fill-rule="evenodd" clip-rule="evenodd" fill="#E8A476" d="M34.906,39.791c-0.127-0.427-0.04-1.4,0.066-2.536
						l-0.837-0.188l-0.158,3.267C34.363,40.356,34.737,40.202,34.906,39.791z"/>
					<g>
						<path fill-rule="evenodd" clip-rule="evenodd" fill="#001E30" d="M32.293,39.049c-0.045,0.065-0.087,0.14-0.124,0.223
							c-0.059,0.126-0.107,0.274-0.146,0.438l0.108,0.024c0.037-0.157,0.083-0.297,0.138-0.418c0.04-0.088,0.085-0.165,0.134-0.23
							L32.293,39.049z"/>
						<path fill-rule="evenodd" clip-rule="evenodd" fill="#001E30" d="M32.002,38.955c-0.042,0.063-0.082,0.134-0.119,0.213
							c-0.057,0.127-0.105,0.274-0.144,0.438l0.108,0.025c0.036-0.157,0.083-0.297,0.138-0.417c0.038-0.086,0.081-0.161,0.128-0.226
							C32.078,38.979,32.041,38.967,32.002,38.955z"/>
						<path fill-rule="evenodd" clip-rule="evenodd" fill="#001E30" d="M31.726,38.871c-0.04,0.061-0.077,0.129-0.111,0.204
							c-0.058,0.127-0.106,0.273-0.145,0.439l0.108,0.023c0.036-0.157,0.083-0.297,0.137-0.417c0.037-0.083,0.078-0.154,0.124-0.217
							C31.802,38.894,31.764,38.883,31.726,38.871z"/>
						<path fill-rule="evenodd" clip-rule="evenodd" fill="#001E30" d="M31.464,38.802c-0.04,0.059-0.076,0.127-0.11,0.199
							c-0.058,0.127-0.105,0.274-0.144,0.438l0.107,0.026c0.037-0.158,0.084-0.299,0.138-0.418c0.038-0.082,0.078-0.155,0.123-0.217
							C31.541,38.821,31.503,38.812,31.464,38.802z"/>
						<path fill-rule="evenodd" clip-rule="evenodd" fill="#001E30" d="M31.146,38.729c-0.031,0.05-0.061,0.104-0.087,0.164
							c-0.058,0.127-0.105,0.273-0.144,0.438l0.108,0.024c0.035-0.157,0.082-0.297,0.137-0.417c0.031-0.068,0.064-0.13,0.102-0.186
							C31.225,38.746,31.186,38.738,31.146,38.729z"/>
					</g>
				</g>
				<path fill-rule="evenodd" clip-rule="evenodd" fill="#001E30" d="M35.164,37.881c-0.539,0.838-2.424,0.375-2.607-0.663
					C32.45,36.552,35.489,36.879,35.164,37.881z"/>
				<g>
					<path fill-rule="evenodd" clip-rule="evenodd" fill="#00314F" d="M34.816,37.963c0.074-0.525,0.146-0.042,0.224-0.984
						c0.179-2.161,0.306-4.762-0.015-5.939c-0.153-0.561-0.362-1.053-0.484-2.191c-0.172-1.598,0.216-3.142,0.396-4.738
						c0.011-0.042,0.021-0.085,0.03-0.129l0,0v-0.001c0.09-0.417,0.129-0.882,0.119-1.366c0.007-1.049-0.175-2.446-0.915-3.895
						l-1.359-0.177l0,0c-0.025,0.058-0.051,0.114-0.076,0.167c-0.052,0.106-0.104,0.203-0.156,0.293
						c-0.008,0.016-0.017,0.031-0.024,0.045c-0.018,0.029-0.035,0.058-0.052,0.086c-0.018,0.028-0.035,0.055-0.052,0.082
						c-0.014,0.021-0.027,0.042-0.041,0.063l-0.02,0.03c-0.011,0.015-0.021,0.03-0.031,0.045c-0.02,0.03-0.04,0.06-0.06,0.088
						l-0.031,0.046c-0.038,0.052-0.073,0.103-0.108,0.152l-0.038,0.054c-0.011,0.016-0.022,0.031-0.032,0.047
						c-0.029,0.041-0.057,0.082-0.084,0.123c-0.058,0.087-0.112,0.177-0.165,0.274c-0.012,0.022-0.023,0.046-0.036,0.071l-0.001,0
						c-0.04,0.083-0.079,0.171-0.114,0.267c-0.012,0.031-0.023,0.063-0.034,0.096c-0.005,0.016-0.011,0.034-0.016,0.05
						c-0.009,0.028-0.018,0.057-0.025,0.086c-0.008,0.025-0.014,0.05-0.021,0.076l-0.006,0.027
						c-0.012,0.046-0.022,0.093-0.032,0.143c-0.005,0.023-0.01,0.047-0.015,0.071c-0.003,0.02-0.008,0.041-0.011,0.061
						c-0.004,0.021-0.007,0.042-0.011,0.063c-0.003,0.021-0.007,0.043-0.01,0.065c-0.003,0.021-0.007,0.044-0.009,0.066
						c-0.003,0.022-0.007,0.045-0.009,0.069c-0.247,2.058-0.333,3.707-0.168,6.192c0.115,1.746,0.227,1.718,0.5,2.473
						c0.275,0.756,0.708,1.954,0.776,2.853c0.07,0.941,0.158,3.825,0.173,4.481c-0.009,0.62,0.444,1.096,0.896,1.089
						C34.068,38.489,34.498,38.361,34.816,37.963z"/>
					<path fill-rule="evenodd" clip-rule="evenodd" fill="#001E30" d="M34.944,38.062c0.283-1.997,0.609-5.085,0.081-7.022
						c-0.153-0.561-0.362-1.053-0.484-2.191c-0.172-1.598,0.216-3.142,0.396-4.738c0.022-0.091,0.043-0.183,0.059-0.274
						c0.07-0.379,0.1-0.793,0.091-1.222c0.007-1.049-0.175-2.446-0.915-3.895l-1.359-0.177l0,0
						c-0.025,0.058-0.051,0.114-0.076,0.167c-0.052,0.106-0.104,0.203-0.156,0.293c-0.008,0.016-0.017,0.031-0.024,0.045
						c-0.018,0.029-0.035,0.058-0.052,0.086c-0.018,0.028-0.035,0.055-0.052,0.082c-0.014,0.021-0.027,0.042-0.041,0.063l-0.02,0.03
						c-0.011,0.015-0.021,0.03-0.031,0.045c-0.02,0.03-0.04,0.06-0.06,0.088l-0.031,0.046c-0.038,0.052-0.073,0.103-0.108,0.152
						l-0.038,0.054c-0.011,0.016-0.022,0.031-0.032,0.047c-0.029,0.041-0.057,0.082-0.084,0.123
						c-0.058,0.087-0.112,0.177-0.165,0.274c-0.012,0.022-0.023,0.046-0.036,0.071l-0.001,0c-0.04,0.083-0.079,0.171-0.114,0.267
						c-0.012,0.031-0.023,0.063-0.034,0.096c-0.005,0.016-0.011,0.034-0.016,0.05c-0.009,0.028-0.018,0.057-0.025,0.086
						c-0.008,0.025-0.014,0.05-0.021,0.076l-0.006,0.027c-0.012,0.046-0.022,0.093-0.032,0.143c-0.005,0.023-0.01,0.047-0.015,0.071
						c-0.003,0.02-0.008,0.041-0.011,0.061c-0.004,0.021-0.007,0.042-0.011,0.063c-0.003,0.021-0.007,0.043-0.01,0.065
						c-0.003,0.021-0.007,0.044-0.009,0.066c-0.003,0.022-0.007,0.045-0.009,0.069c-0.188,1.574-0.264,2.851-0.225,4.503
						c0.13,0.135,1.116,0.301,2.057-0.312c0.116,1.746-0.4,3.484-0.126,4.239c0.719,1.977,1.411,1.473,0.667,8.55
						C34.264,38.381,34.627,38.459,34.944,38.062z"/>
					<path fill-rule="evenodd" clip-rule="evenodd" fill="#003F66" d="M33.087,26.086c-0.157,1.079-0.464,2.337-0.392,3.276
						c0.073,0.969,0.907,1.594,1.02,2.57c0.253,2.18-0.047,3.384-0.05,6.09c-0.531-0.179-0.743-0.351-0.823-0.805
						c0.034-1.171,0.181-2.316-0.04-4.537c-0.161-1.624-0.912-2.927-0.892-3.182l0.235-2.942L33.087,26.086z"/>
				</g>
				<path fill-rule="evenodd" clip-rule="evenodd" fill="#005082" d="M35.093,38.771c0.021-0.207,0.055-0.554,0.082-0.943
					c-0.261,0.712-2.309,0.64-2.618-0.609c-0.004,0.24-0.04,0.52-0.049,0.808C32.438,38.969,34.445,39.622,35.093,38.771z"/>
			</g>
			<g>
				<path fill-rule="evenodd" clip-rule="evenodd" fill="#E8A476" d="M29.198,9.951c0.189,0.094,1.15-0.042,1.122,0.043
					c-0.013,0.43-0.141,0.691-0.183,1.281c1.057-0.147,2.443-0.301,2.5-1.111c-0.005-0.065-0.01-0.13-0.012-0.193
					c-0.001-0.007-0.002-0.015-0.003-0.022l0.002,0c-0.011-0.294,0.003-0.562,0.085-0.694c0.225-0.362,0.685-0.766,0.847-1.314
					c0.261-0.877,0.166-1.852-0.651-2.501c-1.493-1.186-3.402-0.342-3.888,1.393c-0.094,0.338,0.173,0.521,0.164,0.812
					c-0.002,0.057-0.077,0.116-0.138,0.242C28.959,8.058,28.966,9.835,29.198,9.951z"/>
				<path fill-rule="evenodd" clip-rule="evenodd" fill="#DB9669" d="M29.208,9.94c0.188,0.094,1.141-0.032,1.112,0.054
					c-0.013,0.43-0.141,0.691-0.183,1.281c0.113-0.016,0.231-0.032,0.351-0.049c0.463-0.654,0.89-1.083,2.135-1.515
					c0.004-0.196,0.027-0.362,0.087-0.458c0.225-0.362,0.685-0.766,0.847-1.314c0.261-0.877,0.166-1.852-0.651-2.501
					c-1.493-1.186-3.402-0.342-3.888,1.393c-0.094,0.338,0.173,0.521,0.164,0.812c-0.002,0.057-0.077,0.116-0.138,0.242
					C28.959,8.058,28.976,9.826,29.208,9.94z"/>
				<path fill-rule="evenodd" clip-rule="evenodd" fill="#E8A476" d="M29.237,9.951c0.101,0.054,0.516,0.019,0.824-0.101
					c0.195-0.075,0.337-0.242,0.367-0.254c0.128-0.052,0.412-0.456-0.029-1.099c-0.429-0.627,2.173,0.978,2.311,0.755
					c0.225-0.362,0.685-0.766,0.847-1.314c0.261-0.877,0.166-1.852-0.651-2.501c-1.493-1.186-3.402-0.342-3.888,1.393
					c-0.094,0.338,0.173,0.521,0.164,0.812c-0.002,0.057-0.077,0.116-0.138,0.242C28.959,8.058,29.009,9.828,29.237,9.951z"/>
				<path fill-rule="evenodd" clip-rule="evenodd" fill="#F1B287" d="M29.193,9.944c0.041,0.024,0.273,0.015,0.39-0.024
					c0.132-0.141,0.269-0.441,0.264-0.59c-0.018-0.571-0.306-1.035-0.305-1.266c0.003-0.489,0.166-0.246-0.021-0.774
					c-0.144-0.405,0.044-0.467,0.127-0.814c-0.206-0.076-0.303-0.235-0.336-0.338c-0.125,0.21-0.225,0.442-0.295,0.693
					c-0.094,0.338,0.173,0.521,0.164,0.812c-0.002,0.057-0.077,0.116-0.138,0.242C28.959,8.058,28.971,9.81,29.193,9.944z"/>
				<path fill-rule="evenodd" clip-rule="evenodd" fill="#DB9669" d="M30.309,8.517c0.534-0.499,1.05,1.088,0.189,1.071
					C30.834,9.232,30.578,8.669,30.309,8.517z"/>
				<path fill-rule="evenodd" clip-rule="evenodd" fill="#F1B287" d="M30.31,8.749c-0.08-0.222-0.012-0.303,0.086-0.278
					c0.106,0.026,0.259,0.18,0.339,0.41c0.127,0.371-0.057,0.84-0.415,0.656c0.309,0.018,0.279-0.353,0.188-0.583
					C30.444,8.798,30.348,8.688,30.31,8.749z"/>
				<path fill-rule="evenodd" clip-rule="evenodd" fill="#DB9669" d="M30.451,8.849c-0.085,0.16-0.115,0.255-0.088,0.311
					c0.02,0.038,0.078,0.082,0.176-0.012C30.542,9.036,30.503,8.933,30.451,8.849z"/>
				<path fill-rule="evenodd" clip-rule="evenodd" fill="#361D07" d="M32.664,9.47c0.248-0.521,0.688-0.844,0.893-1.531
					c0.261-0.877,0.166-1.852-0.651-2.501c-1.173-0.932-2.604-0.61-3.398,0.412c-0.043,0.066,0.406,0.278,0.258,0.607
					c-0.212,0.558-0.208,0.809-0.122,0.931c0.333,0.475,0.338,0.542,0.321,1.266l0.188,0.151c0.078-0.567,0.329-0.522,0.575-0.333
					c0.429,0.331,0.593,1.082,1.304,1.229C32.298,9.756,32.527,9.646,32.664,9.47z"/>
				<path fill-rule="evenodd" clip-rule="evenodd" fill="#361D07" d="M29.971,8.491c-0.058,0.354-0.08,0.578-0.235,0.756
					c-0.059,0.067-0.212,0.09-0.364,0.119c-0.02-0.166-0.042-0.263-0.079-0.391c-0.055-0.187-0.155-0.335-0.305-0.43
					c-0.012,0.045-0.012,0.204,0.015,0.23c0.069,0.069,0.084,0.153,0.117,0.268c0.035,0.119,0.041,0.199,0.042,0.356
					c-0.037,0.003-0.069,0.01-0.096,0.014c-0.014,0.002-0.015-0.101-0.041-0.099c-0.013,0.293-0.018,0.687,0.05,0.712
					c0.085,0.034,0.583-0.068,0.838-0.172c0.268-0.108,0.188-0.167,0.214-0.481c0.021-0.26,0.021-0.554,0.055-0.831L29.971,8.491z"
					/>
				<path fill-rule="evenodd" clip-rule="evenodd" fill="#4F2B0C" d="M29.827,9.108c-0.024,0.05-0.055,0.096-0.092,0.139
					c-0.059,0.067-0.212,0.09-0.364,0.119c-0.02-0.166-0.042-0.263-0.079-0.391c-0.055-0.187-0.155-0.335-0.305-0.43
					c-0.012,0.045-0.012,0.204,0.015,0.23c0.069,0.069,0.084,0.153,0.117,0.268c0.035,0.119,0.041,0.199,0.042,0.356
					c-0.037,0.003-0.069,0.01-0.096,0.014c-0.014,0.002-0.015-0.101-0.041-0.099c-0.013,0.293-0.018,0.687,0.05,0.712
					c0.064,0.025,0.364-0.026,0.618-0.099c0.089-0.203,0.158-0.492,0.154-0.601C29.845,9.253,29.837,9.18,29.827,9.108z"/>
				<path fill-rule="evenodd" clip-rule="evenodd" fill="#54321E" d="M32.44,7.377c-0.008,0.437-0.042,0.598-0.19,0.995
					c-0.038-0.251-0.072-0.507-0.12-0.756c-0.018-0.083-0.035-0.167-0.057-0.249c-0.059,0.373-0.102,0.75-0.147,1.125
					c-0.085-0.398-0.178-0.8-0.245-1.2c-0.149,0.229-0.191,0.706-0.247,1c-0.077-0.372-0.156-0.725-0.182-1.104
					c-0.16,0.163-0.205,0.593-0.249,0.83c-0.069-0.316-0.122-0.596-0.158-0.921c-0.101,0.147-0.131,0.496-0.161,0.679
					c-0.058-0.218-0.153-0.5-0.154-0.719c-0.161,0.281-0.166,0.605-0.196,0.919c-0.063-0.327-0.157-0.698-0.13-1.028
					c-0.07,0.111-0.15,0.438-0.192,0.579c-0.017-0.25-0.039-0.505-0.036-0.756c-0.135,0.149-0.27,0.427-0.292,0.641
					c-0.118-0.251-0.062-0.746,0.089-1.082l0.019-0.04l0.043,0.003c0.254,0.016,0.507,0.032,0.761,0.048
					c0.167,0.011,0.334,0.021,0.502,0.031c0.08,0.005,0.171,0.014,0.252,0.014c0.033-0.001,0.075-0.009,0.108-0.013
					c0.081-0.01,0.163-0.021,0.244-0.033c0.234-0.032,0.47-0.065,0.704-0.099c0.355-0.051,0.692-0.138,1.049-0.189
					c0.495,0.872,0.125,1.721-0.073,2.146c0.018-0.276,0.06-0.57,0.019-0.84c-0.021,0.237-0.156,0.55-0.24,0.782
					c-0.001-0.276,0.01-0.516-0.056-0.789c0.013,0.384-0.052,0.611-0.243,0.947c0.02-0.35,0.056-0.626-0.043-0.988
					c-0.012,0.441-0.094,0.708-0.226,1.112C32.563,8.074,32.547,7.708,32.44,7.377z"/>
				<path fill-rule="evenodd" clip-rule="evenodd" fill="#361D07" d="M33.573,7.373c-0.266-0.193-0.869-0.387-2.006-0.467
					c-0.786-0.056-1.333-0.236-1.811-0.492c-0.719-0.383-0.605-1.176-0.303-1.445c0.587-0.521,2.104-0.467,3.113,0.053
					C33.305,5.401,33.712,6.154,33.573,7.373z"/>
				<path fill-rule="evenodd" clip-rule="evenodd" fill="#241304" d="M33.573,7.373c-0.266-0.193-0.869-0.387-2.006-0.467
					c-0.786-0.056-1.333-0.236-1.811-0.492c-0.719-0.383-0.605-1.176-0.303-1.445c0.057-0.049,0.119-0.094,0.19-0.132
					c0.184,1.367,0.863,0.999,2.211,1.473c-0.197-0.189-0.103-0.153-0.279-0.265c0.429,0.155,0.756,0.128,1.24,0.442
					c-0.152-0.141-0.191-0.226-0.289-0.299c0.212,0.053,0.648,0.187,0.947,0.654l0.039-0.645C33.589,6.598,33.57,6.964,33.573,7.373
					z"/>
				<path fill-rule="evenodd" clip-rule="evenodd" fill="#4F2B0C" d="M29.38,6.079c0.221,0.278,1.173-0.364,2.505-0.12
					c-0.285-0.88-0.45-1.066-0.85-1.324c-0.522-0.336-1.4-0.199-1.676,0.264C29.095,5.342,29.201,5.855,29.38,6.079z"/>
				<path fill-rule="evenodd" clip-rule="evenodd" fill="#361D07" d="M31.247,5.826c-0.407-0.403-1.022-0.33-1.574-0.181
					c0.318-0.303,0.976-0.188,1.293-0.024c-0.428-0.398-0.712-0.382-1.251-0.314c0.396-0.203,0.906-0.144,1.189,0.081
					c-0.386-0.456-0.549-0.421-1.113-0.388c0.394-0.21,0.983-0.136,1.225,0.09c-0.29-0.339-0.517-0.414-1.054-0.414
					c0.462-0.14,0.818-0.126,1.2,0.268c-0.298-0.526-0.932-0.529-1.348-0.365c-0.364,0.144-0.601,0.532-0.61,0.875
					c-0.01,0.317,0.121,0.516,0.212,0.536C29.848,6.086,30.064,5.734,31.247,5.826z"/>
			</g>
			<g>
				<path fill-rule="evenodd" clip-rule="evenodd" fill="#001E30" d="M32.425,39.903c-0.54,0.836-2.434,0.429-2.618-0.609
					C29.701,38.629,32.75,38.899,32.425,39.903z"/>
				<g>
					<path fill-rule="evenodd" clip-rule="evenodd" fill="#F6F5F5" d="M30.157,41.301c-0.332-0.034-1.079-0.413-2.217-0.575
						c-0.447-0.064-1.069,0.061-0.869,0.705c0.268,0.864,1.049,1.494,1.814,1.799c0.272,0.108,0.614,0.134,0.94,0.289
						c0.253,0.12,0.309,0.319,0.496,0.454c0.41,0.291,0.884,0.262,1.221,0.152c0.405-0.132,0.553-0.294,0.648-0.76
						c0.089-0.427,0.106-1.199-0.004-1.502C32.033,41.151,30.36,41.083,30.157,41.301z"/>
					<path fill-rule="evenodd" clip-rule="evenodd" fill="#DBD4D4" d="M27.177,40.873c-0.13,0.112-0.189,0.29-0.105,0.558
						c0.268,0.864,1.049,1.494,1.814,1.799c0.272,0.108,0.614,0.134,0.94,0.288c0.253,0.121,0.309,0.32,0.496,0.455
						c0.411,0.291,0.884,0.263,1.221,0.152c0.405-0.132,0.553-0.294,0.648-0.76c0.024-0.115,0.042-0.254,0.055-0.402
						c-0.313,0.234-0.617,0.309-0.905,0.304c-0.504-0.011-0.78-0.288-1.395-0.529c-0.403-0.158-0.876-0.285-1.373-0.49
						C27.813,41.934,27.104,41.497,27.177,40.873z"/>
					<path fill-rule="evenodd" clip-rule="evenodd" fill="#F6F5F5" d="M27.136,40.912c-0.21,0.237-0.073,0.642,0.049,0.893
						c0.334,0.688,1.045,1.209,1.701,1.47c0.272,0.108,0.609,0.169,0.936,0.324c0.253,0.121,0.305,0.289,0.492,0.423
						c0.41,0.291,0.911,0.271,1.249,0.161c0.381-0.124,0.518-0.328,0.613-0.742c-0.097,0.209-0.244,0.334-0.511,0.422
						c-0.337,0.109-0.839,0.13-1.249-0.163c-0.188-0.134-0.238-0.302-0.491-0.422c-0.326-0.155-0.71-0.189-0.982-0.298
						c-0.767-0.305-1.595-0.85-1.862-1.713C27.058,41.193,27.036,41.05,27.136,40.912z"/>
					<path fill-rule="evenodd" clip-rule="evenodd" fill="#F1B287" d="M32.157,41.866c-0.127-0.427-0.036-1.415,0.071-2.55
						l-2.147-0.573c0.166,1.292,0.188,2.11-0.019,2.785C30.21,42.373,31.757,42.841,32.157,41.866z"/>
					<path fill-rule="evenodd" clip-rule="evenodd" fill="#E8A476" d="M32.157,41.866c-0.127-0.427-0.021-1.415,0.085-2.55
						l-0.855-0.173l-0.158,3.266C31.614,42.432,31.988,42.278,32.157,41.866z"/>
					<g>
						<path fill-rule="evenodd" clip-rule="evenodd" fill="#001E30" d="M29.544,41.125c-0.045,0.064-0.087,0.14-0.125,0.222
							c-0.057,0.127-0.105,0.274-0.145,0.438l0.109,0.025c0.035-0.157,0.082-0.297,0.137-0.418c0.04-0.088,0.085-0.165,0.133-0.231
							L29.544,41.125z"/>
						<path fill-rule="evenodd" clip-rule="evenodd" fill="#001E30" d="M29.254,41.03c-0.043,0.063-0.083,0.135-0.119,0.214
							c-0.058,0.126-0.106,0.273-0.145,0.438l0.108,0.024c0.036-0.157,0.083-0.297,0.137-0.418c0.039-0.085,0.082-0.16,0.129-0.224
							C29.328,41.054,29.291,41.042,29.254,41.03z"/>
						<path fill-rule="evenodd" clip-rule="evenodd" fill="#001E30" d="M28.977,40.947c-0.041,0.061-0.078,0.129-0.111,0.203
							c-0.059,0.127-0.106,0.274-0.145,0.438l0.107,0.025c0.037-0.157,0.083-0.298,0.138-0.417c0.038-0.082,0.079-0.155,0.123-0.218
							C29.053,40.969,29.016,40.958,28.977,40.947z"/>
						<path fill-rule="evenodd" clip-rule="evenodd" fill="#001E30" d="M28.715,40.878c-0.04,0.06-0.077,0.126-0.11,0.2
							c-0.057,0.126-0.106,0.273-0.145,0.438l0.108,0.025c0.037-0.157,0.083-0.298,0.138-0.418c0.037-0.082,0.079-0.154,0.122-0.216
							C28.791,40.897,28.754,40.887,28.715,40.878z"/>
						<path fill-rule="evenodd" clip-rule="evenodd" fill="#001E30" d="M28.398,40.805c-0.031,0.051-0.061,0.104-0.088,0.164
							c-0.058,0.127-0.105,0.274-0.145,0.438l0.108,0.025c0.036-0.156,0.083-0.297,0.137-0.417c0.031-0.069,0.066-0.131,0.103-0.187
							C28.476,40.821,28.437,40.813,28.398,40.805z"/>
					</g>
				</g>
				<g>
					<path fill-rule="evenodd" clip-rule="evenodd" fill="#00314F" d="M31.986,20.004l-2.493-0.295
						c-0.49,1.235-1.104,1.32-1.215,2.805c-0.437,2.977,0.032,5.343,0.576,8.201c0.103,0.548,0.342,1.447,0.425,2.148
						c0.41,3.459,0.743,2.886,0.626,6.565c-0.049,0.798,1.004,1.146,1.239,0.91c0.414,0.04,0.852,0.001,1.092-0.175
						c0.107-1.104,0.342-5.396,0.285-6.402c-0.064-1.156-0.583-2.258-0.749-3.244c-0.174-1.037,0.263-3.895,0.375-5.551
						C34.074,23.275,33.218,21.266,31.986,20.004z"/>
					<path fill-rule="evenodd" clip-rule="evenodd" fill="#001E30" d="M32.236,40.165c0.107-1.104,0.342-5.396,0.285-6.402
						c-0.064-1.156-0.583-2.258-0.749-3.244c-0.174-1.037,0.263-3.895,0.375-5.551c1.927-1.692,1.07-3.702-0.161-4.963l-2.493-0.295
						c-0.49,1.235-1.104,1.32-1.215,2.805c-0.039,0.502-0.063,1.03-0.066,1.575l0.141,0.159c0.271,2.459,0.237,2.392,2.061,2.336
						c0,1.566-0.12,2.87-0.02,4.012c0.103,1.153,0.564,1.666,0.729,2.608c0.387,2.223,0.473,4.37,0.056,7.138
						C31.583,40.378,32.002,40.335,32.236,40.165z"/>
					<path fill-rule="evenodd" clip-rule="evenodd" fill="#003F66" d="M28.454,26.729l1.49,0.393
						c-0.113,2.489-0.173,3.092,0.123,4.32c0.751,3.116,1.021,4.926,0.897,8.263c-0.347-0.057-0.585-0.13-0.844-0.422
						c-0.038-3.425-0.247-4.64-0.96-7.936C28.839,29.856,28.579,28.365,28.454,26.729z"/>
				</g>
				<path fill-rule="evenodd" clip-rule="evenodd" fill="#005082" d="M32.344,40.847c0.021-0.207,0.055-0.555,0.081-0.943
					c-0.515,0.554-2.268,0.434-2.618-0.609c-0.004,0.24-0.039,0.52-0.049,0.809C29.688,41.045,31.695,41.697,32.344,40.847z"/>
			</g>
			<g>
				<path fill-rule="evenodd" clip-rule="evenodd" fill="#729EC1" d="M34.082,9.811c0.751,0.311,1.092,0.923,1.212,1.637
					c0.353,2.089-0.787,3.481-0.87,5.25c-0.096,2.088,1.229,3.407,0.723,6.68c-0.203,0.982-4.1,2.747-5.537,2.584
					c-1.06-0.103-1.107-2.313-1.167-3.125c-0.213,0.772-0.336,1.758-0.344,2.314c-0.206-0.999-0.058-2.042,0.094-3.041
					c0.196-1.292,0.491-1.948,0.315-3.253c-0.262-1.954-1.502-4.473-0.903-6.01c0.128-0.331,0.354-0.49,0.609-0.695
					c0.415-0.333,1.627-0.907,2.473-1.339l-0.003,0.063c0.932-0.54,1.957-1.023,2.714-1.121C33.664,9.722,33.898,9.735,34.082,9.811
					z"/>
				<path fill-rule="evenodd" clip-rule="evenodd" fill="#6087A8" d="M32.002,25.45c-0.927,0.353-1.841,0.574-2.393,0.512
					c-1.06-0.103-1.107-2.313-1.167-3.125c-0.213,0.772-0.336,1.758-0.344,2.314c-0.206-0.999-0.058-2.042,0.094-3.041
					c0.196-1.292,0.491-1.948,0.315-3.253c-0.262-1.954-1.502-4.473-0.903-6.01c0.128-0.331,0.354-0.49,0.609-0.695
					c0.415-0.333,1.627-0.907,2.473-1.339l-0.003,0.063c0.932-0.54,1.957-1.023,2.714-1.121c0.094-0.012,0.182-0.019,0.265-0.018
					c-0.621,1.097-1.156,1.601-3.705,2.586c0.389,1.04,0.048,3.342-0.195,5.546c-0.269,2.423-1.465,6.298-0.079,7.617
					C30.065,25.853,31.183,25.683,32.002,25.45z"/>
				<path fill-rule="evenodd" clip-rule="evenodd" fill="#8FBCE0" d="M33.571,10.587c-0.509,0.749-0.996,1.163-2.196,1.655
					c-1.007,0.412-0.813,0.322-0.79,1.454c0.032,1.562-0.047,2.849-0.187,4.138c-0.224,2.06-0.781,3.822-0.61,6.285
					c0.142,2.03,3.1,0.697,4.214-0.019c0.698-0.448,1.088-1.001,0.933-2.26c-0.324-2.622-0.974-3.267-0.945-4.985
					c0.043-2.661,1.839-4.608,0.632-6.287C34.154,9.918,33.861,10.158,33.571,10.587z"/>
			</g>
			<g>
				<path fill-rule="evenodd" clip-rule="evenodd" fill="#4D708C" d="M29.817,12.95c0.328,1.336-0.389,3.388-1.51,4.777
					l-0.227-0.814C28.972,15.666,29.225,12.195,29.817,12.95z"/>
				<g>
					<g>
						<path fill-rule="evenodd" clip-rule="evenodd" fill="#F1B287" d="M22.44,14.309c-0.792-0.408-1.909-1.25-2.537-1.135
							c-0.542,0.099-0.624,0.815-0.519,1.223c0.085,0.329,0.854,0.702,1.341,0.979c0.43,0.245,0.908,0.003,1.202,0.2
							C22.379,15.323,22.417,14.768,22.44,14.309z"/>
						<path fill-rule="evenodd" clip-rule="evenodd" fill="#DB9669" d="M19.953,13.167c-0.018,0.001-0.034,0.004-0.05,0.007
							c-0.542,0.099-0.624,0.815-0.519,1.223c0.085,0.329,0.854,0.702,1.341,0.979c0.43,0.245,0.908,0.003,1.202,0.2
							c0.187-0.104,0.289-0.271,0.348-0.463c-0.511-0.227-0.993-0.114-1.37-0.26c-0.52-0.203-0.892-0.47-1.005-0.71
							C19.865,14.066,19.913,13.572,19.953,13.167z"/>
						<path fill-rule="evenodd" clip-rule="evenodd" fill="#F1B287" d="M20.129,13.185c-0.418-0.173-1.074-0.483-1.488-0.664
							c-0.29-0.127-0.375,0.365-0.122,0.506c0.247,0.139,0.911,0.482,0.912,0.483C19.711,13.606,20.064,13.542,20.129,13.185z"/>
						<path fill-rule="evenodd" clip-rule="evenodd" fill="#DB9669" d="M18.402,12.731c-0.042,0.128-0.021,0.219,0.118,0.296
							c0.247,0.139,0.911,0.482,0.912,0.483c0.162,0.056,0.349,0.057,0.489-0.021L18.402,12.731z"/>
					</g>
					<path fill-rule="evenodd" clip-rule="evenodd" fill="#F1B287" d="M26.142,18.771c-0.247-0.04-0.498-0.206-0.808-0.327
						c-1.197-0.469-2.313-2.043-3.583-2.991c0.426-0.431,0.607-0.902,0.462-1.25c1.483,0.664,2.648,1.522,4.013,2.302
						C27.159,17.039,26.918,18.656,26.142,18.771z"/>
					<path fill-rule="evenodd" clip-rule="evenodd" fill="#DB9669" d="M26.142,18.771c-0.247-0.04-0.498-0.206-0.808-0.327
						c-1.197-0.469-2.313-2.043-3.583-2.991c0.135-0.137,0.247-0.278,0.33-0.417c0.83,0.261,2.799,2.528,4.626,3.234
						C26.59,18.537,26.395,18.733,26.142,18.771z"/>
				</g>
				<path fill-rule="evenodd" clip-rule="evenodd" fill="#729EC1" d="M27.574,12.818c-0.783,0.831-1.357,2.257-2.118,3.654
					c-0.519,0.954-0.527,1.538-0.247,1.915c0.125,0.168,0.749,0.383,0.902,0.387c0.357,0.008,0.725-0.24,1.324-1.019
					c0.781-1.012,3.034-3.978,2.289-4.91C29.057,12.011,28.228,12.125,27.574,12.818z"/>
				<path fill-rule="evenodd" clip-rule="evenodd" fill="#6087A8" d="M25.528,18.592c0.224,0.1,0.491,0.18,0.583,0.183
					c0.357,0.008,0.725-0.24,1.324-1.019c0.781-1.012,3.034-3.978,2.289-4.91c-0.144-0.18-0.296-0.317-0.451-0.412
					C28.654,13.889,26.528,17.831,25.528,18.592z"/>
				<path fill-rule="evenodd" clip-rule="evenodd" fill="#8FBCE0" d="M28.851,12.444c-1.109-0.193-1.67,0.839-2.298,1.952
					c-0.581,1.217-2.056,3.245-1.154,3.796C26.985,16.209,27.723,14.88,28.851,12.444z"/>
			</g>
		</g>
	</g>
</g>
</svg>
