<?xml version="1.0" encoding="UTF-8"?>
<!DOCTYPE svg PUBLIC "-//W3C//DTD SVG 1.1//EN" "http://www.w3.org/Graphics/SVG/1.1/DTD/svg11.dtd">
<!-- Creator: CorelDRAW X6 -->
<svg xmlns="http://www.w3.org/2000/svg" xml:space="preserve" width="3.10701in" height="4.63124in" version="1.1" style="shape-rendering:geometricPrecision; text-rendering:geometricPrecision; image-rendering:optimizeQuality; fill-rule:evenodd; clip-rule:evenodd"
viewBox="0 0 506 755"
 xmlns:xlink="http://www.w3.org/1999/xlink">
 <defs>
  <style type="text/css">
   <![CDATA[
    .str0 {stroke:black;stroke-width:1.28281}
    .fil7 {fill:#373435}
    .fil8 {fill:#FEFEFE}
    .fil0 {fill:#91D8F8}
    .fil3 {fill:black}
    .fil5 {fill:#663333}
    .fil2 {fill:#999999}
    .fil4 {fill:#D18B60}
    .fil1 {fill:#FFCC99}
    .fil6 {fill:white}
    .fil9 {fill:#F05557}
   ]]>
  </style>
 </defs>
 <rect class="fil0" x="861" y="-341" width="1385" height="1792"/>
 <path class="fil1" d="M163 180c28,0 55,0 83,0 -6,16 -8,32 0,48 -22,28 -56,23 -83,0 10,-14 9,-30 0,-48z"/>
 <path class="fil2" d="M213 730c89,0 161,5 161,12 0,7 -72,12 -161,12 -89,0 -161,-5 -161,-12 0,-7 72,-12 161,-12z"/>
 <path class="fil3" d="M209 441l-79 -1 5 61 56 0 2 -15c14,5 20,4 34,0l1 15 56 0 5 -61 -79 1z"/>
 <path class="fil1" d="M209 240c-13,-1 -19,-6 -28,-21l-72 13 5 77c3,46 40,48 16,133 15,4 46,6 78,6l0 0 1 0 0 0 1 0 0 0c32,0 63,-2 78,-6 -25,-91 12,-87 16,-133l5 -77 -72 -13c-10,15 -16,19 -28,21z"/>
 <path class="fil4" d="M242 217c-22,10 -48,9 -73,0 0,-3 1,-16 0,-19 10,0 23,-2 36,-3 13,0 26,2 36,2 0,3 0,17 0,20z"/>
 <path class="fil1" d="M309 232l-23 74c49,17 142,-4 175,-30 25,-20 -3,-96 -20,-142l-35 8c1,25 -7,44 6,93 4,17 -39,-34 -102,-3z"/>
 <path class="fil1" d="M182 609c9,-35 8,-78 9,-108l-56 0 15 219c0,0 -1,10 23,1 11,-19 23,-78 9,-112z"/>
 <path class="fil5" d="M153 716c-5,-4 -1,-14 -7,-14 -16,8 -25,19 -56,27 -10,-1 -13,9 -10,13 8,11 40,6 50,7 15,-12 28,0 28,0 8,0 17,0 27,0 3,0 7,-27 0,-39 -8,-3 -18,16 -33,6z"/>
 <path class="fil6" d="M189 739c-22,0 -48,-3 -62,5 -2,1 -43,4 -42,-11l-5 0c-2,3 -2,6 0,9 8,11 47,9 50,7 15,-12 28,0 28,0 8,0 17,0 27,0 1,0 3,-4 3,-10z"/>
 <path class="fil6" d="M133 707l9 6c3,2 1,4 -1,2l-9 -6c-1,0 -1,-1 -1,-2l0 0c0,-1 1,-1 1,0z"/>
 <path class="fil6" d="M125 711l9 6c3,2 1,4 -1,2l-9 -6c-1,0 -1,-1 -1,-2l0 0c0,-1 1,-1 1,0z"/>
 <path class="fil6" d="M118 715l9 6c3,2 1,4 -1,2l-9 -6c-1,0 -1,-1 -1,-2l0 0c0,-1 1,-1 1,0z"/>
 <path class="fil6" d="M110 719l9 6c3,2 1,4 -1,2l-9 -6c-1,0 -1,-1 -1,-2l0 0c0,-1 1,-1 1,0z"/>
 <path class="fil1" d="M236 609c-9,-35 -8,-78 -8,-108l56 0 -15 219c0,0 1,10 -23,1 -11,-19 -23,-78 -9,-112z"/>
 <path class="fil5" d="M266 716c5,-4 1,-14 7,-14 16,8 25,19 56,27 10,-1 13,9 10,13 -8,11 -40,6 -50,7 -15,-12 -28,0 -28,0 -8,0 -17,0 -27,0 -3,0 -7,-27 0,-39 8,-3 18,16 33,6z"/>
 <path class="fil6" d="M230 739c22,0 48,-3 62,5 2,1 43,4 42,-11l5 0c2,3 2,6 0,9 -8,11 -47,9 -50,7 -15,-12 -28,0 -28,0 -8,0 -17,0 -27,0 -1,0 -3,-4 -3,-10z"/>
 <path class="fil6" d="M285 707l-9 6c-3,2 -1,4 1,2l9 -6c1,0 1,-1 1,-2l0 0c0,-1 -1,-1 -1,0z"/>
 <path class="fil6" d="M293 711l-9 6c-3,2 -1,4 1,2l9 -6c1,0 1,-1 1,-2l0 0c0,-1 -1,-1 -1,0z"/>
 <path class="fil6" d="M300 715l-9 6c-3,2 -1,4 1,2l9 -6c1,0 1,-1 1,-2l0 0c0,-1 -1,-1 -1,0z"/>
 <path class="fil6" d="M309 719l-9 6c-3,2 -1,4 1,2l9 -6c1,0 1,-1 1,-2l0 0c0,-1 -1,-1 -1,0z"/>
 <path class="fil4" d="M206 345c-32,32 -69,15 -73,11 3,0 41,14 73,-11z"/>
 <path class="fil4" d="M212 345c32,32 69,15 73,11 -3,0 -41,14 -73,-11z"/>
 <path class="fil4" d="M209 441c0,-6 0,-11 1,-19 0,-6 24,-3 32,-8 0,0 -31,4 -31,-4 0,-7 0,-12 0,-20 0,-5 22,-4 31,-8 0,0 -31,3 -31,-2 0,-8 -1,-13 -3,-20 0,2 1,10 0,20 0,4 -29,3 -29,3 5,4 29,2 28,5 0,6 1,15 0,23 -1,5 -27,3 -27,3 4,4 27,2 28,8 1,16 0,22 2,19z"/>
 <path class="fil4" d="M206 249c-32,-32 -69,-15 -73,-11 3,0 41,-14 73,11z"/>
 <path class="fil4" d="M212 249c32,-32 69,-15 73,-11 -3,0 -41,-14 -73,11z"/>
 <circle class="fil4" cx="154" cy="336" r="5"/>
 <circle class="fil4" cx="266" cy="336" r="5"/>
 <path class="fil4" d="M209 327c2,-19 2,-44 1,-67 -3,17 -3,59 -1,67z"/>
 <path class="fil1" d="M269 150l6 -52c-2,-13 35,-28 34,5 0,11 -30,58 -40,48z"/>
 <path class="fil4" d="M281 131c5,-8 7,-13 9,-17 -6,-2 -5,-3 -8,-1 1,-4 6,-5 9,-2 4,-9 1,-10 -6,-15 26,2 1,32 -4,35z"/>
 <path class="fil1" d="M136 150l-6 -52c2,-13 -35,-28 -34,5 0,11 30,58 40,48z"/>
 <path class="fil1" d="M129 48l144 0c15,91 -22,163 -44,167 -10,2 -41,3 -52,-2 -23,-10 -62,-76 -48,-165z"/>
 <path class="fil3 str0" d="M132 124c3,-19 -2,-35 2,-77 5,3 22,14 30,18 0,0 -9,-12 -9,-12 28,7 68,8 90,12 11,2 22,36 22,36 0,0 5,-23 5,-23 3,11 -2,55 -2,55 7,-3 19,-70 21,-82 6,-48 -115,-62 -152,-31 -1,1 -2,3 -3,5 -1,1 -7,-2 -7,-2 0,0 3,5 2,5 -1,0 -11,-2 -11,-2 0,0 7,7 6,8 -9,10 -15,42 6,89z"/>
 <path class="fil7" d="M171 101c8,0 15,4 15,9 0,5 -6,-3 -14,-3 -8,0 -15,8 -15,3 0,-5 7,-9 15,-9z"/>
 <ellipse class="fil6" cx="229" cy="110" rx="19" ry="12"/>
 <circle class="fil3 str0" cx="229" cy="110" r="9"/>
 <circle class="fil6" cx="223" cy="108" r="4"/>
 <path class="fil4" d="M217 149c-4,9 -20,14 -26,0 0,-1 12,11 26,0z"/>
 <path class="fil4" d="M124 131c-5,-8 -7,-13 -9,-17 6,-2 5,-3 8,-1 -1,-4 -6,-5 -9,-2 -4,-9 -1,-10 6,-15 -26,2 -1,32 4,35z"/>
 <path class="fil3 str0" d="M249 92c-28,-10 -34,1 -40,1 4,-13 32,-13 44,-3 -5,3 -6,-1 -5,2z"/>
 <path class="fil4" d="M133 123c4,-10 4,-58 4,-68 4,0 23,15 28,16 -1,-1 -3,-4 -5,-7 -8,-5 -21,-13 -25,-16l0 0c-3,37 0,54 -1,71 0,2 0,4 -1,6 0,0 1,-1 1,-2z"/>
 <path class="fil4" d="M158 58c9,4 62,10 75,13 1,0 2,1 3,1 1,1 13,-5 24,14 1,2 2,5 4,7 -4,-10 -12,-26 -19,-28 -22,-4 -62,-5 -90,-12l4 5z"/>
 <path class="fil1" d="M132 298l-23 -66c-44,14 -99,80 -109,116 -7,28 54,67 91,91l21 -24c-14,-18 -19,-36 -54,-64 -12,-10 46,3 74,-53z"/>
 <path class="fil4" d="M140 426c8,6 10,5 6,17 -4,12 -4,19 -18,20 -13,1 -34,-28 -26,-36 0,0 4,-8 8,-12 2,-2 2,-4 5,-4 5,0 30,1 26,12 0,0 0,2 0,2z"/>
 <path class="fil1" d="M134 423c10,7 13,6 8,20 -5,14 -5,23 -23,24 -16,1 -43,-33 -34,-43 0,0 5,-10 10,-14 2,-2 3,-4 7,-5 7,0 39,1 33,15 0,0 -1,2 -1,3z"/>
 <path class="fil4" d="M124 416c26,26 -3,35 -1,45 1,6 11,-2 15,-22 2,-12 -16,-24 -14,-23z"/>
 <path class="fil1" d="M426 123c-16,6 -44,-19 -47,-6 -8,7 2,20 14,22 11,12 19,8 37,2 17,-7 90,-31 74,-38 -15,-7 -62,15 -78,21z"/>
 <path class="fil3 str0" d="M152 92c29,-4 33,8 39,9 -1,-14 -28,-19 -43,-12 4,3 6,0 4,3z"/>
 <path class="fil8" d="M202 173c16,0 29,-2 29,4 0,6 -13,14 -29,14 -16,0 -30,-8 -30,-14 0,-6 13,-4 30,-4z"/>
 <path class="fil4" d="M304 311c5,-24 23,-19 25,-17 -1,0 -19,-3 -25,17z"/>
 <path class="fil9" d="M420 33c-33,-79 -128,-2 -22,76 18,13 21,14 22,14 1,0 4,-1 22,-14 106,-78 11,-155 -22,-76z"/>
 <path class="fil8" d="M475 15c6,9 13,33 3,42 0,0 1,3 4,1 9,-8 4,-37 -2,-44 -8,-9 -3,4 -4,2z"/>
 <ellipse class="fil8" transform="matrix(0.35339 0.207881 -0.207881 0.35339 474.89 61.9082)" rx="5" ry="8"/>
</svg>
