<?xml version="1.0" encoding="utf-8"?>
<!-- Generator: Adobe Illustrator 16.0.0, SVG Export Plug-In . SVG Version: 6.00 Build 0)  -->
<!DOCTYPE svg PUBLIC "-//W3C//DTD SVG 1.1//EN" "http://www.w3.org/Graphics/SVG/1.1/DTD/svg11.dtd">
<svg version="1.1" id="Layer_1" xmlns="http://www.w3.org/2000/svg" xmlns:xlink="http://www.w3.org/1999/xlink" x="0px" y="0px"
	 width="20px" height="20px" viewBox="0 0 20 20" enable-background="new 0 0 20 20" xml:space="preserve">
<g>
	<path fill-rule="evenodd" clip-rule="evenodd" fill="#2C3E50" d="M11.866,14.814l0.066,0.093l0.26,0.37l0.068,0.074l0.066,0.05
		l-0.612-0.332c-0.051-0.024-0.096-0.054-0.138-0.087L11.866,14.814L11.866,14.814z M6.152,7.134V7.086l0.012-0.102l0.025-0.096
		l0.031-0.085l0.042-0.075L6.31,6.669l0.054-0.042l0.061-0.025l0.457-0.042L6.825,6.584L6.769,6.627L6.721,6.688L6.68,6.763
		L6.648,6.848H6.646L6.152,7.134z"/>
	<path fill-rule="evenodd" clip-rule="evenodd" fill="#415A73" d="M6.646,6.848c0.072-0.232,0.239-0.376,0.409-0.235L6.646,6.848
		L6.646,6.848z M12.578,14.405l0.011,0.015c0.646,0.791-0.044,1.355-0.396,0.857l-0.326-0.463L12.578,14.405z"/>
</g>
<polygon fill-rule="evenodd" clip-rule="evenodd" fill="#2C3E50" points="6.474,18.641 6.113,18.438 6.071,18.392 6.044,18.325 
	6.038,18.246 6.048,18.176 6.522,17.901 6.52,17.91 6.414,18.346 6.399,18.449 6.405,18.528 6.433,18.591 "/>
<path fill-rule="evenodd" clip-rule="evenodd" fill="#415A73" d="M7.498,17.337l-0.179,0.739c-0.206,0.697-1.048,0.863-0.905,0.27
	l0.108-0.444L7.498,17.337z"/>
<polygon fill-rule="evenodd" clip-rule="evenodd" fill="#2C3E50" points="9.964,18.604 9.565,18.375 9.514,18.338 9.472,18.283 
	9.447,18.204 9.439,18.101 9.439,17.652 9.439,17.204 9.439,16.756 9.439,16.307 9.437,15.854 9.437,15.406 9.437,14.953 
	9.437,14.505 9.437,14.057 9.437,13.607 9.437,13.157 9.437,12.707 9.437,12.258 9.437,11.808 9.437,11.359 9.437,10.909 
	9.437,10.46 9.437,10.012 9.437,9.561 9.437,9.113 9.437,8.662 9.437,8.214 9.437,7.763 9.437,7.313 9.437,6.864 9.437,6.416 
	9.437,5.965 9.437,5.515 9.437,5.066 9.437,4.618 9.439,4.167 9.439,3.719 9.447,3.604 9.472,3.497 9.514,3.395 9.565,3.299 
	9.628,3.214 9.696,3.137 9.769,3.073 9.846,3.023 9.922,2.986 9.995,2.965 10.064,2.961 10.126,2.976 10.525,3.206 10.464,3.191 
	10.396,3.196 10.321,3.216 10.245,3.254 10.167,3.304 10.095,3.368 10.026,3.443 9.964,3.53 9.912,3.623 9.873,3.727 9.846,3.835 
	9.837,3.949 9.835,4.398 9.835,4.848 9.835,5.297 9.835,5.745 9.835,6.196 9.835,6.644 9.835,7.095 9.835,7.545 9.835,7.994 
	9.835,8.442 9.835,8.893 9.835,9.343 9.835,9.792 9.835,10.242 9.835,10.691 9.835,11.142 9.835,11.59 9.835,12.038 9.835,12.488 
	9.835,12.938 9.835,13.388 9.835,13.836 9.835,14.287 9.835,14.735 9.835,15.186 9.835,15.634 9.835,16.083 9.835,16.535 
	9.835,16.983 9.835,17.433 9.835,17.885 9.835,18.333 9.846,18.433 9.873,18.512 9.912,18.565 "/>
<path fill-rule="evenodd" clip-rule="evenodd" fill="#415A73" d="M9.837,3.949c-0.002-0.615,0.816-1.086,0.816-0.473V17.86
	c0,0.614-0.818,1.083-0.818,0.473C9.835,13.537,9.835,8.743,9.837,3.949z"/>
<path fill-rule="evenodd" clip-rule="evenodd" fill="#16A085" d="M9.074,12.65"/>
<path fill-rule="evenodd" clip-rule="evenodd" fill="#16A085" d="M9.075,12.65"/>
<path fill-rule="evenodd" clip-rule="evenodd" fill="#16A085" d="M9.075,12.648"/>
<path fill-rule="evenodd" clip-rule="evenodd" fill="#16A085" d="M9.076,12.648"/>
<path fill-rule="evenodd" clip-rule="evenodd" fill="#16A085" d="M9.266,12.539"/>
<path fill-rule="evenodd" clip-rule="evenodd" fill="#16A085" d="M9.267,12.54"/>
<path fill-rule="evenodd" clip-rule="evenodd" fill="#16A085" d="M9.267,12.54"/>
<path fill-rule="evenodd" clip-rule="evenodd" fill="#16A085" d="M9.266,12.539"/>
<path fill-rule="evenodd" clip-rule="evenodd" fill="#16A085" d="M9.076,12.648"/>
<path fill-rule="evenodd" clip-rule="evenodd" fill="#16A085" d="M9.075,12.648"/>
<path fill-rule="evenodd" clip-rule="evenodd" fill="#16A085" d="M9.075,12.65"/>
<path fill-rule="evenodd" clip-rule="evenodd" fill="#16A085" d="M9.074,12.65"/>
<g>
	<polygon fill-rule="evenodd" clip-rule="evenodd" fill="#BAB8B8" points="4.36,18.836 4.053,18.657 3.995,18.615 3.941,18.565 
		3.896,18.508 3.856,18.433 3.827,18.358 3.804,18.267 3.79,18.167 3.783,18.063 3.783,9.264 4.09,9.443 4.09,18.242 4.097,18.35 
		4.109,18.445 4.132,18.532 4.163,18.611 4.203,18.682 4.248,18.744 4.302,18.799 	"/>
	<polygon fill-rule="evenodd" clip-rule="evenodd" fill="#E6E6E6" points="4.09,9.443 3.783,9.264 16.093,2.16 16.4,2.338 	"/>
</g>
<path fill-rule="evenodd" clip-rule="evenodd" fill="#E6E6E6" d="M16.4,2.338c0,4.011,0,4.784,0,8.797
	c0,0.586-0.415,1.302-0.922,1.595C11.99,14.745,8.5,16.76,5.012,18.773c-0.506,0.291-0.922,0.054-0.922-0.531V9.443L16.4,2.338z"/>
<polygon fill-rule="evenodd" clip-rule="evenodd" fill="#C43E3F" points="11.164,9.945 10.942,9.813 13.485,5.403 13.558,5.292 
	13.633,5.206 13.71,5.137 13.784,5.089 13.859,5.062 13.934,5.052 14,5.058 14.059,5.083 14.278,5.216 14.221,5.193 14.158,5.185 
	14.083,5.195 14.009,5.224 13.934,5.27 13.859,5.338 13.78,5.425 13.71,5.538 "/>
<polygon fill-rule="evenodd" clip-rule="evenodd" fill="#C43E3F" points="6.219,15.427 5.997,15.294 5.947,15.256 5.909,15.202 
	5.882,15.136 5.87,15.062 5.872,14.97 5.893,14.868 5.93,14.758 5.99,14.642 6.212,14.774 6.154,14.893 6.115,15.003 6.094,15.103 
	6.092,15.194 6.104,15.269 6.131,15.335 6.171,15.394 "/>
<polygon fill-rule="evenodd" clip-rule="evenodd" fill="#C43E3F" points="6.212,14.774 5.99,14.642 6.106,14.438 6.223,14.239 
	6.335,14.046 6.445,13.854 6.553,13.668 6.659,13.483 6.763,13.303 6.866,13.124 6.968,12.947 7.068,12.775 7.167,12.603 
	7.265,12.431 7.365,12.263 7.46,12.095 7.558,11.926 7.653,11.758 7.751,11.59 7.849,11.422 7.946,11.253 8.043,11.085 
	8.143,10.913 8.241,10.743 8.34,10.568 8.444,10.392 8.546,10.213 8.652,10.033 8.758,9.848 8.864,9.661 8.976,9.472 9.088,9.277 
	9.202,9.078 9.318,8.874 9.542,9.009 9.424,9.212 9.31,9.41 9.198,9.605 9.088,9.796 8.98,9.983 8.874,10.167 8.768,10.348 
	8.667,10.527 8.565,10.701 8.465,10.875 8.365,11.048 8.266,11.218 8.168,11.389 8.071,11.557 7.975,11.725 7.877,11.891 
	7.78,12.059 7.682,12.228 7.587,12.397 7.489,12.565 7.39,12.735 7.29,12.908 7.19,13.083 7.088,13.259 6.987,13.436 6.881,13.618 
	6.775,13.801 6.667,13.987 6.557,14.179 6.445,14.374 6.329,14.571 "/>
<polygon fill-rule="evenodd" clip-rule="evenodd" fill="#C43E3F" points="9.542,9.009 9.318,8.874 9.325,8.876 9.335,8.884 
	9.356,8.897 9.383,8.912 9.418,8.932 9.458,8.955 9.503,8.98 9.553,9.011 9.609,9.042 9.667,9.075 9.731,9.113 9.796,9.15 
	9.864,9.189 9.935,9.229 10.008,9.272 10.078,9.314 10.153,9.356 10.226,9.397 10.298,9.439 10.369,9.48 10.438,9.52 10.504,9.559 
	10.568,9.597 10.63,9.632 10.689,9.665 10.741,9.696 10.789,9.725 10.832,9.748 10.869,9.771 10.9,9.788 10.923,9.802 10.942,9.813 
	11.164,9.945 11.147,9.935 11.123,9.922 11.092,9.904 11.057,9.883 11.013,9.856 10.965,9.829 10.911,9.8 10.853,9.765 
	10.791,9.731 10.728,9.694 10.66,9.655 10.591,9.615 10.521,9.574 10.448,9.532 10.375,9.489 10.303,9.447 10.23,9.406 
	10.157,9.364 10.089,9.325 10.018,9.285 9.954,9.246 9.892,9.21 9.831,9.177 9.777,9.144 9.726,9.115 9.68,9.088 9.64,9.065 
	9.607,9.046 9.58,9.03 9.559,9.017 9.547,9.011 "/>
<path fill-rule="evenodd" clip-rule="evenodd" fill="#E74C3C" d="M11.164,9.945l2.546-4.408c0.373-0.65,0.95-0.318,0.577,0.334
	c-1.267,2.188-1.858,3.216-3.123,5.407l-1.622-0.934c-1.073,1.856-1.68,2.907-2.753,4.767c-0.374,0.647-0.951,0.315-0.577-0.337
	c1.267-2.19,2.066-3.575,3.33-5.766C9.542,9.009,11.029,9.867,11.164,9.945z"/>
<polygon fill-rule="evenodd" clip-rule="evenodd" fill="#2C3E50" points="4.211,9.717 3.414,9.256 3.393,9.239 3.378,9.208 
	3.372,9.161 4.171,9.622 4.178,9.669 4.19,9.7 "/>
<polygon fill-rule="evenodd" clip-rule="evenodd" fill="#2C3E50" points="4.171,9.622 3.372,9.161 3.372,8.199 4.171,8.66 "/>
<polygon fill-rule="evenodd" clip-rule="evenodd" fill="#2C3E50" points="4.171,8.66 3.372,8.199 3.376,8.164 3.385,8.129 
	3.397,8.093 3.414,8.058 3.435,8.027 3.459,7.998 3.486,7.973 3.513,7.954 4.313,8.413 4.284,8.434 4.259,8.459 4.234,8.488 
	4.213,8.521 4.196,8.554 4.184,8.59 4.173,8.625 "/>
<path fill-rule="evenodd" clip-rule="evenodd" fill="#2C3E50" d="M4.313,8.413L3.513,7.954l0.393-0.226
	c3.918-2.263,7.835-4.524,11.755-6.787l0.391-0.227l0.797,0.461l-0.39,0.229l-0.391,0.224l-0.395,0.227l-0.391,0.226
	C11.887,4.041,8.492,6,5.098,7.962L4.705,8.189L4.313,8.413z"/>
<polygon fill-rule="evenodd" clip-rule="evenodd" fill="#3D566E" points="16.849,1.175 16.052,0.714 16.076,0.702 16.105,0.696 
	16.131,0.698 16.151,0.706 16.948,1.167 16.932,1.159 16.907,1.157 16.878,1.163 "/>
<path fill-rule="evenodd" clip-rule="evenodd" fill="#415A73" d="M4.404,9.65L4.4,9.653L4.396,9.655L4.39,9.659L4.385,9.661
	L4.381,9.665c-0.098,0.054-0.21,0.11-0.21-0.043V8.66c0-0.091,0.063-0.199,0.141-0.247C8.492,6,12.672,3.59,16.849,1.175
	c0.079-0.045,0.142-0.008,0.142,0.083V2.22c0,0.154-0.108,0.227-0.208,0.285l-0.004,0.002l-0.004,0.002l-0.009,0.004l-0.004,0.002
	l-0.004,0.004L4.404,9.65z"/>
</svg>
