<?xml version="1.0" encoding="utf-8"?>
<!-- Generator: Adobe Illustrator 16.0.0, SVG Export Plug-In . SVG Version: 6.00 Build 0)  -->
<!DOCTYPE svg PUBLIC "-//W3C//DTD SVG 1.1//EN" "http://www.w3.org/Graphics/SVG/1.1/DTD/svg11.dtd">
<svg version="1.1" id="Layer_1" xmlns="http://www.w3.org/2000/svg" xmlns:xlink="http://www.w3.org/1999/xlink" x="0px" y="0px"
	 width="50px" height="50px" viewBox="0 0 50 50" enable-background="new 0 0 50 50" xml:space="preserve">
<g>
	<g>
		<g>
			<path fill-rule="evenodd" clip-rule="evenodd" fill="#F1B287" d="M21.402,17.93c-0.028,0.002-0.269-0.004-0.296-0.007
				c-0.492-0.062-0.862-0.039-1.205,0.048c-0.26,0.066-0.565,0.119-0.556,0.284c0.005,0.084,0.352,0.785,0.728,1.253
				c0.352,0.439,1.015,0.217,1.455-0.074c0.228-0.15,0.24-0.278,0.441-0.427c0.413-0.134,4.674-1.271,5.137-1.433l-0.56-2.124
				C24.798,15.838,23.082,17.331,21.402,17.93z"/>
			<path fill-rule="evenodd" clip-rule="evenodd" fill="#DB9669" d="M21.604,18.548c-0.029,0.001-0.544,0.233-0.572,0.23
				c-0.417-0.052-1.19-0.06-1.18,0.105c0.005,0.084-0.154,0.157,0.221,0.625c0.352,0.439,1.015,0.217,1.455-0.074
				c0.228-0.15,0.24-0.278,0.441-0.427c1.669-0.542,3.448-0.879,5.114-1.425c0.008-0.003,0.017-0.005,0.022-0.008l-0.271-1.027
				c-0.172,0.091-0.341,0.176-0.509,0.256l-0.96-0.951l-0.405,0.21c-0.082,0.122-0.043,0.932,0.003,1.252
				c-0.03,0.074-0.215,0.148-0.349,0.197l0,0C23.734,17.832,22.788,18.126,21.604,18.548z"/>
			<path fill-rule="evenodd" clip-rule="evenodd" fill="#ACACB5" d="M20.999,20.32c-0.357-0.188-0.297-0.171-0.498-0.524
				c-0.211-0.366-2.282-3.888-2.251-3.907c0.237-0.151,0.243-0.184,0.518-0.038l1.118,0.65c0.354,0.26,0.454,0.352,0.674,0.731
				l2.045,3.527c0.101,0.165,0.093,0.286,0.064,0.315c-0.069,0.043-0.159,0.1-0.227,0.143C22.365,21.265,21.138,20.401,20.999,20.32
				z"/>
			<path fill-rule="evenodd" clip-rule="evenodd" fill="#C4C4CC" d="M20.999,20.32c-0.357-0.188-0.297-0.171-0.498-0.523
				c-0.199-0.345-2.042-3.478-2.235-3.868c0.389,0.037,0.866,0.348,1.492,0.729c0.084,0.051,0.205-0.042,0.067-0.13
				c-0.274-0.174-0.535-0.333-0.838-0.55l0.705,0.41c0.089,0.052,0.204,0.112,0.285,0.172c0.289,0.217,0.38,0.323,0.582,0.672
				l1.672,2.885c-0.084-0.07-1.508-2.43-1.672-2.718c-0.072-0.123-0.151-0.043-0.107,0.035c0.536,0.927,1.072,1.913,1.559,2.88
				l0.076,0.28l0.193,0.558C21.924,20.955,21.11,20.385,20.999,20.32z"/>
			<path fill-rule="evenodd" clip-rule="evenodd" fill="#D8D8E6" d="M19.155,16.364c0.231,0.103,0.467,0.255,0.729,0.405
				c0.085,0.049,0.22-0.07,0.084-0.161L19.505,16.3c0.14,0.072,0.349,0.173,0.484,0.273c0.289,0.216,0.368,0.31,0.57,0.658
				l0.453,0.781c-0.174-0.251-0.17-0.263-0.553-0.844c-0.071-0.123-0.208-0.005-0.163,0.073c0.227,0.415,0.398,0.746,0.652,1.217
				L19.155,16.364z"/>
			<path fill-rule="evenodd" clip-rule="evenodd" fill="#E8E8F7" d="M20.276,17.31l2.06,3.563c0.121,0.235,0.142,0.327,0.101,0.346
				c-0.032,0.015-0.12-0.03-0.29-0.125l-1.219-0.729c-0.357-0.188-0.297-0.172-0.498-0.524l-2.128-3.719
				c-0.152-0.304-0.051-0.285,0.242-0.13l1.129,0.686C19.975,16.894,20.087,16.99,20.276,17.31z"/>
			<path fill-rule="evenodd" clip-rule="evenodd" fill="#4A4E67" d="M19.624,16.753L18.5,16.072
				c-0.027-0.015-0.099-0.053-0.155-0.076c0.014,0.032,0.03,0.067,0.039,0.083l2.127,3.716c0.187,0.328,0.122,0.311,0.461,0.489
				l0.002,0.001l1.22,0.729c0.024,0.013,0.09,0.052,0.147,0.082c-0.026-0.067-0.069-0.15-0.084-0.18l-2.058-3.561
				C20.021,17.057,19.902,16.954,19.624,16.753z"/>
			<path fill-rule="evenodd" clip-rule="evenodd" fill="#333647" d="M20.51,19.795c0.187,0.328,0.122,0.311,0.461,0.489l0.002,0.001
				l1.22,0.729c0.024,0.013,0.09,0.052,0.147,0.082c-0.026-0.067-0.069-0.15-0.084-0.18l-2.058-3.561
				c-0.121-0.203-0.214-0.316-0.349-0.43C19.644,17.769,20.402,19.535,20.51,19.795z"/>
			<path fill-rule="evenodd" clip-rule="evenodd" fill="#DB9669" d="M19.9,18.264c-0.53-0.042-0.543-0.168-0.557,0.012
				c-0.019,0.263,0.441,1.184,0.979,1.496c0.002,0.001,0.359,0.056,0.533,0.031c0.148-0.021,0.131-0.1,0.029-0.299l-0.452-0.886
				C20.285,18.353,20.227,18.289,19.9,18.264z"/>
			<g>
				<path fill-rule="evenodd" clip-rule="evenodd" fill="#5E6382" d="M19.156,16.696c0.08-0.037,0.245,0.039,0.37,0.17
					c0.125,0.132,0.161,0.269,0.081,0.307c-0.079,0.037-0.244-0.04-0.369-0.171C19.113,16.871,19.077,16.733,19.156,16.696z"/>
				<path fill-rule="evenodd" clip-rule="evenodd" fill="#2D2F3B" d="M19.193,16.735c0.066-0.031,0.206,0.033,0.31,0.143
					s0.134,0.225,0.068,0.256c-0.067,0.031-0.206-0.033-0.31-0.143S19.127,16.767,19.193,16.735z"/>
				<path fill-rule="evenodd" clip-rule="evenodd" fill="#111421" d="M19.25,16.795c0.046-0.022,0.143,0.023,0.215,0.099
					c0.072,0.077,0.094,0.157,0.048,0.178c-0.047,0.022-0.143-0.022-0.216-0.1C19.225,16.896,19.204,16.817,19.25,16.795z"/>
				<path fill-rule="evenodd" clip-rule="evenodd" fill="#5100FF" d="M19.307,16.855c0.027-0.012,0.081,0.013,0.123,0.056
					c0.042,0.043,0.053,0.089,0.026,0.101c-0.025,0.012-0.08-0.013-0.122-0.056C19.294,16.913,19.282,16.868,19.307,16.855z"/>
				<path fill-rule="evenodd" clip-rule="evenodd" fill="#00FFFF" d="M19.332,16.881c0.018-0.009,0.055,0.008,0.082,0.038
					c0.028,0.029,0.036,0.06,0.018,0.068c-0.018,0.009-0.055-0.009-0.082-0.037C19.322,16.92,19.314,16.889,19.332,16.881z"/>
				<path fill-rule="evenodd" clip-rule="evenodd" fill="#1E00FF" d="M19.355,16.905c0.009-0.005,0.029,0.005,0.045,0.021
					c0.016,0.016,0.019,0.033,0.01,0.038c-0.01,0.005-0.031-0.005-0.046-0.021C19.35,16.927,19.345,16.91,19.355,16.905z"/>
			</g>
			<g>
				<path fill-rule="evenodd" clip-rule="evenodd" fill="#72768F" d="M19.454,17.293c0.063-0.029,0.192,0.03,0.29,0.134
					c0.097,0.103,0.126,0.21,0.063,0.239c-0.062,0.03-0.192-0.03-0.29-0.133C19.419,17.43,19.391,17.322,19.454,17.293z"/>
				<path fill-rule="evenodd" clip-rule="evenodd" fill="#8A8EA6" d="M19.482,17.323c0.052-0.024,0.162,0.026,0.243,0.112
					c0.081,0.086,0.105,0.176,0.053,0.201c-0.052,0.025-0.16-0.025-0.242-0.112C19.455,17.438,19.431,17.348,19.482,17.323z"/>
			</g>
			<path fill-rule="evenodd" clip-rule="evenodd" fill="#8D8D99" d="M18.279,15.87c0.047-0.019,0.268,0.067,0.486,0.176
				c0.174,0.086,0.364,0.181,0.541,0.29c0.121,0.074,0.168-0.003,0.06-0.076c-0.166-0.11-0.32-0.232-0.465-0.32
				c-0.139-0.085-0.277-0.175-0.379-0.18c-0.041-0.002-0.08,0.01-0.124,0.035C18.36,15.817,18.298,15.855,18.279,15.87z"/>
			<path fill-rule="evenodd" clip-rule="evenodd" fill="#8D8D99" d="M22.465,21.202c0.072-0.073-0.104-0.397-0.324-0.769
				c-0.294-0.496-0.608-1.106-0.68-1.255c-0.063-0.127,0.034-0.168,0.096-0.053l0.668,1.086l0.354,0.581
				c0.042,0.068,0.102,0.221,0.059,0.298L22.465,21.202z"/>
			<path fill-rule="evenodd" clip-rule="evenodd" fill="#003F66" d="M21.405,17.837c0,0-0.002,0-0.004,0
				c0.072,0.521,0.265,0.919,0.482,1.241c0.024-0.023,0.052-0.047,0.085-0.071c0.413-0.134,4.674-1.271,5.137-1.433l-0.56-2.124
				C24.798,15.838,23.084,17.239,21.405,17.837z"/>
			<path fill-rule="evenodd" clip-rule="evenodd" fill="#005082" d="M21.405,17.837c0,0-0.002,0-0.004,0
				c0.02,0.137,0.047,0.266,0.081,0.386c0.774-0.313,1.161-0.437,3.274-1.058c-0.057-0.493-0.066-0.771-0.048-1.007
				C23.593,16.727,22.492,17.45,21.405,17.837z"/>
			<path fill-rule="evenodd" clip-rule="evenodd" fill="#00314F" d="M21.604,18.548c-0.002,0-0.004,0.001-0.009,0.002
				c0.092,0.219,0.205,0.41,0.323,0.579c0.018-0.013,0.037-0.028,0.057-0.043c1.67-0.543,3.441-0.958,5.107-1.504
				c0.008-0.003,0.017-0.005,0.022-0.008l-0.271-1.027c-0.172,0.091-0.341,0.176-0.509,0.256l-0.96-0.951l-0.405,0.21
				c-0.082,0.122-0.043,0.932,0.003,1.252c-0.03,0.074-0.215,0.148-0.349,0.197l0,0C23.734,17.832,22.788,18.126,21.604,18.548z"/>
		</g>
		<g>
			<g>
				<path fill-rule="evenodd" clip-rule="evenodd" fill="#F1B287" d="M29.773,23.884c0.162,1.074-0.425,2.721-0.983,4.45
					c-0.308,0.951-0.712,1.918-0.969,2.757c-0.285,0.938-0.351,1.306-0.486,1.768c-0.547,1.876-2.984,1.351-2.842-1.369
					c0.145-2.747-0.358-5.721,0.481-8.683L29.773,23.884z"/>
				<g>
					<path fill-rule="evenodd" clip-rule="evenodd" fill="#DB9669" d="M31.534,23.83c-0.163,2.459-0.983,6.388-1.464,8.922
						c-0.042,0.227-0.069,0.422-0.079,0.602c-0.063,1.14,0.381,1.441,0.362,2.934c-0.023,1.813-1.165,3.722-1.357,5.694
						c0.021,0.181,0.002,0.364,0.102,0.526c0.657,1.074-0.137,0.838-0.232,2.125c-0.009,0.114-0.703,2.007-0.703,2.007
						s-1.213,0.17-1.299,0.145c-0.087-0.024-0.779-0.374-0.779-0.374c0.072-0.099,0.178-0.347,0.237-0.438
						c0.676-1.046,0.929-2.406,1.097-3.665c0.233-1.724,0.3-5.847,0.076-7.563c-0.31-1.073-0.452-1.193-0.154-2.945
						c0.486-2.854,0.575-4.997,1.334-7.979L31.534,23.83z"/>
					<path fill-rule="evenodd" clip-rule="evenodd" fill="#E8A476" d="M28.552,35.636c-0.211,3.923-0.04,7.685-1.994,11.01
						c-0.219-0.106-0.474-0.235-0.474-0.235c0.072-0.099,0.178-0.347,0.237-0.438c0.676-1.046,0.929-2.406,1.097-3.665
						c0.233-1.724,0.3-5.847,0.076-7.563L28.552,35.636z"/>
					<path fill-rule="evenodd" clip-rule="evenodd" fill="#729EC1" d="M26.522,45.637c-0.156,0.213-0.336,0.527-0.485,0.76
						c-0.191,0.302-0.292,0.505-0.399,0.748c-0.054,0.121-0.059,0.239-0.016,0.317c0.232,0.416,1.738-0.085,2.269-0.441
						c0.343-0.229,0.392-0.548,0.515-0.929c0.187-0.572,0.213-0.636,0.435-1.219l-0.059,1.657l0.179,0.113
						c0.118-0.663,0.25-1.549,0.43-2.104c0.071-0.221,0.176-0.469,0.202-0.594c0.157-0.732-0.16-1.146-0.47-1.4
						c0.064,0.467-0.359,1.156-0.632,2.058c-0.284,0.943-0.959,1.928-1.392,1.962c-0.182,0.014-0.544-0.26-0.74-0.409
						C26.283,46.099,26.412,45.834,26.522,45.637z"/>
					<path fill-rule="evenodd" clip-rule="evenodd" fill="#8FBCE0" d="M26.522,45.637c-0.156,0.213-0.336,0.527-0.485,0.76
						c-0.191,0.302-0.292,0.505-0.399,0.748c-0.054,0.121-0.059,0.239-0.016,0.317c0.048,0.088,0.155,0.136,0.296,0.151
						c0.294-0.398,0.553-0.803,0.781-1.213c-0.127-0.081-0.251-0.177-0.341-0.245C26.283,46.099,26.412,45.834,26.522,45.637z"/>
				</g>
				<path fill-rule="evenodd" clip-rule="evenodd" fill="#F1B287" d="M27.169,32.828c0.544,0.547,0.86,0.691,1.502,2.041
					c0.776,1.639,0.27,4.04,0.966,5.899c0.098,0.151,0.219,0.286,0.379,0.386c1.063,0.674,0.246,0.812,0.728,2.011
					c0.042,0.106,0.25,2.111,0.25,2.111s-1.015,0.687-1.102,0.702c-0.09,0.016-0.864,0.007-0.864,0.007
					c0.021-0.12,0.007-0.39,0.019-0.499c0.146-1.236-0.224-2.568-0.626-3.774c-0.55-1.648-2.164-5.582-3.121-7.024
					c-0.935-1.072-0.898-2.08-0.72-3.326C24.67,30.41,25.937,30.918,27.169,32.828z"/>
				<path fill-rule="evenodd" clip-rule="evenodd" fill="#E8A476" d="M27.169,32.828c0.544,0.547,0.86,0.691,1.502,2.041
					c0.776,1.639,0.27,4.04,0.966,5.899c0.098,0.151,0.219,0.286,0.379,0.386c1.063,0.674,0.246,0.812,0.728,2.011
					c0.042,0.106,0.25,2.111,0.25,2.111s-1.015,0.687-1.102,0.702c-0.09,0.016-0.4-0.178-0.4-0.178
					c0.53-2.256-0.127-3.455-0.445-4.621c-0.55-2.021-1.736-6.117-2.691-7.56c-0.935-1.072-1.288-0.862-1.855-2.079l0.002-0.553
					C24.827,30.425,26.084,31.147,27.169,32.828z"/>
				<path fill-rule="evenodd" clip-rule="evenodd" fill="#729EC1" d="M29.08,45.097c-0.046,0.261-0.07,0.621-0.1,0.897
					c-0.041,0.354-0.043,0.58-0.032,0.845c0.006,0.135,0.053,0.244,0.126,0.295c0.393,0.271,1.524-0.842,1.845-1.396
					c0.206-0.355,0.109-0.663,0.053-1.06c-0.085-0.597-0.088-0.665-0.146-1.286l0.676,1.514l0.21,0.022
					c-0.185-0.646-0.455-1.499-0.538-2.077c-0.034-0.231-0.05-0.501-0.081-0.624c-0.181-0.728-0.647-0.958-1.036-1.05
					c0.262,0.392,0.184,1.197,0.337,2.125c0.16,0.974-0.014,2.155-0.387,2.374c-0.157,0.094-0.603,0.007-0.845-0.04
					C29.069,45.617,29.068,45.324,29.08,45.097z"/>
				<path fill-rule="evenodd" clip-rule="evenodd" fill="#8FBCE0" d="M29.08,45.097c-0.046,0.261-0.07,0.621-0.1,0.897
					c-0.041,0.354-0.043,0.58-0.032,0.845c0.006,0.135,0.053,0.244,0.126,0.295c0.166-0.111,0.33-0.849,0.452-1.436
					c-0.134-0.018-0.267-0.043-0.365-0.062C29.069,45.617,29.068,45.324,29.08,45.097z"/>
				<path fill-rule="evenodd" clip-rule="evenodd" fill="#729EC1" d="M31.856,22.402c0.272,1.041,0.046,2.65-0.341,4.455
					c-0.212,0.992-0.521,2.017-0.691,2.892c-0.258,1.312-0.438,2.541-0.542,3.169c-1.547,1.28-4.93-0.766-5.84-1.867
					c-0.084-2.932-0.299-6.002,0.093-8.865c0.057-0.589,0.041-1.276,0.071-1.88c0.006-0.147,0.018-0.287,0.033-0.42
					c0.016-0.147,0.041-0.293,0.07-0.438c0.151-0.756,0.425-1.3,0.544-1.896c2.001,1.317,3.539,1.9,5.011,1.523
					c0.012,0.086,0.027,0.166,0.05,0.237c0.139,0.446,0.387,0.803,0.64,1.179C31.395,21.145,31.652,21.62,31.856,22.402z"/>
				<path fill-rule="evenodd" clip-rule="evenodd" fill="#6087A8" d="M31.856,22.402c0.272,1.041,0.046,2.65-0.341,4.455
					c-0.212,0.992-0.521,2.017-0.691,2.892c-0.258,1.312-0.438,2.541-0.542,3.169c-0.297,0.245-0.661,0.369-1.063,0.398
					c-0.01-0.068-0.02-0.139-0.026-0.211c-0.348-2.024-0.061-4.041,0.148-5.98c0.134-1.25,0.014-1.308-0.997-1.756
					c-2.017-0.895-3.702-2.465-3.816-2.85l0.022-0.523c0.015-0.201,0.022-0.411,0.027-0.622l0.034-0.784
					c-0.005,0.001-0.011,0.002-0.017,0.003c0.002-0.098,0.007-0.193,0.011-0.287c0.006-0.147,0.018-0.287,0.033-0.42
					c0.016-0.147,0.041-0.293,0.07-0.438c0.151-0.756,0.425-1.3,0.544-1.896c2.001,1.317,3.539,1.9,5.011,1.523
					c0.012,0.086,0.027,0.166,0.05,0.237c0.139,0.446,0.387,0.803,0.64,1.179C31.395,21.145,31.652,21.62,31.856,22.402z"/>
				<path fill-rule="evenodd" clip-rule="evenodd" fill="#8FBCE0" d="M28.503,27.375c-0.245,2.832-0.2,3.892-0.151,5.741
					c-1.107-0.126-3.572-1.53-3.886-2.184c-0.047-0.372-0.07-1.464-0.101-2.611c-0.048-1.807-0.085-3.554,0.107-5.32
					c0.378,0.809,2.053,2.244,3.014,2.782C28.636,26.426,28.554,26.789,28.503,27.375z"/>
			</g>
			<g>
				<path fill-rule="evenodd" clip-rule="evenodd" fill="#241304" d="M30.28,4.498c0.7,1.437,0.864,4.689,0.793,7.067
					c0,0-3.299-2.873-3.363-2.921s-0.122-1.471-0.122-1.471l1.426-1.711L30.28,4.498z"/>
				<path fill-rule="evenodd" clip-rule="evenodd" fill="#361D07" d="M26.024,6.952l0.904-0.724l-0.595-1.679l-0.935-1.144
					C24.183,4.382,25.188,6.926,26.024,6.952z"/>
			</g>
			<g>
				<g>
					<path fill-rule="evenodd" clip-rule="evenodd" fill="#729EC1" d="M29.997,21.793l-0.634-1.976l-0.075-4.102l-2.302-1.212
						c1.207-1.988,3.159-2.649,3.527-4.405c0.124-0.59-0.298-0.66-0.739-0.898c-0.799-0.432-1.951-0.704-2.112-0.548
						c-0.304,0.293-0.454,0.952-0.64,1.415c-0.606,1.527-0.82,2.88-0.925,4.316l-0.707,0.288l0.112,3.375L25,20.32
						C25.241,22.034,30.406,24.544,29.997,21.793z"/>
					<path fill-rule="evenodd" clip-rule="evenodd" fill="#6087A8" d="M26.928,14.6c-0.209,0.356-0.408,6.932-0.576,7.386
						c-0.303-0.17-0.713-0.594-1.014-0.908c0.085-1.143,0.7-5.943,0.778-6.939c0.154,0.044,0.312,0.105,0.466,0.183
						C26.691,14.378,26.813,14.499,26.928,14.6z"/>
					<path fill-rule="evenodd" clip-rule="evenodd" fill="#8FBCE0" d="M29.689,10.478c-0.935,0.44-2.234,0.229-2.633-0.443
						c-0.478,1.228-0.732,2.332-0.887,3.787c0.553,0.025,0.514,0.066,0.965,0.385C27.864,13.051,29.276,11.482,29.689,10.478z"/>
				</g>
				<path fill-rule="evenodd" clip-rule="evenodd" fill="#003F66" d="M30.925,16.473c-0.528,1.047-0.781,2.223-0.6,2.789
					c0.2,0.624,2.101,2.412,1.778,4.754c-0.343,0.926-1.43,1.423-2.753,1.189c-0.414-0.073-3.351-1.542-3.362-1.722
					c-0.13-2.359-0.152-6.734,0.813-8.659c0.78-1.555,1.911-2.326,2.679-3.242c0.353-0.496,1.236-1.695,1.035-1.905
					c-0.165-0.171-0.568-0.396-0.959-0.589c-0.9-0.446-2.055-0.75-2.634,0.531c-0.913,2.34-0.794,4.817-0.953,7.274
					c-0.292,2.132-0.499,4.221-0.435,6.327c-0.627-0.301-1.01-0.714-1.136-0.893c0.039-0.93,0.139-2.18,0.218-2.595
					c0.212-1.13,0.504-1.517,0.647-2.231c0.18-0.899-0.196-1.656-0.097-2.697c0.026-0.278,0.054-0.56,0.082-0.841
					c0.094-0.951,0.199-1.899,0.307-2.73c0.138-1.071,0.266-1.985,0.405-2.415c0.037-0.155,0.119-0.301,0.208-0.428
					c0.284-0.404,0.793-0.61,1.679-0.238c1.229,0.515,3.067,1.301,4.101,2.401c0.475,0.289,0.821,0.632,0.863,1.254
					C32.909,13.205,31.534,15.263,30.925,16.473z"/>
				<path fill-rule="evenodd" clip-rule="evenodd" fill="#005082" d="M28.956,25.063c-0.92-0.388-2.959-1.43-2.967-1.58
					c-0.11-2.004-0.143-5.462,0.442-7.638c0.148,0.204,0.482,0.48,0.973,0.744c0.651,0.349,0.778,0.387,0.863,2.177
					C28.396,21.53,29.118,22.666,28.956,25.063L28.956,25.063z M25.708,15.493c-0.019,0.438,0.01,0.978-0.019,1.417
					c-0.123,0.893-0.631,4.189-0.458,6.147c-0.448-0.273-0.729-0.581-0.833-0.729c0.039-0.93,0.139-2.18,0.218-2.595
					c0.212-1.13,0.504-1.517,0.647-2.231c0.159-0.793-0.115-1.477-0.114-2.342C25.444,15.365,25.541,15.413,25.708,15.493z"/>
				<path fill-rule="evenodd" clip-rule="evenodd" fill="#00314F" d="M30.925,16.473c-0.528,1.047-0.781,2.223-0.6,2.789
					c0.2,0.624,2.101,2.412,1.778,4.754c-0.327,0.882-1.509,1.42-2.387,1.218c0.108-4.211-0.701-3.925-0.777-6.133
					c-0.031-0.894,0.074-1.928-0.2-2.392c-0.111-0.189-0.299-0.226-0.645-0.355c-0.827-0.31-1.145-0.717-1.504-1.027
					c0.646-1.429,1.52-2.277,2.278-3.045l1.646,0.633c0.126-0.63,0.334-1.158,0.628-1.625c0.052-0.103,0.111-0.205,0.185-0.308
					c0.248-0.299-0.225-0.594-0.697-0.985c-0.868-1.045-2.513-1.489-4.208-1.863c0.305-0.213,0.759-0.262,1.426,0.019
					c1.436,0.603,3.243,1.521,4.356,2.502c0.762,0.671,0.767,1.521,0.433,2.32C32.26,14.195,31.379,15.57,30.925,16.473
					L30.925,16.473z M26.059,14.981c-0.31-0.149-0.584-0.271-0.867-0.401c0-0.015,0.001-0.029,0.001-0.043
					c0.018-0.19,0.037-0.382,0.056-0.573l0.02-0.198c0.013-0.075,0.028-0.149,0.044-0.223l0.811,0.55
					C26.098,14.385,26.076,14.68,26.059,14.981z"/>
				<path fill-rule="evenodd" clip-rule="evenodd" fill="#003F66" d="M26.928,14.6c0.321,0.285,0.675,0.697,1.167,0.967
					c0.442,0.242,1.384,0.395,2.052-0.402c0.122-0.359,0.215-0.706,0.231-1.06c0.061-1.357,0.249-2.087,1.02-3.179
					c-0.44-0.241-0.724-0.414-1.002-0.675C29.575,11.943,28.126,12.56,26.928,14.6L26.928,14.6z M27.757,8.771
					c-0.292,0.317-0.572,0.889-0.734,1.296c-0.571,1.437-0.794,2.718-0.903,4.061c-0.643-0.313-1.263-0.664-1.445-1.44
					c-0.146-0.623-0.006-1.214,0.342-1.723c0.605-0.883,0.798-1.362,1.117-2.278l0.973-0.256L27.757,8.771z"/>
				<path fill-rule="evenodd" clip-rule="evenodd" fill="#005082" d="M25.769,9.648c-0.181,0.414-0.394,0.794-0.752,1.317
					c-0.348,0.508-0.487,1.1-0.342,1.723c0.162,0.695,0.676,1.048,1.243,1.34C25.711,13.315,25.825,12.103,25.769,9.648z"/>
				<path fill-rule="evenodd" clip-rule="evenodd" fill="#005082" d="M30.803,10.712l0.269,0.267
					c-0.305,0.433-0.719,1.088-0.747,1.838c-0.029,0.768-0.169,1.48-0.375,1.929c-0.327,0.713-0.902,0.841-1.622,0.646
					c-0.47-0.127-0.897-0.436-1.16-1.013C27.704,13.409,30.298,11.188,30.803,10.712z"/>
				<path fill-rule="evenodd" clip-rule="evenodd" fill="#005D96" d="M27.422,8.296c-0.482,0.143-0.809,0.349-1.178,1.125
					l0.429,0.354l-0.541,0.177c-0.162,1.281-0.18,2.338-0.018,4.181c0.246-1.883,0.479-3.606,1.535-5.189
					C27.726,8.833,27.563,8.255,27.422,8.296z"/>
			</g>
			<g>
				<g>
					<path fill-rule="evenodd" clip-rule="evenodd" fill="#E8A476" d="M30.057,9.066c0.271,1.056-1.494,1.712-2.253,1.377
						c-0.1-0.298-0.567-1.629-1.135-2.437l2.134-1.495l0.445-0.219C29.121,7.529,29.503,8.094,30.057,9.066z"/>
					<path fill-rule="evenodd" clip-rule="evenodd" fill="#F1B287" d="M28.872,10.447c-0.392,0.108-0.795,0.116-1.068-0.004
						c-0.05-0.15-0.194-0.566-0.398-1.044C28.272,9.253,28.804,10.096,28.872,10.447z"/>
					<path fill-rule="evenodd" clip-rule="evenodd" fill="#DB9669" d="M30.054,9.042c0.003,0.011,0.009,0.031,0.009,0.041
						c-0.949-0.639-2.002,0.028-2.794,0.011c-0.032-0.054-0.137-0.3-0.165-0.344c-0.099-0.191-0.385-0.64-0.515-0.885l2.239-1.883
						l0.537-0.33C29.14,7.226,29.501,8.071,30.054,9.042z"/>
				</g>
				<path fill-rule="evenodd" clip-rule="evenodd" fill="#F1B287" d="M26.991,8.952c1.216-0.583,1.553-1.221,1.782-2.505
					c0.525-0.39,0.744-0.706,0.785-1.048c0.099-0.813-0.379-1.678-1.007-2.145c-0.549-0.407-1.173-0.513-1.87-0.347
					c-1.354,0.322-1.821,1.219-1.872,2.397c-0.004,0.08,0.013,0.193,0.04,0.313c0.029,0.135,0.146,0.28,0.207,0.402
					c0.036,0.074,0.031,0.218,0.05,0.273c0.056,0.163-0.025,0.174-0.043,0.238c-0.141,0.496,0.069,0.954,0.341,1.424
					c0.037,0.064,0.074,0.274,0.101,0.338c0.113,0.273,0.13,0.551,0.208,0.711c0.084,0.176,0.444,0.22,0.609,0.202
					C26.518,9.187,26.715,9.085,26.991,8.952z"/>
				<path fill-rule="evenodd" clip-rule="evenodd" fill="#E8A476" d="M26.991,8.952c1.218-0.584,1.553-1.221,1.782-2.505
					c0.525-0.39,0.744-0.706,0.785-1.048c0.099-0.813-0.379-1.678-1.007-2.145c-0.549-0.407-1.173-0.513-1.87-0.347
					c-0.85,0.202-1.492,0.845-1.722,1.481c0.334,0.749,1.515,1.462,1.991,1.646c0.301,0.116,0.438,0.321,0.496,0.536
					c0.121,0.451-0.409,0.512-0.406,0.729c0.003,0.222,0.56,0.22,0.476,0.825c-0.024,0.169-0.421,0.656-0.601,0.862
					C26.941,8.977,26.966,8.964,26.991,8.952z"/>
				<path fill-rule="evenodd" clip-rule="evenodd" fill="#E8A476" d="M24.843,5.584c-0.001,0.07,0.082,0.346,0.167,0.454
					c0.016,0.02,0.097,0.274,0.105,0.318c0.014,0.083-0.058,0.139-0.082,0.199c-0.036,0.087-0.063,0.222-0.025,0.416
					c0.053,0.283,0.142,0.506,0.278,0.767c0.047,0.011,0.107,0.038,0.137,0.052c0.043,0.02,0.069,0.049,0.097,0.054
					c0.036,0.005,0.064-0.016,0.114-0.034c0.077-0.029,0.112,0.031,0.198-0.016c0.076-0.041,0.357-0.128,0.207-0.269
					c-0.159,0.191-0.266,0.04-0.389,0.072c-0.073,0.019-0.213-0.002-0.336-0.037c0.27-0.216,0.323-0.605,0.348-0.917
					c0.021-0.239-0.096-0.507-0.25-0.637C25.236,5.857,24.973,5.651,24.843,5.584z"/>
				<path fill-rule="evenodd" clip-rule="evenodd" fill="#E8A476" d="M26.252,7.974c0.148,0.038,0.24,0.019,0.364-0.019
					c0.025-0.008,0.058-0.038,0.083-0.04c0.074-0.006,0.09,0.065,0.004,0.12c-0.021,0.014-0.09,0.055-0.109,0.086
					c-0.068,0.109-0.177,0.266-0.265,0.375c-0.079,0.1-0.163,0.207-0.29,0.245C25.84,8.8,25.584,8.786,25.558,8.35
					c-0.004-0.077,0.058-0.102,0.19-0.265L26.252,7.974z"/>
				<path fill-rule="evenodd" clip-rule="evenodd" fill="#DB9669" d="M26.252,7.974c0.148,0.038,0.238,0.05,0.359,0.012
					c0.027-0.008,0.047-0.031,0.07-0.026c0.036,0.007,0.023,0.052-0.021,0.066c-0.024,0.008-0.056,0.036-0.075,0.068
					c-0.068,0.109-0.158,0.233-0.245,0.343c-0.079,0.101-0.163,0.208-0.292,0.245c-0.197,0.059-0.469-0.02-0.49-0.331
					c-0.005-0.077,0.058-0.102,0.19-0.265L26.252,7.974z"/>
				<path fill-rule="evenodd" clip-rule="evenodd" fill="#5E3920" d="M25.633,8.325l0.284,0.227l0.412-0.146L26.54,8.07
					l-0.396,0.037l-0.231-0.084l-0.239,0.022h-0.131C25.541,8.123,25.595,8.254,25.633,8.325z"/>
				<path fill-rule="evenodd" clip-rule="evenodd" fill="#EBD3C3" d="M26.166,8.249c0.01-0.013,0.023-0.061,0.031-0.056
					c0.01,0.006,0.02,0.007,0.041,0.025c0.011-0.002,0.038-0.009,0.068-0.019c0.007-0.002,0.015-0.03,0.022-0.033
					c0.008-0.003,0.017,0.019,0.024,0.016c0.041-0.016,0.141-0.089,0.176-0.107l0.019-0.019l-0.511,0.006l-0.166-0.016
					c-0.087,0.038-0.41-0.181-0.361-0.098c0.016,0.051,0.056,0.22,0.081,0.244C25.659,8.259,26.139,8.297,26.166,8.249z"/>
				<path fill-rule="evenodd" clip-rule="evenodd" fill="#CFB5A3" d="M26.495,8.097c0.014-0.009,0.025-0.017,0.034-0.021
					l0.019-0.019l-0.511,0.006l-0.166-0.016c-0.087,0.038-0.41-0.181-0.361-0.098c0.006,0.021,0.017,0.061,0.028,0.102
					c0.006-0.005,0.013-0.008,0.025-0.007c0.038,0.002,0.096,0.053,0.169,0.063c0.042,0.006,0.084,0.002,0.117-0.004
					c0.124-0.02,0.2,0.042,0.329,0.038l0.008,0.049c0.008-0.013,0.006-0.029,0.014-0.037c0.033-0.029,0.12-0.022,0.128,0.005
					C26.383,8.134,26.438,8.116,26.495,8.097z"/>
				<path fill-rule="evenodd" clip-rule="evenodd" fill="#E89471" d="M25.805,8.659C25.929,8.7,26.01,8.667,26.09,8.638
					c0.082-0.029,0.217-0.178,0.27-0.248c0.063-0.084,0.176-0.237,0.213-0.296c0.015-0.022,0.014-0.036,0.009-0.038
					c-0.009-0.005-0.026-0.003-0.044,0.012c-0.225,0.188-0.234,0.325-0.535,0.358c-0.082,0.009-0.144,0-0.192-0.008
					c-0.052-0.01-0.102-0.052-0.143-0.082c-0.045-0.033-0.041-0.017-0.065-0.073c-0.005-0.015-0.013-0.03-0.018-0.043
					C25.526,8.31,25.557,8.577,25.805,8.659z"/>
				<path fill-rule="evenodd" clip-rule="evenodd" fill="#DE8660" d="M25.805,8.659C25.929,8.7,26.01,8.667,26.09,8.638
					c0.082-0.029,0.217-0.178,0.27-0.248c0.063-0.084,0.176-0.237,0.213-0.296c0.015-0.022,0.014-0.036,0.009-0.038
					c-0.009-0.005-0.026-0.003-0.044,0.012c-0.138,0.114-0.194,0.21-0.286,0.275h0.001c0.009-0.003,0.101-0.079,0.126-0.056
					c0.005,0.005,0.008,0.013-0.021,0.047c-0.035,0.043-0.094,0.1-0.113,0.12c-0.087,0.091-0.207,0.19-0.366,0.173
					c-0.119-0.014-0.235-0.067-0.299-0.196c-0.005-0.011-0.009-0.022-0.013-0.035C25.588,8.5,25.66,8.611,25.805,8.659L25.805,8.659
					z M25.65,8.325l-0.003,0c-0.054-0.023-0.054-0.036-0.088,0.004c0-0.045,0.01-0.084,0.025-0.109
					c0.005,0.013,0.013,0.028,0.018,0.043C25.622,8.312,25.623,8.307,25.65,8.325z"/>
				<path fill-rule="evenodd" clip-rule="evenodd" fill="#EDA288" d="M26.23,8.393c-0.069,0.018-0.226,0.071-0.381,0.049
					c-0.138-0.02-0.202-0.122-0.238-0.115c-0.07,0.013,0.011,0.181,0.153,0.238C25.942,8.636,26.154,8.55,26.23,8.393z"/>
				<path fill-rule="evenodd" clip-rule="evenodd" fill="#E8A476" d="M26.911,7.971c-0.072-0.231-0.161-0.288-0.409-0.222
					C26.704,7.736,26.811,7.807,26.911,7.971z"/>
				<path fill-rule="evenodd" clip-rule="evenodd" fill="#E89471" d="M26.043,7.907c0.162,0.06,0.36,0.126,0.49,0.107
					c0.077-0.011,0.091,0.016,0.021,0.045c-0.209,0.089-0.384,0.056-0.607-0.004c-0.027,0-0.053-0.004-0.081-0.002
					c-0.053,0.003-0.105,0.011-0.154,0.003c-0.043-0.008-0.083-0.025-0.134-0.051c-0.03-0.015-0.043,0-0.042,0.029
					c0,0.003-0.057-0.081-0.07-0.12c-0.015-0.046,0.015-0.077,0.063-0.079c0.054-0.002,0.122,0.049,0.174,0.056
					c0.042,0.005,0.081-0.004,0.131-0.021C25.905,7.85,25.974,7.881,26.043,7.907z"/>
				<path fill-rule="evenodd" clip-rule="evenodd" fill="#DE8660" d="M26.059,8.038c0.127,0.046,0.275,0.081,0.495,0.022
					c-0.209,0.089-0.384,0.056-0.607-0.004c-0.027,0-0.053-0.004-0.081-0.002c-0.053,0.003-0.105,0.011-0.154,0.003
					c-0.043-0.008-0.083-0.025-0.134-0.051c-0.03-0.015-0.043,0-0.042,0.029C25.516,8,25.5,7.949,25.549,7.954
					c0.054,0.004,0.122,0.049,0.176,0.057c0.041,0.005,0.08-0.005,0.13-0.021C25.926,7.967,25.992,8.012,26.059,8.038z"/>
				<path fill-rule="evenodd" clip-rule="evenodd" fill="#EDA288" d="M26.043,7.907c0.162,0.06,0.36,0.126,0.49,0.107
					c0.019-0.002,0.032-0.003,0.043-0.002c-0.118,0.059-0.444-0.004-0.582-0.081c-0.037-0.021-0.102-0.032-0.144-0.024
					c-0.048,0.009-0.085,0.04-0.148,0.03c-0.042-0.007-0.062-0.02-0.1-0.045c-0.032-0.021-0.096-0.046-0.141,0
					c0.001-0.032,0.027-0.052,0.067-0.054c0.054-0.002,0.122,0.049,0.174,0.056c0.042,0.005,0.081-0.004,0.131-0.021
					C25.905,7.85,25.974,7.881,26.043,7.907L26.043,7.907z M26.585,8.013c0.001,0.01-0.004,0.023-0.015,0.039
					C26.604,8.033,26.607,8.018,26.585,8.013z"/>
				<g>
					<path fill-rule="evenodd" clip-rule="evenodd" fill="#DB9669" d="M25.589,6.488l0.014-0.068l0.014-0.137
						c-0.042-0.095-0.14-0.336-0.184-0.407c-0.149-0.235-0.283-0.256-0.609-0.403c0.002,0.026,0.009,0.08,0.02,0.116
						C25.145,5.847,25.343,5.777,25.589,6.488z"/>
					<g>
						<path fill-rule="evenodd" clip-rule="evenodd" fill="#DED5D5" d="M25.092,6.276c0.025,0.008,0.127,0.065,0.196,0.084
							c0.108,0.031,0.207,0.021,0.275-0.002c0.011-0.004,0.034-0.013,0.039-0.003c0.004,0.009,0,0.021-0.015,0.029
							c-0.003-0.001-0.013,0.005-0.031,0.015c-0.048,0.026-0.089,0.048-0.131,0.057c-0.124,0.023-0.257-0.045-0.316-0.134
							C25.104,6.314,25.087,6.275,25.092,6.276z"/>
						<path fill-rule="evenodd" clip-rule="evenodd" fill="#062E4A" d="M25.467,6.378c-0.01,0.049-0.041,0.074-0.075,0.083
							c-0.054,0.014-0.163-0.013-0.206-0.044c-0.057-0.041-0.089-0.125-0.082-0.142C25.216,6.349,25.303,6.375,25.467,6.378z"/>
						<path fill-rule="evenodd" clip-rule="evenodd" fill="#DED5D5" d="M25.168,6.35c0.076,0.041,0.16,0.053,0.24,0.05
							c-0.042,0.013-0.079,0.021-0.109,0.016C25.264,6.409,25.196,6.381,25.168,6.35z"/>
					</g>
					<g>
						<path fill-rule="evenodd" clip-rule="evenodd" fill="#C48C69" d="M25.016,6.021c0,0.117,0.049,0.233,0.089,0.277
							c0.06,0.065,0.347,0.112,0.458,0.058c-0.142,0.005-0.211-0.008-0.297-0.049c-0.101-0.05-0.151-0.112-0.159-0.139
							c-0.015-0.064,0.008-0.085,0.157-0.042C25.191,6.093,25.072,6.048,25.016,6.021z"/>
						<path fill-rule="evenodd" clip-rule="evenodd" fill="#996C50" d="M25.013,6.021c0.005,0.113,0.052,0.233,0.092,0.277
							c0.039,0.042,0.179,0.071,0.298,0.076c-0.102-0.029-0.28-0.076-0.332-0.206c-0.019-0.049-0.026-0.104,0.089-0.075
							C25.169,6.095,25.041,6.056,25.013,6.021z"/>
						<path fill-rule="evenodd" clip-rule="evenodd" fill="#F1B287" d="M25.261,6.289c0.095,0.048,0.212,0.052,0.3,0.052
							c-0.064-0.07-0.186-0.164-0.274-0.188C25.092,6.102,25.162,6.239,25.261,6.289z"/>
					</g>
					<g>
						<g>
							<path fill-rule="evenodd" clip-rule="evenodd" d="M25.099,6.303c0.055,0.128,0.183,0.197,0.326,0.167
								c0.045-0.009,0.091-0.032,0.138-0.066c0.034-0.012,0.038-0.039-0.008-0.012c-0.048,0.026-0.09,0.049-0.131,0.057
								C25.294,6.475,25.157,6.399,25.099,6.303z"/>
							<path fill-rule="evenodd" clip-rule="evenodd" fill="#785A46" d="M25.044,6.18c0.011,0.054,0.035,0.09,0.06,0.118
								c0.091,0.102,0.378,0.119,0.488,0.048C25.409,6.389,25.188,6.383,25.044,6.18z"/>
							<path fill-rule="evenodd" clip-rule="evenodd" d="M25.042,6.177c0.012,0.054,0.037,0.093,0.062,0.121
								c0.091,0.102,0.378,0.119,0.488,0.048c-0.085,0.041-0.325,0.047-0.445-0.035C25.104,6.28,25.065,6.236,25.042,6.177z"/>
						</g>
						<path fill-rule="evenodd" clip-rule="evenodd" d="M25.052,6.211c-0.09-0.02-0.161-0.048-0.205-0.111
							c0.039,0.081,0.081,0.125,0.237,0.149C25.081,6.246,25.053,6.211,25.052,6.211z"/>
						<path fill-rule="evenodd" clip-rule="evenodd" d="M25.074,6.251c-0.068,0.011-0.132,0.006-0.188-0.012
							c0.059,0.03,0.112,0.044,0.204,0.023C25.087,6.261,25.074,6.25,25.074,6.251z"/>
						<path fill-rule="evenodd" clip-rule="evenodd" d="M25.089,6.271c-0.066,0.026-0.147,0.036-0.202,0.019
							c0.062,0.029,0.127,0.038,0.227,0.002L25.089,6.271z"/>
						<path fill-rule="evenodd" clip-rule="evenodd" d="M25.135,6.312c-0.05,0.036-0.112,0.059-0.161,0.061
							c0.06,0.007,0.117-0.001,0.188-0.047L25.135,6.312z"/>
						<path fill-rule="evenodd" clip-rule="evenodd" d="M25.115,6.3c-0.049,0.025-0.097,0.042-0.142,0.043
							c0.056,0.006,0.101-0.005,0.154-0.036L25.115,6.3z"/>
						<path fill-rule="evenodd" clip-rule="evenodd" d="M25.196,6.343c-0.043,0.039-0.096,0.069-0.142,0.078
							c0.057-0.001,0.11-0.018,0.167-0.067C25.213,6.351,25.205,6.347,25.196,6.343z"/>
						<path fill-rule="evenodd" clip-rule="evenodd" d="M25.172,6.332c-0.04,0.031-0.082,0.054-0.124,0.063
							c0.052-0.004,0.093-0.021,0.137-0.058L25.172,6.332z"/>
						<path fill-rule="evenodd" clip-rule="evenodd" d="M25.246,6.364c-0.032,0.049-0.075,0.092-0.117,0.112
							c0.054-0.016,0.104-0.039,0.138-0.105C25.257,6.369,25.254,6.365,25.246,6.364z"/>
						<path fill-rule="evenodd" clip-rule="evenodd" d="M25.227,6.356c-0.031,0.036-0.064,0.065-0.1,0.083
							c0.046-0.015,0.08-0.038,0.112-0.078C25.236,6.36,25.231,6.358,25.227,6.356z"/>
						<path fill-rule="evenodd" clip-rule="evenodd" d="M25.266,6.373c-0.009,0.057-0.023,0.092-0.042,0.126
							c0.046-0.032,0.055-0.075,0.064-0.119L25.266,6.373z"/>
						<path fill-rule="evenodd" clip-rule="evenodd" d="M25.317,6.383c-0.003,0.056,0.001,0.11,0.028,0.137
							c-0.013-0.045-0.013-0.095-0.002-0.136C25.333,6.384,25.325,6.384,25.317,6.383z"/>
						<path fill-rule="evenodd" clip-rule="evenodd" d="M25.294,6.379C25.285,6.43,25.291,6.475,25.3,6.505
							c0-0.042-0.001-0.083,0.009-0.122C25.305,6.382,25.298,6.379,25.294,6.379z"/>
						<path fill-rule="evenodd" clip-rule="evenodd" d="M25.366,6.384c0.002,0.053,0.012,0.103,0.04,0.125
							c-0.016-0.042-0.021-0.086-0.016-0.125C25.382,6.384,25.375,6.384,25.366,6.384z"/>
						<path fill-rule="evenodd" clip-rule="evenodd" d="M25.349,6.384c-0.005,0.047,0.001,0.093,0.024,0.117
							c-0.014-0.035-0.018-0.079-0.011-0.117C25.362,6.384,25.353,6.384,25.349,6.384z"/>
						<g>
							<path fill-rule="evenodd" clip-rule="evenodd" d="M25.418,6.383c0.01,0.052,0.026,0.101,0.058,0.119
								c-0.022-0.037-0.033-0.082-0.034-0.122C25.434,6.381,25.426,6.381,25.418,6.383z"/>
							<path fill-rule="evenodd" clip-rule="evenodd" d="M25.401,6.384c0.001,0.048,0.014,0.094,0.041,0.115
								c-0.019-0.032-0.028-0.077-0.026-0.115L25.401,6.384z"/>
						</g>
						<g>
							<path fill-rule="evenodd" clip-rule="evenodd" d="M25.47,6.376c0.014,0.047,0.036,0.089,0.066,0.104
								c-0.024-0.032-0.037-0.071-0.043-0.107C25.485,6.374,25.478,6.375,25.47,6.376z"/>
							<path fill-rule="evenodd" clip-rule="evenodd" d="M25.452,6.379c0.006,0.044,0.023,0.084,0.05,0.102
								c-0.02-0.028-0.033-0.067-0.036-0.104L25.452,6.379z"/>
						</g>
						<g>
							<path fill-rule="evenodd" clip-rule="evenodd" d="M25.522,6.367c0.018,0.045,0.041,0.085,0.071,0.098
								c-0.024-0.03-0.041-0.067-0.048-0.102C25.538,6.364,25.53,6.366,25.522,6.367z"/>
							<path fill-rule="evenodd" clip-rule="evenodd" d="M25.505,6.371c0.008,0.043,0.027,0.081,0.054,0.096
								c-0.021-0.026-0.036-0.063-0.042-0.099l-0.002,0L25.505,6.371z"/>
						</g>
						<g>
							<path fill-rule="evenodd" clip-rule="evenodd" d="M25.564,6.358c0.02,0.033,0.043,0.059,0.07,0.064
								c-0.022-0.02-0.04-0.044-0.052-0.069L25.564,6.358z"/>
							<path fill-rule="evenodd" clip-rule="evenodd" d="M25.546,6.364c0.014,0.032,0.034,0.057,0.058,0.066
								c-0.021-0.018-0.037-0.043-0.048-0.069L25.546,6.364z"/>
						</g>
					</g>
				</g>
				<g>
					<path fill-rule="evenodd" clip-rule="evenodd" fill="#E8A476" d="M26,5.957c-0.066,0.158,0.018,0.371,0.084,0.61
						c0.092-0.31,0.245-0.381,0.649-0.531c0.23-0.084,0.251-0.066,0.503-0.046c-0.313-0.078-0.275-0.18-0.532-0.119
						C26.408,5.939,26.188,5.985,26,5.957z"/>
					<path fill-rule="evenodd" clip-rule="evenodd" fill="#572F0C" d="M27.357,6.043c-0.126-0.055-0.249-0.118-0.379-0.165
						c-0.127-0.046-0.126-0.087-0.267-0.065c-0.199,0.032-0.451,0.044-0.612,0.073c-0.12,0.021-0.132,0.031-0.122,0.127
						c0.005,0.059,0.012,0.11,0.034,0.124c0.035,0.023,0.376-0.098,0.634-0.167c0.195-0.053,0.194-0.069,0.346-0.022
						C27.112,5.985,27.195,6.013,27.357,6.043z"/>
					<g>
						<g>
							<path fill-rule="evenodd" clip-rule="evenodd" fill="#DED5D5" d="M27.174,6.498c-0.14,0.136-0.258,0.23-0.413,0.245
								c-0.133,0.013-0.222-0.015-0.314-0.065c-0.064-0.035-0.13-0.077-0.19-0.116c0.188,0.029,0.289,0.096,0.503,0.075
								C26.909,6.622,27.14,6.487,27.174,6.498z"/>
							<g>
								<path fill-rule="evenodd" clip-rule="evenodd" fill="#031D30" d="M26.437,6.597c0.01,0.074,0.077,0.113,0.159,0.126
									c0.104,0.017,0.229-0.012,0.24-0.092C26.666,6.656,26.495,6.611,26.437,6.597z"/>
								<path fill-rule="evenodd" clip-rule="evenodd" fill="#DED5D5" d="M26.462,6.629c0.056,0.034,0.096,0.056,0.17,0.059
									C26.554,6.705,26.505,6.689,26.462,6.629z"/>
							</g>
							<path fill-rule="evenodd" clip-rule="evenodd" d="M27.174,6.498c-0.14,0.136-0.258,0.23-0.413,0.245
								c-0.133,0.013-0.222-0.015-0.314-0.065c-0.064-0.035-0.13-0.077-0.19-0.116c0.089,0.028,0.115,0.043,0.198,0.091
								c0.083,0.048,0.158,0.075,0.306,0.06C26.909,6.698,27.04,6.607,27.174,6.498z"/>
						</g>
						<g>
							<path fill-rule="evenodd" clip-rule="evenodd" fill="#F5BC95" d="M26.276,6.47c0.14-0.076,0.198-0.114,0.513-0.057
								c0.129,0.024,0.16,0.071,0.008,0.102c-0.061,0.012-0.17,0.066-0.27,0.042c-0.069-0.017-0.13-0.029-0.203-0.029
								C26.199,6.529,26.09,6.571,26.276,6.47z"/>
							<g>
								<path fill-rule="evenodd" clip-rule="evenodd" fill="#C48C69" d="M26.611,6.363c0.283,0.056,0.66-0.087,0.681-0.017
									c0.011,0.036-0.029,0.098-0.177,0.185c-0.401,0.146-0.405,0.114-0.826,0.014c0.058-0.004,0.137,0.017,0.233,0.031
									c0.068,0.01,0.214-0.028,0.305-0.059c0.137-0.047,0.212-0.029,0.21-0.083C27.036,6.392,26.908,6.448,26.611,6.363z"/>
								<path fill-rule="evenodd" clip-rule="evenodd" fill="#996C50" d="M27.286,6.342c0.051,0.086-0.238,0.214-0.311,0.237
									c-0.04,0.014-0.28,0.073-0.403,0.025c0.135-0.017,0.282-0.072,0.351-0.089c0.117-0.028,0.24-0.056,0.234-0.115
									c-0.003-0.031-0.098,0.002-0.28-0.01C27.051,6.397,27.258,6.295,27.286,6.342z"/>
								<path fill-rule="evenodd" clip-rule="evenodd" fill="#785A46" d="M26.17,6.557c0.076-0.039,0.153-0.003,0.318,0.032
									c0.069,0.014,0.098,0.013,0.158,0.015c0.121,0.003,0.17-0.044,0.305-0.07c0.098-0.019,0.248-0.067,0.29-0.09
									c-0.104,0.081-0.209,0.114-0.326,0.153c-0.116,0.04-0.247,0.087-0.4,0.043C26.402,6.608,26.283,6.553,26.17,6.557z"/>
							</g>
						</g>
						<path fill-rule="evenodd" clip-rule="evenodd" d="M27.241,6.444c-0.095,0.097-0.201,0.117-0.313,0.157
							c-0.12,0.044-0.254,0.085-0.414,0.039c-0.089-0.025-0.183-0.065-0.274-0.079c0.066,0,0.211,0.052,0.358,0.068
							c0.108,0.012,0.197-0.027,0.315-0.062C27.024,6.536,27.139,6.509,27.241,6.444z"/>
						<g>
							<path fill-rule="evenodd" clip-rule="evenodd" d="M27.169,6.498c0.092,0.007,0.168,0,0.229-0.048
								c-0.061,0.067-0.114,0.096-0.271,0.075C27.13,6.522,27.167,6.498,27.169,6.498z"/>
							<path fill-rule="evenodd" clip-rule="evenodd" d="M27.105,6.52c0.064,0.021,0.13,0.025,0.187,0.016
								c-0.063,0.021-0.117,0.026-0.205-0.006C27.091,6.529,27.104,6.52,27.105,6.52z"/>
							<path fill-rule="evenodd" clip-rule="evenodd" d="M27.077,6.53c0.06,0.039,0.136,0.063,0.194,0.059
								c-0.066,0.016-0.133,0.011-0.223-0.043L27.077,6.53z"/>
							<path fill-rule="evenodd" clip-rule="evenodd" d="M27.008,6.554c0.043,0.045,0.099,0.081,0.146,0.091
								c-0.061-0.004-0.115-0.024-0.175-0.083L27.008,6.554z"/>
							<path fill-rule="evenodd" clip-rule="evenodd" d="M27.043,6.554c0.045,0.031,0.092,0.054,0.137,0.061
								c-0.057,0-0.1-0.017-0.15-0.055L27.043,6.554z"/>
							<path fill-rule="evenodd" clip-rule="evenodd" d="M26.953,6.577c0.038,0.044,0.087,0.081,0.131,0.095
								c-0.057-0.009-0.106-0.03-0.157-0.087C26.936,6.583,26.944,6.58,26.953,6.577z"/>
							<path fill-rule="evenodd" clip-rule="evenodd" d="M26.978,6.567c0.034,0.038,0.072,0.068,0.111,0.084
								c-0.051-0.013-0.088-0.037-0.125-0.08L26.978,6.567z"/>
							<path fill-rule="evenodd" clip-rule="evenodd" d="M26.9,6.596c0.03,0.049,0.072,0.093,0.114,0.115
								c-0.054-0.018-0.097-0.045-0.139-0.109C26.885,6.601,26.891,6.597,26.9,6.596z"/>
							<path fill-rule="evenodd" clip-rule="evenodd" d="M26.919,6.591c0.03,0.037,0.063,0.067,0.1,0.084
								c-0.047-0.015-0.081-0.04-0.111-0.08C26.911,6.594,26.916,6.592,26.919,6.591z"/>
							<path fill-rule="evenodd" clip-rule="evenodd" d="M26.857,6.614c0.027,0.051,0.04,0.109,0.035,0.142
								c-0.02-0.043-0.029-0.085-0.063-0.136C26.839,6.619,26.848,6.614,26.857,6.614z"/>
							<path fill-rule="evenodd" clip-rule="evenodd" d="M26.877,6.611c0.018,0.027,0.051,0.092,0.05,0.124
								c-0.018-0.043-0.038-0.082-0.063-0.121C26.873,6.614,26.868,6.612,26.877,6.611z"/>
							<path fill-rule="evenodd" clip-rule="evenodd" d="M26.811,6.621c0.015,0.057,0.018,0.117,0.004,0.148
								c-0.004-0.045-0.013-0.104-0.033-0.143C26.79,6.625,26.801,6.623,26.811,6.621z"/>
							<path fill-rule="evenodd" clip-rule="evenodd" d="M26.819,6.628c0.016,0.044,0.026,0.086,0.023,0.126
								c0.011-0.045,0.005-0.083-0.011-0.128C26.832,6.625,26.82,6.627,26.819,6.628z"/>
							<path fill-rule="evenodd" clip-rule="evenodd" d="M26.761,6.637c0.005,0.058,0.003,0.117-0.025,0.145
								c0.014-0.048,0.011-0.101-0.002-0.143L26.761,6.637z"/>
							<path fill-rule="evenodd" clip-rule="evenodd" d="M26.781,6.634c0.008,0.057,0.014,0.094-0.01,0.132
								c0.013-0.041,0.004-0.088-0.004-0.131L26.781,6.634z"/>
							<g>
								<path fill-rule="evenodd" clip-rule="evenodd" d="M26.703,6.645c-0.001,0.057-0.01,0.112-0.039,0.138
									c0.018-0.045,0.021-0.095,0.014-0.137C26.687,6.646,26.694,6.645,26.703,6.645z"/>
								<path fill-rule="evenodd" clip-rule="evenodd" d="M26.725,6.643c0.003,0.052-0.005,0.104-0.032,0.13
									c0.018-0.038,0.024-0.088,0.018-0.129C26.715,6.644,26.72,6.644,26.725,6.643z"/>
								<path fill-rule="evenodd" clip-rule="evenodd" d="M26.654,6.645c-0.006,0.053-0.019,0.104-0.049,0.126
									c0.02-0.041,0.026-0.086,0.025-0.127C26.639,6.645,26.646,6.645,26.654,6.645z"/>
								<path fill-rule="evenodd" clip-rule="evenodd" d="M26.672,6.646c0.001,0.048-0.009,0.094-0.032,0.119
									c0.016-0.035,0.022-0.08,0.019-0.119C26.658,6.646,26.667,6.646,26.672,6.646z"/>
								<g>
									<path fill-rule="evenodd" clip-rule="evenodd" d="M26.603,6.642c-0.012,0.053-0.032,0.102-0.066,0.12
										c0.026-0.038,0.039-0.082,0.043-0.123C26.588,6.64,26.596,6.642,26.603,6.642z"/>
									<path fill-rule="evenodd" clip-rule="evenodd" d="M26.619,6.644c-0.003,0.049-0.02,0.095-0.048,0.116
										c0.021-0.033,0.034-0.078,0.035-0.117L26.619,6.644z"/>
								</g>
								<g>
									<path fill-rule="evenodd" clip-rule="evenodd" d="M26.553,6.635c-0.018,0.048-0.041,0.09-0.072,0.104
										c0.024-0.032,0.042-0.071,0.05-0.109C26.537,6.632,26.545,6.633,26.553,6.635z"/>
									<path fill-rule="evenodd" clip-rule="evenodd" d="M26.57,6.638c-0.009,0.045-0.028,0.085-0.056,0.103
										c0.021-0.029,0.037-0.068,0.043-0.105L26.57,6.638z"/>
								</g>
								<g>
									<path fill-rule="evenodd" clip-rule="evenodd" d="M26.501,6.624c-0.02,0.046-0.045,0.085-0.076,0.097
										c0.026-0.03,0.045-0.067,0.056-0.103C26.487,6.62,26.494,6.622,26.501,6.624z"/>
									<path fill-rule="evenodd" clip-rule="evenodd" d="M26.52,6.628c-0.012,0.043-0.033,0.081-0.061,0.097
										c0.022-0.027,0.041-0.063,0.048-0.1l0.003,0.001L26.52,6.628z"/>
								</g>
								<g>
									<path fill-rule="evenodd" clip-rule="evenodd" d="M26.45,6.61c-0.022,0.039-0.048,0.071-0.078,0.08
										c0.025-0.025,0.046-0.055,0.059-0.085L26.45,6.61z"/>
									<path fill-rule="evenodd" clip-rule="evenodd" d="M26.47,6.616c-0.016,0.037-0.038,0.068-0.064,0.08
										c0.022-0.021,0.041-0.052,0.053-0.083L26.47,6.616z"/>
								</g>
								<g>
									<path fill-rule="evenodd" clip-rule="evenodd" d="M26.395,6.594c-0.023,0.039-0.052,0.071-0.083,0.078
										c0.026-0.024,0.048-0.053,0.063-0.083L26.395,6.594z"/>
									<path fill-rule="evenodd" clip-rule="evenodd" d="M26.414,6.6c-0.017,0.039-0.042,0.07-0.068,0.08
										c0.022-0.021,0.044-0.052,0.057-0.083L26.414,6.6z"/>
								</g>
								<g>
									<path fill-rule="evenodd" clip-rule="evenodd" d="M26.34,6.58c-0.023,0.029-0.051,0.05-0.076,0.053
										c0.022-0.017,0.041-0.036,0.057-0.058C26.326,6.576,26.334,6.578,26.34,6.58z"/>
									<path fill-rule="evenodd" clip-rule="evenodd" d="M26.363,6.585c-0.02,0.029-0.043,0.052-0.066,0.059
										c0.02-0.015,0.039-0.037,0.054-0.062L26.363,6.585z"/>
								</g>
							</g>
						</g>
					</g>
				</g>
				<path fill-rule="evenodd" clip-rule="evenodd" fill="#572F0C" d="M25.439,5.694c0.08,0.133,0.035,0.222-0.003,0.202
					c-0.179-0.098-0.412-0.33-0.606-0.391c-0.019-0.034-0.024-0.095-0.024-0.126C25.021,5.397,25.361,5.646,25.439,5.694z"/>
				<g>
					<path fill-rule="evenodd" clip-rule="evenodd" fill="#DB9669" d="M25.152,6.772c0.021,0.007,0.043,0.012,0.064,0.018
						c0.096,0.026,0.197,0.048,0.272,0.056c0.084,0.012,0.129-0.003,0.15-0.048c0.018-0.039,0.01-0.1-0.007-0.186l-0.025-0.143
						L25.56,6.479l0.024,0.141c0.015,0.078,0.022,0.129,0.009,0.157c-0.009,0.021-0.04,0.028-0.099,0.02l-0.001,0
						c-0.072-0.007-0.17-0.028-0.264-0.053c-0.026-0.007-0.052-0.015-0.078-0.022C25.15,6.726,25.15,6.753,25.152,6.772z"/>
					<path fill-rule="evenodd" clip-rule="evenodd" fill="#DB9669" d="M25.165,6.854c0.014,0.004,0.02,0.007,0.034,0.01
						c0.096,0.026,0.197,0.048,0.271,0.055c0.085,0.012,0.129-0.003,0.15-0.048c0.019-0.039,0.01-0.1-0.006-0.187L25.581,6.49
						l-0.046,0.022l0.03,0.182c0.016,0.078,0.022,0.131,0.01,0.158c-0.01,0.021-0.04,0.027-0.099,0.02h-0.002
						c-0.071-0.007-0.17-0.028-0.264-0.054c-0.018-0.005-0.036-0.01-0.055-0.016C25.156,6.823,25.16,6.84,25.165,6.854z"/>
					<g>
						<path opacity="0.5" fill-rule="evenodd" clip-rule="evenodd" fill="#CCC8C8" d="M24.947,6.711
							c0.101,0.049,0.375,0.129,0.532,0.145c0.145,0.02,0.149-0.041,0.116-0.206l-0.042-0.249c-0.033-0.163-0.06-0.219-0.185-0.244
							c-0.239-0.047-0.457-0.078-0.7-0.104c-0.101-0.01-0.094,0.017-0.066,0.108C24.673,6.384,24.764,6.623,24.947,6.711z"/>
						<path fill-rule="evenodd" clip-rule="evenodd" fill="#4A4642" d="M24.936,6.734c0.055,0.027,0.159,0.062,0.269,0.091
							c0.095,0.026,0.196,0.048,0.27,0.055c0.086,0.012,0.131-0.002,0.151-0.048c0.018-0.04,0.011-0.099-0.006-0.187l-0.042-0.25
							c-0.017-0.085-0.033-0.142-0.062-0.183c-0.03-0.043-0.073-0.066-0.143-0.08c-0.12-0.024-0.234-0.044-0.349-0.061
							c-0.116-0.016-0.231-0.031-0.354-0.043c-0.063-0.006-0.094,0.001-0.106,0.03c-0.012,0.025-0.002,0.058,0.015,0.109
							c0.035,0.113,0.076,0.23,0.131,0.33C24.767,6.602,24.838,6.688,24.936,6.734L24.936,6.734z M25.217,6.778
							c-0.106-0.029-0.208-0.063-0.26-0.089c-0.086-0.041-0.151-0.12-0.203-0.214c-0.054-0.097-0.094-0.211-0.129-0.322
							c-0.013-0.039-0.021-0.065-0.017-0.074c0.002-0.005,0.019-0.005,0.056-0.001c0.123,0.014,0.237,0.027,0.352,0.044
							c0.114,0.017,0.228,0.036,0.347,0.06c0.057,0.012,0.09,0.029,0.112,0.061c0.025,0.034,0.038,0.085,0.054,0.164l0.042,0.25
							c0.015,0.078,0.022,0.129,0.01,0.157c-0.01,0.022-0.04,0.028-0.099,0.02l-0.001-0.001C25.409,6.825,25.312,6.804,25.217,6.778
							z"/>
					</g>
				</g>
				<g>
					<g>
						<path fill-rule="evenodd" clip-rule="evenodd" fill="#F1B287" d="M25.951,6.225c-0.13-0.057-0.392-0.487-0.501-0.326
							c0.091,0.15,0.129,0.442,0.132,0.465c0.016,0.155-0.018,0.432-0.11,0.675c-0.096,0.253-0.253,0.348-0.234,0.48
							c0.016,0.108,0.205,0.203,0.478,0.133c0.14-0.036,0.184,0.016,0.275-0.004c0.072-0.017,0.097-0.075,0.099-0.126
							c0-0.024-0.025-0.053-0.029-0.078C26.003,7.006,26.037,6.766,25.951,6.225z"/>
						<path fill-rule="evenodd" clip-rule="evenodd" fill="#F5BC95" d="M25.598,6.488c0.021,0.274,0.024,0.541-0.176,0.896
							c-0.032,0.058-0.028,0.103-0.017,0.134c0.043,0.117,0.252,0.095,0.369,0.11c-0.066,0.011-0.167,0.029-0.246,0.034
							c-0.125,0.007-0.258-0.058-0.271-0.136c-0.011-0.06,0.005-0.099,0.058-0.178C25.579,6.946,25.576,6.79,25.598,6.488z"/>
						<path fill-rule="evenodd" clip-rule="evenodd" fill="#DB9669" d="M25.877,7.698c-0.058-0.009-0.112-0.042-0.189-0.041
							c0.031-0.009,0.105-0.046,0.146-0.048c0.086-0.003,0.157,0.049,0.216,0.001C26.066,7.667,25.929,7.707,25.877,7.698z"/>
					</g>
					<path fill-rule="evenodd" clip-rule="evenodd" fill="#E8A476" d="M26.129,7.502c0.033-0.174-0.163-0.264-0.276-0.105
						C25.987,7.299,26.122,7.354,26.129,7.502z"/>
				</g>
				<g>
					<path fill-rule="evenodd" clip-rule="evenodd" fill="#DB9669" d="M26.378,7.043c0.073,0.012,0.202,0.024,0.339,0.033
						c0.135,0.009,0.277,0.015,0.384,0.014c0.073,0.002,0.124-0.006,0.155-0.024c0.035-0.02,0.021-0.061,0-0.086
						C27.254,6.988,27.252,6.995,27.248,7c-0.016,0.027-0.058,0.043-0.146,0.041h-0.002c-0.104,0-0.246-0.005-0.381-0.014
						c-0.135-0.009-0.262-0.021-0.334-0.033c-0.093-0.015-0.177-0.084-0.247-0.174c-0.057-0.07-0.104-0.153-0.143-0.234
						c-0.053-0.071-0.087-0.157-0.119-0.24c-0.001-0.003-0.033-0.003-0.013,0.052c0.047,0.129,0.126,0.313,0.236,0.452
						C26.177,6.949,26.27,7.025,26.378,7.043z"/>
					<path fill-rule="evenodd" clip-rule="evenodd" fill="#E8A476" d="M26.359,7.117c0.074,0.012,0.203,0.024,0.339,0.033
						s0.278,0.014,0.385,0.014c0.107,0.003,0.164-0.015,0.19-0.059c0.012-0.018,0.017-0.039,0.017-0.065l-0.05-0.001
						c0,0.017-0.003,0.031-0.009,0.041c-0.04,0.067-0.491,0.024-0.53,0.021c-0.135-0.009-0.262-0.021-0.333-0.033
						c-0.095-0.016-0.177-0.084-0.249-0.174c-0.104-0.133-0.182-0.313-0.227-0.438c-0.004-0.01-0.007-0.019-0.009-0.027
						l-0.038-0.001c0.005,0.012,0.011,0.025,0.016,0.041c0.047,0.129,0.11,0.317,0.219,0.457
						C26.159,7.023,26.252,7.099,26.359,7.117z"/>
					<g>
						<path opacity="0.5" fill-rule="evenodd" clip-rule="evenodd" fill="#CCC8C8" d="M26.369,7.054
							c0.146,0.024,0.508,0.048,0.72,0.047c0.195,0.005,0.202-0.058,0.162-0.22l-0.078-0.318c-0.039-0.16-0.075-0.213-0.245-0.226
							c-0.321-0.023-0.615-0.031-0.945-0.032c-0.135,0-0.141,0.03-0.108,0.121C25.952,6.64,26.123,7.013,26.369,7.054z"/>
						<path fill-rule="evenodd" clip-rule="evenodd" fill="#4A4642" d="M26.365,7.079c0.073,0.012,0.202,0.024,0.339,0.033
							c0.135,0.009,0.277,0.014,0.385,0.014c0.107,0.002,0.165-0.016,0.19-0.059c0.026-0.042,0.018-0.104-0.004-0.191l-0.079-0.318
							c-0.021-0.084-0.041-0.141-0.08-0.18s-0.096-0.058-0.187-0.064c-0.162-0.012-0.316-0.019-0.471-0.024
							c-0.154-0.005-0.311-0.007-0.476-0.008c-0.076,0-0.117,0.011-0.137,0.037c-0.021,0.028-0.014,0.064,0.005,0.117
							c0.046,0.128,0.126,0.313,0.234,0.452C26.164,6.984,26.258,7.061,26.365,7.079L26.365,7.079z M26.708,7.063
							c-0.136-0.009-0.263-0.021-0.335-0.033c-0.094-0.015-0.177-0.085-0.248-0.174c-0.105-0.134-0.182-0.313-0.227-0.438
							c-0.013-0.037-0.02-0.061-0.012-0.07c0.008-0.012,0.038-0.017,0.097-0.017c0.164,0,0.32,0.003,0.475,0.008
							s0.309,0.013,0.469,0.024c0.077,0.005,0.124,0.02,0.155,0.05c0.03,0.031,0.048,0.081,0.066,0.157l0.079,0.318
							c0.018,0.074,0.026,0.125,0.009,0.153c-0.015,0.027-0.06,0.038-0.146,0.035h-0.001C26.984,7.076,26.842,7.071,26.708,7.063z"
							/>
						<path fill-rule="evenodd" clip-rule="evenodd" fill="#4A4642" d="M25.879,6.447c0.017,0.002,0.031-0.009,0.032-0.025
							c0.002-0.015-0.009-0.03-0.025-0.032L25.537,6.35c-0.016-0.002-0.031,0.009-0.032,0.025c-0.002,0.016,0.01,0.03,0.025,0.032
							L25.879,6.447z"/>
						<path fill-rule="evenodd" clip-rule="evenodd" fill="#4A4642" d="M27.148,6.454c-0.009,0.007,0.021,0.167,0.056,0.139
							l1.441-0.842l0.082-0.115l-0.033,0.018L27.148,6.454z"/>
						<path fill-rule="evenodd" clip-rule="evenodd" fill="#E6E6E6" d="M27.161,6.467c-0.009,0.008-0.005,0.067,0.03,0.04
							l1.085-0.621c0.011-0.006,0.007-0.012-0.001-0.009L27.161,6.467z"/>
					</g>
				</g>
			</g>
			<path fill-rule="evenodd" clip-rule="evenodd" fill="#005D96" d="M29.924,8.804c1.011,0.601,1.044,1.823,0.334,2.902l-0.64-0.177
				l0.215,0.645c-1.432,0.697-1.867,1.162-2.773,2.246c0.858-1.734,1.667-2.774,2.278-3.685
				C29.614,10.326,30.178,9.311,29.924,8.804z"/>
			<g>
				<path fill-rule="evenodd" clip-rule="evenodd" fill="#361D07" d="M29.682,8.114c0.844-0.719,0.947-2.611,0.549-3.695
					c-0.171-0.465-0.53-1.059-0.909-1.438c-0.529-0.53-1.318-0.753-2.365-0.409c-0.313,0.102,0.672,0.06,0.329,0.369l1.268,2.675
					C28.902,6.957,28.818,7.031,29.682,8.114z"/>
				<path fill-rule="evenodd" clip-rule="evenodd" fill="#361D07" d="M24.88,4.266c1.784,2.073,3.975,1.816,4.137,2.339
					c0.125,0.405,0.721-0.525,0.811-0.947c0.245-1.155-0.375-2.437-1.487-2.951C26.941,2.061,25.143,3.056,24.88,4.266z"/>
				<path fill-rule="evenodd" clip-rule="evenodd" fill="#241304" d="M29.158,7.383c0.99-1.01,1.3-2.272,0.863-3.361
					c0.005,0.026,0.008,0.051,0.012,0.076c-0.205-0.333-0.505-0.796-0.918-0.892c0.338,0.26,0.799,0.902,0.866,1.476
					c-0.224-0.544-0.463-0.746-0.965-1.165c0.353,0.475,0.474,0.694,0.703,1.294c-0.225-0.382-0.763-0.912-1.052-0.993
					c0.359,0.247,0.75,0.784,0.817,1.494c-0.2-0.516-0.749-1.143-1.186-1.229c0.25,0.18,0.653,0.668,0.71,1.016
					c-0.337-0.373-0.362-0.461-0.902-0.763c0.293,0.281,0.449,0.561,0.611,0.896C28.454,4.99,28.236,4.761,27.9,4.502
					c0.159,0.197,0.613,0.877,0.648,1.118c-0.111-0.121-0.945-0.516-1.301-0.661c0.412,0.377,0.871,0.774,1.23,0.909
					c0.062,0.068-1.325-0.079-3.054-1.066c1.233,1.172,2.174,1.034,3.315,1.536l0.127,0.484C28.912,6.979,29.045,7.27,29.158,7.383z
					"/>
				<g>
					<path fill-rule="evenodd" clip-rule="evenodd" fill="#E8A476" d="M28.915,5.392c0.477-0.301,0.623,0.297,0.631,0.679
						c0.004,0.263-0.207,0.293-0.233,0.508c-0.032,0.256-0.188,0.409-0.345,0.442c-0.317,0.068-0.235-0.449-0.242-0.643
						C28.615,6.082,28.613,5.583,28.915,5.392z"/>
					<path fill-rule="evenodd" clip-rule="evenodd" fill="#DB9669" d="M28.861,6.153c0.052-0.272,0.024-0.6,0.386-0.646
						C28.946,5.606,28.944,5.901,28.861,6.153z"/>
				</g>
				<path fill-rule="evenodd" clip-rule="evenodd" fill="#241304" d="M30.149,4.243c0.409,0.66,0.669,2.568-0.433,4.169
					c-0.098-0.225-0.446-0.78-0.622-1.106C30.164,5.744,29.967,6.329,30.149,4.243z"/>
				<path fill-rule="evenodd" clip-rule="evenodd" fill="#4A2B12" d="M24.881,4.271c0.209-1.562,2.902-2.401,4.11-1.553
					c-0.597-0.229-1.101-0.272-1.78-0.141c0.402-0.032,1.234,0.098,1.737,0.602c-0.572-0.356-1.235-0.468-1.827-0.356
					c0.663,0.04,0.854,0.172,1.323,0.486c-0.503-0.189-1.008-0.344-1.522-0.312c0.503,0.094,0.719,0.215,1.111,0.595
					c-0.626-0.283-0.698-0.437-1.397-0.391c0.264,0.098,0.858,0.351,1.193,0.65c-0.502-0.177-0.938-0.299-1.448-0.383
					c0.347,0.168,0.783,0.406,1.021,0.622c-0.431-0.163-0.788-0.328-1.385-0.385c0.578,0.249,0.987,0.442,1.47,0.847
					c-0.479-0.216-0.895-0.418-1.589-0.613c0.409,0.3,0.681,0.461,1.095,0.759c-0.46-0.12-1.123-0.428-1.578-0.661
					c0.358,0.262,1.415,0.995,1.83,1.221c-0.451-0.146-1.627-0.782-1.984-1.02c0.217,0.341,0.629,0.649,1.06,0.87
					C25.832,4.979,25.277,4.616,24.881,4.271z"/>
				<path fill-rule="evenodd" clip-rule="evenodd" fill="#241304" d="M25.883,5.172c2.917,2.425,2.353,8.323,2.757,10.682
					c2.831-2.5,2.637-7.823,1.69-11.221c-0.181-0.119-0.895,0.749-1.065,0.678l-0.394-0.16L28.62,5.72l-0.503-0.151l0.299,0.29
					l-1.16-0.216L25.883,5.172z"/>
			</g>
		</g>
		<g>
			<g>
				<path fill-rule="evenodd" clip-rule="evenodd" fill="#F1B287" d="M28.006,20.815c-0.229,0.156-0.58,0.12-0.727,0.143
					c-0.161,0.025-0.396,0.078-0.559,0.136c-0.26,0.094-0.563,0.362-1.032,0.542c0.22,0.457,0.737,0.052,0.979,0.033
					c0.223-0.018,0.471,0.042,0.669-0.007C27.651,21.586,28.067,21.164,28.006,20.815z"/>
				<path fill-rule="evenodd" clip-rule="evenodd" fill="#F1B287" d="M28.379,20.549c-0.239,0.191-0.635,0.447-0.843,0.561
					c-0.208,0.114-0.299,0.155-0.44,0.204c-0.478,0.162-0.698,0.667-0.994,0.638c-0.294-0.029-1.09-0.51-1.059-0.359
					c0.021,0.108,0.225,0.487,0.316,0.603c0.185,0.238,0.377,0.384,0.664,0.566c0.286,0.182,0.577,0.296,0.77,0.355
					c0.193,0.059,0.257,0.003,0.375-0.046c0.13-0.053,0.567-0.476,0.659-0.585c0.422-0.506,0.513-0.607,0.94-0.862L28.379,20.549z"
					/>
				<path fill-rule="evenodd" clip-rule="evenodd" fill="#E8A476" d="M28.327,21.162c-0.133,0.053-0.716,0.345-0.813,0.436
					c-0.484,0.46-0.765,0.828-1.172,0.672c-0.5-0.192-0.802-0.284-1.236-0.512c0.074,0.155,0.189,0.358,0.251,0.438
					c0.185,0.238,0.377,0.384,0.664,0.566c0.286,0.182,0.577,0.296,0.77,0.355c0.193,0.059,0.257,0.003,0.375-0.046
					c0.13-0.053,0.567-0.476,0.659-0.585c0.422-0.506,0.513-0.607,0.94-0.862L28.327,21.162z"/>
			</g>
			<path fill-rule="evenodd" clip-rule="evenodd" fill="#003F66" d="M33.051,12.089c0.334,1.515,0.389,3.765,0.371,5.28
				c-0.002,0.238,0.036,0.691-0.005,0.878c-0.128,0.575-1.584,1.07-1.747-0.565c-0.096-0.962-0.371-1.859-0.652-3.668
				c-0.285-1.834,0.239-3.07,1.022-3.187C32.593,10.744,32.922,11.508,33.051,12.089z"/>
			<path fill-rule="evenodd" clip-rule="evenodd" fill="#005082" d="M31.701,17.42c-0.119-0.842-0.437-1.82-0.684-3.407
				c-0.243-1.562,0.102-2.69,0.692-3.063c0.127,1.639,0.541,4.056,0.636,6.005C32.075,17.046,31.813,17.328,31.701,17.42z"/>
			<path fill-rule="evenodd" clip-rule="evenodd" fill="#00314F" d="M33.051,12.089c0.334,1.515,0.389,3.765,0.371,5.28
				c-0.002,0.238,0.036,0.691-0.005,0.878c-0.111,0.5-1.23,0.941-1.625-0.034c0.391-0.08,0.654-0.151,0.714-0.208
				c0.164-0.161,0.123-0.317,0.097-0.656c-0.178-2.189-0.388-4.317-0.646-6.505c0.028-0.007,0.056-0.013,0.083-0.017
				C32.593,10.744,32.922,11.508,33.051,12.089z"/>
			<path fill-rule="evenodd" clip-rule="evenodd" fill="#003F66" d="M27.975,20.813c0.273,0.016,0.493,0.988,0.485,1.052
				c1.895-0.979,3.178-1.858,4.525-3.091c0.659-0.602-0.266-1.945-0.979-1.718C30.851,17.418,29.262,19.587,27.975,20.813z"/>
			<path fill-rule="evenodd" clip-rule="evenodd" fill="#005082" d="M27.975,20.813c0.092,0.006,0.177,0.118,0.25,0.267
				c0.554-0.401,4.384-3.247,4.461-3.587c-0.54-0.284-1.212-0.209-1.662,0.169C30.039,18.488,28.925,19.908,27.975,20.813z"/>
			<path fill-rule="evenodd" clip-rule="evenodd" fill="#00314F" d="M28.346,21.387c0.074,0.23,0.118,0.448,0.114,0.478
				c1.913-0.988,3.202-1.875,4.565-3.127c0.308-0.282,0.429-0.425,0.423-0.586c-0.013-0.427-0.497-0.91-0.752-1.199
				c0.166,0.502,0.229,0.855-0.057,1.168C31.246,19.598,29.779,20.571,28.346,21.387z"/>
		</g>
	</g>
</g>
</svg>
