<svg width="800" height="450" xmlns="http://www.w3.org/2000/svg" xmlns:xlink="http://www.w3.org/1999/xlink">
 <g>
  <title>background</title>
  <rect x="-1" y="-1" width="1068.66667" height="602" id="canvas_background" fill="#fff"/>
 </g>
 <g>
  <title>background</title>
  <rect x="-1" y="-1" width="1068.66667" height="602" id="canvas_background" fill="#fff"/>
 </g>
 <g>
  <title>background</title>
  <rect height="452" width="802" fill="#EDEDED" y="-1" x="-1" id="canvas_background"/>
 </g>
 <g>
  <title>Layer 1</title>
  <rect height="82.144" width="800" fill="#FFAAAA" y="368.75" x="-1.149" id="svg_763"/>
  <rect height="122.322" width="800" fill="#BF0000" y="245.492" x="-1.149" id="svg_628"/>
  <style type="text/css">:root {
        --animate-duration: 1s;
        --animate-delay: 1s;
        --animate-repeat: 1;
      }
      
       .animate__animated {
        -webkit-animation-duration: 1s;
        animation-duration: 1s;
        -webkit-animation-duration: var(--animate-duration);
        animation-duration: var(--animate-duration);
        -webkit-animation-fill-mode: both;
        animation-fill-mode: both;
      }
    @-webkit-keyframes slideInLeft {
    from {
        -webkit-transform: translate3d(-100%, 0, 0);
        transform: translate3d(-100%, 0, 0);
        visibility: visible
    }

    to {
        -webkit-transform: translate3d(0, 0, 0);
        transform: translate3d(0, 0, 0)
    }
}

@keyframes slideInLeft {
    from {
        -webkit-transform: translate3d(-100%, 0, 0);
        transform: translate3d(-100%, 0, 0);
        visibility: visible
    }

    to {
        -webkit-transform: translate3d(0, 0, 0);
        transform: translate3d(0, 0, 0)
    }
}

.animate__slideInLeft {
    -webkit-animation-name: slideInLeft;
    animation-name: slideInLeft
}
    .animate__animated.animate__repeat-1 {
          -webkit-animation-iteration-count: 1;
          animation-iteration-count: 1;
          -webkit-animation-iteration-count: var(--animate-repeat);
          animation-iteration-count: var(--animate-repeat);
        }
    .animate__animated.animate__delay-1s {
          -webkit-animation-delay: 1s;
          animation-delay: 1s;
          -webkit-animation-delay: var(--animate-delay);
          animation-delay: var(--animate-delay);
        }
    .animate__animated.animate__faster {
          -webkit-animation-duration: calc(1s / 2);
          animation-duration: calc(1s / 2);
          -webkit-animation-duration: calc(var(--animate-duration) / 2);
          animation-duration: calc(var(--animate-duration) / 2);
        }</style>
  <g class="animate__animated animate__slideInLeft animate__repeat-1 animate__delay-1s animate__faster" id="svg_7">
   <text font-size="35.7979" font-family="'HelveticaWorld-Bold'" transform="matrix(1,0,0,1,50.7688,54.3691) " id="svg_616">WE PROVIDE INVESTMENT PROJECTS</text>
  </g>
  <style type="text/css">:root {
        --animate-duration: 1s;
        --animate-delay: 1s;
        --animate-repeat: 1;
      }
      
       .animate__animated {
        -webkit-animation-duration: 1s;
        animation-duration: 1s;
        -webkit-animation-duration: var(--animate-duration);
        animation-duration: var(--animate-duration);
        -webkit-animation-fill-mode: both;
        animation-fill-mode: both;
      }
    @-webkit-keyframes slideInLeft {
    from {
        -webkit-transform: translate3d(-100%, 0, 0);
        transform: translate3d(-100%, 0, 0);
        visibility: visible
    }

    to {
        -webkit-transform: translate3d(0, 0, 0);
        transform: translate3d(0, 0, 0)
    }
}

@keyframes slideInLeft {
    from {
        -webkit-transform: translate3d(-100%, 0, 0);
        transform: translate3d(-100%, 0, 0);
        visibility: visible
    }

    to {
        -webkit-transform: translate3d(0, 0, 0);
        transform: translate3d(0, 0, 0)
    }
}

.animate__slideInLeft {
    -webkit-animation-name: slideInLeft;
    animation-name: slideInLeft
}
    .animate__animated.animate__repeat-1 {
          -webkit-animation-iteration-count: 1;
          animation-iteration-count: 1;
          -webkit-animation-iteration-count: var(--animate-repeat);
          animation-iteration-count: var(--animate-repeat);
        }
    .animate__animated.animate__delay-1s {
          -webkit-animation-delay: 1s;
          animation-delay: 1s;
          -webkit-animation-delay: var(--animate-delay);
          animation-delay: var(--animate-delay);
        }
    .animate__animated.animate__faster {
          -webkit-animation-duration: calc(1s / 2);
          animation-duration: calc(1s / 2);
          -webkit-animation-duration: calc(var(--animate-duration) / 2);
          animation-duration: calc(var(--animate-duration) / 2);
        }</style>
  <g class="animate__animated animate__slideInLeft animate__repeat-1 animate__delay-1s animate__faster" id="svg_8">
   <text font-size="23.8235" font-family="'HelveticaWorld-Bold'" fill="#FF0000" transform="matrix(1,0,0,1,171.3943,102.4229) " id="svg_765">Business Planning | Estate Planing</text>
  </g>
  <style type="text/css">:root {
        --animate-duration: 1s;
        --animate-delay: 1s;
        --animate-repeat: 1;
      }
      
       .animate__animated {
        -webkit-animation-duration: 1s;
        animation-duration: 1s;
        -webkit-animation-duration: var(--animate-duration);
        animation-duration: var(--animate-duration);
        -webkit-animation-fill-mode: both;
        animation-fill-mode: both;
      }
    
@-webkit-keyframes zoomInLeft {
    from {
        opacity: 0;
        -webkit-transform: scale3d(.1, .1, .1) translate3d(-1000px, 0, 0);
        transform: scale3d(.1, .1, .1) translate3d(-1000px, 0, 0);
        -webkit-animation-timing-function: cubic-bezier(.55, .055, .675, .19);
        animation-timing-function: cubic-bezier(.55, .055, .675, .19)
    }

    60% {
        opacity: 1;
        -webkit-transform: scale3d(.475, .475, .475) translate3d(10px, 0, 0);
        transform: scale3d(.475, .475, .475) translate3d(10px, 0, 0);
        -webkit-animation-timing-function: cubic-bezier(.175, .885, .32, 1);
        animation-timing-function: cubic-bezier(.175, .885, .32, 1)
    }
}

@keyframes zoomInLeft {
    from {
        opacity: 0;
        -webkit-transform: scale3d(.1, .1, .1) translate3d(-1000px, 0, 0);
        transform: scale3d(.1, .1, .1) translate3d(-1000px, 0, 0);
        -webkit-animation-timing-function: cubic-bezier(.55, .055, .675, .19);
        animation-timing-function: cubic-bezier(.55, .055, .675, .19)
    }

    60% {
        opacity: 1;
        -webkit-transform: scale3d(.475, .475, .475) translate3d(10px, 0, 0);
        transform: scale3d(.475, .475, .475) translate3d(10px, 0, 0);
        -webkit-animation-timing-function: cubic-bezier(.175, .885, .32, 1);
        animation-timing-function: cubic-bezier(.175, .885, .32, 1)
    }
}

.animate__zoomInLeft {
    -webkit-animation-name: zoomInLeft;
    animation-name: zoomInLeft
}
    .animate__animated.animate__repeat-1 {
          -webkit-animation-iteration-count: 1;
          animation-iteration-count: 1;
          -webkit-animation-iteration-count: var(--animate-repeat);
          animation-iteration-count: var(--animate-repeat);
        }
    .animate__animated.animate__delay-2s {
          -webkit-animation-delay: calc(1s * 2);
          animation-delay: calc(1s * 2);
          -webkit-animation-delay: calc(var(--animate-delay) * 2);
          animation-delay: calc(var(--animate-delay) * 2);
        }
    .animate__animated.animate__faster {
          -webkit-animation-duration: calc(1s / 2);
          animation-duration: calc(1s / 2);
          -webkit-animation-duration: calc(var(--animate-duration) / 2);
          animation-duration: calc(var(--animate-duration) / 2);
        }</style>
  <g class="animate__animated animate__zoomInLeft animate__repeat-1 animate__delay-2s animate__faster" id="svg_9">
   <text font-size="19.0588" font-family="'HelveticaWorld-Bold'" fill="#F1C40F" transform="matrix(1,0,0,1,23.2498,286.7598) " id="svg_767">See an increase in your income</text>
  </g>
  <style type="text/css">:root {
        --animate-duration: 1s;
        --animate-delay: 1s;
        --animate-repeat: 1;
      }
      
       .animate__animated {
        -webkit-animation-duration: 1s;
        animation-duration: 1s;
        -webkit-animation-duration: var(--animate-duration);
        animation-duration: var(--animate-duration);
        -webkit-animation-fill-mode: both;
        animation-fill-mode: both;
      }
    
@-webkit-keyframes zoomInLeft {
    from {
        opacity: 0;
        -webkit-transform: scale3d(.1, .1, .1) translate3d(-1000px, 0, 0);
        transform: scale3d(.1, .1, .1) translate3d(-1000px, 0, 0);
        -webkit-animation-timing-function: cubic-bezier(.55, .055, .675, .19);
        animation-timing-function: cubic-bezier(.55, .055, .675, .19)
    }

    60% {
        opacity: 1;
        -webkit-transform: scale3d(.475, .475, .475) translate3d(10px, 0, 0);
        transform: scale3d(.475, .475, .475) translate3d(10px, 0, 0);
        -webkit-animation-timing-function: cubic-bezier(.175, .885, .32, 1);
        animation-timing-function: cubic-bezier(.175, .885, .32, 1)
    }
}

@keyframes zoomInLeft {
    from {
        opacity: 0;
        -webkit-transform: scale3d(.1, .1, .1) translate3d(-1000px, 0, 0);
        transform: scale3d(.1, .1, .1) translate3d(-1000px, 0, 0);
        -webkit-animation-timing-function: cubic-bezier(.55, .055, .675, .19);
        animation-timing-function: cubic-bezier(.55, .055, .675, .19)
    }

    60% {
        opacity: 1;
        -webkit-transform: scale3d(.475, .475, .475) translate3d(10px, 0, 0);
        transform: scale3d(.475, .475, .475) translate3d(10px, 0, 0);
        -webkit-animation-timing-function: cubic-bezier(.175, .885, .32, 1);
        animation-timing-function: cubic-bezier(.175, .885, .32, 1)
    }
}

.animate__zoomInLeft {
    -webkit-animation-name: zoomInLeft;
    animation-name: zoomInLeft
}
    .animate__animated.animate__repeat-1 {
          -webkit-animation-iteration-count: 1;
          animation-iteration-count: 1;
          -webkit-animation-iteration-count: var(--animate-repeat);
          animation-iteration-count: var(--animate-repeat);
        }
    .animate__animated.animate__delay-3s {
          -webkit-animation-delay: calc(1s * 3);
          animation-delay: calc(1s * 3);
          -webkit-animation-delay: calc(var(--animate-delay) * 3);
          animation-delay: calc(var(--animate-delay) * 3);
        }
    .animate__animated.animate__faster {
          -webkit-animation-duration: calc(1s / 2);
          animation-duration: calc(1s / 2);
          -webkit-animation-duration: calc(var(--animate-duration) / 2);
          animation-duration: calc(var(--animate-duration) / 2);
        }</style>
  <g id="svg_10" class="animate__animated animate__zoomInLeft animate__repeat-1 animate__delay-3s animate__faster">
   <text x="1.33333" y="0" font-size="19.0588" font-family="'HelveticaWorld-Bold'" fill="#F1C40F" transform="matrix(1,0,0,1,22.2498,317.4434) " id="svg_767_1_">And take your company to a new level</text>
  </g>
  <style type="text/css">:root {
        --animate-duration: 1s;
        --animate-delay: 1s;
        --animate-repeat: 1;
      }
      
       .animate__animated {
        -webkit-animation-duration: 1s;
        animation-duration: 1s;
        -webkit-animation-duration: var(--animate-duration);
        animation-duration: var(--animate-duration);
        -webkit-animation-fill-mode: both;
        animation-fill-mode: both;
      }
    @-webkit-keyframes zoomIn {
    from {
        opacity: 0;
        -webkit-transform: scale3d(.3, .3, .3);
        transform: scale3d(.3, .3, .3)
    }

    50% {
        opacity: 1
    }
}

@keyframes zoomIn {
    from {
        opacity: 0;
        -webkit-transform: scale3d(.3, .3, .3);
        transform: scale3d(.3, .3, .3)
    }

    50% {
        opacity: 1
    }
}

.animate__zoomIn {
    -webkit-animation-name: zoomIn;
    animation-name: zoomIn
}
    .animate__animated.animate__repeat-1 {
          -webkit-animation-iteration-count: 1;
          animation-iteration-count: 1;
          -webkit-animation-iteration-count: var(--animate-repeat);
          animation-iteration-count: var(--animate-repeat);
        }
    .animate__animated.animate__delay-1s {
          -webkit-animation-delay: 1s;
          animation-delay: 1s;
          -webkit-animation-delay: var(--animate-delay);
          animation-delay: var(--animate-delay);
        }
    .animate__animated.animate__faster {
          -webkit-animation-duration: calc(1s / 2);
          animation-duration: calc(1s / 2);
          -webkit-animation-duration: calc(var(--animate-duration) / 2);
          animation-duration: calc(var(--animate-duration) / 2);
        }</style>
  <g class="animate__animated animate__zoomIn animate__repeat-1 animate__delay-1s animate__faster" id="svg_11">
   <g id="svg_706">
    <ellipse ry="65.464" rx="60.149" cy="214.54" cx="598.084" fill="#7C4C36" id="svg_666"/>
    <path d="m583.654,279.938c0,0 -10.102,1.248 -17.842,22.304c-6.298,17.12 -13.578,29.188 -13.578,29.188l-7.019,6.562l0.982,2.099c0,0 -4.46,1.182 6.035,-1.771l0.459,1.181c0,0 1.771,2.688 3.87,-2.819c0,0 14.234,-17.384 14.89,-21.318c0,0 9.84,-13.775 10.495,-18.694" fill="#FBB997" id="svg_667"/>
    <path d="m629.241,310.309l-6.626,17.974c3.674,0.854 4.725,3.739 4.789,6.493c4.396,-6.034 10.758,-16.137 10.758,-23.285c0,-10.889 -24.271,-28.665 -24.271,-28.665l6.69,18.629l8.66,8.854l0,0z" fill="#FBB997" id="svg_668"/>
    <polyline points="590.016,267.605 590.016,282.955 605.89,282.955 605.89,267.605   " fill="#FBB997" id="svg_664"/>
    <path d="m623.732,341.663c-0.196,-0.853 -6.034,-20.466 -5.903,-25.91c0.197,-7.544 10.3,-29.255 2.23,-29.714c-6.822,-0.395 -13.447,-10.496 -26.566,-9.512c0,0 -12.922,3.606 -17.316,8.396c-4.396,4.788 2.952,22.958 2.952,30.829c0,5.707 -9.053,22.696 -10.823,29.648c-2.165,8.527 -2.755,31.945 -2.755,31.945l0.983,35.421c0,0 -4.525,3.346 -6.166,5.575c-0.328,0.459 -0.787,0.918 -1.313,1.509l17.252,0c-0.065,-1.901 -0.328,-4.133 -1.05,-6.101l10.495,-32.602l7.411,-26.959l4.724,-1.574c0,0 2.688,11.873 2.296,26.566c-0.394,13.381 -0.655,28.795 -0.196,33.52l0,0c0,0 -0.787,3.804 -1.378,7.215l18.891,0c-2.1,-1.443 -7.149,-7.215 -7.149,-7.215l9.772,-33.52c0,-0.062 6.561,-27.022 3.609,-37.517l0,0z" fill="#FBB997" id="svg_663"/>
    <path d="m569.091,346.714c0,0 -3.148,0.983 -3.607,14.431c-0.459,13.448 0,52.148 0,52.148l-8.199,7.02l20.007,0l-0.983,-5.707l16.727,-59.43l5.052,-1.641l2.03,16.465c0,0 -0.523,40.014 0,43.097l-1.968,7.215l20.072,0l-6.561,-7.347c0,0 17.776,-57.264 13.055,-65.136" fill="#333333" id="svg_662"/>
    <path d="m552.823,338.055l-11.545,-0.522c-1.836,-0.066 -3.477,1.377 -3.542,3.213l-0.196,4.92c-0.064,1.837 1.378,3.478 3.215,3.543l0,0c-0.264,-0.591 -0.395,-1.246 -0.328,-1.969l0.197,-4.919c0.064,-1.838 1.245,-3.346 2.558,-3.28l8.199,0.396c1.313,0.063 2.296,1.639 2.229,3.477l-0.196,4.919c0,0.722 -0.196,1.378 -0.524,1.901c1.641,-0.195 2.887,-1.508 2.952,-3.213l0.195,-4.92c0.132,-1.84 -1.311,-3.413 -3.214,-3.546z" fill="#414042" id="svg_669"/>
    <path d="m606.153,287.219c0,0 -4.001,19.549 -9.184,24.205c0,0 -10.89,-13.775 -8.79,-23.877c2.1,-10.035 -4.525,3.28 -4.525,3.28l-4.396,12.2l8.921,17.449l17.711,2.099l8.659,-32.076l-8.396,-3.28l0,0z" fill="#CFCECE" id="svg_670"/>
    <path d="m615.795,280.396c-1.771,-1.705 3.737,6.756 1.114,4.985c0,0 -11.479,7.806 -19.22,9.38c-11.413,-0.919 -16.53,-9.839 -16.53,-9.839c-9.511,3.148 -11.676,1.968 -13.119,8.199c-1.508,6.231 -17.514,37.717 -17.514,37.717l7.216,6.888l18.629,-27.549c0,0 0.196,11.149 -0.655,14.692c-1.442,6.297 -10.823,23.153 -10.823,23.153c7.544,2.757 27.616,0.724 32.142,0.197c4.657,0.854 24.141,3.937 29.388,-0.853c0,0 -3.148,-8.593 -5.183,-19.285c1.05,0.459 4.198,2.296 4.526,8.067l1.181,0.328c0,0 6.821,-8.92 8.594,-12.201c1.64,-3.082 4.395,-14.232 4.395,-14.232s-14.433,-25.186 -24.141,-29.647l0,0zm5.379,47.034c-1.182,-6.625 -1.902,-14.037 -1.182,-20.531l6.493,4.525l-5.311,16.006l0,0z" fill="#F1F2F2" id="svg_661"/>
    <circle r="2.099" cy="328.085" cx="599.724" fill="#414042" id="svg_671"/>
    <circle r="2.099" cy="340.089" cx="599.921" fill="#414042" id="svg_672"/>
    <path d="m501.856,353.208" fill="#484748" id="svg_673"/>
    <rect height="0.525" width="29.45" fill="#282828" transform="matrix(0.0305,-0.9995,0.9995,0.0305,140.601,873.6453) " y="364.081" x="505.934" id="svg_674"/>
    <path d="m566.139,376.822c0,0.59 -0.524,0.984 -1.049,0.984l-41.981,2.164l-3.147,-1.051c-0.591,0 -1.05,-0.459 -0.983,-1.05l0.918,-30.238c0,-0.591 0.524,-0.983 1.05,-0.983l44.998,1.377c0.591,0 1.05,0.459 0.984,1.05l-0.79,27.747l0,0z" fill="#414042" id="svg_660"/>
    <path d="m569.287,377.807c0,0.59 -0.524,1.049 -1.05,0.983l-45.063,1.181c-0.591,0 -1.05,-0.525 -0.984,-1.049l0.984,-31.093c0,-0.591 0.523,-1.05 1.049,-0.983l44.999,1.377c0.59,0 1.049,0.525 0.982,1.049l-0.917,28.535l0,0z" fill="#414042" id="svg_659"/>
    <path d="m587.524,276.33c0,0 4.46,0.918 10.167,0.984c3.214,0.064 6.888,-0.197 10.299,-0.984c0,0 -0.591,2.82 0.983,3.607c2.952,1.442 9.184,1.573 11.021,3.346c2.82,2.756 20.006,25.779 20.006,25.779s1.902,12.987 -11.74,25.713c0,0 -0.395,-6.56 -5.248,-7.479l3.083,-12.268l-4.592,-4.92l0.132,15.875c0,0 10.298,29.388 1.968,53.984c0,0 -10.036,2.297 -16.858,3.542l-9.772,3.148l-0.264,-10.495l-1.509,-9.38l-5.116,19.875c0,0 -21.317,-0.918 -25.713,-6.69c0,0 -2.952,-23.09 7.807,-49.853l4.197,-17.12l-17.383,23.418l-8.526,-7.02l21.516,-44.474c0,0 7.019,-4.657 13.118,-5.511c2.62,-0.321 1.111,-2.946 2.424,-3.077z" fill="#414042" id="svg_658"/>
    <path d="m611.99,411.653c-4.001,0.064 -8.003,0.064 -12.004,0.064c0,0.656 0.065,1.115 0.131,1.378l-1.968,7.215l20.072,0l-6.561,-7.347c-0.063,0.002 0.068,-0.457 0.33,-1.31l0,0z" fill="#262626" id="svg_675"/>
    <path d="m577.158,411.719c-3.87,0 -7.739,-0.064 -11.676,-0.064c0,1.05 0,1.64 0,1.64l-8.199,7.02l20.006,0l-0.982,-5.707l0.851,-2.889l0,0z" fill="#262626" id="svg_676"/>
    <path d="m598.609,279.479c0,0 -1.246,73.467 -4.132,77.929l0.523,-1.705l3.148,-75.896l0.461,-0.328z" opacity="0.26" id="svg_677"/>
    <circle r="2.099" cy="317.13" cx="597.56" fill="#E6E7E8" id="svg_678"/>
    <g transform="matrix(0.6559515338678319,0,0,0.6559515338678319,-1859.363635564514,-969.5795185168972) " id="svg_679">
     <path d="m3627.38,2008.69l0,0c-0.099,0 -0.099,0 0,0z" fill="url(#svg_680_1_)" id="svg_680"/>
     <g id="svg_681">
      <g id="svg_682">
       <path d="m3702.481,2008.591c0,0 -37.401,-4.901 -74.5,-2.401c-0.5,0 -0.701,2.2 -0.701,2.401c0.701,-0.1 4.901,-0.201 4.901,0.6l-0.5,14.801l42.3,11.897l29.499,-11.8l0.4,-13.799c0.202,-0.901 -0.499,-1.6 -1.399,-1.699z" fill="#414042" id="svg_656"/>
      </g>
      <g id="svg_1">
       <g id="svg_2">
        <defs>
         <path d="m3702.481,2008.591c0,0 -37.401,-4.901 -74.5,-2.401c-0.5,0 -0.701,2.2 -0.701,2.401c0.701,-0.1 4.901,-0.201 4.901,0.6l-0.5,14.801l42.3,11.897l29.499,-11.8l0.4,-13.799c0.202,-0.901 -0.499,-1.6 -1.399,-1.699z" id="SVGID_1_"/>
         <linearGradient y2="-Infinity" x2="1.03972" y1="-Infinity" x1="0.54946" id="svg_680_1_">
          <stop stop-color="#717171" offset="0"/>
          <stop stop-color="#282828" offset="1"/>
         </linearGradient>
        </defs>
        <clipPath id="SVGID_2_">
         <use id="svg_3" xlink:href="#SVGID_1_" xmlns:xlink="http://www.w3.org/1999/xlink"/>
        </clipPath>
        <path d="m3626.281,2007.79l6.698,0.199l-0.198,15.5l41.8,11.301l30.1,-13l-0.201,7.2c0,0 -6,3.5 -6.5,3.6s-15.699,4.2 -18.501,4.999c-2.799,0.801 -8.099,0.6 -10.898,0.5c-2.801,-0.1 -20.402,-5.4 -21.8,-5.599c-1.502,-0.201 -15.3,-5.8 -15.3,-5.702c0,0.101 -6.802,-6.399 -6.802,-6.399s-2.498,-9.899 1.602,-12.599l0,0z" fill="#282828" clip-path="url(#SVGID_2_)" id="svg_684"/>
       </g>
      </g>
      <g id="svg_4">
       <g id="svg_5">
        <defs>
         <path d="m3702.481,2008.591c0,0 -37.401,-4.901 -74.5,-2.401c-0.5,0 -0.701,2.2 -0.701,2.401c0.701,-0.1 4.901,-0.201 4.901,0.6l-0.5,14.801l42.3,11.897l29.499,-11.8l0.4,-13.799c0.202,-0.901 -0.499,-1.6 -1.399,-1.699z" id="SVGID_3_"/>
        </defs>
        <clipPath id="SVGID_4_">
         <use id="svg_6" xlink:href="#SVGID_3_" xmlns:xlink="http://www.w3.org/1999/xlink"/>
        </clipPath>
        <path d="m3690.98,2001.89c0,0 1.8,28.199 1.7,30.2c-0.101,2.002 13.198,-11.4 13.198,-11.4l-3.399,-20.901c0,0 -9.701,-3.799 -11.9,1.1" clip-path="url(#SVGID_4_)" opacity="0.13" id="svg_685"/>
       </g>
      </g>
     </g>
    </g>
    <circle r="2.099" cy="332.217" cx="597.56" fill="#E6E7E8" id="svg_686"/>
    <circle r="2.099" cy="303.421" cx="597.56" fill="#E6E7E8" id="svg_687"/>
    <circle r="2.099" cy="288.859" cx="597.821" fill="#E6E7E8" id="svg_688"/>
    <polygon points="570.337,339.63 588.179,335.497 588.179,343.564     587.065,337.531   " opacity="0.26" id="svg_689"/>
    <polygon points="621.502,339.63 603.594,335.497 603.594,343.564     604.709,337.531   " opacity="0.26" id="svg_690"/>
    <circle r="2.099" cy="346.78" cx="597.297" fill="#E6E7E8" id="svg_691"/>
    <circle r="2.099" cy="363.768" cx="595.723" fill="#E6E7E8" id="svg_692"/>
    <path d="m621.828,328.413l-3.278,1.312l0.195,3.478c-5.902,7.216 4.002,6.429 4.002,6.429s1.378,-1.64 3.279,-4.264c-0.26,-4.136 -2.164,-6.037 -4.198,-6.955l0,0z" fill="#FBB997" id="svg_693"/>
    <path d="m547.773,334.644c0,0 -4.788,3.278 -4.329,5.51c0.459,2.23 1.771,0.854 2.755,0.918c0,0 4.001,1.182 6.297,-0.655c0.525,-0.46 0.133,-1.442 1.247,-2.099c1.048,-0.722 1.18,-8.724 -5.97,-3.674l0,0z" fill="#FBB997" id="svg_694"/>
    <path d="m644.854,222.411c0.065,-0.918 0.065,-1.837 0.065,-2.755c0,-27.681 -20.926,-50.181 -46.835,-50.181c-25.846,0 -46.836,22.434 -46.836,50.181c0,0.984 0,1.968 0.065,2.952l0,0c0,0 -9.773,-5.51 -10.102,6.56c-0.328,12.068 12.331,18.301 14.823,13.709l0,0c7.609,18.104 23.549,32.143 41.981,32.143c18.301,0 34.108,-13.842 41.85,-31.748c3.019,3.805 14.891,-2.428 14.563,-14.104c-0.194,-10.43 -7.672,-7.609 -9.574,-6.757l0,0z" fill="#FBB997" id="svg_654"/>
    <circle r="6.56" cy="229.233" cx="574.534" fill="#5C323A" id="svg_653"/>
    <circle r="6.56" cy="229.233" cx="621.109" fill="#5C323A" id="svg_652"/>
    <circle r="2.296" cy="226.806" cx="572.238" fill="#FFFFFF" id="svg_695"/>
    <circle r="2.296" cy="226.806" cx="618.813" fill="#FFFFFF" id="svg_696"/>
    <path d="m593.491,246.156c0,0 5.379,4.525 10.562,0c0,0 -3.87,-2.492 -1.313,-9.643c0,0 -1.312,7.479 3.411,9.381c0,0.066 -6.886,7.543 -12.66,0.262z" fill="#C56266" id="svg_697"/>
    <path d="m598.084,259.734c-6.494,0 -11.808,-2.756 -12.528,-6.362c-0.066,0.263 -0.066,0.524 -0.066,0.787c0,3.936 5.643,7.149 12.595,7.149c6.953,0 12.595,-3.215 12.595,-7.149c0,-0.263 0,-0.524 -0.065,-0.787c-0.659,3.542 -6.038,6.362 -12.531,6.362l0,0z" fill="#C56266" id="svg_698"/>
    <ellipse ry="3.608" rx="12.267" cy="242.615" cx="572.896" fill="#C56266" opacity="0.19" id="svg_699"/>
    <ellipse ry="3.608" rx="12.267" cy="242.615" cx="623.338" fill="#C56266" opacity="0.19" id="svg_700"/>
    <path d="m552.758,229.232c0,0 -3.478,-3.607 -6.756,-2.033c-3.28,1.574 -1.51,7.084 1.312,9.381c0,0 -2.493,-5.707 0.459,-7.281s4.985,-0.067 4.985,-0.067z" fill="#DE8179" id="svg_701"/>
    <path d="m643.081,229.232c0,0 3.478,-3.607 6.758,-2.033c3.278,1.574 1.509,7.084 -1.313,9.381c0,0 2.493,-5.707 -0.459,-7.281c-2.885,-1.641 -4.986,-0.067 -4.986,-0.067z" fill="#DE8179" id="svg_702"/>
    <path d="m612.975,215.852c0,0 9.642,-8.265 19.021,2.886c0,0 -10.035,-16.99 -19.021,-2.886z" fill="#8B563A" id="svg_703"/>
    <path d="m583.193,215.852c0,0 -9.643,-8.265 -19.022,2.886c0,0 10.035,-16.99 19.022,-2.886z" fill="#8B563A" id="svg_704"/>
    <path d="m634.029,224.444c-2.755,-2.427 -7.74,-4.066 -13.447,-4.066c-5.379,0 -10.102,1.443 -12.922,3.673c-3.083,0 -6.23,0 -9.512,0c-3.214,0 -6.362,0 -9.445,0c-2.887,-1.968 -7.347,-3.279 -12.463,-3.279c-5.443,0 -10.168,1.443 -13.054,3.673c-11.086,0.328 -16.202,0.787 -16.202,1.312c0,0.525 13.447,2.625 13.447,3.412c0,2.164 1.574,4.132 4.065,5.642c-1.312,-1.246 -2.099,-2.689 -2.099,-4.265c0,-4.461 6.297,-8.134 14.104,-8.134c7.806,0 14.104,3.607 14.104,8.134c0,1.05 -0.328,2.033 -0.984,3.019c1.443,-1.246 2.297,-2.756 2.297,-4.396c0,-0.591 4,-1.642 6.166,-1.642c2.36,0 6.756,0.854 6.756,1.246c0,1.902 1.182,3.675 3.215,5.052c-0.984,-1.115 -1.509,-2.361 -1.509,-3.673c0,-4.461 6.297,-8.134 14.103,-8.134c7.807,0 14.104,3.607 14.104,8.134c0,1.246 -0.525,2.427 -1.378,3.477c1.837,-1.378 2.951,-3.083 2.951,-4.92c0,-0.59 10.954,-2.559 10.954,-3.018c-0.065,-0.459 -2.754,-0.919 -13.251,-1.247z" fill="#414042" id="svg_705"/>
    <ellipse ry="8.134" rx="14.628" cy="229.954" cx="620.518" fill="#D1D3D4" opacity="0.51" id="svg_651"/>
    <ellipse ry="8.134" rx="14.628" cy="229.954" cx="576.503" fill="#D1D3D4" opacity="0.51" id="svg_650"/>
    <path d="m585.096,191.975c0,0 -5.575,15.546 17.646,26.763c0,0 -6.23,-14.563 -1.837,-24.598c0,0 -0.787,11.348 12.069,20.334c0,0 -2.886,-16.858 2.165,-20.334c0,0 1.312,15.087 21.317,24.598c0,0 -7.216,-13.775 -3.41,-21.122c0,0 12.068,17.055 0,63.627c0,0 24.663,-32.601 16.398,-72.811c-8.266,-40.209 -56.478,-51.623 -86.586,-28.862c-30.108,22.762 -18.563,79.567 -2.033,101.672c0,0.067 -15.02,-48.736 24.271,-69.267z" fill="#8B563A" id="svg_649"/>
   </g>
  </g>
 </g>
</svg>