<svg xmlns="http://www.w3.org/2000/svg" xmlns:xlink="http://www.w3.org/1999/xlink" version="1.1" x="0px" y="0px" height="450px" width="800px" viewBox="0 0 800 450" style="enable-background:new 0 0 800 450;" xml:space="preserve"><g><title>background</title><rect fill="#fff" id="canvas_background" height="450" width="800" y="-1" x="-1"/></g>
<style type="text/css">
	.st0{fill-rule:evenodd;clip-rule:evenodd;fill:#D8EFF7;}
	.st1{fill-rule:evenodd;clip-rule:evenodd;fill:#FFFFFF;}
	.st2{fill-rule:evenodd;clip-rule:evenodd;fill:#A7D5E0;}
	.st3{fill-rule:evenodd;clip-rule:evenodd;fill:#CEEBF6;}
	.st4{fill-rule:evenodd;clip-rule:evenodd;fill:#B1B6B7;}
	.st5{fill-rule:evenodd;clip-rule:evenodd;fill:#A0A6A7;}
	.st6{fill-rule:evenodd;clip-rule:evenodd;fill:#C0E3ED;}
	.st7{fill-rule:evenodd;clip-rule:evenodd;fill:#7DB3C1;}
	.st8{fill-rule:evenodd;clip-rule:evenodd;fill:#F7FBFF;}
	.st9{fill-rule:evenodd;clip-rule:evenodd;fill:#2CB7D3;}
	.st10{fill-rule:evenodd;clip-rule:evenodd;fill:#4E4E4E;}
	.st11{fill-rule:evenodd;clip-rule:evenodd;fill:#343433;}
	.st12{fill:#EEC09B;}
	.st13{fill:#191C19;}
	.st14{fill:#B6CAD5;}
	.st15{fill:#AB2A02;}
	.st16{fill:#BD7133;}
	.st17{fill:#D48041;}
	.st18{fill:#90592A;}
	.st19{fill:#DBA77F;}
	.st20{fill:none;}
	.st21{fill:#3D3D3D;}
	.st22{fill:#17120E;}
	.st23{fill:#FFFFFF;}
	.st24{fill:#9DD87D;}
	.st25{fill:#7FC5D6;}
	.st26{fill:#1C2528;}
	.st27{fill:#2B2B2B;}
	.st28{fill:#352311;}
	.st29{fill:#111719;}
   #plan{
    animation : fly 5s ease-in-out infinite
    }
    @keyframes fly{
    0%{
    transform : translate(0,0)
    }
    100%{
    transform : translate(900px,-450px)
    }
    }
    #agent{
   
    animation : walk 5s ease-in-out infinite
    }
    @keyframes walk{
    0%{
    transform : translate(0)
    }
    50%{
    transform : translateX(-600px)
    }
    100%{
    transform : translateX(-600px)
    }
    }
    #BRAZO_IZQ ,#CARA{
    animation : armMove 5s ease-in-out infinite;
    }
    @keyframes armMove{
    0%,50%{
    visibility : visible
    }
    
    55%,100%{
    visibility : hidden
    }
   }
    #BRAZO_IZQ-2 ,#CARA-2{
    animation : armMove2 5s ease-in-out infinite;
    }
    @keyframes armMove2{
    0%,50%{
    visibility : hidden
    }
    
    55%,100%{
    visibility : visible
    }
   }
    #finger_1{
    animation : point 5s ease-in-out infinite
    }
    @keyframes point{
    0%,60%{
    transform : translate(0)
    }
    70%{
     transform : translate(-8px,-5px)
    }
   
    80%{
    transform : translate(0)
    }
    90%{
     transform : translate(-8px,-5px)
    }
   
    100%{
    transform : translate(0)
    }
    }
    #OJOS{
    animation : blink 5s ease-in-out infinite
    }
    @keyframes blink{
    0%,20%{
    visibility : visible
    }
    30%,35%{
    visibility : hidden
    }
    40%,65%{
    visibility : visible
    }
    70%,75%{
     visibility : hidden
    }
    80%,100%{
    visibility : visible
    }
    }
    #OJOS_1{
    animation : blink2 5s ease-in-out infinite
    }
    @keyframes blink2{
    
    65%,70%{
     visibility : hidden
    }
    75%,100%{
    visibility : visible
    }
    }
</style>
<g id="BACK">
	<rect x="-9.8" y="-198.7" class="st0" width="879.7" height="879.7"/>
	<path class="st1" d="M527.5,32.1c2.6,0,4.9,0.9,6.8,2.4c0.3-10.5,8.9-18.9,19.4-18.9c8.1,0,15,4.9,17.9,12c0.9-0.1,1.8-0.2,2.7-0.2   c4.2,0,8,1.3,11.2,3.5c3.7-5.3,9.8-8.8,16.8-8.8c1.5,0,3,0.2,4.5,0.5c2.2-8.4,9.9-14.6,19.1-14.6c8.7,0,16,5.6,18.7,13.4   c3.3-2.1,7.2-3.4,11.4-3.4c11.3,0,20.5,9,20.9,20.2c1.7-0.5,3.5-0.8,5.3-0.8c4,0,7.8,1.3,10.8,3.5h-176   C517.8,35.9,522.2,32.1,527.5,32.1z"/>
	<polygon class="st2" points="869.9,331.3 869.9,530.2 780.7,530.2 780.7,556.9 742.1,556.9 650.6,556.9 650.6,622.5 515.6,622.5    515.6,591.7 426.4,591.7 398.1,591.7 349.3,591.7 349.3,571.2 284.2,571.2 284.2,493.3 262.5,493.3 262.5,517.9 190.2,517.9    190.2,491.2 130,491.2 130,489.2 110.7,489.2 60.1,489.2 -9.8,489.2 -9.8,308.7 9.2,308.7 9.2,267.4 60.1,245.1 112.5,245.1    112.5,204.1 151.7,204.1 151.7,245.1 163.7,245.1 163.7,345.6 190.2,345.6 190.2,300.5 211.9,300.5 211.9,287.7 258.9,287.7    258.9,300.5 262.5,300.5 262.5,364.1 284.2,364.1 284.2,325.1 294.2,325.1 294.2,312.5 316.5,312.5 316.5,325.1 349.3,325.1    349.3,259.5 369.8,247.2 414.4,247.2 414.4,259.5 426.4,259.5 426.4,353.8 491.5,353.8 491.5,204.1 499.9,204.1 499.9,170.8    510.8,170.8 510.8,204.1 530,204.1 530,353.8 571,353.8 571,386.6 597.5,386.6 597.5,261.5 624.6,204.1 640.9,204.1 640.9,190.3    676.5,190.3 696.4,204.1 696.4,261.5 742.1,261.5 742.1,331.3 795.2,331.3 795.2,224.6 805.4,211.8 831.9,211.8 831.9,224.6    841,224.6 841,331.3  "/>
	<path class="st3" d="M98-198.7h53.9v307h282.3v-307h53.9v307h282.3v-307h53.9v307h45.4v35.1h-45.4v301h-53.9v-301H488.2v301h-12.9   c-9.4,0-18.8,0-28.2,0h-12.9v-301H151.9v301H98v-301H-9.8v-35.1H98V-198.7z"/>
	<rect x="-9.8" y="571.2" class="st4" width="879.7" height="109.8"/>
	<rect x="-9.8" y="431.5" class="st5" width="879.7" height="145"/>
	<path class="st6" d="M824.5,211.8v232.6h-53.9V331.3h24.6V224.6l10.2-12.8H824.5L824.5,211.8z M488.2,353.8v90.6h-12.9   c-9.4,0-18.8,0-28.2,0h-12.9v-90.6H488.2L488.2,353.8z M151.9,245.1v199.3H98V245.1h14.5v-41h39.2v41H151.9z"/>
	<path id="plan" class="st7" d="M-451.3,300.3l315.2-137c24.8-10.8,94-4.9,104.8,19.9c10.8,24.8-40.9,59.4-65.7,70.2l-176.5,76.7   c8.5,1.4,14.2,8.2,18,17c5.9,13.5,5.3,26.8-13.1,34.8c-18.4,8-47.7,7.7-53.6-5.8c-3.8-8.8,3.2-21,13.7-30.7l-92.8,40.3   c-24.3,10.6-111.2,25.2-124.7,2.4l-22.2,9.6c-4.7,2-10.2-0.1-12.3-4.8l0,0c-2-4.7,0.1-10.2,4.8-12.3l22.1-9.6l-10.7-24.7   l-77.1-57.1l-37.5,16.3l-8.9-6.6l103.4-44.9L-451.3,300.3z"/>
	<path id="windows" class="st8" d="M447.1-198.7c9.4,0,18.8,0,28.2,0v301h308.1v-301h28.2v301h58.3v28.2h-58.3v301h-28.2v-301H475.3   v301c-9.4,0-18.8,0-28.2,0v-301H139.1v301h-28.2v-301H-9.8v-28.2h120.7v-301h28.2v301h308.1V-198.7z"/>
	<g id="chairs">
		<path class="st9" d="M116.2,323.5L116.2,323.5c32.9,0,59.7,26.9,59.7,59.7v49.7c0,10.7-8.8,19.5-19.5,19.5H76    c-10.7,0-19.5-8.8-19.5-19.5v-49.7C56.5,350.4,83.4,323.5,116.2,323.5z"/>
		<path class="st9" d="M69.3,490.6h94c7,0,12.8-5.7,12.8-12.8v-8.6c0-2.3-1.9-4.2-4.2-4.2H60.7c-2.3,0-4.2,1.9-4.2,4.2v8.6    C56.5,484.9,62.2,490.6,69.3,490.6z"/>
		<path class="st9" d="M272,323.5L272,323.5c32.9,0,59.7,26.9,59.7,59.7c0,16.6,0,33.1,0,49.7c0,10.7-8.8,19.5-19.5,19.5    c-26.8,0-53.7,0-80.5,0c-10.7,0-19.5-8.8-19.5-19.5c0-16.6,0-33.1,0-49.7C212.2,350.4,239.1,323.5,272,323.5z"/>
		<path class="st9" d="M225,490.6c31.3,0,62.6,0,94,0c7,0,12.8-5.7,12.8-12.8c0-2.9,0-5.7,0-8.6c0-2.3-1.9-4.2-4.2-4.2    c-37.1,0-74.1,0-111.2,0c-2.3,0-4.2,1.9-4.2,4.2c0,2.9,0,5.7,0,8.6C212.2,484.9,218,490.6,225,490.6z"/>
		<path class="st9" d="M427.7,323.5L427.7,323.5c32.9,0,59.7,26.9,59.7,59.7c0,16.6,0,33.1,0,49.7c0,10.7-8.8,19.5-19.5,19.5    c-26.8,0-53.7,0-80.5,0c-10.7,0-19.5-8.8-19.5-19.5c0-16.6,0-33.1,0-49.7C368,350.4,394.9,323.5,427.7,323.5z"/>
		<path class="st9" d="M380.7,490.6c31.3,0,62.6,0,94,0c7,0,12.8-5.7,12.8-12.8c0-2.9,0-5.7,0-8.6c0-2.3-1.9-4.2-4.2-4.2    c-37.1,0-74.1,0-111.2,0c-2.3,0-4.2,1.9-4.2,4.2c0,2.9,0,5.7,0,8.6C368,484.9,373.7,490.6,380.7,490.6z"/>
		<path class="st9" d="M583.4,323.5L583.4,323.5c32.9,0,59.7,26.9,59.7,59.7c0,16.6,0,33.1,0,49.7c0,10.7-8.8,19.5-19.5,19.5    c-26.8,0-53.7,0-80.5,0c-10.7,0-19.5-8.8-19.5-19.5c0-16.6,0-33.1,0-49.7C523.7,350.4,550.6,323.5,583.4,323.5z"/>
		<path class="st9" d="M536.5,490.6c31.3,0,62.6,0,94,0c7,0,12.8-5.7,12.8-12.8c0-2.9,0-5.7,0-8.6c0-2.3-1.9-4.2-4.2-4.2    c-37.1,0-74.1,0-111.2,0c-2.3,0-4.2,1.9-4.2,4.2c0,2.9,0,5.7,0,8.6C523.7,484.9,529.4,490.6,536.5,490.6z"/>
		<path class="st9" d="M739.2,323.5L739.2,323.5c32.9,0,59.7,26.9,59.7,59.7v49.7c0,10.7-8.8,19.5-19.5,19.5h-80.5    c-10.7,0-19.5-8.8-19.5-19.5v-49.7C679.4,350.4,706.3,323.5,739.2,323.5z"/>
		<path class="st9" d="M692.2,490.6h94c7,0,12.8-5.7,12.8-12.8v-8.6c0-2.3-1.9-4.2-4.2-4.2H683.6c-2.3,0-4.2,1.9-4.2,4.2v8.6    C679.4,484.9,685.2,490.6,692.2,490.6z"/>
	</g>
	<path class="st1" d="M394-112.1c5.9-4.3,9.7-11.3,9.7-19.2c0-13.2-10.7-23.8-23.8-23.8c-12.1,0-22,9-23.6,20.6   c-3.3-1.4-6.8-2.1-10.6-2.1c-1.2,0-2.4,0.1-3.5,0.2c-0.9-16-14.1-28.7-30.3-28.7c-15,0-27.5,11-29.9,25.3c-2-0.5-4.1-0.7-6.2-0.7   c-6.1,0-11.7,2.1-16.2,5.5c-4.6-6.2-12-10.1-20.3-10.1c-10.6,0-19.6,6.4-23.4,15.6c-1.1-0.2-2.3-0.2-3.5-0.2   c-8.5,0-16.1,4.2-20.7,10.6c-1.8-5.7-7.2-9.9-13.5-9.9c-7.9,0-14.2,6.4-14.2,14.2c0,0.9,0.1,1.8,0.3,2.7H394z"/>
	<path class="st1" d="M188.5,11.3L188.5,11.3c0.1-8.2,5.8-15.1,13.4-17.2c4-7.8,12.1-13.1,21.5-13.1c7.6,0,14.3,3.5,18.7,8.9   c4.2-6.1,11.3-10.1,19.3-10.1c11.6,0,21.2,8.4,23.1,19.4c4.7,0.8,8.9,3.1,12.1,6.4c2.9-4.1,7.6-6.7,13-6.7   c8.8,0,15.9,7.1,15.9,15.9c0,0.1,0,0.1,0,0.2h-144C183,12.7,185.6,11.3,188.5,11.3z"/>
	<path class="st1" d="M751.3-97.9c-0.1-10-7.1-18.3-16.4-20.5c-1.7-9.5-10-16.7-20.1-16.7c-3.8,0-7.3,1-10.3,2.8   c-4-2-8.5-3.1-13.3-3.1c-8.8,0-16.8,3.9-22.2,10c-3-2.3-6.7-3.6-10.8-3.6c-7.8,0-14.4,5-16.8,11.9c-2.8-8.7-10.9-15.1-20.6-15.1   c-9.9,0-18.3,6.7-20.8,15.9c-2.6-1-5.4-1.5-8.4-1.5c-5.7,0-10.9,2-15.1,5.2c-2.2-2.7-5.5-4.4-9.3-4.4c-6.6,0-12,5.4-12,12   c0,2.7,0.9,5.2,2.4,7.2H751.3z"/>
	<rect x="37.1" y="479" class="st10" width="784" height="25.5"/>
	<rect x="95.8" y="452.3" class="st11" width="40.9" height="6.2"/>
	<path class="st11" d="M251.5,452.3c13.6,0,27.3,0,40.9,0c0,2.1,0,4.1,0,6.2c-13.6,0-27.3,0-40.9,0   C251.5,456.5,251.5,454.4,251.5,452.3z"/>
	<path class="st11" d="M407.2,452.3c13.6,0,27.3,0,40.9,0c0,2.1,0,4.1,0,6.2c-13.6,0-27.3,0-40.9,0   C407.2,456.5,407.2,454.4,407.2,452.3z"/>
	<path class="st11" d="M563,452.3c13.6,0,27.3,0,40.9,0c0,2.1,0,4.1,0,6.2c-13.6,0-27.3,0-40.9,0C563,456.5,563,454.4,563,452.3z"/>
	<rect x="718.7" y="452.3" class="st11" width="40.9" height="6.2"/>
	<g>
		<rect x="37.1" y="499.2" class="st10" width="17.5" height="77.4"/>
		<rect x="37.1" y="504.5" class="st11" width="17.5" height="6.9"/>
	</g>
	<g>
		<g>
			<path class="st10" d="M292.6,499.2c5.8,0,11.6,0,17.5,0c0,25.8,0,51.6,0,77.4c-5.8,0-11.6,0-17.5,0     C292.6,550.7,292.6,524.9,292.6,499.2z"/>
			<path class="st11" d="M310.1,504.5c-5.8,0-11.6,0-17.5,0c0,2.3,0,4.6,0,6.9c5.8,0,11.6,0,17.5,0     C310.1,509.1,310.1,506.8,310.1,504.5z"/>
		</g>
		<g>
			<path class="st10" d="M548.1,499.2c5.8,0,11.6,0,17.5,0c0,25.8,0,51.6,0,77.4c-5.8,0-11.6,0-17.5,0     C548.1,550.7,548.1,524.9,548.1,499.2z"/>
			<path class="st11" d="M565.6,504.5c-5.8,0-11.6,0-17.5,0c0,2.3,0,4.6,0,6.9c5.8,0,11.6,0,17.5,0     C565.6,509.1,565.6,506.8,565.6,504.5z"/>
		</g>
	</g>
	<g>
		<rect x="803.6" y="499.2" class="st10" width="17.5" height="77.4"/>
		<rect x="803.6" y="504.5" class="st11" width="17.5" height="6.9"/>
	</g>
	<g id="New_Symbol">
	</g>
</g>
<g id="agent">
	<g id="CUERPO">
		<path id="XMLID_61_" class="st12" d="M991.7,314.8l15.9-18.7c0.4,0,0.8-0.4,0.8-0.9l-2.3-29.8c0-0.4-0.4-0.8-0.9-0.8l-15.2,1.2    c-0.4,0-0.8,0.4-0.8,0.9l2.3,29.8C991.5,297,991.2,314.8,991.7,314.8z"/>
		<path id="XMLID_60_" class="st13" d="M1025.5,397.6c0,0,14.8,70.4,40.3,177l-16.7,0.8l-53.7-139.2l-3.5,63.5c0,0,10.9,16,3.5,75.1    l-14.3,0.6l-22.4-155.1c0,0-4.1-14.8,4.3-22.8C963,397.6,1001.9,403.9,1025.5,397.6z"/>
		<g>
			<g>
				<path id="XMLID_43_" class="st14" d="M998.5,300.2l-3.6,11.8l-1.7-12.2l-6.7-4.7c0,0-6.9,0.2-11,4.8c0,0-9.7,22-5.9,33.8      c3.8,11.8-3.6,26.4-6,46.1c-2.3,19.1-1.8,24.4-1.8,24.4s10.1,3.7,25.8,5.5l4.6-11.8l5,11.8c0,0,19.1-0.1,29.9-6.6      c0,0-6.2-28-3.8-45.2c2.4-17.2,12-40.7,2.8-62.9c0,0-11.7,0.4-16.3-1.2L998.5,300.2z"/>
				<polygon id="XMLID_42_" class="st14" points="1010,289.7 996.3,300.7 1001.7,308.1 1011.8,294.4     "/>
				<polygon id="XMLID_41_" class="st14" points="991.3,289.5 995.4,300.1 991.3,307.1 988.4,294.2     "/>
			</g>
		</g>
		<polygon class="st15" points="989.2,306.1 994.4,318.5 1001.7,308.1 996.6,300.7   "/>
		<polygon class="st15" points="994.5,312.9 981.1,362.8 991.2,377.6 1005.3,362.8   "/>
	</g>
	<g id="BRAZO_DERE">
		<path class="st16" d="M1042.4,431.8l-3.7-13.6l35.6-6.7l3.6,13.5L1042.4,431.8z M1044.2,421.7l1.3,5l26.9-5.1l-1.3-5L1044.2,421.7    z"/>
		<path id="XMLID_64_" class="st12" d="M1047.9,391.5l-0.4,8.9c0,0-4.3,4.2-4.2,13.2c0.1,9,4.6,2.9,5.7-1c0,0-0.1,9.5,3.5,9.8    c0,0,6,1,7.3-1.7c0,0,4.8,0.4,5.9-2.3c0,0,4.4,1.4,5-2.7l-3.6,0.7c0,0-1.6-17-11.5-18.9l-1.3-7.7L1047.9,391.5z"/>
		<g>
			<polygon id="XMLID_63_" class="st16" points="1021.3,434.9 1032.1,486.4 1109.8,470.2 1096.9,418.1    "/>
			<polygon id="XMLID_62_" class="st17" points="1096.9,418.1 1021.3,434.9 1018.4,433.8 1094.8,416.9    "/>
			<polygon id="XMLID_56_" class="st18" points="1032.1,486.4 1029.8,485.5 1018.4,433.8 1021.3,434.9    "/>
		</g>
		<path id="XMLID_48_" class="st12" d="M1028.8,326.4L1028.8,326.4l-2.5-31.3c2.3,1.4,2.7,3.1,5.2,7.1    c10.1,15.9,27.2,53.6,27.2,53.6l-1.5,44.9l-9.3-0.5l-1.4-40.9L1028.8,326.4z"/>
		<polygon id="XMLID_47_" class="st14" points="1058.2,389.7 1058.4,398 1046.3,397.9 1046.4,389.8   "/>
		<path id="XMLID_46_" class="st14" d="M1026.3,295.1c0,0,3.8,1.5,13.3,19.5c9.5,18,19.1,41.2,19.1,41.2l0.3,35l-13.9-0.2l0.8-30.7    l-18.6-35.4C1027.3,324.6,1021.4,304.4,1026.3,295.1z"/>
	</g>
	<g id="BRAZO_IZQ">
		<g>
			<path id="XMLID_38_" class="st19" d="M908.8,366.8c0,0-7.3-9.9-10.3-21.5c0,0,2.7-0.8,3.8,3.6c1.1,4.2,6.2,9.6,6.2,9.6     L908.8,366.8z"/>
			<path id="XMLID_37_" class="st14" d="M974.6,296.8c0,0-12.3,3.7-13.8,17.6c-1.5,13.9-0.8,52.5-0.8,52.5l-35.7,1.4l0.8,8.9     c0,0,30.6,4.8,42.6,1.8C967.7,379,982.9,308.6,974.6,296.8z"/>
			<path id="XMLID_36_" class="st19" d="M908.8,366.8c0,0-6.7-11-5.1-21.4c0,0,2.1-0.6,2.4,3.1s3.3,12.1,5.7,13.1     C911.8,361.5,912,366.6,908.8,366.8z"/>
			<path id="XMLID_35_" class="st12" d="M927.5,374.1c0,0-15.7,3.5-19.7-1.3c-4.1-4.8-8.8-7.7-7.3-17.1c0,0,2.8,1,3.1,6.1     c0,0,1,4.8,8.5,6.6c0,0,5.4-3.4,11.7-1.1C923.7,367.2,928.3,370.8,927.5,374.1z"/>
			<path id="XMLID_34_" class="st14" d="M967.1,301.4c0,0-10.7,3.9-8.3,33.3c2.4,29.4-0.7,30.2-0.7,30.2s-2.9-1.2-2.9,0.5     c0,0-4.9-3.3-8.3,1.5l-0.4,12.8c0,0,15.2,4.2,21.1-0.6l5.8-28.5L967.1,301.4z"/>
			<polygon id="XMLID_33_" class="st20" points="947.2,366.5 937.1,367.3 937.5,378.8 946.9,379.6    "/>
		</g>
		<g id="phone_2">
			<g>
				<path class="st21" d="M924.3,376.7l1.5-1.8c3-3.5,2.8-8.1-0.6-10.1l-29.9-18.4c-3.4-2.1-8.5-0.9-11.6,2.6l-1.5,1.8      c-3,3.5-2.7,8.1,0.6,10.1l29.9,18.4C916.1,381.4,921.3,380.2,924.3,376.7z"/>
				<path class="st22" d="M927,373.5l1.5-1.8c3-3.5,2.8-8.1-0.6-10.1L898,343.2c-3.4-2.1-8.5-0.9-11.6,2.6l-1.5,1.8      c-3,3.5-2.8,8.1,0.6,10.1l29.9,18.4C918.9,378.2,924,377,927,373.5z"/>
			</g>
			<polygon class="st1" points="917.5,376.1 928.1,364.1 893.7,342.1 883.2,354.1    "/>
			<path class="st25" d="M904.8,364.3l3.7-4.3c0.8-1,0.8-2.2-0.2-2.8l-0.5-0.3c-0.9-0.6-2.3-0.2-3.2,0.7l-3.7,4.3     c-0.8,1-0.8,2.2,0.2,2.8l0.5,0.3C902.5,365.6,903.9,365.2,904.8,364.3z"/>
			<path class="st24" d="M898,354.6l3.7-4.4c0.8-1,0.8-2.2-0.2-2.8l-0.5-0.3c-0.9-0.6-2.3-0.2-3.2,0.7l-3.7,4.4     c-0.8,1-0.8,2.2,0.2,2.8l0.5,0.3C895.7,355.9,897.2,355.6,898,354.6z"/>
			<path class="st24" d="M917.1,366.8l3.7-4.4c0.8-1,0.8-2.2-0.2-2.8l-0.5-0.3c-0.9-0.6-2.3-0.2-3.2,0.7l-3.7,4.4     c-0.8,1-0.8,2.2,0.2,2.8l0.5,0.3C914.8,368.1,916.3,367.8,917.1,366.8z"/>
		</g>
		<path id="finger" class="st19" d="M919.6,351.2c1.7,4.6,0.8,7.1,0.8,7.1l7.6,4.1c0,0-0.9-5-3.7-8.8"/>
	</g>
    <g id="BRAZO_IZQ-2">
		<g>
			<path id="XMLID_8_" class="st19" d="M899.8,334.3c0,0-3-11.9-1.4-23.8c0,0,2.8,0.3,2.2,4.8c-0.6,4.3,2.1,11.2,2.1,11.2     L899.8,334.3z"/>
			<path id="XMLID_7_" class="st14" d="M987.2,294.3c0,0-12.8-1.2-19.4,11.1c-6.6,12.3-20.6,48.3-20.6,48.3l-33.6-12.2l-2.6,8.5     c0,0,26.5,16,38.8,17.7C949.7,367.8,990.4,308.3,987.2,294.3z"/>
			<path id="XMLID_6_" class="st19" d="M899.8,334.3c0,0-2.1-12.7,3.4-21.7c0,0,2.2,0.2,1.1,3.8s-1.5,12.5,0.3,14.3     C904.6,330.5,902.8,335.3,899.8,334.3z"/>
			<path id="XMLID_5_" class="st12" d="M914.4,348.1c0,0-15.9-2.7-17.8-8.6c-2-6-5.2-10.5-0.3-18.6c0,0,2.2,2,0.6,6.8     c0,0-0.9,4.8,5.4,9.3c0,0,6.3-1.1,11.2,3.4C913.5,340.3,916.4,345.3,914.4,348.1z"/>
			<path id="XMLID_4_" class="st14" d="M978.5,295.7c0,0-11.4-0.4-20.3,27.7c-8.9,28.1-12,27.7-12,27.7s-2.2-2.2-2.9-0.6     c0,0-3.3-4.9-8.3-1.7l-5.2,11.7c0,0,12.5,9.6,19.8,7.4l16.1-24.2L978.5,295.7z"/>
			<polygon id="XMLID_3_" class="st20" points="935.5,348.5 925.8,345.4 921.9,356.2 930.3,360.5    "/>
		</g>
		<g id="phone_1">
			<g>
				<path class="st21" d="M910.4,349.3l2.1-1.1c4.1-2.1,5.6-6.4,3.3-9.6L895,310.3c-2.4-3.2-7.5-4-11.7-2l-2.1,1.1      c-4.1,2.1-5.6,6.5-3.3,9.6l20.7,28.3C901.1,350.6,906.3,351.4,910.4,349.3z"/>
				<path class="st22" d="M914.1,347.4l2.1-1.1c4.1-2.1,5.6-6.4,3.3-9.6l-20.7-28.3c-2.4-3.2-7.5-4-11.7-2l-2.1,1.1      c-4.1,2.1-5.6,6.4-3.3,9.6l20.7,28.3C904.9,348.6,910,349.5,914.1,347.4z"/>
			</g>
			<polygon class="st1" points="904.4,346.2 918.7,339.1 895.1,305.7 880.9,312.9    "/>
			<path class="st25" d="M897,330.5l5-2.6c1.1-0.6,1.6-1.7,0.9-2.7l-0.3-0.5c-0.6-0.9-2.1-1.1-3.2-0.6l-5,2.6     c-1.1,0.6-1.6,1.7-0.9,2.7l0.3,0.5C894.4,330.8,895.9,330.9,897,330.5z"/>
			<path class="st24" d="M894.4,318.9l5.1-2.7c1.1-0.6,1.6-1.7,0.9-2.7l-0.3-0.5c-0.6-0.9-2.1-1.1-3.2-0.6l-5.1,2.7     c-1.1,0.6-1.6,1.7-0.9,2.7l0.3,0.5C891.8,319.2,893.3,319.5,894.4,318.9z"/>
			<path class="st24" d="M907.5,337.4l5.1-2.7c1.1-0.6,1.6-1.7,0.9-2.7l-0.3-0.5c-0.6-0.9-2.1-1.1-3.2-0.6l-5.1,2.7     c-1.1,0.6-1.6,1.7-0.9,2.7l0.3,0.5C904.9,337.7,906.4,338,907.5,337.4z"/>
		</g>
		<path id="finger_1" class="st19" d="M915.7,323.9c-0.2,4.9-1.9,6.9-1.9,6.9l5.5,6.7c0,0,1.1-5-0.1-9.5"/>
	</g>
	<g id="CARA">
		<g>
			<path id="XMLID_20_" class="st19" d="M959.7,250.5L959.7,250.5c4.8-0.5,8.3-4.8,7.8-9.6l-1.1-10.2c-0.5-4.8-4.8-8.3-9.6-7.8l0,0     c-4.8,0.5-8.3,4.8-7.8,9.6l1.1,10.2C950.6,247.5,954.9,251,959.7,250.5z"/>
			<path id="XMLID_19_" class="st19" d="M994.7,287.3h5.8c3.6,0,6.6-3,6.6-6.6v-11.9c0-3.6-3-6.6-6.6-6.6h-5.8c-3.6,0-6.6,3-6.6,6.6     v11.9C988.2,284.3,991.1,287.3,994.7,287.3z"/>
			<path id="XMLID_18_" class="st12" d="M1032,248.6l-1.5-49.1c-0.6-17.6-15.4-31.5-32.9-30.9l-14.7,0.5     c-17.6,0.6-31.5,15.4-30.9,32.9l1.4,43.9c0.3,10,11,38.4,33.7,38.7C1010.3,284.9,1032.2,257.6,1032,248.6z"/>
			<path id="XMLID_17_" class="st19" d="M980.5,242.8c0,0-7,7.2,2.9,8.3C983.4,251.1,969.7,251.5,980.5,242.8z"/>
			<g id="XMLID_14_">
				<path id="XMLID_16_" class="st12" d="M1030.7,249.8L1030.7,249.8c4.8,0,8.7-4,8.7-8.7l0-10.3c0-4.8-4-8.7-8.7-8.7l0,0      c-4.8,0-8.7,4-8.7,8.7l0,10.3C1022,245.9,1025.9,249.8,1030.7,249.8z"/>
				<path id="XMLID_15_" class="st19" d="M1026.4,243.6c0,0-3.1-14.6,4.1-16.9c0,0-3.2,4.8-1.5,8.4c0,0,2.6,0.2,2.7,4.8      C1031.8,244.5,1027.6,245.3,1026.4,243.6z"/>
			</g>
			<path class="st26" d="M1017.4,199c0,0,3.5,27.7,8.3,27.7c4.8,0,4.9-4.6,4.9-4.6s10.8-36.3,4.2-45.6c-6.6-9.2-7.5-19.2-2.8-19.2     c4.7,0-12.3-1.8-18.2,2.6c-5.9,4.4-60.8-5.2-64.5,5.9c-3.7,11.1,2.6,20.3,2.6,20.3s-9.2,18.8-8.9,22.1     c0.4,3.3,8.3,19.9,10.9,19.9c2.5,0-6.1-27.3,3.1-30.8s11.8,8.7,26.4,7.6C997.9,203.8,1013.8,196.4,1017.4,199z"/>
			<path class="st27" d="M953.7,249.8l12.4,16.9c0,0,4.3-7.8,15.4-7.6c11.1,0.2,18,7.6,18,7.6l28.9-17.3l4,0.3     c0,0-12,34.4-45.3,34.9C953.9,285.1,953.7,249.8,953.7,249.8z"/>
			<path id="XMLID_13_" class="st19" d="M975.5,267.9c0,0,9.3,3.4,17.8-0.4C993.3,267.5,986.4,275.3,975.5,267.9z"/>
		</g>
		<g id="OJOS">
			<path id="XMLID_28_" class="st28" d="M999.2,239.5L999.2,239.5c1.4,0,2.5-1.2,2.5-2.6l0-3.3c0-1.4-1.2-2.5-2.6-2.5l0,0     c-1.4,0-2.5,1.2-2.5,2.6l0,3.3C996.7,238.4,997.9,239.5,999.2,239.5z"/>
			<path id="XMLID_27_" class="st28" d="M964.4,240L964.4,240c1.4,0,2.5-1.2,2.5-2.6l0-3.3c0-1.4-1.2-2.5-2.6-2.5l0,0     c-1.4,0-2.5,1.2-2.5,2.6l0,3.3C961.9,238.9,963,240,964.4,240z"/>
		</g>
		<g id="eyes-closed">
			<path id="XMLID_2_" class="st28" d="M999.2,236.9L999.2,236.9c1.4,0,2.5-0.4,2.5-0.9l0-1.1c0-0.5-1.2-0.9-2.6-0.8l0,0     c-1.4,0-2.5,0.4-2.5,0.9l0,1.1C996.7,236.5,997.9,236.9,999.2,236.9z"/>
			<path id="XMLID_1_" class="st28" d="M964.4,237.1L964.4,237.1c1.4,0,2.5-0.4,2.5-0.9l0-1.1c0-0.5-1.2-0.9-2.6-0.8l0,0     c-1.4,0-2.5,0.4-2.5,0.9l0,1.1C961.9,236.7,963,237.1,964.4,237.1z"/>
		</g>
		<g id="CEJAS">
			<path id="XMLID_22_" class="st29" d="M990.8,224.7c2.9-2.7,9.9-7.5,18.2,0.5c0.8,0.8,1.8,0,2.1-1.6l0.3-1.6     c0.2-1.2-0.1-2.4-0.7-3c-2.9-2.9-11.7-9.9-21.3,1.2c-0.6,0.7-0.8,2-0.6,3.2l0,0C989.1,224.8,990.1,225.5,990.8,224.7z"/>
			<path id="XMLID_21_" class="st29" d="M968.3,221.6c-1.3-1.3-9.7-1.7-12.5,2.1c-0.8,1.1-1.9,0.4-2.1-1.3l-0.2-1.5     c-0.1-0.9,0-1.8,0.4-2.4c2-3.1,8.4-11.3,15.9-1c0.4,0.6,0.6,1.6,0.5,2.5v0C970.1,221.6,969.1,222.4,968.3,221.6z"/>
		</g>
	</g>
    	<g id="CARA-2">
		<g>
			<path id="XMLID_40_" class="st19" d="M955.9,255.4L955.9,255.4c4.6-1.3,7.4-6.1,6.1-10.8l-2.8-9.9c-1.3-4.6-6.1-7.4-10.8-6.1l0,0     c-4.6,1.3-7.4,6.1-6.1,10.8l2.8,9.9C946.4,253.9,951.2,256.6,955.9,255.4z"/>
			<path id="XMLID_39_" class="st19" d="M996.5,285.8l5.7-1c3.5-0.6,6-4.1,5.4-7.6l-2-11.7c-0.6-3.5-4.1-6-7.6-5.4l-5.7,1     c-3.5,0.6-6,4.1-5.4,7.6l2,11.7C989.6,283.9,993,286.4,996.5,285.8z"/>
			<path id="XMLID_32_" class="st12" d="M1026.8,241.4l-9.7-48.2c-3.5-17.3-20.4-28.5-37.6-25l-14.4,2.9     c-17.3,3.5-28.5,20.4-25,37.6l8.7,43.1c2,9.8,17.2,36,39.7,32.5C1011.5,280.8,1028.5,250.3,1026.8,241.4z"/>
			<path id="XMLID_31_" class="st19" d="M975.1,244.3c0,0-5.7,8.3,4.2,7.7C979.3,252,965.9,254.7,975.1,244.3z"/>
			<g id="XMLID_26_">
				<path id="XMLID_30_" class="st12" d="M1025.8,242.8L1025.8,242.8c4.7-0.8,7.9-5.4,7.1-10l-1.7-10.2c-0.8-4.7-5.4-7.9-10-7.1l0,0      c-4.7,0.8-7.9,5.4-7.1,10l1.7,10.2C1016.5,240.4,1021,243.6,1025.8,242.8z"/>
				<path id="XMLID_29_" class="st19" d="M1020.5,237.4c0,0-5.5-13.9,1.2-17.3c0,0-2.4,5.3-0.1,8.5c0,0,2.6-0.2,3.5,4.3      C1026,237.4,1022,238.9,1020.5,237.4z"/>
			</g>
			<path class="st26" d="M1004.2,195c0,0,8.1,26.7,12.8,25.9c4.7-0.8,4.1-5.4,4.1-5.4s4.6-37.6-3.5-45.7c-8-8-10.6-17.7-6-18.5     s-12.4,0.3-17.5,5.6c-5.1,5.3-60.8,5-62.6,16.6c-1.8,11.6,5.9,19.6,5.9,19.6s-5.9,20.1-5.1,23.3c0.9,3.2,11.5,18.2,14.1,17.8     c2.5-0.4-10.6-25.9-2.1-30.9s13.1,6.6,27.3,3.1C985.8,202.9,1000.2,193,1004.2,195z"/>
			<path class="st26" d="M949.8,255.7l15,14.6c0,0,2.9-8.4,13.9-10.1c11-1.7,19,4.5,19,4.5l25.6-21.9l4-0.4c0,0-6.1,35.9-38.8,42     C955.9,290.4,949.8,255.7,949.8,255.7z"/>
			<path id="XMLID_25_" class="st19" d="M974.4,269.9c0,0,9.7,1.8,17.5-3.4C991.8,266.5,986.3,275.4,974.4,269.9z"/>
		</g>
		<g id="OJOS_1">
			<path id="XMLID_24_" class="st27" d="M993,237.9L993,237.9c1.4-0.2,2.3-1.6,2-3l-0.6-3.3c-0.2-1.4-1.6-2.3-3-2l0,0     c-1.4,0.2-2.3,1.6-2,3l0.6,3.3C990.3,237.3,991.7,238.1,993,237.9z"/>
			<path id="XMLID_23_" class="st27" d="M958.8,244.2L958.8,244.2c1.4-0.2,2.3-1.6,2-3l-0.6-3.3c-0.2-1.4-1.6-2.3-3-2l0,0     c-1.4,0.2-2.3,1.6-2,3l0.6,3.3C956.1,243.5,957.4,244.4,958.8,244.2z"/>
		</g>
		<g id="eyes-closed_1_">
			<path id="XMLID_12_" class="st27" d="M992.6,235.4L992.6,235.4c1.4-0.2,2.4-0.8,2.3-1.3l-0.2-1.1c-0.1-0.5-1.3-0.7-2.7-0.4l0,0     c-1.4,0.2-2.4,0.8-2.3,1.3l0.2,1.1C990,235.4,991.3,235.6,992.6,235.4z"/>
			<path id="XMLID_11_" class="st27" d="M958.3,241.4L958.3,241.4c1.4-0.2,2.4-0.8,2.3-1.3l-0.2-1.1c-0.1-0.5-1.3-0.7-2.7-0.4l0,0     c-1.4,0.2-2.4,0.8-2.3,1.3l0.2,1.1C955.7,241.4,956.9,241.6,958.3,241.4z"/>
		</g>
		<g id="CEJAS_1_">
			<path id="XMLID_10_" class="st28" d="M982.2,224.7c2.4-3.1,8.5-9,18-2.5c0.9,0.7,1.8-0.3,1.8-1.9l0-1.6c0-1.2-0.5-2.3-1.2-2.8     c-3.3-2.4-13.2-7.8-20.8,4.7c-0.5,0.8-0.5,2.1-0.1,3.3l0,0C980.6,225.1,981.7,225.6,982.2,224.7z"/>
			<path id="XMLID_9_" class="st28" d="M959.5,225.4c-1.5-1.1-9.8-0.1-12,4.2c-0.6,1.2-1.8,0.7-2.3-0.9l-0.4-1.4     c-0.2-0.9-0.3-1.8,0-2.4c1.5-3.4,6.4-12.5,15.5-3.6c0.5,0.5,0.9,1.5,0.9,2.4l0,0C961.3,225.1,960.5,226.1,959.5,225.4z"/>
		</g>
	</g>
</g>
<g id="chaires">
	<rect x="-9.8" y="419.8" class="st8" width="879.7" height="48.3"/>
	<rect x="95.8" y="431.5" class="st10" width="40.9" height="47.7"/>
	<ellipse class="st10" cx="272" cy="455.4" rx="28.9" ry="33.7"/>
	<path class="st10" d="M407.2,431.5c13.6,0,27.3,0,40.9,0c0,15.9,0,31.8,0,47.7c-13.6,0-27.3,0-40.9,0   C407.2,463.3,407.2,447.4,407.2,431.5z"/>
	<ellipse class="st10" cx="583.4" cy="455.4" rx="29" ry="33.7"/>
	<rect x="718.7" y="431.5" class="st10" width="40.9" height="47.7"/>
</g>
</svg>