<svg xmlns="http://www.w3.org/2000/svg" width="800" height="450"><g><title>background</title><rect fill="#fff" id="canvas_background" height="450" width="800" y="-1" x="-1"/></g>
 <g>
  <title>background</title>
  <rect x="-1" y="-1" width="802" height="452" id="canvas_background" fill="#fff"/>
 </g>

 <g>
  <title>background</title>
  <rect height="452" width="802" fill="none" y="-1" x="-1" id="canvas_background"/>
  <rect height="450.22" width="800" fill="#FFFFFF" x="0" id="XMLID_12_"/>
  <polygon stroke="null" points="560.072021484375,157.43699645996094 555.8460083007812,178.43299882706197 572.197998046875,165.74393891690852 " fill="#ED1A5E" id="XMLID_46_"/>
  <path d="m413.573,359.248l0,-232.558c0,-5.55 -4.581,-10.131 -10.131,-10.131l-323.541,0c-5.549,0 -10.131,4.581 -10.131,10.131l0,232.623c0,-0.065 344.641,-0.065 343.803,-0.065l0,0z" fill="#151515" id="XMLID_21_"/>
  <rect height="217.459" width="318.509" fill="#EE1C4E" y="129.207" x="82.417" id="XMLID_20_"/>
  <rect height="6.324" width="404.524" fill="#D8D9D8" y="359.248" x="39.313" id="XMLID_19_"/>
  <polygon points="423.703,378.221 59.639,378.221 39.442,365.572 443.902,365.572  " fill="#ABABAB" id="XMLID_18_"/>
 
 </g>
 <g>
  <title>Layer 1</title>
  <g opacity="0.7" id="XMLID_16_">
   <path d="m275.614,359.248l-68.012,0c0.646,3.549 3.808,6.324 7.743,6.324l52.461,0c4.001,0 7.162,-2.775 7.808,-6.324z" fill="#FFFFFF" id="XMLID_17_"/>
  </g>
  <rect height="4.581" width="36.652" fill="#151515" y="290.591" x="182.113" id="XMLID_14_"/>
  <path d="m294.326,273.49l-105.438,0c-7.227,0 -13.163,-5.937 -13.163,-13.163l0,-70.206c0,-7.227 5.938,-13.164 13.163,-13.164l105.438,0c7.228,0 13.163,5.937 13.163,13.164l0,70.206c0.001,7.228 -5.935,13.163 -13.163,13.163z" fill="#FFFFFF" id="XMLID_11_"/>
  <polygon points="223.734,198.897 269.355,225.224 223.734,251.552  " fill="#151515" id="XMLID_10_"/>
  <g id="XMLID_7_">
   <rect height="4.581" width="87.049" fill="#FFFFFF" y="290.591" x="214.118" id="XMLID_9_"/>
   <circle r="8.646" cy="292.85" cx="221.539" fill="#FFFFFF" id="XMLID_8_"/>
  </g>
  <path d="m221.539,286.525c3.483,0 6.323,2.84 6.323,6.324c0,3.483 -2.84,6.322 -6.323,6.322c-3.484,0 -6.323,-2.839 -6.323,-6.322c0,-3.484 2.839,-6.324 6.323,-6.324m0,-4.582c-6.065,0 -10.905,4.904 -10.905,10.906c0,6.064 4.904,10.903 10.905,10.903c6.064,0 10.904,-4.903 10.904,-10.903c0.066,-6.001 -4.838,-10.906 -10.904,-10.906l0,0z" fill="#151515" id="XMLID_3_"/>
  <text font-size="12.0242" font-family="'Raleway-Bold'" fill="#FFFFFF" transform="matrix(1,0,0,1,173.2854,329.3672) " id="XMLID_15_">Click here to play Video</text>
  <style type="text/css">:root {
        --animate-duration: 1s;
        --animate-delay: 1s;
        --animate-repeat: 1;
      }
      
       .animate__animated {
        -webkit-animation-duration: 1s;
        animation-duration: 1s;
        -webkit-animation-duration: var(--animate-duration);
        animation-duration: var(--animate-duration);
        -webkit-animation-fill-mode: both;
        animation-fill-mode: both;
      }
    @-webkit-keyframes fadeIn {
    from {
        opacity: 0
    }

    to {
        opacity: 1
    }
}

@keyframes fadeIn {
    from {
        opacity: 0
    }

    to {
        opacity: 1
    }
}

.animate__fadeIn {
    -webkit-animation-name: fadeIn;
    animation-name: fadeIn
}

    .animate__animated.animate__repeat-1 {
          -webkit-animation-iteration-count: 1;
          animation-iteration-count: 1;
          -webkit-animation-iteration-count: var(--animate-repeat);
          animation-iteration-count: var(--animate-repeat);
        }
    .animate__animated.animate__delay-1s {
          -webkit-animation-delay: 1s;
          animation-delay: 1s;
          -webkit-animation-delay: var(--animate-delay);
          animation-delay: var(--animate-delay);
        }
    .animate__animated.animate__faster {
          -webkit-animation-duration: calc(1s / 2);
          animation-duration: calc(1s / 2);
          -webkit-animation-duration: calc(var(--animate-duration) / 2);
          animation-duration: calc(var(--animate-duration) / 2);
        }</style>
  <g class="animate__animated animate__fadeIn animate__repeat-1 animate__delay-1s animate__faster" id="svg_1">
   <g id="XMLID_1_">
    <g id="XMLID_25_">
     <path d="m437.072,181.849l-2.347,-2.035c1.017,-1.173 2.034,-2.347 3.052,-3.521l2.347,2.034c-0.939,1.174 -2.035,2.348 -3.052,3.522z" fill="#ED1A5E" id="XMLID_45_"/>
    </g>
    <g id="XMLID_24_">
     <path d="m446.07,171.051l-2.425,-1.956c1.956,-2.426 3.834,-4.93 5.555,-7.354l2.504,1.878c-1.8,2.502 -3.678,5.006 -5.634,7.432zm11.033,-15.101l-2.582,-1.721c1.721,-2.582 3.364,-5.243 4.929,-7.825l2.66,1.643c-1.565,2.582 -3.287,5.243 -5.007,7.903zm118.851,-13.693l-2.974,-0.86c0.86,-2.817 1.564,-5.712 2.19,-8.607l0.077,-0.235l1.565,0.313l1.486,0.391l-0.078,0.235c-0.622,2.895 -1.404,5.868 -2.266,8.763l0,0zm-109.306,-2.425l-2.738,-1.487c1.487,-2.738 2.817,-5.555 4.069,-8.216l2.816,1.331c-1.252,2.816 -2.66,5.633 -4.147,8.372zm113.454,-15.884l-3.052,-0.547c0.548,-3.052 0.938,-6.103 1.33,-9.077l3.13,0.392c-0.392,3.051 -0.86,6.18 -1.408,9.232zm-105.629,-1.095l-2.896,-1.096c1.097,-2.895 2.112,-5.79 3.053,-8.685l2.973,0.938c-0.941,2.896 -1.957,5.869 -3.13,8.843l0,0zm107.818,-17.527l-3.13,-0.156c0.157,-2.504 0.235,-5.086 0.235,-7.511c0,-0.548 0,-1.096 0,-1.722l3.13,-0.078c0,0.548 0,1.174 0,1.721c0.002,2.582 -0.078,5.164 -0.235,7.746zm-102.263,-0.47l-3.051,-0.704c0.704,-2.974 1.251,-6.025 1.721,-8.998l3.13,0.469c-0.47,3.052 -1.096,6.182 -1.8,9.233zm98.822,-17.996c-0.313,-3.13 -0.782,-6.181 -1.408,-8.998l3.052,-0.626c0.626,2.973 1.096,6.103 1.408,9.311l-3.052,0.313zm-95.927,-0.547l-3.13,-0.234c0.155,-1.644 0.233,-3.208 0.313,-4.852c0.078,-1.486 0.157,-2.973 0.313,-4.381l3.13,0.235c-0.078,1.486 -0.157,2.895 -0.235,4.381c-0.236,1.564 -0.313,3.207 -0.391,4.851l0,0zm92.093,-17.214c-1.019,-2.895 -2.271,-5.712 -3.756,-8.216l2.737,-1.565c1.487,2.66 2.817,5.556 3.912,8.685l-2.893,1.096l0,0zm-90.372,-1.096l-3.051,-0.626c0.704,-3.364 1.721,-6.416 3.13,-9.154l2.815,1.408c-1.329,2.504 -2.268,5.243 -2.894,8.372zm81.53,-14.397c-1.956,-2.269 -4.226,-4.225 -6.65,-5.946l1.8,-2.582c2.582,1.878 5.007,4.068 7.12,6.416l-2.27,2.112zm-73.472,-1.095l-2.27,-2.191c2.113,-2.191 4.695,-4.225 7.512,-6.024l1.645,2.66c-2.582,1.643 -4.931,3.521 -6.887,5.555zm59.076,-9.311c-2.66,-1.174 -5.556,-2.112 -8.527,-2.817l0.703,-3.051c3.208,0.782 6.26,1.799 9.076,2.973l-1.252,2.895l0,0zm-44.13,-0.235l-1.174,-2.895c2.896,-1.173 5.947,-2.034 9.155,-2.738l0.703,3.051c-3.051,0.548 -5.946,1.487 -8.684,2.582l0,0zm26.602,-3.912c-2.974,-0.235 -6.024,-0.235 -9.076,0l-0.234,-3.13c3.208,-0.234 6.416,-0.234 9.546,0l-0.236,3.13z" fill="#ED1A5E" id="XMLID_27_"/>
    </g>
    <g id="XMLID_23_">
     <path d="m571.104,155.637l-2.895,-1.252c0.625,-1.408 1.173,-2.817 1.721,-4.303l2.896,1.095c-0.47,1.487 -1.096,2.973 -1.722,4.46z" fill="#ED1A5E" id="XMLID_26_"/>
    </g>
   </g>
  </g>
  <style type="text/css">:root {
        --animate-duration: 1s;
        --animate-delay: 1s;
        --animate-repeat: 1;
      }
      
       .animate__animated {
        -webkit-animation-duration: 1s;
        animation-duration: 1s;
        -webkit-animation-duration: var(--animate-duration);
        animation-duration: var(--animate-duration);
        -webkit-animation-fill-mode: both;
        animation-fill-mode: both;
      }
    @-webkit-keyframes fadeInRight {
    from {
        opacity: 0;
        -webkit-transform: translate3d(100%, 0, 0);
        transform: translate3d(100%, 0, 0)
    }

    to {
        opacity: 1;
        -webkit-transform: none;
        transform: none
    }
}

@keyframes fadeInRight {
    from {
        opacity: 0;
        -webkit-transform: translate3d(100%, 0, 0);
        transform: translate3d(100%, 0, 0)
    }

    to {
        opacity: 1;
        -webkit-transform: none;
        transform: none
    }
}

.animate__fadeInRight {
    -webkit-animation-name: fadeInRight;
    animation-name: fadeInRight
}
    .animate__animated.animate__repeat-1 {
          -webkit-animation-iteration-count: 1;
          animation-iteration-count: 1;
          -webkit-animation-iteration-count: var(--animate-repeat);
          animation-iteration-count: var(--animate-repeat);
        }
    .animate__animated.animate__delay-1s {
          -webkit-animation-delay: 1s;
          animation-delay: 1s;
          -webkit-animation-delay: var(--animate-delay);
          animation-delay: var(--animate-delay);
        }
    .animate__animated.animate__faster {
          -webkit-animation-duration: calc(1s / 2);
          animation-duration: calc(1s / 2);
          -webkit-animation-duration: calc(var(--animate-duration) / 2);
          animation-duration: calc(var(--animate-duration) / 2);
        }</style>
  <style type="text/css">:root {
        --animate-duration: 1s;
        --animate-delay: 1s;
        --animate-repeat: 1;
      }
      
       .animate__animated {
        -webkit-animation-duration: 1s;
        animation-duration: 1s;
        -webkit-animation-duration: var(--animate-duration);
        animation-duration: var(--animate-duration);
        -webkit-animation-fill-mode: both;
        animation-fill-mode: both;
      }
    @-webkit-keyframes fadeInRight {
    from {
        opacity: 0;
        -webkit-transform: translate3d(100%, 0, 0);
        transform: translate3d(100%, 0, 0)
    }

    to {
        opacity: 1;
        -webkit-transform: none;
        transform: none
    }
}

@keyframes fadeInRight {
    from {
        opacity: 0;
        -webkit-transform: translate3d(100%, 0, 0);
        transform: translate3d(100%, 0, 0)
    }

    to {
        opacity: 1;
        -webkit-transform: none;
        transform: none
    }
}

.animate__fadeInRight {
    -webkit-animation-name: fadeInRight;
    animation-name: fadeInRight
}
    .animate__animated.animate__repeat-1 {
          -webkit-animation-iteration-count: 1;
          animation-iteration-count: 1;
          -webkit-animation-iteration-count: var(--animate-repeat);
          animation-iteration-count: var(--animate-repeat);
        }
    .animate__animated.animate__delay-2s {
          -webkit-animation-delay: calc(1s * 2);
          animation-delay: calc(1s * 2);
          -webkit-animation-delay: calc(var(--animate-delay) * 2);
          animation-delay: calc(var(--animate-delay) * 2);
        }
    .animate__animated.animate__faster {
          -webkit-animation-duration: calc(1s / 2);
          animation-duration: calc(1s / 2);
          -webkit-animation-duration: calc(var(--animate-duration) / 2);
          animation-duration: calc(var(--animate-duration) / 2);
        }</style>
  <g class="animate__animated animate__fadeInRight animate__repeat-1 animate__delay-2s animate__faster" id="svg_2">
   <g id="svg_3">
    <text font-size="32.1607" font-family="'HelveticaWorld-Bold'" fill="#ED1A59" transform="matrix(1,0,0,1,442.9016,219.6465) " id="XMLID_2_">VIDEO ADVERTISING</text>
   </g>
  </g>
  <style type="text/css">:root {
        --animate-duration: 1s;
        --animate-delay: 1s;
        --animate-repeat: 1;
      }
      
       .animate__animated {
        -webkit-animation-duration: 1s;
        animation-duration: 1s;
        -webkit-animation-duration: var(--animate-duration);
        animation-duration: var(--animate-duration);
        -webkit-animation-fill-mode: both;
        animation-fill-mode: both;
      }
    @-webkit-keyframes fadeInRight {
    from {
        opacity: 0;
        -webkit-transform: translate3d(100%, 0, 0);
        transform: translate3d(100%, 0, 0)
    }

    to {
        opacity: 1;
        -webkit-transform: none;
        transform: none
    }
}

@keyframes fadeInRight {
    from {
        opacity: 0;
        -webkit-transform: translate3d(100%, 0, 0);
        transform: translate3d(100%, 0, 0)
    }

    to {
        opacity: 1;
        -webkit-transform: none;
        transform: none
    }
}

.animate__fadeInRight {
    -webkit-animation-name: fadeInRight;
    animation-name: fadeInRight
}
    .animate__animated.animate__repeat-1 {
          -webkit-animation-iteration-count: 1;
          animation-iteration-count: 1;
          -webkit-animation-iteration-count: var(--animate-repeat);
          animation-iteration-count: var(--animate-repeat);
        }
    .animate__animated.animate__delay-2s {
          -webkit-animation-delay: calc(1s * 2);
          animation-delay: calc(1s * 2);
          -webkit-animation-delay: calc(var(--animate-delay) * 2);
          animation-delay: calc(var(--animate-delay) * 2);
        }
    .animate__animated.animate__faster {
          -webkit-animation-duration: calc(1s / 2);
          animation-duration: calc(1s / 2);
          -webkit-animation-duration: calc(var(--animate-duration) / 2);
          animation-duration: calc(var(--animate-duration) / 2);
        }</style>
  <g class="animate__animated animate__fadeInRight animate__repeat-1 animate__delay-2s animate__faster" id="svg_4">
   <text font-size="18.6172" font-family="'HelveticaWorld-Bold'" fill="#2D2D2D" transform="matrix(1,0,0,1,446.6389,242.7988) " id="XMLID_4_">Amazing Video Training</text>
  </g>
  <style type="text/css">:root {
        --animate-duration: 1s;
        --animate-delay: 1s;
        --animate-repeat: 1;
      }
      
       .animate__animated {
        -webkit-animation-duration: 1s;
        animation-duration: 1s;
        -webkit-animation-duration: var(--animate-duration);
        animation-duration: var(--animate-duration);
        -webkit-animation-fill-mode: both;
        animation-fill-mode: both;
      }
    @-webkit-keyframes fadeInRight {
    from {
        opacity: 0;
        -webkit-transform: translate3d(100%, 0, 0);
        transform: translate3d(100%, 0, 0)
    }

    to {
        opacity: 1;
        -webkit-transform: none;
        transform: none
    }
}

@keyframes fadeInRight {
    from {
        opacity: 0;
        -webkit-transform: translate3d(100%, 0, 0);
        transform: translate3d(100%, 0, 0)
    }

    to {
        opacity: 1;
        -webkit-transform: none;
        transform: none
    }
}

.animate__fadeInRight {
    -webkit-animation-name: fadeInRight;
    animation-name: fadeInRight
}
    .animate__animated.animate__repeat-1 {
          -webkit-animation-iteration-count: 1;
          animation-iteration-count: 1;
          -webkit-animation-iteration-count: var(--animate-repeat);
          animation-iteration-count: var(--animate-repeat);
        }
    .animate__animated.animate__delay-3s {
          -webkit-animation-delay: calc(1s * 3);
          animation-delay: calc(1s * 3);
          -webkit-animation-delay: calc(var(--animate-delay) * 3);
          animation-delay: calc(var(--animate-delay) * 3);
        }
    .animate__animated.animate__faster {
          -webkit-animation-duration: calc(1s / 2);
          animation-duration: calc(1s / 2);
          -webkit-animation-duration: calc(var(--animate-duration) / 2);
          animation-duration: calc(var(--animate-duration) / 2);
        }</style>
  <g class="animate__animated animate__fadeInRight animate__repeat-1 animate__delay-3s animate__faster" id="svg_5">
   <text font-size="13.6618" font-family="'HelveticaWorld-Bold'" fill="#6D6D6D" transform="matrix(1,0,0,1,467.6985,327.1357) " id="XMLID_71_">Increase in your income</text>
  </g>
  <style type="text/css">:root {
        --animate-duration: 1s;
        --animate-delay: 1s;
        --animate-repeat: 1;
      }
      
       .animate__animated {
        -webkit-animation-duration: 1s;
        animation-duration: 1s;
        -webkit-animation-duration: var(--animate-duration);
        animation-duration: var(--animate-duration);
        -webkit-animation-fill-mode: both;
        animation-fill-mode: both;
      }
    @-webkit-keyframes fadeInRight {
    from {
        opacity: 0;
        -webkit-transform: translate3d(100%, 0, 0);
        transform: translate3d(100%, 0, 0)
    }

    to {
        opacity: 1;
        -webkit-transform: none;
        transform: none
    }
}

@keyframes fadeInRight {
    from {
        opacity: 0;
        -webkit-transform: translate3d(100%, 0, 0);
        transform: translate3d(100%, 0, 0)
    }

    to {
        opacity: 1;
        -webkit-transform: none;
        transform: none
    }
}

.animate__fadeInRight {
    -webkit-animation-name: fadeInRight;
    animation-name: fadeInRight
}
    .animate__animated.animate__repeat-1 {
          -webkit-animation-iteration-count: 1;
          animation-iteration-count: 1;
          -webkit-animation-iteration-count: var(--animate-repeat);
          animation-iteration-count: var(--animate-repeat);
        }
    .animate__animated.animate__delay-3s {
          -webkit-animation-delay: calc(1s * 3);
          animation-delay: calc(1s * 3);
          -webkit-animation-delay: calc(var(--animate-delay) * 3);
          animation-delay: calc(var(--animate-delay) * 3);
        }
    .animate__animated.animate__faster {
          -webkit-animation-duration: calc(1s / 2);
          animation-duration: calc(1s / 2);
          -webkit-animation-duration: calc(var(--animate-duration) / 2);
          animation-duration: calc(var(--animate-duration) / 2);
        }</style>
  <g class="animate__animated animate__fadeInRight animate__repeat-1 animate__delay-3s animate__faster" id="svg_6">
   <text font-size="29.6914" font-family="'HelveticaWorld-Bold'" fill="#ED194C" transform="matrix(1,0,0,1,457.6067,368.5723) " id="XMLID_13_">Guaranteed Results</text>
  </g>
 </g>
</svg>