<svg width="800" height="450" xmlns="http://www.w3.org/2000/svg">
 <g>
  <title>background</title>
  <rect fill="#fff" id="canvas_background" height="602" width="1068.66667" y="-1" x="-1"/>
 </g>

 <g>
  <title>background</title>
  <rect x="-1" y="-1" width="1068.66667" height="602" id="canvas_background" fill="#fff"/>
 </g>
 <style type="text/css">.st0{fill-rule:evenodd;clip-rule:evenodd;fill:#D8EFF7;}
	.st1{fill-rule:evenodd;clip-rule:evenodd;fill:#FFFFFF;}
	.st2{fill-rule:evenodd;clip-rule:evenodd;fill:#A7D5E0;}
	.st3{fill-rule:evenodd;clip-rule:evenodd;fill:#CEEBF6;}
	.st4{fill-rule:evenodd;clip-rule:evenodd;fill:#B1B6B7;}
	.st5{fill-rule:evenodd;clip-rule:evenodd;fill:#A0A6A7;}
	.st6{fill-rule:evenodd;clip-rule:evenodd;fill:#C0E3ED;}
	.st7{fill-rule:evenodd;clip-rule:evenodd;fill:#7DB3C1;}
	.st8{fill-rule:evenodd;clip-rule:evenodd;fill:#F7FBFF;}
	.st9{fill-rule:evenodd;clip-rule:evenodd;fill:#2CB7D3;}
	.st10{fill-rule:evenodd;clip-rule:evenodd;fill:#4E4E4E;}
	.st11{fill-rule:evenodd;clip-rule:evenodd;fill:#343433;}
	.st12{fill:#EEC09B;}
	.st13{fill:#191C19;}
	.st14{fill:#B6CAD5;}
	.st15{fill:#AB2A02;}
	.st16{fill:#BD7133;}
	.st17{fill:#D48041;}
	.st18{fill:#90592A;}
	.st19{fill:#DBA77F;}
	.st20{fill:none;}
	.st21{fill:#3D3D3D;}
	.st22{fill:#17120E;}
	.st23{fill:#FFFFFF;}
	.st24{fill:#9DD87D;}
	.st25{fill:#7FC5D6;}
	.st26{fill:#1C2528;}
	.st27{fill:#2B2B2B;}
	.st28{fill:#352311;}
	.st29{fill:#111719;}
   #plan{
    animation : fly 5s ease-in-out infinite
    }
    @keyframes fly{
    0%{
    transform : translate(0,0)
    }
    100%{
    transform : translate(900px,-450px)
    }
    }
    #agent{
   
    animation : walk 5s ease-in-out infinite
    }
    @keyframes walk{
    0%{
    transform : translate(0)
    }
    50%{
    transform : translateX(-600px)
    }
    100%{
    transform : translateX(-600px)
    }
    }
    #BRAZO_IZQ ,#CARA{
    animation : armMove 5s ease-in-out infinite;
    }
    @keyframes armMove{
    0%,50%{
    visibility : visible
    }
    
    55%,100%{
    visibility : hidden
    }
   }
    #BRAZO_IZQ-2 ,#CARA-2{
    animation : armMove2 5s ease-in-out infinite;
    }
    @keyframes armMove2{
    0%,50%{
    visibility : hidden
    }
    
    55%,100%{
    visibility : visible
    }
   }
    #finger_1{
    animation : point 5s ease-in-out infinite
    }
    @keyframes point{
    0%,60%{
    transform : translate(0)
    }
    70%{
     transform : translate(-8px,-5px)
    }
   
    80%{
    transform : translate(0)
    }
    90%{
     transform : translate(-8px,-5px)
    }
   
    100%{
    transform : translate(0)
    }
    }
    #OJOS{
    animation : blink 5s ease-in-out infinite
    }
    @keyframes blink{
    0%,20%{
    visibility : visible
    }
    30%,35%{
    visibility : hidden
    }
    40%,65%{
    visibility : visible
    }
    70%,75%{
     visibility : hidden
    }
    80%,100%{
    visibility : visible
    }
    }
    #OJOS_1{
    animation : blink2 5s ease-in-out infinite
    }
    @keyframes blink2{
    
    65%,70%{
     visibility : hidden
    }
    75%,100%{
    visibility : visible
    }
    }</style>
 <g>
  <title>Layer 1</title>
  <g id="BACK">
   <rect id="svg_1" height="879.7" width="879.7" class="st0" y="-198.7" x="-9.8"/>
   <path id="svg_2" d="m527.5,32.1c2.6,0 4.9,0.9 6.8,2.4c0.3,-10.5 8.9,-18.9 19.4,-18.9c8.1,0 15,4.9 17.9,12c0.9,-0.1 1.8,-0.2 2.7,-0.2c4.2,0 8,1.3 11.2,3.5c3.7,-5.3 9.8,-8.8 16.8,-8.8c1.5,0 3,0.2 4.5,0.5c2.2,-8.4 9.9,-14.6 19.1,-14.6c8.7,0 16,5.6 18.7,13.4c3.3,-2.1 7.2,-3.4 11.4,-3.4c11.3,0 20.5,9 20.9,20.2c1.7,-0.5 3.5,-0.8 5.3,-0.8c4,0 7.8,1.3 10.8,3.5l-176,0c0.8,-5 5.2,-8.8 10.5,-8.8z" class="st1"/>
   <polygon id="svg_3" points="869.9,331.3 869.9,530.2 780.7,530.2 780.7,556.9 742.1,556.9 650.6,556.9 650.6,622.5 515.6,622.5    515.6,591.7 426.4,591.7 398.1,591.7 349.3,591.7 349.3,571.2 284.2,571.2 284.2,493.3 262.5,493.3 262.5,517.9 190.2,517.9    190.2,491.2 130,491.2 130,489.2 110.7,489.2 60.1,489.2 -9.8,489.2 -9.8,308.7 9.2,308.7 9.2,267.4 60.1,245.1 112.5,245.1    112.5,204.1 151.7,204.1 151.7,245.1 163.7,245.1 163.7,345.6 190.2,345.6 190.2,300.5 211.9,300.5 211.9,287.7 258.9,287.7    258.9,300.5 262.5,300.5 262.5,364.1 284.2,364.1 284.2,325.1 294.2,325.1 294.2,312.5 316.5,312.5 316.5,325.1 349.3,325.1    349.3,259.5 369.8,247.2 414.4,247.2 414.4,259.5 426.4,259.5 426.4,353.8 491.5,353.8 491.5,204.1 499.9,204.1 499.9,170.8    510.8,170.8 510.8,204.1 530,204.1 530,353.8 571,353.8 571,386.6 597.5,386.6 597.5,261.5 624.6,204.1 640.9,204.1 640.9,190.3    676.5,190.3 696.4,204.1 696.4,261.5 742.1,261.5 742.1,331.3 795.2,331.3 795.2,224.6 805.4,211.8 831.9,211.8 831.9,224.6    841,224.6 841,331.3  " class="st2"/>
   <path id="svg_4" d="m98,-198.7l53.9,0l0,307l282.3,0l0,-307l53.9,0l0,307l282.3,0l0,-307l53.9,0l0,307l45.4,0l0,35.1l-45.4,0l0,301l-53.9,0l0,-301l-282.2,0l0,301l-12.9,0c-9.4,0 -18.8,0 -28.2,0l-12.9,0l0,-301l-282.3,0l0,301l-53.9,0l0,-301l-107.8,0l0,-35.1l107.8,0l0,-307z" class="st3"/>
   <rect id="svg_5" height="109.8" width="879.7" class="st4" y="571.2" x="-9.8"/>
   <rect id="svg_6" height="145" width="879.7" class="st5" y="431.5" x="-9.8"/>
   <path id="svg_7" d="m824.5,211.8l0,232.6l-53.9,0l0,-113.1l24.6,0l0,-106.7l10.2,-12.8l19.1,0l0,0zm-336.3,142l0,90.6l-12.9,0c-9.4,0 -18.8,0 -28.2,0l-12.9,0l0,-90.6l54,0l0,0zm-336.3,-108.7l0,199.3l-53.9,0l0,-199.3l14.5,0l0,-41l39.2,0l0,41l0.2,0z" class="st6"/>
   <path d="m-451.3,300.3l315.2,-137c24.8,-10.8 94,-4.9 104.8,19.9c10.8,24.8 -40.9,59.4 -65.7,70.2l-176.5,76.7c8.5,1.4 14.2,8.2 18,17c5.9,13.5 5.3,26.8 -13.1,34.8c-18.4,8 -47.7,7.7 -53.6,-5.8c-3.8,-8.8 3.2,-21 13.7,-30.7l-92.8,40.3c-24.3,10.6 -111.2,25.2 -124.7,2.4l-22.2,9.6c-4.7,2 -10.2,-0.1 -12.3,-4.8l0,0c-2,-4.7 0.1,-10.2 4.8,-12.3l22.1,-9.6l-10.7,-24.7l-77.1,-57.1l-37.5,16.3l-8.9,-6.6l103.4,-44.9l113.1,46.3z" class="st7" id="plan"/>
   <path d="m447.1,-198.7c9.4,0 18.8,0 28.2,0l0,301l308.1,0l0,-301l28.2,0l0,301l58.3,0l0,28.2l-58.3,0l0,301l-28.2,0l0,-301l-308.1,0l0,301c-9.4,0 -18.8,0 -28.2,0l0,-301l-308,0l0,301l-28.2,0l0,-301l-120.7,0l0,-28.2l120.7,0l0,-301l28.2,0l0,301l308.1,0l0,-301l-0.1,0z" class="st8" id="windows"/>
   <g id="chairs">
    <path id="svg_8" d="m116.2,323.5l0,0c32.9,0 59.7,26.9 59.7,59.7l0,49.7c0,10.7 -8.8,19.5 -19.5,19.5l-80.4,0c-10.7,0 -19.5,-8.8 -19.5,-19.5l0,-49.7c0,-32.8 26.9,-59.7 59.7,-59.7z" class="st9"/>
    <path id="svg_9" d="m69.3,490.6l94,0c7,0 12.8,-5.7 12.8,-12.8l0,-8.6c0,-2.3 -1.9,-4.2 -4.2,-4.2l-111.2,0c-2.3,0 -4.2,1.9 -4.2,4.2l0,8.6c0,7.1 5.7,12.8 12.8,12.8z" class="st9"/>
    <path id="svg_10" d="m272,323.5l0,0c32.9,0 59.7,26.9 59.7,59.7c0,16.6 0,33.1 0,49.7c0,10.7 -8.8,19.5 -19.5,19.5c-26.8,0 -53.7,0 -80.5,0c-10.7,0 -19.5,-8.8 -19.5,-19.5c0,-16.6 0,-33.1 0,-49.7c0,-32.8 26.9,-59.7 59.8,-59.7z" class="st9"/>
    <path id="svg_11" d="m225,490.6c31.3,0 62.6,0 94,0c7,0 12.8,-5.7 12.8,-12.8c0,-2.9 0,-5.7 0,-8.6c0,-2.3 -1.9,-4.2 -4.2,-4.2c-37.1,0 -74.1,0 -111.2,0c-2.3,0 -4.2,1.9 -4.2,4.2c0,2.9 0,5.7 0,8.6c0,7.1 5.8,12.8 12.8,12.8z" class="st9"/>
    <path id="svg_12" d="m427.7,323.5l0,0c32.9,0 59.7,26.9 59.7,59.7c0,16.6 0,33.1 0,49.7c0,10.7 -8.8,19.5 -19.5,19.5c-26.8,0 -53.7,0 -80.5,0c-10.7,0 -19.5,-8.8 -19.5,-19.5c0,-16.6 0,-33.1 0,-49.7c0.1,-32.8 27,-59.7 59.8,-59.7z" class="st9"/>
    <path id="svg_13" d="m380.7,490.6c31.3,0 62.6,0 94,0c7,0 12.8,-5.7 12.8,-12.8c0,-2.9 0,-5.7 0,-8.6c0,-2.3 -1.9,-4.2 -4.2,-4.2c-37.1,0 -74.1,0 -111.2,0c-2.3,0 -4.2,1.9 -4.2,4.2c0,2.9 0,5.7 0,8.6c0.1,7.1 5.8,12.8 12.8,12.8z" class="st9"/>
    <path id="svg_14" d="m583.4,323.5l0,0c32.9,0 59.7,26.9 59.7,59.7c0,16.6 0,33.1 0,49.7c0,10.7 -8.8,19.5 -19.5,19.5c-26.8,0 -53.7,0 -80.5,0c-10.7,0 -19.5,-8.8 -19.5,-19.5c0,-16.6 0,-33.1 0,-49.7c0.1,-32.8 27,-59.7 59.8,-59.7z" class="st9"/>
    <path id="svg_15" d="m536.5,490.6c31.3,0 62.6,0 94,0c7,0 12.8,-5.7 12.8,-12.8c0,-2.9 0,-5.7 0,-8.6c0,-2.3 -1.9,-4.2 -4.2,-4.2c-37.1,0 -74.1,0 -111.2,0c-2.3,0 -4.2,1.9 -4.2,4.2c0,2.9 0,5.7 0,8.6c0,7.1 5.7,12.8 12.8,12.8z" class="st9"/>
    <path id="svg_16" d="m739.2,323.5l0,0c32.9,0 59.7,26.9 59.7,59.7l0,49.7c0,10.7 -8.8,19.5 -19.5,19.5l-80.5,0c-10.7,0 -19.5,-8.8 -19.5,-19.5l0,-49.7c0,-32.8 26.9,-59.7 59.8,-59.7z" class="st9"/>
    <path id="svg_17" d="m692.2,490.6l94,0c7,0 12.8,-5.7 12.8,-12.8l0,-8.6c0,-2.3 -1.9,-4.2 -4.2,-4.2l-111.2,0c-2.3,0 -4.2,1.9 -4.2,4.2l0,8.6c0,7.1 5.8,12.8 12.8,12.8z" class="st9"/>
   </g>
   <path id="svg_18" d="m394,-112.1c5.9,-4.3 9.7,-11.3 9.7,-19.2c0,-13.2 -10.7,-23.8 -23.8,-23.8c-12.1,0 -22,9 -23.6,20.6c-3.3,-1.4 -6.8,-2.1 -10.6,-2.1c-1.2,0 -2.4,0.1 -3.5,0.2c-0.9,-16 -14.1,-28.7 -30.3,-28.7c-15,0 -27.5,11 -29.9,25.3c-2,-0.5 -4.1,-0.7 -6.2,-0.7c-6.1,0 -11.7,2.1 -16.2,5.5c-4.6,-6.2 -12,-10.1 -20.3,-10.1c-10.6,0 -19.6,6.4 -23.4,15.6c-1.1,-0.2 -2.3,-0.2 -3.5,-0.2c-8.5,0 -16.1,4.2 -20.7,10.6c-1.8,-5.7 -7.2,-9.9 -13.5,-9.9c-7.9,0 -14.2,6.4 -14.2,14.2c0,0.9 0.1,1.8 0.3,2.7l229.7,0z" class="st1"/>
   <path id="svg_19" d="m188.5,11.3l0,0c0.1,-8.2 5.8,-15.1 13.4,-17.2c4,-7.8 12.1,-13.1 21.5,-13.1c7.6,0 14.3,3.5 18.7,8.9c4.2,-6.1 11.3,-10.1 19.3,-10.1c11.6,0 21.2,8.4 23.1,19.4c4.7,0.8 8.9,3.1 12.1,6.4c2.9,-4.1 7.6,-6.7 13,-6.7c8.8,0 15.9,7.1 15.9,15.9c0,0.1 0,0.1 0,0.2l-144,0c1.5,-2.3 4.1,-3.7 7,-3.7z" class="st1"/>
   <path id="svg_20" d="m751.3,-97.9c-0.1,-10 -7.1,-18.3 -16.4,-20.5c-1.7,-9.5 -10,-16.7 -20.1,-16.7c-3.8,0 -7.3,1 -10.3,2.8c-4,-2 -8.5,-3.1 -13.3,-3.1c-8.8,0 -16.8,3.9 -22.2,10c-3,-2.3 -6.7,-3.6 -10.8,-3.6c-7.8,0 -14.4,5 -16.8,11.9c-2.8,-8.7 -10.9,-15.1 -20.6,-15.1c-9.9,0 -18.3,6.7 -20.8,15.9c-2.6,-1 -5.4,-1.5 -8.4,-1.5c-5.7,0 -10.9,2 -15.1,5.2c-2.2,-2.7 -5.5,-4.4 -9.3,-4.4c-6.6,0 -12,5.4 -12,12c0,2.7 0.9,5.2 2.4,7.2l193.7,0l0,-0.1z" class="st1"/>
   <rect id="svg_21" height="25.5" width="784" class="st10" y="479" x="37.1"/>
   <rect id="svg_22" height="6.2" width="40.9" class="st11" y="452.3" x="95.8"/>
   <path id="svg_23" d="m251.5,452.3c13.6,0 27.3,0 40.9,0c0,2.1 0,4.1 0,6.2c-13.6,0 -27.3,0 -40.9,0c0,-2 0,-4.1 0,-6.2z" class="st11"/>
   <path id="svg_24" d="m407.2,452.3c13.6,0 27.3,0 40.9,0c0,2.1 0,4.1 0,6.2c-13.6,0 -27.3,0 -40.9,0c0,-2 0,-4.1 0,-6.2z" class="st11"/>
   <path id="svg_25" d="m563,452.3c13.6,0 27.3,0 40.9,0c0,2.1 0,4.1 0,6.2c-13.6,0 -27.3,0 -40.9,0c0,-2 0,-4.1 0,-6.2z" class="st11"/>
   <rect id="svg_26" height="6.2" width="40.9" class="st11" y="452.3" x="718.7"/>
   <g id="svg_27">
    <rect id="svg_28" height="77.4" width="17.5" class="st10" y="499.2" x="37.1"/>
    <rect id="svg_29" height="6.9" width="17.5" class="st11" y="504.5" x="37.1"/>
   </g>
   <g id="svg_30">
    <g id="svg_31">
     <path id="svg_32" d="m292.6,499.2c5.8,0 11.6,0 17.5,0c0,25.8 0,51.6 0,77.4c-5.8,0 -11.6,0 -17.5,0c0,-25.9 0,-51.7 0,-77.4z" class="st10"/>
     <path id="svg_33" d="m310.1,504.5c-5.8,0 -11.6,0 -17.5,0c0,2.3 0,4.6 0,6.9c5.8,0 11.6,0 17.5,0c0,-2.3 0,-4.6 0,-6.9z" class="st11"/>
    </g>
    <g id="svg_34">
     <path id="svg_35" d="m548.1,499.2c5.8,0 11.6,0 17.5,0c0,25.8 0,51.6 0,77.4c-5.8,0 -11.6,0 -17.5,0c0,-25.9 0,-51.7 0,-77.4z" class="st10"/>
     <path id="svg_36" d="m565.6,504.5c-5.8,0 -11.6,0 -17.5,0c0,2.3 0,4.6 0,6.9c5.8,0 11.6,0 17.5,0c0,-2.3 0,-4.6 0,-6.9z" class="st11"/>
    </g>
   </g>
   <g id="svg_37">
    <rect id="svg_38" height="77.4" width="17.5" class="st10" y="499.2" x="803.6"/>
    <rect id="svg_39" height="6.9" width="17.5" class="st11" y="504.5" x="803.6"/>
   </g>
   <g id="New_Symbol"/>
  </g>
  <g id="agent">
   <g id="CUERPO">
    <path d="m991.7,314.8l15.9,-18.7c0.4,0 0.8,-0.4 0.8,-0.9l-2.3,-29.8c0,-0.4 -0.4,-0.8 -0.9,-0.8l-15.2,1.2c-0.4,0 -0.8,0.4 -0.8,0.9l2.3,29.8c0,0.5 -0.3,18.3 0.2,18.3z" class="st12" id="XMLID_61_"/>
    <path d="m1025.5,397.6c0,0 14.8,70.4 40.3,177l-16.7,0.8l-53.7,-139.2l-3.5,63.5c0,0 10.9,16 3.5,75.1l-14.3,0.6l-22.4,-155.1c0,0 -4.1,-14.8 4.3,-22.8c0,0.1 38.9,6.4 62.5,0.1z" class="st13" id="XMLID_60_"/>
    <g id="svg_40">
     <g id="svg_41">
      <path d="m998.5,300.2l-3.6,11.8l-1.7,-12.2l-6.7,-4.7c0,0 -6.9,0.2 -11,4.8c0,0 -9.7,22 -5.9,33.8c3.8,11.8 -3.6,26.4 -6,46.1c-2.3,19.1 -1.8,24.4 -1.8,24.4s10.1,3.7 25.8,5.5l4.6,-11.8l5,11.8c0,0 19.1,-0.1 29.9,-6.6c0,0 -6.2,-28 -3.8,-45.2c2.4,-17.2 12,-40.7 2.8,-62.9c0,0 -11.7,0.4 -16.3,-1.2l-11.3,6.4z" class="st14" id="XMLID_43_"/>
      <polygon points="1010,289.7 996.3,300.7 1001.7,308.1 1011.8,294.4     " class="st14" id="XMLID_42_"/>
      <polygon points="991.3,289.5 995.4,300.1 991.3,307.1 988.4,294.2     " class="st14" id="XMLID_41_"/>
     </g>
    </g>
    <polygon id="svg_42" points="989.2,306.1 994.4,318.5 1001.7,308.1 996.6,300.7   " class="st15"/>
    <polygon id="svg_43" points="994.5,312.9 981.1,362.8 991.2,377.6 1005.3,362.8   " class="st15"/>
   </g>
   <g id="BRAZO_DERE">
    <path id="svg_44" d="m1042.4,431.8l-3.7,-13.6l35.6,-6.7l3.6,13.5l-35.5,6.8zm1.8,-10.1l1.3,5l26.9,-5.1l-1.3,-5l-26.9,5.1z" class="st16"/>
    <path d="m1047.9,391.5l-0.4,8.9c0,0 -4.3,4.2 -4.2,13.2c0.1,9 4.6,2.9 5.7,-1c0,0 -0.1,9.5 3.5,9.8c0,0 6,1 7.3,-1.7c0,0 4.8,0.4 5.9,-2.3c0,0 4.4,1.4 5,-2.7l-3.6,0.7c0,0 -1.6,-17 -11.5,-18.9l-1.3,-7.7l-6.4,1.7z" class="st12" id="XMLID_64_"/>
    <g id="svg_45">
     <polygon points="1021.3,434.9 1032.1,486.4 1109.8,470.2 1096.9,418.1    " class="st16" id="XMLID_63_"/>
     <polygon points="1096.9,418.1 1021.3,434.9 1018.4,433.8 1094.8,416.9    " class="st17" id="XMLID_62_"/>
     <polygon points="1032.1,486.4 1029.8,485.5 1018.4,433.8 1021.3,434.9    " class="st18" id="XMLID_56_"/>
    </g>
    <path d="m1028.8,326.4l0,0l-2.5,-31.3c2.3,1.4 2.7,3.1 5.2,7.1c10.1,15.9 27.2,53.6 27.2,53.6l-1.5,44.9l-9.3,-0.5l-1.4,-40.9l-17.7,-32.9z" class="st12" id="XMLID_48_"/>
    <polygon points="1058.2,389.7 1058.4,398 1046.3,397.9 1046.4,389.8   " class="st14" id="XMLID_47_"/>
    <path d="m1026.3,295.1c0,0 3.8,1.5 13.3,19.5c9.5,18 19.1,41.2 19.1,41.2l0.3,35l-13.9,-0.2l0.8,-30.7l-18.6,-35.4c0,0.1 -5.9,-20.1 -1,-29.4z" class="st14" id="XMLID_46_"/>
   </g>
   <g id="BRAZO_IZQ">
    <g id="svg_46">
     <path d="m908.8,366.8c0,0 -7.3,-9.9 -10.3,-21.5c0,0 2.7,-0.8 3.8,3.6c1.1,4.2 6.2,9.6 6.2,9.6l0.3,8.3z" class="st19" id="XMLID_38_"/>
     <path d="m974.6,296.8c0,0 -12.3,3.7 -13.8,17.6c-1.5,13.9 -0.8,52.5 -0.8,52.5l-35.7,1.4l0.8,8.9c0,0 30.6,4.8 42.6,1.8c0,0 15.2,-70.4 6.9,-82.2z" class="st14" id="XMLID_37_"/>
     <path d="m908.8,366.8c0,0 -6.7,-11 -5.1,-21.4c0,0 2.1,-0.6 2.4,3.1s3.3,12.1 5.7,13.1c0,-0.1 0.2,5 -3,5.2z" class="st19" id="XMLID_36_"/>
     <path d="m927.5,374.1c0,0 -15.7,3.5 -19.7,-1.3c-4.1,-4.8 -8.8,-7.7 -7.3,-17.1c0,0 2.8,1 3.1,6.1c0,0 1,4.8 8.5,6.6c0,0 5.4,-3.4 11.7,-1.1c-0.1,-0.1 4.5,3.5 3.7,6.8z" class="st12" id="XMLID_35_"/>
     <path d="m967.1,301.4c0,0 -10.7,3.9 -8.3,33.3c2.4,29.4 -0.7,30.2 -0.7,30.2s-2.9,-1.2 -2.9,0.5c0,0 -4.9,-3.3 -8.3,1.5l-0.4,12.8c0,0 15.2,4.2 21.1,-0.6l5.8,-28.5l-6.3,-49.2z" class="st14" id="XMLID_34_"/>
     <polygon points="947.2,366.5 937.1,367.3 937.5,378.8 946.9,379.6    " class="st20" id="XMLID_33_"/>
    </g>
    <g id="phone_2">
     <g id="svg_47">
      <path id="svg_48" d="m924.3,376.7l1.5,-1.8c3,-3.5 2.8,-8.1 -0.6,-10.1l-29.9,-18.4c-3.4,-2.1 -8.5,-0.9 -11.6,2.6l-1.5,1.8c-3,3.5 -2.7,8.1 0.6,10.1l29.9,18.4c3.4,2.1 8.6,0.9 11.6,-2.6z" class="st21"/>
      <path id="svg_49" d="m927,373.5l1.5,-1.8c3,-3.5 2.8,-8.1 -0.6,-10.1l-29.9,-18.4c-3.4,-2.1 -8.5,-0.9 -11.6,2.6l-1.5,1.8c-3,3.5 -2.8,8.1 0.6,10.1l29.9,18.4c3.5,2.1 8.6,0.9 11.6,-2.6z" class="st22"/>
     </g>
     <polygon id="svg_50" points="917.5,376.1 928.1,364.1 893.7,342.1 883.2,354.1    " class="st1"/>
     <path id="svg_51" d="m904.8,364.3l3.7,-4.3c0.8,-1 0.8,-2.2 -0.2,-2.8l-0.5,-0.3c-0.9,-0.6 -2.3,-0.2 -3.2,0.7l-3.7,4.3c-0.8,1 -0.8,2.2 0.2,2.8l0.5,0.3c0.9,0.6 2.3,0.2 3.2,-0.7z" class="st25"/>
     <path id="svg_52" d="m898,354.6l3.7,-4.4c0.8,-1 0.8,-2.2 -0.2,-2.8l-0.5,-0.3c-0.9,-0.6 -2.3,-0.2 -3.2,0.7l-3.7,4.4c-0.8,1 -0.8,2.2 0.2,2.8l0.5,0.3c0.9,0.6 2.4,0.3 3.2,-0.7z" class="st24"/>
     <path id="svg_53" d="m917.1,366.8l3.7,-4.4c0.8,-1 0.8,-2.2 -0.2,-2.8l-0.5,-0.3c-0.9,-0.6 -2.3,-0.2 -3.2,0.7l-3.7,4.4c-0.8,1 -0.8,2.2 0.2,2.8l0.5,0.3c0.9,0.6 2.4,0.3 3.2,-0.7z" class="st24"/>
    </g>
    <path d="m919.6,351.2c1.7,4.6 0.8,7.1 0.8,7.1l7.6,4.1c0,0 -0.9,-5 -3.7,-8.8" class="st19" id="finger"/>
   </g>
   <g id="BRAZO_IZQ-2">
    <g id="svg_54">
     <path d="m899.8,334.3c0,0 -3,-11.9 -1.4,-23.8c0,0 2.8,0.3 2.2,4.8c-0.6,4.3 2.1,11.2 2.1,11.2l-2.9,7.8z" class="st19" id="XMLID_8_"/>
     <path d="m987.2,294.3c0,0 -12.8,-1.2 -19.4,11.1c-6.6,12.3 -20.6,48.3 -20.6,48.3l-33.6,-12.2l-2.6,8.5c0,0 26.5,16 38.8,17.7c-0.1,0.1 40.6,-59.4 37.4,-73.4z" class="st14" id="XMLID_7_"/>
     <path d="m899.8,334.3c0,0 -2.1,-12.7 3.4,-21.7c0,0 2.2,0.2 1.1,3.8s-1.5,12.5 0.3,14.3c0,-0.2 -1.8,4.6 -4.8,3.6z" class="st19" id="XMLID_6_"/>
     <path d="m914.4,348.1c0,0 -15.9,-2.7 -17.8,-8.6c-2,-6 -5.2,-10.5 -0.3,-18.6c0,0 2.2,2 0.6,6.8c0,0 -0.9,4.8 5.4,9.3c0,0 6.3,-1.1 11.2,3.4c0,-0.1 2.9,4.9 0.9,7.7z" class="st12" id="XMLID_5_"/>
     <path d="m978.5,295.7c0,0 -11.4,-0.4 -20.3,27.7c-8.9,28.1 -12,27.7 -12,27.7s-2.2,-2.2 -2.9,-0.6c0,0 -3.3,-4.9 -8.3,-1.7l-5.2,11.7c0,0 12.5,9.6 19.8,7.4l16.1,-24.2l12.8,-48z" class="st14" id="XMLID_4_"/>
     <polygon points="935.5,348.5 925.8,345.4 921.9,356.2 930.3,360.5    " class="st20" id="XMLID_3_"/>
    </g>
    <g id="phone_1">
     <g id="svg_55">
      <path id="svg_56" d="m910.4,349.3l2.1,-1.1c4.1,-2.1 5.6,-6.4 3.3,-9.6l-20.8,-28.3c-2.4,-3.2 -7.5,-4 -11.7,-2l-2.1,1.1c-4.1,2.1 -5.6,6.5 -3.3,9.6l20.7,28.3c2.5,3.3 7.7,4.1 11.8,2z" class="st21"/>
      <path id="svg_57" d="m914.1,347.4l2.1,-1.1c4.1,-2.1 5.6,-6.4 3.3,-9.6l-20.7,-28.3c-2.4,-3.2 -7.5,-4 -11.7,-2l-2.1,1.1c-4.1,2.1 -5.6,6.4 -3.3,9.6l20.7,28.3c2.5,3.2 7.6,4.1 11.7,2z" class="st22"/>
     </g>
     <polygon id="svg_58" points="904.4,346.2 918.7,339.1 895.1,305.7 880.9,312.9    " class="st1"/>
     <path id="svg_59" d="m897,330.5l5,-2.6c1.1,-0.6 1.6,-1.7 0.9,-2.7l-0.3,-0.5c-0.6,-0.9 -2.1,-1.1 -3.2,-0.6l-5,2.6c-1.1,0.6 -1.6,1.7 -0.9,2.7l0.3,0.5c0.6,0.9 2.1,1 3.2,0.6z" class="st25"/>
     <path id="svg_60" d="m894.4,318.9l5.1,-2.7c1.1,-0.6 1.6,-1.7 0.9,-2.7l-0.3,-0.5c-0.6,-0.9 -2.1,-1.1 -3.2,-0.6l-5.1,2.7c-1.1,0.6 -1.6,1.7 -0.9,2.7l0.3,0.5c0.6,0.9 2.1,1.2 3.2,0.6z" class="st24"/>
     <path id="svg_61" d="m907.5,337.4l5.1,-2.7c1.1,-0.6 1.6,-1.7 0.9,-2.7l-0.3,-0.5c-0.6,-0.9 -2.1,-1.1 -3.2,-0.6l-5.1,2.7c-1.1,0.6 -1.6,1.7 -0.9,2.7l0.3,0.5c0.6,0.9 2.1,1.2 3.2,0.6z" class="st24"/>
    </g>
    <path d="m915.7,323.9c-0.2,4.9 -1.9,6.9 -1.9,6.9l5.5,6.7c0,0 1.1,-5 -0.1,-9.5" class="st19" id="finger_1"/>
   </g>
   <g id="CARA">
    <g id="svg_62">
     <path d="m959.7,250.5l0,0c4.8,-0.5 8.3,-4.8 7.8,-9.6l-1.1,-10.2c-0.5,-4.8 -4.8,-8.3 -9.6,-7.8l0,0c-4.8,0.5 -8.3,4.8 -7.8,9.6l1.1,10.2c0.5,4.8 4.8,8.3 9.6,7.8z" class="st19" id="XMLID_20_"/>
     <path d="m994.7,287.3l5.8,0c3.6,0 6.6,-3 6.6,-6.6l0,-11.9c0,-3.6 -3,-6.6 -6.6,-6.6l-5.8,0c-3.6,0 -6.6,3 -6.6,6.6l0,11.9c0.1,3.6 3,6.6 6.6,6.6z" class="st19" id="XMLID_19_"/>
     <path d="m1032,248.6l-1.5,-49.1c-0.6,-17.6 -15.4,-31.5 -32.9,-30.9l-14.7,0.5c-17.6,0.6 -31.5,15.4 -30.9,32.9l1.4,43.9c0.3,10 11,38.4 33.7,38.7c23.2,0.3 45.1,-27 44.9,-36z" class="st12" id="XMLID_18_"/>
     <path d="m980.5,242.8c0,0 -7,7.2 2.9,8.3c0,0 -13.7,0.4 -2.9,-8.3z" class="st19" id="XMLID_17_"/>
     <g id="XMLID_14_">
      <path d="m1030.7,249.8l0,0c4.8,0 8.7,-4 8.7,-8.7l0,-10.3c0,-4.8 -4,-8.7 -8.7,-8.7l0,0c-4.8,0 -8.7,4 -8.7,8.7l0,10.3c0,4.8 3.9,8.7 8.7,8.7z" class="st12" id="XMLID_16_"/>
      <path d="m1026.4,243.6c0,0 -3.1,-14.6 4.1,-16.9c0,0 -3.2,4.8 -1.5,8.4c0,0 2.6,0.2 2.7,4.8c0.1,4.6 -4.1,5.4 -5.3,3.7z" class="st19" id="XMLID_15_"/>
     </g>
     <path id="svg_63" d="m1017.4,199c0,0 3.5,27.7 8.3,27.7c4.8,0 4.9,-4.6 4.9,-4.6s10.8,-36.3 4.2,-45.6c-6.6,-9.2 -7.5,-19.2 -2.8,-19.2c4.7,0 -12.3,-1.8 -18.2,2.6c-5.9,4.4 -60.8,-5.2 -64.5,5.9c-3.7,11.1 2.6,20.3 2.6,20.3s-9.2,18.8 -8.9,22.1c0.4,3.3 8.3,19.9 10.9,19.9c2.5,0 -6.1,-27.3 3.1,-30.8s11.8,8.7 26.4,7.6c14.5,-1.1 30.4,-8.5 34,-5.9z" class="st26"/>
     <path id="svg_64" d="m953.7,249.8l12.4,16.9c0,0 4.3,-7.8 15.4,-7.6c11.1,0.2 18,7.6 18,7.6l28.9,-17.3l4,0.3c0,0 -12,34.4 -45.3,34.9c-33.2,0.5 -33.4,-34.8 -33.4,-34.8z" class="st27"/>
     <path d="m975.5,267.9c0,0 9.3,3.4 17.8,-0.4c0,0 -6.9,7.8 -17.8,0.4z" class="st19" id="XMLID_13_"/>
    </g>
    <g id="OJOS">
     <path d="m999.2,239.5l0,0c1.4,0 2.5,-1.2 2.5,-2.6l0,-3.3c0,-1.4 -1.2,-2.5 -2.6,-2.5l0,0c-1.4,0 -2.5,1.2 -2.5,2.6l0,3.3c0.1,1.4 1.3,2.5 2.6,2.5z" class="st28" id="XMLID_28_"/>
     <path d="m964.4,240l0,0c1.4,0 2.5,-1.2 2.5,-2.6l0,-3.3c0,-1.4 -1.2,-2.5 -2.6,-2.5l0,0c-1.4,0 -2.5,1.2 -2.5,2.6l0,3.3c0.1,1.4 1.2,2.5 2.6,2.5z" class="st28" id="XMLID_27_"/>
    </g>
    <g id="eyes-closed">
     <path d="m999.2,236.9l0,0c1.4,0 2.5,-0.4 2.5,-0.9l0,-1.1c0,-0.5 -1.2,-0.9 -2.6,-0.8l0,0c-1.4,0 -2.5,0.4 -2.5,0.9l0,1.1c0.1,0.4 1.3,0.8 2.6,0.8z" class="st28" id="XMLID_2_"/>
     <path d="m964.4,237.1l0,0c1.4,0 2.5,-0.4 2.5,-0.9l0,-1.1c0,-0.5 -1.2,-0.9 -2.6,-0.8l0,0c-1.4,0 -2.5,0.4 -2.5,0.9l0,1.1c0.1,0.4 1.2,0.8 2.6,0.8z" class="st28" id="XMLID_1_"/>
    </g>
    <g id="CEJAS">
     <path d="m990.8,224.7c2.9,-2.7 9.9,-7.5 18.2,0.5c0.8,0.8 1.8,0 2.1,-1.6l0.3,-1.6c0.2,-1.2 -0.1,-2.4 -0.7,-3c-2.9,-2.9 -11.7,-9.9 -21.3,1.2c-0.6,0.7 -0.8,2 -0.6,3.2l0,0c0.3,1.4 1.3,2.1 2,1.3z" class="st29" id="XMLID_22_"/>
     <path d="m968.3,221.6c-1.3,-1.3 -9.7,-1.7 -12.5,2.1c-0.8,1.1 -1.9,0.4 -2.1,-1.3l-0.2,-1.5c-0.1,-0.9 0,-1.8 0.4,-2.4c2,-3.1 8.4,-11.3 15.9,-1c0.4,0.6 0.6,1.6 0.5,2.5l0,0c-0.2,1.6 -1.2,2.4 -2,1.6z" class="st29" id="XMLID_21_"/>
    </g>
   </g>
   <g id="CARA-2">
    <g id="svg_65">
     <path d="m955.9,255.4l0,0c4.6,-1.3 7.4,-6.1 6.1,-10.8l-2.8,-9.9c-1.3,-4.6 -6.1,-7.4 -10.8,-6.1l0,0c-4.6,1.3 -7.4,6.1 -6.1,10.8l2.8,9.9c1.3,4.6 6.1,7.3 10.8,6.1z" class="st19" id="XMLID_40_"/>
     <path d="m996.5,285.8l5.7,-1c3.5,-0.6 6,-4.1 5.4,-7.6l-2,-11.7c-0.6,-3.5 -4.1,-6 -7.6,-5.4l-5.7,1c-3.5,0.6 -6,4.1 -5.4,7.6l2,11.7c0.7,3.5 4.1,6 7.6,5.4z" class="st19" id="XMLID_39_"/>
     <path d="m1026.8,241.4l-9.7,-48.2c-3.5,-17.3 -20.4,-28.5 -37.6,-25l-14.4,2.9c-17.3,3.5 -28.5,20.4 -25,37.6l8.7,43.1c2,9.8 17.2,36 39.7,32.5c23,-3.5 40,-34 38.3,-42.9z" class="st12" id="XMLID_32_"/>
     <path d="m975.1,244.3c0,0 -5.7,8.3 4.2,7.7c0,0 -13.4,2.7 -4.2,-7.7z" class="st19" id="XMLID_31_"/>
     <g id="XMLID_26_">
      <path d="m1025.8,242.8l0,0c4.7,-0.8 7.9,-5.4 7.1,-10l-1.7,-10.2c-0.8,-4.7 -5.4,-7.9 -10,-7.1l0,0c-4.7,0.8 -7.9,5.4 -7.1,10l1.7,10.2c0.7,4.7 5.2,7.9 10,7.1z" class="st12" id="XMLID_30_"/>
      <path d="m1020.5,237.4c0,0 -5.5,-13.9 1.2,-17.3c0,0 -2.4,5.3 -0.1,8.5c0,0 2.6,-0.2 3.5,4.3c0.9,4.5 -3.1,6 -4.6,4.5z" class="st19" id="XMLID_29_"/>
     </g>
     <path id="svg_66" d="m1004.2,195c0,0 8.1,26.7 12.8,25.9c4.7,-0.8 4.1,-5.4 4.1,-5.4s4.6,-37.6 -3.5,-45.7c-8,-8 -10.6,-17.7 -6,-18.5s-12.4,0.3 -17.5,5.6c-5.1,5.3 -60.8,5 -62.6,16.6c-1.8,11.6 5.9,19.6 5.9,19.6s-5.9,20.1 -5.1,23.3c0.9,3.2 11.5,18.2 14.1,17.8c2.5,-0.4 -10.6,-25.9 -2.1,-30.9s13.1,6.6 27.3,3.1c14.2,-3.5 28.6,-13.4 32.6,-11.4z" class="st26"/>
     <path id="svg_67" d="m949.8,255.7l15,14.6c0,0 2.9,-8.4 13.9,-10.1c11,-1.7 19,4.5 19,4.5l25.6,-21.9l4,-0.4c0,0 -6.1,35.9 -38.8,42c-32.6,6 -38.7,-28.7 -38.7,-28.7z" class="st26"/>
     <path d="m974.4,269.9c0,0 9.7,1.8 17.5,-3.4c-0.1,0 -5.6,8.9 -17.5,3.4z" class="st19" id="XMLID_25_"/>
    </g>
    <g id="OJOS_1">
     <path d="m993,237.9l0,0c1.4,-0.2 2.3,-1.6 2,-3l-0.6,-3.3c-0.2,-1.4 -1.6,-2.3 -3,-2l0,0c-1.4,0.2 -2.3,1.6 -2,3l0.6,3.3c0.3,1.4 1.7,2.2 3,2z" class="st27" id="XMLID_24_"/>
     <path d="m958.8,244.2l0,0c1.4,-0.2 2.3,-1.6 2,-3l-0.6,-3.3c-0.2,-1.4 -1.6,-2.3 -3,-2l0,0c-1.4,0.2 -2.3,1.6 -2,3l0.6,3.3c0.3,1.3 1.6,2.2 3,2z" class="st27" id="XMLID_23_"/>
    </g>
    <g id="eyes-closed_1_">
     <path d="m992.6,235.4l0,0c1.4,-0.2 2.4,-0.8 2.3,-1.3l-0.2,-1.1c-0.1,-0.5 -1.3,-0.7 -2.7,-0.4l0,0c-1.4,0.2 -2.4,0.8 -2.3,1.3l0.2,1.1c0.1,0.4 1.4,0.6 2.7,0.4z" class="st27" id="XMLID_12_"/>
     <path d="m958.3,241.4l0,0c1.4,-0.2 2.4,-0.8 2.3,-1.3l-0.2,-1.1c-0.1,-0.5 -1.3,-0.7 -2.7,-0.4l0,0c-1.4,0.2 -2.4,0.8 -2.3,1.3l0.2,1.1c0.1,0.4 1.3,0.6 2.7,0.4z" class="st27" id="XMLID_11_"/>
    </g>
    <g id="CEJAS_1_">
     <path d="m982.2,224.7c2.4,-3.1 8.5,-9 18,-2.5c0.9,0.7 1.8,-0.3 1.8,-1.9l0,-1.6c0,-1.2 -0.5,-2.3 -1.2,-2.8c-3.3,-2.4 -13.2,-7.8 -20.8,4.7c-0.5,0.8 -0.5,2.1 -0.1,3.3l0,0c0.7,1.2 1.8,1.7 2.3,0.8z" class="st28" id="XMLID_10_"/>
     <path d="m959.5,225.4c-1.5,-1.1 -9.8,-0.1 -12,4.2c-0.6,1.2 -1.8,0.7 -2.3,-0.9l-0.4,-1.4c-0.2,-0.9 -0.3,-1.8 0,-2.4c1.5,-3.4 6.4,-12.5 15.5,-3.6c0.5,0.5 0.9,1.5 0.9,2.4l0,0c0.1,1.4 -0.7,2.4 -1.7,1.7z" class="st28" id="XMLID_9_"/>
    </g>
   </g>
  </g>
  <g id="chaires">
   <rect id="svg_68" height="48.3" width="879.7" class="st8" y="419.8" x="-9.8"/>
   <rect id="svg_69" height="47.7" width="40.9" class="st10" y="431.5" x="95.8"/>
   <ellipse id="svg_70" ry="33.7" rx="28.9" cy="455.4" cx="272" class="st10"/>
   <path id="svg_71" d="m407.2,431.5c13.6,0 27.3,0 40.9,0c0,15.9 0,31.8 0,47.7c-13.6,0 -27.3,0 -40.9,0c0,-15.9 0,-31.8 0,-47.7z" class="st10"/>
   <ellipse id="svg_72" ry="33.7" rx="29" cy="455.4" cx="583.4" class="st10"/>
   <rect id="svg_73" height="47.7" width="40.9" class="st10" y="431.5" x="718.7"/>
  </g>
 </g>
</svg>