<svg width="800" height="450" xmlns="http://www.w3.org/2000/svg">
 <g>
  <title>background</title>
  <rect x="-1" y="-1" width="802" height="452" id="canvas_background" fill="#fff"/>
 </g>

 <g>
  <title>background</title>
  <rect x="-1" y="-1" width="818.32653" height="461.18367" id="canvas_background" fill="#fff"/>
 </g>
 <g>
  <title>background</title>
  <rect height="452" width="802" fill="none" y="-1" x="-1" id="canvas_background"/>
  <polygon points="119.633,93.888 26.256,229.566 0,191.354 0,0 55.078,0  " fill="#ED1A7B" id="svg_1"/>
  <polygon points="26.256,229.566 0,267.781 0,191.354  " fill="#E71285" id="svg_2"/>
  <polygon points="184.285,0 119.633,93.888 55.078,0  " fill="#ED1D84" id="svg_3"/>
  <polygon points="119.633,365.391 26.256,229.566 119.633,93.888 213.01,229.566  " fill="#E1127F" id="svg_4"/>
  <polygon points="119.633,365.391 60.803,450.833 0,450.833 0,267.781 26.256,229.566  " fill="#ED1D84" id="svg_5"/>
  <polygon points="306.386,93.888 213.01,229.566 119.633,93.888 184.285,0 241.733,0  " fill="#E71285" id="svg_6"/>
  <polygon points="306.386,365.391 247.556,450.833 178.462,450.833 119.633,365.391 213.01,229.566  " fill="#ED288B" id="svg_7"/>
  <polygon points="178.462,450.833 60.803,450.833 119.633,365.391  " fill="#E92172" id="svg_8"/>
  <polygon points="306.386,365.391 213.01,229.566 306.386,93.888 399.66,229.566  " fill="#DA2790" id="svg_9"/>
  <polygon points="370.941,0 306.386,93.888 241.733,0  " fill="#E93895" id="svg_10"/>
  <polygon points="493.039,93.888 399.66,229.566 306.386,93.888 370.941,0 428.486,0  " fill="#ED1A7B" id="svg_11"/>
  <polygon points="557.694,0 493.039,93.888 428.486,0  " fill="#EE4799" id="svg_12"/>
  <polygon points="365.215,450.833 247.556,450.833 306.386,365.391  " fill="#E71285" id="svg_13"/>
  <polygon points="493.039,365.391 434.211,450.833 365.215,450.833 306.386,365.391 399.66,229.566  " fill="#E93895" id="svg_14"/>
  <polygon points="493.039,365.391 399.66,229.566 493.039,93.888 586.416,229.566  " fill="#E1127F" id="svg_15"/>
  <polygon points="679.794,93.888 586.416,229.566 493.039,93.888 557.694,0 615.141,0  " fill="#ED1D84" id="svg_16"/>
  <polygon points="744.348,0 679.794,93.888 615.141,0  " fill="#DA2790" id="svg_17"/>
  <polygon points="551.866,450.833 434.211,450.833 493.039,365.391  " fill="#E71285" id="svg_18"/>
  <polygon points="679.794,365.391 620.964,450.833 551.866,450.833 493.039,365.391 586.416,229.566     " fill="#EE4799" id="svg_19"/>
  <polygon points="679.794,365.391 586.416,229.566 679.794,93.888 773.17,229.566  " fill="#E92172" id="svg_20"/>
  <polygon points="801.5,0 801.5,188.348 773.17,229.566 679.794,93.888 744.348,0  " fill="#E93895" id="svg_21"/>
  <polygon points="738.621,450.833 620.964,450.833 679.794,365.391  " fill="#E92172" id="svg_22"/>
  <polygon points="801.5,270.786 801.5,450.833 738.621,450.833 679.794,365.391 773.17,229.566  " fill="#ED1D84" id="svg_23"/>
  <polygon points="801.5,188.348 801.5,270.786 773.17,229.566  " fill="#E1127F" id="svg_24"/>
 </g>
 <g>
  <title>Layer 1</title>
  <text font-size="15.2659" font-family="'HelveticaWorld-Regular'" fill="#ECF0F1" transform="matrix(1.0025,0,0,1,-248.991,471.5244) " id="svg_26">industry. Lorem Ipsum has been the industry's</text>
  <rect height="12.625" width="430.267" fill="#ECF0F1" y="334.143" x="179.778" id="svg_108"/>
  <g class="animate__animated animate__bounceIn animate__repeat-1 animate__delay-1s animate__faster" id="svg_27">
   <g transform="matrix(0.4300638538071919,0,0,0.4300638538071919,-2887.618235063739,-1813.2078081192449) " id="svg_106">
    <title>Layer 1</title>
    <g id="svg_100">
     <polygon points="7652.553,4508.398 7646.935,4505.895 7646.935,4488.124 7610.937,4488.124      7610.937,4505.895 7605.319,4508.278 7606.756,4558.732 7610.937,4558.732 7610.937,4566.485 7646.935,4566.485      7646.935,4558.732 7651.118,4558.732    " fill="#F3C29D" id="svg_102"/>
     <polygon points="7646.935,4489.912 7646.935,4504.344 7610.937,4498.259 7610.937,4489.912    " fill="#F3C29D" id="svg_101"/>
    </g>
    <path d="m7636.054,4687.188l-13.513,0l-48.905,0l3.826,300.927l39.459,0l7.18,-257.749l10.282,0l7.171,257.749l39.461,0l3.824,-300.926l-48.777,0l-0.008,-0.001l0,0z" fill="#19273F" id="svg_99"/>
    <path d="m7618.237,4995.039c0,11.803 -46.514,11.803 -46.514,0c0,-11.808 8.724,-16.821 23.313,-16.821c14.473,0.004 23.201,5.131 23.201,16.821z" fill="#191919" id="svg_98"/>
    <path d="m7685.674,4995.039c0,11.803 -46.514,11.803 -46.514,0c0,-11.808 8.729,-16.821 23.316,-16.821c14.469,0.004 23.198,5.131 23.198,16.821z" fill="#191919" id="svg_97"/>
    <g id="svg_95">
     <path d="m7705.643,4535.474c-6.572,-14.313 -25.105,-17.89 -51.655,-27.078c-0.954,-0.355 -1.912,-0.713 -2.873,-0.953l0,0.119c-1.787,9.899 -6.692,22.663 -22.117,24.097c-15.425,-1.552 -20.333,-14.314 -22.124,-24.097l0,-0.119c-0.956,0.356 -1.914,0.716 -2.87,0.953c-26.547,9.066 -45.081,12.646 -51.657,27.078c-8.247,18.249 15.545,37.333 15.545,37.333s2.15,114.98 5.736,114.98l55.483,0l55.481,0c3.588,0 5.74,-114.98 5.74,-114.98s23.552,-19.084 15.3,-37.333l0.011,0z" fill="#FAA21B" id="svg_96"/>
    </g>
    <g id="svg_91">
     <path d="m7665.469,4656.656l-71.867,0c-5.861,0 -10.521,-6.083 -10.521,-13.478l-4.543,-77.17c0,-7.514 4.662,-13.478 10.518,-13.478l80.954,0c5.856,0 10.525,6.083 10.525,13.478l-4.551,77.17c0.003,7.513 -4.657,13.478 -10.515,13.478l0,0z" fill="#EFEFEF" id="svg_94"/>
     <path d="m7670.251,4552.531l-81.313,0c-3.588,0 -6.817,2.382 -8.611,6.083c1.676,-1.433 3.588,-2.27 5.62,-2.27l81.311,0c5.741,0 10.284,6.083 10.284,13.599l-4.543,79.316c0,2.745 -0.597,5.251 -1.671,7.396c2.748,-2.383 4.66,-6.561 4.66,-11.33l4.546,-79.317c0.003,-7.514 -4.665,-13.477 -10.283,-13.477l0,0z" fill="#C8C8C8" id="svg_93"/>
     <path d="m7665.469,4572.208l0,0c-2.396,0 -4.423,-2.029 -4.423,-4.413l0,0c0,-2.388 2.03,-4.415 4.423,-4.415l0,0c2.389,0 4.423,2.03 4.423,4.415l0,0c0,2.506 -1.914,4.413 -4.423,4.413z" fill="#393744" id="svg_92"/>
    </g>
    <g id="svg_88">
     <path d="m7586.072,4598.928c0,0 -7.055,0.833 -12.557,1.192c-1.313,0.119 -2.75,0.119 -4.063,0.239c-1.314,0 -2.393,0.119 -3.467,0.119c-2.035,0 -3.349,0 -3.349,0l-0.477,22.424c0,0 1.671,0 4.185,0c1.197,0 2.629,-0.121 4.183,-0.121c1.438,-0.118 3.115,-0.237 4.667,-0.237c6.337,-0.476 13.867,-1.313 13.867,-1.313c4.905,-0.596 7.775,-6.322 6.819,-12.404c-0.961,-6.083 -5.384,-10.376 -9.808,-9.899l0,0z" fill="#F1AE75" id="svg_90"/>
     <path d="m7578.658,4593.203c-3.708,0.476 -6.581,3.101 -8.729,5.726c-2.153,2.625 -3.585,5.126 -3.706,5.369c-0.842,1.67 -0.722,4.056 0.597,5.247c1.192,1.192 2.988,0.836 3.824,-0.833c0,0 0.238,-0.478 0.72,-1.191c0.477,-0.717 1.074,-1.67 1.912,-2.625c1.558,-1.911 3.708,-3.934 6.217,-4.175c1.435,-0.119 2.514,-1.908 2.157,-4.052c-0.362,-2.154 -1.561,-3.709 -2.992,-3.466l0,0z" fill="#F1AE75" id="svg_89"/>
    </g>
    <path d="m7565.625,4627.912c-9.208,0 -35.274,1.433 -43.046,-4.89c-5.5,-4.417 -15.066,-18.966 -2.986,-43.297c10.042,-20.272 24.393,-38.642 39.697,-53.077l18.059,37.692c-14.11,13.359 -17.583,12.523 -30.85,27.313c-4.067,4.417 -2.391,5.964 -2.273,6.083c2.15,1.791 14.943,0.718 23.438,0.121l2.146,29.816c-2.871,0.121 -1.315,0.239 -4.185,0.239l0,0z" fill="#FAA21B" id="svg_87"/>
    <g id="svg_84">
     <path d="m7672.88,4598.928c0,0 7.053,0.833 12.557,1.192c1.317,0.119 2.752,0.119 4.06,0.239c1.317,0 2.394,0.119 3.47,0.119c2.035,0 3.347,0 3.347,0l0.481,22.424c0,0 -1.676,0 -4.189,0c-1.192,0 -2.632,-0.121 -4.183,-0.121c-1.435,-0.118 -3.106,-0.237 -4.664,-0.237c-6.34,-0.476 -13.87,-1.313 -13.87,-1.313c-4.905,-0.596 -7.775,-6.322 -6.816,-12.404c1.078,-6.083 5.502,-10.376 9.807,-9.899l0,0z" fill="#F1AE75" id="svg_86"/>
     <path d="m7680.415,4593.203c3.708,0.476 6.576,3.101 8.729,5.726c2.148,2.625 3.587,5.126 3.706,5.369c0.836,1.67 0.718,4.056 -0.6,5.247c-1.194,1.192 -2.988,0.836 -3.824,-0.833c0,0 -0.236,-0.478 -0.718,-1.191c-0.479,-0.717 -1.076,-1.67 -1.918,-2.625c-1.553,-1.911 -3.706,-3.934 -6.215,-4.175c-1.439,-0.119 -2.511,-1.908 -2.155,-4.052c0.243,-2.148 1.553,-3.699 2.991,-3.458l0.002,0l0,-0.007l0.002,0l0,-0.001z" fill="#F1AE75" id="svg_85"/>
    </g>
    <path d="m7693.444,4627.912c9.208,0 35.276,1.433 43.048,-4.89c5.495,-4.417 15.066,-18.966 2.993,-43.297c-10.05,-20.272 -24.274,-37.57 -39.46,-52.001l-17.821,36.975c14.108,13.361 17.103,12.048 30.373,26.835c4.069,4.412 2.394,5.963 2.271,6.082c-2.148,1.793 -14.941,0.719 -23.434,0.121l-2.157,29.82c2.875,0.237 1.201,0.355 4.187,0.355z" fill="#FAA21B" id="svg_83"/>
    <path d="m7668.214,4437.431l1.201,-15.867c0,-20.632 -19.853,-37.451 -40.542,-37.451c-20.687,0 -40.535,16.7 -40.535,37.451l1.197,15.749c-1.197,0.237 -2.146,0.833 -3.106,1.549c-1.676,1.432 -2.632,3.458 -2.632,5.725l0,7.751c0,4.175 3.35,7.396 7.414,7.515c0,19.559 23.559,38.046 37.544,38.046c13.997,0 37.544,-18.487 37.544,-38.046c4.067,0 7.418,-3.338 7.418,-7.515l0,-7.751c0.244,-3.459 -2.267,-6.321 -5.503,-7.156z" fill="#F3C29D" id="svg_82"/>
    <g id="svg_73">
     <g id="svg_78">
      <ellipse ry="2.565" rx="2.565" cy="4444.824" cx="7611.659" fill="#F7CDBA" id="svg_81"/>
      <ellipse ry="2.564" rx="2.564" cy="4443.394" cx="7611.659" fill="#3C2518" id="svg_80"/>
      <circle r="1.432" cy="4444.466" cx="7613.691" fill="#FFFFFF" id="svg_79"/>
     </g>
     <g id="svg_74">
      <ellipse ry="2.565" rx="2.565" cy="4444.824" cx="7646.217" fill="#F7CDBA" id="svg_77"/>
      <ellipse ry="2.564" rx="2.564" cy="4443.394" cx="7646.217" fill="#3C2518" id="svg_76"/>
      <circle r="1.432" cy="4444.466" cx="7648.127" fill="#FFFFFF" id="svg_75"/>
     </g>
    </g>
    <g id="svg_71">
     <path d="m7641.313,4476.192c0,1.192 -5.379,3.699 -12.196,3.699c-6.812,0 -12.314,-2.507 -12.314,-3.699c0,0 4.782,2.268 12.196,1.792c7.531,-0.361 12.314,-1.792 12.314,-1.792z" fill="#D8A68B" id="svg_72"/>
    </g>
    <g id="svg_69">
     <path d="m7633.903,4467.248c0,0.833 -1.676,2.505 -3.833,2.505c-2.155,0 -3.942,-1.792 -3.942,-2.505c0,0 1.556,1.551 3.829,1.313c2.506,-0.359 3.946,-1.313 3.946,-1.313z" fill="#D8A68B" id="svg_70"/>
    </g>
    <path d="m7614.527,4383.161c-30.609,-10.139 -32.399,33.751 -30.015,58.8c2.389,5.489 4.662,11.092 7.176,16.58c0.12,-0.119 0.243,-0.119 0.243,-0.242c0.121,-2.979 0.354,-5.724 1.315,-8.11c-0.958,-7.154 -1.558,-16.698 0.715,-24.809c2.15,-7.514 11.36,-11.688 18.89,-9.78c5.504,1.313 11.245,1.789 16.263,1.789c5.025,0 10.763,-0.476 16.261,-1.789c7.534,-1.911 16.744,2.267 18.893,9.78c2.752,9.781 1.317,21.83 0,29.103c0,0 0,0.12 0.118,0.12c0.481,1.193 0.604,3.221 0.84,4.771c0.123,-0.237 0.123,-0.356 0.248,-0.596c1.546,-4.654 4.301,-8.706 6.099,-13.242c0.833,-2.264 1.669,-4.412 2.507,-6.559c2.035,-27.313 -3.826,-72.878 -59.541,-55.82l-0.009,0l0,0.004l-0.003,0z" fill="#503D31" id="svg_68"/>
   </g>
  </g>
  <style type="text/css">:root {
        --animate-duration: 1s;
        --animate-delay: 1s;
        --animate-repeat: 1;
      }
      
       .animate__animated {
        -webkit-animation-duration: 1s;
        animation-duration: 1s;
        -webkit-animation-duration: var(--animate-duration);
        animation-duration: var(--animate-duration);
        -webkit-animation-fill-mode: both;
        animation-fill-mode: both;
      }
    @-webkit-keyframes bounceIn {

    from,
    20%,
    40%,
    60%,
    80%,
    to {
        -webkit-animation-timing-function: cubic-bezier(.215, .61, .355, 1.000);
        animation-timing-function: cubic-bezier(.215, .61, .355, 1.000)
    }

    0% {
        opacity: 0;
        -webkit-transform: scale3d(.3, .3, .3);
        transform: scale3d(.3, .3, .3)
    }

    20% {
        -webkit-transform: scale3d(1.1, 1.1, 1.1);
        transform: scale3d(1.1, 1.1, 1.1)
    }

    40% {
        -webkit-transform: scale3d(.9, .9, .9);
        transform: scale3d(.9, .9, .9)
    }

    60% {
        opacity: 1;
        -webkit-transform: scale3d(1.03, 1.03, 1.03);
        transform: scale3d(1.03, 1.03, 1.03)
    }

    80% {
        -webkit-transform: scale3d(.97, .97, .97);
        transform: scale3d(.97, .97, .97)
    }

    to {
        opacity: 1;
        -webkit-transform: scale3d(1, 1, 1);
        transform: scale3d(1, 1, 1)
    }
}

@keyframes bounceIn {

    from,
    20%,
    40%,
    60%,
    80%,
    to {
        -webkit-animation-timing-function: cubic-bezier(.215, .61, .355, 1.000);
        animation-timing-function: cubic-bezier(.215, .61, .355, 1.000)
    }

    0% {
        opacity: 0;
        -webkit-transform: scale3d(.3, .3, .3);
        transform: scale3d(.3, .3, .3)
    }

    20% {
        -webkit-transform: scale3d(1.1, 1.1, 1.1);
        transform: scale3d(1.1, 1.1, 1.1)
    }

    40% {
        -webkit-transform: scale3d(.9, .9, .9);
        transform: scale3d(.9, .9, .9)
    }

    60% {
        opacity: 1;
        -webkit-transform: scale3d(1.03, 1.03, 1.03);
        transform: scale3d(1.03, 1.03, 1.03)
    }

    80% {
        -webkit-transform: scale3d(.97, .97, .97);
        transform: scale3d(.97, .97, .97)
    }

    to {
        opacity: 1;
        -webkit-transform: scale3d(1, 1, 1);
        transform: scale3d(1, 1, 1)
    }
}

.animate__bounceIn {
    -webkit-animation-name: bounceIn;
    animation-name: bounceIn
}
    .animate__animated.animate__repeat-1 {
          -webkit-animation-iteration-count: 1;
          animation-iteration-count: 1;
          -webkit-animation-iteration-count: var(--animate-repeat);
          animation-iteration-count: var(--animate-repeat);
        }
    .animate__animated.animate__delay-1s {
          -webkit-animation-delay: 1s;
          animation-delay: 1s;
          -webkit-animation-delay: var(--animate-delay);
          animation-delay: var(--animate-delay);
        }
    .animate__animated.animate__faster {
          -webkit-animation-duration: calc(1s / 2);
          animation-duration: calc(1s / 2);
          -webkit-animation-duration: calc(var(--animate-duration) / 2);
          animation-duration: calc(var(--animate-duration) / 2);
        }</style>
  <style type="text/css">:root {
        --animate-duration: 1s;
        --animate-delay: 1s;
        --animate-repeat: 1;
      }
      
       .animate__animated {
        -webkit-animation-duration: 1s;
        animation-duration: 1s;
        -webkit-animation-duration: var(--animate-duration);
        animation-duration: var(--animate-duration);
        -webkit-animation-fill-mode: both;
        animation-fill-mode: both;
      }
    @-webkit-keyframes fadeIn {
    from {
        opacity: 0
    }

    to {
        opacity: 1
    }
}

@keyframes fadeIn {
    from {
        opacity: 0
    }

    to {
        opacity: 1
    }
}

.animate__fadeIn {
    -webkit-animation-name: fadeIn;
    animation-name: fadeIn
}

    .animate__animated.animate__repeat-1 {
          -webkit-animation-iteration-count: 1;
          animation-iteration-count: 1;
          -webkit-animation-iteration-count: var(--animate-repeat);
          animation-iteration-count: var(--animate-repeat);
        }
    .animate__animated.animate__delay-2s {
          -webkit-animation-delay: calc(1s * 2);
          animation-delay: calc(1s * 2);
          -webkit-animation-delay: calc(var(--animate-delay) * 2);
          animation-delay: calc(var(--animate-delay) * 2);
        }
    .animate__animated.animate__faster {
          -webkit-animation-duration: calc(1s / 2);
          animation-duration: calc(1s / 2);
          -webkit-animation-duration: calc(var(--animate-duration) / 2);
          animation-duration: calc(var(--animate-duration) / 2);
        }</style>
  <style type="text/css">:root {
        --animate-duration: 1s;
        --animate-delay: 1s;
        --animate-repeat: 1;
      }
      
       .animate__animated {
        -webkit-animation-duration: 1s;
        animation-duration: 1s;
        -webkit-animation-duration: var(--animate-duration);
        animation-duration: var(--animate-duration);
        -webkit-animation-fill-mode: both;
        animation-fill-mode: both;
      }
    @-webkit-keyframes fadeIn {
    from {
        opacity: 0
    }

    to {
        opacity: 1
    }
}

@keyframes fadeIn {
    from {
        opacity: 0
    }

    to {
        opacity: 1
    }
}

.animate__fadeIn {
    -webkit-animation-name: fadeIn;
    animation-name: fadeIn
}

    .animate__animated.animate__repeat-1 {
          -webkit-animation-iteration-count: 1;
          animation-iteration-count: 1;
          -webkit-animation-iteration-count: var(--animate-repeat);
          animation-iteration-count: var(--animate-repeat);
        }
    .animate__animated.animate__delay-2s {
          -webkit-animation-delay: calc(1s * 2);
          animation-delay: calc(1s * 2);
          -webkit-animation-delay: calc(var(--animate-delay) * 2);
          animation-delay: calc(var(--animate-delay) * 2);
        }
    .animate__animated.animate__faster {
          -webkit-animation-duration: calc(1s / 2);
          animation-duration: calc(1s / 2);
          -webkit-animation-duration: calc(var(--animate-duration) / 2);
          animation-duration: calc(var(--animate-duration) / 2);
        }</style>
  <g id="svg_30">
   <style type="text/css">:root {
        --animate-duration: 1s;
        --animate-delay: 1s;
        --animate-repeat: 1;
      }
      
       .animate__animated {
        -webkit-animation-duration: 1s;
        animation-duration: 1s;
        -webkit-animation-duration: var(--animate-duration);
        animation-duration: var(--animate-duration);
        -webkit-animation-fill-mode: both;
        animation-fill-mode: both;
      }
    @-webkit-keyframes fadeIn {
    from {
        opacity: 0
    }

    to {
        opacity: 1
    }
}

@keyframes fadeIn {
    from {
        opacity: 0
    }

    to {
        opacity: 1
    }
}

.animate__fadeIn {
    -webkit-animation-name: fadeIn;
    animation-name: fadeIn
}

    .animate__animated.animate__repeat-1 {
          -webkit-animation-iteration-count: 1;
          animation-iteration-count: 1;
          -webkit-animation-iteration-count: var(--animate-repeat);
          animation-iteration-count: var(--animate-repeat);
        }
    .animate__animated.animate__delay-2s {
          -webkit-animation-delay: calc(1s * 2);
          animation-delay: calc(1s * 2);
          -webkit-animation-delay: calc(var(--animate-delay) * 2);
          animation-delay: calc(var(--animate-delay) * 2);
        }
    .animate__animated.animate__faster {
          -webkit-animation-duration: calc(1s / 2);
          animation-duration: calc(1s / 2);
          -webkit-animation-duration: calc(var(--animate-duration) / 2);
          animation-duration: calc(var(--animate-duration) / 2);
        }</style>
   <g class="animate__animated animate__fadeIn animate__repeat-1 animate__delay-2s animate__faster" id="svg_31">
    <text font-size="12.6357" font-family="'HelveticaWorld-Regular'" fill="#050505" transform="matrix(1.0025,0,0,1,384.6391,171.3545) " id="svg_29_3_">us</text>
   </g>
  </g>
  <style type="text/css">:root {
        --animate-duration: 1s;
        --animate-delay: 1s;
        --animate-repeat: 1;
      }
      
       .animate__animated {
        -webkit-animation-duration: 1s;
        animation-duration: 1s;
        -webkit-animation-duration: var(--animate-duration);
        animation-duration: var(--animate-duration);
        -webkit-animation-fill-mode: both;
        animation-fill-mode: both;
      }
    @-webkit-keyframes fadeIn {
    from {
        opacity: 0
    }

    to {
        opacity: 1
    }
}

@keyframes fadeIn {
    from {
        opacity: 0
    }

    to {
        opacity: 1
    }
}

.animate__fadeIn {
    -webkit-animation-name: fadeIn;
    animation-name: fadeIn
}

    .animate__animated.animate__repeat-1 {
          -webkit-animation-iteration-count: 1;
          animation-iteration-count: 1;
          -webkit-animation-iteration-count: var(--animate-repeat);
          animation-iteration-count: var(--animate-repeat);
        }
    .animate__animated.animate__delay-2s {
          -webkit-animation-delay: calc(1s * 2);
          animation-delay: calc(1s * 2);
          -webkit-animation-delay: calc(var(--animate-delay) * 2);
          animation-delay: calc(var(--animate-delay) * 2);
        }
    .animate__animated.animate__faster {
          -webkit-animation-duration: calc(1s / 2);
          animation-duration: calc(1s / 2);
          -webkit-animation-duration: calc(var(--animate-duration) / 2);
          animation-duration: calc(var(--animate-duration) / 2);
        }</style>
  <g class="animate__animated animate__fadeIn animate__repeat-1 animate__delay-2s animate__faster" id="svg_32">
   <text x="0" y="-1.33333" font-size="12.6357" font-family="'HelveticaWorld-Regular'" fill="#050505" transform="matrix(1.0025,0,0,1,380.311,186.6895) " id="svg_29_2_">Now</text>
  </g>
  <style type="text/css">:root {
        --animate-duration: 1s;
        --animate-delay: 1s;
        --animate-repeat: 1;
      }
      
       .animate__animated {
        -webkit-animation-duration: 1s;
        animation-duration: 1s;
        -webkit-animation-duration: var(--animate-duration);
        animation-duration: var(--animate-duration);
        -webkit-animation-fill-mode: both;
        animation-fill-mode: both;
      }
    @-webkit-keyframes fadeIn {
    from {
        opacity: 0
    }

    to {
        opacity: 1
    }
}

@keyframes fadeIn {
    from {
        opacity: 0
    }

    to {
        opacity: 1
    }
}

.animate__fadeIn {
    -webkit-animation-name: fadeIn;
    animation-name: fadeIn
}

    .animate__animated.animate__repeat-1 {
          -webkit-animation-iteration-count: 1;
          animation-iteration-count: 1;
          -webkit-animation-iteration-count: var(--animate-repeat);
          animation-iteration-count: var(--animate-repeat);
        }
    .animate__animated.animate__delay-2s {
          -webkit-animation-delay: calc(1s * 2);
          animation-delay: calc(1s * 2);
          -webkit-animation-delay: calc(var(--animate-delay) * 2);
          animation-delay: calc(var(--animate-delay) * 2);
        }
    .animate__animated.animate__faster {
          -webkit-animation-duration: calc(1s / 2);
          animation-duration: calc(1s / 2);
          -webkit-animation-duration: calc(var(--animate-duration) / 2);
          animation-duration: calc(var(--animate-duration) / 2);
        }</style>
  <g class="animate__animated animate__fadeIn animate__repeat-1 animate__delay-2s animate__faster" id="svg_33">
   <g id="svg_28">
    <text font-size="12.6357" font-family="'HelveticaWorld-Regular'" fill="#050505" transform="matrix(1.0025,0,0,1,380.0102,158.8691) " id="svg_29_1_">Call</text>
   </g>
  </g>
  <style type="text/css">:root {
        --animate-duration: 1s;
        --animate-delay: 1s;
        --animate-repeat: 1;
      }
      
       .animate__animated {
        -webkit-animation-duration: 1s;
        animation-duration: 1s;
        -webkit-animation-duration: var(--animate-duration);
        animation-duration: var(--animate-duration);
        -webkit-animation-fill-mode: both;
        animation-fill-mode: both;
      }
    @-webkit-keyframes fadeInDown {
    from {
        opacity: 0;
        -webkit-transform: translate3d(0, -100%, 0);
        transform: translate3d(0, -100%, 0)
    }

    to {
        opacity: 1;
        -webkit-transform: none;
        transform: none
    }
}

@keyframes fadeInDown {
    from {
        opacity: 0;
        -webkit-transform: translate3d(0, -100%, 0);
        transform: translate3d(0, -100%, 0)
    }

    to {
        opacity: 1;
        -webkit-transform: none;
        transform: none
    }
}

.animate__fadeInDown {
    -webkit-animation-name: fadeInDown;
    animation-name: fadeInDown
}

    .animate__animated.animate__repeat-1 {
          -webkit-animation-iteration-count: 1;
          animation-iteration-count: 1;
          -webkit-animation-iteration-count: var(--animate-repeat);
          animation-iteration-count: var(--animate-repeat);
        }
    .animate__animated.animate__delay-1s {
          -webkit-animation-delay: 1s;
          animation-delay: 1s;
          -webkit-animation-delay: var(--animate-delay);
          animation-delay: var(--animate-delay);
        }
    .animate__animated.animate__faster {
          -webkit-animation-duration: calc(1s / 2);
          animation-duration: calc(1s / 2);
          -webkit-animation-duration: calc(var(--animate-duration) / 2);
          animation-duration: calc(var(--animate-duration) / 2);
        }</style>
  <g id="svg_34" class="animate__animated animate__fadeInDown animate__repeat-1 animate__delay-1s animate__faster">
   <text font-size="29.2926" font-family="'HelveticaWorld-Bold'" fill="#ECF0F1" transform="matrix(1.0025,0,0,1,152.0085,45.9443) " id="svg_25_1_">DO YOU WANT TO INCREASE SALES</text>
  </g>
  <style type="text/css">:root {
        --animate-duration: 1s;
        --animate-delay: 1s;
        --animate-repeat: 1;
      }
      
       .animate__animated {
        -webkit-animation-duration: 1s;
        animation-duration: 1s;
        -webkit-animation-duration: var(--animate-duration);
        animation-duration: var(--animate-duration);
        -webkit-animation-fill-mode: both;
        animation-fill-mode: both;
      }
    @-webkit-keyframes fadeInLeft {
    from {
        opacity: 0;
        -webkit-transform: translate3d(-100%, 0, 0);
        transform: translate3d(-100%, 0, 0)
    }

    to {
        opacity: 1;
        -webkit-transform: none;
        transform: none
    }
}

@keyframes fadeInLeft {
    from {
        opacity: 0;
        -webkit-transform: translate3d(-100%, 0, 0);
        transform: translate3d(-100%, 0, 0)
    }

    to {
        opacity: 1;
        -webkit-transform: none;
        transform: none
    }
}

.animate__fadeInLeft {
    -webkit-animation-name: fadeInLeft;
    animation-name: fadeInLeft
}
    .animate__animated.animate__repeat-1 {
          -webkit-animation-iteration-count: 1;
          animation-iteration-count: 1;
          -webkit-animation-iteration-count: var(--animate-repeat);
          animation-iteration-count: var(--animate-repeat);
        }
    .animate__animated.animate__delay-1s {
          -webkit-animation-delay: 1s;
          animation-delay: 1s;
          -webkit-animation-delay: var(--animate-delay);
          animation-delay: var(--animate-delay);
        }
    .animate__animated.animate__faster {
          -webkit-animation-duration: calc(1s / 2);
          animation-duration: calc(1s / 2);
          -webkit-animation-duration: calc(var(--animate-duration) / 2);
          animation-duration: calc(var(--animate-duration) / 2);
        }</style>
  <g id="svg_35" class="animate__animated animate__fadeInLeft animate__repeat-1 animate__delay-1s animate__faster">
   <text font-size="30.2605" font-family="'HelveticaWorld-Regular'" fill="#ECF0F1" transform="matrix(1.0025,0,0,1,332.1838,385.9648) " id="svg_29">00088822</text>
  </g>
  <style type="text/css">:root {
        --animate-duration: 1s;
        --animate-delay: 1s;
        --animate-repeat: 1;
      }
      
       .animate__animated {
        -webkit-animation-duration: 1s;
        animation-duration: 1s;
        -webkit-animation-duration: var(--animate-duration);
        animation-duration: var(--animate-duration);
        -webkit-animation-fill-mode: both;
        animation-fill-mode: both;
      }
    @-webkit-keyframes fadeInRight {
    from {
        opacity: 0;
        -webkit-transform: translate3d(100%, 0, 0);
        transform: translate3d(100%, 0, 0)
    }

    to {
        opacity: 1;
        -webkit-transform: none;
        transform: none
    }
}

@keyframes fadeInRight {
    from {
        opacity: 0;
        -webkit-transform: translate3d(100%, 0, 0);
        transform: translate3d(100%, 0, 0)
    }

    to {
        opacity: 1;
        -webkit-transform: none;
        transform: none
    }
}

.animate__fadeInRight {
    -webkit-animation-name: fadeInRight;
    animation-name: fadeInRight
}
    .animate__animated.animate__repeat-1 {
          -webkit-animation-iteration-count: 1;
          animation-iteration-count: 1;
          -webkit-animation-iteration-count: var(--animate-repeat);
          animation-iteration-count: var(--animate-repeat);
        }
    .animate__animated.animate__delay-1s {
          -webkit-animation-delay: 1s;
          animation-delay: 1s;
          -webkit-animation-delay: var(--animate-delay);
          animation-delay: var(--animate-delay);
        }
    .animate__animated.animate__faster {
          -webkit-animation-duration: calc(1s / 2);
          animation-duration: calc(1s / 2);
          -webkit-animation-duration: calc(var(--animate-duration) / 2);
          animation-duration: calc(var(--animate-duration) / 2);
        }</style>
  <g id="svg_36" class="animate__animated animate__fadeInRight animate__repeat-1 animate__delay-1s animate__faster">
   <text id="svg_25" font-size="29.2926" font-family="'HelveticaWorld-Bold'" fill="#ECF0F1" transform="matrix(1.0025,0,0,1,121.6809,423.7344) ">SO WHAT ARE YOU  STILL WAITING FOR?</text>
  </g>
 </g>
</svg>