<svg width="800" height="450" xmlns="http://www.w3.org/2000/svg">
 <g>
  <title>background</title>
  <rect fill="#fff" id="canvas_background" height="502" width="890.88889" y="-1" x="-1"/>
 </g>

 <style type="text/css">.st0{fill:#C17A3C;}
	.st1{fill:#764F27;}
	.st2{fill:#732F2E;}
	.st3{fill:#7D7662;}
	.st4{fill:#615E47;}
	.st5{fill:#66634B;}
	.st6{fill:#6C684F;}
	.st7{fill:#716D53;}
	.st8{fill:#5B5942;}
	.st9{fill:#AA8F61;}
	.st10{fill:#A47E37;}
	.st11{fill:#825B4F;}
	.st12{fill:#6C5431;}
	.st13{fill:#96774D;}
	.st14{fill:#3C434D;}
	.st15{fill:#5A646D;}
	.st16{fill:#A5A6AA;}
	.st17{fill:#5A606F;}
	.st18{fill:#D5D6D7;}
	.st19{fill:#393A3E;}
	.st20{fill:#494A4F;}
	.st21{fill:#B6A5AF;}
	.st22{fill:#BEDDDC;}
	.st23{fill:#471210;}
	.st24{fill:#F0BC83;}
	.st25{fill:#B43831;}
	.st26{fill:#7D7B7A;}
	.st27{fill:none;}
	.st28{fill:#68111E;}
	.st29{fill:#341215;}
	.st30{fill:#DBA77F;}
	.st31{fill:#EEC09B;}
	.st32{fill:#EEC9AB;}
	.st33{fill:#861728;}
	.st34{fill:#321215;}
	.st35{fill:#FFFFFF;}
	.st36{fill:#352311;}
	.st37{fill:#291E10;}
	.st38{fill:#17120E;}
	.st39{fill:#3D3D3D;}
	.st40{fill:#9DD87D;}
	.st41{fill:#7FC5D6;}
	.st42{fill:#261D15;}
	.st43{fill:#483729;}
	.st44{fill:#191C19;}
	.st45{fill:#292E2A;}
	.st46{fill:#BEA176;}
	.st47{fill:#E3CCAA;}
	.st48{fill:#43311B;}
	.st49{fill:#2B2B2B;}
	.st50{opacity:0.33;fill:#2B2B2B;enable-background:new    ;}
	.st51{fill:#DDDDD8;}
	.st52{fill:#C15A3F;}
	.st53{fill:#2E9F8E;}
	.st54{fill:#F6921E;}
	.st55{fill:#A7B590;}
	.st56{fill:#DEA926;}
	.st57{fill:#F8B11D;}
	.st58{fill:#FDCD2F;}
	.st59{fill:#E14C4B;}
    #girl{
    animation : move 6s ease-in-out infinite ;
    
    }
   @keyframes move{
    0%{
    transform : translateX(0px)
    }
    40%{
    transform : translateX(500px)
    }
    100%{
    transform : translateX(500px)
    }
    }
    #BRAZO_IZQ ,#phone{
    animation : swip1 6s ease-in-out infinite;
    
    }
    @keyframes swip1{
    0%,50%{
   visibility : visible
    }
    55%,100%{
    visibility : hidden
    }
   
    }
    #BRAZO_IZQ-2 ,#phone-2{
    animation : swip2 6s ease-in-out infinite;
    
    }
    @keyframes swip2{
    0%,50%{
   visibility : hidden
    }
    55%,100%{
    visibility : visible
    }
   
    }
    #BRAZO_DERE{
    animation : swip 6s ease-in-out infinite;
    }
    @keyframes swip{
    0%,55%{
    visibility : visible
    }
    56%,100%{
    visibility : hidden
    }
    }
    #BRAZO_DERE-3{
    animation : swip4 6s ease-in-out infinite;
    }
    @keyframes swip4{
    0%,65%{
    visibility : hidden
    }
    66%,75%{
    visibility : visible
    }
    76%,85%{
    visibility : hidden
    }
    86%,95%{
    visibility : visible
    }
    96%,100%{
    visibility : hidden
    }
    }
    
    #BRAZO_DERE-2{
    animation : swip3 6s ease-in-out infinite;
    }
    @keyframes swip3{
    0%,55%{
    visibility : hidden
    }
    56%,65%{
    visibility : visible
    }
    66%,75%{
    visibility : hidden
    }
    76%,85%{
    visibility : visible
    }
    86%,95%{
    visibility : hidden
    }
    100%{
    visibility : visible
    }
   
    }
    /*#phone{
    animation : fade 6s ease-in-out infinite 
    }
    @keyframes fade{
    0%,50%{
    transform : translate(0)
    }
    55%{
    transform : translate(57px,-60px)
    }
    100%{
    transform : translate(57px,-60px)
    }
    }*/
    #CARA ,#CABELLO{
    animation : shake 6s ease-in-out infinite ;
    
    
    }
    @keyframes shake{
    0%,50%{
    visibility : visible
    }
    51%,100%{
    visibility : hidden
    }
    
    }
    #CARA-down{
    animation : shake1 6s ease-in-out infinite ;
    
    
    }
    @keyframes shake1{
    0%,50%{
    visibility : hidden
    }
    51%,100%{
    visibility : visible
    }
    
    }
   
    #OJOS{
    animation : blink 6s ease-in-out infinite
    }
    @keyframes blink{
    0%,40%{
    visibility : visible
    }
    45%,50%{
    visibility : hidden
    }
    55%,65%{
    visibility : visible
    }
    70%,75%{
    visibility : hidden
    }
    80%,100%{
    visibility : visible
    }
    }
    #BOCA{
    animation : smile 6s ease-in-out infinite
    }
    @keyframes smile{
    0%,50%{
    visibility : hidden
    }
    55%{
     visibility : visible
    }
    100%{
    visibility : visible
    }
    }</style>
 <g>
  <title>Layer 1</title>
  <g id="girl">
   <g id="CABELLO">
    <path id="XMLID_626_" class="st28" d="m-154,24.4c0,0 19.9,-20.9 54.3,-0.1s-6.5,83.6 18.2,102.8s29.4,-2.4 29.4,-2.4s-1.6,24.2 -18.6,24.1c0,0 5.5,1.4 9.1,0c0,0 -16,27.4 -52.8,14.8c-36.9,-12.6 -79.5,-118.2 -39.6,-139.2z"/>
    <path id="XMLID_625_" class="st29" d="m-95.9,83.4c0,0 -9.1,61.4 31.3,57.9c0,0 -6.8,7.3 -16.1,4.4c0,0 2.2,3.9 10.3,6c0,0 -18.2,16.3 -38.6,3.4c-20.4,-12.8 -46.6,-34.4 -48.1,-72.3l61.2,0.6z"/>
   </g>
   <g id="CARA">
    <path id="XMLID_352_" class="st30" d="m-97.1,88.3l0,0c-3.9,0.3 -7.3,-2.7 -7.5,-6.5l-0.6,-8.3c-0.3,-3.9 2.7,-7.3 6.5,-7.5l0,0c3.9,-0.3 7.3,2.7 7.5,6.5l0.6,8.3c0.4,3.8 -2.6,7.2 -6.5,7.5z"/>
    <path id="XMLID_351_" class="st30" d="m-125,123.2l-1.9,0c-3.7,0 -6.7,-3 -6.7,-6.7l0,-6.8c0,-3.7 3,-6.7 6.7,-6.7l1.9,0c3.7,0 6.7,3 6.7,6.7l0,6.8c0,3.7 -3,6.7 -6.7,6.7z"/>
    <path id="XMLID_350_" class="st31" d="m-154.9,96.9l-5.7,-39.4c-2,-14.1 7.8,-27.3 21.9,-29.3l11.8,-1.7c14.1,-2 27.3,7.8 29.3,21.9l5.1,35.2c1.2,8 -3.4,32.2 -21.4,35.6c-18.7,3.6 -40,-15.1 -41,-22.3z"/>
    <path id="XMLID_349_" class="st30" d="m-114.3,88c0,0 6.6,4.8 -1.1,7c0,0 11,-1.6 1.1,-7z"/>
    <path id="XMLID_348_" class="st32" d="m-131.5,93.2c0.2,1.7 -1.9,3.4 -4.7,3.8s-5.3,-0.6 -5.6,-2.4c-0.2,-1.7 1.9,-3.4 4.7,-3.8c2.8,-0.3 5.3,0.7 5.6,2.4z"/>
    <path id="XMLID_347_" class="st32" d="m-93.6,87.9c0.2,1.7 -1.4,3.4 -3.7,3.7c-2.3,0.3 -4.3,-0.8 -4.6,-2.5c-0.2,-1.7 1.4,-3.4 3.7,-3.7c2.3,-0.3 4.4,0.8 4.6,2.5z"/>
    <g id="XMLID_344_">
     <path id="XMLID_346_" class="st31" d="m-153.8,97.7l0,0c-3.8,0.7 -7.5,-1.9 -8.1,-5.8l-1.4,-8.2c-0.7,-3.8 1.9,-7.5 5.8,-8.1l0,0c3.8,-0.7 7.5,1.9 8.1,5.8l1.4,8.2c0.6,3.8 -2,7.4 -5.8,8.1z"/>
     <path id="XMLID_345_" class="st30" d="m-151.2,92.1c0,0 0.4,-12.1 -5.6,-12.9c0,0 3.2,3.4 2.4,6.5c0,0 -2.1,0.5 -1.5,4.2c0.5,3.7 3.9,3.8 4.7,2.2z"/>
    </g>
    <path id="XMLID_343_" class="st28" d="m-108.9,68.4c0,0 5,-6.3 12.7,-1l0.3,-3.1c0,0 -7.5,-5.7 -13.9,2l0.9,2.1z"/>
    <g id="svg_336">
     <path id="XMLID_342_" class="st28" d="m-77.6,78.7l-4.6,-8.1c5.7,16.6 -3,28 -3.5,28.6c0.2,-0.9 7.3,-29 -19.2,-31.9c-26.9,-2.9 -35.1,-22.7 -35.1,-22.7s-10.2,12.2 -5.9,35.4c4.3,22.7 -6.3,28 -6.9,28.3l0.4,-0.4c0.1,0 0.1,-0.1 0.2,-0.2c0.1,-0.1 0.2,-0.3 0.4,-0.4c3.5,-4.9 5.5,-19.9 0.7,-27.8c-5.2,-8.5 -11.1,-0.8 -11.1,-0.8c-12.8,-36.8 11.1,-50.1 11.1,-50.1c7.8,-15.6 38.4,-15.5 58.8,2.6c20.3,18.2 14.7,47.5 14.7,47.5z"/>
     <path id="XMLID_248_" class="st33" d="m-84.5,53.6c0,0 -7.1,-21.3 -22.4,-27.8c-15.3,-6.4 -23.5,-7.4 -26.3,-0.9s13.1,9.2 20,10.8c6.9,1.5 22.8,6.1 28.7,17.9z"/>
     <path id="XMLID_247_" class="st34" d="m-85.7,99.2c0.2,-0.9 7.3,-29 -19.2,-31.9c-26.9,-2.9 -35.1,-22.7 -35.1,-22.7s-10.2,12.2 -5.9,35.4c4.3,22.7 -6.3,28 -6.9,28.3l0.4,-0.4c0,0 0.1,-0.1 0.2,-0.2c0.1,-0.1 0.2,-0.3 0.4,-0.4c2.5,-3 8.9,-13 1.5,-30.2c-9.1,-20.9 11.9,-40.1 11.9,-40.1s10.9,20 33.3,25.2c22.3,5.3 26.2,27.2 19.4,37z"/>
    </g>
    <g id="closed-mouth">
     <path id="XMLID_5_" class="st35" d="m-108.4,103.3c0,0 -9.3,1.9 -15.1,0.6c0,0 6.9,3.5 15.1,-0.6z"/>
    </g>
    <g id="BOCA">
     <path id="XMLID_7_" class="st35" d="m-108.4,102c0,0 -9.3,4.5 -15.1,1.4c0,0 6.9,8.1 15.1,-1.4z"/>
    </g>
    <g id="CEJAS">
     <path id="XMLID_569_" class="st28" d="m-124.9,71.7c0,0 -8.6,-4.3 -16.9,3.3l-1.4,-2.9c0,0 7.8,-7.9 18.7,-2.7l-0.4,2.3z"/>
    </g>
    <g id="OJOS">
     <path id="XMLID_4_" class="st36" d="m-130.7,85l0,0c-1.1,0 -2.1,-0.9 -2.1,-2l0,-2.7c0,-1.1 0.9,-2.1 2,-2.1l0,0c1.1,0 2.1,0.9 2.1,2l0,2.7c0.1,1.2 -0.9,2.1 -2,2.1z"/>
     <path id="XMLID_3_" class="st36" d="m-102.5,84.7l0,0c-1.1,0 -2.1,-0.9 -2.1,-2l0,-2.7c0,-1.1 0.9,-2.1 2,-2.1l0,0c1.1,0 2.1,0.9 2.1,2l0,2.7c0.1,1.1 -0.9,2 -2,2.1z"/>
    </g>
    <g id="closed-eyes">
     <path id="XMLID_2_" class="st37" d="m-130.7,82.4l0,0c-1.1,0 -2.1,-0.2 -2.1,-0.6l0,-0.8c0,-0.3 0.9,-0.6 2,-0.6l0,0c1.1,0 2.1,0.2 2.1,0.6l0,0.8c0.1,0.4 -0.9,0.6 -2,0.6z"/>
     <path id="XMLID_1_" class="st37" d="m-102.5,82.3l0,0c-1.1,0 -2.1,-0.2 -2.1,-0.6l0,-0.8c0,-0.3 0.9,-0.6 2,-0.6l0,0c1.1,0 2.1,0.2 2.1,0.6l0,0.8c0.1,0.4 -0.9,0.6 -2,0.6z"/>
    </g>
   </g>
   <g id="CARA-down">
    <g id="CABELLO_1_">
     <path id="XMLID_137_" class="st28" d="m-128.1,21.2c0,0 24.9,-14.7 52.3,14.8s-29.1,78.6 -10.6,103.9s28.9,5.7 28.9,5.7s-8.2,22.8 -24.5,18.1c0,0 4.9,2.9 8.8,2.5c0,0 -22.9,22 -54.8,-0.2c-32.2,-22.3 -44.3,-135.5 -0.1,-144.8z"/>
     <path id="XMLID_136_" class="st29" d="m-88.4,93.8c0,0 -25.6,56.6 14.3,64.3c0,0 -8.5,5.2 -16.7,-0.2c0,0 1,4.4 8.3,8.6c0,0 -22,10.7 -38.1,-7.3c-16.1,-17.9 -35.4,-45.8 -26.5,-82.7l58.7,17.3z"/>
    </g>
    <path id="XMLID_104_" class="st30" d="m-90.9,98.2l0,0c-3.8,-0.8 -6.3,-4.6 -5.4,-8.3l1.7,-8.1c0.8,-3.8 4.6,-6.3 8.3,-5.4l0,0c3.8,0.8 6.3,4.6 5.4,8.3l-1.7,8.1c-0.6,3.8 -4.5,6.2 -8.3,5.4z"/>
    <path id="XMLID_103_" class="st30" d="m-127.3,124.2l-1.8,-0.5c-3.6,-1 -5.6,-4.7 -4.6,-8.3l1.9,-6.5c1,-3.6 4.7,-5.6 8.3,-4.6l1.8,0.5c3.6,1 5.6,4.7 4.6,8.3l-1.9,6.5c-1,3.5 -4.7,5.6 -8.3,4.6z"/>
    <path id="XMLID_85_" class="st31" d="m-148.8,90.7l5.3,-39.5c1.9,-14.1 15,-24.1 29.1,-22.2l11.8,1.6c14.1,1.9 24.1,15 22.2,29.1l-4.8,35.3c-1,8 -12.1,30 -30.3,28.4c-19,-1.7 -34.4,-25.5 -33.3,-32.7z"/>
    <path id="XMLID_83_" class="st30" d="m-107.4,93.2c0,0 5,6.4 -3,6.4c0.1,0.1 11.1,1.5 3,-6.4z"/>
    <path id="XMLID_31_" class="st32" d="m-125.3,93.5c-0.3,1.7 -2.8,2.8 -5.6,2.4s-4.9,-2 -4.7,-3.8c0.3,-1.7 2.8,-2.8 5.6,-2.4c2.7,0.5 4.9,2.1 4.7,3.8z"/>
    <path id="XMLID_30_" class="st32" d="m-87.4,98.8c-0.3,1.7 -2.3,2.9 -4.6,2.5c-2.3,-0.3 -3.9,-1.9 -3.7,-3.7c0.3,-1.7 2.3,-2.9 4.6,-2.5c2.2,0.4 4,2 3.7,3.7z"/>
    <g id="XMLID_27_">
     <path id="XMLID_29_" class="st31" d="m-148,91.8l0,0c-3.8,-0.4 -6.7,-3.9 -6.2,-7.8l0.9,-8.3c0.4,-3.8 3.9,-6.7 7.8,-6.2l0,0c3.8,0.4 6.7,3.9 6.2,7.8l-0.9,8.3c-0.5,3.8 -4,6.5 -7.8,6.2z"/>
     <path id="XMLID_28_" class="st30" d="m-144,87.1c0,0 3.7,-11.5 -1.9,-13.9c0,0 2.1,4.1 0.5,6.9c0,0 -2.2,-0.1 -2.6,3.6c-0.4,3.7 2.8,4.7 4,3.4z"/>
    </g>
    <path id="XMLID_26_" class="st28" d="m-96.8,75.9c0,0 6.5,-4.7 12.5,2.5l1.1,-2.9c0,0 -5.7,-7.5 -13.9,-1.9l0.3,2.3z"/>
    <g id="svg_337">
     <path id="XMLID_25_" class="st28" d="m-69.5,94.3l-2.2,-9c0.9,17.5 -10.5,26.1 -11.2,26.6c0.4,-0.8 15,-25.9 -9.7,-35.9c-25.1,-10.1 -27.5,-31.4 -27.5,-31.4s-13.1,8.9 -15.4,32.4c-2.1,23 -13.7,25.2 -14.4,25.3l0.5,-0.3c0.1,0 0.1,-0.1 0.2,-0.1c0.1,-0.1 0.3,-0.2 0.5,-0.3c4.7,-3.8 10.7,-17.6 8.3,-26.5c-2.7,-9.6 -10.5,-3.8 -10.5,-3.8c-2.2,-38.9 24.4,-45.2 24.4,-45.2c11.8,-12.9 41.2,-4.4 55.8,18.6c14.6,23 1.2,49.6 1.2,49.6z"/>
     <path id="XMLID_24_" class="st33" d="m-69.3,68.3c0,0 -1,-22.4 -13.9,-32.9c-13,-10.3 -20.6,-13.5 -25.1,-8.1s10.1,12.5 16.3,15.9c6.2,3.4 20.3,12.1 22.7,25.1z"/>
     <path id="XMLID_23_" class="st34" d="m-82.9,111.8c0.4,-0.8 15,-25.9 -9.7,-35.9c-25.1,-10.1 -27.5,-31.4 -27.5,-31.4s-13.1,8.9 -15.4,32.4c-2.1,23 -13.7,25.2 -14.4,25.3l0.5,-0.3c0,0 0.1,-0.1 0.2,-0.1c0.1,-0.1 0.3,-0.2 0.5,-0.3c3.2,-2.2 12.1,-10.1 9.7,-28.6c-3,-22.6 22.4,-35.3 22.4,-35.3s5,22.2 25.1,33.3c20.1,11.2 17.8,33.4 8.6,40.9z"/>
    </g>
    <g id="closed-mouth_1_">
     <path id="XMLID_22_" class="st35" d="m-105.9,109.6c0,0 -9.5,-0.7 -14.7,-3.6c0,0 5.7,5.3 14.7,3.6z"/>
    </g>
    <g id="BOCA_1_">
     <path id="XMLID_21_" class="st35" d="m-105.5,108.3c0,0 -10.2,1.8 -14.9,-2.8c0,0 4.4,9.7 14.9,2.8z"/>
    </g>
    <g id="CEJAS_1_">
     <path id="XMLID_20_" class="st28" d="m-113.1,74.7c0,0 -7.1,-6.5 -17.2,-1.5l-0.6,-3.2c0,0 9.7,-5.5 18.7,2.5l-0.9,2.2z"/>
    </g>
    <g id="OJOS_1_">
     <path id="XMLID_19_" class="st36" d="m-122.3,85.9l0,0c-1.1,-0.3 -1.8,-1.4 -1.5,-2.5l0.7,-2.6c0.3,-1.1 1.4,-1.8 2.5,-1.5l0,0c1.1,0.3 1.8,1.4 1.5,2.5l-0.7,2.6c-0.2,1.2 -1.5,1.8 -2.5,1.5z"/>
     <path id="XMLID_18_" class="st36" d="m-95.1,93.3l0,0c-1.1,-0.3 -1.8,-1.4 -1.5,-2.5l0.7,-2.6c0.3,-1.1 1.4,-1.8 2.5,-1.5l0,0c1.1,0.3 1.8,1.4 1.5,2.5l-0.7,2.6c-0.2,1.1 -1.4,1.7 -2.5,1.5z"/>
    </g>
    <g id="closed-eyes_1_">
     <path id="XMLID_17_" class="st37" d="m-121.6,83.4l0,0c-1.1,-0.3 -2,-0.8 -1.9,-1.2l0.2,-0.8c0.1,-0.3 1,-0.3 2.1,0l0,0c1.1,0.3 2,0.8 1.9,1.2l-0.2,0.8c0,0.3 -1,0.3 -2.1,0z"/>
     <path id="XMLID_16_" class="st37" d="m-94.4,91l0,0c-1.1,-0.3 -2,-0.8 -1.9,-1.2l0.2,-0.8c0.1,-0.3 1,-0.3 2.1,0l0,0c1.1,0.3 2,0.8 1.9,1.2l-0.2,0.8c-0.1,0.4 -1.1,0.3 -2.1,0z"/>
    </g>
   </g>
   <g id="BRAZO_IZQ">
    <g id="svg_338">
     <path id="XMLID_609_" class="st31" d="m-107.8,135c0,0 7.9,7.4 3.8,18.5s-19,39.9 -19,39.9l26.4,14.4l-3.9,6.4c0,0 -24.9,-7.9 -32.8,-14.6c-0.1,0 14.9,-58.9 25.5,-64.6z"/>
     <g id="hand_1_">
      <path id="XMLID_608_" class="st30" d="m-100.9,211.8c0,0 2,3.8 5.2,6.2c2.3,1.7 4.8,4.9 4.8,4.9s2,-0.8 -0.5,-4.1s-2.4,-5.5 -2.4,-5.5l-7.1,-1.5z"/>
      <path id="XMLID_607_" class="st30" d="m-87,209.8c0,0 8.3,6.2 13.6,14.8c0,0 -1.9,1.3 -4,-2c-1.9,-3.1 -7.3,-6.2 -7.3,-6.2l-2.3,-6.6z"/>
      <path id="XMLID_606_" class="st30" d="m-87,209.8c0,0 8.1,7.2 9.4,16c0,0 -1.6,1 -2.7,-1.9s-5.6,-8.9 -7.8,-9.1c-0.1,0 -1.5,-4 1.1,-5z"/>
      <path id="XMLID_605_" class="st31" d="m-102.7,205.4c0,0 13.5,0.2 15.9,4.9s5.8,8.1 2.7,15.4c0,0 -2.1,-1.3 -1.4,-5.6c0,0 0.2,-4.1 -5.7,-7c0,0 -5.1,1.7 -9.8,-1.3c0.1,0 -3,-3.9 -1.7,-6.4z"/>
     </g>
     <path id="XMLID_604_" class="st38" d="m-103.9,141.3c0,0 6.6,6.9 -6.2,28.2s-10.8,23 -10.8,23s2.7,0.2 2,1.5c0,0 5,-0.7 5.7,4.2l-4.5,9.8c0,0 -13,-2.5 -15.7,-8.4l6.3,-23.7l23.2,-34.6z"/>
     <polygon id="XMLID_603_" class="st37" points="-113.2,197.8 -105.9,202.2 -110.5,210.7 -117.9,207.8    "/>
    </g>
   </g>
   <g id="BRAZO_IZQ-2">
    <g id="svg_339">
     <path id="XMLID_14_" class="st31" d="m-148.9,159.2c0,0 9.5,-5.1 18.7,2.3c9.2,7.4 31.8,30.7 31.8,30.7l22,-20.5l4.8,5.7c0,0 -15.4,21.1 -24.3,26.5c0.1,0.1 -51,-32.8 -53,-44.7z"/>
     <g id="hand_2_">
      <path id="XMLID_13_" class="st30" d="m-73.9,177.1c0,0 4.2,-0.7 7.5,-3c2.3,-1.6 6.2,-3 6.2,-3s-0.1,-2.2 -4,-0.8c-3.9,1.3 -6,0.5 -6,0.5l-3.7,6.3z"/>
      <path id="XMLID_12_" class="st30" d="m-71.4,163.2c0,0 8.5,-5.9 18.4,-8.2c0,0 0.6,2.2 -3.2,3.2c-3.5,0.8 -8.2,5 -8.2,5l-7,0z"/>
      <path id="XMLID_11_" class="st30" d="m-71.4,163.2c0,0 9.4,-5.4 18.2,-3.8c0,0 0.4,1.8 -2.7,2c-3.1,0.1 -10.2,2.5 -11.1,4.5c0,0.1 -4.3,0.1 -4.4,-2.7z"/>
      <path id="XMLID_10_" class="st31" d="m-80.6,176.7c0,0 4.5,-12.7 9.7,-13.5s9.5,-2.9 15.5,2.3c0,0 -1.9,1.6 -5.8,-0.5c0,0 -3.8,-1.5 -8.4,3.2c0,0 0,5.4 -4.3,8.9c0,0 -4.7,1.7 -6.7,-0.4z"/>
     </g>
     <path id="XMLID_9_" class="st38" d="m-141.7,157.5c0,0 8.6,-4.1 24.8,14.8s18.4,17.5 18.4,17.5s1,-2.5 2.1,-1.4c0,0 0.9,-5 5.8,-4.1l7.9,7.4c0,0 -6.5,11.5 -13,12.2l-20.5,-13.5l-25.5,-32.9z"/>
     <polygon id="XMLID_8_" class="st37" points="-91.1,184.3 -84.6,178.8 -78,185.8 -83.1,191.9    "/>
    </g>
   </g>
   <g id="phone">
    <g id="svg_340">
     <path class="st39" d="m-118.3,243.9l-1.8,-0.7c-3.5,-1.4 -5.2,-5.4 -3.8,-8.9l12.5,-31.1c1.4,-3.5 5.4,-5.2 8.9,-3.8l1.8,0.7c3.5,1.4 5.2,5.4 3.8,8.9l-12.5,31.1c-1.5,3.5 -5.5,5.2 -8.9,3.8z" id="svg_341"/>
     <path class="st38" d="m-121.5,242.7l-1.8,-0.7c-3.5,-1.4 -5.2,-5.4 -3.8,-8.9l12.5,-31.1c1.4,-3.5 5.4,-5.2 8.9,-3.8l1.8,0.7c3.5,1.4 5.2,5.4 3.8,8.9l-12.5,31.1c-1.4,3.5 -5.4,5.2 -8.9,3.8z" id="svg_342"/>
    </g>
    <rect x="-132.6" y="213" transform="matrix(0.3566,-0.9343,0.9343,0.3566,-277.747,35.5238) " class="st35" width="39" height="12.9" id="svg_343"/>
    <path class="st40" d="m-110.4,223.3l-4.2,-1.7c-1,-0.4 -1.4,-1.5 -1,-2.4l0.2,-0.5c0.4,-1 1.5,-1.4 2.4,-1l4.2,1.7c1,0.4 1.4,1.5 1,2.4l-0.2,0.5c-0.3,0.9 -1.4,1.3 -2.4,1z" id="svg_344"/>
    <path class="st41" d="m-109.8,211.6l-4.3,-1.7c-1,-0.4 -1.4,-1.5 -1,-2.4l0.2,-0.5c0.4,-1 1.5,-1.4 2.4,-1l4.3,1.7c1,0.4 1.4,1.5 1,2.4l-0.2,0.5c-0.4,0.9 -1.5,1.4 -2.4,1z" id="svg_345"/>
    <path class="st41" d="m-117.6,231.9l-4.3,-1.7c-1,-0.4 -1.4,-1.5 -1,-2.4l0.2,-0.5c0.4,-1 1.5,-1.4 2.4,-1l4.3,1.7c1,0.4 1.4,1.5 1,2.4l-0.2,0.5c-0.3,0.9 -1.4,1.3 -2.4,1z" id="svg_346"/>
   </g>
   <g id="phone-2">
    <g id="svg_347">
     <path class="st39" d="m-73.3,190.9l-1.8,-0.7c-3.5,-1.4 -5.2,-5.4 -3.8,-8.9l12.5,-31.1c1.4,-3.5 5.4,-5.2 8.9,-3.8l1.8,0.7c3.5,1.4 5.2,5.4 3.8,8.9l-12.5,31.1c-1.5,3.5 -5.5,5.2 -8.9,3.8z" id="svg_348"/>
     <path class="st38" d="m-76.5,189.7l-1.8,-0.7c-3.5,-1.4 -5.2,-5.4 -3.8,-8.9l12.5,-31.1c1.4,-3.5 5.4,-5.2 8.9,-3.8l1.8,0.7c3.5,1.4 5.2,5.4 3.8,8.9l-12.5,31.1c-1.4,3.5 -5.4,5.2 -8.9,3.8z" id="svg_349"/>
    </g>
    <rect x="-87.6" y="160" transform="matrix(0.3566,-0.9343,0.9343,0.3566,-199.2774,43.4646) " class="st35" width="39" height="12.9" id="svg_350"/>
    <path class="st40" d="m-65.4,170.3l-4.2,-1.7c-1,-0.4 -1.4,-1.5 -1,-2.4l0.2,-0.5c0.4,-1 1.5,-1.4 2.4,-1l4.2,1.7c1,0.4 1.4,1.5 1,2.4l-0.2,0.5c-0.3,0.9 -1.4,1.3 -2.4,1z" id="svg_351"/>
    <path class="st41" d="m-64.8,158.6l-4.3,-1.7c-1,-0.4 -1.4,-1.5 -1,-2.4l0.2,-0.5c0.4,-1 1.5,-1.4 2.4,-1l4.3,1.7c1,0.4 1.4,1.5 1,2.4l-0.2,0.5c-0.4,0.9 -1.5,1.4 -2.4,1z" id="svg_352"/>
    <path class="st41" d="m-72.6,178.9l-4.3,-1.7c-1,-0.4 -1.4,-1.5 -1,-2.4l0.2,-0.5c0.4,-1 1.5,-1.4 2.4,-1l4.3,1.7c1,0.4 1.4,1.5 1,2.4l-0.2,0.5c-0.3,0.9 -1.4,1.3 -2.4,1z" id="svg_353"/>
   </g>
   <g id="CUERPO">
    <g id="svg_354">
     <polygon id="XMLID_147_" class="st31" points="-148.2,219.3 -130.3,234 -146.3,290.3 -163.5,354.9 -172,355.8 -160.2,286.7         "/>
     <path id="XMLID_145_" class="st31" d="m-101.8,220.6c0,0 -3.9,37.4 -9.8,69.4l-6.8,65.4l-6.6,0.3c0,0 -5.8,-49.3 2.2,-65.7l-0.1,-56.7l21.1,-12.7z"/>
     <path id="XMLID_90_" class="st31" d="m-189.8,375l16.7,0c3.2,-8.2 12,-14.8 12,-14.8l-2.5,-5.4l-0.9,-2.1c-2.5,-3.3 -6.2,0 -6.2,0c-1.3,4.9 -7.7,11.8 -12.8,16.6c-3.5,3.3 -6.3,5.7 -6.3,5.7z"/>
     <path id="XMLID_87_" class="st42" d="m-161.1,360.2c0,0 -3.3,7.7 -3.3,14.7l-1.6,0c0,0 0.4,-9.4 -1.1,-9.2c0,0.1 2.6,-3.6 6,-5.5z"/>
     <path id="XMLID_50_" class="st43" d="m-189.8,375l16.7,0c3.2,-8.2 12,-14.8 12,-14.8l-2.5,-5.4l-12.7,14.5l-7.2,0c-3.5,3.3 -6.3,5.7 -6.3,5.7z"/>
     <path id="XMLID_49_" class="st31" d="m-99.7,375l-16.7,0c-3.2,-8.2 -12,-14.8 -12,-14.8l2.5,-5.4l0.9,-2.1c2.5,-3.3 6.2,0 6.2,0c1.3,4.9 7.7,11.8 12.8,16.6c3.5,3.3 6.3,5.7 6.3,5.7z"/>
     <path id="XMLID_48_" class="st42" d="m-128.4,360.2c0,0 3.3,7.7 3.3,14.7l1.6,0c0,0 -0.4,-9.4 1.1,-9.2c0,0.1 -2.6,-3.6 -6,-5.5z"/>
     <path id="XMLID_47_" class="st43" d="m-99.7,375l-16.7,0c-3.2,-8.2 -12,-14.8 -12,-14.8l2.5,-5.4l12.7,14.5l7.2,0c3.5,3.3 6.3,5.7 6.3,5.7z"/>
     <path id="XMLID_46_" class="st44" d="m-145.6,201.5c0,0 -9.7,59.3 -26.4,149.1l10.9,0.7l35.2,-117.2l2.3,53.5c0,0 -7.1,13.5 -2.3,63.2l9.4,0.5l14.6,-130.6c0,0 2.7,-12.5 -2.8,-19.2c0,0 -25.4,5.3 -40.9,0z"/>
     <path id="XMLID_45_" class="st45" d="m-168.6,345.9l21.7,-118.4c0.1,-0.7 0.8,-1.3 1.5,-1.3l0.7,0c1,0 1.7,0.9 1.5,1.9l-22.3,118.4c-0.1,0.7 -0.8,1.3 -1.5,1.3l0,0c-1.1,-0.1 -1.8,-1 -1.6,-1.9z"/>
     <path id="XMLID_44_" class="st45" d="m-104.5,226.1l-6.6,60l-6.6,61.6l3.5,-60.8c0.2,0 4.3,-57 9.7,-60.8z"/>
    </g>
    <g id="svg_355">
     <g id="svg_356">
      <polygon id="XMLID_43_" class="st46" points="-139.4,124.7 -119.6,124.7 -120.1,130 -138.5,129.3     "/>
      <path id="XMLID_42_" class="st31" d="m-122.2,131.3l-12.6,-1c-0.4,0 -0.7,-0.4 -0.6,-0.7l1.9,-24.1c0,-0.4 0.4,-0.6 0.7,-0.6l12.6,1c0.4,0 0.7,0.4 0.6,0.7l-1.9,24.1c0,0.4 -0.4,0.6 -0.7,0.6z"/>
      <path id="XMLID_41_" class="st31" d="m-136.1,128.6l-3.4,0.8c0,0 2.8,22.4 17.6,22.4c14.5,0 8.9,-13.7 1.8,-22.7l-1.9,-0.3l-14.1,-0.2z"/>
      <path id="XMLID_40_" class="st46" d="m-127.6,133.9l3.1,10l1.4,-10.3l5.7,-3.9c0,0 5.9,0.2 9.5,4.1c0,0 8.3,18.6 5,28.5s-6.6,23.4 -0.8,38.6c5.8,15.2 7.5,20.7 7.5,20.7s-8.7,3.1 -22.2,4.6l-3.9,-9.9l-4.3,9.9c0,0 -16.4,-0.1 -25.7,-5.5c0,0 10.3,-23.2 8.2,-37.7s-13.8,-35.3 -7.4,-53.3c0,0 10,0.3 14,-1l9.9,5.2z"/>
      <polygon id="XMLID_39_" class="st47" points="-139.4,124.7 -127.6,133.9 -132.3,140.2 -140.9,128.6     "/>
      <polygon id="XMLID_38_" class="st47" points="-119.6,124.7 -123.1,133.6 -119.6,139.5 -117.1,128.6     "/>
      <path id="XMLID_37_" class="st47" d="m-124,147.1c0,0 0.6,0.8 1.4,2.5c0.7,1.6 1.7,4 2.1,7.1c0.3,1.5 0.4,3.2 0.4,4.9c0,1.8 -0.1,3.6 -0.5,5.5c-0.3,1.9 -0.8,3.8 -1,5.8c-0.3,2 -0.4,4 -0.6,6c-0.3,4 -0.4,8.1 -0.4,11.9c0,3.8 0,7.3 0.1,10.4c0.1,3 0.1,5.6 0.2,7.4c0.1,1.8 0.1,2.8 0.1,2.8s-0.4,-4 -0.7,-10.1c-0.1,-3 -0.3,-6.6 -0.3,-10.4c0,-3.8 0,-7.9 0.3,-11.9c0.1,-2 0.3,-4.1 0.6,-6.1c0.2,-2 0.7,-3.9 1,-5.8c0.3,-1.9 0.5,-3.7 0.6,-5.4c0,-1.7 0,-3.4 -0.3,-4.9c-0.4,-3 -1.1,-5.4 -1.8,-7.1c-0.6,-1.7 -1.2,-2.6 -1.2,-2.6z"/>
     </g>
     <g id="svg_357">
      <path id="XMLID_36_" class="st48" d="m-147.5,192.7l0,4.9c0,0 9.2,4.5 19.9,1.5l-0.1,-6.4c0,0 -14.2,1.9 -19.8,0z"/>
      <path id="XMLID_35_" class="st48" d="m-113.2,191.7l-0.5,5.7c0,0 5.5,0.1 9.3,-3.3l-0.1,-6.4l-8.7,4z"/>
      <path id="XMLID_34_" class="st37" d="m-117.8,128.2c0,0 7.3,35.4 4.5,65c0,0 6.6,0.2 9.7,-4.1c0,0 -4,-14.6 0,-24.2c4,-9.6 -0.6,-26.2 -4.9,-32.7c0,0.1 -2.8,-4.2 -9.3,-4z"/>
      <path id="XMLID_33_" class="st48" d="m-140.9,127.2l0.8,-3.1c0,0 15.1,9 12.3,52.1c0.1,0 -1.7,-36 -13.1,-49z"/>
      <path id="XMLID_32_" class="st48" d="m-117.8,128.2c0,0 5.3,32.6 5.1,46.1c0,0 1.6,-19.2 -2.5,-45.9c0,0 -0.7,-2.9 -3,-3.1l-0.5,0l1.2,2l-0.3,0.9z"/>
      <path class="st37" d="m-140.9,127.2c-9,-0.1 -14.1,1.3 -16.3,2.1l-2.3,0.9l0,3.1l5.3,15.4l0.3,1.9l0.2,-0.2c6.4,15.9 4.4,42.5 4.4,42.5c10,4.6 21.6,1.8 21.6,1.8c2,-56.5 -13.2,-67.5 -13.2,-67.5z" id="svg_358"/>
     </g>
    </g>
   </g>
   <g id="BRAZO_DERE">
    <g id="svg_359">
     <path class="st31" d="m-139.6,207l2.9,-7.9l-13.1,-8.2l-5.8,6.7c8.5,5 16,9.4 16,9.4z" id="svg_360"/>
     <path class="st37" d="m-162,193.6c2.1,1.3 4.3,2.6 6.5,3.9l5.8,-6.7l-7.6,-4.8l-4.7,7.6z" id="svg_361"/>
     <path class="st37" d="m-168.1,179.3l10.8,6.8l0.1,-0.2c-1.1,-5.6 -6.1,-6.9 -6.1,-6.9c0.4,-2.2 -2.7,-1.9 -2.7,-1.9l18.1,-28.8l-0.5,-1.9l-19.7,32.9z" id="svg_362"/>
     <path class="st37" d="m-157.6,133c-0.4,0.7 -0.8,1.5 -1.2,2.4c-0.2,0.5 -0.5,1 -0.7,1.5c-1.8,3.6 -3.9,8 -6,12.6c-7,15 -14.3,32.1 -14.3,32.1c6,8.9 17.5,12.8 17.5,12.8l0.4,-0.6c-8.6,-5.2 -16.4,-10.3 -16.8,-11.4c-1,-2.6 24.6,-52.5 24.6,-52.5l2.1,3.2l-1.5,-5.4c-0.9,0.5 -1.4,0.8 -1.4,0.8c-0.8,0.9 -1.7,2.5 -2.7,4.5z" id="svg_363"/>
     <path class="st37" d="m-178.8,182.2c0.4,1.1 8.3,6.2 16.8,11.4l4.7,-7.6l-10.8,-6.8l19.8,-32.9l-3.8,-13.4l-2.1,-3.2c0,0 -25.6,49.9 -24.6,52.5z" id="svg_364"/>
     <path id="XMLID_572_" class="st31" d="m-123.7,202.8c0,0 4.6,5.5 5,10.5c0,0 -2.9,0.9 -4.2,-1.7c0,0 -1.5,2.1 -3.9,-1.2c-2.3,-3.3 -13,-1.6 -12.5,-2.8l4.7,-4.7l10.9,-0.1z"/>
     <g id="svg_365">
      <path class="st31" d="m-122.6,200.6c-3.9,-1.6 -13.4,-2 -14.9,-2c-0.1,0 -0.3,0 -0.4,0.1l-6.9,4.3c-0.4,0.2 -0.4,0.8 -0.1,1.1c0.3,0.2 0.6,0.5 1,0.8l0,0l4.5,3c0.2,0.1 0.4,0.1 0.6,0.1l2.5,-1c0.1,0 0.1,-0.1 0.2,-0.1c0.3,-0.3 1.6,-1.1 1.9,-1.4c0.1,-0.1 0.1,-0.1 0.2,-0.2c1.1,-0.5 8.2,-3.4 11.5,1.5c2.5,3.7 4.6,4 5.7,3.9c0.4,0 0.7,-0.5 0.5,-0.9c-0.5,-2 -2.8,-7.7 -6.3,-9.2z" id="svg_366"/>
     </g>
    </g>
   </g>
   <g id="BRAZO_DERE-2">
    <g id="svg_367">
     <path class="st31" d="m-89.3,167.8l-4.3,-7.2l-14.6,5.1l1.6,8.7c9.1,-3.5 17.3,-6.6 17.3,-6.6z" id="svg_368"/>
     <path class="st37" d="m-113.8,176.9c2.3,-0.8 4.7,-1.7 7.1,-2.6l-1.6,-8.7l-8.5,2.9l3,8.4z" id="svg_369"/>
     <path class="st37" d="m-128.8,172.7l12.1,-4.2l-0.1,-0.2c-5.1,-2.6 -9.2,0.4 -9.2,0.4c-1.5,-1.7 -3.2,0.9 -3.2,0.9l-11.1,-32.1l-1.8,-0.8l13.3,36z" id="svg_370"/>
     <path class="st37" d="m-158.3,135.5c0.3,0.8 0.7,1.6 1.1,2.4c0.3,0.5 0.5,1 0.7,1.5c1.7,3.7 3.8,8.1 6.1,12.6c7.3,14.9 16.1,31.2 16.1,31.2c10.7,0.9 20.9,-5.6 20.9,-5.6l-0.2,-0.7c-9.4,3.4 -18.3,6.3 -19.4,6c-2.7,-0.8 -25.5,-52.1 -25.5,-52.1l3.8,0.4l-5.1,-2.2c-0.2,1 -0.3,1.6 -0.3,1.6c0.2,1.2 0.9,2.9 1.8,4.9z" id="svg_371"/>
     <path class="st37" d="m-133.2,182.9c1.1,0.4 10,-2.6 19.4,-6l-3,-8.4l-12.1,4.2l-13.3,-36l-12.8,-5.4l-3.8,-0.4c0,-0.1 22.9,51.1 25.6,52z" id="svg_372"/>
     <path id="XMLID_6_" class="st31" d="m-82.7,152.8c0,0 7.2,-0.1 11.3,2.7c0,0 -1.1,2.8 -4,2.2c0,0 0.7,2.5 -3.4,2.3c-4,-0.3 -9.4,9.1 -10,8l-0.7,-6.6l6.8,-8.6z"/>
     <g id="svg_373">
      <path class="st31" d="m-83.7,150.6c-3.7,2 -9.9,9.2 -10.9,10.4c-0.1,0.1 -0.2,0.2 -0.2,0.4l-1,8.1c-0.1,0.4 0.4,0.8 0.8,0.8c0.3,-0.1 0.8,-0.2 1.2,-0.3l0,0l5.2,-1.6c0.2,-0.1 0.3,-0.2 0.5,-0.4l0.8,-2.6c0.1,-0.1 0,-0.1 0,-0.2c0,-0.4 0.1,-1.9 0.1,-2.4c0,-0.1 0,-0.1 0,-0.3c0.3,-1.2 2.5,-8.5 8.4,-8c4.5,0.4 6,-1.1 6.6,-2c0.3,-0.3 0,-0.9 -0.4,-1c-1.8,-1 -7.7,-2.7 -11.1,-0.9z" id="svg_374"/>
     </g>
    </g>
   </g>
   <g id="BRAZO_DERE-3">
    <g id="svg_375">
     <path class="st31" d="m-98.9,187l-2.6,-8l-15.4,1.7l-0.4,8.9c9.8,-1.4 18.4,-2.6 18.4,-2.6z" id="svg_376"/>
     <path class="st37" d="m-124.8,190.3c2.5,-0.3 5,-0.6 7.5,-1l0.4,-8.9l-8.9,0.9l1,9z" id="svg_377"/>
     <path class="st37" d="m-138.4,182.9l12.7,-1.3l0,-0.2c-4.3,-3.7 -9.1,-1.6 -9.1,-1.6c-1,-2 -3.3,0.2 -3.3,0.2l-3.6,-33.8l-1.6,-1.2l4.9,37.9z" id="svg_378"/>
     <path class="st37" d="m-158.8,140c0.1,0.8 0.3,1.7 0.5,2.6c0.2,0.5 0.2,1.1 0.4,1.6c0.8,3.9 1.9,8.7 3.1,13.6c3.8,16.1 8.6,34.1 8.6,34.1c10.2,3.3 21.7,-0.8 21.7,-0.8l-0.1,-0.7c-10,1.2 -19.3,2 -20.3,1.4c-2.4,-1.4 -13.1,-56.5 -13.1,-56.5l3.6,1.2l-4.5,-3.3c-0.4,0.9 -0.6,1.5 -0.6,1.5c0,1.3 0.3,3.1 0.7,5.3z" id="svg_379"/>
     <path class="st37" d="m-145,191.7c1,0.6 10.4,-0.3 20.3,-1.4l-1,-8.9l-12.7,1.3l-4.8,-38.1l-11.3,-8.2l-3.6,-1.2c-0.1,0.1 10.7,55.1 13.1,56.5z" id="svg_380"/>
     <path id="XMLID_15_" class="st31" d="m-89,173.9c0,0 7,1.5 10.4,5.2c0,0 -1.7,2.5 -4.4,1.3c0,0 0.1,2.6 -3.8,1.5c-3.8,-1.2 -11.2,6.8 -11.6,5.5l0.8,-6.6l8.6,-6.9z"/>
     <g id="svg_381">
      <path class="st31" d="m-89.5,171.5c-4.1,1.2 -11.8,6.7 -12.9,7.6c-0.1,0.1 -0.2,0.2 -0.3,0.3l-2.8,7.6c-0.2,0.4 0.2,0.9 0.6,0.9c0.4,0 0.8,0 1.3,0l0,0l5.4,-0.4c0.2,0 0.4,-0.2 0.5,-0.3l1.3,-2.3c0.1,-0.1 0,-0.1 0.1,-0.2c0.1,-0.4 0.6,-1.9 0.6,-2.3c0,-0.1 0,-0.1 0,-0.3c0.6,-1.1 4.3,-7.7 10,-5.9c4.3,1.4 6.1,0.3 6.9,-0.5c0.3,-0.2 0.2,-0.8 -0.2,-1c-1.5,-1.2 -6.8,-4.2 -10.5,-3.2z" id="svg_382"/>
     </g>
    </g>
   </g>
  </g>
 </g>
</svg>