<svg width="800" height="450" xmlns="http://www.w3.org/2000/svg">
 <g>
  <title>background</title>
  <rect fill="#fff" id="canvas_background" height="602" width="1068.66667" y="-1" x="-1"/>
 </g>

 <style type="text/css">.st0{fill:#C17A3C;}
	.st1{fill:#764F27;}
	.st2{fill:#732F2E;}
	.st3{fill:#7D7662;}
	.st4{fill:#615E47;}
	.st5{fill:#66634B;}
	.st6{fill:#6C684F;}
	.st7{fill:#716D53;}
	.st8{fill:#5B5942;}
	.st9{fill:#AA8F61;}
	.st10{fill:#A47E37;}
	.st11{fill:#825B4F;}
	.st12{fill:#6C5431;}
	.st13{fill:#96774D;}
	.st14{fill:#3C434D;}
	.st15{fill:#5A646D;}
	.st16{fill:#A5A6AA;}
	.st17{fill:#5A606F;}
	.st18{fill:#D5D6D7;}
	.st19{fill:#393A3E;}
	.st20{fill:#494A4F;}
	.st21{fill:#B6A5AF;}
	.st22{fill:#BEDDDC;}
	.st23{fill:#471210;}
	.st24{fill:#F0BC83;}
	.st25{fill:#B43831;}
	.st26{fill:#7D7B7A;}
	.st27{fill:none;}
	.st28{fill:#68111E;}
	.st29{fill:#341215;}
	.st30{fill:#DBA77F;}
	.st31{fill:#EEC09B;}
	.st32{fill:#EEC9AB;}
	.st33{fill:#861728;}
	.st34{fill:#321215;}
	.st35{fill:#FFFFFF;}
	.st36{fill:#352311;}
	.st37{fill:#291E10;}
	.st38{fill:#17120E;}
	.st39{fill:#3D3D3D;}
	.st40{fill:#9DD87D;}
	.st41{fill:#7FC5D6;}
	.st42{fill:#261D15;}
	.st43{fill:#483729;}
	.st44{fill:#191C19;}
	.st45{fill:#292E2A;}
	.st46{fill:#BEA176;}
	.st47{fill:#E3CCAA;}
	.st48{fill:#43311B;}
	.st49{fill:#2B2B2B;}
	.st50{opacity:0.33;fill:#2B2B2B;enable-background:new    ;}
	.st51{fill:#DDDDD8;}
	.st52{fill:#C15A3F;}
	.st53{fill:#2E9F8E;}
	.st54{fill:#F6921E;}
	.st55{fill:#A7B590;}
	.st56{fill:#DEA926;}
	.st57{fill:#F8B11D;}
	.st58{fill:#FDCD2F;}
	.st59{fill:#E14C4B;}
    #girl{
    animation : move 6s ease-in-out infinite ;
    
    }
   @keyframes move{
    0%{
    transform : translateX(0px)
    }
    40%{
    transform : translateX(500px)
    }
    100%{
    transform : translateX(500px)
    }
    }
    #BRAZO_IZQ ,#phone{
    animation : swip1 6s ease-in-out infinite;
    
    }
    @keyframes swip1{
    0%,50%{
   visibility : visible
    }
    55%,100%{
    visibility : hidden
    }
   
    }
    #BRAZO_IZQ-2 ,#phone-2{
    animation : swip2 6s ease-in-out infinite;
    
    }
    @keyframes swip2{
    0%,50%{
   visibility : hidden
    }
    55%,100%{
    visibility : visible
    }
   
    }
    #BRAZO_DERE{
    animation : swip 6s ease-in-out infinite;
    }
    @keyframes swip{
    0%,55%{
    visibility : visible
    }
    56%,100%{
    visibility : hidden
    }
    }
    #BRAZO_DERE-3{
    animation : swip4 6s ease-in-out infinite;
    }
    @keyframes swip4{
    0%,65%{
    visibility : hidden
    }
    66%,75%{
    visibility : visible
    }
    76%,85%{
    visibility : hidden
    }
    86%,95%{
    visibility : visible
    }
    96%,100%{
    visibility : hidden
    }
    }
    
    #BRAZO_DERE-2{
    animation : swip3 6s ease-in-out infinite;
    }
    @keyframes swip3{
    0%,55%{
    visibility : hidden
    }
    56%,65%{
    visibility : visible
    }
    66%,75%{
    visibility : hidden
    }
    76%,85%{
    visibility : visible
    }
    86%,95%{
    visibility : hidden
    }
    100%{
    visibility : visible
    }
   
    }
    /*#phone{
    animation : fade 6s ease-in-out infinite 
    }
    @keyframes fade{
    0%,50%{
    transform : translate(0)
    }
    55%{
    transform : translate(57px,-60px)
    }
    100%{
    transform : translate(57px,-60px)
    }
    }*/
    #CARA ,#CABELLO{
    animation : shake 6s ease-in-out infinite ;
    
    
    }
    @keyframes shake{
    0%,50%{
    visibility : visible
    }
    51%,100%{
    visibility : hidden
    }
    
    }
    #CARA-down{
    animation : shake1 6s ease-in-out infinite ;
    
    
    }
    @keyframes shake1{
    0%,50%{
    visibility : hidden
    }
    51%,100%{
    visibility : visible
    }
    
    }
   
    #OJOS{
    animation : blink 6s ease-in-out infinite
    }
    @keyframes blink{
    0%,40%{
    visibility : visible
    }
    45%,50%{
    visibility : hidden
    }
    55%,65%{
    visibility : visible
    }
    70%,75%{
    visibility : hidden
    }
    80%,100%{
    visibility : visible
    }
    }
    #BOCA{
    animation : smile 6s ease-in-out infinite
    }
    @keyframes smile{
    0%,50%{
    visibility : hidden
    }
    55%{
     visibility : visible
    }
    100%{
    visibility : visible
    }
    }</style>
 <g>
  <title>Layer 1</title>
  <g id="girl">
   <g id="CABELLO">
    <path id="XMLID_626_" class="st28" d="m-152.66667,64.40001c0,0 19.9,-20.9 54.3,-0.1s-6.5,83.6 18.2,102.8s29.4,-2.4 29.4,-2.4s-1.6,24.2 -18.6,24.1c0,0 5.5,1.4 9.1,0c0,0 -16,27.4 -52.8,14.8c-36.9,-12.6 -79.5,-118.2 -39.6,-139.2z"/>
    <path id="XMLID_625_" class="st29" d="m-94.56667,123.40001c0,0 -9.1,61.4 31.3,57.9c0,0 -6.8,7.3 -16.1,4.4c0,0 2.2,3.9 10.3,6c0,0 -18.2,16.3 -38.6,3.4c-20.4,-12.8 -46.6,-34.4 -48.1,-72.3l61.2,0.6z"/>
   </g>
   <g id="CARA">
    <path id="XMLID_352_" class="st30" d="m-95.76667,128.30001l0,0c-3.9,0.3 -7.3,-2.7 -7.5,-6.5l-0.6,-8.3c-0.3,-3.9 2.7,-7.3 6.5,-7.5l0,0c3.9,-0.3 7.3,2.7 7.5,6.5l0.6,8.3c0.4,3.8 -2.6,7.2 -6.5,7.5z"/>
    <path id="XMLID_351_" class="st30" d="m-123.66667,163.20001l-1.9,0c-3.7,0 -6.7,-3 -6.7,-6.7l0,-6.8c0,-3.7 3,-6.7 6.7,-6.7l1.9,0c3.7,0 6.7,3 6.7,6.7l0,6.8c0,3.7 -3,6.7 -6.7,6.7z"/>
    <path id="XMLID_350_" class="st31" d="m-153.56667,136.90001l-5.7,-39.4c-2,-14.1 7.8,-27.3 21.9,-29.3l11.8,-1.7c14.1,-2 27.3,7.8 29.3,21.9l5.1,35.2c1.2,8 -3.4,32.2 -21.4,35.6c-18.7,3.6 -40,-15.1 -41,-22.3z"/>
    <path id="XMLID_349_" class="st30" d="m-112.96667,128.00001c0,0 6.6,4.8 -1.1,7c0,0 11,-1.6 1.1,-7z"/>
    <path id="XMLID_348_" class="st32" d="m-130.16667,133.20001c0.2,1.7 -1.9,3.4 -4.7,3.8s-5.3,-0.6 -5.6,-2.4c-0.2,-1.7 1.9,-3.4 4.7,-3.8c2.8,-0.3 5.3,0.7 5.6,2.4z"/>
    <path id="XMLID_347_" class="st32" d="m-92.26667,127.90001c0.2,1.7 -1.4,3.4 -3.7,3.7c-2.3,0.3 -4.3,-0.8 -4.6,-2.5c-0.2,-1.7 1.4,-3.4 3.7,-3.7c2.3,-0.3 4.4,0.8 4.6,2.5z"/>
    <g id="XMLID_344_">
     <path id="XMLID_346_" class="st31" d="m-152.46667,137.70001l0,0c-3.8,0.7 -7.5,-1.9 -8.1,-5.8l-1.4,-8.2c-0.7,-3.8 1.9,-7.5 5.8,-8.1l0,0c3.8,-0.7 7.5,1.9 8.1,5.8l1.4,8.2c0.6,3.8 -2,7.4 -5.8,8.1z"/>
     <path id="XMLID_345_" class="st30" d="m-149.86667,132.10001c0,0 0.4,-12.1 -5.6,-12.9c0,0 3.2,3.4 2.4,6.5c0,0 -2.1,0.5 -1.5,4.2c0.5,3.7 3.9,3.8 4.7,2.2z"/>
    </g>
    <path id="XMLID_343_" class="st28" d="m-107.56667,108.40001c0,0 5,-6.3 12.7,-1l0.3,-3.1c0,0 -7.5,-5.7 -13.9,2l0.9,2.1z"/>
    <g id="svg_336">
     <path id="XMLID_342_" class="st28" d="m-76.26667,118.70001l-4.6,-8.1c5.7,16.6 -3,28 -3.5,28.6c0.2,-0.9 7.3,-29 -19.2,-31.9c-26.9,-2.9 -35.1,-22.7 -35.1,-22.7s-10.2,12.2 -5.9,35.4c4.3,22.7 -6.3,28 -6.9,28.3l0.4,-0.4c0.1,0 0.1,-0.1 0.2,-0.2c0.1,-0.1 0.2,-0.3 0.4,-0.4c3.5,-4.9 5.5,-19.9 0.7,-27.8c-5.2,-8.5 -11.1,-0.8 -11.1,-0.8c-12.8,-36.8 11.1,-50.1 11.1,-50.1c7.8,-15.6 38.4,-15.5 58.8,2.6c20.3,18.2 14.7,47.5 14.7,47.5z"/>
     <path id="XMLID_248_" class="st33" d="m-83.16667,93.60001c0,0 -7.1,-21.3 -22.4,-27.8c-15.3,-6.4 -23.5,-7.4 -26.3,-0.9s13.1,9.2 20,10.8c6.9,1.5 22.8,6.1 28.7,17.9z"/>
     <path id="XMLID_247_" class="st34" d="m-84.36667,139.20001c0.2,-0.9 7.3,-29 -19.2,-31.9c-26.9,-2.9 -35.1,-22.7 -35.1,-22.7s-10.2,12.2 -5.9,35.4c4.3,22.7 -6.3,28 -6.9,28.3l0.4,-0.4c0,0 0.1,-0.1 0.2,-0.2c0.1,-0.1 0.2,-0.3 0.4,-0.4c2.5,-3 8.9,-13 1.5,-30.2c-9.1,-20.9 11.9,-40.1 11.9,-40.1s10.9,20 33.3,25.2c22.3,5.3 26.2,27.2 19.4,37z"/>
    </g>
    <g id="closed-mouth">
     <path id="XMLID_5_" class="st35" d="m-107.06667,143.30001c0,0 -9.3,1.9 -15.1,0.6c0,0 6.9,3.5 15.1,-0.6z"/>
    </g>
    <g id="BOCA">
     <path id="XMLID_7_" class="st35" d="m-107.06667,142.00001c0,0 -9.3,4.5 -15.1,1.4c0,0 6.9,8.1 15.1,-1.4z"/>
    </g>
    <g id="CEJAS">
     <path id="XMLID_569_" class="st28" d="m-123.56667,111.70001c0,0 -8.6,-4.3 -16.9,3.3l-1.4,-2.9c0,0 7.8,-7.9 18.7,-2.7l-0.4,2.3z"/>
    </g>
    <g id="OJOS">
     <path id="XMLID_4_" class="st36" d="m-129.36667,125.00001l0,0c-1.1,0 -2.1,-0.9 -2.1,-2l0,-2.7c0,-1.1 0.9,-2.1 2,-2.1l0,0c1.1,0 2.1,0.9 2.1,2l0,2.7c0.1,1.2 -0.9,2.1 -2,2.1z"/>
     <path id="XMLID_3_" class="st36" d="m-101.16667,124.70001l0,0c-1.1,0 -2.1,-0.9 -2.1,-2l0,-2.7c0,-1.1 0.9,-2.1 2,-2.1l0,0c1.1,0 2.1,0.9 2.1,2l0,2.7c0.1,1.1 -0.9,2 -2,2.1z"/>
    </g>
    <g id="closed-eyes">
     <path id="XMLID_2_" class="st37" d="m-129.36667,122.40001l0,0c-1.1,0 -2.1,-0.2 -2.1,-0.6l0,-0.8c0,-0.3 0.9,-0.6 2,-0.6l0,0c1.1,0 2.1,0.2 2.1,0.6l0,0.8c0.1,0.4 -0.9,0.6 -2,0.6z"/>
     <path id="XMLID_1_" class="st37" d="m-101.16667,122.30001l0,0c-1.1,0 -2.1,-0.2 -2.1,-0.6l0,-0.8c0,-0.3 0.9,-0.6 2,-0.6l0,0c1.1,0 2.1,0.2 2.1,0.6l0,0.8c0.1,0.4 -0.9,0.6 -2,0.6z"/>
    </g>
   </g>
   <g id="CARA-down">
    <g id="CABELLO_1_">
     <path id="XMLID_137_" class="st28" d="m-126.76667,61.20001c0,0 24.9,-14.7 52.3,14.8s-29.1,78.6 -10.6,103.9s28.9,5.7 28.9,5.7s-8.2,22.8 -24.5,18.1c0,0 4.9,2.9 8.8,2.5c0,0 -22.9,22 -54.8,-0.2c-32.2,-22.3 -44.3,-135.5 -0.1,-144.8z"/>
     <path id="XMLID_136_" class="st29" d="m-87.06667,133.80001c0,0 -25.6,56.6 14.3,64.3c0,0 -8.5,5.2 -16.7,-0.2c0,0 1,4.4 8.3,8.6c0,0 -22,10.7 -38.1,-7.3c-16.1,-17.9 -35.4,-45.8 -26.5,-82.7l58.7,17.3z"/>
    </g>
    <path id="XMLID_104_" class="st30" d="m-89.56667,138.20001l0,0c-3.8,-0.8 -6.3,-4.6 -5.4,-8.3l1.7,-8.1c0.8,-3.8 4.6,-6.3 8.3,-5.4l0,0c3.8,0.8 6.3,4.6 5.4,8.3l-1.7,8.1c-0.6,3.8 -4.5,6.2 -8.3,5.4z"/>
    <path id="XMLID_103_" class="st30" d="m-125.96667,164.20001l-1.8,-0.5c-3.6,-1 -5.6,-4.7 -4.6,-8.3l1.9,-6.5c1,-3.6 4.7,-5.6 8.3,-4.6l1.8,0.5c3.6,1 5.6,4.7 4.6,8.3l-1.9,6.5c-1,3.5 -4.7,5.6 -8.3,4.6z"/>
    <path id="XMLID_85_" class="st31" d="m-147.46667,130.70001l5.3,-39.5c1.9,-14.1 15,-24.1 29.1,-22.2l11.8,1.6c14.1,1.9 24.1,15 22.2,29.1l-4.8,35.3c-1,8 -12.1,30 -30.3,28.4c-19,-1.7 -34.4,-25.5 -33.3,-32.7z"/>
    <path id="XMLID_83_" class="st30" d="m-106.06667,133.20001c0,0 5,6.4 -3,6.4c0.1,0.1 11.1,1.5 3,-6.4z"/>
    <path id="XMLID_31_" class="st32" d="m-123.96667,133.50001c-0.3,1.7 -2.8,2.8 -5.6,2.4s-4.9,-2 -4.7,-3.8c0.3,-1.7 2.8,-2.8 5.6,-2.4c2.7,0.5 4.9,2.1 4.7,3.8z"/>
    <path id="XMLID_30_" class="st32" d="m-86.06667,138.80001c-0.3,1.7 -2.3,2.9 -4.6,2.5c-2.3,-0.3 -3.9,-1.9 -3.7,-3.7c0.3,-1.7 2.3,-2.9 4.6,-2.5c2.2,0.4 4,2 3.7,3.7z"/>
    <g id="XMLID_27_">
     <path id="XMLID_29_" class="st31" d="m-146.66667,131.80001l0,0c-3.8,-0.4 -6.7,-3.9 -6.2,-7.8l0.9,-8.3c0.4,-3.8 3.9,-6.7 7.8,-6.2l0,0c3.8,0.4 6.7,3.9 6.2,7.8l-0.9,8.3c-0.5,3.8 -4,6.5 -7.8,6.2z"/>
     <path id="XMLID_28_" class="st30" d="m-142.66667,127.10001c0,0 3.7,-11.5 -1.9,-13.9c0,0 2.1,4.1 0.5,6.9c0,0 -2.2,-0.1 -2.6,3.6c-0.4,3.7 2.8,4.7 4,3.4z"/>
    </g>
    <path id="XMLID_26_" class="st28" d="m-95.46667,115.90001c0,0 6.5,-4.7 12.5,2.5l1.1,-2.9c0,0 -5.7,-7.5 -13.9,-1.9l0.3,2.3z"/>
    <g id="svg_337">
     <path id="XMLID_25_" class="st28" d="m-68.16667,134.30001l-2.2,-9c0.9,17.5 -10.5,26.1 -11.2,26.6c0.4,-0.8 15,-25.9 -9.7,-35.9c-25.1,-10.1 -27.5,-31.4 -27.5,-31.4s-13.1,8.9 -15.4,32.4c-2.1,23 -13.7,25.2 -14.4,25.3l0.5,-0.3c0.1,0 0.1,-0.1 0.2,-0.1c0.1,-0.1 0.3,-0.2 0.5,-0.3c4.7,-3.8 10.7,-17.6 8.3,-26.5c-2.7,-9.6 -10.5,-3.8 -10.5,-3.8c-2.2,-38.9 24.4,-45.2 24.4,-45.2c11.8,-12.9 41.2,-4.4 55.8,18.6c14.6,23 1.2,49.6 1.2,49.6z"/>
     <path id="XMLID_24_" class="st33" d="m-67.96667,108.30001c0,0 -1,-22.4 -13.9,-32.9c-13,-10.3 -20.6,-13.5 -25.1,-8.1s10.1,12.5 16.3,15.9c6.2,3.4 20.3,12.1 22.7,25.1z"/>
     <path id="XMLID_23_" class="st34" d="m-81.56667,151.80001c0.4,-0.8 15,-25.9 -9.7,-35.9c-25.1,-10.1 -27.5,-31.4 -27.5,-31.4s-13.1,8.9 -15.4,32.4c-2.1,23 -13.7,25.2 -14.4,25.3l0.5,-0.3c0,0 0.1,-0.1 0.2,-0.1c0.1,-0.1 0.3,-0.2 0.5,-0.3c3.2,-2.2 12.1,-10.1 9.7,-28.6c-3,-22.6 22.4,-35.3 22.4,-35.3s5,22.2 25.1,33.3c20.1,11.2 17.8,33.4 8.6,40.9z"/>
    </g>
    <g id="closed-mouth_1_">
     <path id="XMLID_22_" class="st35" d="m-104.56667,149.60001c0,0 -9.5,-0.7 -14.7,-3.6c0,0 5.7,5.3 14.7,3.6z"/>
    </g>
    <g id="BOCA_1_">
     <path id="XMLID_21_" class="st35" d="m-104.16667,148.30001c0,0 -10.2,1.8 -14.9,-2.8c0,0 4.4,9.7 14.9,2.8z"/>
    </g>
    <g id="CEJAS_1_">
     <path id="XMLID_20_" class="st28" d="m-111.76667,114.70001c0,0 -7.1,-6.5 -17.2,-1.5l-0.6,-3.2c0,0 9.7,-5.5 18.7,2.5l-0.9,2.2z"/>
    </g>
    <g id="OJOS_1_">
     <path id="XMLID_19_" class="st36" d="m-120.96667,125.90001l0,0c-1.1,-0.3 -1.8,-1.4 -1.5,-2.5l0.7,-2.6c0.3,-1.1 1.4,-1.8 2.5,-1.5l0,0c1.1,0.3 1.8,1.4 1.5,2.5l-0.7,2.6c-0.2,1.2 -1.5,1.8 -2.5,1.5z"/>
     <path id="XMLID_18_" class="st36" d="m-93.76667,133.30001l0,0c-1.1,-0.3 -1.8,-1.4 -1.5,-2.5l0.7,-2.6c0.3,-1.1 1.4,-1.8 2.5,-1.5l0,0c1.1,0.3 1.8,1.4 1.5,2.5l-0.7,2.6c-0.2,1.1 -1.4,1.7 -2.5,1.5z"/>
    </g>
    <g id="closed-eyes_1_">
     <path id="XMLID_17_" class="st37" d="m-120.26667,123.40001l0,0c-1.1,-0.3 -2,-0.8 -1.9,-1.2l0.2,-0.8c0.1,-0.3 1,-0.3 2.1,0l0,0c1.1,0.3 2,0.8 1.9,1.2l-0.2,0.8c0,0.3 -1,0.3 -2.1,0z"/>
     <path id="XMLID_16_" class="st37" d="m-93.06667,131.00001l0,0c-1.1,-0.3 -2,-0.8 -1.9,-1.2l0.2,-0.8c0.1,-0.3 1,-0.3 2.1,0l0,0c1.1,0.3 2,0.8 1.9,1.2l-0.2,0.8c-0.1,0.4 -1.1,0.3 -2.1,0z"/>
    </g>
   </g>
   <g id="BRAZO_IZQ">
    <g id="svg_338">
     <path id="XMLID_609_" class="st31" d="m-106.46667,175.00001c0,0 7.9,7.4 3.8,18.5s-19,39.9 -19,39.9l26.4,14.4l-3.9,6.4c0,0 -24.9,-7.9 -32.8,-14.6c-0.1,0 14.9,-58.9 25.5,-64.6z"/>
     <g id="hand_1_">
      <path id="XMLID_608_" class="st30" d="m-99.56667,251.80001c0,0 2,3.8 5.2,6.2c2.3,1.7 4.8,4.9 4.8,4.9s2,-0.8 -0.5,-4.1s-2.4,-5.5 -2.4,-5.5l-7.1,-1.5z"/>
      <path id="XMLID_607_" class="st30" d="m-85.66667,249.80001c0,0 8.3,6.2 13.6,14.8c0,0 -1.9,1.3 -4,-2c-1.9,-3.1 -7.3,-6.2 -7.3,-6.2l-2.3,-6.6z"/>
      <path id="XMLID_606_" class="st30" d="m-85.66667,249.80001c0,0 8.1,7.2 9.4,16c0,0 -1.6,1 -2.7,-1.9s-5.6,-8.9 -7.8,-9.1c-0.1,0 -1.5,-4 1.1,-5z"/>
      <path id="XMLID_605_" class="st31" d="m-101.36667,245.40001c0,0 13.5,0.2 15.9,4.9s5.8,8.1 2.7,15.4c0,0 -2.1,-1.3 -1.4,-5.6c0,0 0.2,-4.1 -5.7,-7c0,0 -5.1,1.7 -9.8,-1.3c0.1,0 -3,-3.9 -1.7,-6.4z"/>
     </g>
     <path id="XMLID_604_" class="st38" d="m-102.56667,181.30001c0,0 6.6,6.9 -6.2,28.2s-10.8,23 -10.8,23s2.7,0.2 2,1.5c0,0 5,-0.7 5.7,4.2l-4.5,9.8c0,0 -13,-2.5 -15.7,-8.4l6.3,-23.7l23.2,-34.6z"/>
     <polygon id="XMLID_603_" class="st37" points="-111.86667132377625,237.8000030517578 -104.56667590141296,242.19998168945312 -109.16667437553406,250.69998168945312 -116.56667590141296,247.79998779296875 "/>
    </g>
   </g>
   <g id="BRAZO_IZQ-2">
    <g id="svg_339">
     <path id="XMLID_14_" class="st31" d="m-147.56667,199.20001c0,0 9.5,-5.1 18.7,2.3c9.2,7.4 31.8,30.7 31.8,30.7l22,-20.5l4.8,5.7c0,0 -15.4,21.1 -24.3,26.5c0.1,0.1 -51,-32.8 -53,-44.7z"/>
     <g id="hand_2_">
      <path id="XMLID_13_" class="st30" d="m-72.56667,217.10001c0,0 4.2,-0.7 7.5,-3c2.3,-1.6 6.2,-3 6.2,-3s-0.1,-2.2 -4,-0.8c-3.9,1.3 -6,0.5 -6,0.5l-3.7,6.3z"/>
      <path id="XMLID_12_" class="st30" d="m-70.06667,203.20001c0,0 8.5,-5.9 18.4,-8.2c0,0 0.6,2.2 -3.2,3.2c-3.5,0.8 -8.2,5 -8.2,5l-7,0z"/>
      <path id="XMLID_11_" class="st30" d="m-70.06667,203.20001c0,0 9.4,-5.4 18.2,-3.8c0,0 0.4,1.8 -2.7,2c-3.1,0.1 -10.2,2.5 -11.1,4.5c0,0.1 -4.3,0.1 -4.4,-2.7z"/>
      <path id="XMLID_10_" class="st31" d="m-79.26667,216.70001c0,0 4.5,-12.7 9.7,-13.5s9.5,-2.9 15.5,2.3c0,0 -1.9,1.6 -5.8,-0.5c0,0 -3.8,-1.5 -8.4,3.2c0,0 0,5.4 -4.3,8.9c0,0 -4.7,1.7 -6.7,-0.4z"/>
     </g>
     <path id="XMLID_9_" class="st38" d="m-140.36667,197.50001c0,0 8.6,-4.1 24.8,14.8s18.4,17.5 18.4,17.5s1,-2.5 2.1,-1.4c0,0 0.9,-5 5.8,-4.1l7.9,7.4c0,0 -6.5,11.5 -13,12.2l-20.5,-13.5l-25.5,-32.9z"/>
     <polygon id="XMLID_8_" class="st37" points="-89.76667284965515,224.3000030517578 -83.26667284965515,218.8000030517578 -76.66667437553406,225.8000030517578 -81.76667284965515,231.90000915527344 "/>
    </g>
   </g>
   <g id="phone">
    <g id="svg_340">
     <path class="st39" d="m-116.96667,283.90001l-1.8,-0.7c-3.5,-1.4 -5.2,-5.4 -3.8,-8.9l12.5,-31.1c1.4,-3.5 5.4,-5.2 8.9,-3.8l1.8,0.7c3.5,1.4 5.2,5.4 3.8,8.9l-12.5,31.1c-1.5,3.5 -5.5,5.2 -8.9,3.8z" id="svg_341"/>
     <path class="st38" d="m-120.16667,282.70001l-1.8,-0.7c-3.5,-1.4 -5.2,-5.4 -3.8,-8.9l12.5,-31.1c1.4,-3.5 5.4,-5.2 8.9,-3.8l1.8,0.7c3.5,1.4 5.2,5.4 3.8,8.9l-12.5,31.1c-1.4,3.5 -5.4,5.2 -8.9,3.8z" id="svg_342"/>
    </g>
    <rect x="-169.49358" y="228.50849" transform="matrix(0.3566,-0.9343,0.9343,0.3566,-277.747,35.5238) " class="st35" width="39" height="12.9" id="svg_343"/>
    <path class="st40" d="m-109.06667,263.30001l-4.2,-1.7c-1,-0.4 -1.4,-1.5 -1,-2.4l0.2,-0.5c0.4,-1 1.5,-1.4 2.4,-1l4.2,1.7c1,0.4 1.4,1.5 1,2.4l-0.2,0.5c-0.3,0.9 -1.4,1.3 -2.4,1z" id="svg_344"/>
    <path class="st41" d="m-108.46667,251.60001l-4.3,-1.7c-1,-0.4 -1.4,-1.5 -1,-2.4l0.2,-0.5c0.4,-1 1.5,-1.4 2.4,-1l4.3,1.7c1,0.4 1.4,1.5 1,2.4l-0.2,0.5c-0.4,0.9 -1.5,1.4 -2.4,1z" id="svg_345"/>
    <path class="st41" d="m-116.26667,271.90001l-4.3,-1.7c-1,-0.4 -1.4,-1.5 -1,-2.4l0.2,-0.5c0.4,-1 1.5,-1.4 2.4,-1l4.3,1.7c1,0.4 1.4,1.5 1,2.4l-0.2,0.5c-0.3,0.9 -1.4,1.3 -2.4,1z" id="svg_346"/>
   </g>
   <g id="phone-2">
    <g id="svg_347">
     <path class="st39" d="m-71.96667,230.90001l-1.8,-0.7c-3.5,-1.4 -5.2,-5.4 -3.8,-8.9l12.5,-31.1c1.4,-3.5 5.4,-5.2 8.9,-3.8l1.8,0.7c3.5,1.4 5.2,5.4 3.8,8.9l-12.5,31.1c-1.5,3.5 -5.5,5.2 -8.9,3.8z" id="svg_348"/>
     <path class="st38" d="m-75.16667,229.70001l-1.8,-0.7c-3.5,-1.4 -5.2,-5.4 -3.8,-8.9l12.5,-31.1c1.4,-3.5 5.4,-5.2 8.9,-3.8l1.8,0.7c3.5,1.4 5.2,5.4 3.8,8.9l-12.5,31.1c-1.4,3.5 -5.4,5.2 -8.9,3.8z" id="svg_349"/>
    </g>
    <rect x="-124.49358" y="175.50849" transform="matrix(0.3566,-0.9343,0.9343,0.3566,-199.2774,43.4646) " class="st35" width="39" height="12.9" id="svg_350"/>
    <path class="st40" d="m-64.06667,210.30001l-4.2,-1.7c-1,-0.4 -1.4,-1.5 -1,-2.4l0.2,-0.5c0.4,-1 1.5,-1.4 2.4,-1l4.2,1.7c1,0.4 1.4,1.5 1,2.4l-0.2,0.5c-0.3,0.9 -1.4,1.3 -2.4,1z" id="svg_351"/>
    <path class="st41" d="m-63.46667,198.60001l-4.3,-1.7c-1,-0.4 -1.4,-1.5 -1,-2.4l0.2,-0.5c0.4,-1 1.5,-1.4 2.4,-1l4.3,1.7c1,0.4 1.4,1.5 1,2.4l-0.2,0.5c-0.4,0.9 -1.5,1.4 -2.4,1z" id="svg_352"/>
    <path class="st41" d="m-71.26667,218.90001l-4.3,-1.7c-1,-0.4 -1.4,-1.5 -1,-2.4l0.2,-0.5c0.4,-1 1.5,-1.4 2.4,-1l4.3,1.7c1,0.4 1.4,1.5 1,2.4l-0.2,0.5c-0.3,0.9 -1.4,1.3 -2.4,1z" id="svg_353"/>
   </g>
   <g id="CUERPO">
    <g id="svg_354">
     <polygon id="XMLID_147_" class="st31" points="-146.86664843559265,259.29998779296875 -128.96666979789734,274 -144.96665453910828,330.29998779296875 -162.16665148735046,394.8999938964844 -170.66665148735046,395.7999572753906 -158.86664843559265,326.70001220703125 "/>
     <path id="XMLID_145_" class="st31" d="m-100.46667,260.60001c0,0 -3.9,37.4 -9.8,69.4l-6.8,65.4l-6.6,0.3c0,0 -5.8,-49.3 2.2,-65.7l-0.1,-56.7l21.1,-12.7z"/>
     <path id="XMLID_90_" class="st31" d="m-188.46667,415.00001l16.7,0c3.2,-8.2 12,-14.8 12,-14.8l-2.5,-5.4l-0.9,-2.1c-2.5,-3.3 -6.2,0 -6.2,0c-1.3,4.9 -7.7,11.8 -12.8,16.6c-3.5,3.3 -6.3,5.7 -6.3,5.7z"/>
     <path id="XMLID_87_" class="st42" d="m-159.76667,400.20001c0,0 -3.3,7.7 -3.3,14.7l-1.6,0c0,0 0.4,-9.4 -1.1,-9.2c0,0.1 2.6,-3.6 6,-5.5z"/>
     <path id="XMLID_50_" class="st43" d="m-188.46667,415.00001l16.7,0c3.2,-8.2 12,-14.8 12,-14.8l-2.5,-5.4l-12.7,14.5l-7.2,0c-3.5,3.3 -6.3,5.7 -6.3,5.7z"/>
     <path id="XMLID_49_" class="st31" d="m-98.36667,415.00001l-16.7,0c-3.2,-8.2 -12,-14.8 -12,-14.8l2.5,-5.4l0.9,-2.1c2.5,-3.3 6.2,0 6.2,0c1.3,4.9 7.7,11.8 12.8,16.6c3.5,3.3 6.3,5.7 6.3,5.7z"/>
     <path id="XMLID_48_" class="st42" d="m-127.06667,400.20001c0,0 3.3,7.7 3.3,14.7l1.6,0c0,0 -0.4,-9.4 1.1,-9.2c0,0.1 -2.6,-3.6 -6,-5.5z"/>
     <path id="XMLID_47_" class="st43" d="m-98.36667,415.00001l-16.7,0c-3.2,-8.2 -12,-14.8 -12,-14.8l2.5,-5.4l12.7,14.5l7.2,0c3.5,3.3 6.3,5.7 6.3,5.7z"/>
     <path id="XMLID_46_" class="st44" d="m-144.26667,241.50001c0,0 -9.7,59.3 -26.4,149.1l10.9,0.7l35.2,-117.2l2.3,53.5c0,0 -7.1,13.5 -2.3,63.2l9.4,0.5l14.6,-130.6c0,0 2.7,-12.5 -2.8,-19.2c0,0 -25.4,5.3 -40.9,0z"/>
     <path id="XMLID_45_" class="st45" d="m-167.26667,385.90001l21.7,-118.4c0.1,-0.7 0.8,-1.3 1.5,-1.3l0.7,0c1,0 1.7,0.9 1.5,1.9l-22.3,118.4c-0.1,0.7 -0.8,1.3 -1.5,1.3l0,0c-1.1,-0.1 -1.8,-1 -1.6,-1.9z"/>
     <path id="XMLID_44_" class="st45" d="m-103.16667,266.10001l-6.6,60l-6.6,61.6l3.5,-60.8c0.2,0 4.3,-57 9.7,-60.8z"/>
    </g>
    <g id="svg_355">
     <g id="svg_356">
      <polygon id="XMLID_43_" class="st46" points="-138.06664538383484,164.6999969482422 -118.26667284965515,164.6999969482422 -118.76667284965515,170.00001525878906 -137.16665148735046,169.3000030517578 "/>
      <path id="XMLID_42_" class="st31" d="m-120.86667,171.30001l-12.6,-1c-0.4,0 -0.7,-0.4 -0.6,-0.7l1.9,-24.1c0,-0.4 0.4,-0.6 0.7,-0.6l12.6,1c0.4,0 0.7,0.4 0.6,0.7l-1.9,24.1c0,0.4 -0.4,0.6 -0.7,0.6z"/>
      <path id="XMLID_41_" class="st31" d="m-134.76667,168.60001l-3.4,0.8c0,0 2.8,22.4 17.6,22.4c14.5,0 8.9,-13.7 1.8,-22.7l-1.9,-0.3l-14.1,-0.2z"/>
      <path id="XMLID_40_" class="st46" d="m-126.26667,173.90001l3.1,10l1.4,-10.3l5.7,-3.9c0,0 5.9,0.2 9.5,4.1c0,0 8.3,18.6 5,28.5s-6.6,23.4 -0.8,38.6c5.8,15.2 7.5,20.7 7.5,20.7s-8.7,3.1 -22.2,4.6l-3.9,-9.9l-4.3,9.9c0,0 -16.4,-0.1 -25.7,-5.5c0,0 10.3,-23.2 8.2,-37.7s-13.8,-35.3 -7.4,-53.3c0,0 10,0.3 14,-1l9.9,5.2z"/>
      <polygon id="XMLID_39_" class="st47" points="-138.06664538383484,164.6999969482422 -126.26667284965515,173.90000915527344 -130.96666979789734,180.1999969482422 -139.56664538383484,168.6000213623047 "/>
      <polygon id="XMLID_38_" class="st47" points="-118.26667284965515,164.6999969482422 -121.76667284965515,173.6000213623047 -118.26667284965515,179.50001525878906 -115.76667284965515,168.6000213623047 "/>
      <path id="XMLID_37_" class="st47" d="m-122.66667,187.10001c0,0 0.6,0.8 1.4,2.5c0.7,1.6 1.7,4 2.1,7.1c0.3,1.5 0.4,3.2 0.4,4.9c0,1.8 -0.1,3.6 -0.5,5.5c-0.3,1.9 -0.8,3.8 -1,5.8c-0.3,2 -0.4,4 -0.6,6c-0.3,4 -0.4,8.1 -0.4,11.9c0,3.8 0,7.3 0.1,10.4c0.1,3 0.1,5.6 0.2,7.4c0.1,1.8 0.1,2.8 0.1,2.8s-0.4,-4 -0.7,-10.1c-0.1,-3 -0.3,-6.6 -0.3,-10.4c0,-3.8 0,-7.9 0.3,-11.9c0.1,-2 0.3,-4.1 0.6,-6.1c0.2,-2 0.7,-3.9 1,-5.8c0.3,-1.9 0.5,-3.7 0.6,-5.4c0,-1.7 0,-3.4 -0.3,-4.9c-0.4,-3 -1.1,-5.4 -1.8,-7.1c-0.6,-1.7 -1.2,-2.6 -1.2,-2.6z"/>
     </g>
     <g id="svg_357">
      <path id="XMLID_36_" class="st48" d="m-146.16667,232.70001l0,4.9c0,0 9.2,4.5 19.9,1.5l-0.1,-6.4c0,0 -14.2,1.9 -19.8,0z"/>
      <path id="XMLID_35_" class="st48" d="m-111.86667,231.70001l-0.5,5.7c0,0 5.5,0.1 9.3,-3.3l-0.1,-6.4l-8.7,4z"/>
      <path id="XMLID_34_" class="st37" d="m-116.46667,168.20001c0,0 7.3,35.4 4.5,65c0,0 6.6,0.2 9.7,-4.1c0,0 -4,-14.6 0,-24.2c4,-9.6 -0.6,-26.2 -4.9,-32.7c0,0.1 -2.8,-4.2 -9.3,-4z"/>
      <path id="XMLID_33_" class="st48" d="m-139.56667,167.20001l0.8,-3.1c0,0 15.1,9 12.3,52.1c0.1,0 -1.7,-36 -13.1,-49z"/>
      <path id="XMLID_32_" class="st48" d="m-116.46667,168.20001c0,0 5.3,32.6 5.1,46.1c0,0 1.6,-19.2 -2.5,-45.9c0,0 -0.7,-2.9 -3,-3.1l-0.5,0l1.2,2l-0.3,0.9z"/>
      <path class="st37" d="m-139.56667,167.20001c-9,-0.1 -14.1,1.3 -16.3,2.1l-2.3,0.9l0,3.1l5.3,15.4l0.3,1.9l0.2,-0.2c6.4,15.9 4.4,42.5 4.4,42.5c10,4.6 21.6,1.8 21.6,1.8c2,-56.5 -13.2,-67.5 -13.2,-67.5z" id="svg_358"/>
     </g>
    </g>
   </g>
   <g id="BRAZO_DERE">
    <g id="svg_359">
     <path class="st31" d="m-138.26667,247.00001l2.9,-7.9l-13.1,-8.2l-5.8,6.7c8.5,5 16,9.4 16,9.4z" id="svg_360"/>
     <path class="st37" d="m-160.66667,233.60001c2.1,1.3 4.3,2.6 6.5,3.9l5.8,-6.7l-7.6,-4.8l-4.7,7.6z" id="svg_361"/>
     <path class="st37" d="m-166.76667,219.30001l10.8,6.8l0.1,-0.2c-1.1,-5.6 -6.1,-6.9 -6.1,-6.9c0.4,-2.2 -2.7,-1.9 -2.7,-1.9l18.1,-28.8l-0.5,-1.9l-19.7,32.9z" id="svg_362"/>
     <path class="st37" d="m-156.26667,173.00001c-0.4,0.7 -0.8,1.5 -1.2,2.4c-0.2,0.5 -0.5,1 -0.7,1.5c-1.8,3.6 -3.9,8 -6,12.6c-7,15 -14.3,32.1 -14.3,32.1c6,8.9 17.5,12.8 17.5,12.8l0.4,-0.6c-8.6,-5.2 -16.4,-10.3 -16.8,-11.4c-1,-2.6 24.6,-52.5 24.6,-52.5l2.1,3.2l-1.5,-5.4c-0.9,0.5 -1.4,0.8 -1.4,0.8c-0.8,0.9 -1.7,2.5 -2.7,4.5z" id="svg_363"/>
     <path class="st37" d="m-177.46667,222.20001c0.4,1.1 8.3,6.2 16.8,11.4l4.7,-7.6l-10.8,-6.8l19.8,-32.9l-3.8,-13.4l-2.1,-3.2c0,0 -25.6,49.9 -24.6,52.5z" id="svg_364"/>
     <path id="XMLID_572_" class="st31" d="m-122.36667,242.80001c0,0 4.6,5.5 5,10.5c0,0 -2.9,0.9 -4.2,-1.7c0,0 -1.5,2.1 -3.9,-1.2c-2.3,-3.3 -13,-1.6 -12.5,-2.8l4.7,-4.7l10.9,-0.1z"/>
     <g id="svg_365">
      <path class="st31" d="m-121.26667,240.60001c-3.9,-1.6 -13.4,-2 -14.9,-2c-0.1,0 -0.3,0 -0.4,0.1l-6.9,4.3c-0.4,0.2 -0.4,0.8 -0.1,1.1c0.3,0.2 0.6,0.5 1,0.8l0,0l4.5,3c0.2,0.1 0.4,0.1 0.6,0.1l2.5,-1c0.1,0 0.1,-0.1 0.2,-0.1c0.3,-0.3 1.6,-1.1 1.9,-1.4c0.1,-0.1 0.1,-0.1 0.2,-0.2c1.1,-0.5 8.2,-3.4 11.5,1.5c2.5,3.7 4.6,4 5.7,3.9c0.4,0 0.7,-0.5 0.5,-0.9c-0.5,-2 -2.8,-7.7 -6.3,-9.2z" id="svg_366"/>
     </g>
    </g>
   </g>
   <g id="BRAZO_DERE-2">
    <g id="svg_367">
     <path class="st31" d="m-87.96667,207.80001l-4.3,-7.2l-14.6,5.1l1.6,8.7c9.1,-3.5 17.3,-6.6 17.3,-6.6z" id="svg_368"/>
     <path class="st37" d="m-112.46667,216.90001c2.3,-0.8 4.7,-1.7 7.1,-2.6l-1.6,-8.7l-8.5,2.9l3,8.4z" id="svg_369"/>
     <path class="st37" d="m-127.46667,212.70001l12.1,-4.2l-0.1,-0.2c-5.1,-2.6 -9.2,0.4 -9.2,0.4c-1.5,-1.7 -3.2,0.9 -3.2,0.9l-11.1,-32.1l-1.8,-0.8l13.3,36z" id="svg_370"/>
     <path class="st37" d="m-156.96667,175.50001c0.3,0.8 0.7,1.6 1.1,2.4c0.3,0.5 0.5,1 0.7,1.5c1.7,3.7 3.8,8.1 6.1,12.6c7.3,14.9 16.1,31.2 16.1,31.2c10.7,0.9 20.9,-5.6 20.9,-5.6l-0.2,-0.7c-9.4,3.4 -18.3,6.3 -19.4,6c-2.7,-0.8 -25.5,-52.1 -25.5,-52.1l3.8,0.4l-5.1,-2.2c-0.2,1 -0.3,1.6 -0.3,1.6c0.2,1.2 0.9,2.9 1.8,4.9z" id="svg_371"/>
     <path class="st37" d="m-131.86667,222.90001c1.1,0.4 10,-2.6 19.4,-6l-3,-8.4l-12.1,4.2l-13.3,-36l-12.8,-5.4l-3.8,-0.4c0,-0.1 22.9,51.1 25.6,52z" id="svg_372"/>
     <path id="XMLID_6_" class="st31" d="m-81.36667,192.80001c0,0 7.2,-0.1 11.3,2.7c0,0 -1.1,2.8 -4,2.2c0,0 0.7,2.5 -3.4,2.3c-4,-0.3 -9.4,9.1 -10,8l-0.7,-6.6l6.8,-8.6z"/>
     <g id="svg_373">
      <path class="st31" d="m-82.36667,190.60001c-3.7,2 -9.9,9.2 -10.9,10.4c-0.1,0.1 -0.2,0.2 -0.2,0.4l-1,8.1c-0.1,0.4 0.4,0.8 0.8,0.8c0.3,-0.1 0.8,-0.2 1.2,-0.3l0,0l5.2,-1.6c0.2,-0.1 0.3,-0.2 0.5,-0.4l0.8,-2.6c0.1,-0.1 0,-0.1 0,-0.2c0,-0.4 0.1,-1.9 0.1,-2.4c0,-0.1 0,-0.1 0,-0.3c0.3,-1.2 2.5,-8.5 8.4,-8c4.5,0.4 6,-1.1 6.6,-2c0.3,-0.3 0,-0.9 -0.4,-1c-1.8,-1 -7.7,-2.7 -11.1,-0.9z" id="svg_374"/>
     </g>
    </g>
   </g>
   <g id="BRAZO_DERE-3">
    <g id="svg_375">
     <path class="st31" d="m-97.56667,227.00001l-2.6,-8l-15.4,1.7l-0.4,8.9c9.8,-1.4 18.4,-2.6 18.4,-2.6z" id="svg_376"/>
     <path class="st37" d="m-123.46667,230.30001c2.5,-0.3 5,-0.6 7.5,-1l0.4,-8.9l-8.9,0.9l1,9z" id="svg_377"/>
     <path class="st37" d="m-137.06667,222.90001l12.7,-1.3l0,-0.2c-4.3,-3.7 -9.1,-1.6 -9.1,-1.6c-1,-2 -3.3,0.2 -3.3,0.2l-3.6,-33.8l-1.6,-1.2l4.9,37.9z" id="svg_378"/>
     <path class="st37" d="m-157.46667,180.00001c0.1,0.8 0.3,1.7 0.5,2.6c0.2,0.5 0.2,1.1 0.4,1.6c0.8,3.9 1.9,8.7 3.1,13.6c3.8,16.1 8.6,34.1 8.6,34.1c10.2,3.3 21.7,-0.8 21.7,-0.8l-0.1,-0.7c-10,1.2 -19.3,2 -20.3,1.4c-2.4,-1.4 -13.1,-56.5 -13.1,-56.5l3.6,1.2l-4.5,-3.3c-0.4,0.9 -0.6,1.5 -0.6,1.5c0,1.3 0.3,3.1 0.7,5.3z" id="svg_379"/>
     <path class="st37" d="m-143.66667,231.70001c1,0.6 10.4,-0.3 20.3,-1.4l-1,-8.9l-12.7,1.3l-4.8,-38.1l-11.3,-8.2l-3.6,-1.2c-0.1,0.1 10.7,55.1 13.1,56.5z" id="svg_380"/>
     <path id="XMLID_15_" class="st31" d="m-87.66667,213.90001c0,0 7,1.5 10.4,5.2c0,0 -1.7,2.5 -4.4,1.3c0,0 0.1,2.6 -3.8,1.5c-3.8,-1.2 -11.2,6.8 -11.6,5.5l0.8,-6.6l8.6,-6.9z"/>
     <g id="svg_381">
      <path class="st31" d="m-88.16667,211.50001c-4.1,1.2 -11.8,6.7 -12.9,7.6c-0.1,0.1 -0.2,0.2 -0.3,0.3l-2.8,7.6c-0.2,0.4 0.2,0.9 0.6,0.9c0.4,0 0.8,0 1.3,0l0,0l5.4,-0.4c0.2,0 0.4,-0.2 0.5,-0.3l1.3,-2.3c0.1,-0.1 0,-0.1 0.1,-0.2c0.1,-0.4 0.6,-1.9 0.6,-2.3c0,-0.1 0,-0.1 0,-0.3c0.6,-1.1 4.3,-7.7 10,-5.9c4.3,1.4 6.1,0.3 6.9,-0.5c0.3,-0.2 0.2,-0.8 -0.2,-1c-1.5,-1.2 -6.8,-4.2 -10.5,-3.2z" id="svg_382"/>
     </g>
    </g>
   </g>
  </g>
  <rect stroke="null" x="30.23809" y="304.71192" class="st12" width="531.76669" height="129.35474" id="svg_383"/>
  <rect stroke="null" x="58.54087" y="335.63489" class="st9" width="221.77286" height="97.09559" id="svg_384"/>
  <rect stroke="null" x="315.70673" y="328.2541" class="st9" width="224.15564" height="98.11363" id="svg_385"/>
  <polygon stroke="null" class="st25" points="8.266688227653503,305.3481750488281 53.190797209739685,272.5163879394531 544.2759603261948,272.5163879394531 589.2001546621323,305.3481750488281 " id="svg_386"/>
  <style type="text/css">:root {
        --animate-duration: 1s;
        --animate-delay: 1s;
        --animate-repeat: 1;
      }
      
       .animate__animated {
        -webkit-animation-duration: 1s;
        animation-duration: 1s;
        -webkit-animation-duration: var(--animate-duration);
        animation-duration: var(--animate-duration);
        -webkit-animation-fill-mode: both;
        animation-fill-mode: both;
      }
    @-webkit-keyframes slideInLeft {
    from {
        -webkit-transform: translate3d(-100%, 0, 0);
        transform: translate3d(-100%, 0, 0);
        visibility: visible
    }

    to {
        -webkit-transform: translate3d(0, 0, 0);
        transform: translate3d(0, 0, 0)
    }
}

@keyframes slideInLeft {
    from {
        -webkit-transform: translate3d(-100%, 0, 0);
        transform: translate3d(-100%, 0, 0);
        visibility: visible
    }

    to {
        -webkit-transform: translate3d(0, 0, 0);
        transform: translate3d(0, 0, 0)
    }
}

.animate__slideInLeft {
    -webkit-animation-name: slideInLeft;
    animation-name: slideInLeft
}
    .animate__animated.animate__repeat-1 {
          -webkit-animation-iteration-count: 1;
          animation-iteration-count: 1;
          -webkit-animation-iteration-count: var(--animate-repeat);
          animation-iteration-count: var(--animate-repeat);
        }
    .animate__animated.animate__delay-2s {
          -webkit-animation-delay: calc(1s * 2);
          animation-delay: calc(1s * 2);
          -webkit-animation-delay: calc(var(--animate-delay) * 2);
          animation-delay: calc(var(--animate-delay) * 2);
        }
    .animate__animated.animate__fast {
          -webkit-animation-duration: calc(1s * 4);
          animation-duration: calc(1s * 4);
          -webkit-animation-duration: calc(var(--animate-duration) * 4);
          animation-duration: calc(var(--animate-duration) * 4);
        }</style>
  <g stroke="null" id="svg_2" class="animate__animated animate__slideInLeft animate__repeat-1 animate__delay-2s animate__fast">
   <g stroke="null" id="svg_393">
    <path stroke="null" class="st51" d="m149.23347,240.19361l-14.21272,0l-2.50812,0l-14.21272,0c0,0 -15.51325,21.76061 13.65536,23.22404l0,27.0417l-9.10359,0.82716l0,1.27255l9.66095,0l2.50812,0l9.66095,0l0,-1.27255l-9.10359,-0.82716l0,-27.0417c29.16862,-1.46343 13.65536,-23.22404 13.65536,-23.22404z" id="svg_394"/>
    <path stroke="null" class="st54" d="m151.7416,249.61049l-0.18578,0l-35.85696,0l-0.18578,0l0.18578,0.12725c-0.27868,1.27255 -2.13655,12.78913 17.83558,12.91638l0,0l0.0929,0l0.0929,0l0,0c19.97213,-0.06363 18.11426,-11.64383 17.83558,-12.91638l0.18578,-0.12725z" id="svg_395"/>
   </g>
  </g>
  <style type="text/css">:root {
        --animate-duration: 1s;
        --animate-delay: 1s;
        --animate-repeat: 1;
      }
      
       .animate__animated {
        -webkit-animation-duration: 1s;
        animation-duration: 1s;
        -webkit-animation-duration: var(--animate-duration);
        animation-duration: var(--animate-duration);
        -webkit-animation-fill-mode: both;
        animation-fill-mode: both;
      }
    @-webkit-keyframes slideInLeft {
    from {
        -webkit-transform: translate3d(-100%, 0, 0);
        transform: translate3d(-100%, 0, 0);
        visibility: visible
    }

    to {
        -webkit-transform: translate3d(0, 0, 0);
        transform: translate3d(0, 0, 0)
    }
}

@keyframes slideInLeft {
    from {
        -webkit-transform: translate3d(-100%, 0, 0);
        transform: translate3d(-100%, 0, 0);
        visibility: visible
    }

    to {
        -webkit-transform: translate3d(0, 0, 0);
        transform: translate3d(0, 0, 0)
    }
}

.animate__slideInLeft {
    -webkit-animation-name: slideInLeft;
    animation-name: slideInLeft
}
    .animate__animated.animate__repeat-1 {
          -webkit-animation-iteration-count: 1;
          animation-iteration-count: 1;
          -webkit-animation-iteration-count: var(--animate-repeat);
          animation-iteration-count: var(--animate-repeat);
        }
    .animate__animated.animate__delay-3s {
          -webkit-animation-delay: calc(1s * 3);
          animation-delay: calc(1s * 3);
          -webkit-animation-delay: calc(var(--animate-delay) * 3);
          animation-delay: calc(var(--animate-delay) * 3);
        }
    .animate__animated.animate__fast {
          -webkit-animation-duration: calc(1s * 4);
          animation-duration: calc(1s * 4);
          -webkit-animation-duration: calc(var(--animate-duration) * 4);
          animation-duration: calc(var(--animate-duration) * 4);
        }</style>
  <g stroke="null" id="svg_3" class="animate__animated animate__slideInLeft animate__repeat-1 animate__delay-3s animate__fast">
   <g stroke="null" id="svg_396">
    <path stroke="null" class="st51" d="m67.00049,285.56004c4.64511,-2.09971 13.93528,-6.87177 9.29017,-14.95247s0,-19.53365 0,-19.53365l-9.50622,0l-4.42904,0l-9.50622,0c0,0 4.64511,11.45295 0,19.53365s4.64511,12.85276 9.29017,14.95247l0,8.90786l-7.77782,0.82716l0,0.89079l7.99387,0l4.42904,0l7.99387,0l0,-0.89079l-7.77782,-0.82716l0,-8.90786z" id="svg_397"/>
    <path stroke="null" class="st55" d="m54.46953,255.20971c0.97223,3.69039 2.05247,10.24403 -0.8642,15.33423c-4.10497,7.18991 3.67288,11.64383 8.1019,13.67992l5.61732,0c4.42904,-2.03608 12.20688,-6.49001 8.1019,-13.67992c-2.91667,-5.0902 -1.83643,-11.64383 -0.8642,-15.33423l-20.09272,0z" id="svg_398"/>
   </g>
  </g>
  <style type="text/css">:root {
        --animate-duration: 1s;
        --animate-delay: 1s;
        --animate-repeat: 1;
      }
      
       .animate__animated {
        -webkit-animation-duration: 1s;
        animation-duration: 1s;
        -webkit-animation-duration: var(--animate-duration);
        animation-duration: var(--animate-duration);
        -webkit-animation-fill-mode: both;
        animation-fill-mode: both;
      }
    @-webkit-keyframes slideInRight {
    from {
        -webkit-transform: translate3d(100%, 0, 0);
        transform: translate3d(100%, 0, 0);
        visibility: visible
    }

    to {
        -webkit-transform: translate3d(0, 0, 0);
        transform: translate3d(0, 0, 0)
    }
}

@keyframes slideInRight {
    from {
        -webkit-transform: translate3d(100%, 0, 0);
        transform: translate3d(100%, 0, 0);
        visibility: visible
    }

    to {
        -webkit-transform: translate3d(0, 0, 0);
        transform: translate3d(0, 0, 0)
    }
}

.animate__slideInRight {
    -webkit-animation-name: slideInRight;
    animation-name: slideInRight
}
    .animate__animated.animate__repeat-1 {
          -webkit-animation-iteration-count: 1;
          animation-iteration-count: 1;
          -webkit-animation-iteration-count: var(--animate-repeat);
          animation-iteration-count: var(--animate-repeat);
        }
    .animate__animated.animate__delay-2s {
          -webkit-animation-delay: calc(1s * 2);
          animation-delay: calc(1s * 2);
          -webkit-animation-delay: calc(var(--animate-delay) * 2);
          animation-delay: calc(var(--animate-delay) * 2);
        }
    .animate__animated.animate__fast {
          -webkit-animation-duration: calc(1s * 4);
          animation-duration: calc(1s * 4);
          -webkit-animation-duration: calc(var(--animate-duration) * 4);
          animation-duration: calc(var(--animate-duration) * 4);
        }</style>
  <g stroke="null" id="svg_5" class="animate__animated animate__slideInRight animate__repeat-1 animate__delay-2s animate__fast">
   <g stroke="null" id="svg_387">
    <path stroke="null" class="st51" d="m469.56753,292.28165l-6.73174,-1.56716c-1.90899,-0.45709 -3.11468,-1.56716 -3.11468,-2.87313l0,-13.38616c16.37724,-7.31341 14.56869,-33.49805 14.56869,-33.49805l-15.47296,0l-3.71754,0l-15.47296,0c0,0 -1.90899,26.18464 14.56869,33.49805l0,13.38616c0,1.30597 -1.20569,2.41604 -3.11468,2.87313l-6.73174,1.56716c-0.50236,0.19589 -0.30142,0.78358 0.30142,0.78358l10.44928,0l3.71754,0l10.44928,0c0.60284,0 0.90427,-0.52239 0.30142,-0.78358l-0.00003,0z" id="svg_388"/>
    <path stroke="null" class="st52" d="m441.03299,252.18846c1.10521,7.70521 4.32038,17.69586 13.26254,21.67905l5.32511,0c8.94216,-3.9832 12.15733,-13.97385 13.26254,-21.67905l-31.85018,0l-0.00002,0z" id="svg_389"/>
   </g>
  </g>
  <style type="text/css">:root {
        --animate-duration: 1s;
        --animate-delay: 1s;
        --animate-repeat: 1;
      }
      
       .animate__animated {
        -webkit-animation-duration: 1s;
        animation-duration: 1s;
        -webkit-animation-duration: var(--animate-duration);
        animation-duration: var(--animate-duration);
        -webkit-animation-fill-mode: both;
        animation-fill-mode: both;
      }
    @-webkit-keyframes slideInRight {
    from {
        -webkit-transform: translate3d(100%, 0, 0);
        transform: translate3d(100%, 0, 0);
        visibility: visible
    }

    to {
        -webkit-transform: translate3d(0, 0, 0);
        transform: translate3d(0, 0, 0)
    }
}

@keyframes slideInRight {
    from {
        -webkit-transform: translate3d(100%, 0, 0);
        transform: translate3d(100%, 0, 0);
        visibility: visible
    }

    to {
        -webkit-transform: translate3d(0, 0, 0);
        transform: translate3d(0, 0, 0)
    }
}

.animate__slideInRight {
    -webkit-animation-name: slideInRight;
    animation-name: slideInRight
}
    .animate__animated.animate__repeat-1 {
          -webkit-animation-iteration-count: 1;
          animation-iteration-count: 1;
          -webkit-animation-iteration-count: var(--animate-repeat);
          animation-iteration-count: var(--animate-repeat);
        }
    .animate__animated.animate__delay-3s {
          -webkit-animation-delay: calc(1s * 3);
          animation-delay: calc(1s * 3);
          -webkit-animation-delay: calc(var(--animate-delay) * 3);
          animation-delay: calc(var(--animate-delay) * 3);
        }
    .animate__animated.animate__fast {
          -webkit-animation-duration: calc(1s * 4);
          animation-duration: calc(1s * 4);
          -webkit-animation-duration: calc(var(--animate-duration) * 4);
          animation-duration: calc(var(--animate-duration) * 4);
        }</style>
  <g stroke="null" id="svg_6" class="animate__animated animate__slideInRight animate__repeat-1 animate__delay-3s animate__fast">
   <g stroke="null" id="svg_399">
    <g stroke="null" id="svg_400">
     <ellipse stroke="null" transform="matrix(0.18282453664451373,-0.5951423917000014,0.780008627857575,0.13949413905704636,470.5666500456056,677.3980015699303) " class="st56" cx="721.4963" cy="-75.97376" rx="11.7" ry="11.7" id="svg_401"/>
     <circle stroke="null" class="st57" cx="543.25631" cy="237.42364" r="4.122" id="svg_402"/>
     <g stroke="null" id="svg_403">
      <g stroke="null" id="svg_404">
       <path stroke="null" class="st58" d="m542.77563,238.76845l-2.00289,3.42317c-0.08012,0.18338 0,0.42789 0.32047,0.55015c0.80115,0.24451 2.64383,0.67242 4.72684,0.18338c0.32047,-0.06113 0.4807,-0.36676 0.32047,-0.55015l-2.40347,-3.60655c-0.16023,-0.36676 -0.80115,-0.30563 -0.96139,0l-0.00001,0l-0.00001,0z" id="svg_405"/>
       <path stroke="null" class="st58" d="m544.77852,238.09604l3.76545,2.44512c0.24035,0.12225 0.5608,0.12225 0.80115,-0.06113c0.64092,-0.48902 1.68242,-1.65045 1.68242,-3.23979c0,-0.24451 -0.32047,-0.42789 -0.64092,-0.42789l-5.36777,0.55015c-0.40058,0.06113 -0.5608,0.48902 -0.24035,0.73354l0.00001,0.00001l0,-0.00001z" id="svg_406"/>
       <path stroke="null" class="st58" d="m544.53817,236.44559l4.32627,-1.89498c0.24035,-0.12225 0.32047,-0.36676 0.16023,-0.55015c-0.4807,-0.55015 -1.60232,-1.71158 -3.68534,-2.20061c-0.32047,-0.06113 -0.64092,0.06113 -0.72104,0.30563l-0.96139,3.91219c0,0.36676 0.4807,0.61128 0.88127,0.42789l0.00001,0l0,0.00002z" id="svg_407"/>
       <path stroke="null" class="st58" d="m542.37504,236.13995l-1.12162,-3.60655c-0.08012,-0.24451 -0.40058,-0.36676 -0.64092,-0.30563c-0.88127,0.12225 -2.72395,0.61128 -4.0058,1.89498c-0.24035,0.18338 -0.08012,0.48902 0.16023,0.61128l4.80696,1.89498c0.40058,0.12225 0.88127,-0.18338 0.80115,-0.48902l0,-0.00001l0,-0.00002z" id="svg_408"/>
       <path stroke="null" class="st58" d="m541.2534,237.54589l-4.96719,-0.30563c-0.32047,0 -0.5608,0.12225 -0.5608,0.36676c-0.08012,0.67242 -0.08012,2.07836 1.20174,3.36204c0.16023,0.18338 0.5608,0.24451 0.80115,0.06113l3.92568,-2.75076c0.32047,-0.30563 0.08012,-0.73354 -0.40058,-0.73354l0,-0.00001l0,0.00001z" id="svg_409"/>
      </g>
     </g>
    </g>
    <path stroke="null" class="st51" d="m527.47348,288.71004c-3.76545,-3.91219 -0.5608,-23.90106 0.16023,-27.2631c0.72104,-3.42317 15.30215,-21.21142 15.30215,-21.21142l-18.50678,0l-18.50678,0c0,0 14.5811,17.78826 15.30215,21.21142c0.72104,3.42317 3.92568,23.3509 0.16023,27.2631c0,0 -11.21623,-0.12225 -12.25773,2.32286c0,0 1.60232,2.99527 15.30215,2.99527s15.30215,-2.99527 15.30215,-2.99527c-1.0415,-2.50625 -12.25773,-2.32286 -12.25773,-2.32286l-0.00003,0z" id="svg_410"/>
    <path stroke="null" class="st55" d="m524.42908,240.23553l-17.86586,0c0,0 7.69114,9.71936 11.93727,16.1378l0,0c0,0 5.76834,2.01723 11.6168,0c0.08012,0 0.16023,-0.06113 0.24035,-0.06113c4.32627,-6.41844 11.93727,-16.07667 11.93727,-16.07667l-17.86586,0l0,0l-0.00001,0l0.00003,0z" id="svg_411"/>
    <path stroke="null" class="st51" d="m505.92228,240.23553c0,0 0.4807,0.55015 1.20174,1.46707l0,0l33.6487,0c0,0 0.32047,0.12225 0.80115,0.30563c0.88127,-1.10031 1.44209,-1.71158 1.44209,-1.71158l-18.50678,0l-18.5869,-0.06113l0,0l-0.00001,0.00001l0.00001,0z" id="svg_412"/>
   </g>
  </g>
  <style rel="stylesheet" type="text/css">:root {
        --animate-duration: 1s;
        --animate-delay: 1s;
        --animate-repeat: 1;
      }
      
       .animate__animated {
        -webkit-animation-duration: 1s;
        animation-duration: 1s;
        -webkit-animation-duration: var(--animate-duration);
        animation-duration: var(--animate-duration);
        -webkit-animation-fill-mode: both;
        animation-fill-mode: both;
      }
    @-webkit-keyframes slideInLeft {
    from {
        -webkit-transform: translate3d(-100%, 0, 0);
        transform: translate3d(-100%, 0, 0);
        visibility: visible
    }

    to {
        -webkit-transform: translate3d(0, 0, 0);
        transform: translate3d(0, 0, 0)
    }
}

@keyframes slideInLeft {
    from {
        -webkit-transform: translate3d(-100%, 0, 0);
        transform: translate3d(-100%, 0, 0);
        visibility: visible
    }

    to {
        -webkit-transform: translate3d(0, 0, 0);
        transform: translate3d(0, 0, 0)
    }
}

.animate__slideInLeft {
    -webkit-animation-name: slideInLeft;
    animation-name: slideInLeft
}
    .animate__animated.animate__repeat-1 {
          -webkit-animation-iteration-count: 1;
          animation-iteration-count: 1;
          -webkit-animation-iteration-count: var(--animate-repeat);
          animation-iteration-count: var(--animate-repeat);
        }
    .animate__animated.animate__delay-3s {
          -webkit-animation-delay: calc(1s * 3);
          animation-delay: calc(1s * 3);
          -webkit-animation-delay: calc(var(--animate-delay) * 3);
          animation-delay: calc(var(--animate-delay) * 3);
        }
    .animate__animated.animate__faster {
          -webkit-animation-duration: calc(2s);
          animation-duration: calc(2s);
          -webkit-animation-duration: calc(var(--animate-duration));
          animation-duration: calc(var(--animate-duration));
        }</style>
  <g stroke="null" class="animate__animated animate__slideInLeft animate__repeat-1 animate__delay-3s animate__faster">
   <g stroke="null" id="svg_413" xmlns="http://www.w3.org/2000/svg">
    <g stroke="null" id="svg_414">
     <circle stroke="null" class="st56" cx="229.60923" cy="239.36645" r="4.73579" id="svg_415"/>
     <ellipse stroke="null" transform="matrix(0.1221799752504565,-0.6280672353441852,0.7528330435064021,0.10193128467443875,263.4288946444258,373.186653783854) " class="st57" cx="200.49658" cy="-77.45616" rx="10.6" ry="10.6" id="svg_416"/>
     <g stroke="null" id="svg_417">
      <g stroke="null" id="svg_418">
       <path stroke="null" class="st58" d="m229.15163,240.76626l-1.90667,3.56314c-0.15253,0.19088 0,0.44539 0.30507,0.57265c0.76266,0.25451 2.51682,0.69991 4.49976,0.19088c0.30507,-0.06363 0.4576,-0.38176 0.30507,-0.57265l-2.288,-3.75402c-0.15253,-0.38176 -0.76266,-0.38176 -0.91521,0l-0.00001,0l-0.00001,0z" id="svg_419"/>
       <path stroke="null" class="st58" d="m231.0583,240.06636l3.58456,2.5451c0.2288,0.12725 0.53386,0.12725 0.76266,-0.06363c0.61013,-0.50902 1.6016,-1.71794 1.6016,-3.37226c0,-0.25451 -0.30507,-0.44539 -0.61013,-0.44539l-5.1099,0.57265c-0.38133,0.06363 -0.53386,0.50902 -0.2288,0.76353l0.00001,0.00001l0,-0.00001z" id="svg_420"/>
       <path stroke="null" class="st58" d="m230.8295,238.34842l4.11843,-1.97246c0.2288,-0.12725 0.30507,-0.38176 0.15253,-0.57265c-0.4576,-0.57265 -1.52534,-1.78157 -3.5083,-2.29059c-0.30507,-0.06363 -0.61013,0.06363 -0.68641,0.31813l-0.91521,4.07216c0,0.38176 0.4576,0.63628 0.83894,0.44539l0.00001,0l0,0.00002z" id="svg_421"/>
       <path stroke="null" class="st58" d="m228.77029,238.03028l-1.06774,-3.75402c-0.07627,-0.25451 -0.38133,-0.38176 -0.61013,-0.31813c-0.83894,0.12725 -2.59309,0.63628 -3.81336,1.97246c-0.2288,0.19088 -0.07627,0.50902 0.15253,0.63628l4.57604,1.97246c0.4576,0.12725 0.91521,-0.19088 0.76266,-0.50902l0,-0.00001l0,-0.00002z" id="svg_422"/>
       <path stroke="null" class="st58" d="m227.70254,239.49371l-4.72857,-0.31813c-0.30507,0 -0.53386,0.12725 -0.53386,0.38176c-0.07627,0.69991 -0.07627,2.16334 1.14401,3.49951c0.15253,0.19088 0.53386,0.25451 0.76266,0.06363l3.73709,-2.86324c0.30507,-0.31813 0.07627,-0.76353 -0.38133,-0.76353l0,-0.00001l0,0.00001z" id="svg_423"/>
      </g>
     </g>
    </g>
    <path stroke="null" class="st51" d="m214.5846,292.68632c-3.58456,-4.07216 -0.53386,-24.87836 0.15253,-28.37788c0.68641,-3.56314 14.56703,-22.07875 14.56703,-22.07875l-17.61771,0l-17.61771,0c0,0 13.88063,18.51561 14.56703,22.07875c0.68641,3.56314 3.73709,24.30571 0.15253,28.37788c0,0 -10.6774,-0.12725 -11.66887,2.41784c0,0 1.52534,3.11775 14.56703,3.11775s14.56703,-3.11775 14.56703,-3.11775c-0.99147,-2.5451 -11.66887,-2.41784 -11.66887,-2.41784l-0.00003,0z" id="svg_424"/>
    <path stroke="null" class="st59" d="m211.7627,242.2297l-17.00758,0c0,0 7.32166,10.11678 11.36381,16.79767l0,0c0,0 5.49123,2.09971 11.05873,0c0.07627,0 0.15253,-0.06363 0.2288,-0.06363c4.11843,-6.68089 11.36381,-16.73404 11.36381,-16.73404l-17.00758,0l0,0l-0.00001,0l0.00003,0z" id="svg_425"/>
    <path stroke="null" class="st51" d="m194.14499,242.2297c0,0 0.4576,0.57265 1.14401,1.52706l0,0l32.03221,0c0,0 0.30507,0.12725 0.76266,0.31813c0.83894,-1.1453 1.37281,-1.78157 1.37281,-1.78157l-17.61771,0l-17.69398,-0.06363l0,0l-0.00001,0.00001l0.00001,0z" id="svg_426"/>
   </g>
  </g>
  <style rel="stylesheet" type="text/css">:root {
        --animate-duration: 1s;
        --animate-delay: 1s;
        --animate-repeat: 1;
      }
      
       .animate__animated {
        -webkit-animation-duration: 1s;
        animation-duration: 1s;
        -webkit-animation-duration: var(--animate-duration);
        animation-duration: var(--animate-duration);
        -webkit-animation-fill-mode: both;
        animation-fill-mode: both;
      }
    @-webkit-keyframes slideInRight {
    from {
        -webkit-transform: translate3d(100%, 0, 0);
        transform: translate3d(100%, 0, 0);
        visibility: visible
    }

    to {
        -webkit-transform: translate3d(0, 0, 0);
        transform: translate3d(0, 0, 0)
    }
}

@keyframes slideInRight {
    from {
        -webkit-transform: translate3d(100%, 0, 0);
        transform: translate3d(100%, 0, 0);
        visibility: visible
    }

    to {
        -webkit-transform: translate3d(0, 0, 0);
        transform: translate3d(0, 0, 0)
    }
}

.animate__slideInRight {
    -webkit-animation-name: slideInRight;
    animation-name: slideInRight
}
    .animate__animated.animate__repeat-1 {
          -webkit-animation-iteration-count: 1;
          animation-iteration-count: 1;
          -webkit-animation-iteration-count: var(--animate-repeat);
          animation-iteration-count: var(--animate-repeat);
        }
    .animate__animated.animate__delay-3s {
          -webkit-animation-delay: calc(1s * 3);
          animation-delay: calc(1s * 3);
          -webkit-animation-delay: calc(var(--animate-delay) * 3);
          animation-delay: calc(var(--animate-delay) * 3);
        }
    .animate__animated.animate__faster {
          -webkit-animation-duration: calc(2s);
          animation-duration: calc(2s);
          -webkit-animation-duration: calc(var(--animate-duration));
          animation-duration: calc(var(--animate-duration));
        }</style>
  <g stroke="null" class="animate__animated animate__slideInRight animate__repeat-1 animate__delay-3s animate__faster">
   <g stroke="null" id="svg_390" xmlns="http://www.w3.org/2000/svg">
    <path stroke="null" class="st51" d="m381.78998,280.8516c6.46272,-2.22696 19.52858,-7.44442 13.06588,-16.16139c-6.46272,-8.71697 0,-21.06071 0,-21.06071l-13.34689,0l-6.18171,0l-13.34689,0c0,0 6.46272,12.34374 0,21.06071c-6.46272,8.71697 6.46272,13.93443 13.06588,16.16139l0,9.67138l-10.81798,0.89079l0,0.95441l11.09898,0l6.18171,0l11.09898,0l0,-0.95441l-10.81798,-0.89079l0,-9.67138l-0.00005,0l0.00005,0z" id="svg_391"/>
    <path stroke="null" class="st53" d="m364.36879,248.08343c1.40492,4.00853 2.80986,11.07119 -1.26444,16.60678c-5.76023,7.76256 5.05777,12.59825 11.37996,14.82521l8.00814,0c6.32221,-2.22696 17.14019,-6.99903 11.37996,-14.82521c-4.07431,-5.5356 -2.66936,-12.59825 -1.26444,-16.60678l-28.23917,0z" id="svg_392"/>
   </g>
  </g>
 </g>
</svg>