<svg xmlns="http://www.w3.org/2000/svg" xmlns:xlink="http://www.w3.org/1999/xlink" version="1.1" x="0px" y="0px" height="450px" width="800px" viewBox="0 0 800 450" style="enable-background:new 0 0 800 450;" xml:space="preserve"><g><title>background</title><rect fill="#fff" id="canvas_background" height="450" width="800" y="-1" x="-1"/></g>
<style type="text/css">
	.st0{fill:none;stroke:#00F600;stroke-miterlimit:10;}
	.st1{fill:none;stroke:#E50000;stroke-miterlimit:10;}
	.st2{fill:none;stroke:#0D96F1;stroke-miterlimit:10;}
	.st3{fill:#8C8C8C;}
	.st4{fill:none;stroke:#000000;stroke-width:4;stroke-miterlimit:10;}
	.st5{fill:#FDDC6B;}
	.st6{fill:#D9BC5B;}
	.st7{fill:none;stroke:#000000;stroke-miterlimit:10;}
	.st8{fill:#8B7A3B;}
	.st9{fill:#FFFFFF;}
	.st10{fill:#CE7D02;}
	.st11{fill:none;stroke:#D58B1A;stroke-miterlimit:10;}
	.st12{fill:#C7A315;}
	.st13{fill:#FFFFFF;stroke:#000000;stroke-miterlimit:10;}
	.st14{font-family:'MyriadPro-Regular';}
	.st15{font-size:18px;}
	.st16{fill:#FAC169;}
	.st17{fill:#384D3F;}
	.st18{fill:#6A8D74;}
	.st19{fill:#FAAF3C;}
	.st20{fill:#E1A044;}
	.st21{fill:#465F4E;}
    #WING_2_GREEN ,#WING_1_GREEN{
    animation : fly ease-in-out 3s infinite;
    transform-origin : center ;
    transform-box : fill-box
    }
    @keyframes fly{
    0%{
    transform : rotateY(0)
    }
    10%{
    transform : rotateY(-80deg)
    }
    20%{
    transform : rotateY(0)
    }
    30%{
    transform : rotateY(-80deg)
    }
    40%,100%{
    transform : rotateY(0)
    }
    }
    #EYEBROWS_GREEN{
    animation : up ease-in-out 3s infinite;
    }
    @keyframes up{
    0%,30%{
    transform : translateY(0)
    }
    40%,80%{
    transform : translateY(-5px)
    }
    90%,100%{
    transform : translateY(0)
    }
    }
    #bubble-1{
    animation : fade1 ease-in-out 3s infinite;
    transform-origin : center ;
    transform-box : fill-box;
    visibility : hidden
    }
    @keyframes fade1{
    0%,30%{
    visibility : hidden;
    transform : scale(1)
    }
    40%{
    visibility : visible;
    transform : scale(1.1)
    }
    60%,100%{
    visibility : visible;
    transform : scale(1)
    }
    }
    #bubble-2{
    animation : fade2 ease-in-out 3s infinite;
    transform-origin : center ;
    transform-box : fill-box;
    visibility : hidden
    }
    @keyframes fade2{
    0%,60%{
    visibility : hidden;
    transform : scale(1)
    }
    70%{
    visibility : visible;
    transform : scale(1.1)
    }
    80%,100%{
    visibility : visible;
    transform : scale(1)
    }
    }
    #Eye-brow-mini{
    animation : up ease-in-out 3s infinite;
    }
    @keyframes up{
    0%,50%{
    transform : translateY(0)
    }
    60%,85%{
    transform : translateY(-5px)
    }
    90%,100%{
    transform : translateY(0)
    }
    }
    #WING_2_YELLOW ,#WING_1_YELLOW{
    animation : fly1 ease-in-out 3s infinite;
    transform-origin : center ;
    transform-box : fill-box
    }
    @keyframes fly1{
    0%{
    transform : rotateY(0)
    }
    40%{
    transform : rotateY(80deg)
    }
    50%{
    transform : rotateY(0)
    }
    60%{
    transform : rotateY(80deg)
    }
    70%,100%{
    transform : rotateY(0)
    }
    }
    #light1 ,#light2{
    animation : lightining 3s ease-in-out infinite;
    transform-origin : center;
    transform-box  : fill-box
    }
    @keyframes lightining{
    0%,40%{
    visibility : hidden;
    transform : scale(1)
    }
    40%{
    visibility : visible;
    transform : scale(1)
    }
    50%{
     visibility : visible;
    transform : scale(1.2)
    }
    60%{
    visibility : visible;
    transform : scale(1)
    }
    90%100%{
    visibility : hidden;
    transform : scale(1)
    }
    }
</style>
<g id="Layer_1">
</g>
<g id="CABLE_2">
	<path class="st0" d="M528.2,306.6c0,0-6.4,0.7-7.7,3.6"/>
	<path class="st1" d="M527.9,304.4c0,0-6.5-0.1-8-2.8"/>
	<line class="st2" x1="528" y1="305.5" x2="518.6" y2="305.7"/>
	
		<rect x="526" y="303.8" transform="matrix(0.9994 3.519147e-02 -3.519147e-02 0.9994 11.0859 -18.4174)" class="st3" width="5.4" height="3.9"/>
	<path class="st4" d="M747.5,328.9c0,0-118.2-23.3-217.2-23.2"/>
</g>
<g id="CABLE_1">
	<path class="st0" d="M472.2,303.9c0,0,6.4,0.7,7.7,3.6"/>
	<path class="st1" d="M472.5,301.7c0,0,6.5-0.1,8-2.8"/>
	<line class="st2" x1="481.7" y1="303" x2="472.3" y2="302.8"/>
	
		<rect x="468" y="300.7" transform="matrix(0.9994 3.519147e-02 -3.519147e-02 0.9994 10.9405 -16.3754)" class="st3" width="5.4" height="3.9"/>
	<path class="st4" d="M468.6,302.5c-77.3-3-205.9-9.1-224.1-17.2c-69.3-31.7,21.2-52.9,24.4-64.5c4.2-14.8-213.8-24.3-213.8-24.3"/>
</g>
<g id="Mini-bird">
	<g id="WING_2_YELLOW">
		<polygon class="st5" points="609.6,285.9 614.4,297.9 606.9,291.1   "/>
	</g>
	<g id="WING_1_YELLOW">
		<polygon class="st5" points="568.5,281.4 558.7,291.3 569.2,287.2   "/>
	</g>
	<g id="BODY_YELLOW">
		<g>
			<ellipse class="st5" cx="586.9" cy="291.3" rx="22" ry="17.3"/>
			<ellipse class="st6" cx="587.1" cy="289.3" rx="21.8" ry="16.4"/>
		</g>
		<path class="st5" d="M603.2,192.3c0,0-126.5,60.7-27,90.7c0,0,56.8,14.9,71.8-8.1c2.5-3.9,4.9-11,3.2-18.2    c-3.1-13.5-29.4-18.8-48.5-45.4c-3.5-4.8,2.5-11.6,3.2-16.4C606.4,191.2,603.9,192.2,603.2,192.3z"/>
		<path class="st7" d="M625.7,233.1"/>
		<g>
			<ellipse class="st8" cx="608.9" cy="255.7" rx="23.8" ry="24.5"/>
			<ellipse class="st9" cx="606.9" cy="256.6" rx="22.5" ry="22.4"/>
		</g>
		<g>
			<ellipse class="st8" cx="568.8" cy="246.7" rx="16.3" ry="16.7"/>
			<ellipse class="st9" cx="569.8" cy="247.5" rx="15.4" ry="15.1"/>
		</g>
	</g>
	<g id="YELLOW_PICO">
		<polygon class="st10" points="571.3,264.3 581.2,261.5 585.2,271.1 571.3,279.6   "/>
		<polyline class="st11" points="571.6,266.1 578.2,265.3 582.6,272.6   "/>
	</g>
	<g id="light">
		<polygon id="light1" class="st12" points="494.9,291.4 491.6,296.5 488.3,300.5 484.3,304.4 485.2,298 486.8,288 488.6,286.3 490.5,291.5       "/>
		<polygon id="light2" class="st12" points="508.1,321.5 511.9,316.8 514.6,312.4 516.9,307.3 511.2,310.2 502.2,315 501.2,317.2 506.8,317.3       "/>
	</g>
	<g id="EYES_YELLOW">
		<g>
			<path d="M593.4,252.7c-1.8,1.8-2,4.6-0.3,6.3c1.6,1.6,4.5,1.5,6.3-0.3c0.7-0.7,1.2-1.7,1.4-2.6c0.2,2.1-0.6,4.4-2.2,6     c-3,3-7.8,3-10.8,0c-3-3-3-7.8,0-10.8c3-3,7.8-3,10.8,0c0.2,0.2,0.4,0.5,0.6,0.7C597.5,250.8,595.1,251.1,593.4,252.7z"/>
			<path d="M575.9,249.9c1.4,1.2,3.3,1.1,4.4-0.1c1.1-1.2,0.8-3.2-0.5-4.3c-0.6-0.5-1.2-0.8-1.9-0.8c1.5-0.2,3.1,0.2,4.3,1.2     c2.2,1.9,2.5,5.3,0.5,7.5c-1.9,2.2-5.3,2.5-7.5,0.5c-2.2-1.9-2.5-5.3-0.5-7.5c0.1-0.2,0.3-0.3,0.5-0.5     C574.4,247.2,574.7,248.9,575.9,249.9z"/>
		</g>
	</g>
	<g id="Eye-brow-mini">
		<path class="st6" d="M558.9,223.7l-3.6-6.4c0,0,26.7-11,34,12.9C589.4,230.2,577.6,206.1,558.9,223.7z"/>
		<path class="st6" d="M599.5,227.1c0,0,13.4-8.2,19.2-6.4l8.7,6.4l0.9-8.6C628.3,218.5,615.3,215.8,599.5,227.1z"/>
	</g>
</g>
<g id="EYEBROW_YELLOW">
	<g id="bubble-1">
		<path class="st13" d="M569.8,145.8c0,25.6-36.8,46.3-82.1,46.3c-11.3,0-22.1-1.3-32-3.6c-29.5-7-50.2-23.5-50.2-42.7    c0-25.6,36.8-46.3,82.1-46.3C533,99.5,569.8,120.2,569.8,145.8z"/>
		<polyline class="st13" points="434.9,180.3 429.5,212.5 464.4,189.2   "/>
		<text transform="matrix(1 0 0 1 456.7393 129.5)"><tspan x="0" y="0" class="st14 st15">Did You </tspan><tspan x="-36.2" y="21.6" class="st14 st15">Touch The Cables </tspan><tspan x="4.2" y="43.2" class="st14 st15">Again ?</tspan></text>
	</g>
	<g id="bubble-2">
		<path class="st13" d="M719.2,163.5c0,18.8-27,34-60.3,34c-8.3,0-16.3-1-23.5-2.7c-21.7-5.2-36.9-17.2-36.9-31.3    c0-18.8,27-34,60.3-34S719.2,144.7,719.2,163.5z"/>
		<polyline class="st13" points="620.1,187.8 616.1,211.5 641.7,194.4   "/>
		<text transform="matrix(1 0 0 1 625.6436 170.5)" class="st14 st15">Who Me?</text>
	</g>
</g>
<g id="Bird-1">
	<g id="LEG_2_GREEN">
		<g>
			<path class="st16" d="M336.3,298.8L336.3,298.8c-0.6,0-1.1-0.6-1.1-1.2l0.3-6.3c0-0.6,0.6-1.1,1.2-1.1l0,0c0.6,0,1.1,0.6,1.1,1.2     l-0.3,6.3C337.5,298.3,337,298.8,336.3,298.8z"/>
			<path class="st16" d="M333.7,298.6L333.7,298.6c-0.6,0-1.1-0.6-1.1-1.2l0.3-6.3c0-0.6,0.6-1.1,1.2-1.1l0,0c0.6,0,1.1,0.6,1.1,1.2     l-0.3,6.3C334.9,298.1,334.4,298.6,333.7,298.6z"/>
		</g>
	</g>
	<g id="LEG_1_GREEN">
		<g>
			<path class="st16" d="M357.5,299.7L357.5,299.7c-0.6,0-1.1-0.5-1.1-1.1l0-6.3c0-0.6,0.5-1.1,1.1-1.1l0,0c0.6,0,1.1,0.5,1.1,1.1     l0,6.3C358.6,299.2,358.1,299.7,357.5,299.7z"/>
			<path class="st16" d="M354.9,299.7L354.9,299.7c-0.6,0-1.1-0.5-1.1-1.1l0-6.3c0-0.6,0.5-1.1,1.1-1.1l0,0c0.6,0,1.1,0.5,1.1,1.1     l0,6.3C356,299.2,355.5,299.7,354.9,299.7z"/>
		</g>
	</g>
	<g id="WING_2_GREEN">
		<path class="st17" d="M368,266l8,17.4l-14.1-8.6C361.9,274.8,362.4,264.8,368,266z"/>
	</g>
	<g id="WING_1_GREEN">
		<path class="st17" d="M327.7,260.7l-10.3,16.1l15.1-6.6C332.5,270.3,333.5,260.3,327.7,260.7z"/>
	</g>
	<g id="BODY_GREEN">
		<ellipse class="st17" cx="346.7" cy="274.8" rx="23.4" ry="19.6"/>
		<ellipse class="st18" cx="346.9" cy="273.6" rx="22.1" ry="19"/>
		<path class="st18" d="M350.8,164.6c-2.2-3.9-9.1-13.3-27.4-18.5c0,0,13.1,10.2,17.3,18.7c-0.3,0-0.6,0.1-0.9,0.1    c-3.1-4.8-9.9-12.2-24.2-17.4c0,0,11.4,10.3,15.4,18.9c-25.5,6-40.9,26.6-40.5,50.6c0.5,26.7,28.3,51.8,63.2,51.8    c34.9,0,62.1-15.5,63-44.1C417.8,189.8,384.4,166.3,350.8,164.6z"/>
		<ellipse class="st17" cx="380.3" cy="221.6" rx="20.9" ry="21.4"/>
		<ellipse class="st9" cx="378.2" cy="223.1" rx="20.4" ry="20.9"/>
		<ellipse class="st17" cx="331.1" cy="209.8" rx="28.2" ry="28.5"/>
		<ellipse class="st9" cx="332.5" cy="212.5" rx="26.3" ry="27.2"/>
	</g>
	<g id="GREEN_PICO">
		<path class="st16" d="M341.6,245.9l12.6,19l10.8-15.4c0,0-7.2-4.3-9.8-9.2C355.2,240.3,346.5,246.2,341.6,245.9z"/>
		<path class="st19" d="M345.3,251.5l9-2.7l7.5,5.3l3.2-4.5c0,0-8.1-5.4-9.8-9.2c0,0-8.3,5.7-13.6,5.7L345.3,251.5z"/>
	</g>
	<g id="LEG_2_YELLOW">
		<g>
			<path class="st20" d="M595.3,313.9L595.3,313.9c-0.6,0-1.1-0.5-1.1-1.1l0-6.3c0-0.6,0.5-1.1,1.1-1.1l0,0c0.6,0,1.1,0.5,1.1,1.1     l0,6.3C596.5,313.4,595.9,313.9,595.3,313.9z"/>
			<path class="st20" d="M592.7,313.9L592.7,313.9c-0.6,0-1.1-0.5-1.1-1.1l0-6.3c0-0.6,0.5-1.1,1.1-1.1l0,0c0.6,0,1.1,0.5,1.1,1.1     l0,6.3C593.9,313.3,593.3,313.9,592.7,313.9z"/>
		</g>
	</g>
	<g id="LEG_1_YELLOW">
		<g>
			<path class="st20" d="M574.7,312.4L574.7,312.4c-0.6-0.1-1-0.7-0.9-1.3l1.1-6.2c0.1-0.6,0.7-1,1.3-0.9l0,0c0.6,0.1,1,0.7,0.9,1.3     l-1.1,6.2C575.9,312.1,575.3,312.5,574.7,312.4z"/>
			<path class="st20" d="M572.2,311.9L572.2,311.9c-0.6-0.1-1-0.7-0.9-1.3l1.1-6.2c0.1-0.6,0.7-1,1.3-0.9l0,0c0.6,0.1,1,0.7,0.9,1.3     l-1.1,6.2C573.4,311.6,572.8,312,572.2,311.9z"/>
		</g>
	</g>
	<g id="EYES_GREEN">
		<path d="M384,227.4c1.8,1.8,4.6,2,6.3,0.3c1.6-1.6,1.5-4.5-0.3-6.3c-0.7-0.7-1.7-1.2-2.6-1.4c2.1-0.2,4.4,0.6,6,2.2    c3,3,3,7.8,0,10.8c-3,3-7.8,3-10.8,0c-3-3-3-7.8,0-10.8c0.2-0.2,0.5-0.4,0.7-0.6C382.1,223.3,382.4,225.7,384,227.4z"/>
		<path d="M337.4,222.5c2.4,2.1,5.8,2,7.6-0.1c1.9-2.1,1.4-5.5-0.9-7.6c-1-0.8-2.1-1.3-3.3-1.5c2.6-0.4,5.3,0.3,7.5,2.2    c3.9,3.4,4.3,9.3,0.9,13.1c-3.4,3.9-9.3,4.3-13.1,0.9c-3.9-3.4-4.3-9.3-0.9-13.1c0.3-0.3,0.5-0.6,0.8-0.8    C334.8,217.7,335.3,220.6,337.4,222.5z"/>
	</g>
	<g id="EYEBROWS_GREEN">
		<g>
			<path class="st21" d="M327.3,175.2c1.8-0.1,3.7-0.1,5.6,0.1c1.8,0.1,3.7,0.4,5.5,0.7c3.7,0.7,7.3,1.8,10.7,3.4     c3.4,1.6,6.6,3.7,9.3,6.5c2.7,2.7,4.8,6,6.1,9.6l-1.3-0.5c2.3-1,4.7-1.8,7.1-2.4c2.4-0.6,4.9-1,7.4-1c2.5-0.1,5,0.2,7.4,1     c1.2,0.4,2.3,0.9,3.4,1.6c1,0.7,2,1.5,2.8,2.4c-0.9-0.8-1.9-1.5-3-2c-1.1-0.5-2.2-0.9-3.4-1.2c-2.3-0.5-4.7-0.6-7.1-0.4     c-2.4,0.2-4.7,0.7-7.1,1.3c-2.3,0.6-4.6,1.5-6.7,2.5l-0.9,0.4l-0.4-1c-1.3-3.3-3.3-6.4-5.7-8.9c-2.5-2.6-5.4-4.6-8.6-6.3     c-3.2-1.6-6.6-2.9-10.2-3.8C334.6,176.1,331,175.5,327.3,175.2z"/>
		</g>
	</g>
</g>
</svg>