<svg width="800" height="450" xmlns="http://www.w3.org/2000/svg">
 <g>
  <title>background</title>
  <rect x="-1" y="-1" width="805.32696" height="453.87141" id="canvas_background" fill="#fff"/>
 </g>

 <style type="text/css">.st0{fill:none;stroke:#00F600;stroke-miterlimit:10;}
	.st1{fill:none;stroke:#E50000;stroke-miterlimit:10;}
	.st2{fill:none;stroke:#0D96F1;stroke-miterlimit:10;}
	.st3{fill:#8C8C8C;}
	.st4{fill:none;stroke:#000000;stroke-width:4;stroke-miterlimit:10;}
	.st5{fill:#FDDC6B;}
	.st6{fill:#D9BC5B;}
	.st7{fill:none;stroke:#000000;stroke-miterlimit:10;}
	.st8{fill:#8B7A3B;}
	.st9{fill:#FFFFFF;}
	.st10{fill:#CE7D02;}
	.st11{fill:none;stroke:#D58B1A;stroke-miterlimit:10;}
	.st12{fill:#C7A315;}
	.st13{fill:#FFFFFF;stroke:#000000;stroke-miterlimit:10;}
	.st14{font-family:'MyriadPro-Regular';}
	.st15{font-size:18px;}
	.st16{fill:#FAC169;}
	.st17{fill:#384D3F;}
	.st18{fill:#6A8D74;}
	.st19{fill:#FAAF3C;}
	.st20{fill:#E1A044;}
	.st21{fill:#465F4E;}
    #WING_2_GREEN ,#WING_1_GREEN{
    animation : fly ease-in-out 3s infinite;
    transform-origin : center ;
    transform-box : fill-box
    }
    @keyframes fly{
    0%{
    transform : rotateY(0)
    }
    10%{
    transform : rotateY(-80deg)
    }
    20%{
    transform : rotateY(0)
    }
    30%{
    transform : rotateY(-80deg)
    }
    40%,100%{
    transform : rotateY(0)
    }
    }
    #EYEBROWS_GREEN{
    animation : up ease-in-out 3s infinite;
    }
    @keyframes up{
    0%,30%{
    transform : translateY(0)
    }
    40%,80%{
    transform : translateY(-5px)
    }
    90%,100%{
    transform : translateY(0)
    }
    }
    #bubble-1{
    animation : fade1 ease-in-out 3s infinite;
    transform-origin : center ;
    transform-box : fill-box;
    visibility : hidden
    }
    @keyframes fade1{
    0%,30%{
    visibility : hidden;
    transform : scale(1)
    }
    40%{
    visibility : visible;
    transform : scale(1.1)
    }
    60%,100%{
    visibility : visible;
    transform : scale(1)
    }
    }
    #bubble-2{
    animation : fade2 ease-in-out 3s infinite;
    transform-origin : center ;
    transform-box : fill-box;
    visibility : hidden
    }
    @keyframes fade2{
    0%,60%{
    visibility : hidden;
    transform : scale(1)
    }
    70%{
    visibility : visible;
    transform : scale(1.1)
    }
    80%,100%{
    visibility : visible;
    transform : scale(1)
    }
    }
    #Eye-brow-mini{
    animation : up ease-in-out 3s infinite;
    }
    @keyframes up{
    0%,50%{
    transform : translateY(0)
    }
    60%,85%{
    transform : translateY(-5px)
    }
    90%,100%{
    transform : translateY(0)
    }
    }
    #WING_2_YELLOW ,#WING_1_YELLOW{
    animation : fly1 ease-in-out 3s infinite;
    transform-origin : center ;
    transform-box : fill-box
    }
    @keyframes fly1{
    0%{
    transform : rotateY(0)
    }
    40%{
    transform : rotateY(80deg)
    }
    50%{
    transform : rotateY(0)
    }
    60%{
    transform : rotateY(80deg)
    }
    70%,100%{
    transform : rotateY(0)
    }
    }
    #light1 ,#light2{
    animation : lightining 3s ease-in-out infinite;
    transform-origin : center;
    transform-box  : fill-box
    }
    @keyframes lightining{
    0%,40%{
    visibility : hidden;
    transform : scale(1)
    }
    40%{
    visibility : visible;
    transform : scale(1)
    }
    50%{
     visibility : visible;
    transform : scale(1.2)
    }
    60%{
    visibility : visible;
    transform : scale(1)
    }
    90%100%{
    visibility : hidden;
    transform : scale(1)
    }
    }</style>
 <g>
  <title>Layer 1</title>
  <g id="Layer_1"/>
  <g id="CABLE_2">
   <path id="svg_1" d="m528.2,306.6c0,0 -6.4,0.7 -7.7,3.6" class="st0"/>
   <path id="svg_2" d="m527.9,304.4c0,0 -6.5,-0.1 -8,-2.8" class="st1"/>
   <line id="svg_3" y2="305.7" x2="518.6" y1="305.5" x1="528" class="st2"/>
   <rect id="svg_4" height="3.9" width="5.4" class="st3" transform="matrix(0.9994,0.03519147,-0.03519147,0.9994,11.0859,-18.4174) " y="303.8" x="526"/>
   <path id="svg_5" d="m747.5,328.9c0,0 -118.2,-23.3 -217.2,-23.2" class="st4"/>
  </g>
  <g id="CABLE_1">
   <path id="svg_6" d="m472.2,303.9c0,0 6.4,0.7 7.7,3.6" class="st0"/>
   <path id="svg_7" d="m472.5,301.7c0,0 6.5,-0.1 8,-2.8" class="st1"/>
   <line id="svg_8" y2="302.8" x2="472.3" y1="303" x1="481.7" class="st2"/>
   <rect id="svg_9" height="3.9" width="5.4" class="st3" transform="matrix(0.9994,0.03519147,-0.03519147,0.9994,10.9405,-16.3754) " y="300.7" x="468"/>
   <path id="svg_10" d="m468.6,302.5c-77.3,-3 -205.9,-9.1 -224.1,-17.2c-69.3,-31.7 21.2,-52.9 24.4,-64.5c4.2,-14.8 -213.8,-24.3 -213.8,-24.3" class="st4"/>
  </g>
  <g id="Mini-bird">
   <g id="WING_2_YELLOW">
    <polygon id="svg_11" points="609.6,285.9 614.4,297.9 606.9,291.1   " class="st5"/>
   </g>
   <g id="WING_1_YELLOW">
    <polygon id="svg_12" points="568.5,281.4 558.7,291.3 569.2,287.2   " class="st5"/>
   </g>
   <g id="BODY_YELLOW">
    <g id="svg_13">
     <ellipse id="svg_14" ry="17.3" rx="22" cy="291.3" cx="586.9" class="st5"/>
     <ellipse id="svg_15" ry="16.4" rx="21.8" cy="289.3" cx="587.1" class="st6"/>
    </g>
    <path id="svg_16" d="m603.2,192.3c0,0 -126.5,60.7 -27,90.7c0,0 56.8,14.9 71.8,-8.1c2.5,-3.9 4.9,-11 3.2,-18.2c-3.1,-13.5 -29.4,-18.8 -48.5,-45.4c-3.5,-4.8 2.5,-11.6 3.2,-16.4c0.5,-3.7 -2,-2.7 -2.7,-2.6z" class="st5"/>
    <path id="svg_17" d="m625.7,233.1" class="st7"/>
    <g id="svg_18">
     <ellipse id="svg_19" ry="24.5" rx="23.8" cy="255.7" cx="608.9" class="st8"/>
     <ellipse id="svg_20" ry="22.4" rx="22.5" cy="256.6" cx="606.9" class="st9"/>
    </g>
    <g id="svg_21">
     <ellipse id="svg_22" ry="16.7" rx="16.3" cy="246.7" cx="568.8" class="st8"/>
     <ellipse id="svg_23" ry="15.1" rx="15.4" cy="247.5" cx="569.8" class="st9"/>
    </g>
   </g>
   <g id="YELLOW_PICO">
    <polygon id="svg_24" points="571.3,264.3 581.2,261.5 585.2,271.1 571.3,279.6   " class="st10"/>
    <polyline id="svg_25" points="571.6,266.1 578.2,265.3 582.6,272.6   " class="st11"/>
   </g>
   <g id="light">
    <polygon points="494.9,291.4 491.6,296.5 488.3,300.5 484.3,304.4 485.2,298 486.8,288 488.6,286.3 490.5,291.5       " class="st12" id="light1"/>
    <polygon points="508.1,321.5 511.9,316.8 514.6,312.4 516.9,307.3 511.2,310.2 502.2,315 501.2,317.2 506.8,317.3       " class="st12" id="light2"/>
   </g>
   <g id="EYES_YELLOW">
    <g id="svg_26">
     <path id="svg_27" d="m593.4,252.7c-1.8,1.8 -2,4.6 -0.3,6.3c1.6,1.6 4.5,1.5 6.3,-0.3c0.7,-0.7 1.2,-1.7 1.4,-2.6c0.2,2.1 -0.6,4.4 -2.2,6c-3,3 -7.8,3 -10.8,0c-3,-3 -3,-7.8 0,-10.8c3,-3 7.8,-3 10.8,0c0.2,0.2 0.4,0.5 0.6,0.7c-1.7,-1.2 -4.1,-0.9 -5.8,0.7z"/>
     <path id="svg_28" d="m575.9,249.9c1.4,1.2 3.3,1.1 4.4,-0.1c1.1,-1.2 0.8,-3.2 -0.5,-4.3c-0.6,-0.5 -1.2,-0.8 -1.9,-0.8c1.5,-0.2 3.1,0.2 4.3,1.2c2.2,1.9 2.5,5.3 0.5,7.5c-1.9,2.2 -5.3,2.5 -7.5,0.5c-2.2,-1.9 -2.5,-5.3 -0.5,-7.5c0.1,-0.2 0.3,-0.3 0.5,-0.5c-0.8,1.3 -0.5,3 0.7,4z"/>
    </g>
   </g>
   <g id="Eye-brow-mini">
    <path id="svg_29" d="m558.9,223.7l-3.6,-6.4c0,0 26.7,-11 34,12.9c0.1,0 -11.7,-24.1 -30.4,-6.5z" class="st6"/>
    <path id="svg_30" d="m599.5,227.1c0,0 13.4,-8.2 19.2,-6.4l8.7,6.4l0.9,-8.6c0,0 -13,-2.7 -28.8,8.6z" class="st6"/>
   </g>
  </g>
  <g id="EYEBROW_YELLOW">
   <g id="bubble-1">
    <path id="svg_31" d="m569.8,145.8c0,25.6 -36.8,46.3 -82.1,46.3c-11.3,0 -22.1,-1.3 -32,-3.6c-29.5,-7 -50.2,-23.5 -50.2,-42.7c0,-25.6 36.8,-46.3 82.1,-46.3c45.4,0 82.2,20.7 82.2,46.3z" class="st13"/>
    <polyline id="svg_32" points="434.9,180.3 429.5,212.5 464.4,189.2   " class="st13"/>
    <text id="svg_33" transform="matrix(1,0,0,1,456.7393,129.5) ">
     <tspan id="svg_34" class="st14 st15" y="0" x="0">Did You</tspan>
     <tspan id="svg_35" class="st14 st15" y="21.6" x="-36.2">Touch The Cables</tspan>
     <tspan id="svg_36" class="st14 st15" y="43.2" x="4.2">Again ?</tspan>
    </text>
   </g>
   <g id="bubble-2">
    <path id="svg_37" d="m719.2,163.5c0,18.8 -27,34 -60.3,34c-8.3,0 -16.3,-1 -23.5,-2.7c-21.7,-5.2 -36.9,-17.2 -36.9,-31.3c0,-18.8 27,-34 60.3,-34s60.4,15.2 60.4,34z" class="st13"/>
    <polyline id="svg_38" points="620.1,187.8 616.1,211.5 641.7,194.4   " class="st13"/>
    <text id="svg_39" class="st14 st15" transform="matrix(1,0,0,1,625.6436,170.5) ">Who Me?</text>
   </g>
  </g>
  <g id="Bird-1">
   <g id="LEG_2_GREEN">
    <g id="svg_40">
     <path id="svg_41" d="m336.3,298.8l0,0c-0.6,0 -1.1,-0.6 -1.1,-1.2l0.3,-6.3c0,-0.6 0.6,-1.1 1.2,-1.1l0,0c0.6,0 1.1,0.6 1.1,1.2l-0.3,6.3c0,0.6 -0.5,1.1 -1.2,1.1z" class="st16"/>
     <path id="svg_42" d="m333.7,298.6l0,0c-0.6,0 -1.1,-0.6 -1.1,-1.2l0.3,-6.3c0,-0.6 0.6,-1.1 1.2,-1.1l0,0c0.6,0 1.1,0.6 1.1,1.2l-0.3,6.3c0,0.6 -0.5,1.1 -1.2,1.1z" class="st16"/>
    </g>
   </g>
   <g id="LEG_1_GREEN">
    <g id="svg_43">
     <path id="svg_44" d="m357.5,299.7l0,0c-0.6,0 -1.1,-0.5 -1.1,-1.1l0,-6.3c0,-0.6 0.5,-1.1 1.1,-1.1l0,0c0.6,0 1.1,0.5 1.1,1.1l0,6.3c0,0.6 -0.5,1.1 -1.1,1.1z" class="st16"/>
     <path id="svg_45" d="m354.9,299.7l0,0c-0.6,0 -1.1,-0.5 -1.1,-1.1l0,-6.3c0,-0.6 0.5,-1.1 1.1,-1.1l0,0c0.6,0 1.1,0.5 1.1,1.1l0,6.3c0,0.6 -0.5,1.1 -1.1,1.1z" class="st16"/>
    </g>
   </g>
   <g id="WING_2_GREEN">
    <path id="svg_46" d="m368,266l8,17.4l-14.1,-8.6c0,0 0.5,-10 6.1,-8.8z" class="st17"/>
   </g>
   <g id="WING_1_GREEN">
    <path id="svg_47" d="m327.7,260.7l-10.3,16.1l15.1,-6.6c0,0.1 1,-9.9 -4.8,-9.5z" class="st17"/>
   </g>
   <g id="BODY_GREEN">
    <ellipse id="svg_48" ry="19.6" rx="23.4" cy="274.8" cx="346.7" class="st17"/>
    <ellipse id="svg_49" ry="19" rx="22.1" cy="273.6" cx="346.9" class="st18"/>
    <path id="svg_50" d="m350.8,164.6c-2.2,-3.9 -9.1,-13.3 -27.4,-18.5c0,0 13.1,10.2 17.3,18.7c-0.3,0 -0.6,0.1 -0.9,0.1c-3.1,-4.8 -9.9,-12.2 -24.2,-17.4c0,0 11.4,10.3 15.4,18.9c-25.5,6 -40.9,26.6 -40.5,50.6c0.5,26.7 28.3,51.8 63.2,51.8c34.9,0 62.1,-15.5 63,-44.1c1.1,-34.9 -32.3,-58.4 -65.9,-60.1z" class="st18"/>
    <ellipse id="svg_51" ry="21.4" rx="20.9" cy="221.6" cx="380.3" class="st17"/>
    <ellipse id="svg_52" ry="20.9" rx="20.4" cy="223.1" cx="378.2" class="st9"/>
    <ellipse id="svg_53" ry="28.5" rx="28.2" cy="209.8" cx="331.1" class="st17"/>
    <ellipse id="svg_54" ry="27.2" rx="26.3" cy="212.5" cx="332.5" class="st9"/>
   </g>
   <g id="GREEN_PICO">
    <path id="svg_55" d="m341.6,245.9l12.6,19l10.8,-15.4c0,0 -7.2,-4.3 -9.8,-9.2c0,0 -8.7,5.9 -13.6,5.6z" class="st16"/>
    <path id="svg_56" d="m345.3,251.5l9,-2.7l7.5,5.3l3.2,-4.5c0,0 -8.1,-5.4 -9.8,-9.2c0,0 -8.3,5.7 -13.6,5.7l3.7,5.4z" class="st19"/>
   </g>
   <g id="LEG_2_YELLOW">
    <g id="svg_57">
     <path id="svg_58" d="m595.3,313.9l0,0c-0.6,0 -1.1,-0.5 -1.1,-1.1l0,-6.3c0,-0.6 0.5,-1.1 1.1,-1.1l0,0c0.6,0 1.1,0.5 1.1,1.1l0,6.3c0.1,0.6 -0.5,1.1 -1.1,1.1z" class="st20"/>
     <path id="svg_59" d="m592.7,313.9l0,0c-0.6,0 -1.1,-0.5 -1.1,-1.1l0,-6.3c0,-0.6 0.5,-1.1 1.1,-1.1l0,0c0.6,0 1.1,0.5 1.1,1.1l0,6.3c0.1,0.5 -0.5,1.1 -1.1,1.1z" class="st20"/>
    </g>
   </g>
   <g id="LEG_1_YELLOW">
    <g id="svg_60">
     <path id="svg_61" d="m574.7,312.4l0,0c-0.6,-0.1 -1,-0.7 -0.9,-1.3l1.1,-6.2c0.1,-0.6 0.7,-1 1.3,-0.9l0,0c0.6,0.1 1,0.7 0.9,1.3l-1.1,6.2c-0.1,0.6 -0.7,1 -1.3,0.9z" class="st20"/>
     <path id="svg_62" d="m572.2,311.9l0,0c-0.6,-0.1 -1,-0.7 -0.9,-1.3l1.1,-6.2c0.1,-0.6 0.7,-1 1.3,-0.9l0,0c0.6,0.1 1,0.7 0.9,1.3l-1.1,6.2c-0.1,0.6 -0.7,1 -1.3,0.9z" class="st20"/>
    </g>
   </g>
   <g id="EYES_GREEN">
    <path id="svg_63" d="m384,227.4c1.8,1.8 4.6,2 6.3,0.3c1.6,-1.6 1.5,-4.5 -0.3,-6.3c-0.7,-0.7 -1.7,-1.2 -2.6,-1.4c2.1,-0.2 4.4,0.6 6,2.2c3,3 3,7.8 0,10.8c-3,3 -7.8,3 -10.8,0c-3,-3 -3,-7.8 0,-10.8c0.2,-0.2 0.5,-0.4 0.7,-0.6c-1.2,1.7 -0.9,4.1 0.7,5.8z"/>
    <path id="svg_64" d="m337.4,222.5c2.4,2.1 5.8,2 7.6,-0.1c1.9,-2.1 1.4,-5.5 -0.9,-7.6c-1,-0.8 -2.1,-1.3 -3.3,-1.5c2.6,-0.4 5.3,0.3 7.5,2.2c3.9,3.4 4.3,9.3 0.9,13.1c-3.4,3.9 -9.3,4.3 -13.1,0.9c-3.9,-3.4 -4.3,-9.3 -0.9,-13.1c0.3,-0.3 0.5,-0.6 0.8,-0.8c-1.2,2.1 -0.7,5 1.4,6.9z"/>
   </g>
   <g id="EYEBROWS_GREEN">
    <g id="svg_65">
     <path id="svg_66" d="m327.3,175.2c1.8,-0.1 3.7,-0.1 5.6,0.1c1.8,0.1 3.7,0.4 5.5,0.7c3.7,0.7 7.3,1.8 10.7,3.4c3.4,1.6 6.6,3.7 9.3,6.5c2.7,2.7 4.8,6 6.1,9.6l-1.3,-0.5c2.3,-1 4.7,-1.8 7.1,-2.4c2.4,-0.6 4.9,-1 7.4,-1c2.5,-0.1 5,0.2 7.4,1c1.2,0.4 2.3,0.9 3.4,1.6c1,0.7 2,1.5 2.8,2.4c-0.9,-0.8 -1.9,-1.5 -3,-2c-1.1,-0.5 -2.2,-0.9 -3.4,-1.2c-2.3,-0.5 -4.7,-0.6 -7.1,-0.4c-2.4,0.2 -4.7,0.7 -7.1,1.3c-2.3,0.6 -4.6,1.5 -6.7,2.5l-0.9,0.4l-0.4,-1c-1.3,-3.3 -3.3,-6.4 -5.7,-8.9c-2.5,-2.6 -5.4,-4.6 -8.6,-6.3c-3.2,-1.6 -6.6,-2.9 -10.2,-3.8c-3.6,-1.1 -7.2,-1.7 -10.9,-2z" class="st21"/>
    </g>
   </g>
  </g>
 </g>
</svg>