<svg width="800" height="450" xmlns="http://www.w3.org/2000/svg">
 <g>
  <title>background</title>
  <rect fill="#fff" id="canvas_background" height="502" width="890.88889" y="-1" x="-1"/>
 </g>

 <style>#ar2 { animation: j 10s ease-in-out forwards;
    animation-direction: initial;
    transform-origin: 0% 100%;
    transform-box: fill-box;}
@keyframes j  {
  0%{transform:scale(0);}
  5%{transform:scale(1.2);}
  7%{transform:scale(.9);}
  8%{transform:scale(1);}
}
#ar1  { animation: a1 10s ease-in-out forwards;
    animation-direction: initial;
    transform-origin: 0% 100%;
    transform-box: fill-box;}
@keyframes a1  {
  0%{transform:scale(0);}
   9%{transform:scale(0);}
  12%{transform:scale(1.2);}
  14%{transform:scale(.9);}
  16%{transform:scale(1);}
}
#ar3 { animation: a3 10s ease-in-out forwards;
    animation-direction: initial;
    transform-origin: 0% 100%;
    transform-box: fill-box;}
@keyframes a3  {
  0%{transform:scale(0);}
   14%{transform:scale(0);}
  17%{transform:scale(1.2);}
  19%{transform:scale(.9);}
  21%{transform:scale(1);}
}
#man { animation: m 10s ease-in-out forwards;
    animation-direction: initial;
    transform-origin: 0% 100%;
    transform-box: fill-box;}
@keyframes m  {
  0%{transform:translate(-550px,450px);}
  2%{transform:translate(-550px,450px);}
  10%{transform:translate(0px,0px);}
  }
#h2 { animation: arm1 5s linear forwards;

    transform-origin:90% 10%;
    transform-box: fill-box;}

  @keyframes arm1{
  0%{transform:rotateZ(20deg);}
   20%{transform:rotateZ(20deg);}
  60%{transform: rotateZ(0deg);}

  }
  #q  { animation: q 10s ease-in-out forwards;
    animation-direction: initial;
    transform-origin: 0% 100%;
    transform-box: fill-box;}
@keyframes q  {
  0%{transform:scale(0);}
   22%{transform:scale(0);}
  23%{transform:scale(1.2);}
  24%{transform:scale(.9);}
  25%{transform:scale(1);}
}
#h1 { animation: aar1 1s linear alternate infinite;

    transform-origin:20% 90%;
    transform-box: fill-box;}

  @keyframes aar1 {
  0%{transform:rotateZ(-35deg);}
   
  100%{transform: rotateZ(-45deg);}

  }</style>
 <title>MAN PROBLEM CONFUSING</title>
 <g>
  <title>Layer 1</title>
  <rect width="800" height="450" fill="#8a6153" id="svg_1" y="0" x="1.11111"/>
  <g id="ar3">
   <path d="m785.56,253.82a3.34,3.34 0 0 1 -0.21,1.1l-13,35.25a3.3,3.3 0 0 1 -3.72,2.11l-25.63,-4.85c-25.53,14.33 -44,24.26 -61,31.26c-33.73,13.89 -61.61,16.19 -127.52,18.28c-29.75,0.94 -57.93,4 -88.71,13.11c-50.85,15.06 -98.75,38.8 -98.75,38.8s-38.8,22.12 -82.63,36.12c-30,9.56 -72.72,17.88 -97.94,4c-7.72,-4.24 -11.85,-8.39 -13.52,-12.33c-2.58,6.23 -0.18,13.5 13.53,21c25.21,13.85 67.91,5.51 97.93,-4c43.84,-14 82.69,-36.08 82.69,-36.08s47.91,-23.73 98.76,-38.79c30.77,-9.12 59,-12.17 88.71,-13.11c90,-2.84 109.1,-6.1 168.91,-38.69c6.06,-3.29 12.55,-6.87 19.57,-10.79l24.8,4.13a4.3,4.3 0 0 0 4.84,-2.76l11.79,-32.5a18.7,18.7 0 0 0 1.1,-6.28l0,-5l0,0.02z" fill="#db7a5a" id="svg_2"/>
   <path d="m663.41,272.38a3.2,3.2 0 0 1 -2.69,-3.19l0,0l0,7.81a3.33,3.33 0 0 0 2,3c7.39,-1.69 13,-3.37 16.71,-4.62l-16.02,-3z" fill="#db7a5a" id="svg_3"/>
   <path d="m186.45,429c25.22,13.84 67.92,5.52 97.94,-4c43.83,-14 82.7,-36.07 82.7,-36.07s47.9,-23.74 98.75,-38.8c30.78,-9.12 59,-12.17 88.71,-13.11c65.91,-2.09 93.79,-4.39 127.52,-18.28l-0.38,-2.55l-2.57,-7.19l-5.12,-1.86l-8.27,-2.94l5,-9.19l-5.51,-8.65l-10.7,-4.63a291.57,291.57 0 0 1 -40.39,4.63c-46.07,2.21 -94.55,0.86 -129.1,4.54s-67.15,14.46 -82.34,21.32s-204.36,76.66 -204.36,76.66s-32,12.16 -25.33,27.78c1.67,3.94 5.8,8.09 13.52,12.33" fill="#ffa98c" id="svg_4"/>
   <path d="m670.66,295l-5,9.19l8.27,2.94l5.15,1.83l2.57,7.17l0.38,2.55c17,-7 35.43,-16.93 61,-31.26l25.64,4.85a3.3,3.3 0 0 0 3.72,-2.11l13,-35.25a3.29,3.29 0 0 0 -3.53,-4.42l-118.26,15.36a3.31,3.31 0 0 0 -0.19,6.53l16,3c-3.72,1.25 -9.32,2.93 -16.71,4.62c-2.54,0.57 -5.28,1.15 -8.24,1.71l10.7,4.63l5.5,8.66z" fill="#ffb69e" id="svg_5"/>
  </g>
  <g id="ar1">
   <path d="m383.75,154.81l-11.7,31.59a3.3,3.3 0 0 1 -3.72,2.1l-28.13,-5.31c-6,3.43 -21,12.55 -32.23,23.27c-7.78,7.42 -13.75,15.59 -13.67,23.18c0.25,21.55 -3.53,39.28 -16.47,54s-35.89,33.12 -50.19,40.61c-91.26,47.78 -182,75 -182,75s-42,6.86 -45.38,-31.44a25.89,25.89 0 0 0 -0.26,3.19c0.09,43.77 45.58,36.33 45.58,36.33s90.42,-27.12 181.53,-74.74l0.53,-0.16l0.64,-0.45c13.27,-7.12 33.49,-23.14 46.53,-37q1.67,-1.67 3,-3.2c12.55,-14.25 16.47,-31.34 16.48,-52c0,-0.66 0,-1.33 0,-2c-0.18,-18.55 35.83,-40.62 45.9,-46.43l28.13,5.32a3.31,3.31 0 0 0 3.72,-2.1l11.19,-30.49a11.4,11.4 0 0 0 0.69,-3.92l0,-6.16l0,0a3.84,3.84 0 0 1 -0.18,0.8" fill="#db7a5a" id="svg_6"/>
   <path d="m273.94,170.66a3.21,3.21 0 0 1 -2.69,-3.13l0,0l0,8.54a2.8,2.8 0 0 0 2.3,2.75l0.25,0.05c7.08,-2.76 12.85,-4.54 15.48,-5.31l-15.34,-2.9z" fill="#db7a5a" id="svg_7"/>
   <path d="m45.59,399.22s90.79,-27.21 182,-75c14.3,-7.49 37.25,-25.91 50.19,-40.61s16.72,-32.43 16.47,-54c-0.08,-7.59 5.89,-15.76 13.67,-23.18c-3,-1.61 -5.63,-3 -5.63,-3l-5.87,-4.41l-4.05,-2.21l-6.92,-1.29l-5.27,1.72l-4.54,-1.9l-15.8,-3.49l-9.17,0s-0.17,-0.7 -0.45,-1.78c-11.77,7 -22.35,16.06 -25.63,27.09c-7.93,26.69 -4.6,34.48 -58.55,63.4c-29.33,15.71 -142.5,49.48 -142.5,49.48s-23.54,13.37 -23.54,32.84c0,1.71 0.08,3.34 0.21,4.9c3.36,38.3 45.38,31.44 45.38,31.44" fill="#ffa98c" id="svg_8"/>
   <path d="m259.89,191.9l15.8,3.49l4.54,1.9l5.27,-1.72l6.92,1.29l4,2.21l5.88,4.41s2.67,1.37 5.63,3c11.25,-10.72 26.27,-19.84 32.23,-23.27l28.13,5.31a3.3,3.3 0 0 0 3.72,-2.1l11.7,-31.59a3.84,3.84 0 0 0 0.18,-0.8a3.3,3.3 0 0 0 -3.71,-3.63l-106.05,13.73a3.31,3.31 0 0 0 -0.19,6.53l15.34,2.9c-2.63,0.77 -8.4,2.55 -15.48,5.31a161.85,161.85 0 0 0 -23.53,11.25c0.28,1.08 0.45,1.78 0.45,1.78l9.17,0z" fill="#ffb69e" id="svg_9"/>
  </g>
  <g id="ar2">
   <path d="m472.71,198.06a3.22,3.22 0 0 1 -2.72,-3.25l0,0l0,7.74a3.25,3.25 0 0 0 2.52,3.17l3.5,0.82l18.28,-4.54l-21.58,-3.94z" fill="#db7a5a" id="svg_10"/>
   <path d="m591.54,217.25a3.31,3.31 0 0 1 -3.57,1.83l-37.79,-6.89c-8.08,2.92 -28,10 -43.9,14.88c-10.47,3.19 -22.21,6.7 -32.4,10.76c-15.39,6.17 -27.25,13.48 -25.88,22.69c0.17,1.19 0.33,2.38 0.45,3.56c2.07,-6 9.77,-11.14 19.77,-15.64c11.33,-5.09 25.62,-9.37 38.1,-13.18c7.73,-2.35 16.17,-5.3 23.84,-8c6.6,-2.26 12.6,-4.39 16.92,-5.94c1.15,-0.38 2.21,-0.72 3.16,-1l37.95,7a3.07,3.07 0 0 0 3.33,-1.7l15,-31.58a12.53,12.53 0 0 0 1.21,-5.39l0,-5.31a3.09,3.09 0 0 1 -0.27,0.81l-15.92,33.1z" fill="#db7a5a" id="svg_11"/>
   <path d="m404.8,311.26c-44.71,19.4 -199.75,77.62 -199.75,77.62s-131.89,63.27 -175.64,43.42c-11.63,-5.3 -16.74,-11.3 -18.22,-17.25c-1.85,8.09 1.22,17.5 18.22,25.21c43.74,19.85 175.64,-43.42 175.64,-43.42s8.1,-3 21.12,-8l0.61,0c42,-15.88 133.72,-50.73 172.29,-67c0.34,-0.15 0.65,-0.28 1,-0.41l3.67,-1.58l1.07,-0.46l0.87,-0.38c36,-15.78 43,-28.47 43,-41.64c0,-1.51 -0.06,-3 -0.2,-4.56c-1.39,12 -10.31,23.9 -43.69,38.38" fill="#db7a5a" id="svg_12"/>
   <path d="m473.88,237.83l-1.16,-4.4l-1.59,-4l-3,-11.49s-3.08,-3.63 -6.69,-7.82c-64.93,16.23 -107.81,27.44 -113.09,34.29c-4.92,6.36 -3.88,13.09 -4,18.07c-0.26,12.44 -7.24,17.4 -21.57,24.76s-299.19,101.64 -299.19,101.64s-15.78,12.62 -12.4,26.17c1.48,5.9 6.59,12 18.22,17.25c43.75,19.85 175.64,-43.42 175.64,-43.42s155,-58.22 199.75,-77.62c33.38,-14.48 42.3,-26.37 43.69,-38.38a40.5,40.5 0 0 0 -0.09,-8.8c-0.12,-1.18 -0.28,-2.37 -0.45,-3.56c-1.32,-9.21 10.54,-16.56 25.93,-22.69" fill="#ffa98c" id="svg_13"/>
   <path d="m604.13,179.41l-131.13,12.1a3.31,3.31 0 0 0 -0.28,6.55l21.57,3.94l-18.29,4.54l-14.58,3.63c3.61,4.19 6.69,7.82 6.69,7.82l3,11.49l1.59,4l1.16,4.4c10.19,-4.06 21.93,-7.57 32.4,-10.76c15.93,-4.86 35.82,-12 43.9,-14.88l37.84,6.84a3.31,3.31 0 0 0 3.57,-1.83l15.87,-33.12a3.09,3.09 0 0 0 0.27,-0.81a3.3,3.3 0 0 0 -3.55,-3.91" fill="#ffb69e" id="svg_14"/>
  </g>
  <rect y="362.88" width="800" height="87.12" fill="#8a6153" id="svg_15"/>
  <g id="q">
   <path d="m327.55,48.23l0,-2.23a11.89,11.89 0 0 1 0.32,-2.85a9.85,9.85 0 0 1 1,-2.43a11.49,11.49 0 0 1 1.71,-2.24a23.38,23.38 0 0 1 2.52,-2.26c0.86,-0.68 1.59,-1.28 2.18,-1.82a9.42,9.42 0 0 0 1.45,-1.58a5.72,5.72 0 0 0 0.8,-1.65a7.46,7.46 0 0 0 0.24,-2a3.84,3.84 0 0 0 -1.18,-2.89a5.05,5.05 0 0 0 -3.59,-1.18a13.25,13.25 0 0 0 -4.56,0.9a49.49,49.49 0 0 0 -5.06,2.18l-3.14,-6.8a29.72,29.72 0 0 1 2.88,-1.46a31.75,31.75 0 0 1 3.23,-1.23a25,25 0 0 1 3.39,-0.84a18.83,18.83 0 0 1 3.39,-0.31a19.89,19.89 0 0 1 5.66,0.75a12.24,12.24 0 0 1 4.27,2.2a9.63,9.63 0 0 1 2.65,3.51a11.14,11.14 0 0 1 0.94,4.7a12.6,12.6 0 0 1 -0.43,3.46a10.21,10.21 0 0 1 -1.28,2.84a13.91,13.91 0 0 1 -2.12,2.52c-0.85,0.81 -1.84,1.67 -3,2.57q-1.29,1 -2.1,1.77a8.42,8.42 0 0 0 -1.28,1.43a4.07,4.07 0 0 0 -0.63,1.4a7.72,7.72 0 0 0 -0.17,1.71l0,1.84l-8.09,-0.01zm7.09,10.53a6.29,6.29 0 0 1 0.41,-2.44a4.14,4.14 0 0 1 1.15,-1.62a4.64,4.64 0 0 1 1.74,-0.89a7.79,7.79 0 0 1 2.14,-0.28a7.25,7.25 0 0 1 2,0.28a4.54,4.54 0 0 1 1.7,0.89a4.29,4.29 0 0 1 1.17,1.62a6.09,6.09 0 0 1 0.43,2.44a5.87,5.87 0 0 1 -0.43,2.37a4.58,4.58 0 0 1 -1.17,1.63a4.64,4.64 0 0 1 -1.7,0.94a7.25,7.25 0 0 1 -2,0.29a7.79,7.79 0 0 1 -2.14,-0.29a4.73,4.73 0 0 1 -1.74,-0.94a4.42,4.42 0 0 1 -9.2,-1.64a6.06,6.06 0 0 1 -0.46,-2.37l8.1,0.01z" fill="#fff" id="svg_16"/>
  </g>
  <g id="man">
   <g id="svg_17">
    <g id="h2">
     <path d="m220.14,171.44a10.23,10.23 0 0 1 1.51,3a3.7,3.7 0 0 1 0.09,2.06a8.4,8.4 0 0 1 -4.27,5.14c-1.9,0.8 -3.47,-0.43 -4.58,-3s0.42,-15.79 0.42,-15.79l8,-3.31l-1.69,11.42a2.19,2.19 0 0 1 0.55,0.54" fill="#d65d24" id="svg_18"/>
     <path d="m212.15,158.32s-0.06,2 0,4s0.12,4.14 0.45,4.58c0.46,0.63 5.28,0.47 8.43,0.06c0.45,-3 0.87,-5.64 1.23,-8c-2.76,-1.16 -7.26,-2.52 -10.07,-0.65" fill="#d9c6ba" id="svg_19"/>
     <path d="m208.74,186.37s3.07,-9.81 7.9,-12s9.36,3.67 9.6,8.82l-2.45,0.37s-1,-7.23 -4.78,-7.11s-7.23,9.93 -7.23,9.93l-3.04,-0.01z" fill="#3b1c3b" id="svg_20"/>
     <path d="m239.64,188.43l-1.51,29.57a2.27,2.27 0 0 1 -1.6,2.05c-6.62,2.07 -32.91,10.23 -38.35,11.57l-1.12,0.26a6.24,6.24 0 0 1 -1,0.16c-3,0.17 -7.7,-0.64 -8.21,-3.35s3.06,-35.32 3.87,-38.5c0.56,-2.2 2.54,-2.42 4.86,-2.88c1.67,-0.34 23.7,-3.71 35.75,-5.55a6.38,6.38 0 0 1 7.34,6.64" fill="#3b1c3b" id="svg_21"/>
     <path d="m201.84,195.42c-0.58,9.69 -2.18,24.67 -3.66,36.23l-1.12,0.26c1.49,-11.67 3.08,-26.72 3.69,-36.52c0,-0.71 1.14,-0.68 1.09,0" fill="#766678" id="svg_22"/>
     <path d="m193.57,188.58c-0.69,0.11 -0.62,1.21 0.08,1.1a5.92,5.92 0 0 1 7.06,5.73c0,0.71 1.13,0.62 1.1,-0.08a7,7 0 0 0 -8.24,-6.75" fill="#766678" id="svg_23"/>
     <path d="m237.73,189.31c-0.58,9.69 -1.48,19.75 -3,31.32c-0.4,0.12 -0.78,0.26 -1.11,0.35c1.48,-11.67 2.37,-21.9 3,-31.71c0,-0.7 1.14,-0.67 1.09,0" fill="#766678" id="svg_24"/>
     <path d="m229.46,182.47c-0.7,0.11 -0.62,1.21 0.08,1.1a5.93,5.93 0 0 1 7.06,5.73c0,0.71 1.12,0.62 1.1,-0.09a7,7 0 0 0 -8.24,-6.74" fill="#766678" id="svg_25"/>
     <path d="m208.14,187.25l-2.64,-1.11a0.55,0.55 0 0 0 -0.42,1l2.63,1.1a0.55,0.55 0 0 0 0.43,-1" fill="#766678" id="svg_26"/>
     <path d="m211.06,186.68l-2.63,-1.1a0.55,0.55 0 0 0 -0.43,1l2.63,1.1a0.55,0.55 0 0 0 0.43,-1" fill="#766678" id="svg_27"/>
     <path d="m226.31,185l-2.63,-1.1a0.55,0.55 0 0 0 -0.43,1l2.63,1.1a0.55,0.55 0 0 0 0.43,-1" fill="#766678" id="svg_28"/>
     <path d="m229.23,184.45l-2.63,-1.1a0.55,0.55 0 0 0 -0.43,1l2.64,1.1a0.55,0.55 0 0 0 0.42,-1" fill="#766678" id="svg_29"/>
     <path d="m227.4,127c-5.42,7.51 -17.31,34.4 -16.79,34.91a1.68,1.68 0 0 0 0.72,0.18l1,0.09c3.46,0.23 10.86,0.19 11.13,-0.11s3.95,-8.34 5.81,-12.45c0.56,-1.23 3,-6.32 3.07,-6.56c0,0 27.61,-15.93 31.23,-18.68c8.72,-6.62 7.13,-14.71 3.89,-19.22c-9.22,-12.85 -33.22,12.33 -40.09,21.84" fill="#3f5f8f" id="svg_30"/>
     <path d="m221.49,149.31c-0.6,3 -1.46,7.89 -2,11.19c-0.43,-0.07 -0.8,-0.15 -1.09,-0.22c0.54,-3.3 1.39,-8.17 2,-11.09c0.14,-0.7 1.24,-0.58 1.09,0.12" fill="#3b1c3b" id="svg_31"/>
     <path d="m221.84,156a1.82,1.82 0 0 0 -0.54,2.11a1.41,1.41 0 0 0 1.83,0.47a1.54,1.54 0 0 0 0.82,-0.77a1.72,1.72 0 0 0 -0.18,-1.67a1.31,1.31 0 0 0 -1.93,-0.14m1.12,1a0.56,0.56 0 0 1 -0.18,0.56a0.34,0.34 0 0 1 -0.41,0c-0.2,-0.18 -0.08,-0.54 0.06,-0.71s0.46,-0.21 0.53,0.1" fill="#3b1c3b" id="svg_32"/>
     <path d="m222.68,151.8a1.82,1.82 0 0 0 -0.54,2.11a1.41,1.41 0 0 0 1.83,0.47a1.54,1.54 0 0 0 0.82,-0.77a1.72,1.72 0 0 0 -0.18,-1.67a1.31,1.31 0 0 0 -1.93,-0.14m1.12,1a0.56,0.56 0 0 1 -0.18,0.56a0.34,0.34 0 0 1 -0.41,0c-0.2,-0.18 -0.08,-0.54 0.06,-0.71s0.46,-0.21 0.53,0.1" fill="#3b1c3b" id="svg_33"/>
    </g>
    <path d="m234.76,312.42l-5.27,22.85s-0.72,2.49 -8.84,-0.32l4,-22.54l10.11,0.01z" fill="#d65d24" id="svg_34"/>
    <path d="m220.65,334.9s-2,7.46 -1.59,10a2.86,2.86 0 0 0 2.9,2.55a25.94,25.94 0 0 0 7.69,-0.83c7.54,-2 14,-3.83 18.12,-6.16c1.5,-0.86 -0.27,-3.09 -3.4,-3c-5.53,0.1 -13.23,1.05 -14.06,-0.41a8.77,8.77 0 0 1 -0.48,-3.23a35.76,35.76 0 0 1 -4.07,0.95a21.46,21.46 0 0 1 -5.11,0.2" fill="#3b1c3b" id="svg_35"/>
    <path d="m291,313.88l1.13,23.23s0,3.67 -8.63,1.95l-2.29,-22.61l9.79,-2.57z" fill="#d65d24" id="svg_36"/>
    <path d="m283.51,339.06s0.16,7 0.59,9.48a3.34,3.34 0 0 0 3.14,2.81a18.55,18.55 0 0 0 6.8,-0.94c7.46,-2.21 13.58,-4.05 17.66,-6.39c1.5,-0.86 0.37,-2.87 -2.75,-2.81c-5.54,0.11 -14.25,0.85 -15.9,-1.83a9.9,9.9 0 0 1 -0.91,-2.27s-0.95,1.22 -3.64,1.58a42.37,42.37 0 0 1 -5,0.37" fill="#3b1c3b" id="svg_37"/>
    <path d="m287.44,189.91c0,-0.37 0,-0.72 -0.08,-1.09l0,0c4.31,-0.74 7.23,-1.46 7.44,-1.84c0.44,-0.78 -2.49,-53.94 -2.76,-61.35c0,-0.63 0,-1 0,-1.13s0.92,-22 -7.07,-25.33a19.45,19.45 0 0 0 -7.1,-1a6.64,6.64 0 0 0 -0.6,-0.58c-1.72,-1.42 -4.4,-2.21 -7.64,-2.43a18.47,18.47 0 0 0 -12.32,3.84a9.42,9.42 0 0 0 -1.72,3c0,0.12 -0.09,0.23 -0.13,0.34c-6.69,2.4 -8.54,5.63 -11.45,9.66c-3.9,5.41 -9,82.61 -9.47,85.57c-6,39.28 -18.47,125.9 -17.33,127.61c1.46,2.21 14.88,1.1 17,-0.73c0.5,-0.44 20.1,-67.73 24.16,-81.7l0,0l-6.41,-33c-0.14,-0.69 0.92,-1 1.07,-0.29q3,15.5 6,31c0,-0.14 0.05,-0.21 0.05,-0.21s16.35,91 17.28,93.05s20.4,-0.73 20.4,-3.86c0,-2.49 -6.64,-99.93 -9.35,-139.52" fill="#3f5f8f" id="svg_38"/>
    <path d="m251.9,209.54l6.42,33l0,0c0.34,-1.17 0.57,-2 0.68,-2.31l0,0q-3,-15.48 -6,-31c-0.15,-0.7 -1.2,-0.41 -1.07,0.29" fill="#3b1c3b" id="svg_39"/>
    <path d="m286.27,184.14a125,125 0 0 1 -25,1.8a0.55,0.55 0 0 1 0,-1.1a125.26,125.26 0 0 0 24.86,-1.79c0,0.37 0.06,0.72 0.08,1.09" fill="#3b1c3b" id="svg_40"/>
    <path d="m278.18,99.2a183.35,183.35 0 0 0 -23.09,4.8c0.13,-0.37 0.31,-0.82 0.51,-1.29a185.44,185.44 0 0 1 21.64,-4.48a5.41,5.41 0 0 1 0.94,1" fill="#3b1c3b" id="svg_41"/>
    <path d="m292,126.29l-7.13,-0.68c-0.71,-0.06 -0.71,-1.17 0,-1.1l7.1,0.67c0,0.1 0,0.48 0,1.11" fill="#3b1c3b" id="svg_42"/>
    <path d="m288.66,127l-6.07,1.14c-0.7,0.13 -0.4,1.19 0.3,1.06l6.11,-1.1c0.7,-0.13 0.39,-1.19 -0.3,-1.06" fill="#3b1c3b" id="svg_43"/>
    <path d="m278.55,101.47a9.49,9.49 0 0 0 -3.66,7.49c-7.11,0.18 -24.5,3.12 -31.39,4.76c-0.69,0.17 -0.4,1.23 0.29,1.07c6.8,-1.62 24.09,-4.55 31.07,-4.73a35.37,35.37 0 0 0 0.52,5.23c0.11,0.69 1.17,0.4 1.06,-0.3c-0.69,-4.34 -1.33,-9.55 2.67,-12.57c0.55,-0.42 0,-1.38 -0.56,-1" fill="#3b1c3b" id="svg_44"/>
    <path d="m276.88,159.46a75.3,75.3 0 0 1 -4.58,9.38a0.55,0.55 0 0 0 0.95,0.56a76.57,76.57 0 0 0 4.69,-9.64c0.26,-0.66 -0.8,-1 -1.06,-0.3" fill="#3b1c3b" id="svg_45"/>
    <path d="m284.05,145.85a79.38,79.38 0 0 1 -14.3,14.54c-0.56,0.44 0.22,1.22 0.78,0.78a80.94,80.94 0 0 0 14.47,-14.76c0.42,-0.57 -0.53,-1.12 -1,-0.56" fill="#3b1c3b" id="svg_46"/>
    <path d="m277.86,64.94c-3.23,-2.87 -10,-0.92 -14.07,2.52c-3.86,3.24 -4.68,6 -4.8,12.34a38.11,38.11 0 0 0 1.17,10l-1.4,10.38l15.5,-0.33l0.46,-6.14c2.17,-0.75 3.84,-1.6 4.25,-2.15c1.37,-1.82 2,-7.93 2.34,-12.16s-0.61,-11.94 -3.45,-14.47" fill="#d65d24" id="svg_47"/>
    <path d="m283.22,62.92c-0.07,-0.49 -0.19,-1.85 -0.37,-2.57a3.7,3.7 0 0 0 -4.23,-2.93c-2.5,0.26 -4.83,2.13 -6.67,3.86c-0.62,-1.72 -2.81,-1.89 -4.55,-1.16a14.71,14.71 0 0 0 -4.85,3a13,13 0 0 0 -4.49,6.74a33.12,33.12 0 0 0 -0.48,10.33c0.36,5.8 0.88,9.54 4.41,10.52c5.58,1.57 11.11,-1 13.09,-4.8c1.68,-3.19 3.3,-11.84 4.45,-13.43c0,0 4,-2.13 5.34,-3.89c1.53,-2 1.21,-6.43 -1.65,-5.7" fill="#3b1c3b" id="svg_48"/>
    <g id="h1">
     <path d="m307.69,67.9a6.59,6.59 0 0 1 2.95,-5.78c2,-1.16 3.88,0 5.49,2.66s1.87,17.41 1.87,17.41l-8.23,4.81l0.14,-12.8c-0.09,0 -2.13,-4.83 -2.22,-6.33" fill="#d65d24" id="svg_49"/>
     <path d="m319.81,81.34s0.05,-5.92 -0.68,-6.74s-10.07,1.64 -11,2.49s-0.1,6.57 -0.1,6.57s7.64,1.09 11.81,-2.32" fill="#d9c6ba" id="svg_50"/>
     <path d="m313.44,117.35c6.12,-6.94 7.24,-37.83 6.6,-38.17a1.55,1.55 0 0 0 -0.74,0c-0.27,0 -0.62,0.1 -1,0.19c-3.39,0.72 -10.49,2.79 -10.67,3.15s-1.52,9.1 -2.18,13.56c-0.21,1.34 -1.12,6.89 -1.17,7.15c0,0 -0.3,0.77 -0.72,0.84a31.28,31.28 0 0 1 -16.26,-1.85c-3.21,-1.8 -5.67,-1.42 -7.79,2.59c-2,3.84 -3.81,10.6 0.42,14.19c10.23,6.9 25.75,7.14 33.53,-1.68" fill="#3f5f8f" id="svg_51"/>
     <path d="m305.92,119.05c-1.15,-3.9 -2.42,-7.75 -3.84,-11.55c0,-0.28 0.05,-1.35 0.1,-2.86q2.69,6.9 4.76,14c0.2,0.68 -0.83,1.08 -1,0.4" fill="#3b1c3b" id="svg_52"/>
     <path d="m313,94.31c-0.23,-3 -0.75,-8 -1.14,-11.31l1.1,-0.09c0.39,3.34 0.91,8.25 1.13,11.22c0.06,0.71 -1,0.89 -1.09,0.18" fill="#3b1c3b" id="svg_53"/>
     <path d="m310.88,88a1.81,1.81 0 0 0 -0.06,-2.17a1.4,1.4 0 0 0 -1.89,0a1.49,1.49 0 0 0 -0.58,1a1.72,1.72 0 0 0 0.65,1.57a1.31,1.31 0 0 0 1.9,-0.39m-1.35,-0.65a0.59,0.59 0 0 1 0,-0.6a0.35,0.35 0 0 1 0.38,-0.15c0.24,0.12 0.22,0.5 0.13,0.7s-0.38,0.32 -0.53,0" fill="#3b1c3b" id="svg_54"/>
     <path d="m311.21,92.24a1.81,1.81 0 0 0 -0.06,-2.17a1.41,1.41 0 0 0 -1.89,0.05a1.52,1.52 0 0 0 -0.58,1a1.75,1.75 0 0 0 0.63,1.56a1.32,1.32 0 0 0 1.9,-0.4m-1.35,-0.65a0.59,0.59 0 0 1 0,-0.6a0.35,0.35 0 0 1 0.38,-0.15c0.24,0.12 0.22,0.5 0.13,0.7s-0.38,0.32 -0.53,0" fill="#3b1c3b" id="svg_55"/>
    </g>
   </g>
  </g>
 </g>
</svg>