<svg xmlns="http://www.w3.org/2000/svg" xmlns:xlink="http://www.w3.org/1999/xlink" id="Layer_1" data-name="Layer 1" viewBox="0 0 800 450"><g><title>background</title><rect fill="#fff" id="canvas_background" height="450" width="800" y="-1" x="-1"/></g>
     <style>
  #a
{
    animation-name: adiamondScale;
    animation-duration: 15s;
    animation-fill-mode: forwards;ransform-origin: bottom;
    transform-box: fill-box;
}
@keyframes adiamondScale {
    0%   { transform: scale(0); }
    
    
    3% { transform: scale(01); }
}
#b
{
    animation-name: b;
    animation-duration: 15s;
    animation-fill-mode: forwards;ransform-origin: bottom;
    transform-box: fill-box;
}
@keyframes b {
    0%   { transform: scale(0); }
    3%   { transform: scale(0); }
    
    4% { transform: scale(01); }
}
#c {
    
        animation-name: diamondStroke;
        animation-duration: 15s;
        animation-fill-mode: forwards;
        stroke-dasharray: 500;
            stroke-dashoffset: 500;
    }
    @keyframes diamondStroke {
        0%   { stroke-dashoffset: 500; }
        1%   { stroke-dashoffset: 500; }
        20% { stroke-dashoffset: 0; }
        100% { stroke-dashoffset: 0; }
        
}
#d
{
    animation-name: d;
    animation-duration: 15s;
    animation-fill-mode: forwards;
    ransform-origin: bottom;
    transform-box: fill-box;
}
@keyframes d {
    0%   { transform: scale(0); }
    4%   { transform: scale(0); }
    
    5% { transform: scale(01); }
}
#sig1
{
    animation-name: sig1;
    animation-duration: 15s;
   animation-iteration-count: infinite;
    ransform-origin: center;
    transform-box: fill-box;
}
@keyframes sig1 {
    0%   { transform: scale(0); }
    5.5%   { transform: scale(0); }
    
    5.7% { transform: scale(01); }
}
#e
{
    animation-name: e;
    animation-duration: 15s;
    animation-fill-mode: forwards;
    transform-origin: bottom;
    transform-box: fill-box;
}
@keyframes e {
    0%   { transform: scale(0); }
    8%   { transform: scale(0); }
    
    9% { transform: scale(01); }
}
#sig3
{
    animation-name: sig3;
    animation-duration: 15s;
   animation-iteration-count: infinite;
    transform-origin: center;
    transform-box: fill-box;
}
@keyframes sig3 {
    0%   { transform: scale(0); }
    9.5%   { transform: scale(0); }
    
    9.7% { transform: scale(01); }
}
#f{
    
    animation-name: f;
    animation-duration: 15s;
    animation-iteration-count: infinite;
    stroke-dasharray: 300;
        stroke-dashoffset: 300;
}
@keyframes f {
    0%   { stroke-dashoffset: 300; }
    5% { stroke-dashoffset: 300; }
    25% { stroke-dashoffset: 0; }
    100% { stroke-dashoffset: 0; }
    
}
#f2{
    
    animation-name: f2;
    animation-duration: 15s;
    animation-iteration-count: infinite;
    stroke-dasharray: 300;
        stroke-dashoffset: 300;
}
@keyframes f2 {
    0%   { stroke-dashoffset: 0; }
    5% { stroke-dashoffset: 0; }
    35% { stroke-dashoffset: 300; }
    100% { stroke-dashoffset: 300; }
    
}
#g
{
    animation-name: g;
    animation-duration: 15s;
    animation-fill-mode: forwards;
    transform-origin: bottom;
    transform-box: fill-box;
}
@keyframes g {
    0%   { transform: scale(0); }
    9%   { transform: scale(0); }
    
    11% { transform: scale(01); }
}
#h
{
    animation-name: h;
    animation-duration: 15s;
    animation-fill-mode: forwards;
    tanimation-fill-mode: forwards;rm-box: fill-box;
}
@keyframes h {
    0%   { transform: scale(0); }
    10%   { transform: scale(0); }
    
    11% { transform: scale(01); }
}
#sig2
{
    animation-name: sig2;
    animation-duration: 15s;
    animation-iteration-count: infinite;
    transform-origin: center;
    transform-box: fill-box;
}
@keyframes sig2 {
    0%   { transform: scale(0); }
    11.5%   { transform: scale(0); }
    
    11.7% { transform: scale(01); }
}
#i
{
    animation-name: i;
    animation-duration: 15s;
    animation-fill-mode: forwards;
    transform-origin: bottom;
    transform-box: fill-box;
}
@keyframes i {
    0%   { transform: scale(0); }
    14%   { transform: scale(0); }
    
    14.5% { transform: scale(01); }
}
#j{
    
    animation-name: j;
    animation-duration: 15s;
    animation-iteration-count: infinite;
    stroke-dasharray: 100;
        stroke-dashoffset: 100;
}
@keyframes j {
    0%   { stroke-dashoffset: 0; }
    10% { stroke-dashoffset: 0; }
    20% { stroke-dashoffset: 100; }
    100% { stroke-dashoffset: 100; }
    
}
#k
{
    animation-name: k;
    animation-duration: 15s;
    animation-fill-mode: forwards;
    transform-origin: bottom;
    transform-box: fill-box;
}
@keyframes k {
    0%   { transform: scale(0); }
    19%   { transform: scale(0); }
    
    19.5% { transform: scale(01); }
}
#l
{
    animation-name: ll;
    animation-duration: 15s;
    animation-fill-mode: forwards;
    transform-origin: center;
    transform-box: fill-box;
}
@keyframes ll {
    0%   { transform: scale(0); }
    19%   { transform: scale(0); }
    
    19.5% { transform: scale(01); }
}
#m
{
    animation-name: m;
    animation-duration: 15s;
    animation-fill-mode: forwards;
    transforn-origion:bottom;
  transform-box: fill-box;
}
@keyframes m {
    0%   { transform: scale(0); }
    20%   { transform: scale(0); }
    
    20.5% { transform: scale(01); }
}
#n
{
    animation-name: n;
    animation-duration: 15s;
    animation-fill-mode: forwards;
    transform-origin: center;
    transform-box: fill-box;
}
@keyframes n {
    0%   { transform: scale(0); }
    21%   { transform: scale(0); }
    
    21.5% { transform: scale(01); }
}
#o
{
    animation-name: o;
    animation-duration: 15s;
    animation-fill-mode: forwards;
    transform-origin: center;
    transform-box: fill-box;
}
@keyframes o {
    0%   { transform: scale(0); }
    22%   { transform: scale(0); }
    
    22.5% { transform: scale(01); }
}
#p
{
    animation-name: p;
    animation-duration: 15s;
    animation-fill-mode: forwards;
    transform-origin: center;
    transform-box: fill-box;
}
@keyframes p {
    0%   { transform: scale(0); }
    23%   { transform: scale(0); }
    
    23.5% { transform: scale(01); }
}
#q
{
    animation-name: q;
    animation-duration: 15s;
    animation-fill-mode: forwards;
    transform-origin: center;
    transform-box: fill-box;
}
@keyframes q {
    0%   { transform: scale(0); }
    24%   { transform: scale(0); }
    
    25.5% { transform: scale(01); }
}
#r
{
    animation-name: r;
    animation-duration: 15s;
    animation-fill-mode: forwards;
    transform-origin: bottom;
    transform-box: fill-box;
}
@keyframes r {
    0%   { transform: scale(0); }
    26%   { transform: scale(0); }
    
    27.5% { transform: scale(01); }
}
#s
{
    animation-name: s;
    animation-duration: 15s;
    animation-fill-mode: forwards;
    transform-origin: bottom;
    transform-box: fill-box;
}
@keyframes s {
    0%   { transform: scale(0); }
    27.5%   { transform: scale(0); }
    
    28.5% { transform: scale(01); }
}
#t
{
    animation-name: t;
    animation-duration: 15s;
    animation-fill-mode: forwards;
    transform-origin: bottom;
    transform-box: fill-box;
}
@keyframes t {
    0%   { transform: scale(0); }
    28.5%   { transform: scale(0); }
    
    29.5% { transform: scale(01); }
}
#vv
{
    animation-name: vv;
    animation-duration: 15s;
    animation-fill-mode: forwards;
    transform-origin: center;
    transform-box: fill-box;
}
@keyframes vv {
    0%   { transform: scale(0); }
    29.5%   { transform: scale(0); }
    
    30.5% { transform: scale(01); }
}
#vva
{
    animation-name: vva;
    animation-duration: 15s;
    animation-iteration-count: infinite;
    transform-origin: center;
    transform-box: fill-box;
}
@keyframes vva {
  0%{transform: translate(0px);}
  40%{transform: translate(0px);}
  41%{transform: translate(5px, 3px);}
  60%{transform: translate(5px, 3px);}
  61%{transform: translate(0px);}
  70%{transform: translate(0px);}
  71%{transform: translate(5px, 3px);}
  100%{transform: translate(5px, 3px);}
  
}
#vvb
{
    animation-name: vvb;
    animation-duration: 15s;
    animation-iteration-count: infinite;
    transform-origin: center;
    transform-box: fill-box;
}
@keyframes vvb {
  0%{transform: translate(0px);}
  40%{transform: translate(0px);}
  41%{transform: translate(-4px, -2.3px);}
  60%{transform: translate(-4px, -2.3px);}
  61%{transform: translate(0px);}
  70%{transform: translate(0px);}
  71%{transform: translate(-4px, -2.3px);}
  100%{transform: translate(-4px, -2.3px);}
  
}
#tt
{
    animation-name: tt;
    animation-duration: 15s;
    animation-fill-mode: forwards;
    transform-origin: bottom;
    transform-box: fill-box;
}
@keyframes tt {
    0%   { transform: scale(0); }
    27.3%   { transform: scale(0); }
    
    28% { transform: scale(01); }
}
#w
{
    animation-name: w;
    animation-duration: 15s;
    animation-fill-mode: forwards;
    transform-origin: bottom;
    transform-box: fill-box;
}
@keyframes w {
    0%   { transform: scale(0); }
    30.5%   { transform: scale(0); }
    
    31.5% { transform: scale(01); }
}

#thand
{
    animation-name: thand;
    animation-duration: 15s;
    animation-iteration-count: infinite;
   
    transform-origin: left center;
    transform-box: fill-box;
}
@keyframes thand {
    0%{transform: rotateZ(0deg);}
    11%{transform: rotateZ(0deg);}
    15%{transform: rotateZ(-45deg);}
    40%{transform: rotateZ(-45deg);}
    45%{transform: rotateZ(0deg);}
    55%{transform: rotateZ(0deg);}
    60%{transform: rotateZ(-45deg);}
    75%{transform: rotateZ(-45deg);}
    80%{transform: rotateZ(0deg);}
    85%{transform: rotateZ(0deg);}
    90%{transform: rotateZ(-45deg);}
    100%{transform: rotateZ(-45deg);}
}
#tarm
{
    animation-name: tarm;
    animation-duration: 1s;
    animation-iteration-count: infinite;
    animation-direction: alternate;
    transform-origin: bottom;
    transform-box: fill-box;
}
@keyframes tarm {
   
    100%{transform: rotateZ(6deg);}
}
#thead
{
    animation-name: thead;
    animation-duration: 15s;
    animation-iteration-count: infinite;
    
    transform-origin: bottom;
    transform-box: fill-box;
}
@keyframes thead {
    0%{transform: rotateZ(0deg);}
    11%{transform: rotateZ(0deg);}
    15%{transform: rotateZ(10deg);}
    50%{transform: rotateZ(10deg);}
    55%{transform: rotateZ(0deg);}
    75%{transform: rotateZ(0deg);}
    80%{transform: rotateZ(10deg);}
    100%{transform: rotateZ(10deg);}
}
#u{
    
    animation-name: u;
    animation-duration: 15s;
    animation-timing-function: linear;
    animation-iteration-count: infinite;
    stroke-dasharray: 500;
        stroke-dashoffset: 500;
}
@keyframes u {
    0%   { stroke-dashoffset: -500; }
    15% { stroke-dashoffset: -500; }
    45% { stroke-dashoffset: 0; }
    100% { stroke-dashoffset: 0; }
    
}
#x2
{
    animation: l2 18s 6s linear infinite;
    animation-direction: inherit;
    transform-origin: center;
}
@keyframes l2 {
    0%{transform: translateX(0px)}
   
    
    100%{transform: translateX(-1000px)}
}
#x1{
    animation: l1 18s  linear infinite;
    animation-direction: inherit;
    transform-origin: center;
}
@keyframes l1 {
    0%{transform: translateX(0px)}
    
    100%{transform: translateX(-1000px)}
}
#x3{
    animation: l3 15s 12s linear infinite;
    animation-direction: inherit;
    transform-origin: center;
}
@keyframes l3 {
    0%{transform: translateX(0px)}
    
    100%{transform: translateX(-1000px)}
}
#y
{
    animation-name: y;
    animation-duration: 15s;
    animation-fill-mode: forwards;
    transform-origin: bottom;
    transform-box: fill-box;
}
@keyframes y {
    0%   { transform: scale(0); }
    25.5%   { transform: scale(0); }
    
    26.5% { transform: scale(01); }
}
#c2
{
    animation-name: c2;
    animation-duration: 15s;
    animation-fill-mode: forwards;
    transform-origin: bottom;
    transform-box: fill-box;
}
@keyframes c2 {
    0%   { transform: scale(0); }
    21.5%   { transform: scale(0); }
    
    22.5% { transform: scale(01); }
}
#d2
{
    animation-name: d2;
    animation-duration: 15s;
    animation-fill-mode: forwards;
    transform-origin: bottom;
    transform-box: fill-box;
}
@keyframes d2 {
    0%   { transform: scale(0); }
    18.5%   { transform: scale(0); }
    
    19.5% { transform: scale(01); }
}
#e2
{
    animation-name: e2;
    animation-duration: 15s;
    animation-fill-mode: forwards;
    transform-origin: bottom;
    transform-box: fill-box;
}
@keyframes e2 {
    0%   { transform: scale(0); }
    16.5%   { transform: scale(0); }
    
    17.5% { transform: scale(01); }
}
#ya1
{
    animation-name: ya1;
    animation-duration: 15s;
    animation-iteration-count: infinite;
   
    transform-origin: top right;
    transform-box: fill-box;
}
@keyframes ya1 {
    0%{transform: rotateZ(-25deg);}
    35%{transform: rotateZ(-25deg);}
    39%{transform: rotateZ(0deg);}
    100%{transform: rotateZ(0deg);}
}
#yh2
{
    animation-name: yh2;
    animation-duration: 15s;
    animation-iteration-count: infinite;
    
    transform-origin: top right;
    transform-box: fill-box;
}
@keyframes yh2 
    {
        0%{transform: rotateZ(20deg);}
        15%{transform: rotateZ(20deg);}
        25%{transform: rotateZ(0deg);}
        35%{transform: rotateZ(0deg);}
        40%{transform: rotateZ(-20deg);}
        50%{transform: rotateZ(-20deg);}
        60%{transform: rotateZ(0deg);}
        70%{transform: rotateZ(0deg);}
        75%{transform: rotateZ(-20deg);}
        85%{transform: rotateZ(-20deg);}
        90%{transform: rotateZ(0deg);}
        100%{transform: rotateZ(0deg);}
       
}
#yh
{
    animation-name: yh;
    animation-duration: 15s;
    animation-iteration-count: infinite;
    animation-direction: alternate;
    transform-origin: bottom;
    transform-box: fill-box;
}
@keyframes yh 
    {
        0%{transform: rotateZ(0deg);}
        39%{transform: rotateZ(0deg);}
        43%{transform: rotateZ(-10deg);}
        60%{transform: rotateZ(-10deg);}
        65%{transform: rotateZ(0deg);}
        75%{transform: rotateZ(0deg);}
        80%{transform: rotateZ(-10deg);}
        100%{transform: rotateZ(-10deg);}
}
#zz
{
    animation-name: z;
    animation-duration: 15s;
    animation-fill-mode: forwards;
    transform-origin: bottom;
    transform-box: fill-box;
}
@keyframes z {
    0%   { transform: scale(0); }
    32.5%   { transform: scale(0); }
    
    33% { transform: scale(01); }
}
#a1{
    
    animation-name: a1;
    animation-duration: 15s;
    animation-timing-function: linear;
    animation-iteration-count: infinite;
    stroke-dasharray: 500;
        stroke-dashoffset: 500;
}
@keyframes a1 {
    0%   { stroke-dashoffset: -500; }
    10% { stroke-dashoffset: -500; }
    40% { stroke-dashoffset: 0; }
    100% { stroke-dashoffset: 0; }
    
}
#b1
{
    animation-name: b1;
    animation-duration: 15s;
    animation-fill-mode: forwards;
    tanimation-fill-mode: forwards;rm-box: fill-box;
}
@keyframes b1 {
    0%   { transform: scale(0); }
    40%   { transform: scale(0); }
    
    40.5% { transform: scale(01); }
}
#c1
{
    animation-name: c1;
    animation-duration: 15s;
    animation-fill-mode: forwards;
    transform-origin: bottom;
    transform-box: fill-box;
}
@keyframes c1 {
    0%   { transform: scale(0); }
    40.5%   { transform: scale(0); }
    
    41% { transform: scale(01); }
}
#d1
{
    
    animation-name: d1;
    animation-duration: 15s;
    animation-timing-function: linear;
    animation-iteration-count: infinite;
    stroke-dasharray: 500;
        stroke-dashoffset: 500;
}
@keyframes d1 {
    0%   { stroke-dashoffset: -500; }
    10% { stroke-dashoffset: -500; }
    45% { stroke-dashoffset: 0; }
    100% { stroke-dashoffset: 0; }
    
}
#e1
{
    
    animation-name: e1;
    animation-duration: 15s;
    animation-timing-function: linear;
    animation-iteration-count: infinite;
    stroke-dasharray: 500;
        stroke-dashoffset: 500;
}
@keyframes e1 {
    0%   { stroke-dashoffset: -500; }
    10% { stroke-dashoffset: -500; }
    45% { stroke-dashoffset: 0; }
    100% { stroke-dashoffset: 0; }
    
}
#f1
{
    animation-name: f1;
    animation-duration: 15s;
    animation-fill-mode: forwards;
    transform-origin: bottom;
    transform-box: fill-box;
}
@keyframes f1 {
    0%   { transform: scale(0); }
    34%   { transform: scale(0); }
    
    34.5% { transform: scale(01); }
}
#g1
{
    animation-name: g1;
    animation-duration: 15s;
    animation-fill-mode: forwards;
    transform-origin: bottom;
    transform-box: fill-box;
}
@keyframes g1 {
    0%   { transform: scale(0); }
    35%   { transform: scale(0); }
    
    35.5% { transform: scale(01); }
}
#h1
{
    animation-name: h1;
    animation-duration: 15s;
    animation-fill-mode: forwards;
    transform-origin: bottom;
    transform-box: fill-box;
}
@keyframes h1 {
    0%   { transform: scale(0); }
    36%   { transform: scale(0); }
    
    36.5% { transform: scale(01); }
}
#j1
{
    animation-name: j1;
    animation-duration: 15s;
    animation-fill-mode: forwards;
    transform-origin: bottom;
    transform-box: fill-box;
}
@keyframes j1 {
    0%   { transform: scale(0); }
    37%   { transform: scale(0); }
    
    37.5% { transform: scale(01); }
}
#k1
{
    animation-name: k1;
    animation-duration: 15s;
    animation-fill-mode: forwards;
    transform-origin: bottom;
    transform-box: fill-box;
}
@keyframes k1 {
    0%   { transform: scale(0); }
    38%   { transform: scale(0); }
    
    38.5% { transform: scale(01); }
}
#k1arm
{
    animation-name: k1arm;
    animation-duration: 15s;
    animation-iteration-count: infinite;
    
    transform-origin: left bottom;
    transform-box: fill-box;
}
@keyframes k1arm 
    {
        0%{transform: rotateZ(5deg);}
        39%{transform: rotateZ(5deg);}
        43%{transform: rotateZ(-15deg);}
        60%{transform: rotateZ(-15deg);}
        65%{transform: rotateZ(5deg);}
        75%{transform: rotateZ(5deg);}
        80%{transform: rotateZ(-15deg);}
        100%{transform: rotateZ(-15deg);}
}
#k1head
{
    animation-name: k1head;
    animation-duration: 15s;
    animation-iteration-count: infinite;
    animation-direction: alternate;
    transform-origin: bottom;
    transform-box: fill-box;
}
@keyframes k1head
    {
        0%{transform: rotateZ(5deg);}
        39%{transform: rotateZ(5deg);}
        43%{transform: rotateZ(-15deg);}
        60%{transform: rotateZ(-15deg);}
        65%{transform: rotateZ(5deg);}
        75%{transform: rotateZ(5deg);}
        80%{transform: rotateZ(-15deg);}
        100%{transform: rotateZ(-15deg);}
}
#v
{
    animation-name: v;
    animation-duration: 15s;
    animation-fill-mode: forwards;
    transform-origin: bottom;
    transform-box: fill-box;
}
@keyframes v {
    0%   { transform: scale(0); }
    45%   { transform: scale(0); }
    
    45.5% { transform: scale(01); }
}
#sig4
{
    animation-name: sig4;
    animation-duration: 15s;
    animation-fill-mode: forwards;
    transform-origin: center;
    transform-box: fill-box;
}
@keyframes sig4 {
    0%   { transform: scale(0); }
    46.5%  { transform: scale(0); }
    
    46.7% { transform: scale(01); }
}
#l1
{
    
    animation-name: l1;
    animation-duration: 15s;
    animation-timing-function: linear;
    animation-iteration-count: infinite;
    stroke-dasharray: 100;
        stroke-dashoffset: 100;
}
@keyframes l1 {
    0%   { stroke-dashoffset: 0; }
    35% { stroke-dashoffset: 0; }
    55% { stroke-dashoffset: 100; }
    100% { stroke-dashoffset: 100; }
    
}
#m1
{
    
    animation-name: m1;
    animation-duration: 15s;
    animation-timing-function: linear;
    animation-iteration-count: infinite;
    stroke-dasharray: 120;
        stroke-dashoffset: 120;
}
@keyframes m1 {
    0%   { stroke-dashoffset: 120; }
    44% { stroke-dashoffset: 120; }
    50% { stroke-dashoffset: 0; }
    100% { stroke-dashoffset: 0; }
    
}

#n1
{
    animation-name: n1;
    animation-duration: 15s;
    animation-fill-mode: forwards;
    transform-origin: bottom;
    transform-box: fill-box;
}
@keyframes n1 {
    0%   { transform: scale(0); }
    49%   { transform: scale(0); }
    
    51.5% { transform: scale(01); }
}
#o1
{
    animation-name: o1;
    animation-duration: 15s;
    animation-fill-mode: forwards;
    transform-origin: bottom;
    transform-box: fill-box;
}
@keyframes o1 {
    0%   { transform: scale(0); }
    52%   { transform: scale(0); }
    
    52.5% { transform: scale(01); }
}
#t1
{
    animation-name: t1;
    animation-duration: 15s;
    animation-fill-mode: forwards;
    transform-origin: bottom;
    transform-box: fill-box;
}
@keyframes t1 {
    0%   { transform: scale(0); }
    62%   { transform: scale(0); }
    
    63.5% { transform: scale(01); }
}
#o1arm2
{
    animation-name: o1arm2;
    animation-duration: 15s;
    animation-iteration-count: infinite;
    
    transform-origin: left top;
    transform-box: fill-box;
}
@keyframes o1arm2 {
    0%{transform: rotateZ(10deg);}
    60%{transform: rotateZ(10deg);}
    62%{transform: rotateZ(0deg);}
    100%{transform: rotateZ(0deg);}
}
#p1
{
    animation-name: p1;
    animation-duration: 15s;
    animation-fill-mode: forwards;
    transform-origin: bottom;
    transform-box: fill-box;
}
@keyframes p1 {
    0%   { transform: scale(0); }
    61%   { transform: scale(0); }
    
    62.5% { transform: scale(01); }
}
#o1arm1
{
    animation-name: o1arm1;
    animation-duration: 15s;
    animation-iteration-count: infinite;
    
    transform-origin: left top;
    transform-box: fill-box;
}
@keyframes o1arm1 {
    0%{transform: rotateZ(15deg);}
    65%{transform: rotateZ(15deg);}
    68%{transform: rotateZ(0deg);}
    100%{transform: rotateZ(0deg);}
}
#oo1
{
    animation-name: oo1;
    animation-duration: 15s;
    animation-fill-mode: forwards;
    transform-origin: top center;
    transform-box: fill-box;
}
@keyframes oo1 {
    0%   { transform: scale(0); }
    65%   { transform: scale(0); }
    
    66.5% { transform: scale(01); }
}
#q1
{
    animation-name: q1;
    animation-duration: 15s;
    animation-fill-mode: forwards;
    transform-origin: top center;
    transform-box: fill-box;
}
@keyframes q1 {
    0%   { transform: scale(0); }
    65%   { transform: scale(0); }
    
    66.5% { transform: scale(01); }
}

#map1 {
    animation: map1 10s  linear infinite;
   animation-direction: inherit;
  }
  @keyframes map1 {
    0%{ transform: translateX(0px)}
   
    100%{ transform: translateX(-200px)}
  }
  #map2 {
    animation: map2 10s 5s  linear infinite;
   animation-direction: inherit;
    
  }
  @keyframes map2 {
    0%{ transform: translateX(0px)}
   
    100%{ transform: translateX(-200px)}
  }



#wifi
{
    animation-name: a2;
    animation-duration:  15s;
    transform-orogion: bottom;
    
    transform-box: fill-box;
}
@keyframes a2 {
    0%   { transform: scale(0); }
    30%   { transform: scale(0); }
    
    31.5% { transform: scale(01); }
}

</style>
 
  
  
  <defs>
    <clipPath id="clip-path">
      <polyline points="129.85 129.07 180.42 160.71 180.32 200.68 129.73 169.03 129.85 129.07" fill="none"/>
    </clipPath>
    <clipPath id="clip-path-2">
      <polygon points="189.62 148.2 189.38 243.69 259.32 284.06 259.57 188.59 189.62 148.2" fill="none"/>
    </clipPath>
  </defs>
  <title>split1</title>
  <rect width="800" height="450" fill="#8fe5da"/>
  <g id="c">
    <polyline points="420.33 424.59 420.33 308.29 420.33 182.97 420.33 68.52" fill="none" stroke="#fff" stroke-linecap="round" stroke-linejoin="round" stroke-width="2"/>
  </g>
  <g id="a">
    <g id="svg_101" data-name="svg 101">
      <g id="svg_102" data-name="svg 102">
        <g id="svg_103" data-name="svg 103" opacity="0.2">
          <path id="svg_104" data-name="svg 104" d="M481.81,394.08l-60-34.66a9.17,9.17,0,0,0-8.35,0l-59.65,34.66c-2.3,1.37-2.29,3.49,0,4.84l60,34.65a9.17,9.17,0,0,0,8.35,0L481.84,399C484.12,397.6,484.12,395.42,481.81,394.08Z" fill="#132c39"/>
        </g>
        <path id="svg_105" data-name="svg 105" d="M481.81,384.64l-60-34.66a9.17,9.17,0,0,0-8.35,0l-59.65,34.66c-2.3,1.37-2.29,3.51,0,4.84l60,34.66a9.24,9.24,0,0,0,8.35,0l59.65-34.66C484.12,388.15,484.12,386,481.81,384.64Z" fill="#007385"/>
        <path id="svg_106" data-name="svg 106" d="M481.84,389.48l-59.65,34.66a9.24,9.24,0,0,1-8.35,0l-60-34.66a3,3,0,0,1-1.74-2.44v6.6a3,3,0,0,0,1.74,2.44l60,34.65a9.11,9.11,0,0,0,8.35,0l59.65-34.65a3,3,0,0,0,1.71-2.4v-6.6A2.94,2.94,0,0,1,481.84,389.48Z" fill="#004652"/>
      </g>
      <g id="svg_107" data-name="svg 107">
        <g id="svg_108" data-name="svg 108">
          <g id="svg_109" data-name="svg 109">
            <path id="svg_110" data-name="svg 110" d="M483.89,395.44h0l-2.14-1.25-.49-.29-.51-.29h0a1.68,1.68,0,0,0-1.68,0,1.6,1.6,0,0,0-.56.65,2.29,2.29,0,0,0-.21,1v.34a2.09,2.09,0,0,0,.21,1,1.54,1.54,0,0,0,.61.68h0l.51.29,2.63,1.53h0a1.68,1.68,0,0,0,.9.21A1.48,1.48,0,0,0,484,399a1.4,1.4,0,0,0,.52-.63,2.52,2.52,0,0,0,.21-.94v-.34a2.23,2.23,0,0,0-.22-1,1.44,1.44,0,0,0-.62-.65Z" fill="#fff"/>
            <g id="svg_111" data-name="svg 111" opacity="0.3">
              <path id="svg_112" data-name="svg 112" d="M501.39,409.58a1.16,1.16,0,0,1-.6-.17l-17.54-10.63a1.15,1.15,0,0,1-.4-1.58,1.16,1.16,0,0,1,1.59-.39l17.5,10.63a1.14,1.14,0,0,1,.39,1.56v0A1.16,1.16,0,0,1,501.39,409.58Z" fill="#fff"/>
            </g>
          </g>
          <g id="svg_113" data-name="svg 113">
            <path id="svg_114" data-name="svg 114" d="M474.6,400.92h0l-2.14-1.26-.5-.29-.5-.29h0a1.68,1.68,0,0,0-1.68,0,1.45,1.45,0,0,0-.57.63,2.72,2.72,0,0,0-.21,1V401a2,2,0,0,0,.21,1,1.57,1.57,0,0,0,.62.68h0l.49.29,2.65,1.55h0a1.7,1.7,0,0,0,1.74-.07,1.79,1.79,0,0,0,.52-.64,2.52,2.52,0,0,0,.21-.93v-.35a2.55,2.55,0,0,0-.22-1,1.35,1.35,0,0,0-.62-.63Z" fill="#fff"/>
            <g id="svg_115" data-name="svg 115" opacity="0.3">
              <path id="svg_116" data-name="svg 116" d="M492.22,414.83a1.22,1.22,0,0,1-.59-.17L474,404.26a1.15,1.15,0,0,1-.41-1.57h0a1.16,1.16,0,0,1,1.57-.41h0l17.68,10.4a1.14,1.14,0,0,1,.41,1.56v0a1.13,1.13,0,0,1-1,.58Z" fill="#fff"/>
            </g>
          </g>
          <g id="svg_117" data-name="svg 117">
            <path id="svg_118" data-name="svg 118" d="M465.31,406.38h0l-2.14-1.24-.51-.3-.49-.29h0a1.63,1.63,0,0,0-1.68,0,1.47,1.47,0,0,0-.57.64,2.37,2.37,0,0,0-.21,1v.34a2.18,2.18,0,0,0,.21,1,1.35,1.35,0,0,0,.62.67h0l.49.3,2.65,1.54h0a1.62,1.62,0,0,0,.89.2,1.53,1.53,0,0,0,.85-.27,1.69,1.69,0,0,0,.52-.64,2.2,2.2,0,0,0,.19-.94V408a2.25,2.25,0,0,0-.2-1,1.7,1.7,0,0,0-.62-.63Z" fill="#fff"/>
            <g id="svg_119" data-name="svg 119" opacity="0.3">
              <path id="svg_120" data-name="svg 120" d="M483.23,420.24a1.06,1.06,0,0,1-.57-.17l-18-10.33a1.15,1.15,0,1,1,1.15-2h0l18,10.33a1.17,1.17,0,0,1,.4,1.6,1.15,1.15,0,0,1-1,.57Z" fill="#fff"/>
            </g>
            <g id="svg_121" data-name="svg 121" opacity="0.3">
              <path id="svg_122" data-name="svg 122" d="M473.75,425.46a1.19,1.19,0,0,1-.56-.14l-17.43-9.73a1.15,1.15,0,1,1,1.12-2l17.43,9.71a1.15,1.15,0,0,1,.47,1.56,1.14,1.14,0,0,1-1,.61Z" fill="#fff"/>
            </g>
          </g>
          <path id="svg_123" data-name="svg 123" d="M456,411.85h0l-2.14-1.25-.51-.28-.5-.29h0a1.55,1.55,0,0,0-2.14.49l-.1.18a2.19,2.19,0,0,0-.22,1V412a2.35,2.35,0,0,0,.21,1,1.57,1.57,0,0,0,.62.68h0l.5.29,2.65,1.55h0a1.72,1.72,0,0,0,.89.21,1.75,1.75,0,0,0,.83-.28,1.53,1.53,0,0,0,.54-.64,2.37,2.37,0,0,0,.19-.95v-.34a2.14,2.14,0,0,0-.2-1,1.65,1.65,0,0,0-.62-.69Z" fill="#fff"/>
          <g id="svg_124" data-name="svg 124">
            <path id="svg_125" data-name="svg 125" d="M446.73,417.33h0l-2.15-1.26-.5-.29-.5-.28h0a1.65,1.65,0,0,0-1.69,0,1.49,1.49,0,0,0-.55.64,2.14,2.14,0,0,0-.22,1v.34a2.41,2.41,0,0,0,.21,1,1.54,1.54,0,0,0,.62.67h0l.5.29,2.65,1.55h0a1.62,1.62,0,0,0,.89.2,1.49,1.49,0,0,0,1.37-.92,2,2,0,0,0,.2-.93V419a2.26,2.26,0,0,0-.21-1,1.63,1.63,0,0,0-.62-.63Z" fill="#fff"/>
            <g id="svg_126" data-name="svg 126" opacity="0.3">
              <path id="svg_127" data-name="svg 127" d="M464.14,431a1.16,1.16,0,0,1-.57-.15L446.1,420.69a1.13,1.13,0,0,1-.44-1.55v0a1.18,1.18,0,0,1,1.58-.42l17.47,10.11a1.15,1.15,0,0,1,.43,1.57,1.13,1.13,0,0,1-1,.58Z" fill="#fff"/>
            </g>
          </g>
          <g id="svg_128" data-name="svg 128">
            <path id="svg_129" data-name="svg 129" d="M437.42,422.8h0l-2.13-1.25-.5-.28-.5-.29h0a1.65,1.65,0,0,0-1.69,0,1.57,1.57,0,0,0-.56.64,2.35,2.35,0,0,0-.21,1v.35a2.32,2.32,0,0,0,.21,1,1.65,1.65,0,0,0,.62.69h0l.5.28,2.63,1.54h0a1.69,1.69,0,0,0,.91.2,1.44,1.44,0,0,0,.83-.27,1.39,1.39,0,0,0,.52-.63,2.23,2.23,0,0,0,.21-1v-.34a2,2,0,0,0-.22-1,1.47,1.47,0,0,0-.62-.66Z" fill="#fff"/>
            <g id="svg_130" data-name="svg 130" opacity="0.3">
              <path id="svg_131" data-name="svg 131" d="M454.48,436.19a1.13,1.13,0,0,1-.57-.15l-17.12-9.88a1.14,1.14,0,0,1-.42-1.55v0a1.16,1.16,0,0,1,1.57-.43h0l17.1,9.88a1.16,1.16,0,0,1,.43,1.57h0a1.14,1.14,0,0,1-1,.58Z" fill="#fff"/>
            </g>
          </g>
          <g id="svg_132" data-name="svg 132">
            <path id="svg_133" data-name="svg 133" d="M428.13,428.28h0L426,427l-.51-.29-.49-.28h0a1.65,1.65,0,0,0-1.69,0,1.49,1.49,0,0,0-.56.63,2.46,2.46,0,0,0-.22,1v.34a2,2,0,0,0,.22,1,1.48,1.48,0,0,0,.62.69h0l.49.29,2.64,1.55h0a1.62,1.62,0,0,0,.89.2,1.51,1.51,0,0,0,.85-.27,1.65,1.65,0,0,0,.52-.65,2.47,2.47,0,0,0,.21-.93v-.34a2.42,2.42,0,0,0-.22-1,1.4,1.4,0,0,0-.62-.63Z" fill="#fff"/>
            <g id="svg_134" data-name="svg 134" opacity="0.3">
              <path id="svg_135" data-name="svg 135" d="M445.06,441.72a1.11,1.11,0,0,1-.59-.16l-17-9.92a1.16,1.16,0,0,1,1.17-2l17,9.93a1.15,1.15,0,0,1,.43,1.57h0a1.17,1.17,0,0,1-1,.57Z" fill="#fff"/>
            </g>
          </g>
        </g>
        <g id="svg_136" data-name="svg 136">
          <g id="svg_137" data-name="svg 137">
            <path id="svg_138" data-name="svg 138" d="M356.55,394.57a1.55,1.55,0,0,0-2.05-.77l-.18.1h0l-.51.29-.51.29-2.13,1.24h0a1.65,1.65,0,0,0-.62.69,2.32,2.32,0,0,0-.21,1v.34a2.37,2.37,0,0,0,.19.95,1.6,1.6,0,0,0,.54.64,1.79,1.79,0,0,0,.84.28,1.56,1.56,0,0,0,.89-.21h0l2.64-1.55.51-.28h0a1.62,1.62,0,0,0,.61-.69,2.32,2.32,0,0,0,.21-1v-.34a2.2,2.2,0,0,0-.22-1Z" fill="#fff"/>
            <g id="svg_139" data-name="svg 139" opacity="0.3">
              <path id="svg_140" data-name="svg 140" d="M330.06,411.3a1.15,1.15,0,0,1-.56-2.16l21.14-12a1.17,1.17,0,0,1,1.16,2l-21.15,12a1.12,1.12,0,0,1-.59.19Z" fill="#fff"/>
            </g>
          </g>
          <g id="svg_141" data-name="svg 141">
            <path id="svg_142" data-name="svg 142" d="M365.84,400.05a1.55,1.55,0,0,0-.55-.64,1.68,1.68,0,0,0-1.68,0h0l-.51.29-.49.29-2.15,1.26h0a1.47,1.47,0,0,0-.61.67,2.2,2.2,0,0,0-.22,1v.35a2.14,2.14,0,0,0,.21.93,1.51,1.51,0,0,0,1.37.92,1.72,1.72,0,0,0,.89-.21h0l2.64-1.55.51-.29h0a1.51,1.51,0,0,0,.62-.68,2.17,2.17,0,0,0,.2-1v-.35a2.07,2.07,0,0,0-.23-1Z" fill="#fff"/>
            <g id="svg_143" data-name="svg 143" opacity="0.3">
              <path id="svg_144" data-name="svg 144" d="M339.71,416.78a1.18,1.18,0,0,1-1-.58,1.16,1.16,0,0,1,.42-1.58h0l20.8-12a1.16,1.16,0,0,1,1.58.42h0a1.15,1.15,0,0,1-.39,1.56l0,0-20.85,12a1,1,0,0,1-.53.19Z" fill="#fff"/>
            </g>
          </g>
          <g id="svg_145" data-name="svg 145">
            <path id="svg_146" data-name="svg 146" d="M375.15,405.52a1.6,1.6,0,0,0-.57-.64,1.63,1.63,0,0,0-1.68,0h0l-.51.28-.49.29-2.14,1.25h0a1.57,1.57,0,0,0-.62.68,2.23,2.23,0,0,0-.22,1v.34a2.58,2.58,0,0,0,.21.95,1.51,1.51,0,0,0,.52.63,1.58,1.58,0,0,0,.84.27,1.6,1.6,0,0,0,.9-.21h0l2.63-1.53.48-.25h0a1.63,1.63,0,0,0,.62-.68,2.19,2.19,0,0,0,.2-1v-.35A2.2,2.2,0,0,0,375.15,405.52Z" fill="#fff"/>
            <g id="svg_147" data-name="svg 147" opacity="0.3">
              <path id="svg_148" data-name="svg 148" d="M349.32,421.83a1.17,1.17,0,0,1-1.15-1.16,1.15,1.15,0,0,1,.58-1L369.24,408a1.16,1.16,0,0,1,1.14,2l-20.56,11.64a1.12,1.12,0,0,1-.5.15Z" fill="#fff"/>
            </g>
          </g>
          <g id="svg_149" data-name="svg 149">
            <path id="svg_150" data-name="svg 150" d="M384.44,411a1.34,1.34,0,0,0-.57-.63,1.63,1.63,0,0,0-1.68,0h0l-.49.29-.51.28-2.14,1.26h0a1.41,1.41,0,0,0-.62.68,2.55,2.55,0,0,0-.22,1v.35a2.73,2.73,0,0,0,.21.93,1.79,1.79,0,0,0,.52.64,1.7,1.7,0,0,0,1.74,0h0l2.65-1.55.49-.29h0a1.51,1.51,0,0,0,.62-.68,2,2,0,0,0,.21-1v-.35A2.57,2.57,0,0,0,384.44,411Z" fill="#fff"/>
            <g id="svg_151" data-name="svg 151" opacity="0.3">
              <path id="svg_152" data-name="svg 152" d="M358.48,427.39a1.15,1.15,0,0,1-1.18-1.12,1.14,1.14,0,0,1,.61-1l20.62-11.72a1.15,1.15,0,0,1,1.19,2l-.05,0L359,427.24A1.09,1.09,0,0,1,358.48,427.39Z" fill="#fff"/>
            </g>
          </g>
          <g id="svg_153" data-name="svg 153">
            <path id="svg_154" data-name="svg 154" d="M393.68,416.47a1.4,1.4,0,0,0-.56-.64,1.63,1.63,0,0,0-1.68,0h0l-.5.3-.5.28-2.14,1.25h0a1.74,1.74,0,0,0-.62.67,2.25,2.25,0,0,0-.2,1v.34a2.12,2.12,0,0,0,.19.93,1.57,1.57,0,0,0,.52.65,1.53,1.53,0,0,0,.85.27,1.62,1.62,0,0,0,.89-.2h0l2.65-1.54.49-.3h0a1.37,1.37,0,0,0,.61-.67,2.06,2.06,0,0,0,.22-1v-.35a2.22,2.22,0,0,0-.22-1Z" fill="#fff"/>
            <g id="svg_155" data-name="svg 155" opacity="0.3">
              <path id="svg_156" data-name="svg 156" d="M368.32,432.68a1.15,1.15,0,0,1-.59-2.15L387.82,419a1.16,1.16,0,0,1,1.58.42A1.17,1.17,0,0,1,389,421h0l-20.09,11.55a1.09,1.09,0,0,1-.56.15Z" fill="#fff"/>
            </g>
          </g>
          <g id="svg_157" data-name="svg 157">
            <path id="svg_158" data-name="svg 158" d="M403,421.94a1.54,1.54,0,0,0-2-.77l-.19.1h0l-.5.28-.51.29-2.14,1.25h0a1.55,1.55,0,0,0-.62.67,2.17,2.17,0,0,0-.2,1v.35a2.2,2.2,0,0,0,.19.94,1.6,1.6,0,0,0,.54.64,1.75,1.75,0,0,0,.83.28,1.55,1.55,0,0,0,.89-.21h0l2.65-1.55.5-.28h0a1.59,1.59,0,0,0,.62-.69,2.32,2.32,0,0,0,.21-1v-.34a2.25,2.25,0,0,0-.22-1Z" fill="#fff"/>
            <g id="svg_159" data-name="svg 159" opacity="0.3">
              <path id="svg_160" data-name="svg 160" d="M377.39,437.79a1.12,1.12,0,0,1-1-.59,1.16,1.16,0,0,1,.44-1.57h0l20.28-11.19a1.16,1.16,0,0,1,1.13,2L378,437.65a1.08,1.08,0,0,1-.56.14Z" fill="#fff"/>
            </g>
          </g>
          <g id="svg_161" data-name="svg 161">
            <path id="svg_162" data-name="svg 162" d="M412.32,427.42a1.47,1.47,0,0,0-.56-.65,1.7,1.7,0,0,0-1.69,0h0l-.5.29-.5.29-2.15,1.26h0a1.56,1.56,0,0,0-.6.67,2.14,2.14,0,0,0-.22,1v.34a2.14,2.14,0,0,0,.21.93,1.51,1.51,0,0,0,1.37.92,1.62,1.62,0,0,0,.89-.2h0l2.64-1.55.51-.29h0a1.47,1.47,0,0,0,.61-.67,2.13,2.13,0,0,0,.21-1v-.34a2.15,2.15,0,0,0-.22-1Z" fill="#fff"/>
            <g id="svg_163" data-name="svg 163" opacity="0.3">
              <path id="svg_164" data-name="svg 164" d="M386.6,443.51a1.15,1.15,0,0,1-.57-2.16l20.38-11.44a1.17,1.17,0,0,1,1.14,2l-20.39,11.43a1.19,1.19,0,0,1-.56.14Z" fill="#fff"/>
            </g>
          </g>
        </g>
      </g>
    </g>
    <g id="svg_165" data-name="svg 165">
      <path id="svg_166" data-name="svg 166" d="M389.23,388.32l27.52,23.61,3.52-2-5.48-4.75,8.67-5,8.22,3.22,3.83-2.21-40.74-16.06-5.54,3.19Zm30.38,10.23L412,403l-15.9-13.58Z" fill="#fff"/>
      <polygon id="svg_167" data-name="svg 167" points="404.32 379.61 438.41 399.42 442.23 397.22 408.14 377.4 404.32 379.61" fill="#fff"/>
    </g>
  </g>
  <g id="d">
    <g id="svg_168" data-name="svg 168">
      <polygon id="svg_169" data-name="svg 169" points="363.83 204.32 363.83 267.85 418.85 299.6 473.85 267.85 473.85 204.32 418.85 172.57 363.83 204.32" fill="#73c9c1"/>
      <path id="svg_170" data-name="svg 170" d="M418.85,302.27l-57.32-33.09V203l57.32-33.09L476.16,203v66.19l-57.31,33.09Zm-52.71-35.72L418.85,297l52.7-30.43V205.7l-52.7-30.43L366.14,205.7Z" fill="#fff"/>
    </g>
    <g id="svg_171" data-name="svg 171">
      <path id="svg_172" data-name="svg 172" d="M414.25,257.23H414l-21.7-5a1,1,0,0,1-.67-.59l-3.86-10-7.87-6.34a1,1,0,0,1-.33-.92l1.7-8.91,1.2-11.05a.88.88,0,0,1,.32-.63L395.78,203a1,1,0,0,1,.44-.21l28-5.1a1.14,1.14,0,0,1,.45,0l23.09,7.44a1,1,0,0,1,.5.37l9.59,14.13a.93.93,0,0,1,0,1l-7.7,12.75a.9.9,0,0,1-.69.45l-11.7,1.56-11.3,11.43h0L414.87,257a.94.94,0,0,1-.62.28Zm-21-6.79,20.73,4.8,11.24-9.76,11.51-11.62a.93.93,0,0,1,.56-.27L448.87,232,456,220.22l-9.09-13.35-22.55-7.26-27.56,5L384.36,215,383.2,225.7v.07l-1.6,8.38,7.61,6.14a.81.81,0,0,1,.28.4l3.77,9.75Z" fill="#fff"/>
      <path id="svg_173" data-name="svg 173" d="M404.16,274.49h-4.29a1,1,0,0,1-1-.94V251.47l-2.08-22.62-15.93,6.59a.95.95,0,1,1-.72-1.75l17.11-7.09a1,1,0,0,1,1.28.45,1.06,1.06,0,0,1,.09.35l2.21,23.95v21.27h2.74l9.82-16.79a1,1,0,0,1,1.65,1L405,274.05a1,1,0,0,1-.82.44Z" fill="#fff"/>
      <path id="svg_174" data-name="svg 174" d="M414.25,257.23h-.2a1,1,0,0,1-.73-1.12v0l8.22-37.48a1,1,0,0,1,.5-.64l25-12.74a1,1,0,0,1,.86,1.69l-24.6,12.54-8.22,37A.93.93,0,0,1,414.25,257.23Z" fill="#fff"/>
      <path id="svg_175" data-name="svg 175" d="M422.57,219.75h-.11l-39.06-4.32a.92.92,0,0,1-.84-1v0a.94.94,0,0,1,1-.85h0l38.11,4.21,1.84-19.18a.94.94,0,0,1,1-.86,1,1,0,0,1,.86,1l-1.92,20.17a1,1,0,0,1-.34.66,1,1,0,0,1-.61.18Z" fill="#fff"/>
      <path id="svg_176" data-name="svg 176" d="M388.6,242a1,1,0,0,1-1-1,1,1,0,0,1,.16-.51l8.88-13.32-1.25-23.42a1,1,0,0,1,.45-.86,1,1,0,0,1,1,0L423,218l26.91,14.12a.94.94,0,0,1,.41,1.27h0a.92.92,0,0,1-1.25.41h0l-21.93-11.47,11,11.58a.94.94,0,0,1-.52,1.59l-28.86,5a1,1,0,0,1-.87-.3l-10-11.16-8.39,12.57a.93.93,0,0,1-.78.37Zm10.72-14.11,9.59,10.62,26.65-4.61L422.24,220l-22.92,7.92Zm-1.88-22.46,1.1,20.72,21.7-7.55Z" fill="#fff"/>
      <path id="svg_177" data-name="svg 177" d="M399.87,253.23a1,1,0,0,1-.95-1,.92.92,0,0,1,.15-.51l22.65-33.48a.92.92,0,0,1,.84-.41l34.61,1.37a1,1,0,0,1-.07,1.9L423,219.76l-22.36,33.08A.93.93,0,0,1,399.87,253.23Z" fill="#fff"/>
      <g id="svg_178" data-name="svg 178">
        <path id="svg_179" data-name="svg 179" d="M384.2,211.73a3,3,0,1,0,3,3h0a3,3,0,0,0-3-3Z" fill="#fff"/>
        <path id="svg_180" data-name="svg 180" d="M384.2,217.85a3.1,3.1,0,1,1,3.09-3.12v0A3.11,3.11,0,0,1,384.2,217.85Zm0-6a2.88,2.88,0,1,0,2.88,2.88,2.88,2.88,0,0,0-2.88-2.88Z" fill="#fff"/>
      </g>
      <g id="svg_181" data-name="svg 181">
        <path id="svg_182" data-name="svg 182" d="M422.9,214.31a4.55,4.55,0,1,0,4.44,4.66v-.11a4.5,4.5,0,0,0-4.44-4.55Z" fill="#fff"/>
        <path id="svg_183" data-name="svg 183" d="M422.9,223.52a4.66,4.66,0,1,1,4.55-4.77v.11A4.62,4.62,0,0,1,422.9,223.52Zm0-9.1a4.44,4.44,0,1,0,4.33,4.55v-.11a4.4,4.4,0,0,0-4.33-4.39v-.05Z" fill="#fff"/>
      </g>
      <g id="svg_184" data-name="svg 184">
        <path id="svg_185" data-name="svg 185" d="M397.63,224a3.84,3.84,0,1,0,3.84,3.83,3.82,3.82,0,0,0-3.84-3.83Z" fill="#fff"/>
        <path id="svg_186" data-name="svg 186" d="M397.63,231.73a3.95,3.95,0,1,1,3.95-3.95h0A4,4,0,0,1,397.63,231.73Zm0-7.68a3.74,3.74,0,1,0,3.73,3.76v0a3.73,3.73,0,0,0-3.73-3.72Z" fill="#fff"/>
      </g>
    </g>
  </g>
  <g id="g1">
    <g id="svg_826" data-name="svg 826">
      <polygon id="svg_827" data-name="svg 827" points="610.8 146.24 695.51 195.28 695.51 188.9 610.83 139.84 610.8 146.24" fill="#00738f"/>
      <polygon id="svg_828" data-name="svg 828" points="610.57 230.63 695.51 279.69 695.51 195.28 610.8 146.24 610.57 230.63" fill="#fff" opacity="0.5" style="isolation: isolate"/>
    </g>
    <g id="svg_829" data-name="svg 829" opacity="0.5">
      <path id="svg_830" data-name="svg 830" d="M630.77,209.83l-12.13-7c-.84-.49-1.54-.09-1.54.87v13.93a3.38,3.38,0,0,0,1.54,2.63l12.11,7c.85.49,1.54.09,1.54-.88V212.48A3.42,3.42,0,0,0,630.77,209.83Z" fill="#fff"/>
      <path id="svg_831" data-name="svg 831" d="M649.91,222.26l-12.11-7c-.85-.49-1.54-.09-1.54.87v13.93a3.35,3.35,0,0,0,1.52,2.63l12.12,7c.85.5,1.53.1,1.53-.87V224.91A3.34,3.34,0,0,0,649.91,222.26Z" fill="#fff"/>
      <path id="svg_832" data-name="svg 832" d="M669.05,234.69l-12.11-7c-.85-.49-1.54-.09-1.54.86v13.93a3.39,3.39,0,0,0,1.53,2.64l12.12,7c.84.48,1.54.1,1.54-.87V237.33a3.37,3.37,0,0,0-1.54-2.64Z" fill="#fff"/>
    </g>
  </g>
  <g id="f1">
    <path id="svg_833" data-name="svg 833" d="M651.84,148l-61.77-35.62a.64.64,0,0,0-1,.53L589,166.27a.48.48,0,0,0,.26.45l61.66,33.07a.74.74,0,0,0,1-.29.71.71,0,0,0,.1-.37v-50.7a.48.48,0,0,0-.17-.4Z" fill="#f15625"/>
    <g id="svg_834" data-name="svg 834">
      <polygon id="svg_835" data-name="svg 835" points="590.99 115.15 590.45 117.22 590.32 164.22 617.11 179.58 617.08 130.22 590.99 115.15" fill="#ededed"/>
      <polygon id="svg_836" data-name="svg 836" points="616.89 179.62 646.99 198.54 649.94 198.54 649.94 149.16 617.08 130.22 616.89 179.62" fill="#ededed"/>
      <g id="svg_837" data-name="svg 837">
        <path id="svg_838" data-name="svg 838" d="M617.1,134.65v-2.07A4.52,4.52,0,0,0,617.1,134.65Z" fill="#fff"/>
        <path id="svg_839" data-name="svg 839" d="M617.1,134.65V182a5.46,5.46,0,0,0,2.68,4.53c7.07,5.07,27.21,12.06,27.21,12.06V149.21s-20.13-7.7-26.25-10.56a6,6,0,0,1-3.64-4Z" fill="#fff"/>
      </g>
      <path id="svg_840" data-name="svg 840" d="M607.23,130.44a107.65,107.65,0,0,1-16.78-13.22l-.13,49.33s10.33,10,16,12.62c8.5,3.9,10.81,2.74,10.81,2.74V132.58s-3.63,1.61-9.87-2.14Z" fill="#fff"/>
      <path id="svg_841" data-name="svg 841" d="M615.21,173.93a12.06,12.06,0,0,1-2.74,7.69c3.48.94,4.59.38,4.59.38V132.67a5.49,5.49,0,0,1-1.89.33Z" fill="#ededed"/>
    </g>
    <path id="svg_842" data-name="svg 842" d="M615.69,127.48l5.79,3.33C620.64,126.94,615.69,127.48,615.69,127.48Z" fill="#f15625"/>
    <path id="svg_843" data-name="svg 843" d="M614.9,129l5.22,3C619.41,128.48,614.9,129,614.9,129Z" fill="#ededed"/>
    <g id="svg_844" data-name="svg 844">
      <path id="svg_845" data-name="svg 845" d="M609.92,137.22c-3.89-.38-8.08-2.59-12.46-6.56a46.64,46.64,0,0,1-5.49-5.84l.87-.66c.08.11,8.4,11.12,17.14,12l-.06,1.08Z" fill="#ededed"/>
      <path id="svg_846" data-name="svg 846" d="M609.92,143.31c-3.87-.39-8.08-2.57-12.46-6.5A43.43,43.43,0,0,1,592,131l.87-.66c.08.11,8.4,11,17.14,11.84l-.06,1.09Z" fill="#ededed"/>
      <path id="svg_847" data-name="svg 847" d="M609.92,149.39c-3.87-.38-8.08-2.54-12.46-6.43a44.64,44.64,0,0,1-5.49-5.68l.87-.67c.08.1,8.4,10.85,17.14,11.7l-.06,1.08Z" fill="#ededed"/>
      <path id="svg_848" data-name="svg 848" d="M609.92,155.49c-3.87-.39-8.07-2.52-12.46-6.36A46.35,46.35,0,0,1,592,143.5l.87-.67c.08.11,8.4,10.71,17.14,11.57l-.06,1.09Z" fill="#ededed"/>
      <path id="svg_849" data-name="svg 849" d="M609.92,161.6c-3.87-.38-8.07-2.5-12.46-6.29a44.36,44.36,0,0,1-5.49-5.56l.87-.66c.08.09,8.4,10.56,17.14,11.43Z" fill="#ededed"/>
      <path id="svg_850" data-name="svg 850" d="M609.92,167.66c-3.87-.39-8.07-2.47-12.46-6.21A44.4,44.4,0,0,1,592,156l.85-.67c.09.09,8.4,10.44,17.15,11.29Z" fill="#ededed"/>
      <path id="svg_851" data-name="svg 851" d="M609.92,173.74c-3.87-.37-8.07-2.44-12.45-6.14a42.35,42.35,0,0,1-5.48-5.48l.83-.67c.09.09,8.4,10.3,17.16,11.17l-.06,1.12Z" fill="#ededed"/>
    </g>
    <g id="svg_852" data-name="svg 852">
      <path id="svg_853" data-name="svg 853" d="M642.54,153.91a111.71,111.71,0,0,1-13.92-4.11c-8.65-3.05-10-5.66-10.12-6l1-.42-.49.2.49-.21s1.29,2.46,9.48,5.35a109.48,109.48,0,0,0,13.7,4.11Z" fill="#ededed"/>
      <path id="svg_854" data-name="svg 854" d="M642.51,160.23s-6.13-1.52-14-4.41c-8.22-3-9.82-5.8-9.88-5.92l1-.51-.48.25.47-.26s1.55,2.57,9.3,5.41,13.86,4.37,13.91,4.38l-.26,1.06Z" fill="#ededed"/>
      <path id="svg_855" data-name="svg 855" d="M642.5,166.53c-.07,0-6.68-1.88-14.13-4.73-7.73-2.93-9.59-5.76-9.59-5.89l.91-.57s1.81,2.67,9.12,5.48,14,4.68,14,4.7Z" fill="#ededed"/>
      <path id="svg_856" data-name="svg 856" d="M642.48,172.85s-7.23-2.26-14.23-5-9.34-5.76-9.42-5.88l.88-.63s2.08,2.74,8.95,5.48,14.07,5,14.14,5l-.32,1.06Z" fill="#ededed"/>
      <path id="svg_857" data-name="svg 857" d="M642.47,179.17c-.08,0-7.78-2.64-14.35-5.38s-9.08-5.72-9.18-5.85l.85-.67s2.37,2.88,8.76,5.48,14.19,5.32,14.26,5.35l-.34,1.07Z" fill="#ededed"/>
      <path id="svg_858" data-name="svg 858" d="M642.46,185.48c-.09,0-8.34-3-14.45-5.68a26.53,26.53,0,0,1-9-5.85l.82-.72a25.88,25.88,0,0,0,8.57,5.57c6.08,2.67,14.3,5.63,14.39,5.66Z" fill="#ededed"/>
      <path id="svg_859" data-name="svg 859" d="M642.46,191.75c-.1,0-8.9-3.39-14.57-6a30.37,30.37,0,0,1-8.73-5.82l.8-.76a29.32,29.32,0,0,0,8.38,5.59c5.65,2.62,14.4,5.95,14.5,6l-.38,1Z" fill="#ededed"/>
    </g>
  </g>
  <g id="h1">
    <polygon id="svg_860" data-name="svg 860" points="681.03 221.11 712.7 239.4 712.83 185.4 681.17 167.12 681.03 221.11" fill="#fff"/>
    <g id="svg_861" data-name="svg 861">
      <polygon id="svg_862" data-name="svg 862" points="684.67 214.77 702.93 225.3 702.94 223.33 684.67 212.79 684.67 214.77" fill="#c1ced6"/>
      <polygon id="svg_863" data-name="svg 863" points="684.61 208.02 709.17 222.21 709.17 220.23 684.61 206.05 684.61 208.02" fill="#c1ced6"/>
      <polygon id="svg_864" data-name="svg 864" points="684.62 201.82 709.19 216 709.2 214.03 684.63 199.84 684.62 201.82" fill="#c1ced6"/>
      <polygon id="svg_865" data-name="svg 865" points="684.63 195.6 709.22 209.79 709.22 207.82 684.65 193.62 684.63 195.6" fill="#c1ced6"/>
      <polygon id="svg_866" data-name="svg 866" points="684.66 189.39 709.23 203.57 709.23 201.6 684.66 187.41 684.66 189.39" fill="#c1ced6"/>
      <polygon id="svg_867" data-name="svg 867" points="684.67 183.18 709.24 197.36 709.26 195.39 684.67 181.21 684.67 183.18" fill="#c1ced6"/>
    </g>
  </g>
  <g id="j1">
    <polygon id="svg_868" data-name="svg 868" points="659.53 285.14 710 314.28 710.12 270.59 659.65 241.46 659.53 285.14" fill="#009aa3"/>
    <g id="svg_869" data-name="svg 869">
      <polygon id="svg_870" data-name="svg 870" points="683.18 283.46 689.37 281.54 683.18 270.63 683.18 283.46" fill="#added3"/>
      <path id="svg_871" data-name="svg 871" d="M685.33,265.86c-2.9-1.68-5.7-1.93-7.85-.68s-3.33,3.74-3.34,7.07a22.51,22.51,0,0,0,10.18,17.63,9.73,9.73,0,0,0,4.83,1.47,6,6,0,0,0,3-.78c2.15-1.23,3.33-3.75,3.34-7.07A22.46,22.46,0,0,0,685.33,265.86Zm9.22,17.69h-.94c0,2.62-.85,4.55-2.39,5.49s-3.66.64-6-.69a20.4,20.4,0,0,1-9.22-16c0-2.61.85-4.55,2.38-5.48a4.19,4.19,0,0,1,2.07-.52,7.94,7.94,0,0,1,3.9,1.21,20.39,20.39,0,0,1,9.22,16Z" fill="#added3"/>
    </g>
  </g>
  <g id="k1">
    <g id="svg_872" data-name="svg 872">
      <path id="svg_873" data-name="svg 873" d="M593.55,368.4a58,58,0,0,0-6.85.37c-2.54.49-5.56-1.09-7.33.69-.93.94-1,6.12-1,6.12,1,3.4,5.85,2.85,7,2.74s12-4,12-4a10.77,10.77,0,0,0,4.11-2.74c2.54-4.26-7.29-3.22-8-3.17Z" fill="#0f3c5f"/>
      <path id="svg_874" data-name="svg 874" d="M562.77,353.23c-.85.26-7.86,2.94-7.86,2.94a6.5,6.5,0,0,0-6.85,3.12c-.63,1-.28,4.73-.28,4.73.93,4.27,5.66,3,7.1,2.5,1.11-.39,4.23-3.76,6-4.44,5.74-2.19,8.47-5,8.77-6,1.42-4.75-6.17-3.07-6.87-2.85Z" fill="#0f3c5f"/>
      <path id="svg_875" data-name="svg 875" d="M579.42,251.78a13,13,0,0,0-10.11,3.45,11.88,11.88,0,0,0-3.73,9.35,11.65,11.65,0,0,0,.48,2.61c.25.8.59,1.56.89,2.35.8,2.16,1.46,4.38,2.07,6.6,1.28,4.55,2.28,9.17,3.18,13.8,1,4.85,1.62,9.74,2.21,14.65s1,10,1.29,15.07.64,10.17,1,15.24c.34,4.81.67,9.59,1,14.43q.45,6.53.89,13.07c.12,1.86.25,3.73.36,5.58a7.41,7.41,0,0,0,.63,3.35,4.71,4.71,0,0,0,4.5,2.36,4.66,4.66,0,0,0,4-3,11.36,11.36,0,0,0,.33-3.29l.24-5.56c.21-4.4.46-8.81.7-13.21q.4-7.23.88-14.44c.36-5.05.69-10.1,1.11-15.08s.16-23.95.16-43.42C591.49,233.79,583,252,579.42,251.78Z" fill="#007385"/>
      <path id="svg_876" data-name="svg 876" d="M582.25,368c-2.62-11.05-2.44-22.5-2.66-33.77-.13-5.9-.65-11.81-1.11-17.7-.5-6.17-1.06-12.33-1.8-18.47-.59-1.62-1.23-3.21-1.89-4.78-1.15-2.75-2.36-5.36-3.55-8,.33,1.56.66,3.13,1,4.71,1,4.85,1.62,9.74,2.21,14.65s1,10,1.29,15.07.64,10.17,1,15.24c.34,4.81.67,9.59,1,14.43q.45,6.53.89,13.07c.12,1.86.25,3.73.36,5.58a7.41,7.41,0,0,0,.63,3.35A4.71,4.71,0,0,0,584,373.7a47.62,47.62,0,0,1-1.72-5.72Z" opacity="0.05" style="isolation: isolate"/>
      <path id="svg_877" data-name="svg 877" d="M571.3,251c-4.91-1.78-13.27-3.64-14.25-1.37-4.57,10.17-4.69,56.25-4.7,56.36-.07.47-.14.92-.2,1.37-.48,3.44-.78,6.86-1.08,10.34-.42,4.9-.75,9.81-1.1,14.71s-.61,9.51-.91,14.27c-.2,3.2-.4,6.42-.59,9.59,0,.47-.07.93-.1,1.37A4.51,4.51,0,0,0,551,361.8,4.68,4.68,0,0,0,557.7,358c.69-4.11,1.37-8.11,2.13-12.15.82-4.5,1.7-9,2.59-13.46,1-4.88,2-9.74,3.12-14.58q1.15-5,2.55-9.84V308c.22-.58.41-1.18.58-1.78.5-1.52,1-3,1.45-4.58,2-6.57,3.82-13.21,5.48-19.88,1.37-5.73,2.67-11.48,3.73-17.28a13.48,13.48,0,0,0,.22-2.11A12.35,12.35,0,0,0,571.3,251Z" fill="#007385"/>
      <path id="svg_878" data-name="svg 878" d="M557.09,287.77c.09-3.17.34-6.34.63-9.51a36.15,36.15,0,0,1,1.61-9.9c1.83-4.77,4.62-9,6.77-13.54.11-.3.21-.62.3-.93a10.22,10.22,0,0,1,.33-4.33c-4.35-1.1-9-1.65-9.68,0-4.57,10.16-4.69,56.25-4.7,56.36-.07.46-.14.91-.2,1.37-.48,3.44-.78,6.85-1.08,10.33-.42,4.9-.75,9.81-1.1,14.72s-.61,9.51-.91,14.26c-.2,3.21-.4,6.43-.59,9.59,0,.47-.07.93-.1,1.37a4.49,4.49,0,0,0,2.1,3.91,120.63,120.63,0,0,1,1.37-17.4c1.53-10.76,4.21-21.29,5.75-32-.48-8.06-.78-16.15-.5-24.27Z" opacity="0.05" style="isolation: isolate"/>
      <path id="svg_879" data-name="svg 879" d="M583.26,192.59c-8.35-5.56-20.56-5.09-27.74-.06s-5.12,9.85-3.89,13.4c.65,1.9,3.69,28.88,4,37.61.1,3.26-1.52,19.76-1.52,19.76s-1.21,9,20.2,11.61c15.41,1.86,17.32-7.64,17.32-7.64s2.74-58.77,2.22-61.22c-1.94-8.92-4.88-9.67-10.54-13.46Z" fill="#002d42"/>
      <g id="k1head">
        <path id="svg_880" data-name="svg 880" d="M574.28,190.21c1.62.11,3.24.11,4.85.1l-.52-11.16-10.68,1.52-1.47,8.44C569.21,189.13,571.54,190,574.28,190.21Z" fill="#f9b395"/>
        <path id="svg_881" data-name="svg 881" d="M584.4,160.86l-22,7.66,4,9.95c1.08,6,11.62,8.22,11.62,8.22,3.86-.63,8.95-4.74,7.84-10.81l-1.41-15Z" fill="#f9b395"/>
        <path id="svg_882" data-name="svg 882" d="M577.16,155.13s-7.51-1.86-12.66,4c-3.36,3.82-2.74,10.21,1,19.35.94,2.33,1.86,4.27,1.86,4.27s5.82,1.19,7.06.55c2.74-1.37,6.32-6.41,6.32-6.41s1.37-9.79,3.26-11.25,1.65-8.22,1.65-8.22c-1.3-1.79-4.64-2.43-8.52-2.28Z" fill="#b37d57"/>
        <path id="svg_883" data-name="svg 883" d="M579.67,172.44c.15,2.74,2.41,5.25,4.34,3.89l-.92-5.06S579.48,168.81,579.67,172.44Z" fill="#f9b395"/>
      </g>
      <path id="svg_884" data-name="svg 884" d="M571.52,187.25c-4.36-.92-4.51-1.56-4.51-1.56l-1.84,3.16s.65,1.37,4.72,2a33,33,0,0,0,10.22,0L579,187.29A36.66,36.66,0,0,1,571.52,187.25Z" fill="#fff"/>
    </g>
    <path id="svg_885" data-name="svg 885" d="M552,196s-7.31,12.61-8.64,36.66c-.18,3.46-.52,10.53,14.21,11l-2-15.07Z" fill="#002d42"/>
    <g id="k1arm">
      <path id="svg_886" data-name="svg 886" d="M633.48,194.75l-10-17.35s-1.71.85-1.54.79L632,195.6a2.15,2.15,0,0,0,.74.79.8.8,0,0,0,.75.08c.36-.24.36-1,0-1.72Z" fill="#007385"/>
      <path id="svg_887" data-name="svg 887" d="M633.79,195.05l-8.9-15.4a1,1,0,0,0-1.29-.39h0a1,1,0,0,0-.42,1.33l0,0,9,15.39a2.68,2.68,0,0,0,.85.92.88.88,0,0,0,.87.08C634.26,196.75,634.26,195.86,633.79,195.05Z" fill="#f15625"/>
      <path id="svg_888" data-name="svg 888" d="M626.78,183s.37.77,1.05,1.95a1.23,1.23,0,0,1,.18.59.9.9,0,0,1-1.64.55l-.66-1a28.5,28.5,0,0,0-1.89,3.26c-.56,1.29,1.55,8.15,1.55,8.15l4,1.88s3.69-4.43,4.42-5.58-.86-6.23-1.83-7.47S626.78,183,626.78,183Z" fill="#f9b395"/>
      <path id="svg_889" data-name="svg 889" d="M625.7,195.38c-.18,0-.69.17-.88.17-.12.31-2.1,5.29-2.74,6.47s-1.26,2.43-2,3.7a40.32,40.32,0,0,1-2.43,3.77,16.89,16.89,0,0,1-1.37,1.67,8.46,8.46,0,0,1-.67.67,4.81,4.81,0,0,1-.62.47.86.86,0,0,1-.38.16h.17c.09,0,0-.06-.18-.09s-.44-.07-.72-.14c-.57-.12-1.26-.33-2-.56s-1.44-.52-2.18-.82c-1.48-.61-3-1.29-4.4-2-2.89-1.37-5.57-2.88-7.86-4.18l-1.86-1.07a41.89,41.89,0,0,1-3.17,6.66c-1.06,1.71-2.27,3.35-3.43,5,.83.37,1.72.76,2.74,1.16,2.61,1.1,5.68,2.33,9.12,3.5,1.71.58,3.52,1.15,5.48,1.64,1,.25,2,.48,3,.68a29.69,29.69,0,0,0,3.39.46c.66,0,1.33,0,2,0a11.91,11.91,0,0,0,2.52-.39l.36-.11h0l.21-.06h.09l.59-.27.42-.19.29-.18a4.88,4.88,0,0,0,.56-.34,11.11,11.11,0,0,0,1.75-1.46,13.44,13.44,0,0,0,1.25-1.37c.37-.48.69-1,1-1.37a30.36,30.36,0,0,0,1.48-2.68,44,44,0,0,0,2.08-5c.55-1.57,1-3,1.37-4.42.69-2.35,1.54-5.16,1.86-6.7a5,5,0,0,0-4.87-2.85Z" fill="#fff"/>
      <path id="svg_890" data-name="svg 890" d="M624.2,196.24s-8.41,13.85-10.29,14.06-25.42-13.7-25.42-13.7-16.7,8.38-5.29,16.17S612.77,225,617.6,224c8-1.8,12.77-23.86,12.77-23.86,0-3.77-6.17-3.85-6.17-3.85Z" fill="#002d42"/>
      <path id="svg_891" data-name="svg 891" d="M622.75,165.57c2.92,5.05,3,10.46.14,12.09s-7.5-1.13-10.4-6.17-3-10.45-.14-12.08S619.85,160.53,622.75,165.57Z" fill="#007385" opacity="0.2" style="isolation: isolate"/>
      <path id="svg_892" data-name="svg 892" d="M621.05,179.22c-3.15,0-6.93-2.74-9.51-7.18-3.25-5.65-3.14-11.61.26-13.58s8.63.92,11.9,6.56h0c3.26,5.65,3.13,11.61-.26,13.58a4.76,4.76,0,0,1-2.39.62ZM614.2,160a2.54,2.54,0,0,0-1.37.34c-2.28,1.3-2,6.17.53,10.61s6.65,7.07,8.92,5.75,2-6.17-.53-10.61c-2.06-3.68-5.21-6.12-7.52-6.12l0,0Z" fill="#007385"/>
    </g>
  </g>
  <g id="e">
    <g id="svg_1109" data-name="svg 1109">
      <path id="svg_1110" data-name="svg 1110" d="M397.39,17.1a8.74,8.74,0,0,0-1.15.56Z" fill="#658599"/>
      <path id="svg_1111" data-name="svg 1111" d="M456.32,64.86c0-10-7-22.16-15.69-27.19-3.46-2-6.66-2.55-9.26-1.86-3.16-8.22-9.1-15.88-15.92-19.82-5.14-3-9.79-3.23-13.13-1.29l-4.93,2.4c3.22-1.37,7.41-.79,12,1.85,6.86,3.94,12.76,11.64,15.93,19.8,2.6-.67,5.79-.12,9.26,1.88,8.7,5,15.73,17.18,15.69,27.17,8,6.62,14,18.28,14,28,0,5.48-2,9.38-5.1,11.21l6.08-3c3.14-1.83,5.09-5.7,5.1-11.21,0-9.74-6-21.36-14-28Z" fill="#7baeba"/>
      <path id="svg_1112" data-name="svg 1112" d="M450.24,67.8c0-10-7-22.15-15.69-27.17-3.47-2-6.66-2.55-9.26-1.88-3.17-8.22-9.1-15.86-15.93-19.8-10.19-5.89-18.48-1.16-18.51,10.55a29.85,29.85,0,0,0,.34,4.33c-8.22-3.07-14.44,1.54-14.47,11.43,0,11.07,7.76,24.67,17.42,30.15l52.58,30.36c9.59,5.57,17.5,1.1,17.54-10,0-9.7-6-21.36-14-28Z" fill="#fff"/>
    </g>
    <path id="svg_1113" data-name="svg 1113" d="M433,66.9a29.18,29.18,0,0,0-1.17-4.21l3.13-2.53a45.21,45.21,0,0,0-2.11-4.24l-4.35.14a20.93,20.93,0,0,0-1.37-1.89c-.53-.62-1-1.19-1.37-1.74L426,47a33,33,0,0,0-3.25-2.88l-2.18,3.81-.9-.55a17.21,17.21,0,0,0-2.37-1.14l-2.62-6.26a12.91,12.91,0,0,0-3.15-.42l.82,6a6.83,6.83,0,0,0-2.55.9l-4.5-4.66a6.36,6.36,0,0,0-1,1,8.19,8.19,0,0,0-.86,1.17l3.5,6a12.39,12.39,0,0,0-.85,3.17l-4.75-1.37a26.39,26.39,0,0,0,.18,4l4.85,3.6a29,29,0,0,0,1.16,4.2L404.44,66q1,2.16,2.13,4.22l4.34-.14A16.16,16.16,0,0,0,412.28,72c.52.62,1,1.21,1.44,1.75l-.33,5.49a32.86,32.86,0,0,0,3.26,2.86l2.17-3.81c.3.21.62.38.92.56A17.21,17.21,0,0,0,422.11,80l2.6,6.26a13.43,13.43,0,0,0,3.15.43l-.82-6a6.83,6.83,0,0,0,2.56-.91l4.55,4.7a11.8,11.8,0,0,0,1-1,12.14,12.14,0,0,0,.85-1.18l-3.51-6a11.14,11.14,0,0,0,.85-3.15l4.76,1.37a26.59,26.59,0,0,0-.18-4L433,66.9Zm-6.14,5.67c-1.64,2-4.39,2-7.19.34A16,16,0,0,1,415,68.67c-4-5.24-5.07-12-2.49-15.08,1.63-2,4.38-2,7.19-.34a16.06,16.06,0,0,1,4.63,4.25c4,5.29,5.07,12,2.49,15.09Z" fill="#f25512"/>
  </g>
  <g id="g">
    <path id="svg_56" data-name="svg 56" d="M309.09,98a1.54,1.54,0,0,1-.34-.28l-.4-.47v14.11l-11-13.23V84.37l-1.1-1.29a1.73,1.73,0,0,1-.37-.8V97.8a1.63,1.63,0,0,0,.38,1l12.43,15.08a1.34,1.34,0,0,0,.36.31.58.58,0,0,0,.38.1h0a.48.48,0,0,0,.33-.52V98.18h-.41a.61.61,0,0,1-.3-.15Z" fill="#fff"/>
    <path id="svg_57" data-name="svg 57" d="M310.76,67.07,321.6,79.86h.19c-.71-.93-2.34-2.74-6.05-7.08Z" fill="#fff"/>
    <path id="svg_58" data-name="svg 58" d="M346.66,79.29l12.34,15a2,2,0,0,1,.34.66,1.94,1.94,0,0,0-.34-.69Z" fill="#fff"/>
    <g id="svg_59" data-name="svg 59">
      <path id="svg_60" data-name="svg 60" d="M298.24,83.4l10.85,12.8h.14c-.76-1-2.39-2.87-6-7Z" fill="#fff"/>
      <path id="svg_61" data-name="svg 61" d="M321.56,97.76a1.22,1.22,0,0,1-.36-.32L308.77,82.37a1.63,1.63,0,0,1-.38-1v-.48l-12.09.62c-.24,0-.39.21-.39.52a.48.48,0,0,0,0,.17,1.72,1.72,0,0,0,.37.81l1.09,1.29,11,12.91.39.46a1.39,1.39,0,0,0,.35.29.6.6,0,0,0,.34.11h.41l11-.22h1.08a.34.34,0,0,0,.2,0h-.15A.58.58,0,0,1,321.56,97.76Zm-12.33-1.54h-.14L298.25,83.4l10.88-.56L320,96l-10.75.23Z" fill="#fff"/>
      <path id="svg_62" data-name="svg 62" d="M321.9,97.9h-1.08v13.7l-11,.58v1.45a.48.48,0,0,1-.33.52l12-.65h.37c.23,0,.38-.2.38-.52V97.79h-.22A.45.45,0,0,1,321.9,97.9Z" fill="#fff"/>
      <path id="svg_63" data-name="svg 63" d="M333.88,112.35a1.22,1.22,0,0,1-.34-.3l-.4-.46V125.7L322.3,112.53V113c0,.31-.15.52-.38.52h-.37l11.94,14.55a1.91,1.91,0,0,0,.37.33.59.59,0,0,0,.39.08c.22,0,.35-.22.35-.52V112.45h-.38A.79.79,0,0,1,333.88,112.35Z" fill="#fff"/>
      <path id="svg_64" data-name="svg 64" d="M322.31,97.84v.91l10.84,12.84.4.46a1.38,1.38,0,0,0,.34.3.89.89,0,0,0,.36.11h.38l10.84-.28v-1L333.92,97.1l-11.61.74Zm15.29,3.74,7.12,8.66-10.64.29H334L323.2,97.8,334,97.18l3.61,4.4Z" fill="#fff"/>
      <path id="svg_65" data-name="svg 65" d="M323.13,97.8l10.76,12.73H334c-.74-.94-2.37-2.84-5.94-7Z" fill="#fff"/>
      <path id="svg_66" data-name="svg 66" d="M345.42,126.41v-.53l-10.86.64V128c0,.31-.13.5-.35.53l12-.72-.37-.44A1.47,1.47,0,0,1,345.42,126.41Z" fill="#fff"/>
      <path id="svg_67" data-name="svg 67" d="M321.6,81.67a1.34,1.34,0,0,1-.34-.29l-.4-.46V95l-11-13.22V68l-1.08-1.28a1.62,1.62,0,0,1-.4-1V81.44a1.57,1.57,0,0,0,.38,1l12.43,15.08a1.34,1.34,0,0,0,.36.31.59.59,0,0,0,.39.1c.21,0,.36-.22.36-.52V81.82h-.41a.59.59,0,0,1-.33-.15Z" fill="#fff"/>
      <path id="svg_68" data-name="svg 68" d="M333.18,95.73v-.51l-10.87.64v1.45c0,.3-.15.49-.35.52h.35l11.61-.69-.36-.44a1.57,1.57,0,0,1-.38-1Z" fill="#fff"/>
      <polygon id="svg_69" data-name="svg 69" points="323.15 97.8 333.92 97.18 337.54 101.58 333.92 97.18 323.15 97.8" fill="#fff"/>
      <path id="svg_70" data-name="svg 70" d="M358.61,126.63a1.17,1.17,0,0,1-.34-.29L358,126v14.15L347,126.77V113l.89,1.06-1.93-2.3a.08.08,0,0,1,0-.07l-.38-.47v15.21a1.54,1.54,0,0,0,.38,1l12.25,14.95a1.11,1.11,0,0,0,.36.32.49.49,0,0,0,.35.09h.28a.49.49,0,0,0,.3-.5V126.7h-.54a.66.66,0,0,1-.3-.07Z" fill="#fff"/>
      <path id="svg_71" data-name="svg 71" d="M362.38,114l-3.08-3.73v.49c0,.32-.14.53-.39.54l-12.33.73h-.1a.51.51,0,0,1-.26-.09,1.48,1.48,0,0,1-.3-.26l1.93,2.3L358,126l.26.32a1.64,1.64,0,0,0,.35.29.8.8,0,0,0,.34.11h.56l10.78-.25h1.09c.24,0,.39-.22.41-.52a1.58,1.58,0,0,0-.39-1l-9-10.95Zm-3.71,10.77h0L347.83,112l10.84-.58,6.56,8,4.28,5.16-10.84.25Z" fill="#fff"/>
      <path id="svg_72" data-name="svg 72" d="M347.77,112l10.84,12.79h0c-.83-1-2.51-3-5.85-6.85Z" fill="#fff"/>
      <path id="svg_73" data-name="svg 73" d="M321.65,64.68a.85.85,0,0,0-.35-.11l-12.47.65c-.25,0-.38.23-.38.53a1.6,1.6,0,0,0,.39,1L309.93,68l11,12.9.39.46a1.39,1.39,0,0,0,.35.29.6.6,0,0,0,.34.11h.41l10.87-.27V80.06c0-.31.15-.51.38-.52H334L322,65a1.28,1.28,0,0,0-.39-.34Zm.14,15.18h-.19L310.77,67.07l10.87-.57L332.4,79.59Z" fill="#fff"/>
      <path id="svg_74" data-name="svg 74" d="M346.25,95.91a1.22,1.22,0,0,1-.34-.3L333.58,81a1.72,1.72,0,0,1-.4-1V95.76a1.62,1.62,0,0,0,.38,1l12.34,15a1.23,1.23,0,0,0,.35.33.75.75,0,0,0,.29.09h.08c.23,0,.37-.2.37-.52V96h-.41a.76.76,0,0,1-.33-.11Zm-.78,13.35-10.8-13.14V82.41l10.8,12.86v14Z" fill="#fff"/>
      <polygon id="svg_75" data-name="svg 75" points="347.79 112.04 358.6 111.44 365.18 119.4 358.61 111.44 347.79 112.04" fill="#fff"/>
      <path id="svg_76" data-name="svg 76" d="M371.35,126.45h-1.08v13.71l-10.77.57v1.59a.47.47,0,0,1-.3.51l12.18-.65c.24,0,.4-.2.4-.52V126A.47.47,0,0,1,371.35,126.45Z" fill="#fff"/>
      <path id="svg_77" data-name="svg 77" d="M362.38,114l9,11a1.6,1.6,0,0,1,.39,1h0a1.59,1.59,0,0,0-.4-1l-9-11Z" fill="#fff"/>
      <polygon id="svg_78" data-name="svg 78" points="346.31 78.91 346.31 78.91 346.31 78.91 346.31 78.91" fill="#fff"/>
      <path id="svg_79" data-name="svg 79" d="M346.29,78.9a.61.61,0,0,0-.35-.09.68.68,0,0,1,.37.09h0Z" fill="#fff"/>
      <polygon id="svg_80" data-name="svg 80" points="335.54 81.39 346.29 80.74 350.06 85.33 346.29 80.74 335.54 81.39" fill="#fff"/>
      <path id="svg_81" data-name="svg 81" d="M359,95.73h-1.09v13.7l-10.85.63v1.46c0,.31-.14.5-.37.52h0l12.33-.73c.24,0,.38-.22.38-.53V95.18a.42.42,0,0,1-.28.53Z" fill="#fff"/>
      <path id="svg_82" data-name="svg 82" d="M359,94.21l-12.33-15a2.17,2.17,0,0,0-.36-.32.68.68,0,0,0-.37-.09l-12,.7h-.34c-.24,0-.39.22-.39.53a1.72,1.72,0,0,0,.4,1l12.33,14.57a1.12,1.12,0,0,0,.35.3.6.6,0,0,0,.34.11H347l10.85-.27H359a.42.42,0,0,0,.38-.41.2.2,0,0,0,0-.11,1.71,1.71,0,0,0,0-.32A1.85,1.85,0,0,0,359,94.21Zm-12.72-.12L335.54,81.37l10.75-.63,3.77,4.59,7,8.5Z" fill="#fff"/>
    </g>
  </g>
  <g id="vv">
    <polyline id="svg_8" data-name="svg 8" points="125.61 129.07 180.42 160.71 180.31 200.68 125.5 169.03 125.61 129.07" fill="#fff" opacity="0.5" style="isolation: isolate"/>
    <g clip-path="url(#clip-path)">
      <g id="svg_9" data-name="svg 9">
        <path id="svg_10" data-name="svg 10" d="M173.43,180.32l-35-20.72,1.13-2.52,34.2,20.19a2.92,2.92,0,0,1,1.25,1.69c0,.13.24,1.26-.36,1.5a1.44,1.44,0,0,1-.58.09,1.29,1.29,0,0,1-.68-.23Z" fill="#fff"/>
        <path id="svg_11" data-name="svg 11" d="M168.22,185.3l-35-20.73,1.13-2.51,34.2,20.19a2.89,2.89,0,0,1,1.26,1.69c0,.12.24,1.26-.37,1.49a1.09,1.09,0,0,1-.56.09A1.2,1.2,0,0,1,168.22,185.3Z" fill="#fff"/>
        <path id="svg_12" data-name="svg 12" d="M174,171.85l-35-20.73,1.13-2.51,34.2,20.2a3,3,0,0,1,1.26,1.69c0,.12.23,1.26-.37,1.49a1.26,1.26,0,0,1-.58.08A1.23,1.23,0,0,1,174,171.85Z" fill="#fff"/>
        <g id="vva">
          <g id="svg_13" data-name="svg 13">
            <path id="svg_14" data-name="svg 14" d="M139,164.74l-29.78-17.2c-.73-.41-1.32-.07-1.32.76v.08a2.92,2.92,0,0,0,1.25,2.27L139,167.85a4,4,0,0,1-.48-1.83A1.57,1.57,0,0,1,139,164.74Z" fill="#009aa3"/>
            <g id="svg_15" data-name="svg 15">
              <path id="svg_16" data-name="svg 16" d="M140.64,164.8a1.4,1.4,0,0,0-1.63,0,1.52,1.52,0,0,0-.49,1.25,3.94,3.94,0,0,0,.48,1.84,4.41,4.41,0,0,0,1.63,1.82,1.4,1.4,0,0,0,1.63.06,1.58,1.58,0,0,0,.49-1.25,4.22,4.22,0,0,0-.47-1.84A4.53,4.53,0,0,0,140.64,164.8Z" fill="#fff"/>
              <path id="svg_17" data-name="svg 17" d="M140.64,166.23a.6.6,0,0,0-.68,0,.69.69,0,0,0-.2.53,1.78,1.78,0,0,0,.2.75,1.89,1.89,0,0,0,.67.76.6.6,0,0,0,.68,0,.69.69,0,0,0,.2-.53,1.87,1.87,0,0,0-.2-.76A1.93,1.93,0,0,0,140.64,166.23Z" fill="#009aa3"/>
            </g>
          </g>
          <g id="svg_18" data-name="svg 18">
            <path id="svg_19" data-name="svg 19" d="M142.79,150.21,113,133.05c-.72-.41-1.26-.09-1.26.76v.08a2.93,2.93,0,0,0,1.26,2.27l29.76,17.15a4.19,4.19,0,0,1-.48-1.83,1.58,1.58,0,0,1,.48-1.27Z" fill="#009aa3"/>
            <g id="svg_20" data-name="svg 20">
              <path id="svg_21" data-name="svg 21" d="M144.45,150.27a1.43,1.43,0,0,0-1.63,0,1.54,1.54,0,0,0-.49,1.26,4.18,4.18,0,0,0,.47,1.83,4.62,4.62,0,0,0,1.64,1.84,1.43,1.43,0,0,0,1.63,0,1.54,1.54,0,0,0,.49-1.26,4.23,4.23,0,0,0-.48-1.84A4.43,4.43,0,0,0,144.45,150.27Z" fill="#fff"/>
              <path id="svg_22" data-name="svg 22" d="M144.45,151.7a.6.6,0,0,0-.68,0,.66.66,0,0,0-.2.53,1.78,1.78,0,0,0,.2.75,1.8,1.8,0,0,0,.67.75.57.57,0,0,0,.68,0,.64.64,0,0,0,.18-.57,1.53,1.53,0,0,0-.2-.75A1.85,1.85,0,0,0,144.45,151.7Z" fill="#009aa3"/>
            </g>
          </g>
        </g>
        <g id="vvb">
          <path id="svg_23" data-name="svg 23" d="M128.54,150.47l34.93,20.8-1.15,2.51-34.16-20.27a2.92,2.92,0,0,1-1.25-1.69c0-.13-.24-1.26.36-1.5a1.41,1.41,0,0,1,.58-.09,1.4,1.4,0,0,1,.69.24Z" fill="#009aa3"/>
          <g id="svg_24" data-name="svg 24">
            <path id="svg_25" data-name="svg 25" d="M162.32,169.5a2,2,0,0,0-1.95-.23,1.49,1.49,0,0,0-.69,1.26,3.57,3.57,0,0,0,.42,1.87,4.89,4.89,0,0,0,1.78,2,2,2,0,0,0,2,.24,1.45,1.45,0,0,0,.7-1.26,3.64,3.64,0,0,0-.42-1.89,4.88,4.88,0,0,0-1.79-2Z" fill="#fff"/>
            <path id="svg_26" data-name="svg 26" d="M162.2,171a.79.79,0,0,0-.81-.1.64.64,0,0,0-.29.5,1.75,1.75,0,0,0,.18.78,2,2,0,0,0,.74.82.83.83,0,0,0,.79.09.6.6,0,0,0,.29-.51,1.26,1.26,0,0,0-.18-.76A1.85,1.85,0,0,0,162.2,171Z" fill="#009aa3"/>
          </g>
        </g>
      </g>
    </g>
  </g>
  <g id="l">
    <g id="svg_1007" data-name="svg 1007" opacity="0.2">
      <polygon id="svg_1008" data-name="svg 1008" points="248.5 310.85 287.26 333.96 287.39 287.91 248.62 264.8 248.5 310.85" fill="#fff"/>
    </g>
    <g id="svg_1009" data-name="svg 1009" opacity="0.2">
      <polygon id="svg_1010" data-name="svg 1010" points="276.4 299.24 315.17 322.35 315.3 276.31 276.54 253.2 276.4 299.24" fill="#fff"/>
    </g>
    <g id="m">
      <g id="svg_1011" data-name="svg 1011">
        <path id="svg_1012" data-name="svg 1012" d="M260.75,159.44l-65.17-37.7a4.61,4.61,0,0,0-4.64-.46L189,122.41h0a4.58,4.58,0,0,0-1.91,4.18l-.45,177.21a14.32,14.32,0,0,0,6.48,11.31l65.23,37.7a4.5,4.5,0,0,0,4.73.39l-.1.06,1.94-1.13a4.56,4.56,0,0,0,1.9-4.17l.47-177.2a14.3,14.3,0,0,0-6.54-11.32Z" fill="#6c99a3"/>
        <polygon id="svg_1013" data-name="svg 1013" points="189.38 294.94 259.32 335.33 259.72 181.5 189.77 141.11 189.38 294.94" fill="#e7f5f6"/>
        <polygon id="svg_1014" data-name="svg 1014" points="189.62 148.2 259.57 188.59 259.72 181.5 189.77 141.11 189.62 148.2" fill="#f15c2b"/>
        <path id="svg_1015" data-name="svg 1015" d="M256.7,162.54l-63.81-36.85c-3.52-2-6.39-.4-6.4,3.64L186,304a14,14,0,0,0,6.36,11l63.81,36.85c3.52,2,6.38.4,6.39-3.63l.45-174.69A14,14,0,0,0,256.7,162.54Zm2.62,172.85L189.38,295l.39-153.83,69.9,40.33Z" fill="#004652"/>
        <g id="r">
          <g clip-path="url(#clip-path-2)">
            <g id="svg_1016" data-name="svg 1016">
              <g id="svg_1017" data-name="svg 1017">
                <path id="svg_1018" data-name="svg 1018" d="M205.29,282,204.66,298c0,9.47,28.71,20.3,37.53,5.91,2.19-3.56,1.41-19.51,1.41-19.51L205.29,282Z" fill="#364d5f"/>
                <path id="svg_1019" data-name="svg 1019" d="M218.41,222.28l-1,2.7c-.63,1.73-1.54,4.19-2.61,7.16L213,237c-.63,1.74-1.32,3.57-2.08,5.51s-1.61,3.94-2.63,6c-.5,1-1.07,2.1-1.67,3.15a33,33,0,0,1-2,3.12c-.76,1-1.52,2-2.34,2.94s-1.7,1.8-2.51,2.62-1.78,1.55-2.66,2.27l-.08.06H197l-.15.1-.31.23-.69.49-.37.25-.35.23-.68.45c-1.82,1.16-3.58,2.15-5.25,3s-3.24,1.7-4.71,2.4c-2.95,1.42-5.41,2.52-7.14,3.26l-2,.85-.74.31a3.32,3.32,0,0,1-3-5.9h0l.62-.38,1.77-1.11c1.52-1,3.69-2.41,6.22-4.18,1.26-.89,2.6-1.87,4-2.93s2.79-2.21,4.12-3.41l.51-.47.25-.23.21-.21.48-.46.28-.28.12-.13h.06c.64-.62,1.26-1.25,1.86-1.92a21.65,21.65,0,0,0,1.64-2,25.34,25.34,0,0,0,1.38-2.15,24.24,24.24,0,0,0,1.19-2.33c.37-.8.71-1.63,1-2.51a55.51,55.51,0,0,0,1.74-5.34c.48-1.81,1-3.61,1.46-5.33l1.25-4.9c.81-3.09,1.47-5.66,2-7.45s.74-2.82.74-2.82a7.37,7.37,0,0,1,14.23,3.77c-.06.23-.14.44-.21.65l0,0Z" fill="#009aa3"/>
                <path id="svg_1020" data-name="svg 1020" d="M236.22,247.72c.07-3,.16-5.92.1-8.89,0-1.34-.09-2.67-.19-4a18.9,18.9,0,0,0-.17-1.93l-.08-.69a1.88,1.88,0,0,0-.09-.7l.08.49a7.45,7.45,0,0,0-.34-2c-.1-.58-.22-1.15-.34-1.71-.24-1.16-.53-2.3-.86-3.43-.37-1.32-.8-2.62-1.25-3.9-.24-.68-.51-1.36-.77-2l-.38-.95v-.15l-.15-.34a5.43,5.43,0,0,1-.39-3.35,41.65,41.65,0,0,0-6.28-.89A19,19,0,0,0,214.36,215c-.41,2.26-.79,4.52-1.11,6.8a10.75,10.75,0,0,1-.18,1.25v.32c-.09.78-.2,1.55-.29,2.33-.19,1.57-.35,3.13-.5,4.7-1.8,18.54-1.35,37.17-1.1,55.78a60.32,60.32,0,0,0,15.09,1.55,50.93,50.93,0,0,0,11.41-1.16c-.24-1.41-.44-2.82-.62-4.24-1.43-11.45-1.15-23.11-.84-34.62Z" fill="#fff"/>
                <path id="svg_1021" data-name="svg 1021" d="M227.82,252.52Z" fill="#ffba94"/>
                <path id="svg_1022" data-name="svg 1022" d="M227.55,203.32c.66-3.08-7.4,3.32-7.4,3.32a38.15,38.15,0,0,1-2.34,6.9s1.92,4.14,5.78,3.77a8.67,8.67,0,0,0,5.94-2.91S226.88,206.4,227.55,203.32Z" fill="#b37d57"/>
                <path id="svg_1023" data-name="svg 1023" d="M227.55,203.32c.66-3.08-7.4,3.32-7.4,3.32a38.15,38.15,0,0,1-2.34,6.9s1.92,4.14,5.78,3.77a8.67,8.67,0,0,0,5.94-2.91S226.88,206.4,227.55,203.32Z" fill="#a67350"/>
                <path id="svg_1024" data-name="svg 1024" d="M212.74,225c1-4.19,3.09-10.56,6.19-13.56-17.45-.92-12.94,9.32-12.79,23.64.09,7.54,1,21.36.18,29.92l-1.66,17.92s1.26,2.33,8.3,3.77c-.12-1.14,2.84-34,3.14-36.19,0-.17-4.83-16.34-4.81-16.43l.15-1.12c.35-2.67.7-5.34,1.3-8Z" fill="#009aa3"/>
                <path id="svg_1025" data-name="svg 1025" d="M239.56,254c.59-7.63,3.5-19.71,4.31-29.45.38-4.43-4.09-10-13.92-13.16,1.25,2.4-14.4,35.09-14.48,35.66-.06.36-3.33,33.53-3,40.22.34,7.25,8.06,2.14,11.31.4h2.52c12.67,0,17.37-3.4,17.37-3.4C243.24,274.26,238.37,269.06,239.56,254Z" fill="#009aa3"/>
                <path id="svg_1026" data-name="svg 1026" d="M239.56,254c.59-7.63,2.79-19.36,3.62-29.08a7.37,7.37,0,0,0-1.13-4.46,9.76,9.76,0,0,1-7.28,4.19,67.57,67.57,0,0,1,0,11.73c-.37,4.17-1.18,8.33-1.39,12.57-.15,2.91-.15,5.83-.38,8.73a38.83,38.83,0,0,1-2,11.1,21.82,21.82,0,0,1-4.07,7.07,16,16,0,0,1-6.62,4.2,8.72,8.72,0,0,1-6.09-.48,6.34,6.34,0,0,1-1.45-.66c-.24,3.77-.37,6.85-.29,8.44.34,7.24,8,2.14,11.31.39h2.51c12.67,0,17.37-3.39,17.37-3.39-.47-10.12-5.34-15.32-4.15-30.35Z" fill="#008991"/>
                <path id="svg_1027" data-name="svg 1027" d="M216.78,243.84a9.26,9.26,0,0,0-1.35,3.24S216,245.8,216.78,243.84Z" fill="#00b0ba"/>
                <path id="svg_1028" data-name="svg 1028" d="M244.1,222.81s.2,1.19.56,3.27.85,5,1.4,8.56,1.17,7.7,1.73,12.19q.44,3.38.78,7c.12,1.25.22,2.44.29,3.69s.13,2.52.12,4a15,15,0,0,1-.13,2.33,11.64,11.64,0,0,1-.25,1.55,8.77,8.77,0,0,1-.33,1.14,1.3,1.3,0,0,1-.15.37l-.2.43-.13.23h0l-.06.08-.24.38-.19.33c-.11.19-.22.35-.36.6-.26.45-.52.93-.78,1.41-1,1.93-2,4-2.94,5.93-1.87,3.93-3.54,7.7-5,10.92s-2.59,5.95-3.4,7.84l-1.25,3h0a3.31,3.31,0,0,1-6.23-2.21s.34-1.15.92-3.16,1.45-4.83,2.52-8.24,2.3-7.39,3.77-11.66c.72-2.14,1.49-4.35,2.38-6.64.24-.58.47-1.16.73-1.76l.43-1,.21-.45.19-.4v-.1h0l-.07.14a2.39,2.39,0,0,0-.12.22l-.07.17-.1.29V263a8.34,8.34,0,0,0-.08-1.25c-.09-1-.24-2-.41-3.11s-.38-2.17-.59-3.26c-.42-2.19-.9-4.38-1.39-6.49-1-4.23-2-8.19-2.84-11.59s-1.64-6.22-2.2-8.18-.85-3.08-.85-3.08h0a7.36,7.36,0,1,1,14.05-4.41c0,.14.09.29.13.44a5.18,5.18,0,0,0,.11.73Z" fill="#009aa3"/>
                <path id="svg_1029" data-name="svg 1029" d="M228.25,210c.67,4.24-1.26,10.79-4.46,17.73-2.16,4.72-5.22,12-6.95,16.14,4-6.66,15.08-16.73,15.08-16.73l-2.31-3.77,2.75-.48c1.84-4.06,1.8-6.43.76-8.22-.93-1.44-4.87-4.67-4.87-4.67Z" fill="#33aeb5"/>
                <path id="svg_1030" data-name="svg 1030" d="M211,218.51l.91,1-2.72,3s0,.17.37,6.28c.2,3.37,5.87,18.4,5.87,18.4s-2.4-13.61-1.18-20.51,2.3-11.38,3.68-13.37a5.85,5.85,0,0,0,1.32-3.23c-1.72.85-8.25,8.49-8.25,8.49Z" fill="#33aeb5"/>
                <path id="svg_1031" data-name="svg 1031" d="M235.94,184.49c-8.34-7-8.37,9.83-8.37,9.83s1,4.65,4.4,3.27c4.9-2,8.4-9.38,4-13.1Z" fill="#002d42"/>
                <path id="svg_1032" data-name="svg 1032" d="M213.77,190.13s-3.45,12.43-1.08,17.26,6.49,5.69,13.07.29a20.78,20.78,0,0,0,7.54-12s-4.29-11.54-19.53-5.51Z" fill="#b37d57"/>
                <path id="svg_1033" data-name="svg 1033" d="M231.05,184.25a14.25,14.25,0,0,0-16,0c-3.39,2.24-3.52,8.13-3.52,8.13a43.35,43.35,0,0,0,6.87-2.13,39.1,39.1,0,0,0,10.46,9c1.53.82-1.47,6.86-1.47,6.86a11.31,11.31,0,0,0,5.65-5.49c2.16-4.25,2.39-13.43-2-16.34Z" fill="#002d42"/>
                <path id="svg_1034" data-name="svg 1034" d="M227.22,199.92l-.1.78s-.94,2.39.25,3.1,3.9-3.93,3-5S227.22,199.92,227.22,199.92Z" fill="#b37d57"/>
                <g id="svg_1035" data-name="svg 1035">
                  <g id="svg_1036" data-name="svg 1036" opacity="0.5">
                    <path id="svg_1037" data-name="svg 1037" d="M218.8,198.2c-2.51-.85-2.79-.5-2.78.28a5.25,5.25,0,0,0,2.84,4.47c2.29,1.2,3,.34,3.28-1.38s-.75-2.49-3.34-3.37Z" fill="#fff"/>
                  </g>
                  <g id="svg_1038" data-name="svg 1038" opacity="0.5">
                    <path id="svg_1039" data-name="svg 1039" d="M212.42,195.45c-2.08-1.08-2.78-1-2.52.92s.71,3.28,2.52,3.84c.83.27,2.51.26,2.51-2.2C214.93,197.24,214.58,196.58,212.42,195.45Z" fill="#fff"/>
                  </g>
                  <path id="svg_1040" data-name="svg 1040" d="M222.61,199.66a20,20,0,0,0-2.88-1.36h0l-.63-.24-.32-.11a7.83,7.83,0,0,0-2.13-.53h-.25a2.89,2.89,0,0,1-1-.1,5,5,0,0,1-.89-.7l-.23-.19a10,10,0,0,0-1.89-1.26l-.27-.13-.55-.27h0a7.65,7.65,0,0,0-2.12-.7h0s-.07,0-.08.09,0,.25,0,.42a.21.21,0,0,0,.09.2h0a.69.69,0,0,1,.15.46v.12a3.93,3.93,0,0,0,0,.84c.19,1.75.61,3.08,2,3.78a6.09,6.09,0,0,0,.71.27,1.9,1.9,0,0,0,2.49-1,1.88,1.88,0,0,0,.15-.81h0a.74.74,0,0,1,0-.21c0-.44.22-.42.31-.38h0c.1,0,.34.19.38.76a.11.11,0,0,1,0,.08v.12a5.58,5.58,0,0,0,3,4.19,5.49,5.49,0,0,0,.86.38c1.81.63,2.4-.29,2.65-1.83a3.3,3.3,0,0,0,0-.77v-.16c0-.32.2-.32.2-.32h.08a.1.1,0,0,0,.13-.05s0,0,0-.05c0-.19,6.13-1.57,6.12-1.75,2.41-.74-6,1.27-6.11,1.21Zm-10.19.32a3.77,3.77,0,0,1-.66-.26c-1.25-.61-1.57-1.71-1.74-3.35a1.84,1.84,0,0,1,.17-1.35c.18-.2.86-.11,1.95.44a1.47,1.47,0,0,0,.28.14c2.13,1.13,2.35,1.69,2.35,2.3,0,2.67-2,2.24-2.35,2.11Zm9.51,1.44c-.25,1.45-.73,2.2-2.26,1.67a7,7,0,0,1-.79-.35,5,5,0,0,1-2.68-4.22c0-.62.15-1,2.61-.17l.33.12a5.38,5.38,0,0,1,2.51,1.44,1.91,1.91,0,0,1,.32,1.55l0,0Z" fill="#434d57"/>
                </g>
                <polygon id="svg_1041" data-name="svg 1041" points="209.98 194.48 213.09 192.94 213.19 192.49 209.51 194.17 209.98 194.48" fill="#434d57"/>
              </g>
            </g>
          </g>
        </g>
        <polygon id="svg_1042" data-name="svg 1042" points="189.38 294.94 259.32 335.33 259.72 284.54 189.77 244.16 189.38 294.94" fill="#ffd554"/>
      </g>
    </g>
    <g id="wifi" opacity="0.8">
      <g id="svg_1043" data-name="svg 1043">
        <g id="ww1">
          <path id="svg_1044" data-name="svg 1044" d="M227.77,124c-3-1.7-5.92-2.11-8.17-.83-.47.28-.47,1.14,0,2a2.53,2.53,0,0,0,.85.9.84.84,0,0,0,.85.08c1.79-1,4.12-.68,6.46.67a18.53,18.53,0,0,1,6.44,6.78,2.27,2.27,0,0,0,.85.89.84.84,0,0,0,.86.09c.46-.26.47-1.14,0-2a23.51,23.51,0,0,0-8.14-8.58Z" fill="#fff"/>
        </g>
        <g id="ww2">
          <path id="svg_1045" data-name="svg 1045" d="M227.79,116c-4.73-2.74-9.47-3.39-13.09-1.34-.46.27-.46,1.15,0,2a2.4,2.4,0,0,0,.86.9.89.89,0,0,0,.85.09c3.14-1.8,7.25-1.26,11.31,1.16A32.5,32.5,0,0,1,239,130.73a2.4,2.4,0,0,0,.86.9.86.86,0,0,0,.85.09c.48-.28.48-1.16,0-2a37.39,37.39,0,0,0-13-13.75Z" fill="#fff"/>
        </g>
        <g id="ww3">
          <path id="svg_1046" data-name="svg 1046" d="M227.81,108.23c-6.73-3.89-13.08-4.54-17.86-1.81-.47.28-.47,1.14,0,2a2.59,2.59,0,0,0,.86.91.86.86,0,0,0,.85.07c4.33-2.51,10.06-1.87,16.15,1.65s11.83,9.55,16.13,17a2.39,2.39,0,0,0,.84.89.84.84,0,0,0,.85.09c.48-.26.48-1.14,0-2-4.75-8.22-11.09-14.89-17.82-18.79Z" fill="#fff"/>
        </g>
      </g>
    </g>
    <g id="p">
      <path id="svg_1047" data-name="svg 1047" d="M236.58,279l-8.88-5.13c-.63-.37-1.13-.08-1.13.64v10.22a2.49,2.49,0,0,0,1.12,1.93l8.88,5.13c.63.36,1.13.08,1.13-.64V281a2.47,2.47,0,0,0-1.12-1.94Z" fill="#fff"/>
    </g>
    <g id="q">
      <path id="svg_1048" data-name="svg 1048" d="M251.49,288.15l-8.9-5.14c-.61-.35-1.12-.06-1.12.64v10.22a2.53,2.53,0,0,0,1.12,1.95l8.9,5.12c.61.36,1.12.08,1.12-.64V290.09a2.52,2.52,0,0,0-1.12-1.94Z" fill="#fff"/>
    </g>
    <g id="n">
      <path id="svg_1049" data-name="svg 1049" d="M206.75,262.12,197.86,257c-.61-.35-1.13-.07-1.13.65v10.21a2.54,2.54,0,0,0,1.12,1.94l8.89,5.14c.62.35,1.13.06,1.13-.65V264.07a2.53,2.53,0,0,0-1.12-1.95Z" fill="#fff"/>
    </g>
    <g id="o">
      <path id="svg_1050" data-name="svg 1050" d="M221.65,271.3l-8.89-5.13c-.62-.37-1.12-.08-1.12.64V277a2.48,2.48,0,0,0,1.13,1.94l8.88,5.13c.62.37,1.12.08,1.13-.64V273.23a2.5,2.5,0,0,0-1.13-1.93Z" fill="#fff"/>
    </g>
    <g id="s">
      <path id="svg_1051" data-name="svg 1051" d="M218.29,235,163,203.14a.57.57,0,0,0-.77.22.48.48,0,0,0-.07.26L162,251.38a.46.46,0,0,0,.24.4l55.3,29.62a.66.66,0,0,0,.9-.25.69.69,0,0,0,.09-.34V235.39A.39.39,0,0,0,218.29,235Z" fill="#0f3c5f"/>
      <g id="svg_1052" data-name="svg 1052">
        <polygon id="svg_1053" data-name="svg 1053" points="163.77 205.58 163.29 207.43 163.16 249.54 187.17 263.32 187.13 219.08 163.77 205.58" fill="#ededed"/>
        <polygon id="svg_1054" data-name="svg 1054" points="186.98 263.34 213.94 280.3 216.58 280.3 216.58 236.04 187.13 219.08 186.98 263.34" fill="#ededed"/>
        <g id="svg_1055" data-name="svg 1055">
          <path id="svg_1056" data-name="svg 1056" d="M187.17,223.05v-1.86A3.9,3.9,0,0,0,187.17,223.05Z" fill="#fff"/>
          <path id="svg_1057" data-name="svg 1057" d="M187.17,223.05v42.39s-1.2,1.37,2.39,4.06c6.28,4.67,24.38,10.8,24.38,10.8V236.11s-18-6.89-23.52-9.47a5.29,5.29,0,0,1-3.25-3.59Z" fill="#fff"/>
        </g>
        <path id="svg_1058" data-name="svg 1058" d="M178.31,219.28a97.17,97.17,0,0,1-15-11.85l-.13,44.25s9.25,9,14.32,11.31c7.6,3.49,9.69,2.51,9.69,2.51V221.19s-3.27,1.46-8.86-1.91Z" fill="#fff"/>
        <path id="svg_1059" data-name="svg 1059" d="M185.52,258.2a10.92,10.92,0,0,1-2.42,6.89c3.13.84,4.12.35,4.12.35V221.19a5,5,0,0,1-1.7.3Z" fill="#ededed"/>
      </g>
      <path id="svg_1060" data-name="svg 1060" d="M185.9,216.61l5.18,3C190.33,216.15,185.9,216.61,185.9,216.61Z" fill="#0f3c5f"/>
      <path id="svg_1061" data-name="svg 1061" d="M185.18,218l4.69,2.7C189.2,217.52,185.18,218,185.18,218Z" fill="#ededed"/>
      <g id="svg_1062" data-name="svg 1062">
        <path id="svg_1063" data-name="svg 1063" d="M182,224.67c-3.57-.35-7.42-2.37-11.44-6a41,41,0,0,1-5-5.35l.79-.59c.07.1,7.7,10.19,15.72,11l0,1Z" fill="#ededed"/>
        <path id="svg_1064" data-name="svg 1064" d="M182,230.25c-3.56-.34-7.42-2.35-11.44-5.94a42.53,42.53,0,0,1-5-5.29l.79-.61c.07.1,7.7,10.06,15.72,10.86Z" fill="#ededed"/>
        <path id="svg_1065" data-name="svg 1065" d="M182,235.84c-3.56-.35-7.42-2.33-11.44-5.89a41.38,41.38,0,0,1-5-5.23l.79-.6c.07.1,7.7,9.94,15.72,10.73Z" fill="#ededed"/>
        <path id="svg_1066" data-name="svg 1066" d="M182,241.42c-3.56-.35-7.4-2.31-11.44-5.83a41.4,41.4,0,0,1-5-5.15l.79-.62c.07.1,7.7,9.83,15.72,10.61Z" fill="#ededed"/>
        <path id="svg_1067" data-name="svg 1067" d="M182,247c-3.56-.34-7.4-2.28-11.44-5.75a41.78,41.78,0,0,1-5-5.11l.79-.61c.07.1,7.7,9.7,15.72,10.48l0,1Z" fill="#ededed"/>
        <path id="svg_1068" data-name="svg 1068" d="M182,252.6c-3.56-.36-7.4-2.28-11.44-5.71a39.76,39.76,0,0,1-5-5l.78-.61c.07.1,7.7,9.57,15.72,10.37Z" fill="#ededed"/>
        <path id="svg_1069" data-name="svg 1069" d="M182,258.18c-3.56-.36-7.4-2.25-11.42-5.63a39.84,39.84,0,0,1-5-5l.77-.63c.08.1,7.7,9.46,15.73,10.24l0,1.05Z" fill="#ededed"/>
      </g>
      <g id="svg_1070" data-name="svg 1070">
        <path id="svg_1071" data-name="svg 1071" d="M211.91,240a107.4,107.4,0,0,1-12.77-3.77c-7.93-2.8-9.16-5.19-9.27-5.45l.9-.41-.45.2.45-.21s1.19,2.28,8.7,4.93a105.4,105.4,0,0,0,12.64,3.77l-.2.94Z" fill="#ededed"/>
        <path id="svg_1072" data-name="svg 1072" d="M211.91,245.77a131.13,131.13,0,0,1-12.85-4.05c-7.54-2.76-9-5.31-9.06-5.41l.86-.48s1.42,2.35,8.54,5c4.18,1.55,8.44,2.88,12.75,4l-.24.9Z" fill="#ededed"/>
        <path id="svg_1073" data-name="svg 1073" d="M211.91,251.57c-.06,0-6.12-1.74-12.95-4.34-7.09-2.7-8.8-5.29-8.8-5.4l.84-.53-.41.26.41-.26s1.66,2.45,8.36,5,12.82,4.29,12.87,4.32l-.32.93Z" fill="#ededed"/>
        <path id="svg_1074" data-name="svg 1074" d="M211.91,257.36s-6.63-2.07-13-4.64-8.56-5.26-8.64-5.38l.82-.58s1.9,2.52,8.19,5,12.91,4.58,13,4.6l-.29,1Z" fill="#ededed"/>
        <path id="svg_1075" data-name="svg 1075" d="M211.84,263.14c-.08,0-7.14-2.41-13.15-4.91s-8.34-5.26-8.43-5.37l.78-.63s2.17,2.64,8,5,13,4.86,13.08,4.89l-.31,1Z" fill="#ededed"/>
        <path id="svg_1076" data-name="svg 1076" d="M211.83,268.93c-.08,0-7.65-2.75-13.25-5.21a24.26,24.26,0,0,1-8.22-5.36l.75-.65a24,24,0,0,0,7.86,5.1c5.58,2.44,13.12,5.16,13.19,5.19l-.33.93Z" fill="#ededed"/>
        <path id="svg_1077" data-name="svg 1077" d="M211.83,274.73c-.09,0-8.16-3.11-13.36-5.51a27.54,27.54,0,0,1-8-5.35l.73-.68a27.3,27.3,0,0,0,7.69,5.13c5.18,2.39,13.21,5.45,13.3,5.48l-.35.93Z" fill="#ededed"/>
      </g>
    </g>
  </g>
  <g id="t">
    <path id="svg_1079" data-name="svg 1079" d="M71.23,192.75c-3,3.77-16.05,40.22,7.79,42.35,13.68,1.26,16.84-10.67,16.84-10.67l2.52-42.1S84,177,71.23,192.75Z" fill="#002d42"/>
    <g id="svg_1080" data-name="svg 1080">
      <path id="svg_1081" data-name="svg 1081" d="M118.17,331.13s-5.16-5.11-7.26-5.88c-5.34-1.95-5.85,1.14-5.85,1.14l-.6,4a3.28,3.28,0,0,0,1.48,2.66l5.43,1.91s6,4.36,8.45,3.21C122,337.14,123.74,334.27,118.17,331.13Z" fill="#fff"/>
      <path id="svg_1082" data-name="svg 1082" d="M94.77,345.23s-5.66-4.7-7.54-5.55c-5.33-2.38-5.32,1.25-5.32,1.25l-.7,3.66A2.91,2.91,0,0,0,82.67,347l10.2,5.53s4.51,1.12,5.92-2.67v-.25c-.41-1.65-2.88-3.23-4-4.38Z" fill="#fff"/>
      <path id="svg_1083" data-name="svg 1083" d="M114.44,238.81v1c0,.68,0,1.62.09,2.84s.07,2.7.11,4.39.06,3.58.09,5.65v14.09c0,2.58,0,5.24-.1,8,0,1.34,0,2.71-.1,4.07s0,2.75-.12,4.12l-.15,4.1-.15,4.06c-.11,2.66-.22,5.3-.33,7.84-.2,5-.38,9.84-.55,13.9-.09,2-.16,3.9-.21,5.56s-.11,3.09-.15,4.27c-.08,2.37-.12,3.77-.12,3.77a3.77,3.77,0,0,1-7.4.19h0s-.11-1.35-.29-3.71c-.08-1.18-.21-2.61-.34-4.26s-.29-3.51-.47-5.53-.38-4.21-.58-6.52-.43-4.77-.68-7.29-.5-5.14-.78-7.78c-.14-1.32-.28-2.65-.41-4l-.12-1-.11-1-.23-2c-.15-1.32-.31-2.66-.49-4s-.32-2.64-.5-3.95c-.35-2.6-.73-5.17-1.09-7.65-.2-1.26-.39-2.51-.58-3.66s-.39-2.35-.57-3.48-.39-2.23-.56-3.3-.38-2.09-.56-3.08c-.35-2-.7-3.77-1-5.36s-.61-3-.83-4.11-.44-2-.58-2.61-.2-.88-.2-.88A10.14,10.14,0,1,1,114,236.4c0,.18.09.36.12.55a11,11,0,0,1,.26,1.81l.06.05Z" fill="#0f3c5f"/>
      <path id="svg_1084" data-name="svg 1084" d="M106.94,316.25a190.11,190.11,0,0,0-.31-19.54c-.39-7.68-.31-15.35,0-23s.73-15.47.53-23.21a9.31,9.31,0,0,1,7.37-9.06v-2.7a12.13,12.13,0,0,0-.25-1.81,10.15,10.15,0,1,0-19.89,4c0,.18.08.37.13.55l.2.88c.13.58.34,1.48.58,2.61s.51,2.52.83,4.11.66,3.4,1,5.36c.17,1,.36,2,.55,3.08s.36,2.16.56,3.3.38,2.3.57,3.48.38,2.42.58,3.66c.36,2.51.74,5,1.09,7.65.18,1.26.34,2.63.5,4s.34,2.67.49,4l.23,2,.11,1,.12,1c.13,1.34.27,2.67.41,4,.28,2.64.54,5.25.78,7.78s.48,5,.68,7.29.4,4.5.58,6.52.34,3.88.47,5.53.26,3.08.34,4.26c.18,2.36.29,3.71.29,3.71h0a3.6,3.6,0,0,0,.91,2.13c0-4.14.31-8.32.53-12.49Z" opacity="0.1" style="isolation: isolate"/>
      <path id="svg_1085" data-name="svg 1085" d="M99.82,241.23s-.15,1.56-.43,4.28-.65,6.61-1.1,11.31-.94,10.12-1.5,15.95S95.74,284.82,95.2,291c-.14,1.56-.27,3.1-.4,4.65s-.26,3.05-.37,4.58c0,.75-.14,1.54-.2,2.33s-.14,1.59-.23,2.34c-.15,1.52-.3,3-.46,4.5-.32,2.94-.67,5.77-1,8.46s-.62,5.21-.89,7.54C90.52,334.78,89.76,341,89.76,341a3.77,3.77,0,0,1-7.42-.52h0V317.37c0-2.68-.09-5.49-.16-8.4,0-1.44-.09-2.91-.14-4.39,0-.76-.06-1.47-.09-2.22s-.06-1.45-.11-2.23-.08-1.54-.13-2.3,0-1.6-.09-2.4c0-1.57-.11-3.15-.17-4.72-.22-6.28-.43-12.5-.64-18.37s-.42-11.31-.61-16-.35-8.6-.46-11.31-.19-4.3-.19-4.3a10.11,10.11,0,0,1,20.21-.89,10.9,10.9,0,0,1,0,1.4Z" fill="#0f3c5f"/>
      <path id="svg_1086" data-name="svg 1086" d="M85.14,343.82c-.06-4.63.32-9.28.36-13.92.06-7.74.37-15.46.69-23.19.3-7.48.52-14.94,1.14-22.39.57-6.81,1.14-13.69.41-20.5v-.4a10.63,10.63,0,0,1,1-7.2,9.41,9.41,0,0,1,5.58-4.3,8.78,8.78,0,0,1,4.55-.08c.25-2.51.45-4.64.63-6.28.27-2.72.42-4.28.42-4.28v-.15a10.9,10.9,0,0,0,0-1.4,10.11,10.11,0,0,0-20.21.89s.08,1.56.19,4.3.28,6.65.47,11.31.39,10.15.6,16,.43,12.13.64,18.37c0,1.57.11,3.15.18,4.72,0,.8.06,1.59.09,2.4s.08,1.53.12,2.3.08,1.5.11,2.23.08,1.46.09,2.22c0,1.48.1,2.95.14,4.39.08,2.91.14,5.72.16,8.4s0,5.2,0,7.54v15.57h0a3.78,3.78,0,0,0,2.69,3.81Z" opacity="0.1" style="isolation: isolate"/>
      <path id="svg_1087" data-name="svg 1087" d="M112.63,178l.36.46,1.1,1.25c.94,1.13,2.31,2.73,4,4.62s3.61,4.07,5.76,6.28c1.06,1.12,2.18,2.25,3.31,3.33,1.61,1.52,1.88,1.56,3.41,3,2.43,2.2,4.64,3.77,4.47,5.27-.26,2.3-6.1,4.67-9.81,3.06a29.72,29.72,0,0,1-4.86-3.11c-1.48-1.09-2.84-2.17-4.15-3.24-2.59-2.16-4.9-4.22-6.86-6-1-.89-1.86-1.73-2.64-2.51l-2-1.93-1.26-1.26-.46-.48a6.48,6.48,0,0,1,9.23-9.1c.13.13.26.27.37.4Z" fill="#f9b395"/>
      <path id="svg_1088" data-name="svg 1088" d="M110.56,174.27v19.9c.5.34,4.57,5.62,5.08,6,6.29-2.7,8.27-10.54,8.27-10.54S113.58,177.15,110.56,174.27Z" fill="#f25512"/>
      <g id="thand">
        <path id="svg_1089" data-name="svg 1089" d="M160.86,213.79s-1.94-2.52-3-2.81c-1.57-.4-6.28.91-7.54,1.49-.29.14,0,0-.77,1.88-.41,1-.19,1.46.64,2.26a10.42,10.42,0,0,0,5,2.17,15.86,15.86,0,0,0,4.79-.73c.62-.29-.34-1.16-.34-1.16.89-.11.94-.44.94-.44s5-.17,6.11-.07c2,.18,1.9-1,1.9-1l-7.81-1.56Z" fill="#f9b395"/>
        <path id="svg_1090" data-name="svg 1090" d="M154.1,213.61l-21.1-15s-6.81-3.6-7.54,4.46a8.81,8.81,0,0,0,4.51,5.36q5.55,2.85,11.93,5.6c3.68,1.59,7.24,3,10.63,4.2a2.35,2.35,0,0,0,2.87-1.36A2.71,2.71,0,0,0,154.1,213.61Z" fill="#f9b395"/>
      </g>
      <path id="svg_1091" data-name="svg 1091" d="M115.7,194.7c-.76-10.23,1.08-26.19-18.86-22.51a36.1,36.1,0,0,0-15.4,6.65c-11.55,8.79-1,28.81-2,24.91,4.44,17.46-1.44,15.73-.3,38.48a17.43,17.43,0,0,0,14.2,3.71c14.38-3,21.61-8.06,21.61-8.06s.3-6.5-.18-23.53C114.69,210.67,116,198.4,115.7,194.7Z" fill="#f25512"/>
      <path id="svg_1092" data-name="svg 1092" d="M107.71,234.16A20.45,20.45,0,0,1,91,223.82c-3.19-5.23-4.4-11.23-5.14-17.2a46,46,0,0,1-.32-7.32,38.27,38.27,0,0,1-2.94-6.45,22.46,22.46,0,0,1-.78-11.24,14.7,14.7,0,0,1,1.26-4,14.15,14.15,0,0,0-1.68,1.26c-11.55,8.8-1,28.82-2,24.91,4.44,17.47-1.44,15.73-.3,38.48A17.4,17.4,0,0,0,93.36,246c14.38-3,21.61-8.06,21.61-8.06s.07-1.66.08-5.49a13.26,13.26,0,0,1-7.34,1.71Z" opacity="0.05" style="isolation: isolate"/>
      <g id="thead-2">
        <path id="svg_1093" data-name="svg 1093" d="M103,162.67l-8.28.62-2.63,10.17a5.93,5.93,0,0,0,11.81-1.12Z" fill="#f9b395"/>
        <path id="svg_1094" data-name="svg 1094" d="M101.93,175h0a1.83,1.83,0,0,0,2-1.69,4.18,4.18,0,0,0,0-1l-.9-9.67-8.28.62-1.54,5.94C93.45,169.5,93.6,174,101.93,175Z" opacity="0.05" style="isolation: isolate"/>
        <path id="svg_1095" data-name="svg 1095" d="M91.48,164.3c-.32,5,7.83,8.14,8.35,8.28,4,1.09,7.47-1.72,7.8-6.76l.83-12.66-17.38,2Z" fill="#f9b395"/>
        <path id="svg_1096" data-name="svg 1096" d="M106.62,147.86c-6.52-4.72-12.57-2.62-17,2.22-2.14,2.38-1.11,7.54-.67,9.88a17.57,17.57,0,0,0,4.32,8.71l.63-8.58.88,1.73,1.5-.94s-.39-3.64-.33-4.23c.24-2,12.32-1.53,12.32-1.53S113.75,153,106.62,147.86Z" fill="#002d42"/>
        <path id="svg_1097" data-name="svg 1097" d="M91,160.32c-.41,2.17,1.12,4.91,2.93,4.21l.11-4.27s-2.47-2.86-3,.06Z" fill="#f9b395"/>
      </g>
      <g id="svg_1098" data-name="svg 1098">
        <path id="svg_1099" data-name="svg 1099" d="M96.79,253l1,1.26s2.12.89,3.1-1.78l-1.33-.92L96.79,253Z" fill="#00b0ba"/>
        <polygon id="svg_1100" data-name="svg 1100" points="78.98 227.49 80.84 243.91 100.85 252.4 99 236.15 78.98 227.49" fill="#00b0ba"/>
        <path id="svg_1101" data-name="svg 1101" d="M98.36,236.69,79.05,228l-2.64,1.45,3.47,15.09,17.79,9a2.23,2.23,0,0,0,1.7-.11,1.54,1.54,0,0,0,.73-1.51Z" fill="#ededed"/>
        <polygon id="svg_1102" data-name="svg 1102" points="75.88 229.27 77.74 245.7 97.75 254.18 95.9 237.92 75.88 229.27" fill="#00b0ba"/>
      </g>
      <path id="svg_1103" data-name="svg 1103" d="M89.35,190.68l-1,2.31c-.31.74-.69,1.64-1.12,2.69l-1.43,3.49c-1,2.51-2.24,5.57-3.44,8.8-.6,1.59-1.26,3.25-1.79,4.91-.27.84-.55,1.67-.8,2.52s-.49,1.63-.67,2.38c-.1.38-.17.73-.22,1l-.08.37h0v.88a.24.24,0,0,0,0,.12v1.69c.1,1.68.3,3.44.52,5.14s.45,3.35.66,4.94.47,3.06.68,4.45c.45,2.75.83,5,1.11,6.66s.42,2.51.42,2.51h0a2.51,2.51,0,0,1-4.73,1.26s-.08-.23-.24-.64-.37-1-.66-1.81c-.55-1.56-1.34-3.77-2.23-6.49s-1.93-5.85-2.89-9.32c-.48-1.75-1-3.56-1.39-5.51a4.15,4.15,0,0,0-.15-.75c0-.27-.1-.49-.15-.77v-.82l-.11-.94v-.9a4.86,4.86,0,0,1,0-.54v-.49a14.48,14.48,0,0,1,.15-1.76c.13-1.08.28-2.1.45-3.09s.37-1.95.57-2.91c.4-1.88.83-3.77,1.26-5.45s.88-3.43,1.25-5,.84-3.07,1.26-4.45.75-2.61,1.09-3.77.63-2.07.87-2.86.44-1.42.58-1.85l.21-.67a6.49,6.49,0,0,1,12.36,4c-.06.18-.13.35-.21.53l-.15.19Z" fill="#f9b395"/>
      <path id="svg_1104" data-name="svg 1104" d="M74.37,236.89a118.77,118.77,0,0,1-1.63-20.45,9.51,9.51,0,0,1,9.34-9.34h.61c1.1-2.89,2.18-5.59,3.13-7.93l1.43-3.49c.43-1.05.81-2,1.12-2.69l1-2.31h0a3.82,3.82,0,0,0,.2-.53,6.48,6.48,0,0,0-12.35-4l-.21.67c-.14.42-.33,1-.58,1.84s-.54,1.76-.87,2.87-.71,2.36-1.09,3.77-.81,2.87-1.26,4.45-.88,3.25-1.26,5-.85,3.57-1.25,5.45c-.2,1-.39,1.91-.57,2.9s-.32,2-.45,3.1c0,.55-.13,1.11-.15,1.75v.49a5,5,0,0,0,0,.55v.9l.11.94v.82a3.75,3.75,0,0,0,.15.77l.15.75c.42,1.95.91,3.77,1.39,5.51,1,3.46,2,6.62,2.89,9.32.22.65.42,1.26.64,1.9a26,26,0,0,0-.47-3.09Z" opacity="0.05" style="isolation: isolate"/>
      <path id="svg_1105" data-name="svg 1105" d="M91.62,251c-2.52-1.7-2.67-2.82-2.67-2.82a6.9,6.9,0,0,1,2.41.65c1.83.92,1.93-.55,1.93-.55a45.51,45.51,0,0,1-4.39-2.89c-.92-.82-7.05-1.76-7.05-1.76s-2.66-2.31-4,1.51,7.1,6.57,10.16,7.74c1.68.64,5.93-.35,5.93-.35s-.63-.4-2.31-1.53Z" fill="#f9b395"/>
      <path id="svg_1106" data-name="svg 1106" d="M87.9,179.33c-5.48-2.17-9.14.08-11.53,5.46-1.61,3.62-6.09,18.85-6.09,18.85s6.52,6,13.54,3.62l7.26-18.85s-1.34-8.35-3.18-9.08Z" fill="#f25512"/>
      <path id="svg_1107" data-name="svg 1107" d="M82,184.58a9.1,9.1,0,0,1,4-4l.7-1.58h0c-4.82-1.4-8.13.88-10.34,5.87-1.61,3.62-6.1,18.86-6.1,18.86a19,19,0,0,0,5.83,3.39c.81-7.73,1.2-16.44,5.94-22.51Z" opacity="0.05" style="isolation: isolate"/>
    </g>
    <path id="svg_1108" data-name="svg 1108" d="M84,177s3.48,18,2.89,22.39-7.54,19.67-7.54,19.67l.72,4.54s8.68-13.92,9.67-18.47c2.69-12-.25-23.48-1.84-30.44,0,0-2.92.84-3.9,2.31Z" fill="#002d42"/>
  </g>
</svg>