<svg width="799.9999999999999" height="450" xmlns="http://www.w3.org/2000/svg">
 <g>
  <title>background</title>
  <rect fill="#fff" id="canvas_background" height="502" width="890.88889" y="-1" x="-1"/>
 </g>
 <style>#a
{
    animation-name: adiamondScale;
    animation-duration: 15s;
    animation-fill-mode: forwards;ransform-origin: bottom;
    transform-box: fill-box;
}
@keyframes adiamondScale {
    0%   { transform: scale(0); }
    
    
    3% { transform: scale(01); }
}
#b
{
    animation-name: b;
    animation-duration: 15s;
    animation-fill-mode: forwards;ransform-origin: bottom;
    transform-box: fill-box;
}
@keyframes b {
    0%   { transform: scale(0); }
    3%   { transform: scale(0); }
    
    4% { transform: scale(01); }
}
#c {
    
        animation-name: diamondStroke;
        animation-duration: 15s;
        animation-fill-mode: forwards;
        stroke-dasharray: 500;
            stroke-dashoffset: 500;
    }
    @keyframes diamondStroke {
        0%   { stroke-dashoffset: 500; }
        1%   { stroke-dashoffset: 500; }
        20% { stroke-dashoffset: 0; }
        100% { stroke-dashoffset: 0; }
        
}
#d
{
    animation-name: d;
    animation-duration: 15s;
    animation-fill-mode: forwards;
    ransform-origin: bottom;
    transform-box: fill-box;
}
@keyframes d {
    0%   { transform: scale(0); }
    4%   { transform: scale(0); }
    
    5% { transform: scale(01); }
}
#sig1
{
    animation-name: sig1;
    animation-duration: 15s;
   animation-iteration-count: infinite;
    ransform-origin: center;
    transform-box: fill-box;
}
@keyframes sig1 {
    0%   { transform: scale(0); }
    5.5%   { transform: scale(0); }
    
    5.7% { transform: scale(01); }
}
#e
{
    animation-name: e;
    animation-duration: 15s;
    animation-fill-mode: forwards;
    transform-origin: bottom;
    transform-box: fill-box;
}
@keyframes e {
    0%   { transform: scale(0); }
    8%   { transform: scale(0); }
    
    9% { transform: scale(01); }
}
#sig3
{
    animation-name: sig3;
    animation-duration: 15s;
   animation-iteration-count: infinite;
    transform-origin: center;
    transform-box: fill-box;
}
@keyframes sig3 {
    0%   { transform: scale(0); }
    9.5%   { transform: scale(0); }
    
    9.7% { transform: scale(01); }
}
#f{
    
    animation-name: f;
    animation-duration: 15s;
    animation-iteration-count: infinite;
    stroke-dasharray: 300;
        stroke-dashoffset: 300;
}
@keyframes f {
    0%   { stroke-dashoffset: 300; }
    5% { stroke-dashoffset: 300; }
    25% { stroke-dashoffset: 0; }
    100% { stroke-dashoffset: 0; }
    
}
#f2{
    
    animation-name: f2;
    animation-duration: 15s;
    animation-iteration-count: infinite;
    stroke-dasharray: 300;
        stroke-dashoffset: 300;
}
@keyframes f2 {
    0%   { stroke-dashoffset: 0; }
    5% { stroke-dashoffset: 0; }
    35% { stroke-dashoffset: 300; }
    100% { stroke-dashoffset: 300; }
    
}
#g
{
    animation-name: g;
    animation-duration: 15s;
    animation-fill-mode: forwards;
    transform-origin: bottom;
    transform-box: fill-box;
}
@keyframes g {
    0%   { transform: scale(0); }
    9%   { transform: scale(0); }
    
    11% { transform: scale(01); }
}
#h
{
    animation-name: h;
    animation-duration: 15s;
    animation-fill-mode: forwards;
    tanimation-fill-mode: forwards;rm-box: fill-box;
}
@keyframes h {
    0%   { transform: scale(0); }
    10%   { transform: scale(0); }
    
    11% { transform: scale(01); }
}
#sig2
{
    animation-name: sig2;
    animation-duration: 15s;
    animation-iteration-count: infinite;
    transform-origin: center;
    transform-box: fill-box;
}
@keyframes sig2 {
    0%   { transform: scale(0); }
    11.5%   { transform: scale(0); }
    
    11.7% { transform: scale(01); }
}
#i
{
    animation-name: i;
    animation-duration: 15s;
    animation-fill-mode: forwards;
    transform-origin: bottom;
    transform-box: fill-box;
}
@keyframes i {
    0%   { transform: scale(0); }
    14%   { transform: scale(0); }
    
    14.5% { transform: scale(01); }
}
#j{
    
    animation-name: j;
    animation-duration: 15s;
    animation-iteration-count: infinite;
    stroke-dasharray: 100;
        stroke-dashoffset: 100;
}
@keyframes j {
    0%   { stroke-dashoffset: 0; }
    10% { stroke-dashoffset: 0; }
    20% { stroke-dashoffset: 100; }
    100% { stroke-dashoffset: 100; }
    
}
#k
{
    animation-name: k;
    animation-duration: 15s;
    animation-fill-mode: forwards;
    transform-origin: bottom;
    transform-box: fill-box;
}
@keyframes k {
    0%   { transform: scale(0); }
    19%   { transform: scale(0); }
    
    19.5% { transform: scale(01); }
}
#l
{
    animation-name: ll;
    animation-duration: 15s;
    animation-fill-mode: forwards;
    transform-origin: center;
    transform-box: fill-box;
}
@keyframes ll {
    0%   { transform: scale(0); }
    19%   { transform: scale(0); }
    
    19.5% { transform: scale(01); }
}
#m
{
    animation-name: m;
    animation-duration: 15s;
    animation-fill-mode: forwards;
    transforn-origion:bottom;
  transform-box: fill-box;
}
@keyframes m {
    0%   { transform: scale(0); }
    20%   { transform: scale(0); }
    
    20.5% { transform: scale(01); }
}
#n
{
    animation-name: n;
    animation-duration: 15s;
    animation-fill-mode: forwards;
    transform-origin: center;
    transform-box: fill-box;
}
@keyframes n {
    0%   { transform: scale(0); }
    21%   { transform: scale(0); }
    
    21.5% { transform: scale(01); }
}
#o
{
    animation-name: o;
    animation-duration: 15s;
    animation-fill-mode: forwards;
    transform-origin: center;
    transform-box: fill-box;
}
@keyframes o {
    0%   { transform: scale(0); }
    22%   { transform: scale(0); }
    
    22.5% { transform: scale(01); }
}
#p
{
    animation-name: p;
    animation-duration: 15s;
    animation-fill-mode: forwards;
    transform-origin: center;
    transform-box: fill-box;
}
@keyframes p {
    0%   { transform: scale(0); }
    23%   { transform: scale(0); }
    
    23.5% { transform: scale(01); }
}
#q
{
    animation-name: q;
    animation-duration: 15s;
    animation-fill-mode: forwards;
    transform-origin: center;
    transform-box: fill-box;
}
@keyframes q {
    0%   { transform: scale(0); }
    24%   { transform: scale(0); }
    
    25.5% { transform: scale(01); }
}
#r
{
    animation-name: r;
    animation-duration: 15s;
    animation-fill-mode: forwards;
    transform-origin: bottom;
    transform-box: fill-box;
}
@keyframes r {
    0%   { transform: scale(0); }
    26%   { transform: scale(0); }
    
    27.5% { transform: scale(01); }
}
#s
{
    animation-name: s;
    animation-duration: 15s;
    animation-fill-mode: forwards;
    transform-origin: bottom;
    transform-box: fill-box;
}
@keyframes s {
    0%   { transform: scale(0); }
    27.5%   { transform: scale(0); }
    
    28.5% { transform: scale(01); }
}
#t
{
    animation-name: t;
    animation-duration: 15s;
    animation-fill-mode: forwards;
    transform-origin: bottom;
    transform-box: fill-box;
}
@keyframes t {
    0%   { transform: scale(0); }
    28.5%   { transform: scale(0); }
    
    29.5% { transform: scale(01); }
}
#vv
{
    animation-name: vv;
    animation-duration: 15s;
    animation-fill-mode: forwards;
    transform-origin: center;
    transform-box: fill-box;
}
@keyframes vv {
    0%   { transform: scale(0); }
    29.5%   { transform: scale(0); }
    
    30.5% { transform: scale(01); }
}
#vva
{
    animation-name: vva;
    animation-duration: 15s;
    animation-iteration-count: infinite;
    transform-origin: center;
    transform-box: fill-box;
}
@keyframes vva {
  0%{transform: translate(0px);}
  40%{transform: translate(0px);}
  41%{transform: translate(5px, 3px);}
  60%{transform: translate(5px, 3px);}
  61%{transform: translate(0px);}
  70%{transform: translate(0px);}
  71%{transform: translate(5px, 3px);}
  100%{transform: translate(5px, 3px);}
  
}
#vvb
{
    animation-name: vvb;
    animation-duration: 15s;
    animation-iteration-count: infinite;
    transform-origin: center;
    transform-box: fill-box;
}
@keyframes vvb {
  0%{transform: translate(0px);}
  40%{transform: translate(0px);}
  41%{transform: translate(-4px, -2.3px);}
  60%{transform: translate(-4px, -2.3px);}
  61%{transform: translate(0px);}
  70%{transform: translate(0px);}
  71%{transform: translate(-4px, -2.3px);}
  100%{transform: translate(-4px, -2.3px);}
  
}
#tt
{
    animation-name: tt;
    animation-duration: 15s;
    animation-fill-mode: forwards;
    transform-origin: bottom;
    transform-box: fill-box;
}
@keyframes tt {
    0%   { transform: scale(0); }
    27.3%   { transform: scale(0); }
    
    28% { transform: scale(01); }
}
#w
{
    animation-name: w;
    animation-duration: 15s;
    animation-fill-mode: forwards;
    transform-origin: bottom;
    transform-box: fill-box;
}
@keyframes w {
    0%   { transform: scale(0); }
    30.5%   { transform: scale(0); }
    
    31.5% { transform: scale(01); }
}

#thand
{
    animation-name: thand;
    animation-duration: 15s;
    animation-iteration-count: infinite;
   
    transform-origin: left center;
    transform-box: fill-box;
}
@keyframes thand {
    0%{transform: rotateZ(0deg);}
    11%{transform: rotateZ(0deg);}
    15%{transform: rotateZ(-45deg);}
    40%{transform: rotateZ(-45deg);}
    45%{transform: rotateZ(0deg);}
    55%{transform: rotateZ(0deg);}
    60%{transform: rotateZ(-45deg);}
    75%{transform: rotateZ(-45deg);}
    80%{transform: rotateZ(0deg);}
    85%{transform: rotateZ(0deg);}
    90%{transform: rotateZ(-45deg);}
    100%{transform: rotateZ(-45deg);}
}
#tarm
{
    animation-name: tarm;
    animation-duration: 1s;
    animation-iteration-count: infinite;
    animation-direction: alternate;
    transform-origin: bottom;
    transform-box: fill-box;
}
@keyframes tarm {
   
    100%{transform: rotateZ(6deg);}
}
#thead
{
    animation-name: thead;
    animation-duration: 15s;
    animation-iteration-count: infinite;
    
    transform-origin: bottom;
    transform-box: fill-box;
}
@keyframes thead {
    0%{transform: rotateZ(0deg);}
    11%{transform: rotateZ(0deg);}
    15%{transform: rotateZ(10deg);}
    50%{transform: rotateZ(10deg);}
    55%{transform: rotateZ(0deg);}
    75%{transform: rotateZ(0deg);}
    80%{transform: rotateZ(10deg);}
    100%{transform: rotateZ(10deg);}
}
#u{
    
    animation-name: u;
    animation-duration: 15s;
    animation-timing-function: linear;
    animation-iteration-count: infinite;
    stroke-dasharray: 500;
        stroke-dashoffset: 500;
}
@keyframes u {
    0%   { stroke-dashoffset: -500; }
    15% { stroke-dashoffset: -500; }
    45% { stroke-dashoffset: 0; }
    100% { stroke-dashoffset: 0; }
    
}
#x2
{
    animation: l2 18s 6s linear infinite;
    animation-direction: inherit;
    transform-origin: center;
}
@keyframes l2 {
    0%{transform: translateX(0px)}
   
    
    100%{transform: translateX(-1000px)}
}
#x1{
    animation: l1 18s  linear infinite;
    animation-direction: inherit;
    transform-origin: center;
}
@keyframes l1 {
    0%{transform: translateX(0px)}
    
    100%{transform: translateX(-1000px)}
}
#x3{
    animation: l3 15s 12s linear infinite;
    animation-direction: inherit;
    transform-origin: center;
}
@keyframes l3 {
    0%{transform: translateX(0px)}
    
    100%{transform: translateX(-1000px)}
}
#y
{
    animation-name: y;
    animation-duration: 15s;
    animation-fill-mode: forwards;
    transform-origin: bottom;
    transform-box: fill-box;
}
@keyframes y {
    0%   { transform: scale(0); }
    25.5%   { transform: scale(0); }
    
    26.5% { transform: scale(01); }
}
#c2
{
    animation-name: c2;
    animation-duration: 15s;
    animation-fill-mode: forwards;
    transform-origin: bottom;
    transform-box: fill-box;
}
@keyframes c2 {
    0%   { transform: scale(0); }
    21.5%   { transform: scale(0); }
    
    22.5% { transform: scale(01); }
}
#d2
{
    animation-name: d2;
    animation-duration: 15s;
    animation-fill-mode: forwards;
    transform-origin: bottom;
    transform-box: fill-box;
}
@keyframes d2 {
    0%   { transform: scale(0); }
    18.5%   { transform: scale(0); }
    
    19.5% { transform: scale(01); }
}
#e2
{
    animation-name: e2;
    animation-duration: 15s;
    animation-fill-mode: forwards;
    transform-origin: bottom;
    transform-box: fill-box;
}
@keyframes e2 {
    0%   { transform: scale(0); }
    16.5%   { transform: scale(0); }
    
    17.5% { transform: scale(01); }
}
#ya1
{
    animation-name: ya1;
    animation-duration: 15s;
    animation-iteration-count: infinite;
   
    transform-origin: top right;
    transform-box: fill-box;
}
@keyframes ya1 {
    0%{transform: rotateZ(-25deg);}
    35%{transform: rotateZ(-25deg);}
    39%{transform: rotateZ(0deg);}
    100%{transform: rotateZ(0deg);}
}
#yh2
{
    animation-name: yh2;
    animation-duration: 15s;
    animation-iteration-count: infinite;
    
    transform-origin: top right;
    transform-box: fill-box;
}
@keyframes yh2 
    {
        0%{transform: rotateZ(20deg);}
        15%{transform: rotateZ(20deg);}
        25%{transform: rotateZ(0deg);}
        35%{transform: rotateZ(0deg);}
        40%{transform: rotateZ(-20deg);}
        50%{transform: rotateZ(-20deg);}
        60%{transform: rotateZ(0deg);}
        70%{transform: rotateZ(0deg);}
        75%{transform: rotateZ(-20deg);}
        85%{transform: rotateZ(-20deg);}
        90%{transform: rotateZ(0deg);}
        100%{transform: rotateZ(0deg);}
       
}
#yh
{
    animation-name: yh;
    animation-duration: 15s;
    animation-iteration-count: infinite;
    animation-direction: alternate;
    transform-origin: bottom;
    transform-box: fill-box;
}
@keyframes yh 
    {
        0%{transform: rotateZ(0deg);}
        39%{transform: rotateZ(0deg);}
        43%{transform: rotateZ(-10deg);}
        60%{transform: rotateZ(-10deg);}
        65%{transform: rotateZ(0deg);}
        75%{transform: rotateZ(0deg);}
        80%{transform: rotateZ(-10deg);}
        100%{transform: rotateZ(-10deg);}
}
#zz
{
    animation-name: z;
    animation-duration: 15s;
    animation-fill-mode: forwards;
    transform-origin: bottom;
    transform-box: fill-box;
}
@keyframes z {
    0%   { transform: scale(0); }
    32.5%   { transform: scale(0); }
    
    33% { transform: scale(01); }
}
#a1{
    
    animation-name: a1;
    animation-duration: 15s;
    animation-timing-function: linear;
    animation-iteration-count: infinite;
    stroke-dasharray: 500;
        stroke-dashoffset: 500;
}
@keyframes a1 {
    0%   { stroke-dashoffset: -500; }
    10% { stroke-dashoffset: -500; }
    40% { stroke-dashoffset: 0; }
    100% { stroke-dashoffset: 0; }
    
}
#b1
{
    animation-name: b1;
    animation-duration: 15s;
    animation-fill-mode: forwards;
    tanimation-fill-mode: forwards;rm-box: fill-box;
}
@keyframes b1 {
    0%   { transform: scale(0); }
    40%   { transform: scale(0); }
    
    40.5% { transform: scale(01); }
}
#c1
{
    animation-name: c1;
    animation-duration: 15s;
    animation-fill-mode: forwards;
    transform-origin: bottom;
    transform-box: fill-box;
}
@keyframes c1 {
    0%   { transform: scale(0); }
    40.5%   { transform: scale(0); }
    
    41% { transform: scale(01); }
}
#d1
{
    
    animation-name: d1;
    animation-duration: 15s;
    animation-timing-function: linear;
    animation-iteration-count: infinite;
    stroke-dasharray: 500;
        stroke-dashoffset: 500;
}
@keyframes d1 {
    0%   { stroke-dashoffset: -500; }
    10% { stroke-dashoffset: -500; }
    45% { stroke-dashoffset: 0; }
    100% { stroke-dashoffset: 0; }
    
}
#e1
{
    
    animation-name: e1;
    animation-duration: 15s;
    animation-timing-function: linear;
    animation-iteration-count: infinite;
    stroke-dasharray: 500;
        stroke-dashoffset: 500;
}
@keyframes e1 {
    0%   { stroke-dashoffset: -500; }
    10% { stroke-dashoffset: -500; }
    45% { stroke-dashoffset: 0; }
    100% { stroke-dashoffset: 0; }
    
}
#f1
{
    animation-name: f1;
    animation-duration: 15s;
    animation-fill-mode: forwards;
    transform-origin: bottom;
    transform-box: fill-box;
}
@keyframes f1 {
    0%   { transform: scale(0); }
    34%   { transform: scale(0); }
    
    34.5% { transform: scale(01); }
}
#g1
{
    animation-name: g1;
    animation-duration: 15s;
    animation-fill-mode: forwards;
    transform-origin: bottom;
    transform-box: fill-box;
}
@keyframes g1 {
    0%   { transform: scale(0); }
    35%   { transform: scale(0); }
    
    35.5% { transform: scale(01); }
}
#h1
{
    animation-name: h1;
    animation-duration: 15s;
    animation-fill-mode: forwards;
    transform-origin: bottom;
    transform-box: fill-box;
}
@keyframes h1 {
    0%   { transform: scale(0); }
    36%   { transform: scale(0); }
    
    36.5% { transform: scale(01); }
}
#j1
{
    animation-name: j1;
    animation-duration: 15s;
    animation-fill-mode: forwards;
    transform-origin: bottom;
    transform-box: fill-box;
}
@keyframes j1 {
    0%   { transform: scale(0); }
    37%   { transform: scale(0); }
    
    37.5% { transform: scale(01); }
}
#k1
{
    animation-name: k1;
    animation-duration: 15s;
    animation-fill-mode: forwards;
    transform-origin: bottom;
    transform-box: fill-box;
}
@keyframes k1 {
    0%   { transform: scale(0); }
    38%   { transform: scale(0); }
    
    38.5% { transform: scale(01); }
}
#k1arm
{
    animation-name: k1arm;
    animation-duration: 15s;
    animation-iteration-count: infinite;
    
    transform-origin: left bottom;
    transform-box: fill-box;
}
@keyframes k1arm 
    {
        0%{transform: rotateZ(5deg);}
        39%{transform: rotateZ(5deg);}
        43%{transform: rotateZ(-15deg);}
        60%{transform: rotateZ(-15deg);}
        65%{transform: rotateZ(5deg);}
        75%{transform: rotateZ(5deg);}
        80%{transform: rotateZ(-15deg);}
        100%{transform: rotateZ(-15deg);}
}
#k1head
{
    animation-name: k1head;
    animation-duration: 15s;
    animation-iteration-count: infinite;
    animation-direction: alternate;
    transform-origin: bottom;
    transform-box: fill-box;
}
@keyframes k1head
    {
        0%{transform: rotateZ(5deg);}
        39%{transform: rotateZ(5deg);}
        43%{transform: rotateZ(-15deg);}
        60%{transform: rotateZ(-15deg);}
        65%{transform: rotateZ(5deg);}
        75%{transform: rotateZ(5deg);}
        80%{transform: rotateZ(-15deg);}
        100%{transform: rotateZ(-15deg);}
}
#v
{
    animation-name: v;
    animation-duration: 15s;
    animation-fill-mode: forwards;
    transform-origin: bottom;
    transform-box: fill-box;
}
@keyframes v {
    0%   { transform: scale(0); }
    45%   { transform: scale(0); }
    
    45.5% { transform: scale(01); }
}
#sig4
{
    animation-name: sig4;
    animation-duration: 15s;
    animation-fill-mode: forwards;
    transform-origin: center;
    transform-box: fill-box;
}
@keyframes sig4 {
    0%   { transform: scale(0); }
    46.5%  { transform: scale(0); }
    
    46.7% { transform: scale(01); }
}
#l1
{
    
    animation-name: l1;
    animation-duration: 15s;
    animation-timing-function: linear;
    animation-iteration-count: infinite;
    stroke-dasharray: 100;
        stroke-dashoffset: 100;
}
@keyframes l1 {
    0%   { stroke-dashoffset: 0; }
    35% { stroke-dashoffset: 0; }
    55% { stroke-dashoffset: 100; }
    100% { stroke-dashoffset: 100; }
    
}
#m1
{
    
    animation-name: m1;
    animation-duration: 15s;
    animation-timing-function: linear;
    animation-iteration-count: infinite;
    stroke-dasharray: 120;
        stroke-dashoffset: 120;
}
@keyframes m1 {
    0%   { stroke-dashoffset: 120; }
    44% { stroke-dashoffset: 120; }
    50% { stroke-dashoffset: 0; }
    100% { stroke-dashoffset: 0; }
    
}

#n1
{
    animation-name: n1;
    animation-duration: 15s;
    animation-fill-mode: forwards;
    transform-origin: bottom;
    transform-box: fill-box;
}
@keyframes n1 {
    0%   { transform: scale(0); }
    49%   { transform: scale(0); }
    
    51.5% { transform: scale(01); }
}
#o1
{
    animation-name: o1;
    animation-duration: 15s;
    animation-fill-mode: forwards;
    transform-origin: bottom;
    transform-box: fill-box;
}
@keyframes o1 {
    0%   { transform: scale(0); }
    52%   { transform: scale(0); }
    
    52.5% { transform: scale(01); }
}
#t1
{
    animation-name: t1;
    animation-duration: 15s;
    animation-fill-mode: forwards;
    transform-origin: bottom;
    transform-box: fill-box;
}
@keyframes t1 {
    0%   { transform: scale(0); }
    62%   { transform: scale(0); }
    
    63.5% { transform: scale(01); }
}
#o1arm2
{
    animation-name: o1arm2;
    animation-duration: 15s;
    animation-iteration-count: infinite;
    
    transform-origin: left top;
    transform-box: fill-box;
}
@keyframes o1arm2 {
    0%{transform: rotateZ(10deg);}
    60%{transform: rotateZ(10deg);}
    62%{transform: rotateZ(0deg);}
    100%{transform: rotateZ(0deg);}
}
#p1
{
    animation-name: p1;
    animation-duration: 15s;
    animation-fill-mode: forwards;
    transform-origin: bottom;
    transform-box: fill-box;
}
@keyframes p1 {
    0%   { transform: scale(0); }
    61%   { transform: scale(0); }
    
    62.5% { transform: scale(01); }
}
#o1arm1
{
    animation-name: o1arm1;
    animation-duration: 15s;
    animation-iteration-count: infinite;
    
    transform-origin: left top;
    transform-box: fill-box;
}
@keyframes o1arm1 {
    0%{transform: rotateZ(15deg);}
    65%{transform: rotateZ(15deg);}
    68%{transform: rotateZ(0deg);}
    100%{transform: rotateZ(0deg);}
}
#oo1
{
    animation-name: oo1;
    animation-duration: 15s;
    animation-fill-mode: forwards;
    transform-origin: top center;
    transform-box: fill-box;
}
@keyframes oo1 {
    0%   { transform: scale(0); }
    65%   { transform: scale(0); }
    
    66.5% { transform: scale(01); }
}
#q1
{
    animation-name: q1;
    animation-duration: 15s;
    animation-fill-mode: forwards;
    transform-origin: top center;
    transform-box: fill-box;
}
@keyframes q1 {
    0%   { transform: scale(0); }
    65%   { transform: scale(0); }
    
    66.5% { transform: scale(01); }
}

#map1 {
    animation: map1 10s  linear infinite;
   animation-direction: inherit;
  }
  @keyframes map1 {
    0%{ transform: translateX(0px)}
   
    100%{ transform: translateX(-200px)}
  }
  #map2 {
    animation: map2 10s 5s  linear infinite;
   animation-direction: inherit;
    
  }
  @keyframes map2 {
    0%{ transform: translateX(0px)}
   
    100%{ transform: translateX(-200px)}
  }



#wifi
{
    animation-name: a2;
    animation-duration:  15s;
    transform-orogion: bottom;
    
    transform-box: fill-box;
}
@keyframes a2 {
    0%   { transform: scale(0); }
    30%   { transform: scale(0); }
    
    31.5% { transform: scale(01); }
}</style>
 <defs>
  <clipPath id="clip-path">
   <polyline points="129.85 129.07 180.42 160.71 180.32 200.68 129.73 169.03 129.85 129.07" fill="none" id="svg_1"/>
  </clipPath>
  <clipPath id="clip-path-2">
   <polygon points="189.62 148.2 189.38 243.69 259.32 284.06 259.57 188.59 189.62 148.2" fill="none" id="svg_2"/>
  </clipPath>
 </defs>
 <title>split1</title>
 <g>
  <title>Layer 1</title>
  <rect width="800" height="450" fill="#8fe5da" id="svg_3"/>
  <g id="c">
   <polyline points="420.33 424.59 420.33 308.29 420.33 182.97 420.33 68.52" fill="none" stroke="#fff" stroke-linecap="round" stroke-linejoin="round" stroke-width="2" id="svg_4"/>
  </g>
  <g id="a">
   <g id="svg_101">
    <g id="svg_102">
     <g id="svg_103" opacity="0.2">
      <path id="svg_104" d="m481.81,394.08l-60,-34.66a9.17,9.17 0 0 0 -8.35,0l-59.65,34.66c-2.3,1.37 -2.29,3.49 0,4.84l60,34.65a9.17,9.17 0 0 0 8.35,0l59.68,-34.57c2.28,-1.4 2.28,-3.58 -0.03,-4.92z" fill="#132c39"/>
     </g>
     <path id="svg_105" d="m481.81,384.64l-60,-34.66a9.17,9.17 0 0 0 -8.35,0l-59.65,34.66c-2.3,1.37 -2.29,3.51 0,4.84l60,34.66a9.24,9.24 0 0 0 8.35,0l59.65,-34.66c2.31,-1.33 2.31,-3.48 0,-4.84z" fill="#007385"/>
     <path id="svg_106" d="m481.84,389.48l-59.65,34.66a9.24,9.24 0 0 1 -8.35,0l-60,-34.66a3,3 0 0 1 -1.74,-2.44l0,6.6a3,3 0 0 0 1.74,2.44l60,34.65a9.11,9.11 0 0 0 8.35,0l59.65,-34.65a3,3 0 0 0 1.71,-2.4l0,-6.6a2.94,2.94 0 0 1 -1.71,2.4z" fill="#004652"/>
    </g>
    <g id="svg_107">
     <g id="svg_108">
      <g id="svg_109">
       <path id="svg_110" d="m483.89,395.44l0,0l-2.14,-1.25l-0.49,-0.29l-0.51,-0.29l0,0a1.68,1.68 0 0 0 -1.68,0a1.6,1.6 0 0 0 -0.56,0.65a2.29,2.29 0 0 0 -0.21,1l0,0.34a2.09,2.09 0 0 0 0.21,1a1.54,1.54 0 0 0 0.61,0.68l0,0l0.51,0.29l2.63,1.53l0,0a1.68,1.68 0 0 0 0.9,0.21a1.48,1.48 0 0 0 0.84,-0.31a1.4,1.4 0 0 0 0.52,-0.63a2.52,2.52 0 0 0 0.21,-0.94l0,-0.34a2.23,2.23 0 0 0 -0.22,-1a1.44,1.44 0 0 0 -0.62,-0.65z" fill="#fff"/>
       <g id="svg_111" opacity="0.3">
        <path id="svg_112" d="m501.39,409.58a1.16,1.16 0 0 1 -0.6,-0.17l-17.54,-10.63a1.15,1.15 0 0 1 -0.4,-1.58a1.16,1.16 0 0 1 1.59,-0.39l17.5,10.63a1.14,1.14 0 0 1 0.39,1.56l0,0a1.16,1.16 0 0 1 -0.94,0.58z" fill="#fff"/>
       </g>
      </g>
      <g id="svg_113">
       <path id="svg_114" d="m474.6,400.92l0,0l-2.14,-1.26l-0.5,-0.29l-0.5,-0.29l0,0a1.68,1.68 0 0 0 -1.68,0a1.45,1.45 0 0 0 -0.57,0.63a2.72,2.72 0 0 0 -0.21,1l0,0.29a2,2 0 0 0 0.21,1a1.57,1.57 0 0 0 0.62,0.68l0,0l0.49,0.29l2.65,1.55l0,0a1.7,1.7 0 0 0 1.74,-0.07a1.79,1.79 0 0 0 0.52,-0.64a2.52,2.52 0 0 0 0.21,-0.93l0,-0.35a2.55,2.55 0 0 0 -0.22,-1a1.35,1.35 0 0 0 -0.62,-0.63l0,0.02z" fill="#fff"/>
       <g id="svg_115" opacity="0.3">
        <path id="svg_116" d="m492.22,414.83a1.22,1.22 0 0 1 -0.59,-0.17l-17.63,-10.4a1.15,1.15 0 0 1 -0.41,-1.57l0,0a1.16,1.16 0 0 1 1.57,-0.41l0,0l17.68,10.4a1.14,1.14 0 0 1 0.41,1.56l0,0a1.13,1.13 0 0 1 -1,0.58l-0.03,0.01z" fill="#fff"/>
       </g>
      </g>
      <g id="svg_117">
       <path id="svg_118" d="m465.31,406.38l0,0l-2.14,-1.24l-0.51,-0.3l-0.49,-0.29l0,0a1.63,1.63 0 0 0 -1.68,0a1.47,1.47 0 0 0 -0.57,0.64a2.37,2.37 0 0 0 -0.21,1l0,0.34a2.18,2.18 0 0 0 0.21,1a1.35,1.35 0 0 0 0.62,0.67l0,0l0.49,0.3l2.65,1.54l0,0a1.62,1.62 0 0 0 0.89,0.2a1.53,1.53 0 0 0 0.85,-0.27a1.69,1.69 0 0 0 0.52,-0.64a2.2,2.2 0 0 0 0.19,-0.94l0,-0.39a2.25,2.25 0 0 0 -0.2,-1a1.7,1.7 0 0 0 -0.62,-0.63l0,0.01z" fill="#fff"/>
       <g id="svg_119" opacity="0.3">
        <path id="svg_120" d="m483.23,420.24a1.06,1.06 0 0 1 -0.57,-0.17l-18,-10.33a1.15,1.15 0 1 1 1.15,-2l0,0l18,10.33a1.17,1.17 0 0 1 0.4,1.6a1.15,1.15 0 0 1 -1,0.57l0.02,0z" fill="#fff"/>
       </g>
       <g id="svg_121" opacity="0.3">
        <path id="svg_122" d="m473.75,425.46a1.19,1.19 0 0 1 -0.56,-0.14l-17.43,-9.73a1.15,1.15 0 1 1 1.12,-2l17.43,9.71a1.15,1.15 0 0 1 0.47,1.56a1.14,1.14 0 0 1 -1,0.61l-0.03,-0.01z" fill="#fff"/>
       </g>
      </g>
      <path id="svg_123" d="m456,411.85l0,0l-2.14,-1.25l-0.51,-0.28l-0.5,-0.29l0,0a1.55,1.55 0 0 0 -2.14,0.49l-0.1,0.18a2.19,2.19 0 0 0 -0.22,1l0,0.3a2.35,2.35 0 0 0 0.21,1a1.57,1.57 0 0 0 0.62,0.68l0,0l0.5,0.29l2.65,1.55l0,0a1.72,1.72 0 0 0 0.89,0.21a1.75,1.75 0 0 0 0.83,-0.28a1.53,1.53 0 0 0 0.54,-0.64a2.37,2.37 0 0 0 0.19,-0.95l0,-0.34a2.14,2.14 0 0 0 -0.2,-1a1.65,1.65 0 0 0 -0.62,-0.69l0,0.02z" fill="#fff"/>
      <g id="svg_124">
       <path id="svg_125" d="m446.73,417.33l0,0l-2.15,-1.26l-0.5,-0.29l-0.5,-0.28l0,0a1.65,1.65 0 0 0 -1.69,0a1.49,1.49 0 0 0 -0.55,0.64a2.14,2.14 0 0 0 -0.22,1l0,0.34a2.41,2.41 0 0 0 0.21,1a1.54,1.54 0 0 0 0.62,0.67l0,0l0.5,0.29l2.65,1.55l0,0a1.62,1.62 0 0 0 0.89,0.2a1.49,1.49 0 0 0 1.37,-0.92a2,2 0 0 0 0.2,-0.93l0,-0.34a2.26,2.26 0 0 0 -0.21,-1a1.63,1.63 0 0 0 -0.62,-0.63l0,-0.04z" fill="#fff"/>
       <g id="svg_126" opacity="0.3">
        <path id="svg_127" d="m464.14,431a1.16,1.16 0 0 1 -0.57,-0.15l-17.47,-10.16a1.13,1.13 0 0 1 -0.44,-1.55l0,0a1.18,1.18 0 0 1 1.58,-0.42l17.47,10.11a1.15,1.15 0 0 1 0.43,1.57a1.13,1.13 0 0 1 -1,0.58l0,0.02z" fill="#fff"/>
       </g>
      </g>
      <g id="svg_128">
       <path id="svg_129" d="m437.42,422.8l0,0l-2.13,-1.25l-0.5,-0.28l-0.5,-0.29l0,0a1.65,1.65 0 0 0 -1.69,0a1.57,1.57 0 0 0 -0.56,0.64a2.35,2.35 0 0 0 -0.21,1l0,0.35a2.32,2.32 0 0 0 0.21,1a1.65,1.65 0 0 0 0.62,0.69l0,0l0.5,0.28l2.63,1.54l0,0a1.69,1.69 0 0 0 0.91,0.2a1.44,1.44 0 0 0 0.83,-0.27a1.39,1.39 0 0 0 0.52,-0.63a2.23,2.23 0 0 0 0.21,-1l0,-0.34a2,2 0 0 0 -0.22,-1a1.47,1.47 0 0 0 -0.62,-0.66l0,0.02z" fill="#fff"/>
       <g id="svg_130" opacity="0.3">
        <path id="svg_131" d="m454.48,436.19a1.13,1.13 0 0 1 -0.57,-0.15l-17.12,-9.88a1.14,1.14 0 0 1 -0.42,-1.55l0,0a1.16,1.16 0 0 1 1.57,-0.43l0,0l17.1,9.88a1.16,1.16 0 0 1 0.43,1.57l0,0a1.14,1.14 0 0 1 -1,0.58l0.01,-0.02z" fill="#fff"/>
       </g>
      </g>
      <g id="svg_132">
       <path id="svg_133" d="m428.13,428.28l0,0l-2.13,-1.28l-0.51,-0.29l-0.49,-0.28l0,0a1.65,1.65 0 0 0 -1.69,0a1.49,1.49 0 0 0 -0.56,0.63a2.46,2.46 0 0 0 -0.22,1l0,0.34a2,2 0 0 0 0.22,1a1.48,1.48 0 0 0 0.62,0.69l0,0l0.49,0.29l2.64,1.55l0,0a1.62,1.62 0 0 0 0.89,0.2a1.51,1.51 0 0 0 0.85,-0.27a1.65,1.65 0 0 0 0.52,-0.65a2.47,2.47 0 0 0 0.21,-0.93l0,-0.34a2.42,2.42 0 0 0 -0.22,-1a1.4,1.4 0 0 0 -0.62,-0.63l0,-0.03z" fill="#fff"/>
       <g id="svg_134" opacity="0.3">
        <path id="svg_135" d="m445.06,441.72a1.11,1.11 0 0 1 -0.59,-0.16l-17,-9.92a1.16,1.16 0 0 1 1.17,-2l17,9.93a1.15,1.15 0 0 1 0.43,1.57l0,0a1.17,1.17 0 0 1 -1,0.57l-0.01,0.01z" fill="#fff"/>
       </g>
      </g>
     </g>
     <g id="svg_136">
      <g id="svg_137">
       <path id="svg_138" d="m356.55,394.57a1.55,1.55 0 0 0 -2.05,-0.77l-0.18,0.1l0,0l-0.51,0.29l-0.51,0.29l-2.13,1.24l0,0a1.65,1.65 0 0 0 -0.62,0.69a2.32,2.32 0 0 0 -0.21,1l0,0.34a2.37,2.37 0 0 0 0.19,0.95a1.6,1.6 0 0 0 0.54,0.64a1.79,1.79 0 0 0 0.84,0.28a1.56,1.56 0 0 0 0.89,-0.21l0,0l2.64,-1.55l0.51,-0.28l0,0a1.62,1.62 0 0 0 0.61,-0.69a2.32,2.32 0 0 0 0.21,-1l0,-0.34a2.2,2.2 0 0 0 -0.22,-1l0,0.02z" fill="#fff"/>
       <g id="svg_139" opacity="0.3">
        <path id="svg_140" d="m330.06,411.3a1.15,1.15 0 0 1 -0.56,-2.16l21.14,-12a1.17,1.17 0 0 1 1.16,2l-21.15,12a1.12,1.12 0 0 1 -0.59,0.19l0,-0.03z" fill="#fff"/>
       </g>
      </g>
      <g id="svg_141">
       <path id="svg_142" d="m365.84,400.05a1.55,1.55 0 0 0 -0.55,-0.64a1.68,1.68 0 0 0 -1.68,0l0,0l-0.51,0.29l-0.49,0.29l-2.15,1.26l0,0a1.47,1.47 0 0 0 -0.61,0.67a2.2,2.2 0 0 0 -0.22,1l0,0.35a2.14,2.14 0 0 0 0.21,0.93a1.51,1.51 0 0 0 1.37,0.92a1.72,1.72 0 0 0 0.89,-0.21l0,0l2.64,-1.55l0.51,-0.29l0,0a1.51,1.51 0 0 0 0.62,-0.68a2.17,2.17 0 0 0 0.2,-1l0,-0.35a2.07,2.07 0 0 0 -0.23,-1l0,0.01z" fill="#fff"/>
       <g id="svg_143" opacity="0.3">
        <path id="svg_144" d="m339.71,416.78a1.18,1.18 0 0 1 -1,-0.58a1.16,1.16 0 0 1 0.42,-1.58l0,0l20.8,-12a1.16,1.16 0 0 1 1.58,0.42l0,0a1.15,1.15 0 0 1 -0.39,1.56l0,0l-20.85,12a1,1 0 0 1 -0.53,0.19l-0.03,-0.01z" fill="#fff"/>
       </g>
      </g>
      <g id="svg_145">
       <path id="svg_146" d="m375.15,405.52a1.6,1.6 0 0 0 -0.57,-0.64a1.63,1.63 0 0 0 -1.68,0l0,0l-0.51,0.28l-0.49,0.29l-2.14,1.25l0,0a1.57,1.57 0 0 0 -0.62,0.68a2.23,2.23 0 0 0 -0.22,1l0,0.34a2.58,2.58 0 0 0 0.21,0.95a1.51,1.51 0 0 0 0.52,0.63a1.58,1.58 0 0 0 0.84,0.27a1.6,1.6 0 0 0 0.9,-0.21l0,0l2.63,-1.53l0.48,-0.25l0,0a1.63,1.63 0 0 0 0.62,-0.68a2.19,2.19 0 0 0 0.2,-1l0,-0.35a2.2,2.2 0 0 0 -0.17,-1.03z" fill="#fff"/>
       <g id="svg_147" opacity="0.3">
        <path id="svg_148" d="m349.32,421.83a1.17,1.17 0 0 1 -1.15,-1.16a1.15,1.15 0 0 1 0.58,-1l20.49,-11.67a1.16,1.16 0 0 1 1.14,2l-20.56,11.64a1.12,1.12 0 0 1 -0.5,0.15l0,0.04z" fill="#fff"/>
       </g>
      </g>
      <g id="svg_149">
       <path id="svg_150" d="m384.44,411a1.34,1.34 0 0 0 -0.57,-0.63a1.63,1.63 0 0 0 -1.68,0l0,0l-0.49,0.29l-0.51,0.28l-2.14,1.26l0,0a1.41,1.41 0 0 0 -0.62,0.68a2.55,2.55 0 0 0 -0.22,1l0,0.35a2.73,2.73 0 0 0 0.21,0.93a1.79,1.79 0 0 0 0.52,0.64a1.7,1.7 0 0 0 1.74,0l0,0l2.65,-1.55l0.49,-0.29l0,0a1.51,1.51 0 0 0 0.62,-0.68a2,2 0 0 0 0.21,-1l0,-0.35a2.57,2.57 0 0 0 -0.21,-0.93z" fill="#fff"/>
       <g id="svg_151" opacity="0.3">
        <path id="svg_152" d="m358.48,427.39a1.15,1.15 0 0 1 -1.18,-1.12a1.14,1.14 0 0 1 0.61,-1l20.62,-11.72a1.15,1.15 0 0 1 1.19,2l-0.05,0l-20.67,11.69a1.09,1.09 0 0 1 -0.52,0.15z" fill="#fff"/>
       </g>
      </g>
      <g id="svg_153">
       <path id="svg_154" d="m393.68,416.47a1.4,1.4 0 0 0 -0.56,-0.64a1.63,1.63 0 0 0 -1.68,0l0,0l-0.5,0.3l-0.5,0.28l-2.14,1.25l0,0a1.74,1.74 0 0 0 -0.62,0.67a2.25,2.25 0 0 0 -0.2,1l0,0.34a2.12,2.12 0 0 0 0.19,0.93a1.57,1.57 0 0 0 0.52,0.65a1.53,1.53 0 0 0 0.85,0.27a1.62,1.62 0 0 0 0.89,-0.2l0,0l2.65,-1.54l0.49,-0.3l0,0a1.37,1.37 0 0 0 0.61,-0.67a2.06,2.06 0 0 0 0.22,-1l0,-0.35a2.22,2.22 0 0 0 -0.22,-1l0,0.01z" fill="#fff"/>
       <g id="svg_155" opacity="0.3">
        <path id="svg_156" d="m368.32,432.68a1.15,1.15 0 0 1 -0.59,-2.15l20.09,-11.53a1.16,1.16 0 0 1 1.58,0.42a1.17,1.17 0 0 1 -0.4,1.58l0,0l-20.09,11.55a1.09,1.09 0 0 1 -0.56,0.15l-0.03,-0.02z" fill="#fff"/>
       </g>
      </g>
      <g id="svg_157">
       <path id="svg_158" d="m403,421.94a1.54,1.54 0 0 0 -2,-0.77l-0.19,0.1l0,0l-0.5,0.28l-0.51,0.29l-2.14,1.25l0,0a1.55,1.55 0 0 0 -0.62,0.67a2.17,2.17 0 0 0 -0.2,1l0,0.35a2.2,2.2 0 0 0 0.19,0.94a1.6,1.6 0 0 0 0.54,0.64a1.75,1.75 0 0 0 0.83,0.28a1.55,1.55 0 0 0 0.89,-0.21l0,0l2.65,-1.55l0.5,-0.28l0,0a1.59,1.59 0 0 0 0.62,-0.69a2.32,2.32 0 0 0 0.21,-1l0,-0.34a2.25,2.25 0 0 0 -0.22,-1l-0.05,0.04z" fill="#fff"/>
       <g id="svg_159" opacity="0.3">
        <path id="svg_160" d="m377.39,437.79a1.12,1.12 0 0 1 -1,-0.59a1.16,1.16 0 0 1 0.44,-1.57l0,0l20.28,-11.19a1.16,1.16 0 0 1 1.13,2l-20.24,11.21a1.08,1.08 0 0 1 -0.56,0.14l-0.05,0z" fill="#fff"/>
       </g>
      </g>
      <g id="svg_161">
       <path id="svg_162" d="m412.32,427.42a1.47,1.47 0 0 0 -0.56,-0.65a1.7,1.7 0 0 0 -1.69,0l0,0l-0.5,0.29l-0.5,0.29l-2.15,1.26l0,0a1.56,1.56 0 0 0 -0.6,0.67a2.14,2.14 0 0 0 -0.22,1l0,0.34a2.14,2.14 0 0 0 0.21,0.93a1.51,1.51 0 0 0 1.37,0.92a1.62,1.62 0 0 0 0.89,-0.2l0,0l2.64,-1.55l0.51,-0.29l0,0a1.47,1.47 0 0 0 0.61,-0.67a2.13,2.13 0 0 0 0.21,-1l0,-0.34a2.15,2.15 0 0 0 -0.22,-1z" fill="#fff"/>
       <g id="svg_163" opacity="0.3">
        <path id="svg_164" d="m386.6,443.51a1.15,1.15 0 0 1 -0.57,-2.16l20.38,-11.44a1.17,1.17 0 0 1 1.14,2l-20.39,11.43a1.19,1.19 0 0 1 -0.56,0.14l0,0.03z" fill="#fff"/>
       </g>
      </g>
     </g>
    </g>
   </g>
   <g id="svg_165">
    <path id="svg_166" d="m389.23,388.32l27.52,23.61l3.52,-2l-5.48,-4.75l8.67,-5l8.22,3.22l3.83,-2.21l-40.74,-16.06l-5.54,3.19zm30.38,10.23l-7.61,4.45l-15.9,-13.58l23.51,9.13z" fill="#fff"/>
    <polygon id="svg_167" points="404.32 379.61 438.41 399.42 442.23 397.22 408.14 377.4 404.32 379.61" fill="#fff"/>
   </g>
  </g>
  <g id="d">
   <g id="svg_168">
    <polygon id="svg_169" points="363.83 204.32 363.83 267.85 418.85 299.6 473.85 267.85 473.85 204.32 418.85 172.57 363.83 204.32" fill="#73c9c1"/>
    <path id="svg_170" d="m418.85,302.27l-57.32,-33.09l0,-66.18l57.32,-33.09l57.31,33.09l0,66.19l-57.31,33.09l0,-0.01zm-52.71,-35.71l52.71,30.44l52.7,-30.43l0,-60.87l-52.7,-30.43l-52.71,30.43l0,60.86z" fill="#fff"/>
   </g>
   <g id="svg_171">
    <path id="svg_172" d="m414.25,257.23l-0.25,0l-21.7,-5a1,1 0 0 1 -0.67,-0.59l-3.86,-10l-7.87,-6.34a1,1 0 0 1 -0.33,-0.92l1.7,-8.91l1.2,-11.05a0.88,0.88 0 0 1 0.32,-0.63l12.99,-10.79a1,1 0 0 1 0.44,-0.21l28,-5.1a1.14,1.14 0 0 1 0.45,0l23.09,7.44a1,1 0 0 1 0.5,0.37l9.59,14.13a0.93,0.93 0 0 1 0,1l-7.7,12.75a0.9,0.9 0 0 1 -0.69,0.45l-11.7,1.56l-11.3,11.43l0,0l-11.59,10.18a0.94,0.94 0 0 1 -0.62,0.28l0,-0.05zm-21,-6.74l20.73,4.8l11.24,-9.76l11.51,-11.62a0.93,0.93 0 0 1 0.56,-0.27l11.58,-1.64l7.13,-11.78l-9.09,-13.35l-22.55,-7.26l-27.56,5l-12.44,10.39l-1.16,10.7l0,0.07l-1.6,8.38l7.61,6.14a0.81,0.81 0 0 1 0.28,0.4l3.77,9.75l-0.01,0.05z" fill="#fff"/>
    <path id="svg_173" d="m404.16,274.49l-4.29,0a1,1 0 0 1 -1,-0.94l0,-22.08l-2.08,-22.62l-15.93,6.59a0.95,0.95 0 1 1 -0.72,-1.75l17.11,-7.09a1,1 0 0 1 1.28,0.45a1.06,1.06 0 0 1 0.09,0.35l2.21,23.95l0,21.27l2.74,0l9.82,-16.79a1,1 0 0 1 1.65,1l-10.04,17.22a1,1 0 0 1 -0.82,0.44l-0.02,0z" fill="#fff"/>
    <path id="svg_174" d="m414.25,257.23l-0.2,0a1,1 0 0 1 -0.73,-1.12l0,0l8.22,-37.48a1,1 0 0 1 0.5,-0.64l25,-12.74a1,1 0 0 1 0.86,1.69l-24.6,12.54l-8.22,37a0.93,0.93 0 0 1 -0.83,0.75z" fill="#fff"/>
    <path id="svg_175" d="m422.57,219.75l-0.11,0l-39.06,-4.32a0.92,0.92 0 0 1 -0.84,-1l0,0a0.94,0.94 0 0 1 1,-0.85l0,0l38.11,4.21l1.84,-19.18a0.94,0.94 0 0 1 1,-0.86a1,1 0 0 1 0.86,1l-1.92,20.17a1,1 0 0 1 -0.34,0.66a1,1 0 0 1 -0.61,0.18l0.07,-0.01z" fill="#fff"/>
    <path id="svg_176" d="m388.6,242a1,1 0 0 1 -1,-1a1,1 0 0 1 0.16,-0.51l8.88,-13.32l-1.25,-23.42a1,1 0 0 1 0.45,-0.86a1,1 0 0 1 1,0l26.16,15.11l26.91,14.12a0.94,0.94 0 0 1 0.41,1.27l0,0a0.92,0.92 0 0 1 -1.25,0.41l0,0l-21.93,-11.47l11,11.58a0.94,0.94 0 0 1 -0.52,1.59l-28.86,5a1,1 0 0 1 -0.87,-0.3l-10,-11.16l-8.39,12.57a0.93,0.93 0 0 1 -0.78,0.37l-0.12,0.02zm10.84,-14.13l9.59,10.62l26.65,-4.61l-13.44,-13.88l-22.92,7.92l0.12,-0.05zm-1.88,-22.46l1.1,20.72l21.7,-7.55l-22.8,-13.17z" fill="#fff"/>
    <path id="svg_177" d="m399.87,253.23a1,1 0 0 1 -0.95,-1a0.92,0.92 0 0 1 0.15,-0.51l22.65,-33.48a0.92,0.92 0 0 1 0.84,-0.41l34.61,1.37a1,1 0 0 1 -0.07,1.9l-34.1,-1.34l-22.36,33.08a0.93,0.93 0 0 1 -0.77,0.39z" fill="#fff"/>
    <g id="svg_178">
     <path id="svg_179" d="m384.2,211.73a3,3 0 1 0 3,3l0,0a3,3 0 0 0 -3,-3z" fill="#fff"/>
     <path id="svg_180" d="m384.2,217.85a3.1,3.1 0 1 1 3.09,-3.12l0,0a3.11,3.11 0 0 1 -3.09,3.12zm0,-6a2.88,2.88 0 1 0 2.88,2.88a2.88,2.88 0 0 0 -2.88,-2.88z" fill="#fff"/>
    </g>
    <g id="svg_181">
     <path id="svg_182" d="m422.9,214.31a4.55,4.55 0 1 0 4.44,4.66l0,-0.11a4.5,4.5 0 0 0 -4.44,-4.55z" fill="#fff"/>
     <path id="svg_183" d="m422.9,223.52a4.66,4.66 0 1 1 4.55,-4.77l0,0.11a4.62,4.62 0 0 1 -4.55,4.66zm0,-9.1a4.44,4.44 0 1 0 4.33,4.55l0,-0.11a4.4,4.4 0 0 0 -4.33,-4.39l0,-0.05z" fill="#fff"/>
    </g>
    <g id="svg_184">
     <path id="svg_185" d="m397.63,224a3.84,3.84 0 1 0 3.84,3.83a3.82,3.82 0 0 0 -3.84,-3.83z" fill="#fff"/>
     <path id="svg_186" d="m397.63,231.73a3.95,3.95 0 1 1 3.95,-3.95l0,0a4,4 0 0 1 -3.95,3.95zm0,-7.68a3.74,3.74 0 1 0 3.73,3.76l0,0a3.73,3.73 0 0 0 -3.73,-3.72l0,-0.04z" fill="#fff"/>
    </g>
   </g>
  </g>
  <g id="g1">
   <g id="svg_826">
    <polygon id="svg_827" points="610.8 146.24 695.51 195.28 695.51 188.9 610.83 139.84 610.8 146.24" fill="#00738f"/>
    <polygon id="svg_828" points="610.57 230.63 695.51 279.69 695.51 195.28 610.8 146.24 610.57 230.63" fill="#fff" opacity="0.5"/>
   </g>
   <g id="svg_829" opacity="0.5">
    <path id="svg_830" d="m630.77,209.83l-12.13,-7c-0.84,-0.49 -1.54,-0.09 -1.54,0.87l0,13.93a3.38,3.38 0 0 0 1.54,2.63l12.11,7c0.85,0.49 1.54,0.09 1.54,-0.88l0,-13.9a3.42,3.42 0 0 0 -1.52,-2.65z" fill="#fff"/>
    <path id="svg_831" d="m649.91,222.26l-12.11,-7c-0.85,-0.49 -1.54,-0.09 -1.54,0.87l0,13.93a3.35,3.35 0 0 0 1.52,2.63l12.12,7c0.85,0.5 1.53,0.1 1.53,-0.87l0,-13.91a3.34,3.34 0 0 0 -1.52,-2.65z" fill="#fff"/>
    <path id="svg_832" d="m669.05,234.69l-12.11,-7c-0.85,-0.49 -1.54,-0.09 -1.54,0.86l0,13.93a3.39,3.39 0 0 0 1.53,2.64l12.12,7c0.84,0.48 1.54,0.1 1.54,-0.87l0,-13.92a3.37,3.37 0 0 0 -1.54,-2.64z" fill="#fff"/>
   </g>
  </g>
  <g id="f1">
   <path id="svg_833" d="m651.84,148l-61.77,-35.62a0.64,0.64 0 0 0 -1,0.53l-0.07,53.36a0.48,0.48 0 0 0 0.26,0.45l61.66,33.07a0.74,0.74 0 0 0 1,-0.29a0.71,0.71 0 0 0 0.1,-0.37l0,-50.7a0.48,0.48 0 0 0 -0.17,-0.4l-0.01,-0.03z" fill="#f15625"/>
   <g id="svg_834">
    <polygon id="svg_835" points="590.99 115.15 590.45 117.22 590.32 164.22 617.11 179.58 617.08 130.22 590.99 115.15" fill="#ededed"/>
    <polygon id="svg_836" points="616.89 179.62 646.99 198.54 649.94 198.54 649.94 149.16 617.08 130.22 616.89 179.62" fill="#ededed"/>
    <g id="svg_837">
     <path id="svg_838" d="m617.1,134.65l0,-2.07a4.52,4.52 0 0 0 0,2.07z" fill="#fff"/>
     <path id="svg_839" d="m617.1,134.65l0,47.35a5.46,5.46 0 0 0 2.68,4.53c7.07,5.07 27.21,12.06 27.21,12.06l0,-49.38s-20.13,-7.7 -26.25,-10.56a6,6 0 0 1 -3.64,-4z" fill="#fff"/>
    </g>
    <path id="svg_840" d="m607.23,130.44a107.65,107.65 0 0 1 -16.78,-13.22l-0.13,49.33s10.33,10 16,12.62c8.5,3.9 10.81,2.74 10.81,2.74l0,-49.33s-3.63,1.61 -9.87,-2.14l-0.03,0z" fill="#fff"/>
    <path id="svg_841" d="m615.21,173.93a12.06,12.06 0 0 1 -2.74,7.69c3.48,0.94 4.59,0.38 4.59,0.38l0,-49.33a5.49,5.49 0 0 1 -1.89,0.33l0.04,40.93z" fill="#ededed"/>
   </g>
   <path id="svg_842" d="m615.69,127.48l5.79,3.33c-0.84,-3.87 -5.79,-3.33 -5.79,-3.33z" fill="#f15625"/>
   <path id="svg_843" d="m614.9,129l5.22,3c-0.71,-3.52 -5.22,-3 -5.22,-3z" fill="#ededed"/>
   <g id="svg_844">
    <path id="svg_845" d="m609.92,137.22c-3.89,-0.38 -8.08,-2.59 -12.46,-6.56a46.64,46.64 0 0 1 -5.49,-5.84l0.87,-0.66c0.08,0.11 8.4,11.12 17.14,12l-0.06,1.08l0,-0.02z" fill="#ededed"/>
    <path id="svg_846" d="m609.92,143.31c-3.87,-0.39 -8.08,-2.57 -12.46,-6.5a43.43,43.43 0 0 1 -5.46,-5.81l0.87,-0.66c0.08,0.11 8.4,11 17.14,11.84l-0.06,1.09l-0.03,0.04z" fill="#ededed"/>
    <path id="svg_847" d="m609.92,149.39c-3.87,-0.38 -8.08,-2.54 -12.46,-6.43a44.64,44.64 0 0 1 -5.49,-5.68l0.87,-0.67c0.08,0.1 8.4,10.85 17.14,11.7l-0.06,1.08z" fill="#ededed"/>
    <path id="svg_848" d="m609.92,155.49c-3.87,-0.39 -8.07,-2.52 -12.46,-6.36a46.35,46.35 0 0 1 -5.46,-5.63l0.87,-0.67c0.08,0.11 8.4,10.71 17.14,11.57l-0.06,1.09l-0.03,0z" fill="#ededed"/>
    <path id="svg_849" d="m609.92,161.6c-3.87,-0.38 -8.07,-2.5 -12.46,-6.29a44.36,44.36 0 0 1 -5.49,-5.56l0.87,-0.66c0.08,0.09 8.4,10.56 17.14,11.43l-0.06,1.08z" fill="#ededed"/>
    <path id="svg_850" d="m609.92,167.66c-3.87,-0.39 -8.07,-2.47 -12.46,-6.21a44.4,44.4 0 0 1 -5.46,-5.45l0.85,-0.67c0.09,0.09 8.4,10.44 17.15,11.29l-0.08,1.04z" fill="#ededed"/>
    <path id="svg_851" d="m609.92,173.74c-3.87,-0.37 -8.07,-2.44 -12.45,-6.14a42.35,42.35 0 0 1 -5.48,-5.48l0.83,-0.67c0.09,0.09 8.4,10.3 17.16,11.17l-0.06,1.12z" fill="#ededed"/>
   </g>
   <g id="svg_852">
    <path id="svg_853" d="m642.54,153.91a111.71,111.71 0 0 1 -13.92,-4.11c-8.65,-3.05 -10,-5.66 -10.12,-6l1,-0.42l-0.49,0.2l0.49,-0.21s1.29,2.46 9.48,5.35a109.48,109.48 0 0 0 13.7,4.11l-0.14,1.08z" fill="#ededed"/>
    <path id="svg_854" d="m642.51,160.23s-6.13,-1.52 -14,-4.41c-8.22,-3 -9.82,-5.8 -9.88,-5.92l1,-0.51l-0.48,0.25l0.47,-0.26s1.55,2.57 9.3,5.41s13.86,4.37 13.91,4.38l-0.26,1.06l-0.06,0z" fill="#ededed"/>
    <path id="svg_855" d="m642.5,166.53c-0.07,0 -6.68,-1.88 -14.13,-4.73c-7.73,-2.93 -9.59,-5.76 -9.59,-5.89l0.91,-0.57s1.81,2.67 9.12,5.48s14,4.68 14,4.7l-0.31,1.01z" fill="#ededed"/>
    <path id="svg_856" d="m642.48,172.85s-7.23,-2.26 -14.23,-5s-9.34,-5.76 -9.42,-5.88l0.88,-0.63s2.08,2.74 8.95,5.48s14.07,5 14.14,5l-0.32,1.06l0,-0.03z" fill="#ededed"/>
    <path id="svg_857" d="m642.47,179.17c-0.08,0 -7.78,-2.64 -14.35,-5.38s-9.08,-5.72 -9.18,-5.85l0.85,-0.67s2.37,2.88 8.76,5.48s14.19,5.32 14.26,5.35l-0.34,1.07z" fill="#ededed"/>
    <path id="svg_858" d="m642.46,185.48c-0.09,0 -8.34,-3 -14.45,-5.68a26.53,26.53 0 0 1 -9,-5.85l0.82,-0.72a25.88,25.88 0 0 0 8.57,5.57c6.08,2.67 14.3,5.63 14.39,5.66l-0.33,1.02z" fill="#ededed"/>
    <path id="svg_859" d="m642.46,191.75c-0.1,0 -8.9,-3.39 -14.57,-6a30.37,30.37 0 0 1 -8.73,-5.82l0.8,-0.76a29.32,29.32 0 0 0 8.38,5.59c5.65,2.62 14.4,5.95 14.5,6l-0.38,1l0,-0.01z" fill="#ededed"/>
   </g>
  </g>
  <g id="h1">
   <polygon id="svg_860" points="681.03 221.11 712.7 239.4 712.83 185.4 681.17 167.12 681.03 221.11" fill="#fff"/>
   <g id="svg_861">
    <polygon id="svg_862" points="684.67 214.77 702.93 225.3 702.94 223.33 684.67 212.79 684.67 214.77" fill="#c1ced6"/>
    <polygon id="svg_863" points="684.61 208.02 709.17 222.21 709.17 220.23 684.61 206.05 684.61 208.02" fill="#c1ced6"/>
    <polygon id="svg_864" points="684.62 201.82 709.19 216 709.2 214.03 684.63 199.84 684.62 201.82" fill="#c1ced6"/>
    <polygon id="svg_865" points="684.63 195.6 709.22 209.79 709.22 207.82 684.65 193.62 684.63 195.6" fill="#c1ced6"/>
    <polygon id="svg_866" points="684.66 189.39 709.23 203.57 709.23 201.6 684.66 187.41 684.66 189.39" fill="#c1ced6"/>
    <polygon id="svg_867" points="684.67 183.18 709.24 197.36 709.26 195.39 684.67 181.21 684.67 183.18" fill="#c1ced6"/>
   </g>
  </g>
  <g id="j1">
   <polygon id="svg_868" points="659.53 285.14 710 314.28 710.12 270.59 659.65 241.46 659.53 285.14" fill="#009aa3"/>
   <g id="svg_869">
    <polygon id="svg_870" points="683.18 283.46 689.37 281.54 683.18 270.63 683.18 283.46" fill="#added3"/>
    <path id="svg_871" d="m685.33,265.86c-2.9,-1.68 -5.7,-1.93 -7.85,-0.68s-3.33,3.74 -3.34,7.07a22.51,22.51 0 0 0 10.18,17.63a9.73,9.73 0 0 0 4.83,1.47a6,6 0 0 0 3,-0.78c2.15,-1.23 3.33,-3.75 3.34,-7.07a22.46,22.46 0 0 0 -10.16,-17.64zm9.22,17.69l-0.94,0c0,2.62 -0.85,4.55 -2.39,5.49s-3.66,0.64 -6,-0.69a20.4,20.4 0 0 1 -9.22,-16c0,-2.61 0.85,-4.55 2.38,-5.48a4.19,4.19 0 0 1 2.07,-0.52a7.94,7.94 0 0 1 3.9,1.21a20.39,20.39 0 0 1 9.22,16l0.98,-0.01z" fill="#added3"/>
   </g>
  </g>
  <g id="k1">
   <g id="svg_872">
    <path id="svg_873" d="m593.55,368.4a58,58 0 0 0 -6.85,0.37c-2.54,0.49 -5.56,-1.09 -7.33,0.69c-0.93,0.94 -1,6.12 -1,6.12c1,3.4 5.85,2.85 7,2.74s12,-4 12,-4a10.77,10.77 0 0 0 4.11,-2.74c2.54,-4.26 -7.29,-3.22 -8,-3.17l0.07,-0.01z" fill="#0f3c5f"/>
    <path id="svg_874" d="m562.77,353.23c-0.85,0.26 -7.86,2.94 -7.86,2.94a6.5,6.5 0 0 0 -6.85,3.12c-0.63,1 -0.28,4.73 -0.28,4.73c0.93,4.27 5.66,3 7.1,2.5c1.11,-0.39 4.23,-3.76 6,-4.44c5.74,-2.19 8.47,-5 8.77,-6c1.42,-4.75 -6.17,-3.07 -6.87,-2.85l-0.01,0z" fill="#0f3c5f"/>
    <path id="svg_875" d="m579.42,251.78a13,13 0 0 0 -10.11,3.45a11.88,11.88 0 0 0 -3.73,9.35a11.65,11.65 0 0 0 0.48,2.61c0.25,0.8 0.59,1.56 0.89,2.35c0.8,2.16 1.46,4.38 2.07,6.6c1.28,4.55 2.28,9.17 3.18,13.8c1,4.85 1.62,9.74 2.21,14.65s1,10 1.29,15.07s0.64,10.17 1,15.24c0.34,4.81 0.67,9.59 1,14.43q0.45,6.53 0.89,13.07c0.12,1.86 0.25,3.73 0.36,5.58a7.41,7.41 0 0 0 0.63,3.35a4.71,4.71 0 0 0 4.5,2.36a4.66,4.66 0 0 0 4,-3a11.36,11.36 0 0 0 0.33,-3.29l0.24,-5.56c0.21,-4.4 0.46,-8.81 0.7,-13.21q0.4,-7.23 0.88,-14.44c0.36,-5.05 0.69,-10.1 1.11,-15.08s0.16,-23.95 0.16,-43.42c-0.01,-41.9 -8.5,-23.69 -12.08,-23.91z" fill="#007385"/>
    <path id="svg_876" d="m582.25,368c-2.62,-11.05 -2.44,-22.5 -2.66,-33.77c-0.13,-5.9 -0.65,-11.81 -1.11,-17.7c-0.5,-6.17 -1.06,-12.33 -1.8,-18.47c-0.59,-1.62 -1.23,-3.21 -1.89,-4.78c-1.15,-2.75 -2.36,-5.36 -3.55,-8c0.33,1.56 0.66,3.13 1,4.71c1,4.85 1.62,9.74 2.21,14.65s1,10 1.29,15.07s0.64,10.17 1,15.24c0.34,4.81 0.67,9.59 1,14.43q0.45,6.53 0.89,13.07c0.12,1.86 0.25,3.73 0.36,5.58a7.41,7.41 0 0 0 0.63,3.35a4.71,4.71 0 0 0 4.38,2.32a47.62,47.62 0 0 1 -1.72,-5.72l-0.03,0.02z" opacity="0.05"/>
    <path id="svg_877" d="m571.3,251c-4.91,-1.78 -13.27,-3.64 -14.25,-1.37c-4.57,10.17 -4.69,56.25 -4.7,56.36c-0.07,0.47 -0.14,0.92 -0.2,1.37c-0.48,3.44 -0.78,6.86 -1.08,10.34c-0.42,4.9 -0.75,9.81 -1.1,14.71s-0.61,9.51 -0.91,14.27c-0.2,3.2 -0.4,6.42 -0.59,9.59c0,0.47 -0.07,0.93 -0.1,1.37a4.51,4.51 0 0 0 2.63,4.16a4.68,4.68 0 0 0 6.7,-3.8c0.69,-4.11 1.37,-8.11 2.13,-12.15c0.82,-4.5 1.7,-9 2.59,-13.46c1,-4.88 2,-9.74 3.12,-14.58q1.15,-5 2.55,-9.84l0,0.03c0.22,-0.58 0.41,-1.18 0.58,-1.78c0.5,-1.52 1,-3 1.45,-4.58c2,-6.57 3.82,-13.21 5.48,-19.88c1.37,-5.73 2.67,-11.48 3.73,-17.28a13.48,13.48 0 0 0 0.22,-2.11a12.35,12.35 0 0 0 -8.25,-11.37z" fill="#007385"/>
    <path id="svg_878" d="m557.09,287.77c0.09,-3.17 0.34,-6.34 0.63,-9.51a36.15,36.15 0 0 1 1.61,-9.9c1.83,-4.77 4.62,-9 6.77,-13.54c0.11,-0.3 0.21,-0.62 0.3,-0.93a10.22,10.22 0 0 1 0.33,-4.33c-4.35,-1.1 -9,-1.65 -9.68,0c-4.57,10.16 -4.69,56.25 -4.7,56.36c-0.07,0.46 -0.14,0.91 -0.2,1.37c-0.48,3.44 -0.78,6.85 -1.08,10.33c-0.42,4.9 -0.75,9.81 -1.1,14.72s-0.61,9.51 -0.91,14.26c-0.2,3.21 -0.4,6.43 -0.59,9.59c0,0.47 -0.07,0.93 -0.1,1.37a4.49,4.49 0 0 0 2.1,3.91a120.63,120.63 0 0 1 1.37,-17.4c1.53,-10.76 4.21,-21.29 5.75,-32c-0.48,-8.06 -0.78,-16.15 -0.5,-24.27l0,-0.03z" opacity="0.05"/>
    <path id="svg_879" d="m583.26,192.59c-8.35,-5.56 -20.56,-5.09 -27.74,-0.06s-5.12,9.85 -3.89,13.4c0.65,1.9 3.69,28.88 4,37.61c0.1,3.26 -1.52,19.76 -1.52,19.76s-1.21,9 20.2,11.61c15.41,1.86 17.32,-7.64 17.32,-7.64s2.74,-58.77 2.22,-61.22c-1.94,-8.92 -4.88,-9.67 -10.54,-13.46l-0.05,0z" fill="#002d42"/>
    <g id="k1head">
     <path id="svg_880" d="m574.28,190.21c1.62,0.11 3.24,0.11 4.85,0.1l-0.52,-11.16l-10.68,1.52l-1.47,8.44c2.75,0.02 5.08,0.89 7.82,1.1z" fill="#f9b395"/>
     <path id="svg_881" d="m584.4,160.86l-22,7.66l4,9.95c1.08,6 11.62,8.22 11.62,8.22c3.86,-0.63 8.95,-4.74 7.84,-10.81l-1.41,-15l-0.05,-0.02z" fill="#f9b395"/>
     <path id="svg_882" d="m577.16,155.13s-7.51,-1.86 -12.66,4c-3.36,3.82 -2.74,10.21 1,19.35c0.94,2.33 1.86,4.27 1.86,4.27s5.82,1.19 7.06,0.55c2.74,-1.37 6.32,-6.41 6.32,-6.41s1.37,-9.79 3.26,-11.25s1.65,-8.22 1.65,-8.22c-1.3,-1.79 -4.64,-2.43 -8.52,-2.28l0.03,-0.01z" fill="#b37d57"/>
     <path id="svg_883" d="m579.67,172.44c0.15,2.74 2.41,5.25 4.34,3.89l-0.92,-5.06s-3.61,-2.46 -3.42,1.17z" fill="#f9b395"/>
    </g>
    <path id="svg_884" d="m571.52,187.25c-4.36,-0.92 -4.51,-1.56 -4.51,-1.56l-1.84,3.16s0.65,1.37 4.72,2a33,33 0 0 0 10.22,0l-1.11,-3.56a36.66,36.66 0 0 1 -7.48,-0.04z" fill="#fff"/>
   </g>
   <path id="svg_885" d="m552,196s-7.31,12.61 -8.64,36.66c-0.18,3.46 -0.52,10.53 14.21,11l-2,-15.07l-3.57,-32.59z" fill="#002d42"/>
   <g id="k1arm">
    <path id="svg_886" d="m633.48,194.75l-10,-17.35s-1.71,0.85 -1.54,0.79l10.06,17.41a2.15,2.15 0 0 0 0.74,0.79a0.8,0.8 0 0 0 0.75,0.08c0.36,-0.24 0.36,-1 0,-1.72l-0.01,0z" fill="#007385"/>
    <path id="svg_887" d="m633.79,195.05l-8.9,-15.4a1,1 0 0 0 -1.29,-0.39l0,0a1,1 0 0 0 -0.42,1.33l0,0l9,15.39a2.68,2.68 0 0 0 0.85,0.92a0.88,0.88 0 0 0 0.87,0.08c0.36,-0.23 0.36,-1.12 -0.11,-1.93z" fill="#f15625"/>
    <path id="svg_888" d="m626.78,183s0.37,0.77 1.05,1.95a1.23,1.23 0 0 1 0.18,0.59a0.9,0.9 0 0 1 -1.64,0.55l-0.66,-1a28.5,28.5 0 0 0 -1.89,3.26c-0.56,1.29 1.55,8.15 1.55,8.15l4,1.88s3.69,-4.43 4.42,-5.58s-0.86,-6.23 -1.83,-7.47s-5.18,-2.33 -5.18,-2.33z" fill="#f9b395"/>
    <path id="svg_889" d="m625.7,195.38c-0.18,0 -0.69,0.17 -0.88,0.17c-0.12,0.31 -2.1,5.29 -2.74,6.47s-1.26,2.43 -2,3.7a40.32,40.32 0 0 1 -2.43,3.77a16.89,16.89 0 0 1 -1.37,1.67a8.46,8.46 0 0 1 -0.67,0.67a4.81,4.81 0 0 1 -0.62,0.47a0.86,0.86 0 0 1 -0.38,0.16l0.17,0c0.09,0 0,-0.06 -0.18,-0.09s-0.44,-0.07 -0.72,-0.14c-0.57,-0.12 -1.26,-0.33 -2,-0.56s-1.44,-0.52 -2.18,-0.82c-1.48,-0.61 -3,-1.29 -4.4,-2c-2.89,-1.37 -5.57,-2.88 -7.86,-4.18l-1.86,-1.07a41.89,41.89 0 0 1 -3.17,6.66c-1.06,1.71 -2.27,3.35 -3.43,5c0.83,0.37 1.72,0.76 2.74,1.16c2.61,1.1 5.68,2.33 9.12,3.5c1.71,0.58 3.52,1.15 5.48,1.64c1,0.25 2,0.48 3,0.68a29.69,29.69 0 0 0 3.39,0.46c0.66,0 1.33,0 2,0a11.91,11.91 0 0 0 2.52,-0.39l0.36,-0.11l0,0l0.21,-0.06l0.09,0l0.59,-0.27l0.42,-0.19l0.29,-0.18a4.88,4.88 0 0 0 0.56,-0.34a11.11,11.11 0 0 0 1.75,-1.46a13.44,13.44 0 0 0 1.25,-1.37c0.37,-0.48 0.69,-1 1,-1.37a30.36,30.36 0 0 0 1.48,-2.68a44,44 0 0 0 2.08,-5c0.55,-1.57 1,-3 1.37,-4.42c0.69,-2.35 1.54,-5.16 1.86,-6.7a5,5 0 0 0 -4.87,-2.85l0.03,0.07z" fill="#fff"/>
    <path id="svg_890" d="m624.2,196.24s-8.41,13.85 -10.29,14.06s-25.42,-13.7 -25.42,-13.7s-16.7,8.38 -5.29,16.17s29.57,12.23 34.4,11.23c8,-1.8 12.77,-23.86 12.77,-23.86c0,-3.77 -6.17,-3.85 -6.17,-3.85l0,-0.05z" fill="#002d42"/>
    <path id="svg_891" d="m622.75,165.57c2.92,5.05 3,10.46 0.14,12.09s-7.5,-1.13 -10.4,-6.17s-3,-10.45 -0.14,-12.08s7.5,1.12 10.4,6.16z" fill="#007385" opacity="0.2"/>
    <path id="svg_892" d="m621.05,179.22c-3.15,0 -6.93,-2.74 -9.51,-7.18c-3.25,-5.65 -3.14,-11.61 0.26,-13.58s8.63,0.92 11.9,6.56l0,0c3.26,5.65 3.13,11.61 -0.26,13.58a4.76,4.76 0 0 1 -2.39,0.62zm-6.85,-19.22a2.54,2.54 0 0 0 -1.37,0.34c-2.28,1.3 -2,6.17 0.53,10.61s6.65,7.07 8.92,5.75s2,-6.17 -0.53,-10.61c-2.06,-3.68 -5.21,-6.12 -7.52,-6.12l0,0l-0.03,0.03z" fill="#007385"/>
   </g>
  </g>
  <g id="e">
   <g id="svg_1109">
    <path id="svg_1110" d="m397.39,17.1a8.74,8.74 0 0 0 -1.15,0.56l1.15,-0.56z" fill="#658599"/>
    <path id="svg_1111" d="m456.32,64.86c0,-10 -7,-22.16 -15.69,-27.19c-3.46,-2 -6.66,-2.55 -9.26,-1.86c-3.16,-8.22 -9.1,-15.88 -15.92,-19.82c-5.14,-3 -9.79,-3.23 -13.13,-1.29l-4.93,2.4c3.22,-1.37 7.41,-0.79 12,1.85c6.86,3.94 12.76,11.64 15.93,19.8c2.6,-0.67 5.79,-0.12 9.26,1.88c8.7,5 15.73,17.18 15.69,27.17c8,6.62 14,18.28 14,28c0,5.48 -2,9.38 -5.1,11.21l6.08,-3c3.14,-1.83 5.09,-5.7 5.1,-11.21c0,-9.74 -6,-21.36 -14,-28l-0.03,0.06z" fill="#7baeba"/>
    <path id="svg_1112" d="m450.24,67.8c0,-10 -7,-22.15 -15.69,-27.17c-3.47,-2 -6.66,-2.55 -9.26,-1.88c-3.17,-8.22 -9.1,-15.86 -15.93,-19.8c-10.19,-5.89 -18.48,-1.16 -18.51,10.55a29.85,29.85 0 0 0 0.34,4.33c-8.22,-3.07 -14.44,1.54 -14.47,11.43c0,11.07 7.76,24.67 17.42,30.15l52.58,30.36c9.59,5.57 17.5,1.1 17.54,-10c0,-9.7 -6,-21.36 -14,-28l-0.02,0.03z" fill="#fff"/>
   </g>
   <path id="svg_1113" d="m433,66.9a29.18,29.18 0 0 0 -1.17,-4.21l3.13,-2.53a45.21,45.21 0 0 0 -2.11,-4.24l-4.35,0.14a20.93,20.93 0 0 0 -1.37,-1.89c-0.53,-0.62 -1,-1.19 -1.37,-1.74l0.24,-5.43a33,33 0 0 0 -3.25,-2.88l-2.18,3.81l-0.9,-0.55a17.21,17.21 0 0 0 -2.37,-1.14l-2.62,-6.26a12.91,12.91 0 0 0 -3.15,-0.42l0.82,6a6.83,6.83 0 0 0 -2.55,0.9l-4.5,-4.66a6.36,6.36 0 0 0 -1,1a8.19,8.19 0 0 0 -0.86,1.17l3.5,6a12.39,12.39 0 0 0 -0.85,3.17l-4.75,-1.37a26.39,26.39 0 0 0 0.18,4l4.85,3.6a29,29 0 0 0 1.16,4.2l-3.09,2.43q1,2.16 2.13,4.22l4.34,-0.14a16.16,16.16 0 0 0 1.37,1.92c0.52,0.62 1,1.21 1.44,1.75l-0.33,5.49a32.86,32.86 0 0 0 3.26,2.86l2.17,-3.81c0.3,0.21 0.62,0.38 0.92,0.56a17.21,17.21 0 0 0 2.37,1.15l2.6,6.26a13.43,13.43 0 0 0 3.15,0.43l-0.82,-6a6.83,6.83 0 0 0 2.56,-0.91l4.55,4.7a11.8,11.8 0 0 0 1,-1a12.14,12.14 0 0 0 0.85,-1.18l-3.51,-6a11.14,11.14 0 0 0 0.85,-3.15l4.76,1.37a26.59,26.59 0 0 0 -0.18,-4l-4.92,-3.62zm-6.14,5.67c-1.64,2 -4.39,2 -7.19,0.34a16,16 0 0 1 -4.67,-4.24c-4,-5.24 -5.07,-12 -2.49,-15.08c1.63,-2 4.38,-2 7.19,-0.34a16.06,16.06 0 0 1 4.63,4.25c4,5.29 5.07,12 2.49,15.09l0.04,-0.02z" fill="#f25512"/>
  </g>
  <g id="g">
   <path id="svg_56" d="m309.09,98a1.54,1.54 0 0 1 -0.34,-0.28l-0.4,-0.47l0,14.11l-11,-13.23l0,-13.76l-1.1,-1.29a1.73,1.73 0 0 1 -0.37,-0.8l0,15.52a1.63,1.63 0 0 0 0.38,1l12.43,15.08a1.34,1.34 0 0 0 0.36,0.31a0.58,0.58 0 0 0 0.38,0.1l0,0a0.48,0.48 0 0 0 0.33,-0.52l0,-15.59l-0.41,0a0.61,0.61 0 0 1 -0.3,-0.15l0.04,-0.03z" fill="#fff"/>
   <path id="svg_57" d="m310.76,67.07l10.84,12.79l0.19,0c-0.71,-0.93 -2.34,-2.74 -6.05,-7.08l-4.98,-5.71z" fill="#fff"/>
   <path id="svg_58" d="m346.66,79.29l12.34,15a2,2 0 0 1 0.34,0.66a1.94,1.94 0 0 0 -0.34,-0.69l-12.34,-14.97z" fill="#fff"/>
   <g id="svg_59">
    <path id="svg_60" d="m298.24,83.4l10.85,12.8l0.14,0c-0.76,-1 -2.39,-2.87 -6,-7l-4.99,-5.8z" fill="#fff"/>
    <path id="svg_61" d="m321.56,97.76a1.22,1.22 0 0 1 -0.36,-0.32l-12.43,-15.07a1.63,1.63 0 0 1 -0.38,-1l0,-0.48l-12.09,0.62c-0.24,0 -0.39,0.21 -0.39,0.52a0.48,0.48 0 0 0 0,0.17a1.72,1.72 0 0 0 0.37,0.81l1.09,1.29l11,12.91l0.39,0.46a1.39,1.39 0 0 0 0.35,0.29a0.6,0.6 0 0 0 0.34,0.11l0.41,0l11,-0.22l1.08,0a0.34,0.34 0 0 0 0.2,0l-0.15,0a0.58,0.58 0 0 1 -0.43,-0.09zm-12.33,-1.54l-0.14,0l-10.84,-12.82l10.88,-0.56l10.87,13.16l-10.75,0.23l-0.02,-0.01z" fill="#fff"/>
    <path id="svg_62" d="m321.9,97.9l-1.08,0l0,13.7l-11,0.58l0,1.45a0.48,0.48 0 0 1 -0.33,0.52l12,-0.65l0.37,0c0.23,0 0.38,-0.2 0.38,-0.52l0,-15.19l-0.22,0a0.45,0.45 0 0 1 -0.12,0.11z" fill="#fff"/>
    <path id="svg_63" d="m333.88,112.35a1.22,1.22 0 0 1 -0.34,-0.3l-0.4,-0.46l0,14.11l-10.84,-13.17l0,0.47c0,0.31 -0.15,0.52 -0.38,0.52l-0.37,0l11.94,14.55a1.91,1.91 0 0 0 0.37,0.33a0.59,0.59 0 0 0 0.39,0.08c0.22,0 0.35,-0.22 0.35,-0.52l0,-15.51l-0.38,0a0.79,0.79 0 0 1 -0.34,-0.1z" fill="#fff"/>
    <path id="svg_64" d="m322.31,97.84l0,0.91l10.84,12.84l0.4,0.46a1.38,1.38 0 0 0 0.34,0.3a0.89,0.89 0 0 0 0.36,0.11l0.38,0l10.84,-0.28l0,-1l-11.55,-14.08l-11.61,0.74zm15.29,3.74l7.12,8.66l-10.64,0.29l-0.08,0l-10.8,-12.73l10.8,-0.62l3.61,4.4l-0.01,0z" fill="#fff"/>
    <path id="svg_65" d="m323.13,97.8l10.76,12.73l0.11,0c-0.74,-0.94 -2.37,-2.84 -5.94,-7l-4.93,-5.73z" fill="#fff"/>
    <path id="svg_66" d="m345.42,126.41l0,-0.53l-10.86,0.64l0,1.48c0,0.31 -0.13,0.5 -0.35,0.53l12,-0.72l-0.37,-0.44a1.47,1.47 0 0 1 -0.42,-0.96z" fill="#fff"/>
    <path id="svg_67" d="m321.6,81.67a1.34,1.34 0 0 1 -0.34,-0.29l-0.4,-0.46l0,14.08l-11,-13.22l0,-13.78l-1.08,-1.28a1.62,1.62 0 0 1 -0.4,-1l0,15.72a1.57,1.57 0 0 0 0.38,1l12.43,15.08a1.34,1.34 0 0 0 0.36,0.31a0.59,0.59 0 0 0 0.39,0.1c0.21,0 0.36,-0.22 0.36,-0.52l0,-15.59l-0.41,0a0.59,0.59 0 0 1 -0.33,-0.15l0.04,0z" fill="#fff"/>
    <path id="svg_68" d="m333.18,95.73l0,-0.51l-10.87,0.64l0,1.45c0,0.3 -0.15,0.49 -0.35,0.52l0.35,0l11.61,-0.69l-0.36,-0.44a1.57,1.57 0 0 1 -0.38,-1l0,0.03z" fill="#fff"/>
    <polygon id="svg_69" points="323.15 97.8 333.92 97.18 337.54 101.58 333.92 97.18 323.15 97.8" fill="#fff"/>
    <path id="svg_70" d="m358.61,126.63a1.17,1.17 0 0 1 -0.34,-0.29l-0.27,-0.34l0,14.15l-11,-13.38l0,-13.77l0.89,1.06l-1.93,-2.3a0.08,0.08 0 0 1 0,-0.07l-0.38,-0.47l0,15.21a1.54,1.54 0 0 0 0.38,1l12.25,14.95a1.11,1.11 0 0 0 0.36,0.32a0.49,0.49 0 0 0 0.35,0.09l0.28,0a0.49,0.49 0 0 0 0.3,-0.5l0,-15.59l-0.54,0a0.66,0.66 0 0 1 -0.3,-0.07l-0.05,0z" fill="#fff"/>
    <path id="svg_71" d="m362.38,114l-3.08,-3.73l0,0.49c0,0.32 -0.14,0.53 -0.39,0.54l-12.33,0.73l-0.1,0a0.51,0.51 0 0 1 -0.26,-0.09a1.48,1.48 0 0 1 -0.3,-0.26l1.93,2.3l10.15,12.02l0.26,0.32a1.64,1.64 0 0 0 0.35,0.29a0.8,0.8 0 0 0 0.34,0.11l0.56,0l10.78,-0.25l1.09,0c0.24,0 0.39,-0.22 0.41,-0.52a1.58,1.58 0 0 0 -0.39,-1l-9,-10.95l-0.02,0zm-3.69,10.77l0,0l-10.86,-12.77l10.84,-0.58l6.56,8l4.28,5.16l-10.84,0.25l0.02,-0.06z" fill="#fff"/>
    <path id="svg_72" d="m347.77,112l10.84,12.79l0,0c-0.83,-1 -2.51,-3 -5.85,-6.85l-4.99,-5.94z" fill="#fff"/>
    <path id="svg_73" d="m321.65,64.68a0.85,0.85 0 0 0 -0.35,-0.11l-12.47,0.65c-0.25,0 -0.38,0.23 -0.38,0.53a1.6,1.6 0 0 0 0.39,1l1.09,1.25l11,12.9l0.39,0.46a1.39,1.39 0 0 0 0.35,0.29a0.6,0.6 0 0 0 0.34,0.11l0.41,0l10.87,-0.27l0,-1.43c0,-0.31 0.15,-0.51 0.38,-0.52l0.33,0l-12,-14.54a1.28,1.28 0 0 0 -0.39,-0.34l0.04,0.02zm0.1,15.16l-0.19,0l-10.79,-12.77l10.87,-0.57l10.76,13.09l-10.65,0.25z" fill="#fff"/>
    <path id="svg_74" d="m346.25,95.91a1.22,1.22 0 0 1 -0.34,-0.3l-12.33,-14.61a1.72,1.72 0 0 1 -0.4,-1l0,15.76a1.62,1.62 0 0 0 0.38,1l12.34,15a1.23,1.23 0 0 0 0.35,0.33a0.75,0.75 0 0 0 0.29,0.09l0.08,0c0.23,0 0.37,-0.2 0.37,-0.52l0,-15.66l-0.41,0a0.76,0.76 0 0 1 -0.33,-0.11l0,0.02zm-0.78,13.33l-10.8,-13.14l0,-13.69l10.8,12.86l0,14l0,-0.03z" fill="#fff"/>
    <polygon id="svg_75" points="347.79 112.04 358.6 111.44 365.18 119.4 358.61 111.44 347.79 112.04" fill="#fff"/>
    <path id="svg_76" d="m371.35,126.45l-1.08,0l0,13.71l-10.77,0.57l0,1.59a0.47,0.47 0 0 1 -0.3,0.51l12.18,-0.65c0.24,0 0.4,-0.2 0.4,-0.52l0,-15.66a0.47,0.47 0 0 1 -0.43,0.45z" fill="#fff"/>
    <path id="svg_77" d="m362.38,114l9,11a1.6,1.6 0 0 1 0.39,1l0,0a1.59,1.59 0 0 0 -0.4,-1l-9,-11l0.01,0z" fill="#fff"/>
    <polygon id="svg_78" points="346.31 78.91 346.31 78.91 346.31 78.91 346.31 78.91" fill="#fff"/>
    <path id="svg_79" d="m346.29,78.9a0.61,0.61 0 0 0 -0.35,-0.09a0.68,0.68 0 0 1 0.37,0.09l0,0l-0.02,0z" fill="#fff"/>
    <polygon id="svg_80" points="335.54 81.39 346.29 80.74 350.06 85.33 346.29 80.74 335.54 81.39" fill="#fff"/>
    <path id="svg_81" d="m359,95.73l-1.09,0l0,13.7l-10.85,0.63l0,1.46c0,0.31 -0.14,0.5 -0.37,0.52l0,0l12.33,-0.73c0.24,0 0.38,-0.22 0.38,-0.53l0,-15.6a0.42,0.42 0 0 1 -0.28,0.53l-0.12,0.02z" fill="#fff"/>
    <path id="svg_82" d="m359,94.21l-12.33,-15a2.17,2.17 0 0 0 -0.36,-0.32a0.68,0.68 0 0 0 -0.37,-0.09l-12,0.7l-0.34,0c-0.24,0 -0.39,0.22 -0.39,0.53a1.72,1.72 0 0 0 0.4,1l12.33,14.57a1.12,1.12 0 0 0 0.35,0.3a0.6,0.6 0 0 0 0.34,0.11l0.37,0l10.85,-0.27l1.15,0a0.42,0.42 0 0 0 0.38,-0.41a0.2,0.2 0 0 0 0,-0.11a1.71,1.71 0 0 0 0,-0.32a1.85,1.85 0 0 0 -0.38,-0.69zm-12.72,-0.12l-10.74,-12.72l10.75,-0.63l3.77,4.59l7,8.5l-10.78,0.26z" fill="#fff"/>
   </g>
  </g>
  <g id="vv">
   <polyline id="svg_8" points="125.61 129.07 180.42 160.71 180.31 200.68 125.5 169.03 125.61 129.07" fill="#fff" opacity="0.5"/>
   <g clip-path="url(#clip-path)" id="svg_5">
    <g id="svg_9">
     <path id="svg_10" d="m173.43,180.32l-35,-20.72l1.13,-2.52l34.2,20.19a2.92,2.92 0 0 1 1.25,1.69c0,0.13 0.24,1.26 -0.36,1.5a1.44,1.44 0 0 1 -0.58,0.09a1.29,1.29 0 0 1 -0.68,-0.23l0.04,0z" fill="#fff"/>
     <path id="svg_11" d="m168.22,185.3l-35,-20.73l1.13,-2.51l34.2,20.19a2.89,2.89 0 0 1 1.26,1.69c0,0.12 0.24,1.26 -0.37,1.49a1.09,1.09 0 0 1 -0.56,0.09a1.2,1.2 0 0 1 -0.66,-0.22z" fill="#fff"/>
     <path id="svg_12" d="m174,171.85l-35,-20.73l1.13,-2.51l34.2,20.2a3,3 0 0 1 1.26,1.69c0,0.12 0.23,1.26 -0.37,1.49a1.26,1.26 0 0 1 -0.58,0.08a1.23,1.23 0 0 1 -0.64,-0.22z" fill="#fff"/>
     <g id="vva">
      <g id="svg_13">
       <path id="svg_14" d="m139,164.74l-29.78,-17.2c-0.73,-0.41 -1.32,-0.07 -1.32,0.76l0,0.08a2.92,2.92 0 0 0 1.25,2.27l29.85,17.2a4,4 0 0 1 -0.48,-1.83a1.57,1.57 0 0 1 0.48,-1.28z" fill="#009aa3"/>
       <g id="svg_15">
        <path id="svg_16" d="m140.64,164.8a1.4,1.4 0 0 0 -1.63,0a1.52,1.52 0 0 0 -0.49,1.25a3.94,3.94 0 0 0 0.48,1.84a4.41,4.41 0 0 0 1.63,1.82a1.4,1.4 0 0 0 1.63,0.06a1.58,1.58 0 0 0 0.49,-1.25a4.22,4.22 0 0 0 -0.47,-1.84a4.53,4.53 0 0 0 -1.64,-1.88z" fill="#fff"/>
        <path id="svg_17" d="m140.64,166.23a0.6,0.6 0 0 0 -0.68,0a0.69,0.69 0 0 0 -0.2,0.53a1.78,1.78 0 0 0 0.2,0.75a1.89,1.89 0 0 0 0.67,0.76a0.6,0.6 0 0 0 0.68,0a0.69,0.69 0 0 0 0.2,-0.53a1.87,1.87 0 0 0 -0.2,-0.76a1.93,1.93 0 0 0 -0.67,-0.75z" fill="#009aa3"/>
       </g>
      </g>
      <g id="svg_18">
       <path id="svg_19" d="m142.79,150.21l-29.79,-17.16c-0.72,-0.41 -1.26,-0.09 -1.26,0.76l0,0.08a2.93,2.93 0 0 0 1.26,2.27l29.76,17.15a4.19,4.19 0 0 1 -0.48,-1.83a1.58,1.58 0 0 1 0.48,-1.27l0.03,0z" fill="#009aa3"/>
       <g id="svg_20">
        <path id="svg_21" d="m144.45,150.27a1.43,1.43 0 0 0 -1.63,0a1.54,1.54 0 0 0 -0.49,1.26a4.18,4.18 0 0 0 0.47,1.83a4.62,4.62 0 0 0 1.64,1.84a1.43,1.43 0 0 0 1.63,0a1.54,1.54 0 0 0 0.49,-1.26a4.23,4.23 0 0 0 -0.48,-1.84a4.43,4.43 0 0 0 -1.63,-1.83z" fill="#fff"/>
        <path id="svg_22" d="m144.45,151.7a0.6,0.6 0 0 0 -0.68,0a0.66,0.66 0 0 0 -0.2,0.53a1.78,1.78 0 0 0 0.2,0.75a1.8,1.8 0 0 0 0.67,0.75a0.57,0.57 0 0 0 0.68,0a0.64,0.64 0 0 0 0.18,-0.57a1.53,1.53 0 0 0 -0.2,-0.75a1.85,1.85 0 0 0 -0.65,-0.71z" fill="#009aa3"/>
       </g>
      </g>
     </g>
     <g id="vvb">
      <path id="svg_23" d="m128.54,150.47l34.93,20.8l-1.15,2.51l-34.16,-20.27a2.92,2.92 0 0 1 -1.25,-1.69c0,-0.13 -0.24,-1.26 0.36,-1.5a1.41,1.41 0 0 1 0.58,-0.09a1.4,1.4 0 0 1 0.69,0.24z" fill="#009aa3"/>
      <g id="svg_24">
       <path id="svg_25" d="m162.32,169.5a2,2 0 0 0 -1.95,-0.23a1.49,1.49 0 0 0 -0.69,1.26a3.57,3.57 0 0 0 0.42,1.87a4.89,4.89 0 0 0 1.78,2a2,2 0 0 0 2,0.24a1.45,1.45 0 0 0 0.7,-1.26a3.64,3.64 0 0 0 -0.42,-1.89a4.88,4.88 0 0 0 -1.79,-2l-0.05,0.01z" fill="#fff"/>
       <path id="svg_26" d="m162.2,171a0.79,0.79 0 0 0 -0.81,-0.1a0.64,0.64 0 0 0 -0.29,0.5a1.75,1.75 0 0 0 0.18,0.78a2,2 0 0 0 0.74,0.82a0.83,0.83 0 0 0 0.79,0.09a0.6,0.6 0 0 0 0.29,-0.51a1.26,1.26 0 0 0 -0.18,-0.76a1.85,1.85 0 0 0 -0.72,-0.82z" fill="#009aa3"/>
      </g>
     </g>
    </g>
   </g>
  </g>
  <g id="l">
   <g id="svg_1007" opacity="0.2">
    <polygon id="svg_1008" points="248.5 310.85 287.26 333.96 287.39 287.91 248.62 264.8 248.5 310.85" fill="#fff"/>
   </g>
   <g id="svg_1009" opacity="0.2">
    <polygon id="svg_1010" points="276.4 299.24 315.17 322.35 315.3 276.31 276.54 253.2 276.4 299.24" fill="#fff"/>
   </g>
   <g id="m">
    <g id="svg_1011">
     <path id="svg_1012" d="m260.75,159.44l-65.17,-37.7a4.61,4.61 0 0 0 -4.64,-0.46l-1.94,1.13l0,0a4.58,4.58 0 0 0 -1.91,4.18l-0.45,177.21a14.32,14.32 0 0 0 6.48,11.31l65.23,37.7a4.5,4.5 0 0 0 4.73,0.39l-0.1,0.06l1.94,-1.13a4.56,4.56 0 0 0 1.9,-4.17l0.47,-177.2a14.3,14.3 0 0 0 -6.54,-11.32z" fill="#6c99a3"/>
     <polygon id="svg_1013" points="189.38 294.94 259.32 335.33 259.72 181.5 189.77 141.11 189.38 294.94" fill="#e7f5f6"/>
     <polygon id="svg_1014" points="189.62 148.2 259.57 188.59 259.72 181.5 189.77 141.11 189.62 148.2" fill="#f15c2b"/>
     <path id="svg_1015" d="m256.7,162.54l-63.81,-36.85c-3.52,-2 -6.39,-0.4 -6.4,3.64l-0.49,174.67a14,14 0 0 0 6.36,11l63.81,36.85c3.52,2 6.38,0.4 6.39,-3.63l0.45,-174.69a14,14 0 0 0 -6.31,-10.99zm2.62,172.85l-69.94,-40.39l0.39,-153.83l69.9,40.33l-0.35,153.89z" fill="#004652"/>
     <g id="r">
      <g clip-path="url(#clip-path-2)" id="svg_6">
       <g id="svg_1016">
        <g id="svg_1017">
         <path id="svg_1018" d="m205.29,282l-0.63,16c0,9.47 28.71,20.3 37.53,5.91c2.19,-3.56 1.41,-19.51 1.41,-19.51l-38.31,-2.4z" fill="#364d5f"/>
         <path id="svg_1019" d="m218.41,222.28l-1,2.7c-0.63,1.73 -1.54,4.19 -2.61,7.16l-1.8,4.86c-0.63,1.74 -1.32,3.57 -2.08,5.51s-1.61,3.94 -2.63,6c-0.5,1 -1.07,2.1 -1.67,3.15a33,33 0 0 1 -2,3.12c-0.76,1 -1.52,2 -2.34,2.94s-1.7,1.8 -2.51,2.62s-1.78,1.55 -2.66,2.27l-0.08,0.06l-0.03,0l-0.15,0.1l-0.31,0.23l-0.69,0.49l-0.37,0.25l-0.35,0.23l-0.68,0.45c-1.82,1.16 -3.58,2.15 -5.25,3s-3.24,1.7 -4.71,2.4c-2.95,1.42 -5.41,2.52 -7.14,3.26l-2,0.85l-0.74,0.31a3.32,3.32 0 0 1 -3,-5.9l0,0l0.62,-0.38l1.77,-1.11c1.52,-1 3.69,-2.41 6.22,-4.18c1.26,-0.89 2.6,-1.87 4,-2.93s2.79,-2.21 4.12,-3.41l0.51,-0.47l0.25,-0.23l0.21,-0.21l0.48,-0.46l0.28,-0.28l0.12,-0.13l0.06,0c0.64,-0.62 1.26,-1.25 1.86,-1.92a21.65,21.65 0 0 0 1.64,-2a25.34,25.34 0 0 0 1.38,-2.15a24.24,24.24 0 0 0 1.19,-2.33c0.37,-0.8 0.71,-1.63 1,-2.51a55.51,55.51 0 0 0 1.74,-5.34c0.48,-1.81 1,-3.61 1.46,-5.33l1.25,-4.9c0.81,-3.09 1.47,-5.66 2,-7.45s0.74,-2.82 0.74,-2.82a7.37,7.37 0 0 1 14.23,3.77c-0.06,0.23 -0.14,0.44 -0.21,0.65l0,0l-0.12,0.06z" fill="#009aa3"/>
         <path id="svg_1020" d="m236.22,247.72c0.07,-3 0.16,-5.92 0.1,-8.89c0,-1.34 -0.09,-2.67 -0.19,-4a18.9,18.9 0 0 0 -0.17,-1.93l-0.08,-0.69a1.88,1.88 0 0 0 -0.09,-0.7l0.08,0.49a7.45,7.45 0 0 0 -0.34,-2c-0.1,-0.58 -0.22,-1.15 -0.34,-1.71c-0.24,-1.16 -0.53,-2.3 -0.86,-3.43c-0.37,-1.32 -0.8,-2.62 -1.25,-3.9c-0.24,-0.68 -0.51,-1.36 -0.77,-2l-0.38,-0.95l0,-0.15l-0.15,-0.34a5.43,5.43 0 0 1 -0.39,-3.35a41.65,41.65 0 0 0 -6.28,-0.89a19,19 0 0 0 -10.75,1.72c-0.41,2.26 -0.79,4.52 -1.11,6.8a10.75,10.75 0 0 1 -0.18,1.25l0,0.32c-0.09,0.78 -0.2,1.55 -0.29,2.33c-0.19,1.57 -0.35,3.13 -0.5,4.7c-1.8,18.54 -1.35,37.17 -1.1,55.78a60.32,60.32 0 0 0 15.09,1.55a50.93,50.93 0 0 0 11.41,-1.16c-0.24,-1.41 -0.44,-2.82 -0.62,-4.24c-1.43,-11.45 -1.15,-23.11 -0.84,-34.62l0,0.01z" fill="#fff"/>
         <path id="svg_1021" d="m227.82,252.52z" fill="#ffba94"/>
         <path id="svg_1022" d="m227.55,203.32c0.66,-3.08 -7.4,3.32 -7.4,3.32a38.15,38.15 0 0 1 -2.34,6.9s1.92,4.14 5.78,3.77a8.67,8.67 0 0 0 5.94,-2.91s-2.65,-8 -1.98,-11.08z" fill="#b37d57"/>
         <path id="svg_1023" d="m227.55,203.32c0.66,-3.08 -7.4,3.32 -7.4,3.32a38.15,38.15 0 0 1 -2.34,6.9s1.92,4.14 5.78,3.77a8.67,8.67 0 0 0 5.94,-2.91s-2.65,-8 -1.98,-11.08z" fill="#a67350"/>
         <path id="svg_1024" d="m212.74,225c1,-4.19 3.09,-10.56 6.19,-13.56c-17.45,-0.92 -12.94,9.32 -12.79,23.64c0.09,7.54 1,21.36 0.18,29.92l-1.66,17.92s1.26,2.33 8.3,3.77c-0.12,-1.14 2.84,-34 3.14,-36.19c0,-0.17 -4.83,-16.34 -4.81,-16.43l0.15,-1.12c0.35,-2.67 0.7,-5.34 1.3,-8l0,0.05z" fill="#009aa3"/>
         <path id="svg_1025" d="m239.56,254c0.59,-7.63 3.5,-19.71 4.31,-29.45c0.38,-4.43 -4.09,-10 -13.92,-13.16c1.25,2.4 -14.4,35.09 -14.48,35.66c-0.06,0.36 -3.33,33.53 -3,40.22c0.34,7.25 8.06,2.14 11.31,0.4l2.52,0c12.67,0 17.37,-3.4 17.37,-3.4c-0.43,-10.01 -5.3,-15.21 -4.11,-30.27z" fill="#009aa3"/>
         <path id="svg_1026" d="m239.56,254c0.59,-7.63 2.79,-19.36 3.62,-29.08a7.37,7.37 0 0 0 -1.13,-4.46a9.76,9.76 0 0 1 -7.28,4.19a67.57,67.57 0 0 1 0,11.73c-0.37,4.17 -1.18,8.33 -1.39,12.57c-0.15,2.91 -0.15,5.83 -0.38,8.73a38.83,38.83 0 0 1 -2,11.1a21.82,21.82 0 0 1 -4.07,7.07a16,16 0 0 1 -6.62,4.2a8.72,8.72 0 0 1 -6.09,-0.48a6.34,6.34 0 0 1 -1.45,-0.66c-0.24,3.77 -0.37,6.85 -0.29,8.44c0.34,7.24 8,2.14 11.31,0.39l2.51,0c12.67,0 17.37,-3.39 17.37,-3.39c-0.47,-10.12 -5.34,-15.32 -4.15,-30.35l0.04,0z" fill="#008991"/>
         <path id="svg_1027" d="m216.78,243.84a9.26,9.26 0 0 0 -1.35,3.24s0.57,-1.28 1.35,-3.24z" fill="#00b0ba"/>
         <path id="svg_1028" d="m244.1,222.81s0.2,1.19 0.56,3.27s0.85,5 1.4,8.56s1.17,7.7 1.73,12.19q0.44,3.38 0.78,7c0.12,1.25 0.22,2.44 0.29,3.69s0.13,2.52 0.12,4a15,15 0 0 1 -0.13,2.33a11.64,11.64 0 0 1 -0.25,1.55a8.77,8.77 0 0 1 -0.33,1.14a1.3,1.3 0 0 1 -0.15,0.37l-0.2,0.43l-0.13,0.23l0,0l-0.06,0.08l-0.24,0.38l-0.19,0.33c-0.11,0.19 -0.22,0.35 -0.36,0.6c-0.26,0.45 -0.52,0.93 -0.78,1.41c-1,1.93 -2,4 -2.94,5.93c-1.87,3.93 -3.54,7.7 -5,10.92s-2.59,5.95 -3.4,7.84l-1.25,3l0,0a3.31,3.31 0 0 1 -6.23,-2.21s0.34,-1.15 0.92,-3.16s1.45,-4.83 2.52,-8.24s2.3,-7.39 3.77,-11.66c0.72,-2.14 1.49,-4.35 2.38,-6.64c0.24,-0.58 0.47,-1.16 0.73,-1.76l0.43,-1l0.21,-0.45l0.19,-0.4l0,-0.1l0,0l-0.07,0.14a2.39,2.39 0 0 0 -0.12,0.22l-0.07,0.17l-0.1,0.29l0,-0.26a8.34,8.34 0 0 0 -0.08,-1.25c-0.09,-1 -0.24,-2 -0.41,-3.11s-0.38,-2.17 -0.59,-3.26c-0.42,-2.19 -0.9,-4.38 -1.39,-6.49c-1,-4.23 -2,-8.19 -2.84,-11.59s-1.64,-6.22 -2.2,-8.18s-0.85,-3.08 -0.85,-3.08l0,0a7.36,7.36 0 1 1 14.05,-4.41c0,0.14 0.09,0.29 0.13,0.44a5.18,5.18 0 0 0 0.11,0.73l0.04,0.01z" fill="#009aa3"/>
         <path id="svg_1029" d="m228.25,210c0.67,4.24 -1.26,10.79 -4.46,17.73c-2.16,4.72 -5.22,12 -6.95,16.14c4,-6.66 15.08,-16.73 15.08,-16.73l-2.31,-3.77l2.75,-0.48c1.84,-4.06 1.8,-6.43 0.76,-8.22c-0.93,-1.44 -4.87,-4.67 -4.87,-4.67z" fill="#33aeb5"/>
         <path id="svg_1030" d="m211,218.51l0.91,1l-2.72,3s0,0.17 0.37,6.28c0.2,3.37 5.87,18.4 5.87,18.4s-2.4,-13.61 -1.18,-20.51s2.3,-11.38 3.68,-13.37a5.85,5.85 0 0 0 1.32,-3.23c-1.72,0.85 -8.25,8.49 -8.25,8.49l0,-0.06z" fill="#33aeb5"/>
         <path id="svg_1031" d="m235.94,184.49c-8.34,-7 -8.37,9.83 -8.37,9.83s1,4.65 4.4,3.27c4.9,-2 8.4,-9.38 4,-13.1l-0.03,0z" fill="#002d42"/>
         <path id="svg_1032" d="m213.77,190.13s-3.45,12.43 -1.08,17.26s6.49,5.69 13.07,0.29a20.78,20.78 0 0 0 7.54,-12s-4.29,-11.54 -19.53,-5.51l0,-0.04z" fill="#b37d57"/>
         <path id="svg_1033" d="m231.05,184.25a14.25,14.25 0 0 0 -16,0c-3.39,2.24 -3.52,8.13 -3.52,8.13a43.35,43.35 0 0 0 6.87,-2.13a39.1,39.1 0 0 0 10.46,9c1.53,0.82 -1.47,6.86 -1.47,6.86a11.31,11.31 0 0 0 5.65,-5.49c2.16,-4.25 2.39,-13.43 -2,-16.34l0.01,-0.03z" fill="#002d42"/>
         <path id="svg_1034" d="m227.22,199.92l-0.1,0.78s-0.94,2.39 0.25,3.1s3.9,-3.93 3,-5s-3.15,1.12 -3.15,1.12z" fill="#b37d57"/>
         <g id="svg_1035">
          <g id="svg_1036" opacity="0.5">
           <path id="svg_1037" d="m218.8,198.2c-2.51,-0.85 -2.79,-0.5 -2.78,0.28a5.25,5.25 0 0 0 2.84,4.47c2.29,1.2 3,0.34 3.28,-1.38s-0.75,-2.49 -3.34,-3.37z" fill="#fff"/>
          </g>
          <g id="svg_1038" opacity="0.5">
           <path id="svg_1039" d="m212.42,195.45c-2.08,-1.08 -2.78,-1 -2.52,0.92s0.71,3.28 2.52,3.84c0.83,0.27 2.51,0.26 2.51,-2.2c0,-0.77 -0.35,-1.43 -2.51,-2.56z" fill="#fff"/>
          </g>
          <path id="svg_1040" d="m222.61,199.66a20,20 0 0 0 -2.88,-1.36l0,0l-0.63,-0.24l-0.32,-0.11a7.83,7.83 0 0 0 -2.13,-0.53l-0.25,0a2.89,2.89 0 0 1 -1,-0.1a5,5 0 0 1 -0.89,-0.7l-0.23,-0.19a10,10 0 0 0 -1.89,-1.26l-0.27,-0.13l-0.55,-0.27l0,0a7.65,7.65 0 0 0 -2.12,-0.7l0,0s-0.07,0 -0.08,0.09s0,0.25 0,0.42a0.21,0.21 0 0 0 0.09,0.2l0,0a0.69,0.69 0 0 1 0.15,0.46l0,0.12a3.93,3.93 0 0 0 0,0.84c0.19,1.75 0.61,3.08 2,3.78a6.09,6.09 0 0 0 0.71,0.27a1.9,1.9 0 0 0 2.49,-1a1.88,1.88 0 0 0 0.15,-0.81l0,0a0.74,0.74 0 0 1 0,-0.21c0,-0.44 0.22,-0.42 0.31,-0.38l0,0c0.1,0 0.34,0.19 0.38,0.76a0.11,0.11 0 0 1 0,0.08l0,0.12a5.58,5.58 0 0 0 3,4.19a5.49,5.49 0 0 0 0.86,0.38c1.81,0.63 2.4,-0.29 2.65,-1.83a3.3,3.3 0 0 0 0,-0.77l0,-0.16c0,-0.32 0.2,-0.32 0.2,-0.32l0.08,0a0.1,0.1 0 0 0 0.13,-0.05s0,0 0,-0.05c0,-0.19 6.13,-1.57 6.12,-1.75c2.41,-0.74 -6,1.27 -6.11,1.21l0.03,0zm-10.22,0.32a3.77,3.77 0 0 1 -0.66,-0.26c-1.25,-0.61 -1.57,-1.71 -1.74,-3.35a1.84,1.84 0 0 1 0.17,-1.35c0.18,-0.2 0.86,-0.11 1.95,0.44a1.47,1.47 0 0 0 0.28,0.14c2.13,1.13 2.35,1.69 2.35,2.3c0,2.67 -2,2.24 -2.35,2.11l0,-0.03zm9.51,1.44c-0.25,1.45 -0.73,2.2 -2.26,1.67a7,7 0 0 1 -0.79,-0.35a5,5 0 0 1 -2.68,-4.22c0,-0.62 0.15,-1 2.61,-0.17l0.33,0.12a5.38,5.38 0 0 1 2.51,1.44a1.91,1.91 0 0 1 0.32,1.55l0,0l-0.04,-0.04z" fill="#434d57"/>
         </g>
         <polygon id="svg_1041" points="209.98 194.48 213.09 192.94 213.19 192.49 209.51 194.17 209.98 194.48" fill="#434d57"/>
        </g>
       </g>
      </g>
     </g>
     <polygon id="svg_1042" points="189.38 294.94 259.32 335.33 259.72 284.54 189.77 244.16 189.38 294.94" fill="#ffd554"/>
    </g>
   </g>
   <g id="wifi" opacity="0.8">
    <g id="svg_1043">
     <g id="ww1">
      <path id="svg_1044" d="m227.77,124c-3,-1.7 -5.92,-2.11 -8.17,-0.83c-0.47,0.28 -0.47,1.14 0,2a2.53,2.53 0 0 0 0.85,0.9a0.84,0.84 0 0 0 0.85,0.08c1.79,-1 4.12,-0.68 6.46,0.67a18.53,18.53 0 0 1 6.44,6.78a2.27,2.27 0 0 0 0.85,0.89a0.84,0.84 0 0 0 0.86,0.09c0.46,-0.26 0.47,-1.14 0,-2a23.51,23.51 0 0 0 -8.14,-8.58z" fill="#fff"/>
     </g>
     <g id="ww2">
      <path id="svg_1045" d="m227.79,116c-4.73,-2.74 -9.47,-3.39 -13.09,-1.34c-0.46,0.27 -0.46,1.15 0,2a2.4,2.4 0 0 0 0.86,0.9a0.89,0.89 0 0 0 0.85,0.09c3.14,-1.8 7.25,-1.26 11.31,1.16a32.5,32.5 0 0 1 11.28,11.92a2.4,2.4 0 0 0 0.86,0.9a0.86,0.86 0 0 0 0.85,0.09c0.48,-0.28 0.48,-1.16 0,-2a37.39,37.39 0 0 0 -13,-13.75l0.08,0.03z" fill="#fff"/>
     </g>
     <g id="ww3">
      <path id="svg_1046" d="m227.81,108.23c-6.73,-3.89 -13.08,-4.54 -17.86,-1.81c-0.47,0.28 -0.47,1.14 0,2a2.59,2.59 0 0 0 0.86,0.91a0.86,0.86 0 0 0 0.85,0.07c4.33,-2.51 10.06,-1.87 16.15,1.65s11.83,9.55 16.13,17a2.39,2.39 0 0 0 0.84,0.89a0.84,0.84 0 0 0 0.85,0.09c0.48,-0.26 0.48,-1.14 0,-2c-4.75,-8.22 -11.09,-14.89 -17.82,-18.79l0,-0.01z" fill="#fff"/>
     </g>
    </g>
   </g>
   <g id="p">
    <path id="svg_1047" d="m236.58,279l-8.88,-5.13c-0.63,-0.37 -1.13,-0.08 -1.13,0.64l0,10.22a2.49,2.49 0 0 0 1.12,1.93l8.88,5.13c0.63,0.36 1.13,0.08 1.13,-0.64l0,-10.15a2.47,2.47 0 0 0 -1.12,-1.94l0,-0.06z" fill="#fff"/>
   </g>
   <g id="q">
    <path id="svg_1048" d="m251.49,288.15l-8.9,-5.14c-0.61,-0.35 -1.12,-0.06 -1.12,0.64l0,10.22a2.53,2.53 0 0 0 1.12,1.95l8.9,5.12c0.61,0.36 1.12,0.08 1.12,-0.64l0,-10.21a2.52,2.52 0 0 0 -1.12,-1.94z" fill="#fff"/>
   </g>
   <g id="n">
    <path id="svg_1049" d="m206.75,262.12l-8.89,-5.12c-0.61,-0.35 -1.13,-0.07 -1.13,0.65l0,10.21a2.54,2.54 0 0 0 1.12,1.94l8.89,5.14c0.62,0.35 1.13,0.06 1.13,-0.65l0,-10.22a2.53,2.53 0 0 0 -1.12,-1.95z" fill="#fff"/>
   </g>
   <g id="o">
    <path id="svg_1050" d="m221.65,271.3l-8.89,-5.13c-0.62,-0.37 -1.12,-0.08 -1.12,0.64l0,10.19a2.48,2.48 0 0 0 1.13,1.94l8.88,5.13c0.62,0.37 1.12,0.08 1.13,-0.64l0,-10.2a2.5,2.5 0 0 0 -1.13,-1.93z" fill="#fff"/>
   </g>
   <g id="s">
    <path id="svg_1051" d="m218.29,235l-55.29,-31.86a0.57,0.57 0 0 0 -0.77,0.22a0.48,0.48 0 0 0 -0.07,0.26l-0.16,47.76a0.46,0.46 0 0 0 0.24,0.4l55.3,29.62a0.66,0.66 0 0 0 0.9,-0.25a0.69,0.69 0 0 0 0.09,-0.34l0,-45.42a0.39,0.39 0 0 0 -0.24,-0.39z" fill="#0f3c5f"/>
    <g id="svg_1052">
     <polygon id="svg_1053" points="163.77 205.58 163.29 207.43 163.16 249.54 187.17 263.32 187.13 219.08 163.77 205.58" fill="#ededed"/>
     <polygon id="svg_1054" points="186.98 263.34 213.94 280.3 216.58 280.3 216.58 236.04 187.13 219.08 186.98 263.34" fill="#ededed"/>
     <g id="svg_1055">
      <path id="svg_1056" d="m187.17,223.05l0,-1.86a3.9,3.9 0 0 0 0,1.86z" fill="#fff"/>
      <path id="svg_1057" d="m187.17,223.05l0,42.39s-1.2,1.37 2.39,4.06c6.28,4.67 24.38,10.8 24.38,10.8l0,-44.19s-18,-6.89 -23.52,-9.47a5.29,5.29 0 0 1 -3.25,-3.59z" fill="#fff"/>
     </g>
     <path id="svg_1058" d="m178.31,219.28a97.17,97.17 0 0 1 -15,-11.85l-0.13,44.25s9.25,9 14.32,11.31c7.6,3.49 9.69,2.51 9.69,2.51l0,-44.31s-3.27,1.46 -8.86,-1.91l-0.02,0z" fill="#fff"/>
     <path id="svg_1059" d="m185.52,258.2a10.92,10.92 0 0 1 -2.42,6.89c3.13,0.84 4.12,0.35 4.12,0.35l0,-44.25a5,5 0 0 1 -1.7,0.3l0,36.71z" fill="#ededed"/>
    </g>
    <path id="svg_1060" d="m185.9,216.61l5.18,3c-0.75,-3.46 -5.18,-3 -5.18,-3z" fill="#0f3c5f"/>
    <path id="svg_1061" d="m185.18,218l4.69,2.7c-0.67,-3.18 -4.69,-2.7 -4.69,-2.7z" fill="#ededed"/>
    <g id="svg_1062">
     <path id="svg_1063" d="m182,224.67c-3.57,-0.35 -7.42,-2.37 -11.44,-6a41,41 0 0 1 -5,-5.35l0.79,-0.59c0.07,0.1 7.7,10.19 15.72,11l0,1l-0.07,-0.06z" fill="#ededed"/>
     <path id="svg_1064" d="m182,230.25c-3.56,-0.34 -7.42,-2.35 -11.44,-5.94a42.53,42.53 0 0 1 -5,-5.29l0.79,-0.61c0.07,0.1 7.7,10.06 15.72,10.86l-0.07,0.98z" fill="#ededed"/>
     <path id="svg_1065" d="m182,235.84c-3.56,-0.35 -7.42,-2.33 -11.44,-5.89a41.38,41.38 0 0 1 -5,-5.23l0.79,-0.6c0.07,0.1 7.7,9.94 15.72,10.73l-0.07,0.99z" fill="#ededed"/>
     <path id="svg_1066" d="m182,241.42c-3.56,-0.35 -7.4,-2.31 -11.44,-5.83a41.4,41.4 0 0 1 -5,-5.15l0.79,-0.62c0.07,0.1 7.7,9.83 15.72,10.61l-0.07,0.99z" fill="#ededed"/>
     <path id="svg_1067" d="m182,247c-3.56,-0.34 -7.4,-2.28 -11.44,-5.75a41.78,41.78 0 0 1 -5,-5.11l0.79,-0.61c0.07,0.1 7.7,9.7 15.72,10.48l0,1l-0.07,-0.01z" fill="#ededed"/>
     <path id="svg_1068" d="m182,252.6c-3.56,-0.36 -7.4,-2.28 -11.44,-5.71a39.76,39.76 0 0 1 -5,-5l0.78,-0.61c0.07,0.1 7.7,9.57 15.72,10.37l-0.06,0.95z" fill="#ededed"/>
     <path id="svg_1069" d="m182,258.18c-3.56,-0.36 -7.4,-2.25 -11.42,-5.63a39.84,39.84 0 0 1 -5,-5l0.77,-0.63c0.08,0.1 7.7,9.46 15.73,10.24l0,1.05l-0.08,-0.03z" fill="#ededed"/>
    </g>
    <g id="svg_1070">
     <path id="svg_1071" d="m211.91,240a107.4,107.4 0 0 1 -12.77,-3.77c-7.93,-2.8 -9.16,-5.19 -9.27,-5.45l0.9,-0.41l-0.45,0.2l0.45,-0.21s1.19,2.28 8.7,4.93a105.4,105.4 0 0 0 12.64,3.77l-0.2,0.94z" fill="#ededed"/>
     <path id="svg_1072" d="m211.91,245.77a131.13,131.13 0 0 1 -12.85,-4.05c-7.54,-2.76 -9,-5.31 -9.06,-5.41l0.86,-0.48s1.42,2.35 8.54,5c4.18,1.55 8.44,2.88 12.75,4l-0.24,0.9l0,0.04z" fill="#ededed"/>
     <path id="svg_1073" d="m211.91,251.57c-0.06,0 -6.12,-1.74 -12.95,-4.34c-7.09,-2.7 -8.8,-5.29 -8.8,-5.4l0.84,-0.53l-0.41,0.26l0.41,-0.26s1.66,2.45 8.36,5s12.82,4.29 12.87,4.32l-0.32,0.93l0,0.02z" fill="#ededed"/>
     <path id="svg_1074" d="m211.91,257.36s-6.63,-2.07 -13,-4.64s-8.56,-5.26 -8.64,-5.38l0.82,-0.58s1.9,2.52 8.19,5s12.91,4.58 13,4.6l-0.29,1l-0.08,0z" fill="#ededed"/>
     <path id="svg_1075" d="m211.84,263.14c-0.08,0 -7.14,-2.41 -13.15,-4.91s-8.34,-5.26 -8.43,-5.37l0.78,-0.63s2.17,2.64 8,5s13,4.86 13.08,4.89l-0.31,1l0.03,0.02z" fill="#ededed"/>
     <path id="svg_1076" d="m211.83,268.93c-0.08,0 -7.65,-2.75 -13.25,-5.21a24.26,24.26 0 0 1 -8.22,-5.36l0.75,-0.65a24,24 0 0 0 7.86,5.1c5.58,2.44 13.12,5.16 13.19,5.19l-0.33,0.93z" fill="#ededed"/>
     <path id="svg_1077" d="m211.83,274.73c-0.09,0 -8.16,-3.11 -13.36,-5.51a27.54,27.54 0 0 1 -8,-5.35l0.73,-0.68a27.3,27.3 0 0 0 7.69,5.13c5.18,2.39 13.21,5.45 13.3,5.48l-0.35,0.93l-0.01,0z" fill="#ededed"/>
    </g>
   </g>
  </g>
  <g id="t">
   <path id="svg_1079" d="m71.23,192.75c-3,3.77 -16.05,40.22 7.79,42.35c13.68,1.26 16.84,-10.67 16.84,-10.67l2.52,-42.1s-14.38,-5.33 -27.15,10.42z" fill="#002d42"/>
   <g id="svg_1080">
    <path id="svg_1081" d="m118.17,331.13s-5.16,-5.11 -7.26,-5.88c-5.34,-1.95 -5.85,1.14 -5.85,1.14l-0.6,4a3.28,3.28 0 0 0 1.48,2.66l5.43,1.91s6,4.36 8.45,3.21c2.18,-1.03 3.92,-3.9 -1.65,-7.04z" fill="#fff"/>
    <path id="svg_1082" d="m94.77,345.23s-5.66,-4.7 -7.54,-5.55c-5.33,-2.38 -5.32,1.25 -5.32,1.25l-0.7,3.66a2.91,2.91 0 0 0 1.46,2.41l10.2,5.53s4.51,1.12 5.92,-2.67l0,-0.25c-0.41,-1.65 -2.88,-3.23 -4,-4.38l-0.02,0z" fill="#fff"/>
    <path id="svg_1083" d="m114.44,238.81l0,1c0,0.68 0,1.62 0.09,2.84s0.07,2.7 0.11,4.39s0.06,3.58 0.09,5.65l0,14.09c0,2.58 0,5.24 -0.1,8c0,1.34 0,2.71 -0.1,4.07s0,2.75 -0.12,4.12l-0.15,4.1l-0.15,4.06c-0.11,2.66 -0.22,5.3 -0.33,7.84c-0.2,5 -0.38,9.84 -0.55,13.9c-0.09,2 -0.16,3.9 -0.21,5.56s-0.11,3.09 -0.15,4.27c-0.08,2.37 -0.12,3.77 -0.12,3.77a3.77,3.77 0 0 1 -7.4,0.19l0,0s-0.11,-1.35 -0.29,-3.71c-0.08,-1.18 -0.21,-2.61 -0.34,-4.26s-0.29,-3.51 -0.47,-5.53s-0.38,-4.21 -0.58,-6.52s-0.43,-4.77 -0.68,-7.29s-0.5,-5.14 -0.78,-7.78c-0.14,-1.32 -0.28,-2.65 -0.41,-4l-0.12,-1l-0.11,-1l-0.23,-2c-0.15,-1.32 -0.31,-2.66 -0.49,-4s-0.32,-2.64 -0.5,-3.95c-0.35,-2.6 -0.73,-5.17 -1.09,-7.65c-0.2,-1.26 -0.39,-2.51 -0.58,-3.66s-0.39,-2.35 -0.57,-3.48s-0.39,-2.23 -0.56,-3.3s-0.38,-2.09 -0.56,-3.08c-0.35,-2 -0.7,-3.77 -1,-5.36s-0.61,-3 -0.83,-4.11s-0.44,-2 -0.58,-2.61s-0.2,-0.88 -0.2,-0.88a10.14,10.14 0 1 1 19.62,-5.09c0,0.18 0.09,0.36 0.12,0.55a11,11 0 0 1 0.26,1.81l0.06,0.05z" fill="#0f3c5f"/>
    <path id="svg_1084" d="m106.94,316.25a190.11,190.11 0 0 0 -0.31,-19.54c-0.39,-7.68 -0.31,-15.35 0,-23s0.73,-15.47 0.53,-23.21a9.31,9.31 0 0 1 7.37,-9.06l0,-2.7a12.13,12.13 0 0 0 -0.25,-1.81a10.15,10.15 0 1 0 -19.89,4c0,0.18 0.08,0.37 0.13,0.55l0.2,0.88c0.13,0.58 0.34,1.48 0.58,2.61s0.51,2.52 0.83,4.11s0.66,3.4 1,5.36c0.17,1 0.36,2 0.55,3.08s0.36,2.16 0.56,3.3s0.38,2.3 0.57,3.48s0.38,2.42 0.58,3.66c0.36,2.51 0.74,5 1.09,7.65c0.18,1.26 0.34,2.63 0.5,4s0.34,2.67 0.49,4l0.23,2l0.11,1l0.12,1c0.13,1.34 0.27,2.67 0.41,4c0.28,2.64 0.54,5.25 0.78,7.78s0.48,5 0.68,7.29s0.4,4.5 0.58,6.52s0.34,3.88 0.47,5.53s0.26,3.08 0.34,4.26c0.18,2.36 0.29,3.71 0.29,3.71l0,0a3.6,3.6 0 0 0 0.91,2.13c0,-4.14 0.31,-8.32 0.53,-12.49l0.02,-0.09z" opacity="0.1"/>
    <path id="svg_1085" d="m99.82,241.23s-0.15,1.56 -0.43,4.28s-0.65,6.61 -1.1,11.31s-0.94,10.12 -1.5,15.95s-1.05,12.05 -1.59,18.23c-0.14,1.56 -0.27,3.1 -0.4,4.65s-0.26,3.05 -0.37,4.58c0,0.75 -0.14,1.54 -0.2,2.33s-0.14,1.59 -0.23,2.34c-0.15,1.52 -0.3,3 -0.46,4.5c-0.32,2.94 -0.67,5.77 -1,8.46s-0.62,5.21 -0.89,7.54c-1.13,9.38 -1.89,15.6 -1.89,15.6a3.77,3.77 0 0 1 -7.42,-0.52l0,0l0,-23.11c0,-2.68 -0.09,-5.49 -0.16,-8.4c0,-1.44 -0.09,-2.91 -0.14,-4.39c0,-0.76 -0.06,-1.47 -0.09,-2.22s-0.06,-1.45 -0.11,-2.23s-0.08,-1.54 -0.13,-2.3s0,-1.6 -0.09,-2.4c0,-1.57 -0.11,-3.15 -0.17,-4.72c-0.22,-6.28 -0.43,-12.5 -0.64,-18.37s-0.42,-11.31 -0.61,-16s-0.35,-8.6 -0.46,-11.31s-0.19,-4.3 -0.19,-4.3a10.11,10.11 0 0 1 20.21,-0.89a10.9,10.9 0 0 1 0,1.4l0.06,-0.01z" fill="#0f3c5f"/>
    <path id="svg_1086" d="m85.14,343.82c-0.06,-4.63 0.32,-9.28 0.36,-13.92c0.06,-7.74 0.37,-15.46 0.69,-23.19c0.3,-7.48 0.52,-14.94 1.14,-22.39c0.57,-6.81 1.14,-13.69 0.41,-20.5l0,-0.4a10.63,10.63 0 0 1 1,-7.2a9.41,9.41 0 0 1 5.58,-4.3a8.78,8.78 0 0 1 4.55,-0.08c0.25,-2.51 0.45,-4.64 0.63,-6.28c0.27,-2.72 0.42,-4.28 0.42,-4.28l0,-0.15a10.9,10.9 0 0 0 0,-1.4a10.11,10.11 0 0 0 -20.21,0.89s0.08,1.56 0.19,4.3s0.28,6.65 0.47,11.31s0.39,10.15 0.6,16s0.43,12.13 0.64,18.37c0,1.57 0.11,3.15 0.18,4.72c0,0.8 0.06,1.59 0.09,2.4s0.08,1.53 0.12,2.3s0.08,1.5 0.11,2.23s0.08,1.46 0.09,2.22c0,1.48 0.1,2.95 0.14,4.39c0.08,2.91 0.14,5.72 0.16,8.4s0,5.2 0,7.54l0,15.57l0,0a3.78,3.78 0 0 0 2.69,3.81l-0.05,-0.36z" opacity="0.1"/>
    <path id="svg_1087" d="m112.63,178l0.36,0.46l1.1,1.25c0.94,1.13 2.31,2.73 4,4.62s3.61,4.07 5.76,6.28c1.06,1.12 2.18,2.25 3.31,3.33c1.61,1.52 1.88,1.56 3.41,3c2.43,2.2 4.64,3.77 4.47,5.27c-0.26,2.3 -6.1,4.67 -9.81,3.06a29.72,29.72 0 0 1 -4.86,-3.11c-1.48,-1.09 -2.84,-2.17 -4.15,-3.24c-2.59,-2.16 -4.9,-4.22 -6.86,-6c-1,-0.89 -1.86,-1.73 -2.64,-2.51l-2,-1.93l-1.26,-1.26l-0.46,-0.48a6.48,6.48 0 0 1 9.23,-9.1c0.13,0.13 0.26,0.27 0.37,0.4l0.03,-0.04z" fill="#f9b395"/>
    <path id="svg_1088" d="m110.56,174.27l0,19.9c0.5,0.34 4.57,5.62 5.08,6c6.29,-2.7 8.27,-10.54 8.27,-10.54s-10.33,-12.48 -13.35,-15.36z" fill="#f25512"/>
    <g id="thand">
     <path id="svg_1089" d="m160.86,213.79s-1.94,-2.52 -3,-2.81c-1.57,-0.4 -6.28,0.91 -7.54,1.49c-0.29,0.14 0,0 -0.77,1.88c-0.41,1 -0.19,1.46 0.64,2.26a10.42,10.42 0 0 0 5,2.17a15.86,15.86 0 0 0 4.79,-0.73c0.62,-0.29 -0.34,-1.16 -0.34,-1.16c0.89,-0.11 0.94,-0.44 0.94,-0.44s5,-0.17 6.11,-0.07c2,0.18 1.9,-1 1.9,-1l-7.81,-1.56l0.08,-0.03z" fill="#f9b395"/>
     <path id="svg_1090" d="m154.1,213.61l-21.1,-15s-6.81,-3.6 -7.54,4.46a8.81,8.81 0 0 0 4.51,5.36q5.55,2.85 11.93,5.6c3.68,1.59 7.24,3 10.63,4.2a2.35,2.35 0 0 0 2.87,-1.36a2.71,2.71 0 0 0 -1.3,-3.26z" fill="#f9b395"/>
    </g>
    <path id="svg_1091" d="m115.7,194.7c-0.76,-10.23 1.08,-26.19 -18.86,-22.51a36.1,36.1 0 0 0 -15.4,6.65c-11.55,8.79 -1,28.81 -2,24.91c4.44,17.46 -1.44,15.73 -0.3,38.48a17.43,17.43 0 0 0 14.2,3.71c14.38,-3 21.61,-8.06 21.61,-8.06s0.3,-6.5 -0.18,-23.53c-0.08,-3.68 1.23,-15.95 0.93,-19.65z" fill="#f25512"/>
    <path id="svg_1092" d="m107.71,234.16a20.45,20.45 0 0 1 -16.71,-10.34c-3.19,-5.23 -4.4,-11.23 -5.14,-17.2a46,46 0 0 1 -0.32,-7.32a38.27,38.27 0 0 1 -2.94,-6.45a22.46,22.46 0 0 1 -0.78,-11.24a14.7,14.7 0 0 1 1.26,-4a14.15,14.15 0 0 0 -1.68,1.26c-11.55,8.8 -1,28.82 -2,24.91c4.44,17.47 -1.44,15.73 -0.3,38.48a17.4,17.4 0 0 0 14.26,3.74c14.38,-3 21.61,-8.06 21.61,-8.06s0.07,-1.66 0.08,-5.49a13.26,13.26 0 0 1 -7.34,1.71z" opacity="0.05"/>
    <g id="thead-2">
     <path id="svg_1093" d="m103,162.67l-8.28,0.62l-2.63,10.17a5.93,5.93 0 0 0 11.81,-1.12l-0.9,-9.67z" fill="#f9b395"/>
     <path id="svg_1094" d="m101.93,175l0,0a1.83,1.83 0 0 0 2,-1.69a4.18,4.18 0 0 0 0,-1l-0.9,-9.67l-8.28,0.62l-1.54,5.94c0.24,0.3 0.39,4.8 8.72,5.8z" opacity="0.05"/>
     <path id="svg_1095" d="m91.48,164.3c-0.32,5 7.83,8.14 8.35,8.28c4,1.09 7.47,-1.72 7.8,-6.76l0.83,-12.66l-17.38,2l0.4,9.14z" fill="#f9b395"/>
     <path id="svg_1096" d="m106.62,147.86c-6.52,-4.72 -12.57,-2.62 -17,2.22c-2.14,2.38 -1.11,7.54 -0.67,9.88a17.57,17.57 0 0 0 4.32,8.71l0.63,-8.58l0.88,1.73l1.5,-0.94s-0.39,-3.64 -0.33,-4.23c0.24,-2 12.32,-1.53 12.32,-1.53s5.48,-2.12 -1.65,-7.26z" fill="#002d42"/>
     <path id="svg_1097" d="m91,160.32c-0.41,2.17 1.12,4.91 2.93,4.21l0.11,-4.27s-2.47,-2.86 -3,0.06l-0.04,0z" fill="#f9b395"/>
    </g>
    <g id="svg_1098">
     <path id="svg_1099" d="m96.79,253l1,1.26s2.12,0.89 3.1,-1.78l-1.33,-0.92l-2.77,1.44z" fill="#00b0ba"/>
     <polygon id="svg_1100" points="78.98 227.49 80.84 243.91 100.85 252.4 99 236.15 78.98 227.49" fill="#00b0ba"/>
     <path id="svg_1101" d="m98.36,236.69l-19.31,-8.69l-2.64,1.45l3.47,15.09l17.79,9a2.23,2.23 0 0 0 1.7,-0.11a1.54,1.54 0 0 0 0.73,-1.51l-1.74,-15.23z" fill="#ededed"/>
     <polygon id="svg_1102" points="75.88 229.27 77.74 245.7 97.75 254.18 95.9 237.92 75.88 229.27" fill="#00b0ba"/>
    </g>
    <path id="svg_1103" d="m89.35,190.68l-1,2.31c-0.31,0.74 -0.69,1.64 -1.12,2.69l-1.43,3.49c-1,2.51 -2.24,5.57 -3.44,8.8c-0.6,1.59 -1.26,3.25 -1.79,4.91c-0.27,0.84 -0.55,1.67 -0.8,2.52s-0.49,1.63 -0.67,2.38c-0.1,0.38 -0.17,0.73 -0.22,1l-0.08,0.37l0,0l0,0.88a0.24,0.24 0 0 0 0,0.12l0,1.69c0.1,1.68 0.3,3.44 0.52,5.14s0.45,3.35 0.66,4.94s0.47,3.06 0.68,4.45c0.45,2.75 0.83,5 1.11,6.66s0.42,2.51 0.42,2.51l0,0a2.51,2.51 0 0 1 -4.73,1.26s-0.08,-0.23 -0.24,-0.64s-0.37,-1 -0.66,-1.81c-0.55,-1.56 -1.34,-3.77 -2.23,-6.49s-1.93,-5.85 -2.89,-9.32c-0.48,-1.75 -1,-3.56 -1.39,-5.51a4.15,4.15 0 0 0 -0.15,-0.75c0,-0.27 -0.1,-0.49 -0.15,-0.77l0,-0.82l-0.11,-0.94l0,-0.9a4.86,4.86 0 0 1 0,-0.54l0,-0.49a14.48,14.48 0 0 1 0.15,-1.76c0.13,-1.08 0.28,-2.1 0.45,-3.09s0.37,-1.95 0.57,-2.91c0.4,-1.88 0.83,-3.77 1.26,-5.45s0.88,-3.43 1.25,-5s0.84,-3.07 1.26,-4.45s0.75,-2.61 1.09,-3.77s0.63,-2.07 0.87,-2.86s0.44,-1.42 0.58,-1.85l0.21,-0.67a6.49,6.49 0 0 1 12.36,4c-0.06,0.18 -0.13,0.35 -0.21,0.53l-0.15,0.19l0.02,-0.05z" fill="#f9b395"/>
    <path id="svg_1104" d="m74.37,236.89a118.77,118.77 0 0 1 -1.63,-20.45a9.51,9.51 0 0 1 9.34,-9.34l0.61,0c1.1,-2.89 2.18,-5.59 3.13,-7.93l1.43,-3.49c0.43,-1.05 0.81,-2 1.12,-2.69l1,-2.31l0,0a3.82,3.82 0 0 0 0.2,-0.53a6.48,6.48 0 0 0 -12.35,-4l-0.21,0.67c-0.14,0.42 -0.33,1 -0.58,1.84s-0.54,1.76 -0.87,2.87s-0.71,2.36 -1.09,3.77s-0.81,2.87 -1.26,4.45s-0.88,3.25 -1.26,5s-0.85,3.57 -1.25,5.45c-0.2,1 -0.39,1.91 -0.57,2.9s-0.32,2 -0.45,3.1c0,0.55 -0.13,1.11 -0.15,1.75l0,0.49a5,5 0 0 0 0,0.55l0,0.9l0.11,0.94l0,0.82a3.75,3.75 0 0 0 0.15,0.77l0.15,0.75c0.42,1.95 0.91,3.77 1.39,5.51c1,3.46 2,6.62 2.89,9.32c0.22,0.65 0.42,1.26 0.64,1.9a26,26 0 0 0 -0.47,-3.09l-0.02,0.08z" opacity="0.05"/>
    <path id="svg_1105" d="m91.62,251c-2.52,-1.7 -2.67,-2.82 -2.67,-2.82a6.9,6.9 0 0 1 2.41,0.65c1.83,0.92 1.93,-0.55 1.93,-0.55a45.51,45.51 0 0 1 -4.39,-2.89c-0.92,-0.82 -7.05,-1.76 -7.05,-1.76s-2.66,-2.31 -4,1.51s7.1,6.57 10.16,7.74c1.68,0.64 5.93,-0.35 5.93,-0.35s-0.63,-0.4 -2.31,-1.53l-0.01,0z" fill="#f9b395"/>
    <path id="svg_1106" d="m87.9,179.33c-5.48,-2.17 -9.14,0.08 -11.53,5.46c-1.61,3.62 -6.09,18.85 -6.09,18.85s6.52,6 13.54,3.62l7.26,-18.85s-1.34,-8.35 -3.18,-9.08z" fill="#f25512"/>
    <path id="svg_1107" d="m82,184.58a9.1,9.1 0 0 1 4,-4l0.7,-1.58l0,0c-4.82,-1.4 -8.13,0.88 -10.34,5.87c-1.61,3.62 -6.1,18.86 -6.1,18.86a19,19 0 0 0 5.83,3.39c0.81,-7.73 1.2,-16.44 5.94,-22.51l-0.03,-0.03z" opacity="0.05"/>
   </g>
   <path id="svg_1108" d="m84,177s3.48,18 2.89,22.39s-7.54,19.67 -7.54,19.67l0.72,4.54s8.68,-13.92 9.67,-18.47c2.69,-12 -0.25,-23.48 -1.84,-30.44c0,0 -2.92,0.84 -3.9,2.31z" fill="#002d42"/>
  </g>
 </g>
</svg>