<svg width="800.67" height="453.29" xmlns="http://www.w3.org/2000/svg">
 <g>
  <title>background</title>
  <rect x="-1" y="-1" width="891.63333" height="505.65556" id="canvas_background" fill="#fff"/>
 </g>
 <style>#stroke {
    
    animation-name: ln1;
    animation-duration: 6s;
    animation-iteration-count: infinite;
	animation-direction: alternate;
    stroke-dasharray: 200;
        stroke-dashoffset: 200;
}
@keyframes ln1 {
    0%   { stroke-dashoffset: -200 }
     90% { stroke-dashoffset: 0; }
    100% { stroke-dashoffset: 0; }
    
}

		#setingg {
			animation: ta linear 6s infinite alternate;
			transform-box: fill-box;
			transform-origin: bottom;
		}

		@keyframes ta {
			0% {
				transform: translateY(50px);
				visibility: hidden;
			}

			

			100% {
				transform: translateY(0px);
			}
		}

		#table {
			animation: taa linear 6s;
			transform-box: fill-box;
			transform-origin: bottom;
		}

		@keyframes taa {
			0% {
				transform: scale(0.1);
				visibility: hidden;
			}

			5% {
				transform: scale(1);
			}


			100% {
				transform: scale(1);
			}
		}

		#manb {
			animation: manb linear 6s;
			transform-box: fill-box;
			transform-origin: bottom;
		}

		@keyframes manb {
			0% {
				transform: scale(0.1);
				visibility: hidden;
			}

			5% {
				transform: scale(0.1);
				visibility: hidden;
			}

			10% {
				transform: scale(1);
			}


			100% {
				transform: scale(1);
			}
		}

		#man {
			animation: mane linear 6s;
			transform-box: fill-box;
			transform-origin: bottom;
		}

		@keyframes mane {
			0% {
				transform: scale(0.1);
				visibility: hidden;
			}

			10% {
				transform: scale(0.1);
				visibility: hidden;
			}

			15% {
				transform: scale(1);
			}


			100% {
				transform: scale(1);
			}
		}

		#woman,
		#setinge,
		#setingd
		 {
			animation: manedd linear 6s;
			transform-box: fill-box;
			transform-origin: bottom;
		}

		@keyframes manedd {
			0% {
				transform: scale(0.1);
				visibility: hidden;
			}

			15% {
				transform: scale(0.1);
				visibility: hidden;
			}

			20% {
				transform: scale(1);
			}


			100% {
				transform: scale(1);
			}
		}

		#setingc,
		#setingf {
			animation: maneddd linear 6s;
			transform-box: fill-box;
			transform-origin: bottom;
		}

		@keyframes maneddd {
			0% {
				transform: scale(0.1);
				visibility: hidden;
			}

			20% {
				transform: scale(0.1);
				visibility: hidden;
			}

			25% {
				transform: scale(1);
			}


			100% {
				transform: scale(1);
			}
		}

		#worldmap,
		#setingb {
			animation: manedddb linear 6s;
			transform-box: fill-box;
			transform-origin: bottom;
		}

		@keyframes manedddb {
			0% {
				transform: scale(0.1);
				visibility: hidden;
			}

			25% {
				transform: scale(0.1);
				visibility: hidden;
			}

			30% {
				transform: scale(1);
			}


			100% {
				transform: scale(1);
			}
		}

		#setinga {
			animation: manedddc linear 6s;
			transform-box: fill-box;
			transform-origin: bottom;
		}

		@keyframes manedddc {
			0% {
				transform: scale(0.1);
				visibility: hidden;
			}

			30% {
				transform: scale(0.1);
				visibility: hidden;
			}

			35% {
				transform: scale(1);
			}


			100% {
				transform: scale(1);
			}
		}

		#setinga&gt;g {
			animation: la linear 2s infinite;
			transform-box: fill-box;
			transform-origin: bottom;
		}

		@keyframes la {
			0% {
				transform: scale(1);

			}

			20% {
				transform: scale(0.8);

			}

			50% {
				transform: scale(0.8);
			}

			80% {
				transform: scale(0.8);

			}

			100% {
				transform: scale(1);
			}
		}

		#setingb&gt;g {
			animation: la linear 2s 1s infinite;
			transform-box: fill-box;
			transform-origin: bottom;
		}

		#setingc&gt;g {
			animation: la linear 2s 1.5s infinite;
			transform-box: fill-box;
			transform-origin: bottom;
		}

		#setingd&gt;g {
			animation: la linear 2s 2s infinite;
			transform-box: fill-box;
			transform-origin: bottom;
		}

		#womenlag {
			animation: lega linear 4s 2s infinite;
			transform-box: fill-box;
			transform-origin: 90% 0%;

		}

		@keyframes lega {
			0% {
				transform: rotate(0deg);
			}

			50% {
				transform: rotate(-6deg);
			}


			100% {
				transform: rotate(0deg);
			}
		}

		#whead {
			animation: mothe linear 4s 2s infinite;
			transform-box: fill-box;
			transform-origin: bottom;
		}

		@keyframes mothe {
			0% {
				transform: rotate(0deg);
			}

			50% {
				transform: rotate(4deg);
			}


			100% {
				transform: rotate(0deg);
			}
		}

		#manahead {
			animation: mothf linear 4s 2s infinite;
			transform-box: fill-box;
			transform-origin: bottom;
		}

		@keyframes mothf {
			0% {
				transform: scaleY(0.9);
			}

			50% {
				transform: scaleY(1);
			}


			100% {
				transform: scaleY(0.9);
			}
		}

		#manbhand {
			animation: motheg linear 2s 2s infinite;
			transform-box: fill-box;
			transform-origin: bottom;
		}

		@keyframes motheg {
			0% {
				transform: rotate(0deg);
			}

			50% {
				transform: rotate(8deg);
			}


			100% {
				transform: rotate(0deg);
			}
		}

		#manbhead {
			animation: motheh linear 2s 2s infinite;
			transform-box: fill-box;
			transform-origin: bottom;
		}

		@keyframes motheh {
			0% {
				transform: rotate(0deg);
			}

			50% {
				transform: rotate(-10deg);
			}


			100% {
				transform: rotate(0deg);
			}
		}</style>
 <defs>
  <linearGradient y2="0.17296" x2="0.56353" y1="0.91933" x1="0.5044" id="linear-gradient">
   <stop stop-color="#4678bc" offset="0"/>
   <stop stop-color="#4ba4db" offset="1"/>
  </linearGradient>
  <linearGradient y2="0.14027" x2="0.2915" y1="1.11168" x1="0.86546" id="linear-gradient-2">
   <stop stop-color="#eef5fb" offset="0"/>
   <stop stop-color="#d1eefc" offset="1"/>
  </linearGradient>
  <linearGradient y2="0.50001" x2="0.86739" y1="0.50001" x1="0.35126" id="linear-gradient-3">
   <stop stop-color="#d1eefc" offset="0.15"/>
   <stop stop-opacity="0.62" stop-color="#daf0fc" offset="0.49"/>
   <stop stop-opacity="0.1" stop-color="#edf4fb" offset="0.95"/>
  </linearGradient>
  <radialGradient gradientUnits="userSpaceOnUse" gradientTransform="translate(5000.34 455.34) rotate(180) scale(1 1.01)" r="185.75" cy="235.68" cx="4330.28" id="radial-gradient">
   <stop stop-color="#d1ecea" offset="0"/>
   <stop stop-color="#67c7c5" offset="1"/>
  </radialGradient>
 </defs>
 <title>Marketing Team meeting</title>
 <g>
  <title>Layer 1</title>
  <g id="background">
   <rect x="1.11111" y="-4.44444" id="svg_1" fill="#fff" height="453.29" width="799.85"/>
   <path id="svg_2" fill="url(#linear-gradient)" d="m453.85111,138.61556c6.13,49 -4.6,84.88 -61.28,110.15c-99.9,44.53 -162,71.64 -159.34,199.66l539.22,0l0,-452.48l-320.13,0c75.08,52.67 -6.47,78.75 1.53,142.67z"/>
   <path id="svg_3" fill="url(#linear-gradient-2)" d="m265.14111,421.77556l0,-7.16a11.25,11.25 0 0 0 0.49,-1.76c0.73,-5.78 1.15,-11.62 2.19,-17.35c3.22,-17.78 10.3,-34 20.17,-49.11c11.55,-17.64 26.1,-32.49 42.53,-45.58c12.61,-10.05 26.3,-18.42 40.32,-26.3c19.58,-11 39,-22.33 57.61,-34.9c20.28,-13.68 39.25,-28.93 56.26,-46.56a340.49,340.49 0 0 0 49.13,-65.74c13.87,-23.85 17.27,-49.37 11.35,-76.13c-4.63,-20.89 -15.19,-38.5 -30.81,-53.1c-0.75,-0.7 -1.36,-1.53 -2,-2.3l289.4,0l0,452.83l-532.32,0a26.36,26.36 0 0 1 -0.85,-2.7a137.17,137.17 0 0 1 -2.64,-18.83c-0.11,-1.76 -0.54,-3.53 -0.83,-5.31z"/>
   <path id="svg_4" fill="url(#linear-gradient-3)" d="m494.14111,-4.38444l159.35,0l0,452.65l-389.28,0c-0.74,-4.61 -1.61,-9.2 -2.21,-13.83a128.87,128.87 0 0 1 0.11,-33.24a134.22,134.22 0 0 1 13.3,-42.81a172.61,172.61 0 0 1 31.73,-43.64a204,204 0 0 1 33.05,-27.48c9.6,-6.34 19.48,-12.24 29.3,-18.24c18.94,-11.56 37.7,-23.39 55.39,-36.82a322.69,322.69 0 0 0 39.94,-35.67a316.42,316.42 0 0 0 39.78,-52.31c4.55,-7.46 9.14,-15 12.92,-22.82c10.04,-20.79 12.62,-42.79 8.78,-65.45a104.25,104.25 0 0 0 -31,-58.9c-0.39,-0.44 -0.76,-0.95 -1.16,-1.44z"/>
  </g>
  <g id="table_saddow">
   <path id="svg_5" opacity="0.5" fill="#d1eefc" d="m348.89,385.87c0,21.4 91.33,38.76 204,38.76s204,-17.35 204,-38.76s-91.33,-38.76 -204,-38.76s-204,17.35 -204,38.76z"/>
  </g>
  <g id="worldmap">
   <g id="svg_6">
    <path id="svg_7" fill="#afe2fa" d="m687.89,48.18c0.19,0 0.12,-0.31 0.39,-0.23s0.57,0.48 1.08,0.46c0.33,-0.27 -0.47,-0.51 -0.2,-0.69c0.15,0.06 0.24,0.17 0.4,0.23c0.07,-0.4 -0.12,-0.48 -0.2,-0.69c0.81,-0.05 0.55,-1.21 0.4,-1.84a1.84,1.84 0 0 1 0.88,-0.11c0,-0.51 -0.53,-0.45 -0.79,-0.69c0.31,0 0.22,-0.35 0.59,-0.23c0.07,-0.34 -0.17,-0.34 -0.09,-0.69c0.35,0.06 0.24,-0.4 0.59,-0.34s0.84,0.22 0.78,-0.23s-0.42,-0.11 -0.49,-0.35c-0.23,0 -0.18,-0.4 -0.49,-0.34s-0.88,0.42 -1.08,0.23c0.06,-0.58 0.87,-0.29 1,-0.8c-0.2,-0.33 -0.64,-0.4 -1.18,-0.35c-0.33,-0.13 -0.71,-0.3 -0.89,0c-0.08,-0.17 -0.32,-0.16 -0.49,-0.23c-0.39,0.3 -1.36,-0.06 -1.76,0.23c-0.45,0 -1,-0.09 -1.19,0.24c0,0.24 0.27,0.74 0.1,0.8c-0.71,-0.13 -1.11,0.08 -1.77,-0.12c-1,0.16 -1.44,0.92 -2.46,1c-0.09,0.42 0.45,0.1 0.39,0.46c-0.29,0.28 -0.81,0.27 -1.08,0.57c-0.24,-0.15 -0.56,-0.12 -0.69,0.35c0.31,-0.1 0.3,0.18 0.49,0.23a0.25,0.25 0 0 1 0.49,0c0.25,-0.07 0.67,-0.51 0.69,0.12c-0.42,0.05 -1,-0.11 -1.28,0.11c0.09,0.43 0.46,0.53 0.79,0.69s0.18,-0.32 0.49,-0.24a1.32,1.32 0 0 0 1.17,0.35a1.48,1.48 0 0 0 0.2,1a2,2 0 0 0 -0.1,0.8c0.4,0.22 0.46,-0.53 0.69,-0.11c0,0.41 -0.29,0.35 -0.58,0.34c0.08,0.51 0.74,0.36 0.88,0.81a4.64,4.64 0 0 0 -0.69,0.57c0.28,0.15 -0.3,0.24 -0.19,0.57c0.69,0.55 0.15,1.87 0.68,2.64l0.66,0c0.28,0 0.17,0.48 0.49,0.46c0.1,-0.23 0.17,-0.49 0.4,-0.58c-0.12,-0.86 0.48,-0.88 0.39,-1.72c0.26,0 0.14,-0.45 0.39,-0.46c0.37,0.23 0.37,-0.28 0.79,0a3.56,3.56 0 0 1 0.54,-0.34c0.47,-0.14 0.68,-0.58 1.18,-0.69c0,-0.42 0.86,-0.52 0.58,-0.92c-0.22,0.22 -0.63,-0.24 -0.9,-0.27zm1,-0.47c-0.27,-0.2 0,-0.76 0.29,-0.69c-0.07,0.29 -0.28,0.39 -0.31,0.69l0.02,0zm0.69,-5.51c0,0.34 -0.23,0.43 -0.4,0.57a1.85,1.85 0 0 0 -1.27,-0.22c0.31,-0.49 1.22,-0.28 1.65,-0.35l0.02,0z"/>
    <path id="svg_8" fill="#afe2fa" d="m675.7,43.92l0,0.69c0.3,-0.08 0.36,0.12 0.59,0.12c0,-0.53 0.64,-1 1,-0.81c0.15,0.49 -0.52,0 -0.49,0.34c0.3,0.17 -0.34,0.21 -0.3,0.46c0.26,-0.07 0.36,0 0.3,0.34c-0.23,0 -0.28,-0.2 -0.59,-0.11c0,0.32 -0.33,0.23 -0.2,0.69c0.59,-0.09 1,-0.16 1.28,0.34c-0.78,0.19 -1.28,-0.46 -1.77,-0.24c-0.08,0.56 0.59,0.23 0.59,0.7c0.74,-0.13 1.74,0.51 2,-0.35c0.25,0 0.42,0 0.39,-0.35s-0.46,0.09 -0.39,-0.22l0.69,0c0,-0.62 0.6,-0.53 0.49,-1.27c0.51,0 0.56,-0.57 1.19,-0.46a0.68,0.68 0 0 1 0.68,-0.46c0.12,-0.29 -0.22,-0.56 0,-0.58c0.41,-0.22 1,0.12 1.17,-0.57c0,-0.19 -0.28,-0.06 -0.29,-0.23c-1.61,0.26 -3.8,-0.33 -5.51,0.46c-0.13,0.69 0.43,0.58 0.49,1c-0.63,0.06 -0.44,-0.86 -1.17,-0.69c0,0.16 -0.14,0.22 -0.1,0.47c-0.16,0 -0.34,0 -0.3,0.23s0.21,0.28 0.25,0.5zm2.07,2.07c0.06,0.06 -0.06,0.15 -0.1,0.11s0.07,-0.14 0.1,-0.11z"/>
    <path id="svg_9" fill="#afe2fa" d="m699.87,43.69c0.06,-0.33 0.52,-0.17 0.4,-0.69a16.71,16.71 0 0 0 -2.55,-0.24a0.78,0.78 0 0 0 0.1,0.47a3.4,3.4 0 0 0 2.05,0.46z"/>
    <path id="svg_10" fill="#afe2fa" d="m696.03,44.27c0,0.29 -0.18,0.36 0,0.58c0.4,0 0.42,-0.51 0.88,-0.46c0,0.51 -0.49,0.51 -0.49,1a0.68,0.68 0 0 0 0.69,0.24c-0.05,0.35 0.21,0.37 0.49,0.34c0.09,-0.43 0.18,-0.87 0.3,-1.26c0.26,0.3 0.41,0.75 1.08,0.57c0.09,-0.87 -0.52,-0.93 -0.78,-1.38c0,0.27 -0.26,-0.13 -0.4,-0.12a0.44,0.44 0 0 1 -0.48,-0.22c0.23,-0.31 -0.08,-0.68 -0.49,-0.57s0.15,0.59 -0.1,0.69c-0.21,-0.55 -1.15,-1.08 -1.18,0c0.04,0.38 0.42,0.29 0.48,0.59z"/>
    <path id="svg_11" fill="#afe2fa" d="m705.96,43.47c0,-0.72 -0.91,-0.48 -0.88,0.12c0.33,0.35 0.52,-0.17 0.88,-0.12z"/>
    <path id="svg_12" fill="#afe2fa" d="m711.47,44.15c0.77,-0.15 1.58,0.4 1.76,-0.35a1.38,1.38 0 0 0 -1.66,-0.34c-0.22,0.02 -0.05,0.49 -0.1,0.69z"/>
    <path id="svg_13" fill="#afe2fa" d="m731.31,51.06c0.23,0 0.18,-0.4 0.49,-0.35c0.52,0 0.44,0.71 1.08,0.57c0.13,-0.21 -0.08,-0.58 0.11,-0.91c-0.27,-0.14 -0.65,-0.75 -0.89,-0.23a0.79,0.79 0 0 0 -0.1,-0.57c-0.53,-0.22 -0.81,-0.73 -1.66,-0.57c-0.12,-0.22 -0.39,-0.25 -0.5,-0.46c-0.64,0.1 -0.78,-0.39 -1.48,-0.23c-0.13,0.33 0.27,0.59 0,0.69s-0.23,-0.5 -0.49,-0.58c-0.29,0.36 -0.81,0 -1.38,0.23c-0.36,-0.27 -0.33,-1 -1.08,-0.8c-0.14,0 0,0.34 -0.2,0.34a12.71,12.71 0 0 1 -1.19,-0.69c0,0.11 -0.08,0.2 -0.19,0.23c0.12,-0.45 -0.24,-0.34 -0.49,-0.34c0.24,-0.27 -0.11,-0.26 -0.2,-0.46c-0.47,0.2 -0.44,-0.07 -0.88,-0.11c0,0.15 -0.25,0.09 -0.4,0.11c-0.09,0.21 0.3,0.38 0,0.46c-0.84,-0.15 -1.91,0.21 -2.65,0c-0.25,-0.07 -0.34,-0.42 -0.59,-0.35c-0.45,0.13 -0.75,-0.12 -1.08,-0.23c-0.12,-0.05 -0.27,0 -0.39,0s-0.43,-0.37 -1,-0.23c0,-0.29 0.29,-0.35 0.29,-0.69s-0.45,-0.46 -0.58,-0.8a2.92,2.92 0 0 1 -1.18,0.12c-0.24,-0.1 -0.2,-0.52 -0.58,-0.46s-0.32,0.39 -0.3,0.8c-0.49,-0.19 -0.32,0.4 -0.69,0.34c-0.19,0 -0.08,-0.44 -0.39,-0.34a1.24,1.24 0 0 1 -1.17,0.46c-0.17,0.14 -0.26,0.39 -0.59,0.35c-0.14,0.14 -0.05,0.56 -0.3,0.57s-0.68,-0.18 -0.59,0.23s0.57,0.17 0.49,0.69c-0.36,-0.12 -0.46,-0.54 -1,-0.46c0,0.3 0,0.68 -0.2,0.69a1.16,1.16 0 0 1 -0.1,-0.69c-0.38,-0.09 -0.16,0.5 -0.59,0.34c-0.15,-0.2 -0.14,-0.61 -0.59,-0.46a9.42,9.42 0 0 1 -1,1.26c-0.64,0.06 -0.59,-0.21 -1.27,-0.23c-0.16,0.56 0.51,0.17 0.39,0.69a14.25,14.25 0 0 0 -1.47,0c-0.44,0.21 -0.68,0.65 -1.18,0.8l0,-0.73a0.73,0.73 0 0 1 -0.59,-0.11c0,0.64 0,1.22 -0.59,1.15c0,0.43 -0.36,0.34 -0.59,0.46s0.17,0.35 -0.11,0.46c-0.57,0.13 -0.6,-0.83 -0.58,-1a3.24,3.24 0 0 1 1.28,0.11c0.26,-0.72 -0.56,-1.09 -1.18,-1.15a0.89,0.89 0 0 0 -0.79,-0.46a2.07,2.07 0 0 0 -0.48,-0.69l-0.89,0c-0.27,0.22 -0.51,0.47 -0.78,0.69c0,-0.17 -0.13,0 -0.3,0c-0.35,0.43 -0.8,0.76 -1.17,1.15a2.74,2.74 0 0 1 -0.59,1.26c0,-0.13 -0.18,-0.09 -0.29,-0.11l0,0.46c-0.62,0 -0.7,0.73 -0.89,1.27a2.12,2.12 0 0 1 0.19,1.26c0.1,0.31 0.63,0.12 0.79,0.34c-0.21,0.34 -0.39,0.46 -0.39,0.8c0.21,-0.06 0.18,0.16 0.19,0.35a7.54,7.54 0 0 0 -0.88,0.22c-0.09,0.21 -0.28,0.3 -0.2,0.69c-0.56,-0.2 -0.22,0.66 -0.68,0.58c0,0.13 0,0.2 -0.11,0.23c-0.43,-0.05 -0.52,0.31 -0.79,0.46s-0.5,0.1 -0.48,0.46c0.12,0.15 0.42,0.12 0.68,0.12c0,0.52 0.46,0.39 0.4,0.92c-0.1,0.15 -0.1,0.43 -0.29,0.46c-0.46,-0.27 -0.87,0.1 -1.48,0c-0.1,0.38 0.22,1.25 -0.19,1.27c0.07,0.33 0.29,0.5 0.19,1c0.46,-0.11 0.6,0.15 0.89,0.23c0.37,-0.22 0.42,-0.22 0.79,0a2.53,2.53 0 0 0 0.49,-1.61c0.43,-0.15 0.36,-0.88 0.89,-0.92c0.41,0.29 0.59,-0.09 1,-0.11a2.42,2.42 0 0 0 0.01,1.76c0.62,-0.06 0.24,-0.65 0.3,-1.27c-0.1,0 -0.13,-0.2 0,-0.23l0,0.23c0.2,0 0.19,0.31 0.29,0.46a0.83,0.83 0 0 1 0.88,0.69c0,0.25 -0.25,0.25 -0.49,0.23c0,0.4 0.35,0.36 0.49,0.57c0,-0.51 0.27,-0.61 0.49,-0.8c0,-0.26 -0.18,-0.16 -0.2,-0.35c0.18,-0.35 0.34,0.39 0.5,0c-0.27,-0.6 -1.49,-0.7 -1.18,-1.6c0.29,0.52 0.85,0.77 1.18,1.26c0.05,0.09 0.14,0.36 0.19,0.46s0.24,0.27 0.2,0.46l0,0.68c0.13,0.16 0.42,0.11 0.68,0.12c0.17,-0.4 -0.18,-1 0.1,-1.38l0.29,0c-0.1,0.45 0,0.43 -0.1,0.92c0.22,0 0.14,0.33 0.3,0.46a1.19,1.19 0 0 0 1.27,0c0.3,0.17 -0.26,0.6 0.2,0.58s0,-0.75 0.5,-0.58l0,0.69c-0.3,0.2 -0.09,1 -0.5,1a7.65,7.65 0 0 0 -2.56,-0.45c-0.28,0.09 -0.24,0.57 -0.49,0.69c-0.45,-0.55 -1.35,-0.57 -1.76,-1.15c0.08,-0.4 -0.11,-0.49 -0.2,-0.69c0.23,0 0.23,-0.31 0.1,-0.46a3,3 0 0 0 -1.47,0.34a2.22,2.22 0 0 0 -1.87,0.46a0.53,0.53 0 0 0 -0.58,-0.34c-0.08,0.4 -0.43,0.49 -0.69,0.69c-0.26,0.54 -0.17,1.25 -0.39,1.72c-0.15,0.31 -0.67,0.62 -0.89,0.93a2.57,2.57 0 0 1 -0.5,1.49l0,3a4.42,4.42 0 0 1 0.8,1.61c0.45,0.31 0.75,0.8 1.37,0.92a4.3,4.3 0 0 1 1.38,-0.11c0.2,-0.19 0.19,-0.62 0.59,-0.58c0.18,0 0.06,0.39 0.2,0.46c0.46,-0.07 0.63,0.19 1,0.23c0.17,-0.1 0.25,-0.32 0.59,-0.23a14.39,14.39 0 0 1 -0.2,2.07c0.28,0.59 0.76,1 0.59,1.83a5,5 0 0 1 0.4,1.61c-0.25,0.52 -0.19,1.38 -0.4,2a3.83,3.83 0 0 1 0.89,1.84l0,1c0.43,0.6 0.43,1.72 0.88,2.3c0.95,-0.08 1.42,-0.71 2.26,-0.92a2.2,2.2 0 0 1 0.89,-1.38c-0.05,-0.44 0.18,-0.56 0.1,-1c0.18,-0.1 0.25,-0.32 0.59,-0.23a2.81,2.81 0 0 1 1.18,-2.64a11.58,11.58 0 0 0 0,-3.22a6.51,6.51 0 0 0 0.49,-1.49c0.24,-0.19 0.44,-0.41 0.69,-0.58c0.47,-0.79 0.89,-1.64 1.38,-2.41c0.07,-0.43 0.21,-1 -0.1,-1.27c-0.43,-0.07 -0.4,0.37 -0.79,0.34l-0.87,0c0,-0.78 -0.54,-1.06 -0.89,-1.49c0.08,-0.75 -0.58,-0.62 -0.39,-1.49c-0.17,-0.26 -0.47,-0.37 -0.59,-0.69c0.09,-0.35 -0.14,-0.89 0,-0.91c0.24,0.2 0.5,0.8 0.39,1c0.41,0.48 0.69,1.11 1.08,1.61c0.23,0.48 0.2,1.2 0.69,1.61a10.7,10.7 0 0 1 2,-0.92c0.14,-0.07 0,-0.45 0.2,-0.46c0.42,-0.08 0.6,-0.45 1,-0.58c-0.06,-0.5 0.29,-0.51 0.3,-0.91c-0.17,-0.42 -0.68,-0.44 -0.59,-1.15a0.8,0.8 0 0 0 -0.78,0.23c-0.08,-0.43 -0.45,-0.55 -0.4,-1.15c-0.32,0 -0.28,-0.35 -0.49,-0.46c0.15,-0.06 0.25,-0.17 0.4,-0.23c0.55,0.39 0.37,1.62 1.37,1.49c0,0.23 0.28,0.22 0.19,0.58c0.48,0.06 0.55,-0.36 1,-0.34c0.09,0.07 0.1,0.26 0.29,0.22c0.68,-0.11 0.85,0.39 1.28,0.58c-0.16,0 -0.19,0.09 -0.2,0.24s0.45,0.16 0.6,0.34c0,0.36 0.18,0.41 0.09,0.81a4.89,4.89 0 0 1 0.59,1.49a1.78,1.78 0 0 1 0.5,0.81l0,0.69c0.12,0.16 0.42,0.11 0.68,0.11a6.53,6.53 0 0 0 0.39,-2.18l0.29,0l0,-0.46c0.37,0.17 0.19,-0.31 0.49,-0.23c0,-0.53 0.36,-0.58 0.49,-0.92a1.82,1.82 0 0 1 0.88,-0.46c0.23,0.31 0.23,0.89 0.6,1c0,0.27 -0.18,0.25 -0.11,0.57s0.78,0.09 1,0.35c-0.13,0.24 0,0.34 -0.09,0.69a0.86,0.86 0 0 1 0.49,0.69c0,0.22 -0.28,0.21 -0.2,0.57s0.3,0.41 0.2,0.92a11.24,11.24 0 0 0 1.47,1.38c0,-0.76 -0.46,-0.92 -0.49,-1.62a2,2 0 0 1 -0.69,-0.8c0,-0.37 -0.13,-1 0.19,-1c0.22,0.32 0.37,0.72 0.79,0.8a0.77,0.77 0 0 1 0.09,0.46c1,-0.14 1.19,-1.14 1.08,-2.52c-0.13,-0.12 -0.36,-0.12 -0.49,-0.23c0.13,-0.51 -0.47,-0.47 -0.2,-0.8s0.26,0.38 0.69,0.23c0.07,-0.49 0.56,-0.49 1.08,-0.46a5.47,5.47 0 0 0 0.88,-1.72c0.16,0 0.17,-0.11 0.3,-0.11c0.16,-0.47 0,-1.33 0.29,-1.61c-0.2,-0.11 -0.29,-0.34 -0.29,-0.69c-0.17,-0.14 -0.39,-0.24 -0.4,-0.58s0.18,-0.25 0.09,-0.57c0.21,0 0.31,0 0.3,-0.23c0.27,-0.15 -0.45,-0.68 0.2,-0.68c0.12,0.36 0.45,0.46 0.59,0.8a0.73,0.73 0 0 0 0.49,0.92c0.59,-0.5 0,-1.77 0.29,-2.64a2.57,2.57 0 0 1 0.79,-0.46a5.39,5.39 0 0 1 0.78,-1.49c0.13,-0.92 -0.22,-1.88 0,-2.53c-0.13,0.66 0.23,0.73 0.3,1.15c0,0.71 0.05,1.39 0.5,1.61c0.18,-0.2 -0.08,-0.29 0,-0.69c0.26,0 0.19,0.19 0.39,0c0,-0.37 -0.26,-0.39 -0.2,-0.81c-0.35,-0.08 -0.45,-0.47 -0.59,-0.8s0,-1 -0.29,-1s0,0.51 -0.29,0.47c-0.17,-0.85 -0.84,0.52 -1.09,-0.35a1.52,1.52 0 0 1 0.39,-0.58c0.12,-0.36 0.08,-0.9 0.39,-1c0.23,0.29 0.19,-0.17 0.49,-0.11a4.47,4.47 0 0 0 1.48,0.23c0,0.2 0.08,0.21 0.19,0.23c0.13,-0.16 0.43,-0.11 0.69,-0.12c0,-0.36 -0.17,-0.41 -0.1,-0.8c0.2,0 0.19,-0.31 0.39,-0.34s0.2,0.31 0.39,0.34c0,-0.26 0.3,-0.64 0.4,-0.34a7.06,7.06 0 0 0 -0.88,2.29c0.06,0.31 0.28,0.44 0.39,0.69c0.05,0.44 0.12,0.86 0.4,1c0.25,-0.29 0.39,-0.7 0.69,-0.92c-0.09,-0.57 0.31,-0.48 0.1,-0.91c0,-0.23 0.27,-0.23 0.3,-0.46c-0.15,-0.14 -0.44,-0.1 -0.39,-0.46c0.09,-1 0.74,-0.79 1.47,-0.69c0.15,-0.18 0.13,-0.54 0.3,-0.69c0.57,0 1,-0.36 1.37,-0.34c0,-0.59 -0.49,-0.51 -0.49,-1zm-33,1.26a1.27,1.27 0 0 0 0.78,0.46l0,1.15c-0.22,0 0.05,-0.68 -0.39,-0.46c-0.22,0.39 -0.09,1.21 -0.39,1.49a6.86,6.86 0 0 0 -0.79,0c-0.27,0.06 -0.33,0.33 -0.59,0.35c0,-0.14 -0.28,-0.4 -0.3,-0.12a0.18,0.18 0 0 1 0,-0.35a1.79,1.79 0 0 1 -0.39,-1.14c0.49,0 0.3,1.62 1.18,1.14c0.22,-0.46 0.37,-1 0.59,-1.49a2.92,2.92 0 0 0 -0.2,-0.69c0.06,-1.08 0.76,-1.41 1.08,-2.18c0.12,0 0.18,0 0.2,0.11c-0.06,0.78 -0.88,0.73 -0.79,1.72l0.01,0.01zm1.08,0.81c0,-0.35 0.34,-0.28 0.59,-0.34c0.05,0.34 -0.31,0.32 -0.6,0.33l0.01,0.01zm0.79,-4.49c0,-0.06 0.07,-0.15 0.1,-0.12s-0.08,0.15 -0.11,0.11l0.01,0.01zm1.77,16.55c0,-0.06 0.06,-0.15 0.09,-0.12s-0.08,0.14 -0.1,0.11l0.01,0.01zm0.09,-14.25s0.06,-0.14 0.1,-0.11s-0.11,0.13 -0.11,0.1l0.01,0.01zm7.18,12.38c-0.19,-0.05 -0.42,0 -0.39,-0.34c-0.3,0 0.09,-0.48 0,0c0.2,-14.05 0.56,-14.26 0.47,-13.92l-0.08,14.26zm-1.18,-0.13c-0.05,-0.05 0.08,-0.15 0.11,-0.11s7.27,-16.02 7.24,-16.02l-7.35,16.13zm-5.79,1.89c0,-0.06 0.07,-0.14 0.09,-0.11s13.38,-18.03 13.35,-18.06l-13.44,18.17zm0.29,-0.23c-0.05,-0.06 0.07,-0.14 0.1,-0.11s13.39,-18.03 13.39,-18.06l-13.49,18.17zm4.42,14.48c0.14,-0.22 0.22,-0.51 0.59,-0.46c0,0.18 0,0.44 0.1,0.46c13.29,-17.83 13.01,-18.27 12.75,-18.17l-13.44,18.17z"/>
    <path id="svg_14" fill="#afe2fa" d="m685.52,74.71c-0.17,-0.21 -0.28,0 -0.49,0.12c-0.16,-0.39 -0.53,-0.52 -0.88,-0.69l-0.69,0c-0.18,-0.34 -0.83,-0.1 -0.88,-0.57c-0.26,0 -0.58,0.06 -0.58,-0.23c0.28,-0.53 -0.29,-2 -1.18,-1.49a1.36,1.36 0 0 1 -0.6,-1c-0.51,-0.17 -0.87,-0.51 -1.38,-0.69c-0.13,0 -0.15,0.2 -0.29,0.22c-0.13,-0.41 -0.61,-0.43 -0.69,-0.91c-0.32,-0.1 -0.21,0.3 -0.39,0.35s-0.27,-0.38 -0.5,-0.46c-0.09,0.2 -0.18,0.4 -0.49,0.34c-0.14,0.48 -0.53,0.66 -0.78,1c0,-0.38 -0.11,-0.55 -0.39,-0.57s-0.36,0.41 -0.69,0.46c-0.24,-0.56 0.1,-1.1 0,-1.84c-0.18,-0.4 -0.84,-0.25 -1.18,-0.46c0.1,-0.5 0.39,-0.78 0.3,-1.49a2.31,2.31 0 0 1 -1,0c-0.18,0.24 -0.09,0.81 -0.4,0.91c-1.31,0.08 -0.49,-2 -0.78,-2.87c0.35,-0.1 0.55,-0.35 0.88,-0.46c0.53,-0.06 0.67,0.37 1.18,0.34c0,-0.16 0,-0.32 0.1,-0.34c0.48,0 1.11,-0.15 1.18,0.34c0,0.67 0.22,1 0.69,1a2.44,2.44 0 0 1 0,-1.15c-0.11,-0.17 -0.28,-0.28 -0.3,-0.57a1.64,1.64 0 0 1 1.28,-1.38a0.92,0.92 0 0 0 0,-0.69a0.57,0.57 0 0 0 0.49,-0.12c-0.24,-0.63 0.32,-0.49 0.2,-1.26c0.33,-0.15 0.64,-0.32 1,-0.46c0,-0.36 -0.29,-0.26 -0.19,-0.69a4.47,4.47 0 0 1 1.38,-0.69c0.08,0.32 -0.2,0.24 -0.2,0.46a3.15,3.15 0 0 0 1.08,-0.68c-0.24,-0.18 -0.73,-0.08 -0.69,-0.58c0.06,-0.32 0.38,-0.32 0.59,-0.46c0,-0.28 -0.18,-0.25 -0.1,-0.58c0.48,0.38 1,-0.56 1.37,-0.34c-0.22,0.61 -0.69,0.94 -0.88,1.61c0.37,0.08 0.42,-0.19 0.79,-0.11c0,0.18 0,0.44 0.1,0.46c0.1,-0.29 0.38,0.16 0.69,0c0,-0.27 -0.19,-0.59 0,-0.8c-0.36,0 -0.44,-0.4 -0.59,-0.69a12.51,12.51 0 0 0 0,-1.5c-0.19,-0.21 -0.25,0 -0.49,0c0,-0.54 -0.45,-0.54 -0.5,-1a0.75,0.75 0 0 0 0.1,-0.46c-0.37,-0.24 -0.23,-1.1 -0.78,-1.15c0,0.17 0.11,0.59 -0.1,0.58s-0.65,0.14 -0.69,-0.12l0,-1.14c-0.53,0.28 -0.43,-0.27 -0.89,-0.35c-0.27,0.32 -0.21,-0.14 -0.49,-0.11s-0.21,0.21 -0.49,0.11c0.15,1.15 -0.27,1.79 -0.1,2.64c-0.17,0 -0.48,-0.33 -0.58,0c0.09,0.33 0.32,0.07 0.39,0.23c-0.34,0.25 -0.35,0.89 -0.49,1.38a6.59,6.59 0 0 1 -0.39,-1.38c-0.2,-0.23 -0.19,0.06 -0.39,0.11c-0.09,-0.33 -0.14,-0.12 -0.39,-0.11a2.48,2.48 0 0 0 -1.08,-0.8c0.16,-0.58 -0.34,-0.37 -0.3,-0.81c0.21,0 0.19,-0.17 0.2,-0.34c0.32,-0.2 0.46,-0.61 0.79,-0.8c0.22,-0.4 0.37,-0.88 0.88,-0.92c0,-0.21 -0.12,-0.24 -0.1,-0.46a6.09,6.09 0 0 0 1.47,-0.46a3.37,3.37 0 0 1 0.1,-1.15c-0.12,-0.18 -0.38,-0.19 -0.49,-0.35c0.39,0 0.73,0 0.88,0.23c0.18,-0.35 0.48,0.13 0.79,0c-0.14,0.59 0.45,0.32 0.39,0.81c-0.09,0.84 -1.17,0.55 -1.27,1.38c0.16,0.27 0.57,0.25 1,0.23c0.61,0.32 0.85,1.08 1.67,1.15c-0.22,-0.6 0.17,-0.58 0.1,-1.26c0,-0.3 -0.29,-0.34 -0.3,-0.69c0.37,0 0.48,0.36 0.79,0.46c0,-0.3 0,-0.57 0.29,-0.46c-0.07,-0.35 0.1,-0.42 0.1,-0.69c-0.27,0.08 -0.19,-0.24 -0.3,-0.35a3.84,3.84 0 0 1 -0.91,-0.39c0,-0.23 0.27,-0.22 0.3,-0.46s-0.43,-0.34 -0.39,-0.8l-0.91,0c0.05,-0.37 -0.26,-0.31 -0.29,-0.58a2.81,2.81 0 0 0 -1,0.12c0.06,-0.71 -0.77,-0.48 -0.89,-0.12c0,-0.43 -0.07,-0.67 -0.39,-0.69c-0.5,0.37 -1.1,1.54 -0.49,2.18c0.14,0.07 0.51,-0.13 0.49,0.11a2.74,2.74 0 0 1 -0.49,0.81c-0.25,-0.28 0.21,-0.25 0.1,-0.69a1.92,1.92 0 0 1 -0.79,-1c-0.38,0.06 -0.31,-0.4 -0.78,-0.23c0,0.28 -0.18,0.25 -0.1,0.57c0.34,0.16 0.21,1.07 0,1.27a0.63,0.63 0 0 1 -0.2,-0.57c-0.5,-0.09 -0.49,0.42 -0.89,0.46a2,2 0 0 1 -1,-0.69c0.44,-0.09 0.59,0.16 1,0.11c0.22,-0.24 0,-0.33 0,-0.68c0.55,-0.13 0.76,-0.65 1.28,-0.81a2.59,2.59 0 0 1 -0.2,-0.91l-1.48,0c-0.21,0.32 -0.7,0.32 -0.78,0.8c0,-0.17 -0.15,-0.29 -0.2,-0.46c-0.27,0 -0.62,0.1 -0.49,-0.34c0.72,0.18 1.6,-0.42 2.25,-0.7c0,0.53 0.84,0.4 1,0.12a5.87,5.87 0 0 0 -0.19,-0.8c-0.58,0.09 -0.86,0.53 -1.48,0.58l0,-0.69c-0.53,-0.21 -0.63,0.54 -0.29,0.69a8.44,8.44 0 0 1 -1.38,-0.12c0.15,0.59 -0.45,0.32 -0.49,0.68c0.24,0.15 0.31,-0.06 0.39,0.12a0.43,0.43 0 0 1 -0.39,0.23c-0.16,-0.66 -0.94,-0.59 -1.68,-0.57a1.71,1.71 0 0 1 -0.59,1.15c0,0.36 0.26,0.39 0.2,0.8a2.19,2.19 0 0 0 1.07,-0.35c-0.2,0.63 0.54,0.14 0.59,0.46s-0.46,-0.08 -0.39,0.23c0,0.62 1.07,0 0.88,0.8c0.37,-0.25 0.49,-0.18 0.88,0l0.1,0c0,-0.13 0.28,-0.4 0.29,-0.11c0,0.13 -0.15,0.12 -0.29,0.11c0,0.29 0.42,0.65 0,0.81c-0.12,0 -0.08,-0.21 -0.1,-0.34c-0.87,-0.09 -1.31,-0.68 -2.35,-0.57c-0.3,-0.11 -0.31,-0.56 -0.69,-0.58c0,0.33 -0.31,0.4 -0.59,0.46a0.86,0.86 0 0 0 -0.1,-0.57c-0.38,0 -0.38,0.48 -0.79,0.46s-0.47,-0.14 -0.79,-0.11c-0.11,0 -0.06,0.23 -0.2,0.23s-0.08,-0.14 -0.09,-0.23c-0.24,0 -0.37,0.19 -0.69,0.11c-0.79,-0.57 -2.3,-0.3 -3.14,-0.8a8.08,8.08 0 0 1 -2.16,0.57c-0.22,0.44 0.17,0.45 0.29,0.81c0.37,-0.05 0.61,0 0.69,0.34c-0.4,-0.16 -0.35,0.21 -0.49,0.35c-0.18,-0.1 -0.27,-0.3 -0.49,-0.35c-0.38,0.44 -1.27,0.28 -1.58,0.8c0.54,0 0.73,0.36 0.79,0.92c0.52,-0.22 0.91,0 1.37,-0.12c-0.48,1 -2.52,0.2 -2.35,2c0.32,0.28 0.4,0.31 0.29,0.92c0.18,0 0.21,-0.14 0.39,-0.12c0,0.19 0,0.44 0.1,0.46c0.14,-0.37 0,0.47 0.29,0.34a0.5,0.5 0 0 1 0.89,-0.22c-0.42,0.38 -0.58,1.08 -1.08,1.38s-0.6,0.67 -1.18,0.69c0.09,0.37 -0.15,0.35 -0.19,0.57c0.45,0.07 0.61,-0.2 1.08,-0.11c0.11,-0.33 0.42,-0.43 0.79,-0.46a6.84,6.84 0 0 1 1.57,-1.84l0.2,0c0.11,-0.1 0,-0.42 0.3,-0.34c0,-0.07 0,-0.14 0.09,-0.11s0,0.13 -0.09,0.11c0,0.51 -0.27,0.6 -0.4,0.92c0.81,0.11 1,-0.5 1.67,-0.58a4.51,4.51 0 0 0 -0.1,-1.26c0.46,0.11 0.48,-0.29 0.88,-0.23a3,3 0 0 1 0.69,0.81a1.39,1.39 0 0 1 1.08,1.6c0.48,-0.07 0,-0.64 0.4,-0.69a7,7 0 0 0 0.29,2.64c-0.29,0.3 -0.1,0.42 0,0.8c0,0.22 -0.27,0.14 -0.19,0.46a24.67,24.67 0 0 0 0,3.33c0.25,0.19 0.43,0.49 0.68,0.69c0.27,0.44 0.25,1.23 0.59,1.61c-0.11,0 -0.08,0.21 -0.1,0.35c0.4,0.17 0.5,0.71 0.69,1.15c0.29,-0.09 0.28,0.2 0.58,0.11c0,-0.49 -0.19,-0.38 -0.19,-1c-0.05,0 -0.11,-0.1 0,-0.12l0,0.12c0.21,-0.06 0.18,0.16 0.19,0.34a3.89,3.89 0 0 1 0.79,0.92a3.11,3.11 0 0 0 0.39,1.72c0.81,0.24 1.3,0.83 2.27,0.57a4.33,4.33 0 0 0 0.39,0.81c0.37,-0.09 0.47,0.14 0.79,0.11a1.18,1.18 0 0 0 0.49,0.58l0,0.35c0.57,0.07 0.68,0.66 1.18,0.8c0.1,-0.15 0.09,-0.42 0.29,-0.45a4.58,4.58 0 0 0 0.3,1c0,0.23 -0.26,0.15 -0.2,0.46c0,0.59 -0.31,0.7 -0.39,1.15c-0.19,0.8 0.4,1.24 0,1.61c0.17,0.22 0.48,0.27 0.69,0.46c-0.08,0.17 -0.32,0.16 -0.5,0.23a1.31,1.31 0 0 0 0.87,1.44c0,0.28 -0.18,0.25 -0.1,0.58c0.37,0.34 0.5,1 1.08,1a4,4 0 0 1 0.49,1.61c-0.1,0.16 -0.1,0.42 -0.2,0.58c0.13,0.07 0.18,0.25 0.2,0.46c-0.27,0.52 0.12,1.12 0,1.83c-0.54,0.37 -0.29,1.66 -0.49,2.42c0.15,0.32 0.4,-0.2 0.49,0.11c0.09,0.56 -0.33,0.53 -0.49,0.8s0.32,0.09 0.2,0.46s0.11,0.56 -0.1,0.92c0.1,0.78 0.43,1.18 0.2,1.84c0.29,0.28 0.27,0.92 0.59,1.15c0,0.2 0.11,0.24 0.1,0.46a1.9,1.9 0 0 1 0.59,0.34c0.37,-0.07 1,0.19 1.08,-0.23a0.93,0.93 0 0 1 -0.59,-0.47c0.07,-0.38 -0.4,-0.14 -0.3,-0.57s0.28,-0.59 0.3,-1c0.25,0 0.38,-0.17 0.39,-0.46s-0.34,-0.29 -0.3,-0.69c0.26,-0.36 0.66,-1.49 0,-1.61c0.66,0.19 0.64,-0.41 0.78,-0.8c0.53,0 0.71,-0.32 1.09,-0.46c0.06,-0.54 -0.16,-0.74 -0.2,-1.15l0.79,0c0,-0.12 0.11,-0.09 0.19,-0.12c0,-0.28 0.09,-0.59 0.39,-0.57c0,-0.65 0.37,-0.79 0.59,-1.16l0,-0.8c0.18,-0.2 0.3,-0.48 0.49,-0.69a8.28,8.28 0 0 0 0.89,-0.34c0,-0.74 0.52,-1.38 0.2,-2.18c0.15,-0.1 0.21,-0.29 0.2,-0.58c0.15,0 0.17,-0.1 0.3,-0.11c0,-0.38 0.28,-0.51 0.39,-0.8s0,-0.55 0.29,-0.69c-0.07,-0.35 0.1,-0.42 0.1,-0.69a2.19,2.19 0 0 0 -0.14,-1.04zm-4.49,-19.07c0,0.06 -0.07,0.15 -0.1,0.11s0.1,-0.14 0.1,-0.11zm-7.57,-9c0.3,0.11 -0.11,0.31 -0.1,0.46c-0.33,-0.04 0.03,-0.35 0.08,-0.42l0.02,-0.04zm-0.39,0.57c0.31,0 0.35,0.21 0.69,0.12c0,0.46 -0.38,0.48 -0.69,0.58l0,-0.7zm-3,0.24c-0.06,-0.06 0.06,-0.15 0.09,-0.12s-0.13,0.19 -0.13,0.16l0.04,-0.04zm-2.09,16.57c0,-0.13 0.09,-0.07 0.09,0s-0.13,0.04 -0.13,0.04l0.04,-0.04zm2.19,-16.34c0.23,0 0.22,0.35 0.4,0.46c-2.26,16.86 -2.61,16.46 -2.54,16.12l2.14,-16.58z"/>
    <path id="svg_15" fill="#afe2fa" d="m705.57,48.4c-0.14,-0.52 -0.61,-0.67 -0.49,-1.49c0.7,-0.07 1,-0.65 1.47,-0.92a0.78,0.78 0 0 0 1,-0.8l-0.52,0c0,0.09 0,0.23 -0.1,0.23a6.13,6.13 0 0 0 -1.86,0.69c0,0.59 -0.48,0.51 -0.4,1.15c-0.12,0.24 -0.37,0.34 -0.39,0.69a6.89,6.89 0 0 0 1,0.69a0.29,0.29 0 0 1 0.29,-0.24z"/>
    <path id="svg_16" fill="#afe2fa" d="m722.03,46.34c0.24,-0.18 0.35,-0.51 0.59,-0.69c-0.38,-0.06 -0.46,-0.53 -0.8,-0.46c0,0 -0.09,0.27 -0.19,0.23l-0.6,0c-0.17,0.84 0.67,0.55 1,0.92z"/>
    <path id="svg_17" fill="#afe2fa" d="m690.64,51.5c0,-0.29 0.37,-0.18 0.49,-0.34c0.1,-0.58 -0.22,-0.66 -0.19,-1.15c-0.44,0.15 -0.58,-0.07 -1,0.11c-0.27,-0.07 -0.24,-0.48 -0.59,-0.46c0.12,0.56 -0.39,0.39 -0.39,0.8c0.27,0.1 0.25,-0.16 0.49,-0.11c-0.06,0.28 -0.38,0.24 -0.3,0.69c0.49,-0.16 0.38,0.39 0.69,0.46c0.1,-0.23 0.69,-0.11 0.8,0z"/>
    <path id="svg_18" fill="#afe2fa" d="m677.17,51.5c-0.39,-0.12 -0.14,-0.29 -0.39,-0.58c-0.3,0.08 -0.28,-0.2 -0.59,-0.11c-0.14,0.22 0,0.7 -0.49,0.58c0,0.4 0.32,0.46 0.68,0.45c-0.02,-0.89 0.65,0.38 0.79,-0.34z"/>
    <path id="svg_19" fill="#afe2fa" d="m694.47,55.64c-0.13,-0.12 -0.3,-0.19 -0.39,-0.34c0.11,-0.68 -0.66,-0.79 -0.3,-1.38a2.18,2.18 0 0 1 -0.4,-0.35c0.15,-0.1 0.31,-0.17 0.3,-0.46a1.45,1.45 0 0 0 -0.79,0.22c0.07,0.63 -0.16,0.89 -0.1,1.49a1.9,1.9 0 0 0 0.49,0.24c0,0.4 -0.33,0.63 -0.49,0.45a1.45,1.45 0 0 0 0.2,1c-0.17,0.11 -0.53,0 -0.5,0.34a6.13,6.13 0 0 1 1.58,-0.11c0.09,-0.44 0.03,-0.77 0.4,-1.1z"/>
    <path id="svg_20" fill="#afe2fa" d="m691.82,56.06c0.22,-0.13 0.59,-0.07 0.79,-0.23a2.79,2.79 0 0 1 0,-1l-0.49,0c0,0.51 -0.22,0.15 -0.39,0.35c0,0.33 -0.06,0.75 0.09,0.88z"/>
    <path id="svg_21" fill="#afe2fa" d="m725.51,59.43c0.19,0 0.08,0.38 0.3,0.34c0.21,-0.28 0.18,-0.86 0.59,-0.91c-0.52,-0.09 -0.84,-0.4 -1.38,-0.46a8.39,8.39 0 0 1 -0.1,1.27c0.27,0.3 0.25,-0.3 0.59,-0.24z"/>
    <path id="svg_22" fill="#afe2fa" d="m723.26,62.99c0,0.4 0.23,0.49 0.39,0.68a1.09,1.09 0 0 1 0.59,-0.8a0.43,0.43 0 0 1 0.29,0.12c0.33,-0.44 1,-0.49 1.29,-0.92c0,-0.82 -0.22,-1.43 -0.2,-2.3l-0.39,0c0.11,0.54 -0.06,0.8 0.1,1.38c-0.08,0 -0.12,0.09 -0.1,0.23a2.59,2.59 0 0 0 -0.89,0.69c-0.34,0.21 -1,0.09 -1,0.69c0,0.32 0.53,-0.09 0.49,0.23l-0.57,0z"/>
    <path id="svg_23" fill="#afe2fa" d="m699.29,62.06c0,0.32 0.32,0.09 0.58,0.34c0.07,-0.43 -0.15,-0.51 -0.49,-0.46c0.01,0.12 -0.03,0.12 -0.09,0.12z"/>
    <path id="svg_24" fill="#afe2fa" d="m721.19,65.98a1.22,1.22 0 0 1 0.3,0.69c0.4,0 0.37,-0.56 0.39,-1c-0.25,-0.29 -0.59,0.05 -0.69,0.31z"/>
    <path id="svg_25" fill="#afe2fa" d="m675.7,65.63l0,0.43l0.39,0c0,-0.26 -0.13,-0.41 -0.39,-0.43z"/>
    <path id="svg_26" fill="#afe2fa" d="m676.78,66.2a0.77,0.77 0 0 0 -0.1,-0.57l-0.3,0c-0.02,0.43 0.04,0.66 0.4,0.57z"/>
    <path id="svg_27" fill="#afe2fa" d="m676.88,66.06l0,0.57c0.21,0.05 0.27,-0.07 0.4,-0.12c-0.02,-0.25 -0.14,-0.4 -0.4,-0.45z"/>
    <path id="svg_28" fill="#afe2fa" d="m676.69,67.93c0.35,-0.07 0.48,0.13 0.69,0.23c0,-0.33 0.41,-0.21 0.69,-0.23c-0.14,-0.77 -0.69,-0.66 -1.28,-0.69c0.07,-0.31 -0.2,-0.24 -0.2,-0.46c-0.22,-0.13 -0.54,-0.14 -0.59,-0.47l-1.47,0c0,0.22 -0.21,0.29 -0.2,0.58c0.4,0 0.4,-0.38 0.88,-0.23s0.47,0.62 0.89,0.69c0.23,0.07 0.71,-0.15 0.78,0.11c-0.36,0.03 -0.24,0.18 -0.19,0.47z"/>
    <path id="svg_29" fill="#afe2fa" d="m677.66,66.67c0,-0.15 -0.24,-0.1 -0.39,-0.12c-0.24,0.43 0.51,0.51 0.39,0.12z"/>
    <path id="svg_30" fill="#afe2fa" d="m721.58,67.93a2.08,2.08 0 0 0 0.59,0.69c0.12,-0.36 0.45,-0.46 0.4,-1a0.55,0.55 0 0 0 -0.99,0.31z"/>
    <path id="svg_31" fill="#afe2fa" d="m719.23,68.28c0.27,-0.07 0.27,-0.45 0.39,-0.69a0.45,0.45 0 0 0 -0.39,-0.12c-0.2,0.45 -0.13,0.09 0,0.81z"/>
    <path id="svg_32" fill="#afe2fa" d="m675.6,67.7l0,0.46c0.33,-0.12 0.34,0 0.68,-0.11c0.08,-0.46 -0.36,-0.33 -0.68,-0.35z"/>
    <path id="svg_33" fill="#afe2fa" d="m678.26,68.16c0.35,0 0.68,0 0.59,-0.46l-0.59,0l0,0.46z"/>
    <path id="svg_34" fill="#afe2fa" d="m688.57,68.16c0,0.22 -0.27,0.15 -0.2,0.46l0.39,0c0.04,-0.26 -0.02,-0.43 -0.19,-0.46z"/>
    <path id="svg_35" fill="#afe2fa" d="m722.37,70c0.21,0.25 0.28,-0.06 0.6,0c0,0.27 -0.21,0.5 0.09,0.58a0.76,0.76 0 0 1 0.89,-0.46c0.09,-0.53 -0.32,-0.47 -0.49,-0.69c0,-0.38 -0.12,-0.55 -0.4,-0.57c-0.13,0.15 -0.09,0.5 -0.09,0.8c-0.35,-0.2 -0.44,0.06 -0.6,0.34z"/>
    <path id="svg_36" fill="#afe2fa" d="m712.64,70.34c0.14,0.68 -0.37,0.82 0,1.15c0.31,0 0.26,-0.31 0.49,-0.35a1.63,1.63 0 0 0 -0.49,-0.8z"/>
    <path id="svg_37" fill="#afe2fa" d="m719.12,73.44c0.1,0.46 0.53,0.54 0.5,1.15c0.64,-0.17 0.54,0.51 1.18,0.34c0,-0.26 0.28,-0.13 0.29,-0.34c-0.07,0 -0.19,0 -0.19,-0.12c0.32,-0.16 0.17,-0.88 0.5,-1c-0.22,-0.37 0.08,-0.76 -0.1,-1a0.49,0.49 0 0 0 0.29,-0.57c-0.24,-0.22 -0.43,-0.5 -0.88,-0.47c-0.1,1.14 -1.41,0.92 -1.59,2.01z"/>
    <path id="svg_38" fill="#afe2fa" d="m717.25,72.64c-0.14,-0.27 -0.46,-0.45 -0.38,-0.8c-0.27,0.08 -0.2,-0.24 -0.4,-0.24c0,0.51 -0.24,0 -0.49,0.11c0,1.35 1.38,1.07 1.18,2.64c0.48,0.06 0.62,0.82 1.08,0.58c0.23,-0.44 -0.21,-0.94 -0.19,-1.5a3.53,3.53 0 0 1 -0.8,-0.79z"/>
    <path id="svg_39" fill="#afe2fa" d="m722.76,73.56c0,-0.51 -0.62,-0.35 -0.79,-0.69c-0.51,0.47 -0.85,1.75 -0.1,2.18c0,-0.33 0,-0.58 0.21,-0.69c0.21,0.22 0.23,0.59 0.59,0.35c0,-0.47 -0.38,-0.63 -0.4,-1.14a0.33,0.33 0 0 0 0.49,-0.01z"/>
    <path id="svg_40" fill="#afe2fa" d="m724.92,73.06c-0.32,-0.23 -1.11,-0.19 -1.08,0.35c0.34,0.28 1.06,0.17 1.08,-0.35z"/>
    <path id="svg_41" fill="#afe2fa" d="m726.03,73.56l-0.68,0c-0.09,0.17 -0.15,0.36 -0.4,0.34s-0.19,-0.32 -0.48,-0.23c0,0.3 -0.39,0.09 -0.31,0.46s0.25,-0.14 0.49,0a10.79,10.79 0 0 1 1.38,1.15l0,0.69c0.53,-0.37 0.69,0.24 1.09,0.35s0.23,-0.57 0.68,-0.46c0.23,0.16 0.48,0.87 0.88,0.46c-0.21,-0.1 -0.3,-0.34 -0.3,-0.69c-0.25,-0.27 -0.61,-0.42 -0.78,-0.8l0,-0.34c-0.78,-0.04 -0.99,-0.72 -1.57,-0.93z"/>
    <path id="svg_42" fill="#afe2fa" d="m720.8,76.2c0.05,-0.4 -0.35,-0.28 -0.29,-0.69a4.93,4.93 0 0 1 -2,-0.46c-0.09,0.21 -0.28,0.3 -0.2,0.69c0.98,0.02 1.41,0.61 2.49,0.46z"/>
    <path id="svg_43" fill="#afe2fa" d="m728.03,80.68c0,-0.54 -0.18,-0.79 -0.1,-1.38c-0.19,-0.08 -0.22,-0.35 -0.4,-0.46c0,-0.88 -0.7,-1 -0.59,-2.06c-0.19,0 -0.22,-0.13 -0.39,-0.12c-0.26,0.47 0.1,1.66 -0.3,2s-0.19,-0.38 -0.59,-0.23c0,-0.32 -0.46,-0.14 -0.39,-0.57s0.48,0 0.39,-0.46c-0.34,-0.44 -1.35,-0.11 -1.86,-0.34c-0.17,0.07 0,0.54 -0.2,0.57a3.15,3.15 0 0 0 -1,0.35c-0.13,0.35 0,1 -0.4,1c-0.23,-0.27 -0.48,0 -0.78,0s0,0.64 -0.2,0.69s-0.2,-0.34 -0.39,-0.12s-0.13,1 -0.5,1.15s-0.65,0.08 -0.78,0.35a2.87,2.87 0 0 1 0.1,1.72c0.19,0.08 0.26,0.31 0.3,0.57c0,0.53 -0.18,0.72 -0.1,1.26c0.29,0 0.31,0.26 0.59,0.23c0.41,-0.21 0.65,-0.61 1.37,-0.46a2,2 0 0 1 1.87,-0.57a2,2 0 0 1 0.59,1c0.38,-0.21 0.26,0.27 0.69,0c0,0.3 0,0.66 -0.1,0.81a2.92,2.92 0 0 0 2,0.46c0.25,-0.21 0.43,-0.5 0.78,-0.58c0,-0.59 0.48,-0.51 0.4,-1.14c0.33,0 0.26,-0.55 0.59,-0.57c-0.11,-0.41 0.17,-0.65 0.2,-1a8.84,8.84 0 0 0 -0.3,-2.07c-0.22,-0.19 -0.38,0.35 -0.5,-0.03z"/>
    <path id="svg_44" fill="#afe2fa" d="m705.18,77.06a3.88,3.88 0 0 0 -0.4,1.15a1.71,1.71 0 0 0 -0.88,0.8c-0.08,0.4 0.14,0.45 0.1,0.8a2.4,2.4 0 0 1 -0.3,0.69c0.22,0.52 -0.07,1 0.3,1.37c0.31,0 0.41,-0.2 0.78,-0.11a13.06,13.06 0 0 1 0.4,-1.26l0,-0.58a0.3,0.3 0 0 1 0.19,-0.23c-0.18,-0.5 0.19,-1 0.2,-1.83c-0.37,-0.05 0.02,-0.9 -0.39,-0.8z"/>
    <path id="svg_45" fill="#afe2fa" d="m733.47,84.82c0,-0.33 0,-0.63 -0.29,-0.57l0,0.91c-0.08,0.34 -0.47,0.3 -0.4,0.81c0.66,-0.11 0.23,0.34 0.2,0.69c0.62,0 0.64,-0.78 0.88,-1.26c0.15,-0.17 0.41,-0.21 0.5,-0.47c-0.24,-0.35 -0.43,-0.07 -0.89,-0.11z"/>
    <path id="svg_46" fill="#afe2fa" d="m732.39,86.2c-0.08,0.24 -0.3,0.34 -0.3,0.69a0.48,0.48 0 0 0 -0.39,0.11c-0.17,0.23 -0.23,0.57 -0.49,0.69s-0.53,0.69 -0.69,1.15c0.32,-0.19 0.53,0 0.89,0c0.1,-0.27 0.4,-0.31 0.3,-0.8l0.39,0c0,-0.66 0.78,-0.47 0.78,-1.15c-0.04,-0.39 -0.29,-0.5 -0.49,-0.69z"/>
    <path id="svg_47" fill="#afe2fa" d="m725.71,86.54c-0.1,0.18 0.32,0.69 0.4,1c0.47,-0.05 0.79,-0.3 0.69,-1c-0.43,0.09 -0.92,-0.15 -1.09,0z"/>
    <path id="svg_48" fill="#afe2fa" d="m681.21,90.06l0.39,0c0.07,-0.41 -0.42,-0.34 -0.39,0z"/>
   </g>
  </g>
  <g id="setingf">
   <path id="svg_49" fill="#afe2fa" d="m631.64,84.52a17,17 0 0 1 -11.36,-4.31l11.94,-12l16.63,0a17.31,17.31 0 0 1 -17.21,16.33l0,-0.02z"/>
   <path id="svg_50" fill="#afe2fa" d="m632.76,65.56l0,-15.7a17.15,17.15 0 0 1 16,15.69l-16,0l0,0.01z"/>
   <path id="svg_51" fill="#add5f1" d="m631.64,84.52a17,17 0 0 1 -11.36,-4.31l11.94,-12l16.63,0a17.31,17.31 0 0 1 -17.21,16.33l0,-0.02z"/>
   <path id="svg_52" fill="#8abfe7" d="m629.1,44.28a22.08,22.08 0 0 0 -14.85,36.59l14.85,-15.26l0,-21.33z"/>
  </g>
  <g id="setinge">
   <path id="svg_53" fill="#add5f1" d="m583.32,64.51l0,-15.69a17.17,17.17 0 0 1 16,15.69l-16,0z"/>
   <path id="svg_54" fill="#67c7c5" d="m579.39,66.8l0,-21.44a21,21 0 0 0 2.88,41.7a20.56,20.56 0 0 0 10.41,-2.81l-13.29,-17.45z"/>
   <path id="svg_55" fill="#afe2fa" d="m585.03,67.15c2.07,2.68 5.58,7.23 8.93,11.59l0.37,-0.35a17.27,17.27 0 0 0 5,-11.24l-14.3,0z"/>
  </g>
  <g id="man">
   <g id="svg_56">
    <g id="svg_57">
     <g id="svg_58">
      <path id="svg_59" fill="#89bdda" d="m553.18,333.8l2.94,4.51l-24.68,8s-1.65,-1.59 4.41,-4.77c7.05,-3.76 17.33,-7.74 17.33,-7.74z"/>
      <path id="svg_60" fill="#89bdda" d="m557.56,333.8l-2.94,4.51l24.68,8s1.65,-1.59 -4.41,-4.77c-7.05,-3.76 -17.33,-7.74 -17.33,-7.74z"/>
     </g>
     <rect id="svg_61" fill="#89bdda" height="18.48" width="5.16" y="320.38" x="552.79"/>
     <g id="svg_62">
      <path id="svg_63" fill="#98daef" d="m552.85,334.75l2.52,4.3l-21.13,7.59s-1.41,-1.51 3.79,-4.58c6,-3.51 14.82,-7.31 14.82,-7.31z"/>
      <path id="svg_64" fill="#98daef" d="m557.89,334.75l-2.51,4.3l21.13,7.59s1.41,-1.51 -3.77,-4.56c-6.05,-3.53 -14.85,-7.33 -14.85,-7.33z"/>
     </g>
     <path id="svg_65" fill="#0e2145" d="m536.63,348.36a1.79,1.79 0 1 1 -1.79,-1.8a1.79,1.79 0 0 1 1.79,1.8z"/>
     <path id="svg_66" fill="#0e2145" d="m577.56,348.36a1.79,1.79 0 1 1 -1.79,-1.8a1.79,1.79 0 0 1 1.79,1.8z"/>
     <path id="svg_67" fill="#387082" d="m532.29,348.36a1.79,1.79 0 1 1 -1.79,-1.8a1.79,1.79 0 0 1 1.79,1.8z"/>
     <path id="svg_68" fill="#387082" d="m581.9,348.36a1.79,1.79 0 1 1 -1.79,-1.8a1.79,1.79 0 0 1 1.79,1.8z"/>
    </g>
    <rect id="svg_69" fill="#387082" height="6.65" width="3.77" y="313.61" x="553.42"/>
    <path id="svg_70" fill="#387082" d="m560.03,310.06a3.69,3.69 0 0 1 -3.68,3.7l-2.07,0a3.69,3.69 0 0 1 -3.68,-3.7l0,0a3.69,3.69 0 0 1 3.68,-3.7l2.07,0a3.69,3.69 0 0 1 3.68,3.7z"/>
    <path id="svg_71" fill="#47c2c6" d="m583.34,306.71c0.09,-0.44 0.14,-3.17 0.14,-3.64c0,-3 -1.92,-5.41 -4.29,-5.41l-47.78,0c-2.37,0 -4.29,2.42 -4.29,5.41c0,0.47 0,3.2 0.14,3.64l56.08,0z"/>
    <path id="svg_72" fill="#387082" d="m526.69,308.17c0,0.91 0.53,1.66 1.19,1.66l54.86,0c0.66,0 1.19,-0.74 1.19,-1.66l0,0c0,-0.92 -0.53,-1.66 -1.19,-1.66l-54.86,0c-0.66,0 -1.19,0.75 -1.19,1.66z"/>
   </g>
   <g id="svg_73">
    <path id="svg_74" fill="#3e7ba8" d="m564.51,297.51s-30.73,0.06 -42.59,0.25c-8.21,0.13 -8.95,-11.65 -5.72,-13.43c9.83,-5.38 40.49,-8.15 40.49,-8.15l20.86,19.28s-1.17,-0.03 -13.04,2.05z"/>
    <path id="svg_75" fill="#4262ad" d="m535.54,234.39s-7.9,-2.22 -11.34,8.16c-5.28,15.94 -4.81,30.55 -4.07,33.67c0.34,1.43 1.35,6.39 10.18,6.58c3.58,0.08 2.15,-7.65 2.15,-7.65a171,171 0 0 0 4.74,-17.65c2.44,-11.1 -1.66,-23.11 -1.66,-23.11z"/>
    <path id="svg_76" fill="#4678bc" d="m529.29,235.28l20.26,-6.6l15.33,-1l16.81,5.12s5.5,3.82 0.39,16.08s-3.14,31.48 -3.14,31.48l-43.35,1.4s-0.82,-17.76 -3.69,-35.53c-0.64,-4 -0.72,-8.67 -2.61,-10.95z"/>
    <path id="svg_77" fill="#4262ad" d="m559.03,280.86l-2.21,0a186.25,186.25 0 0 1 0.34,-51.93l2,1.2c-0.56,17.47 0.39,34.93 -0.13,50.73z"/>
    <path id="svg_78" fill="#e7b09c" d="m550.41,233.49c0.3,2.36 2.21,4.4 4.22,4.5l5.73,0c2,-0.1 3.93,-2.14 4.23,-4.5l1.44,-11.67c0.31,-2.33 -1.06,-7 -4.11,-8.4a10.88,10.88 0 0 0 -8.77,0c-3.05,1.38 -4.43,6.07 -4.11,8.4c0.44,3.9 0.9,7.78 1.37,11.67z"/>
    <polygon id="svg_79" fill="#4262ad" points="557.73 238.28 561.37 244.29 568.03 235.9 566.98 231.49 564.82 229.7 564.79 233.02 557.73 238.28"/>
    <polygon id="svg_80" fill="#4262ad" points="557.29 238.28 553.65 244.29 547.45 236.47 548.47 231.68 550.03 229.66 550.65 233.59 557.29 238.28"/>
    <path id="svg_81" fill="#181914" d="m599.82,356.65c0.47,0.58 0.13,2.1 0.13,2.1s-8.27,0.93 -10.93,0.3a13.63,13.63 0 0 1 -3,-1.4c-0.19,-0.11 -0.51,-0.75 -0.69,-0.85c-0.33,-0.2 -0.51,0.13 -0.79,-0.05a8.92,8.92 0 0 1 -1.26,-0.88c-0.73,-3.82 0.24,-5.36 0.24,-5.36s7,-2.36 8.36,-0.71c3.15,3.87 6.9,5.59 7.94,6.85z"/>
    <path id="svg_82" fill="#181914" d="m522.51,352.5l-0.57,6.29l-6.26,0.61s-0.43,-0.84 -1,-0.79s-0.94,1 -1.54,1l-3.36,0.33l-12.55,1.24s-0.41,-1.27 -0.11,-1.75a6.16,6.16 0 0 1 1.84,-1c3.14,-1.23 12.11,-5 13.42,-8.26c1.65,-3.96 10.13,2.33 10.13,2.33z"/>
    <path id="svg_83" fill="#fbc3ae" d="m531.97,272.87l21.15,8.7s-15,2.15 -24.38,0.23c-6.34,-1.31 2.94,-9.21 3.23,-8.93z"/>
    <path id="svg_84" fill="#3e7ba8" d="m580.03,286.12s2,19.44 1.74,29.72c-0.22,7.75 -0.24,22.61 1.59,35.28c0.11,0.77 10,0.19 10,0.19s3.53,-48.2 4.58,-56.14s-2.09,-13.67 -17.91,-9.05z"/>
    <path id="svg_85" fill="#326192" d="m518.11,290.8s3.17,5 11.87,6.23c3.14,0.43 -5.07,56.42 -5.07,56.42l-12.88,-4.14l2.48,-61.92l3.6,3.41z"/>
    <path id="svg_86" fill="#326192" d="m553.55,297.06s16.79,2.41 28,3.6c4.11,0.43 7.67,-11.15 8.14,-11.65a8.44,8.44 0 0 1 5.86,-2.88c-2.43,-2.64 -15,-5.1 -28.15,-8.2s-15.15,-1.15 -15.15,-1.15l1.3,20.28z"/>
    <path id="svg_87" fill="#3e7ba8" d="m567.41,277.9c13.14,3.1 25.72,5.56 28.15,8.2a8.39,8.39 0 0 0 -5.86,2.88c-0.13,0.14 -0.89,3.85 -1.43,5.18c2.14,-3.88 -28.75,-14.85 -35.42,-17.69c1.25,-0.41 4.88,-0.85 14.56,1.43z"/>
    <polygon id="svg_88" fill="#326192" points="581.84 296.89 583.13 334.72 584.42 343.5 584.56 334.72 584.27 329.26 587.27 320.77 588.84 301.06 586.56 301.93 586.84 293.29 581.84 296.89"/>
    <path id="svg_89" fill="#3e7ba8" d="m518.54,286.06l-3.14,0.86l-1.14,45.46l6.57,16.26l-3.14,-11.08l1.28,-22.87s4.57,11.08 4.57,10.5s-3.86,-24 -3.86,-24a51,51 0 0 1 3.86,3.45c-0.43,-0.13 -2.57,-16.38 -5,-18.58z"/>
    <path id="svg_90" fill="#4678bc" d="m572.4,232.95s6.75,-5.32 13.35,4.56c9.68,14.48 13.88,29.89 15.42,34.35c1.18,3.42 0.53,13.09 -3.43,17.07c-1,1 -6.67,0.19 -6.67,0.19l-3.75,-2.61l1.57,-3l0.08,-2.4s-4.8,-11.65 -10.69,-22.67s-5.88,-25.49 -5.88,-25.49z"/>
    <g id="svg_91">
     <path id="svg_92" fill="#fbc3ae" d="m588.91,277.24l-21.88,1.15s21.11,9.75 21.81,8.07c3.92,-9.53 0.07,-9.22 0.07,-9.22z"/>
     <g id="svg_93">
      <path id="svg_94" fill="#fbc3ae" d="m576.85,276.56c-1.28,-0.62 -1.17,-0.63 -1.17,-0.63a5.23,5.23 0 0 1 -2.86,1.66c-0.84,0.13 -3.56,0.17 -3.56,0.17l-4,0.1l-1.87,-0.11a3.44,3.44 0 0 0 -1.34,0c-0.81,0.53 -0.12,0.95 -0.12,0.95l7.24,1l-7,0.87s-0.87,0.26 -0.92,0.74s0.25,0.43 0.25,0.43l8.07,0.87l-3.54,0.85s-0.85,0.27 -0.91,0.74s-0.1,0.64 -0.1,0.64l7.43,-0.73s5.68,-6.93 4.4,-7.55z"/>
      <path id="svg_95" fill="#fbc3ae" d="m568.83,281.06l-4.86,0.89a4,4 0 0 0 -1.6,0.44a0.65,0.65 0 0 0 -0.23,0.91l7.45,-0.63l-0.76,-1.61z"/>
     </g>
    </g>
    <g id="svg_96">
     <path id="svg_97" fill="#b6c2c9" d="m538.36,284.91l0,0l0,-1.39l43.19,0l0,1.39s0,0 0,0l-0.15,0.26c-0.74,1.21 -2.06,1.42 -3.57,1.42l-35.8,0c-1.51,0 -2.83,-0.21 -3.57,-1.42l-0.1,-0.26z"/>
     <rect id="svg_98" fill="#879ba6" height="0.98" width="28.6" y="283.8" x="545.64"/>
     <g id="svg_99">
      <path id="svg_100" fill="#e4edf2" d="m538.38,283.62l-0.12,-28.5a1.35,1.35 0 0 1 1.35,-1.36l40.42,0a1.37,1.37 0 0 1 1.36,1.36l0.12,28.5l-43.13,0z"/>
      <path id="svg_101" fill="#b6c2c9" d="m557.27,268.69a2.62,2.62 0 1 0 2.61,-2.64a2.63,2.63 0 0 0 -2.61,2.64z"/>
     </g>
    </g>
    <polygon id="svg_102" fill="#4262ad" points="591.75 288.26 593.26 278.58 590.76 276 585.23 276.89 586.36 287.6 591.75 288.26"/>
    <polygon id="svg_103" fill="#4262ad" points="524.55 281.32 523.97 277.76 530.97 271.43 534.76 273.15 529.81 282.7 524.55 281.32"/>
   </g>
   <g id="manahead">
    <path id="svg_104" fill="#16405a" d="m558.37,206.06a4.57,4.57 0 0 1 3.83,2.09l1.57,0a3.56,3.56 0 0 1 3.55,3.58l0,8.83l-2.5,0l0,-3.59a2.51,2.51 0 0 0 -2.5,-2.52l-0.68,0a4.6,4.6 0 0 1 -4.58,-4.61l0,-3.78l1.31,0z"/>
    <path id="svg_105" fill="#e7b09c" d="m562.8,223.81a2.18,2.18 0 0 0 2.18,2.19l0.18,0a2.18,2.18 0 0 0 2.17,-2.19l0,-2.66a2.18,2.18 0 0 0 -2.17,-2.19l-0.13,0a2.19,2.19 0 0 0 -2,1.3"/>
    <path id="svg_106" fill="#16405a" d="m560.32,209.53l0,-3.47l-7.52,0a4.6,4.6 0 0 0 -4.58,4.61l0,3.51l7.52,0a4.6,4.6 0 0 0 4.58,-4.65z"/>
    <path id="svg_107" fill="#fbc3ae" d="m548.85,227.16c0,1.83 1.4,4.94 3.71,5.92a13.26,13.26 0 0 0 10,0c2.31,-1 3.7,-4.09 3.71,-5.92l0,-15.62c0,-1.85 -1.82,-3.4 -4.07,-3.44l-9.27,0c-2.26,0 -4.09,1.59 -4.07,3.44q-0.01,7.82 -0.01,15.62z"/>
    <path id="svg_108" fill="#16405a" d="m555.77,206.06a4.57,4.57 0 0 0 -3.83,2.09l-1.57,0a3.56,3.56 0 0 0 -3.55,3.58l0,8.83l2.5,0l0,-3.59a2.51,2.51 0 0 1 2.5,-2.52l3.21,0a4.6,4.6 0 0 0 4.58,-4.61l0,-3.78l-3.83,0l-0.01,0z"/>
    <path id="svg_109" fill="#fbc3ae" d="m551.31,221.15a2.18,2.18 0 0 0 -2.17,-2.19l-0.18,0a2.18,2.18 0 0 0 -2.17,2.19l0,2.66a2.18,2.18 0 0 0 2.17,2.19l0.18,0a2.18,2.18 0 0 0 2,-1.31"/>
    <path id="svg_110" fill="#16405a" d="m559.59,210.44a4.53,4.53 0 0 1 -0.09,-0.91l0,-3.47l3.25,0a4.6,4.6 0 0 1 4.58,4.61l0,3.51l-3.3,0a4.23,4.23 0 0 1 -0.94,-0.1a4.58,4.58 0 0 0 -3.5,-3.64z"/>
   </g>
  </g>
  <g id="manb">
   <g id="manbhand">
    <path id="svg_111" fill="#fbc3ae" d="m655.56,258.15s-15.54,8 -25.32,-7.47c-2.91,-4.6 -1.67,0.7 -0.08,5.72s11.24,16.42 22.22,17.18s15.16,0.15 17.21,-3.68s-14.03,-11.75 -14.03,-11.75z"/>
    <path id="svg_112" fill="#fbc3ae" d="m631.43,256.06s2.34,-5.64 1.5,-7.17s-4.28,-6.92 -4.28,-6.92l-1,-1.3s-2.05,0.31 0.31,3.91s0.24,2.47 0.24,2.47l-3.37,-2.45l-4.37,-2.69l-1.79,-1.44s-1,-0.89 -1.36,-0.91c-1.18,-0.06 -0.78,0.86 -0.78,0.86l6.47,6.18l-7.52,-4.09s-1.05,-0.36 -1.42,0.08s0,0.61 0,0.61l7.42,6.61l-4.12,-1.68s-1,-0.33 -1.43,0.08s-0.55,0.57 -0.55,0.57l15.13,8.53l0.92,-1.25z"/>
    <path id="svg_113" fill="#fbc3ae" d="m621.79,247.65l-5.46,-2.59a4.87,4.87 0 0 0 -1.9,-0.7a0.79,0.79 0 0 0 -0.87,0.74l7.85,4.68l0.38,-2.13z"/>
   </g>
   <g id="svg_114">
    <g id="svg_115">
     <path id="svg_116" fill="#387082" d="m708.41,331.46a7.83,7.83 0 0 0 5.22,-1.9c2.62,-2.3 3.76,-6.38 3.38,-12.14c-0.26,-3.89 -1.78,-7.82 -3.39,-12c-2.71,-7 -5.78,-15 -4.17,-25.46l-3,-0.46c-1.73,11.31 1.64,20 4.34,27c1.59,4.11 3,7.67 3.19,11.09c0.31,4.67 -0.49,8 -2.32,9.62a5,5 0 0 1 -4,1.13l-0.6,3a9.15,9.15 0 0 0 1.35,0.12z"/>
     <g id="svg_117">
      <g id="svg_118">
       <path id="svg_119" fill="#89bdda" d="m685.28,355.56l-2.94,4.5l24.69,8s1.65,-1.59 -4.41,-4.77c-7.06,-3.75 -17.34,-7.73 -17.34,-7.73z"/>
       <path id="svg_120" fill="#89bdda" d="m680.9,355.56l2.94,4.51l-24.68,8s-1.65,-1.59 4.41,-4.77c7.05,-3.76 17.33,-7.74 17.33,-7.74z"/>
      </g>
      <rect id="svg_121" fill="#89bdda" height="18.48" width="5.16" y="342.14" x="680.51"/>
      <g id="svg_122">
       <path id="svg_123" fill="#98daef" d="m685.61,356.51l-2.52,4.3l21.12,7.59s1.41,-1.51 -3.77,-4.56c-6.03,-3.53 -14.83,-7.33 -14.83,-7.33z"/>
       <path id="svg_124" fill="#98daef" d="m680.57,356.51l2.51,4.3l-21.13,7.59s-1.41,-1.51 3.77,-4.56c6.04,-3.53 14.85,-7.33 14.85,-7.33z"/>
      </g>
      <path id="svg_125" fill="#0e2145" d="m701.83,370.12a1.79,1.79 0 1 0 1.79,-1.8a1.79,1.79 0 0 0 -1.79,1.8z"/>
      <path id="svg_126" fill="#0e2145" d="m660.9,370.12a1.79,1.79 0 1 0 1.79,-1.8a1.79,1.79 0 0 0 -1.79,1.8z"/>
      <path id="svg_127" fill="#387082" d="m706.17,370.12a1.79,1.79 0 1 0 1.79,-1.8a1.79,1.79 0 0 0 -1.79,1.8z"/>
      <path id="svg_128" fill="#387082" d="m656.56,370.12a1.79,1.79 0 1 0 1.79,-1.8a1.79,1.79 0 0 0 -1.79,1.8z"/>
     </g>
     <rect id="svg_129" fill="#387082" height="6.65" width="3.77" y="335.37" x="681.27"/>
     <path id="svg_130" fill="#387082" d="m678.44,331.86a3.69,3.69 0 0 0 3.68,3.7l2.08,0a3.69,3.69 0 0 0 3.68,-3.7l0,0a3.69,3.69 0 0 0 -3.68,-3.7l-2.08,0a3.68,3.68 0 0 0 -3.68,3.7z"/>
     <path id="svg_131" fill="#47c2c6" d="m655.12,328.47c-0.09,-0.44 -0.14,-3.17 -0.14,-3.64c0,-3 1.92,-5.41 4.29,-5.41l47.76,0c2.37,0 4.29,2.42 4.29,5.41c0,0.47 0,3.2 -0.14,3.64l-56.06,0z"/>
     <path id="svg_132" fill="#387082" d="m711.77,329.94c0,0.91 -0.53,1.66 -1.19,1.66l-54.86,0c-0.66,0 -1.19,-0.74 -1.19,-1.66l0,0c0,-0.92 0.53,-1.66 1.19,-1.66l54.86,0c0.66,0 1.19,0.74 1.19,1.66z"/>
     <g id="svg_133">
      <path id="svg_134" fill="#47c2c6" d="m709.1,300.7c-1.18,0.09 -8.67,0.22 -10,0.24c-8.2,0.1 -15.26,-1.45 -15.65,-3.48a70.84,70.84 0 0 1 -0.21,-25.56c0.35,-2 7.52,-3.58 15.89,-3.48c1.32,0 9,0.15 10.16,0.24a69.51,69.51 0 0 0 -0.19,32.04z"/>
      <path id="svg_135" fill="#387082" d="m710.23,268.65c0.92,0 1.56,0.45 1.43,1a69.58,69.58 0 0 0 -0.26,30.09c0.12,0.53 -0.52,1 -1.42,1l0,0c-0.9,0 -1.73,-0.41 -1.84,-0.94a69.59,69.59 0 0 1 0.2,-30.16c0.12,-0.54 1,-1 1.89,-1l0,0.01z"/>
      <path id="svg_136" fill="#36a8b5" d="m710.59,300.68a18.78,18.78 0 0 1 -2.15,0.14a4.31,4.31 0 0 1 -4,-3.56a69.81,69.81 0 0 1 0.11,-25.17a4.41,4.41 0 0 1 4.08,-3.56c0.29,0 1.94,0.07 2.19,0.14a69.66,69.66 0 0 0 -0.23,32.01z"/>
     </g>
    </g>
    <g id="svg_137">
     <path id="svg_138" fill="#d0d9e8" d="m684.36,227.3s7.87,2.83 0.31,25.54s-12.59,20 -12.59,20l-6.25,-0.61l-12,-14.3l6.45,-5.68l1.3,0.52a3.16,3.16 0 0 0 1.86,-2.26c0.19,-1.56 3.22,-8.1 5.5,-21.44c1.09,-6.2 13.9,-2.33 15.42,-1.77z"/>
     <path id="svg_139" fill="#aebddb" d="m668.9,254.52l-3.94,-2.57l-1.63,-0.89a3.42,3.42 0 0 1 -1.72,1.71l3.29,1.36l3.58,2.32l3.7,4.48l-3.28,-6.41z"/>
     <path id="svg_140" fill="#d0d9e8" d="m669.83,292.53l29.41,-0.64l12.23,-41.22s5.6,-24.83 -4.86,-25.24c-15.19,-0.6 -35.13,-0.32 -35.13,-0.32s-10.24,8.95 -1.65,67.42z"/>
     <path id="svg_141" fill="#aebddb" d="m680.39,290.31l-3.46,0.51a184,184 0 0 1 5.87,-64.56l2.82,0.94a179.76,179.76 0 0 0 -5.23,63.11z"/>
     <path id="svg_142" fill="#16405a" d="m621.4,380.06s2.86,4.44 4.32,1.72c4.38,-8.17 8.34,-34 8.58,-44.53c0.33,-14.11 1,-22.71 1,-22.71l-14.1,-5.15l0.2,70.67z"/>
     <path id="svg_143" fill="#16405a" d="m670.87,292.24l-49.76,17.15l13,7.33s51.32,9.06 52.23,-10.11c0.82,-16.14 -15.47,-14.37 -15.47,-14.37z"/>
     <path id="svg_144" fill="#194967" d="m639.08,380.46s2.58,2.38 4,-0.35c4.38,-8.17 11.58,-29.87 11.82,-40.45a104.3,104.3 0 0 0 -2,-23.92l-14.41,-5l0.59,69.72z"/>
     <path id="svg_145" fill="#194967" d="m686.3,292.79l-47.44,18l13,7.12s48.15,9.06 49.08,-10.11s-14.64,-15.01 -14.64,-15.01z"/>
     <path id="svg_146" fill="#194967" d="m701.77,308.89c0.12,1.32 -0.65,5.73 -2.1,7.5c-4.49,5.46 -15.13,3.67 -23.64,3.67c-0.47,0 -2.83,-6.66 -2.83,-6.66l-3.54,-21.79l29.74,0.51a147.55,147.55 0 0 1 2.37,16.77z"/>
     <path id="svg_147" fill="#fbc3ae" d="m653.45,278.88l-10.89,-2s-1.7,-0.18 -1.77,1c-0.1,1.56 0.18,6.64 0.18,6.64l2,-1.22l2.8,1.72l3.25,-4.34a8.38,8.38 0 0 0 3.08,0c0.43,-0.11 1.35,-1.8 1.35,-1.8z"/>
     <path id="svg_148" fill="#fbc3ae" d="m680.17,275.77l-28.83,3.22s15.47,8 22.55,8a62.93,62.93 0 0 0 13.72,-1.59l-7.44,-9.63z"/>
     <path id="svg_149" fill="#aebddb" d="m694.39,245.68l-14.36,27.44l0.83,2.23l-2.22,0.41l6.73,10.78l10.55,-2.42l19,-37.88s4,-11.43 -5.07,-20.16c-4.57,-4.35 -14.19,17.4 -15.46,19.6z"/>
     <path id="svg_150" fill="#d0d9e8" d="m690.73,282.49s-6.82,-5.25 -10.28,-8.11l0.36,1l-2.22,0.41l2.36,3.71l4.09,4.78l2.34,-0.86l-0.89,-1.68l4.24,0.75z"/>
     <path id="svg_151" fill="#194967" d="m634.46,384.85a3.21,3.21 0 0 0 0,1.53s4.44,0.74 5.87,0.3a6.75,6.75 0 0 0 1.58,-1c0.1,-0.08 0.27,-0.54 0.37,-0.62s0.27,0.1 0.43,0a5.72,5.72 0 0 0 0.67,-0.63a7.84,7.84 0 0 0 -0.17,-3.92s-3.8,-1.77 -4.49,-0.58c-1.69,2.77 -3.69,4 -4.26,4.92z"/>
     <path id="svg_152" fill="#16405a" d="m626.2,381.33l-0.63,4.05l-3.36,0s-0.19,-0.57 -0.47,-0.57s-0.55,0.57 -0.88,0.57l-8.56,0a2.46,2.46 0 0 1 0,-1.14a3.11,3.11 0 0 1 1,-0.54c1.74,-0.6 7,-1.91 8.17,-3.79c0.97,-1.46 4.73,1.42 4.73,1.42z"/>
    </g>
   </g>
   <g id="svg_153">
    <path id="svg_154" fill="#b4c0c7" d="m653.03,284.84s0,0 0,0l0,-1.42l-58.43,0l0,1.42a0.08,0.08 0 0 0 0,0l0.15,0.26c0.75,1.23 2.1,1.45 3.64,1.45l50.85,0c1.54,0 2.89,-0.22 3.64,-1.45l0.15,-0.26z"/>
    <path id="svg_155" fill="#d7e3eb" d="m638.95,285.06a0,0 0 0 0 0,0l0.14,0.21a2.29,2.29 0 0 0 0.86,0.72l8.88,0c1.48,0 2.78,-0.18 3.5,-1.17l0.14,-0.22l0,0l0,-0.7l-13.53,0l0,1.16l0.01,0z"/>
    <rect id="svg_156" fill="#8599a4" height="1" width="29.19" y="283.71" x="601.87"/>
    <g id="svg_157">
     <path id="svg_158" fill="#d7dfe2" d="m638.63,283.32l-7.6,-28.9a1.92,1.92 0 0 0 -1.73,-1.38l-41,0a1,1 0 0 0 -1,1.38l7.57,28.9l43.76,0z"/>
     <path id="svg_159" fill="#b4c0c7" d="m615.45,268.18a2,2 0 0 1 -1.95,2.67a3.71,3.71 0 0 1 -3.36,-2.67a2,2 0 0 1 1.95,-2.68a3.73,3.73 0 0 1 3.36,2.68z"/>
    </g>
   </g>
   <g id="manbhead">
    <g id="svg_160">
     <path id="svg_161" fill="#16405a" d="m680.88,198.7l12.15,0a2.39,2.39 0 0 1 2.38,2.39l0,4.78l-14.53,0l0,-7.17z"/>
     <path id="svg_162" fill="#fbc3ae" d="m690.73,210.8a4.91,4.91 0 0 0 -4.9,-4.93l-2.53,0c-2.71,0 -4.16,2.21 -4.16,4.93l0,0a4.92,4.92 0 0 0 4.9,4.94l1.78,0a4.92,4.92 0 0 0 4.91,-4.94z"/>
    </g>
    <path id="svg_163" fill="#16405a" d="m681.65,206.27a3.57,3.57 0 0 0 3.56,3.59l13.46,0a3.57,3.57 0 0 0 3.56,-3.59l0,0a3.57,3.57 0 0 0 -3.56,-3.59l-13.46,0a3.59,3.59 0 0 0 -3.56,3.59z"/>
    <path id="svg_164" fill="#16405a" d="m684.12,212.49a6.61,6.61 0 0 0 6.59,6.63l7,0a6.61,6.61 0 0 0 6.59,-6.63l0,0a6.61,6.61 0 0 0 -6.59,-6.63l-7,0a6.61,6.61 0 0 0 -6.59,6.63z"/>
    <path id="svg_165" fill="#fbc3ae" d="m678.84,223.11l0,-20.73c0,-3.3 2.66,0 5.94,0l3.17,0a6,6 0 0 1 5.94,6l0,14.75l-15.05,-0.02z"/>
    <path id="svg_166" fill="#fbc3ae" d="m691.26,212.99a2.62,2.62 0 0 0 2.61,2.63l0,0a2.62,2.62 0 0 0 2.61,-2.63l0,0a2.62,2.62 0 0 0 -2.61,-2.63l0,0a2.62,2.62 0 0 0 -2.61,2.63z"/>
    <path id="svg_167" fill="#fbc3ae" d="m680.55,216.61a1.49,1.49 0 0 1 -1.46,1.52l-1.22,0a1.49,1.49 0 0 1 -1.46,-1.52s2.67,-7.87 3.48,-7.87a2.48,2.48 0 0 1 0.66,1.52l0,6.35z"/>
    <path id="svg_168" fill="#16405a" d="m687.15,221.98c5.94,0 6.56,-1.83 6.73,-3.93c0,0 1.58,5.25 1.58,6.94l0,1.89c0,3.64 -3.72,6.6 -8.32,6.6l-8.31,0l0,-11.5l8.32,0z"/>
    <path id="svg_169" fill="#16405a" d="m678.84,218.13l4.75,0a4,4 0 0 1 4,4a4.09,4.09 0 0 1 -0.14,1l-8.57,0l-0.04,-5z"/>
    <path id="svg_170" fill="#fbc3ae" d="m684.97,222.31l0,1.33a0.67,0.67 0 0 1 -0.66,0.67l-3.85,0a0.67,0.67 0 0 1 -0.66,-0.67l0,-1.33l5.17,0z"/>
    <path id="svg_171" fill="#16405a" d="m673.34,202.27a3.6,3.6 0 0 0 3.59,3.61l8.25,0a3.6,3.6 0 0 0 3.59,-3.61l0,0a3.6,3.6 0 0 0 -3.59,-3.61l-8.25,0a3.6,3.6 0 0 0 -3.59,3.61z"/>
    <rect id="svg_172" fill="#16405a" height="8.73" width="3.29" y="204.15" x="690.73"/>
    <rect id="svg_173" fill="#16405a" height="10.27" width="9.69" y="200.4" x="683.31"/>
   </g>
  </g>
  <g id="woman">
   <g id="svg_174">
    <g id="svg_175">
     <path id="svg_176" fill="#387082" d="m393.5,333.15a7.83,7.83 0 0 1 -5.22,-1.9c-2.62,-2.3 -3.76,-6.38 -3.38,-12.14c0.26,-3.89 1.78,-7.82 3.39,-12c2.71,-7 5.78,-15 4.17,-25.46l3,-0.46c1.73,11.31 -1.64,20 -4.34,27c-1.59,4.11 -3,7.67 -3.19,11.09c-0.31,4.67 0.49,8 2.32,9.62a5,5 0 0 0 4,1.13l0.6,3a9.33,9.33 0 0 1 -1.35,0.12z"/>
     <g id="svg_177">
      <g id="svg_178">
       <path id="svg_179" fill="#89bdda" d="m416.63,357.25l2.94,4.51l-24.68,8s-1.65,-1.59 4.41,-4.77c7.04,-3.76 17.33,-7.74 17.33,-7.74z"/>
       <path id="svg_180" fill="#89bdda" d="m421.03,357.25l-3,4.51l24.68,8s1.65,-1.59 -4.41,-4.77c-7.01,-3.76 -17.27,-7.74 -17.27,-7.74z"/>
      </g>
      <rect id="svg_181" fill="#89bdda" height="18.48" width="5.16" y="343.83" x="416.24"/>
      <g id="svg_182">
       <path id="svg_183" fill="#98daef" d="m416.3,358.2l2.52,4.3l-21.12,7.56s-1.41,-1.51 3.77,-4.56a165.34,165.34 0 0 1 14.83,-7.3z"/>
       <path id="svg_184" fill="#98daef" d="m421.34,358.2l-2.51,4.3l21.13,7.56s1.41,-1.51 -3.77,-4.56c-6.05,-3.5 -14.85,-7.3 -14.85,-7.3z"/>
      </g>
      <path id="svg_185" fill="#0e2145" d="m400.08,371.81a1.79,1.79 0 1 1 -1.79,-1.8a1.79,1.79 0 0 1 1.79,1.8z"/>
      <path id="svg_186" fill="#0e2145" d="m441.03,371.81a1.79,1.79 0 1 1 -1.79,-1.8a1.79,1.79 0 0 1 1.79,1.8z"/>
      <path id="svg_187" fill="#387082" d="m395.74,371.81a1.79,1.79 0 1 1 -1.79,-1.8a1.79,1.79 0 0 1 1.79,1.8z"/>
      <path id="svg_188" fill="#387082" d="m445.35,371.81a1.79,1.79 0 1 1 -1.79,-1.8a1.79,1.79 0 0 1 1.79,1.8z"/>
     </g>
     <rect id="svg_189" fill="#387082" height="6.65" width="3.77" y="337.06" x="416.87"/>
     <path id="svg_190" fill="#387082" d="m423.47,333.55a3.69,3.69 0 0 1 -3.68,3.7l-2.08,0a3.69,3.69 0 0 1 -3.68,-3.7l0,0a3.69,3.69 0 0 1 3.68,-3.7l2.08,0a3.68,3.68 0 0 1 3.68,3.7z"/>
     <path id="svg_191" fill="#47c2c6" d="m446.79,330.16c0.09,-0.44 0.14,-3.17 0.14,-3.64c0,-3 -1.92,-5.41 -4.29,-5.41l-47.78,0c-2.37,0 -4.29,2.42 -4.29,5.41c0,0.47 0,3.2 0.14,3.64l56.08,0z"/>
     <path id="svg_192" fill="#387082" d="m390.13,331.63c0,0.91 0.53,1.66 1.19,1.66l54.86,0c0.66,0 1.19,-0.74 1.19,-1.66l0,0c0,-0.92 -0.53,-1.66 -1.19,-1.66l-54.86,0c-0.65,0 -1.19,0.74 -1.19,1.66z"/>
     <g id="svg_193">
      <path id="svg_194" fill="#47c2c6" d="m392.81,302.39c1.18,0.09 8.67,0.22 10,0.24c8.2,0.1 15.26,-1.45 15.65,-3.48a70.84,70.84 0 0 0 0.21,-25.56c-0.35,-2 -7.52,-3.58 -15.89,-3.48c-1.32,0 -9,0.15 -10.16,0.24a69.51,69.51 0 0 1 0.19,32.04z"/>
      <path id="svg_195" fill="#387082" d="m391.68,270.34c-0.92,0 -1.56,0.45 -1.43,1a69.58,69.58 0 0 1 0.26,30.09c-0.12,0.53 0.52,1 1.42,1l0,0c0.9,0 1.73,-0.41 1.84,-0.94a69.59,69.59 0 0 0 -0.2,-30.16c-0.12,-0.54 -1,-1 -1.89,-1l0,0.01z"/>
      <path id="svg_196" fill="#36a8b5" d="m391.32,302.37a18.78,18.78 0 0 0 2.15,0.14a4.32,4.32 0 0 0 4,-3.56a69.81,69.81 0 0 0 -0.11,-25.17a4.41,4.41 0 0 0 -4.08,-3.56c-0.29,0 -1.94,0.07 -2.19,0.14a69.66,69.66 0 0 1 0.23,32.01z"/>
     </g>
    </g>
    <g id="svg_197">
     <path id="svg_198" fill="#fbc3ae" d="m476.31,287.3l-2.06,-2.53l-2.17,-1.54l-4.2,-1s-4.57,-0.46 -6.36,0s-8.63,-0.14 -9.49,0s-1.4,2.64 -1.4,2.64s6.29,0.2 9.19,0.11s7.08,1.23 8.21,1.24a12.21,12.21 0 0 0 2.38,-0.22c0.71,-0.13 0.71,-0.36 0.11,-0.47c-0.94,-0.17 -2.25,-0.39 -2.74,-0.43c-0.8,-0.06 -0.31,-0.93 -0.31,-0.93s4.2,0.34 5.25,0.89a6.8,6.8 0 0 1 1.8,1.41a3.46,3.46 0 0 0 1.79,0.83z"/>
     <g id="whead">
      <path id="svg_199" fill="#0e2145" d="m439.89,235.69a9.61,9.61 0 0 1 -9.57,9.64l-2.39,-4.58c-5.29,0 -9.57,-8 -9.57,-13.34l0,-3.61a9.6,9.6 0 0 1 9.57,-9.64l2.39,0a9.6,9.6 0 0 1 9.57,9.64l0,11.89z"/>
      <path id="svg_200" fill="#0e2145" d="m419.89,223.65a13.3,13.3 0 0 0 -1.55,0.1a12.41,12.41 0 0 1 -11,14.4a12.71,12.71 0 1 0 12.56,-14.5l-0.01,0z"/>
      <path id="svg_201" fill="#fbc3ae" d="m436.03,217.82a19.44,19.44 0 0 1 -0.23,2.71c-1,6.19 -4.7,10.89 -8.78,11.47a29.54,29.54 0 0 1 -1.36,7.46c-0.76,2.44 -3.6,5 -3.6,5c-0.69,4.32 5.69,5.28 7.44,4.66c0.73,-0.26 2.19,-0.48 1,-5.15a9.53,9.53 0 0 1 1.47,-7.79a7.84,7.84 0 0 1 5.6,-2.67a1.11,1.11 0 0 0 0.81,-0.36a7,7 0 0 0 0.3,-2l0,-7.95a6.91,6.91 0 0 0 -2.65,-5.38z"/>
     </g>
     <g id="svg_202">
      <path id="svg_203" fill="#194967" d="m403.89,307.06c0,-0.05 0,-0.1 0,-0.14a1,1 0 0 0 0.08,-0.11a74.68,74.68 0 0 1 6.61,-20.06c2.25,-4.36 6.77,-8.5 8.77,-10.59c5.15,2.83 10.23,1.51 15,5.18a45.69,45.69 0 0 1 1.5,6.52c0.73,4.23 1.36,8.16 1.9,11.84c8.87,2.62 11.85,5.07 16.64,8.15c0.61,0.34 2.81,2.56 3.45,3.08c-0.36,6.74 -1.29,11.37 -4.58,16.77c-0.58,1 -7.07,0.56 -12.83,-0.39c-2.66,-0.44 -11.33,-1 -12.25,-1.35c-28.72,-3.13 -25.31,-13.53 -24.29,-18.9z"/>
      <path id="svg_204" fill="#e7b09c" d="m458.39,323.95c0.95,-1.54 1.87,-3.08 2.77,-4.6c0.71,-3 0.71,-5 -0.14,-5.69c-3.2,-2.77 -15.71,3.72 -31.26,36.43c-0.73,1.64 -16.13,27.97 -15.54,27.57c7.37,-4.55 30.11,-30.82 44.17,-53.71z"/>
      <path id="svg_205" fill="#16405a" d="m414.03,374.81l4.95,-8a2.25,2.25 0 0 1 2,-1.15l-3.81,6.15a2.8,2.8 0 0 0 0.41,3.58a1.81,1.81 0 0 0 1.08,0.41l-1.14,1.84a2.06,2.06 0 0 1 -3.08,0.73a2.83,2.83 0 0 1 -0.41,-3.56z"/>
      <path id="svg_206" fill="#fbc3ae" d="m432.55,268.96l9.05,-14.1c2.69,-4.19 1.1,-8.42 -3.53,-9.41l-26.19,-5.56c-2.91,-0.37 -7.57,3.83 -6.53,8.81l5.55,16.28l21.65,3.98z"/>
      <path id="svg_207" fill="#16405a" d="m438.82,246.87c-3.5,12.07 3.75,35.38 3.75,35.38s3.95,2.05 4.87,0c1.17,-2.55 -0.73,-10.74 -2.08,-28c-0.83,-10.72 -5.95,-9.4 -6.54,-7.38z"/>
      <path id="svg_208" fill="#16405a" d="m407.08,240.36c-9.27,6.7 -15.62,27.52 -15.62,27.52s1.32,2.28 3.14,1.35c2.32,-1.17 5.93,-6.71 14,-19.9c4.95,-8.16 0.03,-10.09 -1.52,-8.97z"/>
      <path id="svg_209" fill="#4678bc" d="m414.72,275.06c0,1.89 2,4.93 3.4,4.9l15.13,0.78c1.42,0 3.52,-2.69 3.49,-4.57l-0.13,-6.34c0,-1.89 -1.22,-3.39 -2.64,-3.36l-17.85,-4.28c-1.42,0 -2.55,1.58 -2.51,3.47l1.11,9.4z"/>
      <path id="svg_210" fill="#171311" d="m434.11,281.06c0,0.21 -1,0.32 -2.21,0.24l-13.69,-0.86c-1.21,-0.07 -2.18,-0.31 -2.17,-0.51l0.05,-0.79c0,-0.21 1,-0.31 2.21,-0.24l13.68,0.86c1.21,0.08 2.18,0.31 2.17,0.51l-0.04,0.79z"/>
      <path id="svg_211" fill="#4678bc" d="m409.89,247.06a11.43,11.43 0 0 1 1,-2.49c12.72,9.08 21.72,5.22 28.2,3.68a11.59,11.59 0 0 1 0.13,1.2c0.24,4.51 -0.08,9 0.11,13.54c0.17,3.59 -4.85,6.73 -7.26,6.83c-9,0.39 -11,-0.15 -19.67,-2.5c-2.32,-0.63 -6.62,-4.43 -5.72,-7.73q1.64,-6.24 3.21,-12.53z"/>
      <path id="svg_212" fill="#194967" d="m432.32,243.57s9.4,-0.29 11,4.24s-2.29,11.13 -2.29,11.13s-2.39,8.4 -3,13s2.22,8.88 1.33,8a18.23,18.23 0 0 1 -5.69,-1.57c-3.39,-1.6 -1.51,-7.81 -1.18,-9.81s2,-11.86 1.62,-13.49s-1.79,-11.5 -1.79,-11.5z"/>
      <path id="svg_213" fill="#194967" d="m405.03,246.44s-0.72,-3.78 0.83,-5.29c2.28,-2.21 7.78,-1.91 9.56,-1.39a21.21,21.21 0 0 1 3,1.1s-6.22,2.53 -6,15.5a64.51,64.51 0 0 0 1.36,10.18a79.7,79.7 0 0 1 1,10.18s-3.72,0.77 -3.89,1.32s-0.4,-4 -2.94,-8.34s-2.92,-23.26 -2.92,-23.26z"/>
      <path id="svg_214" fill="#16405a" d="m413.24,239.43c-3.46,2.9 -5.56,5.38 -5,20.46c0.09,2.44 0,6.93 0.44,11.11c-0.21,-0.43 -0.43,-0.86 -0.68,-1.3c-2.53,-4.34 -2.93,-23.26 -2.93,-23.26s-0.72,-3.78 0.83,-5.29s4.95,-1.88 7.34,-1.72z"/>
      <path id="svg_215" fill="#e7b09c" d="m454.48,309.21a36.07,36.07 0 0 1 6.34,4.36c-3.46,1.69 -5.12,5.87 -9.16,7.41c-2.57,-1.4 -8.8,-10.15 -6.83,-9.7c5.93,1.34 5.44,-0.65 9.65,-2.07z"/>
      <g id="svg_216">
       <path id="svg_217" fill="#e7b09c" d="m413.29,282.67a6.79,6.79 0 0 1 2,2.2c0.23,0.68 0.76,4.08 0.76,4.08a4.1,4.1 0 0 1 -1.18,-2.2a13.77,13.77 0 0 0 -1.58,-4.08z"/>
       <path id="svg_218" fill="#e7b09c" d="m414.39,284.74c1.11,0.66 1.66,2.05 1.91,3.85a3,3 0 0 0 1.21,2.24a21,21 0 0 0 -0.69,-3.73c-0.18,-0.73 -0.4,-1.47 -0.64,-2.18c-0.76,-2.33 -4.64,-1.86 -1.79,-0.18z"/>
       <path id="svg_219" fill="#e7b09c" d="m413.6,280.32a7.51,7.51 0 0 0 1.8,2.44a31,31 0 0 0 2.77,1.47c-1.63,1 -3.68,-1.08 -4.81,-1.37s-0.72,-4.68 0.24,-2.54z"/>
       <path id="svg_220" fill="#fbc3ae" d="m403.61,274.91c2.92,1.72 6.35,3.09 7.53,4.67c1.69,2.25 1.58,4.16 3.25,5.15a6.26,6.26 0 0 1 0.51,0.39c0.45,0.35 1,0.67 1.18,0.83s0.66,0.8 0.57,0.48c-0.82,-2.82 -2,-5.9 -2.5,-6.4c-1,-1 -7,-6.42 -9.65,-8c-2.97,-1.68 -4.84,0.56 -0.89,2.88z"/>
       <path id="svg_221" fill="#fbc3ae" d="m414.52,284.48s0.36,-0.6 0.84,-0.34a9.68,9.68 0 0 1 2.27,2.37c0.42,0.59 1.92,3.67 1.92,3.67a4,4 0 0 1 -1.77,-1.76a17.43,17.43 0 0 0 -3.26,-3.94z"/>
       <path id="svg_222" fill="#fbc3ae" d="m400.44,268.65a31.52,31.52 0 0 0 -1.24,3.42c7.7,4.45 14.42,7.87 14.42,7.87l-13.18,-11.29z"/>
      </g>
      <path id="svg_223" fill="#16405a" d="m391.27,268.46c2.76,6.8 13.22,7 13.22,7s1.31,-1.85 1,-3.3c-0.43,-1.84 -3.05,-3.69 -9.33,-7.57c-3.92,-2.37 -5.35,2.73 -4.89,3.87z"/>
     </g>
     <g id="womenlag">
      <path id="svg_224" fill="#fbc3ae" d="m443.29,310.69a9.85,9.85 0 0 1 6.23,2.68c-3.46,1.69 -5.12,5.87 -9.16,7.41c-3,2 -4.53,7.93 -4.53,5.91c0,-2.7 3.04,-16.4 7.46,-16z"/>
      <path id="svg_225" fill="#fbc3ae" d="m448.78,323.57c0.64,-1.7 1.26,-3.37 1.85,-5c0.14,-3 -0.24,-5 -1.21,-5.56c-3.67,-2.11 -14.73,6.65 -23.83,41.74a107.89,107.89 0 0 1 -6.56,18.58c-0.77,1.54 -1.68,1.24 -2.11,2.51c-1.33,3.93 -0.74,8.82 -0.57,8.67c6.33,-5.89 22.93,-35.78 32.43,-60.94z"/>
      <path id="svg_226" fill="#194967" d="m413.69,381.6l4.3,-8.36a2.26,2.26 0 0 1 1.9,-1.31l-3.31,6.44a2.81,2.81 0 0 0 0.69,3.53a1.82,1.82 0 0 0 1.11,0.32l-1,1.92a2.05,2.05 0 0 1 -3,1a2.79,2.79 0 0 1 -0.69,-3.54z"/>
     </g>
     <g id="svg_227">
      <path id="svg_228" fill="#d1dee6" d="m464.67,284.85s0,0 0,-0.05l0,-1.42l58.27,0l0,1.42a0.08,0.08 0 0 1 0,0.05l-0.15,0.26c-0.75,1.23 -2.09,1.45 -3.63,1.45l-50.71,0c-1.54,0 -2.88,-0.22 -3.63,-1.45l-0.15,-0.26z"/>
      <path id="svg_229" fill="#b6c2c9" d="m478.71,285.06a0,0 0 0 1 0,0l-0.14,0.21a2.34,2.34 0 0 1 -0.85,0.72l-8.86,0c-1.48,0 -2.77,-0.18 -3.49,-1.17l-0.14,-0.22l0,0l0,-0.7l13.5,0l0,1.16l-0.02,0z"/>
      <rect id="svg_230" fill="#b6c2c9" height="1" width="29.12" y="283.71" x="486.58"/>
      <g id="svg_231">
       <path id="svg_232" fill="#d1dee6" d="m479.03,283.33l7.55,-28.82a1.91,1.91 0 0 1 1.73,-1.38l40.88,0a1,1 0 0 1 1,1.38l-7.55,28.82l-43.61,0z"/>
       <path id="svg_233" fill="#b6c2c9" d="m502.15,268.23a2,2 0 0 0 1.95,2.66a3.7,3.7 0 0 0 3.35,-2.66a2,2 0 0 0 -1.95,-2.67a3.71,3.71 0 0 0 -3.35,2.67z"/>
      </g>
     </g>
     <path id="svg_234" fill="#16405a" d="m454.17,281.65c0.6,0.38 -0.73,4.19 -2.08,4.12l-1,0.07s-8.92,0.19 -8.58,-4.44c-0.03,0 2.12,-4.24 11.66,0.25z"/>
    </g>
   </g>
  </g>
  <g id="table">
   <polygon id="svg_235" fill="#add5f1" points="673.88 395.22 679.85 395.22 670.01 299.28 661.36 299.28 673.88 395.22"/>
   <polygon id="svg_236" fill="#87bbd8" points="661.94 303.7 665.73 332.76 670.23 301.44 670.01 299.28 662.45 299.28 661.94 303.7"/>
   <polygon id="svg_237" fill="#add5f1" points="473.33 395.22 479.29 395.22 469.45 299.28 460.81 299.28 473.33 395.22"/>
   <polygon id="svg_238" fill="#87bbd8" points="461.38 303.7 465.18 332.76 469.68 301.44 469.45 299.28 461.89 299.28 461.38 303.7"/>
   <polygon id="svg_239" fill="#add5f1" points="410.71 395.22 404.75 395.22 414.59 299.28 423.24 299.28 410.71 395.22"/>
   <polygon id="svg_240" fill="#87bbd8" points="422.66 303.7 411.08 333.31 414.37 301.44 414.59 299.28 422.15 299.28 422.66 303.7"/>
   <rect id="svg_241" fill="#387082" height="5.61" width="183.21" y="296.16" x="406.24"/>
   <rect id="svg_242" fill="url(#radial-gradient)" height="5.61" width="202.3" y="296.16" x="474.82"/>
  </g>
  <g id="setingd">
   <g id="svg_243">
    <path id="svg_244" fill="#47c2c6" d="m748.62,218.3l0,-22.41a3,3 0 0 0 -3,-3l-28.15,0a3,3 0 0 0 -3,3l0,6.71l-1.44,1.46l-3,3l3,3l1.49,1.5l0,6.7a3,3 0 0 0 3,3l28.17,0a3,3 0 0 0 2.93,-2.96z"/>
    <path id="svg_245" fill="#fff" d="m722.15,205.85l0,2.88l3,0a7.26,7.26 0 0 0 1,2.53l-2.13,2.14l2,2l2.13,-2.15a7,7 0 0 0 2.51,1.05l0,3l2.86,0l0,-3a7.16,7.16 0 0 0 2.51,-1.05l2.13,2.15l2,-2l-2.13,-2.15a7.26,7.26 0 0 0 1,-2.53l3,0l0,-2.88l-3,0a7.26,7.26 0 0 0 -1,-2.53l2.13,-2.15l-2,-2l-2.13,2.15a7,7 0 0 0 -2.51,-1.05l0,-3l-2.86,0l0,3a7.16,7.16 0 0 0 -2.51,1.05l-2.13,-2.15l-2,2l2.13,2.15a7.26,7.26 0 0 0 -1,2.53l-3,0l0,0.01zm10,-2.89a4.33,4.33 0 1 1 -4.3,4.33a4.32,4.32 0 0 1 4.32,-4.32l-0.02,-0.01z"/>
   </g>
  </g>
  <g id="setingc">
   <g id="svg_246">
    <path id="svg_247" fill="#4678bc" d="m636.97,163.31l28.74,0a3.2,3.2 0 0 1 3.19,3.21l0,20.9a3.2,3.2 0 0 1 -3.19,3.21l-3.19,0l0,6.43l-7.18,-6.43l-18.31,0a3.2,3.2 0 0 1 -3.19,-3.21l0,-20.9a3.17,3.17 0 0 1 3.13,-3.21z"/>
    <line id="svg_248" stroke-width="3.19" stroke="#fff" fill="none" y2="176.16" x2="660.92" y1="185.81" x1="660.92"/>
    <line id="svg_249" stroke-width="3.19" stroke="#fff" fill="none" y2="180.99" x2="654.53" y1="185.81" x1="654.53"/>
    <line id="svg_250" stroke-width="3.19" stroke="#fff" fill="none" y2="168.13" x2="648.14" y1="185.81" x1="648.14"/>
    <line id="svg_251" stroke-width="3.19" stroke="#fff" fill="none" y2="172.95" x2="641.76" y1="185.81" x1="641.76"/>
   </g>
  </g>
  <g id="setingb">
   <g id="svg_252">
    <path id="svg_253" fill="#79b2e0" d="m574.51,213.06a2.6,2.6 0 0 0 2.58,2.6l1.72,0l0,6.06l6,-6.06l15.47,0a2.59,2.59 0 0 0 2.58,-2.6l0,-25.1a2.6,2.6 0 0 0 -2.58,-2.6l-23.19,0a2.59,2.59 0 0 0 -2.58,2.6l0,25.1z"/>
    <path id="svg_254" fill="#fff" d="m589.35,196.87a2.15,2.15 0 1 0 -3,0l-3.72,0l0,3.12a2.16,2.16 0 1 1 0,3l0,3.12l10.4,0l0,-9.25l-3.72,0l0.04,0.01z"/>
   </g>
  </g>
  <g id="setinga">
   <g id="svg_255">
    <path id="svg_256" fill="#4678bc" d="m456.81,233.06a2.58,2.58 0 0 1 -2.58,-2.6l0,-1.73l-6,0l6,-6.06l0,-15.61a2.59,2.59 0 0 1 2.58,-2.6l24.93,0a2.58,2.58 0 0 1 2.58,2.6l0,23.37a2.59,2.59 0 0 1 -2.58,2.6l-24.93,0.03z"/>
    <rect id="svg_257" fill="#fff" height="1.4" width="5.55" y="225.04" x="465.86"/>
    <path id="svg_258" fill="#fff" d="m468.64,210.11a6.29,6.29 0 0 0 -2.78,11.95l0,2l2.08,0l0,-4.19l-0.7,0l0,-1.4l2.79,0l0,1.4l-0.69,0l0,4.19l2.08,0l0,-2a6.29,6.29 0 0 0 -2.78,-11.92l0,-0.03z"/>
   </g>
  </g>
  <g id="stroke">
   <line id="svg_259" stroke-width="6" stroke-miterlimit="10" stroke="#8abfe7" fill="none" y2="135.59" x2="566.94" y1="118.2" x1="566.94"/>
   <line id="svg_260" stroke-width="6" stroke-miterlimit="10" stroke="#afe2fa" fill="none" y2="135.59" x2="577.16" y1="112.61" x1="577.16"/>
   <line id="svg_261" stroke-width="6" stroke-miterlimit="10" stroke="#8abfe7" fill="none" y2="135.59" x2="587.29" y1="112.61" x1="587.29"/>
   <line id="svg_262" stroke-width="6" stroke-miterlimit="10" stroke="#67c7c5" fill="none" y2="135.59" x2="597.31" y1="103.22" x1="597.31"/>
   <line id="svg_263" stroke-width="6" stroke-miterlimit="10" stroke="#8abfe7" fill="none" y2="135.59" x2="606.97" y1="109.07" x1="606.97"/>
   <line id="svg_264" stroke-width="6" stroke-miterlimit="10" stroke="#67c7c5" fill="none" y2="135.59" x2="616.92" y1="99.66" x1="616.92"/>
   <line id="svg_265" stroke-width="6" stroke-miterlimit="10" stroke="#afe2fa" fill="none" y2="135.59" x2="627.24" y1="121.11" x1="627.24"/>
   <line id="svg_266" stroke-width="6" stroke-miterlimit="10" stroke="#67c7c5" fill="none" y2="135.59" x2="637.4" y1="112.05" x1="637.4"/>
   <line id="svg_267" stroke-width="6" stroke-miterlimit="10" stroke="#afe2fa" fill="none" y2="135.59" x2="647.62" y1="104.46" x1="647.62"/>
   <line id="svg_268" stroke-width="6" stroke-miterlimit="10" stroke="#8abfe7" fill="none" y2="135.59" x2="657.65" y1="96.11" x1="657.65"/>
   <line id="svg_269" stroke-width="6" stroke-miterlimit="10" stroke="#67c7c5" fill="none" y2="135.59" x2="667.29" y1="101.75" x1="667.29"/>
   <line id="svg_270" stroke-width="6" stroke-miterlimit="10" stroke="#afe2fa" fill="none" y2="135.59" x2="677.93" y1="91.15" x1="677.93"/>
   <line id="svg_271" stroke-width="6" stroke-miterlimit="10" stroke="#8abfe7" fill="none" y2="135.59" x2="687.29" y1="108.49" x1="687.29"/>
   <line id="svg_272" stroke-width="6" stroke-miterlimit="10" stroke="#67c7c5" fill="none" y2="135.59" x2="697.66" y1="112.9" x1="697.66"/>
   <line id="svg_273" stroke-width="6" stroke-miterlimit="10" stroke="#afe2fa" fill="none" y2="135.59" x2="707.6" y1="100.65" x1="707.6"/>
   <line id="svg_274" stroke-width="6" stroke-miterlimit="10" stroke="#8abfe7" fill="none" y2="135.59" x2="718.06" y1="105" x1="718.06"/>
  </g>
 </g>
</svg>