<svg width="800" height="450" xmlns="http://www.w3.org/2000/svg" xmlns:xlink="http://www.w3.org/1999/xlink">
 <g>
  <title>background</title>
  <rect fill="#fff" id="canvas_background" height="502" width="890.88889" y="-1" x="-1"/>
 </g>
 <g>
  <title>Layer 1</title>
  <rect x="0.95" y="0" fill="#E5E7DA" width="804.772" height="537.235" id="svg_1"/>
  <g id="svg_2">
   <g id="svg_3">
    <polygon fill="#FDC18F" points="134.682,338.023 675.723,338.023 805.723,397.042 805.723,537.235 -0.129,537.235 -0.129,397.042       " id="svg_4"/>
    <g opacity="0.27" id="svg_5">
     <polygon fill="#FDC18F" points="208.527,351.495 151.896,351.495 177.416,338.023 228.252,338.023    " id="svg_6"/>
     <polygon fill="#FDC18F" points="151.896,351.495 111.254,372.946 54.914,372.946 -0.129,397.042 54.914,372.946 103.914,351.495      134.682,338.023 134.682,338.023 103.914,351.495    " id="svg_7"/>
     <polygon fill="#FDC18F" points="-0.129,407.586 45.62,407.586 -0.129,431.738    " id="svg_8"/>
     <polygon fill="#FDC18F" points="177.115,372.946 126.376,407.586 45.62,407.586 111.254,372.946    " id="svg_9"/>
     <path fill="#FDC18F" d="m208.527,351.495l-31.412,21.451l62.598,0l22.645,-21.451l-53.831,0zm31.186,21.451l-36.573,34.64l58.712,0l26.143,-34.64l-48.282,0zm-31.186,-21.451l-31.412,21.451l62.598,0l22.645,-21.451l-53.831,0zm31.186,21.451l-36.573,34.64l58.712,0l26.143,-34.64l-48.282,0zm36.864,-34.923l-14.219,13.472l41.832,0l10.163,-13.472l-37.776,0zm27.613,13.472l-16.195,21.451l58.993,0l7.684,-21.451l-50.482,0zm-95.663,0l-31.412,21.451l62.598,0l22.645,-21.451l-53.831,0zm31.186,21.451l-36.573,34.64l58.712,0l26.143,-34.64l-48.282,0zm64.477,-21.451l-16.195,21.451l58.993,0l7.684,-21.451l-50.482,0zm-95.663,0l-31.412,21.451l62.598,0l22.645,-21.451l-53.831,0zm31.186,21.451l-36.573,34.64l58.712,0l26.143,-34.64l-48.282,0zm64.477,-21.451l-16.195,21.451l58.993,0l7.684,-21.451l-50.482,0zm-95.663,0l-31.412,21.451l62.598,0l22.645,-21.451l-53.831,0zm31.186,21.451l-36.573,34.64l58.712,0l26.143,-34.64l-48.282,0zm64.477,-21.451l-16.195,21.451l58.993,0l7.684,-21.451l-50.482,0zm208.656,21.451l-58.991,0l12.394,34.64l72.739,0l-26.142,-34.64zm-304.319,-21.451l-31.412,21.451l62.598,0l22.645,-21.451l-53.831,0zm31.186,21.451l-36.573,34.64l58.712,0l26.143,-34.64l-48.282,0zm64.477,-21.451l-16.195,21.451l58.993,0l7.684,-21.451l-50.482,0zm208.656,21.451l-58.991,0l12.394,34.64l72.739,0l-26.142,-34.64zm25.636,-21.451l-41.833,0l16.196,21.451l48.281,0l-22.644,-21.451zm34.106,-13.472l-48.324,0l14.219,13.472l53.833,0l-19.728,-13.472zm-364.061,13.472l-31.412,21.451l62.598,0l22.645,-21.451l-53.831,0zm31.186,21.451l-36.573,34.64l58.712,0l26.143,-34.64l-48.282,0zm64.477,-21.451l-16.195,21.451l58.993,0l7.684,-21.451l-50.482,0zm208.656,21.451l-58.991,0l12.394,34.64l72.739,0l-26.142,-34.64zm25.636,-21.451l-41.833,0l16.196,21.451l48.281,0l-22.644,-21.451zm110.461,0l-56.628,0l31.409,21.451l65.862,0l-40.643,-21.451zm-440.416,0l-31.412,21.451l62.598,0l22.645,-21.451l-53.831,0zm31.186,21.451l-36.573,34.64l58.712,0l26.143,-34.64l-48.282,0zm64.477,-21.451l-16.195,21.451l58.993,0l7.684,-21.451l-50.482,0zm208.656,21.451l-58.991,0l12.394,34.64l72.739,0l-26.142,-34.64zm25.636,-21.451l-41.833,0l16.196,21.451l48.281,0l-22.644,-21.451zm85.243,21.451l-62.598,0l36.572,34.64l76.767,0l-50.741,-34.64zm25.218,-21.451l-56.628,0l31.409,21.451l65.862,0l-40.643,-21.451zm-440.416,0l-31.412,21.451l62.598,0l22.645,-21.451l-53.831,0zm31.186,21.451l-36.573,34.64l58.712,0l26.143,-34.64l-48.282,0zm64.477,-21.451l-16.195,21.451l58.993,0l7.684,-21.451l-50.482,0zm-42.337,56.091l-38.312,50.763c29.855,-0.117 61.074,-0.237 92.991,-0.347l18.061,-50.416l-72.74,0zm42.337,-56.091l-16.195,21.451l58.993,0l7.684,-21.451l-50.482,0zm208.656,21.451l-58.991,0l12.394,34.64l72.739,0l-26.142,-34.64zm110.879,0l-62.598,0l36.572,34.64l76.767,0l-50.741,-34.64zm25.218,-21.451l-56.628,0l31.409,21.451l65.862,0l-40.643,-21.451zm-409.23,21.451l-36.573,34.64l58.712,0l26.143,-34.64l-48.282,0zm22.14,34.64l-38.312,50.763c29.855,-0.117 61.074,-0.237 92.991,-0.347l18.061,-50.416l-72.74,0zm42.337,-56.091l-16.195,21.451l58.993,0l7.684,-21.451l-50.482,0zm208.656,21.451l-58.991,0l12.394,34.64l72.739,0l-26.142,-34.64zm25.636,-21.451l-41.833,0l16.196,21.451l48.281,0l-22.644,-21.451zm34.106,-13.472l-48.324,0l14.219,13.472l53.833,0l-19.728,-13.472zm51.137,34.923l-62.598,0l36.572,34.64l76.767,0l-50.741,-34.64zm25.218,-21.451l-56.628,0l31.409,21.451l65.862,0l-40.643,-21.451zm154.892,44.689l-51.191,-23.237l-47.25,-21.451l-29.671,-13.472l-52.298,0l25.519,13.472l55.893,-0.255l42.261,19.187l4.632,2.104l-62.142,0.415l65.633,34.64l50.503,0l0,-10.544l-1.889,-0.859zm-211.52,-44.689l31.409,21.451l65.862,0l-40.644,-21.451l-56.627,0zm5.384,56.091l76.767,0l-50.741,-34.64l-62.598,0l36.572,34.64zm-73.435,-69.563l14.219,13.472l53.833,0l-19.728,-13.472l-48.324,0zm192.729,182.556l-92.73,0l-47.684,-63.19c25.426,-0.031 50.087,-0.043 73.664,-0.043l-52.544,-49.76l-58.712,0l37.582,49.803c-29.985,0.023 -60.998,0.077 -92.431,0.151l22.567,63.039l-105.307,0l0,-62.832c27.632,-0.089 55.342,-0.152 82.74,-0.207l-17.891,-49.954l-64.85,0l0,-34.64l52.456,0l-7.686,-21.451l-44.771,0l0,-13.472l-41.906,0l-4.818,13.472l45.458,0l-0.075,21.451l-53.067,0l-12.396,34.64l65.334,0l-0.193,50.161c-27.966,0.073 -55.836,0.161 -83.202,0.255l-22.398,62.577l-117.555,0l46.962,-62.23c-25.949,0.098 -50.857,0.203 -74.316,0.302l-65.378,61.929l-83.975,0l0,16.656l805.852,0l0,-40.026l-58.164,-39.714c-29.125,-0.095 -61.977,-0.139 -97.315,-0.15l66.749,63.233zm88.73,-86.341l-50.503,-26.652l-80.754,0l73.093,49.91c21.612,0.076 41.168,0.175 58.164,0.303l0,-23.561zm-267.241,-82.743l-41.833,0l16.196,21.451l48.281,0l-22.644,-21.451zm0.505,56.091l-26.142,-34.64l-58.991,0l12.394,34.64l72.739,0zm-184.315,-56.091l-50.482,0l-16.195,21.451l58.993,0l7.684,-21.451zm-20.08,56.091l-72.74,0l-38.312,50.763c29.855,-0.117 61.074,-0.237 92.991,-0.347l18.061,-50.416zm-94.879,-34.64l-36.573,34.64l58.712,0l26.143,-34.64l-48.282,0zm409.23,-21.451l-56.628,0l31.409,21.451l65.862,0l-40.643,-21.451zm-25.218,21.451l-62.598,0l36.572,34.64l76.767,0l-50.741,-34.64zm-51.137,-34.923l-48.324,0l14.219,13.472l53.833,0l-19.728,-13.472zm-34.106,13.472l-41.833,0l16.196,21.451l48.281,0l-22.644,-21.451zm-25.636,21.451l-58.991,0l12.394,34.64l72.739,0l-26.142,-34.64zm-208.656,-21.451l-16.195,21.451l58.993,0l7.684,-21.451l-50.482,0zm-42.337,56.091l-38.312,50.763c29.855,-0.117 61.074,-0.237 92.991,-0.347l18.061,-50.416l-72.74,0zm-22.14,-34.64l-36.573,34.64l58.712,0l26.143,-34.64l-48.282,0zm-113.337,34.64l-75.434,51.504c28.01,-0.127 61.333,-0.288 98.282,-0.439l53.916,-51.064l-76.764,0l0,-0.001zm-126.505,51.754l0,34.632l51.072,-34.882c-19.919,0.099 -37.142,0.184 -51.072,0.25zm649.072,-107.845l-56.628,0l31.409,21.451l65.862,0l-40.643,-21.451zm-25.218,21.451l-62.598,0l36.572,34.64l76.767,0l-50.741,-34.64zm-110.879,0l-58.991,0l12.394,34.64l72.739,0l-26.142,-34.64zm-208.656,-21.451l-16.195,21.451l58.993,0l7.684,-21.451l-50.482,0zm-64.477,21.451l-36.573,34.64l58.712,0l26.143,-34.64l-48.282,0zm-31.186,-21.451l-31.412,21.451l62.598,0l22.645,-21.451l-53.831,0zm440.416,0l-56.628,0l31.409,21.451l65.862,0l-40.643,-21.451zm-25.218,21.451l-62.598,0l36.572,34.64l76.767,0l-50.741,-34.64zm-85.243,-21.451l-41.833,0l16.196,21.451l48.281,0l-22.644,-21.451zm-25.636,21.451l-58.991,0l12.394,34.64l72.739,0l-26.142,-34.64zm-208.656,-21.451l-16.195,21.451l58.993,0l7.684,-21.451l-50.482,0zm-64.477,21.451l-36.573,34.64l58.712,0l26.143,-34.64l-48.282,0zm-31.186,-21.451l-31.412,21.451l62.598,0l22.645,-21.451l-53.831,0zm329.955,0l-41.833,0l16.196,21.451l48.281,0l-22.644,-21.451zm-25.636,21.451l-58.991,0l12.394,34.64l72.739,0l-26.142,-34.64zm-208.656,-21.451l-16.195,21.451l58.993,0l7.684,-21.451l-50.482,0zm-64.477,21.451l-36.573,34.64l58.712,0l26.143,-34.64l-48.282,0zm-31.186,-21.451l-31.412,21.451l62.598,0l22.645,-21.451l-53.831,0zm329.955,0l-41.833,0l16.196,21.451l48.281,0l-22.644,-21.451zm-25.636,21.451l-58.991,0l12.394,34.64l72.739,0l-26.142,-34.64zm-26.358,-34.923l-45.138,0l4.819,13.472l50.48,0l-10.161,-13.472zm-182.298,13.472l-16.195,21.451l58.993,0l7.684,-21.451l-50.482,0zm-64.477,21.451l-36.573,34.64l58.712,0l26.143,-34.64l-48.282,0zm-31.186,-21.451l-31.412,21.451l62.598,0l22.645,-21.451l-53.831,0zm304.319,21.451l-58.991,0l12.394,34.64l72.739,0l-26.142,-34.64zm-208.656,-21.451l-16.195,21.451l58.993,0l7.684,-21.451l-50.482,0zm-64.477,21.451l-36.573,34.64l58.712,0l26.143,-34.64l-48.282,0zm-31.186,-21.451l-31.412,21.451l62.598,0l22.645,-21.451l-53.831,0zm95.663,0l-16.195,21.451l58.993,0l7.684,-21.451l-50.482,0zm-64.477,21.451l-36.573,34.64l58.712,0l26.143,-34.64l-48.282,0zm-31.186,-21.451l-31.412,21.451l62.598,0l22.645,-21.451l-53.831,0zm95.663,0l-16.195,21.451l58.993,0l7.684,-21.451l-50.482,0zm-64.477,21.451l-36.573,34.64l58.712,0l26.143,-34.64l-48.282,0zm-31.186,-21.451l-31.412,21.451l62.598,0l22.645,-21.451l-53.831,0zm31.186,21.451l-36.573,34.64l58.712,0l26.143,-34.64l-48.282,0zm-31.186,-21.451l-31.412,21.451l62.598,0l22.645,-21.451l-53.831,0z" id="svg_10"/>
    </g>
   </g>
   <polygon fill="#FDC18F" points="403.886,520.579 403.886,537.235 290.844,537.235 296.623,520.579  " id="svg_11"/>
   <polygon fill="#FDC18F" points="509.194,520.579 514.496,537.235 639.442,537.235 626.751,520.579  " id="svg_12"/>
   <polygon fill="#FDC18F" points="719.482,520.579 735.341,537.235 805.723,537.235 805.723,520.579  " id="svg_13"/>
   <polygon fill="#FDC18F" points="179.067,520.579 167.613,537.235 70.141,537.235 86.334,520.579  " id="svg_14"/>
  </g>
  <path fill="#FDC18F" d="m83.396,157.773" id="svg_15"/>
  <g id="svg_16">
   <polygon fill="#D0CDC6" points="805.723,44.969 677.618,104.011 133.873,104.011 -0.129,44.1 -0.129,0 805.723,0  " id="svg_17"/>
   <path opacity="0.4" fill="#D0CDC6" d="m707.356,0l-50.706,41.518l149.072,0l0,-41.518l-98.366,0zm-301.681,41.518l0,30.902l213.23,0l37.745,-30.902l-250.975,0zm-202.191,49.92l-97.509,0l27.894,12.573l85.142,0l-15.527,-12.573zm-23.488,-19.018l23.488,19.018l202.191,0l0,-19.018l-225.679,0zm438.909,0l-23.23,19.018l109.222,0l41.259,-19.018l-127.251,0zm-213.23,31.59l174.646,0l15.354,-12.573l-190,0l0,12.573zm0,-104.01l-315.118,0l38.261,30.987l0.107,0.086l0.667,0.548c0.43,0.365 0.859,0.72 1.278,1.063c0.624,0.516 1.226,1.021 1.806,1.504c0.966,0.806 1.869,1.568 2.686,2.268c0.483,0.397 0.924,0.772 1.342,1.139c0.313,0.269 0.602,0.516 0.881,0.762c0.258,0.227 0.506,0.441 0.742,0.645c0.935,0.828 1.644,1.462 2.073,1.902c0.065,0.054 0.108,0.107 0.151,0.15c0.085,0.086 0.161,0.172 0.214,0.237c0.043,0.042 0.075,0.085 0.097,0.128c0.021,0.032 0.031,0.054 0.031,0.075c0,0.011 -0.01,0.022 -0.031,0.022l-140.991,0.077l0,2.507l63.91,28.32l116.215,0l-38.166,-30.902l263.845,0l0,-41.518z" id="svg_18"/>
   <g id="svg_19">
    <g id="svg_20">
     <polygon fill="#AA9993" points="343.19,56.856 343.19,60.835 232.225,60.835 227.854,56.856    " id="svg_21"/>
     <polygon fill="#F1F2EA" points="343.19,60.835 343.19,63.253 234.584,63.253 232.225,60.835    " id="svg_22"/>
    </g>
    <g id="svg_23">
     <polygon fill="#AA9993" points="343.19,82.624 343.19,85.073 253.662,85.073 250.136,82.624    " id="svg_24"/>
     <polygon fill="#F1F2EA" points="343.19,85.073 343.19,86.561 255.565,86.561 253.662,85.073    " id="svg_25"/>
    </g>
    <g id="svg_26">
     <polygon fill="#AA9993" points="343.19,17.363 343.19,23.973 176.716,23.973 170.16,17.363    " id="svg_27"/>
     <polygon fill="#F1F2EA" points="343.19,23.973 343.19,27.989 180.255,27.989 176.716,23.973    " id="svg_28"/>
    </g>
    <g id="svg_29">
     <polygon fill="#AA9993" points="455.58,56.856 455.58,60.835 566.546,60.835 570.918,56.856    " id="svg_30"/>
     <polygon fill="#F1F2EA" points="455.58,60.835 455.58,63.253 564.188,63.253 566.546,60.835    " id="svg_31"/>
    </g>
    <g id="svg_32">
     <polygon fill="#AA9993" points="455.58,82.624 455.58,85.073 545.108,85.073 548.636,82.624    " id="svg_33"/>
     <polygon fill="#F1F2EA" points="455.58,85.073 455.58,86.561 543.207,86.561 545.108,85.073    " id="svg_34"/>
    </g>
    <g id="svg_35">
     <polygon fill="#AA9993" points="455.58,17.363 455.58,23.973 622.054,23.973 628.61,17.363    " id="svg_36"/>
     <polygon fill="#F1F2EA" points="455.58,23.973 455.58,27.989 618.517,27.989 622.054,23.973    " id="svg_37"/>
    </g>
   </g>
   <g id="svg_38">
    <defs>
     <polygon id="SVGID_1_" points="805.723,44.969 677.618,104.011 133.873,104.011 0.95,44.1 0.95,0 805.723,0    "/>
    </defs>
    <clipPath id="SVGID_2_">
     <use xlink:href="#SVGID_1_" id="svg_39"/>
    </clipPath>
    <g clip-path="url(#SVGID_2_)" id="svg_40">
     <g id="svg_41">
      <rect x="-0.619" y="71.733" fill="#E5E7DA" width="807.223" height="1.075" id="svg_42"/>
     </g>
     <g id="svg_43">
      <rect x="-0.619" y="90.751" fill="#E5E7DA" width="807.223" height="1.075" id="svg_44"/>
     </g>
     <g id="svg_45">
      <rect x="405.139" y="-22.048" fill="#E5E7DA" width="1.075" height="126.058" id="svg_46"/>
     </g>
     <g id="svg_47">
      <rect x="649.199" y="-42.932" transform="matrix(0.6325,0.7745,-0.7745,0.6325,275.1696,-485.9573) " fill="#E5E7DA" width="1.073" height="179.909" id="svg_48"/>
     </g>
     <g id="svg_49">
      <path fill="#E5E7DA" d="m218.857,104.427l-77.216,-62.519l-159.287,0l0,-1.075l157.375,0c-1.587,-1.505 -5.75,-5.028 -11.47,-9.76l-56.417,-45.677c-0.001,-0.001 -0.002,-0.002 -0.003,-0.003l-0.003,-0.002l0.673,-0.836c0,0 0.001,0.001 0.001,0.001l0.001,0c0.432,0.345 17.602,14.083 34.505,27.779c10.16,8.231 17.334,14.096 22.395,18.29l12.609,10.208l680.5,0l0,1.075l-679.172,0l76.186,61.684l-0.677,0.835z" id="svg_50"/>
     </g>
    </g>
   </g>
  </g>
  <g id="svg_51">
   <polygon fill="#F1F2EA" points="-0.129,44.1 133.707,104.011 133.707,338.458 0.784,397.351  " id="svg_52"/>
   <g id="svg_53">
    <polygon fill="#E5B1CE" points="-0.129,322.286 133.705,287.215 133.707,338.458 -0.129,397.833   " id="svg_54"/>
    <polyline fill="#F2D3E6" points="133.705,294.592 -0.129,332.828 -0.129,329.73 133.705,291.107   " id="svg_55"/>
   </g>
   <g id="svg_56">
    <g id="svg_57">
     <path fill="#D0CDC6" d="m83.396,157.773c0,0 1.252,118.659 0,117.408c-1.253,-1.254 -12.927,-4.389 -12.927,-4.389l0,-107.354l12.927,-5.665z" id="svg_58"/>
     <polygon fill="#BCB3AD" points="70.469,163.438 -0.129,152.405 -0.129,140.791 83.396,157.773    " id="svg_59"/>
     <polygon fill="#E5E7DA" points="69.979,270.792 -0.129,280.574 -0.129,290.666 108.369,272.755    " id="svg_60"/>
     <polygon fill="#BFB5A5" points="108.369,272.755 108.369,277.008 -0.129,297.302 -0.129,290.666    " id="svg_61"/>
    </g>
    <g id="svg_62">
     <polygon opacity="0.27" fill="#6FCCD3" points="64.43,169.104 64.251,214.828 -0.129,215.699 -0.129,160.668    " id="svg_63"/>
     <path fill="#F3896F" d="m-0.129,152.405l0,8.264l33.013,4.313l0,101.443l-33.013,4.367l0,9.782l70.598,-9.782l0,-107.354l-70.598,-11.033zm64.193,109.897l-26.336,3.48l0,-100.167l26.702,3.489l-0.366,93.198z" id="svg_64"/>
    </g>
   </g>
   <polygon fill="#917E7E" points="-0.129,81.962 133.707,124.474 133.873,104.011 -0.129,44.1  " id="svg_65"/>
  </g>
  <g id="svg_66">
   <polygon fill="#F1F2EA" points="671.888,104.011 671.888,338.458 805.723,397.351 805.723,44.1  " id="svg_67"/>
   <g id="svg_68">
    <polygon fill="#E5B1CE" points="806.21,322.286 671.888,287.215 671.888,338.458 805.723,397.351   " id="svg_69"/>
    <polyline fill="#F2D3E6" points="671.888,291.107 805.666,328.446 805.723,331.556 671.888,294.629   " id="svg_70"/>
   </g>
   <g id="svg_71">
    <g id="svg_72">
     <polygon fill="#FD8E70" points="732.708,179.346 732.708,159.225 797.998,145.054 797.998,168.921    " id="svg_73"/>
     <polygon opacity="0.37" fill="#FD8E70" points="797.998,149.993 737.959,162.201 737.959,178.507 732.708,179.346      732.708,159.225 797.998,145.054    " id="svg_74"/>
    </g>
    <g id="svg_75">
     <path fill="#FAB3A1" d="m732.646,184.377l0,180.903l4.559,2.063l0,-178.006l52.446,-4.96l0,205.905l8.629,3.764c0,0 0.755,-218.59 0.207,-218.59c-0.549,0 -65.841,8.921 -65.841,8.921z" id="svg_76"/>
     <g id="svg_77">
      <polygon fill="#FD8E70" points="737.205,189.337 737.205,367.344 789.651,390.282 789.651,184.377     " id="svg_78"/>
      <polygon opacity="0.37" fill="#FD8E70" points="737.205,367.344 738.746,368.01 738.746,192.264 789.651,188.3 789.651,184.377       737.205,189.337     " id="svg_79"/>
     </g>
     <g id="svg_80">
      <polygon fill="none" stroke="#FAB3A1" stroke-miterlimit="10" points="743.413,283.892 743.413,357.358 781.022,372.045       781.022,290.255     " id="svg_81"/>
      <ellipse fill="#FAB3A1" cx="776.228" cy="283.489" rx="2.141" ry="3.842" id="svg_82"/>
      <g id="svg_83">
       <polygon fill="#FAB3A1" points="742.477,206.895 742.477,272.919 782.029,278.954 782.029,204.7      " id="svg_84"/>
       <g id="svg_85">
        <polygon fill="#6DCEEE" points="745.449,208.815 745.449,270.542 778.369,275.663 778.369,207.992       " id="svg_86"/>
        <polygon fill="#6DCEEE" points="749.097,208.724 749.097,271.107 745.449,270.542 745.449,208.815       " id="svg_87"/>
        <path opacity="0.7" fill="#B4E4F2" d="m745.449,227.444l33.013,-17.897l0,18.884c-0.763,0 -33.013,16.963 -33.013,16.963l0,-17.95z" id="svg_88"/>
        <polygon opacity="0.7" fill="#B4E4F2" points="778.369,233.414 745.449,249.461 745.449,257.373 778.369,241.827       " id="svg_89"/>
       </g>
      </g>
     </g>
    </g>
   </g>
   <polygon fill="#917E7E" points="805.723,81.982 671.888,124.474 671.888,104.011 805.723,44.1  " id="svg_90"/>
  </g>
  <rect x="133.705" y="104.01" fill="#826F6A" width="538.183" height="20.463" id="svg_91"/>
  <polygon fill="none" points="134.468,337.783 1.548,396.674 1.231,537.235 806.486,537.235 806.486,396.674 672.651,337.783 " id="svg_92"/>
  <g id="svg_93">
   <g id="svg_94">
    <polygon fill="#D39BC8" points="671.888,287.215 133.705,287.215 133.705,338.458 671.888,338.458 671.888,338.458   " id="svg_95"/>
    <polygon fill="#F2D3E6" points="671.888,294.629 133.705,294.592 133.705,291.107 671.888,291.107   " id="svg_96"/>
   </g>
   <g id="svg_97">
    <g id="svg_98">
     <g id="svg_99">
      <g id="svg_100">
       <g id="svg_101">
        <ellipse fill="#657BAC" cx="407.163" cy="149.39" rx="18.288" ry="15.189" id="svg_102"/>
       </g>
      </g>
      <g id="svg_103">
       <g id="svg_104">
        <ellipse fill="#D6E2BF" cx="407.164" cy="149.39" rx="14.104" ry="12.872" id="svg_105"/>
       </g>
      </g>
     </g>
     <g id="svg_106">
      <circle fill="#657BAC" cx="407.701" cy="140.328" r="1.344" id="svg_107"/>
      <circle fill="#657BAC" cx="407.701" cy="158.977" r="1.344" id="svg_108"/>
     </g>
     <g id="svg_109">
      <circle fill="#657BAC" cx="418.371" cy="149.653" r="1.344" id="svg_110"/>
      <circle fill="#657BAC" cx="397.035" cy="149.653" r="1.344" id="svg_111"/>
     </g>
    </g>
    <g id="svg_112">
     <g id="svg_113">
      <rect x="289.431" y="174.307" fill="#EDB2A4" width="241.045" height="94.233" id="svg_114"/>
      <rect x="294.597" y="179.598" fill="#486D4B" width="230.712" height="83.652" id="svg_115"/>
     </g>
     <polygon opacity="0.23" fill="#486D4B" points="525.309,179.598 294.597,263.25 525.309,263.25    " id="svg_116"/>
    </g>
    <g id="svg_117">
     <polygon fill="#B5A39C" points="593.207,100.338 611.301,100.338 622.616,94.903 600.75,94.303    " id="svg_118"/>
     <rect x="604.861" y="97.604" fill="#6B5654" width="4.231" height="38.856" id="svg_119"/>
     <rect x="566.761" y="133.779" fill="#B5A39C" width="82.301" height="41.887" id="svg_120"/>
     <rect x="569.152" y="136.461" fill="#4F403C" width="77.517" height="36.524" id="svg_121"/>
     <polygon fill="#826F6A" points="646.669,136.461 569.152,172.985 569.152,136.461    " id="svg_122"/>
    </g>
    <g id="svg_123">
     <g id="svg_124">
      <rect x="228.041" y="178.894" fill="#7FC27F" width="40.601" height="69.676" id="svg_125"/>
      <rect x="231.547" y="184.56" fill="#D6E2BF" width="32.264" height="32.264" id="svg_126"/>
      <g id="svg_127">
       <path fill="#936482" d="m250.414,208.465c-1.115,-0.392 -2.324,-0.541 -3.468,-0.881c-1.123,-0.335 -2.258,-0.689 -3.434,-0.765c-0.769,-0.05 -1.535,-0.004 -2.287,0.119c1.853,-2.69 3.309,-5.704 4.146,-8.797c0.553,-2.045 0.339,-4.678 -1.794,-5.74c-2.027,-1.009 -4.334,0.431 -5.465,2.126c-0.644,0.965 0.783,2.046 1.645,1.443c0.879,-0.616 2.351,-2.367 3.283,-0.834c0.819,1.347 -0.088,3.459 -0.553,4.797c-1.167,3.368 -3.196,6.364 -5.671,8.91c-0.904,0.928 0.42,2.407 1.475,1.695c1.659,-1.118 3.63,-1.575 5.61,-1.243c2.172,0.364 4.364,1.78 6.571,0.941c0.784,-0.298 0.706,-1.501 -0.058,-1.771z" id="svg_128"/>
       <path fill="#936482" d="m255.735,204.846c-0.274,-1.224 -0.493,-2.46 -0.653,-3.705c-0.312,-2.427 -0.371,-4.888 -0.315,-7.331c0.027,-1.174 -1.737,-1.439 -1.851,-0.222c-0.244,2.621 -0.153,5.234 0.169,7.845c0.16,1.294 0.381,2.58 0.664,3.852c0.272,1.225 0.531,2.554 1.054,3.7c0.465,1.019 2.056,0.495 1.853,-0.602c-0.22,-1.19 -0.654,-2.351 -0.921,-3.537z" id="svg_129"/>
      </g>
      <g id="svg_130">
       <path fill="#936482" d="m261.957,227.16c-2.093,0.879 -3.34,-2.161 -5.08,-2.521c-0.978,-0.201 -1.708,0.16 -2.441,0.768c-0.404,0.336 -0.742,0.906 -1.183,1.188c-2.631,1.672 -2.843,-0.158 -3.988,-1.25c-0.586,-0.556 -1.189,-0.891 -2.034,-0.831c-1.779,0.126 -2.703,2.352 -4.349,2.489c-1.289,0.109 -2.448,-1.834 -3.623,-2.29c-2.174,-0.847 -4.172,0.491 -4.94,2.508c-0.217,0.57 0.7,0.817 0.916,0.251c0.913,-2.397 3.09,-2.463 4.735,-1.044c0.248,0.216 0.744,0.969 1.039,1.161c0.697,0.458 1.313,0.538 2.125,0.329c1.271,-0.325 1.924,-1.543 3.075,-2.021c2.605,-1.082 2.605,1.116 4.201,1.97c1.938,1.037 2.903,-0.385 4.304,-1.404c1.212,-0.883 2.346,-0.849 3.476,0.13c0.391,0.341 0.707,0.752 1.142,1.044c0.949,0.639 1.797,0.893 2.88,0.438c0.553,-0.232 0.309,-1.151 -0.255,-0.915z" id="svg_131"/>
       <path fill="#936482" d="m260.817,233.324c-1.667,0.624 -2.736,-1.15 -4.25,-1.268c-1.012,-0.077 -1.855,0.448 -2.674,0.975c-0.542,0.347 -1.128,0.905 -1.765,1.037c-1.368,0.282 -1.845,-0.392 -2.75,-0.976c-0.814,-0.524 -1.534,-0.919 -2.521,-0.77c-1.132,0.172 -1.861,1.162 -2.884,1.522c-2.261,0.793 -2.91,-1.005 -4.529,-1.669c-1.853,-0.76 -3.797,0.009 -4.953,1.539c-0.368,0.486 0.455,0.959 0.819,0.478c1.822,-2.413 3.793,-0.981 5.638,0.299c0.618,0.43 1.209,0.746 1.985,0.707c0.844,-0.043 1.57,-0.571 2.258,-0.999c1.04,-0.647 1.627,-1.266 3.201,-0.628c0.543,0.22 0.991,0.771 1.506,1.051c1.733,0.944 2.952,0.201 4.472,-0.773c1.641,-1.052 2.826,-0.46 4.359,0.234c0.836,0.379 1.464,0.481 2.338,0.155c0.569,-0.211 0.324,-1.13 -0.25,-0.914z" id="svg_132"/>
       <path fill="#936482" d="m259.036,240.139c-0.965,1.252 -2.959,-0.333 -4.074,-0.517c-0.93,-0.153 -1.501,0.148 -2.316,0.534c-1.729,0.817 -2.683,0.732 -4.445,0.086c-0.707,-0.26 -1.354,-0.491 -2.115,-0.42c-0.932,0.086 -1.571,0.802 -2.427,0.968c-1.262,0.246 -2.492,-0.179 -3.323,-1.007c-0.253,-0.251 -0.503,-0.5 -0.808,-0.695c-1.445,-0.919 -3.197,-0.72 -4.586,0.159c-0.515,0.325 -0.04,1.146 0.479,0.819c1.278,-0.808 2.729,-0.92 4.024,0.149c0.502,0.415 0.801,1.025 1.33,1.418c0.446,0.331 0.884,0.54 1.449,0.558c0.912,0.028 1.693,-0.509 2.479,-0.879c1.818,-0.858 2.954,-0.1 4.657,0.436c0.822,0.259 1.505,0.303 2.325,0.023c2.046,-0.695 1.777,-1.439 4.688,-0.593c1.376,0.4 2.494,0.722 3.484,-0.563c0.37,-0.481 -0.453,-0.954 -0.821,-0.476z" id="svg_133"/>
      </g>
     </g>
     <g id="svg_134">
      <rect x="188.479" y="181.544" fill="#FFCC44" width="25.239" height="36.943" id="svg_135"/>
      <rect x="190.765" y="184.104" fill="#7FCB81" width="20.667" height="31.823" id="svg_136"/>
      <g id="svg_137">
       <path fill="#486D4B" d="m207.888,191.388c-0.812,1.081 -2.532,1.375 -3.836,0.786c-0.333,-0.151 -0.668,-0.739 -1.006,-0.963c-0.508,-0.337 -0.987,-0.563 -1.611,-0.606c-2.142,-0.15 -5.526,3.659 -7.072,1.254c-0.373,-0.58 -1.304,-0.041 -0.928,0.543c0.573,0.89 1.358,1.386 2.46,1.377c2.729,-0.02 4.056,-3.369 7.167,-1.087c0.978,0.717 1.498,1.641 2.885,1.472c1.296,-0.159 2.145,-1.269 2.87,-2.233c0.415,-0.555 -0.519,-1.09 -0.929,-0.543z" id="svg_138"/>
       <path fill="#486D4B" d="m208.851,199.754c-1.511,1.619 -3.267,-0.116 -4.941,0.2c-2.241,0.422 -2.634,2.325 -5.773,0.464c-1.967,-1.166 -3.193,-1.949 -4.959,0.151c-0.441,0.527 0.315,1.29 0.761,0.76c2.237,-2.663 3.529,0.473 5.228,1.232c1.143,0.511 1.735,0.268 2.804,-0.208c1.331,-0.593 2.776,-1.125 4.268,-0.842c0.446,0.084 0.615,0.324 1.16,0.323c0.967,-0.001 1.6,-0.665 2.212,-1.321c0.471,-0.503 -0.288,-1.266 -0.76,-0.759z" id="svg_139"/>
       <path fill="#486D4B" d="m209.076,208.771c-1.283,-0.315 -2.03,-1.252 -3.411,-1.14c-2.773,0.226 -3.956,3.123 -6.992,0.774c-2.065,-1.6 -3.787,-1.338 -5.368,0.892c-0.401,0.565 0.53,1.103 0.927,0.542c2.398,-3.383 4.418,1.113 6.809,0.939c1.148,-0.084 1.981,-0.881 2.975,-1.341c2.372,-1.098 2.904,-0.091 4.776,0.37c0.671,0.165 0.957,-0.871 0.284,-1.036z" id="svg_140"/>
      </g>
     </g>
     <g id="svg_141">
      <rect x="153.264" y="181.544" fill="#FFCC44" width="25.239" height="36.943" id="svg_142"/>
      <rect x="155.55" y="184.104" fill="#7FCB81" width="20.666" height="31.823" id="svg_143"/>
      <g id="svg_144">
       <path fill="#486D4B" d="m172.672,191.388c-0.813,1.081 -2.534,1.375 -3.837,0.786c-0.333,-0.151 -0.669,-0.739 -1.005,-0.963c-0.508,-0.337 -0.987,-0.563 -1.611,-0.606c-2.144,-0.15 -5.525,3.659 -7.073,1.254c-0.373,-0.58 -1.303,-0.041 -0.928,0.543c0.573,0.89 1.359,1.386 2.461,1.377c2.728,-0.02 4.056,-3.369 7.166,-1.087c0.979,0.717 1.498,1.641 2.885,1.472c1.296,-0.159 2.145,-1.269 2.869,-2.233c0.416,-0.555 -0.516,-1.09 -0.927,-0.543z" id="svg_145"/>
       <path fill="#486D4B" d="m173.635,199.754c-1.509,1.619 -3.266,-0.116 -4.94,0.2c-2.241,0.422 -2.635,2.325 -5.774,0.464c-1.967,-1.166 -3.192,-1.949 -4.958,0.151c-0.442,0.527 0.315,1.29 0.76,0.76c2.238,-2.663 3.529,0.473 5.229,1.232c1.144,0.511 1.736,0.268 2.804,-0.208c1.33,-0.593 2.775,-1.125 4.268,-0.842c0.445,0.084 0.616,0.324 1.159,0.323c0.968,-0.001 1.6,-0.665 2.213,-1.321c0.47,-0.503 -0.289,-1.266 -0.761,-0.759z" id="svg_146"/>
       <path fill="#486D4B" d="m173.861,208.771c-1.283,-0.315 -2.031,-1.252 -3.413,-1.14c-2.772,0.226 -3.955,3.123 -6.991,0.774c-2.065,-1.6 -3.787,-1.338 -5.369,0.892c-0.401,0.565 0.531,1.103 0.928,0.542c2.397,-3.383 4.417,1.113 6.809,0.939c1.147,-0.084 1.981,-0.881 2.974,-1.341c2.372,-1.098 2.905,-0.091 4.776,0.37c0.672,0.165 0.959,-0.871 0.286,-1.036z" id="svg_147"/>
      </g>
     </g>
    </g>
   </g>
  </g>
  <g id="svg_148">
   <defs>
    <rect id="SVGID_3_" x="0.95" y="0" width="804.772" height="537.235"/>
   </defs>
   <clipPath id="SVGID_4_">
    <use xlink:href="#SVGID_3_" id="svg_149"/>
   </clipPath>
   <g clip-path="url(#SVGID_4_)" id="svg_150">
    <g id="svg_151">
     <rect x="141.923" y="249.987" fill="#F8966F" width="54.883" height="91.58" id="svg_152"/>
     <path fill="#E2725E" d="m141.923,249.987c1.463,-0.732 25.382,-3.153 25.382,-3.153l42.583,0.543l-13.082,2.61l-54.883,0z" id="svg_153"/>
     <polygon fill="#C95047" points="209.888,247.377 209.888,334.616 196.806,341.567 196.806,249.987    " id="svg_154"/>
     <rect x="146.694" y="255.243" fill="#DF7452" width="44.625" height="41.7" id="svg_155"/>
     <rect x="146.694" y="300.783" fill="#DF7452" width="44.625" height="35.677" id="svg_156"/>
     <ellipse fill="#C95047" cx="184.828" cy="276.732" rx="0.823" ry="3.565" id="svg_157"/>
     <ellipse fill="#C95047" cx="185.696" cy="317.06" rx="0.869" ry="3.474" id="svg_158"/>
    </g>
    <g id="svg_159">
     <polygon opacity="0.39" fill="#E48267" points="263.952,377.208 242.564,396.615 123.832,396.615 155.25,377.208    " id="svg_160"/>
     <g id="svg_161">
      <g id="svg_162">
       <polygon fill="#A33E36" points="156.685,367.679 126.102,381.62 126.102,348.059 155.433,348.059      " id="svg_163"/>
       <rect x="158.121" y="327.667" fill="#932C2C" width="105.831" height="40.002" id="svg_164"/>
       <rect x="155.25" y="329.594" fill="#D35F59" width="2.871" height="47.614" id="svg_165"/>
       <path fill="#E48267" d="m120.868,343.214c0,-0.279 34.565,-15.547 34.565,-15.547l108.519,0l-19.479,15.547l-123.605,0z" id="svg_166"/>
       <polygon fill="#D35F59" points="263.952,327.667 263.952,332.238 244.834,348.059 121.562,348.059 121.562,343.214        243.86,343.214      " id="svg_167"/>
       <rect x="240.293" y="348.059" fill="#D35F59" width="4.541" height="48.557" id="svg_168"/>
       <rect x="261.082" y="329.594" fill="#D35F59" width="2.87" height="47.614" id="svg_169"/>
       <rect x="121.562" y="348.059" fill="#D35F59" width="4.54" height="48.557" id="svg_170"/>
       <polygon fill="#D35F59" points="263.952,332.559 263.952,365.891 244.834,381.62 244.834,348.059      " id="svg_171"/>
      </g>
      <g id="svg_172">
       <g id="svg_173">
        <g id="svg_174">
         <rect x="203.814" y="358.08" fill="#5B4848" width="1.743" height="27.445" id="svg_175"/>
         <rect x="172.406" y="358.08" fill="#5B4848" width="1.742" height="27.445" id="svg_176"/>
         <path fill="#F8966F" d="m197.266,340.771l-31.561,0c-2.266,0 -4.102,-1.838 -4.102,-4.104l0,-12.03c0,-2.267 1.836,-4.104 4.102,-4.104l31.561,0c2.266,0 4.102,1.837 4.102,4.104l0,12.03c0,2.266 -1.837,4.104 -4.102,4.104z" id="svg_177"/>
         <polygon fill="#F8966F" points="197.728,364.968 161.66,364.968 171.731,357.612 207.073,357.612        " id="svg_178"/>
        </g>
        <polygon fill="#C95047" points="194.821,331.87 198.863,340.771 194.821,340.771       " id="svg_179"/>
        <polyline fill="#C95047" points="168.121,331.87 172.406,340.771 168.121,340.771 168.137,332.841       " id="svg_180"/>
       </g>
       <polygon fill="#C95047" points="207.073,357.612 207.073,360.337 198.064,368.085 161.66,368.036 161.66,364.968        197.728,364.968      " id="svg_181"/>
       <rect x="165.873" y="331.87" fill="#726160" width="2.248" height="64.745" id="svg_182"/>
       <rect x="192.572" y="331.87" fill="#726160" width="2.249" height="64.745" id="svg_183"/>
      </g>
     </g>
    </g>
    <polygon opacity="0.39" fill="#E48267" points="176.818,472.238 148.653,502.732 65.246,518.323 19.002,518.656 -0.129,486.89     -0.129,473.397 23.967,473.121 116.137,473.754   " id="svg_184"/>
    <g id="svg_185">
     <g id="svg_186">
      <polygon fill="#A33E36" points="17.456,456.576 -27.796,477.594 -28.153,427.774 15.389,427.462     " id="svg_187"/>
      <rect x="19.373" y="396.597" transform="matrix(1,-0.0072,0.0072,1,-3.0605,0.7147) " fill="#932C2C" width="157.113" height="59.383" id="svg_188"/>
      <rect x="15.183" y="400.036" transform="matrix(-1,0.0071,-0.0071,-1,37.7294,873.285) " fill="#D35F59" width="4.263" height="73.348" id="svg_189"/>
      <path fill="#E48267" d="m-35.976,420.635c-0.003,-0.411 51.147,-23.445 51.147,-23.445l161.1,-1.156l-28.752,23.288l-183.495,1.313z" id="svg_190"/>
      <polygon fill="#D35F59" points="176.271,396.033 176.319,402.822 148.106,426.51 -34.895,427.822 -34.946,420.629       146.608,419.326     " id="svg_191"/>
      <rect x="141.639" y="426.532" transform="matrix(-1,0.0068,-0.0068,-1,293.1794,928.29) " fill="#D35F59" width="6.741" height="76.225" id="svg_192"/>
      <rect x="172.292" y="398.907" transform="matrix(-1,0.0071,-0.0071,-1,351.9357,869.9114) " fill="#D35F59" width="4.263" height="73.348" id="svg_193"/>
      <rect x="-34.621" y="427.798" transform="matrix(-1,0.0072,-0.0072,-1,-59.125,932.0325) " fill="#D35F59" width="6.74" height="76.223" id="svg_194"/>
      <polygon fill="#D35F59" points="174.424,404.414 176.678,452.777 148.463,476.331 148.106,426.51     " id="svg_195"/>
     </g>
     <g id="svg_196">
      <g id="svg_197">
       <g id="svg_198">
        <rect x="84.408" y="451.429" transform="matrix(-1,0.0081,-0.0081,-1,175.6751,949.6843) " fill="#5B4848" width="3.02" height="47.537" id="svg_199"/>
        <rect x="30.008" y="451.813" transform="matrix(-1,0.0074,-0.0074,-1,66.5729,950.9213) " fill="#5B4848" width="3.019" height="47.542" id="svg_200"/>
        <path fill="#F8966F" d="m75.684,421.516l-60.671,0.436c-2.265,0.018 -4.115,-1.808 -4.132,-4.072l-0.192,-26.847c-0.016,-2.265 1.807,-4.116 4.071,-4.131l60.673,-0.435c2.265,-0.015 4.115,1.807 4.131,4.072l0.192,26.846c0.017,2.265 -1.806,4.116 -4.072,4.131z" id="svg_201"/>
        <polygon fill="#F8966F" points="73.783,463.445 11.31,463.893 28.664,451.029 89.878,450.591       " id="svg_202"/>
       </g>
       <polygon fill="#C95047" points="68.335,406.152 75.448,421.518 68.446,421.568      " id="svg_203"/>
       <polyline fill="#C95047" points="22.091,406.483 29.623,421.845 22.202,421.898 22.13,408.166      " id="svg_204"/>
      </g>
      <polygon fill="#C95047" points="89.878,450.591 89.912,455.306 74.403,468.842 11.348,469.206 11.31,463.893 73.783,463.445           " id="svg_205"/>
      <rect x="18.6" y="406.497" transform="matrix(1,-0.007,0.007,1,-3.2476,0.1557) " fill="#726160" width="3.894" height="112.147" id="svg_206"/>
      <rect x="64.844" y="406.164" transform="matrix(1,-0.007,0.007,1,-3.2445,0.4805) " fill="#726160" width="3.894" height="112.147" id="svg_207"/>
     </g>
    </g>
    <g id="svg_208">
     <polygon opacity="0.39" fill="#E48267" points="340.557,377.96 332.033,398.105 480.221,396.615 471.688,377.96    " id="svg_209"/>
     <g id="svg_210">
      <polygon fill="#932C2C" points="340.397,327.667 340.397,367.679 331.85,382.077 331.85,341.845     " id="svg_211"/>
      <polygon fill="#932C2C" points="471.732,327.667 471.732,367.679 480.221,382.077 480.221,341.845     " id="svg_212"/>
      <polygon fill="#932C2C" points="471.732,367.679 340.397,367.679 340.397,328.747 471.732,327.667     " id="svg_213"/>
      <polygon fill="#E48267" points="340.397,327.667 331.85,341.845 480.221,341.845 471.732,327.667     " id="svg_214"/>
      <rect x="331.85" y="341.567" fill="#D35F59" width="148.371" height="3.292" id="svg_215"/>
      <rect x="332.033" y="344.859" fill="#D35F59" width="3.538" height="51.756" id="svg_216"/>
      <rect x="476.684" y="344.859" fill="#D35F59" width="3.537" height="51.756" id="svg_217"/>
      <rect x="340.557" y="345.04" fill="#D35F59" width="2.168" height="32.92" id="svg_218"/>
      <rect x="469.52" y="345.04" fill="#D35F59" width="2.168" height="32.92" id="svg_219"/>
     </g>
     <g id="svg_220">
      <g id="svg_221">
       <g id="svg_222">
        <rect x="416.533" y="363.422" fill="#5B4848" width="1.743" height="22.104" id="svg_223"/>
        <rect x="395.868" y="363.422" fill="#5B4848" width="1.743" height="22.104" id="svg_224"/>
        <path fill="#F8966F" d="m423.741,340.771l-31.56,0c-2.266,0 -4.104,-1.838 -4.104,-4.104l0,-12.03c0,-2.267 1.837,-4.104 4.104,-4.104l31.56,0c2.267,0 4.103,1.837 4.103,4.104l0,12.03c0,2.266 -1.836,4.104 -4.103,4.104z" id="svg_225"/>
        <polygon fill="#F8966F" points="385.57,370.739 428.847,370.739 425.337,361.501 387.942,361.501       " id="svg_226"/>
        <rect x="385.57" y="370.739" fill="#C95047" width="43.277" height="2.285" id="svg_227"/>
       </g>
       <polygon fill="#C95047" points="421.295,331.87 425.337,340.771 421.295,340.771      " id="svg_228"/>
       <polyline fill="#C95047" points="394.597,331.87 398.882,340.771 394.597,340.771 394.613,332.841      " id="svg_229"/>
      </g>
      <rect x="392.55" y="331.87" fill="#726160" width="2.249" height="64.745" id="svg_230"/>
      <rect x="419.249" y="331.87" fill="#726160" width="2.249" height="64.745" id="svg_231"/>
     </g>
    </g>
    <g id="svg_232">
     <polyline opacity="0.39" fill="#E48267" points="501.384,344.996 508.241,356.838 617.99,356.838 605.923,348.161      502.933,347.665    " id="svg_233"/>
     <g id="svg_234">
      <g id="svg_235">
       <g id="svg_236">
        <g id="svg_237">
         <g id="svg_238">
          <rect x="559.744" y="316.181" fill="#5B4848" width="1.46" height="18.522" id="svg_239"/>
          <rect x="542.428" y="316.181" fill="#5B4848" width="1.462" height="18.522" id="svg_240"/>
          <polygon fill="#F8966F" points="533.8,322.313 570.062,322.313 567.122,314.573 535.786,314.573         " id="svg_241"/>
          <rect x="533.8" y="322.313" fill="#C95047" width="36.262" height="1.915" id="svg_242"/>
         </g>
         <polygon fill="#C95047" points="563.735,289.744 567.122,297.201 563.735,297.201        " id="svg_243"/>
         <polyline fill="#C95047" points="541.364,289.744 544.953,297.201 541.364,297.201 541.377,290.558        " id="svg_244"/>
        </g>
        <rect x="539.646" y="289.744" fill="#726160" width="1.886" height="54.252" id="svg_245"/>
        <rect x="562.019" y="289.744" fill="#726160" width="1.886" height="54.252" id="svg_246"/>
       </g>
       <path fill="#F8966F" d="m565.12,297.201l-25.116,0c-2.265,0 -4.104,-1.837 -4.104,-4.103l0,-8.75c0,-2.267 1.839,-4.104 4.104,-4.104l25.116,0c2.265,0 4.101,1.838 4.101,4.104l0,8.75c0,2.266 -1.836,4.103 -4.101,4.103z" id="svg_247"/>
      </g>
      <g id="svg_248">
       <g id="svg_249">
        <rect x="505.982" y="345.04" fill="#D35F59" width="2.259" height="11.798" id="svg_250"/>
        <rect x="499.125" y="333.199" fill="#D35F59" width="2.259" height="11.797" id="svg_251"/>
        <rect x="617.99" y="345.04" fill="#D35F59" width="2.258" height="11.798" id="svg_252"/>
       </g>
       <polygon fill="#E48267" points="621.551,312.122 603.911,304.44 497.908,304.44 506.15,312.122      " id="svg_253"/>
       <rect x="505.982" y="312.122" fill="#D35F59" width="114.619" height="4.482" id="svg_254"/>
       <rect x="505.982" y="316.604" fill="#BF4B4B" width="114.619" height="28.436" id="svg_255"/>
       <polygon fill="#D35F59" points="505.982,312.122 497.908,304.44 497.908,308.829 505.982,316.604      " id="svg_256"/>
       <polygon fill="#D35F59" points="499.125,310.002 499.125,336.46 505.982,345.04 505.982,316.604      " id="svg_257"/>
      </g>
     </g>
    </g>
    <g id="svg_258">
     <path opacity="0.39" fill="#E48267" d="m549.059,377.208l19.119,19.407l123.271,0c0,0 -30.815,-19.407 -33.689,-19.407c-2.871,0 -108.701,0 -108.701,0z" id="svg_259"/>
     <g id="svg_260">
      <polygon fill="#A33E36" points="656.325,367.679 686.91,381.62 686.91,348.059 657.578,348.059     " id="svg_261"/>
      <rect x="549.059" y="327.667" fill="#932C2C" width="105.83" height="40.002" id="svg_262"/>
      <rect x="654.889" y="329.594" fill="#D35F59" width="2.871" height="47.614" id="svg_263"/>
      <path fill="#E48267" d="m692.144,343.214c0,-0.279 -34.565,-15.547 -34.565,-15.547l-108.52,0l19.478,15.547l123.607,0z" id="svg_264"/>
      <polygon fill="#D35F59" points="549.059,327.667 549.059,332.238 568.178,348.059 691.449,348.059 691.449,343.214       569.15,343.214     " id="svg_265"/>
      <rect x="568.178" y="348.059" fill="#D35F59" width="4.541" height="48.557" id="svg_266"/>
      <rect x="549.059" y="329.594" fill="#D35F59" width="2.872" height="47.614" id="svg_267"/>
      <rect x="686.91" y="348.059" fill="#D35F59" width="4.539" height="48.557" id="svg_268"/>
      <polygon fill="#D35F59" points="549.059,332.559 549.059,365.891 568.178,381.62 568.178,348.059     " id="svg_269"/>
     </g>
     <g id="svg_270">
      <g id="svg_271">
       <g id="svg_272">
        <rect x="605.757" y="358.08" fill="#5B4848" width="1.744" height="27.445" id="svg_273"/>
        <rect x="637.166" y="358.08" fill="#5B4848" width="1.742" height="27.445" id="svg_274"/>
        <path fill="#F8966F" d="m614.049,340.771l31.561,0c2.265,0 4.102,-1.838 4.102,-4.104l0,-12.03c0,-2.267 -1.837,-4.104 -4.102,-4.104l-31.561,0c-2.265,0 -4.102,1.837 -4.102,4.104l0,12.03c0,2.266 1.837,4.104 4.102,4.104z" id="svg_275"/>
        <polygon fill="#F8966F" points="613.587,364.968 649.655,364.968 639.583,357.612 604.24,357.612       " id="svg_276"/>
       </g>
       <polygon fill="#C95047" points="616.494,331.87 612.452,340.771 616.494,340.771      " id="svg_277"/>
       <polyline fill="#C95047" points="643.193,331.87 638.908,340.771 643.193,340.771 643.177,332.841      " id="svg_278"/>
      </g>
      <polygon fill="#C95047" points="604.24,357.612 604.24,360.337 613.249,368.085 649.655,368.036 649.655,364.968       613.587,364.968     " id="svg_279"/>
      <rect x="643.193" y="331.87" fill="#726160" width="2.246" height="64.745" id="svg_280"/>
      <rect x="616.494" y="331.87" fill="#726160" width="2.249" height="64.745" id="svg_281"/>
     </g>
    </g>
    <polygon opacity="0.39" fill="#E48267" points="633.659,476.711 662.042,504.385 744.599,511.186 792.107,511.186     805.723,504.156 805.723,485.554 795.033,476.711   " id="svg_282"/>
    <g id="svg_283">
     <g id="svg_284">
      <polygon fill="#A33E36" points="792.902,456.015 838.306,476.711 838.306,426.886 794.763,426.886     " id="svg_285"/>
      <rect x="633.659" y="396.615" fill="#932C2C" width="157.11" height="59.382" id="svg_286"/>
      <rect x="790.77" y="399.475" fill="#D35F59" width="4.264" height="77.236" id="svg_287"/>
      <path fill="#E48267" d="m846.076,419.692c0,-0.412 -51.313,-23.077 -51.313,-23.077l-161.104,0l28.915,23.077l183.502,0z" id="svg_288"/>
      <polygon fill="#D35F59" points="633.659,396.615 633.659,403.401 662.042,426.886 845.047,426.886 845.047,419.692       663.486,419.692     " id="svg_289"/>
      <rect x="662.042" y="426.886" fill="#D35F59" width="6.74" height="77.499" id="svg_290"/>
      <rect x="633.659" y="399.475" fill="#D35F59" width="4.261" height="77.236" id="svg_291"/>
      <rect x="838.306" y="426.886" fill="#D35F59" width="6.741" height="77.499" id="svg_292"/>
      <polygon fill="#D35F59" points="633.659,403.876 633.659,453.362 662.042,476.711 662.042,426.886     " id="svg_293"/>
     </g>
     <g id="svg_294">
      <g id="svg_295">
       <g id="svg_296">
        <rect x="726.98" y="447.939" fill="#5B4848" width="2.861" height="45.047" id="svg_297"/>
        <rect x="778.527" y="447.939" fill="#5B4848" width="2.858" height="45.047" id="svg_298"/>
        <path fill="#F8966F" d="m737.959,419.532l57.056,0c2.267,0 4.102,-1.835 4.102,-4.101l0,-25.006c0,-2.265 -1.835,-4.102 -4.102,-4.102l-57.056,0c-2.267,0 -4.104,1.837 -4.104,4.102l0,25.006c0,2.266 1.837,4.101 4.104,4.101z" id="svg_299"/>
        <polygon fill="#F8966F" points="739.829,459.246 799.023,459.246 782.496,447.179 724.493,447.179       " id="svg_300"/>
       </g>
       <polygon fill="#C95047" points="744.599,404.927 737.967,419.532 744.599,419.532      " id="svg_301"/>
       <polyline fill="#C95047" points="788.418,404.927 781.386,419.532 788.418,419.532 788.393,406.52      " id="svg_302"/>
      </g>
      <polygon fill="#C95047" points="724.493,447.179 724.493,451.643 739.278,464.364 799.023,464.282 799.023,459.246       739.829,459.246     " id="svg_303"/>
      <rect x="788.418" y="404.927" fill="#726160" width="3.689" height="106.259" id="svg_304"/>
      <rect x="744.599" y="404.927" fill="#726160" width="3.693" height="106.259" id="svg_305"/>
     </g>
    </g>
    <g id="svg_306">
     <polygon opacity="0.39" fill="#E48267" points="287.799,504.385 382.912,514.901 430.892,514.901 527.469,504.385      513.498,478.939 302.403,478.939    " id="svg_307"/>
     <g id="svg_308">
      <polygon fill="#932C2C" points="298.594,396.615 298.594,462.107 284.604,485.674 284.604,419.821     " id="svg_309"/>
      <polygon fill="#932C2C" points="513.569,396.615 513.569,462.107 527.469,485.674 527.469,419.821     " id="svg_310"/>
      <polygon fill="#932C2C" points="513.569,462.107 298.594,462.107 298.594,398.38 513.569,396.615     " id="svg_311"/>
      <polygon fill="#E48267" points="298.594,396.615 284.604,419.821 527.469,419.821 513.569,396.615     " id="svg_312"/>
      <rect x="284.604" y="419.365" fill="#D35F59" width="242.864" height="5.39" id="svg_313"/>
      <rect x="284.904" y="424.755" fill="#D35F59" width="5.792" height="79.63" id="svg_314"/>
      <rect x="521.677" y="424.755" fill="#D35F59" width="5.792" height="79.63" id="svg_315"/>
      <rect x="298.856" y="425.054" fill="#D35F59" width="3.547" height="53.886" id="svg_316"/>
      <rect x="509.949" y="425.054" fill="#D35F59" width="3.549" height="53.886" id="svg_317"/>
     </g>
     <g id="svg_318">
      <g id="svg_319">
       <g id="svg_320">
        <rect x="422.666" y="459.885" fill="#5B4848" width="2.886" height="36.635" id="svg_321"/>
        <rect x="388.413" y="459.885" fill="#5B4848" width="2.888" height="36.635" id="svg_322"/>
        <path fill="#F8966F" d="m437.31,422.336l-57.707,0c-2.265,0 -4.101,-1.838 -4.101,-4.103l0,-25.336c0,-2.265 1.836,-4.102 4.101,-4.102l57.707,0c2.265,0 4.103,1.837 4.103,4.102l0,25.336c-0.001,2.265 -1.839,4.103 -4.103,4.103z" id="svg_323"/>
        <polygon fill="#F8966F" points="371.343,472.008 443.071,472.008 437.262,456.7 375.273,456.7       " id="svg_324"/>
        <rect x="371.343" y="472.008" fill="#C95047" width="71.728" height="3.79" id="svg_325"/>
       </g>
       <polygon fill="#C95047" points="430.559,407.584 437.262,422.336 430.559,422.336      " id="svg_326"/>
       <polyline fill="#C95047" points="386.306,407.584 393.408,422.336 386.306,422.336 386.333,409.192      " id="svg_327"/>
      </g>
      <rect x="382.912" y="407.584" fill="#726160" width="3.728" height="107.317" id="svg_328"/>
      <rect x="427.166" y="407.584" fill="#726160" width="3.726" height="107.317" id="svg_329"/>
     </g>
    </g>
   </g>
  </g>
 </g>
</svg>