<svg xmlns="http://www.w3.org/2000/svg" xmlns:xlink="http://www.w3.org/1999/xlink" version="1.1" id="Layer_1" x="0px" y="0px" viewBox="0 0 800 450" style="enable-background:new 0 0 800 450;" xml:space="preserve"><g><title>background</title><rect fill="#fff" id="canvas_background" height="450" width="800" y="-1" x="-1"/></g>
	<style>
		.st0 {
			fill: #81D4F3;
		}

		.st1 {
			clip-path: url(#SVGID_2_);
		}

		.st2 {
			fill: #DF7D26;
		}

		.st3 {
			fill: #FCEE23;
		}

		.st4 {
			fill: #424143;
		}

		.st5 {
			opacity: 0.2;
			fill: #231F20;
		}

		.st6 {
			fill: #7787A0;
		}

		.st7 {
			fill: #3F5473;
		}

		.st8 {
			fill: #FFFFFF;
		}

		.st9 {
			fill: #343638;
		}

		.st10 {
			fill: #DDDDDD;
		}

		.st11 {
			fill: #231F20;
		}

		.st12 {
			fill: #A7233A;
		}

		.st13 {
			fill: #19A54A;
		}

		.st14 {
			fill: #919191;
		}

		.st15 {
			fill: #595A5C;
		}

		.st16 {
			fill: #158F45;
		}

		.dolars {
			animation: aaa 10s linear infinite;

			transform-box: fill-box;
			transform-origin: top;
		}

		@keyframes aaa {
			0% {
				transform: translate(0px, -379px);
			}


			50% {
				transform: translate(0px, 220px);
			}

			100% {
				transform: translate(0px, -379px);
			}
		}

		.dolars&gt;.st1&gt;g:nth-child(1),
		.dolars&gt;.st1&gt;g:nth-child(3),
		.dolars&gt;.st1&gt;g:nth-child(5),
		.dolars&gt;.st1&gt;g:nth-child(7),
		.dolars&gt;.st1&gt;g:nth-child(9),
		.dolars&gt;.st1&gt;g:nth-child(11) {
			animation: aaax 2s linear infinite;
			transform-origin: center;
			transform-box: fill-box;
		}

		@keyframes aaax {
			0% {
				transform: rotate(0turn);
			}




			100% {
				transform: rotate(1turn);
			}
		}

		.dolars&gt;.st1&gt;g:nth-child(2),
		.dolars&gt;.st1&gt;g:nth-child(4),
		.dolars&gt;.st1&gt;g:nth-child(6),
		.dolars&gt;.st1&gt;g:nth-child(8),
		.dolars&gt;.st1&gt;g:nth-child(10) {
			animation: aaaxa 2s linear infinite;
			transform-origin: center;
			transform-box: fill-box;
		}

		@keyframes aaaxa {
			0% {
				transform: rotate(1turn);
			}




			100% {
				transform: rotate(0turn);
			}
		}

		#SVGID_1_ {
			animation: aab 10s linear infinite;

			transform-box: fill-box;
			transform-origin: top;
		}

		@keyframes aab {
			0% {
				height: 408.43px;
			}

			30% {
				height: 408.43px;
			}

			45% {
				height: 0;
			}

			70% {
				height: 408.43px;
			}

			100% {
				height: 408.43px;
			}
		}

		.mone {
			animation: aac 10s linear infinite;
			transform-box: fill-box;
			transform-origin: bottom;
		}

		@keyframes aac {
			0% {
				transform: rotate(15deg);
			}

			20% {
				transform: rotate(0deg);
			}

			100% {
				transform: rotate(0deg);
			}
		}

		.mhandmoon {
			animation: aad 10s linear infinite;
		}

		@keyframes aad {
			0% {
				transform: translate(20px, -5px);
			}

			20% {
				transform: translate(0px, 0px);
			}

			100% {
				transform: translate(0px, 0px);
			}
		}

		.eyeb {
			animation: aae 10s linear infinite;
		}
	.eyeba {
			animation: aaea 10s linear infinite;
		}
		@keyframes aae {
			0% {
				    visibility: visible; 
			}

			24% {
			     visibility: visible;
			}

			25% {
			    visibility: hidden;
			}
		59% {
			    visibility: hidden;
			}
			60% {
		    visibility: visible;
			}

			100% {
		    visibility: visible;
			}
		}
@keyframes aaea {
			0% {
				    visibility: hidden; 
			}

			24% {
			     visibility: hidden;
			}

			25% {
			    visibility: visible;
			}
		59% {
			    visibility:visible;
			}
			60% {
		    visibility: hidden;
			}

			100% {
		    visibility: hidden;
			}
		}
		/* Mady By 
		Name:  Freelancer Tajul Rasel
		Web and Graphic Desiner. (Map design and coding)
		Web: https://freelancertajulrasel.com/
		WhatsApp : +8801821010080
		Mail: freelancertajulrasel@gmail.com
		fiverr: https://fiverr.com/systemgraphic
		*/
		.mouthone {
			animation: aaf 10s linear infinite;
		}
		.mouthonea {
			animation: aafa 10s linear infinite;
		}
		@keyframes aaf {
			0% {
				visibility:visible;
			}

			24% {
				visibility:visible;
			}

			25% {
				visibility:hidden;
			}59% {
				visibility:hidden;
			}

			60% {
				visibility:visible;
			}

			100% {
				visibility:visible;
			}
		}
@keyframes aafa {
			0% {
				visibility:hidden;
			}

			24% {
				visibility:hidden;
			}

			25% {
				visibility:visible;
			}59% {
				visibility:visible;
			}

			60% {
				visibility:hidden;
			}

			100% {
				visibility:hidden;
			}
		}
		.leg {
			animation: aag 10s linear infinite;
		}
	.lega {
			animation: aaga 10s linear infinite;
		}
		@keyframes aag {
			0% {
				visibility:visible;
			}

			24% {
				visibility:visible;
			}

			25% {
				visibility:hidden;
			}
			59% {
				visibility:hidden;
			}
			60% {
				visibility:visible;
			}
			100% {
				visibility:visible;
			}
		}
@keyframes aaga {
			0% {
				visibility:hidden;
			}

			24% {
				visibility:hidden;
			}

			25% {
				visibility:visible;
			}
			59% {
				visibility:visible;
			}
			60% {
				visibility:hidden;
			}
			100% {
				visibility:hidden;
			}
		}
		.mthand {
			animation: aah 10s linear infinite;
			transform-box: fill-box;
			transform-origin: top;
		}

		@keyframes aah {
			0% {}

			30% {
				transform: rotate(0deg);
			}

			40% {
				transform: rotate(-10deg);
			}

			50% {
				transform: rotate(0deg);
			}

			100% {
				transform: rotate(0deg);
			}
		}

		.signala,
		.signalb {
			animation: aai 10s linear infinite;
		}

		@keyframes aai {
			0% {
				opacity: 0;
			}

			25% {
				opacity: 0;
			}



			30% {
				opacity: 1;
			}

			100% {
				opacity: 1;
			}
		}

		 
		/* Mady By 
		Name:  Freelancer Tajul Rasel
		Web and Graphic Desiner. (Map design and coding)
		Web: https://freelancertajulrasel.com/
		WhatsApp : +8801821010080
		Mail: freelancertajulrasel@gmail.com
		fiverr: https://fiverr.com/systemgraphic
		*/
		.mahand {
			animation: aaj 10s linear infinite;
			transform-box: fill-box;
			transform-origin: top;
		}

		@keyframes aaj {
			0% {
				transform: rotate(0deg);
			}

			10% {
				transform: rotate(0deg);
			}

			20% {
				transform: rotate(-10deg);
			}

			30% {
				transform: rotate(0deg);
			}

			40% {
				transform: rotate(-10deg);
			}

			50% {
				transform: rotate(0deg);
			}

			100% {
				transform: rotate(0deg);
			}
		}

		.moblietow {
			animation: aak 10s linear infinite;
			transform-box: fill-box;
			transform-origin: bottom;
		}

		@keyframes aak {
			0% {
				transform: rotate(-15deg);
			}

			30% {
				transform: rotate(-15deg);
			}

			50% {
				transform: rotate(0deg);
			}

			100% {
				transform: rotate(0deg);
			}
		}

		.moonhandround {
			animation: aal 10s linear infinite;
		}

		@keyframes aal {
			0% {
				transform: translate(-38px, 0px);
			}

			30% {
				transform: translate(-38px, 0px);
			}

			50% {
				transform: translate(0px, 0px);
			}

			100% {
				transform: translate(0px, 0px);
			}
		}

		.eyetwom {
			animation: aan 10s linear infinite;
		}
.eyetwoma {
			animation: aana 10s linear infinite;
		}
@keyframes aana {
			0% {
			visibility:hidden;
			}
53% {
			visibility:hidden;
			}
			54% {
				visibility:visible;
			}

			55% {
				visibility:visible;
			}
79% {
				visibility:visible;
			}
			80% {
				visibility:hidden;
			}

			100% {
				visibility:hidden;
			}
		
		}
		@keyframes aan {
			0% {
			visibility:visible;
			}
53% {
			visibility:visible;
			}
			54% {
				visibility:hidden;
			}

			55% {
				visibility:hidden;
			}
79% {
				visibility:hidden;
			}
			80% {
				visibility:visible;
			}

			100% {
				visibility:visible;
			}
		
		}

		.mouthtwo {
			animation: aao 10s linear infinite;
		}
	.mouthtwoa {
			animation: aaoa 10s linear infinite;
		}
		@keyframes aao {
			0% {
			visibility:visible;
			}

			54% {
				visibility:hidden;
			}

			55% {
				visibility:hidden;
			}
79% {
				visibility:hidden;
			}
			80% {
				visibility:visible;
			}

			100% {
				visibility:visible;
			}
		}
		@keyframes aaoa {
			0% {
			visibility:hidden;
			}

			54% {
				visibility:visible;
			}

			55% {
				visibility:visible;
			}
79% {
				visibility:visible;
			}
			80% {
				visibility:hidden;
			}

			100% {
				visibility:hidden;
			}
		}
	</style>
	<g id="background">
		<rect y="0.07" class="st0" width="800.01" height="449.92"/>
	</g>
	<g id="potdoller">
		<g class="dolars">
			<defs>
				<rect id="SVGID_1_" x="329.24" y="7.04" width="124.28" height="408.43"/>
			</defs>
			<clipPath id="SVGID_2_">
				<use xlink:href="#SVGID_1_" style="overflow:visible;"/>
			</clipPath>
			<g class="st1">
				<g>
					<path class="st2" d="M436.24,169.76c0,9.22-7.48,16.7-16.7,16.7c-9.22,0-16.7-7.48-16.7-16.7c0-9.22,7.48-16.7,16.7-16.7      C428.76,153.06,436.24,160.54,436.24,169.76z"/>
					<path class="st3" d="M433.82,168.87c0,9.22-7.48,16.7-16.7,16.7c-9.22,0-16.7-7.48-16.7-16.7c0-9.22,7.48-16.7,16.7-16.7      C426.34,152.17,433.82,159.64,433.82,168.87z"/>
					<path class="st2" d="M422.47,168.7c-1.12-0.9-2.65-1.49-4.6-1.78l-0.03-5.15c0.89,0.11,1.57,0.43,2.06,0.97      c0.16,0.18,0.32,0.43,0.48,0.74l3.38-0.02c-0.47-1.29-1.21-2.34-2.23-3.13c-0.72-0.56-1.56-0.98-2.52-1.24      c-0.52-0.14-0.92-0.22-1.19-0.21l-0.01-1.87l-2.23,0.01l0.01,1.8c-1.7,0.01-3.15,0.52-4.36,1.52c-1.29,1.07-1.92,2.46-1.91,4.16      c0.01,1.16,0.28,2.14,0.81,2.95c0.53,0.81,1.41,1.52,2.64,2.11c0.55,0.27,1.11,0.46,1.7,0.57c0.59,0.11,0.99,0.2,1.19,0.28      l0.04,5.75c-0.94,0.01-1.78-0.33-2.51-1.01c-0.5-0.46-0.89-1.03-1.17-1.71l-3.44,0.02c0.41,1.66,1.23,2.98,2.47,3.96      c0.89,0.71,1.93,1.2,3.12,1.48c0.61,0.14,1.13,0.21,1.55,0.21l0.02,2.69l2.23-0.01l-0.02-2.69c1.74-0.01,3.24-0.52,4.48-1.52      c1.39-1.12,2.08-2.62,2.06-4.5C424.47,171.24,423.8,169.78,422.47,168.7z M415.63,166.57c-0.76-0.17-1.32-0.35-1.67-0.55      c-0.73-0.43-1.09-1.06-1.1-1.9c0-0.77,0.27-1.38,0.82-1.83c0.5-0.4,1.14-0.6,1.92-0.61L415.63,166.57z M420.25,175.25      c-0.55,0.51-1.32,0.85-2.33,1.01l-0.03-5.56c0.65,0,1.3,0.2,1.96,0.62c0.81,0.5,1.21,1.15,1.22,1.93      C421.07,174.08,420.8,174.74,420.25,175.25z"/>
				</g>
				<g>
					<path class="st2" d="M432.57,271.95c0,9.22-7.48,16.7-16.7,16.7c-9.22,0-16.7-7.48-16.7-16.7c0-9.22,7.48-16.7,16.7-16.7      C425.09,255.25,432.57,262.73,432.57,271.95z"/>
					<path class="st3" d="M430.16,271.06c0,9.22-7.48,16.7-16.7,16.7c-9.22,0-16.7-7.48-16.7-16.7c0-9.22,7.48-16.7,16.7-16.7      C422.68,254.36,430.16,261.84,430.16,271.06z"/>
					<path class="st2" d="M418.8,270.89c-1.12-0.9-2.65-1.49-4.6-1.78l-0.03-5.15c0.89,0.11,1.57,0.43,2.06,0.97      c0.16,0.18,0.32,0.43,0.48,0.74l3.38-0.02c-0.47-1.29-1.21-2.34-2.23-3.13c-0.72-0.56-1.56-0.98-2.53-1.24      c-0.52-0.14-0.92-0.22-1.19-0.21l-0.01-1.87l-2.23,0.01l0.01,1.8c-1.7,0.01-3.15,0.52-4.36,1.52c-1.29,1.07-1.92,2.46-1.91,4.16      c0.01,1.16,0.28,2.14,0.81,2.95c0.53,0.81,1.41,1.52,2.64,2.11c0.55,0.27,1.11,0.46,1.7,0.57c0.59,0.11,0.99,0.2,1.19,0.28      l0.04,5.75c-0.94,0.01-1.78-0.33-2.5-1.01c-0.5-0.46-0.89-1.03-1.17-1.71l-3.44,0.02c0.41,1.65,1.23,2.98,2.47,3.96      c0.89,0.71,1.93,1.2,3.12,1.48c0.61,0.14,1.13,0.21,1.55,0.21l0.02,2.69l2.23-0.01l-0.02-2.69c1.74-0.01,3.24-0.52,4.48-1.52      c1.39-1.12,2.08-2.62,2.06-4.5C420.81,273.44,420.13,271.97,418.8,270.89z M411.97,268.76c-0.76-0.17-1.32-0.35-1.67-0.55      c-0.73-0.43-1.09-1.06-1.1-1.9c-0.01-0.77,0.27-1.38,0.82-1.83c0.5-0.4,1.14-0.6,1.92-0.61L411.97,268.76z M416.59,277.45      c-0.55,0.51-1.32,0.85-2.33,1.01l-0.03-5.56c0.65,0,1.3,0.2,1.96,0.62c0.81,0.5,1.21,1.15,1.22,1.93      C417.4,276.27,417.13,276.94,416.59,277.45z"/>
				</g>
				<g>
					<path class="st2" d="M399.3,302.11c0,9.22-7.48,16.7-16.7,16.7c-9.22,0-16.7-7.48-16.7-16.7c0-9.22,7.48-16.7,16.7-16.7      C391.82,285.4,399.3,292.88,399.3,302.11z"/>
					<path class="st3" d="M396.89,301.21c0,9.22-7.48,16.7-16.7,16.7c-9.22,0-16.7-7.48-16.7-16.7c0-9.22,7.48-16.7,16.7-16.7      C389.41,284.51,396.89,291.99,396.89,301.21z"/>
					<path class="st2" d="M385.53,301.04c-1.12-0.9-2.65-1.49-4.6-1.78l-0.03-5.15c0.89,0.11,1.57,0.43,2.06,0.97      c0.16,0.18,0.32,0.43,0.48,0.74l3.38-0.02c-0.47-1.29-1.21-2.34-2.23-3.13c-0.72-0.56-1.56-0.98-2.52-1.24      c-0.52-0.14-0.92-0.22-1.19-0.21l-0.01-1.87l-2.23,0.01l0.01,1.8c-1.7,0.01-3.15,0.52-4.36,1.52c-1.29,1.07-1.92,2.46-1.91,4.16      c0.01,1.16,0.28,2.14,0.81,2.95c0.53,0.81,1.41,1.52,2.64,2.11c0.55,0.27,1.11,0.46,1.7,0.57c0.59,0.11,0.99,0.2,1.19,0.28      l0.04,5.75c-0.94,0.01-1.78-0.33-2.51-1.01c-0.5-0.46-0.89-1.03-1.17-1.71l-3.44,0.02c0.41,1.65,1.23,2.98,2.47,3.96      c0.89,0.71,1.93,1.2,3.12,1.48c0.61,0.14,1.13,0.21,1.55,0.21l0.02,2.69l2.23-0.01l-0.02-2.69c1.74-0.01,3.24-0.52,4.48-1.52      c1.39-1.12,2.08-2.62,2.06-4.5C387.54,303.59,386.87,302.12,385.53,301.04z M378.7,298.91c-0.76-0.17-1.32-0.35-1.67-0.55      c-0.73-0.43-1.09-1.06-1.1-1.9c0-0.77,0.27-1.38,0.82-1.83c0.5-0.4,1.14-0.6,1.92-0.61L378.7,298.91z M383.32,307.6      c-0.55,0.51-1.32,0.85-2.33,1.01l-0.03-5.56c0.65,0,1.3,0.2,1.96,0.62c0.81,0.5,1.21,1.15,1.22,1.93      C384.14,306.42,383.87,307.09,383.32,307.6z"/>
				</g>
				<g>
					<path class="st2" d="M433.16,327.83c0,9.22-7.48,16.7-16.7,16.7c-9.22,0-16.7-7.48-16.7-16.7c0-9.22,7.48-16.7,16.7-16.7      C425.69,311.13,433.16,318.61,433.16,327.83z"/>
					<path class="st3" d="M430.75,326.94c0,9.22-7.48,16.7-16.7,16.7c-9.22,0-16.7-7.48-16.7-16.7c0-9.22,7.48-16.7,16.7-16.7      C423.27,310.24,430.75,317.72,430.75,326.94z"/>
					<path class="st2" d="M419.4,326.77c-1.12-0.9-2.65-1.49-4.6-1.78l-0.03-5.15c0.89,0.11,1.57,0.43,2.06,0.97      c0.16,0.18,0.32,0.43,0.48,0.74l3.38-0.02c-0.47-1.29-1.21-2.34-2.23-3.13c-0.72-0.56-1.56-0.98-2.52-1.24      c-0.52-0.14-0.92-0.22-1.19-0.21l-0.01-1.87l-2.23,0.01l0.01,1.8c-1.7,0.01-3.15,0.52-4.36,1.52c-1.29,1.07-1.92,2.46-1.91,4.16      c0.01,1.16,0.28,2.14,0.81,2.95c0.53,0.81,1.41,1.52,2.64,2.11c0.55,0.27,1.11,0.46,1.7,0.57c0.59,0.11,0.99,0.2,1.19,0.28      l0.04,5.75c-0.94,0.01-1.78-0.33-2.51-1.01c-0.5-0.46-0.89-1.03-1.17-1.71l-3.44,0.02c0.41,1.66,1.23,2.98,2.47,3.96      c0.89,0.71,1.93,1.2,3.12,1.48c0.61,0.14,1.13,0.21,1.55,0.21l0.02,2.69l2.23-0.01l-0.02-2.69c1.74-0.01,3.24-0.52,4.48-1.53      c1.39-1.12,2.08-2.62,2.06-4.5C421.4,329.32,420.73,327.85,419.4,326.77z M412.56,324.64c-0.76-0.17-1.32-0.35-1.67-0.55      c-0.73-0.42-1.09-1.06-1.1-1.9c0-0.77,0.27-1.38,0.82-1.83c0.5-0.4,1.14-0.6,1.92-0.61L412.56,324.64z M417.18,333.33      c-0.55,0.51-1.32,0.85-2.33,1.01l-0.03-5.56c0.65,0,1.3,0.2,1.96,0.62c0.81,0.5,1.21,1.15,1.22,1.93      C418,332.15,417.73,332.82,417.18,333.33z"/>
				</g>
				<g>
					<path class="st2" d="M401.08,354.68c0,9.22-7.48,16.7-16.7,16.7c-9.22,0-16.7-7.48-16.7-16.7c0-9.22,7.48-16.7,16.7-16.7      C393.6,337.98,401.08,345.46,401.08,354.68z"/>
					<path class="st3" d="M398.67,353.79c0,9.22-7.48,16.7-16.7,16.7c-9.22,0-16.7-7.48-16.7-16.7c0-9.22,7.48-16.7,16.7-16.7      C391.19,337.08,398.67,344.56,398.67,353.79z"/>
					<path class="st2" d="M387.31,353.62c-1.12-0.9-2.65-1.49-4.6-1.78l-0.03-5.15c0.89,0.11,1.57,0.43,2.06,0.97      c0.16,0.18,0.32,0.43,0.48,0.74l3.38-0.02c-0.47-1.29-1.21-2.34-2.23-3.13c-0.72-0.56-1.56-0.98-2.52-1.24      c-0.52-0.14-0.92-0.22-1.19-0.21l-0.01-1.87l-2.23,0.01l0.01,1.8c-1.7,0.01-3.15,0.52-4.36,1.52c-1.29,1.07-1.92,2.46-1.91,4.16      c0.01,1.16,0.28,2.14,0.81,2.95c0.53,0.81,1.41,1.52,2.64,2.11c0.55,0.27,1.11,0.46,1.7,0.57c0.59,0.11,0.99,0.2,1.19,0.28      l0.04,5.75c-0.94,0.01-1.78-0.33-2.51-1.01c-0.5-0.46-0.89-1.03-1.17-1.71l-3.44,0.02c0.41,1.66,1.23,2.98,2.47,3.96      c0.89,0.71,1.93,1.2,3.12,1.48c0.61,0.14,1.13,0.21,1.55,0.21l0.02,2.69l2.23-0.01l-0.02-2.69c1.74-0.01,3.24-0.52,4.48-1.53      c1.39-1.12,2.08-2.62,2.06-4.5C389.32,356.16,388.64,354.7,387.31,353.62z M380.48,351.49c-0.76-0.17-1.32-0.35-1.67-0.55      c-0.73-0.43-1.09-1.06-1.1-1.9c0-0.77,0.27-1.38,0.82-1.83c0.5-0.4,1.14-0.6,1.92-0.61L380.48,351.49z M385.1,360.17      c-0.55,0.51-1.32,0.85-2.33,1.01l-0.03-5.56c0.65,0,1.3,0.2,1.96,0.62c0.81,0.5,1.21,1.15,1.22,1.93      C385.91,359,385.64,359.66,385.1,360.17z"/>
				</g>
				<g>
					<path class="st2" d="M391.9,252.18c0,9.22-7.48,16.7-16.7,16.7c-9.22,0-16.7-7.48-16.7-16.7c0-9.22,7.48-16.7,16.7-16.7      C384.43,235.48,391.9,242.96,391.9,252.18z"/>
					<path class="st3" d="M389.49,251.29c0,9.22-7.48,16.7-16.7,16.7c-9.22,0-16.7-7.48-16.7-16.7c0-9.22,7.48-16.7,16.7-16.7      C382.01,234.59,389.49,242.06,389.49,251.29z"/>
					<path class="st2" d="M378.13,251.12c-1.12-0.9-2.65-1.49-4.6-1.78l-0.03-5.15c0.89,0.11,1.57,0.43,2.06,0.97      c0.16,0.18,0.32,0.43,0.48,0.74l3.38-0.02c-0.47-1.29-1.21-2.34-2.23-3.13c-0.72-0.56-1.56-0.98-2.53-1.24      c-0.52-0.14-0.92-0.22-1.19-0.21l-0.01-1.87l-2.23,0.01l0.01,1.8c-1.7,0.01-3.15,0.52-4.36,1.52c-1.29,1.07-1.92,2.46-1.91,4.16      c0.01,1.16,0.28,2.14,0.81,2.95c0.53,0.81,1.41,1.52,2.64,2.11c0.55,0.27,1.11,0.46,1.7,0.57c0.59,0.11,0.99,0.2,1.19,0.28      l0.04,5.75c-0.94,0.01-1.78-0.33-2.51-1.01c-0.5-0.46-0.89-1.03-1.17-1.71l-3.44,0.02c0.41,1.66,1.23,2.98,2.47,3.96      c0.89,0.71,1.93,1.2,3.12,1.48c0.61,0.14,1.13,0.21,1.55,0.21l0.02,2.69l2.23-0.01l-0.02-2.69c1.74-0.01,3.24-0.52,4.48-1.53      c1.39-1.12,2.08-2.62,2.06-4.5C380.14,253.66,379.47,252.2,378.13,251.12z M371.3,248.99c-0.76-0.17-1.32-0.35-1.67-0.55      c-0.73-0.43-1.09-1.06-1.1-1.9c-0.01-0.77,0.27-1.38,0.82-1.83c0.5-0.4,1.14-0.6,1.92-0.61L371.3,248.99z M375.92,257.67      c-0.55,0.51-1.32,0.85-2.33,1.01l-0.03-5.56c0.65,0,1.3,0.2,1.96,0.62c0.81,0.5,1.21,1.15,1.22,1.93      C376.74,256.5,376.47,257.17,375.92,257.67z"/>
				</g>
				<g>
					<path class="st2" d="M397.08,150.43c0,9.22-7.48,16.7-16.7,16.7c-9.22,0-16.7-7.48-16.7-16.7c0-9.22,7.48-16.7,16.7-16.7      C389.6,133.73,397.08,141.21,397.08,150.43z"/>

					<ellipse transform="matrix(0.9211 -0.3892 0.3892 0.9211 -28.398 158.9082)" class="st3" cx="377.96" cy="149.54" rx="16.7" ry="16.7"/>
					<path class="st2" d="M383.31,149.37c-1.12-0.9-2.65-1.49-4.6-1.77l-0.03-5.15c0.88,0.11,1.57,0.43,2.06,0.97      c0.16,0.18,0.32,0.43,0.48,0.74l3.38-0.02c-0.47-1.29-1.21-2.34-2.23-3.13c-0.72-0.56-1.56-0.98-2.52-1.24      c-0.52-0.14-0.92-0.22-1.19-0.21l-0.01-1.87l-2.23,0.01l0.01,1.8c-1.7,0.01-3.15,0.52-4.36,1.52c-1.29,1.07-1.92,2.46-1.91,4.16      c0.01,1.16,0.28,2.14,0.81,2.95c0.53,0.81,1.41,1.52,2.64,2.11c0.55,0.27,1.11,0.46,1.7,0.57c0.59,0.11,0.99,0.2,1.19,0.28      l0.03,5.75c-0.94,0.01-1.78-0.33-2.51-1c-0.5-0.46-0.89-1.03-1.17-1.71l-3.44,0.02c0.41,1.66,1.23,2.98,2.47,3.96      c0.89,0.71,1.93,1.2,3.12,1.48c0.61,0.14,1.13,0.21,1.55,0.21l0.02,2.69l2.23-0.01l-0.02-2.69c1.75-0.01,3.24-0.52,4.48-1.52      c1.39-1.12,2.08-2.62,2.06-4.5C385.32,151.91,384.64,150.45,383.31,149.37z M376.47,147.24c-0.76-0.17-1.32-0.35-1.67-0.55      c-0.73-0.43-1.1-1.06-1.1-1.9c-0.01-0.77,0.27-1.38,0.82-1.83c0.5-0.4,1.14-0.6,1.92-0.61L376.47,147.24z M381.1,155.92      c-0.55,0.51-1.32,0.84-2.33,1.01l-0.03-5.56c0.65,0,1.3,0.2,1.96,0.62c0.81,0.5,1.21,1.15,1.22,1.93      C381.91,154.75,381.64,155.41,381.1,155.92z"/>
				</g>
				<g>
					<path class="st2" d="M428.3,113.55c0,9.22-7.48,16.7-16.7,16.7c-9.22,0-16.7-7.48-16.7-16.7c0-9.22,7.48-16.7,16.7-16.7      C420.83,96.85,428.3,104.32,428.3,113.55z"/>
					<path class="st3" d="M425.89,112.65c0,9.22-7.48,16.7-16.7,16.7c-9.22,0-16.7-7.48-16.7-16.7c0-9.22,7.48-16.7,16.7-16.7      C418.41,95.95,425.89,103.43,425.89,112.65z"/>
					<path class="st2" d="M414.53,112.48c-1.12-0.9-2.65-1.49-4.6-1.77l-0.03-5.15c0.89,0.11,1.57,0.43,2.06,0.97      c0.16,0.18,0.32,0.43,0.48,0.74l3.38-0.02c-0.47-1.29-1.21-2.34-2.23-3.13c-0.72-0.56-1.56-0.98-2.52-1.24      c-0.52-0.14-0.92-0.22-1.19-0.21l-0.01-1.87l-2.23,0.01l0.01,1.8c-1.7,0.01-3.15,0.52-4.36,1.52c-1.29,1.07-1.92,2.46-1.91,4.16      c0.01,1.16,0.28,2.14,0.81,2.95c0.53,0.81,1.41,1.52,2.64,2.11c0.55,0.27,1.11,0.46,1.7,0.57c0.59,0.11,0.99,0.2,1.19,0.28      l0.03,5.75c-0.94,0.01-1.78-0.33-2.51-1c-0.5-0.46-0.89-1.03-1.17-1.71l-3.44,0.02c0.41,1.66,1.23,2.98,2.47,3.96      c0.89,0.71,1.93,1.2,3.12,1.48c0.61,0.14,1.13,0.21,1.55,0.21l0.02,2.69l2.23-0.01l-0.02-2.69c1.75-0.01,3.24-0.52,4.48-1.52      c1.39-1.12,2.08-2.62,2.06-4.5C416.54,115.03,415.87,113.56,414.53,112.48z M407.7,110.35c-0.76-0.17-1.32-0.35-1.67-0.55      c-0.73-0.43-1.1-1.06-1.1-1.9c-0.01-0.77,0.27-1.38,0.82-1.83c0.5-0.4,1.14-0.6,1.92-0.61L407.7,110.35z M412.32,119.04      c-0.55,0.51-1.32,0.84-2.33,1.01l-0.04-5.56c0.65,0,1.3,0.2,1.96,0.62c0.81,0.5,1.21,1.15,1.22,1.93      C413.14,117.86,412.87,118.53,412.32,119.04z"/>
				</g>
				<g>
					<path class="st2" d="M394.24,87.87c0,9.22-7.48,16.7-16.7,16.7s-16.7-7.48-16.7-16.7s7.48-16.7,16.7-16.7      S394.24,78.64,394.24,87.87z"/>

					<ellipse transform="matrix(0.7071 -0.7071 0.7071 0.7071 48.3735 290.7247)" class="st3" cx="375.12" cy="86.97" rx="16.7" ry="16.7"/>
					<path class="st2" d="M380.47,86.8c-1.12-0.9-2.65-1.49-4.6-1.77l-0.03-5.15c0.88,0.11,1.57,0.43,2.06,0.97      c0.16,0.18,0.32,0.43,0.48,0.74l3.38-0.02c-0.47-1.29-1.21-2.34-2.23-3.13c-0.72-0.56-1.56-0.98-2.52-1.24      c-0.52-0.14-0.92-0.22-1.19-0.21l-0.01-1.87l-2.23,0.01l0.01,1.8c-1.7,0.01-3.15,0.52-4.36,1.52c-1.29,1.07-1.92,2.46-1.91,4.16      c0.01,1.16,0.28,2.14,0.81,2.95c0.53,0.81,1.41,1.52,2.64,2.11c0.55,0.27,1.11,0.46,1.7,0.57c0.59,0.11,0.99,0.2,1.19,0.28      l0.03,5.75c-0.94,0.01-1.78-0.33-2.51-1c-0.5-0.46-0.89-1.03-1.17-1.71l-3.44,0.02c0.41,1.66,1.23,2.98,2.47,3.96      c0.89,0.71,1.93,1.2,3.12,1.48c0.61,0.14,1.13,0.21,1.55,0.21l0.02,2.69l2.23-0.01l-0.02-2.69c1.75-0.01,3.24-0.52,4.48-1.52      c1.39-1.12,2.08-2.62,2.06-4.5C382.47,89.35,381.8,87.88,380.47,86.8z M373.63,84.67c-0.76-0.17-1.32-0.35-1.67-0.55      c-0.73-0.43-1.1-1.06-1.1-1.9c-0.01-0.77,0.27-1.38,0.82-1.83c0.5-0.4,1.14-0.6,1.92-0.61L373.63,84.67z M378.25,93.36      c-0.55,0.51-1.32,0.84-2.33,1.01l-0.03-5.56c0.65,0,1.3,0.2,1.96,0.62c0.81,0.5,1.21,1.15,1.22,1.93      C379.07,92.18,378.8,92.85,378.25,93.36z"/>
				</g>
				<g>
					<path class="st2" d="M415.83,47.28c0,9.22-7.48,16.7-16.7,16.7s-16.7-7.48-16.7-16.7s7.48-16.7,16.7-16.7      S415.83,38.06,415.83,47.28z"/>

					<ellipse transform="matrix(0.7071 -0.7071 0.7071 0.7071 83.3967 294.1105)" class="st3" cx="396.72" cy="46.39" rx="16.7" ry="16.7"/>
					<path class="st2" d="M402.07,46.22c-1.12-0.9-2.65-1.49-4.6-1.77l-0.03-5.15c0.88,0.11,1.57,0.43,2.06,0.97      c0.16,0.18,0.32,0.43,0.48,0.74l3.38-0.02c-0.47-1.29-1.21-2.34-2.23-3.13c-0.72-0.56-1.56-0.98-2.52-1.24      c-0.52-0.14-0.92-0.22-1.19-0.21l-0.01-1.87l-2.23,0.01l0.01,1.8c-1.7,0.01-3.15,0.52-4.36,1.52c-1.29,1.07-1.92,2.46-1.91,4.16      c0.01,1.16,0.28,2.14,0.81,2.95c0.53,0.81,1.41,1.52,2.64,2.11c0.55,0.27,1.11,0.46,1.7,0.57c0.59,0.11,0.99,0.2,1.19,0.28      l0.03,5.75c-0.94,0.01-1.78-0.33-2.51-1c-0.5-0.46-0.89-1.03-1.17-1.71L388.17,51c0.41,1.66,1.23,2.98,2.47,3.96      c0.89,0.71,1.93,1.2,3.12,1.48c0.61,0.14,1.13,0.21,1.55,0.21l0.02,2.69l2.23-0.01l-0.02-2.69c1.75-0.01,3.24-0.52,4.48-1.52      c1.39-1.12,2.08-2.62,2.06-4.5C404.07,48.76,403.4,47.3,402.07,46.22z M395.23,44.09c-0.76-0.17-1.32-0.35-1.67-0.55      c-0.73-0.43-1.1-1.06-1.1-1.9c-0.01-0.77,0.27-1.38,0.82-1.83c0.5-0.4,1.14-0.6,1.92-0.61L395.23,44.09z M399.85,52.77      c-0.55,0.51-1.32,0.84-2.33,1.01l-0.03-5.56c0.65,0,1.3,0.2,1.96,0.62c0.81,0.5,1.21,1.15,1.22,1.93      C400.67,51.6,400.4,52.26,399.85,52.77z"/>
				</g>
				<g>
					<path class="st2" d="M410.52,208.48c0,9.96-8.08,18.04-18.04,18.04c-9.96,0-18.04-8.08-18.04-18.04      c0-9.96,8.08-18.04,18.04-18.04C402.44,190.44,410.52,198.52,410.52,208.48z"/>
					<path class="st3" d="M407.91,207.51c0,9.96-8.08,18.04-18.04,18.04c-9.96,0-18.04-8.08-18.04-18.04      c0-9.96,8.08-18.04,18.04-18.04C399.83,189.48,407.91,197.55,407.91,207.51z"/>
					<path class="st2" d="M395.65,207.34c-1.21-0.97-2.87-1.61-4.97-1.92l-0.03-5.57c0.96,0.12,1.7,0.47,2.23,1.05      c0.18,0.2,0.35,0.47,0.52,0.8l3.65-0.02c-0.51-1.4-1.31-2.53-2.41-3.38c-0.78-0.61-1.69-1.06-2.73-1.34      c-0.56-0.16-0.99-0.23-1.29-0.23l-0.01-2.02l-2.41,0.01l0.01,1.95c-1.84,0.01-3.41,0.56-4.71,1.65c-1.39,1.16-2.08,2.66-2.07,4.5      c0.01,1.25,0.3,2.31,0.87,3.19c0.58,0.88,1.53,1.64,2.85,2.28c0.59,0.29,1.2,0.49,1.84,0.61c0.64,0.12,1.07,0.22,1.29,0.3      l0.04,6.21c-1.02,0.01-1.92-0.36-2.71-1.09c-0.54-0.5-0.96-1.12-1.27-1.85l-3.72,0.02c0.44,1.79,1.33,3.22,2.67,4.28      c0.96,0.77,2.08,1.3,3.37,1.6c0.66,0.15,1.22,0.23,1.67,0.23l0.02,2.9l2.41-0.01l-0.02-2.9c1.89-0.01,3.5-0.56,4.84-1.65      c1.5-1.21,2.24-2.83,2.23-4.86C397.81,210.08,397.09,208.5,395.65,207.34z M388.26,205.03c-0.82-0.18-1.42-0.38-1.81-0.6      c-0.79-0.46-1.18-1.14-1.19-2.05c-0.01-0.83,0.29-1.49,0.89-1.97c0.54-0.43,1.23-0.65,2.07-0.66L388.26,205.03z M393.26,214.41      c-0.59,0.55-1.43,0.91-2.52,1.09l-0.04-6.01c0.7,0,1.4,0.22,2.12,0.67c0.87,0.55,1.31,1.24,1.32,2.09      C394.14,213.14,393.84,213.87,393.26,214.41z"/>
				</g>
			</g>
		</g>
		<g>
			<path class="st5" d="M491.98,414.15c0,6.88-44.51,12.46-99.41,12.46s-99.41-5.58-99.41-12.46c0-6.88,44.51-12.46,99.41-12.46 S491.98,407.26,491.98,414.15z"/>
		</g>
		<g id="pot">
			<path class="st16" d="M307.37,331.23c4.17-5.37,8.91-10.79,14.1-16.6c6.87-7.69,9.91-11.49,11.67-20.91    c1.65-8.82,2.49-18.01-1.27-26.04c-2.94-6.3-10.92-11.57-13.49-17.77c-4.04-9.77-1.36-17.26,10.8-18.45    c10.48-1.03,16.78,5.57,26.85,6.16c11.33,0.66,17-5.53,26.77-7.49c11.07-2.22,15.13,4.26,24.51,6.23    c12.9,2.71,15.09-5.73,27.27-7.63c8.8-1.36,10.24,4.91,15.29,5.74c12.55,2.06,22.3-5.18,13.76,11.67    c-4.96,9.8-12.96,19.22-14.32,29.44c-1.63,12.28,9.5,30.42,17.41,40.34c18.02,22.59,38.29,42.84,25.87,71.74    c-11.84,27.57-41.24,27.89-70.81,31.02c-29.01,3.07-59.08,0.24-87.16-1.39c-24.04-1.39-45.31-11.8-45.7-35.19    C288.56,360.83,295.7,346.25,307.37,331.23z"/>
			<path class="st13" d="M463.62,246.12c8.53-16.85-1.22-9.61-13.76-11.67c-5.05-0.83-6.49-7.1-15.29-5.74    c-12.18,1.9-14.37,10.34-27.27,7.63c-9.38-1.97-13.44-8.45-24.51-6.23c-9.77,1.96-15.44,8.16-26.77,7.49    c-10.07-0.59-16.37-7.19-26.85-6.16c-12.16,1.19-14.84,8.69-10.8,18.45c2.56,6.2,10.54,11.47,13.49,17.77    c3.75,8.03,2.92,17.22,1.27,26.04c-1.76,9.42-4.8,13.22-11.67,20.91c-5.19,5.8-9.93,11.23-14.1,16.6    c-6.72,8.65-11.93,17.16-15.08,26.88c29.12,12.83,64.51,20.35,102.68,20.35c36.99,0,71.37-7.06,99.95-19.17    c-4.22-15.43-16.67-28.93-28.21-43.39c-7.91-9.92-19.04-28.06-17.41-40.34C450.66,265.34,458.66,255.92,463.62,246.12z"/>
			<g>
				<path class="st3" d="M390.72,298.43l8.05,0v9.32c4.71,0.78,8.8,1.99,12.27,3.65c3.46,1.65,7.07,4.19,10.8,7.62l-11.42,6.82     c-3.44-2.61-7.32-4.61-11.64-5.98v17.52c4.9,1.09,8.76,2.32,11.59,3.69c4.6,2.21,8.16,4.97,10.68,8.27     c2.52,3.3,3.79,7.07,3.79,11.3c0,3.3-0.81,6.41-2.43,9.32c-1.61,2.91-3.83,5.29-6.66,7.13c-2.83,1.84-5.87,3.18-9.14,4.02     c-1.74,0.43-4.35,0.76-7.83,0.98v12.57h-8.05V382.1c-4.43-0.47-8.22-1.26-11.37-2.36c-3.16-1.11-6.15-2.7-8.97-4.79     c-2.14-1.56-4.52-3.93-7.13-7.11l11.81-7.05c4.6,5.51,9.82,8.74,15.67,9.67v-20.23c-6.1-1.18-11.02-2.91-14.77-5.16     c-3.76-2.26-6.47-4.91-8.13-7.97c-1.67-3.05-2.5-6.07-2.5-9.07c0-2.55,0.72-5.15,2.15-7.78c1.43-2.63,3.47-4.88,6.12-6.75     c2.65-1.87,5.55-3.27,8.7-4.21c1.85-0.56,4.66-1.07,8.43-1.54V298.43z M390.72,335.79v-16.59c-4.14,0.59-7.12,1.66-8.95,3.2     c-1.83,1.54-2.75,3.28-2.75,5.21c0,1.75,0.73,3.26,2.2,4.56C382.69,333.47,385.86,334.67,390.72,335.79z M398.77,351.82v18.97     c3.92-0.47,6.84-1.57,8.76-3.3c1.92-1.73,2.88-3.76,2.88-6.09c0-2.03-0.85-3.86-2.55-5.49     C406.15,354.27,403.12,352.92,398.77,351.82z"/>
			</g>
			<g>
				<path class="st3" d="M352.83,279.36c0,2.01-0.93,3.64-2.09,3.64h-6.68c-1.15,0-2.09-1.63-2.09-3.64l0,0     c0-2.01,0.93-3.64,2.09-3.64h6.68C351.89,275.73,352.83,277.36,352.83,279.36L352.83,279.36z"/>
				<path class="st3" d="M367.89,279.36c0,2.01-0.93,3.64-2.09,3.64h-6.68c-1.15,0-2.09-1.63-2.09-3.64l0,0     c0-2.01,0.93-3.64,2.09-3.64h6.68C366.96,275.73,367.89,277.36,367.89,279.36L367.89,279.36z"/>
				<path class="st3" d="M382.96,279.36c0,2.01-0.93,3.64-2.09,3.64h-6.68c-1.15,0-2.09-1.63-2.09-3.64l0,0     c0-2.01,0.93-3.64,2.09-3.64h6.68C382.02,275.73,382.96,277.36,382.96,279.36L382.96,279.36z"/>
				<path class="st3" d="M413.09,279.36c0,2.01-0.93,3.64-2.09,3.64h-6.68c-1.15,0-2.09-1.63-2.09-3.64l0,0     c0-2.01,0.93-3.64,2.09-3.64H411C412.15,275.73,413.09,277.36,413.09,279.36L413.09,279.36z"/>
				<path class="st3" d="M428.15,279.36c0,2.01-0.94,3.64-2.09,3.64h-6.68c-1.15,0-2.09-1.63-2.09-3.64l0,0     c0-2.01,0.93-3.64,2.09-3.64h6.68C427.22,275.73,428.15,277.36,428.15,279.36L428.15,279.36z"/>
				<path class="st3" d="M443.22,279.36c0,2.01-0.93,3.64-2.09,3.64h-6.68c-1.15,0-2.09-1.63-2.09-3.64l0,0     c0-2.01,0.93-3.64,2.09-3.64h6.68C442.28,275.73,443.22,277.36,443.22,279.36L443.22,279.36z"/>
				<path class="st3" d="M398.02,279.36c0,2.01-0.93,3.64-2.09,3.64h-6.68c-1.15,0-2.09-1.63-2.09-3.64l0,0     c0-2.01,0.93-3.64,2.09-3.64h6.68C397.09,275.73,398.02,277.36,398.02,279.36L398.02,279.36z"/>
			</g>
		</g>
	</g>
	<g id="mobileoneexample">
		 
			<path class="st5" d="M210.49,415.3c0,3.22,20.13,5.82,44.96,5.82c24.83,0,44.96-2.61,44.96-5.82c0-3.22-20.13-5.82-44.96-5.82   C230.62,409.47,210.49,412.08,210.49,415.3z"/>
		 
	 
			<polygon class="st4" points="249.11,408.58 242.25,409.09 240.04,365.77 246.9,365.25  "/>
			<polygon class="st4" points="255.32,414.18 241.8,413.14 242.28,404 255.58,409.23  "/>
	 
	 
			<polygon class="st4" points="274.87,407.93 268.01,408.44 265.8,365.12 272.66,364.6  "/>
			<polygon class="st4" points="281.08,413.54 267.56,412.49 268.04,403.36 281.34,408.58  "/>
	 
		<g class="moblietow">
			<path id="handsecmob" class="st4" d="M323.48,249.1c0,0,3.98,34.12-28.98,36.53l-2.85,10.36c0,0,48.52,1.66,41.3-59.1L323.48,249.1z"/>
			<path class="st4" d="M311.44,227.46c0.02-0.18,0.03-0.35,0.04-0.53l1.36-14.19c0.51-5.31-3.18-9.99-8.24-10.45l-74.46-6.85    c-5.06-0.47-9.57,3.46-10.07,8.77l-12.95,135.52c-0.02,0.18-0.03,0.35-0.04,0.53l-1.36,14.19c-0.51,5.31,3.18,9.99,8.24,10.46    l74.45,6.85c5.06,0.46,9.57-3.46,10.08-8.77L311.44,227.46z"/>
			 
				<path class="st4" d="M318.31,213.25c0.51-5.31-3.18-9.99-8.24-10.45l-74.46-6.85c-5.06-0.47-9.57,3.46-10.07,8.77L212.6,340.24     c-0.02,0.18-0.03,0.35-0.04,0.53l-1.36,14.19c-0.51,5.31,3.18,9.99,8.24,10.46l74.46,6.85c5.06,0.46,9.57-3.46,10.07-8.77     l12.94-135.52c0.02-0.18,0.03-0.35,0.04-0.53L318.31,213.25z"/>
				<path class="st6" d="M317.33,214.09c0.51-5.22-3.1-9.82-8.04-10.29l-72.86-6.8c-4.95-0.46-9.37,3.4-9.87,8.61l-12.9,133.24     c-0.02,0.18-0.03,0.35-0.04,0.52l-1.35,13.95c-0.51,5.22,3.1,9.82,8.04,10.29l72.86,6.8c4.95,0.46,9.37-3.4,9.87-8.62l12.9-133.24     c0.02-0.17,0.03-0.35,0.04-0.52L317.33,214.09z"/>
				<path class="st7" d="M243.5,365.79l49.66,4.63c4.95,0.46,9.37-3.4,9.87-8.62l12.9-133.24c0.02-0.17,0.03-0.35,0.04-0.52     l1.35-13.96c0.51-5.22-3.1-9.82-8.04-10.29l-20.07-1.87L243.5,365.79z"/>
				<polygon class="st8" points="297.26,350.3 220.11,343.09 232.3,217.64 309.45,224.85   "/>
				<path class="st9" d="M280.92,213.78c-0.09,1-0.96,1.73-1.94,1.65l-15.57-1.39c-0.98-0.09-1.7-0.97-1.61-1.96l0,0     c0.09-1,0.96-1.73,1.95-1.65l15.57,1.39C280.29,211.91,281.01,212.79,280.92,213.78L280.92,213.78z"/>
				<path class="st9" d="M265.68,358.11c-0.4,4.19-4.07,7.28-8.21,6.9c-4.13-0.38-7.16-4.09-6.76-8.28c0.4-4.19,4.07-7.28,8.2-6.9     C263.05,350.21,266.08,353.92,265.68,358.11z"/>
				<polygon class="st10" points="248.87,345.78 297.26,350.3 309.45,224.85 283.64,222.44   "/>
			 
				<path class="st11 eyetwom" d="M290.61,267.84c-0.53,5.38-2.71,9.59-4.87,9.38c-2.16-0.2-3.49-4.73-2.96-10.12     c0.53-5.39,2.71-9.59,4.87-9.38C289.81,257.92,291.14,262.45,290.61,267.84z"/>	<path class="st11 eyetwoma" d="M 293.55 271.08 c -0.82 -2.78 -3.14 -5.02 -6.19 -5.58 c -3.05 -0.56 -6.01 0.69 -7.77 3 l 1.39 2.79 c 1.59 -0.94 3.52 -1.34 5.49 -0.97 c 1.97 0.36 3.63 1.42 4.78 2.87 L 293.55 271.08 Z"/>
				<path class="st12 mouthtwo" d="M251.51,287.67c-0.03,0.27-0.07,0.54-0.09,0.81c-1.18,12.03,4.41,22.39,12.48,23.15     c8.07,0.76,15.56-8.37,16.74-20.4c0.03-0.27,0.05-0.54,0.07-0.81L251.51,287.67z"/>
								<path class="st12 mouthtwoa" d="M 251.51 287.67 c -0.03 0.27 -0.16 0.54 -0.09 0.81 c 2.51 10.52 6.23 11.69 14.3 12.45 c 8.07 0.76 9.64 -0.86 14.92 -9.7 c 0.14 -0.23 0.05 -0.54 0.07 -0.81 L 251.51 287.67 Z"/>
				<polygon class="st11" points="276.39,283.14 268.33,282.38 268.46,281.04 274,281.56 269.75,273.61 270.97,272.98   "/>
				<path class="st11" d="M252.61,265.23c-0.53,5.38-2.71,9.58-4.87,9.38c-2.16-0.2-3.49-4.73-2.96-10.12     c0.53-5.39,2.71-9.58,4.87-9.38C251.81,255.32,253.13,259.85,252.61,265.23z"/>
			 
			<g class="mahand">
				<path class="st4" d="M240.42,324.3c0,0-54.88-2.35-24.46-23.12l-3.46-10.88c0,0-48.47,42.04,36.17,41.53L240.42,324.3z"/>
				<path class="st4" d="M251.5,334.8c-2.46,3.51-8.55,3.73-13.59,0.51c-5.04-3.23-7.14-8.68-4.68-12.19    c2.46-3.51,8.55-3.73,13.59-0.51C251.87,325.84,253.96,331.29,251.5,334.8z"/>
				<path class="st4" d="M240.98,316.81c1.5,1.09,1.37,4.01-0.29,6.52c-1.66,2.5-4.22,3.65-5.72,2.55c-1.5-1.09-1.37-4.01,0.29-6.52  C236.92,316.86,239.48,315.72,240.98,316.81z"/>
			</g>
		</g>
		<g class="signalb">
			<polygon class="st13" points="302.58,187.28 307.49,188.86 318.32,171.8 305.11,167.29  "/>
			<polygon class="st13" points="313.54,193.64 316.23,198.04 335.57,192.17 328.49,180.13  "/>
			<polygon class="st13" points="289.08,186.77 294.17,185.98 296.17,165.86 282.34,167.78  "/>
		</g>
		<path class="st4 moonhandround" d="M340.11,232.69c-0.33,4.52-5.05,8.04-10.54,7.87c-5.49-0.17-9.68-3.97-9.35-8.49   c0.33-4.52,5.05-8.04,10.54-7.87C336.26,224.37,340.44,228.17,340.11,232.69z"/>
	</g>
	<g id="mobiletwoexample">
		 
			<path class="st5" d="M495.82,413.99c0,3.22,20.13,5.82,44.96,5.82c24.83,0,44.96-2.61,44.96-5.82c0-3.22-20.13-5.82-44.96-5.82   C515.95,408.17,495.82,410.78,495.82,413.99z"/>
			<polygon class="st4" points="562.16,409.58 555.5,407.91 552.59,367.96 545.85,367.96 548.64,406.18 548.62,406.18 549.24,413.62    562.5,413.62 "/>
		 
		<g class="signala">
			<polygon class="st13" points="481.44,196.53 486.51,194 481.87,172.27 468.04,178.9  "/>
			<polygon class="st13" points="494.93,193.09 500.42,194.47 511.08,174.98 496.27,170.98  "/>
			<polygon class="st13" points="470.46,206.52 473.84,201.98 459.93,184.66 450.55,196.81  "/>
		</g>
	

			<path class="st4 leg" d="M527.92,368.59l-7.98-0.82c-12.04,16.79-1.88,36.05-0.16,39.05l-7.11,1.81v4.02h13.33v-7.41    C514.21,387.49,527.92,368.59,527.92,368.59z"/>
		<path class="st4 lega" d="M528.45 367.96 L 521.71 367.96 L 518.8 407.91 L 512.14 409.58 L 511.8 413.62 L 525.06 413.62 L 525.68 406.18 L 525.66 406.18Z"/>
		<g class="mone">
			<path class="st4" d="M494.2,301.28c0,0-52.86,4.96-17.35,23.54l4.54-1.65c0,0-23.95-10.32,14.04-14.87L494.2,301.28z"/>
			 
				 
					<path class="st4" d="M477.08,235.48c-0.02-0.17-0.04-0.34-0.05-0.51l-1.84-13.71c-0.69-5.13,2.64-9.8,7.43-10.45l70.57-9.45      c4.79-0.64,9.24,2.99,9.92,8.12l17.54,130.89c0.02,0.17,0.04,0.34,0.05,0.51l1.84,13.71c0.69,5.13-2.64,9.8-7.43,10.45      l-70.57,9.46c-4.79,0.64-9.23-3-9.92-8.12L477.08,235.48z"/>
					 
						<path class="st4" d="M557.55,210.04c-0.71-5.12-5.17-8.74-9.95-8.08l-70.52,9.77c-4.79,0.66-8.1,5.36-7.39,10.48l18.12,130.81       c0.02,0.17,0.05,0.34,0.08,0.51l1.9,13.7c0.71,5.13,5.17,8.74,9.96,8.08l70.52-9.77c4.79-0.67,8.1-5.36,7.39-10.48       l-18.12-130.81c-0.02-0.17-0.05-0.34-0.08-0.51L557.55,210.04z"/>
						<path class="st14" d="M556.82,211.05c-0.69-5.04-5.05-8.6-9.74-7.96l-69.03,9.47c-4.69,0.64-7.93,5.25-7.24,10.29l17.65,128.64       c0.02,0.17,0.05,0.33,0.08,0.5l1.85,13.47c0.69,5.04,5.05,8.6,9.74,7.96l69.03-9.47c4.69-0.65,7.93-5.25,7.24-10.29       l-17.65-128.64c-0.02-0.17-0.05-0.33-0.08-0.5L556.82,211.05z"/>
						<path class="st15" d="M522.12,370.41l47.05-6.45c4.69-0.65,7.93-5.25,7.24-10.29l-17.65-128.64c-0.02-0.17-0.05-0.33-0.08-0.5       l-1.85-13.47c-0.69-5.04-5.05-8.6-9.74-7.96l-19.02,2.61L522.12,370.41z"/>

						<rect x="486.76" y="227.37" transform="matrix(0.9908 -0.1357 0.1357 0.9908 -34.2952 73.7014)" class="st8" width="73.78" height="122.26"/>
						<path class="st9" d="M523.01,218.7c0.14,0.96-0.51,1.85-1.44,1.98l-14.74,2.08c-0.93,0.13-1.8-0.54-1.93-1.5l0,0       c-0.14-0.96,0.51-1.85,1.44-1.98l14.74-2.08C522.02,217.06,522.88,217.73,523.01,218.7L523.01,218.7z"/>
						<path class="st9" d="M540.96,358.32c0.56,4.04-2.16,7.76-6.07,8.31c-3.91,0.54-7.54-2.3-8.1-6.34       c-0.56-4.05,2.16-7.77,6.07-8.31C536.77,351.43,540.4,354.28,540.96,358.32z"/>
						<polygon class="st10" points="522.65,350.34 568.5,344.06 551.91,222.93 527.46,226.28     "/>
					 
						<path class="st11" d="M516.94,287.67c-1.89,0.26-3.26-0.15-4.07-1.21c-2.62-3.43,1.97-12.36,2.5-13.37l1,0.53       c-1.35,2.56-4.45,9.74-2.61,12.16c0.64,0.84,1.93,1.05,3.83,0.62l0.25,1.11C517.53,287.58,517.22,287.63,516.94,287.67z"/>


						<path class="st12 mouthone" d="M523.97,297.76c-6.57,1.01-11.75,1.74-17.54-0.74c2.95,10.88,10.72,12.1,19.09,10.81       c8.36-1.29,14.45-4.64,13.98-15.91C533.92,296.73,530.54,296.75,523.97,297.76z"/>
					 <path class="st12 mouthonea" d="M523.77 300.8 c -6.57 1.01 -12.92 -1.05 -17.72 -5.14 c 2.95 10.88 11.18 18.29 19.54 17 c 8.36 -1.29 13.99 -10.83 13.52 -22.09 C 535.78 295.92 530.34 299.79 523.77 300.8Z"/>
				 
			 
			<g class="mthand">
				<path class="st4" d="M594.79,351.21c-2.59,3.72-8.31,4.44-12.77,1.6c-4.46-2.83-5.98-8.15-3.4-11.87     c2.59-3.72,8.31-4.44,12.77-1.6C595.86,342.17,597.38,347.49,594.79,351.21z"/>
				<path class="st4" d="M573.49,304.07c0,0,29.72,15.51,6.31,33.09l0.47,6.36c0,0,41.21-22.44-8.43-50.49L573.49,304.07z"/>
			</g>
			<path class="st11" d="M541.28,266.27c0.74,5.71-0.48,10.58-2.73,10.88c-2.25,0.29-4.68-4.1-5.43-9.81   c-0.74-5.71,0.48-10.58,2.73-10.88C538.11,256.17,540.54,260.56,541.28,266.27z"/>
			<path class="st11 eyeb" d="M502.54,272.09c0.74,5.71-0.48,10.58-2.73,10.88c-2.25,0.29-4.68-4.1-5.43-9.81   c-0.74-5.71,0.48-10.58,2.73-10.88C499.36,261.98,501.79,266.37,502.54,272.09z"/>
			<path class="st11 eyeba" d="M505.9 273.55 c -1.65 -2.39 -4.55 -3.78 -7.62 -3.37 c -3.07 0.42 -5.5 2.54 -6.45 5.28 l 2.2 2.21 c 1.22 -1.39 2.93 -2.37 4.91 -2.64 c 1.98 -0.27 3.89 0.21 5.44 1.23 L 505.9 273.55Z"/>
		</g>

	 
			<path class="st4 mhandmoon" d="M482.66,328.28c-2.38,3.76-7.98,4.48-12.51,1.61c-4.53-2.87-6.27-8.24-3.89-12c2.38-3.76,7.98-4.48,12.51-1.61   C483.3,319.15,485.04,324.52,482.66,328.28z"/>

	 
	</g>
</svg>