<svg width="800" height="449.99999999999994" xmlns="http://www.w3.org/2000/svg" xmlns:xlink="http://www.w3.org/1999/xlink">
 <g>
  <title>background</title>
  <rect x="-1" y="-1" width="890.88889" height="502" id="canvas_background" fill="#fff"/>
 </g>
 <style>.st0 {
			fill: #81D4F3;
		}

		.st1 {
			clip-path: url(#SVGID_2_);
		}

		.st2 {
			fill: #DF7D26;
		}

		.st3 {
			fill: #FCEE23;
		}

		.st4 {
			fill: #424143;
		}

		.st5 {
			opacity: 0.2;
			fill: #231F20;
		}

		.st6 {
			fill: #7787A0;
		}

		.st7 {
			fill: #3F5473;
		}

		.st8 {
			fill: #FFFFFF;
		}

		.st9 {
			fill: #343638;
		}

		.st10 {
			fill: #DDDDDD;
		}

		.st11 {
			fill: #231F20;
		}

		.st12 {
			fill: #A7233A;
		}

		.st13 {
			fill: #19A54A;
		}

		.st14 {
			fill: #919191;
		}

		.st15 {
			fill: #595A5C;
		}

		.st16 {
			fill: #158F45;
		}

		.dolars {
			animation: aaa 10s linear infinite;

			transform-box: fill-box;
			transform-origin: top;
		}

		@keyframes aaa {
			0% {
				transform: translate(0px, -379px);
			}


			50% {
				transform: translate(0px, 220px);
			}

			100% {
				transform: translate(0px, -379px);
			}
		}

		.dolars&gt;.st1&gt;g:nth-child(1),
		.dolars&gt;.st1&gt;g:nth-child(3),
		.dolars&gt;.st1&gt;g:nth-child(5),
		.dolars&gt;.st1&gt;g:nth-child(7),
		.dolars&gt;.st1&gt;g:nth-child(9),
		.dolars&gt;.st1&gt;g:nth-child(11) {
			animation: aaax 2s linear infinite;
			transform-origin: center;
			transform-box: fill-box;
		}

		@keyframes aaax {
			0% {
				transform: rotate(0turn);
			}




			100% {
				transform: rotate(1turn);
			}
		}

		.dolars&gt;.st1&gt;g:nth-child(2),
		.dolars&gt;.st1&gt;g:nth-child(4),
		.dolars&gt;.st1&gt;g:nth-child(6),
		.dolars&gt;.st1&gt;g:nth-child(8),
		.dolars&gt;.st1&gt;g:nth-child(10) {
			animation: aaaxa 2s linear infinite;
			transform-origin: center;
			transform-box: fill-box;
		}

		@keyframes aaaxa {
			0% {
				transform: rotate(1turn);
			}




			100% {
				transform: rotate(0turn);
			}
		}

		#SVGID_1_ {
			animation: aab 10s linear infinite;

			transform-box: fill-box;
			transform-origin: top;
		}

		@keyframes aab {
			0% {
				height: 408.43px;
			}

			30% {
				height: 408.43px;
			}

			45% {
				height: 0;
			}

			70% {
				height: 408.43px;
			}

			100% {
				height: 408.43px;
			}
		}

		.mone {
			animation: aac 10s linear infinite;
			transform-box: fill-box;
			transform-origin: bottom;
		}

		@keyframes aac {
			0% {
				transform: rotate(15deg);
			}

			20% {
				transform: rotate(0deg);
			}

			100% {
				transform: rotate(0deg);
			}
		}

		.mhandmoon {
			animation: aad 10s linear infinite;
		}

		@keyframes aad {
			0% {
				transform: translate(20px, -5px);
			}

			20% {
				transform: translate(0px, 0px);
			}

			100% {
				transform: translate(0px, 0px);
			}
		}

		.eyeb {
			animation: aae 10s linear infinite;
		}
	.eyeba {
			animation: aaea 10s linear infinite;
		}
		@keyframes aae {
			0% {
				    visibility: visible; 
			}

			24% {
			     visibility: visible;
			}

			25% {
			    visibility: hidden;
			}
		59% {
			    visibility: hidden;
			}
			60% {
		    visibility: visible;
			}

			100% {
		    visibility: visible;
			}
		}
@keyframes aaea {
			0% {
				    visibility: hidden; 
			}

			24% {
			     visibility: hidden;
			}

			25% {
			    visibility: visible;
			}
		59% {
			    visibility:visible;
			}
			60% {
		    visibility: hidden;
			}

			100% {
		    visibility: hidden;
			}
		}
		/* Mady By 
		Name:  Freelancer Tajul Rasel
		Web and Graphic Desiner. (Map design and coding)
		Web: https://freelancertajulrasel.com/
		WhatsApp : +8801821010080
		Mail: freelancertajulrasel@gmail.com
		fiverr: https://fiverr.com/systemgraphic
		*/
		.mouthone {
			animation: aaf 10s linear infinite;
		}
		.mouthonea {
			animation: aafa 10s linear infinite;
		}
		@keyframes aaf {
			0% {
				visibility:visible;
			}

			24% {
				visibility:visible;
			}

			25% {
				visibility:hidden;
			}59% {
				visibility:hidden;
			}

			60% {
				visibility:visible;
			}

			100% {
				visibility:visible;
			}
		}
@keyframes aafa {
			0% {
				visibility:hidden;
			}

			24% {
				visibility:hidden;
			}

			25% {
				visibility:visible;
			}59% {
				visibility:visible;
			}

			60% {
				visibility:hidden;
			}

			100% {
				visibility:hidden;
			}
		}
		.leg {
			animation: aag 10s linear infinite;
		}
	.lega {
			animation: aaga 10s linear infinite;
		}
		@keyframes aag {
			0% {
				visibility:visible;
			}

			24% {
				visibility:visible;
			}

			25% {
				visibility:hidden;
			}
			59% {
				visibility:hidden;
			}
			60% {
				visibility:visible;
			}
			100% {
				visibility:visible;
			}
		}
@keyframes aaga {
			0% {
				visibility:hidden;
			}

			24% {
				visibility:hidden;
			}

			25% {
				visibility:visible;
			}
			59% {
				visibility:visible;
			}
			60% {
				visibility:hidden;
			}
			100% {
				visibility:hidden;
			}
		}
		.mthand {
			animation: aah 10s linear infinite;
			transform-box: fill-box;
			transform-origin: top;
		}

		@keyframes aah {
			0% {}

			30% {
				transform: rotate(0deg);
			}

			40% {
				transform: rotate(-10deg);
			}

			50% {
				transform: rotate(0deg);
			}

			100% {
				transform: rotate(0deg);
			}
		}

		.signala,
		.signalb {
			animation: aai 10s linear infinite;
		}

		@keyframes aai {
			0% {
				opacity: 0;
			}

			25% {
				opacity: 0;
			}



			30% {
				opacity: 1;
			}

			100% {
				opacity: 1;
			}
		}

		 
		/* Mady By 
		Name:  Freelancer Tajul Rasel
		Web and Graphic Desiner. (Map design and coding)
		Web: https://freelancertajulrasel.com/
		WhatsApp : +8801821010080
		Mail: freelancertajulrasel@gmail.com
		fiverr: https://fiverr.com/systemgraphic
		*/
		.mahand {
			animation: aaj 10s linear infinite;
			transform-box: fill-box;
			transform-origin: top;
		}

		@keyframes aaj {
			0% {
				transform: rotate(0deg);
			}

			10% {
				transform: rotate(0deg);
			}

			20% {
				transform: rotate(-10deg);
			}

			30% {
				transform: rotate(0deg);
			}

			40% {
				transform: rotate(-10deg);
			}

			50% {
				transform: rotate(0deg);
			}

			100% {
				transform: rotate(0deg);
			}
		}

		.moblietow {
			animation: aak 10s linear infinite;
			transform-box: fill-box;
			transform-origin: bottom;
		}

		@keyframes aak {
			0% {
				transform: rotate(-15deg);
			}

			30% {
				transform: rotate(-15deg);
			}

			50% {
				transform: rotate(0deg);
			}

			100% {
				transform: rotate(0deg);
			}
		}

		.moonhandround {
			animation: aal 10s linear infinite;
		}

		@keyframes aal {
			0% {
				transform: translate(-38px, 0px);
			}

			30% {
				transform: translate(-38px, 0px);
			}

			50% {
				transform: translate(0px, 0px);
			}

			100% {
				transform: translate(0px, 0px);
			}
		}

		.eyetwom {
			animation: aan 10s linear infinite;
		}
.eyetwoma {
			animation: aana 10s linear infinite;
		}
@keyframes aana {
			0% {
			visibility:hidden;
			}
53% {
			visibility:hidden;
			}
			54% {
				visibility:visible;
			}

			55% {
				visibility:visible;
			}
79% {
				visibility:visible;
			}
			80% {
				visibility:hidden;
			}

			100% {
				visibility:hidden;
			}
		
		}
		@keyframes aan {
			0% {
			visibility:visible;
			}
53% {
			visibility:visible;
			}
			54% {
				visibility:hidden;
			}

			55% {
				visibility:hidden;
			}
79% {
				visibility:hidden;
			}
			80% {
				visibility:visible;
			}

			100% {
				visibility:visible;
			}
		
		}

		.mouthtwo {
			animation: aao 10s linear infinite;
		}
	.mouthtwoa {
			animation: aaoa 10s linear infinite;
		}
		@keyframes aao {
			0% {
			visibility:visible;
			}

			54% {
				visibility:hidden;
			}

			55% {
				visibility:hidden;
			}
79% {
				visibility:hidden;
			}
			80% {
				visibility:visible;
			}

			100% {
				visibility:visible;
			}
		}
		@keyframes aaoa {
			0% {
			visibility:hidden;
			}

			54% {
				visibility:visible;
			}

			55% {
				visibility:visible;
			}
79% {
				visibility:visible;
			}
			80% {
				visibility:hidden;
			}

			100% {
				visibility:hidden;
			}
		}</style>
 <g>
  <title>Layer 1</title>
  <g id="background">
   <rect id="svg_1" height="449.92" width="800.01" class="st0" y="0.07"/>
  </g>
  <g id="potdoller">
   <g id="svg_2" class="dolars">
    <defs>
     <rect height="408.43" width="124.28" y="7.04" x="329.24" id="SVGID_1_"/>
    </defs>
    <clipPath id="SVGID_2_">
     <use id="svg_3" xlink:href="#SVGID_1_"/>
    </clipPath>
    <g id="svg_4" class="st1">
     <g id="svg_5">
      <path id="svg_6" d="m436.24,169.76c0,9.22 -7.48,16.7 -16.7,16.7c-9.22,0 -16.7,-7.48 -16.7,-16.7c0,-9.22 7.48,-16.7 16.7,-16.7c9.22,0 16.7,7.48 16.7,16.7z" class="st2"/>
      <path id="svg_7" d="m433.82,168.87c0,9.22 -7.48,16.7 -16.7,16.7c-9.22,0 -16.7,-7.48 -16.7,-16.7c0,-9.22 7.48,-16.7 16.7,-16.7c9.22,0 16.7,7.47 16.7,16.7z" class="st3"/>
      <path id="svg_8" d="m422.47,168.7c-1.12,-0.9 -2.65,-1.49 -4.6,-1.78l-0.03,-5.15c0.89,0.11 1.57,0.43 2.06,0.97c0.16,0.18 0.32,0.43 0.48,0.74l3.38,-0.02c-0.47,-1.29 -1.21,-2.34 -2.23,-3.13c-0.72,-0.56 -1.56,-0.98 -2.52,-1.24c-0.52,-0.14 -0.92,-0.22 -1.19,-0.21l-0.01,-1.87l-2.23,0.01l0.01,1.8c-1.7,0.01 -3.15,0.52 -4.36,1.52c-1.29,1.07 -1.92,2.46 -1.91,4.16c0.01,1.16 0.28,2.14 0.81,2.95c0.53,0.81 1.41,1.52 2.64,2.11c0.55,0.27 1.11,0.46 1.7,0.57c0.59,0.11 0.99,0.2 1.19,0.28l0.04,5.75c-0.94,0.01 -1.78,-0.33 -2.51,-1.01c-0.5,-0.46 -0.89,-1.03 -1.17,-1.71l-3.44,0.02c0.41,1.66 1.23,2.98 2.47,3.96c0.89,0.71 1.93,1.2 3.12,1.48c0.61,0.14 1.13,0.21 1.55,0.21l0.02,2.69l2.23,-0.01l-0.02,-2.69c1.74,-0.01 3.24,-0.52 4.48,-1.52c1.39,-1.12 2.08,-2.62 2.06,-4.5c-0.02,-1.84 -0.69,-3.3 -2.02,-4.38zm-6.84,-2.13c-0.76,-0.17 -1.32,-0.35 -1.67,-0.55c-0.73,-0.43 -1.09,-1.06 -1.1,-1.9c0,-0.77 0.27,-1.38 0.82,-1.83c0.5,-0.4 1.14,-0.6 1.92,-0.61l0.03,4.89zm4.62,8.68c-0.55,0.51 -1.32,0.85 -2.33,1.01l-0.03,-5.56c0.65,0 1.3,0.2 1.96,0.62c0.81,0.5 1.21,1.15 1.22,1.93c0,0.83 -0.27,1.49 -0.82,2z" class="st2"/>
     </g>
     <g id="svg_9">
      <path id="svg_10" d="m432.57,271.95c0,9.22 -7.48,16.7 -16.7,16.7c-9.22,0 -16.7,-7.48 -16.7,-16.7c0,-9.22 7.48,-16.7 16.7,-16.7c9.22,0 16.7,7.48 16.7,16.7z" class="st2"/>
      <path id="svg_11" d="m430.16,271.06c0,9.22 -7.48,16.7 -16.7,16.7c-9.22,0 -16.7,-7.48 -16.7,-16.7c0,-9.22 7.48,-16.7 16.7,-16.7c9.22,0 16.7,7.48 16.7,16.7z" class="st3"/>
      <path id="svg_12" d="m418.8,270.89c-1.12,-0.9 -2.65,-1.49 -4.6,-1.78l-0.03,-5.15c0.89,0.11 1.57,0.43 2.06,0.97c0.16,0.18 0.32,0.43 0.48,0.74l3.38,-0.02c-0.47,-1.29 -1.21,-2.34 -2.23,-3.13c-0.72,-0.56 -1.56,-0.98 -2.53,-1.24c-0.52,-0.14 -0.92,-0.22 -1.19,-0.21l-0.01,-1.87l-2.23,0.01l0.01,1.8c-1.7,0.01 -3.15,0.52 -4.36,1.52c-1.29,1.07 -1.92,2.46 -1.91,4.16c0.01,1.16 0.28,2.14 0.81,2.95c0.53,0.81 1.41,1.52 2.64,2.11c0.55,0.27 1.11,0.46 1.7,0.57c0.59,0.11 0.99,0.2 1.19,0.28l0.04,5.75c-0.94,0.01 -1.78,-0.33 -2.5,-1.01c-0.5,-0.46 -0.89,-1.03 -1.17,-1.71l-3.44,0.02c0.41,1.65 1.23,2.98 2.47,3.96c0.89,0.71 1.93,1.2 3.12,1.48c0.61,0.14 1.13,0.21 1.55,0.21l0.02,2.69l2.23,-0.01l-0.02,-2.69c1.74,-0.01 3.24,-0.52 4.48,-1.52c1.39,-1.12 2.08,-2.62 2.06,-4.5c-0.01,-1.83 -0.69,-3.3 -2.02,-4.38zm-6.83,-2.13c-0.76,-0.17 -1.32,-0.35 -1.67,-0.55c-0.73,-0.43 -1.09,-1.06 -1.1,-1.9c-0.01,-0.77 0.27,-1.38 0.82,-1.83c0.5,-0.4 1.14,-0.6 1.92,-0.61l0.03,4.89zm4.62,8.69c-0.55,0.51 -1.32,0.85 -2.33,1.01l-0.03,-5.56c0.65,0 1.3,0.2 1.96,0.62c0.81,0.5 1.21,1.15 1.22,1.93c-0.01,0.82 -0.28,1.49 -0.82,2z" class="st2"/>
     </g>
     <g id="svg_13">
      <path id="svg_14" d="m399.3,302.11c0,9.22 -7.48,16.7 -16.7,16.7c-9.22,0 -16.7,-7.48 -16.7,-16.7c0,-9.22 7.48,-16.7 16.7,-16.7c9.22,-0.01 16.7,7.47 16.7,16.7z" class="st2"/>
      <path id="svg_15" d="m396.89,301.21c0,9.22 -7.48,16.7 -16.7,16.7c-9.22,0 -16.7,-7.48 -16.7,-16.7c0,-9.22 7.48,-16.7 16.7,-16.7c9.22,0 16.7,7.48 16.7,16.7z" class="st3"/>
      <path id="svg_16" d="m385.53,301.04c-1.12,-0.9 -2.65,-1.49 -4.6,-1.78l-0.03,-5.15c0.89,0.11 1.57,0.43 2.06,0.97c0.16,0.18 0.32,0.43 0.48,0.74l3.38,-0.02c-0.47,-1.29 -1.21,-2.34 -2.23,-3.13c-0.72,-0.56 -1.56,-0.98 -2.52,-1.24c-0.52,-0.14 -0.92,-0.22 -1.19,-0.21l-0.01,-1.87l-2.23,0.01l0.01,1.8c-1.7,0.01 -3.15,0.52 -4.36,1.52c-1.29,1.07 -1.92,2.46 -1.91,4.16c0.01,1.16 0.28,2.14 0.81,2.95c0.53,0.81 1.41,1.52 2.64,2.11c0.55,0.27 1.11,0.46 1.7,0.57c0.59,0.11 0.99,0.2 1.19,0.28l0.04,5.75c-0.94,0.01 -1.78,-0.33 -2.51,-1.01c-0.5,-0.46 -0.89,-1.03 -1.17,-1.71l-3.44,0.02c0.41,1.65 1.23,2.98 2.47,3.96c0.89,0.71 1.93,1.2 3.12,1.48c0.61,0.14 1.13,0.21 1.55,0.21l0.02,2.69l2.23,-0.01l-0.02,-2.69c1.74,-0.01 3.24,-0.52 4.48,-1.52c1.39,-1.12 2.08,-2.62 2.06,-4.5c-0.01,-1.83 -0.68,-3.3 -2.02,-4.38zm-6.83,-2.13c-0.76,-0.17 -1.32,-0.35 -1.67,-0.55c-0.73,-0.43 -1.09,-1.06 -1.1,-1.9c0,-0.77 0.27,-1.38 0.82,-1.83c0.5,-0.4 1.14,-0.6 1.92,-0.61l0.03,4.89zm4.62,8.69c-0.55,0.51 -1.32,0.85 -2.33,1.01l-0.03,-5.56c0.65,0 1.3,0.2 1.96,0.62c0.81,0.5 1.21,1.15 1.22,1.93c0,0.82 -0.27,1.49 -0.82,2z" class="st2"/>
     </g>
     <g id="svg_17">
      <path id="svg_18" d="m433.16,327.83c0,9.22 -7.48,16.7 -16.7,16.7c-9.22,0 -16.7,-7.48 -16.7,-16.7c0,-9.22 7.48,-16.7 16.7,-16.7c9.23,0 16.7,7.48 16.7,16.7z" class="st2"/>
      <path id="svg_19" d="m430.75,326.94c0,9.22 -7.48,16.7 -16.7,16.7c-9.22,0 -16.7,-7.48 -16.7,-16.7c0,-9.22 7.48,-16.7 16.7,-16.7c9.22,0 16.7,7.48 16.7,16.7z" class="st3"/>
      <path id="svg_20" d="m419.4,326.77c-1.12,-0.9 -2.65,-1.49 -4.6,-1.78l-0.03,-5.15c0.89,0.11 1.57,0.43 2.06,0.97c0.16,0.18 0.32,0.43 0.48,0.74l3.38,-0.02c-0.47,-1.29 -1.21,-2.34 -2.23,-3.13c-0.72,-0.56 -1.56,-0.98 -2.52,-1.24c-0.52,-0.14 -0.92,-0.22 -1.19,-0.21l-0.01,-1.87l-2.23,0.01l0.01,1.8c-1.7,0.01 -3.15,0.52 -4.36,1.52c-1.29,1.07 -1.92,2.46 -1.91,4.16c0.01,1.16 0.28,2.14 0.81,2.95c0.53,0.81 1.41,1.52 2.64,2.11c0.55,0.27 1.11,0.46 1.7,0.57c0.59,0.11 0.99,0.2 1.19,0.28l0.04,5.75c-0.94,0.01 -1.78,-0.33 -2.51,-1.01c-0.5,-0.46 -0.89,-1.03 -1.17,-1.71l-3.44,0.02c0.41,1.66 1.23,2.98 2.47,3.96c0.89,0.71 1.93,1.2 3.12,1.48c0.61,0.14 1.13,0.21 1.55,0.21l0.02,2.69l2.23,-0.01l-0.02,-2.69c1.74,-0.01 3.24,-0.52 4.48,-1.53c1.39,-1.12 2.08,-2.62 2.06,-4.5c-0.02,-1.82 -0.69,-3.29 -2.02,-4.37zm-6.84,-2.13c-0.76,-0.17 -1.32,-0.35 -1.67,-0.55c-0.73,-0.42 -1.09,-1.06 -1.1,-1.9c0,-0.77 0.27,-1.38 0.82,-1.83c0.5,-0.4 1.14,-0.6 1.92,-0.61l0.03,4.89zm4.62,8.69c-0.55,0.51 -1.32,0.85 -2.33,1.01l-0.03,-5.56c0.65,0 1.3,0.2 1.96,0.62c0.81,0.5 1.21,1.15 1.22,1.93c0,0.82 -0.27,1.49 -0.82,2z" class="st2"/>
     </g>
     <g id="svg_21">
      <path id="svg_22" d="m401.08,354.68c0,9.22 -7.48,16.7 -16.7,16.7c-9.22,0 -16.7,-7.48 -16.7,-16.7c0,-9.22 7.48,-16.7 16.7,-16.7c9.22,0 16.7,7.48 16.7,16.7z" class="st2"/>
      <path id="svg_23" d="m398.67,353.79c0,9.22 -7.48,16.7 -16.7,16.7c-9.22,0 -16.7,-7.48 -16.7,-16.7c0,-9.22 7.48,-16.7 16.7,-16.7c9.22,-0.01 16.7,7.47 16.7,16.7z" class="st3"/>
      <path id="svg_24" d="m387.31,353.62c-1.12,-0.9 -2.65,-1.49 -4.6,-1.78l-0.03,-5.15c0.89,0.11 1.57,0.43 2.06,0.97c0.16,0.18 0.32,0.43 0.48,0.74l3.38,-0.02c-0.47,-1.29 -1.21,-2.34 -2.23,-3.13c-0.72,-0.56 -1.56,-0.98 -2.52,-1.24c-0.52,-0.14 -0.92,-0.22 -1.19,-0.21l-0.01,-1.87l-2.23,0.01l0.01,1.8c-1.7,0.01 -3.15,0.52 -4.36,1.52c-1.29,1.07 -1.92,2.46 -1.91,4.16c0.01,1.16 0.28,2.14 0.81,2.95c0.53,0.81 1.41,1.52 2.64,2.11c0.55,0.27 1.11,0.46 1.7,0.57c0.59,0.11 0.99,0.2 1.19,0.28l0.04,5.75c-0.94,0.01 -1.78,-0.33 -2.51,-1.01c-0.5,-0.46 -0.89,-1.03 -1.17,-1.71l-3.44,0.02c0.41,1.66 1.23,2.98 2.47,3.96c0.89,0.71 1.93,1.2 3.12,1.48c0.61,0.14 1.13,0.21 1.55,0.21l0.02,2.69l2.23,-0.01l-0.02,-2.69c1.74,-0.01 3.24,-0.52 4.48,-1.53c1.39,-1.12 2.08,-2.62 2.06,-4.5c-0.01,-1.83 -0.69,-3.29 -2.02,-4.37zm-6.83,-2.13c-0.76,-0.17 -1.32,-0.35 -1.67,-0.55c-0.73,-0.43 -1.09,-1.06 -1.1,-1.9c0,-0.77 0.27,-1.38 0.82,-1.83c0.5,-0.4 1.14,-0.6 1.92,-0.61l0.03,4.89zm4.62,8.68c-0.55,0.51 -1.32,0.85 -2.33,1.01l-0.03,-5.56c0.65,0 1.3,0.2 1.96,0.62c0.81,0.5 1.21,1.15 1.22,1.93c-0.01,0.83 -0.28,1.49 -0.82,2z" class="st2"/>
     </g>
     <g id="svg_25">
      <path id="svg_26" d="m391.9,252.18c0,9.22 -7.48,16.7 -16.7,16.7c-9.22,0 -16.7,-7.48 -16.7,-16.7c0,-9.22 7.48,-16.7 16.7,-16.7c9.23,0 16.7,7.48 16.7,16.7z" class="st2"/>
      <path id="svg_27" d="m389.49,251.29c0,9.22 -7.48,16.7 -16.7,16.7c-9.22,0 -16.7,-7.48 -16.7,-16.7c0,-9.22 7.48,-16.7 16.7,-16.7c9.22,0 16.7,7.47 16.7,16.7z" class="st3"/>
      <path id="svg_28" d="m378.13,251.12c-1.12,-0.9 -2.65,-1.49 -4.6,-1.78l-0.03,-5.15c0.89,0.11 1.57,0.43 2.06,0.97c0.16,0.18 0.32,0.43 0.48,0.74l3.38,-0.02c-0.47,-1.29 -1.21,-2.34 -2.23,-3.13c-0.72,-0.56 -1.56,-0.98 -2.53,-1.24c-0.52,-0.14 -0.92,-0.22 -1.19,-0.21l-0.01,-1.87l-2.23,0.01l0.01,1.8c-1.7,0.01 -3.15,0.52 -4.36,1.52c-1.29,1.07 -1.92,2.46 -1.91,4.16c0.01,1.16 0.28,2.14 0.81,2.95c0.53,0.81 1.41,1.52 2.64,2.11c0.55,0.27 1.11,0.46 1.7,0.57c0.59,0.11 0.99,0.2 1.19,0.28l0.04,5.75c-0.94,0.01 -1.78,-0.33 -2.51,-1.01c-0.5,-0.46 -0.89,-1.03 -1.17,-1.71l-3.44,0.02c0.41,1.66 1.23,2.98 2.47,3.96c0.89,0.71 1.93,1.2 3.12,1.48c0.61,0.14 1.13,0.21 1.55,0.21l0.02,2.69l2.23,-0.01l-0.02,-2.69c1.74,-0.01 3.24,-0.52 4.48,-1.53c1.39,-1.12 2.08,-2.62 2.06,-4.5c0,-1.83 -0.67,-3.29 -2.01,-4.37zm-6.83,-2.13c-0.76,-0.17 -1.32,-0.35 -1.67,-0.55c-0.73,-0.43 -1.09,-1.06 -1.1,-1.9c-0.01,-0.77 0.27,-1.38 0.82,-1.83c0.5,-0.4 1.14,-0.6 1.92,-0.61l0.03,4.89zm4.62,8.68c-0.55,0.51 -1.32,0.85 -2.33,1.01l-0.03,-5.56c0.65,0 1.3,0.2 1.96,0.62c0.81,0.5 1.21,1.15 1.22,1.93c0,0.83 -0.27,1.5 -0.82,2z" class="st2"/>
     </g>
     <g id="svg_29">
      <path id="svg_30" d="m397.08,150.43c0,9.22 -7.48,16.7 -16.7,16.7c-9.22,0 -16.7,-7.48 -16.7,-16.7c0,-9.22 7.48,-16.7 16.7,-16.7c9.22,0 16.7,7.48 16.7,16.7z" class="st2"/>
      <ellipse id="svg_31" ry="16.7" rx="16.7" cy="149.54" cx="377.96" class="st3" transform="matrix(0.9211,-0.3892,0.3892,0.9211,-28.398,158.9082) "/>
      <path id="svg_32" d="m383.31,149.37c-1.12,-0.9 -2.65,-1.49 -4.6,-1.77l-0.03,-5.15c0.88,0.11 1.57,0.43 2.06,0.97c0.16,0.18 0.32,0.43 0.48,0.74l3.38,-0.02c-0.47,-1.29 -1.21,-2.34 -2.23,-3.13c-0.72,-0.56 -1.56,-0.98 -2.52,-1.24c-0.52,-0.14 -0.92,-0.22 -1.19,-0.21l-0.01,-1.87l-2.23,0.01l0.01,1.8c-1.7,0.01 -3.15,0.52 -4.36,1.52c-1.29,1.07 -1.92,2.46 -1.91,4.16c0.01,1.16 0.28,2.14 0.81,2.95c0.53,0.81 1.41,1.52 2.64,2.11c0.55,0.27 1.11,0.46 1.7,0.57c0.59,0.11 0.99,0.2 1.19,0.28l0.03,5.75c-0.94,0.01 -1.78,-0.33 -2.51,-1c-0.5,-0.46 -0.89,-1.03 -1.17,-1.71l-3.44,0.02c0.41,1.66 1.23,2.98 2.47,3.96c0.89,0.71 1.93,1.2 3.12,1.48c0.61,0.14 1.13,0.21 1.55,0.21l0.02,2.69l2.23,-0.01l-0.02,-2.69c1.75,-0.01 3.24,-0.52 4.48,-1.52c1.39,-1.12 2.08,-2.62 2.06,-4.5c0,-1.86 -0.68,-3.32 -2.01,-4.4zm-6.84,-2.13c-0.76,-0.17 -1.32,-0.35 -1.67,-0.55c-0.73,-0.43 -1.1,-1.06 -1.1,-1.9c-0.01,-0.77 0.27,-1.38 0.82,-1.83c0.5,-0.4 1.14,-0.6 1.92,-0.61l0.03,4.89zm4.63,8.68c-0.55,0.51 -1.32,0.84 -2.33,1.01l-0.03,-5.56c0.65,0 1.3,0.2 1.96,0.62c0.81,0.5 1.21,1.15 1.22,1.93c-0.01,0.83 -0.28,1.49 -0.82,2z" class="st2"/>
     </g>
     <g id="svg_33">
      <path id="svg_34" d="m428.3,113.55c0,9.22 -7.48,16.7 -16.7,16.7c-9.22,0 -16.7,-7.48 -16.7,-16.7c0,-9.22 7.48,-16.7 16.7,-16.7c9.23,0 16.7,7.47 16.7,16.7z" class="st2"/>
      <path id="svg_35" d="m425.89,112.65c0,9.22 -7.48,16.7 -16.7,16.7c-9.22,0 -16.7,-7.48 -16.7,-16.7c0,-9.22 7.48,-16.7 16.7,-16.7c9.22,0 16.7,7.48 16.7,16.7z" class="st3"/>
      <path id="svg_36" d="m414.53,112.48c-1.12,-0.9 -2.65,-1.49 -4.6,-1.77l-0.03,-5.15c0.89,0.11 1.57,0.43 2.06,0.97c0.16,0.18 0.32,0.43 0.48,0.74l3.38,-0.02c-0.47,-1.29 -1.21,-2.34 -2.23,-3.13c-0.72,-0.56 -1.56,-0.98 -2.52,-1.24c-0.52,-0.14 -0.92,-0.22 -1.19,-0.21l-0.01,-1.87l-2.23,0.01l0.01,1.8c-1.7,0.01 -3.15,0.52 -4.36,1.52c-1.29,1.07 -1.92,2.46 -1.91,4.16c0.01,1.16 0.28,2.14 0.81,2.95c0.53,0.81 1.41,1.52 2.64,2.11c0.55,0.27 1.11,0.46 1.7,0.57c0.59,0.11 0.99,0.2 1.19,0.28l0.03,5.75c-0.94,0.01 -1.78,-0.33 -2.51,-1c-0.5,-0.46 -0.89,-1.03 -1.17,-1.71l-3.44,0.02c0.41,1.66 1.23,2.98 2.47,3.96c0.89,0.71 1.93,1.2 3.12,1.48c0.61,0.14 1.13,0.21 1.55,0.21l0.02,2.69l2.23,-0.01l-0.02,-2.69c1.75,-0.01 3.24,-0.52 4.48,-1.52c1.39,-1.12 2.08,-2.62 2.06,-4.5c0,-1.85 -0.67,-3.32 -2.01,-4.4zm-6.83,-2.13c-0.76,-0.17 -1.32,-0.35 -1.67,-0.55c-0.73,-0.43 -1.1,-1.06 -1.1,-1.9c-0.01,-0.77 0.27,-1.38 0.82,-1.83c0.5,-0.4 1.14,-0.6 1.92,-0.61l0.03,4.89zm4.62,8.69c-0.55,0.51 -1.32,0.84 -2.33,1.01l-0.04,-5.56c0.65,0 1.3,0.2 1.96,0.62c0.81,0.5 1.21,1.15 1.22,1.93c0.01,0.82 -0.26,1.49 -0.81,2z" class="st2"/>
     </g>
     <g id="svg_37">
      <path id="svg_38" d="m394.24,87.87c0,9.22 -7.48,16.7 -16.7,16.7s-16.7,-7.48 -16.7,-16.7s7.48,-16.7 16.7,-16.7s16.7,7.47 16.7,16.7z" class="st2"/>
      <ellipse id="svg_39" ry="16.7" rx="16.7" cy="86.97" cx="375.12" class="st3" transform="matrix(0.7071,-0.7071,0.7071,0.7071,48.3735,290.7247) "/>
      <path id="svg_40" d="m380.47,86.8c-1.12,-0.9 -2.65,-1.49 -4.6,-1.77l-0.03,-5.15c0.88,0.11 1.57,0.43 2.06,0.97c0.16,0.18 0.32,0.43 0.48,0.74l3.38,-0.02c-0.47,-1.29 -1.21,-2.34 -2.23,-3.13c-0.72,-0.56 -1.56,-0.98 -2.52,-1.24c-0.52,-0.14 -0.92,-0.22 -1.19,-0.21l-0.01,-1.87l-2.23,0.01l0.01,1.8c-1.7,0.01 -3.15,0.52 -4.36,1.52c-1.29,1.07 -1.92,2.46 -1.91,4.16c0.01,1.16 0.28,2.14 0.81,2.95c0.53,0.81 1.41,1.52 2.64,2.11c0.55,0.27 1.11,0.46 1.7,0.57c0.59,0.11 0.99,0.2 1.19,0.28l0.03,5.75c-0.94,0.01 -1.78,-0.33 -2.51,-1c-0.5,-0.46 -0.89,-1.03 -1.17,-1.71l-3.44,0.02c0.41,1.66 1.23,2.98 2.47,3.96c0.89,0.71 1.93,1.2 3.12,1.48c0.61,0.14 1.13,0.21 1.55,0.21l0.02,2.69l2.23,-0.01l-0.02,-2.69c1.75,-0.01 3.24,-0.52 4.48,-1.52c1.39,-1.12 2.08,-2.62 2.06,-4.5c-0.01,-1.85 -0.68,-3.32 -2.01,-4.4zm-6.84,-2.13c-0.76,-0.17 -1.32,-0.35 -1.67,-0.55c-0.73,-0.43 -1.1,-1.06 -1.1,-1.9c-0.01,-0.77 0.27,-1.38 0.82,-1.83c0.5,-0.4 1.14,-0.6 1.92,-0.61l0.03,4.89zm4.62,8.69c-0.55,0.51 -1.32,0.84 -2.33,1.01l-0.03,-5.56c0.65,0 1.3,0.2 1.96,0.62c0.81,0.5 1.21,1.15 1.22,1.93c0,0.82 -0.27,1.49 -0.82,2z" class="st2"/>
     </g>
     <g id="svg_41">
      <path id="svg_42" d="m415.83,47.28c0,9.22 -7.48,16.7 -16.7,16.7s-16.7,-7.48 -16.7,-16.7s7.48,-16.7 16.7,-16.7s16.7,7.48 16.7,16.7z" class="st2"/>
      <ellipse id="svg_43" ry="16.7" rx="16.7" cy="46.39" cx="396.72" class="st3" transform="matrix(0.7071,-0.7071,0.7071,0.7071,83.3967,294.1105) "/>
      <path id="svg_44" d="m402.07,46.22c-1.12,-0.9 -2.65,-1.49 -4.6,-1.77l-0.03,-5.15c0.88,0.11 1.57,0.43 2.06,0.97c0.16,0.18 0.32,0.43 0.48,0.74l3.38,-0.02c-0.47,-1.29 -1.21,-2.34 -2.23,-3.13c-0.72,-0.56 -1.56,-0.98 -2.52,-1.24c-0.52,-0.14 -0.92,-0.22 -1.19,-0.21l-0.01,-1.87l-2.23,0.01l0.01,1.8c-1.7,0.01 -3.15,0.52 -4.36,1.52c-1.29,1.07 -1.92,2.46 -1.91,4.16c0.01,1.16 0.28,2.14 0.81,2.95c0.53,0.81 1.41,1.52 2.64,2.11c0.55,0.27 1.11,0.46 1.7,0.57c0.59,0.11 0.99,0.2 1.19,0.28l0.03,5.75c-0.94,0.01 -1.78,-0.33 -2.51,-1c-0.5,-0.46 -0.89,-1.03 -1.17,-1.71l-3.44,0.02c0.41,1.66 1.23,2.98 2.47,3.96c0.89,0.71 1.93,1.2 3.12,1.48c0.61,0.14 1.13,0.21 1.55,0.21l0.02,2.69l2.23,-0.01l-0.02,-2.69c1.75,-0.01 3.24,-0.52 4.48,-1.52c1.39,-1.12 2.08,-2.62 2.06,-4.5c-0.01,-1.86 -0.68,-3.32 -2.01,-4.4zm-6.84,-2.13c-0.76,-0.17 -1.32,-0.35 -1.67,-0.55c-0.73,-0.43 -1.1,-1.06 -1.1,-1.9c-0.01,-0.77 0.27,-1.38 0.82,-1.83c0.5,-0.4 1.14,-0.6 1.92,-0.61l0.03,4.89zm4.62,8.68c-0.55,0.51 -1.32,0.84 -2.33,1.01l-0.03,-5.56c0.65,0 1.3,0.2 1.96,0.62c0.81,0.5 1.21,1.15 1.22,1.93c0,0.83 -0.27,1.49 -0.82,2z" class="st2"/>
     </g>
     <g id="svg_45">
      <path id="svg_46" d="m410.52,208.48c0,9.96 -8.08,18.04 -18.04,18.04c-9.96,0 -18.04,-8.08 -18.04,-18.04c0,-9.96 8.08,-18.04 18.04,-18.04c9.96,0 18.04,8.08 18.04,18.04z" class="st2"/>
      <path id="svg_47" d="m407.91,207.51c0,9.96 -8.08,18.04 -18.04,18.04c-9.96,0 -18.04,-8.08 -18.04,-18.04c0,-9.96 8.08,-18.04 18.04,-18.04c9.96,0.01 18.04,8.08 18.04,18.04z" class="st3"/>
      <path id="svg_48" d="m395.65,207.34c-1.21,-0.97 -2.87,-1.61 -4.97,-1.92l-0.03,-5.57c0.96,0.12 1.7,0.47 2.23,1.05c0.18,0.2 0.35,0.47 0.52,0.8l3.65,-0.02c-0.51,-1.4 -1.31,-2.53 -2.41,-3.38c-0.78,-0.61 -1.69,-1.06 -2.73,-1.34c-0.56,-0.16 -0.99,-0.23 -1.29,-0.23l-0.01,-2.02l-2.41,0.01l0.01,1.95c-1.84,0.01 -3.41,0.56 -4.71,1.65c-1.39,1.16 -2.08,2.66 -2.07,4.5c0.01,1.25 0.3,2.31 0.87,3.19c0.58,0.88 1.53,1.64 2.85,2.28c0.59,0.29 1.2,0.49 1.84,0.61c0.64,0.12 1.07,0.22 1.29,0.3l0.04,6.21c-1.02,0.01 -1.92,-0.36 -2.71,-1.09c-0.54,-0.5 -0.96,-1.12 -1.27,-1.85l-3.72,0.02c0.44,1.79 1.33,3.22 2.67,4.28c0.96,0.77 2.08,1.3 3.37,1.6c0.66,0.15 1.22,0.23 1.67,0.23l0.02,2.9l2.41,-0.01l-0.02,-2.9c1.89,-0.01 3.5,-0.56 4.84,-1.65c1.5,-1.21 2.24,-2.83 2.23,-4.86c0,-2 -0.72,-3.58 -2.16,-4.74zm-7.39,-2.31c-0.82,-0.18 -1.42,-0.38 -1.81,-0.6c-0.79,-0.46 -1.18,-1.14 -1.19,-2.05c-0.01,-0.83 0.29,-1.49 0.89,-1.97c0.54,-0.43 1.23,-0.65 2.07,-0.66l0.04,5.28zm5,9.38c-0.59,0.55 -1.43,0.91 -2.52,1.09l-0.04,-6.01c0.7,0 1.4,0.22 2.12,0.67c0.87,0.55 1.31,1.24 1.32,2.09c0,0.89 -0.3,1.62 -0.88,2.16z" class="st2"/>
     </g>
    </g>
   </g>
   <g id="svg_49">
    <path id="svg_50" d="m491.98,414.15c0,6.88 -44.51,12.46 -99.41,12.46s-99.41,-5.58 -99.41,-12.46c0,-6.88 44.51,-12.46 99.41,-12.46s99.41,5.57 99.41,12.46z" class="st5"/>
   </g>
   <g id="pot">
    <path id="svg_51" d="m307.37,331.23c4.17,-5.37 8.91,-10.79 14.1,-16.6c6.87,-7.69 9.91,-11.49 11.67,-20.91c1.65,-8.82 2.49,-18.01 -1.27,-26.04c-2.94,-6.3 -10.92,-11.57 -13.49,-17.77c-4.04,-9.77 -1.36,-17.26 10.8,-18.45c10.48,-1.03 16.78,5.57 26.85,6.16c11.33,0.66 17,-5.53 26.77,-7.49c11.07,-2.22 15.13,4.26 24.51,6.23c12.9,2.71 15.09,-5.73 27.27,-7.63c8.8,-1.36 10.24,4.91 15.29,5.74c12.55,2.06 22.3,-5.18 13.76,11.67c-4.96,9.8 -12.96,19.22 -14.32,29.44c-1.63,12.28 9.5,30.42 17.41,40.34c18.02,22.59 38.29,42.84 25.87,71.74c-11.84,27.57 -41.24,27.89 -70.81,31.02c-29.01,3.07 -59.08,0.24 -87.16,-1.39c-24.04,-1.39 -45.31,-11.8 -45.7,-35.19c-0.36,-21.27 6.78,-35.85 18.45,-50.87z" class="st16"/>
    <path id="svg_52" d="m463.62,246.12c8.53,-16.85 -1.22,-9.61 -13.76,-11.67c-5.05,-0.83 -6.49,-7.1 -15.29,-5.74c-12.18,1.9 -14.37,10.34 -27.27,7.63c-9.38,-1.97 -13.44,-8.45 -24.51,-6.23c-9.77,1.96 -15.44,8.16 -26.77,7.49c-10.07,-0.59 -16.37,-7.19 -26.85,-6.16c-12.16,1.19 -14.84,8.69 -10.8,18.45c2.56,6.2 10.54,11.47 13.49,17.77c3.75,8.03 2.92,17.22 1.27,26.04c-1.76,9.42 -4.8,13.22 -11.67,20.91c-5.19,5.8 -9.93,11.23 -14.1,16.6c-6.72,8.65 -11.93,17.16 -15.08,26.88c29.12,12.83 64.51,20.35 102.68,20.35c36.99,0 71.37,-7.06 99.95,-19.17c-4.22,-15.43 -16.67,-28.93 -28.21,-43.39c-7.91,-9.92 -19.04,-28.06 -17.41,-40.34c1.37,-10.2 9.37,-19.62 14.33,-29.42z" class="st13"/>
    <g id="svg_53">
     <path id="svg_54" d="m390.72,298.43l8.05,0l0,9.32c4.71,0.78 8.8,1.99 12.27,3.65c3.46,1.65 7.07,4.19 10.8,7.62l-11.42,6.82c-3.44,-2.61 -7.32,-4.61 -11.64,-5.98l0,17.52c4.9,1.09 8.76,2.32 11.59,3.69c4.6,2.21 8.16,4.97 10.68,8.27c2.52,3.3 3.79,7.07 3.79,11.3c0,3.3 -0.81,6.41 -2.43,9.32c-1.61,2.91 -3.83,5.29 -6.66,7.13c-2.83,1.84 -5.87,3.18 -9.14,4.02c-1.74,0.43 -4.35,0.76 -7.83,0.98l0,12.57l-8.05,0l0,-12.56c-4.43,-0.47 -8.22,-1.26 -11.37,-2.36c-3.16,-1.11 -6.15,-2.7 -8.97,-4.79c-2.14,-1.56 -4.52,-3.93 -7.13,-7.11l11.81,-7.05c4.6,5.51 9.82,8.74 15.67,9.67l0,-20.23c-6.1,-1.18 -11.02,-2.91 -14.77,-5.16c-3.76,-2.26 -6.47,-4.91 -8.13,-7.97c-1.67,-3.05 -2.5,-6.07 -2.5,-9.07c0,-2.55 0.72,-5.15 2.15,-7.78c1.43,-2.63 3.47,-4.88 6.12,-6.75c2.65,-1.87 5.55,-3.27 8.7,-4.21c1.85,-0.56 4.66,-1.07 8.43,-1.54l0,-9.32l-0.02,0zm0,37.36l0,-16.59c-4.14,0.59 -7.12,1.66 -8.95,3.2c-1.83,1.54 -2.75,3.28 -2.75,5.21c0,1.75 0.73,3.26 2.2,4.56c1.47,1.3 4.64,2.5 9.5,3.62zm8.05,16.03l0,18.97c3.92,-0.47 6.84,-1.57 8.76,-3.3c1.92,-1.73 2.88,-3.76 2.88,-6.09c0,-2.03 -0.85,-3.86 -2.55,-5.49c-1.71,-1.64 -4.74,-2.99 -9.09,-4.09z" class="st3"/>
    </g>
    <g id="svg_55">
     <path id="svg_56" d="m352.83,279.36c0,2.01 -0.93,3.64 -2.09,3.64l-6.68,0c-1.15,0 -2.09,-1.63 -2.09,-3.64l0,0c0,-2.01 0.93,-3.64 2.09,-3.64l6.68,0c1.15,0.01 2.09,1.64 2.09,3.64l0,0z" class="st3"/>
     <path id="svg_57" d="m367.89,279.36c0,2.01 -0.93,3.64 -2.09,3.64l-6.68,0c-1.15,0 -2.09,-1.63 -2.09,-3.64l0,0c0,-2.01 0.93,-3.64 2.09,-3.64l6.68,0c1.16,0.01 2.09,1.64 2.09,3.64l0,0z" class="st3"/>
     <path id="svg_58" d="m382.96,279.36c0,2.01 -0.93,3.64 -2.09,3.64l-6.68,0c-1.15,0 -2.09,-1.63 -2.09,-3.64l0,0c0,-2.01 0.93,-3.64 2.09,-3.64l6.68,0c1.15,0.01 2.09,1.64 2.09,3.64l0,0z" class="st3"/>
     <path id="svg_59" d="m413.09,279.36c0,2.01 -0.93,3.64 -2.09,3.64l-6.68,0c-1.15,0 -2.09,-1.63 -2.09,-3.64l0,0c0,-2.01 0.93,-3.64 2.09,-3.64l6.68,0c1.15,0.01 2.09,1.64 2.09,3.64l0,0z" class="st3"/>
     <path id="svg_60" d="m428.15,279.36c0,2.01 -0.94,3.64 -2.09,3.64l-6.68,0c-1.15,0 -2.09,-1.63 -2.09,-3.64l0,0c0,-2.01 0.93,-3.64 2.09,-3.64l6.68,0c1.16,0.01 2.09,1.64 2.09,3.64l0,0z" class="st3"/>
     <path id="svg_61" d="m443.22,279.36c0,2.01 -0.93,3.64 -2.09,3.64l-6.68,0c-1.15,0 -2.09,-1.63 -2.09,-3.64l0,0c0,-2.01 0.93,-3.64 2.09,-3.64l6.68,0c1.15,0.01 2.09,1.64 2.09,3.64l0,0z" class="st3"/>
     <path id="svg_62" d="m398.02,279.36c0,2.01 -0.93,3.64 -2.09,3.64l-6.68,0c-1.15,0 -2.09,-1.63 -2.09,-3.64l0,0c0,-2.01 0.93,-3.64 2.09,-3.64l6.68,0c1.16,0.01 2.09,1.64 2.09,3.64l0,0z" class="st3"/>
    </g>
   </g>
  </g>
  <g id="mobileoneexample">
   <path id="svg_63" d="m210.49,415.3c0,3.22 20.13,5.82 44.96,5.82c24.83,0 44.96,-2.61 44.96,-5.82c0,-3.22 -20.13,-5.82 -44.96,-5.82c-24.83,-0.01 -44.96,2.6 -44.96,5.82z" class="st5"/>
   <polygon id="svg_64" points="249.11,408.58 242.25,409.09 240.04,365.77 246.9,365.25  " class="st4"/>
   <polygon id="svg_65" points="255.32,414.18 241.8,413.14 242.28,404 255.58,409.23  " class="st4"/>
   <polygon id="svg_66" points="274.87,407.93 268.01,408.44 265.8,365.12 272.66,364.6  " class="st4"/>
   <polygon id="svg_67" points="281.08,413.54 267.56,412.49 268.04,403.36 281.34,408.58  " class="st4"/>
   <g id="svg_68" class="moblietow">
    <path d="m323.48,249.1c0,0 3.98,34.12 -28.98,36.53l-2.85,10.36c0,0 48.52,1.66 41.3,-59.1l-9.47,12.21z" class="st4" id="handsecmob"/>
    <path id="svg_69" d="m311.44,227.46c0.02,-0.18 0.03,-0.35 0.04,-0.53l1.36,-14.19c0.51,-5.31 -3.18,-9.99 -8.24,-10.45l-74.46,-6.85c-5.06,-0.47 -9.57,3.46 -10.07,8.77l-12.95,135.52c-0.02,0.18 -0.03,0.35 -0.04,0.53l-1.36,14.19c-0.51,5.31 3.18,9.99 8.24,10.46l74.45,6.85c5.06,0.46 9.57,-3.46 10.08,-8.77l12.95,-135.53z" class="st4"/>
    <path id="svg_70" d="m318.31,213.25c0.51,-5.31 -3.18,-9.99 -8.24,-10.45l-74.46,-6.85c-5.06,-0.47 -9.57,3.46 -10.07,8.77l-12.94,135.52c-0.02,0.18 -0.03,0.35 -0.04,0.53l-1.36,14.19c-0.51,5.31 3.18,9.99 8.24,10.46l74.46,6.85c5.06,0.46 9.57,-3.46 10.07,-8.77l12.94,-135.52c0.02,-0.18 0.03,-0.35 0.04,-0.53l1.36,-14.2z" class="st4"/>
    <path id="svg_71" d="m317.33,214.09c0.51,-5.22 -3.1,-9.82 -8.04,-10.29l-72.86,-6.8c-4.95,-0.46 -9.37,3.4 -9.87,8.61l-12.9,133.24c-0.02,0.18 -0.03,0.35 -0.04,0.52l-1.35,13.95c-0.51,5.22 3.1,9.82 8.04,10.29l72.86,6.8c4.95,0.46 9.37,-3.4 9.87,-8.62l12.9,-133.24c0.02,-0.17 0.03,-0.35 0.04,-0.52l1.35,-13.94z" class="st6"/>
    <path id="svg_72" d="m243.5,365.79l49.66,4.63c4.95,0.46 9.37,-3.4 9.87,-8.62l12.9,-133.24c0.02,-0.17 0.03,-0.35 0.04,-0.52l1.35,-13.96c0.51,-5.22 -3.1,-9.82 -8.04,-10.29l-20.07,-1.87l-45.71,163.87z" class="st7"/>
    <polygon id="svg_73" points="297.26,350.3 220.11,343.09 232.3,217.64 309.45,224.85   " class="st8"/>
    <path id="svg_74" d="m280.92,213.78c-0.09,1 -0.96,1.73 -1.94,1.65l-15.57,-1.39c-0.98,-0.09 -1.7,-0.97 -1.61,-1.96l0,0c0.09,-1 0.96,-1.73 1.95,-1.65l15.57,1.39c0.97,0.09 1.69,0.97 1.6,1.96l0,0z" class="st9"/>
    <path id="svg_75" d="m265.68,358.11c-0.4,4.19 -4.07,7.28 -8.21,6.9c-4.13,-0.38 -7.16,-4.09 -6.76,-8.28c0.4,-4.19 4.07,-7.28 8.2,-6.9c4.14,0.38 7.17,4.09 6.77,8.28z" class="st9"/>
    <polygon id="svg_76" points="248.87,345.78 297.26,350.3 309.45,224.85 283.64,222.44   " class="st10"/>
    <path id="svg_77" d="m290.61,267.84c-0.53,5.38 -2.71,9.59 -4.87,9.38c-2.16,-0.2 -3.49,-4.73 -2.96,-10.12c0.53,-5.39 2.71,-9.59 4.87,-9.38c2.16,0.2 3.49,4.73 2.96,10.12z" class="st11 eyetwom"/>
    <path id="svg_78" d="m293.55,271.08c-0.82,-2.78 -3.14,-5.02 -6.19,-5.58c-3.05,-0.56 -6.01,0.69 -7.77,3l1.39,2.79c1.59,-0.94 3.52,-1.34 5.49,-0.97c1.97,0.36 3.63,1.42 4.78,2.87l2.3,-2.11z" class="st11 eyetwoma"/>
    <path id="svg_79" d="m251.51,287.67c-0.03,0.27 -0.07,0.54 -0.09,0.81c-1.18,12.03 4.41,22.39 12.48,23.15c8.07,0.76 15.56,-8.37 16.74,-20.4c0.03,-0.27 0.05,-0.54 0.07,-0.81l-29.2,-2.75z" class="st12 mouthtwo"/>
    <path id="svg_80" d="m251.51,287.67c-0.03,0.27 -0.16,0.54 -0.09,0.81c2.51,10.52 6.23,11.69 14.3,12.45c8.07,0.76 9.64,-0.86 14.92,-9.7c0.14,-0.23 0.05,-0.54 0.07,-0.81l-29.2,-2.75z" class="st12 mouthtwoa"/>
    <polygon id="svg_81" points="276.39,283.14 268.33,282.38 268.46,281.04 274,281.56 269.75,273.61 270.97,272.98   " class="st11"/>
    <path id="svg_82" d="m252.61,265.23c-0.53,5.38 -2.71,9.58 -4.87,9.38c-2.16,-0.2 -3.49,-4.73 -2.96,-10.12c0.53,-5.39 2.71,-9.58 4.87,-9.38c2.16,0.21 3.48,4.74 2.96,10.12z" class="st11"/>
    <g id="svg_83" class="mahand">
     <path id="svg_84" d="m240.42,324.3c0,0 -54.88,-2.35 -24.46,-23.12l-3.46,-10.88c0,0 -48.47,42.04 36.17,41.53l-8.25,-7.53z" class="st4"/>
     <path id="svg_85" d="m251.5,334.8c-2.46,3.51 -8.55,3.73 -13.59,0.51c-5.04,-3.23 -7.14,-8.68 -4.68,-12.19c2.46,-3.51 8.55,-3.73 13.59,-0.51c5.05,3.23 7.14,8.68 4.68,12.19z" class="st4"/>
     <path id="svg_86" d="m240.98,316.81c1.5,1.09 1.37,4.01 -0.29,6.52c-1.66,2.5 -4.22,3.65 -5.72,2.55c-1.5,-1.09 -1.37,-4.01 0.29,-6.52c1.66,-2.5 4.22,-3.64 5.72,-2.55z" class="st4"/>
    </g>
   </g>
   <g id="svg_87" class="signalb">
    <polygon id="svg_88" points="302.58,187.28 307.49,188.86 318.32,171.8 305.11,167.29  " class="st13"/>
    <polygon id="svg_89" points="313.54,193.64 316.23,198.04 335.57,192.17 328.49,180.13  " class="st13"/>
    <polygon id="svg_90" points="289.08,186.77 294.17,185.98 296.17,165.86 282.34,167.78  " class="st13"/>
   </g>
   <path id="svg_91" d="m340.11,232.69c-0.33,4.52 -5.05,8.04 -10.54,7.87c-5.49,-0.17 -9.68,-3.97 -9.35,-8.49c0.33,-4.52 5.05,-8.04 10.54,-7.87c5.5,0.17 9.68,3.97 9.35,8.49z" class="st4 moonhandround"/>
  </g>
  <g id="mobiletwoexample">
   <path id="svg_92" d="m495.82,413.99c0,3.22 20.13,5.82 44.96,5.82c24.83,0 44.96,-2.61 44.96,-5.82c0,-3.22 -20.13,-5.82 -44.96,-5.82c-24.83,0 -44.96,2.61 -44.96,5.82z" class="st5"/>
   <polygon id="svg_93" points="562.16,409.58 555.5,407.91 552.59,367.96 545.85,367.96 548.64,406.18 548.62,406.18 549.24,413.62    562.5,413.62 " class="st4"/>
   <g id="svg_94" class="signala">
    <polygon id="svg_95" points="481.44,196.53 486.51,194 481.87,172.27 468.04,178.9  " class="st13"/>
    <polygon id="svg_96" points="494.93,193.09 500.42,194.47 511.08,174.98 496.27,170.98  " class="st13"/>
    <polygon id="svg_97" points="470.46,206.52 473.84,201.98 459.93,184.66 450.55,196.81  " class="st13"/>
   </g>
   <path id="svg_98" d="m527.92,368.59l-7.98,-0.82c-12.04,16.79 -1.88,36.05 -0.16,39.05l-7.11,1.81l0,4.02l13.33,0l0,-7.41c-11.79,-17.75 1.92,-36.65 1.92,-36.65z" class="st4 leg"/>
   <path id="svg_99" d="m528.45,367.96l-6.74,0l-2.91,39.95l-6.66,1.67l-0.34,4.04l13.26,0l0.62,-7.44l-0.02,0l2.79,-38.22z" class="st4 lega"/>
   <g id="svg_100" class="mone">
    <path id="svg_101" d="m494.2,301.28c0,0 -52.86,4.96 -17.35,23.54l4.54,-1.65c0,0 -23.95,-10.32 14.04,-14.87l-1.23,-7.02z" class="st4"/>
    <path id="svg_102" d="m477.08,235.48c-0.02,-0.17 -0.04,-0.34 -0.05,-0.51l-1.84,-13.71c-0.69,-5.13 2.64,-9.8 7.43,-10.45l70.57,-9.45c4.79,-0.64 9.24,2.99 9.92,8.12l17.54,130.89c0.02,0.17 0.04,0.34 0.05,0.51l1.84,13.71c0.69,5.13 -2.64,9.8 -7.43,10.45l-70.57,9.46c-4.79,0.64 -9.23,-3 -9.92,-8.12l-17.54,-130.9z" class="st4"/>
    <path id="svg_103" d="m557.55,210.04c-0.71,-5.12 -5.17,-8.74 -9.95,-8.08l-70.52,9.77c-4.79,0.66 -8.1,5.36 -7.39,10.48l18.12,130.81c0.02,0.17 0.05,0.34 0.08,0.51l1.9,13.7c0.71,5.13 5.17,8.74 9.96,8.08l70.52,-9.77c4.79,-0.67 8.1,-5.36 7.39,-10.48l-18.12,-130.81c-0.02,-0.17 -0.05,-0.34 -0.08,-0.51l-1.91,-13.7z" class="st4"/>
    <path id="svg_104" d="m556.82,211.05c-0.69,-5.04 -5.05,-8.6 -9.74,-7.96l-69.03,9.47c-4.69,0.64 -7.93,5.25 -7.24,10.29l17.65,128.64c0.02,0.17 0.05,0.33 0.08,0.5l1.85,13.47c0.69,5.04 5.05,8.6 9.74,7.96l69.03,-9.47c4.69,-0.65 7.93,-5.25 7.24,-10.29l-17.65,-128.64c-0.02,-0.17 -0.05,-0.33 -0.08,-0.5l-1.85,-13.47z" class="st14"/>
    <path id="svg_105" d="m522.12,370.41l47.05,-6.45c4.69,-0.65 7.93,-5.25 7.24,-10.29l-17.65,-128.64c-0.02,-0.17 -0.05,-0.33 -0.08,-0.5l-1.85,-13.47c-0.69,-5.04 -5.05,-8.6 -9.74,-7.96l-19.02,2.61l-5.95,164.7z" class="st15"/>
    <rect id="svg_106" height="122.26" width="73.78" class="st8" transform="matrix(0.9908,-0.1357,0.1357,0.9908,-34.2952,73.7014) " y="227.37" x="486.76"/>
    <path id="svg_107" d="m523.01,218.7c0.14,0.96 -0.51,1.85 -1.44,1.98l-14.74,2.08c-0.93,0.13 -1.8,-0.54 -1.93,-1.5l0,0c-0.14,-0.96 0.51,-1.85 1.44,-1.98l14.74,-2.08c0.94,-0.14 1.8,0.53 1.93,1.5l0,0z" class="st9"/>
    <path id="svg_108" d="m540.96,358.32c0.56,4.04 -2.16,7.76 -6.07,8.31c-3.91,0.54 -7.54,-2.3 -8.1,-6.34c-0.56,-4.05 2.16,-7.77 6.07,-8.31c3.91,-0.55 7.54,2.3 8.1,6.34z" class="st9"/>
    <polygon id="svg_109" points="522.65,350.34 568.5,344.06 551.91,222.93 527.46,226.28     " class="st10"/>
    <path id="svg_110" d="m516.94,287.67c-1.89,0.26 -3.26,-0.15 -4.07,-1.21c-2.62,-3.43 1.97,-12.36 2.5,-13.37l1,0.53c-1.35,2.56 -4.45,9.74 -2.61,12.16c0.64,0.84 1.93,1.05 3.83,0.62l0.25,1.11c-0.31,0.07 -0.62,0.12 -0.9,0.16z" class="st11"/>
    <path id="svg_111" d="m523.97,297.76c-6.57,1.01 -11.75,1.74 -17.54,-0.74c2.95,10.88 10.72,12.1 19.09,10.81c8.36,-1.29 14.45,-4.64 13.98,-15.91c-5.58,4.81 -8.96,4.83 -15.53,5.84z" class="st12 mouthone"/>
    <path id="svg_112" d="m523.77,300.8c-6.57,1.01 -12.92,-1.05 -17.72,-5.14c2.95,10.88 11.18,18.29 19.54,17c8.36,-1.29 13.99,-10.83 13.52,-22.09c-3.33,5.35 -8.77,9.22 -15.34,10.23z" class="st12 mouthonea"/>
    <g id="svg_113" class="mthand">
     <path id="svg_114" d="m594.79,351.21c-2.59,3.72 -8.31,4.44 -12.77,1.6c-4.46,-2.83 -5.98,-8.15 -3.4,-11.87c2.59,-3.72 8.31,-4.44 12.77,-1.6c4.47,2.83 5.99,8.15 3.4,11.87z" class="st4"/>
     <path id="svg_115" d="m573.49,304.07c0,0 29.72,15.51 6.31,33.09l0.47,6.36c0,0 41.21,-22.44 -8.43,-50.49l1.65,11.04z" class="st4"/>
    </g>
    <path id="svg_116" d="m541.28,266.27c0.74,5.71 -0.48,10.58 -2.73,10.88c-2.25,0.29 -4.68,-4.1 -5.43,-9.81c-0.74,-5.71 0.48,-10.58 2.73,-10.88c2.26,-0.29 4.69,4.1 5.43,9.81z" class="st11"/>
    <path id="svg_117" d="m502.54,272.09c0.74,5.71 -0.48,10.58 -2.73,10.88c-2.25,0.29 -4.68,-4.1 -5.43,-9.81c-0.74,-5.71 0.48,-10.58 2.73,-10.88c2.25,-0.3 4.68,4.09 5.43,9.81z" class="st11 eyeb"/>
    <path id="svg_118" d="m505.9,273.55c-1.65,-2.39 -4.55,-3.78 -7.62,-3.37c-3.07,0.42 -5.5,2.54 -6.45,5.28l2.2,2.21c1.22,-1.39 2.93,-2.37 4.91,-2.64c1.98,-0.27 3.89,0.21 5.44,1.23l1.52,-2.71z" class="st11 eyeba"/>
   </g>
   <path id="svg_119" d="m482.66,328.28c-2.38,3.76 -7.98,4.48 -12.51,1.61c-4.53,-2.87 -6.27,-8.24 -3.89,-12c2.38,-3.76 7.98,-4.48 12.51,-1.61c4.53,2.87 6.27,8.24 3.89,12z" class="st4 mhandmoon"/>
  </g>
 </g>
</svg>