<svg xmlns="http://www.w3.org/2000/svg" viewBox="0 0 800 449.86"><g><title>background</title><rect fill="#fff" id="canvas_background" height="450" width="800" y="-1" x="-1"/></g>
 
 
<style>
#white {
    animation-name: white;
    animation-duration: 15s;
    
    transform-origin: center;
    transform-box: fill-box;
}
@keyframes white {
    0%   { transform: scale(0); }
    2%   { transform: scale(1.2); }
    
    4% { transform: scale(01); }
} 
#leaf1,#leaf2  {
    animation-name: l1;
    animation-duration: 15s;
    
    transform-origin: bottom;
    transform-box: fill-box;
}
@keyframes l1 {
    0%   { transform: scale(0); }
	 5%   { transform: scale(0); }
    6%   { transform: scale(1.2); }
    
    7% { transform: scale(1); }
} 
#leaf3,#leaf4  {
    animation-name: l2;
    animation-duration: 15s;
    
    transform-origin: bottom;
    transform-box: fill-box;
}
@keyframes l2 {
    0%   { transform: scale(0); }
	 5%   { transform: scale(0); }
    6%   { transform: scale(1.2); }
    
    7% { transform: scale(1); }
}
#mobile  {
    animation-name: m;
    animation-duration: 15s;
    
    transform-origin: bottom;
    transform-box: fill-box;
}
@keyframes m {
    0%   { transform: scale(0); }
	 8%   { transform: scale(0); }
    9%   { transform: scale(1.2); }
    
    10% { transform: scale(1); }
}
#online  {
    animation-name: on;
    animation-duration: 15s;
    
    transform-origin: bottom;
    transform-box: fill-box;
}
@keyframes on {
    0%   { transform: scale(0); }
	 11%   { transform: scale(0); }
    12%   { transform: scale(1.2); }
    
    13% { transform: scale(1); }
}
#debt  {
    animation-name: db;
    animation-duration: 15s;
    
    transform-origin: bottom;
    transform-box: fill-box;
}
@keyframes db {
    0%   { transform: scale(0); }
	 13%   { transform: scale(0); }
    14%   { transform: scale(1.2); }
    
    15% { transform: scale(1); }
}
#man  {
    animation-name: man;
    animation-duration: 15s;
    
    transform-origin: bottom;
    transform-box: fill-box;
}
@keyframes man {
    0%   { transform: scale(0); }
	 11%   { transform: scale(0); }
    12%   { transform: scale(1.2); }
    
    13% { transform: scale(1); }
}

#l1,#l2 {
    animation-name: l12;
    animation-duration: 2s;
	animation-direction:alternate;
    animation-iteration-count: infinite;
    transform-origin: bottom;
    transform-box: fill-box;
}
 @keyframes l12 {
    0%{transform: rotateZ(5deg);}
   
    100%{transform: rotateZ(-5deg);}
} 
#l4,#l3 {
    animation-name: l34;
    animation-duration: 2s;
	animation-direction:alternate;
    animation-iteration-count: infinite;
    transform-origin: bottom;
    transform-box: fill-box;
}
 @keyframes l34 {
    0%{transform: rotateZ(-5deg);}
   
    100%{transform: rotateZ(5deg);}
}
#rhand {
    animation: rh 15s linear forwards;
   transform-origin: 90% 20%;
    transform-box: fill-box;
}
 @keyframes rh {
    0%{transform: rotateZ(-75deg);}
	 10%{transform: rotateZ(-75deg);}
	20%{transform: rotateZ(10deg);}
	50%{transform: rotateZ(10deg);}
	60%{transform: rotateZ(-75deg);}
   
    100%{transform: rotateZ(-75deg);}
}
#money{ animation: mo 15s linear forwards; }
@keyframes mo {
	0%{opacity:0}
	10%{opacity:0}
	12%{opacity:1}
	30%{transform:translateY(0px)}
	35%{transform:translateY(5px)}
	45%{transform:translateY(5px)}
	46%{opacity:1}
	47%{opacity:0}
	100%{opacity:0}
}

#hand1 {
    animation: mh 15s linear forwards;
    
    transform-origin: 10% 20%;
    transform-box: fill-box;
}
 @keyframes mh {
    0%{transform: rotateZ(45deg);}
	 20%{transform: rotateZ(45deg);}
	30%{transform: rotateZ(-16deg);}
	50%{transform: rotateZ(-16deg);}
	60%{transform: rotateZ(45deg);}
   
    100%{transform: rotateZ(45deg);}
}
#eyes2{ animation: e2 15s linear forwards; }
@keyframes e2 {
	0%{opacity:0}
	40%{opacity:0}
	41%{opacity:1}
	60%{opacity:1}
	61%{opacity:0}
	100%{opacity:0}
	
}

#eyes1 { animation: ey 15s linear  forwards;

    transform-origin:50% 50%;
    transform-box: fill-box;}
@keyframes ey {
	0%{opacity:1; transform:rotateX(0deg)}
	15%{transform:rotateX(0deg)}
	16%{transform:rotateX(85deg)}
	17%{transform:rotateX(0deg)}
	40%{opacity:1}
	41%{opacity:0}
	60%{opacity:0}
	61%{opacity:1}
	100%{opacity:1}
	
} 

#eyebrows { animation: br 15s linear forwards; }

@keyframes br {
	
	
	20%{transform:translateY(0px)}
	25%{transform:translateY(-5px)}
	40%{transform:translateY(-5px)}
	41%{transform:translateY(-5px)}
	42%{transform:translateY(0px)}
	
}

</style>
 
 
 
  <title>online debt</title>
  <g id="Layer_13" data-name="Layer 13">
    <g id="Layer_2" data-name="Layer 2">
      <g id="Layer_5" data-name="Layer 5">
        <g id="Layer_4" data-name="Layer 4">
          <g id="Layer_3" data-name="Layer 3">
            <rect width="800" height="449.86" fill="#d1aef9"/>
          </g>
        </g>
      </g>
    </g>
  </g>
  <g id="leaf4">
    <g id="l4">
      <path d="M638.15,274.63S688,200.55,711,202.35,710.2,249.06,638.15,274.63Z" transform="translate(0 0.08)" fill="#ff6a6f"/>
      <path d="M703.24,218.49c.39-.12.4-.76,0-.64S702.86,218.61,703.24,218.49Z" transform="translate(0 0.08)" fill="#3da975"/>
      <path d="M650.14,265.8A61.33,61.33,0,0,0,663,257a152.85,152.85,0,0,0,11.56-11.37c3.85-4.1,7.63-8.3,11.58-12.26,2-2,4-3.86,6-5.65,1.06-.92,2.13-1.8,3.22-2.66.25-.2.5-.4.76-.59l.21-.17,0,0,.44-.33q.86-.65,1.71-1.26c4.49-3.25,9.1-6.14,13.63-9.26l1.67-1.17a1.86,1.86,0,0,0,.87-1.85.9.9,0,0,0-1.45-.44c-4.51,3.18-9.12,6.07-13.64,9.24-2.32,1.63-4.62,3.34-6.85,5.18s-4.13,3.58-6.11,5.5c-4,3.89-7.81,8.06-11.64,12.18s-7.49,8-11.49,11.61c-1,.9-2,1.78-3,2.62-.5.42-1,.82-1.51,1.22l-.71.56c.19-.15,0,0,0,0l-.2.15-.41.31a53.93,53.93,0,0,1-6.41,4.13c-.54.3-1.08.57-1.63.84a1.83,1.83,0,0,0-.86,1.85C648.9,266,649.48,266.13,650.14,265.8Z" transform="translate(0 0.08)" fill="#ff9f6f"/>
      <path d="M695.32,224.33c.06-2.69.11-5.39.17-8.09a.85.85,0,0,0-1.16-.91,1.92,1.92,0,0,0-1.22,1.66l-.18,8.09a.87.87,0,0,0,1.17.92A2,2,0,0,0,695.32,224.33Z" transform="translate(0 0.08)" fill="#ff9f6f"/>
      <path d="M680.45,240a37.53,37.53,0,0,0,9.77.6,1.8,1.8,0,0,0,1.48-1.36c.16-.7-.15-1.37-.79-1.33a38.51,38.51,0,0,1-4.8,0c-.78,0-1.56-.12-2.33-.21l-.51-.07-.14,0-.25,0c-.39-.06-.79-.13-1.17-.21a1.56,1.56,0,0,0-1.64,1C679.77,239,679.86,239.87,680.45,240Z" transform="translate(0 0.08)" fill="#ff9f6f"/>
      <path d="M674.71,245a13.37,13.37,0,0,1,.08-2.27c0-.05,0-.09,0-.14s0-.12,0,.08a1.36,1.36,0,0,1,0-.27c0-.19.07-.37.1-.56.08-.4.18-.8.29-1.2s.24-.77.37-1.15c0-.1,0-.06,0,.11l.06-.18a2.33,2.33,0,0,0,.11-.28l.23-.54c.17-.39.36-.78.56-1.17.1-.17.19-.35.29-.53l.15-.26c.08-.13.07-.11,0,.07l.11-.18a2,2,0,0,0,.37-1,1,1,0,0,0-.33-.8,1.27,1.27,0,0,0-1.69.53,18.78,18.78,0,0,0-3,10.51c0,.65.48,1.16,1.16.91A1.92,1.92,0,0,0,674.71,245Z" transform="translate(0 0.08)" fill="#3da975"/>
    </g>
  </g>
  <g id="leaf3">
    <g id="l3">
      <path d="M634.64,258S652,153.94,681.73,151.44s35.16,82.05-43.58,123.19Z" transform="translate(0 0.08)" fill="#ff9f6f"/>
      <path d="M641.94,252.33q6.46-7.53,12.83-15.17,3.15-3.79,6.28-7.61c2-2.38,3.91-4.76,5.74-7.24a57.71,57.71,0,0,0,4.93-7.79,59.29,59.29,0,0,0,3.49-8.43,151.45,151.45,0,0,0,4.55-17.8c1.26-6.12,2.45-12.23,3.67-18.35l.45-2.28c.14-.7-.14-1.37-.8-1.33a1.82,1.82,0,0,0-1.48,1.37q-1.83,9.17-3.66,18.32c-1.19,5.94-2.47,11.9-4.29,17.85-.21.69-.43,1.37-.66,2.06l-.33,1c-.07.18-.13.35-.19.53s-.05.13-.07.2-.11.3,0,.11c-.51,1.38-1.07,2.76-1.7,4.12s-1.29,2.65-2,3.93l-.25.44,0,.05-.15.24c-.2.33-.41.66-.62,1-.41.65-.84,1.28-1.28,1.91-1.72,2.45-3.59,4.78-5.47,7.09q-3.11,3.81-6.24,7.58-6.29,7.6-12.7,15.08L640.29,251a1.35,1.35,0,0,0,0,1.82C640.76,253.22,641.41,253,641.94,252.33Z" transform="translate(0 0.08)" fill="#ff6a6f"/>
      <path d="M677.59,193.42l-6.15-11.7-1.74-3.3c-.27-.51-1.09-.47-1.62.05a1.68,1.68,0,0,0-.46,1.9l6.15,11.7,1.74,3.3c.27.52,1.09.48,1.62-.05A1.68,1.68,0,0,0,677.59,193.42Z" transform="translate(0 0.08)" fill="#ff6a6f"/>
      <path d="M668.13,216.8q-2.52-3.74-5-7.46L658,201.85l-2.85-4.22a1,1,0,0,0-1.62.05,1.67,1.67,0,0,0-.47,1.9l5,7.46,5.06,7.5,2.84,4.21a1,1,0,0,0,1.62-.05A1.66,1.66,0,0,0,668.13,216.8Z" transform="translate(0 0.08)" fill="#ff6a6f"/>
      <path d="M677.62,205.2c5.68-2.29,11-6.46,16-10.95,1.4-1.25,2.78-2.53,4.16-3.81a1.67,1.67,0,0,0,.46-1.91c-.33-.47-1-.49-1.62.06-2.39,2.23-4.79,4.45-7.27,6.53-.62.52-1.25,1-1.87,1.53L687,197l-.25.19-.08.06,0,0c0,.09-.35.26-.41.31l-.58.43a45.28,45.28,0,0,1-3.79,2.52c-.74.45-1.48.86-2.23,1.24l-.52.26-.27.12-.17.08c.17-.08.19-.09.06,0l-1.15.48a2,2,0,0,0-1.22,1.67C676.47,204.92,677,205.46,677.62,205.2Z" transform="translate(0 0.08)" fill="#ff6a6f"/>
      <path d="M662.59,231.61a56.34,56.34,0,0,0,17.19-8.07c1.62-1.11,3.21-2.31,4.77-3.58a1.65,1.65,0,0,0,.47-1.9c-.36-.51-1-.44-1.62.05l-1,.8-.42.33c-.05,0-.34.26-.05,0l-.34.25c-.64.49-1.3,1-2,1.42-1.34.94-2.71,1.81-4.09,2.63s-2.75,1.54-4.14,2.21l-.49.23-.27.13c-.31.14.26-.12,0,0l-1.08.48q-1,.43-2.07.84a49.45,49.45,0,0,1-4.8,1.54,1.92,1.92,0,0,0-1.22,1.67A.87.87,0,0,0,662.59,231.61Z" transform="translate(0 0.08)" fill="#ff6a6f"/>
    </g>
  </g>
  <g id="leaf2">
    <g id="l2">
      <path d="M137.85,307.47s-39.73-91.93-65.51-94.68S63.66,264.46,137.85,307.47Z" transform="translate(0 0.08)" fill="#ff6a6f"/>
      <path d="M77.62,232.19c-.4-.21-.28-.93.12-.71S78,232.4,77.62,232.19Z" transform="translate(0 0.08)" fill="#3da975"/>
      <path d="M126.45,295.27a68.8,68.8,0,0,1-12.31-12.34A173,173,0,0,1,103.72,268c-3.39-5.32-6.7-10.72-10.25-15.9-1.75-2.56-3.56-5.07-5.46-7.46q-1.47-1.84-3-3.6l-.71-.81-.21-.23s-.2-.22,0,0l-.41-.46L82,237.78c-4.29-4.5-8.77-8.64-13.13-13l-1.61-1.63a2.09,2.09,0,0,1-.57-2.21,1,1,0,0,1,1.68-.19c4.32,4.43,8.81,8.56,13.14,13,2.23,2.28,4.41,4.63,6.5,7.12s3.81,4.8,5.6,7.32c3.62,5.11,7,10.49,10.33,15.82s6.62,10.35,10.29,15.17q1.36,1.79,2.79,3.5c.46.56.93,1.12,1.41,1.66.22.26.45.51.67.76-.18-.21,0,0,0,0l.19.21.39.42a60,60,0,0,0,6.22,5.87q.8.66,1.62,1.26a2.07,2.07,0,0,1,.57,2.22C127.78,295.76,127.11,295.76,126.45,295.27Z" transform="translate(0 0.08)" fill="#ff9f6f"/>
      <path d="M85.16,240.26l1.47-9a1,1,0,0,1,1.47-.77,2.19,2.19,0,0,1,1,2.09c-.49,3-1,6-1.46,9a1,1,0,0,1-1.47.77A2.17,2.17,0,0,1,85.16,240.26Z" transform="translate(0 0.08)" fill="#ff9f6f"/>
      <path d="M98.33,260.58a42.49,42.49,0,0,1-10.89-1.34,2,2,0,0,1-1.36-1.81c0-.81.45-1.48,1.15-1.3a45.46,45.46,0,0,0,5.28,1c.88.11,1.75.19,2.62.24l.57,0c-.32,0,.1,0,.16,0h.29c.45,0,.89,0,1.34,0a1.77,1.77,0,0,1,1.6,1.42C99.28,259.65,99,260.57,98.33,260.58Z" transform="translate(0 0.08)" fill="#ff9f6f"/>
      <path d="M103.63,267.32a15.48,15.48,0,0,0,.38-2.51c0-.06,0-.11,0-.16s0-.14,0,.09a3,3,0,0,0,0-.31v-.63c0-.46,0-.92-.07-1.38s-.11-.9-.17-1.35c0-.12,0-.07,0,.14l0-.22c0-.11,0-.22-.07-.33s-.09-.43-.14-.65c-.11-.46-.23-.93-.38-1.4-.06-.21-.13-.43-.2-.64l-.12-.32,0,.08a1.8,1.8,0,0,0-.08-.21,2.35,2.35,0,0,1-.2-1.2,1.09,1.09,0,0,1,.53-.82,1.42,1.42,0,0,1,1.75.93,21,21,0,0,1,1.2,12.21c-.17.72-.77,1.18-1.47.77A2.14,2.14,0,0,1,103.63,267.32Z" transform="translate(0 0.08)" fill="#3da975"/>
    </g>
  </g>
  <g id="leaf1">
    <g id="l1">
      <path d="M145.14,289.89s2.25-118.34-30-127.21-55.63,83.25,22.73,144.79Z" transform="translate(0 0.08)" fill="#ff9f6f"/>
      <path d="M138.26,282.11q-5.58-9.64-11-19.37-2.7-4.83-5.37-9.69c-1.66-3-3.33-6.05-4.84-9.16a64.5,64.5,0,0,1-3.84-9.6,68.37,68.37,0,0,1-2.11-10,169.34,169.34,0,0,1-1.35-20.56c-.14-7-.19-14-.28-21l0-2.61c0-.8.44-1.48,1.15-1.29a2,2,0,0,1,1.36,1.81c.09,7,.16,14,.26,21,.1,6.79.28,13.63,1.07,20.56q.13,1.2.3,2.4c0,.39.11.78.17,1.17l.09.62a2.23,2.23,0,0,1,0,.23c0,.09.06.36,0,.14.28,1.63.62,3.26,1,4.88s.87,3.19,1.43,4.76c.07.18.13.36.19.54-.08-.23,0,0,0,.06l.11.3.48,1.2c.33.8.67,1.59,1,2.37,1.39,3.06,3,6,4.57,8.94q2.64,4.85,5.31,9.64,5.38,9.68,10.91,19.24l1.37,2.38a1.52,1.52,0,0,1-.33,2C139.38,283.32,138.72,282.9,138.26,282.11Z" transform="translate(0 0.08)" fill="#ff6a6f"/>
      <path d="M111.06,209.82l9.18-11.63,2.6-3.29c.4-.51,1.3-.29,1.77.39a1.89,1.89,0,0,1,.13,2.2l-9.19,11.63L113,212.4c-.41.51-1.31.3-1.78-.39A1.88,1.88,0,0,1,111.06,209.82Z" transform="translate(0 0.08)" fill="#ff6a6f"/>
      <path d="M116.69,237.54l7.08-7.19,7.12-7.22,4-4.06a1.17,1.17,0,0,1,1.78.39,1.86,1.86,0,0,1,.12,2.19l-7.08,7.19q-3.57,3.6-7.12,7.22c-1.34,1.35-2.67,2.71-4,4.06a1.17,1.17,0,0,1-1.78-.39A1.86,1.86,0,0,1,116.69,237.54Z" transform="translate(0 0.08)" fill="#ff6a6f"/>
      <path d="M108.6,222.8c-5.79-3.69-10.76-9.38-15.34-15.35-1.29-1.67-2.54-3.36-3.8-5.06a1.84,1.84,0,0,1-.12-2.19c.47-.46,1.24-.34,1.77.39,2.18,2.95,4.38,5.9,6.68,8.7.58.7,1.16,1.39,1.75,2.06l.39.44a2.85,2.85,0,0,0,.23.26l.08.09c.11.13.1.12,0,0a2.27,2.27,0,0,0,.39.43l.55.59c1.18,1.25,2.4,2.45,3.65,3.56.73.64,1.46,1.24,2.21,1.82l.53.39.26.19.18.13-.06,0,1.16.77a2.17,2.17,0,0,1,1,2.09C109.93,222.73,109.28,223.23,108.6,222.8Z" transform="translate(0 0.08)" fill="#ff6a6f"/>
      <path d="M119.75,255a63.29,63.29,0,0,1-17.3-12.43q-2.34-2.34-4.52-4.92a1.84,1.84,0,0,1-.12-2.19c.5-.49,1.2-.29,1.77.38.31.37.62.73.94,1.09l.39.45c0,.05.32.35,0,.05.1.12.21.23.32.35.61.67,1.24,1.33,1.87,2,1.29,1.31,2.62,2.55,4,3.73s2.72,2.26,4.11,3.29l.5.36.27.2c.31.22-.27-.19,0,0l1.1.75c.7.47,1.4.92,2.11,1.35a56,56,0,0,0,5,2.69,2.12,2.12,0,0,1,1,2.08A1,1,0,0,1,119.75,255Z" transform="translate(0 0.08)" fill="#ff6a6f"/>
    </g>
  </g>
  <g id="white">
    <path d="M132.75,48.25a35.29,35.29,0,0,1,18.34-16.31c17.43-6.63,68.14-22.9,98.77-1.26,37.43,26.46,181.24-46.23,233,2.69S638.08,13,660.15,50.71s-33.48,169.53-6.09,212S683,434.54,633.52,425.86s-105.66-25.23-150.23.42S299.8,405,266.15,418.92s-133.34,11.72-124.2-21-44.07-121-.59-172.41C180.49,179.19,107.75,94.36,132.75,48.25Z" transform="translate(0 0.08)" fill="#fff"/>
  </g>
  <g id="man">
    <ellipse cx="533.18" cy="384.77" rx="68.68" ry="10.55" fill="#d1aef9"/>
    <path d="M543.4,369.63s-9.52-3-10.39,1-13.21,11.57-11.36,15,19.42-.1,21.75-1.75S548.35,382.33,543.4,369.63Z" transform="translate(0 0.08)" fill="#1c2023"/>
    <path d="M567.83,371.46s-9.2-2.92-10.06,1.15-13.22,11.56-11.36,14.95,19.41-.1,21.75-1.74S572.79,384.16,567.83,371.46Z" transform="translate(0 0.08)" fill="#1c2023"/>
    <g id="upper">
      <g id="rhand">
        <path d="M541.94,190.05c4.86-1.72,8.17-6.44,7.83-11.14-.39-5.36-4.59-8.66-10-8.33h0l-34.69,7.79c-4.1.25-8,3.26-8.05,7.11,0,3.35,2.91,5.26,6.41,5.56l33.91-.3A11.84,11.84,0,0,0,541.94,190.05Z" transform="translate(0 0.08)" fill="#2b3036"/>
        <path d="M469.56,190.5a4,4,0,0,0,1.28-2.05h0a2.41,2.41,0,0,0,2-3l-.32-.89a2.71,2.71,0,0,0-3.26-1.44l-.08,0a28.81,28.81,0,0,0-8.82,1.76c-6,2.25-7.73,5.63-6.86,7.13.62,1.06,4.81,0,8-.93a.74.74,0,0,1,.73,1.22h0a.68.68,0,0,0-.09.9,1,1,0,0,0,1.06.27l3.14-1.07A8.28,8.28,0,0,0,469.56,190.5Z" transform="translate(0 0.08)" fill="#f4a48d"/>
        <path d="M469.24,191.52l48.42-.69c3.58-1.26,6.76-6.8,4.88-10.53-1.47-2.94-4.54-1.91-8.47-2.59-1.85-.33-5.5.18-7.41.45l-38.08,4.91Z" transform="translate(0 0.08)" fill="#2b3036"/>
        <g id="money">
          <path d="M466,193.43c8.07,2.48,11.18,18.85,11.78,28s-3.3,16.7-15.11,17.26-17.51-8.38-16.55-21.1S458,193.35,458,193.35s2-1.13,1.42-2.59-2.51-4.09-2.65-4.65,2.69-.15,6.24,0,4.74-.25,5,.31S460.67,191.78,466,193.43Z" transform="translate(0 0.08)" fill="#3a8280"/>
          <path d="M464.32,192.41l-5.06,0a.44.44,0,0,1-.39-.47v-.65a.44.44,0,0,1,.39-.46l5.06,0a.43.43,0,0,1,.39.46V192A.43.43,0,0,1,464.32,192.41Z" transform="translate(0 0.08)" fill="#ffd640"/>
          <path d="M461.81,219.52v2h2.79l0-2c2.85-.43,4.46-2.19,4.64-4.57L466,215a2.62,2.62,0,0,1-1.37,1.88l0-4.57c3.27-1.14,4.31-2.56,4.29-4.71,0-2.46-1.84-4-4.19-4.42l0-1.62-2.76,0v1.6c-3.08.47-4.14,2.39-4.31,4.26l3.28,0a2.39,2.39,0,0,1,.87-1.46l0,3.93c-3.3,1-4.51,2.53-4.5,5C457.26,217.6,459.07,219.15,461.81,219.52Zm2.71-10.67,0-3.17a1.64,1.64,0,0,1,1,1.58A1.59,1.59,0,0,1,464.52,208.85Zm-4,6.34a1.94,1.94,0,0,1,1.23-1.93l0,3.71A1.77,1.77,0,0,1,460.54,215.19Z" transform="translate(0 0.08)" fill="#ffd640"/>
          <g>
            <path d="M453.07,225.18a12.43,12.43,0,0,1,1.84-.14,3.83,3.83,0,0,1,2.72.84,3.06,3.06,0,0,1,.95,2.4,3.54,3.54,0,0,1-1,2.61,4.12,4.12,0,0,1-3,1,14,14,0,0,1-1.58-.08Zm.87,5.93a5.44,5.44,0,0,0,.87,0,2.58,2.58,0,0,0,2.86-2.85,2.39,2.39,0,0,0-2.72-2.58,4.91,4.91,0,0,0-1,.09Z" transform="translate(0 0.08)" fill="#fff"/>
            <path d="M460.2,229.55a1.55,1.55,0,0,0,1.65,1.67,3.18,3.18,0,0,0,1.34-.25l.15.63a3.92,3.92,0,0,1-1.61.3,2.24,2.24,0,0,1-2.37-2.43,2.34,2.34,0,0,1,2.26-2.6,2,2,0,0,1,2,2.27,3.32,3.32,0,0,1,0,.41Zm2.57-.63a1.24,1.24,0,0,0-1.22-1.42,1.45,1.45,0,0,0-1.34,1.42Z" transform="translate(0 0.08)" fill="#fff"/>
            <path d="M464.66,231.8c0-.33,0-.82,0-1.25v-5.82h.87v3h0a1.78,1.78,0,0,1,1.64-.89,2.17,2.17,0,0,1,2,2.46,2.3,2.3,0,0,1-2.16,2.58,1.7,1.7,0,0,1-1.61-.91h0l0,.8Zm.91-1.93a1.65,1.65,0,0,0,0,.32,1.34,1.34,0,0,0,1.31,1c.92,0,1.46-.75,1.46-1.85s-.49-1.79-1.43-1.79a1.39,1.39,0,0,0-1.33,1.07,1.73,1.73,0,0,0-.05.36Z" transform="translate(0 0.08)" fill="#fff"/>
            <path d="M471.42,225.6V227h1.25v.67h-1.25v2.6c0,.59.17.93.66.93a1.93,1.93,0,0,0,.5-.06l0,.66a2.09,2.09,0,0,1-.77.12,1.22,1.22,0,0,1-1-.37,1.79,1.79,0,0,1-.34-1.26v-2.62h-.74V227h.74v-1.15Z" transform="translate(0 0.08)" fill="#fff"/>
          </g>
        </g>
      </g>
      <path d="M568.32,251.6s.6,112.78-.69,122.53H557.41l-8.87-100.46a1.48,1.48,0,1,0-2.95.12L543.3,373.88l-10.12-.18s-5.7-102.2-3.44-121.46,11-24.92,11-24.92S563.8,220.69,568.32,251.6Z" transform="translate(0 0.08)" fill="#2b3036"/>
      <path d="M555.23,152v17.28a9.06,9.06,0,0,1-1.82,5.56h0a8.6,8.6,0,0,1-8.93.47l-.67-.36a9,9,0,0,1-1.9-5.67V152Z" transform="translate(0 0.08)" fill="#f4a48d"/>
      <path d="M555.23,152H541.91v10.9c1.44.47,3.14,2,5.17,1.78a17.17,17.17,0,0,0,8.15-2.75Z" transform="translate(0 0.08)" fill="#f46066"/>
      <path d="M558.07,266.74c-7.51,1.88-18.36,0-28.84-3,0-5,.21-9,.51-11.49,2.26-19.25,11-24.92,11-24.92s23-6.63,27.56,24.28c0,0,0,3.92,0,10.36A32.27,32.27,0,0,1,558.07,266.74Z" transform="translate(0 0.08)" fill="#1c2023"/>
      <path d="M527.73,176.92a4.48,4.48,0,0,1,2.15-4.21l11.36-5.92.54.19.4-.11c3.38,4.79,9.81,4.58,13-.41,0,.23,0,.48,0,.73,0-.25-.08,1.36-.06,1.12l.44-.58,12.21,5.11a4,4,0,0,1,2,3.61l-.43,77.47c0,3.83-2.79,6.88-6.14,6.76l-11-.39-1.3-.12-4.11-.19H543.1l-9.37-.36c-3.35-.12-6-3.27-6-7.11Z" transform="translate(0 0.08)" fill="#2b3036"/>
      <g id="lhand">
        <path d="M570,173.16c-3.45-3.41-11.76-3.3-15.11-.52-3.82,3.18-1.08,8.67,1.59,13.34h0l22.69,30.15c2,3.52,4.59,1.47,7.48-.53,2.51-1.74,3.36-5.4,2-8.68l-16.09-30A12.28,12.28,0,0,0,570,173.16Z" transform="translate(0 0.08)" fill="#2b3036"/>
        <path d="M560.34,240.61h0a3.12,3.12,0,0,0-1.92-.4,4.12,4.12,0,0,0-2.45,1l-1.8,1.53a.8.8,0,0,0-.14.92.76.76,0,0,0,.69.51l2.16-.11c-1.49,1.36-5.54,5-4.77,6.43s3.85,2.5,7.44-.31a15.65,15.65,0,0,0,4.14-5.07l0,0Z" transform="translate(0 0.08)" fill="#f4a48d"/>
        <path d="M557.68,240.18l25.73-33.4c-8.75-3.88-.6-7.41,3.66-2.75,2.29,2.5,5.86,10.52,4.5,13.31a10.5,10.5,0,0,1-2.61,3.31L563.19,247Z" transform="translate(0 0.08)" fill="#2b3036"/>
      </g>
      <polygon points="555.13 166.54 555.13 166.54 555.13 166.54 555.13 166.54" fill="#fff"/>
      <path d="M559.83,169.55l-4.6-4s-5.57,4.17-6.94,4.44l-6.38-4a7,7,0,0,0-3.12,2.08s6.46,37.82,7.48,40.54C546.27,208.61,559.34,174.23,559.83,169.55Z" transform="translate(0 0.08)" fill="#fff"/>
      <path d="M538.79,168.07s-6,4.41-5.59,7.49l4,.82a21.16,21.16,0,0,0-1.82,3.14c0,.31,10.91,29.09,10.91,29.09Z" transform="translate(0 0.08)" fill="#4d606f"/>
      <path d="M559.83,169.55a15.67,15.67,0,0,1,6.78,6.83s-3.81-.73-4.15,0a9.81,9.81,0,0,1,1.55,2l-17.74,30.27Z" transform="translate(0 0.08)" fill="#4d606f"/>
      <polygon points="555.23 165.61 548.29 170.05 549.79 175.2 551.52 172.58 557.64 167.72 555.23 165.61" fill="#e8e8e8"/>
      <path d="M541.91,166l6.38,4-2,5.15-.8-2-6.68-5.09A5.66,5.66,0,0,1,541.91,166Z" transform="translate(0 0.08)" fill="#e8e8e8"/>
      <path d="M546,171.36s4.64-.59,4.54.74c-.06.85-1.16,2.57-1.94,3.69a.76.76,0,0,1-1.37-.08C546.5,174.25,545.37,171.83,546,171.36Z" transform="translate(0 0.08)" fill="#2b3056"/>
      <polygon points="547.14 174.79 543.96 196.19 546.27 208.69 549.79 198.53 548.89 174.22 547.14 174.79" fill="#2b3056"/>
      <path d="M557.28,145s3.2-4.13,4.09,1.56a7.55,7.55,0,0,1-4,8s-6.53,8.57-15.85,7.48a9.48,9.48,0,0,1-6.78-5.12c-3.18-7.39-.54-20.64.48-23.7,0,0,9.77,6,15.13.75s7.29,1,6.25,5.45S554.23,147.8,557.28,145Z" transform="translate(0 0.08)" fill="#f4a48d"/>
      <path d="M554.29,134.31s-4.84,4.48-10.46,4.16-11.82-4.55-10.57-6.55c0,0-8.55-6.21,1-10.7s12.87-1.6,12.87-1.6.44-3,8.73.45,6.6,4,6.6,4,2-2,3.49,8.15c1.18,8.07-5.11,13.54-8.46,16.16-.76.58-1.55-.68-1.83-1.65-.66-2.37-1.45-6.59.07-9.87C555.73,136.82,552.73,136.49,554.29,134.31Z" transform="translate(0 0.08)" fill="#633659"/>
      <path d="M534.07,141.25l5.39.66a.49.49,0,0,0,.53-.29l0-.15a.4.4,0,0,0-.35-.51l-5.48-1a.47.47,0,0,0-.58.43l0,.45A.43.43,0,0,0,534.07,141.25Z" transform="translate(0 0.08)" fill="#633659"/>
      <path d="M545.51,143l5.43-.18a.47.47,0,0,0,.47-.36l0-.16a.4.4,0,0,0-.42-.45l-5.57-.1a.46.46,0,0,0-.5.51l.11.44A.43.43,0,0,0,545.51,143Z" transform="translate(0 0.08)" fill="#633659"/>
      <ellipse cx="547.4" cy="146.3" rx="0.91" ry="2.19" fill="#2b3036"/>
      <path d="M537,145.14c0,1.21.41,2.19.91,2.19s.91-1,.91-2.19-.41-2.19-.91-2.19S537,143.93,537,145.14Z" transform="translate(0 0.08)" fill="#2b3036"/>
      <path d="M538.45,155.75s0,4.11,4.11,1.93C544.76,156.5,543.05,157,538.45,155.75Z" transform="translate(0 0.08)" fill="#fff"/>
    </g>
  </g>
  <g id="mobile">
    <path d="M355.75,379.68c0,8-35.6,14.56-79.51,14.56s-79.51-6.52-79.51-14.56,35.6-14.56,79.51-14.56,79.51,6.52,79.51,14.56" transform="translate(0 0.08)" fill="#d1aef9"/>
    <path d="M227.31,269c-.1,39.94,0,93.42,1.5,100.53h18.77L261.36,269Z" transform="translate(0 0.08)" fill="#2b3036"/>
    <path d="M228.43,366.32s16.9-3.45,18.49,1.36,24.27,13.67,20.87,17.69-35.67-.12-40-2.07-8.51-2,.59-17" transform="translate(0 0.08)" fill="#1c2023"/>
    <path d="M285.52,270.5c-.11,39.94,0,93.42,1.49,100.54h18.77L319.56,270.5Z" transform="translate(0 0.08)" fill="#2b3036"/>
    <path d="M286.64,367.87s16.9-3.45,18.49,1.36S329.4,382.9,326,386.92s-35.67-.12-39.95-2.07-8.51-2,.59-17" transform="translate(0 0.08)" fill="#1c2023"/>
    <path d="M220.75,326.29,326,325.43c8.08-.07,14.57-7.73,14.49-17.11L338.62,86.59c-.09-10.52-7.51-19-16.57-18.91l-101.69.83c-9.07.07-16.34,8.66-16.25,19.18L206,309.42c.08,9.38,6.7,16.93,14.78,16.87" transform="translate(0 0.08)" fill="#383d49"/>
    <path d="M265.13,79.38l15.33-.13c.19,0,.35-.1.35-.22l0-1.51c0-.12-.15-.22-.35-.22l-15.33.13c-.19,0-.35.1-.35.22l0,1.51c0,.12.15.22.35.22" transform="translate(0 0.08)" fill="#5e4e4d"/>
    <path d="M295,83.21,328,82.94c3.1,0,5.64,3,5.67,6.74l1.8,213.66c0,3.74-2.46,6.8-5.56,6.83l-52.67.42-52.68.43c-3.1,0-5.64-3-5.67-6.73l-1.8-213.66c0-3.75,2.46-6.8,5.56-6.83l23.16-.19Z" transform="translate(0 0.08)" fill="#c9ebf9"/>
    <g id="hand1">
      <path d="M418.7,293.93h-.45a342.79,342.79,0,0,1-71.18-9.08,254.42,254.42,0,0,1-49.55-17.34c-26-12.4-38.37-24.6-39.7-25.95A16.05,16.05,0,0,1,281,219.44a.39.39,0,0,1-.09-.08c.11.11,10.42,10.13,32.4,20.35,20.4,9.48,55.31,21.07,105.79,22.43a15.9,15.9,0,1,1-.43,31.79Z" transform="translate(0 0.08)" fill="#2b3036"/>
      <polygon points="405.54 285.03 374.95 282.8 375.65 280.28 406.37 281.65 405.54 285.03" fill="#fff"/>
      <path d="M408.11,271.37a2.94,2.94,0,0,0,1.19-4.29,3.76,3.76,0,0,0-4.84-.93,2.94,2.94,0,0,0-1.19,4.29,3.77,3.77,0,0,0,4.84.93" transform="translate(0 0.08)" fill="#fff"/>
      <path d="M394.54,269.85a2.94,2.94,0,0,0,1.19-4.29,3.77,3.77,0,0,0-4.84-.93,2.94,2.94,0,0,0-1.19,4.29,3.76,3.76,0,0,0,4.84.93" transform="translate(0 0.08)" fill="#fff"/>
      <path d="M375.47,269.05a2.94,2.94,0,0,0,1.2-4.28,3.76,3.76,0,0,0-4.84-.93,2.93,2.93,0,0,0-1.2,4.28,3.76,3.76,0,0,0,4.84.93" transform="translate(0 0.08)" fill="#fff"/>
      <path d="M418.37,262.12s22.71-2.19,23,3.86c.29,5.18-4.59,6.17-6,6.34,7.72,2.71,23.21,9.76,28.25,9.26,6.77-.67,13,6.54,6.22,15.57S415,293.78,415,293.78Z" transform="translate(0 0.08)" fill="#f4a48d"/>
    </g>
    <path d="M305.08,169.89a3.55,3.55,0,0,1,2.66,1.09,3.91,3.91,0,0,1,.06,5.36c-.58.62-14.42,15.21-31.05,14.81-8.32-.2-15.79-4.07-22.17-11.51a3.9,3.9,0,0,1,.26-5.35,3.51,3.51,0,0,1,5.12.3c5,5.8,10.67,8.82,16.9,9,13.48.32,25.63-12.42,25.75-12.55a3.55,3.55,0,0,1,2.47-1.13" transform="translate(0 0.08)" fill="#32324c"/>
    <g id="eyes2">
      <path d="M233.63,146.52a2.05,2.05,0,0,1-.95-3.69c.38-.28,9.57-6.8,19-5.06,4.71.88,8.58,3.63,11.53,8.19a2,2,0,0,1-.64,2.83,2.1,2.1,0,0,1-2.88-.63c-2.3-3.55-5.24-5.69-8.76-6.35-7.62-1.41-15.67,4.28-15.75,4.33a2.07,2.07,0,0,1-1.51.38" transform="translate(0 0.08)" fill="#32324c"/>
      <path d="M292.82,144.86a2.11,2.11,0,0,1-1.41-.83,2,2,0,0,1,.46-2.86c.38-.28,9.59-6.8,19-5.06,4.7.88,8.58,3.63,11.52,8.19a2,2,0,0,1-.64,2.83,2.09,2.09,0,0,1-2.87-.63c-2.3-3.55-5.25-5.69-8.76-6.35-7.6-1.43-15.67,4.27-15.75,4.33a2.13,2.13,0,0,1-1.51.38" transform="translate(0 0.08)" fill="#32324c"/>
    </g>
    <g id="eyes1">
      <path d="M261.27,144.19c0,5.91-5.33,10.7-11.89,10.7s-11.88-4.79-11.88-10.7,5.32-10.69,11.88-10.69,11.89,4.79,11.89,10.69" transform="translate(0 0.08)" fill="#32324c"/>
      <path d="M319.26,144.19c0,5.91-5.32,10.7-11.89,10.7s-11.88-4.79-11.88-10.7,5.32-10.69,11.88-10.69,11.89,4.79,11.89,10.69" transform="translate(0 0.08)" fill="#32324c"/>
    </g>
    <g id="eyebrows">
      <path d="M254.78,132.76l-23.16-3.57a2,2,0,0,1-1.7-2l0-.77a2,2,0,0,1,2.26-1.87l24,2.32a1.91,1.91,0,0,1,1.66,2.64l-.87,2a2.07,2.07,0,0,1-2.23,1.18" transform="translate(0 0.08)" fill="#363854"/>
      <path d="M296,132.25l23.45-1a2,2,0,0,0,1.92-1.76l.06-.76a2,2,0,0,0-2-2.11l-24.13-.35a1.94,1.94,0,0,0-2,2.44l.63,2.1a2.05,2.05,0,0,0,2.07,1.42" transform="translate(0 0.08)" fill="#363854"/>
    </g>
    <g id="debt">
      <path d="M281,92.27a25.24,25.24,0,0,1,3.73-.28c2.51,0,4.31.58,5.5,1.69a6.26,6.26,0,0,1,1.91,4.88,7.19,7.19,0,0,1-1.95,5.28c-1.27,1.27-3.37,2-6,2a28.34,28.34,0,0,1-3.18-.16Zm1.75,12a11.12,11.12,0,0,0,1.77.1c3.75,0,5.79-2.09,5.79-5.76,0-3.21-1.8-5.24-5.5-5.24a10,10,0,0,0-2.06.18Z" transform="translate(0 0.08)" fill="#f90303" stroke="red" stroke-miterlimit="10"/>
      <path d="M295.42,101.12a3.12,3.12,0,0,0,3.34,3.38,6.43,6.43,0,0,0,2.7-.5l.3,1.27a7.91,7.91,0,0,1-3.24.6c-3,0-4.8-2-4.8-4.91s1.74-5.26,4.58-5.26c3.18,0,4,2.8,4,4.59a7,7,0,0,1-.06.83Zm5.2-1.27c0-1.13-.47-2.89-2.46-2.89-1.8,0-2.58,1.66-2.72,2.89Z" transform="translate(0 0.08)" fill="#f90303" stroke="red" stroke-miterlimit="10"/>
      <path d="M304.44,105.67c.05-.66.09-1.65.09-2.52V91.36h1.75v6.13h0a3.62,3.62,0,0,1,3.32-1.79c2.42,0,4.14,2,4.12,5,0,3.49-2.2,5.22-4.38,5.22a3.46,3.46,0,0,1-3.26-1.83h-.06l-.08,1.61Zm1.84-3.91a3.5,3.5,0,0,0,.08.65,2.73,2.73,0,0,0,2.66,2.07c1.85,0,3-1.51,3-3.75,0-2-1-3.62-2.9-3.62a2.82,2.82,0,0,0-2.7,2.17,3.57,3.57,0,0,0-.1.73Z" transform="translate(0 0.08)" fill="#f90303" stroke="red" stroke-miterlimit="10"/>
      <path d="M318.13,93.12v2.8h2.54v1.35h-2.54v5.26c0,1.21.34,1.89,1.33,1.89a4,4,0,0,0,1-.12l.08,1.33a4.41,4.41,0,0,1-1.57.24,2.47,2.47,0,0,1-1.92-.74,3.64,3.64,0,0,1-.68-2.54V97.27h-1.52V95.92h1.52V93.58Z" transform="translate(0 0.08)" fill="#f90303" stroke="red" stroke-miterlimit="10"/>
    </g>
    <g id="online">
      <path d="M238,98.92c0,4.22-2.57,6.45-5.69,6.45s-5.51-2.51-5.51-6.21c0-3.89,2.42-6.44,5.69-6.44S238,95.29,238,98.92Zm-9.51.2c0,2.62,1.42,5,3.91,5s3.92-2.31,3.92-5.09c0-2.43-1.27-5-3.9-5S228.52,96.43,228.52,99.12Z" transform="translate(0 0.08)" fill="red" stroke="red" stroke-miterlimit="10"/>
      <path d="M240,98.76c0-.91,0-1.66-.07-2.38h1.42l.09,1.45h0a3.21,3.21,0,0,1,2.9-1.65c1.22,0,3.11.72,3.11,3.74v5.25h-1.6V100.1c0-1.42-.52-2.6-2-2.6a2.28,2.28,0,0,0-2.15,1.64,2.35,2.35,0,0,0-.11.74v5.29H240Z" transform="translate(0 0.08)" fill="red" stroke="red" stroke-miterlimit="10"/>
      <path d="M250.11,92.27h1.6v12.9h-1.6Z" transform="translate(0 0.08)" fill="red" stroke="red" stroke-miterlimit="10"/>
      <path d="M256.18,93.9a1,1,0,1,1-2,0,1,1,0,0,1,1-1A1,1,0,0,1,256.18,93.9Zm-1.78,11.27V96.38H256v8.79Z" transform="translate(0 0.08)" fill="red" stroke="red" stroke-miterlimit="10"/>
      <path d="M258.65,98.76c0-.91,0-1.66-.07-2.38H260l.09,1.45h0A3.24,3.24,0,0,1,263,96.18c1.22,0,3.11.72,3.11,3.74v5.25h-1.6V100.1c0-1.42-.53-2.6-2-2.6a2.27,2.27,0,0,0-2.14,1.64,2.35,2.35,0,0,0-.11.74v5.29h-1.6Z" transform="translate(0 0.08)" fill="red" stroke="red" stroke-miterlimit="10"/>
      <path d="M269.63,101.06a2.81,2.81,0,0,0,3,3.06,5.69,5.69,0,0,0,2.44-.46l.27,1.15a7.23,7.23,0,0,1-2.93.54,4.08,4.08,0,0,1-4.32-4.43c0-2.65,1.56-4.74,4.12-4.74,2.88,0,3.64,2.52,3.64,4.14a5.31,5.31,0,0,1-.06.74Zm4.68-1.14a2.27,2.27,0,0,0-2.21-2.6,2.66,2.66,0,0,0-2.46,2.6Z" transform="translate(0 0.08)" fill="red" stroke="red" stroke-miterlimit="10"/>
    </g>
  </g>
</svg>