<svg xmlns="http://www.w3.org/2000/svg" width="800" height="450"><g><title>background</title><rect fill="#fff" id="canvas_background" height="450" width="800" y="-1" x="-1"/></g>
 <g>
  <title>background</title>
  <rect x="-1" y="-1" width="890.88889" height="502" id="canvas_background" fill="#fff"/>
 </g>

 <g>
  <title>background</title>
  <rect fill="#fff" id="canvas_background" height="602" width="1068.66667" y="-1" x="-1"/>
 </g>
 <style>#ribbon {
    animation-name: m1h;
    animation-duration: .4s;
	animation-direction: alternate;
	
    animation-timing-function: linear;
    animation-iteration-count: infinite;
    transform-origin: right;
    
    transform-box: fill-box;

  }

@keyframes  m1h {
  0%{transform: rotateZ(1deg) skew(-1deg)}
  100%{transform: rotateZ(-1deg) skew(5deg)}
}
   
   
 #fan {
    animation-name: fm1h;
    animation-duration: .15s;
       animation-direction: inherit;
	
    animation-timing-function: linear;
    animation-iteration-count: infinite;
    transform-origin: 50% 50%;
    
    transform-box: fill-box;

  }

@keyframes  fm1h {
  0%{transform: rotateX(0deg) }
  100%{transform: rotateX(360deg) }
}

#clouds {
    animation: map1 20s  linear infinite;
   animation-direction: inherit;
  }
  @keyframes map1 {
    0%{ transform: translateX(650px)}
   
    100%{ transform: translateX(-650px)}
  }


  #clouds2 {
    animation: map2 40s   linear infinite;
   animation-direction: inherit;
    
  }
  @keyframes map2 {
    0%{ transform: translateX(1300px)}
    
   
    100%{ transform: translateX(-1300px)}
  }</style>
 <title>plan2</title>
 <g>
  <title>Layer 1</title>
  <rect stroke="null" x="-1" y="-1" id="svg_2" fill="#0a9bc2" height="458.00001" width="800"/>
  <g id="clouds">
   <g id="c6">
    <path id="svg_3" fill="#9d9d9c" d="m654.23,299.18a3.57,3.57 0 0 0 -0.47,0a6.06,6.06 0 0 0 0.13,-1.21a5.69,5.69 0 0 0 -5.69,-5.69a5.76,5.76 0 0 0 -2.35,0.51a8.06,8.06 0 0 0 -14.48,2.26a5.72,5.72 0 0 0 0.31,11.43l22.55,0a3.67,3.67 0 0 0 0,-7.34l0,0.04z"/>
    <path id="svg_4" fill="#fff" d="m653.66,298.67a3.44,3.44 0 0 0 -0.46,0a6,6 0 0 0 0.13,-1.2a5.69,5.69 0 0 0 -8.05,-5.18a8.05,8.05 0 0 0 -14.47,2.26a5.72,5.72 0 0 0 0.3,11.43l22.55,0a3.67,3.67 0 1 0 0,-7.34l0,0.03z"/>
   </g>
   <g id="c5">
    <path id="svg_5" fill="#9d9d9c" d="m618.36,55.09a3.81,3.81 0 0 0 -0.59,0a7.81,7.81 0 0 0 0.16,-1.54a7.24,7.24 0 0 0 -7.23,-7.24a7.16,7.16 0 0 0 -3,0.66a10.24,10.24 0 0 0 -18.41,2.87a7.27,7.27 0 0 0 0.38,14.54l28.69,0a4.67,4.67 0 1 0 0,-9.33l0,0.04z"/>
    <path id="svg_6" fill="#fff" d="m617.64,54.43a3.81,3.81 0 0 0 -0.59,0a7.13,7.13 0 0 0 0.17,-1.54a7.22,7.22 0 0 0 -10.22,-6.53a10.24,10.24 0 0 0 -18.41,2.87a7.27,7.27 0 0 0 0.41,14.54l28.69,0a4.67,4.67 0 0 0 0,-9.34l-0.05,0z"/>
   </g>
   <g id="c4">
    <path id="svg_7" fill="#9d9d9c" d="m142.42,338.87a4.9,4.9 0 0 1 0.77,0.06a9.3,9.3 0 0 1 12.95,-10.46a13.2,13.2 0 0 1 23.71,3.7a9.37,9.37 0 0 1 -0.5,18.72l-36.93,0a6,6 0 0 1 0,-12l0,-0.02z"/>
    <path id="svg_8" fill="#fff" d="m141.32,337.87a4.9,4.9 0 0 1 0.77,0.06a9.3,9.3 0 0 1 12.91,-10.46a13.2,13.2 0 0 1 23.71,3.7a9.37,9.37 0 0 1 -0.5,18.72l-36.89,0a6,6 0 0 1 0,-12l0,-0.02z"/>
   </g>
   <g id="c3">
    <path id="svg_9" fill="#9d9d9c" d="m571.62,156.71a17.48,17.48 0 0 0 -33.89,-5.7a13.82,13.82 0 1 0 -5.23,26.62l38.21,0a10.48,10.48 0 0 0 0.91,-20.92z"/>
    <path id="svg_10" fill="#fff" d="m570.52,155.71a17.48,17.48 0 0 0 -33.89,-5.7a13.82,13.82 0 1 0 -5.23,26.62l38.21,0a10.48,10.48 0 0 0 0.91,-20.92z"/>
   </g>
   <g id="c3-2">
    <path id="svg_11" fill="#9d9d9c" d="m505,388.76a9.26,9.26 0 0 1 18,-3a7.32,7.32 0 1 1 2.77,14.1l-20.27,0a5.55,5.55 0 0 1 -0.49,-11.08l-0.01,-0.02z"/>
    <path id="svg_12" fill="#fff" d="m504.31,388.12a9.26,9.26 0 0 1 17.95,-3a7.33,7.33 0 1 1 2.74,14.08l-20.21,0a5.55,5.55 0 0 1 -0.48,-11.08z"/>
   </g>
   <g id="c2">
    <path id="svg_13" fill="#9d9d9c" d="m242.64,157.54a14.42,14.42 0 0 1 27.95,-4.7a11.28,11.28 0 0 1 4.32,-0.85a11.41,11.41 0 1 1 0,22.81l-31.52,0a8.65,8.65 0 0 1 -0.75,-17.26z"/>
    <path id="svg_14" fill="#fff" d="m241.54,156.54a14.42,14.42 0 0 1 28,-4.7a11.28,11.28 0 0 1 4.32,-0.85a11.41,11.41 0 1 1 0,22.81l-31.57,0a8.65,8.65 0 0 1 -0.75,-17.26z"/>
   </g>
   <g id="c1">
    <path id="svg_15" fill="#9d9d9c" d="m332.07,283a19,19 0 0 1 36.81,-6.19a15,15 0 1 1 5.69,28.92l-41.51,0a11.39,11.39 0 0 1 -1,-22.73l0.01,0z"/>
    <path id="svg_16" fill="#fff" d="m331,282a19,19 0 0 1 36.81,-6.19a15,15 0 1 1 5.69,28.92l-41.5,0a11.39,11.39 0 0 1 -1,-22.73z"/>
   </g>
  </g>
  <g id="clouds2">
   <g id="c6-2">
    <path id="svg_17" fill="#9d9d9c" d="m654.23,299.18a3.57,3.57 0 0 0 -0.47,0a6.06,6.06 0 0 0 0.13,-1.21a5.69,5.69 0 0 0 -5.69,-5.69a5.76,5.76 0 0 0 -2.35,0.51a8.06,8.06 0 0 0 -14.48,2.26a5.72,5.72 0 0 0 0.31,11.43l22.55,0a3.67,3.67 0 0 0 0,-7.34l0,0.04z"/>
    <path id="svg_18" fill="#fff" d="m653.66,298.67a3.44,3.44 0 0 0 -0.46,0a6,6 0 0 0 0.13,-1.2a5.69,5.69 0 0 0 -8.05,-5.18a8.05,8.05 0 0 0 -14.47,2.26a5.72,5.72 0 0 0 0.3,11.43l22.55,0a3.67,3.67 0 1 0 0,-7.34l0,0.03z"/>
   </g>
   <g id="c5-2">
    <path id="svg_19" fill="#9d9d9c" d="m618.36,55.09a3.81,3.81 0 0 0 -0.59,0a7.81,7.81 0 0 0 0.16,-1.54a7.24,7.24 0 0 0 -7.23,-7.24a7.16,7.16 0 0 0 -3,0.66a10.24,10.24 0 0 0 -18.41,2.87a7.27,7.27 0 0 0 0.38,14.54l28.69,0a4.67,4.67 0 1 0 0,-9.33l0,0.04z"/>
    <path id="svg_20" fill="#fff" d="m617.64,54.43a3.81,3.81 0 0 0 -0.59,0a7.13,7.13 0 0 0 0.17,-1.54a7.22,7.22 0 0 0 -10.22,-6.53a10.24,10.24 0 0 0 -18.41,2.87a7.27,7.27 0 0 0 0.41,14.54l28.69,0a4.67,4.67 0 0 0 0,-9.34l-0.05,0z"/>
   </g>
   <g id="c4-2">
    <path id="svg_21" fill="#9d9d9c" d="m142.42,338.87a4.9,4.9 0 0 1 0.77,0.06a9.3,9.3 0 0 1 12.95,-10.46a13.2,13.2 0 0 1 23.71,3.7a9.37,9.37 0 0 1 -0.5,18.72l-36.93,0a6,6 0 0 1 0,-12l0,-0.02z"/>
    <path id="svg_22" fill="#fff" d="m141.32,337.87a4.9,4.9 0 0 1 0.77,0.06a9.3,9.3 0 0 1 12.91,-10.46a13.2,13.2 0 0 1 23.71,3.7a9.37,9.37 0 0 1 -0.5,18.72l-36.89,0a6,6 0 0 1 0,-12l0,-0.02z"/>
   </g>
   <g id="c3-3">
    <path id="svg_23" fill="#9d9d9c" d="m571.62,156.71a17.48,17.48 0 0 0 -33.89,-5.7a13.82,13.82 0 1 0 -5.23,26.62l38.21,0a10.48,10.48 0 0 0 0.91,-20.92z"/>
    <path id="svg_24" fill="#fff" d="m570.52,155.71a17.48,17.48 0 0 0 -33.89,-5.7a13.82,13.82 0 1 0 -5.23,26.62l38.21,0a10.48,10.48 0 0 0 0.91,-20.92z"/>
   </g>
   <g id="c3-4">
    <path id="svg_25" fill="#9d9d9c" d="m505,388.76a9.26,9.26 0 0 1 18,-3a7.32,7.32 0 1 1 2.77,14.1l-20.27,0a5.55,5.55 0 0 1 -0.49,-11.08l-0.01,-0.02z"/>
    <path id="svg_26" fill="#fff" d="m504.31,388.12a9.26,9.26 0 0 1 17.95,-3a7.33,7.33 0 1 1 2.74,14.08l-20.21,0a5.55,5.55 0 0 1 -0.48,-11.08z"/>
   </g>
   <g id="c2-2">
    <path id="svg_27" fill="#9d9d9c" d="m242.64,157.54a14.42,14.42 0 0 1 27.95,-4.7a11.28,11.28 0 0 1 4.32,-0.85a11.41,11.41 0 1 1 0,22.81l-31.52,0a8.65,8.65 0 0 1 -0.75,-17.26z"/>
    <path id="svg_28" fill="#fff" d="m241.54,156.54a14.42,14.42 0 0 1 28,-4.7a11.28,11.28 0 0 1 4.32,-0.85a11.41,11.41 0 1 1 0,22.81l-31.57,0a8.65,8.65 0 0 1 -0.75,-17.26z"/>
   </g>
   <g id="c1-2">
    <path id="svg_29" fill="#9d9d9c" d="m332.07,283a19,19 0 0 1 36.81,-6.19a15,15 0 1 1 5.69,28.92l-41.51,0a11.39,11.39 0 0 1 -1,-22.73l0.01,0z"/>
    <path id="svg_30" fill="#fff" d="m331,282a19,19 0 0 1 36.81,-6.19a15,15 0 1 1 5.69,28.92l-41.5,0a11.39,11.39 0 0 1 -1,-22.73z"/>
   </g>
  </g>
  <g id="svg_31">
   <g id="ribbon">
    <path id="svg_32" fill="#fff" d="m348.61,243.87l31.25,-17.71l26.14,0l0,-1l-26,0l-31.39,-18.26l0,36.97zm1,-35.23l29.15,17l-29.15,16.51l0,-33.51z"/>
    <polygon id="svg_33" fill="#f42900" points="122.73999786376953,243.8699951171875 348.6099853515625,243.8699951171875 348.6099853515625,206.91000366210938 122.73999786376953,206.91000366210938 143.8000030517578,225.3800048828125 122.73999786376953,243.8699951171875 "/>
   </g>
   <path id="svg_34" fill="#f6f6f6" d="m394,221.42l-3.17,0.16l2.55,8.08l0.1,0.31l2.34,0.83q8.88,3.12 17.73,5.95q4.65,1.49 9.27,2.86c9.36,2.78 18.56,5.19 27.45,7a177.29,177.29 0 0 0 31,4c3,0.09 9.7,0.18 18.64,0.27c8.1,0.08 18,0.16 28.78,0.21c9.73,0 20.11,0.06 30.37,0.05c32,0 62.75,-0.39 68.65,-1.48l0.78,-0.15a102.76,102.76 0 0 0 11.68,-2.89c7,-2.21 11.43,-4.71 13.18,-6.79l0,0a3,3 0 0 0 0.83,-1.79c0.07,-2.44 -2.94,-4.36 -12.05,-7.9l-0.13,-0.14c-1,-0.9 -1.74,-1.76 -2.58,-2.59l-0.31,-0.3c-3.08,-2.91 -8,-5.47 -30.75,-8.17c-27.38,-3.26 -142.82,-1.23 -142.82,-1.23s-25.8,-7.39 -30.18,-9.28c-3.29,-1.43 -30.63,-33.06 -35.81,-39.08a2.84,2.84 0 0 0 -2.15,-1l-11.1,0l13.5,52.79l-1.78,0.09l-4.02,0.19z"/>
   <path id="svg_35" fill="#f87a36" d="m386.26,168.35l12.63,49.35l66.61,0c-7.16,-2.08 -26.79,-7.82 -30.18,-9.28s-30.63,-33.06 -35.81,-39.08a2.84,2.84 0 0 0 -2.15,-1l-11.1,0.01z"/>
   <path id="svg_36" fill="#f87a36" d="m395.1,224.46c4.91,1.75 7.11,0.53 18.47,12.29c31.6,-1.24 173.79,-3.52 190.76,-2.77c19,0.84 48.36,5.78 49,5.89c-0.9,-0.27 -51,-15.43 -70.69,-16.64c-28.4,-1.74 -176.84,-1 -176.84,-1l-10.7,2.23z"/>
   <path id="svg_37" fill="#bfbfbd" d="m450.29,246.66a216.62,216.62 0 0 0 34.38,4c3.34,0.09 10.75,0.18 20.65,0.27c9,0.08 20,0.16 31.9,0.21c7.06,0 14.44,0 21.88,0.05c32,0 62.75,-0.39 68.65,-1.48l0.78,-0.15a102.76,102.76 0 0 0 11.68,-2.89l-189.92,-0.01z"/>
   <path id="svg_38" fill="#bfbfbd" d="m393.4,229.66l0.1,0.31c6.7,2.38 13.41,4.66 20.07,6.78l6.4,-12.27l-22,-3.25l-3.9,-0.58l-0.06,0.77l-0.61,8.24z"/>
   <path id="svg_39" fill="#999596" d="m628,227.67l0,2a0.62,0.62 0 0 0 0.42,0.58l5.33,1.5a1,1 0 0 0 0.57,0l4.16,-1.12l3.73,-0.44l-0.21,-0.19c-1,-0.9 -1.74,-1.76 -2.58,-2.59l-0.31,-0.3l-10.58,0a0.58,0.58 0 0 0 -0.53,0.56z"/>
   <path id="svg_40" d="m631.41,227.55l-2.68,0a0.2,0.2 0 0 0 -0.2,0.2l0,1.17a0.54,0.54 0 0 0 0.35,0.5l4.44,1.75l-1.4,-3.26a0.54,0.54 0 0 0 -0.51,-0.36z"/>
   <path id="svg_41" d="m635.72,227.72l-3,0a0.15,0.15 0 0 0 -0.13,0.21l1.48,3.15a0.27,0.27 0 0 0 0.3,0.15l3.68,-0.79a0.12,0.12 0 0 0 0.06,-0.19l-2.22,-2.47a0.23,0.23 0 0 0 -0.17,-0.06z"/>
   <path id="svg_42" d="m636.41,227.55l2.6,2.66l3,-0.22c-1,-0.9 -1.74,-1.76 -2.58,-2.59l-3.02,0.15z"/>
   <g id="svg_43">
    <path id="svg_44" fill="#1d1d1b" d="m609.57,238.43l0,-14.51a1.46,1.46 0 0 1 1.46,-1.46l4.7,0a1.45,1.45 0 0 1 1.45,1.46l0,14.51a1.46,1.46 0 0 1 -1.45,1.46l-4.73,0a1.47,1.47 0 0 1 -1.43,-1.46zm1.43,-15.73a1.22,1.22 0 0 0 -1.21,1.22l0,14.51a1.21,1.21 0 0 0 1.21,1.21l4.7,0a1.21,1.21 0 0 0 1.21,-1.21l0,-14.51a1.22,1.22 0 0 0 -1.21,-1.22l-4.7,0z"/>
    <path id="svg_45" fill="#878787" d="m611.77,231.17l3.23,0a0.41,0.41 0 0 0 0.41,-0.41a0.41,0.41 0 0 0 -0.41,-0.42l-3.22,0a0.42,0.42 0 0 0 -0.42,0.42a0.41,0.41 0 0 0 0.41,0.41z"/>
    <path id="svg_46" fill="#706f6f" d="m612.22,228.26a1.16,1.16 0 1 0 1.16,-1.16a1.15,1.15 0 0 0 -1.16,1.16z"/>
    <path id="svg_47" fill="#9d9d9c" d="m612.49,228.26a0.89,0.89 0 1 0 0.89,-0.89a0.89,0.89 0 0 0 -0.89,0.89z"/>
    <g id="svg_48">
     <g id="svg_49">
      <rect transform="rotate(180 1207.75,461.6900024414062) " id="svg_50" fill="#9d9d9c" rx="0.92" height="3.6" width="2.58" y="691.23" x="1810.34"/>
      <rect transform="rotate(180 1207.75,461.6900024414062) " id="svg_51" fill="#575756" rx="0.82" height="3.2" width="2.29" y="691.43" x="1810.48"/>
     </g>
     <g id="svg_52">
      <rect transform="rotate(180 1199.6099853515625,461.6900024414062) " id="svg_53" fill="#9d9d9c" rx="0.92" height="3.6" width="2.58" y="691.23" x="1798.12999"/>
      <rect transform="rotate(180 1199.6099853515625,461.6900024414062) " id="svg_54" fill="#575756" rx="0.82" height="3.2" width="2.29" y="691.43" x="1798.26999"/>
     </g>
     <g id="svg_55">
      <rect transform="rotate(180 1191.469970703125,461.6900024414062) " id="svg_56" fill="#9d9d9c" rx="0.92" height="3.6" width="2.58" y="691.23" x="1785.90997"/>
      <rect transform="rotate(180 1191.469970703125,461.6900024414062) " id="svg_57" fill="#575756" rx="0.82" height="3.2" width="2.29" y="691.43" x="1786.05997"/>
     </g>
     <g id="svg_58">
      <rect transform="rotate(180 1183.3199462890625,461.6900024414062) " id="svg_59" fill="#9d9d9c" rx="0.92" height="3.6" width="2.58" y="691.23" x="1773.68995"/>
      <rect transform="rotate(180 1183.3199462890625,461.6900024414062) " id="svg_60" fill="#575756" rx="0.82" height="3.2" width="2.29" y="691.43" x="1773.83995"/>
     </g>
     <g id="svg_61">
      <rect transform="rotate(180 1175.1800537109375,461.6900024414062) " id="svg_62" fill="#9d9d9c" rx="0.92" height="3.6" width="2.58" y="691.23" x="1761.48005"/>
      <rect transform="rotate(180 1175.1800537109375,461.6900024414062) " id="svg_63" fill="#575756" rx="0.82" height="3.2" width="2.29" y="691.43" x="1761.63005"/>
     </g>
     <g id="svg_64">
      <rect transform="rotate(180 1167.0400390625,461.6900024414062) " id="svg_65" fill="#9d9d9c" rx="0.92" height="3.6" width="2.58" y="691.23" x="1749.27004"/>
      <rect id="svg_66" fill="#575756" rx="0.82" height="3.2" width="2.29" y="691.43" x="1749.41004"/>
     </g>
     <g id="svg_67">
      <rect transform="rotate(180 1158.9000244140625,461.69000244140625) " id="svg_68" fill="#9d9d9c" rx="0.92" height="3.6" width="2.58" y="691.23" x="1737.06002"/>
      <rect transform="rotate(180 1158.9000244140625,461.69000244140625) " id="svg_69" fill="#575756" rx="0.82" height="3.2" width="2.29" y="691.43" x="1737.20002"/>
     </g>
     <g id="svg_70">
      <rect transform="rotate(180 1150.760009765625,461.69000244140625) " id="svg_71" fill="#9d9d9c" rx="0.92" height="3.6" width="2.58" y="691.23" x="1724.85001"/>
      <rect transform="rotate(180 1150.760009765625,461.69000244140625) " id="svg_72" fill="#575756" rx="0.82" height="3.2" width="2.29" y="691.43" x="1724.99001"/>
     </g>
     <g id="svg_73">
      <rect transform="rotate(180 1142.6099853515625,461.69000244140625) " id="svg_74" fill="#9d9d9c" rx="0.92" height="3.6" width="2.58" y="691.23" x="1712.62999"/>
      <rect transform="rotate(180 1142.6099853515625,461.69000244140625) " id="svg_75" fill="#575756" rx="0.82" height="3.2" width="2.29" y="691.43" x="1712.76999"/>
     </g>
     <g id="svg_76">
      <rect transform="rotate(180 1134.469970703125,461.69000244140625) " id="svg_77" fill="#9d9d9c" rx="0.92" height="3.6" width="2.58" y="691.23" x="1700.41997"/>
      <rect transform="rotate(180 1134.469970703125,461.69000244140625) " id="svg_78" fill="#575756" rx="0.82" height="3.2" width="2.29" y="691.43" x="1700.55997"/>
     </g>
     <g id="svg_79">
      <rect transform="rotate(180 1126.3299560546875,461.69000244140625) " id="svg_80" fill="#9d9d9c" rx="0.92" height="3.6" width="2.58" y="691.23" x="1688.20996"/>
      <rect transform="rotate(180 1126.3299560546875,461.69000244140625) " id="svg_81" fill="#575756" rx="0.82" height="3.2" width="2.29" y="691.43" x="1688.34996"/>
     </g>
     <g id="svg_82">
      <rect transform="rotate(180 1107.6700439453125,461.69000244140625) " id="svg_83" fill="#9d9d9c" rx="0.92" height="3.6" width="2.58" y="691.23" x="1660.22004"/>
      <rect transform="rotate(180 1107.6700439453125,461.69000244140625) " id="svg_84" fill="#575756" rx="0.82" height="3.2" width="2.29" y="691.43" x="1660.36004"/>
     </g>
     <g id="svg_85">
      <rect transform="rotate(180 1099.0400390625,461.69000244140625) " id="svg_86" fill="#9d9d9c" rx="0.92" height="3.6" width="2.58" y="691.23" x="1647.27004"/>
      <rect transform="rotate(180 1099.0400390625,461.69000244140625) " id="svg_87" fill="#575756" rx="0.82" height="3.2" width="2.29" y="691.43" x="1647.41004"/>
     </g>
     <g id="svg_88">
      <rect transform="rotate(180 1090.4000244140625,461.69000244140625) " id="svg_89" fill="#9d9d9c" rx="0.92" height="3.6" width="2.58" y="691.23" x="1634.31002"/>
      <rect transform="rotate(180 1090.4000244140625,461.69000244140625) " id="svg_90" fill="#575756" rx="0.82" height="3.2" width="2.29" y="691.43" x="1634.46002"/>
     </g>
     <g id="svg_91">
      <rect transform="rotate(180 1081.77001953125,461.69000244140625) " id="svg_92" fill="#9d9d9c" rx="0.92" height="3.6" width="2.58" y="691.23" x="1621.37002"/>
      <rect transform="rotate(180 1081.77001953125,461.69000244140625) " id="svg_93" fill="#575756" rx="0.82" height="3.2" width="2.29" y="691.43" x="1621.51002"/>
     </g>
     <g id="svg_94">
      <rect transform="rotate(180 1073.1400146484375,461.69000244140625) " id="svg_95" fill="#9d9d9c" rx="0.92" height="3.6" width="2.58" y="691.23" x="1608.42001"/>
      <rect transform="rotate(180 1073.1400146484375,461.69000244140625) " id="svg_96" fill="#575756" rx="0.82" height="3.2" width="2.29" y="691.43" x="1608.56001"/>
     </g>
     <g id="svg_97">
      <rect transform="rotate(180 1064.5,461.69000244140625) " id="svg_98" fill="#9d9d9c" rx="0.92" height="3.6" width="2.58" y="691.23" x="1595.46"/>
      <rect transform="rotate(180 1064.5,461.69000244140625) " id="svg_99" fill="#575756" rx="0.82" height="3.2" width="2.29" y="691.43" x="1595.61"/>
     </g>
     <path id="svg_100" fill="#575756" d="m529.8,234.1l0,-5.76a1.63,1.63 0 0 1 1.62,-1.63l1.66,0a1.63,1.63 0 0 1 1.63,1.63l0,5.76a1.63,1.63 0 0 1 -1.63,1.63l-1.66,0a1.63,1.63 0 0 1 -1.62,-1.63zm1.62,-7.15a1.38,1.38 0 0 0 -1.38,1.39l0,5.76a1.38,1.38 0 0 0 1.38,1.38l1.66,0a1.38,1.38 0 0 0 1.38,-1.38l0,-5.76a1.38,1.38 0 0 0 -1.38,-1.39l-1.66,0z"/>
     <g id="svg_101">
      <rect transform="rotate(180 1055.8699951171875,461.69000244140625) " id="svg_102" fill="#9d9d9c" rx="0.92" height="3.6" width="2.58" y="691.23" x="1582.52"/>
      <rect transform="rotate(180 1055.8699951171875,461.69000244140625) " id="svg_103" fill="#575756" rx="0.82" height="3.2" width="2.29" y="691.43" x="1582.66"/>
     </g>
     <g id="svg_104">
      <rect transform="rotate(180 1047.239990234375,461.69000244140625) " id="svg_105" fill="#9d9d9c" rx="0.92" height="3.6" width="2.58" y="691.23" x="1569.56999"/>
      <rect transform="rotate(180 1047.239990234375,461.69000244140625) " id="svg_106" fill="#575756" rx="0.82" height="3.2" width="2.29" y="691.43" x="1569.70999"/>
     </g>
     <g id="svg_107">
      <rect transform="rotate(180 1038.5999755859375,461.69000244140625) " id="svg_108" fill="#9d9d9c" rx="0.92" height="3.6" width="2.58" y="691.23" x="1556.60998"/>
      <rect transform="rotate(180 1038.5999755859375,461.69000244140625) " id="svg_109" fill="#575756" rx="0.82" height="3.2" width="2.29" y="691.43" x="1556.75998"/>
     </g>
     <g id="svg_110">
      <rect transform="rotate(180 1029.969970703125,461.69000244140625) " id="svg_111" fill="#9d9d9c" rx="0.92" height="3.6" width="2.58" y="691.23" x="1543.66997"/>
      <rect transform="rotate(180 1029.969970703125,461.69000244140625) " id="svg_112" fill="#575756" rx="0.82" height="3.2" width="2.29" y="691.43" x="1543.80997"/>
     </g>
     <g id="svg_113">
      <rect transform="rotate(180 1021.3400268554688,461.69000244140625) " id="svg_114" fill="#9d9d9c" rx="0.92" height="3.6" width="2.58" y="691.23" x="1530.72003"/>
      <rect transform="rotate(180 1021.3400268554688,461.69000244140625) " id="svg_115" fill="#575756" rx="0.82" height="3.2" width="2.29" y="691.43" x="1530.86003"/>
     </g>
     <g id="svg_116">
      <rect transform="rotate(180 1012.7000122070312,461.69000244140625) " id="svg_117" fill="#9d9d9c" rx="0.92" height="3.6" width="2.58" y="691.23" x="1517.76001"/>
      <rect transform="rotate(180 1012.7000122070312,461.69000244140625) " id="svg_118" fill="#575756" rx="0.82" height="3.2" width="2.29" y="691.43" x="1517.91001"/>
     </g>
     <g id="svg_119">
      <rect transform="rotate(180 1004.0700073242188,461.69000244140625) " id="svg_120" fill="#9d9d9c" rx="0.92" height="3.6" width="2.58" y="691.23" x="1504.82001"/>
      <rect transform="rotate(180 1004.0700073242188,461.69000244140625) " id="svg_121" fill="#575756" rx="0.82" height="3.2" width="2.29" y="691.43" x="1504.96001"/>
     </g>
     <g id="svg_122">
      <rect transform="rotate(180 995.4400024414062,461.69000244140625) " id="svg_123" fill="#9d9d9c" rx="0.92" height="3.6" width="2.58" y="691.23" x="1491.87"/>
      <rect transform="rotate(180 995.4400024414062,461.69000244140625) " id="svg_124" fill="#575756" rx="0.82" height="3.2" width="2.29" y="691.43" x="1492.01"/>
     </g>
     <g id="svg_125">
      <rect transform="rotate(180 986.7999877929688,461.69000244140625) " id="svg_126" fill="#9d9d9c" rx="0.92" height="3.6" width="2.58" y="691.23" x="1478.90999"/>
      <rect transform="rotate(180 986.7999877929688,461.69000244140625) " id="svg_127" fill="#575756" rx="0.82" height="3.2" width="2.29" y="691.43" x="1479.05999"/>
     </g>
     <g id="svg_128">
      <rect transform="rotate(180 978.1699829101562,461.69000244140625) " id="svg_129" fill="#9d9d9c" rx="0.92" height="3.6" width="2.58" y="691.23" x="1465.96998"/>
      <rect transform="rotate(180 978.1699829101562,461.69000244140625) " id="svg_130" fill="#575756" rx="0.82" height="3.2" width="2.29" y="691.43" x="1466.10998"/>
     </g>
     <g id="svg_131">
      <rect transform="rotate(180 969.5399780273438,461.69000244140625) " id="svg_132" fill="#9d9d9c" rx="0.92" height="3.6" width="2.58" y="691.23" x="1453.01998"/>
      <rect transform="rotate(180 969.5399780273438,461.69000244140625) " id="svg_133" fill="#575756" rx="0.82" height="3.2" width="2.29" y="691.43" x="1453.15998"/>
     </g>
     <g id="svg_134">
      <rect transform="rotate(180 960.9000244140625,461.69000244140625) " id="svg_135" fill="#9d9d9c" rx="0.92" height="3.6" width="2.58" y="691.23" x="1440.06002"/>
      <rect transform="rotate(180 960.9000244140625,461.69000244140625) " id="svg_136" fill="#575756" rx="0.82" height="3.2" width="2.29" y="691.43" x="1440.21002"/>
     </g>
     <g id="svg_137">
      <rect transform="rotate(180 952.27001953125,461.69000244140625) " id="svg_138" fill="#9d9d9c" rx="0.92" height="3.6" width="2.58" y="691.23" x="1427.12002"/>
      <rect transform="rotate(180 952.27001953125,461.69000244140625) " id="svg_139" fill="#575756" rx="0.82" height="3.2" width="2.29" y="691.43" x="1427.26002"/>
     </g>
     <g id="svg_140">
      <rect transform="rotate(180 943.6400146484375,461.69000244140625) " id="svg_141" fill="#9d9d9c" rx="0.92" height="3.6" width="2.58" y="691.23" x="1414.17001"/>
      <rect transform="rotate(180 943.6400146484375,461.69000244140625) " id="svg_142" fill="#575756" rx="0.82" height="3.2" width="2.29" y="691.43" x="1414.31001"/>
     </g>
     <g id="svg_143">
      <rect transform="rotate(180 935,461.69000244140625) " id="svg_144" fill="#9d9d9c" rx="0.92" height="3.6" width="2.58" y="691.23" x="1401.21"/>
      <rect transform="rotate(180 935,461.69000244140625) " id="svg_145" fill="#575756" rx="0.82" height="3.2" width="2.29" y="691.43" x="1401.36"/>
     </g>
     <g id="svg_146">
      <rect transform="rotate(180 926.3699951171875,461.69000244140625) " id="svg_147" fill="#9d9d9c" rx="0.92" height="3.6" width="2.58" y="691.23" x="1388.27"/>
      <rect transform="rotate(180 926.3699951171875,461.69000244140625) " id="svg_148" fill="#575756" rx="0.82" height="3.2" width="2.29" y="691.43" x="1388.41"/>
     </g>
     <g id="svg_149">
      <rect transform="rotate(180 917.739990234375,461.69000244140625) " id="svg_150" fill="#9d9d9c" rx="0.92" height="3.6" width="2.58" y="691.23" x="1375.31999"/>
      <rect transform="rotate(180 917.739990234375,461.69000244140625) " id="svg_151" fill="#575756" rx="0.82" height="3.2" width="2.29" y="691.43" x="1375.45999"/>
     </g>
     <path id="svg_152" fill="#575756" d="m438.31,237.22l0,-13.75a1.6,1.6 0 0 1 1.59,-1.6l3.38,0a1.6,1.6 0 0 1 1.59,1.6l0,13.75a1.59,1.59 0 0 1 -1.59,1.59l-3.38,0a1.59,1.59 0 0 1 -1.59,-1.59zm1.59,-15.1a1.36,1.36 0 0 0 -1.35,1.35l0,13.75a1.36,1.36 0 0 0 1.35,1.35l3.38,0a1.36,1.36 0 0 0 1.35,-1.35l0,-13.75a1.36,1.36 0 0 0 -1.35,-1.35l-3.38,0z"/>
    </g>
   </g>
   <g id="svg_153">
    <path id="svg_154" fill="#575756" d="m382.25,214.89l0,0l2.44,1.82l10.4,7.74c1.82,0.35 3.73,0.66 5.65,0.93c7.12,1 14.39,1.39 17.31,0.87l0.26,0c2.84,-0.56 3.26,-1.58 2.53,-2.51s-27.38,-8.19 -29.53,-8.78l-0.13,0l-8.94,0l0.01,-0.07z"/>
    <path id="svg_155" fill="#f6f6f6" d="m382.25,214.89l0,0c1.25,0.76 5.89,1.07 8.12,1.11l0,0c1.12,0 1.44,-0.87 0.93,-1.09l-0.13,0l-8.94,0l0.02,-0.02z"/>
    <path id="svg_156" fill="#c6c6c6" d="m390.39,216c1.12,0 1.44,-0.87 0.93,-1.09c2.15,0.59 28.81,7.87 29.53,8.78s0.31,2 -2.53,2.51l-0.76,-0.2l-3.07,-1.71l-24.12,-8.29l0.02,0z"/>
    <path id="svg_157" fill="#3c3c3b" d="m384.7,216.72l10.4,7.74c1.82,0.35 3.73,0.66 5.65,0.93l-13.85,-8.39l-2.2,-0.28z"/>
   </g>
   <g id="svg_158">
    <path id="svg_159" fill="#bfbfbd" d="m500,250.92c8.1,0.08 18,0.16 28.78,0.21l5.85,-8.48l-31.4,-3.19l-3.23,11.46z"/>
    <path id="svg_160" fill="#464646" d="m482.21,236.75l32.57,9.41l19.13,-1.16l0.67,0c0.2,-1 -0.26,-1.53 -1.56,-2.34c-0.77,-0.48 -37.06,-7 -38.12,-7l0,0a110.07,110.07 0 0 0 -12.69,1.09z"/>
    <path id="svg_161" fill="#c6c6c6" d="m494.85,235.61l0.47,1l37.68,8.39l0.88,0l0.67,0c0.2,-1 -0.26,-1.53 -1.56,-2.34c-0.77,-0.48 -37.06,-7 -38.12,-7l-0.02,-0.05z"/>
    <path id="svg_162" fill="#8c8c8c" d="m527,245.41l-19.2,-0.41a1.56,1.56 0 0 0 -0.71,0.14l-5,2.21a0.28,0.28 0 0 0 0.09,0.53c20.34,1.73 24.52,-1.81 24.82,-2.47z"/>
    <path id="svg_163" fill="#b0b0b0" d="m525.48,244.08l-18.16,-0.41a1.87,1.87 0 0 0 -0.66,0.11l-4.89,1.79a0.15,0.15 0 0 0 0,0.3c18.77,1.35 23.23,-1.34 23.71,-1.79z"/>
    <path id="svg_164" fill="#c2c2c2" d="m516.24,242.64l-16.09,-0.4a1.93,1.93 0 0 0 -0.67,0.12l-4.17,1.64a0.22,0.22 0 0 0 0.07,0.42c3.12,0.28 19.71,0.58 20.86,-1.78z"/>
    <g id="svg_165">
     <path id="svg_166" fill="#ccccca" d="m520.46,243.5l0,13c8.25,0.1 19.35,-0.14 24.22,-1.28a4.39,4.39 0 0 0 2.32,-1l0,-0.07l0,-12.29a8.12,8.12 0 0 0 -2.37,-1c-5.37,-1.45 -16.02,-0.76 -24.17,2.64z"/>
     <path id="svg_167" fill="#f87a36" d="m520.46,243.5l0,13c8.25,0.1 19.35,-0.14 24.22,-1.28a4.39,4.39 0 0 0 2.32,-1l-26.54,-10.72z"/>
     <path id="svg_168" fill="#838584" d="m544.68,240.87l0,14.36a4.06,4.06 0 0 0 2.37,-1.09l0,-12.28a8.12,8.12 0 0 0 -2.37,-0.99z"/>
     <polygon id="svg_169" fill="#2e2a21" points="514.1599731445312,253.7899932861328 520.4600219726562,255.760009765625 520.4600219726562,244.7899932861328 514.1599731445312,246.75 514.1599731445312,253.7899932861328 "/>
     <polygon id="svg_170" fill="#2e2a21" points="508.82000732421875,251.24000549316406 514.1599731445312,252.67999267578125 514.1599731445312,247.8699951171875 508.82000732421875,249.30999755859375 508.82000732421875,251.24000549316406 "/>
    </g>
   </g>
   <polygon id="svg_171" fill="#fff" points="388.25,168.35000610351562 401.05999755859375,217.6999969482422 407.67999267578125,217.6999969482422 394.8800048828125,168.35000610351562 388.25,168.35000610351562 "/>
  </g>
  <style type="text/css">:root {
        --animate-duration: 1s;
        --animate-delay: 1s;
        --animate-repeat: 1;
      }
      
       .animate__animated {
        -webkit-animation-duration: 1s;
        animation-duration: 1s;
        -webkit-animation-duration: var(--animate-duration);
        animation-duration: var(--animate-duration);
        -webkit-animation-fill-mode: both;
        animation-fill-mode: both;
      }
    @-webkit-keyframes headShake {
            0% {
                -webkit-transform: translateX(0);
                transform: translateX(0)
            }

            6.5% {
                -webkit-transform: translateX(-6px) rotateY(-9deg);
                transform: translateX(-6px) rotateY(-9deg)
            }

            18.5% {
                -webkit-transform: translateX(5px) rotateY(7deg);
                transform: translateX(5px) rotateY(7deg)
            }

            31.5% {
                -webkit-transform: translateX(-3px) rotateY(-5deg);
                transform: translateX(-3px) rotateY(-5deg)
            }

            43.5% {
                -webkit-transform: translateX(2px) rotateY(3deg);
                transform: translateX(2px) rotateY(3deg)
            }

            50% {
                -webkit-transform: translateX(0);
                transform: translateX(0)
            }
        }

        @keyframes headShake {
            0% {
                -webkit-transform: translateX(0);
                transform: translateX(0)
            }

            6.5% {
                -webkit-transform: translateX(-6px) rotateY(-9deg);
                transform: translateX(-6px) rotateY(-9deg)
            }

            18.5% {
                -webkit-transform: translateX(5px) rotateY(7deg);
                transform: translateX(5px) rotateY(7deg)
            }

            31.5% {
                -webkit-transform: translateX(-3px) rotateY(-5deg);
                transform: translateX(-3px) rotateY(-5deg)
            }

            43.5% {
                -webkit-transform: translateX(2px) rotateY(3deg);
                transform: translateX(2px) rotateY(3deg)
            }

            50% {
                -webkit-transform: translateX(0);
                transform: translateX(0)
            }
        }

        .animate__headShake {
            -webkit-animation-timing-function: ease-in-out;
            animation-timing-function: ease-in-out;
            -webkit-animation-name: headShake;
            animation-name: headShake
        }
    .animate__animated.animate__infinite {
          -webkit-animation-iteration-count: infinite;
          animation-iteration-count: infinite;
        }
    
    .animate__animated.animate__slower {
          -webkit-animation-duration: calc(1s * 8);
          animation-duration: calc(1s * 8);
          -webkit-animation-duration: calc(var(--animate-duration) * 8);
          animation-duration: calc(var(--animate-duration) * 8);
        }</style>
  <g id="svg_1" class="animate__animated animate__headShake animate__infinite animate__slower">
   <text fill="#cdff1a" stroke-width="0" stroke-opacity="null" fill-opacity="null" x="133.17082" y="257.83533" id="svg_172" font-size="75" font-family="Cursive" text-anchor="start" xml:space="preserve" transform="matrix(0.34744928647558804,0,0,0.3865949944233975,106.63538617188657,135.24523456703062) " stroke="null" font-weight="normal">Your Text Here</text>
  </g>
 </g>
</svg>