<svg width="800" height="450" xmlns="http://www.w3.org/2000/svg">
 <g>
  <title>background</title>
  <rect fill="#fff" id="canvas_background" height="502" width="890.88889" y="-1" x="-1"/>
 </g>

 <style type="text/css">.st0{fill:#36668E;}
	.st1{fill:#E2F3FB;}
	.st2{fill:#FBC200;}
	.st3{fill:#F8B890;}
	.st4{fill:#00AEEF;}
	.st5{fill:#FCD85E;}
	.st6{fill:#131B4C;}
	.st7{fill:#0E070A;}
	.st8{fill:url(#SVGID_1_);}
	.st9{fill:#153D67;}
	.st10{fill:#154E82;}
	.st11{fill:#52C8F4;}
	.st12{fill:url(#SVGID_2_);}
	.st13{fill:#BBE8EA;}
	.st14{fill:#99DDDF;}
	.st15{fill:#E6E6E6;}
	.st16{fill:url(#SVGID_3_);}
	.st17{fill:#FFFFFF;}
	.st18{fill:url(#SVGID_4_);}
	.st19{fill:url(#SVGID_5_);}
	.st20{fill:#FFAD8A;}
	.st21{fill:#FFC9B0;}

#a{
    animation: b5 12s cubic-bezier(.42,.97,.52,1.49) infinite;
	
    animation-direction: initial;
    transform-origin: 10% 50%;
    transform-box: fill-box;
}


@keyframes b5 {
  0%{transform:scale(0) rotateZ(45deg);}
 
   
  3%{transform:scale(1) rotateZ(0deg);}
  
  100%{transform:scale(1);}
}
#b {
    animation-name: l ;
    animation-duration: 12s;
    animation-iteration-count: infinite;
    transform-origin: bottom;
    transform-box: fill-box;
}
@keyframes l {
    
  0%{transform:scale(0);}
  5%{transform:scale(0);}
   6%{transform:scale(1.3);}
   7%{transform:scale(.9);}
  8%{transform:scale(1);}
  
  100%{transform:scale(1);}
}
#c {
    animation-name: m ;
    animation-duration: 12s;
    animation-iteration-count: infinite;
    transform-origin: bottom;
    transform-box: fill-box;
}
@keyframes m {
    0% { opacity: 0; transform: translateY(7px); }
    8% { opacity: 0; transform: translateY(7px); }
    
    9% { opacity: 1; transform: translateY(-3px); }
   10%{transform:translateY(0px);}
 
  
  100%{transform:translateY(-5px);}
}
#d {
    animation-name: n ;
    animation-duration: 12s;
    animation-iteration-count: infinite;
    transform-origin: bottom;
    transform-box: fill-box;
}
@keyframes n {
    0% { opacity: 0; transform: translate(-65px, 105px); }
    11% { opacity: 0; transform: translate(-45px, 105px); }
    12% { opacity: 1;}
    13% { opacity: 1; transform: translate(0px, 0px); }
    40%{transform:translateY(-5px);}
  60%{transform:translateY(0px);}
  
  100%{transform:translateY(-5px);}
}
#e {
    animation-name: o ;
    animation-duration: 12s;
    animation-iteration-count: infinite;
    transform-origin: bottom;
    transform-box: fill-box;
}
@keyframes o {
	0% { opacity: 0; transform: translate(-95px, 89px); }
    14% { opacity: 0; transform: translate(-95px, 89px); }
    15% { opacity: 1;}
    16% { opacity: 1; transform: translate(0px, 0px); }
    40%{transform:translateY(-5px);}
  60%{transform:translateY(0px);}
  
  100%{transform:translateY(-5px);}
    
}
#f {
    animation-name: p ;
    animation-duration: 12s;
    animation-iteration-count: infinite;
    transform-origin: bottom;
    transform-box: fill-box;
}
@keyframes p {
    0% { opacity: 0; transform: translate(-125px, 5px); }
    18% { opacity: 0; transform: translate(-100px, 10px); }
    19% { opacity: 1;}
    20% { opacity: 1; transform: translate(0px, 0px); }
    40%{transform:translateY(-5px);}
  60%{transform:translateY(0px);}
  
  100%{transform:translateY(-5px);}
}
#g {
    animation-name: i ;
    animation-duration: 12s;
    animation-iteration-count: infinite;
    transform-origin: bottom;
    transform-box: fill-box;
}
@keyframes i {
    0% { opacity: 0; transform: translate(-165px, 50px); }
    21% { opacity: 0; transform: translate(-100px, -50px); }
    22% { opacity: 1;}
    23% { opacity: 1; transform: translate(0px, 0px); }
    40%{transform:translateY(-5px);}
  60%{transform:translateY(0px);}
  
  100%{transform:translateY(-5px);}
}
#h {
    animation-name: q ;
    animation-duration: 12s;
    animation-iteration-count: infinite;
    transform-origin: bottom;
    transform-box: fill-box;
}
@keyframes q {
    0% { opacity: 0; transform: translate(-65px, 5px); }
    24% { opacity: 0; transform: translate(-105px, -10px); }
    25% { opacity: 1;}
    26% { opacity: 1; transform: translate(0px, 0px); }
    40%{transform:translateY(-5px);}
  60%{transform:translateY(0px);}
   65%{transform:translateY(-5px);}
70%{transform:translateY(0px);}
 75%{transform:translateY(-5px);}
  80%{transform:translateY(0px);}
  
  
  
  
  
  100%{transform:translateY(-5px);}
}
#i {
    animation-name: j ;
    animation-duration: 12s;
    animation-iteration-count: infinite;
    transform-origin: bottom;
    transform-box: fill-box;
}
@keyframes j {
     0% { opacity: 0; transform: translate(-85px, -50px); }
    27% { opacity: 0; transform: translate(-50px, -50px); }
    28% { opacity: 1;}
    29% { opacity: 1; transform: translate(0px, 0px); }
    40%{transform:translateY(-5px);}
  50%{transform:translateY(0px);}
   55%{transform:translateY(-5px);}
60%{transform:translateY(0px);}
 65%{transform:translateY(-5px);}
  70%{transform:translateY(0px);}
  75%{transform:translateY(-5px);}
80%{transform:translateY(0px);}
  
  
  100%{transform:translateY(-5px);}
}
#j {
    animation-name: k ;
    animation-duration: 12s;
    animation-iteration-count: infinite;
    transform-origin: bottom;
    transform-box: fill-box;
}
@keyframes k {
    0% { opacity: 0; transform: translate(-75px, -50px); }
    30% { opacity: 0; transform: translate(-125px, -90px); }
    31% { opacity: 1;}
    32% { opacity: 1; transform: translate(0px, 0px); }
    40%{transform:translateY(-5px);}
  60%{transform:translateY(0px);}
   70%{transform:translateY(-5px);}
   80%{transform:translateY(0px);}
  100%{transform:translateY(-5px);}
}
#c_1_ {
    animation-name: c2 ;
    animation-duration: 12s;
    animation-iteration-count: infinite;
    transform-origin: bottom;
    transform-box: fill-box;
}
@keyframes c2 {
    0% { opacity: 0; }
    5% { opacity: 0; }
    20% { opacity: 1;}
    
    40%{transform:translateX(-7px);}
  60%{transform:translateX(7px);}
   70%{transform:translateX(-7px);}
   80%{transform:translateX(7px);}
  100% {transform:translateX(-7px);}

}</style>
 <g>
  <title>Layer 1</title>
  <g id="Layer_2">
   <path class="st0" d="m-10,-30c5.29,45.2 21.78,120.52 80.43,177.74c124.41,121.39 335,60.22 402.43,40.63c168.42,-48.91 271.57,-160.91 317.14,-218.37l-800,0z" id="svg_1"/>
   <path class="st1" d="m404.5,420c-1.58,0 193.5,-208.39 385.5,-199.95l0,199.95l-385.5,0z" id="svg_2"/>
  </g>
  <g id="j">
   <g id="svg_3">
    <path class="st2" d="m708.51,297.29c-1.04,2.87 -2.72,5.12 -5.16,7.34c-5.97,5.42 -15,5.64 -21.37,-1.39c-6.81,-7.5 -7.51,-18.74 0.57,-26.08c6.33,-5.75 14.62,-5.1 20.14,0.98c4.96,5.46 4.8,11.44 1.42,14.51c-1.46,1.32 -3.66,1.6 -5.64,-0.73l-0.11,0.1c0.67,3.3 -0.04,5.88 -2.23,7.86c-2.11,1.92 -5.49,1.86 -8.1,-1.02c-4.1,-4.51 -4.26,-11.87 0.8,-16.46c1.53,-1.39 3.25,-2.35 4.59,-2.77l4.74,7.71c1.96,3.26 3.56,4.14 4.79,3.09c1.92,-1.61 1.72,-6.01 -2.08,-10.2c-4.82,-5.32 -11.46,-6.27 -17.1,-1.14c-5.94,5.38 -6.63,14.64 0.08,22.04c5.52,6.08 12.92,6.27 18.31,1.38c2.08,-1.88 3.61,-4.07 4.34,-6.26l2.01,1.04zm-16.27,-13.91c-0.5,0.18 -1.25,0.6 -2.09,1.36c-3.2,2.91 -3.05,8.28 0.16,11.81c1.45,1.6 3.31,2.04 4.91,0.59c2.11,-1.92 1.6,-6.36 -0.05,-8.98l-2.93,-4.78z" id="svg_4"/>
    <path class="st2" d="m693.36,309.11c-0.18,0 -0.37,0 -0.56,-0.01c-4.19,-0.16 -8.06,-2.07 -11.19,-5.52c-3.48,-3.84 -5.41,-8.61 -5.43,-13.44c-0.02,-5.06 2.12,-9.8 6.03,-13.35c3.18,-2.89 6.9,-4.29 10.74,-4.08c3.73,0.21 7.32,2.02 10.1,5.09c5.38,5.93 4.77,12.15 1.38,15.22c-0.88,0.8 -1.95,1.19 -3.01,1.13c-0.83,-0.05 -1.63,-0.39 -2.38,-0.97c0.31,2.91 -0.54,5.23 -2.58,7.08c-1.17,1.06 -2.68,1.56 -4.24,1.42c-1.66,-0.16 -3.23,-1.01 -4.56,-2.47c-2.09,-2.31 -3.25,-5.42 -3.16,-8.55c0.09,-3.3 1.51,-6.36 4,-8.62c1.45,-1.32 3.24,-2.39 4.78,-2.88l0.37,-0.12l4.95,8.05c1.52,2.52 2.54,3.16 3.14,3.26c0.32,0.05 0.61,-0.04 0.9,-0.29c0.58,-0.49 0.94,-1.3 1,-2.3c0.15,-2.17 -1.02,-4.85 -3.13,-7.17c-2.34,-2.58 -5.08,-4.07 -7.92,-4.32c-2.94,-0.26 -5.88,0.85 -8.48,3.21c-2.85,2.59 -4.46,6.1 -4.54,9.91c-0.08,4.03 1.53,7.98 4.65,11.42c2.58,2.84 5.64,4.44 8.86,4.64c3.13,0.19 6.15,-0.95 8.74,-3.3c2.05,-1.86 3.5,-3.95 4.2,-6.05l0.19,-0.55l2.91,1.51l-0.15,0.41c-1.03,2.82 -2.66,5.15 -5.29,7.54c-2.93,2.65 -6.58,4.1 -10.32,4.1zm-1.18,-35.42c-3.32,0 -6.52,1.32 -9.29,3.84c-3.7,3.35 -5.72,7.83 -5.71,12.6c0.02,4.58 1.85,9.11 5.17,12.77c2.95,3.25 6.57,5.05 10.49,5.2c3.65,0.14 7.29,-1.22 10.18,-3.84c2.38,-2.16 3.89,-4.25 4.87,-6.73l-1.1,-0.57c-0.81,2.08 -2.28,4.11 -4.28,5.93c-2.75,2.5 -6.12,3.75 -9.47,3.55c-3.49,-0.21 -6.79,-1.93 -9.54,-4.97c-3.25,-3.58 -4.99,-7.88 -4.91,-12.12c0.08,-4.08 1.81,-7.85 4.87,-10.63c2.81,-2.55 6.01,-3.75 9.24,-3.47c3.1,0.27 6.06,1.88 8.57,4.65c2.32,2.56 3.56,5.44 3.39,7.91c-0.09,1.27 -0.57,2.34 -1.36,3c-0.52,0.44 -1.1,0.61 -1.71,0.51c-1.19,-0.19 -2.44,-1.41 -3.83,-3.72l-4.53,-7.37c-1.32,0.49 -2.8,1.42 -4.04,2.54c-2.29,2.07 -3.59,4.88 -3.67,7.9c-0.08,2.87 0.98,5.73 2.9,7.85c1.15,1.27 2.51,2.01 3.91,2.15c1.29,0.12 2.52,-0.29 3.48,-1.16c2.03,-1.84 2.71,-4.26 2.07,-7.39l-0.06,-0.28l0.7,-0.63l0.33,0.39c0.81,0.96 1.73,1.5 2.64,1.55c0.8,0.04 1.6,-0.26 2.28,-0.87c3.02,-2.74 3.49,-8.36 -1.45,-13.81c-2.61,-2.87 -5.95,-4.56 -9.42,-4.76c-0.24,-0.01 -0.48,-0.02 -0.72,-0.02zm0.95,24.82c-0.16,0 -0.33,-0.01 -0.49,-0.04c-0.95,-0.14 -1.88,-0.7 -2.7,-1.6c-1.64,-1.81 -2.57,-4.1 -2.61,-6.46c-0.04,-2.41 0.84,-4.55 2.49,-6.05c1.02,-0.92 1.84,-1.31 2.25,-1.46l0.38,-0.14l3.15,5.12c1.81,2.88 2.24,7.54 -0.04,9.61c-0.74,0.68 -1.57,1.02 -2.43,1.02zm-1.09,-14.5c-0.37,0.18 -0.91,0.52 -1.55,1.1c-1.43,1.3 -2.2,3.18 -2.16,5.29c0.04,2.12 0.87,4.18 2.35,5.81c0.66,0.73 1.39,1.17 2.11,1.28c0.73,0.11 1.45,-0.13 2.1,-0.73c1.86,-1.69 1.46,-5.8 -0.14,-8.35l-2.71,-4.4z" id="svg_5"/>
   </g>
  </g>
  <g id="i">
   <g id="svg_6">
    <path class="st3" d="m613.21,246.03c0,0 0.04,-1.4 0,-2.06c-0.04,-0.66 -0.82,-1.81 -0.55,-2.46c0.09,-0.23 0.64,-0.35 0.64,-0.35s0.49,-0.36 0.79,-0.49s0.64,-0.2 0.64,-0.2s0.17,-0.45 0.33,-0.51c0.16,-0.06 0.35,0.02 0.39,0.24c0.07,0.32 0.18,1.05 0.22,1.58c0.04,0.52 0.1,0.52 -0.26,1.29c-0.15,0.31 -0.53,0.64 -0.58,0.91c-0.05,0.27 -0.03,2.05 -0.03,2.05l-1.59,0z" id="svg_7"/>
    <path class="st4" d="m615.15,244.66c0,0 1.36,7.49 1.95,9.48c1.24,4.19 2.66,6.29 2.66,6.29l-0.96,7.41c0,0 -4.8,-9.89 -5.61,-14.62c-0.17,-1.02 -0.49,-8.35 -0.49,-8.35s0.27,-0.31 1.18,-0.4c0.93,-0.09 1.27,0.19 1.27,0.19" id="svg_8"/>
    <path class="st3" d="m631.6,246.46c0,0 -0.28,-1.37 -0.35,-2.03c-0.07,-0.66 0.5,-1.93 0.13,-2.51c-0.13,-0.21 -0.69,-0.24 -0.69,-0.24s-0.54,-0.27 -0.86,-0.35c-0.32,-0.08 -0.66,-0.09 -0.66,-0.09s-0.24,-0.41 -0.41,-0.44c-0.17,-0.03 -0.34,0.08 -0.35,0.3c-0.02,0.33 0.01,1.07 0.05,1.59c0.05,0.53 -0.01,0.54 0.48,1.22c0.2,0.28 0.63,0.54 0.73,0.8c0.1,0.26 0.38,2.02 0.38,2.02l1.55,-0.27z" id="svg_9"/>
    <path class="st4" d="m629.14,245.14c0,0 1.01,5.96 0.57,9.53c-0.31,2.52 -2.34,5.75 -3.54,7.26c-0.36,0.45 -1.97,2.13 -1.88,3.23c0.13,1.66 2.03,4.29 2.38,4.93c-0.2,-0.1 5.73,-8.88 6.04,-15.07c0.18,-3.55 -0.78,-9.66 -0.78,-9.66s-0.34,-0.36 -1.54,-0.46c-1.14,-0.11 -1.25,0.24 -1.25,0.24" id="svg_10"/>
    <path class="st3" d="m613.02,308.45c-0.25,0.27 -0.92,2.41 -0.92,2.41l1.48,-0.36l2.15,-2.12l1.13,-1.45l-0.42,-1.54l-2.46,0.06c0,0 -0.11,1.04 -0.22,1.56c-0.11,0.53 -0.74,1.44 -0.74,1.44" id="svg_11"/>
    <path class="st5" d="m610.38,311.75c0.46,0.26 1.04,0.36 1.56,0.35c0.52,-0.01 1.48,0.04 1.68,-0.17c0.25,-0.27 0.47,-0.68 0.63,-0.92c0.25,-0.39 1,-1.45 1.39,-1.45c0.39,-0.01 0.52,-0.01 0.52,-0.01l0.05,2.33l0.39,-0.01c0,0 0.35,-1.95 0.46,-2.47c0.09,-0.38 0.24,-0.65 0.37,-0.91c0.25,-0.52 -0.02,-1.03 -0.02,-1.03l-0.67,-0.89c0,0 -1.26,1.58 -1.38,1.71c-0.13,0.13 -1.57,1.9 -2.28,2.12c-0.9,0.28 -1.28,0.29 -2.58,0.32c-0.4,0 -0.78,0.65 -0.12,1.03" id="svg_12"/>
    <path class="st6" d="m610.38,311.75c0.46,0.26 1.04,0.36 1.56,0.35c0.52,-0.01 1.48,0.04 1.68,-0.17c0.25,-0.27 0.47,-0.68 0.63,-0.92c0.25,-0.39 1,-1.45 1.39,-1.45c0.39,-0.01 0.52,-0.01 0.52,-0.01l0.05,2.33l0.39,-0.01l0.46,-2.47c0,0 -0.85,-0.3 -1.61,0.1c-0.77,0.4 -1.66,1.86 -2.02,2.11c-0.3,0.21 -3.36,-0.05 -3.36,-0.05s0.28,0.17 0.31,0.19" id="svg_13"/>
    <path class="st7" d="m624.28,310.04c-0.1,0.1 -0.2,1.78 -0.2,1.78l-0.26,0.01l-0.02,-0.65l-0.02,-1.04l0.5,-0.66l0,0.56z" id="svg_14"/>
    <path class="st3" d="m622.41,306.3c-0.02,0.26 -0.74,1.83 -0.98,2.35c-0.12,0.26 -0.85,2.18 -0.85,2.18s0.01,0.81 0.27,0.8c0.26,-0.01 1.81,0.09 1.81,0.09s0.87,-1.44 1,-1.57c0.13,-0.13 0.62,-1.31 0.74,-1.57c0.12,-0.26 0.24,-1.04 0.24,-1.04l-2.23,-1.24z" id="svg_15"/>
    <path class="st5" d="m619.56,311.8c-0.12,0.26 0.15,0.9 0.67,0.89c0.26,-0.01 1.4,0.1 1.81,0.09c0.39,-0.01 1.16,-0.03 1.28,-0.55c0.12,-0.52 0.61,-1.7 0.74,-1.83c0.13,-0.13 0.88,-1.31 1,-1.57c0.06,-0.12 0.11,-0.65 -0.02,-0.9c-0.14,-0.26 -0.4,-0.64 -0.4,-0.64s-0.86,1.96 -0.98,2.35c-0.12,0.39 -0.62,1.31 -0.87,1.44c-0.26,0.14 -0.91,0.33 -1.68,0.17c-0.7,-0.15 -0.26,-0.63 -0.53,-0.51c0,0 -0.12,0.39 -0.38,0.53c-0.26,0.13 -0.51,0.27 -0.64,0.53" id="svg_16"/>
   </g>
   <path class="st8" d="m621.83,257.44c0,0 0.6,1.36 0.2,2.55c-0.32,0.93 -1.1,0.85 -1.49,0.76c-0.14,-0.03 -0.23,-0.06 -0.22,-0.05l0.96,1.89l6.78,-1.76c0,0 -2.46,0.17 -2.64,-1.86c-0.11,-1.19 0.06,-3.23 0.06,-3.23l-3.65,1.7z" id="svg_17"/>
   <path class="st3" d="m620.57,252.94c-0.24,0.78 0.03,1.42 -0.21,2.07c-0.24,0.65 0.74,3.99 1.51,3.98c1.94,-0.04 2.44,-0.7 2.82,-1.23c0.38,-0.53 0.72,-2.73 0.83,-3.25c0.12,-0.52 -0.45,-3.2 -2.4,-3.05c-2.32,0.18 -2.55,1.48 -2.55,1.48" id="svg_18"/>
   <path class="st3" d="m625.27,254.98c0.54,-0.53 0.54,-0.65 0.89,-0.66c0.35,-0.01 0.47,0.62 0.26,1.15c-0.15,0.38 -0.41,0.77 -1.03,0.72c-0.7,-0.05 -0.12,-1.21 -0.12,-1.21" id="svg_19"/>
   <path class="st9" d="m618.01,277.44l-3.44,7.84c0,0 -2.65,6.07 -2.8,7.56c-0.16,1.49 1.6,13.8 1.6,13.8s0.2,0.45 1.88,0.15c1.4,-0.25 1.47,-0.87 1.47,-0.87s0.12,-5.79 0.12,-6.08c0.02,-2.13 -0.58,-5.87 -0.58,-5.87l4.69,-7.28l3.36,-5.77l-0.37,-4.9l-5.93,0.78l0,0.64z" id="svg_20"/>
   <path class="st10" d="m628.12,275c0.28,0.9 0.53,4.57 0.53,9.03c0,4.72 -0.86,8.05 -0.86,8.05l-2.06,14.98c0,0 -0.38,0.53 -1.09,0.61c-2.12,0.24 -2.67,-0.78 -2.67,-0.78s0.82,-11.52 0.89,-12.18c0.32,-3.11 -1.42,-14.13 -1.42,-14.13l-0.09,-3.88l6.77,-1.7z" id="svg_21"/>
   <path class="st4" d="m619.17,259.82c0,0 -0.24,1.06 -0.9,2.54c-0.62,1.4 -0.89,1.93 -0.89,1.93s1.38,4.63 1.52,5.79c0.34,3.05 -1.36,7.04 -1.36,7.04c0.32,0.68 1.32,1.54 5.16,1.54c4.73,0 7.01,-1.1 7.01,-1.1s-0.67,-3.1 -1.06,-6.13c-0.28,-2.18 -0.14,-4.43 0,-6.75c0.07,-1.22 0,-3.25 0,-3.25l-0.52,-0.8l-1.43,0.32c0,0 -1.99,0.58 -3.77,0.47c-1.11,-0.07 -2.21,-0.47 -2.61,-0.72c-0.24,-0.14 -1.15,-0.88 -1.15,-0.88" id="svg_22"/>
   <path class="st6" d="m624.92,259.5l2.12,-0.76c0,0 -0.33,-1.93 -0.26,-2.9c0.1,-1.29 0.93,-4.8 -2.58,-5.63c-0.55,-0.13 -1.1,-0.23 -1.55,-0.09c-0.45,0.14 -1.72,0.68 -2.18,0.95c-1.15,0.67 -0.59,2.47 -0.31,3.37c0.12,0.38 -0.15,4.92 -0.15,4.92l1.54,-0.55c0,0 -0.6,-1.2 -0.95,-2.18c-0.28,-0.77 -0.29,-1.29 -0.17,-1.81c0.17,-0.77 0.16,-1.68 0.21,-1.94c0.06,-0.26 0.3,-0.54 0.57,-0.66c1.22,-0.54 2.02,0.47 2.54,0.98c0.53,0.51 1.77,1.06 1.79,1.13c0.02,0.07 -0.24,1.36 -0.24,1.36l-0.38,3.81z" id="svg_23"/>
  </g>
  <g id="h">
   <g id="svg_24">
    <g id="svg_25">
     <path class="st6" d="m696.29,218.18c0,0 -0.11,0.57 0,0.63c0.11,0.06 0.39,0.2 2.35,1.29c0.81,0.45 1.93,1.83 3.68,1.82c1.01,-0.01 1.75,-0.35 1.84,-0.49c0.1,-0.13 0,-0.67 0,-0.67s-1.45,0.63 -1.72,0.54c-0.27,-0.09 -1.55,-0.54 -1.99,-0.7c-0.44,-0.17 -1.46,-0.86 -2.02,-1.24c-0.55,-0.38 -2.14,-1.18 -2.14,-1.18" id="svg_26"/>
     <path class="st6" d="m690.56,214.85c0,0 -0.2,0.01 -0.42,0.51c-0.26,0.58 -0.02,1.44 0.1,3.03c0.02,0.28 0.14,1.85 0.32,2.37c0.25,0.71 0.98,1.17 1.67,1.33c0.59,0.14 1.09,0.11 1.51,0c0.96,-0.26 0.9,-0.87 0.83,-1.09c-0.05,-0.14 -0.24,-0.39 -0.24,-0.39s-0.6,0.42 -1.16,0.42c-0.55,0 -1.24,-0.67 -1.37,-0.94c-0.13,-0.28 -0.85,-1.95 -0.85,-2.45s-0.33,-1.83 -0.33,-1.83l-0.06,-0.96z" id="svg_27"/>
     <path class="st11" d="m701.5,217.67c0,0.32 -0.16,1.21 0.18,1.67c0.19,0.25 1.09,0.81 1.54,0.93c0.24,0.06 1.33,0.33 0.78,0.67c-0.56,0.33 -1.78,0.44 -2.33,0.33c-0.56,-0.11 -0.95,-0.33 -1.67,-0.83c-0.72,-0.5 -2.13,-1.44 -2.13,-1.44l-1.59,-0.8c0,0 0,-0.17 0.16,-0.52c0.25,-0.55 1.16,-1.12 1.16,-1.12l3.9,1.11z" id="svg_28"/>
     <path class="st11" d="m693.23,214.23c-0.6,0 -0.72,-0.06 -1.43,0c-0.19,0.02 -0.95,0.15 -1.24,0.62c-0.19,0.31 -0.19,0.77 -0.14,1.5c0.02,0.23 0.22,2.6 0.46,3.55c0.24,0.96 0.79,1.41 1.36,1.63c0.57,0.21 2.26,0.14 2.26,-0.48c0,-0.61 -0.53,-0.96 -0.77,-1.29c-0.23,-0.33 -0.23,-1.39 -0.23,-1.39l0.23,-1.22l-0.5,-2.92z" id="svg_29"/>
     <path class="st2" d="m697.19,217.12c0,0 1,0.88 1.99,1.25c1.13,0.42 2.19,0.71 2.45,0.55c0.26,-0.16 0.23,-1.24 0.83,-1.99c0.59,-0.75 3.51,-1.92 5.62,-3c2.11,-1.08 4.64,-2.8 4.75,-3.18c0.11,-0.39 -0.09,-0.7 -0.14,-0.87c-0.06,-0.17 -4.67,-0.67 -4.67,-0.67s-2.44,0.28 -3.29,0.81c-0.85,0.53 -2.12,1.97 -2.69,2.3c-0.57,0.33 -3.35,2.5 -3.8,3.17c-0.45,0.66 -1.05,1.63 -1.05,1.63" id="svg_30"/>
     <path class="st5" d="m697.12,212.37c-3.92,1.39 -4.49,1.86 -4.49,1.86s-0.32,0.47 -0.32,1.86c0,1.39 0.64,2.82 1.08,2.95c0.45,0.13 3.97,-1.56 4.21,-1.56c0.24,0 4.23,-0.85 4.84,-0.94c1.37,-0.22 2.72,-0.86 3.61,-1.59c1,-0.82 1.33,-2.05 1.37,-2.2c0.04,-0.15 -2.76,-1.37 -2.76,-1.37s-3.62,-0.4 -7.54,0.99" id="svg_31"/>
    </g>
    <path class="st3" d="m687.91,171.77c0.22,-0.44 0,-1.41 0,-1.41s0.22,0.07 0.37,0c0.15,-0.07 0.37,-0.33 0.44,-0.59c0.08,-0.26 0.07,-0.8 0,-1c-0.07,-0.2 -0.3,-0.48 -0.65,-0.52c-0.35,-0.04 -1.13,0 -1.13,0s0.29,-0.25 0.52,-0.37c0.17,-0.09 0.53,-0.17 0.67,-0.22c0.13,-0.05 0.48,-0.41 -0.28,-0.37c-0.76,0.04 -1.31,0.48 -1.31,0.48s-0.99,0.84 -1.04,1.22c-0.05,0.38 0.48,1.48 0.48,1.48s0.29,0.89 0.26,1.23c-0.02,0.34 -0.59,1.44 -0.59,1.44l1.67,0.31c0.01,0.01 0.37,-1.23 0.59,-1.68" id="svg_32"/>
    <path class="st3" d="m702.58,172.44c0,0 -0.12,-0.6 -0.41,-1.46s-0.52,-1.35 -0.52,-1.61s0.02,-0.49 -0.09,-0.61c-0.11,-0.12 -0.54,-0.24 -0.65,-0.2c-0.11,0.04 -0.32,0.09 -0.44,0.22c-0.12,0.13 -0.56,-0.44 -0.56,-0.78c0,-0.33 0.16,-0.79 0.23,-0.93c0.08,-0.15 0.44,-0.51 0.73,-0.55c0.3,-0.04 0.7,-0.07 0.96,0c0.26,0.07 0.74,0.48 0.89,0.63c0.15,0.15 0.63,0.67 0.63,0.96s0.04,1.45 0,1.67c-0.04,0.22 0.58,2.21 0.58,2.21l-1.35,0.45z" id="svg_33"/>
    <path class="st6" d="m691.77,173.74c0,0 -0.35,-0.73 -0.77,-0.67c-1.09,0.14 -1.55,0.76 -2.08,1.33c-0.42,0.46 -1.27,1.64 -1.36,3.01c-0.42,6.15 -5.41,9.63 -5.41,9.63s1.32,3.16 5.25,4.79c5.78,2.4 8.85,-1.2 8.85,-1.2s0.49,-1.36 0.48,-2.92c0,-1.56 -0.26,-2.63 -0.48,-3.45c-0.22,-0.82 -2.3,-4.96 -2.52,-5.56c-0.22,-0.59 -1.96,-4.96 -1.96,-4.96" id="svg_34"/>
    <path class="st12" d="m692.37,180.48c0,0 0.26,0.87 0.14,1.28c-0.12,0.41 -0.27,0.85 -0.27,0.85l2.52,0.88c0,0 3.17,0.95 3.25,0.95c0.08,0 0.89,-0.61 0.89,-0.61l-1.02,-1.33l-1.26,-0.33c0,0 -0.59,-0.3 -0.75,-0.69c-0.3,-0.69 -0.47,-1.26 -0.47,-1.26l-3.03,0.26z" id="svg_35"/>
   </g>
   <path class="st13" d="m687.79,180.48l-1.61,-0.56l1.43,-6.91l-1.98,-0.43c0,0 -1.69,2.34 -2.14,4.33c-0.44,1.99 -0.96,3.67 -0.74,4.12c0.22,0.44 0.74,1.63 4.26,3.74c2.34,1.4 3.17,1.29 3.17,1.29s0.07,0.04 0.7,-0.48c0.63,-0.52 1.18,-1.35 1.27,-1.91c0.11,-0.66 -0.1,-1.53 -0.1,-1.53l-4.26,-1.66z" id="svg_36"/>
   <path class="st14" d="m697.33,181.67c0.56,-0.26 5,-2.5 5.25,-2.94c0.56,-0.96 -0.27,-6.82 -0.27,-6.82l1.56,-0.55c0,0 1.03,3.72 1.33,4.89c0.43,1.65 0.52,3.02 0.52,3.28c0,0.26 -0.26,1.29 -1.26,1.93c-1,0.64 -3.71,2.35 -3.71,2.35s-1.54,-0.46 -2.32,-1.21c-0.47,-0.46 -1.1,-0.93 -1.1,-0.93" id="svg_37"/>
   <path class="st3" d="m693.74,173.96c0.47,0.3 0.92,1.74 1.14,1.85c0.22,0.11 0.68,1.26 0.71,1.56c0.12,1.28 0.08,2.13 0.04,2.5c-0.06,0.65 -0.29,1.05 -0.64,1.28c-0.5,0.32 -1.16,0.43 -2.01,0.28c-0.72,-0.13 -1.7,-1 -2.34,-1.91c-0.64,-0.91 -1.52,-2.75 -0.58,-4.41c0.41,-0.73 0.93,-1.17 1.7,-1.37c0.88,-0.24 1.51,-0.07 1.98,0.22" id="svg_38"/>
   <path class="st6" d="m691.22,173.28c0.22,0.08 0.46,1.67 1.47,1.64c1.47,-0.04 2.05,0.73 2.05,0.73s0.45,0.54 0.63,1.26c0.18,0.72 0.26,1.76 0.26,1.98c0,0.22 -0.02,1.02 0.01,1.02s0.26,-0.84 0.35,-1.27c0.16,-0.77 0.18,-2.05 -0.12,-2.79c-0.3,-0.74 -0.95,-1.73 -1.43,-2.12s-1.07,-0.76 -1.52,-0.83c-0.44,-0.07 -1.04,-0.09 -1.3,0c-0.26,0.08 -0.4,0.38 -0.4,0.38" id="svg_39"/>
   <path class="st2" d="m708.12,210.04c-0.33,-0.83 -0.9,-1.4 -1.09,-1.95c-0.2,-0.56 -2.46,-3.49 -2.46,-3.49l-3.28,-5.56c0,0 -0.12,-1.78 -0.33,-2.45c-0.21,-0.67 3.39,-1.83 3.39,-1.83l1.28,0.5c0,0 2.36,3.61 4.47,7.44c1.21,2.2 2.23,4.35 2.67,5.58c0.63,1.82 0.11,2.53 -0.08,2.64c-0.2,0.11 -4.57,-0.88 -4.57,-0.88" id="svg_40"/>
   <path class="st5" d="m697.62,196.94c-0.06,0.65 -0.08,2.33 0,2.94c0.37,2.97 3.05,7.82 3.32,8.44c0.28,0.62 1.68,3.83 1.68,3.83s1,2.38 1.95,2.53c0.95,0.15 1.17,0.41 1.83,-0.33c0.67,-0.74 0.95,-1.22 1.03,-1.6c0.17,-0.73 0.7,-3.63 -0.14,-8.4c-0.54,-3.06 -2.95,-9.59 -2.95,-9.59l-6.72,2.18z" id="svg_41"/>
   <path class="st13" d="m690.14,181.7c0.48,0 3.48,0.93 4.44,1.19c0.96,0.26 3.85,0.7 3.85,0.7s-0.64,-0.66 -1.04,-0.92c-0.85,-0.54 -1.08,-0.72 -1.08,-0.72l1.74,-0.66c0,0 2.5,1.7 2.72,1.85c0.58,0.43 0.96,1.57 1.07,1.89c0.76,2.12 2.09,5.54 2.56,6.82c0.43,1.18 1.44,3.14 1.44,3.45c0,0.31 -2.48,0.82 -3.5,1.18c-3.16,1.12 -4.88,2.41 -5.25,2.01c-0.36,-0.4 0.24,-3.66 -0.39,-5c-0.27,-0.58 -2.7,-3.37 -2.68,-3.34c0,0 -1.25,-1.32 -1.93,-2c-1,-1 -3.59,-2.75 -3.59,-2.75s2.37,0.2 2.56,-0.99c0.19,-1.19 -0.92,-2.71 -0.92,-2.71" id="svg_42"/>
   <path class="st6" d="m691.42,173.63c0.03,0.07 0.6,0.28 0.24,1.2c-0.36,0.92 -0.74,0.68 -1.31,1.86c-1.03,2.17 1.32,4.09 1.15,4.14c-0.17,0.04 -2.44,-1.06 -2.44,-3.77c0,-0.43 0.56,-2.6 0.75,-2.96c0.21,-0.35 1.61,-0.47 1.61,-0.47" id="svg_43"/>
  </g>
  <g id="g">
   <path class="st10" d="m665.05,208.94l-7.66,-3.57l-1.73,-5.96l-3.78,1.1l0.77,2.65l-5.42,-2.52c-0.84,-0.39 -1.84,-0.1 -2.34,0.68l-10.59,16.56c-0.55,0.86 -0.3,2.01 0.56,2.55c0.86,0.56 2,0.31 2.55,-0.56l9.72,-15.19l16.35,7.62c0.42,0.2 0.88,0.22 1.3,0.1c0.5,-0.14 0.93,-0.49 1.16,-1c0.44,-0.93 0.04,-2.03 -0.89,-2.46" id="svg_44"/>
   <path class="st10" d="m639.38,221.35l3.38,11.63c0.43,1.47 2.22,2.5 3.75,2.06l5.08,-1.48l-2.11,-7.26c-0.23,-0.8 0.23,-1.65 1.03,-1.88l4.36,-1.27c0.8,-0.23 1.64,0.23 1.87,1.03l2.11,7.26l4.71,-1.37c1.53,-0.44 2.86,-2.39 2.44,-3.86l-3.38,-11.62l-14.58,-6.79l-8.66,13.55z" id="svg_45"/>
  </g>
  <g id="f">
   <path class="st3" d="m626.08,127.48c-0.11,-0.32 0.56,-3.08 0.22,-3.42c-0.26,-0.26 -0.55,0.14 -0.62,0.42c-0.14,0.52 -0.12,0.83 -0.62,0.89c-0.88,0.11 -2.72,-3.19 -3.18,-2.75c-0.5,0.48 -0.67,2.5 -0.24,3.24c0.34,0.58 4.68,5.19 4.68,5.19l1.77,-1.5c-0.01,0 -1.9,-1.75 -2.01,-2.07" id="svg_46"/>
   <path class="st11" d="m638.9,137.94c0,0 -4.11,-2.96 -4.92,-3.53c-0.81,-0.57 -6.84,-6.36 -6.84,-6.36l-2.3,1.99c0,0 3.68,4.99 4.21,5.67c0.52,0.67 3.48,3.66 5.38,5.03c1.9,1.37 5.91,3.53 5.91,3.53l0,-5.8l-1.44,-0.53z" id="svg_47"/>
   <path class="st3" d="m660.18,127.2c0.11,-0.32 -0.56,-3.08 -0.22,-3.42c0.26,-0.26 0.55,0.14 0.62,0.42c0.14,0.52 0.12,0.83 0.62,0.89c0.88,0.11 2.72,-3.19 3.18,-2.75c0.5,0.48 0.67,2.5 0.24,3.24c-0.34,0.58 -4.68,5.19 -4.68,5.19l-1.77,-1.5c0.01,0 1.9,-1.75 2.01,-2.07" id="svg_48"/>
   <path class="st11" d="m647.36,137.66c0,0 4.27,-3.19 5.21,-3.88c1.45,-1.06 6.55,-6.02 6.55,-6.02l2.3,1.99c0,0 -3.63,5.04 -4.21,5.67c-4.27,4.69 -10.39,8.63 -10.39,8.63l-0.89,-5.87l1.43,-0.52z" id="svg_49"/>
   <path class="st15" d="m632.84,184.32c0,0 0.5,0.86 0.64,1.38c0.17,0.64 0.14,1.3 0.14,1.3s-1,1.49 -2.68,2.33c-1.24,0.61 -2.27,0.64 -2.95,0.39c-0.68,-0.25 -0.32,-1.13 0.37,-1.93c1.84,-2.13 1.84,-2.88 1.84,-2.88l2.64,-0.59z" id="svg_50"/>
   <path class="st6" d="m628.92,189.99c1.2,0 4.32,-1.71 4.32,-1.71l0.38,-1.27c0,0 -0.67,0.63 -1.18,1.04c-0.79,0.63 -1.73,1.17 -2.85,1.52c-1.48,0.46 -1.94,-0.13 -1.94,-0.13s0.07,0.55 1.27,0.55" id="svg_51"/>
   <path class="st10" d="m640.33,152.19c-0.25,0.56 -10.52,15.43 -10.52,15.43s-0.93,2.3 -0.75,2.74c0.19,0.44 4.48,1.24 4.67,1.18c0.19,-0.06 4.17,-3.86 5.16,-4.67c0.77,-0.63 3.09,-2.59 4.25,-3.49c0.33,-0.26 0.93,-0.54 0.93,-0.54s0.63,-7.75 0.44,-8.49c-0.19,-0.75 -3.02,-2.29 -3.89,-2.41c-0.85,-0.13 -0.29,0.25 -0.29,0.25" id="svg_52"/>
   <path class="st10" d="m629.04,170.66c0,0 0.34,8.76 0.4,10.14c0.04,0.82 0.31,4.73 0.31,4.73s0.15,0.58 1.27,0.4c1.77,-0.28 2.27,-1.06 2.27,-1.06s0.37,-4.91 0.37,-6.45s-0.06,-4.84 0,-5.34c0.06,-0.5 0.19,-1.56 0,-2.18c-0.19,-0.62 -2.04,-1.99 -2.27,-2.18c-0.22,-0.19 -2.08,0.23 -2.08,0.23l-0.27,1.71z" id="svg_53"/>
   <path class="st15" d="m655.02,184.32c0,0 -0.5,0.86 -0.64,1.38c-0.17,0.64 -0.14,1.3 -0.14,1.3s1,1.49 2.68,2.33c1.24,0.61 2.27,0.64 2.95,0.39c0.68,-0.25 0.32,-1.13 -0.37,-1.93c-1.84,-2.13 -1.84,-2.88 -1.84,-2.88l-2.64,-0.59z" id="svg_54"/>
   <path class="st6" d="m658.94,189.99c-1.2,0 -4.32,-1.71 -4.32,-1.71l-0.38,-1.27c0,0 0.67,0.63 1.18,1.04c0.79,0.63 1.73,1.17 2.85,1.52c1.48,0.46 1.94,-0.13 1.94,-0.13s-0.06,0.55 -1.27,0.55" id="svg_55"/>
   <path class="st9" d="m647.53,152.19c0.25,0.56 10.51,15.43 10.51,15.43s0.93,2.3 0.75,2.74c-0.19,0.44 -4.48,1.24 -4.67,1.18c-0.19,-0.06 -4.17,-3.86 -5.16,-4.67c-0.77,-0.63 -3.09,-2.59 -4.26,-3.49c-0.33,-0.26 -0.93,-0.54 -0.93,-0.54s-0.63,-7.75 -0.44,-8.49c0.19,-0.75 3.02,-2.29 3.89,-2.41c0.88,-0.13 0.31,0.25 0.31,0.25" id="svg_56"/>
   <path class="st9" d="m658.82,170.66c0,0 -0.34,8.76 -0.4,10.14c-0.04,0.82 -0.31,4.73 -0.31,4.73s-0.15,0.58 -1.27,0.4c-1.77,-0.28 -2.27,-1.06 -2.27,-1.06s-0.37,-4.91 -0.37,-6.45s0.06,-4.84 0,-5.34c-0.06,-0.5 -0.19,-1.56 0,-2.18c0.19,-0.62 2.04,-1.99 2.27,-2.18c0.22,-0.19 2.08,0.23 2.08,0.23l0.27,1.71z" id="svg_57"/>
   <path class="st3" d="m642.38,134.58c0,0 -0.46,0.33 -0.71,0.26c-0.25,-0.06 -0.26,-0.48 -0.22,-0.79c0.05,-0.34 0.22,-0.87 0.22,-0.87s0.19,-0.53 0.25,-0.16c0.06,0.38 0.46,1.56 0.46,1.56" id="svg_58"/>
   <path class="st16" d="m642.72,133.99c0,0 0.17,1.56 0.16,2.01c-0.04,1.05 -1.21,3.16 -1.21,3.16l5.07,0c0,0 -0.23,-2.06 -0.31,-3.13c-0.08,-1.02 0,-2.55 0,-2.55l-3.71,0.51z" id="svg_59"/>
   <path class="st3" d="m643.11,129.71c-0.22,0.09 -0.79,0.39 -1,1.14c-0.22,0.75 -0.43,1.87 -0.43,2.33c0,0.47 0.62,1.83 0.87,2.21c0.22,0.33 0.4,0.56 0.69,0.64c0.24,0.07 1.13,0.12 1.81,0.03c0.56,-0.07 0.86,-0.14 1.32,-0.55c0.47,-0.4 0.93,-1.68 1.06,-2.11c0.13,-0.44 -0.31,-2.18 -0.47,-2.49c-0.16,-0.31 -0.68,-1 -1.65,-1.28c-0.97,-0.28 -2.2,0.08 -2.2,0.08" id="svg_60"/>
   <path class="st6" d="m646.99,130.64c0.55,0.91 0.75,2.21 0.72,2.18c-0.12,-0.1 -0.66,-0.42 -0.66,-0.42s0.09,-1.15 -0.81,-1.99c-0.58,-0.54 -1.59,-0.81 -1.93,-0.81c-1.64,-0.01 -2.17,1.08 -2.17,1.08s0.41,-1.43 1.91,-1.52c1.88,-0.1 2.71,1.1 2.94,1.48" id="svg_61"/>
   <path class="st3" d="m647.24,132.62l-0.19,1.59c0,0 0.34,0.57 0.62,0.47c0.28,-0.1 0.4,-1.21 0.37,-1.46c-0.03,-0.25 -0.12,-0.43 -0.28,-0.59c-0.15,-0.17 -0.52,-0.01 -0.52,-0.01" id="svg_62"/>
   <path class="st4" d="m642.59,137.17c-0.51,0.17 -1.18,0.44 -1.72,0.55c-1.1,0.23 -1.97,0.22 -1.97,0.22s-0.28,5.29 -1.43,14.68c-0.34,2.77 -3,6.98 -2.62,7.26c0.83,0.61 2,-1.15 7.88,-0.93c10.76,0.39 9.8,1.79 10.58,1.5c0.78,-0.29 -1.07,-6.12 -1.7,-10.24c-1.24,-8.1 -1.72,-14.43 -1.72,-14.43s-0.52,0.31 -1.5,0.64c-1.05,0.36 -1.88,0.44 -1.88,0.44s-1.37,1.28 -2.54,1.32c-1.49,0.04 -1.38,-1.01 -1.38,-1.01" id="svg_63"/>
  </g>
  <g id="e">
   <path class="st2" d="m644.56,89.76c-1.99,1.76 -3.62,4.44 -3.74,4.49c-1.75,0.73 1.68,-5.51 1.68,-5.51s-1.79,-1.89 -4.09,-2.75c-6.58,-2.46 -13.84,0.18 -13.95,9.54c-0.16,13.11 17.93,26.03 20.1,26.94c4.87,-2.07 20.26,-13.83 20.1,-26.94c-0.14,-11.93 -11.82,-12.66 -19.15,-6.62c-0.32,0.27 -0.64,0.55 -0.95,0.85" id="svg_64"/>
  </g>
  <g id="d">
   <path class="st4" d="m590.9,110.18c-3.37,0.2 -5.36,0.04 -6.33,0.04c-15.29,0 -27.73,-12.2 -27.73,-27.2c0,-15 12.44,-27.21 27.73,-27.21c15.29,0 27.73,12.2 27.73,27.21c0,7.64 -3.25,16.57 -11.09,22.2c-0.39,0.28 -1.2,0.81 -1.2,0.81s1.41,2.02 1.78,3.17c0.86,2.68 0.63,5.89 0.63,5.89s-3.81,-5.36 -11.52,-4.91" id="svg_65"/>
   <rect x="583.87" y="61.24" class="st17" width="1.4" height="5.9" id="svg_66"/>
   <rect x="592.73" y="68.1" transform="matrix(0.7071,-0.7071,0.7071,0.7071,125.8371,441.3759) " class="st17" width="5.91" height="1.4" id="svg_67"/>
   <rect x="570.51" y="90.32" transform="matrix(0.7071,-0.7071,0.7071,0.7071,103.6121,432.1705) " class="st17" width="5.91" height="1.4" id="svg_68"/>
   <rect x="597.33" y="79.21" class="st17" width="5.91" height="1.4" id="svg_69"/>
   <rect x="565.9" y="79.21" class="st17" width="5.9" height="1.4" id="svg_70"/>
   <rect x="594.98" y="88.07" transform="matrix(0.7072,-0.707,0.707,0.7072,110.0699,447.8157) " class="st17" width="1.4" height="5.91" id="svg_71"/>
   <rect x="572.76" y="65.84" transform="matrix(0.707,-0.7072,0.7072,0.707,119.3605,425.7027) " class="st17" width="1.4" height="5.91" id="svg_72"/>
   <rect x="580.65" y="99.13" class="st17" width="7.68" height="1.4" id="svg_73"/>
   <rect x="580.65" y="96.93" class="st17" width="7.68" height="1.4" id="svg_74"/>
   <rect x="582.61" y="101.33" class="st17" width="3.75" height="1.4" id="svg_75"/>
   <path class="st5" d="m594.95,79.9c0,-5.78 -4.69,-10.47 -10.47,-10.47s-10.47,4.69 -10.47,10.47c0,3.69 1.92,6.94 4.8,8.8l0,4.91l1.68,1.71l7.96,0l1.68,-1.76l0,-4.86c2.91,-1.86 4.82,-5.1 4.82,-8.8" id="svg_76"/>
   <path class="st17" d="m588.88,86.63l-0.77,-1.17c0.69,-0.45 1.27,-1.02 1.75,-1.7l1.14,0.81c-0.57,0.82 -1.29,1.51 -2.12,2.06m3.35,-4.74l-1.35,-0.33c0.13,-0.51 0.19,-1.04 0.19,-1.58c0,-0.29 -0.02,-0.58 -0.05,-0.86l1.38,-0.18c0.05,0.34 0.07,0.69 0.07,1.04c-0.01,0.65 -0.09,1.29 -0.24,1.91m-1.98,-5.08c-0.4,-0.72 -0.92,-1.35 -1.55,-1.88l0.9,-1.07c0.77,0.64 1.4,1.41 1.88,2.28l-1.23,0.67z" id="svg_77"/>
   <path class="st17" d="m579.26,76.03l-1.19,-0.74c0.53,-0.85 1.2,-1.58 2,-2.18l0.84,1.12c-0.67,0.5 -1.22,1.1 -1.65,1.8" id="svg_78"/>
   <polygon class="st17" points="586.04,95.51 585.01,94.57 586.47,92.96 586.47,88.33 587.86,88.33 587.86,93.5  " id="svg_79"/>
   <path class="st17" d="m588.77,96.02l-8.55,0l-2.09,-2.12l0,-4.83c-3.02,-2.09 -4.8,-5.49 -4.8,-9.17c0,-6.16 5.01,-11.17 11.17,-11.17c6.16,0 11.17,5.01 11.17,11.17c0,3.68 -1.79,7.08 -4.8,9.17l0,4.76l-2.1,2.19zm-7.97,-1.39l7.37,0l1.28,-1.34l0,-4.96l0.32,-0.21c2.81,-1.81 4.48,-4.88 4.48,-8.21c0,-5.39 -4.38,-9.77 -9.77,-9.77c-5.39,0 -9.77,4.38 -9.77,9.77c0,3.33 1.68,6.4 4.48,8.21l0.32,0.21l0,5.01l1.29,1.29z" id="svg_80"/>
  </g>
  <g id="c_1_">
   <path class="st14" d="m570.18,126.3c-0.41,0 -0.82,0.02 -1.23,0.06c0.06,-0.58 0.09,-1.17 0.09,-1.76c0,-9.47 -7.68,-17.15 -17.15,-17.15c-0.42,0 -0.84,0.02 -1.26,0.05c-2.79,-4.03 -7.22,-6.85 -12.32,-7.49c-2.51,-6.16 -8.09,-10.46 -14.58,-10.46c-3.24,0 -6.24,1.07 -8.76,2.9c-3.74,-2.73 -8.22,-4.33 -13.03,-4.33c-11.14,0 -20.49,8.53 -23.03,20.02c-1.54,-0.45 -3.16,-0.69 -4.84,-0.69c-9.47,0 -17.15,7.68 -17.15,17.15c0,0.6 0.03,1.18 0.09,1.76c-0.4,-0.04 -0.81,-0.06 -1.22,-0.06c-6.82,0 -12.35,5.53 -12.35,12.35s5.53,12.35 12.35,12.35l114.39,0c6.82,0 12.35,-5.53 12.35,-12.35s-5.53,-12.35 -12.35,-12.35" id="svg_81"/>
  </g>
  <g id="b">
   <path class="st11" d="m415.3,204.5c0,0 0.47,0.81 0.91,2.22c0.16,0.52 0.25,1.39 0.03,1.65c-0.06,0.07 -0.17,0.19 -0.51,0.27c-2.12,0.51 -9.85,2.35 -10.14,2.34c-0.62,-0.02 -1.18,-0.51 -0.97,-1.01c0.21,-0.49 6.12,-4.55 6.12,-4.55l4.56,-0.92z" id="svg_82"/>
   <path class="st6" d="m416.37,207.88c0,0 0.24,0.65 0.15,0.74c-0.06,0.07 -0.17,0.19 -0.51,0.27c-2.13,0.51 -10.14,2.1 -10.42,2.09c-0.2,-0.01 -0.56,-0.16 -0.56,-0.16l11.34,-2.94z" id="svg_83"/>
   <rect x="409.77" y="179.98" transform="matrix(0.9598,-0.2805,0.2805,0.9598,-33.9168,123.7324) " class="st9" width="10.99" height="0.74" id="svg_84"/>
   <polygon class="st9" points="410.18,182.22 401.74,174.81 402.1,174.16 410.54,181.57  " id="svg_85"/>
   <path class="st10" d="m436.33,174.15c0.11,0.53 1.08,3.78 1.08,3.78s0.63,2.23 -4.03,4.9c-4.66,2.67 -14.26,4 -15.62,4.67c-1.36,0.67 -1.72,18.18 -1.72,18.18l-6.41,0.52l0.35,-19.54c0,0 -0.09,-3.91 4.16,-5.64c1.65,-0.68 22.19,-6.87 22.19,-6.87" id="svg_86"/>
   <path class="st18" d="m418.5,174.96c-0.86,0.55 -0.98,0.67 -1.85,1.46c-0.87,0.79 -1.85,2.54 -1.7,3c0.15,0.47 1.6,-1.39 1.6,-1.39s0.81,0.57 1.25,0.78c0.95,0.45 1.86,-0.18 1.86,-0.18s0.22,-0.2 0.81,-0.74c0.6,-0.54 2.9,-1.13 2.9,-1.13l-2.09,-2.75c0.03,0.01 -2.11,0.52 -2.78,0.95" id="svg_87"/>
   <path class="st14" d="m428.31,158.6c-0.99,0.81 -0.99,3.87 0.22,6.91c0.98,2.47 0.44,2.94 0.3,3.67c-0.08,0.39 -9.71,5.05 -9.71,5.05l3.41,3.2c0,0 12.36,-2.56 11.94,-7.3c-0.26,-2.99 0.91,-6.03 0.11,-7.8c-0.67,-1.48 -0.85,-2.4 -2.58,-3.62c-1.03,-0.72 -2.7,-0.92 -3.69,-0.11" id="svg_88"/>
   <polygon class="st19" points="422.87,150.64 425.99,156.73 430.73,153.48 426.9,148.11  " id="svg_89"/>
   <path class="st3" d="m422.1,170.78c0,0 -2.18,0.75 -2.85,1.26c-0.86,0.66 -0.98,0.8 -1.84,1.7c-0.86,0.91 -1.55,2.64 -1.37,3.11c0.18,0.46 1.34,-1.43 1.34,-1.43s0.86,0.5 1.32,0.67c1,0.36 1.92,-0.39 1.92,-0.39s0.21,-0.23 0.81,-0.85c0.59,-0.62 2.95,-1.47 2.95,-1.47l-2.28,-2.6z" id="svg_90"/>
   <path class="st4" d="m429.6,151.22c0.43,0.32 5.12,0.16 8.17,9.3c2.41,7.23 6.39,19.12 6.39,19.12s-3.75,2.26 -7.29,3.16c-6.44,1.64 -10.32,-3.76 -10.32,-3.76s-0.16,-5.12 -0.98,-8.72c-1.17,-5.14 -1.48,-6.91 -1.7,-9.6c-0.13,-1.52 0.43,-5.34 0.57,-5.64c0.14,-0.28 0.9,-1.05 1.96,-1.87c1.14,-0.86 3.2,-1.99 3.2,-1.99" id="svg_91"/>
   <path class="st11" d="m426.32,157.05c-0.98,0.83 -0.94,3.89 0.32,6.91c1.02,2.45 1.79,4.26 1.65,4.99c-0.07,0.39 -8.82,2.44 -8.82,2.44l2.95,3.78c0,0 12.42,-0.25 11.93,-4.98c-0.31,-2.98 -0.9,-7.75 -1.72,-9.5c-0.69,-1.47 -0.88,-2.39 -2.63,-3.58c-1.03,-0.71 -2.7,-0.88 -3.68,-0.06" id="svg_92"/>
   <path class="st3" d="m419.76,148.62c0.1,0.28 -0.54,1.84 -0.06,2.06c0.17,0.08 0.35,0.15 0.49,0.28c0.8,0.74 1.01,2.49 2.02,2.27c1.18,-0.26 4.92,-3.39 5.18,-4.9c0.26,-1.5 -1.23,-3.47 -3.14,-3.89c-1.9,-0.42 -4.63,0.63 -5.47,1.4c-0.85,0.77 0.98,2.78 0.98,2.78" id="svg_93"/>
   <path class="st6" d="m427.92,149.39c-0.15,-0.42 -0.1,-3.64 -0.16,-4.25c-0.06,-0.61 -0.16,-1.29 -0.65,-2.04c-0.53,-0.83 -1.62,-1.52 -2.49,-1.62c-3.32,-0.38 -4.86,1.57 -5.79,2.53c-0.7,0.72 -0.17,0.62 -1.4,1.44c-1.03,0.68 1.52,2.15 1.61,2.22c0.08,0.07 1.74,-0.2 1.74,-0.2s0.7,0.82 0.87,1.1c0.19,0.32 0.7,-0.48 0.7,-0.48s0.1,-0.56 0.32,-0.66c0.14,-0.06 0.71,-0.25 1.34,0.62c0.7,0.97 1.56,2.81 1.56,2.81l2.35,-1.47z" id="svg_94"/>
  </g>
  <g id="c">
   <path class="st10" d="m392.14,105.56l24.82,6.02c2.3,0 4.17,1.87 4.17,4.17l0,19.46c0,2.3 -1.86,4.17 -4.17,4.17l-3.04,0c-0.51,1.3 -2.46,7.3 -2.46,7.3s-3.94,-7.14 -9.52,-7.3l-3.77,0c-2.61,-0.02 -3.59,-1.72 -4.17,-4.17l-6.02,-25.48c-0.47,-3.07 2.07,-4.57 4.16,-4.17" id="svg_95"/>
   <path class="st17" d="m405.79,128.62l-0.83,-8.43l0,-3.9l3.44,0l0,3.9l-0.82,8.43l-1.79,0zm-0.69,1.43l3.19,0l0,3.18l-3.19,0l0,-3.18z" id="svg_96"/>
  </g>
  <g id="a">
   <polygon class="st20" points="408.52,363.19 406.64,357.55 486.33,319.46 490.03,324.63  " id="svg_97"/>
   <path class="st21" d="m419.22,352.04c0,0 -1.24,-58.4 0.34,-59.67c1.58,-1.27 30.69,-11.92 30.69,-11.92l20.37,10.61c0,0 8.8,23.19 9.18,24.96c0.39,1.77 0.1,7.88 0.1,7.88l-60.68,28.14z" id="svg_98"/>
   <polygon class="st5" points="446.28,249.5 419.82,256.94 460.43,319.09 477.37,314.33  " id="svg_99"/>
   <path class="st2" d="m482.02,316.57l-23.12,6.51l-44.4,-68.19l33.76,-9.5l33.76,71.18zm-20.05,-1.46l10.75,-3.02l-28.42,-58.49l-19.16,5.4l36.83,56.11z" id="svg_100"/>
   <path class="st5" d="m403.95,228.07c1.81,6.43 -1.94,13.11 -8.37,14.92c-6.43,1.81 -13.11,-1.94 -14.92,-8.37c-1.81,-6.43 1.94,-13.11 8.37,-14.92c6.43,-1.81 13.11,1.94 14.92,8.37" id="svg_101"/>
   <path class="st2" d="m396.51,246.28c-8.23,2.32 -16.82,-2.5 -19.13,-10.73c-2.32,-8.23 2.5,-16.82 10.73,-19.13c8.23,-2.32 16.82,2.5 19.13,10.73c2.31,8.23 -2.5,16.81 -10.73,19.13m-6.56,-23.29c-4.61,1.3 -7.3,6.1 -6,10.7c1.3,4.61 6.1,7.3 10.71,6.01c4.61,-1.29 7.3,-6.1 6,-10.71c-1.3,-4.6 -6.1,-7.29 -10.71,-6" id="svg_102"/>
   <polygon class="st5" points="446.54,183.78 384.35,201.03 401.32,261.36 463.52,244.12  " id="svg_103"/>
   <path class="st2" d="m467.73,246.48l-68.77,19.1l-18.83,-66.92l68.78,-19.1l18.82,66.92zm-64.04,10.67l55.61,-15.4l-15.12,-53.75l-55.61,15.4l15.12,53.75z" id="svg_104"/>
   <path class="st5" d="m544.95,166.41c9.45,-2.66 19.27,2.85 21.93,12.3s-2.85,19.27 -12.3,21.93" id="svg_105"/>
   <path class="st2" d="m555.51,203.93l-1.85,-6.58c7.62,-2.14 12.08,-10.09 9.94,-17.71c-2.15,-7.62 -10.09,-12.08 -17.71,-9.94l-1.85,-6.58c11.25,-3.17 22.98,3.41 26.14,14.66c3.16,11.25 -3.42,22.98 -14.67,26.15" id="svg_106"/>
   <polygon class="st5" points="566.26,254.05 463.57,243.4 446.59,183.06 529.04,121.73  " id="svg_107"/>
   <path class="st2" d="m570.98,258.2l-110.1,-11.74l-18.17,-64.6l88.2,-66.12l40.07,142.46zm-104.72,-17.86l95.29,9.56l-34.37,-122.17l-76.7,56.53l15.78,56.08z" id="svg_108"/>
   <path class="st2" d="m557.22,235.43l-12.24,-0.89l0.49,-6.82l12.24,0.89l-0.49,6.82zm-24.48,-1.78l-12.24,-0.89l0.49,-6.82l12.24,0.89l-0.49,6.82zm-24.48,-1.78l-12.24,-0.89l0.49,-6.82l12.24,0.89l-0.49,6.82z" id="svg_109"/>
   <rect x="418.01" y="232.27" transform="matrix(0.9626,-0.2708,0.2708,0.9626,-47.3639,128.1375) " class="st2" width="45.21" height="6.83" id="svg_110"/>
   <g id="svg_111">
    <path class="st21" d="m480.08,283.88c0,0 0.65,-0.05 0.93,-0.08c3.56,-0.4 6.7,2.27 7.1,5.83c0.4,3.56 -2.15,6.89 -5.72,7.29c-0.28,0.03 -0.84,0.09 -0.84,0.09l-18.29,2.05c0,0 -0.55,0.07 -0.84,0.1c-3.57,0.4 -6.79,-2.28 -7.19,-5.85c-0.4,-3.56 2.15,-6.89 5.72,-7.29c0.28,-0.03 0.84,-0.09 0.84,-0.09l18.29,-2.05z" id="svg_112"/>
    <path class="st20" d="m482.69,299.72l-19.09,2.14l-0.86,0.1c-5.11,0.57 -9.73,-3.17 -10.31,-8.34c-0.26,-2.29 0.33,-4.59 1.66,-6.49c1.54,-2.2 3.93,-3.63 6.58,-3.93l19.2,-2.15c0,0 0.58,-0.04 0.84,-0.07c5.06,-0.57 9.64,3.17 10.22,8.32c0.26,2.29 -0.33,4.59 -1.66,6.49l0,0c-1.55,2.2 -3.93,3.63 -6.58,3.93m-20.59,-10.99l-0.83,0.09c-1.01,0.11 -1.94,0.68 -2.55,1.55c-0.54,0.77 -0.78,1.7 -0.67,2.62c0.23,2.04 2.09,3.57 4.06,3.35l19.98,-2.24c1.02,-0.11 1.95,-0.68 2.55,-1.55l0,0c0.54,-0.77 0.78,-1.7 0.67,-2.62c-0.23,-2.06 -2.01,-3.56 -3.96,-3.34c-0.3,0.03 -0.95,0.08 -0.95,0.08l-18.3,2.06z" id="svg_113"/>
    <path class="st21" d="m481.56,297.08c0,0 0.65,-0.05 0.93,-0.08c3.56,-0.4 6.7,2.27 7.09,5.83c0.4,3.56 -2.15,6.89 -5.72,7.29c-0.29,0.03 -0.84,0.09 -0.84,0.09l-13.05,1.46c0,0 -0.55,0.07 -0.84,0.1c-3.56,0.4 -6.79,-2.28 -7.19,-5.85c-0.4,-3.56 2.15,-6.89 5.71,-7.29c0.29,-0.03 0.84,-0.09 0.84,-0.09l13.07,-1.46z" id="svg_114"/>
    <path class="st20" d="m484.19,312.92l-13.86,1.55l-0.87,0.11c-2.48,0.28 -4.93,-0.46 -6.89,-2.06c-1.93,-1.58 -3.15,-3.81 -3.43,-6.28c-0.26,-2.29 0.33,-4.59 1.66,-6.49c1.54,-2.2 3.93,-3.63 6.56,-3.93l13.97,-1.56c0.01,0 0.58,-0.04 0.84,-0.07c2.48,-0.28 4.92,0.45 6.86,2.06c1.89,1.58 3.09,3.8 3.36,6.26c0.26,2.29 -0.33,4.59 -1.66,6.49c-1.53,2.2 -3.92,3.63 -6.54,3.92m-15.38,-11.57l-0.82,0.09c-1.01,0.11 -1.94,0.68 -2.55,1.55c-0.54,0.77 -0.78,1.7 -0.67,2.62c0.11,0.99 0.6,1.89 1.39,2.54c0.77,0.63 1.72,0.92 2.67,0.82l13.91,-1.57l0.82,-0.09c1.01,-0.11 1.94,-0.68 2.55,-1.55c0.54,-0.77 0.78,-1.7 0.67,-2.62c-0.11,-1.01 -0.59,-1.91 -1.36,-2.54c-0.74,-0.62 -1.67,-0.9 -2.61,-0.8c-0.3,0.03 -0.94,0.09 -0.95,0.09l-13.05,1.46z" id="svg_115"/>
    <path class="st21" d="m483.04,310.28c0,0 0.65,-0.05 0.93,-0.08c3.56,-0.4 6.7,2.26 7.1,5.83c0.4,3.56 -2.15,6.89 -5.72,7.29c-0.29,0.03 -0.1,0.57 -0.1,0.57l-7.53,0.84c0,0 -1.3,-0.41 -1.58,-0.38c-3.56,0.4 -6.79,-2.28 -7.19,-5.85c-0.4,-3.56 2.15,-6.89 5.72,-7.29c0.29,-0.03 0.84,-0.09 0.84,-0.09l7.53,-0.84z" id="svg_116"/>
    <path class="st20" d="m485.67,326.13l-8.34,0.93c0,0 -0.58,0.07 -0.87,0.1c-2.48,0.28 -4.92,-0.45 -6.89,-2.06c-1.93,-1.58 -3.15,-3.81 -3.43,-6.28c-0.26,-2.29 0.33,-4.59 1.66,-6.49c1.54,-2.2 3.93,-3.63 6.55,-3.93l8.46,-0.94c0.01,0 0.58,-0.05 0.84,-0.08c5.06,-0.57 9.64,3.17 10.22,8.32c0.26,2.29 -0.34,4.59 -1.66,6.49c-1.53,2.21 -3.92,3.64 -6.54,3.94m-10.69,-12.1c-1.01,0.11 -1.94,0.68 -2.55,1.55c-0.54,0.77 -0.78,1.7 -0.68,2.62c0.11,0.99 0.61,1.89 1.39,2.54c0.77,0.63 1.72,0.92 2.68,0.82c0.28,-0.03 0.8,-0.1 0.84,-0.1l8.37,-0.94c1.01,-0.11 1.94,-0.68 2.55,-1.55c0.54,-0.77 0.78,-1.7 0.68,-2.62c-0.23,-2.06 -2.01,-3.55 -3.97,-3.33c-0.3,0.03 -0.94,0.09 -0.95,0.08l-8.36,0.93z" id="svg_117"/>
    <path class="st21" d="m478.6,270.67c0,0 0.65,-0.05 0.93,-0.08c3.56,-0.4 6.7,2.27 7.1,5.83c0.4,3.56 -2.15,6.89 -5.72,7.29c-0.29,0.03 -0.84,0.09 -0.84,0.09l-7.53,0.85c0,0 -0.55,0.07 -0.84,0.1c-3.56,0.4 -6.79,-2.29 -7.19,-5.85c-0.4,-3.56 2.15,-6.89 5.72,-7.29c0.28,-0.03 0.84,-0.09 0.84,-0.09l7.53,-0.85z" id="svg_118"/>
    <path class="st20" d="m481.23,286.52l-8.35,0.93l-0.87,0.11c-5.11,0.57 -9.73,-3.17 -10.31,-8.34c-0.26,-2.29 0.33,-4.59 1.66,-6.49c1.54,-2.2 3.92,-3.63 6.57,-3.93l8.44,-0.94c0,0 0.6,-0.05 0.85,-0.08c2.48,-0.28 4.92,0.45 6.86,2.06c1.89,1.57 3.09,3.8 3.36,6.26c0.26,2.29 -0.33,4.59 -1.66,6.49c-1.54,2.2 -3.92,3.63 -6.55,3.93m-10.69,-12.11c-1.01,0.12 -1.94,0.68 -2.55,1.55c-0.54,0.77 -0.78,1.7 -0.67,2.62c0.23,2.04 2.09,3.58 4.05,3.36l9.23,-1.04c1.01,-0.11 1.94,-0.68 2.55,-1.55c0.54,-0.77 0.78,-1.7 0.67,-2.62c-0.11,-1.01 -0.6,-1.91 -1.36,-2.54c-0.74,-0.62 -1.67,-0.9 -2.63,-0.79c-0.29,0.03 -0.93,0.08 -0.93,0.08l-8.36,0.93z" id="svg_119"/>
    <path class="st21" d="m423.78,301.13c0,0 6.74,-6.03 10.07,-7.1c1.95,-0.63 9.17,0.29 13.01,-7.35c3.84,-7.63 -1.77,-9.24 -1.77,-9.24l-26.67,0.17l-15.42,17.4l-7.85,19.12l-38.07,17.04l-0.74,51.09l65.65,-28.35l1.79,-52.78z" id="svg_120"/>
    <path class="st20" d="m354.85,386l-4.62,-55.69l42.71,-18.24l7.63,-18.57l16.57,-18.7l28.33,-0.18l0.39,0.11c0.32,0.09 3.19,0.99 4.52,4.04c1.12,2.55 0.78,5.64 -1.01,9.18c-0.38,0.76 -0.81,1.48 -1.27,2.14c-3.88,5.54 -9.57,6.18 -12.3,6.48c-0.4,0.04 -0.95,0.1 -1.1,0.14c-1.7,0.54 -5.49,3.45 -8.15,5.73l-1.11,52.6l-70.59,30.96zm67.04,-86.98c1.2,-1.08 7.38,-6.49 11.09,-7.68c0.64,-0.21 1.36,-0.29 2.2,-0.38c2.48,-0.28 5.88,-0.66 8.3,-4.11c0.31,-0.44 0.6,-0.92 0.86,-1.44c0.93,-1.85 1.26,-3.43 0.9,-4.33c-0.17,-0.42 -0.49,-0.68 -0.71,-0.81l-24.82,0.16l-14.26,16.1l-8.08,19.67l-16.82,8.26l15.94,37.56l22.74,-9.98l1.77,-52.22l0.89,-0.8z" id="svg_121"/>
    <polygon class="st10" points="386.93,307.03 349.05,323.07 349.05,394.26 412.47,367.26   " id="svg_122"/>
    <polygon class="st21" points="416.67,353.16 425.92,348.93 429.32,338.32 431.41,317.73 412.28,327.45 403.61,319.93     407.49,351.16   " id="svg_123"/>
   </g>
   <rect x="576.32" y="169.03" transform="matrix(0.9689,-0.2474,0.2474,0.9689,-24.3387,151.15) " class="st2" width="26.1" height="6.82" id="svg_124"/>
   <rect x="586.27" y="181.28" transform="matrix(0.3159,-0.9488,0.9488,0.3159,219.0185,692.4246) " class="st2" width="6.82" height="26.11" id="svg_125"/>
   <rect x="548.77" y="140.76" transform="matrix(0.2457,-0.9693,0.9693,0.2457,284.2378,653.6249) " class="st2" width="26.69" height="6.82" id="svg_126"/>
   <rect x="567.11" y="150.79" transform="matrix(0.746,-0.666,0.666,0.746,44.7583,425.7442) " class="st2" width="26.69" height="6.82" id="svg_127"/>
   <rect x="576.45" y="197.54" transform="matrix(0.7021,-0.7121,0.7121,0.7021,22.0394,475.9671) " class="st2" width="6.82" height="28.21" id="svg_128"/>
  </g>
 </g>
</svg>