<svg width="799.9999999999999" height="449.99999999999994" xmlns="http://www.w3.org/2000/svg">
 <g>
  <title>background</title>
  <rect fill="#fff" id="canvas_background" height="502" width="890.88889" y="-1" x="-1"/>
 </g>

 <style type="text/css">.st0 {
			fill: #232323;
		}

		.st1 {
			opacity: 0.4;
		}

		.st2 {
			fill: #FFFFFF;
		}

		.st3 {
			fill: #040A10;
		}

		.st4 {
			fill: #DEE0E2;
		}

		.st5 {
			opacity: 0.1;
		}

		.st6 {
			fill: #003975;
		}

		.st7 {
			fill: #E4E5EA;
		}

		.st8 {
			opacity: 0.15;
		}

		.st9 {
			fill: #1CA79B;
		}

		.st10 {
			opacity: 0.8;
		}

		.st11 {
			opacity: 0.4;
			fill: #FFFFFF;
			enable-background: new;
		}

		.st12 {
			opacity: 0.7;
			fill: #FFFFFF;
			enable-background: new;
		}

		.st13 {
			opacity: 0.7;
		}

		.st14 {
			fill: #0097F8;
		}

		.st15 {
			fill: #FF5A33;
		}

		.st16 {
			fill: #273864;
		}

		.st17 {
			fill: #95C6EB;
		}

		.st18 {
			opacity: 0.5;
		}

		.st19 {
			fill: #ED9766;
		}

		.st20 {
			opacity: 7.000000e-02;
			enable-background: new;
		}

		.st21 {
			fill: #0D2B49;
		}

		.st22 {
			opacity: 0.2;
			enable-background: new;
		}

		.st23 {
			opacity: 7.000000e-02;
		}

		.st24 {
			fill: #081B2A;
		}

		.st25 {
			opacity: 0.1;
			enable-background: new;
		}

		.st26 {
			fill: #2B2B2B;
		}

		.st27 {
			fill: #E7E7E7;
		}

		.st28 {
			opacity: 0.3;
			enable-background: new;
		}

		.st29 {
			fill: #466874;
		}

		.st30 {
			fill: #004F80;
		}

		.st31 {
			fill: #DB855A;
		}

		.st32 {
			fill: #020202;
		}

		.st33 {
			opacity: 0.5;
			fill: #FFFFFF;
			enable-background: new;
		}

		.st34 {
			fill: #A66E4F;
		}

		.st35 {
			fill: #5F7485;
		}

		.st36 {
			fill: #362221;
		}

		.st37 {
			opacity: 0.15;
			enable-background: new;
		}

		.st38 {
			fill: #D9EDFF;
		}

		.st39 {
			fill: #B7866E;
		}

		#mbruone {
			animation: ab11 10s infinite;
		}

		/* Mady By 
Name:  Freelancer Tajul Rasel
Web and Graphic Desiner. (Map design and coding)
Web: https://freelancertajulrasel.com/nataliafiona
WhatsApp : +8801821010080
Mail: freelancertajulrasel@gmail.com
fiverr: https://fiverr.com/natalia_fiona
 */
		@keyframes ab11 {


			60% {
				transform: translate(0px, 0px);
			}



			65% {
				transform: translate(0px, -3px);
			}

			70% {
				transform: translate(0px, 0px);
			}


		}

		#meyeone&gt;path {
			animation: ab12 10s infinite;
		}

		@keyframes ab12 {




			60% {
				d: path("M 220.4 135.3 c 0 1.1 -0.9 1.9 -1.9 1.9 c -1.1 0 -1.9 -0.9 -1.9 -1.9 s 0.9 -1.9 1.9 -1.9 c 0.5 0 0.9 0.2 1.3 0.5 C 220.2 134.1 220.4 134.7 220.4 135.3 Z");
			}

			65% {
				d: path("M 220.4 135.3 c 0 1.1 -0.9 1.9 -1.9 1.9 c -1.1 0 -1.9 -0.9 -1.9 -1.9 s 0.9 0.1 1.9 0.1 C 219.6 135.3 220.4 134.2 220.4 135.3 Z");
			}

			70% {
				d: path("M 220.4 135.3 c 0 1.1 -0.9 1.9 -1.9 1.9 c -1.1 0 -1.9 -0.9 -1.9 -1.9 s 0.9 -1.9 1.9 -1.9 c 0.5 0 0.9 0.2 1.3 0.5 C 220.2 134.1 220.4 134.7 220.4 135.3 Z");
			}


		}

		#meyetwo&gt;path {
			animation: ab13 10s infinite;
		}

		@keyframes ab13 {




			60% {
				d: path("M 231.2 131.8 c 0 1.1 -0.9 1.9 -1.9 1.9 c -1.1 0 -1.9 -0.9 -1.9 -1.9 c 0 -0.7 0.3 -1.3 0.9 -1.6 c 0.3 -0.2 0.7 -0.3 1.1 -0.3 C 230.4 129.9 231.2 130.8 231.2 131.8 Z");
			}

			65% {
				d: path("M 231.2 131.8 c 0 1.1 -0.9 1.9 -1.9 1.9 c -1.1 0 -1.9 -0.9 -1.9 -1.9 s 0.9 0.7 1.9 0.7 C 230.4 132.6 231.2 130.8 231.2 131.8 Z");
			}

			70% {
				d: path("M 231.2 131.8 c 0 1.1 -0.9 1.9 -1.9 1.9 c -1.1 0 -1.9 -0.9 -1.9 -1.9 c 0 -0.7 0.3 -1.3 0.9 -1.6 c 0.3 -0.2 0.7 -0.3 1.1 -0.3 C 230.4 129.9 231.2 130.8 231.2 131.8 Z");
			}


		}

		#mmouthone&gt;path {
			animation: ab14 10s infinite;
    transform-box: fill-box;
    transform-origin: center;
		}

		@keyframes ab14 {


			70% {
				/* d: path("M 221.1 149.1 l 11.5 -1.4 C 230.9 160.1 221.1 149.1 221.1 149.1 Z"); */
					transform: scale(0.5);
			}



			80% {
				/* d: path("M 221 149.2 l 11.4 -1.3 C 231.1 154.2 221 149.2 221 149.2 Z"); */
				transform: scale(1.5);
			}

			90% {
				/* d: path("M 221.1 149.1 l 11.5 -1.4 C 230.9 160.1 221.1 149.1 221.1 149.1 Z"); */
				transform: scale(0.6);
			}
		100% {
				 
				transform: scale(1);
			}

		}

		#menlhand {
			animation: ab15 10s infinite alternate;
			transform-box: fill-box;
			transform-origin: left;
		}

		@keyframes ab15 {
			0% {
				transform: rotate(5deg);
			}

			60% {
				transform: rotate(5deg);
			}

			65% {
				transform: rotate(0deg);
			}
		}

		#handrm {
			animation: ab16 10s infinite alternate;
			transform-box: fill-box;
			transform-origin: top;
		}

		@keyframes ab16 {


			60% {
				transform: rotate(0deg);
			}

			70% {
				transform: rotate(-10deg);
			}

			80% {
				transform: rotate(0deg);
			}
		}

		.dotone {
			animation: ab17 1s infinite linear;
		}

		.dottwo {
			animation: ab17 2s infinite linear;
		}

		.dotthree {
			animation: ab17 3s infinite linear;
		}

		@keyframes ab17 {
			0% {
				opacity: 0;
			}

			100% {
				opacity: 1;
			}
		}

		#dotround {
			animation: ab18 10s linear infinite;
			transform-box: fill-box;
			transform-origin: center;
		}

		@keyframes ab18 {
			0% {
				transform: rotate(0turn);
			}

			100% {
				transform: rotate(1turn);
			}
		}

		.settingone {
			animation: ab18 8s linear infinite;
			transform-box: fill-box;
			transform-origin: center;
		}

		.settingtwo {
			animation: ab18 8s linear infinite reverse;
			transform-box: fill-box;
			transform-origin: center;
		}

		#progress {
			animation: ab20 5s linear infinite;
		}

		@keyframes ab20 {
			0% {
				width: 5px;
			}

			100% {}
		}

		#dotplus {
			animation: ab25 3s infinite alternate;
			transform-box: fill-box;
			transform-origin: center;
		}

		@keyframes ab25 {

			0% {}

			50% {
				transform: rotate(90deg);
			}
		}

		#dotmin {
			animation: ab26 3s infinite alternate;
			fill: white;
		}

		@keyframes ab26 {
			0% {}

			50% {
				opacity: 0;
			}
		}

		#whandr {
			animation: ab45 10s infinite;
			transform-box: fill-box;
			transform-origin: top
		}

		@keyframes ab45 {
			80% {
				transform: rotate(-6deg);
			}

			90% {
				transform: rotate(0deg);
			}
		}

		#whandl {
			animation: ab27 10s infinite;
			transform-box: fill-box;
			transform-origin: right;
		}

		@keyframes ab27 {
			0% {
				transform: rotate(-10deg);
			}

			25% {
				transform: rotate(-10deg);
			}

			30% {
				transform: rotate(0deg);
			}

			55% {
				transform: rotate(0deg);
			}

			65% {
				transform: rotate(-10deg);
			}

			100% {
				transform: rotate(-10deg);
			}
		}

		#whandl&gt;g {
			animation: ab27a 10s infinite;
			transform-box: fill-box;
			transform-origin: bottom;
		}

		@keyframes ab27a {
			22% {
				transform: rotate(0deg);
			}

			25% {
				transform: rotate(10deg);
			}

			30% {
				transform: rotate(45deg);
			}

			40% {
				transform: rotate(-10deg);
			}

			65% {
				transform: rotate(-10deg);
			}

			100% {
				transform: rotate(-10deg);
			}
		}

		#wbru {
			animation: ab28 10s infinite;
		}

		@keyframes ab28 {




			25% {
				transform: translate(0px, 0px);
			}

			30% {
				transform: translate(0px, -3px);
			}

			40% {
				transform: translate(0px, 0px);
			}





		}

		#weyetwo&gt;path {
			animation: ab29 10s infinite;
		}

		@keyframes ab29 {
			0% {}



			25% {
				d: path("M 568.4 149.9 c 0 1.1 -0.9 2 -2 2 s -2 -0.9 -2 -2 s 0.9 -2 2 -2 c 0.4 0 0.8 0.1 1.1 0.3 C 568 148.6 568.4 149.2 568.4 149.9 Z");
			}

			30% {
				d: path("M 568.4 150.3 c -0.2 1.1 -1.3 1.8 -2.4 1.6 s -1.8 -1.3 -1.6 -2.4 s 0.7 1.1 1.8 1.4 C 567.3 151.1 568.6 149.2 568.4 150.3 Z");
			}

			40% {
				d: path("M 568.4 149.9 c 0 1.1 -0.9 2 -2 2 s -2 -0.9 -2 -2 s 0.9 -2 2 -2 c 0.4 0 0.8 0.1 1.1 0.3 C 568 148.6 568.4 149.2 568.4 149.9 Z");
			}





		}

		#weyeone&gt;path {
			animation: ab30 10s infinite;
		}

		@keyframes ab30 {
			0% {}



			25% {
				d: path("M 581.7 153.3 c 0 1.1 -0.9 2 -2 2 s -2 -0.9 -2 -2 s 0.9 -2 2 -2 c 0.6 0 1.1 0.2 1.4 0.6 C 581.5 152.3 581.7 152.8 581.7 153.3 Z");
			}

			30% {
				d: path("M 581.7 153.8 c -0.4 1.5 -2.3 2.2 -3.6 0.8 c -0.3 -0.3 -0.4 -0.8 -0.4 -1.2 c 0.3 -2.4 1.2 0.8 3.1 -0.1 C 581.5 152.9 581.9 153.1 581.7 153.8 Z");
			}

			40% {
				d: path("M 581.7 153.3 c 0 1.1 -0.9 2 -2 2 s -2 -0.9 -2 -2 s 0.9 -2 2 -2 c 0.6 0 1.1 0.2 1.4 0.6 C 581.5 152.3 581.7 152.8 581.7 153.3 Z");
			}






		}

		#wmouth&gt;path {
			animation: ab33 10s infinite;
    transform-box: fill-box;
    transform-origin: center;
		}

		@keyframes ab33 {


			25% {
				/* d: path("M 564.3 166.2 l 8.5 2.1 C 565 173.1 564.3 166.2 564.3 166.2 Z"); */
				transform: scale(0.5);
			}

			30% {
				/* d: path("M 562.7 165.5 l 12.5 3 C 564.2 177.8 562.7 165.5 562.7 165.5 Z"); */
				    transform: scale(1.5);
			}

			40% {
				/* d: path("M 562.7 165.5 l 12.5 3 C 564.2 177.8 562.7 165.5 562.7 165.5 Z"); */
				transform: scale(0.6);
			}
			50% {
				 
				transform: scale(1);
			}
			60% {
				 
				transform: scale(0.5);
			}

		}

		#mobileone {
			animation: ab34 10s infinite;
		}

		@keyframes ab34 {
			0% {
				transform: translate(-279px, 0px);
			}

			20% {
				transform: translate(0px, 0px);
			}
		}

		#mobiletwo {
			animation: ab35 10s infinite;
		}

		@keyframes ab35 {
			0% {
				transform: translate(279px, 0px);
			}

			20% {
				transform: translate(0px, 0px);
			}
		}

		#menopa,
		#wenopa {
			animation: ab36 10s infinite;
		}

		@keyframes ab36 {
			0% {
				opacity: 0;
			}

			15% {
				opacity: 0;
			}

			20% {
				opacity: 1;
			}
		}

		#cartopa {
			animation: ab37 10s infinite;
		}

		@keyframes ab37 {
			0% {
				opacity: 0;
			}

			60% {
				opacity: 0;
			}

			65% {
				opacity: 1;
			}
		}

		#dotnetopa {
			animation: ab38 10s infinite;
		}

		@keyframes ab38 {
			0% {
				opacity: 0;
			}

			40% {
				opacity: 0;
			}

			45% {
				opacity: 1;
			}
		}

		#dottwoopa {
			animation: ab39 10s infinite;
		}

		@keyframes ab39 {
			0% {
				opacity: 0;
			}

			60% {
				opacity: 0;
			}

			70% {
				opacity: 1;
			}
		}

		#dotthreeopa {
			animation: ab40 10s infinite;
		}

		@keyframes ab40 {
			0% {
				opacity: 0;
			}

			50% {
				opacity: 0;
			}

			55% {
				opacity: 1;
			}
		}

		#dotseteopa {
			animation: ab41 10s infinite;
		}

		@keyframes ab41 {
			0% {
				opacity: 0;
			}

			55% {
				opacity: 0;
			}

			60% {
				opacity: 1;
			}
		}</style>
 <g>
  <title>Layer 1</title>
  <g id="menlhand">
   <path class="st19" d="m252.07778,188.26667c3,10.5 6.5,21.1 10.5,31.2c3.3,8 6.7,16.6 12.1,23.3c18.8,3.5 38.7,7.3 57.7,3.8l3.4,11c-21.3,8.4 -44.8,6.7 -67.4,6.6c-18.5,-2.4 -37.1,-51.1 -43.7,-67.2l27.4,-8.7z" id="svg_54"/>
   <path class="st2" d="m252.07778,188.26667c3,10.5 6.5,21.1 10.5,31.2c3.3,8 6.7,16.6 12.1,23.3c15.6,2.9 32.2,5.3 48.2,4.3c0.1,0.3 3.3,9 2,14.7c-18.2,4.4 -37.8,2.5 -56.5,2.5c-18.5,-2.4 -37.1,-51.1 -43.7,-67.2l27.4,-8.8z" id="svg_55"/>
   <path class="st20" d="m252.07778,188.26667c3,10.5 6.5,21.1 10.5,31.2c3.3,8 6.7,16.6 12.1,23.3c8.7,1.6 17.6,3.3 26.6,4.3c0.4,0.6 0.8,1.2 1.3,1.6c1.8,1.8 4.5,2.9 7.1,2.9c5.7,0 11.5,-0.6 17.2,0c2.2,0.2 4.5,-0.8 6.3,-2.2l2.5,8.2c-21.3,8.4 -44.8,6.7 -67.4,6.6c-18.5,-2.4 -37.1,-51.1 -43.7,-67.2l27.5,-8.7z" id="svg_56"/>
   <path class="st21" d="m250.37778,184.06667c4,7.4 17.5,48.5 22.9,55.2c15.3,2 29.5,6.1 47.5,6c2.1,5.7 3,14.1 2.3,18.5c-12.3,1.3 -41.3,5.8 -59.2,3.9c-20.9,-2 -32.6,-54.6 -39.2,-70.7l25.7,-12.9z" id="svg_57"/>
   <path class="st22" d="m248.17778,185.16667c0,0.4 0.1,0.7 0,1.1c-4.3,15.7 2.2,56.8 2.9,61c0.8,4.7 3.6,9.3 8,11.6c4.2,2.2 9,2.8 13.7,2.8c3.2,0 41.5,1.1 50.4,-0.5c0,1 -0.1,1.9 -0.2,2.6c-12.3,1.3 -41.3,5.8 -59.2,3.9c-20.9,-2 -32.6,-54.6 -39.2,-70.7l23.6,-11.8z" id="svg_58"/>
   <g id="svg_59">
    <g id="svg_60">
     <path class="st19" d="m351.07778,254.56667c0.2,0 0.4,0 0.6,-0.1c5.9,-1.5 15,-2.1 15.1,-2.1c1.1,-0.1 1.9,-0.9 1.8,-2s-1,-1.9 -2,-1.8c-0.5,0 -11.6,0.3 -19.3,2.6c-1,0.2 3,3.3 3.8,3.4z" id="svg_61"/>
    </g>
    <g class="st23" id="svg_62">
     <path d="m368.07778,249.06667c0.3,0.3 0.6,0.8 0.6,1.3c0.1,1.1 -0.8,1.9 -1.8,2c-0.1,0 -9.2,0.6 -15.1,2.1c-0.2,0 -0.4,0.1 -0.6,0.1c-0.6,0 -4.8,-1.9 -5.2,-3c1.7,-1.3 18.5,-2.4 22.1,-2.5z" id="svg_63"/>
    </g>
    <path class="st19" d="m324.07778,251.26667c0.1,-0.5 0.1,-1 0.2,-1.5c0.5,-3.6 8.4,-7.1 13.2,-6.8c3.9,0.3 9.4,-2 9.9,-0.7c1,2.2 -0.4,4.5 -5.5,5.5c-3.3,0.6 2.6,2.1 2.6,2.1c4,0.9 12,0.5 12,0.5c5.6,-0.5 11.8,-0.1 11.8,-0.1c1.1,0 1.9,0.9 1.9,1.9c0,1.1 -0.9,1.7 -1.9,1.7c-0.1,0 -6.2,-0.6 -11.6,-0.1l0.6,3.8l-10,3.8c-0.5,0.2 -1.1,0.3 -1.6,0.3c-3,0 -13.1,-0.2 -16,-1.1c-2.4,-0.7 -3.8,-1.5 -4.7,-2.6c0.2,-2.3 -0.2,-4.6 -0.9,-6.7z" id="svg_64"/>
    <path class="st20" d="m341.57778,248.86667c-3.3,-0.4 -1.8,-2.1 -1.6,-2.2c2.1,-0.8 3.7,0.5 6.3,-1.5c0.5,-0.4 0.9,-0.9 1.4,-1.8c0.1,1.8 -1.5,3.6 -5.7,4.4c-1.4,0.2 -1.1,0.6 -0.4,1.1z" id="svg_65"/>
    <g class="st23" id="svg_66">
     <path d="m349.47778,253.86667c5.3,-2.4 16,-3.1 16.5,-3.1c1.1,-0.1 2,0.7 2.1,1.7c0,0.5 -0.1,1 -0.5,1.4c-0.6,-0.1 -1.2,-0.2 -1.7,-0.2c-2,0 -3.9,0.6 -5.4,1.6c-2.9,0.5 -6.4,1.1 -9.2,2c-0.2,0.1 -0.4,0.1 -0.6,0.1c-0.8,0 -2.2,-3.1 -1.2,-3.5z" id="svg_67"/>
    </g>
    <g id="svg_68">
     <path class="st19" d="m350.07778,257.76667c0.2,0 0.4,0 0.6,-0.1c5.9,-1.8 14.9,-2.7 15,-2.7c1.1,-0.1 1.9,-1 1.8,-2.1s-1,-1.8 -2.1,-1.7c-0.5,0 -11.1,1 -17.4,2.8c-1,0.3 1.3,3.8 2.1,3.8z" id="svg_69"/>
    </g>
    <g class="st23" id="svg_70">
     <path d="m351.07778,257.56667c-0.1,0 -0.3,0.1 -0.4,0.1c-0.2,0.1 -0.4,0.1 -0.6,0.1l-0.1,0c0.4,-0.1 0.8,-0.1 1.1,-0.2z" id="svg_71"/>
    </g>
    <g class="st23" id="svg_72">
     <path d="m346.67778,255.86667c6.1,-1.8 14.9,-3.6 15,-3.6c1,-0.3 2.1,0.3 2.4,1.3c0.2,0.6 0,1.2 -0.3,1.6c-0.1,0 -0.3,0 -0.4,0.1c-1.8,0.2 -3.5,0.5 -5.3,1s-3.3,1.4 -4.4,2.6c-1.7,0.5 -3.5,1.1 -5.1,1.6c-0.2,0.1 -0.4,0.1 -0.6,0.1c-0.8,0 -1.6,-0.5 -1.9,-1.4c-0.2,-1 -0.4,-2.9 0.6,-3.3z" id="svg_73"/>
    </g>
    <g id="svg_74">
     <path class="st19" d="m347.47778,261.06667c0.2,0 0.4,0 0.6,-0.1c6.1,-1.8 14,-4.5 14.1,-4.5c1,-0.3 1.6,-1.3 1.3,-2.4c-0.3,-1 -1.4,-1.6 -2.4,-1.3c-0.1,0 -8.1,2.1 -16.1,3.4c-1.1,0.2 0.3,2.5 0.6,3.5c0.3,0.8 1,1.4 1.9,1.4z" id="svg_75"/>
    </g>
    <path class="st20" d="m324.07778,251.26667l0,-0.1c0.5,0.8 1,1.5 1.7,2.2c1.9,1.8 3.9,2.8 6.3,3.6c1.7,0.5 9.9,2.1 12.7,1.7c0.2,0 3.6,-0.8 4.9,-1.1c2.7,-0.7 7.6,-1.4 7.7,-1.5c2,-0.5 4,-1.3 5.9,-2.3c0.1,0.1 0.1,0.2 0.1,0.3c0.3,1 -0.3,2.1 -1.3,2.4c-0.1,0 -6.1,2 -11.7,3.7l-2.9,1.1c-0.6,0.2 -1.3,0.4 -2,0.3c-3.2,0 -13,-0.3 -15.9,-1.1c-2.4,-0.7 -3.8,-1.5 -4.7,-2.6c0.3,-2.2 -0.1,-4.5 -0.8,-6.6z" id="svg_76"/>
   </g>
  </g>
  <g id="svg_77">
   <g id="svg_78">
    <g id="svg_79">
     <g id="svg_80">
      <g id="svg_81">
       <path class="st24" d="m205,382.38889c-2.5,-22.1 -8.2,-41.7 -11.1,-58.5c-3.5,-35.1 46.2,-76.1 52.7,-23.6c1.7,13.8 2.5,35.8 -3.3,82.1l-38.3,0z" id="svg_82"/>
       <path class="st25" d="m246.6,300.28889c0.7,5.6 1.2,12.6 1.3,22.1c-2,-0.7 -4.2,-0.7 -6.2,-0.2c-2.4,0.5 -4.8,2.5 -6,4.5c-1.4,2.3 -1.6,5 -1,7.6c0,0.1 0.1,0.3 0.1,0.4c0.2,2.1 0.1,4.2 -0.2,6.4c-0.1,0.5 -0.2,1 -0.3,1.6c-2.5,2.6 -5,5.3 -7.4,8.1c-5.9,6.9 -11.9,14.6 -14.5,23.4c-0.8,2.6 -1.2,5.4 -1.1,8.2l-6.3,0c-2.5,-22.1 -8.2,-41.7 -11.1,-58.5c-3.5,-35 46.2,-76 52.7,-23.6z" id="svg_83"/>
       <path class="st24" d="m192.5,382.38889l-38.1,0c4.8,-30.4 7.1,-53.8 10.6,-79.7c2.6,-35.6 63.1,-17.1 50.6,16.7c-0.8,2.6 -10.3,45 -23.1,63z" id="svg_84"/>
       <path class="st25" d="m211.9,333.78889c-0.4,-0.1 -0.8,-0.1 -1.2,-0.2c-7.8,-0.7 -15.9,2.4 -22.2,6.5c-5.3,3.5 -10.4,7.7 -14.4,12.6c-2.1,2.6 -4,5.2 -5.5,8.1s-2.7,6 -3.7,9.1c-0.8,2.6 -1.5,5.3 -2.1,7.9c-0.6,1.4 -1.2,2.9 -1.6,4.4l-6.6,0c4.8,-30.4 7.1,-53.8 10.6,-79.7c2.6,-35.6 63.1,-17.1 50.6,16.7c-0.5,1.1 -1.8,6.8 -3.9,14.6z" id="svg_85"/>
       <path class="st2" d="m154.2,186.68889c1.9,-3.2 18.2,-18.1 38.1,-20.1c7.1,-0.7 20.4,-0.3 29.8,1.5c7.9,1.5 26.8,13 29.9,18.2c4,6.7 -1.2,28.6 -3.2,37.8c-3.6,16.3 -1.3,84.8 -1.3,84.8s-7.1,5.7 -33.9,4.5c-35.3,-1.5 -46.4,-11 -46.4,-11c1.5,-43.9 -2.1,-70.5 -7.3,-84.7c-4.3,-11.2 -14.8,-15.2 -5.7,-31z" id="svg_86"/>
       <path class="st15" d="m220.7,177.48889c0.5,-0.1 1,-0.3 1.5,-0.5c0.1,2.2 0,4.3 -0.2,6.5c-0.3,2 -1.5,4.4 -2.1,6.3c-1.1,0 -1.5,-1 -2.6,-0.9c-1.1,0 -2.1,0.1 -3.2,0.2c-0.3,-0.9 -0.5,-1.4 -0.8,-2.3c-0.4,-1.2 -0.9,-2.3 -1.2,-3.5c-0.5,-1.8 -1,-3.5 -1.7,-5.2c3.5,0.2 6.8,0 10.3,-0.6z" id="svg_87"/>
       <path class="st15" d="m220.2,187.28889c-0.3,5.4 4.3,22 3.3,35.7c-0.3,2 -2.9,20.4 -3.4,22.4c-1.1,0 -10.3,-21.4 -10.1,-22.4c3.5,-20.6 4.2,-34 4.3,-35c0.2,-2.2 5.8,-0.7 5.9,-0.7z" id="svg_88"/>
       <path class="st21" d="m154.4,183.38889c1.9,-3.2 19.6,-15.2 38.9,-17.8c1.1,-0.1 22.4,46 25.7,67.5c3.1,20.6 2.3,80.8 0.9,103.8c-0.2,3.1 -2.8,5.5 -6,5.5c-38.2,-0.8 -55,-9.5 -55,-9.5c9.9,-66.2 5.6,-94.8 0.3,-109c-4,-11.2 -13.9,-24.6 -4.8,-40.5z" id="svg_89"/>
       <path class="st22" d="m164.7,278.48889c0.8,-17.4 0,-30.1 -1.5,-39.5l0,0c-1,-6.4 -2.4,-11.3 -3.8,-15.1c-1.1,-3 -2.7,-6.2 -4.1,-9.5c1.2,0.3 2.4,0.6 3.7,0.9c0.9,1.2 2,2.3 3.2,2.9c0.8,0.4 1.7,0.9 2.4,1.4c0.7,0.6 1.3,1.2 1.9,1.9c0.9,1.3 1.7,2.6 2.4,4.1c1.3,3.5 2.9,12.4 3,13.2c0.2,2 0.3,4.1 0.4,6.1c0,0.2 0,0.4 -0.1,0.6c3.8,2.6 29.8,14.5 32.1,14.6c0,1.1 -0.1,2.2 -0.2,3.3c-0.7,4.1 -1.8,8.2 -2.1,12.3c-0.1,1.4 -29.7,-2.5 -32.3,-2.3c-0.1,3.1 -0.2,10.9 -0.2,14c-0.1,6.9 -0.2,13.9 0.9,20.8c0.7,4.7 2.6,9.3 4.9,13.4c4.8,8.3 12.5,14.9 20.9,19.5c0.2,0.1 0.4,0.2 0.6,0.3c-26.1,-2.5 -37.8,-8.5 -37.8,-8.5c3.3,-22 5.1,-39.9 5.7,-54.4l0,0z" id="svg_90"/>
       <path class="st21" d="m220.4,240.98889c8,-36.4 2.7,-72.4 2.9,-72.4c7.9,1.5 26.3,12.5 29.4,17.7c4,6.7 2,28.6 0,37.8c-3.6,16.3 -2.7,112.5 -2.7,112.5s-9.5,4.6 -25.2,5.7c-3.3,0.2 -6.1,-2.5 -6,-5.8c1,-22.9 -6.6,-58.2 1.6,-95.5z" id="svg_91"/>
       <path class="st22" d="m218.8,332.28889c0.3,-1.7 0.5,-3.4 0.7,-5.1c1.7,-13.3 1.2,-63.3 0.5,-83.3c-0.1,-1.7 2.2,26.5 2.2,34c0,36 -3.8,61.4 -3.6,58.6c0.2,-1.4 0.2,-2.8 0.2,-4.2z" id="svg_92"/>
      </g>
      <g id="svg_93">
       <path class="st19" d="m199.7,137.38889c1.5,-4.2 12.2,-6.2 16.4,-4.7c3.6,1.3 5.7,4.8 5.3,8.4l0,0.1l0.3,24.1c0.1,1.1 -0.1,2.4 -0.3,5.3c-0.6,8.9 -13.3,4.2 -13.3,4.2c-1.8,-1.7 -11.8,-6.4 -10.8,-9.5c5.1,-15.2 2.4,-27.9 2.4,-27.9z" id="svg_94"/>
       <path class="st20" d="m216.1,132.68889c3.6,1.3 5.7,4.8 5.3,8.4l0,0.1l0.3,25.6c0,0.1 0,0.3 -0.1,0.4c-14.9,-5.2 -17.3,-14.6 -17.7,-15.6c-1.3,-4.6 -1.9,-7.1 -2.7,-11.7c0.5,-2.3 0.9,-3.8 0.9,-3.8c1.6,-4.2 9.8,-4.9 14,-3.4z" id="svg_95"/>
       <path class="st19" d="m228.6,108.68889c0,0 15.5,50.6 -2,52c-15.4,1.3 -22.9,-6 -22.9,-6s-21.5,-32.8 -13.9,-42.6c5.9,-7.6 38.8,-3.4 38.8,-3.4z" id="svg_96"/>
       <path class="st26" d="m203.5,101.98889c9.3,-2.1 25.4,2.5 30.1,2.1c0,0 6.5,12.2 -7.3,14.2s-20.7,4.1 -20.2,7.4c0.5,3.2 2.1,6.9 2.1,6.9l-3,2.1c0,0 -6.2,-2.6 -6.6,0.4c-0.6,4.1 1.5,9.7 5.4,9.7c0,0 -1.5,2.3 -3.7,7c0,0 -14.1,-12.3 -14.2,-28.1c0,-13.2 8.1,-19.6 17.4,-21.7z" id="svg_97"/>
      </g>
     </g>
    </g>
   </g>
   <path class="st27" d="m221.8,165.98889c0,0 -0.2,7.4 -4.7,9.8l5.9,9c-0.1,0 4.7,-11.1 -1.2,-18.8z" id="svg_98"/>
   <path class="st27" d="m217,175.78889l-4.7,10c-0.4,0 -16.8,-6.6 -18.8,-18.9l5.2,-5.1c0.1,0 5.8,13.9 18.3,14z" id="svg_99"/>
   <path class="st2" d="m221.8,164.68889c0,0 -0.2,8.7 -4.7,11.1l5.9,7.7c-0.1,0 4.7,-11.1 -1.2,-18.8z" id="svg_100"/>
   <path class="st2" d="m217,175.78889l-4.7,8.7c-0.4,0 -16.8,-6.6 -18.8,-18.9l5.2,-5.1c0.1,-0.1 5.8,15.2 18.3,15.3z" id="svg_101"/>
   <path class="st28" d="m221.7,164.38889c2.3,0.8 5.5,3.8 7.7,6.4c1.5,1.9 4.9,4.6 4.9,4.6c-1,1.6 -3.9,4.6 -3.9,4.6l5.2,8.5c0,0 -7.6,23.2 -14.8,52.6c-0.1,-7.5 5.8,-35.4 5.6,-39.2c-0.6,-11.1 0.5,-19 -1,-24.7c-0.9,-3.9 -3.6,-11.9 -3.7,-12.8z" id="svg_102"/>
   <path class="st28" d="m199,158.98889c0,0 -1.7,9.7 1,18.1c5.5,16.8 19.3,45 18.7,63.9c0,0 -22.1,-40.1 -32.6,-50.7l4.3,-8.3l-5.3,-3.8c0,0 2.6,-10.5 5.1,-11.9l8.8,-7.3z" id="svg_103"/>
   <path class="st21" d="m199,158.98889c0,0 1.1,11.7 3.9,20.2c5.5,16.8 17.9,45.8 17.2,64.7c0,0 -20.9,-43.4 -31.3,-54l4.3,-8.3l-5.3,-3.8c0,0 -0.5,-6.5 1.9,-11l9.3,-7.8z" id="svg_104"/>
   <path class="st21" d="m221.7,164.38889c2.3,0.8 5.5,3.8 7.7,6.4c1.5,1.9 3.4,4.6 3.4,4.6c-1,1.6 -5,3.7 -5,3.7l5.6,9.4c0,0 -6.5,22.2 -13.2,55.4c-0.1,-7.5 6.7,-48.4 3.6,-67.7c-0.7,-4 -2,-10.9 -2.1,-11.8z" id="svg_105"/>
  </g>
  <g id="handrm">
   <path class="st29" d="m240.8,253.48889l17.9,0.4c0.4,0 0.7,-0.3 0.7,-0.7l0,0c0,-0.4 -0.3,-0.7 -0.7,-0.7l-17.9,-0.4c-0.4,0 -0.7,0.3 -0.7,0.7l0,0c0,0.3 0.3,0.6 0.7,0.7z" id="svg_106"/>
   <path class="st21" d="m274.1,253.58889l-50.3,-1.3c-0.4,0 -0.8,0.1 -1,0.4l-30,27.8c-1.2,1 -0.2,2.6 0.7,2.6l45.2,-1c0.5,0 1.1,-0.2 1.5,-0.5l34.5,-25.8c0.4,-0.3 0.3,-2.3 -0.6,-2.2z" id="svg_107"/>
   <path class="st30" d="m274.2,254.58889l-49.7,-0.9c-0.4,0 -0.8,0.1 -1,0.4l-30.7,27.4c-0.6,0.6 -0.2,1.7 0.7,1.7l45.2,0c0.5,0 1.1,-0.2 1.5,-0.5l34.5,-26.8c0.4,-0.4 0.1,-1.3 -0.5,-1.3z" id="svg_108"/>
   <path class="st19" d="m142.1,268.58889c15.8,3.8 33.2,5.5 50.9,5.4c2.3,0.8 16.9,5.9 17.9,6c1.1,0.1 4.4,-3.2 4.4,-3.2s2.6,-0.8 3.5,-1.1c1.3,-0.4 2.1,-2.4 2.4,-3.1c0.4,0 8.9,-2.1 8.9,-2.1c0.9,-0.2 1.4,-1.1 1.2,-2c-0.2,-0.7 -0.8,-1.2 -1.5,-1.2c0.8,-0.1 1.7,-0.1 2.5,-0.2c0.9,-0.1 1.6,-0.8 1.5,-1.7c-0.1,-0.8 -0.8,-1.5 -1.6,-1.5l0,0c-3.5,0 -7,-0.1 -10.5,-0.1c0,0 -4.9,0.2 -8,-0.8l4.5,-4.2c0,0 -6.5,-1 -8.3,-1c-1.4,0 -10.1,2.8 -14.2,4.1c-12.7,-1.8 -27.7,-5.4 -39.1,-10.5c4,-17.2 12,-33.8 19.9,-49.6l-23.8,-12.1c-7.8,20.4 -18.2,41.3 -19.7,63.3c-0.4,6.9 1,14 9.1,15.6zm79.3,-0.2c-1.3,0.1 -3.6,0.2 -5.9,0.2c0,-0.1 0,-0.2 0,-0.3c3,-0.2 6.4,-0.5 6.4,-0.5c2.5,-0.1 5,-0.4 7.5,-0.6c-1.1,0.2 -6.2,1.1 -8,1.2z" id="svg_109"/>
   <path class="st2" d="m133.1,252.88889c1.5,-22 11.9,-42.9 19.7,-63.3l23.8,12.1c-8,15.9 -15.9,32.4 -19.9,49.6c11.4,5.1 26.4,8.3 39.1,10.1c0.1,0 -1.2,11.6 -1.6,13.3c-0.6,-0.2 -1.5,-0.2 -1.8,-0.3c-17.7,0.1 -34.5,-2.1 -50.3,-5.8c-8.1,-1.6 -9.5,-8.7 -9,-15.7z" id="svg_110"/>
   <path class="st20" d="m231.3,268.38889l0,0c0.2,0.9 -0.3,1.8 -1.2,2c0,0 -4.4,1.1 -7.3,1.8c-0.6,0.2 -7,1.4 -7.5,1.5c0.3,-0.3 15.5,-3.9 16,-5.3z" id="svg_111"/>
   <path class="st20" d="m232.4,266.98889c-0.8,0.1 -1.7,0.1 -2.5,0.2c0.1,0 0.2,0 0.3,0c-0.1,0 -0.2,0 -0.4,0c-0.6,0 -1.1,0 -1.6,0.1c-2.1,0.2 -4.2,0.4 -6.3,0.5c0,0 -3.9,0.3 -6.4,0.5c9.9,-2.2 16.6,-1.1 18.4,-3.2c0,0 0,0.1 0,0.2c0,0.9 -0.6,1.7 -1.5,1.7z" id="svg_112"/>
   <path class="st20" d="m133.1,252.88889c1.5,-22 11.9,-42.9 19.7,-63.3l23.8,12.1c-8,15.9 -15.9,32.4 -19.9,49.6c6.8,3 14.9,5.5 23.1,7.4c-0.5,0.2 -1.1,0.4 -1.6,0.7c-2.3,1.2 -3.8,3.5 -4.6,5.9s-0.2,5.5 1,7.6c0.1,0.2 0.2,0.3 0.3,0.5c-11.4,-0.8 -22.4,-2.4 -32.8,-4.8c-8.1,-1.6 -9.5,-8.7 -9,-15.7z" id="svg_113"/>
   <path class="st20" d="m133.1,252.88889c1.5,-22 11.9,-42.9 19.7,-63.3l23.8,12.1c-8,15.9 -15.9,32.4 -19.9,49.6c10,4.4 22.8,7.8 34.4,9.7c-0.4,3.7 1.3,7.3 4.1,9.9c2.5,2.2 5,3.4 8.1,4.6c3.7,1.5 7.7,1.9 11.7,1.5c-0.9,0.8 -3.2,2.9 -4.1,2.9c-1,-0.1 -14.4,-4.5 -16.7,-5.3c-17.7,0.1 -36.4,-2.3 -52.1,-6.1c-8.1,-1.5 -9.5,-8.6 -9,-15.6z" id="svg_114"/>
   <path class="st21" d="m130.2,255.28889c1.5,-22 16.7,-56.3 22.4,-68l25.4,13.7c-8,15.9 -13.7,30.5 -17.7,47.7c9.8,3.6 24,9.7 34,11.7c0,4.8 -1.3,13.9 -1.9,16.9c-18.9,-1.7 -39.6,-3.1 -53.1,-6.3c-8.2,-1.6 -9.6,-8.6 -9.1,-15.7z" id="svg_115"/>
   <path class="st22" d="m130.2,255.28889c1.1,-16.3 10.1,-40.6 16.2,-55.5c-0.3,1.1 -10.1,34.8 -10.9,40.3c-0.6,4.2 -1,8.1 0,12.3c0.8,3.5 2.9,7 5.7,9.3l0.1,0.1c15,7 50.3,9.6 51.5,9.7c0.1,0 0.3,0 0.4,0.1c-0.3,2.4 -0.7,4.6 -1,5.7c-18.9,-1.7 -39.6,-3.1 -53.1,-6.3c-8,-1.6 -9.4,-8.6 -8.9,-15.7z" id="svg_116"/>
  </g>
  <path class="st31" d="m229.1,141.88889l-1.5,-3.3c-0.2,-0.5 -0.4,-1 -0.7,-1.5c-0.3,-0.4 -0.6,-0.2 -1.1,0c-0.6,0.3 -1.3,0.6 -1.9,0.9c-0.5,0.4 -0.2,0.8 0.1,1.4c0.5,1.2 1,2.5 1.5,3.7c0.1,0.4 0.3,0.7 0.6,0.9c0.5,0.3 1.2,0.1 1.8,-0.1c0.6,-0.2 1.3,-0.6 1.3,-1.2c0.1,-0.3 0,-0.6 -0.1,-0.8z" id="svg_117"/>
  <g id="mbruone">
   <path d="m219.5,126.28889c-2.6,0 -5.1,0.8 -7.1,2.4c-0.3,0.3 -0.4,0.7 -0.4,1.2s0.2,0.8 0.4,1.2c0.3,0.3 0.8,0.5 1.2,0.5c0.4,0 0.8,-0.2 1.1,-0.5c1.4,-1 3.1,-1.5 4.8,-1.5c0.4,0 0.8,-0.2 1.1,-0.5s0.4,-0.7 0.4,-1.2c0,-0.4 -0.2,-0.8 -0.4,-1.2c-0.3,-0.2 -0.7,-0.4 -1.1,-0.4z" id="svg_118"/>
   <path d="m231.5,122.98889c-2.5,-0.4 -5.1,0 -7.3,1.3c-0.3,0.3 -0.5,0.6 -0.6,1.1c-0.1,0.4 0,0.9 0.3,1.2c0.3,0.3 0.7,0.6 1.1,0.6c0.4,0.1 0.9,0 1.2,-0.3c1.5,-0.8 3.2,-1 4.9,-0.7c0.4,0.1 0.8,-0.1 1.2,-0.3c0.3,-0.3 0.5,-0.6 0.6,-1.1c0.1,-0.4 0,-0.9 -0.3,-1.2c-0.3,-0.3 -0.7,-0.6 -1.1,-0.6z" id="svg_119"/>
  </g>
  <g id="meyeone">
   <path d="m220.4,134.18889c0,1.1 -0.9,1.9 -1.9,1.9c-1.1,0 -1.9,-0.9 -1.9,-1.9s0.9,-1.9 1.9,-1.9c0.5,0 0.9,0.2 1.3,0.5c0.4,0.2 0.6,0.8 0.6,1.4z" id="svg_120"/>
  </g>
  <g id="meyetwo">
   <path d="m231.2,130.68889c0,1.1 -0.9,1.9 -1.9,1.9c-1.1,0 -1.9,-0.9 -1.9,-1.9c0,-0.7 0.3,-1.3 0.9,-1.6c0.3,-0.2 0.7,-0.3 1.1,-0.3c1,0 1.8,0.9 1.8,1.9z" id="svg_121"/>
  </g>
  <path d="m235.1,121.28889c-0.1,0 -0.1,0.1 -0.2,0.1c-1.1,-6.1 -3.3,-11.7 -6.3,-16.2c-1.5,-2.2 -3.2,-4.1 -5.1,-5.4c-2,-1.4 -4,-2.3 -6.1,-2.8c-2.3,-0.7 -4.6,-0.7 -6.9,-0.2c-1.9,0.5 -3.7,1.4 -5.5,2.5c-3.4,2.1 -6.7,5.1 -8.7,9.9c-2,5.1 -2.9,11.2 -2.5,17.5c-0.8,0.3 -1.5,1.1 -1.9,2.1c-0.4,1.1 -0.6,2.4 -0.4,3.7l1.7,13.4c0.2,1.3 0.6,2.5 1.2,3.4c0.6,0.9 1.4,1.5 2.2,1.7c0,0.1 0,0.2 0,0.3c1.2,4.1 3,7.9 5.2,10.8c2.2,3 4.9,5.1 7.7,6.3c0.5,0.2 0.9,0.3 1.4,0.4l0.1,1c0,0.3 0.2,0.6 0.3,0.8c0.2,0.2 0.4,0.3 0.6,0.3l3.1,-0.4c0.2,0 0.3,-0.2 0.5,-0.4c0.1,-0.2 0.1,-0.5 0.1,-0.8l-0.1,-1c0,-0.3 -0.2,-0.6 -0.3,-0.8c-0.2,-0.2 -0.4,-0.3 -0.6,-0.3l-3.1,0.4c-0.1,0 -0.2,0.1 -0.3,0.2c-2.9,-0.7 -5.8,-2.7 -8.2,-5.6s-4.4,-6.8 -5.6,-11.1l0,0c0.9,-0.1 1.7,-0.8 2.3,-2c0.5,-1.1 0.7,-2.5 0.5,-4l-1.7,-13.4c-0.2,-1.4 -0.7,-2.7 -1.4,-3.7c-0.8,-0.9 -1.7,-1.5 -2.6,-1.4c-0.3,-5.3 0.4,-10.5 1.8,-15c0.8,-2.3 1.8,-4.4 3.1,-6c1.4,-1.7 3,-3.2 4.6,-4.3c3.5,-2.4 7.4,-4.1 11.5,-3.5c2.1,0.3 4.2,1 6.3,2.1c1.8,1.1 3.5,2.6 5,4.5c3.6,4.5 6,10.7 7.3,17.3c-0.7,0.4 -1.3,1.2 -1.6,2.2c-0.3,1 -0.5,2.2 -0.3,3.5l1.7,13.4c0.1,0.7 0.3,1.5 0.5,2.1c0.3,0.7 0.6,1.3 1,1.7c0.4,0.5 0.8,0.9 1.3,1.1c0.5,0.2 0.9,0.3 1.4,0.2c0.5,-0.1 0.9,-0.3 1.3,-0.6c0.4,-0.3 0.7,-0.8 1,-1.4s0.4,-1.2 0.5,-1.9c0.1,-0.7 0.1,-1.4 0,-2.2l-1.7,-13.4c-0.2,-1.5 -0.7,-2.8 -1.5,-3.8c-0.7,-0.9 -1.7,-1.4 -2.6,-1.3z" id="svg_122"/>
  <g id="mmouthone">
   <path class="st33" d="m221,148.08889l11.4,-1.3c-1.3,6.3 -11.4,1.3 -11.4,1.3z" id="svg_123"/>
  </g>
 </g>
</svg>