<svg width="800" height="449.99999999999994" xmlns="http://www.w3.org/2000/svg">
 <g>
  <title>background</title>
  <rect fill="#fff" id="canvas_background" height="502" width="890.88889" y="-1" x="-1"/>
 </g>

 <style type="text/css">.st0 {
			fill: #232323;
		}

		.st1 {
			opacity: 0.4;
		}

		.st2 {
			fill: #FFFFFF;
		}

		.st3 {
			fill: #040A10;
		}

		.st4 {
			fill: #DEE0E2;
		}

		.st5 {
			opacity: 0.1;
		}

		.st6 {
			fill: #003975;
		}

		.st7 {
			fill: #E4E5EA;
		}

		.st8 {
			opacity: 0.15;
		}

		.st9 {
			fill: #1CA79B;
		}

		.st10 {
			opacity: 0.8;
		}

		.st11 {
			opacity: 0.4;
			fill: #FFFFFF;
			enable-background: new;
		}

		.st12 {
			opacity: 0.7;
			fill: #FFFFFF;
			enable-background: new;
		}

		.st13 {
			opacity: 0.7;
		}

		.st14 {
			fill: #0097F8;
		}

		.st15 {
			fill: #FF5A33;
		}

		.st16 {
			fill: #273864;
		}

		.st17 {
			fill: #95C6EB;
		}

		.st18 {
			opacity: 0.5;
		}

		.st19 {
			fill: #ED9766;
		}

		.st20 {
			opacity: 7.000000e-02;
			enable-background: new;
		}

		.st21 {
			fill: #0D2B49;
		}

		.st22 {
			opacity: 0.2;
			enable-background: new;
		}

		.st23 {
			opacity: 7.000000e-02;
		}

		.st24 {
			fill: #081B2A;
		}

		.st25 {
			opacity: 0.1;
			enable-background: new;
		}

		.st26 {
			fill: #2B2B2B;
		}

		.st27 {
			fill: #E7E7E7;
		}

		.st28 {
			opacity: 0.3;
			enable-background: new;
		}

		.st29 {
			fill: #466874;
		}

		.st30 {
			fill: #004F80;
		}

		.st31 {
			fill: #DB855A;
		}

		.st32 {
			fill: #020202;
		}

		.st33 {
			opacity: 0.5;
			fill: #FFFFFF;
			enable-background: new;
		}

		.st34 {
			fill: #A66E4F;
		}

		.st35 {
			fill: #5F7485;
		}

		.st36 {
			fill: #362221;
		}

		.st37 {
			opacity: 0.15;
			enable-background: new;
		}

		.st38 {
			fill: #D9EDFF;
		}

		.st39 {
			fill: #B7866E;
		}

		#mbruone {
			animation: ab11 10s infinite;
		}

		/* Mady By 
Name:  Freelancer Tajul Rasel
Web and Graphic Desiner. (Map design and coding)
Web: https://freelancertajulrasel.com/nataliafiona
WhatsApp : +8801821010080
Mail: freelancertajulrasel@gmail.com
fiverr: https://fiverr.com/natalia_fiona
 */
		@keyframes ab11 {


			60% {
				transform: translate(0px, 0px);
			}



			65% {
				transform: translate(0px, -3px);
			}

			70% {
				transform: translate(0px, 0px);
			}


		}

		#meyeone&gt;path {
			animation: ab12 10s infinite;
		}

		@keyframes ab12 {




			60% {
				d: path("M 220.4 135.3 c 0 1.1 -0.9 1.9 -1.9 1.9 c -1.1 0 -1.9 -0.9 -1.9 -1.9 s 0.9 -1.9 1.9 -1.9 c 0.5 0 0.9 0.2 1.3 0.5 C 220.2 134.1 220.4 134.7 220.4 135.3 Z");
			}

			65% {
				d: path("M 220.4 135.3 c 0 1.1 -0.9 1.9 -1.9 1.9 c -1.1 0 -1.9 -0.9 -1.9 -1.9 s 0.9 0.1 1.9 0.1 C 219.6 135.3 220.4 134.2 220.4 135.3 Z");
			}

			70% {
				d: path("M 220.4 135.3 c 0 1.1 -0.9 1.9 -1.9 1.9 c -1.1 0 -1.9 -0.9 -1.9 -1.9 s 0.9 -1.9 1.9 -1.9 c 0.5 0 0.9 0.2 1.3 0.5 C 220.2 134.1 220.4 134.7 220.4 135.3 Z");
			}


		}

		#meyetwo&gt;path {
			animation: ab13 10s infinite;
		}

		@keyframes ab13 {




			60% {
				d: path("M 231.2 131.8 c 0 1.1 -0.9 1.9 -1.9 1.9 c -1.1 0 -1.9 -0.9 -1.9 -1.9 c 0 -0.7 0.3 -1.3 0.9 -1.6 c 0.3 -0.2 0.7 -0.3 1.1 -0.3 C 230.4 129.9 231.2 130.8 231.2 131.8 Z");
			}

			65% {
				d: path("M 231.2 131.8 c 0 1.1 -0.9 1.9 -1.9 1.9 c -1.1 0 -1.9 -0.9 -1.9 -1.9 s 0.9 0.7 1.9 0.7 C 230.4 132.6 231.2 130.8 231.2 131.8 Z");
			}

			70% {
				d: path("M 231.2 131.8 c 0 1.1 -0.9 1.9 -1.9 1.9 c -1.1 0 -1.9 -0.9 -1.9 -1.9 c 0 -0.7 0.3 -1.3 0.9 -1.6 c 0.3 -0.2 0.7 -0.3 1.1 -0.3 C 230.4 129.9 231.2 130.8 231.2 131.8 Z");
			}


		}

		#mmouthone&gt;path {
			animation: ab14 10s infinite;
    transform-box: fill-box;
    transform-origin: center;
		}

		@keyframes ab14 {


			70% {
				/* d: path("M 221.1 149.1 l 11.5 -1.4 C 230.9 160.1 221.1 149.1 221.1 149.1 Z"); */
					transform: scale(0.5);
			}



			80% {
				/* d: path("M 221 149.2 l 11.4 -1.3 C 231.1 154.2 221 149.2 221 149.2 Z"); */
				transform: scale(1.5);
			}

			90% {
				/* d: path("M 221.1 149.1 l 11.5 -1.4 C 230.9 160.1 221.1 149.1 221.1 149.1 Z"); */
				transform: scale(0.6);
			}
		100% {
				 
				transform: scale(1);
			}

		}

		#menlhand {
			animation: ab15 10s infinite alternate;
			transform-box: fill-box;
			transform-origin: left;
		}

		@keyframes ab15 {
			0% {
				transform: rotate(5deg);
			}

			60% {
				transform: rotate(5deg);
			}

			65% {
				transform: rotate(0deg);
			}
		}

		#handrm {
			animation: ab16 10s infinite alternate;
			transform-box: fill-box;
			transform-origin: top;
		}

		@keyframes ab16 {


			60% {
				transform: rotate(0deg);
			}

			70% {
				transform: rotate(-10deg);
			}

			80% {
				transform: rotate(0deg);
			}
		}

		.dotone {
			animation: ab17 1s infinite linear;
		}

		.dottwo {
			animation: ab17 2s infinite linear;
		}

		.dotthree {
			animation: ab17 3s infinite linear;
		}

		@keyframes ab17 {
			0% {
				opacity: 0;
			}

			100% {
				opacity: 1;
			}
		}

		#dotround {
			animation: ab18 10s linear infinite;
			transform-box: fill-box;
			transform-origin: center;
		}

		@keyframes ab18 {
			0% {
				transform: rotate(0turn);
			}

			100% {
				transform: rotate(1turn);
			}
		}

		.settingone {
			animation: ab18 8s linear infinite;
			transform-box: fill-box;
			transform-origin: center;
		}

		.settingtwo {
			animation: ab18 8s linear infinite reverse;
			transform-box: fill-box;
			transform-origin: center;
		}

		#progress {
			animation: ab20 5s linear infinite;
		}

		@keyframes ab20 {
			0% {
				width: 5px;
			}

			100% {}
		}

		#dotplus {
			animation: ab25 3s infinite alternate;
			transform-box: fill-box;
			transform-origin: center;
		}

		@keyframes ab25 {

			0% {}

			50% {
				transform: rotate(90deg);
			}
		}

		#dotmin {
			animation: ab26 3s infinite alternate;
			fill: white;
		}

		@keyframes ab26 {
			0% {}

			50% {
				opacity: 0;
			}
		}

		#whandr {
			animation: ab45 10s infinite;
			transform-box: fill-box;
			transform-origin: top
		}

		@keyframes ab45 {
			80% {
				transform: rotate(-6deg);
			}

			90% {
				transform: rotate(0deg);
			}
		}

		#whandl {
			animation: ab27 10s infinite;
			transform-box: fill-box;
			transform-origin: right;
		}

		@keyframes ab27 {
			0% {
				transform: rotate(-10deg);
			}

			25% {
				transform: rotate(-10deg);
			}

			30% {
				transform: rotate(0deg);
			}

			55% {
				transform: rotate(0deg);
			}

			65% {
				transform: rotate(-10deg);
			}

			100% {
				transform: rotate(-10deg);
			}
		}

		#whandl&gt;g {
			animation: ab27a 10s infinite;
			transform-box: fill-box;
			transform-origin: bottom;
		}

		@keyframes ab27a {
			22% {
				transform: rotate(0deg);
			}

			25% {
				transform: rotate(10deg);
			}

			30% {
				transform: rotate(45deg);
			}

			40% {
				transform: rotate(-10deg);
			}

			65% {
				transform: rotate(-10deg);
			}

			100% {
				transform: rotate(-10deg);
			}
		}

		#wbru {
			animation: ab28 10s infinite;
		}

		@keyframes ab28 {




			25% {
				transform: translate(0px, 0px);
			}

			30% {
				transform: translate(0px, -3px);
			}

			40% {
				transform: translate(0px, 0px);
			}





		}

		#weyetwo&gt;path {
			animation: ab29 10s infinite;
		}

		@keyframes ab29 {
			0% {}



			25% {
				d: path("M 568.4 149.9 c 0 1.1 -0.9 2 -2 2 s -2 -0.9 -2 -2 s 0.9 -2 2 -2 c 0.4 0 0.8 0.1 1.1 0.3 C 568 148.6 568.4 149.2 568.4 149.9 Z");
			}

			30% {
				d: path("M 568.4 150.3 c -0.2 1.1 -1.3 1.8 -2.4 1.6 s -1.8 -1.3 -1.6 -2.4 s 0.7 1.1 1.8 1.4 C 567.3 151.1 568.6 149.2 568.4 150.3 Z");
			}

			40% {
				d: path("M 568.4 149.9 c 0 1.1 -0.9 2 -2 2 s -2 -0.9 -2 -2 s 0.9 -2 2 -2 c 0.4 0 0.8 0.1 1.1 0.3 C 568 148.6 568.4 149.2 568.4 149.9 Z");
			}





		}

		#weyeone&gt;path {
			animation: ab30 10s infinite;
		}

		@keyframes ab30 {
			0% {}



			25% {
				d: path("M 581.7 153.3 c 0 1.1 -0.9 2 -2 2 s -2 -0.9 -2 -2 s 0.9 -2 2 -2 c 0.6 0 1.1 0.2 1.4 0.6 C 581.5 152.3 581.7 152.8 581.7 153.3 Z");
			}

			30% {
				d: path("M 581.7 153.8 c -0.4 1.5 -2.3 2.2 -3.6 0.8 c -0.3 -0.3 -0.4 -0.8 -0.4 -1.2 c 0.3 -2.4 1.2 0.8 3.1 -0.1 C 581.5 152.9 581.9 153.1 581.7 153.8 Z");
			}

			40% {
				d: path("M 581.7 153.3 c 0 1.1 -0.9 2 -2 2 s -2 -0.9 -2 -2 s 0.9 -2 2 -2 c 0.6 0 1.1 0.2 1.4 0.6 C 581.5 152.3 581.7 152.8 581.7 153.3 Z");
			}






		}

		#wmouth&gt;path {
			animation: ab33 10s infinite;
    transform-box: fill-box;
    transform-origin: center;
		}

		@keyframes ab33 {


			25% {
				/* d: path("M 564.3 166.2 l 8.5 2.1 C 565 173.1 564.3 166.2 564.3 166.2 Z"); */
				transform: scale(0.5);
			}

			30% {
				/* d: path("M 562.7 165.5 l 12.5 3 C 564.2 177.8 562.7 165.5 562.7 165.5 Z"); */
				    transform: scale(1.5);
			}

			40% {
				/* d: path("M 562.7 165.5 l 12.5 3 C 564.2 177.8 562.7 165.5 562.7 165.5 Z"); */
				transform: scale(0.6);
			}
			50% {
				 
				transform: scale(1);
			}
			60% {
				 
				transform: scale(0.5);
			}

		}

		#mobileone {
			animation: ab34 10s infinite;
		}

		@keyframes ab34 {
			0% {
				transform: translate(-279px, 0px);
			}

			20% {
				transform: translate(0px, 0px);
			}
		}

		#mobiletwo {
			animation: ab35 10s infinite;
		}

		@keyframes ab35 {
			0% {
				transform: translate(279px, 0px);
			}

			20% {
				transform: translate(0px, 0px);
			}
		}

		#menopa,
		#wenopa {
			animation: ab36 10s infinite;
		}

		@keyframes ab36 {
			0% {
				opacity: 0;
			}

			15% {
				opacity: 0;
			}

			20% {
				opacity: 1;
			}
		}

		#cartopa {
			animation: ab37 10s infinite;
		}

		@keyframes ab37 {
			0% {
				opacity: 0;
			}

			60% {
				opacity: 0;
			}

			65% {
				opacity: 1;
			}
		}

		#dotnetopa {
			animation: ab38 10s infinite;
		}

		@keyframes ab38 {
			0% {
				opacity: 0;
			}

			40% {
				opacity: 0;
			}

			45% {
				opacity: 1;
			}
		}

		#dottwoopa {
			animation: ab39 10s infinite;
		}

		@keyframes ab39 {
			0% {
				opacity: 0;
			}

			60% {
				opacity: 0;
			}

			70% {
				opacity: 1;
			}
		}

		#dotthreeopa {
			animation: ab40 10s infinite;
		}

		@keyframes ab40 {
			0% {
				opacity: 0;
			}

			50% {
				opacity: 0;
			}

			55% {
				opacity: 1;
			}
		}

		#dotseteopa {
			animation: ab41 10s infinite;
		}

		@keyframes ab41 {
			0% {
				opacity: 0;
			}

			55% {
				opacity: 0;
			}

			60% {
				opacity: 1;
			}
		}</style>
 <g>
  <title>Layer 1</title>
  <rect y="0" class="st0" width="800" height="450" id="svg_1"/>
  <g id="dottwoopa">
   <g id="dottwo" class="st1">
    <path class="st2 dotone" d="m487.3,262.9c0.8,0 1.4,-0.6 1.4,-1.4c0,-0.7 -0.6,-1.4 -1.4,-1.4l0,0c-0.8,0 -1.4,0.6 -1.4,1.4s0.6,1.4 1.4,1.4z" id="svg_2"/>
    <path class="st2 dottwo" d="m416.5,261.6c0,-0.7 0.6,-1.4 1.4,-1.4l0,0c0.8,0 1.4,0.6 1.4,1.4c0,0.7 -0.6,1.4 -1.4,1.4l0,0c-0.8,-0.1 -1.4,-0.7 -1.4,-1.4zm5.8,0c0,-0.7 0.6,-1.4 1.4,-1.4l0,0c0.8,0 1.4,0.6 1.4,1.4c0,0.7 -0.6,1.4 -1.4,1.4l0,0c-0.8,-0.1 -1.4,-0.7 -1.4,-1.4zm5.8,0c0,-0.7 0.6,-1.4 1.4,-1.4l0,0c0.8,0 1.4,0.6 1.4,1.4c0,0.7 -0.6,1.4 -1.4,1.4l0,0c-0.8,-0.1 -1.4,-0.7 -1.4,-1.4zm5.7,0c0,-0.7 0.6,-1.4 1.4,-1.4l0,0c0.8,0 1.4,0.6 1.4,1.4c0,0.7 -0.6,1.4 -1.4,1.4l0,0c-0.7,-0.1 -1.4,-0.7 -1.4,-1.4zm5.8,0c0,-0.7 0.6,-1.4 1.4,-1.4l0,0c0.8,0 1.4,0.6 1.4,1.4c0,0.7 -0.6,1.4 -1.4,1.4l0,0c-0.8,-0.1 -1.4,-0.7 -1.4,-1.4zm5.8,0c0,-0.7 0.6,-1.4 1.4,-1.4l0,0c0.8,0 1.4,0.6 1.4,1.4c0,0.7 -0.6,1.4 -1.4,1.4l0,0c-0.8,-0.1 -1.4,-0.7 -1.4,-1.4zm5.8,0c0,-0.7 0.6,-1.4 1.4,-1.4l0,0c0.8,0 1.4,0.6 1.4,1.4c0,0.7 -0.6,1.4 -1.4,1.4l0,0c-0.8,-0.1 -1.4,-0.7 -1.4,-1.4zm5.8,0c0,-0.7 0.6,-1.4 1.4,-1.4l0,0c0.8,0 1.4,0.6 1.4,1.4c0,0.7 -0.6,1.4 -1.4,1.4l0,0c-0.8,-0.1 -1.4,-0.7 -1.4,-1.4zm5.8,0c0,-0.7 0.6,-1.4 1.4,-1.4l0,0c0.8,0 1.4,0.6 1.4,1.4c0,0.7 -0.6,1.4 -1.4,1.4l0,0c-0.8,-0.1 -1.4,-0.7 -1.4,-1.4zm5.7,0c0,-0.7 0.6,-1.4 1.4,-1.4l0,0c0.8,0 1.4,0.6 1.4,1.4c0,0.7 -0.6,1.4 -1.4,1.4l0,0c-0.7,-0.1 -1.4,-0.7 -1.4,-1.4zm5.8,0c0,-0.7 0.6,-1.4 1.4,-1.4l0,0c0.8,0 1.4,0.6 1.4,1.4c0,0.7 -0.6,1.4 -1.4,1.4l0,0c-0.8,-0.1 -1.4,-0.7 -1.4,-1.4zm5.8,0c0,-0.7 0.6,-1.4 1.4,-1.4l0,0c0.8,0 1.4,0.6 1.4,1.4c0,0.7 -0.6,1.4 -1.4,1.4l0,0c-0.8,-0.1 -1.4,-0.7 -1.4,-1.4z" id="svg_3"/>
    <path class="st2 dotone" d="m412.1,262.9c0.8,0 1.4,-0.6 1.4,-1.4c0,-0.6 -0.3,-1 -0.8,-1.2c-0.2,-0.1 -0.4,-0.1 -0.6,-0.1c-0.8,0 -1.4,0.6 -1.4,1.3s0.6,1.4 1.4,1.4z" id="svg_4"/>
    <path class="st2  dottwo" d="m410.7,256.4c0,-0.7 0.6,-1.4 1.4,-1.4s1.4,0.6 1.4,1.4l0,0c0,0.7 -0.6,1.3 -1.4,1.3c-0.8,0.1 -1.4,-0.5 -1.4,-1.3zm0,-5.1c0,-0.7 0.6,-1.3 1.4,-1.3s1.4,0.6 1.4,1.3l0,0c0,0.7 -0.6,1.3 -1.4,1.3c-0.8,0.1 -1.4,-0.5 -1.4,-1.3zm0,-5.1c0,-0.7 0.6,-1.3 1.4,-1.3s1.4,0.6 1.4,1.3l0,0c0,0.7 -0.6,1.3 -1.4,1.3c-0.8,0 -1.4,-0.6 -1.4,-1.3z" id="svg_5"/>
    <path class="st2  dotone" d="m412.1,242.4c0.8,0 1.4,-0.6 1.4,-1.3l0,0c0,-0.7 -0.6,-1.4 -1.4,-1.4s-1.4,0.6 -1.4,1.4c0,0.7 0.6,1.3 1.4,1.3z" id="svg_6"/>
   </g>
   <g id="dotone" class="st1">
    <path class="st2  dotone" d="m306.9,133.2c0.8,0 1.4,-0.6 1.4,-1.3l0,0c0,-0.7 -0.6,-1.4 -1.4,-1.4s-1.4,0.6 -1.4,1.4c0.1,0.6 0.7,1.3 1.4,1.3z" id="svg_7"/>
    <path class="st2  dottwo" d="m305.6,125.7l0,0c0,-0.8 0.6,-1.4 1.4,-1.4s1.4,0.6 1.4,1.3l0,0c0,0.7 -0.6,1.3 -1.4,1.3c-0.8,0.2 -1.4,-0.5 -1.4,-1.2zm0,-6.1l0,0c0,-0.8 0.6,-1.4 1.4,-1.4s1.4,0.6 1.4,1.3l0,0c0,0.7 -0.6,1.3 -1.4,1.3c-0.8,0.1 -1.4,-0.5 -1.4,-1.2zm0,-6.1l0,0c0,-0.8 0.6,-1.4 1.4,-1.4s1.4,0.6 1.4,1.3l0,0c0,0.7 -0.6,1.3 -1.4,1.3c-0.8,0.1 -1.4,-0.5 -1.4,-1.2zm0,-6.2l0,0c0,-0.8 0.6,-1.4 1.4,-1.4s1.4,0.6 1.4,1.3l0,0c0,0.7 -0.6,1.3 -1.4,1.3c-0.8,0.2 -1.4,-0.4 -1.4,-1.2z" id="svg_8"/>
    <path class="st2  dotone" d="m306.9,102.6c0.8,0 1.4,-0.6 1.4,-1.3l0,0c0,-0.7 -0.6,-1.3 -1.4,-1.3s-1.4,0.6 -1.4,1.3c0,0.6 0.3,1 0.8,1.2c0.2,0 0.4,0.1 0.6,0.1z" id="svg_9"/>
    <path class="st2  dottwo" d="m197,101.2c0,-0.7 0.6,-1.3 1.4,-1.3l0,0c0.8,0 1.4,0.6 1.4,1.3s-0.6,1.3 -1.4,1.3l0,0c-0.8,0.1 -1.4,-0.5 -1.4,-1.3zm6.1,0c0,-0.7 0.6,-1.3 1.4,-1.3l0,0c0.8,0 1.4,0.6 1.4,1.3s-0.6,1.3 -1.4,1.3l0,0c-0.8,0.1 -1.4,-0.5 -1.4,-1.3zm6,0c0,-0.7 0.6,-1.3 1.4,-1.3l0,0c0.8,0 1.4,0.6 1.4,1.3s-0.6,1.3 -1.4,1.3l0,0c-0.8,0.1 -1.4,-0.5 -1.4,-1.3zm6,0c0,-0.7 0.6,-1.3 1.4,-1.3l0,0c0.8,0 1.4,0.6 1.4,1.3s-0.6,1.3 -1.4,1.3l0,0c-0.8,0.1 -1.4,-0.5 -1.4,-1.3zm6,0c0,-0.7 0.6,-1.3 1.4,-1.3l0,0c0.8,0 1.4,0.6 1.4,1.3s-0.6,1.3 -1.4,1.3l0,0c-0.7,0.1 -1.4,-0.5 -1.4,-1.3zm6.1,0c0,-0.7 0.6,-1.3 1.4,-1.3l0,0c0.8,0 1.4,0.6 1.4,1.3s-0.6,1.3 -1.4,1.3l0,0c-0.8,0.1 -1.4,-0.5 -1.4,-1.3zm6,0c0,-0.7 0.6,-1.3 1.4,-1.3l0,0c0.8,0 1.4,0.6 1.4,1.3s-0.6,1.3 -1.4,1.3l0,0c-0.8,0.1 -1.4,-0.5 -1.4,-1.3zm6,0c0,-0.7 0.6,-1.3 1.4,-1.3l0,0c0.8,0 1.4,0.6 1.4,1.3s-0.6,1.3 -1.4,1.3l0,0c-0.8,0.1 -1.4,-0.5 -1.4,-1.3zm6.1,0c0,-0.7 0.6,-1.3 1.4,-1.3l0,0c0.8,0 1.4,0.6 1.4,1.3s-0.6,1.3 -1.4,1.3l0,0c-0.8,0.1 -1.4,-0.5 -1.4,-1.3zm6,0c0,-0.7 0.6,-1.3 1.4,-1.3l0,0c0.8,0 1.4,0.6 1.4,1.3s-0.6,1.3 -1.4,1.3l0,0c-0.8,0.1 -1.4,-0.5 -1.4,-1.3zm6,0c0,-0.7 0.6,-1.3 1.4,-1.3l0,0c0.8,0 1.4,0.6 1.4,1.3s-0.6,1.3 -1.4,1.3l0,0c-0.8,0.1 -1.4,-0.5 -1.4,-1.3zm6,0c0,-0.7 0.6,-1.3 1.4,-1.3l0,0c0.8,0 1.4,0.6 1.4,1.3s-0.6,1.3 -1.4,1.3l0,0c-0.7,0.1 -1.4,-0.5 -1.4,-1.3zm6.1,0c0,-0.7 0.6,-1.3 1.4,-1.3l0,0c0.8,0 1.4,0.6 1.4,1.3s-0.6,1.3 -1.4,1.3l0,0c-0.8,0.1 -1.4,-0.5 -1.4,-1.3zm6,0c0,-0.7 0.6,-1.3 1.4,-1.3l0,0c0.8,0 1.4,0.6 1.4,1.3s-0.6,1.3 -1.4,1.3l0,0c-0.8,0.1 -1.4,-0.5 -1.4,-1.3zm6,0c0,-0.7 0.6,-1.3 1.4,-1.3l0,0c0.8,0 1.4,0.6 1.4,1.3s-0.6,1.3 -1.4,1.3l0,0c-0.8,0.1 -1.4,-0.5 -1.4,-1.3zm6.1,0c0,-0.7 0.6,-1.3 1.4,-1.3l0,0c0.8,0 1.4,0.6 1.4,1.3s-0.6,1.3 -1.4,1.3l0,0c-0.8,0.1 -1.4,-0.5 -1.4,-1.3zm6,0c0,-0.7 0.6,-1.3 1.4,-1.3l0,0c0.8,0 1.4,0.6 1.4,1.3s-0.6,1.3 -1.4,1.3l0,0c-0.8,0.1 -1.4,-0.5 -1.4,-1.3zm6,0c0,-0.7 0.6,-1.3 1.4,-1.3l0,0c0.8,0 1.4,0.6 1.4,1.3s-0.6,1.3 -1.4,1.3l0,0c-0.8,0.1 -1.4,-0.5 -1.4,-1.3z" id="svg_10"/>
    <path class="st2  dotone" d="m192.4,102.6c0.8,0 1.4,-0.6 1.4,-1.3s-0.6,-1.3 -1.4,-1.3l0,0c-0.8,0 -1.4,0.6 -1.4,1.3s0.6,1.3 1.4,1.3z" id="svg_11"/>
   </g>
   <g id="dotround" class="st1">
    <path class="st2" d="m409.4,204.2l0,0c-0.8,0 -1.4,-0.6 -1.4,-1.4s0.7,-1.3 1.4,-1.3l0,0c0.8,0 1.4,0.6 1.3,1.4c0.1,0.7 -0.6,1.3 -1.3,1.3l0,0zm4.6,-1.4c0,-0.7 0.5,-1.4 1.3,-1.4c0.8,-0.1 1.4,0.5 1.5,1.3c0.1,0.7 -0.5,1.4 -1.3,1.4l0,0l-0.1,0c-0.7,0 -1.3,-0.6 -1.4,-1.3zm-10.7,1l0.1,-1.3l-0.1,1.3c-0.8,-0.1 -1.3,-0.8 -1.2,-1.5c0.1,-0.7 0.8,-1.3 1.5,-1.2l0,0c0.7,0.1 1.3,0.8 1.2,1.5c-0.1,0.7 -0.7,1.2 -1.4,1.2l-0.1,0zm16.7,-1.5c-0.1,-0.7 0.4,-1.4 1.1,-1.5l0,0c0.7,-0.1 1.4,0.4 1.5,1.1c0.1,0.7 -0.4,1.4 -1.2,1.5l-0.2,-1.3l0.2,1.3c-0.1,0 -0.1,0 -0.2,0c-0.5,0.1 -1.1,-0.4 -1.2,-1.1zm-22.7,0.5l0,0c-0.8,-0.2 -1.3,-0.9 -1.1,-1.6c0.2,-0.7 0.9,-1.2 1.6,-1c0.7,0.1 1.2,0.9 1.1,1.6c-0.1,0.6 -0.7,1.1 -1.3,1.1c-0.2,-0.1 -0.3,-0.1 -0.3,-0.1zm28.6,-1.5c-0.2,-0.7 0.3,-1.5 1,-1.6c0.7,-0.2 1.5,0.2 1.7,1c0.2,0.7 -0.3,1.5 -1,1.6l0,0c-0.1,0 -0.2,0 -0.3,0c-0.7,0 -1.3,-0.4 -1.4,-1zm-34.6,0l0,0c-0.7,-0.2 -1.2,-1 -0.9,-1.7c0.2,-0.7 1,-1.1 1.7,-0.9l0,0c0.7,0.2 1.1,1 0.9,1.7c-0.2,0.6 -0.7,1 -1.3,1c-0.1,-0.1 -0.3,-0.1 -0.4,-0.1zm40.4,-1.6c-0.3,-0.7 0.1,-1.5 0.8,-1.7l0,0c0.7,-0.2 1.5,0.1 1.7,0.8s-0.1,1.5 -0.9,1.7l0,0c-0.2,0.1 -0.3,0.1 -0.5,0.1c-0.4,0 -0.9,-0.3 -1.1,-0.9zm-46.2,-0.5l0.5,-1.3l-0.5,1.3c-0.7,-0.3 -1,-1.1 -0.8,-1.8c0.3,-0.7 1.1,-1 1.8,-0.7l0,0c0.7,0.3 1,1.1 0.7,1.8c-0.2,0.5 -0.7,0.8 -1.3,0.8c0,0 -0.2,0 -0.4,-0.1zm51.8,-1.5c-0.3,-0.7 0,-1.5 0.7,-1.8l0,0c0.7,-0.3 1.5,0 1.8,0.7s0,1.5 -0.7,1.8l-0.6,-1.2l0.6,1.2c-0.2,0.1 -0.4,0.1 -0.6,0.1c-0.5,-0.1 -1,-0.4 -1.2,-0.8zm-57.3,-1l0,0c-0.7,-0.4 -1,-1.2 -0.6,-1.8c0.4,-0.7 1.2,-0.9 1.9,-0.6c0.7,0.3 0.9,1.2 0.6,1.8c-0.2,0.5 -0.7,0.7 -1.2,0.7c-0.3,0 -0.5,0 -0.7,-0.1zm62.7,-1.6c-0.4,-0.6 -0.1,-1.5 0.5,-1.8c0.7,-0.4 1.5,-0.2 1.9,0.5c0.4,0.6 0.2,1.5 -0.5,1.8l0,0c-0.2,0.1 -0.4,0.2 -0.7,0.2c-0.5,0 -1,-0.3 -1.2,-0.7zm-68,-1.4l0,0c-0.7,-0.4 -0.8,-1.3 -0.4,-1.9c0.4,-0.6 1.3,-0.8 1.9,-0.4c0.6,0.4 0.8,1.2 0.4,1.9c-0.3,0.4 -0.7,0.6 -1.2,0.6c-0.2,0 -0.4,-0.1 -0.7,-0.2zm73.1,-1.7c-0.4,-0.6 -0.3,-1.5 0.3,-1.9l0,0c0.6,-0.4 1.5,-0.3 1.9,0.3s0.3,1.5 -0.4,1.9l0,0c-0.2,0.2 -0.5,0.2 -0.8,0.2c-0.3,0.1 -0.7,-0.1 -1,-0.5zm-78.1,-1.8l0,0c-0.6,-0.5 -0.7,-1.3 -0.2,-1.9c0.5,-0.6 1.3,-0.7 1.9,-0.2l0,0c0.6,0.5 0.7,1.3 0.2,1.9c-0.3,0.3 -0.7,0.5 -1.1,0.5c-0.2,0 -0.5,-0.1 -0.8,-0.3zm82.9,-1.7c-0.5,-0.6 -0.4,-1.4 0.2,-1.9s1.4,-0.4 1.9,0.2c0.5,0.6 0.4,1.4 -0.2,1.9l0,0c-0.3,0.2 -0.6,0.3 -0.9,0.3c-0.3,0 -0.7,-0.1 -1,-0.5zm-87.5,-2.2l0,0c-0.6,-0.5 -0.6,-1.4 -0.1,-1.9s1.4,-0.6 1.9,-0.1c0.6,0.5 0.6,1.4 0.1,1.9c-0.3,0.3 -0.6,0.4 -1,0.4c-0.3,0 -0.6,-0.1 -0.9,-0.3zm92,-1.7c-0.5,-0.5 -0.5,-1.4 0,-1.9l0,0c0.5,-0.5 1.4,-0.5 1.9,0s0.5,1.4 0,1.9l-1,-0.9l1,0.9c-0.3,0.3 -0.6,0.4 -1,0.4c-0.2,0 -0.6,-0.1 -0.9,-0.4zm-96.3,-2.7l1,-0.9l-1,0.9c-0.5,-0.6 -0.5,-1.4 0.1,-1.9s1.4,-0.5 1.9,0.1l0,0c0.5,0.6 0.4,1.4 -0.1,1.9c-0.3,0.2 -0.6,0.3 -0.9,0.3c-0.3,0.1 -0.7,-0.1 -1,-0.4zm100.5,-1.5c-0.6,-0.5 -0.7,-1.3 -0.2,-1.9l0,0c0.5,-0.6 1.3,-0.6 1.9,-0.2c0.6,0.5 0.7,1.3 0.2,1.9l-1.1,-0.8l1.1,0.9c-0.3,0.3 -0.7,0.5 -1.1,0.5c-0.3,-0.1 -0.6,-0.2 -0.8,-0.4zm-104.3,-3.1l0,0c-0.5,-0.6 -0.3,-1.5 0.3,-1.9c0.6,-0.4 1.5,-0.3 1.9,0.3c0.5,0.6 0.3,1.4 -0.3,1.9c-0.2,0.2 -0.5,0.3 -0.8,0.3c-0.4,-0.1 -0.8,-0.3 -1.1,-0.6zm108,-1.6c-0.6,-0.4 -0.8,-1.3 -0.4,-1.9l0,0c0.4,-0.6 1.3,-0.7 1.9,-0.3s0.8,1.3 0.3,1.9l-1.1,-0.8l1.1,0.8c-0.3,0.4 -0.7,0.6 -1.1,0.6c-0.2,0 -0.5,-0.1 -0.7,-0.3zm-111.4,-3.4l1.2,-0.7l-1.2,0.7c-0.4,-0.6 -0.2,-1.5 0.4,-1.9s1.5,-0.2 1.9,0.4l0,0c0.4,0.6 0.2,1.5 -0.5,1.9c-0.2,0.1 -0.5,0.2 -0.7,0.2c-0.4,0 -0.9,-0.2 -1.1,-0.6zm114.6,-1.5c-0.7,-0.4 -0.9,-1.2 -0.5,-1.8c0.4,-0.7 1.2,-0.9 1.9,-0.5c0.7,0.4 0.9,1.2 0.5,1.8l0,0c-0.3,0.4 -0.7,0.7 -1.2,0.7c-0.2,-0.1 -0.5,-0.1 -0.7,-0.2zm-117.6,-3.8l1.2,-0.6l-1.2,0.6c-0.3,-0.7 -0.1,-1.5 0.6,-1.8s1.5,-0.1 1.8,0.6l0,0.1c0.3,0.7 0,1.5 -0.7,1.8c-0.2,0.1 -0.4,0.1 -0.6,0.1c-0.3,-0.1 -0.8,-0.3 -1.1,-0.8zm120.4,-1.4c-0.7,-0.3 -1,-1.1 -0.7,-1.8l0,0c0.3,-0.7 1.1,-1 1.8,-0.7c0.7,0.3 1,1.1 0.7,1.8l0,0c-0.2,0.5 -0.7,0.8 -1.3,0.8c-0.1,0 -0.3,-0.1 -0.5,-0.1zm-122.8,-4.2l1.3,-0.5l-1.3,0.5c-0.3,-0.7 0.1,-1.5 0.8,-1.8c0.7,-0.3 1.5,0.1 1.8,0.8l0,0.1c0.3,0.7 -0.1,1.5 -0.8,1.7c-0.2,0.1 -0.3,0.1 -0.5,0.1c-0.6,0 -1.1,-0.3 -1.3,-0.9zm125.1,-1.3c-0.7,-0.2 -1.1,-1 -0.8,-1.7c0.2,-0.7 1,-1.1 1.7,-0.8c0.7,0.2 1.1,1 0.9,1.7l0,0c-0.2,0.6 -0.7,0.9 -1.3,0.9c-0.2,0 -0.3,0 -0.5,-0.1zm-127,-4.4l1.3,-0.4l-1.3,0.4c-0.2,-0.7 0.2,-1.5 0.9,-1.7c0.7,-0.2 1.5,0.2 1.7,0.9l0,0.1c0.2,0.7 -0.2,1.5 -1,1.7c-0.1,0 -0.2,0 -0.4,0c-0.5,0 -1,-0.4 -1.2,-1zm128.8,-1.2c-0.7,-0.2 -1.2,-0.9 -1,-1.6c0.2,-0.7 0.9,-1.2 1.6,-1s1.2,0.9 1,1.6l0,0c-0.2,0.6 -0.7,1 -1.3,1c-0.1,0 -0.2,0 -0.3,0zm-130.2,-4.6l0,0c-0.1,-0.8 0.4,-1.5 1.1,-1.6s1.5,0.4 1.6,1.1c0.1,0.7 -0.3,1.4 -1.1,1.6c-0.1,0 -0.2,0 -0.3,0c-0.6,0 -1.1,-0.5 -1.3,-1.1zm131.5,-1.2c-0.8,-0.1 -1.3,-0.8 -1.2,-1.5l0,0c0.1,-0.7 0.8,-1.2 1.6,-1.1c0.7,0.1 1.3,0.8 1.2,1.5l-1.4,-0.2l1.4,0.2c-0.1,0.7 -0.7,1.2 -1.4,1.2c-0.1,-0.1 -0.1,-0.1 -0.2,-0.1zm-132.3,-4.8l0,0c-0.1,-0.8 0.5,-1.5 1.2,-1.5c0.8,-0.1 1.4,0.5 1.5,1.2s-0.5,1.4 -1.2,1.5c-0.1,0 -0.1,0 -0.2,0c-0.6,0 -1.2,-0.5 -1.3,-1.2zm133,-1.1c-0.8,0 -1.3,-0.7 -1.3,-1.4s0.7,-1.3 1.4,-1.3c0.8,0 1.3,0.7 1.3,1.4l0,0c0,0.8 -0.6,1.3 -1.4,1.3c0.1,0 0,0 0,0zm-133.3,-4.9l0,0c0,-0.3 0.1,-0.5 0.2,-0.7c-0.1,-0.2 -0.2,-0.4 -0.2,-0.7l0,-0.1c0,-0.7 0.7,-1.3 1.4,-1.3c0.8,0 1.4,0.6 1.3,1.4c0,0.3 -0.1,0.5 -0.2,0.7c0.1,0.2 0.2,0.4 0.2,0.7l0,0c0,0.7 -0.6,1.4 -1.4,1.4c-0.7,-0.1 -1.3,-0.7 -1.3,-1.4zm132.1,-2.3c0,-0.7 0.6,-1.4 1.3,-1.4c0.8,0 1.4,0.5 1.4,1.3l0,0c0,0.7 -0.6,1.4 -1.3,1.4l0,0c-0.8,0.1 -1.4,-0.5 -1.4,-1.3zm-130.5,-3.7c-0.8,-0.1 -1.3,-0.8 -1.2,-1.5l0,0c0.1,-0.7 0.8,-1.3 1.5,-1.2c0.8,0.1 1.3,0.8 1.2,1.5l0,0c-0.1,0.7 -0.7,1.2 -1.4,1.2c0.1,0 0,0 -0.1,0zm130,-2l0,0c-0.1,-0.8 0.4,-1.4 1.2,-1.5c0.8,-0.1 1.4,0.4 1.5,1.2l-1.4,0.2l1.4,-0.2c0.1,0.7 -0.4,1.4 -1.2,1.5c-0.1,0 -0.1,0 -0.2,0c-0.6,0 -1.2,-0.5 -1.3,-1.2zm-129.1,-3.8c-0.7,-0.1 -1.2,-0.9 -1.1,-1.6l0,0c0.1,-0.7 0.9,-1.2 1.6,-1.1s1.2,0.9 1.1,1.6l0,0c-0.1,0.6 -0.7,1.1 -1.3,1.1c-0.2,0 -0.2,0 -0.3,0zm128.1,-1.9c-0.2,-0.7 0.3,-1.5 1,-1.6c0.7,-0.2 1.5,0.3 1.6,1l0,0c0.2,0.7 -0.3,1.4 -1.1,1.6c-0.1,0 -0.2,0 -0.3,0c-0.5,0.1 -1,-0.4 -1.2,-1zm-126.8,-3.9c-0.7,-0.2 -1.1,-1 -0.9,-1.7l1.3,0.4l-1.3,-0.4c0.2,-0.7 1,-1.1 1.7,-0.9s1.1,1 0.9,1.7l0,0.1c-0.2,0.6 -0.7,0.9 -1.3,0.9c-0.1,0 -0.3,0 -0.4,-0.1zm125.3,-1.7l0,0c-0.2,-0.8 0.2,-1.5 0.9,-1.7c0.7,-0.2 1.5,0.2 1.7,0.9l-1.3,0.4l1.3,-0.4c0.2,0.7 -0.2,1.5 -0.9,1.7c-0.1,0 -0.3,0.1 -0.4,0.1c-0.6,0 -1.1,-0.4 -1.3,-1zm-123.4,-3.9c-0.7,-0.3 -1,-1.1 -0.7,-1.8l1.3,0.5l-1.3,-0.5c0.3,-0.7 1.1,-1 1.8,-0.8c0.7,0.3 1.1,1.1 0.8,1.8l0,0.1c-0.2,0.5 -0.7,0.8 -1.3,0.8c-0.3,0 -0.5,0 -0.6,-0.1zm121.4,-1.5l0,0c-0.3,-0.7 0,-1.5 0.7,-1.8s1.5,0 1.8,0.7l-1.3,0.5l1.3,-0.5c0.3,0.7 0,1.5 -0.7,1.8c-0.2,0.1 -0.4,0.1 -0.5,0.1c-0.6,0 -1.1,-0.3 -1.3,-0.8zm-119,-3.9c-0.7,-0.3 -0.9,-1.2 -0.6,-1.8l1.2,0.6l-1.2,-0.6c0.3,-0.7 1.2,-0.9 1.8,-0.6c0.7,0.3 0.9,1.2 0.6,1.8l0,0c-0.2,0.5 -0.7,0.7 -1.2,0.7c-0.2,0.1 -0.4,0 -0.6,-0.1zm116.5,-1.3l0,0c-0.4,-0.7 -0.1,-1.5 0.6,-1.9c0.7,-0.3 1.5,-0.1 1.9,0.6l-1.2,0.6l1.2,-0.6c0.4,0.7 0.1,1.5 -0.6,1.8c-0.2,0.1 -0.4,0.2 -0.7,0.2c-0.5,0 -1,-0.3 -1.2,-0.7zm-113.7,-3.9c-0.6,-0.4 -0.8,-1.2 -0.4,-1.9l0,0c0.4,-0.6 1.3,-0.8 1.9,-0.4s0.8,1.2 0.4,1.9l0,0c-0.3,0.4 -0.7,0.6 -1.2,0.6c-0.2,0 -0.4,0 -0.7,-0.2zm110.7,-1.1c-0.4,-0.6 -0.2,-1.5 0.4,-1.9s1.5,-0.2 1.9,0.4l0,0c0.4,0.6 0.2,1.5 -0.4,1.9c-0.2,0.1 -0.5,0.2 -0.7,0.2c-0.5,0 -1,-0.2 -1.2,-0.6zm-107.3,-3.7c-0.6,-0.4 -0.7,-1.3 -0.3,-1.9l0,-0.1c0.5,-0.6 1.3,-0.7 1.9,-0.2s0.7,1.3 0.2,1.9c-0.3,0.4 -0.7,0.5 -1.1,0.5c-0.2,0 -0.5,-0.1 -0.7,-0.2zm103.8,-1c-0.5,-0.6 -0.4,-1.4 0.2,-1.9s1.5,-0.4 1.9,0.2l0,0c0.5,0.6 0.4,1.4 -0.2,1.9c-0.3,0.2 -0.5,0.3 -0.8,0.3c-0.4,0 -0.8,-0.1 -1.1,-0.5zm-100,-3.7c-0.6,-0.5 -0.6,-1.4 -0.1,-1.9l1,0.9l-1,-0.9c0.5,-0.5 1.4,-0.6 1.9,-0.1c0.6,0.5 0.6,1.4 0.1,1.9l0,0c-0.3,0.3 -0.6,0.4 -1,0.4c-0.3,0.1 -0.7,0 -0.9,-0.3zm96.2,-0.6c-0.5,-0.5 -0.5,-1.4 0,-1.9s1.4,-0.5 1.9,0l0,0c0.5,0.5 0.5,1.4 -0.1,1.9c-0.3,0.2 -0.6,0.4 -0.9,0.4s-0.6,-0.2 -0.9,-0.4zm-92.1,-3.6c-0.5,-0.6 -0.5,-1.4 0.1,-1.9l0,0c0.6,-0.5 1.4,-0.4 1.9,0.1c0.5,0.6 0.4,1.4 -0.1,1.9c-0.3,0.2 -0.6,0.3 -0.9,0.3c-0.3,0.1 -0.7,-0.1 -1,-0.4zm87.9,-0.4l0,0c-0.6,-0.5 -0.6,-1.4 -0.1,-1.9c0.5,-0.6 1.4,-0.6 1.9,-0.1l-0.9,1l0.9,-1c0.6,0.5 0.6,1.3 0.1,1.9c-0.3,0.3 -0.7,0.5 -1,0.5c-0.4,-0.1 -0.7,-0.2 -0.9,-0.4zm-83.3,-3.4c-0.5,-0.6 -0.3,-1.4 0.3,-1.9l0,0c0.6,-0.4 1.5,-0.3 1.9,0.3c0.5,0.6 0.3,1.4 -0.3,1.9c-0.2,0.2 -0.5,0.3 -0.8,0.3c-0.4,-0.1 -0.8,-0.3 -1.1,-0.6zm78.7,-0.2l0,0c-0.6,-0.5 -0.8,-1.3 -0.3,-1.9c0.4,-0.6 1.3,-0.7 1.9,-0.3l0,0c0.6,0.4 0.8,1.3 0.3,1.9c-0.3,0.4 -0.7,0.6 -1.1,0.6c-0.3,-0.1 -0.6,-0.2 -0.8,-0.3zm-73.8,-3.2c-0.4,-0.6 -0.2,-1.5 0.5,-1.9l0,0c0.6,-0.4 1.5,-0.2 1.9,0.4s0.2,1.5 -0.4,1.9l0,0c-0.2,0.1 -0.5,0.2 -0.7,0.2c-0.6,0 -1.1,-0.2 -1.3,-0.6zm68.9,0l0,0c-0.7,-0.4 -0.9,-1.2 -0.5,-1.9c0.4,-0.6 1.2,-0.8 1.9,-0.5l0,0c0.6,0.4 0.9,1.2 0.5,1.9c-0.3,0.4 -0.7,0.7 -1.2,0.7c-0.3,0 -0.5,-0.1 -0.7,-0.2zm-63.7,-3c-0.3,-0.7 0,-1.5 0.6,-1.8l0.6,1.2l-0.6,-1.2c0.7,-0.3 1.5,-0.1 1.8,0.6s0.1,1.5 -0.6,1.8l0,0c-0.2,0.1 -0.4,0.1 -0.6,0.1c-0.5,0 -1,-0.2 -1.2,-0.7zm58.5,0.2c-0.7,-0.3 -1,-1.1 -0.7,-1.8c0.3,-0.7 1.1,-1 1.8,-0.6l0,0c0.7,0.3 1,1.1 0.6,1.8c-0.2,0.5 -0.7,0.8 -1.2,0.8c-0.1,0 -0.3,-0.1 -0.5,-0.2zm-53.1,-2.7c-0.3,-0.7 0.1,-1.5 0.8,-1.7l0.5,1.3l-0.5,-1.3c0.7,-0.3 1.5,0.1 1.8,0.8c0.3,0.7 -0.1,1.5 -0.8,1.8l0,0c-0.2,0.1 -0.3,0.1 -0.5,0.1c-0.6,-0.1 -1.1,-0.5 -1.3,-1zm47.7,0.5l0,0c-0.7,-0.3 -1.1,-1.1 -0.8,-1.8c0.3,-0.7 1.1,-1 1.8,-0.8l0,0c0.7,0.3 1.1,1 0.8,1.7c-0.2,0.5 -0.7,0.9 -1.3,0.9c-0.2,0.1 -0.3,0 -0.5,0zm-42.1,-2.5c-0.2,-0.7 0.2,-1.5 1,-1.7l0.4,1.3l-0.4,-1.3c0.7,-0.2 1.5,0.2 1.7,0.9c0.2,0.7 -0.2,1.5 -0.9,1.7l-0.1,0c-0.1,0 -0.2,0 -0.4,0c-0.6,0.1 -1.1,-0.3 -1.3,-0.9zm36.5,0.7c-0.7,-0.2 -1.2,-0.9 -1,-1.6s0.9,-1.2 1.7,-1l0,0c0.7,0.2 1.2,0.9 1,1.7c-0.2,0.6 -0.7,1 -1.3,1c-0.1,0 -0.3,-0.1 -0.4,-0.1zm-30.7,-2.2c-0.1,-0.7 0.3,-1.4 1.1,-1.6l0,0c0.7,-0.1 1.5,0.3 1.6,1.1c0.1,0.7 -0.4,1.4 -1.1,1.6c-0.1,0 -0.2,0 -0.3,0c-0.6,0 -1.1,-0.4 -1.3,-1.1zm25,1l0,0c-0.8,-0.1 -1.3,-0.8 -1.1,-1.6c0.1,-0.7 0.8,-1.2 1.6,-1.1l-0.2,1.3l0.2,-1.3c0.7,0.1 1.2,0.8 1.1,1.6c-0.1,0.7 -0.7,1.1 -1.4,1.1c0,0 -0.1,0 -0.2,0zm-19.1,-1.9c-0.1,-0.7 0.5,-1.4 1.2,-1.5l0,0c0.8,-0.1 1.4,0.5 1.5,1.2s-0.5,1.4 -1.2,1.5l0,0l-0.1,0c-0.7,0 -1.3,-0.5 -1.4,-1.2zm13.3,1.1l0,0c-0.8,-0.1 -1.3,-0.7 -1.3,-1.5c0.1,-0.7 0.7,-1.3 1.5,-1.2l0,0c0.8,0.1 1.3,0.7 1.3,1.5c-0.1,0.7 -0.7,1.2 -1.4,1.2c0,0 -0.1,0 -0.1,0zm-7.3,-1.5c0,-0.7 0.6,-1.4 1.4,-1.4l0,0c0.8,0 1.4,0.6 1.4,1.3c0,0.7 -0.6,1.4 -1.4,1.4l0,0c-0.8,0 -1.4,-0.6 -1.4,-1.3z" id="svg_12"/>
   </g>
   <g id="dotthreeopa">
    <g id="listone">
     <path class="st9" d="m416.5,96.7l2.8,0c12.6,0 22.8,-10.2 22.8,-22.8l0,-2.1c0,-12.6 -10.2,-22.8 -22.8,-22.8l-2.8,0c-12.6,0 -22.8,10.2 -22.8,22.8l0,2.1c0,12.6 10.2,22.8 22.8,22.8z" id="svg_13"/>
     <g id="svg_14">
      <g id="svg_15">
       <path class="st2" d="m404.8,90.1l26.2,0l0,-34.5l-26.2,0l0,34.5zm2.1,-32.4l22,0l0,30.3l-22,0l0,-30.3z" id="svg_16"/>
      </g>
      <g id="svg_17">
       <g id="svg_18">
        <path class="st2 dotone" d="m424.6,61.6l-13.3,0c-0.6,0 -1,0.5 -1,1c0,0.6 0.5,1 1,1l13.3,0c0.6,0 1,-0.5 1,-1c0,-0.6 -0.4,-1 -1,-1z" id="svg_19"/>
        <path class="st2 dottwo" d="m424.6,66.7l-13.3,0c-0.6,0 -1,0.5 -1,1c0,0.6 0.5,1 1,1l13.3,0c0.6,0 1,-0.5 1,-1s-0.4,-1 -1,-1z" id="svg_20"/>
        <path class="st2 dotthree" d="m424.6,71.8l-13.3,0c-0.6,0 -1,0.5 -1,1c0,0.6 0.5,1 1,1l13.3,0c0.6,0 1,-0.5 1,-1s-0.4,-1 -1,-1z" id="svg_21"/>
        <path class="st2 dotone" d="m424.6,76.9l-13.3,0c-0.6,0 -1,0.5 -1,1c0,0.6 0.5,1 1,1l13.3,0c0.6,0 1,-0.5 1,-1s-0.4,-1 -1,-1z" id="svg_22"/>
        <path class="st2 dottwo" d="m419.6,82l-8.3,0c-0.6,0 -1,0.5 -1,1c0,0.6 0.5,1 1,1l8.3,0c0.6,0 1,-0.5 1,-1c0.1,-0.5 -0.4,-1 -1,-1z" id="svg_23"/>
       </g>
      </g>
     </g>
    </g>
   </g>
   <g id="dotfour" class="st10">
    <path class="st11 dotone" d="m273.7,107.3c1.7,0 3.1,1.4 3.1,3.1s-1.4,3.1 -3.1,3.1s-3.1,-1.4 -3.1,-3.1c-0.1,-1.7 1.3,-3.1 3.1,-3.1z" id="svg_24"/>
    <path class="st12 dottwo" d="m284.4,107.3c1.7,0 3.1,1.4 3.1,3.1s-1.4,3.1 -3.1,3.1s-3.1,-1.4 -3.1,-3.1c0,-1.7 1.4,-3.1 3.1,-3.1z" id="svg_25"/>
    <path class="st2 dotthree" d="m295.1,107.3c1.7,0 3.1,1.4 3.1,3.1s-1.4,3.1 -3.1,3.1s-3.1,-1.4 -3.1,-3.1c0,-1.7 1.4,-3.1 3.1,-3.1z" id="svg_26"/>
   </g>
   <g id="dotthreee" class="st10">
    <path class="st11 dotone" d="m424.6,249.8c1.7,0 3.1,1.4 3.1,3.1c0,1.7 -1.4,3.1 -3.1,3.1s-3.1,-1.4 -3.1,-3.1c0,-1.8 1.4,-3.1 3.1,-3.1z" id="svg_27"/>
    <ellipse class="st12 dotthree" cx="435.3" cy="252.8" rx="3.1" ry="3.1" id="svg_28"/>
    <path class="st2 dottwo" d="m446.1,249.8c1.7,0 3.1,1.4 3.1,3.1c0,1.7 -1.4,3.1 -3.1,3.1s-3.1,-1.4 -3.1,-3.1c0,-1.8 1.4,-3.1 3.1,-3.1z" id="svg_29"/>
   </g>
   <g id="dotfive" class="st10">
    <path class="st11 dotone" d="m530,74.4c-1.7,0 -3.1,-1.4 -3.1,-3.1s1.4,-3.1 3.1,-3.1c1.7,0 3.1,1.4 3.1,3.1c0,1.8 -1.4,3.1 -3.1,3.1z" id="svg_30"/>
    <path class="st12 dottwo" d="m519.3,74.4c-1.7,0 -3.1,-1.4 -3.1,-3.1s1.4,-3.1 3.1,-3.1c1.7,0 3.1,1.4 3.1,3.1c0,1.8 -1.4,3.1 -3.1,3.1z" id="svg_31"/>
    <path class="st2 dotthree" d="m508.5,74.4c-1.7,0 -3.1,-1.4 -3.1,-3.1s1.4,-3.1 3.1,-3.1s3.1,1.4 3.1,3.1c0.1,1.8 -1.3,3.1 -3.1,3.1z" id="svg_32"/>
   </g>
   <path id="dotsix" class="st2 dotone" d="m495.9,257.9c2.1,0 3.7,1.6 3.7,3.7c0,0.8 -0.3,1.6 -0.7,2.2l7,10.6c0.3,-0.1 0.5,-0.1 0.8,-0.1s0.5,0 0.8,0.1l6.9,-10.5c-0.5,-0.6 -0.7,-1.4 -0.7,-2.2c0,-2 1.7,-3.7 3.7,-3.7c2.1,0 3.7,1.6 3.7,3.7c0,0.8 -0.3,1.6 -0.7,2.2l7,10.6c0.3,-0.1 0.5,-0.1 0.8,-0.1c2.1,0 3.7,1.6 3.7,3.7c0,2 -1.7,3.7 -3.7,3.7c-2.1,0 -3.7,-1.6 -3.7,-3.7c0,-0.8 0.3,-1.6 0.7,-2.2l-7,-10.6c-0.3,0.1 -0.5,0.1 -0.8,0.1s-0.5,0 -0.8,-0.1l-6.9,10.5c0.5,0.6 0.7,1.4 0.7,2.2c0,2 -1.7,3.7 -3.7,3.7c-2.1,0 -3.7,-1.6 -3.7,-3.7c0,-0.8 0.3,-1.6 0.7,-2.2l-7,-10.6c-0.3,0.1 -0.5,0.1 -0.8,0.1c-2.1,0 -3.7,-1.6 -3.7,-3.7c0,-2 1.7,-3.7 3.7,-3.7z"/>
   <g id="dotplus">
    <ellipse class="st11" cx="467.2" cy="62.3" rx="12.4" ry="12.2" id="svg_33"/>
    <g id="svg_34">
     <path class="st2" d="m467.2,68.9c0.7,0 1.3,-0.6 1.3,-1.2l0,-10.8c0,-0.7 -0.6,-1.2 -1.3,-1.2s-1.3,0.6 -1.3,1.2l0,10.7c0.1,0.7 0.7,1.3 1.3,1.3z" id="svg_35"/>
    </g>
    <g id="dotmin">
     <path d="m461.8,63.5l10.9,0c0.7,0 1.3,-0.6 1.3,-1.2s-0.6,-1.2 -1.3,-1.2l-10.9,0c-0.7,0 -1.3,0.6 -1.3,1.2s0.6,1.2 1.3,1.2z" id="svg_36"/>
    </g>
   </g>
   <g id="networksig" class="st13">
    <g id="svg_37">
     <path class="st2 dotone" d="m311.5,73.9c0.2,-0.2 0.4,-0.5 0.4,-0.9c0,-11.3 9.3,-20.5 20.8,-20.5c0.7,0 1.2,-0.5 1.2,-1.2s-0.5,-1.2 -1.2,-1.2c-12.8,0 -23.2,10.3 -23.2,22.9c0,0.7 0.5,1.2 1.2,1.2c0.3,0 0.6,-0.1 0.8,-0.3z" id="svg_38"/>
    </g>
    <g id="svg_39">
     <path class="st2 dottwo" d="m318.7,74.4c0.2,-0.2 0.4,-0.5 0.4,-0.9c0,-7.7 6.3,-13.9 14.1,-13.9c0.7,0 1.2,-0.5 1.2,-1.2s-0.5,-1.2 -1.2,-1.2c-9.1,0 -16.6,7.3 -16.6,16.3c0,0.7 0.5,1.2 1.2,1.2c0.3,0 0.6,-0.1 0.9,-0.3z" id="svg_40"/>
    </g>
    <g id="svg_41">
     <path class="st2 dotthree" d="m326,73.9c0.2,-0.2 0.4,-0.5 0.4,-0.9c0,-3.4 2.8,-6.2 6.3,-6.2c0.7,0 1.2,-0.5 1.2,-1.2s-0.5,-1.2 -1.2,-1.2c-4.8,0 -8.8,3.9 -8.8,8.6c0,0.7 0.5,1.2 1.2,1.2c0.4,0 0.7,-0.1 0.9,-0.3z" id="svg_42"/>
    </g>
   </g>
   <g id="dotseteopa">
    <g id="setting">
     <path class="st15" d="m351.4,110.8l2.4,0c10.7,0 19.3,-8.6 19.3,-19.3l0,-1.8c0,-10.7 -8.6,-19.3 -19.3,-19.3l-2.4,0c-10.7,0 -19.3,8.6 -19.3,19.3l0,1.8c0.1,10.6 8.7,19.3 19.3,19.3z" id="svg_43"/>
     <path class="st2 settingone" d="m350.9,93.1c-0.2,0.5 -0.3,1.1 -0.3,1.7l-2.4,0.8c0,0.6 0.1,1.1 0.2,1.7l2.5,0.2c0.2,0.5 0.4,1 0.7,1.5l-1.5,2c0.4,0.5 0.8,0.8 1.2,1.3l2.2,-1.3c0.2,0.2 0.5,0.3 0.7,0.4c0.3,0.1 0.5,0.3 0.8,0.4l0,2.5c0.6,0.1 1.1,0.3 1.7,0.3l1,-2.3c0.6,0 1.1,-0.1 1.7,-0.2l1.5,2c0.5,-0.2 1.1,-0.4 1.6,-0.7l-0.6,-2.4c0.4,-0.4 0.8,-0.7 1.2,-1.2l2.4,0.8c0.1,-0.3 0.3,-0.5 0.4,-0.7s0.3,-0.5 0.4,-0.8l-1.9,-1.6c0.2,-0.6 0.3,-1.1 0.3,-1.7l2.4,-0.8c0,-0.6 -0.1,-1.1 -0.2,-1.7l-2.5,-0.2c-0.2,-0.5 -0.4,-1 -0.7,-1.5l1.5,-2c-0.3,-0.4 -0.8,-0.8 -1.2,-1.2l-2.1,1.3c-0.2,-0.2 -0.5,-0.3 -0.8,-0.4c-0.2,-0.1 -0.5,-0.3 -0.7,-0.4l0,-2.5c-0.6,-0.2 -1.1,-0.3 -1.7,-0.3l-0.9,2.3c-0.6,0 -1.1,0.1 -1.7,0.2l-1.5,-2c-0.5,0.2 -1.1,0.5 -1.6,0.7l0.6,2.4c-0.5,0.3 -0.9,0.7 -1.2,1.2l-2.4,-0.8c-0.2,0.2 -0.3,0.5 -0.5,0.7c-0.1,0.2 -0.3,0.5 -0.4,0.8l1.8,1.5zm2.8,0c1.2,-2.1 3.8,-2.9 6,-1.7c2.2,1.2 2.9,3.8 1.8,5.9c-1.2,2.1 -3.9,2.9 -6,1.7c-2.2,-1.2 -2.9,-3.8 -1.8,-5.9z" id="svg_44"/>
     <path class="st2 settingtwo" d="m340.1,84.6c0.1,0.4 0.2,0.8 0.3,1.2l-1.4,1.3c0.2,0.4 0.4,0.7 0.7,1.1l1.8,-0.7c0.1,0.1 0.3,0.3 0.5,0.4c0.1,0.1 0.3,0.2 0.5,0.3l-0.4,1.9c0.4,0.2 0.8,0.4 1.2,0.5l1.1,-1.6c0.4,0.1 0.8,0.1 1.3,0.1l0.9,1.7c0.5,0 0.9,-0.2 1.3,-0.3l-0.2,-1.9c0.4,-0.2 0.8,-0.4 1.1,-0.7l1.8,0.9c0.1,-0.2 0.3,-0.4 0.4,-0.5c0.2,-0.2 0.3,-0.4 0.4,-0.5l-1.2,-1.5c0.2,-0.4 0.4,-0.8 0.4,-1.3l1.9,-0.2c0.1,-0.4 0.1,-0.9 0.1,-1.3l-1.9,-0.5c0,-0.4 -0.1,-0.8 -0.3,-1.2l1.4,-1.3c-0.2,-0.4 -0.4,-0.8 -0.7,-1.1l-1.8,0.7c-0.1,-0.1 -0.3,-0.3 -0.5,-0.4s-0.3,-0.2 -0.6,-0.4l0.4,-1.9c-0.3,-0.2 -0.8,-0.4 -1.3,-0.5l-1,1.6c-0.5,-0.1 -0.9,-0.1 -1.3,-0.1l-0.9,-1.8c-0.5,0 -0.9,0.2 -1.3,0.3l0.2,1.9c-0.4,0.2 -0.8,0.4 -1.1,0.7l-1.8,-0.9c-0.2,0.1 -0.3,0.3 -0.4,0.5s-0.3,0.4 -0.4,0.5l1.2,1.5c-0.2,0.4 -0.4,0.8 -0.5,1.2l-1.9,0.3c-0.1,0.4 -0.1,0.9 -0.1,1.3l2.1,0.7zm2.8,-2.9c1.2,-1.4 3.4,-1.6 4.8,-0.5c1.5,1.2 1.7,3.3 0.5,4.8s-3.4,1.7 -4.8,0.5c-1.5,-1.2 -1.7,-3.4 -0.5,-4.8z" id="svg_45"/>
    </g>
   </g>
  </g>
  <g id="mobileone">
   <path class="st3" d="m75,80.4c0,-0.1 0,-0.2 0,-0.3c0,-0.1 0,-0.2 0,-0.2c0,-0.1 0,-0.1 0,-0.2c0,-0.3 0.1,-0.5 0.1,-0.7c0,-0.1 0,-0.2 0.1,-0.3c0.1,-0.3 0.2,-0.6 0.3,-0.9c0,0 0,-0.1 0.1,-0.1c0.1,-0.3 0.2,-0.5 0.3,-0.8c0,-0.1 0.1,-0.2 0.1,-0.3c0.1,-0.2 0.2,-0.4 0.3,-0.6c0.1,-0.1 0.1,-0.2 0.2,-0.2c0.2,-0.2 0.3,-0.4 0.5,-0.7c0,0 0,-0.1 0.1,-0.1c0.2,-0.2 0.4,-0.5 0.6,-0.7c0.1,-0.1 0.1,-0.1 0.2,-0.2c0.2,-0.1 0.3,-0.3 0.5,-0.4c0.1,-0.1 0.2,-0.1 0.2,-0.2c0.2,-0.1 0.4,-0.3 0.6,-0.4l0.1,-0.1c0,0 0,0 0.1,0c0.2,-0.1 0.3,-0.2 0.5,-0.2c0.1,0 0.2,-0.1 0.2,-0.1c0.2,-0.1 0.5,-0.2 0.8,-0.3l7.2,-2.1l0,0l0,0l0,0c-0.3,0.1 -0.5,0.2 -0.8,0.3c-0.1,0 -0.2,0.1 -0.2,0.1c-0.2,0.1 -0.3,0.1 -0.5,0.2c-0.1,0 -0.1,0.1 -0.2,0.1c-0.2,0.1 -0.4,0.2 -0.6,0.4c-0.1,0.1 -0.2,0.1 -0.2,0.2c-0.2,0.1 -0.3,0.3 -0.5,0.4c-0.1,0.1 -0.1,0.1 -0.2,0.2c-0.2,0.2 -0.4,0.4 -0.6,0.7c0,0 0,0.1 -0.1,0.1c-0.2,0.2 -0.3,0.4 -0.5,0.6c-0.1,0.1 -0.1,0.2 -0.2,0.2c-0.1,0.2 -0.2,0.4 -0.3,0.6c0,0.1 -0.1,0.2 -0.1,0.3c-0.1,0.2 -0.2,0.5 -0.3,0.8c0,0 0,0.1 -0.1,0.1c-0.1,0.3 -0.2,0.6 -0.3,0.9c0,0.1 0,0.2 -0.1,0.3c-0.1,0.2 -0.1,0.5 -0.1,0.7c0,0.1 0,0.3 -0.1,0.4c0,0.1 0,0.2 0,0.3c0,0.2 0,0.4 0,0.5s0,0.2 0,0.3c0,0.2 0,0.4 0,0.6c0,0.1 0,0.2 0,0.3c0,0.3 0,0.6 0.1,0.9l50.9,305.2c0.7,6.1 5.2,11.1 10.3,11.9l0,0l125.8,0.4c0.9,0 1.8,-0.2 2.7,-0.5l-7,2.5c-0.8,0.3 -1.7,0.5 -2.7,0.5l-124.8,-0.3c-5.6,0 -10.8,-5.4 -11.6,-12l-50.8,-305.4c0,-0.3 -0.1,-0.6 -0.1,-0.9c0,-0.1 0,-0.2 0,-0.3c0,-0.2 0,-0.4 0,-0.6c0,-0.1 0,-0.2 0,-0.3c0,-0.2 0,-0.4 0.1,-0.6z" id="svg_46"/>
   <g id="svg_47">
    <path class="st2" d="m89.1,79.5l126.9,6.5c1.9,0.1 3.6,1.9 3.9,4l54.7,295c0.3,2.2 -1,4 -2.9,4l-128.9,-0.5c-2,0 -3.8,-1.8 -4.1,-4.1l-52.6,-301.1c-0.3,-2.2 1.1,-3.9 3,-3.8z" id="svg_48"/>
   </g>
   <g id="svg_49">
    <path class="st4" d="m140.4,388.5c-2,0 -3.8,-1.8 -4.1,-4.1l-52.6,-301.1c-0.3,-2.2 1.1,-3.9 3,-3.8l126.9,6.5c1.9,0.1 3.6,1.9 3.9,4l-77.1,298.5z" id="svg_50"/>
   </g>
   <g class="st5" id="svg_51">
    <path class="st6" d="m91.7,79.5l122,6.5c1.8,0.1 3.5,1.9 3.8,4l2.6,14.5l-128.8,-6l-2.6,-15.2c-0.2,-2.2 1.1,-3.9 3,-3.8z" id="svg_52"/>
   </g>
   <path d="m81.7,81.1l50.9,305.2c0.8,6.6 6,12 11.6,12l124.5,0.3c5.4,0 9.1,-5.2 8.2,-11.7l-53.1,-298.4c-0.8,-6.2 -5.8,-11.4 -11.1,-11.7l-122.4,-6.7c-5.5,-0.3 -9.4,4.6 -8.6,11zm11.3,5.7l122,6.5c1.8,0.1 3.5,1.9 3.8,4l50.1,282.2c0.3,2.2 -1,4 -2.8,4l-124,0c-1.9,0 -3.7,-2.3 -3.9,-4.6l-48.1,-288.4c-0.3,-2.1 1,-3.8 2.9,-3.7z" id="svg_53"/>
   <g id="menopa">
    <g id="mmentonet">
     <g id="menlhand">
      <path class="st19" d="m254.3,191.6c3,10.5 6.5,21.1 10.5,31.2c3.3,8 6.7,16.6 12.1,23.3c18.8,3.5 38.7,7.3 57.7,3.8l3.4,11c-21.3,8.4 -44.8,6.7 -67.4,6.6c-18.5,-2.4 -37.1,-51.1 -43.7,-67.2l27.4,-8.7z" id="svg_54"/>
      <path class="st2" d="m254.3,191.6c3,10.5 6.5,21.1 10.5,31.2c3.3,8 6.7,16.6 12.1,23.3c15.6,2.9 32.2,5.3 48.2,4.3c0.1,0.3 3.3,9 2,14.7c-18.2,4.4 -37.8,2.5 -56.5,2.5c-18.5,-2.4 -37.1,-51.1 -43.7,-67.2l27.4,-8.8z" id="svg_55"/>
      <path class="st20" d="m254.3,191.6c3,10.5 6.5,21.1 10.5,31.2c3.3,8 6.7,16.6 12.1,23.3c8.7,1.6 17.6,3.3 26.6,4.3c0.4,0.6 0.8,1.2 1.3,1.6c1.8,1.8 4.5,2.9 7.1,2.9c5.7,0 11.5,-0.6 17.2,0c2.2,0.2 4.5,-0.8 6.3,-2.2l2.5,8.2c-21.3,8.4 -44.8,6.7 -67.4,6.6c-18.5,-2.4 -37.1,-51.1 -43.7,-67.2l27.5,-8.7z" id="svg_56"/>
      <path class="st21" d="m252.6,187.4c4,7.4 17.5,48.5 22.9,55.2c15.3,2 29.5,6.1 47.5,6c2.1,5.7 3,14.1 2.3,18.5c-12.3,1.3 -41.3,5.8 -59.2,3.9c-20.9,-2 -32.6,-54.6 -39.2,-70.7l25.7,-12.9z" id="svg_57"/>
      <path class="st22" d="m250.4,188.5c0,0.4 0.1,0.7 0,1.1c-4.3,15.7 2.2,56.8 2.9,61c0.8,4.7 3.6,9.3 8,11.6c4.2,2.2 9,2.8 13.7,2.8c3.2,0 41.5,1.1 50.4,-0.5c0,1 -0.1,1.9 -0.2,2.6c-12.3,1.3 -41.3,5.8 -59.2,3.9c-20.9,-2 -32.6,-54.6 -39.2,-70.7l23.6,-11.8z" id="svg_58"/>
      <g id="svg_59">
       <g id="svg_60">
        <path class="st19" d="m353.3,257.9c0.2,0 0.4,0 0.6,-0.1c5.9,-1.5 15,-2.1 15.1,-2.1c1.1,-0.1 1.9,-0.9 1.8,-2s-1,-1.9 -2,-1.8c-0.5,0 -11.6,0.3 -19.3,2.6c-1,0.2 3,3.3 3.8,3.4z" id="svg_61"/>
       </g>
       <g class="st23" id="svg_62">
        <path d="m370.3,252.4c0.3,0.3 0.6,0.8 0.6,1.3c0.1,1.1 -0.8,1.9 -1.8,2c-0.1,0 -9.2,0.6 -15.1,2.1c-0.2,0 -0.4,0.1 -0.6,0.1c-0.6,0 -4.8,-1.9 -5.2,-3c1.7,-1.3 18.5,-2.4 22.1,-2.5z" id="svg_63"/>
       </g>
       <path class="st19" d="m326.3,254.6c0.1,-0.5 0.1,-1 0.2,-1.5c0.5,-3.6 8.4,-7.1 13.2,-6.8c3.9,0.3 9.4,-2 9.9,-0.7c1,2.2 -0.4,4.5 -5.5,5.5c-3.3,0.6 2.6,2.1 2.6,2.1c4,0.9 12,0.5 12,0.5c5.6,-0.5 11.8,-0.1 11.8,-0.1c1.1,0 1.9,0.9 1.9,1.9c0,1.1 -0.9,1.7 -1.9,1.7c-0.1,0 -6.2,-0.6 -11.6,-0.1l0.6,3.8l-10,3.8c-0.5,0.2 -1.1,0.3 -1.6,0.3c-3,0 -13.1,-0.2 -16,-1.1c-2.4,-0.7 -3.8,-1.5 -4.7,-2.6c0.2,-2.3 -0.2,-4.6 -0.9,-6.7z" id="svg_64"/>
       <path class="st20" d="m343.8,252.2c-3.3,-0.4 -1.8,-2.1 -1.6,-2.2c2.1,-0.8 3.7,0.5 6.3,-1.5c0.5,-0.4 0.9,-0.9 1.4,-1.8c0.1,1.8 -1.5,3.6 -5.7,4.4c-1.4,0.2 -1.1,0.6 -0.4,1.1z" id="svg_65"/>
       <g class="st23" id="svg_66">
        <path d="m351.7,257.2c5.3,-2.4 16,-3.1 16.5,-3.1c1.1,-0.1 2,0.7 2.1,1.7c0,0.5 -0.1,1 -0.5,1.4c-0.6,-0.1 -1.2,-0.2 -1.7,-0.2c-2,0 -3.9,0.6 -5.4,1.6c-2.9,0.5 -6.4,1.1 -9.2,2c-0.2,0.1 -0.4,0.1 -0.6,0.1c-0.8,0 -2.2,-3.1 -1.2,-3.5z" id="svg_67"/>
       </g>
       <g id="svg_68">
        <path class="st19" d="m352.3,261.1c0.2,0 0.4,0 0.6,-0.1c5.9,-1.8 14.9,-2.7 15,-2.7c1.1,-0.1 1.9,-1 1.8,-2.1s-1,-1.8 -2.1,-1.7c-0.5,0 -11.1,1 -17.4,2.8c-1,0.3 1.3,3.8 2.1,3.8z" id="svg_69"/>
       </g>
       <g class="st23" id="svg_70">
        <path d="m353.3,260.9c-0.1,0 -0.3,0.1 -0.4,0.1c-0.2,0.1 -0.4,0.1 -0.6,0.1l-0.1,0c0.4,-0.1 0.8,-0.1 1.1,-0.2z" id="svg_71"/>
       </g>
       <g class="st23" id="svg_72">
        <path d="m348.9,259.2c6.1,-1.8 14.9,-3.6 15,-3.6c1,-0.3 2.1,0.3 2.4,1.3c0.2,0.6 0,1.2 -0.3,1.6c-0.1,0 -0.3,0 -0.4,0.1c-1.8,0.2 -3.5,0.5 -5.3,1s-3.3,1.4 -4.4,2.6c-1.7,0.5 -3.5,1.1 -5.1,1.6c-0.2,0.1 -0.4,0.1 -0.6,0.1c-0.8,0 -1.6,-0.5 -1.9,-1.4c-0.2,-1 -0.4,-2.9 0.6,-3.3z" id="svg_73"/>
       </g>
       <g id="svg_74">
        <path class="st19" d="m349.7,264.4c0.2,0 0.4,0 0.6,-0.1c6.1,-1.8 14,-4.5 14.1,-4.5c1,-0.3 1.6,-1.3 1.3,-2.4c-0.3,-1 -1.4,-1.6 -2.4,-1.3c-0.1,0 -8.1,2.1 -16.1,3.4c-1.1,0.2 0.3,2.5 0.6,3.5c0.3,0.8 1,1.4 1.9,1.4z" id="svg_75"/>
       </g>
       <path class="st20" d="m326.3,254.6l0,-0.1c0.5,0.8 1,1.5 1.7,2.2c1.9,1.8 3.9,2.8 6.3,3.6c1.7,0.5 9.9,2.1 12.7,1.7c0.2,0 3.6,-0.8 4.9,-1.1c2.7,-0.7 7.6,-1.4 7.7,-1.5c2,-0.5 4,-1.3 5.9,-2.3c0.1,0.1 0.1,0.2 0.1,0.3c0.3,1 -0.3,2.1 -1.3,2.4c-0.1,0 -6.1,2 -11.7,3.7l-2.9,1.1c-0.6,0.2 -1.3,0.4 -2,0.3c-3.2,0 -13,-0.3 -15.9,-1.1c-2.4,-0.7 -3.8,-1.5 -4.7,-2.6c0.3,-2.2 -0.1,-4.5 -0.8,-6.6z" id="svg_76"/>
      </g>
     </g>
     <g id="svg_77">
      <g id="svg_78">
       <g id="svg_79">
        <g id="svg_80">
         <g id="svg_81">
          <path class="st24" d="m205,383.5c-2.5,-22.1 -8.2,-41.7 -11.1,-58.5c-3.5,-35.1 46.2,-76.1 52.7,-23.6c1.7,13.8 2.5,35.8 -3.3,82.1l-38.3,0z" id="svg_82"/>
          <path class="st25" d="m246.6,301.4c0.7,5.6 1.2,12.6 1.3,22.1c-2,-0.7 -4.2,-0.7 -6.2,-0.2c-2.4,0.5 -4.8,2.5 -6,4.5c-1.4,2.3 -1.6,5 -1,7.6c0,0.1 0.1,0.3 0.1,0.4c0.2,2.1 0.1,4.2 -0.2,6.4c-0.1,0.5 -0.2,1 -0.3,1.6c-2.5,2.6 -5,5.3 -7.4,8.1c-5.9,6.9 -11.9,14.6 -14.5,23.4c-0.8,2.6 -1.2,5.4 -1.1,8.2l-6.3,0c-2.5,-22.1 -8.2,-41.7 -11.1,-58.5c-3.5,-35 46.2,-76 52.7,-23.6z" id="svg_83"/>
          <path class="st24" d="m192.5,383.5l-38.1,0c4.8,-30.4 7.1,-53.8 10.6,-79.7c2.6,-35.6 63.1,-17.1 50.6,16.7c-0.8,2.6 -10.3,45 -23.1,63z" id="svg_84"/>
          <path class="st25" d="m211.9,334.9c-0.4,-0.1 -0.8,-0.1 -1.2,-0.2c-7.8,-0.7 -15.9,2.4 -22.2,6.5c-5.3,3.5 -10.4,7.7 -14.4,12.6c-2.1,2.6 -4,5.2 -5.5,8.1s-2.7,6 -3.7,9.1c-0.8,2.6 -1.5,5.3 -2.1,7.9c-0.6,1.4 -1.2,2.9 -1.6,4.4l-6.6,0c4.8,-30.4 7.1,-53.8 10.6,-79.7c2.6,-35.6 63.1,-17.1 50.6,16.7c-0.5,1.1 -1.8,6.8 -3.9,14.6z" id="svg_85"/>
          <path class="st2" d="m154.2,187.8c1.9,-3.2 18.2,-18.1 38.1,-20.1c7.1,-0.7 20.4,-0.3 29.8,1.5c7.9,1.5 26.8,13 29.9,18.2c4,6.7 -1.2,28.6 -3.2,37.8c-3.6,16.3 -1.3,84.8 -1.3,84.8s-7.1,5.7 -33.9,4.5c-35.3,-1.5 -46.4,-11 -46.4,-11c1.5,-43.9 -2.1,-70.5 -7.3,-84.7c-4.3,-11.2 -14.8,-15.2 -5.7,-31z" id="svg_86"/>
          <path class="st15" d="m220.7,178.6c0.5,-0.1 1,-0.3 1.5,-0.5c0.1,2.2 0,4.3 -0.2,6.5c-0.3,2 -1.5,4.4 -2.1,6.3c-1.1,0 -1.5,-1 -2.6,-0.9c-1.1,0 -2.1,0.1 -3.2,0.2c-0.3,-0.9 -0.5,-1.4 -0.8,-2.3c-0.4,-1.2 -0.9,-2.3 -1.2,-3.5c-0.5,-1.8 -1,-3.5 -1.7,-5.2c3.5,0.2 6.8,0 10.3,-0.6z" id="svg_87"/>
          <path class="st15" d="m220.2,188.4c-0.3,5.4 4.3,22 3.3,35.7c-0.3,2 -2.9,20.4 -3.4,22.4c-1.1,0 -10.3,-21.4 -10.1,-22.4c3.5,-20.6 4.2,-34 4.3,-35c0.2,-2.2 5.8,-0.7 5.9,-0.7z" id="svg_88"/>
          <path class="st21" d="m154.4,184.5c1.9,-3.2 19.6,-15.2 38.9,-17.8c1.1,-0.1 22.4,46 25.7,67.5c3.1,20.6 2.3,80.8 0.9,103.8c-0.2,3.1 -2.8,5.5 -6,5.5c-38.2,-0.8 -55,-9.5 -55,-9.5c9.9,-66.2 5.6,-94.8 0.3,-109c-4,-11.2 -13.9,-24.6 -4.8,-40.5z" id="svg_89"/>
          <path class="st22" d="m164.7,279.6c0.8,-17.4 0,-30.1 -1.5,-39.5l0,0c-1,-6.4 -2.4,-11.3 -3.8,-15.1c-1.1,-3 -2.7,-6.2 -4.1,-9.5c1.2,0.3 2.4,0.6 3.7,0.9c0.9,1.2 2,2.3 3.2,2.9c0.8,0.4 1.7,0.9 2.4,1.4c0.7,0.6 1.3,1.2 1.9,1.9c0.9,1.3 1.7,2.6 2.4,4.1c1.3,3.5 2.9,12.4 3,13.2c0.2,2 0.3,4.1 0.4,6.1c0,0.2 0,0.4 -0.1,0.6c3.8,2.6 29.8,14.5 32.1,14.6c0,1.1 -0.1,2.2 -0.2,3.3c-0.7,4.1 -1.8,8.2 -2.1,12.3c-0.1,1.4 -29.7,-2.5 -32.3,-2.3c-0.1,3.1 -0.2,10.9 -0.2,14c-0.1,6.9 -0.2,13.9 0.9,20.8c0.7,4.7 2.6,9.3 4.9,13.4c4.8,8.3 12.5,14.9 20.9,19.5c0.2,0.1 0.4,0.2 0.6,0.3c-26.1,-2.5 -37.8,-8.5 -37.8,-8.5c3.3,-22 5.1,-39.9 5.7,-54.4l0,0z" id="svg_90"/>
          <path class="st21" d="m220.4,242.1c8,-36.4 2.7,-72.4 2.9,-72.4c7.9,1.5 26.3,12.5 29.4,17.7c4,6.7 2,28.6 0,37.8c-3.6,16.3 -2.7,112.5 -2.7,112.5s-9.5,4.6 -25.2,5.7c-3.3,0.2 -6.1,-2.5 -6,-5.8c1,-22.9 -6.6,-58.2 1.6,-95.5z" id="svg_91"/>
          <path class="st22" d="m218.8,333.4c0.3,-1.7 0.5,-3.4 0.7,-5.1c1.7,-13.3 1.2,-63.3 0.5,-83.3c-0.1,-1.7 2.2,26.5 2.2,34c0,36 -3.8,61.4 -3.6,58.6c0.2,-1.4 0.2,-2.8 0.2,-4.2z" id="svg_92"/>
         </g>
         <g id="svg_93">
          <path class="st19" d="m199.7,138.5c1.5,-4.2 12.2,-6.2 16.4,-4.7c3.6,1.3 5.7,4.8 5.3,8.4l0,0.1l0.3,24.1c0.1,1.1 -0.1,2.4 -0.3,5.3c-0.6,8.9 -13.3,4.2 -13.3,4.2c-1.8,-1.7 -11.8,-6.4 -10.8,-9.5c5.1,-15.2 2.4,-27.9 2.4,-27.9z" id="svg_94"/>
          <path class="st20" d="m216.1,133.8c3.6,1.3 5.7,4.8 5.3,8.4l0,0.1l0.3,25.6c0,0.1 0,0.3 -0.1,0.4c-14.9,-5.2 -17.3,-14.6 -17.7,-15.6c-1.3,-4.6 -1.9,-7.1 -2.7,-11.7c0.5,-2.3 0.9,-3.8 0.9,-3.8c1.6,-4.2 9.8,-4.9 14,-3.4z" id="svg_95"/>
          <path class="st19" d="m228.6,109.8c0,0 15.5,50.6 -2,52c-15.4,1.3 -22.9,-6 -22.9,-6s-21.5,-32.8 -13.9,-42.6c5.9,-7.6 38.8,-3.4 38.8,-3.4z" id="svg_96"/>
          <path class="st26" d="m203.5,103.1c9.3,-2.1 25.4,2.5 30.1,2.1c0,0 6.5,12.2 -7.3,14.2s-20.7,4.1 -20.2,7.4c0.5,3.2 2.1,6.9 2.1,6.9l-3,2.1c0,0 -6.2,-2.6 -6.6,0.4c-0.6,4.1 1.5,9.7 5.4,9.7c0,0 -1.5,2.3 -3.7,7c0,0 -14.1,-12.3 -14.2,-28.1c0,-13.2 8.1,-19.6 17.4,-21.7z" id="svg_97"/>
         </g>
        </g>
       </g>
      </g>
      <path class="st27" d="m221.8,167.1c0,0 -0.2,7.4 -4.7,9.8l5.9,9c-0.1,0 4.7,-11.1 -1.2,-18.8z" id="svg_98"/>
      <path class="st27" d="m217,176.9l-4.7,10c-0.4,0 -16.8,-6.6 -18.8,-18.9l5.2,-5.1c0.1,0 5.8,13.9 18.3,14z" id="svg_99"/>
      <path class="st2" d="m221.8,165.8c0,0 -0.2,8.7 -4.7,11.1l5.9,7.7c-0.1,0 4.7,-11.1 -1.2,-18.8z" id="svg_100"/>
      <path class="st2" d="m217,176.9l-4.7,8.7c-0.4,0 -16.8,-6.6 -18.8,-18.9l5.2,-5.1c0.1,-0.1 5.8,15.2 18.3,15.3z" id="svg_101"/>
      <path class="st28" d="m221.7,165.5c2.3,0.8 5.5,3.8 7.7,6.4c1.5,1.9 4.9,4.6 4.9,4.6c-1,1.6 -3.9,4.6 -3.9,4.6l5.2,8.5c0,0 -7.6,23.2 -14.8,52.6c-0.1,-7.5 5.8,-35.4 5.6,-39.2c-0.6,-11.1 0.5,-19 -1,-24.7c-0.9,-3.9 -3.6,-11.9 -3.7,-12.8z" id="svg_102"/>
      <path class="st28" d="m199,160.1c0,0 -1.7,9.7 1,18.1c5.5,16.8 19.3,45 18.7,63.9c0,0 -22.1,-40.1 -32.6,-50.7l4.3,-8.3l-5.3,-3.8c0,0 2.6,-10.5 5.1,-11.9l8.8,-7.3z" id="svg_103"/>
      <path class="st21" d="m199,160.1c0,0 1.1,11.7 3.9,20.2c5.5,16.8 17.9,45.8 17.2,64.7c0,0 -20.9,-43.4 -31.3,-54l4.3,-8.3l-5.3,-3.8c0,0 -0.5,-6.5 1.9,-11l9.3,-7.8z" id="svg_104"/>
      <path class="st21" d="m221.7,165.5c2.3,0.8 5.5,3.8 7.7,6.4c1.5,1.9 3.4,4.6 3.4,4.6c-1,1.6 -5,3.7 -5,3.7l5.6,9.4c0,0 -6.5,22.2 -13.2,55.4c-0.1,-7.5 6.7,-48.4 3.6,-67.7c-0.7,-4 -2,-10.9 -2.1,-11.8z" id="svg_105"/>
     </g>
     <g id="handrm">
      <path class="st29" d="m240.8,254.6l17.9,0.4c0.4,0 0.7,-0.3 0.7,-0.7l0,0c0,-0.4 -0.3,-0.7 -0.7,-0.7l-17.9,-0.4c-0.4,0 -0.7,0.3 -0.7,0.7l0,0c0,0.3 0.3,0.6 0.7,0.7z" id="svg_106"/>
      <path class="st21" d="m274.1,254.7l-50.3,-1.3c-0.4,0 -0.8,0.1 -1,0.4l-30,27.8c-1.2,1 -0.2,2.6 0.7,2.6l45.2,-1c0.5,0 1.1,-0.2 1.5,-0.5l34.5,-25.8c0.4,-0.3 0.3,-2.3 -0.6,-2.2z" id="svg_107"/>
      <path class="st30" d="m274.2,255.7l-49.7,-0.9c-0.4,0 -0.8,0.1 -1,0.4l-30.7,27.4c-0.6,0.6 -0.2,1.7 0.7,1.7l45.2,0c0.5,0 1.1,-0.2 1.5,-0.5l34.5,-26.8c0.4,-0.4 0.1,-1.3 -0.5,-1.3z" id="svg_108"/>
      <path class="st19" d="m142.1,269.7c15.8,3.8 33.2,5.5 50.9,5.4c2.3,0.8 16.9,5.9 17.9,6c1.1,0.1 4.4,-3.2 4.4,-3.2s2.6,-0.8 3.5,-1.1c1.3,-0.4 2.1,-2.4 2.4,-3.1c0.4,0 8.9,-2.1 8.9,-2.1c0.9,-0.2 1.4,-1.1 1.2,-2c-0.2,-0.7 -0.8,-1.2 -1.5,-1.2c0.8,-0.1 1.7,-0.1 2.5,-0.2c0.9,-0.1 1.6,-0.8 1.5,-1.7c-0.1,-0.8 -0.8,-1.5 -1.6,-1.5l0,0c-3.5,0 -7,-0.1 -10.5,-0.1c0,0 -4.9,0.2 -8,-0.8l4.5,-4.2c0,0 -6.5,-1 -8.3,-1c-1.4,0 -10.1,2.8 -14.2,4.1c-12.7,-1.8 -27.7,-5.4 -39.1,-10.5c4,-17.2 12,-33.8 19.9,-49.6l-23.8,-12.1c-7.8,20.4 -18.2,41.3 -19.7,63.3c-0.4,6.9 1,14 9.1,15.6zm79.3,-0.2c-1.3,0.1 -3.6,0.2 -5.9,0.2c0,-0.1 0,-0.2 0,-0.3c3,-0.2 6.4,-0.5 6.4,-0.5c2.5,-0.1 5,-0.4 7.5,-0.6c-1.1,0.2 -6.2,1.1 -8,1.2z" id="svg_109"/>
      <path class="st2" d="m133.1,254c1.5,-22 11.9,-42.9 19.7,-63.3l23.8,12.1c-8,15.9 -15.9,32.4 -19.9,49.6c11.4,5.1 26.4,8.3 39.1,10.1c0.1,0 -1.2,11.6 -1.6,13.3c-0.6,-0.2 -1.5,-0.2 -1.8,-0.3c-17.7,0.1 -34.5,-2.1 -50.3,-5.8c-8.1,-1.6 -9.5,-8.7 -9,-15.7z" id="svg_110"/>
      <path class="st20" d="m231.3,269.5l0,0c0.2,0.9 -0.3,1.8 -1.2,2c0,0 -4.4,1.1 -7.3,1.8c-0.6,0.2 -7,1.4 -7.5,1.5c0.3,-0.3 15.5,-3.9 16,-5.3z" id="svg_111"/>
      <path class="st20" d="m232.4,268.1c-0.8,0.1 -1.7,0.1 -2.5,0.2c0.1,0 0.2,0 0.3,0c-0.1,0 -0.2,0 -0.4,0c-0.6,0 -1.1,0 -1.6,0.1c-2.1,0.2 -4.2,0.4 -6.3,0.5c0,0 -3.9,0.3 -6.4,0.5c9.9,-2.2 16.6,-1.1 18.4,-3.2c0,0 0,0.1 0,0.2c0,0.9 -0.6,1.7 -1.5,1.7z" id="svg_112"/>
      <path class="st20" d="m133.1,254c1.5,-22 11.9,-42.9 19.7,-63.3l23.8,12.1c-8,15.9 -15.9,32.4 -19.9,49.6c6.8,3 14.9,5.5 23.1,7.4c-0.5,0.2 -1.1,0.4 -1.6,0.7c-2.3,1.2 -3.8,3.5 -4.6,5.9s-0.2,5.5 1,7.6c0.1,0.2 0.2,0.3 0.3,0.5c-11.4,-0.8 -22.4,-2.4 -32.8,-4.8c-8.1,-1.6 -9.5,-8.7 -9,-15.7z" id="svg_113"/>
      <path class="st20" d="m133.1,254c1.5,-22 11.9,-42.9 19.7,-63.3l23.8,12.1c-8,15.9 -15.9,32.4 -19.9,49.6c10,4.4 22.8,7.8 34.4,9.7c-0.4,3.7 1.3,7.3 4.1,9.9c2.5,2.2 5,3.4 8.1,4.6c3.7,1.5 7.7,1.9 11.7,1.5c-0.9,0.8 -3.2,2.9 -4.1,2.9c-1,-0.1 -14.4,-4.5 -16.7,-5.3c-17.7,0.1 -36.4,-2.3 -52.1,-6.1c-8.1,-1.5 -9.5,-8.6 -9,-15.6z" id="svg_114"/>
      <path class="st21" d="m130.2,256.4c1.5,-22 16.7,-56.3 22.4,-68l25.4,13.7c-8,15.9 -13.7,30.5 -17.7,47.7c9.8,3.6 24,9.7 34,11.7c0,4.8 -1.3,13.9 -1.9,16.9c-18.9,-1.7 -39.6,-3.1 -53.1,-6.3c-8.2,-1.6 -9.6,-8.6 -9.1,-15.7z" id="svg_115"/>
      <path class="st22" d="m130.2,256.4c1.1,-16.3 10.1,-40.6 16.2,-55.5c-0.3,1.1 -10.1,34.8 -10.9,40.3c-0.6,4.2 -1,8.1 0,12.3c0.8,3.5 2.9,7 5.7,9.3l0.1,0.1c15,7 50.3,9.6 51.5,9.7c0.1,0 0.3,0 0.4,0.1c-0.3,2.4 -0.7,4.6 -1,5.7c-18.9,-1.7 -39.6,-3.1 -53.1,-6.3c-8,-1.6 -9.4,-8.6 -8.9,-15.7z" id="svg_116"/>
     </g>
     <path class="st31" d="m229.1,143l-1.5,-3.3c-0.2,-0.5 -0.4,-1 -0.7,-1.5c-0.3,-0.4 -0.6,-0.2 -1.1,0c-0.6,0.3 -1.3,0.6 -1.9,0.9c-0.5,0.4 -0.2,0.8 0.1,1.4c0.5,1.2 1,2.5 1.5,3.7c0.1,0.4 0.3,0.7 0.6,0.9c0.5,0.3 1.2,0.1 1.8,-0.1c0.6,-0.2 1.3,-0.6 1.3,-1.2c0.1,-0.3 0,-0.6 -0.1,-0.8z" id="svg_117"/>
     <g id="mbruone">
      <path d="m219.5,127.4c-2.6,0 -5.1,0.8 -7.1,2.4c-0.3,0.3 -0.4,0.7 -0.4,1.2s0.2,0.8 0.4,1.2c0.3,0.3 0.8,0.5 1.2,0.5c0.4,0 0.8,-0.2 1.1,-0.5c1.4,-1 3.1,-1.5 4.8,-1.5c0.4,0 0.8,-0.2 1.1,-0.5s0.4,-0.7 0.4,-1.2c0,-0.4 -0.2,-0.8 -0.4,-1.2c-0.3,-0.2 -0.7,-0.4 -1.1,-0.4z" id="svg_118"/>
      <path d="m231.5,124.1c-2.5,-0.4 -5.1,0 -7.3,1.3c-0.3,0.3 -0.5,0.6 -0.6,1.1c-0.1,0.4 0,0.9 0.3,1.2c0.3,0.3 0.7,0.6 1.1,0.6c0.4,0.1 0.9,0 1.2,-0.3c1.5,-0.8 3.2,-1 4.9,-0.7c0.4,0.1 0.8,-0.1 1.2,-0.3c0.3,-0.3 0.5,-0.6 0.6,-1.1c0.1,-0.4 0,-0.9 -0.3,-1.2c-0.3,-0.3 -0.7,-0.6 -1.1,-0.6z" id="svg_119"/>
     </g>
     <g id="meyeone">
      <path d="m220.4,135.3c0,1.1 -0.9,1.9 -1.9,1.9c-1.1,0 -1.9,-0.9 -1.9,-1.9s0.9,-1.9 1.9,-1.9c0.5,0 0.9,0.2 1.3,0.5c0.4,0.2 0.6,0.8 0.6,1.4z" id="svg_120"/>
     </g>
     <g id="meyetwo">
      <path d="m231.2,131.8c0,1.1 -0.9,1.9 -1.9,1.9c-1.1,0 -1.9,-0.9 -1.9,-1.9c0,-0.7 0.3,-1.3 0.9,-1.6c0.3,-0.2 0.7,-0.3 1.1,-0.3c1,0 1.8,0.9 1.8,1.9z" id="svg_121"/>
     </g>
     <path d="m235.1,122.4c-0.1,0 -0.1,0.1 -0.2,0.1c-1.1,-6.1 -3.3,-11.7 -6.3,-16.2c-1.5,-2.2 -3.2,-4.1 -5.1,-5.4c-2,-1.4 -4,-2.3 -6.1,-2.8c-2.3,-0.7 -4.6,-0.7 -6.9,-0.2c-1.9,0.5 -3.7,1.4 -5.5,2.5c-3.4,2.1 -6.7,5.1 -8.7,9.9c-2,5.1 -2.9,11.2 -2.5,17.5c-0.8,0.3 -1.5,1.1 -1.9,2.1c-0.4,1.1 -0.6,2.4 -0.4,3.7l1.7,13.4c0.2,1.3 0.6,2.5 1.2,3.4c0.6,0.9 1.4,1.5 2.2,1.7c0,0.1 0,0.2 0,0.3c1.2,4.1 3,7.9 5.2,10.8c2.2,3 4.9,5.1 7.7,6.3c0.5,0.2 0.9,0.3 1.4,0.4l0.1,1c0,0.3 0.2,0.6 0.3,0.8c0.2,0.2 0.4,0.3 0.6,0.3l3.1,-0.4c0.2,0 0.3,-0.2 0.5,-0.4c0.1,-0.2 0.1,-0.5 0.1,-0.8l-0.1,-1c0,-0.3 -0.2,-0.6 -0.3,-0.8c-0.2,-0.2 -0.4,-0.3 -0.6,-0.3l-3.1,0.4c-0.1,0 -0.2,0.1 -0.3,0.2c-2.9,-0.7 -5.8,-2.7 -8.2,-5.6s-4.4,-6.8 -5.6,-11.1l0,0c0.9,-0.1 1.7,-0.8 2.3,-2c0.5,-1.1 0.7,-2.5 0.5,-4l-1.7,-13.4c-0.2,-1.4 -0.7,-2.7 -1.4,-3.7c-0.8,-0.9 -1.7,-1.5 -2.6,-1.4c-0.3,-5.3 0.4,-10.5 1.8,-15c0.8,-2.3 1.8,-4.4 3.1,-6c1.4,-1.7 3,-3.2 4.6,-4.3c3.5,-2.4 7.4,-4.1 11.5,-3.5c2.1,0.3 4.2,1 6.3,2.1c1.8,1.1 3.5,2.6 5,4.5c3.6,4.5 6,10.7 7.3,17.3c-0.7,0.4 -1.3,1.2 -1.6,2.2c-0.3,1 -0.5,2.2 -0.3,3.5l1.7,13.4c0.1,0.7 0.3,1.5 0.5,2.1c0.3,0.7 0.6,1.3 1,1.7c0.4,0.5 0.8,0.9 1.3,1.1c0.5,0.2 0.9,0.3 1.4,0.2c0.5,-0.1 0.9,-0.3 1.3,-0.6c0.4,-0.3 0.7,-0.8 1,-1.4s0.4,-1.2 0.5,-1.9c0.1,-0.7 0.1,-1.4 0,-2.2l-1.7,-13.4c-0.2,-1.5 -0.7,-2.8 -1.5,-3.8c-0.7,-0.9 -1.7,-1.4 -2.6,-1.3z" id="svg_122"/>
     <g id="mmouthone">
      <path class="st33" d="m221,149.2l11.4,-1.3c-1.3,6.3 -11.4,1.3 -11.4,1.3z" id="svg_123"/>
     </g>
     <g id="cartopa">
      <g id="dotchart">
       <g id="svg_124">
        <path class="st2" d="m302.1,238l121.5,0c10.3,0 18.6,-8.3 18.6,-18.6l0,-72.7c0,-10.3 -8.3,-18.6 -18.6,-18.6l-121.5,0c-10.3,0 -18.6,8.3 -18.6,18.6l0,72.7c0.1,10.3 8.4,18.6 18.6,18.6z" id="svg_125"/>
        <path class="st16" d="m283.6,136.8l0,-4.5c0,-2.3 1.9,-4.2 4.2,-4.2l150.2,0c2.3,0 4.2,1.9 4.2,4.2l0,4.5l-158.6,0z" id="svg_126"/>
       </g>
       <g id="svg_127">
        <g id="svg_128">
         <g id="svg_129">
          <rect x="299.7" y="153" class="st17" width="126.4" height="61" id="svg_130"/>
          <rect id="progress" x="299.7" y="144.2" class="st14" width="126.4" height="3.2"/>
          <g class="st18" id="svg_131">
           <g id="svg_132">
            <g id="svg_133">
             <rect x="320.1" y="153" class="st2" width="1.4" height="61" id="svg_134"/>
            </g>
            <g id="svg_135">
             <rect x="341.1" y="153" class="st2" width="1.4" height="61" id="svg_136"/>
            </g>
            <g id="svg_137">
             <rect x="362.2" y="153" class="st2" width="1.4" height="61" id="svg_138"/>
            </g>
            <g id="svg_139">
             <rect x="383.3" y="153" class="st2" width="1.4" height="61" id="svg_140"/>
            </g>
            <g id="svg_141">
             <rect x="404.3" y="153" class="st2" width="1.4" height="61" id="svg_142"/>
            </g>
           </g>
           <g id="svg_143">
            <g id="svg_144">
             <rect x="299.7" y="165.4" class="st2" width="126.4" height="1.4" id="svg_145"/>
            </g>
            <g id="svg_146">
             <rect x="299.7" y="177.4" class="st2" width="126.4" height="1.4" id="svg_147"/>
            </g>
            <g id="svg_148">
             <rect x="299.7" y="189.4" class="st2" width="126.4" height="1.4" id="svg_149"/>
            </g>
            <g id="svg_150">
             <rect x="299.7" y="201.4" class="st2" width="126.4" height="1.4" id="svg_151"/>
            </g>
           </g>
          </g>
         </g>
         <g id="svg_152">
          <polygon class="st2" points="299.7,200.6 332.1,176 362.9,201.5 404.2,165 405.8,166.7 362.9,204.5 332,178.9 299.7,203.5              " id="svg_153"/>
         </g>
        </g>
        <ellipse class="st2 dotone" cx="331.8" cy="178" rx="3.3" ry="3.3" id="svg_154"/>
        <ellipse class="st2 dotthree" cx="362.9" cy="202.6" rx="3.3" ry="3.3" id="svg_155"/>
        <ellipse class="st2 dottwo" cx="405" cy="166" rx="3.3" ry="3.3" id="svg_156"/>
       </g>
       <polygon class="st9" points="416.8,219.4 426.1,227.7 407.6,227.7  " id="svg_157"/>
       <polyline class="st15" points="394,227.7 384.7,219.4 403.2,219.4 394,227.7  " id="svg_158"/>
       <g id="svg_159">
        <path class="st14 dotthree" d="m336.4,229l0.2,0c3,0 5.4,-2.4 5.4,-5.4l0,0c0,-3 -2.4,-5.4 -5.4,-5.4l-0.2,0c-3,0 -5.4,2.4 -5.4,5.4l0,0c0,2.9 2.4,5.4 5.4,5.4z" id="svg_160"/>
        <path class="st14 dottwo" d="m320.8,229l0.2,0c3,0 5.4,-2.4 5.4,-5.4l0,0c0,-3 -2.4,-5.4 -5.4,-5.4l-0.2,0c-3,0 -5.4,2.4 -5.4,5.4l0,0c0,2.9 2.4,5.4 5.4,5.4z" id="svg_161"/>
        <path class="st14 dotone" d="m305.1,229l0.2,0c3,0 5.4,-2.4 5.4,-5.4l0,0c0,-3 -2.4,-5.4 -5.4,-5.4l-0.2,0c-3,0 -5.4,2.4 -5.4,5.4l0,0c0,2.9 2.4,5.4 5.4,5.4z" id="svg_162"/>
       </g>
      </g>
     </g>
    </g>
   </g>
  </g>
  <g id="mobiletwo">
   <path class="st3" d="m656.5,398.1l0,0c5.1,-0.8 9.6,-5.8 10.3,-11.9l50.9,-305.2c0,-0.3 0.1,-0.6 0.1,-0.9c0,-0.1 0,-0.2 0,-0.3c0,-0.2 0,-0.4 0,-0.6c0,-0.1 0,-0.2 0,-0.3c0,-0.2 0,-0.4 0,-0.5s0,-0.2 0,-0.3c0,-0.1 0,-0.3 -0.1,-0.4c0,-0.3 -0.1,-0.5 -0.1,-0.7c0,-0.1 0,-0.2 -0.1,-0.3c-0.1,-0.3 -0.2,-0.6 -0.3,-0.9c0,0 0,-0.1 -0.1,-0.1c-0.1,-0.3 -0.2,-0.5 -0.3,-0.8c0,-0.1 -0.1,-0.2 -0.1,-0.3c-0.1,-0.2 -0.2,-0.4 -0.3,-0.6c-0.1,-0.1 -0.1,-0.2 -0.2,-0.2c-0.2,-0.2 -0.3,-0.4 -0.5,-0.6c0,0 0,-0.1 -0.1,-0.1c-0.2,-0.2 -0.4,-0.5 -0.6,-0.7c-0.1,-0.1 -0.1,-0.1 -0.2,-0.2c-0.2,-0.1 -0.3,-0.3 -0.5,-0.4c-0.1,-0.1 -0.2,-0.1 -0.2,-0.2c-0.2,-0.1 -0.4,-0.2 -0.6,-0.4c-0.1,0 -0.1,-0.1 -0.2,-0.1c-0.2,-0.1 -0.3,-0.2 -0.5,-0.2c-0.1,0 -0.2,-0.1 -0.2,-0.1c-0.2,-0.1 -0.5,-0.2 -0.8,-0.3l0,0l0,0l0,0l7.2,2.1c0.3,0.1 0.5,0.2 0.8,0.3c0.1,0 0.2,0.1 0.2,0.1c0.2,0.1 0.3,0.1 0.5,0.2c0,0 0,0 0.1,0l0.1,0.1c0.2,0.1 0.4,0.2 0.6,0.4c0.1,0.1 0.2,0.1 0.2,0.2c0.2,0.1 0.3,0.3 0.5,0.4c0.1,0.1 0.1,0.1 0.2,0.2c0.2,0.2 0.4,0.4 0.6,0.7c0,0 0,0.1 0.1,0.1c0.2,0.2 0.3,0.4 0.5,0.7c0.1,0.1 0.1,0.2 0.2,0.2c0.1,0.2 0.2,0.4 0.3,0.6c0,0.1 0.1,0.2 0.1,0.3c0.1,0.2 0.2,0.5 0.3,0.8c0,0 0,0.1 0.1,0.1c0.1,0.3 0.2,0.6 0.3,0.9c0,0.1 0,0.2 0.1,0.3c0.1,0.2 0.1,0.5 0.1,0.7c0,0.1 0,0.1 0,0.2s0,0.2 0,0.2c0,0.1 0,0.2 0,0.3c0,0.2 0,0.4 0,0.5s0,0.2 0,0.3c0,0.2 0,0.4 0,0.6c0,0.1 0,0.2 0,0.3c0,0.3 0,0.6 -0.1,0.9l-50.8,305.6c-0.8,6.6 -6,12 -11.6,12l-124.6,0.2c-0.9,0 -1.8,-0.2 -2.7,-0.5l-7,-2.5c0.8,0.3 1.7,0.5 2.7,0.5l125.7,-0.4z" id="svg_163"/>
   <g id="svg_164">
    <path class="st2" d="m582.6,90c0.3,-2.1 2,-3.9 3.8,-4l122,-6.5c1.9,-0.1 3.2,1.6 2.9,3.7l-50.6,301.1c-0.3,2.2 -2,4.1 -3.9,4.1l-124,0.6c-1.8,0 -3.1,-1.8 -2.8,-4l52.6,-295z" id="svg_165"/>
   </g>
   <g id="svg_166">
    <path class="st7" d="m708.6,79.5c1.9,-0.1 3.2,1.6 2.9,3.7l-50.6,301.1c-0.3,2.2 -2,4.1 -3.9,4.1l-124,0.6c-1.8,0 -3.1,-1.8 -2.8,-4l178.4,-305.5z" id="svg_167"/>
   </g>
   <g class="st8" id="svg_168">
    <path class="st6" d="m586.3,86l122,-6.5c1.9,-0.1 3.2,1.6 2.9,3.7l-2.9,17.2l-128.4,4l2.6,-14.5c0.3,-2 2,-3.8 3.8,-3.9z" id="svg_169"/>
   </g>
   <path d="m523,386.9c-0.8,6.5 2.8,11.7 8.2,11.7l124.5,-0.3c5.6,0 10.8,-5.4 11.6,-12l50.9,-305.2c0.8,-6.3 -3.1,-11.2 -8.6,-10.9l-122.4,6.7c-5.3,0.3 -10.3,5.5 -11.1,11.7l-53.1,298.3zm7,-1.9l52.6,-295c0.3,-2.1 2,-3.9 3.8,-4l122,-6.5c1.9,-0.1 3.2,1.6 2.9,3.7l-50.6,301.1c-0.3,2.2 -2,4.1 -3.9,4.1l-124,0c-1.8,0.1 -3.1,-1.2 -2.8,-3.4z" id="svg_170"/>
   <g id="wenopa">
    <g id="womanonets">
     <g id="whandl">
      <path class="st34" d="m491.6,188.1c-0.3,-4 -0.6,-7.4 -0.9,-10c-0.6,-4.9 7.7,-11.2 8.3,-7.5c0.8,5.4 2.8,9.9 4.4,13.3c-4,1.4 -7.9,2.8 -11.8,4.2z" id="svg_171"/>
      <path class="st24" d="m502.7,180.4c0.9,2.9 13.8,31.7 17.6,38.9c18.9,-6.6 27.4,-19.1 41.8,-28.1c14.7,-8.8 31.9,22 17.1,30.6c-17.9,10 -47.6,27.8 -68.4,25.5c-6.8,-1.1 -10.2,-7.6 -11.9,-13.4c-2.9,-9.3 -7.5,-37.2 -8.6,-48.5c0.1,0.1 12.3,-5 12.4,-5z" id="svg_172"/>
      <path class="st22" d="m515.5,236.2c5.6,-0.8 11.1,-2.6 16.2,-5.1c2.8,-1.3 5.3,-2.9 7.8,-4.8c3,-2.4 5.4,-5.3 7.7,-8.3c4.2,-5.6 7.5,-11.8 11.7,-17.4c1.6,-2 0.5,-5 -1.3,-6.4c1.4,-1 2.9,-2.1 4.5,-3c14.7,-8.8 31.9,22 17.1,30.6c-17.9,10 -47.6,27.8 -68.4,25.5c-6.2,-1 -9.5,-6.4 -11.3,-11.7c5.1,1.6 10.7,1.4 16,0.6z" id="svg_173"/>
      <g id="svg_174">
       <g id="svg_175">
        <path class="st34" d="m501.3,177.8c1.3,-4.9 1.3,-19.2 0.5,-20.5s-8.6,-3 -12.2,2.6s-3.1,14 -2.5,17c0.8,3.6 4.8,5.8 6.4,5.3c4.8,-1.3 7.1,-1.9 7.8,-4.4z" id="svg_176"/>
        <path class="st34" d="m487.5,146c5.2,5.6 6.7,9.2 8.9,12.6c0.9,1.3 6.9,1 5.2,-1.7c-0.5,-0.9 -1.2,-2 -1.8,-2.8c-3.4,-4.5 -7.4,-8.5 -11.6,-12.3c-1.7,-1.6 -2.7,2 -0.7,4.2z" id="svg_177"/>
        <path class="st25" d="m488.1,145c1.2,2.5 3.4,4.5 5.2,6.6c0.8,1 1.5,2.1 2.1,3.2c0.5,1.3 0.9,2.7 1.3,4l0,0c-0.1,-0.1 -0.2,-0.2 -0.3,-0.3c-2.2,-3.4 -3.8,-6.9 -8.9,-12.6c-1.4,-1.5 -1.3,-3.7 -0.6,-4.4c0.2,1.3 0.6,2.4 1.2,3.5z" id="svg_178"/>
       </g>
       <path class="st34" d="m485.2,159.4c0.1,0 0.1,0 0.2,0.1c0.3,1 0.6,2 1.2,2.9c0.5,0.8 1.1,1.6 1.8,2.2c-0.1,0 -0.1,0 -0.2,0l1.1,2.9c0.6,1.5 -1.7,2.6 -2.5,1.2l-3.8,-6.1c-1.1,-1.7 0.4,-3.7 2.2,-3.2z" id="svg_179"/>
       <path class="st25" d="m488.2,169.1c1.3,-1.1 -3.2,-7.8 -4.1,-9c-0.1,-0.2 -0.2,-0.4 -0.4,-0.6c0.4,-0.2 0.9,-0.3 1.4,-0.1c0.1,0 0.1,0 0.2,0.1c0.3,1 0.6,2 1.2,2.9c0.5,0.8 1.1,1.6 1.8,2.2c-0.1,0 -0.1,0 -0.2,0l1.1,2.9c0.4,0.7 -0.2,1.4 -1,1.6z" id="svg_180"/>
       <path class="st34" d="m486.5,156.1c0.2,0.1 0.5,0.1 0.8,0.2c0.3,1 0.6,2 1.1,2.8c0.5,0.9 1.2,1.6 2,2.3c-0.3,-0.1 -0.6,-0.1 -0.8,-0.2l1.1,2.9c0.6,1.5 -1.7,2.6 -2.5,1.2l-3.8,-6.1c-1.1,-1.6 0.4,-3.6 2.1,-3.1z" id="svg_181"/>
       <path class="st25" d="m489.4,165.8c0.9,-0.7 0.2,-1.9 -0.3,-3.1c-0.2,-0.6 -2.9,-4.6 -3.1,-5c-0.3,-0.5 -0.7,-1 -1.1,-1.5c0.4,-0.3 1,-0.4 1.6,-0.2c0.2,0.1 0.5,0.1 0.8,0.2c0.3,1 0.6,2 1.1,2.8c0.5,0.9 1.2,1.6 2,2.3c-0.3,-0.1 -0.6,-0.1 -0.8,-0.2l1.1,2.9c0.2,0.9 -0.5,1.7 -1.3,1.8z" id="svg_182"/>
       <path class="st34" d="m487.8,152.9c1.7,0.4 4.3,1 5.9,1.4c3.7,0.6 6.5,8.5 -1.3,4c-0.3,-0.2 -1.2,-0.3 -1.6,-0.4l1.1,2.9c0.6,1.5 -1.7,2.6 -2.5,1.2l-3.8,-6.1c-1.1,-1.4 0.4,-3.5 2.2,-3z" id="svg_183"/>
       <path class="st25" d="m487.9,154.8c3,0.8 6.9,2.1 7,2.2c3.7,3.3 4,5.4 4.3,6.4c-0.5,0.7 -3.9,-3.5 -6.8,-5.1c-0.3,-0.2 -1.2,-0.3 -1.6,-0.4l1.1,2.9c0.4,1.1 -0.7,2 -1.6,1.8c1.8,-1.1 -2.1,-3 -3.2,-5.3c-0.5,-0.9 -0.1,-1.9 0.8,-2.5z" id="svg_184"/>
       <path class="st34" d="m501.7,170.5c0,0 -2.1,-6.9 -3.6,-8.8c-1.5,-1.9 -3.3,-3.9 -4,-4.3c-0.5,-0.3 -5.5,-1.9 -5.5,-1.9c-0.5,-0.2 -0.8,-0.1 -1.1,0.4c-0.3,0.8 -0.5,2 0.9,3.1c2.2,1.8 3.9,2.7 3.9,2.7l0.8,5.4c0,0 -0.4,10.8 6,9.7c3.7,-0.6 2.6,-6.3 2.6,-6.3z" id="svg_185"/>
       <path class="st25" d="m491.9,160.7c0.6,0.4 1.2,0.7 1.8,1c0,0.3 0,0.6 0,0.9c0.2,2.1 0.1,4.1 0.4,6.1c0.2,1.6 0.6,3.1 0.9,4.7c0.2,0.9 0.4,1.8 0.8,2.6c-2.8,-2.4 -2.5,-8.8 -2.5,-8.8l-0.8,-5.4c0,0 -1.7,-0.9 -3.9,-2.7c-0.5,-0.4 -0.8,-0.8 -0.9,-1.2c0.3,0.4 3.2,2.2 4.2,2.8z" id="svg_186"/>
      </g>
     </g>
     <path class="st35" d="m559.8,389c2.7,-15.9 7.8,-48.5 6.7,-63.3l73.3,-22.8c0,0 5.9,22.3 7.8,34.5c1.4,8.9 3.4,37 4.4,51.6l-92.2,0l0,0z" id="svg_187"/>
     <path class="st25" d="m635.4,389c2,-6.8 3.3,-13.8 3.5,-20.8c0.3,-10.7 -2.5,-21.9 -9.7,-30c-6.3,-7.1 -16.1,-10.5 -25.3,-12.2c-8,-1.5 -16.2,-2 -24.1,-4c-0.2,-0.1 -0.4,-0.1 -0.6,-0.1l60.7,-18.9c0,0 5.9,22.3 7.8,34.5c1.4,8.9 3.4,37 4.4,51.6l-16.7,0l0,-0.1z" id="svg_188"/>
     <g id="svg_189">
      <path class="st9" d="m553.4,202.4c1.4,-7.5 4.2,-12.4 26.9,-18.1c6.8,-1.7 11.3,-3.8 16.6,-3.1c18.4,2.6 34.5,7.9 32.9,18.8c-2.6,18.3 -6.4,53.4 -6,67.9c0.2,8.7 17.4,29.8 17.8,43c0,0 -7.2,8.7 -18.1,13.1c-27.1,11 -58.8,0.7 -58.8,0.7s-6,-47.8 -8.1,-67.3c0,0 -11.4,-4.9 -9,-20.7c1.2,-6.6 4.3,-25.9 5.8,-34.3z" id="svg_190"/>
      <path class="st24" d="m597,192c0.9,-2 2.6,-9.7 2.9,-10.3c16.4,2.8 31.4,8.4 30,18.4c-2.6,18.3 -3.6,53.4 -3.2,67.9c0.2,8.7 18.9,42.1 19.3,55.3c0,0 -7.2,8.7 -18.1,13.1c-7.9,3.2 -16.2,4.6 -24,5c-0.1,-2.4 -8.7,-44.6 -11.9,-57c-3,-11.4 -6.7,-22.8 -7.8,-34.5c-2.3,-20.9 7.3,-44.9 12.8,-57.9z" id="svg_191"/>
      <path class="st24" d="m547.7,236.9c1,-6.7 4.2,-26.1 5.7,-34.4c1.1,-6 3.1,-11 17.6,-15.4c-6.7,13 -8.3,15.9 -11.2,54.6c-0.7,9.6 1.8,19.2 3.9,28.6c3.7,16.8 14.4,66.6 14.5,70.1c-8.6,-1.3 -14.3,-3.1 -14.3,-3.1s-6.8,-56.5 -8.9,-76c0,-0.2 -9.7,-8.7 -7.3,-24.4z" id="svg_192"/>
      <path class="st34" d="m574.7,171.5c0.6,-3.1 5.9,-7.7 9.2,-8c4.1,-0.4 6.5,1.5 8.5,8.8c1.6,5.9 3.8,9 3.8,9c-1.2,6.6 -9.4,9.9 -16.4,8.9c-2.8,-0.4 -5.6,-1.4 -5.5,-4.2c0,-0.2 0.4,-14.5 0.4,-14.5z" id="svg_193"/>
      <path class="st25" d="m589.3,170.1c-0.4,2.4 -1,4.8 -1.8,7.1c-0.5,1 -1.1,2 -1.7,2.9c-0.6,0.7 -1.3,1.4 -2,2c-0.9,0.6 -1.8,1.1 -2.8,1.6c-1.8,0.6 -3.7,1.1 -5.5,1.4c-0.4,0 -0.7,0.1 -1.1,0.1c0.1,-2.7 0.4,-13.8 0.4,-13.8c0.6,-3.1 5.9,-7.7 9.2,-8c2.4,-0.2 4.2,0.3 5.6,2.1c0,1.6 -0.1,3.1 -0.3,4.6z" id="svg_194"/>
      <path class="st36" d="m616.9,136.2c4.7,8 -4.4,28.3 -12.6,22.2c-10.5,-7.8 -2.3,-24.4 -2.3,-24.4s10.2,-5.8 14.9,2.2z" id="svg_195"/>
      <path class="st37" d="m600.3,142.9c3.1,2 6.9,2.2 10.3,0.9c2.9,-1.1 5.3,-3.6 6.3,-6.5c0.1,-0.2 0.1,-0.4 0.2,-0.6c3.9,8.3 -4.9,27.5 -12.9,21.6c-5.6,-4.2 -5.9,-10.9 -4.9,-16.2c0.3,0.3 0.7,0.6 1,0.8z" id="svg_196"/>
      <path class="st34" d="m607.3,136c6,10.5 -16.4,35.2 -16.4,35.2s-12.1,13.9 -26.1,5.7c-14.4,-8.4 3,-47.6 3,-47.6s34.8,-1.5 39.5,6.7z" id="svg_197"/>
      <path class="st36" d="m592.4,170.9l0,0c0,0 -0.1,0.1 0,0z" id="svg_198"/>
      <path class="st36" d="m572.5,123.3c11.8,-3.5 20.8,-1.9 30.5,5.4c11,8.3 5.9,27.7 -2.7,37.1c-6.2,6.8 -7.4,8.2 -7.6,8.5l-2.3,-9.4c2.2,1.3 5.6,-1.5 5.6,-7.9c0,-6.3 -8.3,0.5 -8.3,0.5s1.8,-8.4 0.2,-12.5c-1.5,-4.1 -22.9,-8.2 -22.9,-8.2s-3.9,-10.2 7.5,-13.5z" id="svg_199"/>
      <path class="st37" d="m596,157c0,-0.4 0,-0.8 -0.1,-1.1c1.6,-0.8 3.1,-1.8 4.4,-3.1c2.9,-2.9 4.4,-5.7 5.1,-9.7c0.9,-4.9 0,-10.4 -2.7,-14.7c0.1,0.1 0.2,0.1 0.3,0.2c11,8.3 5.9,27.7 -2.7,37.1c-6.2,6.8 -7.4,8.2 -7.6,8.5l-2.3,-9.4c2.2,1.4 5.7,-1.4 5.6,-7.8z" id="svg_200"/>
      <path class="st37" d="m588.5,156.5c0.1,0 0.2,0.1 0.4,0.1c-0.7,0.5 -1.2,0.9 -1.2,0.9s0.1,-0.5 0.2,-1.2c0.2,0.1 0.4,0.2 0.6,0.2z" id="svg_201"/>
     </g>
     <g id="whandr">
      <path class="st25" d="m546.2,293.5c3.2,-0.1 6.4,-0.7 9.3,-1.7c2.7,-0.9 4.7,-2.4 6.2,-4.7c0.2,-0.3 0.3,-0.5 0.5,-0.8c2,-0.4 4.1,-0.8 6.1,-1.1c0.4,-0.1 0.7,-0.2 1.1,-0.3c0.1,0.1 0.1,0.1 0.2,0.2c0.1,0.1 0.2,0.2 0.3,0.3c0.1,0.2 0.4,0.6 0.5,0.7l0,0c0,0.1 0.1,0.2 0.1,0.3c0.1,0.3 0.3,0.7 0.3,0.8c0,0.1 0,0.2 0.1,0.2c-2.4,0.3 -4.9,0.6 -7.5,0.9l-0.1,0c-2.9,7.1 -14.5,7.5 -17.6,7.3l-4.2,1.4c-0.3,0.1 -0.5,0.1 -0.8,0.1c-0.8,0 -1.5,-0.4 -2,-1c2.6,-0.6 5,-1.4 7.5,-2.6z" id="svg_202"/>
      <g id="svg_203">
       <path class="st22" d="m592.1,287.9c-6.6,1.6 -3.5,1.1 -9.8,3.3c-5.4,1.9 -11,3.2 -16.7,4.3c-0.8,0.1 -1.6,0.2 -2.4,0.2c-0.7,-7.5 -1.5,-15.6 -2.3,-23c1.4,0.2 2.7,0.4 3.9,0.5c3.6,0.3 5.4,0.6 9,0.3c2.4,-0.2 7.2,-0.1 7.2,-0.1c2.3,-0.5 5.1,-2 7.3,-3c0.1,0 27.5,-12.1 29.9,-15.3c1.3,-1.8 1.9,-24.3 1.9,-29c0,-1 -0.3,-1.8 -0.8,-2.6c-0.1,-0.4 -0.2,-0.8 -0.5,-1.2c0.1,-1.8 0.1,-3.6 0.1,-5.4c0,-0.5 -0.1,-1 -0.2,-1.5c1.8,-0.4 3.3,-1.4 4.9,-2.6c2.6,-2.1 5.2,-4.2 7.8,-6.3c-2.4,19.2 -5.2,47.2 -4.9,59.8c0,1.5 0.5,3.3 1.4,5.3c-1.4,0.2 -2.9,0.5 -4.3,0.9c-5.2,1.3 -10.5,3.6 -14.4,7.5c-2.1,2.1 -11.5,1.7 -11.6,4.9l-5.5,3z" id="svg_204"/>
       <path class="st34" d="m539.5,282c0.7,-0.2 1.7,-0.5 2.4,-0.8l11,-3.3l0,0c0,0 2.9,-1.5 8.3,-1.7c4.2,-0.2 14.1,-0.4 17.7,0l0,0c2.9,-1 6.5,-2.1 10.5,-3.4c0.9,1.5 1.8,3 2.5,4.6c0.3,0.6 0.6,1.3 0.9,2c0,0.1 0.1,0.3 0.1,0.3c0.1,0.4 0.3,0.7 0.4,1.1c0.6,1.5 1.1,2.9 1.5,4.4c0.1,0.4 0.3,0.9 0.4,1.3c-4.4,0.5 -9.1,1.1 -14.2,1.7l-0.1,0c-2.9,7.1 -14.5,7.5 -17.6,7.3l-4.2,1.4c-0.3,0.1 -0.5,0.1 -0.8,0.1c-1.1,0 -2,-0.7 -2.3,-1.8c-0.3,-1.2 0.4,-2.5 1.6,-2.9l2.6,-0.9l-4.1,1c-0.3,0.1 -0.5,0.1 -0.8,0.1c-1,0 -2,-0.7 -2.3,-1.7c-0.3,-1.2 0.4,-2.4 1.6,-2.9l3.1,-1.1l-5.6,1.6c-0.3,0.1 -0.5,0.1 -0.8,0.1c-1,0 -2,-0.7 -2.3,-1.7c-0.3,-1.2 0.4,-2.4 1.6,-2.9l4.6,-1.6l-12.2,2.4c-0.2,0.1 -3.2,1.1 -4.3,-1.6c-0.1,-0.3 0.2,-0.9 0.8,-1.1z" id="svg_205"/>
       <path class="st24" d="m583.3,273.7c12.7,-4.2 30.8,-10.8 42.5,-15.8c-5.8,-17.7 -7.6,-34.5 -17.8,-50.1c-9.5,-17.6 16.3,-28.7 24.3,-8.9c2.3,4.3 4.2,8.7 5.9,13c5.4,14 12.5,29.2 16,43.7c1.7,7 4.7,16.5 -3.7,20.6c-15.6,7.7 -31.1,8.2 -63.2,12.1c-0.1,-0.7 -3.6,-13.7 -4,-14.6z" id="svg_206"/>
       <path class="st22" d="m606.8,280.2c3.3,-0.7 6.5,-1.6 9.8,-2.3c2.1,-0.5 4.3,-0.9 6.4,-1.5c5.1,-1.4 10.2,-3.4 14.1,-6.9c4.3,-3.9 5.8,-9.6 5.7,-15.3c-0.2,-10.7 -5,-20.7 -7.1,-31.1c-2.2,-10.4 -3.2,-21.4 -8,-31.1c1.8,1.7 3.4,4 4.6,7c2.3,4.3 4.2,8.7 5.9,13c5.4,14 12.5,29.2 16,43.7c1.7,7 4.7,16.5 -3.7,20.6c-15.6,7.7 -31.1,8.2 -63.2,12.1c0,-0.3 -0.6,-2.4 -1.2,-4.9c6.9,-0.9 13.8,-1.9 20.7,-3.3z" id="svg_207"/>
      </g>
     </g>
     <path class="st37" d="m600.9,181.9l-6.4,-4.5c0,0 -2.2,12.1 -14.7,12.6l4,10c0,0 14.5,-5.7 17.1,-18.1z" id="svg_208"/>
     <path class="st38" d="m600.9,181.9l-6.4,-4.5c0,0 -2.2,12.1 -14.7,12.6l4.4,7.7c0,0 11.3,-2.5 16.7,-15.8z" id="svg_209"/>
     <path class="st37" d="m574.4,181.9c0,0 0,7 5.4,8.2l-5.5,7.7c0,0 -3.9,-5.1 -3.3,-10.7l3.4,-5.2z" id="svg_210"/>
     <path class="st38" d="m574.4,181.9c0,0 0,7 5.4,8.2l-5.4,5.9c0,0 -3.3,-4.7 -3.3,-8.9l3.3,-5.2z" id="svg_211"/>
     <g id="weyeone">
      <path class="st32" d="m581.7,153.3c0,1.1 -0.9,2 -2,2s-2,-0.9 -2,-2s0.9,-2 2,-2c0.6,0 1.1,0.2 1.4,0.6c0.4,0.4 0.6,0.9 0.6,1.4z" id="svg_212"/>
     </g>
     <g id="weyetwo">
      <path class="st32" d="m568.4,149.9c0,1.1 -0.9,2 -2,2s-2,-0.9 -2,-2s0.9,-2 2,-2c0.4,0 0.8,0.1 1.1,0.3c0.5,0.4 0.9,1 0.9,1.7z" id="svg_213"/>
     </g>
     <g id="wbru">
      <path class="st32" d="m576.2,149.2c1.6,-0.3 3.1,-0.3 4.7,0.1c1.5,0.4 2.9,1.2 4.1,2.3c0.6,0.6 1.6,-0.4 0.9,-0.9c-1.3,-1.2 -2.9,-2.1 -4.7,-2.6s-3.6,-0.5 -5.3,-0.1c-0.9,0.1 -0.5,1.4 0.3,1.2z" id="svg_214"/>
      <path class="st32" d="m565.6,144c1.3,0 2.6,0.4 3.6,1.1c1.1,0.7 2,1.8 2.6,3.1c0.3,0.7 1.3,0 1,-0.7c-0.7,-1.5 -1.7,-2.7 -3,-3.5c-1.2,-0.8 -2.7,-1.3 -4.2,-1.3c-0.7,0 -0.7,1.3 0,1.3z" id="svg_215"/>
     </g>
     <path class="st39" d="m571.8,159.6l1.3,-3.3c0.3,-0.5 0.5,-1 0.6,-1.5c0,-0.5 -0.3,-0.6 -0.7,-0.8c-0.6,-0.3 -1.3,-0.5 -1.9,-0.7c-0.7,-0.1 -0.7,0.4 -1,1c-0.6,1.2 -1.1,2.5 -1.7,3.7c-0.2,0.3 -0.3,0.7 -0.2,1.1c0.1,0.6 0.7,0.9 1.3,1.2s1.3,0.5 1.8,0.1c0.2,-0.2 0.4,-0.5 0.5,-0.8z" id="svg_216"/>
     <g id="svg_217">
      <path d="m590.2,157.2l-1.7,4.4c-0.1,0.3 -0.2,0.6 -0.1,1c-1.6,3.5 -3.5,6.9 -5.7,10.1c-1.4,2.1 -3.2,4 -5.2,5.6c-1.7,1.6 -3.9,2.5 -6.3,2.7c-1.5,-0.1 -3,-0.3 -4.5,-0.7l-4.9,-1c-0.8,-0.2 -0.9,1.1 -0.2,1.2l4.5,0.9c1.4,0.4 2.9,0.6 4.4,0.8c2.4,0.1 4.7,-0.7 6.6,-2.1c4.3,-3 7.5,-7.7 9.9,-12.3c0.7,-1.3 1.4,-2.6 2,-4c0.2,0.2 0.5,0.3 0.8,0.3c0.3,0.1 0.6,0 0.8,-0.1c0.3,-0.1 0.5,-0.2 0.7,-0.4c0.2,-0.2 0.4,-0.4 0.5,-0.7l1.7,-4.4c0.1,-0.5 0.1,-0.9 -0.1,-1.4c-0.2,-0.4 -0.5,-0.8 -1,-1c-0.5,-0.2 -0.9,-0.2 -1.4,0c-0.3,0.3 -0.6,0.7 -0.8,1.1z" id="svg_218"/>
      <path d="m562,178.6l8.8,1.5c0.8,0.1 0.9,-1.1 0.2,-1.2l-8.8,-1.5c-0.8,-0.2 -0.9,1 -0.2,1.2z" id="svg_219"/>
     </g>
     <g id="wmouth">
      <path class="st33" d="m564.3,166.2l8.5,2.1c-7.8,4.8 -8.5,-2.1 -8.5,-2.1z" id="svg_220"/>
     </g>
     <g id="dotnetopa">
      <g id="dotnet">
       <path class="st14" d="m485.6,137.6l3.4,0c15.2,0 27.6,-12.4 27.6,-27.6l0,-2.5c0,-15.2 -12.4,-27.6 -27.6,-27.6l-3.4,0c-15.2,0 -27.6,12.4 -27.6,27.6l0,2.5c0,15.2 12.3,27.6 27.6,27.6z" id="svg_221"/>
      </g>
      <g id="svg_222">
       <g id="svg_223">
        <rect x="473.9" y="110.9" class="st2 dotone" width="6.1" height="12.5" id="svg_224"/>
        <rect x="484.3" y="100.4" class="st2 dottwo" width="6.1" height="23" id="svg_225"/>
        <rect x="494.6" y="89.5" class="st2 dotthree" width="6.1" height="33.9" id="svg_226"/>
       </g>
       <rect x="469.7" y="124.8" class="st2" width="35.2" height="3.1" id="svg_227"/>
      </g>
     </g>
    </g>
   </g>
  </g>
 </g>
</svg>