<svg width="800" height="449.99999999999994" xmlns="http://www.w3.org/2000/svg">
 <g>
  <title>background</title>
  <rect x="-1" y="-1" width="890.88889" height="502" id="canvas_background" fill="#fff"/>
 </g>

 <style type="text/css">.st0 {
			fill: #232323;
		}

		.st1 {
			opacity: 0.4;
		}

		.st2 {
			fill: #FFFFFF;
		}

		.st3 {
			fill: #040A10;
		}

		.st4 {
			fill: #DEE0E2;
		}

		.st5 {
			opacity: 0.1;
		}

		.st6 {
			fill: #003975;
		}

		.st7 {
			fill: #E4E5EA;
		}

		.st8 {
			opacity: 0.15;
		}

		.st9 {
			fill: #1CA79B;
		}

		.st10 {
			opacity: 0.8;
		}

		.st11 {
			opacity: 0.4;
			fill: #FFFFFF;
			enable-background: new;
		}

		.st12 {
			opacity: 0.7;
			fill: #FFFFFF;
			enable-background: new;
		}

		.st13 {
			opacity: 0.7;
		}

		.st14 {
			fill: #0097F8;
		}

		.st15 {
			fill: #FF5A33;
		}

		.st16 {
			fill: #273864;
		}

		.st17 {
			fill: #95C6EB;
		}

		.st18 {
			opacity: 0.5;
		}

		.st19 {
			fill: #ED9766;
		}

		.st20 {
			opacity: 7.000000e-02;
			enable-background: new;
		}

		.st21 {
			fill: #0D2B49;
		}

		.st22 {
			opacity: 0.2;
			enable-background: new;
		}

		.st23 {
			opacity: 7.000000e-02;
		}

		.st24 {
			fill: #081B2A;
		}

		.st25 {
			opacity: 0.1;
			enable-background: new;
		}

		.st26 {
			fill: #2B2B2B;
		}

		.st27 {
			fill: #E7E7E7;
		}

		.st28 {
			opacity: 0.3;
			enable-background: new;
		}

		.st29 {
			fill: #466874;
		}

		.st30 {
			fill: #004F80;
		}

		.st31 {
			fill: #DB855A;
		}

		.st32 {
			fill: #020202;
		}

		.st33 {
			opacity: 0.5;
			fill: #FFFFFF;
			enable-background: new;
		}

		.st34 {
			fill: #A66E4F;
		}

		.st35 {
			fill: #5F7485;
		}

		.st36 {
			fill: #362221;
		}

		.st37 {
			opacity: 0.15;
			enable-background: new;
		}

		.st38 {
			fill: #D9EDFF;
		}

		.st39 {
			fill: #B7866E;
		}

		#mbruone {
			animation: ab11 10s infinite;
		}

		/* Mady By 
Name:  Freelancer Tajul Rasel
Web and Graphic Desiner. (Map design and coding)
Web: https://freelancertajulrasel.com/nataliafiona
WhatsApp : +8801821010080
Mail: freelancertajulrasel@gmail.com
fiverr: https://fiverr.com/natalia_fiona
 */
		@keyframes ab11 {


			60% {
				transform: translate(0px, 0px);
			}



			65% {
				transform: translate(0px, -3px);
			}

			70% {
				transform: translate(0px, 0px);
			}


		}

		#meyeone&gt;path {
			animation: ab12 10s infinite;
		}

		@keyframes ab12 {




			60% {
				d: path("M 220.4 135.3 c 0 1.1 -0.9 1.9 -1.9 1.9 c -1.1 0 -1.9 -0.9 -1.9 -1.9 s 0.9 -1.9 1.9 -1.9 c 0.5 0 0.9 0.2 1.3 0.5 C 220.2 134.1 220.4 134.7 220.4 135.3 Z");
			}

			65% {
				d: path("M 220.4 135.3 c 0 1.1 -0.9 1.9 -1.9 1.9 c -1.1 0 -1.9 -0.9 -1.9 -1.9 s 0.9 0.1 1.9 0.1 C 219.6 135.3 220.4 134.2 220.4 135.3 Z");
			}

			70% {
				d: path("M 220.4 135.3 c 0 1.1 -0.9 1.9 -1.9 1.9 c -1.1 0 -1.9 -0.9 -1.9 -1.9 s 0.9 -1.9 1.9 -1.9 c 0.5 0 0.9 0.2 1.3 0.5 C 220.2 134.1 220.4 134.7 220.4 135.3 Z");
			}


		}

		#meyetwo&gt;path {
			animation: ab13 10s infinite;
		}

		@keyframes ab13 {




			60% {
				d: path("M 231.2 131.8 c 0 1.1 -0.9 1.9 -1.9 1.9 c -1.1 0 -1.9 -0.9 -1.9 -1.9 c 0 -0.7 0.3 -1.3 0.9 -1.6 c 0.3 -0.2 0.7 -0.3 1.1 -0.3 C 230.4 129.9 231.2 130.8 231.2 131.8 Z");
			}

			65% {
				d: path("M 231.2 131.8 c 0 1.1 -0.9 1.9 -1.9 1.9 c -1.1 0 -1.9 -0.9 -1.9 -1.9 s 0.9 0.7 1.9 0.7 C 230.4 132.6 231.2 130.8 231.2 131.8 Z");
			}

			70% {
				d: path("M 231.2 131.8 c 0 1.1 -0.9 1.9 -1.9 1.9 c -1.1 0 -1.9 -0.9 -1.9 -1.9 c 0 -0.7 0.3 -1.3 0.9 -1.6 c 0.3 -0.2 0.7 -0.3 1.1 -0.3 C 230.4 129.9 231.2 130.8 231.2 131.8 Z");
			}


		}

		#mmouthone&gt;path {
			animation: ab14 10s infinite;
    transform-box: fill-box;
    transform-origin: center;
		}

		@keyframes ab14 {


			70% {
				/* d: path("M 221.1 149.1 l 11.5 -1.4 C 230.9 160.1 221.1 149.1 221.1 149.1 Z"); */
					transform: scale(0.5);
			}



			80% {
				/* d: path("M 221 149.2 l 11.4 -1.3 C 231.1 154.2 221 149.2 221 149.2 Z"); */
				transform: scale(1.5);
			}

			90% {
				/* d: path("M 221.1 149.1 l 11.5 -1.4 C 230.9 160.1 221.1 149.1 221.1 149.1 Z"); */
				transform: scale(0.6);
			}
		100% {
				 
				transform: scale(1);
			}

		}

		#menlhand {
			animation: ab15 10s infinite alternate;
			transform-box: fill-box;
			transform-origin: left;
		}

		@keyframes ab15 {
			0% {
				transform: rotate(5deg);
			}

			60% {
				transform: rotate(5deg);
			}

			65% {
				transform: rotate(0deg);
			}
		}

		#handrm {
			animation: ab16 10s infinite alternate;
			transform-box: fill-box;
			transform-origin: top;
		}

		@keyframes ab16 {


			60% {
				transform: rotate(0deg);
			}

			70% {
				transform: rotate(-10deg);
			}

			80% {
				transform: rotate(0deg);
			}
		}

		.dotone {
			animation: ab17 1s infinite linear;
		}

		.dottwo {
			animation: ab17 2s infinite linear;
		}

		.dotthree {
			animation: ab17 3s infinite linear;
		}

		@keyframes ab17 {
			0% {
				opacity: 0;
			}

			100% {
				opacity: 1;
			}
		}

		#dotround {
			animation: ab18 10s linear infinite;
			transform-box: fill-box;
			transform-origin: center;
		}

		@keyframes ab18 {
			0% {
				transform: rotate(0turn);
			}

			100% {
				transform: rotate(1turn);
			}
		}

		.settingone {
			animation: ab18 8s linear infinite;
			transform-box: fill-box;
			transform-origin: center;
		}

		.settingtwo {
			animation: ab18 8s linear infinite reverse;
			transform-box: fill-box;
			transform-origin: center;
		}

		#progress {
			animation: ab20 5s linear infinite;
		}

		@keyframes ab20 {
			0% {
				width: 5px;
			}

			100% {}
		}

		#dotplus {
			animation: ab25 3s infinite alternate;
			transform-box: fill-box;
			transform-origin: center;
		}

		@keyframes ab25 {

			0% {}

			50% {
				transform: rotate(90deg);
			}
		}

		#dotmin {
			animation: ab26 3s infinite alternate;
			fill: white;
		}

		@keyframes ab26 {
			0% {}

			50% {
				opacity: 0;
			}
		}

		#whandr {
			animation: ab45 10s infinite;
			transform-box: fill-box;
			transform-origin: top
		}

		@keyframes ab45 {
			80% {
				transform: rotate(-6deg);
			}

			90% {
				transform: rotate(0deg);
			}
		}

		#whandl {
			animation: ab27 10s infinite;
			transform-box: fill-box;
			transform-origin: right;
		}

		@keyframes ab27 {
			0% {
				transform: rotate(-10deg);
			}

			25% {
				transform: rotate(-10deg);
			}

			30% {
				transform: rotate(0deg);
			}

			55% {
				transform: rotate(0deg);
			}

			65% {
				transform: rotate(-10deg);
			}

			100% {
				transform: rotate(-10deg);
			}
		}

		#whandl&gt;g {
			animation: ab27a 10s infinite;
			transform-box: fill-box;
			transform-origin: bottom;
		}

		@keyframes ab27a {
			22% {
				transform: rotate(0deg);
			}

			25% {
				transform: rotate(10deg);
			}

			30% {
				transform: rotate(45deg);
			}

			40% {
				transform: rotate(-10deg);
			}

			65% {
				transform: rotate(-10deg);
			}

			100% {
				transform: rotate(-10deg);
			}
		}

		#wbru {
			animation: ab28 10s infinite;
		}

		@keyframes ab28 {




			25% {
				transform: translate(0px, 0px);
			}

			30% {
				transform: translate(0px, -3px);
			}

			40% {
				transform: translate(0px, 0px);
			}





		}

		#weyetwo&gt;path {
			animation: ab29 10s infinite;
		}

		@keyframes ab29 {
			0% {}



			25% {
				d: path("M 568.4 149.9 c 0 1.1 -0.9 2 -2 2 s -2 -0.9 -2 -2 s 0.9 -2 2 -2 c 0.4 0 0.8 0.1 1.1 0.3 C 568 148.6 568.4 149.2 568.4 149.9 Z");
			}

			30% {
				d: path("M 568.4 150.3 c -0.2 1.1 -1.3 1.8 -2.4 1.6 s -1.8 -1.3 -1.6 -2.4 s 0.7 1.1 1.8 1.4 C 567.3 151.1 568.6 149.2 568.4 150.3 Z");
			}

			40% {
				d: path("M 568.4 149.9 c 0 1.1 -0.9 2 -2 2 s -2 -0.9 -2 -2 s 0.9 -2 2 -2 c 0.4 0 0.8 0.1 1.1 0.3 C 568 148.6 568.4 149.2 568.4 149.9 Z");
			}





		}

		#weyeone&gt;path {
			animation: ab30 10s infinite;
		}

		@keyframes ab30 {
			0% {}



			25% {
				d: path("M 581.7 153.3 c 0 1.1 -0.9 2 -2 2 s -2 -0.9 -2 -2 s 0.9 -2 2 -2 c 0.6 0 1.1 0.2 1.4 0.6 C 581.5 152.3 581.7 152.8 581.7 153.3 Z");
			}

			30% {
				d: path("M 581.7 153.8 c -0.4 1.5 -2.3 2.2 -3.6 0.8 c -0.3 -0.3 -0.4 -0.8 -0.4 -1.2 c 0.3 -2.4 1.2 0.8 3.1 -0.1 C 581.5 152.9 581.9 153.1 581.7 153.8 Z");
			}

			40% {
				d: path("M 581.7 153.3 c 0 1.1 -0.9 2 -2 2 s -2 -0.9 -2 -2 s 0.9 -2 2 -2 c 0.6 0 1.1 0.2 1.4 0.6 C 581.5 152.3 581.7 152.8 581.7 153.3 Z");
			}






		}

		#wmouth&gt;path {
			animation: ab33 10s infinite;
    transform-box: fill-box;
    transform-origin: center;
		}

		@keyframes ab33 {


			25% {
				/* d: path("M 564.3 166.2 l 8.5 2.1 C 565 173.1 564.3 166.2 564.3 166.2 Z"); */
				transform: scale(0.5);
			}

			30% {
				/* d: path("M 562.7 165.5 l 12.5 3 C 564.2 177.8 562.7 165.5 562.7 165.5 Z"); */
				    transform: scale(1.5);
			}

			40% {
				/* d: path("M 562.7 165.5 l 12.5 3 C 564.2 177.8 562.7 165.5 562.7 165.5 Z"); */
				transform: scale(0.6);
			}
			50% {
				 
				transform: scale(1);
			}
			60% {
				 
				transform: scale(0.5);
			}

		}

		#mobileone {
			animation: ab34 10s infinite;
		}

		@keyframes ab34 {
			0% {
				transform: translate(-279px, 0px);
			}

			20% {
				transform: translate(0px, 0px);
			}
		}

		#mobiletwo {
			animation: ab35 10s infinite;
		}

		@keyframes ab35 {
			0% {
				transform: translate(279px, 0px);
			}

			20% {
				transform: translate(0px, 0px);
			}
		}

		#menopa,
		#wenopa {
			animation: ab36 10s infinite;
		}

		@keyframes ab36 {
			0% {
				opacity: 0;
			}

			15% {
				opacity: 0;
			}

			20% {
				opacity: 1;
			}
		}

		#cartopa {
			animation: ab37 10s infinite;
		}

		@keyframes ab37 {
			0% {
				opacity: 0;
			}

			60% {
				opacity: 0;
			}

			65% {
				opacity: 1;
			}
		}

		#dotnetopa {
			animation: ab38 10s infinite;
		}

		@keyframes ab38 {
			0% {
				opacity: 0;
			}

			40% {
				opacity: 0;
			}

			45% {
				opacity: 1;
			}
		}

		#dottwoopa {
			animation: ab39 10s infinite;
		}

		@keyframes ab39 {
			0% {
				opacity: 0;
			}

			60% {
				opacity: 0;
			}

			70% {
				opacity: 1;
			}
		}

		#dotthreeopa {
			animation: ab40 10s infinite;
		}

		@keyframes ab40 {
			0% {
				opacity: 0;
			}

			50% {
				opacity: 0;
			}

			55% {
				opacity: 1;
			}
		}

		#dotseteopa {
			animation: ab41 10s infinite;
		}

		@keyframes ab41 {
			0% {
				opacity: 0;
			}

			55% {
				opacity: 0;
			}

			60% {
				opacity: 1;
			}
		}</style>
 <g>
  <title>Layer 1</title>
  <g id="whandl">
   <path id="svg_171" d="m492.71111,188.1c-0.3,-4 -0.6,-7.4 -0.9,-10c-0.6,-4.9 7.7,-11.2 8.3,-7.5c0.8,5.4 2.8,9.9 4.4,13.3c-4,1.4 -7.9,2.8 -11.8,4.2z" class="st34"/>
   <path id="svg_172" d="m503.81111,180.4c0.9,2.9 13.8,31.7 17.6,38.9c18.9,-6.6 27.4,-19.1 41.8,-28.1c14.7,-8.8 31.9,22 17.1,30.6c-17.9,10 -47.6,27.8 -68.4,25.5c-6.8,-1.1 -10.2,-7.6 -11.9,-13.4c-2.9,-9.3 -7.5,-37.2 -8.6,-48.5c0.1,0.1 12.3,-5 12.4,-5z" class="st24"/>
   <path id="svg_173" d="m516.61111,236.2c5.6,-0.8 11.1,-2.6 16.2,-5.1c2.8,-1.3 5.3,-2.9 7.8,-4.8c3,-2.4 5.4,-5.3 7.7,-8.3c4.2,-5.6 7.5,-11.8 11.7,-17.4c1.6,-2 0.5,-5 -1.3,-6.4c1.4,-1 2.9,-2.1 4.5,-3c14.7,-8.8 31.9,22 17.1,30.6c-17.9,10 -47.6,27.8 -68.4,25.5c-6.2,-1 -9.5,-6.4 -11.3,-11.7c5.1,1.6 10.7,1.4 16,0.6z" class="st22"/>
   <g id="svg_174">
    <g id="svg_175">
     <path id="svg_176" d="m502.41111,177.8c1.3,-4.9 1.3,-19.2 0.5,-20.5s-8.6,-3 -12.2,2.6s-3.1,14 -2.5,17c0.8,3.6 4.8,5.8 6.4,5.3c4.8,-1.3 7.1,-1.9 7.8,-4.4z" class="st34"/>
     <path id="svg_177" d="m488.61111,146c5.2,5.6 6.7,9.2 8.9,12.6c0.9,1.3 6.9,1 5.2,-1.7c-0.5,-0.9 -1.2,-2 -1.8,-2.8c-3.4,-4.5 -7.4,-8.5 -11.6,-12.3c-1.7,-1.6 -2.7,2 -0.7,4.2z" class="st34"/>
     <path id="svg_178" d="m489.21111,145c1.2,2.5 3.4,4.5 5.2,6.6c0.8,1 1.5,2.1 2.1,3.2c0.5,1.3 0.9,2.7 1.3,4l0,0c-0.1,-0.1 -0.2,-0.2 -0.3,-0.3c-2.2,-3.4 -3.8,-6.9 -8.9,-12.6c-1.4,-1.5 -1.3,-3.7 -0.6,-4.4c0.2,1.3 0.6,2.4 1.2,3.5z" class="st25"/>
    </g>
    <path id="svg_179" d="m486.31111,159.4c0.1,0 0.1,0 0.2,0.1c0.3,1 0.6,2 1.2,2.9c0.5,0.8 1.1,1.6 1.8,2.2c-0.1,0 -0.1,0 -0.2,0l1.1,2.9c0.6,1.5 -1.7,2.6 -2.5,1.2l-3.8,-6.1c-1.1,-1.7 0.4,-3.7 2.2,-3.2z" class="st34"/>
    <path id="svg_180" d="m489.31111,169.1c1.3,-1.1 -3.2,-7.8 -4.1,-9c-0.1,-0.2 -0.2,-0.4 -0.4,-0.6c0.4,-0.2 0.9,-0.3 1.4,-0.1c0.1,0 0.1,0 0.2,0.1c0.3,1 0.6,2 1.2,2.9c0.5,0.8 1.1,1.6 1.8,2.2c-0.1,0 -0.1,0 -0.2,0l1.1,2.9c0.4,0.7 -0.2,1.4 -1,1.6z" class="st25"/>
    <path id="svg_181" d="m487.61111,156.1c0.2,0.1 0.5,0.1 0.8,0.2c0.3,1 0.6,2 1.1,2.8c0.5,0.9 1.2,1.6 2,2.3c-0.3,-0.1 -0.6,-0.1 -0.8,-0.2l1.1,2.9c0.6,1.5 -1.7,2.6 -2.5,1.2l-3.8,-6.1c-1.1,-1.6 0.4,-3.6 2.1,-3.1z" class="st34"/>
    <path id="svg_182" d="m490.51111,165.8c0.9,-0.7 0.2,-1.9 -0.3,-3.1c-0.2,-0.6 -2.9,-4.6 -3.1,-5c-0.3,-0.5 -0.7,-1 -1.1,-1.5c0.4,-0.3 1,-0.4 1.6,-0.2c0.2,0.1 0.5,0.1 0.8,0.2c0.3,1 0.6,2 1.1,2.8c0.5,0.9 1.2,1.6 2,2.3c-0.3,-0.1 -0.6,-0.1 -0.8,-0.2l1.1,2.9c0.2,0.9 -0.5,1.7 -1.3,1.8z" class="st25"/>
    <path id="svg_183" d="m488.91111,152.9c1.7,0.4 4.3,1 5.9,1.4c3.7,0.6 6.5,8.5 -1.3,4c-0.3,-0.2 -1.2,-0.3 -1.6,-0.4l1.1,2.9c0.6,1.5 -1.7,2.6 -2.5,1.2l-3.8,-6.1c-1.1,-1.4 0.4,-3.5 2.2,-3z" class="st34"/>
    <path id="svg_184" d="m489.01111,154.8c3,0.8 6.9,2.1 7,2.2c3.7,3.3 4,5.4 4.3,6.4c-0.5,0.7 -3.9,-3.5 -6.8,-5.1c-0.3,-0.2 -1.2,-0.3 -1.6,-0.4l1.1,2.9c0.4,1.1 -0.7,2 -1.6,1.8c1.8,-1.1 -2.1,-3 -3.2,-5.3c-0.5,-0.9 -0.1,-1.9 0.8,-2.5z" class="st25"/>
    <path id="svg_185" d="m502.81111,170.5c0,0 -2.1,-6.9 -3.6,-8.8c-1.5,-1.9 -3.3,-3.9 -4,-4.3c-0.5,-0.3 -5.5,-1.9 -5.5,-1.9c-0.5,-0.2 -0.8,-0.1 -1.1,0.4c-0.3,0.8 -0.5,2 0.9,3.1c2.2,1.8 3.9,2.7 3.9,2.7l0.8,5.4c0,0 -0.4,10.8 6,9.7c3.7,-0.6 2.6,-6.3 2.6,-6.3z" class="st34"/>
    <path id="svg_186" d="m493.01111,160.7c0.6,0.4 1.2,0.7 1.8,1c0,0.3 0,0.6 0,0.9c0.2,2.1 0.1,4.1 0.4,6.1c0.2,1.6 0.6,3.1 0.9,4.7c0.2,0.9 0.4,1.8 0.8,2.6c-2.8,-2.4 -2.5,-8.8 -2.5,-8.8l-0.8,-5.4c0,0 -1.7,-0.9 -3.9,-2.7c-0.5,-0.4 -0.8,-0.8 -0.9,-1.2c0.3,0.4 3.2,2.2 4.2,2.8z" class="st25"/>
   </g>
  </g>
  <path id="svg_187" d="m560.91111,389c2.7,-15.9 7.8,-48.5 6.7,-63.3l73.3,-22.8c0,0 5.9,22.3 7.8,34.5c1.4,8.9 3.4,37 4.4,51.6l-92.2,0l0,0z" class="st35"/>
  <path id="svg_188" d="m636.51111,389c2,-6.8 3.3,-13.8 3.5,-20.8c0.3,-10.7 -2.5,-21.9 -9.7,-30c-6.3,-7.1 -16.1,-10.5 -25.3,-12.2c-8,-1.5 -16.2,-2 -24.1,-4c-0.2,-0.1 -0.4,-0.1 -0.6,-0.1l60.7,-18.9c0,0 5.9,22.3 7.8,34.5c1.4,8.9 3.4,37 4.4,51.6l-16.7,0l0,-0.1z" class="st25"/>
  <g id="svg_189">
   <path id="svg_190" d="m554.51111,202.4c1.4,-7.5 4.2,-12.4 26.9,-18.1c6.8,-1.7 11.3,-3.8 16.6,-3.1c18.4,2.6 34.5,7.9 32.9,18.8c-2.6,18.3 -6.4,53.4 -6,67.9c0.2,8.7 17.4,29.8 17.8,43c0,0 -7.2,8.7 -18.1,13.1c-27.1,11 -58.8,0.7 -58.8,0.7s-6,-47.8 -8.1,-67.3c0,0 -11.4,-4.9 -9,-20.7c1.2,-6.6 4.3,-25.9 5.8,-34.3z" class="st9"/>
   <path id="svg_191" d="m598.11111,192c0.9,-2 2.6,-9.7 2.9,-10.3c16.4,2.8 31.4,8.4 30,18.4c-2.6,18.3 -3.6,53.4 -3.2,67.9c0.2,8.7 18.9,42.1 19.3,55.3c0,0 -7.2,8.7 -18.1,13.1c-7.9,3.2 -16.2,4.6 -24,5c-0.1,-2.4 -8.7,-44.6 -11.9,-57c-3,-11.4 -6.7,-22.8 -7.8,-34.5c-2.3,-20.9 7.3,-44.9 12.8,-57.9z" class="st24"/>
   <path id="svg_192" d="m548.81111,236.9c1,-6.7 4.2,-26.1 5.7,-34.4c1.1,-6 3.1,-11 17.6,-15.4c-6.7,13 -8.3,15.9 -11.2,54.6c-0.7,9.6 1.8,19.2 3.9,28.6c3.7,16.8 14.4,66.6 14.5,70.1c-8.6,-1.3 -14.3,-3.1 -14.3,-3.1s-6.8,-56.5 -8.9,-76c0,-0.2 -9.7,-8.7 -7.3,-24.4z" class="st24"/>
   <path id="svg_193" d="m575.81111,171.5c0.6,-3.1 5.9,-7.7 9.2,-8c4.1,-0.4 6.5,1.5 8.5,8.8c1.6,5.9 3.8,9 3.8,9c-1.2,6.6 -9.4,9.9 -16.4,8.9c-2.8,-0.4 -5.6,-1.4 -5.5,-4.2c0,-0.2 0.4,-14.5 0.4,-14.5z" class="st34"/>
   <path id="svg_194" d="m590.41111,170.1c-0.4,2.4 -1,4.8 -1.8,7.1c-0.5,1 -1.1,2 -1.7,2.9c-0.6,0.7 -1.3,1.4 -2,2c-0.9,0.6 -1.8,1.1 -2.8,1.6c-1.8,0.6 -3.7,1.1 -5.5,1.4c-0.4,0 -0.7,0.1 -1.1,0.1c0.1,-2.7 0.4,-13.8 0.4,-13.8c0.6,-3.1 5.9,-7.7 9.2,-8c2.4,-0.2 4.2,0.3 5.6,2.1c0,1.6 -0.1,3.1 -0.3,4.6z" class="st25"/>
   <path id="svg_195" d="m618.01111,136.2c4.7,8 -4.4,28.3 -12.6,22.2c-10.5,-7.8 -2.3,-24.4 -2.3,-24.4s10.2,-5.8 14.9,2.2z" class="st36"/>
   <path id="svg_196" d="m601.41111,142.9c3.1,2 6.9,2.2 10.3,0.9c2.9,-1.1 5.3,-3.6 6.3,-6.5c0.1,-0.2 0.1,-0.4 0.2,-0.6c3.9,8.3 -4.9,27.5 -12.9,21.6c-5.6,-4.2 -5.9,-10.9 -4.9,-16.2c0.3,0.3 0.7,0.6 1,0.8z" class="st37"/>
   <path id="svg_197" d="m608.41111,136c6,10.5 -16.4,35.2 -16.4,35.2s-12.1,13.9 -26.1,5.7c-14.4,-8.4 3,-47.6 3,-47.6s34.8,-1.5 39.5,6.7z" class="st34"/>
   <path id="svg_198" d="m593.51111,170.9l0,0c0,0 -0.1,0.1 0,0z" class="st36"/>
   <path id="svg_199" d="m573.61111,123.3c11.8,-3.5 20.8,-1.9 30.5,5.4c11,8.3 5.9,27.7 -2.7,37.1c-6.2,6.8 -7.4,8.2 -7.6,8.5l-2.3,-9.4c2.2,1.3 5.6,-1.5 5.6,-7.9c0,-6.3 -8.3,0.5 -8.3,0.5s1.8,-8.4 0.2,-12.5c-1.5,-4.1 -22.9,-8.2 -22.9,-8.2s-3.9,-10.2 7.5,-13.5z" class="st36"/>
   <path id="svg_200" d="m597.11111,157c0,-0.4 0,-0.8 -0.1,-1.1c1.6,-0.8 3.1,-1.8 4.4,-3.1c2.9,-2.9 4.4,-5.7 5.1,-9.7c0.9,-4.9 0,-10.4 -2.7,-14.7c0.1,0.1 0.2,0.1 0.3,0.2c11,8.3 5.9,27.7 -2.7,37.1c-6.2,6.8 -7.4,8.2 -7.6,8.5l-2.3,-9.4c2.2,1.4 5.7,-1.4 5.6,-7.8z" class="st37"/>
   <path id="svg_201" d="m589.61111,156.5c0.1,0 0.2,0.1 0.4,0.1c-0.7,0.5 -1.2,0.9 -1.2,0.9s0.1,-0.5 0.2,-1.2c0.2,0.1 0.4,0.2 0.6,0.2z" class="st37"/>
  </g>
  <g id="whandr">
   <path id="svg_202" d="m547.31111,293.5c3.2,-0.1 6.4,-0.7 9.3,-1.7c2.7,-0.9 4.7,-2.4 6.2,-4.7c0.2,-0.3 0.3,-0.5 0.5,-0.8c2,-0.4 4.1,-0.8 6.1,-1.1c0.4,-0.1 0.7,-0.2 1.1,-0.3c0.1,0.1 0.1,0.1 0.2,0.2c0.1,0.1 0.2,0.2 0.3,0.3c0.1,0.2 0.4,0.6 0.5,0.7l0,0c0,0.1 0.1,0.2 0.1,0.3c0.1,0.3 0.3,0.7 0.3,0.8c0,0.1 0,0.2 0.1,0.2c-2.4,0.3 -4.9,0.6 -7.5,0.9l-0.1,0c-2.9,7.1 -14.5,7.5 -17.6,7.3l-4.2,1.4c-0.3,0.1 -0.5,0.1 -0.8,0.1c-0.8,0 -1.5,-0.4 -2,-1c2.6,-0.6 5,-1.4 7.5,-2.6z" class="st25"/>
   <g id="svg_203">
    <path id="svg_204" d="m593.21111,287.9c-6.6,1.6 -3.5,1.1 -9.8,3.3c-5.4,1.9 -11,3.2 -16.7,4.3c-0.8,0.1 -1.6,0.2 -2.4,0.2c-0.7,-7.5 -1.5,-15.6 -2.3,-23c1.4,0.2 2.7,0.4 3.9,0.5c3.6,0.3 5.4,0.6 9,0.3c2.4,-0.2 7.2,-0.1 7.2,-0.1c2.3,-0.5 5.1,-2 7.3,-3c0.1,0 27.5,-12.1 29.9,-15.3c1.3,-1.8 1.9,-24.3 1.9,-29c0,-1 -0.3,-1.8 -0.8,-2.6c-0.1,-0.4 -0.2,-0.8 -0.5,-1.2c0.1,-1.8 0.1,-3.6 0.1,-5.4c0,-0.5 -0.1,-1 -0.2,-1.5c1.8,-0.4 3.3,-1.4 4.9,-2.6c2.6,-2.1 5.2,-4.2 7.8,-6.3c-2.4,19.2 -5.2,47.2 -4.9,59.8c0,1.5 0.5,3.3 1.4,5.3c-1.4,0.2 -2.9,0.5 -4.3,0.9c-5.2,1.3 -10.5,3.6 -14.4,7.5c-2.1,2.1 -11.5,1.7 -11.6,4.9l-5.5,3z" class="st22"/>
    <path id="svg_205" d="m540.61111,282c0.7,-0.2 1.7,-0.5 2.4,-0.8l11,-3.3l0,0c0,0 2.9,-1.5 8.3,-1.7c4.2,-0.2 14.1,-0.4 17.7,0l0,0c2.9,-1 6.5,-2.1 10.5,-3.4c0.9,1.5 1.8,3 2.5,4.6c0.3,0.6 0.6,1.3 0.9,2c0,0.1 0.1,0.3 0.1,0.3c0.1,0.4 0.3,0.7 0.4,1.1c0.6,1.5 1.1,2.9 1.5,4.4c0.1,0.4 0.3,0.9 0.4,1.3c-4.4,0.5 -9.1,1.1 -14.2,1.7l-0.1,0c-2.9,7.1 -14.5,7.5 -17.6,7.3l-4.2,1.4c-0.3,0.1 -0.5,0.1 -0.8,0.1c-1.1,0 -2,-0.7 -2.3,-1.8c-0.3,-1.2 0.4,-2.5 1.6,-2.9l2.6,-0.9l-4.1,1c-0.3,0.1 -0.5,0.1 -0.8,0.1c-1,0 -2,-0.7 -2.3,-1.7c-0.3,-1.2 0.4,-2.4 1.6,-2.9l3.1,-1.1l-5.6,1.6c-0.3,0.1 -0.5,0.1 -0.8,0.1c-1,0 -2,-0.7 -2.3,-1.7c-0.3,-1.2 0.4,-2.4 1.6,-2.9l4.6,-1.6l-12.2,2.4c-0.2,0.1 -3.2,1.1 -4.3,-1.6c-0.1,-0.3 0.2,-0.9 0.8,-1.1z" class="st34"/>
    <path id="svg_206" d="m584.41111,273.7c12.7,-4.2 30.8,-10.8 42.5,-15.8c-5.8,-17.7 -7.6,-34.5 -17.8,-50.1c-9.5,-17.6 16.3,-28.7 24.3,-8.9c2.3,4.3 4.2,8.7 5.9,13c5.4,14 12.5,29.2 16,43.7c1.7,7 4.7,16.5 -3.7,20.6c-15.6,7.7 -31.1,8.2 -63.2,12.1c-0.1,-0.7 -3.6,-13.7 -4,-14.6z" class="st24"/>
    <path id="svg_207" d="m607.91111,280.2c3.3,-0.7 6.5,-1.6 9.8,-2.3c2.1,-0.5 4.3,-0.9 6.4,-1.5c5.1,-1.4 10.2,-3.4 14.1,-6.9c4.3,-3.9 5.8,-9.6 5.7,-15.3c-0.2,-10.7 -5,-20.7 -7.1,-31.1c-2.2,-10.4 -3.2,-21.4 -8,-31.1c1.8,1.7 3.4,4 4.6,7c2.3,4.3 4.2,8.7 5.9,13c5.4,14 12.5,29.2 16,43.7c1.7,7 4.7,16.5 -3.7,20.6c-15.6,7.7 -31.1,8.2 -63.2,12.1c0,-0.3 -0.6,-2.4 -1.2,-4.9c6.9,-0.9 13.8,-1.9 20.7,-3.3z" class="st22"/>
   </g>
  </g>
  <path id="svg_208" d="m602.01111,181.9l-6.4,-4.5c0,0 -2.2,12.1 -14.7,12.6l4,10c0,0 14.5,-5.7 17.1,-18.1z" class="st37"/>
  <path id="svg_209" d="m602.01111,181.9l-6.4,-4.5c0,0 -2.2,12.1 -14.7,12.6l4.4,7.7c0,0 11.3,-2.5 16.7,-15.8z" class="st38"/>
  <path id="svg_210" d="m575.51111,181.9c0,0 0,7 5.4,8.2l-5.5,7.7c0,0 -3.9,-5.1 -3.3,-10.7l3.4,-5.2z" class="st37"/>
  <path id="svg_211" d="m575.51111,181.9c0,0 0,7 5.4,8.2l-5.4,5.9c0,0 -3.3,-4.7 -3.3,-8.9l3.3,-5.2z" class="st38"/>
  <g id="weyeone">
   <path id="svg_212" d="m582.81111,153.3c0,1.1 -0.9,2 -2,2s-2,-0.9 -2,-2s0.9,-2 2,-2c0.6,0 1.1,0.2 1.4,0.6c0.4,0.4 0.6,0.9 0.6,1.4z" class="st32"/>
  </g>
  <g id="weyetwo">
   <path id="svg_213" d="m569.51111,149.9c0,1.1 -0.9,2 -2,2s-2,-0.9 -2,-2s0.9,-2 2,-2c0.4,0 0.8,0.1 1.1,0.3c0.5,0.4 0.9,1 0.9,1.7z" class="st32"/>
  </g>
  <g id="wbru">
   <path id="svg_214" d="m577.31111,149.2c1.6,-0.3 3.1,-0.3 4.7,0.1c1.5,0.4 2.9,1.2 4.1,2.3c0.6,0.6 1.6,-0.4 0.9,-0.9c-1.3,-1.2 -2.9,-2.1 -4.7,-2.6s-3.6,-0.5 -5.3,-0.1c-0.9,0.1 -0.5,1.4 0.3,1.2z" class="st32"/>
   <path id="svg_215" d="m566.71111,144c1.3,0 2.6,0.4 3.6,1.1c1.1,0.7 2,1.8 2.6,3.1c0.3,0.7 1.3,0 1,-0.7c-0.7,-1.5 -1.7,-2.7 -3,-3.5c-1.2,-0.8 -2.7,-1.3 -4.2,-1.3c-0.7,0 -0.7,1.3 0,1.3z" class="st32"/>
  </g>
  <path id="svg_216" d="m572.91111,159.6l1.3,-3.3c0.3,-0.5 0.5,-1 0.6,-1.5c0,-0.5 -0.3,-0.6 -0.7,-0.8c-0.6,-0.3 -1.3,-0.5 -1.9,-0.7c-0.7,-0.1 -0.7,0.4 -1,1c-0.6,1.2 -1.1,2.5 -1.7,3.7c-0.2,0.3 -0.3,0.7 -0.2,1.1c0.1,0.6 0.7,0.9 1.3,1.2s1.3,0.5 1.8,0.1c0.2,-0.2 0.4,-0.5 0.5,-0.8z" class="st39"/>
  <g id="svg_217">
   <path id="svg_218" d="m591.31111,157.2l-1.7,4.4c-0.1,0.3 -0.2,0.6 -0.1,1c-1.6,3.5 -3.5,6.9 -5.7,10.1c-1.4,2.1 -3.2,4 -5.2,5.6c-1.7,1.6 -3.9,2.5 -6.3,2.7c-1.5,-0.1 -3,-0.3 -4.5,-0.7l-4.9,-1c-0.8,-0.2 -0.9,1.1 -0.2,1.2l4.5,0.9c1.4,0.4 2.9,0.6 4.4,0.8c2.4,0.1 4.7,-0.7 6.6,-2.1c4.3,-3 7.5,-7.7 9.9,-12.3c0.7,-1.3 1.4,-2.6 2,-4c0.2,0.2 0.5,0.3 0.8,0.3c0.3,0.1 0.6,0 0.8,-0.1c0.3,-0.1 0.5,-0.2 0.7,-0.4c0.2,-0.2 0.4,-0.4 0.5,-0.7l1.7,-4.4c0.1,-0.5 0.1,-0.9 -0.1,-1.4c-0.2,-0.4 -0.5,-0.8 -1,-1c-0.5,-0.2 -0.9,-0.2 -1.4,0c-0.3,0.3 -0.6,0.7 -0.8,1.1z"/>
   <path id="svg_219" d="m563.11111,178.6l8.8,1.5c0.8,0.1 0.9,-1.1 0.2,-1.2l-8.8,-1.5c-0.8,-0.2 -0.9,1 -0.2,1.2z"/>
  </g>
  <g id="wmouth">
   <path id="svg_220" d="m565.41111,166.2l8.5,2.1c-7.8,4.8 -8.5,-2.1 -8.5,-2.1z" class="st33"/>
  </g>
 </g>
</svg>