<svg xmlns="http://www.w3.org/2000/svg" xmlns:xlink="http://www.w3.org/1999/xlink" version="1.1" id="Layer_1" x="0px" y="0px" viewBox="0 0 800 450" style="enable-background:new 0 0 800 450;" xml:space="preserve"><g><title>background</title><rect fill="#fff" id="canvas_background" height="450" width="800" y="-1" x="-1"/></g>
<style type="text/css">
	.st0{fill:#ED6522;}
	.st1{fill:#F4EB45;}
	.st2{opacity:0.66;}
	.st3{fill:#E8633A;}
	.st4{fill:#EDD64F;}
	.st5{fill:#E5E8EC;}
	.st6{fill:#2C7EEA;}
	.st7{fill:#2366BD;}
	.st8{fill:#484F59;}
	.st9{fill:#F4DA80;}
	.st10{fill:#B91E2D;}
	.st11{fill:#E2C59C;}
	.st12{fill:#E9D6B8;}
	.st13{fill:#163F59;}
	.st14{fill:#194866;}
	.st15{fill:#FFAB01;}
	.st16{fill:#15100C;}
	.st17{fill:#CDD5D7;}
	.st18{fill:#B7BEC0;}
	.st19{fill:#F99B0F;}
	.st20{opacity:0.6;}
	.st21{fill:#EED2CE;}
	.st22{fill:#C49189;}
	.st23{fill:#FFEBE8;}
	.st24{fill:#E0B6AF;}
	.st25{fill:#FF8B5D;}
	.st26{fill:#FFFFFF;}
	.st27{fill:#EF8357;}
	.st28{fill:#D5E1F2;}
	.st29{fill:#3C463B;}
	.st30{fill:#2771D1;}
	.st31{fill:#161711;}
	.st32{fill:#323B31;}
	.st33{fill:#B6C2C9;}
	.st34{fill:#879BA6;}
	.st35{fill:#E4EEF3;}
	.st36{fill:#FF5931;}
	.st37{enable-background:new    ;}
	.st38{fill:#FFC910;}
	.st39{fill:#FFCA10;}
	.st40{fill:#282723;}
	.st41{fill:#B0BFDE;}
	.st42{fill:#D1DBEA;}
	.st43{fill:#19486D;}
	.st44{fill:#265880;}
	.st45{fill:#FBBC3E;}
	.st46{fill:#E59E0E;}
	.st47{fill:url(#SVGID_1_);}
	.st48{fill:url(#SVGID_2_);}
	.st49{fill:#081832;}
	.st50{fill:#EDEEF0;}
	.st51{fill:#BCD0E2;}
	.st52{fill:#4E99FF;}

			#t3  {
    animation-name: p;
    animation-duration: 10s;
	
	
    animation-timing-function: linear;
    animation-iteration-count: infinite;
    transform-origin:center;
    
    transform-box: fill-box;
  }
  @keyframes p{
    0%{opacity:0; transform:rotateZ(0deg)}
	20%{opacity:1; transform:rotateZ(0deg)}
	100%{opacity:1; transform:rotateZ(-10deg)}
}
#t2  {
    animation-name: t2;
    animation-duration: 10s;
	
	
    animation-timing-function: linear;
    animation-iteration-count: infinite;
    transform-origin:center;
    
    transform-box: fill-box;
  }
  @keyframes t2{
    0%{opacity:0; transform:rotateZ(-10deg)}
	50%{opacity:1;}
	100%{opacity:1; transform:rotateZ(0deg)}
}
#t1  {
    animation-name: t1;
    animation-duration: 10s;
	
	
    animation-timing-function: linear;
    animation-iteration-count: infinite;
    transform-origin:center;
    
    transform-box: fill-box;
  }
  @keyframes t1{
    0%{opacity:0; }
	30%{opacity:1;}
	100%{opacity:1;}
}

 #BUTTON {
    animation-name: box1;
    animation-duration: 10s;
    animation-timing-function: ease-in;
    animation-iteration-count: infinite;
    transform-origin:bottom;
    
    transform-box: fill-box;
  }
  @keyframes box1{
    0%{transform:scale(0) }
    13%{transform:scale(0)}
     15%{transform:scale(1.2)}
     
     16%{transform:scale(1)}
     100%{transform:scale(1) }
}
 #CELLPHONE {
    animation-name: box1;
    animation-duration: 10s;
    animation-timing-function: ease-in;
    animation-iteration-count: infinite;
    transform-origin:bottom;
    
    transform-box: fill-box;
  }
  @keyframes box1{
    0%{transform:scale(0) }
    17%{transform:scale(0)}
     19%{transform:scale(1.2)}
     
     21%{transform:scale(1)}
     100%{transform:scale(1) }
	 22%{transform:scale(1)}
	 50%{transform:translateY(10px)}
	 70%{transform:translateY(-10px)}
}
 #MEN_LAPTOP {
    animation-name: m1;
    animation-duration: 10s;
    animation-timing-function: ease-in;
    animation-iteration-count: infinite;
    transform-origin:bottom;
    
    transform-box: fill-box;
  }
  @keyframes m1{
    0%{transform:scale(0) }
    20%{transform:scale(0)}
     21%{transform:scale(1.2)}
     
     22%{transform:scale(1)}
	 50%{transform:translateY(10px)}
	 70%{transform:translateY(-10px)}
     
}

#m2{
    animation-name: m2;
    animation-duration: 10s;
    animation-iteration-count: infinite;
    transform-origin: bottom;
    transform-box: fill-box;
}
@keyframes m2 {
    0% { opacity: 0; transform: translate(-25px, 25px); }
    22% { opacity: 0; transform: translate(-25px, 0px); }
    24% { opacity: 1; transform: translate(0px, 0px); }
}
#w2{
    animation-name: w2;
    animation-duration: 10s;
    animation-iteration-count: infinite;
    transform-origin: bottom;
    transform-box: fill-box;
}
@keyframes w2 {
    0% { opacity: 0; transform: translate(-25px, 25px); }
    25% { opacity: 0; transform: translate(-25px, 0px); }
    28% { opacity: 1; transform: translate(0px, 0px); }
	22%{transform:scale(1)}
	 50%{transform:translateY(-10px)}
	 70%{transform:translateY(10px)}
}
#w1{
    animation-name: w1;
    animation-duration: 10s;
    animation-iteration-count: infinite;
    transform-origin: bottom;
    transform-box: fill-box;
}
@keyframes w1 {
    0% { opacity: 0; transform: translate(25px, 25px); }
    29% { opacity: 0; transform: translate(25px, 0px); }
    32% { opacity: 1; transform: translate(0px, 0px); }
}
#heart {
    animation-name: ht;
    animation-duration: 10s;
    animation-timing-function: ease-in;
    animation-iteration-count: infinite;
    transform-origin:bottom;
    
    transform-box: fill-box;
  }
  @keyframes ht{
    0%{transform:scale(0) }
    31%{transform:scale(0)}
     33%{transform:scale(1.2)}
     
     34%{transform:scale(1)}
     100%{transform:scale(1) }
}
#like {
    animation-name: lt;
    animation-duration: 10s;
    animation-timing-function: ease-in;
    animation-iteration-count: infinite;
    transform-origin:bottom;
    
    transform-box: fill-box;
  }
  @keyframes lt{
    0%{transform:scale(0) }
    31%{transform:scale(0)}
     33%{transform:scale(1.2)}
     
     34%{transform:scale(1)}
     100%{transform:scale(1) }
}
#box1 {
    animation-name: bt;
    animation-duration: 10s;
    animation-timing-function: ease-in;
    animation-iteration-count: infinite;
    transform-origin:bottom;
    
    transform-box: fill-box;
  }
  @keyframes bt{
    0%{transform:scale(0) }
    35%{transform:scale(0)}
     36%{transform:scale(1.2)}
     
     38%{transform:scale(1)}
     100%{transform:scale(1) }
}
#box2 {
    animation-name: b2;
    animation-duration: 10s;
    animation-timing-function: ease-in;
    animation-iteration-count: infinite;
    transform-origin:bottom;
    
    transform-box: fill-box;
  }
  @keyframes b2{
    0%{transform:scale(0) }
    38%{transform:scale(0)}
     39%{transform:scale(1.2)}
     
     40%{transform:scale(1)}
     100%{transform:scale(1) }
}
#w1l {
    animation-name: pa;
    animation-duration: 2s;
	animation-direction: alternate;
	
    animation-timing-function: linear;
    animation-iteration-count: infinite;
    transform-origin:95% 0%;
    
    transform-box: fill-box;
  }
  @keyframes pa{
    0%{transform:rotateZ(3deg);}
	100%{transform:rotateZ(-3deg);}
	
}
#w2a {
    animation-name: w2a;
    animation-duration: 1.5s;
	animation-direction: alternate;
	
    animation-timing-function: linear;
    animation-iteration-count: infinite;
    transform-origin:5% 90%;
    
    transform-box: fill-box;
  }
  @keyframes w2a{
    0%{transform:rotateZ(4deg);}
	100%{transform:rotateZ(-4deg);}
}
#m2l1 {
    animation-name: m2a;
    animation-duration: 1.5s;
	animation-direction: alternate;
	
    animation-timing-function: linear;
    animation-iteration-count: infinite;
    transform-origin:95% 0%;
    
    transform-box: fill-box;
  }
  @keyframes m2a{
    0%{transform:rotateZ(0deg);}
	100%{transform:rotateZ(-25deg);}
}
#m2l2 {
    animation-name: m2b;
    animation-duration: 1.5s;
	animation-direction: alternate;
	
    animation-timing-function: linear;
    animation-iteration-count: infinite;
    transform-origin:5% 10%;
    
    transform-box: fill-box;
  }
  @keyframes m2b{
    0%{transform:rotateZ(0deg);}
	100%{transform:rotateZ(25deg);}
}
#m1h {
    animation-name: m1h;
    animation-duration: 3s;
	animation-direction: alternate;
	
    animation-timing-function: linear;
    animation-iteration-count: infinite;
    transform-origin:5% 10%;
    
    transform-box: fill-box;
  }
  @keyframes m1h{
    0%{transform:translateY(0px);}
	20%{transform:translateY(0px);}
	 30%{transform:translateY(2px);}
	50%{transform:translateY(0px);}
	
	60%{transform:translatey(0px);}
	100%{transform:translatey(2px);}
}
#m2h {
    animation-name: m2h;
    animation-duration: 1.5s;
	animation-direction: alternate;
	
    animation-timing-function: linear;
    animation-iteration-count: infinite;
    transform-origin:5% 90%;
    
    transform-box: fill-box;
  }
  @keyframes m2h{
    0%{transform:rotateZ(4deg);}
	100%{transform:rotateZ(-4deg);}
}
</style>
<g id="BUTTON">
	<path class="st0" d="M123,335.5c0,5.2-4.2,9.4-9.4,9.4h-54c-5.2,0-9.4-4.2-9.4-9.4v-1.8c0-5.2,4.2-9.4,9.4-9.4h54   c5.2,0,9.4,4.2,9.4,9.4V335.5z"/>
</g>
<g id="t3">
	<path class="st1" d="M373.6,268.7c21.9,4.4,41.6-9.6,64.8,1.6c24.2,11.7,20.4,85.6,71.8,121.4c40,27.8,134.4,50.8,204.8-35   c70.3-85.7,62.6-206.9-7.1-229.5c-50.5-16.4-95.1-5.6-137.2-16.7c-39-10.3-71.2-56-107.6-65c-58.7-14.6-101.2,34.1-123.5,74.8   C318.3,159,308.9,255.6,373.6,268.7z"/>
	<path class="st1" d="M407.3,316c11.1-6,23-8.2,31.9-8c9.1,0.3,15.2,3.1,17.4,8.1c2.2,5.1,0.4,11.7-3.2,19.1   c-3.7,7.3-9,15.4-16,22.2c-13.2,13.7-32.5,16.5-46,4.5C378,350.2,384.2,327.8,407.3,316z"/>
	<path class="st1" d="M729.9,83.9c4.1,1.4,6.4,5.5,5.9,9.9c-0.3,4.4-3.4,9.2-6.8,12.1c-7.1,6.1-10.7,3.6-16.7-0.5   c-5.7-4.2-11.9-8.5-7.5-12.7c2.2-2,6.6-4.7,11.3-6.8C720.8,83.9,725.8,82.3,729.9,83.9z"/>
</g>
<g id="t2" class="st2">
	<path class="st3" d="M391.9,310c22.1-0.6,37.9-17.7,62.7-12.4c26,5.6,39.1,74.7,96.8,96.7c44.8,17.1,141,18.2,189.2-76   c48.2-94.1,13.2-204.3-59.1-210.4c-52.4-4.4-92.9,15.1-135.9,13.8c-39.9-1.2-81.3-36.5-118.4-37.1c-59.9-1-89.7,53.1-101.9,95.4   C313.7,220.6,326.6,311.8,391.9,310z"/>
</g>
<g id="t1">
	<path class="st4" d="M489.2,0c8.9,26.2,20.5,58,49.5,78c40.3,27.8,135.4,50.8,206-34.4C756.1,29.8,765.5,15,772.9,0H489.2z"/>
</g>
<g id="w2">
	<g>
		<g>
			<path class="st5" d="M687.8,312.8c0,3.8-3.1,6.9-6.9,6.9H560.4c-3.8,0-6.9-3.1-6.9-6.9v-70.2c0-3.8,3.1-6.9,6.9-6.9H681     c3.8,0,6.9,3.1,6.9,6.9v70.2H687.8z"/>
			<path class="st6" d="M687.8,312c0,3.8-3.1,6.9-6.9,6.9H560.4c-3.8,0-6.9-3.1-6.9-6.9v-70.2c0-3.8,3.1-6.9,6.9-6.9H681     c3.8,0,6.9,3.1,6.9,6.9V312H687.8z"/>
			<g>
				<path class="st7" d="M609.1,254.5c0.3,0,0.2-0.4,0.5-0.3c0.5,0.2,0.8,0.6,1.5,0.6c0.5-0.3-0.7-0.6-0.3-0.9      c0.2,0.1,0.3,0.2,0.5,0.3c0.1-0.5-0.1-0.6-0.3-0.9c1.1-0.1,0.7-1.5,0.6-2.3c0.3-0.1,0.7-0.2,1.2-0.1c0-0.6-0.7-0.6-1.1-0.9      c0.4,0.1,0.3-0.4,0.8-0.3c0.1-0.4-0.2-0.4-0.1-0.9c0.5,0.1,0.3-0.5,0.8-0.4c0.3-0.1,1.2,0.3,1.1-0.3c0.1-0.5-0.6-0.1-0.7-0.4      c-0.3,0-0.3-0.5-0.7-0.4c-0.6-0.1-1.2,0.5-1.5,0.3c0.1-0.7,1.2-0.4,1.4-1c-0.3-0.4-0.9-0.5-1.6-0.4c-0.4-0.2-1-0.4-1.2,0      c-0.1-0.2-0.4-0.2-0.7-0.3c-0.5,0.4-1.9-0.1-2.4,0.3c-0.6,0-1.4-0.1-1.6,0.3c0,0.3,0.4,0.9,0.1,1c-1-0.2-1.5,0.1-2.4-0.1      c-1.4,0.2-2,1.1-3.4,1.3c-0.1,0.5,0.6,0.1,0.5,0.6c-0.4,0.3-1.1,0.3-1.5,0.7c-0.3-0.2-0.8-0.2-1,0.4c0.4-0.1,0.4,0.2,0.7,0.3      c0-0.4,0.7-0.4,0.7,0c0.3-0.1,0.9-0.6,1,0.2c-0.6,0.1-1.4-0.1-1.8,0.1c0.1,0.5,0.6,0.7,1.1,0.9c0.4,0.1,0.3-0.4,0.7-0.3      c0.4,0.3,0.8,0.6,1.6,0.4c-0.1,0.6,0.1,1,0.3,1.3c0,0.3-0.2,0.5-0.1,1c0.5,0.3,0.6-0.7,1-0.1c0.1,0.5-0.4,0.4-0.8,0.4      c0.1,0.6,1,0.4,1.2,1c-0.3,0.2-0.7,0.4-0.9,0.7c0.4,0.2-0.4,0.3-0.3,0.7c1,0.7,0.2,2.3,0.9,3.3c0.3,0,0.6,0,1,0      c0.4,0,0.2,0.6,0.7,0.6c0.1-0.3,0.2-0.6,0.5-0.7c-0.2-1.1,0.7-1.1,0.5-2.2c0.3,0,0.2-0.6,0.5-0.6c0.5,0.3,0.5-0.3,1.1,0      c0.2-0.2,0.4-0.4,0.7-0.6c0.7-0.2,0.9-0.7,1.6-0.9c0.1-0.5,1.2-0.6,0.8-1.2C610.1,255.1,609.5,254.5,609.1,254.5z M610.5,253.9      c-0.4-0.3,0-1,0.4-0.9C610.8,253.4,610.5,253.5,610.5,253.9z M611.4,247c0,0.4-0.3,0.5-0.5,0.7c-0.4-0.3-1-0.3-1.8-0.3      C609.6,246.8,610.9,247.1,611.4,247z"/>
				<path class="st7" d="M592.2,249.2c0,0.3,0,0.6,0,0.9c0.4-0.1,0.5,0.2,0.8,0.1c0.1-0.7,0.9-1.3,1.4-1c0.2,0.6-0.7,0-0.7,0.4      c0.4,0.2-0.5,0.3-0.4,0.6c0.4-0.1,0.5,0.1,0.4,0.4c-0.3,0-0.4-0.2-0.8-0.1c0,0.4-0.5,0.3-0.3,0.9c0.8-0.1,1.4-0.2,1.8,0.4      c-1.1,0.2-1.8-0.6-2.5-0.3c-0.1,0.7,0.8,0.3,0.8,0.9c1-0.2,2.4,0.6,2.7-0.4c0.4,0,0.6-0.1,0.5-0.4c0.1-0.4-0.6,0.1-0.5-0.3      c0.3,0,0.6,0,0.9,0c0-0.8,0.8-0.7,0.7-1.6c0.7,0,0.8-0.7,1.7-0.6c0.2-0.3,0.4-0.6,0.9-0.6c0.2-0.4-0.3-0.7,0-0.7      c0.6-0.3,1.4,0.1,1.6-0.7c0-0.2-0.4-0.1-0.4-0.3c-2.2,0.3-5.3-0.4-7.6,0.6c-0.2,0.9,0.6,0.7,0.7,1.3c-0.9,0.1-0.6-1.1-1.6-0.9      c0,0.2-0.2,0.3-0.1,0.6c-0.2,0-0.5,0-0.4,0.3C591.7,249.1,592.2,248.9,592.2,249.2z M595.1,251.8      C595.2,251.9,595,252,595.1,251.8C594.9,251.8,595,251.7,595.1,251.8z"/>
				<path class="st7" d="M625.7,248.9c0.1-0.4,0.7-0.2,0.5-0.9c-1.2-0.2-2.4-0.3-3.5-0.3c0,0.3,0,0.4,0.1,0.6      C623.7,248.6,624.4,249.1,625.7,248.9z"/>
				<path class="st7" d="M620.4,249.6c0,0.4-0.3,0.4,0,0.7c0.6,0,0.6-0.6,1.2-0.6c0,0.6-0.7,0.6-0.7,1.3c0.2,0.2,0.5,0.4,1,0.3      c-0.1,0.5,0.3,0.5,0.7,0.4c0.1-0.5,0.2-1.1,0.4-1.6c0.4,0.4,0.6,0.9,1.5,0.7c0.1-1.1-0.7-1.2-1.1-1.7c0,0.3-0.4-0.2-0.6-0.2      c-0.3,0-0.6-0.1-0.7-0.3c0.3-0.4-0.1-0.8-0.7-0.7c-0.4,0.2,0.2,0.7-0.1,0.9c-0.3-0.7-1.6-1.4-1.6,0      C619.8,249.3,620.3,249.2,620.4,249.6z"/>
				<path class="st7" d="M634.2,248.6c0-0.9-1.3-0.6-1.2,0.1C633.4,249.2,633.7,248.5,634.2,248.6z"/>
				<path class="st7" d="M641.8,249.5c1.1-0.2,2.2,0.5,2.4-0.4c-0.3-0.6-1.6-0.8-2.3-0.4C641.7,248.6,641.9,249.2,641.8,249.5z"/>
				<path class="st7" d="M669.4,258.1c0.3,0,0.3-0.5,0.7-0.4c0.7,0,0.6,0.9,1.5,0.7c0.2-0.3-0.1-0.7,0.1-1.1      c-0.4-0.2-0.9-0.9-1.2-0.3c0-0.3,0-0.5-0.1-0.7c-0.7-0.3-1.1-0.9-2.3-0.7c-0.2-0.3-0.5-0.3-0.7-0.6c-0.9,0.1-1.1-0.5-2-0.3      c-0.2,0.4,0.4,0.7,0,0.9c-0.4-0.1-0.3-0.6-0.7-0.7c-0.4,0.5-1.1,0-1.9,0.3c-0.5-0.3-0.5-1.2-1.5-1c-0.2,0,0,0.4-0.3,0.4      c-0.6-0.3-1.1-0.5-1.6-0.9c-0.1,0.1-0.1,0.2-0.3,0.3c0.2-0.6-0.3-0.4-0.7-0.4c0.3-0.3-0.1-0.3-0.3-0.6c-0.7,0.3-0.6-0.1-1.2-0.1      c0,0.2-0.3,0.1-0.5,0.1c-0.1,0.3,0.4,0.5,0,0.6c-1.2-0.2-2.7,0.3-3.7,0c-0.4-0.1-0.5-0.5-0.8-0.4c-0.6,0.1-1.1-0.2-1.5-0.3      c-0.2-0.1-0.4,0-0.5,0c-0.3-0.1-0.6-0.5-1.4-0.3c0.1-0.4,0.4-0.4,0.4-0.9c-0.2-0.4-0.6-0.6-0.8-1c-0.4,0.2-1,0.2-1.6,0.2      c-0.3-0.1-0.3-0.7-0.8-0.6c-0.3,0.1-0.4,0.5-0.4,1c-0.7-0.2-0.4,0.5-1,0.4c-0.3-0.1-0.1-0.6-0.5-0.4c-0.3,0.4-0.8,0.6-1.6,0.6      c-0.3,0.2-0.4,0.5-0.8,0.4c-0.2,0.2-0.1,0.7-0.4,0.7c-0.3,0.1-0.9-0.2-0.8,0.3c0,0.5,0.8,0.2,0.7,0.9c-0.5-0.2-0.6-0.7-1.4-0.6      c0,0.4,0.1,0.9-0.3,0.9c-0.2-0.2-0.2-0.5-0.1-0.9c-0.5-0.1-0.2,0.6-0.8,0.4c-0.2-0.3-0.2-0.8-0.8-0.6c-0.4,0.6-0.9,1.1-1.4,1.6      c-0.9,0.1-0.8-0.3-1.8-0.3c-0.2,0.7,0.7,0.2,0.5,0.9c-0.6-0.1-1.2,0.1-2,0c-0.6,0.3-0.9,0.8-1.6,1c0-0.3,0-0.6,0-0.9      c-0.3,0-0.7,0-0.8-0.1c0,0.8,0,1.5-0.8,1.4c0,0.5-0.5,0.4-0.8,0.6c-0.3,0.2,0.2,0.4-0.1,0.6c-0.8,0.2-0.8-1-0.8-1.3      c0.6,0,1.3-0.1,1.8,0.1c0.4-0.9-0.8-1.4-1.6-1.4c-0.2-0.4-0.6-0.5-1.1-0.6c-0.2-0.3-0.4-0.6-0.7-0.9c-0.4,0-0.8,0-1.2,0      c-0.4,0.3-0.7,0.6-1.1,0.9c-0.1-0.2-0.2,0.1-0.4,0c-0.5,0.5-1.1,1-1.6,1.4c-0.2,0.7-0.4,1.2-0.8,1.6c0-0.2-0.2-0.1-0.4-0.1      c0,0.2,0,0.4,0,0.6c-0.9,0.1-1,0.9-1.2,1.6c0.3,0.3,0.3,0.9,0.3,1.6c0.1,0.4,0.9,0.2,1.1,0.4c-0.3,0.4-0.6,0.6-0.6,1      c0.3-0.1,0.3,0.2,0.3,0.4c-0.5,0-0.8,0.2-1.2,0.3c-0.1,0.3-0.4,0.4-0.3,0.9c-0.8-0.2-0.3,0.8-1,0.7c0,0.2,0,0.3-0.1,0.3      c-0.6-0.1-0.7,0.4-1.1,0.6c-0.3,0.1-0.7,0.1-0.7,0.6c0.2,0.2,0.6,0.1,0.9,0.1c-0.1,0.6,0.6,0.5,0.5,1.2      c-0.1,0.2-0.1,0.5-0.4,0.6c-0.6-0.3-1.2,0.1-2,0c-0.1,0.5,0.3,1.6-0.3,1.6c0.1,0.4,0.4,0.6,0.3,1.3c0.6-0.1,0.8,0.2,1.2,0.3      c0.5-0.3,0.6-0.3,1.1,0c0.3-0.6,0.8-1,0.7-2c0.6-0.2,0.5-1.1,1.2-1.2c0.6,0.4,0.8-0.1,1.4-0.1c-0.4,0.6-0.2,1.5,0,2.2      c0.9-0.1,0.3-0.8,0.4-1.6c-0.1,0-0.2-0.3,0-0.3c0,0.1,0,0.2,0,0.3c0.3,0,0.3,0.4,0.4,0.6c0.7,0,1.1,0.3,1.2,0.9      c0,0.3-0.3,0.3-0.7,0.3c0,0.5,0.5,0.5,0.7,0.7c-0.1-0.6,0.4-0.8,0.7-1c0.1-0.3-0.3-0.2-0.3-0.4c0.2-0.5,0.5,0.5,0.7,0      c-0.4-0.8-2.1-0.9-1.6-2c0.4,0.7,1.2,1,1.6,1.6c0.1,0.1,0.2,0.4,0.3,0.6c0.1,0.2,0.3,0.3,0.3,0.6c0,0.3,0,0.6,0,0.9      c0.2,0.2,0.6,0.1,1,0.1c0.2-0.5-0.2-1.2,0.1-1.7c0.1,0,0.3,0,0.4,0c-0.2,0.6,0,0.5-0.1,1.1c0.3,0,0.2,0.4,0.4,0.6      c0.5,0.4,1.4,0.2,1.8,0c0.4,0.2-0.4,0.7,0.3,0.7c0.6,0.1,0-0.9,0.7-0.7c0,0.3,0,0.6,0,0.9c-0.4,0.2-0.1,1.2-0.7,1.3      c-1-0.4-2.2-0.5-3.5-0.6c-0.4,0.1-0.3,0.7-0.7,0.9c-0.6-0.7-1.9-0.7-2.4-1.4c0.1-0.5-0.2-0.6-0.3-0.9c0.3,0,0.3-0.4,0.1-0.6      c-0.8,0-1.5,0.2-2,0.4c-1.1-0.1-2.1,0-2.6,0.6c-0.1-0.3-0.4-0.4-0.8-0.4c-0.1,0.5-0.6,0.6-1,0.9c-0.4,0.7-0.2,1.6-0.5,2.2      c-0.2,0.4-0.9,0.8-1.2,1.2c0,0.8-0.3,1.4-0.7,1.9c0,1.2,0,2.5,0,3.7c0.5,0.6,0.9,1.2,1.1,2c0.6,0.4,1,1,1.9,1.2      c0.5-0.1,1.2-0.2,1.9-0.1c0.3-0.2,0.3-0.8,0.8-0.7c0.2,0,0.1,0.5,0.3,0.6c0.6-0.1,0.9,0.2,1.4,0.3c0.2-0.1,0.4-0.4,0.8-0.3      c0.1,1.1-0.3,1.6-0.3,2.6c0.4,0.7,1.1,1.3,0.8,2.3c0.4,0.5,0.4,1.3,0.5,2c-0.3,0.7-0.3,1.7-0.5,2.5c0.6,0.6,1,1.3,1.2,2.3      c0,0.4,0,0.9,0,1.3c0.6,0.7,0.6,2.1,1.2,2.9c1.3-0.1,2-0.9,3.1-1.2c0.2-0.8,0.6-1.4,1.2-1.7c-0.1-0.6,0.3-0.7,0.1-1.3      c0.2-0.1,0.4-0.4,0.8-0.3c0-1.7,0.6-2.7,1.6-3.3c0.2-1.2,0.2-2.9,0-4c0.3-0.6,0.5-1.2,0.7-1.9c0.3-0.2,0.6-0.5,1-0.7      c0.7-1,1.2-2.1,1.9-3c0.1-0.5,0.3-1.3-0.2-1.6c-0.6-0.1-0.5,0.5-1.1,0.4c-0.4,0-0.8,0-1.2,0c-0.1-1-0.7-1.3-1.2-1.9      c0.1-1-0.8-0.8-0.5-1.9c-0.2-0.3-0.7-0.5-0.8-0.9c0.1-0.4-0.2-1.1,0-1.1c0.3,0.2,0.7,1,0.5,1.3c0.6,0.6,0.9,1.4,1.5,2      c0.3,0.6,0.3,1.5,1,2c1-0.3,1.6-1,2.7-1.2c0.2-0.1,0-0.6,0.3-0.6c0.6-0.1,0.8-0.6,1.4-0.7c-0.1-0.6,0.4-0.6,0.4-1.1      c-0.2-0.5-0.9-0.6-0.8-1.4c-0.5-0.1-0.9,0-1.1,0.3c-0.1-0.5-0.6-0.7-0.6-1.4c-0.4,0-0.4-0.4-0.7-0.6c0.2-0.1,0.3-0.2,0.5-0.3      c0.7,0.5,0.5,2,1.9,1.9c0,0.3,0.4,0.3,0.3,0.7c0.7,0.1,0.8-0.4,1.4-0.4c0.1,0.1,0.1,0.3,0.4,0.3c0.9-0.1,1.2,0.5,1.8,0.7      c-0.2-0.1-0.3,0.1-0.3,0.3c0.1,0.3,0.6,0.2,0.8,0.4c-0.1,0.5,0.3,0.5,0.1,1c0.4,0.5,0.6,1.2,0.8,1.9c0.3,0.3,0.6,0.6,0.7,1      c0,0.3,0,0.6,0,0.9c0.2,0.2,0.6,0.1,0.9,0.1c0.2-0.9,0.7-1.5,0.5-2.7c0.2,0,0.4,0,0.6,0c0-0.2,0-0.4,0-0.6      c0.5,0.2,0.3-0.4,0.7-0.3c0-0.7,0.5-0.7,0.7-1.2c0.3-0.3,0.7-0.5,1.2-0.6c0.3,0.4,0.3,1.1,0.8,1.3c0,0.3-0.3,0.3-0.1,0.7      c0.2,0.5,1.1,0.1,1.4,0.4c-0.2,0.3,0.1,0.4-0.1,0.9c0.4,0.1,0.6,0.4,0.7,0.9c-0.1,0.3-0.4,0.3-0.3,0.7c0,0.4,0.4,0.5,0.3,1.2      c0.7,0.6,1.3,1.2,2,1.7c0-1-0.6-1.1-0.7-2c-0.4-0.3-0.7-0.6-1-1c0.1-0.5-0.2-1.2,0.3-1.3c0.3,0.4,0.5,0.9,1.1,1      c0.1,0.1,0.1,0.3,0.1,0.6c1.3-0.2,1.6-1.4,1.5-3.2c-0.2-0.1-0.5-0.1-0.7-0.3c0.2-0.6-0.7-0.6-0.3-1c0.4-0.4,0.4,0.5,1,0.3      c0.1-0.6,0.8-0.6,1.5-0.6c0.4-0.7,1-1.2,1.2-2.2c0.2,0,0.2-0.1,0.4-0.1c0.2-0.6,0-1.7,0.4-2c-0.3-0.1-0.4-0.4-0.4-0.9      c-0.2-0.2-0.5-0.3-0.5-0.7c-0.1-0.3,0.2-0.3,0.1-0.7c0.3,0,0.4,0,0.4-0.3c0.4-0.2-0.6-0.9,0.3-0.9c0.2,0.5,0.6,0.6,0.8,1      c-0.1,0.8,0.3,1,0.7,1.2c0.8-0.6,0-2.2,0.4-3.3c0.3-0.3,0.7-0.4,1.1-0.6c0.3-0.7,0.6-1.4,1.1-1.9c0.2-1.2-0.3-2.4,0-3.2      c-0.2,0.8,0.3,0.9,0.4,1.4c0,0.9,0.1,1.8,0.7,2c0.3-0.3-0.1-0.4,0-0.9c0.4,0,0.3,0.2,0.5,0c0-0.5-0.4-0.5-0.3-1      c-0.5-0.1-0.6-0.6-0.8-1c-0.1-0.5,0.1-1.2-0.4-1.3c-0.3,0,0,0.6-0.4,0.6c-0.2-1.1-1.2,0.7-1.5-0.4c0.1-0.3,0.3-0.5,0.5-0.7      c0.2-0.5,0.1-1.1,0.6-1.3c0.3,0.4,0.2-0.2,0.7-0.1c0.6,0.1,1.2,0.4,2,0.3c0,0.2,0.1,0.3,0.3,0.3c0.2-0.2,0.6-0.1,1-0.1      c0.1-0.5-0.2-0.5-0.1-1c0.3,0,0.3-0.4,0.5-0.4c0.3,0.1,0.3,0.4,0.5,0.4c-0.1-0.3,0.4-0.8,0.5-0.4c-0.4,0.9-1.1,1.6-1.2,2.9      c0.1,0.4,0.4,0.6,0.5,0.9c0.1,0.6,0.2,1.1,0.6,1.3c0.3-0.4,0.5-0.9,0.9-1.2c-0.1-0.7,0.4-0.6,0.1-1.2c0-0.3,0.4-0.3,0.4-0.6      c-0.2-0.2-0.6-0.1-0.5-0.6c0.1-1.3,1-1,2-0.9c0.2-0.2,0.2-0.7,0.4-0.9c0.8-0.1,1.4-0.5,1.9-0.4      C670,258.6,669.4,258.7,669.4,258.1z M623.6,259.7c0.3,0.3,0.6,0.5,1.1,0.6c0,0.5,0,1,0,1.4c-0.3-0.1,0.1-0.8-0.5-0.6      c-0.3,0.5-0.1,1.5-0.5,1.9c-0.5,0-0.8-0.1-1.1,0c-0.4,0.1-0.5,0.4-0.8,0.4c0-0.2-0.4-0.5-0.4-0.1c-0.3,0-0.3-0.4,0-0.4      c-0.3-0.3-0.5-0.8-0.6-1.4c0.7,0.1,0.4,2,1.6,1.4c0.3-0.6,0.5-1.3,0.8-1.9c0-0.3-0.2-0.6-0.3-0.9c0.1-1.4,1-1.8,1.5-2.7      c0.2,0,0.2,0,0.3,0.1C624.5,258.5,623.4,258.4,623.6,259.7z M625.1,260.7c0-0.4,0.5-0.4,0.8-0.4      C625.9,260.7,625.5,260.7,625.1,260.7z M626.2,255.1c-0.1-0.1,0.1-0.2,0.1-0.1C626.4,255,626.2,255.1,626.2,255.1z M628.6,275.8      c-0.1-0.1,0.1-0.2,0.1-0.1C628.8,275.8,628.6,275.9,628.6,275.8z M628.7,258c-0.1-0.1,0.1-0.2,0.1-0.1      C628.9,257.9,628.8,258,628.7,258z M638.8,255.7c-0.3-0.1-0.6-0.1-0.6-0.4c-0.4,0,0.1-0.6,0,0      C638.4,255.4,638.9,255.2,638.8,255.7z M647.3,253.1c-0.1-0.1,0.1-0.2,0.1-0.2C647.5,253,647.3,253.1,647.3,253.1z M647.7,252.9      C647.6,252.8,647.8,252.7,647.7,252.9C647.9,252.8,647.7,253,647.7,252.9z M648.1,252.6c-0.1-0.1,0.1-0.2,0.1-0.2      C648.3,252.6,648.1,252.7,648.1,252.6z M654.2,270.8c0.2-0.3,0.3-0.6,0.8-0.6c0,0.2-0.1,0.5,0.1,0.6      C655,271.2,654.6,270.7,654.2,270.8z"/>
				<path class="st7" d="M605.8,287.8c-0.2-0.3-0.4,0.1-0.7,0.1c-0.2-0.5-0.7-0.7-1.2-0.9c-0.3,0-0.6,0-1,0      c-0.2-0.4-1.2-0.1-1.2-0.7c-0.4,0-0.8,0.1-0.8-0.3c0.4-0.7-0.4-2.5-1.6-1.9c-0.4-0.3-0.7-0.7-0.8-1.3c-0.7-0.2-1.2-0.6-1.9-0.9      c-0.2,0.1-0.2,0.2-0.4,0.3c-0.2-0.5-0.9-0.5-1-1.2c-0.4-0.1-0.3,0.4-0.5,0.4c-0.3-0.1-0.4-0.5-0.7-0.6c-0.1,0.3-0.2,0.5-0.7,0.4      c-0.2,0.6-0.8,0.8-1.1,1.3c0-0.5-0.2-0.7-0.6-0.7c-0.3,0.2-0.5,0.5-1,0.6c-0.3-0.7,0.1-1.4,0-2.3c-0.3-0.5-1.2-0.3-1.6-0.6      c0.1-0.6,0.5-1,0.4-1.9c-0.7,0.1-0.7,0.1-1.4,0c-0.3,0.3-0.1,1-0.5,1.1c-1.8,0.1-0.7-2.5-1.1-3.6c0.5-0.1,0.8-0.4,1.2-0.6      c0.8-0.1,0.9,0.5,1.6,0.4c0-0.2,0-0.4,0.1-0.4c0.7,0,1.5-0.2,1.6,0.4c-0.1,0.8,0.3,1.2,0.9,1.3c-0.2-0.7-0.1-1,0-1.5      c-0.1-0.2-0.4-0.4-0.4-0.7c0.2-0.9,0.8-1.5,1.8-1.7c0.1-0.4,0.1-0.4,0-0.9c0.3,0,0.5,0,0.7-0.1c-0.3-0.8,0.4-0.6,0.3-1.6      c0.5-0.2,0.9-0.4,1.4-0.6c0.1-0.5-0.4-0.3-0.3-0.9c0.5-0.4,1.2-0.6,1.9-0.9c0.1,0.4-0.3,0.3-0.3,0.6c0.5-0.2,1.1-0.4,1.5-0.9      c-0.3-0.2-1-0.1-1-0.7c0.1-0.4,0.5-0.4,0.8-0.6c0.1-0.4-0.3-0.3-0.1-0.7c0.7,0.5,1.4-0.7,1.9-0.4c-0.3,0.8-1,1.2-1.2,2      c0.5,0.1,0.6-0.2,1.1-0.1c0,0.2-0.1,0.5,0.1,0.6c0.1-0.4,0.5,0.2,1,0c-0.1-0.3-0.3-0.7,0-1c-0.5,0-0.6-0.5-0.8-0.9      c0-0.9,0-1,0-1.9c-0.3-0.3-0.3,0-0.7,0c0-0.7-0.6-0.7-0.7-1.3c0.1-0.1,0.1-0.3,0.1-0.6c-0.5-0.3-0.3-1.4-1.1-1.4      c-0.1,0.2,0.2,0.7-0.1,0.7c-0.3-0.1-0.9,0.2-1-0.2c0-0.5,0-1,0-1.4c-0.7,0.3-0.6-0.3-1.2-0.4c-0.4,0.4-0.3-0.2-0.7-0.1      c-0.3-0.1-0.3,0.3-0.7,0.1c0.2,1.4-0.4,2.2-0.1,3.3c-0.2,0-0.7-0.4-0.8,0c0.1,0.4,0.5,0.1,0.5,0.3c-0.5,0.3-0.5,1.1-0.7,1.7      c-0.3-0.5-0.4-1.2-0.5-1.7c-0.3-0.3-0.3,0.1-0.5,0.1c-0.1-0.4-0.2-0.2-0.6-0.1c-0.4-0.4-0.9-0.8-1.5-1c0.2-0.7-0.5-0.5-0.4-1      c0.3,0.1,0.3-0.2,0.3-0.4c0.4-0.2,0.6-0.8,1.1-1c0.3-0.5,0.5-1.1,1.2-1.2c0-0.3-0.2-0.3-0.1-0.6c0.9-0.2,1.4-0.3,2-0.6      c0-0.6,0-1.1,0.1-1.4c-0.2-0.2-0.5-0.2-0.7-0.4c0.5,0,1,0,1.2,0.3c0.3-0.4,0.7,0.2,1.1,0c-0.2,0.7,0.6,0.4,0.5,1      c-0.1,1.1-1.6,0.7-1.8,1.7c0.2,0.3,0.8,0.3,1.4,0.3c0.8,0.4,1.2,1.4,2.3,1.4c-0.3-0.7,0.2-0.7,0.1-1.6c-0.1-0.4-0.4-0.4-0.4-0.9      c0.5,0,0.7,0.5,1.1,0.6c0-0.4,0-0.7,0.4-0.6c-0.1-0.4,0.1-0.5,0.1-0.9c-0.4,0.1-0.3-0.3-0.4-0.4c-0.5-0.1-0.8-0.3-1.2-0.4      c0-0.3,0.4-0.3,0.4-0.6c-0.2-0.3-0.6-0.4-0.6-1c-0.4,0-0.8,0-1.2,0c0.1-0.5-0.4-0.4-0.4-0.7c-0.6-0.1-0.9,0.1-1.4,0.1      c0.1-0.9-1.1-0.6-1.2-0.1c0-0.5-0.1-0.8-0.5-0.9c-0.7,0.5-1.5,1.9-0.7,2.7c0.2,0.1,0.7-0.2,0.7,0.1c-0.1,0.4-0.4,0.7-0.7,1      c-0.3-0.4,0.3-0.3,0.1-0.9c-0.5-0.3-0.9-0.7-1.1-1.3c-0.5,0.1-0.4-0.5-1.1-0.3c0,0.3-0.3,0.3-0.1,0.7c0.5,0.2,0.3,1.3,0,1.6      c-0.2-0.1-0.3-0.4-0.3-0.7c-0.7-0.1-0.7,0.5-1.2,0.6c-0.5-0.2-1.1-0.4-1.4-0.9c0.6-0.1,0.8,0.2,1.4,0.1c0.3-0.3-0.1-0.4,0-0.9      c0.8-0.2,1.1-0.8,1.8-1c-0.3-0.4-0.2-0.8-0.3-1.1c-0.7,0-1.4,0-2,0c-0.3,0.4-1,0.4-1.1,1c-0.1-0.2-0.2-0.4-0.3-0.6      c-0.4,0-0.8,0.1-0.7-0.4c1,0.2,2.2-0.5,3.1-0.9c0,0.7,1.2,0.5,1.4,0.1c-0.1-0.3-0.1-0.7-0.3-1c-0.8,0.1-1.2,0.7-2,0.7      c0-0.3,0-0.6,0-0.9c-0.7-0.3-0.9,0.7-0.4,0.9c-0.8,0.1-1.2-0.2-1.9-0.1c0.2,0.7-0.6,0.4-0.7,0.9c0.3,0.2,0.4-0.1,0.5,0.1      c-0.1,0.2-0.3,0.3-0.5,0.3c-0.2-0.8-1.3-0.7-2.3-0.7c-0.1,0.7-0.4,1.1-0.8,1.4c0,0.5,0.4,0.5,0.3,1c0.7,0,1-0.3,1.5-0.4      c-0.3,0.8,0.7,0.2,0.8,0.6c0.1,0.4-0.6-0.1-0.6,0.3c0,0.8,1.5,0,1.2,1c0.5-0.3,0.7-0.2,1.2,0h0.1c0-0.2,0.4-0.5,0.4-0.1      c0,0.2-0.2,0.2-0.4,0.1c0,0.4,0.6,0.8,0,1c-0.2,0-0.1-0.3-0.1-0.4c-1.2-0.1-1.8-0.9-3.3-0.7c-0.4-0.1-0.4-0.7-0.9-0.7      c-0.1,0.4-0.4,0.5-0.8,0.6c0-0.3,0-0.6-0.1-0.7c-0.5,0-0.5,0.6-1.1,0.6c-0.5,0.1-0.7-0.2-1.1-0.1c-0.2,0-0.1,0.3-0.3,0.3      c-0.1,0-0.1-0.2-0.1-0.3c-0.3,0-0.5,0.2-1,0.1c-1.1-0.7-3.2-0.4-4.4-1c-1,0.5-2.3,0.6-3,0.7c-0.3,0.6,0.2,0.6,0.4,1      c0.5-0.1,0.9,0.1,1,0.4c-0.6-0.2-0.5,0.3-0.7,0.4c-0.2-0.1-0.4-0.4-0.7-0.4c-0.5,0.6-1.8,0.3-2.2,1c0.8,0,1,0.5,1.1,1.2      c0.7-0.3,1.3,0,1.9-0.2c-0.7,1.3-3.5,0.2-3.3,2.5c0.5,0.4,0.6,0.4,0.4,1.2c0.2,0,0.3-0.2,0.5-0.1c0,0.2-0.1,0.6,0.1,0.6      c0.2-0.5,0.1,0.6,0.4,0.4c0.2-0.6,0.8-0.7,1.2-0.3c-0.6,0.5-0.8,1.4-1.5,1.7c-0.6,0.2-0.8,0.8-1.6,0.9c0.1,0.5-0.2,0.4-0.3,0.7      c0.6,0.1,0.8-0.3,1.5-0.1c0.1-0.4,0.6-0.5,1.1-0.6c0.5-1,1.4-1.6,2.2-2.3c0.1,0,0.2,0,0.3,0c0.1-0.1,0-0.5,0.4-0.4      c0-0.1,0-0.2,0.1-0.1c0,0.1,0,0.2-0.1,0.1c0.1,0.6-0.4,0.8-0.5,1.1c1.1,0.1,1.4-0.6,2.3-0.7c0.1-0.6-0.1-1.1-0.1-1.6      c0.6,0.1,0.7-0.4,1.2-0.3c0.4,0.3,0.7,0.6,1,1c0.9,0.3,1.6,0.7,1.5,2c0.7-0.1,0-0.8,0.6-0.9c0,1.2,0,2.5,0.4,3.3      c-0.4,0.4-0.1,0.5,0,1c0,0.3-0.4,0.2-0.3,0.6c-0.1,1.6-0.1,2.6,0,4.2c0.4,0.2,0.6,0.6,1,0.9c0.4,0.6,0.3,1.5,0.8,2      c-0.2,0-0.1,0.3-0.1,0.4c0.6,0.2,0.7,0.9,1,1.4c0.4-0.1,0.4,0.3,0.8,0.1c0-0.6-0.3-0.5-0.3-1.3c-0.1,0-0.1-0.1,0-0.1v0.1      c0.3-0.1,0.3,0.2,0.3,0.4c0.4,0.3,0.8,0.7,1.1,1.2c-0.1,1,0.3,1.5,0.5,2.2c1.1,0.3,1.8,1,3.1,0.7c0.2,0.4,0.3,0.7,0.5,1      c0.5-0.1,0.7,0.2,1.1,0.1c0.1,0.3,0.4,0.5,0.7,0.7c0,0.1,0,0.3,0,0.4c0.8,0.1,0.9,0.8,1.6,1c0.1-0.2,0.1-0.5,0.4-0.6      c0.1,0.5,0.3,0.9,0.4,1.3c0,0.3-0.4,0.2-0.3,0.6c0.1,0.8-0.4,0.9-0.5,1.4c-0.3,1,0.6,1.5,0,2c0.2,0.3,0.7,0.3,1,0.6      c-0.1,0.2-0.4,0.2-0.7,0.3c-0.1,1.2,0.5,1.6,1.2,1.9c0.1,0.3-0.3,0.3-0.1,0.7c0.5,0.4,0.7,1.2,1.5,1.3c0.3,0.6,0.7,1.1,0.7,2      c-0.1,0.2-0.1,0.5-0.3,0.7c0.2,0.1,0.2,0.3,0.3,0.6c-0.4,0.7,0.2,1.4,0,2.3c-0.7,0.5-0.4,2.1-0.7,3c0.2,0.4,0.6-0.2,0.7,0.1      c0.1,0.7-0.5,0.7-0.7,1c-0.2,0.5,0.4,0.1,0.3,0.6c-0.3,0.3,0.1,0.7-0.1,1.2c0.1,1,0.6,1.5,0.3,2.3c0.4,0.3,0.3,1.2,0.8,1.4      c0,0.3,0.2,0.3,0.1,0.6c0.3,0.1,0.6,0.3,0.8,0.4c0.5-0.1,1.4,0.2,1.5-0.3c-0.4-0.1-0.6-0.3-0.8-0.6c0.1-0.5-0.5-0.2-0.4-0.7      c0-0.6,0.4-0.7,0.4-1.3c0.4,0,0.5-0.2,0.6-0.6c0.1-0.5-0.5-0.4-0.4-0.9c0.4-0.4,0.9-1.9,0-2c0.9,0.2,0.9-0.5,1.1-1      c0.7,0.1,1-0.4,1.5-0.6c0.1-0.7-0.2-0.9-0.3-1.4c0.4,0,0.7,0,1.1,0c0-0.1,0.2-0.1,0.3-0.1c0.1-0.4,0.1-0.7,0.6-0.7      c-0.1-0.8,0.5-1,0.8-1.4c0-0.3,0-0.7,0-1c0.3-0.3,0.4-0.6,0.7-0.9c0.6-0.2,0.6-0.2,1.2-0.4c0.1-0.9,0.7-1.7,0.3-2.7      c0.2-0.1,0.3-0.4,0.3-0.7c0.2,0.1,0.2-0.1,0.4-0.1c0-0.5,0.4-0.6,0.5-1c0.4-0.4,0-0.7,0.4-0.9c-0.1-0.4,0.1-0.5,0.1-0.9      C606.1,288.5,606,288.2,605.8,287.8z M599.6,263.9c0.1,0.1-0.1,0.2-0.1,0.1C599.4,263.9,599.5,263.8,599.6,263.9z M589.1,252.6      c0.4,0.1-0.1,0.4-0.1,0.6C588.5,253.1,589,252.7,589.1,252.6z M588.5,253.3c0.4-0.1,0.5,0.3,1,0.1c0,0.6-0.5,0.6-1,0.7      C588.5,253.9,588.5,253.6,588.5,253.3z M584.3,253.6c-0.1-0.1,0.1-0.2,0.1-0.2C584.5,253.6,584.3,253.7,584.3,253.6z       M581.4,274.4C581.4,274.2,581.5,274.3,581.4,274.4C581.6,274.6,581.4,274.5,581.4,274.4z M581.6,274.7c0.3,0,0.3,0.4,0.5,0.6      C582,275.6,581.5,275.1,581.6,274.7z"/>
				<path class="st7" d="M633.7,254.8c-0.2-0.7-0.8-0.8-0.7-1.9c1-0.1,1.3-0.8,2.1-1.2c0.9,0.1,1.3-0.3,1.4-1c-0.2,0-0.5,0-0.7,0      c0,0.1,0,0.3-0.1,0.3c-1,0.1-1.8,0.5-2.6,0.9c0.1,0.7-0.7,0.7-0.5,1.4c-0.2,0.3-0.5,0.4-0.5,0.9c0.4,0.3,0.9,0.6,1.4,0.9      C633.3,254.9,633.4,254.8,633.7,254.8z"/>
				<path class="st7" d="M656.4,252.2c0.3-0.2,0.5-0.6,0.8-0.9c-0.5-0.1-0.6-0.7-1.1-0.6c-0.1,0-0.1,0.3-0.3,0.3c-0.3,0-0.5,0-0.8,0      C654.9,252.1,656,251.7,656.4,252.2z"/>
				<path class="st7" d="M612.9,258.7c0-0.4,0.5-0.2,0.7-0.4c0.2-0.7-0.3-0.8-0.3-1.4c-0.6,0.2-0.8-0.1-1.4,0.1      c-0.4-0.1-0.3-0.6-0.8-0.6c0.2,0.7-0.5,0.5-0.5,1c0.4,0.1,0.4-0.2,0.7-0.1c-0.1,0.3-0.5,0.3-0.4,0.9c0.7-0.2,0.5,0.5,1,0.6      C612,258.4,612.8,258.5,612.9,258.7z"/>
				<path class="st7" d="M594.3,258.7c-0.5-0.2-0.2-0.4-0.5-0.7c-0.4,0.1-0.4-0.3-0.8-0.1c-0.2,0.3-0.1,0.9-0.7,0.7      c0,0.5,0.4,0.6,1,0.6C593.1,258,594.1,259.6,594.3,258.7z"/>
				<path class="st7" d="M618.3,263.9c-0.2-0.1-0.4-0.2-0.6-0.4c0.2-0.9-0.9-1-0.4-1.7c-0.2-0.1-0.4-0.2-0.5-0.4      c0.2-0.1,0.4-0.2,0.4-0.6c-0.5,0-0.8,0.2-1.1,0.3c0.1,0.8-0.2,1.1-0.1,1.9c0.3,0.2,0.5,0.2,0.7,0.3c0.1,0.5-0.5,0.8-0.7,0.6      c-0.1,0.7,0.1,1,0.3,1.3c-0.2,0.1-0.7,0-0.7,0.4c0.7-0.1,1.4-0.2,2.2-0.1C617.8,264.7,617.7,264.3,618.3,263.9z"/>
				<path class="st7" d="M614.6,264.4c0.3-0.2,0.8-0.1,1.1-0.3c-0.2-0.6,0-0.6,0-1.3c-0.2,0-0.5,0-0.7,0c0,0.6-0.3,0.2-0.5,0.4      C614.4,263.7,614.4,264.2,614.6,264.4z"/>
				<path class="st7" d="M661.3,268.6c0.3,0,0.1,0.5,0.4,0.4c0.3-0.4,0.3-1.1,0.8-1.2c-0.7-0.1-1.2-0.5-1.9-0.6      c0.1,0.7-0.1,1-0.1,1.6C660.9,269.3,660.8,268.5,661.3,268.6z"/>
				<path class="st7" d="M658.2,273.1c0,0.5,0.3,0.6,0.5,0.9c0.1-0.5,0.4-0.8,0.8-1c0.2,0,0.3,0.1,0.4,0.1c0.4-0.6,1.3-0.6,1.8-1.2      c0-1-0.3-1.8-0.3-2.9c-0.2,0-0.4,0-0.6,0c0.2,0.7-0.1,1,0.1,1.7c-0.1,0-0.2,0.1-0.1,0.3c-0.5,0.2-0.7,0.4-1.2,0.9      c-0.5,0.3-1.3,0.1-1.4,0.9c-0.1,0.4,0.7-0.1,0.7,0.3C658.7,273.1,658.5,273.1,658.2,273.1z"/>
				<path class="st7" d="M624.9,271.9c0,0.4,0.5,0.1,0.8,0.4c0.1-0.5-0.2-0.6-0.7-0.6C625.1,271.9,625,271.9,624.9,271.9z"/>
				<path class="st7" d="M655.3,276.8c0.2,0.2,0.3,0.5,0.4,0.9c0.6,0,0.5-0.7,0.6-1.3C655.9,276.1,655.5,276.5,655.3,276.8z"/>
				<path class="st7" d="M592.2,276.4c0,0.2,0,0.4,0,0.6c0.2,0,0.4,0,0.5,0C592.7,276.6,592.6,276.4,592.2,276.4z"/>
				<path class="st7" d="M593.7,277.1c0-0.3,0-0.6-0.1-0.7c-0.1,0-0.3,0-0.4,0C593.1,276.9,593.2,277.2,593.7,277.1z"/>
				<path class="st7" d="M593.8,277c0,0.2,0,0.5,0,0.7c0.3,0.1,0.4-0.1,0.5-0.2C594.4,277.2,594.2,277,593.8,277z"/>
				<path class="st7" d="M593.6,279.3c0.5-0.1,0.7,0.2,1,0.3c0-0.4,0.6-0.3,0.9-0.3c-0.2-1-0.9-0.8-1.8-0.9c0.1-0.4-0.3-0.3-0.3-0.6      c-0.3-0.2-0.7-0.2-0.8-0.6c-0.7,0-1.4,0-2,0c-0.1,0.3-0.3,0.4-0.3,0.7c0.6,0.1,0.5-0.5,1.2-0.3c0.6,0.1,0.6,0.8,1.2,0.9      c0.3,0.1,1-0.2,1.1,0.1C593.3,278.7,593.5,278.9,593.6,279.3z"/>
				<path class="st7" d="M594.9,277.7c0-0.2-0.3-0.1-0.5-0.2C594.1,278.1,595.1,278.2,594.9,277.7z"/>
				<path class="st7" d="M655.9,279.3c0.2,0.3,0.5,0.6,0.8,0.9c0.2-0.4,0.6-0.6,0.6-1.3C656.9,278.3,655.8,278.6,655.9,279.3z"/>
				<path class="st7" d="M652.6,279.7c0.4-0.1,0.4-0.6,0.6-0.9c-0.1-0.1-0.3-0.2-0.6-0.1C652.3,279.3,652.4,278.8,652.6,279.7z"/>
				<path class="st7" d="M592.1,279c0,0.2,0,0.4,0,0.6c0.5-0.2,0.5,0,1-0.1C593.1,278.9,592.5,279,592.1,279z"/>
				<path class="st7" d="M595.8,279.6c0.5,0,0.9,0,0.8-0.6c-0.3,0-0.5,0-0.8,0C595.8,279.2,595.8,279.4,595.8,279.6z"/>
				<path class="st7" d="M610.1,279.6c0,0.3-0.4,0.2-0.3,0.6c0.2,0,0.4,0,0.5,0C610.4,279.8,610.3,279.6,610.1,279.6z"/>
				<path class="st7" d="M657,281.9c0.3,0.3,0.4-0.1,0.8,0c0,0.3-0.3,0.6,0.1,0.7c0.2-0.4,0.6-0.6,1.2-0.6c0.1-0.7-0.4-0.6-0.7-0.9      c0-0.5-0.2-0.7-0.5-0.7c-0.2,0.2-0.1,0.6-0.1,1C657.3,281.2,657.2,281.5,657,281.9z"/>
				<path class="st7" d="M643.5,282.3c0.2,0.9-0.5,1,0,1.4c0.4,0.1,0.4-0.4,0.7-0.4C644,282.9,643.7,282.6,643.5,282.3z"/>
				<path class="st7" d="M652.4,286.2c0.1,0.6,0.7,0.7,0.7,1.4c0.9-0.2,0.7,0.6,1.6,0.4c0-0.3,0.4-0.2,0.4-0.4c-0.1,0-0.3,0-0.3-0.1      c0.4-0.2,0.2-1.1,0.7-1.3c-0.3-0.5,0.1-1-0.1-1.3c0.2-0.1,0.5-0.3,0.4-0.7c-0.3-0.3-0.6-0.6-1.2-0.6      C654.5,285.1,652.7,284.8,652.4,286.2z"/>
				<path class="st7" d="M649.9,285.2c-0.2-0.3-0.6-0.6-0.5-1c-0.4,0.1-0.3-0.3-0.5-0.3c0,0.6-0.3,0-0.7,0.1c0,1.7,1.9,1.3,1.6,3.3      c0.7,0.1,0.9,1,1.5,0.7c0.3-0.5-0.3-1.2-0.3-1.9C650.5,285.9,650.1,285.5,649.9,285.2z"/>
				<path class="st7" d="M657.5,286.4c0-0.6-0.9-0.4-1.1-0.9c-0.7,0.6-1.2,2.2-0.1,2.7c0-0.4,0-0.7,0.3-0.9c0.3,0.3,0.3,0.7,0.8,0.4      c-0.1-0.6-0.5-0.8-0.5-1.4C657,286.5,657.3,286.5,657.5,286.4z"/>
				<path class="st7" d="M660.5,285.8c-0.4-0.3-1.5-0.2-1.5,0.4C659.5,286.5,660.5,286.4,660.5,285.8z"/>
				<path class="st7" d="M662,286.4c-0.3,0-0.6,0-0.9,0c-0.1,0.2-0.2,0.5-0.5,0.4c-0.4,0.1-0.3-0.4-0.7-0.3c0,0.4-0.5,0.1-0.4,0.6      c0,0.3,0.3-0.2,0.7,0c0.6,0.5,1.4,0.8,1.9,1.4c0,0.3,0,0.6,0,0.9c0.7-0.5,0.9,0.3,1.5,0.4c0.5,0,0.3-0.7,1-0.6      c0.3,0.2,0.7,1.1,1.2,0.6c-0.3-0.1-0.4-0.4-0.4-0.9c-0.4-0.3-0.9-0.5-1.1-1c0-0.1,0-0.3,0-0.4      C663.1,287.5,662.8,286.6,662,286.4z"/>
				<path class="st7" d="M654.8,289.7c0.1-0.5-0.5-0.4-0.4-0.9c-1.1,0-1.9-0.3-2.7-0.6c-0.1,0.3-0.4,0.4-0.3,0.9      C652.7,289.1,653.3,289.8,654.8,289.7z"/>
				<path class="st7" d="M664.8,295.3c0.1-0.7-0.2-1-0.1-1.7c-0.3-0.1-0.3-0.4-0.6-0.6c0-1.1-1-1.3-0.8-2.6c-0.3,0-0.3-0.2-0.5-0.1      c-0.4,0.6,0.1,2.1-0.4,2.5c-0.5,0.2-0.3-0.5-0.8-0.3c0-0.4-0.6-0.2-0.5-0.7c-0.1-0.5,0.7,0,0.5-0.6c-0.5-0.6-1.9-0.1-2.6-0.4      c-0.2,0.1,0,0.7-0.3,0.7c-0.5,0.1-1,0.2-1.4,0.4c-0.2,0.4,0,1.2-0.5,1.3c-0.3-0.3-0.7,0-1.1,0c-0.3,0.1,0,0.8-0.3,0.9      c-0.3-0.1-0.3-0.4-0.5-0.1c-0.3,0.4-0.2,1.3-0.7,1.4c-0.3,0.2-0.9,0.1-1.1,0.4c0.1,0.6,0.5,1.4,0.1,2.2c0.3,0.1,0.3,0.4,0.4,0.7      c0.1,0.7-0.2,0.9-0.1,1.6c0.4,0,0.4,0.3,0.8,0.3c0.6-0.3,0.9-0.8,1.9-0.6c0.5-0.6,1.4-0.8,2.6-0.7c0.4,0.3,0.6,0.8,0.8,1.3      c0.5-0.3,0.4,0.3,1,0c0,0.4,0.1,0.8-0.1,1c0.9,0.5,1.4,0.6,2.7,0.6c0.3-0.3,0.6-0.6,1.1-0.7c-0.1-0.7,0.7-0.6,0.5-1.4      c0.5,0,0.4-0.7,0.8-0.7c-0.2-0.5,0.2-0.8,0.3-1.3c0.1-0.9-0.3-1.8-0.4-2.6C665.2,295.1,665,295.7,664.8,295.3z"/>
				<path class="st7" d="M633.1,290.7c-0.2,0.4-0.5,0.9-0.5,1.4c-0.6,0.1-0.9,0.6-1.2,1c-0.1,0.5,0.2,0.6,0.1,1      c-0.1,0.3-0.2,0.6-0.4,0.9c0.3,0.7-0.1,1.2,0.4,1.7c0.4,0,0.6-0.3,1.1-0.1c0.3-0.6,0.2-0.9,0.5-1.6c0-0.2,0-0.5,0-0.7      c0-0.2,0.1-0.2,0.3-0.3c-0.3-0.6,0.3-1.2,0.3-2.3C633.1,291.7,633.7,290.6,633.1,290.7z"/>
				<path class="st7" d="M672.4,300.5c0-0.4,0-0.8-0.4-0.7c0,0.4,0,0.8,0,1.1c-0.1,0.4-0.7,0.4-0.5,1c0.9-0.1,0.3,0.4,0.3,0.9      c0.9,0,0.9-1,1.2-1.6c0.2-0.2,0.6-0.3,0.7-0.6C673.3,300.2,673,300.5,672.4,300.5z"/>
				<path class="st7" d="M670.9,302.2c-0.1,0.3-0.4,0.4-0.4,0.9c-0.2,0-0.4,0-0.6,0.1c-0.2,0.3-0.3,0.7-0.7,0.9      c-0.6,0.2-0.7,0.9-1,1.5c0.4-0.2,0.7-0.1,1.2,0c0.1-0.3,0.5-0.4,0.4-1c0.2,0,0.4,0,0.6,0c0-0.8,1.1-0.6,1.1-1.4      C671.5,302.6,671.1,302.4,670.9,302.2z"/>
				<path class="st7" d="M661.6,302.6c-0.2,0.2,0.5,0.9,0.5,1.3c0.7-0.1,1.1-0.4,1-1.3C662.5,302.7,661.8,302.4,661.6,302.6z"/>
				<path class="st7" d="M599.8,307.1c0.2,0,0.4,0,0.6,0C600.5,306.5,599.8,306.6,599.8,307.1z"/>
			</g>
			<g>
				<path class="st5" d="M674.3,258.3c5.1,0,9.3-4.1,9.3-9.3c0-5.1-4.1-9.3-9.3-9.3h-11.5c-5.1,0-9.3,4.2-9.3,9.3s4.1,9.3,9.3,9.3      H674.3z"/>
				<g>
					<g>
						<path class="st7" d="M663.5,257.1L663.5,257.1L663.5,257.1c-2.1,0-4.1-0.9-5.6-2.4c-1.5-1.5-2.3-3.6-2.3-5.7c0-4.4,3.6-8,8-8        c4.4,0,8,3.6,8,8.1C671.5,253.5,667.9,257.1,663.5,257.1z M663.5,242.3c-3.7,0-6.7,3-6.7,6.8c0,1.8,0.7,3.5,1.9,4.8        c1.3,1.3,2.9,2,4.7,2v0.7V256c3.7,0,6.7-3,6.7-6.7C670.2,245.4,667.2,242.3,663.5,242.3z"/>
					</g>
					<g>
						<path class="st7" d="M674.1,257.2L674.1,257.2L674.1,257.2c-4.4,0-8-3.6-8-8.1c0-4.4,3.6-8.1,8-8c4.4,0,8,3.6,8,8.1        C682.1,253.6,678.5,257.2,674.1,257.2z M674.1,242.3c-3.7,0-6.7,3-6.7,6.7s3,6.8,6.7,6.8v0.6v-0.6c3.7,0,6.7-3,6.7-6.7        C680.8,245.4,677.8,242.3,674.1,242.3z"/>
					</g>
					<g>
						<path class="st7" d="M663.5,256.9L663.5,256.9L663.5,256.9c-0.6,0-1.2-0.3-1.6-0.8c-1.3-1.3-2-4-2-7.1c0-4.5,1.6-7.8,3.7-7.8        c2.1,0,3.7,3.4,3.7,7.9C667.2,253.6,665.6,256.9,663.5,256.9z M663.5,242.5c-1,0-2.4,2.5-2.4,6.6c0,3.1,0.8,5.4,1.7,6.2        c0.3,0.3,0.5,0.4,0.7,0.4l0,0c1,0,2.4-2.5,2.4-6.5C665.9,245,664.5,242.5,663.5,242.5z"/>
					</g>
					<g>
						<polygon class="st7" points="670.8,249.7 656.2,249.7 656.2,248.4 670.8,248.4       "/>
					</g>
					<g>
						<g>
							<polygon class="st7" points="669.6,246.3 657.4,246.3 657.4,245 669.6,245        "/>
						</g>
						<g>
							<polygon class="st7" points="669.6,253.2 657.4,253.2 657.4,251.9 669.6,251.9        "/>
						</g>
					</g>
				</g>
			</g>
			<rect x="598.3" y="246.1" class="st5" width="49.7" height="7"/>
		</g>
		<g>
			<path class="st8" d="M567.9,271.6c-1.2,0-2.3-1-2.3-2.3v-13.8c0-1.3,1-2.3,2.3-2.3h15.2c1.3,0,2.3,1,2.3,2.3v13.8     c0,1.3-1,2.3-2.3,2.3H567.9z"/>
			<g>
				<path class="st9" d="M583.1,253.5h-2.9v3.9h4.8v-1.9C585.1,254.4,584.2,253.5,583.1,253.5z"/>
				<path class="st9" d="M573,264.5v-2.2h-7v4.2h5.1C572.1,266.5,573,265.6,573,264.5z"/>
				<path class="st9" d="M571.1,257.8L571.1,257.8L571.1,257.8H566v4.2h7v-2.2C573,258.7,572.1,257.8,571.1,257.8z"/>
				<path class="st9" d="M573.4,259.6h4.5c0.1-1.1,0.9-2,2-2.2v-3.9h-8.5v3.9C572.5,257.6,573.3,258.5,573.4,259.6z"/>
				<rect x="573.4" y="260" class="st9" width="4.5" height="4.5"/>
				<path class="st9" d="M577.9,264.9h-4.6c-0.1,1-1,1.9-2,2v4.4h8.5v-4.4C578.9,266.7,578.1,265.9,577.9,264.9z"/>
				<path class="st9" d="M578.3,264.5c0,1.1,0.9,2,2,2h4.9v-4.2h-6.8v2.2H578.3z"/>
				<path class="st9" d="M580.3,257.8L580.3,257.8c-1.1,0-2,0.9-2,2v2.2h6.8v-4.2H580.3L580.3,257.8z"/>
				<path class="st9" d="M571,253.5h-3.1c-1.1,0-1.9,0.9-1.9,2v1.9h5V253.5z"/>
				<path class="st9" d="M566,269.3c0,1.1,0.9,2,1.9,2h3.1v-4.4h-5V269.3z"/>
				<path class="st9" d="M580.3,271.3h2.9c1.1,0,2-0.9,2-2v-2.4h-4.8v4.4H580.3z"/>
			</g>
		</g>
		<g>
			<g>
				
					<rect x="591.2" y="297.7" transform="matrix(1 -2.393279e-03 2.393279e-03 1 -0.7137 1.4657)" class="st5" width="41.7" height="2.5"/>
			</g>
			<g>
				
					<rect x="599.6" y="291.2" transform="matrix(1 -5.999868e-03 5.999868e-03 1 -1.7401 3.6775)" class="st5" width="24.9" height="1.3"/>
			</g>
			<g>
				<rect x="563.7" y="287.7" class="st5" width="7.5" height="1.3"/>
			</g>
			<g>
				<rect x="563.7" y="309.6" class="st5" width="59.3" height="2.5"/>
			</g>
			<g>
				<rect x="593.8" y="281.5" class="st5" width="26.3" height="2.5"/>
			</g>
			<g>
				<polygon class="st5" points="563.7,284.1 563.7,281.5 590,281.5 590,284.1     "/>
			</g>
			<g>
				<rect x="624" y="281.5" class="st5" width="26.3" height="2.5"/>
			</g>
			<g>
				<polygon class="st5" points="654.1,284.1 654.1,281.5 680.4,281.5 680.4,284.1     "/>
			</g>
		</g>
	</g>
	<g>
		<path class="st10" d="M617.8,178c0,3.5,2.9,6.4,6.4,6.4l1.6-3c3.5,0,6.4-5.3,6.4-8.9v-2.4c0-3.5-2.9-6.4-6.4-6.4h-1.6    c-3.5,0-6.4,2.9-6.4,6.4V178z"/>
		<path class="st10" d="M630.9,169.9c0.4-0.1,0.9-0.1,1.3-0.1c0,0.5,0,1.1,0.1,1.7c0.8,5.4,5.6,9.3,11,9.1c-0.1,5.2-4,9.7-9.4,10.5    c-6,0.9-11.5-3.2-12.3-9C620.8,176.2,624.9,170.8,630.9,169.9z"/>
		<g id="w2a">
			<path class="st11" d="M648,190.4c0,0,0.4,0.2,0.6-0.1c0.3-0.5,0.3-1.7,0.3-2.1c0-0.5-0.4-2.7-0.4-2.7s-0.4,0.7-0.3,1.6     C648.4,188.3,648,190.4,648,190.4z"/>
			<path class="st11" d="M648,190.1c0.3-0.8,0.1-1.7-0.5-2.8c-0.5-1-0.2-1.6-0.2-1.6s0.4,0.6,1.1,2.2c0.2,0.5,0.4,1,0.4,1.4     C648.8,190.8,647.2,192,648,190.1z"/>
			<path class="st12" d="M640.5,208.2c-0.2-3.3,5.4-12.1,5.4-12.1s3.1-2.6-2,10.2C642.3,210.3,640.5,209.1,640.5,208.2z"/>
			<path class="st12" d="M648,189.1l0.4,0.2l0.3,1.4c0,0-0.5,2.6-1,3.5c-0.5,0.9-1.2,4.8-1.4,5.3c-0.2,0.4-2.5,0.6-2.5,0.6     s1.6-3.8,2.2-5.4c0.5-1.6,0.5-4,0.7-4.7c0.3-1.1,0.4-1.6,0.4-1.6s0.5,0.2,0.1,1.9c-0.1,0.4,0.5,0.3,0.5,0.3L648,189.1z"/>
			<path class="st12" d="M648.2,190.9c0,0,0.3-1.3,0.1-1.9c-0.2-0.4-1.3-2.4-1.3-2.4s-0.1,0.8,0.3,1.6     C647.9,189.4,648.2,190.9,648.2,190.9z"/>
			<path class="st11" d="M647.1,190.3c0.3-1.1,0.1-1.6,0-1.8c-0.1,0.3-0.2,0.7-0.3,1.3c-0.1,0.2-0.1,0.7-0.2,1.2     c0,0.1,0.4,0.2,0.6,1.1c0,0.2,0.3-0.8,0.3-1.4C647.3,190.7,647,190.7,647.1,190.3z"/>
			<path class="st13" d="M644.7,203.9c0-0.5-2.5-1.1-3-0.3l-0.4,0.5c0,0-3.3,4.8-0.6,6.2C640.7,210.4,643.7,210.7,644.7,203.9z"/>
			<path class="st11" d="M647.5,190.7c0,0-0.4,0.1-0.5,0c0,0.1,0,0.2,0.1,0.3c0,0.2,0,1.7,0,1.7s0.2-1.1,0.4-1.4     c0.1-0.2,0.2-0.6,0.2-1c0,0,0-0.1,0-0.2L647.5,190.7z"/>
		</g>
		<path class="st12" d="M620.3,166.2c0,0.6,0.1,1.2,0.2,1.8c0.6,4.1,3.1,7.2,5.9,7.6c0.1,1.9,0.7,3.5,0.9,5c0.4,3.2,3.9,3.6,3.9,3.6    c0.5,2.9-9.4,4.5-9.2,4c0.2-0.5,1.2-1.5,2-4.6c0.5-2.2-0.2-3.9-1-5.2c-1.5-1.8-3.7-1.8-3.7-1.8c-0.2,0-0.4-0.1-0.5-0.2    c-0.1-0.4-0.2-0.9-0.2-1.3v-5.3C618.6,168.3,619.3,167,620.3,166.2z"/>
		<path class="st14" d="M613.4,225C613.4,224.9,613.4,224.9,613.4,225c0-0.1,0-0.1,0-0.2c0.9-4.5,2.2-8.9,4.3-12.9    c1.5-2.8,4.4-5.5,5.7-6.8c3.3,1.8,6.6,1,9.7,3.3c0.4,1.3,0.7,2.7,1,4.2c0.5,2.7,0.9,5.3,1.2,7.6c4.8,0.5,16.8,1.4,21.3,2.3    c2.7,0.6,2.8,1.6,3.2,2c-0.2,4.3-3.8,6.8-5.9,10.3c-0.4,0.6-28.9,0.1-33.8,0.3C620.8,235.4,610.4,235.5,613.4,225z"/>
		<path class="st11" d="M658,230.6c0.8-0.9,1.2-2,1.8-3c0.5-1.9,0.4-3.2-0.1-3.7c-2.1-1.7-9.3,1.9-27.4,29    c-3.9,5.9-12.1,17.4-9.7,15.8c4.2-2.7,5.2-5.9,7.9-8.7C652.1,237.5,654.5,234.7,658,230.6z"/>
		<path class="st13" d="M621.6,267.9l3.2-5.1c0.3-0.5,0.8-0.8,1.3-0.7l-2.5,4c-0.5,0.8-0.4,1.8,0.3,2.3c0.2,0.2,0.5,0.3,0.7,0.3    l-0.7,1.2c-0.5,0.8-1.4,1-2,0.5C621.2,269.7,621.1,268.6,621.6,267.9z"/>
		<path class="st12" d="M621,200.7l-5-8.8c-1.8-2.6-0.9-6,2-6.8l15.6-3.6c1.9-0.3,5,2.3,4.4,5.5l-3.2,10.6L621,200.7z"/>
		<path class="st13" d="M636.1,183.4c-2.1,9.7,3.1,26.8,3.1,26.8s3,0.6,3.6-1c0.7-2.1-1.1-7-2.3-20.4    C639.8,180.4,636.4,181.8,636.1,183.4z"/>
		<path class="st13" d="M615,187.3c-1.3,11.8-4.6,26.9-4.6,26.9s3.2,2.6,4.3,1.2c1.3-1.9,2.6-8.7,4-21.7    C619.6,185.6,615.2,185.7,615,187.3z"/>
		<path class="st15" d="M633.7,204.1c0,1.2-0.9,4-1.8,4l-9.2-0.7c-0.9,0-3.2-0.8-3.2-2l-0.1-4.1c0-1.2,0.7-2.2,1.6-2.2l11.5-3.2    c0.9,0,1.7,1,1.7,2.2L633.7,204.1z"/>
		<path class="st16" d="M633,208.2c0,0.1-0.7,0.2-1.4,0.2l-8.9-0.6c-0.8,0-1.4-0.2-1.4-0.3V207c0-0.1,0.7-0.2,1.4-0.2l8.9,0.6    c0.8,0,1.4,0.2,1.4,0.3V208.2z"/>
		<path class="st15" d="M636.1,186c-0.2-0.6-0.4-1.1-0.7-1.6c-8,6.2-13.9,3.9-18.2,3.1c0,0.2,0,0.5-0.1,0.8c0,2.9,0.3,5.8,0.3,8.7    c0,2.3,3.3,4.2,4.9,4.2c5.8,0,7.1-0.4,12.7-2.1c1.5-0.5,4.2-3,3.5-5.1C637.7,191.3,636.9,188.7,636.1,186z"/>
		<path class="st14" d="M621.5,184.3c0,0-5.5,0-6.4,3c-1,3,1.2,7.1,1.2,7.1s1.8,5.3,2.3,8.3c0.5,2.9-1.2,5.8-0.7,5.2    c0.1-0.1,1.5,0,3.6-1.2c2.2-1.1,0.8-5.1,0.5-6.3c-0.3-1.3-1.6-7.6-1.4-8.6C620.9,190.7,621.5,184.3,621.5,184.3z"/>
		<path class="st14" d="M639.2,185.5c0,0,0.4-2.5-0.8-3.4c-1.7-1.4-5.8-1-7.1-0.6c-1.3,0.4-2.2,0.8-2.2,0.8s4.7,1.5,4.8,9.8    c0,1.4-0.3,4.3-0.7,6.6c-0.5,2.2-0.5,6.6-0.5,6.6s2.8,0.4,2.9,0.7c0.1,0.3,0.2-2.6,1.9-5.4C639.4,197.7,639.2,185.5,639.2,185.5z"/>
		<path class="st13" d="M633.8,181.2c2.3,1.8,3.7,3.3,3.8,13c0,1.6-0.4,4.5-0.6,7.2c0.1-0.3,1-1.7,1.2-2c1.5-2.9,1.2-13.9,1.2-13.9    s0.2-2.2-0.8-3.1C637.3,181.4,635.3,181,633.8,181.2z"/>
		<path class="st12" d="M653,232.6c0.6-1,0.8-2.2,1.2-3.2c0.1-2-0.2-3.1-0.8-3.6c-2.4-2.2-7.8,1.9-16.4,19.7    c-4.4,9-7.9,17.3-13.8,22.1c-0.9,0.7-1.1,0.8-1.4,1.6c-0.9,2.5-0.5,5.7-0.4,5.6c1.3-1.2,3.7-5.2,6.8-9.1    C635.1,257.3,645.1,245.1,653,232.6z"/>
		<path class="st14" d="M619.7,273l2.8-5.4c0.3-0.5,0.7-0.8,1.2-0.8l-2.1,4.1c-0.4,0.8-0.2,1.8,0.4,2.3c0.2,0.2,0.5,0.2,0.7,0.2    l-0.6,1.2c-0.4,0.8-1.3,1.1-2,0.6C619.5,274.8,619.3,273.8,619.7,273z"/>
		<g>
			<path class="st11" d="M597.5,233c0,0-1,0.9-1.1,1.6c-0.1,0.5-0.1,2.7-0.1,2.7s0.5-0.6,0.6-1.5C596.9,234.4,597.5,233,597.5,233z"/>
			<path class="st11" d="M597,234.4c-0.7,0.5-0.9,1.5-0.9,2.6s-0.6,1.5-0.6,1.5s-0.1-0.7,0.1-2.4c0.1-0.5,0.1-1,0.2-1.4     C596.1,233.1,598.7,233.1,597,234.4z"/>
			<path class="st12" d="M598.4,232c0.1,0.6-0.4,1.5-0.3,1.9c0.5,0.9,1,1.3,1,1.3c-1.2,0.4-1.9-1.2-2.5-1.6     C596,233.2,598.1,230.5,598.4,232z"/>
			<path class="st12" d="M602.9,226.8c-1.7,1.4-3.7,2.9-4.3,4c-0.9,1.6-0.6,2.8-1.6,3.6c-0.1,0.1-0.2,0.2-0.3,0.3     c-0.3,0.3-0.6,0.5-0.7,0.6c-0.1,0.1-0.4,0.6-0.3,0.4c0.3-1.9,0.8-3.9,1-4.3c0.6-0.7,3.9-4.7,5.5-5.9     C603.9,224.1,605.3,225,602.9,226.8z"/>
			<path class="st12" d="M596.9,234.3c0,0-0.3-0.4-0.6-0.1c-0.5,0.3-1.1,1.4-1.2,1.7c-0.2,0.4-0.9,2.5-0.9,2.5s0.7-0.4,1-1.3     C595.5,235.8,596.9,234.3,596.9,234.3z"/>
			<path class="st12" d="M604.3,222.9c1.5-0.1,5.1-2.3,5.4-1.6c-2.5,3.6-12.4,9.4-12.4,9.4L604.3,222.9z"/>
		</g>
		<path class="st13" d="M603.4,224.9c0.6,0.3,0.9,0.7,0.9,1.4c2.6-2,9.9-7.6,10.6-11.3c0.2-1.1-2-4-5.4,0.1c-4.2,5-6.2,7.8-6.9,9.6    C602.9,224.7,603.2,224.8,603.4,224.9z"/>
		<g>
			<rect x="628.2" y="222" class="st17" width="27.2" height="0.6"/>
			<path class="st17" d="M640.2,222c0,0.4,0.3,0.8,0.7,0.8h14c0.4,0,0.9-0.3,1.4-1.4l6.9-12.6c0-0.5-0.4-0.9-0.8-0.8l-14.3,0.4     c-0.4,0.1-0.7,0.4-0.9,1L640.2,222z"/>
			<path class="st18" d="M641.9,222.6h-0.1h-13.6c0.5,0.3,1.3,0.4,2.2,0.4h11.4h0.1h11.4c0.9,0,1.7-0.2,2.2-0.4H641.9z"/>
		</g>
	</g>
</g>
<g id="CELLPHONE">
	<g>
		<g>
			<path class="st17" d="M572.4,329c0,6.6-5.4,12.1-12.1,12.1h-72.1c-6.6,0-12.1-5.4-12.1-12.1V158.1c0-6.6,5.4-12.1,12.1-12.1h72.1     c6.6,0,12.1,5.4,12.1,12.1V329z"/>
		</g>
		<g>
			<path class="st5" d="M490.1,339.2c-6.6,0-12.1-5.4-12.1-12.1V160c0-6.6,5.4-12.1,12.1-12.1h68.4c6.6,0,12.1,5.4,12.1,12.1v167.1     c0,6.6-5.4,12.1-12.1,12.1H490.1z"/>
		</g>
		<g>
			<path class="st17" d="M530.5,157.8c0,0.4-0.3,0.8-0.8,0.8h-11.1c-0.4,0-0.8-0.3-0.8-0.8l0,0c0-0.4,0.3-0.8,0.8-0.8h11.1     C530.2,157.1,530.5,157.4,530.5,157.8L530.5,157.8z"/>
		</g>
		<path class="st17" d="M530.9,330.7c0,0.8-0.6,1.4-1.4,1.4h-10.2c-0.8,0-1.4-0.6-1.4-1.4v-2.8c0-0.8,0.6-1.4,1.4-1.4h10.2    c0.8,0,1.4,0.6,1.4,1.4V330.7z"/>
		<polygon class="st17" points="477.9,176.4 477.9,176.4 475.6,176.4 475.6,176.4 475.6,169 475.6,169 477.9,169 477.9,169   "/>
		<polygon class="st17" points="477.9,195.9 477.9,195.9 475.6,195.9 475.6,195.9 475.6,183.4 475.6,183.4 477.9,183.4 477.9,183.4       "/>
		<polygon class="st17" points="477.9,210.8 477.9,210.8 475.6,210.8 475.6,210.8 475.6,198.8 475.6,198.8 477.9,198.8 477.9,198.8       "/>
		<g>
			<rect x="482" y="168.2" class="st19" width="84.5" height="149.9"/>
		</g>
	</g>
	<g class="st20">
		<g>
			<rect x="478.6" y="200.8" class="st21" width="90.6" height="111.7"/>
			<rect x="478.6" y="200.2" class="st22" width="89.9" height="3.7"/>
			<g>
				<rect x="540.5" y="214.5" class="st23" width="21.5" height="24.4"/>
				<rect x="514.3" y="214.5" class="st23" width="21.5" height="24.4"/>
				<rect x="488.2" y="214.5" class="st23" width="21.5" height="24.4"/>
			</g>
			<polygon class="st23" points="506.4,251.4 509.7,251.4 535.8,251.4 535.8,301.8 509.7,301.8 506.4,301.8 488.2,301.8      488.2,251.4    "/>
			<polygon class="st21" points="509.7,251.4 535.8,251.4 535.8,260.9 488.2,260.9 488.2,251.4 506.4,251.4    "/>
			<polygon class="st22" points="506,251.4 509.5,251.4 537.3,251.4 537.3,253.8 509.5,253.8 506,253.8 486.7,253.8 486.7,251.4         "/>
			<polygon class="st24" points="506,299.4 509.5,299.4 537.3,299.4 537.3,301.8 509.5,301.8 506,301.8 486.7,301.8 486.7,299.4         "/>
			<rect x="540.5" y="251.4" class="st24" width="21.5" height="57.8"/>
			<rect x="542.6" y="285.6" class="st22" width="17.3" height="1.2"/>
			<rect x="542.6" y="289" class="st22" width="17.3" height="1.2"/>
			<rect x="535.8" y="309.3" class="st23" width="30.8" height="4.6"/>
			<rect x="540.5" y="251.4" class="st22" width="21.5" height="9.5"/>
			<rect x="478.6" y="312.4" class="st24" width="88.4" height="6.9"/>
			<rect x="478.1" y="194.4" class="st24" width="96.2" height="6.9"/>
		</g>
	</g>
	<g>
		<g>
			<g>
				<path class="st25" d="M454.5,190.4v12.2c0,3.3,3.9,5.9,8.6,5.9c4.8,0,8.6-2.6,8.6-5.9v-12.2H454.5z"/>
				<path class="st26" d="M471.8,190.4v12.2c0,3.3,3.9,5.9,8.6,5.9c4.8,0,8.6-2.6,8.6-5.9v-12.2H471.8z"/>
				<path class="st25" d="M489.1,190.4v12.2c0,3.3,3.9,5.9,8.6,5.9c4.8,0,8.6-2.6,8.6-5.9v-12.2H489.1z"/>
				<path class="st26" d="M506.4,190.4v12.2c0,3.3,3.9,5.9,8.6,5.9c4.8,0,8.6-2.6,8.6-5.9v-12.2H506.4z"/>
				<path class="st25" d="M523.7,190.4v12.2c0,3.3,3.9,5.9,8.6,5.9c4.8,0,8.6-2.6,8.6-5.9v-12.2H523.7z"/>
				<path class="st26" d="M540.9,190.4v12.2c0,3.3,3.9,5.9,8.6,5.9c4.8,0,8.6-2.6,8.6-5.9v-12.2H540.9z"/>
				<path class="st25" d="M558.2,190.4v12.2c0,3.3,3.9,5.9,8.6,5.9c4.8,0,8.6-2.6,8.6-5.9v-12.2H558.2z"/>
				<path class="st26" d="M575.5,190.4v12.2c0,3.3,3.9,5.9,8.6,5.9c4.8,0,8.6-2.6,8.6-5.9v-12.2H575.5z"/>
			</g>
			<g>
				<path class="st27" d="M479.5,171.1c-8.3,6.4-16.6,12.9-24.9,19.3c5.8,0,11.5,0,17.3,0c6.2-6.4,12.5-12.9,18.7-19.3      C486.8,171.1,483.1,171.1,479.5,171.1z"/>
				<path class="st28" d="M490.5,171.1c-6.2,6.4-12.5,12.9-18.7,19.3c5.8,0,11.5,0,17.3,0c4.2-6.4,8.3-12.9,12.5-19.3      C497.9,171.1,494.2,171.1,490.5,171.1z"/>
				<path class="st27" d="M501.6,171.1c-4.2,6.4-8.3,12.9-12.5,19.3c5.8,0,11.5,0,17.3,0c2.1-6.4,4.2-12.9,6.2-19.3      C508.9,171.1,505.2,171.1,501.6,171.1z"/>
				<path class="st28" d="M512.6,171.1c-2.1,6.4-4.2,12.9-6.2,19.3c5.8,0,11.5,0,17.3,0c0-6.4,0-12.9,0-19.3      C520,171.1,516.3,171.1,512.6,171.1z"/>
				<path class="st27" d="M523.7,171.1c0,6.4,0,12.9,0,19.3c5.8,0,11.5,0,17.3,0c-2.1-6.4-4.2-12.9-6.2-19.3      C531,171.1,527.3,171.1,523.7,171.1z"/>
				<path class="st28" d="M534.7,171.1c2.1,6.4,4.2,12.9,6.2,19.3c5.8,0,11.5,0,17.3,0c-4.2-6.4-8.3-12.9-12.5-19.3      C542.1,171.1,538.4,171.1,534.7,171.1z"/>
				<path class="st27" d="M545.8,171.1c4.2,6.4,8.3,12.9,12.5,19.3c5.8,0,11.5,0,17.3,0c-6.2-6.4-12.5-12.9-18.7-19.3      C553.1,171.1,549.4,171.1,545.8,171.1z"/>
				<path class="st28" d="M575.5,190.4c5.8,0,11.5,0,17.3,0c-8.3-6.4-16.6-12.9-24.9-19.3c-3.7,0-7.4,0-11.1,0      C563,177.6,569.3,184,575.5,190.4z"/>
			</g>
			<g>
				<rect x="479.4" y="167.2" class="st27" width="11.1" height="4"/>
				<rect x="490.5" y="167.2" class="st26" width="11.1" height="4"/>
				<rect x="501.5" y="167.2" class="st27" width="11.1" height="4"/>
				<rect x="512.6" y="167.2" class="st26" width="11.1" height="4"/>
				<rect x="523.7" y="167.2" class="st27" width="11.1" height="4"/>
				<rect x="534.7" y="167.2" class="st26" width="11.1" height="4"/>
				<rect x="545.8" y="167.2" class="st27" width="11.1" height="4"/>
				<rect x="556.9" y="167.2" class="st26" width="11.1" height="4"/>
			</g>
		</g>
	</g>
</g>
<g id="MEN_LAPTOP">
	<g>
		<path class="st29" d="M516.6,318.6c0,0,20.6,0,28.5,0.2c5.5,0.1,6-7.8,3.8-8.9c-6.6-3.6-27.1-5.4-27.1-5.4l-14,12.8    C507.8,317.2,508.6,317.2,516.6,318.6z"/>
		<path class="st30" d="M536,276.6c0,0,5.3-1.5,7.6,5.4c3.5,10.6,3.2,20.3,2.7,22.4c-0.2,1-0.9,4.3-6.8,4.4    c-2.4,0.1-1.4-5.1-1.4-5.1s-1.5-4.4-3.2-11.7C533.2,284.6,536,276.6,536,276.6z"/>
		<path class="st6" d="M540.2,277.2l-13.6-4.4l-10.3-0.7l-11.3,3.4c0,0-3.7,2.5-0.3,10.7c3.4,8.2,2.1,21,2.1,21l29,0.9    c0,0,0.6-11.8,2.5-23.6C538.8,281.8,538.9,278.7,540.2,277.2z"/>
		<path class="st30" d="M520.2,307.5h1.5c1.5-11.4,1.5-23.2-0.2-34.6c-0.4,0.3-0.9,0.5-1.3,0.8C520.5,285.4,519.9,297,520.2,307.5z"/>
		<g>
			<path class="st11" d="M526,276c-0.2,1.6-1.5,2.9-2.8,3c-1.3,0-2.6,0-3.8,0c-1.3-0.1-2.6-1.4-2.8-3c-0.3-2.6-0.6-5.2-0.9-7.8     c-0.2-1.6,0.7-4.7,2.8-5.6c1.9-0.8,4-0.8,5.9,0c2,0.9,3,4,2.8,5.6C526.6,270.8,526.3,273.4,526,276z"/>
		</g>
		<polygon class="st30" points="521.1,279.2 518.7,283.2 514.2,277.6 514.9,274.7 516.3,273.5 516.4,275.7   "/>
		<polygon class="st30" points="521.4,279.2 523.8,283.2 528,278 527.3,274.8 526.3,273.4 525.8,276.1   "/>
		<path class="st31" d="M492.9,358c-0.3,0.4-0.1,1.4-0.1,1.4s5.5,0.6,7.3,0.2c0.5-0.1,1.2-0.5,2-0.9c0.1-0.1,0.3-0.5,0.5-0.6    c0.2-0.1,0.3,0.1,0.5,0c0.5-0.3,0.8-0.6,0.8-0.6c0.5-2.5-0.2-3.6-0.2-3.6s-4.7-1.6-5.6-0.5C496.1,356,493.6,357.1,492.9,358z"/>
		<path class="st31" d="M544.7,355.2l0.4,4.2l4.2,0.4c0,0,0.3-0.6,0.6-0.5c0.3,0,0.6,0.6,1,0.7c0.9,0.1,1.9,0.2,2.3,0.2    c0.8,0.1,8.4,0.8,8.4,0.8s0.3-0.8,0.1-1.2c-0.1-0.2-0.8-0.5-1.2-0.7c-2.1-0.8-8.1-3.3-9-5.5C550.4,351,544.7,355.2,544.7,355.2z"/>
		<g>
			<path class="st12" d="M538.4,302.2l-14.2,5.8c0,0,10.1,1.4,16.3,0.2C544.8,307.3,538.5,302,538.4,302.2z"/>
		</g>
		<path class="st29" d="M506.2,311c0,0-1.4,12.9-1.2,19.8c0.1,5.2,0.2,15.1-1.1,23.5c-0.1,0.5-6.7,0.1-6.7,0.1s-2.4-32.1-3.1-37.4    C493.5,311.8,495.6,307.9,506.2,311z"/>
		<path class="st32" d="M547.6,314.1c0,0-2.1,3.4-8,4.1c-2.1,0.3,3.4,37.6,3.4,37.6l8.6-2.8l-1.7-41.2L547.6,314.1z"/>
		<path class="st32" d="M523.9,318.3c0,0-11.3,1.6-18.8,2.4c-2.8,0.3-5.1-7.4-5.5-7.8c-2-2.1-4-1.8-3.9-1.9    c1.6-1.8,10.1-3.4,18.9-5.5c8.8-2.1,10.1-0.8,10.1-0.8L523.9,318.3z"/>
		<path class="st29" d="M514.6,305.6c-8.8,2.1-17.2,3.7-18.9,5.5c-0.1,0.1,1.9-0.2,3.9,1.9c0.1,0.1,0.6,2.6,1,3.4    c-1.4-2.6,19.3-9.9,23.7-11.8C523.5,304.3,521.1,304,514.6,305.6z"/>
		<polygon class="st32" points="504.9,318.2 504.1,343.4 503.2,349.2 503.1,343.4 503.3,339.7 501.3,334.1 500.2,321 501.8,321.5     501.6,315.8   "/>
		<path class="st29" d="M547.4,311l2.1,0.6l0.8,30.3l-4.4,10.8l2.1-7.4l-0.9-15.2c0,0-3.1,7.4-3.1,7s2.6-16,2.6-16s-2.9,2.4-2.6,2.3    C544.3,323.3,545.7,312.4,547.4,311z"/>
		<path class="st6" d="M511.3,275.6c0,0-4.5-3.5-8.9,3c-6.5,9.6-9.3,19.9-10.3,22.9c-0.8,2.3-0.4,8.7,2.3,11.4    c0.6,0.6,4.5,0.1,4.5,0.1l2.5-1.7l-1.1-2l-0.1-1.6c0,0,3.2-7.8,7.2-15.1C511.3,285.2,511.3,275.6,511.3,275.6z"/>
		<g>
			<path class="st12" d="M500.2,305.1l14.7,0.8c0,0-14.1,6.5-14.6,5.4C497.6,304.9,500.2,305.1,500.2,305.1z"/>
			<g>
				<path class="st12" d="M508.3,304.7c0.9-0.4,0.8-0.4,0.8-0.4s0.8,0.9,1.9,1.1c0.6,0.1,2.4,0.1,2.4,0.1l2.7,0.1l1.3-0.1      c0,0,0.7-0.1,0.9,0c0.5,0.4,0.1,0.6,0.1,0.6l-4.8,0.7l4.7,0.6c0,0,0.6,0.2,0.6,0.5c0,0.3-0.2,0.3-0.2,0.3l-5.4,0.6l2.4,0.6      c0,0,0.6,0.2,0.6,0.5c0,0.3,0.1,0.4,0.1,0.4l-5-0.5C511.2,309.7,507.4,305.1,508.3,304.7z"/>
				<path class="st12" d="M513.7,307.7l3.3,0.6c0,0,0.7,0.1,1.1,0.3c0.4,0.3,0.2,0.6,0.2,0.6l-5-0.4L513.7,307.7z"/>
			</g>
		</g>
		<g>
			<path class="st33" d="M534.1,310.2L534.1,310.2v-1h-28.9v0.9l0,0l0.1,0.2c0.5,0.8,1.4,0.9,2.4,0.9h24     C532.7,311.2,533.6,311.1,534.1,310.2L534.1,310.2z"/>
			<g>
				<rect x="510" y="309.5" class="st34" width="19.2" height="0.7"/>
			</g>
			<g>
				<path class="st35" d="M534.1,309.4l0.1-19c0-0.5-0.4-0.9-0.9-0.9h-27.1c-0.5,0-0.9,0.4-0.9,0.9l-0.1,19H534.1z"/>
				<path class="st33" d="M521.4,299.4c0,1-0.8,1.8-1.8,1.8s-1.8-0.8-1.7-1.8c0-1,0.8-1.8,1.8-1.8      C520.6,297.7,521.4,298.5,521.4,299.4z"/>
			</g>
		</g>
		<polygon class="st30" points="498.3,312.4 497.3,306 499,304.3 502.7,304.9 501.9,312   "/>
		<polygon class="st6" points="543.3,307.8 543.7,305.5 539,301.2 536.5,302.4 539.8,308.7   "/>
	</g>
	<g id="m1h">
		<path class="st13" d="M520.7,257.7c-1.1,0-2,0.6-2.6,1.4H517c-1.3,0-2.4,1.1-2.4,2.4v5.9h1.7V265c0-0.9,0.7-1.7,1.7-1.7h1h-1.5h1    c1.7,0,3.1-1.4,3.1-3.1v-2.5H520.7L520.7,257.7z"/>
		<path class="st11" d="M517.7,269.5c0,0.8-0.7,1.5-1.5,1.5h-0.1c-0.8,0-1.5-0.6-1.5-1.5v-1.8c0-0.8,0.7-1.5,1.5-1.5h0.1    c0.6,0,1.1,0.4,1.3,0.9"/>
		<path class="st13" d="M519.4,260v-2.3h1h2.5h1.5c1.7,0,3.1,1.4,3.1,3.1v2.3h-1H524h-1.5C520.7,263.1,519.4,261.7,519.4,260z"/>
		<path class="st12" d="M527,271.8c0,1.2-0.9,3.3-2.5,3.9c-2.1,0.9-4.6,0.9-6.7,0c-1.6-0.7-2.5-2.7-2.5-3.9c0-3.5,0-6.9,0-10.4    c0-1.2,1.2-2.3,2.7-2.3c2.1,0,4.1,0,6.2,0c1.5,0,2.7,1.1,2.7,2.3C527,264.8,527,268.3,527,271.8z"/>
		<path class="st13" d="M522.4,257.7c1.1,0,2,0.6,2.6,1.4h1.1c1.3,0,2.4,1.1,2.4,2.4v5.9h-1.7V265c0-0.9-0.8-1.7-1.7-1.7l0,0h0.6    H523c-1.7,0-3.1-1.4-3.1-3.1v-2.5H522.4L522.4,257.7z"/>
		<path class="st12" d="M525.4,267.8c0-0.8,0.7-1.5,1.5-1.5h0.1c0.8,0,1.5,0.7,1.5,1.5v1.8c0,0.8-0.7,1.5-1.5,1.5h-0.1    c-0.6,0-1.1-0.4-1.3-0.9"/>
		<path class="st13" d="M519.9,260.7c0-0.2,0.1-0.4,0.1-0.6v-2.3h-1h-1.2c-1.7,0-3.1,1.4-3.1,3.1v2.3h0.6h0.3h1.2    c0.2,0,0.4,0,0.6-0.1C517.7,261.8,518.7,260.9,519.9,260.7z"/>
	</g>
</g>
<g id="heart">
	<g>
		<path class="st26" d="M635.8,154.3c0-5.6,4.6-10.2,10.2-10.2h40.9c5.6,0,10.2,4.6,10.2,10.2c0,5.6-4.6,10.2-10.2,10.2h-33.1    l-8.4,8.4v-8.4C640.1,164.2,635.8,159.8,635.8,154.3z"/>
		<path class="st36" d="M646.4,150.5c1.1-1.1,2.9-1.1,4,0l0.7,0.7l0.7-0.7c1.1-1.1,2.9-1.1,4,0c1.1,1.1,1.1,2.9,0,4l-0.7,0.7l0,0    l-4,4l-4-4l0,0l-0.7-0.7C645.3,153.4,645.3,151.6,646.4,150.5z"/>
		<path class="st36" d="M661.7,150.5c1.1-1.1,2.9-1.1,4,0l0.7,0.7l0.7-0.7c1.1-1.1,2.9-1.1,4,0c1.1,1.1,1.1,2.9,0,4l-0.7,0.7l0,0    l-4,4l-4-4l0,0l-0.7-0.7C660.6,153.4,660.6,151.6,661.7,150.5z"/>
		<path class="st36" d="M677,150.5c1.1-1.1,2.9-1.1,4,0l0.7,0.7l0.7-0.7c1.1-1.1,2.9-1.1,4,0c1.1,1.1,1.1,2.9,0,4l-0.7,0.7l0,0l-4,4    l-4-4l0,0l-0.7-0.7C675.9,153.4,675.9,151.6,677,150.5z"/>
	</g>
</g>
<g id="w1">
	<g>
		<g>
			<g>
				<g>
					<g class="st37">
						<g>
							<path class="st38" d="M690.3,350.3c-0.1-1.7-0.1-3.9-0.2-5.5C690.1,345.9,690.3,349,690.3,350.3         C690.3,350.2,690.3,350.2,690.3,350.3z"/>
						</g>
						<g>
							<path class="st15" d="M736,342.4c0.1,2,0.2,4.1,0.2,6.1c0.1,1.6-2,3.2-6.2,4.6c-9.1,3.1-25,3.9-35.5,1.9         c-5.6-1.1-8.5-2.8-8.6-4.6l-0.2-6.1c0.1,1.8,3,3.5,8.6,4.6c10.5,2,26.3,1.2,35.5-1.9C734,345.6,736.1,344,736,342.4z"/>
						</g>
						<g>
							<path class="st38" d="M727.4,337.8c10.5,2,11.5,6.2,2.4,9.2c-9.1,3.1-25,3.9-35.5,1.9s-11.5-6.2-2.4-9.2         C701.1,336.6,717,335.8,727.4,337.8z M697.1,348c8.7,1.7,21.8,1,29.4-1.5s6.7-6-2-7.6c-8.7-1.7-21.8-1-29.4,1.5         C687.6,342.8,688.5,346.3,697.1,348"/>
						</g>
						<path class="st15" d="M724.6,338.8c8.7,1.7,9.5,5.1,2,7.6c-7.6,2.5-20.7,3.2-29.4,1.5c-8.7-1.7-9.5-5.1-2-7.6        C702.8,337.8,715.9,337.1,724.6,338.8z"/>
						<path class="st19" d="M695.2,341.1c7.6-2.5,20.7-3.2,29.4-1.6c4.3,0.8,6.7,2.1,7.1,3.5c0.4-1.7-2-3.3-7.1-4.2        c-8.7-1.7-21.8-1-29.4,1.5c-3.8,1.3-5.5,2.8-5.1,4.2C690.4,343.3,692.1,342.1,695.2,341.1z"/>
						<g>
							<path class="st19" d="M716.2,344.7c0.6,0.6,0.2,1.3-1.6,1.9c-2,0.7-5,1-7.8,0.9c-1,0-1.9-0.1-2.7-0.3l-0.5-0.1l-0.2,0.1         l-0.6,0.2l-0.4-0.1l-1.9-0.4l0.8-0.3l-1.4-0.3l-0.2,0.1l-0.6,0.2l-0.4-0.1l-1.9-0.4l0.8-0.3l-1.4-0.3l1.9-0.6l0.2-0.1l1,0.2         l0.4,0.1l5.7-1.9l2-0.7l4.9-1.6l-1.4-0.3l1.9-0.6l0.2-0.1l1,0.2l0.4,0.1l0.6-0.2l0.2-0.1l2.3,0.5l-0.8,0.3l1,0.2l0.4,0.1         l0.6-0.2l0.2-0.1l2.3,0.5l-0.8,0.3c2.8,0.5,3.1,1.7,0.6,2.5C719.8,344.3,718,344.6,716.2,344.7z M707.7,346.6         c1.6,0.1,3.4-0.1,4.6-0.5c1.6-0.5,1.4-1.2-0.4-1.6l-4.2-0.8l-0.2,0.1l-5.5,1.9l4.2,0.8C706.7,346.5,707.2,346.5,707.7,346.6          M714.5,341.4l-4.7,1.6l3.7,0.7c0.4,0.1,0.8,0.1,1.2,0.1c1.4,0.1,3-0.1,4-0.4c1.4-0.5,1.2-1.1-0.3-1.4l-3.7-0.7L714.5,341.4"/>
						</g>
						<g>
							<path class="st39" d="M716.2,343.9c0.6,0.6,0.2,1.3-1.6,1.9c-2,0.7-5,1-7.8,0.9c-1,0-1.9-0.1-2.7-0.3l-0.5-0.1l-0.2,0.1         l-0.6,0.2l-0.4-0.1l-1.9-0.4l0.8-0.3l-1.4-0.3l-0.2,0.1l-0.6,0.2l-0.4-0.1l-1.9-0.4l0.8-0.3l-1.4-0.3l1.9-0.6l0.2-0.1l1,0.2         l0.4,0.1l5.7-1.9l2-0.7l4.9-1.6l-1.4-0.3l1.9-0.6l0.2-0.1l1,0.2l0.4,0.1l0.6-0.2l0.2-0.1l2.3,0.5l-0.8,0.3l1,0.2l0.4,0.1         l0.6-0.2l0.2-0.1l2.3,0.5l-0.8,0.3c2.8,0.5,3.1,1.7,0.6,2.5C719.8,343.5,718,343.8,716.2,343.9z M707.7,345.8         c1.6,0.1,3.4-0.1,4.6-0.5c1.6-0.5,1.4-1.2-0.4-1.6l-4.2-0.8l-0.2,0.1l-5.5,1.9l4.2,0.8C706.7,345.7,707.2,345.8,707.7,345.8          M714.5,340.6l-4.7,1.6l3.7,0.7c0.4,0.1,0.8,0.1,1.2,0.1c1.4,0.1,3-0.1,4-0.4c1.4-0.5,1.2-1.1-0.3-1.4l-3.7-0.7L714.5,340.6"/>
						</g>
						<path class="st19" d="M688.1,347v6c1.4,0.8,3.6,1.5,6.4,2.1c2.8,0.5,6,0.9,9.3,1V350c-3.4-0.1-6.7-0.5-9.6-1        C691.6,348.4,689.6,347.7,688.1,347z"/>
					</g>
				</g>
				<g>
					<g class="st37">
						<g>
							<path class="st38" d="M692.6,343.1c-0.1-1.7-0.1-3.9-0.2-5.5c0,1.1,0.2,4.2,0.2,5.4C692.6,343,692.6,343,692.6,343.1z"/>
						</g>
						<g>
							<path class="st15" d="M738.3,335.2c0.1,2,0.2,4.1,0.2,6.1c0.1,1.6-2,3.2-6.2,4.6c-9.1,3.1-25,3.9-35.5,1.9         c-5.6-1.1-8.5-2.8-8.6-4.6l-0.2-6.1c0.1,1.8,3,3.5,8.6,4.6c10.5,2,26.3,1.2,35.5-1.9C736.3,338.4,738.4,336.8,738.3,335.2z"/>
						</g>
						<g>
							<path class="st38" d="M729.7,330.6c10.4,2,11.5,6.2,2.4,9.2c-9.1,3.1-25,3.9-35.5,1.9s-11.5-6.2-2.4-9.2         C703.4,329.4,719.3,328.6,729.7,330.6z M699.5,340.7c8.7,1.7,21.8,1,29.4-1.5c7.6-2.5,6.7-6-2-7.6c-8.7-1.7-21.8-1-29.4,1.5         S690.8,339.1,699.5,340.7"/>
						</g>
						<path class="st15" d="M726.9,331.5c8.7,1.7,9.5,5.1,2,7.6c-7.6,2.5-20.7,3.2-29.4,1.5c-8.7-1.7-9.5-5.1-2-7.6        C705.1,330.6,718.2,329.9,726.9,331.5z"/>
						<path class="st19" d="M697.5,333.9c7.6-2.5,20.7-3.2,29.4-1.6c4.3,0.8,6.7,2.1,7.1,3.5c0.4-1.7-2-3.3-7.1-4.2        c-8.7-1.7-21.8-1-29.4,1.5c-3.8,1.3-5.5,2.8-5.1,4.2C692.7,336.1,694.4,334.9,697.5,333.9z"/>
						<g>
							<path class="st19" d="M718.6,337.4c0.6,0.6,0.2,1.3-1.6,1.9c-2,0.7-5,1-7.8,0.9c-1,0-1.9-0.1-2.7-0.3l-0.5-0.1l-0.2,0.1         l-0.6,0.2l-0.4-0.1l-1.9-0.4l0.8-0.3l-1.4-0.3l-0.2,0.1l-0.6,0.2l-0.4-0.1l-1.9-0.4l0.8-0.3l-1.4-0.3l1.9-0.6l0.2-0.1l1,0.2         l0.4,0.1l5.7-1.9l2-0.7l4.9-1.6l-1.4-0.3l1.9-0.6l0.2-0.1l1,0.2l0.4,0.1l0.6-0.2l0.2-0.1l2.3,0.5l-0.8,0.3l1,0.2l0.4,0.1         l0.6-0.2l0.2-0.1l2.3,0.5l-0.8,0.3c2.8,0.5,3.1,1.7,0.6,2.5C722.1,337.1,720.4,337.4,718.6,337.4z M710,339.3         c1.6,0.1,3.4-0.1,4.6-0.5c1.6-0.5,1.4-1.2-0.4-1.6l-4.2-0.8l-0.2,0.1l-5.5,1.9l4.2,0.8C709,339.3,709.5,339.3,710,339.3          M716.8,334.2l-4.7,1.6l3.7,0.7c0.4,0.1,0.8,0.1,1.2,0.1c1.4,0.1,3-0.1,4-0.4c1.4-0.5,1.2-1.1-0.3-1.4l-3.7-0.7L716.8,334.2"/>
						</g>
						<g>
							<path class="st39" d="M718.6,336.7c0.6,0.6,0.2,1.3-1.6,1.9c-2,0.7-5,1-7.8,0.9c-1,0-1.9-0.1-2.7-0.3L706,339l-0.2,0.1         l-0.6,0.2l-0.4-0.1l-1.9-0.4l0.8-0.3l-1.4-0.3l-0.2,0.1l-0.6,0.2l-0.4-0.1l-1.9-0.4l0.8-0.3l-1.4-0.3l1.9-0.6l0.2-0.1l1,0.2         l0.4,0.1l5.7-1.9l2-0.7l4.9-1.6l-1.4-0.3l1.9-0.6l0.2-0.1l1,0.2l0.4,0.1l0.6-0.2l0.2-0.1l2.3,0.5l-0.8,0.3l1,0.2l0.4,0.1         l0.6-0.2l0.2-0.1l2.3,0.5l-0.8,0.3c2.8,0.5,3.1,1.7,0.6,2.5C722.1,336.3,720.4,336.6,718.6,336.7z M710,338.6         c1.6,0.1,3.4-0.1,4.6-0.5c1.6-0.5,1.4-1.2-0.4-1.6l-4.2-0.8l-0.2,0.1l-5.5,1.9l4.2,0.8C709,338.5,709.5,338.6,710,338.6          M716.8,333.4l-4.7,1.6l3.7,0.7c0.4,0.1,0.8,0.1,1.2,0.1c1.4,0.1,3-0.1,4-0.4c1.4-0.5,1.2-1.1-0.3-1.4l-3.7-0.7L716.8,333.4"/>
						</g>
						<path class="st19" d="M690.4,339.8v6c1.4,0.8,3.6,1.5,6.4,2.1c2.8,0.5,6,0.9,9.3,1v-6.1c-3.4-0.1-6.7-0.5-9.6-1        C693.9,341.2,691.9,340.5,690.4,339.8z"/>
					</g>
				</g>
			</g>
			<g>
				<g>
					<g class="st37">
						<g>
							<path class="st38" d="M690.3,334.6c-0.1-1.7-0.1-3.9-0.2-5.5c0,1.1,0.2,4.2,0.2,5.4V334.6z"/>
						</g>
						<g>
							<path class="st15" d="M736,326.7c0.1,2,0.2,4.1,0.2,6.1c0.1,1.6-2,3.2-6.2,4.6c-9.1,3.1-25,3.9-35.5,1.9         c-5.6-1.1-8.5-2.8-8.6-4.6l-0.2-6.1c0.1,1.8,3,3.5,8.6,4.6c10.5,2,26.3,1.2,35.5-1.9C734,329.9,736.1,328.3,736,326.7z"/>
						</g>
						<g>
							<path class="st38" d="M727.4,322.1c10.5,2,11.5,6.2,2.4,9.2c-9.1,3.1-25,3.9-35.5,1.9s-11.5-6.2-2.4-9.2         C701.1,320.9,717,320.1,727.4,322.1z M697.1,332.3c8.7,1.7,21.8,1,29.4-1.5s6.7-6-2-7.6c-8.7-1.7-21.8-1-29.4,1.5         C687.6,327.2,688.5,330.6,697.1,332.3"/>
						</g>
						<path class="st15" d="M724.6,323.1c8.7,1.7,9.5,5.1,2,7.6c-7.6,2.5-20.7,3.2-29.4,1.5c-8.7-1.7-9.5-5.1-2-7.6        C702.8,322.1,715.9,321.4,724.6,323.1z"/>
						<path class="st19" d="M695.2,325.4c7.6-2.5,20.7-3.2,29.4-1.6c4.3,0.8,6.7,2.1,7.1,3.5c0.4-1.7-2-3.3-7.1-4.2        c-8.7-1.7-21.8-1-29.4,1.5c-3.8,1.3-5.5,2.8-5.1,4.2C690.4,327.6,692.1,326.4,695.2,325.4z"/>
						<g>
							<path class="st19" d="M716.2,329c0.6,0.6,0.2,1.3-1.6,1.9c-2,0.7-5,1-7.8,0.9c-1,0-1.9-0.1-2.7-0.3l-0.5-0.1l-0.2,0.1         l-0.6,0.2l-0.4-0.1l-1.9-0.4l0.8-0.3l-1.4-0.3l-0.2,0.1l-0.6,0.2l-0.4-0.1l-1.9-0.4l0.8-0.3l-1.4-0.3l1.9-0.6l0.2-0.1l1,0.2         l0.4,0.1l5.7-1.9l2-0.7l4.9-1.6l-1.4-0.3l1.9-0.6l0.2-0.1l1,0.2l0.4,0.1l0.6-0.2l0.2-0.1l2.3,0.5l-0.8,0.3l1,0.2l0.4,0.1         l0.6-0.2l0.2-0.1l2.3,0.5l-0.8,0.3c2.8,0.5,3.1,1.7,0.6,2.5C719.8,328.6,718,328.9,716.2,329z M707.7,330.9         c1.6,0.1,3.4-0.1,4.6-0.5c1.6-0.5,1.4-1.2-0.4-1.6l-4.2-0.8l-0.2,0.1L702,330l4.2,0.8C706.7,330.8,707.2,330.9,707.7,330.9          M714.5,325.7l-4.7,1.6l3.7,0.7c0.4,0.1,0.8,0.1,1.2,0.1c1.4,0.1,3-0.1,4-0.4c1.4-0.5,1.2-1.1-0.3-1.4l-3.7-0.7L714.5,325.7"/>
						</g>
						<g>
							<path class="st39" d="M716.2,328.2c0.6,0.6,0.2,1.3-1.6,1.9c-2,0.7-5,1-7.8,0.9c-1,0-1.9-0.1-2.7-0.3l-0.5-0.1l-0.2,0.1         l-0.6,0.2l-0.4-0.1l-1.9-0.4l0.8-0.3l-1.4-0.3l-0.2,0.1l-0.6,0.2l-0.4-0.1l-1.9-0.4l0.8-0.3l-1.4-0.3l1.9-0.6l0.2-0.1l1,0.2         l0.4,0.1l5.7-1.9l2-0.7l4.9-1.6l-1.4-0.3l1.9-0.6l0.2-0.1l1,0.2l0.4,0.1l0.6-0.2l0.2-0.1l2.3,0.5l-0.8,0.3l1,0.2l0.4,0.1         l0.6-0.2l0.2-0.1l2.3,0.5l-0.8,0.3c2.8,0.5,3.1,1.7,0.6,2.5C719.8,327.9,718,328.1,716.2,328.2z M707.7,330.1         c1.6,0.1,3.4-0.1,4.6-0.5c1.6-0.5,1.4-1.2-0.4-1.6l-4.2-0.8l-0.2,0.1l-5.5,1.9l4.2,0.8C706.7,330,707.2,330.1,707.7,330.1          M714.5,325l-4.7,1.6l3.7,0.7c0.4,0.1,0.8,0.1,1.2,0.1c1.4,0.1,3-0.1,4-0.4c1.4-0.5,1.2-1.1-0.3-1.4l-3.7-0.7L714.5,325"/>
						</g>
						<path class="st19" d="M688.1,331.3v6c1.4,0.8,3.6,1.5,6.4,2.1c2.8,0.5,6,0.9,9.3,1v-6.1c-3.4-0.1-6.7-0.5-9.6-1        C691.6,332.7,689.6,332,688.1,331.3z"/>
					</g>
				</g>
				<path class="st38" d="M692.6,327.4c-0.1-1.7-0.1-3.9-0.2-5.5c0,1.1,0.2,4.2,0.2,5.4C692.6,327.3,692.6,327.3,692.6,327.4z"/>
				<g>
					<path class="st15" d="M738.3,319.5c0.1,2,0.2,4.1,0.2,6.1c0.1,1.6-2,3.2-6.2,4.6c-9.1,3.1-25,3.9-35.5,1.9       c-5.6-1.1-8.5-2.8-8.6-4.6l-0.2-6.1c0.1,1.8,3,3.5,8.6,4.6c10.5,2,26.3,1.2,35.5-1.9C736.3,322.7,738.4,321.1,738.3,319.5z"/>
				</g>
				<g>
					<path class="st38" d="M729.7,314.9c10.4,2,11.5,6.2,2.4,9.2c-9.1,3.1-25,3.9-35.5,1.9s-11.5-6.2-2.4-9.2       C703.4,313.7,719.3,312.9,729.7,314.9z M699.5,325.1c8.7,1.7,21.8,1,29.4-1.5c7.6-2.5,6.7-6-2-7.6c-8.7-1.7-21.8-1-29.4,1.5       S690.8,323.4,699.5,325.1"/>
				</g>
				<path class="st15" d="M726.9,315.9c8.7,1.7,9.5,5.1,2,7.6c-7.6,2.5-20.7,3.2-29.4,1.5s-9.5-5.1-2-7.6      C705.1,314.9,718.2,314.2,726.9,315.9z"/>
				<path class="st19" d="M697.5,318.2c7.6-2.5,20.7-3.2,29.4-1.6c4.3,0.8,6.7,2.1,7.1,3.5c0.4-1.7-2-3.3-7.1-4.2      c-8.7-1.7-21.8-1-29.4,1.5c-3.8,1.3-5.5,2.8-5.1,4.2C692.7,320.4,694.4,319.2,697.5,318.2z"/>
				<g>
					<path class="st19" d="M718.6,321.8c0.6,0.6,0.2,1.3-1.6,1.9c-2,0.7-5,1-7.8,0.9c-1,0-1.9-0.1-2.7-0.3l-0.5-0.1l-0.2,0.1       l-0.6,0.2l-0.4-0.1l-1.9-0.4l0.8-0.3l-1.4-0.3l-0.2,0.1l-0.6,0.2l-0.4-0.1l-1.9-0.4l0.8-0.3l-1.4-0.3l1.9-0.6l0.2-0.1l1,0.2       l0.4,0.1l5.7-1.9l2-0.7l4.9-1.6l-1.4-0.3l1.9-0.6l0.2-0.1l1,0.2l0.4,0.1l0.6-0.2l0.2-0.1l2.3,0.5l-0.8,0.3l1,0.2l0.4,0.1       l0.6-0.2l0.2-0.1l2.3,0.5l-0.8,0.3c2.8,0.6,3.1,1.7,0.6,2.5C722.1,321.4,720.4,321.7,718.6,321.8z M710,323.7       c1.6,0.1,3.4-0.1,4.6-0.5c1.6-0.5,1.4-1.2-0.4-1.6l-4.2-0.8l-0.2,0.1l-5.5,1.9l4.2,0.8C709,323.6,709.5,323.6,710,323.7        M716.8,318.5l-4.7,1.6l3.7,0.7c0.4,0.1,0.8,0.1,1.2,0.1c1.4,0.1,3-0.1,4-0.4c1.4-0.5,1.2-1.1-0.3-1.4l-3.7-0.7L716.8,318.5"/>
				</g>
				<g>
					<path class="st39" d="M718.6,321c0.6,0.6,0.2,1.3-1.6,1.9c-2,0.7-5,1-7.8,0.9c-1,0-1.9-0.1-2.7-0.3l-0.5-0.1l-0.2,0.1l-0.6,0.2       l-0.4-0.1l-1.9-0.4l0.8-0.3l-1.4-0.3l-0.2,0.1l-0.6,0.2l-0.4-0.1l-1.9-0.4l0.8-0.3l-1.4-0.3l1.9-0.6l0.2-0.1l1,0.2l0.4,0.1       l5.7-1.9l2-0.7l4.9-1.6l-1.4-0.3l1.9-0.6l0.2-0.1l1,0.2l0.4,0.1l0.6-0.2l0.2-0.1l2.3,0.5L719,317l1,0.2l0.4,0.1l0.6-0.2       l0.2-0.1l2.3,0.5l-0.8,0.3c2.8,0.5,3.1,1.7,0.6,2.5C722.1,320.6,720.4,320.9,718.6,321z M710,322.9c1.6,0.1,3.4-0.1,4.6-0.5       c1.6-0.5,1.4-1.2-0.4-1.6L710,320l-0.2,0.1l-5.5,1.9l4.2,0.8C709,322.8,709.5,322.9,710,322.9 M716.8,317.7l-4.7,1.6l3.7,0.7       c0.4,0.1,0.8,0.1,1.2,0.1c1.4,0.1,3-0.1,4-0.4c1.4-0.5,1.2-1.1-0.3-1.4l-3.7-0.7L716.8,317.7"/>
				</g>
				<path class="st19" d="M690.4,324.1v6c1.4,0.8,3.6,1.5,6.4,2.1c2.8,0.5,6,0.9,9.3,1V327c-3.4-0.1-6.7-0.5-9.6-1      C693.9,325.5,691.9,324.8,690.4,324.1z"/>
			</g>
		</g>
		<g>
			<g>
				<path class="st40" d="M697.1,279.8c2,4.1,7,5.8,11.2,3.7c4.2-2,6-7,4-11.1s-7-5.8-11.2-3.7C696.9,270.8,695.2,275.8,697.1,279.8      z"/>
				<path class="st40" d="M692.9,290.4c2.5,5.2,8.8,7.3,14.1,4.7s7.5-8.8,5-14c-2.5-5.2-8.8-7.3-14.1-4.7      C692.6,278.9,690.4,285.2,692.9,290.4z"/>
				<g>
					<g>
						<g>
							<path class="st11" d="M701.8,301.8c0,0,0.3,1.4-6.3,3.1c-6.7,1.7-16.8,2.5-16.8,2.5l15-5.3         C693.6,302.1,699.4,300.3,701.8,301.8z"/>
							<path class="st11" d="M684,306.5c-3.1,0.9-4,2.9-5.1,3.7c-1.1,0.8-2.1,1.9-2.1,1.9c0.3-1.5,1.3-1.9,1.7-2.5         c0.4-0.6,0.3-0.3-0.8-0.1c-0.6,0.1-1.4,1.6-2.1,2.4c-0.5,0.7-1,0.9-1,0.9s0.5-1.4,1.3-2.6c0.9-1.5,2.2-2.8,2.5-3.1         c0.6-0.5,2.7-1.1,4.2-1.4C684.3,305.7,686.2,305.9,684,306.5z"/>
							<path class="st11" d="M678.5,307.3c0,0-2.2,1.3-2.6,1.7c-0.2,0.3-1.1,1.9-1.1,1.9s0.9-0.4,1.2-1         C676.5,309.3,678.5,307.3,678.5,307.3z"/>
						</g>
						<path class="st41" d="M698.1,299.8c0,0,6.2-1.4,6.8,2.3c0.4,2.1-0.8,3.2-2.7,3.6c-3.5,0.7-7.5,1.3-7.5,1.3l-3.3-5.1        L698.1,299.8z"/>
					</g>
					<path class="st41" d="M697.7,296.7l1.7-16.9c0,0-0.1-4.4,1.5-4.3c2.3,0.1,2.7,3.9,2.9,5.3c0.4,2.8,1,3.9,0.9,10.9       c0,4.3,0.3,9.2,0,12.1c-0.2,2-2.1-0.2-4.2-0.4C696.8,303.1,697.7,296.7,697.7,296.7z"/>
				</g>
				<path class="st40" d="M705,269.1c2,4.1,7,5.8,11.2,3.7c4.2-2,6-7,4-11.1c-2-4.1-7-5.8-11.2-3.7S703,265,705,269.1z"/>
				<path class="st40" d="M696.4,266.5c1.5,3.1,5.3,4.5,8.5,2.9l0.1-3.4c3.1-1.5,4.5-5.3,2.9-8.5l-1-2.1c-1.5-3.1-5.3-4.5-8.5-2.9      l-1.4,0.7c-3.1,1.5-4.5,5.3-2.9,8.5L696.4,266.5z"/>
				<path class="st12" d="M694.6,257c0.3,0.5,0.6,1,0.9,1.5c2.4,3.4,5.9,5.1,8.5,4.2c0.9,1.6,1.9,2.9,3,4c1.2,1.2,3.6,1.9,3.6,1.9      c1.7,2.4,0.7,9.1-5.2,9.8c-3.6,0.4-2.8-3.3-1.6-5.7c0.6-1.1,1.1-2.4,1-3c-0.4-2.2-1.2-2.5-2.5-3.2c-2.1-0.9-4.1,0-4.1,0      c-0.2,0.1-0.4,0.1-0.6,0c-0.3-0.3-0.6-0.7-0.8-1.1l-2.3-4.7C693.9,259.7,694,258.2,694.6,257z"/>
				<path class="st14" d="M713.2,313.2c0,0-2.7,0.6-3.5,0.8c-1,0.4-3.9-0.1-3.9-0.1s-0.4-14.5-1.1-19.5c-0.7-5.1-2-6.4-2-8      c0-2.5,0.2-3.1,0.7-5.1c0.4-2-0.9-4.6-0.4-4.1c0.7,0.8,3.4,2.1,5.9-0.7C709.3,276,713.2,313.2,713.2,313.2z"/>
				<path class="st42" d="M703.6,271.3c0,0-3.7,3.7-3.5,4.9c0.1,1.2-0.2,6.3,0.6,11.8c0.8,5.4,1.5,6.8,1.7,10.8      c0.1,4-0.8,4.9-0.4,9.7c0.3,3.8,0.9,7.2,0.9,7.2s1.7,0.5,3-0.9c1.3-1.4,0.8-14.7,0.4-18c-0.5-3.3-2.4-11.9-2.3-14.1      c0.1-2.3,0.9-7.7,1.3-8.4C706.1,272.5,703.9,271.5,703.6,271.3z"/>
				<path class="st41" d="M703.6,271c0,0,0.2,0.3,0.5,0.5c0.5,0.3,1.1,1,1.1,1s-0.7-0.4-1,0.3c-0.3,0.8-0.6,2.5-0.6,2.5      s-1.4-2.2-1-3C703.1,271,703.6,271,703.6,271z"/>
				<path class="st40" d="M708.6,279.8c1.4,4.5,6.3,7.1,11,5.6c4.6-1.4,7.3-6.3,5.8-10.8c-1.4-4.5-6.3-7.1-11-5.6      C709.8,270.4,707.2,275.3,708.6,279.8z"/>
				<polygon class="st12" points="678.8,346.7 678.6,355.2 676.8,357.3 672.2,360 668.7,359.4 674.8,354.8 675.2,345.8     "/>
				<g id="w1l">
					<polygon class="st12" points="660.6,344 655,356.2 647.2,356.4 643.2,355.6 651.7,353.6 656.3,342.2      "/>
					<path class="st14" d="M691.9,319.1l-18.4-0.5l-13.7,30.1l-5.7-2.2l13.4-36.2c0,0,1.1-2.3,6.6-2.3c5.4,0,27.3-0.6,29.8,0.1       C709.7,309.7,690.9,314.1,691.9,319.1z"/>
					<path class="st14" d="M654.1,358.2l-1-0.2l-0.6-1.3l-6.3,0.3l-5.1-0.9c0,0,0.1-0.4,0.3-0.5c0.9-0.5,4.8-0.7,4.8-0.7       s-0.4,1.1,0,1.3c0.4,0.2,5.3-0.1,6.5-0.2c2-0.3,3.1-0.8,3-0.5C655.7,355.7,654.1,358.2,654.1,358.2z"/>
				</g>
				<path class="st43" d="M678.3,357.1l-1.6,1.1l-0.5-0.4l-4.3,2.7c0,0-3.9,1-4.7,0.1c-0.2-0.3,0.4-0.8,1.3-1.4      c0.7-0.5,1.1-0.7,1.1-0.7s0.2,0.7,1.7,0.9c0.5,0.1,3.6-2,4.6-2.5c1.9-0.9,2.7-2.3,2.7-2.2C679,355.2,678.3,357.1,678.3,357.1z"/>
				<path class="st44" d="M715.4,301.5l-2.2,5.3l-3.8,0.5l-30.9,2c0,0-2.8-0.9-4.5,3.5c-2.5,6.2,0.8,37.3,0.8,37.3l4.6-0.1l2.5-29.3      c0,0,29.7,5.2,38.2,2.6c3.3-1,5.8-6.8,5.3-12.6c-0.4-4.6-3.4-8.8-3.4-8.8L715.4,301.5z"/>
				<path class="st42" d="M711.2,312.5c0,0-1.4-12.9-2.2-19.1c-0.8-6.1-0.6-16.4-0.8-17.9s-1-3.6-1-3.6s1.5-3.3,3.4-3.2      c1.7,0.1,7.1,1.9,9.7,3c1.8,0.7,0.9,21.4,1,22.4c0.6,3.9,2.5,8.4,3.8,11.5c1,2.5,1.8,6.1,1.8,6.1S717,310.7,711.2,312.5z"/>
				<path class="st41" d="M710.2,267.8l-1.5,1.6c0,0-2,2.8-1.4,2.4c0.8-0.5,1.8,2.4,1.8,2.4l2.7-5.5L710.2,267.8z"/>
				<g>
					<path class="st12" d="M722,299.2c0,0,2.3,1.6-6.3,2.5c-8.5,0.9-21.3,0.2-21.3,0.2l19.5-3.7C714,298.2,719.4,297.1,722,299.2z"/>
					<path class="st12" d="M701.3,301.8c-4,0.5-5.5,2.6-7.1,3.4c-1.5,0.8-3,1.9-3,1.8c0.7-1.7,2-1.9,2.6-2.5c0.6-0.6,0.4-0.3-1-0.2       c-0.8,0.1-2.1,1.6-3,2.4c-0.8,0.7-1.4,0.9-1.4,0.9s0.9-1.5,2.1-2.7c1.4-1.5,3.3-2.8,3.7-3.1c0.8-0.4,3.5-0.9,5.5-0.9       C701.9,300.9,704.2,301.4,701.3,301.8z"/>
					<path class="st11" d="M694.4,301.9c0,0-3,1.1-3.5,1.6c-0.3,0.3-1.7,2-1.7,2s1.1-0.3,1.7-1C691.5,303.8,694.4,301.9,694.4,301.9       z"/>
				</g>
				<path class="st41" d="M717,296.8l-2.8-18.8c0,0,0.7-3.9,1.9-5.2c1.4-1.6,4.1-1.1,4.1-1.1s3.2,2.6,3.4,17.5      c0.2,10.2,1.1,14.4-3.3,14.8c-4.1,0.4-8.8,0.7-8.8,0.7l-3.1-6.1L717,296.8z"/>
			</g>
			<g>
				<rect x="666.9" y="307" class="st17" width="26.9" height="0.6"/>
				<path class="st17" d="M681.9,306.9c0,0.4-0.3,0.8-0.7,0.8h-13.8c-0.4,0-0.9-0.3-1.3-1.4l-6.8-12.5c0-0.5,0.4-0.9,0.8-0.8      l14.2,0.4c0.4,0.1,0.7,0.4,0.9,0.9L681.9,306.9z"/>
				<path class="st18" d="M680.3,307.5h0.1h13.5c-0.5,0.3-1.3,0.4-2.2,0.4h-11.3h-0.1H669c-0.9,0-1.7-0.2-2.2-0.4H680.3z"/>
			</g>
		</g>
	</g>
</g>
<g id="box2">
	<g>
		<g class="st20">
			<g>
				<rect x="413.8" y="116.9" class="st45" width="62.9" height="36.7"/>
			</g>
			<g>
				<rect x="413.8" y="154.1" class="st26" width="62.9" height="36.6"/>
			</g>
			<g>
				<rect x="419.7" y="159.2" class="st46" width="36.1" height="2.4"/>
			</g>
			<g>
				<rect x="419.7" y="164.4" class="st45" width="41.2" height="1.8"/>
			</g>
			<g>
				<rect x="419.5" y="168.6" class="st45" width="35.9" height="1.8"/>
			</g>
			<g>
				<rect x="419.1" y="175.7" class="st46" width="23.5" height="6.4"/>
			</g>
			<g>
				<rect x="424.5" y="178" class="st26" width="12.9" height="1.8"/>
			</g>
		</g>
	</g>
	<g>
		<g>
			<path class="st6" d="M471.9,142.7l-8.2-8.4l8.2-8.6h18.9v8.5v8.5H471.9z M471.6,132.5c-0.9,0-1.7,0.8-1.7,1.7     c0,1,0.8,1.7,1.7,1.7s1.7-0.8,1.7-1.7C473.3,133.3,472.6,132.5,471.6,132.5z"/>
			<polygon class="st26" points="481.3,129.8 479.9,132.6 476.9,133.1 479.1,135.3 478.6,138.4 481.3,136.9 484,138.4 483.5,135.3      485.7,133.1 482.6,132.6    "/>
		</g>
	</g>
</g>
<g id="box1">
	<g>
		<rect x="343" y="116.9" class="st45" width="62.9" height="36.7"/>
	</g>
	<g>
		<rect x="343" y="154.1" class="st26" width="62.9" height="36.6"/>
	</g>
	<g>
		<rect x="348.9" y="159.2" class="st46" width="36.1" height="2.4"/>
	</g>
	<rect x="348.9" y="164.4" class="st45" width="41.2" height="1.8"/>
	<rect x="348.8" y="168.6" class="st45" width="35.9" height="1.8"/>
	<g>
		<rect x="348.4" y="175.7" class="st46" width="23.5" height="6.4"/>
	</g>
	<rect x="353.7" y="178" class="st26" width="12.9" height="1.8"/>
	<g>
		
			<linearGradient id="SVGID_1_" gradientUnits="userSpaceOnUse" x1="391.95" y1="313.168" x2="391.95" y2="307.9946" gradientTransform="matrix(1 0 0 -1 0 452)">
			<stop offset="0" style="stop-color:#E04037"/>
			<stop offset="1" style="stop-color:#F95830"/>
		</linearGradient>
		<polygon class="st47" points="397,143.7 392,140.3 386.9,143.7 386.9,133.1 392,133.1 397,133.1   "/>
		
			<linearGradient id="SVGID_2_" gradientUnits="userSpaceOnUse" x1="392" y1="331.3795" x2="392" y2="320.3795" gradientTransform="matrix(1 0 0 -1 0 452)">
			<stop offset="0" style="stop-color:#E04037"/>
			<stop offset="1" style="stop-color:#F95830"/>
		</linearGradient>
		<path class="st48" d="M399.6,129c0,4.2-3.4,7.6-7.6,7.6s-7.6-3.4-7.6-7.6s3.4-7.6,7.6-7.6S399.6,124.8,399.6,129z"/>
		<polygon class="st26" points="392,124.5 393.4,126.3 395.7,126.3 395.2,128.5 396.6,130.3 394.6,131.3 394,133.6 392,132.6     389.9,133.6 389.4,131.3 387.3,130.3 388.7,128.5 388.2,126.3 390.5,126.3   "/>
	</g>
</g>
<g id="m2">
	<g id="m2l1">
		<path class="st49" d="M356.4,339c0,0-3.1,1.8-4.4,2.2c-1.1,0.4-3.3,0-4.4-0.2c-1-0.2-2.6-0.7-3.4-1.7c-1.1-1.4-3.3-6.3-3.3-6.3    l-0.8,0.8l-2.3-3.2c0,0,1-5.1,2.5-5.6c1.9-0.7,7.3,3.9,7.3,3.9l1.9,6.2l2.9,2.7c0,0,2.3,0,2.9,0.1C355.8,338,356.4,339,356.4,339z    "/>
		<path class="st13" d="M364.5,263.6l1.6,28.7l-16.3,38.4l-10-5.6l12.5-36.4l-3.1-26.9c-0.6-3.1-1.1-5.6-1.5-7.4    c-0.7-3.1-1-4.2-0.4-5.4c1.1-1.8,3.9-2.2,5.1-2.1C359.7,247.1,364.3,262.7,364.5,263.6z"/>
	</g>
	<g id="m2l2">
		<path class="st49" d="M388.5,339.2l2.6,6.6l5.7-1.8l-0.1-1.7l2.7-0.6l3.7-0.2l11.5-7.4c0,0-0.2-1.2-0.8-1.4    c-1.6-0.5-6.4,2.2-6.4,2.2l-8.8,0.4L388.5,339.2z"/>
		<path class="st14" d="M367.7,250.5c0,0,11.1,45.7,15,56.5c3.8,10.8,18.8,27.7,18.8,27.7l-15.7,6c0,0-18.1-36.3-21.7-48.8    c-3.7-12.5-12-26.2-12-26.2s-8.9-6.9-4.8-19.1C351.4,234.3,367.7,250.5,367.7,250.5z"/>
	</g>
	<g>
		<polygon class="st12" points="365.9,217.7 369.9,211.7 376.8,211.8 375,217.9 372.4,222.5   "/>
		<g>
			<path class="st50" d="M396.8,252.6c0.7,0.1,3.6,1.6,3.6,1.6s-0.1,1.6-0.2,2.1c-0.1,0.5-0.9-0.9-1.3,0.5c-0.4,1.4,0.2,2.8,0.2,2.8     l2.5,1.6l1.4,0.2l1.2-0.7l0.2-2.7l-0.4-4.5l-4.7-3.4l-2.9,0.5L396.8,252.6z"/>
			<path class="st50" d="M398.7,247.6l5.1,3.6c0,0,1.1,1.8,2,3.3c0.9,1.5,1.1,2.5,1.1,2.5s-0.5,2.8-1,3.3s-1.8-0.1-1.8-0.1l-2.7,0.2     c0,0-1-0.3-0.2-1.2c0.8-0.9,2.7-0.7,2.7-0.7s-0.1-1.5,0-2.1c0-0.6-2.2-3.5-2.2-3.5l-4.2-2.1L398.7,247.6z"/>
			<polygon class="st41" points="384.2,236.4 399.5,246.7 396.9,253.4 385.6,251.3    "/>
		</g>
		<path class="st51" d="M377.9,225.4l-6.7,34.9l-25-13l16.9-31C363.1,216.3,368.8,210.3,377.9,225.4z"/>
		<g>
			<path class="st8" d="M488.9,333c0,3-2.5,5.5-5.5,5.5s-5.5-2.5-5.5-5.5s2.5-5.5,5.5-5.5S488.9,329.9,488.9,333z"/>
			<path class="st18" d="M486.7,333c0,1.8-1.5,3.3-3.3,3.3c-1.8,0-3.3-1.5-3.3-3.3s1.5-3.3,3.3-3.3     C485.2,329.7,486.7,331.2,486.7,333z"/>
			<path class="st17" d="M486.3,333c0,1.6-1.3,2.9-2.9,2.9s-2.9-1.3-2.9-2.9s1.3-2.9,2.9-2.9C485,330,486.3,331.4,486.3,333z"/>
			<path class="st17" d="M484.6,331.7c0,1.7-1,2.1-2.2,0.8l-4.4-4.8c-1.2-1.3-0.7-2.3,1-2.3h2.4c1.7,0,3.1,1.4,3.1,3.2L484.6,331.7z     "/>
			<path class="st18" d="M478.5,328.2c0.2,0,0.4-0.1,0.6-0.1h2.4c1.6,0,3,1.3,3.1,2.9v-2.4c0-1.7-1.4-3.2-3.1-3.2h-2.4     c-1.7,0-2.2,1-1,2.3L478.5,328.2z"/>
			<path class="st8" d="M446.7,333c0,3-2.5,5.5-5.5,5.5s-5.5-2.5-5.5-5.5s2.5-5.5,5.5-5.5C444.3,327.5,446.7,329.9,446.7,333z"/>
			<path class="st18" d="M444.5,333c0,1.8-1.5,3.3-3.3,3.3c-1.8,0-3.3-1.5-3.3-3.3s1.5-3.3,3.3-3.3C443,329.7,444.5,331.2,444.5,333     z"/>
			<path class="st17" d="M444.1,333c0,1.6-1.3,2.9-2.9,2.9c-1.6,0-2.9-1.3-2.9-2.9s1.3-2.9,2.9-2.9C442.8,330,444.1,331.4,444.1,333     z"/>
			<path class="st17" d="M442.5,331.7c0,1.7-1,2.1-2.2,0.8l-4.4-4.8c-1.2-1.3-0.7-2.3,1-2.3h2.4c1.7,0,3.1,1.4,3.1,3.2L442.5,331.7z     "/>
			<path class="st18" d="M436.3,328.2c0.2,0,0.4-0.1,0.6-0.1h2.4c1.6,0,3,1.3,3.1,2.9v-2.4c0-1.7-1.4-3.2-3.1-3.2H437     c-1.7,0-2.2,1-1,2.3L436.3,328.2z"/>
			<g>
				<g>
					
						<rect x="458.1" y="250.3" transform="matrix(0.1094 -0.994 0.994 0.1094 125.2984 711.3298)" class="st17" width="3.1" height="70.8"/>
				</g>
			</g>
			<g>
				<g>
					
						<rect x="460.8" y="264.6" transform="matrix(6.116122e-02 -0.9981 0.9981 6.116122e-02 137.5667 740.439)" class="st17" width="3.1" height="65"/>
				</g>
			</g>
			<path class="st18" d="M490.3,326.7L490.3,326.7l-53.1-0.5c-1.3,0-3.1-0.2-4.3-1.6c-1.4-1.8-1-4.6-0.3-7.5c1-4.7,1.6-7.8,1.6-7.8     c0.1-0.7,0.8-1.3,1.5-1.2c9.9,0.1,29.2,0.2,31.6,0c0.9-0.1,1.6,0.6,1.7,1.4c0.1,0.9-0.6,1.6-1.4,1.7c-2.8,0.2-25,0.1-30.7,0     c-0.3,1.3-0.7,3.6-1.4,6.5c-0.2,1.1-0.9,4.2-0.3,4.9c0.2,0.3,0.9,0.4,1.9,0.4l53.1,0.5c0.9,0,1.5,0.7,1.5,1.6     C491.8,326,491.1,326.7,490.3,326.7z"/>
			<path class="st17" d="M436.9,325.2c-1.2,0-2.8-0.1-3.8-1.3c-1.2-1.5-0.8-4.2-0.2-7c1-4.7,1.6-7.8,1.6-7.9     c0.1-0.4,0.4-0.7,0.8-0.7c6.3,0.1,15.5,0.1,22.4,0.1c5.5,0,8.8,0,9.7-0.1l0,0c0.5,0,0.9,0.3,0.9,0.8c0,0.2-0.1,0.4-0.2,0.6     c-0.1,0.2-0.3,0.3-0.6,0.3c-1,0.1-4.3,0.1-10,0.1c-7.6,0-17.2-0.1-21-0.1h-0.6l-0.1,0.6c-0.3,1.3-0.8,3.6-1.4,6.6     c-0.7,3.3-0.8,4.9-0.2,5.6c0.4,0.5,1.2,0.7,2.5,0.7l53.8,0.5c0.5,0,0.8,0.4,0.8,0.8c0,0.5-0.4,0.8-0.8,0.8L436.9,325.2z"/>
			<g>
				<g>
					<path class="st17" d="M441.4,307c-0.7,0-1.3-0.4-1.5-1.1l-9.9-33c-0.2-0.8,0.2-1.7,1-1.9s1.7,0.2,1.9,1l9.9,33       c0.2,0.8-0.2,1.7-1,1.9C441.7,307,441.5,307,441.4,307z"/>
				</g>
				<g>
					<path class="st17" d="M449.1,307c-0.7,0-1.3-0.5-1.5-1.2l-7.9-31.7c-0.2-0.8,0.3-1.7,1.1-1.9c0.8-0.2,1.7,0.3,1.9,1.1l7.9,31.7       c0.2,0.8-0.3,1.7-1.1,1.9C449.3,307,449.2,307,449.1,307z"/>
				</g>
				<g>
					<path class="st17" d="M456.7,307c-0.7,0-1.4-0.5-1.5-1.3l-5.9-30.3c-0.2-0.8,0.4-1.7,1.2-1.8c0.8-0.2,1.7,0.4,1.8,1.2l5.9,30.3       c0.2,0.8-0.4,1.7-1.2,1.8C456.9,307,456.8,307,456.7,307z"/>
				</g>
				<g>
					<path class="st17" d="M464.4,307c-0.8,0-1.4-0.6-1.5-1.4l-3.9-29c-0.1-0.9,0.5-1.6,1.3-1.7c0.8-0.1,1.6,0.5,1.7,1.3l3.9,29       c0.1,0.9-0.5,1.6-1.3,1.7C464.5,307,464.5,307,464.4,307z"/>
				</g>
				<g>
					<path class="st17" d="M472.1,307c-0.8,0-1.5-0.6-1.6-1.5l-1.8-27.7c-0.1-0.9,0.6-1.6,1.4-1.7c0.9-0.1,1.6,0.6,1.7,1.4l1.8,27.7       c0.1,0.9-0.6,1.6-1.4,1.7C472.1,307,472.1,307,472.1,307z"/>
				</g>
				<g>
					<path class="st17" d="M479.7,307L479.7,307c-0.9,0-1.6-0.7-1.6-1.6l0.2-26.4c0-0.9,0.7-1.5,1.6-1.5l0,0c0.9,0,1.5,0.7,1.5,1.6       l-0.2,26.4C481.3,306.3,480.6,307,479.7,307z"/>
				</g>
				<g>
					<path class="st17" d="M487.4,307h-0.1c-0.9-0.1-1.5-0.8-1.4-1.7l2.2-25c0.1-0.9,0.8-1.5,1.7-1.4c0.9,0.1,1.5,0.8,1.4,1.7       l-2.2,25C488.9,306.4,488.2,307,487.4,307z"/>
				</g>
			</g>
			<g>
				<g>
					<path class="st17" d="M492.9,307.8h-58.3c-0.6,0-1.2-0.4-1.4-1l-16.3-40.2l0,0c0,0-0.8-1.5-4.5-2.7c-4.7-1.6-10.3-4.1-10.5-4.2       c-0.8-0.4-1.1-1.3-0.8-2.1c0.4-0.8,1.3-1.1,2.1-0.8c0.1,0,5.7,2.6,10.2,4.1c5.1,1.7,6.2,4.1,6.4,4.6l1.5,3.8l76,10       c0.4,0.1,0.8,0.3,1,0.6c0.3,0.3,0.4,0.8,0.3,1.2l-4.1,25.4C494.3,307.2,493.6,307.8,492.9,307.8z M435.6,304.7h55.9l3.7-22.5       l-72.6-9.5L435.6,304.7z"/>
				</g>
			</g>
			<g>
				<g>
					<path class="st17" d="M492.9,307.8h-58.3c-0.6,0-1.2-0.4-1.4-1l-16.3-40.2l0,0c0,0-0.8-1.5-4.5-2.7c-4.7-1.6-10.3-4.1-10.5-4.2       c-0.8-0.4-1.1-1.3-0.8-2.1c0.4-0.8,1.3-1.1,2.1-0.8c0.1,0,5.7,2.6,10.2,4.1c5.1,1.7,6.2,4.1,6.4,4.6l1.5,3.8l76,10       c0.4,0.1,0.8,0.3,1,0.6c0.3,0.3,0.4,0.8,0.3,1.2l-4.1,25.4C494.3,307.2,493.6,307.8,492.9,307.8z M435.6,304.7h55.9l3.7-22.5       l-72.6-9.5L435.6,304.7z"/>
				</g>
			</g>
			<g>
				<g>
					<polygon class="st18" points="492.3,303.5 496,281 423.4,271.5 423.9,272.8 495.2,282.2 491.7,303.5      "/>
				</g>
				<g>
					<path class="st18" d="M493.7,306.7h-58.3c-0.6,0-1.2-0.4-1.4-1l-16.3-40.2c0,0-0.8-1.5-4.5-2.7c-4.7-1.6-10.3-4.1-10.5-4.2       c-0.7-0.3-1-1-0.9-1.7c-0.3,0.2-0.5,0.4-0.7,0.7c-0.4,0.8,0,1.7,0.8,2.1c0.2,0.1,5.8,2.6,10.5,4.2c3.7,1.2,4.5,2.7,4.5,2.7       l16.3,40.2c0.2,0.6,0.8,1,1.4,1h58.3c0.8,0,1.4-0.6,1.5-1.3l0,0C494.2,306.6,493.9,306.7,493.7,306.7z"/>
				</g>
			</g>
			<g>
				<path class="st5" d="M435.4,305.8c-0.2,0-0.5-0.1-0.5-0.4l-16.6-40.8h-0.2c-0.6-0.6-1.9-1.8-4.7-2.7c-4.7-1.6-10.2-4.1-10.4-4.2      c-0.1-0.1-0.3-0.2-0.3-0.3c-0.1-0.1,0-0.3,0-0.5c0.1-0.2,0.3-0.3,0.5-0.3c0.1,0,0.2,0,0.2,0.1c0.1,0,5.7,2.6,10.3,4.1      c4.8,1.6,5.7,3.7,5.8,4l1.8,4.3l76.5,10c0.2,0,0.3,0.1,0.4,0.2c0.1,0.1,0.1,0.3,0.1,0.4l-4.1,25.4c0,0.3-0.3,0.5-0.6,0.5h-58.2      V305.8z M435.8,304.7h57.4l4-24.3l-75.3-9.9L435.8,304.7z"/>
			</g>
			<path class="st8" d="M413.5,260.4l-10.1-4.1c-1.1-0.4-2.3,0.1-2.8,1.2c-0.4,1.1,0.1,2.3,1.2,2.8l10.3,4.2L413.5,260.4z"/>
			<path class="st5" d="M449.4,305.7c-0.3,0-0.5-0.2-0.6-0.5l-2.3-9.1l-7.1-0.4l2.8,9.2c0.1,0.3-0.1,0.7-0.4,0.8c-0.1,0-0.1,0-0.2,0     c-0.3,0-0.5-0.2-0.6-0.4l-2.9-9.6l-7.3-0.4l0.1-1.2l6.8,0.4l-3.5-11.6l-9-1l0.1-1.2l8.5,0.9l-2.9-9.8c-0.1-0.3,0.1-0.7,0.4-0.7     c0.1,0,0.1,0,0.2,0c0.3,0,0.5,0.2,0.6,0.4l3.1,10.3l8,0.9l-2.4-9.5c0-0.2,0-0.3,0.1-0.5c0.1-0.1,0.2-0.2,0.4-0.3h0.1     c0.3,0,0.5,0.2,0.6,0.5l2.5,9.9l8,0.9l-1.8-9.2c-0.1-0.3,0.2-0.6,0.5-0.7h0.1c0.3,0,0.5,0.2,0.6,0.5l1.8,9.6l8,0.9l-1.2-8.9     c0-0.3,0.2-0.6,0.5-0.7l0,0c0.4,0,0.6,0.2,0.7,0.5l1.2,9.2l8,0.9l-0.6-8.6c0-0.2,0-0.3,0.1-0.4c0.1-0.1,0.3-0.2,0.4-0.2l0,0     c0.4,0,0.6,0.2,0.6,0.6l0.6,8.8l8,0.9l0.1-8.3c0-0.3,0.3-0.6,0.6-0.6c0.3,0,0.6,0.3,0.6,0.6l-0.1,8.4l8,0.9l0.7-8     c0-0.3,0.3-0.6,0.6-0.6c0.2,0,0.4,0.1,0.5,0.2s0.2,0.3,0.1,0.4l-0.7,8.1l4.6,0.5l-0.1,1.2l-4.6-0.5l-0.7,8.6l5.4,0.3l-0.1,1.2     l-5.4-0.3l-0.6,6.4c0,0.3-0.3,0.5-0.6,0.5c-0.2,0-0.4-0.1-0.5-0.2c-0.1-0.1-0.2-0.3-0.1-0.4l0.6-6.3l-7.1-0.4v6.8     c0,0.3-0.3,0.6-0.6,0.6c-0.3,0-0.6-0.3-0.6-0.6v-6.9l-7.1-0.4l0.5,7.3c0,0.2,0,0.3-0.1,0.4c-0.1,0.1-0.3,0.2-0.4,0.2l0,0     c-0.4,0-0.6-0.2-0.6-0.6l-0.5-7.5l-7.1-0.4l1,7.8c0,0.3-0.2,0.6-0.5,0.7l0,0c-0.4,0-0.6-0.2-0.7-0.5l-1.1-8l-7.1-0.4l1.6,8.2     c0.1,0.3-0.2,0.6-0.5,0.7h-0.1c-0.3,0-0.5-0.2-0.6-0.5l-1.7-8.6l-7.1-0.4l2.2,8.7c0.1,0.3-0.1,0.6-0.4,0.7     C449.5,305.7,449.4,305.7,449.4,305.7z M481.2,297l7.2,0.4l0.8-8.7l-7.9-0.9L481.2,297z M472.8,296.5l7.2,0.4l0.1-9.2l-7.9-0.9     L472.8,296.5z M464.4,296l7.2,0.4l-0.6-9.7l-7.9-0.9L464.4,296z M455.9,295.5l7.2,0.4l-1.3-10.1l-7.9-0.9L455.9,295.5z      M447.5,295l7.2,0.4l-2-10.6l-7.9-0.9L447.5,295z M439,294.5l7.2,0.4l-2.8-11.1l-7.9-0.9L439,294.5z"/>
		</g>
		<path class="st41" d="M386.3,240.5c0,0-5.4-11.3-7.5-14.6c-1.5-2.3-6.3-7.6-6.3-7.6s-3.5,2-4.1,4.1c-1.9,6,1.5,12.7,1.5,12.7    l15.8,16l3.2-3.4L386.3,240.5z"/>
		<polygon class="st41" points="368.4,213.5 366.5,215.3 375.5,222.1 375.7,219.4   "/>
	</g>
	<g id="m2h">
		<g>
			<g>
				<path class="st13" d="M382.4,204.5c-0.1,1.4-1.3,2.5-2.7,2.4l-9.8-0.6c-1.4-0.1-2.5-1.3-2.4-2.7l0,0c0.1-1.4,1.3-2.5,2.7-2.4      l9.8,0.6C381.4,201.9,382.4,203.1,382.4,204.5L382.4,204.5z"/>
				<path class="st13" d="M380.3,208.9c-0.2,2.6-2.4,4.6-5.1,4.5l-5.1-0.3c-2.6-0.2-4.6-2.4-4.5-5.1l0,0c0.2-2.6,2.4-4.7,5.1-4.5      l5.1,0.3C378.4,204,380.5,206.3,380.3,208.9L380.3,208.9z"/>
				<path class="st12" d="M383.7,216.8l0.9-14.9c0.1-2.4-1.9-0.1-4.3-0.3l-2.3-0.1c-2.4-0.1-4.4,1.7-4.6,4l-0.6,10.6L383.7,216.8z"/>
				<path class="st12" d="M375.1,209c-0.1,1-1,1.8-2,1.8l0,0c-1-0.1-1.8-1-1.8-2l0,0c0.1-1,1-1.8,2-1.8l0,0      C374.4,207,375.2,207.9,375.1,209L375.1,209z"/>
				<path class="st12" d="M382.7,212c0,0.6,0.4,1.1,1,1.2l0.9,0.1c0.6,0,1.1-0.4,1.1-1c0,0-1.6-5.8-2.2-5.8c0,0-0.5,0.5-0.5,1.1      L382.7,212z"/>
				<path class="st13" d="M377.7,215.6c-4.3-0.3-4.7-1.6-4.7-3.1c0,0-1.4,3.7-1.5,4.9l-0.1,1.4c-0.2,2.6,2.4,4.9,5.7,5.1l6,0.4      l0.4-6.7l0.1-1.6L377.7,215.6z"/>
				<path class="st13" d="M383.9,213.2l-3.4-0.2c-1.6-0.1-2.9,1.1-3,2.7c0,0.3,0,0.5,0.1,0.7l6.2,0.4L383.9,213.2z"/>
				<path class="st12" d="M379.3,216l-0.1,1c0,0.3,0.2,0.5,0.4,0.5l2.8,0.2c0.3,0,0.5-0.2,0.5-0.4l0.1-1L379.3,216z"/>
				<path class="st13" d="M383.2,199.1l-8.8-0.5c-1-0.1-1.8,0.7-1.8,1.6l-0.2,3.4l10.6,0.6L383.2,199.1z"/>
				<path class="st13" d="M388.6,202c-0.1,1.4-1.3,2.5-2.8,2.4l-6-0.4c-1.4-0.1-2.5-1.3-2.4-2.8l0,0c0.1-1.4,1.3-2.5,2.8-2.4l6,0.4      C387.6,199.3,388.7,200.6,388.6,202L388.6,202z"/>
				
					<rect x="371.3" y="204.5" transform="matrix(5.957248e-02 -0.9982 0.9982 5.957248e-02 146.8247 567.2953)" class="st13" width="6.3" height="2.4"/>
				
					<rect x="374.7" y="200.1" transform="matrix(5.978430e-02 -0.9982 0.9982 5.978430e-02 152.5011 569.1167)" class="st13" width="7.4" height="7"/>
				<path class="st12" d="M375.6,207.4c0.1-2,1.8-3.5,3.8-3.3l1.8,0.1c2,0.1,2.9,1.8,2.8,3.7l0,0c-0.1,2-1.8,3.5-3.8,3.3l-1.3-0.1      C377,211.1,375.5,209.4,375.6,207.4L375.6,207.4z"/>
			</g>
		</g>
	</g>
</g>
<g id="like">
	<g>
		<path class="st52" d="M439.4,174.5H419c-5.6,0-10.2,4.6-10.2,10.2c0,5.4,4.3,9.9,9.6,10.2v8.4l8.4-8.4h12.6    c5.6,0,10.2-4.6,10.2-10.2C449.6,179.1,445.1,174.5,439.4,174.5z"/>
		<g>
			<g>
				<path class="st26" d="M435,181.7h-4.9c0.2-0.6,0.5-1.2,0.6-1.6c0.1-0.4,0-1.2,0-1.2c0-0.6-0.5-1.2-1.2-1.2h-0.6v1.8      c0,0-2,2.4-2,3.3v5.6c0,0.6,0.5,1.2,1.2,1.2h4.1c0.6,0,1.3-0.5,1.6-1.2l2.1-5.6C436,182.2,435.6,181.7,435,181.7z"/>
				<rect x="426.1" y="182.6" class="st26" width="1.5" height="6.3"/>
				<rect x="421.5" y="181.7" class="st26" width="2.7" height="8"/>
			</g>
		</g>
	</g>
</g>
</svg>