<svg width="800" height="450" xmlns="http://www.w3.org/2000/svg">
 <g>
  <title>background</title>
  <rect x="-1" y="-1" width="890.88889" height="502" id="canvas_background" fill="#fff"/>
 </g>

 <g>
  <title>background</title>
  <rect x="-1" y="-1" width="1068.66667" height="602" id="canvas_background" fill="#fff"/>
 </g>
 <g>
  <title>background</title>
  <rect height="452" width="802" fill="none" y="-1" x="-1" id="canvas_background"/>
  <rect height="450" width="800" fill="#D2527F" x="0" id="svg_86"/>
  <rect height="315" width="851.999" fill="#111111" y="70.01" x="-23.892" id="svg_1"/>
 </g>
 <g>
  <title>Layer 1</title>
  <style type="text/css">:root {
        --animate-duration: 1s;
        --animate-delay: 1s;
        --animate-repeat: 1;
      }
      
       .animate__animated {
        -webkit-animation-duration: 1s;
        animation-duration: 1s;
        -webkit-animation-duration: var(--animate-duration);
        animation-duration: var(--animate-duration);
        -webkit-animation-fill-mode: both;
        animation-fill-mode: both;
      }
    @-webkit-keyframes fadeIn {
    from {
        opacity: 0
    }

    to {
        opacity: 1
    }
}

@keyframes fadeIn {
    from {
        opacity: 0
    }

    to {
        opacity: 1
    }
}

.animate__fadeIn {
    -webkit-animation-name: fadeIn;
    animation-name: fadeIn
}

    .animate__animated.animate__repeat-1 {
          -webkit-animation-iteration-count: 1;
          animation-iteration-count: 1;
          -webkit-animation-iteration-count: var(--animate-repeat);
          animation-iteration-count: var(--animate-repeat);
        }
    .animate__animated.animate__delay-1s {
          -webkit-animation-delay: 1s;
          animation-delay: 1s;
          -webkit-animation-delay: var(--animate-delay);
          animation-delay: var(--animate-delay);
        }
    .animate__animated.animate__faster {
          -webkit-animation-duration: calc(1s / 2);
          animation-duration: calc(1s / 2);
          -webkit-animation-duration: calc(var(--animate-duration) / 2);
          animation-duration: calc(var(--animate-duration) / 2);
        }</style>
  <g id="svg_87" class="animate__animated animate__fadeIn animate__repeat-1 animate__delay-1s animate__faster">
   <text x="-2.22222" y="-3.33333" font-size="58.81" font-family="'HelveticaWorld-Bold'" fill="#FFFFFF" transform="matrix(1,0,0,1,158.4109,215.1035) " id="svg_84">12345</text>
  </g>
  <style type="text/css">:root {
        --animate-duration: 1s;
        --animate-delay: 1s;
        --animate-repeat: 1;
      }
      
       .animate__animated {
        -webkit-animation-duration: 1s;
        animation-duration: 1s;
        -webkit-animation-duration: var(--animate-duration);
        animation-duration: var(--animate-duration);
        -webkit-animation-fill-mode: both;
        animation-fill-mode: both;
      }
    @-webkit-keyframes fadeIn {
    from {
        opacity: 0
    }

    to {
        opacity: 1
    }
}

@keyframes fadeIn {
    from {
        opacity: 0
    }

    to {
        opacity: 1
    }
}

.animate__fadeIn {
    -webkit-animation-name: fadeIn;
    animation-name: fadeIn
}

    .animate__animated.animate__repeat-1 {
          -webkit-animation-iteration-count: 1;
          animation-iteration-count: 1;
          -webkit-animation-iteration-count: var(--animate-repeat);
          animation-iteration-count: var(--animate-repeat);
        }
    .animate__animated.animate__delay-2s {
          -webkit-animation-delay: calc(1s * 2);
          animation-delay: calc(1s * 2);
          -webkit-animation-delay: calc(var(--animate-delay) * 2);
          animation-delay: calc(var(--animate-delay) * 2);
        }
    .animate__animated.animate__faster {
          -webkit-animation-duration: calc(1s / 2);
          animation-duration: calc(1s / 2);
          -webkit-animation-duration: calc(var(--animate-duration) / 2);
          animation-duration: calc(var(--animate-duration) / 2);
        }</style>
  <g id="svg_88" class="animate__animated animate__fadeIn animate__repeat-1 animate__delay-2s animate__faster">
   <g id="svg_2">
    <path d="m81.974,257.276c-0.899,-0.2 -0.6,1.899 -0.7,2.3c1.5,-0.4 0.6,-2.8 0.7,-2.3z" fill="#FFFFFF" id="svg_3"/>
    <polygon points="97.574,252.576 97.274,253.376 99.574,251.276   " fill="#FFFFFF" id="svg_4"/>
    <path d="m112.174,252.576c-1.4,-3.6 -5.3,0.6 -7.9,-0.7l-0.399,-0.8l-1.2,2.9c3.099,-0.499 7.199,-2.4 9.499,-1.4z" fill="#FFFFFF" id="svg_5"/>
    <path d="m119.874,260.276c-0.5,-1.4 1.7,-1.2 -1.8,-0.4c0.199,0.2 0.199,0.2 0.3,0.4c0.4,-0.1 0.8,-0.1 1.5,0z" fill="#FFFFFF" id="svg_6"/>
    <path d="m118.474,260.276c-1.6,0.1 1,1.1 0,0l0,0z" fill="#FFFFFF" id="svg_7"/>
    <path d="m125.574,259.477l-2,1.199c0.399,0.801 2.199,1 1.6,1.601c2,-0.701 1.5,-1.501 0.4,-2.8l0,0z" fill="#FFFFFF" id="svg_8"/>
    <path d="m127.474,256.876l-1,0.5c0.1,0.3 0.4,0.4 1,-0.5z" fill="#FFFFFF" id="svg_9"/>
    <path d="m124.174,258.477l2.2,-1.101c-0.3,-0.6 -0.3,-1.7 -1,0.4c0.2,-1.1 -0.3,-0.1 -1.2,0.701z" fill="#FFFFFF" id="svg_10"/>
    <path d="m122.874,257.876c-1.101,-0.8 -2.601,-1.3 -0.601,-2.5c-3.799,0.5 -3.199,3 0.601,2.5z" fill="#FFFFFF" id="svg_11"/>
    <path d="m112.874,248.876l-1.5,-1l-1.3,1.2c0.6,-0.599 2.9,0.901 2.8,-0.2z" fill="#FFFFFF" id="svg_12"/>
    <path d="m553.205,526.331c0.1,-0.8 -0.7,-2 -0.8,-3l-1.5,0.899c0.7,0.501 2.2,1.001 2.3,2.101z" fill="#FFFFFF" id="svg_13"/>
    <path d="m137.274,258.276l2.2,-1.3c-1.9,-0.1 -2.3,0.501 -2.2,1.3z" fill="#FFFFFF" id="svg_14"/>
    <polygon points="127.774,252.876 124.174,255.576 128.474,252.876   " fill="#FFFFFF" id="svg_15"/>
    <polygon points="146.674,261.376 145.374,263.176 147.674,260.477   " fill="#FFFFFF" id="svg_16"/>
    <path d="m152.374,261.076c-0.9,1.5 1.3,2.5 0.3,3.4c1.5,-0.301 2.9,-1.5 4,-2.601c-1.3,0.501 -2.6,0.401 -4.3,-0.799z" fill="#FFFFFF" id="svg_17"/>
    <path d="m158.674,260.176c-0.6,0.301 -1.3,1 -2,1.601c0.7,-0.3 1.3,-0.8 2,-1.601z" fill="#FFFFFF" id="svg_18"/>
    <path d="m143.374,257.376c0.2,0.5 0.5,1.7 1.8,2.2l-0.9,-2.1c-0.3,-0.1 -0.6,-0.1 -0.9,-0.1l0,0z" fill="#FFFFFF" id="svg_19"/>
    <path d="m144.174,257.276l0,0c1,0.1 1.6,0.2 1.9,0.2c-0.2,0.001 -0.8,0.001 -1.9,-0.2z" fill="#FFFFFF" id="svg_20"/>
    <path d="m143.074,257.376c0.1,0 0.1,0 0.199,0c0.001,-0.2 -0.099,-0.3 -0.199,0z" fill="#FFFFFF" id="svg_21"/>
    <path d="m133.674,254.776c1.3,-1.2 4.1,-2.5 1.4,-4.3c-0.9,1.501 0.6,2.501 -1.4,4.3z" fill="#FFFFFF" id="svg_22"/>
    <path d="m142.074,254.676l-2.4,-0.5c0,0.601 0.5,1.4 -0.2,2l2.6,-1.5l0,0z" fill="#FFFFFF" id="svg_23"/>
    <polygon points="143.174,253.977 142.074,254.676 142.874,254.876   " fill="#FFFFFF" id="svg_24"/>
    <path d="m154.574,258.176c1,-0.899 2.1,-1 3.399,-1.199c-1.399,-0.4 -2.8,-0.601 -4.1,-0.601c-0.199,0.7 -0.699,1.9 0.701,1.8l0,0z" fill="#FFFFFF" id="svg_25"/>
    <path d="m149.574,257.576c0.1,0 0.199,-0.1 0.199,-0.1c-0.199,-0.2 -0.299,-0.3 -0.199,0.1z" fill="#FFFFFF" id="svg_26"/>
    <path d="m170.474,256.977c-0.1,-0.101 -0.1,-0.301 -0.2,-0.4c0,0.1 0,0.2 0,0.4l0.2,0z" fill="#FFFFFF" id="svg_27"/>
    <path d="m153.674,255.977c-1,-0.4 -1.6,0.1 -2.2,0.8c0.8,-0.2 1.601,-0.4 2.4,-0.4c0.1,-0.301 0.1,-0.501 -0.2,-0.4z" fill="#FFFFFF" id="svg_28"/>
    <path d="m162.174,259.176c-0.5,-0.399 -1.1,-0.8 -1.8,-1.199c0.5,0.699 1.6,1.699 1.8,1.199z" fill="#FFFFFF" id="svg_29"/>
    <path d="m150.074,258.076c-0.101,0 -0.101,0.1 -0.2,0.1c0.4,0.4 0.4,0.2 0.2,-0.1z" fill="#FFFFFF" id="svg_30"/>
    <path d="m150.074,258.076c0.5,-0.3 0.899,-0.8 1.399,-1.3c-0.6,0.2 -1.2,0.399 -1.7,0.7c0.101,0.1 0.201,0.4 0.301,0.6l0,0z" fill="#FFFFFF" id="svg_31"/>
    <path d="m174.274,243.276c-0.199,2 -2.899,3.8 -5.199,1.7c-2.301,1.5 -0.801,8 1.199,11.6c0.101,-0.9 0.101,-1.7 2.4,-2.8c-0.8,-1.101 -5.2,-2.5 -3.2,-4.3c3.101,-1 2.5,0.699 4.101,1.699c-1.301,-2.5 4,-3.6 3.3,-7.199l-2.7,1.3c-0.101,-0.6 0.799,-1.5 0.099,-2l0,0z" fill="#FFFFFF" id="svg_32"/>
    <path d="m165.774,256.477l-1,0.199c1.101,0.301 1.9,1.101 3.301,2.7c1.6,-1 1.899,-1.7 2.1,-2.399l-4.8,-0.301l0.399,-0.199l0,0z" fill="#FFFFFF" id="svg_33"/>
    <path d="m160.474,256.676c0.8,-2.199 3.101,-3.1 1.7,-5.399c-2.8,0.1 -2,1.8 -3.7,2.7c4.601,-0.5 -1.3,1.199 2,2.399c-0.899,0.4 -1.7,0.5 -2.5,0.601c0.8,0.3 1.601,0.6 2.4,1l-0.101,-0.101l0,0l0,0c-0.199,-0.3 -0.3,-0.399 0,-0.3l0.101,0c0,-0.4 0,-0.599 0.1,-0.9c1.3,0.5 0.2,0.601 -0.2,0.801c0,0.1 -0.1,0.199 -0.1,0.3l0,0l4.6,-1.2c-0.9,-0.201 -2.1,-0.1 -4.3,0.099z" fill="#FFFFFF" id="svg_34"/>
    <path d="m137.474,245.876c0.101,0.2 0.101,0.3 0.101,0.5c0.399,-0.3 0.499,-0.399 -0.101,-0.5z" fill="#FFFFFF" id="svg_35"/>
    <path d="m139.374,247.176c-0.3,0.301 -0.601,1.2 -1.7,0.9c-0.9,-0.6 0,-1 0,-1.7c-0.7,0.601 -2.3,1.5 -0.2,2.601l0.3,-0.301c1.801,0.7 4.2,3.4 3.9,3.7c-0.6,-1.899 -1,-3.3 -2.3,-5.2z" fill="#FFFFFF" id="svg_36"/>
    <path d="m150.074,251.376l3.8,-1.1l-1.9,-1.9l0.101,1.101c-2.201,-0.301 -1.701,1 -2.001,1.899l0,0z" fill="#FFFFFF" id="svg_37"/>
    <polygon points="170.874,258.076 170.374,260.376 172.574,257.176   " fill="#FFFFFF" id="svg_38"/>
    <polygon points="175.874,257.776 175.674,259.776 176.974,258.576   " fill="#FFFFFF" id="svg_39"/>
    <path d="m455.674,233.276l1.1,-0.601c-0.5,0.201 -0.901,0.401 -1.1,0.601z" fill="#FFFFFF" id="svg_40"/>
    <path d="m447.573,233.176l-0.2,1c0.301,-0.6 0.5,-1 0.2,-1z" fill="#FFFFFF" id="svg_41"/>
    <path d="m297.674,257.576c1.6,1.8 3.5,4.7 3.3,2.5l-0.5,-2.2c-1.2,0.4 -2.1,0.2 -2.8,-0.3z" fill="#FFFFFF" id="svg_42"/>
    <path d="m381.073,244.676c-0.2,-0.199 -0.3,-0.399 -0.5,-0.699c-0.399,0.699 -0.8,1.399 -1.1,2.1c0.501,-0.501 1.001,-0.901 1.6,-1.401l0,0z" fill="#FFFFFF" id="svg_43"/>
    <path d="m382.174,235.676l2.199,1.4c-0.5,-0.5 -1.199,-1 -2.199,-1.4z" fill="#FFFFFF" id="svg_44"/>
    <path d="m499.974,230.977l1.3,-2.2c-2,-0.001 -1.1,1.099 -1.3,2.2z" fill="#FFFFFF" id="svg_45"/>
    <path d="m226.674,256.977c1.4,0.8 2.5,1.199 3.5,1.3c-1.7,-1.201 -3.1,-3.101 -3.5,-1.3z" fill="#FFFFFF" id="svg_46"/>
    <path d="m452.474,256.276c0.7,-0.4 1,-0.8 1,-1.3c-0.8,0.4 -1.2,0.8 -1,1.3z" fill="#FFFFFF" id="svg_47"/>
    <path d="m234.274,258.276c-0.199,-0.2 -0.5,-0.3 -0.699,-0.5c-1,0.399 -2.101,0.7 -3.301,0.5c1.1,1 2.6,1.5 4,0z" fill="#FFFFFF" id="svg_48"/>
    <path d="m660.774,232.776c0.1,0.1 0.3,0.1 0.4,0.3c0,-0.3 -0.2,-0.4 -0.4,-0.3z" fill="#FFFFFF" id="svg_49"/>
    <path d="m707.573,254.676c-0.5,0.101 -1.2,0.101 -1.899,0.2c0.3,0.101 0.899,0.101 1.899,-0.2z" fill="#FFFFFF" id="svg_50"/>
    <path d="m195.774,258.776c-1,0.1 -0.1,0.201 0,0l0,0z" fill="#FFFFFF" id="svg_51"/>
    <path d="m190.674,250.176c0.2,-0.199 0.4,-0.6 0.4,-1.1c0,0.6 -0.2,0.901 -0.4,1.1z" fill="#FFFFFF" id="svg_52"/>
    <path d="m244.674,244.776c0.1,0 0.1,0 0,0c-0.2,-0.4 -0.1,-0.299 0,0z" fill="#FFFFFF" id="svg_53"/>
    <path d="m194.274,257.776c0.4,0.3 0.801,0.5 1.301,0.6c-0.201,-0.1 -0.601,-0.3 -1.301,-0.6z" fill="#FFFFFF" id="svg_54"/>
    <path d="m194.474,258.776c-0.399,-0.101 -0.6,-0.2 -0.899,-0.2c-0.201,0.401 -0.101,0.6 0.899,0.2z" fill="#FFFFFF" id="svg_55"/>
    <path d="m197.274,258.676c-0.6,0 -1.199,-0.1 -1.699,-0.199c0.199,0.1 0.3,0.3 0.199,0.3c0.4,-0.001 0.8,-0.101 1.5,-0.101l0,0z" fill="#FFFFFF" id="svg_56"/>
    <path d="m574.573,238.576c0.101,0.1 0.101,0.1 0.2,0.2c1.1,-0.9 0.701,-0.799 -0.2,-0.2z" fill="#FFFFFF" id="svg_57"/>
    <path d="m324.974,235.076l-0.101,0.1c0,0 0.101,0.101 0.2,0.101l-0.099,-0.201z" fill="#FFFFFF" id="svg_58"/>
    <path d="m328.774,233.477c-1.6,2.699 -2.5,2.399 -3.7,1.8l1.2,6.3l2.5,-8.1z" fill="#FFFFFF" id="svg_59"/>
    <path d="m475.073,232.676l-2.7,-1.899c3.2,-3.2 5.5,-2.101 3,-4.8c-0.399,6.8 -10.3,0.699 -10.699,7.5l-1.7,-1.4c0.5,0.1 0.6,-0.3 1.1,-0.3c-3.399,-3.3 -2.5,4.899 -6.899,3.899c-1.5,-0.5 -2.601,-1.5 -1.601,-2.3l-3.399,1.7c-1,-0.1 -0.7,-1.3 0.199,-1.2l-5.199,0.5l0,-0.2c-0.7,1.101 -2.4,2.7 -3.2,3.4c-1.3,-1 0.7,-0.7 0.3,-1.6l-2.9,1.6c-1.199,-1.8 1.2,-3.5 3.2,-3.2c-2.7,-6.8 -2.399,1.7 -8.2,-2.3l2.7,-0.9c-1.7,-3.899 -3.899,-2.5 -6.899,-4.899c0.699,1.3 6.1,6.1 3,7.7c-0.9,-0.5 -2,-0.801 -3.7,0.6c0,-2.4 -1.7,-1.8 -3.7,-1.7l0.1,-3.2c-2.199,0.9 -2,2.601 -3.399,4c-2.5,-0.3 -3,-2.8 -3.601,-4.899c-4,-0.5 2.7,4 -2,4.6c-3.3,-1.2 -5.6,0.101 -9.6,2c-2.3,-1.1 0.4,-2 -0.4,-2.899l-2,2.6c-0.5,-0.1 -0.3,-0.8 -0.3,-1.199c-1.7,1 -0.1,3.199 -2.899,4.1c-0.7,3.5 -5.601,-5.1 -8.9,-1.1c-0.8,-0.9 0.4,-2 0.1,-3.201c-4.6,2.601 -3.899,1.9 -7.699,5.4l-3.2,-2.1c2.399,2.399 -0.7,5.199 -3.3,7.6c0.8,1.2 1.6,2.2 2,2.7l-4.2,1.7c-0.5,-0.5 -0.101,-1.601 0.6,-3c-0.3,0.3 -0.6,0.5 -0.8,0.8c-1.5,-1.2 -0.7,-3 0.4,-4.8c0.5,0.6 1,1.3 1.5,2c1,-1.9 2,-4.101 1.8,-6c-0.3,0.399 -0.8,0.699 -1.4,0.899c0.3,-0.5 0.4,-1 0.3,-1.3c-0.1,-0.3 -0.6,0.4 -1.3,1.2l-1,-3.601l-0.2,1.4l-5.5,-2.2c-4,3.601 -7.399,8.9 -13.699,10.3c1.6,-2.6 0.3,-4.3 0.399,-7.399c1.7,3.3 4.9,-1.4 8.101,-0.7c-1.7,-0.3 -1.301,-1.8 -0.9,-2.3l-5.8,3c0.1,-2.5 -1.2,-1.9 -2.7,-2.9c1.1,5 -4.3,3.3 -6.7,4.9c-0.1,-1.7 0.4,-3.4 3.3,-3c-3.199,-3.8 -4.1,5.899 -7.199,2.7c0.699,0 1.1,0.199 1.399,-0.601c-1.6,1.5 -5.7,0.3 -4.7,-1.2l0.7,0c-4.7,-0.6 -14.2,0 -14.899,4.2c0,-0.5 0.6,-5.1 0.899,-6l-8.3,14.3c0.7,-3.699 -2.1,-12.399 1.8,-14.399c-1.1,-0.5 -2.5,-1.101 -4.8,0.2c0.8,0.5 1.9,5.3 0.9,5.6c-2.801,-4.1 -2,-2.2 -5.5,-5.6c1.1,0.8 -0.101,6.5 -1.9,6.3c0.3,-0.9 -0.1,-5.7 0.5,-6.3l-4.5,5.6c1.1,-1 0.2,-4.8 -0.8,-6.4c0.5,1.101 -3.9,-0.1 -5.1,0.5l1.899,1.301c-5,-0.801 -5,7.899 -10,7.6c0.601,-1.199 1.5,-7.1 -1,-7.9c-1.2,2.9 -5.2,13.9 -9.6,16.101l-0.9,-1.601l-3.399,1.9c2.1,-4.3 8.1,-13.5 11.3,-17c-1.9,-1.3 -0.5,-1.9 -3.4,-1.8c-1,-1.5 1.5,-2.3 2.4,-2.399l-6.601,-1c0.301,3.399 -5,3.399 -4.8,6.199l7.2,-3.5c0.3,3.4 -4.1,9.5 -8.8,8.9c-1.2,-1.301 0.899,-6 0.8,-7.101c-0.6,1.2 -4.4,2.2 -4.9,1.4l2,-1.8c-2.6,-1.301 -4.199,4.5 -7.399,1.199c-1.101,-0.199 -3.2,-4.3 -3.4,-2.3c1.8,3.8 2.101,15.7 0.9,18.601c-0.4,-0.301 -5.7,-3.7 -6.9,-5.601c-1.8,-3 2.7,-7.2 1.2,-9.8c-0.1,0.9 -1,2.1 -1.5,2.4c-1.1,-0.801 0.5,-2.801 -2,-2.4c-0.4,3.4 -5,-0.3 -1.2,2.9c-2.399,1 -2.6,-0.7 -5.399,-0.601c0.899,2.2 -2.5,7.5 -4.9,8.5c0.101,-0.899 -0.399,-2 -0.7,-2.5c-4.899,-0.3 -7.6,-1.899 -12.199,-1.899c-0.4,-0.801 -2.601,-1.801 -1.7,-3.301c-0.7,0.601 -1.3,1.801 -2.7,1.801c-2.7,-2.9 3.2,-0.5 1.1,-4c-0.199,2 -3.699,2.699 -5.699,4c0.6,3.1 4.699,0.6 6.699,-0.601c0,4.2 -3.5,8.601 -8.3,10.601c-3.8,1 -1.7,-2.7 -2.3,-2.101c-7.2,-0.7 -6.1,7.4 -12.1,4.3c-2.4,-2.699 -0.101,-5.3 -0.601,-7.3c3.101,-1 4.8,1.7 6.9,1.601l-2.601,-1.301c1,-0.899 3.101,-1.6 4.2,-0.8c-2,-2.399 -12.1,-0.5 -17.7,-2.7c-1,0.9 -2.7,1.801 -1.899,2.9l1.8,-0.4c1.6,2.2 -3.3,3 -1.101,4c-2.3,1.5 -5,3.9 -8.3,2.7l-0.6,-3.1c0.1,0.899 2.2,1.8 3.1,0.899c-1.399,1.4 -5.1,-4.199 -6.6,-0.1l2.3,2.1c-2.4,1.5 -5.3,4.801 -8.2,3.801c1.3,3 0.7,-0.301 2.8,3.199c-1.8,-4.399 7.5,0.2 4.601,-4.399c2.1,4.1 3.7,1.7 6.5,5.2c-0.101,-1 -1,-1.9 1.5,-1.4c0.1,-0.3 0.399,-0.7 0.5,-0.9c0.1,0 0.1,0 0.2,0.101l-0.101,-0.101c0.101,-0.199 0.101,-0.199 -0.1,0c-0.601,-0.399 -1.101,-1 -1.3,-1.5c1.199,-2.3 5.1,-2.199 6.5,-3.399c1.5,0.5 -0.601,1.2 0.199,2.2l2,-1.801c0.2,2.2 3.9,3.7 0.4,5l3.1,0.101c1.801,1.3 4.301,1.8 5.9,0.8c1.5,0.5 3.7,-2.5 2.4,-0.7l4.899,-1.399l0,0.6c4.8,0.3 9.9,-3.7 15.3,0.3c1.601,-0.6 3.301,-1.3 6,-0.6l0.5,1.899c2.101,-0.699 6.2,1.9 7.101,-0.1c2.2,5.2 10.1,1.1 13.7,2.1l0.1,-2.5c2.5,0.101 4.9,-0.6 8,-1.6l-0.2,-2.2c2.7,-1.8 6.9,1.601 11.101,1.4c-0.301,0.899 -1.4,0.6 -2.101,0.1c5.101,5.101 10.7,-3.7 15.3,0c1.101,-0.8 2,-0.5 2.801,0c-0.101,0 -0.2,0 -0.301,0.101c0.101,0 0.301,0 0.5,0c0.5,0.399 1,0.8 1.601,1.199c-0.5,-0.5 -0.9,-1 -1.3,-1.199c0.899,0 2.199,-0.301 3.5,-0.9l0.6,2.4c0.1,0 0.2,0 0.3,-0.101c1.3,0.9 1,-1.1 0.3,-3c0.7,-0.399 1.301,-0.899 1.7,-1.5c1,3.9 3.4,-1.3 4.9,2.8c0.899,-2 6.6,-1.5 7.3,-5.8c0,0.601 0.399,0.8 -0.3,0.9c1.5,0.5 2.899,1 4.199,-0.2l0.601,3.1l3.2,-4.1c1.899,1.9 2.699,2.9 0.8,5.3c4.7,-3.6 3.8,-1.399 7.7,-5l-0.2,2c1.399,-0.1 3.7,-2.7 4.5,-1.1c3.2,3.8 15.7,0.5 23.8,4c-1.6,-5.8 3.8,2.6 4.1,-1.9c0.5,1.4 1.601,2.2 0.301,3.4c4.199,-1.4 6.199,2.2 9.1,-1.601c0.5,1.4 -0.9,2 -0.5,2.801c0.3,-0.301 1.3,-1.2 1.8,-0.4c0.4,0.8 -0.6,1.2 -1.3,1.8c4.2,-0.2 4.7,-4.5 5,-8.5c2.1,1.9 3.2,1.601 4.8,-1c0.7,1.3 2,2.7 -0.6,3.101c1.5,0.199 9.1,1.899 9.2,-1.301c0.5,0.801 2.1,0.2 2.5,-0.1c3.3,0.2 3.6,0.5 6.899,0.2l-0.899,-0.5c1.3,-3.9 2.699,-0.9 5.3,-1.3l-0.101,0.399c6,2.8 2.601,-1.3 8.601,1.8l-0.3,-2.399c0.6,-5.2 5.3,3 8.699,1.1l-1.199,-1.399c1.899,-1.801 5.3,7 7.199,7.699c0.4,0.4 -0.699,0.7 -1.199,1.101c5,3 0.6,-3.101 4.3,-3.9c0.7,1.7 -0.9,4.3 1.6,4.601c1.2,1.399 7.2,-5.5 10.601,-2.301c-0.7,-1.3 -1.5,-2.6 0.199,-3.6c2.601,-0.5 7.101,4.9 9.5,0.8c0.301,0.4 0.5,0.7 0.5,1c2,-1.1 6.5,-1.8 7.801,-4c1.899,8.3 12.5,-4 12.5,3.601l6.199,-0.4l-0.199,0.8c4,0.5 5.399,-1.3 6.699,-3.2c0.9,0.5 0.2,1.2 0.2,1.601c5.8,1.5 6.4,1.2 11.2,-2.601l0.5,2.5c1.3,-1.399 8.4,3.9 14,1c-0.1,0.301 -0.2,0.801 -0.6,1.101c6.399,-2.899 15.3,6.899 17.6,-2.2l4.2,-2.199c-5.4,-0.701 0.8,-3.9 -1.4,-5.4c2.101,-0.5 5.5,2.699 2.9,3.199l-0.4,-0.5c-1,4.701 6.8,1.701 6.601,4.9c10.699,-0.199 21.199,2.4 31.199,2.6l-1.199,-3.699l3.5,0.199c0.899,0.9 1.199,2.9 -1.301,2.701c1.301,2.1 4.2,-1.701 4.301,-2.5c4.899,1.5 -1.9,4.299 -0.4,4.399l2,-0.3l-0.5,-0.4c1.7,-1.5 1.8,-3.1 4.8,-2.9c1.9,0.701 1,2.301 1.7,2.4c0,0.301 0.2,0.4 1.1,0.1l4.4,0.301l-1.8,-2.9c2,-1.4 4.1,0.2 2.1,-3.1c3,5 16.5,1.8 18.3,3.4c2.7,-2.101 5.4,-2.101 8.801,-1.801c-0.801,-0.6 -1.301,-3.8 1.6,-3.5c-1.1,6.7 5.3,2.9 7.6,7.7c-2.1,-3.2 8.2,-0.8 4.9,-5.3c2.4,0.5 0.1,2.5 2,4.1c5.7,-2.6 12.6,1.7 19.7,0.801c0.1,-0.9 -1.101,-2.201 0.399,-3.5l3.7,4.399c1.4,-0.399 1.3,-5.101 3.8,-2c-0.399,-0.7 -0.899,-1.899 0,-2.101c13.9,4.301 28.4,-3.5 42.5,4.5c-1.899,-1.699 -0.6,-1.899 0.801,-1.899c-0.9,-0.399 0,-2.2 -0.2,-3.399l5.899,3.299c1.101,-3.299 6.301,-0.199 6.9,-3.399l-1.9,0.601c2.5,-3.701 -3.5,-8.301 -3.1,-13.101c-2.8,4.2 -7.3,-6.3 -11.9,-0.2c-1,-1 0.9,-1.5 0.301,-2.699c-1.2,2.1 -2.601,2.5 -5.101,1.6l0.3,-0.5c-7.3,0.5 -10.399,-1.5 -18.6,-2.9l0.6,2.4c-1.8,-0.301 -2.1,-1.1 -3,-1.7c-2,3.601 4.9,0.2 3.101,4.2c-2.3,-4.801 -12.4,-0.1 -14,-5.5c-2.7,0 0.8,2.699 -1.9,2.699l-0.7,-1.5l-0.699,1.9c-1.801,-0.3 -2.7,-2.199 -2.7,-3.4c0.399,0.101 1.2,-0.399 1.7,-0.5c-2.301,-1.699 -6.5,0.601 -7.301,0l2.601,0.9c-7.4,1.4 -16.4,-0.6 -23.5,2.5l0.5,1.1c-5.4,2.101 -4.4,-1.199 -10.3,-0.299l0.199,-0.301c-1.199,1.1 -2.8,1.7 -4.399,1.5c1.5,-1.3 -2.8,-2.5 -0.9,-4c-5.9,2.2 -2.9,1.7 -6.8,5.9l-0.9,-1.9c-1.3,1.7 -1.399,2.6 -4.399,3c2.399,-1.6 -1.9,-2.8 0.8,-4.9c-6.3,-4.1 -9.3,4.101 -12.2,-1.799c-2.9,5.1 5.4,2.799 3.8,3.899c1.3,1.7 -2.399,3.8 -4.3,3.3c-2,-0.1 -3.4,-6.6 -8.4,-6.5c0.5,0 0.5,-0.4 1,-0.3c-1.899,-1.3 -3.699,1.8 -6,-0.399c-1.3,3.1 -3,-0.201 -3.399,3.799l4.6,-0.899c-2.6,1 -5.1,5.7 -9.4,3.399c0.301,-0.799 1.601,-1.799 2.5,-2.399c-1.3,-1.2 -2.399,0.8 -3.699,-0.399c0.399,-4 5.6,-0.9 8.399,-3.9c-1.399,-1.7 -5.3,2.9 -3.899,-1.4c-2,5.5 -5,-0.699 -8.4,3.5l0.2,-2.4c-0.5,0.4 -1.7,1.5 -2.7,1.4l1.8,-3.1c-2.8,2.6 -5.3,-2.301 -8,-0.9c5.5,-0.1 1.2,2.9 3.601,4.6c-6.801,3.201 -3.9,-6.199 -11.601,-5.1c1,-0.3 3.9,1.4 2.3,2.5c-1.5,-0.5 -3.399,-1.4 -4.3,-2.6c-5.1,0.5 0.8,2.4 -1.399,3.9c-1.7,-2.9 -2.5,1.199 -4.7,2.1l0,-2.4c-5.8,-1.5 -1.5,5 -6.7,3.2l2.2,-3.3l-2.7,0.9l0.6,-2.701c-3,2 -3.899,1.5 -6.8,0.701c0.7,1.699 -0.399,4.399 -2.899,4.5c-1.7,-1.4 1,-2.301 -2.7,-1.9c0.8,-1.5 1.7,-3.4 3.3,-1.2c0.2,-0.8 0.8,-1.5 1,-2.3c-1.9,-1.6 -4.7,-0.4 -6,-0.4c0.5,0.1 1.1,0.2 1.4,0.6l-5.301,3.301c-0.8,-0.9 -0.199,-1.6 0.5,-2.301c-1.1,0.301 -1.8,1.4 -3.399,1.601c0.399,-2 0.3,-4 2.5,-4.899l-5,2.199c-0.3,-0.9 -2.601,-2.3 -1.9,-3.1c-2.8,-1.2 -6.8,3.8 -10.5,2.3c-0.2,0.399 -0.6,0.7 -1.399,1c-3.5,-0.399 -6.5,-2.8 -10.601,-0.2l-2.3,-3.5c-3.2,0.801 3.2,4.4 -2.2,5.801c-3.8,1.1 -1.399,-3 -2.7,-4c-1.899,1.799 -5.199,5.399 -8.6,2.5c2.185,-0.508 3.085,-0.008 4.185,-0.209l0,0zm-39.599,1.5c0.8,-0.5 2.3,-2.1 2.899,-0.6c-0.899,2.7 -1.599,1.401 -2.899,0.6zm-60.3,5.801c0.6,-0.801 1.5,-0.4 2.5,0.5c-0.7,0.199 -1.601,0.099 -2.5,-0.5zm-167.8,16.799l0.1,-0.101c1.7,0.901 1.1,0.601 -0.1,0.101zm-3.6,-1c-0.399,0.3 -0.3,0.7 -0.199,1c0.199,-0.601 1,-0.7 2,-0.5c-0.301,-0.6 -0.701,-1.1 -1.801,-0.5zm382.099,-1l-0.699,-0.601c1.5,-0.698 1.1,-0.099 0.699,0.601z" fill="#FFFFFF" id="svg_60"/>
    <path d="m382.073,236.676c0.2,0.4 0.3,0.9 0.3,1.301c0.301,-0.401 0.301,-0.801 -0.3,-1.301z" fill="#FFFFFF" id="svg_61"/>
    <path d="m499.774,231.376l0.1,0c0.101,-0.1 0.101,-0.3 0.101,-0.399l-0.201,0.399z" fill="#FFFFFF" id="svg_62"/>
    <path d="m258.874,235.276c0.7,0.3 1.1,0.8 1.399,1.2c0.101,-0.499 -0.299,-0.999 -1.399,-1.2z" fill="#FFFFFF" id="svg_63"/>
    <path d="m184.974,259.876l2.3,-0.6c-1.1,0.1 -1.5,-0.4 -2.1,-0.8c0,0.501 0.5,1.3 -0.2,1.4z" fill="#FFFFFF" id="svg_64"/>
    <path d="m165.174,244.876c-0.3,0.3 -0.7,0 -1,0.3l0.1,1.101c1.4,-0.001 2.4,-0.901 0.9,-1.401z" fill="#FFFFFF" id="svg_65"/>
    <path d="m182.874,251.876c-0.2,-2 -1.601,-1.3 -3.2,-1c0.1,0 0.2,0 0.3,0c-0.5,2.8 1.2,1.9 2.9,1z" fill="#FFFFFF" id="svg_66"/>
    <path d="m179.274,250.977c-0.5,0.1 -1,0.1 -1.5,0.1c-0.2,1.099 0.6,0.199 1.5,-0.1z" fill="#FFFFFF" id="svg_67"/>
    <path d="m199.274,257.076c-0.8,-0.5 -0.5,2.6 -0.899,1.8c-0.801,2.601 4.999,-3.1 0.899,-1.8z" fill="#FFFFFF" id="svg_68"/>
    <polygon points="181.574,245.176 182.074,247.676 182.974,245.676   " fill="#FFFFFF" id="svg_69"/>
    <path d="m194.174,246.977l-2.6,-0.7c0,0.399 -0.301,0.7 -0.7,0.899c1.6,0.1 3.3,0.6 3.3,-0.199z" fill="#FFFFFF" id="svg_70"/>
    <path d="m190.874,247.176c-0.8,0 -1.601,0 -2.101,0.4c0.501,0 1.501,-0.099 2.101,-0.4z" fill="#FFFFFF" id="svg_71"/>
    <polygon points="184.974,244.376 185.774,244.876 187.574,245.076   " fill="#FFFFFF" id="svg_72"/>
    <path d="m221.574,247.477l2.8,-0.7c0.3,-0.9 -0.5,-1.4 -1.5,-1c-0.7,0.499 -1.7,0.899 -1.3,1.7z" fill="#FFFFFF" id="svg_73"/>
    <path d="m213.174,240.576c0.8,0.5 0.8,1.1 1.2,1.9l0.1,-3.101l-1.3,1.201z" fill="#FFFFFF" id="svg_74"/>
    <path d="m221.274,239.876c0.301,-0.899 4,-2.5 0.5,-2.3c-0.3,0.901 -3.1,1.6 -0.5,2.3z" fill="#FFFFFF" id="svg_75"/>
    <polygon points="263.174,243.776 262.474,243.876 262.574,248.977   " fill="#FFFFFF" id="svg_76"/>
    <path d="m300.174,231.676c-3.3,-1.199 -0.8,3.101 -3.8,1.601c-0.8,1.2 2.399,1.2 1.6,2.3c2.1,-1.301 3.1,-0.6 2.2,-3.901l0,0z" fill="#FFFFFF" id="svg_77"/>
    <path d="m298.074,235.576c-0.301,0.2 -0.7,0.4 -1,0.8c0.5,-0.399 0.8,-0.6 1,-0.8z" fill="#FFFFFF" id="svg_78"/>
    <polygon points="715.373,257.376 717.474,258.477 716.073,256.776   " fill="#FFFFFF" id="svg_79"/>
    <path d="m719.474,253.576l0.5,3.2l1.3,-2.9c-0.5,0.2 -1.5,0.5 -1.8,-0.3z" fill="#FFFFFF" id="svg_80"/>
    <path d="m429.573,227.676l-0.2,0.801c0.301,0.8 0.801,0.899 1.801,1l-1.601,-1.801l0,0z" fill="#FFFFFF" id="svg_81"/>
    <polygon points="458.373,230.076 457.873,229.977 458.774,232.977   " fill="#FFFFFF" id="svg_82"/>
    <path d="m482.474,226.376c-1,-0.1 -2.101,0.5 -3.101,0.4c2.101,-0.6 3.401,3.201 3.101,-0.4z" fill="#FFFFFF" id="svg_83"/>
   </g>
  </g>
  <style type="text/css">:root {
        --animate-duration: 1s;
        --animate-delay: 1s;
        --animate-repeat: 1;
      }
      
       .animate__animated {
        -webkit-animation-duration: 1s;
        animation-duration: 1s;
        -webkit-animation-duration: var(--animate-duration);
        animation-duration: var(--animate-duration);
        -webkit-animation-fill-mode: both;
        animation-fill-mode: both;
      }
    @-webkit-keyframes fadeIn {
    from {
        opacity: 0
    }

    to {
        opacity: 1
    }
}

@keyframes fadeIn {
    from {
        opacity: 0
    }

    to {
        opacity: 1
    }
}

.animate__fadeIn {
    -webkit-animation-name: fadeIn;
    animation-name: fadeIn
}

    .animate__animated.animate__repeat-1 {
          -webkit-animation-iteration-count: 1;
          animation-iteration-count: 1;
          -webkit-animation-iteration-count: var(--animate-repeat);
          animation-iteration-count: var(--animate-repeat);
        }
    .animate__animated.animate__delay-3s {
          -webkit-animation-delay: calc(1s * 3);
          animation-delay: calc(1s * 3);
          -webkit-animation-delay: calc(var(--animate-delay) * 3);
          animation-delay: calc(var(--animate-delay) * 3);
        }
    .animate__animated.animate__faster {
          -webkit-animation-duration: calc(1s / 2);
          animation-duration: calc(1s / 2);
          -webkit-animation-duration: calc(var(--animate-duration) / 2);
          animation-duration: calc(var(--animate-duration) / 2);
        }</style>
  <g class="animate__animated animate__fadeIn animate__repeat-1 animate__delay-3s animate__faster" id="svg_89">
   <text font-size="20.3216" font-family="'HelveticaWorld-Bold'" fill="#FFFFFF" transform="matrix(1,0,0,1,297.5574,287.4492) " id="svg_85">Milkyway, Earth, 2018</text>
  </g>
 </g>
</svg>