<svg width="800" height="450" xmlns="http://www.w3.org/2000/svg">
 <g>
  <title>background</title>
  <rect fill="#fff" id="canvas_background" height="602" width="1068.66667" y="-1" x="-1"/>
 </g>

 <g>
  <title>background</title>
  <rect x="-1" y="-1" width="1068.66667" height="602" id="canvas_background" fill="#fff"/>
 </g>
 <g>
  <title>background</title>
  <rect height="452" width="802" fill="#026166" y="-1" x="-1" id="canvas_background"/>
 </g>
 <g>
  <title>Layer 1</title>
  <path d="m695.709,1.62c53.979,43.403 92.313,105.533 104.652,176.697c-0.882,-1.322 -1.763,-3.084 -2.645,-5.729c-5.729,1.763 -5.948,1.983 -12.559,3.085l-0.22,0.44c-2.644,3.746 0.22,2.203 -4.627,6.169c-5.508,4.627 -9.253,11.016 -15.422,14.982c-0.661,6.609 0.44,8.152 -1.103,16.083c-0.66,2.864 -3.965,10.795 -7.711,10.135c-1.102,-0.221 -6.389,-12.999 -7.49,-16.304c-1.983,-5.949 -4.407,-10.355 -5.949,-17.185c-0.881,-3.746 -1.322,-10.576 -2.203,-13.219c-3.966,0.661 -3.745,3.084 -7.711,0.44c-2.645,-1.983 -1.543,-3.084 -3.085,-5.949c-3.084,-3.084 -6.389,-5.949 -9.694,-9.033c-2.423,-0.881 -12.117,0.661 -16.304,0.221c-7.271,-0.661 -7.931,-0.221 -12.338,-6.169c-7.711,0.441 -7.05,3.305 -14.541,-3.305c-4.847,-4.186 -3.966,-10.795 -11.236,-7.05c-0.22,6.169 2.645,7.491 5.288,10.355c1.982,2.204 4.406,3.746 5.287,6.61c0,0 0.661,2.864 0.661,3.305c7.051,0.441 8.593,-2.864 12.559,-5.728c3.745,3.525 0,4.186 5.508,6.83c4.187,2.204 3.525,0.881 6.169,4.407c1.322,4.626 -9.694,17.405 -13.219,19.829c-2.864,1.763 -4.187,0.661 -6.83,2.864c-3.746,3.084 0.44,2.644 -5.949,5.067c-7.05,2.423 -13.88,7.932 -21.15,8.372c-1.542,-4.406 -3.084,-8.813 -4.847,-13.219c-4.627,-14.982 -4.407,-9.253 -9.254,-16.965c-2.203,-3.305 -1.322,-5.508 -2.864,-8.592c-1.102,-2.203 -2.644,-3.305 -3.966,-5.949c-2.203,-4.186 -4.627,-10.795 -9.694,-10.135c-1.102,3.305 4.627,14.762 5.949,17.405c1.322,2.864 3.525,3.966 4.186,7.932c0.882,5.508 -0.22,4.847 2.864,8.372c6.169,7.491 -0.22,6.169 9.474,13.66c7.271,5.508 5.509,7.05 8.373,14.541c4.626,1.322 18.947,-5.067 21.371,-3.084c2.864,5.067 -3.305,13.439 -4.848,17.846c-5.287,14.981 -14.32,14.761 -21.371,26.218c-3.745,6.169 -5.508,7.051 -9.033,14.541c-3.966,8.373 8.152,31.727 0.882,41.42c-1.542,2.203 -6.61,3.525 -13.22,10.355c-6.83,7.271 0.221,6.169 -2.423,18.507c-1.983,2.864 -4.627,3.085 -7.051,5.067c-0.881,2.864 -0.22,5.288 -1.763,8.813c-1.763,4.406 -1.982,1.983 -4.406,5.509c-1.763,2.644 -1.542,3.966 -3.525,6.39c-1.763,2.423 -2.644,3.084 -4.406,4.406c-8.151,7.49 -25.557,7.711 -27.1,6.609c-4.186,-3.525 -1.321,-4.406 -2.423,-9.254c-1.102,-4.406 -3.306,-7.932 -5.288,-11.236l-0.221,-0.44c-0.881,-1.542 -1.762,-3.305 -2.203,-4.627c-3.305,-10.575 -2.203,-18.728 -7.932,-29.302c-7.271,-13.881 4.187,-21.151 3.525,-28.862c-0.22,-1.983 -0.881,-3.306 -1.102,-5.067c-1.322,-8.593 -2.203,-16.304 -7.932,-23.134c-6.389,-7.271 -5.508,-4.847 -3.525,-16.965c2.645,-13.88 -3.305,-10.354 -11.677,-10.796c-4.186,-12.558 -12.117,-6.389 -20.049,-2.863c-5.067,2.203 -6.83,-0.662 -12.559,0.22c-12.558,1.763 -2.644,7.05 -19.608,-6.169c-7.05,-5.508 -2.424,-2.864 -6.609,-9.694c-1.322,-2.644 -5.729,-5.948 -7.711,-8.372c-6.39,-8.152 1.321,-16.083 0,-25.337c-1.983,-17.185 -4.848,-2.203 4.847,-22.913c5.067,-11.016 12.559,-11.016 14.541,-16.083c1.763,-4.406 0.661,-7.491 3.745,-11.457c2.864,-3.305 6.83,-2.644 8.373,-7.711c2.203,-6.389 -1.983,-7.05 -6.61,-7.271c-1.982,-6.61 -1.982,-5.067 -0.44,-11.016c0.882,-3.525 0,-5.067 0.882,-8.592c1.762,-8.593 16.523,0 20.71,-3.525c1.982,-3.745 2.203,-7.271 0,-10.795c-2.424,-3.525 -5.508,-3.084 -7.051,-6.39c3.525,-2.423 0.882,-0.22 3.966,-0.881c3.525,-0.881 3.085,-1.763 7.491,-2.644c3.745,-0.661 6.169,-4.186 9.914,-6.61c5.288,-3.525 2.864,-6.389 9.254,-7.491c10.354,-1.763 3.525,-1.542 4.847,-11.016c1.542,-0.661 3.085,-1.322 4.627,-1.983c3.305,4.186 -0.881,2.644 3.085,5.288c1.102,-0.661 2.203,-1.102 3.305,-1.762c-0.661,-4.627 -2.645,-3.746 -4.187,-9.474c-5.067,0.881 -7.05,5.067 -11.016,3.525s-4.187,-7.271 -3.966,-11.897c1.542,-3.525 9.033,-5.508 11.897,-6.389c4.626,-1.542 3.966,-4.626 8.372,-9.033c5.508,-5.508 1.542,0 4.186,-7.05c6.169,-0.22 3.305,-0.44 6.83,-2.203l0.221,0l0.44,-0.22c2.203,-0.881 4.847,-1.102 7.711,-2.203c10.135,-3.525 14.321,-1.763 21.812,1.322c5.729,2.423 23.134,2.423 24.456,9.694c-4.187,4.406 -8.152,1.102 -14.321,1.542c1.102,5.729 1.543,5.729 6.61,7.271c0.881,-2.644 -0.44,-1.542 1.102,-3.305c1.763,0.44 3.305,0.661 5.067,0.881c1.763,-5.729 3.745,-4.847 9.253,-5.508c-0.881,-3.966 -1.982,-2.864 0.221,-5.948c5.948,0.661 1.102,0 3.966,4.847c4.186,-0.44 8.151,-5.067 13.88,-5.728c3.525,-0.441 3.305,0.881 8.372,0.44c4.187,-0.44 3.966,-1.983 7.932,-0.22c1.542,-2.644 0,-2.644 3.525,-3.305c5.508,-0.881 10.355,2.423 15.863,3.305c-3.966,-4.847 -7.712,-3.966 -2.864,-12.118c6.169,-1.322 6.83,-0.44 9.474,4.406c1.983,-2.428 2.644,-3.309 3.526,-3.749l0,0l0,0zm-465.537,164.359c12.999,-59.486 44.505,-112.363 87.907,-152.021c3.305,1.102 7.932,0.44 11.236,0.22c1.102,-2.203 1.983,-4.186 4.187,-5.067c0.881,-0.22 1.763,-0.44 3.305,-0.22c0.221,1.102 0.44,2.203 0.661,3.305c0,0 0.22,0.881 0,0.661c0,-0.22 0.22,0.44 0.22,0.661c5.949,-3.525 0.882,-3.525 4.187,-9.694c-4.847,-0.881 -4.187,-0.441 -7.271,-3.525c3.084,-3.305 8.813,-4.406 12.999,-4.186c-0.221,3.084 -1.763,2.864 -0.661,5.508c3.305,-1.983 5.729,-7.711 11.016,-6.61c1.102,0.661 2.203,1.322 3.305,1.983c-2.863,2.644 -7.05,2.864 -10.575,4.186c-1.542,16.083 5.067,2.644 2.864,13.66c3.966,-0.221 7.932,-3.305 9.474,-6.169c-1.542,-1.983 -3.524,-1.983 -4.847,-4.187c0.881,-3.084 2.864,-5.288 5.729,-6.609c1.982,-0.881 4.186,-1.322 6.83,-1.322c29.522,0.22 15.643,1.542 24.676,5.728c1.982,0.881 5.729,1.322 6.83,3.084c1.762,2.864 0,5.508 3.084,7.711c2.644,1.983 3.085,0 6.39,4.186c-0.661,2.423 -2.424,5.067 -6.169,5.067c-5.067,0 -1.983,-3.305 -7.491,-2.864c0,5.067 5.067,7.05 0.44,9.694c-4.186,2.423 -1.542,-0.881 -4.626,0.881l-0.441,0.22c-0.22,0.22 -0.44,0.44 -0.44,0.44c-0.661,0.661 -1.102,1.102 -1.542,1.542c-7.491,-1.983 -5.949,-1.102 -10.575,-5.949c-1.763,-1.763 -1.983,-2.203 -4.848,-1.983c-1.763,0 -4.186,0.881 -5.948,-0.661c3.525,-4.626 5.508,-0.22 10.796,-2.864c0.881,-0.44 6.83,-5.067 7.711,-5.948c-1.542,-3.525 -0.221,-0.661 -2.424,-2.864c-5.287,-5.288 -6.609,-3.966 -13.88,-3.966c-3.305,3.746 -5.729,8.593 -9.474,10.575c-2.203,1.322 -4.848,1.542 -8.152,0c1.543,6.39 5.729,1.542 5.949,9.254c-2.645,-0.441 -4.187,-1.763 -6.83,-0.881c-5.949,2.203 -0.661,1.983 -0.221,3.305c0,0 2.864,0.44 0,1.322c-3.084,1.102 -0.44,-0.661 -6.389,-4.186c0.881,-1.542 1.763,-3.084 2.423,-4.626c-4.847,1.542 -10.795,3.965 -16.523,6.609c-6.39,3.305 -12.559,6.83 -16.084,10.135c0,5.508 0.882,1.763 1.543,8.592c8.592,0.441 5.948,3.084 14.541,5.508c1.763,0.44 3.745,0.881 6.389,1.322c0,4.186 -3.745,7.271 -1.102,11.677c5.949,4.186 6.169,-3.966 7.712,-9.254c20.489,-4.186 10.575,-10.355 15.862,-21.591c0.882,-1.762 1.983,-3.525 3.525,-5.508c1.542,0 7.932,0.661 9.474,1.102c4.627,0.881 2.203,1.983 7.271,4.186c0,3.966 -2.203,9.253 3.746,8.372c4.626,-0.881 3.524,-4.406 9.033,-5.288c2.423,5.949 1.763,8.372 3.084,15.422c13.439,5.288 7.491,9.474 4.848,19.168c1.762,0.881 3.524,1.542 5.287,2.203c0,2.864 -0.22,5.508 -0.22,8.372c-0.221,0 -14.321,-3.084 -15.202,-3.305c2.203,-6.169 5.948,-6.169 8.592,-12.558c-5.067,0.881 -4.626,2.423 -8.372,3.525c-3.305,0.881 -5.729,0.221 -9.253,0.661c-1.102,3.966 0,-3.525 0.22,1.542c0.221,1.983 1.102,0 -0.22,2.204c-4.627,-2.204 -3.085,-7.271 -11.678,-2.644c1.983,0.881 3.966,1.763 5.949,2.644c-0.221,5.728 -0.661,1.322 -1.983,5.288c-3.084,9.694 8.152,3.745 11.017,3.305c-0.661,5.067 -3.966,5.067 -8.372,6.609c-4.848,1.542 -6.39,3.525 -10.355,4.407c0,-6.169 -0.881,-0.881 1.763,-5.288c-3.966,0.44 -6.83,2.203 -10.575,3.745l-0.441,0.221c-4.847,1.982 -5.508,2.203 -5.948,8.372c-4.186,1.322 -8.813,2.644 -11.677,5.728c-2.864,2.864 -5.729,5.508 -8.593,8.152c-0.22,0.221 -0.44,0.441 -0.661,0.661c1.102,7.711 0,7.711 -4.626,10.796c-3.966,2.423 -5.288,2.423 -8.813,5.728c-11.677,10.355 -5.948,5.508 -5.508,23.575c-2.424,-0.661 -4.847,-1.542 -7.05,-2.424c-1.763,-11.897 0.66,-7.932 -9.033,-10.796c-10.355,-3.084 -9.033,1.983 -13.22,3.085c-4.847,1.102 -7.05,-4.407 -13.88,0.22c-3.745,2.644 -7.491,4.406 -8.372,9.033c-1.102,5.508 -3.525,9.694 -3.305,15.863c0.661,16.745 15.863,17.626 19.829,9.915c2.644,-5.288 1.982,-8.152 10.354,-6.61c0.882,4.407 -0.44,7.711 -1.542,11.236c-0.661,1.983 -2.864,5.729 -1.763,8.373c5.948,2.423 6.169,-2.204 14.321,2.644c0.66,7.932 -3.525,16.965 2.423,21.591c4.847,3.525 5.067,0.441 9.254,-0.44c4.626,-0.881 3.745,1.983 8.151,2.644c2.424,-3.084 1.322,-1.102 3.085,-4.847c2.863,-6.39 3.524,-3.305 10.135,-7.271c0.66,-0.441 1.102,-0.661 1.762,-1.102c0.661,1.542 1.543,3.084 2.424,4.626c4.847,-5.728 5.508,-0.22 11.016,1.322c2.424,0.661 4.187,0.881 5.509,0.881c3.966,0 4.406,-1.983 9.914,0c0.661,0.22 1.542,0.441 2.203,0.661l0.44,0.22c0,0 0.441,0.221 0.441,0.441c0.881,1.102 1.102,1.983 1.762,3.305c3.746,3.746 7.712,7.271 11.457,10.795c7.271,2.864 7.271,-2.644 15.643,5.509c3.525,3.305 1.983,3.305 3.966,7.711c0.221,0.66 0.882,1.322 1.322,2.203c0.661,1.982 1.542,3.966 2.424,5.948c3.745,5.067 9.032,1.763 14.32,7.051c3.085,3.084 0.661,1.982 7.491,3.305c10.575,1.763 6.389,0.661 14.541,6.829c3.084,2.204 3.745,0.882 6.609,2.865c3.966,5.508 2.864,11.677 -0.44,16.523c-10.355,14.982 -6.83,12.559 -7.271,24.455c-0.44,6.83 -2.424,20.932 -8.813,22.693c-23.354,6.609 -9.694,11.017 -15.863,22.693c-1.763,3.305 -3.085,4.186 -4.187,6.609c-4.627,10.796 -1.321,14.541 -15.202,12.117c1.322,2.204 0.44,0.662 1.763,2.865c4.187,6.389 4.847,11.016 -3.745,12.558c-7.051,1.322 -3.966,0 -4.627,7.712c-2.644,1.102 -3.966,0 -5.729,1.762c2.424,4.407 0.221,0.661 4.187,3.306c-0.661,2.423 -1.322,4.847 -1.983,7.271c-1.542,5.728 -1.982,0.44 -2.644,7.271c2.424,1.102 4.186,0.881 6.169,3.745c-0.221,2.203 -2.424,8.372 -3.085,11.897c3.525,5.067 6.169,10.575 13.66,11.236c0,4.406 0.882,3.966 -2.864,4.847c-3.084,0.661 -9.914,-2.203 -12.778,-3.745c-4.847,-2.644 -9.254,-5.949 -12.559,-11.017c-1.763,-2.863 -1.102,-1.321 -3.084,-3.965c-3.525,-4.627 -2.203,-6.61 -3.085,-9.694c-0.661,-1.763 -3.525,-3.746 -2.203,-9.474c0.221,-1.543 2.864,-9.475 -0.22,-8.152c-3.085,1.322 2.423,0.661 -1.983,2.864c-1.102,-2.864 -1.763,-7.05 -2.424,-10.575c-1.102,-5.949 -2.423,-6.169 -3.084,-9.694c-1.322,-8.372 2.203,-9.253 -1.763,-22.913c-2.644,-9.033 -1.542,-30.625 -4.187,-41.861c-0.44,-1.762 -0.881,-3.305 -1.542,-4.406c-2.423,-4.186 -8.593,-6.169 -13.66,-9.474c-0.22,0 -0.44,-0.22 -0.66,-0.22c-6.83,-4.848 -13.22,-23.574 -18.728,-30.404c-2.424,-3.305 -4.187,-1.764 -5.288,-7.271c-1.102,-4.847 0.661,-3.965 2.203,-8.151c-8.371,-15.202 10.796,-14.981 6.83,-33.269c-0.881,-3.305 -3.305,-8.152 -5.287,-9.474c-3.966,1.763 -1.983,2.644 -4.187,5.948c-3.084,-1.762 -6.389,-3.525 -9.474,-5.287c-9.694,-9.254 -4.406,-2.644 -7.271,-8.593c-5.729,-12.558 -11.236,-5.508 -18.066,-11.897c-3.084,-2.644 -3.745,-6.609 -8.813,-5.948c-7.711,1.102 -3.525,2.203 -11.457,-1.542c-6.83,-3.305 -13.88,-6.83 -18.507,-11.236c-0.22,-6.609 2.203,-7.05 -1.982,-13.219c-0.221,-0.66 -0.882,-1.762 -1.763,-2.863l0,0l0,0zm90.992,-154.886c1.763,-0.22 1.763,-1.102 6.609,-2.203c-0.44,-1.542 -0.661,-1.542 -1.102,-2.203l-0.221,-0.22c-1.76,1.542 -3.523,3.084 -5.286,4.626l0,0l0,0zm248.962,86.366l0,0c-0.881,-0.661 -1.542,-1.102 -1.983,-1.542c-4.186,-3.745 -4.847,-6.83 -9.474,-6.169c0,3.525 0.441,3.525 1.983,5.729c6.389,7.932 4.406,5.288 9.253,8.152l0.221,0c1.102,0.661 2.424,1.542 4.406,2.864c-6.389,5.508 -0.44,6.169 -4.406,7.932l-0.221,0c-0.44,0.22 -0.66,0.22 -1.102,0.44c-1.321,-3.305 1.543,-1.763 -1.763,-6.389c-1.762,-2.424 -3.524,-3.305 -6.609,-4.627c-7.271,-3.525 -6.389,-6.169 -10.796,-10.575c-5.067,0.22 -3.966,1.762 -7.49,3.525c-4.187,1.983 -3.525,-0.44 -8.593,0c-4.187,7.271 1.763,1.102 -5.729,7.271c-9.033,6.83 -1.542,14.101 -15.863,16.304c-1.102,0.221 -1.321,0 -2.423,0.441c-2.645,0.881 -1.102,0.22 -2.645,1.762c1.102,2.864 -0.44,2.424 4.407,3.085c8.813,1.102 9.914,-4.187 16.304,-5.508c3.084,-0.661 22.913,-1.542 24.455,-1.102c4.187,4.847 0.661,8.152 0.661,12.118c4.627,2.423 11.236,3.084 13.88,5.508c3.085,2.864 1.542,2.424 3.085,2.864l0.22,0c0.661,0.22 1.322,0.441 2.864,0.881c3.746,1.322 3.525,1.983 7.491,2.203c3.525,-12.118 0,-10.795 17.405,-5.288c18.287,5.949 10.135,0.44 17.846,1.322c3.746,0.441 2.864,1.542 8.152,0.881c1.102,-1.983 8.592,-20.93 -1.322,-18.727c-2.864,0.661 -0.881,1.762 -5.067,0.661c-4.186,-1.102 -0.22,-1.982 -4.847,-1.322c-4.627,0.661 -10.135,4.847 -13.881,-9.253c-1.321,-5.067 -3.965,-9.474 -9.693,-1.763c1.542,2.644 2.423,2.864 4.186,5.288c-0.44,0.661 -1.982,2.644 -2.644,3.305c-3.085,3.084 1.322,1.542 -3.745,2.203c-2.864,-1.983 -2.203,-4.847 -4.848,-8.593c-4.847,-6.83 -1.763,-3.745 -4.186,-10.355c-1.76,-0.662 -5.065,-1.763 -7.489,-3.526l0,0l0,0zm99.364,200.712c-4.186,1.983 -4.627,6.83 -7.711,9.474c-3.305,3.084 -7.711,1.543 -9.033,7.271c-1.763,7.05 2.864,4.847 -2.203,14.101c-1.763,3.525 -1.763,11.897 0.881,14.541c8.152,7.711 12.559,-11.896 14.321,-18.066c1.321,-4.406 2.644,-9.474 4.186,-13.439c1.322,-4.188 3.525,-8.154 -0.441,-13.882l0,0zm-13.439,-207.983c0.661,9.033 5.949,12.558 9.914,16.744c-0.44,4.406 -1.542,3.305 -1.321,9.253c4.627,3.305 7.932,5.288 13.88,3.746c0.882,-7.271 -1.542,-6.83 -3.745,-11.897c0.44,-0.661 1.321,-1.322 1.542,-1.542c1.763,-2.203 0.882,0.881 1.763,-2.864c-4.406,-1.322 -11.457,-5.949 -11.897,-11.677c2.203,-1.763 1.542,-0.661 3.085,-1.763c3.524,-2.203 0.881,1.102 2.864,-2.644c-1.763,-3.525 -3.746,-3.966 -7.932,-2.423c-2.204,0.881 -7.051,4.406 -8.153,5.067l0,0l0,0zm-38.115,2.424c-2.864,-3.966 -2.644,-5.949 -8.372,-6.169c-2.203,2.423 -4.848,5.949 -5.949,9.694c-1.763,5.508 -0.66,1.763 -0.44,7.711c0,0.22 0,0.441 0,0.661c0,3.525 -0.881,-0.661 -0.44,2.644c4.406,-0.881 1.102,-0.881 4.187,-1.762c3.084,-1.102 12.558,-3.966 15.201,-3.305c6.39,1.542 11.897,6.61 19.168,1.542c-0.44,-6.389 -8.151,-9.033 -13.659,-11.677c0.22,-5.949 1.763,-1.322 1.542,-7.051c-1.763,0 -3.084,-0.44 -4.847,0.441c-4.187,1.763 -1.763,2.423 -1.763,3.084c0.22,3.305 4.186,-0.661 0,3.305c-1.103,0.662 -3.086,0.662 -4.628,0.882l0,0l0,0zm-108.618,-45.166c-0.22,10.355 3.525,6.83 6.83,12.118c-1.542,4.406 -1.763,0.881 -3.525,5.508c-1.542,3.746 0.44,0.441 -0.661,7.05c2.645,0.22 6.61,-0.881 10.135,-1.102c5.067,-0.441 4.848,-0.881 6.61,-5.949c-2.864,-3.525 -5.509,-6.83 -8.372,-10.355c-3.746,-5.508 0,-1.763 -1.102,-6.389c-0.882,-1.542 -1.543,-3.305 -2.424,-4.847c-4.627,1.542 -4.187,1.102 -7.491,3.966l0,0l0,0z" fill="#FFFFFF" opacity="0.15" id="svg_15"/>
  <style type="text/css">:root {
        --animate-duration: 1s;
        --animate-delay: 1s;
        --animate-repeat: 1;
      }
      
       .animate__animated {
        -webkit-animation-duration: 1s;
        animation-duration: 1s;
        -webkit-animation-duration: var(--animate-duration);
        animation-duration: var(--animate-duration);
        -webkit-animation-fill-mode: both;
        animation-fill-mode: both;
      }
    @-webkit-keyframes zoomIn {
    from {
        opacity: 0;
        -webkit-transform: scale3d(.3, .3, .3);
        transform: scale3d(.3, .3, .3)
    }

    50% {
        opacity: 1
    }
}

@keyframes zoomIn {
    from {
        opacity: 0;
        -webkit-transform: scale3d(.3, .3, .3);
        transform: scale3d(.3, .3, .3)
    }

    50% {
        opacity: 1
    }
}

.animate__zoomIn {
    -webkit-animation-name: zoomIn;
    animation-name: zoomIn
}
    .animate__animated.animate__repeat-1 {
          -webkit-animation-iteration-count: 1;
          animation-iteration-count: 1;
          -webkit-animation-iteration-count: var(--animate-repeat);
          animation-iteration-count: var(--animate-repeat);
        }
    .animate__animated.animate__delay-1s {
          -webkit-animation-delay: 1s;
          animation-delay: 1s;
          -webkit-animation-delay: var(--animate-delay);
          animation-delay: var(--animate-delay);
        }
    .animate__animated.animate__faster {
          -webkit-animation-duration: calc(1s / 2);
          animation-duration: calc(1s / 2);
          -webkit-animation-duration: calc(var(--animate-duration) / 2);
          animation-duration: calc(var(--animate-duration) / 2);
        }</style>
  <g class="animate__animated animate__zoomIn animate__repeat-1 animate__delay-1s animate__faster" id="svg_1">
   <g id="svg_2">
    <path d="m185.452,394.644c86.4,0 156.911,-70.511 156.911,-156.911c0,-86.4 -70.511,-156.91 -156.911,-156.91s-156.91,70.51 -156.91,156.91c0,86.4 70.51,156.911 156.91,156.911l0,0z" fill="#262626" id="svg_3"/>
    <path d="m123.739,133.527c16.599,0 31.566,6.739 42.42,17.592c10.853,10.853 17.592,25.892 17.592,42.42c0,16.599 -6.739,31.566 -17.592,42.419c-10.854,10.854 -25.892,17.592 -42.42,17.592c-16.6,0 -31.566,-6.738 -42.42,-17.592c-10.854,-10.853 -17.592,-25.892 -17.592,-42.419c0,-16.599 6.738,-31.567 17.592,-42.42c10.853,-10.924 25.82,-17.592 42.42,-17.592l0,0zm42.987,93.139c-3.76,-1.773 -8.654,-3.191 -14.188,-4.327c-0.496,1.064 -1.064,2.128 -1.632,3.192c-4.469,8.3 -10.782,15.748 -19.011,21.636c11.705,-1.773 22.203,-7.306 30.148,-15.251c1.703,-1.632 3.264,-3.405 4.683,-5.25l0,0zm-51.216,20.501c-8.229,-5.888 -14.542,-13.336 -19.011,-21.636c-0.568,-1.063 -1.064,-2.128 -1.562,-3.192c-5.532,1.064 -10.356,2.483 -14.187,4.327c1.419,1.845 2.979,3.618 4.61,5.25c7.947,8.016 18.445,13.478 30.15,15.251l0,0zm-38.093,-25.253c4.114,-2.057 9.292,-3.689 15.251,-4.895c-2.412,-6.668 -3.83,-13.62 -4.114,-20.643l-19.082,0c0.497,9.364 3.334,18.09 7.945,25.538l0,0zm-7.945,-31.212l19.082,0c0.284,-7.661 1.845,-15.322 4.753,-22.416c-5.746,-1.135 -10.854,-2.695 -14.896,-4.611c-5.179,7.804 -8.372,17.025 -8.939,27.027l0,0zm12.343,-31.708c3.831,1.631 8.513,2.908 13.833,3.972c0.283,-0.567 0.639,-1.206 0.922,-1.773c4.469,-8.157 10.712,-15.464 18.798,-21.281c-11.633,1.773 -22.132,7.307 -30.076,15.251c-1.207,1.206 -2.342,2.483 -3.477,3.831l0,0zm50.222,-19.153c8.087,5.746 14.329,13.052 18.799,21.281c0.354,0.568 0.638,1.206 0.922,1.844c5.32,-0.993 10.002,-2.341 13.832,-3.972c-1.135,-1.348 -2.27,-2.625 -3.476,-3.831c-7.944,-8.016 -18.443,-13.549 -30.077,-15.322l0,0l0,0zm37.03,23.834c-4.044,1.916 -9.151,3.405 -14.896,4.611c2.837,7.165 4.397,14.755 4.682,22.416l19.082,0c-0.498,-10.002 -3.691,-19.223 -8.868,-27.027l0,0zm8.867,32.702l-19.082,0c-0.284,7.022 -1.703,13.975 -4.114,20.643c5.958,1.277 11.137,2.908 15.18,4.895c4.682,-7.449 7.519,-16.174 8.016,-25.538l0,0zm-51.359,-53.344l0,22.203c6.668,-0.071 13.194,-0.567 19.295,-1.418l0,-0.071c-4.468,-8.017 -10.853,-15.252 -19.295,-20.714l0,0zm0,27.949l0,19.72l26.602,0c-0.284,-7.307 -1.916,-14.613 -4.753,-21.423c-6.809,0.993 -14.329,1.632 -21.849,1.703l0,0l0,0zm0,25.395l0,17.734c7.803,0.142 15.464,0.709 22.487,1.844c2.411,-6.242 3.76,-12.91 4.114,-19.578l-26.601,0zm0,23.48l0,24.118c8.441,-5.533 14.896,-12.839 19.366,-21.139c0.283,-0.496 0.496,-0.993 0.78,-1.489c-6.313,-0.852 -13.193,-1.348 -20.146,-1.49l0,0zm-5.745,24.118l0,-24.047c-6.952,0.142 -13.833,0.639 -20.075,1.49c0.213,0.497 0.496,0.993 0.78,1.418c4.398,8.228 10.854,15.605 19.295,21.139l0,0zm0,-29.793l0,-17.734l-26.601,0c0.284,6.668 1.702,13.336 4.114,19.579c7.022,-1.136 14.755,-1.774 22.487,-1.845l0,0zm0,-23.48l0,-19.72c-7.52,-0.142 -14.968,-0.709 -21.849,-1.773c-2.838,6.81 -4.469,14.116 -4.753,21.422l26.602,0l0,0.071zm0,-25.466l0,-22.203c-8.441,5.462 -14.826,12.626 -19.225,20.784l0,0c6.031,0.851 12.628,1.348 19.225,1.419l0,0z" fill="#FFFFFF" id="svg_4"/>
    <path d="m82.595,212.834l102.857,60.722l-102.857,60.721l0,-121.443z" fill="#71CAC8" id="svg_5"/>
    <path d="m288.31,212.834l-205.715,0l102.857,60.722l102.858,-60.722l0,0z" fill="#49C1BA" id="svg_6"/>
    <path d="m288.31,212.834l-102.857,60.722l102.857,60.722l0,-121.444z" fill="#71CAC8" id="svg_7"/>
    <path d="m185.452,273.556l-102.857,60.721l205.715,0l-102.858,-60.721l0,0z" fill="#49C1BA" id="svg_8"/>
    <path d="m288.31,235.25c12.343,0 22.416,-10.073 22.416,-22.416s-10.073,-22.416 -22.416,-22.416s-22.416,10.073 -22.416,22.416c0.071,12.343 10.073,22.416 22.416,22.416l0,0l0,0z" fill="#F15D63" id="svg_9"/>
    <path d="m271.994,217.232l0,-8.726l11.988,0l0,-11.988l8.726,0l0,11.988l11.988,0l0,8.726l-11.988,0l0,11.988l-8.726,0l0,-11.988l-11.988,0z" fill="#FFFFFF" id="svg_10"/>
    <path d="m201.485,150.836l67.602,0l0,3.618l-67.602,0l0,-3.618zm0,39.511l42.419,0l0,3.618l-42.419,0l0,-3.618zm0,-9.86l67.602,0l0,3.618l-67.602,0l0,-3.618zm0,-9.86l54.194,0l0,3.618l-54.194,0l0,-3.618zm0,-9.931l67.602,0l0,3.618l-67.602,0l0,-3.618z" fill="#71CAC8" id="svg_11"/>
   </g>
  </g>
  <style type="text/css">:root {
        --animate-duration: 1s;
        --animate-delay: 1s;
        --animate-repeat: 1;
      }
      
       .animate__animated {
        -webkit-animation-duration: 1s;
        animation-duration: 1s;
        -webkit-animation-duration: var(--animate-duration);
        animation-duration: var(--animate-duration);
        -webkit-animation-fill-mode: both;
        animation-fill-mode: both;
      }
    @-webkit-keyframes zoomInRight {
    from {
        opacity: 0;
        -webkit-transform: scale3d(.1, .1, .1) translate3d(1000px, 0, 0);
        transform: scale3d(.1, .1, .1) translate3d(1000px, 0, 0);
        -webkit-animation-timing-function: cubic-bezier(.55, .055, .675, .19);
        animation-timing-function: cubic-bezier(.55, .055, .675, .19)
    }

    60% {
        opacity: 1;
        -webkit-transform: scale3d(.475, .475, .475) translate3d(-10px, 0, 0);
        transform: scale3d(.475, .475, .475) translate3d(-10px, 0, 0);
        -webkit-animation-timing-function: cubic-bezier(.175, .885, .32, 1);
        animation-timing-function: cubic-bezier(.175, .885, .32, 1)
    }
}

@keyframes zoomInRight {
    from {
        opacity: 0;
        -webkit-transform: scale3d(.1, .1, .1) translate3d(1000px, 0, 0);
        transform: scale3d(.1, .1, .1) translate3d(1000px, 0, 0);
        -webkit-animation-timing-function: cubic-bezier(.55, .055, .675, .19);
        animation-timing-function: cubic-bezier(.55, .055, .675, .19)
    }

    60% {
        opacity: 1;
        -webkit-transform: scale3d(.475, .475, .475) translate3d(-10px, 0, 0);
        transform: scale3d(.475, .475, .475) translate3d(-10px, 0, 0);
        -webkit-animation-timing-function: cubic-bezier(.175, .885, .32, 1);
        animation-timing-function: cubic-bezier(.175, .885, .32, 1)
    }
}

.animate__zoomInRight {
    -webkit-animation-name: zoomInRight;
    animation-name: zoomInRight
}
    .animate__animated.animate__repeat-1 {
          -webkit-animation-iteration-count: 1;
          animation-iteration-count: 1;
          -webkit-animation-iteration-count: var(--animate-repeat);
          animation-iteration-count: var(--animate-repeat);
        }
    .animate__animated.animate__delay-2s {
          -webkit-animation-delay: calc(1s * 2);
          animation-delay: calc(1s * 2);
          -webkit-animation-delay: calc(var(--animate-delay) * 2);
          animation-delay: calc(var(--animate-delay) * 2);
        }
    .animate__animated.animate__slower {
          -webkit-animation-duration: calc(1s * 3);
          animation-duration: calc(1s * 3);
          -webkit-animation-duration: calc(var(--animate-duration) * 3);
          animation-duration: calc(var(--animate-duration) * 3);
        }</style>
  <g class="animate__animated animate__zoomInRight animate__repeat-1 animate__delay-2s animate__slower" id="svg_12" stroke="null">
   <text font-size="50.9329" font-family="'HelveticaWorld-Bold'" fill="#EAEEEF" transform="matrix(0.5994485331358455,0,0,0.7694939374923705,400.4444977365467,215.49574611963274) " id="svg_24" y="-112" x="-26.21033" stroke="null">REACH YOUR AFFILIATES</text>
  </g>
  <style type="text/css">:root {
        --animate-duration: 1s;
        --animate-delay: 1s;
        --animate-repeat: 1;
      }
      
       .animate__animated {
        -webkit-animation-duration: 1s;
        animation-duration: 1s;
        -webkit-animation-duration: var(--animate-duration);
        animation-duration: var(--animate-duration);
        -webkit-animation-fill-mode: both;
        animation-fill-mode: both;
      }
    @-webkit-keyframes zoomInRight {
    from {
        opacity: 0;
        -webkit-transform: scale3d(.1, .1, .1) translate3d(1000px, 0, 0);
        transform: scale3d(.1, .1, .1) translate3d(1000px, 0, 0);
        -webkit-animation-timing-function: cubic-bezier(.55, .055, .675, .19);
        animation-timing-function: cubic-bezier(.55, .055, .675, .19)
    }

    60% {
        opacity: 1;
        -webkit-transform: scale3d(.475, .475, .475) translate3d(-10px, 0, 0);
        transform: scale3d(.475, .475, .475) translate3d(-10px, 0, 0);
        -webkit-animation-timing-function: cubic-bezier(.175, .885, .32, 1);
        animation-timing-function: cubic-bezier(.175, .885, .32, 1)
    }
}

@keyframes zoomInRight {
    from {
        opacity: 0;
        -webkit-transform: scale3d(.1, .1, .1) translate3d(1000px, 0, 0);
        transform: scale3d(.1, .1, .1) translate3d(1000px, 0, 0);
        -webkit-animation-timing-function: cubic-bezier(.55, .055, .675, .19);
        animation-timing-function: cubic-bezier(.55, .055, .675, .19)
    }

    60% {
        opacity: 1;
        -webkit-transform: scale3d(.475, .475, .475) translate3d(-10px, 0, 0);
        transform: scale3d(.475, .475, .475) translate3d(-10px, 0, 0);
        -webkit-animation-timing-function: cubic-bezier(.175, .885, .32, 1);
        animation-timing-function: cubic-bezier(.175, .885, .32, 1)
    }
}

.animate__zoomInRight {
    -webkit-animation-name: zoomInRight;
    animation-name: zoomInRight
}
    .animate__animated.animate__repeat-1 {
          -webkit-animation-iteration-count: 1;
          animation-iteration-count: 1;
          -webkit-animation-iteration-count: var(--animate-repeat);
          animation-iteration-count: var(--animate-repeat);
        }
    .animate__animated.animate__delay-3s {
          -webkit-animation-delay: calc(1s * 3);
          animation-delay: calc(1s * 3);
          -webkit-animation-delay: calc(var(--animate-delay) * 3);
          animation-delay: calc(var(--animate-delay) * 3);
        }
    .animate__animated.animate__slower {
          -webkit-animation-duration: calc(1s * 3);
          animation-duration: calc(1s * 3);
          -webkit-animation-duration: calc(var(--animate-duration) * 3);
          animation-duration: calc(var(--animate-duration) * 3);
        }</style>
  <g class="animate__animated animate__zoomInRight animate__repeat-1 animate__delay-3s animate__slower" id="svg_13">
   <text font-size="34.6907" font-family="'HelveticaWorld-Bold'" fill="#EAEEEF" transform="matrix(1,0,0,1,383.4036,258.4492) " id="svg_22" y="-8" x="81.33333">WITH EMAILS</text>
  </g>
  <style type="text/css">:root {
        --animate-duration: 1s;
        --animate-delay: 1s;
        --animate-repeat: 1;
      }
      
       .animate__animated {
        -webkit-animation-duration: 1s;
        animation-duration: 1s;
        -webkit-animation-duration: var(--animate-duration);
        animation-duration: var(--animate-duration);
        -webkit-animation-fill-mode: both;
        animation-fill-mode: both;
      }
    @-webkit-keyframes zoomInDown {
    from {
        opacity: 0;
        -webkit-transform: scale3d(.1, .1, .1) translate3d(0, -1000px, 0);
        transform: scale3d(.1, .1, .1) translate3d(0, -1000px, 0);
        -webkit-animation-timing-function: cubic-bezier(.55, .055, .675, .19);
        animation-timing-function: cubic-bezier(.55, .055, .675, .19)
    }

    60% {
        opacity: 1;
        -webkit-transform: scale3d(.475, .475, .475) translate3d(0, 60px, 0);
        transform: scale3d(.475, .475, .475) translate3d(0, 60px, 0);
        -webkit-animation-timing-function: cubic-bezier(.175, .885, .32, 1);
        animation-timing-function: cubic-bezier(.175, .885, .32, 1)
    }
}

@keyframes zoomInDown {
    from {
        opacity: 0;
        -webkit-transform: scale3d(.1, .1, .1) translate3d(0, -1000px, 0);
        transform: scale3d(.1, .1, .1) translate3d(0, -1000px, 0);
        -webkit-animation-timing-function: cubic-bezier(.55, .055, .675, .19);
        animation-timing-function: cubic-bezier(.55, .055, .675, .19)
    }

    60% {
        opacity: 1;
        -webkit-transform: scale3d(.475, .475, .475) translate3d(0, 60px, 0);
        transform: scale3d(.475, .475, .475) translate3d(0, 60px, 0);
        -webkit-animation-timing-function: cubic-bezier(.175, .885, .32, 1);
        animation-timing-function: cubic-bezier(.175, .885, .32, 1)
    }
}

.animate__zoomInDown {
    -webkit-animation-name: zoomInDown;
    animation-name: zoomInDown
}
    .animate__animated.animate__repeat-1 {
          -webkit-animation-iteration-count: 1;
          animation-iteration-count: 1;
          -webkit-animation-iteration-count: var(--animate-repeat);
          animation-iteration-count: var(--animate-repeat);
        }
    .animate__animated.animate__delay-4s {
          -webkit-animation-delay: calc(1s * 4);
          animation-delay: calc(1s * 4);
          -webkit-animation-delay: calc(var(--animate-delay) * 4);
          animation-delay: calc(var(--animate-delay) * 4);
        }
    .animate__animated.animate__slower {
          -webkit-animation-duration: calc(1s * 3);
          animation-duration: calc(1s * 3);
          -webkit-animation-duration: calc(var(--animate-duration) * 3);
          animation-duration: calc(var(--animate-duration) * 3);
        }</style>
 </g>
</svg>