<svg width="800" height="450" xmlns="http://www.w3.org/2000/svg" xmlns:svg="http://www.w3.org/2000/svg" xmlns:xlink="http://www.w3.org/1999/xlink"> <g><title>background</title><rect fill="#d39c9c" id="canvas_background" height="450" width="800"/><text  transform="matrix(5.718161951202092,0,0,14.23143542723028,-144.3220635725911,-4086.152840349966) " id="svg_1_0" xml:space="preserve" text-anchor="middle" font-family="arial" font-size="4" y="296.65067" x="93.44536" stroke-width="0" fill="#ff1a1a">&#32;Accessibility&#32;links&#32;Search&#32;the&#32;BBCSearch</text><text  transform="matrix(5.718161951202092,0,0,14.23143542723028,-144.3220635725911,-4086.152840349966) " id="svg_1_1" xml:space="preserve" text-anchor="middle" font-family="arial" font-size="4" y="300.65789" x="93.44536" stroke-width="0" fill="#ff1a1a">the&#32;BBC&#32;BBC&#32;Homepage&#32;London&#32;Weather</text><text  transform="matrix(5.718161951202092,0,0,14.23143542723028,-144.3220635725911,-4086.152840349966) " id="svg_1_2" xml:space="preserve" text-anchor="middle" font-family="arial" font-size="4" y="304.66511" x="93.44536" stroke-width="0" fill="#ff1a1a">The&#32;most&#32;amazing&#32;videos&#32;from&#32;the</text><text  transform="matrix(5.718161951202092,0,0,14.23143542723028,-144.3220635725911,-4086.152840349966) " id="svg_1_3" xml:space="preserve" text-anchor="middle" font-family="arial" font-size="4" y="308.67233000000004" x="93.44536" stroke-width="0" fill="#ff1a1a">BBC&#32;Editor&#8217;s&#32;Picks&#32;Latest&#32;Business&#32;News</text><text  transform="matrix(5.718161951202092,0,0,14.23143542723028,-144.3220635725911,-4086.152840349966) " id="svg_1_4" xml:space="preserve" text-anchor="middle" font-family="arial" font-size="4" y="312.67955000000006" x="93.44536" stroke-width="0" fill="#ff1a1a">Solutions&#32;for&#32;a&#32;sustainable&#32;world&#32;Featured</text><text  transform="matrix(5.718161951202092,0,0,14.23143542723028,-144.3220635725911,-4086.152840349966) " id="svg_1_5" xml:space="preserve" text-anchor="middle" font-family="arial" font-size="4" y="316.6867700000001" x="93.44536" stroke-width="0" fill="#ff1a1a">video&#32;President&#32;Donald&#32;Trump&#32;votes&#32;early</text><text  transform="matrix(5.718161951202092,0,0,14.23143542723028,-144.3220635725911,-4086.152840349966) " id="svg_1_6" xml:space="preserve" text-anchor="middle" font-family="arial" font-size="4" y="320.6939900000001" x="93.44536" stroke-width="0" fill="#ff1a1a">in&#32;the&#32;US&#32;election&#44;&#32;while&#32;on</text><text  transform="matrix(5.718161951202092,0,0,14.23143542723028,-144.3220635725911,-4086.152840349966) " id="svg_1_7" xml:space="preserve" text-anchor="middle" font-family="arial" font-size="4" y="324.7012100000001" x="93.44536" stroke-width="0" fill="#ff1a1a">a&#32;campaign&#32;visit&#32;in&#32;Florida&#46;</text><text  transform="matrix(5.718161951202092,0,0,14.23143542723028,-144.3220635725911,-4086.152840349966) " id="svg_1_8" xml:space="preserve" text-anchor="middle" font-family="arial" font-size="4" y="328.70843000000013" x="93.44536" stroke-width="0" fill="#ff1a1a"></text><text  transform="matrix(5.718161951202092,0,0,14.23143542723028,-144.3220635725911,-4086.152840349966) " id="svg_1_9" xml:space="preserve" text-anchor="middle" font-family="arial" font-size="4" y="332.71565000000015" x="93.44536" stroke-width="0" fill="#ff1a1a"></text><text  transform="matrix(5.718161951202092,0,0,14.23143542723028,-144.3220635725911,-4086.152840349966) " id="svg_1_10" xml:space="preserve" text-anchor="middle" font-family="arial" font-size="4" y="336.72287000000017" x="93.44536" stroke-width="0" fill="#ff1a1a"></text><text  transform="matrix(5.718161951202092,0,0,14.23143542723028,-144.3220635725911,-4086.152840349966) " id="svg_1_11" xml:space="preserve" text-anchor="middle" font-family="arial" font-size="4" y="340.7300900000002" x="93.44536" stroke-width="0" fill="#ff1a1a"></text><text  transform="matrix(5.718161951202092,0,0,14.23143542723028,-144.3220635725911,-4086.152840349966) " id="svg_1_12" xml:space="preserve" text-anchor="middle" font-family="arial" font-size="4" y="344.7373100000002" x="93.44536" stroke-width="0" fill="#ff1a1a"></text><text  transform="matrix(5.718161951202092,0,0,14.23143542723028,-144.3220635725911,-4086.152840349966) " id="svg_1_13" xml:space="preserve" text-anchor="middle" font-family="arial" font-size="4" y="348.7445300000002" x="93.44536" stroke-width="0" fill="#ff1a1a"></text><text  transform="matrix(5.718161951202092,0,0,14.23143542723028,-144.3220635725911,-4086.152840349966) " id="svg_1_14" xml:space="preserve" text-anchor="middle" font-family="arial" font-size="4" y="352.75175000000024" x="93.44536" stroke-width="0" fill="#ff1a1a"></text><text  transform="matrix(5.718161951202092,0,0,14.23143542723028,-144.3220635725911,-4086.152840349966) " id="svg_1_15" xml:space="preserve" text-anchor="middle" font-family="arial" font-size="4" y="356.75897000000026" x="93.44536" stroke-width="0" fill="#ff1a1a"></text><text  transform="matrix(5.718161951202092,0,0,14.23143542723028,-144.3220635725911,-4086.152840349966) " id="svg_1_16" xml:space="preserve" text-anchor="middle" font-family="arial" font-size="4" y="360.7661900000003" x="93.44536" stroke-width="0" fill="#ff1a1a"></text><text  transform="matrix(5.718161951202092,0,0,14.23143542723028,-144.3220635725911,-4086.152840349966) " id="svg_1_17" xml:space="preserve" text-anchor="middle" font-family="arial" font-size="4" y="364.7734100000003" x="93.44536" stroke-width="0" fill="#ff1a1a"></text></g></svg>