<svg width="800" height="450" xmlns="http://www.w3.org/2000/svg">
 <g>
  <title>background</title>
  <rect x="-1" y="-1" width="890.88889" height="502" id="canvas_background" fill="#fff"/>
 </g>

 <style type="text/css">.st0{fill:#CCCCCC;}
	.st1{fill:#F6F0D8;}
	.st2{fill:#F6D3A6;}
	.st3{fill:#F69666;}
	.st4{fill:#825931;}
	.st5{fill:#F6A57A;}
	.st6{fill:none;stroke:#825931;stroke-width:3;stroke-linecap:round;stroke-miterlimit:10;}
	.st7{fill:#282828;}
	.st8{fill:#F6F0D8;stroke:#000000;stroke-miterlimit:10;}
	.st9{fill:#BCBCBC;}
	.st10{fill:none;}
	.st11{fill:#545454;}
	.st12{fill:#FCB640;}
	.st13{fill:#DB5B58;}
	.st14{fill:#8DC8DC;stroke:#8DC8DC;stroke-width:3;stroke-miterlimit:10;}
	.st15{fill:#8DC8DC;}
	.st16{fill:#F16336;stroke:#F16336;stroke-width:4;stroke-miterlimit:10;}
    #leg2 ,#leg2_1_ ,#wing1_1_ ,#wing2 ,#panda-hand1 ,#COLA ,#tail{
    animation : hit 4s ease-in-out infinite
    }
    @keyframes hit{
    0%{
    transform : translateY(0px)
    }
    10%{
    transform : translateY(-3px)
    }
    20%{
    transform : translateY(0px)
    }
    30%{
    transform : translateY(-3px)
    }
    40%{
    transform : translateY(0px)
    }
    50%{
    transform : translateY(-3px)
    }
    60%{
    transform : translateY(0)
    }
    70%{
    transform : translateY(-3px)
    }
    80%{
    transform : translateY(0)
    }
    90%{
    transform : translateY(-3px)
    }
    100%{
    transform : translateY(0px)
    }
    }
    #leg1 ,#leg1_1_ ,#wing1 ,#wing2_1_ ,#panda-hand-2{
    animation : hit2 4s ease-in-out infinite
    }
    @keyframes hit2{
    0%{
    transform : translateY(-3px)
    }
    10%{
    transform : translateY(0)
    }
    20%{
    transform : translateY(-3px)
    }
    30%{
    transform : translateY(0)
    }
    40%{
    transform : translateY(-3px)
    }
    50%{
    transform : translateY(0)
    }
    60%{
    transform : translateY(-3px)
    }
    70%{
    transform : translateY(0)
    }
    80%{
    transform : translateY(-3px)
    }
    90%{
    transform : translateY(0)
    }
    100%{
    transform : translateY(-3px)
    }
    }
    #rounded-face ,#dancing-face ,#panda-dancing-face ,#dancing-face-cat{
    animation : swip 4s alternate infinite;
    transform-origin : center ;
    transform-box : fill-box
    }
    @keyframes swip{
    0%{
    transform : translate(2px,0)
    }
    20%{
    transform : translate(0,-3px)
    }
    40%{
    transform : translate(2px,0)
    }
    60%{
    transform : translate(0,-3px)
    }
    80%{
    transform : translate(2px,0)
    }
    100%{
    transform : translate(0,-3px)
    }
    }
    #right-hand{
    animation : drum 4s ease-in-out infinite;
    transform-origin : center ;
    transform-box : fill-box
    }
    @keyframes drum{
    0%{
    transform : rotate(-20deg)
    }
    20%{
    transform : rotate(20deg)
    }
    40%{
    transform : rotate(-20deg)
    }
    60%{
    transform : rotate(20deg)
    }
    80%{
    transform : rotate(-20deg)
    }
    100%{
    transform : rotate(20deg)
    }
    }
    #left-hand{
    animation : drum2 4s ease-in-out infinite;
    transform-origin : center ;
    transform-box : fill-box
    }
    @keyframes drum2{
    0%{
    transform : rotate(90deg)
    }
    20%{
    transform : rotate(-0deg)
    }
    40%{
    transform : rotate(90deg)
    }
    60%{
    transform : rotate(-0deg)
    }
    80%{
    transform : rotate(90deg)
    }
    100%{
    transform : rotate(-0deg)
    }
    }
    /*#panda-hand1{
     animation : drum3 4s ease-in-out infinite;
    transform-origin : center ;
    transform-box : fill-box
    }
     @keyframes drum3{
    0%{
    transform : rotate(-20deg)
    }
    20%{
    transform : rotate(0deg)
    }
    40%{
    transform : rotate(-20deg)
    }
    60%{
    transform : rotate(0deg)
    }
    80%{
    transform : rotate(-20deg)
    }
    100%{
    transform : rotate(0deg)
    }
    }
    
    #panda-hand-2{
     animation : drum4 4s ease-in-out infinite;
    transform-origin : center ;
    transform-box : fill-box
    }
    @keyframes drum4{
    0%{
    transform : rotate(0deg)
    }
    20%{
    transform : rotate(-20deg)
    }
    40%{
    transform : rotate(0deg)
    }
    60%{
    transform : rotate(-20deg)
    }
    80%{
    transform : rotate(0deg)
    }
    100%{
    transform : rotate(-20deg)
    }
    }*/
    #BRAZO_copy{
    transform-box: fill-box;
    transform-origin: center;
    animation: play 3s ease-in-out infinite
    }
    @keyframes play{
    0%{
    transform : rotate(0)
    }
    20%{
    transform : rotate(-60deg)
    }
    40%{
    transform : rotate(0)
    }
    60%{
     transform : rotate(-60deg)
    }
    80%{
     transform : rotate(0deg)
    }
    100%{
     transform : rotate(-60deg)
    }
    }
    #BRAZO{
    transform-box: fill-box;
    transform-origin: center;
    animation: play1 3s ease-in-out infinite
    }
    @keyframes play1{
    0%{
    transform : rotate(-60deg)
    }
    20%{
    transform : rotate(0)
    }
    40%{
    transform : rotate(-60deg)
    }
    60%{
     transform : rotate(0)
    }
    80%{
     transform : rotate(-60deg)
    }
    100%{
     transform : rotate(0)
    }
    }</style>
 <g>
  <title>Layer 1</title>
  <rect id="svg_1" height="538" width="928" class="st0" y="-66.5" x="-85.5"/>
  <g id="Back"/>
  <g id="cat2">
   <g id="svg_2">
    <path id="svg_3" d="m282.8,326.3c0,0 3.4,25.3 -4.9,37.1c-7.1,10.1 -7.4,-4.9 -7.4,-4.9s-2.3,0.8 -5.4,0.5l1.2,0c-3.1,0.3 -5.4,-0.5 -5.4,-0.5s-0.3,15 -7.4,4.9c-8.3,-11.8 -4.9,-37.1 -4.9,-37.1l34.2,0z" class="st1"/>
    <path id="svg_4" d="m270.8,358.3c0,0 6.3,-1.9 5.2,-4.5c-1.1,-2.6 -6.3,1.7 -10.7,1.2l0.1,0c-4.3,0.5 -9,-3.5 -10.1,-0.9c-1.1,2.6 4.7,4.1 4.7,4.1s6.2,1.9 10.8,0.1z" class="st2"/>
   </g>
   <g id="left-hand">
    <path id="svg_5" d="m271.2,336.9c0,0 2.7,2.7 5.9,3.2c0,0 -3,8.7 -6.9,6.4c-2,-2.2 1,-9.6 1,-9.6z" class="st3"/>
    <path id="svg_6" d="m278.8,332c-0.8,-0.1 -1.6,0.4 -1.7,1.2c-1,5.8 -2.4,9.8 -4,12c-0.8,1.1 -1.6,0.8 -2,0.6c-0.9,-0.5 -1.4,-1.8 -0.7,-3.3c2.1,-4.4 2.8,-13.5 2.9,-13.9c0.1,-0.8 -0.5,-1.5 -1.4,-1.6c-0.8,-0.1 -1.5,0.5 -1.6,1.4c0,0.1 -0.7,8.9 -2.6,12.8c-1.5,3.1 -0.2,5.9 1.9,7.1c0.7,0.4 1.4,0.6 2.2,0.6c1.3,0 2.6,-0.6 3.7,-2c2.8,-3.9 4,-10.9 4.5,-13.2c0.2,-0.8 -0.4,-1.5 -1.2,-1.7z" class="st4"/>
   </g>
   <g id="right-hand">
    <path id="svg_7" d="m255.1,340.4c0,0 3.8,-0.2 6.4,-2.3c0,0 4.4,8 0.1,9.4c-3,0.1 -6.5,-7.1 -6.5,-7.1z" class="st3"/>
    <path id="svg_8" d="m256.5,331.4c-0.6,0.5 -0.8,1.4 -0.3,2.1c3.6,4.6 5.7,8.3 6.3,11c0.3,1.3 -0.4,1.7 -0.9,1.9c-1,0.3 -2.3,-0.2 -2.9,-1.7c-1.9,-4.5 -8.1,-11.1 -8.4,-11.4c-0.6,-0.6 -1.5,-0.6 -2.1,-0.1c-0.6,0.6 -0.6,1.5 -0.1,2.1c0.1,0.1 6.1,6.5 7.8,10.5c1.3,3.2 4.3,4.1 6.5,3.4c0.7,-0.2 1.4,-0.6 1.9,-1.2c0.9,-0.9 1.3,-2.3 0.9,-4.1c-1,-4.6 -5.4,-10.3 -6.8,-12.2c-0.3,-0.6 -1.2,-0.8 -1.9,-0.3z" class="st4"/>
   </g>
   <path id="svg_9" d="m320.7,294.7c0,29.4 -23.4,33.7 -54,33.7c-30.6,0 -56.8,-4.4 -56.8,-33.7c0,-29.4 24.8,-53.2 55.4,-53.2c30.6,0 55.4,23.8 55.4,53.2z" class="st1"/>
   <g id="dancing-face">
    <g id="svg_10">
     <g id="svg_11">
      <g id="svg_12">
       <path id="svg_13" d="m305.6,262.1c-3.6,6.3 -8.3,3.7 -13.6,-0.9c-5.3,-4.7 -9.4,-9.6 -5.8,-15.9c3.6,-6.3 12.9,-11.2 18.3,-6.6c5.3,4.6 4.7,17.1 1.1,23.4z" class="st5"/>
      </g>
      <g id="svg_14">
       <path id="svg_15" d="m224.4,262.1c3.6,6.3 8.3,3.7 13.6,-0.9c5.3,-4.7 9.4,-9.6 5.8,-15.9c-3.6,-6.3 -12.9,-11.2 -18.3,-6.6c-5.4,4.6 -4.8,17.1 -1.1,23.4z" class="st5"/>
      </g>
     </g>
    </g>
    <line id="svg_16" y2="317" x2="320.2" y1="308.6" x1="308.3" class="st6"/>
    <line id="svg_17" y2="310" x2="323.7" y1="303.7" x1="310.6" class="st6"/>
    <line id="svg_18" y2="302.5" x2="325.6" y1="298.1" x1="311.7" class="st6"/>
    <line id="svg_19" y2="317.3" x2="212.2" y1="308.9" x1="224.1" class="st6"/>
    <line id="svg_20" y2="310.3" x2="208.7" y1="304" x1="221.8" class="st6"/>
    <line id="svg_21" y2="302.8" x2="206.8" y1="298.4" x1="220.7" class="st6"/>
    <path id="svg_22" d="m248.2,243.9c0,0 0.7,13.8 5.9,13.5c5.3,-0.3 2.3,-16.8 2.3,-16.8s-6.3,0.6 -8.2,3.3z" class="st5"/>
    <path id="svg_23" d="m281.3,243.9c0,0 -0.7,13.8 -5.9,13.5c-5.3,-0.3 -2.3,-16.8 -2.3,-16.8s6.2,0.6 8.2,3.3z" class="st5"/>
    <path id="svg_24" d="m269.9,240.6c0,0 1,21.4 -4.3,21.8l-1.3,0c-5.3,-0.3 -4.3,-21.8 -4.3,-21.8l9.9,0z" class="st5"/>
    <g id="svg_25">
     <path id="svg_26" d="m232.6,299.3c0,2.8 -2.3,5.1 -5.1,5.1c-2.8,0 -5.1,-2.3 -5.1,-5.1c0,-2.8 2.3,-5.1 5.1,-5.1c2.8,0 5.1,2.2 5.1,5.1z" class="st3"/>
     <path id="svg_27" d="m307.2,299.3c0,2.8 -2.3,5.1 -5.1,5.1c-2.8,0 -5.1,-2.3 -5.1,-5.1c0,-2.8 2.3,-5.1 5.1,-5.1c2.8,0 5.1,2.2 5.1,5.1z" class="st3"/>
     <path id="svg_28" d="m264.1,292.7c1.5,0 2.8,-1.1 2.8,-2.5c0,-1.4 -1.3,-1.5 -2.8,-1.5c-1.5,0 -2.8,0.1 -2.8,1.5c0,1.4 1.2,2.5 2.8,2.5z" class="st4"/>
     <path id="svg_29" d="m272.5,298.2c0.4,-1.2 -1.5,-1.7 -1.9,-0.5c-0.4,1 -2.9,1.4 -3.7,0.9c-1,-0.6 -1.5,-1.4 -1.7,-2.5c-0.1,-0.6 -0.5,-0.7 -1,-0.7c-0.4,0 -0.9,0.1 -1,0.7c-0.2,1.1 -0.7,1.9 -1.7,2.5c-0.8,0.5 -3.3,0.1 -3.7,-0.9c-0.4,-1.2 -2.4,-0.7 -1.9,0.5c0.7,2 3,2.6 5,2.5c1.3,0 2.5,-0.8 3.2,-1.9c0.8,1.1 1.9,1.8 3.2,1.9c2.2,0.1 4.5,-0.5 5.2,-2.5z" class="st4"/>
    </g>
    <g id="svg_30">
     <circle id="svg_31" r="10.6" cy="286.2" cx="240.2" class="st4"/>
     <path id="svg_32" d="m245.5,283.3c-0.6,1.2 -1.6,0.8 -2.8,0.2c-1.2,-0.6 -2.1,-1.3 -1.4,-2.4c0.6,-1.2 2.1,-1.6 3.2,-1c1.1,0.5 1.6,2 1,3.2z" class="st1"/>
    </g>
    <g id="svg_33">
     <circle id="svg_34" r="10.6" cy="286.2" cx="289.2" class="st4"/>
     <path id="svg_35" d="m294.4,283.3c-0.6,1.2 -1.6,0.8 -2.8,0.2c-1.2,-0.6 -2.1,-1.3 -1.4,-2.4c0.6,-1.2 2.1,-1.6 3.2,-1c1.2,0.5 1.6,2 1,3.2z" class="st1"/>
    </g>
   </g>
  </g>
  <g id="panda">
   <path id="svg_36" d="m655.6,267.6c0,11.9 -10.3,22 -20.8,19.2c-11.1,-3 -20.8,-7.3 -20.8,-19.2c0,-11.9 9.3,-21.5 20.8,-21.5s20.8,9.7 20.8,21.5z" class="st7"/>
   <path id="svg_37" d="m526.3,267.6c0,11.9 10.3,22 20.8,19.2c11.1,-3 20.8,-7.3 20.8,-19.2c0,-11.9 -9.3,-21.5 -20.8,-21.5s-20.8,9.7 -20.8,21.5z" class="st7"/>
   <circle r="4" cy="345.5" cx="608.6" class="st8" id="tail"/>
   <g id="svg_38">
    <path id="svg_39" d="m605.3,322.9c0,0 2.8,22 -4.1,32.2c-5.9,8.7 -6.2,-4.3 -6.2,-4.3s-1.9,0.7 -4.5,0.4l1,0c-2.6,0.3 -4.5,-0.4 -4.5,-0.4s-0.3,13 -6.2,4.3c-6.9,-10.3 -4.1,-32.2 -4.1,-32.2l28.6,0z" class="st1"/>
   </g>
   <path id="svg_40" d="m577.1,345.3l6.8,0.2l3.6,0.6c0,0 0.7,11.9 -3.1,12.1c-5.6,0.2 -7.3,-12.9 -7.3,-12.9z"/>
   <path id="svg_41" d="m604.9,345.3l-7.5,0.2l-3,0.7c0,0 -0.7,11.9 2.9,12.1c5.5,0.1 7.6,-13 7.6,-13z"/>
   <path id="svg_42" d="m584.5,345.5c1.7,0.4 3.9,0.8 6.5,0.8c2.8,0 5.2,-0.4 7,-0.9c-0.2,2.1 -0.3,4.2 -0.5,6.3l-13.5,-0.3l0.5,-5.9z"/>
   <path id="svg_43" d="m595.5,347.3c0,0 5.3,-1.5 4.3,-3.7c-0.9,-2.2 -5.3,1.4 -8.9,1l0.1,0c-3.6,0.4 -7.5,-2.9 -8.4,-0.7c-0.9,2.2 3.9,3.4 3.9,3.4s4,2.1 9,0z" class="st9"/>
   <path id="svg_44" d="m574.4,320.6c0,0 3.8,12.2 17.2,12.2c13.4,0 14.8,-12.2 14.8,-12.2l-32,0z"/>
   <g id="svg_45">
    <path id="svg_46" d="m591,250.4c-26.2,0 -47.6,20.5 -47.6,45.6c0,23.6 19.5,28.5 48.8,28.5c28.6,0 46.3,-4.8 46.3,-28.5c0,-25.2 -21.3,-45.6 -47.5,-45.6z" class="st1"/>
   </g>
   <path id="svg_47" d="m604.7,322.9c0.1,-0.1 0.3,-0.1 0.5,-0.1c22.8,-1.7 32.1,-9.5 32.1,-26.8c0,-3.4 -0.4,-6.7 -1.2,-9.8c-4.3,-1.7 -8.1,-6 -11.6,-10.5c-2.8,-3.7 -6.2,-8.6 -7.3,-13.2c-0.2,-1.1 -0.4,-2.2 -0.3,-3.2c-7.4,-4.8 -16.4,-7.7 -26,-7.7c-9.6,0 -18.6,2.8 -26,7.7c0,1 -0.1,2.1 -0.3,3.2c-1,4.6 -4.4,9.5 -7.3,13.2c-3.5,4.5 -7.3,8.8 -11.6,10.5c-0.8,3.2 -1.2,6.5 -1.2,9.8c0,16.6 9.5,24.6 31.8,26.6l0,0c0,0 0.1,0 0.3,0.1c0,0 0,0 0.1,0c0,0 0,0 0.1,0c1.9,0.4 10.4,1.9 21.7,1.1m-8.4,-29.9c1.3,0 2.3,0.1 2.3,1.2c0,1.1 -1,2.1 -2.3,2.1c-1.3,0 -2.3,-0.9 -2.3,-2.1c0,-1.1 1,-1.2 2.3,-1.2zm7.1,7.9c-0.6,1.6 -2.5,2.2 -4.2,2.1c-1.1,0 -2,-0.7 -2.7,-1.6c-0.6,0.9 -1.6,1.5 -2.7,1.6c-1.6,0 -3.5,-0.5 -4.2,-2.1c-0.4,-1 1.2,-1.4 1.6,-0.4c0.3,0.9 2.4,1.2 3.1,0.8c0.8,-0.5 1.2,-1.2 1.4,-2.1c0.1,-0.5 0.4,-0.6 0.8,-0.6c0.4,0 0.7,0.1 0.8,0.6c0.2,0.9 0.6,1.6 1.4,2.1c0.7,0.4 2.7,0.1 3.1,-0.8c0.4,-1 2,-0.6 1.6,0.4z" class="st10"/>
   <path d="m619.5,328c0.1,4.6 -14.2,4.8 -14.2,4.8l1.4,-6.7c0,0 12.7,-3.4 12.8,1.9z" id="panda-hand-2" class="st7"/>
   <path d="m562.5,328c-0.1,4.6 14.2,4.8 14.2,4.8l-1.4,-6.7c0.1,0 -12.7,-3.4 -12.8,1.9z" id="panda-hand1" class="st7"/>
   <g id="panda-dancing-face">
    <g id="svg_48">
     <path id="svg_49" d="m566.8,305.6c0,2.4 -1.9,4.3 -4.3,4.3s-4.3,-1.9 -4.3,-4.3c0,-2.4 1.9,-4.3 4.3,-4.3s4.3,1.9 4.3,4.3z" class="st3"/>
     <path id="svg_50" d="m625.3,305.6c0,2.4 -1.9,4.3 -4.3,4.3c-2.4,0 -4.3,-1.9 -4.3,-4.3c0,-2.4 1.9,-4.3 4.3,-4.3c2.4,0 4.3,1.9 4.3,4.3z" class="st3"/>
     <path id="svg_51" d="m590.1,297.2c1.3,0 2.3,-0.9 2.3,-2.1c0,-1.1 -1,-1.2 -2.3,-1.2c-1.3,0 -2.3,0.1 -2.3,1.2c0,1.2 1,2.1 2.3,2.1z" class="st7"/>
     <path id="svg_52" d="m595.6,301.4c-0.3,0.9 -2.4,1.2 -3.1,0.8c-0.8,-0.5 -1.2,-1.2 -1.4,-2.1c-0.1,-0.5 -0.4,-0.6 -0.8,-0.6c-0.4,0 -0.7,0.1 -0.8,0.6c-0.2,0.9 -0.6,1.6 -1.4,2.1c-0.7,0.4 -2.7,0.1 -3.1,-0.8c-0.4,-1 -2,-0.6 -1.6,0.4c0.6,1.6 2.5,2.2 4.2,2.1c1.1,0 2,-0.7 2.7,-1.6c0.6,0.9 1.6,1.5 2.7,1.6c1.6,0 3.5,-0.5 4.2,-2.1c0.4,-1 -1.2,-1.4 -1.6,-0.4z" class="st7"/>
    </g>
    <g id="svg_53">
     <path id="svg_54" d="m581.9,294.8c-4.5,7.6 -10.5,7.5 -16.1,4.2c-5.6,-3.3 -8.7,-8.5 -4.2,-16.1s12.6,-11.2 18.2,-7.9c5.7,3.3 6.6,12.2 2.1,19.8z" class="st11"/>
     <path id="svg_55" d="m599.3,294.8c4.5,7.6 10.5,7.5 16.1,4.2c5.6,-3.3 8.7,-8.5 4.2,-16.1c-4.5,-7.6 -12.6,-11.2 -18.2,-7.9c-5.6,3.3 -6.5,12.2 -2.1,19.8z" class="st11"/>
    </g>
    <g id="svg_56">
     <circle id="svg_57" r="7.5" cy="287.4" cx="573.6" class="st7"/>
     <path id="svg_58" d="m577.4,285.3c-0.4,0.8 -1.2,0.6 -2,0.2c-0.8,-0.4 -1.5,-0.9 -1,-1.7c0.4,-0.8 1.5,-1.2 2.3,-0.7c0.8,0.3 1.1,1.3 0.7,2.2z" class="st1"/>
    </g>
    <g id="svg_59">
     <circle id="svg_60" r="7.5" cy="287.4" cx="610.2" class="st7"/>
     <path id="svg_61" d="m613.9,285.3c-0.4,0.8 -1.2,0.6 -2,0.2c-0.8,-0.4 -1.5,-0.9 -1,-1.7c0.4,-0.8 1.5,-1.2 2.3,-0.7c0.8,0.3 1.2,1.3 0.7,2.2z" class="st1"/>
    </g>
   </g>
  </g>
  <g id="cat1">
   <g id="OREJA_2">
    <g id="svg_62">
     <path id="svg_63" d="m474.8,279.7c-6.2,8.8 -14.1,5.1 -23.2,-1.3c-9.1,-6.4 -16,-13.3 -9.8,-22c6.2,-8.8 22,-15.5 31.2,-9.1c9.1,6.4 8,23.6 1.8,32.4z" class="st12"/>
     <path id="svg_64" d="m466.3,270.4c0.3,0.4 0.9,0.4 1.3,0c1.5,-1.8 4.6,-6.7 0.1,-11.8c-4.5,-5.1 -10.8,-0.6 -13.1,1.4c-0.4,0.4 -0.4,1.1 0.2,1.3c2.2,1.2 7.2,4 11.5,9.1z" class="st13"/>
    </g>
   </g>
   <g id="OREJA_1">
    <g id="svg_65">
     <path id="svg_66" d="m388.9,279.7c6.2,8.8 14.1,5.1 23.2,-1.3c9.1,-6.4 16,-13.3 9.8,-22c-6.2,-8.8 -22,-15.5 -31.2,-9.1c-9.1,6.4 -8,23.6 -1.8,32.4z" class="st12"/>
     <path id="svg_67" d="m397.1,268.5c-0.3,0.4 -1,0.4 -1.3,-0.1c-1.4,-1.9 -4.2,-6.9 0.4,-11.8c4.7,-4.9 10.8,-0.1 13,2.1c0.4,0.4 0.3,1.1 -0.2,1.3c-2.3,1 -7.5,3.6 -11.9,8.5z" class="st13"/>
    </g>
   </g>
   <g id="COLA">
    <g id="svg_68">
     <path id="svg_69" d="m446.9,345.6c0,0 7.9,-3.1 7.7,1.1c-0.1,4.2 -9.1,4.9 -10.3,2.4c-0.2,-1 2.6,-3.5 2.6,-3.5z" class="st12"/>
     <g id="svg_70">
      <path id="svg_71" d="m445.2,351.7c0.2,0 0.5,0 0.7,0c0.7,0 1.6,0.1 2.4,0.1c2.2,0 4.8,-0.3 6.3,-1.8c0.9,-0.9 1.3,-2 1.2,-3.4c-0.1,-1.8 -1,-2.7 -1.8,-3.1c-2.2,-1.2 -5.6,0 -7.8,1c0,-0.1 0,-0.2 0,-0.3l-1.2,8c0.1,-0.2 0.2,-0.4 0.2,-0.5zm0.8,-4.4c2.1,-1.1 5.6,-2.4 6.9,-1.7c0.1,0.1 0.5,0.3 0.5,1.1c0,0.9 -0.3,1.3 -0.5,1.5c-1.3,1.3 -4.9,1.1 -6.9,1c-0.1,0 -0.2,0 -0.3,0c0.1,-0.6 0.2,-1.2 0.3,-1.9z" class="st4"/>
     </g>
    </g>
   </g>
   <g id="CUERPO">
    <path id="svg_72" d="m444.7,328.7c0,0 2.8,20.8 -4.1,30.5c-5.8,8.3 -6.1,-4.1 -6.1,-4.1s-1.9,0.7 -4.5,0.4l1,0c-2.6,0.3 -4.5,-0.4 -4.5,-0.4s-0.3,12.3 -6.1,4.1c-6.8,-9.7 -4.1,-30.5 -4.1,-30.5l28.4,0z" class="st1"/>
    <path id="svg_73" d="m434.8,355.2c0,0 5.2,-1.5 4.3,-3.7c-0.9,-2.1 -5.2,1.4 -8.8,1l0.1,0c-3.6,0.4 -7.4,-2.8 -8.3,-0.7c-0.9,2.1 3.9,3.4 3.9,3.4s5,1.5 8.8,0z" class="st2"/>
   </g>
   <g id="CABEZA">
    <path id="svg_74" d="m478.7,301.7c0,24.9 -19.8,28.5 -45.7,28.5c-25.9,0 -48,-3.7 -48,-28.5s21,-45 46.8,-45c25.9,0 46.9,20.1 46.9,45z" class="st1"/>
   </g>
   <g id="BRAZO">
    <g id="svg_75">
     <path id="svg_76" d="m436.6,333.4c0,0 1.5,5.4 -2.3,6c0,0 -4.2,-2.2 -2,-5.5c2.1,-3.4 4.3,-0.5 4.3,-0.5z" class="st12"/>
     <path id="svg_77" d="m440.2,334.1c-0.5,-0.2 -1.3,-0.7 -1.9,-1.2c-1.3,-1 -2.9,-2 -4.5,-1.7c-1,0.2 -1.8,0.9 -2.5,2c-0.6,0.9 -0.7,2 -0.4,3c1,3.5 6.5,6.5 7.2,6.8c0.2,0.1 0.4,0.1 0.6,0.1c0.4,0 0.9,-0.2 1.1,-0.7c0.3,-0.6 0.1,-1.3 -0.5,-1.6c-1.4,-0.7 -5.4,-3.2 -6,-5.3c-0.1,-0.4 -0.1,-0.7 0.1,-1.1c0.2,-0.4 0.6,-0.8 0.9,-0.9c0.6,-0.1 1.7,0.6 2.6,1.3c0.8,0.6 1.7,1.2 2.6,1.5c0.6,0.2 1.3,-0.1 1.5,-0.8c0.2,-0.5 -0.2,-1.2 -0.8,-1.4z" class="st4"/>
    </g>
   </g>
   <g id="BRAZO_copy">
    <g id="svg_78">
     <path id="svg_79" d="m413.4,333.4c0,0 1.5,5.4 -2.3,6c0,0 -4.2,-2.2 -2,-5.5c2.1,-3.4 4.3,-0.5 4.3,-0.5z" class="st12"/>
     <path id="svg_80" d="m416.9,334.1c-0.5,-0.2 -1.3,-0.7 -1.9,-1.2c-1.3,-1 -2.9,-2 -4.5,-1.7c-1,0.2 -1.8,0.9 -2.5,2c-0.6,0.9 -0.7,2 -0.4,3c1,3.5 6.5,6.5 7.2,6.8c0.2,0.1 0.4,0.1 0.6,0.1c0.4,0 0.9,-0.2 1.1,-0.7c0.3,-0.6 0.1,-1.3 -0.5,-1.6c-1.4,-0.7 -5.4,-3.2 -6,-5.3c-0.1,-0.4 -0.1,-0.7 0.1,-1.1c0.2,-0.4 0.6,-0.8 0.9,-0.9c0.6,-0.1 1.7,0.6 2.6,1.3c0.8,0.6 1.7,1.2 2.6,1.5c0.6,0.2 1.3,-0.1 1.5,-0.8c0.2,-0.5 -0.1,-1.2 -0.8,-1.4z" class="st4"/>
    </g>
   </g>
   <g id="MANCHA"/>
   <g id="BOCA"/>
   <g id="dancing-face-cat">
    <g id="svg_81">
     <path id="svg_82" d="m431.9,256.7c-1.1,0 -2.2,0 -3.3,0.1c-1.3,4.2 -2,8.6 -2,13.2c0,24.2 19.6,43.7 43.7,43.7c2.2,0 4.8,-0.1 6.9,-0.4c1.2,-3.2 1.9,-7.1 1.9,-11.6c0,-24.9 -20,-46.2 -47.2,-45z" class="st12"/>
     <path id="svg_83" d="m407.4,309c0,2.3 -1.9,4.2 -4.2,4.2c-2.3,0 -4.2,-1.9 -4.2,-4.2c0,-2.3 1.9,-4.2 4.2,-4.2c2.4,-0.1 4.2,1.8 4.2,4.2z" class="st3"/>
     <path id="svg_84" d="m465.2,309c0,2.3 -1.9,4.2 -4.2,4.2c-2.3,0 -4.2,-1.9 -4.2,-4.2c0,-2.3 1.9,-4.2 4.2,-4.2c2.3,-0.1 4.2,1.8 4.2,4.2z" class="st3"/>
     <path id="svg_85" d="m431.3,306.4c1.3,0 2.3,-0.9 2.3,-2c0,-1.1 -1,-1.2 -2.3,-1.2c-1.3,0 -2.3,0.1 -2.3,1.2c0,1.1 1,2 2.3,2z" class="st4"/>
     <path id="svg_86" d="m431.5,311.5c0.6,0.9 1.5,1.5 2.6,1.5c1.6,0 3.5,-0.5 4.1,-2.1c0.4,-1 -1.2,-1.4 -1.6,-0.4c-0.3,0.8 -2.4,1.1 -3,0.7c-0.8,-0.5 -1.2,-1.1 -1.4,-2c-0.1,-0.5 -0.4,-0.6 -0.8,-0.6c-0.4,0 -0.7,0.1 -0.8,0.6c-0.2,0.9 -0.6,1.6 -1.4,2c-0.7,0.4 -2.7,0.1 -3,-0.7c-0.4,-1 -1.9,-0.6 -1.6,0.4c0.6,1.6 2.5,2.1 4.1,2.1c1.3,0 2.2,-0.6 2.8,-1.5z" class="st4"/>
     <g id="svg_87">
      <circle id="svg_88" r="8.7" cy="295.3" cx="411.2" class="st4"/>
      <path id="svg_89" d="m415.5,292.8c-0.5,1 -1.4,0.7 -2.3,0.2c-1,-0.5 -1.7,-1 -1.2,-2c0.5,-1 1.7,-1.3 2.7,-0.8c1,0.4 1.3,1.6 0.8,2.6z" class="st1"/>
     </g>
     <g id="svg_90">
      <circle id="svg_91" r="8.7" cy="295.3" cx="453.3" class="st4"/>
      <path id="svg_92" d="m457.6,292.8c-0.5,1 -1.4,0.7 -2.3,0.2c-1,-0.5 -1.7,-1 -1.2,-2s1.7,-1.3 2.7,-0.8c0.9,0.4 1.3,1.6 0.8,2.6z" class="st1"/>
     </g>
    </g>
   </g>
   <g id="CONTORNO_GATO">
    <path id="svg_93" d="m481.3,301.9c0,-7.5 -1.9,-15 -5.4,-21.6c6.1,-8.8 7.9,-26.9 -2.2,-34c-2.6,-1.8 -5.8,-2.8 -9.4,-2.8c-8.3,0 -18.1,5 -23.1,11.7c-6.1,-1.1 -12.4,-1.1 -18.5,0c-5,-6.7 -14.8,-11.7 -23.1,-11.7c-3.7,0 -6.8,0.9 -9.4,2.8c-4.5,3.2 -7.1,9 -7.2,16.3c-0.1,6.4 1.8,13.1 5,17.7c-3.5,6.7 -5.4,14.1 -5.4,21.6c0,22.9 18.2,28 32.5,29.7c0,0.6 -0.1,1.2 -0.1,1.8c0,0 0,0 0,0c-0.1,2.1 -0.2,6 -0.1,9.6c0,0 0,0 0,0c0.4,7.4 2,13.1 4.7,17c1.6,2.3 3,3.4 4.4,3.4c2.8,0 3.6,-4.1 3.8,-6.6c0.8,0.1 1.7,0.2 2.9,0.1c1.1,0.1 2.1,0 2.9,-0.1c0.2,2.6 1,6.6 3.8,6.6c0,0 0,0 0,0c1.4,0 2.8,-1.1 4.4,-3.4c1.5,-2.1 2.6,-4.7 3.4,-7.8l1.2,-8c0.3,-3.6 0.2,-7.6 -0.1,-12.1c17.5,-1.4 35,-6.2 35,-30.2zm-36.5,27.8c-0.3,0 -0.6,0.2 -0.8,0.4c-0.2,0.2 -0.3,0.6 -0.3,0.9c1,13 -0.3,22.2 -4.1,27.5c-1.6,2.3 -2.4,2.3 -2.4,2.3c-0.5,0 -1.4,-2.6 -1.5,-5.7c0,0 0,-0.1 0,-0.1c0.8,-0.4 1.7,-0.8 2.5,-1.4c0.4,-0.3 0.4,-0.8 0.2,-1.1c-0.3,-0.4 -0.8,-0.4 -1.1,-0.2c-2,1.5 -4.2,2.1 -6.1,2.1c-0.2,0 -0.3,0 -0.5,0c-0.1,0 -0.1,0 -0.2,0c-0.1,0 -0.2,0 -0.3,0c-3.4,-0.2 -6,-1.7 -6.2,-1.8c-0.4,-0.2 -0.9,-0.1 -1.1,0.3c-0.2,0.4 -0.1,0.9 0.3,1.1c0.1,0.1 0.9,0.5 2.3,1c0,0 0,0.1 0,0.1c-0.1,3.2 -0.9,5.7 -1.5,5.7c0,0 -0.8,0 -2.4,-2.3c-3.8,-5.4 -5.1,-14.8 -4,-27.9c0.1,-0.7 -0.4,-1.2 -1.1,-1.3c-21.8,-2.3 -31.5,-10.8 -31.5,-27.4c0,-7.4 1.9,-14.7 5.5,-21.1c0.2,-0.4 0.2,-0.9 -0.1,-1.3l-0.1,-0.1c-0.1,-0.1 -0.2,-0.2 -0.3,-0.4c-2.9,-4.1 -4.7,-10.4 -4.6,-16.4c0.1,-3.8 0.9,-10.7 6.1,-14.4c2.2,-1.5 4.9,-2.3 8,-2.3c7.1,0 15.9,4.3 20.6,10c-1.6,0.6 -3.7,1.4 -5.9,2.7c-0.6,0.3 -0.8,1.1 -0.4,1.7c0.2,0.4 0.6,0.6 1.1,0.6c0.2,0 0.4,-0.1 0.6,-0.2c3.8,-2.3 7.4,-3.1 8,-3.3c5.4,-0.9 10.9,-1 16.3,-0.1c0.1,0 0.1,0.1 0.2,0.1c0,0 3.9,0.8 8.2,3.3c0.2,0.1 0.4,0.2 0.6,0.2c0.4,0 0.8,-0.2 1.1,-0.6c0.3,-0.6 0.2,-1.3 -0.4,-1.7c-2.1,-1.3 -4.2,-2.1 -5.8,-2.7c4.7,-5.7 13.5,-10.1 20.6,-10.1c3.2,0 5.9,0.8 8,2.3c8.2,5.8 7.7,22 1.6,30.7c-0.1,0.1 -0.2,0.2 -0.3,0.4l-0.1,0.1c-0.3,0.4 -0.3,0.9 -0.1,1.3c3.6,6.5 5.5,13.8 5.5,21.1c-0.1,18.4 -9.9,26.4 -34.1,28z" class="st4"/>
   </g>
   <g id="STARS">
    <g id="svg_94">
     <path id="svg_95" d="m458.7,336.2l1.2,-2.1c0.2,-0.3 0.6,-0.3 0.8,0l1.2,2.1c0,0.1 0.1,0.1 0.2,0.2l2.1,1.2c0.3,0.2 0.3,0.6 0,0.8l-2.1,1.2c-0.1,0 -0.1,0.1 -0.2,0.2l-1.2,2.1c-0.2,0.3 -0.6,0.3 -0.8,0l-1.2,-2.1c0,-0.1 -0.1,-0.1 -0.2,-0.2l-2.1,-1.2c-0.3,-0.2 -0.3,-0.6 0,-0.8l2.1,-1.2c0,0 0.1,-0.1 0.2,-0.2z" class="st12"/>
     <path id="svg_96" d="m423,245.3l1.2,-2.1c0.2,-0.3 0.6,-0.3 0.8,0l1.2,2.1c0,0.1 0.1,0.1 0.2,0.2l2.1,1.2c0.3,0.2 0.3,0.6 0,0.8l-2.1,1.2c-0.1,0 -0.1,0.1 -0.2,0.2l-1.2,2.1c-0.2,0.3 -0.6,0.3 -0.8,0l-1.2,-2.1c0,-0.1 -0.1,-0.1 -0.2,-0.2l-2.1,-1.2c-0.3,-0.2 -0.3,-0.6 0,-0.8l2.1,-1.2c0.1,-0.1 0.2,-0.2 0.2,-0.2z" class="st12"/>
     <path id="svg_97" d="m398.9,333.1l0.7,-1.3c0.1,-0.2 0.4,-0.2 0.5,0l0.7,1.3c0,0 0.1,0.1 0.1,0.1l1.3,0.7c0.2,0.1 0.2,0.4 0,0.5l-1.3,0.7c0,0 -0.1,0.1 -0.1,0.1l-0.7,1.3c-0.1,0.2 -0.4,0.2 -0.5,0l-0.7,-1.3c0,0 -0.1,-0.1 -0.1,-0.1l-1.3,-0.7c-0.2,-0.1 -0.2,-0.4 0,-0.5l1.3,-0.7c0,0 0.1,-0.1 0.1,-0.1z" class="st12"/>
     <path id="svg_98" d="m459.6,347.9l0.5,-0.9c0.1,-0.1 0.3,-0.1 0.3,0l0.5,0.9c0,0 0,0.1 0.1,0.1l0.9,0.5c0.1,0.1 0.1,0.3 0,0.3l-0.9,0.5c0,0 -0.1,0 -0.1,0.1l-0.5,0.9c-0.1,0.1 -0.3,0.1 -0.3,0l-0.5,-0.9c0,0 0,-0.1 -0.1,-0.1l-0.9,-0.5c-0.1,-0.1 -0.1,-0.3 0,-0.3l1,-0.6c-0.1,0.1 -0.1,0.1 0,0z" class="st12"/>
     <circle id="svg_99" r="1.4" cy="251.4" cx="438.3" class="st12"/>
     <circle id="svg_100" r="1.4" cy="346.2" cx="408.7" class="st12"/>
     <circle id="svg_101" r="1.1" cy="331.4" cx="467.5" class="st12"/>
     <circle id="svg_102" r="2" cy="341.5" cx="397.1" class="st12"/>
    </g>
   </g>
  </g>
  <g id="penjuine">
   <g id="svg_103">
    <path d="m108.1,332.6c0.1,0.4 0.3,1 0.4,1.4c1.8,0.6 2.7,0.7 5.3,0.7c0.9,0 1.6,-0.3 1.9,-0.7c0.2,-0.2 0.4,-0.6 0.4,-0.6c0,-0.1 -0.9,-0.5 -2.1,-0.6c-2.5,-0.2 -4.8,-0.8 -6.3,-1.4l0.4,1.2z" class="st14" id="wing2"/>
   </g>
   <g id="svg_104">
    <path d="m82.9,332.6c-0.1,0.4 -0.3,1 -0.4,1.4c-1.8,0.6 -2.7,0.7 -5.3,0.7c-0.9,0 -1.6,-0.3 -1.9,-0.7c-0.2,-0.2 -0.4,-0.6 -0.4,-0.6c0,-0.1 0.9,-0.5 2.1,-0.6c2.5,-0.2 4.8,-0.8 6.3,-1.4l-0.4,1.2z" class="st14" id="wing1"/>
   </g>
   <path id="svg_105" d="m106.1,328.2c0,0 9.1,22.9 5,29.1c-4.2,6.2 -9.2,-0.3 -12.1,0c-3.8,0.4 -6.8,0 -6.8,0c-2.9,0 -7.9,6.2 -12.1,0c-4.2,-6.2 5,-29.1 5,-29.1s10,-10.4 21,0z" class="st15"/>
   <path d="m114.8,362.6c0,1.8 -2.6,1.7 -5.8,1.7s-5.8,0 -5.8,-1.7c0,-1.8 2.6,-3.2 5.8,-3.2s5.8,1.4 5.8,3.2z" class="st12" id="leg2"/>
   <path d="m88.5,362.6c0,1.8 -2.6,1.7 -5.8,1.7c-3.2,0 -5.8,0 -5.8,-1.7c0,-1.8 2.6,-3.2 5.8,-3.2c3.2,0 5.8,1.4 5.8,3.2z" class="st12" id="leg1"/>
   <path id="svg_106" d="m113.1,254.9c-3.9,-4.4 -4.7,-8.7 -7,-10c-2.7,1.2 -4.4,2.7 -5.4,4.1c-2.6,-2.8 -4,-5.4 -6,-6.1c-5,3.5 -5.5,7.2 -5.3,9.2c-24.3,2.9 -43.1,22.8 -43.1,46.9c0,26.1 23.3,30 50.5,30s48,-3.9 48,-30c0,-20 -13.2,-37.3 -31.7,-44.1z" class="st15"/>
   <g id="rounded-face">
    <g id="svg_107">
     <path id="svg_108" d="m84.9,327.6c0,0 -48.9,3.2 -37.2,-42.1c0,0 3.7,-13.7 16.6,-12.5c12.9,1.2 19.5,14.5 23.7,25.3c2.6,6.5 10,30.7 -3.1,29.3z" class="st1"/>
     <path id="svg_109" d="m106.1,327.6c0,0 48.9,3.2 37.2,-42.1c0,0 -3.7,-13.7 -16.6,-12.5c-12.9,1.2 -19.5,14.5 -23.7,25.3c-2.5,6.5 -10,30.7 3.1,29.3z" class="st1"/>
     <path id="svg_110" d="m90.9,315.9c0,0 -0.8,5.8 -2.8,12.5c-1.9,6.6 -2.2,16.6 3.3,18c0,0 4.4,1.7 8.4,0c5.3,-2.2 5.3,-11.4 3.3,-18c-1.9,-6.6 -3.2,-12.5 -3.2,-12.5l-9,0z" class="st1"/>
     <g id="svg_111">
      <path id="svg_112" d="m115.3,262.1c-1.5,-3.2 -5.6,-4.5 -8.9,-4.5c-0.1,0 -0.1,0 -0.2,0c-1.1,-0.1 -2.4,-0.1 -3.1,0.6c-0.8,0.8 -0.7,2.1 -0.2,3c1.7,2.8 4.8,4.8 8.1,5.1c1.2,0.1 2.9,0.2 3.8,-0.9c0.7,-0.9 1,-2.2 0.5,-3.3z" class="st1"/>
      <path id="svg_113" d="m118.3,264.3c-1.4,0 -2.4,1.3 -2.5,2.6c0,0.1 0,0.3 0.1,0.4c0.4,2.8 5.3,2.6 5.2,-0.6c-0.1,-1.3 -1.5,-2.3 -2.8,-2.4z" class="st1"/>
     </g>
     <g id="svg_114">
      <path id="svg_115" d="m90.1,331.3c-0.5,0.2 -1.1,0.4 -1.7,0.4c-0.7,0 -1,-1.6 -1.1,-2.1c-0.2,-0.7 -0.2,-1.5 -0.2,-2.2c0,-1.3 0,-1.2 1.2,-1.1c1.6,0.1 3.2,0.7 4.7,1.5c0,0 0,0 0,0.1c0.8,1.8 -1.6,2.9 -2.9,3.4z" class="st16"/>
      <path id="svg_116" d="m96.3,329.9c-0.1,0.3 -0.4,0.6 -0.7,0.6c-0.5,0.1 -0.6,-0.9 -0.6,-1.2c0,-0.6 0.1,-1.2 0.2,-1.8c0.1,-0.2 0,-0.4 0.5,-0.6c1.3,-0.5 0.9,2.3 0.6,3z" class="st16"/>
      <path id="svg_117" d="m104.5,329.6c-0.1,0.5 -0.4,2.2 -1.1,2.1c-0.6,0 -1.1,-0.2 -1.7,-0.4c-1.3,-0.5 -3.7,-1.6 -2.9,-3.5c0,0 0,0 0,-0.1c1.4,-0.8 3,-1.4 4.7,-1.5c1.2,-0.1 1.1,-0.1 1.2,1.1c0,0.9 0,1.6 -0.2,2.3z" class="st16"/>
     </g>
    </g>
    <g id="svg_118">
     <path id="svg_119" d="m132.9,311.7c0,2.4 -1.9,4.3 -4.3,4.3c-2.4,0 -4.3,-1.9 -4.3,-4.3c0,-2.4 1.9,-4.3 4.3,-4.3c2.4,0 4.3,2 4.3,4.3z" class="st3"/>
     <path id="svg_120" d="m66.4,311.7c0,2.4 -1.9,4.3 -4.3,4.3c-2.4,0 -4.3,-1.9 -4.3,-4.3c0,-2.4 1.9,-4.3 4.3,-4.3c2.4,0 4.3,2 4.3,4.3z" class="st3"/>
     <g id="svg_121">
      <path id="svg_122" d="m103.7,309.2c0,2.5 -3.7,2.5 -8.3,2.5c-4.6,0 -8.3,0 -8.3,-2.5s3.7,-4.6 8.3,-4.6c4.6,0.1 8.3,2.1 8.3,4.6z" class="st12"/>
      <path id="svg_123" d="m89.6,313.5c0,-1.8 2.6,-1.7 5.8,-1.7c3.2,0 5.8,0 5.8,1.7c0,1.8 -2.6,3.2 -5.8,3.2c-3.2,0 -5.8,-1.4 -5.8,-3.2z" class="st12"/>
     </g>
    </g>
    <g id="svg_124">
     <g id="svg_125">
      <ellipse id="svg_126" ry="8.9" rx="8.9" cy="298.6" cx="72" class="st4" transform="matrix(0.9155,-0.4024,0.4024,0.9155,-114.068,54.2116) "/>
      <path id="svg_127" d="m76.4,296.1c-0.5,1 -1.4,0.7 -2.4,0.2c-1,-0.5 -1.7,-1.1 -1.2,-2c0.5,-1 1.7,-1.4 2.7,-0.9c1,0.5 1.4,1.7 0.9,2.7z" class="st1"/>
     </g>
     <g id="svg_128">
      <ellipse id="svg_129" ry="8.9" rx="8.9" cy="298.6" cx="118.5" class="st4" transform="matrix(0.2286,-0.9735,0.9735,0.2286,-199.2374,345.7171) "/>
      <path id="svg_130" d="m122.9,296.1c-0.5,1 -1.4,0.7 -2.4,0.2c-1,-0.5 -1.7,-1.1 -1.2,-2c0.5,-1 1.7,-1.4 2.7,-0.9c1,0.5 1.4,1.7 0.9,2.7z" class="st1"/>
     </g>
    </g>
   </g>
  </g>
  <g id="penjuine_copy">
   <g id="svg_131">
    <path d="m736.1,332.6c0.1,0.4 0.3,1 0.4,1.4c1.8,0.6 2.7,0.7 5.3,0.7c0.9,0 1.6,-0.3 1.9,-0.7c0.2,-0.2 0.4,-0.6 0.4,-0.6c0,-0.1 -0.9,-0.5 -2.1,-0.6c-2.5,-0.2 -4.8,-0.8 -6.3,-1.4l0.4,1.2z" class="st14" id="wing2_1_"/>
   </g>
   <g id="svg_132">
    <path d="m710.9,332.6c-0.1,0.4 -0.3,1 -0.4,1.4c-1.8,0.6 -2.7,0.7 -5.3,0.7c-0.9,0 -1.6,-0.3 -1.9,-0.7c-0.2,-0.2 -0.4,-0.6 -0.4,-0.6c0,-0.1 0.9,-0.5 2.1,-0.6c2.5,-0.2 4.8,-0.8 6.3,-1.4l-0.4,1.2z" class="st14" id="wing1_1_"/>
   </g>
   <path id="svg_133" d="m734.1,328.2c0,0 9.1,22.9 5,29.1c-4.2,6.2 -9.2,-0.3 -12.1,0c-3.8,0.4 -6.8,0 -6.8,0c-2.9,0 -7.9,6.2 -12.1,0c-4.2,-6.2 5,-29.1 5,-29.1s10,-10.4 21,0z" class="st15"/>
   <path d="m742.8,362.6c0,1.8 -2.6,1.7 -5.8,1.7s-5.8,0 -5.8,-1.7c0,-1.8 2.6,-3.2 5.8,-3.2s5.8,1.4 5.8,3.2z" class="st12" id="leg2_1_"/>
   <path d="m716.5,362.6c0,1.8 -2.6,1.7 -5.8,1.7c-3.2,0 -5.8,0 -5.8,-1.7c0,-1.8 2.6,-3.2 5.8,-3.2c3.2,0 5.8,1.4 5.8,3.2z" class="st12" id="leg1_1_"/>
   <path id="svg_134" d="m741.1,254.9c-3.9,-4.4 -4.7,-8.7 -7,-10c-2.7,1.2 -4.4,2.7 -5.4,4.1c-2.6,-2.8 -4,-5.4 -6,-6.1c-5,3.5 -5.5,7.2 -5.3,9.2c-24.3,2.9 -43.1,22.8 -43.1,46.9c0,26.1 23.3,30 50.5,30s48,-3.9 48,-30c0,-20 -13.2,-37.3 -31.7,-44.1z" class="st15"/>
   <g id="rounded-face_1_">
    <g id="svg_135">
     <path id="svg_136" d="m712.9,327.6c0,0 -48.9,3.2 -37.2,-42.1c0,0 3.7,-13.7 16.6,-12.5c12.9,1.2 19.5,14.5 23.7,25.3c2.6,6.5 10,30.7 -3.1,29.3z" class="st1"/>
     <path id="svg_137" d="m734.1,327.6c0,0 48.9,3.2 37.2,-42.1c0,0 -3.7,-13.7 -16.6,-12.5c-12.9,1.2 -19.5,14.5 -23.7,25.3c-2.5,6.5 -10,30.7 3.1,29.3z" class="st1"/>
     <path id="svg_138" d="m718.9,315.9c0,0 -0.8,5.8 -2.8,12.5c-1.9,6.6 -2.2,16.6 3.3,18c0,0 4.4,1.7 8.4,0c5.3,-2.2 5.3,-11.4 3.3,-18c-1.9,-6.6 -3.2,-12.5 -3.2,-12.5l-9,0z" class="st1"/>
     <g id="svg_139">
      <path id="svg_140" d="m743.3,262.1c-1.5,-3.2 -5.6,-4.5 -8.9,-4.5c-0.1,0 -0.1,0 -0.2,0c-1.1,-0.1 -2.4,-0.1 -3.1,0.6c-0.8,0.8 -0.7,2.1 -0.2,3c1.7,2.8 4.8,4.8 8.1,5.1c1.2,0.1 2.9,0.2 3.8,-0.9c0.7,-0.9 1,-2.2 0.5,-3.3z" class="st1"/>
      <path id="svg_141" d="m746.3,264.3c-1.4,0 -2.4,1.3 -2.5,2.6c0,0.1 0,0.3 0.1,0.4c0.4,2.8 5.3,2.6 5.2,-0.6c-0.1,-1.3 -1.5,-2.3 -2.8,-2.4z" class="st1"/>
     </g>
     <g id="svg_142">
      <path id="svg_143" d="m718.1,331.3c-0.5,0.2 -1.1,0.4 -1.7,0.4c-0.7,0 -1,-1.6 -1.1,-2.1c-0.2,-0.7 -0.2,-1.5 -0.2,-2.2c0,-1.3 0,-1.2 1.2,-1.1c1.6,0.1 3.2,0.7 4.7,1.5c0,0 0,0 0,0.1c0.8,1.8 -1.6,2.9 -2.9,3.4z" class="st16"/>
      <path id="svg_144" d="m724.3,329.9c-0.1,0.3 -0.4,0.6 -0.7,0.6c-0.5,0.1 -0.6,-0.9 -0.6,-1.2c0,-0.6 0.1,-1.2 0.2,-1.8c0.1,-0.2 0,-0.4 0.5,-0.6c1.3,-0.5 0.9,2.3 0.6,3z" class="st16"/>
      <path id="svg_145" d="m732.5,329.6c-0.1,0.5 -0.4,2.2 -1.1,2.1c-0.6,0 -1.1,-0.2 -1.7,-0.4c-1.3,-0.5 -3.7,-1.6 -2.9,-3.5c0,0 0,0 0,-0.1c1.4,-0.8 3,-1.4 4.7,-1.5c1.2,-0.1 1.1,-0.1 1.2,1.1c0,0.9 0,1.6 -0.2,2.3z" class="st16"/>
     </g>
    </g>
    <g id="svg_146">
     <path id="svg_147" d="m760.9,311.7c0,2.4 -1.9,4.3 -4.3,4.3c-2.4,0 -4.3,-1.9 -4.3,-4.3c0,-2.4 1.9,-4.3 4.3,-4.3c2.4,0 4.3,2 4.3,4.3z" class="st3"/>
     <path id="svg_148" d="m694.4,311.7c0,2.4 -1.9,4.3 -4.3,4.3c-2.4,0 -4.3,-1.9 -4.3,-4.3c0,-2.4 1.9,-4.3 4.3,-4.3c2.4,0 4.3,2 4.3,4.3z" class="st3"/>
     <g id="svg_149">
      <path id="svg_150" d="m731.7,309.2c0,2.5 -3.7,2.5 -8.3,2.5c-4.6,0 -8.3,0 -8.3,-2.5s3.7,-4.6 8.3,-4.6c4.6,0.1 8.3,2.1 8.3,4.6z" class="st12"/>
      <path id="svg_151" d="m717.6,313.5c0,-1.8 2.6,-1.7 5.8,-1.7c3.2,0 5.8,0 5.8,1.7c0,1.8 -2.6,3.2 -5.8,3.2c-3.2,0 -5.8,-1.4 -5.8,-3.2z" class="st12"/>
     </g>
    </g>
    <g id="svg_152">
     <g id="svg_153">
      <ellipse id="svg_154" ry="8.9" rx="8.9" cy="298.6" cx="700" class="st4" transform="matrix(0.9155,-0.4024,0.4024,0.9155,-60.9728,306.9337) "/>
      <path id="svg_155" d="m704.4,296.1c-0.5,1 -1.4,0.7 -2.4,0.2s-1.7,-1.1 -1.2,-2c0.5,-1 1.7,-1.4 2.7,-0.9c1,0.5 1.4,1.7 0.9,2.7z" class="st1"/>
     </g>
     <g id="svg_156">
      <ellipse id="svg_157" ry="8.9" rx="8.9" cy="298.6" cx="746.5" class="st4" transform="matrix(0.2286,-0.9735,0.9735,0.2286,285.2174,957.0916) "/>
      <path id="svg_158" d="m750.9,296.1c-0.5,1 -1.4,0.7 -2.4,0.2c-1,-0.5 -1.7,-1.1 -1.2,-2c0.5,-1 1.7,-1.4 2.7,-0.9s1.4,1.7 0.9,2.7z" class="st1"/>
     </g>
    </g>
   </g>
  </g>
 </g>
</svg>