<svg width="800" height="450" xmlns="http://www.w3.org/2000/svg">
 <g>
  <title>background</title>
  <rect fill="#fff" id="canvas_background" height="502" width="890.88889" y="-1" x="-1"/>
 </g>

 <style type="text/css">.st0{fill:#FFFF00;}
	.st1{fill:#FFFFFF;}
	.st2{fill:#E0E0E0;}
	.st3{fill:#EFEFEF;}
	.st4{fill:#595959;}
	.st5{fill:#911919;}
	.st6{fill:#F2E000;}
	.st7{fill:#CEBB09;}
	.st8{fill:#DBC607;}
	.st9{fill:#FF9FDD;}
	.st10{fill:none;stroke:#FFFFFF;stroke-miterlimit:10;}
	.st11{fill:#D11535;}
	.st12{fill:#931228;}
	.st13{fill:#3FCCFC;}
	.st14{fill:#29AACC;}
	.st15{fill:#EAD906;}
	.st16{fill:#442020;}
	.st17{fill:#F9F9F9;}
	.st18{fill:#BA2D2D;}
	.st19{fill:#15729B;}
	.st20{fill:#CC4F11;}
	.st21{fill:#512414;}
	.st22{fill:#E2A476;}
	.st23{fill:#EAEAEA;}
	.st24{fill:#161616;}
	.st25{fill:#191919;}
	.st26{fill:#757575;}
	.st27{fill:#261D17;}
	.st28{fill:#B70808;}
	.st29{fill:#A30A0A;}
	.st30{fill:#F4BD90;}
	.st31{fill:#4C1E1E;}
	.st32{fill:#232323;}
	.st33{fill:#E5A373;}
	.st34{fill:#DD9F72;}
	.st35{fill:#1E1D1D;}
	.st36{fill:#BC0F34;}
	.st37{fill:#93278F;}
	.st38{fill:#C1163B;}
	.st39{fill:#E8CE0C;}
    #roger{
    animation : hide 9s ease-in-out infinite
    }
    @keyframes hide{
    0%,39%{
    visibility : visible;
    transform : translateY(0px)
    }
    40%,45%%{
    transform : translateY(200px);
    visibility : hidden
    }
    46%,100%{
    visibility : hidden;
    transform : translateY(200px)
    }
    }
    #cover{
    animation : fade55  9s ease-in-out infinite
    }
    @keyframes fade55{
    0%,35%{
    visibility : hidden
    }
    36%,80%{
    visibility : visible
    }
    81%,100%{
    visibility : hidden
    }
    }
    #advertise_copy{
    animation : fadeSlider 9s ease-in-out infinite
    }
    @keyframes fadeSlider{
    0%,35%{
     visibility : hidden
    }
    40%,70%{
    visibility : visible
    }
    71%,100%{
    visibility : hidden
    }
    }
    #jumbing-roger{
    animation : slide 9s ease-in-out infinite
    }
    @keyframes slide{
     0%,54%{
    visibility : hidden
    }
    55%,60%{
    visibility : visible
    }
    61%,70%{
    visibility : visible;

    }
    71%,100%{
    visibility : hidden
    }
    }
    #eye-open{
    animation : blinkRoger 9s ease-in-out infinite
    }
    @keyframes blinkRoger{
    0%,54%{
    visibility : hidden
    }
    55%,60%{
    visibility : visible
    }
    61%,100%{
    visibility : hidden
    }
    }
   #split{
    animation : rogerAnimate 9s ease-in-out infinite
    }
    @keyframes rogerAnimate{
    0%,71%{
    visibility : hidden;
    transform : translateX(0)
    }
    72%,80%{
    visibility : visible;
    transform : translateX(0)
    }
    90%,100%{
    visibility : visible;
    transform : translateX(-720px)
    }
    }
    #hidden-arm{
    display : none
    }
    #Left-arm1{
    animation : robert-arm1 9s ease-in-out infinite
    }
    @keyframes robert-arm1{
    0% ,30%{
    visibility : visible
    }
    31%,55%{
    visibility : hidden
    }
    56%,100%{
    visibility : visible
    }
    }
    #Left-arm2{
    animation : robert-arm2 9s ease-in-out infinite
    }
    @keyframes robert-arm2{
    0% ,30%{
    visibility : hidden
    }
    31%,55%{
    visibility : visible
    }
    56%,100%{
    visibility : hidden
    }
    }
    #majic{
    animation : bright  9s ease-in-out infinite
    }
    @keyframes bright{
    0%,35%{
    visibility : hidden
    }
    40%,45%{
    visibility : visible
    }
    50%,100%{
    visibility : hidden
    }
    }
    #eyes-albert-opened{
    animation : albertBlink 9s ease-in-out infinite
    }
    @keyframes albertBlink{
    0%,20%{
    visibility : visible
    }
    25%,30%{
    visibility : hidden
    }
    35%,60%{
    visibility : visible
    }
    65%,70%{
    visibility : hidden
    }
    75%,100%{
    visibility : visible
    }
    }
    #eye-brows{
    animation : wonder 9s ease-in-out infinite
    }
    @keyframes wonder{
    0%,70%{
    transform : translateY(0)
    }
    75%,100%{
    transform : translateY(-5px)
    }
    }</style>
 <g>
  <title>Layer 1</title>
  <g id="BG">
   <rect x="-5.4" y="-47.1" width="829.9" height="544.2" id="svg_1"/>
  </g>
  <g id="majic">
   <polygon class="st0" points="354.3,19.1 346.2,17 339.9,23 339.3,14.1 332,9.6 339.8,6.2 341.5,-2.6 347,4.2 355.3,3.3 350.9,10.9     " id="svg_2"/>
   <polygon class="st0" points="390.2,41.7 381.9,40.9 376.6,47.8 374.7,39.1 367,35.8 374.1,31.2 374.7,22.4 381,28.2 389.1,26    385.8,34.2  " id="svg_3"/>
   <polygon class="st0" points="330.9,48.8 323.5,47.4 318.2,53.2 317.1,45.2 310.4,41.7 317.1,38.1 318.2,30.2 323.5,35.9    330.9,34.6 327.4,41.7  " id="svg_4"/>
  </g>
  <g id="roger">
   <g id="CABEZA">
    <g id="svg_5">
     <g id="svg_6">
      <path class="st1" d="m451.4,215.2c-0.2,1.8 0.1,-0.6 0,0l0,0z" id="svg_7"/>
      <path class="st1" d="m449.7,208c-0.8,-1.1 -1.8,-2.2 -3,-3.3c-0.5,-0.4 2.9,-3.6 2.9,-3.8c-0.1,-0.6 -5.4,1.9 -6,1.5c-1.2,-0.8 -2.5,-1.5 -4,-2.1c-1.7,-0.8 11.7,-8.9 9.7,-9.6c-1.6,-0.5 -13.5,3.9 -19.1,5.2c0.2,-3.3 0,-7.9 -0.6,-13.2c-2,-18.4 -8,-44.8 -10.4,-49.5c-3.2,-6.1 -17.5,-9.8 -28.6,0c-2.9,2.6 -5.5,12.9 -6.6,24.9c-0.8,8.4 -0.7,17.7 0.5,25.5c0.9,5.9 -0.9,10.9 -0.7,13.5c-0.2,0 -0.3,0.1 -0.5,0.1c-1.6,0.4 -10.2,-7.1 -11.7,-6.5c-1.3,0.5 4.6,9 3.4,9.5c-3.1,1.4 -6.1,1.4 -8.1,3.2c-1.1,1 -13.1,1.3 -13.8,2.4c-0.7,1.1 10.4,4.6 10.1,5.7c-0.1,0.6 -0.2,1.2 -0.2,1.7c0,0.4 -0.4,-0.7 -0.4,-0.3c0,0.3 -8.9,2.4 -8.8,2.7c0.1,0.6 10.2,1.6 10.4,2.1c0.4,1 0.6,1 1.3,1.9c1,1.2 -10.4,7.6 -8.6,7.4c0.8,-0.1 6.5,-0.2 11.9,0.5c0.8,0.1 5.3,3.2 6,3.7c1.8,1.3 6.1,2.8 7.4,3c7,1.3 12.2,1.6 25.5,1.6c13.3,0 24.8,-6 32.9,-10c1.5,-0.7 6.5,1.5 7.7,0.7c1.2,-0.8 -1.3,-4.7 -0.4,-5.7c1.8,-1.8 3,-3.8 3.5,-5.9c0.2,-1.8 7.4,-0.2 7.3,-0.8c-0.3,-1 -8.2,-4.9 -9,-6.1z" id="svg_8"/>
     </g>
     <path class="st2" d="m375.9,214.1c1.1,-0.4 2.2,-0.9 3.2,-1.5c1,-0.6 1.9,-1.4 2.5,-2.3c0.4,-0.5 0.6,-1 0.9,-1.5c0.3,-0.5 0.4,-1.1 0.6,-1.7c0.3,-1.2 0.5,-2.4 0.6,-3.7c0.3,1.2 0.4,2.6 0.1,3.8c-0.2,1.3 -0.7,2.6 -1.5,3.6c-0.8,1 -1.8,1.9 -2.9,2.4c-1.1,0.6 -2.3,0.9 -3.5,0.9z" id="svg_9"/>
     <path class="st3" d="m441.8,211.8c-1.2,0 -2.4,-0.3 -3.5,-0.8c-1.1,-0.5 -2.1,-1.4 -2.9,-2.4c-0.8,-1 -1.3,-2.3 -1.5,-3.6c-0.2,-1.3 -0.2,-2.6 0.1,-3.8c0.1,1.3 0.2,2.5 0.6,3.7c0.2,0.6 0.4,1.1 0.6,1.7c0.3,0.5 0.5,1 0.9,1.5c0.7,0.9 1.6,1.7 2.5,2.3c1,0.5 2.1,1 3.2,1.4z" id="svg_10"/>
     <path class="st4" d="m383.8,200.1c3.8,-0.7 7.7,-1.2 11.6,-1.6c3.9,-0.4 7.7,-0.7 11.6,-1c3.9,-0.2 7.8,-0.3 11.7,-0.2l2.9,0.1l2.9,0.3c1,0.1 1.9,0.3 2.9,0.4c1,0.2 1.9,0.5 2.8,0.7l-1.4,-0.2c-0.5,-0.1 -1,-0.2 -1.4,-0.2c-1,-0.1 -1.9,-0.2 -2.9,-0.2l-2.9,-0.1l-2.9,0c-0.5,0 -1,0 -1.5,0l-1.5,0c-1,0 -1.9,0 -2.9,0.1l-2.9,0.1l-2.9,0.1c-3.9,0.2 -7.7,0.5 -11.6,0.7l-11.6,1z" id="svg_11"/>
     <ellipse class="st5" cx="409.5" cy="202.3" rx="10.7" ry="6.4" id="svg_12"/>
     <path d="m380.5,206.5c-2.6,-1.2 -5.2,-2.5 -7.8,-3.8c-2.6,-1.3 -5.1,-2.7 -7.7,-4c-2.5,-1.4 -5.1,-2.8 -7.6,-4.2c-2.5,-1.4 -5,-2.9 -7.5,-4.5c2.6,1.2 5.2,2.5 7.8,3.8c2.6,1.3 5.1,2.7 7.7,4c2.5,1.4 5.1,2.8 7.6,4.2c2.6,1.4 5.1,2.9 7.5,4.5z" id="svg_13"/>
     <path d="m378.1,211.7c-3,-0.4 -6,-0.8 -8.9,-1.3c-3,-0.5 -5.9,-1 -8.9,-1.6c-2.9,-0.6 -5.9,-1.2 -8.8,-1.8c-2.9,-0.6 -5.9,-1.3 -8.8,-2.1c3,0.4 6,0.8 8.9,1.3c3,0.5 5.9,1 8.9,1.6c2.9,0.6 5.9,1.2 8.8,1.8c3,0.7 5.9,1.4 8.8,2.1z" id="svg_14"/>
     <path d="m378.7,218.9c-2.9,0.2 -5.8,0.3 -8.8,0.4c-2.9,0.1 -5.8,0.1 -8.8,0.1c-2.9,0 -5.8,0 -8.8,-0.1c-2.9,-0.1 -5.8,-0.2 -8.8,-0.4c2.9,-0.2 5.8,-0.3 8.8,-0.4c2.9,-0.1 5.8,-0.1 8.8,-0.1c2.9,0 5.8,0 8.8,0.1c3,0.1 5.9,0.2 8.8,0.4z" id="svg_15"/>
     <path d="m439.7,204.7c2.5,-1.5 4.9,-3 7.5,-4.5c2.5,-1.5 5,-2.8 7.6,-4.2c2.5,-1.4 5.1,-2.7 7.7,-4c2.6,-1.3 5.2,-2.6 7.8,-3.8c-2.5,1.5 -4.9,3 -7.5,4.5c-2.5,1.5 -5,2.8 -7.6,4.2c-2.5,1.4 -5.1,2.7 -7.7,4c-2.6,1.3 -5.1,2.6 -7.8,3.8z" id="svg_16"/>
     <path d="m442.2,210c2.9,-0.7 5.9,-1.4 8.8,-2.1c2.9,-0.6 5.9,-1.2 8.8,-1.8c3,-0.6 5.9,-1.1 8.9,-1.6c3,-0.5 5.9,-0.9 8.9,-1.3c-2.9,0.7 -5.9,1.4 -8.8,2.1c-2.9,0.6 -5.9,1.2 -8.8,1.8c-3,0.6 -5.9,1.1 -8.9,1.6c-3,0.4 -6,0.9 -8.9,1.3z" id="svg_17"/>
     <path d="m441.6,217.2c2.9,-0.2 5.8,-0.3 8.8,-0.4c2.9,-0.1 5.8,-0.1 8.8,-0.1c2.9,0 5.8,0 8.8,0.1c2.9,0.1 5.8,0.2 8.8,0.4c-2.9,0.2 -5.8,0.3 -8.8,0.4c-2.9,0.1 -5.8,0.1 -8.8,0.1c-2.9,0 -5.8,0 -8.8,-0.1c-3,-0.1 -5.9,-0.2 -8.8,-0.4z" id="svg_18"/>
    </g>
   </g>
   <g id="BRAZO_IZQ">
    <g id="svg_19">
     <polygon class="st1" points="451.8,299 463.1,245.7 460.4,246.2 458.8,241.6 456,244.6 428.7,234.5 425.9,247.2 451,253.9      443.9,292.2    " id="svg_20"/>
     <g id="svg_21">
      <ellipse transform="matrix(0.442,-0.897,0.897,0.442,-12.3572,566.0836) " class="st6" cx="448.8" cy="293" rx="3.6" ry="8.8" id="svg_22"/>
      <path class="st7" d="m456.8,296.8c-0.2,0.4 -0.5,0.7 -0.9,0.9c-0.4,0.2 -0.8,0.3 -1.2,0.3c-0.8,0.1 -1.7,0 -2.5,-0.1c-1.7,-0.3 -3.3,-0.8 -4.8,-1.5c-1.5,-0.7 -3,-1.6 -4.3,-2.7c-0.7,-0.6 -1.3,-1.2 -1.8,-1.9c-0.2,-0.4 -0.5,-0.8 -0.6,-1.2c-0.1,-0.5 -0.2,-1 0,-1.5c0.2,-0.5 0.6,-0.8 1,-1c0.4,-0.2 0.8,-0.3 1.3,-0.3c0.9,-0.1 1.7,0 2.5,0.1c1.7,0.3 3.3,0.9 4.8,1.7c1.5,0.8 2.9,1.7 4.2,2.8c0.6,0.6 1.2,1.2 1.7,1.9c0.2,0.4 0.5,0.8 0.6,1.2c0.1,0.4 0.2,0.9 0,1.3zm0,0c0.2,-0.4 0.1,-0.9 0,-1.3c-0.1,-0.4 -0.3,-0.8 -0.6,-1.2c-0.5,-0.7 -1.1,-1.3 -1.7,-1.9c-1.3,-1.1 -2.8,-2 -4.3,-2.7c-1.5,-0.7 -3.1,-1.2 -4.7,-1.5c-0.8,-0.1 -1.6,-0.2 -2.4,-0.1c-0.8,0.1 -1.6,0.4 -1.9,1.1c-0.3,0.7 0.1,1.6 0.5,2.2c0.5,0.7 1,1.3 1.7,1.9c1.3,1.1 2.7,2 4.2,2.8c1.5,0.7 3.1,1.3 4.7,1.7c0.8,0.1 1.7,0.2 2.5,0.1c0.4,-0.1 0.8,-0.1 1.2,-0.3c0.3,-0.1 0.6,-0.4 0.8,-0.8z" id="svg_23"/>
     </g>
     <g id="svg_24">
      <g id="svg_25">
       <ellipse transform="matrix(0.4579,-0.889,0.889,0.4579,-22.2022,577.369) " class="st8" cx="462.3" cy="306.9" rx="6.9" ry="3.6" id="svg_26"/>
       <path class="st7" d="m460.1,313.3c-0.4,0 -0.8,-0.1 -1.1,-0.3c-1.7,-1.1 -1.6,-4.6 0.2,-8c1.8,-3.4 4.7,-5.2 6.4,-4.2c0.8,0.5 1.3,1.6 1.2,3.1c0,1.5 -0.5,3.2 -1.4,4.8l0,0c-1.4,2.8 -3.6,4.6 -5.3,4.6zm4.5,-12.7c-1.6,0 -3.8,1.7 -5.2,4.4c-1.8,3.3 -1.9,6.8 -0.2,7.8c1.7,1 4.5,-0.8 6.2,-4.1l0,0c0.9,-1.6 1.4,-3.3 1.4,-4.8c0,-1.5 -0.4,-2.5 -1.2,-3c-0.3,-0.2 -0.7,-0.3 -1,-0.3z" id="svg_27"/>
      </g>
      <g id="svg_28">
       <ellipse transform="matrix(0.4579,-0.889,0.889,0.4579,-23.6057,571.9812) " class="st8" cx="457.2" cy="305.3" rx="6.9" ry="3.6" id="svg_29"/>
       <path class="st7" d="m455,311.7c-0.4,0 -0.8,-0.1 -1.1,-0.3c-1.7,-1.1 -1.6,-4.6 0.2,-8c0.9,-1.6 2,-2.9 3.2,-3.7c1.2,-0.8 2.3,-1 3.2,-0.4c0.8,0.5 1.3,1.6 1.2,3.1c0,1.5 -0.5,3.2 -1.4,4.8l0,0c-0.9,1.6 -2,2.9 -3.2,3.7c-0.7,0.6 -1.4,0.8 -2.1,0.8zm4.4,-12.6c-0.6,0 -1.3,0.2 -2,0.7c-1.2,0.8 -2.3,2.1 -3.2,3.7c-1.8,3.3 -1.9,6.8 -0.2,7.8c0.8,0.5 1.9,0.3 3.1,-0.4c1.2,-0.8 2.3,-2.1 3.2,-3.7l0,0c0.9,-1.6 1.4,-3.3 1.4,-4.8c0,-1.5 -0.4,-2.5 -1.2,-3c-0.3,-0.2 -0.7,-0.3 -1.1,-0.3z" id="svg_30"/>
      </g>
     </g>
     <path class="st6" d="m442.2,291.1c0,0 13.2,1.8 16,13.6c2.7,11.8 7.6,-0.2 8.7,-1.9s5.5,-1.6 4.1,3.5c-1.4,5.1 -7.5,16.8 -12.4,13.5c-4.8,-3.2 -26.8,-15.7 -16.4,-28.7z" id="svg_31"/>
     <g id="svg_32">
      <path class="st6" d="m440.2,294.5c0,0 0.4,-8.6 12.7,1.5c4.9,4.3 4.6,6.7 4.6,6.7" id="svg_33"/>
      <path class="st7" d="m440.2,294.5c0,-0.5 0.1,-1.1 0.3,-1.5c0.2,-0.5 0.5,-0.9 0.9,-1.3c0.8,-0.7 1.9,-0.8 2.9,-0.7c1,0.1 2,0.5 2.9,0.9c0.9,0.4 1.8,1 2.6,1.5c0.8,0.6 1.7,1.2 2.4,1.8c0.8,0.6 1.6,1.3 2.3,2.1c0.7,0.8 1.4,1.5 1.9,2.4c0.3,0.4 0.5,0.9 0.7,1.4c0.2,0.5 0.4,1 0.3,1.5c0,-0.5 -0.2,-1 -0.4,-1.5c-0.2,-0.5 -0.5,-0.9 -0.8,-1.3c-0.6,-0.8 -1.3,-1.6 -2,-2.3c-1.4,-1.4 -3.1,-2.6 -4.7,-3.7c-1.7,-1.1 -3.4,-2.1 -5.3,-2.5c-0.9,-0.2 -2,-0.1 -2.7,0.5c-0.7,0.7 -1.2,1.7 -1.3,2.7z" id="svg_34"/>
     </g>
    </g>
   </g>
   <g id="BRAZO_DERE">
    <g id="svg_35">
     <polygon class="st1" points="334.1,234.7 368.7,276.9 369,281.9 371.2,280 374.4,282.4 375.4,276.5 380.6,278.4 381.1,272.2      396.5,258.8 395.9,236.7 372,265 345.2,231.5    " id="svg_36"/>
     <g id="svg_37">
      <ellipse transform="matrix(0.784,-0.6208,0.6208,0.784,-72.6933,263.1942) " class="st6" cx="341.8" cy="236.1" rx="15.5" ry="5.2" id="svg_38"/>
      <path class="st6" d="m333,241.3c0,0 -33,-21.8 -31,-39.2c2,-17.4 15.4,12.3 15.4,12.3s-14.6,-24.9 -7.7,-26.9c6.9,-2 17.8,20.9 17.8,20.9s-15,-24.8 -8.1,-26.2s15.8,22.6 15.8,22.6s-1.4,-9.8 6.6,-11.1c8,-1.3 5.6,24.4 5.6,24.4l0.3,12.4l-14.7,10.8z" id="svg_39"/>
     </g>
     <path class="st7" d="m323.8,227.3c0.8,-1.5 1.8,-2.9 2.9,-4.2c1.1,-1.3 2.3,-2.5 3.6,-3.5c1.3,-1 2.8,-1.9 4.4,-2.3c0.8,-0.2 1.7,-0.3 2.5,-0.1c0.8,0.1 1.6,0.4 2.3,0.9c-1.5,-0.6 -3.1,-0.5 -4.6,0c-1.5,0.5 -2.8,1.4 -4.1,2.4c-0.6,0.5 -1.3,1 -1.9,1.6c-0.6,0.5 -1.2,1.1 -1.8,1.7c-1.1,1 -2.2,2.2 -3.3,3.5z" id="svg_40"/>
     <path class="st7" d="m311,202.7c1.1,1.4 2.1,2.8 3.1,4.3c1,1.5 2,3 2.9,4.5c0.9,1.5 1.9,3 2.8,4.6c0.9,1.5 1.8,3.1 2.5,4.7c-1.1,-1.4 -2.1,-2.8 -3.1,-4.3c-1,-1.5 -2,-3 -2.9,-4.5c-0.9,-1.5 -1.9,-3 -2.8,-4.6c-0.8,-1.6 -1.7,-3.1 -2.5,-4.7z" id="svg_41"/>
     <path class="st7" d="m321.2,196.6c0.9,1.3 1.8,2.6 2.6,4c0.8,1.4 1.6,2.7 2.4,4.1c0.8,1.4 1.5,2.8 2.2,4.3c0.7,1.4 1.4,2.9 2,4.4c-0.9,-1.3 -1.8,-2.6 -2.6,-4c-0.8,-1.4 -1.6,-2.7 -2.4,-4.1c-0.8,-1.4 -1.5,-2.8 -2.2,-4.3c-0.7,-1.5 -1.4,-2.9 -2,-4.4z" id="svg_42"/>
     <path class="st7" d="m335.3,204.9c0,0.4 0,0.9 0.1,1.3c0.1,0.4 0.2,0.8 0.3,1.2c0.2,0.8 0.5,1.6 0.8,2.4c0.3,0.8 0.7,1.5 1,2.3c0.2,0.4 0.4,0.8 0.6,1.1c0.2,0.4 0.4,0.8 0.5,1.2c-0.3,-0.3 -0.6,-0.6 -0.9,-0.9c-0.3,-0.3 -0.5,-0.7 -0.8,-1c-0.5,-0.7 -0.9,-1.5 -1.2,-2.3c-0.3,-0.8 -0.6,-1.7 -0.7,-2.6c0,-0.2 0,-0.5 0,-0.7c0,-0.2 0,-0.5 0,-0.7c0,-0.4 0,-0.9 0.3,-1.3z" id="svg_43"/>
     <path class="st7" d="m331.1,239.9c1.7,-0.7 3.4,-1.5 5.1,-2.3c1.7,-0.8 3.3,-1.7 4.9,-2.7c0.8,-0.5 1.5,-1 2.3,-1.6c0.7,-0.5 1.4,-1.2 2.1,-1.8c1.3,-1.3 2.3,-3 2.4,-5c0.1,1 0,2 -0.4,2.9c-0.4,0.9 -0.9,1.8 -1.5,2.5c-1.3,1.5 -2.8,2.7 -4.4,3.7c-0.8,0.5 -1.6,1 -2.5,1.4c-0.8,0.4 -1.7,0.8 -2.6,1.1c-1.8,0.8 -3.6,1.4 -5.4,1.8z" id="svg_44"/>
    </g>
   </g>
   <g id="OREJA_DERE">
    <g id="svg_45">
     <path class="st9" d="m469.2,160.2c0,0 -20.1,-40.5 -26.5,-37.9c-6.4,2.6 -19.7,26 -19.7,26l0,-17.4c0,0 1.5,-28.6 22.8,-22.8s36.2,51.1 23.4,52.1z" id="svg_46"/>
     <path class="st1" d="m417.7,145.8c0,0 0.2,-70.9 47.3,-44.6s14.5,66 3.7,58.1c-3.7,-2.7 3.7,-38.2 -23.1,-42.7c-13.8,-2.3 -22.8,35.5 -22.8,35.5l-5.1,-6.3z" id="svg_47"/>
    </g>
   </g>
   <g id="OREJA_IZQ">
    <path class="st10" d="m384,210.5" id="svg_48"/>
    <g id="svg_49">
     <path class="st9" d="m339.1,157.2c0,0 20.1,-40.5 26.5,-37.9s19.7,26 19.7,26l0,-17.4c0,0 -1.5,-28.6 -22.8,-22.8s-36.2,51.1 -23.4,52.1z" id="svg_50"/>
     <path class="st1" d="m390.7,142.8c0,0 -0.2,-70.9 -47.3,-44.6s-14.5,66 -3.7,58.1c3.7,-2.7 -3.7,-38.2 23.1,-42.7c13.8,-2.3 22.8,35.5 22.8,35.5l5.1,-6.3z" id="svg_51"/>
    </g>
   </g>
   <g id="PIE_DERE">
    <g id="svg_52">
     <path class="st1" d="m459.7,338.5c0,0 53.1,30.5 51.6,37.1s-79,2 -79,2s-14.3,-18.4 -4,-23.8c10.3,-5.5 31.4,-15.3 31.4,-15.3z" id="svg_53"/>
     <path d="m475.1,367.2c1.3,0.6 2.6,1.4 3.8,2.1c1.2,0.8 2.4,1.6 3.6,2.6c1.1,1 2.3,2 3.1,3.2c0.2,0.3 0.4,0.7 0.6,1c0.1,0.2 0.1,0.4 0.2,0.6c0,0.2 0.1,0.4 0.1,0.6c0,0.2 0,0.4 -0.1,0.6c0,0.2 -0.2,0.4 -0.3,0.5c-0.1,0.2 -0.3,0.3 -0.4,0.4l-0.5,0.3l0.4,-0.4c0.1,-0.1 0.2,-0.3 0.3,-0.4c0.1,-0.2 0.2,-0.3 0.2,-0.5c0.1,-0.2 0.1,-0.4 0,-0.5c0,-0.7 -0.4,-1.4 -0.9,-2c-0.4,-0.6 -0.9,-1.1 -1.5,-1.6c-0.5,-0.5 -1.1,-1 -1.6,-1.4c-1.1,-0.9 -2.3,-1.8 -3.5,-2.6c-0.6,-0.4 -1.2,-0.8 -1.8,-1.2c-0.5,-0.5 -1.1,-0.8 -1.7,-1.3z" id="svg_54"/>
     <path d="m489.6,365.3c1.4,0.7 2.8,1.5 4.1,2.4c1.3,0.9 2.6,1.9 3.8,3c1.2,1.1 2.3,2.3 3.1,3.9c0.4,0.8 0.6,1.6 0.5,2.5c-0.1,0.9 -0.6,1.6 -1.2,2.1c0.5,-0.6 1,-1.3 1,-2.2c0,-0.8 -0.2,-1.6 -0.6,-2.3c-0.8,-1.4 -1.9,-2.6 -3.1,-3.7c-1.2,-1.1 -2.4,-2.1 -3.7,-3c-0.6,-0.5 -1.3,-0.9 -2,-1.4c-0.6,-0.4 -1.3,-0.9 -1.9,-1.3z" id="svg_55"/>
    </g>
   </g>
   <g id="PIE_IZQ">
    <g id="svg_56">
     <path class="st1" d="m371,338.5c0,0 -53.1,30.5 -51.6,37.1c1.6,6.6 79,2 79,2s14.3,-18.4 4,-23.8c-10.3,-5.5 -31.4,-15.3 -31.4,-15.3z" id="svg_57"/>
     <path d="m354.8,366.6c-0.6,0.4 -1.2,0.8 -1.8,1.2c-0.6,0.4 -1.2,0.8 -1.8,1.2c-1.2,0.8 -2.4,1.7 -3.5,2.6c-0.6,0.5 -1.1,0.9 -1.6,1.4c-0.5,0.5 -1,1 -1.5,1.6c-0.4,0.6 -0.8,1.2 -0.9,2c0,0.2 0,0.4 0,0.5c0,0.2 0.1,0.3 0.2,0.5c0.1,0.2 0.2,0.3 0.3,0.4l0.4,0.4l-0.5,-0.3c-0.1,-0.1 -0.3,-0.3 -0.4,-0.4c-0.1,-0.2 -0.2,-0.3 -0.3,-0.5c-0.1,-0.2 -0.1,-0.4 -0.1,-0.6c0,-0.2 0,-0.4 0.1,-0.6c0.1,-0.2 0.1,-0.4 0.2,-0.6c0.1,-0.4 0.3,-0.7 0.6,-1c0.9,-1.3 2,-2.3 3.1,-3.2c1.1,-0.9 2.4,-1.8 3.6,-2.6c1.3,-0.6 2.6,-1.3 3.9,-2z" id="svg_58"/>
     <path d="m340.3,364.7c-0.7,0.4 -1.3,0.9 -2,1.3c-0.7,0.5 -1.3,0.9 -2,1.4c-1.3,1 -2.5,1.9 -3.7,3c-1.2,1.1 -2.3,2.3 -3.1,3.7c-0.4,0.7 -0.7,1.5 -0.6,2.3c0,0.8 0.4,1.6 1,2.2c-0.6,-0.5 -1.1,-1.3 -1.2,-2.1c-0.1,-0.9 0.2,-1.7 0.5,-2.5c0.8,-1.5 1.9,-2.7 3.1,-3.9c1.2,-1.1 2.5,-2.1 3.8,-3c1.4,-0.9 2.8,-1.7 4.2,-2.4z" id="svg_59"/>
    </g>
   </g>
   <g id="CUERPO">
    <path class="st1" d="m396.2,246c-5.3,17.2 0.3,94.8 0.3,94.8l32.8,-28l-2.3,-80.2c0,0 -25.6,-3.8 -30.8,13.4z" id="svg_60"/>
    <g id="svg_61">
     <path class="st11" d="m366.9,340c0,0 0.8,-17 16,-30.9c5.7,-5.2 6.3,-15.6 8.8,-26.9c1.2,-5.3 2.9,-12.6 3.6,-17.7c1.8,-13 4.7,-22.1 4.7,-22.1l23.9,-2.1c0,0 5.1,50 13.7,59.8s34.1,41.7 23.9,46.5c-10.2,4.9 -32.4,18.5 -45.5,17.6c-20.2,-1.3 -49.1,-24.2 -49.1,-24.2z" id="svg_62"/>
     <g id="svg_63">
      <g id="svg_64">
       <path class="st12" d="m403.8,251.9c0,0 -13.6,40.9 -5.4,41.7c8.2,0.7 12.6,-40.5 12.2,-41.7c-0.4,-1.1 -6.8,0 -6.8,0z" id="svg_65"/>
       <path class="st12" d="m421.2,251.9c0,0 13.6,40.9 5.4,41.7c-8.2,0.7 -12.6,-40.5 -12.2,-41.7c0.4,-1.1 6.8,0 6.8,0z" id="svg_66"/>
       <path class="st13" d="m413.5,246.8c-0.3,-1.3 -1.2,-2.4 -2.5,-3.1c1,-1 1.6,-2.1 1.6,-3.4c0,-3.4 -4.4,-6.2 -9.9,-6.2c-5.5,0 -9.9,2.8 -9.9,6.2c0,2.1 1.7,3.9 4.2,5c-2.1,1.6 -3.3,3.7 -2.9,5.7c0.6,3.3 5.5,5.1 10.8,3.9c5.4,-1.1 9.2,-4.8 8.6,-8.1z" id="svg_67"/>
       <path class="st13" d="m412,247.2c0.1,-1.3 0.8,-2.5 2,-3.5c-1.2,-0.8 -1.9,-1.8 -2.1,-3.1c-0.5,-3.4 3.4,-6.8 8.8,-7.8c5.4,-0.9 10.2,1 10.7,4.4c0.3,2.1 -1.1,4.2 -3.4,5.7c2.4,1.2 3.8,3.1 3.8,5.1c-0.1,3.4 -4.7,6 -10.1,5.7c-5.5,-0.1 -9.8,-3.1 -9.7,-6.5z" id="svg_68"/>
       <ellipse class="st14" cx="412.4" cy="244.4" rx="5.7" ry="7" id="svg_69"/>
       <ellipse class="st15" cx="401.2" cy="240.3" rx="2.7" ry="2.9" id="svg_70"/>
       <ellipse class="st15" cx="403.2" cy="247.6" rx="2.7" ry="2.9" id="svg_71"/>
       <ellipse class="st15" cx="422.4" cy="238.6" rx="2.7" ry="2.9" id="svg_72"/>
       <ellipse class="st15" cx="423.7" cy="247.6" rx="2.7" ry="2.9" id="svg_73"/>
      </g>
      <ellipse class="st15" cx="400.9" cy="279.3" rx="2.7" ry="2.9" id="svg_74"/>
      <ellipse class="st15" cx="423.4" cy="279.3" rx="2.7" ry="2.9" id="svg_75"/>
     </g>
     <path class="st12" d="m368.9,339.2c0,0 -7,4.4 -5.1,6.5c2,2.1 38.3,23.7 49.5,21c11.2,-2.7 -3.4,-9 -3.4,-9s-31.4,-17.9 -41,-18.5z" id="svg_76"/>
     <path class="st12" d="m464.3,339.2c0,0 7.3,4.7 5.2,6.9c-2.1,2.2 -35.4,24.5 -47,21.5c-11.6,-2.9 -8.9,-7.2 -8.9,-7.2s40.7,-20.5 50.7,-21.2z" id="svg_77"/>
     <path class="st12" d="m414.8,364.3c-0.4,-3 -0.6,-5.9 -0.8,-8.9c-0.2,-3 -0.3,-5.9 -0.3,-8.9c-0.1,-3 -0.1,-5.9 0,-8.9c0,-1.5 0.1,-3 0.1,-4.4l0.1,-2.2l0.1,-1.1l0,-0.6l0,-0.3c0,-0.1 0,-0.2 0,-0.3c0.1,0.1 0.1,0.3 0.2,0.5l0.1,0.6l0.2,1.1c0.1,0.7 0.2,1.5 0.3,2.2c0.2,1.5 0.3,3 0.4,4.4c0.2,3 0.3,5.9 0.4,8.9c0,3 0,5.9 -0.1,8.9c-0.2,3 -0.3,6 -0.7,9z" id="svg_78"/>
     <path class="st12" d="m401.2,322.6c1.9,1.4 3.9,2.6 5.9,3.5c2.1,0.9 4.2,1.6 6.4,1.9c2.2,0.3 4.4,0.2 6.6,-0.2c2.2,-0.5 4.3,-1.3 6.5,-2.2c-1.8,1.5 -3.9,2.6 -6.2,3.4c-1.1,0.3 -2.3,0.6 -3.5,0.7c-1.2,0.1 -2.4,0.1 -3.6,-0.1c-1.2,-0.2 -2.3,-0.4 -3.5,-0.8c-1.1,-0.4 -2.2,-0.9 -3.3,-1.5c-1.9,-1.4 -3.8,-2.9 -5.3,-4.7z" id="svg_79"/>
    </g>
   </g>
   <g id="BOCA">
    <g id="svg_80">
     <path class="st16" d="m381.4,210.5l56.4,0c0,0 -7.2,21.5 -26.4,21.5c-26.3,0 -30,-21.5 -30,-21.5z" id="svg_81"/>
     <path class="st17" d="m416.6,218.9l-5.4,0c-0.7,0 -1.3,-0.6 -1.3,-1.4l0,-5.7c0,-0.8 -0.6,-2.2 1.3,-1.4l5.4,0c1.8,-0.7 1.3,0.6 1.3,1.4l0,5.7c0,0.8 -0.6,1.4 -1.3,1.4z" id="svg_82"/>
     <path class="st17" d="m408,218.4l-5.4,0c-0.7,0 -1.3,-0.6 -1.3,-1.4l0,-5.7c0,-0.8 -0.6,-2.2 1.3,-1.4l5.4,0c1.8,-0.7 1.3,0.6 1.3,1.4l0,5.7c-0.1,0.8 -0.6,1.4 -1.3,1.4z" id="svg_83"/>
     <path class="st18" d="m420.1,230.8c0,-2.7 -4,-5.5 -9.4,-5.5s-9.6,3.1 -9.6,5.8c0,0 4.7,1.2 10.1,1.2s8.9,-1.5 8.9,-1.5z" id="svg_84"/>
    </g>
   </g>
   <g id="OJOS-closed">
    <g id="svg_85">
     <g id="svg_86">
      <g id="svg_87">
       <ellipse class="st1" cx="419.6" cy="176.3" rx="10.9" ry="4.8" id="svg_88"/>
       <path class="st4" d="m419.6,181.3c-6.3,0 -11.4,-2.2 -11.4,-4.9c0,-2.7 5.1,-4.9 11.4,-4.9c6.3,0 11.4,2.2 11.4,4.9c0,2.7 -5.1,4.9 -11.4,4.9zm0,-9.7c-5.8,0 -10.5,2.1 -10.5,4.7c0,2.6 4.7,4.7 10.5,4.7s10.5,-2.1 10.5,-4.7c0,-2.6 -4.7,-4.7 -10.5,-4.7z" id="svg_89"/>
      </g>
      <g id="svg_90">
       <ellipse class="st19" cx="419.6" cy="176.5" rx="6.5" ry="2.4" id="svg_91"/>
       <ellipse cx="420.2" cy="176.6" rx="3.6" ry="0.9" id="svg_92"/>
       <ellipse class="st1" cx="416.5" cy="176" rx="2.2" ry="0.6" id="svg_93"/>
      </g>
     </g>
     <g id="svg_94">
      <g id="svg_95">
       <ellipse class="st1" cx="396.2" cy="176.5" rx="10.9" ry="4.8" id="svg_96"/>
       <path class="st4" d="m396.2,181.4c-6.3,0 -11.4,-2.2 -11.4,-4.9c0,-2.7 5.1,-4.9 11.4,-4.9c6.3,0 11.4,2.2 11.4,4.9c0,2.7 -5.1,4.9 -11.4,4.9zm0,-9.7c-5.8,0 -10.5,2.1 -10.5,4.7c0,2.6 4.7,4.7 10.5,4.7s10.5,-2.1 10.5,-4.7c-0.1,-2.5 -4.8,-4.7 -10.5,-4.7z" id="svg_97"/>
      </g>
      <g id="svg_98">
       <ellipse class="st19" cx="396.8" cy="176.6" rx="6.5" ry="2.4" id="svg_99"/>
       <ellipse cx="397.6" cy="176.7" rx="3.6" ry="0.9" id="svg_100"/>
       <ellipse class="st1" cx="393.9" cy="176.1" rx="2.2" ry="0.6" id="svg_101"/>
      </g>
     </g>
    </g>
   </g>
   <g id="OJOS">
    <g id="svg_102">
     <g id="svg_103">
      <g id="svg_104">
       <ellipse class="st1" cx="419.6" cy="176.2" rx="10.9" ry="20.4" id="svg_105"/>
       <path class="st4" d="m419.6,197c-6.3,0 -11.4,-9.4 -11.4,-20.8c0,-11.5 5.1,-20.8 11.4,-20.8c6.3,0 11.4,9.4 11.4,20.8c0,11.5 -5.1,20.8 -11.4,20.8zm0,-40.7c-5.8,0 -10.5,8.9 -10.5,19.9s4.7,19.9 10.5,19.9s10.5,-8.9 10.5,-19.9s-4.7,-19.9 -10.5,-19.9z" id="svg_106"/>
      </g>
      <g id="svg_107">
       <ellipse class="st19" cx="419.6" cy="176.8" rx="6.5" ry="10.1" id="svg_108"/>
       <ellipse cx="420.2" cy="177.3" rx="3.6" ry="3.8" id="svg_109"/>
       <ellipse class="st1" cx="416.5" cy="174.7" rx="2.2" ry="2.4" id="svg_110"/>
      </g>
     </g>
     <g id="svg_111">
      <g id="svg_112">
       <ellipse class="st1" cx="396.2" cy="176.6" rx="10.9" ry="20.4" id="svg_113"/>
       <path class="st4" d="m396.2,197.5c-6.3,0 -11.4,-9.4 -11.4,-20.8c0,-11.5 5.1,-20.8 11.4,-20.8c6.3,0 11.4,9.4 11.4,20.8c0,11.4 -5.1,20.8 -11.4,20.8zm0,-40.7c-5.8,0 -10.5,8.9 -10.5,19.9s4.7,19.9 10.5,19.9s10.5,-8.9 10.5,-19.9s-4.8,-19.9 -10.5,-19.9z" id="svg_114"/>
      </g>
      <g id="svg_115">
       <ellipse class="st19" cx="396.8" cy="177.3" rx="6.5" ry="10.1" id="svg_116"/>
       <ellipse cx="397.6" cy="177.8" rx="3.6" ry="3.8" id="svg_117"/>
       <ellipse class="st1" cx="393.9" cy="175.2" rx="2.2" ry="2.4" id="svg_118"/>
      </g>
     </g>
    </g>
   </g>
   <g id="CABELLO">
    <path class="st20" d="m385.3,155.2c-3.5,-1.3 5.2,-28.4 14.8,-33.8c9.5,-5.4 13.2,-6.3 13.2,-6.3l-9.9,11.9c0,0 26.2,-10.8 29.4,-9.5s-14,10.8 -14,10.8s16.7,-5.4 20.2,-4.8c3.5,0.6 -15.7,11.9 -15.7,11.9s13.2,-2.6 14.9,-2.7c1.7,-0.1 -10.4,16.2 -13.6,19.5s-35.8,4.3 -39.3,3z" id="svg_119"/>
   </g>
   <g id="CEJAS">
    <g id="svg_120">
     <path class="st21" d="m387.1,149.1c0,0 8.8,-7.7 10.3,-5.1s-10.3,5.1 -10.3,5.1z" id="svg_121"/>
     <path class="st21" d="m424.6,149.1c0,0 -8.8,-7.7 -10.3,-5.1s10.3,5.1 10.3,5.1z" id="svg_122"/>
    </g>
   </g>
  </g>
  <g id="albert">
   <g id="svg_123">
    <g id="svg_124">
     <path class="st22" d="m186.2,145.9c0,0 0,18.7 1.4,24.4c1.4,5.7 21.1,8 21.5,-1.7s0.5,-19.9 0.5,-19.9l-23.4,-2.8z" id="svg_125"/>
    </g>
    <g id="svg_126">
     <g id="svg_127">
      <g id="svg_128">
       <path d="m187.4,169.5c0,0 -13.7,0.1 -18.3,7.5c-4.9,7.9 2,52.7 2,55.1c1.1,40 -2,48.1 -2,48.1l62.2,0c0,0 -3,-24 -2.5,-50c0.4,-20.6 5,-42.7 0,-54.2c-1.6,-3.7 -8.7,-2.1 -11,-3.5c-18.4,-11.8 -30.4,-3 -30.4,-3z" id="svg_129"/>
       <g id="svg_130">
        <path class="st23" d="m220.3,201.7l-10.3,0c-1.8,0 -3.3,-1.5 -3.3,-3.3l0,0c0,-1.8 1.5,-3.3 3.3,-3.3l10.3,0c1.8,0 3.3,1.5 3.3,3.3l0,0c0,1.8 -1.5,3.3 -3.3,3.3z" id="svg_131"/>
        <rect x="208.1" y="195.1" class="st24" width="1.8" height="6.7" id="svg_132"/>
        <rect x="211.7" y="195" class="st24" width="1.8" height="6.7" id="svg_133"/>
        <rect x="214.8" y="195.1" class="st24" width="1.8" height="6.7" id="svg_134"/>
        <rect x="218" y="195.1" class="st24" width="1.8" height="6.7" id="svg_135"/>
        <rect x="220.9" y="195.1" class="st24" width="1.8" height="6.7" id="svg_136"/>
        <rect x="214.5" y="191.5" transform="matrix(-1.83697e-16,1,-1,-1.83697e-16,415.3971,-15.1549) " class="st24" width="1.6" height="17.3" id="svg_137"/>
        <rect x="214.4" y="188.2" transform="matrix(-1.83697e-16,1,-1,-1.83697e-16,411.7955,-18.5969) " class="st24" width="1.6" height="16.9" id="svg_138"/>
       </g>
      </g>
      <path class="st25" d="m216.4,302.3l-32.1,0c-8.2,0 -15,-6.7 -15,-15l0,0c0,-8.2 6.7,-15 15,-15l32.1,0c8.2,0 15,6.7 15,15l0,0c0,8.2 -6.8,15 -15,15z" id="svg_139"/>
     </g>
     <g id="svg_140">
      <polygon class="st26" points="185.6,171.6 200.7,221.2 213.7,171.6     " id="svg_141"/>
      <polygon class="st1" points="190.1,168.9 200.9,211.6 209.3,168.9     " id="svg_142"/>
     </g>
     <polygon class="st27" points="186.6,157.5 168.9,176.1 193.9,176.1    " id="svg_143"/>
     <polygon class="st27" points="209.5,159.6 230.1,176.5 205.1,176.5    " id="svg_144"/>
    </g>
   </g>
   <g id="svg_145">
    <path class="st28" d="m190.3,176.6l0,0c-3.7,0 -6.7,-3 -6.7,-6.7l0,0c0,-3.7 3,-6.7 6.7,-6.7l0,0c3.7,0 6.7,3 6.7,6.7l0,0c0,3.7 -3,6.7 -6.7,6.7z" id="svg_146"/>
    <path class="st28" d="m208.9,176.6l0,0c-3.7,0 -6.7,-3 -6.7,-6.7l0,0c0,-3.7 3,-6.7 6.7,-6.7l0,0c3.7,0 6.7,3 6.7,6.7l0,0c0,3.7 -3,6.7 -6.7,6.7z" id="svg_147"/>
    <path class="st29" d="m199.5,175.3l0,0c-2.6,0 -4.7,-2.1 -4.7,-4.7l0,-1.2c0,-2.6 2.1,-4.7 4.7,-4.7l0,0c2.6,0 4.7,2.1 4.7,4.7l0,1.2c0.1,2.6 -2.1,4.7 -4.7,4.7z" id="svg_148"/>
   </g>
   <g id="svg_149">
    <path class="st30" d="m204.2,37.2c-44.1,-2.7 -34.9,27.6 -34.9,61.6c0,0.5 0,0.9 0,1.4c-1,-1 -2.2,-1.5 -3.4,-1.5c-4.3,0 -7.8,6.7 -7.8,15.1s3.5,15.1 7.8,15.1c2.5,0 3.3,1.3 4.8,-2.3c5.3,22 19.1,33.8 33.5,33.8c19.3,0 34.9,-27.6 34.9,-61.6s13.5,-58.6 -34.9,-61.6z" id="svg_150"/>
    <path d="m172.1,116.8c0,0 -1.4,-50.7 11.7,-53.7c13.1,-3 19.7,6.5 25.7,6.5c6.1,0 22.5,3.5 25.3,-1c2.8,-4.5 3.7,41.1 3.7,41.1s9.7,-52.3 0.2,-62.2s-60.7,-23.8 -71.1,7.1l1.7,45.5l2.8,16.7z" id="svg_151"/>
    <path d="m208.8,135.9c-1.6,0 -3.1,-0.4 -4.5,-1.1c-5.1,-2.6 -6.6,-9.1 -6.6,-9.4l1.3,-0.3c0,0.1 1.4,6.1 5.9,8.5c2.7,1.4 6,1.2 9.8,-0.6c2,-0.9 3.2,-2.1 3.7,-3.5c0.9,-2.7 -0.7,-6.2 -2.5,-10.3c-1.5,-3.4 -3.2,-7.2 -3.8,-11.2l1.3,-0.2c0.5,3.8 2.2,7.5 3.6,10.8c2,4.4 3.6,8.2 2.5,11.4c-0.6,1.8 -2,3.2 -4.4,4.3c-2.1,1.1 -4.3,1.6 -6.3,1.6z" id="svg_152"/>
    <g id="svg_153">
     <path d="m161.1,109.3c0.9,-0.2 1.8,-0.1 2.7,0.1c0.9,0.2 1.8,0.7 2.5,1.3c0.7,0.7 1.3,1.6 1.5,2.6c0.2,1 0.1,2 -0.2,2.9c-0.1,-1 -0.3,-1.9 -0.6,-2.7c-0.3,-0.8 -0.8,-1.5 -1.4,-2.1c-0.6,-0.6 -1.3,-1 -2.1,-1.3c-0.7,-0.3 -1.6,-0.5 -2.4,-0.8z" id="svg_154"/>
     <path d="m163.2,118.8c0.3,-0.7 0.7,-1.4 1,-2c0.3,-0.7 0.6,-1.3 0.9,-2c0.3,-0.7 0.5,-1.3 0.5,-2c0.1,-0.7 0,-1.4 -0.3,-2.1c0.3,0.2 0.6,0.5 0.8,0.9c0.2,0.4 0.3,0.8 0.3,1.2c0.1,0.9 -0.1,1.7 -0.4,2.4c-0.3,0.8 -0.7,1.4 -1.2,2c-0.4,0.6 -0.9,1.2 -1.6,1.6z" id="svg_155"/>
    </g>
    <g id="svg_156">
     <path class="st31" d="m186.2,137.8c2.4,0 9.6,3.1 18.8,3.3c5.8,0.1 12.5,-2 19.3,-3.3c2.7,0.3 -5.4,13.4 -20.1,13.4c-14.6,0 -21.9,-13.4 -18,-13.4z" id="svg_157"/>
    </g>
   </g>
   <path class="st1" d="m223.1,141.6c0,0 -16.2,1.5 -18.2,1.5s-18.5,-1.7 -18.5,-1.7s-1.9,-2.3 -0.9,-3.3c0.6,-0.6 3.1,0.4 6.9,1.3c3.5,0.8 8,1.8 12.5,1.9c3.9,0 7.7,-0.8 11,-1.5c4.5,-1 7.8,-2 8.3,-1.8c1.9,0.2 -1.1,3.6 -1.1,3.6z" id="svg_158"/>
   <path class="st28" d="m201.5,151c1.1,0 -1.2,-4.1 -4,-5.1c-2.8,-1 -6.3,0.5 -6,1.3c0.3,0.9 6.1,3.8 10,3.8z" id="svg_159"/>
   <g id="svg_160">
    <rect x="209.7" y="290" class="st25" width="22" height="106.7" id="svg_161"/>
    <path class="st32" d="m209.5,396.7l0,17.1l36.7,0c0,0 2.5,-16.1 -18.4,-17.1c-20.7,-1 -18.3,0 -18.3,0z" id="svg_162"/>
   </g>
   <g id="svg_163">
    <rect x="170.4" y="290" class="st25" width="22" height="106.7" id="svg_164"/>
    <path class="st32" d="m170,396.7l0,17.1l36.7,0c0,0 2.5,-16.1 -18.4,-17.1c-20.8,-1 -18.3,0 -18.3,0z" id="svg_165"/>
   </g>
   <g id="hidden-arm">
    <path d="m151.2,202.9c-8.2,0 -17.1,-1.8 -25.6,-7.7c-12.7,-8.9 -21.4,-25.3 -25.6,-48.7l23.2,-4.8c3,16.5 8.2,27.4 15.4,32.4c8.5,5.9 20,3.1 28.4,1.1c0.9,-0.2 1.7,-0.4 2.5,-0.6l5,24.6c-0.7,0.2 -1.5,0.3 -2.3,0.5c-5.5,1.4 -12.9,3.2 -21,3.2z" id="svg_166"/>
    <g id="svg_167">
     <g id="svg_168">
      <path class="st30" d="m97.1,124.4c0,0 -15.6,-22.4 -8.3,-26.1c7.2,-3.7 14.1,19.8 14.1,19.8s-5.6,-25.7 1.4,-26c7,-0.3 7.8,24.1 7.8,24.1s0.3,-21.6 9.1,-21.6s-0.2,29.4 -0.2,29.4s13.3,-11.1 15.1,-2.6c1.8,8.4 -14.3,11 -14.3,11s0.5,8 -1.6,9.9s-15.3,3.1 -15.3,3.1s-3.5,-2.3 -6,-7.5c-0.4,-0.8 -0.3,-1.2 -1.1,-2.6c-3.1,-5.3 -12.1,-2 -12.2,-11.3s11.8,2.2 11.5,0.4z" id="svg_169"/>
      <path class="st33" d="m107.8,136.8c0.5,-1.4 1.2,-2.7 2,-3.9c0.8,-1.2 1.7,-2.4 2.6,-3.4c1,-1.1 2,-2.1 3.2,-2.9c0.6,-0.4 1.2,-0.8 1.9,-1c0.7,-0.3 1.4,-0.4 2.1,-0.3c-0.7,0.3 -1.2,0.6 -1.7,1.1c-0.5,0.4 -1,0.9 -1.5,1.4c-1,1 -1.9,2 -2.8,3c-0.9,1 -1.9,2.1 -2.8,3.1c-0.9,0.9 -1.9,1.9 -3,2.9z" id="svg_170"/>
     </g>
     <path class="st33" d="m98.6,126.7c1.5,-1.2 3.1,-2.1 4.7,-2.9c1.7,-0.8 3.4,-1.4 5.2,-1.8c1.8,-0.4 3.6,-0.7 5.5,-0.5c0.9,0.1 1.9,0.2 2.8,0.5c0.9,0.3 1.7,0.7 2.4,1.4c-1.7,-0.6 -3.5,-0.6 -5.2,-0.5c-1.7,0.1 -3.4,0.5 -5.1,0.9c-1.7,0.4 -3.4,0.9 -5.1,1.4c-1.8,0.5 -3.5,1 -5.2,1.5z" id="svg_171"/>
    </g>
   </g>
   <g id="svg_172">
    <path d="m164.6,206.5c-7,4.5 -15.5,7.9 -25.6,7.5c-15.2,-0.6 -30.6,-9.8 -45.6,-27.5l17.5,-16.9c10.6,12.5 20.3,18.9 28.9,19.2c10.1,0.4 18.7,-8.4 24.9,-14.7c0.6,-0.7 1.3,-1.3 1.8,-1.9l16.2,18.3c-0.5,0.5 -1.1,1.1 -1.7,1.7c-4,4.2 -9.5,9.8 -16.4,14.3z" id="svg_173"/>
    <g id="svg_174">
     <g id="svg_175">
      <path class="st30" d="m80.2,169.2c0,0 -24.2,-10.5 -19.8,-17.7c4.4,-7.2 21.7,9.1 21.7,9.1s-17.3,-18.9 -11.4,-23c5.8,-4 18.3,16.4 18.3,16.4s-10.2,-18.7 -2.7,-23.6c7.5,-4.9 14.2,25.3 14.2,25.3s6,-16.8 11.7,-10.6c5.6,6.1 -6.9,17.4 -6.9,17.4s4.3,6.5 3.5,9.3c-0.9,2.8 -11.6,11.1 -11.6,11.1s-4.1,0 -8.8,-3.1c-0.7,-0.5 -0.8,-0.9 -2.2,-1.6c-5.2,-2.8 -11.3,5 -16,-2.9c-4.5,-8 11,-4.7 10,-6.1z" id="svg_176"/>
      <path class="st33" d="m95.3,173.9c-0.2,-1.5 -0.2,-3 -0.2,-4.4c0.1,-1.5 0.3,-2.9 0.6,-4.4c0.3,-1.4 0.7,-2.9 1.3,-4.2c0.3,-0.7 0.7,-1.3 1.1,-1.9c0.4,-0.6 1,-1.2 1.7,-1.4c-0.4,0.6 -0.7,1.2 -1,1.9c-0.2,0.7 -0.4,1.3 -0.6,2c-0.3,1.4 -0.6,2.7 -0.9,4.1c-0.3,1.4 -0.6,2.8 -0.9,4.2c-0.3,1.3 -0.6,2.7 -1.1,4.1z" id="svg_177"/>
     </g>
     <path class="st33" d="m82.5,170.4c0.7,-1.8 1.6,-3.5 2.6,-5.1c1,-1.6 2.2,-3.1 3.5,-4.4c1.3,-1.4 2.8,-2.6 4.4,-3.5c0.8,-0.5 1.7,-0.8 2.6,-1.1c0.9,-0.2 1.9,-0.3 2.8,-0.2c-1.8,0.5 -3.3,1.4 -4.7,2.4c-1.4,1.1 -2.7,2.3 -4,3.6c-1.3,1.3 -2.5,2.6 -3.7,4c-1,1.5 -2.2,2.9 -3.5,4.3z" id="svg_178"/>
    </g>
   </g>
   <g id="Left-arm1">
    <path d="m244.5,201.4c-8.2,0 -15.6,-1.8 -21.2,-3.2c-0.8,-0.2 -1.6,-0.4 -2.3,-0.6l5.1,-24.6c0.8,0.2 1.6,0.4 2.5,0.6c8.4,2.1 19.9,4.9 28.4,-1c7.2,-5 12.4,-15.9 15.5,-32.4l23.2,4.9c-4.4,23.4 -13,39.8 -25.8,48.6c-8.5,5.9 -17.3,7.7 -25.4,7.7z" id="svg_179"/>
    <g id="svg_180">
     <g id="svg_181">
      <path class="st30" d="m277.5,129.9c-6.9,25.7 10.7,19.4 14.8,17.2c2.4,-1.2 9.6,-5.4 9.6,-18.2c0,-12.8 -6.2,-15.8 -10.8,-15.8c-8.5,0.1 -10.3,4.5 -13.6,16.8z" id="svg_182"/>
      <path class="st34" d="m283.7,149.6c-1.9,0 -3.8,-0.5 -5.3,-1.8c-3.2,-2.8 -3.5,-8.9 -1.1,-18l0.2,0l-0.2,0c3.3,-12.5 5.3,-16.9 13.8,-16.9c3.3,0 10.9,1.6 10.9,15.9c0,8.7 -3.4,15 -9.7,18.4c-0.2,0.2 -4.4,2.4 -8.6,2.4zm7.5,-36.3c-8.3,0 -10.2,4.3 -13.5,16.6c-2.4,9 -2.1,14.9 1,17.6c3.6,3.2 10.5,1 13.6,-0.6c6.2,-3.3 9.5,-9.5 9.5,-18c0,-14 -7.4,-15.6 -10.6,-15.6z" id="svg_183"/>
     </g>
     <g id="svg_184">
      <polygon points="290.2,131.2 297.2,129.2 278.2,52.5 271.2,54.5     " id="svg_185"/>
      <polygon class="st1" points="271.1,54.7 278.2,52.8 274.3,37.1 267.3,39.1     " id="svg_186"/>
      <polygon class="st1" points="294.1,147.1 301.1,145.2 297.3,129.5 290.2,131.5     " id="svg_187"/>
     </g>
     <g id="svg_188">
      <ellipse transform="matrix(0.9722,-0.2341,0.2341,0.9722,-21.4415,70.1104) " class="st30" cx="284.6" cy="125.4" rx="4.7" ry="12.1" id="svg_189"/>
      <path class="st34" d="m286,137.5c-0.7,0 -1.4,-0.2 -1.9,-0.5c-2,-1.3 -2.9,-4.7 -3.8,-8.7c-0.1,-0.5 -0.2,-1 -0.4,-1.6c-0.3,-1.3 -0.7,-2.6 -1.1,-3.8c-0.9,-2.8 -1.7,-5.2 -0.8,-7c0.6,-1.1 1.8,-1.9 3.7,-2.5c1.8,-0.5 3.2,-0.4 4.2,0.2c1.7,1.1 2.2,3.7 2.8,6.8c0.2,1.1 0.4,2.3 0.7,3.5c0.2,0.8 0.4,1.6 0.6,2.3c1,3.6 1.8,6.7 0.7,8.7c-0.6,1 -1.6,1.7 -3.1,2.2l0,0c-0.6,0.3 -1.1,0.4 -1.6,0.4zm-2.2,-24c-0.6,0 -1.3,0.1 -2,0.3c-1.8,0.5 -3,1.3 -3.5,2.3c-0.8,1.6 -0.1,3.9 0.8,6.7c0.4,1.2 0.8,2.4 1.1,3.8c0.1,0.5 0.3,1.1 0.4,1.6c0.9,3.9 1.8,7.3 3.7,8.5c0.9,0.5 1.9,0.6 3.2,0.3l0,0c1.4,-0.4 2.4,-1.1 2.9,-2c1,-1.9 0.2,-4.9 -0.7,-8.5c-0.2,-0.8 -0.4,-1.5 -0.6,-2.3c-0.3,-1.2 -0.5,-2.4 -0.7,-3.6c-0.6,-3.1 -1.1,-5.6 -2.6,-6.6c-0.7,-0.3 -1.3,-0.5 -2,-0.5z" id="svg_190"/>
     </g>
     <g id="svg_191">
      <ellipse transform="matrix(0.9599,-0.2802,0.2802,0.9599,-19.8657,87.608) " class="st30" cx="296.5" cy="113.3" rx="8.9" ry="4.4" id="svg_192"/>
      <path class="st34" d="m291.7,119c-0.2,0 -0.3,0 -0.5,0c-1.8,-0.1 -2.9,-1.2 -3.5,-3.2l0,0c-0.3,-1.4 -0.3,-2.5 0.2,-3.4c1,-1.8 3.5,-2.5 6.3,-3.2c0.3,-0.1 0.7,-0.2 1,-0.3c1,-0.3 2,-0.7 2.9,-1.1c1.9,-0.8 3.5,-1.4 4.8,-0.7c1,0.5 1.6,1.7 2.2,3.8c0.4,1.7 0.4,3 -0.2,3.9c-0.9,1.5 -2.8,1.9 -5.1,2.5c-0.7,0.2 -1.5,0.3 -2.3,0.6l-0.4,0.1c-2,0.5 -3.9,1 -5.4,1zm-3.6,-3.4c0.5,1.9 1.5,2.8 3.1,3c1.6,0.1 3.5,-0.4 5.8,-1.1l0.4,-0.1c0.8,-0.2 1.6,-0.4 2.3,-0.6c2.2,-0.5 4.1,-0.9 4.9,-2.3c0.5,-0.8 0.5,-2 0.1,-3.6c-0.5,-1.9 -1.1,-3.1 -2,-3.6c-1.1,-0.6 -2.6,0 -4.5,0.7c-0.9,0.4 -1.9,0.8 -2.9,1.1c-0.3,0.1 -0.7,0.2 -1,0.3c-2.8,0.8 -5.2,1.4 -6.1,3.1c-0.4,0.8 -0.4,1.8 -0.1,3.1l0,0z" id="svg_193"/>
     </g>
     <g id="svg_194">
      <ellipse transform="matrix(0.9599,-0.2802,0.2802,0.9599,-21.9005,88.4303) " class="st30" cx="298.3" cy="120.8" rx="8.9" ry="4.4" id="svg_195"/>
      <path class="st34" d="m293.6,126.5c-0.2,0 -0.3,0 -0.5,0c-1.8,-0.1 -2.9,-1.2 -3.5,-3.2c-0.3,-1.4 -0.3,-2.5 0.2,-3.4c1,-1.8 3.5,-2.5 6.3,-3.2c0.3,-0.1 0.7,-0.2 1,-0.3c1,-0.3 2,-0.7 2.9,-1.1c1.9,-0.8 3.5,-1.4 4.8,-0.7c1,0.5 1.6,1.7 2.2,3.8c0.4,1.7 0.4,3 -0.2,3.9c-0.9,1.5 -2.8,1.9 -5.1,2.5c-0.7,0.2 -1.5,0.3 -2.3,0.6l-0.4,0.1c-2.1,0.5 -3.9,1 -5.4,1zm-3.6,-3.3c0.5,1.9 1.5,2.8 3.1,3c1.6,0.1 3.5,-0.4 5.8,-1.1l0.4,-0.1c0.8,-0.2 1.6,-0.4 2.3,-0.6c2.2,-0.5 4.1,-0.9 4.9,-2.3c0.5,-0.8 0.5,-2 0.1,-3.6c-0.5,-1.9 -1.1,-3.1 -2,-3.6c-1.1,-0.6 -2.6,0 -4.5,0.7c-0.9,0.4 -1.9,0.8 -2.9,1.1c-0.3,0.1 -0.7,0.2 -1,0.3c-2.8,0.8 -5.2,1.4 -6.1,3.1c-0.4,0.7 -0.5,1.8 -0.1,3.1z" id="svg_196"/>
     </g>
     <g id="svg_197">
      <ellipse transform="matrix(0.9599,-0.2802,0.2802,0.9599,-24.0436,89.2963) " class="st30" cx="300.3" cy="128.7" rx="8.9" ry="4.4" id="svg_198"/>
      <path class="st34" d="m295.5,134.4c-0.2,0 -0.3,0 -0.5,0c-1.8,-0.1 -2.9,-1.2 -3.5,-3.2c-0.3,-1.4 -0.3,-2.5 0.2,-3.4c1,-1.8 3.5,-2.5 6.3,-3.2c0.3,-0.1 0.7,-0.2 1,-0.3c1,-0.3 2,-0.7 2.9,-1.1c1.9,-0.8 3.5,-1.4 4.8,-0.7c1,0.5 1.6,1.7 2.2,3.8c0.4,1.7 0.4,3 -0.2,3.9c-0.9,1.5 -2.8,1.9 -5.1,2.5c-0.7,0.2 -1.5,0.3 -2.3,0.6l-0.4,0.1c-2,0.5 -3.8,1 -5.4,1zm10.1,-11.8c-0.9,0 -2.1,0.5 -3.4,1c-0.9,0.4 -1.9,0.8 -2.9,1.1c-0.3,0.1 -0.7,0.2 -1,0.3c-2.8,0.8 -5.2,1.4 -6.1,3.1c-0.4,0.8 -0.5,1.8 -0.2,3.1l0,0c0.5,1.9 1.5,2.8 3.1,3c1.6,0.1 3.5,-0.4 5.8,-1.1l0.4,-0.1c0.8,-0.2 1.6,-0.4 2.3,-0.6c2.2,-0.5 4.1,-0.9 4.9,-2.3c0.5,-0.8 0.5,-2 0.1,-3.6c-0.5,-1.9 -1.1,-3.1 -2,-3.6c-0.2,-0.3 -0.6,-0.3 -1,-0.3z" id="svg_199"/>
     </g>
     <g id="svg_200">
      <ellipse transform="matrix(0.9599,-0.2802,0.2802,0.9599,-26.0073,90.0898) " class="st30" cx="302.1" cy="136" rx="8.9" ry="4.4" id="svg_201"/>
      <path class="st34" d="m297.3,141.7c-0.2,0 -0.3,0 -0.5,0c-1.8,-0.1 -2.9,-1.2 -3.5,-3.2c-0.3,-1.4 -0.3,-2.5 0.2,-3.4c1,-1.8 3.5,-2.5 6.4,-3.2c0.3,-0.1 0.7,-0.2 1,-0.3c1,-0.3 2,-0.7 2.9,-1.1c1.9,-0.8 3.5,-1.4 4.8,-0.7c1,0.5 1.6,1.7 2.2,3.8c0.4,1.7 0.4,3 -0.2,3.9c-0.9,1.5 -2.8,1.9 -5.1,2.5c-0.7,0.2 -1.5,0.3 -2.3,0.6l-0.4,0.1c-2.1,0.5 -3.9,1 -5.5,1zm10.1,-11.9c-0.9,0 -2.1,0.5 -3.4,1c-0.9,0.4 -1.9,0.8 -2.9,1.1c-0.3,0.1 -0.7,0.2 -1,0.3c-2.8,0.8 -5.2,1.4 -6.1,3.1c-0.4,0.8 -0.5,1.8 -0.2,3.1l0,0c0.5,1.9 1.5,2.8 3.1,3c1.6,0.1 3.5,-0.4 5.8,-1.1l0.4,-0.1c0.8,-0.2 1.6,-0.4 2.3,-0.6c2.2,-0.5 4.1,-0.9 4.9,-2.3c0.5,-0.8 0.5,-2 0.1,-3.6c-0.5,-1.9 -1.1,-3.1 -2,-3.6c-0.2,-0.2 -0.6,-0.3 -1,-0.3z" id="svg_202"/>
     </g>
    </g>
   </g>
   <g id="Left-arm2">
    <path d="m231.3,205c-6.7,-5 -11.8,-11.1 -15.6,-15.6c-0.5,-0.6 -1.1,-1.3 -1.6,-1.9l17.5,-17c0.5,0.6 1.1,1.3 1.7,2c5.8,6.9 13.7,16.2 23.8,16.7c8.6,0.4 18.7,-5.3 30.2,-16.9l16.3,18.3c-16.2,16.5 -32.2,24.5 -47.4,23.8c-10.1,-0.4 -18.3,-4.4 -24.9,-9.4z" id="svg_203"/>
    <g id="svg_204">
     <g id="svg_205">
      <path class="st30" d="m297,166.9c-19.5,16.8 -1.8,22.4 2.8,23.2c2.6,0.4 10.8,1.5 17.7,-8.9c6.9,-10.4 3.5,-16.7 -0.3,-19.5c-7,-5.4 -10.9,-2.8 -20.2,5.2z" id="svg_206"/>
      <path class="st34" d="m291.4,186.8c-1.6,-1.2 -2.8,-2.7 -3.3,-4.7c-1.1,-4.2 1.9,-9.4 8.8,-15.4l0.1,0.1l-0.1,-0.1c9.5,-8.2 13.4,-10.5 20.4,-5.3c2.7,2 8.1,8 0.3,19.8c-4.7,7.1 -10.9,10.2 -17.9,9c-0.3,0 -4.9,-0.9 -8.3,-3.4zm25.7,-25.1c-6.8,-5.1 -10.7,-2.8 -20,5.3c-6.8,5.9 -9.7,10.9 -8.7,15c1.2,4.9 8,7.3 11.4,7.8c6.9,1.2 12.9,-1.9 17.5,-8.9c7.6,-11.4 2.4,-17.2 -0.2,-19.2z" id="svg_207"/>
     </g>
     <g id="svg_208">
      <polygon points="306.6,175.7 313.4,178.4 339.4,104.1 332.6,101.4     " id="svg_209"/>
      <polygon class="st1" points="332.4,101.5 339.2,104.2 344.5,89.1 337.7,86.4     " id="svg_210"/>
      <polygon class="st1" points="301.2,191.1 308,193.8 313.3,178.7 306.5,176     " id="svg_211"/>
     </g>
     <g id="svg_212">
      <ellipse transform="matrix(0.3233,-0.9463,0.9463,0.3233,48.004,402.1546) " class="st30" cx="305.2" cy="167.5" rx="12" ry="4.8" id="svg_213"/>
      <path class="st34" d="m299.7,178.3c-0.6,-0.4 -1,-1 -1.3,-1.6c-1,-2.3 0.2,-5.6 1.6,-9.5c0.2,-0.5 0.4,-1 0.5,-1.5c0.5,-1.3 0.8,-2.5 1.1,-3.8c0.8,-2.8 1.4,-5.3 3.1,-6.2c1.1,-0.6 2.5,-0.5 4.4,0.3c1.7,0.7 2.8,1.6 3.3,2.7c0.8,1.9 -0.3,4.4 -1.4,7.3c-0.4,1.1 -0.9,2.2 -1.3,3.3c-0.3,0.8 -0.5,1.5 -0.8,2.3c-1.2,3.5 -2.2,6.6 -4.2,7.5c-1,0.5 -2.2,0.5 -3.7,-0.1l0,0c-0.4,-0.2 -0.9,-0.4 -1.3,-0.7zm11.2,-21c-0.5,-0.4 -1.1,-0.7 -1.8,-1c-1.8,-0.7 -3.1,-0.8 -4.1,-0.3c-1.6,0.8 -2.2,3.1 -3,6c-0.3,1.2 -0.7,2.5 -1.1,3.8c-0.2,0.5 -0.4,1 -0.5,1.5c-1.4,3.8 -2.5,7 -1.6,9.2c0.4,1 1.2,1.7 2.5,2.2l0,0c1.4,0.5 2.5,0.6 3.4,0.1c1.9,-0.9 2.9,-3.9 4,-7.3c0.2,-0.7 0.5,-1.5 0.8,-2.3c0.4,-1.2 0.9,-2.3 1.3,-3.4c1.2,-2.9 2.1,-5.2 1.4,-7c-0.3,-0.5 -0.7,-1 -1.3,-1.5z" id="svg_214"/>
     </g>
     <g id="svg_215">
      <ellipse transform="matrix(0.3825,-0.924,0.924,0.3825,46.074,398.8474) " class="st30" cx="321.4" cy="165" rx="4.4" ry="8.9" id="svg_216"/>
      <path class="st34" d="m314.4,166.7c-0.1,-0.1 -0.3,-0.2 -0.4,-0.3c-1.4,-1.3 -1.8,-2.8 -1.1,-4.8l0,0c0.5,-1.3 1.1,-2.2 2,-2.6c1.8,-0.8 4.2,0.1 6.9,1.3c0.3,0.1 0.7,0.3 1,0.4c1,0.4 2,0.7 2.9,0.9c1.9,0.5 3.6,1 4.3,2.3c0.5,1 0.4,2.4 -0.3,4.4c-0.6,1.6 -1.3,2.7 -2.3,3.1c-1.5,0.7 -3.4,-0.2 -5.5,-1.1c-0.7,-0.3 -1.4,-0.6 -2.2,-1l-0.4,-0.2c-1.8,-0.8 -3.6,-1.5 -4.9,-2.4zm-1.1,-5c-0.6,1.8 -0.3,3.2 1,4.4c1.2,1.1 3.1,1.8 5.4,2.7l0.4,0.2c0.8,0.3 1.5,0.6 2.2,1c2.1,0.9 3.9,1.8 5.2,1.1c0.8,-0.4 1.5,-1.3 2.1,-2.9c0.7,-1.9 0.8,-3.2 0.3,-4.1c-0.6,-1.2 -2.1,-1.6 -4.1,-2.2c-0.9,-0.2 -2,-0.5 -3,-0.9c-0.3,-0.1 -0.7,-0.3 -1,-0.4c-2.7,-1.1 -5.1,-2 -6.7,-1.3c-0.7,0.4 -1.3,1.2 -1.8,2.4l0,0z" id="svg_217"/>
     </g>
     <g id="svg_218">
      <ellipse transform="matrix(0.3825,-0.924,0.924,0.3825,37.7586,400.9903) " class="st30" cx="318.9" cy="172.2" rx="4.4" ry="8.9" id="svg_219"/>
      <path class="st34" d="m311.9,174c-0.1,-0.1 -0.3,-0.2 -0.4,-0.3c-1.4,-1.3 -1.8,-2.8 -1.1,-4.8c0.5,-1.3 1.1,-2.2 2,-2.6c1.8,-0.8 4.2,0.1 6.9,1.3c0.3,0.1 0.7,0.3 1,0.4c1,0.4 2,0.7 2.9,0.9c1.9,0.5 3.6,1 4.3,2.3c0.5,1 0.4,2.4 -0.3,4.4c-0.6,1.6 -1.3,2.7 -2.3,3.1c-1.5,0.7 -3.4,-0.2 -5.5,-1.1c-0.7,-0.3 -1.4,-0.6 -2.2,-1l-0.4,-0.2c-1.9,-0.8 -3.7,-1.5 -4.9,-2.4zm-1.1,-5c-0.6,1.8 -0.3,3.2 1,4.4c1.2,1.1 3.1,1.8 5.4,2.7l0.4,0.2c0.8,0.3 1.5,0.6 2.2,1c2.1,0.9 3.9,1.8 5.2,1.1c0.8,-0.4 1.5,-1.3 2.1,-2.9c0.7,-1.9 0.8,-3.2 0.3,-4.1c-0.6,-1.2 -2.1,-1.6 -4.1,-2.2c-0.9,-0.2 -2,-0.5 -3,-0.9c-0.3,-0.1 -0.7,-0.3 -1,-0.4c-2.7,-1.1 -5.1,-2 -6.7,-1.3c-0.8,0.4 -1.4,1.2 -1.8,2.4z" id="svg_220"/>
     </g>
     <g id="svg_221">
      <ellipse transform="matrix(0.3825,-0.924,0.924,0.3825,29.0007,403.2472) " class="st30" cx="316.2" cy="179.9" rx="4.4" ry="8.9" id="svg_222"/>
      <path class="st34" d="m309.2,181.7c-0.1,-0.1 -0.3,-0.2 -0.4,-0.3c-1.4,-1.3 -1.8,-2.8 -1.1,-4.8c0.5,-1.3 1.1,-2.2 2,-2.6c1.8,-0.8 4.2,0.1 6.9,1.3c0.3,0.1 0.7,0.3 1,0.4c1,0.4 2,0.7 2.9,0.9c1.9,0.5 3.6,1 4.3,2.3c0.5,1 0.4,2.4 -0.3,4.4c-0.6,1.6 -1.3,2.7 -2.3,3.1c-1.5,0.7 -3.4,-0.2 -5.5,-1.1c-0.7,-0.3 -1.4,-0.6 -2.2,-1l-0.4,-0.2c-1.9,-0.8 -3.6,-1.5 -4.9,-2.4zm14.7,-3.6c-0.8,-0.6 -1.9,-0.9 -3.3,-1.3c-0.9,-0.2 -2,-0.5 -3,-0.9c-0.3,-0.1 -0.7,-0.3 -1,-0.4c-2.7,-1.1 -5.1,-2 -6.7,-1.3c-0.8,0.4 -1.4,1.2 -1.8,2.4l0,0c-0.6,1.8 -0.3,3.2 1,4.4c1.2,1.1 3.1,1.8 5.4,2.7l0.4,0.2c0.8,0.3 1.5,0.6 2.2,1c2.1,0.9 3.9,1.8 5.2,1.1c0.8,-0.4 1.5,-1.3 2.1,-2.9c0.7,-1.9 0.8,-3.2 0.3,-4.1c-0.3,-0.3 -0.5,-0.6 -0.8,-0.9z" id="svg_223"/>
     </g>
     <g id="svg_224">
      <ellipse transform="matrix(0.3825,-0.924,0.924,0.3825,20.976,405.3152) " class="st30" cx="313.7" cy="187" rx="4.4" ry="8.9" id="svg_225"/>
      <path class="st34" d="m306.7,188.7c-0.1,-0.1 -0.3,-0.2 -0.4,-0.3c-1.4,-1.3 -1.8,-2.8 -1.1,-4.8c0.5,-1.3 1.1,-2.2 2,-2.6c1.8,-0.8 4.2,0.1 6.9,1.3c0.3,0.1 0.7,0.3 1,0.4c1,0.4 2,0.7 2.9,0.9c1.9,0.5 3.6,1 4.3,2.3c0.5,1 0.4,2.4 -0.3,4.4c-0.6,1.6 -1.3,2.7 -2.3,3.1c-1.5,0.7 -3.4,-0.2 -5.5,-1.1c-0.7,-0.3 -1.4,-0.6 -2.2,-1l-0.4,-0.2c-1.8,-0.8 -3.6,-1.5 -4.9,-2.4zm14.7,-3.5c-0.8,-0.6 -1.9,-0.9 -3.3,-1.3c-0.9,-0.2 -2,-0.5 -3,-0.9c-0.3,-0.1 -0.7,-0.3 -1,-0.4c-2.7,-1.1 -5.1,-2 -6.7,-1.3c-0.8,0.4 -1.4,1.2 -1.8,2.4l0,0c-0.6,1.8 -0.3,3.2 1,4.4c1.2,1.1 3.1,1.8 5.4,2.7l0.4,0.2c0.8,0.3 1.5,0.6 2.2,1c2.1,0.9 3.9,1.8 5.2,1.1c0.8,-0.4 1.5,-1.3 2.1,-2.9c0.7,-1.9 0.8,-3.2 0.3,-4.1c-0.2,-0.4 -0.5,-0.7 -0.8,-0.9z" id="svg_226"/>
     </g>
    </g>
   </g>
   <g id="svg_227">
    <ellipse class="st1" cx="195.9" cy="108" rx="7.3" ry="2" id="svg_228"/>
    <ellipse cx="195.9" cy="108.1" rx="3.6" ry="1" id="svg_229"/>
    <ellipse class="st1" cx="194.1" cy="107.2" rx="1.8" ry="0.6" id="svg_230"/>
   </g>
   <g id="svg_231">
    <ellipse class="st1" cx="223.6" cy="108.3" rx="7.3" ry="2" id="svg_232"/>
    <ellipse cx="223.6" cy="108.3" rx="3.6" ry="1" id="svg_233"/>
    <ellipse class="st1" cx="221.8" cy="107.4" rx="1.8" ry="0.6" id="svg_234"/>
   </g>
   <g id="eyes-albert-closed">
    <g id="svg_235">
     <ellipse class="st1" cx="195.9" cy="108" rx="7.3" ry="2.8" id="svg_236"/>
     <ellipse cx="195.9" cy="108" rx="3.6" ry="1.4" id="svg_237"/>
     <ellipse class="st1" cx="194.1" cy="106.8" rx="1.8" ry="0.9" id="svg_238"/>
    </g>
    <g id="svg_239">
     <ellipse class="st1" cx="223.6" cy="108.3" rx="7.3" ry="2.8" id="svg_240"/>
     <ellipse cx="223.6" cy="108.3" rx="3.6" ry="1.4" id="svg_241"/>
     <ellipse class="st1" cx="221.8" cy="107.1" rx="1.8" ry="0.9" id="svg_242"/>
    </g>
   </g>
   <g id="eyes-albert-opened">
    <g id="svg_243">
     <ellipse class="st1" cx="195.9" cy="107.7" rx="7.3" ry="7.7" id="svg_244"/>
     <ellipse cx="195.9" cy="107.8" rx="3.6" ry="3.8" id="svg_245"/>
     <ellipse class="st1" cx="194.1" cy="104.4" rx="1.8" ry="2.4" id="svg_246"/>
    </g>
    <g id="svg_247">
     <ellipse class="st1" cx="223.6" cy="108.6" rx="7.3" ry="7.7" id="svg_248"/>
     <ellipse cx="223.6" cy="108.6" rx="3.6" ry="3.8" id="svg_249"/>
     <ellipse class="st1" cx="221.8" cy="105.2" rx="1.8" ry="2.4" id="svg_250"/>
    </g>
   </g>
   <g id="eye-brows">
    <path d="m198.3,93.5c0,0 -14.3,2 -12.8,3.2c1.6,1.2 16,0.8 15.9,0c0,-0.9 1,-3.8 -3.1,-3.2z" id="svg_251"/>
    <path d="m218,93.5c0,0 14.3,2 12.8,3.2c-1.6,1.2 -16,0.8 -15.9,0c0,-0.9 -1,-3.8 3.1,-3.2z" id="svg_252"/>
   </g>
  </g>
  <g id="cover">
   <rect x="36.6" y="353.5" width="480" height="133.6" id="svg_253"/>
  </g>
  <g id="jumbing-roger">
   <g id="svg_254">
    <g id="svg_255">
     <path class="st1" d="m514.3,371.1c0,0 -5.8,18.1 -13.9,12.3c-3.4,-2.4 -25.8,-40.1 -22.2,-47c3.5,-6.9 17.6,14 17.6,14l18.5,20.7z" id="svg_256"/>
     <path class="st35" d="m488.7,349.7c-0.7,-0.6 -1.3,-1.1 -2,-1.6c-0.7,-0.5 -1.4,-1 -2.2,-1.3c-0.8,-0.3 -1.6,-0.5 -2.3,-0.2c-0.7,0.3 -1.3,1 -1.7,1.8c0.1,-0.4 0.3,-0.9 0.6,-1.2c0.3,-0.4 0.6,-0.7 1,-0.9c0.4,-0.2 0.9,-0.3 1.3,-0.2c0.5,0 0.9,0.2 1.3,0.3c0.8,0.3 1.6,0.8 2.2,1.4c0.7,0.5 1.3,1.2 1.8,1.9z" id="svg_257"/>
     <path class="st35" d="m486.4,342.7c-0.7,-0.6 -1.3,-1.1 -2,-1.6c-0.7,-0.5 -1.4,-1 -2.2,-1.3c-0.8,-0.3 -1.6,-0.5 -2.3,-0.2c-0.7,0.3 -1.3,1 -1.7,1.8c0.1,-0.4 0.3,-0.9 0.6,-1.2c0.3,-0.4 0.6,-0.7 1,-0.9c0.4,-0.2 0.9,-0.3 1.3,-0.2c0.5,0 0.9,0.2 1.3,0.3c0.8,0.3 1.6,0.8 2.2,1.4c0.7,0.6 1.3,1.2 1.8,1.9z" id="svg_258"/>
    </g>
    <path class="st36" d="m525.9,320.4c13.9,12.6 10.3,47.8 -9.3,51.3l-19.6,-30.5c0,0 15,-33.4 28.9,-20.8z" id="svg_259"/>
    <path class="st12" d="m517.8,371.7c0,0 -1.6,6.3 -3.2,5.2c-1.6,-1.1 -21.1,-23.9 -21.3,-32.9c-0.2,-9.1 6.1,0.7 6.1,0.7s16.4,19.9 18.4,27z" id="svg_260"/>
   </g>
   <g id="svg_261">
    <g id="svg_262">
     <g id="svg_263">
      <g id="svg_264">
       <ellipse transform="matrix(0.2733,-0.9619,0.9619,0.2733,94.0496,660.7192) " class="st6" cx="484.3" cy="268.1" rx="12" ry="4.1" id="svg_265"/>
       <g id="svg_266">
        <path class="st6" d="m483.2,268c3.3,-13.1 0.8,-11.2 -2.1,-13.9c-0.2,-3 -5,-15.8 -11.8,-14.6c-2.9,0.5 0.3,6.8 -0.6,8.9c-4.1,-1.2 -10.7,-2.3 -13.3,-2.8c-5.4,-0.9 -10,-3.1 -10.6,3.6c-0.6,7.1 3.5,6.1 8.9,7.1c0,0 5.5,0.6 5.5,0.6c-0.1,0.3 -0.2,0.6 -0.3,0.9c-0.3,0 -5.9,-0.7 -6.2,-0.7c-5.4,-0.4 -10.3,-2 -10.2,4.7c0.1,7.1 4,5.7 9.5,6.1c0.8,0.1 4.7,0 5.5,0c0.2,0.4 0.3,0.7 0.5,1c-5.2,1 -13,0.9 -11.4,7.2c1.7,6.9 5.3,4.4 10.6,3.4c2.3,-0.5 4.9,-1.7 7.3,-3.1c7.4,2.3 15.5,4.6 18.7,-8.4z" id="svg_267"/>
        <path class="st7" d="m469.2,252.6l-1.1,4.5c-0.3,1.5 -0.7,3 -0.9,4.5c-0.2,1.5 -0.4,3 -0.5,4.5c0,1.5 0,3 0.2,4.6c-0.7,-1.4 -1.1,-3 -1.3,-4.6c-0.1,-1.6 0,-3.2 0.2,-4.8c0.3,-1.6 0.7,-3.1 1.3,-4.6c0.6,-1.4 1.2,-2.8 2.1,-4.1z" id="svg_268"/>
        <path class="st7" d="m485.4,257.4c-0.8,1.4 -1.5,2.9 -2.2,4.4c-0.7,1.5 -1.3,3 -1.8,4.5c-0.6,1.5 -1,3.1 -1.3,4.7c-0.4,1.6 -0.5,3.2 -0.7,4.9c0,-0.4 -0.1,-0.8 -0.1,-1.3c0,-0.2 0,-0.4 0,-0.6l0,-0.6c0,-0.4 0,-0.8 0,-1.3l0.1,-1.3c0.2,-1.7 0.6,-3.3 1.2,-4.9c0.6,-1.6 1.2,-3.1 2.1,-4.5c0.7,-1.5 1.6,-2.8 2.7,-4z" id="svg_269"/>
       </g>
      </g>
      <path class="st7" d="m487.9,264.5c-1.3,1.2 -2.4,2.3 -3.3,3.6c-0.4,0.7 -0.8,1.4 -1,2.2c-0.2,0.8 -0.3,1.6 -0.3,2.5c-0.3,-0.8 -0.5,-1.7 -0.4,-2.7c0.1,-0.9 0.4,-1.8 0.9,-2.6c0.5,-0.8 1.1,-1.4 1.8,-1.9c0.7,-0.5 1.5,-0.9 2.3,-1.1z" id="svg_270"/>
     </g>
     <path class="st1" d="m483.8,273c1.5,1.6 57.2,8.7 57.2,8.7l-0.7,-2.7l4.9,-1.8l-3.4,-2.7l7.6,-17.3l-7.5,-1.8l-8.5,15.3c0,0 -38,-4.6 -43.1,-6c-4.4,-1.2 -7.9,6.7 -6.5,8.3z" id="svg_271"/>
    </g>
    <path class="st7" d="m467.7,262.9c0,0.1 0.1,0.2 0.2,0.2c0.1,0 0.2,0.1 0.3,0.1c0.2,0 0.5,0.1 0.7,0.1c0.5,0 0.9,0 1.4,0c0.9,0 1.9,0 2.8,0l2.8,0c0.9,0 1.9,0 2.9,0c-0.8,0.6 -1.8,0.9 -2.7,1.2c-1,0.2 -1.9,0.4 -2.9,0.4c-1,0 -2,-0.1 -2.9,-0.3c-0.5,-0.1 -1,-0.3 -1.4,-0.5c-0.2,-0.1 -0.5,-0.2 -0.7,-0.4c-0.1,-0.1 -0.2,-0.2 -0.3,-0.3c-0.2,-0.2 -0.3,-0.4 -0.2,-0.5z" id="svg_272"/>
   </g>
   <g id="svg_273">
    <path class="st11" d="m573.2,338.2c0,0 10.2,0.8 1.9,-14.8c-3.6,-6.7 -3.2,-15.9 -3.7,-27c-0.2,-5.2 -0.5,-12.4 -0.3,-17.4c0.5,-12.6 -0.6,-21.7 -0.6,-21.7l-22.2,-6.6c0,0 -13.4,46.1 -23.3,53.5c-9.9,7.4 -9.8,24.3 -0.9,30.8c8.8,6.6 6.5,4.5 19,6.2c19.3,2.7 30.1,-3 30.1,-3z" id="svg_274"/>
    <g id="svg_275">
     <path class="st12" d="m539.4,340.5c-2.2,0.2 -4.4,-0.1 -6.6,-0.6c-0.3,-0.1 -0.5,-0.1 -0.8,-0.2l-0.8,-0.3c-0.5,-0.2 -1.1,-0.4 -1.6,-0.6c-0.5,-0.2 -1,-0.4 -1.5,-0.7c-0.5,-0.2 -1,-0.5 -1.5,-0.8c-0.5,-0.3 -1,-0.6 -1.4,-0.9l-1.4,-1c-0.4,-0.3 -0.9,-0.7 -1.3,-1.1c-0.2,-0.2 -0.4,-0.4 -0.7,-0.5l-0.6,-0.6c-1.7,-1.5 -3.1,-3.4 -4.4,-5.3c1.7,1.5 3.3,3.1 5,4.4c1.7,1.4 3.5,2.6 5.4,3.7c1.9,1.1 3.8,2 5.9,2.8c2,0.7 4.1,1.3 6.3,1.7z" id="svg_276"/>
    </g>
   </g>
   <g id="svg_277">
    <g id="svg_278">
     <path class="st1" d="m579.4,367.5c0,0 8.8,19 0.4,24.5c-3.5,2.3 -41.3,2.4 -43.9,-6.4c-2.6,-8.8 19.3,-10.9 19.3,-10.9l24.2,-7.2z" id="svg_279"/>
     <path class="st35" d="m550.7,382.5c-0.9,0.4 -1.7,0.9 -2.5,1.4c-0.8,0.5 -1.5,1.1 -2.1,1.9c-0.6,0.7 -1,1.6 -1.2,2.5c-0.2,0.9 0,1.9 0.3,2.9c-0.4,-0.9 -0.7,-1.9 -0.6,-3c0,-0.5 0.2,-1 0.4,-1.5c0.2,-0.5 0.5,-0.9 0.8,-1.3c0.6,-0.8 1.4,-1.4 2.3,-1.9c0.7,-0.5 1.6,-0.8 2.6,-1z" id="svg_280"/>
     <path class="st35" d="m544.7,380.3c-0.9,0.4 -1.7,0.9 -2.5,1.4c-0.8,0.5 -1.5,1.1 -2.1,1.9c-0.6,0.7 -1,1.6 -1.2,2.5c-0.2,0.9 0,1.9 0.3,2.9c-0.4,-0.9 -0.7,-1.9 -0.6,-3c0,-0.5 0.2,-1 0.4,-1.5c0.2,-0.5 0.5,-0.9 0.8,-1.3c0.6,-0.8 1.4,-1.4 2.3,-1.9c0.8,-0.4 1.7,-0.8 2.6,-1z" id="svg_281"/>
    </g>
    <path class="st11" d="m552.1,319.5c16.2,-7.5 37.7,20.7 29,45.7l-31.3,1.8c-0.1,0 -14,-40 2.3,-47.5z" id="svg_282"/>
    <path class="st12" d="m581.8,363.8c0,0 3.3,6.1 1.7,7.2c-1.6,1.1 -27.8,8.1 -33.9,2.2c-6.2,-5.9 3.9,-6.6 3.9,-6.6s22.4,-5.3 28.3,-2.8z" id="svg_283"/>
   </g>
   <g id="svg_284">
    <g id="svg_285">
     <g id="svg_286">
      <g id="svg_287">
       <path class="st1" d="m512,233c0.2,1.7 -0.1,-0.6 0,0l0,0z" id="svg_288"/>
       <path class="st1" d="m513.7,225.9c0.7,-1.1 1.7,-2.1 2.8,-3.1c0.5,-0.4 -2.6,-3.6 -2.5,-3.8c0.1,-0.6 4.9,2 5.4,1.7c1.1,-0.7 2.4,-1.4 3.7,-2c1.6,-0.7 -10.4,-9.1 -8.5,-9.7c1.5,-0.5 12.2,4.2 17.3,5.7c-0.1,-3.2 0.2,-7.8 0.9,-13c2.4,-18 8.5,-43.6 10.9,-48.2c3.1,-5.9 16.2,-9.1 26.1,0.8c2.6,2.6 4.7,12.8 5.4,24.5c0.5,8.3 0.2,17.3 -1.2,25c-1,5.8 0.5,10.7 0.3,13.3c0.1,0 0.3,0.1 0.4,0.1c1.4,0.5 9.5,-6.6 10.8,-6.1c1.2,0.5 -4.4,8.7 -3.4,9.2c2.8,1.5 5.5,1.6 7.3,3.4c1,1 11.9,1.6 12.5,2.7c0.6,1.1 -9.6,4.2 -9.4,5.3c0.1,0.6 0.1,1.1 0.1,1.7c0,0.3 0.4,-0.6 0.4,-0.3c0,0.3 8,2.6 8,2.9c-0.1,0.5 -9.3,1.2 -9.5,1.8c-0.4,0.9 -0.6,0.9 -1.3,1.8c-1,1.2 9.3,7.7 7.6,7.5c-0.7,-0.1 -5.9,-0.4 -10.8,0.2c-0.8,0.1 -4.9,3 -5.6,3.4c-1.7,1.2 -5.6,2.5 -6.8,2.8c-6.4,1.1 -11.1,1.2 -23.3,0.9c-12.1,-0.4 -22.4,-6.6 -29.7,-10.7c-1.3,-0.8 -6,1.3 -7.1,0.5c-1.1,-0.8 1.4,-4.6 0.5,-5.5c-1.6,-1.8 -2.7,-3.8 -3,-5.8c-0.1,-1.8 -6.8,-0.4 -6.6,-1c0.3,-1.2 7.6,-4.8 8.3,-6z" id="svg_289"/>
      </g>
      <path class="st2" d="m579.7,237.7c-1.2,0 -2.3,-0.4 -3.4,-1c-0.3,-0.2 -0.5,-0.3 -0.8,-0.5l-0.7,-0.6c-0.2,-0.2 -0.4,-0.5 -0.6,-0.7c-0.2,-0.2 -0.4,-0.5 -0.6,-0.8c-0.2,-0.3 -0.3,-0.6 -0.4,-0.8c-0.1,-0.3 -0.3,-0.6 -0.4,-0.9c-0.1,-0.3 -0.2,-0.6 -0.3,-0.9c-0.1,-0.3 -0.1,-0.6 -0.1,-0.9c0,-0.2 0,-0.3 -0.1,-0.5l0,-0.5l0,-0.9c0.1,-0.6 0.2,-1.2 0.3,-1.8c0.1,0.6 0.1,1.2 0.1,1.8l0.1,0.9l0.1,0.4c0,0.1 0.1,0.3 0.1,0.4c0.1,0.3 0.1,0.6 0.2,0.9c0.1,0.3 0.2,0.5 0.3,0.8c0.1,0.1 0.1,0.3 0.2,0.4l0.2,0.4c0.1,0.3 0.2,0.5 0.4,0.7c0.6,1 1.4,1.8 2.3,2.5c1.1,0.6 2.1,1.1 3.1,1.6z" id="svg_290"/>
      <path d="m576.4,225.9c2.3,-1.5 4.7,-2.9 7,-4.3c2.4,-1.4 4.8,-2.7 7.1,-4c2.4,-1.3 4.8,-2.6 7.2,-3.8c2.4,-1.2 4.9,-2.4 7.4,-3.6c-2.3,1.5 -4.7,2.9 -7,4.3c-2.4,1.4 -4.8,2.7 -7.1,4c-2.4,1.3 -4.8,2.6 -7.2,3.8c-2.5,1.2 -4.9,2.4 -7.4,3.6z" id="svg_291"/>
      <path d="m578.5,231.1c2.7,-0.7 5.5,-1.3 8.2,-1.8c2.7,-0.6 5.5,-1 8.3,-1.5c2.8,-0.5 5.5,-0.9 8.3,-1.3c2.8,-0.4 5.5,-0.8 8.3,-1c-2.7,0.7 -5.5,1.3 -8.2,1.8c-2.7,0.6 -5.5,1 -8.3,1.5c-2.8,0.5 -5.5,0.9 -8.3,1.3c-2.7,0.4 -5.5,0.8 -8.3,1z" id="svg_292"/>
      <path d="m577.8,238.3c2.7,-0.1 5.4,-0.1 8.1,-0.1c2.7,0 5.4,0.1 8.1,0.2c2.7,0.1 5.4,0.2 8.1,0.4c2.7,0.1 5.4,0.4 8.1,0.6c-2.7,0.1 -5.4,0.1 -8.1,0.1c-2.7,0 -5.4,-0.1 -8.1,-0.2c-2.7,-0.1 -5.4,-0.2 -8.1,-0.4c-2.7,-0.1 -5.4,-0.3 -8.1,-0.6z" id="svg_293"/>
      <path d="m521.5,222.4c-2.1,-1.3 -4.1,-2.6 -6.1,-4c-2,-1.4 -4,-2.8 -5.9,-4.2c-1.9,-1.5 -3.9,-2.9 -5.8,-4.4c-1.9,-1.5 -3.8,-3 -5.7,-4.6c2.1,1.3 4.1,2.6 6.1,4c2,1.4 4,2.8 5.9,4.2c1.9,1.5 3.9,2.9 5.8,4.4c1.9,1.4 3.8,2.9 5.7,4.6z" id="svg_294"/>
      <path d="m519.4,227.5c-2.3,-0.4 -4.7,-1 -7,-1.5c-2.3,-0.6 -4.6,-1.2 -6.9,-1.8c-2.3,-0.6 -4.6,-1.3 -6.9,-2c-2.3,-0.7 -4.6,-1.4 -6.8,-2.3c2.3,0.4 4.7,1 7,1.5c2.3,0.6 4.6,1.2 6.9,1.8c2.3,0.6 4.6,1.3 6.9,2c2.3,0.8 4.6,1.5 6.8,2.3z" id="svg_295"/>
      <path d="m519.7,234.8c-2.3,0.1 -4.6,0.2 -6.9,0.2c-2.3,0 -4.6,0 -6.9,-0.1c-2.3,-0.1 -4.6,-0.2 -6.9,-0.3c-2.3,-0.1 -4.6,-0.3 -6.9,-0.6c2.3,-0.1 4.6,-0.2 6.9,-0.2c2.3,0 4.6,0 6.9,0.1c2.3,0.1 4.6,0.2 6.9,0.3c2.3,0.1 4.6,0.3 6.9,0.6z" id="svg_296"/>
      <path class="st4" d="m529.9,235.8c3.8,-0.8 7.7,-1.4 11.6,-1.8c3.9,-0.5 7.8,-0.8 11.6,-1c3.9,-0.2 7.8,-0.2 11.7,0.1c1.9,0.2 3.9,0.4 5.8,0.9c0.5,0.1 1,0.2 1.4,0.4c0.5,0.2 0.9,0.3 1.4,0.5c0.9,0.4 1.8,0.9 2.5,1.6c-1.6,-1.2 -3.5,-1.7 -5.4,-2c-1.9,-0.3 -3.8,-0.5 -5.8,-0.6c-1.9,-0.1 -3.9,-0.1 -5.8,-0.1c-1.9,0 -3.9,0.1 -5.8,0.2c-1.9,0.1 -3.9,0.2 -5.8,0.3c-1.9,0.1 -3.9,0.3 -5.8,0.4c-3.8,0.4 -7.7,0.8 -11.6,1.1z" id="svg_297"/>
      <path class="st2" d="m540.6,242.4l-0.6,-7.6l7.1,-0.6l0.6,7.6l-7.1,0.6zm0,-7.1l0.5,6.6l6.2,-0.5l-0.5,-6.6l-6.2,0.5z" id="svg_298"/>
      <path class="st2" d="m547.7,241.6l-0.2,-7.6l7.1,-0.3l0.2,7.6l-7.1,0.3zm0.2,-7.1l0.2,6.6l6.2,-0.2l-0.2,-6.6l-6.2,0.2z" id="svg_299"/>
     </g>
     <ellipse transform="matrix(0.03504369,-0.9994,0.9994,0.03504369,299.2812,751.1799) " class="st5" cx="538.6" cy="220.6" rx="5.6" ry="8.3" id="svg_300"/>
    </g>
    <path class="st4" d="m573.6,218l-10.8,-1.2c-3.6,-0.4 -7.2,-0.8 -10.8,-1.1l-2.7,-0.2l-2.7,-0.2c-0.9,-0.1 -1.8,-0.1 -2.7,-0.2l-1.3,-0.1c-0.4,0 -0.9,-0.1 -1.3,-0.1l-2.7,-0.1l-2.7,0c-0.9,0 -1.8,0.1 -2.7,0.1c-0.5,0 -0.9,0.1 -1.3,0.2l-1.3,0.2c0.9,-0.2 1.8,-0.5 2.7,-0.6c0.9,-0.1 1.8,-0.3 2.7,-0.4l2.7,-0.2l2.7,-0.1c3.6,0 7.2,0.2 10.9,0.5c3.6,0.3 7.2,0.8 10.8,1.3c3.4,0.7 7,1.4 10.5,2.2z" id="svg_301"/>
   </g>
   <g id="svg_302">
    <g id="svg_303">
     <path class="st12" d="m564.8,265.7c0,0 15.2,35.4 7.5,36.6c-7.7,1.2 -14.2,-35.1 -14,-36.1c0.4,-1 6.5,-0.5 6.5,-0.5z" id="svg_304"/>
     <path class="st12" d="m548.3,267c0,0 -10.4,37.3 -2.6,37.3c7.8,0.1 9.5,-36.9 9.1,-37.8s-6.5,0.5 -6.5,0.5z" id="svg_305"/>
     <path class="st13" d="m555.4,261.9c0.2,-1.2 1,-2.2 2.2,-2.9c-1,-0.8 -1.7,-1.8 -1.7,-2.9c-0.2,-3 3.8,-5.8 9,-6.2c5.2,-0.4 9.5,1.8 9.7,4.8c0.1,1.9 -1.3,3.6 -3.7,4.8c2.1,1.3 3.4,3 3.1,4.8c-0.4,3 -4.9,4.9 -10,4.2s-9,-3.6 -8.6,-6.6z" id="svg_306"/>
     <path class="st13" d="m556.8,262.2c-0.1,-1.2 -0.9,-2.2 -2.1,-3c1,-0.8 1.7,-1.8 1.8,-2.9c0.3,-3 -3.6,-5.8 -8.8,-6.3c-5.1,-0.4 -9.5,1.6 -9.8,4.6c-0.2,1.8 1.2,3.6 3.5,4.8c-2.2,1.3 -3.4,3 -3.3,4.8c0.3,3 4.7,5 9.9,4.4c5.2,-0.5 9.1,-3.4 8.8,-6.4z" id="svg_307"/>
     <ellipse transform="matrix(0.9993,-0.03710052,0.03710052,0.9993,-9.2525,20.8165) " class="st14" cx="556.3" cy="259.7" rx="5.4" ry="6.2" id="svg_308"/>
     <ellipse transform="matrix(0.6573,-0.7537,0.7537,0.6573,1.7802,514.5261) " class="st15" cx="566.6" cy="255.3" rx="2.6" ry="2.6" id="svg_309"/>
     <ellipse transform="matrix(0.6573,-0.7537,0.7537,0.6573,-3.6878,515.6675) " class="st15" cx="565.1" cy="261.9" rx="2.6" ry="2.6" id="svg_310"/>
     <ellipse transform="matrix(0.6573,-0.7537,0.7537,0.6573,-5.0892,499.2966) " class="st15" cx="546.4" cy="255.2" rx="2.6" ry="2.6" id="svg_311"/>
     <ellipse transform="matrix(0.6573,-0.7537,0.7537,0.6573,-11.4282,501.5399) " class="st15" cx="545.7" cy="263.3" rx="2.6" ry="2.6" id="svg_312"/>
    </g>
    <ellipse transform="matrix(0.6573,-0.7537,0.7537,0.6573,-23.3781,528.2839) " class="st15" cx="569.2" cy="289.8" rx="2.6" ry="2.6" id="svg_313"/>
    <ellipse transform="matrix(0.6573,-0.7537,0.7537,0.6573,-31.8771,512.7717) " class="st15" cx="547.9" cy="291.4" rx="2.6" ry="2.6" id="svg_314"/>
   </g>
   <g id="advertise_copy">
    <path class="st37" d="m144.9,409.1c0,0 195.6,-18.8 259.9,-13.6c25.2,2 95.4,13.6 95.4,13.6c3.7,0 6.8,-3.4 6.8,-7.6l0,-126.4c0,-4.2 -3.1,-7.6 -6.8,-7.6c0,0 -127.3,-6.2 -169.2,0c-25,3.7 -78.7,5.3 -108.7,8.1c-22.3,2.1 -77.5,-8.1 -77.5,-8.1c-3.7,0 -6.8,3.4 -6.8,7.6l0,126.5c0.1,4.1 3.1,7.5 6.9,7.5z" id="svg_315"/>
   </g>
   <g id="svg_316">
    <g id="svg_317">
     <g id="svg_318">
      <ellipse transform="matrix(0.02076668,-0.9998,0.9998,0.02076668,228.5826,810.2966) " class="st6" cx="527.9" cy="288.5" rx="12.1" ry="4" id="svg_319"/>
      <g id="svg_320">
       <path class="st6" d="m526.9,288.7c-0.2,-13.5 -2.1,-11 -5.6,-12.8c-1,-2.8 -3.1,-7.9 -8.7,-7.6c-4.8,0.3 -2,3.7 -2.3,5.9c-2.5,0 -13.3,0.6 -15.9,0.9c-5.4,0.7 -10.5,-0.1 -9.2,6.6c1.3,7 4.9,4.9 10.3,4.2c0,0 5.4,-1 5.5,-1c0,0.3 0,0.7 0,1c-0.3,0.1 -5.9,1.1 -6.1,1.1c-5.3,1.2 -10.4,1 -8.6,7.5c1.9,6.8 5.4,4.3 10.7,3.1c0.7,-0.2 4.5,-1.3 5.3,-1.6c0.2,0.3 0.5,0.6 0.8,0.9c-4.7,2.4 -12.3,4.6 -9.1,10.2c3.4,6.1 6.2,2.7 11.1,0.1c2.1,-1.1 4.3,-3 6.2,-5.1c7.4,0.1 15.7,0.1 15.6,-13.4z" id="svg_321"/>
       <path class="st7" d="m506.5,278.4l0.1,4.7c0.1,1.5 0.1,3.1 0.3,4.6c0.2,1.5 0.4,3 0.7,4.5c0.3,1.5 0.8,2.9 1.4,4.4c-1.1,-1.1 -1.9,-2.5 -2.4,-4c-0.5,-1.5 -0.8,-3.1 -1,-4.7c-0.1,-1.6 -0.1,-3.2 0,-4.8c0.1,-1.7 0.4,-3.3 0.9,-4.7z" id="svg_322"/>
       <path class="st7" d="m526.2,277.8c-0.4,1.6 -0.7,3.2 -1,4.9c-0.3,1.6 -0.5,3.3 -0.6,4.9c-0.2,1.6 -0.1,3.3 -0.1,4.9c0.1,1.6 0.3,3.3 0.6,4.9c-0.2,-0.4 -0.3,-0.8 -0.4,-1.2c-0.1,-0.2 -0.1,-0.4 -0.2,-0.6l-0.2,-0.6c-0.1,-0.4 -0.2,-0.8 -0.3,-1.2l-0.2,-1.3c-0.2,-1.7 -0.3,-3.4 -0.1,-5.1c0.1,-1.7 0.4,-3.4 0.8,-5c0.4,-1.5 1,-3.1 1.7,-4.6z" id="svg_323"/>
      </g>
     </g>
     <path class="st7" d="m530.4,283.9c-0.9,1.5 -1.7,2.9 -2.2,4.5c-0.2,0.8 -0.4,1.6 -0.4,2.4c0,0.8 0.1,1.6 0.3,2.5c-0.5,-0.7 -0.9,-1.5 -1,-2.5c-0.1,-0.9 0,-1.9 0.2,-2.7c0.3,-0.9 0.7,-1.7 1.2,-2.4c0.6,-0.7 1.2,-1.3 1.9,-1.8z" id="svg_324"/>
    </g>
    <path class="st1" d="m528.7,293.3c1.8,1.1 57.2,-8.3 57.2,-8.3l-1.4,-2.3l4.3,-3.2l-3.9,-1.6l-10.4,-25.1l-5.9,6.4l3.7,6.6l3.5,10.8c0,0 -37.7,6.6 -43,6.7c-4.5,0.2 -5.9,8.9 -4.1,10z" id="svg_325"/>
   </g>
   <g id="svg_326">
    <path class="st9" d="m615.4,191.2c0,0 -13.8,-42.6 -20,-40.9s-21.1,23.3 -21.1,23.3l2,-17.3c0,0 4.7,-28.2 23.6,-19.8c19,8.4 27.4,55.3 15.5,54.7z" id="svg_327"/>
    <path class="st1" d="m569.6,170.5c0,0 8.4,-70.4 48.8,-38.4s5.7,67.3 -3.4,58.1c-3.1,-3.1 7.9,-37.7 -16.4,-45.2c-12.1,-3.8 -23.3,33.9 -25.1,32.4l-3.9,-6.9z" id="svg_328"/>
   </g>
   <g id="svg_329">
    <path class="st9" d="m495.2,182.6c0,0 19.8,-39.9 25.7,-37.1s17.5,26.5 17.5,26.5l0.5,-17.4c0,0 -0.6,-28.7 -20.5,-23.5c-19.9,5.3 -35,50.2 -23.2,51.5z" id="svg_330"/>
    <path class="st1" d="m543.5,169.7c0,0 1.8,-70.9 -42.7,-45.9c-44.5,25 -15.3,65.6 -5,57.9c3.5,-2.6 -2.3,-38.3 22.7,-42c12.9,-1.9 20.2,36.1 20.2,36.1l4.8,-6.1z" id="svg_331"/>
   </g>
   <path class="st20" d="m574.3,174.5c3.2,-1.1 -3.9,-25.6 -12.3,-30.7s-11.6,-6 -11.6,-6l8.5,10.9c0,0 -23,-10.4 -25.9,-9.3c-2.9,1.1 14.2,11.8 14.2,11.8s-16.7,-7 -19.9,-6.5c-3.2,0.5 14.4,13.9 14.4,13.9s-12.3,-5.5 -13.9,-5.7c-1.5,-0.1 7.2,16.4 10,19.5c2.9,3 33.3,3.2 36.5,2.1z" id="svg_332"/>
   <g id="eye-closed">
    <path class="st35" d="m571.6,186.4c-1,1.1 -2.1,2.2 -3.1,3.3c-1.1,1.1 -2.1,2.1 -3.2,3.2c-1.1,1.1 -2.2,2.1 -3.3,3.1l-3.3,3.1l0,-1.1c1,0.9 2.1,1.8 3.1,2.8c1,0.9 2.1,1.9 3.1,2.9c1,1 2,1.9 3,2.9c1,1 2,2 3,3c-1.1,-0.8 -2.3,-1.6 -3.4,-2.5c-1.1,-0.9 -2.2,-1.7 -3.3,-2.6c-1.1,-0.9 -2.2,-1.8 -3.2,-2.7c-1.1,-0.9 -2.1,-1.8 -3.2,-2.7l-0.6,-0.5l0.6,-0.6l3.4,-3c1.1,-1 2.3,-2 3.4,-2.9c1.1,-1 2.3,-1.9 3.5,-2.9c1.1,-1 2.3,-1.9 3.5,-2.8z" id="svg_333"/>
    <path class="st35" d="m571.3,198c-1.1,0.4 -2.2,0.5 -3.2,0.7c-1.1,0.2 -2.2,0.2 -3.2,0.3c-1.1,0 -2.2,0 -3.3,0c-1.1,-0.1 -2.2,-0.2 -3.3,-0.4c1.1,-0.4 2.2,-0.6 3.2,-0.7c1.1,-0.2 2.2,-0.2 3.2,-0.3c1.1,0 2.2,0 3.3,0c1.1,0 2.2,0.1 3.3,0.4z" id="svg_334"/>
   </g>
   <g id="svg_335">
    <g id="svg_336">
     <ellipse transform="matrix(0.02672142,-0.9996,0.9996,0.02672142,335.0967,734.3618) " class="st1" cx="544.7" cy="195.1" rx="17.7" ry="8.8" id="svg_337"/>
     <path class="st4" d="m544.3,213.3c-0.1,0 -0.1,0 -0.2,0c-2.5,-0.1 -4.8,-2.1 -6.5,-5.6c-1.6,-3.5 -2.4,-8 -2.3,-12.8c0.3,-10 4.6,-18 9.8,-17.9c5.1,0.2 9,8.4 8.8,18.5c-0.2,9.8 -4.5,17.8 -9.6,17.8zm-8.4,-18.5l0.5,0c-0.1,4.6 0.6,9 2.2,12.3c1.5,3.2 3.5,5 5.7,5.1c0,0 0.1,0 0.1,0c4.5,0 8.4,-7.5 8.7,-16.9c0.3,-9.5 -3.3,-17.3 -7.9,-17.4c0,0 -0.1,0 -0.1,0c-4.5,0 -8.4,7.5 -8.7,16.9l-0.5,0z" id="svg_338"/>
    </g>
    <g id="svg_339">
     <ellipse transform="matrix(0.02587374,-0.9997,0.9997,0.02587374,334.954,735.0922) " class="st19" cx="544.7" cy="195.7" rx="8.8" ry="5.3" id="svg_340"/>
     <ellipse transform="matrix(0.01591803,-0.9999,0.9999,0.01591803,339.4693,737.0958) " cx="544.2" cy="196.1" rx="3.3" ry="2.9" id="svg_341"/>
     <ellipse transform="matrix(0.01591803,-0.9999,0.9999,0.01591803,344.6716,737.9584) " class="st1" cx="547.2" cy="193.9" rx="2.1" ry="1.8" id="svg_342"/>
    </g>
   </g>
   <g id="eye-open">
    <g id="svg_343">
     <ellipse transform="matrix(0.02672142,-0.9996,0.9996,0.02672142,354.5623,754.3547) " class="st1" cx="564.7" cy="195.1" rx="17.7" ry="8.8" id="svg_344"/>
     <path class="st4" d="m564.3,213.3c-0.1,0 -0.1,0 -0.2,0c-2.5,-0.1 -4.8,-2.1 -6.5,-5.6c-1.6,-3.5 -2.4,-8 -2.3,-12.8c0.3,-10 4.6,-18 9.8,-17.9c5.1,0.2 9,8.4 8.8,18.5c-0.2,9.8 -4.5,17.8 -9.6,17.8zm-8.4,-18.5l0.5,0c-0.1,4.6 0.6,9 2.2,12.3c1.5,3.2 3.5,5 5.7,5.1c0,0 0.1,0 0.1,0c4.5,0 8.4,-7.5 8.7,-16.9c0.3,-9.5 -3.3,-17.3 -7.9,-17.4c0,0 -0.1,0 -0.1,0c-4.5,0 -8.4,7.5 -8.7,16.9l-0.5,0z" id="svg_345"/>
    </g>
    <g id="svg_346">
     <ellipse transform="matrix(0.02587374,-0.9997,0.9997,0.02587374,354.4365,755.0855) " class="st19" cx="564.7" cy="195.7" rx="8.8" ry="5.3" id="svg_347"/>
     <ellipse transform="matrix(0.01591803,-0.9999,0.9999,0.01591803,359.1509,757.0933) " cx="564.2" cy="196.1" rx="3.3" ry="2.9" id="svg_348"/>
     <ellipse transform="matrix(0.01591803,-0.9999,0.9999,0.01591803,364.3532,757.9559) " class="st1" cx="567.2" cy="193.9" rx="2.1" ry="1.8" id="svg_349"/>
    </g>
   </g>
   <g id="svg_350">
    <path class="st21" d="m571.9,168.3c0,0 -8,-7.9 -9.5,-5.4c-1.5,2.4 9.5,5.4 9.5,5.4z" id="svg_351"/>
    <path class="st21" d="m537.1,167.2c0,0 8.4,-7.4 9.8,-4.8c1.3,2.5 -9.8,4.8 -9.8,4.8z" id="svg_352"/>
   </g>
  </g>
  <g id="split">
   <g id="advertise2">
    <path class="st37" d="m144.1,403.1c0,0 195.5,-18 259.9,-13c25.2,1.9 95.4,13 95.4,13c3.7,0 6.8,-3.3 6.8,-7.2l0,-121.3c0,-4 -3.1,-7.2 -6.8,-7.2c0,0 -127.2,-5.9 -169.2,0c-25,3.5 -78.7,5.1 -108.6,7.8c-22.3,2 -77.4,-7.8 -77.4,-7.8c-3.7,0 -6.8,3.3 -6.8,7.2l0,121.2c-0.1,4 2.9,7.3 6.7,7.3z" id="svg_353"/>
   </g>
   <g id="svg_354">
    <g id="svg_355">
     <path d="m539.7,259.3c-1.5,-0.1 -3,-0.4 -4.5,-0.6c-1.5,-0.3 -3,-0.6 -4.4,-0.9c-1.5,-0.3 -2.9,-0.7 -4.4,-1.1c-1.5,-0.4 -2.9,-0.8 -4.3,-1.4c1.5,0.1 3,0.4 4.5,0.6c1.5,0.3 3,0.6 4.4,0.9c1.5,0.3 2.9,0.7 4.4,1.1c1.5,0.4 2.9,0.9 4.3,1.4z" id="svg_356"/>
     <path d="m540.2,263.1c-1.4,0.5 -2.8,0.9 -4.2,1.2c-1.4,0.4 -2.8,0.6 -4.2,0.9c-1.4,0.3 -2.8,0.5 -4.2,0.7c-1.4,0.2 -2.8,0.4 -4.3,0.5c1.4,-0.5 2.8,-0.9 4.2,-1.2c1.4,-0.4 2.8,-0.6 4.2,-0.9c1.4,-0.3 2.8,-0.5 4.2,-0.7c1.4,-0.2 2.8,-0.4 4.3,-0.5z" id="svg_357"/>
     <path d="m542.5,267.6c-1.2,0.8 -2.4,1.5 -3.6,2.2c-1.2,0.7 -2.4,1.3 -3.7,2c-1.2,0.6 -2.5,1.2 -3.8,1.8c-1.3,0.6 -2.5,1.1 -3.9,1.5c1.2,-0.8 2.4,-1.5 3.6,-2.2c1.2,-0.7 2.4,-1.3 3.7,-2c1.2,-0.6 2.5,-1.2 3.8,-1.8c1.3,-0.5 2.6,-1.1 3.9,-1.5z" id="svg_358"/>
     <g id="svg_359">
      <g id="svg_360">
       <path class="st1" d="m596.1,254.2c0,1.6 0,-0.5 0,0l0,0z" id="svg_361"/>
       <path class="st1" d="m594.2,248.2c-0.7,-0.9 -1.5,-1.7 -2.5,-2.5c-0.4,-0.3 1.7,-3.3 1.7,-3.5c-0.2,-0.5 -3.7,2.1 -4.1,1.9c-0.9,-0.5 -2,-1 -3.1,-1.4c-1.3,-0.5 7.4,-8.7 5.9,-9.1c-1.2,-0.3 -9.2,4.6 -13,6.4c-0.2,-2.8 -0.8,-6.8 -1.8,-11.2c-3.4,-15.5 -8.4,-28.6 -10.7,-32.4c-2.9,-4.9 -12.1,-6.8 -19.6,-2.2c-2.5,1.6 -5.3,7.8 -4.8,18.1c0.3,7.3 1.3,15.1 3,21.7c1.3,5 0.5,9.4 0.9,11.6c-0.1,0.1 -0.2,0.1 -0.3,0.2c-1.1,0.5 -8,-5 -9,-4.4c-0.9,0.5 4.2,7.2 3.4,7.8c-2.1,1.5 -4.2,1.8 -5.4,3.5c-0.7,1 -9.2,2.4 -9.6,3.4c-0.4,1 7.9,2.9 7.8,3.9c0,0.5 0,1 0.1,1.5c0,0.3 -0.4,-0.5 -0.3,-0.2c0.1,0.2 -6.1,3 -6,3.2c0.1,0.5 7.4,0.3 7.6,0.8c0.4,0.8 0.5,0.8 1.2,1.5c0.8,1 -6.6,7.5 -5.3,7.1c0.6,-0.2 4.6,-0.8 8.5,-0.7c0.6,0 4.1,2.2 4.6,2.5c1.4,0.9 4.6,1.8 5.6,1.8c5.1,0.4 8.8,0.2 18.3,-1.1c9.4,-1.3 17,-7.6 22.3,-11.8c1,-0.8 4.8,0.7 5.6,-0.2s-1.4,-3.9 -0.9,-4.8c1.1,-1.7 1.8,-3.5 1.9,-5.3c-0.1,-1.5 5.3,-0.9 5.1,-1.4c-0.4,-1.1 -6.4,-3.7 -7.1,-4.7z" id="svg_362"/>
      </g>
      <path d="m584.9,247.9c1.7,-1.1 3.4,-2.2 5.1,-3.2c1.7,-1 3.5,-2 5.3,-3c1.8,-1 3.5,-1.9 5.4,-2.8c1.8,-0.9 3.6,-1.8 5.5,-2.5c-1.7,1.1 -3.4,2.2 -5.1,3.2c-1.7,1 -3.5,2 -5.3,3c-1.8,1 -3.6,1.9 -5.4,2.8c-1.8,0.9 -3.7,1.7 -5.5,2.5z" id="svg_363"/>
      <path d="m586.6,251.6c2,-0.6 4.1,-1.1 6.1,-1.5c2,-0.5 4.1,-0.9 6.1,-1.3c2.1,-0.4 4.1,-0.8 6.2,-1.1c2.1,-0.3 4.1,-0.6 6.2,-0.8c-2,0.6 -4.1,1.1 -6.1,1.5c-2,0.5 -4.1,0.9 -6.1,1.3c-2.1,0.4 -4.1,0.8 -6.2,1.1c-2.1,0.3 -4.1,0.6 -6.2,0.8z" id="svg_364"/>
      <path d="m586.2,256.6c2,-0.2 4.1,-0.3 6.1,-0.4c2,-0.1 4.1,-0.1 6.1,-0.1c2,0 4.1,0 6.1,0.1c2,0.1 4.1,0.2 6.1,0.4c-2,0.2 -4.1,0.3 -6.1,0.4c-2,0.1 -4.1,0.1 -6.1,0.1c-2,0 -4.1,0 -6.1,-0.1c-2.1,-0.1 -4.1,-0.2 -6.1,-0.4z" id="svg_365"/>
     </g>
    </g>
    <path class="st4" d="m541.4,250.3c3.1,-1.4 6.2,-2.7 9.3,-3.9c3.1,-1.2 6.3,-2.3 9.5,-3.3c3.2,-1 6.5,-1.9 9.7,-2.6l2.5,-0.5l2.5,-0.4c0.8,-0.1 1.7,-0.2 2.5,-0.2c0.8,-0.1 1.7,0 2.5,0l-1.2,0.1c-0.4,0 -0.8,0 -1.2,0.1c-0.8,0.2 -1.6,0.3 -2.5,0.4l-2.4,0.5l-2.4,0.6c-0.8,0.2 -1.6,0.5 -2.4,0.7c-0.8,0.2 -1.6,0.4 -2.4,0.7l-2.4,0.7l-2.4,0.8c-3.2,1 -6.4,2.1 -9.6,3.1l-9.6,3.2z" id="svg_366"/>
    <ellipse transform="matrix(0.9644,-0.2643,0.2643,0.9644,-46.9051,155.0491) " class="st5" cx="552.8" cy="251.8" rx="9.2" ry="5.5" id="svg_367"/>
   </g>
   <g id="svg_368">
    <path class="st9" d="m622.9,239.1c0,0 -16.3,-35.3 -21.8,-33.3c-5.6,2.1 -27.7,10.2 -27.7,10.2l0,0c0,0 12.6,-28 30.7,-22.4c18.1,5.7 29.8,45 18.8,45.5z" id="svg_369"/>
    <path class="st1" d="m569.2,210.6c0,0 11.7,-46.2 51.5,-22.2c39.8,24 10.9,57.1 1.7,50c-3.1,-2.4 4.1,-32.7 -18.8,-37.3c-11.8,-2.4 -30.2,15.1 -30.2,15.1l-4.2,-5.6z" id="svg_370"/>
   </g>
   <g id="svg_371">
    <path class="st9" d="m615.1,171.5c0,0 -57.5,8.9 -61.1,14.5c-3.7,5.7 -3.3,28.1 -3.3,28.1l-7.8,-10.4c0,0 -11.6,-18 7.1,-28.2s74.4,-12.9 65.1,-4z" id="svg_372"/>
    <path class="st1" d="m543,215.3c0,0 -31.2,-39.2 10.5,-59.1c41.7,-19.9 71.1,12.5 60.2,16.1c-3.6,1.2 -50.6,-8.8 -67.7,8c-8.8,8.7 3.6,34.7 3.6,34.7l-6.6,0.3z" id="svg_373"/>
   </g>
   <path class="st20" d="m542.3,215.3c-3.2,-0.3 -1,-24.9 6.1,-31.5c7,-6.6 10,-8.1 10,-8.1l-6.2,12.1c0,0 20.1,-14.7 23.1,-14.4s-9.8,12.1 -9.8,12.1s13.1,-8.1 16.2,-8.4c3.1,-0.2 -11.1,13.3 -11.1,13.3s10.6,-5 12.1,-5.5s-5.7,15.8 -7.9,19.3c-2,3.5 -29.2,11.4 -32.5,11.1z" id="svg_374"/>
   <g id="svg_375">
    <g id="svg_376">
     <g id="svg_377">
      <ellipse transform="matrix(0.9779,-0.209,0.209,0.9779,-35.3214,123.1501) " class="st1" cx="565.2" cy="228.7" rx="7.1" ry="13.2" id="svg_378"/>
      <path class="st4" d="m567.1,242.2c-3.8,0 -7.8,-4.9 -9.3,-11.6c-1.7,-7.3 0.3,-14.2 4.3,-15.2c2,-0.5 4.2,0.4 6.2,2.6c1.9,2.2 3.4,5.3 4.2,8.8l0,0c1.7,7.3 -0.3,14.2 -4.3,15.2c-0.4,0.1 -0.7,0.2 -1.1,0.2zm-3.8,-25.9c-0.3,0 -0.6,0 -0.9,0.1c-3.5,0.9 -5.2,7.2 -3.6,14c1.5,6.8 5.7,11.6 9.2,10.7c3.5,-0.9 5.2,-7.2 3.6,-14c-0.8,-3.3 -2.2,-6.3 -4,-8.3c-1.4,-1.7 -2.9,-2.5 -4.3,-2.5z" id="svg_379"/>
     </g>
     <g id="svg_380">
      <ellipse transform="matrix(0.9797,-0.2002,0.2002,0.9797,-34.6098,117.5561) " class="st19" cx="563.8" cy="229.9" rx="4.2" ry="6.6" id="svg_381"/>
      <ellipse cx="564.2" cy="230.1" rx="2.3" ry="2.5" id="svg_382"/>
      <ellipse class="st1" cx="561.5" cy="229" rx="1.5" ry="1.5" id="svg_383"/>
     </g>
    </g>
    <g id="svg_384">
     <g id="svg_385">
      <ellipse transform="matrix(0.9779,-0.209,0.209,0.9779,-36.5036,120.1688) " class="st1" cx="550.5" cy="232.8" rx="7.1" ry="13.2" id="svg_386"/>
      <path class="st4" d="m552.4,246.3c-3.8,0 -7.8,-4.9 -9.3,-11.6c-1.7,-7.3 0.3,-14.2 4.3,-15.2c2,-0.5 4.2,0.4 6.2,2.6c1.9,2.2 3.4,5.3 4.2,8.8c0.8,3.5 0.8,7 0,9.8c-0.8,2.9 -2.3,4.8 -4.3,5.3c-0.4,0.2 -0.7,0.3 -1.1,0.3zm-3.8,-25.9c-0.3,0 -0.6,0 -0.9,0.1c-3.5,0.9 -5.2,7.2 -3.6,14c1.5,6.8 5.7,11.6 9.2,10.7c1.7,-0.4 3,-2.1 3.7,-4.7c0.7,-2.7 0.7,-6 0,-9.3l0,0c-0.8,-3.3 -2.2,-6.3 -4,-8.3c-1.5,-1.7 -3,-2.5 -4.4,-2.5z" id="svg_387"/>
     </g>
     <g id="svg_388">
      <ellipse transform="matrix(0.9797,-0.2002,0.2002,0.9797,-35.6942,114.6077) " class="st19" cx="548.7" cy="233.8" rx="4.2" ry="6.6" id="svg_389"/>
      <ellipse cx="549.3" cy="233.9" rx="2.3" ry="2.5" id="svg_390"/>
      <ellipse class="st1" cx="546.6" cy="232.8" rx="1.5" ry="1.5" id="svg_391"/>
     </g>
    </g>
   </g>
   <g id="svg_392">
    <path class="st21" d="m537,207.2c0,0 5.9,-8.3 7.7,-6.5c1.8,1.8 -7.7,6.5 -7.7,6.5z" id="svg_393"/>
    <path class="st21" d="m568.3,199.2c0,0 -8.8,-4.5 -9.6,-2.1s9.6,2.1 9.6,2.1z" id="svg_394"/>
   </g>
   <g id="svg_395">
    <path class="st16" d="m586,264.7l-35.3,11.9c0,0 -1.5,-17.2 11.9,-22.3c18.5,-7 23.4,10.4 23.4,10.4z" id="svg_396"/>
    <path class="st17" d="m571.2,258.4l-3.7,1.7c-0.5,0.2 -1,-0.1 -1.2,-0.7l-1.5,-4.6c-0.2,-0.6 -1,-1.6 0.5,-1.5l3.7,-1.7c1,-1.1 1,0.1 1.2,0.7l1.5,4.6c0.3,0.6 0,1.2 -0.5,1.5z" id="svg_397"/>
    <path class="st17" d="m565.3,260.6l-3.7,1.7c-0.5,0.2 -1,-0.1 -1.2,-0.7l-1.5,-4.6c-0.2,-0.6 -1,-1.6 0.5,-1.5l3.7,-1.7c1,-1.1 1,0.1 1.2,0.7l1.5,4.6c0.2,0.6 -0.1,1.3 -0.5,1.5z" id="svg_398"/>
    <path class="st18" d="m575,268.4c-0.4,-2.2 -3.7,-3.7 -7.5,-2.6c-3.8,1.1 -6.4,4.9 -6,7.1c0,0 3.3,-1.2 7.1,-2.4s6.4,-2.1 6.4,-2.1z" id="svg_399"/>
   </g>
   <g id="svg_400">
    <g id="svg_401">
     <path class="st1" d="m660.4,345.2c0,0 18.4,9.8 13.1,18c-2.2,3.4 -38.4,21.7 -45.5,16.5c-7.1,-5.2 12.9,-17.3 12.9,-17.3l19.5,-17.2z" id="svg_402"/>
     <path class="st35" d="m640.6,370.1c-0.6,0.7 -1.1,1.4 -1.6,2.1c-0.5,0.8 -0.9,1.6 -1.1,2.4c-0.2,0.8 -0.2,1.8 0.2,2.5c0.4,0.8 1,1.4 1.7,2c-0.8,-0.4 -1.6,-0.9 -2.1,-1.8c-0.2,-0.4 -0.4,-0.9 -0.5,-1.4c0,-0.5 0,-1 0.1,-1.5c0.2,-0.9 0.7,-1.8 1.3,-2.5c0.7,-0.6 1.3,-1.3 2,-1.8z" id="svg_403"/>
     <path class="st35" d="m633.8,371.4c-0.6,0.7 -1.1,1.4 -1.6,2.1c-0.5,0.8 -0.9,1.6 -1.1,2.4c-0.2,0.8 -0.2,1.8 0.2,2.5c0.4,0.8 1,1.4 1.7,2c-0.8,-0.4 -1.6,-0.9 -2.1,-1.8c-0.2,-0.4 -0.4,-0.9 -0.5,-1.4c0,-0.5 0,-1 0.1,-1.5c0.2,-0.9 0.7,-1.8 1.3,-2.5c0.7,-0.6 1.3,-1.3 2,-1.8z" id="svg_404"/>
    </g>
    <path class="st38" d="m609.3,322.9c11.7,-13.4 46.9,-2.8 51.6,19.8l-29.2,16.4c0,0.1 -34.2,-22.9 -22.4,-36.2z" id="svg_405"/>
    <path class="st12" d="m660.8,341.3c0,0 6.3,2.9 5.4,4.5c-1,1.6 -22.5,19.4 -31.5,18c-9,-1.4 0.3,-6.8 0.3,-6.8s18.8,-14.7 25.8,-15.7z" id="svg_406"/>
   </g>
   <g id="svg_407">
    <g id="svg_408">
     <g id="svg_409">
      <path class="st39" d="m515.5,286.1c0.7,14.1 -6.6,13.7 -14.7,13.7s-5.7,-6.2 -5.7,-13.8s2.9,-13.7 5.7,-13.6c8.1,0 13.9,-2.4 14.7,13.7z" id="svg_410"/>
      <path class="st39" d="m501.3,276.1c-0.7,2.9 -6.1,3.9 -12.2,2.3c-6.1,-1.6 -8,-3.8 -7.4,-6.7c1.5,-6.5 3.7,-5.3 9.8,-3.7c6.1,1.6 10.5,5.2 9.8,8.1z" id="svg_411"/>
      <path class="st39" d="m499.6,285.7c-0.2,3 -5.4,5 -11.7,4.5c-6.2,-0.5 -8.5,-2.3 -8.3,-5.3c0.4,-6.6 2.8,-5.9 9,-5.4c6.3,0.4 11.2,3.2 11,6.2z" id="svg_412"/>
      <path class="st39" d="m500.8,296c0.4,2.9 -4.3,6.1 -10.5,7s-8.8,-0.3 -9.2,-3.2c-0.9,-6.6 1.6,-6.4 7.7,-7.4s11.6,0.7 12,3.6z" id="svg_413"/>
      <path class="st7" d="m506.4,296.3c-0.9,-1.2 -1.5,-2.5 -2.1,-3.9c-0.5,-1.4 -0.9,-2.8 -1.1,-4.3c-0.2,-1.5 -0.2,-3.1 0.1,-4.6c0.3,-1.5 1.1,-2.9 2.3,-3.8c-0.7,1.3 -1.1,2.6 -1.2,4c-0.1,1.4 0,2.8 0.2,4.2c0.2,1.4 0.5,2.8 0.8,4.2l1,4.2z" id="svg_414"/>
      <path class="st6" d="m510.9,275c0.7,2.7 -2.3,6.8 -7,8.2c-4.7,1.4 -8.6,1.9 -9.9,-3.2c-1.3,-4.9 2.5,-6 7.2,-7.4c4.6,-1.4 9,-0.3 9.7,2.4z" id="svg_415"/>
      <ellipse class="st6" cx="516.6" cy="285.9" rx="4.5" ry="11.4" id="svg_416"/>
      <path class="st7" d="m513.9,294.9c-0.7,-1.3 -1.2,-2.7 -1.6,-4.2c-0.4,-1.4 -0.7,-2.9 -0.8,-4.4c-0.1,-1.5 -0.1,-3.1 0.2,-4.6c0.3,-1.5 0.9,-3 1.8,-4.1c-0.5,1.4 -0.7,2.8 -0.8,4.3c-0.1,1.4 0,2.9 0.1,4.3c0.1,1.4 0.3,2.9 0.4,4.3c0.3,1.5 0.5,2.9 0.7,4.4z" id="svg_417"/>
      <path class="st7" d="m517.8,290.6c-0.5,-0.7 -0.9,-1.4 -1.1,-2.2c-0.3,-0.8 -0.4,-1.6 -0.5,-2.5c-0.1,-0.9 0,-1.7 0.2,-2.6c0.2,-0.8 0.7,-1.7 1.4,-2.1c-0.3,0.8 -0.3,1.6 -0.4,2.3c0,0.8 0,1.5 0.1,2.3l0.2,2.4c0,0.8 0.1,1.6 0.1,2.4z" id="svg_418"/>
     </g>
     <path class="st1" d="m517.8,290.6c1,0.9 40.5,0.8 40.5,0.8l4.7,0.3l5.8,8.4l2.2,-6.8l4.3,4.4l-1,-9.7l7.3,0l-3.8,-12.8l-11.4,6.1c0,0 -40.6,-0.3 -45.9,-1c-4.5,-0.7 -4.4,8.9 -2.7,10.3z" id="svg_419"/>
    </g>
   </g>
   <g id="svg_420">
    <path class="st11" d="m617.6,338.6c0,0 -10.9,-2.4 -16,-13.1c-2.6,-5.5 -6.4,-11.7 -11.9,-19.1c-2.6,-3.5 -6.2,-8.2 -8.8,-11.3c-6.9,-7.8 -11,-14.2 -11,-14.2l9.3,-14.5c0,0 31.7,23.4 41.3,23.6c9.6,0.2 26.9,-0.1 25.2,8.2c-1.7,8.3 -1.9,16.7 -8.2,23.6c-9.7,10.6 -19.9,16.8 -19.9,16.8z" id="svg_421"/>
    <path class="st12" d="m607.5,333.2c1.8,2.3 4.4,3.8 7.1,3.9c1.4,0.1 2.7,-0.1 4,-0.5c1.3,-0.4 2.6,-0.9 3.8,-1.6c1.2,-0.7 2.4,-1.5 3.5,-2.3l0.8,-0.6l0.8,-0.7c0.6,-0.5 1.1,-0.9 1.6,-1.4c2.1,-1.9 4.1,-4 6.1,-6.1c-1.7,2.4 -3.5,4.7 -5.6,6.7c-2.1,2.1 -4.3,3.9 -6.8,5.4c-1.3,0.7 -2.6,1.3 -4,1.7c-1.4,0.4 -2.9,0.5 -4.3,0.3c-0.7,-0.1 -1.4,-0.3 -2.1,-0.5c-0.7,-0.3 -1.3,-0.6 -1.9,-1c-0.6,-0.4 -1.2,-0.9 -1.7,-1.4c-0.5,-0.7 -1,-1.2 -1.3,-1.9z" id="svg_422"/>
   </g>
   <g id="svg_423">
    <g id="svg_424">
     <g id="svg_425">
      <g id="svg_426">
       <ellipse transform="matrix(0.8555,-0.5179,0.5179,0.8555,-31.6578,382.4299) " class="st6" cx="669.3" cy="247.9" rx="4.1" ry="11.9" id="svg_427"/>
       <g id="svg_428">
        <path class="st6" d="m670.3,247.5c-6.6,-11.6 -1.7,-12.6 0.4,-16c-0.6,-2.9 -0.8,-12.5 4.8,-12.6c6.4,-0.2 0.3,5.3 1.6,7.1c2.1,-1.4 11.5,-7 14,-8.2c4.9,-2.5 8.8,-6 11.1,0.3c2.4,6.7 -1.8,6.9 -6.7,9.4c0,0 -5.1,2.2 -5.1,2.2c0.2,0.3 0.4,0.5 0.5,0.8c0.3,-0.1 5.5,-2.4 5.8,-2.5c5.1,-2 9.3,-5 11,1.5c1.8,6.9 -2.4,6.7 -7.5,8.7c-0.7,0.3 -4.5,1.4 -5.3,1.6c-0.1,0.4 -0.1,0.8 -0.2,1.2c5.2,-0.6 12.7,-3 12.8,3.5c0.1,7.1 -3.9,5.8 -9.3,6.4c-2.3,0.2 -5.2,-0.1 -7.8,-0.8c-6.4,4.3 -13.5,8.9 -20.1,-2.6z" id="svg_429"/>
        <path class="st7" d="m682.4,228.7c1.2,1 2.2,2.1 3.1,3.4c0.9,1.2 1.7,2.6 2.4,4c0.7,1.4 1.2,3 1.5,4.5c0.3,1.6 0.3,3.2 0,4.8c-0.2,-1.6 -0.6,-3.1 -1,-4.5c-0.5,-1.4 -1.1,-2.8 -1.7,-4.2c-0.6,-1.4 -1.3,-2.7 -2.1,-4l-2.2,-4z" id="svg_430"/>
        <path class="st7" d="m665.5,237.9c1.4,0.8 2.6,1.9 3.8,3c1.2,1.1 2.2,2.4 3.2,3.8c1,1.3 1.8,2.8 2.4,4.4l0.5,1.2c0.1,0.4 0.2,0.8 0.4,1.2l0.2,0.6c0,0.2 0.1,0.4 0.1,0.6c0.1,0.4 0.1,0.8 0.2,1.2c-0.6,-1.6 -1.2,-3.1 -2,-4.5c-0.8,-1.4 -1.6,-2.8 -2.5,-4.1c-0.9,-1.3 -1.9,-2.6 -3,-3.8c-1.1,-1.2 -2.2,-2.4 -3.3,-3.6z" id="svg_431"/>
       </g>
      </g>
      <path class="st7" d="m663.5,245.5c0.9,-0.2 1.8,-0.1 2.7,0c0.9,0.2 1.8,0.5 2.6,1.1c0.8,0.5 1.5,1.3 1.8,2.3c0.4,0.9 0.4,2 0.2,2.9c-0.2,-0.9 -0.4,-1.8 -0.8,-2.6c-0.4,-0.7 -1,-1.3 -1.7,-1.8c-0.7,-0.5 -1.5,-0.8 -2.3,-1.1c-0.8,-0.4 -1.7,-0.6 -2.5,-0.8z" id="svg_432"/>
     </g>
     <path class="st1" d="m670.6,251.8c-0.7,1.6 -39.5,20.9 -39.5,20.9l0,5.7l-2.7,-3.2l-3.4,4l-0.9,-5l-31.1,3.8l-3.1,-9.1l37,-2.5c0,0 30.7,-17.2 35.1,-20.4c3.7,-2.6 9.5,3.7 8.6,5.8z" id="svg_433"/>
    </g>
    <path class="st7" d="m673,244.8c0.7,-1.2 1.7,-2.3 2.6,-3.3c1,-1 2,-1.9 3.2,-2.7c1.1,-0.8 2.3,-1.5 3.7,-2c1.3,-0.5 2.7,-0.8 4.1,-0.4c-1.3,0.2 -2.5,0.8 -3.7,1.4c-1.1,0.6 -2.2,1.4 -3.3,2.2c-2.3,1.5 -4.4,3.2 -6.6,4.8z" id="svg_434"/>
   </g>
   <g id="svg_435">
    <g id="svg_436">
     <path class="st12" d="m574.9,293.8c0,0 8.7,7 18.7,10.6c9.4,3.4 25.4,1.1 23.2,-5.9c-0.6,-1.8 -11.1,1.8 -20.7,-1.3c-8.2,-2.6 -15.3,-7.4 -15.7,-7.7c-0.9,-0.6 -5.5,4.3 -5.5,4.3z" id="svg_437"/>
     <path class="st12" d="m589.1,283c0,0 5,3.5 11.2,4.8c9.3,2 20.6,-3.2 22.3,0c2.3,4.4 -11.6,8.9 -23.8,5.8c-8,-2.1 -15.1,-5.9 -15.2,-6.4c-0.4,-1.1 5.5,-4.2 5.5,-4.2z" id="svg_438"/>
     <path class="st13" d="m580,283.6c-0.9,-0.9 -2.2,-1.2 -3.7,-1c0.3,-1.4 0.2,-2.7 -0.5,-3.8c-1.9,-2.8 -7,-2.3 -11.4,1.1c-4.4,3.4 -6.5,8.4 -4.7,11.1c1.1,1.7 3.5,2.2 6.2,1.5c-0.9,2.6 -0.7,5.1 0.7,6.4c2.3,2.3 7.2,0.7 11,-3.5c3.6,-4.1 4.7,-9.5 2.4,-11.8z" id="svg_439"/>
     <path class="st13" d="m579,284.9c-0.7,-1.1 -0.7,-2.6 -0.3,-4.1c-1.4,0.1 -2.6,-0.3 -3.4,-1.2c-2.2,-2.4 -0.9,-7.7 2.9,-11.8c3.9,-4.1 8.8,-5.5 11.1,-3.1c1.4,1.5 1.4,4 0.4,6.7c2.6,-0.5 4.8,0.1 5.8,1.8c1.7,2.8 -0.5,7.7 -5.1,10.9c-4.5,3.3 -9.6,3.6 -11.4,0.8z" id="svg_440"/>
     <ellipse transform="matrix(0.9065,-0.4221,0.4221,0.9065,-65.1974,270.2954) " class="st14" cx="577.8" cy="282.4" rx="5.8" ry="6.9" id="svg_441"/>
     <ellipse class="st15" cx="566.5" cy="286" rx="2.7" ry="2.9" id="svg_442"/>
     <ellipse class="st15" cx="572.1" cy="290.7" rx="2.7" ry="2.9" id="svg_443"/>
     <ellipse class="st15" cx="582.8" cy="271.4" rx="2.7" ry="2.9" id="svg_444"/>
     <ellipse class="st15" cx="588.8" cy="277.9" rx="2.7" ry="2.9" id="svg_445"/>
    </g>
    <ellipse class="st15" cx="607.7" cy="302.5" rx="2.5" ry="2.6" id="svg_446"/>
    <ellipse class="st15" cx="612" cy="290.7" rx="2.5" ry="2.6" id="svg_447"/>
   </g>
   <g id="svg_448">
    <g id="svg_449">
     <g id="svg_450">
      <path class="st1" d="m680,292.6c0,0 19.9,-6 21,5.1c0.5,4.6 -15.4,48.3 -23.9,49.3c-8.6,1.1 -1.1,-24.7 -1.1,-24.7l4,-29.7z" id="svg_451"/>
      <path class="st35" d="m680.6,329.1c0,1 0,2 0.1,3c0.1,1 0.3,2 0.6,2.8c0.3,0.9 0.9,1.7 1.7,2.1c0.8,0.4 1.8,0.5 2.7,0.4c-0.9,0.3 -1.9,0.4 -2.8,0c-0.5,-0.2 -0.9,-0.5 -1.2,-0.9c-0.3,-0.4 -0.6,-0.9 -0.7,-1.3c-0.4,-1 -0.5,-2 -0.5,-3c-0.1,-1.1 -0.1,-2.1 0.1,-3.1z" id="svg_452"/>
      <path class="st35" d="m676.3,335.5c0,1 0,2 0.1,3c0.1,1 0.3,2 0.6,2.8c0.3,0.9 0.9,1.7 1.7,2.1c0.8,0.4 1.8,0.5 2.7,0.4c-0.9,0.3 -1.9,0.4 -2.8,0c-0.5,-0.2 -0.9,-0.5 -1.2,-0.9c-0.3,-0.4 -0.6,-0.9 -0.7,-1.3c-0.4,-1 -0.5,-2 -0.5,-3c-0.2,-1.1 -0.1,-2.1 0.1,-3.1z" id="svg_453"/>
     </g>
     <path class="st11" d="m627.8,313.4c0.5,-20.5 33.5,-38.9 51.1,-23.3l-11.7,36.6c0,0.1 -39.9,7.2 -39.4,-13.3z" id="svg_454"/>
     <path class="st12" d="m677.9,289c0,0 6.5,-2.5 6.8,-0.3c0.3,2.1 -4.9,33.9 -12.5,39.7s-4,-6 -4,-6s5.1,-27.1 9.7,-33.4z" id="svg_455"/>
    </g>
    <path class="st12" d="m636.3,326c-0.7,-0.5 -1.5,-0.9 -2.2,-1.5c-0.4,-0.3 -0.7,-0.5 -1.1,-0.9l-1,-0.9c-1.3,-1.3 -2.4,-2.8 -3.2,-4.6c-0.8,-1.7 -1.2,-3.7 -1.2,-5.6c0,-1.9 0.4,-3.9 0.9,-5.7c1.2,-3.6 3.3,-6.8 5.7,-9.6c2.5,-2.7 5.3,-5.1 8.5,-6.6c-1.5,0.9 -3,2 -4.3,3.2c-1.3,1.2 -2.6,2.5 -3.7,3.9c-1.1,1.4 -2.2,2.9 -3.1,4.4c-0.9,1.6 -1.7,3.2 -2.3,4.9c-0.6,1.7 -0.9,3.5 -0.9,5.3c0,1.8 0.3,3.6 1,5.3c0.7,1.7 1.7,3.2 2.8,4.6c1.3,1.5 2.7,2.7 4.1,3.8z" id="svg_456"/>
   </g>
  </g>
 </g>
</svg>