<svg width="800" height="450" xmlns="http://www.w3.org/2000/svg">
 <g>
  <title>background</title>
  <rect x="-1" y="-1" width="890.88889" height="502" id="canvas_background" fill="#fff"/>
 </g>

 <style type="text/css">.st0{fill:#2F88BC;}
	.st1{fill:#91501C;}
	.st2{fill:#FFAB44;}
	.st3{fill:#B16827;}
	.st4{fill:#C2EEFC;}
	.st5{opacity:0.25;fill:#5D5D5D;}
	.st6{fill:#FBEBBA;}
	.st7{fill:#CABC9C;}
	.st8{fill:#8F8676;}
	.st9{fill:#8C8C8C;}
	.st10{fill:#FFFFFF;}
	.st11{fill:#C1A9A9;}
	.st12{fill:#CDCACA;}
	.st13{fill:#85361F;}
	.st14{fill:#FF7D43;}
	.st15{fill:#46D1FA;}
	.st16{fill:#E85E3C;}
	.st17{fill:#7F714C;}
	.st18{fill:#242221;}
	.st19{fill:#EFC73E;}
	.st20{fill:#B73A4A;}
	.st21{fill:#7D2833;}
	.st22{fill:#EEC09B;}
	.st23{fill:#DBA77F;}
	.st24{fill:#EEC9AB;}
	.st25{fill:#E1475C;}
	.st26{fill:#352311;}
	.st27{fill:#DC959C;}
	.st28{fill:#3D3D3D;}
	.st29{fill:#17120E;}
	.st30{fill:#9DD87D;}
	.st31{fill:#7FC5D6;}
	.st32{fill:#B04B5D;}
	.st33{fill:#D28691;}
	.st34{fill:#562947;}
	.st35{fill:#7F5D7F;}
	.st36{fill:#876B8E;}
	.st37{fill:#3F112B;}
	.st38{fill:#AB6346;}
	.st39{fill:#C57C5F;}
	.st40{fill:#DE8B6C;}
	.st41{fill:#C47C5F;}
	.st42{fill:#321829;}
	.st43{fill:#CCA93F;}
	.st44{fill:#E8BF4D;}
	.st45{fill:#A17C5B;}
	.st46{fill:#111719;}
	.st47{fill:#808184;}
	.st48{fill:#58595B;}
	.st49{fill:#BE1E2D;}
	.st50{fill:#FED03D;}
	.st51{fill:#312C32;}
	.st52{fill:#E08400;}
	.st53{fill:#FEDB78;}
	.st54{fill:#FDD03D;}
	.st55{fill:#E08501;}
	.st56{fill:#FD5544;}
	.st57{fill:#E08604;}
	.st58{fill:#E18503;}
	.st59{fill:#322D2F;}
	.st60{fill:#312C31;}
	.st61{fill:#82E1DE;}
	.st62{fill:#353032;}
	.st63{fill:#F7F6F4;}
	.st64{fill:#302C2F;}
	.st65{fill:#302C30;}
	.st66{fill:#E18A05;}
	.st67{fill:#322D31;}
	.st68{fill:#E08602;}
	.st69{fill:#FBFBFB;}
	.st70{fill:#F8F7F3;}
	.st71{fill:#312D31;}
	.st72{fill:#FDFDFB;}
	.st73{fill:#353034;}
	.st74{fill:#353133;}
	.st75{fill:#FAFAF8;}
	.st76{fill:#FBFCF9;}
	.st77{fill:#322E30;}
	.st78{fill:#302C31;}
	.st79{fill:#ADF8FE;}
	.st80{fill:#7EE1DF;}
	.st81{fill:#353031;}
	.st82{fill:#373233;}
	.st83{fill:#332E32;}
	.st84{fill:#332E33;}
	.st85{fill:#FCFCF8;}
	.st86{fill:#FCFCFB;}
	.st87{fill:#FCFCFA;}
	.st88{fill:#F8F8F5;}
	.st89{fill:#FDFDFC;}
	.st90{fill:#312C30;}
	.st91{fill:#F7F7F4;}
	.st92{fill:#312C2F;}
	.st93{fill:#332F33;}
	.st94{fill:#FBFBF7;}
	.st95{fill:#FDFDFD;}
	.st96{fill:#302D2F;}
	.st97{fill:#E18C0A;}
	.st98{fill:#E08F09;}
	.st99{fill:#363033;}
	.st100{fill:#342F32;}
	.st101{fill:#322D30;}
	.st102{fill:#FAF9F4;}
	.st103{fill:#373333;}
	.st104{fill:#FCFDFB;}
	.st105{fill:#FEFEFE;}
	.st106{fill:#FBFBF8;}
	.st107{fill:#ECEBE9;}
	.st108{fill:#FCFCF9;}
	.st109{fill:#3A3538;}
	.st110{fill:#DBBC42;}
    #TAXI{
    animation : slide 4s ease-in-out infinite
    }
    @keyframes slide{
    0%{
    transform : translateX(0)
    }
    50%,60%{
    transform : translateX(-830px)
    }
    70%{
     transform : translateX(-1400px)
    }
    100%{
    transform : translateX(-1400px)
    }
    }
    #girl1 ,#girl2{
    animation : fade 4s ease-in-out infinite
    }
    @keyframes fade{
    0%,60%{
    visibility : hidden
    }
    65%,100%{
    visibility : visible
    }
    }
    #BRAZO_IZQ ,#BRAZO_DERE_1_{
    animation : wave 4s ease-in-out infinite;
    
    }
    @keyframes wave{
    0%,60%{
    visibility : hidden
    }
    65%,70%{
     visibility : visible
    }
    71%,100%{
   visibility : hidden
    }
    }
   
    #BRAZO_IZQ-2 ,#BRAZO_DERE-2{
     animation : wave2 4s ease-in-out infinite;
    }
    @keyframes wave2{
    0%,71%{
    visibility : hidden
    }
    72%,100%{
    visibility : visible
    }
    }
    #OJOS_1_ ,#OJOS{
    animation : blink 4s ease-in-out infinite
    }
    @keyframes blink{
    0%,70%{
    visibility : hidden
    }
    72%,75%{
    visibility : visible
    }
    
    85%,90%{
    visibility : visible
    }
    92%,95%{
    visibility : hidden
    }
    100%{
    visibility : visible
    }
    }</style>
 <g>
  <title>Layer 1</title>
  <g id="CIUDAD">
   <g id="svg_1">
    <g id="svg_2">
     <rect id="svg_3" height="463.8" width="148.3" class="st0" y="-296.3" x="-126"/>
     <rect id="svg_4" height="463.8" width="148.3" class="st0" y="-296.3" x="1253.7"/>
     <rect id="svg_5" height="413.6" width="148.3" class="st0" y="-246" x="279.1"/>
     <rect id="svg_6" height="308.5" width="276.8" class="st0" y="-140.9" x="672.5"/>
     <rect id="svg_7" height="215.5" width="234.8" class="st0" y="-48" x="979.4"/>
     <rect id="svg_8" height="196.7" width="132" class="st0" y="-121.8" x="1072.1"/>
     <polygon id="svg_9" points="621.3,163.3 472.9,163.3 474.6,-476.3 621.3,-368.9    " class="st0"/>
     <rect id="svg_10" height="258.8" width="148.3" class="st0" y="-91.3" x="-30.5"/>
     <rect id="svg_11" height="204.6" width="148.3" class="st0" y="-37.1" x="191.4"/>
     <rect id="svg_12" height="204.6" width="148.3" class="st0" y="-37.1" x="561.5"/>
     <rect id="svg_13" height="90.7" width="148.3" class="st0" y="76.8" x="905.2"/>
     <rect id="svg_14" height="158.9" width="148.3" class="st0" y="8.7" x="1152.6"/>
     <rect id="svg_15" height="276.1" width="148.3" class="st0" y="-108.5" x="410.1"/>
     <polygon id="svg_16" points="234.3,167.6 86,167.6 86,-434.9 160.2,-519.8 234.3,-434.9    " class="st0"/>
     <rect id="svg_17" height="11.5" width="160.4" class="st0" y="-433.8" x="79.6"/>
     <rect id="svg_18" height="11.5" width="160.4" class="st0" y="-371.4" x="79.6"/>
     <rect id="svg_19" height="11.5" width="160.4" class="st0" y="-309" x="79.6"/>
     <rect id="svg_20" height="11.5" width="160.4" class="st0" y="-246.6" x="79.6"/>
     <rect id="svg_21" height="12.9" width="160.4" class="st0" y="-248.3" x="273"/>
     <rect id="svg_22" height="12.9" width="295.6" class="st0" y="-147.4" x="665.2"/>
     <rect id="svg_23" height="12.9" width="149" class="st0" y="-122.5" x="1061.4"/>
     <rect id="svg_24" height="12.9" width="56.3" class="st0" y="-167.9" x="1145.9"/>
     <rect id="svg_25" height="48.2" width="43.7" class="st0" y="-161.5" x="1152.6"/>
     <rect id="svg_26" height="12.9" width="56.3" class="st0" y="-399.5" x="1335.8"/>
     <rect id="svg_27" height="105.1" width="43.7" class="st0" y="-393.1" x="1342.5"/>
     <rect id="svg_28" height="27.7" width="11.1" class="st0" y="-324" x="1253.7"/>
     <rect id="svg_29" height="27.7" width="11.1" class="st0" y="-324" x="1294.8"/>
     <rect id="svg_30" height="27.7" width="11.1" class="st0" y="-324" x="1335.8"/>
     <rect id="svg_31" height="11.4" width="152.5" class="st0" y="-331.6" x="1249.5"/>
     <rect id="svg_32" height="27.7" width="11.1" class="st0" y="-324" x="1376.9"/>
     <rect id="svg_33" height="11.5" width="160.4" class="st0" y="-184.2" x="79.6"/>
     <rect id="svg_34" height="11.5" width="160.4" class="st0" y="-121.8" x="79.6"/>
     <rect id="svg_35" height="11.5" width="160.4" class="st0" y="-59.4" x="79.6"/>
     <rect id="svg_36" height="11.5" width="160.4" class="st0" y="3" x="79.6"/>
     <rect id="svg_37" height="11.5" width="160.4" class="st0" y="65.4" x="79.6"/>
     <rect id="svg_38" height="11.5" width="160.4" class="st0" y="127.8" x="79.6"/>
     <rect id="svg_39" height="46.2" width="24.8" class="st0" y="-501.9" x="191.4"/>
     <rect id="svg_40" height="46.2" width="24.8" class="st0" y="-422.3" x="568"/>
    </g>
    <rect id="svg_41" height="84.1" width="1528.1" class="st0" y="127.8" x="-126"/>
    <g id="svg_42">
     <g id="svg_43">
      <polygon id="svg_44" points="927.7,-103.5 758.3,-103.5 927.7,-191.8     " class="st1"/>
      <rect id="svg_45" height="82.6" width="65.7" class="st1" y="-198.7" x="786"/>
      <rect id="svg_46" height="313.4" width="247.6" class="st2" y="-101.6" x="695.1"/>
      <rect id="svg_47" height="22.3" width="267.3" class="st3" y="-104.3" x="685.2"/>
      <rect id="svg_48" height="22.3" width="267.3" class="st3" y="-17.7" x="685.2"/>
      <rect id="svg_49" height="22.3" width="267.3" class="st3" y="68.9" x="685.2"/>
      <g id="svg_50">
       <rect id="svg_51" height="103.1" width="95.8" class="st4" y="109.2" x="712"/>
       <rect id="svg_52" height="107.7" width="7" class="st3" y="104.6" x="707.7"/>
       <rect id="svg_53" height="107.7" width="7" class="st3" y="104.6" x="806.3"/>
       <rect id="svg_54" height="107.7" width="3.5" class="st3" y="104.6" x="758.2"/>
       <rect id="svg_55" height="7.6" width="105.6" class="st3" y="103.4" x="707.7"/>
      </g>
      <g id="svg_56">
       <rect id="svg_57" height="41.1" width="38.1" class="st4" y="16.7" x="712.9"/>
       <rect id="svg_58" height="42.9" width="2.8" class="st3" y="14.9" x="711.2"/>
       <rect id="svg_59" height="42.9" width="2.8" class="st3" y="14.9" x="750.4"/>
       <rect id="svg_60" height="42.9" width="1.4" class="st3" y="14.9" x="731.3"/>
       <rect id="svg_61" height="3" width="42.1" class="st3" y="14.4" x="711.2"/>
       <rect id="svg_62" height="3" width="42.1" class="st3" y="55" x="711.2"/>
      </g>
      <g id="svg_63">
       <rect id="svg_64" height="41.1" width="38.1" class="st4" y="16.7" x="771.8"/>
       <rect id="svg_65" height="42.9" width="2.8" class="st3" y="14.9" x="770"/>
       <rect id="svg_66" height="42.9" width="2.8" class="st3" y="14.9" x="809.3"/>
       <rect id="svg_67" height="42.9" width="1.4" class="st3" y="14.9" x="790.1"/>
       <rect id="svg_68" height="3" width="42.1" class="st3" y="14.4" x="770"/>
       <rect id="svg_69" height="3" width="42.1" class="st3" y="55" x="770"/>
      </g>
      <g id="svg_70">
       <rect id="svg_71" height="41.1" width="38.1" class="st4" y="16.7" x="824"/>
       <rect id="svg_72" height="42.9" width="2.8" class="st3" y="14.9" x="822.3"/>
       <rect id="svg_73" height="42.9" width="2.8" class="st3" y="14.9" x="861.6"/>
       <rect id="svg_74" height="42.9" width="1.4" class="st3" y="14.9" x="842.4"/>
       <rect id="svg_75" height="3" width="42.1" class="st3" y="14.4" x="822.3"/>
       <rect id="svg_76" height="3" width="42.1" class="st3" y="55" x="822.3"/>
      </g>
      <g id="svg_77">
       <rect id="svg_78" height="41.1" width="38.1" class="st4" y="16.7" x="883.2"/>
       <rect id="svg_79" height="42.9" width="2.8" class="st3" y="14.9" x="881.4"/>
       <rect id="svg_80" height="42.9" width="2.8" class="st3" y="14.9" x="920.7"/>
       <rect id="svg_81" height="42.9" width="1.4" class="st3" y="14.9" x="901.5"/>
       <rect id="svg_82" height="3" width="42.1" class="st3" y="14.4" x="881.4"/>
       <rect id="svg_83" height="3" width="42.1" class="st3" y="55" x="881.4"/>
      </g>
      <g id="svg_84">
       <rect id="svg_85" height="103.1" width="95.8" class="st4" y="109.2" x="826.5"/>
       <rect id="svg_86" height="107.7" width="7" class="st3" y="104.6" x="822.2"/>
       <rect id="svg_87" height="107.7" width="7" class="st3" y="104.6" x="920.8"/>
       <rect id="svg_88" height="107.7" width="3.5" class="st3" y="104.6" x="872.7"/>
       <rect id="svg_89" height="7.6" width="105.6" class="st3" y="103.4" x="822.2"/>
      </g>
      <rect id="svg_90" height="44.8" width="247.6" class="st4" y="-72.4" x="695.1"/>
      <rect id="svg_91" height="7.7" width="249.3" class="st3" y="-77.6" x="693.3"/>
      <rect id="svg_92" height="7.7" width="249.3" class="st3" y="-33.3" x="693.3"/>
      <rect id="svg_93" height="42" width="3.3" class="st3" y="-72.9" x="704.3"/>
      <rect id="svg_94" height="42" width="3.3" class="st3" y="-72.9" x="748.8"/>
      <rect id="svg_95" height="42" width="3.3" class="st3" y="-72.9" x="793.2"/>
      <rect id="svg_96" height="42" width="3.3" class="st3" y="-72.9" x="837.7"/>
      <rect id="svg_97" height="42" width="3.3" class="st3" y="-72.9" x="882.1"/>
      <rect id="svg_98" height="42" width="3.3" class="st3" y="-72.9" x="926.6"/>
     </g>
     <polygon id="svg_99" points="826.5,212.3 829.2,212.3 872.7,212.3 876.2,212.3 920.8,212.3 922.3,212.3 927.8,212.3 927.8,211.8      942.6,211.8 942.6,91.2 952.5,91.2 952.5,68.9 942.6,68.9 942.6,4.6 952.5,4.6 952.5,-17.7 942.6,-17.7 942.6,-25.5 942.6,-27.6      942.6,-33.3 942.6,-69.9 942.6,-72.4 942.6,-77.6 942.6,-82 952.5,-82 952.5,-104.3 927.7,-104.3 927.7,-191.8 851.7,-152.2      851.7,-198.7 818.8,-198.7 818.8,211.8 822.2,211.8 822.2,212.3    " class="st5"/>
    </g>
    <g id="svg_100">
     <g id="svg_101">
      <rect id="svg_102" height="18.3" width="314.7" class="st6" y="194" x="137.3"/>
      <rect id="svg_103" height="201.3" width="291.6" class="st6" y="11" x="150.5"/>
      <rect id="svg_104" height="125.2" width="116.9" class="st6" y="-140.2" x="233.9"/>
      <path id="svg_105" d="m233.9,-140.2c0,-32.3 26.2,-58.5 58.5,-58.5c32.3,0 58.5,26.2 58.5,58.5c0,32.3 -26.2,58.5 -58.5,58.5c-32.3,0 -58.5,-26.2 -58.5,-58.5z" class="st6"/>
      <ellipse id="svg_106" ry="35.3" rx="145.8" cy="10.4" cx="296.3" class="st6"/>
      <polygon id="svg_107" points="274.2,-191.8 292.4,-309.1 310.7,-191.8     " class="st6"/>
      <rect id="svg_108" height="14.9" width="136" class="st7" y="-139.7" x="224.6"/>
      <rect id="svg_109" height="4.4" width="136" class="st8" y="-129.2" x="224.6"/>
      <rect id="svg_110" height="4.2" width="122" class="st7" y="-155.7" x="231.8"/>
      <rect id="svg_111" height="4.2" width="103.7" class="st7" y="-176.4" x="241.4"/>
      <rect id="svg_112" height="4.2" width="62.7" class="st7" y="-195.9" x="261.9"/>
      <rect id="svg_113" height="14.9" width="136" class="st7" y="-36.9" x="224.6"/>
      <rect id="svg_114" height="14.9" width="296.6" class="st7" y="7.1" x="147.3"/>
      <rect id="svg_115" height="7.5" width="296.6" class="st7" y="24.4" x="147.3"/>
      <rect id="svg_116" height="104.6" width="14.6" class="st7" y="-132.2" x="241.4"/>
      <rect id="svg_117" height="72.3" width="14.6" class="st7" y="10.4" x="159.2"/>
      <rect id="svg_118" height="72.3" width="14.6" class="st7" y="10.4" x="201.8"/>
      <rect id="svg_119" height="72.3" width="14.6" class="st7" y="10.4" x="244.4"/>
      <rect id="svg_120" height="72.3" width="14.6" class="st7" y="10.4" x="286.9"/>
      <rect id="svg_121" height="72.3" width="14.6" class="st7" y="10.4" x="329.5"/>
      <rect id="svg_122" height="72.3" width="14.6" class="st7" y="10.4" x="372.1"/>
      <rect id="svg_123" height="72.3" width="14.6" class="st7" y="10.4" x="414.6"/>
      <rect id="svg_124" height="104.6" width="14.6" class="st7" y="-132.2" x="270.7"/>
      <rect id="svg_125" height="104.6" width="14.6" class="st7" y="-132.2" x="299.9"/>
      <rect id="svg_126" height="104.6" width="14.6" class="st7" y="-132.1" x="329.1"/>
      <path id="svg_127" d="m273,-193.8c0,0 -16.7,20.2 -19.2,54.1l5.6,0c0,0 2.2,-29.7 16.7,-54.1l-3.1,0z" class="st7"/>
      <path id="svg_128" d="m309.9,-193.8c0,0 16.7,20.2 19.2,54.1l-5.6,0c0,0 -2.2,-29.7 -16.7,-54.1l3.1,0z" class="st7"/>
      <rect id="svg_129" height="53.5" width="3.9" class="st7" y="-193.2" x="288.7"/>
      <rect id="svg_130" height="4.4" width="136" class="st8" y="-24.9" x="224.6"/>
      <rect id="svg_131" height="4.8" width="296.6" class="st8" y="17.2" x="147.3"/>
      <rect id="svg_132" height="14.9" width="296.6" class="st7" y="75.5" x="147.3"/>
      <g id="svg_133">
       <rect id="svg_134" height="123.1" width="29.7" class="st7" y="89.2" x="166.5"/>
       <polygon id="svg_135" points="159.2,90.4 166.5,101.4 196.2,101.4 203.3,90.3      " class="st7"/>
       <polygon id="svg_136" points="203.3,212.2 196,201.2 166.3,201.2 159.2,212.3      " class="st7"/>
       <path id="svg_137" d="m175.4,199.4c0,1 -0.8,1.8 -1.8,1.8l0,0c-1,0 -1.8,-0.8 -1.8,-1.8l0,-94.5c0,-1 0.8,-1.8 1.8,-1.8l0,0c1,0 1.8,0.8 1.8,1.8l0,94.5z" class="st8"/>
       <path id="svg_138" d="m189,199.4c0,1 -0.8,1.8 -1.8,1.8l0,0c-1,0 -1.8,-0.8 -1.8,-1.8l0,-94.5c0,-1 0.8,-1.8 1.8,-1.8l0,0c1,0 1.8,0.8 1.8,1.8l0,94.5z" class="st8"/>
      </g>
      <g id="svg_139">
       <rect id="svg_140" height="123.1" width="29.7" class="st7" y="89.2" x="222"/>
       <polygon id="svg_141" points="214.7,90.4 222,101.4 251.7,101.4 258.8,90.3      " class="st7"/>
       <polygon id="svg_142" points="258.8,212.2 251.5,201.2 221.8,201.2 214.7,212.3      " class="st7"/>
       <path id="svg_143" d="m230.8,199.4c0,1 -0.8,1.8 -1.8,1.8l0,0c-1,0 -1.8,-0.8 -1.8,-1.8l0,-94.5c0,-1 0.8,-1.8 1.8,-1.8l0,0c1,0 1.8,0.8 1.8,1.8l0,94.5z" class="st8"/>
       <path id="svg_144" d="m244.4,199.4c0,1 -0.8,1.8 -1.8,1.8l0,0c-1,0 -1.8,-0.8 -1.8,-1.8l0,-94.5c0,-1 0.8,-1.8 1.8,-1.8l0,0c1,0 1.8,0.8 1.8,1.8l0,94.5z" class="st8"/>
      </g>
      <g id="svg_145">
       <rect id="svg_146" height="123.1" width="29.7" class="st7" y="89.2" x="339.4"/>
       <polygon id="svg_147" points="332.1,90.4 339.4,101.4 369.1,101.4 376.2,90.3      " class="st7"/>
       <polygon id="svg_148" points="376.2,212.2 368.9,201.2 339.2,201.2 332.1,212.3      " class="st7"/>
       <path id="svg_149" d="m348.2,199.4c0,1 -0.8,1.8 -1.8,1.8l0,0c-1,0 -1.8,-0.8 -1.8,-1.8l0,-94.5c0,-1 0.8,-1.8 1.8,-1.8l0,0c1,0 1.8,0.8 1.8,1.8l0,94.5z" class="st8"/>
       <path id="svg_150" d="m361.9,199.4c0,1 -0.8,1.8 -1.8,1.8l0,0c-1,0 -1.8,-0.8 -1.8,-1.8l0,-94.5c0,-1 0.8,-1.8 1.8,-1.8l0,0c1,0 1.8,0.8 1.8,1.8l0,94.5z" class="st8"/>
      </g>
      <g id="svg_151">
       <rect id="svg_152" height="123.1" width="29.7" class="st7" y="89.2" x="394.8"/>
       <polygon id="svg_153" points="387.5,90.4 394.8,101.4 424.5,101.4 431.6,90.3      " class="st7"/>
       <polygon id="svg_154" points="431.6,212.2 424.3,201.2 394.6,201.2 387.5,212.3      " class="st7"/>
       <path id="svg_155" d="m403.7,199.4c0,1 -0.8,1.8 -1.8,1.8l0,0c-1,0 -1.8,-0.8 -1.8,-1.8l0,-94.5c0,-1 0.8,-1.8 1.8,-1.8l0,0c1,0 1.8,0.8 1.8,1.8l0,94.5z" class="st8"/>
       <path id="svg_156" d="m417.3,199.4c0,1 -0.8,1.8 -1.8,1.8l0,0c-1,0 -1.8,-0.8 -1.8,-1.8l0,-94.5c0,-1 0.8,-1.8 1.8,-1.8l0,0c1,0 1.8,0.8 1.8,1.8l0,94.5z" class="st8"/>
      </g>
      <rect id="svg_157" height="4.8" width="296.6" class="st8" y="85.6" x="147.3"/>
      <rect id="svg_158" height="11.1" width="66.7" class="st7" y="201.2" x="262.4"/>
      <rect id="svg_159" height="6.4" width="38.7" class="st7" y="194.8" x="276.5"/>
      <rect id="svg_160" height="6" width="25.1" class="st7" y="188.8" x="283.2"/>
      <polygon id="svg_161" points="304.9,188.8 286.3,188.8 286.3,121.6 295.6,113.8 304.9,121.6     " class="st7"/>
     </g>
     <path id="svg_162" d="m293.7,212.3l35.5,0l10.3,0l29.7,0l25.7,0l29.7,0l17.4,0l9.9,0l0,-18.3l-9.9,0l0,-103.6l1.9,0l0,-4.8l0,-10.1l-1.9,0l0,-43.7l1.9,0l0,-7.5l-1.9,0l0,-2.3l1.9,0l0,-4.8l0,-10.1l-2.5,0c-4.8,-12.5 -36.4,-23.1 -80.8,-28.4l0,-0.6l0,-3l0,-11.9l-9.7,0l0,-87.9l9.7,0l0,-4.4l0,-10.5l-9.7,0c0,-0.2 0,-0.3 0,-0.5c0,-3.9 -0.4,-7.6 -1.1,-11.3l4.1,0l0,-4.2l-5.1,0c-1.6,-6 -4.2,-11.6 -7.5,-16.6l3.9,0l0,-4.2l-6.9,0c-5,-6.3 -11.2,-11.5 -18.3,-15.3l4.6,0l0,-4.2l-14.4,0c0,0 -0.1,0 -0.1,0l-16.4,-104.8l0,513z" class="st5"/>
     <path id="svg_163" d="m287.9,-307.8c0,-2.5 2,-4.5 4.5,-4.5c2.5,0 4.5,2 4.5,4.5c0,2.5 -2,4.5 -4.5,4.5c-2.5,0 -4.5,-2 -4.5,-4.5z" class="st7"/>
    </g>
    <rect id="svg_164" height="220.1" width="1528.1" class="st9" y="248.3" x="-126"/>
    <rect id="svg_165" height="10.8" width="1528.1" class="st10" y="260.6" x="-126"/>
    <rect id="svg_166" height="10.8" width="1528.1" class="st10" y="365.6" x="-126"/>
    <rect id="svg_167" height="6.4" width="38.6" class="st10" y="310.5" x="-79.5"/>
    <rect id="svg_168" height="6.4" width="38.6" class="st10" y="310.5" x="50.4"/>
    <rect id="svg_169" height="6.4" width="38.6" class="st10" y="310.5" x="180.3"/>
    <rect id="svg_170" height="6.4" width="38.6" class="st10" y="310.5" x="310.2"/>
    <rect id="svg_171" height="6.4" width="38.6" class="st10" y="310.5" x="440.1"/>
    <rect id="svg_172" height="6.4" width="38.6" class="st10" y="310.5" x="570"/>
    <rect id="svg_173" height="6.4" width="38.6" class="st10" y="310.5" x="699.9"/>
    <rect id="svg_174" height="6.4" width="38.6" class="st10" y="310.5" x="829.8"/>
    <rect id="svg_175" height="6.4" width="38.6" class="st10" y="310.5" x="959.7"/>
    <rect id="svg_176" height="6.4" width="38.6" class="st10" y="310.5" x="1089.6"/>
    <rect id="svg_177" height="6.4" width="38.6" class="st10" y="310.5" x="1219.5"/>
    <rect id="svg_178" height="6.4" width="38.6" class="st10" y="310.5" x="1349.5"/>
    <rect id="svg_179" height="10.8" width="1528.1" class="st11" y="237.5" x="-126"/>
    <rect id="svg_180" height="25.7" width="1528.1" class="st12" y="211.8" x="-126"/>
    <rect id="svg_181" height="25.7" width="1528.1" class="st12" y="384.5" x="-126"/>
    <g id="svg_182">
     <rect id="svg_183" height="18.6" width="23.2" class="st13" y="-60.6" x="622.4"/>
     <rect id="svg_184" height="9.3" width="29.9" class="st13" y="-69.9" x="618.9"/>
     <rect id="svg_185" height="209.3" width="178.6" class="st14" y="3" x="473.3"/>
     <polygon id="svg_186" points="652,-42 565.9,-42 557,-42 470.9,-42 449.6,10.8 557,10.8 565.9,10.8 673.3,10.8    " class="st13"/>
     <rect id="svg_187" height="15.7" width="213.9" class="st13" y="93.4" x="455.6"/>
     <g id="svg_188">
      <path id="svg_189" d="m479.5,49c0,-12.7 10.3,-23.1 23.1,-23.1c12.7,0 23.1,10.3 23.1,23.1c0,12.7 -10.3,23.1 -23.1,23.1c-12.8,0 -23.1,-10.3 -23.1,-23.1z" class="st13"/>
      <path id="svg_190" d="m484.5,49c0,-10 8.1,-18 18,-18s18,8.1 18,18c0,10 -8.1,18 -18,18s-18,-8 -18,-18z" class="st15"/>
      <rect id="svg_191" height="39" width="4.4" class="st13" y="29.5" x="500.3"/>
      <rect id="svg_192" height="4.4" width="39" class="st13" y="46.8" x="483.1"/>
     </g>
     <g id="svg_193">
      <path id="svg_194" d="m538.8,49c0,-12.7 10.3,-23.1 23.1,-23.1c12.7,0 23.1,10.3 23.1,23.1c0,12.7 -10.3,23.1 -23.1,23.1c-12.8,0 -23.1,-10.3 -23.1,-23.1z" class="st13"/>
      <path id="svg_195" d="m543.8,49c0,-10 8.1,-18 18,-18c10,0 18,8.1 18,18c0,10 -8.1,18 -18,18c-9.9,0.1 -18,-8 -18,-18z" class="st15"/>
      <rect id="svg_196" height="39" width="4.4" class="st13" y="29.5" x="559.6"/>
      <rect id="svg_197" height="4.4" width="39" class="st13" y="46.8" x="542.4"/>
     </g>
     <g id="svg_198">
      <path id="svg_199" d="m598.1,49c0,-12.7 10.3,-23.1 23.1,-23.1c12.7,0 23.1,10.3 23.1,23.1c0,12.7 -10.3,23.1 -23.1,23.1c-12.8,0 -23.1,-10.3 -23.1,-23.1z" class="st13"/>
      <path id="svg_200" d="m603.1,49c0,-10 8.1,-18 18,-18s18,8.1 18,18c0,10 -8.1,18 -18,18s-18,-8 -18,-18z" class="st15"/>
      <rect id="svg_201" height="39" width="4.4" class="st13" y="29.5" x="618.9"/>
      <rect id="svg_202" height="4.4" width="39" class="st13" y="46.8" x="601.7"/>
     </g>
     <rect id="svg_203" height="15.7" width="223.8" class="st16" y="-4.9" x="449.6"/>
     <g id="svg_204">
      <rect id="svg_205" height="64.4" width="96.7" class="st6" y="124.7" x="482.9"/>
      <rect id="svg_206" height="51.8" width="83.1" class="st15" y="130.9" x="489.7"/>
      <rect id="svg_207" height="62.5" width="7.1" class="st6" y="124.7" x="528.1"/>
     </g>
     <rect id="svg_208" height="84.1" width="42.6" class="st13" y="127.8" x="592.7"/>
     <path id="svg_209" d="m621.4,167.6c0,-2.8 2.3,-5.1 5.1,-5.1c2.8,0 5.1,2.3 5.1,5.1c0,2.8 -2.3,5.1 -5.1,5.1c-2.8,0 -5.1,-2.3 -5.1,-5.1z" class="st14"/>
     <polygon id="svg_210" points="652,-42 645.6,-42 645.6,-60.6 648.9,-60.6 648.9,-69.9 618.9,-69.9 618.9,-60.6 622.4,-60.6      622.4,-42 565.9,-42 559.6,-42 559.6,212.3 651.9,212.3 651.9,109.2 669.5,109.2 669.5,93.4 651.9,93.4 651.9,10.8 673.3,10.8      673.3,-4.9 667,-4.9    " class="st5"/>
    </g>
    <g id="svg_211">
     <rect id="svg_212" height="110.9" width="206.3" class="st3" y="101.4" x="-94.1"/>
     <rect id="svg_213" height="75.4" width="140.2" class="st3" y="18" x="-61.1"/>
     <rect id="svg_214" height="15.7" width="213.9" class="st2" y="93.4" x="-98.3"/>
     <rect id="svg_215" height="7.4" width="78.2" class="st6" y="204.9" x="-96.2"/>
     <rect id="svg_216" height="7.4" width="80.7" class="st6" y="204.9" x="33.6"/>
     <rect id="svg_217" height="15.7" width="153.3" class="st2" y="3" x="-67.9"/>
     <g id="svg_218">
      <rect id="svg_219" height="31.8" width="47.8" class="st6" y="33.6" x="-52.6"/>
      <rect id="svg_220" height="25.6" width="41.1" class="st15" y="36.7" x="-49.2"/>
      <rect id="svg_221" height="30.9" width="3.5" class="st6" y="33.6" x="-30.3"/>
     </g>
     <g id="svg_222">
      <rect id="svg_223" height="43.1" width="64.7" class="st6" y="129.7" x="-84.8"/>
      <rect id="svg_224" height="34.7" width="55.6" class="st15" y="133.9" x="-80.3"/>
      <rect id="svg_225" height="41.8" width="4.7" class="st6" y="129.7" x="-54.6"/>
     </g>
     <g id="svg_226">
      <rect id="svg_227" height="43.1" width="64.7" class="st6" y="129.7" x="35.2"/>
      <rect id="svg_228" height="34.7" width="55.6" class="st15" y="133.9" x="39.8"/>
      <rect id="svg_229" height="41.8" width="4.7" class="st6" y="129.7" x="65.4"/>
     </g>
     <g id="svg_230">
      <rect id="svg_231" height="31.8" width="47.8" class="st6" y="33.6" x="23.2"/>
      <rect id="svg_232" height="25.6" width="41.1" class="st15" y="36.7" x="26.5"/>
      <rect id="svg_233" height="30.9" width="3.5" class="st6" y="33.6" x="45.5"/>
     </g>
     <path id="svg_234" d="m27.6,212.3l-37.7,0l0,-53.8c0,-10.4 8.4,-18.9 18.9,-18.9l0,0c10.4,0 18.9,8.4 18.9,18.9l0,53.8l-0.1,0z" class="st6"/>
     <path id="svg_235" d="m17.2,177.1c0,-2.3 1.9,-4.1 4.1,-4.1c2.3,0 4.1,1.9 4.1,4.1c0,2.3 -1.9,4.1 -4.1,4.1c-2.2,0.1 -4.1,-1.8 -4.1,-4.1z" class="st17"/>
     <rect id="svg_236" height="18.6" width="23.2" class="st6" y="-15.6" x="49"/>
     <rect id="svg_237" height="9.3" width="29.9" class="st6" y="-24.9" x="45.5"/>
     <polygon id="svg_238" points="79.1,18.7 85.4,18.7 85.4,3 72.2,3 72.2,-15.6 75.4,-15.6 75.4,-24.9 45.5,-24.9 45.5,-15.6      49,-15.6 49,3 9,3 9,212.3 27.6,212.3 33.6,212.3 112.2,212.3 114.3,212.3 114.3,204.9 112.2,204.9 112.2,109.2 115.7,109.2      115.7,93.4 79.1,93.4    " class="st5"/>
    </g>
    <g id="svg_239">
     <rect id="svg_240" height="112.4" width="7.6" class="st18" y="112.3" x="-99.9"/>
     <path id="svg_241" d="m-104.6,224.7l16.7,0c0.1,0 -8.2,-15.3 -16.7,0z" class="st18"/>
     <polygon id="svg_242" points="-83.9,98.2 -85.5,98.2 -106.7,98.2 -108.3,98.2 -100.8,117.5 -100.5,118.3 -100.5,118.3      -91.7,118.3 -91.7,118.3 -91.4,117.5    " class="st18"/>
     <rect id="svg_243" height="3.1" width="26.4" class="st18" y="95.1" x="-109.7"/>
     <rect id="svg_244" height="26.4" width="3.1" class="st18" y="82.3" x="-98"/>
     <path id="svg_245" d="m-108.3,95.1c0,-5.7 5.4,-10.4 12,-10.4c6.7,0 12,4.7 12,10.4c0,5.7 -5.4,10.4 -12,10.4c-6.6,0 -12,-4.7 -12,-10.4z" class="st18"/>
     <polygon id="svg_246" points="-106.5,98.2 -96.8,98.2 -96.8,117.4 -98.4,117.4    " class="st19"/>
     <polygon id="svg_247" points="-85.7,98.2 -95.3,98.2 -95.3,117.4 -93.7,117.4    " class="st19"/>
    </g>
    <g id="svg_248">
     <rect id="svg_249" height="112.4" width="7.6" class="st18" y="112.3" x="164.3"/>
     <path id="svg_250" d="m159.7,224.7l16.7,0c0,0 -8.3,-15.3 -16.7,0z" class="st18"/>
     <polygon id="svg_251" points="180.4,98.2 178.8,98.2 157.5,98.2 155.9,98.2 163.4,117.5 163.7,118.3 163.8,118.3 172.5,118.3      172.6,118.3 172.8,117.5    " class="st18"/>
     <rect id="svg_252" height="3.1" width="26.4" class="st18" y="95.1" x="154.6"/>
     <rect id="svg_253" height="26.4" width="3.1" class="st18" y="82.3" x="166.2"/>
     <path id="svg_254" d="m155.9,95.1c0,-5.7 5.4,-10.4 12,-10.4c6.7,0 12,4.7 12,10.4c0,5.7 -5.4,10.4 -12,10.4c-6.6,0 -12,-4.7 -12,-10.4z" class="st18"/>
     <polygon id="svg_255" points="157.8,98.2 167.4,98.2 167.4,117.4 165.9,117.4    " class="st19"/>
     <polygon id="svg_256" points="178.6,98.2 168.9,98.2 168.9,117.4 170.5,117.4    " class="st19"/>
    </g>
    <g id="svg_257">
     <rect id="svg_258" height="112.4" width="7.6" class="st18" y="112.3" x="428.5"/>
     <path id="svg_259" d="m423.9,224.7l16.7,0c0,0 -8.2,-15.3 -16.7,0z" class="st18"/>
     <polygon id="svg_260" points="444.6,98.2 443,98.2 421.7,98.2 420.2,98.2 427.7,117.5 427.9,118.3 428,118.3 436.8,118.3      436.8,118.3 437.1,117.5    " class="st18"/>
     <rect id="svg_261" height="3.1" width="26.4" class="st18" y="95.1" x="418.8"/>
     <rect id="svg_262" height="26.4" width="3.1" class="st18" y="82.3" x="430.5"/>
     <path id="svg_263" d="m420.2,95.1c0,-5.7 5.4,-10.4 12,-10.4c6.7,0 12,4.7 12,10.4c0,5.7 -5.4,10.4 -12,10.4c-6.6,0 -12,-4.7 -12,-10.4z" class="st18"/>
     <polygon id="svg_264" points="422,98.2 431.6,98.2 431.6,117.4 430.1,117.4    " class="st19"/>
     <polygon id="svg_265" points="442.8,98.2 433.2,98.2 433.2,117.4 434.7,117.4    " class="st19"/>
    </g>
    <g id="svg_266">
     <rect id="svg_267" height="112.4" width="7.6" class="st18" y="112.3" x="692.8"/>
     <path id="svg_268" d="m688.2,224.7l16.7,0c0,0 -8.3,-15.3 -16.7,0z" class="st18"/>
     <polygon id="svg_269" points="708.8,98.2 707.3,98.2 686,98.2 684.4,98.2 691.9,117.5 692.2,118.3 692.3,118.3 701,118.3      701.1,118.3 701.3,117.5    " class="st18"/>
     <rect id="svg_270" height="3.1" width="26.4" class="st18" y="95.1" x="683"/>
     <rect id="svg_271" height="26.4" width="3.1" class="st18" y="82.3" x="694.7"/>
     <path id="svg_272" d="m684.4,95.1c0,-5.7 5.4,-10.4 12,-10.4c6.7,0 12,4.7 12,10.4c0,5.7 -5.4,10.4 -12,10.4c-6.6,0 -12,-4.7 -12,-10.4z" class="st18"/>
     <polygon id="svg_273" points="686.2,98.2 695.9,98.2 695.9,117.4 694.3,117.4    " class="st19"/>
     <polygon id="svg_274" points="707.1,98.2 697.4,98.2 697.4,117.4 699,117.4    " class="st19"/>
    </g>
    <g id="svg_275">
     <rect id="svg_276" height="112.4" width="7.6" class="st18" y="112.3" x="957"/>
     <path id="svg_277" d="m952.4,224.7l16.7,0c0,0 -8.3,-15.3 -16.7,0z" class="st18"/>
     <polygon id="svg_278" points="973.1,98.2 971.5,98.2 950.2,98.2 948.6,98.2 956.2,117.5 956.4,118.3 956.5,118.3 965.2,118.3      965.3,118.3 965.6,117.5    " class="st18"/>
     <rect id="svg_279" height="3.1" width="26.4" class="st18" y="95.1" x="947.3"/>
     <rect id="svg_280" height="26.4" width="3.1" class="st18" y="82.3" x="958.9"/>
     <path id="svg_281" d="m948.6,95.1c0,-5.7 5.4,-10.4 12,-10.4c6.7,0 12,4.7 12,10.4c0,5.7 -5.4,10.4 -12,10.4c-6.6,0 -12,-4.7 -12,-10.4z" class="st18"/>
     <polygon id="svg_282" points="950.5,98.2 960.1,98.2 960.1,117.4 958.6,117.4    " class="st19"/>
     <polygon id="svg_283" points="971.3,98.2 961.7,98.2 961.7,117.4 963.2,117.4    " class="st19"/>
    </g>
    <g id="svg_284">
     <rect id="svg_285" height="112.4" width="7.6" class="st18" y="112.3" x="1221.3"/>
     <path id="svg_286" d="m1216.6,224.7l16.7,0c0.1,0 -8.2,-15.3 -16.7,0z" class="st18"/>
     <polygon id="svg_287" points="1237.3,98.2 1235.7,98.2 1214.5,98.2 1212.9,98.2 1220.4,117.5 1220.7,118.3 1220.7,118.3      1229.5,118.3 1229.5,118.3 1229.8,117.5    " class="st18"/>
     <rect id="svg_288" height="3.1" width="26.4" class="st18" y="95.1" x="1211.5"/>
     <rect id="svg_289" height="26.4" width="3.1" class="st18" y="82.3" x="1223.2"/>
     <path id="svg_290" d="m1212.9,95.1c0,-5.7 5.4,-10.4 12,-10.4c6.7,0 12,4.7 12,10.4c0,5.7 -5.4,10.4 -12,10.4c-6.6,0 -12,-4.7 -12,-10.4z" class="st18"/>
     <polygon id="svg_291" points="1214.7,98.2 1224.4,98.2 1224.4,117.4 1222.8,117.4    " class="st19"/>
     <polygon id="svg_292" points="1235.5,98.2 1225.9,98.2 1225.9,117.4 1227.4,117.4    " class="st19"/>
    </g>
   </g>
  </g>
  <g id="girl2">
   <g id="CABEZA">
    <g id="svg_293">
     <path d="m443.8,167.8c0,0 15.7,41.2 -18.2,85l-38.6,2l-11.1,-33.6l9.1,-35.7l58.8,-17.7z" class="st20" id="XMLID_166_"/>
     <path d="m441.9,199.5c0,0 -3.1,38.2 -22.1,55.1l-29.9,3.7l-12.3,-32.2l2.3,-32.4l62,5.8z" class="st21" id="XMLID_165_"/>
     <path d="m435.4,217.6l0,0c-3.5,-1 -5.5,-4.7 -4.5,-8.1l2.1,-7.5c1,-3.5 4.7,-5.5 8.1,-4.5l0,0c3.5,1 5.5,4.7 4.5,8.1l-2.1,7.5c-0.9,3.5 -4.6,5.5 -8.1,4.5z" class="st22" id="XMLID_164_"/>
     <path d="m407.9,244.5l-2.1,0c-4,0 -7.2,-3.2 -7.2,-7.2l0,-3.7c0,-4 3.2,-7.2 7.2,-7.2l2.1,0c4,0 7.2,3.2 7.2,7.2l0,3.7c0,4 -3.3,7.2 -7.2,7.2z" class="st23" id="XMLID_163_"/>
     <path d="m378.4,212l3.1,-37c1.1,-13.2 12.8,-23.1 26.1,-22l11,0.9c13.2,1.1 23.1,12.8 22,26.1l-2.8,33.1c-0.6,7.5 -11,29.3 -30.5,27.7c-20.3,-1.7 -29.5,-22 -28.9,-28.8z" class="st22" id="XMLID_162_"/>
     <path d="m409.3,211.8c0,0 5,5.7 -2.5,6.1c0,0 10.3,0.9 2.5,-6.1z" class="st23" id="XMLID_161_"/>
     <path d="m394.7,214.2c-0.1,1.6 -2.4,2.7 -5.1,2.5c-2.7,-0.2 -4.7,-1.7 -4.6,-3.3c0.1,-1.6 2.4,-2.7 5.1,-2.5c2.6,0.2 4.7,1.7 4.6,3.3z" class="st24" id="XMLID_160_"/>
     <path d="m432.3,217.3c-0.1,1.6 -2.4,2.7 -5.1,2.5c-2.7,-0.2 -4.7,-1.7 -4.6,-3.3c0.1,-1.6 2.4,-2.7 5.1,-2.5s4.7,1.7 4.6,3.3z" class="st24" id="XMLID_159_"/>
     <path d="m393.7,169.3c0,0 10.2,27.6 44.7,34.9l-0.4,7.6c0,0 9.6,-11 8.2,-34.3c-1.4,-23.3 -32.3,-40.1 -55,-27.4c-17.7,9.9 -17,31 -12.8,59.3l1.9,-19.6c-0.1,0 8.6,-8.7 13.4,-20.5z" class="st20" id="XMLID_158_"/>
     <path d="m391.2,150.1c0,0 -12.6,2.1 -18.9,28.7c-6.3,26.6 -8.7,53 2.3,65c8.5,9.3 -11,29 17.5,40.7c0,0 -6.2,-9.9 -1,-22c5.3,-12 -1.7,-27.5 -7.7,-36.3c-6,-8.8 -7.3,-41.5 10.2,-56.9c17.5,-15.4 -2.4,-19.2 -2.4,-19.2z" class="st20" id="XMLID_156_"/>
    </g>
    <path d="m378.3,213l0,0c-3.6,-0.3 -6.3,-3.5 -6,-7.1l0.6,-7.8c0.3,-3.6 3.5,-6.3 7.1,-6l0,0c3.6,0.3 6.3,3.5 6,7.1l-0.6,7.8c-0.3,3.6 -3.5,6.3 -7.1,6z" class="st22" id="XMLID_155_"/>
    <path d="m400.5,161.6c1.7,7.9 9.7,23.1 28,28.8c18.3,5.8 -8.1,-1.4 -17.9,-21.6c-6.7,-14 -11.8,-15.2 -10.1,-7.2z" class="st25" id="XMLID_154_"/>
    <path d="m403.6,193.8c0,0 -6.9,-5.7 -16,-0.5l-0.7,-2.9c0,0 8.8,-5.6 17.6,1.5l-0.9,1.9z" class="st21" id="XMLID_153_"/>
    <g id="OJOS_1_">
     <path d="m395.4,207.1l0,0c-1,-0.1 -1.8,-1 -1.7,-2.1l0.2,-2.5c0.1,-1 1,-1.8 2.1,-1.7l0,0c1,0.1 1.8,1 1.7,2.1l-0.2,2.5c-0.1,1 -1,1.8 -2.1,1.7z" class="st26" id="XMLID_169_"/>
     <path d="m423.3,209.4l0,0c-1,-0.1 -1.8,-1 -1.7,-2.1l0.2,-2.5c0.1,-1 1,-1.8 2.1,-1.7l0,0c1,0.1 1.8,1 1.7,2.1l-0.2,2.5c-0.2,1 -1.1,1.8 -2.1,1.7z" class="st26" id="XMLID_168_"/>
    </g>
    <g id="eyes-closed">
     <path d="m395.4,205.5l0,0c-1,0 -1.8,-0.2 -1.7,-0.5l0.2,-0.6c0.1,-0.2 1,-0.4 2.1,-0.4l0,0c1,0 1.8,0.2 1.7,0.5l-0.2,0.6c-0.1,0.3 -1,0.5 -2.1,0.4z" class="st26" id="XMLID_14_"/>
     <path d="m423.3,206.1l0,0c-1,0 -1.8,-0.2 -1.7,-0.5l0.2,-0.6c0.1,-0.2 1,-0.4 2.1,-0.4l0,0c1,0 1.8,0.2 1.7,0.5l-0.2,0.6c-0.2,0.2 -1.1,0.4 -2.1,0.4z" class="st26" id="XMLID_6_"/>
    </g>
    <g id="BOCA_1_">
     <path d="m412.9,226.9c0,0 -7.3,1.3 -13.1,-2.7c-0.1,0 4,6.7 13.1,2.7z" class="st27" id="XMLID_230_"/>
    </g>
   </g>
   <g id="BRAZO_DERE_1_">
    <g id="svg_294">
     <path d="m411.1,255.1c0,0 42.6,20.3 45,19.2c2.3,-1.1 24.8,-32.3 24.8,-32.3l-7.4,-0.8l-20.3,23.8l-26.2,-14.5l-15.9,4.6z" class="st22" id="XMLID_216_"/>
     <path d="m485.2,236.6c0,0 4.8,-9.8 5.7,-20.4c0,0 -2.5,-0.3 -2.8,3.8c-0.3,3.9 -3.9,9.3 -3.9,9.3l1,7.3z" class="st23" id="XMLID_214_"/>
     <path d="m485.2,236.6c0,0 4.2,-10.6 1.2,-19.6c0,0 -2,-0.2 -1.6,3.1c0.3,3.3 -1,11.1 -3,12.4c-0.1,0 0.5,4.4 3.4,4.1z" class="st23" id="XMLID_213_"/>
     <path d="m472.5,248.3c0,0 12.6,-6.6 12.6,-12.2c0,-5.6 1.6,-10.4 -4.9,-15.8c0,0 -1.4,2.3 1.4,5.9c0,0 2.1,3.8 -2,9.3c0,0 -5.6,0.8 -8.6,6c0.1,-0.1 -0.9,5.1 1.5,6.8z" class="st22" id="XMLID_212_"/>
     <g id="phone_1_">
      <g id="svg_295">
       <path id="svg_296" d="m467.7,262.3l-2,-1.2c-4,-2.4 -5.1,-6.8 -2.6,-9.8l22.7,-26.9c2.5,-3 7.8,-3.5 11.8,-1.1l2,1.2c4,2.4 5.1,6.8 2.6,9.8l-22.7,26.9c-2.5,3 -7.8,3.5 -11.8,1.1z" class="st28"/>
       <path id="svg_297" d="m464.1,260.2l-2,-1.2c-4,-2.4 -5.1,-6.8 -2.6,-9.8l22.7,-26.9c2.5,-3 7.8,-3.5 11.8,-1.1l2,1.2c4,2.4 5.1,6.8 2.6,9.8l-22.6,26.9c-2.6,3 -7.9,3.5 -11.9,1.1z" class="st29"/>
      </g>
      <polygon id="svg_298" points="474,259.6 460.2,251.5 486,219.9 499.7,228     " class="st10"/>
      <path id="svg_299" d="m482.4,244.4l-4.8,-2.9c-1.1,-0.7 -1.4,-1.9 -0.7,-2.7l0.4,-0.4c0.7,-0.8 2.2,-1 3.2,-0.3l4.8,2.9c1.1,0.7 1.4,1.9 0.7,2.7l-0.4,0.4c-0.6,0.8 -2.1,1 -3.2,0.3z" class="st30"/>
      <path id="svg_300" d="m485.8,233.1l-4.9,-3c-1.1,-0.7 -1.4,-1.9 -0.7,-2.7l0.4,-0.4c0.7,-0.8 2.2,-1 3.2,-0.3l4.9,3c1.1,0.7 1.4,1.9 0.7,2.7l-0.4,0.4c-0.6,0.8 -2.1,1 -3.2,0.3z" class="st31"/>
      <path id="svg_301" d="m471.5,250.7l-4.9,-3c-1.1,-0.7 -1.4,-1.9 -0.7,-2.7l0.4,-0.4c0.7,-0.8 2.2,-1 3.2,-0.3l4.9,3c1.1,0.7 1.4,1.9 0.7,2.7l-0.4,0.4c-0.6,0.8 -2.1,1 -3.2,0.3z" class="st31"/>
     </g>
     <path d="m466.1,241.4c0,0 0,-4.5 1.9,-8.3c1.4,-2.7 2.2,-7 2.2,-7s2.3,-0.2 1.5,4.1c-0.8,4.3 0.4,6.4 0.4,6.4l-6,4.8z" class="st23" id="XMLID_215_"/>
    </g>
   </g>
   <g id="BRAZO_DERE-2">
    <g id="svg_302">
     <path d="m410.3,248.2c0,0 34.1,32.6 36.8,32.3c2.5,-0.3 33.6,-23 33.6,-23l-6.8,-3.1l-26.7,16.3l-20.4,-21.9l-16.5,-0.6z" class="st22" id="XMLID_37_"/>
     <path d="m486.5,253.7c0,0 7.6,-7.8 11.8,-17.6c0,0 -2.3,-1.1 -3.8,2.7c-1.5,3.6 -6.6,7.6 -6.6,7.6l-1.4,7.3z" class="st23" id="XMLID_35_"/>
     <path d="m486.5,253.7c0,0 7.3,-8.8 7.3,-18.2c0,0 -1.8,-0.8 -2.5,2.4c-0.7,3.2 -4.4,10.2 -6.7,10.8c-0.1,0 -0.9,4.4 1.9,5z" class="st23" id="XMLID_34_"/>
     <path d="m470.8,260.9c0,0 14,-2.3 15.8,-7.7c1.7,-5.3 4.8,-9.4 0.3,-16.5c0,0 -2,1.7 -0.5,6c0,0 0.8,4.3 -4.8,8.2c0,0 -5.6,-1 -10,3c0,0 -2.6,4.6 -0.8,7z" class="st22" id="XMLID_32_"/>
     <g id="phone_4_">
      <g id="svg_303">
       <path id="svg_304" d="m461.9,272.7l-1.5,-1.8c-3.1,-3.5 -2.7,-8.1 0.6,-10.1l30,-18.5c3.3,-2.1 8.5,-0.9 11.6,2.6l1.5,1.8c3.1,3.5 2.7,8.1 -0.6,10.1l-30,18.5c-3.4,2.1 -8.6,0.9 -11.6,-2.6z" class="st28"/>
       <path id="svg_305" d="m459.1,269.6l-1.5,-1.8c-3.1,-3.5 -2.7,-8.1 0.6,-10.1l30,-18.5c3.3,-2.1 8.5,-0.9 11.6,2.6l1.5,1.8c3.1,3.5 2.7,8.1 -0.6,10.1l-29.9,18.5c-3.5,2.1 -8.6,0.9 -11.7,-2.6z" class="st29"/>
      </g>
      <polygon id="svg_306" points="468.7,272.1 458.1,260.1 492.5,238.1 503,250.1     " class="st10"/>
      <path id="svg_307" d="m481.4,260.3l-3.7,-4.3c-0.8,-1 -0.7,-2.2 0.2,-2.8l0.5,-0.3c0.9,-0.5 2.4,-0.3 3.1,0.7l3.7,4.3c0.8,1 0.7,2.2 -0.2,2.8l-0.5,0.3c-0.8,0.6 -2.3,0.3 -3.1,-0.7z" class="st30"/>
      <path id="svg_308" d="m488.2,250.6l-3.7,-4.4c-0.8,-1 -0.7,-2.2 0.2,-2.8l0.5,-0.3c0.9,-0.5 2.4,-0.3 3.1,0.7l3.7,4.4c0.8,1 0.7,2.2 -0.2,2.8l-0.5,0.3c-0.8,0.6 -2.3,0.3 -3.1,-0.7z" class="st31"/>
      <path id="svg_309" d="m469.1,262.9l-3.7,-4.4c-0.8,-1 -0.7,-2.2 0.2,-2.8l0.5,-0.3c0.9,-0.5 2.4,-0.3 3.1,0.7l3.7,4.4c0.8,1 0.7,2.2 -0.2,2.8l-0.5,0.3c-0.8,0.5 -2.3,0.3 -3.1,-0.7z" class="st31"/>
     </g>
     <path d="m466.9,252.3c0,0 1.4,-4.3 4.4,-7.3c2.2,-2.1 4.3,-6 4.3,-6s2.2,0.5 0.1,4.4c-2.1,3.8 -1.6,6.2 -1.6,6.2l-7.2,2.7z" class="st23" id="XMLID_25_"/>
    </g>
   </g>
   <g id="CUERPO_1_">
    <g id="XMLID_67_">
     <polygon points="432.7,449 432.5,458.3 426.7,458.3 426.6,449    " class="st23" id="XMLID_147_"/>
     <path d="m463.7,471.3l-37.1,0l0,-2.5l0.1,-10.5l5.8,0c0,0 22.3,4 29.3,10.5c0.9,0.8 1.5,1.6 1.9,2.5z" class="st32" id="XMLID_146_"/>
     <path d="m435.4,458.3l-2.1,4.5l4.2,1.2l2.1,-4.9c0.1,0.1 -1.5,-1.4 -4.2,-0.8z" class="st33" id="XMLID_145_"/>
     <path d="m440.6,459.6l-2.1,4.5l4.2,1.2l2.1,-4.9c0,0.1 -1.5,-1.4 -4.2,-0.8z" class="st33" id="XMLID_144_"/>
     <path d="m463.7,471.3l-37.1,0l0,-2.5l35.2,0c0.9,0.8 1.5,1.6 1.9,2.5z" class="st33" id="XMLID_143_"/>
     <polygon points="376.7,449 374.9,458.3 380.7,458.3 382.8,449    " class="st23" id="XMLID_142_"/>
     <path d="m343.7,471.3l37.1,0l0,-2.5l-0.1,-10.5l-5.8,0c0,0 -22.3,4 -29.3,10.5c-0.9,0.8 -1.6,1.6 -1.9,2.5z" class="st32" id="XMLID_141_"/>
     <path d="m372,458.3l2.1,4.5l-4.2,1.2l-2.1,-4.9c-0.1,0.1 1.5,-1.4 4.2,-0.8z" class="st33" id="XMLID_140_"/>
     <path d="m366.8,459.6l2.1,4.5l-4.2,1.2l-2.1,-4.9c0,0.1 1.5,-1.4 4.2,-0.8z" class="st33" id="XMLID_139_"/>
     <path d="m343.7,471.3l37.1,0l0,-2.5l-35.2,0c-0.9,0.8 -1.6,1.6 -1.9,2.5z" class="st33" id="XMLID_138_"/>
     <path d="m389.4,254.6l-8.3,2.6l0.2,46.7l-10.1,44.7l8.9,4l9.8,-40.6l2.4,-40.3c-0.1,-0.1 0,-15 -2.9,-17.1z" class="st22" id="XMLID_137_"/>
     <path d="m399.2,318.3c0,0 -6.9,13.1 -7.1,38.3l-18.9,95.8l13,1.6l24.8,-94.6c0.2,-2.7 5.3,-19.5 9.3,0.2l3.5,5.1l1.9,-18.3l-3.7,-28.3l-22.8,0l0,0.2z" class="st34" id="XMLID_136_"/>
     <path d="m438.3,315.2c0,0 5.4,12.2 0,44.8c-5.5,33.1 -1.4,92.7 -1.4,92.7l-13.4,1.4l-0.9,-60.6l-5.1,-75.1l20.8,-3.2z" class="st34" id="XMLID_135_"/>
     <path d="m413.6,249l-11.6,1.5c-0.9,0.1 -1.8,-0.5 -1.9,-1.4l-2.6,-20.3c-0.1,-0.9 0.5,-1.8 1.4,-1.9l11.6,-1.5c0.9,-0.1 1.8,0.5 1.9,1.4l2.6,20.3c0.1,1 -0.5,1.8 -1.4,1.9z" class="st22" id="XMLID_134_"/>
     <g id="XMLID_107_">
      <g id="XMLID_132_">
       <path d="m439.8,325.7l-0.7,0c0,-0.9 0,-1.4 0,-1.4l0.7,0c0,0 0,0.5 0,1.4z" class="st35" id="XMLID_133_"/>
      </g>
      <g id="XMLID_110_">
       <path d="m434.1,439.9c0,-0.8 -0.1,-1.8 -0.1,-2.9l0.7,0c0,1.1 0.1,2 0.1,2.9l-0.7,0zm-0.3,-5.7l-0.1,-2.9l0.7,0l0.1,2.9l-0.7,0zm-0.1,-5.7l-0.1,-2.9l0.7,0l0.1,2.9l-0.7,0zm-0.2,-5.8l-0.1,-2.9l0.7,0l0.1,2.9l-0.7,0zm-0.1,-5.7c0,-0.9 0,-1.9 0,-2.9l0.7,0c0,1 0,1.9 0,2.9l-0.7,0zm0,-5.7c0,-0.9 0,-1.9 0,-2.9l0.7,0c0,1 0,1.9 0,2.9l-0.7,0zm0.7,-5.7l-0.7,0c0,-1 0,-1.9 0,-2.9l0.7,0c0,1 0,1.9 0,2.9zm0,-5.8l-0.7,0c0,-1 0,-1.9 0,-2.9l0.7,0c0,1 0,2 0,2.9zm0.1,-5.7l-0.7,0c0,-1 0.1,-1.9 0.1,-2.9l0.7,0c0,1 -0.1,2 -0.1,2.9zm0.2,-5.7l-0.7,0c0,-1 0.1,-1.9 0.1,-2.9l0.7,0c0,1 -0.1,2 -0.1,2.9zm0.3,-5.7l-0.7,0c0.1,-1 0.1,-1.9 0.2,-2.9l0.7,0.1c-0.1,0.9 -0.2,1.8 -0.2,2.8zm0.4,-5.7l-0.7,-0.1c0.1,-1 0.2,-1.9 0.3,-2.9l0.7,0.1c-0.1,1 -0.2,1.9 -0.3,2.9zm0.6,-5.7l-0.7,-0.1c0.1,-1 0.2,-1.9 0.4,-2.8l0.7,0l0,0.1c-0.2,1 -0.3,1.9 -0.4,2.8zm0.8,-5.6l-0.7,-0.1c0.1,-1 0.3,-1.9 0.4,-2.8l0.7,0.1c-0.1,0.9 -0.3,1.8 -0.4,2.8zm0.7,-5.7l-0.7,-0.1c0.1,-1 0.2,-1.9 0.3,-2.8l0.7,0.1c0,0.9 -0.1,1.8 -0.3,2.8zm0.7,-5.7l-0.7,-0.1c0.1,-1 0.2,-1.9 0.3,-2.8l0.7,0.1c-0.1,0.9 -0.2,1.8 -0.3,2.8zm0.6,-5.7l-0.7,-0.1c0.1,-1 0.2,-1.9 0.3,-2.8l0.7,0.1c-0.1,0.9 -0.2,1.8 -0.3,2.8zm0.5,-5.7l-0.7,-0.1c0.1,-1 0.1,-1.9 0.2,-2.9l0.7,0c-0.1,1.1 -0.2,2 -0.2,3zm0.3,-5.7l-0.7,0c0.1,-1 0.1,-2 0.2,-2.9l0.7,0c0,0.9 -0.1,1.9 -0.2,2.9zm0.3,-5.7l-0.7,0c0,-1.1 0.1,-2 0.1,-2.9l0.7,0c0,0.8 0,1.8 -0.1,2.9z" class="st35" id="XMLID_111_"/>
      </g>
      <g id="XMLID_108_">
       <polygon points="434.3,444.2 434.2,442.8 434.9,442.7 435,444.2      " class="st35" id="XMLID_109_"/>
      </g>
     </g>
     <g id="XMLID_83_">
      <path d="m377,443.3l-0.7,-0.1l0.6,-2.8l0.7,0.1l-0.6,2.8zm1.1,-5.6l-0.7,-0.1l0.6,-2.8l0.7,0.1l-0.6,2.8zm1.1,-5.7l-0.7,-0.1l0.6,-2.8l0.7,0.1l-0.6,2.8zm1.1,-5.6l-0.7,-0.1l0.6,-2.8l0.7,0.1l-0.6,2.8zm1.1,-5.7l-0.7,-0.1l0.6,-2.8l0.7,0.1l-0.6,2.8zm1.1,-5.6l-0.7,-0.1l0.6,-2.8l0.7,0.1l-0.6,2.8zm1.1,-5.7l-0.7,-0.1l0.6,-2.8l0.7,0.1l-0.6,2.8zm1.1,-5.6l-0.7,-0.1l0.6,-2.8l0.7,0.1l-0.6,2.8zm1.1,-5.7l-0.7,-0.1l0.6,-2.8l0.7,0.1l-0.6,2.8zm1.2,-5.7l-0.7,-0.1l0.6,-2.8l0.7,0.1l-0.6,2.8zm1.1,-5.6l-0.7,-0.1l0.6,-2.8l0.7,0.1l-0.6,2.8zm1.1,-5.7l-0.7,-0.1l0.6,-2.8l0.7,0.1l-0.6,2.8zm1.1,-5.6l-0.7,-0.1l0.6,-2.8l0.7,0.1l-0.6,2.8zm1.1,-5.7l-0.7,-0.1l0.6,-2.8l0.7,0.1l-0.6,2.8zm1.1,-5.6l-0.7,-0.1l0.6,-2.8l0.7,0.1l-0.6,2.8zm1.1,-5.7l-0.7,-0.1l0.1,-0.5c0,0 0,-0.9 0,-2.3l0.7,0c0,1.5 -0.1,2.3 -0.1,2.3l0,0.6zm0.3,-5.8l-0.7,0c0,-0.9 0.1,-1.9 0.2,-2.9l0.7,0c-0.1,1 -0.2,2 -0.2,2.9zm0.3,-5.8l-0.7,-0.1c0.1,-0.9 0.2,-1.9 0.2,-2.9l0.7,0.1c0,1 -0.1,2 -0.2,2.9zm0.6,-5.7l-0.7,-0.1c0.1,-0.9 0.2,-1.9 0.4,-2.9l0.7,0.1c-0.2,1 -0.3,2 -0.4,2.9zm0.8,-5.7l-0.7,-0.1c0.2,-1 0.3,-1.9 0.5,-2.9l0.7,0.1c-0.2,1 -0.4,1.9 -0.5,2.9zm1,-5.6l-0.7,-0.2c0.2,-1 0.5,-1.9 0.7,-2.8l0.7,0.2c-0.2,0.8 -0.4,1.8 -0.7,2.8z" class="st35" id="XMLID_84_"/>
     </g>
     <polygon points="401,249.5 389.4,254.6 393.1,277 432.6,270.2 427.4,250.3 414,248    " class="st22" id="XMLID_82_"/>
     <polygon points="422.5,447.2 437.4,445.9 438,454.1 422.9,455.8    " class="st36" id="XMLID_81_"/>
     <polygon points="373.8,444.2 388.7,447 386.6,455.8 371.8,453.3    " class="st36" id="XMLID_80_"/>
     <path d="m397.7,322c0,0 20.9,5.5 41.8,-2.8c0,0 0.1,-0.4 -0.3,-2c-0.3,-1.2 -0.8,-1.9 -0.8,-1.9s-18,6.1 -39.1,3c0,0 -0.4,0.4 -1,1.7c-0.6,1.2 -0.6,2 -0.6,2z" class="st36" id="XMLID_79_"/>
     <path d="m398.2,331.3c0,0 8.2,3 10,-6l2.4,0c0,0 -1,11.5 -12.9,8.4l0.5,-2.4z" class="st35" id="XMLID_78_"/>
     <path d="m436.3,329.8c0,0 -7.8,3.8 -10.5,-4.9l-2.4,0.3c0,0 2.2,11.4 13.7,7l-0.8,-2.4z" class="st35" id="XMLID_77_"/>
     <polygon points="417.5,324.3 416.1,348.5 417.5,348.5 418.6,324.3    " class="st35" id="XMLID_76_"/>
     <path d="m414.9,319.1c0,0 -0.6,1.5 0,4.6c0,0 3.9,0.5 8.1,-0.5c0,0 0.4,-2 -0.3,-4.8c0,0.1 -4.2,0 -7.8,0.7z" class="st37" id="XMLID_75_"/>
     <g id="svg_310">
      <polygon points="385.8,333.1 400.8,288.5 397.7,286.9 381.7,331.4     " class="st38" id="XMLID_74_"/>
      <polygon points="380.6,331.4 389.8,339 394.1,338.7 385.1,331.4     " class="st38" id="XMLID_73_"/>
      <polygon points="379.4,377.6 367.9,365.8 380.6,331.4 389.8,339     " class="st39" id="XMLID_72_"/>
      <path d="m394.1,338.7c0,0 -2.6,16.8 -6.4,40.5l-8.2,-1.6c0,0 2.5,-19.7 10.4,-38.7l4.2,-0.2z" class="st40" id="XMLID_71_"/>
      <polygon points="427.4,250.3 394.1,338.7 389.8,339 423.1,249.5     " class="st41" id="XMLID_70_"/>
     </g>
     <path d="m392.2,271.6c0,0 5.5,-7.8 18.4,-5c0,0 12.5,-7.6 20.7,-1.4c0,0 3.3,3.6 0.4,20.1c-3.6,20.1 6.7,29.9 6.7,29.9s-18.5,6.7 -39.1,3c0,0 8.5,-14.1 0.5,-25.1c-9,-12.1 -7.6,-16.6 -7.6,-21.5z" class="st42" id="XMLID_69_"/>
     <path d="m380,350.2c0,0 3.8,3.8 3.9,11.5c0,1.8 -1.3,8.8 -4,-3.2c0,0 -2.7,3.8 1.5,13.1c0,0 0.3,6.2 -3.7,2.5c0,0 -12.9,-2.1 -6.5,-25.5l8.8,1.6z" class="st22" id="XMLID_68_"/>
    </g>
   </g>
  </g>
  <g id="girl1">
   <g id="CARA">
    <g id="svg_311">
     <path d="m236.9,201.8l0,0c-4.1,-0.3 -7.1,-4 -6.8,-8l0.7,-8.8c0.3,-4.1 4,-7.1 8,-6.8l0,0c4.1,0.3 7.1,4 6.8,8l-0.6,8.8c-0.4,4.1 -4,7.2 -8.1,6.8z" class="st23" id="XMLID_44_"/>
     <path d="m301.6,207l0,0c-3.9,-1.1 -6.2,-5.3 -5.1,-9.2l2.4,-8.5c1.1,-3.9 5.3,-6.2 9.2,-5.1l0,0c3.9,1.1 6.2,5.3 5.1,9.2l-2.4,8.5c-1.1,3.9 -5.3,6.2 -9.2,5.1z" class="st22" id="XMLID_42_"/>
     <path d="m270.4,237.5l-2.4,0c-4.5,0 -8.1,-3.7 -8.1,-8.1l0,-4.1c0,-4.5 3.7,-8.1 8.1,-8.1l2.3,0c4.5,0 8.1,3.7 8.1,8.1l0,4.1c0.1,4.4 -3.5,8.1 -8,8.1z" class="st23" id="XMLID_40_"/>
     <path d="m237,200.7l3.5,-41.8c1.3,-15 14.5,-26.2 29.5,-24.9l12.5,1c15,1.3 26.2,14.5 24.9,29.5l-3.1,37.4c-0.7,8.5 -12.4,33.2 -34.6,31.3c-23,-1.9 -33.3,-24.9 -32.7,-32.5z" class="st22" id="XMLID_39_"/>
     <path d="m272,200.4c0,0 5.7,6.5 -2.8,7c0,0 11.7,1 2.8,-7z" class="st23" id="XMLID_36_"/>
     <path d="m264.4,179.3c-2.4,-1.4 -8.3,-4 -15.6,-0.6c-0.7,0.3 -1.6,-0.1 -1.8,-0.9l-0.2,-0.8c-0.1,-0.6 0.2,-1.1 0.7,-1.4c2.6,-1.3 10.3,-4.2 18.2,1.5c0.5,0.4 0.7,1 0.4,1.6l0,0c-0.2,0.7 -1,1 -1.7,0.6z" class="st43" id="XMLID_33_"/>
     <g id="svg_312">
      <path d="m234.4,174c0.4,7.3 1.4,15.2 2.6,23.8l2.1,-22.2c0,0 9.7,-9.9 15.2,-23.2c0,0 11.6,31.2 50.5,39.4l-0.4,8.6c0,0 10.9,-12.5 9.3,-38.8c-1.6,-26.4 -36.6,-45.4 -62.2,-31c-14.7,8.3 -18.2,23.3 -17.1,43.4z" class="st44" id="XMLID_30_"/>
      <path d="m262,143.6c1.9,9 10.9,26.1 31.7,32.6c20.7,6.5 -9.2,-1.6 -20.2,-24.4c-7.7,-15.8 -13.4,-17.2 -11.5,-8.2z" class="st43" id="XMLID_27_"/>
      <path d="m234.4,174c0.4,7.3 1.4,15.2 2.6,23.8l2.1,-22.2c0,0 9.7,-9.9 15.2,-23.2c0,0 11.6,31.2 50.5,39.4l-0.4,8.6l3.1,-12.5c0,0 -34.8,-6.7 -53.8,-47c0,0 -7.6,23.7 -19.3,33.1z" class="st43" id="XMLID_9_"/>
     </g>
    </g>
   </g>
   <g id="BRAZO_DERE">
    <path d="m288.4,331.4l-2.6,7.5c0,0 -4.7,2.5 -6.9,10.2c-2.2,7.7 3.2,3.6 5.1,0.6c0,0 -2.5,8.1 0.5,9.2c0,0 4.8,2.4 6.6,0.4c0,0 4,1.6 5.6,-0.5c0,0 3.4,2.3 4.9,-1l-3.2,-0.3c0,0 2.9,-14.9 -5,-19l0.8,-6.9l-5.8,-0.2z" class="st22" id="XMLID_51_"/>
    <path d="m292.5,246.3c0,0 2.8,3.4 6.3,21.2c3.5,17.8 5.8,40 5.8,40l-8.7,30l-11.8,-3.7l8.5,-25.9l-6.9,-35c0.1,-0.1 0.2,-19.9 6.8,-26.6z" class="st45" id="XMLID_50_"/>
   </g>
   <g id="CUERPO">
    <g id="svg_313">
     <path d="m249.1,317.2c0,0 -6.2,16.7 -1.6,43.9l-12.2,107.9l13,1.4l17.9,-106.5c0.2,-3 3.6,-15.8 5.3,0.3l3.7,5.7l2,-20.6l-4,-32l-24.1,0l0,-0.1z" class="st46" id="XMLID_46_"/>
     <path d="m290.7,313.8c0,0 5.7,13.9 0,50.6c-5.8,37.5 -1.5,104.9 -1.5,104.9l-14.3,1.6l-1,-68.6l-5.5,-85l22.3,-3.5z" class="st46" id="XMLID_45_"/>
     <path d="m247.5,321.4c0,0 22.2,6.2 44.4,-3.2c0,0 0.1,-0.5 -0.3,-2.3c-0.4,-1.4 -0.9,-2.2 -0.9,-2.2s-19.1,6.9 -41.6,3.4c0,0 -0.4,0.5 -1,1.9c-0.6,1.5 -0.6,2.4 -0.6,2.4z" class="st47" id="XMLID_29_"/>
     <path d="m265.7,318.1c0,0 -0.7,1.7 0,5.3c0,0 4.2,0.6 8.6,-0.6c0,0 0.4,-2.3 -0.3,-5.4c0.1,0 -4.4,-0.1 -8.3,0.7z" class="st48" id="XMLID_28_"/>
     <path d="m303.5,499.1l-16.6,0c-3.1,-8.7 -11.9,-15.6 -11.9,-15.6l2.4,-5.7l0.9,-2.2c2.5,-3.5 6.2,0 6.2,0c1.3,5.2 7.7,12.5 12.7,17.5c3.4,3.5 6.3,6 6.3,6z" class="st23" id="XMLID_26_"/>
     <path d="m218.4,499.1l16.6,0c3.1,-8.7 11.9,-15.6 11.9,-15.6l-2.4,-5.7l-0.9,-2.2c-2.5,-3.5 -6.2,0 -6.2,0c-1.3,5.2 -7.7,12.5 -12.7,17.5c-3.5,3.5 -6.3,6 -6.3,6z" class="st23" id="XMLID_23_"/>
    </g>
    <g id="svg_314">
     <path d="m276.2,242.9l-13.9,-0.1c-0.9,0 -1.5,-0.7 -1.5,-1.6l0.2,-23.8c0,-0.9 0.7,-1.5 1.6,-1.5l13.9,0.1c0.9,0 1.5,0.7 1.5,1.6l-0.2,23.8c0,0.8 -0.7,1.5 -1.6,1.5z" class="st22" id="XMLID_41_"/>
     <polygon points="261.8,241.4 247.9,245.8 248.7,271.1 293.9,269.5 291.2,246.4 276.5,241.8    " class="st22" id="XMLID_31_"/>
     <path d="m270.7,257.6l9.3,-0.5l-0.5,-14.4l13.3,3.8l1.4,21.1l-3.5,34.6l-1.3,19.2c0,0 -17.3,4.6 -40.1,-3.2c0,0 -1.9,-32 -1.8,-32.9c1.1,-12.7 1,-24 1,-24l-2.6,-15.1l12.1,-4.4l2.6,14.4l10.1,1.4z" class="st45" id="XMLID_15_"/>
    </g>
   </g>
   <g id="BRAZO_IZQ">
    <g id="svg_315">
     <path d="m180.7,282.5c0,0 -3.2,-10.4 -2.4,-21.1c0,0 2.5,0.1 2.1,4.2c-0.3,3.9 2.4,9.8 2.4,9.8l-2.1,7.1z" class="st23" id="XMLID_13_"/>
     <path d="m256.4,242.9c0,0 -11.5,-0.5 -16.8,10.8c-5.3,11.3 -16,43.9 -16,43.9l-30.4,-9.2l-1.9,7.7c0,0 24.3,12.9 35.3,13.9c0.1,0 33.4,-54.9 29.8,-67.1z" class="st45" id="XMLID_12_"/>
     <path d="m180.7,282.5c0,0 -2.4,-11.2 2,-19.5c0,0 2,0.1 1.1,3.3c-0.9,3.2 -0.7,11.1 1,12.7c0,0 -1.3,4.3 -4.1,3.5z" class="st23" id="XMLID_11_"/>
     <path d="m194.3,294.1c0,0 -14.2,-1.6 -16.2,-6.9c-2,-5.2 -5.2,-9.1 -1.2,-16.5c0,0 2.1,1.6 0.9,6c0,0 -0.6,4.3 5.2,8c0,0 5.5,-1.3 10.2,2.4c-0.1,0.1 2.7,4.5 1.1,7z" class="st22" id="XMLID_10_"/>
     <path d="m248.8,244.5c0,0 -10.1,0.1 -16.7,25.6c-6.6,25.4 -9.3,25.2 -9.3,25.2s-2.1,-1.9 -2.6,-0.4c0,0 -3.2,-4.2 -7.4,-1.2l-4.1,10.6c0,0 11.5,7.9 18,5.7l13.1,-22.3l9,-43.2z" class="st45" id="XMLID_8_"/>
     <polygon points="213.1,293.5 204.4,291.2 201.3,301 209,304.4    " class="st45" id="XMLID_7_"/>
     <g id="phone_2_">
      <g id="svg_316">
       <path id="svg_317" d="m202,299.3l2,-1.2c4,-2.4 5.1,-6.8 2.6,-9.8l-22.6,-26.9c-2.5,-3 -7.8,-3.5 -11.8,-1.1l-2,1.2c-4,2.4 -5.1,6.8 -2.6,9.8l22.7,26.9c2.4,3 7.7,3.5 11.7,1.1z" class="st28"/>
       <path id="svg_318" d="m205.6,297.2l2,-1.2c4,-2.4 5.1,-6.8 2.6,-9.8l-22.7,-26.9c-2.5,-3 -7.8,-3.5 -11.8,-1.1l-2,1.2c-4,2.4 -5.1,6.8 -2.6,9.8l22.7,26.9c2.5,3 7.8,3.5 11.8,1.1z" class="st29"/>
      </g>
      <polygon id="svg_319" points="195.7,296.6 209.5,288.5 183.8,256.9 170,265     " class="st10"/>
      <path id="svg_320" d="m187.3,281.4l4.8,-2.9c1.1,-0.7 1.4,-1.9 0.7,-2.7l-0.4,-0.4c-0.7,-0.8 -2.2,-1 -3.2,-0.3l-4.8,2.9c-1.1,0.7 -1.4,1.9 -0.7,2.7l0.4,0.4c0.7,0.8 2.1,1 3.2,0.3z" class="st30"/>
      <path id="svg_321" d="m183.9,270.1l4.9,-3c1.1,-0.7 1.4,-1.9 0.7,-2.7l-0.4,-0.4c-0.7,-0.8 -2.2,-1 -3.2,-0.3l-4.9,3c-1.1,0.7 -1.4,1.9 -0.7,2.7l0.4,0.4c0.7,0.8 2.1,1 3.2,0.3z" class="st31"/>
      <path id="svg_322" d="m198.2,287.7l4.9,-3c1.1,-0.7 1.4,-1.9 0.7,-2.7l-0.4,-0.4c-0.7,-0.8 -2.2,-1 -3.2,-0.3l-4.9,3c-1.1,0.7 -1.4,1.9 -0.7,2.7l0.4,0.4c0.7,0.8 2.1,1 3.2,0.3z" class="st31"/>
     </g>
     <path d="m196.3,272.6c0.1,4.4 -1.4,6.2 -1.4,6.2l5.2,5.7c0,0 0.7,-4.5 -0.6,-8.5" class="st23" id="XMLID_17_"/>
    </g>
   </g>
   <g id="BRAZO_IZQ-2">
    <g id="svg_323">
     <path d="m178.4,257.1c0,0 0,-10.9 4,-20.9c0,0 2.4,0.8 0.8,4.6c-1.4,3.6 -0.6,10.1 -0.6,10.1l-4.2,6.2z" class="st23" id="XMLID_24_"/>
     <path d="m262.4,241.8c0,0 -10.8,-3.9 -19.3,5.3c-8.4,9.2 -28.4,37.1 -28.4,37.1l-26.3,-17.8l-4.1,6.8c0,0 19.3,19.6 29.5,23.8c0.3,0 48.4,-42.4 48.6,-55.2z" class="st45" id="XMLID_22_"/>
     <path d="m178.4,257.1c0,0 1,-11.4 7.7,-18c0,0 1.9,0.7 0.1,3.5c-1.8,2.8 -4,10.4 -2.8,12.4c-0.1,-0.1 -2.6,3.7 -5,2.1z" class="st23" id="XMLID_21_"/>
     <path d="m187.9,272.2c0,0 -13.1,-5.8 -13.4,-11.4c-0.4,-5.6 -2.2,-10.2 3.8,-16.1c0,0 1.5,2.2 -0.9,6c0,0 -1.9,3.9 2.6,9.2c0,0 5.6,0.4 9,5.3c-0.2,0 1.1,5.1 -1.1,7z" class="st22" id="XMLID_20_"/>
     <path d="m254.7,241.1c0,0 -9.7,-2.9 -23.6,19.5c-13.9,22.3 -16.4,21.3 -16.4,21.3s-1.4,-2.4 -2.4,-1.2c0,0 -1.8,-5 -6.7,-3.4l-7.1,8.9c0,0 8.6,11 15.5,10.8l19.2,-17.4l21.5,-38.5z" class="st45" id="XMLID_19_"/>
     <polygon points="206,277.2 198.4,272.4 192.5,280.9 198.8,286.4    " class="st45" id="XMLID_18_"/>
     <g id="phone_3_">
      <g id="svg_324">
       <path id="svg_325" d="m193.7,279.4l2.3,-0.5c4.5,-1.1 6.9,-5 5.4,-8.6l-13.5,-32.4c-1.5,-3.6 -6.4,-5.7 -10.9,-4.6l-2.3,0.5c-4.5,1.1 -6.9,5 -5.4,8.6l13.6,32.4c1.3,3.7 6.2,5.7 10.8,4.6z" class="st28"/>
       <path id="svg_326" d="m197.7,278.5l2.3,-0.5c4.5,-1.1 6.9,-5 5.4,-8.6l-13.6,-32.4c-1.5,-3.6 -6.4,-5.7 -10.9,-4.6l-2.3,0.5c-4.5,1.1 -6.9,5 -5.4,8.6l13.6,32.4c1.5,3.7 6.4,5.7 10.9,4.6z" class="st29"/>
      </g>
      <polygon id="svg_327" points="188.5,275 204.1,271.4 188.9,233.5 173.4,237.2     " class="st10"/>
      <path id="svg_328" d="m185,258l5.4,-1.3c1.3,-0.3 1.9,-1.4 1.5,-2.4l-0.3,-0.5c-0.4,-1 -1.8,-1.6 -3,-1.2l-5.4,1.3c-1.3,0.3 -1.9,1.4 -1.5,2.4l0.3,0.5c0.4,0.9 1.7,1.5 3,1.2z" class="st30"/>
      <path id="svg_329" d="m185.1,246.2l5.6,-1.4c1.3,-0.3 1.9,-1.4 1.5,-2.4l-0.3,-0.5c-0.4,-1 -1.8,-1.6 -3,-1.2l-5.6,1.4c-1.3,0.3 -1.9,1.4 -1.5,2.4l0.3,0.5c0.5,0.9 1.7,1.5 3,1.2z" class="st31"/>
      <path id="svg_330" d="m193.5,267.2l5.6,-1.4c1.3,-0.3 1.9,-1.4 1.5,-2.4l-0.3,-0.5c-0.4,-1 -1.8,-1.6 -3,-1.2l-5.6,1.4c-1.3,0.3 -1.9,1.4 -1.5,2.4l0.3,0.5c0.5,1 1.7,1.6 3,1.2z" class="st31"/>
     </g>
     <path d="m196.2,252.3c-1.2,4.2 -3.2,5.5 -3.2,5.5l3.3,7c0,0 2,-4.1 2,-8.3" class="st23" id="XMLID_16_"/>
    </g>
   </g>
   <g id="BOCA">
    <g id="XMLID_3_">
     <path d="m260.6,217.5c0,0 0.6,1.7 1.8,3.4c0.2,0.2 0.3,0.5 0.5,0.7c2,2.5 5.3,4.7 9.9,1.2c0.1,-0.1 0.3,-0.2 0.4,-0.3c0.9,-0.7 1.8,-1.6 2.8,-2.8c0,-0.1 -7.8,0.3 -15.4,-2.2z" class="st26" id="XMLID_52_"/>
     <path d="m262.9,221.6c2,2.5 5.3,4.7 9.9,1.2c-0.9,-1.4 -2.8,-2.5 -4.9,-2.7c-2,-0.2 -3.8,0.4 -5,1.5z" class="st49" id="XMLID_53_"/>
    </g>
   </g>
   <g id="OJOS">
    <path d="m254.4,196.4l0,0c-1.2,-0.1 -2.1,-1.1 -2,-2.3l0.2,-2.9c0.1,-1.2 1.1,-2.1 2.3,-2l0,0c1.2,0.1 2.1,1.1 2,2.3l-0.2,2.9c-0.1,1.2 -1.2,2.1 -2.3,2z" class="st26" id="XMLID_2_"/>
    <path d="m285.9,199.1l0,0c-1.2,-0.1 -2.1,-1.1 -2,-2.3l0.2,-2.9c0.1,-1.2 1.1,-2.1 2.3,-2l0,0c1.2,0.1 2.1,1.1 2,2.3l-0.2,2.9c-0.1,1.2 -1.1,2.1 -2.3,2z" class="st26" id="XMLID_1_"/>
   </g>
   <g id="ojos-closed">
    <path d="m254.4,194.7l0,0c-1.2,0 -2.1,-0.3 -2,-0.6l0.2,-0.7c0.1,-0.3 1.1,-0.5 2.3,-0.5l0,0c1.2,0 2.1,0.3 2,0.6l-0.2,0.7c-0.1,0.3 -1.2,0.6 -2.3,0.5z" class="st26" id="XMLID_5_"/>
    <path d="m285.9,195.4l0,0c-1.2,0 -2.1,-0.3 -2,-0.6l0.2,-0.7c0.1,-0.3 1.1,-0.5 2.3,-0.5l0,0c1.2,0 2.1,0.3 2,0.6l-0.2,0.7c-0.1,0.3 -1.1,0.5 -2.3,0.5z" class="st26" id="XMLID_4_"/>
   </g>
  </g>
  <g id="TAXI">
   <g id="svg_331">
    <path id="svg_332" d="m1154.1,360c-9.5,0.1 -19,0.2 -28.6,0.3c-35.7,0.3 -71.4,0.6 -107.1,0.9c-3.4,1.1 -3.8,-1.1 -4,-3.5c-0.4,-5.6 -0.7,-11.3 -1.6,-16.8c-2.3,-14.6 -8.5,-27.4 -17.7,-38.9c-3.6,-4.5 -8.5,-7.4 -13,-10.8c-1.5,-1.1 -4.1,-2.1 -1.9,-4.8c5.1,-1.3 10.4,-0.9 15.6,-1.7c5.1,0.1 10.1,-0.3 15.2,-0.9c5.4,0.3 10.8,-0.8 16.2,-0.9c4.1,0.2 8.3,-1 12.2,1.1c1.4,1.5 0.8,3.3 0.8,5.1c-0.5,22.4 -2.5,44.7 -3.4,67.1c0,0.1 0.2,0.2 0.4,0.5c0.8,-11.7 1.5,-23.2 2,-34.8c0.5,-10.7 1.4,-21.3 1.7,-32c0,-1.7 0.6,-3.6 -0.8,-5.1c-1.4,-2.6 1.4,-3.5 2.2,-5.2c5.2,3.5 10.6,3.5 16.1,0.8c5.4,1.5 10.9,0.5 16.4,0.8c5.3,0.2 10.4,-1.4 15.7,-0.9c5.1,-0.2 10.2,0.2 15.2,-0.8c5.1,-0.3 10.3,-0.2 15.4,-0.1c2.5,0 5,-0.1 7.4,0c3.6,0.2 6.6,-0.7 8.3,-4.2c4.7,5.1 10.9,2.8 16.6,3.3c5.3,-0.2 10.6,-0.2 15.9,0c3,0.1 6,0 8.9,0.1c2.9,0.1 4.4,1.5 4.6,4.3c0.1,1.5 0.1,3 0.1,4.5c0,21.6 0,43.2 0,64.8c0,2.4 0.3,4.8 -1,7c-3.3,1.4 -6.7,0.4 -10,0.6c-5.7,0.1 -11.8,-0.5 -17.8,0.2z" class="st50"/>
    <path id="svg_333" d="m911.9,269.8c3.4,-5.4 9.2,-6.4 14.6,-7.5c17.6,-3.7 35.4,-5.8 53.3,-7.6c17.4,-1.7 34.9,-3.3 52.4,-4.2c3.2,-0.2 3.1,-2.4 3.5,-4.1c3.1,-14.8 6.9,-29.4 11.1,-44c3.3,-11.4 7.1,-22.6 11.9,-33.5c4.2,-9.8 11.4,-15.7 21.7,-18c5.1,-1.1 10.1,-2.5 15.2,-3.1c3.3,-0.4 3.8,-1.8 3.9,-4.5c0.3,-6.3 1.4,-12.5 4.8,-17.9c2.4,-3.8 5.2,-7.3 10.4,-7.2c0.3,1 0,1.8 -0.6,2.5c-4.4,6.2 -5,13.6 -6.1,20.8c-0.5,2.9 0.5,4.1 3.7,3.6c3.4,-0.6 6.8,-0.6 10.2,0c2.2,1.4 4.7,0.7 7,0.6c27.1,-1 54.2,-0.3 81.2,0.5c28,0.9 51,13.3 69.6,34.2c15.4,17.5 26.6,37.5 36,58.7c1.3,3 3,4 6.3,4.3c12.2,1.2 24,4.3 34.3,11.2c1.4,0.9 3.4,1.6 3.1,3.9c-0.4,0.3 -0.8,0.5 -1.3,0.5c-2.1,0 -4.1,-0.1 -6.2,-0.2c-3.8,-0.1 -7.6,-0.3 -7.9,5c0,0.7 -0.8,1.2 -1.7,0.9c-2.3,-5.9 -2.3,-5.8 -9,-5.9c-1.9,0 -3.8,0.1 -5.7,0c-0.5,0 -1,0 -1.5,0c-5.1,0.5 -10,-1.1 -15,-0.9c-5.1,0.1 -10.3,0.2 -15.4,0c-3.1,0.1 -6.2,0 -9.2,0c-4.6,0.1 -4.9,0.4 -5.1,5.1c-0.1,1.3 0,2.6 -0.4,3.9c-0.2,0.5 -0.4,0.9 -0.8,1.3c-1,0.3 -1.4,-0.4 -1.8,-1.1c-0.5,-1.1 -0.5,-2.3 -0.5,-3.5c-0.3,-5.7 -0.3,-5.7 -6.2,-5.8c-2.7,0 -5.3,0 -8,0c-5.2,0.2 -10.4,0.2 -15.6,0c-4.9,0.1 -9.8,0.1 -14.8,0c-0.5,0 -1.1,0 -1.6,0c-5,0.2 -10.1,-0.2 -15.1,0.3c-5.3,-0.4 -10.6,-0.2 -15.9,-0.3c-3.3,0.1 -6.5,0 -9.8,0c-3,-0.3 -6.5,0.3 -6.9,-5.3c-1,2.7 1,3.5 0.7,4.9c-0.3,0.4 -0.7,0.7 -1.1,0.8c-4.6,0.9 -9.2,0.3 -13.8,0.4c-0.5,0 -1,0 -1.6,0c-5,0.2 -9.9,-0.2 -14.9,0.3c-5.5,-0.4 -10.9,1.1 -16.3,0.6c-4,0.1 -8,0 -12,0.1c-1.3,-0.1 -2.7,-0.1 -4,-0.1c-5.4,-0.4 -10.6,1.1 -16,0.9c-5.1,0.3 -10.2,-0.4 -15.3,0.6c-5.2,0.6 -10.5,0.1 -15.7,0.3c-5.4,0.6 -10.7,1.3 -16.1,0.9c-4.9,-0.3 -9.7,0.8 -14.5,0.4c-2.1,-1 -0.5,-2.5 -0.4,-3.8c0.1,-1.9 0.5,-3.7 0.2,-5.7c-2.1,2.9 0.1,7 -2.9,9.5c-4.5,1.2 -9.2,0.2 -13.7,1.4c-5.3,0.5 -10.7,-0.3 -16,0.8c-5.3,0.5 -10.8,0 -16.1,1c-5.1,0 -10.2,0.3 -15.2,0.9c-5.4,0 -10.7,0.2 -16,0.9c-5.3,-0.3 -10.6,1.2 -15.9,0.9c-5.1,0.2 -10.1,1.1 -15.2,1.2c-5.5,0.6 -11,0.4 -16.4,1.3c-1.7,0.1 -3,0 -3.9,-1.2z" class="st50"/>
    <path id="svg_334" d="m1154.1,360c4,-1.6 8.2,-0.5 12.3,-0.7c5.2,-0.2 10.4,-0.1 15.6,-0.2c2.5,-2.2 2,-5.1 2,-7.9c0,-21.5 0,-43 0,-64.5c0,-2.4 -0.2,-4.8 0.6,-7.1c0.2,-0.5 0.6,-1 1,-1.3c4.9,-1.7 10,-0.6 15,-0.8c5.2,-0.1 10.4,-0.2 15.6,0c2.2,-0.1 4.4,0 6.6,0c6.5,0 6.5,0 8.8,-5.7c2.4,-0.4 2.1,1.6 2.3,2.8c0.4,2.2 1.7,2.9 3.7,2.9c3.5,0 7.1,0 10.6,-0.3c5.3,0.4 10.5,0.2 15.8,0.3c5.3,-0.1 10.7,0.1 16,-0.3c5.1,0.5 10.2,0.1 15.4,0.3c5.1,-0.1 10.3,-0.2 15.4,0c3.1,0 6.2,-0.1 9.3,0c3.8,0.2 5.6,-1.2 5.2,-5.1c-0.1,-1.2 0,-2.4 0.4,-3.5c0.2,-0.5 0.5,-0.9 1,-1.1c0.2,0 0.5,0 0.7,0c0.2,0.2 0.3,0.4 0.5,0.5c0.3,0.5 0.5,1.1 0.6,1.7c1,7.7 1,7.7 8.9,8.3c1.9,0.1 3.8,-0.2 5.7,-0.2c5.3,0.4 10.6,0.2 15.9,0.3c3.5,-0.2 7,-0.1 10.4,0c1.6,0 3.2,0.1 4.3,1.6c0.3,0.8 0.5,1.7 0.8,2.5c-1,1.5 -2.7,1.6 -4.2,2.1c-7.5,2.1 -11.6,8.5 -10.5,16.5c2.6,7.3 8,10.9 15.5,10.6c2.6,-0.1 2.7,-2.3 4.2,-3.4c0.8,7.1 1.6,14.2 2.4,21.3c-1.7,1.8 -3.6,0.6 -5.4,0.5c-9.4,-0.5 -15.4,2.7 -18.1,9.7c-2.2,5.7 -0.3,11.8 4.6,15.3c1.2,0.8 2.8,1.2 2.9,3c-3.9,0 -7.7,0.1 -11.6,0.1c-1.9,-0.8 -2,-2.4 -2,-4.1c0,-11.1 -2.1,-21.8 -6.2,-32.2c-7.2,-18.4 -19.2,-32.1 -38.5,-38.2c-14.1,-4.4 -27.2,-1.2 -38.9,7.3c-16.2,11.7 -24.4,28.2 -27.9,47.6c-0.9,5.2 -1.6,10.3 -1.5,15.5c0,1.9 0.1,4 -2.1,5c-27.7,0.3 -55.4,1.3 -83.1,0.9z" class="st50"/>
    <path id="svg_335" d="m1336.9,358.8c6.7,24.1 -6,43 -20.2,50.5c-16.2,8.6 -32.3,7.8 -46.9,-3.2c-14.7,-11.1 -19.9,-26.4 -16.1,-44.6c0.2,-0.7 0.2,-1.5 0.3,-2.2c-0.6,-4.7 2.1,-8.3 4.5,-11.7c11.4,-16.4 28.6,-23.4 48.2,-18.7c13.4,3.2 23.1,11.7 29.1,24.3c0.9,1.8 1.6,3.5 1.1,5.6z" class="st51"/>
    <path id="svg_336" d="m999.6,362.1c1.9,10.9 1.5,21.5 -3.9,31.5c-9.9,18.7 -32.2,27.4 -52.5,20.3c-19.9,-6.9 -31.9,-27.7 -28,-48.4c0.2,-0.9 0.2,-1.8 0.3,-2.6c-0.3,-0.4 -0.4,-0.8 -0.4,-1.3c5.8,-19.9 21.8,-31.4 42.1,-32.2c19.4,-0.8 37.7,13.5 42.8,31.4c0,0.4 -0.1,0.9 -0.4,1.3z" class="st51"/>
    <path id="svg_337" d="m1336.9,358.8c-5.3,-14.7 -15.2,-24.6 -30.4,-28.7c-20,-5.5 -41.4,4.7 -50.1,23.6c-0.9,1.9 -1.6,3.8 -2.4,5.7c-3,0 -5.9,-0.1 -8.9,-0.1c-1.7,-2.1 -1.4,-4.6 -1.1,-6.8c2.7,-19.9 11.5,-36.2 29,-46.8c15.3,-9.3 38.2,-7.9 53.1,5.6c12,10.8 18.7,24.4 20.9,40.2c0.3,2.3 0.8,4.8 -1,6.8c-3,0.2 -6,0.3 -9.1,0.5z" class="st52"/>
    <path id="svg_338" d="m999.6,362.1c-0.2,-0.3 -0.2,-0.5 -0.2,-0.8c1.1,-1.6 2.9,-1.3 4.5,-1.4c2.5,-0.1 3.4,-1.3 3.1,-3.7c-1.8,-17.4 -8.4,-32.6 -22.7,-43.3c-20,-15.1 -44.8,-11.3 -61.1,7.2c-9,10.2 -13.3,22.2 -14.8,35.6c-0.4,3.5 -0.1,5.5 4,5.2c1.2,-0.1 2.4,0.1 3.2,1.2c0.1,0.3 0,0.6 -0.2,0.8c-6.5,-0.1 -12.9,0.3 -19.4,-0.5c0,-1.1 1,-1.4 1.7,-2c1.8,-1.2 1.5,-3.2 1.4,-4.9c-0.8,-16.7 3.8,-32.1 12.6,-46.1c4.8,-7.7 10.8,-14.5 18.6,-19.5c0.8,-0.7 1.3,-1.7 2.2,-2.4c5.5,-1.1 10.2,-4.4 15.7,-5.3c4.9,-1.1 10,-1.1 15,-1.2c5.4,1.3 10.5,3.6 15.8,5.1c0.4,0.2 0.8,0.5 1,0.8c0.1,3.6 3.6,3.7 5.6,5c11.9,7.8 18.3,19.5 23.8,32c4.6,10.5 5.3,21.7 6.1,32.8c0.1,2.1 -0.3,4.3 2.9,4.3c-6.2,1.5 -12.5,0.8 -18.8,1.1z" class="st53"/>
    <path id="svg_339" d="m1346.1,358.3c-0.9,-23.9 -10.4,-43 -32.6,-53.5c-15.7,-7.4 -31.6,-5.3 -45.2,5.5c-15.6,12.3 -23.2,28.9 -23,48.9c-2.7,0 -5.4,0 -8,0c1,-1.5 0.9,-3.1 0.9,-4.7c-0.3,-15.8 3.6,-30.6 11.6,-44.2c10.3,-17.3 24.8,-29.1 45.6,-29.4c15.7,-0.3 28.5,7.2 38.8,19.1c5,5.8 9.3,12 12.1,19c4.2,10.3 7,21.1 7.1,32.4c0,2.3 -0.6,4.8 0.9,6.9c-2.8,0 -5.5,0 -8.2,0z" class="st53"/>
    <path id="svg_340" d="m1365.8,358.1c-7.4,-3.7 -10.7,-9.1 -9.7,-15.7c1.2,-7.2 6.1,-11.8 14.1,-13.2c3.9,-0.7 7.6,0 11.5,0.3c9.4,3.2 14.1,11.5 11.5,21c-1.5,5.6 -6.6,6.8 -11.5,7.8c-5.2,1.1 -10.6,0.8 -15.9,-0.2z" class="st51"/>
    <path id="svg_341" d="m931.5,290.6c-11,7.7 -18.7,17.8 -24.3,30.1c-5.3,11.7 -7.4,23.8 -6.9,36.5c0.1,1.8 -0.2,3.6 -1.8,4.8c-1.3,-1.4 -1.7,-3.1 -1.9,-4.9c-0.7,-6.2 -0.4,-12.4 -0.3,-18.6c0,-1.2 0.4,-2.3 1.3,-3.2c0,-5.9 2.1,-11.9 0,-17.8c0.7,-8 1.4,-16 3.1,-23.9c0.3,-1.4 -0.2,-3.5 2.1,-3.8c0.1,1.5 -0.4,3.2 2.4,2.8c3.9,-0.5 7.9,-0.1 11.8,-1.2c4.9,-1.5 9.6,-3.4 14.5,-0.8z" class="st54"/>
    <path id="svg_342" d="m1122,144.9c-4.3,1.9 -9,0.4 -13.4,1.6c-1.8,0.5 -2.1,-1.4 -1.9,-2.7c1.2,-9 1.6,-18.3 8.1,-25.6c4.6,-1.7 7.7,0 7.9,4.7c0.2,3.5 -0.1,7.1 -0.1,10.6c-0.8,3.2 0.2,6.5 -0.5,9.8c0,0.4 0,1 -0.1,1.6z" class="st55"/>
    <path id="svg_343" d="m1358.7,301.3c-2.2,-9.5 5.2,-16.7 11.5,-17.9c1.4,-0.3 2.9,-0.6 4.3,-0.8c2.1,5.7 3.1,11.7 3.7,17.7c-1.1,1.3 -2.6,1.9 -4.3,2.1c-3.8,0.3 -7.6,0.2 -11.4,0.8c-1.6,0.1 -3,-0.5 -3.8,-1.9z" class="st56"/>
    <path id="svg_344" d="m902.9,289.7c-1.7,7.7 -3,15.4 -3.5,23.3c-0.1,1.6 0.7,3.7 -1.7,4.4c-3.1,-1.4 -3.5,-4.6 -4.6,-7.3c-1.6,-1.9 -2.2,-4.2 -2,-6.6c0.4,-5.1 -0.3,-10.4 2.9,-14.9c2,-5.2 3.7,-6.2 10.8,-6c-0.6,2.5 -1.3,4.8 -1.9,7.1z" class="st57"/>
    <path id="svg_345" d="m897.7,335.2c0.5,8.9 -0.3,17.8 0.9,26.7c-0.8,0.2 -1.7,0.3 -2.5,0.5c-7.2,-1.9 -8.6,-3.7 -8.5,-11.3c0,-2.5 0.1,-5.1 0.6,-7.5c1.2,-5.3 3.8,-7.5 9.5,-8.4z" class="st51"/>
    <path id="svg_346" d="m1358.7,301.3c6.5,0.8 13,-0.1 19.5,-1c0.4,2.7 0.8,5.3 1.2,8c0.5,4.2 -1.8,5 -5.3,4.5c-8.2,-1.1 -13.6,-3.4 -15.4,-11.5z" class="st58"/>
    <path id="svg_347" d="m931.5,290.6c-4.8,0.2 -9.6,0.5 -14.4,0.7c-0.2,-3.6 -0.4,-7.1 -0.7,-10.7c0.2,-0.2 0.4,-0.3 0.5,-0.5c4.3,-1.8 8.7,-1.8 13.2,-1.3c3.3,1.1 1.8,4.5 3.1,6.6c0.2,1 0.2,1.9 -0.5,2.7c-0.1,0.9 -0.2,1.9 -1.2,2.5z" class="st59"/>
    <path id="svg_348" d="m1373.7,280c-5.1,-0.1 -10.1,-0.3 -15.2,-0.4c-1.8,-3.3 -1.2,-6.7 -0.5,-10.1c0.3,-0.5 0.6,-0.9 1.2,-1.1c2.5,-0.1 5,0.4 7.5,-0.3c2.4,-0.7 4,0.3 4.5,2.8c0.4,3.2 2.5,5.9 2.5,9.1z" class="st60"/>
    <path id="svg_349" d="m894,288.6c-1.2,7.1 -2,14.3 -0.9,21.5c-4.2,-1.7 -6.1,-5.1 -6,-9.3c0.2,-5 1.5,-9.8 6.9,-12.2z" class="st61"/>
    <path id="svg_350" d="m911.9,269.8c1.2,0.1 2.3,0.1 3.5,0.2c2.1,3.4 2,7.1 1,10.8c0,0 0.1,-0.1 0.1,-0.1c-3.5,0.2 -7,0.5 -11.1,0.7c1.9,-4.4 3.3,-8.5 6.5,-11.6z" class="st62"/>
    <path id="svg_351" d="m1371.1,271c-1.3,-2.8 -3.8,-1.9 -6,-2c-2.2,-0.1 -4.3,0.1 -6.5,0.1c-1.9,-3.7 -2.2,-7.3 0.2,-10.9c0.2,0 0.5,0 0.7,0.1c0,2.2 -0.1,4.5 0.1,6.7c0.1,1.3 0.6,2.8 2.2,3c1.2,0.2 2.7,0.7 3.7,-0.8c0.7,-1.1 0.8,-3 2.6,-2.1c1.6,0.7 2.9,2.1 3,4.1c0,0.6 0,1.2 0,1.8z" class="st63"/>
    <path id="svg_352" d="m1122.1,143.1c-0.2,-3.3 -0.7,-6.6 0.5,-9.8c0.2,3.3 0.6,6.6 -0.5,9.8z" class="st50"/>
    <path id="svg_353" d="m1086.2,332.2c2.8,-9.1 5.6,-18.2 8.3,-27.2c0.4,-1.5 1.4,-2 2.9,-2.2c9.8,-1.2 9.8,-1.3 13.1,7.9c2.1,5.9 4,11.8 6.3,17.6c1.2,3.1 0.3,3.4 -2.5,3.4c-4.6,0.1 -8.6,0 -9.9,-5.6c-0.3,-1.5 -1.5,-2 -3.1,-1.9c-1.5,0.1 -2.3,0.5 -2.9,2c-2.8,6.6 -3.5,6.9 -12.2,6z" class="st60"/>
    <path id="svg_354" d="m1133.2,308.7c2.2,-7.3 5.8,-11.5 14,-8.6c-2.3,4.1 -4.6,8.3 -7.2,12.4c-1.5,2.4 -1.3,4.2 0.4,6.4c2.7,3.5 5.1,7.1 7.9,11c-6.4,1.1 -11.7,1.3 -14.6,-7.1c-1.7,7.6 -5.5,9.7 -11.7,8c1.6,-3.4 3,-6.8 4.8,-10c1.5,-2.7 1.4,-4.7 -0.6,-7.1c-3.1,-3.7 -5.8,-7.7 -9.5,-12.7c4.1,0 7.5,-0.9 10,0.3c2.3,1.1 3.9,4.3 6.5,7.4z" class="st64"/>
    <path id="svg_355" d="m1062.9,321.6c0,-0.3 0,-0.6 0,-0.9c0,-3.3 1.1,-7.3 -0.5,-9.6c-1.7,-2.6 -6,-0.7 -9.2,-1c-1.7,-0.1 -2.8,-0.3 -2.8,-2.4c0,-2 0.5,-2.9 2.8,-3c9.8,-0.2 19.6,-0.6 29.4,-0.8c1,0 2.7,-0.6 2.7,1.3c0,1.7 0.2,3.7 -1.9,4.5c-0.7,0.3 -1.5,0.2 -2.2,0.2c-8.2,0.5 -8.2,0.5 -8.2,8.9c0,2.4 -0.1,4.8 -0.1,7.1c0,6.9 -0.4,7.2 -7.5,7.1c-1.7,0 -2.4,-0.5 -2.4,-2.2c-0.1,-2.9 -0.1,-6.1 -0.1,-9.2z" class="st65"/>
    <path id="svg_356" d="m1184.9,278.9c0.1,4 0.3,8 0.3,12c0,21.4 0,42.8 0,64.2c0,2.4 0.1,4.6 -3.3,4.1c-0.1,-18.4 -0.2,-36.8 -0.2,-55.2c0,-7 -0.1,-14 0,-20.9c0,-2.5 -0.8,-3.5 -3.3,-3.4c-3.1,0.2 -6.2,0.1 -9.3,0.1c-0.1,-0.6 0,-1 0.5,-1.4c4.4,-1.4 8.8,-0.7 13.3,-0.6c0.8,0.1 1.5,0.4 2,1.1z" class="st66"/>
    <path id="svg_357" d="m1163.1,315.1c0,4.3 -0.1,8.6 0,12.9c0.1,3.1 -1.8,3 -3.7,2.6c-1.9,-0.4 -5.2,1.7 -5.2,-2.7c-0.1,-8.6 -0.2,-17.3 -0.4,-25.9c-0.1,-2.1 0.7,-3 2.8,-2.8c1.2,0.1 2.4,0.1 3.6,-0.1c2.7,-0.4 3.8,0.5 3.6,3.4c-0.2,4.2 -0.1,8.3 -0.1,12.5c-0.2,0.1 -0.4,0.1 -0.6,0.1z" class="st67"/>
    <path id="svg_358" d="m1039.6,284.1c1.9,0.2 3.3,0 3.1,3.2c-1,13.4 -1.4,26.9 -2.1,40.4c-0.5,9.9 -1.2,19.8 -1.7,29.7c-0.1,1.4 -0.1,2.8 -2.1,2.6c-1.7,-0.2 -1.5,-1.6 -1.4,-2.7c0.8,-12.1 1.6,-24.2 2.4,-36.3c0.4,-6.7 0.2,-13.3 1,-20c0.5,-5.7 -0.2,-11.3 0.8,-16.9l0,0z" class="st68"/>
    <path id="svg_359" d="m1073.7,260.5c5.3,-0.6 10.6,-0.6 15.9,-0.4c2.4,2.9 1.4,6.2 1.2,9.4c-0.1,0.5 -0.4,1 -0.7,1.4c-1.6,1.2 -3.2,1.2 -5,0.6c-1.4,-0.9 -0.8,-1.7 0.2,-2.2c1.1,-0.6 1.8,-1.4 1.5,-2.8c-0.5,-2.1 -4.7,-4.2 -7.4,-3.5c-3,0.7 -4.2,2.5 -3.4,5.5c0.3,1 0.8,1.9 0.5,3c-1.6,3.4 0.4,7.5 -2,10.8c-4.6,0.2 -9.1,0.4 -13.7,0.7c-1.6,0.1 -1.5,-1.1 -2,-1.8c-2.7,-2.5 -1.6,-5.6 -1.2,-8.5c0.2,-0.5 0.5,-0.9 0.9,-1.3c2.6,-1.4 5.5,-0.7 8.3,-0.9c4.7,-0.3 5.3,-0.8 5.6,-5.4c0.1,-1.7 -0.1,-3.4 1.3,-4.6z" class="st69"/>
    <path id="svg_360" d="m1169.4,279c-0.2,0.2 -0.3,0.4 -0.3,0.7c-5.2,0 -10.4,-0.1 -15.6,-0.1c-1.7,-1.2 -1.6,-3.1 -1.5,-4.8c0.1,-3.2 -1.1,-4.6 -4.4,-4.5c-1.7,0.1 -3.6,0.1 -5.1,-1.1c0,-2.5 2.1,-2.1 3.5,-2.2c2.3,-0.2 4.7,-0.3 7,-0.4c3.4,0.3 6.7,0.3 10.1,0.3c2.8,0 4,-1.1 4,-3.9c0,-1.9 -0.3,-3.9 1.5,-5.3c0.2,0 0.5,0.1 0.7,0.1c1.7,3.3 1.3,7.2 2.8,10.6c-1.3,1.8 -1.7,3.9 -1.6,6.2c0,1.5 -0.1,3.1 -1.1,4.4z" class="st70"/>
    <path id="svg_361" d="m1121.1,258.7c1.1,0 2.3,-0.1 3.4,-0.1c-1.8,3.3 -1.4,7 -1.4,10.5c0,0.5 0,1 0,1.5c-0.3,3.3 1,6.8 -1.3,9.8c-5.3,0.1 -10.6,0.1 -15.9,0.2c-2.3,-3.4 -1.8,-6.9 -0.5,-10.4c2.3,-2.2 5.3,-1.4 8,-1.5c5.6,-0.2 5.9,-0.4 6.4,-5.9c0.1,-1.5 0,-3 1.3,-4.1z" class="st71"/>
    <path id="svg_362" d="m1105.8,269.9c0,3.6 0.1,7.2 0.1,10.7c-5.1,1.1 -10.3,1 -15.5,0.7c-1.4,-3.5 -2.5,-7 -0.7,-10.8c0,-0.2 0,-0.4 -0.1,-0.6c5.1,-2 10.3,-1.7 15.5,-0.7c0.4,0.3 0.5,0.5 0.7,0.7z" class="st72"/>
    <path id="svg_363" d="m1089.8,270.6c0.2,3.6 0.5,7.2 0.7,10.8c-5.3,0.3 -10.6,0.6 -15.9,0.9c-0.1,-2.8 -0.2,-5.6 -0.4,-8.4c-0.1,-1.7 0.2,-2.9 2.1,-3.1c2.7,-1.9 5.3,-1.8 8.1,-0.1c1.8,-0.1 3.6,-0.1 5.4,-0.1z" class="st73"/>
    <path id="svg_364" d="m995.9,285.9c-5.2,0.7 -10.5,1 -15.8,1c0,0 -0.2,-0.2 -0.2,-0.2c-0.9,-0.9 -1.1,-2.1 -1.2,-3.3c0.2,-2.3 -0.5,-4.7 -0.2,-7c0.2,-0.4 0.6,-0.8 1.1,-1c4.9,-0.9 9.8,-2.2 14.9,-0.9c0.5,0.2 0.9,0.6 1.2,1c1.2,3.5 2.6,6.9 0.2,10.4z" class="st60"/>
    <path id="svg_365" d="m1058.6,271.7c0.1,3.1 0.2,6.3 0.3,9.4c-0.1,2.1 -1.7,2 -3.2,2.1c-3.1,0.1 -6.2,-0.1 -9.2,0.3c-2.9,0.4 -3.6,-1.1 -3.7,-3.3c-2.3,-2 -1.6,-4.5 -1.1,-6.9c0.2,-0.5 0.6,-0.9 1.1,-1.2c5.2,-0.5 10.4,-3 15.8,-0.4z" class="st74"/>
    <path id="svg_366" d="m995.9,285.9c-0.3,-3.6 -0.6,-7.1 -0.9,-10.7c4.9,-2.8 10.2,-2.5 15.5,-1.6c0.5,0.2 0.9,0.6 1.2,1.1c0.9,3.5 1.4,6.9 -0.4,10.3c-5,1 -10.2,1.1 -15.4,0.9z" class="st75"/>
    <path id="svg_367" d="m1042.5,272.6c0.1,2.5 0.2,5 0.3,7.6c0.4,2.5 -1.3,3.2 -3.1,3.9c0,0 0,0 0,0c-4.1,0 -8.2,0 -12.2,0c-1.1,-1.1 -1.4,-2.4 -1.4,-3.9c0.1,-7.7 1.2,-8.9 8.9,-9c2.5,0 5.2,-0.6 7.5,1.4z" class="st76"/>
    <path id="svg_368" d="m1027,280.6c0.1,1.2 0.2,2.3 0.3,3.5c-5.3,0.6 -10.6,1.3 -16,0.9c-0.1,-3.5 -0.2,-7.1 -0.3,-10.6c4.8,-2.7 9.8,-2.8 15,-1.4c1.7,2.4 0.1,5.2 1,7.6z" class="st77"/>
    <path id="svg_369" d="m1142.5,268.9c0.1,0 0.3,0 0.4,0.1c3.3,0.5 7.9,-1.7 9.7,0.7c1.7,2.2 0.7,6.5 0.8,10c-3.7,0.1 -7.4,-0.1 -11,0.4c-3.7,0.5 -5.1,-0.9 -5.1,-4.4c-2,-2 -1.7,-4.2 -0.5,-6.5c1.8,-1.6 3.7,-1.7 5.7,-0.3z" class="st78"/>
    <path id="svg_370" d="m1137.1,269c0.1,2.2 0.2,4.4 0.3,6.6c0.4,3.6 -1.3,5 -4.8,4.8c-3.5,-0.2 -7.1,0 -10.6,0c0,-3.5 0.1,-7 0.1,-10.5c3.1,-2.4 6.8,-0.5 10.1,-1.6c1.5,-0.3 2.9,-0.5 4.4,0.2c0.1,0.1 0.3,0.3 0.5,0.5z" class="st72"/>
    <path id="svg_371" d="m1114.7,159.1c5.8,-1.6 11.8,-1 17.7,-1.4c12.9,-0.9 25.9,-0.8 38.8,-1.4c3.1,-0.1 4.4,0.5 4.3,4.1c-0.2,27.5 -0.1,55.1 0,82.6c0,2.4 -0.2,3.7 -3.2,3.8c-32.7,0.5 -65.4,1.2 -98.2,1.8c-0.4,0 -0.9,-0.1 -1.3,-0.1c-1.4,-2.1 -0.2,-4 0.7,-5.8c11.2,-23.1 22,-46.4 33.3,-69.4c1.6,-3.2 2.9,-6.5 4.4,-9.7c0.7,-2 1.8,-3.5 3.5,-4.5z" class="st79"/>
    <path id="svg_372" d="m1241.7,166.1c10.1,4.2 17.2,12 23.9,20.1c10.4,12.7 19.8,26 24.3,42.1c2.3,8.2 -0.3,12.5 -8.5,15c-4.5,1.4 -9,1.7 -13.6,1.7c-19.2,0.2 -38.3,0.4 -57.5,0.5c-1.6,-2.3 -0.1,-4.3 0.6,-6.3c2.8,-8 6.3,-15.7 9.5,-23.5c5.9,-14.9 12.4,-29.5 18.2,-44.5c0.7,-1.8 1.2,-3.9 3.1,-5.1z" class="st80"/>
    <path id="svg_373" d="m1241.7,166.1c-4.2,11 -8.7,22 -13.2,32.9c-6.2,14.7 -11.9,29.6 -17.8,44.5c-0.3,0.7 -0.2,1.5 -0.3,2.2c-5.1,0.1 -10.1,0.1 -15.2,0.5c-2.7,0.2 -3.7,-0.5 -3.6,-3.3c0.2,-7.4 0.1,-14.9 0.1,-22.3c0,-19.9 0.1,-39.9 -0.1,-59.8c0,-3.5 0.9,-4.6 4.5,-4.4c13.8,0.7 27.5,2.4 40.5,7.3c1.8,0.5 3.7,1.1 5.1,2.4z" class="st79"/>
    <path id="svg_374" d="m1114.7,159.1c-5.7,11.7 -11.3,23.4 -17,35.1c-6.6,13.7 -13.3,27.4 -19.6,41.2c-2,4.3 -4.9,8.2 -5.4,13c-5.8,0.2 -11.6,0.4 -17.4,0.7c-2.5,0.1 -3.6,-0.6 -3.1,-3.3c4.6,-24.3 8.4,-48.8 16.8,-72.3c2.2,-6.2 5.9,-10 12.9,-11c11,-1.6 21.9,-2.8 32.8,-3.4z" class="st80"/>
    <path id="svg_375" d="m1279.8,278c-5.3,1.2 -10.6,0.6 -15.9,0.4c-2,-3.5 -1.4,-7.2 -0.5,-10.9c0.3,-0.5 0.7,-0.8 1.2,-1.1c5,-0.7 9.9,-1.4 14.8,0.6c0.1,0.3 0.3,0.5 0.4,0.8c2.4,3.4 2.4,6.8 0,10.2z" class="st81"/>
    <path id="svg_376" d="m1184.9,278.9c-0.4,0 -0.9,-0.1 -1.3,-0.1c-0.8,-3.8 -0.4,-7.6 -0.4,-11.5c0.2,-3.3 -0.9,-6.8 1.2,-9.9l0.3,-0.2c1.6,-0.6 3.4,0.3 5.1,-0.5c3.6,0 7.2,0.1 10.8,0.1c2.1,3.1 1.3,6.5 0.8,9.8c-0.2,0.5 -0.5,0.9 -1,1.2c-3.3,1.4 -6.9,0 -10.3,1.2c-2.5,0.3 -3.5,1.8 -3.5,4.2c0,1.9 0.4,3.9 -1.3,5.4l-0.4,0.3z" class="st82"/>
    <path id="svg_377" d="m1027,280.6c-1.4,-2.2 -0.4,-4.6 -0.7,-7c-2.1,-3.6 -2.1,-7.3 -0.1,-10.9c4.7,-1.3 9.7,-0.4 14.4,-1.2c1.8,0.5 2.1,2.1 2.6,3.5c0.4,2.6 1,5.2 -0.9,7.6c0,0 0.1,-0.1 0.1,-0.1c-3.6,0.1 -7.1,0.3 -10.7,0.3c-3.5,0 -5.7,1 -4.7,5.1c0.3,0.9 0.1,1.8 0,2.7z" class="st83"/>
    <path id="svg_378" d="m932.4,285.1c-2.3,-1.2 0.4,-4.1 -1.7,-5.4c-0.6,-3.7 -0.8,-7.3 0.5,-10.8c5.2,-1 10.4,-1.3 15.7,-1.3c1.8,3.4 2.8,6.8 1,10.5c-2,1.7 -4.5,2.2 -7,2c-4.1,-0.4 -7.2,0.7 -8.5,5z" class="st84"/>
    <path id="svg_379" d="m1279.8,278c0,-3.4 0,-6.8 0.1,-10.2c0,0 0,-0.2 0,-0.2c4.6,-3.2 9.6,-1.5 14.5,-1.2c0.5,0.2 1,0.5 1.3,1c1.2,3.7 1.6,7.4 -0.4,11.1c-5.2,0 -10.4,0.7 -15.5,-0.5z" class="st85"/>
    <path id="svg_380" d="m1026.3,262.7c0,3.6 0.1,7.3 0.1,10.9c-5.1,-0.5 -10.2,0.4 -15.3,0.7c0,0 0.1,0.1 0.1,0.1c-2.7,-3.4 -3.1,-6.9 -0.9,-10.7c5.3,-1.4 10.6,-0.7 16,-1z" class="st86"/>
    <path id="svg_381" d="m931.2,268.9c-0.1,3.6 1.8,7.3 -0.5,10.8c-4.8,-0.2 -9.5,0.4 -14.3,1c-1,-3.5 -0.7,-7.2 -1,-10.8c5.3,-1 10.5,-1.1 15.8,-1z" class="st87"/>
    <path id="svg_382" d="m1121.1,258.7c0,0.7 0.1,1.5 0.1,2.2c0.2,8.7 0.2,8.7 -8.7,8.9c-2.2,0.1 -4.4,0.1 -6.6,0.1c0,0 0.1,0.1 0.1,0.1c-1.6,-3.5 -2.9,-7 -0.7,-10.7c5.2,-0.4 10.5,-1.2 15.8,-0.6z" class="st88"/>
    <path id="svg_383" d="m947.8,278c-0.3,-3.5 -0.6,-7 -0.9,-10.5c5.3,-0.4 10.6,-1.4 16,-1.1c1.9,3.2 1.5,6.7 1.5,10.2c-0.2,0.5 -0.5,0.9 -1,1.1c-5,1 -10,2.4 -15.1,0.8c-0.1,-0.1 -0.3,-0.3 -0.5,-0.5z" class="st76"/>
    <path id="svg_384" d="m1247.9,256.7c5.3,0 10.6,0 15.9,0c2.2,3.5 2.1,7.1 0.1,10.6l0.1,-0.1c-5.3,2.4 -10.7,2 -16.1,0.3c-2,-3.6 -2.2,-7.2 0,-10.8z" class="st67"/>
    <path id="svg_385" d="m1295.4,256.7c5.3,-0.2 10.7,-0.2 16,0.3c2,3.6 1.9,7.1 0,10.7c-5.4,1.5 -10.8,2 -16.1,-0.4l0.1,0.1c-2.2,-3.7 -2.4,-7.2 0,-10.7z" class="st89"/>
    <path id="svg_386" d="m1010.3,263.7c0.1,3.6 0,7.2 0.9,10.7c-5.4,-0.3 -10.8,0.2 -16.2,0.8c0,0 0.1,0.1 0.1,0.1c-1.6,-3.5 -3.2,-7 -0.7,-10.7c5.3,-1.1 10.6,-1.1 15.9,-0.9z" class="st90"/>
    <path id="svg_387" d="m1200.5,267.2c0,-3.5 0,-7 0,-10.4c5.3,-0.1 10.5,-0.8 15.8,0.4c2.7,2.9 1.6,6.2 1,9.5c-0.3,0.5 -0.7,0.9 -1.2,1.2c-5.2,0.8 -10.5,1.8 -15.6,-0.7z" class="st91"/>
    <path id="svg_388" d="m963.8,277.1c-1.2,-3.5 -0.7,-7.1 -0.9,-10.7c5.3,-0.8 10.5,-1.1 15.9,-0.9c2.5,3.5 2.2,7.1 0.2,10.7l0.1,-0.1c-3.2,2.5 -7.3,0.4 -10.7,1.8c-1.7,0.3 -3.3,0.5 -4.6,-0.8z" class="st77"/>
    <path id="svg_389" d="m978.9,276.2c-0.1,-3.6 -0.1,-7.2 -0.2,-10.7c5.2,-1 10.4,-1.2 15.7,-0.9c0.2,3.6 0.5,7.1 0.7,10.7c-5.4,0.3 -10.8,0.6 -16.2,0.9z" class="st75"/>
    <path id="svg_390" d="m1042.4,272.7c-0.2,-3 -0.3,-6.1 -0.5,-9.1c0.6,-0.5 -0.4,-1.6 0.8,-1.9c5,-0.2 10,-0.4 14.9,-0.5c1.7,3.4 2.8,6.9 0.9,10.6c0,0 0.1,-0.1 0.1,-0.1c-5.4,0.3 -10.8,0.6 -16.2,1z" class="st72"/>
    <path id="svg_391" d="m1105.2,259.3c0.2,3.6 0.5,7.2 0.7,10.7c-4.7,0.1 -9.5,-0.3 -14.2,0.7c-0.6,0.1 -1.3,-0.5 -2,-0.7c-0.1,-3.3 -0.1,-6.6 -0.2,-10c5.2,-1.2 10.5,-0.7 15.7,-0.7z" class="st92"/>
    <path id="svg_392" d="m1058.5,271.8c-0.3,-3.5 -1.2,-7 -0.9,-10.6c5.4,-0.2 10.7,-0.4 16.1,-0.6c0,1.3 0,2.6 0,4c0.1,6.8 0.1,6.8 -6.5,7.1c-2.9,0 -5.8,0 -8.7,0.1z" class="st92"/>
    <path id="svg_393" d="m1311.4,267.7c0,-3.6 0,-7.2 0,-10.7c5.1,-0.3 10.1,0.1 15.1,0.6c1.9,3.4 1.8,6.8 0.1,10.3l0,0.4c-4.7,2.1 -9.5,1.3 -14.3,0.7c-0.5,-0.3 -0.8,-0.7 -0.9,-1.3z" class="st93"/>
    <path id="svg_394" d="m1358.8,258.2c-0.1,3.6 -0.1,7.3 -0.2,10.9c0,0 0.1,-0.1 0.1,-0.1c-5.5,1.1 -11,1.3 -16.4,-1c-0.8,-1.4 -0.9,-2.8 0.5,-3.9c0.8,-6.6 0.8,-6.7 7.6,-6.5c2.8,0.1 5.7,-0.5 8.4,0.6z" class="st90"/>
    <path id="svg_395" d="m1142.5,268.9c-1.8,0 -3.6,0.1 -5.4,0.1c0,0 0.1,0.1 0.1,0.1c-2.1,-3.5 -2.1,-7.1 -0.1,-10.7c5.3,0.1 10.5,-1.4 15.8,-0.2c2.4,3 2.3,6 0.1,9c-3.3,2.2 -7.2,-0.3 -10.5,1.7z" class="st94"/>
    <path id="svg_396" d="m1295.4,256.7c0,3.5 -0.1,7.1 -0.1,10.6c-5.1,0.1 -10.3,0.2 -15.4,0.3c-0.1,-11.2 -0.1,-11.2 11.1,-11.1c1.4,0 2.9,0.1 4.4,0.2z" class="st60"/>
    <path id="svg_397" d="m1263.9,267.3c0,-3.5 0,-7.1 -0.1,-10.6c4,0 8,0 12,-0.2c2.6,-0.1 3.8,0.7 3.6,3.5c-0.2,2.3 0,4.7 0,7.1c-5.2,0 -10.3,0.1 -15.5,0.2z" class="st86"/>
    <path id="svg_398" d="m1247.9,256.7c0,3.5 -0.1,7.1 -0.1,10.6c-0.2,0.2 -0.4,0.4 -0.6,0.6c-5,1 -9.9,1.6 -14.8,-0.4c-1.4,-3.6 -1.7,-7.1 0.3,-10.6c5.1,-0.6 10.2,-0.4 15.2,-0.2z" class="st72"/>
    <path id="svg_399" d="m1216.6,267.3c-0.1,-3.4 -0.2,-6.7 -0.3,-10.1c5.2,-1.2 10.5,-0.5 15.7,-0.4c1.2,12 1.1,12.1 -10.9,11.7c-1.6,-0.1 -3.3,0.1 -4.5,-1.2z" class="st71"/>
    <path id="svg_400" d="m1342.8,264.1c-0.1,1.4 -0.2,2.7 -0.3,4.1c-0.2,0.2 -0.4,0.4 -0.6,0.6c-4.9,0.9 -9.8,1.7 -14.6,-0.6l0.1,0c-0.8,-3.5 -0.7,-7.1 -0.1,-10.7c3.6,0 7.1,0.1 10.7,-0.2c3.5,-0.3 5.4,0.6 4.7,4.5c-0.2,0.8 0.1,1.6 0.1,2.3z" class="st95"/>
    <path id="svg_401" d="m1153,267.2c0,-3 -0.1,-6 -0.1,-9c5.2,-1.2 10.4,-0.7 15.7,-0.6c-0.4,3.4 1.7,8 -0.7,10c-2,1.7 -6.5,0.8 -9.8,0.7c-1.7,0 -3.9,1.4 -5.1,-1.1z" class="st90"/>
    <path id="svg_402" d="m1137.1,258.4c0,3.6 0.1,7.1 0.1,10.7c-1.5,0.1 -3,0.1 -4.5,0.2c-3.6,0.1 -7.2,0.9 -10.7,-0.4c0,-2.1 0.2,-4.2 0,-6.2c-0.2,-2.2 0.7,-3.3 2.6,-3.9c4.1,-0.3 8.3,-0.3 12.5,-0.4z" class="st96"/>
    <path id="svg_403" d="m1184.4,257.4c0,3.6 0.1,7.3 0.1,10.9c-4.2,1.8 -8.4,2.2 -12.5,-0.3c-3.9,-2.7 -2.4,-6.7 -2.7,-10.3c5,-0.6 10.1,-0.4 15.1,-0.3z" class="st95"/>
    <path id="svg_404" d="m1042.7,261.7c-0.3,0.6 -0.5,1.3 -0.8,1.9c-0.3,-0.7 -0.2,-1.7 -1.2,-2c-0.3,-3 0.2,-5.9 0.7,-8.8c0.2,-1.2 0.3,-2.6 2,-2.2c1.2,0.3 1.7,1.2 1.2,2.4c-1.2,2.8 1.1,6.3 -1.9,8.7z" class="st97"/>
    <path id="svg_405" d="m1216.6,267.3c1.6,0 3.2,0.2 4.8,0.1c3.5,-0.3 8.1,1.6 10.1,-0.8c1.7,-2 0.4,-6.4 0.5,-9.8c0.3,0 0.5,0 0.8,0.1c0,3.4 0,6.8 -0.1,10.2c0.6,1.3 -0.2,1.9 -1.3,2.4c-4.9,-0.3 -9.8,0.7 -14.6,-0.9c-0.5,-0.4 -0.5,-0.8 -0.2,-1.3l0,0z" class="st91"/>
    <path id="svg_406" d="m1189.7,256.7c-1.6,0.8 -3.4,0.4 -5.1,0.5c-1.3,-0.8 -3.3,-0.8 -3,-3.2c0.2,-1.1 -0.2,-2.6 1.5,-2.7c1.6,-0.2 2.1,0.9 2,2.2c-0.2,3.8 2.7,2.7 4.6,3.2z" class="st98"/>
    <path id="svg_407" d="m1327.3,257.5c0,3.6 0,7.1 0.1,10.7c-0.3,-0.1 -0.5,-0.3 -0.8,-0.4c0,-3.4 -0.1,-6.8 -0.1,-10.3c0.3,-0.1 0.5,-0.1 0.8,0z" class="st99"/>
    <path id="svg_408" d="m1311.4,267.7l-0.1,0c2,3.7 2.3,7.4 0,11.1c-5.3,-0.1 -10.7,-0.2 -16,-0.3c0,-3.8 -0.1,-7.5 -0.1,-11.2c5.4,0.1 10.8,0.2 16.2,0.4z" class="st100"/>
    <path id="svg_409" d="m1216.7,267.2c0,0.3 0.1,0.6 0.1,1c1.7,3.5 1.9,7 -0.2,10.4c-5.3,0 -10.6,0 -15.9,0.1c-2.4,-3.2 -1.4,-6.7 -1,-10.1c0.3,-0.5 0.6,-0.9 0.9,-1.3c0,0 -0.1,0 -0.1,0c5.4,0.4 10.8,0.4 16.2,-0.1z" class="st101"/>
    <path id="svg_410" d="m1247.9,267.3c5.4,0 10.8,-0.1 16.1,-0.1c0,3.7 -0.1,7.5 -0.1,11.2c-5.3,0.3 -10.6,0.8 -15.9,-0.3c-2.5,-3.6 -2.1,-7.3 -0.1,-10.9l0,0.1z" class="st102"/>
    <path id="svg_411" d="m1342.5,268.2c5.4,0.3 10.8,0.5 16.1,0.8c-0.1,3.5 -0.2,7.1 -0.2,10.6c-5.3,0 -10.5,0.7 -15.7,-0.6c-2.5,-3.6 -2.1,-7.2 -0.2,-10.8c0.1,-0.1 0,0 0,0z" class="st63"/>
    <path id="svg_412" d="m1247.9,267.2c0,3.6 0.1,7.3 0.1,10.9c-4.5,1.1 -9,0.3 -13.6,0.6c-1.6,0.1 -2,-0.8 -2.1,-2.2c-0.1,-1.5 -0.2,-2.9 -0.3,-4.4c-1.2,-1 -1,-2 -0.2,-3.1c0.3,-0.7 0.5,-1.3 0.8,-2c5.1,0.7 10.2,0.4 15.3,0.2z" class="st103"/>
    <path id="svg_413" d="m1342.6,268.1c0.7,3.6 -0.1,7.3 0.1,11c-4.7,1.2 -9.3,-0.1 -14,0c-1.7,0 -1.7,-1.3 -1.7,-2.5c0.1,-2.8 0.2,-5.6 0.3,-8.4c5.1,-0.1 10.2,-0.1 15.3,-0.1z" class="st99"/>
    <path id="svg_414" d="m1200.3,268.2c0.1,3.5 0.2,7 0.3,10.5c-5.1,0.3 -10.3,0.4 -15.4,0c-0.1,-2.2 0.1,-4.5 -0.2,-6.7c-0.6,-4 1.3,-4.6 4.5,-3.9c3.7,-0.6 7.3,-0.7 10.8,0.1z" class="st104"/>
    <path id="svg_415" d="m1311.3,278.7c0,-3.7 0,-7.4 0,-11.1c5.1,0.2 10.2,0.4 15.4,0.6c0.4,10.7 0.4,10.7 -10,10.6c-1.9,0.1 -3.7,0 -5.4,-0.1z" class="st105"/>
    <path id="svg_416" d="m1231.8,269c0.1,1 0.1,2.1 0.2,3.1c-0.4,6.6 -0.4,6.6 -7.1,6.6c-2.8,0 -5.6,-0.1 -8.4,-0.2c0.1,-3.5 0.1,-7 0.2,-10.4c5.1,0.5 10.2,-0.9 15.1,0.9z" class="st106"/>
    <path id="svg_417" d="m1318.5,371.9c-0.1,12.7 -10.3,22.9 -23,22.9c-12.7,0 -22.9,-10.3 -22.9,-23c0,-13 10.3,-23.2 23.2,-23.1c12.7,0.1 22.8,10.4 22.7,23.2z" class="st107"/>
    <path id="svg_418" d="m915.7,362.1c-8.9,-0.3 -8.9,-0.3 -8.1,-9.2c1.9,-23.1 19.2,-44.1 40.2,-49.2c18.6,-4.6 37.7,4.6 48.5,19.7c6.6,9.3 10.3,19.6 11.6,30.9c0.8,7 1.1,6.9 -5.8,7c-0.9,0 -1.8,0 -2.7,0c-4.1,-10.3 -9.9,-19.2 -19.7,-25c-24,-14.1 -53.3,-3 -63.2,23.8c-0.2,0.7 -0.5,1.3 -0.8,2z" class="st52"/>
    <path id="svg_419" d="m957.9,350.4c12.6,0.1 22.8,10.5 22.8,23.1c0,12.5 -10.4,22.8 -23.1,22.9c-12.6,0 -23.1,-10.4 -23.1,-22.9c0.2,-12.9 10.5,-23.2 23.4,-23.1z" class="st107"/>
    <path id="svg_420" d="m963.8,277.1c1.4,0 2.9,-0.1 4.3,-0.1c1.4,-0.7 2.9,-0.4 4.3,-0.3c5.6,0.2 6.7,1.2 7.3,6.6c0.1,1.1 0.1,2.3 0.2,3.4c-5.7,-0.3 -10.8,-2.5 -15.9,-4.9c-1.7,-1.5 -1.4,-3.1 -0.2,-4.8l0,0.1z" class="st108"/>
    <path id="svg_421" d="m932.4,285.1c0.2,-6.1 0.2,-6 6.2,-6.3c3.1,-0.1 6.1,-0.6 9.1,-0.8c0,0 -0.1,-0.1 -0.1,-0.1c1.3,1.7 1.6,3.4 0.3,5.3c-4.1,1.6 -8.2,3.2 -12.2,4.9c-1.1,0.5 -1.9,0.4 -2.9,0c-0.1,-1 -0.3,-2 -0.4,-3z" class="st108"/>
    <path id="svg_422" d="m948,283.2c-0.1,-1.8 -0.2,-3.5 -0.3,-5.3c5.4,0.5 10.8,-0.8 16.2,-0.9c0.1,1.6 0.1,3.2 0.2,4.8c-5.3,1.6 -10.8,0.4 -16.1,1.4z" class="st109"/>
    <path id="svg_423" d="m1100.8,313.5c1.2,1.4 2.5,2.7 1.6,4.5c-0.1,0.3 -1.6,0.4 -2,0.1c-2.2,-1.6 0.7,-3 0.4,-4.6z" class="st110"/>
    <path id="svg_424" d="m1171.9,268c4.2,0.1 8.4,0.2 12.5,0.3c-1,3.4 1,7.1 -0.9,10.5c-4.7,0.1 -9.5,0.2 -14.2,0.3c-0.1,-2.6 0,-5.3 -0.3,-7.9c-0.2,-2.5 0.8,-3.2 2.9,-3.2z" class="st60"/>
    <path id="svg_425" d="m1084.4,270.7c-2.7,0 -5.4,0.1 -8.1,0.1c-2.4,-2.1 -2.8,-5 -0.9,-7c1.8,-1.9 4.5,-3.9 7.7,-1.5c1.4,1 3.6,0.5 4.6,2.2c1.6,2.8 0.4,5 -3.3,6.2z" class="st86"/>
    <path id="svg_426" d="m1121.9,268.8c3.5,1 7.2,-0.2 10.7,0.4c-3.4,1.5 -7.1,0.4 -10.6,0.7c0,-0.3 -0.1,-0.7 -0.1,-1.1z" class="st88"/>
    <path id="svg_427" d="m979.7,283.3c-1.6,-5.3 -3.1,-6.1 -11.6,-6.3c3.6,-1.2 7.3,-0.6 10.9,-0.9c0.8,2.4 0.8,4.8 0.7,7.2z" class="st75"/>
    <path id="svg_428" d="m1200.3,268.2c-3.6,0 -7.2,-0.1 -10.8,-0.1c3.7,-0.3 7.3,-0.6 11,-0.9c0,0.3 -0.1,0.6 -0.2,1z" class="st91"/>
   </g>
  </g>
 </g>
</svg>