<svg width="800" height="450" xmlns="http://www.w3.org/2000/svg">
 <g>
  <title>background</title>
  <rect id="XMLID_1_" x="0" y="0.338" fill="#2C3E50" width="800" height="450"/>
 </g>

 <g>
  <title>background</title>
  <rect id="canvas_background" x="-1" y="-1" fill="none" width="802" height="452"/>
 </g>
 <g>
  <title>Layer 1</title>
  <rect id="svg_37" x="238.655" y="4.33" fill="#ECF0F1" width="552.941" height="438.655"/>
  <text id="XMLID_19_" transform="matrix(1,0,0,1,326.6121,637.6465) " fill="#2B2B2B" font-family="'ArialMT'" font-size="15.5094">DETAILS HERE</text>
  <text id="XMLID_18_" transform="matrix(1,0,0,1,304.3518,648.5098) " fill="#2B2B2B" font-family="'Raleway-Regular'" font-size="8.7284">Dolor sit amet, consectetur</text>
  <text id="XMLID_17_" transform="matrix(1,0,0,1,311.3772,659.334) " fill="#2B2B2B" font-family="'Raleway-Regular'" font-size="8.7284">labore et dolore magna</text>
  <text id="XMLID_22_" transform="matrix(1,0,0,1,148.8674,637.6465) " fill="#2B2B2B" font-family="'ArialMT'" font-size="15.5094">DETAILS HERE</text>
  <text id="XMLID_21_" transform="matrix(1,0,0,1,126.6082,648.5098) " fill="#2B2B2B" font-family="'Raleway-Regular'" font-size="8.7284">Dolor sit amet, consectetur</text>
  <text id="XMLID_20_" transform="matrix(1,0,0,1,133.6335,659.334) " fill="#2B2B2B" font-family="'Raleway-Regular'" font-size="8.7284">labore et dolore magna</text>
  <path id="svg_1" fill="#FFD503" d="m366.439,220.549c2.374,0 4.653,0.38 6.742,1.045c4.369,1.425 8.168,4.18 10.827,7.883c2.658,3.608 4.272,8.168 4.272,13.012s-1.52,9.308 -4.179,12.916c-2.659,3.703 -6.553,6.553 -10.922,7.978c-2.089,0.665 -4.368,1.045 -6.742,1.045c-2.375,0 -4.654,-0.38 -6.743,-1.045c-4.369,-1.425 -8.168,-4.179 -10.827,-7.883c-2.658,-3.608 -4.272,-8.167 -4.272,-13.011s1.52,-9.309 4.179,-12.916c2.659,-3.704 6.553,-6.553 10.922,-7.979c2.087,-0.665 4.368,-1.045 6.743,-1.045z"/>
  <path id="svg_2" fill="#FFD400" d="m366.439,276.107c-3.515,0 -7.028,-0.57 -10.353,-1.615c-6.647,-2.184 -12.44,-6.363 -16.619,-12.061c-4.274,-5.795 -6.555,-12.728 -6.555,-19.945c0,-7.122 2.186,-13.961 6.458,-19.753c4.18,-5.698 10.162,-10.067 16.812,-12.251c6.646,-2.185 14.056,-2.185 20.798,0c6.648,2.184 12.441,6.363 16.62,12.061c4.273,5.793 6.553,12.727 6.553,19.943c0,7.123 -2.184,13.962 -6.458,19.755c-4.179,5.698 -10.161,10.067 -16.81,12.251c-3.419,1.045 -6.934,1.615 -10.446,1.615zm0,-66.384c-3.419,0 -6.838,0.569 -10.162,1.614c-6.553,2.089 -12.347,6.363 -16.43,11.871c-4.084,5.604 -6.27,12.251 -6.27,19.278c0,7.029 2.186,13.771 6.363,19.47c4.084,5.509 9.688,9.593 16.24,11.776c6.553,2.09 13.771,2.09 20.229,0c6.554,-2.09 12.347,-6.363 16.431,-11.871c4.084,-5.604 6.269,-12.252 6.269,-19.279s-2.185,-13.771 -6.363,-19.469c-4.084,-5.508 -9.688,-9.592 -16.239,-11.776c-3.23,-1.045 -6.649,-1.614 -10.068,-1.614z"/>
  <path id="svg_3" fill="#06B9FF" d="m502.245,244.197c0,-2.375 0.381,-4.654 1.046,-6.743c1.425,-4.369 4.179,-8.168 7.883,-10.827c3.607,-2.659 8.167,-4.273 13.011,-4.273s9.307,1.52 12.916,4.179c3.704,2.658 6.553,6.553 7.978,10.922c0.665,2.089 1.045,4.368 1.045,6.743c0,2.374 -0.38,4.653 -1.045,6.741c-1.425,4.369 -4.179,8.168 -7.883,10.828c-3.607,2.658 -8.167,4.272 -13.011,4.272s-9.308,-1.521 -12.916,-4.179c-3.704,-2.659 -6.553,-6.553 -7.978,-10.922c-0.665,-2.086 -1.046,-4.368 -1.046,-6.741z"/>
  <path id="svg_4" fill="#06B9FF" d="m524.185,277.816c-7.123,0 -13.961,-2.186 -19.754,-6.459c-5.698,-4.178 -10.067,-10.161 -12.251,-16.81c-1.045,-3.323 -1.615,-6.838 -1.615,-10.353c0,-3.514 0.57,-7.027 1.615,-10.353c2.184,-6.647 6.361,-12.441 12.061,-16.62c5.794,-4.274 12.728,-6.553 19.944,-6.553c7.123,0 13.961,2.185 19.754,6.458c5.698,4.179 10.066,10.162 12.251,16.81c1.045,3.324 1.614,6.838 1.614,10.354c0,3.514 -0.569,7.027 -1.614,10.352c-2.185,6.647 -6.363,12.441 -12.062,16.621c-5.888,4.274 -12.725,6.553 -19.943,6.553zm0,-66.384c-7.028,0 -13.771,2.185 -19.469,6.363c-5.51,4.084 -9.594,9.688 -11.776,16.24c-1.045,3.229 -1.615,6.646 -1.615,10.162c0,3.514 0.57,6.838 1.615,10.16c2.089,6.555 6.362,12.348 11.871,16.432c5.604,4.083 12.251,6.268 19.279,6.268c7.026,0 13.771,-2.185 19.469,-6.363c5.508,-4.084 9.592,-9.687 11.776,-16.239c1.045,-3.229 1.613,-6.647 1.613,-10.161c0,-3.419 -0.568,-6.838 -1.613,-10.162c-2.091,-6.553 -6.363,-12.346 -11.871,-16.43c-5.698,-4.086 -12.348,-6.27 -19.279,-6.27z"/>
  <path id="svg_5" fill="#06B9FF" d="m483.443,244.957c-0.189,0 -0.38,-0.096 -0.57,-0.189c-0.188,-0.19 -0.284,-0.381 -0.284,-0.569c0,-0.19 0.096,-0.382 0.284,-0.57c0.096,-0.095 0.19,-0.095 0.285,-0.188c0.285,-0.097 0.665,-0.097 0.854,0.188c0.189,0.188 0.189,0.38 0.189,0.57c0,0.095 0,0.188 -0.096,0.284c0,0.095 -0.095,0.189 -0.189,0.285c0,0.189 -0.189,0.189 -0.473,0.189z"/>
  <path id="svg_6" fill="#06B9FF" d="m477.839,244.197c0,-0.477 0.38,-0.76 0.76,-0.76l0,0c0.475,0 0.76,0.379 0.76,0.76l0,0c0,0.475 -0.38,0.76 -0.76,0.76l0,0c-0.38,0 -0.76,-0.285 -0.76,-0.76zm-4.749,0c0,-0.477 0.38,-0.76 0.76,-0.76l0,0c0.476,0 0.76,0.379 0.76,0.76l0,0c0,0.475 -0.38,0.76 -0.76,0.76l0,0c-0.38,0 -0.76,-0.285 -0.76,-0.76zm-4.844,0c0,-0.477 0.381,-0.76 0.761,-0.76l0,0c0.475,0 0.76,0.379 0.76,0.76l0,0c0,0.475 -0.38,0.76 -0.76,0.76l0,0c-0.38,0 -0.761,-0.285 -0.761,-0.76zm-4.749,0c0,-0.477 0.381,-0.76 0.761,-0.76l0,0c0.475,0 0.76,0.379 0.76,0.76l0,0c0,0.475 -0.38,0.76 -0.76,0.76l0,0c-0.38,0 -0.761,-0.285 -0.761,-0.76zm-4.747,0c0,-0.477 0.38,-0.76 0.76,-0.76l0,0c0.475,0 0.76,0.379 0.76,0.76l0,0c0,0.475 -0.38,0.76 -0.76,0.76l0,0c-0.477,0 -0.76,-0.285 -0.76,-0.76zm-4.844,0c0,-0.477 0.38,-0.76 0.761,-0.76l0,0c0.475,0 0.76,0.379 0.76,0.76l0,0c0,0.475 -0.38,0.76 -0.76,0.76l0,0c-0.382,0 -0.761,-0.285 -0.761,-0.76zm-4.75,0c0,-0.477 0.38,-0.76 0.761,-0.76l0,0c0.476,0 0.76,0.379 0.76,0.76l0,0c0,0.475 -0.38,0.76 -0.76,0.76l0,0c-0.474,0 -0.761,-0.285 -0.761,-0.76zm-4.841,0c0,-0.477 0.38,-0.76 0.76,-0.76l0,0c0.476,0 0.761,0.379 0.761,0.76l0,0c0,0.475 -0.381,0.76 -0.761,0.76l0,0c-0.38,0 -0.76,-0.285 -0.76,-0.76zm-4.749,0c0,-0.477 0.38,-0.76 0.76,-0.76l0,0c0.476,0 0.761,0.379 0.761,0.76l0,0c0,0.475 -0.381,0.76 -0.761,0.76l0,0c-0.38,0 -0.76,-0.285 -0.76,-0.76zm-4.844,0c0,-0.477 0.38,-0.76 0.76,-0.76l0,0c0.476,0 0.76,0.379 0.76,0.76l0,0c0,0.475 -0.38,0.76 -0.76,0.76l0,0c-0.38,0 -0.76,-0.285 -0.76,-0.76zm-4.748,0c0,-0.477 0.38,-0.76 0.76,-0.76l0,0c0.476,0 0.76,0.379 0.76,0.76l0,0c0,0.475 -0.38,0.76 -0.76,0.76l0,0c-0.38,0 -0.76,-0.285 -0.76,-0.76zm-4.844,0c0,-0.477 0.38,-0.76 0.76,-0.76l0,0c0.475,0 0.76,0.379 0.76,0.76l0,0c0,0.475 -0.38,0.76 -0.76,0.76l0,0c-0.38,0 -0.76,-0.285 -0.76,-0.76zm-4.748,0c0,-0.477 0.38,-0.76 0.76,-0.76l0,0c0.475,0 0.76,0.379 0.76,0.76l0,0c0,0.475 -0.38,0.76 -0.76,0.76l0,0c-0.38,0 -0.76,-0.285 -0.76,-0.76zm-4.749,0c0,-0.477 0.38,-0.76 0.76,-0.76l0,0c0.475,0 0.76,0.379 0.76,0.76l0,0c0,0.475 -0.38,0.76 -0.76,0.76l0,0c-0.475,0 -0.76,-0.285 -0.76,-0.76z"/>
  <path id="svg_7" fill="#06B9FF" d="m411.549,244.957c-0.096,0 -0.096,0 -0.189,0s-0.095,0 -0.189,-0.096c-0.096,0 -0.096,0 -0.096,-0.096c-0.095,0 -0.095,-0.095 -0.095,-0.095c-0.095,-0.096 -0.095,-0.19 -0.19,-0.285c0,-0.095 -0.095,-0.188 -0.095,-0.284c0,-0.189 0.095,-0.381 0.285,-0.569l0.095,-0.095l0.096,-0.097c0.096,0 0.096,0 0.189,-0.095c0.285,-0.096 0.569,0 0.76,0.189c0.189,0.189 0.189,0.379 0.189,0.569s-0.095,0.38 -0.189,0.569c-0.095,0.385 -0.286,0.385 -0.571,0.385z"/>
  <path id="svg_8" fill="#F46721" d="m661.892,244.197c0,-2.375 0.38,-4.654 1.045,-6.743c1.425,-4.369 4.179,-8.168 7.883,-10.827c3.608,-2.659 8.167,-4.273 13.011,-4.273c4.845,0 9.309,1.52 12.916,4.179c3.704,2.658 6.554,6.553 7.979,10.922c0.665,2.089 1.045,4.368 1.045,6.743c0,2.374 -0.38,4.653 -1.045,6.741c-1.425,4.369 -4.179,8.168 -7.883,10.828c-3.608,2.658 -8.167,4.272 -13.012,4.272c-4.844,0 -9.307,-1.521 -12.916,-4.179c-3.703,-2.659 -6.553,-6.553 -7.978,-10.922c-0.665,-2.086 -1.045,-4.368 -1.045,-6.741z"/>
  <path id="svg_9" fill="#F46721" d="m683.829,277.816c-7.122,0 -13.961,-2.186 -19.754,-6.459c-5.697,-4.178 -10.065,-10.161 -12.251,-16.81c-1.045,-3.323 -1.613,-6.838 -1.613,-10.353c0,-3.514 0.568,-7.027 1.613,-10.353c2.186,-6.647 6.363,-12.441 12.063,-16.62c5.793,-4.274 12.726,-6.553 19.942,-6.553c7.123,0 13.962,2.185 19.755,6.458c5.697,4.179 10.066,10.162 12.251,16.81c1.045,3.324 1.614,6.838 1.614,10.354c0,3.514 -0.569,7.027 -1.614,10.352c-2.185,6.647 -6.362,12.441 -12.062,16.621c-5.792,4.274 -12.725,6.553 -19.944,6.553zm0,-66.384c-7.026,0 -13.771,2.185 -19.469,6.363c-5.509,4.084 -9.592,9.688 -11.775,16.24c-1.046,3.229 -1.614,6.646 -1.614,10.162c0,3.514 0.568,6.838 1.614,10.16c2.089,6.555 6.362,12.348 11.87,16.432c5.604,4.083 12.251,6.268 19.279,6.268c7.027,0 13.771,-2.185 19.469,-6.363c5.51,-4.084 9.593,-9.687 11.776,-16.239c1.045,-3.229 1.614,-6.647 1.614,-10.161c0,-3.419 -0.569,-6.838 -1.614,-10.162c-2.089,-6.553 -6.363,-12.346 -11.871,-16.43c-5.602,-4.086 -12.345,-6.27 -19.279,-6.27z"/>
  <path id="svg_10" fill="#F46721" d="m643.183,244.957c-0.189,0 -0.38,-0.096 -0.569,-0.189l-0.096,-0.096c0,-0.096 -0.095,-0.096 -0.095,-0.189s0,-0.096 -0.096,-0.189c0,-0.095 0,-0.095 0,-0.189c0,-0.189 0.096,-0.381 0.285,-0.569c0.284,-0.285 0.854,-0.285 1.141,0c0.188,0.188 0.188,0.38 0.188,0.569c0,0.096 0,0.096 0,0.189s0,0.096 0,0.189s-0.095,0.095 -0.095,0.189l-0.095,0.096l-0.097,0.094c-0.095,0 -0.095,0.097 -0.095,0.097c-0.095,0 -0.095,0 -0.188,0.095c-0.093,-0.097 -0.188,-0.097 -0.188,-0.097z"/>
  <path id="svg_11" fill="#F46721" d="m637.578,244.197c0,-0.477 0.381,-0.76 0.761,-0.76l0,0c0.476,0 0.76,0.379 0.76,0.76l0,0c0,0.475 -0.38,0.76 -0.76,0.76l0,0c-0.38,0 -0.761,-0.285 -0.761,-0.76zm-4.841,0c0,-0.477 0.38,-0.76 0.76,-0.76l0,0c0.476,0 0.761,0.379 0.761,0.76l0,0c0,0.475 -0.38,0.76 -0.761,0.76l0,0c-0.382,0 -0.76,-0.285 -0.76,-0.76zm-4.749,0c0,-0.477 0.38,-0.76 0.76,-0.76l0,0c0.476,0 0.761,0.379 0.761,0.76l0,0c0,0.475 -0.38,0.76 -0.761,0.76l0,0c-0.382,0 -0.76,-0.285 -0.76,-0.76zm-4.844,0c0,-0.477 0.38,-0.76 0.76,-0.76l0,0c0.477,0 0.76,0.379 0.76,0.76l0,0c0,0.475 -0.38,0.76 -0.76,0.76l0,0c-0.38,0 -0.76,-0.285 -0.76,-0.76zm-4.748,0c0,-0.477 0.38,-0.76 0.76,-0.76l0,0c0.476,0 0.761,0.379 0.761,0.76l0,0c0,0.475 -0.381,0.76 -0.761,0.76l0,0c-0.38,0 -0.76,-0.285 -0.76,-0.76zm-4.844,0c0,-0.477 0.38,-0.76 0.76,-0.76l0,0c0.475,0 0.76,0.379 0.76,0.76l0,0c0,0.475 -0.38,0.76 -0.76,0.76l0,0c-0.38,0 -0.76,-0.285 -0.76,-0.76zm-4.748,0c0,-0.477 0.38,-0.76 0.76,-0.76l0,0c0.475,0 0.76,0.379 0.76,0.76l0,0c0,0.475 -0.38,0.76 -0.76,0.76l0,0c-0.38,0 -0.76,-0.285 -0.76,-0.76zm-4.749,0c0,-0.477 0.38,-0.76 0.76,-0.76l0,0c0.475,0 0.76,0.379 0.76,0.76l0,0c0,0.475 -0.38,0.76 -0.76,0.76l0,0c-0.475,0 -0.76,-0.285 -0.76,-0.76zm-4.844,0c0,-0.477 0.38,-0.76 0.76,-0.76l0,0c0.476,0 0.76,0.379 0.76,0.76l0,0c0,0.475 -0.38,0.76 -0.76,0.76l0,0c-0.38,0 -0.76,-0.285 -0.76,-0.76zm-4.748,0c0,-0.477 0.38,-0.76 0.76,-0.76l0,0c0.475,0 0.76,0.379 0.76,0.76l0,0c0,0.475 -0.38,0.76 -0.76,0.76l0,0c-0.476,0 -0.76,-0.285 -0.76,-0.76zm-4.845,0c0,-0.477 0.38,-0.76 0.761,-0.76l0,0c0.475,0 0.76,0.379 0.76,0.76l0,0c0,0.475 -0.38,0.76 -0.76,0.76l0,0c-0.381,0 -0.761,-0.285 -0.761,-0.76zm-4.748,0c0,-0.477 0.38,-0.76 0.761,-0.76l0,0c0.475,0 0.76,0.379 0.76,0.76l0,0c0,0.475 -0.38,0.76 -0.76,0.76l0,0c-0.381,0 -0.761,-0.285 -0.761,-0.76zm-4.842,0c0,-0.477 0.38,-0.76 0.76,-0.76l0,0c0.476,0 0.761,0.379 0.761,0.76l0,0c0,0.475 -0.38,0.76 -0.761,0.76l0,0c-0.382,0 -0.76,-0.285 -0.76,-0.76zm-4.749,0c0,-0.477 0.38,-0.76 0.76,-0.76l0,0c0.477,0 0.761,0.379 0.761,0.76l0,0c0,0.475 -0.38,0.76 -0.761,0.76l0,0c-0.382,0 -0.76,-0.285 -0.76,-0.76z"/>
  <path id="svg_12" fill="#F46721" d="m571.289,244.957c-0.189,0 -0.38,-0.096 -0.569,-0.189c-0.189,-0.19 -0.284,-0.381 -0.284,-0.569c0,-0.19 0.095,-0.382 0.284,-0.57c0.285,-0.285 0.854,-0.285 1.14,0c0.19,0.188 0.19,0.38 0.19,0.57c0,0.188 -0.096,0.379 -0.19,0.569c-0.095,0.094 -0.188,0.094 -0.284,0.189c-0.096,0 -0.191,0 -0.287,0z"/>
  <path id="svg_13" fill="#66C90E" d="m525.323,106.964c-2.374,0 -4.652,-0.38 -6.743,-1.044c-4.367,-1.424 -8.167,-4.179 -10.825,-7.882c-2.659,-3.609 -4.274,-8.168 -4.274,-13.011c0,-4.844 1.521,-9.307 4.179,-12.916c2.659,-3.704 6.555,-6.553 10.923,-7.978c2.09,-0.665 4.368,-1.045 6.742,-1.045s4.653,0.38 6.743,1.045c4.368,1.424 8.167,4.179 10.826,7.882c2.659,3.609 4.272,8.167 4.272,13.011c0,4.843 -1.52,9.307 -4.179,12.916c-2.659,3.704 -6.553,6.553 -10.921,7.978c-2.088,0.664 -4.368,1.044 -6.743,1.044z"/>
  <path id="svg_14" fill="#66C90E" d="m525.323,118.646c-3.514,0 -7.027,-0.57 -10.352,-1.614c-6.648,-2.185 -12.441,-6.363 -16.62,-12.063c-4.273,-5.793 -6.553,-12.726 -6.553,-19.944c0,-7.123 2.184,-13.96 6.458,-19.754c4.179,-5.698 10.161,-10.067 16.81,-12.251c6.647,-2.184 14.057,-2.184 20.799,0c6.647,2.185 12.44,6.363 16.619,12.062c4.274,5.793 6.555,12.726 6.555,19.944c0,7.123 -2.186,13.96 -6.459,19.754c-4.179,5.698 -10.161,10.067 -16.811,12.251c-3.417,1.045 -6.931,1.615 -10.446,1.615zm0,-66.385c-3.419,0 -6.838,0.57 -10.162,1.615c-6.553,2.089 -12.346,6.363 -16.43,11.872c-4.084,5.603 -6.269,12.251 -6.269,19.279c0,7.028 2.185,13.771 6.362,19.469c4.084,5.508 9.688,9.592 16.24,11.776c6.553,2.089 13.771,2.089 20.229,0c6.553,-2.09 12.347,-6.363 16.43,-11.872c4.084,-5.603 6.269,-12.251 6.269,-19.279c0,-7.028 -2.185,-13.771 -6.362,-19.469c-4.084,-5.508 -9.688,-9.592 -16.24,-11.776c-3.229,-1.045 -6.648,-1.615 -10.067,-1.615z"/>
  <path id="svg_15" fill="#66C90E" d="m525.323,126.528c-0.189,0 -0.475,-0.095 -0.569,-0.285c-0.189,-0.19 -0.189,-0.38 -0.189,-0.57s0.095,-0.475 0.189,-0.57c0.189,-0.19 0.476,-0.285 0.76,-0.19c0.096,0 0.096,0 0.189,0c0.095,0 0.096,0.095 0.096,0.095l0.095,0.095c0.189,0.19 0.285,0.38 0.285,0.57s-0.096,0.38 -0.285,0.57c-0.191,0.19 -0.38,0.285 -0.571,0.285z"/>
  <path id="svg_16" fill="#66C90E" d="m524.47,192.817c0,-0.475 0.38,-0.76 0.76,-0.76l0,0c0.475,0 0.76,0.38 0.76,0.76l0,0c0,0.475 -0.38,0.76 -0.76,0.76l0,0c-0.38,0 -0.76,-0.285 -0.76,-0.76zm0,-4.843c0,-0.475 0.38,-0.76 0.76,-0.76l0,0c0.475,0 0.76,0.38 0.76,0.76l0,0c0,0.475 -0.38,0.76 -0.76,0.76l0,0c-0.38,0.095 -0.76,-0.285 -0.76,-0.76zm0,-4.748c0,-0.475 0.38,-0.76 0.76,-0.76l0,0c0.475,0 0.76,0.38 0.76,0.76l0,0c0,0.475 -0.38,0.76 -0.76,0.76l0,0c-0.38,0.094 -0.76,-0.286 -0.76,-0.76zm0,-4.749c0,-0.475 0.38,-0.76 0.76,-0.76l0,0c0.475,0 0.76,0.38 0.76,0.76l0,0c0,0.475 -0.38,0.76 -0.76,0.76l0,0c-0.38,0 -0.76,-0.38 -0.76,-0.76zm0,-4.843c0,-0.475 0.38,-0.76 0.76,-0.76l0,0c0.475,0 0.76,0.38 0.76,0.76l0,0c0,0.475 -0.38,0.76 -0.76,0.76l0,0c-0.38,0.094 -0.76,-0.286 -0.76,-0.76zm0,-4.749c0,-0.475 0.38,-0.76 0.76,-0.76l0,0c0.475,0 0.76,0.38 0.76,0.76l0,0c0,0.475 -0.38,0.76 -0.76,0.76l0,0c-0.38,0 -0.76,-0.38 -0.76,-0.76zm0,-4.843c0,-0.475 0.38,-0.76 0.76,-0.76l0,0c0.475,0 0.76,0.38 0.76,0.76l0,0c0,0.475 -0.38,0.76 -0.76,0.76l0,0c-0.38,0.094 -0.76,-0.285 -0.76,-0.76zm0,-4.749c0,-0.475 0.38,-0.76 0.76,-0.76l0,0c0.475,0 0.76,0.38 0.76,0.76l0,0c0,0.475 -0.38,0.76 -0.76,0.76l0,0c-0.38,0 -0.76,-0.38 -0.76,-0.76zm0,-4.844c0,-0.475 0.38,-0.76 0.76,-0.76l0,0c0.475,0 0.76,0.38 0.76,0.76l0,0c0,0.475 -0.38,0.76 -0.76,0.76l0,0c-0.38,0.095 -0.76,-0.285 -0.76,-0.76zm0,-4.748c0,-0.475 0.38,-0.76 0.76,-0.76l0,0c0.475,0 0.76,0.38 0.76,0.76l0,0c0,0.475 -0.38,0.76 -0.76,0.76l0,0c-0.38,0 -0.76,-0.285 -0.76,-0.76zm0,-4.844c0,-0.475 0.38,-0.76 0.76,-0.76l0,0c0.475,0 0.76,0.38 0.76,0.76l0,0c0,0.475 -0.38,0.76 -0.76,0.76l0,0c-0.38,0.095 -0.76,-0.285 -0.76,-0.76zm0,-4.748c0,-0.475 0.38,-0.76 0.76,-0.76l0,0c0.475,0 0.76,0.38 0.76,0.76l0,0c0,0.475 -0.38,0.76 -0.76,0.76l0,0c-0.38,0 -0.76,-0.285 -0.76,-0.76zm0,-4.749c0,-0.475 0.38,-0.76 0.76,-0.76l0,0c0.475,0 0.76,0.38 0.76,0.76l0,0c0,0.475 -0.38,0.76 -0.76,0.76l0,0c-0.38,0 -0.76,-0.38 -0.76,-0.76zm0,-4.843c0,-0.475 0.38,-0.76 0.76,-0.76l0,0c0.475,0 0.76,0.38 0.76,0.76l0,0c0,0.475 -0.38,0.76 -0.76,0.76l0,0c-0.38,0.095 -0.76,-0.285 -0.76,-0.76z"/>
  <path id="svg_17" fill="#66C90E" d="m525.323,198.421c-0.189,0 -0.475,-0.095 -0.569,-0.285c-0.096,-0.095 -0.096,-0.188 -0.189,-0.285c0,-0.095 -0.095,-0.19 -0.095,-0.285c0,-0.19 0.095,-0.38 0.188,-0.57c0.19,-0.189 0.476,-0.285 0.761,-0.189c0.095,0 0.095,0 0.189,0.095c0.095,0 0.095,0.095 0.095,0.095l0.096,0.095c0.189,0.19 0.284,0.38 0.284,0.57c0,0.095 0,0.19 -0.095,0.285c0,0.095 -0.096,0.188 -0.189,0.285l-0.096,0.095l-0.095,0.095c-0.096,0 -0.096,0 -0.189,0.095c0,-0.096 -0.096,-0.096 -0.096,-0.096z"/>
  <path id="svg_18" fill="#FF0068" d="m368.813,377.346c2.374,0 4.653,0.381 6.743,1.045c4.368,1.424 8.167,4.18 10.826,7.883c2.658,3.608 4.272,8.168 4.272,13.012s-1.52,9.307 -4.179,12.916c-2.659,3.704 -6.553,6.553 -10.921,7.978c-2.09,0.665 -4.369,1.045 -6.743,1.045s-4.653,-0.38 -6.743,-1.045c-4.368,-1.425 -8.167,-4.179 -10.826,-7.883c-2.658,-3.608 -4.273,-8.167 -4.273,-13.011s1.52,-9.309 4.179,-12.916c2.659,-3.704 6.554,-6.555 10.922,-7.979c2.088,-0.664 4.369,-1.045 6.743,-1.045z"/>
  <path id="svg_19" fill="#FF0068" d="m368.813,432.809c-3.514,0 -7.028,-0.568 -10.352,-1.613c-6.648,-2.186 -12.441,-6.363 -16.62,-12.063c-4.273,-5.793 -6.554,-12.726 -6.554,-19.942c0,-7.124 2.185,-13.962 6.458,-19.755c4.18,-5.699 10.161,-10.066 16.811,-12.252c6.646,-2.184 14.056,-2.184 20.799,0c6.647,2.186 12.44,6.363 16.619,12.063c4.273,5.794 6.554,12.727 6.554,19.944c0,7.121 -2.185,13.96 -6.458,19.754c-4.179,5.697 -10.162,10.065 -16.811,12.251c-3.419,1.043 -6.838,1.613 -10.446,1.613zm0,-66.385c-3.419,0 -6.838,0.57 -10.162,1.615c-6.553,2.089 -12.346,6.363 -16.43,11.871c-4.084,5.604 -6.27,12.251 -6.27,19.279c0,7.026 2.186,13.771 6.363,19.469c4.084,5.508 9.688,9.592 16.24,11.775c6.553,2.09 13.771,2.09 20.229,0c6.554,-2.09 12.348,-6.362 16.431,-11.871c4.084,-5.604 6.269,-12.252 6.269,-19.278c0,-7.028 -2.185,-13.771 -6.363,-19.47c-4.084,-5.508 -9.687,-9.592 -16.239,-11.775c-3.137,-1.045 -6.556,-1.615 -10.068,-1.615z"/>
  <path id="svg_20" fill="#FF0068" d="m368.813,359.396c-0.19,0 -0.38,-0.097 -0.57,-0.19c-0.188,-0.188 -0.188,-0.38 -0.188,-0.569c0,-0.096 0,-0.189 0.095,-0.285c0,-0.095 0.095,-0.188 0.19,-0.285c0.283,-0.284 0.854,-0.284 1.14,0c0.189,0.19 0.189,0.381 0.189,0.57s-0.096,0.381 -0.189,0.569c-0.194,0.095 -0.382,0.19 -0.667,0.19z"/>
  <path id="svg_21" fill="#FF0068" d="m368.053,353.793c0,-0.475 0.38,-0.76 0.76,-0.76l0,0c0.475,0 0.76,0.38 0.76,0.76l0,0c0,0.475 -0.38,0.76 -0.76,0.76l0,0c-0.38,0 -0.76,-0.38 -0.76,-0.76zm0,-4.844c0,-0.475 0.38,-0.76 0.76,-0.76l0,0c0.475,0 0.76,0.379 0.76,0.76l0,0c0,0.475 -0.38,0.76 -0.76,0.76l0,0c-0.38,0.096 -0.76,-0.285 -0.76,-0.76zm0,-4.748c0,-0.475 0.38,-0.76 0.76,-0.76l0,0c0.475,0 0.76,0.379 0.76,0.76l0,0c0,0.475 -0.38,0.76 -0.76,0.76l0,0c-0.38,0 -0.76,-0.285 -0.76,-0.76zm0,-4.844c0,-0.476 0.38,-0.76 0.76,-0.76l0,0c0.475,0 0.76,0.379 0.76,0.76l0,0c0,0.475 -0.38,0.854 -0.76,0.854l0,0c-0.38,0.001 -0.76,-0.379 -0.76,-0.854zm0,-4.748c0,-0.477 0.38,-0.76 0.76,-0.76l0,0c0.475,0 0.76,0.379 0.76,0.76l0,0c0,0.475 -0.38,0.76 -0.76,0.76l0,0c-0.38,0 -0.76,-0.285 -0.76,-0.76zm0,-4.75c0,-0.475 0.38,-0.76 0.76,-0.76l0,0c0.475,0 0.76,0.381 0.76,0.76l0,0c0,0.476 -0.38,0.761 -0.76,0.761l0,0c-0.38,0 -0.76,-0.38 -0.76,-0.761zm0,-4.841c0,-0.476 0.38,-0.761 0.76,-0.761l0,0c0.475,0 0.76,0.38 0.76,0.761l0,0c0,0.476 -0.38,0.76 -0.76,0.76l0,0c-0.38,0.093 -0.76,-0.286 -0.76,-0.76zm0,-4.748c0,-0.477 0.38,-0.761 0.76,-0.761l0,0c0.475,0 0.76,0.38 0.76,0.761l0,0c0,0.475 -0.38,0.76 -0.76,0.76l0,0c-0.38,-0.003 -0.76,-0.382 -0.76,-0.76zm0,-4.845c0,-0.475 0.38,-0.76 0.76,-0.76l0,0c0.475,0 0.76,0.38 0.76,0.76l0,0c0,0.476 -0.38,0.761 -0.76,0.761l0,0c-0.38,0.093 -0.76,-0.288 -0.76,-0.761zm0,-4.749c0,-0.475 0.38,-0.76 0.76,-0.76l0,0c0.475,0 0.76,0.381 0.76,0.76l0,0c0,0.477 -0.38,0.76 -0.76,0.76l0,0c-0.38,0 -0.76,-0.379 -0.76,-0.76zm0,-4.843c0,-0.476 0.38,-0.76 0.76,-0.76l0,0c0.475,0 0.76,0.38 0.76,0.76l0,0c0,0.476 -0.38,0.76 -0.76,0.76l0,0c-0.38,0.095 -0.76,-0.284 -0.76,-0.76zm0,-4.749c0,-0.475 0.38,-0.76 0.76,-0.76l0,0c0.475,0 0.76,0.38 0.76,0.76l0,0c0,0.475 -0.38,0.76 -0.76,0.76l0,0c-0.38,0 -0.76,-0.285 -0.76,-0.76zm0,-4.844c0,-0.475 0.38,-0.76 0.76,-0.76l0,0c0.475,0 0.76,0.381 0.76,0.76l0,0c0,0.476 -0.38,0.76 -0.76,0.76l0,0c-0.38,0.096 -0.76,-0.284 -0.76,-0.76zm0,-4.748c0,-0.475 0.38,-0.76 0.76,-0.76l0,0c0.475,0 0.76,0.379 0.76,0.76l0,0c0,0.475 -0.38,0.76 -0.76,0.76l0,0c-0.38,0 -0.76,-0.285 -0.76,-0.76z"/>
  <path id="svg_22" fill="#FF0068" d="m368.813,287.504c-0.19,0 -0.38,-0.096 -0.57,-0.189c-0.188,-0.19 -0.188,-0.381 -0.188,-0.569c0,-0.097 0,-0.19 0.095,-0.285c0,-0.096 0.095,-0.19 0.19,-0.285c0.283,-0.284 0.854,-0.284 1.14,0c0.095,0.095 0.095,0.189 0.189,0.285c0.095,0.095 0.095,0.188 0.095,0.285c0,0.095 0,0.188 -0.095,0.284c-0.096,0.095 -0.096,0.189 -0.189,0.285c-0.194,0.093 -0.478,0.189 -0.667,0.189z"/>
  <path id="svg_23" fill="#0FEAC0" d="m525.323,379.34c2.374,0 4.653,0.381 6.743,1.045c4.368,1.426 8.167,4.18 10.826,7.883c2.659,3.608 4.272,8.168 4.272,13.012s-1.52,9.308 -4.179,12.916c-2.659,3.704 -6.553,6.553 -10.921,7.978c-2.09,0.665 -4.369,1.045 -6.743,1.045s-4.652,-0.38 -6.743,-1.045c-4.367,-1.425 -8.167,-4.179 -10.825,-7.883c-2.659,-3.608 -4.274,-8.167 -4.274,-13.011s1.52,-9.309 4.179,-12.916c2.659,-3.704 6.555,-6.553 10.922,-7.979c2.091,-0.664 4.369,-1.045 6.743,-1.045z"/>
  <path id="svg_24" fill="#0FEAC0" d="m525.323,434.898c-3.514,0 -7.027,-0.57 -10.352,-1.615c-6.648,-2.185 -12.441,-6.362 -16.62,-12.062c-4.273,-5.794 -6.553,-12.727 -6.553,-19.943c0,-7.122 2.184,-13.96 6.458,-19.755c4.179,-5.697 10.161,-10.066 16.81,-12.25c6.647,-2.186 14.057,-2.186 20.799,0c6.647,2.184 12.44,6.363 16.619,12.061c4.274,5.794 6.555,12.727 6.555,19.944c0,7.123 -2.186,13.961 -6.459,19.754c-4.179,5.698 -10.161,10.066 -16.811,12.251c-3.417,1.045 -6.931,1.615 -10.446,1.615zm0,-66.384c-3.419,0 -6.838,0.57 -10.162,1.614c-6.553,2.089 -12.346,6.363 -16.43,11.872c-4.084,5.604 -6.269,12.25 -6.269,19.278c0,7.027 2.185,13.771 6.362,19.469c4.084,5.509 9.688,9.593 16.24,11.776c6.553,2.09 13.771,2.09 20.229,0c6.553,-2.09 12.347,-6.362 16.43,-11.871c4.084,-5.604 6.269,-12.251 6.269,-19.279c0,-7.027 -2.185,-13.771 -6.362,-19.469c-4.084,-5.508 -9.688,-9.592 -16.24,-11.776c-3.229,-1.14 -6.648,-1.614 -10.067,-1.614z"/>
  <path id="svg_25" fill="#0FEAC0" d="m525.323,361.391c-0.095,0 -0.189,0 -0.285,-0.095c-0.095,0 -0.188,-0.095 -0.284,-0.19c-0.189,-0.188 -0.189,-0.379 -0.189,-0.568c0,-0.096 0,-0.189 0.095,-0.285c0,-0.095 0.096,-0.189 0.19,-0.285c0.095,-0.095 0.188,-0.095 0.284,-0.189c0.284,-0.094 0.665,-0.094 0.854,0.189c0.095,0.096 0.095,0.19 0.189,0.285c0.094,0.096 0.095,0.189 0.095,0.285c0,0.189 -0.095,0.38 -0.284,0.568c-0.096,0.097 -0.189,0.097 -0.285,0.19c-0.189,0.095 -0.284,0.095 -0.38,0.095z"/>
  <path id="svg_26" fill="#0FEAC0" d="m524.47,355.787c0,-0.475 0.38,-0.76 0.76,-0.76l0,0c0.475,0 0.76,0.381 0.76,0.76l0,0c0,0.475 -0.38,0.76 -0.76,0.76l0,0c-0.38,0.096 -0.76,-0.285 -0.76,-0.76zm0,-4.748c0,-0.475 0.38,-0.76 0.76,-0.76l0,0c0.475,0 0.76,0.38 0.76,0.76l0,0c0,0.475 -0.38,0.76 -0.76,0.76l0,0c-0.38,0 -0.76,-0.38 -0.76,-0.76zm0,-4.844c0,-0.475 0.38,-0.76 0.76,-0.76l0,0c0.475,0 0.76,0.379 0.76,0.76l0,0c0,0.475 -0.38,0.76 -0.76,0.76l0,0c-0.38,0.096 -0.76,-0.285 -0.76,-0.76zm0,-4.748c0,-0.475 0.38,-0.76 0.76,-0.76l0,0c0.475,0 0.76,0.379 0.76,0.76l0,0c0,0.475 -0.38,0.76 -0.76,0.76l0,0c-0.38,0 -0.76,-0.285 -0.76,-0.76zm0,-4.843c0,-0.475 0.38,-0.76 0.76,-0.76l0,0c0.475,0 0.76,0.381 0.76,0.76l0,0c0,0.476 -0.38,0.761 -0.76,0.761l0,0c-0.38,0.093 -0.76,-0.287 -0.76,-0.761zm0,-4.749c0,-0.477 0.38,-0.76 0.76,-0.76l0,0c0.475,0 0.76,0.379 0.76,0.76l0,0c0,0.475 -0.38,0.76 -0.76,0.76l0,0c-0.38,0 -0.76,-0.285 -0.76,-0.76zm0,-4.843c0,-0.475 0.38,-0.76 0.76,-0.76l0,0c0.475,0 0.76,0.379 0.76,0.76l0,0c0,0.475 -0.38,0.76 -0.76,0.76l0,0c-0.38,0.094 -0.76,-0.286 -0.76,-0.76zm0,-4.748c0,-0.476 0.38,-0.854 0.76,-0.854l0,0c0.475,0 0.76,0.38 0.76,0.854l0,0c0,0.476 -0.38,0.76 -0.76,0.76l0,0c-0.38,-0.003 -0.76,-0.286 -0.76,-0.76zm0,-4.75c0,-0.475 0.38,-0.76 0.76,-0.76l0,0c0.475,0 0.76,0.381 0.76,0.76l0,0c0,0.477 -0.38,0.76 -0.76,0.76l0,0c-0.38,-0.001 -0.76,-0.379 -0.76,-0.76zm0,-4.843c0,-0.476 0.38,-0.76 0.76,-0.76l0,0c0.475,0 0.76,0.38 0.76,0.76l0,0c0,0.476 -0.38,0.761 -0.76,0.761l0,0c-0.38,0.093 -0.76,-0.286 -0.76,-0.761zm0,-4.749c0,-0.475 0.38,-0.76 0.76,-0.76l0,0c0.475,0 0.76,0.381 0.76,0.76l0,0c0,0.475 -0.38,0.76 -0.76,0.76l0,0c-0.38,0 -0.76,-0.379 -0.76,-0.76zm0,-4.844c0,-0.475 0.38,-0.76 0.76,-0.76l0,0c0.475,0 0.76,0.381 0.76,0.76l0,0c0,0.477 -0.38,0.76 -0.76,0.76l0,0c-0.38,0.096 -0.76,-0.284 -0.76,-0.76zm0,-4.748c0,-0.475 0.38,-0.76 0.76,-0.76l0,0c0.475,0 0.76,0.38 0.76,0.76l0,0c0,0.475 -0.38,0.76 -0.76,0.76l0,0c-0.38,0 -0.76,-0.38 -0.76,-0.76zm0,-4.844c0,-0.476 0.38,-0.76 0.76,-0.76l0,0c0.475,0 0.76,0.379 0.76,0.76l0,0c0,0.475 -0.38,0.76 -0.76,0.76l0,0c-0.38,0.096 -0.76,-0.285 -0.76,-0.76z"/>
  <path id="svg_27" fill="#0FEAC0" d="m525.323,289.498c-0.095,0 -0.189,0 -0.285,-0.096c-0.095,0 -0.188,-0.096 -0.284,-0.189c-0.096,-0.095 -0.096,-0.189 -0.189,-0.285c0,-0.095 -0.095,-0.188 -0.095,-0.285c0,-0.188 0.095,-0.379 0.284,-0.568c0.284,-0.285 0.854,-0.285 1.14,0c0.19,0.189 0.285,0.38 0.285,0.568c0,0.097 0,0.19 -0.095,0.285c0,0.096 -0.096,0.19 -0.19,0.285c-0.191,0.189 -0.38,0.285 -0.571,0.285z"/>
  <style type="text/css">:root {
        --animate-duration: 1s;
        --animate-delay: 1s;
        --animate-repeat: 1;
      }
      
       .animate__animated {
        -webkit-animation-duration: 1s;
        animation-duration: 1s;
        -webkit-animation-duration: var(--animate-duration);
        animation-duration: var(--animate-duration);
        -webkit-animation-fill-mode: both;
        animation-fill-mode: both;
      }
    @-webkit-keyframes fadeInLeft {
    from {
        opacity: 0;
        -webkit-transform: translate3d(-100%, 0, 0);
        transform: translate3d(-100%, 0, 0)
    }

    to {
        opacity: 1;
        -webkit-transform: none;
        transform: none
    }
}

@keyframes fadeInLeft {
    from {
        opacity: 0;
        -webkit-transform: translate3d(-100%, 0, 0);
        transform: translate3d(-100%, 0, 0)
    }

    to {
        opacity: 1;
        -webkit-transform: none;
        transform: none
    }
}

.animate__fadeInLeft {
    -webkit-animation-name: fadeInLeft;
    animation-name: fadeInLeft
}
    .animate__animated.animate__repeat-1 {
          -webkit-animation-iteration-count: 1;
          animation-iteration-count: 1;
          -webkit-animation-iteration-count: var(--animate-repeat);
          animation-iteration-count: var(--animate-repeat);
        }
    .animate__animated.animate__delay-1s {
          -webkit-animation-delay: 1s;
          animation-delay: 1s;
          -webkit-animation-delay: var(--animate-delay);
          animation-delay: var(--animate-delay);
        }
    .animate__animated.animate__faster {
          -webkit-animation-duration: calc(1s / 2);
          animation-duration: calc(1s / 2);
          -webkit-animation-duration: calc(var(--animate-duration) / 2);
          animation-duration: calc(var(--animate-duration) / 2);
        }</style>
  <g id="svg_28" class="animate__animated animate__fadeInLeft animate__repeat-1 animate__delay-1s animate__faster">
   <text id="XMLID_30_" transform="matrix(6.123234e-17,-1,1,6.123234e-17,93.8811,426.2881) " fill="#ECF0F1" font-family="'HelveticaWorld-Bold'" font-size="27.645">ONLINE ADVERTISING FACTS</text>
  </g>
  <style type="text/css">:root {
        --animate-duration: 1s;
        --animate-delay: 1s;
        --animate-repeat: 1;
      }
      
       .animate__animated {
        -webkit-animation-duration: 1s;
        animation-duration: 1s;
        -webkit-animation-duration: var(--animate-duration);
        animation-duration: var(--animate-duration);
        -webkit-animation-fill-mode: both;
        animation-fill-mode: both;
      }
    @-webkit-keyframes fadeInLeft {
    from {
        opacity: 0;
        -webkit-transform: translate3d(-100%, 0, 0);
        transform: translate3d(-100%, 0, 0)
    }

    to {
        opacity: 1;
        -webkit-transform: none;
        transform: none
    }
}

@keyframes fadeInLeft {
    from {
        opacity: 0;
        -webkit-transform: translate3d(-100%, 0, 0);
        transform: translate3d(-100%, 0, 0)
    }

    to {
        opacity: 1;
        -webkit-transform: none;
        transform: none
    }
}

.animate__fadeInLeft {
    -webkit-animation-name: fadeInLeft;
    animation-name: fadeInLeft
}
    .animate__animated.animate__repeat-1 {
          -webkit-animation-iteration-count: 1;
          animation-iteration-count: 1;
          -webkit-animation-iteration-count: var(--animate-repeat);
          animation-iteration-count: var(--animate-repeat);
        }
    .animate__animated.animate__delay-1s {
          -webkit-animation-delay: 1s;
          animation-delay: 1s;
          -webkit-animation-delay: var(--animate-delay);
          animation-delay: var(--animate-delay);
        }
    .animate__animated.animate__faster {
          -webkit-animation-duration: calc(1s / 2);
          animation-duration: calc(1s / 2);
          -webkit-animation-duration: calc(var(--animate-duration) / 2);
          animation-duration: calc(var(--animate-duration) / 2);
        }</style>
  <g id="svg_29" class="animate__animated animate__fadeInLeft animate__repeat-1 animate__delay-1s animate__faster">
   <text id="XMLID_29_" transform="matrix(6.123234e-17,-1,1,6.123234e-17,127.2581,408.0908) " fill="#ECF0F1" font-family="'HelveticaWorld-Bold'" font-size="19.264">Do you advertise your business online</text>
  </g>
  <style type="text/css">:root {
        --animate-duration: 1s;
        --animate-delay: 1s;
        --animate-repeat: 1;
      }
      
       .animate__animated {
        -webkit-animation-duration: 1s;
        animation-duration: 1s;
        -webkit-animation-duration: var(--animate-duration);
        animation-duration: var(--animate-duration);
        -webkit-animation-fill-mode: both;
        animation-fill-mode: both;
      }
    @-webkit-keyframes fadeIn {
    from {
        opacity: 0
    }

    to {
        opacity: 1
    }
}

@keyframes fadeIn {
    from {
        opacity: 0
    }

    to {
        opacity: 1
    }
}

.animate__fadeIn {
    -webkit-animation-name: fadeIn;
    animation-name: fadeIn
}

    .animate__animated.animate__repeat-1 {
          -webkit-animation-iteration-count: 1;
          animation-iteration-count: 1;
          -webkit-animation-iteration-count: var(--animate-repeat);
          animation-iteration-count: var(--animate-repeat);
        }
    .animate__animated.animate__delay-2s {
          -webkit-animation-delay: calc(1s * 2);
          animation-delay: calc(1s * 2);
          -webkit-animation-delay: calc(var(--animate-delay) * 2);
          animation-delay: calc(var(--animate-delay) * 2);
        }
    .animate__animated.animate__faster {
          -webkit-animation-duration: calc(1s / 2);
          animation-duration: calc(1s / 2);
          -webkit-animation-duration: calc(var(--animate-duration) / 2);
          animation-duration: calc(var(--animate-duration) / 2);
        }</style>
  <g id="svg_30" class="animate__animated animate__fadeIn animate__repeat-1 animate__delay-2s animate__faster">
   <text id="XMLID_7_" transform="matrix(1,0,0,1,502.2454,31.6035) " fill="#2B2B2B" font-family="'HelveticaWorld-Bold'" font-size="14.7294">Google</text>
  </g>
  <style type="text/css">:root {
        --animate-duration: 1s;
        --animate-delay: 1s;
        --animate-repeat: 1;
      }
      
       .animate__animated {
        -webkit-animation-duration: 1s;
        animation-duration: 1s;
        -webkit-animation-duration: var(--animate-duration);
        animation-duration: var(--animate-duration);
        -webkit-animation-fill-mode: both;
        animation-fill-mode: both;
      }
    @-webkit-keyframes fadeIn {
    from {
        opacity: 0
    }

    to {
        opacity: 1
    }
}

@keyframes fadeIn {
    from {
        opacity: 0
    }

    to {
        opacity: 1
    }
}

.animate__fadeIn {
    -webkit-animation-name: fadeIn;
    animation-name: fadeIn
}

    .animate__animated.animate__repeat-1 {
          -webkit-animation-iteration-count: 1;
          animation-iteration-count: 1;
          -webkit-animation-iteration-count: var(--animate-repeat);
          animation-iteration-count: var(--animate-repeat);
        }
    .animate__animated.animate__delay-2s {
          -webkit-animation-delay: calc(1s * 2);
          animation-delay: calc(1s * 2);
          -webkit-animation-delay: calc(var(--animate-delay) * 2);
          animation-delay: calc(var(--animate-delay) * 2);
        }
    .animate__animated.animate__faster {
          -webkit-animation-duration: calc(1s / 2);
          animation-duration: calc(1s / 2);
          -webkit-animation-duration: calc(var(--animate-duration) / 2);
          animation-duration: calc(var(--animate-duration) / 2);
        }</style>
  <g id="svg_31" class="animate__animated animate__fadeIn animate__repeat-1 animate__delay-2s animate__faster">
   <text id="XMLID_25_" transform="matrix(1,0,0,1,509.6184,91.6445) " fill="#1C1C1C" font-family="'HelveticaWorld-Bold'" font-size="17.0947">20%</text>
  </g>
  <style type="text/css">:root {
        --animate-duration: 1s;
        --animate-delay: 1s;
        --animate-repeat: 1;
      }
      
       .animate__animated {
        -webkit-animation-duration: 1s;
        animation-duration: 1s;
        -webkit-animation-duration: var(--animate-duration);
        animation-duration: var(--animate-duration);
        -webkit-animation-fill-mode: both;
        animation-fill-mode: both;
      }
    @-webkit-keyframes fadeIn {
    from {
        opacity: 0
    }

    to {
        opacity: 1
    }
}

@keyframes fadeIn {
    from {
        opacity: 0
    }

    to {
        opacity: 1
    }
}

.animate__fadeIn {
    -webkit-animation-name: fadeIn;
    animation-name: fadeIn
}

    .animate__animated.animate__repeat-1 {
          -webkit-animation-iteration-count: 1;
          animation-iteration-count: 1;
          -webkit-animation-iteration-count: var(--animate-repeat);
          animation-iteration-count: var(--animate-repeat);
        }
    .animate__animated.animate__delay-3s {
          -webkit-animation-delay: calc(1s * 3);
          animation-delay: calc(1s * 3);
          -webkit-animation-delay: calc(var(--animate-delay) * 3);
          animation-delay: calc(var(--animate-delay) * 3);
        }
    .animate__animated.animate__faster {
          -webkit-animation-duration: calc(1s / 2);
          animation-duration: calc(1s / 2);
          -webkit-animation-duration: calc(var(--animate-duration) / 2);
          animation-duration: calc(var(--animate-duration) / 2);
        }</style>
  <g id="svg_35" class="animate__animated animate__fadeIn animate__repeat-1 animate__delay-3s animate__faster">
   <text id="XMLID_4_" transform="matrix(1,0,0,1,326.6121,188.8145) " fill="#2B2B2B" font-family="'HelveticaWorld-Bold'" font-size="14.7294">Facebook</text>
  </g>
  <style type="text/css">:root {
        --animate-duration: 1s;
        --animate-delay: 1s;
        --animate-repeat: 1;
      }
      
       .animate__animated {
        -webkit-animation-duration: 1s;
        animation-duration: 1s;
        -webkit-animation-duration: var(--animate-duration);
        animation-duration: var(--animate-duration);
        -webkit-animation-fill-mode: both;
        animation-fill-mode: both;
      }
    @-webkit-keyframes fadeIn {
    from {
        opacity: 0
    }

    to {
        opacity: 1
    }
}

@keyframes fadeIn {
    from {
        opacity: 0
    }

    to {
        opacity: 1
    }
}

.animate__fadeIn {
    -webkit-animation-name: fadeIn;
    animation-name: fadeIn
}

    .animate__animated.animate__repeat-1 {
          -webkit-animation-iteration-count: 1;
          animation-iteration-count: 1;
          -webkit-animation-iteration-count: var(--animate-repeat);
          animation-iteration-count: var(--animate-repeat);
        }
    .animate__animated.animate__delay-3s {
          -webkit-animation-delay: calc(1s * 3);
          animation-delay: calc(1s * 3);
          -webkit-animation-delay: calc(var(--animate-delay) * 3);
          animation-delay: calc(var(--animate-delay) * 3);
        }
    .animate__animated.animate__faster {
          -webkit-animation-duration: calc(1s / 2);
          animation-duration: calc(1s / 2);
          -webkit-animation-duration: calc(var(--animate-duration) / 2);
          animation-duration: calc(var(--animate-duration) / 2);
        }</style>
  <g id="svg_38" class="animate__animated animate__fadeIn animate__repeat-1 animate__delay-3s animate__faster">
   <text id="svg_32" transform="matrix(1,0,0,1,353.6116,249.8076) " fill="#34495E" font-family="'HelveticaWorld-Bold'" font-size="17.0947">20%</text>
  </g>
  <style type="text/css">:root {
        --animate-duration: 1s;
        --animate-delay: 1s;
        --animate-repeat: 1;
      }
      
       .animate__animated {
        -webkit-animation-duration: 1s;
        animation-duration: 1s;
        -webkit-animation-duration: var(--animate-duration);
        animation-duration: var(--animate-duration);
        -webkit-animation-fill-mode: both;
        animation-fill-mode: both;
      }
    @-webkit-keyframes fadeIn {
    from {
        opacity: 0
    }

    to {
        opacity: 1
    }
}

@keyframes fadeIn {
    from {
        opacity: 0
    }

    to {
        opacity: 1
    }
}

.animate__fadeIn {
    -webkit-animation-name: fadeIn;
    animation-name: fadeIn
}

    .animate__animated.animate__repeat-1 {
          -webkit-animation-iteration-count: 1;
          animation-iteration-count: 1;
          -webkit-animation-iteration-count: var(--animate-repeat);
          animation-iteration-count: var(--animate-repeat);
        }
    .animate__animated.animate__delay-3s {
          -webkit-animation-delay: calc(1s * 3);
          animation-delay: calc(1s * 3);
          -webkit-animation-delay: calc(var(--animate-delay) * 3);
          animation-delay: calc(var(--animate-delay) * 3);
        }
    .animate__animated.animate__faster {
          -webkit-animation-duration: calc(1s / 2);
          animation-duration: calc(1s / 2);
          -webkit-animation-duration: calc(var(--animate-duration) / 2);
          animation-duration: calc(var(--animate-duration) / 2);
        }</style>
  <g id="svg_39" class="animate__animated animate__fadeIn animate__repeat-1 animate__delay-3s animate__faster">
   <text id="svg_33" transform="matrix(1,0,0,1,509.6184,250.6465) " fill="#1C1C1C" font-family="'HelveticaWorld-Bold'" font-size="17.0947">20%</text>
  </g>
  <style type="text/css">:root {
        --animate-duration: 1s;
        --animate-delay: 1s;
        --animate-repeat: 1;
      }
      
       .animate__animated {
        -webkit-animation-duration: 1s;
        animation-duration: 1s;
        -webkit-animation-duration: var(--animate-duration);
        animation-duration: var(--animate-duration);
        -webkit-animation-fill-mode: both;
        animation-fill-mode: both;
      }
    @-webkit-keyframes fadeIn {
    from {
        opacity: 0
    }

    to {
        opacity: 1
    }
}

@keyframes fadeIn {
    from {
        opacity: 0
    }

    to {
        opacity: 1
    }
}

.animate__fadeIn {
    -webkit-animation-name: fadeIn;
    animation-name: fadeIn
}

    .animate__animated.animate__repeat-1 {
          -webkit-animation-iteration-count: 1;
          animation-iteration-count: 1;
          -webkit-animation-iteration-count: var(--animate-repeat);
          animation-iteration-count: var(--animate-repeat);
        }
    .animate__animated.animate__delay-3s {
          -webkit-animation-delay: calc(1s * 3);
          animation-delay: calc(1s * 3);
          -webkit-animation-delay: calc(var(--animate-delay) * 3);
          animation-delay: calc(var(--animate-delay) * 3);
        }
    .animate__animated.animate__faster {
          -webkit-animation-duration: calc(1s / 2);
          animation-duration: calc(1s / 2);
          -webkit-animation-duration: calc(var(--animate-duration) / 2);
          animation-duration: calc(var(--animate-duration) / 2);
        }</style>
  <g id="svg_40" class="animate__animated animate__fadeIn animate__repeat-1 animate__delay-3s animate__faster">
   <text id="XMLID_11_" transform="matrix(1,0,0,1,650.2112,188.8145) " fill="#2B2B2B" font-family="'HelveticaWorld-Bold'" font-size="14.7294">YouTube</text>
  </g>
  <style type="text/css">:root {
        --animate-duration: 1s;
        --animate-delay: 1s;
        --animate-repeat: 1;
      }
      
       .animate__animated {
        -webkit-animation-duration: 1s;
        animation-duration: 1s;
        -webkit-animation-duration: var(--animate-duration);
        animation-duration: var(--animate-duration);
        -webkit-animation-fill-mode: both;
        animation-fill-mode: both;
      }
    @-webkit-keyframes fadeIn {
    from {
        opacity: 0
    }

    to {
        opacity: 1
    }
}

@keyframes fadeIn {
    from {
        opacity: 0
    }

    to {
        opacity: 1
    }
}

.animate__fadeIn {
    -webkit-animation-name: fadeIn;
    animation-name: fadeIn
}

    .animate__animated.animate__repeat-1 {
          -webkit-animation-iteration-count: 1;
          animation-iteration-count: 1;
          -webkit-animation-iteration-count: var(--animate-repeat);
          animation-iteration-count: var(--animate-repeat);
        }
    .animate__animated.animate__delay-3s {
          -webkit-animation-delay: calc(1s * 3);
          animation-delay: calc(1s * 3);
          -webkit-animation-delay: calc(var(--animate-delay) * 3);
          animation-delay: calc(var(--animate-delay) * 3);
        }
    .animate__animated.animate__faster {
          -webkit-animation-duration: calc(1s / 2);
          animation-duration: calc(1s / 2);
          -webkit-animation-duration: calc(var(--animate-duration) / 2);
          animation-duration: calc(var(--animate-duration) / 2);
        }</style>
  <g id="svg_41" class="animate__animated animate__fadeIn animate__repeat-1 animate__delay-3s animate__faster">
   <text id="svg_34" transform="matrix(1,0,0,1,667.7131,250.6445) " fill="#1C1C1C" font-family="'HelveticaWorld-Bold'" font-size="17.0947">20%</text>
  </g>
  <style type="text/css">:root {
        --animate-duration: 1s;
        --animate-delay: 1s;
        --animate-repeat: 1;
      }
      
       .animate__animated {
        -webkit-animation-duration: 1s;
        animation-duration: 1s;
        -webkit-animation-duration: var(--animate-duration);
        animation-duration: var(--animate-duration);
        -webkit-animation-fill-mode: both;
        animation-fill-mode: both;
      }
    @-webkit-keyframes fadeIn {
    from {
        opacity: 0
    }

    to {
        opacity: 1
    }
}

@keyframes fadeIn {
    from {
        opacity: 0
    }

    to {
        opacity: 1
    }
}

.animate__fadeIn {
    -webkit-animation-name: fadeIn;
    animation-name: fadeIn
}

    .animate__animated.animate__repeat-1 {
          -webkit-animation-iteration-count: 1;
          animation-iteration-count: 1;
          -webkit-animation-iteration-count: var(--animate-repeat);
          animation-iteration-count: var(--animate-repeat);
        }
    .animate__animated.animate__delay-4s {
          -webkit-animation-delay: calc(1s * 4);
          animation-delay: calc(1s * 4);
          -webkit-animation-delay: calc(var(--animate-delay) * 4);
          animation-delay: calc(var(--animate-delay) * 4);
        }
    .animate__animated.animate__faster {
          -webkit-animation-duration: calc(1s / 2);
          animation-duration: calc(1s / 2);
          -webkit-animation-duration: calc(var(--animate-duration) / 2);
          animation-duration: calc(var(--animate-duration) / 2);
        }</style>
  <g id="svg_42" class="animate__animated animate__fadeIn animate__repeat-1 animate__delay-4s animate__faster">
   <text id="XMLID_16_" transform="matrix(1,0,0,1,402.5276,379.3398) " fill="#2B2B2B" font-family="'HelveticaWorld-Bold'" font-size="14.7294">Twitter</text>
  </g>
  <style type="text/css">:root {
        --animate-duration: 1s;
        --animate-delay: 1s;
        --animate-repeat: 1;
      }
      
       .animate__animated {
        -webkit-animation-duration: 1s;
        animation-duration: 1s;
        -webkit-animation-duration: var(--animate-duration);
        animation-duration: var(--animate-duration);
        -webkit-animation-fill-mode: both;
        animation-fill-mode: both;
      }
    @-webkit-keyframes fadeIn {
    from {
        opacity: 0
    }

    to {
        opacity: 1
    }
}

@keyframes fadeIn {
    from {
        opacity: 0
    }

    to {
        opacity: 1
    }
}

.animate__fadeIn {
    -webkit-animation-name: fadeIn;
    animation-name: fadeIn
}

    .animate__animated.animate__repeat-1 {
          -webkit-animation-iteration-count: 1;
          animation-iteration-count: 1;
          -webkit-animation-iteration-count: var(--animate-repeat);
          animation-iteration-count: var(--animate-repeat);
        }
    .animate__animated.animate__delay-4s {
          -webkit-animation-delay: calc(1s * 4);
          animation-delay: calc(1s * 4);
          -webkit-animation-delay: calc(var(--animate-delay) * 4);
          animation-delay: calc(var(--animate-delay) * 4);
        }
    .animate__animated.animate__faster {
          -webkit-animation-duration: calc(1s / 2);
          animation-duration: calc(1s / 2);
          -webkit-animation-duration: calc(var(--animate-duration) / 2);
          animation-duration: calc(var(--animate-duration) / 2);
        }</style>
  <g id="svg_43" class="animate__animated animate__fadeIn animate__repeat-1 animate__delay-4s animate__faster">
   <text id="XMLID_23_" transform="matrix(1,0,0,1,353.6077,407.0459) " fill="#ECF0F1" font-family="'HelveticaWorld-Bold'" font-size="17.0947">10%</text>
  </g>
  <style type="text/css">:root {
        --animate-duration: 1s;
        --animate-delay: 1s;
        --animate-repeat: 1;
      }
      
       .animate__animated {
        -webkit-animation-duration: 1s;
        animation-duration: 1s;
        -webkit-animation-duration: var(--animate-duration);
        animation-duration: var(--animate-duration);
        -webkit-animation-fill-mode: both;
        animation-fill-mode: both;
      }
    @-webkit-keyframes fadeIn {
    from {
        opacity: 0
    }

    to {
        opacity: 1
    }
}

@keyframes fadeIn {
    from {
        opacity: 0
    }

    to {
        opacity: 1
    }
}

.animate__fadeIn {
    -webkit-animation-name: fadeIn;
    animation-name: fadeIn
}

    .animate__animated.animate__repeat-1 {
          -webkit-animation-iteration-count: 1;
          animation-iteration-count: 1;
          -webkit-animation-iteration-count: var(--animate-repeat);
          animation-iteration-count: var(--animate-repeat);
        }
    .animate__animated.animate__delay-5s {
          -webkit-animation-delay: calc(1s * 5);
          animation-delay: calc(1s * 5);
          -webkit-animation-delay: calc(var(--animate-delay) * 5);
          animation-delay: calc(var(--animate-delay) * 5);
        }
    .animate__animated.animate__faster {
          -webkit-animation-duration: calc(1s / 2);
          animation-duration: calc(1s / 2);
          -webkit-animation-duration: calc(var(--animate-duration) / 2);
          animation-duration: calc(var(--animate-duration) / 2);
        }</style>
  <g id="svg_44" class="animate__animated animate__fadeIn animate__repeat-1 animate__delay-5s animate__faster">
   <text id="svg_36" transform="matrix(1,0,0,1,509.6213,407.8867) " fill="#282828" font-family="'HelveticaWorld-Bold'" font-size="17.0947">10%</text>
  </g>
  <style type="text/css">:root {
        --animate-duration: 1s;
        --animate-delay: 1s;
        --animate-repeat: 1;
      }
      
       .animate__animated {
        -webkit-animation-duration: 1s;
        animation-duration: 1s;
        -webkit-animation-duration: var(--animate-duration);
        animation-duration: var(--animate-duration);
        -webkit-animation-fill-mode: both;
        animation-fill-mode: both;
      }
    @-webkit-keyframes fadeIn {
    from {
        opacity: 0
    }

    to {
        opacity: 1
    }
}

@keyframes fadeIn {
    from {
        opacity: 0
    }

    to {
        opacity: 1
    }
}

.animate__fadeIn {
    -webkit-animation-name: fadeIn;
    animation-name: fadeIn
}

    .animate__animated.animate__repeat-1 {
          -webkit-animation-iteration-count: 1;
          animation-iteration-count: 1;
          -webkit-animation-iteration-count: var(--animate-repeat);
          animation-iteration-count: var(--animate-repeat);
        }
    .animate__animated.animate__delay-5s {
          -webkit-animation-delay: calc(1s * 5);
          animation-delay: calc(1s * 5);
          -webkit-animation-delay: calc(var(--animate-delay) * 5);
          animation-delay: calc(var(--animate-delay) * 5);
        }
    .animate__animated.animate__faster {
          -webkit-animation-duration: calc(1s / 2);
          animation-duration: calc(1s / 2);
          -webkit-animation-duration: calc(var(--animate-duration) / 2);
          animation-duration: calc(var(--animate-duration) / 2);
        }</style>
  <g class="animate__animated animate__fadeIn animate__repeat-1 animate__delay-5s animate__faster" id="svg_45">
   <text id="XMLID_13_" transform="matrix(1,0,0,1,585.9934,385.8438) " fill="#2B2B2B" font-family="'HelveticaWorld-Bold'" font-size="14.7294">Instagram</text>
  </g>
 </g>
</svg>