<svg xmlns="http://www.w3.org/2000/svg" xmlns:xlink="http://www.w3.org/1999/xlink" version="1.1" x="0px" y="0px" width="800px" height="450px" viewBox="0 0 800 450" style="enable-background:new 0 0 800 450;" xml:space="preserve"><g><title>background</title><rect fill="#fff" id="canvas_background" height="450" width="800" y="-1" x="-1"/></g>
<style type="text/css">
	.st0{fill:#66ACD0;}
	.st1{display:none;fill:#66ACD0;}
	.st2{fill:#69615A;}
	.st3{fill:#363334;}
	.st4{fill:#322F30;}
	.st5{fill:#1C1C1C;}
	.st6{fill:#6AACF1;}
	.st7{fill:#E5E5E5;}
	.st8{fill:#9E9E9E;}
	.st9{fill:#5E5E5E;}
	.st10{fill:#C6C6C6;}
	.st11{fill:#4D4D4D;}
	.st12{fill:#BFBFBF;}
	.st13{fill:#999999;}
	.st14{fill:#CCCCCC;}
	.st15{fill:#666666;}
	.st16{fill:#C5701A;}
	.st17{fill:#D39B2A;}
	.st18{fill:#D18C23;}
	.st19{fill:#C26F1A;}
	.st20{fill:#D1992A;}
	.st21{fill:#F6A942;}
	.st22{fill:#FFC678;}
	.st23{fill:#4E565F;}
	.st24{fill:#FCAAAD;}
	.st25{fill:#757575;}
	.st26{fill:#FFFFFF;}
	.st27{fill:#595F67;}
	.st28{fill:#6E4F3A;}
	.st29{fill:#796353;}
	.st30{fill:#4F575F;}
	.st31{fill:#4C555F;}
	.st32{fill:#969696;}
	.st33{fill:#A3DEFE;}
	.st34{fill:#F0F0F0;}
	.st35{fill:#E0E0E0;}
	.st36{fill:#979797;}
	.st37{fill:#93735A;}
	.st38{fill:#9F8C7C;}
	.st39{fill:#423E38;}
       #arm1{
    animation : wave 2s ease-in-out infinite;
    transform-origin : center ;
    transform-box : fill-box
    }
    @keyframes wave{
    0%{
    transform : rotate(0deg)
    }
    50%{
    transform : rotate(40deg)
    }
    100%{
    transform : rotate(0deg)
    }
    }
    #moving{
    animation : swip 2s ease-in-out infinite
    }
    @keyframes swip{
    0%{
    transform : translateX(0px)
    }
    30%{
    transform : translateX(3px)
    }
    60%{
    transform : translateX(-3px)
    }
    90%{
    transform : translateX(3px)
    }
    100%{
    transform : translateX(0px)
    }
    }
    #explotion4 ,#explotion3{
    animation : explode 2s ease-in-out infinite;
    transform-origin : center ;
    transform-box : fill-box
    }
    @keyframes explode{
    0%,20%{
    transform : scale(0)
    }
    50%{
    transform : scale(.5);
    fill : #4D4D4D
    }
    
    100%{
    transform : scale(1)
    }
    }
    #leg1{
    animation : hit 2s ease-in-out infinite
    }
    @keyframes hit{
    0%{
    transform : translateY(0)
    }
    20%{
    transform : translateY(-8px)
    }
    40%{
    transform : translateY(0)
    }
    60%{
    transform : translateY(-8px)
    }
    80%{
    transform : translateY(0)
    }
    100%{
    transform : translateY(-8px)
    }
    }
    #moving2 ,#dot1 ,#dot2{
    animation : animate2 2s ease-in-out infinite;
    transform-origin : center ;
    transform-box : fill-box
    }
    @keyframes animate2{
    0%,20%{
    transform : rotate(0deg)
    
    }
    50%{
    transform : rotate(10deg)
    }
    100%{
    transform : rotate(0deg)
    }
    }
    #arm2{
    animation : wave2 2s ease-in-out infinite;
    transform-origin : center ;
    transform-box : fill-box
    }
    @keyframes wave2{
    0%,20%{
    transform : rotate(0)
    }
    50%{
    transform : rotate(-20deg)
    }
    100%{
    transform : rotate(0)
    }
    }
    #explotion-big{
    animation : exploding 2s ease-in-out infinite;
    transform-origin : center ;
    transform-box : fill-box
    }
    @keyframes exploding{
    0%{
    transform : scale(0)
    }
    50%{
    transform : scale(1)
    }
    80%{
    transform : scale(1.5)
    }
    100%{
    visibility : hidden
    }
    }
    #crown ,#glass{
    animation : fade 2s ease-in-out infinite;
    visibility : hidden
    }
    @keyframes fade{
    0%,50%{
    visibility: hidden
    }
    60%,100%{
    visibility : visible
    }
    }
    #arm3{
    animation : animate3 2s ease-in-out infinite;
    transform-origin : center ;
    transform-box : fill-box
    }
    @keyframes animate3{
    0%,20%{
    transform : rotate(0)
    }
    50%{
    transform : rotate(15deg)
    }
    100%{
    transform : rotate(0)
    }
    }
    #news-paper{
    animation : move 2s ease-in-out infinite;
    }
    @keyframes move{
    0%,20%{
    transform : translateY(0)
    }
    50%,70%{
    transform : translateY(-15px)
    }
    100%{
    transform : translateY(0)
    }
    }
    #star1 ,#star2 ,#star3{
    animation : hide 2s ease-in-out infinite;
     transform-origin : center ;
    transform-box : fill-box
    }
    @keyframes hide{
    0%{
    transform : scale(0)
    }
    100%{
    transform : scale(1)
    }
    }
</style>
<g id="Layer_1">
	<polygon id="star2" class="st0" points="274.6,104.5 264.7,103.3 258.2,110.8 256.2,101.1 247.1,97.2 255.7,92.3 256.6,82.4    264,89.1 273.7,86.9 269.5,95.9  "/>
	<polygon id="star1" class="st0" points="44.6,104.5 34.7,103.3 28.2,110.8 26.2,101.1 17.1,97.2 25.7,92.3 26.6,82.4 34,89.1    43.7,86.9 39.5,95.9  "/>
	<polygon id="star3" class="st0" points="69.6,31.5 59.7,30.3 53.2,37.8 51.2,28.1 42.1,24.2 50.7,19.3 51.6,9.4 59,16.1 68.7,13.9    64.5,22.9  "/>
	<polygon class="st1" points="49.9,11.6 45.8,13.9 55,17.8 57,27.5 63.5,20 73.4,21.2 68.3,12.6 68.7,11.6  "/>
</g>
<g id="chair">
	<path class="st2" d="M753.6,362.7H591.8c-6.2,0-11.3-5-11.3-11.3v-20.9c0-6.2,5-11.3,11.3-11.3h161.8c6.2,0,11.3,5,11.3,11.3v20.9   C764.9,357.6,759.8,362.7,753.6,362.7"/>
	<path class="st3" d="M729.9,446.3v-49c0-2.1,1.7-3.7,3.7-3.7h8.1c2.1,0,3.7,1.7,3.7,3.7v49c0,2.1-1.7,3.7-3.7,3.7h-8.1   C731.5,450,729.9,448.3,729.9,446.3"/>
	<path class="st4" d="M598.7,446.3v-49c0-2.1,1.7-3.7,3.7-3.7h8.1c2.1,0,3.7,1.7,3.7,3.7v49c0,2.1-1.7,3.7-3.7,3.7h-8.1   C600.4,450,598.7,448.3,598.7,446.3"/>
	<path class="st2" d="M756.8,408.6H588.6c-4.5,0-8.1-3.6-8.1-8.1v-6.3c0-4.5,3.6-8.1,8.1-8.1h168.2c4.5,0,8.1,3.6,8.1,8.1v6.3   C764.9,404.9,761.2,408.6,756.8,408.6"/>
</g>
<g id="glass">
	<path class="st5" d="M431.1,386.7c-1.2,3.5-2,5.7-4.2,6.9c-3.6,2.1-8.6,0.5-13.5-1.1c-4.7-1.5-9.3-3-11.2-6.8   c-1.2-2.2-0.8-4.3-0.2-7.9c0.7-4.3,1.1-7,3.4-8.2c2.6-1.4,6.6-0.2,14.3,2.4c7.3,2.4,11,3.7,12.4,6.4   C433.2,380.7,432.4,383,431.1,386.7"/>
	<path class="st6" d="M422.8,398.4c-3.5,0-7.2-1.2-10.5-2.3c-5.1-1.6-10.8-3.5-13.4-8.6c-1.7-3.4-1.3-6.3-0.6-10.3l0.1-0.4   c0.8-4.5,1.4-8.5,5.2-10.6c4.1-2.3,8.8-0.7,17.3,2.1c7.8,2.6,12.4,4.1,14.6,8.3c1.9,3.6,0.7,7-0.6,10.9l-0.1,0.3   c-1.4,3.9-2.4,7-5.9,9C426.9,398,424.9,398.4,422.8,398.4z M408,372.8c-0.4,0-0.7,0.1-0.9,0.2c-0.6,0.3-1,2.8-1.4,5.1l-0.1,0.4   c-0.6,3.6-0.7,4.5-0.2,5.5c1.2,2.3,5,3.6,9,4.9c3.9,1.3,8.2,2.7,10.4,1.4c0.9-0.5,1.4-1.6,2.5-4.9l0.1-0.3c0.9-2.7,1.4-4.2,1-4.9   c-0.7-1.4-4.9-2.8-10.2-4.6C414.1,374.2,410,372.8,408,372.8z"/>
	<path class="st5" d="M491.5,404.9c-1.2,3.5-2,5.7-4.2,6.9c-3.6,2.1-8.6,0.5-13.5-1.1c-4.7-1.5-9.3-3-11.2-6.8   c-1.2-2.2-0.8-4.3-0.2-7.9c0.7-4.3,1.1-7,3.4-8.2c2.6-1.4,6.6-0.2,14.3,2.4c7.3,2.4,11,3.7,12.4,6.4   C493.6,399,492.7,401.3,491.5,404.9"/>
	<path class="st6" d="M483.2,416.7c-3.5,0-7.2-1.2-10.5-2.3c-5.1-1.6-10.8-3.5-13.4-8.6c-1.7-3.4-1.3-6.3-0.6-10.3l0.1-0.4   c0.8-4.5,1.4-8.5,5.2-10.6c4.1-2.3,8.8-0.7,17.3,2.1c7.8,2.6,12.4,4.1,14.6,8.3c1.9,3.6,0.7,7-0.6,10.9l-0.1,0.3   c-1.4,3.9-2.4,7-5.9,9C487.3,416.3,485.2,416.7,483.2,416.7z M468.4,391.1c-0.4,0-0.7,0-0.9,0.2c-0.6,0.3-1,2.8-1.4,5.2l-0.1,0.4   c-0.6,3.6-0.7,4.5-0.2,5.5c1.2,2.3,5,3.6,9,4.9c3.9,1.3,8.2,2.7,10.4,1.4c0.9-0.5,1.4-1.6,2.5-4.9l3.6,1.2l-3.6-1.2l0.1-0.3   c0.9-2.7,1.4-4.2,1-4.9c-0.7-1.4-4.9-2.8-10.2-4.6C474.5,392.4,470.3,391.1,468.4,391.1z"/>
	<path class="st6" d="M466,390.8c-5.8-3.1-12-5.7-18.4-7.6c-6.6-2-13.3-3.4-20.1-4.1l0.6-5.9c7.2,0.7,14.3,2.2,21.3,4.3   c6.7,2.1,13.2,4.8,19.4,8L466,390.8z"/>
</g>
<g id="explotion4">
	<path class="st7" d="M305.1,73.3c1-7.8,7.1-14.2,15.2-15.1c9.2-1.1,17.5,5.2,19.1,14.3c6.3,2,11.2,7.6,12,14.6   c0.9,7.8-3.5,15-10.4,18l5.1,14.5l-4.4,0.5l-1.1,7.5l-23.6-21.6c-1.3,0.5-2.6,0.8-4,1c-9.5,1.1-18.2-5.7-19.3-15.3   C292.8,83.4,297.7,76,305.1,73.3"/>
	<path class="st8" d="M351.5,87c-0.8-7-5.7-12.6-12-14.6c-1.6-9-9.9-15.3-19.1-14.3c-8.1,0.9-14.3,7.4-15.2,15.1c0,0-0.1,0-0.1,0   c4.9,16.7,19,29.4,36.3,32.2l-0.2-0.6C348,102,352.4,94.8,351.5,87"/>
</g>
<g id="explotion2">
	<path class="st9" d="M559.6,288.7c-3.7,3.7-7.9,6.3-13.1,7.1c-8.5,1.3-17.4-2.9-19.8-11.7c-0.3-1-0.3-2.2-0.5-3.2   c-0.1-0.6,0.1-1.3-0.7-1.5c-0.1-2.1,0.3-4.1,0.8-6c0.3-1.2-0.1-1.5-1.2-1.5c-1.1,0-2.2,0.1-3.3-0.1c-0.7-0.1-1.3-0.3-1.7-1   c-6.5-2-11-6.1-13-12.7c-1.8-6.2-0.4-11.8,3.5-16.8c1.8-2.3,4.1-3.9,6.2-5.8c0.4-1.2,1.6-1.4,2.5-2c1.6-0.9,3.3-1.6,5-2.2   c1.4-0.5,2-1.2,1.5-2.8c-0.5-1.6-0.7-3.3-0.7-5c0-0.7,0-1.5,0.6-2c0.5-5.2,2.7-9.4,7.5-11.8c6.2-3.1,12.3-2.5,18.3,1   c0.5,0.3,0.9,0.6,1.4,0.9c1.4,0.1,2,1.2,2.8,2c0.7,0.7,0.9,2,1.8,2.1c0.9,0.1,1.6-0.9,2.5-1.4c1.7-0.9,3.4-1.8,5.3-2.2   c0.7-0.1,1.3-0.3,2-0.1c1.5,0.8,3.2,0.2,4.8,0.5c9.1,1.7,15.8,9.6,16,18.8c0,0.2,0,0.5,0,0.7c0.6,0.7,0.4,1.5,0.2,2.2   c-0.5,2.1-1.2,4.1-2.6,5.8c-1,1.2-0.7,1.8,0.6,2.5c1.7,0.9,3.3,2,4.8,3.3c0.5,0.5,1.2,0.9,1.3,1.7c0.3,1.1,1.3,1.7,2,2.5   c5.2,6.5,5.9,14.3,1.7,21.4c-4.7,8-11.5,13.2-20.8,14.9c-2.4,0.4-4.7-0.2-7-0.5c-1.3,0.3-2.3-0.3-3.1-1.1c-1.6-1.4-1.7-0.9-2.6,0.6   C561.9,286.6,561.3,288.2,559.6,288.7"/>
	<path class="st10" d="M526,221.4c0.1,3,0.2,5.9,1.3,8.8c0.2,0.5,0,0.9-0.4,1c-3.5,0.9-6.5,2.8-9.8,4.2c-3.3-3.6-7.2-6.2-11.7-8.5   c0.8,0,1.6,0.1,2.4,0c2.3-0.2,3-1.4,2-3.5c-0.9-1.9-2.3-3.6-3.8-5.1c-1.8-1.9-3.7-3.7-5.5-5.5c-0.1-0.2-0.4-0.5-0.2-0.8   c0.2-0.3,0.4-0.2,0.6-0.1c4.6,2.8,8.9,6.1,13.8,8.3c0.6,0.3,1.4,0.7,2.1,0.2c0.8-0.6,0.5-1.5,0.3-2.2c-0.5-2.3-1.6-4.4-2.4-6.7   C518.1,215.1,521.7,218.6,526,221.4"/>
	<path class="st10" d="M592.6,247.4c-2.7-1.7-5.1-3.9-8-5.3c-0.8-0.4-0.7-0.9-0.1-1.4c2.4-2.4,3.3-5.5,3.8-8.7   c5.9,0.2,11.6-0.9,17.3-2.1c-2.1,1.4-4.4,2.4-6.3,4c-0.9,0.8-2.3,1.6-1.9,3.1c0.5,1.4,2.1,1.4,3.3,1.5c4.8,0.4,9.5-0.1,14.2-0.8   c2.8-0.4,5.5-0.9,8.3-1.2c-5.1,1.7-10.3,3.2-15.3,4.9C602.7,243.2,597.6,245.3,592.6,247.4"/>
	<path class="st10" d="M567.4,211.9c-1.9,1.1-4.3,1.1-6.2,2.5c-0.6,0.5-1.5,0.7-2,1.2c-1.5,1.5-2.3,1-3.1-0.6   c-0.7-1.4-2.1-2.3-3-3.6c2.5-4.9,4.1-10.1,4.4-15.7c0.4,1.6,0.8,3.3,1.3,4.9c0.2,0.8,0.5,1.8,1.5,1.9c1.1,0.1,1.5-1,1.8-1.8   c2.1-4.8,3.1-10,4.3-15c0.2-0.6,0.3-1.3,0.6-1.9C566.5,193.2,566.1,202.6,567.4,211.9"/>
	<path class="st10" d="M520.3,270.7c2.1,0.5,4.2,0.4,6.3,0.4c0.5,0,1.3-0.1,1,0.8c-0.7,2.2-1.1,4.6-1.4,6.9c0,0.2-0.4,0.4-0.6,0.6   c-6.8,1.1-13.3,3.2-19.8,5.2C510.9,280.3,515.9,275.9,520.3,270.7"/>
	<path class="st10" d="M559.6,288.7c1.1-1.8,2.7-3.4,3.5-5.4c0.3-0.6,0.7-0.9,1.2-0.3c1.1,1.3,2.7,1.9,4.1,2.8   c0.4,6.6,1.5,13.1,2.7,19.6C567.9,299.4,564,293.9,559.6,288.7"/>
	<path class="st10" d="M500.7,211.9c-0.5,0.1-0.4,0.5-0.4,0.9c-1.6-1.4-3.3-2.8-4.9-4.2c0.1-0.1,0.2-0.2,0.2-0.3   C497.4,209.4,499.1,210.6,500.7,211.9"/>
	<path class="st11" d="M515.5,241.9c3-4.3,7.4-6.4,12.2-8.1c1.7-0.6,2.3-1.3,1.7-3.1c-0.9-2.9-1-5.9-0.3-9c0.5-0.4,1.1-0.2,1.5,0   c3.3,1.6,6.3,0.3,9.2-1.2c1.6-0.8,3.2-2,4.3-3.6c1.5-2.2,1.4-3.5-0.7-5.2c-0.3-0.2-0.6-0.5-0.5-0.9c5.5,0.1,10.2,1.7,13.2,6.8   c0.6,1.1,1,0.6,1.7,0.1c2.8-2.1,6-3.4,9.6-3.3c0.5,0,1.1-0.1,1.5,0.4c0.2,0.9-0.5,1.3-1,1.8c-1.4,1.3-1.5,2.9-1,4.5   c1.1,3.2,4.1,5.5,7.5,5.7c1.1,0.1,2.1,0.3,2.9,1.3c1.5,1.9,2.4,2.1,4.8,1.2c0.6-0.2,1.1-0.6,1.7-0.3c0.9,4.2,0.7,8.3-2.1,11.7   c-1,1.3-1.3,1.7,0.3,2.8c4.7,3.2,7.5,7.8,8,13.5c0.3,3.8-0.6,7.6-2.5,11.1c-3.1,5.7-7.5,10.1-13.7,12.5c-2.9,1.2-5.8,1.3-8.8,0.8   c-1.7-0.3-2.5,0-3.4,1.4c-5.6,8.2-18.3,11.3-27,5.1c-3.5-2.6-5.6-6-5.6-10.5c0-2.3-0.1-4.6,0.7-6.9c0.5-1.5-0.1-1.8-1.5-1.7   c-4.5,0.2-8.3-1.3-11.7-4.2c-0.3-0.2-0.5-0.6-0.7-0.8c0.2-0.5,0.7-0.7,1.2-0.8c2.6-0.6,3.9-2.5,4.7-4.8c1.3-3.7,1.4-7.3,0-11   c-1-2.5-2.3-4.4-5.2-4.7C516.1,242.5,515.7,242.3,515.5,241.9"/>
	<path class="st12" d="M515.5,241.9c3.6,0,5.5,1.4,6.8,4.8c1.7,4.2,1.5,8.3-0.1,12.4c-0.9,2.4-3,5-6.4,4.7   c-5.1-1.9-6.3-8.5-5.7-12.8C510.6,247.3,511.9,243.9,515.5,241.9"/>
	<path class="st12" d="M583.8,229.1c-1.2,1.1-2.5,1.6-4.1,1.5c-1.1,0-2-0.4-2.4-1.3c-0.7-1.5-1.9-1.7-3.4-1.7   c-3.9-0.1-8.3-4.6-8-8.4c0.2-2.1,1.6-3.1,3-4.3c2.5-0.6,4.9-0.2,7.2,1c2,1.1,3.4,2.7,4.1,4.9c0.2,0.7,0.4,1.4,1.2,1.7   c3.1,1.2,3.8,2.6,2.7,5.8C583.9,228.5,583.9,228.8,583.8,229.1"/>
	<path class="st13" d="M542.9,210.8c4.6,1.4,3.2,5.5,0.6,7.9c-2.5,2.4-5.5,3.9-9,4.4c-2.1,0.3-3.8-0.5-5.5-1.4   c-0.8-2.4,0.2-4.3,1.8-5.9C534.1,212.4,538.1,210.6,542.9,210.8"/>
	<path class="st14" d="M565.6,248.8c-1.8-3.3-2.9-6.6-5-9.3c-1.4-1.8-2.8-3.5-5-4.5c-2.6-1.2-5.2-0.2-6.1,2.6   c-0.8,2.4-1.3,4.9-1.1,7.5c0.1,1.6-0.5,1.8-1.8,1.3c-1.2-0.5-2.4-0.9-3.7-1c-5.9-0.6-8.3,3.7-7.6,8.6c0.3,2.3,1.3,4.5,2.2,7.2   c-2.5-1.6-4.3-3.1-5.9-4.9c-2.7-3.1-4.9-6.3-4.9-10.8c-0.1-4,3.2-7.2,6.2-8c3.2-0.9,5.1-0.7,10.4,0.7c-0.3-2.2-0.5-4.3-0.4-6.4   c0.2-2.9,1.1-5.5,3-7.8c3.7-4.5,10.5-3.6,14.1-0.4c5,4.5,6.4,10.3,6.3,16.7C566.3,243,566.7,245.8,565.6,248.8"/>
	<path class="st14" d="M545.1,262.5c2.2,2.3,4.2,4.5,6.7,6c4.3,2.6,6.5,1,8.4-2.3c1.1-2,2-4.2,2.5-6.4c0.3-1.2,0.7-1.6,1.7-0.5   c4.1,4.3,5.6,9.9,2.8,14.7c-2.7,4.6-10,6-14.3,2.9C548.3,273.4,546,268.5,545.1,262.5"/>
	<path class="st15" d="M535.1,228.7c-1.8,0-2.9-0.8-2.9-2.1c0-1.1,1.4-2.2,2.7-2.3c1.3,0,2.8,1.1,2.8,2.1   C537.7,227.6,536.4,228.7,535.1,228.7"/>
</g>
<g id="explotion3">
	<path class="st7" d="M533.4,73.3c-1-7.8-7.1-14.2-15.2-15.1c-9.2-1.1-17.5,5.2-19.1,14.3c-6.3,2-11.2,7.6-12,14.6   c-0.9,7.8,3.5,15,10.4,18l-5.1,14.5l4.4,0.5l1.1,7.5l23.6-21.6c1.3,0.5,2.6,0.8,4,1c9.5,1.1,18.2-5.7,19.3-15.3   C545.6,83.4,540.7,76,533.4,73.3"/>
	<path class="st8" d="M525.3,106.9c9.5,1.1,18.2-5.7,19.3-15.3c0.9-8.1-3.9-15.6-11.3-18.3c-1-7.8-7.1-14.2-15.2-15.1   c-1.8-0.2-3.6-0.1-5.3,0.2c-2.8,5.2-4.7,11.1-5.5,17.4c-1.5,12.9,2.2,25.1,9.4,34.3l4.6-4.2C522.6,106.3,523.9,106.7,525.3,106.9"/>
</g>
<g id="crown">
	<path class="st16" d="M433.1,419.7c-2.1,0-4-1.3-4.8-3.3l-29.7-79.6c-1-2.7,0.4-5.6,3-6.6c2.7-1,5.6,0.4,6.6,3l29.7,79.6   c1,2.7-0.4,5.6-3,6.6C434.3,419.6,433.7,419.7,433.1,419.7z"/>
	<polygon class="st17" points="400.8,337.8 348.2,357.3 374.5,374.7 350,399.3 385.1,400.4 378.5,431.6 429.1,412.1  "/>
	<polygon class="st18" points="400.8,337.8 348.2,357.3 374.5,374.7 351.2,398.1 415.9,377.3  "/>
	<polygon class="st19" points="384,387.1 391.2,377 402.6,380.8 395.6,391.3  "/>
	<polygon class="st19" points="378.4,362.3 384.2,354.3 393.3,357.3 387.7,365.6  "/>
	<polygon class="st19" points="396.2,409.9 401.9,401.9 411,404.9 405.4,413.3  "/>
	<path class="st20" d="M351.4,356.6c0,2.8-2.3,5-5,5c-2.8,0-5-2.3-5-5c0-2.8,2.3-5,5-5C349.1,351.6,351.4,353.8,351.4,356.6"/>
	<path class="st20" d="M350.5,401.9c0,2.8-2.3,5-5,5c-2.8,0-5-2.3-5-5c0-2.8,2.3-5,5-5C348.3,396.8,350.5,399.1,350.5,401.9"/>
	<path class="st20" d="M381,436.6c0,2.8-2.3,5-5,5c-2.8,0-5-2.3-5-5c0-2.8,2.3-5,5-5C378.7,431.6,381,433.8,381,436.6"/>
</g>
<g id="explotion1">
	<path class="st9" d="M334.3,241.1c0-1-0.9-1.6-1.3-2.3c-2.8-4.1-2.1-7.7,1.9-10.5c1.4-1,2.9-1.8,4.6-2.3c3.5-1.1,6.3,0.1,8.1,3.2   c0.4,0.7,0.5,1.5,1.2,2c1,1.4,2.5,0.2,3.7,0.7c1.2,0.3,2.4-0.3,3.6-0.3c5.4,0,8.4,3.6,7.9,9.3c-0.3,3.6-1.9,6.5-4.3,9.1   c-0.8,1.2-0.5,2.6-0.7,4c0.1,1.3,0.7,2.4,0.7,3.7c0,3-1.7,4.9-4.8,5.1c-2.2,0.1-4.2-0.5-6.1-1.7c-1.2-0.8-2.1-0.6-3.3,0   c-3.4,1.7-6.9,2.7-10.7,1.4c-5.4-1.9-7.7-7.6-5.4-12.7c0.8-1.8,2.4-3.2,3.2-5c0.1-0.7,0.7-1.1,1.2-1.6   C334.4,242.6,334.6,241.9,334.3,241.1"/>
	<path class="st10" d="M334.3,241.1c1.4,0.4,1.8,1,0.5,2c-0.7,0.6-1.2,1.6-2.2,1.7c-2.1-1.2-4.3-2-7-3.2   C328.9,241.6,331.6,241.5,334.3,241.1"/>
	<path class="st10" d="M352.3,231.9c-0.5,0.6-1.3,0.5-2,0.7c-1.4,0.5-2.1,0.1-1.7-1.5c1.6-1.7,2.8-3.6,4.2-5.8   C352.6,227.8,352.5,229.9,352.3,231.9"/>
	<path class="st10" d="M358.9,254c-1.3-2.5-1.3-2.5,0.7-4c1.2,1.6,2.8,3,4.5,4.6C362.2,254.4,360.6,254.2,358.9,254"/>
	<path class="st11" d="M361.1,241.5c0.3,3.1-1.3,5.5-3.4,7.5c-1,1-1.5,1.9-1.1,3.5c0.9,4.1-2.6,7.4-6.7,6.3   c-1.9-0.5-3.5-0.6-5.3,0.3c-2.5,1.3-5.4,1.7-8.1,0.7c-6.1-2.3-7.2-8.5-3-13.7c0,0,0.1-0.1,0.1-0.1c1.1-1.1,2.6-2.1,3.2-3.4   c0.6-1.5-1.6-2.5-1.7-4.1c0.1-0.2,0.2-0.4,0.4-0.6c1.4-1.5,1.4-2-0.4-2.8c-0.3-0.1-0.5-0.3-0.7-0.6c0.2-1.1,0.6-2.1,1.4-2.9   c1.4,0.8,2.7,1.8,4.5,1.5c1.7-0.3,3.3-0.9,4.2-2.4c0.2-0.4,0.4-0.7,0.9-0.9c0.8,1.2,1.7,2.3,2.4,3.6c0.6,1.1,1.2,1.1,2.3,0.9   c1.8-0.4,3.6-1.4,5.5-0.4c0.4,0.7,0.1,1.3-0.1,1.9c-0.7,2.6,0.8,4.7,3.4,5C359.7,240.8,360.5,240.7,361.1,241.5"/>
	<path class="st13" d="M361.1,241.5c-1.3-0.1-2.6,0.3-3.9-0.4c-2.2-1.3-3.9-3.8-1.5-7.2c2.4-0.8,4.4-0.3,6,1.7   C363,237.3,362.9,238.9,361.1,241.5"/>
	<path class="st14" d="M345.4,229.8c0.1,1.5-0.9,2.4-1.9,3.1c-1.8,1.1-3.8,1.2-5.8,0.8c-1-0.2-1.7-1-1.8-2c0.7-3.8,6.3-5,8.7-3.3   C345.1,228.7,345.4,229.2,345.4,229.8"/>
	<path class="st11" d="M334.4,234.6c1.1,0,2.4-0.3,2.8,1.2c0.4,1.4-0.3,2.4-2.1,2.8C332.9,237.4,332.6,236.2,334.4,234.6"/>
	<path class="st14" d="M343,253.1c-2.5-0.6-3.2-2.8-3.9-4.9c-0.6-1.8,0.1-3.5,1.7-4.4c0.4-0.2,0.9-0.5,1.3-0.5   c2.2-0.3,4.2-0.5,5.2-3c0.3-0.8,1.6-0.8,2.5-0.5c1.6,0.5,3.3,3.2,3.2,5.2c-0.1,1.6-1.3,3.1-3.2,3.4c-1.1,0.2-1.8,0.7-2.4,1.6   C345.8,252.1,344.3,253.1,343,253.1"/>
</g>
<g id="char2">
	<path class="st21" d="M189.6,228.6c-4,0-7.8-2.5-9.1-6.6c-3.8-11.3-5.6-23.1-5.4-35c0.2-10.6,2-21,5.4-31c1.7-5,7.1-7.7,12.1-6.1   c5,1.7,7.7,7.1,6.1,12.1c-2.7,8.2-4.2,16.7-4.4,25.3c-0.2,9.7,1.3,19.3,4.4,28.5c1.7,5-1,10.5-6.1,12.1   C191.6,228.4,190.6,228.6,189.6,228.6z"/>
	<path class="st21" d="M147.7,222.6c-1.5,0-3-0.4-4.4-1.1c-0.2-0.1-0.3-0.1-0.5-0.2c-2.9-1.1-8.9-3.4-14.4-8.1   c-7.5-6.3-11.3-14.7-11-24.3c0.5-19,12.8-30.6,16.6-33.7c4.1-3.4,10.1-2.8,13.5,1.3c3.4,4.1,2.8,10.1-1.3,13.5   c-1.6,1.3-9.3,8.3-9.6,19.5c-0.2,6.2,3.8,10.3,13.2,13.9c1.4,0.6,2.6,1,3.8,1.9c4.2,3.2,5.1,9.2,2,13.4   C153.5,221.3,150.7,222.6,147.7,222.6z M142,220.7C142,220.7,142,220.7,142,220.7C142,220.7,142,220.7,142,220.7z M142,220.7   C142,220.7,142,220.7,142,220.7C142,220.7,142,220.7,142,220.7z"/>
	<path class="st21" d="M253.1,157.5c-1.7,0-3.4-0.4-4.9-1.4c-4.5-2.7-6-8.6-3.3-13.2c4.3-7.2,3.9-16.5-1.2-23.1   c-5.3-6.9-14.5-9.7-22.9-6.9c-5,1.7-10.5-1.1-12.1-6.1c-1.7-5,1.1-10.5,6.1-12.1c16.2-5.4,33.9,0.1,44.2,13.5   c4.8,6.3,7.6,13.9,8,21.9c0.4,8-1.5,15.9-5.7,22.7C259.5,155.9,256.4,157.5,253.1,157.5z"/>
	<path id="arm1" class="st21" d="M88.6,114.3c-7.1,0-14.1-1.9-20.4-5.7c-6.8-4.1-12.2-10.2-15.5-17.4c-3.3-7.3-4.4-15.3-3.1-23.2   c0.9-5.2,5.8-8.8,11-7.9c5.2,0.9,8.8,5.8,7.9,11c-1.4,8.3,2.5,16.8,9.6,21.1c7.5,4.5,17.1,3.7,23.9-1.9c4.1-3.4,10.1-2.8,13.5,1.2   c3.4,4.1,2.8,10.1-1.2,13.5C106.9,111.1,97.7,114.3,88.6,114.3z"/>
	<path class="st21" d="M102.8,101.7c0-41.2,27.2-74.9,61.7-77.5c-1.4-0.1-2.9-0.2-4.4-0.2c-36.5,0-66,34.8-66,77.7   s29.6,77.7,66,77.7c1.5,0,2.9-0.1,4.4-0.2C130.1,176.6,102.8,142.9,102.8,101.7"/>
	<path class="st22" d="M168.9,24c-1.5,0-2.9,0.1-4.4,0.2c-34.4,2.6-61.7,36.3-61.7,77.5c0,41.2,27.2,74.9,61.7,77.5   c1.4,0.1,2.9,0.2,4.4,0.2c36.5,0,66-34.8,66-77.7C234.9,58.8,205.3,24,168.9,24"/>
	<g id="moving">
		<path class="st23" d="M160.4,133.1c-4.5,0-8.6-2.3-11.1-6.3c-0.9-1.5-0.5-3.5,1.1-4.4c1.5-0.9,3.5-0.5,4.4,1.1    c1.3,2.2,3.7,3.4,6.1,3.2c3.3-0.2,5-3.1,5.1-3.2c0.9-1.5,2.9-2,4.4-1.1c1.5,0.9,2,2.9,1.1,4.4c-0.6,1-3.8,5.8-10.1,6.3    C161,133,160.7,133.1,160.4,133.1z"/>
		<path class="st5" d="M142.7,99.5c-0.2,4-0.3,6.5-2.2,8.5c-3.1,3.3-8.8,3.2-14.3,3.1c-5.3-0.1-10.6-0.2-13.8-3.5    c-1.9-2-2.2-4.1-2.7-8.1c-0.6-4.7-1.1-7.6,0.9-9.6c2.3-2.3,6.7-2.3,15.6-2c8.3,0.2,12.6,0.4,14.9,2.8    C143,92.6,142.9,95.3,142.7,99.5"/>
		<path class="st6" d="M129.2,115.2c-1,0-2,0-3,0c-5.8-0.1-12.3-0.2-16.6-4.7c-2.9-2.9-3.3-6.1-3.8-10.5l-0.1-0.4    c-0.6-4.9-1.2-9.2,2.1-12.6c3.6-3.7,8.9-3.5,18.6-3.3c8.8,0.2,14.2,0.4,17.7,4c3.1,3.2,2.9,7,2.8,11.5l0,0.4l-4.1-0.2l4.1,0.2    c-0.2,4.5-0.3,8-3.3,11.2C139.9,114.7,134.5,115.2,129.2,115.2z M120.2,91.9c-3.3,0-5.9,0.2-6.6,0.9c-0.5,0.5-0.2,3.2,0.2,5.8    l0.1,0.4c0.5,3.9,0.7,4.9,1.6,5.8c2,2,6.3,2.1,10.9,2.2c4.4,0.1,9.4,0.2,11.2-1.8c0.8-0.8,0.9-2.1,1.1-5.9l4.1,0.2l-4.1-0.2l0-0.4    c0.1-3.1,0.2-4.8-0.5-5.4c-1.2-1.2-6-1.4-12-1.5C124.1,91.9,122,91.9,120.2,91.9z"/>
		<path class="st5" d="M211,99.5c-0.2,4-0.3,6.5-2.2,8.5c-3.1,3.3-8.8,3.2-14.3,3.1c-5.3-0.1-10.6-0.2-13.8-3.5    c-1.9-2-2.2-4.1-2.7-8.1c-0.6-4.7-1.1-7.6,0.9-9.6c2.3-2.3,6.7-2.3,15.6-2c8.3,0.2,12.6,0.4,14.9,2.8    C211.3,92.6,211.2,95.3,211,99.5"/>
		<path class="st6" d="M197.5,115.2c-1,0-2,0-3,0c-5.8-0.1-12.3-0.2-16.6-4.7c-2.9-2.9-3.3-6.1-3.8-10.5l-0.1-0.4    c-0.6-4.9-1.2-9.2,2.1-12.6c3.6-3.7,8.9-3.5,18.6-3.3c8.8,0.2,14.2,0.4,17.7,4c3.1,3.2,2.9,7,2.8,11.5l0,0.4l-4.1-0.2l4.1,0.2    l-4.1-0.2l4.1,0.2c-0.2,4.5-0.3,8-3.3,11.2C208.2,114.7,202.7,115.2,197.5,115.2z M188.5,91.9c-3.3,0-5.9,0.2-6.6,0.9    c-0.5,0.5-0.2,3.2,0.2,5.8l0.1,0.4c0.5,3.9,0.7,4.9,1.6,5.8c2,2,6.3,2.1,10.9,2.2c4.4,0.1,9.4,0.2,11.2-1.8    c0.8-0.8,0.9-2.1,1.1-5.9l0,0l0-0.4c0.1-3.1,0.2-4.8-0.5-5.4c-1.2-1.2-6-1.4-12-1.5C192.3,91.9,190.3,91.9,188.5,91.9z"/>
		<path class="st6" d="M136.7,92.8l-1.2-6.3c7.7-1.5,15.6-2.2,23.4-2.2c7.6,0,15.2,0.8,22.6,2.2l-1.2,6.3c-7-1.4-14.2-2.1-21.4-2.1    C151.4,90.7,143.9,91.4,136.7,92.8z"/>
	</g>
</g>
<g id="char1">
	<path id="leg1" class="st21" d="M460.7,272.9c-0.7,0-1.4-0.1-2.1-0.2c-5.2-1.2-8.4-6.3-7.2-11.5c2.2-9.5,2.7-19.2,1.6-28.8   c-1-8.5-3.3-16.9-6.8-24.7c-2.2-4.8,0-10.5,4.8-12.7c4.8-2.2,10.5,0,12.7,4.8c4.3,9.7,7.1,19.9,8.4,30.3   c1.4,11.8,0.7,23.7-1.9,35.4C469.1,269.9,465.1,272.9,460.7,272.9z"/>
	<path class="st21" d="M411.8,272.9c-4.4,0-8.3-3-9.3-7.5c-2.7-11.6-3.3-23.5-1.9-35.4c1.2-10.5,4.1-20.7,8.4-30.3   c2.2-4.8,7.8-7,12.7-4.8c4.8,2.2,7,7.8,4.8,12.7c-3.5,7.9-5.8,16.2-6.8,24.7c-1.1,9.6-0.6,19.3,1.6,28.8c1.2,5.2-2,10.3-7.2,11.5   C413.2,272.9,412.5,272.9,411.8,272.9z"/>
	<path class="st21" d="M526.2,193.1c-1.7,0-3.4-0.4-4.9-1.4c-4.5-2.7-6-8.6-3.3-13.2c4.3-7.2,3.9-16.5-1.2-23.1   c-5.3-6.9-14.5-9.7-22.9-6.9c-5,1.7-10.5-1.1-12.1-6.1c-1.7-5,1.1-10.5,6.1-12.1c16.2-5.4,33.9,0.1,44.2,13.5   c4.8,6.3,7.6,13.9,8,21.9c0.4,8-1.5,15.9-5.7,22.7C532.7,191.4,529.5,193.1,526.2,193.1z"/>
	<path class="st21" d="M340.9,193.1c-3.3,0-6.4-1.7-8.2-4.7c-4.1-6.9-6.1-14.7-5.7-22.7c0.4-8,3.2-15.6,8-21.9   c10.3-13.4,28-18.9,44.2-13.5c5,1.7,7.8,7.1,6.1,12.1c-1.7,5-7.1,7.8-12.1,6.1c-8.4-2.8-17.6,0-22.9,6.9c-5,6.6-5.5,15.9-1.2,23.1   c2.7,4.5,1.3,10.4-3.3,13.2C344.3,192.6,342.6,193.1,340.9,193.1z"/>
	<path class="st21" d="M376,143.1c0-41.2,27.2-74.9,61.7-77.5c-1.4-0.1-2.9-0.2-4.4-0.2c-36.5,0-66,34.8-66,77.7s29.6,77.7,66,77.7   c1.5,0,2.9-0.1,4.4-0.2C403.2,218,376,184.3,376,143.1"/>
	<path class="st22" d="M442,65.4c-1.5,0-2.9,0.1-4.4,0.2c-34.4,2.6-61.7,36.3-61.7,77.5c0,41.2,27.2,74.9,61.7,77.5   c1.4,0.1,2.9,0.2,4.4,0.2c36.5,0,66-34.8,66-77.7C508,100.2,478.5,65.4,442,65.4"/>
	<path class="st23" d="M429.3,174.4c-0.6,0-1.1-0.1-1.7-0.5c-1.5-0.9-2-2.9-1.1-4.4c0.6-1,3.8-5.8,10.1-6.3c4.8-0.4,9.4,2,12,6.3   c0.9,1.5,0.5,3.5-1.1,4.4c-1.5,0.9-3.5,0.5-4.4-1.1c-1.3-2.2-3.7-3.4-6.1-3.2c-3.3,0.2-5,3.1-5.1,3.2   C431.5,173.9,430.4,174.4,429.3,174.4z"/>
	<path class="st5" d="M420.2,105.5c-0.2,4-0.3,6.5-2.2,8.5c-3.1,3.3-8.8,3.2-14.3,3.1c-5.3-0.1-10.6-0.2-13.8-3.5   c-1.9-2-2.2-4.1-2.7-8.1c-0.6-4.7-1.1-7.6,0.9-9.6c2.3-2.3,6.7-2.3,15.6-2c8.3,0.2,12.6,0.4,14.9,2.8   C420.5,98.7,420.4,101.3,420.2,105.5"/>
	<path class="st6" d="M406.7,121.2c-1,0-2,0-3,0c-5.8-0.1-12.3-0.2-16.6-4.7c-2.9-2.9-3.3-6.1-3.8-10.5l-0.1-0.4   c-0.6-4.9-1.2-9.2,2.1-12.6c3.6-3.7,8.9-3.5,18.6-3.3c8.8,0.2,14.2,0.4,17.7,4c3.1,3.2,2.9,7,2.8,11.5l0,0.4l-4.1-0.2l4.1,0.2   l-4.1-0.2l4.1,0.2c-0.2,4.5-0.3,8-3.3,11.2C417.4,120.7,411.9,121.2,406.7,121.2z M397.7,97.9c-3.3,0-5.9,0.2-6.6,0.9   c-0.5,0.5-0.2,3.2,0.2,5.8l0.1,0.4c0.5,3.9,0.7,4.9,1.6,5.8c2,2,6.3,2.1,10.9,2.2c4.4,0.1,9.4,0.2,11.2-1.8   c0.8-0.8,0.9-2.1,1.1-5.9l0-0.4c0.1-3.1,0.2-4.8-0.5-5.4c-1.2-1.2-6-1.4-12-1.5C401.5,97.9,399.5,97.9,397.7,97.9z"/>
	<path class="st5" d="M488.5,105.5c-0.2,4-0.3,6.5-2.2,8.5c-3.1,3.3-8.8,3.2-14.3,3.1c-5.3-0.1-10.6-0.2-13.8-3.5   c-1.9-2-2.2-4.1-2.7-8.1c-0.6-4.7-1.1-7.6,0.9-9.6c2.3-2.3,6.7-2.3,15.6-2c8.3,0.2,12.6,0.4,14.9,2.8   C488.8,98.7,488.6,101.3,488.5,105.5"/>
	<path class="st6" d="M475,121.2c-1,0-2,0-3,0c-5.8-0.1-12.3-0.2-16.6-4.7c-2.9-2.9-3.3-6.1-3.8-10.5l-0.1-0.4   c-0.6-4.9-1.2-9.2,2.1-12.6c3.6-3.7,8.9-3.5,18.6-3.3c8.8,0.2,14.2,0.4,17.7,4c3.1,3.2,2.9,7,2.8,11.5l0,0.4l-4.1-0.2l4.1,0.2   l-4.1-0.2l4.1,0.2c-0.2,4.5-0.3,8-3.3,11.2C485.7,120.7,480.2,121.2,475,121.2z M466,97.9c-3.3,0-5.9,0.2-6.6,0.9   c-0.5,0.5-0.2,3.2,0.2,5.8l0.1,0.4c0.5,3.9,0.7,4.9,1.6,5.8c2,2,6.3,2.1,10.9,2.2c4.4,0.1,9.4,0.2,11.2-1.8   c0.8-0.8,0.9-2.1,1.1-5.9l0-0.4c0.1-3.1,0.2-4.8-0.5-5.4c-1.2-1.2-6-1.4-12-1.5C469.8,97.9,467.8,97.9,466,97.9z"/>
	<path class="st6" d="M414.2,98.8l-1.2-6.3c7.7-1.5,15.5-2.2,23.4-2.2c7.6,0,15.2,0.8,22.6,2.2l-1.2,6.3c-7-1.4-14.2-2.1-21.4-2.1   C428.9,96.7,421.4,97.4,414.2,98.8z"/>
	<path class="st24" d="M485.6,162.3c0,5.5-5.3,9.9-11.8,9.9c-6.5,0-11.8-4.4-11.8-9.9c0-5.5,5.3-9.9,11.8-9.9   C480.3,152.4,485.6,156.8,485.6,162.3"/>
	<path class="st24" d="M414.9,162.3c0,5.5-5.3,9.9-11.8,9.9c-6.5,0-11.8-4.4-11.8-9.9c0-5.5,5.3-9.9,11.8-9.9   C409.7,152.4,414.9,156.8,414.9,162.3"/>
	<path class="st23" d="M463.9,144.4c-1,0-1.9-0.7-2.2-1.7c-0.3-1.2,0.4-2.5,1.6-2.8l15.7-4.3c1.2-0.3,2.5,0.4,2.8,1.6   c0.3,1.2-0.4,2.5-1.6,2.8l-15.7,4.3C464.3,144.4,464.1,144.4,463.9,144.4z"/>
	<path class="st23" d="M472,152.7c-1.7,0-3.1-1.3-3.2-3.1l-0.4-8.5c-0.1-1.8,1.3-3.3,3.1-3.3c1.8-0.1,3.3,1.3,3.3,3.1l0.4,8.5   c0.1,1.8-1.3,3.3-3.1,3.3C472.1,152.7,472,152.7,472,152.7z"/>
	<path class="st23" d="M411.2,144.4c-0.2,0-0.4,0-0.6-0.1l-15.7-4.3c-1.2-0.3-1.9-1.6-1.6-2.8c0.3-1.2,1.6-1.9,2.8-1.6l15.7,4.3   c1.2,0.3,1.9,1.6,1.6,2.8C413.1,143.8,412.2,144.4,411.2,144.4z"/>
	<path class="st23" d="M403.1,152.7c0,0-0.1,0-0.1,0c-1.8-0.1-3.1-1.6-3.1-3.3l0.4-8.5c0.1-1.8,1.6-3.1,3.3-3.1   c1.8,0.1,3.1,1.6,3.1,3.3l-0.4,8.5C406.2,151.3,404.8,152.7,403.1,152.7z"/>
</g>
<g id="char3">
	<path id="arm2" class="st21" d="M220.6,363.8c-4.7,0-8.9-3.5-9.5-8.3c-0.7-5.3,3-10.1,8.3-10.8c8.4-1.1,15.3-7.2,17.4-15.3   c2.1-8.5-1.4-17.4-8.8-22.3c-4.4-2.9-5.7-8.8-2.8-13.3c2.9-4.4,8.8-5.7,13.3-2.8c14.3,9.3,21,26.6,16.9,43   c-2,7.7-6.2,14.6-12.2,19.9c-6,5.3-13.4,8.7-21.3,9.7C221.5,363.8,221.1,363.8,220.6,363.8z"/>
	<path class="st25" d="M207.3,419.3H132c-2.1,0-3.8-1.7-3.8-3.8v-6.7c0-2.1,1.7-3.8,3.8-3.8h75.3c2.1,0,3.8,1.7,3.8,3.8v6.7   C211.1,417.7,209.4,419.3,207.3,419.3"/>
	<path class="st26" d="M211.1,385c0,4-3.3,7.3-7.3,7.3c-4,0-7.3-3.3-7.3-7.3c0-4,3.3-7.3,7.3-7.3C207.8,377.7,211.1,381,211.1,385"/>
	<path class="st27" d="M239.6,419.3h-75.3c-2.1,0-3.8-1.7-3.8-3.8v-6.7c0-2.1,1.7-3.8,3.8-3.8h75.3c2.1,0,3.8,1.7,3.8,3.8v6.7   C243.4,417.7,241.7,419.3,239.6,419.3"/>
	<path class="st28" d="M186,447h-85.1c-5.8,0-10.5-4.7-10.5-10.5v-6.7c0-5.8,4.7-10.5,10.5-10.5H186c5.8,0,10.5,4.7,10.5,10.5v6.7   C196.5,442.3,191.8,447,186,447"/>
	<path class="st29" d="M268.5,447h-87.1c-5.2,0-9.4-4.2-9.4-9.4v-8.7c0-5.2,4.2-9.4,9.4-9.4h87.1c5.2,0,9.4,4.2,9.4,9.4v8.7   C277.9,442.7,273.7,447,268.5,447"/>
	<g id="moving2">
		<path class="st21" d="M101.9,422.7c-0.8,0-1.6-0.1-2.4-0.3c-7.8-2-14.7-6.2-20-12.2c-5.3-6-8.7-13.4-9.6-21.3    c-2.1-16.8,6.7-33.1,22-40.6c4.8-2.3,10.5-0.4,12.8,4.4c2.3,4.8,0.4,10.5-4.4,12.8c-7.9,3.9-12.6,12.4-11.5,21    c1,8.2,7.2,15.2,15.4,17.3c5.1,1.3,8.2,6.6,6.9,11.7C110,419.9,106.1,422.7,101.9,422.7z"/>
		<path class="st21" d="M93.8,337.5c0-41.2,27.2-74.9,61.7-77.5c-1.4-0.1-2.9-0.2-4.4-0.2c-36.5,0-66,34.8-66,77.7    s29.6,77.7,66,77.7c1.5,0,2.9-0.1,4.4-0.2C121.1,412.4,93.8,378.7,93.8,337.5"/>
		<path class="st22" d="M159.9,259.8c-1.5,0-2.9,0.1-4.4,0.2c-34.4,2.6-61.7,36.3-61.7,77.5c0,41.2,27.2,74.9,61.7,77.5    c1.4,0.1,2.9,0.2,4.4,0.2c36.5,0,66-34.8,66-77.7C225.9,294.6,196.4,259.8,159.9,259.8"/>
		<path class="st30" d="M175.5,361.2c0,3.9-4.5,7-10,7c-5.5,0-10-3.2-10-7c0-3.9,4.5-7,10-7C171,354.2,175.5,357.3,175.5,361.2"/>
		<path class="st24" d="M141.5,357c0,5.5-5.3,9.9-11.8,9.9c-6.5,0-11.8-4.4-11.8-9.9c0-5.5,5.3-9.9,11.8-9.9    C136.2,347.1,141.5,351.6,141.5,357"/>
		<path class="st24" d="M208.3,348.4c0,5.5-5.3,9.9-11.8,9.9c-6.5,0-11.8-4.4-11.8-9.9c0-5.5,5.3-9.9,11.8-9.9    C203,338.5,208.3,342.9,208.3,348.4"/>
		<path class="st26" d="M141.9,332.5c0,8-6.5,14.6-14.6,14.6c-8,0-14.6-6.5-14.6-14.6s6.5-14.6,14.6-14.6    C135.4,318,141.9,324.5,141.9,332.5"/>
		<path class="st26" d="M201.3,326.6c0,8-6.5,14.6-14.6,14.6c-8,0-14.6-6.5-14.6-14.6c0-8,6.5-14.6,14.6-14.6    C194.8,312.1,201.3,318.6,201.3,326.6"/>
		<path class="st31" d="M196.6,335.3c0,2.6-2.1,4.6-4.6,4.6c-2.6,0-4.6-2.1-4.6-4.6c0-2.6,2.1-4.6,4.6-4.6    C194.5,330.7,196.6,332.7,196.6,335.3"/>
		<path class="st31" d="M137.2,341.2c0,2.6-2.1,4.6-4.6,4.6s-4.6-2.1-4.6-4.6c0-2.6,2.1-4.6,4.6-4.6S137.2,338.6,137.2,341.2"/>
	</g>
	<path class="st32" d="M235.5,419.3h-67.1c-4.3,0-7.9-3.5-7.9-7.9v-46c0-4.3,3.5-7.9,7.9-7.9h67.1c4.3,0,7.9,3.5,7.9,7.9v46   C243.4,415.8,239.9,419.3,235.5,419.3"/>
	<path id="dot1" class="st33" d="M201.3,296.7v-33.3C201.3,263.5,178.4,290.7,201.3,296.7"/>
	<path id="dot2" class="st33" d="M201.3,263.5v33.3C224.2,290.7,201.3,263.5,201.3,263.5"/>
</g>
<g id="char4">
	<path class="st21" d="M636.1,459c-1.8,0-3.6-0.5-5.2-1.5c-12.3-7.9-8.9-30.5-6.8-39.9c2-9.2,8.2-30.8,22.7-32.9   c5.2-0.7,10.1,2.9,10.8,8.2c0.7,5-2.5,9.6-7.3,10.7c-1.6,1.4-5.2,7.4-7.6,18.4c-2.2,10.4-1.6,17.8-0.7,20c3.8,3,4.8,8.5,2.1,12.7   C642.4,457.4,639.3,459,636.1,459z M641.3,441.3C641.3,441.3,641.3,441.3,641.3,441.3C641.3,441.3,641.3,441.3,641.3,441.3z    M649.5,403.7C649.5,403.7,649.5,403.7,649.5,403.7C649.5,403.7,649.5,403.7,649.5,403.7z M650.6,403.3L650.6,403.3z"/>
	<path class="st21" d="M688.9,459c-1.8,0-3.6-0.5-5.2-1.5c-12.3-7.9-8.9-30.5-6.8-39.9c2-9.2,8.2-30.8,22.7-32.9   c5.2-0.7,10.1,2.9,10.8,8.2c0.7,5-2.5,9.6-7.3,10.7c-1.6,1.4-5.2,7.4-7.6,18.4c-2.2,10.4-1.6,17.8-0.7,20c3.8,3,4.8,8.5,2.1,12.7   C695.2,457.4,692.1,459,688.9,459z M694.1,441.3C694.1,441.3,694.1,441.3,694.1,441.3C694.1,441.3,694.1,441.3,694.1,441.3z    M702.3,403.7C702.3,403.7,702.3,403.7,702.3,403.7C702.3,403.7,702.3,403.7,702.3,403.7z"/>
	<path class="st21" d="M591.2,381.2c-4.4,0-8.8-0.7-13.1-2.1c-8.8-3-16.5-8.9-21.6-16.8c-2.9-4.4-1.6-10.4,2.8-13.3   c4.4-2.9,10.4-1.6,13.3,2.8c5.6,8.7,16.5,12.4,25.9,8.9c8.7-3.2,14.4-12.1,14-21.7c-0.3-5.3,3.8-9.8,9.1-10c5.3-0.2,9.8,3.8,10,9.1   c0.4,8.8-1.9,17.3-6.7,24.7c-4.8,7.4-11.6,12.9-19.8,15.9C600.7,380.4,596,381.2,591.2,381.2z"/>
	<path class="st21" d="M609.5,332.9c0-41.2,27.2-74.9,61.7-77.5c-1.4-0.1-2.9-0.2-4.4-0.2c-36.5,0-66,34.8-66,77.7   c0,42.9,29.6,77.7,66,77.7c1.5,0,2.9-0.1,4.4-0.2C636.8,407.8,609.5,374.1,609.5,332.9"/>
	<path class="st22" d="M675.6,255.2c-1.5,0-2.9,0.1-4.4,0.2c-34.4,2.6-61.7,36.3-61.7,77.5c0,41.2,27.2,74.9,61.7,77.5   c1.4,0.1,2.9,0.2,4.4,0.2c36.5,0,66-34.8,66-77.7C741.6,290,712.1,255.2,675.6,255.2"/>
	<path class="st24" d="M696.3,344.7c0,5.5-5.3,9.9-11.8,9.9c-6.5,0-11.8-4.4-11.8-9.9c0-5.5,5.3-9.9,11.8-9.9   C691,334.8,696.3,339.2,696.3,344.7"/>
	<path class="st24" d="M639.9,344.4c0,5.5-5.3,9.9-11.8,9.9c-6.5,0-11.8-4.4-11.8-9.9c0-5.5,5.3-9.9,11.8-9.9   C634.6,334.4,639.9,338.9,639.9,344.4"/>
	<path class="st30" d="M665.6,346.2c0,3.9-4.5,7-10,7c-5.5,0-10-3.2-10-7c0-3.9,4.5-7,10-7C661.1,339.2,665.6,342.3,665.6,346.2"/>
	<path class="st23" d="M686.3,326.4c0,4.6-1.5,8.4-3.4,8.4c-1.9,0-3.4-3.8-3.4-8.4s1.5-8.4,3.4-8.4   C684.8,318,686.3,321.7,686.3,326.4"/>
	<path class="st23" d="M633.3,326.4c0,4.6-1.5,8.4-3.4,8.4c-1.9,0-3.4-3.8-3.4-8.4s1.5-8.4,3.4-8.4   C631.8,318,633.3,321.7,633.3,326.4"/>
	<g id="news-paper">
		<polygon class="st34" points="643.6,343.9 580.7,334.8 578,412.1 641.9,422.1   "/>
		<polygon class="st35" points="643.6,344.1 707,339.2 704.5,416.4 640.1,422.1   "/>
		<path class="st36" d="M632.5,395.1c-0.1,0-0.2,0-0.3,0l-48.9-7.9c-1-0.2-1.7-1.1-1.5-2.1c0.2-1,1.1-1.7,2.1-1.5l48.9,7.9    c1,0.2,1.7,1.1,1.5,2.1C634.1,394.5,633.4,395.1,632.5,395.1z"/>
		<path class="st36" d="M631.8,402.7c-0.1,0-0.2,0-0.3,0l-48.9-7.9c-1-0.2-1.7-1.1-1.5-2.1c0.2-1,1.1-1.7,2.1-1.5l48.9,7.9    c1,0.2,1.7,1.1,1.5,2.1C633.5,402.1,632.7,402.7,631.8,402.7z"/>
		<path class="st36" d="M631.8,411.5c-0.1,0-0.2,0-0.3,0l-48.9-7.9c-1-0.2-1.7-1.1-1.5-2.1c0.2-1,1.1-1.7,2.1-1.5l48.9,7.9    c1,0.2,1.7,1.1,1.5,2.1C633.5,410.8,632.7,411.5,631.8,411.5z"/>
		<path class="st36" d="M649.4,360.6c-0.9,0-1.7-0.7-1.8-1.7c-0.1-1,0.6-1.9,1.7-2l48.3-4.5c1-0.1,1.9,0.6,2,1.7    c0.1,1-0.6,1.9-1.7,2l-48.3,4.5C649.5,360.6,649.4,360.6,649.4,360.6z"/>
		<path class="st36" d="M649.4,371c-0.9,0-1.7-0.7-1.8-1.7c-0.1-1,0.6-1.9,1.7-2l48.3-4.5c1-0.1,1.9,0.6,2,1.7c0.1,1-0.6,1.9-1.7,2    l-48.3,4.5C649.5,371,649.4,371,649.4,371z"/>
		<path class="st36" d="M649.4,380.5c-0.9,0-1.7-0.7-1.8-1.7c-0.1-1,0.6-1.9,1.7-2l48.3-4.5c1-0.1,1.9,0.6,2,1.7    c0.1,1-0.6,1.9-1.7,2l-48.3,4.5C649.5,380.5,649.4,380.5,649.4,380.5z"/>
		<path class="st36" d="M649.4,388.9c-0.9,0-1.7-0.7-1.8-1.7c-0.1-1,0.6-1.9,1.7-2l48.3-4.5c1-0.1,1.9,0.6,2,1.7    c0.1,1-0.6,1.9-1.7,2l-48.3,4.5C649.5,388.9,649.4,388.9,649.4,388.9z"/>
		<path class="st36" d="M649.4,399.3c-0.9,0-1.7-0.7-1.8-1.7c-0.1-1,0.6-1.9,1.7-2l48.3-4.5c1-0.1,1.9,0.6,2,1.7    c0.1,1-0.6,1.9-1.7,2l-48.3,4.5C649.5,399.3,649.4,399.3,649.4,399.3z"/>
		<path class="st36" d="M649.4,408.8c-0.9,0-1.7-0.7-1.8-1.7c-0.1-1,0.6-1.9,1.7-2l48.3-4.5c1-0.1,1.9,0.6,2,1.7    c0.1,1-0.6,1.9-1.7,2l-48.3,4.5C649.5,408.8,649.4,408.8,649.4,408.8z"/>
		<polygon class="st36" points="587.4,342.8 635.3,350.5 634.3,385.7 586.2,377.7   "/>
	</g>
	<path class="st37" d="M749.6,293c-1.2,9.8-36.1,11.6-76.5,6.8c-40.4-4.8-72.1-16.7-71-26.5c1.2-9.8,34.8-13.9,75.2-9   S750.7,283.2,749.6,293"/>
	<path class="st37" d="M682.9,240c0,0-12-23.1-28.6-2.1c-16.7,20.9-18.8,36.3-18.8,36.3s43.1,19.7,82.9,12.4   C718.4,286.6,717.9,209.7,682.9,240"/>
	<path class="st38" d="M653.6,237.5c-3.7,3.6-10.4,12.7-16.2,26.4c-2.8,6.5-3.2,10.4-3.2,10.4s2.1,8.7,59.9,14   c9.6-6,14.4-17.5,11.7-28.5c-2.6-10.9-11.9-18.9-23.1-20c0,0-0.1-0.1-0.1-0.2c-2.8-5-8.2-10.3-13-11.1   C664.8,227.6,660.1,231.1,653.6,237.5"/>
	<path id="arm3" class="st21" d="M713.6,400.1c-6,0-12.1-1.3-17.6-3.9c-4.8-2.2-6.9-7.9-4.7-12.7c2.2-4.8,7.9-6.9,12.7-4.7   c9.4,4.3,20.6,1.7,26.7-6.2c5.6-7.4,5.8-18,0.3-25.8c-3-4.4-1.9-10.3,2.4-13.4c4.4-3,10.3-1.9,13.4,2.4c5,7.2,7.6,15.7,7.4,24.4   c-0.2,8.8-3,17.1-8.3,24c-5.6,7.3-13.7,12.5-22.8,14.7C720.1,399.7,716.9,400.1,713.6,400.1z"/>
	<path class="st39" d="M637.3,261.7c12.9,2.9,26.8,6.9,39.6,9.8c13.8,0.7,27.8,2.2,41.6,2.8l0.7,11.4c0,0-15.8,5.6-49.9,0   c-34.1-5.6-35.8-11.8-35.8-11.8L637.3,261.7z"/>
</g>
<g id="explotion-big">
	<path class="st9" d="M424,415.8c-4.7,4.7-10.2,8.2-16.9,9.2c-11,1.7-22.5-3.8-25.6-15.1c-0.4-1.4-0.4-2.8-0.7-4.2   c-0.1-0.7,0.1-1.7-1-1.9c-0.2-2.7,0.4-5.3,1.1-7.8c0.4-1.5-0.1-2-1.5-1.9c-1.4,0.1-2.8,0.1-4.2-0.2c-0.9-0.2-1.7-0.4-2.1-1.3   c-8.4-2.6-14.3-7.8-16.8-16.4c-2.3-8-0.5-15.2,4.5-21.8c2.3-3,5.3-5.1,8.1-7.6c0.6-1.5,2.1-1.9,3.2-2.6c2-1.2,4.2-2.1,6.5-2.8   c1.9-0.6,2.6-1.5,2-3.6c-0.7-2.1-1-4.3-0.9-6.5c0-0.9,0-1.9,0.8-2.6c0.7-6.7,3.5-12.2,9.7-15.2c8-4,16-3.3,23.6,1.3   c0.6,0.4,1.2,0.7,1.8,1.1c1.8,0.1,2.6,1.5,3.7,2.6c0.8,0.9,1.1,2.6,2.3,2.8c1.1,0.2,2.1-1.2,3.2-1.8c2.2-1.2,4.4-2.3,6.9-2.9   c0.8-0.2,1.7-0.4,2.5-0.1c2,1,4.1,0.3,6.2,0.7c11.7,2.2,20.5,12.5,20.7,24.4c0,0.3,0,0.6,0,0.9c0.8,0.9,0.5,1.9,0.3,2.9   c-0.6,2.7-1.5,5.3-3.3,7.5c-1.3,1.6-0.9,2.4,0.7,3.2c2.2,1.2,4.3,2.6,6.2,4.2c0.7,0.6,1.5,1.1,1.7,2.2c0.4,1.5,1.7,2.2,2.6,3.3   c6.7,8.4,7.6,18.5,2.3,27.7c-6,10.4-14.9,17-26.9,19.2c-3.1,0.6-6.1-0.3-9.1-0.6c-1.6,0.4-3-0.4-4.1-1.4c-2.1-1.9-2.1-1.2-3.4,0.8   C426.9,413.1,426.2,415.1,424,415.8"/>
	<path class="st10" d="M380.4,328.7c0.2,3.8,0.3,7.7,1.7,11.3c0.2,0.6,0.1,1.2-0.6,1.3c-4.5,1.2-8.5,3.7-12.7,5.5   c-4.3-4.6-9.4-8.1-15.1-11c1,0,2.1,0.1,3.1,0c3-0.3,3.8-1.8,2.6-4.5c-1.2-2.5-3-4.6-4.9-6.6c-2.3-2.4-4.8-4.8-7.2-7.2   c-0.2-0.3-0.5-0.6-0.3-1c0.2-0.4,0.5-0.2,0.8-0.1c5.9,3.7,11.5,7.9,17.9,10.8c0.8,0.4,1.8,0.9,2.7,0.2c1-0.8,0.6-1.9,0.4-2.9   c-0.7-3-2.1-5.7-3.1-8.7C370.2,320.5,374.9,325.1,380.4,328.7"/>
	<path class="st10" d="M466.6,362.4c-3.5-2.2-6.6-5-10.4-6.9c-1-0.5-0.8-1.1-0.1-1.8c3.1-3.1,4.2-7.1,4.9-11.2   c7.6,0.3,15-1.2,22.4-2.7c-2.7,1.8-5.7,3.1-8.1,5.2c-1.2,1.1-3,2-2.4,4c0.6,1.8,2.7,1.8,4.2,2c6.2,0.5,12.3-0.2,18.3-1.1   c3.6-0.5,7.1-1.1,10.7-1.5c-6.6,2.1-13.3,4.1-19.8,6.4C479.7,357,473.1,359.6,466.6,362.4"/>
	<path class="st10" d="M434.1,316.5c-2.5,1.5-5.6,1.5-8,3.2c-0.8,0.6-1.9,0.9-2.6,1.6c-1.9,2-3,1.3-4-0.8c-0.9-1.9-2.7-3-3.9-4.6   c3.2-6.4,5.3-13.1,5.6-20.3c0.6,2.1,1,4.2,1.7,6.3c0.3,1,0.7,2.4,1.9,2.5c1.4,0.2,1.9-1.2,2.4-2.3c2.8-6.2,4-12.9,5.5-19.5   c0.2-0.8,0.4-1.6,0.8-2.5C432.8,292.2,432.3,304.4,434.1,316.5"/>
	<path class="st10" d="M373,392.5c2.7,0.6,5.4,0.5,8.2,0.5c0.7,0,1.6-0.1,1.3,1c-1,2.9-1.4,5.9-1.8,8.9c0,0.3-0.5,0.5-0.8,0.7   c-8.7,1.4-17.2,4.1-25.7,6.7C361,405,367.4,399.2,373,392.5"/>
	<path class="st10" d="M424,415.8c1.5-2.4,3.4-4.4,4.6-7c0.3-0.8,0.9-1.1,1.6-0.3c1.4,1.7,3.5,2.5,5.3,3.7c0.5,8.5,1.9,17,3.5,25.4   C434.7,429.7,429.6,422.5,424,415.8"/>
	<path class="st10" d="M347.8,316.4c-0.6,0.1-0.5,0.7-0.5,1.1c-2.1-1.8-4.3-3.6-6.4-5.4c0.1-0.2,0.2-0.3,0.3-0.5   C343.4,313.2,345.6,314.8,347.8,316.4"/>
	<path class="st11" d="M366.8,355.2c3.9-5.5,9.6-8.3,15.7-10.5c2.3-0.8,3-1.7,2.2-4c-1.2-3.8-1.3-7.7-0.4-11.6c0.7-0.5,1.4-0.3,2,0   c4.3,2.1,8.2,0.4,11.8-1.5c2.1-1.1,4.1-2.6,5.5-4.7c2-2.9,1.8-4.5-0.9-6.8c-0.4-0.3-0.7-0.6-0.6-1.2c7.1,0.1,13.3,2.2,17,8.8   c0.8,1.4,1.3,0.8,2.2,0.2c3.7-2.8,7.7-4.5,12.4-4.3c0.7,0,1.4-0.1,2,0.5c0.3,1.2-0.6,1.7-1.2,2.3c-1.8,1.7-2,3.7-1.2,5.9   c1.4,4.1,5.3,7.1,9.7,7.4c1.5,0.1,2.7,0.4,3.7,1.6c2,2.4,3.2,2.7,6.2,1.6c0.7-0.3,1.4-0.8,2.2-0.4c1.2,5.4,0.9,10.7-2.8,15.2   c-1.3,1.6-1.7,2.3,0.4,3.7c6.1,4.2,9.7,10.1,10.3,17.4c0.4,5-0.8,9.9-3.2,14.3c-4.1,7.4-9.7,13-17.7,16.2c-3.7,1.5-7.6,1.7-11.4,1   c-2.1-0.4-3.2,0-4.4,1.8c-7.2,10.7-23.7,14.7-34.9,6.6c-4.6-3.3-7.2-7.8-7.2-13.6c0-3-0.2-6,0.9-8.9c0.7-1.9-0.2-2.3-1.9-2.2   c-5.8,0.2-10.8-1.7-15.1-5.5c-0.4-0.3-0.6-0.7-0.9-1.1c0.3-0.6,0.9-0.9,1.5-1c3.4-0.8,5-3.2,6.1-6.2c1.7-4.7,1.8-9.4-0.1-14.2   c-1.3-3.2-3-5.6-6.7-6.1C367.6,356,367.1,355.7,366.8,355.2"/>
	<path class="st12" d="M366.8,355.2c4.6-0.1,7.1,1.9,8.8,6.2c2.2,5.4,2,10.8-0.1,16.1c-1.2,3.1-3.8,6.5-8.3,6.1   c-6.6-2.5-8.1-11-7.4-16.6C360.5,362.2,362.2,357.8,366.8,355.2"/>
	<path class="st12" d="M455.2,338.6c-1.5,1.4-3.3,2-5.4,1.9c-1.4-0.1-2.5-0.5-3.1-1.7c-0.9-1.9-2.5-2.1-4.4-2.2   c-5-0.1-10.8-5.9-10.3-10.9c0.2-2.8,2.1-4,3.8-5.6c3.3-0.7,6.4-0.3,9.3,1.3c2.6,1.4,4.4,3.5,5.3,6.3c0.3,0.9,0.5,1.7,1.6,2.2   c4.1,1.6,4.9,3.4,3.5,7.4C455.4,337.9,455.3,338.3,455.2,338.6"/>
	<path class="st13" d="M402.3,315c6,1.8,4.1,7.1,0.8,10.2c-3.3,3.1-7.1,5-11.6,5.7c-2.7,0.4-4.9-0.6-7.1-1.8   c-1.1-3.1,0.2-5.6,2.3-7.7C390.9,317,396.1,314.8,402.3,315"/>
	<path class="st14" d="M431.7,364.2c-2.3-4.3-3.7-8.5-6.5-12c-1.8-2.3-3.7-4.5-6.4-5.8c-3.4-1.6-6.7-0.2-7.9,3.4   c-1.1,3.1-1.7,6.4-1.4,9.7c0.2,2-0.7,2.4-2.3,1.7c-1.5-0.6-3.1-1.1-4.8-1.3c-7.6-0.8-10.7,4.7-9.8,11.1c0.4,3,1.7,5.8,2.9,9.3   c-3.2-2.1-5.6-4-7.6-6.4c-3.5-4-6.3-8.2-6.4-14c-0.1-5.2,4.1-9.3,8-10.4c4.1-1.1,6.6-1,13.4,1c-0.4-2.8-0.6-5.5-0.5-8.2   c0.2-3.8,1.4-7.2,3.9-10.1c4.8-5.8,13.6-4.7,18.2-0.5c6.4,5.8,8.2,13.4,8.2,21.5C432.6,356.7,433.1,360.3,431.7,364.2"/>
	<path class="st14" d="M405.1,381.9c2.9,3,5.4,5.8,8.7,7.7c5.5,3.3,8.4,1.2,10.8-3c1.5-2.6,2.6-5.4,3.3-8.3c0.4-1.5,0.9-2.1,2.3-0.7   c5.3,5.5,7.3,12.8,3.6,19.1c-3.5,6-12.9,7.8-18.5,3.7C409.3,396,406.3,389.6,405.1,381.9"/>
	<path class="st15" d="M392.3,338.2c-2.3,0-3.7-1-3.7-2.7c0-1.4,1.7-2.9,3.5-2.9c1.6-0.1,3.6,1.4,3.6,2.7   C395.6,336.7,394,338.2,392.3,338.2"/>
</g>
</svg>