<svg width="800" height="450" xmlns="http://www.w3.org/2000/svg">
 <g>
  <title>background</title>
  <rect x="-1" y="-1" width="818.32653" height="461.18367" id="canvas_background" fill="#fff"/>
 </g>

 <g>
  <title>background</title>
  <rect height="452" width="802" fill="none" y="-1" x="-1" id="canvas_background"/>
  <rect height="450" width="800" fill="#222833" x="-1" id="XMLID_1_"/>
  <path aria-expanded="false" d="m755.03092,350.38118l-356.094,0c-1.094,0 -1.953,-0.859 -1.953,-1.953l0,-66.016c0,-1.094 0.859,-1.953 1.953,-1.953l356.016,0c1.094,0 1.953,0.859 1.953,1.953l0,66.016c0.078,1.094 -0.782,1.953 -1.875,1.953z" stroke-miterlimit="10" stroke-width="6" stroke="#121212" fill="#F15523" id="XMLID_37_"/>
  <circle r="157.266" cy="227.109" cx="201.797" fill="#F1C40F" id="XMLID_3_"/>
<path d="m308.36,99.453c5.234,-1.094 10.547,-2.188 15.859,-2.891c4.375,-0.625 8.75,-1.016 13.125,-1.25c0.781,-0.078 1.484,0.078 2.266,-0.078c0.391,0.313 0.859,0.156 1.328,0.156c5.078,0.078 10.078,0.547 14.844,2.344c2.344,0.938 4.453,2.109 6.094,4.063c-0.156,0.781 -0.703,1.094 -1.25,1.563c-7.656,6.875 -15.313,13.75 -22.969,20.703c-8.594,7.734 -17.109,15.391 -25.703,23.125c-0.547,0.469 -1.016,1.016 -1.719,1.172c-0.469,0 -0.703,-0.313 -0.938,-0.625c-5.859,-7.656 -11.094,-15.625 -14.922,-24.531c-2.578,-5.938 -4.531,-12.031 -5.469,-18.438c0,-0.469 0.391,-0.703 0.781,-0.781c2.656,-0.547 5.234,-1.406 7.891,-2.109c0.156,-0.078 0.391,0 0.547,0c1.172,-0.313 2.422,-0.625 3.594,-0.938c0.391,-0.234 0.859,-0.391 1.328,-0.313c0.469,-0.078 0.938,-0.156 1.406,-0.313c0.313,-0.313 0.781,-0.313 1.172,-0.313c0.391,-0.078 0.859,-0.156 1.25,-0.313c0.547,-0.077 1.016,-0.311 1.485,-0.233z" fill="#E74C35" id="XMLID_28_"/>
    <path d="m310,148.281c0.547,-0.078 0.859,-0.469 1.25,-0.859c16.875,-15.156 33.75,-30.391 50.703,-45.547c2.813,2.969 3.75,6.719 4.219,10.547c0.703,6.094 0,12.109 -1.016,18.125c-0.313,1.953 -0.781,3.906 -1.172,5.938c-1.016,3.828 -1.953,7.656 -3.125,11.406c-2.656,8.828 -5.859,17.5 -9.453,25.938c-0.625,0.313 -1.25,0 -1.875,-0.156c-5.078,-1.406 -9.922,-3.516 -14.531,-6.016c-7.578,-4.141 -14.375,-9.219 -20.781,-15c-1.484,-1.328 -2.969,-2.656 -4.297,-4.063c0,-0.078 0,-0.235 0.078,-0.313z" fill="#C13B27" id="XMLID_27_"/>
    <path d="m198.281,269.375c0.469,6.563 -1.016,12.578 -4.766,18.047c-2.188,3.125 -5,5.625 -8.047,7.891c-6.406,4.766 -13.359,8.438 -20.703,11.484c-9.297,3.828 -18.906,6.875 -28.75,9.141c-3.594,0.859 -7.266,1.719 -10.938,2.266c-0.234,0 -0.469,0.156 -0.703,0.234c-1.641,0.234 -3.281,0.469 -5.078,0.703c0.391,-2.109 0.938,-3.984 1.406,-5.938c2.344,-8.672 5.313,-17.188 8.984,-25.391c0.078,-0.156 0.156,-0.391 0.156,-0.625c-0.234,-0.391 0,-0.781 0.156,-1.094c3.047,-6.641 6.406,-13.125 10.625,-19.141s8.828,-11.719 14.609,-16.328c4.375,-3.438 9.375,-5.234 14.922,-5.547c2.422,-0.156 4.844,-0.078 7.188,0.703c0.781,0.625 1.484,1.328 1.953,2.188c-0.156,0.859 -0.859,0.625 -1.328,0.625c-2.188,0 -4.297,0.547 -6.328,1.328c-2.656,1.094 -4.844,2.734 -6.797,4.844c-2.734,2.813 -5.156,5.859 -7.266,9.141c-2.969,4.609 -5.547,9.531 -7.578,14.609c-2.344,5.625 -4.297,11.328 -5.703,17.266c-0.313,1.172 -0.234,1.25 0.859,1.016c5.156,-0.859 10.313,-1.953 15.391,-3.438c6.484,-1.875 12.891,-4.063 18.906,-7.188c3.828,-1.953 7.422,-4.219 10.625,-7.109c3.047,-2.734 4.922,-6.172 5.547,-10.234c0.078,-0.469 0.156,-0.938 0.234,-1.406c0.078,-0.313 0.156,-0.703 0.625,-0.547c0.706,0.703 1.565,1.328 1.799,2.5l0,0z" fill="#E57E25" id="XMLID_26_"/>
    <path d="m198.281,269.375c-0.703,-0.781 -1.484,-1.563 -2.188,-2.422c-0.625,-0.078 -0.938,-0.625 -1.328,-1.016c-0.781,-0.859 -1.563,-1.719 -2.344,-2.656c-0.391,-0.469 -0.938,-0.859 -1.016,-1.563c0.156,-0.703 0.781,-1.016 1.25,-1.484c14.375,-12.969 28.828,-25.938 43.203,-38.906c0.234,-0.156 0.391,-0.391 0.625,-0.547c2.266,-1.719 2.344,-4.063 0.313,-5.859c-0.078,-0.078 -0.156,-0.156 -0.234,-0.234s-0.156,-0.234 -0.234,-0.313c-0.547,-0.703 -1.328,-1.172 -1.484,-2.109c0.703,-0.313 0.938,0.234 1.328,0.625c0.547,0.625 1.016,0.703 1.641,0.078c3.438,-3.125 6.953,-6.25 10.391,-9.375c0.313,-0.234 0.547,-0.625 0.781,-0.859c0.625,-0.391 0.859,0.156 1.172,0.469c3.047,3.281 6.641,5.781 10.703,7.656c4.531,2.031 9.219,2.969 14.141,2.891c5.156,-0.078 10,-1.172 14.531,-3.516c6.875,-3.516 12.109,-8.672 15.391,-15.703c3.516,-7.344 4.141,-15.078 2.188,-22.891c-1.25,-5 -3.672,-9.453 -7.031,-13.359c-0.313,-0.391 -1.094,-0.703 -0.625,-1.484c0.703,0.078 1.172,-0.391 1.719,-0.781c2.5,-2.266 5,-4.531 7.5,-6.719c0.391,-0.391 0.781,-0.859 1.484,-0.859c1.563,1.406 3.125,2.813 4.688,4.219c10.781,9.531 22.5,17.5 36.719,21.172c-2.344,5.391 -4.844,10.625 -7.813,15.781c-3.281,5.703 -6.875,11.172 -10.781,16.484c0,0.547 -0.313,0.938 -0.625,1.328c-3.359,4.375 -6.953,8.594 -10.781,12.578c-3.125,3.281 -6.328,6.563 -9.766,9.609c-7.5,6.719 -15.469,12.813 -23.828,18.438c-4.766,3.203 -9.688,6.172 -14.688,8.984c-0.391,0.234 -0.781,0.469 -1.328,0.469c-0.547,-0.078 -0.625,-0.547 -0.781,-0.938c-0.859,-2.109 -1.875,-4.219 -2.891,-6.25c-0.391,-0.781 -0.781,-1.016 -1.563,-0.625c-4.453,1.797 -8.828,3.672 -13.281,5.469c-7.813,3.203 -15.703,6.484 -23.516,9.688c-4.453,1.875 -8.984,3.672 -13.438,5.547c-2.109,0.859 -2.344,2.188 -0.859,3.906c1.016,1.172 2.109,2.344 3.203,3.516c0.313,0.313 0.703,0.625 0.703,1.172c-0.156,0.391 -0.469,0.547 -0.859,0.625c-1.797,0.469 -3.594,1.094 -5.391,1.406c-2.734,0.547 -5.156,0 -6.953,-2.344c-0.859,-1.094 -2.031,-1.875 -2.578,-3.281c-1.954,-2.033 -3.673,-4.064 -5.47,-6.017z" fill="#BCC2C6" id="XMLID_25_"/>
    <path d="m219.297,278.906c-1.25,-1.641 -2.578,-3.047 -3.984,-4.531c-1.797,-1.875 -1.484,-3.438 0.938,-4.453c16.016,-6.563 31.953,-13.125 47.969,-19.688c0.859,-0.391 1.797,-0.703 2.656,-1.094c0.781,-0.391 1.016,-0.156 1.328,0.547c1.25,2.5 2.344,5.078 3.438,7.656c0.391,0.234 0.547,0.703 0.703,1.094c2.266,6.094 3.906,12.344 4.375,18.828c0.625,9.141 -1.094,17.813 -5.313,25.938c-0.703,1.25 -1.328,2.5 -2.109,3.75c-0.234,0.313 -0.391,0.703 -0.781,0.859c-1.719,2.266 -3.438,4.609 -5.391,6.719c-2.813,3.125 -5.938,5.938 -9.297,8.516c-6.016,4.531 -12.422,8.203 -19.375,11.094c-0.859,0.391 -1.797,0.703 -2.734,1.094c-2.578,0.938 -5,0.313 -6.875,-1.719c-2.734,-3.047 -5.547,-6.172 -8.281,-9.219c-1.406,-1.563 -1.406,-2.578 0,-4.063c1.875,-1.953 3.906,-3.75 5.391,-6.016c0.156,-0.469 0.313,-0.938 0.625,-1.328c5.078,-7.734 5.469,-15.859 2.031,-24.219c-1.25,-2.969 -2.813,-5.703 -4.766,-8.281c-0.235,-0.546 -0.548,-0.937 -0.548,-1.484z" fill="#D25627" id="XMLID_24_"/>
    <path d="m303.125,100.703c-0.391,0.234 -0.859,0.391 -1.328,0.313c0.234,-0.938 0.469,-1.016 1.328,-0.313z" fill="#2E4155" id="XMLID_22_"/>
    <path d="m308.36,99.453c-0.391,0.313 -0.859,0.391 -1.328,0.313c0.234,-0.938 0.546,-1.016 1.328,-0.313z" fill="#2E4155" id="XMLID_19_"/>
    <path d="m305.703,100.078c-0.391,0.313 -0.781,0.313 -1.172,0.313c0.157,-0.86 0.625,-0.86 1.172,-0.313z" fill="#2E4155" id="XMLID_17_"/>
    <path d="m310.078,148.438c-3.125,2.813 -6.172,5.547 -9.297,8.359c-0.547,0.469 -0.938,0.703 -1.563,0.234c-1.094,-0.313 -1.641,-1.328 -2.422,-2.031c-5.156,-4.531 -11.172,-7.266 -17.969,-8.203c-8.438,-1.094 -16.172,0.703 -23.203,5.469c-8.281,5.703 -13.203,13.594 -14.531,23.594c-1.172,8.672 1.016,16.641 6.016,23.75c0.469,0.703 1.016,1.406 1.563,2.031c0.234,0.234 0.547,0.547 0.391,0.938c0.078,0.469 -0.156,0.703 -0.469,1.016c-3.672,3.281 -7.344,6.641 -11.016,9.922c-0.469,0.469 -0.859,0.469 -1.328,-0.078c-0.391,-0.469 -0.703,-1.094 -1.406,-1.328c-0.391,0.156 -0.703,0 -1.016,-0.156c-1.328,-0.469 -2.5,-0.156 -3.516,0.703c-0.391,0.313 -0.781,0.703 -1.25,1.094c-14.375,12.969 -28.75,25.859 -43.125,38.828c-0.469,0.469 -0.938,1.016 -1.641,1.172c-0.469,0 -0.781,-0.313 -1.094,-0.625c-1.172,-1.25 -2.266,-2.5 -3.359,-3.75c-0.313,-0.391 -0.703,-0.703 -0.703,-1.25c-0.703,-0.781 -1.406,-1.563 -2.188,-2.422c-2.188,-2.5 -4.453,-4.922 -6.641,-7.422c-1.953,-1.172 -2.422,-3.125 -2.5,-5.156c0,-1.641 0.859,-3.125 1.328,-4.609c0.234,-0.938 0.703,-1.797 1.016,-2.734c0.156,-0.391 0.234,-0.781 0.781,-0.859c0.703,0.234 1.016,0.781 1.406,1.25c0.938,1.016 1.797,2.031 2.734,3.047c1.406,1.563 2.813,1.406 3.828,-0.547c1.641,-2.969 3.203,-5.938 4.844,-8.906c2.891,-5.391 5.781,-10.703 8.75,-16.094c4.141,-7.656 8.203,-15.234 12.344,-22.813c0.391,-0.781 0.234,-1.172 -0.469,-1.563c-1.875,-1.094 -3.75,-2.266 -5.625,-3.359c-0.469,-0.234 -1.016,-0.469 -1.016,-1.172c1.953,-3.125 4.297,-6.016 6.484,-8.984c4.141,-5.469 8.594,-10.625 13.281,-15.625c2.109,-2.266 4.141,-4.453 6.484,-6.484c0.313,-0.313 0.703,-0.547 0.859,-0.938c2.969,-2.813 5.938,-5.625 9.141,-8.125c1.406,-1.094 2.656,-2.266 4.063,-3.359c6.797,-5.391 13.906,-10.156 21.484,-14.375c3.984,-2.188 7.969,-4.219 12.109,-6.094c0.547,-0.234 1.094,-0.469 1.719,-0.469c2.5,-1.094 5.078,-2.109 7.578,-3.047c2.578,-0.938 5.313,-1.797 7.891,-2.656c0.547,1.328 0.547,2.813 0.859,4.219c1.953,8.984 5.625,17.188 10.313,25.078c2.734,4.688 5.859,9.141 9.141,13.438c0.234,0.313 0.391,0.547 0.547,0.859c0.315,0.153 0.315,0.153 0.393,0.232z" fill="#EBEFF0" id="XMLID_16_"/>
    <path d="m125.703,191.563c2.109,-2.344 4.063,-4.844 6.328,-7.031c11.25,-11.172 24.375,-17.891 40.625,-16.953c2.188,0.156 4.375,0.469 6.484,0.781c1.016,-0.234 2.031,0.156 2.969,0.391c5.234,1.328 10.234,3.281 15.078,5.781c0.313,0.156 0.547,0.313 0.781,0.625c2.266,1.328 4.531,2.734 6.797,4.063c0.781,0.469 1.016,0.859 0.469,1.797c-8.594,15.859 -17.188,31.797 -25.781,47.656c-0.156,0.234 -0.234,0.469 -0.391,0.781c-1.016,1.641 -2.656,1.719 -3.906,0.313c-1.406,-1.563 -2.656,-3.203 -4.219,-4.609c-1.25,-0.469 -1.953,-1.484 -2.969,-2.266c-4.219,-3.438 -8.828,-6.172 -14.297,-7.266c-6.484,-1.25 -12.578,0.078 -18.125,3.516c-2.031,1.25 -3.984,2.734 -5.781,4.297c-1.563,1.25 -2.969,1.25 -4.375,-0.156c-0.781,-0.859 -1.797,-1.563 -2.109,-2.734c-1.953,-2.188 -3.906,-4.531 -5.938,-6.641c-2.344,-2.5 -2.344,-5 -0.938,-7.734c1.953,-3.75 4.219,-7.344 6.641,-10.859c0.782,-1.331 1.72,-2.502 2.657,-3.752l0,0z" fill="#E57F25" id="XMLID_15_"/>
    <path d="m179.219,248.203c1.406,1.641 2.891,3.203 4.297,4.844c-0.391,0.391 -0.859,0.313 -1.328,0.234c-3.672,-0.156 -6.563,1.406 -8.984,4.063c-6.172,6.797 -9.531,15 -11.953,23.594c-0.078,0.234 -0.156,0.469 -0.156,0.703c-0.156,0.547 0.078,0.781 0.625,0.625c0.859,-0.156 1.719,-0.234 2.578,-0.469c6.641,-1.406 13.203,-3.281 19.219,-6.563c2.188,-1.25 4.297,-2.578 6.016,-4.453c1.641,-1.797 2.5,-3.906 2.734,-6.328c0.078,-0.469 -0.078,-1.016 0.391,-1.406c1.172,1.25 2.344,2.578 3.438,3.828c-0.391,3.594 -1.406,6.953 -3.672,9.844c-1.328,1.719 -2.969,3.047 -4.688,4.375c-4.375,3.438 -9.297,5.859 -14.375,8.047c-3.281,1.406 -6.719,2.5 -10.156,3.594c-5.938,1.875 -12.031,3.125 -18.125,4.297l-0.08,0c-1.563,0.313 -1.641,0.234 -1.25,-1.328c1.25,-4.766 2.734,-9.453 4.453,-14.063c2.813,-7.422 6.328,-14.453 10.938,-20.859c1.563,-2.109 3.281,-4.141 5.078,-6.016c1.641,-1.797 3.438,-3.281 5.547,-4.453c2.969,-1.563 6.172,-2.11 9.453,-2.11z" fill="#F39D1F" id="XMLID_14_"/>
    <path d="m249.141,202.734c-4.844,-5.547 -7.734,-11.875 -8.359,-19.219c-1.016,-12.656 3.438,-23.125 13.75,-30.625c11.094,-8.047 23.047,-8.672 35.391,-2.891c3.594,1.719 6.641,4.141 9.297,7.031c3.047,3.281 5.469,7.031 6.953,11.25c4.297,12.266 2.422,23.594 -5.703,33.594c-11.641,14.297 -32.969,16.328 -47.344,4.688c-1.407,-1.171 -2.735,-2.499 -3.985,-3.828z" fill="#E74C35" id="XMLID_13_"/>
    <path d="m184.297,253.75c0.391,-0.313 0.703,-0.625 1.094,-0.938c14.844,-13.359 29.688,-26.719 44.531,-40.078c1.719,-1.563 3.125,-1.719 5.078,-0.547c0.547,0.625 1.094,1.328 1.641,1.953c-0.078,0.703 -0.703,1.016 -1.172,1.484c-15.234,13.75 -30.469,27.422 -45.703,41.172c-0.469,0.469 -1.016,0.859 -1.328,1.406c-0.391,0.547 -0.859,0.938 -1.406,1.328c-4.531,4.063 -9.063,8.125 -13.516,12.188c-1.484,1.328 -1.484,1.328 -0.859,3.125c-0.391,0.469 -0.703,0 -0.938,-0.156c-0.859,-0.859 -1.797,-1.797 -2.5,-2.813c-1.25,-1.797 -1.016,-3.984 0.703,-5.625c1.797,-1.719 3.672,-3.281 5.469,-5c2.5,-2.266 4.922,-4.453 7.422,-6.719c0.468,-0.311 0.859,-0.78 1.484,-0.78z" fill="#E57F25" id="XMLID_12_"/>
    <path d="m172.578,275c-1.406,-1.641 -1.406,-1.641 0.234,-3.125c5.078,-4.609 10.234,-9.219 15.313,-13.828c0.156,-0.391 0.547,-0.625 0.781,-0.859c15.625,-14.063 31.25,-28.125 46.875,-42.188c0.313,-0.234 0.547,-0.625 0.938,-0.703c0.469,0.469 0.938,0.938 1.328,1.406c0.938,1.25 0.781,3.125 -0.234,4.297c-0.313,0.313 -0.703,0.625 -1.016,0.938c-14.766,13.281 -29.531,26.563 -44.219,39.844c-0.313,0.313 -0.703,0.625 -1.016,0.938c-0.078,0.469 -0.469,0.781 -0.859,1.094c-4.453,3.984 -8.828,7.969 -13.281,11.953c-1.094,1.016 -2.344,1.484 -3.828,1.016c-0.469,-0.002 -0.938,-0.158 -1.016,-0.783z" fill="#D25627" id="XMLID_11_"/>
    <path d="m172.578,275c1.484,1.094 3.125,1.016 4.531,-0.313c4.453,-4.063 8.984,-8.047 13.438,-12.109c0.313,-0.313 0.625,-0.547 1.016,-0.859c0.391,0.391 0.703,0.859 1.094,1.25c-0.078,2.813 -0.781,5.391 -2.656,7.578c-1.875,2.109 -4.141,3.672 -6.641,5c-6.563,3.516 -13.672,5.547 -20.938,6.797c-1.875,0.313 -1.953,0.313 -1.406,-1.641c1.953,-7.188 4.609,-14.063 9.063,-20.156c1.797,-2.5 3.672,-5 6.563,-6.484c1.719,-0.859 3.516,-1.406 5.469,-1.25c0.469,0 0.938,0 1.406,0c0.234,0.234 0.469,0.547 0.781,0.781c-4.688,4.219 -9.297,8.438 -13.984,12.578c-2.031,1.797 -2.109,3.984 -0.313,6.016c0.859,1.093 1.484,2.187 2.577,2.812z" fill="#EFC419" id="XMLID_10_"/>
    <path d="m236.797,214.375c-15.781,14.219 -31.563,28.359 -47.344,42.578c-0.391,0.391 -0.859,0.781 -1.25,1.172c0.078,-0.547 0.547,-0.781 0.859,-1.016c15.859,-14.297 31.719,-28.516 47.578,-42.813c0.001,0.001 0.079,0.079 0.157,0.079z" fill="#E38225" id="XMLID_9_"/>
    <path d="m255.156,199.375c-1.953,-1.484 -3.203,-3.516 -4.375,-5.625c-2.422,-4.141 -3.594,-8.672 -3.594,-13.516c0,-0.234 0.078,-0.391 0.078,-0.625c0.391,-0.234 0.859,-0.078 1.25,-0.078c17.5,0.938 35.078,1.875 52.578,2.734c0.156,0 0.391,0 0.547,0.078c-0.078,3.281 -1.016,6.406 -2.422,9.375c-1.641,3.594 -3.984,6.641 -7.031,9.219c-0.234,0.156 -0.391,0.391 -0.703,0.469c-0.078,-0.547 0.547,-0.703 0.781,-1.172c-12.5,-0.625 -25,-1.328 -37.5,-1.953c0.001,0.469 0.548,0.625 0.391,1.094z" fill="#354A60" id="XMLID_8_"/>
    <path d="m301.641,182.422c-0.313,0.234 -0.703,0.156 -1.016,0.156c-17.5,-0.938 -34.922,-1.875 -52.422,-2.734c-0.313,0 -0.625,-0.078 -0.938,-0.156c0,-3.672 0.781,-7.109 2.266,-10.391c0.391,-0.234 0.859,-0.156 1.25,-0.078c16.172,0.859 32.266,1.719 48.438,2.578c0.391,0 0.859,0 1.25,0.234c1.172,3.282 1.562,6.797 1.172,10.391z" fill="#2C3F51" id="XMLID_7_"/>
    <path d="m300.469,171.875c-0.391,0 -0.703,0.078 -1.094,0.078c-16.25,-0.859 -32.578,-1.719 -48.828,-2.578c-0.391,0 -0.703,-0.078 -1.094,-0.156c1.094,-2.734 2.656,-5.234 4.688,-7.344c0.625,0.078 1.172,0.156 1.797,0.156c13.203,0.703 26.328,1.406 39.531,2.109c0.391,0 0.703,0 1.094,0.156c1.875,2.267 3.125,4.845 3.906,7.579z" fill="#354A60" id="XMLID_6_"/>
    <path d="m296.641,164.297c-0.391,0.313 -0.781,0.156 -1.172,0.156c-13.438,-0.703 -26.875,-1.406 -40.313,-2.109c-0.313,0 -0.859,0.234 -1.016,-0.391c11.798,-13.125 32.579,-11.719 42.501,2.344z" fill="#2C3F51" id="XMLID_5_"/>
    <path d="m255.156,199.375c-0.391,-0.391 -0.703,-0.781 -1.016,-1.094c12.891,0.703 25.703,1.328 38.594,2.031c-0.313,0.313 -0.781,0.703 -1.25,1.094c-4.766,3.906 -10.234,5.859 -16.328,6.016c-7.031,0.156 -13.203,-2.109 -18.594,-6.641c-0.546,-0.39 -0.937,-0.937 -1.406,-1.406z" fill="#2C3F51" id="XMLID_4_"/> 
 </g>
 <g>
  <title>Layer 1</title>
  <style type="text/css">:root {
        --animate-duration: 1s;
        --animate-delay: 1s;
        --animate-repeat: 1;
      }
      
       .animate__animated {
        -webkit-animation-duration: 1s;
        animation-duration: 1s;
        -webkit-animation-duration: var(--animate-duration);
        animation-duration: var(--animate-duration);
        -webkit-animation-fill-mode: both;
        animation-fill-mode: both;
      }
    @-webkit-keyframes bounceIn {

    from,
    20%,
    40%,
    60%,
    80%,
    to {
        -webkit-animation-timing-function: cubic-bezier(.215, .61, .355, 1.000);
        animation-timing-function: cubic-bezier(.215, .61, .355, 1.000)
    }

    0% {
        opacity: 0;
        -webkit-transform: scale3d(.3, .3, .3);
        transform: scale3d(.3, .3, .3)
    }

    20% {
        -webkit-transform: scale3d(1.1, 1.1, 1.1);
        transform: scale3d(1.1, 1.1, 1.1)
    }

    40% {
        -webkit-transform: scale3d(.9, .9, .9);
        transform: scale3d(.9, .9, .9)
    }

    60% {
        opacity: 1;
        -webkit-transform: scale3d(1.03, 1.03, 1.03);
        transform: scale3d(1.03, 1.03, 1.03)
    }

    80% {
        -webkit-transform: scale3d(.97, .97, .97);
        transform: scale3d(.97, .97, .97)
    }

    to {
        opacity: 1;
        -webkit-transform: scale3d(1, 1, 1);
        transform: scale3d(1, 1, 1)
    }
}

@keyframes bounceIn {

    from,
    20%,
    40%,
    60%,
    80%,
    to {
        -webkit-animation-timing-function: cubic-bezier(.215, .61, .355, 1.000);
        animation-timing-function: cubic-bezier(.215, .61, .355, 1.000)
    }

    0% {
        opacity: 0;
        -webkit-transform: scale3d(.3, .3, .3);
        transform: scale3d(.3, .3, .3)
    }

    20% {
        -webkit-transform: scale3d(1.1, 1.1, 1.1);
        transform: scale3d(1.1, 1.1, 1.1)
    }

    40% {
        -webkit-transform: scale3d(.9, .9, .9);
        transform: scale3d(.9, .9, .9)
    }

    60% {
        opacity: 1;
        -webkit-transform: scale3d(1.03, 1.03, 1.03);
        transform: scale3d(1.03, 1.03, 1.03)
    }

    80% {
        -webkit-transform: scale3d(.97, .97, .97);
        transform: scale3d(.97, .97, .97)
    }

    to {
        opacity: 1;
        -webkit-transform: scale3d(1, 1, 1);
        transform: scale3d(1, 1, 1)
    }
}

.animate__bounceIn {
    -webkit-animation-name: bounceIn;
    animation-name: bounceIn
}
    .animate__animated.animate__repeat-1 {
          -webkit-animation-iteration-count: 1;
          animation-iteration-count: 1;
          -webkit-animation-iteration-count: var(--animate-repeat);
          animation-iteration-count: var(--animate-repeat);
        }
    .animate__animated.animate__delay-1s {
          -webkit-animation-delay: 1s;
          animation-delay: 1s;
          -webkit-animation-delay: var(--animate-delay);
          animation-delay: var(--animate-delay);
        }
    .animate__animated.animate__faster {
          -webkit-animation-duration: calc(1s / 2);
          animation-duration: calc(1s / 2);
          -webkit-animation-duration: calc(var(--animate-duration) / 2);
          animation-duration: calc(var(--animate-duration) / 2);
        }</style>
  <g class="animate__animated animate__bounceIn animate__repeat-1 animate__delay-1s animate__faster" id="svg_1">
   <g id="XMLID_29_">
    
   </g>
  </g>
  <style type="text/css">:root {
        --animate-duration: 1s;
        --animate-delay: 1s;
        --animate-repeat: 1;
      }
      
       .animate__animated {
        -webkit-animation-duration: 1s;
        animation-duration: 1s;
        -webkit-animation-duration: var(--animate-duration);
        animation-duration: var(--animate-duration);
        -webkit-animation-fill-mode: both;
        animation-fill-mode: both;
      }
    @-webkit-keyframes fadeInLeft {
    from {
        opacity: 0;
        -webkit-transform: translate3d(-100%, 0, 0);
        transform: translate3d(-100%, 0, 0)
    }

    to {
        opacity: 1;
        -webkit-transform: none;
        transform: none
    }
}

@keyframes fadeInLeft {
    from {
        opacity: 0;
        -webkit-transform: translate3d(-100%, 0, 0);
        transform: translate3d(-100%, 0, 0)
    }

    to {
        opacity: 1;
        -webkit-transform: none;
        transform: none
    }
}

.animate__fadeInLeft {
    -webkit-animation-name: fadeInLeft;
    animation-name: fadeInLeft
}
    .animate__animated.animate__repeat-1 {
          -webkit-animation-iteration-count: 1;
          animation-iteration-count: 1;
          -webkit-animation-iteration-count: var(--animate-repeat);
          animation-iteration-count: var(--animate-repeat);
        }
    .animate__animated.animate__delay-2s {
          -webkit-animation-delay: calc(1s * 2);
          animation-delay: calc(1s * 2);
          -webkit-animation-delay: calc(var(--animate-delay) * 2);
          animation-delay: calc(var(--animate-delay) * 2);
        }
    .animate__animated.animate__faster {
          -webkit-animation-duration: calc(1s / 2);
          animation-duration: calc(1s / 2);
          -webkit-animation-duration: calc(var(--animate-duration) / 2);
          animation-duration: calc(var(--animate-duration) / 2);
        }</style>
  <style type="text/css">:root {
        --animate-duration: 1s;
        --animate-delay: 1s;
        --animate-repeat: 1;
      }
      
       .animate__animated {
        -webkit-animation-duration: 1s;
        animation-duration: 1s;
        -webkit-animation-duration: var(--animate-duration);
        animation-duration: var(--animate-duration);
        -webkit-animation-fill-mode: both;
        animation-fill-mode: both;
      }
    @-webkit-keyframes fadeInLeft {
    from {
        opacity: 0;
        -webkit-transform: translate3d(-100%, 0, 0);
        transform: translate3d(-100%, 0, 0)
    }

    to {
        opacity: 1;
        -webkit-transform: none;
        transform: none
    }
}

@keyframes fadeInLeft {
    from {
        opacity: 0;
        -webkit-transform: translate3d(-100%, 0, 0);
        transform: translate3d(-100%, 0, 0)
    }

    to {
        opacity: 1;
        -webkit-transform: none;
        transform: none
    }
}

.animate__fadeInLeft {
    -webkit-animation-name: fadeInLeft;
    animation-name: fadeInLeft
}
    .animate__animated.animate__repeat-1 {
          -webkit-animation-iteration-count: 1;
          animation-iteration-count: 1;
          -webkit-animation-iteration-count: var(--animate-repeat);
          animation-iteration-count: var(--animate-repeat);
        }
    .animate__animated.animate__delay-2s {
          -webkit-animation-delay: calc(1s * 2);
          animation-delay: calc(1s * 2);
          -webkit-animation-delay: calc(var(--animate-delay) * 2);
          animation-delay: calc(var(--animate-delay) * 2);
        }
    .animate__animated.animate__faster {
          -webkit-animation-duration: calc(1s / 2);
          animation-duration: calc(1s / 2);
          -webkit-animation-duration: calc(var(--animate-duration) / 2);
          animation-duration: calc(var(--animate-duration) / 2);
        }</style>
  <style type="text/css">:root {
        --animate-duration: 1s;
        --animate-delay: 1s;
        --animate-repeat: 1;
      }
      
       .animate__animated {
        -webkit-animation-duration: 1s;
        animation-duration: 1s;
        -webkit-animation-duration: var(--animate-duration);
        animation-duration: var(--animate-duration);
        -webkit-animation-fill-mode: both;
        animation-fill-mode: both;
      }
    @-webkit-keyframes fadeInLeft {
    from {
        opacity: 0;
        -webkit-transform: translate3d(-100%, 0, 0);
        transform: translate3d(-100%, 0, 0)
    }

    to {
        opacity: 1;
        -webkit-transform: none;
        transform: none
    }
}

@keyframes fadeInLeft {
    from {
        opacity: 0;
        -webkit-transform: translate3d(-100%, 0, 0);
        transform: translate3d(-100%, 0, 0)
    }

    to {
        opacity: 1;
        -webkit-transform: none;
        transform: none
    }
}

.animate__fadeInLeft {
    -webkit-animation-name: fadeInLeft;
    animation-name: fadeInLeft
}
    .animate__animated.animate__repeat-1 {
          -webkit-animation-iteration-count: 1;
          animation-iteration-count: 1;
          -webkit-animation-iteration-count: var(--animate-repeat);
          animation-iteration-count: var(--animate-repeat);
        }
    .animate__animated.animate__delay-2s {
          -webkit-animation-delay: calc(1s * 2);
          animation-delay: calc(1s * 2);
          -webkit-animation-delay: calc(var(--animate-delay) * 2);
          animation-delay: calc(var(--animate-delay) * 2);
        }
    .animate__animated.animate__faster {
          -webkit-animation-duration: calc(1s / 2);
          animation-duration: calc(1s / 2);
          -webkit-animation-duration: calc(var(--animate-duration) / 2);
          animation-duration: calc(var(--animate-duration) / 2);
        }</style>
  <g class="animate__animated animate__fadeInLeft animate__repeat-1 animate__delay-2s animate__faster" id="svg_2">
   <text font-size="38.3879" font-family="'HelveticaWorld-Bold'" fill="#FFFFFF" transform="matrix(1,0,0,1,581.5276,158.0845) " id="XMLID_20_">IS HERE</text>
  </g>
  <style type="text/css">:root {
        --animate-duration: 1s;
        --animate-delay: 1s;
        --animate-repeat: 1;
      }
      
       .animate__animated {
        -webkit-animation-duration: 1s;
        animation-duration: 1s;
        -webkit-animation-duration: var(--animate-duration);
        animation-duration: var(--animate-duration);
        -webkit-animation-fill-mode: both;
        animation-fill-mode: both;
      }
    @-webkit-keyframes fadeInLeft {
    from {
        opacity: 0;
        -webkit-transform: translate3d(-100%, 0, 0);
        transform: translate3d(-100%, 0, 0)
    }

    to {
        opacity: 1;
        -webkit-transform: none;
        transform: none
    }
}

@keyframes fadeInLeft {
    from {
        opacity: 0;
        -webkit-transform: translate3d(-100%, 0, 0);
        transform: translate3d(-100%, 0, 0)
    }

    to {
        opacity: 1;
        -webkit-transform: none;
        transform: none
    }
}

.animate__fadeInLeft {
    -webkit-animation-name: fadeInLeft;
    animation-name: fadeInLeft
}
    .animate__animated.animate__repeat-1 {
          -webkit-animation-iteration-count: 1;
          animation-iteration-count: 1;
          -webkit-animation-iteration-count: var(--animate-repeat);
          animation-iteration-count: var(--animate-repeat);
        }
    .animate__animated.animate__delay-2s {
          -webkit-animation-delay: calc(1s * 2);
          animation-delay: calc(1s * 2);
          -webkit-animation-delay: calc(var(--animate-delay) * 2);
          animation-delay: calc(var(--animate-delay) * 2);
        }
    .animate__animated.animate__faster {
          -webkit-animation-duration: calc(1s / 2);
          animation-duration: calc(1s / 2);
          -webkit-animation-duration: calc(var(--animate-duration) / 2);
          animation-duration: calc(var(--animate-duration) / 2);
        }</style>
  <g class="animate__animated animate__fadeInLeft animate__repeat-1 animate__delay-2s animate__faster" id="svg_3">
   <g id="svg_4">
    <text font-size="38.3879" font-family="'HelveticaWorld-Bold'" fill="#F47A28" transform="matrix(1,0,0,1,410.4836,158.084) " id="XMLID_31_">LAUNCH</text>
   </g>
  </g>
  <style type="text/css">:root {
        --animate-duration: 1s;
        --animate-delay: 1s;
        --animate-repeat: 1;
      }
      
       .animate__animated {
        -webkit-animation-duration: 1s;
        animation-duration: 1s;
        -webkit-animation-duration: var(--animate-duration);
        animation-duration: var(--animate-duration);
        -webkit-animation-fill-mode: both;
        animation-fill-mode: both;
      }
    @-webkit-keyframes fadeInLeft {
    from {
        opacity: 0;
        -webkit-transform: translate3d(-100%, 0, 0);
        transform: translate3d(-100%, 0, 0)
    }

    to {
        opacity: 1;
        -webkit-transform: none;
        transform: none
    }
}

@keyframes fadeInLeft {
    from {
        opacity: 0;
        -webkit-transform: translate3d(-100%, 0, 0);
        transform: translate3d(-100%, 0, 0)
    }

    to {
        opacity: 1;
        -webkit-transform: none;
        transform: none
    }
}

.animate__fadeInLeft {
    -webkit-animation-name: fadeInLeft;
    animation-name: fadeInLeft
}
    .animate__animated.animate__repeat-1 {
          -webkit-animation-iteration-count: 1;
          animation-iteration-count: 1;
          -webkit-animation-iteration-count: var(--animate-repeat);
          animation-iteration-count: var(--animate-repeat);
        }
    .animate__animated.animate__delay-2s {
          -webkit-animation-delay: calc(1s * 2);
          animation-delay: calc(1s * 2);
          -webkit-animation-delay: calc(var(--animate-delay) * 2);
          animation-delay: calc(var(--animate-delay) * 2);
        }
    .animate__animated.animate__faster {
          -webkit-animation-duration: calc(1s / 2);
          animation-duration: calc(1s / 2);
          -webkit-animation-duration: calc(var(--animate-duration) / 2);
          animation-duration: calc(var(--animate-duration) / 2);
        }</style>
  <g class="animate__animated animate__fadeInLeft animate__repeat-1 animate__delay-2s animate__faster" id="svg_5">
   <g id="svg_6">
    <text x="0" y="-1.02041" aria-expanded="false" font-size="38.1934" font-family="'HelveticaWorld-Bold'" fill="#FFFFFF" transform="matrix(1,0,0,1,412.0657,124.3281) " id="XMLID_2_">WORLD BIGGEST</text>
   </g>
  </g>
  <style type="text/css">:root {
        --animate-duration: 1s;
        --animate-delay: 1s;
        --animate-repeat: 1;
      }
      
       .animate__animated {
        -webkit-animation-duration: 1s;
        animation-duration: 1s;
        -webkit-animation-duration: var(--animate-duration);
        animation-duration: var(--animate-duration);
        -webkit-animation-fill-mode: both;
        animation-fill-mode: both;
      }
    @-webkit-keyframes fadeIn {
    from {
        opacity: 0
    }

    to {
        opacity: 1
    }
}

@keyframes fadeIn {
    from {
        opacity: 0
    }

    to {
        opacity: 1
    }
}

.animate__fadeIn {
    -webkit-animation-name: fadeIn;
    animation-name: fadeIn
}

    .animate__animated.animate__repeat-1 {
          -webkit-animation-iteration-count: 1;
          animation-iteration-count: 1;
          -webkit-animation-iteration-count: var(--animate-repeat);
          animation-iteration-count: var(--animate-repeat);
        }
    .animate__animated.animate__delay-2s {
          -webkit-animation-delay: calc(1s * 2);
          animation-delay: calc(1s * 2);
          -webkit-animation-delay: calc(var(--animate-delay) * 2);
          animation-delay: calc(var(--animate-delay) * 2);
        }
    .animate__animated.animate__faster {
          -webkit-animation-duration: calc(1s / 2);
          animation-duration: calc(1s / 2);
          -webkit-animation-duration: calc(var(--animate-duration) / 2);
          animation-duration: calc(var(--animate-duration) / 2);
        }</style>
  <g id="svg_7">
   <style type="text/css">:root {
        --animate-duration: 1s;
        --animate-delay: 1s;
        --animate-repeat: 1;
      }
      
       .animate__animated {
        -webkit-animation-duration: 1s;
        animation-duration: 1s;
        -webkit-animation-duration: var(--animate-duration);
        animation-duration: var(--animate-duration);
        -webkit-animation-fill-mode: both;
        animation-fill-mode: both;
      }
    @-webkit-keyframes fadeIn {
    from {
        opacity: 0
    }

    to {
        opacity: 1
    }
}

@keyframes fadeIn {
    from {
        opacity: 0
    }

    to {
        opacity: 1
    }
}

.animate__fadeIn {
    -webkit-animation-name: fadeIn;
    animation-name: fadeIn
}

    .animate__animated.animate__repeat-1 {
          -webkit-animation-iteration-count: 1;
          animation-iteration-count: 1;
          -webkit-animation-iteration-count: var(--animate-repeat);
          animation-iteration-count: var(--animate-repeat);
        }
    .animate__animated.animate__delay-3s {
          -webkit-animation-delay: calc(1s * 3);
          animation-delay: calc(1s * 3);
          -webkit-animation-delay: calc(var(--animate-delay) * 3);
          animation-delay: calc(var(--animate-delay) * 3);
        }
    .animate__animated.animate__faster {
          -webkit-animation-duration: calc(1s / 2);
          animation-duration: calc(1s / 2);
          -webkit-animation-duration: calc(var(--animate-duration) / 2);
          animation-duration: calc(var(--animate-duration) / 2);
        }</style>
   <g class="animate__animated animate__fadeIn animate__repeat-1 animate__delay-3s animate__faster" id="svg_8">
    <text font-size="18.4152" font-family="'HelveticaWorld-Regular'" fill="#FFFFFF" transform="matrix(1,0,0,1,409.1741,216.5605) " id="XMLID_23_">GUARANTEED CONVERTING RATES</text>
   </g>
  </g>
  <style type="text/css">:root {
        --animate-duration: 1s;
        --animate-delay: 1s;
        --animate-repeat: 1;
      }
      
       .animate__animated {
        -webkit-animation-duration: 1s;
        animation-duration: 1s;
        -webkit-animation-duration: var(--animate-duration);
        animation-duration: var(--animate-duration);
        -webkit-animation-fill-mode: both;
        animation-fill-mode: both;
      }
    @-webkit-keyframes fadeIn {
    from {
        opacity: 0
    }

    to {
        opacity: 1
    }
}

@keyframes fadeIn {
    from {
        opacity: 0
    }

    to {
        opacity: 1
    }
}

.animate__fadeIn {
    -webkit-animation-name: fadeIn;
    animation-name: fadeIn
}

    .animate__animated.animate__repeat-1 {
          -webkit-animation-iteration-count: 1;
          animation-iteration-count: 1;
          -webkit-animation-iteration-count: var(--animate-repeat);
          animation-iteration-count: var(--animate-repeat);
        }
    .animate__animated.animate__delay-3s {
          -webkit-animation-delay: calc(1s * 3);
          animation-delay: calc(1s * 3);
          -webkit-animation-delay: calc(var(--animate-delay) * 3);
          animation-delay: calc(var(--animate-delay) * 3);
        }
    .animate__animated.animate__faster {
          -webkit-animation-duration: calc(1s / 2);
          animation-duration: calc(1s / 2);
          -webkit-animation-duration: calc(var(--animate-duration) / 2);
          animation-duration: calc(var(--animate-duration) / 2);
        }</style>
  <g class="animate__animated animate__fadeIn animate__repeat-1 animate__delay-3s animate__faster" id="svg_9">
   <text font-size="17.2887" font-family="'HelveticaWorld-Regular'" fill="#FFFFFF" transform="matrix(1,0,0,1,409.1731,234.5332) " id="XMLID_18_">Write something about your product</text>
  </g>
  <style type="text/css">:root {
        --animate-duration: 1s;
        --animate-delay: 1s;
        --animate-repeat: 1;
      }
      
       .animate__animated {
        -webkit-animation-duration: 1s;
        animation-duration: 1s;
        -webkit-animation-duration: var(--animate-duration);
        animation-duration: var(--animate-duration);
        -webkit-animation-fill-mode: both;
        animation-fill-mode: both;
      }
    @-webkit-keyframes fadeIn {
    from {
        opacity: 0
    }

    to {
        opacity: 1
    }
}

@keyframes fadeIn {
    from {
        opacity: 0
    }

    to {
        opacity: 1
    }
}

.animate__fadeIn {
    -webkit-animation-name: fadeIn;
    animation-name: fadeIn
}

    .animate__animated.animate__repeat-1 {
          -webkit-animation-iteration-count: 1;
          animation-iteration-count: 1;
          -webkit-animation-iteration-count: var(--animate-repeat);
          animation-iteration-count: var(--animate-repeat);
        }
    .animate__animated.animate__delay-3s {
          -webkit-animation-delay: calc(1s * 3);
          animation-delay: calc(1s * 3);
          -webkit-animation-delay: calc(var(--animate-delay) * 3);
          animation-delay: calc(var(--animate-delay) * 3);
        }
    .animate__animated.animate__faster {
          -webkit-animation-duration: calc(1s / 2);
          animation-duration: calc(1s / 2);
          -webkit-animation-duration: calc(var(--animate-duration) / 2);
          animation-duration: calc(var(--animate-duration) / 2);
        }</style>
  <g class="animate__animated animate__fadeIn animate__repeat-1 animate__delay-3s animate__faster" id="svg_10">
   <text font-size="17.2871" font-family="'HelveticaWorld-Regular'" fill="#FFFFFF" transform="matrix(1,0,0,1,409.1741,254.125) " id="XMLID_21_">How it helps the users manage their business</text>
  </g>
  <style type="text/css">:root {
        --animate-duration: 1s;
        --animate-delay: 1s;
        --animate-repeat: 1;
      }
      
       .animate__animated {
        -webkit-animation-duration: 1s;
        animation-duration: 1s;
        -webkit-animation-duration: var(--animate-duration);
        animation-duration: var(--animate-duration);
        -webkit-animation-fill-mode: both;
        animation-fill-mode: both;
      }
    @-webkit-keyframes fadeIn {
    from {
        opacity: 0
    }

    to {
        opacity: 1
    }
}

@keyframes fadeIn {
    from {
        opacity: 0
    }

    to {
        opacity: 1
    }
}

.animate__fadeIn {
    -webkit-animation-name: fadeIn;
    animation-name: fadeIn
}

    .animate__animated.animate__repeat-1 {
          -webkit-animation-iteration-count: 1;
          animation-iteration-count: 1;
          -webkit-animation-iteration-count: var(--animate-repeat);
          animation-iteration-count: var(--animate-repeat);
        }
    .animate__animated.animate__delay-3s {
          -webkit-animation-delay: calc(1s * 3);
          animation-delay: calc(1s * 3);
          -webkit-animation-delay: calc(var(--animate-delay) * 3);
          animation-delay: calc(var(--animate-delay) * 3);
        }
    .animate__animated.animate__faster {
          -webkit-animation-duration: calc(1s / 2);
          animation-duration: calc(1s / 2);
          -webkit-animation-duration: calc(var(--animate-duration) / 2);
          animation-duration: calc(var(--animate-duration) / 2);
        }</style>
  <g class="animate__animated animate__fadeIn animate__repeat-1 animate__delay-3s animate__faster" id="svg_11">
   <text aria-expanded="false" x="-1.02041" y="0" font-size="31.2774" font-family="'HelveticaWorld-Bold'" fill="#ECF0F1" transform="matrix(1,0,0,1,464.6565,328.376) " id="XMLID_41_">JV LINK HERE</text>
  </g>
 </g>
</svg>