<svg xmlns="http://www.w3.org/2000/svg" xmlns:xlink="http://www.w3.org/1999/xlink" version="1.1" x="0px" y="0px" height="450px" width="800px" viewBox="0 0 800 450" style="enable-background:new 0 0 800 450;" xml:space="preserve"><g><title>background</title><rect fill="#fff" id="canvas_background" height="450" width="800" y="-1" x="-1"/></g>
<style type="text/css">
	.st0{fill:#2F88BC;}
	.st1{fill:#91501C;}
	.st2{fill:#FFAB44;}
	.st3{fill:#B16827;}
	.st4{fill:#C2EEFC;}
	.st5{opacity:0.25;fill:#5D5D5D;}
	.st6{fill:#FBEBBA;}
	.st7{fill:#CABC9C;}
	.st8{fill:#8F8676;}
	.st9{fill:#8C8C8C;}
	.st10{fill:#FFFFFF;}
	.st11{fill:#C1A9A9;}
	.st12{fill:#CDCACA;}
	.st13{fill:#85361F;}
	.st14{fill:#FF7D43;}
	.st15{fill:#46D1FA;}
	.st16{fill:#E85E3C;}
	.st17{fill:#7F714C;}
	.st18{fill:#242221;}
	.st19{fill:#EFC73E;}
	.st20{fill:#B73A4A;}
	.st21{fill:#7D2833;}
	.st22{fill:#EEC09B;}
	.st23{fill:#DBA77F;}
	.st24{fill:#EEC9AB;}
	.st25{fill:#E1475C;}
	.st26{fill:#352311;}
	.st27{fill:#DC959C;}
	.st28{fill:#3D3D3D;}
	.st29{fill:#17120E;}
	.st30{fill:#9DD87D;}
	.st31{fill:#7FC5D6;}
	.st32{fill:#B04B5D;}
	.st33{fill:#D28691;}
	.st34{fill:#562947;}
	.st35{fill:#7F5D7F;}
	.st36{fill:#876B8E;}
	.st37{fill:#3F112B;}
	.st38{fill:#AB6346;}
	.st39{fill:#C57C5F;}
	.st40{fill:#DE8B6C;}
	.st41{fill:#C47C5F;}
	.st42{fill:#321829;}
	.st43{fill:#CCA93F;}
	.st44{fill:#E8BF4D;}
	.st45{fill:#A17C5B;}
	.st46{fill:#111719;}
	.st47{fill:#808184;}
	.st48{fill:#58595B;}
	.st49{fill:#BE1E2D;}
	.st50{fill:#FED03D;}
	.st51{fill:#312C32;}
	.st52{fill:#E08400;}
	.st53{fill:#FEDB78;}
	.st54{fill:#FDD03D;}
	.st55{fill:#E08501;}
	.st56{fill:#FD5544;}
	.st57{fill:#E08604;}
	.st58{fill:#E18503;}
	.st59{fill:#322D2F;}
	.st60{fill:#312C31;}
	.st61{fill:#82E1DE;}
	.st62{fill:#353032;}
	.st63{fill:#F7F6F4;}
	.st64{fill:#302C2F;}
	.st65{fill:#302C30;}
	.st66{fill:#E18A05;}
	.st67{fill:#322D31;}
	.st68{fill:#E08602;}
	.st69{fill:#FBFBFB;}
	.st70{fill:#F8F7F3;}
	.st71{fill:#312D31;}
	.st72{fill:#FDFDFB;}
	.st73{fill:#353034;}
	.st74{fill:#353133;}
	.st75{fill:#FAFAF8;}
	.st76{fill:#FBFCF9;}
	.st77{fill:#322E30;}
	.st78{fill:#302C31;}
	.st79{fill:#ADF8FE;}
	.st80{fill:#7EE1DF;}
	.st81{fill:#353031;}
	.st82{fill:#373233;}
	.st83{fill:#332E32;}
	.st84{fill:#332E33;}
	.st85{fill:#FCFCF8;}
	.st86{fill:#FCFCFB;}
	.st87{fill:#FCFCFA;}
	.st88{fill:#F8F8F5;}
	.st89{fill:#FDFDFC;}
	.st90{fill:#312C30;}
	.st91{fill:#F7F7F4;}
	.st92{fill:#312C2F;}
	.st93{fill:#332F33;}
	.st94{fill:#FBFBF7;}
	.st95{fill:#FDFDFD;}
	.st96{fill:#302D2F;}
	.st97{fill:#E18C0A;}
	.st98{fill:#E08F09;}
	.st99{fill:#363033;}
	.st100{fill:#342F32;}
	.st101{fill:#322D30;}
	.st102{fill:#FAF9F4;}
	.st103{fill:#373333;}
	.st104{fill:#FCFDFB;}
	.st105{fill:#FEFEFE;}
	.st106{fill:#FBFBF8;}
	.st107{fill:#ECEBE9;}
	.st108{fill:#FCFCF9;}
	.st109{fill:#3A3538;}
	.st110{fill:#DBBC42;}
    #TAXI{
    animation : slide 4s ease-in-out  
    }
    @keyframes slide{
    0%{
    transform : translateX(0)
    }
    50%,60%{
    transform : translateX(-830px)
    }
    70%{
     transform : translateX(-1400px)
    }
    100%{
    transform : translateX(-1400px)
    }
    }
    #girl1 ,#girl2{
    animation : fade 4s ease-in-out  
    }
    @keyframes fade{
    0%,60%{
    visibility : hidden
    }
    65%,100%{
    visibility : visible
    }
    }
    #BRAZO_IZQ ,#BRAZO_DERE_1_{
    animation : wave 4s ease-in-out infinite;
    
    }
    @keyframes wave{
    0%,60%{
    visibility : hidden
    }
    
    71%,100%{
   visibility : hidden
    }
    }
   
    #BRAZO_IZQ-2{
     animation-name: arm1;
    animation-duration: 4s;
    animation-timing-function: linear;
   
    animation-iteration-count: infinite;
    transform-origin:right top;
    animation-direction: normal;
    transform-box: fill-box;
    }
    @keyframes arm1 {
      0%{transform:rotateZ(0deg)}
      70%{transform:rotateZ(0deg)}
      80%{transform:rotateZ(15deg)}
      100%{transform:rotateZ(15deg)}
    }

	#BRAZO_DERE-2{
      animation-name: arm2;
    animation-duration: 4s;
    animation-timing-function: linear;
   
    animation-iteration-count: infinite;
    transform-origin: 25% 25%;
    animation-direction: normal;
    transform-box: fill-box;
    }
    @keyframes arm2 {
      0%{transform:rotateZ(0deg)}
      70%{transform:rotateZ(0deg)}
      80%{transform:rotateZ(-15deg)}
      100%{transform:rotateZ(-15deg)}
}
    #OJOS_1_ ,#OJOS{
    animation : blink 4s ease-in-out infinite
    }
    @keyframes blink{
    0%,70%{
    visibility : hidden
    }
    72%,75%{
    visibility : visible
    }
    
    85%,90%{
    visibility : visible
    }
    92%,95%{
    visibility : hidden
    }
    100%{
    visibility : visible
    }
    }
</style>
<g id="CIUDAD">
	<g>
		<g>
			<rect x="-126" y="-296.3" class="st0" width="148.3" height="463.8"/>
			<rect x="1253.7" y="-296.3" class="st0" width="148.3" height="463.8"/>
			<rect x="279.1" y="-246" class="st0" width="148.3" height="413.6"/>
			<rect x="672.5" y="-140.9" class="st0" width="276.8" height="308.5"/>
			<rect x="979.4" y="-48" class="st0" width="234.8" height="215.5"/>
			<rect x="1072.1" y="-121.8" class="st0" width="132" height="196.7"/>
			<polygon class="st0" points="621.3,163.3 472.9,163.3 474.6,-476.3 621.3,-368.9    "/>
			<rect x="-30.5" y="-91.3" class="st0" width="148.3" height="258.8"/>
			<rect x="191.4" y="-37.1" class="st0" width="148.3" height="204.6"/>
			<rect x="561.5" y="-37.1" class="st0" width="148.3" height="204.6"/>
			<rect x="905.2" y="76.8" class="st0" width="148.3" height="90.7"/>
			<rect x="1152.6" y="8.7" class="st0" width="148.3" height="158.9"/>
			<rect x="410.1" y="-108.5" class="st0" width="148.3" height="276.1"/>
			<polygon class="st0" points="234.3,167.6 86,167.6 86,-434.9 160.2,-519.8 234.3,-434.9    "/>
			<rect x="79.6" y="-433.8" class="st0" width="160.4" height="11.5"/>
			<rect x="79.6" y="-371.4" class="st0" width="160.4" height="11.5"/>
			<rect x="79.6" y="-309" class="st0" width="160.4" height="11.5"/>
			<rect x="79.6" y="-246.6" class="st0" width="160.4" height="11.5"/>
			<rect x="273" y="-248.3" class="st0" width="160.4" height="12.9"/>
			<rect x="665.2" y="-147.4" class="st0" width="295.6" height="12.9"/>
			<rect x="1061.4" y="-122.5" class="st0" width="149" height="12.9"/>
			<rect x="1145.9" y="-167.9" class="st0" width="56.3" height="12.9"/>
			<rect x="1152.6" y="-161.5" class="st0" width="43.7" height="48.2"/>
			<rect x="1335.8" y="-399.5" class="st0" width="56.3" height="12.9"/>
			<rect x="1342.5" y="-393.1" class="st0" width="43.7" height="105.1"/>
			<rect x="1253.7" y="-324" class="st0" width="11.1" height="27.7"/>
			<rect x="1294.8" y="-324" class="st0" width="11.1" height="27.7"/>
			<rect x="1335.8" y="-324" class="st0" width="11.1" height="27.7"/>
			<rect x="1249.5" y="-331.6" class="st0" width="152.5" height="11.4"/>
			<rect x="1376.9" y="-324" class="st0" width="11.1" height="27.7"/>
			<rect x="79.6" y="-184.2" class="st0" width="160.4" height="11.5"/>
			<rect x="79.6" y="-121.8" class="st0" width="160.4" height="11.5"/>
			<rect x="79.6" y="-59.4" class="st0" width="160.4" height="11.5"/>
			<rect x="79.6" y="3" class="st0" width="160.4" height="11.5"/>
			<rect x="79.6" y="65.4" class="st0" width="160.4" height="11.5"/>
			<rect x="79.6" y="127.8" class="st0" width="160.4" height="11.5"/>
			<rect x="191.4" y="-501.9" class="st0" width="24.8" height="46.2"/>
			<rect x="568" y="-422.3" class="st0" width="24.8" height="46.2"/>
		</g>
		<rect x="-126" y="127.8" class="st0" width="1528.1" height="84.1"/>
		<g>
			<g>
				<polygon class="st1" points="927.7,-103.5 758.3,-103.5 927.7,-191.8     "/>
				<rect x="786" y="-198.7" class="st1" width="65.7" height="82.6"/>
				<rect x="695.1" y="-101.6" class="st2" width="247.6" height="313.4"/>
				<rect x="685.2" y="-104.3" class="st3" width="267.3" height="22.3"/>
				<rect x="685.2" y="-17.7" class="st3" width="267.3" height="22.3"/>
				<rect x="685.2" y="68.9" class="st3" width="267.3" height="22.3"/>
				<g>
					<rect x="712" y="109.2" class="st4" width="95.8" height="103.1"/>
					<rect x="707.7" y="104.6" class="st3" width="7" height="107.7"/>
					<rect x="806.3" y="104.6" class="st3" width="7" height="107.7"/>
					<rect x="758.2" y="104.6" class="st3" width="3.5" height="107.7"/>
					<rect x="707.7" y="103.4" class="st3" width="105.6" height="7.6"/>
				</g>
				<g>
					<rect x="712.9" y="16.7" class="st4" width="38.1" height="41.1"/>
					<rect x="711.2" y="14.9" class="st3" width="2.8" height="42.9"/>
					<rect x="750.4" y="14.9" class="st3" width="2.8" height="42.9"/>
					<rect x="731.3" y="14.9" class="st3" width="1.4" height="42.9"/>
					<rect x="711.2" y="14.4" class="st3" width="42.1" height="3"/>
					<rect x="711.2" y="55" class="st3" width="42.1" height="3"/>
				</g>
				<g>
					<rect x="771.8" y="16.7" class="st4" width="38.1" height="41.1"/>
					<rect x="770" y="14.9" class="st3" width="2.8" height="42.9"/>
					<rect x="809.3" y="14.9" class="st3" width="2.8" height="42.9"/>
					<rect x="790.1" y="14.9" class="st3" width="1.4" height="42.9"/>
					<rect x="770" y="14.4" class="st3" width="42.1" height="3"/>
					<rect x="770" y="55" class="st3" width="42.1" height="3"/>
				</g>
				<g>
					<rect x="824" y="16.7" class="st4" width="38.1" height="41.1"/>
					<rect x="822.3" y="14.9" class="st3" width="2.8" height="42.9"/>
					<rect x="861.6" y="14.9" class="st3" width="2.8" height="42.9"/>
					<rect x="842.4" y="14.9" class="st3" width="1.4" height="42.9"/>
					<rect x="822.3" y="14.4" class="st3" width="42.1" height="3"/>
					<rect x="822.3" y="55" class="st3" width="42.1" height="3"/>
				</g>
				<g>
					<rect x="883.2" y="16.7" class="st4" width="38.1" height="41.1"/>
					<rect x="881.4" y="14.9" class="st3" width="2.8" height="42.9"/>
					<rect x="920.7" y="14.9" class="st3" width="2.8" height="42.9"/>
					<rect x="901.5" y="14.9" class="st3" width="1.4" height="42.9"/>
					<rect x="881.4" y="14.4" class="st3" width="42.1" height="3"/>
					<rect x="881.4" y="55" class="st3" width="42.1" height="3"/>
				</g>
				<g>
					<rect x="826.5" y="109.2" class="st4" width="95.8" height="103.1"/>
					<rect x="822.2" y="104.6" class="st3" width="7" height="107.7"/>
					<rect x="920.8" y="104.6" class="st3" width="7" height="107.7"/>
					<rect x="872.7" y="104.6" class="st3" width="3.5" height="107.7"/>
					<rect x="822.2" y="103.4" class="st3" width="105.6" height="7.6"/>
				</g>
				<rect x="695.1" y="-72.4" class="st4" width="247.6" height="44.8"/>
				<rect x="693.3" y="-77.6" class="st3" width="249.3" height="7.7"/>
				<rect x="693.3" y="-33.3" class="st3" width="249.3" height="7.7"/>
				<rect x="704.3" y="-72.9" class="st3" width="3.3" height="42"/>
				<rect x="748.8" y="-72.9" class="st3" width="3.3" height="42"/>
				<rect x="793.2" y="-72.9" class="st3" width="3.3" height="42"/>
				<rect x="837.7" y="-72.9" class="st3" width="3.3" height="42"/>
				<rect x="882.1" y="-72.9" class="st3" width="3.3" height="42"/>
				<rect x="926.6" y="-72.9" class="st3" width="3.3" height="42"/>
			</g>
			<polygon class="st5" points="826.5,212.3 829.2,212.3 872.7,212.3 876.2,212.3 920.8,212.3 922.3,212.3 927.8,212.3 927.8,211.8      942.6,211.8 942.6,91.2 952.5,91.2 952.5,68.9 942.6,68.9 942.6,4.6 952.5,4.6 952.5,-17.7 942.6,-17.7 942.6,-25.5 942.6,-27.6      942.6,-33.3 942.6,-69.9 942.6,-72.4 942.6,-77.6 942.6,-82 952.5,-82 952.5,-104.3 927.7,-104.3 927.7,-191.8 851.7,-152.2      851.7,-198.7 818.8,-198.7 818.8,211.8 822.2,211.8 822.2,212.3    "/>
		</g>
		<g>
			<g>
				<rect x="137.3" y="194" class="st6" width="314.7" height="18.3"/>
				<rect x="150.5" y="11" class="st6" width="291.6" height="201.3"/>
				<rect x="233.9" y="-140.2" class="st6" width="116.9" height="125.2"/>
				<path class="st6" d="M233.9-140.2c0-32.3,26.2-58.5,58.5-58.5c32.3,0,58.5,26.2,58.5,58.5c0,32.3-26.2,58.5-58.5,58.5      C260.1-81.7,233.9-107.9,233.9-140.2z"/>
				<ellipse class="st6" cx="296.3" cy="10.4" rx="145.8" ry="35.3"/>
				<polygon class="st6" points="274.2,-191.8 292.4,-309.1 310.7,-191.8     "/>
				<rect x="224.6" y="-139.7" class="st7" width="136" height="14.9"/>
				<rect x="224.6" y="-129.2" class="st8" width="136" height="4.4"/>
				<rect x="231.8" y="-155.7" class="st7" width="122" height="4.2"/>
				<rect x="241.4" y="-176.4" class="st7" width="103.7" height="4.2"/>
				<rect x="261.9" y="-195.9" class="st7" width="62.7" height="4.2"/>
				<rect x="224.6" y="-36.9" class="st7" width="136" height="14.9"/>
				<rect x="147.3" y="7.1" class="st7" width="296.6" height="14.9"/>
				<rect x="147.3" y="24.4" class="st7" width="296.6" height="7.5"/>
				<rect x="241.4" y="-132.2" class="st7" width="14.6" height="104.6"/>
				<rect x="159.2" y="10.4" class="st7" width="14.6" height="72.3"/>
				<rect x="201.8" y="10.4" class="st7" width="14.6" height="72.3"/>
				<rect x="244.4" y="10.4" class="st7" width="14.6" height="72.3"/>
				<rect x="286.9" y="10.4" class="st7" width="14.6" height="72.3"/>
				<rect x="329.5" y="10.4" class="st7" width="14.6" height="72.3"/>
				<rect x="372.1" y="10.4" class="st7" width="14.6" height="72.3"/>
				<rect x="414.6" y="10.4" class="st7" width="14.6" height="72.3"/>
				<rect x="270.7" y="-132.2" class="st7" width="14.6" height="104.6"/>
				<rect x="299.9" y="-132.2" class="st7" width="14.6" height="104.6"/>
				<rect x="329.1" y="-132.1" class="st7" width="14.6" height="104.6"/>
				<path class="st7" d="M273-193.8c0,0-16.7,20.2-19.2,54.1h5.6c0,0,2.2-29.7,16.7-54.1H273z"/>
				<path class="st7" d="M309.9-193.8c0,0,16.7,20.2,19.2,54.1h-5.6c0,0-2.2-29.7-16.7-54.1H309.9z"/>
				<rect x="288.7" y="-193.2" class="st7" width="3.9" height="53.5"/>
				<rect x="224.6" y="-24.9" class="st8" width="136" height="4.4"/>
				<rect x="147.3" y="17.2" class="st8" width="296.6" height="4.8"/>
				<rect x="147.3" y="75.5" class="st7" width="296.6" height="14.9"/>
				<g>
					<rect x="166.5" y="89.2" class="st7" width="29.7" height="123.1"/>
					<polygon class="st7" points="159.2,90.4 166.5,101.4 196.2,101.4 203.3,90.3      "/>
					<polygon class="st7" points="203.3,212.2 196,201.2 166.3,201.2 159.2,212.3      "/>
					<path class="st8" d="M175.4,199.4c0,1-0.8,1.8-1.8,1.8l0,0c-1,0-1.8-0.8-1.8-1.8v-94.5c0-1,0.8-1.8,1.8-1.8l0,0       c1,0,1.8,0.8,1.8,1.8V199.4z"/>
					<path class="st8" d="M189,199.4c0,1-0.8,1.8-1.8,1.8l0,0c-1,0-1.8-0.8-1.8-1.8v-94.5c0-1,0.8-1.8,1.8-1.8l0,0       c1,0,1.8,0.8,1.8,1.8V199.4z"/>
				</g>
				<g>
					<rect x="222" y="89.2" class="st7" width="29.7" height="123.1"/>
					<polygon class="st7" points="214.7,90.4 222,101.4 251.7,101.4 258.8,90.3      "/>
					<polygon class="st7" points="258.8,212.2 251.5,201.2 221.8,201.2 214.7,212.3      "/>
					<path class="st8" d="M230.8,199.4c0,1-0.8,1.8-1.8,1.8l0,0c-1,0-1.8-0.8-1.8-1.8v-94.5c0-1,0.8-1.8,1.8-1.8l0,0       c1,0,1.8,0.8,1.8,1.8V199.4z"/>
					<path class="st8" d="M244.4,199.4c0,1-0.8,1.8-1.8,1.8l0,0c-1,0-1.8-0.8-1.8-1.8v-94.5c0-1,0.8-1.8,1.8-1.8l0,0       c1,0,1.8,0.8,1.8,1.8V199.4z"/>
				</g>
				<g>
					<rect x="339.4" y="89.2" class="st7" width="29.7" height="123.1"/>
					<polygon class="st7" points="332.1,90.4 339.4,101.4 369.1,101.4 376.2,90.3      "/>
					<polygon class="st7" points="376.2,212.2 368.9,201.2 339.2,201.2 332.1,212.3      "/>
					<path class="st8" d="M348.2,199.4c0,1-0.8,1.8-1.8,1.8l0,0c-1,0-1.8-0.8-1.8-1.8v-94.5c0-1,0.8-1.8,1.8-1.8l0,0       c1,0,1.8,0.8,1.8,1.8V199.4z"/>
					<path class="st8" d="M361.9,199.4c0,1-0.8,1.8-1.8,1.8l0,0c-1,0-1.8-0.8-1.8-1.8v-94.5c0-1,0.8-1.8,1.8-1.8l0,0       c1,0,1.8,0.8,1.8,1.8V199.4z"/>
				</g>
				<g>
					<rect x="394.8" y="89.2" class="st7" width="29.7" height="123.1"/>
					<polygon class="st7" points="387.5,90.4 394.8,101.4 424.5,101.4 431.6,90.3      "/>
					<polygon class="st7" points="431.6,212.2 424.3,201.2 394.6,201.2 387.5,212.3      "/>
					<path class="st8" d="M403.7,199.4c0,1-0.8,1.8-1.8,1.8l0,0c-1,0-1.8-0.8-1.8-1.8v-94.5c0-1,0.8-1.8,1.8-1.8l0,0       c1,0,1.8,0.8,1.8,1.8V199.4z"/>
					<path class="st8" d="M417.3,199.4c0,1-0.8,1.8-1.8,1.8l0,0c-1,0-1.8-0.8-1.8-1.8v-94.5c0-1,0.8-1.8,1.8-1.8l0,0       c1,0,1.8,0.8,1.8,1.8V199.4z"/>
				</g>
				<rect x="147.3" y="85.6" class="st8" width="296.6" height="4.8"/>
				<rect x="262.4" y="201.2" class="st7" width="66.7" height="11.1"/>
				<rect x="276.5" y="194.8" class="st7" width="38.7" height="6.4"/>
				<rect x="283.2" y="188.8" class="st7" width="25.1" height="6"/>
				<polygon class="st7" points="304.9,188.8 286.3,188.8 286.3,121.6 295.6,113.8 304.9,121.6     "/>
			</g>
			<path class="st5" d="M293.7,212.3h35.5h10.3h29.7h25.7h29.7H442h9.9V194H442V90.4h1.9v-4.8V75.5H442V31.8h1.9v-7.5H442V22h1.9     v-4.8V7.1h-2.5C436.6-5.4,405-16,360.6-21.3v-0.6v-3v-11.9h-9.7v-87.9h9.7v-4.4v-10.5h-9.7c0-0.2,0-0.3,0-0.5     c0-3.9-0.4-7.6-1.1-11.3h4.1v-4.2h-5.1c-1.6-6-4.2-11.6-7.5-16.6h3.9v-4.2h-6.9c-5-6.3-11.2-11.5-18.3-15.3h4.6v-4.2h-14.4     c0,0-0.1,0-0.1,0l-16.4-104.8V212.3z"/>
			<path class="st7" d="M287.9-307.8c0-2.5,2-4.5,4.5-4.5c2.5,0,4.5,2,4.5,4.5c0,2.5-2,4.5-4.5,4.5     C289.9-303.3,287.9-305.3,287.9-307.8z"/>
		</g>
		<rect x="-126" y="248.3" class="st9" width="1528.1" height="220.1"/>
		<rect x="-126" y="260.6" class="st10" width="1528.1" height="10.8"/>
		<rect x="-126" y="365.6" class="st10" width="1528.1" height="10.8"/>
		<rect x="-79.5" y="310.5" class="st10" width="38.6" height="6.4"/>
		<rect x="50.4" y="310.5" class="st10" width="38.6" height="6.4"/>
		<rect x="180.3" y="310.5" class="st10" width="38.6" height="6.4"/>
		<rect x="310.2" y="310.5" class="st10" width="38.6" height="6.4"/>
		<rect x="440.1" y="310.5" class="st10" width="38.6" height="6.4"/>
		<rect x="570" y="310.5" class="st10" width="38.6" height="6.4"/>
		<rect x="699.9" y="310.5" class="st10" width="38.6" height="6.4"/>
		<rect x="829.8" y="310.5" class="st10" width="38.6" height="6.4"/>
		<rect x="959.7" y="310.5" class="st10" width="38.6" height="6.4"/>
		<rect x="1089.6" y="310.5" class="st10" width="38.6" height="6.4"/>
		<rect x="1219.5" y="310.5" class="st10" width="38.6" height="6.4"/>
		<rect x="1349.5" y="310.5" class="st10" width="38.6" height="6.4"/>
		<rect x="-126" y="237.5" class="st11" width="1528.1" height="10.8"/>
		<rect x="-126" y="211.8" class="st12" width="1528.1" height="25.7"/>
		<rect x="-126" y="384.5" class="st12" width="1528.1" height="25.7"/>
		<g>
			<rect x="622.4" y="-60.6" class="st13" width="23.2" height="18.6"/>
			<rect x="618.9" y="-69.9" class="st13" width="29.9" height="9.3"/>
			<rect x="473.3" y="3" class="st14" width="178.6" height="209.3"/>
			<polygon class="st13" points="652,-42 565.9,-42 557,-42 470.9,-42 449.6,10.8 557,10.8 565.9,10.8 673.3,10.8    "/>
			<rect x="455.6" y="93.4" class="st13" width="213.9" height="15.7"/>
			<g>
				<path class="st13" d="M479.5,49c0-12.7,10.3-23.1,23.1-23.1c12.7,0,23.1,10.3,23.1,23.1c0,12.7-10.3,23.1-23.1,23.1      C489.8,72.1,479.5,61.8,479.5,49z"/>
				<path class="st15" d="M484.5,49c0-10,8.1-18,18-18s18,8.1,18,18c0,10-8.1,18-18,18S484.5,59,484.5,49z"/>
				<rect x="500.3" y="29.5" class="st13" width="4.4" height="39"/>
				<rect x="483.1" y="46.8" class="st13" width="39" height="4.4"/>
			</g>
			<g>
				<path class="st13" d="M538.8,49c0-12.7,10.3-23.1,23.1-23.1c12.7,0,23.1,10.3,23.1,23.1c0,12.7-10.3,23.1-23.1,23.1      C549.1,72.1,538.8,61.8,538.8,49z"/>
				<path class="st15" d="M543.8,49c0-10,8.1-18,18-18c10,0,18,8.1,18,18c0,10-8.1,18-18,18C551.9,67.1,543.8,59,543.8,49z"/>
				<rect x="559.6" y="29.5" class="st13" width="4.4" height="39"/>
				<rect x="542.4" y="46.8" class="st13" width="39" height="4.4"/>
			</g>
			<g>
				<path class="st13" d="M598.1,49c0-12.7,10.3-23.1,23.1-23.1c12.7,0,23.1,10.3,23.1,23.1c0,12.7-10.3,23.1-23.1,23.1      C608.4,72.1,598.1,61.8,598.1,49z"/>
				<path class="st15" d="M603.1,49c0-10,8.1-18,18-18s18,8.1,18,18c0,10-8.1,18-18,18S603.1,59,603.1,49z"/>
				<rect x="618.9" y="29.5" class="st13" width="4.4" height="39"/>
				<rect x="601.7" y="46.8" class="st13" width="39" height="4.4"/>
			</g>
			<rect x="449.6" y="-4.9" class="st16" width="223.8" height="15.7"/>
			<g>
				<rect x="482.9" y="124.7" class="st6" width="96.7" height="64.4"/>
				<rect x="489.7" y="130.9" class="st15" width="83.1" height="51.8"/>
				<rect x="528.1" y="124.7" class="st6" width="7.1" height="62.5"/>
			</g>
			<rect x="592.7" y="127.8" class="st13" width="42.6" height="84.1"/>
			<path class="st14" d="M621.4,167.6c0-2.8,2.3-5.1,5.1-5.1c2.8,0,5.1,2.3,5.1,5.1c0,2.8-2.3,5.1-5.1,5.1     C623.7,172.7,621.4,170.4,621.4,167.6z"/>
			<polygon class="st5" points="652,-42 645.6,-42 645.6,-60.6 648.9,-60.6 648.9,-69.9 618.9,-69.9 618.9,-60.6 622.4,-60.6      622.4,-42 565.9,-42 559.6,-42 559.6,212.3 651.9,212.3 651.9,109.2 669.5,109.2 669.5,93.4 651.9,93.4 651.9,10.8 673.3,10.8      673.3,-4.9 667,-4.9    "/>
		</g>
		<g>
			<rect x="-94.1" y="101.4" class="st3" width="206.3" height="110.9"/>
			<rect x="-61.1" y="18" class="st3" width="140.2" height="75.4"/>
			<rect x="-98.3" y="93.4" class="st2" width="213.9" height="15.7"/>
			<rect x="-96.2" y="204.9" class="st6" width="78.2" height="7.4"/>
			<rect x="33.6" y="204.9" class="st6" width="80.7" height="7.4"/>
			<rect x="-67.9" y="3" class="st2" width="153.3" height="15.7"/>
			<g>
				<rect x="-52.6" y="33.6" class="st6" width="47.8" height="31.8"/>
				<rect x="-49.2" y="36.7" class="st15" width="41.1" height="25.6"/>
				<rect x="-30.3" y="33.6" class="st6" width="3.5" height="30.9"/>
			</g>
			<g>
				<rect x="-84.8" y="129.7" class="st6" width="64.7" height="43.1"/>
				<rect x="-80.3" y="133.9" class="st15" width="55.6" height="34.7"/>
				<rect x="-54.6" y="129.7" class="st6" width="4.7" height="41.8"/>
			</g>
			<g>
				<rect x="35.2" y="129.7" class="st6" width="64.7" height="43.1"/>
				<rect x="39.8" y="133.9" class="st15" width="55.6" height="34.7"/>
				<rect x="65.4" y="129.7" class="st6" width="4.7" height="41.8"/>
			</g>
			<g>
				<rect x="23.2" y="33.6" class="st6" width="47.8" height="31.8"/>
				<rect x="26.5" y="36.7" class="st15" width="41.1" height="25.6"/>
				<rect x="45.5" y="33.6" class="st6" width="3.5" height="30.9"/>
			</g>
			<path class="st6" d="M27.6,212.3h-37.7v-53.8c0-10.4,8.4-18.9,18.9-18.9l0,0c10.4,0,18.9,8.4,18.9,18.9V212.3z"/>
			<path class="st17" d="M17.2,177.1c0-2.3,1.9-4.1,4.1-4.1c2.3,0,4.1,1.9,4.1,4.1c0,2.3-1.9,4.1-4.1,4.1     C19.1,181.3,17.2,179.4,17.2,177.1z"/>
			<rect x="49" y="-15.6" class="st6" width="23.2" height="18.6"/>
			<rect x="45.5" y="-24.9" class="st6" width="29.9" height="9.3"/>
			<polygon class="st5" points="79.1,18.7 85.4,18.7 85.4,3 72.2,3 72.2,-15.6 75.4,-15.6 75.4,-24.9 45.5,-24.9 45.5,-15.6      49,-15.6 49,3 9,3 9,212.3 27.6,212.3 33.6,212.3 112.2,212.3 114.3,212.3 114.3,204.9 112.2,204.9 112.2,109.2 115.7,109.2      115.7,93.4 79.1,93.4    "/>
		</g>
		<g>
			<rect x="-99.9" y="112.3" class="st18" width="7.6" height="112.4"/>
			<path class="st18" d="M-104.6,224.7h16.7C-87.8,224.7-96.1,209.4-104.6,224.7z"/>
			<polygon class="st18" points="-83.9,98.2 -85.5,98.2 -106.7,98.2 -108.3,98.2 -100.8,117.5 -100.5,118.3 -100.5,118.3      -91.7,118.3 -91.7,118.3 -91.4,117.5    "/>
			<rect x="-109.7" y="95.1" class="st18" width="26.4" height="3.1"/>
			<rect x="-98" y="82.3" class="st18" width="3.1" height="26.4"/>
			<path class="st18" d="M-108.3,95.1c0-5.7,5.4-10.4,12-10.4c6.7,0,12,4.7,12,10.4c0,5.7-5.4,10.4-12,10.4     C-102.9,105.5-108.3,100.8-108.3,95.1z"/>
			<polygon class="st19" points="-106.5,98.2 -96.8,98.2 -96.8,117.4 -98.4,117.4    "/>
			<polygon class="st19" points="-85.7,98.2 -95.3,98.2 -95.3,117.4 -93.7,117.4    "/>
		</g>
		<g>
			<rect x="164.3" y="112.3" class="st18" width="7.6" height="112.4"/>
			<path class="st18" d="M159.7,224.7h16.7C176.4,224.7,168.1,209.4,159.7,224.7z"/>
			<polygon class="st18" points="180.4,98.2 178.8,98.2 157.5,98.2 155.9,98.2 163.4,117.5 163.7,118.3 163.8,118.3 172.5,118.3      172.6,118.3 172.8,117.5    "/>
			<rect x="154.6" y="95.1" class="st18" width="26.4" height="3.1"/>
			<rect x="166.2" y="82.3" class="st18" width="3.1" height="26.4"/>
			<path class="st18" d="M155.9,95.1c0-5.7,5.4-10.4,12-10.4c6.7,0,12,4.7,12,10.4c0,5.7-5.4,10.4-12,10.4     C161.3,105.5,155.9,100.8,155.9,95.1z"/>
			<polygon class="st19" points="157.8,98.2 167.4,98.2 167.4,117.4 165.9,117.4    "/>
			<polygon class="st19" points="178.6,98.2 168.9,98.2 168.9,117.4 170.5,117.4    "/>
		</g>
		<g>
			<rect x="428.5" y="112.3" class="st18" width="7.6" height="112.4"/>
			<path class="st18" d="M423.9,224.7h16.7C440.6,224.7,432.4,209.4,423.9,224.7z"/>
			<polygon class="st18" points="444.6,98.2 443,98.2 421.7,98.2 420.2,98.2 427.7,117.5 427.9,118.3 428,118.3 436.8,118.3      436.8,118.3 437.1,117.5    "/>
			<rect x="418.8" y="95.1" class="st18" width="26.4" height="3.1"/>
			<rect x="430.5" y="82.3" class="st18" width="3.1" height="26.4"/>
			<path class="st18" d="M420.2,95.1c0-5.7,5.4-10.4,12-10.4c6.7,0,12,4.7,12,10.4c0,5.7-5.4,10.4-12,10.4     C425.6,105.5,420.2,100.8,420.2,95.1z"/>
			<polygon class="st19" points="422,98.2 431.6,98.2 431.6,117.4 430.1,117.4    "/>
			<polygon class="st19" points="442.8,98.2 433.2,98.2 433.2,117.4 434.7,117.4    "/>
		</g>
		<g>
			<rect x="692.8" y="112.3" class="st18" width="7.6" height="112.4"/>
			<path class="st18" d="M688.2,224.7h16.7C704.9,224.7,696.6,209.4,688.2,224.7z"/>
			<polygon class="st18" points="708.8,98.2 707.3,98.2 686,98.2 684.4,98.2 691.9,117.5 692.2,118.3 692.3,118.3 701,118.3      701.1,118.3 701.3,117.5    "/>
			<rect x="683" y="95.1" class="st18" width="26.4" height="3.1"/>
			<rect x="694.7" y="82.3" class="st18" width="3.1" height="26.4"/>
			<path class="st18" d="M684.4,95.1c0-5.7,5.4-10.4,12-10.4c6.7,0,12,4.7,12,10.4c0,5.7-5.4,10.4-12,10.4     C689.8,105.5,684.4,100.8,684.4,95.1z"/>
			<polygon class="st19" points="686.2,98.2 695.9,98.2 695.9,117.4 694.3,117.4    "/>
			<polygon class="st19" points="707.1,98.2 697.4,98.2 697.4,117.4 699,117.4    "/>
		</g>
		<g>
			<rect x="957" y="112.3" class="st18" width="7.6" height="112.4"/>
			<path class="st18" d="M952.4,224.7h16.7C969.1,224.7,960.8,209.4,952.4,224.7z"/>
			<polygon class="st18" points="973.1,98.2 971.5,98.2 950.2,98.2 948.6,98.2 956.2,117.5 956.4,118.3 956.5,118.3 965.2,118.3      965.3,118.3 965.6,117.5    "/>
			<rect x="947.3" y="95.1" class="st18" width="26.4" height="3.1"/>
			<rect x="958.9" y="82.3" class="st18" width="3.1" height="26.4"/>
			<path class="st18" d="M948.6,95.1c0-5.7,5.4-10.4,12-10.4c6.7,0,12,4.7,12,10.4c0,5.7-5.4,10.4-12,10.4     C954,105.5,948.6,100.8,948.6,95.1z"/>
			<polygon class="st19" points="950.5,98.2 960.1,98.2 960.1,117.4 958.6,117.4    "/>
			<polygon class="st19" points="971.3,98.2 961.7,98.2 961.7,117.4 963.2,117.4    "/>
		</g>
		<g>
			<rect x="1221.3" y="112.3" class="st18" width="7.6" height="112.4"/>
			<path class="st18" d="M1216.6,224.7h16.7C1233.4,224.7,1225.1,209.4,1216.6,224.7z"/>
			<polygon class="st18" points="1237.3,98.2 1235.7,98.2 1214.5,98.2 1212.9,98.2 1220.4,117.5 1220.7,118.3 1220.7,118.3      1229.5,118.3 1229.5,118.3 1229.8,117.5    "/>
			<rect x="1211.5" y="95.1" class="st18" width="26.4" height="3.1"/>
			<rect x="1223.2" y="82.3" class="st18" width="3.1" height="26.4"/>
			<path class="st18" d="M1212.9,95.1c0-5.7,5.4-10.4,12-10.4c6.7,0,12,4.7,12,10.4c0,5.7-5.4,10.4-12,10.4     C1218.3,105.5,1212.9,100.8,1212.9,95.1z"/>
			<polygon class="st19" points="1214.7,98.2 1224.4,98.2 1224.4,117.4 1222.8,117.4    "/>
			<polygon class="st19" points="1235.5,98.2 1225.9,98.2 1225.9,117.4 1227.4,117.4    "/>
		</g>
	</g>
</g>
<g id="girl2">
	<g id="CABEZA">
		<g>
			<path id="XMLID_166_" class="st20" d="M443.8,167.8c0,0,15.7,41.2-18.2,85l-38.6,2l-11.1-33.6l9.1-35.7L443.8,167.8z"/>
			<path id="XMLID_165_" class="st21" d="M441.9,199.5c0,0-3.1,38.2-22.1,55.1l-29.9,3.7l-12.3-32.2l2.3-32.4L441.9,199.5z"/>
			<path id="XMLID_164_" class="st22" d="M435.4,217.6L435.4,217.6c-3.5-1-5.5-4.7-4.5-8.1l2.1-7.5c1-3.5,4.7-5.5,8.1-4.5h0     c3.5,1,5.5,4.7,4.5,8.1l-2.1,7.5C442.6,216.6,438.9,218.6,435.4,217.6z"/>
			<path id="XMLID_163_" class="st23" d="M407.9,244.5h-2.1c-4,0-7.2-3.2-7.2-7.2v-3.7c0-4,3.2-7.2,7.2-7.2h2.1c4,0,7.2,3.2,7.2,7.2     v3.7C415.1,241.3,411.8,244.5,407.9,244.5z"/>
			<path id="XMLID_162_" class="st22" d="M378.4,212l3.1-37c1.1-13.2,12.8-23.1,26.1-22l11,0.9c13.2,1.1,23.1,12.8,22,26.1     l-2.8,33.1c-0.6,7.5-11,29.3-30.5,27.7C387,239.1,377.8,218.8,378.4,212z"/>
			<path id="XMLID_161_" class="st23" d="M409.3,211.8c0,0,5,5.7-2.5,6.1C406.8,217.9,417.1,218.8,409.3,211.8z"/>
			<path id="XMLID_160_" class="st24" d="M394.7,214.2c-0.1,1.6-2.4,2.7-5.1,2.5c-2.7-0.2-4.7-1.7-4.6-3.3c0.1-1.6,2.4-2.7,5.1-2.5     C392.7,211.1,394.8,212.6,394.7,214.2z"/>
			<path id="XMLID_159_" class="st24" d="M432.3,217.3c-0.1,1.6-2.4,2.7-5.1,2.5c-2.7-0.2-4.7-1.7-4.6-3.3c0.1-1.6,2.4-2.7,5.1-2.5     S432.4,215.7,432.3,217.3z"/>
			<path id="XMLID_158_" class="st20" d="M393.7,169.3c0,0,10.2,27.6,44.7,34.9l-0.4,7.6c0,0,9.6-11,8.2-34.3     c-1.4-23.3-32.3-40.1-55-27.4c-17.7,9.9-17,31-12.8,59.3l1.9-19.6C380.2,189.8,388.9,181.1,393.7,169.3z"/>
			<path id="XMLID_156_" class="st20" d="M391.2,150.1c0,0-12.6,2.1-18.9,28.7c-6.3,26.6-8.7,53,2.3,65c8.5,9.3-11,29,17.5,40.7     c0,0-6.2-9.9-1-22c5.3-12-1.7-27.5-7.7-36.3c-6-8.8-7.3-41.5,10.2-56.9C411.1,153.9,391.2,150.1,391.2,150.1z"/>
		</g>
		<path id="XMLID_155_" class="st22" d="M378.3,213L378.3,213c-3.6-0.3-6.3-3.5-6-7.1l0.6-7.8c0.3-3.6,3.5-6.3,7.1-6h0    c3.6,0.3,6.3,3.5,6,7.1l-0.6,7.8C385.1,210.6,381.9,213.3,378.3,213z"/>
		<path id="XMLID_154_" class="st25" d="M400.5,161.6c1.7,7.9,9.7,23.1,28,28.8c18.3,5.8-8.1-1.4-17.9-21.6    C403.9,154.8,398.8,153.6,400.5,161.6z"/>
		<path id="XMLID_153_" class="st21" d="M403.6,193.8c0,0-6.9-5.7-16-0.5l-0.7-2.9c0,0,8.8-5.6,17.6,1.5L403.6,193.8z"/>
		<g id="OJOS_1_">
			<path id="XMLID_169_" class="st26" d="M395.4,207.1L395.4,207.1c-1-0.1-1.8-1-1.7-2.1l0.2-2.5c0.1-1,1-1.8,2.1-1.7l0,0     c1,0.1,1.8,1,1.7,2.1l-0.2,2.5C397.4,206.4,396.5,207.2,395.4,207.1z"/>
			<path id="XMLID_168_" class="st26" d="M423.3,209.4L423.3,209.4c-1-0.1-1.8-1-1.7-2.1l0.2-2.5c0.1-1,1-1.8,2.1-1.7l0,0     c1,0.1,1.8,1,1.7,2.1l-0.2,2.5C425.2,208.7,424.3,209.5,423.3,209.4z"/>
		</g>
        <g id="eyes-closed">
			<path id="XMLID_14_" class="st26" d="M395.4,205.5L395.4,205.5c-1,0-1.8-0.2-1.7-0.5l0.2-0.6c0.1-0.2,1-0.4,2.1-0.4l0,0     c1,0,1.8,0.2,1.7,0.5l-0.2,0.6C397.4,205.4,396.5,205.6,395.4,205.5z"/>
			<path id="XMLID_6_" class="st26" d="M423.3,206.1L423.3,206.1c-1,0-1.8-0.2-1.7-0.5l0.2-0.6c0.1-0.2,1-0.4,2.1-0.4l0,0     c1,0,1.8,0.2,1.7,0.5l-0.2,0.6C425.2,205.9,424.3,206.1,423.3,206.1z"/>
		</g>
		<g id="BOCA_1_">
			<path id="XMLID_230_" class="st27" d="M412.9,226.9c0,0-7.3,1.3-13.1-2.7C399.7,224.2,403.8,230.9,412.9,226.9z"/>
		</g>
	</g>
	<g id="BRAZO_DERE_1_">
		<g>
			<path id="XMLID_216_" class="st22" d="M411.1,255.1c0,0,42.6,20.3,45,19.2c2.3-1.1,24.8-32.3,24.8-32.3l-7.4-0.8L453.2,265     L427,250.5L411.1,255.1z"/>
			<path id="XMLID_214_" class="st23" d="M485.2,236.6c0,0,4.8-9.8,5.7-20.4c0,0-2.5-0.3-2.8,3.8c-0.3,3.9-3.9,9.3-3.9,9.3     L485.2,236.6z"/>
			<path id="XMLID_213_" class="st23" d="M485.2,236.6c0,0,4.2-10.6,1.2-19.6c0,0-2-0.2-1.6,3.1c0.3,3.3-1,11.1-3,12.4     C481.7,232.5,482.3,236.9,485.2,236.6z"/>
			<path id="XMLID_212_" class="st22" d="M472.5,248.3c0,0,12.6-6.6,12.6-12.2c0-5.6,1.6-10.4-4.9-15.8c0,0-1.4,2.3,1.4,5.9     c0,0,2.1,3.8-2,9.3c0,0-5.6,0.8-8.6,6C471.1,241.4,470.1,246.6,472.5,248.3z"/>
			<g id="phone_1_">
				<g>
					<path class="st28" d="M467.7,262.3l-2-1.2c-4-2.4-5.1-6.8-2.6-9.8l22.7-26.9c2.5-3,7.8-3.5,11.8-1.1l2,1.2       c4,2.4,5.1,6.8,2.6,9.8l-22.7,26.9C477,264.2,471.7,264.7,467.7,262.3z"/>
					<path class="st29" d="M464.1,260.2l-2-1.2c-4-2.4-5.1-6.8-2.6-9.8l22.7-26.9c2.5-3,7.8-3.5,11.8-1.1l2,1.2       c4,2.4,5.1,6.8,2.6,9.8L476,259.1C473.4,262.1,468.1,262.6,464.1,260.2z"/>
				</g>
				<polygon class="st10" points="474,259.6 460.2,251.5 486,219.9 499.7,228     "/>
				<path class="st30" d="M482.4,244.4l-4.8-2.9c-1.1-0.7-1.4-1.9-0.7-2.7l0.4-0.4c0.7-0.8,2.2-1,3.2-0.3l4.8,2.9      c1.1,0.7,1.4,1.9,0.7,2.7l-0.4,0.4C485,244.9,483.5,245.1,482.4,244.4z"/>
				<path class="st31" d="M485.8,233.1l-4.9-3c-1.1-0.7-1.4-1.9-0.7-2.7l0.4-0.4c0.7-0.8,2.2-1,3.2-0.3l4.9,3      c1.1,0.7,1.4,1.9,0.7,2.7l-0.4,0.4C488.4,233.6,486.9,233.8,485.8,233.1z"/>
				<path class="st31" d="M471.5,250.7l-4.9-3c-1.1-0.7-1.4-1.9-0.7-2.7l0.4-0.4c0.7-0.8,2.2-1,3.2-0.3l4.9,3      c1.1,0.7,1.4,1.9,0.7,2.7l-0.4,0.4C474.1,251.2,472.6,251.4,471.5,250.7z"/>
			</g>
			<path id="XMLID_215_" class="st23" d="M466.1,241.4c0,0,0-4.5,1.9-8.3c1.4-2.7,2.2-7,2.2-7s2.3-0.2,1.5,4.1     c-0.8,4.3,0.4,6.4,0.4,6.4L466.1,241.4z"/>
		</g>
	</g>
    <g id="BRAZO_DERE-2">
		<g>
			<path id="XMLID_37_" class="st22" d="M410.3,248.2c0,0,34.1,32.6,36.8,32.3c2.5-0.3,33.6-23,33.6-23l-6.8-3.1l-26.7,16.3     l-20.4-21.9L410.3,248.2z"/>
			<path id="XMLID_35_" class="st23" d="M486.5,253.7c0,0,7.6-7.8,11.8-17.6c0,0-2.3-1.1-3.8,2.7c-1.5,3.6-6.6,7.6-6.6,7.6     L486.5,253.7z"/>
			<path id="XMLID_34_" class="st23" d="M486.5,253.7c0,0,7.3-8.8,7.3-18.2c0,0-1.8-0.8-2.5,2.4c-0.7,3.2-4.4,10.2-6.7,10.8     C484.5,248.7,483.7,253.1,486.5,253.7z"/>
			<path id="XMLID_32_" class="st22" d="M470.8,260.9c0,0,14-2.3,15.8-7.7c1.7-5.3,4.8-9.4,0.3-16.5c0,0-2,1.7-0.5,6     c0,0,0.8,4.3-4.8,8.2c0,0-5.6-1-10,3C471.6,253.9,469,258.5,470.8,260.9z"/>
			<g id="phone_4_">
				<g>
					<path class="st28" d="M461.9,272.7l-1.5-1.8c-3.1-3.5-2.7-8.1,0.6-10.1l30-18.5c3.3-2.1,8.5-0.9,11.6,2.6l1.5,1.8       c3.1,3.5,2.7,8.1-0.6,10.1l-30,18.5C470.1,277.4,464.9,276.2,461.9,272.7z"/>
					<path class="st29" d="M459.1,269.6l-1.5-1.8c-3.1-3.5-2.7-8.1,0.6-10.1l30-18.5c3.3-2.1,8.5-0.9,11.6,2.6l1.5,1.8       c3.1,3.5,2.7,8.1-0.6,10.1l-29.9,18.5C467.3,274.3,462.2,273.1,459.1,269.6z"/>
				</g>
				<polygon class="st10" points="468.7,272.1 458.1,260.1 492.5,238.1 503,250.1     "/>
				<path class="st30" d="M481.4,260.3l-3.7-4.3c-0.8-1-0.7-2.2,0.2-2.8l0.5-0.3c0.9-0.5,2.4-0.3,3.1,0.7l3.7,4.3      c0.8,1,0.7,2.2-0.2,2.8l-0.5,0.3C483.7,261.6,482.2,261.3,481.4,260.3z"/>
				<path class="st31" d="M488.2,250.6l-3.7-4.4c-0.8-1-0.7-2.2,0.2-2.8l0.5-0.3c0.9-0.5,2.4-0.3,3.1,0.7l3.7,4.4      c0.8,1,0.7,2.2-0.2,2.8l-0.5,0.3C490.5,251.9,489,251.6,488.2,250.6z"/>
				<path class="st31" d="M469.1,262.9l-3.7-4.4c-0.8-1-0.7-2.2,0.2-2.8l0.5-0.3c0.9-0.5,2.4-0.3,3.1,0.7l3.7,4.4      c0.8,1,0.7,2.2-0.2,2.8l-0.5,0.3C471.4,264.1,469.9,263.9,469.1,262.9z"/>
			</g>
			<path id="XMLID_25_" class="st23" d="M466.9,252.3c0,0,1.4-4.3,4.4-7.3c2.2-2.1,4.3-6,4.3-6s2.2,0.5,0.1,4.4     c-2.1,3.8-1.6,6.2-1.6,6.2L466.9,252.3z"/>
		</g>
	</g>
	<g id="CUERPO_1_">
		<g id="XMLID_67_">
			<polygon id="XMLID_147_" class="st23" points="432.7,449 432.5,458.3 426.7,458.3 426.6,449    "/>
			<path id="XMLID_146_" class="st32" d="M463.7,471.3h-37.1l0-2.5l0.1-10.5h5.8c0,0,22.3,4,29.3,10.5     C462.7,469.6,463.3,470.4,463.7,471.3z"/>
			<path id="XMLID_145_" class="st33" d="M435.4,458.3l-2.1,4.5l4.2,1.2l2.1-4.9C439.7,459.2,438.1,457.7,435.4,458.3z"/>
			<path id="XMLID_144_" class="st33" d="M440.6,459.6l-2.1,4.5l4.2,1.2l2.1-4.9C444.8,460.5,443.3,459,440.6,459.6z"/>
			<path id="XMLID_143_" class="st33" d="M463.7,471.3h-37.1l0-2.5h35.2C462.7,469.6,463.3,470.4,463.7,471.3z"/>
			<polygon id="XMLID_142_" class="st23" points="376.7,449 374.9,458.3 380.7,458.3 382.8,449    "/>
			<path id="XMLID_141_" class="st32" d="M343.7,471.3h37.1l0-2.5l-0.1-10.5h-5.8c0,0-22.3,4-29.3,10.5     C344.7,469.6,344,470.4,343.7,471.3z"/>
			<path id="XMLID_140_" class="st33" d="M372,458.3l2.1,4.5l-4.2,1.2l-2.1-4.9C367.7,459.2,369.3,457.7,372,458.3z"/>
			<path id="XMLID_139_" class="st33" d="M366.8,459.6l2.1,4.5l-4.2,1.2l-2.1-4.9C362.6,460.5,364.1,459,366.8,459.6z"/>
			<path id="XMLID_138_" class="st33" d="M343.7,471.3h37.1l0-2.5h-35.2C344.7,469.6,344,470.4,343.7,471.3z"/>
			<path id="XMLID_137_" class="st22" d="M389.4,254.6l-8.3,2.6l0.2,46.7l-10.1,44.7l8.9,4l9.8-40.6l2.4-40.3     C392.2,271.6,392.3,256.7,389.4,254.6z"/>
			<path id="XMLID_136_" class="st34" d="M399.2,318.3c0,0-6.9,13.1-7.1,38.3l-18.9,95.8l13,1.6l24.8-94.6c0.2-2.7,5.3-19.5,9.3,0.2     l3.5,5.1l1.9-18.3l-3.7-28.3H399.2z"/>
			<path id="XMLID_135_" class="st34" d="M438.3,315.2c0,0,5.4,12.2,0,44.8c-5.5,33.1-1.4,92.7-1.4,92.7l-13.4,1.4l-0.9-60.6     l-5.1-75.1L438.3,315.2z"/>
			<path id="XMLID_134_" class="st22" d="M413.6,249l-11.6,1.5c-0.9,0.1-1.8-0.5-1.9-1.4l-2.6-20.3c-0.1-0.9,0.5-1.8,1.4-1.9     l11.6-1.5c0.9-0.1,1.8,0.5,1.9,1.4l2.6,20.3C415.1,248.1,414.5,248.9,413.6,249z"/>
			<g id="XMLID_107_">
				<g id="XMLID_132_">
					<path id="XMLID_133_" class="st35" d="M439.8,325.7l-0.7,0c0-0.9,0-1.4,0-1.4l0.7,0C439.8,324.3,439.8,324.8,439.8,325.7z"/>
				</g>
				<g id="XMLID_110_">
					<path id="XMLID_111_" class="st35" d="M434.1,439.9c0-0.8-0.1-1.8-0.1-2.9l0.7,0c0,1.1,0.1,2,0.1,2.9L434.1,439.9z        M433.8,434.2l-0.1-2.9l0.7,0l0.1,2.9L433.8,434.2z M433.7,428.5l-0.1-2.9l0.7,0l0.1,2.9L433.7,428.5z M433.5,422.7l-0.1-2.9       l0.7,0l0.1,2.9L433.5,422.7z M433.4,417c0-0.9,0-1.9,0-2.9l0.7,0c0,1,0,1.9,0,2.9L433.4,417z M433.4,411.3c0-0.9,0-1.9,0-2.9       l0.7,0c0,1,0,1.9,0,2.9L433.4,411.3z M434.1,405.6h-0.7c0-1,0-1.9,0-2.9l0.7,0C434.1,403.7,434.1,404.6,434.1,405.6z        M434.1,399.8l-0.7,0c0-1,0-1.9,0-2.9l0.7,0C434.1,397.9,434.1,398.9,434.1,399.8z M434.2,394.1l-0.7,0c0-1,0.1-1.9,0.1-2.9       l0.7,0C434.3,392.2,434.2,393.2,434.2,394.1z M434.4,388.4l-0.7,0c0-1,0.1-1.9,0.1-2.9l0.7,0       C434.5,386.5,434.4,387.5,434.4,388.4z M434.7,382.7l-0.7,0c0.1-1,0.1-1.9,0.2-2.9l0.7,0.1       C434.8,380.8,434.7,381.7,434.7,382.7z M435.1,377l-0.7-0.1c0.1-1,0.2-1.9,0.3-2.9l0.7,0.1C435.3,375.1,435.2,376,435.1,377z        M435.7,371.3l-0.7-0.1c0.1-1,0.2-1.9,0.4-2.8l0.7,0l0,0.1C435.9,369.5,435.8,370.4,435.7,371.3z M436.5,365.7l-0.7-0.1       c0.1-1,0.3-1.9,0.4-2.8l0.7,0.1C436.8,363.8,436.6,364.7,436.5,365.7z M437.2,360l-0.7-0.1c0.1-1,0.2-1.9,0.3-2.8l0.7,0.1       C437.5,358.1,437.4,359,437.2,360z M437.9,354.3l-0.7-0.1c0.1-1,0.2-1.9,0.3-2.8l0.7,0.1C438.1,352.4,438,353.3,437.9,354.3z        M438.5,348.6l-0.7-0.1c0.1-1,0.2-1.9,0.3-2.8l0.7,0.1C438.7,346.7,438.6,347.6,438.5,348.6z M439,342.9l-0.7-0.1       c0.1-1,0.1-1.9,0.2-2.9l0.7,0C439.1,341,439,341.9,439,342.9z M439.3,337.2l-0.7,0c0.1-1,0.1-2,0.2-2.9l0.7,0       C439.5,335.2,439.4,336.2,439.3,337.2z M439.6,331.5l-0.7,0c0-1.1,0.1-2,0.1-2.9l0.7,0C439.7,329.4,439.7,330.4,439.6,331.5z"/>
				</g>
				<g id="XMLID_108_">
					<polygon id="XMLID_109_" class="st35" points="434.3,444.2 434.2,442.8 434.9,442.7 435,444.2      "/>
				</g>
			</g>
			<g id="XMLID_83_">
				<path id="XMLID_84_" class="st35" d="M377,443.3l-0.7-0.1l0.6-2.8l0.7,0.1L377,443.3z M378.1,437.7l-0.7-0.1l0.6-2.8l0.7,0.1      L378.1,437.7z M379.2,432l-0.7-0.1l0.6-2.8l0.7,0.1L379.2,432z M380.3,426.4l-0.7-0.1l0.6-2.8l0.7,0.1L380.3,426.4z       M381.4,420.7l-0.7-0.1l0.6-2.8l0.7,0.1L381.4,420.7z M382.5,415.1l-0.7-0.1l0.6-2.8l0.7,0.1L382.5,415.1z M383.6,409.4      l-0.7-0.1l0.6-2.8l0.7,0.1L383.6,409.4z M384.7,403.8l-0.7-0.1l0.6-2.8l0.7,0.1L384.7,403.8z M385.8,398.1l-0.7-0.1l0.6-2.8      l0.7,0.1L385.8,398.1z M387,392.4l-0.7-0.1l0.6-2.8l0.7,0.1L387,392.4z M388.1,386.8l-0.7-0.1l0.6-2.8l0.7,0.1L388.1,386.8z       M389.2,381.1l-0.7-0.1l0.6-2.8l0.7,0.1L389.2,381.1z M390.3,375.5l-0.7-0.1l0.6-2.8l0.7,0.1L390.3,375.5z M391.4,369.8      l-0.7-0.1l0.6-2.8l0.7,0.1L391.4,369.8z M392.5,364.2l-0.7-0.1l0.6-2.8l0.7,0.1L392.5,364.2z M393.6,358.5l-0.7-0.1l0.1-0.5      c0,0,0-0.9,0-2.3l0.7,0c0,1.5-0.1,2.3-0.1,2.3L393.6,358.5z M393.9,352.7l-0.7,0c0-0.9,0.1-1.9,0.2-2.9l0.7,0      C394,350.8,393.9,351.8,393.9,352.7z M394.2,346.9l-0.7-0.1c0.1-0.9,0.2-1.9,0.2-2.9l0.7,0.1C394.4,345,394.3,346,394.2,346.9z       M394.8,341.2l-0.7-0.1c0.1-0.9,0.2-1.9,0.4-2.9l0.7,0.1C395,339.3,394.9,340.3,394.8,341.2z M395.6,335.5l-0.7-0.1      c0.2-1,0.3-1.9,0.5-2.9l0.7,0.1C395.9,333.6,395.7,334.5,395.6,335.5z M396.6,329.9l-0.7-0.2c0.2-1,0.5-1.9,0.7-2.8l0.7,0.2      C397.1,327.9,396.9,328.9,396.6,329.9z"/>
			</g>
			<polygon id="XMLID_82_" class="st22" points="401,249.5 389.4,254.6 393.1,277 432.6,270.2 427.4,250.3 414,248    "/>
			<polygon id="XMLID_81_" class="st36" points="422.5,447.2 437.4,445.9 438,454.1 422.9,455.8    "/>
			<polygon id="XMLID_80_" class="st36" points="373.8,444.2 388.7,447 386.6,455.8 371.8,453.3    "/>
			<path id="XMLID_79_" class="st36" d="M397.7,322c0,0,20.9,5.5,41.8-2.8c0,0,0.1-0.4-0.3-2c-0.3-1.2-0.8-1.9-0.8-1.9     s-18,6.1-39.1,3c0,0-0.4,0.4-1,1.7C397.7,321.2,397.7,322,397.7,322z"/>
			<path id="XMLID_78_" class="st35" d="M398.2,331.3c0,0,8.2,3,10-6h2.4c0,0-1,11.5-12.9,8.4L398.2,331.3z"/>
			<path id="XMLID_77_" class="st35" d="M436.3,329.8c0,0-7.8,3.8-10.5-4.9l-2.4,0.3c0,0,2.2,11.4,13.7,7L436.3,329.8z"/>
			<polygon id="XMLID_76_" class="st35" points="417.5,324.3 416.1,348.5 417.5,348.5 418.6,324.3    "/>
			<path id="XMLID_75_" class="st37" d="M414.9,319.1c0,0-0.6,1.5,0,4.6c0,0,3.9,0.5,8.1-0.5c0,0,0.4-2-0.3-4.8     C422.7,318.5,418.5,318.4,414.9,319.1z"/>
			<g>
				<polygon id="XMLID_74_" class="st38" points="385.8,333.1 400.8,288.5 397.7,286.9 381.7,331.4     "/>
				<polygon id="XMLID_73_" class="st38" points="380.6,331.4 389.8,339 394.1,338.7 385.1,331.4     "/>
				<polygon id="XMLID_72_" class="st39" points="379.4,377.6 367.9,365.8 380.6,331.4 389.8,339     "/>
				<path id="XMLID_71_" class="st40" d="M394.1,338.7c0,0-2.6,16.8-6.4,40.5l-8.2-1.6c0,0,2.5-19.7,10.4-38.7L394.1,338.7z"/>
				<polygon id="XMLID_70_" class="st41" points="427.4,250.3 394.1,338.7 389.8,339 423.1,249.5     "/>
			</g>
			<path id="XMLID_69_" class="st42" d="M392.2,271.6c0,0,5.5-7.8,18.4-5c0,0,12.5-7.6,20.7-1.4c0,0,3.3,3.6,0.4,20.1     c-3.6,20.1,6.7,29.9,6.7,29.9s-18.5,6.7-39.1,3c0,0,8.5-14.1,0.5-25.1C390.8,281,392.2,276.5,392.2,271.6z"/>
			<path id="XMLID_68_" class="st22" d="M380,350.2c0,0,3.8,3.8,3.9,11.5c0,1.8-1.3,8.8-4-3.2c0,0-2.7,3.8,1.5,13.1     c0,0,0.3,6.2-3.7,2.5c0,0-12.9-2.1-6.5-25.5L380,350.2z"/>
		</g>
	</g>
</g>
<g id="girl1">
	<g id="CARA">
		<g>
			<path id="XMLID_44_" class="st23" d="M236.9,201.8L236.9,201.8c-4.1-0.3-7.1-4-6.8-8l0.7-8.8c0.3-4.1,4-7.1,8-6.8h0     c4.1,0.3,7.1,4,6.8,8L245,195C244.6,199.1,241,202.2,236.9,201.8z"/>
			<path id="XMLID_42_" class="st22" d="M301.6,207L301.6,207c-3.9-1.1-6.2-5.3-5.1-9.2l2.4-8.5c1.1-3.9,5.3-6.2,9.2-5.1h0     c3.9,1.1,6.2,5.3,5.1,9.2l-2.4,8.5C309.7,205.8,305.5,208.1,301.6,207z"/>
			<path id="XMLID_40_" class="st23" d="M270.4,237.5H268c-4.5,0-8.1-3.7-8.1-8.1v-4.1c0-4.5,3.7-8.1,8.1-8.1h2.3     c4.5,0,8.1,3.7,8.1,8.1v4.1C278.5,233.8,274.9,237.5,270.4,237.5z"/>
			<path id="XMLID_39_" class="st22" d="M237,200.7l3.5-41.8c1.3-15,14.5-26.2,29.5-24.9l12.5,1c15,1.3,26.2,14.5,24.9,29.5     l-3.1,37.4c-0.7,8.5-12.4,33.2-34.6,31.3C246.7,231.3,236.4,208.3,237,200.7z"/>
			<path id="XMLID_36_" class="st23" d="M272,200.4c0,0,5.7,6.5-2.8,7C269.2,207.4,280.9,208.4,272,200.4z"/>
			<path id="XMLID_33_" class="st43" d="M264.4,179.3c-2.4-1.4-8.3-4-15.6-0.6c-0.7,0.3-1.6-0.1-1.8-0.9l-0.2-0.8     c-0.1-0.6,0.2-1.1,0.7-1.4c2.6-1.3,10.3-4.2,18.2,1.5c0.5,0.4,0.7,1,0.4,1.6h0C265.9,179.4,265.1,179.7,264.4,179.3z"/>
			<g>
				<path id="XMLID_30_" class="st44" d="M234.4,174c0.4,7.3,1.4,15.2,2.6,23.8l2.1-22.2c0,0,9.7-9.9,15.2-23.2      c0,0,11.6,31.2,50.5,39.4l-0.4,8.6c0,0,10.9-12.5,9.3-38.8c-1.6-26.4-36.6-45.4-62.2-31C236.8,138.9,233.3,153.9,234.4,174z"/>
				<path id="XMLID_27_" class="st43" d="M262,143.6c1.9,9,10.9,26.1,31.7,32.6c20.7,6.5-9.2-1.6-20.2-24.4      C265.8,136,260.1,134.6,262,143.6z"/>
				<path id="XMLID_9_" class="st43" d="M234.4,174c0.4,7.3,1.4,15.2,2.6,23.8l2.1-22.2c0,0,9.7-9.9,15.2-23.2      c0,0,11.6,31.2,50.5,39.4l-0.4,8.6l3.1-12.5c0,0-34.8-6.7-53.8-47C253.7,140.9,246.1,164.6,234.4,174z"/>
			</g>
		</g>
	</g>
	<g id="BRAZO_DERE">
		<path id="XMLID_51_" class="st22" d="M288.4,331.4l-2.6,7.5c0,0-4.7,2.5-6.9,10.2c-2.2,7.7,3.2,3.6,5.1,0.6c0,0-2.5,8.1,0.5,9.2    c0,0,4.8,2.4,6.6,0.4c0,0,4,1.6,5.6-0.5c0,0,3.4,2.3,4.9-1l-3.2-0.3c0,0,2.9-14.9-5-19l0.8-6.9L288.4,331.4z"/>
		<path id="XMLID_50_" class="st45" d="M292.5,246.3c0,0,2.8,3.4,6.3,21.2c3.5,17.8,5.8,40,5.8,40l-8.7,30l-11.8-3.7l8.5-25.9    l-6.9-35C285.8,272.8,285.9,253,292.5,246.3z"/>
	</g>
	<g id="CUERPO">
		<g>
			<path id="XMLID_46_" class="st46" d="M249.1,317.2c0,0-6.2,16.7-1.6,43.9L235.3,469l13,1.4l17.9-106.5c0.2-3,3.6-15.8,5.3,0.3     l3.7,5.7l2-20.6l-4-32H249.1z"/>
			<path id="XMLID_45_" class="st46" d="M290.7,313.8c0,0,5.7,13.9,0,50.6c-5.8,37.5-1.5,104.9-1.5,104.9l-14.3,1.6l-1-68.6l-5.5-85     L290.7,313.8z"/>
			<path id="XMLID_29_" class="st47" d="M247.5,321.4c0,0,22.2,6.2,44.4-3.2c0,0,0.1-0.5-0.3-2.3c-0.4-1.4-0.9-2.2-0.9-2.2     s-19.1,6.9-41.6,3.4c0,0-0.4,0.5-1,1.9C247.5,320.5,247.5,321.4,247.5,321.4z"/>
			<path id="XMLID_28_" class="st48" d="M265.7,318.1c0,0-0.7,1.7,0,5.3c0,0,4.2,0.6,8.6-0.6c0,0,0.4-2.3-0.3-5.4     C274.1,317.4,269.6,317.3,265.7,318.1z"/>
			<path id="XMLID_26_" class="st23" d="M303.5,499.1h-16.6c-3.1-8.7-11.9-15.6-11.9-15.6l2.4-5.7l0.9-2.2c2.5-3.5,6.2,0,6.2,0     c1.3,5.2,7.7,12.5,12.7,17.5C300.6,496.6,303.5,499.1,303.5,499.1z"/>
			<path id="XMLID_23_" class="st23" d="M218.4,499.1h16.6c3.1-8.7,11.9-15.6,11.9-15.6l-2.4-5.7l-0.9-2.2c-2.5-3.5-6.2,0-6.2,0     c-1.3,5.2-7.7,12.5-12.7,17.5C221.2,496.6,218.4,499.1,218.4,499.1z"/>
		</g>
		<g>
			<path id="XMLID_41_" class="st22" d="M276.2,242.9l-13.9-0.1c-0.9,0-1.5-0.7-1.5-1.6l0.2-23.8c0-0.9,0.7-1.5,1.6-1.5l13.9,0.1     c0.9,0,1.5,0.7,1.5,1.6l-0.2,23.8C277.8,242.2,277.1,242.9,276.2,242.9z"/>
			<polygon id="XMLID_31_" class="st22" points="261.8,241.4 247.9,245.8 248.7,271.1 293.9,269.5 291.2,246.4 276.5,241.8    "/>
			<path id="XMLID_15_" class="st45" d="M270.7,257.6l9.3-0.5l-0.5-14.4l13.3,3.8l1.4,21.1l-3.5,34.6l-1.3,19.2     c0,0-17.3,4.6-40.1-3.2c0,0-1.9-32-1.8-32.9c1.1-12.7,1-24,1-24l-2.6-15.1l12.1-4.4l2.6,14.4L270.7,257.6z"/>
		</g>
	</g>
	<g id="BRAZO_IZQ">
		<g>
			<path id="XMLID_13_" class="st23" d="M180.7,282.5c0,0-3.2-10.4-2.4-21.1c0,0,2.5,0.1,2.1,4.2c-0.3,3.9,2.4,9.8,2.4,9.8     L180.7,282.5z"/>
			<path id="XMLID_12_" class="st45" d="M256.4,242.9c0,0-11.5-0.5-16.8,10.8c-5.3,11.3-16,43.9-16,43.9l-30.4-9.2l-1.9,7.7     c0,0,24.3,12.9,35.3,13.9C226.7,310,260,255.1,256.4,242.9z"/>
			<path id="XMLID_11_" class="st23" d="M180.7,282.5c0,0-2.4-11.2,2-19.5c0,0,2,0.1,1.1,3.3c-0.9,3.2-0.7,11.1,1,12.7     C184.8,279,183.5,283.3,180.7,282.5z"/>
			<path id="XMLID_10_" class="st22" d="M194.3,294.1c0,0-14.2-1.6-16.2-6.9c-2-5.2-5.2-9.1-1.2-16.5c0,0,2.1,1.6,0.9,6     c0,0-0.6,4.3,5.2,8c0,0,5.5-1.3,10.2,2.4C193.1,287.2,195.9,291.6,194.3,294.1z"/>
			<path id="XMLID_8_" class="st45" d="M248.8,244.5c0,0-10.1,0.1-16.7,25.6c-6.6,25.4-9.3,25.2-9.3,25.2s-2.1-1.9-2.6-0.4     c0,0-3.2-4.2-7.4-1.2l-4.1,10.6c0,0,11.5,7.9,18,5.7l13.1-22.3L248.8,244.5z"/>
			<polygon id="XMLID_7_" class="st45" points="213.1,293.5 204.4,291.2 201.3,301 209,304.4    "/>
			<g id="phone_2_">
				<g>
					<path class="st28" d="M202,299.3l2-1.2c4-2.4,5.1-6.8,2.6-9.8L184,261.4c-2.5-3-7.8-3.5-11.8-1.1l-2,1.2       c-4,2.4-5.1,6.8-2.6,9.8l22.7,26.9C192.7,301.2,198,301.7,202,299.3z"/>
					<path class="st29" d="M205.6,297.2l2-1.2c4-2.4,5.1-6.8,2.6-9.8l-22.7-26.9c-2.5-3-7.8-3.5-11.8-1.1l-2,1.2       c-4,2.4-5.1,6.8-2.6,9.8l22.7,26.9C196.3,299.1,201.6,299.6,205.6,297.2z"/>
				</g>
				<polygon class="st10" points="195.7,296.6 209.5,288.5 183.8,256.9 170,265     "/>
				<path class="st30" d="M187.3,281.4l4.8-2.9c1.1-0.7,1.4-1.9,0.7-2.7l-0.4-0.4c-0.7-0.8-2.2-1-3.2-0.3l-4.8,2.9      c-1.1,0.7-1.4,1.9-0.7,2.7l0.4,0.4C184.8,281.9,186.2,282.1,187.3,281.4z"/>
				<path class="st31" d="M183.9,270.1l4.9-3c1.1-0.7,1.4-1.9,0.7-2.7l-0.4-0.4c-0.7-0.8-2.2-1-3.2-0.3l-4.9,3      c-1.1,0.7-1.4,1.9-0.7,2.7l0.4,0.4C181.4,270.6,182.8,270.8,183.9,270.1z"/>
				<path class="st31" d="M198.2,287.7l4.9-3c1.1-0.7,1.4-1.9,0.7-2.7l-0.4-0.4c-0.7-0.8-2.2-1-3.2-0.3l-4.9,3      c-1.1,0.7-1.4,1.9-0.7,2.7l0.4,0.4C195.7,288.2,197.1,288.4,198.2,287.7z"/>
			</g>
			<path id="XMLID_17_" class="st23" d="M196.3,272.6c0.1,4.4-1.4,6.2-1.4,6.2l5.2,5.7c0,0,0.7-4.5-0.6-8.5"/>
		</g>
	</g>
    <g id="BRAZO_IZQ-2">
		<g>
			<path id="XMLID_24_" class="st23" d="M178.4,257.1c0,0,0-10.9,4-20.9c0,0,2.4,0.8,0.8,4.6c-1.4,3.6-0.6,10.1-0.6,10.1     L178.4,257.1z"/>
			<path id="XMLID_22_" class="st45" d="M262.4,241.8c0,0-10.8-3.9-19.3,5.3c-8.4,9.2-28.4,37.1-28.4,37.1l-26.3-17.8l-4.1,6.8     c0,0,19.3,19.6,29.5,23.8C214.1,297,262.2,254.6,262.4,241.8z"/>
			<path id="XMLID_21_" class="st23" d="M178.4,257.1c0,0,1-11.4,7.7-18c0,0,1.9,0.7,0.1,3.5c-1.8,2.8-4,10.4-2.8,12.4     C183.3,254.9,180.8,258.7,178.4,257.1z"/>
			<path id="XMLID_20_" class="st22" d="M187.9,272.2c0,0-13.1-5.8-13.4-11.4c-0.4-5.6-2.2-10.2,3.8-16.1c0,0,1.5,2.2-0.9,6     c0,0-1.9,3.9,2.6,9.2c0,0,5.6,0.4,9,5.3C188.8,265.2,190.1,270.3,187.9,272.2z"/>
			<path id="XMLID_19_" class="st45" d="M254.7,241.1c0,0-9.7-2.9-23.6,19.5c-13.9,22.3-16.4,21.3-16.4,21.3s-1.4-2.4-2.4-1.2     c0,0-1.8-5-6.7-3.4l-7.1,8.9c0,0,8.6,11,15.5,10.8l19.2-17.4L254.7,241.1z"/>
			<polygon id="XMLID_18_" class="st45" points="206,277.2 198.4,272.4 192.5,280.9 198.8,286.4    "/>
			<g id="phone_3_">
				<g>
					<path class="st28" d="M193.7,279.4l2.3-0.5c4.5-1.1,6.9-5,5.4-8.6l-13.5-32.4c-1.5-3.6-6.4-5.7-10.9-4.6l-2.3,0.5       c-4.5,1.1-6.9,5-5.4,8.6l13.6,32.4C184.2,278.5,189.1,280.5,193.7,279.4z"/>
					<path class="st29" d="M197.7,278.5l2.3-0.5c4.5-1.1,6.9-5,5.4-8.6l-13.6-32.4c-1.5-3.6-6.4-5.7-10.9-4.6l-2.3,0.5       c-4.5,1.1-6.9,5-5.4,8.6l13.6,32.4C188.3,277.6,193.2,279.6,197.7,278.5z"/>
				</g>
				<polygon class="st10" points="188.5,275 204.1,271.4 188.9,233.5 173.4,237.2     "/>
				<path class="st30" d="M185,258l5.4-1.3c1.3-0.3,1.9-1.4,1.5-2.4l-0.3-0.5c-0.4-1-1.8-1.6-3-1.2l-5.4,1.3      c-1.3,0.3-1.9,1.4-1.5,2.4l0.3,0.5C182.4,257.7,183.7,258.3,185,258z"/>
				<path class="st31" d="M185.1,246.2l5.6-1.4c1.3-0.3,1.9-1.4,1.5-2.4l-0.3-0.5c-0.4-1-1.8-1.6-3-1.2l-5.6,1.4      c-1.3,0.3-1.9,1.4-1.5,2.4l0.3,0.5C182.6,245.9,183.8,246.5,185.1,246.2z"/>
				<path class="st31" d="M193.5,267.2l5.6-1.4c1.3-0.3,1.9-1.4,1.5-2.4l-0.3-0.5c-0.4-1-1.8-1.6-3-1.2l-5.6,1.4      c-1.3,0.3-1.9,1.4-1.5,2.4l0.3,0.5C191,267,192.2,267.6,193.5,267.2z"/>
			</g>
			<path id="XMLID_16_" class="st23" d="M196.2,252.3c-1.2,4.2-3.2,5.5-3.2,5.5l3.3,7c0,0,2-4.1,2-8.3"/>
		</g>
	</g>
	<g id="BOCA">
		<g id="XMLID_3_">
			<path id="XMLID_52_" class="st26" d="M260.6,217.5c0,0,0.6,1.7,1.8,3.4c0.2,0.2,0.3,0.5,0.5,0.7c2,2.5,5.3,4.7,9.9,1.2     c0.1-0.1,0.3-0.2,0.4-0.3c0.9-0.7,1.8-1.6,2.8-2.8C276,219.6,268.2,220,260.6,217.5z"/>
			<path id="XMLID_53_" class="st49" d="M262.9,221.6c2,2.5,5.3,4.7,9.9,1.2c-0.9-1.4-2.8-2.5-4.9-2.7     C265.9,219.9,264.1,220.5,262.9,221.6z"/>
		</g>
	</g>
	<g id="OJOS">
		<path id="XMLID_2_" class="st26" d="M254.4,196.4L254.4,196.4c-1.2-0.1-2.1-1.1-2-2.3l0.2-2.9c0.1-1.2,1.1-2.1,2.3-2l0,0    c1.2,0.1,2.1,1.1,2,2.3l-0.2,2.9C256.6,195.6,255.5,196.5,254.4,196.4z"/>
		<path id="XMLID_1_" class="st26" d="M285.9,199.1L285.9,199.1c-1.2-0.1-2.1-1.1-2-2.3l0.2-2.9c0.1-1.2,1.1-2.1,2.3-2l0,0    c1.2,0.1,2.1,1.1,2,2.3l-0.2,2.9C288.1,198.3,287.1,199.2,285.9,199.1z"/>
	</g>
    <g id="ojos-closed">
		<path id="XMLID_5_" class="st26" d="M254.4,194.7L254.4,194.7c-1.2,0-2.1-0.3-2-0.6l0.2-0.7c0.1-0.3,1.1-0.5,2.3-0.5l0,0    c1.2,0,2.1,0.3,2,0.6l-0.2,0.7C256.6,194.5,255.5,194.8,254.4,194.7z"/>
		<path id="XMLID_4_" class="st26" d="M285.9,195.4L285.9,195.4c-1.2,0-2.1-0.3-2-0.6l0.2-0.7c0.1-0.3,1.1-0.5,2.3-0.5l0,0    c1.2,0,2.1,0.3,2,0.6l-0.2,0.7C288.1,195.2,287.1,195.4,285.9,195.4z"/>
	</g>
</g>
<g id="TAXI">
	<g>
		<path class="st50" d="M1154.1,360c-9.5,0.1-19,0.2-28.6,0.3c-35.7,0.3-71.4,0.6-107.1,0.9c-3.4,1.1-3.8-1.1-4-3.5    c-0.4-5.6-0.7-11.3-1.6-16.8c-2.3-14.6-8.5-27.4-17.7-38.9c-3.6-4.5-8.5-7.4-13-10.8c-1.5-1.1-4.1-2.1-1.9-4.8    c5.1-1.3,10.4-0.9,15.6-1.7c5.1,0.1,10.1-0.3,15.2-0.9c5.4,0.3,10.8-0.8,16.2-0.9c4.1,0.2,8.3-1,12.2,1.1c1.4,1.5,0.8,3.3,0.8,5.1    c-0.5,22.4-2.5,44.7-3.4,67.1c0,0.1,0.2,0.2,0.4,0.5c0.8-11.7,1.5-23.2,2-34.8c0.5-10.7,1.4-21.3,1.7-32c0-1.7,0.6-3.6-0.8-5.1    c-1.4-2.6,1.4-3.5,2.2-5.2c5.2,3.5,10.6,3.5,16.1,0.8c5.4,1.5,10.9,0.5,16.4,0.8c5.3,0.2,10.4-1.4,15.7-0.9    c5.1-0.2,10.2,0.2,15.2-0.8c5.1-0.3,10.3-0.2,15.4-0.1c2.5,0,5-0.1,7.4,0c3.6,0.2,6.6-0.7,8.3-4.2c4.7,5.1,10.9,2.8,16.6,3.3    c5.3-0.2,10.6-0.2,15.9,0c3,0.1,6,0,8.9,0.1c2.9,0.1,4.4,1.5,4.6,4.3c0.1,1.5,0.1,3,0.1,4.5c0,21.6,0,43.2,0,64.8    c0,2.4,0.3,4.8-1,7c-3.3,1.4-6.7,0.4-10,0.6C1166.2,359.9,1160.1,359.3,1154.1,360z"/>
		<path class="st50" d="M911.9,269.8c3.4-5.4,9.2-6.4,14.6-7.5c17.6-3.7,35.4-5.8,53.3-7.6c17.4-1.7,34.9-3.3,52.4-4.2    c3.2-0.2,3.1-2.4,3.5-4.1c3.1-14.8,6.9-29.4,11.1-44c3.3-11.4,7.1-22.6,11.9-33.5c4.2-9.8,11.4-15.7,21.7-18    c5.1-1.1,10.1-2.5,15.2-3.1c3.3-0.4,3.8-1.8,3.9-4.5c0.3-6.3,1.4-12.5,4.8-17.9c2.4-3.8,5.2-7.3,10.4-7.2c0.3,1,0,1.8-0.6,2.5    c-4.4,6.2-5,13.6-6.1,20.8c-0.5,2.9,0.5,4.1,3.7,3.6c3.4-0.6,6.8-0.6,10.2,0c2.2,1.4,4.7,0.7,7,0.6c27.1-1,54.2-0.3,81.2,0.5    c28,0.9,51,13.3,69.6,34.2c15.4,17.5,26.6,37.5,36,58.7c1.3,3,3,4,6.3,4.3c12.2,1.2,24,4.3,34.3,11.2c1.4,0.9,3.4,1.6,3.1,3.9    c-0.4,0.3-0.8,0.5-1.3,0.5c-2.1,0-4.1-0.1-6.2-0.2c-3.8-0.1-7.6-0.3-7.9,5c0,0.7-0.8,1.2-1.7,0.9c-2.3-5.9-2.3-5.8-9-5.9    c-1.9,0-3.8,0.1-5.7,0c-0.5,0-1,0-1.5,0c-5.1,0.5-10-1.1-15-0.9c-5.1,0.1-10.3,0.2-15.4,0c-3.1,0.1-6.2,0-9.2,0    c-4.6,0.1-4.9,0.4-5.1,5.1c-0.1,1.3,0,2.6-0.4,3.9c-0.2,0.5-0.4,0.9-0.8,1.3c-1,0.3-1.4-0.4-1.8-1.1c-0.5-1.1-0.5-2.3-0.5-3.5    c-0.3-5.7-0.3-5.7-6.2-5.8c-2.7,0-5.3,0-8,0c-5.2,0.2-10.4,0.2-15.6,0c-4.9,0.1-9.8,0.1-14.8,0c-0.5,0-1.1,0-1.6,0    c-5,0.2-10.1-0.2-15.1,0.3c-5.3-0.4-10.6-0.2-15.9-0.3c-3.3,0.1-6.5,0-9.8,0c-3-0.3-6.5,0.3-6.9-5.3c-1,2.7,1,3.5,0.7,4.9    c-0.3,0.4-0.7,0.7-1.1,0.8c-4.6,0.9-9.2,0.3-13.8,0.4c-0.5,0-1,0-1.6,0c-5,0.2-9.9-0.2-14.9,0.3c-5.5-0.4-10.9,1.1-16.3,0.6    c-4,0.1-8,0-12,0.1c-1.3-0.1-2.7-0.1-4-0.1c-5.4-0.4-10.6,1.1-16,0.9c-5.1,0.3-10.2-0.4-15.3,0.6c-5.2,0.6-10.5,0.1-15.7,0.3    c-5.4,0.6-10.7,1.3-16.1,0.9c-4.9-0.3-9.7,0.8-14.5,0.4c-2.1-1-0.5-2.5-0.4-3.8c0.1-1.9,0.5-3.7,0.2-5.7c-2.1,2.9,0.1,7-2.9,9.5    c-4.5,1.2-9.2,0.2-13.7,1.4c-5.3,0.5-10.7-0.3-16,0.8c-5.3,0.5-10.8,0-16.1,1c-5.1,0-10.2,0.3-15.2,0.9c-5.4,0-10.7,0.2-16,0.9    c-5.3-0.3-10.6,1.2-15.9,0.9c-5.1,0.2-10.1,1.1-15.2,1.2c-5.5,0.6-11,0.4-16.4,1.3C914.1,271.1,912.8,271,911.9,269.8z"/>
		<path class="st50" d="M1154.1,360c4-1.6,8.2-0.5,12.3-0.7c5.2-0.2,10.4-0.1,15.6-0.2c2.5-2.2,2-5.1,2-7.9c0-21.5,0-43,0-64.5    c0-2.4-0.2-4.8,0.6-7.1c0.2-0.5,0.6-1,1-1.3c4.9-1.7,10-0.6,15-0.8c5.2-0.1,10.4-0.2,15.6,0c2.2-0.1,4.4,0,6.6,0    c6.5,0,6.5,0,8.8-5.7c2.4-0.4,2.1,1.6,2.3,2.8c0.4,2.2,1.7,2.9,3.7,2.9c3.5,0,7.1,0,10.6-0.3c5.3,0.4,10.5,0.2,15.8,0.3    c5.3-0.1,10.7,0.1,16-0.3c5.1,0.5,10.2,0.1,15.4,0.3c5.1-0.1,10.3-0.2,15.4,0c3.1,0,6.2-0.1,9.3,0c3.8,0.2,5.6-1.2,5.2-5.1    c-0.1-1.2,0-2.4,0.4-3.5c0.2-0.5,0.5-0.9,1-1.1c0.2,0,0.5,0,0.7,0c0.2,0.2,0.3,0.4,0.5,0.5c0.3,0.5,0.5,1.1,0.6,1.7    c1,7.7,1,7.7,8.9,8.3c1.9,0.1,3.8-0.2,5.7-0.2c5.3,0.4,10.6,0.2,15.9,0.3c3.5-0.2,7-0.1,10.4,0c1.6,0,3.2,0.1,4.3,1.6    c0.3,0.8,0.5,1.7,0.8,2.5c-1,1.5-2.7,1.6-4.2,2.1c-7.5,2.1-11.6,8.5-10.5,16.5c2.6,7.3,8,10.9,15.5,10.6c2.6-0.1,2.7-2.3,4.2-3.4    c0.8,7.1,1.6,14.2,2.4,21.3c-1.7,1.8-3.6,0.6-5.4,0.5c-9.4-0.5-15.4,2.7-18.1,9.7c-2.2,5.7-0.3,11.8,4.6,15.3    c1.2,0.8,2.8,1.2,2.9,3c-3.9,0-7.7,0.1-11.6,0.1c-1.9-0.8-2-2.4-2-4.1c0-11.1-2.1-21.8-6.2-32.2c-7.2-18.4-19.2-32.1-38.5-38.2    c-14.1-4.4-27.2-1.2-38.9,7.3c-16.2,11.7-24.4,28.2-27.9,47.6c-0.9,5.2-1.6,10.3-1.5,15.5c0,1.9,0.1,4-2.1,5    C1209.5,359.4,1181.8,360.4,1154.1,360z"/>
		<path class="st51" d="M1336.9,358.8c6.7,24.1-6,43-20.2,50.5c-16.2,8.6-32.3,7.8-46.9-3.2c-14.7-11.1-19.9-26.4-16.1-44.6    c0.2-0.7,0.2-1.5,0.3-2.2c-0.6-4.7,2.1-8.3,4.5-11.7c11.4-16.4,28.6-23.4,48.2-18.7c13.4,3.2,23.1,11.7,29.1,24.3    C1336.7,355,1337.4,356.7,1336.9,358.8z"/>
		<path class="st51" d="M999.6,362.1c1.9,10.9,1.5,21.5-3.9,31.5c-9.9,18.7-32.2,27.4-52.5,20.3c-19.9-6.9-31.9-27.7-28-48.4    c0.2-0.9,0.2-1.8,0.3-2.6c-0.3-0.4-0.4-0.8-0.4-1.3c5.8-19.9,21.8-31.4,42.1-32.2c19.4-0.8,37.7,13.5,42.8,31.4    C1000,361.2,999.9,361.7,999.6,362.1z"/>
		<path class="st52" d="M1336.9,358.8c-5.3-14.7-15.2-24.6-30.4-28.7c-20-5.5-41.4,4.7-50.1,23.6c-0.9,1.9-1.6,3.8-2.4,5.7    c-3,0-5.9-0.1-8.9-0.1c-1.7-2.1-1.4-4.6-1.1-6.8c2.7-19.9,11.5-36.2,29-46.8c15.3-9.3,38.2-7.9,53.1,5.6    c12,10.8,18.7,24.4,20.9,40.2c0.3,2.3,0.8,4.8-1,6.8C1343,358.5,1340,358.6,1336.9,358.8z"/>
		<path class="st53" d="M999.6,362.1c-0.2-0.3-0.2-0.5-0.2-0.8c1.1-1.6,2.9-1.3,4.5-1.4c2.5-0.1,3.4-1.3,3.1-3.7    c-1.8-17.4-8.4-32.6-22.7-43.3c-20-15.1-44.8-11.3-61.1,7.2c-9,10.2-13.3,22.2-14.8,35.6c-0.4,3.5-0.1,5.5,4,5.2    c1.2-0.1,2.4,0.1,3.2,1.2c0.1,0.3,0,0.6-0.2,0.8c-6.5-0.1-12.9,0.3-19.4-0.5c0-1.1,1-1.4,1.7-2c1.8-1.2,1.5-3.2,1.4-4.9    c-0.8-16.7,3.8-32.1,12.6-46.1c4.8-7.7,10.8-14.5,18.6-19.5c0.8-0.7,1.3-1.7,2.2-2.4c5.5-1.1,10.2-4.4,15.7-5.3    c4.9-1.1,10-1.1,15-1.2c5.4,1.3,10.5,3.6,15.8,5.1c0.4,0.2,0.8,0.5,1,0.8c0.1,3.6,3.6,3.7,5.6,5c11.9,7.8,18.3,19.5,23.8,32    c4.6,10.5,5.3,21.7,6.1,32.8c0.1,2.1-0.3,4.3,2.9,4.3C1012.2,362.5,1005.9,361.8,999.6,362.1z"/>
		<path class="st53" d="M1346.1,358.3c-0.9-23.9-10.4-43-32.6-53.5c-15.7-7.4-31.6-5.3-45.2,5.5c-15.6,12.3-23.2,28.9-23,48.9    c-2.7,0-5.4,0-8,0c1-1.5,0.9-3.1,0.9-4.7c-0.3-15.8,3.6-30.6,11.6-44.2c10.3-17.3,24.8-29.1,45.6-29.4    c15.7-0.3,28.5,7.2,38.8,19.1c5,5.8,9.3,12,12.1,19c4.2,10.3,7,21.1,7.1,32.4c0,2.3-0.6,4.8,0.9,6.9    C1351.5,358.3,1348.8,358.3,1346.1,358.3z"/>
		<path class="st51" d="M1365.8,358.1c-7.4-3.7-10.7-9.1-9.7-15.7c1.2-7.2,6.1-11.8,14.1-13.2c3.9-0.7,7.6,0,11.5,0.3    c9.4,3.2,14.1,11.5,11.5,21c-1.5,5.6-6.6,6.8-11.5,7.8C1376.5,359.4,1371.1,359.1,1365.8,358.1z"/>
		<path class="st54" d="M931.5,290.6c-11,7.7-18.7,17.8-24.3,30.1c-5.3,11.7-7.4,23.8-6.9,36.5c0.1,1.8-0.2,3.6-1.8,4.8    c-1.3-1.4-1.7-3.1-1.9-4.9c-0.7-6.2-0.4-12.4-0.3-18.6c0-1.2,0.4-2.3,1.3-3.2c0-5.9,2.1-11.9,0-17.8c0.7-8,1.4-16,3.1-23.9    c0.3-1.4-0.2-3.5,2.1-3.8c0.1,1.5-0.4,3.2,2.4,2.8c3.9-0.5,7.9-0.1,11.8-1.2C921.9,289.9,926.6,288,931.5,290.6z"/>
		<path class="st55" d="M1122,144.9c-4.3,1.9-9,0.4-13.4,1.6c-1.8,0.5-2.1-1.4-1.9-2.7c1.2-9,1.6-18.3,8.1-25.6    c4.6-1.7,7.7,0,7.9,4.7c0.2,3.5-0.1,7.1-0.1,10.6c-0.8,3.2,0.2,6.5-0.5,9.8C1122.1,143.7,1122.1,144.3,1122,144.9z"/>
		<path class="st56" d="M1358.7,301.3c-2.2-9.5,5.2-16.7,11.5-17.9c1.4-0.3,2.9-0.6,4.3-0.8c2.1,5.7,3.1,11.7,3.7,17.7    c-1.1,1.3-2.6,1.9-4.3,2.1c-3.8,0.3-7.6,0.2-11.4,0.8C1360.9,303.3,1359.5,302.7,1358.7,301.3z"/>
		<path class="st57" d="M902.9,289.7c-1.7,7.7-3,15.4-3.5,23.3c-0.1,1.6,0.7,3.7-1.7,4.4c-3.1-1.4-3.5-4.6-4.6-7.3    c-1.6-1.9-2.2-4.2-2-6.6c0.4-5.1-0.3-10.4,2.9-14.9c2-5.2,3.7-6.2,10.8-6C904.2,285.1,903.5,287.4,902.9,289.7z"/>
		<path class="st51" d="M897.7,335.2c0.5,8.9-0.3,17.8,0.9,26.7c-0.8,0.2-1.7,0.3-2.5,0.5c-7.2-1.9-8.6-3.7-8.5-11.3    c0-2.5,0.1-5.1,0.6-7.5C889.4,338.3,892,336.1,897.7,335.2z"/>
		<path class="st58" d="M1358.7,301.3c6.5,0.8,13-0.1,19.5-1c0.4,2.7,0.8,5.3,1.2,8c0.5,4.2-1.8,5-5.3,4.5    C1365.9,311.7,1360.5,309.4,1358.7,301.3z"/>
		<path class="st59" d="M931.5,290.6c-4.8,0.2-9.6,0.5-14.4,0.7c-0.2-3.6-0.4-7.1-0.7-10.7c0.2-0.2,0.4-0.3,0.5-0.5    c4.3-1.8,8.7-1.8,13.2-1.3c3.3,1.1,1.8,4.5,3.1,6.6c0.2,1,0.2,1.9-0.5,2.7C932.6,289,932.5,290,931.5,290.6z"/>
		<path class="st60" d="M1373.7,280c-5.1-0.1-10.1-0.3-15.2-0.4c-1.8-3.3-1.2-6.7-0.5-10.1c0.3-0.5,0.6-0.9,1.2-1.1    c2.5-0.1,5,0.4,7.5-0.3c2.4-0.7,4,0.3,4.5,2.8C1371.6,274.1,1373.7,276.8,1373.7,280z"/>
		<path class="st61" d="M894,288.6c-1.2,7.1-2,14.3-0.9,21.5c-4.2-1.7-6.1-5.1-6-9.3C887.3,295.8,888.6,291,894,288.6z"/>
		<path class="st62" d="M911.9,269.8c1.2,0.1,2.3,0.1,3.5,0.2c2.1,3.4,2,7.1,1,10.8c0,0,0.1-0.1,0.1-0.1c-3.5,0.2-7,0.5-11.1,0.7    C907.3,277,908.7,272.9,911.9,269.8z"/>
		<path class="st63" d="M1371.1,271c-1.3-2.8-3.8-1.9-6-2c-2.2-0.1-4.3,0.1-6.5,0.1c-1.9-3.7-2.2-7.3,0.2-10.9c0.2,0,0.5,0,0.7,0.1    c0,2.2-0.1,4.5,0.1,6.7c0.1,1.3,0.6,2.8,2.2,3c1.2,0.2,2.7,0.7,3.7-0.8c0.7-1.1,0.8-3,2.6-2.1c1.6,0.7,2.9,2.1,3,4.1    C1371.1,269.8,1371.1,270.4,1371.1,271z"/>
		<path class="st50" d="M1122.1,143.1c-0.2-3.3-0.7-6.6,0.5-9.8C1122.8,136.6,1123.2,139.9,1122.1,143.1z"/>
		<path class="st60" d="M1086.2,332.2c2.8-9.1,5.6-18.2,8.3-27.2c0.4-1.5,1.4-2,2.9-2.2c9.8-1.2,9.8-1.3,13.1,7.9    c2.1,5.9,4,11.8,6.3,17.6c1.2,3.1,0.3,3.4-2.5,3.4c-4.6,0.1-8.6,0-9.9-5.6c-0.3-1.5-1.5-2-3.1-1.9c-1.5,0.1-2.3,0.5-2.9,2    C1095.6,332.8,1094.9,333.1,1086.2,332.2z"/>
		<path class="st64" d="M1133.2,308.7c2.2-7.3,5.8-11.5,14-8.6c-2.3,4.1-4.6,8.3-7.2,12.4c-1.5,2.4-1.3,4.2,0.4,6.4    c2.7,3.5,5.1,7.1,7.9,11c-6.4,1.1-11.7,1.3-14.6-7.1c-1.7,7.6-5.5,9.7-11.7,8c1.6-3.4,3-6.8,4.8-10c1.5-2.7,1.4-4.7-0.6-7.1    c-3.1-3.7-5.8-7.7-9.5-12.7c4.1,0,7.5-0.9,10,0.3C1129,302.4,1130.6,305.6,1133.2,308.7z"/>
		<path class="st65" d="M1062.9,321.6c0-0.3,0-0.6,0-0.9c0-3.3,1.1-7.3-0.5-9.6c-1.7-2.6-6-0.7-9.2-1c-1.7-0.1-2.8-0.3-2.8-2.4    c0-2,0.5-2.9,2.8-3c9.8-0.2,19.6-0.6,29.4-0.8c1,0,2.7-0.6,2.7,1.3c0,1.7,0.2,3.7-1.9,4.5c-0.7,0.3-1.5,0.2-2.2,0.2    c-8.2,0.5-8.2,0.5-8.2,8.9c0,2.4-0.1,4.8-0.1,7.1c0,6.9-0.4,7.2-7.5,7.1c-1.7,0-2.4-0.5-2.4-2.2    C1062.9,327.9,1062.9,324.7,1062.9,321.6z"/>
		<path class="st66" d="M1184.9,278.9c0.1,4,0.3,8,0.3,12c0,21.4,0,42.8,0,64.2c0,2.4,0.1,4.6-3.3,4.1c-0.1-18.4-0.2-36.8-0.2-55.2    c0-7-0.1-14,0-20.9c0-2.5-0.8-3.5-3.3-3.4c-3.1,0.2-6.2,0.1-9.3,0.1c-0.1-0.6,0-1,0.5-1.4c4.4-1.4,8.8-0.7,13.3-0.6    C1183.7,277.9,1184.4,278.2,1184.9,278.9z"/>
		<path class="st67" d="M1163.1,315.1c0,4.3-0.1,8.6,0,12.9c0.1,3.1-1.8,3-3.7,2.6c-1.9-0.4-5.2,1.7-5.2-2.7    c-0.1-8.6-0.2-17.3-0.4-25.9c-0.1-2.1,0.7-3,2.8-2.8c1.2,0.1,2.4,0.1,3.6-0.1c2.7-0.4,3.8,0.5,3.6,3.4c-0.2,4.2-0.1,8.3-0.1,12.5    C1163.5,315.1,1163.3,315.1,1163.1,315.1z"/>
		<path class="st68" d="M1039.6,284.1c1.9,0.2,3.3,0,3.1,3.2c-1,13.4-1.4,26.9-2.1,40.4c-0.5,9.9-1.2,19.8-1.7,29.7    c-0.1,1.4-0.1,2.8-2.1,2.6c-1.7-0.2-1.5-1.6-1.4-2.7c0.8-12.1,1.6-24.2,2.4-36.3c0.4-6.7,0.2-13.3,1-20    C1039.3,295.3,1038.6,289.7,1039.6,284.1L1039.6,284.1z"/>
		<path class="st69" d="M1073.7,260.5c5.3-0.6,10.6-0.6,15.9-0.4c2.4,2.9,1.4,6.2,1.2,9.4c-0.1,0.5-0.4,1-0.7,1.4    c-1.6,1.2-3.2,1.2-5,0.6c-1.4-0.9-0.8-1.7,0.2-2.2c1.1-0.6,1.8-1.4,1.5-2.8c-0.5-2.1-4.7-4.2-7.4-3.5c-3,0.7-4.2,2.5-3.4,5.5    c0.3,1,0.8,1.9,0.5,3c-1.6,3.4,0.4,7.5-2,10.8c-4.6,0.2-9.1,0.4-13.7,0.7c-1.6,0.1-1.5-1.1-2-1.8c-2.7-2.5-1.6-5.6-1.2-8.5    c0.2-0.5,0.5-0.9,0.9-1.3c2.6-1.4,5.5-0.7,8.3-0.9c4.7-0.3,5.3-0.8,5.6-5.4C1072.5,263.4,1072.3,261.7,1073.7,260.5z"/>
		<path class="st70" d="M1169.4,279c-0.2,0.2-0.3,0.4-0.3,0.7c-5.2,0-10.4-0.1-15.6-0.1c-1.7-1.2-1.6-3.1-1.5-4.8    c0.1-3.2-1.1-4.6-4.4-4.5c-1.7,0.1-3.6,0.1-5.1-1.1c0-2.5,2.1-2.1,3.5-2.2c2.3-0.2,4.7-0.3,7-0.4c3.4,0.3,6.7,0.3,10.1,0.3    c2.8,0,4-1.1,4-3.9c0-1.9-0.3-3.9,1.5-5.3c0.2,0,0.5,0.1,0.7,0.1c1.7,3.3,1.3,7.2,2.8,10.6c-1.3,1.8-1.7,3.9-1.6,6.2    C1170.5,276.1,1170.4,277.7,1169.4,279z"/>
		<path class="st71" d="M1121.1,258.7c1.1,0,2.3-0.1,3.4-0.1c-1.8,3.3-1.4,7-1.4,10.5c0,0.5,0,1,0,1.5c-0.3,3.3,1,6.8-1.3,9.8    c-5.3,0.1-10.6,0.1-15.9,0.2c-2.3-3.4-1.8-6.9-0.5-10.4c2.3-2.2,5.3-1.4,8-1.5c5.6-0.2,5.9-0.4,6.4-5.9    C1119.9,261.3,1119.8,259.8,1121.1,258.7z"/>
		<path class="st72" d="M1105.8,269.9c0,3.6,0.1,7.2,0.1,10.7c-5.1,1.1-10.3,1-15.5,0.7c-1.4-3.5-2.5-7-0.7-10.8    c0-0.2,0-0.4-0.1-0.6c5.1-2,10.3-1.7,15.5-0.7C1105.5,269.5,1105.6,269.7,1105.8,269.9z"/>
		<path class="st73" d="M1089.8,270.6c0.2,3.6,0.5,7.2,0.7,10.8c-5.3,0.3-10.6,0.6-15.9,0.9c-0.1-2.8-0.2-5.6-0.4-8.4    c-0.1-1.7,0.2-2.9,2.1-3.1c2.7-1.9,5.3-1.8,8.1-0.1C1086.2,270.6,1088,270.6,1089.8,270.6z"/>
		<path class="st60" d="M995.9,285.9c-5.2,0.7-10.5,1-15.8,1c0,0-0.2-0.2-0.2-0.2c-0.9-0.9-1.1-2.1-1.2-3.3c0.2-2.3-0.5-4.7-0.2-7    c0.2-0.4,0.6-0.8,1.1-1c4.9-0.9,9.8-2.2,14.9-0.9c0.5,0.2,0.9,0.6,1.2,1C996.9,279,998.3,282.4,995.9,285.9z"/>
		<path class="st74" d="M1058.6,271.7c0.1,3.1,0.2,6.3,0.3,9.4c-0.1,2.1-1.7,2-3.2,2.1c-3.1,0.1-6.2-0.1-9.2,0.3    c-2.9,0.4-3.6-1.1-3.7-3.3c-2.3-2-1.6-4.5-1.1-6.9c0.2-0.5,0.6-0.9,1.1-1.2C1048,271.6,1053.2,269.1,1058.6,271.7z"/>
		<path class="st75" d="M995.9,285.9c-0.3-3.6-0.6-7.1-0.9-10.7c4.9-2.8,10.2-2.5,15.5-1.6c0.5,0.2,0.9,0.6,1.2,1.1    c0.9,3.5,1.4,6.9-0.4,10.3C1006.3,286,1001.1,286.1,995.9,285.9z"/>
		<path class="st76" d="M1042.5,272.6c0.1,2.5,0.2,5,0.3,7.6c0.4,2.5-1.3,3.2-3.1,3.9c0,0,0,0,0,0c-4.1,0-8.2,0-12.2,0    c-1.1-1.1-1.4-2.4-1.4-3.9c0.1-7.7,1.2-8.9,8.9-9C1037.5,271.2,1040.2,270.6,1042.5,272.6z"/>
		<path class="st77" d="M1027,280.6c0.1,1.2,0.2,2.3,0.3,3.5c-5.3,0.6-10.6,1.3-16,0.9c-0.1-3.5-0.2-7.1-0.3-10.6    c4.8-2.7,9.8-2.8,15-1.4C1027.7,275.4,1026.1,278.2,1027,280.6z"/>
		<path class="st78" d="M1142.5,268.9c0.1,0,0.3,0,0.4,0.1c3.3,0.5,7.9-1.7,9.7,0.7c1.7,2.2,0.7,6.5,0.8,10c-3.7,0.1-7.4-0.1-11,0.4    c-3.7,0.5-5.1-0.9-5.1-4.4c-2-2-1.7-4.2-0.5-6.5C1138.6,267.6,1140.5,267.5,1142.5,268.9z"/>
		<path class="st72" d="M1137.1,269c0.1,2.2,0.2,4.4,0.3,6.6c0.4,3.6-1.3,5-4.8,4.8c-3.5-0.2-7.1,0-10.6,0c0-3.5,0.1-7,0.1-10.5    c3.1-2.4,6.8-0.5,10.1-1.6c1.5-0.3,2.9-0.5,4.4,0.2C1136.7,268.6,1136.9,268.8,1137.1,269z"/>
		<path class="st79" d="M1114.7,159.1c5.8-1.6,11.8-1,17.7-1.4c12.9-0.9,25.9-0.8,38.8-1.4c3.1-0.1,4.4,0.5,4.3,4.1    c-0.2,27.5-0.1,55.1,0,82.6c0,2.4-0.2,3.7-3.2,3.8c-32.7,0.5-65.4,1.2-98.2,1.8c-0.4,0-0.9-0.1-1.3-0.1c-1.4-2.1-0.2-4,0.7-5.8    c11.2-23.1,22-46.4,33.3-69.4c1.6-3.2,2.9-6.5,4.4-9.7C1111.9,161.6,1113,160.1,1114.7,159.1z"/>
		<path class="st80" d="M1241.7,166.1c10.1,4.2,17.2,12,23.9,20.1c10.4,12.7,19.8,26,24.3,42.1c2.3,8.2-0.3,12.5-8.5,15    c-4.5,1.4-9,1.7-13.6,1.7c-19.2,0.2-38.3,0.4-57.5,0.5c-1.6-2.3-0.1-4.3,0.6-6.3c2.8-8,6.3-15.7,9.5-23.5    c5.9-14.9,12.4-29.5,18.2-44.5C1239.3,169.4,1239.8,167.3,1241.7,166.1z"/>
		<path class="st79" d="M1241.7,166.1c-4.2,11-8.7,22-13.2,32.9c-6.2,14.7-11.9,29.6-17.8,44.5c-0.3,0.7-0.2,1.5-0.3,2.2    c-5.1,0.1-10.1,0.1-15.2,0.5c-2.7,0.2-3.7-0.5-3.6-3.3c0.2-7.4,0.1-14.9,0.1-22.3c0-19.9,0.1-39.9-0.1-59.8c0-3.5,0.9-4.6,4.5-4.4    c13.8,0.7,27.5,2.4,40.5,7.3C1238.4,164.2,1240.3,164.8,1241.7,166.1z"/>
		<path class="st80" d="M1114.7,159.1c-5.7,11.7-11.3,23.4-17,35.1c-6.6,13.7-13.3,27.4-19.6,41.2c-2,4.3-4.9,8.2-5.4,13    c-5.8,0.2-11.6,0.4-17.4,0.7c-2.5,0.1-3.6-0.6-3.1-3.3c4.6-24.3,8.4-48.8,16.8-72.3c2.2-6.2,5.9-10,12.9-11    C1092.9,160.9,1103.8,159.7,1114.7,159.1z"/>
		<path class="st81" d="M1279.8,278c-5.3,1.2-10.6,0.6-15.9,0.4c-2-3.5-1.4-7.2-0.5-10.9c0.3-0.5,0.7-0.8,1.2-1.1    c5-0.7,9.9-1.4,14.8,0.6c0.1,0.3,0.3,0.5,0.4,0.8C1282.2,271.2,1282.2,274.6,1279.8,278z"/>
		<path class="st82" d="M1184.9,278.9c-0.4,0-0.9-0.1-1.3-0.1c-0.8-3.8-0.4-7.6-0.4-11.5c0.2-3.3-0.9-6.8,1.2-9.9l0.3-0.2    c1.6-0.6,3.4,0.3,5.1-0.5c3.6,0,7.2,0.1,10.8,0.1c2.1,3.1,1.3,6.5,0.8,9.8c-0.2,0.5-0.5,0.9-1,1.2c-3.3,1.4-6.9,0-10.3,1.2    c-2.5,0.3-3.5,1.8-3.5,4.2c0,1.9,0.4,3.9-1.3,5.4L1184.9,278.9z"/>
		<path class="st83" d="M1027,280.6c-1.4-2.2-0.4-4.6-0.7-7c-2.1-3.6-2.1-7.3-0.1-10.9c4.7-1.3,9.7-0.4,14.4-1.2    c1.8,0.5,2.1,2.1,2.6,3.5c0.4,2.6,1,5.2-0.9,7.6c0,0,0.1-0.1,0.1-0.1c-3.6,0.1-7.1,0.3-10.7,0.3c-3.5,0-5.7,1-4.7,5.1    C1027.3,278.8,1027.1,279.7,1027,280.6z"/>
		<path class="st84" d="M932.4,285.1c-2.3-1.2,0.4-4.1-1.7-5.4c-0.6-3.7-0.8-7.3,0.5-10.8c5.2-1,10.4-1.3,15.7-1.3    c1.8,3.4,2.8,6.8,1,10.5c-2,1.7-4.5,2.2-7,2C936.8,279.7,933.7,280.8,932.4,285.1z"/>
		<path class="st85" d="M1279.8,278c0-3.4,0-6.8,0.1-10.2c0,0,0-0.2,0-0.2c4.6-3.2,9.6-1.5,14.5-1.2c0.5,0.2,1,0.5,1.3,1    c1.2,3.7,1.6,7.4-0.4,11.1C1290.1,278.5,1284.9,279.2,1279.8,278z"/>
		<path class="st86" d="M1026.3,262.7c0,3.6,0.1,7.3,0.1,10.9c-5.1-0.5-10.2,0.4-15.3,0.7c0,0,0.1,0.1,0.1,0.1    c-2.7-3.4-3.1-6.9-0.9-10.7C1015.6,262.3,1020.9,263,1026.3,262.7z"/>
		<path class="st87" d="M931.2,268.9c-0.1,3.6,1.8,7.3-0.5,10.8c-4.8-0.2-9.5,0.4-14.3,1c-1-3.5-0.7-7.2-1-10.8    C920.7,268.9,925.9,268.8,931.2,268.9z"/>
		<path class="st88" d="M1121.1,258.7c0,0.7,0.1,1.5,0.1,2.2c0.2,8.7,0.2,8.7-8.7,8.9c-2.2,0.1-4.4,0.1-6.6,0.1c0,0,0.1,0.1,0.1,0.1    c-1.6-3.5-2.9-7-0.7-10.7C1110.5,258.9,1115.8,258.1,1121.1,258.7z"/>
		<path class="st76" d="M947.8,278c-0.3-3.5-0.6-7-0.9-10.5c5.3-0.4,10.6-1.4,16-1.1c1.9,3.2,1.5,6.7,1.5,10.2    c-0.2,0.5-0.5,0.9-1,1.1c-5,1-10,2.4-15.1,0.8C948.2,278.4,948,278.2,947.8,278z"/>
		<path class="st67" d="M1247.9,256.7c5.3,0,10.6,0,15.9,0c2.2,3.5,2.1,7.1,0.1,10.6l0.1-0.1c-5.3,2.4-10.7,2-16.1,0.3    C1245.9,263.9,1245.7,260.3,1247.9,256.7z"/>
		<path class="st89" d="M1295.4,256.7c5.3-0.2,10.7-0.2,16,0.3c2,3.6,1.9,7.1,0,10.7c-5.4,1.5-10.8,2-16.1-0.4l0.1,0.1    C1293.2,263.7,1293,260.2,1295.4,256.7z"/>
		<path class="st90" d="M1010.3,263.7c0.1,3.6,0,7.2,0.9,10.7c-5.4-0.3-10.8,0.2-16.2,0.8c0,0,0.1,0.1,0.1,0.1    c-1.6-3.5-3.2-7-0.7-10.7C999.7,263.5,1005,263.5,1010.3,263.7z"/>
		<path class="st91" d="M1200.5,267.2c0-3.5,0-7,0-10.4c5.3-0.1,10.5-0.8,15.8,0.4c2.7,2.9,1.6,6.2,1,9.5c-0.3,0.5-0.7,0.9-1.2,1.2    C1210.9,268.7,1205.6,269.7,1200.5,267.2z"/>
		<path class="st77" d="M963.8,277.1c-1.2-3.5-0.7-7.1-0.9-10.7c5.3-0.8,10.5-1.1,15.9-0.9c2.5,3.5,2.2,7.1,0.2,10.7l0.1-0.1    c-3.2,2.5-7.3,0.4-10.7,1.8C966.7,278.2,965.1,278.4,963.8,277.1z"/>
		<path class="st75" d="M978.9,276.2c-0.1-3.6-0.1-7.2-0.2-10.7c5.2-1,10.4-1.2,15.7-0.9c0.2,3.6,0.5,7.1,0.7,10.7    C989.7,275.6,984.3,275.9,978.9,276.2z"/>
		<path class="st72" d="M1042.4,272.7c-0.2-3-0.3-6.1-0.5-9.1c0.6-0.5-0.4-1.6,0.8-1.9c5-0.2,10-0.4,14.9-0.5    c1.7,3.4,2.8,6.9,0.9,10.6c0,0,0.1-0.1,0.1-0.1C1053.2,272,1047.8,272.3,1042.4,272.7z"/>
		<path class="st92" d="M1105.2,259.3c0.2,3.6,0.5,7.2,0.7,10.7c-4.7,0.1-9.5-0.3-14.2,0.7c-0.6,0.1-1.3-0.5-2-0.7    c-0.1-3.3-0.1-6.6-0.2-10C1094.7,258.8,1100,259.3,1105.2,259.3z"/>
		<path class="st92" d="M1058.5,271.8c-0.3-3.5-1.2-7-0.9-10.6c5.4-0.2,10.7-0.4,16.1-0.6c0,1.3,0,2.6,0,4c0.1,6.8,0.1,6.8-6.5,7.1    C1064.3,271.7,1061.4,271.7,1058.5,271.8z"/>
		<path class="st93" d="M1311.4,267.7c0-3.6,0-7.2,0-10.7c5.1-0.3,10.1,0.1,15.1,0.6c1.9,3.4,1.8,6.8,0.1,10.3l0,0.4    c-4.7,2.1-9.5,1.3-14.3,0.7C1311.8,268.7,1311.5,268.3,1311.4,267.7z"/>
		<path class="st90" d="M1358.8,258.2c-0.1,3.6-0.1,7.3-0.2,10.9c0,0,0.1-0.1,0.1-0.1c-5.5,1.1-11,1.3-16.4-1    c-0.8-1.4-0.9-2.8,0.5-3.9c0.8-6.6,0.8-6.7,7.6-6.5C1353.2,257.7,1356.1,257.1,1358.8,258.2z"/>
		<path class="st94" d="M1142.5,268.9c-1.8,0-3.6,0.1-5.4,0.1c0,0,0.1,0.1,0.1,0.1c-2.1-3.5-2.1-7.1-0.1-10.7    c5.3,0.1,10.5-1.4,15.8-0.2c2.4,3,2.3,6,0.1,9C1149.7,269.4,1145.8,266.9,1142.5,268.9z"/>
		<path class="st60" d="M1295.4,256.7c0,3.5-0.1,7.1-0.1,10.6c-5.1,0.1-10.3,0.2-15.4,0.3c-0.1-11.2-0.1-11.2,11.1-11.1    C1292.4,256.5,1293.9,256.6,1295.4,256.7z"/>
		<path class="st86" d="M1263.9,267.3c0-3.5,0-7.1-0.1-10.6c4,0,8,0,12-0.2c2.6-0.1,3.8,0.7,3.6,3.5c-0.2,2.3,0,4.7,0,7.1    C1274.2,267.1,1269.1,267.2,1263.9,267.3z"/>
		<path class="st72" d="M1247.9,256.7c0,3.5-0.1,7.1-0.1,10.6c-0.2,0.2-0.4,0.4-0.6,0.6c-5,1-9.9,1.6-14.8-0.4    c-1.4-3.6-1.7-7.1,0.3-10.6C1237.8,256.3,1242.9,256.5,1247.9,256.7z"/>
		<path class="st71" d="M1216.6,267.3c-0.1-3.4-0.2-6.7-0.3-10.1c5.2-1.2,10.5-0.5,15.7-0.4c1.2,12,1.1,12.1-10.9,11.7    C1219.5,268.4,1217.8,268.6,1216.6,267.3z"/>
		<path class="st95" d="M1342.8,264.1c-0.1,1.4-0.2,2.7-0.3,4.1c-0.2,0.2-0.4,0.4-0.6,0.6c-4.9,0.9-9.8,1.7-14.6-0.6l0.1,0    c-0.8-3.5-0.7-7.1-0.1-10.7c3.6,0,7.1,0.1,10.7-0.2c3.5-0.3,5.4,0.6,4.7,4.5C1342.5,262.6,1342.8,263.4,1342.8,264.1z"/>
		<path class="st90" d="M1153,267.2c0-3-0.1-6-0.1-9c5.2-1.2,10.4-0.7,15.7-0.6c-0.4,3.4,1.7,8-0.7,10c-2,1.7-6.5,0.8-9.8,0.7    C1156.4,268.3,1154.2,269.7,1153,267.2z"/>
		<path class="st96" d="M1137.1,258.4c0,3.6,0.1,7.1,0.1,10.7c-1.5,0.1-3,0.1-4.5,0.2c-3.6,0.1-7.2,0.9-10.7-0.4    c0-2.1,0.2-4.2,0-6.2c-0.2-2.2,0.7-3.3,2.6-3.9C1128.7,258.5,1132.9,258.5,1137.1,258.4z"/>
		<path class="st95" d="M1184.4,257.4c0,3.6,0.1,7.3,0.1,10.9c-4.2,1.8-8.4,2.2-12.5-0.3c-3.9-2.7-2.4-6.7-2.7-10.3    C1174.3,257.1,1179.4,257.3,1184.4,257.4z"/>
		<path class="st97" d="M1042.7,261.7c-0.3,0.6-0.5,1.3-0.8,1.9c-0.3-0.7-0.2-1.7-1.2-2c-0.3-3,0.2-5.9,0.7-8.8    c0.2-1.2,0.3-2.6,2-2.2c1.2,0.3,1.7,1.2,1.2,2.4C1043.4,255.8,1045.7,259.3,1042.7,261.7z"/>
		<path class="st91" d="M1216.6,267.3c1.6,0,3.2,0.2,4.8,0.1c3.5-0.3,8.1,1.6,10.1-0.8c1.7-2,0.4-6.4,0.5-9.8c0.3,0,0.5,0,0.8,0.1    c0,3.4,0,6.8-0.1,10.2c0.6,1.3-0.2,1.9-1.3,2.4c-4.9-0.3-9.8,0.7-14.6-0.9c-0.5-0.4-0.5-0.8-0.2-1.3L1216.6,267.3z"/>
		<path class="st98" d="M1189.7,256.7c-1.6,0.8-3.4,0.4-5.1,0.5c-1.3-0.8-3.3-0.8-3-3.2c0.2-1.1-0.2-2.6,1.5-2.7    c1.6-0.2,2.1,0.9,2,2.2C1184.9,257.3,1187.8,256.2,1189.7,256.7z"/>
		<path class="st99" d="M1327.3,257.5c0,3.6,0,7.1,0.1,10.7c-0.3-0.1-0.5-0.3-0.8-0.4c0-3.4-0.1-6.8-0.1-10.3    C1326.8,257.4,1327,257.4,1327.3,257.5z"/>
		<path class="st100" d="M1311.4,267.7l-0.1,0c2,3.7,2.3,7.4,0,11.1c-5.3-0.1-10.7-0.2-16-0.3c0-3.8-0.1-7.5-0.1-11.2    C1300.6,267.4,1306,267.5,1311.4,267.7z"/>
		<path class="st101" d="M1216.7,267.2c0,0.3,0.1,0.6,0.1,1c1.7,3.5,1.9,7-0.2,10.4c-5.3,0-10.6,0-15.9,0.1c-2.4-3.2-1.4-6.7-1-10.1    c0.3-0.5,0.6-0.9,0.9-1.3c0,0-0.1,0-0.1,0C1205.9,267.7,1211.3,267.7,1216.7,267.2z"/>
		<path class="st102" d="M1247.9,267.3c5.4,0,10.8-0.1,16.1-0.1c0,3.7-0.1,7.5-0.1,11.2c-5.3,0.3-10.6,0.8-15.9-0.3    c-2.5-3.6-2.1-7.3-0.1-10.9L1247.9,267.3z"/>
		<path class="st63" d="M1342.5,268.2c5.4,0.3,10.8,0.5,16.1,0.8c-0.1,3.5-0.2,7.1-0.2,10.6c-5.3,0-10.5,0.7-15.7-0.6    C1340.2,275.4,1340.6,271.8,1342.5,268.2C1342.6,268.1,1342.5,268.2,1342.5,268.2z"/>
		<path class="st103" d="M1247.9,267.2c0,3.6,0.1,7.3,0.1,10.9c-4.5,1.1-9,0.3-13.6,0.6c-1.6,0.1-2-0.8-2.1-2.2    c-0.1-1.5-0.2-2.9-0.3-4.4c-1.2-1-1-2-0.2-3.1c0.3-0.7,0.5-1.3,0.8-2C1237.7,267.7,1242.8,267.4,1247.9,267.2z"/>
		<path class="st99" d="M1342.6,268.1c0.7,3.6-0.1,7.3,0.1,11c-4.7,1.2-9.3-0.1-14,0c-1.7,0-1.7-1.3-1.7-2.5    c0.1-2.8,0.2-5.6,0.3-8.4C1332.4,268.1,1337.5,268.1,1342.6,268.1z"/>
		<path class="st104" d="M1200.3,268.2c0.1,3.5,0.2,7,0.3,10.5c-5.1,0.3-10.3,0.4-15.4,0c-0.1-2.2,0.1-4.5-0.2-6.7    c-0.6-4,1.3-4.6,4.5-3.9C1193.2,267.5,1196.8,267.4,1200.3,268.2z"/>
		<path class="st105" d="M1311.3,278.7c0-3.7,0-7.4,0-11.1c5.1,0.2,10.2,0.4,15.4,0.6c0.4,10.7,0.4,10.7-10,10.6    C1314.8,278.9,1313,278.8,1311.3,278.7z"/>
		<path class="st106" d="M1231.8,269c0.1,1,0.1,2.1,0.2,3.1c-0.4,6.6-0.4,6.6-7.1,6.6c-2.8,0-5.6-0.1-8.4-0.2    c0.1-3.5,0.1-7,0.2-10.4C1221.8,268.6,1226.9,267.2,1231.8,269z"/>
		<path class="st107" d="M1318.5,371.9c-0.1,12.7-10.3,22.9-23,22.9c-12.7,0-22.9-10.3-22.9-23c0-13,10.3-23.2,23.2-23.1    C1308.5,348.8,1318.6,359.1,1318.5,371.9z"/>
		<path class="st52" d="M915.7,362.1c-8.9-0.3-8.9-0.3-8.1-9.2c1.9-23.1,19.2-44.1,40.2-49.2c18.6-4.6,37.7,4.6,48.5,19.7    c6.6,9.3,10.3,19.6,11.6,30.9c0.8,7,1.1,6.9-5.8,7c-0.9,0-1.8,0-2.7,0c-4.1-10.3-9.9-19.2-19.7-25c-24-14.1-53.3-3-63.2,23.8    C916.3,360.8,916,361.4,915.7,362.1z"/>
		<path class="st107" d="M957.9,350.4c12.6,0.1,22.8,10.5,22.8,23.1c0,12.5-10.4,22.8-23.1,22.9c-12.6,0-23.1-10.4-23.1-22.9    C934.7,360.6,945,350.3,957.9,350.4z"/>
		<path class="st108" d="M963.8,277.1c1.4,0,2.9-0.1,4.3-0.1c1.4-0.7,2.9-0.4,4.3-0.3c5.6,0.2,6.7,1.2,7.3,6.6    c0.1,1.1,0.1,2.3,0.2,3.4c-5.7-0.3-10.8-2.5-15.9-4.9c-1.7-1.5-1.4-3.1-0.2-4.8L963.8,277.1z"/>
		<path class="st108" d="M932.4,285.1c0.2-6.1,0.2-6,6.2-6.3c3.1-0.1,6.1-0.6,9.1-0.8c0,0-0.1-0.1-0.1-0.1c1.3,1.7,1.6,3.4,0.3,5.3    c-4.1,1.6-8.2,3.2-12.2,4.9c-1.1,0.5-1.9,0.4-2.9,0C932.7,287.1,932.5,286.1,932.4,285.1z"/>
		<path class="st109" d="M948,283.2c-0.1-1.8-0.2-3.5-0.3-5.3c5.4,0.5,10.8-0.8,16.2-0.9c0.1,1.6,0.1,3.2,0.2,4.8    C958.8,283.4,953.3,282.2,948,283.2z"/>
		<path class="st110" d="M1100.8,313.5c1.2,1.4,2.5,2.7,1.6,4.5c-0.1,0.3-1.6,0.4-2,0.1C1098.2,316.5,1101.1,315.1,1100.8,313.5z"/>
		<path class="st60" d="M1171.9,268c4.2,0.1,8.4,0.2,12.5,0.3c-1,3.4,1,7.1-0.9,10.5c-4.7,0.1-9.5,0.2-14.2,0.3    c-0.1-2.6,0-5.3-0.3-7.9C1168.8,268.7,1169.8,268,1171.9,268z"/>
		<path class="st86" d="M1084.4,270.7c-2.7,0-5.4,0.1-8.1,0.1c-2.4-2.1-2.8-5-0.9-7c1.8-1.9,4.5-3.9,7.7-1.5c1.4,1,3.6,0.5,4.6,2.2    C1089.3,267.3,1088.1,269.5,1084.4,270.7z"/>
		<path class="st88" d="M1121.9,268.8c3.5,1,7.2-0.2,10.7,0.4c-3.4,1.5-7.1,0.4-10.6,0.7C1122,269.6,1121.9,269.2,1121.9,268.8z"/>
		<path class="st75" d="M979.7,283.3c-1.6-5.3-3.1-6.1-11.6-6.3c3.6-1.2,7.3-0.6,10.9-0.9C979.8,278.5,979.8,280.9,979.7,283.3z"/>
		<path class="st91" d="M1200.3,268.2c-3.6,0-7.2-0.1-10.8-0.1c3.7-0.3,7.3-0.6,11-0.9C1200.5,267.5,1200.4,267.8,1200.3,268.2z"/>
	</g>
</g>
</svg>