<?xml version="1.0" encoding="utf-8"?>
<!-- Generator: Adobe Illustrator 22.0.1, SVG Export Plug-In . SVG Version: 6.00 Build 0)  -->
<svg version="1.1" xmlns="http://www.w3.org/2000/svg" xmlns:xlink="http://www.w3.org/1999/xlink" x="0px" y="0px" height="450px" width="800px"
	 viewBox="0 0 800 450" style="enable-background:new 0 0 800 450;" xml:space="preserve">
<style type="text/css">
	.st0{fill-rule:evenodd;clip-rule:evenodd;fill:#D8EFF7;}
	.st1{fill-rule:evenodd;clip-rule:evenodd;fill:#FFFFFF;}
	.st2{fill-rule:evenodd;clip-rule:evenodd;fill:#A7D5E0;}
	.st3{fill-rule:evenodd;clip-rule:evenodd;fill:#CEEBF6;}
	.st4{fill-rule:evenodd;clip-rule:evenodd;fill:#B1B6B7;}
	.st5{fill-rule:evenodd;clip-rule:evenodd;fill:#A0A6A7;}
	.st6{fill-rule:evenodd;clip-rule:evenodd;fill:#C0E3ED;}
	.st7{display:none;fill-rule:evenodd;clip-rule:evenodd;fill:#7DB3C1;}
	.st8{fill-rule:evenodd;clip-rule:evenodd;fill:#F7FBFF;}
	.st9{fill-rule:evenodd;clip-rule:evenodd;fill:#2CB7D3;}
	.st10{fill-rule:evenodd;clip-rule:evenodd;fill:#4E4E4E;}
	.st11{fill-rule:evenodd;clip-rule:evenodd;fill:#343433;}
	.st12{display:none;}
	.st13{display:inline;}
	.st14{fill:#EEC09B;}
	.st15{fill:#191C19;}
	.st16{fill:#B6CAD5;}
	.st17{fill:#AB2A02;}
	.st18{fill:#DBA77F;}
	.st19{fill:none;}
	.st20{fill:#BD7133;}
	.st21{fill:#D48041;}
	.st22{fill:#90592A;}
	.st23{fill:#1C2528;}
	.st24{fill:#2B2B2B;}
	.st25{fill:#352311;}
	.st26{fill:#111719;}
	.st27{fill:#4C5159;}
	.st28{fill:#D8E4F4;}
	.st29{fill:#261D15;}
	.st30{fill:#483729;}
	.st31{fill:#141517;}
	.st32{fill:#5F6671;}
	.st33{fill:#3D3D3D;}
	.st34{fill:#17120E;}
	.st35{fill:#FFFFFF;}
	.st36{fill:#9DD87D;}
	.st37{fill:#7FC5D6;}
	.st38{fill:#D19234;}
	.st39{fill:#B47F2D;}
	.st40{fill:#EEC9AB;}
	.st41{fill:#C3832B;}
	.st42{fill:#FAAF40;}
	.st43{fill:#FBC36E;}
	.st44{fill:#E19D38;}
	.st45{fill:#FBB142;}
	.st46{opacity:0.33;fill:#FFFFFF;}
	.st47{fill:#101D28;}
	.st48{display:inline;fill-rule:evenodd;clip-rule:evenodd;fill:#4E4E4E;}
    #head{
    animation : down 3s ease-in-out infinite;
    }
    @keyframes down{
    0%,40%{
    visibility : visible}
    41%,100%{
    visibility : hidden
    }
    }
    #head-2{
     animation : down1 3s ease-in-out infinite;
    }
    @keyframes down1{
    0%,40%{
    visibility : hidden
    }
    41%,100%{
    visibility : visible
    }
    }
    #eyes{
    animation : blink 3s ease-in-out infinite
    }
    @keyframes blink{
    0%,5%{
    visibility : visible
    }
    10%,15%{
    visibility : hidden
    }
    20%,40%{
    visibility : visible
    }
    41%,75%{
     visibility : hidden
    }
   
    }
    #eyes_1_{
    animation : blink2 3s ease-in-out infinite
    }
    @keyframes blink2{
    0%,40%{
    visibility : hidden
    }
    60%,65%{
    visibility : visible
    }
    70%,75%{
     visibility : hidden
    }
    80%,100%{
    visibility : visible
    }
    }
    #finger{
    animation : point 3s ease-in-out infinite
    }
    @keyframes point{
    0%{
    transform: translate(0,0)
    }
    30%{
    transform: translate(-3px,-3px)
    }
    60%{
    transform: translate(0,0)
    }
    90%,100%{
    transform: translate(-3px,-3px)
    }
    }
</style>
<g id="BACK">
	<rect x="-9.8" y="-198.7" class="st0" width="879.7" height="879.7"/>
	<path class="st1" d="M527.5,32.1c2.6,0,4.9,0.9,6.8,2.4c0.3-10.5,8.9-18.9,19.4-18.9c8.1,0,15,4.9,17.9,12c0.9-0.1,1.8-0.2,2.7-0.2
		c4.2,0,8,1.3,11.2,3.5c3.7-5.3,9.8-8.8,16.8-8.8c1.5,0,3,0.2,4.5,0.5c2.2-8.4,9.9-14.6,19.1-14.6c8.7,0,16,5.6,18.7,13.4
		c3.3-2.1,7.2-3.4,11.4-3.4c11.3,0,20.5,9,20.9,20.2c1.7-0.5,3.5-0.8,5.3-0.8c4,0,7.8,1.3,10.8,3.5h-176
		C517.8,35.9,522.2,32.1,527.5,32.1z"/>
	<polygon class="st2" points="869.9,331.3 869.9,530.2 780.7,530.2 780.7,556.9 742.1,556.9 650.6,556.9 650.6,622.5 515.6,622.5 
		515.6,591.7 426.4,591.7 398.1,591.7 349.3,591.7 349.3,571.2 284.2,571.2 284.2,493.3 262.5,493.3 262.5,517.9 190.2,517.9 
		190.2,491.2 130,491.2 130,489.2 110.7,489.2 60.1,489.2 -9.8,489.2 -9.8,308.7 9.2,308.7 9.2,267.4 60.1,245.1 112.5,245.1 
		112.5,204.1 151.7,204.1 151.7,245.1 163.7,245.1 163.7,345.6 190.2,345.6 190.2,300.5 211.9,300.5 211.9,287.7 258.9,287.7 
		258.9,300.5 262.5,300.5 262.5,364.1 284.2,364.1 284.2,325.1 294.2,325.1 294.2,312.5 316.5,312.5 316.5,325.1 349.3,325.1 
		349.3,259.5 369.8,247.2 414.4,247.2 414.4,259.5 426.4,259.5 426.4,353.8 491.5,353.8 491.5,204.1 499.9,204.1 499.9,170.8 
		510.8,170.8 510.8,204.1 530,204.1 530,353.8 571,353.8 571,386.6 597.5,386.6 597.5,261.5 624.6,204.1 640.9,204.1 640.9,190.3 
		676.5,190.3 696.4,204.1 696.4,261.5 742.1,261.5 742.1,331.3 795.2,331.3 795.2,224.6 805.4,211.8 831.9,211.8 831.9,224.6 
		841,224.6 841,331.3 	"/>
	<path class="st3" d="M98-198.7h53.9v307h282.3v-307h53.9v307h282.3v-307h53.9v307h45.4v35.1h-45.4v301h-53.9v-301H488.2v301h-12.9
		c-9.4,0-18.8,0-28.2,0h-12.9v-301H151.9v301H98v-301H-9.8v-35.1H98V-198.7z"/>
	<rect x="-9.8" y="571.2" class="st4" width="879.7" height="109.8"/>
	<rect x="-9.8" y="431.5" class="st5" width="879.7" height="145"/>
	<path class="st6" d="M824.5,211.8v232.6h-53.9V331.3h24.6V224.6l10.2-12.8H824.5L824.5,211.8z M488.2,353.8v90.6h-12.9
		c-9.4,0-18.8,0-28.2,0h-12.9v-90.6H488.2L488.2,353.8z M151.9,245.1v199.3H98V245.1h14.5v-41h39.2v41H151.9z"/>
	<path id="plan" class="st7" d="M-451.3,300.3l315.2-137c24.8-10.8,94-4.9,104.8,19.9c10.8,24.8-40.9,59.4-65.7,70.2l-176.5,76.7
		c8.5,1.4,14.2,8.2,18,17c5.9,13.5,5.3,26.8-13.1,34.8c-18.4,8-47.7,7.7-53.6-5.8c-3.8-8.8,3.2-21,13.7-30.7l-92.8,40.3
		c-24.3,10.6-111.2,25.2-124.7,2.4l-22.2,9.6c-4.7,2-10.2-0.1-12.3-4.8l0,0c-2-4.7,0.1-10.2,4.8-12.3l22.1-9.6l-10.7-24.7
		l-77.1-57.1l-37.5,16.3l-8.9-6.6l103.4-44.9L-451.3,300.3z"/>
	<path id="windows" class="st8" d="M447.1-198.7c9.4,0,18.8,0,28.2,0v301h308.1v-301h28.2v301h58.3v28.2h-58.3v301h-28.2v-301H475.3
		v301c-9.4,0-18.8,0-28.2,0v-301H139.1v301h-28.2v-301H-9.8v-28.2h120.7v-301h28.2v301h308.1V-198.7z"/>
	<g id="chairs">
		<path class="st9" d="M116.2,323.5L116.2,323.5c32.9,0,59.7,26.9,59.7,59.7v49.7c0,10.7-8.8,19.5-19.5,19.5H76
			c-10.7,0-19.5-8.8-19.5-19.5v-49.7C56.5,350.4,83.4,323.5,116.2,323.5z"/>
		<path class="st9" d="M69.3,490.6h94c7,0,12.8-5.7,12.8-12.8v-8.6c0-2.3-1.9-4.2-4.2-4.2H60.7c-2.3,0-4.2,1.9-4.2,4.2v8.6
			C56.5,484.9,62.2,490.6,69.3,490.6z"/>
		<path class="st9" d="M272,323.5L272,323.5c32.9,0,59.7,26.9,59.7,59.7c0,16.6,0,33.1,0,49.7c0,10.7-8.8,19.5-19.5,19.5
			c-26.8,0-53.7,0-80.5,0c-10.7,0-19.5-8.8-19.5-19.5c0-16.6,0-33.1,0-49.7C212.2,350.4,239.1,323.5,272,323.5z"/>
		<path class="st9" d="M225,490.6c31.3,0,62.6,0,94,0c7,0,12.8-5.7,12.8-12.8c0-2.9,0-5.7,0-8.6c0-2.3-1.9-4.2-4.2-4.2
			c-37.1,0-74.1,0-111.2,0c-2.3,0-4.2,1.9-4.2,4.2c0,2.9,0,5.7,0,8.6C212.2,484.9,218,490.6,225,490.6z"/>
		<path class="st9" d="M427.7,323.5L427.7,323.5c32.9,0,59.7,26.9,59.7,59.7c0,16.6,0,33.1,0,49.7c0,10.7-8.8,19.5-19.5,19.5
			c-26.8,0-53.7,0-80.5,0c-10.7,0-19.5-8.8-19.5-19.5c0-16.6,0-33.1,0-49.7C368,350.4,394.9,323.5,427.7,323.5z"/>
		<path class="st9" d="M380.7,490.6c31.3,0,62.6,0,94,0c7,0,12.8-5.7,12.8-12.8c0-2.9,0-5.7,0-8.6c0-2.3-1.9-4.2-4.2-4.2
			c-37.1,0-74.1,0-111.2,0c-2.3,0-4.2,1.9-4.2,4.2c0,2.9,0,5.7,0,8.6C368,484.9,373.7,490.6,380.7,490.6z"/>
		<path class="st9" d="M583.4,323.5L583.4,323.5c32.9,0,59.7,26.9,59.7,59.7c0,16.6,0,33.1,0,49.7c0,10.7-8.8,19.5-19.5,19.5
			c-26.8,0-53.7,0-80.5,0c-10.7,0-19.5-8.8-19.5-19.5c0-16.6,0-33.1,0-49.7C523.7,350.4,550.6,323.5,583.4,323.5z"/>
		<path class="st9" d="M536.5,490.6c31.3,0,62.6,0,94,0c7,0,12.8-5.7,12.8-12.8c0-2.9,0-5.7,0-8.6c0-2.3-1.9-4.2-4.2-4.2
			c-37.1,0-74.1,0-111.2,0c-2.3,0-4.2,1.9-4.2,4.2c0,2.9,0,5.7,0,8.6C523.7,484.9,529.4,490.6,536.5,490.6z"/>
		<path class="st9" d="M739.2,323.5L739.2,323.5c32.9,0,59.7,26.9,59.7,59.7v49.7c0,10.7-8.8,19.5-19.5,19.5h-80.5
			c-10.7,0-19.5-8.8-19.5-19.5v-49.7C679.4,350.4,706.3,323.5,739.2,323.5z"/>
		<path class="st9" d="M692.2,490.6h94c7,0,12.8-5.7,12.8-12.8v-8.6c0-2.3-1.9-4.2-4.2-4.2H683.6c-2.3,0-4.2,1.9-4.2,4.2v8.6
			C679.4,484.9,685.2,490.6,692.2,490.6z"/>
	</g>
	<path class="st1" d="M394-112.1c5.9-4.3,9.7-11.3,9.7-19.2c0-13.2-10.7-23.8-23.8-23.8c-12.1,0-22,9-23.6,20.6
		c-3.3-1.4-6.8-2.1-10.6-2.1c-1.2,0-2.4,0.1-3.5,0.2c-0.9-16-14.1-28.7-30.3-28.7c-15,0-27.5,11-29.9,25.3c-2-0.5-4.1-0.7-6.2-0.7
		c-6.1,0-11.7,2.1-16.2,5.5c-4.6-6.2-12-10.1-20.3-10.1c-10.6,0-19.6,6.4-23.4,15.6c-1.1-0.2-2.3-0.2-3.5-0.2
		c-8.5,0-16.1,4.2-20.7,10.6c-1.8-5.7-7.2-9.9-13.5-9.9c-7.9,0-14.2,6.4-14.2,14.2c0,0.9,0.1,1.8,0.3,2.7H394z"/>
	<path class="st1" d="M188.5,11.3L188.5,11.3c0.1-8.2,5.8-15.1,13.4-17.2c4-7.8,12.1-13.1,21.5-13.1c7.6,0,14.3,3.5,18.7,8.9
		c4.2-6.1,11.3-10.1,19.3-10.1c11.6,0,21.2,8.4,23.1,19.4c4.7,0.8,8.9,3.1,12.1,6.4c2.9-4.1,7.6-6.7,13-6.7
		c8.8,0,15.9,7.1,15.9,15.9c0,0.1,0,0.1,0,0.2h-144C183,12.7,185.6,11.3,188.5,11.3z"/>
	<path class="st1" d="M751.3-97.9c-0.1-10-7.1-18.3-16.4-20.5c-1.7-9.5-10-16.7-20.1-16.7c-3.8,0-7.3,1-10.3,2.8
		c-4-2-8.5-3.1-13.3-3.1c-8.8,0-16.8,3.9-22.2,10c-3-2.3-6.7-3.6-10.8-3.6c-7.8,0-14.4,5-16.8,11.9c-2.8-8.7-10.9-15.1-20.6-15.1
		c-9.9,0-18.3,6.7-20.8,15.9c-2.6-1-5.4-1.5-8.4-1.5c-5.7,0-10.9,2-15.1,5.2c-2.2-2.7-5.5-4.4-9.3-4.4c-6.6,0-12,5.4-12,12
		c0,2.7,0.9,5.2,2.4,7.2H751.3z"/>
	<rect x="37.1" y="479" class="st10" width="784" height="25.5"/>
	<rect x="95.8" y="452.3" class="st11" width="40.9" height="6.2"/>
	<path class="st11" d="M251.5,452.3c13.6,0,27.3,0,40.9,0c0,2.1,0,4.1,0,6.2c-13.6,0-27.3,0-40.9,0
		C251.5,456.5,251.5,454.4,251.5,452.3z"/>
	<path class="st11" d="M407.2,452.3c13.6,0,27.3,0,40.9,0c0,2.1,0,4.1,0,6.2c-13.6,0-27.3,0-40.9,0
		C407.2,456.5,407.2,454.4,407.2,452.3z"/>
	<path class="st11" d="M563,452.3c13.6,0,27.3,0,40.9,0c0,2.1,0,4.1,0,6.2c-13.6,0-27.3,0-40.9,0C563,456.5,563,454.4,563,452.3z"/>
	<rect x="718.7" y="452.3" class="st11" width="40.9" height="6.2"/>
	<g>
		<rect x="37.1" y="499.2" class="st10" width="17.5" height="77.4"/>
		<rect x="37.1" y="504.5" class="st11" width="17.5" height="6.9"/>
	</g>
	<g>
		<g>
			<path class="st10" d="M292.6,499.2c5.8,0,11.6,0,17.5,0c0,25.8,0,51.6,0,77.4c-5.8,0-11.6,0-17.5,0
				C292.6,550.7,292.6,524.9,292.6,499.2z"/>
			<path class="st11" d="M310.1,504.5c-5.8,0-11.6,0-17.5,0c0,2.3,0,4.6,0,6.9c5.8,0,11.6,0,17.5,0
				C310.1,509.1,310.1,506.8,310.1,504.5z"/>
		</g>
		<g>
			<path class="st10" d="M548.1,499.2c5.8,0,11.6,0,17.5,0c0,25.8,0,51.6,0,77.4c-5.8,0-11.6,0-17.5,0
				C548.1,550.7,548.1,524.9,548.1,499.2z"/>
			<path class="st11" d="M565.6,504.5c-5.8,0-11.6,0-17.5,0c0,2.3,0,4.6,0,6.9c5.8,0,11.6,0,17.5,0
				C565.6,509.1,565.6,506.8,565.6,504.5z"/>
		</g>
	</g>
	<g>
		<rect x="803.6" y="499.2" class="st10" width="17.5" height="77.4"/>
		<rect x="803.6" y="504.5" class="st11" width="17.5" height="6.9"/>
	</g>
	<g id="New_Symbol">
	</g>
</g>

<g id="girl">
	<g>
		<path id="XMLID_66_" class="st18" d="M315.9,342.6c0,0-1.1-14.4,3-27.8c0,0,3.2,0.9,1.5,6c-1.5,4.9,0.2,13.4,0.2,13.4L315.9,342.6
			z"/>
		<path id="XMLID_65_" class="st27" d="M429.3,309.9c0,0-19.1-0.4-29.2,12.6c-10.1,13-33.2,51.9-33.2,51.9l-36.5-20.6l-4.7,9.4
			c0,0,27.6,23.7,41.5,28.1C367.1,391.3,430.3,326.7,429.3,309.9z"/>
		<path id="XMLID_55_" class="st18" d="M315.9,342.6c0,0,0.1-15.1,8.2-24.5c0,0,2.5,0.7,0.5,4.6c-2.1,3.9-4.2,14.1-2.4,16.6
			C322.2,339.3,319.3,344.5,315.9,342.6z"/>
		<path id="XMLID_54_" class="st14" d="M330,361.5c0,0-17.8-6.2-18.9-13.5c-1.1-7.3-4.1-13.2,3.2-21.6c0,0,2.2,2.7-0.7,8
			c0,0-2,5.4,4.4,11.8c0,0,7.5,0,12.4,6.1C330.5,352.3,332.9,358.8,330,361.5z"/>
		<polygon id="XMLID_53_" class="st28" points="342.7,357.8 332.1,352.3 325.3,364 334.2,370.7 		"/>
	</g>
	<g>
		<path id="XMLID_212_" class="st14" d="M462.9,453.2c0,0-22,40.7-38.6,69.3c0,0,15.7,20.1,8.1,89.2l-9.6,0.9L406,520l28.3-79.6
			L462.9,453.2z"/>
		<path id="XMLID_211_" class="st14" d="M409.9,422.7c0,0-14.8,49.5-23.2,93.6l-23.7,87.4l8.3,3.7c0,0,31.9-60.6,29.7-85.6
			l28.2-72.8L409.9,422.7z"/>
		<path id="XMLID_192_" class="st14" d="M327.8,621.8l21.5,8.3c8.2-9,22.7-13,22.7-13l-0.5-8.2l-0.2-3.1c-1.5-5.5-8-3.1-8-3.1
			c-4.2,5.7-15.8,11.3-24.6,15C332.6,620.2,327.8,621.8,327.8,621.8z"/>
		<path id="XMLID_191_" class="st29" d="M372,617.1c0,0-8,8.2-11.5,17.3l-2.1-0.8c0,0,5.2-11.9,3.2-12.4
			C361.6,621.3,366.8,617.8,372,617.1z"/>
		<path id="XMLID_190_" class="st30" d="M327.8,621.8l21.5,8.3c8.2-9,22.7-13,22.7-13l-0.5-8.2L348,621.2l-9.2-3.6
			C332.6,620.2,327.8,621.8,327.8,621.8z"/>
		<path id="XMLID_189_" class="st14" d="M412.2,651.3l20.9-9.9c-0.9-12.1,6.2-25.4,6.2-25.4l-6.3-5.3l-2.4-2c-5-2.7-7.8,3.7-7.8,3.7
			c1.2,6.9-2.7,19.3-6.1,28.2C414.3,646.7,412.2,651.3,412.2,651.3z"/>
		<path id="XMLID_188_" class="st29" d="M439.2,616c0,0,0.4,11.5,4.6,20.3l-2,0.9c0,0-5-12-6.8-10.8
			C435,626.4,436.1,620.3,439.2,616z"/>
		<path id="XMLID_187_" class="st30" d="M412.2,651.3l20.9-9.9c-0.9-12.1,6.2-25.4,6.2-25.4l-6.3-5.3l-7.3,25.6l-8.9,4.2
			C414.3,646.7,412.2,651.3,412.2,651.3z"/>
		<path id="XMLID_186_" class="st31" d="M476.8,415.1c0,0,4.6,11.9-10.4,40s-37.3,64.3-37.3,64.3l1.2-16.4l-12.4,15.3L388.6,507
			l17.6-79.2c0,0,3.9-21.9,19.2-30.1C425.4,397.8,442.8,414.3,476.8,415.1z"/>
	</g>
	<g>
		<path id="XMLID_208_" class="st14" d="M440.6,310l16-1.3c0.8-0.1,1.4-0.7,1.3-1.5l-2.5-32.3c-0.1-0.8-0.7-1.4-1.5-1.3l-16,1.3
			c-0.8,0.1-1.4,0.7-1.3,1.5l2.5,32.3C439.2,309.5,439.8,310.1,440.6,310z"/>
		<path id="XMLID_195_" class="st14" d="M457.8,306.3l5.7,1.3c0,0-3.9,30.7-23.9,30.7c-19.5,0-17.1-17.6-7.4-30.1l7.6-1.7
			L457.8,306.3z"/>
		<path id="XMLID_193_" class="st28" d="M450.6,334.4c0,0-9.3,2.3-18.4-1.6l7.6,41.7L450.6,334.4z"/>
		<path id="XMLID_184_" class="st27" d="M457.8,306.3c0,0-14.6,26.9-18.4,65.9v45l7.9,29c0,0,31.5,4,39.6-5.3l-16.2-46.9l6.1-43.7
			l7.8-37.5C484.7,312.9,478,306.3,457.8,306.3z"/>
		<path id="XMLID_183_" class="st27" d="M438.9,306.1c0,0-4.8,30.5,2,66v45.1l-6.8,29.1c0,0-17,0-29.5-8.7c0,0,4.5-27.2,13.8-46.1
			c0,0,4.6-11.8-1.7-23c-8.6-15.2,3.5-57.5,3.5-57.5S429,307.7,438.9,306.1z"/>
		<path id="XMLID_174_" class="st32" d="M457.9,303.6l9.2,3.3v28.9l-16.5,15.2l4.3,5.7c0,0-12.8,11.1-15.7,26.8
			C439.2,383.4,437,349.4,457.9,303.6z"/>
		<path id="XMLID_173_" class="st32" d="M438.9,306.1c0,0-3.8,34.7,2,66l-1.7,11.4l-10.8-27.9l5.7-3.8l-9.9-17.3l9.9-27.5l4.5-3.4
			L438.9,306.1z"/>
	</g>
	<polygon id="XMLID_182_" class="st20" points="516.6,410.2 511.7,466.4 427,459.1 434.1,402.1 	"/>
	<g id="phone_2_">
		<g>
			<path class="st33" d="M337,352.3l2-1.2c4-2.4,5.1-6.8,2.6-9.8L319,314.4c-2.5-3-7.8-3.5-11.8-1.1l-2,1.2c-4,2.4-5.1,6.8-2.6,9.8
				l22.7,26.9C327.7,354.2,333,354.7,337,352.3z"/>
			<path class="st34" d="M340.6,350.2l2-1.2c4-2.4,5.1-6.8,2.6-9.8l-22.7-26.9c-2.5-3-7.8-3.5-11.8-1.1l-2,1.2
				c-4,2.4-5.1,6.8-2.6,9.8l22.7,26.9C331.3,352.1,336.6,352.6,340.6,350.2z"/>
		</g>
		<polygon class="st35" points="330.7,349.6 344.5,341.5 318.8,309.9 305,318 		"/>
		<path class="st36" d="M322.3,334.4l4.8-2.9c1.1-0.7,1.4-1.9,0.7-2.7l-0.4-0.4c-0.7-0.8-2.2-1-3.2-0.3l-4.8,2.9
			c-1.1,0.7-1.4,1.9-0.7,2.7l0.4,0.4C319.8,334.9,321.2,335.1,322.3,334.4z"/>
		<path class="st37" d="M318.9,323.1l4.9-3c1.1-0.7,1.4-1.9,0.7-2.7l-0.4-0.4c-0.7-0.8-2.2-1-3.2-0.3l-4.9,3
			c-1.1,0.7-1.4,1.9-0.7,2.7l0.4,0.4C316.4,323.6,317.8,323.8,318.9,323.1z"/>
		<path class="st37" d="M333.2,340.7l4.9-3c1.1-0.7,1.4-1.9,0.7-2.7l-0.4-0.4c-0.7-0.8-2.2-1-3.2-0.3l-4.9,3
			c-1.1,0.7-1.4,1.9-0.7,2.7l0.4,0.4C330.7,341.2,332.1,341.4,333.2,340.7z"/>
	</g>
	<path id="finger" class="st18" d="M336.9,325.8c1.1,5.7,3.6,7.6,3.6,7.6l-5,8.8c0,0-2.2-5.6-1.7-11.1"/>
	<path id="XMLID_5_" class="st14" d="M476.9,350.4L476.9,350.4l7.8-37.5c2.1,2.3,1.9,5.9,3.4,11.2c6,21.3,12.6,69.5,12.6,69.5
		l-16.8,50l-10.3-3.7l12.2-46.5L476.9,350.4z"/>
	<path id="XMLID_6_" class="st14" d="M476.5,430.1L473,440c0,0-6.2,3.3-9.2,13.4c-2.9,10.1,4.2,4.8,6.8,0.8c0,0-3.3,10.7,0.7,12.2
		c0,0,6.4,3.1,8.7,0.6c0,0,5.3,2.1,7.4-0.6c0,0,4.5,3,6.5-1.3l-4.3-0.4c0,0,3.9-19.6-6.6-25.1l1.1-9.1L476.5,430.1z"/>
	<polygon id="XMLID_180_" class="st21" points="434.1,402.1 516.6,410.2 519.5,408.6 436.2,400.6 	"/>
	<polygon id="XMLID_179_" class="st22" points="511.7,466.4 514.1,465.1 519.5,408.6 516.6,410.2 	"/>
	<path id="XMLID_4_" class="st27" d="M484.7,312.9c0,0,3.7,4.5,8.3,27.9c4.6,23.4,7.7,52.8,7.7,52.8l-11.5,39.5l-15.6-4.9l11.2-34.2
		l-9-46.1C475.8,347.9,475.9,321.7,484.7,312.9z"/>
	<polygon id="XMLID_3_" class="st28" points="488.8,431.5 486.1,441 472.6,436.8 475.4,427.7 	"/>
	<g id="head">
		<path id="XMLID_52_" class="st38" d="M494.7,221.5c14.8,5.3,31.1-18,25.4-38.5c-1.1-4.1-3.1-8-6.2-11.6
			c-10.6-12.5-24.5-12.1-34.4-9.6c-7.4,1.9-12.5,5.1-12.5,5.1C498.7,176.8,494.7,221.5,494.7,221.5z"/>
		<path id="XMLID_51_" class="st39" d="M494.7,221.5c14.8,5.3,31.1-18,25.4-38.5c-3.2,11.9-12.5,16.2-12.5,16.2
			c-6.6-25.8-20.3-34.5-28.1-37.4c-7.4,1.9-12.5,5.1-12.5,5.1C498.7,176.8,494.7,221.5,494.7,221.5z"/>
		<path id="XMLID_50_" class="st38" d="M403.1,241.8c0,0,3.7,35.1-5.9,52.3C397.1,294.1,417.3,277,403.1,241.8z"/>
		<path id="XMLID_49_" class="st18" d="M406.2,250.8L406.2,250.8c5.3,0.4,10-3.7,10.4-9l0.8-11.5c0.4-5.3-3.7-10-9-10.4h0
			c-5.3-0.4-10,3.7-10.4,9l-0.8,11.5C396.8,245.7,400.8,250.4,406.2,250.8z"/>
		<path id="XMLID_45_" class="st18" d="M446,298.9L446,298.9c5.8,0,10.6-4.8,10.6-10.6v-6.8c0-5.8-4.8-10.6-10.6-10.6h0
			c-5.8,0-10.6,4.8-10.6,10.6v6.8C435.4,294.1,440.2,298.9,446,298.9z"/>
		<path id="XMLID_44_" class="st14" d="M485.9,262.7l7.8-54.3c2.8-19.4-10.8-37.6-30.2-40.4l-16.2-2.3
			c-19.4-2.8-37.6,10.8-40.4,30.2l-7,48.6c-1.6,11.1,4.7,44.4,29.5,49C455.1,298.4,484.5,272.6,485.9,262.7z"/>
		<path id="XMLID_40_" class="st18" d="M429.9,250.3c0,0-9.1,6.6,1.5,9.7C431.4,260,416.3,257.8,429.9,250.3z"/>
		<path id="XMLID_39_" class="st40" d="M453.7,257.6c-0.3,2.4,2.6,4.7,6.5,5.3c3.9,0.6,7.4-0.9,7.7-3.2c0.3-2.4-2.6-4.7-6.5-5.3
			C457.5,253.8,454,255.2,453.7,257.6z"/>
		
			<ellipse id="XMLID_23_" transform="matrix(0.1423 -0.9898 0.9898 0.1423 100.6505 618.235)" class="st40" cx="407.1" cy="251" rx="4.3" ry="5.8"/>
		<path id="XMLID_10_" class="st41" d="M444.5,227.9c0,0,11.8-6,23.2,4.5l1.9-4c0,0-10.8-10.9-25.8-3.7L444.5,227.9z"/>
		<path id="XMLID_9_" class="st41" d="M422.4,223.4c0,0-6.9-8.7-17.5-1.3l-0.4-4.3c0,0,10.3-7.9,19.1,2.7L422.4,223.4z"/>
		<g id="XMLID_30_">
			<path id="XMLID_32_" class="st14" d="M484.3,263.7L484.3,263.7c5.3,0.9,10.3-2.7,11.2-7.9l1.9-11.3c0.9-5.3-2.7-10.3-7.9-11.2
				l0,0c-5.3-0.9-10.3,2.7-11.2,7.9l-1.9,11.3C475.5,257.8,479.1,262.8,484.3,263.7z"/>
			<path id="XMLID_31_" class="st18" d="M480.8,256.1c0,0-0.6-16.6,7.8-17.8c0,0-4.5,4.7-3.3,9c0,0,2.8,0.7,2.1,5.8
				C486.6,258.1,481.8,258.3,480.8,256.1z"/>
		</g>
		<path id="XMLID_29_" class="st35" d="M421.8,269.6c0,0,12.8,6.2,20.9,2C442.6,271.6,433.1,282.8,421.8,269.6z"/>
		<path id="XMLID_8_" class="st42" d="M401.8,231.5c0,0,0-0.6,0.2-1.7c0.7-6.8,3.7-31.7,12.2-43.6c0,0,20.1,38.8,64.6,47
			c0,0,5.9,38.4-6.5,65.8c0,0,16.7-10.7,14.8-63.5l10.6,4.6c0,0,13.6-35.2-6-64.2c-24.9-36.6-68.4-27.5-83.5-6.7
			C408.1,169.1,387.4,186.5,401.8,231.5z"/>
		<path id="XMLID_7_" class="st43" d="M428.9,160.2c0,0,23.9-12.9,46.1,8.7c22.2,21.6-1.3,20.1-12.3,6.4
			C451.6,161.6,439.4,157.2,428.9,160.2z"/>
		<path id="XMLID_26_" class="st44" d="M402,229.7c0.7-6.8,3.7-31.7,12.2-43.6c0,0,20.1,38.8,64.6,47c0,0,5.9,38.4-6.5,65.8
			c0,0,15.6-22.9,10.7-71.5c0,0-55.8-20.7-68.8-54.5C414.1,172.9,398.1,190.5,402,229.7z"/>
		<path id="XMLID_25_" class="st45" d="M479.5,161.8c0,0,27.4-2.7,40.6,21.2c-1.1-4.1-3.1-8-6.2-11.6
			C503.3,158.9,489.4,159.2,479.5,161.8z"/>
		<g id="XMLID_164_">
			<path id="XMLID_172_" class="st46" d="M429.6,231.7c0,0,2.1,7.7-4.1,15.6c0,0-7.9,2.8-19.4-0.5c0,0-5.5-5.3-4-15.9
				C402,230.9,416.2,224.1,429.6,231.7z"/>
			<g id="XMLID_166_">
				<path id="XMLID_168_" class="st47" d="M398.8,234.4c0,0,1.3-0.3,1.7,2.4c0,0,0,0,0-0.1c0.7,6.9,4.6,10.8,4.6,10.8
					c12.6,3.6,21.2,0.5,21.2,0.5c3.9-4.8,4.8-9.6,4.9-12.8c0.4-0.6,1-1.2,2.1-1.2c3.1,0,2.8,3.3,2.8,3.3c0,0,0-0.1,0.1-0.1
					c-0.4,3.9-0.3,9.4,2.3,13.5c0,0,15,7.9,28.7,5.2c0,0,4.4-5,6.2-11.3c0,0,0,0.1,0,0.1c0,0,0.7-2.9,2.2-2.4
					c0.6,0.2,1.1,0.3,1.5,0.3l8.2,1.4l0.2-1.9l-7.8-2.1l0,0c-1.2-0.6-3.4-1.2-6.2-2.9c0,0,0.1,0.1,0.2,0.1c-4.9-3.1-17-8.9-34.6-5
					c0,0,0,0,0,0.1c0,0,0-0.1,0-0.1c-3.7,0.6-6.3-0.9-6.3-0.9l0,0c-14.5-8-29.8-0.7-29.8-0.7s-2.3,0.8-3.4,1
					C396.3,231.4,395.5,234.5,398.8,234.4z M438,233c22-4.6,34.9,6.2,34.9,6.2c0.4,7.9-6.5,15.4-6.5,15.4c-13,2.4-27.1-4.8-27.1-4.8
					C435.1,243.3,438,233,438,233z M402,230.9c0,0,14.2-6.8,27.6,0.8c0,0,2.1,7.7-4.1,15.6c0,0-7.9,2.8-19.4-0.5
					C406,246.8,400.5,241.5,402,230.9z"/>
				<path id="XMLID_167_" class="st47" d="M471.4,236.8C471.4,236.8,471.3,236.8,471.4,236.8C471.3,236.8,471.3,236.8,471.4,236.8z"
					/>
			</g>
			<path id="XMLID_165_" class="st46" d="M439.3,249.8c0,0,14.1,7.2,27.1,4.8c0,0,6.9-7.5,6.5-15.4c0,0-12.9-10.8-34.9-6.2
				C438,233,435.1,243.3,439.3,249.8z"/>
		</g>
		
		<g id="eyes-closed_1_">
			<path id="XMLID_69_" class="st37" d="M452.1,242.6L452.1,242.6c1.5,0,3-0.2,3.2-0.5l0.5-0.8c0.2-0.3-0.9-0.6-2.4-0.7l0,0
				c-1.5,0-3,0.2-3.2,0.5l-0.5,0.8C449.5,242.3,450.6,242.6,452.1,242.6z"/>
			<path id="XMLID_68_" class="st37" d="M416.7,241.7L416.7,241.7c1.5,0,3-0.2,3.2-0.5l0.5-0.8c0.2-0.3-0.9-0.6-2.4-0.7l0,0
				c-1.5,0-3,0.2-3.2,0.5l-0.5,0.8C414.1,241.3,415.2,241.6,416.7,241.7z"/>
		</g>
        <g id="eyes">
			<path id="XMLID_12_" class="st25" d="M452.1,248.1L452.1,248.1c1.5,0.2,3-0.9,3.2-2.4l0.5-3.7c0.2-1.5-0.9-3-2.4-3.2l0,0
				c-1.5-0.2-3,0.9-3.2,2.4l-0.5,3.7C449.5,246.5,450.6,247.9,452.1,248.1z"/>
			<path id="XMLID_11_" class="st25" d="M416.7,243.5L416.7,243.5c1.5,0.2,3-0.9,3.2-2.4l0.5-3.7c0.2-1.5-0.9-3-2.4-3.2l0,0
				c-1.5-0.2-3,0.9-3.2,2.4l-0.5,3.7C414.1,241.8,415.2,243.3,416.7,243.5z"/>
		</g>
	</g>
    	<g id="head-2">
		<path id="XMLID_57_" class="st38" d="M475.2,211.3c15.7,0.8,24.6-26.2,13.2-44.2c-2.2-3.6-5.3-6.8-9.3-9.3
			c-13.7-8.9-26.9-4.5-35.7,0.7c-6.5,3.9-10.5,8.5-10.5,8.5C466.1,167.4,475.2,211.3,475.2,211.3z"/>
		<path id="XMLID_56_" class="st39" d="M475.2,211.3c15.7,0.8,24.6-26.2,13.2-44.2c0.4,12.3-7.3,19.1-7.3,19.1
			c-13.7-22.8-29.4-27.2-37.7-27.7c-6.5,3.9-10.5,8.5-10.5,8.5C466.1,167.4,475.2,211.3,475.2,211.3z"/>
		<path id="XMLID_48_" class="st38" d="M393.3,257.1c0,0,13.6,32.5,9.4,51.8C402.6,309,417,286.8,393.3,257.1z"/>
		<path id="XMLID_47_" class="st18" d="M398.9,264.9L398.9,264.9c5.2-1.1,8.5-6.4,7.4-11.6l-2.5-11.2c-1.1-5.2-6.4-8.5-11.6-7.4l0,0
			c-5.2,1.1-8.5,6.4-7.4,11.6l2.5,11.2C388.4,262.7,393.6,266,398.9,264.9z"/>
		<path id="XMLID_46_" class="st18" d="M450.8,299.5L450.8,299.5c5.6-1.7,8.8-7.6,7.1-13.2l-2-6.5c-1.7-5.6-7.6-8.8-13.2-7.1l0,0
			c-5.6,1.7-8.8,7.6-7.1,13.2l2,6.5C439.3,297.9,445.3,301.1,450.8,299.5z"/>
		<path id="XMLID_43_" class="st14" d="M478.6,253.3l-8.2-54.2c-2.9-19.4-21.2-32.9-40.6-30l-16.2,2.5c-19.4,2.9-32.9,21.2-30,40.6
			l7.3,48.6c1.7,11.1,17.3,41.2,42.4,38.4C459.4,296.4,480.1,263.2,478.6,253.3z"/>
		<path id="XMLID_42_" class="st18" d="M421.4,257.6c0,0-6.8,8.9,4.2,8.9C425.6,266.4,410.5,268.7,421.4,257.6z"/>
		<path id="XMLID_41_" class="st40" d="M446.3,257.7c0.4,2.4,3.8,3.8,7.8,3.2c3.9-0.5,6.8-3,6.5-5.3c-0.4-2.4-3.8-3.8-7.8-3.2
			C448.8,253,445.9,255.3,446.3,257.7z"/>
		
			<ellipse id="XMLID_38_" transform="matrix(0.9889 -0.1487 0.1487 0.9889 -34.9299 62.3655)" class="st40" cx="399.7" cy="264.8" rx="5.8" ry="4.3"/>
		<path id="XMLID_37_" class="st41" d="M428.9,231.9c0,0,9.6-9.1,23.5-2.4l0.7-4.4c0,0-13.5-7.3-25.8,3.9L428.9,231.9z"/>
		<path id="XMLID_36_" class="st41" d="M406.5,234c0,0-9.1-6.3-17.1,3.8l-1.6-4c0,0,7.6-10.5,19.1-2.9L406.5,234z"/>
		<g id="XMLID_33_">
			<path id="XMLID_35_" class="st14" d="M477.4,254.7L477.4,254.7c5.3-0.7,9.1-5.6,8.5-10.8l-1.4-11.4c-0.7-5.3-5.6-9.1-10.8-8.5
				l0,0c-5.3,0.7-9.1,5.6-8.5,10.8l1.4,11.4C467.2,251.6,472.1,255.4,477.4,254.7z"/>
			<path id="XMLID_34_" class="st18" d="M471.8,248.5c0,0-5.4-15.7,2.3-19.3c0,0-3,5.8-0.6,9.6c0,0,2.9-0.1,3.7,4.9
				C478,248.7,473.4,250.3,471.8,248.5z"/>
		</g>
		<path id="XMLID_28_" class="st35" d="M419.2,278.4c0,0,14,2.3,20.6-4.1C439.7,274.3,433.8,287.8,419.2,278.4z"/>
		<path id="XMLID_27_" class="st42" d="M389.1,247.7c0,0-0.2-0.6-0.3-1.7c-1.3-6.7-5.6-31.4-0.9-45.3c0,0,30.4,31.4,75.4,26.4
			c0,0,16.7,35.1,12.7,64.9c0,0,12.9-15.1-4.1-65.1l11.5,1.4c0,0,2.9-37.6-24.2-59.8c-34.4-27.9-73.4-6.6-81.9,17.6
			C377.2,186.1,362.3,208.7,389.1,247.7z"/>
		<path id="XMLID_24_" class="st43" d="M394.5,171.6c0,0,19.2-19.2,46.7-4.9c27.5,14.3,4.5,19.6-9.9,9.7
			C416.7,166.4,403.7,165.7,394.5,171.6z"/>
		<path id="XMLID_22_" class="st44" d="M388.8,245.9c-1.3-6.7-5.6-31.4-0.9-45.3c0,0,30.4,31.4,75.4,26.4c0,0,16.7,35.1,12.7,64.9
			c0,0,8.3-26.4-10.3-71.6c0,0-59.4-3.8-81.6-32.4C384,188,373.7,209.5,388.8,245.9z"/>
		<path id="XMLID_21_" class="st45" d="M443.4,158.5c0,0,25.5-10.5,45,8.6c-2.2-3.6-5.3-6.8-9.3-9.3
			C465.4,148.9,452.2,153.2,443.4,158.5z"/>
		<g id="XMLID_15_">
			<path id="XMLID_20_" class="st46" d="M415.8,239.8c0,0,4.2,6.8,0.6,16.1c0,0-6.8,5-18.7,5.1c0,0-6.8-3.5-8.4-14.1
				C389.1,247,400.7,236.4,415.8,239.8z"/>
			<g id="XMLID_17_">
				<path id="XMLID_19_" class="st47" d="M387,251.3c0,0,1.2-0.7,2.3,1.8c0,0,0,0,0-0.1c2.7,6.4,7.5,9,7.5,9
					c13.1-0.2,20.4-5.6,20.4-5.6c2.4-5.7,1.8-10.6,1-13.7c0.2-0.7,0.6-1.4,1.7-1.8c3-0.9,3.6,2.4,3.6,2.4s0-0.1,0.1-0.1
					c0.7,3.9,2.4,9.1,6.1,12.3c0,0,16.6,3.2,29-3.3c0,0,2.8-6.1,2.7-12.6l0,0.1c0,0-0.2-3,1.4-2.9c0.6,0,1.1,0,1.5-0.1l8.3-1
					l-0.4-1.9l-8.1,0.2l0,0c-1.3-0.2-3.6-0.2-6.8-1c0,0,0.1,0.1,0.2,0c-5.6-1.6-18.8-3.6-34.6,5.2c0,0,0,0,0,0.1l0-0.1
					c-3.4,1.6-6.3,1-6.3,1l0,0c-16.2-3.5-28.7,7.9-28.7,7.9s-2,1.4-3,1.9C383.8,249.1,383.9,252.3,387,251.3z M424.2,238.7
					c19.7-10.7,35.2-4.1,35.2-4.1c2.7,7.5-1.8,16.6-1.8,16.6c-11.8,6-27.3,3.2-27.3,3.2C424.4,249.4,424.2,238.7,424.2,238.7z
					 M389.1,247c0,0,11.6-10.6,26.7-7.2c0,0,4.2,6.8,0.6,16.1c0,0-6.8,5-18.7,5.1C397.5,261.1,390.7,257.6,389.1,247z"/>
				<path id="XMLID_18_" class="st36" d="M457.3,232.7C457.3,232.7,457.2,232.7,457.3,232.7C457.2,232.7,457.2,232.7,457.3,232.7z"
					/>
			</g>
			<path id="XMLID_16_" class="st46" d="M430.3,254.4c0,0,15.6,2.8,27.3-3.2c0,0,4.4-9.2,1.8-16.6c0,0-15.5-6.6-35.2,4.1
				C424.2,238.7,424.4,249.4,430.3,254.4z"/>
		</g>
            <g id="eyes-closed_2_">
			<path id="XMLID_2_" class="st37" d="M442,247.7L442,247.7c1.5,0,2.6-0.3,2.4-0.6l-0.6-0.7c-0.2-0.3-1.7-0.5-3.2-0.5l0,0
				c-1.5,0-2.6,0.3-2.4,0.6l0.6,0.7C439.1,247.5,440.5,247.7,442,247.7z"/>
			<path id="XMLID_1_" class="st37" d="M406.8,248.8L406.8,248.8c1.5,0,2.6-0.3,2.4-0.6l-0.6-0.7c-0.2-0.3-1.7-0.5-3.2-0.5l0,0
				c-1.5,0-2.6,0.3-2.4,0.6l0.6,0.7C403.8,248.6,405.3,248.9,406.8,248.8z"/>
		</g>
		<g id="eyes_1_">
			<path id="XMLID_14_" class="st25" d="M442,249.1L442,249.1c1.5-0.2,2.6-1.7,2.4-3.2l-0.6-3.7c-0.2-1.5-1.7-2.6-3.2-2.4l0,0
				c-1.5,0.2-2.6,1.7-2.4,3.2l0.6,3.7C439.1,248.3,440.5,249.3,442,249.1z"/>
			<path id="XMLID_13_" class="st25" d="M406.8,254.9L406.8,254.9c1.5-0.2,2.6-1.7,2.4-3.2l-0.6-3.7c-0.2-1.5-1.7-2.6-3.2-2.4l0,0
				c-1.5,0.2-2.6,1.7-2.4,3.2l0.6,3.7C403.8,254,405.3,255.1,406.8,254.9z"/>
		</g>
		
	</g>
</g>
<g id="chaires" class="st12">
	<rect x="-9.8" y="419.8" class="st8" width="879.7" height="48.3"/>
	<rect x="95.8" y="431.5" class="st48" width="40.9" height="47.7"/>
	<ellipse class="st48" cx="272" cy="455.4" rx="28.9" ry="33.7"/>
	<path class="st48" d="M407.2,431.5c13.6,0,27.3,0,40.9,0c0,15.9,0,31.8,0,47.7c-13.6,0-27.3,0-40.9,0
		C407.2,463.3,407.2,447.4,407.2,431.5z"/>
	<ellipse class="st48" cx="583.4" cy="455.4" rx="29" ry="33.7"/>
	<rect x="718.7" y="431.5" class="st48" width="40.9" height="47.7"/>
</g>
</svg>
