<svg width="800" height="450" xmlns="http://www.w3.org/2000/svg">
 <g>
  <title>background</title>
  <rect x="-1" y="-1" width="1068.66667" height="602" id="canvas_background" fill="#fff"/>
 </g>

 <g>
  <title>background</title>
  <rect height="452" width="802" fill="none" y="-1" x="-1" id="canvas_background"/>
  <rect height="449.983" width="852" fill="#FF4606" x="-0.5" id="svg_1"/>
  <polygon points="382.341,463.714 800.008,833.496 800.008,0.955 " fill="#FFFFFF" id="svg_2"/>
  <polygon points="29.993,423.748 154.418,423.748 29.993,299.323 " fill="#FFFFFF" id="svg_20"/>
  <polygon points="434.82,27.253 381.22,27.253 434.82,80.854 " fill="#FFFFFF" id="svg_3"/>

 </g>
 <title>Layer 1</title>
 <g>
  <title>Layer 1</title>
  <style type="text/css">:root {
        --animate-duration: 1s;
        --animate-delay: 1s;
        --animate-repeat: 1;
      }
      
       .animate__animated {
        -webkit-animation-duration: 1s;
        animation-duration: 1s;
        -webkit-animation-duration: var(--animate-duration);
        animation-duration: var(--animate-duration);
        -webkit-animation-fill-mode: both;
        animation-fill-mode: both;
      }
    @-webkit-keyframes fadeInLeft {
    from {
        opacity: 0;
        -webkit-transform: translate3d(-100%, 0, 0);
        transform: translate3d(-100%, 0, 0)
    }

    to {
        opacity: 1;
        -webkit-transform: none;
        transform: none
    }
}

@keyframes fadeInLeft {
    from {
        opacity: 0;
        -webkit-transform: translate3d(-100%, 0, 0);
        transform: translate3d(-100%, 0, 0)
    }

    to {
        opacity: 1;
        -webkit-transform: none;
        transform: none
    }
}

.animate__fadeInLeft {
    -webkit-animation-name: fadeInLeft;
    animation-name: fadeInLeft
}
    .animate__animated.animate__repeat-1 {
          -webkit-animation-iteration-count: 1;
          animation-iteration-count: 1;
          -webkit-animation-iteration-count: var(--animate-repeat);
          animation-iteration-count: var(--animate-repeat);
        }
    .animate__animated.animate__delay-1s {
          -webkit-animation-delay: 1s;
          animation-delay: 1s;
          -webkit-animation-delay: var(--animate-delay);
          animation-delay: var(--animate-delay);
        }
    .animate__animated.animate__faster {
          -webkit-animation-duration: calc(1s / 2);
          animation-duration: calc(1s / 2);
          -webkit-animation-duration: calc(var(--animate-duration) / 2);
          animation-duration: calc(var(--animate-duration) / 2);
        }</style>
  <g class="animate__animated animate__fadeInLeft animate__repeat-1 animate__delay-1s animate__faster" id="svg_19">
   <text x="0" y="-1.33333" font-size="46.3618" font-family="'HelveticaWorld-Bold'" fill="#FFFFFF" transform="matrix(0.9311,0,0,1,9.968,60.0313) " id="svg_4">COMPANY NAME</text>
  </g>
  <style type="text/css">:root {
        --animate-duration: 1s;
        --animate-delay: 1s;
        --animate-repeat: 1;
      }
      
       .animate__animated {
        -webkit-animation-duration: 1s;
        animation-duration: 1s;
        -webkit-animation-duration: var(--animate-duration);
        animation-duration: var(--animate-duration);
        -webkit-animation-fill-mode: both;
        animation-fill-mode: both;
      }
    @-webkit-keyframes fadeInLeft {
    from {
        opacity: 0;
        -webkit-transform: translate3d(-100%, 0, 0);
        transform: translate3d(-100%, 0, 0)
    }

    to {
        opacity: 1;
        -webkit-transform: none;
        transform: none
    }
}

@keyframes fadeInLeft {
    from {
        opacity: 0;
        -webkit-transform: translate3d(-100%, 0, 0);
        transform: translate3d(-100%, 0, 0)
    }

    to {
        opacity: 1;
        -webkit-transform: none;
        transform: none
    }
}

.animate__fadeInLeft {
    -webkit-animation-name: fadeInLeft;
    animation-name: fadeInLeft
}
    .animate__animated.animate__repeat-1 {
          -webkit-animation-iteration-count: 1;
          animation-iteration-count: 1;
          -webkit-animation-iteration-count: var(--animate-repeat);
          animation-iteration-count: var(--animate-repeat);
        }
    .animate__animated.animate__delay-1s {
          -webkit-animation-delay: 1s;
          animation-delay: 1s;
          -webkit-animation-delay: var(--animate-delay);
          animation-delay: var(--animate-delay);
        }
    .animate__animated.animate__faster {
          -webkit-animation-duration: calc(1s / 2);
          animation-duration: calc(1s / 2);
          -webkit-animation-duration: calc(var(--animate-duration) / 2);
          animation-duration: calc(var(--animate-duration) / 2);
        }</style>
  <g class="animate__animated animate__fadeInLeft animate__repeat-1 animate__delay-1s animate__faster" id="svg_21">
   <text font-size="23.4258" font-family="'HelveticaWorld-Regular'" transform="matrix(1.0084,0,0,1,10.8005,91.751) " id="svg_5">AMAZING TAGLINE HERE</text>
  </g>
  <style type="text/css">:root {
        --animate-duration: 1s;
        --animate-delay: 1s;
        --animate-repeat: 1;
      }
      
       .animate__animated {
        -webkit-animation-duration: 1s;
        animation-duration: 1s;
        -webkit-animation-duration: var(--animate-duration);
        animation-duration: var(--animate-duration);
        -webkit-animation-fill-mode: both;
        animation-fill-mode: both;
      }
    @-webkit-keyframes fadeInLeft {
    from {
        opacity: 0;
        -webkit-transform: translate3d(-100%, 0, 0);
        transform: translate3d(-100%, 0, 0)
    }

    to {
        opacity: 1;
        -webkit-transform: none;
        transform: none
    }
}

@keyframes fadeInLeft {
    from {
        opacity: 0;
        -webkit-transform: translate3d(-100%, 0, 0);
        transform: translate3d(-100%, 0, 0)
    }

    to {
        opacity: 1;
        -webkit-transform: none;
        transform: none
    }
}

.animate__fadeInLeft {
    -webkit-animation-name: fadeInLeft;
    animation-name: fadeInLeft
}
    .animate__animated.animate__repeat-1 {
          -webkit-animation-iteration-count: 1;
          animation-iteration-count: 1;
          -webkit-animation-iteration-count: var(--animate-repeat);
          animation-iteration-count: var(--animate-repeat);
        }
    .animate__animated.animate__delay-2s {
          -webkit-animation-delay: calc(1s * 2);
          animation-delay: calc(1s * 2);
          -webkit-animation-delay: calc(var(--animate-delay) * 2);
          animation-delay: calc(var(--animate-delay) * 2);
        }
    .animate__animated.animate__faster {
          -webkit-animation-duration: calc(1s / 2);
          animation-duration: calc(1s / 2);
          -webkit-animation-duration: calc(var(--animate-duration) / 2);
          animation-duration: calc(var(--animate-duration) / 2);
        }</style>
  <g id="svg_22" class="animate__animated animate__fadeInLeft animate__repeat-1 animate__delay-2s animate__faster">
   <g id="svg_13">
    <path d="m92.792,198.923c0,0.3 0,0.5 -0.199,0.7l-2.301,2.3c-0.101,0.1 -0.199,0.2 -0.399,0.3s-0.3,0.1 -0.5,0.2c0,0 0,0 -0.101,0s-0.101,0 -0.199,0c-0.2,0 -0.601,0 -1.101,-0.1c-0.5,-0.1 -1.101,-0.3 -1.801,-0.6c-0.699,-0.3 -1.5,-0.7 -2.399,-1.3c-0.899,-0.6 -1.899,-1.4 -2.899,-2.5c-0.8,-0.8 -1.5,-1.6 -2,-2.3s-1,-1.4 -1.3,-2c-0.301,-0.6 -0.601,-1.2 -0.7,-1.7c-0.2,-0.5 -0.3,-0.9 -0.3,-1.3c-0.101,-0.4 -0.101,-0.7 -0.101,-0.9c0,-0.2 0,-0.3 0,-0.3c0,-0.2 0.101,-0.3 0.199,-0.5c0.101,-0.2 0.2,-0.3 0.301,-0.4l2.3,-2.3c0.2,-0.2 0.399,-0.3 0.601,-0.3c0.101,0 0.3,0 0.399,0.1c0.101,0.1 0.2,0.2 0.301,0.3l1.899,3.6c0.101,0.2 0.101,0.4 0.101,0.6c0,0.2 -0.101,0.4 -0.301,0.6l-0.899,0.9c0,0 0,0.1 -0.101,0.1c0,0.1 0,0.1 0,0.1c0,0.2 0.2,0.5 0.301,0.8c0.1,0.3 0.399,0.6 0.6,1c0.301,0.4 0.7,0.9 1.301,1.4c0.5,0.5 1,1 1.399,1.3c0.399,0.3 0.8,0.5 1,0.7c0.3,0.1 0.5,0.2 0.601,0.2l0.199,0l0.101,0c0.101,0 0.101,0 0.101,-0.1l1,-1c0.2,-0.2 0.5,-0.3 0.7,-0.3c0.199,0 0.399,0 0.5,0.1l0,0l3.399,2c0.099,0.199 0.199,0.4 0.298,0.6z" fill="#ECF0F1" id="svg_14"/>
   </g>
  </g>
  <style type="text/css">:root {
        --animate-duration: 1s;
        --animate-delay: 1s;
        --animate-repeat: 1;
      }
      
       .animate__animated {
        -webkit-animation-duration: 1s;
        animation-duration: 1s;
        -webkit-animation-duration: var(--animate-duration);
        animation-duration: var(--animate-duration);
        -webkit-animation-fill-mode: both;
        animation-fill-mode: both;
      }
    @-webkit-keyframes fadeInLeft {
    from {
        opacity: 0;
        -webkit-transform: translate3d(-100%, 0, 0);
        transform: translate3d(-100%, 0, 0)
    }

    to {
        opacity: 1;
        -webkit-transform: none;
        transform: none
    }
}

@keyframes fadeInLeft {
    from {
        opacity: 0;
        -webkit-transform: translate3d(-100%, 0, 0);
        transform: translate3d(-100%, 0, 0)
    }

    to {
        opacity: 1;
        -webkit-transform: none;
        transform: none
    }
}

.animate__fadeInLeft {
    -webkit-animation-name: fadeInLeft;
    animation-name: fadeInLeft
}
    .animate__animated.animate__repeat-1 {
          -webkit-animation-iteration-count: 1;
          animation-iteration-count: 1;
          -webkit-animation-iteration-count: var(--animate-repeat);
          animation-iteration-count: var(--animate-repeat);
        }
    .animate__animated.animate__delay-2s {
          -webkit-animation-delay: calc(1s * 2);
          animation-delay: calc(1s * 2);
          -webkit-animation-delay: calc(var(--animate-delay) * 2);
          animation-delay: calc(var(--animate-delay) * 2);
        }
    .animate__animated.animate__faster {
          -webkit-animation-duration: calc(1s / 2);
          animation-duration: calc(1s / 2);
          -webkit-animation-duration: calc(var(--animate-duration) / 2);
          animation-duration: calc(var(--animate-duration) / 2);
        }</style>
  <g id="svg_23" class="animate__animated animate__fadeInLeft animate__repeat-1 animate__delay-2s animate__faster">
   <text font-size="13.5568" font-family="'HelveticaWorld-Bold'" fill="#ECF0F1" transform="matrix(1,0,0,1,97.3694,198.2646) " id="svg_6">000-000-000</text>
  </g>
  <style type="text/css">:root {
        --animate-duration: 1s;
        --animate-delay: 1s;
        --animate-repeat: 1;
      }
      
       .animate__animated {
        -webkit-animation-duration: 1s;
        animation-duration: 1s;
        -webkit-animation-duration: var(--animate-duration);
        animation-duration: var(--animate-duration);
        -webkit-animation-fill-mode: both;
        animation-fill-mode: both;
      }
    @-webkit-keyframes fadeInLeft {
    from {
        opacity: 0;
        -webkit-transform: translate3d(-100%, 0, 0);
        transform: translate3d(-100%, 0, 0)
    }

    to {
        opacity: 1;
        -webkit-transform: none;
        transform: none
    }
}

@keyframes fadeInLeft {
    from {
        opacity: 0;
        -webkit-transform: translate3d(-100%, 0, 0);
        transform: translate3d(-100%, 0, 0)
    }

    to {
        opacity: 1;
        -webkit-transform: none;
        transform: none
    }
}

.animate__fadeInLeft {
    -webkit-animation-name: fadeInLeft;
    animation-name: fadeInLeft
}
    .animate__animated.animate__repeat-1 {
          -webkit-animation-iteration-count: 1;
          animation-iteration-count: 1;
          -webkit-animation-iteration-count: var(--animate-repeat);
          animation-iteration-count: var(--animate-repeat);
        }
    .animate__animated.animate__delay-2s {
          -webkit-animation-delay: calc(1s * 2);
          animation-delay: calc(1s * 2);
          -webkit-animation-delay: calc(var(--animate-delay) * 2);
          animation-delay: calc(var(--animate-delay) * 2);
        }
    .animate__animated.animate__faster {
          -webkit-animation-duration: calc(1s / 2);
          animation-duration: calc(1s / 2);
          -webkit-animation-duration: calc(var(--animate-duration) / 2);
          animation-duration: calc(var(--animate-duration) / 2);
        }</style>
  <g id="svg_24" class="animate__animated animate__fadeInLeft animate__repeat-1 animate__delay-2s animate__faster">
   <g id="svg_15">
    <path d="m92.792,234.123c0,0.398 -0.101,0.699 -0.3,1l-5.2,-5.9l5.2,-4.5c0.199,0.3 0.3,0.7 0.3,1.1l0,8.3zm-8.3,-3.801l7.199,-6.3c-0.3,-0.2 -0.6,-0.3 -1,-0.3l-12.399,0c-0.399,0 -0.699,0.1 -1,0.3l7.2,6.3zm2,-0.399l-1.7,1.5c-0.101,0.101 -0.199,0.101 -0.3,0.101s-0.2,0 -0.301,-0.101l-1.699,-1.5l-5.301,5.899c0.301,0.199 0.7,0.301 1.101,0.301l12.399,0c0.4,0 0.801,-0.102 1.101,-0.301l-5.3,-5.899zm-10,-5.2c-0.2,0.3 -0.301,0.7 -0.301,1.1l0,8.301c0,0.399 0.101,0.699 0.301,1l5.199,-5.899l-5.199,-4.502l0,0z" fill="#ECF0F1" id="svg_16"/>
   </g>
  </g>
  <style type="text/css">:root {
        --animate-duration: 1s;
        --animate-delay: 1s;
        --animate-repeat: 1;
      }
      
       .animate__animated {
        -webkit-animation-duration: 1s;
        animation-duration: 1s;
        -webkit-animation-duration: var(--animate-duration);
        animation-duration: var(--animate-duration);
        -webkit-animation-fill-mode: both;
        animation-fill-mode: both;
      }
    @-webkit-keyframes fadeInLeft {
    from {
        opacity: 0;
        -webkit-transform: translate3d(-100%, 0, 0);
        transform: translate3d(-100%, 0, 0)
    }

    to {
        opacity: 1;
        -webkit-transform: none;
        transform: none
    }
}

@keyframes fadeInLeft {
    from {
        opacity: 0;
        -webkit-transform: translate3d(-100%, 0, 0);
        transform: translate3d(-100%, 0, 0)
    }

    to {
        opacity: 1;
        -webkit-transform: none;
        transform: none
    }
}

.animate__fadeInLeft {
    -webkit-animation-name: fadeInLeft;
    animation-name: fadeInLeft
}
    .animate__animated.animate__repeat-1 {
          -webkit-animation-iteration-count: 1;
          animation-iteration-count: 1;
          -webkit-animation-iteration-count: var(--animate-repeat);
          animation-iteration-count: var(--animate-repeat);
        }
    .animate__animated.animate__delay-2s {
          -webkit-animation-delay: calc(1s * 2);
          animation-delay: calc(1s * 2);
          -webkit-animation-delay: calc(var(--animate-delay) * 2);
          animation-delay: calc(var(--animate-delay) * 2);
        }
    .animate__animated.animate__faster {
          -webkit-animation-duration: calc(1s / 2);
          animation-duration: calc(1s / 2);
          -webkit-animation-duration: calc(var(--animate-duration) / 2);
          animation-duration: calc(var(--animate-duration) / 2);
        }</style>
  <g id="svg_25" class="animate__animated animate__fadeInLeft animate__repeat-1 animate__delay-2s animate__faster">
   <text font-size="13.5568" font-family="'HelveticaWorld-Bold'" fill="#ECF0F1" transform="matrix(1,0,0,1,97.3694,234.2646) " id="svg_7">Email@gmail.com</text>
  </g>
  <style type="text/css">:root {
        --animate-duration: 1s;
        --animate-delay: 1s;
        --animate-repeat: 1;
      }
      
       .animate__animated {
        -webkit-animation-duration: 1s;
        animation-duration: 1s;
        -webkit-animation-duration: var(--animate-duration);
        animation-duration: var(--animate-duration);
        -webkit-animation-fill-mode: both;
        animation-fill-mode: both;
      }
    @-webkit-keyframes fadeInLeft {
    from {
        opacity: 0;
        -webkit-transform: translate3d(-100%, 0, 0);
        transform: translate3d(-100%, 0, 0)
    }

    to {
        opacity: 1;
        -webkit-transform: none;
        transform: none
    }
}

@keyframes fadeInLeft {
    from {
        opacity: 0;
        -webkit-transform: translate3d(-100%, 0, 0);
        transform: translate3d(-100%, 0, 0)
    }

    to {
        opacity: 1;
        -webkit-transform: none;
        transform: none
    }
}

.animate__fadeInLeft {
    -webkit-animation-name: fadeInLeft;
    animation-name: fadeInLeft
}
    .animate__animated.animate__repeat-1 {
          -webkit-animation-iteration-count: 1;
          animation-iteration-count: 1;
          -webkit-animation-iteration-count: var(--animate-repeat);
          animation-iteration-count: var(--animate-repeat);
        }
    .animate__animated.animate__delay-2s {
          -webkit-animation-delay: calc(1s * 2);
          animation-delay: calc(1s * 2);
          -webkit-animation-delay: calc(var(--animate-delay) * 2);
          animation-delay: calc(var(--animate-delay) * 2);
        }
    .animate__animated.animate__faster {
          -webkit-animation-duration: calc(1s / 2);
          animation-duration: calc(1s / 2);
          -webkit-animation-duration: calc(var(--animate-duration) / 2);
          animation-duration: calc(var(--animate-duration) / 2);
        }</style>
  <g id="svg_26" class="animate__animated animate__fadeInLeft animate__repeat-1 animate__delay-2s animate__faster">
   <g id="svg_17">
    <path d="m84.492,256.021c-3.7,0 -6.801,3 -6.801,6.801c0,3.601 6.101,12 6.4,12.301l0.199,0.3l0.101,0.101c0,0 0.101,0 0.101,-0.101l0.199,-0.3c0.301,-0.4 6.4,-8.7 6.4,-12.301c0.201,-3.801 -2.898,-6.801 -6.599,-6.801zm0,4.301c1.3,0 2.399,1.101 2.399,2.4c0,1.299 -1.101,2.399 -2.399,2.399c-1.3,0 -2.399,-1.101 -2.399,-2.399c0,-1.299 1.1,-2.4 2.399,-2.4z" fill="#ECF0F1" id="svg_18"/>
   </g>
  </g>
  <style type="text/css">:root {
        --animate-duration: 1s;
        --animate-delay: 1s;
        --animate-repeat: 1;
      }
      
       .animate__animated {
        -webkit-animation-duration: 1s;
        animation-duration: 1s;
        -webkit-animation-duration: var(--animate-duration);
        animation-duration: var(--animate-duration);
        -webkit-animation-fill-mode: both;
        animation-fill-mode: both;
      }
    @-webkit-keyframes fadeInLeft {
    from {
        opacity: 0;
        -webkit-transform: translate3d(-100%, 0, 0);
        transform: translate3d(-100%, 0, 0)
    }

    to {
        opacity: 1;
        -webkit-transform: none;
        transform: none
    }
}

@keyframes fadeInLeft {
    from {
        opacity: 0;
        -webkit-transform: translate3d(-100%, 0, 0);
        transform: translate3d(-100%, 0, 0)
    }

    to {
        opacity: 1;
        -webkit-transform: none;
        transform: none
    }
}

.animate__fadeInLeft {
    -webkit-animation-name: fadeInLeft;
    animation-name: fadeInLeft
}
    .animate__animated.animate__repeat-1 {
          -webkit-animation-iteration-count: 1;
          animation-iteration-count: 1;
          -webkit-animation-iteration-count: var(--animate-repeat);
          animation-iteration-count: var(--animate-repeat);
        }
    .animate__animated.animate__delay-2s {
          -webkit-animation-delay: calc(1s * 2);
          animation-delay: calc(1s * 2);
          -webkit-animation-delay: calc(var(--animate-delay) * 2);
          animation-delay: calc(var(--animate-delay) * 2);
        }
    .animate__animated.animate__faster {
          -webkit-animation-duration: calc(1s / 2);
          animation-duration: calc(1s / 2);
          -webkit-animation-duration: calc(var(--animate-duration) / 2);
          animation-duration: calc(var(--animate-duration) / 2);
        }</style>
  <g id="svg_27" class="animate__animated animate__fadeInLeft animate__repeat-1 animate__delay-2s animate__faster">
   <text font-size="13.5568" font-family="'HelveticaWorld-Bold'" fill="#ECF0F1" transform="matrix(1,0,0,1,97.3694,270.9316) " id="svg_8">Milkyway, Earth, 2017</text>
  </g>
  <style type="text/css">:root {
        --animate-duration: 1s;
        --animate-delay: 1s;
        --animate-repeat: 1;
      }
      
       .animate__animated {
        -webkit-animation-duration: 1s;
        animation-duration: 1s;
        -webkit-animation-duration: var(--animate-duration);
        animation-duration: var(--animate-duration);
        -webkit-animation-fill-mode: both;
        animation-fill-mode: both;
      }
    @-webkit-keyframes fadeIn {
    from {
        opacity: 0
    }

    to {
        opacity: 1
    }
}

@keyframes fadeIn {
    from {
        opacity: 0
    }

    to {
        opacity: 1
    }
}

.animate__fadeIn {
    -webkit-animation-name: fadeIn;
    animation-name: fadeIn
}

    .animate__animated.animate__repeat-1 {
          -webkit-animation-iteration-count: 1;
          animation-iteration-count: 1;
          -webkit-animation-iteration-count: var(--animate-repeat);
          animation-iteration-count: var(--animate-repeat);
        }
    .animate__animated.animate__delay-1s {
          -webkit-animation-delay: 1s;
          animation-delay: 1s;
          -webkit-animation-delay: var(--animate-delay);
          animation-delay: var(--animate-delay);
        }
    .animate__animated.animate__faster {
          -webkit-animation-duration: calc(1s / 2);
          animation-duration: calc(1s / 2);
          -webkit-animation-duration: calc(var(--animate-duration) / 2);
          animation-duration: calc(var(--animate-duration) / 2);
        }</style>
  <g id="svg_28" class="animate__animated animate__fadeIn animate__repeat-1 animate__delay-1s animate__faster">
   <g id="svg_9">
    <path d="m644.682,431.106c-11.4,0 -22.4,-2.101 -33.2,-6.399c-10.8,-4.2 -20.5,-10.7 -29.101,-19.301c-8.301,-8.5 -14.699,-18 -19.101,-28.699c-4.399,-10.602 -6.6,-21.9 -6.6,-33.7c0,-12 2.199,-23.3 6.6,-33.899c4.4,-10.601 10.8,-20.101 19.101,-28.399c8.601,-8.601 18.399,-15.101 29.301,-19.399c10.898,-4.301 21.898,-6.5 33.199,-6.5s22.301,2.199 33.101,6.5c10.8,4.299 20.5,10.799 29.1,19.399l-28.5,28.5c-4.6,-4.601 -9.898,-8.101 -15.8,-10.399c-5.9,-2.3 -11.899,-3.5 -18,-3.5c-6.1,0 -12,1.199 -17.899,3.5c-5.801,2.299 -11.101,5.799 -15.699,10.399c-4.5,4.601 -7.9,9.8 -10.301,15.601c-2.399,5.799 -3.601,11.799 -3.601,18.199c0,6.399 1.2,12.399 3.601,18.102c2.399,5.699 5.801,10.799 10.301,15.5c4.6,4.6 9.898,8.1 15.699,10.398c5.801,2.301 11.801,3.5 17.899,3.5c6.1,0 12.101,-1.199 18,-3.5c5.9,-2.3 11.2,-5.8 15.8,-10.398l28.5,28.799c-8.6,8.601 -18.3,15.101 -29,19.301c-10.801,4.296 -21.9,6.395 -33.4,6.395l0,0z" fill="#FF4606" id="svg_10"/>
   </g>
  </g>
  <style type="text/css">:root {
        --animate-duration: 1s;
        --animate-delay: 1s;
        --animate-repeat: 1;
      }
      
       .animate__animated {
        -webkit-animation-duration: 1s;
        animation-duration: 1s;
        -webkit-animation-duration: var(--animate-duration);
        animation-duration: var(--animate-duration);
        -webkit-animation-fill-mode: both;
        animation-fill-mode: both;
      }
    @-webkit-keyframes fadeIn {
    from {
        opacity: 0
    }

    to {
        opacity: 1
    }
}

@keyframes fadeIn {
    from {
        opacity: 0
    }

    to {
        opacity: 1
    }
}

.animate__fadeIn {
    -webkit-animation-name: fadeIn;
    animation-name: fadeIn
}

    .animate__animated.animate__repeat-1 {
          -webkit-animation-iteration-count: 1;
          animation-iteration-count: 1;
          -webkit-animation-iteration-count: var(--animate-repeat);
          animation-iteration-count: var(--animate-repeat);
        }
    .animate__animated.animate__delay-1s {
          -webkit-animation-delay: 1s;
          animation-delay: 1s;
          -webkit-animation-delay: var(--animate-delay);
          animation-delay: var(--animate-delay);
        }
    .animate__animated.animate__faster {
          -webkit-animation-duration: calc(1s / 2);
          animation-duration: calc(1s / 2);
          -webkit-animation-duration: calc(var(--animate-duration) / 2);
          animation-duration: calc(var(--animate-duration) / 2);
        }</style>
  <g id="svg_29" class="animate__animated animate__fadeIn animate__repeat-1 animate__delay-1s animate__faster">
   <g id="svg_11">
    <path d="m712.315,392.207c-6.4,-2.5 -12.3,-6.4 -17.4,-11.602l17.2,-17.299c2.8,2.799 6,4.899 9.5,6.299c3.602,1.4 7.2,2.102 10.8,2.102c3.7,0 7.2,-0.7 10.7,-2.102c3.5,-1.398 6.7,-3.5 9.4,-6.299c2.7,-2.801 4.8,-5.9 6.2,-9.301c1.398,-3.4 2.198,-7 2.198,-10.9c0,-3.799 -0.698,-7.5 -2.198,-11c-1.4,-3.5 -3.5,-6.6 -6.2,-9.398c-2.8,-2.801 -5.9,-4.9 -9.4,-6.301c-3.5,-1.399 -7.1,-2.1 -10.7,-2.1c-3.698,0 -7.3,0.699 -10.8,2.1c-3.6,1.4 -6.7,3.5 -9.5,6.301l-17.2,-17.2c5.2,-5.2 11,-9.101 17.5,-11.7c6.5,-2.599 13.102,-3.899 19.9,-3.899s13.4,1.301 20,3.899c6.5,2.601 12.4,6.5 17.6,11.7c5,5 8.802,10.7 11.5,17.101c2.602,6.399 4,13.199 4,20.399c0,7.101 -1.3,13.899 -4,20.3c-2.6,6.4 -6.5,12.101 -11.5,17.2c-5.198,5.2 -11,9.101 -17.5,11.601s-13.1,3.8 -20,3.8c-6.9,0.099 -13.6,-1.101 -20.1,-3.701z" id="svg_12"/>
   </g>
  </g>
 </g>
</svg>