<svg width="800" height="450" xmlns="http://www.w3.org/2000/svg">
 <g>
  <title>background</title>
  <rect x="-1" y="-1" width="1068.66667" height="602" id="canvas_background" fill="#fff"/>
 </g>

 <title>background</title>
 <title>Layer 1</title>
 <g>
  <title>Layer 1</title>
  <rect height="452" width="802" fill="#FFFFFF" y="-1" x="-1" id="canvas_background"/>
  <g id="svg_8">
   <path d="m-2,195.339l296.179,0l87.818,86.959l-383.997,0l0,-86.959l0,0z" fill="#F1C40F" id="svg_6"/>
  </g>
  <text font-size="19.497" font-family="'Arial-BoldMT'" fill="#F1C40F" transform="matrix(1,0,0,1,31.0291,265.9883) " id="svg_10">March 8PM</text>
  <text font-size="19.2666" font-family="'Arial-BoldMT'" fill="#F1C40F" transform="matrix(1,0,0,1,234.6697,225.8574) " id="svg_13">Th</text>
  <text font-size="46.8512" font-family="'Arial-BoldMT'" fill="#F1C40F" transform="matrix(1,0,0,1,28.3773,246.6544) " id="svg_12">Friday 15</text>
  <style type="text/css">:root {
        --animate-duration: 1s;
        --animate-delay: 1s;
        --animate-repeat: 1;
      }
      
       .animate__animated {
        -webkit-animation-duration: 1s;
        animation-duration: 1s;
        -webkit-animation-duration: var(--animate-duration);
        animation-duration: var(--animate-duration);
        -webkit-animation-fill-mode: both;
        animation-fill-mode: both;
      }
    
@-webkit-keyframes zoomInLeft {
    from {
        opacity: 0;
        -webkit-transform: scale3d(.1, .1, .1) translate3d(-1000px, 0, 0);
        transform: scale3d(.1, .1, .1) translate3d(-1000px, 0, 0);
        -webkit-animation-timing-function: cubic-bezier(.55, .055, .675, .19);
        animation-timing-function: cubic-bezier(.55, .055, .675, .19)
    }

    60% {
        opacity: 1;
        -webkit-transform: scale3d(.475, .475, .475) translate3d(10px, 0, 0);
        transform: scale3d(.475, .475, .475) translate3d(10px, 0, 0);
        -webkit-animation-timing-function: cubic-bezier(.175, .885, .32, 1);
        animation-timing-function: cubic-bezier(.175, .885, .32, 1)
    }
}

@keyframes zoomInLeft {
    from {
        opacity: 0;
        -webkit-transform: scale3d(.1, .1, .1) translate3d(-1000px, 0, 0);
        transform: scale3d(.1, .1, .1) translate3d(-1000px, 0, 0);
        -webkit-animation-timing-function: cubic-bezier(.55, .055, .675, .19);
        animation-timing-function: cubic-bezier(.55, .055, .675, .19)
    }

    60% {
        opacity: 1;
        -webkit-transform: scale3d(.475, .475, .475) translate3d(10px, 0, 0);
        transform: scale3d(.475, .475, .475) translate3d(10px, 0, 0);
        -webkit-animation-timing-function: cubic-bezier(.175, .885, .32, 1);
        animation-timing-function: cubic-bezier(.175, .885, .32, 1)
    }
}

.animate__zoomInLeft {
    -webkit-animation-name: zoomInLeft;
    animation-name: zoomInLeft
}
    .animate__animated.animate__repeat-1 {
          -webkit-animation-iteration-count: 1;
          animation-iteration-count: 1;
          -webkit-animation-iteration-count: var(--animate-repeat);
          animation-iteration-count: var(--animate-repeat);
        }
    .animate__animated.animate__delay-1s {
          -webkit-animation-delay: 1s;
          animation-delay: 1s;
          -webkit-animation-delay: var(--animate-delay);
          animation-delay: var(--animate-delay);
        }
    .animate__animated.animate__faster {
          -webkit-animation-duration: calc(1s / 2);
          animation-duration: calc(1s / 2);
          -webkit-animation-duration: calc(var(--animate-duration) / 2);
          animation-duration: calc(var(--animate-duration) / 2);
        }</style>
  <g class="animate__animated animate__zoomInLeft animate__repeat-1 animate__delay-1s animate__faster" id="svg_1">
   <g id="svg_45">
    <rect height="18.67" width="97.281" fill="#F0514D" y="317.162" x="607.859" id="svg_19"/>
    <rect height="154.209" width="97.281" fill="#E82852" y="162.954" x="607.859" id="svg_20"/>
    <rect height="18.67" width="97.281" fill="#F0514D" y="144.284" x="607.859" id="svg_21"/>
    <path d="m621.993,185.85c-0.274,0 -0.558,-0.029 -0.83,-0.085c-0.271,-0.051 -0.541,-0.136 -0.796,-0.243c-0.26,-0.106 -0.507,-0.239 -0.734,-0.387c-0.234,-0.158 -0.451,-0.336 -0.647,-0.532c-0.194,-0.196 -0.374,-0.413 -0.525,-0.647c-0.153,-0.23 -0.285,-0.477 -0.394,-0.732c-0.104,-0.259 -0.188,-0.527 -0.243,-0.8c-0.056,-0.272 -0.085,-0.553 -0.085,-0.83c0,-0.276 0.029,-0.558 0.085,-0.83c0.058,-0.273 0.139,-0.541 0.243,-0.801c0.106,-0.255 0.238,-0.502 0.394,-0.732c0.151,-0.234 0.331,-0.451 0.525,-0.647c0.196,-0.196 0.413,-0.375 0.647,-0.528c0.229,-0.153 0.477,-0.285 0.734,-0.392c0.255,-0.106 0.523,-0.191 0.796,-0.247c0.551,-0.11 1.115,-0.11 1.664,0c0.271,0.056 0.536,0.141 0.798,0.247c0.256,0.106 0.503,0.238 0.73,0.392c0.234,0.153 0.451,0.332 0.646,0.528c0.194,0.196 0.375,0.413 0.53,0.647c0.153,0.229 0.285,0.477 0.394,0.732c0.104,0.26 0.188,0.528 0.243,0.801c0.056,0.272 0.079,0.553 0.079,0.83c0,0.277 -0.023,0.558 -0.079,0.83c-0.058,0.273 -0.139,0.541 -0.243,0.8c-0.106,0.256 -0.238,0.502 -0.394,0.732c-0.155,0.234 -0.336,0.451 -0.53,0.647c-0.788,0.792 -1.886,1.247 -3.008,1.247l0,0z" id="svg_22"/>
    <polyline points="724.171,229.447 724.171,337.25 739.794,337.25 739.794,229.447  " fill="#DAE9EC" id="svg_23"/>
    <circle r="15.324" cy="216.259" cx="731.982" fill="#FCB653" id="svg_24"/>
    <path d="m750.57,353.709l-37.174,0l0,-8.352c0,-4.479 3.629,-8.107 8.106,-8.107l20.961,0c4.477,0 8.104,3.631 8.104,8.107l0.003,8.352l0,0l0,0z" fill="#00748E" id="svg_25"/>
    <polyline points="573.203,229.447 573.203,337.25 588.825,337.25 588.825,229.447  " fill="#DAE9EC" id="svg_26"/>
    <circle r="15.324" cy="216.259" cx="581.017" fill="#FCB653" id="svg_27"/>
    <path d="m599.604,353.709l-37.175,0l0,-8.352c0,-4.479 3.63,-8.107 8.105,-8.107l20.96,0c4.479,0 8.107,3.631 8.107,8.107l0.003,8.352l0,0z" fill="#00748E" id="svg_28"/>
    <path d="m744.05,333.096l0,-101.425c4.569,-3.588 7.514,-9.162 7.514,-15.41c0,-10.796 -8.784,-19.581 -19.581,-19.581c-10.796,0 -19.58,8.784 -19.58,19.581c0,6.248 2.941,11.822 7.513,15.41l0,7.195c0,12.185 -3.899,23.475 -10.519,32.688l0,-127.27c0,-2.351 -1.906,-4.257 -4.257,-4.257l-97.28,0c-2.352,0 -4.257,1.906 -4.257,4.257l0,127.271c-6.618,-9.214 -10.519,-20.504 -10.519,-32.688l0,-7.195c4.569,-3.588 7.513,-9.162 7.513,-15.41c0,-10.796 -8.783,-19.581 -19.58,-19.581s-19.58,8.784 -19.58,19.581c0,6.248 2.94,11.822 7.513,15.41l0,101.426c-6.068,0.78 -10.774,5.981 -10.774,12.262l0,8.353c0,2.353 1.904,4.258 4.257,4.258l37.174,0c2.352,0 4.257,-1.905 4.257,-4.258l0,-8.353c0,-6.278 -4.706,-11.479 -10.774,-12.262l0,-62.183c2.888,5.039 6.433,9.653 10.519,13.729l0,51.188c0,2.352 1.905,4.257 4.257,4.257l97.28,0c2.351,0 4.257,-1.905 4.257,-4.257l0,-51.188c4.086,-4.074 7.631,-8.689 10.521,-13.729l0,62.183c-6.071,0.78 -10.776,5.981 -10.776,12.262l0,8.353c0,2.353 1.905,4.258 4.257,4.258l37.174,0c2.353,0 4.257,-1.905 4.257,-4.258l0,-8.353c-0.013,-6.282 -4.718,-11.483 -10.786,-12.264l0,0zm-163.034,-127.902c6.104,0 11.065,4.964 11.065,11.067c0,6.104 -4.964,11.067 -11.065,11.067c-6.103,0 -11.066,-4.964 -11.066,-11.067c-0.002,-6.102 4.962,-11.067 11.066,-11.067zm14.331,140.163l0,4.096l-28.661,0l0,-4.096c0,-2.123 1.728,-3.852 3.851,-3.852l20.96,0c2.12,0.003 3.85,1.729 3.85,3.852zm-10.776,-12.363l-7.106,0l0,-97.477c1.151,0.213 2.341,0.322 3.554,0.322c1.214,0 2.402,-0.109 3.555,-0.322l-0.003,97.477l0,0zm37.423,-137.78c-2.352,0 -4.257,1.906 -4.257,4.257l0,85.864c-1.967,-1.338 -3.846,-2.798 -5.623,-4.368l0,-113.756l88.769,0l0,113.756c-9.904,8.745 -22.907,14.059 -37.127,14.059l-14.516,0c-8.186,0 -15.969,-1.762 -22.988,-4.924l0,-90.631c0.001,-2.351 -1.905,-4.257 -4.258,-4.257l0,0zm-9.879,-46.673l88.77,0l0,10.157l-88.77,0l0,-10.157zm5.625,146.793l0,17.571l-5.624,0l0,-21.112c1.809,1.271 3.685,2.455 5.624,3.541zm83.143,36.242l-88.77,0l0,-10.158l88.77,0l0,10.158zm0,-18.672l-74.631,0l0,-13.588c7.146,2.728 14.896,4.222 22.988,4.222l14.516,0c13.804,0 26.61,-4.349 37.127,-11.745l0,21.111l0,0l0,0zm31.1,-107.71c6.104,0 11.066,4.964 11.066,11.067c0,6.104 -4.966,11.067 -11.066,11.067c-6.104,0 -11.067,-4.964 -11.067,-11.067c-0.003,-6.102 4.963,-11.067 11.067,-11.067zm-3.555,30.324c1.151,0.213 2.341,0.324 3.555,0.324s2.401,-0.111 3.555,-0.324l0,97.479l-7.107,0l-0.003,-97.479l0,0l0,0zm17.885,113.935l-28.661,0l0,-4.096c0,-2.123 1.729,-3.852 3.853,-3.852l20.96,0c2.123,0 3.851,1.729 3.851,3.852l-0.003,4.096l0,0z" id="svg_29"/>
    <g transform="matrix(0.4256619786247029,0,0,0.4256619786247029,-1505.2285985697963,-803.8505269680172) " id="svg_30"/>
    <g transform="matrix(0.4256619786247029,0,0,0.4256619786247029,-1505.2285985697963,-803.8505269680172) " id="svg_31"/>
    <g transform="matrix(0.4256619786247029,0,0,0.4256619786247029,-1505.2285985697963,-803.8505269680172) " id="svg_32"/>
    <g transform="matrix(0.4256619786247029,0,0,0.4256619786247029,-1505.2285985697963,-803.8505269680172) " id="svg_33"/>
    <g transform="matrix(0.4256619786247029,0,0,0.4256619786247029,-1505.2285985697963,-803.8505269680172) " id="svg_34"/>
    <g transform="matrix(0.4256619786247029,0,0,0.4256619786247029,-1505.2285985697963,-803.8505269680172) " id="svg_35"/>
    <g transform="matrix(0.4256619786247029,0,0,0.4256619786247029,-1505.2285985697963,-803.8505269680172) " id="svg_36"/>
    <g transform="matrix(0.4256619786247029,0,0,0.4256619786247029,-1505.2285985697963,-803.8505269680172) " id="svg_37"/>
    <g transform="matrix(0.4256619786247029,0,0,0.4256619786247029,-1505.2285985697963,-803.8505269680172) " id="svg_38"/>
    <g transform="matrix(0.4256619786247029,0,0,0.4256619786247029,-1505.2285985697963,-803.8505269680172) " id="svg_39"/>
    <g transform="matrix(0.4256619786247029,0,0,0.4256619786247029,-1505.2285985697963,-803.8505269680172) " id="svg_40"/>
    <g transform="matrix(0.4256619786247029,0,0,0.4256619786247029,-1505.2285985697963,-803.8505269680172) " id="svg_41"/>
    <g transform="matrix(0.4256619786247029,0,0,0.4256619786247029,-1505.2285985697963,-803.8505269680172) " id="svg_42"/>
    <g transform="matrix(0.4256619786247029,0,0,0.4256619786247029,-1505.2285985697963,-803.8505269680172) " id="svg_43"/>
    <g transform="matrix(0.4256619786247029,0,0,0.4256619786247029,-1505.2285985697963,-803.8505269680172) " id="svg_44"/>
   </g>
  </g>
  <style type="text/css">:root {
        --animate-duration: 1s;
        --animate-delay: 1s;
        --animate-repeat: 1;
      }
      
       .animate__animated {
        -webkit-animation-duration: 1s;
        animation-duration: 1s;
        -webkit-animation-duration: var(--animate-duration);
        animation-duration: var(--animate-duration);
        -webkit-animation-fill-mode: both;
        animation-fill-mode: both;
      }
    
@-webkit-keyframes zoomInLeft {
    from {
        opacity: 0;
        -webkit-transform: scale3d(.1, .1, .1) translate3d(-1000px, 0, 0);
        transform: scale3d(.1, .1, .1) translate3d(-1000px, 0, 0);
        -webkit-animation-timing-function: cubic-bezier(.55, .055, .675, .19);
        animation-timing-function: cubic-bezier(.55, .055, .675, .19)
    }

    60% {
        opacity: 1;
        -webkit-transform: scale3d(.475, .475, .475) translate3d(10px, 0, 0);
        transform: scale3d(.475, .475, .475) translate3d(10px, 0, 0);
        -webkit-animation-timing-function: cubic-bezier(.175, .885, .32, 1);
        animation-timing-function: cubic-bezier(.175, .885, .32, 1)
    }
}

@keyframes zoomInLeft {
    from {
        opacity: 0;
        -webkit-transform: scale3d(.1, .1, .1) translate3d(-1000px, 0, 0);
        transform: scale3d(.1, .1, .1) translate3d(-1000px, 0, 0);
        -webkit-animation-timing-function: cubic-bezier(.55, .055, .675, .19);
        animation-timing-function: cubic-bezier(.55, .055, .675, .19)
    }

    60% {
        opacity: 1;
        -webkit-transform: scale3d(.475, .475, .475) translate3d(10px, 0, 0);
        transform: scale3d(.475, .475, .475) translate3d(10px, 0, 0);
        -webkit-animation-timing-function: cubic-bezier(.175, .885, .32, 1);
        animation-timing-function: cubic-bezier(.175, .885, .32, 1)
    }
}

.animate__zoomInLeft {
    -webkit-animation-name: zoomInLeft;
    animation-name: zoomInLeft
}
    .animate__animated.animate__repeat-1 {
          -webkit-animation-iteration-count: 1;
          animation-iteration-count: 1;
          -webkit-animation-iteration-count: var(--animate-repeat);
          animation-iteration-count: var(--animate-repeat);
        }
    .animate__animated.animate__delay-1s {
          -webkit-animation-delay: 1s;
          animation-delay: 1s;
          -webkit-animation-delay: var(--animate-delay);
          animation-delay: var(--animate-delay);
        }
    .animate__animated.animate__faster {
          -webkit-animation-duration: calc(1s / 2);
          animation-duration: calc(1s / 2);
          -webkit-animation-duration: calc(var(--animate-duration) / 2);
          animation-duration: calc(var(--animate-duration) / 2);
        }</style>
  <g id="svg_2">
   <style type="text/css">:root {
        --animate-duration: 1s;
        --animate-delay: 1s;
        --animate-repeat: 1;
      }
      
       .animate__animated {
        -webkit-animation-duration: 1s;
        animation-duration: 1s;
        -webkit-animation-duration: var(--animate-duration);
        animation-duration: var(--animate-duration);
        -webkit-animation-fill-mode: both;
        animation-fill-mode: both;
      }
    
@-webkit-keyframes zoomInLeft {
    from {
        opacity: 0;
        -webkit-transform: scale3d(.1, .1, .1) translate3d(-1000px, 0, 0);
        transform: scale3d(.1, .1, .1) translate3d(-1000px, 0, 0);
        -webkit-animation-timing-function: cubic-bezier(.55, .055, .675, .19);
        animation-timing-function: cubic-bezier(.55, .055, .675, .19)
    }

    60% {
        opacity: 1;
        -webkit-transform: scale3d(.475, .475, .475) translate3d(10px, 0, 0);
        transform: scale3d(.475, .475, .475) translate3d(10px, 0, 0);
        -webkit-animation-timing-function: cubic-bezier(.175, .885, .32, 1);
        animation-timing-function: cubic-bezier(.175, .885, .32, 1)
    }
}

@keyframes zoomInLeft {
    from {
        opacity: 0;
        -webkit-transform: scale3d(.1, .1, .1) translate3d(-1000px, 0, 0);
        transform: scale3d(.1, .1, .1) translate3d(-1000px, 0, 0);
        -webkit-animation-timing-function: cubic-bezier(.55, .055, .675, .19);
        animation-timing-function: cubic-bezier(.55, .055, .675, .19)
    }

    60% {
        opacity: 1;
        -webkit-transform: scale3d(.475, .475, .475) translate3d(10px, 0, 0);
        transform: scale3d(.475, .475, .475) translate3d(10px, 0, 0);
        -webkit-animation-timing-function: cubic-bezier(.175, .885, .32, 1);
        animation-timing-function: cubic-bezier(.175, .885, .32, 1)
    }
}

.animate__zoomInLeft {
    -webkit-animation-name: zoomInLeft;
    animation-name: zoomInLeft
}
    .animate__animated.animate__repeat-1 {
          -webkit-animation-iteration-count: 1;
          animation-iteration-count: 1;
          -webkit-animation-iteration-count: var(--animate-repeat);
          animation-iteration-count: var(--animate-repeat);
        }
    .animate__animated.animate__delay-2s {
          -webkit-animation-delay: calc(1s * 2);
          animation-delay: calc(1s * 2);
          -webkit-animation-delay: calc(var(--animate-delay) * 2);
          animation-delay: calc(var(--animate-delay) * 2);
        }
    .animate__animated.animate__faster {
          -webkit-animation-duration: calc(1s / 2);
          animation-duration: calc(1s / 2);
          -webkit-animation-duration: calc(var(--animate-duration) / 2);
          animation-duration: calc(var(--animate-duration) / 2);
        }</style>
   <g class="animate__animated animate__zoomInLeft animate__repeat-1 animate__delay-2s animate__faster" id="svg_4">
    <text font-size="41.07" font-family="'Arial-BoldMT'" fill="#EF1010" transform="matrix(1,0,0,1,19.929,90.1572) " id="svg_5">You are Invited</text>
   </g>
  </g>
  <style type="text/css">:root {
        --animate-duration: 1s;
        --animate-delay: 1s;
        --animate-repeat: 1;
      }
      
       .animate__animated {
        -webkit-animation-duration: 1s;
        animation-duration: 1s;
        -webkit-animation-duration: var(--animate-duration);
        animation-duration: var(--animate-duration);
        -webkit-animation-fill-mode: both;
        animation-fill-mode: both;
      }
    
@-webkit-keyframes zoomInLeft {
    from {
        opacity: 0;
        -webkit-transform: scale3d(.1, .1, .1) translate3d(-1000px, 0, 0);
        transform: scale3d(.1, .1, .1) translate3d(-1000px, 0, 0);
        -webkit-animation-timing-function: cubic-bezier(.55, .055, .675, .19);
        animation-timing-function: cubic-bezier(.55, .055, .675, .19)
    }

    60% {
        opacity: 1;
        -webkit-transform: scale3d(.475, .475, .475) translate3d(10px, 0, 0);
        transform: scale3d(.475, .475, .475) translate3d(10px, 0, 0);
        -webkit-animation-timing-function: cubic-bezier(.175, .885, .32, 1);
        animation-timing-function: cubic-bezier(.175, .885, .32, 1)
    }
}

@keyframes zoomInLeft {
    from {
        opacity: 0;
        -webkit-transform: scale3d(.1, .1, .1) translate3d(-1000px, 0, 0);
        transform: scale3d(.1, .1, .1) translate3d(-1000px, 0, 0);
        -webkit-animation-timing-function: cubic-bezier(.55, .055, .675, .19);
        animation-timing-function: cubic-bezier(.55, .055, .675, .19)
    }

    60% {
        opacity: 1;
        -webkit-transform: scale3d(.475, .475, .475) translate3d(10px, 0, 0);
        transform: scale3d(.475, .475, .475) translate3d(10px, 0, 0);
        -webkit-animation-timing-function: cubic-bezier(.175, .885, .32, 1);
        animation-timing-function: cubic-bezier(.175, .885, .32, 1)
    }
}

.animate__zoomInLeft {
    -webkit-animation-name: zoomInLeft;
    animation-name: zoomInLeft
}
    .animate__animated.animate__repeat-1 {
          -webkit-animation-iteration-count: 1;
          animation-iteration-count: 1;
          -webkit-animation-iteration-count: var(--animate-repeat);
          animation-iteration-count: var(--animate-repeat);
        }
    .animate__animated.animate__delay-2s {
          -webkit-animation-delay: calc(1s * 2);
          animation-delay: calc(1s * 2);
          -webkit-animation-delay: calc(var(--animate-delay) * 2);
          animation-delay: calc(var(--animate-delay) * 2);
        }
    .animate__animated.animate__faster {
          -webkit-animation-duration: calc(1s / 2);
          animation-duration: calc(1s / 2);
          -webkit-animation-duration: calc(var(--animate-duration) / 2);
          animation-duration: calc(var(--animate-duration) / 2);
        }</style>
  <g id="svg_7">
   <style type="text/css">:root {
        --animate-duration: 1s;
        --animate-delay: 1s;
        --animate-repeat: 1;
      }
      
       .animate__animated {
        -webkit-animation-duration: 1s;
        animation-duration: 1s;
        -webkit-animation-duration: var(--animate-duration);
        animation-duration: var(--animate-duration);
        -webkit-animation-fill-mode: both;
        animation-fill-mode: both;
      }
    
@-webkit-keyframes zoomInLeft {
    from {
        opacity: 0;
        -webkit-transform: scale3d(.1, .1, .1) translate3d(-1000px, 0, 0);
        transform: scale3d(.1, .1, .1) translate3d(-1000px, 0, 0);
        -webkit-animation-timing-function: cubic-bezier(.55, .055, .675, .19);
        animation-timing-function: cubic-bezier(.55, .055, .675, .19)
    }

    60% {
        opacity: 1;
        -webkit-transform: scale3d(.475, .475, .475) translate3d(10px, 0, 0);
        transform: scale3d(.475, .475, .475) translate3d(10px, 0, 0);
        -webkit-animation-timing-function: cubic-bezier(.175, .885, .32, 1);
        animation-timing-function: cubic-bezier(.175, .885, .32, 1)
    }
}

@keyframes zoomInLeft {
    from {
        opacity: 0;
        -webkit-transform: scale3d(.1, .1, .1) translate3d(-1000px, 0, 0);
        transform: scale3d(.1, .1, .1) translate3d(-1000px, 0, 0);
        -webkit-animation-timing-function: cubic-bezier(.55, .055, .675, .19);
        animation-timing-function: cubic-bezier(.55, .055, .675, .19)
    }

    60% {
        opacity: 1;
        -webkit-transform: scale3d(.475, .475, .475) translate3d(10px, 0, 0);
        transform: scale3d(.475, .475, .475) translate3d(10px, 0, 0);
        -webkit-animation-timing-function: cubic-bezier(.175, .885, .32, 1);
        animation-timing-function: cubic-bezier(.175, .885, .32, 1)
    }
}

.animate__zoomInLeft {
    -webkit-animation-name: zoomInLeft;
    animation-name: zoomInLeft
}
    .animate__animated.animate__repeat-1 {
          -webkit-animation-iteration-count: 1;
          animation-iteration-count: 1;
          -webkit-animation-iteration-count: var(--animate-repeat);
          animation-iteration-count: var(--animate-repeat);
        }
    .animate__animated.animate__delay-3s {
          -webkit-animation-delay: calc(1s * 3);
          animation-delay: calc(1s * 3);
          -webkit-animation-delay: calc(var(--animate-delay) * 3);
          animation-delay: calc(var(--animate-delay) * 3);
        }
    .animate__animated.animate__faster {
          -webkit-animation-duration: calc(1s / 2);
          animation-duration: calc(1s / 2);
          -webkit-animation-duration: calc(var(--animate-duration) / 2);
          animation-duration: calc(var(--animate-duration) / 2);
        }</style>
   <g class="animate__animated animate__zoomInLeft animate__repeat-1 animate__delay-3s animate__faster" id="svg_9">
    <text font-size="48.5263" font-family="'Arial-BoldMT'" fill="#EF1010" transform="matrix(1,0,0,1,19.4709,139.3203) " id="svg_3">to Opening Ceremony</text>
   </g>
  </g>
  <style type="text/css">:root {
        --animate-duration: 1s;
        --animate-delay: 1s;
        --animate-repeat: 1;
      }
      
       .animate__animated {
        -webkit-animation-duration: 1s;
        animation-duration: 1s;
        -webkit-animation-duration: var(--animate-duration);
        animation-duration: var(--animate-duration);
        -webkit-animation-fill-mode: both;
        animation-fill-mode: both;
      }
    
@-webkit-keyframes zoomInLeft {
    from {
        opacity: 0;
        -webkit-transform: scale3d(.1, .1, .1) translate3d(-1000px, 0, 0);
        transform: scale3d(.1, .1, .1) translate3d(-1000px, 0, 0);
        -webkit-animation-timing-function: cubic-bezier(.55, .055, .675, .19);
        animation-timing-function: cubic-bezier(.55, .055, .675, .19)
    }

    60% {
        opacity: 1;
        -webkit-transform: scale3d(.475, .475, .475) translate3d(10px, 0, 0);
        transform: scale3d(.475, .475, .475) translate3d(10px, 0, 0);
        -webkit-animation-timing-function: cubic-bezier(.175, .885, .32, 1);
        animation-timing-function: cubic-bezier(.175, .885, .32, 1)
    }
}

@keyframes zoomInLeft {
    from {
        opacity: 0;
        -webkit-transform: scale3d(.1, .1, .1) translate3d(-1000px, 0, 0);
        transform: scale3d(.1, .1, .1) translate3d(-1000px, 0, 0);
        -webkit-animation-timing-function: cubic-bezier(.55, .055, .675, .19);
        animation-timing-function: cubic-bezier(.55, .055, .675, .19)
    }

    60% {
        opacity: 1;
        -webkit-transform: scale3d(.475, .475, .475) translate3d(10px, 0, 0);
        transform: scale3d(.475, .475, .475) translate3d(10px, 0, 0);
        -webkit-animation-timing-function: cubic-bezier(.175, .885, .32, 1);
        animation-timing-function: cubic-bezier(.175, .885, .32, 1)
    }
}

.animate__zoomInLeft {
    -webkit-animation-name: zoomInLeft;
    animation-name: zoomInLeft
}
    .animate__animated.animate__repeat-1 {
          -webkit-animation-iteration-count: 1;
          animation-iteration-count: 1;
          -webkit-animation-iteration-count: var(--animate-repeat);
          animation-iteration-count: var(--animate-repeat);
        }
    .animate__animated.animate__delay-4s {
          -webkit-animation-delay: calc(1s * 4);
          animation-delay: calc(1s * 4);
          -webkit-animation-delay: calc(var(--animate-delay) * 4);
          animation-delay: calc(var(--animate-delay) * 4);
        }
    .animate__animated.animate__faster {
          -webkit-animation-duration: calc(1s / 2);
          animation-duration: calc(1s / 2);
          -webkit-animation-duration: calc(var(--animate-duration) / 2);
          animation-duration: calc(var(--animate-duration) / 2);
        }</style>
  <g class="animate__animated animate__zoomInLeft animate__repeat-1 animate__delay-4s animate__faster" id="svg_11">
   <text font-size="20.6139" font-family="'ArialMT'" fill="#2F2F30" transform="matrix(1,0,0,1,18.929,336.0254) " id="svg_15">quis nostrud exercitation ullamco laboris nisi ut aliquip.</text>
  </g>
  <style type="text/css">:root {
        --animate-duration: 1s;
        --animate-delay: 1s;
        --animate-repeat: 1;
      }
      
       .animate__animated {
        -webkit-animation-duration: 1s;
        animation-duration: 1s;
        -webkit-animation-duration: var(--animate-duration);
        animation-duration: var(--animate-duration);
        -webkit-animation-fill-mode: both;
        animation-fill-mode: both;
      }
    
@-webkit-keyframes zoomInLeft {
    from {
        opacity: 0;
        -webkit-transform: scale3d(.1, .1, .1) translate3d(-1000px, 0, 0);
        transform: scale3d(.1, .1, .1) translate3d(-1000px, 0, 0);
        -webkit-animation-timing-function: cubic-bezier(.55, .055, .675, .19);
        animation-timing-function: cubic-bezier(.55, .055, .675, .19)
    }

    60% {
        opacity: 1;
        -webkit-transform: scale3d(.475, .475, .475) translate3d(10px, 0, 0);
        transform: scale3d(.475, .475, .475) translate3d(10px, 0, 0);
        -webkit-animation-timing-function: cubic-bezier(.175, .885, .32, 1);
        animation-timing-function: cubic-bezier(.175, .885, .32, 1)
    }
}

@keyframes zoomInLeft {
    from {
        opacity: 0;
        -webkit-transform: scale3d(.1, .1, .1) translate3d(-1000px, 0, 0);
        transform: scale3d(.1, .1, .1) translate3d(-1000px, 0, 0);
        -webkit-animation-timing-function: cubic-bezier(.55, .055, .675, .19);
        animation-timing-function: cubic-bezier(.55, .055, .675, .19)
    }

    60% {
        opacity: 1;
        -webkit-transform: scale3d(.475, .475, .475) translate3d(10px, 0, 0);
        transform: scale3d(.475, .475, .475) translate3d(10px, 0, 0);
        -webkit-animation-timing-function: cubic-bezier(.175, .885, .32, 1);
        animation-timing-function: cubic-bezier(.175, .885, .32, 1)
    }
}

.animate__zoomInLeft {
    -webkit-animation-name: zoomInLeft;
    animation-name: zoomInLeft
}
    .animate__animated.animate__repeat-1 {
          -webkit-animation-iteration-count: 1;
          animation-iteration-count: 1;
          -webkit-animation-iteration-count: var(--animate-repeat);
          animation-iteration-count: var(--animate-repeat);
        }
    .animate__animated.animate__delay-4s {
          -webkit-animation-delay: calc(1s * 4);
          animation-delay: calc(1s * 4);
          -webkit-animation-delay: calc(var(--animate-delay) * 4);
          animation-delay: calc(var(--animate-delay) * 4);
        }
    .animate__animated.animate__faster {
          -webkit-animation-duration: calc(1s / 2);
          animation-duration: calc(1s / 2);
          -webkit-animation-duration: calc(var(--animate-duration) / 2);
          animation-duration: calc(var(--animate-duration) / 2);
        }</style>
  <g class="animate__animated animate__zoomInLeft animate__repeat-1 animate__delay-4s animate__faster" id="svg_17">
   <text font-size="15.91" font-family="'ArialMT'" fill="#2F2F30" transform="matrix(1,0,0,1,18.9299,362.9697) " id="svg_14">Lorem ipsum dolor sit amet, consectetur adipiscing elit,</text>
  </g>
  <style type="text/css">:root {
        --animate-duration: 1s;
        --animate-delay: 1s;
        --animate-repeat: 1;
      }
      
       .animate__animated {
        -webkit-animation-duration: 1s;
        animation-duration: 1s;
        -webkit-animation-duration: var(--animate-duration);
        animation-duration: var(--animate-duration);
        -webkit-animation-fill-mode: both;
        animation-fill-mode: both;
      }
    @-webkit-keyframes zoomIn {
    from {
        opacity: 0;
        -webkit-transform: scale3d(.3, .3, .3);
        transform: scale3d(.3, .3, .3)
    }

    50% {
        opacity: 1
    }
}

@keyframes zoomIn {
    from {
        opacity: 0;
        -webkit-transform: scale3d(.3, .3, .3);
        transform: scale3d(.3, .3, .3)
    }

    50% {
        opacity: 1
    }
}

.animate__zoomIn {
    -webkit-animation-name: zoomIn;
    animation-name: zoomIn
}
    .animate__animated.animate__repeat-1 {
          -webkit-animation-iteration-count: 1;
          animation-iteration-count: 1;
          -webkit-animation-iteration-count: var(--animate-repeat);
          animation-iteration-count: var(--animate-repeat);
        }
    .animate__animated.animate__delay-4s {
          -webkit-animation-delay: calc(1s * 4);
          animation-delay: calc(1s * 4);
          -webkit-animation-delay: calc(var(--animate-delay) * 4);
          animation-delay: calc(var(--animate-delay) * 4);
        }
    .animate__animated.animate__faster {
          -webkit-animation-duration: calc(1s / 2);
          animation-duration: calc(1s / 2);
          -webkit-animation-duration: calc(var(--animate-duration) / 2);
          animation-duration: calc(var(--animate-duration) / 2);
        }</style>
  <g id="svg_18" class="animate__animated animate__zoomIn animate__repeat-1 animate__delay-4s animate__faster">
   <text font-size="15.91" font-family="'ArialMT'" fill="#2F2F30" transform="matrix(1,0,0,1,18.928,387.2207) " id="svg_16">Duis aute irure dolor in reprehenderit in voluptate velit .</text>
  </g>
 </g>
</svg>