<?xml version="1.0" encoding="utf-8"?>
<!-- Generator: Adobe Illustrator 22.0.1, SVG Export Plug-In . SVG Version: 6.00 Build 0)  -->
<svg version="1.1" xmlns="http://www.w3.org/2000/svg" xmlns:xlink="http://www.w3.org/1999/xlink" x="0px" y="0px" height="450px" width="800px"
	 viewBox="0 0 800 450" style="enable-background:new 0 0 800 450;" xml:space="preserve">
<style type="text/css">
	.st0{fill:#BBFDFF;}
	.st1{opacity:0.48;fill:#FFFBD7;}
	.st2{opacity:0.51;fill:#E7FFFD;}
	.st3{filter:url(#Adobe_OpacityMaskFilter);}
	.st4{filter:url(#Adobe_OpacityMaskFilter_1_);}
	.st5{mask:url(#SVGID_1_);fill:url(#SVGID_2_);}
	.st6{fill:url(#SVGID_3_);}
	.st7{fill:#6D6E6A;}
	.st8{fill:#F97046;}
	.st9{fill:#FF9750;}
	.st10{fill:#FFAF66;}
	.st11{fill:#FFB05A;}
	.st12{fill:#FFBD52;}
	.st13{fill:#FFD961;}
	.st14{fill:#FFA748;}
	.st15{fill:#FFE576;}
	.st16{fill:#FFBF4D;}
	.st17{fill:#FFE164;}
	.st18{fill:#FFEACC;}
	.st19{fill:#FFE3B6;}
	.st20{fill:#DBAC6E;}
	.st21{fill:#FF9C39;}
	.st22{fill:#F2D6B1;}
	.st23{fill:#FFF6E1;}
	.st24{fill:#775042;}
	.st25{fill:#5E3C31;}
	.st26{fill:#5B382E;}
	.st27{fill:#5B382D;}
	.st28{fill:#CC6981;}
	.st29{fill:#BC4B6C;}
	.st30{fill:#C9755B;}
	.st31{fill:#A85139;}
	.st32{fill:#AF603E;}
	.st33{fill:#7F4733;}
	.st34{fill:#787A17;}
	.st35{fill:#603744;}
	.st36{fill:#AFB224;}
	.st37{fill:#90991D;}
	.st38{fill:#8E3E29;}
	.st39{fill:#994B30;}
	.st40{fill:#898C1C;}
	.st41{fill:#FFE66C;}
	.st42{fill:#9BAA29;}
	.st43{fill:#C8D335;}
	.st44{fill:#80871E;}
	.st45{fill:#7AF4EE;}
	.st46{fill:#59D3D0;}
	.st47{fill:#FFAA45;}
	.st48{opacity:0.78;fill:#FFFFFF;}
	.st49{fill:#FFE578;}
	.st50{fill:#FFCB57;}
	.st51{fill:#FFA543;}
	.st52{fill:#8E2B1B;}
	.st53{fill:#C65638;}
	.st54{fill:#AD3A23;}
	.st55{fill:#962E1D;}
	.st56{fill:#842718;}
	.st57{fill:#F4CA87;}
	.st58{fill:#FFEFAB;}
	.st59{fill:#EA6575;}
	.st60{fill:#3F2E2E;}
	.st61{fill:#CEAA72;}
	.st62{fill:#E28150;}
	.st63{fill:#FFF5CA;}
	.st64{fill:#F7DEB0;}
	.st65{fill:#EDD2A6;}
	.st66{fill:#E06236;}
	.st67{fill:#BF4321;}
	.st68{fill:#9E3219;}
	.st69{fill:#8E2B14;}
	.st70{fill:#962D15;}
	.st71{fill:#FCB33D;}
	.st72{fill:#FFCE6C;}
	.st73{fill:#E2526D;}
	.st74{fill:#663F34;}
	.st75{fill:#D3485F;}
	#XMLID_24_{
	animation : swip 30s  ease-in-out infinite;
	transform : translateX(300px)
	}
	@keyframes swip{
	0%{
	transform : translateX(380px)
	}
	100%{
	transform : translateX(-500px)
	}
	}

	#b1 ,#b2 ,#b3 ,#b4 ,#b5 ,#b6 ,#b7 ,#b8{
	animation : fly 30s  ease-in-out infinite;

	transform-origin : 50%;
	transform-box : fill-box
	}
	@keyframes fly{
      0%{
      transform : scaleX(1) 
      }
      10%{
      transform : scaleX(.3)  
      }
      20%{
      transform : scaleX(1) 
      }
      30%{
      transform : scaleX(.3)  
      }
      40%{
      transform : scaleX(1)  
      }
      50%{
      transform : scaleX(.3)
      }
      60%{
      transform : scaleX(1)  
      }
      70%{
      transform : scaleX(.3) 
      }
      80%{
      transform : scaleX(1)  
      }
      90%{
      transform : scaleX(.3)  
      }
      100%{
      transform : scaleX(1)
      }
	}
	#man ,#camel1 ,#camel2{
	animation : move 30s  ease-in-out infinite
	}
	@keyframes move{
	0%{
	transform : translateX(-500px)
	}
	100%{
	transform : translateX(600px)
	}
	}
	#man-leg2{
	animation : walky2 30s  ease-in-out infinite;
	transform-box : fill-box;
	transform-origin : top center;
	}
	@keyframes walky2{
	0%{
	transform : rotate(0deg)
	}
	20%{
	transform : rotate(-45deg)
	}
	40%{
	transform : rotate(0deg)
	}
	60%{
	transform : rotate(-45deg)
	}
	80%{
	transform : rotate(0deg)
	}
	100%{
	transform : rotate(-45deg)
	}
	}
	#man-leg1{
	animation : walky1 30s  ease-in-out infinite;
	transform-box : fill-box;
	transform-origin : top center;
	}
	@keyframes walky1{
	0%{
	transform : rotate(0deg)
	}
	20%{
	transform : rotate(45deg)
	}
	40%{
	transform : rotate(0deg)
	}
	60%{
	transform : rotate(45deg)
	}
	80%{
	transform : rotate(0deg)
	}
	100%{
	transform : rotate(45deg)
	}
	}
	#front-leg1 ,#back-leg1 ,#frontlegA ,#Back-legA{
	animation : walk1 30s  ease-in-out infinite;
	transform-box : fill-box;
	transform-origin : top center;
	}
	@keyframes walk1{
	0%{
	transform : rotate(10deg)
	}
	10%{
	transform : rotate(-10deg)
	}
	20%{
	transform : rotate(10deg)
	}
	30%{
	transform : rotate(-10deg)
	}
	40%{
	transform : rotate(10deg)
	}
	50%{
	transform : rotate(-10deg)
	}
	60%{
	transform : rotate(10deg)
	}
	70%{
	transform : rotate(-10deg)
	}
	80%{
	transform : rotate(10deg)
	}
	90{
	transform : rotate(-10deg)
	}
	100%{
	transform : rotate(10deg)
	}
	}
	#front-leg2 ,#back-leg2 ,#Back-legB ,#front-legB{
	animation : walk2 30s  ease-in-out infinite;
	transform-box : fill-box;
	transform-origin : top center;
	}
	@keyframes walk2{
	0%{
	transform : rotate(-10deg)
	}
	10%{
	transform : rotate(10deg)
	}
	20%{
	transform : rotate(-10deg)
	}
	30%{
	transform : rotate(10deg)
	}
	40%{
	transform : rotate(-10deg)
	}
	50%{
	transform : rotate(10deg)
    }
    60%{
	transform : rotate(-10deg)
	}
	70%{
	transform : rotate(10deg)
	}
	80%{
	transform : rotate(-10deg)
	}
	90%{
	transform : rotate(10deg)
    }
	100%{
	transform : rotate(-10deg)
    }
	}
</style>
<g id="_x31_">
	<g>
		<rect x="2.4" class="st0" width="796.8" height="349.9"/>
		<path id="XMLID_1758_" class="st1" d="M2.4,298.5v-19.9c10.8-1.1,21.9-1.2,31.9,0.5c4,0.7,7.6,1.6,11.8,2.2
			c10.3,1.5,21.9,0.6,32.9-0.2c36.7-2.4,74.8-1.9,111,1.2c0.9,0.1,1.9,0.2,2.7,0.4c5.1,1.2-0.6,3.8-5.9,4.9
			c29.1,0.7,58,2.3,86.1,4.9c14.8,1.4,29.5,3,44.8,3.2c14.7,0.2,29.4-0.8,44-0.4c12.4,0.4,24.5,1.8,35,4.1c4.4,1,8.5,2.1,13.5,2.6
			c4,0.4,8.3,0.3,12.5,0.3c20.1-0.3,40.2-0.6,60.4-0.9c-20.8,4.2-46.5,5.1-69.3,2.5c-15.6,0-31.1,0-46.7,0c-38.8,0-77.6,0-116.4-0.5
			c-65.5-0.9-62.7,8.8-139.9-2.5c-25.9-3.8-53-2.9-79.8-3.6l3.7-0.6C24.6,298.4,13.5,298.7,2.4,298.5z"/>
		<path id="cloud2" class="st2" d="M2.4,71.7C56.9,68.3,111.6,68.4,166,72c-2.2,1.4-4.3,2.8-6.5,4.1c-1.5,2.9,2.1,5.7,5.1,6.8
			c42.5,16.3,89,16.6,134.4,16.6c80.7,0.1,161.5,0.2,242-6.1c32.9-2.6,66.1-6.2,98.6-0.4c-148.7,6.4-297.5,12.7-446.2,19.1
			c-92.8,4-101.5-38.8-191.1,24.1V71.7z"/>
		<path id="cloud1" class="st1" d="M799.1,144.1c-3-0.1,3-0.1,0-0.1c-5.9,0-25.6,0.3-29.5,1.9c-1.9,0.7-2.9,1.7-5,2.4
			c-2.3,0.7-5.4,1.1-8.4,1.3c-14.4,1.3-28.9,2.7-43.3,4c-6.1,0.6-12.8,1.3-16.2,3.2c-2.9,1.6-1,4.1,3.4,4.8
			c-53.1-2.8-106.9-4.1-160.6-3.8c4.5,3-5.9,6.2-15.3,6.8c-20.8,1.3-41-2.7-61.8-4.1c-14.9-1-30.3-0.7-45.3,0
			c-62.2,3.1-119.7,13.6-181.3,17.9c42,4,86.9,4.3,129.3,0.9c0,0.7,2.9,1,5,1c37.5-0.1,75.1-1,112.2-2.9c-8.8,0.8-12.8,5.4-8.3,8.4
			c4.9,3.3,15.6,4.9,25.7,6.1c17.5,2,35.9,3.1,54.2,2.7c19.9-0.4,41.2-2.6,58.6,0.8c6.5,1.2,12.1,3.2,19.4,3.6
			c8.7,0.5,19.8-1.1,25,1.4c1.5,0.7,2,1.6,2.9,2.5c4.5,4.1,18.3,5.6,30.6,6.4c34.7,2.1,74.7,1.6,108.7-1.5V144.1z"/>
		<!--<defs>
			<filter id="Adobe_OpacityMaskFilter" filterUnits="userSpaceOnUse" x="2.4" y="0" width="796.8" height="348.5">
				<feFlood  style="flood-color:white;flood-opacity:1" result="back"/>
				<feBlend  in="SourceGraphic" in2="back" mode="normal"/>
			</filter>
		</defs>
		<mask maskUnits="userSpaceOnUse" x="2.4" y="0" width="796.8" height="348.5" id="SVGID_1_">
			<g class="st3">
				<defs>
					<filter id="Adobe_OpacityMaskFilter_1_" filterUnits="userSpaceOnUse" x="2.4" y="0" width="796.8" height="348.5">
						<feFlood  style="flood-color:white;flood-opacity:1" result="back"/>
						<feBlend  in="SourceGraphic" in2="back" mode="normal"/>
					</filter>
				</defs>
				<mask maskUnits="userSpaceOnUse" x="2.4" y="0" width="796.8" height="348.5" id="SVGID_1_">
					<g class="st4">
					</g>
				</mask>
				<linearGradient id="SVGID_2_" gradientUnits="userSpaceOnUse" x1="398.0279" y1="35.0437" x2="403.1645" y2="298.0396">
					<stop  offset="0" style="stop-color:#808080"/>
					<stop  offset="1" style="stop-color:#808080"/>
				</linearGradient>
				<rect x="2.4" class="st5" width="796.8" height="348.5"/>
			</g>
		</mask>
		<linearGradient id="SVGID_3_" gradientUnits="userSpaceOnUse" x1="398.0279" y1="35.0437" x2="403.1645" y2="298.0396">
			<stop  offset="0" style="stop-color:#FFD58A"/>
			<stop  offset="1" style="stop-color:#740083"/>
		</linearGradient>-->
		<rect x="2.4" class="st6" width="796.8" height="348.5"/>
	</g>
	<g>
		<g id="XMLID_24_">
			<polygon id="b8" class="st7" points="472,23.9 469.1,28.6 461.3,25 467.9,26.3 			"/>
			<polygon id="b7" class="st7" points="470.6,37.2 467.5,42.2 459.4,37.8 466.2,39.6 			"/>
			<polygon id="b6" class="st7" points="450.3,31.9 449,37.8 442.1,36.8 447.5,35.9 			"/>
			<polygon id="b5" class="st7" points="431.7,27.2 428.9,31.3 423.6,28 428.3,29.3 			"/>
			<polygon id="b4" class="st7" points="434.5,41.7 431.5,46.2 425.8,42.1 430.8,43.8 			"/>
			<polygon id="b3" class="st7" points="460.8,49.9 456.9,52.1 451.6,46 456.6,49.9 			"/>
			<polygon id="b2" class="st7" points="447.3,45.6 444.8,49.5 439.5,45.8 444.1,47.4 			"/>
			<polygon id="b1" class="st7" points="456.4,57 455.4,62 449.6,60.3 454.2,60.1 			"/>
		</g>
		<g>
			<path class="st8" d="M759,239.4c0-0.4-0.7-37.7-0.7-37.7l6.7-1.7l10.2,1.6l4,18l2.2-0.3l3.7-8l7.8-2.8l7.2,8.7v0v20L759,239.4z"
				/>
			<polygon class="st8" points="653.3,233.6 654.1,219.4 664.7,219.3 665.9,221.5 672.9,222.2 675.3,218.1 688.1,214.8 691,215.4 
				692.9,222.6 698.7,222.8 702,213.1 706.6,210.4 707.6,213.1 709.1,213.1 709.8,208.9 712.5,208.8 715.3,202.8 731.8,198.1 
				734.6,199.2 734.4,187.2 748.8,184.6 756.3,186.8 759.6,239 			"/>
			<polygon class="st8" points="688.7,228.8 700.8,230.9 732.3,220.7 739.5,186.3 734.4,187.2 734.6,199.2 731.8,198.1 715.3,202.8 
				712.5,208.8 709.8,208.9 709.1,213.1 707.6,213.1 706.6,210.4 702,213.1 698.7,222.8 692.9,222.6 691,215.4 688.4,214.9 			"/>
			<polygon class="st9" points="688.5,214.9 690.1,223.8 690.9,223.8 691,215.4 693.5,222.5 698.7,222.8 698.9,236.3 657.5,235.2 
				655,219.6 664.7,219.3 666.7,226.4 673.9,225.7 675.4,217.9 			"/>
			<g>
				<path class="st10" d="M664.7,219.3l-9.7,0.3l0.8,4.7c3,0.9,6.7,1.6,10.9,2L664.7,219.3z"/>
				<path class="st10" d="M698.7,222.8l-5.2-0.3l-2.5-7.1l-0.1,8.3h-0.9l-1.5-8.9l-13.1,3l-1.5,7.8l-7.2,0.6
					c3.1,0.3,6.4,0.5,9.8,0.5c9,0,17-1.2,22.1-3L698.7,222.8z"/>
			</g>
			<polygon class="st9" points="748.8,184.6 748.4,206.3 747.2,206.1 746.2,185.1 735.9,186.9 737.7,207.3 732.8,208.8 731.8,198.1 
				715.3,202.8 715.1,217 708.8,220.7 706.6,210.4 702,213.1 699.7,238.9 800,228.7 800,206.5 792.8,208.6 785.2,223.4 775.3,217.8 
				772.1,195.2 763.8,193.9 763.4,208 760.4,202.2 756.5,202.2 754.7,185.9 			"/>
			<g>
				<path class="st10" d="M740.6,211.7c5.8-3.2,11.1-6.6,15.9-10l-1.7-15.8l-6-1.3l-0.3,21.7l-1.2-0.2l-1-21l-10.3,1.8l1.8,20.4
					l-5,1.5l-0.9-10.7l-15.8,4.2l-1,14.6l-6.3,3.7l-2.2-10.3l-4.6,2.7l-1.2,13.5C711,225.3,725.6,220,740.6,211.7z"/>
				<path class="st10" d="M763.8,193.9l-0.1,2.2c0.7-0.6,1.5-1.2,2.2-1.8L763.8,193.9z"/>
			</g>
			<polygon class="st9" points="719.3,225.8 716,202.3 715.3,202.8 714,227.1 			"/>
			<polygon class="st10" points="709.8,208.8 711.6,219.6 713.1,218.5 712.8,208.2 			"/>
			<polygon class="st9" points="708.8,220.9 707.8,216.2 709.7,217 710.8,219.5 			"/>
			<polygon class="st8" points="675.4,217.9 673.7,230.9 673,225.7 672.9,222.2 			"/>
		</g>
		<g>
			<polygon class="st8" points="388.2,223.8 389.7,244 394.7,246.6 400.1,243.8 405,246.6 409.5,252.8 416.4,252 421.3,265.1 
				357.9,268.1 			"/>
			<polygon class="st8" points="254.8,230.7 264.1,224.3 280.5,230.8 285.9,228 290.8,230.8 295.3,237 302.2,236.2 307.1,249.3 
				243.7,252.3 			"/>
			<polygon class="st8" points="252.5,274.3 255.1,233.5 243.2,225.5 243.2,238.1 239.7,238.1 223.4,178 204.2,169 184.8,171.7 
				178,159.1 175.1,133.9 163.1,103.5 144.7,103.5 142.4,97.2 112.6,97.2 99,26.2 55.9,60 52.5,84.6 46.1,84.6 46.7,165.4 
				37.6,167.7 35.3,219.3 35.3,269.2 			"/>
			<polygon class="st9" points="42.2,166.6 32.1,169.9 30.7,268.3 46.7,268.3 			"/>
			<polygon class="st9" points="217.9,171.7 204.2,169 202.3,274.6 224,274.6 			"/>
			<path class="st11" d="M204.2,169l-1.4,75.7c7.1-9.7,13-22.4,17.3-35.9l-2.2-37.2L204.2,169z"/>
			<polygon class="st11" points="196.3,281.8 196.3,226.8 187.7,221 180.3,221 175.1,188.4 161.3,174.6 139,174.6 133.8,150.5 
				128.1,150.5 125.8,27.4 112.6,22 99,26.2 99,76.8 91,80.2 91,89.4 85.3,89.4 82.4,83.1 67.5,83.1 66.8,160.3 54.7,160.3 
				46.2,276.1 			"/>
			<path class="st9" d="M181.9,262.9c-32,11.5-79-37.6-105-109.8c-3.9-10.9-7.2-21.7-9.7-32.2l-0.4,39.4h-12l-8.6,115.8l150.1,5.7
				v-30C192.4,257.1,187.5,260.9,181.9,262.9z"/>
			<polygon class="st8" points="385.3,213.6 384.4,204.7 374.1,201.3 373.5,205 371.8,205 367.8,174 354.3,168.3 341.5,167.7 
				348.3,221.3 344,221.9 337.4,251.1 360.4,254.8 			"/>
			<path class="st9" d="M367.8,174l-13.4-5.7l-12.9-0.6l6.6,51.6c11.3-5.1,19.7-23,19.7-44.4C367.8,174.7,367.8,174.3,367.8,174z"/>
			<polygon class="st8" points="696.6,195.8 715.3,203.3 719.3,201.6 719.1,194.1 727.5,190.9 726,159.2 730.1,144.2 735.8,145.5 
				742.3,151.3 738.4,182.4 738.2,229.6 741.4,258.6 717.9,256.4 			"/>
			<polygon class="st9" points="742.3,151.3 735.8,145.5 733.5,147.5 731.7,160.7 729.3,212 721.7,200.6 714.4,246.7 739.9,244.7 
				738.2,229.6 738.4,182.4 			"/>
			<polygon class="st8" points="546,259.7 558,206.1 563.6,203.1 557.9,147 562.9,106.3 593,105 596.5,117.8 599,118.4 600.6,114.6 
				621.8,117.7 629.3,123.1 644.4,122.7 648,117.4 668.7,114.8 675,125.8 711.2,134.2 700.8,192.6 714.1,218.4 727.7,253.1 			"/>
			<polygon class="st9" points="699.3,277 711.2,134.2 693.3,128.8 681.7,180.6 672.6,180.2 668.7,114.8 656.6,116.3 640,172.8 
				640.8,223.3 633.1,246.8 670.9,280.7 			"/>
			<path class="st11" d="M681.7,180.6l-9.2-0.4l-3.9-65.3l-12.1,1.5L640,172.8l0.1,4.7c10.4,24.9,27.8,41.2,47.5,41.2
				c5.9,0,11.5-1.5,16.9-4.2l6.7-80.3l-17.9-5.4L681.7,180.6z"/>
			<polygon class="st9" points="634.3,259.3 624.4,170.3 611.1,151 590.9,141.1 585.3,104.6 562.9,106.3 561.6,148.4 569,202.1 
				564.2,227.1 606.3,263.2 			"/>
			<path class="st11" d="M611.1,151l-20.2-9.9l-5.6-36.5l-22.4,1.7l-1.3,42.1l7.3,53.7l-0.1,0.3c4.1,2.3,8.4,3.6,12.9,3.6
				c16.5,0,30.8-17,38.2-42.2L611.1,151z"/>
			<path class="st12" d="M631.7,241.7l-20.6-2.3l-23.5-17.2l-60.2-18.3l-28.1-1.7l-46.4-1.1l-51.6,6.9l-32.7,0.6l-10.9,6.9l-12,20.6
				l-1.1,10.3l-2.3,2.3l-3.4-1.7l-21.2-5.2l-9.7,1.7l-3.4-4.6l-4.1-0.5l-20.3,19.9l-7.8,13.8l97.4,0.1c2.2-22.9,26.2-63.1,84.2-58.3
				c59.8,5,80.1,49.4,84.1,58.6l81.6,0.1l42.4-21.7L631.7,241.7z"/>
			<polygon class="st8" points="296.4,266.3 304.6,259.8 310.6,257.3 319.1,257 325.5,260.9 327.8,266.3 			"/>
			<g>
				<polygon class="st13" points="306.7,246.5 317.6,245.7 344,254.7 347.6,256.4 350,254.2 352.9,247 365.6,226.4 377.1,219.5 
					401.6,213.5 446.4,208.1 500.1,215.3 529.7,217 593.1,235.3 617.9,252.5 639.7,254.8 649.1,257.6 662.1,250.9 631.7,241.7 
					611.1,239.4 587.6,222.2 527.4,203.8 499.3,202.1 452.9,201 401.3,207.9 368.7,208.4 357.8,215.3 345.7,235.9 343.2,244 
					340.9,246.3 337.4,244.6 317.7,241.7 307.9,243.4 304.5,238.8 300.4,238.4 287.2,251.3 				"/>
				<g>
					<path class="st14" d="M458,202.8l-60.3,9.9l-19.8,6.7l-19.8-4.2l-0.4,0.2l-12,20.6l-2.6,8.1l-2.3,2.3l-3.4-1.7l-19.8-2.9
						l-9.7,1.7l-3.4-4.6l-4.1-0.5l-13.2,13l19.4-4.9l11-0.8l26.4,9l3.6,1.7l2.4-2.3l2.9-7.1l12.7-20.6l11.5-6.9l24.5-6l44.8-5.4
						l30.5,4C466.6,207.1,458,202.8,458,202.8z"/>
					<path class="st14" d="M627.7,246.7l-19-1.2l-4.5-3L581.7,224l-9.3-0.7H562l-11.9-4.9c0,0-3.1,1-7.6,2.4l13.8,10.8l34.7,5.5
						l14,16.3l34.8,1.6l9.5,2.7l13-6.6L627.7,246.7z"/>
				</g>
			</g>
			<polygon class="st13" points="536.6,242.4 547.3,244.7 552.3,240.3 551.1,234.4 555.5,228 556,221.6 547.5,216.9 537.9,218 
				544.4,226.2 544.5,234.7 539,238.9 			"/>
			<polygon class="st14" points="554.9,225.8 548.3,233 548.9,238.5 543.1,242.4 537.4,241.4 536.6,242.4 547.5,244.7 552.4,240.5 
				551.4,234.8 556,228.6 556.6,222.2 555.9,222.1 			"/>
			<polygon class="st13" points="469.4,259.8 471.7,256.9 478.6,255.7 484.9,252.6 489.6,252 496,253.5 511.1,248.6 537.8,241 
				549.1,247.2 579.3,247.7 603.8,240.5 622.7,254.7 			"/>
			<polygon class="st13" points="403.6,260 384.7,258.4 378.4,250.7 373.6,240.5 378.5,234.3 378.2,224.6 383.3,216.4 378.4,213.2 
				364.6,215.2 367.4,220.6 369.2,227.6 361,240.7 363,245.5 363.2,252.3 352.9,259.8 341.9,266.8 412,264 			"/>
			<polygon class="st11" points="144.7,103.5 144.3,180.7 163.4,181 163.1,103.5 			"/>
			<polygon class="st11" points="615.1,116.1 616.7,145.7 628.4,161.5 633.3,150.8 642.3,142 640.9,123.3 629.7,123.6 623.7,127.3 
				621.9,114.6 			"/>
			<path class="st8" d="M91.9,78.8c0-0.4,0-0.6,0-0.6l-3.6,1.4l4.6,61.3C92.9,140.9,92,85.2,91.9,78.8z"/>
		</g>
		<g>
			<path class="st12" d="M83,251.4c115.9-30.7,257.7-1.3,299.4,17.5C285.3,279.5,181.5,246.7,83,251.4z"/>
			<path class="st12" d="M289.7,259c133.3-29.4,292.7-26.4,339-19.6C517.9,255.3,401.9,246.5,289.7,259z"/>
			<path class="st15" d="M48.1,235.6c230.6,42,512.8-8.6,751.9-7.8v93.5H51.7L48.1,235.6z"/>
			<path class="st13" d="M800,261.8c-232.6,35.4-422.3,18-690.4,5.8v48.3H800V261.8z"/>
			<path class="st16" d="M346,302c-63.6-10.6-230.7-72.9-343.6-72.9v92.3H800v-53.9C745.1,272.7,462.8,321.4,346,302z"/>
			<path class="st17" d="M310.3,296.7c-75.2-17.6-207.8-65.5-308-64.6v3.1C52.3,299.9,233.9,317.8,310.3,296.7z"/>
			<path class="st16" d="M707.3,271.1c-0.1-1.5-41.1,0.1-91.7,3.5c-50.6,3.4-91.6,7.4-91.5,8.9c0.1,1.5,41.1-0.1,91.7-3.5
				C666.4,276.6,707.4,272.6,707.3,271.1z"/>
		</g>
		<g>
			<g>
				<path class="st18" d="M373.1,277l3.2,18.2l73.7-4.6l-0.3-6.7C433.4,290,397,285.2,373.1,277z"/>
				<path class="st19" d="M373.1,278.9l3.2,18.2l73.7-4.6l-0.3-7.6C433.4,291,397.1,287.1,373.1,278.9z"/>
				<path class="st20" d="M392.7,286.3c-3.7,0.1-3.8,4.4-3.7,6.6l7.6,0.3C396.6,291.2,396.4,286.2,392.7,286.3z"/>
				<path class="st13" d="M392.4,286.8c-3.2,0.1-3.2,4.6-3.1,6.9l6.6,0.3C395.8,291.9,395.6,286.6,392.4,286.8z"/>
				<path class="st21" d="M375.4,292.8c4.5,0.7,11.6,1,19.7,0.7c10-0.3,18.6-1.4,22.2-2.7C406.9,291.6,393.5,292.4,375.4,292.8z"/>
				<path class="st18" d="M488.5,276.5l-8.7,15.3l72.3-4.5l-0.3-7C534.2,286.7,502.4,282.4,488.5,276.5z"/>
				<path class="st19" d="M488.3,278l-8.7,15.3l72.3-4.5l-0.3-7C533.9,288.3,502.2,284,488.3,278z"/>
				<path class="st18" d="M333.6,271c10-11.2,37.6-9.9,43.5-4.9c6,5.2,10,29.1,10.3,32.3l-57.8-1C329.5,297.4,329.9,275.1,333.6,271
					z"/>
				<path class="st22" d="M377,266.1c-0.5-0.4-1.1-0.8-1.9-1.2c1.2,9.6-7.4,20.8-20.9,26.3c-8.8,3.6-17.8,4-24.6,1.7
					c-0.1,2.7-0.2,4.5-0.2,4.5l57.8,1C387,295.2,383.1,271.3,377,266.1z"/>
				<path class="st23" d="M367.5,263.7c-9.7-1.7-25.4-0.5-32.1,7.1c-1.1,1.2-1.8,4-2.3,7.4c4,0.2,8.5-0.3,13.2-1.4
					C356.4,274.3,364.5,269.1,367.5,263.7z"/>
				<path class="st18" d="M410.6,275.2c6-4.2,20-1.4,22.6,1.6c2.6,3,4.6,17.4,4.8,19.4l-31.7,2.5
					C406.4,298.7,407.7,277.3,410.6,275.2z"/>
				<path class="st22" d="M434.3,278.5c-0.1,0.2-0.2,0.5-0.3,0.7c-5.6,12.2-21.4,15-26,4.7c-1.1,6.7-1.6,14.7-1.6,14.7l31.7-2.5
					C437.9,294.4,436.4,283.4,434.3,278.5z"/>
				<path class="st18" d="M522.6,263.2c4.1-4.1,24.4-4.3,27.9-0.6c3.6,3.8,4.6,23.2,4.6,25.9l-37.4,3.1
					C517.7,291.6,519.6,266.3,522.6,263.2z"/>
				<g>
					<path class="st22" d="M520.6,268.9c-1.8,8.4-2.9,22.7-2.9,22.7l8.6-1.1C521.1,286.9,521.9,278.8,520.6,268.9z"/>
					<path class="st22" d="M551.9,265.1c0.1,10.7-1.7,20.2-6.6,24.7l9.8-1.2C555.1,286.3,554.4,271.6,551.9,265.1z"/>
				</g>
				<path class="st20" d="M419.1,283.3c-2.2,0.2-2.7,6.4-2.6,9.8l5.7-0.5C422.2,292.6,421.3,283.1,419.1,283.3z"/>
				<path class="st24" d="M419.2,284.1c-1.9,0.1-2,5.7-2,9l4.5-0.3C421.7,292.7,421.1,283.9,419.2,284.1z"/>
				<path class="st20" d="M532,272.7c-3.9,0.1-5.6,9.6-5.8,14.8l10.2-0.3C536.3,287.2,535.9,272.7,532,272.7z"/>
				<path class="st24" d="M532.4,274c-3.4,0.1-4.3,8.6-4.6,13.6l8-0.2C535.8,287.4,535.8,273.9,532.4,274z"/>
				<path class="st25" d="M532.8,284.6c1.1,0.8,2.1,1.5,3,2.3c0-2.4-0.3-13-3.3-12.9c-2.3,0-3.4,3.9-4.1,8
					C529.9,282.8,531.4,283.7,532.8,284.6z"/>
				<path class="st16" d="M456.1,287.1l-76.4,7.1c0,0,65.1,0.6,68.7-0.1C451.9,293.5,456.1,287.1,456.1,287.1z"/>
				<path class="st13" d="M497.7,286.3l54.9,0.1c0,0-47,4.9-49.5,4.7C500.5,290.9,497.7,286.3,497.7,286.3z"/>
				<path class="st18" d="M497.5,258.4c-6.7-7.1-39-6.8-45.4-2.1c-9.3,6.9-10.3,33.2-10.3,36.4l63.9-2.1
					C505.7,290.6,503.1,264.4,497.5,258.4z"/>
				<path class="st22" d="M497.5,258.4c-2.2,9.2-8.5,19-18,26.9c-3.1,2.5-6.3,4.7-9.6,6.5l35.8-1.2
					C505.7,290.6,503.1,264.4,497.5,258.4z"/>
				<path class="st20" d="M370.6,273.8c5.3-0.4,8.4,12.5,9.1,19.5l-13.8,0.8C365.9,294.2,365.3,274.2,370.6,273.8z"/>
				<path class="st24" d="M370,274.7c5.3-0.4,7,11.9,7.7,18.8l-12.5,0.8C365.2,294.3,364.7,275,370,274.7z"/>
				<path class="st26" d="M370.9,286.5c1.8-1,3.6-1.8,5.3-2.4c-1.1-5.1-3-9.6-6.3-9.4c-3.9,0.3-4.7,10.9-4.8,16.4
					C366.8,289.3,368.7,287.8,370.9,286.5z"/>
				<path class="st20" d="M456,269.4c-5.5,0-8.6,15.2-9.2,23.4l14.3-0.1C461,292.7,461.5,269.4,456,269.4z"/>
				<path class="st24" d="M456.7,270.5c-5.5,0-7.3,14.1-7.9,22.3l12.9,0C461.7,292.8,462.2,270.5,456.7,270.5z"/>
				<path class="st27" d="M459.1,279.1c0.7,0.3,1.3,0.6,1.9,0.9c-0.6-4.9-1.9-9.4-4.4-9.4c-2.4,0-4.1,2.7-5.3,6.4
					C453.9,277.2,456.5,278,459.1,279.1z"/>
				<path class="st28" d="M459.7,273.7c-1.3,1.7-4.3,4.8-7.4,2.3c0,0-0.1,12.6,1.8,16.7l7.5,0C461.7,292.8,462,279.9,459.7,273.7z"
					/>
				<path class="st29" d="M457.3,281.1c2,2.1,3.4,4.5,4.4,6.8c-0.1-4.3-0.6-10.5-1.9-14.2c-1.3,1.7-4.3,4.8-7.4,2.3c0,0,0,0.5,0,1.3
					C453.9,278.1,455.6,279.3,457.3,281.1z"/>
				<polygon class="st30" points="396.6,290.8 396.9,286.8 405.3,286.5 406.4,291.4 404.9,291.3 404.4,287.1 397.4,287.4 
					397.5,290.8 				"/>
				<polygon class="st30" points="394.5,294.3 394.6,290.4 400.5,289.5 408,289.5 409.1,293.5 				"/>
				<polygon class="st31" points="400.5,294.4 400.6,289.5 408.4,289.5 409.1,293.5 				"/>
				<polygon class="st30" points="468.7,292.3 469,287.5 480.8,287.5 481.7,291.5 				"/>
				<path class="st23" d="M461,267.8c13.6-0.5,25.2-4.6,29.8-10.2c-7.8-5-32.8-4.6-37.9-0.8c-2.6,2-4.5,5.7-5.8,10
					C451.4,267.6,456.1,267.9,461,267.8z"/>
				<path class="st20" d="M485.9,278.1l6.4-0.2c0,0-1-8.8-4.3-8.2C484.7,270.3,485.9,278.1,485.9,278.1z"/>
				<path class="st24" d="M485.9,278l4.4-0.1c0,0-0.7-7.1-3-6.6C485,271.7,485.9,278,485.9,278z"/>
				<path class="st20" d="M433.4,284.4l1.4,0c0,0-0.9-3.6-1.6-3.4C432.5,281.2,433.4,284.4,433.4,284.4z"/>
				<path class="st24" d="M433.3,284.4l1,0c0,0-0.7-2.9-1.2-2.7C432.7,281.8,433.3,284.4,433.3,284.4z"/>
				<path class="st20" d="M430.4,284.5l1.4,0c0,0-0.9-3.6-1.6-3.4C429.5,281.3,430.4,284.5,430.4,284.5z"/>
				<path class="st24" d="M430.3,284.5l1,0c0,0-0.7-2.9-1.2-2.7C429.7,281.9,430.3,284.5,430.3,284.5z"/>
				<path class="st20" d="M338.7,283.3l-3,0.1c0,0,1.3-7.7,2.8-7.4C340,276.4,338.7,283.3,338.7,283.3z"/>
				<path class="st24" d="M338.7,283.2l-2,0.1c0,0,1-6.2,2-5.9C339.7,277.7,338.7,283.2,338.7,283.2z"/>
				<path class="st20" d="M346.3,283l-3,0.1c0,0,1.3-7.7,2.8-7.4C347.6,276.1,346.3,283,346.3,283z"/>
				<path class="st24" d="M346.3,282.9l-2,0.1c0,0,1-6.2,2-5.9C347.3,277.3,346.3,282.9,346.3,282.9z"/>
				<path class="st20" d="M550.2,276.3l2.4-0.1c0,0-0.5-6.7-1.8-6.3C549.6,270.3,550.2,276.3,550.2,276.3z"/>
				<path class="st25" d="M550.2,276.2l1,0c0,0-0.3-5.4-0.8-5.1C549.9,271.4,550.2,276.2,550.2,276.2z"/>
				<path class="st20" d="M545.2,276.4l2.4-0.1c0,0-0.5-6.7-1.8-6.3C544.6,270.4,545.2,276.4,545.2,276.4z"/>
				<path class="st25" d="M545.2,276.4l1,0c0,0-0.3-5.4-0.8-5.1C544.8,271.5,545.2,276.4,545.2,276.4z"/>
				<path class="st23" d="M548.1,262.9c-3-3-20.5-2.8-24.1,0.5c-0.9,0.8-1.7,3.7-2.3,7.2c3.5,0.7,8.1,0.8,13-0.1
					c6.3-1.1,11.6-3.5,14.4-6.1C548.8,263.8,548.5,263.2,548.1,262.9z"/>
				<path class="st23" d="M416.7,281.5c6-0.8,11-2.8,13.3-5c-2.5-2.2-13.6-4.1-18.4-1c-0.9,0.6-1.6,3.2-2.2,6.3
					C411.7,281.9,414.2,281.8,416.7,281.5z"/>
				<path class="st21" d="M442,292c9.1,1,23.9,1.3,40.6,0.6c20.6-0.9,38.3-3.1,45.8-5.4C507.1,288.8,479.5,290.6,442,292z"/>
			</g>
			<path class="st13" d="M498.6,288.6c-104.4,14.9-496.3,0.7-496.3,0.7v51.5l797.6,2v-78.6C800,264.2,603,273.7,498.6,288.6z"/>
			<path class="st16" d="M2.4,310.1v37.5l797.6,6.1v-40.4C723,316,365.1,328.4,2.4,310.1z"/>
			<path class="st13" d="M2.4,310.8c55.3,13.2,289.5,22.3,422.2,22.3c17.8,0,318.7-5.2,375.5-19.9C724,315.9,354.2,328.1,2.4,310.8z
				"/>
			<path class="st21" d="M800,328v25.8H2.4v-43.6c0,0,183.9,38.9,435.9,38.9C626.8,349,800,328,800,328z"/>
		</g>
	</g>
</g>
<g id="Layer_3">
	<g>
		<g>
			<polygon class="st32" points="142.1,357.1 136.6,357.1 133.1,147 135.4,147.3 			"/>
			<path class="st33" d="M137.8,223.3l-2.4-76.1l-2.3-0.3l1.4,82.9C135.5,227.4,136.6,225.2,137.8,223.3z"/>
		</g>
		<g>
			<polygon class="st32" points="111.4,361.8 91.8,137.6 94.7,137.3 116.8,361.2 			"/>
			<path class="st33" d="M101.9,209.7l-7.1-72.4l-2.9,0.3l6.9,78.4C99.7,213.8,100.8,211.7,101.9,209.7z"/>
		</g>
		<g>
			<polygon class="st32" points="96.4,362.2 76.9,198.9 79.1,198.6 101.8,361.5 			"/>
			<g>
				<path class="st33" d="M85.9,247.3l-6.8-48.7l-2.2,0.3l6.5,54.3C84.1,250.4,85,248.4,85.9,247.3z"/>
				<path class="st33" d="M101.1,361.6l0.7-0.1l-0.4-2.7C101.3,359.8,101.2,360.7,101.1,361.6z"/>
			</g>
		</g>
		<path class="st34" d="M81.4,183c0.5,4,0.2,6.8-3.1,10.3l-7.3-5.6L81.4,183z"/>
		<path class="st35" d="M73.2,201c-0.2,2,1.2,3.9,3.2,4.1c2,0.2,3.9-1.2,4.1-3.2c0.2-2-1.2-3.9-3.2-4.1
			C75.3,197.5,73.5,198.9,73.2,201z"/>
		<path class="st35" d="M69.6,197.9c-0.2,2,1.2,3.9,3.2,4.1c2,0.2,3.9-1.2,4.1-3.2c0.2-2-1.2-3.9-3.2-4.1
			C71.7,194.5,69.8,195.9,69.6,197.9z"/>
		<path class="st36" d="M64.8,186.9c0,0,6.9,5.4,9.6,6.6l1.7,0.1c1.9-1.5,5.3-10.6,5.3-10.6C74.2,181.6,64.8,186.9,64.8,186.9z"/>
		<path class="st35" d="M74.4,195c-0.2,2,1.2,3.9,3.2,4.1c2,0.2,3.9-1.2,4.1-3.2c0.2-2-1.2-3.9-3.2-4.1
			C76.4,191.5,74.6,193,74.4,195z"/>
		<path class="st37" d="M113.4,199.1l3.4,2.1c3.5-1.4,6.1-2.6,6.1-2.6S107,182,75.3,192.4l0.1,0.7c2.4,0.6,4.7,2.1,6.7,2.8l2.7-0.7
			l-1.4,1.2c2.5,0.9,4.7,2,6.7,3l3.5-2l-2.1,2.8c4,2.2,6.8,4.3,8.5,5.4c0,0,0.1,0,0.1,0.1l2.1-4.7l-0.7,4.9c3.2,0,9.6-2.3,14.5-4.3
			L113.4,199.1z"/>
		<path class="st36" d="M42.8,220.6l-2.5,3.9c-3.6,0.7-6.3,1.1-6.3,1.1s9.6-24.3,41.6-33.1l0.1,0.6c-2,1.9-3.7,4.6-5.3,6.4l-2.7,1
			l1.6,0.3c-2,2.3-3.7,4.5-5.2,6.6l-3.8,0.2l2.7,1.4c-3,4.3-5,7.8-6.2,9.8c0,0-0.1,0.1-0.1,0.1l-3.3-3.1l2.1,4.1
			c-2.9,1.9-9.4,3.4-14.5,4.5L42.8,220.6z"/>
		<path class="st36" d="M38.2,202.7l-2.8,1.9c-3.2-0.7-5.6-1.2-5.6-1.2s13.2-15.1,45.9-10.6l-0.2,0.6c-2.6,0.8-5.1,2.4-7.2,3.2
			l-2.8-0.2l1.3,0.8c-2.6,1.1-4.8,2.1-6.8,3.2l-3.5-1.2l2,1.9c-3.9,2.1-6.5,3.9-8,4.9c0,0-0.1,0-0.1,0.1l-2.1-3.2l0.8,3.5
			c-2.9,0.3-8.7-0.7-13.3-1.6L38.2,202.7z"/>
		<path class="st36" d="M75.3,192.4l0.5,0c2.3,2.9,5.5,4.4,8.4,6l-0.6,2.4l1.2-2.1c1.5,0.8,2.8,1.8,4.1,2.6l-0.6,2.7l1.2-2.3
			c3.1,2,4.8,3.8,6.2,6.5l-2.9,2.7l3.5-1.2c1.8,6.1,2.7,19.6,2.7,19.6s-2.9-1.6-5.5-2.9l-0.7-3.8l0.2,3.5c-3.7-1.9-8.4-4.5-10.1-6.7
			l3-3l-3.7,1.9c0,0,0-0.1,0-0.1c-0.3-1.9-0.7-5.2-1.7-9.5l2.6-0.6l-3-0.9c-0.5-2-0.7-2.8-1.5-5.2l1-1.2l-1.5-0.1
			C77.4,199,76.3,194.4,75.3,192.4z"/>
		<path class="st36" d="M75.3,191.4l-0.4,0.4c-1,4.1-3.2,7.6-5.1,10.9l1.3,1.7l-1.7-1c-1,1.8-1.8,3.5-2.6,5.1l1.4,2l-1.8-1.2
			c-2,3.8-2.8,6.6-3.1,9.8l3.4,0.5l-3.4,1.3c0.5,6.6,4.3,19,4.3,19s1.9-3.3,3.7-6.2l-0.7-3.8l1,3.2c2.5-4.2,5.6-9.6,6.3-12.7
			l-3.6-0.6l3.7-0.8c0-0.1,0-0.1,0-0.2c-0.3-1.9-1.1-5.1-1.7-9.5l-2.4,1.2l2.2-2.9c-0.2-2.1-0.4-3-0.4-5.6l-1.3-0.4l1.2-1.1
			C75.6,198.5,75.1,193.8,75.3,191.4z"/>
		<g>
			<path class="st37" d="M76.2,182.9l-0.9,9.9l16.4-3.7c-4.3,0.3-9.1,1.1-14.3,2.7c1.8-3.1,4-8.8,4-8.8
				C79.7,182.6,77.9,182.7,76.2,182.9z"/>
			<path class="st37" d="M87.4,200.4l-1.2,1.8l11.5,26.5c0.8,0.5,1.4,0.8,1.4,0.8s-0.9-13.5-2.7-19.6l-3.5,1.2l2.9-2.7
				c-1.3-2.6-3.1-4.5-6.2-6.5l-1.2,2.3l0.6-2.7C88.4,201.1,87.9,200.8,87.4,200.4z"/>
			<path class="st37" d="M122.9,198.6c0,0-9.4-9.8-28.1-9.6l-6.2,9.6c0.5,0.3,1.1,0.5,1.6,0.8l3.5-2l-2.1,2.8c4,2.2,6.8,4.3,8.5,5.4
				c0,0,0.1,0,0.1,0.1l2.1-4.7l-0.7,4.9c3.2,0,9.6-2.3,14.5-4.3l-2.7-2.4l3.4,2.1C120.3,199.8,122.9,198.6,122.9,198.6z"/>
		</g>
		<path class="st35" d="M138,154.8c0.4,2-0.9,3.9-2.8,4.3c-1.9,0.4-3.8-0.9-4.2-2.9c-0.4-2,0.9-3.9,2.8-4.3
			C135.8,151.5,137.7,152.8,138,154.8z"/>
		<path class="st35" d="M141.4,151.5c0.4,2-0.9,3.9-2.8,4.3c-1.9,0.4-3.8-0.9-4.2-2.9c-0.4-2,0.9-3.9,2.8-4.3
			C139.1,148.2,141,149.5,141.4,151.5z"/>
		<path class="st35" d="M136.5,149c0.4,2-0.9,3.9-2.8,4.3c-1.9,0.4-3.8-0.9-4.2-2.9c-0.4-2,0.9-3.9,2.8-4.3
			C134.2,145.7,136.1,147,136.5,149z"/>
		<g>
			<path class="st34" d="M128.8,137.5c-0.2,4.1,0.3,6.8,3.7,10l6.7-6.1L128.8,137.5z"/>
			<path class="st37" d="M145.2,140.2c0,0-6.3,5.9-8.8,7.2l-1.6,0.2c-1.9-1.3-6-10.2-6-10.2C135.7,135.6,145.2,140.2,145.2,140.2z"
				/>
			<path class="st37" d="M98.7,156l-3.2,2.4c-3.5-1.2-6.1-2.2-6.1-2.2s14.3-17.8,45.9-9.7l0,0.7c-2.3,0.8-4.4,2.4-6.3,3.3l-2.7-0.5
				l1.4,1.1c-2.3,1.1-4.4,2.3-6.3,3.5l-3.6-1.8l2.2,2.7c-3.8,2.5-6.3,4.8-7.9,6c0,0-0.1,0.1-0.1,0.1l-2.4-4.5l1,4.9
				c-3.1,0.2-9.5-1.6-14.4-3.2L98.7,156z"/>
			<path class="st37" d="M169.1,172.1l2.7,3.7c3.5,0.4,6.2,0.6,6.2,0.6s-11.1-23.6-43-30l-0.1,0.7c2.1,1.7,3.9,4.3,5.6,6l2.7,0.8
				l-1.5,0.4c2.1,2.1,3.9,4.2,5.5,6.2l3.8-0.1l-2.6,1.6c3.3,4.1,5.4,7.5,6.7,9.3c0,0,0.1,0.1,0.1,0.1l3-3.3l-1.7,4.3
				c3,1.6,9.4,2.7,14.4,3.4L169.1,172.1z"/>
			<path class="st37" d="M172.3,154l2.9,1.7c3.1-0.9,5.4-1.7,5.4-1.7s-13.9-14.1-45.5-7.2l0.2,0.6c2.6,0.6,5.1,2,7.3,2.7l2.7-0.4
				l-1.2,0.9c2.6,0.9,4.8,1.8,6.8,2.7l3.3-1.4l-1.8,2.1c3.9,1.8,6.6,3.4,8.1,4.3c0,0,0.1,0,0.1,0.1l1.8-3.3l-0.5,3.6
				c2.9,0.1,8.5-1.3,12.8-2.5L172.3,154z"/>
			<path class="st37" d="M135.4,146.5l-0.5,0.1c-2.1,3.1-5.1,4.8-7.7,6.6l0.8,2.4l-1.3-2c-1.4,1-2.6,2-3.9,2.9l0.7,2.7l-1.3-2.2
				c-2.9,2.2-4.4,4.2-5.5,6.9l3,2.5l-3.5-0.9c-1.3,6.2-1.2,19.7-1.2,19.7s2.7-1.8,5.2-3.3l0.4-3.8l0.1,3.5c3.5-2.2,7.9-5.1,9.4-7.4
				l-3.2-2.8l3.7,1.6c0,0,0-0.1,0-0.1c0.2-1.9,0.3-5.3,1-9.6l-2.6-0.4l2.9-1.2c0.4-2.1,0.5-2.9,1.1-5.3l-1.1-1.1l1.4-0.2
				C133.8,153.2,134.6,148.6,135.4,146.5z"/>
			<path class="st37" d="M135.4,145.4l0.5,0.3c1.3,4.1,3.7,7.3,5.7,10.5l-1.2,1.8l1.6-1.2c1.1,1.7,2,3.3,2.9,4.9l-1.2,2.1l1.7-1.4
				c2.2,3.7,3.2,6.4,3.7,9.6l-3.2,0.7l3.4,1.1c0,6.6-2.8,19.3-2.8,19.3s-2.1-3.2-4-6l0.4-3.8l-0.8,3.3c-2.8-4-6.1-9.2-7.1-12.2
				l3.4-0.9l-3.7-0.5c0-0.1,0-0.1,0-0.2c0.2-1.9,0.7-5.1,1-9.6l2.5,1.1l-2.4-2.7c0.1-2.1,0.1-3,0-5.6l1.2-0.5l-1.3-1
				C135.5,152.6,135.7,147.8,135.4,145.4z"/>
			<g>
				<path class="st36" d="M180.6,154c0,0-7.1-7.2-22.8-8.8c-4.5,3.5-8.3,8.6-11.1,14.6c0.2,0.2,0.4,0.4,0.6,0.7l3.8-0.1l-2.6,1.6
					c3.3,4.1,5.4,7.5,6.7,9.3c0,0,0.1,0.1,0.1,0.1l3-3.3l-1.7,4.3c3,1.6,9.4,2.7,14.4,3.4l-2-3.6l2.7,3.7c3.5,0.4,6.2,0.6,6.2,0.6
					s-4.5-9.5-16-18.1c2.9,0,8.4-1.3,12.6-2.5l-2.3-1.8l2.9,1.7C178.3,154.8,180.6,154,180.6,154z M153.2,152.8
					c-0.2-0.1-0.5-0.2-0.7-0.4l1.6-0.7L153.2,152.8z M161.8,158.2c-0.3-0.2-0.6-0.5-1-0.7l1.5-2.7L161.8,158.2z"/>
				<path class="st36" d="M149.1,172.1c-0.5-3.1-1.5-5.8-3.5-9.3c-0.6,1.7-1.2,3.5-1.6,5.3c-2,8.3-1.5,16.2,0.9,22.6
					c0.9,1.4,1.6,2.4,1.6,2.4s2.8-12.6,2.8-19.3l-3.4-1.1L149.1,172.1z"/>
			</g>
		</g>
		<path class="st35" d="M92.5,145c0.6,1.6,2.2,2.6,3.5,2.2c1.4-0.5,2.1-2.2,1.5-3.8c-0.6-1.6-2.2-2.6-3.5-2.2
			C92.6,141.6,92,143.3,92.5,145z"/>
		<path class="st34" d="M99.6,128.3l1.3-0.7c-0.1-1.8-0.5-3.5-1.1-5.2l-8.4,7.1l9.2,3.6c0.3-1.9,0.3-3.4,0.3-4.9L99.6,128.3z"/>
		<path class="st35" d="M95.3,135.4c0.6,1.6,2.2,2.6,3.5,2.2c1.4-0.5,2.1-2.2,1.5-3.8c-0.6-1.6-2.2-2.6-3.5-2.2
			C95.4,132.1,94.8,133.8,95.3,135.4z"/>
		<path class="st35" d="M96,140.7c0.6,1.6,2.2,2.6,3.5,2.2c1.4-0.5,2.1-2.2,1.5-3.8c-0.6-1.6-2.2-2.6-3.5-2.2
			C96.1,137.3,95.5,139,96,140.7z"/>
		<path class="st35" d="M89.1,137.9c0.7,2.2,2.8,3.4,4.6,2.8c1.8-0.6,2.7-2.8,2-5c-0.7-2.2-2.8-3.4-4.6-2.8
			C89.2,133.5,88.4,135.8,89.1,137.9z"/>
		<path class="st36" d="M80.6,128.1c0,0,6.7,4.5,11,5.7l2.6,0c2.6-1.9,5.6-11.4,5.6-11.4C92.3,121,80.6,128.1,80.6,128.1z"/>
		<path class="st37" d="M92.1,128.4c-4.7,1.6-9.2,1.3-11.1-0.5c-0.2,0.1-0.4,0.2-0.4,0.2s6.6,5.1,10.9,6.3l3.2-0.3
			c1.9-1.4,3.6-7.3,4.6-10.1C97.8,125.8,95.2,127.4,92.1,128.4z"/>
		<path class="st36" d="M152,138.1l5.5,2.3c5.1-2,8.9-3.6,8.9-3.6s-26.7-19-73.4-4.2l0.2,0.8c3.7,0.5,7.4,2.2,10.6,2.9l4.1-1
			l-1.9,1.5c3.9,1,7.4,2,10.6,3.1l5.1-2.7l-2.8,3.5c6.5,2.4,11,4.7,13.7,5.9c0.1,0,0.2,0,0.2,0.1l2.5-5.8l-0.3,6
			c4.9-0.2,14.2-3.4,21.4-6.2L152,138.1z"/>
		<path class="st36" d="M53.6,171.1l-2.5,5c-5.3,1.4-9.6,2.3-9.6,2.3s6.5-32.4,52-44.8l0.3,0.8c-2.3,2.5-4,5.9-5.9,8.3l-3.5,1.3
			l2.3,0.3c-2.2,3-4.1,5.8-5.7,8.4l-5.4,0.5l4.2,1.5c-3.2,5.5-5,9.9-6.2,12.3c0,0.1-0.1,0.1-0.1,0.2L68,164l4.1,4.6
			c-3.7,2.5-12.6,5.3-20,7.2L53.6,171.1z"/>
		<g>
			<path class="st37" d="M61.4,173.1c4.5-1.4,8.5-3,10.7-4.5l-2.9-3.3C66.9,167.9,64.3,170.6,61.4,173.1z"/>
			<path class="st37" d="M70.8,143c3.3-0.3,5.7,0.7,6.6,3.1c0.7,1.8,0.4,4.3-0.7,7.1l4.3-0.4c1.6-2.6,3.5-5.5,5.7-8.4l-2.3-0.3
				l3.5-1.3c1.8-2.4,3.6-5.8,5.9-8.3l-0.3-1.3C84.5,135.6,77,139.3,70.8,143z"/>
			<path class="st37" d="M69.4,164.9l4.1,2.4c0-0.1,0.1-0.1,0.1-0.2c1.2-2.4,3-6.8,6.2-12.3l-3.2-1.2
				C75.2,157,72.7,160.9,69.4,164.9z"/>
		</g>
		<path class="st36" d="M37.8,147.5l-4,2.5c-4.9-0.6-8.7-1.1-8.7-1.1s17.9-19.1,68.4-16l-0.2,0.7c-3.8,1.2-7.4,3.2-10.6,4.4
			l-4.3-0.1l2.2,0.9c-3.7,1.5-7,2.9-9.8,4.3l-5.5-1.2l3.4,2.2c-5.6,2.8-9.3,5.2-11.4,6.4c-0.1,0-0.1,0.1-0.2,0.1l-3.7-3.7l1.7,4.2
			c-4.4,0.6-13.4-0.2-20.4-1L37.8,147.5z"/>
		<g>
			<path class="st37" d="M49.2,148.7c-2.5,0.8-4.9,1.5-7.3,2.1c5.2,0.4,10.2,0.7,13.2,0.3l-1.6-3.9
				C52.2,147.7,50.7,148.2,49.2,148.7z"/>
			<path class="st37" d="M75.5,132.7c-1.6,4.3-10.2,10-21.9,14.4l3.5,3.5c0.1,0,0.1-0.1,0.2-0.1c2.2-1.2,5.9-3.6,11.4-6.4l-3.4-2.2
				l5.5,1.2c2.8-1.4,6.1-2.8,9.8-4.3l-2.2-0.9l4.3,0.1c3.1-1.2,7-2.7,10.8-3.9l0.3-1.6C87.4,132.1,81,132.4,75.5,132.7z"/>
		</g>
		<path class="st36" d="M92.9,132.6l0.8,0c4,3.4,9.1,4.9,13.6,6.7l-0.6,3l1.5-2.6c2.4,0.9,4.5,2,6.7,2.9l-0.5,3.3l1.5-2.9
			c5,2.2,7.9,4.3,10.3,7.4l-4,3.5l5.2-1.6c3.7,7.3,6.9,23.5,6.9,23.5s-4.6-1.7-8.8-3.1L124,168l0.8,4.2c-6-2-13.4-4.9-16.4-7.4
			l4.2-3.9l-5.3,2.5c0-0.1-0.1-0.1-0.1-0.2c-0.8-2.2-1.9-6.2-4-11.3l3.9-0.9l-4.7-0.9c-1.1-2.4-1.5-3.4-3.1-6.1l1.4-1.5l-2.3,0
			C97.1,140.3,94.6,134.9,92.9,132.6z"/>
		<path class="st36" d="M93.8,131.5l-0.6,0.5c-1,5.2-4.1,9.6-6.6,13.8l2.3,2.1l-2.8-1.2c-1.3,2.2-2.3,4.4-3.5,6.4l2.4,2.4l-3-1.4
			c-2.6,4.8-3.5,8.2-3.5,12.1l5.3,0.3l-5.1,1.8c1.7,7.8,9.1,22.1,9.1,22.1s2.5-4,4.9-7.6l-1.5-4.4l1.9,3.7
			c3.4-5.1,7.4-11.7,8.2-15.4l-5.6-0.5l5.6-1.2c0-0.1,0-0.1,0-0.2c-0.7-2.2-2.3-6-3.8-11.3l-3.6,1.7l3.1-3.6
			c-0.6-2.6-0.9-3.6-1.4-6.8l-2-0.4l1.8-1.4C95.3,140.4,93.9,134.5,93.8,131.5z"/>
		<g>
			<path class="st37" d="M120.4,138.7l-1.6,2c6.5,2.4,11,4.7,13.7,5.9c0.1,0,0.2,0,0.2,0.1l0.5-1.2
				C128.2,143.5,123.8,141.1,120.4,138.7z"/>
			<path class="st37" d="M113.4,129.1c0-0.4,0.2-0.8,0.4-1.2c-6.4,0.9-13.4,2.1-20.9,4.4l0.3,1c3.7,0.5,7.4,2.2,10.6,2.9l4.1-1
				l-1.9,1.5c3.9,1,7.4,2,10.6,3.1l3.2-1.7C115.5,135.1,113.1,131.8,113.4,129.1z"/>
			<path class="st37" d="M135.1,146.2l0,0.8c0.5,0,1.1-0.1,1.7-0.2C136.1,146.6,135.6,146.4,135.1,146.2z"/>
		</g>
		<g>
			<path class="st37" d="M106.9,142.9c1.1-1.3,2.7-1.9,4.6-1.9c-1.1-0.5-2.1-1-3.3-1.4l-1.5,2.6l0.6-3c-4.6-1.7-9.7-3.3-13.6-6.7
				l-0.8,0c1.8,2.3,4.2,7.7,5.5,10l2.3,0l-1.4,1.5c1.6,2.8,2,3.7,3.1,6.1l3.2,0.6C105.1,147.4,105.4,144.7,106.9,142.9z"/>
			<path class="st37" d="M105.7,151.4l-2.6,0.6c2.1,5.1,3.2,9.1,4,11.3c0,0.1,0.1,0.1,0.1,0.2l2.7-1.3
				C107.8,158.4,106.4,154.6,105.7,151.4z"/>
			<path class="st37" d="M110.4,163l-2,1.8c1.1,0.9,2.9,1.9,4.9,2.9C112.2,166.2,111.2,164.6,110.4,163z"/>
		</g>
		<g>
			<path class="st37" d="M101.1,168c0.2-0.5,0.3-0.9,0.4-1.3l-0.7-0.1C100.9,167.1,101,167.5,101.1,168z"/>
			<path class="st37" d="M96.2,154.2c1.6,3.1,3,6.9,4.2,11l1.1-0.2c0-0.1,0-0.1,0-0.2c-0.7-2.2-2.3-6-3.8-11.3L96.2,154.2z"/>
			<path class="st37" d="M94.4,131.3l-1.8,0.4c-1,4.9-3.2,9.4-5.6,13.4c3,0.4,6.1,3.4,8.7,8.2l1.5-1.7c-0.6-2.6-0.9-3.6-1.4-6.8
				l-2-0.4l1.8-1.4C95.3,140.4,94.4,134.3,94.4,131.3z"/>
		</g>
		<path class="st34" d="M661.1,175.3c-2.2-2.3-3.3-4.2-2.8-7.9l7.1,0.2L661.1,175.3z"/>
		<path class="st34" d="M638.8,207.6c0.1,3.2-0.4,5.3-3.1,7.7l-5.2-4.9L638.8,207.6z"/>
		<path class="st35" d="M631.2,220.9c-0.3,1.5,0.6,3.1,2.2,3.4c1.5,0.3,3.1-0.6,3.4-2.2c0.3-1.5-0.6-3.1-2.2-3.4
			C633,218.3,631.5,219.3,631.2,220.9z"/>
		<path class="st35" d="M628.6,218.2c-0.3,1.5,0.6,3.1,2.2,3.4c1.5,0.3,3.1-0.6,3.4-2.2c0.3-1.5-0.6-3.1-2.2-3.4
			C630.4,215.7,628.9,216.7,628.6,218.2z"/>
		<g>
			<polygon class="st32" points="686.1,349.2 679.6,348.9 699.8,143.1 701.5,143.2 			"/>
			<path class="st38" d="M694.2,240.8l7.3-97.6l-1.7-0.1l-8.7,89.4C692.2,234.9,693.2,237.7,694.2,240.8z"/>
		</g>
		<g>
			<polygon class="st32" points="657.1,347.9 665.8,176.2 667.2,175.5 663.6,347.7 			"/>
			<path class="st38" d="M665.6,251.2l1.6-75.7l-1.4,0.6l-3.2,63.6C663.6,243,664.7,246.9,665.6,251.2z"/>
		</g>
		<g>
			<polygon class="st32" points="632.8,345.2 632.6,214.6 634.1,213.6 637,345.1 			"/>
			<path class="st39" d="M635.3,270.2l-1.3-56.5l-1.5,1l0.1,49.1C633.6,265.5,634.5,267.7,635.3,270.2z"/>
		</g>
		<path class="st36" d="M625.7,209.3c0,0,4.9,4.7,6.9,5.8l1.3,0.2c1.6-1,4.9-7.8,4.9-7.8C633.3,205.9,625.7,209.3,625.7,209.3z"/>
		<path class="st35" d="M632.5,216.3c-0.3,1.5,0.6,3.1,2.2,3.4c1.5,0.3,3.1-0.6,3.4-2.2c0.3-1.5-0.6-3.1-2.2-3.4
			C634.3,213.8,632.8,214.8,632.5,216.3z"/>
		<path class="st37" d="M662.4,222.5l2.5,1.9c2.8-0.8,4.9-1.6,4.9-1.6s-11.1-14.1-36.3-8.4l0,0.5c1.8,0.6,3.5,1.9,5,2.7l2.2-0.3
			l-1.1,0.8c1.8,0.9,3.5,1.9,4.9,2.8l2.9-1.3l-1.8,2c3,2,5,3.8,6.2,4.8c0,0,0.1,0,0.1,0.1l2-3.5l-0.9,3.8c2.5,0.2,7.6-1,11.5-2.2
			L662.4,222.5z"/>
		<path class="st36" d="M606.2,233.7l-2.2,2.8c-2.8,0.3-5,0.4-5,0.4s9.3-18.1,34.7-22.5l0,0.5c-1.7,1.3-3.2,3.3-4.6,4.6L627,220
			l1.2,0.4c-1.7,1.6-3.2,3.2-4.5,4.7l-3-0.1l2,1.3c-2.7,3.1-4.4,5.7-5.5,7.1c0,0-0.1,0.1-0.1,0.1l-2.3-2.6l1.3,3.3
			c-2.4,1.2-7.5,1.9-11.5,2.4L606.2,233.7z"/>
		<path class="st36" d="M603.9,219.5l-2.3,1.2c-2.4-0.7-4.2-1.4-4.2-1.4s11.3-10.7,36.3-4.7l-0.2,0.4c-2.1,0.4-4.1,1.4-5.8,1.9
			l-2.1-0.4l1,0.7c-2.1,0.6-3.9,1.3-5.5,1.9l-2.6-1.2l1.4,1.6c-3.2,1.3-5.3,2.5-6.5,3.2c0,0-0.1,0-0.1,0l-1.4-2.6l0.4,2.8
			c-2.3,0-6.7-1.2-10.1-2.2L603.9,219.5z"/>
		<path class="st36" d="M633.4,214.4l0.4,0.1c1.6,2.4,3.9,3.8,6,5.3l-0.6,1.8l1.1-1.5c1.1,0.8,2,1.6,3,2.4l-0.6,2.1l1.1-1.7
			c2.3,1.8,3.4,3.3,4.3,5.5l-2.4,1.9l2.8-0.6c0.9,4.9,0.6,15.3,0.6,15.3s-2.1-1.4-4-2.7l-0.3-3l-0.1,2.7c-2.7-1.7-6.1-4.1-7.3-5.9
			l2.6-2.1l-3,1.2c0,0,0-0.1,0-0.1c-0.1-1.5-0.2-4.1-0.6-7.5l2.1-0.3l-2.3-1c-0.2-1.6-0.3-2.2-0.8-4.1l0.9-0.8l-1.1-0.2
			C634.5,219.6,634,216,633.4,214.4z"/>
		<path class="st36" d="M633.5,213.6l-0.4,0.2c-1.1,3.1-3,5.6-4.7,8l0.9,1.4l-1.2-0.9c-0.9,1.3-1.6,2.5-2.4,3.7l0.9,1.7l-1.3-1.1
			c-1.8,2.8-2.7,4.9-3.1,7.4l2.6,0.6l-2.7,0.8c-0.1,5.1,1.9,15,1.9,15s1.7-2.4,3.3-4.6l-0.2-3l0.5,2.6c2.3-3,5-7,5.9-9.3l-2.7-0.8
			l2.9-0.3c0,0,0-0.1,0-0.1c-0.1-1.5-0.5-4-0.6-7.5l-2,0.8l1.9-2c0-1.7-0.1-2.3,0.1-4.3l-0.9-0.4l1-0.7
			C633.2,219.2,633.2,215.4,633.5,213.6z"/>
		<path class="st35" d="M668.7,180.7c0.6,1.6-0.2,3.6-1.8,4.4c-1.6,0.8-3.4,0.1-4-1.6c-0.6-1.7,0.2-3.6,1.8-4.4
			C666.3,178.4,668.1,179.1,668.7,180.7z"/>
		<path class="st35" d="M671,177.2c0.6,1.6-0.2,3.5-1.8,4.3c-1.6,0.8-3.4,0.1-4-1.6c-0.6-1.6,0.2-3.6,1.8-4.3
			C668.6,174.8,670.4,175.5,671,177.2z"/>
		<path class="st35" d="M666.6,176c0.6,1.6-0.2,3.6-1.8,4.3c-1.6,0.8-3.5,0.1-4.1-1.6c-0.6-1.7,0.2-3.6,1.9-4.4
			C664.2,173.6,666,174.3,666.6,176z"/>
		<g>
			<path class="st36" d="M672.6,166.8c0,0-4.4,6.2-6.4,7.9l-1.4,0.5c-1.8-0.8-6.6-7.7-6.6-7.7C664,164.6,672.6,166.8,672.6,166.8z"
				/>
			<path class="st36" d="M632.4,191.2l-2.9,3.1c-3.8-0.1-6.8-0.4-6.8-0.4s12.1-20.4,42.5-19.9l0.1,0.6c-1.8,1.1-3.5,3-5,4.2
				l-2.5,0.2l1.4,0.6c-1.9,1.5-3.6,3-5.1,4.5l-3.6-0.7l2.4,1.9c-3.1,3.2-5.2,5.9-6.5,7.4c0,0-0.1,0.1-0.1,0.1l-3-3.5l1.7,4.2
				c-3,1.1-9.5,1.1-14.8,0.9L632.4,191.2z"/>
			<path class="st36" d="M695.3,188.2l2.4,2.4c2.6-0.4,4.5-0.9,4.5-0.9s-11-16.5-37.2-15.6l0,0.6c2,1.1,3.9,2.9,5.6,4l2.3,0.1
				l-1.2,0.7c2,1.4,3.8,2.7,5.4,4l3-0.9l-1.8,1.9c3.2,2.7,5.3,5,6.6,6.2c0,0,0.1,0.1,0.1,0.1l1.9-3.4l-0.8,3.9
				c2.5,0.6,7.4,0.1,11.2-0.6L695.3,188.2z"/>
			<path class="st36" d="M695.3,173.1l2.3,0.8c2.1-1.3,3.6-2.3,3.6-2.3s-11.8-8.7-36.1,2.8l0.2,0.4c2.3,0,4.6,0.6,6.5,0.8l2.2-0.9
				l-0.9,1c2.2,0.2,4.2,0.5,5.9,0.8l2.4-1.8l-1.2,2.1c3.3,0.7,5.6,1.5,6.9,1.9c0,0,0.1,0,0.1,0l1-3.1l0.1,3c2.2-0.5,6.1-2.7,9.1-4.5
				L695.3,173.1z"/>
			<path class="st36" d="M665.3,174.1l-0.4,0.1c-1.3,3.1-3.7,5.2-5.8,7.4l1,1.9l-1.4-1.5c-1.1,1.2-2,2.4-3,3.5l1.1,2.2l-1.5-1.7
				c-2.3,2.7-3.5,4.8-4.1,7.6l3.1,1.5l-3.4,0.1c-0.3,6,1.8,18.2,1.8,18.2s2.2-2.4,4.3-4.6l-0.2-3.5l0.6,3.1c2.8-2.9,6.3-6.8,7.3-9.2
				l-3.2-1.6l3.5,0.4c0,0,0-0.1,0-0.1c-0.1-1.7-0.4-4.7-0.5-8.6l-2.3,0.3l2.3-1.7c0-1.9,0-2.6,0.2-4.8l-1.1-0.7l1.2-0.5
				C664.9,180.2,664.9,176,665.3,174.1z"/>
			<path class="st36" d="M665.1,173.2l0.4,0.2c1.6,3.2,4.1,5.5,6.3,7.8l-0.7,1.8l1.1-1.3c1.1,1.2,2.1,2.4,3.1,3.5l-0.7,2.1l1.2-1.5
				c2.3,2.6,3.5,4.6,4.3,7.2l-2.5,1.4l2.9,0.1c0.9,5.5,0.4,16.9,0.4,16.9s-2.1-2.1-4.1-3.9l-0.2-3.4l-0.2,3
				c-2.8-2.6-6.4-6.2-7.6-8.6l2.8-1.7l-3.2,0.5c0,0,0-0.1,0-0.1c-0.1-1.7-0.1-4.6-0.5-8.5l2.2,0.3l-2.4-1.7
				c-0.2-1.9-0.3-2.6-0.8-4.8l0.9-0.7l-1.2-0.6C666.2,179.3,665.7,175.2,665.1,173.2z"/>
		</g>
		<g>
			<path class="st40" d="M651.8,208.9c0.4,2.7,0.7,4.6,0.7,4.6s2.2-2.4,4.3-4.6l-0.2-3.5l0.6,3.1c2.8-2.9,6.3-6.8,7.3-9.2l-3.2-1.6
				l3.5,0.4c0,0,0-0.1,0-0.1c-0.1-1.4-0.3-3.7-0.4-6.6C661.5,197.2,657.3,203.2,651.8,208.9z"/>
			<path class="st40" d="M665.1,167.5c1.4,1.5,2.3,3.3,2.8,5.4c2.1-2.5,4.7-6.1,4.7-6.1s-4.5-1.2-9.2-0.7
				C664,166.5,664.6,167,665.1,167.5z"/>
			<path class="st40" d="M702.2,189.7c0,0-4.4-6.5-14.1-11.1c2.2-0.5,6.1-2.7,9-4.5l-1.9-1l2.3,0.8c2.1-1.3,3.6-2.3,3.6-2.3
				s-10.9-8-33.2,1.5c0.3,1.2,0.4,2.6,0.4,3.9c0.8,0.6,1.6,1.2,2.3,1.7l2.3,0.1l-1.2,0.7c2,1.4,3.8,2.7,5.4,4l3-0.9l-1.8,1.9
				c3.2,2.7,5.3,5,6.6,6.2c0,0,0.1,0.1,0.1,0.1l1.9-3.4l-0.8,3.9c2.5,0.6,7.4,0.1,11.2-0.6l-1.9-2.4l2.4,2.4
				C700.3,190.2,702.2,189.7,702.2,189.7z M687.2,178.2l0.8-2.6l0.1,3C687.8,178.5,687.5,178.4,687.2,178.2z"/>
			<path class="st40" d="M677.6,194.2l2.5-1.4c-0.8-2.6-2-4.6-4.3-7.2l-1.2,1.5l0.7-2.1c-1-1.1-1.9-2.3-3.1-3.5l-1.1,1.3l0.7-1.8
				c-1.1-1.2-2.4-2.4-3.5-3.7c0,1.4-0.2,2.8-0.5,4.3l0.1,0l-0.1,0c-0.2,0.8-0.3,1.5-0.6,2.3c0.2,1.1,0.3,1.8,0.4,3.1l2.4,1.7
				l-2.2-0.3c0.4,3.9,0.4,6.9,0.5,8.5c0,0,0,0.1,0,0.1l3.2-0.5l-2.8,1.7c1.2,2.3,4.8,5.9,7.6,8.6l0.2-3l0.2,3.4
				c2,1.8,4.1,3.9,4.1,3.9s0.5-11.4-0.4-16.9L677.6,194.2z"/>
		</g>
		<path class="st35" d="M696.9,151.2c-0.2,1.2,0.7,2.4,1.9,2.6c1.3,0.2,2.4-0.6,2.6-1.8c0.2-1.2-0.7-2.4-1.9-2.6
			C698.3,149.2,697.1,150,696.9,151.2z"/>
		<path class="st34" d="M708.8,143.4l1.2,0c0.6-1.2,1-2.3,1.1-3.6l-9.3,1.5l5.8,5.4c0.9-1.1,1.6-2,2.1-2.9L708.8,143.4z"/>
		<path class="st35" d="M702.8,146.3c-0.2,1.2,0.7,2.4,1.9,2.6c1.3,0.2,2.4-0.6,2.6-1.8c0.2-1.2-0.7-2.4-1.9-2.6
			C704.1,144.3,702.9,145.1,702.8,146.3z"/>
		<path class="st35" d="M701.3,149.8c-0.2,1.2,0.7,2.4,1.9,2.6c1.3,0.2,2.4-0.6,2.6-1.8c0.2-1.2-0.7-2.4-1.9-2.6
			C702.7,147.8,701.5,148.6,701.3,149.8z"/>
		<path class="st35" d="M696.9,145.7c-0.2,1.6,0.9,3.1,2.5,3.3c1.7,0.3,3.2-0.8,3.4-2.4c0.2-1.6-0.9-3.1-2.5-3.3
			C698.7,143,697.2,144.1,696.9,145.7z"/>
		<path class="st36" d="M694.1,136.7c0,0,3.5,5.1,6.4,7.3l2,0.9c2.8-0.3,8.8-5.1,8.8-5.1C705.9,136.3,694.1,136.7,694.1,136.7z"/>
		<path class="st37" d="M702.9,140.8c-4.3-0.7-7.7-2.4-8.5-4.1c-0.2,0-0.4,0-0.4,0s3.2,5.4,6.1,7.7l2.6,0.9c2.1-0.2,5.6-3.3,7.5-4.7
			C708.4,141.2,705.8,141.3,702.9,140.8z"/>
		<path class="st36" d="M746,167.5l3.4,3.3c4.7,0.5,8.3,0.8,8.3,0.8s-13.5-21-55.7-28l-0.1,0.6c2.7,1.6,5,3.9,7.2,5.5l3.6,0.8
			l-2.1,0.3c2.7,2,5,3.8,7.1,5.6l5,0.1l-3.5,1.2c4.1,3.7,6.8,6.7,8.5,8.4c0,0,0.1,0.1,0.2,0.1l4.2-2.7l-2.6,3.6
			c3.9,1.6,12.4,2.8,19.1,3.6L746,167.5z"/>
		<path class="st36" d="M656.5,154l-3.9,2.2c-4.7-1-8.4-1.8-8.4-1.8s17.4-17.9,57.8-9.8l-0.1,0.6c-2.8,0.7-5.4,2.3-7.8,3.1l-3.2-0.4
			l1.6,1c-2.9,1.1-5.4,2.2-7.7,3.2l-4.4-1.5l2.7,2.4c-4.6,2.3-7.7,4.4-9.5,5.5c0,0-0.1,0-0.2,0.1l-3.1-3.9l1.4,4.3
			c-3.8,0.3-11.9-1.1-18.4-2.4L656.5,154z"/>
		<g>
			<path class="st37" d="M661.8,158c4,0.6,7.8,1.1,10.1,0.9l-1-3.1C668.1,156.6,665,157.4,661.8,158z"/>
			<path class="st37" d="M680.7,142.5c2.7,1,4.2,2.4,3.9,4.2c-0.2,1.4-1.3,2.8-3.2,4.2l3.5,1.2c2.2-1.1,4.8-2.2,7.7-3.2l-1.6-1
				l3.2,0.4c2.3-0.8,5-2.4,7.8-3.1l0.3-0.9C694.2,142.7,687,142.4,680.7,142.5z"/>
			<path class="st37" d="M671.3,155.6l2.3,2.9c0.1,0,0.1,0,0.2-0.1c1.9-1.1,5-3.1,9.5-5.5l-2.1-1.8
				C678.8,152.7,675.4,154.3,671.3,155.6z"/>
		</g>
		<path class="st36" d="M653.2,134l-4.1,0.1c-3.6-2.1-6.4-3.7-6.4-3.7s21.3-5.7,59.6,13.7l-0.4,0.4c-3.4-0.6-7-0.6-9.9-0.9l-3.3-1.5
			l1.4,1.3c-3.5-0.4-6.6-0.6-9.3-0.7l-3.8-2.6l1.8,2.5c-5.4-0.2-9.2,0-11.4,0c-0.1,0-0.1,0-0.2,0l-1.5-3.6l-0.2,3.2
			c-3.7-1.2-10.4-4.8-15.6-7.7L653.2,134z"/>
		<g>
			<path class="st37" d="M661.7,138.6c-2.3-0.4-4.4-0.8-6.5-1.2c3.9,2,7.7,3.9,10.2,4.7l0.2-3C664.3,139,663,138.8,661.7,138.6z"/>
			<path class="st37" d="M688.4,137.8c-2.9,2.1-11.8,2.7-22.6,1.4l1.4,3.3c0.1,0,0.1,0,0.2,0c2.2,0,5.9-0.2,11.4,0l-1.8-2.5l3.8,2.6
				c2.7,0.1,5.8,0.4,9.3,0.7l-1.4-1.3l3.3,1.5c2.9,0.4,6.5,0.7,9.9,1.3l0.9-0.9C697.8,141.5,692.7,139.5,688.4,137.8z"/>
		</g>
		<path class="st36" d="M701.9,143.7l0.6,0.3c1.8,3.5,5.2,6.2,8.1,8.8l-1.6,1.6l2.2-1.1c1.5,1.4,2.8,2.8,4.1,4.1l-1.6,1.9l2.3-1.3
			c3.1,3.1,4.5,5.4,5.2,8.1l-4.5,0.8l4.7,0.8c0.1,5.8-3.6,16.9-3.6,16.9s-2.9-2.6-5.7-5l0.5-3.4l-1,2.9c-3.9-3.3-8.6-7.7-10-10.2
			l4.7-1l-5.1-0.3c0,0,0-0.1,0-0.1c0.2-1.7,0.9-4.5,1.2-8.4l3.4,0.8l-3.3-2.2c0.1-1.9,0.1-2.6-0.1-4.9l1.6-0.5l-1.8-0.8
			C702.2,149.9,702.4,145.8,701.9,143.7z"/>
		<path class="st36" d="M703.1,143.3l-0.7,0.1c-2.8,2.9-6.9,4.5-10.5,6.3l1,2.1l-1.7-1.7c-1.9,0.9-3.5,1.9-5.2,2.8l1,2.3l-1.8-1.9
			c-3.8,2.1-5.9,3.9-7.3,6.3l4,2l-4.7-0.6c-1.7,5.4-1.3,16.8-1.3,16.8s3.5-1.6,6.7-3l0.5-3.2l0.1,3c4.6-2,10.3-4.7,12.3-6.7
			l-4.1-2.2l4.9,1.2c0,0,0-0.1,0-0.1c0.3-1.6,0.5-4.5,1.4-8.3l-3.5-0.2l3.8-1.2c0.5-1.8,0.7-2.5,1.5-4.7l-1.4-0.9l1.9-0.2
			C700.9,149.4,702,145.2,703.1,143.3z"/>
		<g>
			<path class="st37" d="M721.1,157l-2,0.7c4.1,3.7,6.8,6.7,8.5,8.4c0,0,0.1,0.1,0.2,0.1l0.9-0.6C725.4,162.6,722.8,159.7,721.1,157
				z"/>
			<path class="st37" d="M719.3,148.6c0.2-0.3,0.5-0.5,0.8-0.6c-5.3-1.7-11.3-3.3-18-4.5l-0.2,0.8c2.7,1.6,5,3.9,7.2,5.5l3.6,0.8
				l-2.1,0.3c2.7,2,5,3.8,7.1,5.6l3.2,0.1C718.6,153,718,150.2,719.3,148.6z"/>
			<path class="st37" d="M729.7,166.7l-0.3,0.5c0.4,0.2,0.9,0.3,1.4,0.5C730.4,167.3,730,167,729.7,166.7z"/>
		</g>
		<g>
			<path class="st37" d="M709,154.9c1.3-0.4,2.8-0.2,4.3,0.4c-0.6-0.7-1.3-1.3-2-2l-2.2,1.1l1.6-1.6c-2.9-2.7-6.3-5.4-8.1-8.8
				l-0.6-0.3c0.5,2.1,0.3,6.2,0.5,8.1l1.8,0.8l-1.6,0.5c0.2,2.3,0.1,3,0.1,4.9l2.3,1.5C705.8,157.1,707.1,155.5,709,154.9z"/>
			<path class="st37" d="M704.8,159.8l-2.2-0.5c-0.3,3.9-1,6.8-1.2,8.4c0,0,0,0.1,0,0.1l2.6,0.1C703.7,164.8,704,162,704.8,159.8z"
				/>
			<path class="st37" d="M703.9,168.6l-2.2,0.5c0.5,1,1.5,2.2,2.7,3.5C704.2,171.2,704,169.9,703.9,168.6z"/>
		</g>
		<g>
			<path class="st37" d="M694.8,168.5c0.3-0.2,0.6-0.5,0.8-0.7l-0.5-0.3C695,167.8,694.9,168.2,694.8,168.5z"/>
			<path class="st37" d="M696.3,158.2c0.1,2.5-0.3,5.3-1,8.3l1,0.2c0,0,0-0.1,0-0.1c0.3-1.6,0.5-4.5,1.4-8.3L696.3,158.2z"/>
			<path class="st37" d="M703.6,143.4l-1.5-0.4c-2.7,2.7-6.1,4.7-9.5,6.3c2.2,1.3,3.5,4.2,3.7,8.1l1.8-0.6c0.5-1.8,0.7-2.5,1.5-4.7
				l-1.4-0.9l1.9-0.2C700.9,149.4,702.5,145.3,703.6,143.4z"/>
		</g>
		<g>
			<path class="st37" d="M634.8,207.1l-1.5,7.6l13-1.6c-3.4-0.1-7.1,0.2-11.2,1c1.7-2.3,3.8-6.5,3.8-6.5
				C637.5,207.2,636.2,207.1,634.8,207.1z"/>
			<path class="st37" d="M642.1,221.5l-1,1.3l6.9,21.4c0.6,0.4,1,0.7,1,0.7s0.3-10.5-0.6-15.3l-2.8,0.6l2.4-1.9
				c-0.8-2.1-2-3.7-4.3-5.5l-1.1,1.7l0.6-2.1C642.9,222.1,642.5,221.8,642.1,221.5z"/>
			<path class="st37" d="M669.7,222.8c0,0-6.5-8.3-21-9.6l-5.6,6.9c0.4,0.2,0.8,0.5,1.2,0.7l2.9-1.3l-1.8,2c3,2,5,3.8,6.2,4.8
				c0,0,0.1,0,0.1,0.1l2-3.5l-0.9,3.8c2.5,0.2,7.6-1,11.5-2.2l-1.9-2l2.5,1.9C667.6,223.5,669.7,222.8,669.7,222.8z"/>
		</g>
		<g>
			<g>
				<path class="st32" d="M305,341.6c0-1.6-0.2-154.7-0.2-156c0,0,1.5-1.1,1.5,1l3,155.3L305,341.6z"/>
			</g>
			<path class="st39" d="M307.4,239.7l-1-53c0-2.1-1.5-1-1.5-1c0,0.5,0,22.4,0.1,49.6C305.8,236.1,306.6,237.6,307.4,239.7z"/>
		</g>
		<path class="st41" d="M2.4,340.4v53.1c104.8,0,326.7-0.2,413.1-0.9C354.8,367.3,95.9,344.3,2.4,340.4z"/>
		<path class="st41" d="M800,382.3v-37.8c-105.2-9.6-593.6,21.4-637.7,46.7C279.2,389.5,664.9,386.6,800,382.3z"/>
		<path class="st42" d="M242.5,344.6c-83.1,0-217,2.8-216.2,8c0.7,4.8,260.3,22.5,279.3,14.4L242.5,344.6z"/>
		<path class="st42" d="M498.5,341c93.6-1.5,237.4,0.7,224.7,3c-115.6,21.5-327.1,21.4-327.1,21.4L498.5,341z"/>
		<polygon class="st42" points="381.3,339.8 377.2,333.6 381.6,338.3 378.3,330.5 383.7,337.5 381.9,328.5 386.3,336.9 389.4,324.7 
			391.4,336 397.3,330.2 394.8,339.5 		"/>
		<polygon class="st42" points="194.1,346.5 189.9,338 194.3,344.5 190.8,333.9 196.4,343.5 194.4,331.3 199.1,342.8 201.8,326.2 
			204.1,341.6 209.9,334 207.6,346.5 		"/>
		<polygon class="st42" points="209.5,346.7 205.4,340.5 209.7,345.3 206.4,337.5 211.9,344.5 210.1,335.5 214.5,343.9 217.6,331.7 
			219.6,343 225.5,337.2 222.9,346.5 		"/>
		<polygon class="st42" points="234.4,345.1 230.3,339 234.6,343.7 231.3,335.9 236.8,342.9 235,333.9 239.4,342.3 242.5,330.1 
			244.5,341.4 250.4,335.6 247.8,344.9 		"/>
		<g>
			<polygon id="XMLID_31_" class="st42" points="677.5,342.6 676.6,338 674.8,341.9 674.7,338.3 673,341.6 672.4,337.5 669.7,341.5 
				669,338.7 666.7,341.1 661,335.4 662.7,341.3 653.4,336.7 656.7,341.1 651.9,338.3 649,340.8 643.9,333.8 642.8,340.6 634,336.8 
				632.9,341.8 			"/>
			<polygon id="XMLID_30_" class="st42" points="634.1,341.9 633.2,335.1 631.4,341 631.2,335.7 629.5,340.7 629,334.6 626.3,340.6 
				625.6,336.6 623.3,340.2 617.5,332 619.2,340.6 609.9,334.2 613.2,340.6 608.5,336.7 605.5,340.5 600.4,330.4 599.3,340.6 
				590.6,335.3 589.5,342.8 			"/>
			<polygon id="XMLID_29_" class="st42" points="591.6,341.6 591.6,330.7 587.6,340.1 588.3,331.7 584.8,339.7 585.1,330.4 
				580.3,339.5 579.9,333.6 576.5,338.9 570.6,328 571.6,339.5 562.6,331.7 565.4,339.4 561.2,334.9 558.5,339.3 554.7,328.1 
				553.6,339.4 547.8,334.1 547.1,341.5 			"/>
			<polygon id="XMLID_28_" class="st42" points="504.7,341.6 504.7,330.6 500.6,340.1 501.4,331.7 497.9,339.7 498.2,330.3 
				493.4,339.5 493,333.6 489.6,338.9 483.7,328 484.7,339.5 475.7,331.7 478.5,339.4 474.3,334.8 471.6,339.3 467.8,328 
				466.7,339.4 460.8,334.1 460.1,341.5 			"/>
			<polygon id="XMLID_27_" class="st42" points="460.8,340.6 460.8,330.5 456.7,339.1 457.5,331.4 453.9,338.8 454.2,330.2 
				449.4,338.6 449.1,333.2 445.6,338.1 439.7,328 440.7,338.6 431.7,331.5 434.5,338.6 430.2,334.4 427.5,338.5 423.7,328.1 
				422.6,338.6 417.1,334.1 416,340.5 			"/>
			<polygon id="XMLID_23_" class="st42" points="548,341.8 548,333.1 543.9,340.5 544.7,333.9 541.2,340.2 541.5,332.8 536.7,340.1 
				536.3,335.4 532.9,339.6 527,330.9 528,340 519,333.9 521.8,340 517.6,336.4 514.9,339.9 511.1,331 510,340 504.1,335.8 
				503.5,341.6 			"/>
			<polygon id="XMLID_22_" class="st42" points="241.8,342.1 240.5,334.6 245.7,341 243.9,335.3 248.4,340.7 246.9,334.3 
				252.8,340.6 252.5,336.5 256.6,340.1 261.1,332.5 261.4,340.4 269.5,335 267.6,340.3 271.3,337.1 274.5,340.2 276.9,332.4 
				279.3,340.2 284.5,336.5 286.1,341.5 			"/>
			<polygon id="XMLID_21_" class="st42" points="329.4,340.8 329.4,333.6 333.5,339.8 332.7,334.3 336.3,339.5 336,333.4 
				340.8,339.4 341.1,335.5 344.6,339 350.5,331.8 349.5,339.3 358.5,334.2 355.7,339.3 360,336.3 362.7,339.2 366.5,331.8 
				367.6,339.3 373.5,335.8 374.2,340.6 			"/>
			<polygon id="XMLID_20_" class="st42" points="373.1,340.7 373.1,330.6 377.2,339.3 376.5,331.6 380,338.9 379.7,330.3 
				384.5,338.7 384.9,333.3 388.4,338.2 394.3,328.1 393.2,338.7 402.3,331.5 399.5,338.6 403.7,334.4 406.4,338.5 410.2,328.2 
				411.3,338.6 414.6,333.9 416.4,340.5 			"/>
			<polygon id="XMLID_19_" class="st42" points="285.9,340.9 285.9,335.2 290,340.1 289.2,335.8 292.8,339.9 292.5,335.1 
				297.3,339.8 297.6,336.8 301.1,339.5 307,333.8 306,339.8 315,335.7 312.2,339.7 316.5,337.4 319.2,339.7 323,333.8 324.1,339.7 
				330,337 330.7,340.8 			"/>
			<polygon id="XMLID_18_" class="st42" points="67.9,349.2 66.5,341.7 71.7,348 69.9,342.3 74.4,347.6 72.9,341.2 78.8,347.3 
				78.4,343.2 82.5,346.7 86.9,338.9 87.3,346.8 95.2,341 93.4,346.5 97,343.1 100.2,346.1 102.6,338.2 105,345.9 110.1,342 
				111.7,347 			"/>
			<polygon id="XMLID_17_" class="st42" points="152.7,347 151.4,339.4 156.5,345.7 154.8,340 159.2,345.3 157.8,338.9 163.6,345 
				163.2,341 167.3,344.5 171.8,336.7 172.1,344.6 180,338.9 178.2,344.3 181.9,341 185,344 187.4,336.1 189.8,343.8 195,339.9 
				196.5,345 			"/>
			<polygon id="XMLID_16_" class="st42" points="195.5,345.1 193.7,334.5 199.3,343.4 197.2,335.4 202,342.9 200.1,333.9 
				206.4,342.6 205.7,336.8 210,341.8 214,331 214.9,342.1 222.4,334.2 221,341.8 224.4,337.2 227.8,341.4 229.6,330.4 232.6,341.3 
				237.5,335.9 239.4,343 			"/>
			<polygon id="XMLID_15_" class="st42" points="110.8,347.3 109.7,339.2 114.6,346 113.1,339.8 117.3,345.6 116.1,338.7 
				121.7,345.4 121.4,341 125.3,344.8 130,336.5 130.1,345.1 138.2,339 136.2,344.9 139.9,341.3 142.9,344.6 145.5,336.1 
				147.7,344.5 152.9,340.4 154.3,345.8 			"/>
		</g>
		<path class="st42" d="M112,353.4c2.4,0.2,109.2,15.5,252.8,14.2s264.3-16.1,267.6-19.7c3.3-3.6-180-9-258-9
			C250.8,338.9,82.2,350.7,112,353.4z"/>
		<path class="st42" d="M236.8,366.3c34.1,5.4,259,6.6,281.3,5.1c20-1.4-50.9-9.8-50.9-9.8L236.8,366.3z"/>
		<path class="st43" d="M280.4,365.8c0,0,215.6,4.1,228.8,3.7c13.2-0.3-53.3-6.1-53.3-6.1L280.4,365.8z"/>
		<g>
			<path class="st43" d="M374.8,342c63.1,0,193,2.4,244.8,4.6c-43-3.3-180.2-7-244.8-7c-73,0-156.1,3.8-208.7,7.3
				C220.6,344.5,302.5,342,374.8,342z"/>
			<path class="st43" d="M364.8,362.4c-126.6,0.8-220-7.3-247.5-10c-0.4,0.2-10.4,1.6-9.3,1.7c2.4,0.4,113.5,15.3,257.1,14.1
				c120.3-1,224.5-11.6,257.1-17.2C581.2,355.2,480.1,361.7,364.8,362.4z"/>
		</g>
		<path class="st44" d="M111.7,352.9c2.4,0.4,113.9,8.9,257.5,8.1c143.5-0.8,260-8.5,263.3-10.9c9.2-6.9-196.2-6-255.7-5.7
			C317.2,344.7,87.3,348.3,111.7,352.9z"/>
		<path class="st45" d="M113.9,353.2c2.4,0.3,111.7,11.3,255.3,10.4c143.5-0.9,259.9-10.8,263.3-13.5c3.3-2.7-195.3-3-254.8-2.7
			C318.1,347.8,97.8,351.4,113.9,353.2z"/>
		<path class="st46" d="M129.9,353.9c2.3,0.2,102.3,5.5,238.5,4.8c136.1-0.7,226.6-5.8,229.7-7.8c3.2-2-166.5-3.7-222.9-3.4
			C318.7,347.7,114.6,352.5,129.9,353.9z"/>
		<path class="st47" d="M342.3,387.9c-77.4,0-339.9-16.5-339.9-16.5v24.4l797.6,0V362C800,362,419.6,387.9,342.3,387.9z"/>
		<polygon class="st42" points="52.9,351.9 48.6,343.4 53.1,350 49.6,339.3 55.2,349 53.2,336.7 57.8,348.2 60.6,331.7 62.9,347.1 
			68.6,339.4 66.3,351.9 		"/>
		<ellipse class="st45" cx="437.5" cy="355.9" rx="43.1" ry="0.8"/>
		<path class="st45" d="M400.3,353.4c0-0.4-19.3-0.8-43.1-0.8c-23.8,0-43.1,0.3-43.1,0.8c0,0.4,19.3,0.8,43.1,0.8
			C381,354.1,400.3,353.8,400.3,353.4z"/>
		<path class="st45" d="M301.2,356.3c0-0.4-19.3-0.8-43.1-0.8c-23.8,0-43.1,0.3-43.1,0.8c0,0.4,19.3,0.8,43.1,0.8
			C281.9,357.1,301.2,356.8,301.2,356.3z"/>
		<path class="st48" d="M377.6,348.9c-2.2,0-4.7,0-7.3,0c6.9,4.2-24.4,8.2-84.6,8.9c-19.3,0.2-32,1.2-38.8,2.6
			c35.9,1.1,77.4,1.8,122.3,1.6c43.5-0.2,84.5-1.1,120.6-2.3c4.3-3.7-0.9-7.5-9.9-10.9C438.4,348.7,399,348.8,377.6,348.9z"/>
		<polygon class="st42" points="492.4,365.9 489.8,360.9 492.7,364.8 490.8,358.6 494.4,364.4 493.7,357.4 496.4,364.1 499.6,355 
			500.3,363.7 505.1,359.8 502.6,366.7 		"/>
		<path class="st35" d="M302.4,187.9c0.1,1.2,0.9,2,1.8,1.9c0.9-0.1,1.6-1.2,1.5-2.4c-0.1-1.2-0.9-2-1.8-1.9
			C302.9,185.6,302.3,186.7,302.4,187.9z"/>
		<path class="st34" d="M309.1,177.4l0.9-0.3c0.2-1.3,0.2-2.4,0.1-3.7l-6.1,3.8l5.1,3.6c0.4-1.2,0.7-2.3,0.9-3.3L309.1,177.4z"/>
		<path class="st35" d="M305.5,181.7c0.1,1.2,0.9,2,1.8,1.9c0.9-0.1,1.6-1.2,1.5-2.4c-0.1-1.2-0.9-2-1.8-1.9
			C306,179.5,305.3,180.5,305.5,181.7z"/>
		<path class="st35" d="M305.1,185.4c0.1,1.2,0.9,2,1.8,1.9c0.9-0.1,1.6-1.2,1.5-2.4c-0.1-1.2-0.9-2-1.8-1.9
			C305.7,183.1,305,184.2,305.1,185.4z"/>
		<path class="st35" d="M301.3,182.7c0.1,1.6,1.2,2.7,2.4,2.5c1.2-0.2,2.1-1.6,1.9-3.2c-0.1-1.6-1.2-2.7-2.4-2.5
			C302,179.7,301.2,181.1,301.3,182.7z"/>
		<path class="st36" d="M297.6,175c0,0,3.4,3.9,5.8,5.2l1.6,0.3c1.9-1,5.1-7.1,5.1-7.1C305.7,171.5,297.6,175,297.6,175z"/>
		<path class="st37" d="M304.5,176.5c-3.1,0.5-5.8-0.2-6.7-1.6c-0.2,0.1-0.2,0.1-0.2,0.1s3.3,4.2,5.7,5.6l2,0.2
			c1.4-0.7,3.3-4.6,4.3-6.4C308.3,175.4,306.6,176.2,304.5,176.5z"/>
		<path class="st36" d="M339.5,190.3l3,2.2c3.4-0.7,5.9-1.4,5.9-1.4s-13.4-16.2-44-11.7l0,0.6c2.2,0.8,4.2,2.4,6,3.2l2.6-0.2
			l-1.4,0.8c2.2,1.1,4.2,2.3,6,3.4l3.5-1.2l-2.2,2.1c3.6,2.4,6,4.5,7.5,5.7c0,0,0.1,0.1,0.1,0.1l2.4-3.7l-1.1,4.1
			c3,0.4,9.1-0.6,13.9-1.6L339.5,190.3z"/>
		<path class="st36" d="M274.9,201.1l-2.2,3.1c-3.5,0.3-6.1,0.5-6.1,0.5s8.6-21.4,38.1-24.4l0,0.6c-1.8,1.4-3.3,3.5-4.8,4.9
			l-2.3,0.5l1.3,0.5c-1.8,1.8-3.3,3.5-4.7,5.1l-3.3-0.3l2.3,1.5c-2.7,3.4-4.5,6.1-5.5,7.6c0,0-0.1,0.1-0.1,0.1l-2.9-2.9l1.8,3.6
			c-2.6,1.3-8.4,2.1-13.2,2.6L274.9,201.1z"/>
		<g>
			<path class="st37" d="M279.4,203.4c2.9-0.5,5.6-1,7.1-1.8l-1.3-2.6C283.4,200.5,281.5,202,279.4,203.4z"/>
			<path class="st37" d="M289.5,184c2.1,0.2,3.4,1.2,3.5,2.9c0.1,1.3-0.4,3-1.4,4.8l2.6,0.2c1.3-1.6,2.9-3.3,4.7-5.1l-1.3-0.5
				l2.3-0.5c1.5-1.4,3-3.5,4.8-4.9l0-0.9C298.8,180.6,293.8,182.2,289.5,184z"/>
			<path class="st37" d="M285.5,198.7l2.1,2.1c0,0,0.1-0.1,0.1-0.1c1.1-1.5,2.8-4.3,5.5-7.6l-1.8-1.2
				C290.1,194.1,288,196.4,285.5,198.7z"/>
		</g>
		<path class="st36" d="M268.8,183.1l-2.8,1.2c-2.9-1-5.1-1.8-5.1-1.8s13.6-10.9,43.9-2.7l-0.2,0.5c-2.5,0.3-5,1.3-7.1,1.7l-2.6-0.5
			l1.2,0.9c-2.5,0.6-4.7,1.2-6.6,1.7l-3.1-1.4l1.7,1.9c-3.8,1.3-6.4,2.4-7.9,3c0,0-0.1,0-0.1,0l-1.7-3l0.5,3.1
			c-2.8-0.1-8.1-1.7-12.3-3.1L268.8,183.1z"/>
		<g>
			<path class="st37" d="M275.5,185.3c-1.6,0.3-3.2,0.4-4.7,0.6c3.1,0.9,6.1,1.7,8,1.8l-0.4-2.9C277.4,185,276.5,185.1,275.5,185.3z
				"/>
			<path class="st37" d="M293.8,177.5c-1.6,2.7-7.7,5.6-15.4,7.2l1.6,2.8c0,0,0.1,0,0.1,0c1.5-0.6,4.1-1.8,7.9-3l-1.7-1.9l3.1,1.4
				c1.9-0.6,4.1-1.2,6.6-1.7l-1.2-0.9l2.6,0.5c2.1-0.4,4.6-1,7.1-1.4l0.4-1C301.1,178.5,297.2,178,293.8,177.5z"/>
		</g>
		<path class="st36" d="M304.4,179.5l0.5,0.1c1.9,2.8,4.8,4.4,7.3,6.2l-0.8,2l1.3-1.6c1.3,0.9,2.5,1.9,3.6,2.8l-0.8,2.2l1.3-1.8
			c2.7,2.1,4.2,3.9,5.2,6.3l-2.9,1.9l3.4-0.5c1.2,5.4,0.8,16.8,0.8,16.8s-2.5-1.7-4.9-3.2l-0.3-3.3l-0.1,3c-3.3-2.1-7.5-5-8.9-7
			l3.1-2.1l-3.6,1.1c0,0,0-0.1,0-0.1c-0.1-1.6-0.2-4.5-0.8-8.2l2.5-0.1l-2.7-1.2c-0.3-1.8-0.4-2.5-1-4.6l1-0.9l-1.4-0.3
			C305.8,185.3,305.1,181.3,304.4,179.5z"/>
		<path class="st36" d="M305.1,178.9l-0.5,0.2c-1.4,3.4-3.9,6-6,8.6l1.1,1.7l-1.5-1.2c-1.1,1.4-2,2.7-3,4l1.1,1.9l-1.6-1.3
			c-2.3,2.9-3.3,5.2-3.9,7.9l3.2,0.9l-3.4,0.7c-0.1,5.5,2.3,16.1,2.3,16.1s2.1-2.4,4-4.6l-0.3-3.2l0.6,2.8c2.8-3.1,6.2-7.1,7.2-9.5
			l-3.3-1l3.6-0.1c0,0,0-0.1,0-0.1c-0.1-1.6-0.5-4.4-0.6-8.2l-2.4,0.7l2.4-2.1c0-1.8,0-2.6,0.2-4.8l-1.2-0.5l1.3-0.7
			C304.7,185.1,304.7,180.9,305.1,178.9z"/>
		<g>
			<path class="st37" d="M320.2,187l-1.3,1.2c3.6,2.4,6,4.5,7.5,5.7c0,0,0.1,0.1,0.1,0.1l0.5-0.8C324.3,191.2,321.9,189,320.2,187z"
				/>
			<path class="st37" d="M317.3,179.6c0.1-0.3,0.2-0.6,0.4-0.8c-4-0.2-8.5-0.2-13.3,0.5l0,0.7c2.2,0.8,4.2,2.4,6,3.2l2.6-0.2
				l-1.4,0.8c2.2,1.1,4.2,2.3,6,3.4l2.2-0.8C317.7,183.9,316.7,181.4,317.3,179.6z"/>
			<path class="st37" d="M328,193.8l-0.1,0.5c0.3,0,0.7,0.1,1,0.1C328.6,194.2,328.3,194,328,193.8z"/>
		</g>
		<g>
			<path class="st37" d="M311.4,188.2c0.8-0.7,1.9-1,3.1-0.8c-0.6-0.5-1.2-0.9-1.8-1.3l-1.3,1.6l0.8-2c-2.5-1.7-5.4-3.4-7.3-6.2
				l-0.5-0.1c0.7,1.8,1.4,5.8,1.9,7.5l1.4,0.3l-1,0.9c0.6,2.1,0.7,2.8,1,4.6l1.9,0.8C309.6,191.1,310.3,189.3,311.4,188.2z"/>
			<path class="st37" d="M309.4,193.9l-1.6,0.1c0.6,3.7,0.6,6.6,0.8,8.2c0,0,0,0.1,0,0.1l1.8-0.6
				C309.7,198.9,309.4,196.2,309.4,193.9z"/>
			<path class="st37" d="M310.6,202.4l-1.5,1c0.5,0.8,1.5,1.7,2.6,2.6C311.3,204.8,310.9,203.6,310.6,202.4z"/>
		</g>
		<g>
			<path class="st37" d="M304.2,204.7c0.2-0.3,0.3-0.6,0.4-0.8l-0.4-0.1C304.2,204,304.2,204.3,304.2,204.7z"/>
			<path class="st37" d="M303.3,194.7c0.5,2.3,0.8,5,0.9,8l0.7,0c0,0,0-0.1,0-0.1c-0.1-1.6-0.5-4.4-0.6-8.2L303.3,194.7z"/>
			<path class="st37" d="M305.5,178.8l-1.1,0.1c-1.3,3.3-3.3,6-5.4,8.5c1.8,0.6,3.2,3.1,4.1,6.7l1.2-1c0-1.8,0-2.6,0.2-4.8l-1.2-0.5
				l1.3-0.7C304.7,185.1,305.1,180.9,305.5,178.8z"/>
		</g>
	</g>
</g>
<g id="Layer_2">
	<g>
		<polygon class="st49" points="755,420.8 787.6,369 99.6,386.8 		"/>
		<polygon class="st50" points="755,420.8 758.8,390.2 99.6,386.8 		"/>
		<path class="st17" d="M2.4,371.6V450l626.1-67.8C413,393.6,2.4,371.6,2.4,371.6z"/>
		<path class="st50" d="M2.4,379.2V450l626.1-65.5C413,395.6,2.4,379.2,2.4,379.2z"/>
		<path class="st47" d="M2.4,400.9V450l626.1-52.1C413,407.6,2.4,400.9,2.4,400.9z"/>
		<path class="st50" d="M148.8,448.1c0,0,8.1-6.9,10.7-7.2c2.6-0.3,15.8,3.6,15.8,3.6L148.8,448.1z"/>
		<path class="st50" d="M2.4,434.5V450H800v-88.5C408.3,391,221.5,425.1,2.4,434.5z"/>
		<path class="st51" d="M365.1,418.8c-154.5,0-289.5,6.9-362.7,17.2v13.2h780C755.4,432,578.9,418.8,365.1,418.8z"/>
		<path class="st17" d="M621.9,445.1c65,0,126-3.4,178.1-9.2v-74.3c-179.5,20.9-313.9,50.4-430.2,69.9
			C433.4,444.2,521.6,445.1,621.9,445.1z"/>
		<g id="camel2">
			<path class="st52" d="M220.4,346.6c-2-6.2,1.6-19.8,2.1-23.2c0.4-3.4,4.1-14.5,8.9-16.6c0,0-7.5,6.3-6.9,17.8
				C225,336.2,220.4,346.6,220.4,346.6z"/>
			<path class="st53" d="M321.4,299.4c-1.4-4.8-0.6-6.1,0.9-6.8c1.6-0.8,2.6,0.8,2.4,2.7C324.5,297.2,322.2,302,321.4,299.4z"/>
			<path id="front-legB" class="st52" d="M292,313.6c3.7,15.2-7.3,42.1-7.1,43.1c0.2,1,2.2,32,2.2,32l-3.9-0.1c0,0,0.6-31,0-33.1
				c-0.6-2.2-4.9-29.5-4.3-34.6C279.8,312.4,289.6,303.8,292,313.6z"/>
			<path id="Back-legB" class="st52" d="M251.6,317.3c0.2-12.9-10.9-17.8-14.3-11.6c-3.4,6.2,2.9,41.8-1.5,50.4
				c0.8,5.6,10.3,31.7,10.3,31.7l3.3,0.1c0,0-11.1-27.7-10.8-31C239.9,344.1,251.3,339.9,251.6,317.3z"/>
			<path class="st53" d="M234.1,324.3c10.5,7.4,38.1,23.3,51.3,8.7c13.2-14.6,5.3-26.7-3.7-29.9c-9.2-3.3-43.7-3.5-49.2,2
				C227.1,310.6,228.8,320.6,234.1,324.3z"/>
			<path class="st54" d="M289.6,309.3c-5.2,5.9-18.2-5.8-32.6-5.8c-11.9,0-21.6,13-27.8,8.7c-0.8,5,0.9,10.5,4.4,13
				c10.5,7.4,38.9,23.5,52.1,9C294.5,324.4,293.8,315.3,289.6,309.3z"/>
			<g id="Back-legA">
				<path class="st53" d="M242.3,315.2c1.3-12.8-10.5-16.3-15.3-2.6c-2.4,6.6,2,34.3-2.4,42.7c0.7,5.6,10,31.5,10,31.5l3.3,0.1
					c0,0-10.9-27.5-10.5-30.9C228.7,343.5,239.5,341.5,242.3,315.2z"/>
				<path class="st54" d="M243.1,315c1.1-10.6-7.6-14.7-13.2-8c3.8,2.8,5.9,11.2,4.8,20.9c-1,8.9-4.4,16.1-8.3,18.7
					c-0.3,3.6-0.8,6.7-1.9,8.7c0.7,5.6,10,31.5,10,31.5l3.3,0.1c0,0-10.9-27.5-10.5-30.9C228.7,343.5,240.3,341.4,243.1,315z"/>
			</g>
			<path class="st55" d="M329.8,308.9c4.8,1.6,15.7,3,14.9,0.3C343.8,306.5,327.3,308.1,329.8,308.9z"/>
			<path class="st53" d="M286.4,306.2c5.5,6.1,21.2,13.1,25.8,7.2c4.6-5.9,5.8-9.2,6.7-9.2c0.8,0,6.7,1.2,6.4,5.4
				c-0.2,4.3-6.9,18.6-18.8,21.1c-12.5,2.6-25.4-2.8-25.4-2.8L286.4,306.2z"/>
			<path class="st54" d="M319.4,304.2c0,0.5,0.1,1.1,0.1,1.6c0,9.7-7.8,17.5-17.4,17.5c-8,0-16.1-4.7-18.1-12.2l-2.9,16.6
				c0,0,12.8,5.5,25.4,2.8c11.9-2.5,18.6-16.8,18.8-21.1C325.5,305.9,321.1,304.5,319.4,304.2z"/>
			<path class="st53" d="M320.5,314c3.4,0.2,10-2.9,11.5-4.8c3-3.7,11.6,0.1,13.1-0.7c1.5-0.8,0.4-5.2-2-5.6
				c-5.7-0.8-10.6-2.5-12.3-4.3c-1.1-1.2-8.8-2.6-10.7-0.9C318.1,299.5,314.3,313.7,320.5,314z"/>
			<path class="st54" d="M328.4,300c-0.6-2.1-9.5,0.8-8.2-2.3c-0.1,0-0.1,0.1-0.2,0.1c-1.9,1.7-6.3,16.6-0.1,16.9
				c3.4,0.2,10.8-3.3,12.1-5.3c1.9-2.9,11.6,0,13.1-0.8c0.4-0.2,0.5-0.9,0.6-1.5C339.3,308.5,328.6,303,328.4,300z"/>
			<path class="st54" d="M318.8,300.6c-4.6-1.9-4.7-3.4-3.7-5.1c1-1.8,3.1-1.7,4.2-0.2C320.4,296.7,321.4,301.7,318.8,300.6z"/>
			<path class="st56" d="M318.2,299.7c-3-1.2-3-2.2-2.4-3.3c0.6-1.1,2-1.1,2.7-0.2C319.2,297.2,319.9,300.4,318.2,299.7z"/>
			<g id="frontlegA">
				<path class="st53" d="M286.2,315.7c3.7,15.2-9.2,40-9,41c0.2,1,2.2,32,2.2,32l-3.9-0.1c0,0,0.6-31,0-33.1
					c-0.6-2.2-4.9-29.5-4.3-34.6C272.2,312.4,283.9,305.8,286.2,315.7z"/>
				<g>
					<path class="st54" d="M277.5,355.8c-0.8-0.1-1.5-0.4-2.2-1.1c0.1,0.4,0.1,0.6,0.2,0.8c0.6,2.2,0,33.1,0,33.1l3.9,0.1
						c0,0-2-31.1-2.2-32C277.3,356.6,277.3,356.3,277.5,355.8z"/>
				</g>
			</g>
			<path class="st54" d="M278.5,327.8c3.2,0,5,3.6,5.3,11.1c2.7-7.3,5.1-18,3.5-24.8c-2.4-9.8-16.4-1.9-17.4,6.5
				c-0.2,2,1.5,7.4,2.2,13.3C273.2,329,276.1,327.8,278.5,327.8z"/>
			<path class="st53" d="M242.1,304.1c2.7-4.9,15.3-22.7,20.6-23.3c5.5-0.5,18.1,21.8,18.9,24.7c0.4,1.5-10.7,15.9-21.2,16.1
				C249.9,321.9,239.9,308,242.1,304.1z"/>
			<g>
				<path class="st54" d="M240.9,304.5c-1.4,2.7,3.2,4,9.8,4.6c-1.8-4.7-3.2-9.8-4-12.1C244.6,299.9,241.7,303,240.9,304.5z"/>
				<path class="st54" d="M282.9,306c-0.4-1.5-5.3-8.6-9.4-14.6c-0.3,4-2.3,11.4-5.3,17.6C276.5,308.3,283.2,307.1,282.9,306z"/>
			</g>
			<path class="st57" d="M274.4,297c0,0.5,0.4,0.9,0.9,0.9c0.5,0,0.9-0.4,0.9-0.9c0-0.5-0.4-0.9-0.9-0.9
				C274.8,296,274.4,296.5,274.4,297z"/>
			<path class="st57" d="M275.3,297.9c-4.4-0.7-10.1,1.4-10.3,2.9l18.3,1.4C283.2,300.7,279.7,298.5,275.3,297.9z"/>
			<path class="st57" d="M243.3,296.7c0.1,0.5,0.7,0.8,1.2,0.7c0.5-0.1,0.8-0.7,0.7-1.2c-0.1-0.5-0.7-0.8-1.2-0.7
				C243.5,295.7,243.2,296.2,243.3,296.7z"/>
			<path class="st57" d="M244.4,297.3c-4.5,0.5-9.6,4-9.4,5.5l18.1-3.5C252.8,298,248.9,296.8,244.4,297.3z"/>
			<path class="st54" d="M259.7,331.5c2.2-9-6.1-32.5-6.1-32.5l-8.3,15.9L259.7,331.5z"/>
			<path class="st54" d="M265.1,332.6c-5.1-8.5-0.4-32.4-0.4-32.4l15.4,13.5L265.1,332.6z"/>
			<g>
				<path class="st58" d="M264.7,300.3c3.3-1.5,16.7-0.3,19.5,1.7c1.6,1.1-3,25.5-11.4,24.9C261.3,326.1,264.7,300.3,264.7,300.3z"
					/>
				<path class="st57" d="M284.3,302c-0.8-0.6-2.6-1.1-4.7-1.5c-1.2,7.6-4.4,18.9-8.4,18.6c-5.3-0.3-5.8-11.4-5.5-19.1
					c-0.4,0.1-0.7,0.2-1,0.3c0,0-3.4,25.8,8.1,26.6C281.3,327.5,285.8,303.1,284.3,302z"/>
				<g>
					<path class="st59" d="M284.4,306.1c0.1-0.4,0.1-0.8,0.1-1.1c-5-1.4-14.8-2.5-20-2.1c0,0.3,0,0.6-0.1,1
						C270.2,303.7,279.4,304.7,284.4,306.1z"/>
				</g>
				<g>
					<path class="st59" d="M284.1,309.1c0.1-0.4,0.1-0.8,0.1-1.1c-4.9-1.4-14.7-2.5-19.9-2.1c0,0.3,0,0.6-0.1,1
						C269.9,306.7,279.1,307.7,284.1,309.1z"/>
				</g>
			</g>
			<path class="st58" d="M234.4,302.8c2.7-2.4,15.9-5,19.2-3.9c0.9,1.9,4.3,25.3-4,27.1C238.4,328.5,234.4,302.8,234.4,302.8z"/>
			<path class="st54" d="M342.8,303.8c-1.2-0.6-2.6,0.8-2.8,1c-0.2,0.2,4.5,1.4,4.7,1.2C344.9,305.8,343.4,304.1,342.8,303.8z"/>
			<path class="st57" d="M253.6,298.9c-0.2-0.1-0.4-0.1-0.7-0.2c1,7.5,1.7,20.5-3.2,21.5c-6.6,1.5-10.6-11.8-12.2-19.1
				c-1.4,0.5-2.5,1-3.1,1.6c0,0,4,25.7,15.3,23.3C257.9,324.3,254.5,300.9,253.6,298.9z"/>
			<g>
				<path class="st59" d="M254.6,304.2c0-0.4-0.1-0.9-0.1-1.2c-5.3,0-14.8,1.9-19.3,3.7c0.1,0.3,0.2,0.6,0.3,1
					C240.4,305.9,249.3,304.2,254.6,304.2z"/>
			</g>
			<g>
				<path class="st59" d="M254.9,307.4c0-0.4-0.1-0.8-0.1-1.2c-5.2-0.1-14.5,1.6-18.9,3.4c0.1,0.3,0.2,0.6,0.2,0.9
					C241.1,308.9,249.7,307.4,254.9,307.4z"/>
			</g>
			<path class="st60" d="M325.1,301.9c0,1.2,0.2,2.2,1.4,2c1.2-0.2,0.8-2.2,0.8-2.2L325.1,301.9z"/>
			<path class="st53" d="M326.6,300.6c-1.5-0.3-2.8,1.4-3,1.6c-0.2,0.2,5.4,0.3,5.6,0C329.4,302.1,327.3,300.8,326.6,300.6z"/>
			<polygon class="st59" points="338.8,301.4 337.1,301.3 336.3,310.6 338.8,310.7 			"/>
			<path class="st47" d="M210,385.2c9,2.4,27,4.5,47.8,5.2c21.2,0.8,39.5-0.1,48.3-1.9C274.6,387.6,242.5,386.4,210,385.2z"/>
		</g>
		<g id="man">
			<path class="st61" d="M514.2,389.4c6.2,0.6,19.7,2,26.7-4.9l-3.5-5.9L514.2,389.4z"/>
			<g id="man-leg1">
				<polygon class="st62" points="538.2,373.5 541.2,391.2 540.7,391.2 535.6,375.8 				"/>
				<path class="st63" d="M541.3,390.4l-0.9,0.4l0.1,1.2c3,0.4,4.9-2.7,4.9-2.7C543.7,390.5,541.3,390.4,541.3,390.4z"/>
			</g>
			<g id="man-leg2">
				<polygon class="st62" points="521.7,374.8 514.5,391.2 514.1,390.9 518.2,375.3 				"/>
				<path class="st64" d="M515,390.6l-1-0.2l-0.6,1.1c2.3,2,5.5,0.4,5.5,0.4C516.9,391.9,515,390.6,515,390.6z"/>
			</g>
			<path class="st63" d="M513.7,389.4c8.4,1,24.9-2.9,27.2-4.9c0,0-6.8-62.4-11.3-60.6C520.6,327.6,513.7,389.4,513.7,389.4z"/>
			<path class="st64" d="M529.8,361.7c-1-15.1-2.2-30-3-29.7c-9,3.5-13,57.4-13,57.4c5.3,0.7,13.8-0.7,20-2.2
				C531.9,380.6,530.5,371.6,529.8,361.7z"/>
			<path class="st65" d="M524.4,345c-2.7,4.1-6.7,13.3-6.7,13.3s1.6-16.8,5.2-20.9c1.1-1.3,4.7-2.5,4.9-1.6
				C528.2,337.8,524.4,345,524.4,345z"/>
			<path class="st63" d="M523,338.4c-6.7,8.3-1.8-15.4,1.5-19c3.3-3.6,8.1-3.5,9.6-2.5c1.9,1.3,0.9,17.8-0.4,16.6L523,338.4z"/>
			<path class="st64" d="M529.1,326.5c0-4.4,1-8.1,2.6-10.2c-2.1-0.1-5,0.6-7.2,3.1c-3.3,3.6-8.2,27.3-1.5,19l7.6-3.5
				C529.7,332.7,529.1,329.8,529.1,326.5z"/>
			<path class="st65" d="M521.5,336c-1-0.7,0.2-8.9,3.4-17c-0.1,0.1-0.3,0.2-0.4,0.4c-1.8,2-4.6,10.5-5.1,16.1
				c-0.4,4.2,0.7,6.9,3.6,3.3l7.6-3.9c0,0,0,0,0-0.1C527.6,335.5,522.2,336.6,521.5,336z"/>
			<path class="st64" d="M534,329.8c0.4-4,0.2-10.7-0.6-10.7c-0.8-0.1-1.8,6.5-2.2,10.5c-0.4,4,0,4,0.8,4
				C532.8,333.6,533.6,333.8,534,329.8z"/>
			<path class="st65" d="M533.4,323.2c0.3,0,0.5,0.1,0.8,0.1c-0.1-2.4-0.3-4.2-0.7-4.3c-0.4,0-1,2-1.4,4.6
				C532.5,323.3,532.9,323.2,533.4,323.2z"/>
			<path class="st62" d="M533.1,327.9c0.2-2.7-0.1-5.1-0.8-6c-0.5,2.2-0.9,5.3-1.1,7.6c-0.3,3.5-0.1,3.9,0.5,4
				C532.4,332.4,533,330.4,533.1,327.9z"/>
			<path class="st62" d="M530.4,365.7c0.8,1.2,2.4,2.7,3,2.3c0.6-0.5,1.1-1.4,0.9-1.8s-1.8-1.6-1.8-1.6L530.4,365.7z"/>
			<path class="st63" d="M529.2,339.7c0.4,7.6,4.4,20.8,5.1,22.1c0.7,1.3-6.2,6.9-7.5,7.4c-1.3,0.6-4.3-18.9-3.6-25.7
				C524,337,528.9,332.3,529.2,339.7z"/>
			<path class="st64" d="M529,340.1c0.4,7.6,4.4,20.8,5.1,22.1c0.1,0.2,0.1,0.4-0.1,0.7c0.3-0.5,0.5-0.9,0.4-1.2
				c-0.7-1.3-4.8-14.5-5.1-22.1c-0.3-5.2-2.8-4.4-4.5-1.2C526.4,335.7,528.7,335.1,529,340.1z"/>
			<path class="st65" d="M526,350.4c-0.9-5-1.2-9.4-0.9-12.6c-0.9,1.4-1.8,3.1-2.1,5.4c-0.8,6.9,2.3,26.8,3.6,26.2
				c0.6-0.3,2.9-2,4.7-3.7C529.2,362.4,527.2,356.8,526,350.4z"/>
			<path class="st63" d="M529.4,334.2c-1.2-2.7-0.8-9.7,2.1-17.7c0,0-4.4,7.1-4.4,11.6C527.1,332,529.4,334.2,529.4,334.2z"/>
			<path class="st64" d="M532.8,374.1c0.1,4,2.4,12.7,2.4,12.7l1.9-0.7C535.1,382.8,532.8,374.1,532.8,374.1z"/>
			<path class="st47" d="M493.3,392.1c5.9,2.1,17.6,3.5,31.2,3.5c13.9,0,25.8-1.5,31.6-3.6C535.5,392.2,514.5,392.2,493.3,392.1z"/>
		</g>
		<g id="camel1">
			<path class="st66" d="M473.7,306.9c-0.3-1.7-1.7-2.5-2.8-1.2c-1.2,1.3-1.5,2.7,1.1,6.1C473.3,313.7,474,308.6,473.7,306.9z"/>
			<path class="st67" d="M364.5,342c0.4-6.5,8.8-17.8,10.5-20.9c1.7-3,9.2-12,14.4-12.1c0,0-9.3,3.1-13,14.1
				C372.7,334,364.5,342,364.5,342z"/>
			<path class="st66" d="M486.7,313.8c-1-0.8,4.3-1.9,5.8-2s4.4,3,2.9,3.6C494,316,487.4,314.3,486.7,313.8z"/>
			<path id="back-leg2" class="st68" d="M406.9,322.7c1.5-12.8-8.9-18.9-12.9-13.1c-4,5.8-1.7,41.9-6.9,49.9
				c0.1,5.6,6.8,32.6,6.8,32.6l3.3,0.5c0,0-8.1-28.7-7.4-32C392.4,348.2,404.2,345.3,406.9,322.7z"/>
			<path id="front-leg2" class="st68" d="M443.1,319.7c5.7,15.3-3.1,41.5-2.8,42.5c0.3,1,5.2,31.9,5.2,31.9l-3.5-0.2
				c0,0-2.9-30.7-3.7-32.9c-0.9-2.2-8.6-29.5-8.6-34.6C429.8,318,439.4,309.8,443.1,319.7z"/>
			<path class="st66" d="M385.6,330.3c10.7,7.1,39.5,22.6,52.3,7.7c12.8-14.9-0.5-28.9-9.5-31.9c-9.3-3.1-39-1.4-44.4,4.2
				C378.8,315.9,380.2,326.7,385.6,330.3z"/>
			<path class="st67" d="M438.9,313.6c-0.8,1.5-1.8,2.9-3.1,4.4c-12.7,14.7-41-0.2-51.9-7.4c-5,5.7-4,16.8,1.3,20.4
				c10.7,7.1,40.3,23.8,53.1,8.9C446.3,330.6,443.8,319.8,438.9,313.6z"/>
			<g id="back-leg1">
				<path class="st66" d="M394,319.4c3.5-13-7.7-16.2-14.9-2.2c-3.5,6.8-0.1,32.6-6,41.3c-0.3,5.6,0.8,33.7,0.8,33.7l3.3,0
					c0,0-2.4-29.6-1.5-33C379.4,346.4,386.8,346.1,394,319.4z"/>
				<path class="st67" d="M394,319.4c3-10.9-4.5-14.9-11.2-7.6c3.4,1.8,3.9,11.7,1.2,22.8c-2.1,8.4-5.5,15.2-8.6,18.2
					c-0.5,2.3-1.3,4.2-2.3,5.7c-0.3,5.6,0.8,33.7,0.8,33.7l3.3,0c0,0-2.4-29.6-1.5-33C379.4,346.4,386.8,346.1,394,319.4z"/>
			</g>
			<path class="st66" d="M437,311.5c2.5,2.4,16.4,19,26.4,13.4c6.6-3.6,4.7-12.1,5.5-11.9c0.8,0.2,9.5,7.5,8.2,11.6
				c-1.3,4.1-12.1,13.9-24.2,13.3c-12.8-0.7-23.1-6.9-23.1-6.9L437,311.5z"/>
			<path class="st67" d="M468.9,312.8c0.8,11.6-3.9,17.5-12,17.5c-10.9,0-19.8-8.2-19.8-18.2c0-0.1,0-0.3,0-0.4
				c0-0.1-0.1-0.1-0.1-0.2l-7.3,19.5c0,0,10.2,7.3,22.9,8c12.1,0.6,23.1-10.3,24.4-14.3C477.8,322.4,470.4,314,468.9,312.8z"/>
			<path class="st69" d="M481.2,321.1c5,0.9,15.2-0.3,14-2.8C494.1,315.8,478.7,320.6,481.2,321.1z"/>
			<path class="st66" d="M472.8,325c3.4-0.2,8.8-3.1,9.9-5.2c0.4-0.7,12-0.5,13.3-1.5c1.3-1-0.3-5.2-2.7-5.3
				c-5.8-0.1-10.9-1.1-12.7-2.7c-1.2-1-9.1-1.4-10.8,0.5C468.1,312.8,466.6,325.5,472.8,325z"/>
			<path class="st67" d="M495.9,315.1c-5,3-18.6,0-12.4-3.3c-1.2-0.4-2.2-0.8-2.9-1.3c-0.9,1.4-3.5,1-7.2,1c-1.4,0-3-1.8-4.4,1
				c-1.4,4.3-2,14.9,3.2,14.5c3.4-0.2,9.7-4.1,10.8-6.2c0.4-0.7,11.6-1.4,12.9-2.4C496.7,317.8,496.5,316.3,495.9,315.1z"/>
			<path class="st67" d="M469.3,313.5c-4.8-1.3-5.1-2.7-4.4-4.6c0.8-1.9,2.8-2,4.1-0.8C470.3,309.4,472,314.2,469.3,313.5z"/>
			<path class="st70" d="M468.8,312.5c-2.9-0.8-3.1-1.6-2.6-2.8c0.5-1.1,1.7-1.2,2.5-0.5C469.4,310.1,470.4,313,468.8,312.5z"/>
			<g id="front-leg1">
				<path class="st66" d="M436.1,317.4c4,15.1-6.2,42.3-6,43.2c0.2,1,3,32,3,32l-3.9,0c0,0-0.2-31-0.8-33.1
					c-0.6-2.1-5.7-29.3-5.2-34.5C423.9,316.6,433.5,307.7,436.1,317.4z"/>
				<g>
					<path class="st67" d="M430.4,359.3c-0.5,1.1-1.2,2.1-1.9,2.7c0.4,7.8,0.6,30.6,0.6,30.6l3.9,0c0,0-2.8-31-3-32
						C430.1,360.6,430.2,360.1,430.4,359.3z"/>
					<path class="st67" d="M432.4,348.7c0,1.8-0.2,3.6-0.4,5.2c2.7-9.2,7.7-26.8,4.9-37.5c-2.6-9.8-14.7-0.1-15.5,8.4
						c-0.2,1.7,2.6,11.6,3.3,16.3C428.6,337.3,432.4,338.5,432.4,348.7z"/>
				</g>
			</g>
			<path class="st66" d="M391.5,310.7c2.6-5.1,14.4-22.3,20.1-22.8c5.7-0.5,17.1,19.5,18.5,22.1
				C431.3,312.7,387.2,319.3,391.5,310.7z"/>
			<path class="st47" d="M361.2,390.4c8.8,2.2,26.5,3.9,47,4.2c20.8,0.3,38.8-0.9,47.5-2.9C424.7,391.4,393.1,391,361.2,390.4z"/>
			<path class="st67" d="M414,331c0.1-11.8-7.3-24.9-7.3-24.9l-6.7,12.7L414,331z"/>
			<path class="st67" d="M415.6,335.6c-1.7-11.6,1.4-25.8,1.4-25.8l6.2,11.1L415.6,335.6z"/>
			<path class="st16" d="M426.9,306.1c0,0.6,0.5,1.1,1.1,1.1c0.6,0,1.1-0.5,1.1-1.1c0-0.6-0.5-1.1-1.1-1.1
				C427.4,305,426.9,305.5,426.9,306.1z"/>
			<path class="st16" d="M436.3,311.8c0-1.4-3.2-4-8.3-4.5c-5.1-0.6-10.2,1-10.2,2.4c0,1.4,4.1,3,9.3,3.6
				C432.2,313.9,436.3,313.2,436.3,311.8z"/>
			<path class="st71" d="M433.5,308.9c-0.7,0.4-4.1,0.4-6.8,0.2c-2.4-0.2-6-0.3-6-1.2c-1.7,0.5-2.8,1.2-2.8,1.9c0,1.4,4.1,3,9.3,3.6
				c5.1,0.6,9.3-0.1,9.3-1.5C436.3,311,435.3,309.9,433.5,308.9z"/>
			<path class="st16" d="M417.1,309.8c3.3-1.5,16.7-0.3,19.5,1.7c1.6,1.1-3,25.5-11.4,24.9C413.6,335.6,417.1,309.8,417.1,309.8z"/>
			<path class="st72" d="M419,310.1c0,0,0,0.1,0,0.3c0.2,3.8,2.6,6.8,5.5,6.8c3,0,5.4-3.1,5.5-7C426.1,309.6,420.8,309.4,419,310.1z
				"/>
			<path class="st71" d="M436.6,311.5c-0.5-0.3-1.2-0.6-2.2-0.9c-1.1,7.4-4.8,23.1-9.9,22.8c-6.8-0.4-7.1-16.3-6.7-23.9
				c-0.3,0.1-0.5,0.2-0.7,0.2c0,0-3.4,25.8,8.1,26.6C433.6,337,438.2,312.6,436.6,311.5z"/>
			<path class="st67" d="M488.7,314c-0.7-0.3,2.4-1.1,3.3-1.2c0.9-0.1,3,1.2,2.2,1.5C493.4,314.7,489.2,314.2,488.7,314z"/>
			<g>
				<path class="st73" d="M511.2,376.5c-2.8,0-5.4-0.6-7.8-1.8c-16.1-8.5-15.8-43.9-15.7-57.3c0-1.8,0-3.2,0-4.2l0.4,0
					c0,0.9,0,2.4,0,4.2c-0.1,13.3-0.4,48.6,15.5,56.9c7.3,3.9,17.3,1.5,29.5-7l0.2,0.3C524.8,373.5,517.4,376.5,511.2,376.5z"/>
			</g>
			<path class="st74" d="M475.9,315.4c0.2,1.4,0.9,2.6,1.9,2.3c1.6-0.5,0.8-2.9,0.8-2.9L475.9,315.4z"/>
			<path class="st66" d="M480.2,314.6c-1.2,1.2-6.3,2.6-6.6,1.9c-0.3-0.6,1.9-3.2,2.9-3.4C477.4,313,481.1,313.8,480.2,314.6z"/>
			<polygon class="st63" points="488.3,312.4 486.7,312.4 486.6,321.8 489.1,321.6 			"/>
			<path class="st59" d="M427.7,312.4c-0.8,38.6-27.5,49-43.4,49c-34.3,0-46.4-28.1-46.4-52.2h-0.4c0,24.3,12.3,52.6,46.8,52.6
				c16,0,43-10.5,43.8-49.4H427.7z"/>
			<path class="st59" d="M436.8,315c0.1-0.6,0.1-1.1,0.1-1.6c-4.4-1.5-14.8-2.6-20-2.1c0,0.4-0.1,0.9-0.1,1.5
				C422.6,312.8,431.7,313.8,436.8,315z"/>
			<g>
				<path class="st75" d="M417.9,311.3c-0.4,0-0.7,0-1,0.1c0,0.4-0.1,0.9-0.1,1.5c0.4,0,0.9,0,1.3,0
					C418,312.4,417.9,311.8,417.9,311.3z"/>
				<path class="st75" d="M434.4,312.8c-0.1,0.6-0.2,1.1-0.4,1.7c1,0.2,2,0.4,2.8,0.6c0.1-0.6,0.1-1.1,0.1-1.6
					C436.2,313.2,435.4,313,434.4,312.8z"/>
			</g>
			<g>
				<path class="st16" d="M396.3,303.7c0.2,0.6,0.8,0.9,1.3,0.8c0.6-0.2,0.9-0.8,0.8-1.3c-0.2-0.6-0.8-0.9-1.3-0.8
					C396.5,302.5,396.1,303.1,396.3,303.7z"/>
				<path class="st16" d="M406.8,306.8c-0.4-1.4-4.1-3-9.2-2.3c-5.1,0.7-9.6,3.6-9.2,4.9c0.4,1.4,4.8,1.9,9.9,1.2
					C403.3,309.8,407.2,308.1,406.8,306.8z"/>
				<path class="st71" d="M403.4,304.7c-0.6,0.6-3.8,1.4-6.6,1.9c-2.4,0.4-5.9,1.2-6.2,0.3c-1.5,0.9-2.4,1.9-2.3,2.5
					c0.4,1.4,4.8,1.9,9.9,1.2c5.1-0.7,8.9-2.4,8.6-3.8C406.6,306,405.3,305.2,403.4,304.7z"/>
				<path class="st16" d="M387.7,309.7c2.8-2.3,16.1-4.5,19.3-3.3c1.8,0.7,3.5,25.4-4.8,27C390.9,335.6,387.7,309.7,387.7,309.7z"/>
				<path class="st72" d="M389.7,309.6c0,0,0,0.1,0,0.3c1.1,3.6,4.2,6,7.1,5.2c2.9-0.8,4.5-4.4,3.6-8.2
					C396.4,307.2,391.1,308.4,389.7,309.6z"/>
				<path class="st71" d="M407,306.4c-0.5-0.2-1.4-0.3-2.3-0.3c0.8,7.5,1.2,23.6-3.8,24.6c-6.7,1.3-11-13.9-12.5-21.4
					c-0.2,0.1-0.5,0.3-0.6,0.4c0,0,3.2,25.8,14.6,23.7C410.5,331.9,408.8,307.1,407,306.4z"/>
				<path class="st59" d="M408.1,309.8c-0.1-0.6-0.2-1.1-0.3-1.5c-4.6-0.4-15,1.2-19.9,3c0.1,0.4,0.2,0.9,0.3,1.5
					C393.8,311.2,402.8,309.9,408.1,309.8z"/>
				<g>
					<path class="st75" d="M388.9,310.9c-0.3,0.1-0.7,0.2-1,0.3c0.1,0.4,0.2,0.9,0.3,1.5c0.4-0.1,0.8-0.2,1.3-0.3
						C389.2,312,389,311.5,388.9,310.9z"/>
					<path class="st75" d="M405.2,308.2c0,0.6,0,1.2,0,1.7c1-0.1,2-0.1,2.8-0.1c-0.1-0.6-0.2-1.1-0.3-1.5
						C407.1,308.2,406.2,308.2,405.2,308.2z"/>
				</g>
			</g>
		</g>
	</g>
</g>
</svg>
