<?xml version="1.0" encoding="utf-8"?>
<!-- Generator: Adobe Illustrator 22.0.1, SVG Export Plug-In . SVG Version: 6.00 Build 0)  -->
<svg version="1.1" xmlns="http://www.w3.org/2000/svg" xmlns:xlink="http://www.w3.org/1999/xlink" x="0px" y="0px" height="450px" width="800px"
	 viewBox="0 0 800 450" style="enable-background:new 0 0 800 450;" xml:space="preserve">
<style type="text/css">
	.st0{fill:#BCF5F7;}
	.st1{fill:#91EBF2;}
	.st2{fill:#FFFFFF;}
	.st3{fill:#FFC340;}
	.st4{fill:#008C97;}
	.st5{fill:#DCFFFF;}
	.st6{fill:#32CC91;}
	.st7{fill:#25B782;}
	.st8{fill:#3DD8A0;}
	.st9{fill:#006F7A;}
	.st10{fill:#1DAA82;}
	.st11{fill:#94F0FF;}
	.st12{fill:#63E4EA;}
	.st13{fill:#129B77;}
	.st14{fill:#77EDBA;}
	.st15{fill:#025773;}
	.st16{fill:#0057B5;}
	.st17{fill:#EDA30F;}
	.st18{fill:#E2950C;}
	.st19{fill:#52EFB2;}
	.st20{fill:#007787;}
	.st21{fill:#00937E;}
	.st22{fill:#009687;}
	.st23{fill:#02A591;}
	#birds{
	animation : fly 20s ease-in-out infinite
	}
	@keyframes fly{
	0%{
	transform : translateX(0px)
	}
	80%{
	transform : translateX(-850px)
	}
	100%{
	transform : translateX(-1850px)
	}
	}
	#sun{
	animation : rise 20s ease-in-out infinite
	}
	@keyframes rise{
	0%{
	transform : translateY(0px)
	}
	50%,60%{
	transform : translateY(100px)
	}
	80%,100%{
	transform : translateY(250px)
	}
	}
	#clouds{
	/*animation : pass 20s ease-in-out infinite;
	animation-fill-mode : forwards*/
	transform : translateX(-750px)
	}
	/*@keyframes pass{
     0%{
     transform : translateX(0)
     }
     100%{
     transform : translateX(-1400px)
     }
	}*/
	#wings{
	animation : spin 2s linear infinite;
	transform-origin : 50%;
	transform-box : fill-box
	}
	@keyframes spin{
	0%{
	transform : rotate(0)
	}
	100%{
	transform : rotate(360deg)
	}
	}
    #sky{
     animation : filly 20s ease-in-out infinite
	}
	@keyframes filly{
	0%,60%{
	fill : #BCF5F7
	}
	70%,80%{
	fill : #C2CCCC
	}
    85%,100%{
    fill : #000000
    }
	}
    #sky1{
    animation : filly1 20s ease-in-out infinite
    }
    @keyframes filly1{
	0%,60%{
	fill : #91EBF2
	}
	70%,80%{
	fill : #A2AAAA
	}
    85%,100%{
    fill : #000000
    }
	}
</style>
<g id="BACKGROUND">
</g>
<g id="OBJECTS">
	<g>
		<rect id="sky" class="st0" width="800" height="284"/>
		<g>
			<g>
				<path class="st1" id="sky1" d="M800,102c0,0.2-0.1,0.4-0.1,0.6c-0.2,1.4-2,2.1-3.4,1.5c-1.5-0.7-3.3-1-5.1-1c-4.1,0-7.7,1.8-9.7,4.6
					c-1,1.4-3.1,1.6-4.5,0.5c-3.2-2.6-7.5-4.2-12.3-4.2c-7.6,0-14.1,4-16.6,9.7c-0.1,0.2-0.2,0.5-0.3,0.8c-0.8,2.9-4,4.9-7.4,4.5
					c-0.7-0.1-1.3-0.1-1.9-0.1c-13.1,0-23.7,8.9-23.7,19.9v0c0,1.6-1.7,2.8-3.6,2.6c-0.9-0.1-1.8-0.2-2.8-0.2
					c-5.7,0-10.7,2.3-14,5.8c-1.8,1.9-5.1,2.2-7.4,0.8c-7.1-4.4-15.8-6.9-25.3-6.9c-11.4,0-21.7,3.7-29.4,9.8
					c-1.2,0.9-3.1,0.2-3.1-1.1c0-12.3-11.9-22.3-26.6-22.3c-2,0-4,0.2-5.9,0.5c-4.6,0.9-9.4-0.3-12.4-3.4
					c-10.3-10.6-26-17.4-43.6-17.4c-25.8,0-47.5,14.7-54.2,34.6c-0.9,2.6-3.9,4.4-7.2,4.1c-0.7-0.1-1.4-0.1-2.2-0.1
					c-11.5,0-21.2,6.5-24.3,15.4c0,0,0,0,0,0c-4-16.3-21.2-28.5-41.8-28.5c-3.8,0-7.5,0.4-10.9,1.2c-3.7,0.8-7.5-0.3-9.8-2.8
					c-4.1-4.6-10.7-7.6-18.1-7.6c-7.6,0-14.4,3.2-18.5,8c-1.9,2.3-5.3,3.3-8.6,2.9c-1.4-0.2-2.9-0.3-4.4-0.3
					c-8.5,0-16.1,3.1-21.2,8.1c-2.3,2.2-6,2.9-9.1,1.7c-2.2-0.9-4.6-1.7-7-2.4c-3-0.8-4.6-3.6-3.9-6.2c0.3-1.1,0.5-2.3,0.5-3.6
					c0-8.2-7.9-14.8-17.7-14.8c-1.9,0-3.8,0.3-5.5,0.7c-3.2,0.9-6.6-0.1-8.6-2.4c-8.8-10.3-23.2-17-39.4-17
					c-16.9,0-31.7,7.3-40.4,18.3c-2.4,3.1-7.1,4.5-11.3,3.3c-5.5-1.5-11.3-2.3-17.4-2.3c-11.7,0-22.6,3-31.7,8.2
					c-1.7,1-4,0.7-5.3-0.5c-2.3-2.3-5.8-3.7-9.7-3.7c-4.8,0-9,2.2-11.2,5.5c-0.9,1.4-2.9,2.1-4.7,1.7c-2.1-0.4-4.3-0.7-6.5-0.7
					c-1.7,0-3.4,0.1-5,0.4c-2.2,0.3-4.3-0.8-4.9-2.6c-2.6-7.6-11.1-13.2-21.1-13.2c-0.1,0-0.3,0-0.4,0c-2.3,0-4.2-1.6-3.8-3.6
					c0.2-1,0.3-2.1,0.3-3.2c0-11.1-10.8-20.1-24-20.1c-13.3,0-24,9-24,20.1c0,0.3,0,0.5,0,0.8c-2.8,0.5-5.6,1.1-8.2,2v118.8h800V102
					z M99.9,176.7c0-0.1,0-0.2,0-0.3c0-0.2,0-0.3,0-0.4c0.6,0.1,1.2,0.2,1.8,0.3C101.1,176.4,100.5,176.5,99.9,176.7z"/>
				<path class="st2" d="M247.8,216.1c-3.5-5.4-15.1-9-22.7-7.7c-0.8,0.1-1.6,0.3-2.3,0.5c-2.8,0.9-5.9,0.1-7.7-2
					c-6.7-7.8-18-12.3-29.8-11.3c-1.5,0.1-3,0.2-4.6,0.5c-5.4,0.9-10.2,3.1-14,6c-2,1.5-5.2,1.3-6.9-0.5
					c-10-10.2-26.2-15.6-42.6-12.7c-2.7,0.5-3.3,0.5-5.8,1.4c-3.5,0.8-4.7-2.3-5.2-3.1c-2.7-4.8-9-7.6-15.5-6.5
					c-1,0.2-2,0.4-2.9,0.8c-2.4,0.9-5.2,0.4-6.8-1.3c-9.4-10.2-25.1-15.6-41.1-12.8c-13.4,2.3-24,9.9-29.3,19.6
					c-1.2,2.3-4.7,2.8-6.7,1c-1.2-1-2.6-1.9-4.1-2.6v111.5C122.1,285.8,315.7,301.7,247.8,216.1z"/>
				<path class="st2" d="M800,174.1c-7.4-1.3-14.8,0.2-20.6,3.8c-2.3,1.5-5.5,1.4-7.9,0c-2.2-1.3-4.7-2.4-7.5-3.1
					c-15.8-4.4-32.9,2.8-38.2,16.2c-0.5,1.2-0.8,2.4-1.1,3.5c-0.2,1.1-1.4,2-2.8,1.9c-4.3-0.1-8.5,0.6-12.4,2
					c-3.2,1.2-7,0.3-8.8-2.2c-4.3-5.9-10.9-10.5-19.2-12.8c-16-4.5-33.1,1.1-41.8,12.7c-1.1,1.5-3.4,1.9-5.2,0.9
					c-1.2-0.6-2.4-1.1-3.8-1.5c-7.1-2-14.5-0.1-19.2,4.3c-0.9,0.8-1.6,1.7-2.2,2.5c-1.2,1.8-3.8,2.6-6,1.8
					c-4.1-1.4-10.5-2.3-15.8,2.4c-1.5,1.8-3.9,2.8-6.4,2.6c-20-1.5-29.8,17.3-29.8,17.3L800,319.3V174.1z"/>
			</g>
			<ellipse id="sun" class="st3" cx="675.5" cy="-21.6" rx="20.4" ry="17.2"/>
			<g id="birds">
				<path class="st4" d="M808.6,166.5c0,0,1.3-0.4,3.3-0.9c0,0,0-1.3,0.9-2.1c0.9-0.8,1.2-2.2,1.6-2.2c0.4-0.1,1.1,1.1,0.6,1.8
					c-0.5,0.7-0.8,1.2-0.7,2.1c0,0,1.8-0.2,2.3,0.4c0,0,0.6,0.2,0.6,0.4c0,0-0.5-0.1-0.7-0.1c-0.2,0-0.4,0.2-0.8,0.3
					c-0.4,0.1-2.5,0.5-2.5,0.5s0,2.3-0.7,3.3c-0.7,1-0.6,1.4-0.9,1.4c-0.3,0-0.6-0.7-0.5-1.5c0.2-0.8,0.1-2.7,0-2.9
					C810.9,166.8,808.9,167.2,808.6,166.5z"/>
				
			</g>
			<g id="clouds">
				<g>
					<g>
						<path class="st2" d="M803.6,76.1h256c-10.2-12.8-19.8-5.4-30.7-8.9c-9.9-3.2-11.6-15.7-31.6-11c-3,0.7-6.4,0.3-8.6-1.7
							c-12.8-12.1-36.4-13.2-46.5-0.9c-1.6,1.9-4.3,1.9-6,0.2c-19.2-20.5-60.7-14.4-66.8,7.5c-0.5,2.1-2.5,2.7-5,1.7
							c-3.9-1.6-8.5-2.3-12.8-1.5c-3.4,0.6-6.2,2.2-8.7,4c-3.8,2.8-8.9,4.4-13.9,3.6c-2.5-0.4-4.9-0.7-7.5-0.5c-4.4,0.3-8.4,2-12,4
							C807.6,73.7,805.6,74.9,803.6,76.1z"/>
						<path class="st5" d="M1050,69c-1.7,1.5-3.6,2.9-5.9,3.6c-3.2,0.9-6.7,0.6-9.9,0.5c-4.1-0.1-8.2,0.1-12.3-0.2
							c-3.5-0.2-6.9-0.8-10.2-1.7c-3.1-0.9-6-2-9-3c-2.9-1-6-1.8-9.2-2.1c-1.6-0.1-3.2-0.1-4.8,0.1c-1.8,0.2-3.4,0.7-5.1,1.2
							c-7.1,2-14.9,2.2-22.1,0.9c-3.7-0.6-7.3-1.8-11-2.6c-3.8-0.7-7.6-0.6-11.4,0.2c-3.7,0.8-7.3,1.7-11.1,1.9
							c-3.7,0.2-7.5-0.3-11-0.9c-7-1.2-13.4-3.7-18.9-7.6c-4.7-3.3-9.3-7.8-9.3-13.2c0-0.9,0.1-1.7,0.3-2.6
							c-9.5,3.1-17.1,9.2-19.4,17.7c-0.5,2.1-2.5,2.7-5,1.7c-3.9-1.6-8.5-2.3-12.8-1.5c-3.4,0.6-6.2,2.2-8.7,4
							c-3.8,2.8-8.9,4.4-13.9,3.6c-2.5-0.4-4.9-0.7-7.5-0.5c-4.4,0.3-8.4,2-12,4c-2,1.1-4,2.4-5.9,3.6h256
							C1056.4,72,1053.2,70,1050,69z"/>
					</g>
					<g>
						<path class="st2" d="M1076.3,91.2h39.5c-2.7-2.7-6-3.8-9.7-3.6c-1,0-2-0.1-3.1-0.8c-4.5-4-12.7-3.4-15.4,1.6
							c-0.3,0.5-1.2,0.9-2.4,0.8C1082.1,88.8,1079.2,89.9,1076.3,91.2z"/>
						<path class="st5" d="M1113.8,89.6c-0.3,0.1-0.6,0.2-0.9,0.2c-1.3,0.2-2.6,0-3.9-0.3c-1.2-0.2-2.3-0.5-3.6-0.6
							c-0.6,0-1.3,0-1.9,0.1c-0.6,0.1-1.3,0.2-1.9,0.3c-1.2,0.2-2.4,0.4-3.6,0.3c-1,0-2.1-0.2-3.1-0.5c-0.8-0.2-1.5-0.5-2.2-0.9
							c-0.6-0.5-1-1.1-1.1-1.8c-0.1-0.6,0-1.2,0.3-1.8c-1.8,0.7-3.4,1.8-4.4,3.5c-0.3,0.5-1.2,0.9-2.4,0.8c-3.1-0.4-6,0.7-8.9,2.1
							h39.5C1115.2,90.6,1114.5,90.1,1113.8,89.6z"/>
					</g>
					<g>
						<path class="st2" d="M1179.8,131.9c0,0,120.1,0,120.2,0c-0.1,0-0.6-0.6-0.7-0.6c-0.6-0.6-1.3-1.1-2-1.6
							c-2.4-1.6-5.1-2.9-7.9-3.9c-1.9-0.6-3.8-1-5.8-1.3c-2.9-0.4-5.7,0-8.6,0c-1.5,0-3.1-0.2-4.4-1c-1.1-0.7-1.8-1.9-2.7-2.8
							c-0.5-0.5-1-0.9-1.6-1.4c-1.3-0.9-2.7-1.6-4.2-2.1c-3.2-1.2-6.8-1.7-10.4-1.5c-3.3,0.1-6.7,0.9-9.3,2.8
							c-0.4,0.3-0.8,0.6-1.2,1c-0.8,0.8-3.2,1.2-5,0.3c-6.6-4.3-15.6-3.5-19.1,1.1c-0.4,0.6-1.7,1.2-3.1,0.7c-2-0.9-4.4-1-6.5-0.1
							c-0.9,0.4-1.7,0.9-2.3,1.6c-0.6,0.7-0.9,1.5-1.5,2.2c-0.8,1.2-2.5,2-4.1,1.9C1191.7,126.6,1186.4,127.9,1179.8,131.9z"/>
						<path class="st5" d="M1299.3,131.3c-0.6-0.6-1.3-1.1-2-1.6c-0.1-0.1-0.3-0.2-0.4-0.3c-3.9,1.3-8.6,0.7-12.5-0.1
							c-3-0.6-6-1.5-9.1-1.8c-4.3-0.3-8.6,0.2-12.9-0.3c-3.6-0.4-6.8-1.8-10.2-2.9c-1.6-0.5-3.2-0.9-4.9-1.1
							c-1.9-0.1-3.7,0.1-5.5,0.5c-3.5,0.8-6.8,2.1-10.4,2.3c-3.1,0.2-6.5-0.5-8.6-2.6c-1.6-1.5-2.3-3.4-2.2-5.3
							c-1.5,0.7-2.8,1.6-3.7,2.8c-0.4,0.6-1.7,1.2-3.1,0.7c-2-0.9-4.4-1-6.5-0.1c-0.9,0.4-1.7,0.9-2.3,1.6c-0.6,0.7-0.9,1.5-1.5,2.2
							c-0.8,1.2-2.5,2-4.1,1.9c-7.8-0.6-13.2,0.7-19.7,4.8c0,0,120.1,0,120.2,0C1299.9,131.9,1299.4,131.4,1299.3,131.3z"/>
					</g>
					<g>
						<path class="st2" d="M1087.8,51.3H1198c-6.8-5.2-14.7-6.9-21.9-5.6c-3.3,0.6-4.9-0.7-5.7-1.4c-8.1-7.3-24-10-33-5.7
							c-0.9,0.4-2,1.3-5.7,0.8c-8.5-1.2-14.8,2.1-18.1,6.2c-0.5,0.6-1.8,1.4-3.6,1C1102.2,44.9,1094.2,47.6,1087.8,51.3z"/>
						<path class="st5" d="M1189.7,46.9c-0.4,0.3-0.9,0.6-1.4,0.9c-2.5,1.3-5.5,1.7-8.5,1.7c-3.1,0-6.4-0.2-9.3-1.1
							c-1.6-0.5-3.1-1.1-4.6-1.5c-1.6-0.4-3.1-0.6-4.8-0.4c-2.9,0.4-5.6,1.7-8.6,1.8c-2.9,0.1-5.5-1.1-8.2-1.9
							c-1.3-0.4-2.7-0.7-4.1-0.6c-1.5,0.1-2.7,0.8-4.1,1.2c-2.7,0.8-5.8,0.7-8.4-0.6c-2.5-1.2-4.3-3.5-4.6-5.9c0-0.2,0-0.5,0-0.7
							c-4.2,1-7.5,3.3-9.6,5.8c-0.5,0.6-1.8,1.4-3.6,1c-7.7-1.7-15.7,1-22.2,4.7H1198C1195.3,49.3,1192.6,47.9,1189.7,46.9z"/>
					</g>
					<g>
						<g>
							<path class="st2" d="M1259.7,91.2h192.7c-10.3-6.1-19.3-10.1-25.2-8.6c-2.8,0.8-5.4,0.4-6.7-1.7c-11-14.4-24.1-15.6-32.5-10
								c-0.5,0.4-2.8,1.3-4.9,0.4c-9.1-3.4-34.3-15.4-47-1.2c-0.6,0.7-2.1,1.8-4.6,0.9c-13.8-5.3-26.2-0.9-28.6,9
								c-0.4,1.1-0.8,3.9-5.3,3.1C1278.8,80.1,1259.7,91.2,1259.7,91.2z"/>
						</g>
						<g>
							<path class="st5" d="M1441.2,85.3c-2.1,0.8-4.3,1.5-6.6,1.7c-3.1,0.3-6.3,0.1-9.4-0.2c-3.1-0.3-6.3-0.7-9.4-1.2
								c-6-1.1-11.8-2.9-17.8-3.7c-3-0.4-6.1-0.6-9.1-0.4c-3.2,0.3-6.2,1.1-9.1,2.1c-2.5,0.9-4.9,1.8-7.6,2
								c-2.6,0.2-5.2,0.1-7.8-0.2c-2.5-0.3-5-0.8-7.4-1.6c-2.4-0.8-4.6-1.7-7.1-2.2c-2.7-0.6-5.5-0.7-8.2-0.3
								c-2.4,0.4-4.8,1.1-7.1,1.8c-4.6,1.3-9.9,1.9-14.2-0.5c-3.8-2.1-4.5-6-4.4-9.6c0-1.4,0.2-2.7,0.5-4c-6.9,1-12.1,5-13.6,11
								c-0.4,1.1-0.8,3.9-5.3,3.1c-18.6-3.1-37.8,8-37.8,8h192.7C1448.4,88.9,1444.7,86.8,1441.2,85.3z"/>
						</g>
					</g>
				</g>
			</g>
		</g>
		<g>
			<path class="st6" d="M800,248.8l-77.8-33.4c-28.8-11.3-58.4-14.2-96.2,1.6c-14.8,6-28.4,6.1-43,0c-16.8-6.9-33.5-14.4-50.5-20.8
				c-25.5-9.5-49.1-21.5-76.4-25.5c-58.5-8.5-119,11.7-172,34c-35.4,14.9-69,34-99.3,57.3c-17.3,13.2-34.2,27.5-49,43.3H800V248.8z"
				/>
			<path class="st7" d="M624.1,217.7l-60.7,25.1l37.9-21.3C601.4,221.4,611.8,222.4,624.1,217.7z"/>
			<path class="st8" d="M800,248.8l-77.8-33.4c-14.7-5.8-29.7-9.4-45.8-9.4c-3.7,0.7-7.4,1.8-10.7,3.4c-2.5,1.3-4.8,2.9-6.9,4.6
				c-2.4,1.8-4.6,3.8-6.4,6c-1.7,2-3.1,4.3-3.5,6.8c-0.6,3.7,1.6,7.3,4.6,9.8c3.1,2.5,7.2,4.1,11.2,5.3c9.3,2.7,19.4,3.3,29.2,3.6
				c4.1,0.1,8.2,0.1,12.2,0.2c7.5,0.1,15,0.3,22.5,0.5c8.3,0.2,16.6,0.6,24.9,1.1c5.2,0.3,10.4,0.5,15.4,1.5
				c4.8,0.9,9.9,2.6,12.9,6.2c2.3,2.8,3.3,6.8,2.3,10.1c-1.9,6.6-10.2,10.3-17.1,12.7c-7.9,2.7-16.2,4.2-24.4,5.6
				c-1.5,0.3-3,0.5-4.5,0.9c-2.2,0.5-4.3,1.2-6.3,2c-4.6,1.8-9.1,4.1-12.8,7c-3.2,2.5-6.5,5.8-6.8,9.7c-0.1,0.8,0,1.6,0.2,2.4H800
				V248.8z"/>
			<path class="st7" d="M444.1,298.6c-16.1-28.3,28.6-64.1,32.8-68.3c3.7-3.7,7.1-7.6,9.8-11.7c2.4-3.7,5.1-8.5,3.2-12.5
				c-1.3-2.8-4.7-4.7-8.4-5.9c-8.4-2.8-18.5-3.1-27.7-3.2c-8.4-0.1-16.9,0.2-25.2-1.2c-4.1-0.7-8.3-1.8-11.5-3.8
				c-3.2-2-4.7-4.7-4.7-7.7c0-3.9,2.6-7.5,5.5-10.7c1.4-1.6,3-3.2,4.6-4.7c-47.7,1.2-95.6,17.8-138.5,35.9
				c-35.4,14.9-69,34-99.3,57.3c-17.3,13.2-34.2,27.5-49,43.3h310.3C445.2,303.1,444.5,300.9,444.1,298.6z"/>
			<g>
				<path class="st9" d="M304.6,216.2c-0.3-0.9-1.2-0.9-1.4,0l-1.6,5.7l1,0.4c0.2,0.1,0.1,0.3-0.1,0.3l-1,0l-3.8,13.9l2.2,0.8
					c0.2,0.1,0.2,0.3-0.1,0.3l-2.4,0l-2.5,9.1h18l-4.3-15.9l-1.4,0c-0.3,0-0.3-0.2-0.1-0.3l1.2-0.6L304.6,216.2z"/>
				<path class="st9" d="M346.6,216.8c-0.3-0.9-1.2-0.9-1.4,0l-1.6,5.7l1,0.4c0.2,0.1,0.1,0.3-0.1,0.3l-1,0l-3.8,13.9l2.2,0.8
					c0.2,0.1,0.2,0.3-0.1,0.3l-2.4,0l-2.5,9.1h18l-4.3-15.9l-1.4,0c-0.3,0-0.3-0.2-0.1-0.3l1.2-0.6L346.6,216.8z"/>
				<path class="st9" d="M367.3,226.3c-0.3-0.9-1.2-0.9-1.4,0l-1.6,5.7l1,0.4c0.2,0.1,0.1,0.3-0.1,0.3l-1,0l-3.8,13.9l2.2,0.8
					c0.2,0.1,0.2,0.3-0.1,0.3l-2.4,0l-2.5,9.1h18l-4.3-15.9l-1.4,0c-0.3,0-0.3-0.2-0.1-0.3l1.2-0.6L367.3,226.3z"/>
				<path class="st9" d="M290.6,220.6c-0.3-0.8-1.1-0.8-1.3,0l-1.5,4.9l0.9,0.3c0.2,0.1,0.1,0.3-0.1,0.3l-1,0l-3.6,11.9l2.1,0.7
					c0.2,0.1,0.2,0.3-0.1,0.3l-2.3,0l-2.3,7.7h17.1l-4.1-13.6l-1.3,0c-0.3,0-0.3-0.2-0.1-0.3l1.1-0.6L290.6,220.6z"/>
				<path class="st9" d="M357.5,231.5c-0.2-0.6-0.9-0.6-1,0l-1.1,3.7l0.7,0.2c0.2,0.1,0.1,0.2-0.1,0.2l-0.8,0l-2.7,9l1.6,0.5
					c0.2,0.1,0.1,0.2-0.1,0.2l-1.7,0l-1.8,5.9h12.9l-3.1-10.3l-1,0c-0.2,0-0.2-0.1-0.1-0.2l0.9-0.4L357.5,231.5z"/>
				<path class="st9" d="M330.3,218.9c-0.3-0.8-1.2-0.8-1.4,0l-1.6,5.2l1,0.3c0.2,0.1,0.1,0.3-0.1,0.3l-1.1,0l-3.8,12.6l2.2,0.7
					c0.2,0.1,0.2,0.3-0.1,0.3l-2.4,0l-2.5,8.2h18.2l-4.4-14.5l-1.4,0c-0.3,0-0.3-0.2-0.1-0.3l1.2-0.6L330.3,218.9z"/>
				<path class="st9" d="M318.1,224c-0.2-0.7-1-0.7-1.2,0l-1.3,4.2l0.8,0.3c0.2,0.1,0.1,0.2-0.1,0.2l-0.9,0l-3.1,10.3l1.8,0.6
					c0.2,0.1,0.2,0.2-0.1,0.2l-2,0l-2,6.7H325l-3.6-11.8l-1.1,0c-0.2,0-0.2-0.1-0.1-0.2l1-0.5L318.1,224z"/>
			</g>
			<path class="st10" d="M315.7,305.4L428.7,259c12.6-5.2,24.7-5.9,36.2,0c7.2,3.1,17.9,3,25-0.2c0,0,41.5-19.9,41.5-19.9
				c32.1-14.2,67.1,0.9,96.2,15.8c56.2,32.5,109.5,8.4,146.2,50.7H315.7"/>
			<path class="st6" d="M0,305.4h530.2l-182.4-60.5c-20.3-6.7-39.9-7.6-58.5,0c-11.6,4.1-22.4,4.2-33.9,0c0,0-73.5-26.3-73.5-26.3
				c-51.8-18.5-108.4,1.2-155.3,20.6c-9.4,4.4-18.3,8.9-26.6,13.4V305.4z"/>
			<path class="st7" d="M0,305.4h361.8c-0.6-1.3-1.3-2.6-2.2-3.8c-7.1-10-22.3-15.3-36.4-17.6c-15.8-2.6-32.2-1.9-48.1-0.1
				c-13.8,1.6-27,5.2-40.9,6.3c-10.6,0.9-26.2,0.3-30-8.9c-1.5-3.6-1-7.4-0.8-11.1c0.2-3.7,0.4-7.7-2-11c-2.5-3.5-7.5-5.6-12.5-6.7
				c-5.7-1.3-11.6-1.5-17.5-1.7c-5.9-0.2-11.9-0.1-17.8-0.4c-5.5-0.3-10.8-0.9-15.7-3c-5.4-2.3-9.7-5.9-12-10.3
				c-2.5-4.6-2.6-9.7-0.9-14.5c1.5-4.3,4.5-8.1,8.5-11.3c-37,0.9-74.2,14.5-106.8,27.9c-9.4,4.4-18.3,8.9-26.6,13.4V305.4z"/>
			<path class="st7" d="M289.4,244.9l-48.7,20.6l31.2-17.6C277,248,282.8,247.1,289.4,244.9z"/>
		</g>
		<rect y="305.2" class="st8" width="800" height="144.8"/>
		<g>
			<path class="st11" d="M577,394.1c-50.7-2.7-61.7-9.2,5.1-14.7c36.7-3.5,128.7-7.7,217.8-11.8v-29.8
				c-158.2,2.7-308.1,5.6-404.7,10.1c0,0-84.3,3.6-83.8,9c0.5,5.3,53,8.1,53,8.1c119.4,8.2,51.2,15.2-15,17.7
				c-104.4,5-223.2,8-349.6,9.8V450h508.8c22.8-4.5,52-12.2,83.2-20.8C660.6,408.5,662.3,396,577,394.1z"/>
			<g>
				<path class="st12" d="M800,362.3c-26.9,1.1-164.4,7.1-231.7,13.4c-41.6,4.5-54.8,10.7-55.7,17.2c-2.2,18.7,47.2,14.8,37.6,32.4
					c-7,12.2-62.6,20.5-151.5,24.7h110.1c22.8-4.5,52-12.2,83.2-20.8c22.5-6.8,37.8-12.7,45.2-17.6c7.8-6.2-25.4-16.7-60.1-17.4
					c-21.4-1.1-35.7-3-40.1-5.1c-0.3-0.2-0.6-0.3-0.8-0.5c-0.9-0.6-0.8-1.3,0.2-2c0.2-0.2,0.6-0.3,0.9-0.5c0.4-0.2,0.8-0.3,1.3-0.5
					c4-1.4,11.9-2.8,24.5-4.2c1.6-0.2,3.2-0.4,4.9-0.5c0.9-0.1,1.7-0.2,2.6-0.3c3.6-0.3,7.5-0.7,11.6-1c5.2-0.5,11.6-1,18.8-1.5
					c2.4-0.2,5-0.4,7.6-0.5c1.8-0.1,3.6-0.2,5.4-0.4c4.6-0.3,9.5-0.6,14.6-0.9c2-0.1,4.1-0.2,6.2-0.4c4.2-0.2,8.6-0.5,13.1-0.7
					c2.3-0.1,4.5-0.2,6.9-0.4c1.2-0.1,2.3-0.1,3.5-0.2c2.3-0.1,4.7-0.3,7.1-0.4c1.2-0.1,2.4-0.1,3.6-0.2c2.4-0.1,4.9-0.3,7.4-0.4
					c2.5-0.1,5-0.3,7.5-0.4c5.1-0.3,10.2-0.5,15.5-0.8c2.6-0.1,5.3-0.3,7.9-0.4c1.3-0.1,2.7-0.1,4-0.2c2.7-0.1,5.4-0.3,8.1-0.4
					c2.7-0.1,5.4-0.3,8.2-0.4c2.7-0.1,5.5-0.3,8.2-0.4c9.6-0.5,19.4-0.9,29.3-1.4c4.2-0.2,8.4-0.4,12.7-0.6c2.8-0.1,5.6-0.3,8.5-0.4
					c2.8-0.1,5.6-0.3,8.5-0.4c1.8-0.1,3.6-0.2,5.4-0.2V362.3z"/>
				<path class="st12" d="M170.1,450c-20.6-6.7-43-21.1-49.6,0H170.1z"/>
			</g>
			<path class="st12" d="M461.5,354.2c0,0,290.2-9.6,338.5-10.9v-5.4c-158.2,2.7-308.1,5.6-404.7,10.1c0,0-84.3,3.6-83.8,9
				c0.5,5.3,53,8.1,53,8.1c119.4,8.2,51.2,15.2-15,17.7c-104.4,5-223.2,8-349.6,9.8V404c34.7,0.1,69.4,0.8,104.2,1.4
				c88.7,1.3,177.2-1.1,265.3-10.3c20-2.1,40-4.5,59.5-8.7c7-1.5,24.6-4.9,21.9-13.6c-1.9-6-18-8.7-17.8-12.9
				C433.1,355,461.5,354.2,461.5,354.2z"/>
			<ellipse class="st12" cx="334.9" cy="420.5" rx="26.4" ry="2.9"/>
			<ellipse class="st12" cx="373.1" cy="429" rx="9.7" ry="1.4"/>
			<ellipse class="st12" cx="490.6" cy="374" rx="9.7" ry="1.4"/>
			<ellipse class="st12" cx="386.7" cy="403.8" rx="15.5" ry="1.9"/>
			<path class="st12" d="M509.4,423.4c0,1.1-6.9,1.9-15.5,1.9c-8.5,0-15.5-0.9-15.5-1.9c0-1.1,6.9-1.9,15.5-1.9
				C502.5,421.5,509.4,422.3,509.4,423.4z"/>
		</g>
		<g>
			<path class="st7" d="M429.9,374.1c0,0.2-0.1,0.7-1.6,1.3c-7.7,3.4-43.5,6-78.8,7.3c-141.3,6.8-167.5-11.2-349.6,1.2v14.3
				c126.4-1.8,244.2-5.6,348.7-10.6c50.8-2.5,81.4-6.8,81.2-10.8C429.9,376.6,429.9,374.4,429.9,374.1z"/>
			<path class="st7" d="M800,337.8c-155.7,1.5-367.6,0-449.5,7.9c0,0-39.9,3.4-39,11.2c0.1,0.5,0.6,1,1.4,1.4
				c1.4-5.2,82.3-7.7,82.3-7.7c96.6-4.5,246.5-7.4,404.7-10.1V337.8z"/>
			<path class="st7" d="M583.5,393.1c-21.6-1.2-42.5-2-46.7-4.1c-1.4-0.7-1.3-1.4-1.3-1.4s0,2.5,0,2.8c0.2,2.7,15.8,5.7,41.7,7
				c38.6,2.5,62.2,5.7,60.8,13.6c2.2-1.3,3.6-3.4,4-4.2C645.1,399,626.3,395.5,583.5,393.1z"/>
		</g>
		<g>
			<path class="st7" d="M561.9,382.8c7.4-7.8,18.4-8.4,27.5,0H561.9z"/>
			<path class="st7" d="M585.1,388.7c3.7-3.9,9.2-4.2,13.7,0H585.1z"/>
		</g>
		<path class="st7" d="M154.8,341.1c4.2-3.7,10.4-4,15.6,0H154.8z"/>
		<g>
			<g>
				<g>
					<rect x="150.6" y="301.1" class="st13" width="40" height="0.6"/>
					<rect x="150.6" y="303.6" class="st13" width="40" height="0.6"/>
				</g>
				<g>
					<path class="st14" d="M152.1,299.6c-0.1-0.1-0.2-0.1-0.2,0l-0.6,0.7c0,0,0,0,0,0.1v4.7c0,0.1,0.1,0.1,0.1,0.1h1.3
						c0.1,0,0.1-0.1,0.1-0.1v-4.7c0,0,0,0,0-0.1L152.1,299.6z"/>
					<path class="st14" d="M154.8,299.6c-0.1-0.1-0.2-0.1-0.2,0l-0.6,0.7c0,0,0,0,0,0.1v4.7c0,0.1,0.1,0.1,0.1,0.1h1.3
						c0.1,0,0.1-0.1,0.1-0.1v-4.7c0,0,0,0,0-0.1L154.8,299.6z"/>
					<path class="st14" d="M157.4,299.6c-0.1-0.1-0.2-0.1-0.2,0l-0.6,0.7c0,0,0,0,0,0.1v4.7c0,0.1,0.1,0.1,0.1,0.1h1.3
						c0.1,0,0.1-0.1,0.1-0.1v-4.7c0,0,0,0,0-0.1L157.4,299.6z"/>
					<path class="st14" d="M160.1,299.6c-0.1-0.1-0.2-0.1-0.2,0l-0.6,0.7c0,0,0,0,0,0.1v4.7c0,0.1,0.1,0.1,0.1,0.1h1.3
						c0.1,0,0.1-0.1,0.1-0.1v-4.7c0,0,0,0,0-0.1L160.1,299.6z"/>
					<path class="st14" d="M162.8,299.6c-0.1-0.1-0.2-0.1-0.2,0l-0.6,0.7c0,0,0,0,0,0.1v4.7c0,0.1,0.1,0.1,0.1,0.1h1.3
						c0.1,0,0.1-0.1,0.1-0.1v-4.7c0,0,0,0,0-0.1L162.8,299.6z"/>
					<path class="st14" d="M165.4,299.6c0,0-0.1,0-0.1,0c0,0-0.1,0-0.1,0l-0.6,0.7c0,0,0,0,0,0.1v4.7c0,0.1,0.1,0.1,0.1,0.1h0h1.3h0
						c0.1,0,0.1-0.1,0.1-0.1v-4.7c0,0,0,0,0-0.1L165.4,299.6z"/>
					<path class="st14" d="M168.1,299.6c0,0-0.1,0-0.1,0c0,0-0.1,0-0.1,0l-0.6,0.7c0,0,0,0,0,0.1v4.7c0,0.1,0.1,0.1,0.1,0.1h0h1.3h0
						c0.1,0,0.1-0.1,0.1-0.1v-4.7c0,0,0,0,0-0.1L168.1,299.6z"/>
					<path class="st14" d="M170.8,299.6c0,0-0.1,0-0.1,0c0,0-0.1,0-0.1,0l-0.6,0.7c0,0,0,0,0,0.1v4.7c0,0.1,0.1,0.1,0.1,0.1h0h1.3h0
						c0.1,0,0.1-0.1,0.1-0.1v-4.7c0,0,0,0,0-0.1L170.8,299.6z"/>
					<path class="st14" d="M173.4,299.6c0,0-0.1,0-0.1,0c0,0-0.1,0-0.1,0l-0.6,0.7c0,0,0,0,0,0.1v4.7c0,0.1,0.1,0.1,0.1,0.1h0h1.3h0
						c0.1,0,0.1-0.1,0.1-0.1v-4.7c0,0,0,0,0-0.1L173.4,299.6z"/>
					<path class="st14" d="M176.1,299.6c0,0-0.1,0-0.1,0c0,0-0.1,0-0.1,0l-0.6,0.7c0,0,0,0,0,0.1v4.7c0,0.1,0.1,0.1,0.1,0.1h0h1.3h0
						c0.1,0,0.1-0.1,0.1-0.1v-4.7c0,0,0,0,0-0.1L176.1,299.6z"/>
					<path class="st14" d="M178.7,299.6c-0.1-0.1-0.2-0.1-0.2,0l-0.6,0.7c0,0,0,0,0,0.1v4.7c0,0.1,0.1,0.1,0.1,0.1h1.3
						c0.1,0,0.1-0.1,0.1-0.1v-4.7c0,0,0,0,0-0.1L178.7,299.6z"/>
					<path class="st14" d="M181.4,299.6c-0.1-0.1-0.2-0.1-0.2,0l-0.6,0.7c0,0,0,0,0,0.1v4.7c0,0.1,0.1,0.1,0.1,0.1h1.3
						c0.1,0,0.1-0.1,0.1-0.1v-4.7c0,0,0,0,0-0.1L181.4,299.6z"/>
					<path class="st14" d="M184.1,299.6c-0.1-0.1-0.2-0.1-0.2,0l-0.6,0.7c0,0,0,0,0,0.1v4.7c0,0.1,0.1,0.1,0.1,0.1h1.3
						c0.1,0,0.1-0.1,0.1-0.1v-4.7c0,0,0,0,0-0.1L184.1,299.6z"/>
					<path class="st14" d="M186.7,299.6c-0.1-0.1-0.2-0.1-0.2,0l-0.6,0.7c0,0,0,0,0,0.1v4.7c0,0.1,0.1,0.1,0.1,0.1h1.3
						c0.1,0,0.1-0.1,0.1-0.1v-4.7c0,0,0,0,0-0.1L186.7,299.6z"/>
					<path class="st14" d="M190,300.3l-0.6-0.7c-0.1-0.1-0.2-0.1-0.2,0l-0.6,0.7c0,0,0,0,0,0.1v4.7c0,0.1,0.1,0.1,0.1,0.1h1.3
						c0.1,0,0.1-0.1,0.1-0.1L190,300.3C190.1,300.3,190.1,300.3,190,300.3z"/>
				</g>
			</g>
			<g>
				<g>
					
						<rect x="38.9" y="284.4" transform="matrix(-1 -1.224647e-16 1.224647e-16 -1 106.3726 589.4573)" class="st13" width="28.5" height="20.6"/>
					<polygon class="st14" points="86.1,305 67.4,305 67.4,284.4 76.8,275.8 86.1,284.4 					"/>
					<polygon class="st9" points="67.4,284.4 38.9,284.4 48.2,275.8 76.8,275.8 					"/>
					<g>
						
							<rect x="78.9" y="287.2" transform="matrix(-1 -1.224647e-16 1.224647e-16 -1 162.3554 578.9883)" class="st15" width="4.5" height="4.7"/>
						
							<rect x="70.1" y="287.2" transform="matrix(-1 -1.224647e-16 1.224647e-16 -1 144.6623 578.9883)" class="st15" width="4.5" height="4.7"/>
					</g>
					<g>
						
							<rect x="78.9" y="296.4" transform="matrix(-1 -1.224647e-16 1.224647e-16 -1 162.3554 597.5212)" class="st15" width="4.5" height="4.7"/>
						
							<rect x="70.1" y="296.4" transform="matrix(-1 -1.224647e-16 1.224647e-16 -1 144.6623 597.5212)" class="st15" width="4.5" height="4.7"/>
					</g>
					<g>
						<rect x="59.8" y="287.2" class="st15" width="4.5" height="4.7"/>
						<rect x="50.9" y="287.2" class="st15" width="4.5" height="4.7"/>
						<rect x="42.1" y="287.2" class="st15" width="4.5" height="4.7"/>
					</g>
					<g>
						<rect x="59.8" y="296.4" class="st15" width="4.5" height="4.7"/>
						<rect x="50.9" y="296.4" class="st15" width="4.5" height="8.6"/>
						<rect x="42.1" y="296.4" class="st15" width="4.5" height="4.7"/>
					</g>
					
						<rect x="60.4" y="274.2" transform="matrix(-1 -1.224647e-16 1.224647e-16 -1 123.837 554.8752)" class="st13" width="3.1" height="6.4"/>
					<polygon class="st14" points="65.4,274.2 65.4,278.9 63.5,280.6 63.5,274.2 					"/>
				</g>
				<g>
					
						<rect x="90.5" y="294.8" transform="matrix(-1 -1.224647e-16 1.224647e-16 -1 222.9501 599.9348)" class="st13" width="42" height="10.4"/>
					<polygon class="st14" points="149,305.2 132.5,305.2 132.5,294.8 140.7,286.1 149,294.8 					"/>
					<polygon class="st9" points="132.5,294.8 90.5,294.8 98.8,286.1 140.7,286.1 					"/>
					<g>
						
							<rect x="127.9" y="297.5" transform="matrix(-1 -1.224647e-16 1.224647e-16 -1 257.7522 596.6906)" class="st15" width="2" height="1.7"/>
						
							<rect x="98.8" y="297.5" transform="matrix(-1 -1.224647e-16 1.224647e-16 -1 199.6534 596.6906)" class="st15" width="2" height="1.7"/>
						
							<rect x="93" y="297.5" transform="matrix(-1 -1.224647e-16 1.224647e-16 -1 188.0336 596.6906)" class="st15" width="2" height="1.7"/>
						
							<rect x="122.1" y="297.5" transform="matrix(-1 -1.224647e-16 1.224647e-16 -1 246.1323 596.6906)" class="st15" width="2" height="1.7"/>
						
							<rect x="116.2" y="297.5" transform="matrix(-1 -1.224647e-16 1.224647e-16 -1 234.5127 596.6906)" class="st15" width="2" height="1.7"/>
						
							<rect x="110.4" y="297.5" transform="matrix(-1 -1.224647e-16 1.224647e-16 -1 222.8929 596.6906)" class="st15" width="2" height="1.7"/>
						
							<rect x="104.6" y="297.5" transform="matrix(-1 -1.224647e-16 1.224647e-16 -1 211.2732 596.6906)" class="st15" width="2" height="1.7"/>
					</g>
					
						<rect x="144.7" y="297.5" transform="matrix(-1 -1.224647e-16 1.224647e-16 -1 290.9455 599.6724)" class="st15" width="1.5" height="4.7"/>
					
						<rect x="140" y="297.5" transform="matrix(-1 -1.224647e-16 1.224647e-16 -1 281.4677 599.6724)" class="st15" width="1.5" height="4.7"/>
					
						<rect x="135.2" y="297.5" transform="matrix(-1 -1.224647e-16 1.224647e-16 -1 271.9899 599.6724)" class="st15" width="1.5" height="4.7"/>
				</g>
			</g>
		</g>
		<ellipse class="st12" cx="642.8" cy="358.4" rx="8.6" ry="1.3"/>
		<path class="st12" d="M666.2,352.7c0,0.3-1.4,0.5-3.1,0.5c-1.7,0-3.1-0.2-3.1-0.5c0-0.3,1.4-0.5,3.1-0.5
			C664.8,352.2,666.2,352.4,666.2,352.7z"/>
		<g>
			<path class="st9" d="M402.9,262.4c-0.4-1.3-1.7-1.2-2,0l-2.2,8l1.4,0.5c0.3,0.1,0.2,0.4-0.1,0.4l-1.5,0l-5.3,19.5l3.1,1.2
				c0.3,0.2,0.3,0.5-0.2,0.4l-3.3,0l-3.5,12.8h25.3l-6.1-22.4l-1.9,0c-0.4,0-0.4-0.3-0.2-0.4l1.7-0.9L402.9,262.4z"/>
			<path class="st9" d="M459.4,262.4c-0.4-1.3-1.7-1.2-2,0l-2.2,8l1.4,0.5c0.3,0.1,0.2,0.4-0.1,0.4l-1.5,0l-5.3,19.5l3.1,1.2
				c0.3,0.2,0.3,0.5-0.2,0.4l-3.3,0l-3.5,12.8H471l-6.1-22.4l-1.9,0c-0.4,0-0.4-0.3-0.2-0.4l1.7-0.9L459.4,262.4z"/>
			<path class="st9" d="M383.3,268.6c-0.4-1.1-1.6-1.1-1.9,0l-2.1,6.8l1.3,0.4c0.3,0.1,0.2,0.4-0.1,0.4l-1.4,0l-5.1,16.7l2.9,1
				c0.3,0.1,0.3,0.4-0.1,0.4l-3.2,0l-3.3,10.9h24l-5.8-19.1l-1.8,0c-0.4,0-0.4-0.2-0.1-0.4l1.6-0.8L383.3,268.6z"/>
			<path class="st9" d="M477.4,277.5c-0.3-0.8-1.2-0.8-1.4,0l-1.6,5.2l1,0.3c0.2,0.1,0.1,0.3-0.1,0.3l-1.1,0l-3.8,12.6l2.2,0.8
				c0.2,0.1,0.2,0.3-0.1,0.3l-2.4,0l-2.5,8.3h18.2l-4.4-14.5l-1.4,0c-0.3,0-0.3-0.2-0.1-0.3l1.2-0.6L477.4,277.5z"/>
			<path class="st9" d="M439.1,266.2c-0.4-1.2-1.7-1.1-2,0l-2.2,7.3l1.4,0.4c0.3,0.1,0.2,0.4-0.1,0.4l-1.5,0l-5.4,17.8l3.1,1.1
				c0.4,0.2,0.3,0.4-0.2,0.4l-3.4,0l-3.5,11.6h25.6l-6.2-20.3l-1.9,0c-0.4,0-0.4-0.3-0.2-0.4l1.7-0.8L439.1,266.2z"/>
			<path class="st9" d="M422,273.3c-0.3-1-1.4-0.9-1.6,0l-1.8,5.9l1.1,0.4c0.2,0.1,0.2,0.3-0.1,0.3l-1.2,0l-4.4,14.5l2.5,0.9
				c0.3,0.1,0.2,0.3-0.1,0.3l-2.8,0l-2.9,9.5h20.9l-5-16.6l-1.6,0c-0.3,0-0.3-0.2-0.1-0.3l1.4-0.7L422,273.3z"/>
		</g>
		<g>
			<g>
				<rect x="734.9" y="308.3" class="st2" width="60.3" height="13.2"/>
				<polygon class="st4" points="711.2,321.5 734.9,321.5 734.9,308.3 723.1,297.2 711.2,308.3 				"/>
				<polygon class="st3" points="734.9,308.3 795.3,308.3 783.4,297.2 723.1,297.2 				"/>
				<g>
					<rect x="738.7" y="311.8" class="st15" width="2.9" height="2.2"/>
					<rect x="780.4" y="311.8" class="st15" width="2.9" height="2.2"/>
					<rect x="788.8" y="311.8" class="st15" width="2.9" height="2.2"/>
					<rect x="747" y="311.8" class="st15" width="2.9" height="2.2"/>
					<rect x="755.4" y="311.8" class="st15" width="2.9" height="2.2"/>
					<rect x="763.7" y="311.8" class="st15" width="2.9" height="2.2"/>
					<rect x="772.1" y="311.8" class="st15" width="2.9" height="2.2"/>
				</g>
				<rect x="715.2" y="311.8" class="st15" width="2.2" height="6"/>
				<rect x="722" y="311.8" class="st15" width="2.2" height="6"/>
				<rect x="728.8" y="311.8" class="st15" width="2.2" height="6"/>
			</g>
			<g>
				<rect x="576.4" y="295.3" class="st2" width="36.4" height="26.3"/>
				<polygon class="st4" points="552.6,321.5 576.4,321.5 576.4,295.3 564.5,284.2 552.6,295.3 				"/>
				<polygon class="st3" points="576.4,295.3 612.8,295.3 600.9,284.2 564.5,284.2 				"/>
				<g>
					<rect x="556" y="298.7" class="st15" width="5.7" height="6"/>
					<rect x="567.2" y="298.7" class="st15" width="5.7" height="6"/>
				</g>
				<g>
					<rect x="556" y="310.6" class="st15" width="5.7" height="6"/>
					<rect x="567.2" y="310.6" class="st15" width="5.7" height="6"/>
				</g>
				<g>
					<rect x="580.4" y="298.7" class="st15" width="5.7" height="6"/>
					<rect x="591.7" y="298.7" class="st15" width="5.7" height="6"/>
					<rect x="603" y="298.7" class="st15" width="5.7" height="6"/>
				</g>
				<g>
					<rect x="580.4" y="310.6" class="st15" width="5.7" height="6"/>
					<rect x="591.7" y="310.6" class="st15" width="5.7" height="11"/>
					<rect x="603" y="310.6" class="st15" width="5.7" height="6"/>
				</g>
				<g>
					<rect x="581.4" y="282.2" class="st2" width="3.9" height="8.2"/>
					<polygon class="st4" points="579,282.2 579,288.1 581.4,290.4 581.4,282.2 					"/>
				</g>
			</g>
			<g id="van">
				<g>
					<path class="st15" d="M273,312.9h-0.4v-2.2c0-0.3,0.3-0.5,0.7-0.5v0.3c-0.2,0-0.2,0.1-0.2,0.2V312.9z"/>
					<path class="st15" d="M273,314.3h-0.6c-0.1,0-0.2-0.1-0.2-0.2v-1.3c0-0.1,0.1-0.2,0.2-0.2h0.6c0.1,0,0.2,0.1,0.2,0.2v1.3
						C273.2,314.2,273.1,314.3,273,314.3z"/>
				</g>
				<path class="st15" d="M264,318.1c0,0.3-0.3,0.5-0.6,0.5c-0.3,0-0.6-0.2-0.6-0.5c0-0.3,0.3-0.5,0.6-0.5
					C263.7,317.6,264,317.8,264,318.1z"/>
				<path class="st3" d="M275.8,314.2h-5.3l-0.9-4.1h-7.2v4.2l-0.7,0.1l-1,0.7l1.4,1.2c0,0,3.3,1.6,5.4,1.8h8l0.6-3.5
					C276.2,314.3,276,314.2,275.8,314.2z M266,313.1c0,0.2-0.2,0.4-0.5,0.4h-2c-0.3,0-0.5-0.2-0.5-0.4v-2.2c0-0.2,0.2-0.4,0.5-0.4h2
					c0.3,0,0.5,0.2,0.5,0.4V313.1z M269.2,313.5h-2.4c-0.2,0-0.3-0.1-0.3-0.3v-2.4c0-0.2,0.1-0.3,0.3-0.3h1.8c0.2,0,0.3,0.1,0.3,0.3
					l0.5,2.4C269.5,313.3,269.4,313.5,269.2,313.5z"/>
				<path class="st15" d="M269.9,310.1C269.9,310.1,269.9,310.1,269.9,310.1c0-0.3-0.4-0.5-0.7-0.5h-6.3c-0.3,0-0.6,0.2-0.6,0.5
					c0,0,0,0,0,0H269.9z"/>
				<polygon class="st15" points="259.8,316 259.5,315.7 261.6,314.2 265.3,314.2 267.1,315.4 266.8,315.7 265.1,314.6 261.8,314.6 
									"/>
				<path class="st15" d="M267.4,318.4v-0.6l-0.1-0.1c0-0.2-0.1-0.4-0.1-0.5l0.1-0.1l-0.3-0.6l-0.2,0c-0.1-0.2-0.2-0.3-0.4-0.5
					l0-0.1l-0.5-0.4l-0.2,0c-0.2-0.1-0.4-0.2-0.6-0.3l0-0.1l-0.7-0.2l-0.1,0.1c-0.2,0-0.4-0.1-0.6-0.1l-0.1-0.1H263l-0.1,0.1
					c-0.2,0-0.4,0.1-0.7,0.1l-0.1-0.1l-0.7,0.2l0,0.1c-0.2,0.1-0.4,0.2-0.5,0.3l-0.1,0l-0.5,0.4l0,0.1c-0.1,0.1-0.3,0.3-0.4,0.5
					l-0.2,0l-0.3,0.6l0.1,0.1c-0.1,0.2-0.1,0.3-0.1,0.5l-0.1,0.1v0.6l0.2,0.1c0,0.2,0.1,0.4,0.1,0.5l-0.1,0.1l0.3,0.6l0.2,0
					c0.1,0.2,0.2,0.3,0.4,0.4l-0.1,0.1l0.5,0.4l0.2,0c0.2,0.1,0.3,0.2,0.5,0.3l0,0.1l0.7,0.2l0.1-0.1c0.2,0,0.4,0.1,0.6,0.1l0.1,0.1
					h0.7l0.1-0.1c0.2,0,0.4-0.1,0.6-0.1l0.1,0.1l0.7-0.2l0-0.1c0.2-0.1,0.4-0.2,0.5-0.3l0.2,0l0.5-0.4l0-0.1
					c0.1-0.1,0.3-0.3,0.4-0.4l0.2,0l0.3-0.6l-0.1-0.1c0.1-0.2,0.1-0.3,0.1-0.5L267.4,318.4z"/>
				<path class="st15" d="M277.4,319.3v-0.4l-0.1,0c0-0.1,0-0.3-0.1-0.4l0.1-0.1l-0.2-0.4l-0.1,0c-0.1-0.1-0.2-0.2-0.3-0.3l0-0.1
					l-0.4-0.3l-0.1,0c-0.1-0.1-0.3-0.2-0.4-0.2l0-0.1l-0.5-0.2l-0.1,0.1c-0.1,0-0.3-0.1-0.5-0.1l-0.1-0.1h-0.5l-0.1,0.1
					c-0.2,0-0.3,0-0.5,0.1l-0.1-0.1l-0.5,0.2l0,0.1c-0.1,0.1-0.3,0.1-0.4,0.2l-0.1,0l-0.4,0.3l0,0.1c-0.1,0.1-0.2,0.2-0.3,0.3
					l-0.1,0l-0.2,0.4l0.1,0.1c0,0.1-0.1,0.2-0.1,0.4l-0.1,0v0.4l0.1,0c0,0.1,0,0.3,0.1,0.4l-0.1,0.1l0.2,0.4l0.1,0
					c0.1,0.1,0.2,0.2,0.3,0.3l0,0.1l0.4,0.3l0.1,0c0.1,0.1,0.2,0.2,0.4,0.2l0,0.1l0.5,0.2l0.1-0.1c0.1,0,0.3,0.1,0.4,0.1l0.1,0.1
					h0.5l0.1-0.1c0.2,0,0.3,0,0.4-0.1l0.1,0.1l0.5-0.2l0-0.1c0.1-0.1,0.3-0.1,0.4-0.2l0.1,0l0.4-0.3l0-0.1c0.1-0.1,0.2-0.2,0.3-0.3
					l0.1,0l0.2-0.4l-0.1-0.1c0-0.1,0.1-0.2,0.1-0.4L277.4,319.3z"/>
				<path class="st4" d="M265.9,318.1c0,1.2-1.1,2.1-2.5,2.1c-1.4,0-2.5-0.9-2.5-2.1c0-1.2,1.1-2.1,2.5-2.1
					C264.7,316,265.9,316.9,265.9,318.1z"/>
				<path class="st16" d="M264,318.1c0,0.3-0.3,0.5-0.6,0.5c-0.3,0-0.6-0.2-0.6-0.5c0-0.3,0.3-0.5,0.6-0.5
					C263.7,317.6,264,317.8,264,318.1z"/>
				<g>
					<path class="st15" d="M263.4,317.6c-0.3,0-0.6,0.2-0.6,0.5c0,0.3,0.3,0.5,0.6,0.5c0.3,0,0.6-0.2,0.6-0.5
						C264,317.8,263.7,317.6,263.4,317.6z"/>
				</g>
				<path class="st4" d="M275.8,319.1c0,0.6-0.5,1-1.2,1s-1.2-0.5-1.2-1c0-0.6,0.5-1,1.2-1S275.8,318.6,275.8,319.1z"/>
				<path class="st15" d="M274.9,319.1c0,0.2-0.2,0.3-0.4,0.3c-0.2,0-0.4-0.1-0.4-0.3c0-0.2,0.2-0.3,0.4-0.3
					C274.7,318.8,274.9,319,274.9,319.1z"/>
				<g>
					<path class="st15" d="M263.5,317.1c0,0.1-0.1,0.1-0.2,0.1c-0.1,0-0.2-0.1-0.2-0.1c0-0.1,0.1-0.1,0.2-0.1
						C263.5,316.9,263.5,317,263.5,317.1z"/>
					<path class="st15" d="M263.5,319.1c0,0.1-0.1,0.1-0.2,0.1c-0.1,0-0.2-0.1-0.2-0.1c0-0.1,0.1-0.1,0.2-0.1
						C263.5,319,263.5,319,263.5,319.1z"/>
				</g>
				<g>
					<path class="st15" d="M264.6,318.2c-0.1,0-0.2-0.1-0.2-0.1c0-0.1,0.1-0.1,0.2-0.1c0.1,0,0.2,0.1,0.2,0.1
						C264.8,318.2,264.7,318.2,264.6,318.2z"/>
					<path class="st15" d="M262.2,318.2c-0.1,0-0.2-0.1-0.2-0.1c0-0.1,0.1-0.1,0.2-0.1c0.1,0,0.2,0.1,0.2,0.1
						C262.3,318.2,262.3,318.2,262.2,318.2z"/>
				</g>
				<g>
					<path class="st15" d="M264.3,317.5c-0.1,0.1-0.2,0.1-0.2,0c-0.1-0.1-0.1-0.1,0-0.2c0.1-0.1,0.2-0.1,0.2,0
						C264.4,317.3,264.4,317.4,264.3,317.5z"/>
					<path class="st15" d="M262.6,318.9c-0.1,0.1-0.2,0.1-0.2,0c-0.1-0.1-0.1-0.1,0-0.2c0.1-0.1,0.2-0.1,0.2,0
						C262.7,318.8,262.7,318.9,262.6,318.9z"/>
				</g>
				<g>
					<path class="st15" d="M264.1,318.9c-0.1-0.1-0.1-0.1,0-0.2c0.1-0.1,0.2-0.1,0.2,0c0.1,0.1,0.1,0.1,0,0.2
						C264.3,319,264.2,319,264.1,318.9z"/>
					<path class="st15" d="M262.4,317.5c-0.1-0.1-0.1-0.1,0-0.2c0.1-0.1,0.2-0.1,0.2,0c0.1,0.1,0.1,0.1,0,0.2
						C262.6,317.5,262.5,317.5,262.4,317.5z"/>
				</g>
				<path class="st15" d="M275.3,314.9h-1.3c0,0-0.1,0-0.1-0.1l0,0c0,0,0-0.1,0.1-0.1h1.3C275.4,314.8,275.4,314.8,275.3,314.9
					L275.3,314.9C275.4,314.9,275.4,314.9,275.3,314.9z"/>
				<path class="st15" d="M275.3,315.1h-1.3c0,0-0.1,0-0.1-0.1l0,0c0,0,0-0.1,0.1-0.1h1.3C275.4,315,275.4,315.1,275.3,315.1
					L275.3,315.1C275.4,315.1,275.4,315.1,275.3,315.1z"/>
				<path class="st15" d="M275.3,315.4h-1.3c0,0-0.1,0-0.1-0.1l0,0c0,0,0-0.1,0.1-0.1h1.3C275.4,315.3,275.4,315.3,275.3,315.4
					L275.3,315.4C275.4,315.4,275.4,315.4,275.3,315.4z"/>
				<path class="st15" d="M267.4,314.2h-0.7c-0.1,0-0.1-0.1-0.1-0.1l0,0c0-0.1,0.1-0.1,0.1-0.1h0.7c0.1,0,0.1,0.1,0.1,0.1l0,0
					C267.6,314.2,267.5,314.2,267.4,314.2z"/>
			</g>
			<g>
				<polygon class="st2" points="223.8,321.5 190.4,321.5 193.3,286.4 220.9,286.4 				"/>
				<rect x="194.7" y="283" class="st4" width="24.9" height="3.4"/>
				<polygon class="st3" points="207.1,275.9 190.4,283 223.8,283 				"/>
				<rect x="194.7" y="283" class="st17" width="24.9" height="3.4"/>
				<path class="st15" d="M208.8,295.5v-3.4c0-0.8-0.8-1.5-1.7-1.5l0,0c-1,0-1.7,0.7-1.7,1.5v3.4H208.8z"/>
				<path class="st15" d="M208.8,306.4V303c0-0.8-0.8-1.5-1.7-1.5l0,0c-1,0-1.7,0.7-1.7,1.5v3.4H208.8z"/>
				<path class="st15" d="M210.3,321.5v-6.4c0-1.5-1.5-2.7-3.2-2.7l0,0c-1.8,0-3.2,1.2-3.2,2.7v6.4H210.3z"/>
				<ellipse class="st15" cx="207.1" cy="284.9" rx="3.1" ry="2.6"/>
				<g id="wings">
					<g>
						<g>
							<polygon class="st15" points="231.5,309.6 215.1,295.8 220.1,291.6 236.5,305.4 							"/>
							<polygon class="st15" points="223,298.8 207.4,285.7 208.1,285.1 223.6,298.3 							"/>
						</g>
						<g>
							<polygon class="st15" points="182.7,260.2 199.1,274 194.1,278.2 177.7,264.4 							"/>
							<polygon class="st15" points="191.2,271 206.8,284.1 206.2,284.6 190.6,271.5 							"/>
						</g>
					</g>
					<g>
						<g>
							<polygon class="st15" points="177.7,305.4 194.1,291.6 199.1,295.8 182.7,309.6 							"/>
							<polygon class="st15" points="190.6,298.3 206.2,285.1 206.8,285.7 191.2,298.8 							"/>
						</g>
						<g>
							<polygon class="st15" points="236.5,264.4 220.1,278.2 215.1,274 231.5,260.2 							"/>
							<polygon class="st15" points="223.6,271.5 208.1,284.6 207.4,284.1 223,271 							"/>
						</g>
					</g>
				</g>
			</g>
			<g>
				<g>
					<path class="st18" d="M439.8,321.5c0,0-5.9,0-6.7,0c-0.8,0-1.4-1-1.4-2.2c0-1.2,0.6-2.2,1.4-2.2c0.6,0,6.7,0,6.7,0V321.5z"/>
					<path class="st3" d="M441.1,319.4c0,1.2-0.6,2.2-1.4,2.2c-0.8,0-1.4-1-1.4-2.2c0-1.2,0.6-2.2,1.4-2.2
						C440.5,317.2,441.1,318.2,441.1,319.4z"/>
				</g>
				<g>
					<path class="st18" d="M436.1,321.5c0,0-5.9,0-6.7,0c-0.8,0-1.4-1-1.4-2.2c0-1.2,0.6-2.2,1.4-2.2c0.6,0,6.7,0,6.7,0V321.5z"/>
					<path class="st3" d="M437.4,319.4c0,1.2-0.6,2.2-1.4,2.2c-0.8,0-1.4-1-1.4-2.2c0-1.2,0.6-2.2,1.4-2.2
						C436.8,317.2,437.4,318.2,437.4,319.4z"/>
				</g>
				<g>
					<path class="st18" d="M438,317.2c0,0-5.9,0-6.7,0c-0.8,0-1.4-1-1.4-2.2c0-1.2,0.6-2.2,1.4-2.2c0.6,0,6.7,0,6.7,0V317.2z"/>
					<path class="st3" d="M439.4,315c0,1.2-0.6,2.2-1.4,2.2c-0.8,0-1.4-1-1.4-2.2c0-1.2,0.6-2.2,1.4-2.2
						C438.8,312.8,439.4,313.8,439.4,315z"/>
				</g>
			</g>
			<g>
				<g>
					<path class="st18" d="M456,321.5c0,0-5.9,0-6.7,0c-0.8,0-1.4-1-1.4-2.2c0-1.2,0.6-2.2,1.4-2.2c0.6,0,6.7,0,6.7,0V321.5z"/>
					<path class="st3" d="M457.4,319.4c0,1.2-0.6,2.2-1.4,2.2c-0.8,0-1.4-1-1.4-2.2c0-1.2,0.6-2.2,1.4-2.2
						C456.7,317.2,457.4,318.2,457.4,319.4z"/>
				</g>
				<g>
					<path class="st18" d="M452.3,321.5c0,0-5.9,0-6.7,0c-0.8,0-1.4-1-1.4-2.2c0-1.2,0.6-2.2,1.4-2.2c0.6,0,6.7,0,6.7,0V321.5z"/>
					<path class="st3" d="M453.6,319.4c0,1.2-0.6,2.2-1.4,2.2c-0.8,0-1.4-1-1.4-2.2c0-1.2,0.6-2.2,1.4-2.2
						C453,317.2,453.6,318.2,453.6,319.4z"/>
				</g>
				<g>
					<path class="st18" d="M454.2,317.2c0,0-5.9,0-6.7,0c-0.8,0-1.4-1-1.4-2.2c0-1.2,0.6-2.2,1.4-2.2c0.6,0,6.7,0,6.7,0V317.2z"/>
					<path class="st3" d="M455.6,315c0,1.2-0.6,2.2-1.4,2.2c-0.8,0-1.4-1-1.4-2.2c0-1.2,0.6-2.2,1.4-2.2
						C455,312.8,455.6,313.8,455.6,315z"/>
				</g>
			</g>
			<g>
				<g>
					<path class="st10" d="M126.4,315.5c3.7-5,12-5.6,16-0.7c0.6,0.8,1.7,1.2,2.8,1.1c3.2-0.3,5.9,0.6,8.2,2.3
						c0.8,0.6,2,0.8,2.9,0.3c1.3-0.6,3.1-0.9,4.8-0.5c0.9,0.2,1.9-0.2,2.4-0.9c2.7-4.1,9.3-4.7,12.4-1c0.6,0.7,1.5,1.1,2.5,1
						c3.6-0.3,6.5,1.5,8.8,4.3h-30.5h-5.3h-40.9c3.7-2.6,7.5-4.4,11.8-4.2C124,317.4,125.5,316.7,126.4,315.5z"/>
				</g>
				<g>
					<path class="st19" d="M136,321.5c0,0,3-2.2,9-2c0.8,0,1.6-0.2,2.2-0.6c1.4-0.9,3-1.3,4.9-1.1c0.8,0.1,1.5-0.2,2-0.8
						c2.7-3.3,8.4-2.8,10.7,0.7c0.5,0.7,1.4,1,2.4,1c2.9-0.2,5.5,1,7.9,2.8H136z"/>
				</g>
			</g>
			<g>
				<path class="st15" d="M512.1,321.5l0.2-11.8c0,0-4.2-1.1-4.6-6.4h0.6c0,0,0.5,4.1,4,4.7v-3.3h1.2l0.5,16.7H512.1z"/>
				<path class="st4" d="M508.2,304.2c-2.2-0.8-4.3-2-5.9-3.1c-0.4-0.3-0.7-0.5-1.1-0.8c-0.8-0.6-1.6-1.4-2.1-2.2
					c-1.2-1.9-1.1-4.3-0.2-6.3c0.7-1.7,1.9-3.3,3.3-4.7c1.4-1.5,2.9-3,4.7-4.1c2.2-1.4,4.9-2.2,7.5-1.5c2.6,0.7,4.9,2.6,6.6,4.4
					c1.8,1.9,3.4,4.1,3.7,6.6c0.5,4-2.1,7.7-5.1,10.6C516.5,306,512.1,305.7,508.2,304.2z"/>
			</g>
			<g>
				<path class="st15" d="M528.9,321.5l0.1-9.6c0,0-4.5-1.2-4.9-6.7l0.6,0.2c0,0,0.6,4.7,4.4,5.2l0-3.8h1.1l0.1,2.6
					c2.1-0.5,3.5-1.9,3.8-3.5l0.4-0.3c0,0,0.3,3.2-4.2,4.7l0.3,11.4H528.9z"/>
				<path class="st20" d="M525.5,306.2c-2-0.7-3.8-1.7-5.2-2.7c-0.3-0.2-0.6-0.5-0.9-0.7c-0.7-0.6-1.4-1.2-1.9-2
					c-1.1-1.7-1-3.8-0.2-5.6c0.6-1.5,1.7-2.9,2.9-4.2c1.3-1.3,2.5-2.6,4.1-3.6c1.9-1.2,4.3-1.9,6.7-1.4c2.3,0.6,4.4,2.3,5.9,3.9
					c1.6,1.7,3,3.7,3.3,5.8c0.5,3.5-1.9,6.8-4.5,9.4C532.9,307.8,529,307.5,525.5,306.2z"/>
			</g>
			<g>
				<path class="st15" d="M670.7,321.5l0.2-12.7c0,0-5.9-1.6-6.5-8.8l0.7,0.3c0,0,0.8,6.2,5.8,6.8l0-5h1.4l0.1,3.4
					c2.8-0.7,4.6-2.5,5-4.6l0.5-0.4c0,0,0.5,4.2-5.5,6.2l0.4,15H670.7z"/>
				<path class="st20" d="M666.2,301.3c-2.6-0.9-5-2.3-6.9-3.6c-0.4-0.3-0.8-0.6-1.2-0.9c-1-0.8-1.9-1.6-2.5-2.6
					c-1.4-2.2-1.3-5-0.2-7.4c0.9-2,2.2-3.9,3.8-5.5c1.7-1.7,3.3-3.5,5.5-4.8c2.5-1.6,5.7-2.6,8.8-1.8c3.1,0.8,5.8,3.1,7.7,5.1
					c2.1,2.2,3.9,4.8,4.3,7.7c0.6,4.7-2.5,9-5.9,12.4C675.9,303.4,670.8,303,666.2,301.3z"/>
			</g>
			<g>
				<g>
					<rect x="496.5" y="316.4" class="st0" width="51" height="0.8"/>
					<rect x="496.5" y="319.6" class="st0" width="51" height="0.8"/>
				</g>
				<g>
					<path class="st2" d="M498.4,314.5c-0.1-0.1-0.2-0.1-0.3,0l-0.8,0.8c0,0,0,0.1,0,0.1v6c0,0.1,0.1,0.1,0.2,0.1h1.6
						c0.1,0,0.2-0.1,0.2-0.1v-6c0,0,0-0.1,0-0.1L498.4,314.5z"/>
					<path class="st2" d="M501.8,314.5c-0.1-0.1-0.2-0.1-0.3,0l-0.8,0.8c0,0,0,0.1,0,0.1v6c0,0.1,0.1,0.1,0.2,0.1h1.6
						c0.1,0,0.2-0.1,0.2-0.1v-6c0,0,0-0.1,0-0.1L501.8,314.5z"/>
					<path class="st2" d="M505.2,314.5c-0.1-0.1-0.2-0.1-0.3,0l-0.8,0.8c0,0,0,0.1,0,0.1v6c0,0.1,0.1,0.1,0.2,0.1h1.6
						c0.1,0,0.2-0.1,0.2-0.1v-6c0,0,0-0.1,0-0.1L505.2,314.5z"/>
					<path class="st2" d="M508.6,314.5c-0.1-0.1-0.2-0.1-0.3,0l-0.8,0.8c0,0,0,0.1,0,0.1v6c0,0.1,0.1,0.1,0.2,0.1h1.6
						c0.1,0,0.2-0.1,0.2-0.1v-6c0,0,0-0.1,0-0.1L508.6,314.5z"/>
					<path class="st2" d="M512,314.5c-0.1-0.1-0.2-0.1-0.3,0l-0.8,0.8c0,0,0,0.1,0,0.1v6c0,0.1,0.1,0.1,0.2,0.1h1.6
						c0.1,0,0.2-0.1,0.2-0.1v-6c0,0,0-0.1,0-0.1L512,314.5z"/>
					<path class="st2" d="M515.4,314.5c0,0-0.1-0.1-0.2-0.1c-0.1,0-0.1,0-0.2,0.1l-0.8,0.8c0,0,0,0.1,0,0.1v6c0,0.1,0.1,0.1,0.2,0.1
						h0h1.6h0c0.1,0,0.2-0.1,0.2-0.1v-6c0,0,0-0.1,0-0.1L515.4,314.5z"/>
					<path class="st2" d="M518.8,314.5c0,0-0.1-0.1-0.2-0.1c-0.1,0-0.1,0-0.2,0.1l-0.8,0.8c0,0,0,0.1,0,0.1v6c0,0.1,0.1,0.1,0.2,0.1
						h0h1.6h0c0.1,0,0.2-0.1,0.2-0.1v-6c0,0,0-0.1,0-0.1L518.8,314.5z"/>
					<path class="st2" d="M522.2,314.5c0,0-0.1-0.1-0.2-0.1c-0.1,0-0.1,0-0.2,0.1l-0.8,0.8c0,0,0,0.1,0,0.1v6c0,0.1,0.1,0.1,0.2,0.1
						h0h1.6h0c0.1,0,0.2-0.1,0.2-0.1v-6c0,0,0-0.1,0-0.1L522.2,314.5z"/>
					<path class="st2" d="M525.6,314.5c0,0-0.1-0.1-0.2-0.1c-0.1,0-0.1,0-0.2,0.1l-0.8,0.8c0,0,0,0.1,0,0.1v6c0,0.1,0.1,0.1,0.2,0.1
						h0h1.6h0c0.1,0,0.2-0.1,0.2-0.1v-6c0,0,0-0.1,0-0.1L525.6,314.5z"/>
					<path class="st2" d="M529,314.5c0,0-0.1-0.1-0.2-0.1c-0.1,0-0.1,0-0.2,0.1l-0.8,0.8c0,0,0,0.1,0,0.1v6c0,0.1,0.1,0.1,0.2,0.1h0
						h1.6h0c0.1,0,0.2-0.1,0.2-0.1v-6c0,0,0-0.1,0-0.1L529,314.5z"/>
					<path class="st2" d="M532.4,314.5c-0.1-0.1-0.2-0.1-0.3,0l-0.8,0.8c0,0,0,0.1,0,0.1v6c0,0.1,0.1,0.1,0.2,0.1h1.6
						c0.1,0,0.2-0.1,0.2-0.1v-6c0,0,0-0.1,0-0.1L532.4,314.5z"/>
					<path class="st2" d="M535.8,314.5c-0.1-0.1-0.2-0.1-0.3,0l-0.8,0.8c0,0,0,0.1,0,0.1v6c0,0.1,0.1,0.1,0.2,0.1h1.6
						c0.1,0,0.2-0.1,0.2-0.1v-6c0,0,0-0.1,0-0.1L535.8,314.5z"/>
					<path class="st2" d="M539.2,314.5c-0.1-0.1-0.2-0.1-0.3,0l-0.8,0.8c0,0,0,0.1,0,0.1v6c0,0.1,0.1,0.1,0.2,0.1h1.6
						c0.1,0,0.2-0.1,0.2-0.1v-6c0,0,0-0.1,0-0.1L539.2,314.5z"/>
					<path class="st2" d="M542.6,314.5c-0.1-0.1-0.2-0.1-0.3,0l-0.8,0.8c0,0,0,0.1,0,0.1v6c0,0.1,0.1,0.1,0.2,0.1h1.6
						c0.1,0,0.2-0.1,0.2-0.1v-6c0,0,0-0.1,0-0.1L542.6,314.5z"/>
					<path class="st2" d="M546.8,315.3l-0.8-0.8c-0.1-0.1-0.2-0.1-0.3,0l-0.8,0.8c0,0,0,0.1,0,0.1v6c0,0.1,0.1,0.1,0.2,0.1h1.6
						c0.1,0,0.2-0.1,0.2-0.1L546.8,315.3C546.8,315.4,546.8,315.4,546.8,315.3z"/>
				</g>
			</g>
			<g>
				<g>
					<path class="st21" d="M652.9,315.5c3.7-5,12-5.6,16-0.7c0.6,0.8,1.7,1.2,2.8,1.1c3.2-0.3,5.9,0.6,8.2,2.3
						c0.8,0.6,2,0.8,2.9,0.3c1.3-0.6,3.1-0.9,4.8-0.5c0.9,0.2,1.9-0.2,2.4-0.9c2.7-4.1,9.3-4.7,12.4-1c0.6,0.7,1.5,1.1,2.5,1
						c3.6-0.3,6.5,1.5,8.8,4.3h-30.5H678h-40.9c3.7-2.6,7.5-4.4,11.8-4.2C650.5,317.4,652,316.7,652.9,315.5z"/>
				</g>
				<g>
					<path class="st19" d="M662.5,321.5c0,0,3-2.2,9-2c0.8,0,1.6-0.2,2.2-0.6c1.4-0.9,3-1.3,4.9-1.1c0.8,0.1,1.5-0.2,2-0.8
						c2.7-3.3,8.4-2.8,10.7,0.7c0.5,0.7,1.4,1,2.4,1c2.9-0.2,5.5,1,7.9,2.8H662.5z"/>
				</g>
			</g>
			<g>
				<rect x="361.3" y="308.3" class="st2" width="60.3" height="13.2"/>
				<polygon class="st4" points="337.6,321.5 361.3,321.5 361.3,308.3 349.5,297.2 337.6,308.3 				"/>
				<polygon class="st3" points="361.3,308.3 421.7,308.3 409.8,297.2 349.5,297.2 				"/>
				<g>
					<rect x="365" y="311.8" class="st15" width="2.9" height="2.2"/>
					<rect x="406.8" y="311.8" class="st15" width="2.9" height="2.2"/>
					<rect x="415.1" y="311.8" class="st15" width="2.9" height="2.2"/>
					<rect x="373.4" y="311.8" class="st15" width="2.9" height="2.2"/>
					<rect x="381.7" y="311.8" class="st15" width="2.9" height="2.2"/>
					<rect x="390.1" y="311.8" class="st15" width="2.9" height="2.2"/>
					<rect x="398.4" y="311.8" class="st15" width="2.9" height="2.2"/>
				</g>
				<rect x="341.6" y="311.8" class="st15" width="2.2" height="6"/>
				<rect x="348.4" y="311.8" class="st15" width="2.2" height="6"/>
				<rect x="355.2" y="311.8" class="st15" width="2.2" height="6"/>
			</g>
			<path class="st15" d="M408.7,318.4c-0.8,0-1.6,0.2-2.2,0.6c-0.7,0.4-1.6,0.5-2.3-0.3c-1.2-1.5-3.2-2.4-5.5-2.4
				c-2.5,0-4.7,1.2-5.9,2.9c-0.4,0.6-1.1,0.8-1.9,0.4c-0.4-0.2-0.9-0.3-1.4-0.3c-1.5,0-2.8,1-2.9,2.3h18.1h0.6h7.4
				C412.5,319.8,410.8,318.4,408.7,318.4z"/>
			<g>
				<rect x="317.3" y="308.3" class="st2" width="28.3" height="13.2"/>
				<polygon class="st4" points="293.5,321.5 317.3,321.5 317.3,308.3 305.4,297.2 293.5,308.3 				"/>
				<polygon class="st3" points="317.3,308.3 345.6,308.3 333.7,297.2 305.4,297.2 				"/>
				<g>
					<rect x="321" y="311.8" class="st15" width="2.9" height="6"/>
					<rect x="330" y="311.8" class="st15" width="2.9" height="6"/>
					<rect x="339.1" y="311.8" class="st15" width="2.9" height="6"/>
				</g>
				<rect x="297.5" y="311.8" class="st15" width="2.2" height="6"/>
				<rect x="304.3" y="311.8" class="st15" width="2.2" height="6"/>
				<rect x="311.1" y="311.8" class="st15" width="2.2" height="6"/>
			</g>
		</g>
		<path class="st14" d="M66.7,372.8c42.3-8.1,63.1-9.5,106.2-9.2c26.9,1.6,78.4,3.7,103,0.4c16.2-2.6,3-8.4-3-9.3
			c-6-0.9-18.8-1.8-37-2c-38.8-0.4-90.8-1.5-70.9-15.4c21.6-9.4,72.9-5.5,72.9-5.5s19.9,1.1,20.7-2c-0.6-7.9-46.1,0.6-52.1-8.3h1.1
			c7.8,7.6,56-2.3,53.8,9c-1.7,5.1-23.7,3.8-23.7,3.8s-52.4-3-68,4.8c-21.4,15.2,91.8,5.1,113.9,12.4c10.9,3.2,16.5,12.3,5,16.6
			c-27.1,7.9-109.2,3.7-109.2,3.7s-69.5-2.1-111.1,6.2L66.7,372.8z"/>
		<g>
			<g>
				<path class="st9" d="M800,263.9l-12.9-47.3c-2.2-7.3-9.3-6.9-11.1,0l-12.2,44.6l7.6,2.7c1.7,0.6,1.1,2.3-0.7,2.3l-8.2-0.1
					l-29.7,108.9l17.1,6.5c1.9,1,1.6,2.6-0.9,2.4l-18.6-0.2l-18,66.2H800V263.9z"/>
				<path class="st22" d="M695.6,420.5l-10.6-0.1l-9,29.6h76.3l-17.3-57.1l-6.1,0.1c-1.2-0.1-1.3-0.8-0.5-1.2l5.4-2.6l-16.5-54.7
					c-1.3-3.7-5.3-3.6-6.3,0l-7,22.9l4.3,1.4c0.9,0.3,0.6,1.2-0.4,1.2l-4.7,0l-17,56l9.8,3.3C697.3,419.7,697,420.6,695.6,420.5z"/>
			</g>
			<g>
				<path class="st9" d="M269.8,450c-4-10-13.6-17.8-24.5-21.4c-6.3-2.1-12.9-2.9-19.6-2.8c-15.3,0.4-4.5-10.2-3.6-15.1
					c1-5.4-0.9-10.9-4.9-15.1c-6.7-7.1-18.3-9.7-28.7-8.8c-0.5,0-1,0.1-1.6,0.2c-2,0.3-4,0.7-6,1.3c-4,1.3-6.3-1.1-3.7-5.8
					c15.3-26.6-17-65.2-57.3-54.3c-9.3,3.3-16.7,7.2-22.9,12.6c-2.6,2.1-4.2,0.9-3.7-1.1c6.3-22.4-19-33.1-37.4-23.5
					c-4.5,2.4-10.4-0.2-10.5-4.7c-0.4-22.1-17.1-38.3-44.7-24.5c-0.3,0.1-0.5,0.2-0.8,0.3V450H269.8z"/>
				<path class="st22" d="M158.5,450c-2.5-5.7-8-10.2-14.3-12.2c-4.8-1.6-10-1.9-15.2-1.4c-3,0.3-5.7-1.6-6-4.2
					c-0.5-4.8-4.6-9.6-9.7-11.3c-3.3-1.1-6.7-1.3-10.2-0.9c-3.5,0.5-4.3-1.4-2-4.2c1.2-1.6,2.2-3.3,3-5.1c9-15.7-10-38.4-33.7-32
					c-4.1,1.5-7.9,3.6-11.3,6.2c-2.8,1.9-5.3,1.4-5.1-1.7c0.2-10.6-11-16.3-20.5-12c-2.8,1.3-6.1-0.4-6.1-3.1
					c0.2-15.6-15.3-23.8-27.4-20.1V450H158.5z"/>
				<path class="st9" d="M236.5,423.3c-4.3,0.4-7.9-2.1-7.9-2.1s3.4-3.2,7.8-3.7c4.3-0.4,7.9,2.1,7.9,2.1S240.9,422.9,236.5,423.3z"
					/>
				<path class="st22" d="M41.7,360.1c-3.2,4.8-10.1,6.3-10.1,6.3s-1.7-6.4,1.5-11.2c3.2-4.8,10.1-6.3,10.1-6.3
					S44.9,355.2,41.7,360.1z"/>
				<path class="st9" d="M235.2,410.6c-2.4,4.9-8.6,7.5-8.6,7.5s-2.2-5.3,0.2-10.1c2.4-4.9,8.6-7.5,8.6-7.5S237.6,405.8,235.2,410.6
					z"/>
			</g>
		</g>
		<g>
			<g>
				<path class="st15" d="M644,430.2l0.5-31.1c0,0-14.5-3.8-15.9-21.6l1.8,0.7c0,0,2,15,14.1,16.6l0-12.3h3.5l0.2,8.3
					c6.7-1.7,11.2-6.1,12.2-11.3l1.3-1.1c0,0,1.1,10.3-13.4,15.1l1,36.7H644z"/>
				<path class="st23" d="M632.8,380.7c-6.4-2.3-12.3-5.6-16.9-8.8c-1-0.7-2-1.5-3-2.2c-2.4-1.8-4.5-3.9-6-6.3
					c-3.4-5.5-3.1-12.2-0.6-18c2.1-4.9,5.4-9.5,9.3-13.5c4.1-4.2,8.2-8.5,13.4-11.8c6.2-3.9,13.9-6.3,21.6-4.4
					c7.5,1.9,14.1,7.5,18.9,12.6c5.1,5.5,9.7,11.9,10.6,18.9c1.5,11.4-6,21.9-14.6,30.2C656.8,385.8,644.1,384.8,632.8,380.7z"/>
				<polygon class="st15" points="642.5,361.1 635.6,352.8 628.6,351.8 628.8,351.2 634.3,351.2 631.1,346.3 631.8,345.9 
					642.6,357.9 				"/>
			</g>
			<g>
				<path class="st19" d="M625.6,432c0,0,3-2.2,9-2c0.8,0,1.6-0.2,2.2-0.6c1.4-0.9,3-1.3,4.9-1.1c0.8,0.1,1.5-0.2,2-0.8
					c2.7-3.3,8.4-2.8,10.7,0.7c0.5,0.7,1.4,1,2.4,1c2.9-0.1,5.5,1,7.9,2.8H625.6z"/>
			</g>
		</g>
	</g>
</g>
</svg>
