<?xml version="1.0" encoding="utf-8"?>
<!-- Generator: Adobe Illustrator 22.0.1, SVG Export Plug-In . SVG Version: 6.00 Build 0)  -->
<svg version="1.1" xmlns="http://www.w3.org/2000/svg" xmlns:xlink="http://www.w3.org/1999/xlink" x="0px" y="0px" height="450px" width="800px"
	 viewBox="0 0 800 450" style="enable-background:new 0 0 800 450;" xml:space="preserve">
<style type="text/css">
	.st0{fill:#C6DBFF;}
	.st1{clip-path:url(#SVGID_2_);}
	.st2{opacity:0.2;fill:#FFFFFF;}
	.st3{opacity:0.3;fill:#FFFFFF;}
	.st4{fill:#94B4EF;}
	.st5{fill:#DBE6FF;}
	.st6{opacity:0.3;fill:#94B4EF;}
	.st7{opacity:0.5;fill:#BAC5DE;}
	.st8{fill:#112D4E;}
	.st9{fill:#214570;}
	.st10{fill:#305D91;}
	.st11{fill:#E8F0FF;}
	.st12{fill:#D7E3F7;}
	.st13{fill:#B7C8E8;}
	.st14{fill:#DEEAFF;}
	.st15{fill:#4972B8;}
	.st16{fill:#5D85CF;}
	.st17{fill:#446AAB;}
	.st18{fill:#D6E8FF;}
	.st19{fill:#DBE2EF;}
	.st20{opacity:0.5;fill:#DBE2EF;}
	.st21{fill:#1E4778;}
	.st22{fill:#5A7CB8;}
	.st23{fill:#6F91CF;}
	.st24{fill:#E3EFFF;}
	.st25{fill:#3467A3;}
	.st26{fill:#4780C4;}
	.st27{fill:#FFFFFF;}
	.st28{fill:#2B65AB;}
	.st29{fill:#23538C;}
	.st30{fill:#25568F;}
	.st31{fill:#6392C9;}
	.st32{opacity:0.5;fill:#6392C9;}
	.st33{fill:#4274AD;}
	.st34{opacity:0.5;fill:#365F8F;}
	.st35{opacity:0.5;fill:#4274AD;}
	.st36{fill:#265285;}
	.st37{fill:none;stroke:#FFFFFF;stroke-miterlimit:10;}
	.st38{fill:#B0B0B0;}
	.st39{fill:#0A3261;}
	.st40{fill:none;stroke:#B0B0B0;stroke-miterlimit:10;}
	.st41{fill:#264569;}
	.st42{fill:#E3EEFA;}
	.st43{fill:none;stroke:#94B4EF;stroke-miterlimit:10;}
	.st44{opacity:0.5;fill:#3467A3;}
	.st45{fill:#7A9FE6;}
	.st46{opacity:0.3;fill:#4780C4;}
	#snow{
	animation : throw 30s ease-in-out infinite;
	animation-fill-mode : forwards
	}
	@keyframes throw{
	0%{
	transform : translateY(-350px)
	}
	100%{
	transform : translateY(730px)
	}
	}
	#clouds{
	animation : pass 30s ease-in-out infinite;
	/*transform : translateX(500px);*/
	animation-fill-mode : forwards
	}
	@keyframes pass{
	0%{
	transform : translateX(800px);
	}
	100%{
	transform : translateX(-950px);
	}
	}
	#plant1 ,#plant2 ,#plant3{
	animation : swip 10s ease infinite;
	transform-origin : center;
	transform-box : fill-box
	}
    @keyframes swip{
    0%{
    transform : rotate(10deg)
    }
    50%{
    transform : rotate(-10deg)
    }
    100%{
    transform : rotate(10deg)
    }
    }
</style>
<g id="BACKGROUND">
	<rect class="st0" width="800" height="454.3"/>
</g>
<g id="OBJECTS">
	<g>
		<defs>
			<rect id="SVGID_1_" width="800" height="452.5"/>
		</defs>
		<clipPath id="SVGID_2_">
			<use xlink:href="#SVGID_1_"  style="overflow:visible;"/>
		</clipPath>
		<g id="view" class="st1">
			<path class="st2" d="M830.4,123.2C535.8,121,241.1,126.9-53,140.7c1.5,5.8,2.1,11,3.6,16.8c205.3-15.8,411.3-23.9,617.4-24.3
				c93.2-0.2,181.7,8.1,274.7,12.5c0-1.7,0-3.3,0-5c-31.1-2.6-62.2-5.1-93.2-7.7c41.1,0.8,82.2-1.5,122.8-6.9
				C859.1,126.1,843.4,123.3,830.4,123.2z"/>
			<path class="st3" d="M483.2,145.9c-61.6,9.3-123.2,18.7-184.8,28c165.8-7.3,331.7-14.6,497.5-21.9c11.8-0.5,24.1-0.9,34.7,3.5
				s18.1,15.7,13,24.7c-294.1,16.2-589,29.5-883.5,19c57.7-15.1,118.4-22.1,178.7-20.5c-74.5-0.1-149-0.1-223.6-0.2
				c15.3,0,32-8.4,47.3-10.3c17.4-2.1,35.5-2.5,53.1-3.8c37.2-2.8,74.5-5.3,111.8-7.5c75.5-4.4,151.2-7.5,226.9-9.3
				C397.2,146.7,440.2,146.1,483.2,145.9z"/>
			<path class="st4" d="M554.6,123.8c22.4-11.8,47.6-23,73.8-20.5c22.9,2.1,42.6,14.4,61,26.1C759.3,174,829,218.6,898.8,263.2
				c10.2,6.5,21.5,15.2,19.8,25.9c-1.6,9.9-13.5,15.8-24.3,19.7c-75.4,27.1-160,26.8-241.9,26c-104.8-1-209.6-1.9-314.2-8.4
				c-10.9-0.7-23.9-2.6-28.1-11.2c-3.9-8,2.3-16.7,8.5-23.5c22.6-25.2,47.4-44.2,75.4-64.5c32.9-23.8,66.3-47.4,101.1-69.1
				C514.5,146,534.3,134.5,554.6,123.8z"/>
			<path class="st5" d="M569.2,110.4c24.7-9.9,53.4-14.7,79.7-8.2c13.8,3.4,26.2,9.7,38.2,16.4c12.4,6.9,24.5,14.2,36.2,21.9
				c3,2,6.2,4.3,7.1,7.4c1.5,5.5-4.8,10.5-11.3,11.9c-19.3,4.1-37.7-11.7-57.4-10.1c-8.6,0.7-16.5,4.7-25.1,5.3
				c-13.4,1-25.7-6.1-38.8-8.5c-28.6-5.2-56.7,12.1-86,11.5c-5.9-0.1-15.5-3.4-9.9-9.1c1.9-2,6.5-3.6,9-5.3c3.7-2.5,7.4-5,11.1-7.5
				C536.8,126.4,552.2,117.2,569.2,110.4z"/>
			<path class="st6" d="M898.8,263.2c-56.7-36.2-113.4-72.5-170.1-108.7c1.6-1.9,2.4-4.1,1.7-6.5c-0.9-3.2-4.1-5.4-7.1-7.4
				c-11.7-7.7-23.8-15-36.2-21.9c-12-6.7-24.5-13-38.2-16.4c-15.7-3.9-32.3-3.8-48.4-0.9c18.2,6.9,30.7,19.7,40.2,36
				c10.8,18.7,16.6,39.1,26.6,58.1c23.5,44.5,69.4,79.1,88.5,125.1c1.7,4.2,3.3,8.5,4.8,12.8c46.1-2.7,91.4-9.3,133.8-24.5
				c10.8-3.9,22.7-9.8,24.3-19.7C920.3,278.4,909,269.7,898.8,263.2z"/>
			<path class="st4" d="M200.6,132.7c28.2-18.8,60-38.7,95.8-36.5c29.1,1.8,53.8,17.8,76.6,33.2c74.8,50.5,149.6,101,224.4,151.5
				c4.7,3.2,9.9,7.1,9.6,12.2c-0.3,7.5-11.2,10.7-19.9,11.8c-169.4,22.6-341.9,28.8-512.9,18.4c-28.7-1.7-57.5-4-85.8-8.4
				c-24-3.8-23.8-18.9-10.9-33.7c8-9.2,21.1-13.9,31.7-20.6c41.4-26.3,81.4-54.4,122-81.5C154.4,163.7,177.5,148.2,200.6,132.7z"/>
			<path class="st5" d="M235,108c13-6.9,27.1-12.9,42.3-15.1c20.1-2.9,40.9,1.3,59.3,8.7c18.4,7.5,33.7,20.7,49.5,31.7
				c6.2,4.3,10.5,7.8,15.8,12.8c1.5,1.4,2.8,2.8,3.9,3.9c1.9,2,0.8,4.9-2,5.8c-8.9,2.6-24.5,5.8-28.9,5.6
				c-24.1-1-45.2-17.3-69.4-16.2c-10,0.4-19.8,3.9-29.6,2.5c-6.5-0.9-12.4-3.8-18.7-5.2c-14.8-3.3-30.3,1.4-44.3,6.6
				c-14.3,5.3-29.2,11.2-44.8,9.5c-1-0.1-1.9-0.4-2.6-1c-5.7-4.2,7.5-9.6,10.2-11.1c5.3-3.1,9.9-7,14.9-10.4
				C204.8,126.1,219.3,116.3,235,108z"/>
			<path class="st7" d="M597.5,280.9c-63.6-42.9-127.1-85.8-190.7-128.7c0-0.8-0.3-1.6-0.9-2.2c-1.1-1.1-2.4-2.4-3.9-3.9
				c-5.4-5-9.6-8.5-15.8-12.8c-15.8-10.9-31.1-24.2-49.5-31.7c-17.1-7-36.4-11-55.2-9.2c12,8.9,22.6,13.7,29.5,28.3
				c6.1,12.8,8.8,26.6,14.9,39.4c10.5,21.9,30.2,39.9,41.9,61.4c15.5,28.7,15.6,61.6,27,91.7c1.3,3.4,2.7,6.7,4.4,10
				c63-3.9,125.8-10,188.2-18.3c8.7-1.2,19.6-4.3,19.9-11.8C607.3,288.1,602.2,284.1,597.5,280.9z"/>
			<path class="st8" d="M418.7,286.3c2.6-0.9,6,0,7.4,2.1c0.1-1.2,1.2-2.3,2.6-2.6c1.4-0.3,2.9,0.3,3.7,1.3c0-1.9,0.5-3.8,1.7-5.3
				c1.3-1.5,3.4-2.6,5.6-2.5c2.2,0.1,4.3,1.5,4.7,3.3c0.6-0.8,1.2-1.7,2-2.3c0.9-0.6,2-1,3.1-0.8c1.1,0.2,2.1,1.1,2,2
				c1-1.3,3.3-1.7,5-1c1.7,0.7,2.7,2.3,2.7,3.9s-0.8,3.1-2,4.3c-1.2,1.2-2.7,2.2-4.3,3c-9,4.8-20.1,6.5-30.5,4.8
				c-1.6-0.3-3.3-0.6-4.6-1.5C414.2,292.9,414.3,287.8,418.7,286.3z"/>
			<path class="st8" d="M459.4,278.2c-0.4-1.3-0.5-2.9,0.9-3.5c1.3-0.5,2.9,0.5,3.6,1.6c0.7,1.1,1.1,2.4,2.2,3.2
				c-0.5-3.3,0.1-6.8,1.7-9.9c0.6-1.1,1.7-2.4,3.2-2.2c1.2,0.1,2,1.3,2.4,2.3c1.1,2.9,1.2,6,0.1,8.9c0.5-1.2,1-2.4,2.1-3.2
				c1.1-0.9,2.8-1.2,4-0.5c0.9,0.5,1.3,1.6,1.1,2.5c-0.1,0.9-0.7,1.8-1.3,2.6c-1.7,2.2-3.9,4.1-6.6,5.6c-1.5,0.9-3.3,1.6-5.2,1.5
				C463.4,286.9,460.4,281.2,459.4,278.2z"/>
			<g>
				<polygon class="st9" points="502.7,283.2 490.7,283.2 492.5,265.2 500.9,265.2 				"/>
				<path class="st10" d="M514.7,261.1c0,0-9.6-6.4-9.6-13.9c0-4.9-2.8-7.4-5.2-8.6c-2-1-4.4-1-6.4,0c-2.4,1.2-5.2,3.6-5.2,8.6
					c0,7.5-9.6,13.9-9.6,13.9s-4.6,2.8-2.1,5.7s6.7-1.1,6.7-1.1s-4.2,5,0.8,7.1c5,2.1,6.3-4.6,6.3-4.6s0,7.1,6.3,7.1
					c6.3,0,6.3-7.1,6.3-7.1s1.3,6.8,6.3,4.6c5-2.1,0.8-7.1,0.8-7.1s4.2,3.9,6.7,1.1C519.4,264,514.7,261.1,514.7,261.1z"/>
				<path class="st9" d="M510.4,249c0,0-7.3-4.8-7.3-10.5c0-3.7-2.1-5.6-3.9-6.5c-1.5-0.7-3.4-0.7-4.9,0c-1.8,0.9-3.9,2.7-3.9,6.5
					c0,5.7-7.3,10.5-7.3,10.5s-3.5,2.2-1.6,4.3c1.9,2.2,5.1-0.8,5.1-0.8s-3.2,3.8,0.6,5.4c3.8,1.6,4.8-3.5,4.8-3.5s0,5.4,4.8,5.4
					c4.8,0,4.8-5.4,4.8-5.4s1,5.1,4.8,3.5c3.8-1.6,0.6-5.4,0.6-5.4s3.2,3,5.1,0.8S510.4,249,510.4,249z"/>
				<path class="st10" d="M507.6,240.3c0,0-5.8-3.9-5.8-8.4c0-3-1.7-4.5-3.1-5.2c-1.2-0.6-2.7-0.6-3.9,0c-1.4,0.7-3.1,2.2-3.1,5.2
					c0,4.5-5.8,8.4-5.8,8.4s-2.8,1.7-1.3,3.4c1.5,1.7,4.1-0.6,4.1-0.6s-2.5,3,0.5,4.3c3,1.3,3.8-2.8,3.8-2.8s0,4.3,3.8,4.3
					c3.8,0,3.8-4.3,3.8-4.3s0.8,4.1,3.8,2.8s0.5-4.3,0.5-4.3s2.5,2.4,4.1,0.6C510.4,242,507.6,240.3,507.6,240.3z"/>
				<path class="st11" d="M498.3,224.9c1.4,0.4,2.6,1.3,3.3,2.6c0.5,1,0.7,2.2,0.8,3.3c0.1,0.5,0.1,1,0,1.6c-0.1,0.5-0.4,1-0.8,1.3
					c-0.9,0.5-2-0.1-2.9,0.2c-0.5,0.1-1,0.5-1.4,0.9c-0.5,0.3-1.1,0.6-1.6,0.3c-0.5-0.2-0.7-0.7-1-1.1s-0.6-0.9-1.1-0.9
					c-0.6,0-1,0.5-1.6,0.5c-0.4,0-0.7-0.3-0.8-0.6c-0.1-0.3-0.2-0.7-0.2-1C491,228.1,493.9,223.8,498.3,224.9z"/>
				<path class="st11" d="M502.6,238.5c-0.9,0.6-2.1,0.7-3.2,0.7c-0.7,0-1.1-0.1-1.4,0.5c-0.2,0.4-0.2,0.9,0.2,1.2
					c0.5,0.4,1.2,0.4,1.9,0.4c1.6-0.2,3.6-0.6,4.9-1.4c1-0.6,1.3-1.9,0.8-2.9c-0.5-1-1.7-1.6-3-1.6c0.1,0.1,0.4,0.7,0.5,0.8
					c0.1,0.3,0.2,0.5,0.2,0.8C503.5,237.5,503.1,238.1,502.6,238.5z"/>
				<path class="st11" d="M491.4,236.4c0.5,0.1,1.1,0.2,1.7,0.3s1.1,0.4,1.3,0.9c0.2,0.5-0.1,1-0.5,1.3c-0.5,0.3-1.1,0.4-1.6,0.3
					c-0.6,0-1.1-0.2-1.7-0.4c-0.7-0.2-1.5-0.5-1.9-1.1c-0.3-0.4-0.3-1,0-1.4c0.2-0.3,0.8-0.9,1.3-0.8c0.2,0.1,0.4,0.3,0.6,0.4
					C490.8,236.2,491.1,236.4,491.4,236.4z"/>
				<path class="st11" d="M487.4,247.9c1.6,1.3,3.9,2.2,6.2,2c0.4,0,0.7-0.1,1.1-0.1c0.4,0,0.7,0.1,0.9,0.4c0.2,0.3,0.2,0.7,0,1
					c-0.2,0.3-0.5,0.6-0.9,0.8c-0.6,0.4-1.4,0.7-2.1,0.9c-0.8,0.2-1.6,0.1-2.3-0.2c-0.5-0.2-0.9-0.5-1.3-0.8c-0.5-0.4-1.1-1-1.8-1.2
					c-0.7-0.2-1.4-0.3-2-0.7c-0.7-0.5-1.1-1.4-0.9-2.1c0.1-0.5,0.8-1.6,1.5-1.5c0.4,0,0.6,0.4,0.7,0.7
					C486.8,247.4,487,247.7,487.4,247.9z"/>
				<path class="st11" d="M503.6,249.1c0.7-0.4,1.3-1.1,2.1-1.3c0.8-0.2,1.8,0.1,2.2,0.8c0.4,0.6,0.3,1.5-0.3,2
					c-0.7,0.6-1.8,0.7-2.8,0.9c-0.7,0.2-1.3,0.6-2,0.9c-0.6,0.3-1.3,0.6-2.1,0.6c-1.4,0.1-3.2-1.3-1.9-2.4
					C500.1,249.6,502.2,249.9,503.6,249.1z"/>
				<path class="st12" d="M504.7,260.8c-0.8,0-1.6-0.1-2.3,0.1c-0.8,0.1-1.5,0.5-1.7,1.2c-0.1,0.5,0.1,1,0.6,1.4
					c0.4,0.4,1,0.5,1.6,0.7c2.7,0.5,5.6-0.5,7.7-2.1c0.9-0.7,1.8-1.6,2-2.6c0.1-0.8-0.3-1.6-1.1-2.1c-1.1-0.6-1.3,0.4-1.7,1
					C508.6,259.7,506.7,260.7,504.7,260.8z"/>
				<path class="st11" d="M487.4,260.1c1.5,1.1,3.4,1.7,5.4,1.7c0.5,0,1,0,1.5,0c0.5,0.1,1,0.3,1.2,0.6c0.3,0.5,0.1,1.1-0.3,1.5
					c-0.4,0.4-1.1,0.6-1.7,0.7c-1.5,0.3-3,0.2-4.5-0.2c-1-0.3-2-0.7-2.9-1.2c-0.5-0.3-1.1-0.5-1.6-0.8c-0.6-0.3-1.1-0.8-1.4-1.3
					c-0.3-0.5-0.3-1.2,0.1-1.7c0.4-0.5,1.4-0.6,2.1-0.6C486.1,259,486.8,259.6,487.4,260.1z"/>
			</g>
			<path class="st8" d="M724.7,243c2.2,0.4,4.2,1.5,5.4,3.1c0.3-0.9,1.4-1.5,2.5-1.5c1.1,0,2.1,0.7,2.4,1.6c1.4-1.9,4.2-3.2,6.8-2.8
				c2.6,0.4,4.7,2.8,4,5c-0.7,2.1-3.3,3.3-5.8,3.9c-3.7,1-7.6,1.5-11.5,1.5c-2.1,0-4.3-0.2-6.3-0.8c-2-0.6-3.8-1.8-4.8-3.4
				C714.5,245.1,719.6,242.1,724.7,243z"/>
			<g>
				<polygon class="st9" points="725.7,256.4 710.2,256.4 712.5,233.2 723.4,233.2 				"/>
				<path class="st10" d="M741.2,227.9c0,0-12.4-8.2-12.4-17.9c0-6.4-3.6-9.5-6.7-11c-2.6-1.3-5.7-1.3-8.3,0c-3,1.5-6.7,4.7-6.7,11
					c0,9.6-12.4,17.9-12.4,17.9s-5.9,3.7-2.7,7.3c3.2,3.7,8.6-1.4,8.6-1.4s-5.4,6.4,1.1,9.2c6.5,2.7,8.1-6,8.1-6s0,9.2,8.1,9.2
					s8.1-9.2,8.1-9.2s1.6,8.7,8.1,6c6.5-2.7,1.1-9.2,1.1-9.2s5.4,5,8.6,1.4C747.1,231.6,741.2,227.9,741.2,227.9z"/>
				<path class="st9" d="M735.5,212.3c0,0-9.4-6.2-9.4-13.5c0-4.8-2.7-7.2-5-8.3c-1.9-1-4.3-1-6.3,0c-2.3,1.1-5,3.5-5,8.3
					c0,7.3-9.4,13.5-9.4,13.5s-4.5,2.8-2,5.5c2.5,2.8,6.5-1,6.5-1s-4.1,4.9,0.8,6.9c4.9,2.1,6.1-4.5,6.1-4.5s0,6.9,6.1,6.9
					c6.1,0,6.1-6.9,6.1-6.9s1.2,6.6,6.1,4.5c4.9-2.1,0.8-6.9,0.8-6.9s4.1,3.8,6.5,1C740,215.1,735.5,212.3,735.5,212.3z"/>
				<path class="st10" d="M732,201.1c0,0-7.5-5-7.5-10.8c0-3.9-2.2-5.8-4-6.7c-1.6-0.8-3.5-0.8-5,0c-1.8,0.9-4,2.8-4,6.7
					c0,5.8-7.5,10.8-7.5,10.8s-3.6,2.2-1.6,4.4c2,2.2,5.2-0.8,5.2-0.8s-3.3,3.9,0.7,5.5s4.9-3.6,4.9-3.6s0,5.5,4.9,5.5
					c4.9,0,4.9-5.5,4.9-5.5s1,5.3,4.9,3.6s0.7-5.5,0.7-5.5s3.3,3.1,5.2,0.8C735.6,203.3,732,201.1,732,201.1z"/>
				<path class="st12" d="M719.9,181.3c1.8,0.5,3.4,1.7,4.2,3.3c0.7,1.3,0.9,2.8,1.1,4.3c0.1,0.7,0.2,1.3,0.1,2
					c-0.1,0.7-0.5,1.3-1.1,1.6c-1.1,0.6-2.5-0.1-3.8,0.2c-0.7,0.2-1.3,0.7-1.8,1.1c-0.6,0.4-1.4,0.7-2,0.4c-0.6-0.2-0.9-0.9-1.3-1.4
					c-0.3-0.6-0.8-1.1-1.5-1.1c-0.7,0-1.3,0.7-2,0.6c-0.5,0-0.8-0.4-1-0.8c-0.2-0.4-0.2-0.9-0.2-1.3
					C710.5,185.4,714.3,179.9,719.9,181.3z"/>
				<path class="st12" d="M725.5,198.7c-1.1,0.8-2.7,1-4.1,0.9c-0.9-0.1-1.4-0.1-1.8,0.7c-0.2,0.5-0.2,1.2,0.3,1.6
					c0.6,0.5,1.6,0.5,2.4,0.5c2-0.2,4.7-0.8,6.3-1.9c1.3-0.8,1.7-2.5,1-3.8c-0.7-1.3-2.2-2.1-3.8-2.1c0.1,0.2,0.5,0.9,0.6,1
					c0.2,0.3,0.3,0.7,0.2,1C726.6,197.5,726.2,198.3,725.5,198.7z"/>
				<path class="st12" d="M711.1,196.1c0.7,0.2,1.4,0.2,2.1,0.4c0.7,0.2,1.4,0.5,1.6,1.1c0.2,0.6-0.1,1.3-0.7,1.7
					c-0.6,0.4-1.4,0.5-2.1,0.4c-0.7-0.1-1.4-0.3-2.1-0.5c-0.9-0.3-2-0.6-2.5-1.4c-0.4-0.6-0.3-1.3,0-1.8c0.3-0.4,1-1.1,1.7-1
					c0.3,0.1,0.5,0.4,0.7,0.6C710.3,195.8,710.7,196,711.1,196.1z"/>
				<path class="st12" d="M705.9,211c2.1,1.6,5.1,2.8,8,2.6c0.5,0,0.9-0.1,1.4-0.1c0.5,0,0.9,0.2,1.2,0.5c0.3,0.4,0.3,0.9,0,1.3
					c-0.3,0.4-0.7,0.7-1.1,1c-0.8,0.5-1.7,0.9-2.7,1.1c-1,0.2-2.1,0.1-3-0.3c-0.6-0.3-1.1-0.7-1.6-1.1c-0.7-0.6-1.4-1.3-2.3-1.6
					c-0.9-0.2-1.8-0.4-2.6-0.9c-0.9-0.6-1.4-1.7-1.2-2.7c0.1-0.7,1-2,2-1.9c0.5,0.1,0.7,0.6,0.9,0.9
					C705.1,210.2,705.5,210.6,705.9,211z"/>
				<path class="st12" d="M726.8,212.5c0.9-0.5,1.6-1.4,2.7-1.7c1.1-0.3,2.3,0.2,2.8,1c0.5,0.8,0.3,1.9-0.4,2.6
					c-0.9,0.8-2.4,0.8-3.6,1.2c-0.9,0.3-1.7,0.7-2.5,1.1c-0.8,0.4-1.7,0.8-2.7,0.8c-1.8,0.1-4.1-1.7-2.4-3.1
					C722.3,213.1,725.1,213.5,726.8,212.5z"/>
				<path class="st12" d="M728.3,227.5c-1,0-2-0.1-3,0.1c-1,0.2-2,0.7-2.2,1.5c-0.2,0.6,0.2,1.3,0.7,1.8c0.6,0.5,1.3,0.7,2.1,0.9
					c3.5,0.7,7.2-0.6,9.9-2.7c1.2-0.9,2.3-2,2.5-3.4c0.1-1-0.4-2.1-1.4-2.7c-1.4-0.8-1.6,0.5-2.2,1.3
					C733.3,226.1,730.8,227.4,728.3,227.5z"/>
				<path class="st12" d="M706,226.6c1.9,1.4,4.4,2.2,7,2.2c0.6,0,1.3-0.1,1.9,0c0.6,0.1,1.3,0.4,1.6,0.8c0.4,0.6,0.1,1.4-0.4,1.9
					s-1.4,0.8-2.2,0.9c-1.9,0.4-3.9,0.3-5.7-0.2c-1.3-0.4-2.5-0.9-3.7-1.5c-0.7-0.3-1.4-0.7-2.1-1.1c-0.7-0.4-1.4-1-1.8-1.7
					c-0.4-0.7-0.4-1.6,0.1-2.2c0.5-0.7,1.8-0.8,2.7-0.7C704.3,225.2,705.2,225.9,706,226.6z"/>
			</g>
			<path class="st13" d="M730.8,248.4c44.7-2.6,93.7-2.5,129.1,20.7c40.2,26.4,50,77.9,30,117.6c-19.9,39.7-64.3,67.9-112.3,82.1
				c-48,14.2-99.9,16-150.8,15.3c-84.4-1.2-168.5-9-252.2-18.6c-27.7-3.2-55.9-6.7-80.6-17.8c-24.7-11-45.6-31.1-47.6-54.8
				c-2.1-25,17.3-48.4,42.1-62c24.6-13.5,52.1-16.8,79.3-24.3c25.8-7.1,51.6-13.9,77.9-19.6c60-13,120.9-23,182.3-30
				C662.2,253.4,696.4,250.4,730.8,248.4z"/>
			<path class="st8" d="M337.4,281.7c3.2-0.8,7,0.8,8,3.5c1.7-4.9,7.6-8.5,13.6-8.4c6,0.1,11.7,3.9,13.2,8.8c2.2-4,8.1-6.1,13-4.7
				c4.9,1.4,8.1,6.2,7,10.4c2-1.5,5.1-1.6,7.2-0.3c2.1,1.3,3,3.8,2,5.9c-1.1,2.3-3.9,3.5-6.6,4.4c-14.2,4.8-30.4,4.9-44.7,0.4
				c-5.5-1.7-11.1-4.4-14.5-8.6C332.7,289.6,330.9,283.5,337.4,281.7z"/>
			<path class="st8" d="M228.4,266c3.5-1.4,8.1-0.2,10.1,2.7c0.4-1.7,2.2-3,4.2-3.1c2-0.1,4,1.1,4.6,2.7c0.3-5.5,6.3-10.4,12.9-10.5
				c6.5-0.1,12.6,4.7,13.1,10.3c2.7-1.8,6.8-1.5,9.4,0.4c2.6,1.9,3.5,5.1,2.7,7.9c-0.8,2.8-3.3,5.1-6.3,6.5c-3.6,1.6-7.9,1.9-12,2
				c-9.3,0.1-18.5-0.5-27.6-2c-3.2-0.5-6.5-1.2-9.2-2.7C224.7,277.2,220.5,269.2,228.4,266z"/>
			<g>
				<polygon class="st9" points="334.6,309 319.4,309 321.7,286.1 332.4,286.1 				"/>
				<path class="st10" d="M349.9,280.9c0,0-12.2-8.1-12.2-17.6c0-6.3-3.6-9.4-6.6-10.9c-2.5-1.3-5.6-1.3-8.1,0
					c-3,1.5-6.6,4.6-6.6,10.9c0,9.5-12.2,17.6-12.2,17.6s-5.9,3.6-2.7,7.2c3.2,3.6,8.5-1.4,8.5-1.4s-5.3,6.3,1.1,9
					c6.4,2.7,8-5.9,8-5.9s0,9,8,9c8,0,8-9,8-9s1.6,8.6,8,5.9c6.4-2.7,1.1-9,1.1-9s5.3,5,8.5,1.4
					C355.7,284.5,349.9,280.9,349.9,280.9z"/>
				<path class="st9" d="M344.3,265.5c0,0-9.3-6.1-9.3-13.3c0-4.7-2.7-7.1-5-8.2c-1.9-1-4.3-1-6.2,0c-2.3,1.1-5,3.5-5,8.2
					c0,7.2-9.3,13.3-9.3,13.3s-4.4,2.7-2,5.5c2.4,2.7,6.4-1,6.4-1s-4,4.8,0.8,6.8c4.8,2,6-4.4,6-4.4s0,6.8,6,6.8s6-6.8,6-6.8
					s1.2,6.5,6,4.4c4.8-2,0.8-6.8,0.8-6.8s4,3.8,6.4,1C348.7,268.3,344.3,265.5,344.3,265.5z"/>
				<path class="st10" d="M340.9,254.5c0,0-7.4-4.9-7.4-10.7c0-3.8-2.2-5.7-4-6.6c-1.5-0.8-3.4-0.8-4.9,0c-1.8,0.9-4,2.8-4,6.6
					c0,5.7-7.4,10.7-7.4,10.7s-3.5,2.2-1.6,4.4c1.9,2.2,5.2-0.8,5.2-0.8s-3.2,3.8,0.6,5.5c3.9,1.6,4.8-3.6,4.8-3.6s0,5.5,4.8,5.5
					c4.8,0,4.8-5.5,4.8-5.5s1,5.2,4.8,3.6c3.9-1.6,0.6-5.5,0.6-5.5s3.2,3,5.2,0.8C344.4,256.7,340.9,254.5,340.9,254.5z"/>
				<path class="st14" d="M329,235c1.8,0.5,3.3,1.7,4.2,3.3c0.7,1.3,0.9,2.8,1,4.2c0.1,0.7,0.2,1.3,0.1,2c-0.1,0.6-0.5,1.3-1,1.6
					c-1.1,0.6-2.5-0.1-3.7,0.2c-0.7,0.2-1.2,0.7-1.8,1.1c-0.6,0.4-1.3,0.7-2,0.4c-0.6-0.2-0.9-0.9-1.3-1.4c-0.3-0.5-0.8-1.1-1.4-1.1
					c-0.7,0-1.3,0.7-2,0.6c-0.5,0-0.8-0.4-1-0.8c-0.2-0.4-0.2-0.9-0.2-1.3C319.7,239,323.4,233.6,329,235z"/>
				<path class="st14" d="M334.4,252.2c-1.1,0.8-2.6,0.9-4,0.9c-0.9-0.1-1.4-0.1-1.8,0.7c-0.2,0.5-0.2,1.1,0.2,1.6
					c0.6,0.5,1.5,0.5,2.4,0.4c2-0.2,4.6-0.8,6.2-1.8c1.3-0.8,1.7-2.5,1-3.7c-0.7-1.2-2.2-2-3.8-2c0.1,0.2,0.5,0.9,0.6,1
					c0.2,0.3,0.3,0.7,0.2,1C335.6,251,335.1,251.7,334.4,252.2z"/>
				<path class="st14" d="M320.3,249.6c0.7,0.2,1.4,0.2,2.1,0.4c0.7,0.2,1.4,0.5,1.6,1.1c0.2,0.6-0.1,1.3-0.7,1.6
					c-0.6,0.4-1.4,0.5-2.1,0.4c-0.7-0.1-1.4-0.3-2.1-0.5c-0.9-0.3-1.9-0.6-2.4-1.4c-0.4-0.5-0.3-1.3,0-1.8c0.3-0.4,1-1.1,1.7-1
					c0.3,0.1,0.5,0.4,0.7,0.5C319.5,249.3,319.9,249.5,320.3,249.6z"/>
				<path class="st14" d="M315.2,264.2c2.1,1.6,5,2.8,7.8,2.5c0.5,0,0.9-0.1,1.4-0.1c0.5,0,0.9,0.2,1.2,0.5c0.3,0.4,0.3,0.9,0,1.3
					c-0.2,0.4-0.7,0.7-1.1,1c-0.8,0.5-1.7,0.9-2.7,1.1c-1,0.2-2.1,0.1-3-0.3c-0.6-0.3-1.1-0.7-1.6-1.1c-0.7-0.6-1.3-1.3-2.3-1.5
					c-0.9-0.2-1.8-0.4-2.5-0.9c-0.9-0.6-1.4-1.7-1.2-2.7c0.1-0.6,1-2,1.9-1.9c0.5,0.1,0.7,0.5,0.9,0.9
					C314.4,263.5,314.7,263.9,315.2,264.2z"/>
				<path class="st14" d="M335.7,265.7c0.9-0.5,1.6-1.4,2.7-1.7c1-0.3,2.3,0.2,2.8,1c0.5,0.8,0.3,1.9-0.4,2.5
					c-0.9,0.8-2.3,0.8-3.5,1.2c-0.9,0.3-1.7,0.7-2.5,1.1c-0.8,0.4-1.7,0.8-2.6,0.8c-1.8,0.1-4-1.7-2.4-3.1
					C331.3,266.3,334,266.7,335.7,265.7z"/>
				<path class="st14" d="M337.2,280.5c-1,0-2-0.1-3,0.1c-1,0.2-2,0.7-2.2,1.5c-0.2,0.6,0.2,1.3,0.7,1.8c0.6,0.4,1.3,0.7,2,0.8
					c3.5,0.7,7.1-0.6,9.8-2.6c1.2-0.9,2.3-2,2.5-3.4c0.1-1-0.4-2.1-1.4-2.6c-1.4-0.8-1.6,0.5-2.2,1.3
					C342.1,279.1,339.7,280.4,337.2,280.5z"/>
				<path class="st14" d="M315.2,279.6c1.9,1.4,4.4,2.2,6.9,2.2c0.6,0,1.3,0,1.9,0c0.6,0.1,1.2,0.4,1.5,0.8c0.4,0.6,0.1,1.4-0.4,1.9
					c-0.6,0.5-1.4,0.7-2.2,0.9c-1.9,0.4-3.8,0.3-5.7-0.2c-1.3-0.4-2.5-0.9-3.7-1.5c-0.7-0.3-1.4-0.7-2-1c-0.7-0.4-1.4-1-1.8-1.6
					c-0.4-0.7-0.4-1.5,0.1-2.2c0.5-0.7,1.7-0.8,2.6-0.7C313.6,278.2,314.4,279,315.2,279.6z"/>
			</g>
			<g>
				<polygon class="st15" points="301.5,304.9 281.6,304.9 284.6,275.1 298.5,275.1 				"/>
				<path class="st16" d="M321.4,268.4c0,0-16-10.6-16-22.9c0-8.2-4.6-12.2-8.6-14.2c-3.3-1.6-7.3-1.6-10.6,0
					c-3.9,1.9-8.6,6-8.6,14.2c0,12.4-16,22.9-16,22.9s-7.6,4.7-3.5,9.4c4.2,4.7,11.1-1.8,11.1-1.8s-6.9,8.2,1.4,11.8
					c8.3,3.5,10.4-7.6,10.4-7.6s0,11.8,10.4,11.8c10.4,0,10.4-11.8,10.4-11.8s2.1,11.2,10.4,7.6c8.3-3.5,1.4-11.8,1.4-11.8
					s6.9,6.5,11.1,1.8C329,273.1,321.4,268.4,321.4,268.4z"/>
				<path class="st17" d="M314.1,248.3c0,0-12.1-8-12.1-17.4c0-6.2-3.5-9.2-6.5-10.7c-2.5-1.2-5.5-1.2-8,0c-3,1.5-6.5,4.5-6.5,10.7
					c0,9.4-12.1,17.4-12.1,17.4s-5.8,3.6-2.6,7.1c3.1,3.6,8.4-1.3,8.4-1.3s-5.2,6.2,1,8.9c6.3,2.7,7.9-5.8,7.9-5.8s0,8.9,7.9,8.9
					c7.9,0,7.9-8.9,7.9-8.9s1.6,8.5,7.9,5.8c6.3-2.7,1-8.9,1-8.9s5.2,4.9,8.4,1.3C319.9,251.9,314.1,248.3,314.1,248.3z"/>
				<path class="st16" d="M309.6,233.9c0,0-9.7-6.4-9.7-13.9c0-5-2.8-7.4-5.2-8.6c-2-1-4.4-1-6.4,0c-2.4,1.2-5.2,3.6-5.2,8.6
					c0,7.5-9.7,13.9-9.7,13.9s-4.6,2.9-2.1,5.7c2.5,2.9,6.7-1.1,6.7-1.1s-4.2,5,0.8,7.1c5,2.1,6.3-4.6,6.3-4.6s0,7.1,6.3,7.1
					c6.3,0,6.3-7.1,6.3-7.1s1.3,6.8,6.3,4.6c5-2.1,0.8-7.1,0.8-7.1s4.2,3.9,6.7,1.1C314.2,236.8,309.6,233.9,309.6,233.9z"/>
				<path class="st18" d="M294.1,208.5c2.3,0.6,4.3,2.2,5.4,4.3c0.9,1.7,1.1,3.6,1.4,5.5c0.1,0.9,0.2,1.7,0.1,2.6
					c-0.1,0.8-0.6,1.7-1.4,2.1c-1.4,0.8-3.3-0.1-4.8,0.3c-0.9,0.2-1.6,0.9-2.4,1.4s-1.8,0.9-2.6,0.6c-0.8-0.3-1.2-1.1-1.6-1.8
					c-0.4-0.7-1-1.5-1.9-1.5c-0.9,0-1.7,0.9-2.6,0.8c-0.6,0-1.1-0.5-1.3-1c-0.2-0.5-0.3-1.1-0.3-1.7
					C282,213.7,286.9,206.7,294.1,208.5z"/>
				<path class="st18" d="M301.2,230.9c-1.4,1-3.4,1.2-5.3,1.1c-1.1-0.1-1.8-0.1-2.3,0.9c-0.3,0.7-0.3,1.5,0.3,2
					c0.8,0.7,2,0.7,3.1,0.6c2.6-0.3,6-1,8.1-2.4c1.7-1.1,2.2-3.2,1.3-4.8c-0.9-1.6-2.8-2.7-4.9-2.6c0.1,0.2,0.7,1.1,0.8,1.3
					c0.2,0.4,0.3,0.9,0.3,1.3C302.7,229.3,302.1,230.3,301.2,230.9z"/>
				<path class="st18" d="M282.8,227.5c0.9,0.2,1.8,0.3,2.7,0.5c0.9,0.2,1.8,0.7,2.1,1.4c0.3,0.8-0.1,1.6-0.9,2.1
					c-0.8,0.5-1.8,0.6-2.7,0.5c-0.9-0.1-1.9-0.4-2.7-0.6c-1.2-0.4-2.5-0.8-3.2-1.8c-0.5-0.7-0.4-1.6,0-2.3c0.4-0.6,1.3-1.4,2.2-1.2
					c0.4,0.1,0.7,0.5,1,0.7C281.8,227.2,282.2,227.4,282.8,227.5z"/>
				<path class="st18" d="M276.1,246.6c2.7,2.1,6.5,3.6,10.2,3.3c0.6-0.1,1.2-0.1,1.8-0.1c0.6,0,1.2,0.2,1.6,0.7
					c0.4,0.5,0.4,1.2,0,1.7c-0.3,0.5-0.9,0.9-1.4,1.3c-1.1,0.7-2.2,1.2-3.5,1.5c-1.3,0.2-2.7,0.2-3.9-0.3c-0.8-0.3-1.5-0.9-2.1-1.4
					c-0.9-0.7-1.8-1.7-3-2c-1.2-0.3-2.3-0.5-3.3-1.2c-1.2-0.8-1.8-2.2-1.5-3.5c0.2-0.8,1.2-2.6,2.5-2.5c0.7,0.1,0.9,0.7,1.2,1.1
					C275.1,245.6,275.5,246.1,276.1,246.6z"/>
				<path class="st18" d="M302.9,248.5c1.2-0.7,2.1-1.9,3.5-2.2c1.4-0.4,3,0.2,3.6,1.2c0.7,1,0.4,2.5-0.6,3.3c-1.2,1-3,1.1-4.6,1.6
					c-1.2,0.4-2.2,0.9-3.2,1.4c-1.1,0.5-2.2,1-3.4,1.1c-2.4,0.2-5.3-2.2-3.1-4C297.1,249.3,300.7,249.8,302.9,248.5z"/>
				<path class="st18" d="M304.8,267.8c-1.3,0.1-2.6-0.1-3.9,0.1c-1.3,0.2-2.6,0.9-2.8,1.9c-0.2,0.8,0.2,1.7,0.9,2.3
					c0.7,0.6,1.7,0.9,2.7,1.1c4.5,0.9,9.3-0.8,12.7-3.4c1.6-1.2,3-2.6,3.2-4.4c0.2-1.3-0.5-2.7-1.8-3.4c-1.8-1-2.1,0.6-2.9,1.7
					C311.2,266,308.1,267.7,304.8,267.8z"/>
				<path class="st18" d="M276.2,266.6c2.4,1.8,5.7,2.9,9,2.9c0.8,0,1.6-0.1,2.4,0.1c0.8,0.1,1.6,0.5,2,1.1c0.5,0.8,0.2,1.8-0.6,2.5
					c-0.7,0.6-1.8,1-2.8,1.2c-2.4,0.5-5,0.4-7.4-0.3c-1.7-0.5-3.2-1.2-4.8-1.9c-0.9-0.4-1.8-0.8-2.7-1.3c-1-0.6-1.9-1.2-2.4-2.1
					c-0.5-0.9-0.6-2,0.1-2.8c0.7-0.9,2.3-1,3.4-0.9C274,264.9,275.1,265.8,276.2,266.6z"/>
			</g>
			<path class="st19" d="M673.5,353.1c39.2,10.1,81.8,23.5,101.1,54.1c18,28.7,9,66-15.8,90.8s-62.5,38.2-100.4,42.8
				c-37.9,4.6-76.5,1.2-114.5-2.5c-171.5-16.9-342.4-41.6-507.7-83.6c-37.7-9.6-77-21.1-102.9-46.2c-24-23.3-33-56.9-23.3-86.7
				c10.2-31.4,47.8-67.1,88.6-66c55.3,1.4,110.7,5.4,165.8,10.2c110.2,9.7,219.8,25.1,327.8,46.1C553,324,613.6,337.7,673.5,353.1z"
				/>
			<path class="st20" d="M368.3,305.7c-43-0.4-86.1-0.7-129.1-1.1c78.5,7.5,156.7,16.9,234.5,28c33.9,4.8,69.7,10.9,94.8,30.7
				c-34.8,11.2-72.2,14.9-109.2,18.4c-67,6.5-134,13-201,19.5c-92.9,9-186,18-279.5,17.2c-19.4-0.2-39.8-1-56.1-9.9
				c-27.6-15.1-33.2-49.6-19.1-74.8c12-21.4,35.4-37.8,60-48.4c21.3-9.2,48.3-5.7,71.3-5.8c71.5-0.2,143.1,3.3,214.1,10.5
				C289,294.1,328.8,299.3,368.3,305.7z"/>
			<path class="st21" d="M159,351.6c9.9,1.2,18.8,7,22.9,14.7c3.2-4,8.7-6.7,14.4-7c5.7-0.3,11.6,1.8,15.3,5.5
				c0.7-4.2,6.9-6.7,11.6-5.1c4.6,1.6,7.3,6.1,6.9,10.4c-0.4,4.2-3.2,8.1-6.8,11c-7.3,6-17.4,8.7-27.4,10
				c-13.5,1.7-27.3,0.9-40.4-2.3c-7.8-1.9-15.7-4.8-20.6-10.3C121,363.2,141.1,349.4,159,351.6z"/>
			<g>
				<polygon class="st22" points="187.3,391.2 145.8,391.2 152,328.8 181.2,328.8 				"/>
				<path class="st23" d="M228.9,314.8c0,0-33.3-22.1-33.3-48c0-17.1-9.7-25.5-17.9-29.6c-6.9-3.4-15.3-3.4-22.2,0
					c-8.2,4.1-17.9,12.5-17.9,29.6c0,25.9-33.3,48-33.3,48s-15.9,9.8-7.2,19.7c8.7,9.8,23.2-3.7,23.2-3.7s-14.5,17.2,2.9,24.6
					c17.4,7.4,21.7-16,21.7-16s0,24.6,21.7,24.6s21.7-24.6,21.7-24.6s4.3,23.4,21.7,16c17.4-7.4,2.9-24.6,2.9-24.6
					s14.5,13.5,23.2,3.7C244.9,324.6,228.9,314.8,228.9,314.8z"/>
				<path class="st22" d="M213.7,272.8c0,0-25.2-16.7-25.2-36.3c0-12.9-7.4-19.3-13.5-22.4c-5.2-2.6-11.6-2.6-16.8,0
					c-6.2,3.1-13.5,9.5-13.5,22.4c0,19.6-25.2,36.3-25.2,36.3s-12.1,7.4-5.5,14.9c6.6,7.4,17.6-2.8,17.6-2.8s-11,13,2.2,18.6
					c13.2,5.6,16.5-12.1,16.5-12.1s0,18.6,16.5,18.6s16.5-18.6,16.5-18.6s3.3,17.7,16.5,12.1c13.2-5.6,2.2-18.6,2.2-18.6
					s11,10.2,17.6,2.8C225.8,280.3,213.7,272.8,213.7,272.8z"/>
				<path class="st23" d="M204.3,242.8c0,0-20.2-13.4-20.2-29c0-10.3-5.9-15.5-10.8-17.9c-4.2-2.1-9.3-2.1-13.4,0
					c-5,2.5-10.8,7.6-10.8,17.9c0,15.7-20.2,29-20.2,29s-9.7,6-4.4,11.9c5.3,6,14-2.2,14-2.2s-8.8,10.4,1.8,14.9
					c10.5,4.5,13.2-9.7,13.2-9.7s0,14.9,13.2,14.9s13.2-14.9,13.2-14.9s2.6,14.1,13.2,9.7c10.5-4.5,1.8-14.9,1.8-14.9
					s8.8,8.2,14,2.2C214,248.7,204.3,242.8,204.3,242.8z"/>
				<path class="st24" d="M171.9,189.6c4.8,1.2,9.1,4.6,11.3,8.9c1.8,3.5,2.3,7.5,2.8,11.4c0.2,1.8,0.5,3.6,0.1,5.4
					s-1.3,3.5-2.9,4.4c-3,1.6-6.8-0.3-10.1,0.7c-1.9,0.5-3.4,1.9-5,3s-3.7,1.9-5.5,1.2c-1.6-0.6-2.5-2.3-3.4-3.8s-2.2-3-3.9-3.1
					c-1.9,0-3.6,1.8-5.5,1.6c-1.2-0.1-2.3-1-2.8-2.1c-0.5-1.1-0.6-2.3-0.6-3.5C146.7,200.5,156.8,185.8,171.9,189.6z"/>
				<path class="st24" d="M186.8,236.4c-3,2.1-7.1,2.6-11,2.3c-2.4-0.2-3.8-0.2-4.8,1.9c-0.7,1.4-0.6,3.1,0.7,4.2
					c1.6,1.4,4.2,1.5,6.5,1.2c5.5-0.6,12.5-2.1,17-5c3.5-2.2,4.6-6.7,2.8-10.1c-1.8-3.4-5.9-5.5-10.3-5.5c0.3,0.4,1.4,2.4,1.7,2.8
					c0.5,0.9,0.7,1.8,0.7,2.8C189.9,233.1,188.7,235.1,186.8,236.4z"/>
				<path class="st24" d="M148.3,229.4c1.9,0.5,3.9,0.5,5.7,1c1.9,0.5,3.8,1.4,4.4,3c0.6,1.6-0.3,3.4-1.9,4.5
					c-1.6,1-3.7,1.3-5.7,1.1c-2-0.2-3.9-0.7-5.7-1.3c-2.5-0.8-5.3-1.7-6.6-3.7c-1-1.5-0.9-3.4,0.1-4.9c0.8-1.2,2.8-3,4.6-2.6
					c0.9,0.2,1.4,1,2,1.5C146.1,228.7,147.2,229.1,148.3,229.4z"/>
				<path class="st24" d="M134.3,269.2c5.7,4.3,13.6,7.6,21.4,6.9c1.2-0.1,2.5-0.3,3.7-0.2c1.2,0.1,2.5,0.5,3.3,1.4
					c0.8,1,0.7,2.4,0.1,3.5c-0.7,1.1-1.8,1.9-3,2.7c-2.2,1.4-4.7,2.5-7.4,3c-2.7,0.5-5.6,0.4-8-0.7c-1.7-0.7-3-1.8-4.4-2.9
					c-1.9-1.5-3.7-3.5-6.2-4.2c-2.4-0.6-4.9-1.1-6.9-2.5c-2.5-1.7-3.8-4.7-3.2-7.4c0.4-1.8,2.6-5.5,5.2-5.2c1.4,0.1,1.9,1.5,2.5,2.4
					C132.2,267.2,133.1,268.3,134.3,269.2z"/>
				<path class="st24" d="M190.4,273.3c2.5-1.5,4.4-3.9,7.4-4.7c2.8-0.7,6.2,0.4,7.6,2.6c1.5,2.2,0.9,5.2-1.2,6.9
					c-2.5,2.1-6.3,2.3-9.6,3.3c-2.4,0.7-4.6,1.9-6.8,3c-2.2,1.1-4.6,2.1-7.1,2.2c-4.9,0.4-11-4.5-6.5-8.3
					C178.1,275,185.7,276,190.4,273.3z"/>
				<path class="st24" d="M194.3,313.6c-2.7,0.1-5.4-0.2-8.1,0.2c-2.6,0.4-5.3,1.8-5.9,4.1c-0.5,1.7,0.5,3.6,2,4.8
					c1.5,1.2,3.5,1.9,5.6,2.3c9.4,1.8,19.4-1.7,26.6-7.2c3.3-2.4,6.2-5.5,6.8-9.1c0.4-2.6-1-5.7-3.7-7.2c-3.8-2.1-4.3,1.3-6,3.5
					C207.7,309.9,201.2,313.3,194.3,313.6z"/>
				<path class="st24" d="M134.5,311.1c5.1,3.8,11.9,6,18.7,6c1.7,0,3.4-0.1,5.1,0.1c1.7,0.2,3.4,1,4.2,2.2c1.1,1.6,0.4,3.8-1.2,5.2
					c-1.5,1.4-3.7,2-5.9,2.5c-5.1,1-10.5,0.8-15.4-0.6c-3.5-1-6.8-2.5-10-4c-1.9-0.9-3.8-1.8-5.6-2.8c-2-1.2-3.9-2.6-4.9-4.5
					c-1.1-1.9-1.2-4.2,0.2-5.9c1.5-1.8,4.7-2.1,7.1-2C130,307.5,132.3,309.5,134.5,311.1z"/>
			</g>
			<g>
				<polygon class="st25" points="86.5,392.4 36,392.4 43.5,316.6 79,316.6 				"/>
				<path class="st26" d="M137,299.5c0,0-40.5-26.9-40.5-58.3c0-20.8-11.8-31-21.7-36c-8.4-4.2-18.6-4.2-27,0
					c-9.9,4.9-21.7,15.2-21.7,36c0,31.4-40.5,58.3-40.5,58.3s-19.4,12-8.8,23.9c10.6,12,28.2-4.5,28.2-4.5s-17.6,20.9,3.5,29.9
					c21.1,9,26.4-19.4,26.4-19.4s0,29.9,26.4,29.9s26.4-29.9,26.4-29.9s5.3,28.4,26.4,19.4c21.1-9,3.5-29.9,3.5-29.9
					s17.6,16.4,28.2,4.5S137,299.5,137,299.5z"/>
				<path class="st25" d="M118.6,248.5c0,0-30.7-20.3-30.7-44.1c0-15.7-8.9-23.5-16.5-27.2c-6.3-3.1-14.1-3.1-20.4,0
					c-7.5,3.7-16.5,11.5-16.5,27.2c0,23.8-30.7,44.1-30.7,44.1s-14.7,9-6.7,18.1c8,9,21.3-3.4,21.3-3.4s-13.3,15.8,2.7,22.6
					c16,6.8,20-14.7,20-14.7s0,22.6,20,22.6c20,0,20-22.6,20-22.6s4,21.5,20,14.7c16-6.8,2.7-22.6,2.7-22.6s13.3,12.4,21.3,3.4
					C133.2,257.6,118.6,248.5,118.6,248.5z"/>
				<path class="st26" d="M107.1,212c0,0-24.5-16.3-24.5-35.3c0-12.6-7.1-18.8-13.2-21.8c-5.1-2.5-11.3-2.5-16.3,0
					c-6,3-13.2,9.2-13.2,21.8c0,19-24.5,35.3-24.5,35.3s-11.7,7.2-5.3,14.5s17.1-2.7,17.1-2.7s-10.7,12.7,2.1,18.1
					c12.8,5.4,16-11.8,16-11.8s0,18.1,16,18.1s16-18.1,16-18.1s3.2,17.2,16,11.8c12.8-5.4,2.1-18.1,2.1-18.1s10.7,10,17.1,2.7
					C118.8,219.3,107.1,212,107.1,212z"/>
				<path class="st27" d="M67.7,147.4c5.9,1.5,11,5.5,13.8,10.8c2.2,4.3,2.8,9.1,3.5,13.9c0.3,2.2,0.6,4.4,0.2,6.5
					c-0.4,2.2-1.5,4.3-3.5,5.3c-3.6,2-8.3-0.3-12.3,0.8c-2.3,0.6-4.1,2.3-6,3.6c-2,1.3-4.5,2.3-6.7,1.4c-2-0.8-3.1-2.8-4.1-4.6
					c-1.1-1.8-2.7-3.7-4.8-3.7c-2.4-0.1-4.3,2.2-6.7,2c-1.5-0.1-2.8-1.3-3.4-2.6c-0.6-1.3-0.7-2.8-0.7-4.3
					C37.1,160.7,49.4,142.8,67.7,147.4z"/>
				<path class="st27" d="M85.8,204.3c-3.6,2.5-8.7,3.1-13.3,2.8c-2.9-0.2-4.6-0.2-5.8,2.3c-0.8,1.7-0.7,3.8,0.8,5.2
					c1.9,1.7,5.1,1.8,7.9,1.5c6.6-0.7,15.2-2.6,20.6-6c4.3-2.7,5.6-8.1,3.4-12.2s-7.2-6.7-12.5-6.7c0.3,0.5,1.7,2.9,2,3.4
					c0.6,1.1,0.9,2.2,0.8,3.4C89.6,200.3,88.1,202.7,85.8,204.3z"/>
				<path class="st27" d="M39,195.8c2.3,0.6,4.7,0.6,7,1.2c2.3,0.6,4.6,1.7,5.3,3.7c0.8,1.9-0.4,4.2-2.3,5.4
					c-1.9,1.2-4.5,1.6-6.9,1.4c-2.4-0.2-4.7-0.9-7-1.6c-3.1-0.9-6.4-2.1-8-4.5c-1.2-1.8-1.1-4.2,0.1-6c0.9-1.4,3.4-3.6,5.6-3.2
					c1,0.2,1.7,1.3,2.4,1.8C36.4,194.9,37.6,195.4,39,195.8z"/>
				<path class="st27" d="M22,244.1c6.9,5.3,16.5,9.2,26,8.4c1.5-0.1,3-0.4,4.5-0.3c1.5,0.1,3.1,0.6,4,1.7c1,1.2,0.9,3,0.1,4.3
					c-0.8,1.3-2.2,2.3-3.7,3.2c-2.7,1.7-5.7,3.1-9,3.7c-3.3,0.6-6.8,0.5-9.8-0.8c-2-0.9-3.7-2.2-5.3-3.6c-2.3-1.8-4.5-4.3-7.5-5.1
					c-2.9-0.8-5.9-1.3-8.4-3c-3.1-2.1-4.6-5.7-3.9-9c0.5-2.1,3.2-6.7,6.4-6.3c1.7,0.2,2.3,1.8,3,2.9C19.4,241.7,20.5,243,22,244.1z"
					/>
				<path class="st27" d="M90.2,249.1c3.1-1.8,5.4-4.7,8.9-5.7c3.4-0.9,7.5,0.5,9.3,3.2c1.8,2.7,1.1,6.3-1.5,8.4
					c-3,2.5-7.7,2.8-11.7,4c-2.9,0.9-5.5,2.4-8.2,3.7c-2.7,1.3-5.6,2.5-8.7,2.7c-6,0.4-13.4-5.5-7.9-10.1
					C75.3,251.1,84.5,252.4,90.2,249.1z"/>
				<path class="st27" d="M94.9,298.1c-3.3,0.1-6.6-0.2-9.8,0.3c-3.2,0.5-6.5,2.2-7.2,4.9c-0.6,2.1,0.6,4.3,2.4,5.8
					c1.8,1.5,4.3,2.3,6.8,2.8c11.4,2.2,23.5-2.1,32.3-8.7c3.9-3,7.6-6.7,8.2-11.1c0.5-3.2-1.2-6.9-4.5-8.7c-4.6-2.5-5.3,1.6-7.3,4.3
					C111.2,293.6,103.3,297.7,94.9,298.1z"/>
				<path class="st27" d="M22.2,295.1c6.2,4.6,14.5,7.3,22.7,7.3c2.1,0,4.2-0.2,6.2,0.1c2,0.3,4.1,1.2,5.1,2.7
					c1.3,2,0.5,4.6-1.4,6.3c-1.9,1.6-4.5,2.5-7.2,3c-6.2,1.2-12.7,1-18.7-0.7c-4.3-1.2-8.2-3-12.2-4.9c-2.3-1.1-4.6-2.2-6.8-3.4
					c-2.4-1.4-4.7-3.2-6-5.4s-1.4-5.1,0.3-7.2c1.8-2.2,5.8-2.5,8.7-2.4C16.7,290.7,19.6,293.1,22.2,295.1z"/>
			</g>
			<path class="st21" d="M478.2,325.1c-1.1-1.1-2.4-2.2-3.9-2.9c-1.6-0.7-3.5-0.9-5.1-0.2c-1.7,0.8-2.5,2.4-2.6,4.1
				c0,1.6,0.6,3.2,1.4,4.6c2.3,4.5,5.6,8.6,9.7,12.1c-3.5-2.1-7.1-4.2-10.6-6.3c-1.1-0.7-2.3-1.3-3.6-1.7c-1.3-0.3-2.8-0.3-3.9,0.4
				c-1.5,0.9-1.9,2.8-1.2,4.4c0.6,1.5,2,2.7,3.4,3.8c4.8,3.6,10.2,6.6,16.1,8.7c2.1,0.8,4.3,1.4,6.5,1.2c2.5-0.2,4.9-1.7,5.9-3.7
				c1.7-3.5-1.6-9.1-3.2-12.3C484.8,332.8,481.9,328.7,478.2,325.1z"/>
			<path class="st28" d="M487.2,335.5c-4.2,3.4-6.9,8.1-7.3,13.1c-2.1-2.3-5.7-3.5-9-3c-3.4,0.4-6.4,2.5-7.5,5.2
				c-2-3.1-6.9-4.5-10.8-3.2c-3.9,1.3-6.5,4.8-6.4,8.4c0.1,3.5,2.6,6.9,6.1,8.8c3.5,1.8,7.8,2.3,11.9,2.4c10,0.3,20.2-0.9,29.7-3.5
				c5.4-1.5,10.8-3.5,14.7-7.1c4.1-3.8,6-9.2,5-14.2c-0.8-4.1-4.5-10.6-9.6-12C498.7,328.8,490.9,332.6,487.2,335.5z"/>
			<path class="st29" d="M755,335.1c0.5-1.8,3-3.2,5.5-3s4.6,1.9,4.6,3.7c1.7-4,8.2-6.1,13.7-5.2c5.5,0.9,9.8,4.2,12.6,7.9
				c2.1,2.9,3.4,6.2,2.4,9.4c-0.9,2.7-3.6,5-6.7,6.5c-3.1,1.5-6.7,2.4-10.3,3.1c-9.7,2-20,3.1-29.9,1.5c-9.9-1.5-19.3-6.1-23.6-13
				c-4-6.4-2.4-14.3,3.5-19.8c4.8-4.5,13.6-3.7,19.6-0.9C750.9,327.5,754.1,331.1,755,335.1z"/>
			<g>
				<polygon class="st8" points="684,224.8 551,224.8 551,263 626,263 684,263 742,263 				"/>
				<polygon class="st30" points="558.3,229.6 551,224.8 495.3,261.5 493,263 609,263 				"/>
				<polygon class="st31" points="498.2,263 551,228 603.8,263 603.8,353.9 498.2,353.9 				"/>
				<rect x="498.2" y="266.7" class="st32" width="13.9" height="4.7"/>
				<rect x="570.7" y="260" class="st32" width="13.9" height="4.7"/>
				<polygon class="st32" points="569.6,240.3 564.7,240.3 564.7,245 576.7,245 				"/>
				<rect x="548.1" y="267.9" class="st32" width="13.9" height="4.7"/>
				<rect x="505.2" y="288.6" class="st32" width="13.9" height="4.7"/>
				<rect x="589.9" y="274.6" class="st32" width="13.9" height="4.7"/>
				<rect x="586.2" y="344.9" class="st32" width="13.9" height="4.7"/>
				<polygon class="st32" points="539.9,241.1 539.9,236.4 538.2,236.4 531.1,241.1 				"/>
				<rect x="523.6" y="278.3" class="st32" width="13.9" height="4.7"/>
				<rect x="498.2" y="332.5" class="st32" width="13.9" height="4.7"/>
				<rect x="577.6" y="303.1" class="st32" width="13.9" height="4.7"/>
				<rect x="556.7" y="349.2" class="st32" width="13.9" height="4.7"/>
				<rect x="571.7" y="330.9" class="st32" width="13.9" height="4.7"/>
				<rect x="498.2" y="303.7" class="st32" width="10.1" height="4.7"/>
				<rect x="546.3" y="248.3" class="st32" width="13.9" height="4.7"/>
				<rect x="564.7" y="284.5" class="st32" width="13.9" height="4.7"/>
				<rect x="539.3" y="337.2" class="st32" width="13.9" height="4.7"/>
				<rect x="505.2" y="317.4" class="st32" width="13.9" height="4.7"/>
				<rect x="593.2" y="319.8" class="st32" width="10.6" height="4.7"/>
				<rect x="519.1" y="259.1" class="st32" width="13.9" height="4.7"/>
				<rect x="603.8" y="263" class="st33" width="138.2" height="90.9"/>
				<rect x="615.9" y="269.1" class="st34" width="13.9" height="4.7"/>
				<rect x="653.2" y="308.4" class="st34" width="13.9" height="4.7"/>
				<rect x="648.5" y="332.3" class="st34" width="13.9" height="4.7"/>
				<rect x="712.7" y="349.2" class="st34" width="13.9" height="4.7"/>
				<rect x="660.2" y="286.9" class="st34" width="13.9" height="4.7"/>
				<rect x="606.5" y="339.6" class="st34" width="13.9" height="4.7"/>
				<rect x="603.8" y="314.4" class="st34" width="8.6" height="4.7"/>
				<rect x="699" y="266.7" class="st34" width="13.9" height="4.7"/>
				<rect x="716" y="290.9" class="st34" width="13.9" height="4.7"/>
				<rect x="692" y="337.2" class="st34" width="13.9" height="4.7"/>
				<rect x="709" y="315" class="st34" width="13.9" height="4.7"/>
				<rect x="661.2" y="263" class="st34" width="13.9" height="2.4"/>
				<rect x="603.8" y="286.2" class="st35" width="13.2" height="4.7"/>
				<rect x="670.4" y="272.3" class="st35" width="13.2" height="4.7"/>
				<rect x="728.8" y="273.8" class="st35" width="13.2" height="4.7"/>
				<rect x="720.3" y="330" class="st35" width="13.2" height="4.7"/>
				<rect x="701.4" y="281.5" class="st35" width="13.2" height="4.7"/>
				<rect x="733.5" y="308.4" class="st35" width="8.5" height="4.7"/>
				<rect x="639.3" y="278.1" class="st35" width="13.2" height="4.7"/>
				<rect x="678" y="297.9" class="st35" width="13.2" height="4.7"/>
				<rect x="667.5" y="321.6" class="st35" width="13.2" height="4.7"/>
				<rect x="626.1" y="325.3" class="st35" width="13.2" height="4.7"/>
				<rect x="660.6" y="343.3" class="st35" width="13.2" height="4.7"/>
				<rect x="632.7" y="351.5" class="st35" width="13.2" height="2.4"/>
				<rect x="620.5" y="299.2" class="st35" width="13.2" height="4.7"/>
				<rect x="516.9" y="297.9" class="st8" width="27.4" height="56"/>
				<polygon class="st8" points="519.1,299.7 544.2,299.7 544.2,297.9 516.9,297.9 516.9,353.9 519.1,353.9 				"/>
				<g>
					<rect x="551.1" y="297.9" class="st27" width="33.5" height="28.4"/>
					<rect x="553.3" y="299.7" class="st36" width="29.2" height="24.8"/>
					<line class="st37" x1="567.9" y1="299.7" x2="567.9" y2="324.5"/>
					<line class="st37" x1="582.4" y1="312.1" x2="553.3" y2="312.1"/>
				</g>
				<g>
					<rect x="627.7" y="297.9" class="st38" width="33.5" height="28.4"/>
					<rect x="629.8" y="299.7" class="st39" width="29.2" height="24.8"/>
					<line class="st40" x1="644.4" y1="299.7" x2="644.4" y2="324.5"/>
					<line class="st40" x1="659" y1="312.1" x2="629.8" y2="312.1"/>
				</g>
				<g>
					<rect x="684.6" y="297.9" class="st38" width="33.5" height="28.4"/>
					<rect x="686.8" y="299.7" class="st39" width="29.2" height="24.8"/>
					<line class="st40" x1="701.4" y1="299.7" x2="701.4" y2="324.5"/>
					<line class="st40" x1="716" y1="312.1" x2="686.8" y2="312.1"/>
				</g>
				<path class="st27" d="M720.4,252.7c2.1,1.4,0.9,4.3-1.8,4.3c-11.3-0.1-23.4,0.8-34.2,0.1c-15.7-1-31.5-2.1-47.2-0.7
					c-10.5,0.9-21.6,2.9-31.4-0.6c-9.1-3.2-15.6-12-24.4-17.1c-8.1-4.7-24.3-16.6-30.4-14l0,0l-55.7,36.6c-1.1-0.8-1.3-2.1,0-3.7
					c2.5-3.2,7.8-5.9,11.2-8.4c4.5-3.3,8.9-6.5,13.4-9.8c10.2-7.5,21.4-14.7,33.2-19.5c10.7-4.4,24-1.7,35.9-1.2
					c22.8,0.9,45.5,1.9,68.3,2.8c6.9,0.3,13.9,0.6,20.2,2.9c6.5,2.3,11.8,6.6,16.9,10.7C702.3,241.8,711.7,246.8,720.4,252.7z"/>
				<g>
					<rect x="641.8" y="217.3" class="st33" width="36.9" height="27.8"/>
					<rect x="639.4" y="210.9" class="st31" width="42.3" height="6.3"/>
					<rect x="651.4" y="227.1" class="st34" width="13.9" height="4.7"/>
					<rect x="667.5" y="234.1" class="st35" width="11.1" height="4.7"/>
					<rect x="646.5" y="237.1" class="st35" width="13.2" height="4.7"/>
					<rect x="670.4" y="242.6" class="st34" width="8.3" height="2.4"/>
					<rect x="641.8" y="219.1" class="st35" width="10.5" height="4.7"/>
					<rect x="671.1" y="222.2" class="st34" width="7.5" height="4.7"/>
				</g>
				<path class="st27" d="M636.7,209.9c0-0.9,0.3-1.9,1.1-2.5c1.1-0.9,2.8-1,4.4-0.8c1.5,0.2,3,0.7,4.5,0.8c2.5,0.2,4.9-0.7,7.4-0.9
					c5.6-0.6,11.1,1.3,16.7,1.3c2.7,0,5.4-0.4,8.1-0.6c1.2-0.1,2.5-0.1,3.6,0.4c1.6,0.7,2.4,2.4,1.9,3.8c-0.5,1.4-2.1,2.5-3.9,2.7
					c-1.8,0.2-3.5-0.5-5.3-0.8c-5.3-0.9-10.6,1.6-16.1,1.6c-4.7,0-9.3-1.9-13.9-1.2c-1.5,0.3-2.9,0.8-4.4,0.9
					C637.4,214.7,636.7,212.3,636.7,209.9z"/>
			</g>
			<g>
				<polygon class="st41" points="806,348.9 769.3,348.9 774.7,293.8 800.5,293.8 				"/>
				<path class="st23" d="M842.8,281.3c0,0-29.5-19.6-29.5-42.4c0-15.1-8.6-22.6-15.8-26.2c-6.1-3-13.5-3-19.6,0
					c-7.2,3.6-15.8,11.1-15.8,26.2c0,22.9-29.5,42.4-29.5,42.4s-14.1,8.7-6.4,17.4c7.7,8.7,20.5-3.3,20.5-3.3s-12.8,15.2,2.6,21.8
					c15.4,6.5,19.2-14.1,19.2-14.1s0,21.8,19.2,21.8c19.2,0,19.2-21.8,19.2-21.8s3.8,20.7,19.2,14.1c15.4-6.5,2.6-21.8,2.6-21.8
					s12.8,12,20.5,3.3C856.9,290,842.8,281.3,842.8,281.3z"/>
				<path class="st22" d="M829.4,244.2c0,0-22.3-14.8-22.3-32.1c0-11.4-6.5-17.1-12-19.8c-4.6-2.3-10.3-2.3-14.9,0
					c-5.5,2.7-12,8.4-12,19.8c0,17.3-22.3,32.1-22.3,32.1s-10.7,6.6-4.9,13.2c5.8,6.6,15.5-2.5,15.5-2.5s-9.7,11.5,1.9,16.5
					c11.6,4.9,14.6-10.7,14.6-10.7s0,16.5,14.6,16.5s14.6-16.5,14.6-16.5s2.9,15.6,14.6,10.7c11.6-4.9,1.9-16.5,1.9-16.5
					s9.7,9.1,15.5,2.5C840,250.8,829.4,244.2,829.4,244.2z"/>
				<path class="st23" d="M821,217.7c0,0-17.9-11.8-17.9-25.7c0-9.2-5.2-13.7-9.6-15.9c-3.7-1.8-8.2-1.8-11.9,0
					c-4.4,2.2-9.6,6.7-9.6,15.9c0,13.9-17.9,25.7-17.9,25.7s-8.5,5.3-3.9,10.5c4.7,5.3,12.4-2,12.4-2s-7.8,9.2,1.6,13.2
					c9.3,4,11.6-8.6,11.6-8.6s0,13.2,11.6,13.2c11.6,0,11.6-13.2,11.6-13.2s2.3,12.5,11.6,8.6c9.3-4,1.6-13.2,1.6-13.2
					s7.8,7.2,12.4,2C829.6,222.9,821,217.7,821,217.7z"/>
				<path class="st27" d="M792.3,170.6c4.3,1.1,8,4,10,7.9c1.6,3.1,2.1,6.6,2.5,10.1c0.2,1.6,0.4,3.2,0.1,4.7
					c-0.3,1.6-1.1,3.1-2.5,3.9c-2.6,1.5-6-0.2-9,0.6c-1.7,0.5-3,1.7-4.4,2.6c-1.4,1-3.2,1.7-4.8,1.1c-1.4-0.6-2.2-2.1-3-3.4
					c-0.8-1.3-1.9-2.7-3.5-2.7c-1.7,0-3.2,1.6-4.9,1.4c-1.1-0.1-2-0.9-2.5-1.9c-0.5-1-0.5-2.1-0.5-3.1
					C770,180.3,779,167.2,792.3,170.6z"/>
				<path class="st27" d="M805.5,212c-2.6,1.8-6.3,2.3-9.7,2.1c-2.1-0.1-3.4-0.2-4.3,1.6c-0.6,1.2-0.5,2.8,0.6,3.8
					c1.4,1.3,3.7,1.3,5.7,1.1c4.8-0.5,11.1-1.9,15-4.4c3.1-2,4.1-5.9,2.4-8.9c-1.6-3-5.2-4.9-9.1-4.9c0.2,0.4,1.3,2.1,1.5,2.5
					c0.4,0.8,0.6,1.6,0.6,2.5C808.2,209.1,807.1,210.9,805.5,212z"/>
				<path class="st27" d="M771.4,205.8c1.7,0.4,3.4,0.5,5.1,0.9c1.7,0.4,3.3,1.3,3.9,2.7c0.5,1.4-0.3,3-1.7,3.9
					c-1.4,0.9-3.3,1.2-5,1c-1.7-0.1-3.4-0.6-5.1-1.2c-2.2-0.7-4.7-1.5-5.8-3.3c-0.9-1.3-0.8-3,0.1-4.3c0.7-1,2.5-2.7,4.1-2.3
					c0.8,0.2,1.2,0.9,1.8,1.3C769.5,205.1,770.4,205.6,771.4,205.8z"/>
				<path class="st27" d="M759.1,241c5,3.8,12,6.7,18.9,6.1c1.1-0.1,2.2-0.3,3.3-0.2s2.2,0.4,2.9,1.2c0.8,0.9,0.7,2.2,0.1,3.1
					c-0.6,1-1.6,1.7-2.7,2.4c-2,1.2-4.1,2.2-6.5,2.7c-2.4,0.5-5,0.3-7.1-0.6c-1.5-0.6-2.7-1.6-3.9-2.6c-1.7-1.3-3.2-3.1-5.5-3.7
					c-2.1-0.6-4.3-0.9-6.1-2.2c-2.2-1.5-3.4-4.1-2.8-6.5c0.3-1.6,2.3-4.9,4.6-4.6c1.2,0.1,1.7,1.3,2.2,2.1
					C757.2,239.2,758,240.2,759.1,241z"/>
				<path class="st27" d="M808.7,244.6c2.3-1.3,3.9-3.4,6.5-4.1c2.5-0.7,5.5,0.4,6.7,2.3c1.3,1.9,0.8,4.6-1.1,6.1
					c-2.2,1.8-5.6,2-8.5,2.9c-2.1,0.7-4,1.7-6,2.7c-2,1-4.1,1.8-6.3,2c-4.4,0.3-9.8-4-5.8-7.4C797.9,246.1,804.5,247,808.7,244.6z"
					/>
				<path class="st27" d="M812.1,280.3c-2.4,0.1-4.8-0.2-7.1,0.2c-2.3,0.4-4.7,1.6-5.3,3.6c-0.4,1.5,0.4,3.2,1.7,4.2
					c1.3,1.1,3.1,1.7,4.9,2c8.3,1.6,17.1-1.5,23.5-6.3c2.9-2.2,5.5-4.9,6-8.1c0.3-2.3-0.9-5-3.3-6.3c-3.3-1.8-3.8,1.2-5.3,3.1
					C824,277,818.2,280,812.1,280.3z"/>
				<path class="st27" d="M759.2,278.1c4.5,3.4,10.5,5.3,16.6,5.3c1.5,0,3-0.1,4.5,0.1s3,0.8,3.7,2c1,1.5,0.3,3.4-1,4.6
					c-1.4,1.2-3.3,1.8-5.2,2.2c-4.5,0.9-9.3,0.7-13.6-0.5c-3.1-0.9-6-2.2-8.9-3.5c-1.7-0.8-3.4-1.6-4.9-2.5c-1.8-1-3.4-2.3-4.4-3.9
					c-0.9-1.6-1-3.7,0.2-5.2c1.3-1.6,4.2-1.8,6.3-1.8C755.2,274.9,757.3,276.6,759.2,278.1z"/>
			</g>
			<path class="st21" d="M354.7,338.4c-0.7-2.7-1-6,1.5-7.9c2-1.6,5.2-1.6,7.5-0.5c2.3,1.1,3.8,3.2,4.6,5.4c0.8,2.2,0.8,4.5,0.9,6.8
				c0.6-7.2,3.2-14.3,7.5-20.5c1.6-2.3,3.7-4.6,6.8-5.2c2.9-0.5,5.9,0.9,7.5,2.9c1.6,2.1,2,4.7,1.5,7.1c-0.5,2.4-1.7,4.7-3,6.9
				c-3.6,6-8,11.6-13.1,16.7c4.9-4.3,10.8-7.9,17.2-10.4c1.6-0.6,3.3-1.2,5.1-1.3c1.8-0.1,3.7,0.4,4.8,1.6c1.3,1.4,1.3,3.5,0.3,5.2
				c-1,1.6-2.6,2.9-4.3,4c-7,4.5-15.4,7.6-24.1,8.7c-2.5,0.3-5.2,0.5-7.6-0.1c-4.2-1.1-5.7-4.9-7.7-7.8
				C357.7,346.5,355.8,342.5,354.7,338.4z"/>
			<path class="st21" d="M274.1,328.2c0.8-2.2,2.3-4.8,5.1-5c1.6-0.1,3.2,0.8,4.2,1.9c1,1.1,1.4,2.5,1.7,3.9
				c2.2,8.6,1.4,17.8-2.2,26c-0.6,1.4-1.6,3.1-3.4,3.3c-5.1,0.8-6.7-9.6-7.1-12.4C271.5,340,272.1,334,274.1,328.2z"/>
			<path class="st21" d="M261.7,351.4c-2.7-3-4.8-6.5-1.7-9.6c1.7-1.7,4.9-2.1,7.5-1.3c2.6,0.7,4.6,2.3,6.5,3.9
				c5,4.3,9.3,9.3,12.6,14.7c0.7,1.1,1.4,2.4,1.4,3.6c0.2,3.7-3.2,3.4-6.3,2.2c-5.9-2.4-11.3-5.7-15.8-9.7
				C264.7,354.2,263.1,352.9,261.7,351.4z"/>
			<path class="st28" d="M263.3,356.2c4.9-2.8,12.3-1.9,16.2,1.9c-0.6-9,6.9-17.9,17.2-20.3c10.3-2.3,22.1,2.2,26.9,10.2
				c2.1-4.3,7.5-7.2,13-7.1c5.5,0.1,10.7,3.3,12.5,7.7c2.2-6.9,10.6-12,19-11.6c8.4,0.5,16,6.5,17.1,13.6c0.8-3.1,5.4-4.7,8.8-3.6
				c3.4,1.1,5.5,4.4,5.3,7.6s-2.2,6-4.9,8.2c-2.7,2.1-6,3.6-9.4,5c-29.6,12.1-63.4,16.4-95.9,12.3c-10.1-1.3-17.5-4.1-25.7-9.2
				C257.1,367.1,255.8,360.5,263.3,356.2z"/>
			<path class="st27" d="M-18,388.9c289.6-27.7,580.7-43.9,872-48.7c1.8,23.2,6.7,48.8,2.6,71.7s-14.7,45.8-34.4,61.9
				c-25,20.5-60.9,27.6-95,33.1c-158.9,25.5-321.8,33.2-483.1,22.9c-94.8-6.1-193.9-20.1-268.3-70.4c-12.6-8.5-25-19-27.8-32.5
				C-54.7,413.4-34.1,388-18,388.9z"/>
			<path class="st42" d="M856.7,411.9c3.5-19.7,0.4-41.2-1.7-61.6c-31.8,0.9-64.1,5.6-95.7,6.3c-98.6,2-197.2,6.6-295.5,13.7
				c-55.2,4-110.3,8.8-165.2,14.4c106.9-1.4,213.8-2.9,320.7-4.3C431.2,394.3,239.5,408.9,65.3,471c-11.9,4.3-26.1,14.4-19.1,23.7
				c0,0,0,0,0,0c6.5,2.4,13.1,4.6,19.7,6.7c218.8,21.2,439.8,15.1,660,5.8c0.5-0.1,0.9-0.1,1.4-0.2c34.1-5.5,70-12.6,95-33.1
				C842,457.7,852.6,434.9,856.7,411.9z"/>
			<g>
				<path class="st43" d="M254,453c5.9-23.6,19.2-45.8,38.1-63.8"/>
				<path class="st43" d="M277.6,380.3c-5.2,4.4-6.8,11.6-3.8,17.4c2.9,5.7,10.2,9.6,17.6,9.4c8.3-0.2,15.2-5,21.5-9.5"/>
				<path class="st43" d="M284.4,381.6c-2.8,5.3-4.6,11-5.4,16.8c-0.2,1.6-0.2,3.4,1.3,4.4c1.4,0.9,3.3,0.5,4.9,0
					c7.7-2.2,14.9-5.8,20.9-10.4"/>
				<path class="st8" d="M296.3,387.7c0.1,1.3-1.1,2.4-2.7,2.4c-1.5,0-2.8-1-2.8-2.3c-0.1-1.3,1.1-2.4,2.7-2.4
					C294.9,385.4,296.2,386.4,296.3,387.7z"/>
				<path class="st8" d="M310.6,391c0.1,1.3-1.1,2.4-2.7,2.4c-1.5,0-2.8-1-2.8-2.3c-0.1-1.3,1.1-2.4,2.7-2.4
					C309.2,388.7,310.5,389.7,310.6,391z"/>
				<path class="st8" d="M317.4,396.5c0.1,1.3-1.1,2.4-2.7,2.4c-1.5,0-2.8-1-2.8-2.3s1.1-2.4,2.7-2.4
					C316,394.2,317.3,395.2,317.4,396.5z"/>
				<ellipse class="st8" cx="285.2" cy="380.1" rx="2.8" ry="2.3"/>
				<path class="st8" d="M281.8,379.3c0.1,1.3-1.1,2.4-2.7,2.4c-1.5,0-2.8-1-2.8-2.3c-0.1-1.3,1.1-2.4,2.7-2.4
					C280.5,377,281.8,378,281.8,379.3z"/>
			</g>
			<g>
				<path class="st43" d="M580.7,441.2c-0.9-24.1-9.3-47.9-24.1-68.5"/>
				<path class="st43" d="M572.7,366.1c4.2,5.2,4.2,12.5,0.1,17.7c-4.1,5.2-12.1,7.9-19.3,6.6c-8.1-1.5-14-7.2-19.2-12.6"/>
				<path class="st43" d="M565.7,366.3c1.6,5.7,2.2,11.5,1.8,17.4c-0.1,1.6-0.5,3.4-2.2,4.1c-1.5,0.6-3.3,0-4.8-0.7
					c-7.1-3.3-13.4-7.9-18.4-13.4"/>
				<path class="st8" d="M552.8,370.6c-0.3,1.3,0.6,2.5,2.1,2.8c1.5,0.3,3-0.5,3.3-1.8c0.3-1.3-0.6-2.5-2.1-2.8
					C554.6,368.5,553.1,369.3,552.8,370.6z"/>
				<path class="st8" d="M538,371.7c-0.3,1.3,0.6,2.5,2.1,2.8c1.5,0.3,3-0.5,3.3-1.8c0.3-1.3-0.6-2.5-2.1-2.8
					C539.8,369.6,538.4,370.4,538,371.7z"/>
				<path class="st8" d="M530.2,376.1c-0.3,1.3,0.6,2.5,2.1,2.8c1.5,0.3,3-0.5,3.3-1.8c0.3-1.3-0.6-2.5-2.1-2.8
					C532,374,530.5,374.8,530.2,376.1z"/>
				<path class="st8" d="M562.5,364.2c-0.3,1.3,0.6,2.5,2.1,2.8c1.5,0.3,3-0.5,3.3-1.8c0.3-1.3-0.6-2.5-2.1-2.8
					C564.3,362.2,562.9,363,562.5,364.2z"/>
				<path class="st8" d="M568.8,364.5c-0.3,1.3,0.6,2.5,2.1,2.8c1.5,0.3,3-0.5,3.3-1.8c0.3-1.3-0.6-2.5-2.1-2.8
					C570.6,362.4,569.1,363.2,568.8,364.5z"/>
			</g>
			<g>
				<path class="st43" d="M251.8,441.7c-3.7-19.2-12.1-37.7-24.5-54.1"/>
				<path class="st43" d="M211.2,392.6c2.3,5.2,8.4,9,14.9,9.2c6.5,0.3,13-3,15.9-7.9c2.9-4.9,2-11.3-2.2-15.5"/>
				<path class="st43" d="M216.5,390.2c3.6,2.1,7.3,4.3,10.9,6.4c1.9,1.1,4.2,2.2,6.2,1.3c1.8-0.8,2.3-2.8,2.4-4.5
					c0.3-4.4-0.3-8.8-1.7-13"/>
				<path class="st8" d="M241.8,377.7c0,1-0.9,1.9-2.1,1.9c-1.2,0-2.2-0.8-2.3-1.8c0-1,0.9-1.9,2.1-1.9
					C240.7,375.8,241.8,376.6,241.8,377.7z"/>
				<path class="st8" d="M236.1,379.7c0,1-0.9,1.9-2.1,1.9c-1.2,0-2.2-0.8-2.3-1.8c0-1,0.9-1.9,2.1-1.9
					C235.1,377.9,236.1,378.7,236.1,379.7z"/>
				<path class="st8" d="M229.6,387.2c0,1-0.9,1.9-2.1,1.9c-1.2,0-2.2-0.8-2.3-1.8c0-1,0.9-1.9,2.1-1.9
					C228.5,385.4,229.5,386.2,229.6,387.2z"/>
				<path class="st8" d="M218.4,389.8c0,1-0.9,1.9-2.1,1.9c-1.2,0-2.2-0.8-2.3-1.8c0-1,0.9-1.9,2.1-1.9S218.4,388.8,218.4,389.8z"/>
				<path class="st8" d="M213,391.4c0,1-0.9,1.9-2.1,1.9c-1.2,0-2.2-0.8-2.3-1.8c0-1,0.9-1.9,2.1-1.9
					C211.9,389.6,213,390.4,213,391.4z"/>
			</g>
			<g>
				<path class="st43" d="M597.1,418.3c6.9-18.5,18.3-35.8,33.3-50.5"/>
				<path class="st43" d="M645.6,374.6c-3.1,4.8-9.8,7.8-16.3,7.3c-6.5-0.5-12.4-4.5-14.4-9.7c-2-5.2-0.1-11.4,4.8-15.1"/>
				<path class="st43" d="M640.7,371.6c-4,1.7-7.9,3.4-11.9,5c-2,0.9-4.5,1.7-6.4,0.6c-1.7-1-1.8-3-1.6-4.7
					c0.4-4.4,1.8-8.7,3.9-12.7"/>
				<path class="st8" d="M617.8,356.1c-0.2,1,0.6,2,1.8,2.2c1.2,0.2,2.3-0.5,2.5-1.5c0.2-1-0.6-2-1.8-2.2
					C619.1,354.4,618,355.1,617.8,356.1z"/>
				<path class="st8" d="M623.1,358.8c-0.2,1,0.6,2,1.8,2.2s2.3-0.5,2.5-1.5c0.2-1-0.6-2-1.8-2.2
					C624.4,357.1,623.3,357.8,623.1,358.8z"/>
				<path class="st8" d="M628.3,367c-0.2,1,0.6,2,1.8,2.2c1.2,0.2,2.3-0.5,2.5-1.5c0.2-1-0.6-2-1.8-2.2S628.5,366,628.3,367z"/>
				<path class="st8" d="M638.9,371c-0.2,1,0.6,2,1.8,2.2c1.2,0.2,2.3-0.5,2.5-1.5c0.2-1-0.6-2-1.8-2.2S639.1,370,638.9,371z"/>
				<path class="st8" d="M644,373.2c-0.2,1,0.6,2,1.8,2.2c1.2,0.2,2.3-0.5,2.5-1.5c0.2-1-0.6-2-1.8-2.2S644.2,372.2,644,373.2z"/>
			</g>
			<path class="st25" d="M144.2,362.2c32.1,10.3,54.3,39.3,52.4,68.4c8.2-8.8,22.8-12.9,35.6-9.9c12.8,2.9,22.9,12.7,24.8,23.8
				c6.7-13.1,26.3-20.2,42.2-15.4c15.8,4.9,25.5,21,20.8,34.7c-6.1,17.7-29.8,25.9-51,29.7c-49.6,9-101.9,7.1-150.5-5.3
				c-27.8-7.1-55.7-18.5-72.2-38.8C2.8,396.2,83.7,342.8,144.2,362.2z"/>
			<path class="st44" d="M299.1,429c-15.8-4.9-35.4,2.3-42.2,15.4c-1.9-11.1-12-20.9-24.8-23.8c-12.8-2.9-27.4,1.1-35.6,9.9
				c2-29-20.3-58.1-52.4-68.4c-42.1-13.5-94,8.3-107.1,40.7c18.1-26.1,65-42.3,103.6-30.8c32.3,9.7,54.6,37.1,52.6,64.5
				c8.3-8.3,23-12.2,35.9-9.4c12.8,2.7,23.1,12,24.9,22.4c6.8-12.4,26.6-19.2,42.5-14.6c15.9,4.6,25.6,19.8,20.9,32.7
				c-0.6,1.6-1.4,3.2-2.3,4.6c2.1-2.6,3.8-5.4,4.8-8.6C324.6,450,314.9,433.9,299.1,429z"/>
			<g id="plant1">
				<path class="st4" d="M-15.6,387.3c2.3-8.1,4.6-16.3,9.6-23.4c0-0.1,0.1-0.1,0.1-0.2c8-11.4,28.3-9.8,33.5,2.7
					c4.7,11.2,5.6,23.6,2.2,35.1c5.2-24.4,17.5-47.7,35.6-67.1c8.9-9.6,21.2-18.9,35.5-17.7c12.6,1.1,22.5,10.7,25.5,21.1
					c3,10.4,0.4,21.5-3.6,31.7c-9,22.8-24.9,43.6-45.8,59.8c14.4-12.4,31.6-22.5,50.3-29.8c10.5-4,24.1-6.8,32.1,0.9
					c3.1,3,4.5,7,4.3,11c-0.3,8.1-5.6,14.8-11.4,20.9c-17.4,18.4-39.5,33.7-64.3,44.4c-14.6,6.3-30.4,11-46.8,11.9
					C10.4,490.2-12.9,477-25,453.3C-35.2,433-21.3,407.5-15.6,387.3z"/>
				<g>
					<g>
						<path class="st27" d="M99.4,342.7c-6.3,11-13.1,21.8-20.1,32.4c-7.1,10.6-14.4,20.9-22.1,31.1c-7.6,10.2-15.5,20.2-23.7,29.9
							c-8.2,9.8-16.6,19.3-25.4,28.5l-2.9-2.8c9-8.9,17.6-18.2,26-27.7c8.4-9.5,16.5-19.2,24.4-29.2c7.9-9.9,15.5-20.1,22.8-30.5
							C85.7,364.2,92.8,353.6,99.4,342.7z"/>
					</g>
					<g>
						<path class="st27" d="M85.7,363.8c10.6-3.3,20.9-7.5,30.7-12.9c-9.6,5.7-19.8,10.2-30.3,13.8L85.7,363.8z"/>
					</g>
					<g>
						<path class="st27" d="M73.3,382.1c-3.1-10.1-3.9-20.9-1.9-31.3c-1.7,10.4-0.5,21.1,2.9,30.9L73.3,382.1z"/>
					</g>
					<g>
						<path class="st27" d="M58,402.8c6.9-2,13.7-4.5,20.2-7.6c6.5-3,12.8-6.6,18.8-10.6c-5.9,4.1-12.1,7.8-18.6,11
							c-6.5,3.2-13.2,5.9-20.1,8.1L58,402.8z"/>
					</g>
					<g>
						<path class="st27" d="M47.7,416.2c-1.5-5.6-2.5-11.3-3-17c-0.4-5.7-0.2-11.5,0.7-17.2c-0.7,5.7-0.7,11.5-0.2,17.2
							c0.6,5.7,1.7,11.3,3.4,16.8L47.7,416.2z"/>
					</g>
					<g>
						<path class="st27" d="M34.1,432.4c6.1-0.8,12.2-2.2,18-4.2c5.9-2,11.5-4.6,16.8-7.8c-5.2,3.4-10.8,6.1-16.7,8.3
							c-5.8,2.2-11.9,3.8-18,4.7L34.1,432.4z"/>
					</g>
					<g>
						<path class="st27" d="M15.5,451.3c-7.4-24-8.9-49.7-4.1-74c-3.4,24.6-0.6,49.8,7.9,72.7L15.5,451.3z"/>
					</g>
					<g>
						<path class="st27" d="M8.8,457c23.3-0.9,46.6-4.6,69-11.4c22.4-6.9,43.8-16.9,63.1-30.4c-18.9,14-40.2,24.8-62.5,32.3
							C56,455,32.6,459.4,9,461L8.8,457z"/>
					</g>
					<g>
						<path class="st27" d="M115.5,430.5c0.9-4,2.8-7.7,5.4-10.8c2.6-3.1,5.9-5.5,9.3-7.5c-3.4,2.1-6.5,4.7-9,7.8
							c-2.5,3.1-4.2,6.8-4.9,10.6L115.5,430.5z"/>
					</g>
					<g>
						<path class="st27" d="M99,438.2c5.3,0.8,10.7,0.9,16.1,0.2c5.4-0.7,10.6-2.2,15.6-4.2c-5,2.2-10.2,3.8-15.6,4.7
							c-5.4,0.9-10.9,0.9-16.3,0.3L99,438.2z"/>
					</g>
					<g>
						<path class="st27" d="M77.1,446.5c3-6.9,8.1-12.8,14.3-16.9c-6,4.4-10.8,10.4-13.4,17.3L77.1,446.5z"/>
					</g>
					<g>
						<path class="st27" d="M60.5,451.1c5.1,1.9,10.4,3.3,15.7,4.1c5.4,0.8,10.9,1,16.3,0.6c-5.4,0.5-10.9,0.5-16.4-0.1
							c-5.4-0.6-10.8-1.9-16-3.7L60.5,451.1z"/>
					</g>
					<g>
						<path class="st27" d="M34.3,456.1c3.4-2.8,6.9-5.5,10.6-7.8c3.7-2.4,7.6-4.4,11.6-6.3c-3.9,2-7.7,4.2-11.3,6.7
							c-3.6,2.5-7,5.2-10.3,8.2L34.3,456.1z"/>
					</g>
					<g>
						<path class="st27" d="M13.9,439.9c2.2-2.9,4.2-5.9,5.8-9.2c1.6-3.3,2.8-6.7,3.9-10.2c-0.9,3.5-2,7.1-3.4,10.4
							c-1.5,3.4-3.3,6.6-5.5,9.6L13.9,439.9z"/>
					</g>
					<g>
						<path class="st27" d="M11.5,429.4c-3.2-1.9-6.1-4.4-8.3-7.3c-2.3-2.9-3.9-6.3-4.7-9.9c1,3.5,2.7,6.8,5.1,9.6
							c2.3,2.8,5.2,5,8.4,6.7L11.5,429.4z"/>
					</g>
					<g>
						<path class="st27" d="M9.1,406.9c2.7-2.6,5.2-5.3,7.5-8.2c2.3-2.9,4.4-6,6.2-9.2c-1.7,3.3-3.7,6.5-5.8,9.5
							c-2.2,3-4.6,5.9-7.2,8.6L9.1,406.9z"/>
					</g>
					<g>
						<path class="st27" d="M9.4,391.6c-2.7-2.2-5-4.8-6.8-7.7c-1.8-2.9-3.1-6.2-3.4-9.6c0.4,3.4,1.9,6.6,3.8,9.3
							c1.9,2.8,4.3,5.2,7,7.2L9.4,391.6z"/>
					</g>
				</g>
			</g>
			<g id="plant2">
				<g>
					<path class="st45" d="M767.6,346c3.2-3.9,6.9-7.8,11.7-10.2c4.9-2.5,11.2-3.3,16.2-1.1c4.1,1.8,6.8,5.5,7.9,9.4
						s0.8,7.9,0.3,11.8c-3.5,24.2-17.3,46.4-32.8,66.8c-2.9,3.9-6,7.8-10.5,10.4c-4.3,2.5-11.2,4-15.9,1.2
						c-10.3-6.2-2.4-30.6-0.4-39C748.4,378,755.6,360.5,767.6,346z"/>
					<g>
						<g>
							<path class="st27" d="M750.3,423.3c9-27.1,22-52.8,38-76.2c-14.9,24.1-26.5,50.2-34.2,77.3L750.3,423.3z"/>
						</g>
						<g>
							<polygon class="st27" points="775.3,368 795.7,357.3 775.8,368.9 							"/>
						</g>
						<g>
							<polygon class="st27" points="769.2,379.8 766.1,357.2 770.2,379.6 							"/>
						</g>
						<g>
							<polygon class="st27" points="762.7,394.2 788.5,383.3 763.1,395.1 							"/>
						</g>
						<g>
							<polygon class="st27" points="755.5,412.6 750.6,390.3 756.4,412.4 							"/>
						</g>
					</g>
				</g>
				<g>
					<path class="st4" d="M667.4,374.9c-1.9-7.4-2.6-14.9-1.4-22.4c2-13.2,13.2-27.6,31.1-25.9c7.8,0.7,14.7,4.9,19.5,10.1
						c4.8,5.2,7.9,11.4,10.7,17.6c6.8,15.1,12.2,30.6,16.2,46.4c3.9,15.2,12.6,36.4,6.2,51.8c-1.5,3.5-4.7,6.7-9.1,7.4
						c-2.7,0.4-5.5-0.2-8-1.2c-11.6-4.8-19.9-18.1-27.6-26.6c-10.5-11.6-20.9-23.4-28.7-36.4C672.5,389.2,669.3,382.1,667.4,374.9z"
						/>
					<g>
						<g>
							<polygon class="st27" points="691.3,344.7 739.6,446.4 736,448.1 							"/>
						</g>
						<g>
							<polygon class="st27" points="683.3,359.3 704,371 703.5,371.8 							"/>
						</g>
						<g>
							<polygon class="st27" points="721.9,358.3 714.5,394.9 713.5,394.6 							"/>
						</g>
						<g>
							<polygon class="st27" points="686.5,394.5 721.1,409.5 720.7,410.4 							"/>
						</g>
						<g>
							<polygon class="st27" points="735.4,410 730.8,431 729.9,430.7 							"/>
						</g>
					</g>
				</g>
			</g>
			<path class="st26" d="M759.7,398.7c-16.6,10.3-28,26.4-30.9,43.6c-3.5-9.6-14.1-17.1-25.9-18.2c-11.8-1.1-24.1,4.2-30,13
				c-8.7-20.4-33.7-34.9-59.2-34.4c-25.5,0.5-49.7,16-57.2,36.8c-7.7-8-23-9.1-33.2-3.4c-10.2,5.7-15.3,16.7-14.1,27.1
				c1.1,10.3,7.7,19.8,16.5,27.1c8.7,7.2,19.5,12.5,30.5,17c84.5,34.6,187.1,29.8,272.7-2.9c22.8-8.7,45.8-20.4,57.1-39.3
				c10.3-17.3,8.6-39.3-4.3-55.3C856.7,378.7,793,378,759.7,398.7z"/>
			<path class="st46" d="M755,425.2c-15.3,8.9-25.8,22.9-28.5,37.9c-3.2-8.4-13-14.9-23.9-15.8c-10.9-1-22.2,3.7-27.6,11.3
				c-8-17.7-31-30.3-54.5-29.9c-23.5,0.4-45.8,13.9-52.7,31.9c-7.1-7-21.2-7.9-30.6-3c-9.4,4.9-14.1,14.5-13,23.5
				s7.1,17.2,15.2,23.5c8.1,6.3,18,10.8,28.1,14.7c77.9,30.1,172.4,25.9,251.2-2.5c21-7.6,42.2-17.7,52.6-34.1c9.5-15,7.9-34.1-4-48
				C844.5,407.8,785.8,407.2,755,425.2z"/>
			<g id="plant3">
				<path class="st4" d="M349.9,425.6c-4.4-8.3-7.7-18.5-1.4-25.9c5.1-5.9,15.3-7.6,23.4-5.1c8.1,2.5,14.2,8.6,17.9,15.2
					c3.7,6.6,5.3,14,6.8,21.2c-0.4-13.8-0.7-27.7,2.2-41.3c2.9-13.6,9.3-27,20.8-36.8c6.6-5.7,16.7-10.2,25.3-7
					c8.7,3.2,11.5,12.4,12.4,20.4c2.5,21.1-0.6,42.7-8.8,62.7c7.2-8.8,16.9-16,28.1-20.9c5.6-2.5,12.2-4.3,18-2.3
					c5.3,1.9,8.5,6.8,9,11.6s-1.2,9.7-3.4,14.2c-10.8,22.2-34.4,39.6-61.7,45.7c-10.4,2.3-21.4,3.1-31.8,0.8
					C379.6,472.3,360.5,445.6,349.9,425.6z"/>
				<g>
					<g>
						<path class="st27" d="M434.8,360.9c-12.1,34.4-18,70.9-17.1,107.2l-4,0C414.1,431.3,421.4,394.8,434.8,360.9z"/>
					</g>
					<g>
						<path class="st27" d="M415.6,454.5c13.3-1.2,26.4-4.6,38.6-10.3c12.2-5.6,23.4-13.6,32.9-23.2c-9,10.1-19.9,18.7-32,25
							c-12.1,6.4-25.4,10.5-39,12.5L415.6,454.5z"/>
					</g>
					<g>
						<path class="st27" d="M419.7,467.3c-6.2-2.7-12-6.2-17.2-10.4c-5.2-4.2-9.9-9-14-14.2c-4.1-5.2-7.8-10.7-11.1-16.4
							c-3.3-5.7-6.4-11.5-9.4-17.4c3.3,5.7,6.6,11.4,10.2,16.8c3.6,5.5,7.5,10.8,11.8,15.6c4.3,4.9,9.1,9.3,14.3,13.1
							c5.2,3.8,10.9,6.9,16.9,9.1L419.7,467.3z"/>
					</g>
					<g>
						<polygon class="st27" points="426.9,383.6 444.8,373.1 427.4,384.5 						"/>
					</g>
					<g>
						<path class="st27" d="M423.7,396.3c-3.9-5.1-6.6-11-7.6-17.3c1.3,6.2,4.3,11.9,8.4,16.7L423.7,396.3z"/>
					</g>
					<g>
						<polygon class="st27" points="420.4,411.4 444.6,394.9 421,412.2 						"/>
					</g>
					<g>
						<path class="st27" d="M418.3,424.3c-3.1-3.1-5.8-6.6-7.9-10.4c-2.1-3.8-3.7-7.9-4.7-12.1c1.2,4.2,2.9,8.2,5.2,11.9
							c2.3,3.7,5,7,8.2,10L418.3,424.3z"/>
					</g>
					<g>
						<path class="st27" d="M417,435.2c3.9-2.3,7.6-4.9,11.2-7.7c3.5-2.9,6.8-6,10.2-9.1c-3.2,3.2-6.4,6.5-9.8,9.5
							c-3.4,3-7.1,5.7-11,8.2L417,435.2z"/>
					</g>
					<g>
						<path class="st27" d="M471.2,434.6c0.5-3,1.2-6.1,2.2-9c1-2.9,2.2-5.8,3.5-8.5c-1.2,2.8-2.2,5.7-3,8.7c-0.8,3-1.3,6-1.7,9
							L471.2,434.6z"/>
					</g>
					<g>
						<path class="st27" d="M466.3,438.1c3.8,1,7.7,1.4,11.6,1.1c3.9-0.3,7.7-1.3,11.4-2.5c-3.7,1.4-7.5,2.6-11.4,3
							c-3.9,0.5-7.9,0.2-11.8-0.6L466.3,438.1z"/>
					</g>
					<g>
						<path class="st27" d="M454.3,444.9c0.7-3.5,1.7-6.8,3.1-10.1c1.4-3.2,3.1-6.3,5-9.2c-1.8,3-3.4,6.1-4.6,9.4
							c-1.2,3.3-2,6.6-2.5,10.1L454.3,444.9z"/>
					</g>
					<g>
						<path class="st27" d="M444.7,449c4.3,1.1,8.8,1.6,13.2,1.6c4.5,0,8.9-0.6,13.3-1.5c-4.4,1.1-8.8,1.8-13.3,2
							c-4.5,0.2-9-0.2-13.4-1.1L444.7,449z"/>
					</g>
					<g>
						<path class="st27" d="M431.5,453.5c0-3.1,0.3-6.1,1.2-9.1c0.8-2.9,2.2-5.7,3.7-8.3c-1.4,2.7-2.6,5.5-3.3,8.4
							c-0.7,2.9-0.8,5.9-0.6,8.9L431.5,453.5z"/>
					</g>
					<g>
						<path class="st27" d="M376.9,425.3c0.8-2.8,1.5-5.6,1.8-8.5c0.4-2.9,0.6-5.8,0.7-8.7c0,2.9,0,5.9-0.2,8.8
							c-0.2,2.9-0.7,5.9-1.4,8.7L376.9,425.3z"/>
					</g>
					<g>
						<path class="st27" d="M381.2,432c-4-0.4-7.9-1.2-11.6-2.7c-3.7-1.5-7.1-3.5-10.3-5.8c3.3,2.2,6.8,4,10.5,5.3
							c3.7,1.3,7.6,2,11.5,2.2L381.2,432z"/>
					</g>
					<g>
						<polygon class="st27" points="390.1,443.7 389.6,424.2 391.1,443.6 						"/>
					</g>
					<g>
						<path class="st27" d="M394.4,448.3c-8.9-0.6-17.6-2.7-25.9-5.9c8.4,2.9,17.2,4.6,26,4.9L394.4,448.3z"/>
					</g>
					<g>
						<path class="st27" d="M401.1,454.2c0.5-2.6,1-5.1,1.2-7.7c0.2-2.6,0.3-5.2,0.4-7.8c0.1,2.6,0.2,5.2,0.1,7.9
							c-0.1,2.6-0.3,5.3-0.7,7.9L401.1,454.2z"/>
					</g>
					<g>
						<path class="st27" d="M409,460c-6.4,2.1-13,3.3-19.7,3.6c6.6-0.7,13.1-2.2,19.3-4.6L409,460z"/>
					</g>
					<g>
						<path class="st27" d="M429.6,375.3c-0.7-1.2-1.2-2.5-1.5-3.8c-0.3-1.3-0.5-2.7-0.6-4c-0.3-2.7-0.4-5.3-0.9-8
							c0.6,2.6,0.9,5.3,1.3,7.9c0.4,2.6,0.9,5.3,2.4,7.4L429.6,375.3z"/>
					</g>
				</g>
			</g>
			<g id="clouds">
				<path class="st27" d="M152.9,108.7c0.4-3.8-2.9-7.7-7.4-8.4c-4.4-0.8-9.3,1.6-10.8,5.2c-0.4-3.5-4-6.5-8.1-6.9
					c-4.1-0.3-8.3,2.1-9.4,5.5c-3.2-6.8-11.2-12.1-19.8-12c-8.6,0.1-16.9,6.4-16.7,13.8c-0.8-3.8-6.3-6.2-10.4-4.6
					c-4.1,1.6-5.5,6.7-2.7,9.7l-34.6,3.1h152.5L152.9,108.7z"/>
				<path class="st27" d="M594.7,30.5c0.2-1.9-1.5-3.9-3.8-4.3c-2.3-0.4-4.7,0.8-5.5,2.7c-0.2-1.8-2-3.3-4.1-3.5
					c-2.1-0.2-4.2,1.1-4.8,2.8c-1.6-3.5-5.7-6.2-10.1-6.1c-4.4,0.1-8.6,3.3-8.5,7c-0.4-1.9-3.2-3.1-5.3-2.3s-2.8,3.4-1.4,4.9
					l-17.6,1.6h77.8L594.7,30.5z"/>
				<path class="st27" d="M413.2,45.7c1.1-5.1-3.2-10.6-9.1-11.6c-5.9-1-12.5,2.5-13.8,7.6c-0.8-3.8-5.1-6.8-9.7-6.8
					c-4.5,0.1-8.8,3.2-9.4,7c-2.5-8.8-12.8-15.6-23.5-15.4C337,26.8,327,34,325.1,42.9c0.3-4.6-5.8-8.6-11-7.3
					c-5.2,1.4-7.5,7.6-4.1,11.3l-42.9,2h179.6L413.2,45.7z"/>
				<path class="st27" d="M817.4,103.5c0.6-2.9-1.8-6-5.2-6.6c-3.4-0.6-7.1,1.4-7.8,4.3c-0.5-2.1-2.9-3.9-5.5-3.8
					c-2.6,0-5,1.8-5.3,4c-1.4-5-7.2-8.8-13.3-8.7c-6,0.1-11.7,4.2-12.7,9.3c0.2-2.6-3.3-4.9-6.2-4.1c-2.9,0.8-4.2,4.3-2.3,6.4
					l-24.2,1.2h101.5L817.4,103.5z"/>
				<path class="st27" d="M529.9,85c0.3-3-2.5-6-6-6.4c-3.5-0.4-7.2,1.8-7.9,4.7c-1.3-7.2-9.8-12.9-18.3-12.4
					c-8.6,0.5-16,7.2-16.1,14.4c-0.1-2.3-2.6-4.3-5.3-4.4c-2.7-0.1-5.3,1.8-5.6,4.1c-0.7-2.6-2.7-5-5.7-6c-2.9-1-6.6-0.4-8.6,1.7
					c-2,2.1-1.8,5.5,0.6,7.2l-39.6,2.6h146.8L529.9,85z"/>
				<path class="st27" d="M208.1,58.8c0.2-1.8-1.5-3.6-3.6-3.8c-2.1-0.3-4.3,1.1-4.7,2.8c-0.8-4.3-5.8-7.7-10.9-7.4
					c-5.1,0.3-9.5,4.3-9.6,8.6c-0.1-1.4-1.5-2.6-3.1-2.6c-1.6,0-3.1,1.1-3.3,2.5c-0.4-1.6-1.6-3-3.4-3.6s-3.9-0.2-5.1,1
					c-1.2,1.2-1.1,3.3,0.4,4.3l-23.7,1.6h87.6L208.1,58.8z"/>
				<path class="st27" d="M741.3,61.9c1.1-3.1-1.3-6.9-5.1-7.7c-3.8-0.8-8,1.5-8.8,4.7c1.4-6.6-6.3-12.9-14.2-12.6
					c-7.9,0.3-14.5,6.1-16.1,12.6c-0.7-3.4-4.7-6-8.7-5.8c-4,0.2-7.5,3.3-7.7,6.7c-0.8-2.8-2.7-5.5-5.6-6.8c-3-1.3-7.1-0.9-9.1,1.4
					c-2,2.3-1,6.2,2.3,7l-28.6,2.2h120.8L741.3,61.9z"/>
				<path class="st27" d="M54.4,38.6c0.8-2.1-0.9-4.7-3.5-5.2c-2.6-0.5-5.5,1-6,3.2c0.9-4.5-4.3-8.8-9.7-8.6
					c-5.4,0.2-9.9,4.1-11,8.6c-0.5-2.3-3.2-4.1-5.9-3.9c-2.7,0.2-5.1,2.3-5.2,4.6c-0.5-1.9-1.8-3.7-3.8-4.6c-2-0.9-4.8-0.6-6.2,0.9
					c-1.4,1.5-0.7,4.2,1.5,4.8l-19.5,1.5h82.4L54.4,38.6z"/>
			</g>
			<rect x="641.8" y="217.3" class="st34" width="36.9" height="3"/>
			<g id="snow">
				<ellipse class="st27" cx="95.9" cy="31.8" rx="4.5" ry="3.8"/>
				<ellipse class="st27" cx="121.1" cy="64.1" rx="2.4" ry="2.1"/>
				<ellipse class="st27" cx="168" cy="18.7" rx="3.8" ry="3.3"/>
				<path class="st27" d="M231,32.8c0,0.6-0.6,1.1-1.2,1.1c-0.7,0-1.2-0.5-1.2-1.1c0-0.6,0.6-1.1,1.2-1.1
					C230.4,31.8,231,32.3,231,32.8z"/>
				<path class="st27" d="M280.3,18.4c0,1.6-1.5,2.9-3.4,2.9c-1.9,0-3.4-1.3-3.4-2.9s1.5-2.9,3.4-2.9
					C278.8,15.5,280.3,16.8,280.3,18.4z"/>
				<ellipse class="st27" cx="271" cy="67.5" rx="3.9" ry="3.3"/>
				<path class="st27" d="M217.2,96.3c0,1.6-1.5,2.9-3.4,2.9c-1.9,0-3.4-1.3-3.4-2.9c0-1.6,1.5-2.9,3.4-2.9
					C215.6,93.4,217.2,94.7,217.2,96.3z"/>
				<ellipse class="st27" cx="129.5" cy="131.5" rx="1.9" ry="1.6"/>
				<ellipse class="st27" cx="36" cy="85.3" rx="2.9" ry="2.5"/>
				<path class="st27" d="M79.5,124.7c0,1.1-1,2-2.3,2c-1.3,0-2.3-0.9-2.3-2s1-2,2.3-2C78.4,122.8,79.5,123.6,79.5,124.7z"/>
				<ellipse class="st27" cx="31.1" cy="13.3" rx="2" ry="1.7"/>
				<path class="st27" d="M264.2,134.5c0,1.7-1.6,3-3.6,3c-2,0-3.6-1.4-3.6-3c0-1.7,1.6-3,3.6-3
					C262.6,131.5,264.2,132.9,264.2,134.5z"/>
				<path class="st27" d="M338.8,83.6c0,1.6-1.5,2.9-3.4,2.9c-1.9,0-3.4-1.3-3.4-2.9c0-1.6,1.5-2.9,3.4-2.9
					C337.3,80.7,338.8,82,338.8,83.6z"/>
				<path class="st27" d="M328.5,120c0,1-1,1.9-2.2,1.9c-1.2,0-2.2-0.8-2.2-1.9c0-1,1-1.9,2.2-1.9C327.5,118.1,328.5,119,328.5,120z
					"/>
				<path class="st27" d="M411.8,110c0,1.2-1.1,2.1-2.5,2.1c-1.4,0-2.5-1-2.5-2.1s1.1-2.1,2.5-2.1
					C410.7,107.9,411.8,108.9,411.8,110z"/>
				<ellipse class="st27" cx="417.7" cy="64.1" rx="2.4" ry="2.1"/>
				<path class="st27" d="M384.1,17.1c0,0.9-0.9,1.6-1.9,1.6s-1.9-0.7-1.9-1.6c0-0.9,0.9-1.6,1.9-1.6S384.1,16.2,384.1,17.1z"/>
				<ellipse class="st27" cx="366.7" cy="56.2" rx="3.8" ry="3.2"/>
				<path class="st27" d="M485.7,48.3c0,1.1-1.1,2-2.4,2c-1.3,0-2.4-0.9-2.4-2c0-1.1,1.1-2,2.4-2C484.6,46.3,485.7,47.2,485.7,48.3z
					"/>
				<path class="st27" d="M463.8,24.4c0,1.8-1.7,3.2-3.8,3.2c-2.1,0-3.8-1.4-3.8-3.2c0-1.8,1.7-3.2,3.8-3.2
					C462.1,21.2,463.8,22.7,463.8,24.4z"/>
				<path class="st27" d="M539.9,55.6c0,1.5-1.4,2.7-3.1,2.7c-1.7,0-3.1-1.2-3.1-2.7c0-1.5,1.4-2.7,3.1-2.7
					C538.5,53,539.9,54.2,539.9,55.6z"/>
				<path class="st27" d="M527.8,18.4c0,1.6-1.5,2.9-3.4,2.9c-1.9,0-3.4-1.3-3.4-2.9s1.5-2.9,3.4-2.9
					C526.3,15.5,527.8,16.8,527.8,18.4z"/>
				<path class="st27" d="M499,112.6c0,1.4-1.3,2.5-3,2.5c-1.7,0-3-1.1-3-2.5c0-1.4,1.3-2.5,3-2.5C497.7,110,499,111.2,499,112.6z"
					/>
				<ellipse class="st27" cx="456.9" cy="136.6" rx="4.2" ry="3.5"/>
				<ellipse class="st27" cx="558.6" cy="105.4" rx="2.9" ry="2.5"/>
				<ellipse class="st27" cx="579.6" cy="69.9" rx="2.8" ry="2.4"/>
				<path class="st27" d="M624.1,44.9c0,0.7-0.7,1.3-1.6,1.3c-0.9,0-1.6-0.6-1.6-1.3s0.7-1.3,1.6-1.3
					C623.4,43.6,624.1,44.2,624.1,44.9z"/>
				<path class="st27" d="M647,14.8c0,2.4-2.3,4.4-5.2,4.4s-5.2-2-5.2-4.4s2.3-4.4,5.2-4.4S647,12.3,647,14.8z"/>
				<ellipse class="st27" cx="589.9" cy="1.2" rx="5.3" ry="4.5"/>
				<ellipse class="st27" cx="697.4" cy="35.5" rx="2.7" ry="2.3"/>
				<path class="st27" d="M737.7,11.5c0,1.8-1.7,3.3-3.8,3.3c-2.1,0-3.8-1.5-3.8-3.3c0-1.8,1.7-3.3,3.8-3.3
					C735.9,8.3,737.7,9.7,737.7,11.5z"/>
				<ellipse class="st27" cx="781.8" cy="1.2" rx="5.3" ry="4.5"/>
				<path class="st27" d="M803.8,53.6c0,2.6-2.5,4.7-5.5,4.7c-3,0-5.5-2.1-5.5-4.7s2.5-4.7,5.5-4.7C801.4,49,803.8,51.1,803.8,53.6z
					"/>
				<path class="st27" d="M760.5,36.8c0,0.7-0.7,1.3-1.5,1.3s-1.5-0.6-1.5-1.3s0.7-1.3,1.5-1.3S760.5,36.1,760.5,36.8z"/>
				<path class="st27" d="M732.7,86.2c0,1.5-1.4,2.7-3.1,2.7c-1.7,0-3.1-1.2-3.1-2.7c0-1.5,1.4-2.7,3.1-2.7
					C731.3,83.6,732.7,84.8,732.7,86.2z"/>
				<path class="st27" d="M672.3,101c0,1.1-1.1,2-2.4,2c-1.3,0-2.4-0.9-2.4-2c0-1.1,1.1-2,2.4-2C671.3,99,672.3,99.9,672.3,101z"/>
				<path class="st27" d="M632.3,87.1c0,1.9-1.8,3.5-4.1,3.5c-2.3,0-4.1-1.6-4.1-3.5c0-1.9,1.8-3.5,4.1-3.5
					C630.5,83.6,632.3,85.1,632.3,87.1z"/>
				<ellipse class="st27" cx="626.6" cy="131.5" rx="5.7" ry="4.8"/>
				<ellipse class="st27" cx="719.9" cy="134" rx="4.9" ry="4.1"/>
				<path class="st27" d="M773.2,122.6c0,1.4-1.4,2.6-3.1,2.6c-1.7,0-3.1-1.2-3.1-2.6c0-1.4,1.4-2.6,3.1-2.6
					C771.9,120,773.2,121.2,773.2,122.6z"/>
				<path class="st27" d="M806,152.7c0,2.4-2.3,4.4-5.2,4.4s-5.2-2-5.2-4.4c0-2.4,2.3-4.4,5.2-4.4S806,150.3,806,152.7z"/>
				<path class="st27" d="M767.1,169.4c0,1.8-1.7,3.2-3.7,3.2c-2.1,0-3.7-1.4-3.7-3.2c0-1.8,1.7-3.2,3.7-3.2
					C765.4,166.2,767.1,167.7,767.1,169.4z"/>
				<ellipse class="st27" cx="745.8" cy="192.2" rx="3.7" ry="3.2"/>
				<ellipse class="st27" cx="689.9" cy="168.9" rx="3.1" ry="2.6"/>
				<path class="st27" d="M678,132c0,1.1-1.1,2.1-2.4,2.1c-1.3,0-2.4-0.9-2.4-2.1c0-1.1,1.1-2.1,2.4-2.1
					C676.9,129.9,678,130.8,678,132z"/>
				<ellipse class="st27" cx="640.6" cy="179.8" rx="3.9" ry="3.3"/>
				<path class="st27" d="M678.7,198.7c0,0.7-0.7,1.3-1.6,1.3c-0.9,0-1.6-0.6-1.6-1.3c0-0.7,0.7-1.3,1.6-1.3
					C678,197.4,678.7,198,678.7,198.7z"/>
				<path class="st27" d="M568.6,170.5c0,2.3-2.2,4.2-5,4.2c-2.8,0-5-1.9-5-4.2c0-2.3,2.2-4.2,5-4.2
					C566.4,166.2,568.6,168.1,568.6,170.5z"/>
				<ellipse class="st27" cx="587.2" cy="124.8" rx="2.6" ry="2.2"/>
				<path class="st27" d="M609,174.8c0,1.2-1.2,2.2-2.6,2.2s-2.6-1-2.6-2.2c0-1.2,1.2-2.2,2.6-2.2S609,173.6,609,174.8z"/>
				<path class="st27" d="M598.7,212.6c0,1.2-1.1,2.1-2.5,2.1s-2.5-0.9-2.5-2.1c0-1.2,1.1-2.1,2.5-2.1S598.7,211.4,598.7,212.6z"/>
				<ellipse class="st27" cx="521.7" cy="203.5" rx="4.1" ry="3.4"/>
				<ellipse class="st27" cx="529.7" cy="143.5" rx="3.9" ry="3.3"/>
				<path class="st27" d="M496.1,174.8c0,1.2-1.2,2.2-2.6,2.2c-1.4,0-2.6-1-2.6-2.2c0-1.2,1.2-2.2,2.6-2.2
					C495,172.6,496.1,173.6,496.1,174.8z"/>
				<ellipse class="st27" cx="453.4" cy="198" rx="3.1" ry="2.6"/>
				<path class="st27" d="M417.7,171.3c0,1.3-1.3,2.4-2.8,2.4c-1.5,0-2.8-1.1-2.8-2.4c0-1.3,1.3-2.4,2.8-2.4
					C416.4,168.9,417.7,169.9,417.7,171.3z"/>
				<path class="st27" d="M475.7,228.7c0,1.3-1.3,2.4-2.9,2.4s-2.9-1.1-2.9-2.4s1.3-2.4,2.9-2.4S475.7,227.4,475.7,228.7z"/>
				<ellipse class="st27" cx="429.8" cy="248.5" rx="4.1" ry="3.5"/>
				<path class="st27" d="M438.5,218.3c0,1.1-1,2-2.3,2c-1.3,0-2.3-0.9-2.3-2s1-2,2.3-2C437.5,216.3,438.5,217.2,438.5,218.3z"/>
				<ellipse class="st27" cx="392.1" cy="194.8" rx="3" ry="2.6"/>
				<ellipse class="st27" cx="358.4" cy="138.9" rx="1.5" ry="1.3"/>
				<ellipse class="st27" cx="404.5" cy="134.3" rx="2.7" ry="2.3"/>
				<path class="st27" d="M347.1,180.2c0,1.8-1.7,3.2-3.8,3.2s-3.8-1.4-3.8-3.2c0-1.8,1.7-3.2,3.8-3.2S347.1,178.4,347.1,180.2z"/>
				<path class="st27" d="M387.6,87.1c0,1.9-1.8,3.5-4.1,3.5c-2.3,0-4.1-1.6-4.1-3.5c0-1.9,1.8-3.5,4.1-3.5
					C385.8,83.6,387.6,85.1,387.6,87.1z"/>
				<path class="st27" d="M300.2,193.1c0,0.5-0.5,0.9-1.1,0.9c-0.6,0-1.1-0.4-1.1-0.9c0-0.5,0.5-0.9,1.1-0.9
					C299.7,192.2,300.2,192.6,300.2,193.1z"/>
				<path class="st27" d="M347.6,222.8c0,1.4-1.3,2.6-3,2.6c-1.7,0-3-1.1-3-2.6c0-1.4,1.3-2.6,3-2.6
					C346.2,220.2,347.6,221.4,347.6,222.8z"/>
				<ellipse class="st27" cx="376.8" cy="253" rx="2.3" ry="1.9"/>
				<ellipse class="st27" cx="296.8" cy="156.7" rx="2.4" ry="2"/>
				<path class="st27" d="M247.2,187c0,2-1.9,3.6-4.2,3.6s-4.2-1.6-4.2-3.6c0-2,1.9-3.6,4.2-3.6S247.2,185,247.2,187z"/>
				<path class="st27" d="M221.7,152.8c0,1.1-1,1.9-2.3,1.9s-2.3-0.9-2.3-1.9c0-1.1,1-1.9,2.3-1.9S221.7,151.8,221.7,152.8z"/>
				<path class="st27" d="M196.8,186.2c0,1.7-1.7,3.1-3.7,3.1c-2,0-3.7-1.4-3.7-3.1c0-1.7,1.7-3.1,3.7-3.1
					C195.1,183,196.8,184.4,196.8,186.2z"/>
				<path class="st27" d="M230.5,224.2c0,1.5-1.5,2.8-3.2,2.8c-1.8,0-3.2-1.2-3.2-2.8c0-1.5,1.5-2.8,3.2-2.8
					C229.1,221.4,230.5,222.6,230.5,224.2z"/>
				<path class="st27" d="M262.1,243.5c0,1.2-1.1,2.2-2.5,2.2s-2.5-1-2.5-2.2c0-1.2,1.1-2.2,2.5-2.2S262.1,242.3,262.1,243.5z"/>
				<path class="st27" d="M186.4,139c0,1.5-1.4,2.6-3.1,2.6c-1.7,0-3.1-1.2-3.1-2.6s1.4-2.6,3.1-2.6
					C185,136.4,186.4,137.6,186.4,139z"/>
				<ellipse class="st27" cx="148.4" cy="185.6" rx="2.6" ry="2.2"/>
				<path class="st27" d="M113,170c0,0.9-0.8,1.5-1.8,1.5c-1,0-1.8-0.7-1.8-1.5c0-0.9,0.8-1.5,1.8-1.5
					C112.2,168.4,113,169.1,113,170z"/>
				<ellipse class="st27" cx="124.3" cy="217.5" rx="3.3" ry="2.8"/>
				<path class="st27" d="M33.1,143c0,1.6-1.5,2.9-3.4,2.9s-3.4-1.3-3.4-2.9s1.5-2.9,3.4-2.9S33.1,141.4,33.1,143z"/>
				<path class="st27" d="M14.3,173.9c0,1.4-1.4,2.6-3.1,2.6c-1.7,0-3.1-1.2-3.1-2.6c0-1.4,1.4-2.6,3.1-2.6
					C12.9,171.3,14.3,172.4,14.3,173.9z"/>
				<ellipse class="st27" cx="13.2" cy="201.7" rx="2" ry="1.7"/>
				<path class="st27" d="M223.6,256.1c0,1-0.9,1.8-2.1,1.8c-1.2,0-2.1-0.8-2.1-1.8c0-1,0.9-1.8,2.1-1.8
					C222.7,254.3,223.6,255.1,223.6,256.1z"/>
				<ellipse class="st27" cx="406.9" cy="277" rx="2.3" ry="1.9"/>
				<path class="st27" d="M465.6,253.3c0,1.5-1.5,2.7-3.2,2.7c-1.8,0-3.2-1.2-3.2-2.7s1.5-2.7,3.2-2.7
					C464.1,250.6,465.6,251.8,465.6,253.3z"/>
				<g>
					<ellipse class="st27" cx="90.9" cy="-246.2" rx="4.5" ry="3.8"/>
					<ellipse class="st27" cx="116.1" cy="-213.9" rx="2.4" ry="2.1"/>
					<ellipse class="st27" cx="163" cy="-259.3" rx="3.8" ry="3.3"/>
					<path class="st27" d="M226-245.2c0,0.6-0.6,1.1-1.2,1.1c-0.7,0-1.2-0.5-1.2-1.1s0.6-1.1,1.2-1.1
						C225.4-246.2,226-245.7,226-245.2z"/>
					<path class="st27" d="M275.3-259.6c0,1.6-1.5,2.9-3.4,2.9c-1.9,0-3.4-1.3-3.4-2.9c0-1.6,1.5-2.9,3.4-2.9
						C273.8-262.5,275.3-261.2,275.3-259.6z"/>
					<ellipse class="st27" cx="266" cy="-210.5" rx="3.9" ry="3.3"/>
					<path class="st27" d="M212.2-181.7c0,1.6-1.5,2.9-3.4,2.9c-1.9,0-3.4-1.3-3.4-2.9c0-1.6,1.5-2.9,3.4-2.9
						C210.6-184.6,212.2-183.3,212.2-181.7z"/>
					<ellipse class="st27" cx="124.5" cy="-146.5" rx="1.9" ry="1.6"/>
					<ellipse class="st27" cx="31" cy="-192.7" rx="2.9" ry="2.5"/>
					<path class="st27" d="M74.5-153.3c0,1.1-1,2-2.3,2c-1.3,0-2.3-0.9-2.3-2c0-1.1,1-2,2.3-2C73.4-155.2,74.5-154.4,74.5-153.3z"/>
					<ellipse class="st27" cx="26.1" cy="-264.7" rx="2" ry="1.7"/>
					<path class="st27" d="M259.2-143.5c0,1.7-1.6,3-3.6,3c-2,0-3.6-1.4-3.6-3c0-1.7,1.6-3,3.6-3
						C257.6-146.5,259.2-145.1,259.2-143.5z"/>
					<path class="st27" d="M333.8-194.4c0,1.6-1.5,2.9-3.4,2.9c-1.9,0-3.4-1.3-3.4-2.9c0-1.6,1.5-2.9,3.4-2.9
						C332.3-197.3,333.8-196,333.8-194.4z"/>
					<path class="st27" d="M323.5-158c0,1-1,1.9-2.2,1.9c-1.2,0-2.2-0.8-2.2-1.9c0-1,1-1.9,2.2-1.9C322.5-159.9,323.5-159,323.5-158
						z"/>
					<path class="st27" d="M406.8-168c0,1.2-1.1,2.1-2.5,2.1c-1.4,0-2.5-1-2.5-2.1s1.1-2.1,2.5-2.1
						C405.7-170.1,406.8-169.1,406.8-168z"/>
					<ellipse class="st27" cx="412.7" cy="-213.9" rx="2.4" ry="2.1"/>
					<path class="st27" d="M379.1-260.9c0,0.9-0.9,1.6-1.9,1.6s-1.9-0.7-1.9-1.6s0.9-1.6,1.9-1.6S379.1-261.8,379.1-260.9z"/>
					<ellipse class="st27" cx="361.7" cy="-221.8" rx="3.8" ry="3.2"/>
					<path class="st27" d="M480.7-229.7c0,1.1-1.1,2-2.4,2c-1.3,0-2.4-0.9-2.4-2c0-1.1,1.1-2,2.4-2
						C479.6-231.7,480.7-230.8,480.7-229.7z"/>
					<path class="st27" d="M458.8-253.6c0,1.8-1.7,3.2-3.8,3.2c-2.1,0-3.8-1.4-3.8-3.2c0-1.8,1.7-3.2,3.8-3.2
						C457.1-256.8,458.8-255.3,458.8-253.6z"/>
					<path class="st27" d="M534.9-222.4c0,1.5-1.4,2.7-3.1,2.7c-1.7,0-3.1-1.2-3.1-2.7c0-1.5,1.4-2.7,3.1-2.7
						C533.5-225,534.9-223.8,534.9-222.4z"/>
					<path class="st27" d="M522.8-259.6c0,1.6-1.5,2.9-3.4,2.9c-1.9,0-3.4-1.3-3.4-2.9c0-1.6,1.5-2.9,3.4-2.9
						C521.3-262.5,522.8-261.2,522.8-259.6z"/>
					<path class="st27" d="M494-165.4c0,1.4-1.3,2.5-3,2.5c-1.7,0-3-1.1-3-2.5c0-1.4,1.3-2.5,3-2.5C492.7-168,494-166.8,494-165.4z"
						/>
					<ellipse class="st27" cx="451.9" cy="-141.4" rx="4.2" ry="3.5"/>
					<ellipse class="st27" cx="553.6" cy="-172.6" rx="2.9" ry="2.5"/>
					<ellipse class="st27" cx="574.6" cy="-208.1" rx="2.8" ry="2.4"/>
					<path class="st27" d="M619.1-233.1c0,0.7-0.7,1.3-1.6,1.3c-0.9,0-1.6-0.6-1.6-1.3s0.7-1.3,1.6-1.3
						C618.4-234.4,619.1-233.8,619.1-233.1z"/>
					<path class="st27" d="M642-263.2c0,2.4-2.3,4.4-5.2,4.4s-5.2-2-5.2-4.4c0-2.4,2.3-4.4,5.2-4.4S642-265.7,642-263.2z"/>
					<ellipse class="st27" cx="584.9" cy="-276.8" rx="5.3" ry="4.5"/>
					<ellipse class="st27" cx="692.4" cy="-242.5" rx="2.7" ry="2.3"/>
					<path class="st27" d="M732.7-266.5c0,1.8-1.7,3.3-3.8,3.3c-2.1,0-3.8-1.5-3.8-3.3c0-1.8,1.7-3.3,3.8-3.3
						C730.9-269.7,732.7-268.3,732.7-266.5z"/>
					<ellipse class="st27" cx="776.8" cy="-276.8" rx="5.3" ry="4.5"/>
					<path class="st27" d="M798.8-224.4c0,2.6-2.5,4.7-5.5,4.7c-3,0-5.5-2.1-5.5-4.7c0-2.6,2.5-4.7,5.5-4.7
						C796.4-229,798.8-226.9,798.8-224.4z"/>
					<path class="st27" d="M755.5-241.2c0,0.7-0.7,1.3-1.5,1.3s-1.5-0.6-1.5-1.3s0.7-1.3,1.5-1.3S755.5-241.9,755.5-241.2z"/>
					<path class="st27" d="M727.7-191.8c0,1.5-1.4,2.7-3.1,2.7c-1.7,0-3.1-1.2-3.1-2.7s1.4-2.7,3.1-2.7
						C726.3-194.4,727.7-193.2,727.7-191.8z"/>
					<path class="st27" d="M667.3-177c0,1.1-1.1,2-2.4,2c-1.3,0-2.4-0.9-2.4-2c0-1.1,1.1-2,2.4-2C666.3-179,667.3-178.1,667.3-177z"
						/>
					<path class="st27" d="M627.3-190.9c0,1.9-1.8,3.5-4.1,3.5c-2.3,0-4.1-1.6-4.1-3.5c0-1.9,1.8-3.5,4.1-3.5
						C625.5-194.4,627.3-192.9,627.3-190.9z"/>
					<ellipse class="st27" cx="621.6" cy="-146.5" rx="5.7" ry="4.8"/>
					<ellipse class="st27" cx="714.9" cy="-144" rx="4.9" ry="4.1"/>
					<path class="st27" d="M768.2-155.4c0,1.4-1.4,2.6-3.1,2.6c-1.7,0-3.1-1.2-3.1-2.6c0-1.4,1.4-2.6,3.1-2.6
						C766.9-158,768.2-156.8,768.2-155.4z"/>
					<path class="st27" d="M801-125.3c0,2.4-2.3,4.4-5.2,4.4s-5.2-2-5.2-4.4c0-2.4,2.3-4.4,5.2-4.4S801-127.7,801-125.3z"/>
					<path class="st27" d="M762.1-108.6c0,1.8-1.7,3.2-3.7,3.2c-2.1,0-3.7-1.4-3.7-3.2c0-1.8,1.7-3.2,3.7-3.2
						C760.4-111.8,762.1-110.3,762.1-108.6z"/>
					<ellipse class="st27" cx="740.8" cy="-85.8" rx="3.7" ry="3.2"/>
					<ellipse class="st27" cx="684.9" cy="-109.1" rx="3.1" ry="2.6"/>
					<path class="st27" d="M673-146c0,1.1-1.1,2.1-2.4,2.1c-1.3,0-2.4-0.9-2.4-2.1c0-1.1,1.1-2.1,2.4-2.1
						C671.9-148.1,673-147.2,673-146z"/>
					<ellipse class="st27" cx="635.6" cy="-98.2" rx="3.9" ry="3.3"/>
					<path class="st27" d="M673.7-79.3c0,0.7-0.7,1.3-1.6,1.3c-0.9,0-1.6-0.6-1.6-1.3c0-0.7,0.7-1.3,1.6-1.3
						C673-80.6,673.7-80,673.7-79.3z"/>
					<path class="st27" d="M563.6-107.5c0,2.3-2.2,4.2-5,4.2c-2.8,0-5-1.9-5-4.2c0-2.3,2.2-4.2,5-4.2
						C561.4-111.8,563.6-109.9,563.6-107.5z"/>
					<ellipse class="st27" cx="582.2" cy="-153.2" rx="2.6" ry="2.2"/>
					<path class="st27" d="M604-103.2c0,1.2-1.2,2.2-2.6,2.2s-2.6-1-2.6-2.2c0-1.2,1.2-2.2,2.6-2.2S604-104.4,604-103.2z"/>
					<path class="st27" d="M593.7-65.4c0,1.2-1.1,2.1-2.5,2.1s-2.5-0.9-2.5-2.1c0-1.2,1.1-2.1,2.5-2.1S593.7-66.6,593.7-65.4z"/>
					<ellipse class="st27" cx="516.7" cy="-74.5" rx="4.1" ry="3.4"/>
					<ellipse class="st27" cx="524.7" cy="-134.5" rx="3.9" ry="3.3"/>
					<path class="st27" d="M491.1-103.2c0,1.2-1.2,2.2-2.6,2.2c-1.4,0-2.6-1-2.6-2.2c0-1.2,1.2-2.2,2.6-2.2
						C490-105.4,491.1-104.4,491.1-103.2z"/>
					<ellipse class="st27" cx="448.4" cy="-80" rx="3.1" ry="2.6"/>
					<path class="st27" d="M412.7-106.7c0,1.3-1.3,2.4-2.8,2.4c-1.5,0-2.8-1.1-2.8-2.4c0-1.3,1.3-2.4,2.8-2.4
						C411.4-109.1,412.7-108.1,412.7-106.7z"/>
					<path class="st27" d="M470.7-49.3c0,1.3-1.3,2.4-2.9,2.4S465-48,465-49.3c0-1.3,1.3-2.4,2.9-2.4S470.7-50.6,470.7-49.3z"/>
					<ellipse class="st27" cx="424.8" cy="-29.5" rx="4.1" ry="3.5"/>
					<path class="st27" d="M433.5-59.7c0,1.1-1,2-2.3,2c-1.3,0-2.3-0.9-2.3-2c0-1.1,1-2,2.3-2C432.5-61.7,433.5-60.8,433.5-59.7z"/>
					<ellipse class="st27" cx="387.1" cy="-83.2" rx="3" ry="2.6"/>
					<ellipse class="st27" cx="353.4" cy="-139.1" rx="1.5" ry="1.3"/>
					<ellipse class="st27" cx="399.5" cy="-143.7" rx="2.7" ry="2.3"/>
					<path class="st27" d="M342.1-97.8c0,1.8-1.7,3.2-3.8,3.2s-3.8-1.4-3.8-3.2s1.7-3.2,3.8-3.2S342.1-99.6,342.1-97.8z"/>
					<path class="st27" d="M382.6-190.9c0,1.9-1.8,3.5-4.1,3.5c-2.3,0-4.1-1.6-4.1-3.5c0-1.9,1.8-3.5,4.1-3.5
						C380.8-194.4,382.6-192.9,382.6-190.9z"/>
					<path class="st27" d="M295.2-84.9c0,0.5-0.5,0.9-1.1,0.9c-0.6,0-1.1-0.4-1.1-0.9c0-0.5,0.5-0.9,1.1-0.9
						C294.7-85.8,295.2-85.4,295.2-84.9z"/>
					<path class="st27" d="M342.6-55.2c0,1.4-1.3,2.6-3,2.6c-1.7,0-3-1.1-3-2.6c0-1.4,1.3-2.6,3-2.6
						C341.2-57.8,342.6-56.6,342.6-55.2z"/>
					<ellipse class="st27" cx="371.8" cy="-25" rx="2.3" ry="1.9"/>
					<ellipse class="st27" cx="291.8" cy="-121.3" rx="2.4" ry="2"/>
					<path class="st27" d="M242.2-91c0,2-1.9,3.6-4.2,3.6s-4.2-1.6-4.2-3.6s1.9-3.6,4.2-3.6S242.2-93,242.2-91z"/>
					<path class="st27" d="M216.7-125.2c0,1.1-1,1.9-2.3,1.9s-2.3-0.9-2.3-1.9c0-1.1,1-1.9,2.3-1.9S216.7-126.2,216.7-125.2z"/>
					<path class="st27" d="M191.8-91.8c0,1.7-1.7,3.1-3.7,3.1c-2,0-3.7-1.4-3.7-3.1c0-1.7,1.7-3.1,3.7-3.1
						C190.1-95,191.8-93.6,191.8-91.8z"/>
					<path class="st27" d="M225.5-53.8c0,1.5-1.5,2.8-3.2,2.8c-1.8,0-3.2-1.2-3.2-2.8c0-1.5,1.5-2.8,3.2-2.8
						C224.1-56.6,225.5-55.4,225.5-53.8z"/>
					<path class="st27" d="M257.1-34.5c0,1.2-1.1,2.2-2.5,2.2s-2.5-1-2.5-2.2c0-1.2,1.1-2.2,2.5-2.2S257.1-35.7,257.1-34.5z"/>
					<path class="st27" d="M181.4-139c0,1.5-1.4,2.6-3.1,2.6c-1.7,0-3.1-1.2-3.1-2.6s1.4-2.6,3.1-2.6
						C180-141.6,181.4-140.4,181.4-139z"/>
					<ellipse class="st27" cx="143.4" cy="-92.4" rx="2.6" ry="2.2"/>
					<path class="st27" d="M108-108c0,0.9-0.8,1.5-1.8,1.5c-1,0-1.8-0.7-1.8-1.5c0-0.9,0.8-1.5,1.8-1.5
						C107.2-109.6,108-108.9,108-108z"/>
					<ellipse class="st27" cx="119.3" cy="-60.5" rx="3.3" ry="2.8"/>
					<path class="st27" d="M28.1-135c0,1.6-1.5,2.9-3.4,2.9s-3.4-1.3-3.4-2.9s1.5-2.9,3.4-2.9S28.1-136.6,28.1-135z"/>
					<path class="st27" d="M9.3-104.1c0,1.4-1.4,2.6-3.1,2.6c-1.7,0-3.1-1.2-3.1-2.6c0-1.4,1.4-2.6,3.1-2.6
						C7.9-106.7,9.3-105.6,9.3-104.1z"/>
					<ellipse class="st27" cx="8.2" cy="-76.3" rx="2" ry="1.7"/>
					<path class="st27" d="M218.6-21.9c0,1-0.9,1.8-2.1,1.8c-1.2,0-2.1-0.8-2.1-1.8s0.9-1.8,2.1-1.8
						C217.7-23.7,218.6-22.9,218.6-21.9z"/>
					<ellipse class="st27" cx="401.9" cy="-1" rx="2.3" ry="1.9"/>
					<path class="st27" d="M460.6-24.7c0,1.5-1.5,2.7-3.2,2.7c-1.8,0-3.2-1.2-3.2-2.7c0-1.5,1.5-2.7,3.2-2.7
						C459.1-27.4,460.6-26.2,460.6-24.7z"/>
				</g>
			</g>
		</g>
	</g>
</g>
</svg>
