<?xml version="1.0" encoding="utf-8"?>
<!-- Generator: Adobe Illustrator 22.0.1, SVG Export Plug-In . SVG Version: 6.00 Build 0)  -->
<svg version="1.1" xmlns="http://www.w3.org/2000/svg" xmlns:xlink="http://www.w3.org/1999/xlink" x="0px" y="0px"  height="450px" width="800px"
	 viewBox="0 0 800 450" style="enable-background:new 0 0 800 450;" xml:space="preserve">
<style type="text/css">
	.st0{clip-path:url(#SVGID_2_);fill:url(#SVGID_3_);}
	.st1{opacity:0.49;clip-path:url(#SVGID_2_);fill:url(#SVGID_4_);}
	.st2{clip-path:url(#SVGID_2_);fill:url(#SVGID_5_);}
	.st3{opacity:0.49;clip-path:url(#SVGID_2_);fill:url(#SVGID_6_);}
	.st4{opacity:0.49;clip-path:url(#SVGID_2_);fill:url(#SVGID_7_);}
	.st5{clip-path:url(#SVGID_2_);}
	.st6{opacity:0.49;fill:url(#SVGID_8_);}
	.st7{fill:#FCC24C;}
	.st8{clip-path:url(#SVGID_2_);fill:url(#SVGID_9_);}
	.st9{opacity:0.49;clip-path:url(#SVGID_2_);fill:url(#SVGID_10_);}
	.st10{clip-path:url(#SVGID_2_);fill:url(#d-cloud2_1_);}
	.st11{clip-path:url(#SVGID_2_);fill:url(#d-cloud1_1_);}
	.st12{fill:#00B3F3;}
	.st13{opacity:0.3;fill:#8FE7FF;}
	.st14{opacity:0.49;fill:url(#SVGID_11_);}
	.st15{opacity:0.49;fill:url(#SVGID_12_);}
	.st16{opacity:0.49;fill:url(#SVGID_13_);}
	.st17{opacity:0.49;fill:url(#SVGID_14_);}
	.st18{opacity:0.49;fill:url(#SVGID_15_);}
	.st19{opacity:0.49;fill:url(#SVGID_16_);}
	.st20{fill:#00D7FF;}
	.st21{opacity:0.3;fill:#00D7FF;}
	.st22{opacity:0.49;fill:url(#SVGID_17_);}
	.st23{opacity:0.49;fill:url(#SVGID_18_);}
	.st24{opacity:0.49;fill:url(#SVGID_19_);}
	.st25{opacity:0.49;fill:url(#SVGID_20_);}
	.st26{opacity:0.49;fill:url(#SVGID_21_);}
	.st27{opacity:0.49;fill:url(#SVGID_22_);}
	.st28{opacity:0.49;fill:url(#SVGID_23_);}
	.st29{opacity:0.3;fill:#00B3F3;}
	.st30{fill:#FFFFFF;}
	.st31{opacity:0.12;fill:#606060;}
	.st32{opacity:0.49;fill:url(#SVGID_24_);}
	.st33{opacity:0.49;fill:url(#SVGID_25_);}
	.st34{opacity:0.49;fill:url(#SVGID_26_);}
	.st35{opacity:8.000000e-02;fill:#606060;}
	.st36{opacity:0.49;fill:url(#SVGID_27_);}
	.st37{opacity:0.49;fill:url(#SVGID_28_);}
	.st38{opacity:0.49;fill:url(#SVGID_29_);}
	.st39{opacity:0.49;fill:url(#SVGID_30_);}
	.st40{fill:none;stroke:#FFFFFF;stroke-width:0.6688;stroke-miterlimit:10;}
	.st41{fill:#FD99A2;}
	.st42{fill:#A87558;}
	.st43{opacity:0.17;fill:#A87558;}
	.st44{opacity:0.49;fill:url(#SVGID_31_);}
	.st45{opacity:0.49;fill:url(#SVGID_32_);}
	.st46{opacity:0.49;fill:url(#SVGID_33_);}
	.st47{opacity:0.26;fill:#FD99A2;}
	.st48{opacity:0.49;fill:url(#SVGID_34_);}
	.st49{opacity:0.49;fill:url(#SVGID_35_);}
	.st50{opacity:0.49;fill:url(#SVGID_36_);}
	.st51{opacity:0.49;fill:url(#SVGID_37_);}
	.st52{opacity:0.49;fill:url(#SVGID_38_);}
	.st53{opacity:0.49;fill:url(#SVGID_39_);}
	.st54{opacity:0.49;fill:url(#SVGID_40_);}
	.st55{opacity:0.49;fill:url(#SVGID_41_);}
	.st56{opacity:0.49;fill:url(#SVGID_42_);}
	.st57{opacity:0.49;fill:url(#SVGID_43_);}
	.st58{opacity:0.3;fill:#FD99A2;}
	.st59{opacity:0.49;fill:url(#SVGID_44_);}
	.st60{opacity:0.49;fill:url(#SVGID_45_);}
	.st61{opacity:0.49;fill:url(#SVGID_46_);}
	.st62{opacity:0.49;fill:url(#SVGID_47_);}
	.st63{opacity:0.49;fill:url(#SVGID_48_);}
	.st64{opacity:0.49;fill:url(#SVGID_49_);}
	.st65{opacity:0.49;fill:url(#SVGID_50_);}
	.st66{opacity:0.49;fill:url(#SVGID_51_);}
	.st67{opacity:0.49;fill:url(#SVGID_52_);}
	.st68{opacity:0.49;fill:url(#SVGID_53_);}
	.st69{opacity:0.49;fill:url(#SVGID_54_);}
	.st70{opacity:0.49;fill:url(#SVGID_55_);}
	.st71{opacity:0.49;fill:url(#SVGID_56_);}
	.st72{opacity:0.49;fill:url(#SVGID_57_);}
	.st73{opacity:0.49;fill:url(#SVGID_58_);}
	.st74{opacity:0.49;fill:url(#SVGID_59_);}
	.st75{opacity:0.49;fill:url(#SVGID_60_);}
	.st76{opacity:0.49;fill:url(#SVGID_61_);}
	.st77{opacity:0.49;fill:url(#SVGID_62_);}
	.st78{opacity:0.49;fill:url(#SVGID_63_);}
	.st79{opacity:0.49;fill:url(#SVGID_64_);}
	.st80{opacity:0.49;fill:url(#SVGID_65_);}
	.st81{opacity:0.49;fill:url(#SVGID_66_);}
	.st82{opacity:0.49;fill:url(#SVGID_67_);}
	.st83{fill:none;stroke:#FFFFFF;stroke-width:0.846;stroke-miterlimit:10;}
	.st84{fill:#FDB128;}
	.st85{opacity:0.49;fill:url(#SVGID_68_);}
	.st86{opacity:0.49;fill:url(#SVGID_69_);}
	.st87{opacity:0.49;fill:url(#SVGID_70_);}
	.st88{opacity:0.49;fill:url(#SVGID_71_);}
	.st89{opacity:0.26;fill:#FDB128;}
	.st90{opacity:0.49;fill:url(#SVGID_72_);}
	.st91{opacity:0.49;fill:url(#SVGID_73_);}
	.st92{opacity:0.49;fill:url(#SVGID_74_);}
	.st93{opacity:0.49;fill:url(#SVGID_75_);}
	.st94{opacity:0.49;fill:url(#SVGID_76_);}
	.st95{opacity:0.49;fill:url(#SVGID_77_);}
	.st96{opacity:0.3;fill:#FDB128;}
	.st97{opacity:0.22;fill:#A87558;}
	.st98{opacity:0.49;fill:url(#SVGID_78_);}
	.st99{opacity:0.49;fill:url(#SVGID_79_);}
	.st100{opacity:0.49;fill:url(#SVGID_80_);}
	.st101{opacity:0.49;fill:url(#SVGID_81_);}
	.st102{opacity:0.49;fill:url(#SVGID_82_);}
	.st103{opacity:0.7;fill:#FD99A2;}
	.st104{opacity:0.49;fill:url(#SVGID_83_);}
	.st105{opacity:0.49;fill:url(#SVGID_84_);}
	.st106{opacity:0.49;fill:url(#SVGID_85_);}
	.st107{opacity:0.49;fill:url(#SVGID_86_);}
	.st108{opacity:0.49;fill:url(#SVGID_87_);}
	.st109{opacity:0.49;fill:url(#SVGID_88_);}
	.st110{opacity:0.49;fill:url(#SVGID_89_);}
	.st111{opacity:0.49;fill:url(#SVGID_90_);}
	.st112{opacity:0.49;fill:url(#SVGID_91_);}
	.st113{opacity:0.49;fill:url(#SVGID_92_);}
	.st114{opacity:0.49;fill:url(#SVGID_93_);}
	.st115{opacity:0.49;fill:url(#SVGID_94_);}
	.st116{opacity:0.49;fill:url(#SVGID_95_);}
	.st117{opacity:0.49;fill:url(#SVGID_96_);}
	.st118{opacity:0.49;fill:url(#SVGID_97_);}
	.st119{opacity:0.49;fill:url(#SVGID_98_);}
	.st120{fill:url(#SVGID_99_);}
	#wave1 ,#wave3{
	animation : wavy1 6s ease-in-out infinite;
	animation-fill-mode : forwards
	}
	@keyframes wavy1{
	0%{
	transform : translateX(0) translateY(3px)
	}
	10%{
	transform : translateX(50px) translateY(3px)
	}
	30%{
	transform : translateX(100px) translateY(-3px)
	}
	40%{
	transform : translateX(150px) translateY(3px)
	}
	50%{
	transform : translateX(200px) translateY(-3px)
	}
	60%{
	transform : translateX(250px) translateY(3px)
	}
	70%,100%{
	transform : translateX(300px) translateY(-3px)
	}
	/*80%{
	transform : translateX(300px) translateY(3px)
	}
	90%{
	transform : translateX(300px) translateY(-3px)
	}
	100%{
	transform : translateX(300px) translateY(3px)
	}*/
	}
	#wave2{
	animation : wavy2 6s ease-in-out infinite;
	animation-fill-mode : forwards
	}
	@keyframes wavy2{
	0%{
	transform : translateX(0) translateY(3px)
	}
	10%{
	transform : translateX(-50px) translateY(3px)
	}
	30%{
	transform : translateX(-100px) translateY(-3px)
	}
	40%{
	transform : translateX(-150px) translateY(3px)
	}
	50%{
	transform : translateX(-200px) translateY(-3px)
	}
	60%{
	transform : translateX(-250px) translateY(3px)
	}
	70%,100%{
	transform : translateX(-300px) translateY(-3px)
	}
	/*80%{
	transform : translateX(-300px) translateY(3px)
	}
	90%{
	transform : translateX(-300px) translateY(-3px)
	}
	100%{
	transform : translateX(-300px) translateY(3px)
	}*/
	}
	#Balloon1{
	animation : move1 6s ease-in-out infinite
	}
	@keyframes move1{
	0%{
	transform : translateX(50px) translateY(0px)
	}
	100%{
	transform : translateX(-700px) translateY(50px)
	}
	}
	#Balloon2{
	animation : move2 6s ease-in-out infinite
	}
	@keyframes move2{
	0%{
	transform : translateX(50px) translateY(-100px)
	}
	100%{
	transform : translateX(700px) translateY(0px)
	}
	}
	#sun{
	transform : translateY(40px);

	animation : set 6s ease-in-out infinite
	}
	@keyframes set{
	0%{
	transform : translateY(40px)
	}
	100%{
	transform : translateY(300px)
	}
	}
</style>
<g id="BACKGROUND">
</g>
<g id="OBJECTS">
	<g>
		<defs>
			<rect id="SVGID_1_" y="-1.8" width="800" height="476.8"/>
		</defs>
		<clipPath id="SVGID_2_">
			<use xlink:href="#SVGID_1_"  style="overflow:visible;"/>
		</clipPath>
		<linearGradient id="SVGID_3_" gradientUnits="userSpaceOnUse" x1="401.2841" y1="470.6273" x2="398.4862" y2="-39.2479">
			<stop  offset="0.5154" style="stop-color:#C9EEEA"/>
			<stop  offset="0.9159" style="stop-color:#60C8CF"/>
		</linearGradient>
		<rect y="-1.8" class="st0" width="800" height="476.8"/>
		
			<radialGradient id="SVGID_4_" cx="-22.2013" cy="221.4922" r="41.1591" gradientTransform="matrix(-0.4885 1.7158 -1.9091 -0.4344 1143.7214 389.2981)" gradientUnits="userSpaceOnUse">
			<stop  offset="0" style="stop-color:#231F20"/>
			<stop  offset="1" style="stop-color:#FFFFFF;stop-opacity:0"/>
		</radialGradient>
		<path class="st1" d="M711.8,324.8c-43.4-9.9-69.7-49.1-58.7-87.7c11-38.6,55.1-61.8,98.5-51.9c43.4,9.9,69.7,49.1,58.7,87.7
			S755.2,334.7,711.8,324.8z"/>
		<linearGradient id="SVGID_5_" gradientUnits="userSpaceOnUse" x1="573.724" y1="226.532" x2="623.5142" y2="397.9412">
			<stop  offset="0.2642" style="stop-color:#FFFFFF"/>
			<stop  offset="0.4239" style="stop-color:#FBFBFB"/>
			<stop  offset="0.595" style="stop-color:#EEEEEE"/>
			<stop  offset="0.7714" style="stop-color:#D9D8D8"/>
			<stop  offset="0.9505" style="stop-color:#BCBBBB"/>
			<stop  offset="1" style="stop-color:#B2B1B1"/>
		</linearGradient>
		<path class="st2" d="M734.3,260c0.1-1.3,0.2-2.6,0.2-4c0-22.5-20.4-40.7-45.5-40.7c-11,0-21.1,3.5-29,9.3
			c-5.8-16.5-23-28.5-43.4-28.5c-25.1,0-45.5,18.2-45.5,40.7c0,1.7,0.1,3.4,0.4,5c-7.4-5.5-16.9-8.8-27.3-8.8
			c-23.6,0-42.7,17.1-42.7,38.1c0,1.4,0.1,2.7,0.2,4c-6.4-3.4-13.9-5.4-21.9-5.4c-20.7,0-37.9,13.1-41.8,30.5
			c-2.6-0.8-5.4-1.2-8.2-1.2c-14.3,0-25.9,10.4-25.9,23.2c0,12.8,11.6,23.2,25.9,23.2c8.7,0,16.3-3.8,21-9.6
			c7.6,6.3,17.8,10.2,29,10.2c5.2,0,10.1-0.8,14.7-2.3c10.8,17.7,31.7,29.8,55.9,29.8c14.2,0,27.4-4.2,38-11.3
			c10.6,7.1,23.7,11.3,38,11.3c22.3,0,41.8-10.2,53.2-25.7c11.3,15.5,30.9,25.7,53.2,25.7c35.1,0,63.5-25.4,63.5-56.8
			C796.3,285.8,768.7,260.7,734.3,260z"/>
		
			<radialGradient id="SVGID_6_" cx="37.5422" cy="283.5192" r="34.4851" gradientTransform="matrix(-0.4885 1.7158 -1.9091 -0.4344 1021.2115 361.4211)" gradientUnits="userSpaceOnUse">
			<stop  offset="0" style="stop-color:#231F20"/>
			<stop  offset="1" style="stop-color:#FFFFFF;stop-opacity:0"/>
		</radialGradient>
		<path class="st3" d="M445,361.2c-36.4-8.3-58.4-41.2-49.2-73.5c9.2-32.3,46.1-51.8,82.5-43.5c36.4,8.3,58.4,41.2,49.2,73.5
			C518.3,350,481.3,369.4,445,361.2z"/>
		
			<radialGradient id="SVGID_7_" cx="44.7019" cy="273.8023" r="34.4852" gradientTransform="matrix(-0.4885 1.7158 -1.9091 -0.4344 1040.4033 365.7881)" gradientUnits="userSpaceOnUse">
			<stop  offset="0" style="stop-color:#231F20"/>
			<stop  offset="1" style="stop-color:#FFFFFF;stop-opacity:0"/>
		</radialGradient>
		<path class="st4" d="M479.2,382c-36.4-8.3-58.4-41.2-49.2-73.5s46.1-51.8,82.5-43.5c36.4,8.3,58.4,41.2,49.2,73.5
			C552.5,370.8,515.6,390.3,479.2,382z"/>
		<g id="sun" class="st5">
			
				
			
				<radialGradient id="SVGID_8_" cx="-52.9232" cy="362.4271" r="31.5248" gradientTransform="matrix(-0.4885 1.7158 -1.7797 -0.405 837.358 319.4002)" gradientUnits="userSpaceOnUse">
				<stop  offset="0" style="stop-color:#231F20"/>
				<stop  offset="1" style="stop-color:#FFFFFF;stop-opacity:0"/>
			</radialGradient>
			<path class="st6" d="M203,135.3c-31-7.1-49.3-36.7-40.9-66.2c8.4-29.5,40.3-47.8,71.3-40.7s49.3,36.7,40.9,66.2
				C265.9,124.1,234,142.3,203,135.3z"/>
			<ellipse class="st7" cx="183.7" cy="53" rx="53.3" ry="47.7"/>
		
		</g>
		<linearGradient id="SVGID_9_" gradientUnits="userSpaceOnUse" x1="361.5229" y1="270.8072" x2="396.7251" y2="391.9953">
			<stop  offset="0.2642" style="stop-color:#FFFFFF"/>
			<stop  offset="0.4239" style="stop-color:#FBFBFB"/>
			<stop  offset="0.595" style="stop-color:#EEEEEE"/>
			<stop  offset="0.7714" style="stop-color:#D9D8D8"/>
			<stop  offset="0.9505" style="stop-color:#BCBBBB"/>
			<stop  offset="1" style="stop-color:#B2B1B1"/>
		</linearGradient>
		<path class="st8" d="M475.6,296.3c0.1-0.9,0.2-1.9,0.2-2.8c0-15.9-14.4-28.8-32.2-28.8c-7.8,0-14.9,2.5-20.5,6.6
			c-4.1-11.7-16.3-20.1-30.7-20.1c-17.8,0-32.2,12.9-32.2,28.8c0,1.2,0.1,2.4,0.3,3.5c-5.2-3.9-11.9-6.2-19.3-6.2
			c-16.7,0-30.2,12.1-30.2,27c0,1,0.1,1.9,0.2,2.8c-4.5-2.4-9.8-3.8-15.5-3.8c-14.6,0-26.8,9.3-29.6,21.6c-1.8-0.5-3.8-0.8-5.8-0.8
			c-10.1,0-18.3,7.3-18.3,16.4c0,9.1,8.2,16.4,18.3,16.4c6.1,0,11.5-2.7,14.9-6.8c5.4,4.5,12.6,7.2,20.5,7.2c3.7,0,7.2-0.6,10.4-1.6
			c7.6,12.5,22.4,21,39.5,21c10.1,0,19.4-3,26.9-8c7.5,5,16.8,8,26.9,8c15.7,0,29.6-7.2,37.6-18.2c8,11,21.9,18.2,37.6,18.2
			c24.8,0,44.9-18,44.9-40.2C519.5,314.6,499.9,296.8,475.6,296.3z"/>
		
			<radialGradient id="SVGID_10_" cx="65.3099" cy="365.055" r="31.5248" gradientTransform="matrix(-0.4885 1.7158 -1.9091 -0.4344 860.1696 324.7761)" gradientUnits="userSpaceOnUse">
			<stop  offset="0" style="stop-color:#231F20"/>
			<stop  offset="1" style="stop-color:#FFFFFF;stop-opacity:0"/>
		</radialGradient>
		<path class="st9" d="M116.1,331.7c-33.2-7.6-53.4-37.6-45-67.2c8.4-29.5,42.2-47.3,75.4-39.8c33.2,7.6,53.4,37.6,45,67.2
			C183.1,321.5,149.4,339.3,116.1,331.7z"/>
		<linearGradient id="d-cloud2_1_" gradientUnits="userSpaceOnUse" x1="729.7759" y1="349.147" x2="729.307" y2="263.6997">
			<stop  offset="0.5154" style="stop-color:#C9EEEA"/>
			<stop  offset="0.9159" style="stop-color:#60C8CF"/>
		</linearGradient>
		<path id="d-cloud2" class="st10" d="M790.4,298.5c0.1-0.6,0.1-1.2,0.1-1.8c0-10.2-9.2-18.4-20.6-18.4c-5,0-9.6,1.6-13.1,4.2
			c-2.6-7.5-10.4-12.9-19.7-12.9c-11.4,0-20.6,8.2-20.6,18.4c0,0.8,0.1,1.5,0.2,2.3c-3.3-2.5-7.7-4-12.3-4
			c-10.7,0-19.3,7.7-19.3,17.3c0,0.6,0,1.2,0.1,1.8c-2.9-1.6-6.3-2.5-9.9-2.5c-9.4,0-17.2,5.9-18.9,13.8c-1.2-0.4-2.4-0.5-3.7-0.5
			c-6.5,0-11.8,4.7-11.8,10.5c0,5.8,5.3,10.5,11.8,10.5c3.9,0,7.4-1.7,9.5-4.4c3.5,2.9,8.1,4.6,13.1,4.6c2.3,0,4.6-0.4,6.7-1.1
			c4.9,8,14.4,13.5,25.3,13.5c6.5,0,12.4-1.9,17.2-5.1c4.8,3.2,10.8,5.1,17.2,5.1c10.1,0,19-4.6,24.1-11.7c5.1,7,14,11.7,24.1,11.7
			c15.9,0,28.8-11.5,28.8-25.7C818.5,310.2,806,298.8,790.4,298.5z M724.4,303.6c-0.2-0.2-0.5-0.3-0.7-0.5c0-0.4,0-0.8-0.1-1.2
			c0.5,0.4,1.1,0.8,1.7,1.2C724.9,303.2,724.6,303.4,724.4,303.6z"/>
		<linearGradient id="d-cloud1_1_" gradientUnits="userSpaceOnUse" x1="60.0205" y1="250.5709" x2="89.3899" y2="351.6786">
			<stop  offset="0.2642" style="stop-color:#FFFFFF"/>
			<stop  offset="0.4083" style="stop-color:#F8F8F8"/>
			<stop  offset="0.6148" style="stop-color:#E6E5E5"/>
			<stop  offset="0.858" style="stop-color:#C7C6C6"/>
			<stop  offset="1" style="stop-color:#B2B1B1"/>
		</linearGradient>
		<path id="d-cloud1" class="st11" d="M156.5,276.3c0.1-0.8,0.1-1.5,0.1-2.3c0-13.2-12-24-26.8-24c-6.5,0-12.5,2.1-17.1,5.5
			c-3.4-9.7-13.6-16.8-25.6-16.8c-14.8,0-26.8,10.7-26.8,24c0,1,0.1,2,0.2,3c-4.4-3.2-10-5.2-16.1-5.2c-13.9,0-25.2,10.1-25.2,22.5
			c0,0.8,0,1.6,0.1,2.4c-3.8-2-8.2-3.2-12.9-3.2c-12.2,0-22.3,7.7-24.7,18c-1.5-0.5-3.2-0.7-4.9-0.7c-8.5,0-15.3,6.1-15.3,13.7
			s6.9,13.7,15.3,13.7c5.1,0,9.6-2.2,12.4-5.7c4.5,3.7,10.5,6,17.1,6c3.1,0,6-0.5,8.7-1.4c6.3,10.5,18.7,17.6,33,17.6
			c8.4,0,16.2-2.5,22.4-6.6c6.2,4.2,14,6.6,22.4,6.6c13.1,0,24.7-6,31.4-15.2c6.7,9.1,18.2,15.2,31.4,15.2c20.7,0,37.5-15,37.5-33.5
			C193.1,291.5,176.8,276.7,156.5,276.3z M70.4,282.9c-0.3-0.2-0.6-0.4-0.9-0.6c0-0.5,0-1.1-0.1-1.6c0.7,0.5,1.4,1,2.1,1.5
			C71.2,282.4,70.8,282.6,70.4,282.9z"/>
		<g class="st5">
			<g id="wave3">
				<path class="st12" d="M741.4,306.1c-22.4,0-42.7,6.4-56.9,16.6c-10.8,7.8-26.2,7.8-37,0c-14.2-10.2-34.5-16.6-56.9-16.6
					c-22.4,0-42.7,6.4-56.9,16.6c-10.8,7.8-26.2,7.8-37,0c-14.2-10.2-34.5-16.6-56.9-16.6c-20.5,0-39.2,5.3-53.2,14.1
					c-10.2,6.4-23.8,6.4-34.1,0c-13.9-8.7-32.6-14.1-53.2-14.1c-22.4,0-42.7,6.4-56.9,16.6c-10.8,7.8-26.2,7.8-37,0
					c-14.2-10.2-34.5-16.6-56.9-16.6s-42.7,6.4-56.9,16.6c-10.8,7.8-26.2,7.8-37,0C40.3,312.5,20,306.1-2.4,306.1
					c-22.4,0-42.7,6.4-56.9,16.6c-10.8,7.8-26.2,7.8-37,0c-14.2-10.2-34.5-16.6-56.9-16.6s-42.7,6.4-56.9,16.6
					c-10.8,7.8-26.2,7.8-37,0c-14.2-10.2-34.5-16.6-56.9-16.6c-43.1,0-78,23.5-78,52.5c0,29,34.9,52.5,78,52.5
					c36.1,0,114.7,0,150.8,0c36.1,0,114.7,0,150.8,0c36.1,0,114.7,0,150.8,0c36.1,0,114.7,0,150.8,0c30.9,0,109.5,0,140.4,0
					c36.1,0,114.7,0,150.8,0c36.1,0,114.7,0,150.8,0c43.1,0,78-23.5,78-52.5C819.4,329.7,784.5,306.1,741.4,306.1z"/>
				<g>
					<path class="st13" d="M-304.1,310c22.4,0,42.7,6.4,56.9,16.6c10.8,7.8,26.2,7.8,37,0c14.2-10.2,34.5-16.6,56.9-16.6
						s42.7,6.4,56.9,16.6c10.8,7.8,26.2,7.8,37,0C-45.1,316.3-24.9,310-2.4,310c22.4,0,42.7,6.4,56.9,16.6c10.8,7.8,26.2,7.8,37,0
						c14.2-10.2,34.5-16.6,56.9-16.6c22.4,0,42.7,6.4,56.9,16.6c10.8,7.8,26.2,7.8,37,0c14.2-10.2,34.5-16.6,56.9-16.6
						c20.5,0,39.2,5.3,53.2,14.1c10.2,6.4,23.8,6.4,34.1,0c13.9-8.7,32.6-14.1,53.2-14.1c22.4,0,42.7,6.4,56.9,16.6
						c10.8,7.8,26.2,7.8,37,0c14.2-10.2,34.5-16.6,56.9-16.6c22.4,0,42.7,6.4,56.9,16.6c10.8,7.8,26.2,7.8,37,0
						c14.2-10.2,34.5-16.6,56.9-16.6c42.2,0,76.5,22.5,78,50.6c0-0.6,0.1-1.3,0.1-1.9c0-29-34.9-52.5-78-52.5
						c-22.4,0-42.7,6.4-56.9,16.6c-10.8,7.8-26.2,7.8-37,0c-14.2-10.2-34.5-16.6-56.9-16.6c-22.4,0-42.7,6.4-56.9,16.6
						c-10.8,7.8-26.2,7.8-37,0c-14.2-10.2-34.5-16.6-56.9-16.6c-20.5,0-39.2,5.3-53.2,14.1c-10.2,6.4-23.8,6.4-34.1,0
						c-13.9-8.7-32.6-14.1-53.2-14.1c-22.4,0-42.7,6.4-56.9,16.6c-10.8,7.8-26.2,7.8-37,0c-14.2-10.2-34.5-16.6-56.9-16.6
						c-22.4,0-42.7,6.4-56.9,16.6c-10.8,7.8-26.2,7.8-37,0C40.3,312.5,20,306.1-2.4,306.1c-22.4,0-42.7,6.4-56.9,16.6
						c-10.8,7.8-26.2,7.8-37,0c-14.2-10.2-34.5-16.6-56.9-16.6s-42.7,6.4-56.9,16.6c-10.8,7.8-26.2,7.8-37,0
						c-14.2-10.2-34.5-16.6-56.9-16.6c-43.1,0-78,23.5-78,52.5c0,0.6,0,1.3,0.1,1.9C-380.6,332.5-346.2,310-304.1,310z"/>
				</g>
			</g>
			
				<radialGradient id="SVGID_11_" cx="966.9481" cy="260.43" r="36.74" gradientTransform="matrix(2.1759 0 0 1.533 -1335.1505 -13.9854)" gradientUnits="userSpaceOnUse">
				<stop  offset="0" style="stop-color:#2B3990"/>
				<stop  offset="1" style="stop-color:#FFFFFF;stop-opacity:0"/>
			</radialGradient>
			<ellipse class="st14" cx="768.8" cy="385.3" rx="79" ry="56.3"/>
			
				<radialGradient id="SVGID_12_" cx="900.0364" cy="260.1243" r="36.74" gradientTransform="matrix(2.1759 0 0 1.533 -1335.1505 -14.4703)" gradientUnits="userSpaceOnUse">
				<stop  offset="0" style="stop-color:#2B3990"/>
				<stop  offset="1" style="stop-color:#FFFFFF;stop-opacity:0"/>
			</radialGradient>
			<ellipse class="st15" cx="623.2" cy="384.3" rx="79" ry="56.3"/>
			
				<radialGradient id="SVGID_13_" cx="833.1248" cy="260.43" r="36.74" gradientTransform="matrix(2.1759 0 0 1.533 -1335.1505 -13.9854)" gradientUnits="userSpaceOnUse">
				<stop  offset="0" style="stop-color:#2B3990"/>
				<stop  offset="1" style="stop-color:#FFFFFF;stop-opacity:0"/>
			</radialGradient>
			<ellipse class="st16" cx="477.6" cy="385.3" rx="79" ry="56.3"/>
			
				<radialGradient id="SVGID_14_" cx="763.7619" cy="260.43" r="36.74" gradientTransform="matrix(2.1759 0 0 1.533 -1335.1505 -13.9854)" gradientUnits="userSpaceOnUse">
				<stop  offset="0" style="stop-color:#2B3990"/>
				<stop  offset="1" style="stop-color:#FFFFFF;stop-opacity:0"/>
			</radialGradient>
			<ellipse class="st17" cx="326.7" cy="385.3" rx="79" ry="56.3"/>
			
				<radialGradient id="SVGID_15_" cx="697.8306" cy="261.3472" r="36.74" gradientTransform="matrix(2.1759 0 0 1.533 -1335.1505 -12.5308)" gradientUnits="userSpaceOnUse">
				<stop  offset="0" style="stop-color:#2B3990"/>
				<stop  offset="1" style="stop-color:#FFFFFF;stop-opacity:0"/>
			</radialGradient>
			<ellipse class="st18" cx="183.3" cy="388.1" rx="79" ry="56.3"/>
			
				<radialGradient id="SVGID_16_" cx="630.919" cy="261.3472" r="36.74" gradientTransform="matrix(2.1759 0 0 1.533 -1335.1505 -12.5308)" gradientUnits="userSpaceOnUse">
				<stop  offset="0" style="stop-color:#2B3990"/>
				<stop  offset="1" style="stop-color:#FFFFFF;stop-opacity:0"/>
			</radialGradient>
			<ellipse class="st19" cx="37.7" cy="388.1" rx="79" ry="56.3"/>
			<g id="wave2">
				<path class="st20" d="M1116.2,351.9c-22.4,0-42.7,6.4-56.9,16.6c-10.8,7.8-26.2,7.8-37,0c-14.2-10.2-34.5-16.6-56.9-16.6
					c-22.4,0-42.7,6.4-56.9,16.6c-10.8,7.8-26.2,7.8-37,0c-14.2-10.2-34.5-16.6-56.9-16.6c-20.5,0-39.2,5.3-53.2,14.1
					c-10.2,6.4-23.8,6.4-34.1,0c-13.9-8.7-32.6-14.1-53.2-14.1c-22.4,0-42.7,6.4-56.9,16.6c-10.8,7.8-26.2,7.8-37,0
					c-14.2-10.2-34.5-16.6-56.9-16.6c-22.4,0-42.7,6.4-56.9,16.6c-10.8,7.8-26.2,7.8-37,0c-14.2-10.2-34.5-16.6-56.9-16.6
					c-22.4,0-42.7,6.4-56.9,16.6c-10.8,7.8-26.2,7.8-37,0c-14.2-10.2-34.5-16.6-56.9-16.6c-22.4,0-42.7,6.4-56.9,16.6
					c-10.8,7.8-26.2,7.8-37,0c-14.2-10.2-34.5-16.6-56.9-16.6c-43.1,0-78,23.5-78,52.5c0,29,34.9,52.5,78,52.5
					c36.1,0,114.7,0,150.8,0c36.1,0,114.7,0,150.8,0c36.1,0,114.7,0,150.8,0c36.1,0,114.7,0,150.8,0c30.9,0,109.5,0,140.4,0
					c36.1,0,114.7,0,150.8,0c36.1,0,114.7,0,150.8,0c43.1,0,78-23.5,78-52.5C1194.2,375.4,1159.3,351.9,1116.2,351.9z"/>
				<g>
					<path class="st21" d="M70.7,355.7c22.4,0,42.7,6.4,56.9,16.6c10.8,7.8,26.2,7.8,37,0c14.2-10.2,34.5-16.6,56.9-16.6
						s42.7,6.4,56.9,16.6c10.8,7.8,26.2,7.8,37,0c14.2-10.2,34.5-16.6,56.9-16.6c22.4,0,42.7,6.4,56.9,16.6c10.8,7.8,26.2,7.8,37,0
						c14.2-10.2,34.5-16.6,56.9-16.6c22.4,0,42.7,6.4,56.9,16.6c10.8,7.8,26.2,7.8,37,0c14.2-10.2,34.5-16.6,56.9-16.6
						c20.5,0,39.2,5.3,53.2,14.1c10.2,6.4,23.8,6.4,34.1,0c13.9-8.7,32.6-14.1,53.2-14.1c22.4,0,42.7,6.4,56.9,16.6
						c10.8,7.8,26.2,7.8,37,0c14.2-10.2,34.5-16.6,56.9-16.6c22.4,0,42.7,6.4,56.9,16.6c10.8,7.8,26.2,7.8,37,0
						c14.2-10.2,34.5-16.6,56.9-16.6c42.2,0,76.5,22.5,78,50.6c0-0.6,0.1-1.3,0.1-1.9c0-29-34.9-52.5-78-52.5
						c-22.4,0-42.7,6.4-56.9,16.6c-10.8,7.8-26.2,7.8-37,0c-14.2-10.2-34.5-16.6-56.9-16.6c-22.4,0-42.7,6.4-56.9,16.6
						c-10.8,7.8-26.2,7.8-37,0c-14.2-10.2-34.5-16.6-56.9-16.6c-20.5,0-39.2,5.3-53.2,14.1c-10.2,6.4-23.8,6.4-34.1,0
						c-13.9-8.7-32.6-14.1-53.2-14.1c-22.4,0-42.7,6.4-56.9,16.6c-10.8,7.8-26.2,7.8-37,0c-14.2-10.2-34.5-16.6-56.9-16.6
						c-22.4,0-42.7,6.4-56.9,16.6c-10.8,7.8-26.2,7.8-37,0c-14.2-10.2-34.5-16.6-56.9-16.6c-22.4,0-42.7,6.4-56.9,16.6
						c-10.8,7.8-26.2,7.8-37,0c-14.2-10.2-34.5-16.6-56.9-16.6s-42.7,6.4-56.9,16.6c-10.8,7.8-26.2,7.8-37,0
						c-14.2-10.2-34.5-16.6-56.9-16.6c-43.1,0-78,23.5-78,52.5c0,0.6,0,1.3,0.1,1.9C-5.8,378.2,28.6,355.7,70.7,355.7z"/>
				</g>
			</g>
			
				<radialGradient id="SVGID_17_" cx="727.4874" cy="275.5622" r="36.74" gradientTransform="matrix(2.1759 0 0 1.533 -1335.1505 10.0148)" gradientUnits="userSpaceOnUse">
				<stop  offset="0" style="stop-color:#2B3990"/>
				<stop  offset="1" style="stop-color:#FFFFFF;stop-opacity:0"/>
			</radialGradient>
			<ellipse class="st22" cx="247.8" cy="432.5" rx="79" ry="56.3"/>
			
				<radialGradient id="SVGID_18_" cx="657.6345" cy="275.5622" r="36.74" gradientTransform="matrix(2.1759 0 0 1.533 -1335.1505 10.0148)" gradientUnits="userSpaceOnUse">
				<stop  offset="0" style="stop-color:#2B3990"/>
				<stop  offset="1" style="stop-color:#FFFFFF;stop-opacity:0"/>
			</radialGradient>
			<ellipse class="st23" cx="95.8" cy="432.5" rx="79" ry="56.3"/>
			
				<radialGradient id="SVGID_19_" cx="587.7817" cy="275.5622" r="36.74" gradientTransform="matrix(2.1759 0 0 1.533 -1335.1505 10.0148)" gradientUnits="userSpaceOnUse">
				<stop  offset="0" style="stop-color:#2B3990"/>
				<stop  offset="1" style="stop-color:#FFFFFF;stop-opacity:0"/>
			</radialGradient>
			<ellipse class="st24" cx="-56.2" cy="432.5" rx="79" ry="56.3"/>
			
				<radialGradient id="SVGID_20_" cx="798.5668" cy="275.868" r="36.74" gradientTransform="matrix(2.1759 0 0 1.533 -1335.1505 10.4997)" gradientUnits="userSpaceOnUse">
				<stop  offset="0" style="stop-color:#2B3990"/>
				<stop  offset="1" style="stop-color:#FFFFFF;stop-opacity:0"/>
			</radialGradient>
			<ellipse class="st25" cx="402.4" cy="433.4" rx="79" ry="56.3"/>
			
				<radialGradient id="SVGID_21_" cx="864.9879" cy="275.2565" r="36.74" gradientTransform="matrix(2.1759 0 0 1.533 -1335.1505 9.5299)" gradientUnits="userSpaceOnUse">
				<stop  offset="0" style="stop-color:#2B3990"/>
				<stop  offset="1" style="stop-color:#FFFFFF;stop-opacity:0"/>
			</radialGradient>
			<ellipse class="st26" cx="547" cy="431.5" rx="79" ry="56.3"/>
			
				<radialGradient id="SVGID_22_" cx="930.4286" cy="274.6451" r="36.74" gradientTransform="matrix(2.1759 0 0 1.533 -1335.1505 8.5602)" gradientUnits="userSpaceOnUse">
				<stop  offset="0" style="stop-color:#2B3990"/>
				<stop  offset="1" style="stop-color:#FFFFFF;stop-opacity:0"/>
			</radialGradient>
			<ellipse class="st27" cx="689.4" cy="429.6" rx="79" ry="56.3"/>
			
				<radialGradient id="SVGID_23_" cx="1001.7519" cy="274.6451" r="36.74" gradientTransform="matrix(2.1759 0 0 1.533 -1335.1505 8.5602)" gradientUnits="userSpaceOnUse">
				<stop  offset="0" style="stop-color:#2B3990"/>
				<stop  offset="1" style="stop-color:#FFFFFF;stop-opacity:0"/>
			</radialGradient>
			<ellipse class="st28" cx="844.6" cy="429.6" rx="79" ry="56.3"/>
			<g id="wave1">
				<path class="st12" d="M805.4,395.6c-22.4,0-42.7,6.4-56.9,16.6c-10.8,7.8-26.2,7.8-37,0c-14.2-10.2-34.5-16.6-56.9-16.6
					c-22.4,0-42.7,6.4-56.9,16.6c-10.8,7.8-26.2,7.8-37,0c-14.2-10.2-34.5-16.6-56.9-16.6c-20.5,0-39.2,5.3-53.2,14.1
					c-10.2,6.4-23.8,6.4-34.1,0c-13.9-8.7-32.6-14.1-53.2-14.1c-22.4,0-42.7,6.4-56.9,16.6c-10.8,7.8-26.2,7.8-37,0
					c-14.2-10.2-34.5-16.6-56.9-16.6s-42.7,6.4-56.9,16.6c-10.8,7.8-26.2,7.8-37,0C104.3,402,84,395.6,61.6,395.6
					c-22.4,0-42.7,6.4-56.9,16.6c-10.8,7.8-26.2,7.8-37,0c-14.2-10.2-34.5-16.6-56.9-16.6s-42.7,6.4-56.9,16.6
					c-10.8,7.8-26.2,7.8-37,0c-14.2-10.2-34.5-16.6-56.9-16.6c-43.1,0-78,23.5-78,52.5c0,29,34.9,52.5,78,52.5
					c36.1,0,114.7,0,150.8,0c36.1,0,114.7,0,150.8,0c36.1,0,114.7,0,150.8,0c36.1,0,114.7,0,150.8,0c30.9,0,109.5,0,140.4,0
					c36.1,0,114.7,0,150.8,0c36.1,0,114.7,0,150.8,0c43.1,0,78-23.5,78-52.5C883.4,419.1,848.5,395.6,805.4,395.6z"/>
				<g>
					<path class="st29" d="M-240.1,399.4c22.4,0,42.7,6.4,56.9,16.6c10.8,7.8,26.2,7.8,37,0c14.2-10.2,34.5-16.6,56.9-16.6
						s42.7,6.4,56.9,16.6c10.8,7.8,26.2,7.8,37,0c14.2-10.2,34.5-16.6,56.9-16.6c22.4,0,42.7,6.4,56.9,16.6c10.8,7.8,26.2,7.8,37,0
						c14.2-10.2,34.5-16.6,56.9-16.6c22.4,0,42.7,6.4,56.9,16.6c10.8,7.8,26.2,7.8,37,0c14.2-10.2,34.5-16.6,56.9-16.6
						c20.5,0,39.2,5.3,53.2,14.1c10.2,6.4,23.8,6.4,34.1,0c13.9-8.7,32.6-14.1,53.2-14.1c22.4,0,42.7,6.4,56.9,16.6
						c10.8,7.8,26.2,7.8,37,0c14.2-10.2,34.5-16.6,56.9-16.6c22.4,0,42.7,6.4,56.9,16.6c10.8,7.8,26.2,7.8,37,0
						c14.2-10.2,34.5-16.6,56.9-16.6c42.2,0,76.5,22.5,78,50.6c0-0.6,0.1-1.3,0.1-1.9c0-29-34.9-52.5-78-52.5
						c-22.4,0-42.7,6.4-56.9,16.6c-10.8,7.8-26.2,7.8-37,0c-14.2-10.2-34.5-16.6-56.9-16.6c-22.4,0-42.7,6.4-56.9,16.6
						c-10.8,7.8-26.2,7.8-37,0c-14.2-10.2-34.5-16.6-56.9-16.6c-20.5,0-39.2,5.3-53.2,14.1c-10.2,6.4-23.8,6.4-34.1,0
						c-13.9-8.7-32.6-14.1-53.2-14.1c-22.4,0-42.7,6.4-56.9,16.6c-10.8,7.8-26.2,7.8-37,0c-14.2-10.2-34.5-16.6-56.9-16.6
						c-22.4,0-42.7,6.4-56.9,16.6c-10.8,7.8-26.2,7.8-37,0C104.3,402,84,395.6,61.6,395.6c-22.4,0-42.7,6.4-56.9,16.6
						c-10.8,7.8-26.2,7.8-37,0c-14.2-10.2-34.5-16.6-56.9-16.6s-42.7,6.4-56.9,16.6c-10.8,7.8-26.2,7.8-37,0
						c-14.2-10.2-34.5-16.6-56.9-16.6c-43.1,0-78,23.5-78,52.5c0,0.6,0,1.3,0.1,1.9C-316.6,421.9-282.2,399.4-240.1,399.4z"/>
				</g>
			</g>
		</g>
		<g id="cloud4" class="st5">
			<g>
				<path class="st30" d="M548,138c-2.2-7-9.3-12.1-17.8-12.1c-2.5,0-4.9,0.5-7.1,1.3c-4.3-8.7-14-14.7-25.3-14.7
					c-11.2,0-20.8,5.9-25.1,14.5c-2-0.7-4.2-1.1-6.5-1.1c-8.5,0-15.6,5.1-17.8,12.1c-7.5,0.7-13.4,6.3-13.4,13.2
					c0,7.4,6.7,13.3,14.9,13.3c3.4,0,6.5-1,9.1-2.7c2.4,4.5,7.5,7.6,13.5,7.6c2.3,0,4.5-0.5,6.5-1.3c4.2,5.2,11.1,8.7,18.9,8.7
					c7.9,0,14.9-3.5,19.1-8.9c2.1,1,4.5,1.6,7.1,1.6c5.9,0,11.1-3.1,13.5-7.6c2.5,1.7,5.6,2.7,9.1,2.7c8.2,0,14.9-6,14.9-13.3
					C561.5,144.3,555.6,138.6,548,138z"/>
				<path class="st31" d="M548,138c-2.2-7-9.3-12.1-17.8-12.1c-2.5,0-4.9,0.5-7.1,1.3c-4.2-8.5-13.7-14.5-24.7-14.7v64.2
					c7.7-0.2,14.4-3.7,18.5-8.9c2.1,1,4.5,1.6,7.1,1.6c5.9,0,11.1-3.1,13.5-7.6c2.5,1.7,5.6,2.7,9.1,2.7c8.2,0,14.9-6,14.9-13.3
					C561.5,144.3,555.6,138.6,548,138z"/>
			</g>
			
				<radialGradient id="SVGID_24_" cx="908.5549" cy="676.2504" r="17.4835" gradientTransform="matrix(4.053333e-02 -1.8001 1.8866 3.393117e-02 -795.0755 1748.5884)" gradientUnits="userSpaceOnUse">
				<stop  offset="0" style="stop-color:#231F20"/>
				<stop  offset="1" style="stop-color:#FFFFFF;stop-opacity:0"/>
			</radialGradient>
			<path class="st32" d="M518.3,104.9c18.2,0.3,32.7,14.5,32.3,31.7c-0.4,17.2-15.5,30.8-33.7,30.5c-18.2-0.3-32.7-14.5-32.3-31.7
				C485,118.3,500.1,104.6,518.3,104.9z"/>
			
				<radialGradient id="SVGID_25_" cx="901.5598" cy="679.7612" r="17.4835" gradientTransform="matrix(4.053333e-02 -1.8001 1.8866 3.393117e-02 -788.2227 1748.7117)" gradientUnits="userSpaceOnUse">
				<stop  offset="0" style="stop-color:#231F20"/>
				<stop  offset="1" style="stop-color:#FFFFFF;stop-opacity:0"/>
			</radialGradient>
			<path class="st33" d="M531.5,117.8c18.2,0.3,32.7,14.5,32.3,31.7c-0.4,17.2-15.5,30.8-33.7,30.5c-18.2-0.3-32.7-14.5-32.3-31.7
				C498.2,131.1,513.3,117.4,531.5,117.8z"/>
			
				<radialGradient id="SVGID_26_" cx="900.9688" cy="664.3515" r="17.4835" gradientTransform="matrix(4.053333e-02 -1.8001 1.8866 3.393117e-02 -818.3008 1748.1708)" gradientUnits="userSpaceOnUse">
				<stop  offset="0" style="stop-color:#231F20"/>
				<stop  offset="1" style="stop-color:#FFFFFF;stop-opacity:0"/>
			</radialGradient>
			<path class="st34" d="M472.3,117.8c18.2,0.3,32.7,14.5,32.3,31.7s-15.5,30.8-33.7,30.5c-18.2-0.3-32.7-14.5-32.3-31.7
				S454.1,117.4,472.3,117.8z"/>
			<g>
				<path class="st30" d="M534.2,138c-1.6-7-6.8-12.1-13-12.1c-1.9,0-3.6,0.5-5.2,1.3c-3.1-8.7-10.2-14.7-18.5-14.7
					c-8.2,0-15.2,5.9-18.4,14.5c-1.5-0.7-3.1-1.1-4.7-1.1c-6.2,0-11.4,5.1-13,12.1c-5.5,0.7-9.8,6.3-9.8,13.2
					c0,7.4,4.9,13.3,10.9,13.3c2.5,0,4.8-1,6.6-2.7c1.7,4.5,5.5,7.6,9.8,7.6c1.7,0,3.3-0.5,4.8-1.3c3.1,5.2,8.1,8.7,13.8,8.7
					c5.8,0,10.9-3.5,14-8.9c1.5,1,3.3,1.6,5.2,1.6c4.3,0,8.1-3.1,9.8-7.6c1.8,1.7,4.1,2.7,6.6,2.7c6,0,10.9-6,10.9-13.3
					C544,144.3,539.7,138.6,534.2,138z"/>
				<path class="st35" d="M534.2,138c-1.6-7-6.8-12.1-13-12.1c-1.9,0-3.6,0.5-5.2,1.3c-3.1-8.5-10-14.5-18-14.7v64.2
					c5.6-0.2,10.5-3.7,13.5-8.9c1.5,1,3.3,1.6,5.2,1.6c4.3,0,8.1-3.1,9.8-7.6c1.8,1.7,4.1,2.7,6.6,2.7c6,0,10.9-6,10.9-13.3
					C544,144.3,539.7,138.6,534.2,138z"/>
			</g>
			
				<radialGradient id="SVGID_27_" cx="895.4775" cy="674.4172" r="17.4835" gradientTransform="matrix(4.053333e-02 -1.8001 1.8866 3.393117e-02 -798.6536 1748.524)" gradientUnits="userSpaceOnUse">
				<stop  offset="0" style="stop-color:#231F20"/>
				<stop  offset="1" style="stop-color:#FFFFFF;stop-opacity:0"/>
			</radialGradient>
			<path class="st36" d="M510.7,128.4c18.2,0.3,32.7,14.5,32.3,31.7c-0.4,17.2-15.5,30.8-33.7,30.5c-18.2-0.3-32.7-14.5-32.3-31.7
				C477.4,141.7,492.5,128,510.7,128.4z"/>
			
				<radialGradient id="SVGID_28_" cx="901.0358" cy="676.1267" r="17.4835" gradientTransform="matrix(4.053333e-02 -1.8001 1.8866 3.393117e-02 -795.3169 1748.5841)" gradientUnits="userSpaceOnUse">
				<stop  offset="0" style="stop-color:#231F20"/>
				<stop  offset="1" style="stop-color:#FFFFFF;stop-opacity:0"/>
			</radialGradient>
			<path class="st37" d="M517.5,118.5c18.2,0.3,32.7,14.5,32.3,31.7c-0.4,17.2-15.5,30.8-33.7,30.5c-18.2-0.3-32.7-14.5-32.3-31.7
				C484.2,131.8,499.3,118.1,517.5,118.5z"/>
			
				<radialGradient id="SVGID_29_" cx="978.8612" cy="673.0803" r="17.4837" gradientTransform="matrix(3.338667e-02 -1.4864 1.8866 3.393117e-02 -797.8793 1567.0001)" gradientUnits="userSpaceOnUse">
				<stop  offset="0" style="stop-color:#231F20"/>
				<stop  offset="1" style="stop-color:#FFFFFF;stop-opacity:0"/>
			</radialGradient>
			<path class="st38" d="M505.2,109.2c18.2,0.3,32.7,12.1,32.4,26.3c-0.3,14.2-15.3,25.4-33.6,25.1c-18.2-0.3-32.7-12.1-32.4-26.3
				C472,120.1,487,108.9,505.2,109.2z"/>
			
				<radialGradient id="SVGID_30_" cx="901.0908" cy="667.5345" r="17.4835" gradientTransform="matrix(4.053333e-02 -1.8001 1.8866 3.393117e-02 -812.088 1748.2825)" gradientUnits="userSpaceOnUse">
				<stop  offset="0" style="stop-color:#231F20"/>
				<stop  offset="1" style="stop-color:#FFFFFF;stop-opacity:0"/>
			</radialGradient>
			<path class="st39" d="M484.5,117.8c18.2,0.3,32.7,14.5,32.3,31.7c-0.4,17.2-15.5,30.8-33.7,30.5c-18.2-0.3-32.7-14.5-32.3-31.7
				C451.2,131.1,466.3,117.4,484.5,117.8z"/>
			<g>
				<path class="st30" d="M520.4,138c-1-7-4.4-12.1-8.5-12.1c-1.2,0-2.4,0.5-3.4,1.3c-2-8.7-6.7-14.7-12-14.7
					c-5.3,0-9.9,5.9-12,14.5c-1-0.7-2-1.1-3.1-1.1c-4,0-7.4,5.1-8.5,12.1c-3.6,0.7-6.4,6.3-6.4,13.2c0,7.4,3.2,13.3,7.1,13.3
					c1.6,0,3.1-1,4.3-2.7c1.1,4.5,3.6,7.6,6.4,7.6c1.1,0,2.2-0.5,3.1-1.3c2,5.2,5.3,8.7,9,8.7c3.8,0,7.1-3.5,9.1-8.9
					c1,1,2.1,1.6,3.4,1.6c2.8,0,5.3-3.1,6.4-7.6c1.2,1.7,2.7,2.7,4.3,2.7c3.9,0,7.1-6,7.1-13.3C526.8,144.3,524,138.6,520.4,138z"/>
				<path class="st35" d="M520.4,138c-1-7-4.4-12.1-8.5-12.1c-1.2,0-2.4,0.5-3.4,1.3c-2-8.5-6.5-14.5-11.7-14.7v64.2
					c3.7-0.2,6.9-3.7,8.8-8.9c1,1,2.1,1.6,3.4,1.6c2.8,0,5.3-3.1,6.4-7.6c1.2,1.7,2.7,2.7,4.3,2.7c3.9,0,7.1-6,7.1-13.3
					C526.8,144.3,524,138.6,520.4,138z"/>
			</g>
		</g>
		<g id="Balloon2" class="st5">
			<line class="st40" x1="211.3" y1="170.3" x2="213.2" y2="182.7"/>
			<line class="st40" x1="217" y1="170.3" x2="218" y2="182.7"/>
			<line class="st40" x1="228.5" y1="170.3" x2="226.6" y2="182.7"/>
			<line class="st40" x1="223.9" y1="170.3" x2="222.9" y2="182.7"/>
			<path class="st41" d="M289.7,71c-11.8-41.4-62.4-40.7-69.8-40.4c-7.4-0.3-58-1-69.8,40.4c0,0-10,31.3,24.5,59.9
				c5,4.2,9.9,8.5,14.3,13.1c8.2,8.6,19.7,21.6,22.4,28.8h17.2c2.7-7.2,14.2-20.2,22.4-28.8c4.4-4.7,9.3-9,14.3-13.1
				C299.7,102.3,289.7,71,289.7,71z"/>
			<g>
				<path class="st42" d="M229.7,195h-18.2c-1.8,0-3.2-1.5-2.8-3.1l1.7-7.2c0.3-1.2,1.4-2,2.8-2H228c1.4,0,2.5,0.8,2.8,2l1.7,7.2
					C232.8,193.5,231.5,195,229.7,195z"/>
				<path class="st43" d="M230.8,184.7c-0.3-1.2-1.4-2-2.8-2h-7.3V195h9c1.8,0,3.2-1.5,2.8-3.1L230.8,184.7z"/>
			</g>
			
				<radialGradient id="SVGID_31_" cx="554.2233" cy="154.7328" r="4.6681" gradientTransform="matrix(2.0283 0.7042 -0.6208 1.429 -801.6388 -425.1367)" gradientUnits="userSpaceOnUse">
				<stop  offset="0" style="stop-color:#231F20"/>
				<stop  offset="1" style="stop-color:#FFFFFF;stop-opacity:0"/>
			</radialGradient>
			<path class="st44" d="M235.8,189.5c-1.6,3.7-7.1,5.2-12.3,3.4c-5.2-1.8-8.1-6.2-6.5-9.9c1.6-3.7,7.1-5.2,12.3-3.4
				C234.5,181.4,237.4,185.8,235.8,189.5z"/>
			
				<radialGradient id="SVGID_32_" cx="138.9263" cy="223.9845" r="4.668" gradientTransform="matrix(0.5782 1.8752 -1.6532 0.4074 516.6098 -161.6062)" gradientUnits="userSpaceOnUse">
				<stop  offset="0" style="stop-color:#231F20"/>
				<stop  offset="1" style="stop-color:#FFFFFF;stop-opacity:0"/>
			</radialGradient>
			<path class="st45" d="M229.3,198.8c-4.3,1.1-8.9-2-10.4-6.8c-1.5-4.8,0.8-9.5,5-10.6c4.3-1.1,8.9,2,10.4,6.8
				C235.8,193,233.6,197.8,229.3,198.8z"/>
			
				<radialGradient id="SVGID_33_" cx="137.8634" cy="258.9551" r="4.668" gradientTransform="matrix(0.5782 1.8752 -1.9258 0.4746 633.8619 -190.6299)" gradientUnits="userSpaceOnUse">
				<stop  offset="0" style="stop-color:#231F20"/>
				<stop  offset="1" style="stop-color:#FFFFFF;stop-opacity:0"/>
			</radialGradient>
			<path class="st46" d="M217.6,199.4c-5,1.2-10.2-1.7-11.7-6.4c-1.5-4.8,1.4-9.6,6.3-10.9c5-1.2,10.2,1.7,11.7,6.4
				C225.4,193.4,222.5,198.2,217.6,199.4z"/>
			<g>
				<path class="st42" d="M228.3,195h-15.5c-1.5,0-2.7-1.5-2.4-3.1l1.4-7.2c0.2-1.2,1.2-2,2.4-2h12.6c1.1,0,2.1,0.8,2.4,2l1.4,7.2
					C231,193.5,229.9,195,228.3,195z"/>
				<path class="st43" d="M229.3,184.7c-0.2-1.2-1.2-2-2.4-2h-6.2V195h7.6c1.5,0,2.7-1.5,2.4-3.1L229.3,184.7z"/>
			</g>
			<path class="st47" d="M289.7,71c-11.2-39.1-57.4-40.7-68.7-40.5v142.3h7.5c2.7-7.2,14.2-20.2,22.4-28.8c4.4-4.7,9.3-9,14.3-13.1
				C299.7,102.3,289.7,71,289.7,71z"/>
			
				<radialGradient id="SVGID_34_" cx="219.8572" cy="156.5198" r="27.5006" gradientTransform="matrix(1.088 1.6845 -1.4851 0.7665 246.8175 -411.8112)" gradientUnits="userSpaceOnUse">
				<stop  offset="0" style="stop-color:#231F20"/>
				<stop  offset="1" style="stop-color:#FFFFFF;stop-opacity:0"/>
			</radialGradient>
			<path class="st48" d="M283.1,124.3c-22.6,11.6-54.1,0.6-70.4-24.7S201.4,44.4,224,32.7c22.6-11.6,54.1-0.6,70.4,24.7
				C310.7,82.7,305.7,112.7,283.1,124.3z"/>
			
				<radialGradient id="SVGID_35_" cx="-9.1931" cy="352.1778" r="27.9588" gradientTransform="matrix(-0.5367 1.8851 -1.7797 -0.405 869.0668 278.1223)" gradientUnits="userSpaceOnUse">
				<stop  offset="0" style="stop-color:#231F20"/>
				<stop  offset="1" style="stop-color:#FFFFFF;stop-opacity:0"/>
			</radialGradient>
			<path class="st49" d="M232.4,170.3c-27.5-6.3-43.1-34.6-34.9-63.4c8.2-28.8,37.1-47,64.6-40.8c27.5,6.3,43.1,34.6,34.9,63.4
				C288.8,158.3,259.9,176.5,232.4,170.3z"/>
			
				<radialGradient id="SVGID_36_" cx="588.4776" cy="739.6472" r="27.5003" gradientTransform="matrix(-1.4876 -1.4196 1.2515 -1.048 152.9888 1734.4846)" gradientUnits="userSpaceOnUse">
				<stop  offset="0" style="stop-color:#231F20"/>
				<stop  offset="1" style="stop-color:#FFFFFF;stop-opacity:0"/>
			</radialGradient>
			<path class="st50" d="M162.8,85.3c19-15.9,52.5-11.5,74.9,9.8c22.3,21.3,25,51.5,6,67.4c-19,15.9-52.5,11.5-74.9-9.8
				C146.5,131.4,143.8,101.2,162.8,85.3z"/>
			
				<radialGradient id="SVGID_37_" cx="907.7703" cy="591.3468" r="27.959" gradientTransform="matrix(4.373333e-02 -1.9447 1.8361 3.299384e-02 -928.308 1829.7983)" gradientUnits="userSpaceOnUse">
				<stop  offset="0" style="stop-color:#231F20"/>
				<stop  offset="1" style="stop-color:#FFFFFF;stop-opacity:0"/>
			</radialGradient>
			<path class="st51" d="M198.4,30.2c28.4,0.5,50.8,25,50.1,54.7c-0.7,29.7-24.2,53.3-52.5,52.8c-28.4-0.5-50.8-25-50.1-54.7
				C146.5,53.3,170,29.7,198.4,30.2z"/>
			<g>
				<path class="st41" d="M269.7,71c-8.4-41.4-44.4-40.7-49.7-40.4c-5.3-0.3-41.3-1-49.7,40.4c0,0-7.1,31.3,17.4,59.9
					c3.6,4.2,7,8.5,10.2,13.1c5.8,8.6,14.1,21.6,16,28.8h12.2c1.9-7.2,10.1-20.2,16-28.8c3.2-4.7,6.6-9,10.2-13.1
					C276.8,102.3,269.7,71,269.7,71z"/>
				<path class="st47" d="M269.7,71c-7.9-39.1-40.9-40.7-48.9-40.5v142.3h5.4c1.9-7.2,10.1-20.2,16-28.8c3.2-4.7,6.6-9,10.2-13.1
					C276.8,102.3,269.7,71,269.7,71z"/>
			</g>
			
				<radialGradient id="SVGID_38_" cx="222.5511" cy="161.4975" r="24.6168" gradientTransform="matrix(1.088 1.6845 -1.4851 0.7665 239.1691 -407.8638)" gradientUnits="userSpaceOnUse">
				<stop  offset="0" style="stop-color:#231F20"/>
				<stop  offset="1" style="stop-color:#FFFFFF;stop-opacity:0"/>
			</radialGradient>
			<path class="st52" d="M267.9,131.8c-20.2,10.4-48.4,0.5-63-22.1C190.3,87,194.8,60.2,215,49.8c20.2-10.4,48.4-0.5,63,22.1
				C292.6,94.6,288.1,121.4,267.9,131.8z"/>
			
				<radialGradient id="SVGID_39_" cx="209.7361" cy="159.4188" r="24.6168" gradientTransform="matrix(1.088 1.6845 -1.4851 0.7665 242.363 -409.5122)" gradientUnits="userSpaceOnUse">
				<stop  offset="0" style="stop-color:#231F20"/>
				<stop  offset="1" style="stop-color:#FFFFFF;stop-opacity:0"/>
			</radialGradient>
			<path class="st53" d="M260.3,107c-20.2,10.4-48.4,0.5-63-22.1c-14.6-22.6-10.1-49.4,10.1-59.9c20.2-10.4,48.4-0.5,63,22.1
				C285,69.8,280.5,96.6,260.3,107z"/>
			
				<radialGradient id="SVGID_40_" cx="-4.1805" cy="354.5959" r="25.027" gradientTransform="matrix(-0.5367 1.8851 -1.7797 -0.405 864.6144 277.1091)" gradientUnits="userSpaceOnUse">
				<stop  offset="0" style="stop-color:#231F20"/>
				<stop  offset="1" style="stop-color:#FFFFFF;stop-opacity:0"/>
			</radialGradient>
			<path class="st54" d="M222.5,172.3c-24.6-5.6-38.6-31-31.3-56.8c7.3-25.8,33.2-42.1,57.8-36.5c24.6,5.6,38.6,31,31.3,56.8
				C273,161.5,247.1,177.9,222.5,172.3z"/>
			
				<radialGradient id="SVGID_41_" cx="586.0576" cy="739.7755" r="25.0196" gradientTransform="matrix(-1.4876 -1.4196 1.2515 -1.048 153.1549 1734.3455)" gradientUnits="userSpaceOnUse">
				<stop  offset="0" style="stop-color:#231F20"/>
				<stop  offset="1" style="stop-color:#FFFFFF;stop-opacity:0"/>
			</radialGradient>
			<path class="st55" d="M170.4,91.9c17.3-14.5,47.8-10.5,68.1,8.9c20.3,19.4,22.8,46.9,5.5,61.3c-17.3,14.5-47.8,10.5-68.1-8.9
				C155.6,133.9,153.1,106.4,170.4,91.9z"/>
			
				<radialGradient id="SVGID_42_" cx="903.1643" cy="593.2946" r="25.4369" gradientTransform="matrix(4.373333e-02 -1.9447 1.8361 3.299384e-02 -924.608 1829.8647)" gradientUnits="userSpaceOnUse">
				<stop  offset="0" style="stop-color:#231F20"/>
				<stop  offset="1" style="stop-color:#FFFFFF;stop-opacity:0"/>
			</radialGradient>
			<path class="st56" d="M205.3,44.1c25.8,0.5,46.2,22.7,45.6,49.7c-0.6,27-22,48.5-47.8,48.1c-25.8-0.5-46.2-22.7-45.6-49.7
				C158.1,65.2,179.5,43.6,205.3,44.1z"/>
			
				<radialGradient id="SVGID_43_" cx="981.9506" cy="450.8258" r="25.4369" gradientTransform="matrix(1.088 -1.6845 1.5904 0.8208 -1576.8242 1348.4081)" gradientUnits="userSpaceOnUse">
				<stop  offset="0" style="stop-color:#231F20"/>
				<stop  offset="1" style="stop-color:#FFFFFF;stop-opacity:0"/>
			</radialGradient>
			<path class="st57" d="M235.9,22c22.3,11.5,28.2,39.8,13.1,63.2s-45.5,33-67.8,21.5S153,66.8,168.1,43.5
				C183.2,20.1,213.5,10.4,235.9,22z"/>
			<g>
				<path class="st41" d="M256.2,71c-6-41.4-31.9-40.7-35.7-40.4c-3.8-0.3-29.7-1-35.7,40.4c0,0-5.1,31.3,12.5,59.9
					c2.6,4.2,5,8.5,7.3,13.1c4.2,8.6,10.1,21.6,11.5,28.8h8.8c1.4-7.2,7.3-20.2,11.5-28.8c2.3-4.7,4.8-9,7.3-13.1
					C261.3,102.3,256.2,71,256.2,71z"/>
				<path class="st58" d="M256.2,71c-5.7-39.1-29.4-40.7-35.2-40.5v142.3h3.8c1.4-7.2,7.3-20.2,11.5-28.8c2.3-4.7,4.8-9,7.3-13.1
					C261.3,102.3,256.2,71,256.2,71z"/>
			</g>
		</g>
		<g id="cloud3" class="st5">
			
				<radialGradient id="SVGID_44_" cx="-84.3391" cy="312.0729" r="23.7697" gradientTransform="matrix(-0.4885 1.7158 -1.7797 -0.405 930.0723 340.4978)" gradientUnits="userSpaceOnUse">
				<stop  offset="0" style="stop-color:#231F20"/>
				<stop  offset="1" style="stop-color:#FFFFFF;stop-opacity:0"/>
			</radialGradient>
			<path class="st59" d="M404.4,109.7c-23.4-5.3-37.2-27.7-30.8-49.9c6.3-22.3,30.4-36,53.8-30.7c23.4,5.3,37.2,27.7,30.8,49.9
				C451.9,101.3,427.8,115,404.4,109.7z"/>
			<g>
				<g>
					<path class="st30" d="M441.4,47.5c-2-6.6-8.8-11.4-16.8-11.4c-2.4,0-4.7,0.4-6.7,1.2c-4-8.2-13.2-13.9-23.8-13.9
						c-10.5,0-19.6,5.6-23.7,13.6c-1.9-0.6-4-1-6.1-1c-8,0-14.7,4.8-16.8,11.4c-7.1,0.6-12.6,6-12.6,12.5c0,6.9,6.3,12.5,14,12.5
						c3.2,0,6.2-1,8.5-2.6c2.3,4.2,7.1,7.2,12.7,7.2c2.2,0,4.3-0.5,6.1-1.3c4,4.9,10.5,8.2,17.8,8.2c7.5,0,14.1-3.3,18-8.4
						c2,1,4.3,1.5,6.7,1.5c5.6,0,10.4-2.9,12.7-7.2c2.4,1.6,5.3,2.6,8.5,2.6c7.8,0,14-5.6,14-12.5C454.1,53.5,448.5,48.1,441.4,47.5
						z"/>
					<path class="st31" d="M441.4,47.5c-2-6.6-8.8-11.4-16.8-11.4c-2.4,0-4.7,0.4-6.7,1.2c-4-8-12.9-13.7-23.3-13.8V84
						c7.2-0.2,13.6-3.4,17.5-8.4c2,1,4.3,1.5,6.7,1.5c5.6,0,10.4-2.9,12.7-7.2c2.4,1.6,5.3,2.6,8.5,2.6c7.8,0,14-5.6,14-12.5
						C454.1,53.5,448.5,48.1,441.4,47.5z"/>
				</g>
				
					<radialGradient id="SVGID_45_" cx="957.6764" cy="648.4131" r="16.4836" gradientTransform="matrix(4.053333e-02 -1.8001 1.8866 3.393117e-02 -849.4107 1747.6112)" gradientUnits="userSpaceOnUse">
					<stop  offset="0" style="stop-color:#231F20"/>
					<stop  offset="1" style="stop-color:#FFFFFF;stop-opacity:0"/>
				</radialGradient>
				<path class="st60" d="M413.4,16.4c17.2,0.3,30.8,13.7,30.4,29.9c-0.4,16.2-14.6,29.1-31.8,28.8c-17.2-0.3-30.8-13.7-30.4-29.9
					C382,28.9,396.2,16.1,413.4,16.4z"/>
				
					<radialGradient id="SVGID_46_" cx="951.0812" cy="651.7233" r="16.4836" gradientTransform="matrix(4.053333e-02 -1.8001 1.8866 3.393117e-02 -842.9498 1747.7274)" gradientUnits="userSpaceOnUse">
					<stop  offset="0" style="stop-color:#231F20"/>
					<stop  offset="1" style="stop-color:#FFFFFF;stop-opacity:0"/>
				</radialGradient>
				<path class="st61" d="M425.8,28.5c17.2,0.3,30.8,13.7,30.4,29.9c-0.4,16.2-14.6,29.1-31.8,28.8c-17.2-0.3-30.8-13.7-30.4-29.9
					C394.4,41,408.6,28.2,425.8,28.5z"/>
				
					<radialGradient id="SVGID_47_" cx="950.524" cy="637.1948" r="16.4836" gradientTransform="matrix(4.053333e-02 -1.8001 1.8866 3.393117e-02 -871.3077 1747.2174)" gradientUnits="userSpaceOnUse">
					<stop  offset="0" style="stop-color:#231F20"/>
					<stop  offset="1" style="stop-color:#FFFFFF;stop-opacity:0"/>
				</radialGradient>
				<path class="st62" d="M370,28.5c17.2,0.3,30.8,13.7,30.4,29.9c-0.4,16.2-14.6,29.1-31.8,28.8c-17.2-0.3-30.8-13.7-30.4-29.9
					C338.6,41,352.8,28.2,370,28.5z"/>
				<g>
					<path class="st30" d="M428.4,47.5c-1.5-6.6-6.4-11.4-12.2-11.4c-1.7,0-3.4,0.4-4.9,1.2c-3-8.2-9.6-13.9-17.4-13.9
						c-7.7,0-14.3,5.6-17.3,13.6c-1.4-0.6-2.9-1-4.5-1c-5.8,0-10.8,4.8-12.2,11.4c-5.2,0.6-9.2,6-9.2,12.5c0,6.9,4.6,12.5,10.3,12.5
						c2.3,0,4.5-1,6.2-2.6c1.6,4.2,5.2,7.2,9.3,7.2c1.6,0,3.1-0.5,4.5-1.3c2.9,4.9,7.7,8.2,13,8.2c5.5,0,10.3-3.3,13.2-8.4
						c1.5,1,3.1,1.5,4.9,1.5c4.1,0,7.6-2.9,9.3-7.2c1.7,1.6,3.9,2.6,6.2,2.6c5.7,0,10.3-5.6,10.3-12.5
						C437.6,53.5,433.5,48.1,428.4,47.5z"/>
					<path class="st35" d="M428.4,47.5c-1.5-6.6-6.4-11.4-12.2-11.4c-1.7,0-3.4,0.4-4.9,1.2c-2.9-8-9.4-13.7-17-13.8V84
						c5.3-0.2,9.9-3.4,12.8-8.4c1.5,1,3.1,1.5,4.9,1.5c4.1,0,7.6-2.9,9.3-7.2c1.7,1.6,3.9,2.6,6.2,2.6c5.7,0,10.3-5.6,10.3-12.5
						C437.6,53.5,433.5,48.1,428.4,47.5z"/>
				</g>
				
					<radialGradient id="SVGID_48_" cx="945.3469" cy="646.6849" r="16.4836" gradientTransform="matrix(4.053333e-02 -1.8001 1.8866 3.393117e-02 -852.7842 1747.5505)" gradientUnits="userSpaceOnUse">
					<stop  offset="0" style="stop-color:#231F20"/>
					<stop  offset="1" style="stop-color:#FFFFFF;stop-opacity:0"/>
				</radialGradient>
				<path class="st63" d="M406.2,38.4c17.2,0.3,30.8,13.7,30.4,29.9c-0.4,16.2-14.6,29.1-31.8,28.8c-17.2-0.3-30.8-13.7-30.4-29.9
					C374.8,51,389.1,38.1,406.2,38.4z"/>
				
					<radialGradient id="SVGID_49_" cx="950.5873" cy="648.2966" r="16.4836" gradientTransform="matrix(4.053333e-02 -1.8001 1.8866 3.393117e-02 -849.6382 1747.6071)" gradientUnits="userSpaceOnUse">
					<stop  offset="0" style="stop-color:#231F20"/>
					<stop  offset="1" style="stop-color:#FFFFFF;stop-opacity:0"/>
				</radialGradient>
				<path class="st64" d="M412.6,29.1c17.2,0.3,30.8,13.7,30.4,29.9c-0.4,16.2-14.6,29.1-31.8,28.8c-17.2-0.3-30.8-13.7-30.4-29.9
					C381.2,41.7,395.5,28.8,412.6,29.1z"/>
				
					<radialGradient id="SVGID_50_" cx="1038.3142" cy="645.4374" r="16.4838" gradientTransform="matrix(3.338667e-02 -1.4864 1.8866 3.393117e-02 -851.8353 1566.0298)" gradientUnits="userSpaceOnUse">
					<stop  offset="0" style="stop-color:#231F20"/>
					<stop  offset="1" style="stop-color:#FFFFFF;stop-opacity:0"/>
				</radialGradient>
				<path class="st65" d="M401.1,20.4c17.2,0.3,30.9,11.4,30.6,24.8c-0.3,13.4-14.5,24-31.6,23.7c-17.2-0.3-30.9-11.4-30.6-24.8
					S383.9,20.1,401.1,20.4z"/>
				
					<radialGradient id="SVGID_51_" cx="950.6392" cy="640.1958" r="16.4836" gradientTransform="matrix(4.053333e-02 -1.8001 1.8866 3.393117e-02 -865.4502 1747.3228)" gradientUnits="userSpaceOnUse">
					<stop  offset="0" style="stop-color:#231F20"/>
					<stop  offset="1" style="stop-color:#FFFFFF;stop-opacity:0"/>
				</radialGradient>
				<path class="st66" d="M381.5,28.5c17.2,0.3,30.8,13.7,30.4,29.9c-0.4,16.2-14.6,29.1-31.8,28.8c-17.2-0.3-30.8-13.7-30.4-29.9
					C350.2,41,364.4,28.2,381.5,28.5z"/>
				<g>
					<path class="st30" d="M415.4,47.5c-1-6.6-4.2-11.4-8-11.4c-1.1,0-2.2,0.4-3.2,1.2c-1.9-8.2-6.3-13.9-11.3-13.9
						c-5,0-9.3,5.6-11.3,13.6c-0.9-0.6-1.9-1-2.9-1c-3.8,0-7,4.8-8,11.4c-3.4,0.6-6,6-6,12.5c0,6.9,3,12.5,6.7,12.5
						c1.5,0,2.9-1,4.1-2.6c1.1,4.2,3.4,7.2,6,7.2c1,0,2-0.5,2.9-1.3c1.9,4.9,5,8.2,8.5,8.2c3.6,0,6.7-3.3,8.6-8.4
						c0.9,1,2,1.5,3.2,1.5c2.7,0,5-2.9,6-7.2c1.1,1.6,2.5,2.6,4.1,2.6c3.7,0,6.7-5.6,6.7-12.5C421.4,53.5,418.7,48.1,415.4,47.5z"/>
					<path class="st35" d="M415.4,47.5c-1-6.6-4.2-11.4-8-11.4c-1.1,0-2.2,0.4-3.2,1.2c-1.9-8-6.1-13.7-11.1-13.8V84
						c3.4-0.2,6.5-3.4,8.3-8.4c0.9,1,2,1.5,3.2,1.5c2.7,0,5-2.9,6-7.2c1.1,1.6,2.5,2.6,4.1,2.6c3.7,0,6.7-5.6,6.7-12.5
						C421.4,53.5,418.7,48.1,415.4,47.5z"/>
				</g>
			</g>
		</g>
		<g id="cloud2" class="st5">
			<g>
				<path class="st30" d="M822.6,91.8c-3.6-11.8-15.7-20.4-30-20.4c-4.3,0-8.3,0.8-12,2.2C773.3,59,757,48.8,738,48.8
					c-18.8,0-35.1,10-42.4,24.4c-3.4-1.1-7.1-1.8-10.9-1.8c-14.3,0-26.3,8.6-30,20.4C642,92.9,632,102.5,632,114.2
					c0,12.4,11.2,22.4,25.1,22.4c5.7,0,11-1.7,15.3-4.6c4,7.6,12.7,12.8,22.7,12.8c3.9,0,7.7-0.8,11-2.3
					c7.1,8.9,18.8,14.6,31.9,14.6c13.4,0,25.1-6,32.2-15.1c3.6,1.7,7.6,2.7,11.9,2.7c10,0,18.7-5.2,22.7-12.8
					c4.2,2.9,9.5,4.6,15.3,4.6c13.9,0,25.1-10.1,25.1-22.4C845.2,102.5,835.3,92.9,822.6,91.8z"/>
				<path class="st31" d="M822.6,91.8c-3.6-11.8-15.7-20.4-30-20.4c-4.3,0-8.3,0.8-12,2.2c-7.1-14.3-23-24.4-41.6-24.8v108.3
					c12.9-0.3,24.3-6.2,31.3-15c3.6,1.7,7.6,2.7,11.9,2.7c10,0,18.7-5.2,22.7-12.8c4.2,2.9,9.5,4.6,15.3,4.6
					c13.9,0,25.1-10.1,25.1-22.4C845.2,102.5,835.3,92.9,822.6,91.8z"/>
			</g>
			
				<radialGradient id="SVGID_52_" cx="937.4452" cy="742.0269" r="29.4893" gradientTransform="matrix(4.053333e-02 -1.8001 1.8866 3.393117e-02 -666.6869 1750.8976)" gradientUnits="userSpaceOnUse">
				<stop  offset="0" style="stop-color:#231F20"/>
				<stop  offset="1" style="stop-color:#FFFFFF;stop-opacity:0"/>
			</radialGradient>
			<path class="st67" d="M772.4,36.1c30.7,0.6,55.1,24.5,54.5,53.5c-0.7,29-26.1,52-56.8,51.5c-30.7-0.6-55.1-24.5-54.5-53.5
				C716.2,58.6,741.7,35.6,772.4,36.1z"/>
			
				<radialGradient id="SVGID_53_" cx="925.6464" cy="747.9486" r="29.4893" gradientTransform="matrix(4.053333e-02 -1.8001 1.8866 3.393117e-02 -655.1283 1751.1055)" gradientUnits="userSpaceOnUse">
				<stop  offset="0" style="stop-color:#231F20"/>
				<stop  offset="1" style="stop-color:#FFFFFF;stop-opacity:0"/>
			</radialGradient>
			<path class="st68" d="M794.7,57.8c30.7,0.6,55.1,24.5,54.5,53.5c-0.7,29-26.1,52-56.8,51.5c-30.7-0.6-55.1-24.5-54.5-53.5
				C738.5,80.3,763.9,57.2,794.7,57.8z"/>
			
				<radialGradient id="SVGID_54_" cx="924.6496" cy="721.9572" r="29.4893" gradientTransform="matrix(4.053333e-02 -1.8001 1.8866 3.393117e-02 -705.8607 1750.193)" gradientUnits="userSpaceOnUse">
				<stop  offset="0" style="stop-color:#231F20"/>
				<stop  offset="1" style="stop-color:#FFFFFF;stop-opacity:0"/>
			</radialGradient>
			<path class="st69" d="M694.9,57.8c30.7,0.6,55.1,24.5,54.5,53.5c-0.7,29-26.1,52-56.8,51.5c-30.7-0.6-55.1-24.5-54.5-53.5
				C638.7,80.3,664.1,57.2,694.9,57.8z"/>
			<g>
				<path class="st30" d="M799.2,91.8c-2.7-11.8-11.5-20.4-21.9-20.4c-3.1,0-6.1,0.8-8.8,2.2c-5.3-14.6-17.2-24.8-31.1-24.8
					c-13.8,0-25.6,10-31,24.4c-2.5-1.1-5.2-1.8-8-1.8c-10.4,0-19.2,8.6-21.9,20.4c-9.3,1.1-16.5,10.7-16.5,22.3
					c0,12.4,8.2,22.4,18.3,22.4c4.2,0,8.1-1.7,11.2-4.6c2.9,7.6,9.3,12.8,16.6,12.8c2.9,0,5.6-0.8,8-2.3
					c5.2,8.9,13.7,14.6,23.3,14.6c9.8,0,18.4-6,23.6-15.1c2.6,1.7,5.6,2.7,8.7,2.7c7.3,0,13.6-5.2,16.6-12.8c3.1,2.9,7,4.6,11.2,4.6
					c10.1,0,18.3-10.1,18.3-22.4C815.7,102.5,808.5,92.9,799.2,91.8z"/>
				<path class="st35" d="M799.2,91.8c-2.7-11.8-11.5-20.4-21.9-20.4c-3.1,0-6.1,0.8-8.8,2.2c-5.2-14.3-16.8-24.4-30.4-24.8v108.3
					c9.5-0.3,17.8-6.2,22.8-15c2.6,1.7,5.6,2.7,8.7,2.7c7.3,0,13.6-5.2,16.6-12.8c3.1,2.9,7,4.6,11.2,4.6
					c10.1,0,18.3-10.1,18.3-22.4C815.7,102.5,808.5,92.9,799.2,91.8z"/>
			</g>
			
				<radialGradient id="SVGID_55_" cx="915.3876" cy="738.9349" r="29.4893" gradientTransform="matrix(4.053333e-02 -1.8001 1.8866 3.393117e-02 -672.722 1750.7889)" gradientUnits="userSpaceOnUse">
				<stop  offset="0" style="stop-color:#231F20"/>
				<stop  offset="1" style="stop-color:#FFFFFF;stop-opacity:0"/>
			</radialGradient>
			<path class="st70" d="M759.6,75.6c30.7,0.6,55.1,24.5,54.5,53.5c-0.7,29-26.1,52-56.8,51.5c-30.7-0.6-55.1-24.5-54.5-53.5
				C703.5,98.1,728.9,75,759.6,75.6z"/>
			
				<radialGradient id="SVGID_56_" cx="924.7628" cy="741.8183" r="29.4893" gradientTransform="matrix(4.053333e-02 -1.8001 1.8866 3.393117e-02 -667.0939 1750.8903)" gradientUnits="userSpaceOnUse">
				<stop  offset="0" style="stop-color:#231F20"/>
				<stop  offset="1" style="stop-color:#FFFFFF;stop-opacity:0"/>
			</radialGradient>
			<path class="st71" d="M771.1,58.9c30.7,0.6,55.1,24.5,54.5,53.5c-0.7,29-26.1,52-56.8,51.5c-30.7-0.6-55.1-24.5-54.5-53.5
				C714.9,81.4,740.4,58.4,771.1,58.9z"/>
			
				<radialGradient id="SVGID_57_" cx="1014.2821" cy="736.5407" r="29.4896" gradientTransform="matrix(3.338667e-02 -1.4864 1.8866 3.393117e-02 -674.0115 1569.2279)" gradientUnits="userSpaceOnUse">
				<stop  offset="0" style="stop-color:#231F20"/>
				<stop  offset="1" style="stop-color:#FFFFFF;stop-opacity:0"/>
			</radialGradient>
			<path class="st72" d="M750.4,43.3c30.7,0.6,55.2,20.4,54.7,44.3c-0.5,23.9-25.9,42.9-56.6,42.3c-30.7-0.6-55.2-20.4-54.7-44.3
				C694.3,61.7,719.7,42.7,750.4,43.3z"/>
			
				<radialGradient id="SVGID_58_" cx="924.8555" cy="727.3259" r="29.4893" gradientTransform="matrix(4.053333e-02 -1.8001 1.8866 3.393117e-02 -695.3816 1750.3815)" gradientUnits="userSpaceOnUse">
				<stop  offset="0" style="stop-color:#231F20"/>
				<stop  offset="1" style="stop-color:#FFFFFF;stop-opacity:0"/>
			</radialGradient>
			<path class="st73" d="M715.5,57.8c30.7,0.6,55.1,24.5,54.5,53.5c-0.7,29-26.1,52-56.8,51.5c-30.7-0.6-55.1-24.5-54.5-53.5
				C659.3,80.3,684.7,57.2,715.5,57.8z"/>
			<g>
				<path class="st30" d="M776,91.8c-1.7-11.8-7.5-20.4-14.3-20.4c-2,0-4,0.8-5.7,2.2c-3.4-14.6-11.2-24.8-20.3-24.8
					c-9,0-16.7,10-20.2,24.4c-1.6-1.1-3.4-1.8-5.2-1.8c-6.8,0-12.5,8.6-14.3,20.4c-6,1.1-10.8,10.7-10.8,22.3
					c0,12.4,5.4,22.4,11.9,22.4c2.7,0,5.3-1.7,7.3-4.6c1.9,7.6,6,12.8,10.8,12.8c1.9,0,3.6-0.8,5.2-2.3c3.4,8.9,8.9,14.6,15.2,14.6
					c6.4,0,12-6,15.3-15.1c1.7,1.7,3.6,2.7,5.7,2.7c4.8,0,8.9-5.2,10.8-12.8c2,2.9,4.5,4.6,7.3,4.6c6.6,0,11.9-10.1,11.9-22.4
					C786.7,102.5,782,92.9,776,91.8z"/>
				<path class="st35" d="M776,91.8c-1.7-11.8-7.5-20.4-14.3-20.4c-2,0-4,0.8-5.7,2.2c-3.4-14.3-11-24.4-19.8-24.8v108.3
					c6.2-0.3,11.6-6.2,14.9-15c1.7,1.7,3.6,2.7,5.7,2.7c4.8,0,8.9-5.2,10.8-12.8c2,2.9,4.5,4.6,7.3,4.6c6.6,0,11.9-10.1,11.9-22.4
					C786.7,102.5,782,92.9,776,91.8z"/>
			</g>
		</g>
		<g id="cloud1" class="st5">
			
				<radialGradient id="SVGID_59_" cx="7.4115" cy="380.486" r="24.686" gradientTransform="matrix(-0.5367 1.8851 -1.7797 -0.405 816.9446 266.2616)" gradientUnits="userSpaceOnUse">
				<stop  offset="0" style="stop-color:#231F20"/>
				<stop  offset="1" style="stop-color:#FFFFFF;stop-opacity:0"/>
			</radialGradient>
			<path class="st74" d="M122.7,172.1c-24.3-5.5-38.1-30.6-30.8-56c7.2-25.4,32.8-41.5,57-36c24.3,5.5,38.1,30.6,30.8,56
				C172.5,161.6,147,177.7,122.7,172.1z"/>
			<g>
				<g>
					<path class="st30" d="M178.1,92c-3-9.6-12.8-16.7-24.5-16.7c-3.5,0-6.8,0.6-9.8,1.8c-5.9-11.9-19.3-20.3-34.8-20.3
						c-15.4,0-28.7,8.2-34.6,19.9c-2.8-0.9-5.8-1.4-8.9-1.4c-11.7,0-21.5,7.1-24.5,16.7c-10.4,0.9-18.5,8.7-18.5,18.3
						c0,10.1,9.2,18.3,20.5,18.3c4.7,0,9-1.4,12.5-3.8c3.3,6.2,10.4,10.5,18.5,10.5c3.2,0,6.3-0.7,9-1.8c5.8,7.2,15.3,12,26.1,12
						c10.9,0,20.5-4.9,26.3-12.3c2.9,1.4,6.2,2.2,9.8,2.2c8.2,0,15.2-4.3,18.5-10.5c3.5,2.4,7.8,3.8,12.5,3.8
						c11.3,0,20.5-8.2,20.5-18.3C196.6,100.8,188.5,93,178.1,92z"/>
					<path class="st31" d="M178.1,92c-3-9.6-12.8-16.7-24.5-16.7c-3.5,0-6.8,0.6-9.8,1.8c-5.8-11.7-18.8-20-34-20.2v88.5
						c10.6-0.2,19.9-5,25.5-12.3c2.9,1.4,6.2,2.2,9.8,2.2c8.2,0,15.2-4.3,18.5-10.5c3.5,2.4,7.8,3.8,12.5,3.8
						c11.3,0,20.5-8.2,20.5-18.3C196.6,100.8,188.5,93,178.1,92z"/>
				</g>
				
					<radialGradient id="SVGID_60_" cx="930.646" cy="576.6462" r="24.0978" gradientTransform="matrix(4.053333e-02 -1.8001 1.8866 3.393117e-02 -989.4921 1745.0918)" gradientUnits="userSpaceOnUse">
					<stop  offset="0" style="stop-color:#231F20"/>
					<stop  offset="1" style="stop-color:#FFFFFF;stop-opacity:0"/>
				</radialGradient>
				<path class="st75" d="M137.1,46.5c25.1,0.5,45,20,44.5,43.7c-0.5,23.7-21.3,42.5-46.4,42.1c-25.1-0.5-45-20-44.5-43.7
					C91.2,64.9,112,46.1,137.1,46.5z"/>
				
					<radialGradient id="SVGID_61_" cx="921.0044" cy="581.4853" r="24.0978" gradientTransform="matrix(4.053333e-02 -1.8001 1.8866 3.393117e-02 -980.0468 1745.2617)" gradientUnits="userSpaceOnUse">
					<stop  offset="0" style="stop-color:#231F20"/>
					<stop  offset="1" style="stop-color:#FFFFFF;stop-opacity:0"/>
				</radialGradient>
				<path class="st76" d="M155.3,64.2c25.1,0.5,45,20,44.5,43.7c-0.5,23.7-21.3,42.5-46.4,42.1c-25.1-0.5-45-20-44.5-43.7
					C109.4,82.6,130.2,63.8,155.3,64.2z"/>
				
					<radialGradient id="SVGID_62_" cx="920.1898" cy="560.2458" r="24.0978" gradientTransform="matrix(4.053333e-02 -1.8001 1.8866 3.393117e-02 -1021.5038 1744.5161)" gradientUnits="userSpaceOnUse">
					<stop  offset="0" style="stop-color:#231F20"/>
					<stop  offset="1" style="stop-color:#FFFFFF;stop-opacity:0"/>
				</radialGradient>
				<path class="st77" d="M73.7,64.2c25.1,0.5,45,20,44.5,43.7c-0.5,23.7-21.3,42.5-46.4,42.1c-25.1-0.5-45-20-44.5-43.7
					C27.8,82.6,48.6,63.8,73.7,64.2z"/>
				<g>
					<path class="st30" d="M159,92c-2.2-9.6-9.4-16.7-17.9-16.7c-2.6,0-5,0.6-7.2,1.8c-4.3-11.9-14.1-20.3-25.4-20.3
						c-11.3,0-20.9,8.2-25.3,19.9c-2-0.9-4.2-1.4-6.5-1.4c-8.5,0-15.7,7.1-17.9,16.7c-7.6,0.9-13.5,8.7-13.5,18.3
						c0,10.1,6.7,18.3,15,18.3c3.4,0,6.6-1.4,9.1-3.8c2.4,6.2,7.6,10.5,13.5,10.5c2.4,0,4.6-0.7,6.6-1.8c4.3,7.2,11.2,12,19,12
						c8,0,15-4.9,19.2-12.3c2.1,1.4,4.5,2.2,7.1,2.2c6,0,11.1-4.3,13.5-10.5c2.5,2.4,5.7,3.8,9.1,3.8c8.3,0,15-8.2,15-18.3
						C172.5,100.8,166.6,93,159,92z"/>
					<path class="st35" d="M159,92c-2.2-9.6-9.4-16.7-17.9-16.7c-2.6,0-5,0.6-7.2,1.8c-4.2-11.7-13.7-20-24.8-20.2v88.5
						c7.7-0.2,14.5-5,18.7-12.3c2.1,1.4,4.5,2.2,7.1,2.2c6,0,11.1-4.3,13.5-10.5c2.5,2.4,5.7,3.8,9.1,3.8c8.3,0,15-8.2,15-18.3
						C172.5,100.8,166.6,93,159,92z"/>
				</g>
				
					<radialGradient id="SVGID_63_" cx="912.6212" cy="574.1196" r="24.0978" gradientTransform="matrix(4.053333e-02 -1.8001 1.8866 3.393117e-02 -994.4238 1745.0031)" gradientUnits="userSpaceOnUse">
					<stop  offset="0" style="stop-color:#231F20"/>
					<stop  offset="1" style="stop-color:#FFFFFF;stop-opacity:0"/>
				</radialGradient>
				<path class="st78" d="M126.7,78.8c25.1,0.5,45,20,44.5,43.7c-0.5,23.7-21.3,42.5-46.4,42.1c-25.1-0.5-45-20-44.5-43.7
					C80.8,97.2,101.6,78.3,126.7,78.8z"/>
				
					<radialGradient id="SVGID_64_" cx="920.2823" cy="576.4758" r="24.0978" gradientTransform="matrix(4.053333e-02 -1.8001 1.8866 3.393117e-02 -989.8248 1745.0858)" gradientUnits="userSpaceOnUse">
					<stop  offset="0" style="stop-color:#231F20"/>
					<stop  offset="1" style="stop-color:#FFFFFF;stop-opacity:0"/>
				</radialGradient>
				<path class="st79" d="M136,65.2c25.1,0.5,45,20,44.5,43.7c-0.5,23.7-21.3,42.5-46.4,42.1c-25.1-0.5-45-20-44.5-43.7
					C90.1,83.6,110.9,64.7,136,65.2z"/>
				
					<radialGradient id="SVGID_65_" cx="1005.8535" cy="572.2003" r="24.098" gradientTransform="matrix(3.338667e-02 -1.4864 1.8866 3.393117e-02 -994.7863 1563.4587)" gradientUnits="userSpaceOnUse">
					<stop  offset="0" style="stop-color:#231F20"/>
					<stop  offset="1" style="stop-color:#FFFFFF;stop-opacity:0"/>
				</radialGradient>
				<path class="st80" d="M119.1,52.4c25.1,0.5,45.1,16.7,44.7,36.2c-0.4,19.6-21.2,35-46.3,34.6c-25.1-0.5-45.1-16.7-44.7-36.2
					C73.3,67.4,94,51.9,119.1,52.4z"/>
				
					<radialGradient id="SVGID_66_" cx="920.3581" cy="564.633" r="24.0978" gradientTransform="matrix(4.053333e-02 -1.8001 1.8866 3.393117e-02 -1012.9406 1744.67)" gradientUnits="userSpaceOnUse">
					<stop  offset="0" style="stop-color:#231F20"/>
					<stop  offset="1" style="stop-color:#FFFFFF;stop-opacity:0"/>
				</radialGradient>
				<path class="st81" d="M90.6,64.2c25.1,0.5,45,20,44.5,43.7c-0.5,23.7-21.3,42.5-46.4,42.1c-25.1-0.5-45-20-44.5-43.7
					C44.7,82.6,65.5,63.8,90.6,64.2z"/>
				<g>
					<path class="st30" d="M140,92c-1.4-9.6-6.1-16.7-11.7-16.7c-1.7,0-3.2,0.6-4.7,1.8c-2.8-11.9-9.2-20.3-16.6-20.3
						c-7.3,0-13.6,8.2-16.5,19.9c-1.3-0.9-2.8-1.4-4.3-1.4c-5.6,0-10.2,7.1-11.7,16.7c-4.9,0.9-8.8,8.7-8.8,18.3
						c0,10.1,4.4,18.3,9.8,18.3c2.2,0,4.3-1.4,5.9-3.8c1.6,6.2,4.9,10.5,8.8,10.5c1.5,0,3-0.7,4.3-1.8c2.8,7.2,7.3,12,12.4,12
						c5.2,0,9.8-4.9,12.5-12.3c1.4,1.4,3,2.2,4.6,2.2c3.9,0,7.3-4.3,8.8-10.5c1.6,2.4,3.7,3.8,5.9,3.8c5.4,0,9.8-8.2,9.8-18.3
						C148.8,100.8,145,93,140,92z"/>
					<path class="st35" d="M140,92c-1.4-9.6-6.1-16.7-11.7-16.7c-1.7,0-3.2,0.6-4.7,1.8c-2.8-11.7-9-20-16.2-20.2v88.5
						c5-0.2,9.5-5,12.2-12.3c1.4,1.4,3,2.2,4.6,2.2c3.9,0,7.3-4.3,8.8-10.5c1.6,2.4,3.7,3.8,5.9,3.8c5.4,0,9.8-8.2,9.8-18.3
						C148.8,100.8,145,93,140,92z"/>
				</g>
			</g>
		</g>
		<g id="Balloon1" class="st5">
			<g>
				
					<radialGradient id="SVGID_67_" cx="-8.2246" cy="253.3064" r="40.9437" gradientTransform="matrix(-0.5367 1.8851 -1.7797 -0.405 1051.113 319.5478)" gradientUnits="userSpaceOnUse">
					<stop  offset="0" style="stop-color:#231F20"/>
					<stop  offset="1" style="stop-color:#FFFFFF;stop-opacity:0"/>
				</radialGradient>
				<path class="st82" d="M583,277.8c-40.2-9.2-63.1-50.7-51.1-92.9c12-42.1,54.3-68.9,94.6-59.7c40.2,9.2,63.1,50.7,51.1,92.9
					C665.6,260.2,623.2,286.9,583,277.8z"/>
				<g>
					<line class="st83" x1="581.4" y1="211.5" x2="583.7" y2="227.2"/>
					<line class="st83" x1="588.7" y1="211.5" x2="589.9" y2="227.2"/>
					<line class="st83" x1="603.1" y1="211.5" x2="600.8" y2="227.2"/>
					<line class="st83" x1="597.4" y1="211.5" x2="596.1" y2="227.2"/>
					<path class="st84" d="M680.5,85.9c-15-52.4-78.9-51.5-88.3-51.1c-9.3-0.4-73.3-1.3-88.3,51.1c0,0-12.7,39.6,30.9,75.8
						c6.3,5.3,12.5,10.7,18.1,16.6c10.4,10.9,25,27.3,28.4,36.4h21.7c3.4-9.1,18-25.5,28.4-36.4c5.6-5.9,11.7-11.3,18.1-16.6
						C693.2,125.5,680.5,85.9,680.5,85.9z"/>
					<path class="st84" d="M680.5,85.9c-14.1-49.5-72.7-51.5-86.9-51.2v180h9.5c3.4-9.1,18-25.5,28.4-36.4
						c5.6-5.9,11.7-11.3,18.1-16.6C693.2,125.5,680.5,85.9,680.5,85.9z"/>
					
						<radialGradient id="SVGID_68_" cx="315.0221" cy="64.5959" r="34.7888" gradientTransform="matrix(1.088 1.6845 -1.4851 0.7665 388.0604 -484.7086)" gradientUnits="userSpaceOnUse">
						<stop  offset="0" style="stop-color:#231F20"/>
						<stop  offset="1" style="stop-color:#FFFFFF;stop-opacity:0"/>
					</radialGradient>
					<path class="st85" d="M672.3,153.4c-28.5,14.7-68.4,0.7-89.1-31.3c-20.7-32-14.3-69.9,14.2-84.6c28.5-14.7,68.4-0.7,89.1,31.3
						C707.2,100.8,700.8,138.7,672.3,153.4z"/>
					
						<radialGradient id="SVGID_69_" cx="-38.55" cy="251.687" r="35.3685" gradientTransform="matrix(-0.5367 1.8851 -1.7797 -0.405 1054.0946 320.2263)" gradientUnits="userSpaceOnUse">
						<stop  offset="0" style="stop-color:#231F20"/>
						<stop  offset="1" style="stop-color:#FFFFFF;stop-opacity:0"/>
					</radialGradient>
					<path class="st86" d="M608.1,211.5c-34.8-7.9-54.5-43.8-44.2-80.2c10.4-36.4,46.9-59.5,81.7-51.6c34.8,7.9,54.5,43.8,44.2,80.2
						C679.4,196.4,642.9,219.5,608.1,211.5z"/>
					
						<radialGradient id="SVGID_70_" cx="461.9954" cy="810.2658" r="34.7884" gradientTransform="matrix(-1.4876 -1.4196 1.2515 -1.048 244.4275 1657.9138)" gradientUnits="userSpaceOnUse">
						<stop  offset="0" style="stop-color:#231F20"/>
						<stop  offset="1" style="stop-color:#FFFFFF;stop-opacity:0"/>
					</radialGradient>
					<path class="st87" d="M520.1,104.1c24-20.1,66.4-14.6,94.7,12.4c28.3,27,31.7,65.1,7.6,85.3c-24,20.1-66.4,14.6-94.7-12.4
						C499.4,162.4,496,124.2,520.1,104.1z"/>
					
						<radialGradient id="SVGID_71_" cx="901.7043" cy="689.4854" r="35.3687" gradientTransform="matrix(4.373333e-02 -1.9447 1.8361 3.299384e-02 -741.8835 1833.1483)" gradientUnits="userSpaceOnUse">
						<stop  offset="0" style="stop-color:#231F20"/>
						<stop  offset="1" style="stop-color:#FFFFFF;stop-opacity:0"/>
					</radialGradient>
					<path class="st88" d="M565,34.3c35.9,0.6,64.3,31.6,63.4,69.2c-0.8,37.6-30.6,67.5-66.5,66.8s-64.3-31.6-63.4-69.2
						C499.4,63.6,529.2,33.7,565,34.3z"/>
					<g>
						<path class="st84" d="M655.2,85.9c-10.6-52.4-56.2-51.5-62.9-51.1c-6.6-0.4-52.2-1.3-62.9,51.1c0,0-9,39.6,22,75.8
							c4.5,5.3,8.9,10.7,12.9,16.6c7.4,10.9,17.8,27.3,20.2,36.4h15.5c2.4-9.1,12.8-25.5,20.2-36.4c4-5.9,8.4-11.3,12.9-16.6
							C664.2,125.5,655.2,85.9,655.2,85.9z"/>
						<path class="st89" d="M655.2,85.9c-10.1-49.5-51.7-51.5-61.9-51.2v180h6.8c2.4-9.1,12.8-25.5,20.2-36.4
							c4-5.9,8.4-11.3,12.9-16.6C664.2,125.5,655.2,85.9,655.2,85.9z"/>
					</g>
					
						<radialGradient id="SVGID_72_" cx="318.4301" cy="70.8927" r="31.1408" gradientTransform="matrix(1.088 1.6845 -1.4851 0.7665 378.3851 -479.7151)" gradientUnits="userSpaceOnUse">
						<stop  offset="0" style="stop-color:#231F20"/>
						<stop  offset="1" style="stop-color:#FFFFFF;stop-opacity:0"/>
					</radialGradient>
					<path class="st90" d="M653,162.9c-25.5,13.2-61.2,0.7-79.7-28c-18.5-28.6-12.8-62.5,12.8-75.7c25.5-13.2,61.2-0.7,79.7,28
						C684.3,115.8,678.6,149.7,653,162.9z"/>
					
						<radialGradient id="SVGID_73_" cx="302.2188" cy="68.2633" r="31.1408" gradientTransform="matrix(1.088 1.6845 -1.4851 0.7665 382.4253 -481.8003)" gradientUnits="userSpaceOnUse">
						<stop  offset="0" style="stop-color:#231F20"/>
						<stop  offset="1" style="stop-color:#FFFFFF;stop-opacity:0"/>
					</radialGradient>
					<path class="st91" d="M643.4,131.5c-25.5,13.2-61.2,0.7-79.7-28c-18.5-28.6-12.8-62.5,12.8-75.7c25.5-13.2,61.2-0.7,79.7,28
						C674.6,84.4,668.9,118.3,643.4,131.5z"/>
					
						<radialGradient id="SVGID_74_" cx="-31.6081" cy="254.657" r="31.6597" gradientTransform="matrix(-0.5367 1.8851 -1.7797 -0.405 1048.6263 318.9819)" gradientUnits="userSpaceOnUse">
						<stop  offset="0" style="stop-color:#231F20"/>
						<stop  offset="1" style="stop-color:#FFFFFF;stop-opacity:0"/>
					</radialGradient>
					<path class="st92" d="M595.6,215.3c-31.1-7.1-48.8-39.2-39.5-71.8c9.3-32.6,42-53.3,73.1-46.2c31.1,7.1,48.8,39.2,39.5,71.8
						C659.5,201.7,626.7,222.3,595.6,215.3z"/>
					
						<radialGradient id="SVGID_75_" cx="458.9341" cy="810.4282" r="31.6502" gradientTransform="matrix(-1.4876 -1.4196 1.2515 -1.048 244.6378 1657.7378)" gradientUnits="userSpaceOnUse">
						<stop  offset="0" style="stop-color:#231F20"/>
						<stop  offset="1" style="stop-color:#FFFFFF;stop-opacity:0"/>
					</radialGradient>
					<path class="st93" d="M529.7,112.5c21.9-18.3,60.5-13.3,86.2,11.2c25.7,24.5,28.8,59.3,6.9,77.6
						c-21.9,18.3-60.5,13.3-86.2-11.2C510.9,165.5,507.8,130.8,529.7,112.5z"/>
					
						<radialGradient id="SVGID_76_" cx="895.8777" cy="691.9494" r="32.1782" gradientTransform="matrix(4.373333e-02 -1.9447 1.8361 3.299384e-02 -737.2029 1833.2324)" gradientUnits="userSpaceOnUse">
						<stop  offset="0" style="stop-color:#231F20"/>
						<stop  offset="1" style="stop-color:#FFFFFF;stop-opacity:0"/>
					</radialGradient>
					<path class="st94" d="M573.8,51.9c32.6,0.6,58.5,28.8,57.7,62.9c-0.8,34.2-27.8,61.4-60.5,60.8c-32.6-0.6-58.5-28.8-57.7-62.9
						C514.1,78.6,541.2,51.4,573.8,51.9z"/>
					
						<radialGradient id="SVGID_77_" cx="1060.9514" cy="538.4115" r="32.1782" gradientTransform="matrix(1.088 -1.6845 1.5904 0.8208 -1432.7076 1422.7874)" gradientUnits="userSpaceOnUse">
						<stop  offset="0" style="stop-color:#231F20"/>
						<stop  offset="1" style="stop-color:#FFFFFF;stop-opacity:0"/>
					</radialGradient>
					<path class="st95" d="M612.5,23.9c28.3,14.6,35.7,50.4,16.6,80c-19.1,29.6-57.5,41.8-85.8,27.2c-28.3-14.6-35.7-50.4-16.6-80
						C545.8,21.5,584.2,9.4,612.5,23.9z"/>
					<g>
						<path class="st84" d="M638.2,85.9c-7.7-52.4-40.4-51.5-45.2-51.1c-4.8-0.4-37.5-1.3-45.2,51.1c0,0-6.5,39.6,15.8,75.8
							c3.2,5.3,6.4,10.7,9.3,16.6c5.3,10.9,12.8,27.3,14.5,36.4h11.1c1.7-9.1,9.2-25.5,14.5-36.4c2.9-5.9,6-11.3,9.3-16.6
							C644.7,125.5,638.2,85.9,638.2,85.9z"/>
						<path class="st96" d="M638.2,85.9C631,36.4,601,34.5,593.7,34.8v180h4.9c1.7-9.1,9.2-25.5,14.5-36.4c2.9-5.9,6-11.3,9.3-16.6
							C644.7,125.5,638.2,85.9,638.2,85.9z"/>
					</g>
					<g>
						<path class="st42" d="M605.3,238.2l-1.9-8c-0.1-0.4-0.3-0.7-0.5-1.1h0.2c0.6,0,1.2-0.5,1.2-1c0-0.6-0.5-1-1.2-1H581
							c-0.6,0-1.2,0.5-1.2,1c0,0.6,0.5,1,1.2,1h0.3c-0.2,0.3-0.4,0.7-0.5,1.1l-1.9,8c-0.4,1.8,1.1,3.4,3.1,3.4h20.2
							C604.2,241.6,605.7,239.9,605.3,238.2z"/>
						<path class="st97" d="M605.3,238.2l-1.9-8c-0.1-0.4-0.3-0.7-0.5-1.1h0.2c0.6,0,1.2-0.5,1.2-1c0-0.6-0.5-1-1.2-1h-10.8v14.6h10
							C604.2,241.6,605.7,239.9,605.3,238.2z"/>
					</g>
					
						<radialGradient id="SVGID_78_" cx="205.5585" cy="124.498" r="5.9051" gradientTransform="matrix(0.5782 1.8752 -1.6532 0.4074 686.7729 -203.5402)" gradientUnits="userSpaceOnUse">
						<stop  offset="0" style="stop-color:#231F20"/>
						<stop  offset="1" style="stop-color:#FFFFFF;stop-opacity:0"/>
					</radialGradient>
					<path class="st98" d="M603.2,243.6c-5.4,1.3-11.3-2.5-13.1-8.5s1-12,6.4-13.4c5.4-1.3,11.3,2.5,13.1,8.5
						C611.4,236.3,608.6,242.3,603.2,243.6z"/>
					
						<radialGradient id="SVGID_79_" cx="205.4944" cy="128.2515" r="5.9051" gradientTransform="matrix(0.5782 1.8752 -1.6532 0.4074 680.3529 -201.9581)" gradientUnits="userSpaceOnUse">
						<stop  offset="0" style="stop-color:#231F20"/>
						<stop  offset="1" style="stop-color:#FFFFFF;stop-opacity:0"/>
					</radialGradient>
					<path class="st99" d="M590.5,246.6c-5.4,1.3-11.3-2.5-13.1-8.5c-1.9-6,1-12,6.4-13.4c5.4-1.3,11.3,2.5,13.1,8.5
						C598.8,239.3,595.9,245.3,590.5,246.6z"/>
					<g>
						<path class="st42" d="M602.3,238.2l-1.4-8c-0.1-0.4-0.2-0.7-0.4-1.1h0.1c0.5,0,0.9-0.5,0.9-1c0-0.6-0.4-1-0.9-1h-16.9
							c-0.5,0-0.9,0.5-0.9,1c0,0.6,0.4,1,0.9,1h0.2c-0.2,0.3-0.3,0.7-0.4,1.1l-1.4,8c-0.3,1.8,0.8,3.4,2.4,3.4h15.5
							C601.5,241.6,602.6,239.9,602.3,238.2z"/>
						<path class="st97" d="M602.3,238.2l-1.4-8c-0.1-0.4-0.2-0.7-0.4-1.1h0.1c0.5,0,0.9-0.5,0.9-1c0-0.6-0.4-1-0.9-1h-8.3v14.6h7.6
							C601.5,241.6,602.6,239.9,602.3,238.2z"/>
					</g>
					
						<radialGradient id="SVGID_80_" cx="204.5648" cy="125.5957" r="5.9051" gradientTransform="matrix(0.5782 1.8752 -1.6532 0.4074 684.8955 -203.0776)" gradientUnits="userSpaceOnUse">
						<stop  offset="0" style="stop-color:#231F20"/>
						<stop  offset="1" style="stop-color:#FFFFFF;stop-opacity:0"/>
					</radialGradient>
					<path class="st100" d="M598.9,242.6c-5.4,1.3-11.3-2.5-13.1-8.5c-1.9-6,1-12,6.4-13.4c5.4-1.3,11.3,2.5,13.1,8.5
						C607.2,235.3,604.3,241.3,598.9,242.6z"/>
					
						<radialGradient id="SVGID_81_" cx="203.7581" cy="127.4206" r="5.9051" gradientTransform="matrix(0.5782 1.8752 -1.6532 0.4074 681.7741 -202.3083)" gradientUnits="userSpaceOnUse">
						<stop  offset="0" style="stop-color:#231F20"/>
						<stop  offset="1" style="stop-color:#FFFFFF;stop-opacity:0"/>
					</radialGradient>
					<path class="st101" d="M592.3,242.6c-5.4,1.3-11.3-2.5-13.1-8.5c-1.9-6,1-12,6.4-13.4c5.4-1.3,11.3,2.5,13.1,8.5
						C600.6,235.3,597.7,241.3,592.3,242.6z"/>
					<g>
						<path class="st42" d="M599.7,238.2l-1.1-8c-0.1-0.4-0.2-0.7-0.3-1.1h0.1c0.4,0,0.7-0.5,0.7-1c0-0.6-0.3-1-0.7-1h-12.7
							c-0.4,0-0.7,0.5-0.7,1c0,0.6,0.3,1,0.7,1h0.2c-0.1,0.3-0.3,0.7-0.3,1.1l-1.1,8c-0.2,1.8,0.6,3.4,1.8,3.4h11.7
							C599.1,241.6,600,239.9,599.7,238.2z"/>
						<path class="st97" d="M599.7,238.2l-1.1-8c-0.1-0.4-0.2-0.7-0.3-1.1h0.1c0.4,0,0.7-0.5,0.7-1c0-0.6-0.3-1-0.7-1h-6.3v14.6h5.7
							C599.1,241.6,600,239.9,599.7,238.2z"/>
					</g>
					<g>
						<path class="st30" d="M581.2,229.1c3.6-0.1,7.2-0.1,10.8-0.1c3.6,0,7.2,0,10.8,0.1c-3.6,0.1-7.2,0.1-10.8,0.1
							C588.4,229.2,584.8,229.2,581.2,229.1z"/>
					</g>
					<g>
						
							<radialGradient id="SVGID_82_" cx="202.8678" cy="128.5394" r="0.7771" gradientTransform="matrix(0.633 2.8272 -2.4832 0.4443 774.6741 -399.4691)" gradientUnits="userSpaceOnUse">
							<stop  offset="0" style="stop-color:#231F20"/>
							<stop  offset="1" style="stop-color:#FFFFFF;stop-opacity:0"/>
						</radialGradient>
						<path class="st102" d="M584.4,233.4c-1.1,0.2-2.1-0.6-2.4-1.8c-0.3-1.2,0.4-2.3,1.4-2.5c1.1-0.2,2.1,0.6,2.4,1.8
							C586.1,232,585.4,233.2,584.4,233.4z"/>
						<g>
							<path class="st41" d="M584.4,231.6c0,1.1-0.6,1.5-1.4,1.5c-0.8,0-1.4-0.3-1.4-1.5c0-1.1,1.4-2.6,1.4-2.6
								S584.4,230.4,584.4,231.6z"/>
							<path class="st103" d="M583,229C583,229,582.9,229,583,229l0,4.1c0,0,0,0,0,0c0.8,0,1.4-0.3,1.4-1.5
								C584.4,230.4,583,229,583,229z"/>
						</g>
						<g>
							
								<radialGradient id="SVGID_83_" cx="202.8094" cy="128.7221" r="0.7771" gradientTransform="matrix(0.633 2.8272 -2.4832 0.4443 774.2047 -399.3851)" gradientUnits="userSpaceOnUse">
								<stop  offset="0" style="stop-color:#231F20"/>
								<stop  offset="1" style="stop-color:#FFFFFF;stop-opacity:0"/>
							</radialGradient>
							<path class="st104" d="M583.4,233.4c-1.1,0.2-2.1-0.6-2.4-1.8c-0.3-1.2,0.4-2.3,1.4-2.5c1.1-0.2,2.1,0.6,2.4,1.8
								C585.1,232,584.5,233.2,583.4,233.4z"/>
							<g>
								<path class="st41" d="M583.9,231.6c0,1.1-0.4,1.5-1,1.5s-1-0.3-1-1.5c0-1.1,1-2.6,1-2.6S583.9,230.4,583.9,231.6z"/>
								<path class="st103" d="M582.9,229C582.9,229,582.9,229,582.9,229l0,4.1c0,0,0,0,0,0c0.6,0,1-0.3,1-1.5
									C583.9,230.4,582.9,229,582.9,229z"/>
							</g>
						</g>
					</g>
					<g>
						
							<radialGradient id="SVGID_84_" cx="203.1494" cy="127.6589" r="0.7771" gradientTransform="matrix(0.633 2.8272 -2.4832 0.4443 776.9361 -399.8739)" gradientUnits="userSpaceOnUse">
							<stop  offset="0" style="stop-color:#231F20"/>
							<stop  offset="1" style="stop-color:#FFFFFF;stop-opacity:0"/>
						</radialGradient>
						<path class="st105" d="M589,233.4c-1.1,0.2-2.1-0.6-2.4-1.8c-0.3-1.2,0.4-2.3,1.4-2.5c1.1-0.2,2.1,0.6,2.4,1.8
							C590.7,232,590.1,233.2,589,233.4z"/>
						<g>
							<path class="st41" d="M589,231.6c0,1.1-0.6,1.5-1.4,1.5c-0.8,0-1.4-0.3-1.4-1.5c0-1.1,1.4-2.6,1.4-2.6S589,230.4,589,231.6z"
								/>
							<path class="st103" d="M587.6,229C587.6,229,587.6,229,587.6,229l0,4.1c0,0,0,0,0,0c0.8,0,1.4-0.3,1.4-1.5
								C589,230.4,587.6,229,587.6,229z"/>
						</g>
						<g>
							
								<radialGradient id="SVGID_85_" cx="203.0909" cy="127.8416" r="0.7771" gradientTransform="matrix(0.633 2.8272 -2.4832 0.4443 776.4667 -399.7899)" gradientUnits="userSpaceOnUse">
								<stop  offset="0" style="stop-color:#231F20"/>
								<stop  offset="1" style="stop-color:#FFFFFF;stop-opacity:0"/>
							</radialGradient>
							<path class="st106" d="M588,233.4c-1.1,0.2-2.1-0.6-2.4-1.8c-0.3-1.2,0.4-2.3,1.4-2.5c1.1-0.2,2.1,0.6,2.4,1.8
								C589.8,232,589.1,233.2,588,233.4z"/>
							<g>
								<path class="st41" d="M588.6,231.6c0,1.1-0.4,1.5-1,1.5c-0.6,0-1-0.3-1-1.5c0-1.1,1-2.6,1-2.6S588.6,230.4,588.6,231.6z"/>
								<path class="st103" d="M587.6,229C587.6,229,587.6,229,587.6,229l0,4.1c0,0,0,0,0,0c0.6,0,1-0.3,1-1.5
									C588.6,230.4,587.6,229,587.6,229z"/>
							</g>
						</g>
					</g>
					<g>
						
							<radialGradient id="SVGID_86_" cx="203.4309" cy="126.7785" r="0.7771" gradientTransform="matrix(0.633 2.8272 -2.4832 0.4443 779.1982 -400.2787)" gradientUnits="userSpaceOnUse">
							<stop  offset="0" style="stop-color:#231F20"/>
							<stop  offset="1" style="stop-color:#FFFFFF;stop-opacity:0"/>
						</radialGradient>
						<path class="st107" d="M593.6,233.4c-1.1,0.2-2.1-0.6-2.4-1.8c-0.3-1.2,0.4-2.3,1.4-2.5c1.1-0.2,2.1,0.6,2.4,1.8
							C595.3,232,594.7,233.2,593.6,233.4z"/>
						<g>
							<path class="st41" d="M593.6,231.6c0,1.1-0.6,1.5-1.4,1.5c-0.8,0-1.4-0.3-1.4-1.5c0-1.1,1.4-2.6,1.4-2.6
								S593.6,230.4,593.6,231.6z"/>
							<path class="st103" d="M592.2,229C592.2,229,592.2,229,592.2,229l0,4.1c0,0,0,0,0,0c0.8,0,1.4-0.3,1.4-1.5
								C593.6,230.4,592.2,229,592.2,229z"/>
						</g>
						<g>
							
								<radialGradient id="SVGID_87_" cx="203.3725" cy="126.9612" r="0.7771" gradientTransform="matrix(0.633 2.8272 -2.4832 0.4443 778.7288 -400.1947)" gradientUnits="userSpaceOnUse">
								<stop  offset="0" style="stop-color:#231F20"/>
								<stop  offset="1" style="stop-color:#FFFFFF;stop-opacity:0"/>
							</radialGradient>
							<path class="st108" d="M592.7,233.4c-1.1,0.2-2.1-0.6-2.4-1.8c-0.3-1.2,0.4-2.3,1.4-2.5c1.1-0.2,2.1,0.6,2.4,1.8
								C594.4,232,593.7,233.2,592.7,233.4z"/>
							<g>
								<path class="st41" d="M593.2,231.6c0,1.1-0.4,1.5-1,1.5c-0.6,0-1-0.3-1-1.5c0-1.1,1-2.6,1-2.6S593.2,230.4,593.2,231.6z"/>
								<path class="st103" d="M592.2,229C592.2,229,592.2,229,592.2,229l0,4.1c0,0,0,0,0,0c0.6,0,1-0.3,1-1.5
									C593.2,230.4,592.2,229,592.2,229z"/>
							</g>
						</g>
					</g>
					<g>
						
							<radialGradient id="SVGID_88_" cx="203.7254" cy="125.8574" r="0.7771" gradientTransform="matrix(0.633 2.8272 -2.4832 0.4443 781.5645 -400.7021)" gradientUnits="userSpaceOnUse">
							<stop  offset="0" style="stop-color:#231F20"/>
							<stop  offset="1" style="stop-color:#FFFFFF;stop-opacity:0"/>
						</radialGradient>
						<path class="st109" d="M598.5,233.4c-1.1,0.2-2.1-0.6-2.4-1.8c-0.3-1.2,0.4-2.3,1.4-2.5c1.1-0.2,2.1,0.6,2.4,1.8
							C600.2,232,599.5,233.2,598.5,233.4z"/>
						<g>
							<path class="st41" d="M598.5,231.6c0,1.1-0.6,1.5-1.4,1.5c-0.8,0-1.4-0.3-1.4-1.5c0-1.1,1.4-2.6,1.4-2.6
								S598.5,230.4,598.5,231.6z"/>
							<path class="st103" d="M597.1,229C597.1,229,597,229,597.1,229l0,4.1c0,0,0,0,0,0c0.8,0,1.4-0.3,1.4-1.5
								C598.5,230.4,597.1,229,597.1,229z"/>
						</g>
						<g>
							
								<radialGradient id="SVGID_89_" cx="203.667" cy="126.0401" r="0.7771" gradientTransform="matrix(0.633 2.8272 -2.4832 0.4443 781.0952 -400.6181)" gradientUnits="userSpaceOnUse">
								<stop  offset="0" style="stop-color:#231F20"/>
								<stop  offset="1" style="stop-color:#FFFFFF;stop-opacity:0"/>
							</radialGradient>
							<path class="st110" d="M597.5,233.4c-1.1,0.2-2.1-0.6-2.4-1.8c-0.3-1.2,0.4-2.3,1.4-2.5c1.1-0.2,2.1,0.6,2.4,1.8
								C599.2,232,598.6,233.2,597.5,233.4z"/>
							<g>
								<path class="st41" d="M598,231.6c0,1.1-0.4,1.5-1,1.5s-1-0.3-1-1.5c0-1.1,1-2.6,1-2.6S598,230.4,598,231.6z"/>
								<path class="st103" d="M597,229C597,229,597,229,597,229l0,4.1c0,0,0,0,0,0c0.6,0,1-0.3,1-1.5C598,230.4,597,229,597,229z"
									/>
							</g>
						</g>
					</g>
					<g>
						
							<radialGradient id="SVGID_90_" cx="203.994" cy="125.0175" r="0.7771" gradientTransform="matrix(0.633 2.8272 -2.4832 0.4443 783.7223 -401.0882)" gradientUnits="userSpaceOnUse">
							<stop  offset="0" style="stop-color:#231F20"/>
							<stop  offset="1" style="stop-color:#FFFFFF;stop-opacity:0"/>
						</radialGradient>
						<path class="st111" d="M602.9,233.4c-1.1,0.2-2.1-0.6-2.4-1.8c-0.3-1.2,0.4-2.3,1.4-2.5c1.1-0.2,2.1,0.6,2.4,1.8
							C604.6,232,604,233.2,602.9,233.4z"/>
						<g>
							<path class="st41" d="M602.9,231.6c0,1.1-0.6,1.5-1.4,1.5c-0.8,0-1.4-0.3-1.4-1.5c0-1.1,1.4-2.6,1.4-2.6
								S602.9,230.4,602.9,231.6z"/>
							<path class="st103" d="M601.5,229C601.5,229,601.5,229,601.5,229l0,4.1c0,0,0,0,0,0c0.8,0,1.4-0.3,1.4-1.5
								C602.9,230.4,601.5,229,601.5,229z"/>
						</g>
						<g>
							
								<radialGradient id="SVGID_91_" cx="203.9356" cy="125.2002" r="0.7771" gradientTransform="matrix(0.633 2.8272 -2.4832 0.4443 783.2529 -401.0042)" gradientUnits="userSpaceOnUse">
								<stop  offset="0" style="stop-color:#231F20"/>
								<stop  offset="1" style="stop-color:#FFFFFF;stop-opacity:0"/>
							</radialGradient>
							<path class="st112" d="M601.9,233.4c-1.1,0.2-2.1-0.6-2.4-1.8c-0.3-1.2,0.4-2.3,1.4-2.5c1.1-0.2,2.1,0.6,2.4,1.8
								C603.6,232,603,233.2,601.9,233.4z"/>
							<g>
								<path class="st41" d="M602.5,231.6c0,1.1-0.4,1.5-1,1.5s-1-0.3-1-1.5c0-1.1,1-2.6,1-2.6S602.5,230.4,602.5,231.6z"/>
								<path class="st103" d="M601.5,229C601.5,229,601.4,229,601.5,229l0,4.1c0,0,0,0,0,0c0.6,0,1-0.3,1-1.5
									C602.5,230.4,601.5,229,601.5,229z"/>
							</g>
						</g>
					</g>
				</g>
			</g>
			
				<radialGradient id="SVGID_92_" cx="-55.4923" cy="255.2489" r="5.4284" gradientTransform="matrix(-0.5367 1.8851 -1.7797 -0.405 1047.5365 318.7339)" gradientUnits="userSpaceOnUse">
				<stop  offset="0" style="stop-color:#231F20"/>
				<stop  offset="1" style="stop-color:#FFFFFF;stop-opacity:0"/>
			</radialGradient>
			<path class="st113" d="M620.2,120.9c-5.3-1.2-8.4-6.7-6.8-12.3c1.6-5.6,7.2-9.1,12.5-7.9c5.3,1.2,8.4,6.7,6.8,12.3
				C631.1,118.5,625.5,122.1,620.2,120.9z"/>
			
				<radialGradient id="SVGID_93_" cx="-61.0311" cy="249.81" r="5.4284" gradientTransform="matrix(-0.5367 1.8851 -1.7797 -0.405 1057.5508 321.0127)" gradientUnits="userSpaceOnUse">
				<stop  offset="0" style="stop-color:#231F20"/>
				<stop  offset="1" style="stop-color:#FFFFFF;stop-opacity:0"/>
			</radialGradient>
			<path class="st114" d="M642.9,114.9c-5.3-1.2-8.4-6.7-6.8-12.3c1.6-5.6,7.2-9.1,12.5-7.9c5.3,1.2,8.4,6.7,6.8,12.3
				C653.8,112.6,648.2,116.1,642.9,114.9z"/>
			
				<radialGradient id="SVGID_94_" cx="-65.6803" cy="244.0919" r="5.4284" gradientTransform="matrix(-0.5367 1.8851 -1.7797 -0.405 1068.0791 323.4085)" gradientUnits="userSpaceOnUse">
				<stop  offset="0" style="stop-color:#231F20"/>
				<stop  offset="1" style="stop-color:#FFFFFF;stop-opacity:0"/>
			</radialGradient>
			<path class="st115" d="M666.1,110.9c-5.3-1.2-8.4-6.7-6.8-12.3s7.2-9.1,12.5-7.9c5.3,1.2,8.4,6.7,6.8,12.3
				C677,108.5,671.4,112.1,666.1,110.9z"/>
			
				<radialGradient id="SVGID_95_" cx="-49.3149" cy="261.4253" r="5.4284" gradientTransform="matrix(-0.5367 1.8851 -1.7797 -0.405 1036.1642 316.1461)" gradientUnits="userSpaceOnUse">
				<stop  offset="0" style="stop-color:#231F20"/>
				<stop  offset="1" style="stop-color:#FFFFFF;stop-opacity:0"/>
			</radialGradient>
			<path class="st116" d="M594.5,127.4c-5.3-1.2-8.4-6.7-6.8-12.3c1.6-5.6,7.2-9.1,12.5-7.9c5.3,1.2,8.4,6.7,6.8,12.3
				C605.5,125.1,599.8,128.6,594.5,127.4z"/>
			
				<radialGradient id="SVGID_96_" cx="-43.7713" cy="267.5116" r="5.4284" gradientTransform="matrix(-0.5367 1.8851 -1.7797 -0.405 1024.9579 313.596)" gradientUnits="userSpaceOnUse">
				<stop  offset="0" style="stop-color:#231F20"/>
				<stop  offset="1" style="stop-color:#FFFFFF;stop-opacity:0"/>
			</radialGradient>
			<path class="st117" d="M569.5,132.9c-5.3-1.2-8.4-6.7-6.8-12.3c1.6-5.6,7.2-9.1,12.5-7.9c5.3,1.2,8.4,6.7,6.8,12.3
				C580.4,130.5,574.8,134.1,569.5,132.9z"/>
			
				<radialGradient id="SVGID_97_" cx="-39.0141" cy="273.766" r="5.4284" gradientTransform="matrix(-0.5367 1.8851 -1.7797 -0.405 1013.442 310.9755)" gradientUnits="userSpaceOnUse">
				<stop  offset="0" style="stop-color:#231F20"/>
				<stop  offset="1" style="stop-color:#FFFFFF;stop-opacity:0"/>
			</radialGradient>
			<path class="st118" d="M544.3,136.7c-5.3-1.2-8.4-6.7-6.8-12.3c1.6-5.6,7.2-9.1,12.5-7.9c5.3,1.2,8.4,6.7,6.8,12.3
				C555.2,134.3,549.6,137.9,544.3,136.7z"/>
			
				<radialGradient id="SVGID_98_" cx="-33.3872" cy="280.2744" r="5.4284" gradientTransform="matrix(-0.5367 1.8851 -1.7797 -0.405 1001.4584 308.2486)" gradientUnits="userSpaceOnUse">
				<stop  offset="0" style="stop-color:#231F20"/>
				<stop  offset="1" style="stop-color:#FFFFFF;stop-opacity:0"/>
			</radialGradient>
			<path class="st119" d="M517.7,141.9c-5.3-1.2-8.4-6.7-6.8-12.3c1.6-5.6,7.2-9.1,12.5-7.9c5.3,1.2,8.4,6.7,6.8,12.3
				C528.7,139.6,523,143.1,517.7,141.9z"/>
			<g>
				<g>
					<linearGradient id="SVGID_99_" gradientUnits="userSpaceOnUse" x1="508.5343" y1="107.4456" x2="681.8666" y2="107.4456">
						<stop  offset="0.2642" style="stop-color:#FFFFFF"/>
						<stop  offset="0.4239" style="stop-color:#FBFBFB"/>
						<stop  offset="0.595" style="stop-color:#EEEEEE"/>
						<stop  offset="0.7714" style="stop-color:#D9D8D8"/>
						<stop  offset="0.9505" style="stop-color:#BCBBBB"/>
						<stop  offset="1" style="stop-color:#B2B1B1"/>
					</linearGradient>
					<path class="st120" d="M681.9,88c-7.1,2.3-14.2,4.4-21.3,6.4c-7.1,2-14.3,4-21.4,5.8c-14.3,3.7-28.7,7.3-43.2,10.5
						c-14.5,3.2-29,6.2-43.6,8.8c-7.3,1.4-14.6,2.6-21.9,3.9c-7.3,1.2-14.6,2.2-22,3.4c7.3-1.2,14.6-2.4,21.9-3.7
						c7.3-1.3,14.6-2.6,21.9-4c14.6-2.7,29-5.8,43.5-9.1c14.5-3.2,28.9-6.6,43.2-10.3c7.2-1.8,14.3-3.8,21.5-5.7
						C667.6,92.2,674.8,90.2,681.9,88z"/>
				</g>
				<g>
					<g>
						<polygon class="st41" points="525.6,140.4 535.7,122.2 515.6,124.9 						"/>
						<polygon class="st58" points="524.9,123.6 525.5,140.2 525.6,140.4 535.7,122.2 						"/>
					</g>
					<g>
						<polygon class="st41" points="552.4,136.1 561,117.4 541.1,121.3 						"/>
						<polygon class="st58" points="550.3,119.5 552.2,135.9 552.4,136.1 561,117.4 						"/>
					</g>
					<g>
						<polygon class="st41" points="577.2,131.4 585.1,112.5 565.4,117 						"/>
						<polygon class="st58" points="574.5,114.9 577,131.3 577.2,131.4 585.1,112.5 						"/>
					</g>
					<g>
						<polygon class="st41" points="601.3,126.1 609.3,107.1 589.6,111.6 						"/>
						<polygon class="st58" points="598.7,109.5 601.2,125.9 601.3,126.1 609.3,107.1 						"/>
					</g>
					<g>
						<polygon class="st41" points="625.5,120.1 633.5,101.1 613.8,105.6 						"/>
						<polygon class="st58" points="622.9,103.6 625.4,119.9 625.5,120.1 633.5,101.1 						"/>
					</g>
					<g>
						<polygon class="st41" points="650,114.3 657.4,95.1 637.8,100.1 						"/>
						<polygon class="st58" points="646.8,97.8 649.9,114.1 650,114.3 657.4,95.1 						"/>
					</g>
					<g>
						<polygon class="st41" points="673.4,108.1 680.6,88.8 661.1,94 						"/>
						<polygon class="st58" points="670.1,91.6 673.3,107.9 673.4,108.1 680.6,88.8 						"/>
					</g>
				</g>
			</g>
		</g>
	</g>
</g>
</svg>
