<?xml version="1.0" encoding="utf-8"?>
<!-- Generator: Adobe Illustrator 22.0.1, SVG Export Plug-In . SVG Version: 6.00 Build 0)  -->
<svg version="1.1" id="Layer_1" xmlns="http://www.w3.org/2000/svg" xmlns:xlink="http://www.w3.org/1999/xlink" x="0px" y="0px" height="450px" width="800px"
	 viewBox="0 0 800 450" style="enable-background:new 0 0 800 450;" xml:space="preserve">
<style type="text/css">
	.transition8_st0{fill:#349980;}
	.transition8_st1{fill:#76CACF;}
	.transition8_st2{fill:#4FA0CA;}
	.transition8_st3{fill:#2E58A6;}
	.transition8_st4{fill:#2E58A6;}
	.transition8_st5{fill:#4FA0CA;}
	.transition8_st6{fill:#4D4D4D;}
    
    .transition8_st7{fill:#BD50C9;}
    #transition8_Layer_2{
    animation : fade 3s ease-in-out ;
    visibility : hidden
    }
    @keyframes fade{
    0%,35%{
    visibility : visible
    }
    36%,100%{
    visibility : hidden
    }
    }
    #transition8_Layer_3{
    animation : hide 3s ease-in-out;
    
    }
    @keyframes hide{
    0%,37%{
    visibility : hidden
    }
    38%,100%{
    visibility : visible
    }
    }
</style>
    <g
   id="transition8_Layer_2">
	<rect
   class="transition8_st0"
   width="800"
   height="450"
   id="transition8_rect4" />
	<text
   transform="matrix(1 0 0 1 301.6624 243.0896)"
   class="transition8_st1 transition6_st2"
   id="transition8_text6"></text>

</g>
<g
   id="transition8_Layer_3">
	<rect
   class="transition8_st3"
   width="800"
   height="450"
   id="transition8_rect9" />
	<text
   transform="matrix(1 0 0 1 282.097 243.0896)"
   class="transition8_st1 transition8_st2"
   id="transition8_text11"></text>

</g>
<g>
    <!--<path id="Tri3" class="st4" d="M400-1168l3793.8-11230l3758,2497L400-1168z"/>
	<path id="Tri2" class="st5" d="M400-1168l7551.8-8733l2556.3,3886.6L400-1168z"/>
	<path id="Tri1" class="st6" d="M400-1168l10108.2-4846.4l947.8,4657.8L400-1168z"/>
    <path id="Tri3" class="st4" d="M566.2-585.3l11757.5-1505.9l-599.5,4471.9L566.2-585.3z"/>
	<path id="Tri2" class="st5" d="M566.2-585.3l11157.9,2966l-2375.1,4000L566.2-585.3z"/>
	<path id="Tri1" class="st6" d="M566.2-585.3l8782.9,6965.9L5576.4,9272.1L566.2-585.3z"/>-->
   <!--<path id="transition8_Tri3" class="transition8_st7" d="M655.1-457.8l8004.8-1126.8l-408.2,3346L655.1-457.8z"/>
	<path id="transition8_Tri2" class="transition8_st5" d="M655.1-457.8l7596.6,2219.3l-1617,2992.9L655.1-457.8z"/>
	<path id="transition8_Tri1"  class="transition8_st6" d="M655.1-457.8l5979.6,5212.1L4066.2,6917.8L655.1-457.8z"/>-->
	<!--<path id="transition8_Tri3" class="transition8_st7" d="M566.2-585.3l11757.5-1505.9l-599.5,4471.9L566.2-585.3z"/>
	<path id="transition8_Tri2" class="transition8_st5" d="M566.2-585.3l11157.9,2966l-2375.1,4000L566.2-585.3z"/>
	<path id="transition8_Tri1" class="transition8_st6" d="M566.2-585.3l8782.9,6965.9L5576.4,9272.1L566.2-585.3z"/>-->
    <!--<path id="transition8_Tri3" class="transition8_st7" d="M444.2-1417.2l4960.6-951.2L5151.9,456.2L444.2-1417.2z"/>
	<path id="transition8_Tri2" class="transition8_st5" d="M444.2-1417.2L5151.8,456.2L4149.8,2982.8L444.2-1417.2z"/>
	<path id="transition8_Tri1" class="transition8_st6"  d="M444.2-1417.2l3705.6,4400L2558.1,4809.2L444.2-1417.2z"/>-->
    <path id="transition8_Tri3" class="transition8_st4" d="M613.8-598.8L4530.5-1635l-66.9,2431.3L613.8-598.8z"/>
	<path id="transition8_Tri2" class="transition8_st5" d="M613.8-598.8L4463.6,796.3l-679.5,2209.4L613.8-598.8z"/>
	<path id="transition8_Tri1" class="transition8_st6" d="M613.8-598.8l3170.3,3604.4l-1184,1635.8L613.8-598.8z"/>
    
    <animateTransform
                      id="transition8_rotate"
                      attributeName="transform"
                      type="rotate"
                      values="0,957.49305,-1812.2386;89.734267,957.49305,-1812.2386"
                      dur="2s"
                      />
</g>
</svg>
